<svg width="13" height="8" viewBox="0 0 13 8" fill="none" xmlns="http://www.w3.org/2000/svg">
<path d="M5.78516 7.41797C5.89453 7.55469 6.05859 7.63672 6.25 7.63672C6.41406 7.63672 6.57812 7.55469 6.71484 7.41797L12.0195 2.11328C12.1289 1.97656 12.2109 1.8125 12.2109 1.64844C12.2109 1.45703 12.1289 1.29297 12.0195 1.18359L11.418 0.582031C11.2812 0.445312 11.1172 0.363281 10.9531 0.363281C10.7617 0.363281 10.5977 0.417969 10.4883 0.554687L6.25 4.79297L2.01172 0.554687C1.875 0.417968 1.71094 0.363281 1.54688 0.363281C1.35547 0.363281 1.19141 0.445312 1.08203 0.582031L0.480469 1.18359C0.34375 1.29297 0.289062 1.45703 0.289062 1.64844C0.289062 1.8125 0.34375 1.97656 0.480469 2.11328L5.78516 7.41797Z" fill="#1C1A54"/>
</svg>
