<svg width="17" height="16" viewBox="0 0 17 16" fill="none" xmlns="http://www.w3.org/2000/svg">
<path d="M11.6783 1.00024H13.6201C14.0317 0.993568 14.4317 1.12566 14.744 1.37145C15.0564 1.61724 15.2595 1.95961 15.3147 2.33357V7.00024C15.2595 7.3742 15.0564 7.71657 14.744 7.96236C14.4317 8.20815 14.0317 8.34025 13.6201 8.33357H11.6783M6.58738 9.66691V12.3336C6.58738 12.864 6.81725 13.3727 7.22642 13.7478C7.63559 14.1229 8.19054 14.3336 8.7692 14.3336L11.6783 8.33357V1.00024H3.47465C3.12387 0.996606 2.78347 1.1093 2.51618 1.31757C2.24888 1.52584 2.07271 1.81564 2.02011 2.13357L1.01647 8.13357C0.984829 8.32467 0.99889 8.51979 1.05768 8.70541C1.11647 8.89103 1.21858 9.06271 1.35694 9.20856C1.4953 9.35442 1.66659 9.47095 1.85896 9.5501C2.05133 9.62924 2.26017 9.6691 2.47102 9.66691H6.58738Z" stroke="#1C1A54" stroke-width="1.5" stroke-linecap="round" stroke-linejoin="round"/>
</svg>
