<svg width="32" height="32" viewBox="0 0 32 32" fill="none" xmlns="http://www.w3.org/2000/svg">
<g opacity="0.7">
<path d="M21.3333 16H28M16 4V10.6667V4Z" stroke="#223257" stroke-width="2.16667" stroke-linecap="round" stroke-linejoin="round"/>
<path d="M16.0003 21.3337C18.9458 21.3337 21.3337 18.9458 21.3337 16.0003C21.3337 13.0548 18.9458 10.667 16.0003 10.667C13.0548 10.667 10.667 13.0548 10.667 16.0003C10.667 18.9458 13.0548 21.3337 16.0003 21.3337Z" stroke="#223257" stroke-width="2.16667" stroke-linecap="round" stroke-linejoin="round"/>
<path d="M16 28C22.6274 28 28 22.6274 28 16C28 9.37258 22.6274 4 16 4C9.37258 4 4 9.37258 4 16C4 22.6274 9.37258 28 16 28Z" stroke="#223257" stroke-width="2.16667" stroke-linecap="round" stroke-linejoin="round"/>
</g>
</svg>
