<svg width="122" height="111" viewBox="0 0 122 111" fill="none" xmlns="http://www.w3.org/2000/svg">
<g clip-path="url(#clip0_1649_4950)">
<path d="M67.5595 36.6602H51.6295C50.1881 36.6602 49.0195 37.8265 49.0195 39.2652C49.0195 40.7039 50.1881 41.8702 51.6295 41.8702H67.5595C69.001 41.8702 70.1695 40.7039 70.1695 39.2652C70.1695 37.8265 69.001 36.6602 67.5595 36.6602Z" fill="#223257" fill-opacity="0.05"/>
<path d="M38.8402 36.6602H29.7702C28.3287 36.6602 27.1602 37.8265 27.1602 39.2652C27.1602 40.7039 28.3287 41.8702 29.7702 41.8702H38.8402C40.2816 41.8702 41.4502 40.7039 41.4502 39.2652C41.4502 37.8265 40.2816 36.6602 38.8402 36.6602Z" fill="#223257" fill-opacity="0.05"/>
<path d="M67.5595 55.01H51.6295C50.1895 55.01 49.0195 53.84 49.0195 52.4C49.0195 50.96 50.1895 49.79 51.6295 49.79H67.5595C68.9995 49.79 70.1695 50.96 70.1695 52.4C70.1695 53.84 68.9995 55.01 67.5595 55.01Z" fill="#223257" fill-opacity="0.05"/>
<path d="M38.8502 55.01H29.7702C28.3302 55.01 27.1602 53.84 27.1602 52.4C27.1602 50.96 28.3302 49.79 29.7702 49.79H38.8502C40.2902 49.79 41.4602 50.96 41.4602 52.4C41.4602 53.84 40.2902 55.01 38.8502 55.01Z" fill="#223257" fill-opacity="0.05"/>
<path d="M81.7698 68.1502H51.6198C50.1798 68.1502 49.0098 66.9802 49.0098 65.5402C49.0098 64.1002 50.1798 62.9302 51.6198 62.9302H81.7698C83.2098 62.9302 84.3798 64.1002 84.3798 65.5402C84.3798 66.9802 83.2098 68.1502 81.7698 68.1502Z" fill="#223257" fill-opacity="0.05"/>
<path d="M38.8502 68.1502H29.7702C28.3302 68.1502 27.1602 66.9802 27.1602 65.5402C27.1602 64.1002 28.3302 62.9302 29.7702 62.9302H38.8502C40.2902 62.9302 41.4602 64.1002 41.4602 65.5402C41.4602 66.9802 40.2902 68.1502 38.8502 68.1502Z" fill="#223257" fill-opacity="0.05"/>
<path d="M81.7698 81.2801H51.6198C50.1798 81.2801 49.0098 80.1101 49.0098 78.6701C49.0098 77.2301 50.1798 76.0601 51.6198 76.0601H81.7698C83.2098 76.0601 84.3798 77.2301 84.3798 78.6701C84.3798 80.1101 83.2098 81.2801 81.7698 81.2801Z" fill="#223257" fill-opacity="0.05"/>
<path d="M38.8502 81.2801H29.7702C28.3302 81.2801 27.1602 80.1101 27.1602 78.6701C27.1602 77.2301 28.3302 76.0601 29.7702 76.0601H38.8502C40.2902 76.0601 41.4602 77.2301 41.4602 78.6701C41.4602 80.1101 40.2902 81.2801 38.8502 81.2801Z" fill="#223257" fill-opacity="0.05"/>
<path d="M93.09 50.21C92.23 50.56 91.66 51.4 91.66 52.33V100.08C91.66 103.22 88.95 105.72 85.75 105.41C82.98 105.13 80.94 102.63 80.94 99.83V93.31C80.94 92.05 79.92 91.02 78.65 91.02H19.89V27.77C19.89 27.12 20.42 26.59 21.07 26.59H38.33C40.29 26.59 41.88 25 41.88 23.04V5.77C41.88 5.12 42.41 4.59 43.06 4.59H78.22C78.92 4.59 79.57 4.25 80.01 3.7L80.05 3.65C81.23 2.18 80.14 0 78.26 0H40.3C39.04 0 37.84 0.5 36.95 1.39L16.69 21.64C15.8 22.53 15.3 23.73 15.3 24.99V91.03H9.81003C4.75003 91.03 0.330029 94.84 0.0100291 99.89C-0.359971 105.42 4.04003 110.02 9.48003 110.02H86.3C91.79 110.02 96.24 105.57 96.24 100.08V52.33C96.24 50.7 94.59 49.59 93.09 50.21Z" fill="#223257" fill-opacity="0.05"/>
<path fill-rule="evenodd" clip-rule="evenodd" d="M80.6998 18.4699C81.7098 8.4999 90.0198 0.589903 100.03 0.0299029C111.97 -0.630097 121.84 9.2199 121.84 20.6199C121.84 32.0199 112.61 41.2499 101.21 41.2499C100.55 41.2499 99.8998 41.2099 99.2598 41.1399C98.6498 41.0799 98.0398 41.1499 97.4798 41.3799L83.3498 47.1499C82.3598 47.5499 81.3798 46.5399 81.8198 45.5599L85.5998 37.2199C86.1698 35.9799 85.9498 34.5499 85.0998 33.4899C81.8698 29.4499 80.1198 24.1699 80.6998 18.4699ZM87 26.9525H91.363V25.8439H88.0908V22.5264H87V26.9525ZM112.637 11H117V15.4261H115.909V12.1086H112.637V11ZM108.798 16.1031C109.256 16.8901 109.489 17.838 109.489 18.9382C109.489 20.3599 109.156 21.5193 108.498 22.4164C107.774 23.3981 106.766 23.8889 105.467 23.8889H100.438V15.1299V14.9522C100.438 14.4359 100.821 14.0805 101.329 14.0805H101.67H104.968C105.6 14.0805 106.158 14.1651 106.65 14.3344C107.582 14.656 108.298 15.2399 108.798 16.1031ZM106.05 20.9946C106.383 20.5715 106.55 19.886 106.55 18.9466C106.55 18.1511 106.358 17.5333 105.992 17.0763C105.609 16.577 104.934 16.3316 104.202 16.3316H103.269V21.6378H104.335C105.068 21.6378 105.717 21.4178 106.05 20.9946ZM113.977 14.0889V23.0173C113.977 23.5335 113.594 23.8889 113.086 23.8889H112.737H111.038V14.9522C111.038 14.4359 111.421 14.0805 111.929 14.0805L113.977 14.0889ZM95.9508 18.676L99.4978 23.8891H96.109L92.9533 19.2176V23.0259C92.9533 23.5421 92.5703 23.8976 92.0624 23.8976H91.5961H90.0141V14.9608C90.0141 14.4445 90.3971 14.0891 90.905 14.0891H92.9533V18.2021L96.1506 14.0891H99.4812L95.9508 18.676Z" fill="#223257" fill-opacity="0.05"/>
</g>
<defs>
<clipPath id="clip0_1649_4950">
<rect width="121.84" height="110.02" fill="white"/>
</clipPath>
</defs>
</svg>
