<svg width="417" height="269" viewBox="0 0 417 269" fill="none" xmlns="http://www.w3.org/2000/svg">
<path d="M135.855 4.02036V10.5782H136.658V4.02036L135.855 4.02036ZM136.406 6.88336V7.56042L137.954 7.56042V6.88336L136.406 6.88336ZM129.897 5.07464V5.72268L135.062 5.72268V5.07464L129.897 5.07464ZM132.479 6.2063C131.232 6.2063 130.381 6.85434 130.381 7.84092C130.381 8.81782 131.232 9.46586 132.479 9.46586C133.718 9.46586 134.569 8.81782 134.569 7.84092C134.569 6.85434 133.718 6.2063 132.479 6.2063ZM132.479 6.835C133.263 6.835 133.805 7.23156 133.805 7.84092C133.805 8.4406 133.263 8.83716 132.479 8.83716C131.686 8.83716 131.145 8.4406 131.145 7.84092C131.145 7.23156 131.686 6.835 132.479 6.835ZM132.073 4.01069V5.41317H132.876V4.01069H132.073ZM131.212 11.9033V12.561L137.054 12.561V11.9033L131.212 11.9033ZM131.212 10.0559V12.1838H132.015V10.0559H131.212ZM139.298 4.41693V5.07464L144.927 5.07464V4.41693L139.298 4.41693ZM138.292 7.55075V8.20846L146.213 8.20846V7.55075L138.292 7.55075ZM141.841 7.99567V10.0559H142.635V7.99567H141.841ZM144.405 4.41693V5.06497C144.405 5.77105 144.405 6.60286 144.114 7.77321L144.898 7.86993C145.188 6.67057 145.188 5.79039 145.188 5.06497V4.41693L144.405 4.41693ZM139.114 9.79472V10.4524H144.443V12.7544H145.246V9.79472H139.114Z" fill="#666666"/>
<circle cx="122.838" cy="7.77013" r="2.37365" fill="#221E1F"/>
<path d="M64.9606 8.38256V9.91079H65.7634V8.38256H64.9606ZM61.4109 8.10207V8.75011L69.3131 8.75011V8.10207L61.4109 8.10207ZM65.3572 9.66898C63.4808 9.66898 62.3588 10.2203 62.3588 11.2069C62.3588 12.1838 63.4808 12.7351 65.3572 12.7351C67.2336 12.7351 68.3556 12.1838 68.3556 11.2069C68.3556 10.2203 67.2336 9.66898 65.3572 9.66898ZM65.3572 10.288C66.7306 10.288 67.5431 10.6169 67.5431 11.2069C67.5431 11.7872 66.7306 12.1161 65.3572 12.1161C63.9934 12.1161 63.1712 11.7872 63.1712 11.2069C63.1712 10.6169 63.9934 10.288 65.3572 10.288ZM64.8445 4.72644V4.98759C64.8445 5.98384 63.4227 6.76729 61.8558 6.93172L62.146 7.57009C63.9547 7.34763 65.5603 6.39974 65.5603 4.98759V4.72644H64.8445ZM65.1831 4.72644V4.98759C65.1831 6.39974 66.779 7.34763 68.5877 7.57009L68.8779 6.93172C67.311 6.76729 65.8892 5.98384 65.8892 4.98759V4.72644H65.1831ZM62.1363 4.40725V5.0553L68.6071 5.0553V4.40725L62.1363 4.40725ZM76.2281 4.00102V12.7641H77.0212V4.00102H76.2281ZM74.342 7.19287V7.85059L76.4602 7.85059V7.19287L74.342 7.19287ZM72.0496 5.25841V6.56417C72.0496 8.12141 71.0147 9.77537 69.7573 10.3944L70.2313 11.0328C71.6144 10.317 72.6977 8.45027 72.6977 6.56417V5.25841H72.0496ZM72.2141 5.25841V6.56417C72.2141 8.36322 73.278 10.1623 74.6612 10.849L75.1351 10.2203C73.868 9.62062 72.8524 8.02469 72.8524 6.56417V5.25841H72.2141ZM70.0765 4.90054V5.56793L74.8353 5.56793V4.90054H70.0765ZM78.2488 10.9554V11.6228H86.1704V10.9554H78.2488ZM81.7695 8.83716V11.1779H82.5627V8.83716H81.7695ZM81.7502 4.59103V5.26809C81.7502 6.70926 80.0962 7.99567 78.5583 8.27617L78.8969 8.94356C80.6572 8.57601 82.4466 7.13484 82.4466 5.26809V4.59103H81.7502ZM81.8953 4.59103V5.26809C81.8953 7.13484 83.6847 8.57601 85.445 8.94356L85.7932 8.27617C84.2553 7.99567 82.5917 6.71893 82.5917 5.26809V4.59103H81.8953ZM86.663 8.2665V8.91454L94.5652 8.91454V8.2665L86.663 8.2665ZM87.5335 9.95915V10.6169L92.7952 10.6169V12.8028H93.598V9.95915L87.5335 9.95915ZM87.6592 6.65122V7.29927L93.656 7.29927V6.65122L87.6592 6.65122ZM87.6592 4.33955V6.98008H88.462V4.99726L93.5787 4.99726V4.33955L87.6592 4.33955ZM96.083 4.41693V5.07464L101.712 5.07464V4.41693L96.083 4.41693ZM95.0771 7.55075V8.20846L102.999 8.20846V7.55075L95.0771 7.55075ZM98.6268 7.99567V10.0559L99.42 10.0559V7.99567H98.6268ZM101.19 4.41693V5.06497C101.19 5.77105 101.19 6.60286 100.9 7.77321L101.683 7.86993C101.973 6.67057 101.973 5.79039 101.973 5.06497V4.41693H101.19ZM95.8992 9.79472V10.4524L101.229 10.4524V12.7544H102.031V9.79472L95.8992 9.79472Z" fill="#666666"/>
<rect x="52.7578" y="5.39648" width="4.7473" height="4.7473" fill="#2B6A37"/>
<path d="M13.3623 4.67808C12.0759 4.67808 11.1667 5.86777 11.1667 7.72485C11.1667 9.5916 12.0759 10.7813 13.3623 10.7813C14.6487 10.7813 15.5579 9.5916 15.5579 7.72485C15.5579 5.86777 14.6487 4.67808 13.3623 4.67808ZM13.3623 5.4035C14.2038 5.4035 14.7938 6.31269 14.7938 7.72485C14.7938 9.14667 14.2038 10.0752 13.3623 10.0752C12.5111 10.0752 11.9308 9.14667 11.9308 7.72485C11.9308 6.31269 12.5111 5.4035 13.3623 5.4035ZM16.9507 4.01069V12.7544H17.7632V4.01069L16.9507 4.01069ZM17.5697 7.50239V8.17945L19.1947 8.17945V7.50239L17.5697 7.50239ZM21.7571 4.76513V6.33204C21.7571 7.986 20.7028 9.65931 19.4067 10.2783L19.9 10.936C21.3315 10.2106 22.4148 8.34387 22.4148 6.33204V4.76513H21.7571ZM21.8925 4.76513V6.33204C21.8925 8.27617 22.9854 10.0752 24.4073 10.7716L24.8909 10.1332C23.5948 9.53357 22.5502 7.92797 22.5502 6.33204V4.76513H21.8925ZM25.8001 4.00102V12.7641H26.6029L26.6029 4.00102H25.8001ZM30.1905 4.67808C28.9041 4.67808 27.9949 5.86777 27.9949 7.72485C27.9949 9.5916 28.9041 10.7813 30.1905 10.7813C31.477 10.7813 32.3862 9.5916 32.3862 7.72485C32.3862 5.86777 31.477 4.67808 30.1905 4.67808ZM30.1905 5.4035C31.032 5.4035 31.622 6.31269 31.622 7.72485C31.622 9.14667 31.032 10.0752 30.1905 10.0752C29.3394 10.0752 28.759 9.14667 28.759 7.72485C28.759 6.31269 29.3394 5.4035 30.1905 5.4035ZM33.779 4.01069V12.7544H34.5914V4.01069H33.779ZM34.398 7.50239V8.17945H36.0229V7.50239L34.398 7.50239Z" fill="#666666"/>
<rect x="3.35681" y="4.51733" width="4.7473" height="4.7473" transform="rotate(45 3.35681 4.51733)" fill="#CF534D"/>
<path d="M27.4074 249.826V250.496H35.5774V249.826H27.4074ZM31.0874 248.716V250.136H31.9074V248.716H31.0874ZM31.0874 245.116V246.376H31.9074V245.116H31.0874ZM31.0474 246.456V246.606C31.0474 247.636 29.6374 248.356 27.8874 248.506L28.1374 249.146C30.1174 248.946 31.7774 248.086 31.7774 246.606V246.456H31.0474ZM31.2174 246.456V246.606C31.2174 248.086 32.8774 248.946 34.8574 249.146L35.1074 248.506C33.3574 248.356 31.9474 247.636 31.9474 246.606V246.456H31.2174ZM28.2474 246.026V246.686H34.7474V246.026H28.2474ZM31.4874 251.176C29.5374 251.176 28.3874 251.706 28.3874 252.676C28.3874 253.646 29.5374 254.166 31.4874 254.166C33.4374 254.166 34.5874 253.646 34.5874 252.676C34.5874 251.706 33.4374 251.176 31.4874 251.176ZM31.4874 251.806C32.9174 251.806 33.7474 252.106 33.7474 252.676C33.7474 253.226 32.9174 253.536 31.4874 253.536C30.0574 253.536 29.2274 253.226 29.2274 252.676C29.2274 252.106 30.0574 251.806 31.4874 251.806ZM44.4229 245.156V251.756H45.2629V245.156H44.4229ZM39.4529 253.306V253.986H45.5329V253.306H39.4529ZM39.4529 251.076V253.536H40.2729V251.076H39.4529ZM40.4129 245.776C39.0629 245.776 38.0529 246.696 38.0529 248.006C38.0529 249.306 39.0629 250.236 40.4129 250.236C41.7629 250.236 42.7629 249.306 42.7629 248.006C42.7629 246.696 41.7629 245.776 40.4129 245.776ZM40.4129 246.496C41.2929 246.496 41.9629 247.116 41.9629 248.006C41.9629 248.886 41.2929 249.506 40.4129 249.506C39.5329 249.506 38.8629 248.886 38.8629 248.006C38.8629 247.116 39.5329 246.496 40.4129 246.496ZM47.5721 245.736V246.406H53.2221V245.736H47.5721ZM46.5521 249.616V250.296H54.7221V249.616H46.5521ZM50.2021 250.066V254.196H51.0321V250.066H50.2021ZM52.8321 245.736V246.516C52.8321 247.426 52.8321 248.476 52.4821 249.936L53.3021 250.046C53.6421 248.516 53.6421 247.456 53.6421 246.516V245.736H52.8321ZM60.6477 249.666V251.246H61.4777V249.666H60.6477ZM56.9777 249.376V250.046H65.1477V249.376H56.9777ZM61.0577 250.996C59.1177 250.996 57.9577 251.566 57.9577 252.586C57.9577 253.596 59.1177 254.166 61.0577 254.166C62.9977 254.166 64.1577 253.596 64.1577 252.586C64.1577 251.566 62.9977 250.996 61.0577 250.996ZM61.0577 251.636C62.4777 251.636 63.3177 251.976 63.3177 252.586C63.3177 253.186 62.4777 253.526 61.0577 253.526C59.6477 253.526 58.7977 253.186 58.7977 252.586C58.7977 251.976 59.6477 251.636 61.0577 251.636ZM60.5277 245.886V246.156C60.5277 247.186 59.0577 247.996 57.4377 248.166L57.7377 248.826C59.6077 248.596 61.2677 247.616 61.2677 246.156V245.886H60.5277ZM60.8777 245.886V246.156C60.8777 247.616 62.5277 248.596 64.3977 248.826L64.6977 248.166C63.0777 247.996 61.6077 247.186 61.6077 246.156V245.886H60.8777ZM57.7277 245.556V246.226H64.4177V245.556H57.7277ZM29.6241 260.156V260.836H31.9541V260.156H29.6241ZM27.0841 258.916V259.516C27.0841 260.676 26.1541 261.816 24.8341 262.266L25.2341 262.916C26.7441 262.406 27.7641 261.036 27.7641 259.516V258.916H27.0841ZM27.2441 258.916V259.526C27.2441 260.966 28.2241 262.226 29.7041 262.706L30.1041 262.056C28.8041 261.646 27.9241 260.606 27.9241 259.526V258.916H27.2441ZM25.0841 258.606V259.286H29.9141V258.606H25.0841ZM31.4041 258.146V262.806H32.2341V258.146H31.4041ZM26.4141 263.266V263.926H31.4141V264.816H26.4341V266.836H27.2441V265.436H32.2341V263.266H26.4141ZM26.4341 266.426V267.086H32.5641V266.426H26.4341ZM40.3733 258.146V267.186H41.1733V258.146H40.3733ZM38.8433 261.766V262.456H40.5833V261.766H38.8433ZM38.3233 258.346V266.726H39.1033V258.346H38.3233ZM33.8233 264.266V264.956H34.4133C35.7733 264.956 36.6833 264.916 37.7633 264.686L37.6833 263.996C36.6333 264.216 35.7333 264.266 34.4133 264.266H33.8233ZM33.8233 259.246V264.576H34.6433V259.926H37.1833V259.246H33.8233ZM42.6725 258.786V263.266H46.9025V258.786H46.0825V260.296H43.4825V258.786H42.6725ZM43.4825 260.956H46.0825V262.586H43.4825V260.956ZM48.7725 258.156V264.826H49.6125V258.156H48.7725ZM43.7425 266.306V266.986H49.8225V266.306H43.7425ZM43.7425 264.166V266.626H44.5725V264.166H43.7425ZM51.8717 258.676V259.356H57.6917V258.676H51.8717ZM50.9017 262.646V263.326H59.0617V262.646H50.9017ZM54.2517 260.786V262.826H55.0717V260.786H54.2517ZM57.2117 258.676V259.316C57.2117 259.996 57.2117 260.796 56.9617 261.936L57.7817 262.036C58.0317 260.876 58.0317 260.016 58.0317 259.316V258.676H57.2117ZM51.9417 266.306V266.986H58.2517V266.306H51.9417ZM51.9417 264.246V266.776H52.7717V264.246H51.9417ZM61.801 262.206V263.876H62.631V262.206H61.801ZM64.681 262.206V263.876H65.501V262.206H64.681ZM63.681 258.256C61.681 258.256 60.501 258.806 60.501 259.816C60.501 260.826 61.681 261.386 63.681 261.386C65.671 261.386 66.861 260.826 66.861 259.816C66.861 258.806 65.671 258.256 63.681 258.256ZM63.681 258.886C65.151 258.886 66.001 259.226 66.001 259.816C66.001 260.416 65.151 260.756 63.681 260.756C62.201 260.756 61.351 260.416 61.351 259.816C61.351 259.226 62.201 258.886 63.681 258.886ZM59.591 261.926V262.596H67.761V261.926H59.591ZM60.581 263.476V264.116H65.901V264.916H60.601V266.616H61.421V265.516H66.721V263.476H60.581ZM60.601 266.436V267.086H66.991V266.436H60.601Z" fill="#7C7B75"/>
<path d="M87.9786 246.436V247.906C87.9786 249.466 86.8886 251.166 85.5786 251.786L86.0586 252.446C87.4986 251.736 88.6486 249.816 88.6486 247.906V246.436H87.9786ZM88.1386 246.436V247.906C88.1386 249.786 89.2986 251.546 90.7586 252.226L91.2286 251.566C89.8986 250.996 88.8086 249.436 88.8086 247.906V246.436H88.1386ZM85.8786 246.066V246.766H90.9286V246.066H85.8786ZM92.1486 245.146V254.186H92.9786V245.146H92.1486ZM100.858 245.146V254.186H101.688V245.146H100.858ZM94.8578 246.026V251.626H95.6778V246.026H94.8578ZM94.8578 251.136V251.856H95.5978C97.0278 251.856 98.4578 251.746 100.028 251.426L99.9278 250.716C98.3978 251.036 96.9678 251.136 95.5978 251.136H94.8578ZM106.487 247.656V248.326H108.497V247.656H106.487ZM106.417 249.926V250.596H108.477V249.926H106.417ZM109.867 245.146V254.186H110.667V245.146H109.867ZM108.057 245.376V253.726H108.837V245.376H108.057ZM106.037 246.286V246.436C106.037 248.566 105.087 250.366 102.977 251.646L103.457 252.236C105.887 250.786 106.837 248.656 106.837 246.286H106.037ZM103.377 246.286V246.966H106.367V246.286H103.377ZM115.336 245.466V245.966C115.336 247.256 113.746 248.336 112.096 248.586L112.426 249.256C114.306 248.936 116.066 247.696 116.066 245.966V245.466H115.336ZM115.486 245.466V245.966C115.486 247.676 117.256 248.936 119.116 249.256L119.446 248.586C117.816 248.336 116.206 247.226 116.206 245.966V245.466H115.486ZM115.336 250.746V254.186H116.156V250.746H115.336ZM111.686 250.236V250.926H119.856V250.236H111.686ZM79.5528 268.376L80.1128 268.116C79.2528 266.696 78.8328 265.006 78.8328 263.306C78.8328 261.606 79.2528 259.916 80.1128 258.496L79.5528 258.226C78.6228 259.726 78.0728 261.346 78.0728 263.306C78.0728 265.276 78.6228 266.876 79.5528 268.376ZM82.8217 266.546C84.2017 266.546 85.0917 265.276 85.0917 262.716C85.0917 260.176 84.2017 258.946 82.8217 258.946C81.4217 258.946 80.5317 260.176 80.5317 262.716C80.5317 265.276 81.4217 266.546 82.8217 266.546ZM82.8217 265.806C81.9817 265.806 81.4117 264.876 81.4117 262.716C81.4117 260.586 81.9817 259.676 82.8217 259.676C83.6517 259.676 84.2117 260.586 84.2117 262.716C84.2117 264.876 83.6517 265.806 82.8217 265.806ZM85.4586 261.866H90.2586V261.186H85.4586V261.866ZM85.4586 264.256H90.2586V263.576H85.4586V264.256ZM92.9655 261.896V263.266H93.7955V261.896H92.9655ZM93.3555 258.556C92.0555 258.556 91.1355 259.276 91.1355 260.346C91.1355 261.416 92.0555 262.126 93.3555 262.126C94.6655 262.126 95.5855 261.416 95.5855 260.346C95.5855 259.276 94.6655 258.556 93.3555 258.556ZM93.3555 259.196C94.2155 259.196 94.8055 259.666 94.8055 260.346C94.8055 261.036 94.2155 261.496 93.3555 261.496C92.5055 261.496 91.9155 261.036 91.9155 260.346C91.9155 259.666 92.5055 259.196 93.3555 259.196ZM96.8055 258.156V265.066H97.6355V258.156H96.8055ZM97.2855 261.206V261.896H98.9555V261.206H97.2855ZM91.9155 266.296V266.986H97.9555V266.296H91.9155ZM91.9155 264.476V266.596H92.7455V264.476H91.9155ZM90.7255 263.726C92.2755 263.726 94.4155 263.706 96.3055 263.356L96.2455 262.746C94.4055 263.026 92.2055 263.046 90.6155 263.046L90.7255 263.726ZM104.125 260.636V261.316H106.405V260.636H104.125ZM105.935 258.156V264.776H106.765V258.156H105.935ZM100.995 266.306V266.986H107.015V266.306H100.995ZM100.995 264.196V266.656H101.825V264.196H100.995ZM101.635 259.276V260.006C101.635 261.286 100.705 262.486 99.3547 262.966L99.7847 263.626C101.295 263.066 102.315 261.646 102.315 260.006V259.276H101.635ZM101.795 259.276V259.996C101.795 261.526 102.765 262.886 104.235 263.416L104.655 262.766C103.345 262.306 102.465 261.166 102.465 259.996V259.276H101.795ZM99.6147 258.886V259.556H104.445V258.886H99.6147ZM113.154 259.756V260.436H115.094V259.756H113.154ZM113.154 261.376V262.056H115.094V261.376H113.154ZM108.294 258.826V259.506H113.054V258.826H108.294ZM108.144 263.186C109.614 263.186 111.644 263.166 113.384 262.886L113.334 262.266C111.644 262.466 109.534 262.486 108.054 262.486L108.144 263.186ZM109.194 259.356V262.716H109.994V259.356H109.194ZM111.354 259.356V262.716H112.154V259.356H111.354ZM114.634 258.146V263.726H115.464V258.146H114.634ZM112.494 263.906C110.614 263.906 109.474 264.496 109.474 265.536C109.474 266.576 110.614 267.166 112.494 267.166C114.364 267.166 115.504 266.576 115.504 265.536C115.504 264.496 114.364 263.906 112.494 263.906ZM112.494 264.556C113.864 264.556 114.684 264.916 114.684 265.536C114.684 266.156 113.864 266.526 112.494 266.526C111.124 266.526 110.304 266.156 110.304 265.536C110.304 264.916 111.124 264.556 112.494 264.556ZM116.733 262.446V263.136H124.903V262.446H116.733ZM117.763 260.916V261.586H123.953V260.916H117.763ZM117.763 258.506V261.236H118.583V259.186H123.883V258.506H117.763ZM120.803 263.916C118.873 263.916 117.703 264.506 117.703 265.546C117.703 266.586 118.873 267.166 120.803 267.166C122.733 267.166 123.903 266.586 123.903 265.546C123.903 264.506 122.733 263.916 120.803 263.916ZM120.803 264.556C122.223 264.556 123.063 264.916 123.063 265.546C123.063 266.166 122.223 266.516 120.803 266.516C119.393 266.516 118.543 266.166 118.543 265.546C118.543 264.916 119.393 264.556 120.803 264.556ZM125.922 268.376C126.842 266.876 127.392 265.276 127.392 263.306C127.392 261.346 126.842 259.726 125.922 258.226L125.352 258.496C126.212 259.916 126.632 261.606 126.632 263.306C126.632 265.006 126.212 266.696 125.352 268.116L125.922 268.376Z" fill="#7C7B75"/>
<path d="M211.099 246.756V247.436H213.039V246.756H211.099ZM211.099 248.376V249.056H213.039V248.376H211.099ZM206.239 245.826V246.506H210.999V245.826H206.239ZM206.089 250.186C207.559 250.186 209.589 250.166 211.329 249.886L211.279 249.266C209.589 249.466 207.479 249.486 205.999 249.486L206.089 250.186ZM207.139 246.356V249.716H207.939V246.356H207.139ZM209.299 246.356V249.716H210.099V246.356H209.299ZM212.579 245.146V250.726H213.409V245.146H212.579ZM210.439 250.906C208.559 250.906 207.419 251.496 207.419 252.536C207.419 253.576 208.559 254.166 210.439 254.166C212.309 254.166 213.449 253.576 213.449 252.536C213.449 251.496 212.309 250.906 210.439 250.906ZM210.439 251.556C211.809 251.556 212.629 251.916 212.629 252.536C212.629 253.156 211.809 253.526 210.439 253.526C209.069 253.526 208.249 253.156 208.249 252.536C208.249 251.916 209.069 251.556 210.439 251.556ZM215.699 245.626V246.306H221.469V245.626H215.699ZM214.679 249.026V249.706H222.869V249.026H214.679ZM217.399 249.456V251.886H218.209V249.456H217.399ZM220.999 245.626V246.316C220.999 247.096 220.999 247.976 220.729 249.236L221.539 249.326C221.809 248.046 221.809 247.116 221.809 246.316V245.626H220.999ZM215.659 253.306V253.986H222.059V253.306H215.659ZM215.659 251.146V253.476H216.489V251.146H215.659ZM219.789 249.456V251.886H220.599V249.456H219.789ZM203.86 258.146V267.186H204.69V258.146H203.86ZM201.21 259.116V259.256C201.21 261.656 200 263.576 197.39 264.836L197.83 265.506C200.85 264.026 202.03 261.736 202.03 259.116H201.21ZM197.8 259.116V259.796H201.57V259.116H197.8ZM212.849 258.146V267.186H213.649V258.146H212.849ZM211.319 261.766V262.456H213.059V261.766H211.319ZM210.799 258.346V266.726H211.579V258.346H210.799ZM206.299 264.266V264.956H206.889C208.249 264.956 209.159 264.916 210.239 264.686L210.159 263.996C209.109 264.216 208.209 264.266 206.889 264.266H206.299ZM206.299 259.246V264.576H207.119V259.926H209.659V259.246H206.299ZM218.329 258.466V258.966C218.329 260.256 216.739 261.336 215.089 261.586L215.419 262.256C217.299 261.936 219.059 260.696 219.059 258.966V258.466H218.329ZM218.479 258.466V258.966C218.479 260.676 220.249 261.936 222.109 262.256L222.439 261.586C220.809 261.336 219.199 260.226 219.199 258.966V258.466H218.479ZM218.329 263.746V267.186H219.149V263.746H218.329ZM214.679 263.236V263.926H222.849V263.236H214.679ZM227.688 259.606V260.286H230.298V259.606H227.688ZM227.688 261.406V262.076H230.318V261.406H227.688ZM229.978 258.146V263.496H230.808V258.146H229.978ZM223.788 258.826V262.846H227.918V258.826H223.788ZM227.098 259.496V262.186H224.598V259.496H227.098ZM227.838 263.756C225.968 263.756 224.818 264.386 224.818 265.466C224.818 266.546 225.968 267.166 227.838 267.166C229.698 267.166 230.848 266.546 230.848 265.466C230.848 264.386 229.698 263.756 227.838 263.756ZM227.838 264.416C229.198 264.416 230.028 264.806 230.028 265.466C230.028 266.126 229.198 266.516 227.838 266.516C226.478 266.516 225.648 266.126 225.648 265.466C225.648 264.806 226.478 264.416 227.838 264.416Z" fill="#7C7B75"/>
<path d="M312.809 253.406H316.829V252.646H315.349V246.076H314.649C314.259 246.316 313.789 246.486 313.129 246.596V247.186H314.439V252.646H312.809V253.406ZM317.876 245.726V249.936H321.376V245.726H320.586V247.146H318.656V245.726H317.876ZM318.656 247.806H320.586V249.266H318.656V247.806ZM324.296 245.156V250.576H325.086V245.156H324.296ZM322.836 247.496V248.186H324.546V247.496H322.836ZM322.356 245.316V250.526H323.146V245.316H322.356ZM319.026 251.116V251.796H324.266V254.186H325.086V251.116H319.026ZM330.485 246.606V247.286H333.095V246.606H330.485ZM330.485 248.406V249.076H333.115V248.406H330.485ZM332.775 245.146V250.496H333.605V245.146H332.775ZM326.585 245.826V249.846H330.715V245.826H326.585ZM329.895 246.496V249.186H327.395V246.496H329.895ZM330.635 250.756C328.765 250.756 327.615 251.386 327.615 252.466C327.615 253.546 328.765 254.166 330.635 254.166C332.495 254.166 333.645 253.546 333.645 252.466C333.645 251.386 332.495 250.756 330.635 250.756ZM330.635 251.416C331.995 251.416 332.825 251.806 332.825 252.466C332.825 253.126 331.995 253.516 330.635 253.516C329.275 253.516 328.445 253.126 328.445 252.466C328.445 251.806 329.275 251.416 330.635 251.416ZM342.801 245.146V250.516H343.631V245.146H342.801ZM343.391 247.496V248.186H344.961V247.496H343.391ZM340.741 250.706C338.911 250.706 337.771 251.356 337.771 252.446C337.771 253.536 338.911 254.176 340.741 254.176C342.571 254.176 343.711 253.536 343.711 252.446C343.711 251.356 342.571 250.706 340.741 250.706ZM340.741 251.386C342.081 251.386 342.901 251.766 342.901 252.446C342.901 253.106 342.081 253.496 340.741 253.496C339.401 253.496 338.581 253.106 338.581 252.446C338.581 251.766 339.401 251.386 340.741 251.386ZM337.011 249.126V249.806H337.711C339.621 249.806 340.691 249.746 341.941 249.496L341.841 248.816C340.631 249.066 339.581 249.126 337.711 249.126H337.011ZM337.011 245.836V249.566H337.831V246.516H341.001V245.836H337.011ZM320.091 259.616V260.296H322.641V259.616H320.091ZM320.091 261.466V262.156H322.641V261.466H320.091ZM316.261 258.696V262.956H320.341V258.696H319.531V260.136H317.081V258.696H316.261ZM317.081 260.806H319.531V262.286H317.081V260.806ZM322.421 258.146V263.616H323.251V258.146H322.421ZM320.281 263.796C318.411 263.796 317.261 264.426 317.261 265.486C317.261 266.556 318.411 267.166 320.281 267.166C322.141 267.166 323.291 266.556 323.291 265.486C323.291 264.426 322.141 263.796 320.281 263.796ZM320.281 264.456C321.641 264.456 322.471 264.826 322.471 265.486C322.471 266.136 321.641 266.516 320.281 266.516C318.921 266.516 318.091 266.136 318.091 265.486C318.091 264.826 318.921 264.456 320.281 264.456ZM326.71 258.616V259.536C326.71 260.916 325.83 262.136 324.47 262.636L324.91 263.306C326.42 262.716 327.4 261.276 327.4 259.536V258.616H326.71ZM326.86 258.616V259.596C326.86 261.166 327.85 262.506 329.3 263.046L329.74 262.396C328.44 261.946 327.54 260.816 327.54 259.596V258.616H326.86ZM330.7 258.146V263.626H331.53V258.146H330.7ZM331.3 260.476V261.176H332.87V260.476H331.3ZM328.65 263.876C326.8 263.876 325.68 264.486 325.68 265.526C325.68 266.566 326.8 267.166 328.65 267.166C330.5 267.166 331.62 266.566 331.62 265.526C331.62 264.486 330.5 263.876 328.65 263.876ZM328.65 264.536C329.99 264.536 330.81 264.896 330.81 265.526C330.81 266.156 329.99 266.516 328.65 266.516C327.31 266.516 326.49 266.156 326.49 265.526C326.49 264.896 327.31 264.536 328.65 264.536ZM336.869 258.466V258.966C336.869 260.256 335.279 261.336 333.629 261.586L333.959 262.256C335.839 261.936 337.599 260.696 337.599 258.966V258.466H336.869ZM337.019 258.466V258.966C337.019 260.676 338.789 261.936 340.649 262.256L340.979 261.586C339.349 261.336 337.739 260.226 337.739 258.966V258.466H337.019ZM336.869 263.746V267.186H337.689V263.746H336.869ZM333.219 263.236V263.926H341.389V263.236H333.219Z" fill="#7C7B75"/>
<path d="M139.267 245.656V246.586C139.267 247.966 138.367 249.176 136.987 249.666L137.417 250.346C138.967 249.766 139.957 248.336 139.957 246.586V245.656H139.267ZM139.417 245.656V246.556C139.417 248.196 140.387 249.526 141.847 250.076L142.297 249.426C140.977 248.966 140.097 247.836 140.097 246.556V245.656H139.417ZM143.597 245.146V250.496H144.427V245.146H143.597ZM141.457 250.756C139.587 250.756 138.437 251.386 138.437 252.466C138.437 253.546 139.587 254.166 141.457 254.166C143.317 254.166 144.467 253.546 144.467 252.466C144.467 251.386 143.317 250.756 141.457 250.756ZM141.457 251.416C142.817 251.416 143.647 251.806 143.647 252.466C143.647 253.126 142.817 253.516 141.457 253.516C140.097 253.516 139.267 253.126 139.267 252.466C139.267 251.806 140.097 251.416 141.457 251.416ZM141.637 247.056V247.746H143.777V247.056H141.637ZM149.356 249.486V250.866H150.176V249.486H149.356ZM146.776 245.286V248.266H152.796V245.286H151.966V246.126H147.596V245.286H146.776ZM147.596 246.766H151.966V247.626H147.596V246.766ZM145.686 249.006V249.676H153.856V249.006H145.686ZM146.676 250.556V251.186H151.996V251.966H146.696V253.686H147.516V252.566H152.816V250.556H146.676ZM146.696 253.446V254.086H153.086V253.446H146.696ZM159.515 246.756V247.436H161.455V246.756H159.515ZM159.515 248.376V249.056H161.455V248.376H159.515ZM154.655 245.826V246.506H159.415V245.826H154.655ZM154.505 250.186C155.975 250.186 158.005 250.166 159.745 249.886L159.695 249.266C158.005 249.466 155.895 249.486 154.415 249.486L154.505 250.186ZM155.555 246.356V249.716H156.355V246.356H155.555ZM157.715 246.356V249.716H158.515V246.356H157.715ZM160.995 245.146V250.726H161.825V245.146H160.995ZM158.855 250.906C156.975 250.906 155.835 251.496 155.835 252.536C155.835 253.576 156.975 254.166 158.855 254.166C160.725 254.166 161.865 253.576 161.865 252.536C161.865 251.496 160.725 250.906 158.855 250.906ZM158.855 251.556C160.225 251.556 161.045 251.916 161.045 252.536C161.045 253.156 160.225 253.526 158.855 253.526C157.485 253.526 156.665 253.156 156.665 252.536C156.665 251.916 157.485 251.556 158.855 251.556ZM163.094 249.446V250.136H171.264V249.446H163.094ZM164.124 247.916V248.586H170.314V247.916H164.124ZM164.124 245.506V248.236H164.944V246.186H170.244V245.506H164.124ZM167.164 250.916C165.234 250.916 164.064 251.506 164.064 252.546C164.064 253.586 165.234 254.166 167.164 254.166C169.094 254.166 170.264 253.586 170.264 252.546C170.264 251.506 169.094 250.916 167.164 250.916ZM167.164 251.556C168.584 251.556 169.424 251.916 169.424 252.546C169.424 253.166 168.584 253.516 167.164 253.516C165.754 253.516 164.904 253.166 164.904 252.546C164.904 251.916 165.754 251.556 167.164 251.556ZM174.183 246.436V247.906C174.183 249.466 173.093 251.166 171.783 251.786L172.263 252.446C173.703 251.736 174.853 249.816 174.853 247.906V246.436H174.183ZM174.343 246.436V247.906C174.343 249.786 175.503 251.546 176.963 252.226L177.433 251.566C176.103 250.996 175.013 249.436 175.013 247.906V246.436H174.343ZM172.083 246.066V246.766H177.133V246.066H172.083ZM178.353 245.146V254.186H179.183V245.146H178.353ZM184.143 245.466V245.966C184.143 247.256 182.553 248.336 180.903 248.586L181.233 249.256C183.113 248.936 184.873 247.696 184.873 245.966V245.466H184.143ZM184.293 245.466V245.966C184.293 247.676 186.063 248.936 187.923 249.256L188.253 248.586C186.623 248.336 185.013 247.226 185.013 245.966V245.466H184.293ZM184.143 250.746V254.186H184.963V250.746H184.143ZM180.493 250.236V250.926H188.663V250.236H180.493ZM139.66 268.376L140.22 268.116C139.36 266.696 138.94 265.006 138.94 263.306C138.94 261.606 139.36 259.916 140.22 258.496L139.66 258.226C138.73 259.726 138.18 261.346 138.18 263.306C138.18 265.276 138.73 266.876 139.66 268.376ZM142.929 266.546C144.309 266.546 145.199 265.276 145.199 262.716C145.199 260.176 144.309 258.946 142.929 258.946C141.529 258.946 140.639 260.176 140.639 262.716C140.639 265.276 141.529 266.546 142.929 266.546ZM142.929 265.806C142.089 265.806 141.519 264.876 141.519 262.716C141.519 260.586 142.089 259.676 142.929 259.676C143.759 259.676 144.319 260.586 144.319 262.716C144.319 264.876 143.759 265.806 142.929 265.806ZM145.566 261.866H150.366V261.186H145.566V261.866ZM145.566 264.256H150.366V263.576H145.566V264.256ZM153.073 261.896V263.266H153.903V261.896H153.073ZM153.463 258.556C152.163 258.556 151.243 259.276 151.243 260.346C151.243 261.416 152.163 262.126 153.463 262.126C154.773 262.126 155.693 261.416 155.693 260.346C155.693 259.276 154.773 258.556 153.463 258.556ZM153.463 259.196C154.323 259.196 154.913 259.666 154.913 260.346C154.913 261.036 154.323 261.496 153.463 261.496C152.613 261.496 152.023 261.036 152.023 260.346C152.023 259.666 152.613 259.196 153.463 259.196ZM156.913 258.156V265.066H157.743V258.156H156.913ZM157.393 261.206V261.896H159.063V261.206H157.393ZM152.023 266.296V266.986H158.063V266.296H152.023ZM152.023 264.476V266.596H152.853V264.476H152.023ZM150.833 263.726C152.383 263.726 154.523 263.706 156.413 263.356L156.353 262.746C154.513 263.026 152.313 263.046 150.723 263.046L150.833 263.726ZM164.232 260.636V261.316H166.512V260.636H164.232ZM166.042 258.156V264.776H166.872V258.156H166.042ZM161.102 266.306V266.986H167.122V266.306H161.102ZM161.102 264.196V266.656H161.932V264.196H161.102ZM161.742 259.276V260.006C161.742 261.286 160.812 262.486 159.462 262.966L159.892 263.626C161.402 263.066 162.422 261.646 162.422 260.006V259.276H161.742ZM161.902 259.276V259.996C161.902 261.526 162.872 262.886 164.342 263.416L164.762 262.766C163.452 262.306 162.572 261.166 162.572 259.996V259.276H161.902ZM159.722 258.886V259.556H164.552V258.886H159.722ZM173.261 259.756V260.436H175.201V259.756H173.261ZM173.261 261.376V262.056H175.201V261.376H173.261ZM168.401 258.826V259.506H173.161V258.826H168.401ZM168.251 263.186C169.721 263.186 171.751 263.166 173.491 262.886L173.441 262.266C171.751 262.466 169.641 262.486 168.161 262.486L168.251 263.186ZM169.301 259.356V262.716H170.101V259.356H169.301ZM171.461 259.356V262.716H172.261V259.356H171.461ZM174.741 258.146V263.726H175.571V258.146H174.741ZM172.601 263.906C170.721 263.906 169.581 264.496 169.581 265.536C169.581 266.576 170.721 267.166 172.601 267.166C174.471 267.166 175.611 266.576 175.611 265.536C175.611 264.496 174.471 263.906 172.601 263.906ZM172.601 264.556C173.971 264.556 174.791 264.916 174.791 265.536C174.791 266.156 173.971 266.526 172.601 266.526C171.231 266.526 170.411 266.156 170.411 265.536C170.411 264.916 171.231 264.556 172.601 264.556ZM176.84 262.446V263.136H185.01V262.446H176.84ZM177.87 260.916V261.586H184.06V260.916H177.87ZM177.87 258.506V261.236H178.69V259.186H183.99V258.506H177.87ZM180.91 263.916C178.98 263.916 177.81 264.506 177.81 265.546C177.81 266.586 178.98 267.166 180.91 267.166C182.84 267.166 184.01 266.586 184.01 265.546C184.01 264.506 182.84 263.916 180.91 263.916ZM180.91 264.556C182.33 264.556 183.17 264.916 183.17 265.546C183.17 266.166 182.33 266.516 180.91 266.516C179.5 266.516 178.65 266.166 178.65 265.546C178.65 264.916 179.5 264.556 180.91 264.556ZM186.03 268.376C186.95 266.876 187.5 265.276 187.5 263.306C187.5 261.346 186.95 259.726 186.03 258.226L185.46 258.496C186.32 259.916 186.74 261.606 186.74 263.306C186.74 265.006 186.32 266.696 185.46 268.116L186.03 268.376Z" fill="#7C7B75"/>
<path d="M250.77 246.446V247.126H253.53V246.446H250.77ZM250.77 248.526V249.216H253.53V248.526H250.77ZM249.12 245.676C247.78 245.676 246.79 246.576 246.79 247.826C246.79 249.086 247.78 249.976 249.12 249.976C250.45 249.976 251.45 249.086 251.45 247.826C251.45 246.576 250.45 245.676 249.12 245.676ZM249.12 246.386C250 246.386 250.66 246.976 250.66 247.826C250.66 248.676 250 249.266 249.12 249.266C248.24 249.266 247.59 248.676 247.59 247.826C247.59 246.976 248.24 246.386 249.12 246.386ZM253.26 245.146V250.496H254.09V245.146H253.26ZM251.12 250.706C249.25 250.706 248.1 251.346 248.1 252.436C248.1 253.536 249.25 254.166 251.12 254.166C252.98 254.166 254.13 253.536 254.13 252.436C254.13 251.346 252.98 250.706 251.12 250.706ZM251.12 251.366C252.48 251.366 253.31 251.766 253.31 252.436C253.31 253.116 252.48 253.516 251.12 253.516C249.75 253.516 248.92 253.116 248.92 252.436C248.92 251.766 249.75 251.366 251.12 251.366ZM257.449 250.736V254.186H258.299V250.736H257.449ZM260.559 250.736V254.186H261.409V250.736H260.559ZM255.349 250.286V250.976H263.549V250.286H255.349ZM259.429 245.506C257.549 245.506 256.269 246.266 256.269 247.476C256.269 248.676 257.549 249.446 259.429 249.446C261.319 249.446 262.589 248.676 262.589 247.476C262.589 246.266 261.319 245.506 259.429 245.506ZM259.429 246.176C260.809 246.176 261.739 246.686 261.739 247.476C261.739 248.266 260.809 248.776 259.429 248.776C258.049 248.776 257.109 248.266 257.109 247.476C257.109 246.686 258.049 246.176 259.429 246.176ZM266.458 245.836C265.128 245.836 264.188 247.066 264.188 248.986C264.188 250.916 265.128 252.146 266.458 252.146C267.788 252.146 268.728 250.916 268.728 248.986C268.728 247.066 267.788 245.836 266.458 245.836ZM266.458 246.586C267.328 246.586 267.938 247.526 267.938 248.986C267.938 250.456 267.328 251.416 266.458 251.416C265.578 251.416 264.978 250.456 264.978 248.986C264.978 247.526 265.578 246.586 266.458 246.586ZM270.168 245.146V254.186H271.008V245.146H270.168ZM270.808 248.756V249.456H272.488V248.756H270.808ZM276.704 245.926V247.546C276.704 249.196 275.674 250.936 274.364 251.596L274.874 252.256C276.304 251.496 277.384 249.546 277.384 247.546V245.926H276.704ZM276.854 245.926V247.546C276.854 249.486 277.904 251.336 279.304 252.086L279.814 251.426C278.534 250.786 277.524 249.136 277.524 247.546V245.926H276.854ZM280.604 245.146V254.186H281.444V245.146H280.604ZM281.244 248.806V249.506H282.924V248.806H281.244ZM283.563 245.826V249.716H287.713V245.826H283.563ZM286.903 246.496V249.056H284.373V246.496H286.903ZM289.373 245.146V250.486H290.203V245.146H289.373ZM289.973 247.386V248.086H291.543V247.386H289.973ZM287.323 250.796C285.483 250.796 284.353 251.426 284.353 252.486C284.353 253.556 285.483 254.176 287.323 254.176C289.163 254.176 290.293 253.556 290.293 252.486C290.293 251.426 289.163 250.796 287.323 250.796ZM287.323 251.466C288.663 251.466 289.483 251.836 289.483 252.486C289.483 253.136 288.663 253.516 287.323 253.516C285.983 253.516 285.163 253.136 285.163 252.486C285.163 251.836 285.983 251.466 287.323 251.466ZM291.882 249.266V249.906H300.082V249.266H291.882ZM292.852 250.716V251.306H298.242V252.076H292.882V253.706H293.702V252.646H299.052V250.716H292.852ZM292.882 253.486V254.086H299.342V253.486H292.882ZM292.922 245.396V245.986H298.212V246.716H292.942V248.256H293.762V247.276H299.022V245.396H292.922ZM292.942 248.046V248.646H299.192V248.046H292.942ZM294.092 249.516V251.086H294.912V249.516H294.092ZM297.052 249.516V251.086H297.872V249.516H297.052ZM239.756 268.376L240.316 268.116C239.456 266.696 239.036 265.006 239.036 263.306C239.036 261.606 239.456 259.916 240.316 258.496L239.756 258.226C238.826 259.726 238.276 261.346 238.276 263.306C238.276 265.276 238.826 266.876 239.756 268.376ZM242.855 266.546C244.085 266.546 245.255 265.626 245.255 264.026C245.255 262.406 244.265 261.686 243.045 261.686C242.605 261.686 242.275 261.796 241.945 261.976L242.135 259.856H244.905V259.076H241.335L241.105 262.506L241.595 262.816C242.015 262.536 242.325 262.376 242.815 262.376C243.725 262.376 244.325 263.006 244.325 264.056C244.325 265.116 243.635 265.786 242.765 265.786C241.925 265.786 241.385 265.396 240.975 264.966L240.515 265.566C241.015 266.066 241.715 266.546 242.855 266.546ZM249.352 261.376V262.066H251.082V261.376H249.352ZM247.662 258.996V260.716C247.662 262.266 246.922 263.886 245.682 264.616L246.202 265.246C247.522 264.436 248.312 262.606 248.312 260.716V258.996H247.662ZM247.822 258.996V260.686C247.822 262.446 248.552 264.246 249.852 265.046L250.332 264.396C249.142 263.676 248.462 262.136 248.462 260.686V258.996H247.822ZM252.672 258.146V267.186H253.472V258.146H252.672ZM250.842 258.336V266.736H251.622V258.336H250.842ZM255.001 259.026V264.916H259.161V259.026H255.001ZM258.351 259.696V264.246H255.811V259.696H258.351ZM261.051 258.136V267.196H261.881V258.136H261.051ZM263.56 258.956V263.146H267.71V258.956H263.56ZM266.9 259.626V262.476H264.37V259.626H266.9ZM269.37 258.136V264.766H270.2V258.136H269.37ZM269.94 260.896V261.586H271.54V260.896H269.94ZM264.57 266.306V266.986H270.61V266.306H264.57ZM264.57 264.136V266.596H265.4V264.136H264.57ZM274.005 266.406H278.025V265.646H276.545V259.076H275.845C275.455 259.316 274.985 259.486 274.325 259.596V260.186H275.635V265.646H274.005V266.406ZM280.922 259.846V260.296C280.922 261.566 280.032 262.686 278.692 263.146L279.102 263.796C280.612 263.266 281.602 261.926 281.602 260.296V259.846H280.922ZM281.062 259.846V260.296C281.062 261.856 282.092 263.136 283.602 263.636L284.012 262.976C282.672 262.556 281.752 261.496 281.752 260.296V259.846H281.062ZM278.922 259.356V260.026H283.742V259.356H278.922ZM280.922 258.206V259.606H281.752V258.206H280.922ZM283.442 260.926V261.616H285.722V260.926H283.442ZM285.272 258.156V264.896H286.102V258.156H285.272ZM280.332 266.306V266.986H286.352V266.306H280.332ZM280.332 264.296V266.676H281.162V264.296H280.332ZM291.682 259.606V260.286H294.292V259.606H291.682ZM291.682 261.406V262.076H294.312V261.406H291.682ZM293.972 258.146V263.496H294.802V258.146H293.972ZM287.782 258.826V262.846H291.912V258.826H287.782ZM291.092 259.496V262.186H288.592V259.496H291.092ZM291.832 263.756C289.962 263.756 288.812 264.386 288.812 265.466C288.812 266.546 289.962 267.166 291.832 267.166C293.692 267.166 294.842 266.546 294.842 265.466C294.842 264.386 293.692 263.756 291.832 263.756ZM291.832 264.416C293.192 264.416 294.022 264.806 294.022 265.466C294.022 266.126 293.192 266.516 291.832 266.516C290.472 266.516 289.642 266.126 289.642 265.466C289.642 264.806 290.472 264.416 291.832 264.416ZM303.997 258.146V263.516H304.827V258.146H303.997ZM304.587 260.496V261.186H306.157V260.496H304.587ZM301.937 263.706C300.107 263.706 298.967 264.356 298.967 265.446C298.967 266.536 300.107 267.176 301.937 267.176C303.767 267.176 304.907 266.536 304.907 265.446C304.907 264.356 303.767 263.706 301.937 263.706ZM301.937 264.386C303.277 264.386 304.097 264.766 304.097 265.446C304.097 266.106 303.277 266.496 301.937 266.496C300.597 266.496 299.777 266.106 299.777 265.446C299.777 264.766 300.597 264.386 301.937 264.386ZM298.207 262.126V262.806H298.907C300.817 262.806 301.887 262.746 303.137 262.496L303.037 261.816C301.827 262.066 300.777 262.126 298.907 262.126H298.207ZM298.207 258.836V262.566H299.027V259.516H302.197V258.836H298.207ZM306.996 268.376C307.916 266.876 308.466 265.276 308.466 263.306C308.466 261.346 307.916 259.726 306.996 258.226L306.426 258.496C307.286 259.916 307.706 261.606 307.706 263.306C307.706 265.006 307.286 266.696 306.426 268.116L306.996 268.376Z" fill="#7C7B75"/>
<path d="M368.246 253.546C369.236 253.546 370.036 253.186 370.516 252.696V249.616H368.106V250.386H369.656V252.306C369.376 252.566 368.866 252.726 368.336 252.726C366.766 252.726 365.896 251.576 365.896 249.726C365.896 247.896 366.846 246.756 368.326 246.756C369.066 246.756 369.536 247.066 369.906 247.446L370.416 246.846C369.986 246.406 369.316 245.946 368.306 245.946C366.366 245.946 364.946 247.386 364.946 249.746C364.946 252.126 366.326 253.546 368.246 253.546ZM371.76 253.406H373.64C375.85 253.406 377.05 252.046 377.05 249.716C377.05 247.386 375.85 246.076 373.59 246.076H371.76V253.406ZM372.69 252.646V246.836H373.52C375.24 246.836 376.1 247.856 376.1 249.716C376.1 251.576 375.24 252.646 373.52 252.646H372.69ZM378.145 253.406H379.075V250.496H380.275C381.885 250.496 382.985 249.776 382.985 248.236C382.985 246.626 381.875 246.076 380.235 246.076H378.145V253.406ZM379.075 249.746V246.836H380.115C381.415 246.836 382.065 247.166 382.065 248.236C382.065 249.276 381.445 249.746 380.165 249.746H379.075ZM392.08 245.146V254.186H392.88V245.146H392.08ZM390.55 248.766V249.456H392.29V248.766H390.55ZM390.03 245.346V253.726H390.81V245.346H390.03ZM385.53 251.266V251.956H386.12C387.48 251.956 388.39 251.916 389.47 251.686L389.39 250.996C388.34 251.216 387.44 251.266 386.12 251.266H385.53ZM385.53 246.246V251.576H386.35V246.926H388.89V246.246H385.53ZM400.469 245.136V254.196H401.299V245.136H400.469ZM394.419 245.906V252.016H398.679V245.906H397.849V248.296H395.239V245.906H394.419ZM395.239 248.956H397.849V251.336H395.239V248.956ZM361.989 265.346V266.036H370.179V265.346H361.989ZM365.649 263.186V265.546H366.479V263.186H365.649ZM362.949 258.786V263.406H369.199V258.786H368.379V260.396H363.769V258.786H362.949ZM363.769 261.066H368.379V262.726H363.769V261.066ZM377.288 258.146V264.826H378.118V258.146H377.288ZM375.338 260.936V261.626H377.448V260.936H375.338ZM374.498 258.846V259.176C374.498 260.966 373.028 262.386 370.818 263.126L371.178 263.796C373.728 262.946 375.368 261.176 375.368 258.846H374.498ZM371.268 258.846V259.526H375.038V258.846H371.268ZM372.408 266.306V266.986H378.348V266.306H372.408ZM372.408 264.156V266.646H373.238V264.156H372.408ZM385.947 258.136V267.196H386.777V258.136H385.947ZM379.897 258.906V265.016H384.157V258.906H383.327V261.296H380.717V258.906H379.897ZM380.717 261.956H383.327V264.336H380.717V261.956ZM390.477 259.436V260.906C390.477 262.466 389.387 264.166 388.077 264.786L388.557 265.446C389.997 264.736 391.147 262.816 391.147 260.906V259.436H390.477ZM390.637 259.436V260.906C390.637 262.786 391.797 264.546 393.257 265.226L393.727 264.566C392.397 263.996 391.307 262.436 391.307 260.906V259.436H390.637ZM388.377 259.066V259.766H393.427V259.066H388.377ZM394.647 258.146V267.186H395.477V258.146H394.647ZM400.446 262.646V264.016H401.276V262.646H400.446ZM396.786 262.156V262.796H404.946V262.156H396.786ZM400.456 258.086V259.186H401.276V258.086H400.456ZM400.416 259.266V259.406C400.416 260.376 398.996 261.006 397.216 261.116L397.456 261.756C399.456 261.586 401.146 260.826 401.146 259.406V259.266H400.416ZM400.586 259.266V259.406C400.586 260.826 402.266 261.586 404.266 261.756L404.506 261.116C402.736 261.006 401.316 260.376 401.316 259.406V259.266H400.586ZM397.616 258.936V259.566H404.116V258.936H397.616ZM397.766 263.616V264.246H403.086V265.016H397.786V266.696H398.606V265.606H403.906V263.616H397.766ZM397.786 266.456V267.086H404.176V266.456H397.786Z" fill="#7C7B75"/>
<path d="M27 26.0002H403" stroke="#DADADA" stroke-width="0.593413" stroke-dasharray="1 1"/>
<path d="M27 47.0002H403" stroke="#DADADA" stroke-width="0.593413" stroke-dasharray="1 1"/>
<path d="M27 68.0002H403" stroke="#DADADA" stroke-width="0.593413" stroke-dasharray="1 1"/>
<path d="M27 89.0002H403" stroke="#DADADA" stroke-width="0.593413" stroke-dasharray="1 1"/>
<path d="M27 111H403" stroke="#DADADA" stroke-width="0.593413" stroke-dasharray="1 1"/>
<path d="M27 132H403" stroke="#DADADA" stroke-width="0.593413" stroke-dasharray="1 1"/>
<path d="M27 153H403" stroke="#DADADA" stroke-width="0.593413" stroke-dasharray="1 1"/>
<path d="M27 175H403" stroke="#DADADA" stroke-width="0.593413" stroke-dasharray="1 1"/>
<path d="M27 196H403" stroke="#DADADA" stroke-width="0.593413" stroke-dasharray="1 1"/>
<path d="M27 217H403" stroke="#DADADA" stroke-width="0.593413" stroke-dasharray="1 1"/>
<rect x="36.6383" y="72.4868" width="20.6365" height="165.43" fill="url(#paint0_linear_19_9975)"/>
<rect x="91.9442" y="145.642" width="20.6365" height="92.275" fill="url(#paint1_linear_19_9975)"/>
<rect x="205.032" y="167.256" width="20.6365" height="70.661" fill="url(#paint2_linear_19_9975)"/>
<rect x="317.295" y="219.628" width="20.6365" height="18.2887" fill="url(#paint3_linear_19_9975)"/>
<rect x="152.203" y="75.8123" width="20.6365" height="162.105" fill="url(#paint4_linear_19_9975)"/>
<rect x="262.814" y="85.7878" width="20.6365" height="152.129" fill="url(#paint5_linear_19_9975)"/>
<rect x="373.425" y="209.652" width="20.6365" height="28.2644" fill="url(#paint6_linear_19_9975)"/>
<path d="M27 238H403" stroke="#DADADA"/>
<path d="M34.4738 69.3545H39.0738V68.5745H37.0438C36.6738 68.5745 36.2338 68.6045 35.8438 68.6445C37.5738 67.0145 38.7238 65.5245 38.7238 64.0545C38.7238 62.7445 37.9038 61.8945 36.5938 61.8945C35.6638 61.8945 35.0238 62.3245 34.4238 62.9745L34.9538 63.4845C35.3638 63.0045 35.8838 62.6345 36.4838 62.6345C37.3938 62.6345 37.8238 63.2545 37.8238 64.0945C37.8238 65.3445 36.7738 66.8145 34.4738 68.8245V69.3545ZM39.5207 69.3545H44.1207V68.5745H42.0907C41.7207 68.5745 41.2807 68.6045 40.8907 68.6445C42.6207 67.0145 43.7707 65.5245 43.7707 64.0545C43.7707 62.7445 42.9507 61.8945 41.6407 61.8945C40.7107 61.8945 40.0707 62.3245 39.4707 62.9745L40.0007 63.4845C40.4107 63.0045 40.9307 62.6345 41.5307 62.6345C42.4407 62.6345 42.8707 63.2545 42.8707 64.0945C42.8707 65.3445 41.8207 66.8145 39.5207 68.8245V69.3545ZM45.5076 69.4945C45.8776 69.4945 46.1776 69.2045 46.1776 68.7945C46.1776 68.3745 45.8776 68.0945 45.5076 68.0945C45.1476 68.0945 44.8576 68.3745 44.8576 68.7945C44.8576 69.2045 45.1476 69.4945 45.5076 69.4945ZM49.0208 69.4945C50.2508 69.4945 51.4208 68.5745 51.4208 66.9745C51.4208 65.3545 50.4308 64.6345 49.2108 64.6345C48.7708 64.6345 48.4408 64.7445 48.1108 64.9245L48.3008 62.8045H51.0708V62.0245H47.5008L47.2708 65.4545L47.7608 65.7645C48.1808 65.4845 48.4908 65.3245 48.9808 65.3245C49.8908 65.3245 50.4908 65.9545 50.4908 67.0045C50.4908 68.0645 49.8008 68.7345 48.9308 68.7345C48.0908 68.7345 47.5508 68.3445 47.1408 67.9145L46.6808 68.5145C47.1808 69.0145 47.8808 69.4945 49.0208 69.4945ZM53.5076 66.5145C54.5176 66.5145 55.1776 65.6745 55.1776 64.1945C55.1776 62.7245 54.5176 61.8945 53.5076 61.8945C52.4976 61.8945 51.8376 62.7245 51.8376 64.1945C51.8376 65.6745 52.4976 66.5145 53.5076 66.5145ZM53.5076 65.9545C52.9276 65.9545 52.5276 65.3545 52.5276 64.1945C52.5276 63.0245 52.9276 62.4545 53.5076 62.4545C54.0876 62.4545 54.4776 63.0245 54.4776 64.1945C54.4776 65.3545 54.0876 65.9545 53.5076 65.9545ZM53.7176 69.4945H54.3376L58.3776 61.8945H57.7576L53.7176 69.4945ZM58.6176 69.4945C59.6076 69.4945 60.2776 68.6545 60.2776 67.1645C60.2776 65.7045 59.6076 64.8645 58.6176 64.8645C57.6076 64.8645 56.9476 65.7045 56.9476 67.1645C56.9476 68.6545 57.6076 69.4945 58.6176 69.4945ZM58.6176 68.9345C58.0376 68.9345 57.6376 68.3345 57.6376 67.1645C57.6376 65.9945 58.0376 65.4345 58.6176 65.4345C59.1876 65.4345 59.5876 65.9945 59.5876 67.1645C59.5876 68.3345 59.1876 68.9345 58.6176 68.9345Z" fill="#7C7B75"/>
<path d="M92.2262 142.65C93.5362 142.65 94.5862 141.86 94.5862 140.56C94.5862 139.55 93.8862 138.9 93.0262 138.69V138.65C93.8062 138.37 94.3262 137.78 94.3262 136.89C94.3262 135.72 93.4262 135.05 92.1962 135.05C91.3562 135.05 90.7062 135.42 90.1562 135.92L90.6462 136.51C91.0562 136.09 91.5762 135.79 92.1662 135.79C92.9262 135.79 93.3962 136.25 93.3962 136.95C93.3962 137.75 92.8862 138.35 91.3762 138.35V139.06C93.0662 139.06 93.6562 139.64 93.6562 140.52C93.6562 141.36 93.0362 141.89 92.1662 141.89C91.3262 141.89 90.7762 141.49 90.3462 141.04L89.8862 141.64C90.3662 142.17 91.0762 142.65 92.2262 142.65ZM97.2531 142.65C98.4831 142.65 99.6531 141.73 99.6531 140.13C99.6531 138.51 98.6631 137.79 97.4431 137.79C97.0031 137.79 96.6731 137.9 96.3431 138.08L96.5331 135.96H99.3031V135.18H95.7331L95.5031 138.61L95.9931 138.92C96.4131 138.64 96.7231 138.48 97.2131 138.48C98.1231 138.48 98.7231 139.11 98.7231 140.16C98.7231 141.22 98.0331 141.89 97.1631 141.89C96.3231 141.89 95.7831 141.5 95.3731 141.07L94.9131 141.67C95.4131 142.17 96.1131 142.65 97.2531 142.65ZM101.07 142.65C101.44 142.65 101.74 142.36 101.74 141.95C101.74 141.53 101.44 141.25 101.07 141.25C100.71 141.25 100.42 141.53 100.42 141.95C100.42 142.36 100.71 142.65 101.07 142.65ZM103.943 142.51H104.893C105.013 139.65 105.323 137.94 107.043 135.73V135.18H102.463V135.96H106.013C104.573 137.96 104.073 139.74 103.943 142.51ZM112.34 136.51V137.2H114.35V136.51H112.34ZM114.12 134.25V139.54H114.95V134.25H114.12ZM109.09 139.98V143.17H114.95V139.98H109.09ZM114.14 140.64V142.5H109.9V140.64H114.14ZM109.82 135.11V135.84C109.82 137.12 108.89 138.32 107.54 138.8L107.97 139.46C109.48 138.9 110.5 137.49 110.5 135.84V135.11H109.82ZM109.98 135.11V135.83C109.98 137.35 110.95 138.72 112.42 139.25L112.84 138.59C111.53 138.13 110.65 137 110.65 135.83V135.11H109.98ZM107.8 134.83V135.5H112.63V134.83H107.8Z" fill="#7C7B75"/>
<path d="M204.624 176.733C205.754 176.733 206.724 175.773 206.724 174.353C206.724 172.813 205.924 172.053 204.684 172.053C204.094 172.053 203.414 172.413 202.964 173.003L202.994 173.733C203.484 173.003 204.074 172.723 204.544 172.723C205.424 172.723 205.864 173.353 205.864 174.353C205.864 175.343 205.324 176.013 204.624 176.013C203.594 176.013 203.024 174.983 203.024 173.103C203.024 170.703 203.884 169.893 204.914 169.893C205.354 169.893 205.804 170.103 206.084 170.443L206.594 169.883C206.194 169.453 205.634 169.133 204.874 169.133C203.454 169.133 202.164 170.233 202.164 173.103C202.164 175.523 203.214 176.733 204.624 176.733ZM209.001 176.733C210.381 176.733 211.661 175.593 211.661 172.613C211.661 170.283 210.611 169.133 209.201 169.133C208.061 169.133 207.101 170.093 207.101 171.513C207.101 173.033 207.891 173.813 209.121 173.813C209.751 173.813 210.401 173.433 210.861 172.853L210.811 172.123C210.331 172.853 209.761 173.143 209.271 173.143C208.401 173.143 207.961 172.493 207.961 171.513C207.961 170.503 208.501 169.843 209.201 169.843C210.231 169.843 210.801 170.813 210.801 172.613C210.801 175.123 209.951 175.973 208.971 175.973C208.501 175.973 208.051 175.763 207.741 175.403L207.231 175.983C207.641 176.413 208.201 176.733 209.001 176.733ZM213.088 176.733C213.458 176.733 213.758 176.443 213.758 176.033C213.758 175.613 213.458 175.333 213.088 175.333C212.728 175.333 212.438 175.613 212.438 176.033C212.438 176.443 212.728 176.733 213.088 176.733ZM217.381 176.593H218.241V169.263H217.231L214.181 173.973V174.573H219.221V173.853H215.141L216.811 171.353C217.011 170.993 217.211 170.623 217.391 170.263H217.441C217.411 170.643 217.381 171.233 217.381 171.603V176.593ZM223.098 171.563V172.253H224.828V171.563H223.098ZM221.408 169.183V170.903C221.408 172.453 220.668 174.073 219.428 174.803L219.948 175.433C221.268 174.623 222.058 172.793 222.058 170.903V169.183H221.408ZM221.568 169.183V170.873C221.568 172.633 222.298 174.433 223.598 175.233L224.078 174.583C222.888 173.863 222.208 172.323 222.208 170.873V169.183H221.568ZM226.418 168.333V177.373H227.218V168.333H226.418ZM224.588 168.523V176.923H225.368V168.523H224.588Z" fill="#7C7B75"/>
<path d="M320.846 216.636C322.226 216.636 323.116 215.366 323.116 212.806C323.116 210.266 322.226 209.036 320.846 209.036C319.446 209.036 318.556 210.266 318.556 212.806C318.556 215.366 319.446 216.636 320.846 216.636ZM320.846 215.896C320.006 215.896 319.436 214.966 319.436 212.806C319.436 210.676 320.006 209.766 320.846 209.766C321.676 209.766 322.236 210.676 322.236 212.806C322.236 214.966 321.676 215.896 320.846 215.896ZM324.493 216.636C324.863 216.636 325.163 216.346 325.163 215.936C325.163 215.516 324.863 215.236 324.493 215.236C324.133 215.236 323.843 215.516 323.843 215.936C323.843 216.346 324.133 216.636 324.493 216.636ZM328.006 216.636C329.236 216.636 330.406 215.716 330.406 214.116C330.406 212.496 329.416 211.776 328.196 211.776C327.756 211.776 327.426 211.886 327.096 212.066L327.286 209.946H330.056V209.166H326.486L326.256 212.596L326.746 212.906C327.166 212.626 327.476 212.466 327.966 212.466C328.876 212.466 329.476 213.096 329.476 214.146C329.476 215.206 328.786 215.876 327.916 215.876C327.076 215.876 326.536 215.486 326.126 215.056L325.666 215.656C326.166 216.156 326.866 216.636 328.006 216.636ZM337.803 208.236V217.276H338.603V208.236H337.803ZM336.343 211.866V212.546H338.073V211.866H336.343ZM334.003 209.396V209.556C334.003 211.646 333.203 213.476 330.933 214.746L331.423 215.336C334.003 213.886 334.803 211.726 334.803 209.396H334.003ZM331.283 209.396V210.086H334.283V209.396H331.283ZM335.793 208.476V216.836H336.583V208.476H335.793Z" fill="#7C7B75"/>
<path d="M154.773 72.8199C156.153 72.8199 157.043 71.5499 157.043 68.9899C157.043 66.4499 156.153 65.2199 154.773 65.2199C153.373 65.2199 152.483 66.4499 152.483 68.9899C152.483 71.5499 153.373 72.8199 154.773 72.8199ZM154.773 72.0799C153.933 72.0799 153.363 71.1499 153.363 68.9899C153.363 66.8599 153.933 65.9499 154.773 65.9499C155.603 65.9499 156.163 66.8599 156.163 68.9899C156.163 71.1499 155.603 72.0799 154.773 72.0799ZM158.42 72.8199C158.79 72.8199 159.09 72.5299 159.09 72.1199C159.09 71.6999 158.79 71.4199 158.42 71.4199C158.06 71.4199 157.77 71.6999 157.77 72.1199C157.77 72.5299 158.06 72.8199 158.42 72.8199ZM161.933 72.8199C163.163 72.8199 164.333 71.8999 164.333 70.2999C164.333 68.6799 163.343 67.9599 162.123 67.9599C161.683 67.9599 161.353 68.0699 161.023 68.2499L161.213 66.1299H163.983V65.3499H160.413L160.183 68.7799L160.673 69.0899C161.093 68.8099 161.403 68.6499 161.893 68.6499C162.803 68.6499 163.403 69.2799 163.403 70.3299C163.403 71.3899 162.713 72.0599 161.843 72.0599C161.003 72.0599 160.463 71.6699 160.053 71.2399L159.593 71.8399C160.093 72.3399 160.793 72.8199 161.933 72.8199ZM169.69 66.6799V67.3699H171.7V66.6799H169.69ZM171.47 64.4199V69.7099H172.3V64.4199H171.47ZM166.44 70.1499V73.3399H172.3V70.1499H166.44ZM171.49 70.8099V72.6699H167.25V70.8099H171.49ZM167.17 65.2799V66.0099C167.17 67.2899 166.24 68.4899 164.89 68.9699L165.32 69.6299C166.83 69.0699 167.85 67.6599 167.85 66.0099V65.2799H167.17ZM167.33 65.2799V65.9999C167.33 67.5199 168.3 68.8899 169.77 69.4199L170.19 68.7599C168.88 68.2999 168 67.1699 168 65.9999V65.2799H167.33ZM165.15 64.9999V65.6699H169.98V64.9999H165.15Z" fill="#7C7B75"/>
<path d="M262.382 82.7955C263.692 82.7955 264.742 82.0055 264.742 80.7055C264.742 79.6955 264.042 79.0455 263.182 78.8355V78.7955C263.962 78.5155 264.482 77.9255 264.482 77.0355C264.482 75.8655 263.582 75.1955 262.352 75.1955C261.512 75.1955 260.862 75.5655 260.312 76.0655L260.802 76.6555C261.212 76.2355 261.732 75.9355 262.322 75.9355C263.082 75.9355 263.552 76.3955 263.552 77.0955C263.552 77.8955 263.042 78.4955 261.532 78.4955V79.2055C263.222 79.2055 263.812 79.7855 263.812 80.6655C263.812 81.5055 263.192 82.0355 262.322 82.0355C261.482 82.0355 260.932 81.6355 260.502 81.1855L260.042 81.7855C260.522 82.3155 261.232 82.7955 262.382 82.7955ZM268.189 82.6555H269.049V75.3255H268.039L264.989 80.0355V80.6355H270.029V79.9155H265.949L267.619 77.4155C267.819 77.0555 268.019 76.6855 268.199 76.3255H268.249C268.219 76.7055 268.189 77.2955 268.189 77.6655V82.6555ZM271.226 82.7955C271.596 82.7955 271.896 82.5055 271.896 82.0955C271.896 81.6755 271.596 81.3955 271.226 81.3955C270.866 81.3955 270.576 81.6755 270.576 82.0955C270.576 82.5055 270.866 82.7955 271.226 82.7955ZM274.759 82.7955C276.069 82.7955 277.119 82.0055 277.119 80.7055C277.119 79.6955 276.419 79.0455 275.559 78.8355V78.7955C276.339 78.5155 276.859 77.9255 276.859 77.0355C276.859 75.8655 275.959 75.1955 274.729 75.1955C273.889 75.1955 273.239 75.5655 272.689 76.0655L273.179 76.6555C273.589 76.2355 274.109 75.9355 274.699 75.9355C275.459 75.9355 275.929 76.3955 275.929 77.0955C275.929 77.8955 275.419 78.4955 273.909 78.4955V79.2055C275.599 79.2055 276.189 79.7855 276.189 80.6655C276.189 81.5055 275.569 82.0355 274.699 82.0355C273.859 82.0355 273.309 81.6355 272.879 81.1855L272.419 81.7855C272.899 82.3155 273.609 82.7955 274.759 82.7955ZM281.986 75.8555V76.5355H284.596V75.8555H281.986ZM281.986 77.6555V78.3255H284.616V77.6555H281.986ZM284.276 74.3955V79.7455H285.106V74.3955H284.276ZM278.086 75.0755V79.0955H282.216V75.0755H278.086ZM281.396 75.7455V78.4355H278.896V75.7455H281.396ZM282.136 80.0055C280.266 80.0055 279.116 80.6355 279.116 81.7155C279.116 82.7955 280.266 83.4155 282.136 83.4155C283.996 83.4155 285.146 82.7955 285.146 81.7155C285.146 80.6355 283.996 80.0055 282.136 80.0055ZM282.136 80.6655C283.496 80.6655 284.326 81.0555 284.326 81.7155C284.326 82.3755 283.496 82.7655 282.136 82.7655C280.776 82.7655 279.946 82.3755 279.946 81.7155C279.946 81.0555 280.776 80.6655 282.136 80.6655Z" fill="#7C7B75"/>
<path d="M375.488 204.997C376.798 204.997 377.848 204.207 377.848 202.907C377.848 201.897 377.148 201.247 376.288 201.037V200.997C377.068 200.717 377.588 200.127 377.588 199.237C377.588 198.067 376.688 197.397 375.458 197.397C374.618 197.397 373.968 197.767 373.418 198.267L373.908 198.857C374.318 198.437 374.838 198.137 375.428 198.137C376.188 198.137 376.658 198.597 376.658 199.297C376.658 200.097 376.148 200.697 374.638 200.697V201.407C376.328 201.407 376.918 201.987 376.918 202.867C376.918 203.707 376.298 204.237 375.428 204.237C374.588 204.237 374.038 203.837 373.608 203.387L373.148 203.987C373.628 204.517 374.338 204.997 375.488 204.997ZM379.285 204.997C379.655 204.997 379.955 204.707 379.955 204.297C379.955 203.877 379.655 203.597 379.285 203.597C378.925 203.597 378.635 203.877 378.635 204.297C378.635 204.707 378.925 204.997 379.285 204.997ZM382.798 204.997C384.028 204.997 385.198 204.077 385.198 202.477C385.198 200.857 384.208 200.137 382.988 200.137C382.548 200.137 382.218 200.247 381.888 200.427L382.078 198.307H384.848V197.527H381.278L381.048 200.957L381.538 201.267C381.958 200.987 382.268 200.827 382.758 200.827C383.668 200.827 384.268 201.457 384.268 202.507C384.268 203.567 383.578 204.237 382.708 204.237C381.868 204.237 381.328 203.847 380.918 203.417L380.458 204.017C380.958 204.517 381.658 204.997 382.798 204.997ZM387.285 202.017C388.295 202.017 388.955 201.177 388.955 199.697C388.955 198.227 388.295 197.397 387.285 197.397C386.275 197.397 385.615 198.227 385.615 199.697C385.615 201.177 386.275 202.017 387.285 202.017ZM387.285 201.457C386.705 201.457 386.305 200.857 386.305 199.697C386.305 198.527 386.705 197.957 387.285 197.957C387.865 197.957 388.255 198.527 388.255 199.697C388.255 200.857 387.865 201.457 387.285 201.457ZM387.495 204.997H388.115L392.155 197.397H391.535L387.495 204.997ZM392.395 204.997C393.385 204.997 394.055 204.157 394.055 202.667C394.055 201.207 393.385 200.367 392.395 200.367C391.385 200.367 390.725 201.207 390.725 202.667C390.725 204.157 391.385 204.997 392.395 204.997ZM392.395 204.437C391.815 204.437 391.415 203.837 391.415 202.667C391.415 201.497 391.815 200.937 392.395 200.937C392.965 200.937 393.365 201.497 393.365 202.667C393.365 203.837 392.965 204.437 392.395 204.437Z" fill="#7C7B75"/>
<path d="M55.8962 208.323C57.2762 208.323 58.1662 207.053 58.1662 204.493C58.1662 201.953 57.2762 200.723 55.8962 200.723C54.4962 200.723 53.6062 201.953 53.6062 204.493C53.6062 207.053 54.4962 208.323 55.8962 208.323ZM55.8962 207.583C55.0562 207.583 54.4862 206.653 54.4862 204.493C54.4862 202.363 55.0562 201.453 55.8962 201.453C56.7262 201.453 57.2862 202.363 57.2862 204.493C57.2862 206.653 56.7262 207.583 55.8962 207.583ZM59.5431 208.323C59.9131 208.323 60.2131 208.033 60.2131 207.623C60.2131 207.203 59.9131 206.923 59.5431 206.923C59.1831 206.923 58.8931 207.203 58.8931 207.623C58.8931 208.033 59.1831 208.323 59.5431 208.323ZM60.8863 208.183H65.4863V207.403H63.4563C63.0863 207.403 62.6463 207.433 62.2563 207.473C63.9863 205.843 65.1363 204.353 65.1363 202.883C65.1363 201.573 64.3163 200.723 63.0063 200.723C62.0763 200.723 61.4363 201.153 60.8363 201.803L61.3663 202.313C61.7763 201.833 62.2963 201.463 62.8963 201.463C63.8063 201.463 64.2363 202.083 64.2363 202.923C64.2363 204.173 63.1863 205.643 60.8863 207.653V208.183ZM67.5432 205.343C68.5532 205.343 69.2132 204.503 69.2132 203.023C69.2132 201.553 68.5532 200.723 67.5432 200.723C66.5332 200.723 65.8732 201.553 65.8732 203.023C65.8732 204.503 66.5332 205.343 67.5432 205.343ZM67.5432 204.783C66.9632 204.783 66.5632 204.183 66.5632 203.023C66.5632 201.853 66.9632 201.283 67.5432 201.283C68.1232 201.283 68.5132 201.853 68.5132 203.023C68.5132 204.183 68.1232 204.783 67.5432 204.783ZM67.7532 208.323H68.3732L72.4132 200.723H71.7932L67.7532 208.323ZM72.6532 208.323C73.6432 208.323 74.3132 207.483 74.3132 205.993C74.3132 204.533 73.6432 203.693 72.6532 203.693C71.6432 203.693 70.9832 204.533 70.9832 205.993C70.9832 207.483 71.6432 208.323 72.6532 208.323ZM72.6532 207.763C72.0732 207.763 71.6732 207.163 71.6732 205.993C71.6732 204.823 72.0732 204.263 72.6532 204.263C73.2232 204.263 73.6232 204.823 73.6232 205.993C73.6232 207.163 73.2232 207.763 72.6532 207.763Z" fill="#7C7B75"/>
<ellipse cx="47.224" cy="204.304" rx="2.35695" ry="2.37365" fill="#221E1F"/>
<path d="M111.067 204.166C112.377 204.166 113.427 203.376 113.427 202.076C113.427 201.066 112.727 200.416 111.867 200.206V200.166C112.647 199.886 113.167 199.296 113.167 198.406C113.167 197.236 112.267 196.566 111.037 196.566C110.197 196.566 109.547 196.936 108.997 197.436L109.487 198.026C109.897 197.606 110.417 197.306 111.007 197.306C111.767 197.306 112.237 197.766 112.237 198.466C112.237 199.266 111.727 199.866 110.217 199.866V200.576C111.907 200.576 112.497 201.156 112.497 202.036C112.497 202.876 111.877 203.406 111.007 203.406C110.167 203.406 109.617 203.006 109.187 202.556L108.727 203.156C109.207 203.686 109.917 204.166 111.067 204.166ZM114.364 204.026H118.384V203.266H116.904V196.696H116.204C115.814 196.936 115.344 197.106 114.684 197.216V197.806H115.994V203.266H114.364V204.026ZM119.911 204.166C120.281 204.166 120.581 203.876 120.581 203.466C120.581 203.046 120.281 202.766 119.911 202.766C119.551 202.766 119.261 203.046 119.261 203.466C119.261 203.876 119.551 204.166 119.911 204.166ZM123.824 204.166C124.954 204.166 125.924 203.206 125.924 201.786C125.924 200.246 125.124 199.486 123.884 199.486C123.294 199.486 122.614 199.846 122.164 200.436L122.194 201.166C122.684 200.436 123.274 200.156 123.744 200.156C124.624 200.156 125.064 200.786 125.064 201.786C125.064 202.776 124.524 203.446 123.824 203.446C122.794 203.446 122.224 202.416 122.224 200.536C122.224 198.136 123.084 197.326 124.114 197.326C124.554 197.326 125.004 197.536 125.284 197.876L125.794 197.316C125.394 196.886 124.834 196.566 124.074 196.566C122.654 196.566 121.364 197.666 121.364 200.536C121.364 202.956 122.414 204.166 123.824 204.166ZM131.181 198.026V198.716H133.191V198.026H131.181ZM132.961 195.766V201.056H133.791V195.766H132.961ZM127.931 201.496V204.686H133.791V201.496H127.931ZM132.981 202.156V204.016H128.741V202.156H132.981ZM128.661 196.626V197.356C128.661 198.636 127.731 199.836 126.381 200.316L126.811 200.976C128.321 200.416 129.341 199.006 129.341 197.356V196.626H128.661ZM128.821 196.626V197.346C128.821 198.866 129.791 200.236 131.261 200.766L131.681 200.106C130.371 199.646 129.491 198.516 129.491 197.346V196.626H128.821ZM126.641 196.346V197.016H131.471V196.346H126.641Z" fill="#7C7B75"/>
<ellipse cx="102.545" cy="200.147" rx="2.35695" ry="2.37365" fill="#221E1F"/>
<path d="M171.471 230.768C172.851 230.768 173.741 229.498 173.741 226.938C173.741 224.398 172.851 223.168 171.471 223.168C170.071 223.168 169.181 224.398 169.181 226.938C169.181 229.498 170.071 230.768 171.471 230.768ZM171.471 230.028C170.631 230.028 170.061 229.098 170.061 226.938C170.061 224.808 170.631 223.898 171.471 223.898C172.301 223.898 172.861 224.808 172.861 226.938C172.861 229.098 172.301 230.028 171.471 230.028ZM175.117 230.768C175.487 230.768 175.787 230.478 175.787 230.068C175.787 229.648 175.487 229.368 175.117 229.368C174.757 229.368 174.467 229.648 174.467 230.068C174.467 230.478 174.757 230.768 175.117 230.768ZM176.901 230.628H180.921V229.868H179.441V223.298H178.741C178.351 223.538 177.881 223.708 177.221 223.818V224.408H178.531V229.868H176.901V230.628ZM186.388 224.628V225.318H188.398V224.628H186.388ZM188.168 222.368V227.658H188.998V222.368H188.168ZM183.138 228.098V231.288H188.998V228.098H183.138ZM188.188 228.758V230.618H183.948V228.758H188.188ZM183.868 223.228V223.958C183.868 225.238 182.938 226.438 181.588 226.918L182.018 227.578C183.528 227.018 184.548 225.608 184.548 223.958V223.228H183.868ZM184.028 223.228V223.948C184.028 225.468 184.998 226.838 186.468 227.368L186.888 226.708C185.578 226.248 184.698 225.118 184.698 223.948V223.228H184.028ZM181.848 222.948V223.618H186.678V222.948H181.848Z" fill="#7C7B75"/>
<ellipse cx="162.798" cy="226.749" rx="2.35695" ry="2.37365" fill="#221E1F"/>
<path d="M223.601 45.3868C224.971 45.3868 225.901 44.5568 225.901 43.4868C225.901 42.4868 225.301 41.9268 224.661 41.5568V41.5068C225.101 41.1668 225.641 40.5168 225.641 39.7368C225.641 38.6168 224.881 37.8168 223.631 37.8168C222.481 37.8168 221.611 38.5568 221.611 39.6668C221.611 40.4368 222.071 40.9968 222.611 41.3668V41.4068C221.941 41.7668 221.261 42.4468 221.261 43.4368C221.261 44.5668 222.251 45.3868 223.601 45.3868ZM224.101 41.2768C223.241 40.9368 222.451 40.5468 222.451 39.6668C222.451 38.9668 222.941 38.4868 223.611 38.4868C224.401 38.4868 224.861 39.0668 224.861 39.7868C224.861 40.3368 224.601 40.8368 224.101 41.2768ZM223.621 44.6968C222.741 44.6968 222.081 44.1268 222.081 43.3468C222.081 42.6468 222.491 42.0668 223.091 41.6868C224.121 42.1068 225.021 42.4768 225.021 43.4568C225.021 44.1868 224.461 44.6968 223.621 44.6968ZM226.298 45.2468H230.898V44.4668H228.868C228.498 44.4668 228.058 44.4968 227.668 44.5368C229.398 42.9068 230.548 41.4168 230.548 39.9468C230.548 38.6368 229.728 37.7868 228.418 37.7868C227.488 37.7868 226.848 38.2168 226.248 38.8668L226.778 39.3768C227.188 38.8968 227.708 38.5268 228.308 38.5268C229.218 38.5268 229.648 39.1468 229.648 39.9868C229.648 41.2368 228.598 42.7068 226.298 44.7168V45.2468ZM232.285 45.3868C232.655 45.3868 232.955 45.0968 232.955 44.6868C232.955 44.2668 232.655 43.9868 232.285 43.9868C231.925 43.9868 231.635 44.2668 231.635 44.6868C231.635 45.0968 231.925 45.3868 232.285 45.3868ZM236.198 45.3868C237.328 45.3868 238.298 44.4268 238.298 43.0068C238.298 41.4668 237.498 40.7068 236.258 40.7068C235.668 40.7068 234.988 41.0668 234.538 41.6568L234.568 42.3868C235.058 41.6568 235.648 41.3768 236.118 41.3768C236.998 41.3768 237.438 42.0068 237.438 43.0068C237.438 43.9968 236.898 44.6668 236.198 44.6668C235.168 44.6668 234.598 43.6368 234.598 41.7568C234.598 39.3568 235.458 38.5468 236.488 38.5468C236.928 38.5468 237.378 38.7568 237.658 39.0968L238.168 38.5368C237.768 38.1068 237.208 37.7868 236.448 37.7868C235.028 37.7868 233.738 38.8868 233.738 41.7568C233.738 44.1768 234.788 45.3868 236.198 45.3868ZM242.295 40.2168V40.9068H244.025V40.2168H242.295ZM240.605 37.8368V39.5568C240.605 41.1068 239.865 42.7268 238.625 43.4568L239.145 44.0868C240.465 43.2768 241.255 41.4468 241.255 39.5568V37.8368H240.605ZM240.765 37.8368V39.5268C240.765 41.2868 241.495 43.0868 242.795 43.8868L243.275 43.2368C242.085 42.5168 241.405 40.9768 241.405 39.5268V37.8368H240.765ZM245.615 36.9868V46.0268H246.415V36.9868H245.615ZM243.785 37.1768V45.5768H244.565V37.1768H243.785Z" fill="#7C7B75"/>
<path d="M216.979 41.3678C216.979 42.5168 216.055 43.4447 214.919 43.4447C213.783 43.4447 212.859 42.5168 212.859 41.3678C212.859 40.2187 213.783 39.2908 214.919 39.2908C216.055 39.2908 216.979 40.2187 216.979 41.3678Z" fill="#221E1F" stroke="white" stroke-width="0.593413"/>
<path d="M281.948 225.78C283.258 225.78 284.308 224.99 284.308 223.69C284.308 222.68 283.608 222.03 282.748 221.82V221.78C283.528 221.5 284.048 220.91 284.048 220.02C284.048 218.85 283.148 218.18 281.918 218.18C281.078 218.18 280.428 218.55 279.878 219.05L280.368 219.64C280.778 219.22 281.298 218.92 281.888 218.92C282.648 218.92 283.118 219.38 283.118 220.08C283.118 220.88 282.608 221.48 281.098 221.48V222.19C282.788 222.19 283.378 222.77 283.378 223.65C283.378 224.49 282.758 225.02 281.888 225.02C281.048 225.02 280.498 224.62 280.068 224.17L279.608 224.77C280.088 225.3 280.798 225.78 281.948 225.78ZM285.744 225.78C286.114 225.78 286.414 225.49 286.414 225.08C286.414 224.66 286.114 224.38 285.744 224.38C285.384 224.38 285.094 224.66 285.094 225.08C285.094 225.49 285.384 225.78 285.744 225.78ZM287.088 225.64H291.688V224.86H289.658C289.288 224.86 288.848 224.89 288.458 224.93C290.188 223.3 291.338 221.81 291.338 220.34C291.338 219.03 290.518 218.18 289.208 218.18C288.278 218.18 287.638 218.61 287.038 219.26L287.568 219.77C287.978 219.29 288.498 218.92 289.098 218.92C290.008 218.92 290.438 219.54 290.438 220.38C290.438 221.63 289.388 223.1 287.088 225.11V225.64ZM296.504 218.84V219.52H299.114V218.84H296.504ZM296.504 220.64V221.31H299.134V220.64H296.504ZM298.794 217.38V222.73H299.624V217.38H298.794ZM292.604 218.06V222.08H296.734V218.06H292.604ZM295.914 218.73V221.42H293.414V218.73H295.914ZM296.654 222.99C294.784 222.99 293.634 223.62 293.634 224.7C293.634 225.78 294.784 226.4 296.654 226.4C298.514 226.4 299.664 225.78 299.664 224.7C299.664 223.62 298.514 222.99 296.654 222.99ZM296.654 223.65C298.014 223.65 298.844 224.04 298.844 224.7C298.844 225.36 298.014 225.75 296.654 225.75C295.294 225.75 294.464 225.36 294.464 224.7C294.464 224.04 295.294 223.65 296.654 223.65Z" fill="#7C7B75"/>
<ellipse cx="273.425" cy="221.761" rx="2.35695" ry="2.37365" fill="#221E1F"/>
<path d="M335.644 33.6084H339.664V32.8484H338.184V26.2784H337.484C337.094 26.5184 336.624 26.6884 335.964 26.7984V27.3884H337.274V32.8484H335.644V33.6084ZM340.251 33.6084H344.851V32.8284H342.821C342.451 32.8284 342.011 32.8584 341.621 32.8984C343.351 31.2684 344.501 29.7784 344.501 28.3084C344.501 26.9984 343.681 26.1484 342.371 26.1484C341.441 26.1484 340.801 26.5784 340.201 27.2284L340.731 27.7384C341.141 27.2584 341.661 26.8884 342.261 26.8884C343.171 26.8884 343.601 27.5084 343.601 28.3484C343.601 29.5984 342.551 31.0684 340.251 33.0784V33.6084ZM346.238 33.7484C346.608 33.7484 346.908 33.4584 346.908 33.0484C346.908 32.6284 346.608 32.3484 346.238 32.3484C345.878 32.3484 345.588 32.6284 345.588 33.0484C345.588 33.4584 345.878 33.7484 346.238 33.7484ZM350.531 33.6084H351.391V26.2784H350.381L347.331 30.9884V31.5884H352.371V30.8684H348.291L349.961 28.3684C350.161 28.0084 350.361 27.6384 350.541 27.2784H350.591C350.561 27.6584 350.531 28.2484 350.531 28.6184V33.6084ZM359.548 25.3484V34.3884H360.348V25.3484H359.548ZM358.088 28.9784V29.6584H359.818V28.9784H358.088ZM355.748 26.5084V26.6684C355.748 28.7584 354.948 30.5884 352.678 31.8584L353.168 32.4484C355.748 30.9984 356.548 28.8384 356.548 26.5084H355.748ZM353.028 26.5084V27.1984H356.028V26.5084H353.028ZM357.538 25.5884V33.9484H358.328V25.5884H357.538Z" fill="#7C7B75"/>
<path d="M330.932 29.7294C330.932 30.8784 330.007 31.8063 328.872 31.8063C327.736 31.8063 326.811 30.8784 326.811 29.7294C326.811 28.5803 327.736 27.6524 328.872 27.6524C330.007 27.6524 330.932 28.5803 330.932 29.7294Z" fill="#221E1F" stroke="white" stroke-width="0.593413"/>
<path d="M391.899 96.7878H392.849C392.969 93.9278 393.279 92.2178 394.999 90.0078V89.4578H390.419V90.2378H393.969C392.529 92.2378 392.029 94.0178 391.899 96.7878ZM396.356 96.9278C396.726 96.9278 397.026 96.6378 397.026 96.2278C397.026 95.8078 396.726 95.5278 396.356 95.5278C395.996 95.5278 395.706 95.8078 395.706 96.2278C395.706 96.6378 395.996 96.9278 396.356 96.9278ZM400.269 96.9278C401.399 96.9278 402.369 95.9678 402.369 94.5478C402.369 93.0078 401.569 92.2478 400.329 92.2478C399.739 92.2478 399.059 92.6078 398.609 93.1978L398.639 93.9278C399.129 93.1978 399.719 92.9178 400.189 92.9178C401.069 92.9178 401.509 93.5478 401.509 94.5478C401.509 95.5378 400.969 96.2078 400.269 96.2078C399.239 96.2078 398.669 95.1778 398.669 93.2978C398.669 90.8978 399.529 90.0878 400.559 90.0878C400.999 90.0878 401.449 90.2978 401.729 90.6378L402.239 90.0778C401.839 89.6478 401.279 89.3278 400.519 89.3278C399.099 89.3278 397.809 90.4278 397.809 93.2978C397.809 95.7178 398.859 96.9278 400.269 96.9278ZM404.356 93.9478C405.366 93.9478 406.026 93.1078 406.026 91.6278C406.026 90.1578 405.366 89.3278 404.356 89.3278C403.346 89.3278 402.686 90.1578 402.686 91.6278C402.686 93.1078 403.346 93.9478 404.356 93.9478ZM404.356 93.3878C403.776 93.3878 403.376 92.7878 403.376 91.6278C403.376 90.4578 403.776 89.8878 404.356 89.8878C404.936 89.8878 405.326 90.4578 405.326 91.6278C405.326 92.7878 404.936 93.3878 404.356 93.3878ZM404.566 96.9278H405.186L409.226 89.3278H408.606L404.566 96.9278ZM409.466 96.9278C410.456 96.9278 411.126 96.0878 411.126 94.5978C411.126 93.1378 410.456 92.2978 409.466 92.2978C408.456 92.2978 407.796 93.1378 407.796 94.5978C407.796 96.0878 408.456 96.9278 409.466 96.9278ZM409.466 96.3678C408.886 96.3678 408.486 95.7678 408.486 94.5978C408.486 93.4278 408.886 92.8678 409.466 92.8678C410.036 92.8678 410.436 93.4278 410.436 94.5978C410.436 95.7678 410.036 96.3678 409.466 96.3678Z" fill="#7C7B75"/>
<path d="M386.097 92.909C386.097 94.0581 385.173 94.986 384.037 94.986C382.901 94.986 381.977 94.0581 381.977 92.909C381.977 91.76 382.901 90.8321 384.037 90.8321C385.173 90.8321 386.097 91.76 386.097 92.909Z" fill="#221E1F" stroke="white" stroke-width="0.593413"/>
<path d="M7.77941 30.2832H11.7994V29.5232H10.3194V22.9532H9.61941C9.22941 23.1932 8.75941 23.3632 8.09941 23.4732V24.0632H9.40941V29.5232H7.77941V30.2832ZM14.7263 30.4232C16.1063 30.4232 16.9963 29.1532 16.9963 26.5932C16.9963 24.0532 16.1063 22.8232 14.7263 22.8232C13.3263 22.8232 12.4363 24.0532 12.4363 26.5932C12.4363 29.1532 13.3263 30.4232 14.7263 30.4232ZM14.7263 29.6832C13.8863 29.6832 13.3163 28.7532 13.3163 26.5932C13.3163 24.4632 13.8863 23.5532 14.7263 23.5532C15.5563 23.5532 16.1163 24.4632 16.1163 26.5932C16.1163 28.7532 15.5563 29.6832 14.7263 29.6832ZM19.7732 30.4232C21.1532 30.4232 22.0432 29.1532 22.0432 26.5932C22.0432 24.0532 21.1532 22.8232 19.7732 22.8232C18.3732 22.8232 17.4832 24.0532 17.4832 26.5932C17.4832 29.1532 18.3732 30.4232 19.7732 30.4232ZM19.7732 29.6832C18.9332 29.6832 18.3632 28.7532 18.3632 26.5932C18.3632 24.4632 18.9332 23.5532 19.7732 23.5532C20.6032 23.5532 21.1632 24.4632 21.1632 26.5932C21.1632 28.7532 20.6032 29.6832 19.7732 29.6832Z" fill="#7C7B75"/>
<path d="M14.59 50.006C15.97 50.006 17.25 48.866 17.25 45.886C17.25 43.556 16.2 42.406 14.79 42.406C13.65 42.406 12.69 43.366 12.69 44.786C12.69 46.306 13.48 47.086 14.71 47.086C15.34 47.086 15.99 46.706 16.45 46.126L16.4 45.396C15.92 46.126 15.35 46.416 14.86 46.416C13.99 46.416 13.55 45.766 13.55 44.786C13.55 43.776 14.09 43.116 14.79 43.116C15.82 43.116 16.39 44.086 16.39 45.886C16.39 48.396 15.54 49.246 14.56 49.246C14.09 49.246 13.64 49.036 13.33 48.676L12.82 49.256C13.23 49.686 13.79 50.006 14.59 50.006ZM20.0769 50.006C21.4569 50.006 22.3469 48.736 22.3469 46.176C22.3469 43.636 21.4569 42.406 20.0769 42.406C18.6769 42.406 17.7869 43.636 17.7869 46.176C17.7869 48.736 18.6769 50.006 20.0769 50.006ZM20.0769 49.266C19.2369 49.266 18.6669 48.336 18.6669 46.176C18.6669 44.046 19.2369 43.136 20.0769 43.136C20.9069 43.136 21.4669 44.046 21.4669 46.176C21.4669 48.336 20.9069 49.266 20.0769 49.266Z" fill="#7C7B75"/>
<path d="M15.04 71.3685C16.41 71.3685 17.34 70.5385 17.34 69.4685C17.34 68.4685 16.74 67.9085 16.1 67.5385V67.4885C16.54 67.1485 17.08 66.4985 17.08 65.7185C17.08 64.5985 16.32 63.7985 15.07 63.7985C13.92 63.7985 13.05 64.5385 13.05 65.6485C13.05 66.4185 13.51 66.9785 14.05 67.3485V67.3885C13.38 67.7485 12.7 68.4285 12.7 69.4185C12.7 70.5485 13.69 71.3685 15.04 71.3685ZM15.54 67.2585C14.68 66.9185 13.89 66.5285 13.89 65.6485C13.89 64.9485 14.38 64.4685 15.05 64.4685C15.84 64.4685 16.3 65.0485 16.3 65.7685C16.3 66.3185 16.04 66.8185 15.54 67.2585ZM15.06 70.6785C14.18 70.6785 13.52 70.1085 13.52 69.3285C13.52 68.6285 13.93 68.0485 14.53 67.6685C15.56 68.0885 16.46 68.4585 16.46 69.4385C16.46 70.1685 15.9 70.6785 15.06 70.6785ZM20.0769 71.3685C21.4569 71.3685 22.3469 70.0985 22.3469 67.5385C22.3469 64.9985 21.4569 63.7685 20.0769 63.7685C18.6769 63.7685 17.7869 64.9985 17.7869 67.5385C17.7869 70.0985 18.6769 71.3685 20.0769 71.3685ZM20.0769 70.6285C19.2369 70.6285 18.6669 69.6985 18.6669 67.5385C18.6669 65.4085 19.2369 64.4985 20.0769 64.4985C20.9069 64.4985 21.4669 65.4085 21.4669 67.5385C21.4669 69.6985 20.9069 70.6285 20.0769 70.6285Z" fill="#7C7B75"/>
<path d="M14.22 92.5913H15.17C15.29 89.7313 15.6 88.0213 17.32 85.8113V85.2613H12.74V86.0413H16.29C14.85 88.0413 14.35 89.8213 14.22 92.5913ZM20.0769 92.7313C21.4569 92.7313 22.3469 91.4613 22.3469 88.9013C22.3469 86.3613 21.4569 85.1313 20.0769 85.1313C18.6769 85.1313 17.7869 86.3613 17.7869 88.9013C17.7869 91.4613 18.6769 92.7313 20.0769 92.7313ZM20.0769 91.9913C19.2369 91.9913 18.6669 91.0613 18.6669 88.9013C18.6669 86.7713 19.2369 85.8613 20.0769 85.8613C20.9069 85.8613 21.4669 86.7713 21.4669 88.9013C21.4669 91.0613 20.9069 91.9913 20.0769 91.9913Z" fill="#7C7B75"/>
<path d="M15.26 114.094C16.39 114.094 17.36 113.134 17.36 111.714C17.36 110.174 16.56 109.414 15.32 109.414C14.73 109.414 14.05 109.774 13.6 110.364L13.63 111.094C14.12 110.364 14.71 110.084 15.18 110.084C16.06 110.084 16.5 110.714 16.5 111.714C16.5 112.704 15.96 113.374 15.26 113.374C14.23 113.374 13.66 112.344 13.66 110.464C13.66 108.064 14.52 107.254 15.55 107.254C15.99 107.254 16.44 107.464 16.72 107.804L17.23 107.244C16.83 106.814 16.27 106.494 15.51 106.494C14.09 106.494 12.8 107.594 12.8 110.464C12.8 112.884 13.85 114.094 15.26 114.094ZM20.0769 114.094C21.4569 114.094 22.3469 112.824 22.3469 110.264C22.3469 107.724 21.4569 106.494 20.0769 106.494C18.6769 106.494 17.7869 107.724 17.7869 110.264C17.7869 112.824 18.6769 114.094 20.0769 114.094ZM20.0769 113.354C19.2369 113.354 18.6669 112.424 18.6669 110.264C18.6669 108.134 19.2369 107.224 20.0769 107.224C20.9069 107.224 21.4669 108.134 21.4669 110.264C21.4669 112.424 20.9069 113.354 20.0769 113.354Z" fill="#7C7B75"/>
<path d="M14.86 135.457C16.09 135.457 17.26 134.537 17.26 132.937C17.26 131.317 16.27 130.597 15.05 130.597C14.61 130.597 14.28 130.707 13.95 130.887L14.14 128.767H16.91V127.987H13.34L13.11 131.417L13.6 131.727C14.02 131.447 14.33 131.287 14.82 131.287C15.73 131.287 16.33 131.917 16.33 132.967C16.33 134.027 15.64 134.697 14.77 134.697C13.93 134.697 13.39 134.307 12.98 133.877L12.52 134.477C13.02 134.977 13.72 135.457 14.86 135.457ZM20.0769 135.457C21.4569 135.457 22.3469 134.187 22.3469 131.627C22.3469 129.087 21.4569 127.857 20.0769 127.857C18.6769 127.857 17.7869 129.087 17.7869 131.627C17.7869 134.187 18.6769 135.457 20.0769 135.457ZM20.0769 134.717C19.2369 134.717 18.6669 133.787 18.6669 131.627C18.6669 129.497 19.2369 128.587 20.0769 128.587C20.9069 128.587 21.4669 129.497 21.4669 131.627C21.4669 133.787 20.9069 134.717 20.0769 134.717Z" fill="#7C7B75"/>
<path d="M15.64 156.68H16.5V149.35H15.49L12.44 154.06V154.66H17.48V153.94H13.4L15.07 151.44C15.27 151.08 15.47 150.71 15.65 150.35H15.7C15.67 150.73 15.64 151.32 15.64 151.69V156.68ZM20.0769 156.82C21.4569 156.82 22.3469 155.55 22.3469 152.99C22.3469 150.45 21.4569 149.22 20.0769 149.22C18.6769 149.22 17.7869 150.45 17.7869 152.99C17.7869 155.55 18.6769 156.82 20.0769 156.82ZM20.0769 156.08C19.2369 156.08 18.6669 155.15 18.6669 152.99C18.6669 150.86 19.2369 149.95 20.0769 149.95C20.9069 149.95 21.4669 150.86 21.4669 152.99C21.4669 155.15 20.9069 156.08 20.0769 156.08Z" fill="#7C7B75"/>
<path d="M14.88 178.183C16.19 178.183 17.24 177.393 17.24 176.093C17.24 175.083 16.54 174.433 15.68 174.223V174.183C16.46 173.903 16.98 173.313 16.98 172.423C16.98 171.253 16.08 170.583 14.85 170.583C14.01 170.583 13.36 170.953 12.81 171.453L13.3 172.043C13.71 171.623 14.23 171.323 14.82 171.323C15.58 171.323 16.05 171.783 16.05 172.483C16.05 173.283 15.54 173.883 14.03 173.883V174.593C15.72 174.593 16.31 175.173 16.31 176.053C16.31 176.893 15.69 177.423 14.82 177.423C13.98 177.423 13.43 177.023 13 176.573L12.54 177.173C13.02 177.703 13.73 178.183 14.88 178.183ZM20.0769 178.183C21.4569 178.183 22.3469 176.913 22.3469 174.353C22.3469 171.813 21.4569 170.583 20.0769 170.583C18.6769 170.583 17.7869 171.813 17.7869 174.353C17.7869 176.913 18.6769 178.183 20.0769 178.183ZM20.0769 177.443C19.2369 177.443 18.6669 176.513 18.6669 174.353C18.6669 172.223 19.2369 171.313 20.0769 171.313C20.9069 171.313 21.4669 172.223 21.4669 174.353C21.4669 176.513 20.9069 177.443 20.0769 177.443Z" fill="#7C7B75"/>
<path d="M12.69 199.406H17.29V198.626H15.26C14.89 198.626 14.45 198.656 14.06 198.696C15.79 197.066 16.94 195.576 16.94 194.106C16.94 192.796 16.12 191.946 14.81 191.946C13.88 191.946 13.24 192.376 12.64 193.026L13.17 193.536C13.58 193.056 14.1 192.686 14.7 192.686C15.61 192.686 16.04 193.306 16.04 194.146C16.04 195.396 14.99 196.866 12.69 198.876V199.406ZM20.0769 199.546C21.4569 199.546 22.3469 198.276 22.3469 195.716C22.3469 193.176 21.4569 191.946 20.0769 191.946C18.6769 191.946 17.7869 193.176 17.7869 195.716C17.7869 198.276 18.6769 199.546 20.0769 199.546ZM20.0769 198.806C19.2369 198.806 18.6669 197.876 18.6669 195.716C18.6669 193.586 19.2369 192.676 20.0769 192.676C20.9069 192.676 21.4669 193.586 21.4669 195.716C21.4669 197.876 20.9069 198.806 20.0769 198.806Z" fill="#7C7B75"/>
<path d="M13.13 220.768H17.15V220.008H15.67V213.438H14.97C14.58 213.678 14.11 213.848 13.45 213.958V214.548H14.76V220.008H13.13V220.768ZM20.0769 220.908C21.4569 220.908 22.3469 219.638 22.3469 217.078C22.3469 214.538 21.4569 213.308 20.0769 213.308C18.6769 213.308 17.7869 214.538 17.7869 217.078C17.7869 219.638 18.6769 220.908 20.0769 220.908ZM20.0769 220.168C19.2369 220.168 18.6669 219.238 18.6669 217.078C18.6669 214.948 19.2369 214.038 20.0769 214.038C20.9069 214.038 21.4669 214.948 21.4669 217.078C21.4669 219.238 20.9069 220.168 20.0769 220.168Z" fill="#7C7B75"/>
<rect x="44.0676" y="108.233" width="4.7139" height="4.7473" fill="#2B6A37"/>
<rect x="100.425" y="121.534" width="4.7139" height="4.7473" fill="#2B6A37"/>
<rect x="212.562" y="159.774" width="4.7139" height="4.7473" fill="#2B6A37"/>
<rect x="160.441" y="90.7756" width="4.7139" height="4.7473" fill="#2B6A37"/>
<rect x="270.7" y="99.9871" width="4.7139" height="4.7473" fill="#2B6A37"/>
<rect x="381.311" y="156.449" width="4.7139" height="4.7473" fill="#2B6A37"/>
<rect width="4.73063" height="4.73063" transform="matrix(0.704607 0.709598 -0.704607 0.709598 102.781 157.548)" fill="#CF534D"/>
<rect width="4.73063" height="4.73063" transform="matrix(0.704607 0.709598 -0.704607 0.709598 214.919 143.979)" fill="#CF534D"/>
<rect width="4.73063" height="4.73063" transform="matrix(0.704607 0.709598 -0.704607 0.709598 328.283 177.231)" fill="#CF534D"/>
<rect width="4.73063" height="4.73063" transform="matrix(0.704607 0.709598 -0.704607 0.709598 162.596 82.4622)" fill="#CF534D"/>
<rect width="4.73063" height="4.73063" transform="matrix(0.704607 0.709598 -0.704607 0.709598 272.854 104.732)" fill="#CF534D"/>
<rect width="4.73063" height="4.73063" transform="matrix(0.704607 0.709598 -0.704607 0.709598 383.466 163.93)" fill="#CF534D"/>
<rect width="4.73063" height="4.73063" transform="matrix(0.704607 0.709598 -0.704607 0.709598 46.5757 130.678)" fill="#CF534D"/>
<rect x="325.926" y="155.617" width="4.7139" height="4.7473" fill="#2B6A37"/>
<path d="M315.372 11H320.892V10.064H318.456C318.012 10.064 317.484 10.1 317.016 10.148C319.092 8.192 320.472 6.404 320.472 4.64C320.472 3.068 319.488 2.048 317.916 2.048C316.8 2.048 316.032 2.564 315.312 3.344L315.948 3.956C316.44 3.38 317.064 2.936 317.784 2.936C318.876 2.936 319.392 3.68 319.392 4.688C319.392 6.188 318.132 7.952 315.372 10.364V11ZM324.237 11.168C325.893 11.168 326.961 9.644 326.961 6.572C326.961 3.524 325.893 2.048 324.237 2.048C322.557 2.048 321.489 3.524 321.489 6.572C321.489 9.644 322.557 11.168 324.237 11.168ZM324.237 10.28C323.229 10.28 322.545 9.164 322.545 6.572C322.545 4.016 323.229 2.924 324.237 2.924C325.233 2.924 325.905 4.016 325.905 6.572C325.905 9.164 325.233 10.28 324.237 10.28ZM327.485 11H333.005V10.064H330.569C330.125 10.064 329.597 10.1 329.129 10.148C331.205 8.192 332.585 6.404 332.585 4.64C332.585 3.068 331.601 2.048 330.029 2.048C328.913 2.048 328.145 2.564 327.425 3.344L328.061 3.956C328.553 3.38 329.177 2.936 329.897 2.936C330.989 2.936 331.505 3.68 331.505 4.688C331.505 6.188 330.245 7.952 327.485 10.364V11ZM333.541 11H339.061V10.064H336.625C336.181 10.064 335.653 10.1 335.185 10.148C337.261 8.192 338.641 6.404 338.641 4.64C338.641 3.068 337.657 2.048 336.085 2.048C334.969 2.048 334.201 2.564 333.481 3.344L334.117 3.956C334.609 3.38 335.233 2.936 335.953 2.936C337.045 2.936 337.561 3.68 337.561 4.688C337.561 6.188 336.301 7.952 333.541 10.364V11ZM339.621 8.072H342.693V7.232H339.621V8.072ZM345.965 11.168C347.621 11.168 348.689 9.644 348.689 6.572C348.689 3.524 347.621 2.048 345.965 2.048C344.285 2.048 343.217 3.524 343.217 6.572C343.217 9.644 344.285 11.168 345.965 11.168ZM345.965 10.28C344.957 10.28 344.273 9.164 344.273 6.572C344.273 4.016 344.957 2.924 345.965 2.924C346.961 2.924 347.633 4.016 347.633 6.572C347.633 9.164 346.961 10.28 345.965 10.28ZM349.742 11H354.566V10.088H352.79V2.204H351.95C351.482 2.492 350.918 2.696 350.126 2.828V3.536H351.698V10.088H349.742V11ZM355.294 8.072H358.366V7.232H355.294V8.072ZM359.358 11H364.182V10.088H362.406V2.204H361.566C361.098 2.492 360.534 2.696 359.742 2.828V3.536H361.314V10.088H359.358V11ZM367.166 11.168C368.822 11.168 370.358 9.8 370.358 6.224C370.358 3.428 369.098 2.048 367.406 2.048C366.038 2.048 364.886 3.2 364.886 4.904C364.886 6.728 365.834 7.664 367.31 7.664C368.066 7.664 368.846 7.208 369.398 6.512L369.338 5.636C368.762 6.512 368.078 6.86 367.49 6.86C366.446 6.86 365.918 6.08 365.918 4.904C365.918 3.692 366.566 2.9 367.406 2.9C368.642 2.9 369.326 4.064 369.326 6.224C369.326 9.236 368.306 10.256 367.13 10.256C366.566 10.256 366.026 10.004 365.654 9.572L365.042 10.268C365.534 10.784 366.206 11.168 367.166 11.168ZM375.638 11H380.462V10.088H378.686V2.204H377.846C377.378 2.492 376.814 2.696 376.022 2.828V3.536H377.594V10.088H375.638V11ZM384.25 11.168C385.606 11.168 386.77 10.016 386.77 8.312C386.77 6.464 385.81 5.552 384.322 5.552C383.614 5.552 382.798 5.984 382.258 6.692L382.294 7.568C382.882 6.692 383.59 6.356 384.154 6.356C385.21 6.356 385.738 7.112 385.738 8.312C385.738 9.5 385.09 10.304 384.25 10.304C383.014 10.304 382.33 9.068 382.33 6.812C382.33 3.932 383.362 2.96 384.598 2.96C385.126 2.96 385.666 3.212 386.002 3.62L386.614 2.948C386.134 2.432 385.462 2.048 384.55 2.048C382.846 2.048 381.298 3.368 381.298 6.812C381.298 9.716 382.558 11.168 384.25 11.168ZM388.35 6.32C388.794 6.32 389.154 5.984 389.154 5.492C389.154 4.988 388.794 4.652 388.35 4.652C387.918 4.652 387.57 4.988 387.57 5.492C387.57 5.984 387.918 6.32 388.35 6.32ZM388.35 11.168C388.794 11.168 389.154 10.82 389.154 10.328C389.154 9.824 388.794 9.488 388.35 9.488C387.918 9.488 387.57 9.824 387.57 10.328C387.57 10.82 387.918 11.168 388.35 11.168ZM392.59 11.168C394.162 11.168 395.422 10.22 395.422 8.66C395.422 7.448 394.582 6.668 393.55 6.416V6.368C394.486 6.032 395.11 5.324 395.11 4.256C395.11 2.852 394.03 2.048 392.554 2.048C391.546 2.048 390.766 2.492 390.106 3.092L390.694 3.8C391.186 3.296 391.81 2.936 392.518 2.936C393.43 2.936 393.994 3.488 393.994 4.328C393.994 5.288 393.382 6.008 391.57 6.008V6.86C393.598 6.86 394.306 7.556 394.306 8.612C394.306 9.62 393.562 10.256 392.518 10.256C391.51 10.256 390.85 9.776 390.334 9.236L389.782 9.956C390.358 10.592 391.21 11.168 392.59 11.168ZM398.838 11.168C400.482 11.168 401.598 10.172 401.598 8.888C401.598 7.688 400.878 7.016 400.11 6.572V6.512C400.638 6.104 401.286 5.324 401.286 4.388C401.286 3.044 400.374 2.084 398.874 2.084C397.494 2.084 396.45 2.972 396.45 4.304C396.45 5.228 397.002 5.9 397.65 6.344V6.392C396.846 6.824 396.03 7.64 396.03 8.828C396.03 10.184 397.218 11.168 398.838 11.168ZM399.438 6.236C398.406 5.828 397.458 5.36 397.458 4.304C397.458 3.464 398.046 2.888 398.85 2.888C399.798 2.888 400.35 3.584 400.35 4.448C400.35 5.108 400.038 5.708 399.438 6.236ZM398.862 10.34C397.806 10.34 397.014 9.656 397.014 8.72C397.014 7.88 397.506 7.184 398.226 6.728C399.462 7.232 400.542 7.676 400.542 8.852C400.542 9.728 399.87 10.34 398.862 10.34ZM403.203 6.32C403.647 6.32 404.007 5.984 404.007 5.492C404.007 4.988 403.647 4.652 403.203 4.652C402.771 4.652 402.423 4.988 402.423 5.492C402.423 5.984 402.771 6.32 403.203 6.32ZM403.203 11.168C403.647 11.168 404.007 10.82 404.007 10.328C404.007 9.824 403.647 9.488 403.203 9.488C402.771 9.488 402.423 9.824 402.423 10.328C402.423 10.82 402.771 11.168 403.203 11.168ZM404.815 11H410.335V10.064H407.899C407.455 10.064 406.927 10.1 406.459 10.148C408.535 8.192 409.915 6.404 409.915 4.64C409.915 3.068 408.931 2.048 407.359 2.048C406.243 2.048 405.475 2.564 404.755 3.344L405.391 3.956C405.883 3.38 406.507 2.936 407.227 2.936C408.319 2.936 408.835 3.68 408.835 4.688C408.835 6.188 407.575 7.952 404.815 10.364V11ZM413.499 11.168C415.071 11.168 416.331 10.22 416.331 8.66C416.331 7.448 415.491 6.668 414.459 6.416V6.368C415.395 6.032 416.019 5.324 416.019 4.256C416.019 2.852 414.939 2.048 413.463 2.048C412.455 2.048 411.675 2.492 411.015 3.092L411.603 3.8C412.095 3.296 412.719 2.936 413.427 2.936C414.339 2.936 414.903 3.488 414.903 4.328C414.903 5.288 414.291 6.008 412.479 6.008V6.86C414.507 6.86 415.215 7.556 415.215 8.612C415.215 9.62 414.471 10.256 413.427 10.256C412.419 10.256 411.759 9.776 411.243 9.236L410.691 9.956C411.267 10.592 412.119 11.168 413.499 11.168Z" fill="#909399"/>
<defs>
<linearGradient id="paint0_linear_19_9975" x1="46.9565" y1="72.4868" x2="46.9565" y2="237.917" gradientUnits="userSpaceOnUse">
<stop stop-color="#F08300"/>
<stop offset="1" stop-color="#F6CD9A"/>
</linearGradient>
<linearGradient id="paint1_linear_19_9975" x1="102.262" y1="145.642" x2="102.262" y2="237.917" gradientUnits="userSpaceOnUse">
<stop stop-color="#F08300"/>
<stop offset="1" stop-color="#F6CD9A"/>
</linearGradient>
<linearGradient id="paint2_linear_19_9975" x1="215.35" y1="167.256" x2="215.35" y2="237.917" gradientUnits="userSpaceOnUse">
<stop stop-color="#F08300"/>
<stop offset="1" stop-color="#F6CD9A"/>
</linearGradient>
<linearGradient id="paint3_linear_19_9975" x1="327.613" y1="219.628" x2="327.613" y2="237.917" gradientUnits="userSpaceOnUse">
<stop stop-color="#F08300"/>
<stop offset="1" stop-color="#F6CD9A"/>
</linearGradient>
<linearGradient id="paint4_linear_19_9975" x1="162.521" y1="75.8123" x2="162.521" y2="237.917" gradientUnits="userSpaceOnUse">
<stop stop-color="#F08300"/>
<stop offset="1" stop-color="#F6CD9A"/>
</linearGradient>
<linearGradient id="paint5_linear_19_9975" x1="273.133" y1="85.7878" x2="273.133" y2="237.917" gradientUnits="userSpaceOnUse">
<stop stop-color="#F08300"/>
<stop offset="1" stop-color="#F6CD9A"/>
</linearGradient>
<linearGradient id="paint6_linear_19_9975" x1="383.744" y1="209.652" x2="383.744" y2="237.917" gradientUnits="userSpaceOnUse">
<stop stop-color="#F08300"/>
<stop offset="1" stop-color="#F6CD9A"/>
</linearGradient>
</defs>
</svg>
