<svg width="296" height="356" viewBox="0 0 296 356" fill="none" xmlns="http://www.w3.org/2000/svg">
<path d="M21.0074 95H26.6354V93.936H24.5634V84.738H23.5834C23.0374 85.074 22.3794 85.312 21.4554 85.466V86.292H23.2894V93.936H21.0074V95ZM30.733 95.196C32.665 95.196 33.911 93.418 33.911 89.834C33.911 86.278 32.665 84.556 30.733 84.556C28.773 84.556 27.527 86.278 27.527 89.834C27.527 93.418 28.773 95.196 30.733 95.196ZM30.733 94.16C29.557 94.16 28.759 92.858 28.759 89.834C28.759 86.852 29.557 85.578 30.733 85.578C31.895 85.578 32.679 86.852 32.679 89.834C32.679 92.858 31.895 94.16 30.733 94.16ZM34.9426 97.66C36.2166 97.142 36.9866 96.092 36.9866 94.734C36.9866 93.81 36.5806 93.236 35.9086 93.236C35.3906 93.236 34.9566 93.572 34.9566 94.132C34.9566 94.706 35.3906 95.028 35.8806 95.028C36.1326 95.028 36.3566 94.958 36.5246 94.748L35.9086 93.824L36.0486 94.972C36.0486 95.826 35.5166 96.526 34.6486 96.918L34.9426 97.66ZM40.9951 95.196C42.9271 95.196 44.1731 93.418 44.1731 89.834C44.1731 86.278 42.9271 84.556 40.9951 84.556C39.0351 84.556 37.7891 86.278 37.7891 89.834C37.7891 93.418 39.0351 95.196 40.9951 95.196ZM40.9951 94.16C39.8191 94.16 39.0211 92.858 39.0211 89.834C39.0211 86.852 39.8191 85.578 40.9951 85.578C42.1571 85.578 42.9411 86.852 42.9411 89.834C42.9411 92.858 42.1571 94.16 40.9951 94.16ZM48.0608 95.196C49.9928 95.196 51.2388 93.418 51.2388 89.834C51.2388 86.278 49.9928 84.556 48.0608 84.556C46.1008 84.556 44.8548 86.278 44.8548 89.834C44.8548 93.418 46.1008 95.196 48.0608 95.196ZM48.0608 94.16C46.8848 94.16 46.0868 92.858 46.0868 89.834C46.0868 86.852 46.8848 85.578 48.0608 85.578C49.2228 85.578 50.0068 86.852 50.0068 89.834C50.0068 92.858 49.2228 94.16 48.0608 94.16ZM55.1264 95.196C57.0584 95.196 58.3044 93.418 58.3044 89.834C58.3044 86.278 57.0584 84.556 55.1264 84.556C53.1664 84.556 51.9204 86.278 51.9204 89.834C51.9204 93.418 53.1664 95.196 55.1264 95.196ZM55.1264 94.16C53.9504 94.16 53.1524 92.858 53.1524 89.834C53.1524 86.852 53.9504 85.578 55.1264 85.578C56.2884 85.578 57.0724 86.852 57.0724 89.834C57.0724 92.858 56.2884 94.16 55.1264 94.16Z" fill="#7C7B75"/>
<path d="M21.0074 54H26.6354V52.936H24.5634V43.738H23.5834C23.0374 44.074 22.3794 44.312 21.4554 44.466V45.292H23.2894V52.936H21.0074V54ZM27.457 54H33.897V52.908H31.055C30.537 52.908 29.921 52.95 29.375 53.006C31.797 50.724 33.407 48.638 33.407 46.58C33.407 44.746 32.259 43.556 30.425 43.556C29.123 43.556 28.227 44.158 27.387 45.068L28.129 45.782C28.703 45.11 29.431 44.592 30.271 44.592C31.545 44.592 32.147 45.46 32.147 46.636C32.147 48.386 30.677 50.444 27.457 53.258V54ZM34.9426 56.66C36.2166 56.142 36.9866 55.092 36.9866 53.734C36.9866 52.81 36.5806 52.236 35.9086 52.236C35.3906 52.236 34.9566 52.572 34.9566 53.132C34.9566 53.706 35.3906 54.028 35.8806 54.028C36.1326 54.028 36.3566 53.958 36.5246 53.748L35.9086 52.824L36.0486 53.972C36.0486 54.826 35.5166 55.526 34.6486 55.918L34.9426 56.66ZM40.9951 54.196C42.9271 54.196 44.1731 52.418 44.1731 48.834C44.1731 45.278 42.9271 43.556 40.9951 43.556C39.0351 43.556 37.7891 45.278 37.7891 48.834C37.7891 52.418 39.0351 54.196 40.9951 54.196ZM40.9951 53.16C39.8191 53.16 39.0211 51.858 39.0211 48.834C39.0211 45.852 39.8191 44.578 40.9951 44.578C42.1571 44.578 42.9411 45.852 42.9411 48.834C42.9411 51.858 42.1571 53.16 40.9951 53.16ZM48.0608 54.196C49.9928 54.196 51.2388 52.418 51.2388 48.834C51.2388 45.278 49.9928 43.556 48.0608 43.556C46.1008 43.556 44.8548 45.278 44.8548 48.834C44.8548 52.418 46.1008 54.196 48.0608 54.196ZM48.0608 53.16C46.8848 53.16 46.0868 51.858 46.0868 48.834C46.0868 45.852 46.8848 44.578 48.0608 44.578C49.2228 44.578 50.0068 45.852 50.0068 48.834C50.0068 51.858 49.2228 53.16 48.0608 53.16ZM55.1264 54.196C57.0584 54.196 58.3044 52.418 58.3044 48.834C58.3044 45.278 57.0584 43.556 55.1264 43.556C53.1664 43.556 51.9204 45.278 51.9204 48.834C51.9204 52.418 53.1664 54.196 55.1264 54.196ZM55.1264 53.16C53.9504 53.16 53.1524 51.858 53.1524 48.834C53.1524 45.852 53.9504 44.578 55.1264 44.578C56.2884 44.578 57.0724 45.852 57.0724 48.834C57.0724 51.858 56.2884 53.16 55.1264 53.16Z" fill="#7C7B75"/>
<path d="M30.747 137.196C32.665 137.196 33.967 136.034 33.967 134.536C33.967 133.136 33.127 132.352 32.231 131.834V131.764C32.847 131.288 33.603 130.378 33.603 129.286C33.603 127.718 32.539 126.598 30.789 126.598C29.179 126.598 27.961 127.634 27.961 129.188C27.961 130.266 28.605 131.05 29.361 131.568V131.624C28.423 132.128 27.471 133.08 27.471 134.466C27.471 136.048 28.857 137.196 30.747 137.196ZM31.447 131.442C30.243 130.966 29.137 130.42 29.137 129.188C29.137 128.208 29.823 127.536 30.761 127.536C31.867 127.536 32.511 128.348 32.511 129.356C32.511 130.126 32.147 130.826 31.447 131.442ZM30.775 136.23C29.543 136.23 28.619 135.432 28.619 134.34C28.619 133.36 29.193 132.548 30.033 132.016C31.475 132.604 32.735 133.122 32.735 134.494C32.735 135.516 31.951 136.23 30.775 136.23ZM34.9426 139.66C36.2166 139.142 36.9866 138.092 36.9866 136.734C36.9866 135.81 36.5806 135.236 35.9086 135.236C35.3906 135.236 34.9566 135.572 34.9566 136.132C34.9566 136.706 35.3906 137.028 35.8806 137.028C36.1326 137.028 36.3566 136.958 36.5246 136.748L35.9086 135.824L36.0486 136.972C36.0486 137.826 35.5166 138.526 34.6486 138.918L34.9426 139.66ZM40.9951 137.196C42.9271 137.196 44.1731 135.418 44.1731 131.834C44.1731 128.278 42.9271 126.556 40.9951 126.556C39.0351 126.556 37.7891 128.278 37.7891 131.834C37.7891 135.418 39.0351 137.196 40.9951 137.196ZM40.9951 136.16C39.8191 136.16 39.0211 134.858 39.0211 131.834C39.0211 128.852 39.8191 127.578 40.9951 127.578C42.1571 127.578 42.9411 128.852 42.9411 131.834C42.9411 134.858 42.1571 136.16 40.9951 136.16ZM48.0607 137.196C49.9927 137.196 51.2387 135.418 51.2387 131.834C51.2387 128.278 49.9927 126.556 48.0607 126.556C46.1007 126.556 44.8547 128.278 44.8547 131.834C44.8547 135.418 46.1007 137.196 48.0607 137.196ZM48.0607 136.16C46.8847 136.16 46.0867 134.858 46.0867 131.834C46.0867 128.852 46.8847 127.578 48.0607 127.578C49.2227 127.578 50.0067 128.852 50.0067 131.834C50.0067 134.858 49.2227 136.16 48.0607 136.16ZM55.1264 137.196C57.0584 137.196 58.3044 135.418 58.3044 131.834C58.3044 128.278 57.0584 126.556 55.1264 126.556C53.1664 126.556 51.9204 128.278 51.9204 131.834C51.9204 135.418 53.1664 137.196 55.1264 137.196ZM55.1264 136.16C53.9504 136.16 53.1524 134.858 53.1524 131.834C53.1524 128.852 53.9504 127.578 55.1264 127.578C56.2884 127.578 57.0724 128.852 57.0724 131.834C57.0724 134.858 56.2884 136.16 55.1264 136.16Z" fill="#7C7B75"/>
<path d="M31.587 220H32.791V209.738H31.377L27.107 216.332V217.172H34.163V216.164H28.451L30.789 212.664C31.069 212.16 31.349 211.642 31.601 211.138H31.671C31.629 211.67 31.587 212.496 31.587 213.014V220ZM34.9426 222.66C36.2166 222.142 36.9866 221.092 36.9866 219.734C36.9866 218.81 36.5806 218.236 35.9086 218.236C35.3906 218.236 34.9566 218.572 34.9566 219.132C34.9566 219.706 35.3906 220.028 35.8806 220.028C36.1326 220.028 36.3566 219.958 36.5246 219.748L35.9086 218.824L36.0486 219.972C36.0486 220.826 35.5166 221.526 34.6486 221.918L34.9426 222.66ZM40.9951 220.196C42.9271 220.196 44.1731 218.418 44.1731 214.834C44.1731 211.278 42.9271 209.556 40.9951 209.556C39.0351 209.556 37.7891 211.278 37.7891 214.834C37.7891 218.418 39.0351 220.196 40.9951 220.196ZM40.9951 219.16C39.8191 219.16 39.0211 217.858 39.0211 214.834C39.0211 211.852 39.8191 210.578 40.9951 210.578C42.1571 210.578 42.9411 211.852 42.9411 214.834C42.9411 217.858 42.1571 219.16 40.9951 219.16ZM48.0607 220.196C49.9927 220.196 51.2387 218.418 51.2387 214.834C51.2387 211.278 49.9927 209.556 48.0607 209.556C46.1007 209.556 44.8547 211.278 44.8547 214.834C44.8547 218.418 46.1007 220.196 48.0607 220.196ZM48.0607 219.16C46.8847 219.16 46.0867 217.858 46.0867 214.834C46.0867 211.852 46.8847 210.578 48.0607 210.578C49.2227 210.578 50.0067 211.852 50.0067 214.834C50.0067 217.858 49.2227 219.16 48.0607 219.16ZM55.1264 220.196C57.0584 220.196 58.3044 218.418 58.3044 214.834C58.3044 211.278 57.0584 209.556 55.1264 209.556C53.1664 209.556 51.9204 211.278 51.9204 214.834C51.9204 218.418 53.1664 220.196 55.1264 220.196ZM55.1264 219.16C53.9504 219.16 53.1524 217.858 53.1524 214.834C53.1524 211.852 53.9504 210.578 55.1264 210.578C56.2884 210.578 57.0724 211.852 57.0724 214.834C57.0724 217.858 56.2884 219.16 55.1264 219.16Z" fill="#7C7B75"/>
<path d="M21.0074 13H26.6354V11.936H24.5634V2.738H23.5834C23.0374 3.074 22.3794 3.312 21.4554 3.466V4.292H23.2894V11.936H21.0074V13ZM31.587 13H32.791V2.738H31.377L27.107 9.332V10.172H34.163V9.164H28.451L30.789 5.664C31.069 5.16 31.349 4.642 31.601 4.138H31.671C31.629 4.67 31.587 5.496 31.587 6.014V13ZM34.9426 15.66C36.2166 15.142 36.9866 14.092 36.9866 12.734C36.9866 11.81 36.5806 11.236 35.9086 11.236C35.3906 11.236 34.9566 11.572 34.9566 12.132C34.9566 12.706 35.3906 13.028 35.8806 13.028C36.1326 13.028 36.3566 12.958 36.5246 12.748L35.9086 11.824L36.0486 12.972C36.0486 13.826 35.5166 14.526 34.6486 14.918L34.9426 15.66ZM40.9951 13.196C42.9271 13.196 44.1731 11.418 44.1731 7.834C44.1731 4.278 42.9271 2.556 40.9951 2.556C39.0351 2.556 37.7891 4.278 37.7891 7.834C37.7891 11.418 39.0351 13.196 40.9951 13.196ZM40.9951 12.16C39.8191 12.16 39.0211 10.858 39.0211 7.834C39.0211 4.852 39.8191 3.578 40.9951 3.578C42.1571 3.578 42.9411 4.852 42.9411 7.834C42.9411 10.858 42.1571 12.16 40.9951 12.16ZM48.0608 13.196C49.9928 13.196 51.2388 11.418 51.2388 7.834C51.2388 4.278 49.9928 2.556 48.0608 2.556C46.1008 2.556 44.8548 4.278 44.8548 7.834C44.8548 11.418 46.1008 13.196 48.0608 13.196ZM48.0608 12.16C46.8848 12.16 46.0868 10.858 46.0868 7.834C46.0868 4.852 46.8848 3.578 48.0608 3.578C49.2228 3.578 50.0068 4.852 50.0068 7.834C50.0068 10.858 49.2228 12.16 48.0608 12.16ZM55.1264 13.196C57.0584 13.196 58.3044 11.418 58.3044 7.834C58.3044 4.278 57.0584 2.556 55.1264 2.556C53.1664 2.556 51.9204 4.278 51.9204 7.834C51.9204 11.418 53.1664 13.196 55.1264 13.196ZM55.1264 12.16C53.9504 12.16 53.1524 10.858 53.1524 7.834C53.1524 4.852 53.9504 3.578 55.1264 3.578C56.2884 3.578 57.0724 4.852 57.0724 7.834C57.0724 10.858 56.2884 12.16 55.1264 12.16Z" fill="#7C7B75"/>
<path opacity="0.4" d="M13.364 63.7437L13.052 63.0717C11.348 64.1037 9.32 64.6077 7.28 64.6077C5.24 64.6077 3.212 64.1037 1.508 63.0717L1.184 63.7437C2.984 64.8597 4.928 65.5197 7.28 65.5197C9.644 65.5197 11.564 64.8597 13.364 63.7437ZM1.076 55.141L8.936 55.141L8.936 54.145L1.076 54.145L1.076 55.141ZM4.304 54.445L5.132 54.445L5.132 52.537L4.304 52.537L4.304 54.445ZM6.2 62.065L7.028 62.065L7.028 61.225C7.028 58.945 6.956 57.661 6.644 56.173L5.84 56.281C6.14 57.733 6.2 58.993 6.2 61.225L6.2 62.065ZM2.012 62.065L6.644 62.065L6.644 61.081L2.84 61.081L2.84 57.277L2.012 57.277L2.012 62.065ZM10.88 60.901L11.696 60.901L11.696 53.653L10.88 53.653L10.88 60.901ZM8.156 60.901L11.252 60.901L11.252 59.905L8.156 59.905L8.156 60.901ZM1.592 48.578C1.592 50.186 2.492 51.338 3.824 51.338C5.144 51.338 6.068 50.186 6.068 48.578C6.068 46.958 5.144 45.806 3.824 45.806C2.492 45.806 1.592 46.958 1.592 48.578ZM2.42 48.578C2.42 47.522 2.996 46.766 3.824 46.766C4.664 46.766 5.228 47.522 5.228 48.578C5.228 49.634 4.664 50.39 3.824 50.39C2.996 50.39 2.42 49.634 2.42 48.578ZM7.268 49.022L11.6 49.022L11.6 48.026L7.268 48.026L7.268 49.022ZM1.088 44.222L11.948 44.222L11.948 43.238L1.088 43.238L1.088 44.222ZM7.808 52.01C7.808 50.03 7.772 47.366 7.328 44.918L6.584 44.99C6.944 47.378 6.968 50.126 6.968 52.142L7.808 52.01ZM6.32 40.6229C6.32 40.1789 5.984 39.8189 5.492 39.8189C4.988 39.8189 4.652 40.1789 4.652 40.6229C4.652 41.0549 4.988 41.4029 5.492 41.4029C5.984 41.4029 6.32 41.0549 6.32 40.6229ZM11.168 40.6229C11.168 40.1789 10.82 39.8189 10.328 39.8189C9.824 39.8189 9.488 40.1789 9.488 40.6229C9.488 41.0549 9.824 41.4029 10.328 41.4029C10.82 41.4029 11.168 41.0549 11.168 40.6229ZM3.128 34.1555L3.668 34.1555C5.192 34.1555 6.536 35.2235 7.088 36.8315L7.868 36.3395C7.232 34.5275 5.624 33.3395 3.668 33.3395L3.128 33.3395L3.128 34.1555ZM3.128 33.9875L3.668 33.9875C5.54 33.9875 7.076 32.7515 7.676 30.9395L6.884 30.4475C6.38 32.0555 5.108 33.1595 3.668 33.1595L3.128 33.1595L3.128 33.9875ZM2.54 36.5555L3.344 36.5555L3.344 30.7715L2.54 30.7715L2.54 36.5555ZM1.16 34.1555L2.84 34.1555L2.84 33.1595L1.16 33.1595L1.16 34.1555ZM4.424 31.1315L5.252 31.1315L5.252 28.3955L4.424 28.3955L4.424 31.1315ZM1.1 28.9355L9.188 28.9355L9.188 27.9395L1.1 27.9395L1.1 28.9355ZM10.88 34.8635L11.696 34.8635L11.696 27.6395L10.88 27.6395L10.88 34.8635ZM8.468 34.8635L11.324 34.8635L11.324 33.8675L8.468 33.8675L8.468 34.8635ZM5.336 23.8528L6.152 23.8528L6.152 23.0128C6.152 20.7928 6.08 19.4728 5.768 17.9368L4.964 18.0568C5.264 19.5448 5.336 20.8288 5.336 23.0128L5.336 23.8528ZM1.712 23.8528L5.816 23.8528L5.816 22.8688L2.516 22.8688L2.516 19.0648L1.712 19.0648L1.712 23.8528ZM1.088 16.9168L6.548 16.9168L6.548 15.9208L1.088 15.9208L1.088 16.9168ZM3.368 16.1968L4.196 16.1968L4.196 14.3128L3.368 14.3128L3.368 16.1968ZM7.1 22.8088L7.892 22.8088L7.892 16.8928L9.008 16.8928L9.008 22.7848L11.456 22.7848L11.456 21.8008L9.776 21.8008L9.776 15.9208L7.1 15.9208L7.1 22.8088ZM10.988 22.7848L11.792 22.7848L11.792 15.5248L10.988 15.5248L10.988 22.7848ZM1.076 5.97375L11.948 5.97375L11.948 4.97775L1.076 4.97775L1.076 5.97375ZM5.252 8.03775L6.068 8.03775L6.068 5.73375L5.252 5.73375L5.252 8.03775ZM8.516 13.4977L9.356 13.4977L9.356 12.6697C9.356 10.7137 9.284 9.33375 8.996 7.70175L8.168 7.79775C8.456 9.39375 8.516 10.7497 8.516 12.6697L8.516 13.4977ZM2.096 13.5217L2.912 13.5217L2.912 9.65775L5.084 9.65775L5.084 13.4977L8.768 13.4977L8.768 12.5137L5.9 12.5137L5.9 8.67375L2.096 8.67375L2.096 13.5217ZM13.364 2.86669C11.564 1.76269 9.644 1.10269 7.28 1.10269C4.928 1.10269 2.984 1.76269 1.184 2.86669L1.508 3.55069C3.212 2.51869 5.24 2.01469 7.28 2.01469C9.32 2.01469 11.348 2.51869 13.052 3.55069L13.364 2.86669Z" fill="#7C7B75"/>
<path d="M31.055 179.196C32.637 179.196 33.995 177.852 33.995 175.864C33.995 173.708 32.875 172.644 31.139 172.644C30.313 172.644 29.361 173.148 28.731 173.974L28.773 174.996C29.459 173.974 30.285 173.582 30.943 173.582C32.175 173.582 32.791 174.464 32.791 175.864C32.791 177.25 32.035 178.188 31.055 178.188C29.613 178.188 28.815 176.746 28.815 174.114C28.815 170.754 30.019 169.62 31.461 169.62C32.077 169.62 32.707 169.914 33.099 170.39L33.813 169.606C33.253 169.004 32.469 168.556 31.405 168.556C29.417 168.556 27.611 170.096 27.611 174.114C27.611 177.502 29.081 179.196 31.055 179.196ZM34.9426 181.66C36.2166 181.142 36.9866 180.092 36.9866 178.734C36.9866 177.81 36.5806 177.236 35.9086 177.236C35.3906 177.236 34.9566 177.572 34.9566 178.132C34.9566 178.706 35.3906 179.028 35.8806 179.028C36.1326 179.028 36.3566 178.958 36.5246 178.748L35.9086 177.824L36.0486 178.972C36.0486 179.826 35.5166 180.526 34.6486 180.918L34.9426 181.66ZM40.9951 179.196C42.9271 179.196 44.1731 177.418 44.1731 173.834C44.1731 170.278 42.9271 168.556 40.9951 168.556C39.0351 168.556 37.7891 170.278 37.7891 173.834C37.7891 177.418 39.0351 179.196 40.9951 179.196ZM40.9951 178.16C39.8191 178.16 39.0211 176.858 39.0211 173.834C39.0211 170.852 39.8191 169.578 40.9951 169.578C42.1571 169.578 42.9411 170.852 42.9411 173.834C42.9411 176.858 42.1571 178.16 40.9951 178.16ZM48.0607 179.196C49.9927 179.196 51.2387 177.418 51.2387 173.834C51.2387 170.278 49.9927 168.556 48.0607 168.556C46.1007 168.556 44.8547 170.278 44.8547 173.834C44.8547 177.418 46.1007 179.196 48.0607 179.196ZM48.0607 178.16C46.8847 178.16 46.0867 176.858 46.0867 173.834C46.0867 170.852 46.8847 169.578 48.0607 169.578C49.2227 169.578 50.0067 170.852 50.0067 173.834C50.0067 176.858 49.2227 178.16 48.0607 178.16ZM55.1264 179.196C57.0584 179.196 58.3044 177.418 58.3044 173.834C58.3044 170.278 57.0584 168.556 55.1264 168.556C53.1664 168.556 51.9204 170.278 51.9204 173.834C51.9204 177.418 53.1664 179.196 55.1264 179.196ZM55.1264 178.16C53.9504 178.16 53.1524 176.858 53.1524 173.834C53.1524 170.852 53.9504 169.578 55.1264 169.578C56.2884 169.578 57.0724 170.852 57.0724 173.834C57.0724 176.858 56.2884 178.16 55.1264 178.16Z" fill="#7C7B75"/>
<path d="M27.457 261H33.897V259.908H31.055C30.537 259.908 29.921 259.95 29.375 260.006C31.797 257.724 33.407 255.638 33.407 253.58C33.407 251.746 32.259 250.556 30.425 250.556C29.123 250.556 28.227 251.158 27.387 252.068L28.129 252.782C28.703 252.11 29.431 251.592 30.271 251.592C31.545 251.592 32.147 252.46 32.147 253.636C32.147 255.386 30.677 257.444 27.457 260.258V261ZM34.9426 263.66C36.2166 263.142 36.9866 262.092 36.9866 260.734C36.9866 259.81 36.5806 259.236 35.9086 259.236C35.3906 259.236 34.9566 259.572 34.9566 260.132C34.9566 260.706 35.3906 261.028 35.8806 261.028C36.1326 261.028 36.3566 260.958 36.5246 260.748L35.9086 259.824L36.0486 260.972C36.0486 261.826 35.5166 262.526 34.6486 262.918L34.9426 263.66ZM40.9951 261.196C42.9271 261.196 44.1731 259.418 44.1731 255.834C44.1731 252.278 42.9271 250.556 40.9951 250.556C39.0351 250.556 37.7891 252.278 37.7891 255.834C37.7891 259.418 39.0351 261.196 40.9951 261.196ZM40.9951 260.16C39.8191 260.16 39.0211 258.858 39.0211 255.834C39.0211 252.852 39.8191 251.578 40.9951 251.578C42.1571 251.578 42.9411 252.852 42.9411 255.834C42.9411 258.858 42.1571 260.16 40.9951 260.16ZM48.0607 261.196C49.9927 261.196 51.2387 259.418 51.2387 255.834C51.2387 252.278 49.9927 250.556 48.0607 250.556C46.1007 250.556 44.8547 252.278 44.8547 255.834C44.8547 259.418 46.1007 261.196 48.0607 261.196ZM48.0607 260.16C46.8847 260.16 46.0867 258.858 46.0867 255.834C46.0867 252.852 46.8847 251.578 48.0607 251.578C49.2227 251.578 50.0067 252.852 50.0067 255.834C50.0067 258.858 49.2227 260.16 48.0607 260.16ZM55.1264 261.196C57.0584 261.196 58.3044 259.418 58.3044 255.834C58.3044 252.278 57.0584 250.556 55.1264 250.556C53.1664 250.556 51.9204 252.278 51.9204 255.834C51.9204 259.418 53.1664 261.196 55.1264 261.196ZM55.1264 260.16C53.9504 260.16 53.1524 258.858 53.1524 255.834C53.1524 252.852 53.9504 251.578 55.1264 251.578C56.2884 251.578 57.0724 252.852 57.0724 255.834C57.0724 258.858 56.2884 260.16 55.1264 260.16Z" fill="#7C7B75"/>
<path opacity="0.4" d="M67 8H296" stroke="#DADADA" stroke-width="0.87185" stroke-dasharray="1.48 1.48"/>
<path opacity="0.4" d="M66 50H295" stroke="#DADADA" stroke-width="0.87185" stroke-dasharray="1.48 1.48"/>
<path opacity="0.4" d="M66 91H295" stroke="#DADADA" stroke-width="0.87185" stroke-dasharray="1.48 1.48"/>
<path opacity="0.4" d="M66 130H295" stroke="#DADADA" stroke-width="0.87185" stroke-dasharray="1.48 1.48"/>
<path opacity="0.4" d="M66 172H295" stroke="#DADADA" stroke-width="0.87185" stroke-dasharray="1.48 1.48"/>
<path opacity="0.4" d="M66 213H295" stroke="#DADADA" stroke-width="0.87185" stroke-dasharray="1.48 1.48"/>
<path opacity="0.4" d="M66 255H295" stroke="#DADADA" stroke-width="0.87185" stroke-dasharray="1.48 1.48"/>
<path opacity="0.4" d="M66 288H295" stroke="#DADADA" stroke-width="0.87185" stroke-dasharray="1.48 1.48"/>
<path d="M32.4385 333.928C30.1225 333.928 28.6585 334.684 28.6585 335.932C28.6585 337.168 30.1225 337.912 32.4385 337.912C34.7425 337.912 36.2185 337.168 36.2185 335.932C36.2185 334.684 34.7425 333.928 32.4385 333.928ZM32.4385 334.708C34.1425 334.708 35.2225 335.176 35.2225 335.932C35.2225 336.676 34.1425 337.144 32.4385 337.144C30.7345 337.144 29.6425 336.676 29.6425 335.932C29.6425 335.176 30.7345 334.708 32.4385 334.708ZM28.7425 327.628L28.7425 328.444H35.7265L35.7265 327.628H28.7425ZM27.5785 332.14L27.5785 332.944H37.3705L37.3705 332.14H27.5785ZM31.5985 330.052L31.5985 332.368H32.5825L32.5825 330.052H31.5985ZM35.1505 327.628L35.1505 328.552C35.1505 329.404 35.1505 330.196 34.8505 331.312L35.8345 331.432C36.1225 330.304 36.1225 329.428 36.1225 328.552L36.1225 327.628H35.1505ZM42.8776 333.928C40.5616 333.928 39.0976 334.684 39.0976 335.932C39.0976 337.168 40.5616 337.912 42.8776 337.912C45.1816 337.912 46.6576 337.168 46.6576 335.932C46.6576 334.684 45.1816 333.928 42.8776 333.928ZM42.8776 334.708C44.5816 334.708 45.6616 335.176 45.6616 335.932C45.6616 336.676 44.5816 337.144 42.8776 337.144C41.1736 337.144 40.0816 336.676 40.0816 335.932C40.0816 335.176 41.1736 334.708 42.8776 334.708ZM39.1816 327.628L39.1816 328.444H46.1656L46.1656 327.628H39.1816ZM38.0176 332.14L38.0176 332.944H47.8096L47.8096 332.14H38.0176ZM42.0376 330.052L42.0376 332.368H43.0216L43.0216 330.052H42.0376ZM45.5896 327.628L45.5896 328.552C45.5896 329.404 45.5896 330.196 45.2896 331.312L46.2736 331.432C46.5616 330.304 46.5616 329.428 46.5616 328.552L46.5616 327.628H45.5896ZM56.6406 327.088L56.6406 333.952H57.5886L57.5886 327.088H56.6406ZM54.8766 330.028L54.8766 330.856H56.9286L56.9286 330.028H54.8766ZM54.3246 327.304L54.3246 333.568H55.2606L55.2606 327.304H54.3246ZM48.3966 328.384L48.3966 329.176H53.8926L53.8926 328.384H48.3966ZM51.1566 329.728C49.7886 329.728 48.8406 330.472 48.8406 331.588C48.8406 332.716 49.7886 333.448 51.1566 333.448C52.5126 333.448 53.4606 332.716 53.4606 331.588C53.4606 330.472 52.5126 329.728 51.1566 329.728ZM51.1566 330.472C51.9966 330.472 52.5726 330.916 52.5726 331.588C52.5726 332.272 51.9966 332.704 51.1566 332.704C50.3046 332.704 49.7286 332.272 49.7286 331.588C49.7286 330.916 50.3046 330.472 51.1566 330.472ZM50.6646 327.172L50.6646 328.828H51.6366L51.6366 327.172H50.6646ZM54.0366 334.144C51.7566 334.144 50.4126 334.816 50.4126 336.028C50.4126 337.228 51.7566 337.912 54.0366 337.912C56.2926 337.912 57.6486 337.228 57.6486 336.028C57.6486 334.816 56.2926 334.144 54.0366 334.144ZM54.0366 334.912C55.6806 334.912 56.6646 335.308 56.6646 336.028C56.6646 336.748 55.6806 337.156 54.0366 337.156C52.3686 337.156 51.3966 336.748 51.3966 336.028C51.3966 335.308 52.3686 334.912 54.0366 334.912ZM64.6797 329.896L64.6797 330.724H67.1277L67.1277 329.896H64.6797ZM66.8157 327.088L66.8157 333.556H67.8117L67.8117 327.088H66.8157ZM64.2477 333.88C62.0037 333.88 60.6237 334.636 60.6237 335.908C60.6237 337.192 62.0037 337.924 64.2477 337.924C66.4797 337.924 67.8597 337.192 67.8597 335.908C67.8597 334.636 66.4797 333.88 64.2477 333.88ZM64.2477 334.66C65.8797 334.66 66.8757 335.116 66.8757 335.908C66.8757 336.688 65.8797 337.144 64.2477 337.144C62.6157 337.144 61.6197 336.688 61.6197 335.908C61.6197 335.116 62.6157 334.66 64.2477 334.66ZM61.6557 328.18L61.6557 329.056C61.6557 330.616 60.5397 332.068 58.9317 332.656L59.4477 333.448C61.2477 332.776 62.4717 331.06 62.4717 329.056L62.4717 328.18H61.6557ZM61.8477 328.18L61.8477 329.056C61.8477 330.88 63.0117 332.512 64.7757 333.148L65.2797 332.356C63.7077 331.804 62.6517 330.46 62.6517 329.056L62.6517 328.18H61.8477ZM59.2317 327.88L59.2317 328.696H65.0277L65.0277 327.88H59.2317Z" fill="#7C7B75"/>
<rect x="14" y="327.568" width="9.41053" height="9.41053" fill="#8988AE"/>
<path d="M256.611 327.1L256.611 335.02H257.619L257.619 327.1H256.611ZM250.647 336.88L250.647 337.696H257.943L257.943 336.88H250.647ZM250.647 334.204L250.647 337.156H251.631L251.631 334.204H250.647ZM251.799 327.844C250.179 327.844 248.967 328.948 248.967 330.52C248.967 332.08 250.179 333.196 251.799 333.196C253.419 333.196 254.619 332.08 254.619 330.52C254.619 328.948 253.419 327.844 251.799 327.844ZM251.799 328.708C252.855 328.708 253.659 329.452 253.659 330.52C253.659 331.576 252.855 332.32 251.799 332.32C250.743 332.32 249.939 331.576 249.939 330.52C249.939 329.452 250.743 328.708 251.799 328.708ZM261.926 328.192L261.926 329.068C261.926 330.604 260.81 332.044 259.19 332.62L259.706 333.412C261.518 332.74 262.742 331.048 262.742 329.068L262.742 328.192H261.926ZM262.118 328.192L262.118 329.068C262.118 330.88 263.282 332.512 265.046 333.16L265.55 332.368C263.978 331.816 262.922 330.46 262.922 329.068L262.922 328.192H262.118ZM264.962 329.908L264.962 330.736H267.374L267.374 329.908H264.962ZM259.502 327.832L259.502 328.636H265.298L265.298 327.832H259.502ZM260.846 334.168L260.846 334.984H267.086L267.086 337.936H268.082L268.082 334.168H260.846ZM267.086 327.088L267.086 333.58H268.082L268.082 327.088H267.086ZM272.281 328.636L272.281 330.4C272.281 332.236 270.973 334.3 269.425 335.056L270.001 335.848C271.693 334.984 273.073 332.656 273.073 330.4L273.073 328.636H272.281ZM272.461 328.636L272.461 330.4C272.461 332.548 273.769 334.732 275.485 335.584L276.049 334.792C274.477 334.048 273.253 332.116 273.253 330.4L273.253 328.636H272.461ZM269.809 328.192L269.809 329.032H275.653L275.653 328.192H269.809ZM276.937 327.088L276.937 337.936H277.945L277.945 327.088H276.937ZM277.705 331.468L277.705 332.308H279.721L279.721 331.468H277.705ZM281.34 327.52L281.34 331.852H288.564L288.564 327.52H287.568L287.568 328.876H282.324L282.324 327.52H281.34ZM282.324 329.668H287.568L287.568 331.048H282.324L282.324 329.668ZM280.032 333.004L280.032 333.82H289.836L289.836 333.004H280.032ZM284.448 331.384L284.448 333.364H285.432L285.432 331.384H284.448ZM281.304 336.88L281.304 337.696H288.756L288.756 336.88H281.304ZM281.304 334.696L281.304 337.156H282.3L282.3 334.696H281.304Z" fill="#7C7B75"/>
<rect x="235.147" y="327.568" width="9.41053" height="9.41053" fill="#7BAD82"/>
<path d="M103.947 328.024L103.947 329.968C103.947 331.948 102.711 334.036 101.139 334.828L101.751 335.62C103.467 334.708 104.763 332.368 104.763 329.968L104.763 328.024H103.947ZM104.127 328.024L104.127 329.968C104.127 332.296 105.387 334.516 107.067 335.416L107.679 334.624C106.143 333.856 104.931 331.876 104.931 329.968L104.931 328.024H104.127ZM108.627 327.088L108.627 337.936H109.635L109.635 327.088H108.627ZM109.395 331.48L109.395 332.32H111.411L111.411 331.48H109.395ZM114.818 333.592L114.818 335.38H115.826L115.826 333.592H114.818ZM119.57 327.088L119.57 337.936H120.566L120.566 327.088H119.57ZM111.926 335.872C113.93 335.872 116.546 335.848 118.958 335.44L118.886 334.708C116.546 335.008 113.846 335.032 111.794 335.044L111.926 335.872ZM112.022 328.408L112.022 329.212H118.61L118.61 328.408H112.022ZM115.31 329.836C113.762 329.836 112.706 330.628 112.706 331.84C112.706 333.064 113.762 333.844 115.31 333.844C116.87 333.844 117.926 333.064 117.926 331.84C117.926 330.628 116.87 329.836 115.31 329.836ZM115.31 330.604C116.294 330.604 116.978 331.096 116.978 331.84C116.978 332.584 116.294 333.076 115.31 333.076C114.338 333.076 113.654 332.584 113.654 331.84C113.654 331.096 114.338 330.604 115.31 330.604ZM114.818 327.088L114.818 328.852H115.814L115.814 327.088H114.818ZM130.405 327.088L130.405 337.936H131.365L131.365 327.088H130.405ZM128.653 331.444L128.653 332.26H130.729L130.729 331.444H128.653ZM125.845 328.48L125.845 328.672C125.845 331.18 124.885 333.376 122.161 334.9L122.749 335.608C125.845 333.868 126.805 331.276 126.805 328.48H125.845ZM122.581 328.48L122.581 329.308H126.181L126.181 328.48H122.581ZM127.993 327.376L127.993 337.408H128.941L128.941 327.376H127.993ZM133.057 327.532L133.057 332.272H138.073L138.073 327.532H137.101L137.101 329.092H134.041L134.041 327.532H133.057ZM134.041 329.872H137.101L137.101 331.468H134.041L134.041 329.872ZM140.029 327.088L140.029 332.68H141.025L141.025 327.088H140.029ZM140.593 329.416L140.593 330.244H142.621L142.621 329.416H140.593ZM134.137 333.208L134.137 334H140.053L140.053 335.092H134.161L134.161 337.468H135.145L135.145 335.836H141.025L141.025 333.208H134.137ZM134.161 337.024L134.161 337.816H141.421L141.421 337.024H134.161Z" fill="#7C7B75"/>
<rect x="87.7158" y="327.568" width="9.41053" height="9.41053" fill="#DFA84B"/>
<path d="M100.463 345.1L100.463 353.02H101.471L101.471 345.1H100.463ZM94.4985 354.88L94.4985 355.696H101.795L101.795 354.88H94.4985ZM94.4985 352.204L94.4985 355.156H95.4825L95.4825 352.204H94.4985ZM95.6505 345.844C94.0305 345.844 92.8185 346.948 92.8185 348.52C92.8185 350.08 94.0305 351.196 95.6505 351.196C97.2705 351.196 98.4705 350.08 98.4705 348.52C98.4705 346.948 97.2705 345.844 95.6505 345.844ZM95.6505 346.708C96.7065 346.708 97.5105 347.452 97.5105 348.52C97.5105 349.576 96.7065 350.32 95.6505 350.32C94.5945 350.32 93.7905 349.576 93.7905 348.52C93.7905 347.452 94.5945 346.708 95.6505 346.708ZM103.018 353.716L103.018 354.544H112.846L112.846 353.716H103.018ZM103.87 346.168L103.87 346.984H111.922L111.922 346.168H103.87ZM103.894 350.752L103.894 351.568H111.91L111.91 350.752H103.894ZM105.562 346.924L105.562 350.836H106.558L106.558 346.924H105.562ZM109.258 346.924L109.258 350.836H110.242L110.242 346.924H109.258ZM120.801 345.076L120.801 355.948H121.797L121.797 345.076H120.801ZM121.557 349.396L121.557 350.236H123.573L123.573 349.396H121.557ZM113.889 352.504L113.889 353.332H114.753C116.829 353.332 118.269 353.248 119.961 352.948L119.853 352.12C118.209 352.432 116.793 352.504 114.753 352.504H113.889ZM113.865 346.096L113.865 346.912H117.789L117.789 349.168H113.889L113.889 352.84H114.873L114.873 349.984H118.773L118.773 346.096H113.865ZM128.288 349.3L128.288 350.128H130.34L130.34 349.3H128.288ZM132.152 345.088L132.152 355.936H133.112L133.112 345.088H132.152ZM130.004 345.316L130.004 355.396H130.952L130.952 345.316H130.004ZM126.332 345.988C124.928 345.988 124.028 347.44 124.028 349.768C124.028 352.096 124.928 353.548 126.332 353.548C127.736 353.548 128.648 352.096 128.648 349.768C128.648 347.44 127.736 345.988 126.332 345.988ZM126.332 346.912C127.196 346.912 127.736 348.016 127.736 349.768C127.736 351.52 127.196 352.624 126.332 352.624C125.48 352.624 124.94 351.52 124.94 349.768C124.94 348.016 125.48 346.912 126.332 346.912ZM142.279 345.088L142.279 355.96H143.275L143.275 345.088H142.279ZM138.943 348.664L138.943 349.48H142.603L142.603 348.664H138.943ZM134.923 346.3L134.923 353.02H135.907L135.907 346.3H134.923ZM134.923 352.492L134.923 353.332H135.763C137.479 353.332 139.003 353.224 140.731 352.888L140.611 352.048C138.943 352.396 137.443 352.492 135.763 352.492H134.923ZM147.642 346.636L147.642 348.4C147.642 350.272 146.334 352.312 144.762 353.056L145.338 353.848C147.066 352.996 148.446 350.692 148.446 348.4L148.446 346.636H147.642ZM147.834 346.636L147.834 348.4C147.834 350.656 149.226 352.768 150.978 353.584L151.542 352.792C149.946 352.108 148.638 350.236 148.638 348.4L148.638 346.636H147.834ZM145.122 346.192L145.122 347.032H151.182L151.182 346.192H145.122ZM152.646 345.088L152.646 355.936H153.642L153.642 345.088H152.646ZM162.617 345.088L162.617 353.584H163.613L163.613 345.088H162.617ZM163.193 348.868L163.193 349.696H165.197L165.197 348.868H163.193ZM156.749 354.88L156.749 355.696H163.997L163.997 354.88H156.749ZM156.749 353.02L156.749 355.132H157.745L157.745 353.02H156.749ZM158.045 350.392L158.045 351.868H159.041L159.041 350.392H158.045ZM155.273 352.336C157.157 352.324 159.761 352.276 162.053 351.856L161.969 351.148C159.737 351.496 157.061 351.532 155.141 351.532L155.273 352.336ZM155.417 346.144L155.417 346.9H161.645L161.645 346.144H155.417ZM158.537 347.344C157.013 347.344 156.005 347.98 156.005 349.012C156.005 350.056 157.013 350.692 158.537 350.692C160.061 350.692 161.057 350.056 161.057 349.012C161.057 347.98 160.061 347.344 158.537 347.344ZM158.537 348.052C159.497 348.052 160.121 348.424 160.121 349.012C160.121 349.612 159.497 349.972 158.537 349.972C157.565 349.972 156.941 349.612 156.941 349.012C156.941 348.424 157.565 348.052 158.537 348.052ZM158.045 345.04L158.045 346.48H159.041L159.041 345.04H158.045ZM170.836 347.08L170.836 347.896H173.74L173.74 347.08H170.836ZM170.74 349.336L170.74 350.152H173.668L173.668 349.336H170.74ZM173.572 345.088L173.572 351.592H174.568L174.568 345.088H173.572ZM170.176 345.904L170.176 346.336C170.176 348.388 168.556 349.984 165.784 350.788L166.192 351.592C169.312 350.656 171.244 348.7 171.244 345.904H170.176ZM166.348 345.904L166.348 346.72H170.86L170.86 345.904H166.348ZM171.04 351.712C168.844 351.712 167.452 352.492 167.452 353.8C167.452 355.108 168.844 355.888 171.04 355.888C173.236 355.888 174.628 355.108 174.628 353.8C174.628 352.492 173.236 351.712 171.04 351.712ZM171.04 352.492C172.636 352.492 173.656 352.984 173.656 353.8C173.656 354.616 172.636 355.096 171.04 355.096C169.456 355.096 168.436 354.616 168.436 353.8C168.436 352.984 169.456 352.492 171.04 352.492Z" fill="#7C7B75"/>
<rect x="79" y="345.568" width="9.41053" height="9.41053" fill="#01AAAE"/>
<path d="M177.674 327.748L177.674 329.08C177.674 330.76 176.618 332.224 174.962 332.812L175.49 333.604C177.314 332.896 178.49 331.204 178.49 329.08L178.49 327.748H177.674ZM177.842 327.748L177.842 329.116C177.842 331.024 179.042 332.68 180.83 333.328L181.322 332.548C179.738 331.984 178.658 330.592 178.658 329.116L178.658 327.748H177.842ZM182.426 327.076L182.426 335.092H183.422L183.422 327.076H182.426ZM183.11 330.412L183.11 331.24H185.03L185.03 330.412H183.11ZM176.69 336.88L176.69 337.696H183.902L183.902 336.88H176.69ZM176.69 334.336L176.69 337.276H177.686L177.686 334.336H176.69ZM190.897 329.668L190.897 330.496H193.813L193.813 329.668H190.897ZM188.401 327.58C186.781 327.58 185.605 328.612 185.605 330.1C185.605 331.588 186.781 332.608 188.401 332.608C190.021 332.608 191.197 331.588 191.197 330.1C191.197 328.612 190.021 327.58 188.401 327.58ZM188.401 328.42C189.469 328.42 190.237 329.104 190.237 330.1C190.237 331.084 189.469 331.78 188.401 331.78C187.333 331.78 186.565 331.084 186.565 330.1C186.565 329.104 187.333 328.42 188.401 328.42ZM193.369 327.088L193.369 332.908H194.365L194.365 327.088H193.369ZM187.417 333.448L187.417 337.792H194.365L194.365 333.448H193.381L193.381 334.816H188.413L188.413 333.448H187.417ZM188.413 335.608H193.381L193.381 336.988H188.413L188.413 335.608ZM196.92 328.168L196.92 328.996H203.904L203.904 328.168H196.92ZM195.888 335.596L195.888 336.424H205.692L205.692 335.596H195.888ZM199.692 331.72L199.692 336.004H200.688L200.688 331.72H199.692ZM203.532 328.168L203.532 329.248C203.532 330.544 203.532 332.068 203.124 334.144L204.12 334.276C204.516 332.08 204.516 330.592 204.516 329.248L204.516 328.168H203.532ZM208.739 330.76L208.739 332.812H209.723L209.723 330.76H208.739ZM212.723 330.76L212.723 332.812H213.707L213.707 330.76H212.723ZM206.315 332.452L206.315 333.256H216.119L216.119 332.452H206.315ZM211.211 334.072C208.883 334.072 207.491 334.756 207.491 335.992C207.491 337.228 208.883 337.924 211.211 337.924C213.539 337.924 214.931 337.228 214.931 335.992C214.931 334.756 213.539 334.072 211.211 334.072ZM211.211 334.84C212.915 334.84 213.923 335.26 213.923 335.992C213.923 336.736 212.915 337.144 211.211 337.144C209.519 337.144 208.499 336.736 208.499 335.992C208.499 335.26 209.519 334.84 211.211 334.84ZM211.223 327.28C208.859 327.28 207.407 328.036 207.407 329.308C207.407 330.568 208.859 331.312 211.223 331.312C213.575 331.312 215.039 330.568 215.039 329.308C215.039 328.036 213.575 327.28 211.223 327.28ZM211.223 328.06C212.951 328.06 214.019 328.516 214.019 329.308C214.019 330.088 212.951 330.544 211.223 330.544C209.495 330.544 208.427 330.088 208.427 329.308C208.427 328.516 209.495 328.06 211.223 328.06Z" fill="#7C7B75"/>
<rect x="161.432" y="327.568" width="9.41053" height="9.41053" fill="#E67370"/>
<path d="M214.475 345.088L214.475 355.936H215.471L215.471 345.088H214.475ZM211.295 346.252L211.295 346.42C211.295 349.3 209.843 351.604 206.711 353.116L207.239 353.92C210.863 352.144 212.279 349.396 212.279 346.252H211.295ZM207.203 346.252L207.203 347.068H211.727L211.727 346.252H207.203ZM217.474 352.504L217.474 353.332H218.326C220.354 353.332 221.77 353.272 223.45 352.984L223.342 352.168C221.71 352.456 220.33 352.504 218.326 352.504H217.474ZM217.474 346.072L217.474 352.792H218.47L218.47 346.9H222.526L222.526 346.072H217.474ZM218.218 349.108L218.218 349.912H222.286L222.286 349.108H218.218ZM224.35 345.088L224.35 355.936H225.358L225.358 345.088H224.35ZM225.118 349.444L225.118 350.284H227.134L227.134 349.444H225.118Z" fill="#7C7B75"/>
<rect x="193" y="345.568" width="9.41053" height="9.41053" fill="#A7A9AC"/>
<path d="M122.616 308.72H129.056V307.628H126.214C125.696 307.628 125.08 307.67 124.534 307.726C126.956 305.444 128.566 303.358 128.566 301.3C128.566 299.466 127.418 298.276 125.584 298.276C124.282 298.276 123.386 298.878 122.546 299.788L123.288 300.502C123.862 299.83 124.59 299.312 125.43 299.312C126.704 299.312 127.306 300.18 127.306 301.356C127.306 303.106 125.836 305.164 122.616 307.978V308.72ZM132.958 308.916C134.89 308.916 136.136 307.138 136.136 303.554C136.136 299.998 134.89 298.276 132.958 298.276C130.998 298.276 129.752 299.998 129.752 303.554C129.752 307.138 130.998 308.916 132.958 308.916ZM132.958 307.88C131.782 307.88 130.984 306.578 130.984 303.554C130.984 300.572 131.782 299.298 132.958 299.298C134.12 299.298 134.904 300.572 134.904 303.554C134.904 306.578 134.12 307.88 132.958 307.88ZM137.363 308.72H142.991V307.656H140.919V298.458H139.939C139.393 298.794 138.735 299.032 137.811 299.186V300.012H139.645V307.656H137.363V308.72ZM147.411 308.916C148.993 308.916 150.351 307.572 150.351 305.584C150.351 303.428 149.231 302.364 147.495 302.364C146.669 302.364 145.717 302.868 145.087 303.694L145.129 304.716C145.815 303.694 146.641 303.302 147.299 303.302C148.531 303.302 149.147 304.184 149.147 305.584C149.147 306.97 148.391 307.908 147.411 307.908C145.969 307.908 145.171 306.466 145.171 303.834C145.171 300.474 146.375 299.34 147.817 299.34C148.433 299.34 149.063 299.634 149.455 300.11L150.169 299.326C149.609 298.724 148.825 298.276 147.761 298.276C145.773 298.276 143.967 299.816 143.967 303.834C143.967 307.222 145.437 308.916 147.411 308.916Z" fill="#7C7B75"/>
<rect x="129" y="48.5376" width="17" height="239.991" fill="#01AAAE"/>
<rect x="129" y="57.5261" width="17" height="231.003" fill="#8988AE"/>
<rect x="129" y="177.072" width="17" height="93.4798" fill="#DFA84B"/>
<rect x="129" y="146.511" width="17" height="30.5607" fill="#E67370"/>
<rect x="129" y="57.5261" width="17" height="88.9855" fill="#7BAD82"/>
<path d="M74.616 307.821H81.056V306.729H78.214C77.696 306.729 77.08 306.771 76.534 306.827C78.956 304.545 80.566 302.459 80.566 300.401C80.566 298.567 79.418 297.377 77.584 297.377C76.282 297.377 75.386 297.979 74.546 298.889L75.288 299.603C75.862 298.931 76.59 298.413 77.43 298.413C78.704 298.413 79.306 299.281 79.306 300.457C79.306 302.207 77.836 304.265 74.616 307.079V307.821ZM84.9576 308.017C86.8896 308.017 88.1356 306.239 88.1356 302.655C88.1356 299.099 86.8896 297.377 84.9576 297.377C82.9976 297.377 81.7516 299.099 81.7516 302.655C81.7516 306.239 82.9976 308.017 84.9576 308.017ZM84.9576 306.981C83.7816 306.981 82.9836 305.679 82.9836 302.655C82.9836 299.673 83.7816 298.399 84.9576 298.399C86.1196 298.399 86.9036 299.673 86.9036 302.655C86.9036 305.679 86.1196 306.981 84.9576 306.981ZM89.3633 307.821H94.9913V306.757H92.9193V297.559H91.9393C91.3933 297.895 90.7353 298.133 89.8113 298.287V299.113H91.6453V306.757H89.3633V307.821ZM98.8509 308.017C100.573 308.017 102.211 306.729 102.211 304.489C102.211 302.221 100.825 301.213 99.1169 301.213C98.5009 301.213 98.0389 301.367 97.5769 301.619L97.8429 298.651H101.721V297.559H96.7229L96.4009 302.361L97.0869 302.795C97.6749 302.403 98.1089 302.179 98.7949 302.179C100.069 302.179 100.909 303.061 100.909 304.531C100.909 306.015 99.9429 306.953 98.7249 306.953C97.5489 306.953 96.7929 306.407 96.2189 305.805L95.5749 306.645C96.2749 307.345 97.2549 308.017 98.8509 308.017Z" fill="#7C7B75"/>
<rect x="81" y="112.355" width="17" height="176.173" fill="#C4C4C4"/>
<rect x="81" y="106.063" width="17" height="182.465" fill="#01AAAE"/>
<rect x="81" y="112.355" width="17" height="176.173" fill="#8988AE"/>
<rect x="81" y="204.037" width="17" height="71.0087" fill="#DFA84B"/>
<rect x="81" y="179.769" width="17" height="24.2688" fill="#E67370"/>
<rect x="81" y="112.355" width="17" height="67.4133" fill="#7BAD82"/>
<path d="M169.616 308.719H176.056V307.627H173.214C172.696 307.627 172.08 307.669 171.534 307.725C173.956 305.443 175.566 303.357 175.566 301.299C175.566 299.465 174.418 298.275 172.584 298.275C171.282 298.275 170.386 298.877 169.546 299.787L170.288 300.501C170.862 299.829 171.59 299.311 172.43 299.311C173.704 299.311 174.306 300.179 174.306 301.355C174.306 303.105 172.836 305.163 169.616 307.977V308.719ZM179.958 308.915C181.89 308.915 183.136 307.137 183.136 303.553C183.136 299.997 181.89 298.275 179.958 298.275C177.998 298.275 176.752 299.997 176.752 303.553C176.752 307.137 177.998 308.915 179.958 308.915ZM179.958 307.879C178.782 307.879 177.984 306.577 177.984 303.553C177.984 300.571 178.782 299.297 179.958 299.297C181.12 299.297 181.904 300.571 181.904 303.553C181.904 306.577 181.12 307.879 179.958 307.879ZM184.363 308.719H189.991V307.655H187.919V298.457H186.939C186.393 298.793 185.735 299.031 184.811 299.185V300.011H186.645V307.655H184.363V308.719ZM192.955 308.719H194.285C194.453 304.715 194.887 302.321 197.295 299.227V298.457H190.883V299.549H195.853C193.837 302.349 193.137 304.841 192.955 308.719Z" fill="#7C7B75"/>
<rect x="176" y="57.5259" width="17" height="231.003" fill="#8988AE"/>
<rect x="176" y="195.049" width="17" height="42.2457" fill="#DFA84B"/>
<rect x="176" y="112.355" width="17" height="82.6936" fill="#E67370"/>
<rect x="176" y="70.1096" width="17" height="42.2457" fill="#7BAD82"/>
<rect x="176" y="57.5259" width="17" height="12.5838" fill="#01AAAE"/>
<path d="M258.616 308.72H265.056V307.628H262.214C261.696 307.628 261.08 307.67 260.534 307.726C262.956 305.444 264.566 303.358 264.566 301.3C264.566 299.466 263.418 298.276 261.584 298.276C260.282 298.276 259.386 298.878 258.546 299.788L259.288 300.502C259.862 299.83 260.59 299.312 261.43 299.312C262.704 299.312 263.306 300.18 263.306 301.356C263.306 303.106 261.836 305.164 258.616 307.978V308.72ZM268.958 308.916C270.89 308.916 272.136 307.138 272.136 303.554C272.136 299.998 270.89 298.276 268.958 298.276C266.998 298.276 265.752 299.998 265.752 303.554C265.752 307.138 266.998 308.916 268.958 308.916ZM268.958 307.88C267.782 307.88 266.984 306.578 266.984 303.554C266.984 300.572 267.782 299.298 268.958 299.298C270.12 299.298 270.904 300.572 270.904 303.554C270.904 306.578 270.12 307.88 268.958 307.88ZM273.363 308.72H278.991V307.656H276.919V298.458H275.939C275.393 298.794 274.735 299.032 273.811 299.186V300.012H275.645V307.656H273.363V308.72ZM282.473 308.916C284.405 308.916 286.197 307.32 286.197 303.148C286.197 299.886 284.727 298.276 282.753 298.276C281.157 298.276 279.813 299.62 279.813 301.608C279.813 303.736 280.919 304.828 282.641 304.828C283.523 304.828 284.433 304.296 285.077 303.484L285.007 302.462C284.335 303.484 283.537 303.89 282.851 303.89C281.633 303.89 281.017 302.98 281.017 301.608C281.017 300.194 281.773 299.27 282.753 299.27C284.195 299.27 284.993 300.628 284.993 303.148C284.993 306.662 283.803 307.852 282.431 307.852C281.773 307.852 281.143 307.558 280.709 307.054L279.995 307.866C280.569 308.468 281.353 308.916 282.473 308.916Z" fill="#7C7B75"/>
<rect x="265" y="63.8179" width="17" height="224.711" fill="#A7A9AC"/>
<rect x="265" y="79.0984" width="17" height="209.431" fill="#01AAAE"/>
<rect x="265" y="112.355" width="17" height="176.173" fill="#7BAD82"/>
<rect x="265" y="177.072" width="17" height="17.9769" fill="#E67370"/>
<rect x="265" y="195.049" width="17" height="93.4798" fill="#DFA84B"/>
<rect x="265" y="266.058" width="17" height="22.4711" fill="#8988AE"/>
<path d="M210.616 308.72H217.056V307.628H214.214C213.696 307.628 213.08 307.67 212.534 307.726C214.956 305.444 216.566 303.358 216.566 301.3C216.566 299.466 215.418 298.276 213.584 298.276C212.282 298.276 211.386 298.878 210.546 299.788L211.288 300.502C211.862 299.83 212.59 299.312 213.43 299.312C214.704 299.312 215.306 300.18 215.306 301.356C215.306 303.106 213.836 305.164 210.616 307.978V308.72ZM220.958 308.916C222.89 308.916 224.136 307.138 224.136 303.554C224.136 299.998 222.89 298.276 220.958 298.276C218.998 298.276 217.752 299.998 217.752 303.554C217.752 307.138 218.998 308.916 220.958 308.916ZM220.958 307.88C219.782 307.88 218.984 306.578 218.984 303.554C218.984 300.572 219.782 299.298 220.958 299.298C222.12 299.298 222.904 300.572 222.904 303.554C222.904 306.578 222.12 307.88 220.958 307.88ZM225.363 308.72H230.991V307.656H228.919V298.458H227.939C227.393 298.794 226.735 299.032 225.811 299.186V300.012H227.645V307.656H225.363V308.72ZM235.103 308.916C237.021 308.916 238.323 307.754 238.323 306.256C238.323 304.856 237.483 304.072 236.587 303.554V303.484C237.203 303.008 237.959 302.098 237.959 301.006C237.959 299.438 236.895 298.318 235.145 298.318C233.535 298.318 232.317 299.354 232.317 300.908C232.317 301.986 232.961 302.77 233.717 303.288V303.344C232.779 303.848 231.827 304.8 231.827 306.186C231.827 307.768 233.213 308.916 235.103 308.916ZM235.803 303.162C234.599 302.686 233.493 302.14 233.493 300.908C233.493 299.928 234.179 299.256 235.117 299.256C236.223 299.256 236.867 300.068 236.867 301.076C236.867 301.846 236.503 302.546 235.803 303.162ZM235.131 307.95C233.899 307.95 232.975 307.152 232.975 306.06C232.975 305.08 233.549 304.268 234.389 303.736C235.831 304.324 237.091 304.842 237.091 306.214C237.091 307.236 236.307 307.95 235.131 307.95Z" fill="#7C7B75"/>
<rect x="218" y="146.512" width="17" height="142.017" fill="#01AAAE"/>
<rect x="218" y="155.5" width="17" height="133.029" fill="#7BAD82"/>
<rect x="218" y="177.073" width="17" height="17.9769" fill="#E67370"/>
<rect x="218" y="195.049" width="17" height="84.4913" fill="#DFA84B"/>
<rect x="218" y="255.272" width="17" height="33.2572" fill="#8988AE"/>
</svg>
