<svg width="358" height="327" viewBox="0 0 358 327" fill="none" xmlns="http://www.w3.org/2000/svg">
<path d="M27.995 1.1L27.995 9.236H28.991L28.991 1.1L27.995 1.1ZM28.679 4.652L28.679 5.492H30.599L30.599 4.652H28.679ZM20.603 2.408L20.603 3.212L27.011 3.212L27.011 2.408L20.603 2.408ZM23.807 3.812C22.259 3.812 21.203 4.616 21.203 5.84C21.203 7.052 22.259 7.856 23.807 7.856C25.343 7.856 26.399 7.052 26.399 5.84C26.399 4.616 25.343 3.812 23.807 3.812ZM23.807 4.592C24.779 4.592 25.451 5.084 25.451 5.84C25.451 6.584 24.779 7.076 23.807 7.076C22.823 7.076 22.151 6.584 22.151 5.84C22.151 5.084 22.823 4.592 23.807 4.592ZM23.303 1.088L23.303 2.828L24.299 2.828L24.299 1.088L23.303 1.088ZM22.235 10.88L22.235 11.696L29.483 11.696L29.483 10.88L22.235 10.88ZM22.235 8.588L22.235 11.228H23.231L23.231 8.588H22.235ZM32.2661 1.592L32.2661 2.408L39.2501 2.408L39.2501 1.592L32.2661 1.592ZM31.0181 5.48L31.0181 6.296L40.8461 6.296L40.8461 5.48L31.0181 5.48ZM35.4221 6.032L35.4221 8.588H36.4061L36.4061 6.032H35.4221ZM38.6021 1.592L38.6021 2.396C38.6021 3.272 38.6021 4.304 38.2421 5.756L39.2141 5.876C39.5741 4.388 39.5741 3.296 39.5741 2.396L39.5741 1.592L38.6021 1.592ZM32.0381 8.264L32.0381 9.08L38.6501 9.08L38.6501 11.936H39.6461L39.6461 8.264L32.0381 8.264Z" fill="white"/>
<rect x="7.5" y="2.06836" width="8.41053" height="8.41053" fill="#61BBFF" fill-opacity="0.2" stroke="#64E2FF"/>
<path opacity="0.2" d="M236.382 141.958L184.799 117.556L106.653 122.807L136.614 195.085L157 243.887L221.247 258.096L265.726 200.953L236.382 141.958Z" fill="#FFD664"/>
<path opacity="0.7" d="M193.736 165.619C193.725 165.803 193.725 165.987 193.725 166.16V171.036H192.06V172.073H196.417V171.036H194.914V164.063H193.941L191.779 165.911L192.439 166.711L193.736 165.619ZM203.3 168.084C203.3 166.247 202.641 163.998 200.381 163.998C198.154 163.998 197.473 166.182 197.473 168.084C197.473 169.987 198.154 172.16 200.381 172.16C202.608 172.16 203.3 169.987 203.3 168.084ZM202.068 168.084C202.068 169.198 201.873 171.165 200.381 171.165C198.9 171.165 198.695 169.198 198.695 168.084C198.695 166.971 198.889 165.003 200.381 165.003C201.873 165.003 202.068 166.971 202.068 168.084Z" fill="white"/>
<path opacity="0.7" d="M196.644 154.288H193.876C193.53 154.288 193.174 154.353 192.839 154.44L194.871 152.386C195.671 151.586 196.503 150.731 196.503 149.521C196.503 148.072 195.401 147.272 194.06 147.272C192.579 147.272 191.585 148.126 191.379 149.553L192.568 149.769C192.503 148.915 193.141 148.288 193.995 148.288C195.53 148.288 195.466 149.802 194.925 150.775C194.644 151.218 194.298 151.586 193.93 151.953L191.239 154.656V155.348H196.644V154.288ZM203.3 151.358C203.3 149.521 202.641 147.272 200.381 147.272C198.154 147.272 197.473 149.456 197.473 151.358C197.473 153.261 198.154 155.434 200.381 155.434C202.608 155.434 203.3 153.261 203.3 151.358ZM202.068 151.358C202.068 152.472 201.873 154.44 200.381 154.44C198.9 154.44 198.695 152.472 198.695 151.358C198.695 150.245 198.889 148.277 200.381 148.277C201.873 148.277 202.068 150.245 202.068 151.358Z" fill="white"/>
<path opacity="0.7" d="M191.228 136.612C191.66 138.061 192.514 138.721 193.974 138.721C195.455 138.721 196.676 137.823 196.676 136.299C196.676 135.294 196.136 134.688 195.184 134.418C196.103 134.126 196.503 133.521 196.503 132.602C196.503 131.25 195.347 130.548 194.136 130.548C192.655 130.548 191.671 131.423 191.466 132.84L192.644 133.045C192.579 132.191 193.249 131.564 194.071 131.564C194.86 131.564 195.347 132.04 195.347 132.807C195.347 133.867 194.449 134.104 193.552 134.104V134.969C194.525 134.969 195.487 135.11 195.487 136.331C195.487 137.164 194.774 137.704 193.963 137.704C193.141 137.704 192.374 137.002 192.276 136.18L191.228 136.612ZM203.3 134.634C203.3 132.796 202.641 130.548 200.381 130.548C198.154 130.548 197.473 132.731 197.473 134.634C197.473 136.537 198.154 138.71 200.381 138.71C202.608 138.71 203.3 136.537 203.3 134.634ZM202.068 134.634C202.068 135.748 201.873 137.715 200.381 137.715C198.9 137.715 198.695 135.748 198.695 134.634C198.695 133.521 198.889 131.553 200.381 131.553C201.873 131.553 202.068 133.521 202.068 134.634Z" fill="white"/>
<path opacity="0.7" d="M196.979 118.948H195.876V113.899H194.763L190.925 119.012V119.877H194.839V121.899H195.876V119.877H196.979V118.948ZM192.212 118.948L194.893 115.261C194.86 115.542 194.839 115.791 194.839 116.029V118.948H192.212ZM203.3 117.91C203.3 116.072 202.641 113.823 200.381 113.823C198.154 113.823 197.473 116.007 197.473 117.91C197.473 119.812 198.154 121.985 200.381 121.985C202.608 121.985 203.3 119.812 203.3 117.91ZM202.068 117.91C202.068 119.023 201.873 120.991 200.381 120.991C198.9 120.991 198.695 119.023 198.695 117.91C198.695 116.796 198.889 114.829 200.381 114.829C201.873 114.829 202.068 116.796 202.068 117.91Z" fill="white"/>
<path opacity="0.7" d="M191.347 104.364C191.476 104.483 191.617 104.591 191.79 104.699C192.298 105.077 193.012 105.261 193.628 105.261C195.336 105.261 196.557 104.126 196.557 102.439C196.557 100.861 195.455 100.018 193.995 100.018C193.649 100.018 193.282 100.061 192.936 100.137L193.26 98.2773H196.298V97.1854H192.428L191.779 101.002L192.514 101.207C192.914 101.088 193.325 101.002 193.747 101.002C194.741 101.002 195.368 101.521 195.368 102.504C195.368 103.488 194.752 104.245 193.703 104.245C193.066 104.245 192.417 103.931 191.963 103.499L191.347 104.364ZM203.3 101.185C203.3 99.3476 202.641 97.0989 200.381 97.0989C198.154 97.0989 197.473 99.2827 197.473 101.185C197.473 103.088 198.154 105.261 200.381 105.261C202.608 105.261 203.3 103.088 203.3 101.185ZM202.068 101.185C202.068 102.299 201.873 104.266 200.381 104.266C198.9 104.266 198.695 102.299 198.695 101.185C198.695 100.072 198.889 98.1043 200.381 98.1043C201.873 98.1043 202.068 100.072 202.068 101.185Z" fill="white"/>
<path opacity="0.7" d="M194.384 80.4611L192.201 83.38C191.703 84.0502 191.249 84.9043 191.249 85.7583C191.249 87.4556 192.298 88.5367 193.952 88.5367C195.498 88.5367 196.741 87.4448 196.741 85.8881C196.741 84.5043 195.822 83.4989 194.374 83.4989C193.952 83.4989 193.53 83.607 193.163 83.8124L195.866 80.4611H194.384ZM193.93 87.5529C192.936 87.5529 192.395 86.8826 192.395 85.9529C192.395 85.0664 193.066 84.407 193.974 84.407C194.925 84.407 195.552 85.0232 195.552 85.9745C195.552 86.9151 194.828 87.5529 193.93 87.5529ZM203.3 84.461C203.3 82.6232 202.641 80.3746 200.381 80.3746C198.154 80.3746 197.473 82.5583 197.473 84.461C197.473 86.3637 198.154 88.5367 200.381 88.5367C202.608 88.5367 203.3 86.3637 203.3 84.461ZM202.068 84.461C202.068 85.5745 201.873 87.5421 200.381 87.5421C198.9 87.5421 198.695 85.5745 198.695 84.461C198.695 83.3475 198.889 81.38 200.381 81.38C201.873 81.38 202.068 83.3475 202.068 84.461Z" fill="white"/>
<path opacity="0.7" d="M196.73 63.7367H191.249V64.8286H195.52C195.368 65.0016 195.239 65.1961 195.141 65.4016L191.92 71.7258H193.217L196.73 64.5799V63.7367ZM203.3 67.7367C203.3 65.8988 202.641 63.6502 200.381 63.6502C198.154 63.6502 197.473 65.834 197.473 67.7367C197.473 69.6394 198.154 71.8123 200.381 71.8123C202.608 71.8123 203.3 69.6394 203.3 67.7367ZM202.068 67.7367C202.068 68.8502 201.873 70.8177 200.381 70.8177C198.9 70.8177 198.695 68.8502 198.695 67.7367C198.695 66.6232 198.889 64.6556 200.381 64.6556C201.873 64.6556 202.068 66.6232 202.068 67.7367Z" fill="white"/>
<path opacity="0.7" d="M195.217 50.8271C196.006 50.5244 196.417 49.8865 196.417 49.0433C196.417 47.6919 195.228 46.9244 193.952 46.9244C192.676 46.9244 191.487 47.6919 191.487 49.0433C191.487 49.8865 191.898 50.5244 192.698 50.8271C191.747 51.1189 191.217 51.7676 191.217 52.773C191.217 54.3297 192.482 55.0865 193.952 55.0865C195.357 55.0865 196.687 54.3622 196.687 52.773C196.687 51.7784 196.157 51.1189 195.217 50.8271ZM193.952 47.8325C194.687 47.8325 195.26 48.2757 195.26 49.0649C195.26 49.8973 194.752 50.3838 193.952 50.3838C193.141 50.3838 192.644 49.9081 192.644 49.0649C192.644 48.2973 193.185 47.8325 193.952 47.8325ZM193.952 54.146C193.076 54.146 192.439 53.627 192.439 52.7514C192.439 51.8 193.087 51.3352 193.952 51.3352C194.817 51.3352 195.466 51.8108 195.466 52.7514C195.466 53.6703 194.784 54.146 193.952 54.146ZM203.3 51.0108C203.3 49.173 202.641 46.9244 200.381 46.9244C198.154 46.9244 197.473 49.1082 197.473 51.0108C197.473 52.9135 198.154 55.0865 200.381 55.0865C202.608 55.0865 203.3 52.9135 203.3 51.0108ZM202.068 51.0108C202.068 52.1243 201.873 54.0919 200.381 54.0919C198.9 54.0919 198.695 52.1243 198.695 51.0108C198.695 49.8973 198.889 47.9298 200.381 47.9298C201.873 47.9298 202.068 49.8973 202.068 51.0108Z" fill="white"/>
<g opacity="0.3">
<g opacity="0.89">
<path d="M184.799 315.856C257.811 315.856 316.999 256.668 316.999 183.656C316.999 110.644 257.811 51.4565 184.799 51.4565C111.787 51.4565 52.5996 110.644 52.5996 183.656C52.5996 256.668 111.787 315.856 184.799 315.856Z" stroke="white" stroke-width="1.23551" stroke-miterlimit="10"/>
<g opacity="0.9">
<g opacity="0.3">
<path opacity="0.3" d="M184.801 51.4565V58.2517" stroke="white" stroke-width="1.23551" stroke-miterlimit="10"/>
<path opacity="0.3" d="M287.658 100.568L282.406 104.892" stroke="white" stroke-width="1.23551" stroke-miterlimit="10"/>
<path opacity="0.3" d="M314.22 211.147L307.733 209.911" stroke="white" stroke-width="1.23551" stroke-miterlimit="10"/>
<path opacity="0.3" d="M242.869 302.574L240.089 296.705" stroke="white" stroke-width="1.23551" stroke-miterlimit="10"/>
<path opacity="0.3" d="M129.203 303.501L131.982 297.632" stroke="white" stroke-width="1.23551" stroke-miterlimit="10"/>
<path opacity="0.3" d="M56.307 213.618L62.4846 212.073" stroke="white" stroke-width="1.23551" stroke-miterlimit="10"/>
<path opacity="0.3" d="M80.708 102.421L85.9588 106.437" stroke="white" stroke-width="1.23551" stroke-miterlimit="10"/>
</g>
</g>
</g>
<g opacity="0.3">
<path d="M184.799 299.176C248.599 299.176 300.32 247.456 300.32 183.656C300.32 119.856 248.599 68.1357 184.799 68.1357C120.999 68.1357 69.2787 119.856 69.2787 183.656C69.2787 247.456 120.999 299.176 184.799 299.176Z" stroke="white" stroke-width="1.23551" stroke-miterlimit="10"/>
<g opacity="0.3">
<g opacity="0.3">
<path opacity="0.3" d="M184.798 68.1355V74.0043" stroke="white" stroke-width="1.23551" stroke-miterlimit="10"/>
<path opacity="0.3" d="M274.682 111.069L270.358 114.776" stroke="white" stroke-width="1.23551" stroke-miterlimit="10"/>
<path opacity="0.3" d="M298.158 207.749L292.289 206.513" stroke="white" stroke-width="1.23551" stroke-miterlimit="10"/>
<path opacity="0.3" d="M235.764 287.748L232.984 282.497" stroke="white" stroke-width="1.23551" stroke-miterlimit="10"/>
<path opacity="0.3" d="M135.996 288.674L138.467 283.423" stroke="white" stroke-width="1.23551" stroke-miterlimit="10"/>
<path opacity="0.3" d="M72.3671 209.91L77.927 208.366" stroke="white" stroke-width="1.23551" stroke-miterlimit="10"/>
<path opacity="0.3" d="M93.6793 112.614L98.3125 116.011" stroke="white" stroke-width="1.23551" stroke-miterlimit="10"/>
</g>
</g>
</g>
<path opacity="0.3" d="M184.8 282.806C239.559 282.806 283.949 238.415 283.949 183.656C283.949 128.897 239.559 84.5063 184.8 84.5063C130.041 84.5063 85.6499 128.897 85.6499 183.656C85.6499 238.415 130.041 282.806 184.8 282.806Z" stroke="white" stroke-width="1.23551" stroke-miterlimit="10"/>
<g opacity="0.3">
<g opacity="0.3">
<path opacity="0.3" d="M184.799 84.5063V89.4485" stroke="white" stroke-width="1.23551" stroke-miterlimit="10"/>
<path opacity="0.3" d="M262.018 121.263L258.003 124.352" stroke="white" stroke-width="1.23551" stroke-miterlimit="10"/>
<path opacity="0.3" d="M281.787 204.351L277.154 203.424" stroke="white" stroke-width="1.23551" stroke-miterlimit="10"/>
<path opacity="0.3" d="M228.351 272.922L226.189 268.289" stroke="white" stroke-width="1.23551" stroke-miterlimit="10"/>
<path opacity="0.3" d="M143.1 273.54L145.262 269.216" stroke="white" stroke-width="1.23551" stroke-miterlimit="10"/>
<path opacity="0.3" d="M88.4296 206.204L93.0627 204.969" stroke="white" stroke-width="1.23551" stroke-miterlimit="10"/>
<path opacity="0.3" d="M106.653 122.808L110.668 125.896" stroke="white" stroke-width="1.23551" stroke-miterlimit="10"/>
</g>
</g>
<path opacity="0.3" d="M184.8 266.127C230.347 266.127 267.27 229.204 267.27 183.657C267.27 138.109 230.347 101.186 184.8 101.186C139.253 101.186 102.329 138.109 102.329 183.657C102.329 229.204 139.253 266.127 184.8 266.127Z" stroke="white" stroke-width="1.23551" stroke-miterlimit="10"/>
<g opacity="0.3">
<g opacity="0.3">
<path opacity="0.3" d="M184.799 101.186V105.201" stroke="white" stroke-width="1.23551" stroke-miterlimit="10"/>
<path opacity="0.3" d="M249.045 131.765L245.956 134.236" stroke="white" stroke-width="1.23551" stroke-miterlimit="10"/>
<path opacity="0.3" d="M265.724 200.954L261.709 200.027" stroke="white" stroke-width="1.23551" stroke-miterlimit="10"/>
<path opacity="0.3" d="M221.247 258.096L219.393 254.39" stroke="white" stroke-width="1.23551" stroke-miterlimit="10"/>
<path opacity="0.3" d="M149.896 258.714L151.749 255.008" stroke="white" stroke-width="1.23551" stroke-miterlimit="10"/>
<path opacity="0.3" d="M104.49 202.498L108.506 201.571" stroke="white" stroke-width="1.23551" stroke-miterlimit="10"/>
<path opacity="0.3" d="M119.934 133.001L123.023 135.472" stroke="white" stroke-width="1.23551" stroke-miterlimit="10"/>
</g>
</g>
<path opacity="0.3" d="M184.799 250.065C221.475 250.065 251.207 220.333 251.207 183.656C251.207 146.98 221.475 117.248 184.799 117.248C148.122 117.248 118.39 146.98 118.39 183.656C118.39 220.333 148.122 250.065 184.799 250.065Z" stroke="white" stroke-width="1.23551" stroke-miterlimit="10"/>
<g opacity="0.3">
<g opacity="0.3">
<path opacity="0.3" d="M184.799 117.556V120.954" stroke="white" stroke-width="1.23551" stroke-miterlimit="10"/>
<path opacity="0.3" d="M236.383 141.957L233.911 144.119" stroke="white" stroke-width="1.23551" stroke-miterlimit="10"/>
<path opacity="0.3" d="M249.663 197.555L246.574 196.938" stroke="white" stroke-width="1.23551" stroke-miterlimit="10"/>
<path opacity="0.3" d="M214.142 243.269L212.598 240.49" stroke="white" stroke-width="1.23551" stroke-miterlimit="10"/>
<path opacity="0.3" d="M157 243.887L158.235 240.798" stroke="white" stroke-width="1.23551" stroke-miterlimit="10"/>
<path opacity="0.3" d="M120.243 198.791L123.641 197.864" stroke="white" stroke-width="1.23551" stroke-miterlimit="10"/>
<path opacity="0.3" d="M132.599 142.884L135.378 145.046" stroke="white" stroke-width="1.23551" stroke-miterlimit="10"/>
</g>
</g>
<path opacity="0.3" d="M184.8 233.386C212.265 233.386 234.529 211.121 234.529 183.656C234.529 156.192 212.265 133.927 184.8 133.927C157.335 133.927 135.071 156.192 135.071 183.656C135.071 211.121 157.335 233.386 184.8 233.386Z" stroke="white" stroke-width="1.23551" stroke-miterlimit="10"/>
<g opacity="0.3">
<g opacity="0.3">
<path opacity="0.3" d="M184.8 133.927V136.398" stroke="white" stroke-width="1.23551" stroke-miterlimit="10"/>
<path opacity="0.3" d="M223.718 152.46L221.556 154.004" stroke="white" stroke-width="1.23551" stroke-miterlimit="10"/>
<path opacity="0.3" d="M233.603 194.158L231.131 193.541" stroke="white" stroke-width="1.23551" stroke-miterlimit="10"/>
<path opacity="0.3" d="M206.729 228.444L205.494 226.282" stroke="white" stroke-width="1.23551" stroke-miterlimit="10"/>
<path opacity="0.3" d="M163.795 228.753L165.03 226.591" stroke="white" stroke-width="1.23551" stroke-miterlimit="10"/>
<path opacity="0.3" d="M136.615 195.086L138.776 194.468" stroke="white" stroke-width="1.23551" stroke-miterlimit="10"/>
<path opacity="0.3" d="M145.881 153.078L147.734 154.622" stroke="white" stroke-width="1.23551" stroke-miterlimit="10"/>
</g>
</g>
<path opacity="0.3" d="M184.799 217.015C203.223 217.015 218.158 202.08 218.158 183.656C218.158 165.233 203.223 150.297 184.799 150.297C166.376 150.297 151.441 165.233 151.441 183.656C151.441 202.08 166.376 217.015 184.799 217.015Z" stroke="white" stroke-width="1.23551" stroke-miterlimit="10"/>
<g opacity="0.3">
<g opacity="0.3">
<path opacity="0.3" d="M184.799 150.606V152.151" stroke="white" stroke-width="1.23551" stroke-miterlimit="10"/>
<path opacity="0.3" d="M210.745 162.962L209.509 163.888" stroke="white" stroke-width="1.23551" stroke-miterlimit="10"/>
<path opacity="0.3" d="M217.54 190.76L215.687 190.451" stroke="white" stroke-width="1.23551" stroke-miterlimit="10"/>
<path opacity="0.3" d="M199.625 213.617L198.698 212.073" stroke="white" stroke-width="1.23551" stroke-miterlimit="10"/>
<path opacity="0.3" d="M170.899 213.926L171.517 212.382" stroke="white" stroke-width="1.23551" stroke-miterlimit="10"/>
<path opacity="0.3" d="M152.676 191.378L154.22 190.76" stroke="white" stroke-width="1.23551" stroke-miterlimit="10"/>
<path opacity="0.3" d="M158.854 163.271L160.089 164.198" stroke="white" stroke-width="1.23551" stroke-miterlimit="10"/>
</g>
</g>
<path opacity="0.3" d="M184.799 200.645C194.181 200.645 201.787 193.039 201.787 183.657C201.787 174.274 194.181 166.668 184.799 166.668C175.416 166.668 167.811 174.274 167.811 183.657C167.811 193.039 175.416 200.645 184.799 200.645Z" stroke="white" stroke-width="1.23551" stroke-miterlimit="10"/>
<g opacity="0.3">
<g opacity="0.3">
<path opacity="0.3" d="M184.799 166.977V167.903" stroke="white" stroke-width="1.23551" stroke-miterlimit="10"/>
<path opacity="0.3" d="M198.081 173.154L197.463 173.772" stroke="white" stroke-width="1.23551" stroke-miterlimit="10"/>
<path opacity="0.3" d="M201.479 187.363L200.552 187.054" stroke="white" stroke-width="1.23551" stroke-miterlimit="10"/>
<path opacity="0.3" d="M192.213 198.791L191.904 198.174" stroke="white" stroke-width="1.23551" stroke-miterlimit="10"/>
<path opacity="0.3" d="M177.696 199.1L178.313 198.174" stroke="white" stroke-width="1.23551" stroke-miterlimit="10"/>
<path opacity="0.3" d="M168.429 187.672L169.356 187.363" stroke="white" stroke-width="1.23551" stroke-miterlimit="10"/>
<path opacity="0.3" d="M171.518 173.464L172.444 173.772" stroke="white" stroke-width="1.23551" stroke-miterlimit="10"/>
</g>
</g>
<path opacity="0.67" d="M184.799 183.656V51.4565" stroke="white" stroke-width="1.23551" stroke-miterlimit="10"/>
<path opacity="0.67" d="M184.799 183.656L287.655 100.568" stroke="white" stroke-width="1.23551" stroke-miterlimit="10"/>
<path opacity="0.67" d="M184.799 183.656L314.219 211.147" stroke="white" stroke-width="1.23551" stroke-miterlimit="10"/>
<path opacity="0.67" d="M184.799 183.656L242.868 302.575" stroke="white" stroke-width="1.23551" stroke-miterlimit="10"/>
<path opacity="0.67" d="M184.799 183.656L129.201 303.501" stroke="white" stroke-width="1.23551" stroke-miterlimit="10"/>
<path opacity="0.67" d="M184.8 183.656L56.3068 213.618" stroke="white" stroke-width="1.23551" stroke-miterlimit="10"/>
<path opacity="0.67" d="M184.8 183.656L80.7078 102.421" stroke="white" stroke-width="1.23551" stroke-miterlimit="10"/>
</g>
<path opacity="0.2" d="M298.158 207.749L228.66 272.922L136.306 288.675L88.4297 206.204L92.4449 112.305L185.108 68.4448L262.019 121.572L298.158 207.749Z" fill="#61BBFF"/>
<path d="M262.019 121.263L184.799 68.1357L92.1361 111.996L88.4297 206.204L135.997 288.675L228.351 272.922L298.158 207.749L262.019 121.263Z" stroke="#64E2FF" stroke-width="2" stroke-miterlimit="10"/>
<path d="M236.382 141.958L184.799 117.556L106.653 122.807L136.614 195.085L157 243.887L221.247 258.096L265.726 200.953L236.382 141.958Z" stroke="#FFC35A" stroke-width="2" stroke-miterlimit="10"/>
<path d="M184.8 120.955C186.676 120.955 188.198 119.434 188.198 117.557C188.198 115.681 186.676 114.16 184.8 114.16C182.923 114.16 181.402 115.681 181.402 117.557C181.402 119.434 182.923 120.955 184.8 120.955Z" fill="#FFA840" stroke="#FFF4EB" stroke-width="1.54439" stroke-miterlimit="10"/>
<path d="M236.384 145.356C238.26 145.356 239.781 143.835 239.781 141.959C239.781 140.082 238.26 138.561 236.384 138.561C234.507 138.561 232.986 140.082 232.986 141.959C232.986 143.835 234.507 145.356 236.384 145.356Z" fill="#FFA840" stroke="#FFF4EB" stroke-width="1.54439" stroke-miterlimit="10"/>
<path d="M265.727 204.352C267.604 204.352 269.125 202.831 269.125 200.954C269.125 199.078 267.604 197.557 265.727 197.557C263.851 197.557 262.329 199.078 262.329 200.954C262.329 202.831 263.851 204.352 265.727 204.352Z" fill="#FFA840" stroke="#FFF4EB" stroke-width="1.54439" stroke-miterlimit="10"/>
<path d="M220.321 261.495C222.197 261.495 223.719 259.973 223.719 258.097C223.719 256.22 222.197 254.699 220.321 254.699C218.444 254.699 216.923 256.22 216.923 258.097C216.923 259.973 218.444 261.495 220.321 261.495Z" fill="#FFA840" stroke="#FFF4EB" stroke-width="1.54439" stroke-miterlimit="10"/>
<path d="M157.001 247.286C158.877 247.286 160.398 245.765 160.398 243.888C160.398 242.012 158.877 240.49 157.001 240.49C155.124 240.49 153.603 242.012 153.603 243.888C153.603 245.765 155.124 247.286 157.001 247.286Z" fill="#FFA840" stroke="#FFF4EB" stroke-width="1.54439" stroke-miterlimit="10"/>
<path d="M136.615 198.482C138.491 198.482 140.012 196.961 140.012 195.085C140.012 193.208 138.491 191.687 136.615 191.687C134.738 191.687 133.217 193.208 133.217 195.085C133.217 196.961 134.738 198.482 136.615 198.482Z" fill="#FFA840" stroke="#FFF4EB" stroke-width="1.54439" stroke-miterlimit="10"/>
<path d="M106.655 126.205C108.531 126.205 110.052 124.684 110.052 122.807C110.052 120.931 108.531 119.41 106.655 119.41C104.778 119.41 103.257 120.931 103.257 122.807C103.257 124.684 104.778 126.205 106.655 126.205Z" fill="#FFA840" stroke="#FFF4EB" stroke-width="1.54439" stroke-miterlimit="10"/>
<path d="M93.6808 116.013C95.5573 116.013 97.0784 114.492 97.0784 112.615C97.0784 110.739 95.5573 109.217 93.6808 109.217C91.8043 109.217 90.2832 110.739 90.2832 112.615C90.2832 114.492 91.8043 116.013 93.6808 116.013Z" fill="#31D3FF" stroke="#FFF4EB" stroke-width="1.54439" stroke-miterlimit="10"/>
<path d="M184.8 71.5346C186.676 71.5346 188.198 70.0133 188.198 68.1368C188.198 66.2604 186.676 64.7393 184.8 64.7393C182.923 64.7393 181.402 66.2604 181.402 68.1368C181.402 70.0133 182.923 71.5346 184.8 71.5346Z" fill="#31D3FF" stroke="#FFF4EB" stroke-width="1.54439" stroke-miterlimit="10"/>
<path d="M262.019 124.66C263.896 124.66 265.417 123.139 265.417 121.263C265.417 119.386 263.896 117.865 262.019 117.865C260.143 117.865 258.622 119.386 258.622 121.263C258.622 123.139 260.143 124.66 262.019 124.66Z" fill="#31D3FF" stroke="#FFF4EB" stroke-width="1.54439" stroke-miterlimit="10"/>
<path d="M298.159 211.146C300.036 211.146 301.557 209.625 301.557 207.749C301.557 205.872 300.036 204.351 298.159 204.351C296.283 204.351 294.761 205.872 294.761 207.749C294.761 209.625 296.283 211.146 298.159 211.146Z" fill="#31D3FF" stroke="#FFF4EB" stroke-width="1.54439" stroke-miterlimit="10"/>
<path d="M228.352 276.32C230.229 276.32 231.75 274.799 231.75 272.922C231.75 271.046 230.229 269.525 228.352 269.525C226.476 269.525 224.955 271.046 224.955 272.922C224.955 274.799 226.476 276.32 228.352 276.32Z" fill="#31D3FF" stroke="#FFF4EB" stroke-width="1.54439" stroke-miterlimit="10"/>
<path d="M135.998 291.146C137.875 291.146 139.396 289.625 139.396 287.748C139.396 285.872 137.875 284.35 135.998 284.35C134.122 284.35 132.6 285.872 132.6 287.748C132.6 289.625 134.122 291.146 135.998 291.146Z" fill="#31D3FF" stroke="#FFF4EB" stroke-width="1.54439" stroke-miterlimit="10"/>
<path d="M89.0475 208.985C90.924 208.985 92.4451 207.464 92.4451 205.588C92.4451 203.711 90.924 202.19 89.0475 202.19C87.171 202.19 85.6499 203.711 85.6499 205.588C85.6499 207.464 87.171 208.985 89.0475 208.985Z" fill="#31D3FF" stroke="#FFF4EB" stroke-width="1.54439" stroke-miterlimit="10"/>
<path d="M162.086 26.528V28.796C162.086 31.106 160.644 33.542 158.81 34.466L159.524 35.39C161.526 34.326 163.038 31.596 163.038 28.796V26.528H162.086ZM162.296 26.528V28.796C162.296 31.512 163.766 34.102 165.726 35.152L166.44 34.228C164.648 33.332 163.234 31.022 163.234 28.796V26.528H162.296ZM167.546 25.436V38.092H168.722V25.436H167.546ZM168.442 30.56V31.54H170.794V30.56H168.442ZM174.769 33.024V35.11H175.945V33.024H174.769ZM180.313 25.436V38.092H181.475V25.436H180.313ZM171.395 35.684C173.733 35.684 176.785 35.656 179.599 35.18L179.515 34.326C176.785 34.676 173.635 34.704 171.241 34.718L171.395 35.684ZM171.507 26.976V27.914H179.193V26.976H171.507ZM175.343 28.642C173.537 28.642 172.305 29.566 172.305 30.98C172.305 32.408 173.537 33.318 175.343 33.318C177.163 33.318 178.395 32.408 178.395 30.98C178.395 29.566 177.163 28.642 175.343 28.642ZM175.343 29.538C176.491 29.538 177.289 30.112 177.289 30.98C177.289 31.848 176.491 32.422 175.343 32.422C174.209 32.422 173.411 31.848 173.411 30.98C173.411 30.112 174.209 29.538 175.343 29.538ZM174.769 25.436V27.494H175.931V25.436H174.769ZM192.954 25.436V38.092H194.074V25.436H192.954ZM190.91 30.518V31.47H193.332V30.518H190.91ZM187.634 27.06V27.284C187.634 30.21 186.514 32.772 183.336 34.55L184.022 35.376C187.634 33.346 188.754 30.322 188.754 27.06H187.634ZM183.826 27.06V28.026H188.026V27.06H183.826ZM190.14 25.772V37.476H191.246V25.772H190.14ZM196.047 25.954V31.484H201.899V25.954H200.765V27.774H197.195V25.954H196.047ZM197.195 28.684H200.765V30.546H197.195V28.684ZM204.181 25.436V31.96H205.343V25.436H204.181ZM204.839 28.152V29.118H207.205V28.152H204.839ZM197.307 32.576V33.5H204.209V34.774H197.335V37.546H198.483V35.642H205.343V32.576H197.307ZM197.335 37.028V37.952H205.805V37.028H197.335Z" fill="white"/>
<path d="M29.0862 86.528V88.796C29.0862 91.106 27.6442 93.542 25.8102 94.466L26.5242 95.39C28.5262 94.326 30.0382 91.596 30.0382 88.796V86.528H29.0862ZM29.2962 86.528V88.796C29.2962 91.512 30.7662 94.102 32.7262 95.152L33.4402 94.228C31.6482 93.332 30.2342 91.022 30.2342 88.796V86.528H29.2962ZM34.5462 85.436V98.092H35.7222V85.436H34.5462ZM35.4422 90.56V91.54H37.7942V90.56H35.4422ZM41.7691 93.024V95.11H42.9451V93.024H41.7691ZM47.3131 85.436V98.092H48.4751V85.436H47.3131ZM38.3951 95.684C40.7331 95.684 43.7851 95.656 46.5991 95.18L46.5151 94.326C43.7851 94.676 40.6351 94.704 38.2411 94.718L38.3951 95.684ZM38.5071 86.976V87.914H46.1931V86.976H38.5071ZM42.3431 88.642C40.5371 88.642 39.3051 89.566 39.3051 90.98C39.3051 92.408 40.5371 93.318 42.3431 93.318C44.1631 93.318 45.3951 92.408 45.3951 90.98C45.3951 89.566 44.1631 88.642 42.3431 88.642ZM42.3431 89.538C43.4911 89.538 44.2891 90.112 44.2891 90.98C44.2891 91.848 43.4911 92.422 42.3431 92.422C41.2091 92.422 40.4111 91.848 40.4111 90.98C40.4111 90.112 41.2091 89.538 42.3431 89.538ZM41.7691 85.436V87.494H42.9311V85.436H41.7691ZM59.954 85.436V98.092H61.074V85.436H59.954ZM57.91 90.518V91.47H60.332V90.518H57.91ZM54.634 87.06V87.284C54.634 90.21 53.514 92.772 50.336 94.55L51.022 95.376C54.634 93.346 55.754 90.322 55.754 87.06H54.634ZM50.826 87.06V88.026H55.026V87.06H50.826ZM57.14 85.772V97.476H58.246V85.772H57.14ZM63.0469 85.954V91.484H68.8989V85.954H67.7649V87.774H64.1949V85.954H63.0469ZM64.1949 88.684H67.7649V90.546H64.1949V88.684ZM71.1809 85.436V91.96H72.3429V85.436H71.1809ZM71.8389 88.152V89.118H74.2049V88.152H71.8389ZM64.3069 92.576V93.5H71.2089V94.774H64.3349V97.546H65.4829V95.642H72.3429V92.576H64.3069ZM64.3349 97.028V97.952H72.8049V97.028H64.3349Z" fill="white"/>
<path d="M10.2322 210.436V223.092H11.3942V210.436H10.2322ZM7.27819 215.504V216.47H10.7502V215.504H7.27819ZM6.17219 211.794V211.99C6.17219 215.294 4.66019 217.982 0.978187 219.788L1.62219 220.698C5.82219 218.598 7.32019 215.406 7.32019 211.794H6.17219ZM1.52419 211.794V212.746H6.78819V211.794H1.52419ZM16.5031 211.528V213.796C16.5031 216.19 14.9771 218.612 13.1011 219.508L13.8151 220.46C15.8871 219.41 17.4551 216.708 17.4551 213.796V211.528H16.5031ZM16.6991 211.528V213.796C16.6991 216.61 18.2811 219.214 20.3391 220.222L21.0391 219.298C19.1631 218.43 17.6511 216.106 17.6511 213.796V211.528H16.6991ZM22.3551 210.422V223.106H23.5171V210.422H22.3551ZM31.398 212.76V213.712H34.786V212.76H31.398ZM31.286 215.392V216.344H34.702V215.392H31.286ZM34.59 210.436V218.024H35.752V210.436H34.59ZM30.628 211.388V211.892C30.628 214.286 28.738 216.148 25.504 217.086L25.98 218.024C29.62 216.932 31.874 214.65 31.874 211.388H30.628ZM26.162 211.388V212.34H31.426V211.388H26.162ZM31.636 218.164C29.074 218.164 27.45 219.074 27.45 220.6C27.45 222.126 29.074 223.036 31.636 223.036C34.198 223.036 35.822 222.126 35.822 220.6C35.822 219.074 34.198 218.164 31.636 218.164ZM31.636 219.074C33.498 219.074 34.688 219.648 34.688 220.6C34.688 221.552 33.498 222.112 31.636 222.112C29.788 222.112 28.598 221.552 28.598 220.6C28.598 219.648 29.788 219.074 31.636 219.074ZM47.1469 210.436V223.092H48.2669V210.436H47.1469ZM42.5409 214.972V215.938H44.9629V214.972H42.5409ZM44.6129 210.73V222.448H45.7049V210.73H44.6129ZM40.1049 212.396V214.006C40.1049 216.33 39.1249 218.64 37.3609 219.704L38.0749 220.572C39.9369 219.396 41.0009 216.778 41.0009 214.006V212.396H40.1049ZM40.3429 212.396V214.006C40.3429 216.652 41.3649 219.144 43.2129 220.264L43.9269 219.41C42.1909 218.402 41.2389 216.204 41.2389 214.006V212.396H40.3429ZM37.7109 211.906V212.872H43.4929V211.906H37.7109ZM12.7613 231.898C13.2513 231.898 13.6853 231.492 13.6853 230.932C13.6853 230.33 13.2513 229.938 12.7613 229.938C12.2433 229.938 11.8373 230.33 11.8373 230.932C11.8373 231.492 12.2433 231.898 12.7613 231.898ZM26.4189 224.436V237.092H27.5249V224.436H26.4189ZM24.4169 229.532V230.512H26.8529V229.532H24.4169ZM23.6609 224.702V236.462H24.7529V224.702H23.6609ZM19.3489 226.396V227.852C19.3489 230.428 18.4249 232.584 16.6049 233.592L17.3189 234.488C19.2649 233.326 20.2589 230.89 20.2589 227.852V226.396H19.3489ZM19.5589 226.396V227.852C19.5589 230.638 20.5669 232.976 22.4989 234.04L23.1849 233.144C21.4069 232.234 20.4689 230.176 20.4689 227.852V226.396H19.5589ZM16.8989 225.92V226.886H22.7789V225.92H16.8989ZM35.6718 227.712V228.678H38.5278V227.712H35.6718ZM38.1638 224.436V231.982H39.3258V224.436H38.1638ZM35.1678 232.36C32.5498 232.36 30.9398 233.242 30.9398 234.726C30.9398 236.224 32.5498 237.078 35.1678 237.078C37.7718 237.078 39.3818 236.224 39.3818 234.726C39.3818 233.242 37.7718 232.36 35.1678 232.36ZM35.1678 233.27C37.0718 233.27 38.2338 233.802 38.2338 234.726C38.2338 235.636 37.0718 236.168 35.1678 236.168C33.2638 236.168 32.1018 235.636 32.1018 234.726C32.1018 233.802 33.2638 233.27 35.1678 233.27ZM32.1438 225.71V226.732C32.1438 228.552 30.8418 230.246 28.9658 230.932L29.5678 231.856C31.6678 231.072 33.0958 229.07 33.0958 226.732V225.71H32.1438ZM32.3678 225.71V226.732C32.3678 228.86 33.7258 230.764 35.7838 231.506L36.3718 230.582C34.5378 229.938 33.3058 228.37 33.3058 226.732V225.71H32.3678ZM29.3158 225.36V226.312H36.0778V225.36H29.3158Z" fill="white"/>
<path d="M80.9044 319.786V320.738H92.3844V319.786H80.9044ZM86.0284 320.36V325.092H87.1764V320.36H86.0284ZM82.3604 313.136V318.078H90.9004V313.136H82.3604ZM89.7664 314.074V317.14H83.5084V314.074H89.7664ZM98.8513 314.298V315.25H102.715V314.298H98.8513ZM98.8513 317.126V318.092H102.715V317.126H98.8513ZM95.0573 320.598V321.536H102.337V325.092H103.499V320.598H95.0573ZM102.337 312.436V319.898H103.499V312.436H102.337ZM96.5413 313.136C94.6653 313.136 93.2793 314.396 93.2793 316.188C93.2793 317.98 94.6653 319.226 96.5413 319.226C98.4033 319.226 99.8033 317.98 99.8033 316.188C99.8033 314.396 98.4033 313.136 96.5413 313.136ZM96.5413 314.13C97.7733 314.13 98.6973 314.984 98.6973 316.188C98.6973 317.392 97.7733 318.232 96.5413 318.232C95.3093 318.232 94.3993 317.392 94.3993 316.188C94.3993 314.984 95.3093 314.13 96.5413 314.13ZM108.44 319.898C108.93 319.898 109.364 319.492 109.364 318.932C109.364 318.33 108.93 317.938 108.44 317.938C107.922 317.938 107.516 318.33 107.516 318.932C107.516 319.492 107.922 319.898 108.44 319.898ZM112.41 319.142V320.08H123.848V319.142H112.41ZM117.548 317.504V319.534H118.696V317.504H117.548ZM113.922 316.986V317.896H122.504V316.986H113.922ZM113.922 312.8V317.476H115.07V313.71H122.448V312.8H113.922ZM114.734 314.872V315.768H122.112V314.872H114.734ZM118.122 321.018C115.364 321.018 113.782 321.718 113.782 323.048C113.782 324.364 115.364 325.064 118.122 325.064C120.88 325.064 122.462 324.364 122.462 323.048C122.462 321.718 120.88 321.018 118.122 321.018ZM118.122 321.9C120.152 321.9 121.286 322.306 121.286 323.048C121.286 323.804 120.152 324.196 118.122 324.196C116.092 324.196 114.958 323.804 114.958 323.048C114.958 322.306 116.092 321.9 118.122 321.9ZM127.669 313.094V314.382C127.669 316.314 126.437 318.022 124.533 318.722L125.149 319.66C127.263 318.834 128.635 316.818 128.635 314.382V313.094H127.669ZM127.879 313.094V314.466C127.879 316.664 129.265 318.54 131.295 319.296L131.911 318.386C130.091 317.756 128.831 316.174 128.831 314.466V313.094H127.879ZM133.255 312.436V320.108H134.417V312.436H133.255ZM134.095 315.698V316.678H136.293V315.698H134.095ZM130.385 320.458C127.795 320.458 126.227 321.312 126.227 322.768C126.227 324.224 127.795 325.064 130.385 325.064C132.975 325.064 134.543 324.224 134.543 322.768C134.543 321.312 132.975 320.458 130.385 320.458ZM130.385 321.382C132.261 321.382 133.409 321.886 133.409 322.768C133.409 323.65 132.261 324.154 130.385 324.154C128.509 324.154 127.361 323.65 127.361 322.768C127.361 321.886 128.509 321.382 130.385 321.382Z" fill="white"/>
<path d="M235.026 314.206V315.76C235.026 317.72 233.794 319.428 231.862 320.114L232.478 321.038C234.606 320.212 235.978 318.238 235.978 315.76V314.206H235.026ZM235.222 314.206V315.802C235.222 318.028 236.622 319.96 238.708 320.716L239.282 319.806C237.434 319.148 236.174 317.524 236.174 315.802V314.206H235.222ZM240.57 313.422V322.774H241.732V313.422H240.57ZM241.368 317.314V318.28H243.608V317.314H241.368ZM233.878 324.86V325.812H242.292V324.86H233.878ZM233.878 321.892V325.322H235.04V321.892H233.878ZM250.453 316.446V317.412H253.855V316.446H250.453ZM247.541 314.01C245.651 314.01 244.279 315.214 244.279 316.95C244.279 318.686 245.651 319.876 247.541 319.876C249.431 319.876 250.803 318.686 250.803 316.95C250.803 315.214 249.431 314.01 247.541 314.01ZM247.541 314.99C248.787 314.99 249.683 315.788 249.683 316.95C249.683 318.098 248.787 318.91 247.541 318.91C246.295 318.91 245.399 318.098 245.399 316.95C245.399 315.788 246.295 314.99 247.541 314.99ZM253.337 313.436V320.226H254.499V313.436H253.337ZM246.393 320.856V325.924H254.499V320.856H253.351V322.452H247.555V320.856H246.393ZM247.555 323.376H253.351V324.986H247.555V323.376ZM259.44 320.898C259.93 320.898 260.364 320.492 260.364 319.932C260.364 319.33 259.93 318.938 259.44 318.938C258.922 318.938 258.516 319.33 258.516 319.932C258.516 320.492 258.922 320.898 259.44 320.898ZM263.438 314.738V315.676H270.522V314.738H263.438ZM267.022 316.362C265.342 316.362 264.152 317.314 264.152 318.728C264.152 320.142 265.342 321.094 267.022 321.094C268.688 321.094 269.878 320.142 269.878 318.728C269.878 317.314 268.688 316.362 267.022 316.362ZM267.022 317.272C268.072 317.272 268.8 317.846 268.8 318.728C268.8 319.61 268.072 320.198 267.022 320.198C265.972 320.198 265.244 319.61 265.244 318.728C265.244 317.846 265.972 317.272 267.022 317.272ZM266.448 313.324V315.354H267.61V313.324H266.448ZM272.664 313.436V321.472H273.826V313.436H272.664ZM270.536 316.544V317.482H273.112V316.544H270.536ZM270.508 318.91V319.862H273.098V318.91H270.508ZM265.384 322.2V323.138H272.664V326.092H273.826V322.2H265.384ZM284.801 313.45V322.718H285.977V313.45H284.801ZM277.843 324.86V325.812H286.355V324.86H277.843ZM277.843 321.864V325.308H278.991V321.864H277.843ZM278.893 314.136V315.424C278.893 317.384 277.633 319.232 275.729 319.974L276.331 320.912C278.459 320.044 279.859 317.888 279.859 315.424V314.136H278.893ZM279.103 314.136V315.424C279.103 317.832 280.503 319.862 282.603 320.674L283.219 319.736C281.329 319.05 280.055 317.328 280.055 315.424V314.136H279.103Z" fill="white"/>
<path d="M330.28 209.45V218.69H331.456V209.45H330.28ZM323.322 220.86V221.812H331.834V220.86H323.322ZM323.322 217.738V221.182H324.47V217.738H323.322ZM324.666 210.318C322.776 210.318 321.362 211.606 321.362 213.44C321.362 215.26 322.776 216.562 324.666 216.562C326.556 216.562 327.956 215.26 327.956 213.44C327.956 211.606 326.556 210.318 324.666 210.318ZM324.666 211.326C325.898 211.326 326.836 212.194 326.836 213.44C326.836 214.672 325.898 215.54 324.666 215.54C323.434 215.54 322.496 214.672 322.496 213.44C322.496 212.194 323.434 211.326 324.666 211.326ZM333.261 219.502V220.468H344.727V219.502H333.261ZM334.255 210.696V211.648H343.649V210.696H334.255ZM334.283 216.044V216.996H343.635V216.044H334.283ZM336.229 211.578V216.142H337.391V211.578H336.229ZM340.541 211.578V216.142H341.689V211.578H340.541ZM354.007 209.422V222.106H355.169V209.422H354.007ZM354.889 214.462V215.442H357.241V214.462H354.889ZM345.943 218.088V219.054H346.951C349.373 219.054 351.053 218.956 353.027 218.606L352.901 217.64C350.983 218.004 349.331 218.088 346.951 218.088H345.943ZM345.915 210.612V211.564H350.493V214.196H345.943V218.48H347.091V215.148H351.641V210.612H345.915Z" fill="white"/>
<path d="M305.19 86.45V95.69H306.366V86.45H305.19ZM298.232 97.86V98.812H306.744V97.86H298.232ZM298.232 94.738V98.182H299.38V94.738H298.232ZM299.576 87.318C297.686 87.318 296.272 88.606 296.272 90.44C296.272 92.26 297.686 93.562 299.576 93.562C301.466 93.562 302.866 92.26 302.866 90.44C302.866 88.606 301.466 87.318 299.576 87.318ZM299.576 88.326C300.808 88.326 301.746 89.194 301.746 90.44C301.746 91.672 300.808 92.54 299.576 92.54C298.344 92.54 297.406 91.672 297.406 90.44C297.406 89.194 298.344 88.326 299.576 88.326ZM311.391 87.724V88.746C311.391 90.538 310.089 92.218 308.199 92.89L308.801 93.814C310.915 93.03 312.343 91.056 312.343 88.746V87.724H311.391ZM311.615 87.724V88.746C311.615 90.86 312.973 92.764 315.031 93.52L315.619 92.596C313.785 91.952 312.553 90.37 312.553 88.746V87.724H311.615ZM314.933 89.726V90.692H317.747V89.726H314.933ZM308.563 87.304V88.242H315.325V87.304H308.563ZM310.131 94.696V95.648H317.411V99.092H318.573V94.696H310.131ZM317.411 86.436V94.01H318.573V86.436H317.411ZM323.472 88.242V90.3C323.472 92.442 321.946 94.85 320.14 95.732L320.812 96.656C322.786 95.648 324.396 92.932 324.396 90.3V88.242H323.472ZM323.682 88.242V90.3C323.682 92.806 325.208 95.354 327.21 96.348L327.868 95.424C326.034 94.556 324.606 92.302 324.606 90.3V88.242H323.682ZM320.588 87.724V88.704H327.406V87.724H320.588ZM328.904 86.436V99.092H330.08V86.436H328.904ZM329.8 91.546V92.526H332.152V91.546H329.8ZM334.041 86.94V91.994H342.469V86.94H341.307V88.522H335.189V86.94H334.041ZM335.189 89.446H341.307V91.056H335.189V89.446ZM332.515 93.338V94.29H343.953V93.338H332.515ZM337.667 91.448V93.758H338.815V91.448H337.667ZM333.999 97.86V98.812H342.693V97.86H333.999ZM333.999 95.312V98.182H335.161V95.312H333.999Z" fill="white"/>
</svg>
