<svg width="30" height="30" viewBox="0 0 30 30" fill="none" xmlns="http://www.w3.org/2000/svg">
<path d="M10.5 9.70005C10.0582 9.70005 9.7 10.0582 9.7 10.5V19.5C9.7 19.9419 10.0582 20.3 10.5 20.3H19.5C19.9418 20.3 20.3 19.9419 20.3 19.5V17.25H21.5V19.5C21.5 20.6046 20.6046 21.5 19.5 21.5H10.5C9.39543 21.5 8.5 20.6046 8.5 19.5V10.5C8.5 9.39548 9.39543 8.50005 10.5 8.50005L12.75 8.5V9.70005H10.5Z" fill="white"/>
<path fill-rule="evenodd" clip-rule="evenodd" d="M14.3 8.5H21.5V15.7H20.3V10.5485L17.1 13.7485L15.5 15.3485L14.7001 16.1485L13.8514 15.3L14.6515 14.5L16.2515 12.9L19.4515 9.7H14.3V8.5Z" fill="white"/>
</svg>
