<svg width="32" height="24" viewBox="0 0 32 24" fill="none" xmlns="http://www.w3.org/2000/svg">
<mask id="mask0_55_13676" style="mask-type:alpha" maskUnits="userSpaceOnUse" x="0" y="0" width="32" height="24">
<rect width="32" height="24" fill="white"/>
</mask>
<g mask="url(#mask0_55_13676)">
<path fill-rule="evenodd" clip-rule="evenodd" d="M0 0V24H32V0H0Z" fill="#F7FCFF"/>
<mask id="mask1_55_13676" style="mask-type:alpha" maskUnits="userSpaceOnUse" x="0" y="0" width="32" height="24">
<path fill-rule="evenodd" clip-rule="evenodd" d="M0 0V24H32V0H0Z" fill="white"/>
</mask>
<g mask="url(#mask1_55_13676)">
<path fill-rule="evenodd" clip-rule="evenodd" d="M0 2V22H32V2H0Z" fill="#FECA00"/>
<path d="M0 8.25H-1.75V10V14V15.75H0H32H33.75V14V10V8.25H32H0Z" fill="#272727" stroke="#E31D1C" stroke-width="3.5"/>
<path fill-rule="evenodd" clip-rule="evenodd" d="M0 4V0H32V4H0ZM0 24V20H32V24H0Z" fill="#5EAA22"/>
</g>
<path d="M0.596961 -0.80227L-1 -1.99055V0V24V25.9609L0.587223 24.8094L16.9185 12.9614L18.0202 12.1622L16.9283 11.3497L0.596961 -0.80227Z" fill="#F7FCFF" stroke="#272727" stroke-width="2"/>
<mask id="mask2_55_13676" style="mask-type:alpha" maskUnits="userSpaceOnUse" x="-2" y="-4" width="22" height="32">
<path d="M0.596961 -0.80227L-1 -1.99055V0V24V25.9609L0.587223 24.8094L16.9185 12.9614L18.0202 12.1622L16.9283 11.3497L0.596961 -0.80227Z" fill="white" stroke="white" stroke-width="2"/>
</mask>
<g mask="url(#mask2_55_13676)">
<path fill-rule="evenodd" clip-rule="evenodd" d="M7.47844 14.2783L3.6995 17.3287L5.43288 13.2521L2.45446 10.3839H5.97007L7.41265 6.92505L8.94484 10.3839H12.4545L9.31871 13.2521L10.8881 17.3287L7.47844 14.2783Z" fill="#E31D1C"/>
<path fill-rule="evenodd" clip-rule="evenodd" d="M5.01761 8.42151C5.01761 8.42151 4.96275 8.28925 5.28657 8.17231C5.61039 8.05537 5.70917 7.80758 5.96302 7.98995C6.21686 8.17231 6.37567 7.80567 6.4485 8.33153C6.52133 8.8574 6.72208 9.68662 6.72208 9.68662L10.0097 12.1573H9.39197C9.39197 12.1573 8.43013 13.5705 8.58893 14.8104C8.58893 14.8104 7.92529 14.7095 7.02578 14.7095C6.12627 14.7095 5.53712 14.925 5.53712 14.925L5.01761 13.0014C5.01761 13.0014 5.20571 12.6782 5.28657 12.4177C5.36743 12.1573 5.70224 12.1092 5.70224 11.902C5.70224 11.6948 5.37199 11.5211 5.53712 10.9848C5.70224 10.4484 5.70224 8.84406 5.70224 8.84406C5.70224 8.84406 5.18037 8.61457 5.28657 8.61457C5.39277 8.61457 5.63485 8.42151 5.46071 8.42151C5.28657 8.42151 5.01761 8.42151 5.01761 8.42151Z" fill="#FECA00"/>
<path d="M6.72208 9.68662L6.60059 9.71603L6.61114 9.75961L6.64698 9.78655L9.63526 12.0323H9.39197H9.32585L9.28864 12.0869L9.39197 12.1573L9.28859 12.087L9.28853 12.0871L9.28833 12.0874L9.28767 12.0884L9.28534 12.0918L9.27677 12.1048C9.26938 12.116 9.25874 12.1324 9.24533 12.1536C9.21853 12.1959 9.18069 12.2574 9.13592 12.335C9.04644 12.4899 8.92886 12.7096 8.81624 12.9691C8.61085 13.4423 8.41573 14.0618 8.45022 14.6662C8.37547 14.6572 8.27599 14.6463 8.15596 14.6355C7.87472 14.61 7.48008 14.5845 7.02578 14.5845C6.56614 14.5845 6.18537 14.6395 5.91874 14.6949C5.79471 14.7206 5.69525 14.7464 5.62387 14.7668L5.15163 13.0182C5.15359 13.0147 5.15565 13.0109 5.15779 13.007C5.17725 12.9716 5.20401 12.9218 5.23339 12.8635C5.29147 12.7483 5.36241 12.595 5.40595 12.4548C5.43254 12.3691 5.50057 12.3144 5.59981 12.2398L5.60291 12.2375C5.64681 12.2045 5.70114 12.1637 5.74317 12.1152C5.78936 12.0618 5.82724 11.9921 5.82724 11.902C5.82724 11.8178 5.79369 11.7451 5.76378 11.6884C5.75129 11.6647 5.73957 11.6439 5.7283 11.6239C5.7086 11.5889 5.69027 11.5563 5.67157 11.5151C5.62095 11.4037 5.58391 11.2576 5.65658 11.0216C5.70172 10.8749 5.7336 10.6637 5.75693 10.4368C5.78049 10.2076 5.7961 9.95414 5.80648 9.7188C5.81687 9.48325 5.82205 9.26473 5.82465 9.10515C5.82594 9.02533 5.82659 8.96019 5.82692 8.91494L5.8272 8.86263L5.82724 8.84888L5.82724 8.84532L5.82724 8.8444L5.82724 8.84415V8.84409L5.70224 8.84406H5.82724V8.76247L5.75256 8.72963L5.75256 8.72963L5.75255 8.72963L5.7525 8.7296L5.75225 8.72949L5.75121 8.72903L5.74701 8.72718L5.73096 8.72004L5.67414 8.69443C5.63533 8.67676 5.58686 8.65435 5.53883 8.63125C5.54754 8.62421 5.55589 8.617 5.56378 8.60968C5.58122 8.5935 5.5994 8.57403 5.61412 8.55197C5.62699 8.53268 5.64724 8.49673 5.6469 8.45075C5.64646 8.39137 5.61258 8.34428 5.56668 8.31965C5.52998 8.29996 5.49025 8.29651 5.46071 8.29651H5.45969H5.45867H5.45764H5.45661H5.45558H5.45455H5.45352H5.45248H5.45144H5.4504H5.44936H5.44831H5.44727H5.44622H5.44517H5.44412H5.44306H5.44201H5.44095H5.43989H5.43883H5.43777H5.4367H5.43563H5.43457H5.43349H5.43242H5.43135H5.43027H5.4292H5.42812H5.42704H5.42595H5.42487H5.42378H5.4227H5.42161H5.42052H5.41943H5.41833H5.41724H5.41614H5.41504H5.41394H5.41284H5.41174H5.41064H5.40953H5.40843H5.40732H5.40621H5.4051H5.40399H5.40287H5.40176H5.40064H5.39953H5.39841H5.39729H5.39617H5.39505H5.39392H5.3928H5.39167H5.39055H5.38942H5.38829H5.38716H5.38603H5.3849H5.38376H5.38263H5.3815H5.38036H5.37922H5.37808H5.37695H5.37581H5.37467H5.37352H5.37238H5.37124H5.37009H5.36895H5.3678H5.36666H5.36551H5.36436H5.36321H5.36206H5.36091H5.35976H5.35861H5.35746H5.35631H5.35515H5.354H5.35284H5.35169H5.35053H5.34938H5.34822H5.34706H5.3459H5.34475H5.34359H5.34243H5.34127H5.34011H5.33895H5.33779H5.33663H5.33546H5.3343H5.33314H5.33198H5.33081H5.32965H5.32849H5.32732H5.32616H5.325H5.32383H5.32267H5.3215H5.32034H5.31917H5.31801H5.31684H5.31568H5.31451H5.31335H5.31218H5.31117C5.31693 8.29431 5.32288 8.2921 5.32903 8.28988C5.42152 8.25648 5.49679 8.21409 5.55956 8.17476C5.58757 8.1572 5.61045 8.14212 5.6308 8.1287C5.66041 8.10917 5.68469 8.09317 5.71168 8.07819C5.75184 8.05591 5.77562 8.04984 5.7943 8.05005C5.81147 8.05026 5.84075 8.05603 5.89008 8.09147C6.03826 8.19792 6.19313 8.17102 6.25535 8.16021C6.26497 8.15854 6.27238 8.15726 6.2772 8.15691C6.28891 8.17698 6.30806 8.2287 6.32468 8.34868C6.36179 8.6166 6.43105 8.95927 6.49045 9.2328C6.52025 9.37003 6.54776 9.49072 6.56782 9.57711C6.57785 9.62032 6.58602 9.65497 6.5917 9.67886L6.59826 9.70634L6.59998 9.71352L6.60043 9.71537L6.60055 9.71585L6.60058 9.71598L6.60059 9.71601L6.72208 9.68662Z" stroke="#0A0A0A" stroke-width="0.25"/>
</g>
</g>
</svg>
