<svg width="32" height="24" viewBox="0 0 32 24" fill="none" xmlns="http://www.w3.org/2000/svg">
<mask id="mask0_55_13716" style="mask-type:alpha" maskUnits="userSpaceOnUse" x="0" y="0" width="32" height="24">
<rect width="32" height="24" fill="white"/>
</mask>
<g mask="url(#mask0_55_13716)">
<path fill-rule="evenodd" clip-rule="evenodd" d="M0 0H32V24H0V0Z" fill="#F7FCFF"/>
<path fill-rule="evenodd" clip-rule="evenodd" d="M0 0V8H32V0H0Z" fill="#272727"/>
<path fill-rule="evenodd" clip-rule="evenodd" d="M0 16V24H32V16H0Z" fill="#4E8B1D"/>
<path d="M0 7H-1V8V16V17H0H32H33V16V8V7H32H0Z" fill="#E31D1C" stroke="#F7FCFF" stroke-width="2"/>
<path fill-rule="evenodd" clip-rule="evenodd" d="M0 0L20 12L0 24V0Z" fill="#3D58DB"/>
<path fill-rule="evenodd" clip-rule="evenodd" d="M6.64787 14.4087L4.62835 16.5087L4.41738 13.5232L1.84191 11.9367L4.52779 11.0939L4.96704 8.13574L6.82652 10.478L9.53855 9.75128L8.1368 12.5266L9.49992 15.2034L6.64787 14.4087Z" fill="#FECA00"/>
</g>
</svg>
