<svg width="32" height="24" viewBox="0 0 32 24" fill="none" xmlns="http://www.w3.org/2000/svg">
<mask id="mask0_55_13686" style="mask-type:alpha" maskUnits="userSpaceOnUse" x="0" y="0" width="32" height="24">
<rect width="32" height="24" fill="white"/>
</mask>
<g mask="url(#mask0_55_13686)">
<path fill-rule="evenodd" clip-rule="evenodd" d="M0 0V24H32V0H0Z" fill="#2E42A5"/>
<mask id="mask1_55_13686" style="mask-type:alpha" maskUnits="userSpaceOnUse" x="0" y="0" width="32" height="24">
<path fill-rule="evenodd" clip-rule="evenodd" d="M0 0V24H32V0H0Z" fill="white"/>
</mask>
<g mask="url(#mask1_55_13686)">
<path fill-rule="evenodd" clip-rule="evenodd" d="M0 0V8H32V0H0Z" fill="#FECA00"/>
<path fill-rule="evenodd" clip-rule="evenodd" d="M0 16V24H32V16H0Z" fill="#E31D1C"/>
<path fill-rule="evenodd" clip-rule="evenodd" d="M12.7368 11.8595L13.7195 11.302L14.8221 11.8595L14.4261 10.7264L15.2497 9.89385H14.2015L13.718 8.82166L13.3056 9.89385H12.0761L13.0006 10.7116H11.9638L11.4802 9.63936L11.0679 10.7116H9.83836L10.7797 11.5441L10.5998 12.2705H9.81521L9.33167 11.1983L8.9193 12.2705H7.68979L8.63113 13.1031L8.45702 13.8059H8.11353L7.63 12.7337L7.21763 13.8059H5.98812L6.92945 14.6385L6.64879 15.7715L7.63148 15.2141L8.7341 15.7715L8.33812 14.6385L9.16166 13.8059H9.10875L9.33315 13.6786L10.4358 14.2361L10.0398 13.1031L10.5117 12.626L10.499 12.6772L11.4817 12.1197L12.5843 12.6772L12.1884 11.5441L13.0066 10.7169L13.0174 10.7264L12.7368 11.8595Z" fill="#F7FCFF"/>
<path fill-rule="evenodd" clip-rule="evenodd" d="M19.2229 11.8156L18.2402 11.2582L17.1376 11.8156L17.5336 10.6826L16.71 9.85002H17.7582L18.2417 8.77783L18.6541 9.85002H19.8836L18.9591 10.6677H20.0008L20.4844 9.59554L20.8967 10.6677H22.1262L21.1849 11.5003L21.3648 12.2267H22.1494L22.6329 11.1545L23.0453 12.2267H24.2748L23.3335 13.0593L23.5076 13.7621H23.8511L24.3346 12.6899L24.747 13.7621H25.9765L25.0351 14.5947L25.3158 15.7277L24.3331 15.1702L23.2305 15.7277L23.6265 14.5947L22.8029 13.7621H22.8558L22.6314 13.6348L21.5288 14.1923L21.9248 13.0593L21.4529 12.5821L21.4656 12.6333L20.4829 12.0759L19.3803 12.6333L19.7762 11.5003L18.9557 10.6707L18.9423 10.6826L19.2229 11.8156Z" fill="#F7FCFF"/>
<path fill-rule="evenodd" clip-rule="evenodd" d="M15.8329 10.5348L14.8502 11.0923L15.1309 9.95923L14.1895 9.12664H15.4191L15.8314 8.05444L16.315 9.12664H17.3631L16.5396 9.95923L16.9355 11.0923L15.8329 10.5348Z" fill="#F7FCFF"/>
</g>
</g>
</svg>
