<svg width="32" height="24" viewBox="0 0 32 24" fill="none" xmlns="http://www.w3.org/2000/svg">
<mask id="mask0_55_13730" style="mask-type:alpha" maskUnits="userSpaceOnUse" x="0" y="0" width="32" height="24">
<rect width="32" height="24" fill="white"/>
</mask>
<g mask="url(#mask0_55_13730)">
<path fill-rule="evenodd" clip-rule="evenodd" d="M0 0V24H32V0H0Z" fill="#3D58DB"/>
<mask id="mask1_55_13730" style="mask-type:alpha" maskUnits="userSpaceOnUse" x="0" y="0" width="32" height="24">
<path fill-rule="evenodd" clip-rule="evenodd" d="M0 0V24H32V0H0Z" fill="white"/>
</mask>
<g mask="url(#mask1_55_13730)">
<path fill-rule="evenodd" clip-rule="evenodd" d="M0 24H32V0L0 24Z" fill="#579D20"/>
<path d="M-0.781991 24.7452L-2.58574 22.2491L33.6752 -1.95435L35.4789 0.541743L-0.781991 24.7452Z" fill="#FECA00"/>
<path fill-rule="evenodd" clip-rule="evenodd" d="M3.65329 6.54657L5.01686 5.60077L6.44488 6.45095L5.94472 4.92664L6.94341 3.83588H5.59031L5.01686 2.23401L4.44341 3.83588L3.088 3.89183L4.089 4.92664L3.65329 6.54657ZM9.31147 6.54657L10.675 5.60077L12.1031 6.45095L11.6029 4.92664L12.6016 3.83588H11.2485L10.675 2.23401L10.1016 3.83588L8.74618 3.89183L9.74718 4.92664L9.31147 6.54657Z" fill="#F7FCFF"/>
<path fill-rule="evenodd" clip-rule="evenodd" d="M6.64799 9.45452L8.01156 8.50873L9.43958 9.35891L8.93942 7.8346L9.93812 6.74383H8.58501L8.01156 5.14197L7.43811 6.74383L6.0827 6.79979L7.0837 7.8346L6.64799 9.45452ZM5.01686 11.6008L3.65329 12.5466L4.089 10.9266L3.088 9.89182L4.44341 9.83587L5.01686 8.234L5.59031 9.83587H6.94341L5.94472 10.9266L6.44488 12.4509L5.01686 11.6008ZM10.675 11.6008L9.31147 12.5466L9.74718 10.9266L8.74618 9.89182L10.1016 9.83587L10.675 8.234L11.2485 9.83587H12.6016L11.6029 10.9266L12.1031 12.4509L10.675 11.6008Z" fill="#F7FCFF"/>
</g>
</g>
</svg>
