<svg width="32" height="24" viewBox="0 0 32 24" fill="none" xmlns="http://www.w3.org/2000/svg">
<mask id="mask0_55_13808" style="mask-type:alpha" maskUnits="userSpaceOnUse" x="0" y="0" width="32" height="24">
<rect width="32" height="24" fill="white"/>
</mask>
<g mask="url(#mask0_55_13808)">
<path fill-rule="evenodd" clip-rule="evenodd" d="M0 0V24H32V0H0Z" fill="#5196ED"/>
<mask id="mask1_55_13808" style="mask-type:alpha" maskUnits="userSpaceOnUse" x="0" y="0" width="32" height="24">
<path fill-rule="evenodd" clip-rule="evenodd" d="M0 0V24H32V0H0Z" fill="white"/>
</mask>
<g mask="url(#mask1_55_13808)">
<path fill-rule="evenodd" clip-rule="evenodd" d="M0 12V18H32V12H0Z" fill="#AF0100"/>
<path fill-rule="evenodd" clip-rule="evenodd" d="M0 6V12H32V6H0Z" fill="#F7FCFF"/>
<path fill-rule="evenodd" clip-rule="evenodd" d="M0 0V6H32V0H0Z" fill="#FECA00"/>
<path fill-rule="evenodd" clip-rule="evenodd" d="M0 0L19 12L0 24V0Z" fill="#5EAA22"/>
<path fill-rule="evenodd" clip-rule="evenodd" d="M7.30462 16.5012C7.30462 16.5012 3.72126 15.278 3.848 11.4492C3.97475 7.62041 7.62343 6.87017 7.62343 6.87017C6.34562 5.94738 1.77327 7.02873 1.62694 11.4492C1.48062 15.8697 5.94212 16.8518 7.30462 16.5012ZM7.41222 9.80901L7.52447 9.1545L7.04894 8.69098L7.70611 8.59549L8 8L8.29389 8.59549L8.95106 8.69098L8.47553 9.1545L8.58779 9.80901L8 9.5L7.41222 9.80901ZM7.52447 11.1545L7.41222 11.809L8 11.5L8.58779 11.809L8.47553 11.1545L8.95106 10.691L8.29389 10.5955L8 10L7.70611 10.5955L7.04894 10.691L7.52447 11.1545ZM7.41222 13.809L7.52447 13.1545L7.04894 12.691L7.70611 12.5955L8 12L8.29389 12.5955L8.95106 12.691L8.47553 13.1545L8.58779 13.809L8 13.5L7.41222 13.809ZM7.41222 15.809L7.52447 15.1545L7.04894 14.691L7.70611 14.5955L8 14L8.29389 14.5955L8.95106 14.691L8.47553 15.1545L8.58779 15.809L8 15.5L7.41222 15.809Z" fill="#F7FCFF"/>
</g>
</g>
</svg>
