<svg width="32" height="24" viewBox="0 0 32 24" fill="none" xmlns="http://www.w3.org/2000/svg">
<mask id="mask0_55_13801" style="mask-type:alpha" maskUnits="userSpaceOnUse" x="0" y="0" width="32" height="24">
<rect width="32" height="24" fill="white"/>
</mask>
<g mask="url(#mask0_55_13801)">
<path fill-rule="evenodd" clip-rule="evenodd" d="M0 0V24H32V0H0Z" fill="#4EC7EE"/>
<mask id="mask1_55_13801" style="mask-type:alpha" maskUnits="userSpaceOnUse" x="0" y="0" width="32" height="24">
<path fill-rule="evenodd" clip-rule="evenodd" d="M0 0V24H32V0H0Z" fill="white"/>
</mask>
<g mask="url(#mask1_55_13801)">
<path d="M4.08996 23.2369C4.0265 23.7069 4.32755 24.0417 4.83258 24.2572C5.51149 24.5468 6.19653 24.2756 6.82667 23.5774L6.01006 22.8404C5.73015 23.1505 5.52787 23.27 5.37173 23.268C5.67746 23.0496 6.06917 22.7799 6.5463 22.4595L6.77531 22.1278C6.95925 21.3388 6.38731 20.9113 5.51507 20.9113C5.00131 20.9113 4.59057 21.0129 4.32997 21.2314C3.90184 21.5904 3.97514 22.1635 4.42568 22.4616C4.46142 22.4852 4.49769 22.5065 4.53445 22.5255C4.28171 22.7389 4.12745 22.9593 4.08996 23.2369Z" fill="#FFE402"/>
<path d="M4.56491 22.4954C4.56491 22.4954 4.68969 22.2189 4.6273 22.075" stroke="#FFE402" stroke-width="1.1"/>
<path d="M8.56939 23.2369C8.63285 23.7069 8.3318 24.0417 7.82677 24.2572C7.14786 24.5468 6.46282 24.2756 5.83268 23.5774L6.64929 22.8404C6.9292 23.1505 7.13147 23.27 7.28762 23.268C6.98189 23.0496 6.59018 22.7799 6.11304 22.4595L5.88403 22.1278C5.7001 21.3388 6.27203 20.9113 7.14428 20.9113C7.65803 20.9113 8.06877 21.0129 8.32937 21.2314C8.75751 21.5904 8.68421 22.1635 8.23367 22.4616C8.19793 22.4852 8.16166 22.5065 8.12489 22.5255C8.37764 22.7389 8.5319 22.9593 8.56939 23.2369Z" fill="#FFE402"/>
<path d="M8.59578 22.2692L7.59312 22.7216C7.45237 22.4097 7.41032 22.1263 7.52744 21.8562L8.53667 22.2937C8.5706 22.2155 8.57014 22.2124 8.59578 22.2692Z" fill="#FFE402"/>
<path d="M4.08996 0.762999C4.0265 0.293 4.32755 -0.0417682 4.83258 -0.257225C5.51149 -0.546867 6.19653 -0.275644 6.82667 0.422567L6.01006 1.15956C5.73015 0.849401 5.52787 0.729906 5.37173 0.731937C5.67746 0.950357 6.06917 1.22 6.5463 1.54042L6.77531 1.87214C6.95925 2.66114 6.38731 3.08866 5.51507 3.08866C5.00131 3.08866 4.59057 2.98701 4.32997 2.7685C3.90184 2.40953 3.97514 1.83648 4.42568 1.53834C4.46142 1.51469 4.49769 1.49341 4.53445 1.47445C4.28171 1.26101 4.12745 1.04065 4.08996 0.762999Z" fill="#FFE402"/>
<path d="M8.56939 0.762999C8.63285 0.293 8.3318 -0.0417682 7.82677 -0.257225C7.14786 -0.546867 6.46282 -0.275644 5.83268 0.422567L6.64929 1.15956C6.9292 0.849401 7.13147 0.729906 7.28762 0.731937C6.98189 0.950357 6.59018 1.22 6.11304 1.54042L5.88403 1.87214C5.7001 2.66114 6.27203 3.08866 7.14428 3.08866C7.65803 3.08866 8.06877 2.98701 8.32937 2.7685C8.75751 2.40953 8.68421 1.83648 8.23367 1.53834C8.19793 1.51469 8.16166 1.49341 8.12489 1.47445C8.37764 1.26101 8.5319 1.04065 8.56939 0.762999Z" fill="#FFE402"/>
<path fill-rule="evenodd" clip-rule="evenodd" d="M5.09381 20.063C4.46279 20.0812 4.07017 20.2113 4.07017 20.8196C4.07017 21.4903 4.72182 21.7002 5.4151 21.7002C6.04313 21.7002 6.75064 21.3104 6.75064 20.6124C6.75064 20.1877 6.21068 19.3307 4.85105 17.473C4.80392 17.4291 4.77797 17.4068 4.75719 17.4066C4.83964 17.3607 4.98485 17.307 5.17645 17.307C5.24297 17.307 5.32942 17.3406 5.4151 17.3837V18.1123H6.85458V17.5623C6.85458 16.9409 5.93601 16.207 5.17645 16.207C4.5131 16.207 3.98055 16.5225 3.71081 16.9765C3.44423 17.4251 3.64807 17.8558 4.03091 18.1983C4.6006 18.984 5.04292 19.6344 5.32032 20.0617C5.2184 20.0609 5.16244 20.061 5.09381 20.063ZM5.16142 20.5702C5.14146 20.5657 5.12226 20.5609 5.10431 20.5557C5.11768 20.5697 5.17017 20.6323 5.17017 20.8196C5.17017 20.9216 5.16526 20.9933 5.15867 21.0438C4.97309 20.8801 4.9212 20.5947 5.05701 20.375L5.06037 20.3695L5.03966 20.3283C5.04241 20.327 5.04516 20.3255 5.04787 20.3242C5.07984 20.3077 5.10612 20.2942 5.06037 20.3695L5.16142 20.5702ZM5.10431 20.5557L5.08524 20.5498C5.0873 20.5505 5.08999 20.5518 5.09314 20.5538L5.10431 20.5557ZM5.65064 20.6124C5.65064 20.5936 5.64426 20.5824 5.63322 20.5764L5.63962 20.5834C5.64693 20.5985 5.65064 20.6082 5.65064 20.6124Z" fill="#FFE402"/>
<path fill-rule="evenodd" clip-rule="evenodd" d="M7.56556 20.063C8.19657 20.0812 8.58919 20.2113 8.58919 20.8196C8.58919 21.4903 7.93755 21.7002 7.24426 21.7002C6.61623 21.7002 5.90872 21.3104 5.90872 20.6124C5.90872 20.1877 6.44868 19.3307 7.80832 17.473C7.85544 17.4291 7.88139 17.4068 7.90217 17.4066C7.81972 17.3607 7.67451 17.307 7.48291 17.307C7.41639 17.307 7.32995 17.3406 7.24426 17.3837V18.1123H5.80479V17.5623C5.80479 16.9409 6.72335 16.207 7.48291 16.207C8.14626 16.207 8.67881 16.5225 8.94856 16.9765C9.21513 17.4251 9.01129 17.8558 8.62846 18.1983C8.05877 18.984 7.61644 19.6344 7.33904 20.0617C7.44096 20.0609 7.49692 20.061 7.56556 20.063ZM7.49794 20.5702C7.5179 20.5657 7.53711 20.5609 7.55505 20.5557C7.54169 20.5697 7.48919 20.6323 7.48919 20.8196C7.48919 20.9216 7.4941 20.9933 7.50069 21.0438C7.68628 20.8801 7.73816 20.5947 7.60235 20.375L7.59899 20.3695L7.6197 20.3283C7.61695 20.327 7.6142 20.3255 7.61149 20.3242C7.57952 20.3077 7.55324 20.2942 7.59899 20.3695L7.49794 20.5702ZM7.55505 20.5557L7.57412 20.5498C7.57206 20.5505 7.56937 20.5518 7.56622 20.5538L7.55505 20.5557ZM7.00872 20.6124C7.00872 20.5936 7.01511 20.5824 7.02614 20.5764L7.01974 20.5834C7.01243 20.5985 7.00872 20.6082 7.00872 20.6124Z" fill="#FFE402"/>
<path fill-rule="evenodd" clip-rule="evenodd" d="M5.09381 13.3547C4.46279 13.3366 4.07017 13.2064 4.07017 12.5981C4.07017 11.9274 4.72182 11.7175 5.4151 11.7175C6.04313 11.7175 6.75064 12.1073 6.75064 12.8054C6.75064 13.23 6.21068 14.087 4.85105 15.9447C4.80392 15.9886 4.77797 16.011 4.75719 16.0111C4.83964 16.057 4.98485 16.1108 5.17645 16.1108C5.24297 16.1108 5.32942 16.0771 5.4151 16.034V15.3055H6.85458V15.8555C6.85458 16.4769 5.93601 17.2108 5.17645 17.2108C4.5131 17.2108 3.98055 16.8952 3.71081 16.4412C3.44423 15.9926 3.64807 15.5619 4.03091 15.2194C4.6006 14.4337 5.04292 13.7833 5.32032 13.356C5.2184 13.3568 5.16244 13.3567 5.09381 13.3547ZM5.16142 12.8475C5.14146 12.852 5.12226 12.8568 5.10431 12.862C5.11768 12.848 5.17017 12.7855 5.17017 12.5981C5.17017 12.4961 5.16526 12.4244 5.15867 12.3739C4.97309 12.5377 4.9212 12.8231 5.05701 13.0428L5.06037 13.0482L5.03966 13.0894C5.04241 13.0908 5.04516 13.0922 5.04787 13.0936C5.07984 13.11 5.10612 13.1236 5.06037 13.0482L5.16142 12.8475ZM5.10431 12.862L5.08524 12.8679C5.0873 12.8672 5.08999 12.8659 5.09314 12.8639L5.10431 12.862ZM5.65064 12.8054C5.65064 12.8242 5.64426 12.8353 5.63322 12.8413L5.63962 12.8343C5.64693 12.8192 5.65064 12.8095 5.65064 12.8054Z" fill="#FFE402"/>
<path fill-rule="evenodd" clip-rule="evenodd" d="M7.56556 13.3547C8.19657 13.3366 8.58919 13.2064 8.58919 12.5981C8.58919 11.9274 7.93755 11.7175 7.24426 11.7175C6.61623 11.7175 5.90872 12.1073 5.90872 12.8054C5.90872 13.23 6.44868 14.087 7.80832 15.9447C7.85544 15.9886 7.88139 16.011 7.90217 16.0111C7.81972 16.057 7.67451 16.1108 7.48291 16.1108C7.41639 16.1108 7.32995 16.0771 7.24426 16.034V15.3055H5.80479V15.8555C5.80479 16.4769 6.72335 17.2108 7.48291 17.2108C8.14626 17.2108 8.67881 16.8952 8.94856 16.4412C9.21513 15.9926 9.01129 15.5619 8.62846 15.2194C8.05877 14.4337 7.61644 13.7833 7.33904 13.356C7.44096 13.3568 7.49692 13.3567 7.56556 13.3547ZM7.49794 12.8475C7.5179 12.852 7.53711 12.8568 7.55505 12.862C7.54169 12.848 7.48919 12.7855 7.48919 12.5981C7.48919 12.4961 7.4941 12.4244 7.50069 12.3739C7.68628 12.5377 7.73816 12.8231 7.60235 13.0428L7.59899 13.0482L7.6197 13.0894C7.61695 13.0908 7.6142 13.0922 7.61149 13.0936C7.57952 13.11 7.55324 13.1236 7.59899 13.0482L7.49794 12.8475ZM7.55505 12.862L7.57412 12.8679C7.57206 12.8672 7.56937 12.8659 7.56622 12.8639L7.55505 12.862ZM7.00872 12.8054C7.00872 12.8242 7.01511 12.8353 7.02614 12.8413L7.01974 12.8343C7.01243 12.8192 7.00872 12.8095 7.00872 12.8054Z" fill="#FFE402"/>
<path fill-rule="evenodd" clip-rule="evenodd" d="M5.09381 10.6453C4.46279 10.6634 4.07017 10.7936 4.07017 11.4019C4.07017 12.0726 4.72182 12.2825 5.4151 12.2825C6.04313 12.2825 6.75064 11.8927 6.75064 11.1946C6.75064 10.77 6.21068 9.913 4.85105 8.0553C4.80392 8.01141 4.77797 7.98905 4.75719 7.9889C4.83964 7.94299 4.98485 7.88923 5.17645 7.88923C5.24297 7.88923 5.32942 7.92287 5.4151 7.96597V8.69454H6.85458V8.14454C6.85458 7.52315 5.93601 6.78923 5.17645 6.78923C4.5131 6.78923 3.98055 7.10478 3.71081 7.55875C3.44423 8.0074 3.64807 8.43806 4.03091 8.78062C4.6006 9.56632 5.04292 10.2167 5.32032 10.644C5.2184 10.6432 5.16244 10.6433 5.09381 10.6453ZM5.16142 11.1525C5.14146 11.148 5.12226 11.1432 5.10431 11.138C5.11768 11.152 5.17017 11.2145 5.17017 11.4019C5.17017 11.5039 5.16526 11.5756 5.15867 11.6261C4.97309 11.4623 4.9212 11.1769 5.05701 10.9572L5.06037 10.9518L5.03966 10.9106C5.04241 10.9092 5.04516 10.9078 5.04787 10.9064C5.07984 10.89 5.10612 10.8764 5.06037 10.9518L5.16142 11.1525ZM5.10431 11.138L5.08524 11.1321C5.0873 11.1328 5.08999 11.1341 5.09314 11.1361L5.10431 11.138ZM5.65064 11.1946C5.65064 11.1758 5.64426 11.1647 5.63322 11.1587L5.63962 11.1657C5.64693 11.1808 5.65064 11.1905 5.65064 11.1946Z" fill="#FFE402"/>
<path fill-rule="evenodd" clip-rule="evenodd" d="M7.56556 10.6453C8.19657 10.6634 8.58919 10.7936 8.58919 11.4019C8.58919 12.0726 7.93755 12.2825 7.24426 12.2825C6.61623 12.2825 5.90872 11.8927 5.90872 11.1946C5.90872 10.77 6.44868 9.913 7.80832 8.0553C7.85544 8.01141 7.88139 7.98905 7.90217 7.9889C7.81972 7.94299 7.67451 7.88923 7.48291 7.88923C7.41639 7.88923 7.32995 7.92287 7.24426 7.96597V8.69454H5.80479V8.14454C5.80479 7.52315 6.72335 6.78923 7.48291 6.78923C8.14626 6.78923 8.67881 7.10478 8.94856 7.55875C9.21513 8.0074 9.01129 8.43806 8.62846 8.78062C8.05877 9.56632 7.61644 10.2167 7.33904 10.644C7.44096 10.6432 7.49692 10.6433 7.56556 10.6453ZM7.49794 11.1525C7.5179 11.148 7.53711 11.1432 7.55505 11.138C7.54169 11.152 7.48919 11.2145 7.48919 11.4019C7.48919 11.5039 7.4941 11.5756 7.50069 11.6261C7.68628 11.4623 7.73816 11.1769 7.60235 10.9572L7.59899 10.9518L7.6197 10.9106C7.61695 10.9092 7.6142 10.9078 7.61149 10.9064C7.57952 10.89 7.55324 10.8764 7.59899 10.9518L7.49794 11.1525ZM7.55505 11.138L7.57412 11.1321C7.57206 11.1328 7.56937 11.1341 7.56622 11.1361L7.55505 11.138ZM7.00872 11.1946C7.00872 11.1758 7.01511 11.1647 7.02614 11.1587L7.01974 11.1657C7.01243 11.1808 7.00872 11.1905 7.00872 11.1946Z" fill="#FFE402"/>
<path fill-rule="evenodd" clip-rule="evenodd" d="M5.09381 3.93701C4.46279 3.91885 4.07017 3.78868 4.07017 3.1804C4.07017 2.50965 4.72182 2.2998 5.4151 2.2998C6.04313 2.2998 6.75064 2.68959 6.75064 3.38765C6.75064 3.81232 6.21068 4.66928 4.85105 6.52697C4.80392 6.57086 4.77797 6.59323 4.75719 6.59337C4.83964 6.63928 4.98485 6.69305 5.17645 6.69305C5.24297 6.69305 5.32942 6.6594 5.4151 6.6163V5.88774H6.85458V6.43774C6.85458 7.05913 5.93601 7.79305 5.17645 7.79305C4.5131 7.79305 3.98055 7.47749 3.71081 7.02352C3.44423 6.57488 3.64807 6.14421 4.03091 5.80166C4.6006 5.01595 5.04292 4.36559 5.32032 3.93827C5.2184 3.93912 5.16244 3.93898 5.09381 3.93701ZM5.16142 3.42982C5.14146 3.43426 5.12226 3.43911 5.10431 3.44432C5.11768 3.43031 5.17017 3.36773 5.17017 3.1804C5.17017 3.07841 5.16526 3.00666 5.15867 2.95621C4.97309 3.11993 4.9212 3.40534 5.05701 3.62503L5.06037 3.63052L5.03966 3.67165C5.04241 3.67304 5.04516 3.67445 5.04787 3.67585C5.07984 3.69231 5.10612 3.70584 5.06037 3.63052L5.16142 3.42982ZM5.10431 3.44432L5.08524 3.45015C5.0873 3.44949 5.08999 3.44822 5.09314 3.44618L5.10431 3.44432ZM5.65064 3.38765C5.65064 3.40643 5.64426 3.41759 5.63322 3.42357L5.63962 3.41656C5.64693 3.40152 5.65064 3.39181 5.65064 3.38765Z" fill="#FFE402"/>
<path fill-rule="evenodd" clip-rule="evenodd" d="M7.56556 3.93701C8.19657 3.91885 8.58919 3.78868 8.58919 3.1804C8.58919 2.50965 7.93755 2.2998 7.24426 2.2998C6.61623 2.2998 5.90872 2.68959 5.90872 3.38765C5.90872 3.81232 6.44868 4.66928 7.80832 6.52697C7.85544 6.57086 7.88139 6.59323 7.90217 6.59337C7.81972 6.63928 7.67451 6.69305 7.48291 6.69305C7.41639 6.69305 7.32995 6.6594 7.24426 6.6163V5.88774H5.80479V6.43774C5.80479 7.05913 6.72335 7.79305 7.48291 7.79305C8.14626 7.79305 8.67881 7.47749 8.94856 7.02352C9.21513 6.57488 9.01129 6.14421 8.62846 5.80166C8.05877 5.01595 7.61644 4.36559 7.33904 3.93827C7.44096 3.93912 7.49692 3.93898 7.56556 3.93701ZM7.49794 3.42982C7.5179 3.43426 7.53711 3.43911 7.55505 3.44432C7.54169 3.43031 7.48919 3.36773 7.48919 3.1804C7.48919 3.07841 7.4941 3.00666 7.50069 2.95621C7.68628 3.11993 7.73816 3.40534 7.60235 3.62503L7.59899 3.63052L7.6197 3.67165C7.61695 3.67304 7.6142 3.67445 7.61149 3.67585C7.57952 3.69231 7.55324 3.70584 7.59899 3.63052L7.49794 3.42982ZM7.55505 3.44432L7.57412 3.45015C7.57206 3.44949 7.56937 3.44822 7.56622 3.44618L7.55505 3.44432ZM7.00872 3.38765C7.00872 3.40643 7.01511 3.41759 7.02614 3.42357L7.01974 3.41656C7.01243 3.40152 7.00872 3.39181 7.00872 3.38765Z" fill="#FFE402"/>
<path fill-rule="evenodd" clip-rule="evenodd" d="M18.9867 2.78479L19.3962 4.3125C19.3962 4.3125 19.401 4.65959 19.0089 4.65959C18.6168 4.65959 18.597 4.3125 18.597 4.3125L18.9867 2.78479ZM22.4503 8.61997C22.4503 10.6082 20.9326 12.22 19.0603 12.22C17.1881 12.22 15.6703 10.6082 15.6703 8.61997C15.6703 6.63174 17.1881 5.01997 19.0603 5.01997C20.9326 5.01997 22.4503 6.63174 22.4503 8.61997ZM20.5812 4.62057L20.6363 3.0399L19.817 4.38691C19.817 4.38691 19.7344 4.72462 20.1094 4.83926C20.4844 4.9539 20.5812 4.62057 20.5812 4.62057ZM22.1406 3.78841L21.6258 5.2839C21.6258 5.2839 21.4357 5.57434 21.1106 5.35508C20.7856 5.13581 20.9633 4.83701 20.9633 4.83701L22.1406 3.78841ZM22.4368 6.2436L23.3663 4.96398L21.9338 5.62252C21.9338 5.62252 21.6765 5.85632 21.9233 6.16104C22.17 6.46577 22.4368 6.2436 22.4368 6.2436ZM24.211 6.47758L22.9315 7.40731C22.9315 7.40731 22.6092 7.53619 22.4686 7.17013C22.3281 6.80406 22.6451 6.66122 22.6451 6.66122L24.211 6.47758ZM23.0878 8.68225L24.5833 8.16723L23.0321 7.88502C23.0321 7.88502 22.6872 7.92896 22.7146 8.32011C22.7419 8.71127 23.0878 8.68225 23.0878 8.68225ZM24.4605 9.89591L22.8798 9.9512C22.8798 9.9512 22.5406 9.87782 22.6288 9.49576C22.717 9.1137 23.0596 9.17251 23.0596 9.17251L24.4605 9.89591ZM22.3258 11.1011L23.8536 11.5104L22.7254 10.409C22.7254 10.409 22.415 10.2526 22.2189 10.5922C22.0229 10.9318 22.3258 11.1011 22.3258 11.1011ZM22.8163 12.8676L21.475 12.0296C21.475 12.0296 21.2348 11.779 21.5215 11.5116C21.8083 11.2442 22.0595 11.4846 22.0595 11.4846L22.8163 12.8676ZM20.4029 12.6537L21.4406 13.8473L21.1212 12.3034C21.1212 12.3034 20.9513 12.0001 20.5988 12.172C20.2464 12.3439 20.4029 12.6537 20.4029 12.6537ZM19.8483 14.3627L19.2049 12.9179C19.2049 12.9179 19.1459 12.5758 19.5332 12.5145C19.9205 12.4531 19.9943 12.7928 19.9943 12.7928L19.8483 14.3627ZM17.999 12.7928L18.1644 14.3658L18.7883 12.9179C18.7883 12.9179 18.8231 12.572 18.4358 12.5106C18.0485 12.4493 17.999 12.7928 17.999 12.7928ZM16.5704 13.856L16.8721 12.3034C16.8721 12.3034 17.0199 11.9894 17.3723 12.1613C17.7247 12.3331 17.5904 12.6538 17.5904 12.6538L16.5704 13.856ZM15.9338 11.4846L15.1913 12.8811L16.5183 12.0296C16.5183 12.0296 16.7405 11.7623 16.4537 11.4949C16.167 11.2275 15.9338 11.4846 15.9338 11.4846ZM14.1495 11.5275L15.2678 10.4091C15.2678 10.4091 15.566 10.2314 15.762 10.5709C15.9581 10.9105 15.6674 11.1012 15.6674 11.1012L14.1495 11.5275ZM14.9336 9.17256L13.5371 9.91518L15.1134 9.95126C15.1134 9.95126 15.4471 9.85392 15.3589 9.47186C15.2707 9.0898 14.9336 9.17256 14.9336 9.17256ZM13.4086 8.18697L14.9611 7.88508C14.9611 7.88508 15.3077 7.90449 15.2803 8.29564C15.253 8.6868 14.9054 8.68231 14.9054 8.68231L13.4086 8.18697ZM15.3481 6.66127L13.7751 6.49604L15.0617 7.40737C15.0617 7.40737 15.3928 7.51329 15.5334 7.14723C15.6739 6.78116 15.3481 6.66127 15.3481 6.66127ZM14.6144 4.97935L16.0594 5.62257C16.0594 5.62257 16.3321 5.83725 16.0854 6.14198C15.8386 6.4467 15.5564 6.24364 15.5564 6.24364L14.6144 4.97935ZM17.0299 4.83704L15.8362 3.79947L16.3674 5.28393C16.3674 5.28393 16.5778 5.56062 16.9029 5.34136C17.228 5.12209 17.0299 4.83704 17.0299 4.83704ZM17.338 3.04569L18.1762 4.38693C18.1762 4.38693 18.2823 4.71744 17.9073 4.83209C17.5323 4.94673 17.4119 4.62059 17.4119 4.62059L17.338 3.04569Z" fill="#FFE402"/>
<path fill-rule="evenodd" clip-rule="evenodd" d="M12.221 10.6719C12.2073 10.6194 12.1948 10.5681 12.1834 10.5181L12.2534 10.659L12.221 10.6719ZM12.3169 11.002C12.2803 10.8868 12.2483 10.7768 12.221 10.6719L11.7924 10.843L11.8559 11.002H11.8097L11.7918 11.0109C11.7661 10.8803 11.7532 10.7565 11.7532 10.6391V9.65198L12.1834 10.5181C12.1289 10.2775 12.1015 10.0658 12.1015 9.88129V8.6507L12.5994 9.89761L12.1267 10.0456L12.3124 10.6391H12.3032L12.2534 10.659L12.4297 11.0138L12.5997 11.557C12.4407 11.265 12.3597 11.0712 12.3597 11.002H12.3169ZM12.864 12.3886C12.6264 11.861 12.4438 11.4005 12.3169 11.002H11.8559L12.3244 12.1753L12.1509 11.9902C11.9693 11.6264 11.8489 11.3017 11.7918 11.0109L11.4105 11.2003L11.3345 11.1193V11.238L11.3171 11.2467L11.3345 11.2817V11.416C11.2845 11.2599 11.2597 11.123 11.2597 11.002V8.65844L11.7532 9.65198V7.77832L12.1015 8.6507V6.28259L13.4923 10.7263L13.3945 10.7581C13.2655 10.3727 13.2015 10.0778 13.2015 9.88129H12.6515L12.5994 9.89761L12.995 10.8883L12.8995 10.9194C12.8685 10.8096 12.8532 10.7158 12.8532 10.6391H12.3124L12.4297 11.0138L13.0439 12.2503L13.0184 12.26C12.8451 11.9876 12.7052 11.7507 12.5997 11.557L12.8409 12.3275L13.0184 12.26L13.0432 12.2988L12.864 12.3886ZM13.0547 12.3168L12.8643 12.3892L12.864 12.3886L12.633 12.5045L12.3244 12.1753L12.4714 12.5435C12.4536 12.5288 12.4429 12.5186 12.4379 12.5137C12.3296 12.3307 12.2338 12.1564 12.1509 11.9902L11.4105 11.2003L11.3345 11.238V11.2817L11.9448 12.5103H11.8845L11.8804 12.5141C11.609 12.0659 11.4279 11.7074 11.3345 11.416V12.2194L9.14987 10.6631L11.9321 13.9743C12.8213 15.0324 13.9168 15.8455 15.2129 16.4105L12.6935 16.357L15.2541 17.0797L13.9294 18.0546L16.2175 17.3516L16.8414 17.5277C17.681 17.7647 18.1485 18.0024 18.1791 18.0746L18.297 18.3532L18.5954 18.4028C19.2492 18.5116 20.4554 18.3421 22.0094 17.9977C22.5374 17.8806 23.0673 17.7503 23.4774 17.6396C23.6492 17.5932 23.7837 17.5546 23.8595 17.5297C23.8908 17.5193 23.8908 17.5193 23.9305 17.5041L23.9305 17.504C23.9562 17.4937 23.9562 17.4937 24.015 17.4618L24.0151 17.4617L24.0151 17.4617C24.0652 17.4548 24.1021 17.4498 24.1268 17.4297C24.1952 17.3742 24.1701 17.2035 24.0756 16.5598L24.0756 16.5598C23.6423 16.4439 23.5819 16.4277 23.5657 16.4476C23.563 16.4508 23.5616 16.455 23.5599 16.4598C23.4112 16.4906 23.1795 16.4871 22.8706 16.4474C25.4564 15.1758 27.155 13.9018 27.9687 12.591L29.4572 10.1933L28.5554 10.8511L28.8804 9.8066L27.5952 10.6325C27.7606 10.4131 27.8885 10.1946 27.9789 9.97631L28.947 7.6366L27.4194 9.06169L28.248 6.33047L26.2819 8.96445L18.2322 14.8881L18.1067 14.859C16.1252 14.3996 14.7336 12.9998 13.9055 10.5917L13.4923 10.7263L13.4977 10.7434L13.4003 10.7752L13.3945 10.7581L12.995 10.8883L13.0016 10.905L12.9044 10.9367L12.8995 10.9194L12.8597 10.9324C12.9935 11.367 13.1395 11.7743 13.2977 12.1539L13.0439 12.2503L13.063 12.2888L13.0432 12.2988L13.0547 12.3168ZM13.0734 12.3097L13.0547 12.3168L13.094 12.3777L12.6996 12.5756L12.633 12.5045L12.5039 12.5692C12.4912 12.5595 12.4804 12.5509 12.4714 12.5435L12.4854 12.5785L12.5039 12.5692C12.5265 12.5863 12.5551 12.6068 12.5907 12.6302L12.5273 12.662C12.4966 12.612 12.4668 12.5625 12.4379 12.5137L12.4345 12.5103H11.9448L12.0554 12.733L11.9835 12.6818C11.9478 12.6245 11.9135 12.5687 11.8804 12.5141L11.8233 12.5677L11.3345 12.2194V12.5103C11.3345 13.0309 11.7008 13.4244 12.3301 13.7478L12.0341 14.0684L15.3251 16.4129L15.2129 16.4105C15.3206 16.4575 15.4298 16.5028 15.5403 16.5463L15.826 16.6589L15.2541 17.0797L16.2175 17.3516L16.9855 17.1157L19.7189 18.1925L18.8373 17.5644C18.9448 17.5635 19.0493 17.5622 19.1508 17.5604C19.1079 17.4815 19.0532 17.4068 18.9865 17.3356C18.9055 17.3335 18.835 17.3276 18.7759 17.3177L18.7457 17.4992L17.8247 16.8431C18.1772 16.7215 18.5195 16.594 18.8516 16.4607C20.2157 16.446 21.0334 16.3729 21.1547 16.2829L21.3652 16.1268L21.6191 16.192C21.8636 16.2547 22.0888 16.3069 22.2937 16.3489L22.4681 16.6419C22.6046 16.5771 22.7387 16.5122 22.8706 16.4474C22.8379 16.4432 22.8043 16.4386 22.7699 16.4335L27.8256 12.7452L27.4025 12.3526C27.9377 12.077 28.2866 11.7154 28.4314 11.2498L28.5554 10.8511L28.0106 11.2487L27.9063 11.0864L27.3811 10.923C27.3326 11.079 27.1744 11.2351 26.8941 11.3785C27.1752 11.1278 27.4089 10.8795 27.5952 10.6325L26.8012 11.1428L27.8458 10.1682L27.194 9.71629C27.2508 9.58799 27.2981 9.46141 27.336 9.33645L27.4194 9.06169L27.0513 9.40511L26.5038 9.12847L26.7569 8.61484L26.2819 8.96445L25.1566 10.4719L24.7735 10.1511C23.7458 12.2365 21.8962 13.8923 19.2059 15.1139L18.2322 14.8881L17.9541 15.0928L17.9825 14.8448C16.1483 14.8448 14.7962 13.4847 13.911 10.6088L13.4977 10.7434L13.8906 11.999L13.498 12.1482L13.4736 12.087L13.8672 11.9374C13.6655 11.4895 13.51 11.1005 13.4003 10.7752L13.0016 10.905L13.4736 12.087L13.4398 12.0998L13.4651 12.0872C13.1725 11.6099 12.9875 11.2211 12.9044 10.9367L12.8653 10.9494C13.0097 11.3693 13.1711 11.7643 13.3494 12.1342L13.2977 12.1539L13.3036 12.1681L13.063 12.2888L13.0734 12.3097ZM13.3232 12.2147L13.0734 12.3097L13.1046 12.3725L13.094 12.3777L13.1318 12.4358L12.7652 12.6456L12.6996 12.5756L12.5907 12.6302C12.6186 12.6484 12.6507 12.6685 12.6876 12.69L12.3035 12.9097L12.0554 12.733L12.1787 12.9812L12.3035 12.9097L12.3614 12.951L12.2108 13.0372C12.1298 12.9132 12.0541 12.7948 11.9835 12.6818L11.8233 12.5677L11.4833 12.8864L12.1889 13.6392L12.5902 13.2631L12.646 13.1537L14.4386 14.4308L15.1015 15.1379C14.199 14.6636 13.4245 14.0404 12.7743 13.2666L12.3301 13.7478L12.3401 13.7529L15.1457 15.1851L15.1015 15.1379C15.3707 15.2795 15.6514 15.4078 15.9435 15.5229L15.4591 16.4157L15.3251 16.4129L15.4228 16.4825L15.4591 16.4157L16.1368 16.4301L15.826 16.6589L16.9855 17.1157L17.0262 17.1032C17.2979 17.0197 17.5641 16.933 17.8247 16.8431L17.625 16.7008L17.9494 16.462C18.272 16.4643 18.5732 16.4637 18.8516 16.4607C19.258 16.2975 19.6492 16.1256 20.0251 15.9448H22.0532L22.2937 16.3489C22.3399 16.3583 22.385 16.3673 22.4291 16.3757L22.5563 16.5894L22.7699 16.4335C22.6643 16.4181 22.5506 16.3989 22.4291 16.3757L22.1726 15.9448H22.7898L22.0738 15.7788L21.9961 15.6483C24.1237 14.6375 25.6282 13.6448 26.5081 12.6912C26.8476 12.5967 27.1464 12.4845 27.4025 12.3526L27.2187 12.182L28.2036 11.5491L28.0106 11.2487L26.3504 12.4599L26.1428 11.9752C26.4225 11.7744 26.673 11.5757 26.8941 11.3785C26.737 11.4588 26.5416 11.535 26.3057 11.605L26.8012 11.1428L25.2962 12.1099C26.2343 11.2441 26.8687 10.4519 27.194 9.71629L27.1276 9.67028L27.2504 9.50577L27.0513 9.40511L25.7856 10.5858L26.5038 9.12847L26.2834 9.01708C26.1488 9.46053 25.8147 9.98269 25.2778 10.5734L25.1566 10.4719L24.4784 11.3805L24.6475 11.5329L19.6435 15.2153L19.2059 15.1139C18.7877 15.3038 18.3491 15.4832 17.8901 15.6522L17.9541 15.0928L17.1123 15.7123C15.4981 15.1351 14.2555 13.9647 13.3947 12.227L13.507 12.1706L13.498 12.1482L13.3783 12.1937L13.3537 12.143L13.4398 12.0998L13.3494 12.1342L13.3537 12.143L13.3036 12.1681L13.3232 12.2147ZM13.3401 12.2543L13.1046 12.3725L13.1639 12.4918L12.8106 12.694L12.7652 12.6456L12.6876 12.69C12.7079 12.7019 12.7296 12.7142 12.7529 12.727L12.3614 12.951L12.646 13.1537L12.8402 12.7732C12.809 12.7573 12.7799 12.7419 12.7529 12.727L12.8106 12.694L14.4386 14.4308L16.682 16.029L16.1368 16.4301L16.9018 16.4464L17.1906 17.0204L17.625 16.7008L17.2783 16.4538C17.5112 16.4579 17.735 16.4606 17.9494 16.462L18.6522 15.9448H20.0251C20.3203 15.8028 20.606 15.6554 20.8823 15.5025L21.9353 15.7467L22.0532 15.9448H22.1726L22.0738 15.7788L21.9353 15.7467L21.908 15.7008L25.7883 12.8699L26.2768 12.7513C26.3559 12.7321 26.433 12.7121 26.5081 12.6912C26.5463 12.6498 26.5833 12.6086 26.6191 12.5673L27.2187 12.182L27.0342 12.0108C26.92 12.1947 26.7817 12.3802 26.6191 12.5673L26.4445 12.6796L26.3504 12.4599L25.7883 12.8699L23.7961 13.3535C24.0191 13.1316 24.2301 12.9029 24.429 12.6672L25.0666 12.2574L25.2841 12.5431C25.5958 12.3516 25.882 12.1625 26.1428 11.9752L26.076 11.8193L26.3057 11.605C26.2155 11.6318 26.1195 11.6576 26.0174 11.6824L26.076 11.8193L25.3714 12.4766L25.1592 12.1979L25.2912 12.1131L25.292 12.1138L25.2962 12.1099L25.2912 12.1131L25.0314 11.879C25.0508 11.8509 25.07 11.8227 25.0891 11.7944L25.3599 12.0385L27.1276 9.67028L26.9624 9.55575C26.7836 9.98791 26.3117 10.4929 25.5446 11.0501C25.6197 10.9143 25.6915 10.7767 25.7602 10.6374L25.7856 10.5858L25.5524 10.8034L25.2778 10.5734C25.0657 10.8068 24.8219 11.051 24.5463 11.3052L24.7309 11.4716L24.6475 11.5329L24.71 11.5893L24.621 11.6723L24.9098 12.0515C24.7583 12.2617 24.598 12.467 24.429 12.6672L23.097 13.5231L23.7961 13.3535C22.9841 14.1611 22.0124 14.8773 20.8823 15.5025L19.6435 15.2153L18.6522 15.9448H17.9825C17.7225 15.9448 17.4706 15.9246 17.2268 15.8843C17.2944 15.8618 17.3615 15.8391 17.4283 15.8162C17.5689 15.8586 17.7123 15.8967 17.8583 15.9306L17.8901 15.6522C17.7384 15.708 17.5844 15.7627 17.4283 15.8162C17.3214 15.784 17.2161 15.7494 17.1123 15.7123L16.9527 15.8297C15.4036 15.4681 14.1976 14.258 13.3401 12.2543ZM13.3401 12.2543L13.3947 12.227L13.3783 12.1937L13.3232 12.2147L13.3401 12.2543ZM16.7106 16.0494L16.682 16.029L16.9527 15.8297C17.0429 15.8508 17.1343 15.869 17.2268 15.8843C17.0573 15.9406 16.8852 15.9957 16.7106 16.0494ZM24.9764 11.9579C24.9949 11.9317 25.0132 11.9054 25.0314 11.879L24.7202 11.5985C24.7505 11.5799 24.7804 11.5614 24.81 11.5429L25.0891 11.7944C25.2521 11.5527 25.4039 11.3045 25.5446 11.0501C25.3241 11.2102 25.0793 11.3746 24.81 11.5429L24.7844 11.5198L25.2296 11.1045L25.5929 10.8372L25.5524 10.8034L25.2296 11.1045L24.7309 11.4716L24.7844 11.5198L24.71 11.5893L24.7202 11.5985L24.7083 11.6058L24.9764 11.9579ZM24.9764 11.9579L25.1592 12.1979L25.0666 12.2574L24.9098 12.0515C24.9322 12.0204 24.9544 11.9892 24.9764 11.9579ZM16.7106 16.0494L17.2783 16.4538C17.1877 16.4522 17.0958 16.4505 17.0024 16.4485L16.9018 16.4464L16.7031 16.0517L16.7106 16.0494ZM18.7457 17.4992L18.7347 17.5652L18.8373 17.5644L18.7457 17.4992ZM21.81 17.1664L21.6498 16.9504C21.5693 16.968 21.4898 16.985 21.4113 17.0014L21.3456 17.2574C21.4098 17.2739 21.473 17.2898 21.5351 17.305C21.6491 17.2642 21.7403 17.2182 21.81 17.1664Z" fill="#FFE402"/>
</g>
</g>
</svg>
