<svg width="32" height="24" viewBox="0 0 32 24" fill="none" xmlns="http://www.w3.org/2000/svg">
<mask id="mask0_55_13697" style="mask-type:alpha" maskUnits="userSpaceOnUse" x="0" y="0" width="32" height="24">
<rect width="32" height="24" fill="white"/>
</mask>
<g mask="url(#mask0_55_13697)">
<path fill-rule="evenodd" clip-rule="evenodd" d="M0 0V24H32V0H0Z" fill="#00B4FF"/>
<mask id="mask1_55_13697" style="mask-type:alpha" maskUnits="userSpaceOnUse" x="0" y="0" width="32" height="24">
<path fill-rule="evenodd" clip-rule="evenodd" d="M0 0V24H32V0H0Z" fill="white"/>
</mask>
<g mask="url(#mask1_55_13697)">
<rect width="18" height="14" fill="#2B409A"/>
<mask id="mask2_55_13697" style="mask-type:alpha" maskUnits="userSpaceOnUse" x="0" y="0" width="18" height="14">
<rect width="18" height="14" fill="white"/>
</mask>
<g mask="url(#mask2_55_13697)">
<path d="M-2.00427 12.9997L1.95668 14.7369L18.0899 1.88866L20.1792 -0.692871L15.9435 -1.27349L9.36318 4.2632L4.06668 7.99363L-2.00427 12.9997Z" fill="#F7FCFF"/>
<path d="M-1.46201 14.217L0.555915 15.2251L19.4289 -0.932617H16.5955L-1.46201 14.217Z" fill="#F50100"/>
<path d="M20.0043 12.9997L16.0433 14.7369L-0.08988 1.88866L-2.17919 -0.692871L2.05648 -1.27349L8.63682 4.2632L13.9333 7.99363L20.0043 12.9997Z" fill="#F7FCFF"/>
<path d="M19.8691 13.8733L17.8512 14.8815L9.81487 7.96351L7.43227 7.19059L-2.38023 -0.683947H0.453167L10.2601 7.00368L12.8651 7.9305L19.8691 13.8733Z" fill="#F50100"/>
<mask id="path-10-outside-1_55_13697" maskUnits="userSpaceOnUse" x="-2" y="-2" width="22" height="18" fill="black">
<rect fill="white" x="-2" y="-2" width="22" height="18"/>
<path fill-rule="evenodd" clip-rule="evenodd" d="M9.98451 0H7.98451V6H0V8H7.98451V14H9.98451V8H18V6H9.98451V0Z"/>
</mask>
<path fill-rule="evenodd" clip-rule="evenodd" d="M9.98451 0H7.98451V6H0V8H7.98451V14H9.98451V8H18V6H9.98451V0Z" fill="#F50100"/>
<path d="M7.98451 0V-1.5H6.48451V0H7.98451ZM9.98451 0H11.4845V-1.5H9.98451V0ZM7.98451 6V7.5H9.48451V6H7.98451ZM0 6V4.5H-1.5V6H0ZM0 8H-1.5V9.5H0V8ZM7.98451 8H9.48451V6.5H7.98451V8ZM7.98451 14H6.48451V15.5H7.98451V14ZM9.98451 14V15.5H11.4845V14H9.98451ZM9.98451 8V6.5H8.48451V8H9.98451ZM18 8V9.5H19.5V8H18ZM18 6H19.5V4.5H18V6ZM9.98451 6H8.48451V7.5H9.98451V6ZM7.98451 1.5H9.98451V-1.5H7.98451V1.5ZM9.48451 6V0H6.48451V6H9.48451ZM0 7.5H7.98451V4.5H0V7.5ZM1.5 8V6H-1.5V8H1.5ZM7.98451 6.5H0V9.5H7.98451V6.5ZM9.48451 14V8H6.48451V14H9.48451ZM9.98451 12.5H7.98451V15.5H9.98451V12.5ZM8.48451 8V14H11.4845V8H8.48451ZM18 6.5H9.98451V9.5H18V6.5ZM16.5 6V8H19.5V6H16.5ZM9.98451 7.5H18V4.5H9.98451V7.5ZM8.48451 0V6H11.4845V0H8.48451Z" fill="#F7FCFF" mask="url(#path-10-outside-1_55_13697)"/>
</g>
<path fill-rule="evenodd" clip-rule="evenodd" d="M26.8567 10.6848L27.4639 9.55935L28.796 9.51956L27.7646 8.65817L28.1202 7.49557L27.2311 8.0298L26.1071 7.34814L26.2159 8.63981L25.2088 9.24492L26.5161 9.40834L26.8567 10.6848ZM23.4639 11.5594L22.8567 12.6848L22.5161 11.4083L21.2088 11.2449L22.2159 10.6398L22.1071 9.34814L23.2311 10.0298L24.1202 9.49557L23.7646 10.6582L24.796 11.5196L23.4639 11.5594ZM20.8567 14.6848L21.4639 13.5594L22.796 13.5196L21.7646 12.6582L22.1202 11.4956L21.2311 12.0298L20.1071 11.3481L20.2159 12.6398L19.2088 13.2449L20.5161 13.4083L20.8567 14.6848ZM16.8567 18.6848L17.4639 17.5594L18.796 17.5196L17.7646 16.6582L18.1202 15.4956L17.2311 16.0298L16.1071 15.3481L16.2159 16.6398L15.2088 17.2449L16.5161 17.4083L16.8567 18.6848ZM12.9741 21.7355L11.874 22.3875L12.2395 21.118L11.2031 20.3046H12.378L12.95 19.1413L13.5624 20.3046H14.5996L13.6961 21.118L14.1365 22.3875L12.9741 21.7355ZM17.4639 21.5594L16.8567 22.6848L16.5161 21.4083L15.2088 21.2449L16.2159 20.6398L16.1071 19.3481L17.2311 20.0298L18.1202 19.4956L17.7646 20.6582L18.796 21.5196L17.4639 21.5594ZM21.4639 19.5594L20.8567 20.6848L20.5161 19.4083L19.2088 19.2449L20.2159 18.6398L20.1071 17.3481L21.2311 18.0298L22.1202 17.4956L21.7646 18.6582L22.796 19.5196L21.4639 19.5594ZM25.4639 17.5594L24.8567 18.6848L24.5161 17.4083L23.2088 17.2449L24.2159 16.6398L24.1071 15.3481L25.2311 16.0298L26.1202 15.4956L25.7646 16.6582L26.796 17.5196L25.4639 17.5594ZM26.8567 16.6848L27.4639 15.5594L28.796 15.5196L27.7646 14.6582L28.1202 13.4956L27.2311 14.0298L26.1071 13.3481L26.2159 14.6398L25.2088 15.2449L26.5161 15.4083L26.8567 16.6848Z" fill="#FFD018"/>
</g>
</g>
</svg>
