<svg width="32" height="24" viewBox="0 0 32 24" fill="none" xmlns="http://www.w3.org/2000/svg">
<mask id="mask0_55_13879" style="mask-type:alpha" maskUnits="userSpaceOnUse" x="0" y="0" width="32" height="24">
<rect width="32" height="24" fill="white"/>
</mask>
<g mask="url(#mask0_55_13879)">
<path fill-rule="evenodd" clip-rule="evenodd" d="M0 0V24H32V0H0Z" fill="#4141DB"/>
<mask id="mask1_55_13879" style="mask-type:alpha" maskUnits="userSpaceOnUse" x="0" y="0" width="32" height="24">
<path fill-rule="evenodd" clip-rule="evenodd" d="M0 0V24H32V0H0Z" fill="white"/>
</mask>
<g mask="url(#mask1_55_13879)">
<path d="M0 13H-1V14V16V17H0H32H33V16V14V13H32H0Z" fill="#F90000" stroke="#F7FCFF" stroke-width="2"/>
<g filter="url(#filter0_d_55_13879)">
<path fill-rule="evenodd" clip-rule="evenodd" d="M9.79585 10.2595L10.5217 9.75056L11.2241 10.2595L11.0057 9.35384L11.5697 8.77993H10.8519L10.5207 8.04086L10.2383 8.77993H9.3962L10.0409 9.35384L9.79585 10.2595ZM12.7959 11.8595L13.5217 11.3506L14.2241 11.8595L14.0057 10.9538L14.5697 10.3799H13.8519L13.5207 9.64086L13.2383 10.3799H12.3962L13.0409 10.9538L12.7959 11.8595ZM15.9217 13.7506L15.1959 14.2595L15.4409 13.3538L14.7962 12.7799H15.6383L15.9207 12.0409L16.2519 12.7799H16.9697L16.4057 13.3538L16.6241 14.2595L15.9217 13.7506ZM15.1959 18.2595L15.9217 17.7506L16.6241 18.2595L16.4057 17.3538L16.9697 16.7799H16.2519L15.9207 16.0409L15.6383 16.7799H14.7962L15.4409 17.3538L15.1959 18.2595ZM13.5217 20.1506L12.7959 20.6595L13.0409 19.7538L12.3962 19.1799H13.2383L13.5207 18.4409L13.8519 19.1799H14.5697L14.0057 19.7538L14.2241 20.6595L13.5217 20.1506ZM9.79585 22.2595L10.5217 21.7506L11.2241 22.2595L11.0057 21.3538L11.5697 20.7799H10.8519L10.5207 20.0409L10.2383 20.7799H9.3962L10.0409 21.3538L9.79585 22.2595ZM7.52173 20.1506L6.79585 20.6595L7.04092 19.7538L6.3962 19.1799H7.23829L7.52072 18.4409L7.85189 19.1799H8.56974L8.00571 19.7538L8.22407 20.6595L7.52173 20.1506ZM4.39585 18.2595L5.12173 17.7506L5.82407 18.2595L5.60571 17.3538L6.16974 16.7799H5.45189L5.12072 16.0409L4.83829 16.7799H3.9962L4.64092 17.3538L4.39585 18.2595ZM5.12173 13.7506L4.39585 14.2595L4.64092 13.3538L3.9962 12.7799H4.83829L5.12072 12.0409L5.45189 12.7799H6.16974L5.60571 13.3538L5.82407 14.2595L5.12173 13.7506ZM6.79585 11.8595L7.52173 11.3506L8.22407 11.8595L8.00571 10.9538L8.56974 10.3799H7.85189L7.52072 9.64086L7.23829 10.3799H6.3962L7.04092 10.9538L6.79585 11.8595Z" fill="#FFDE00"/>
</g>
</g>
</g>
<defs>
<filter id="filter0_d_55_13879" x="-0.00379944" y="4.04086" width="20.9735" height="22.2186" filterUnits="userSpaceOnUse" color-interpolation-filters="sRGB">
<feFlood flood-opacity="0" result="BackgroundImageFix"/>
<feColorMatrix in="SourceAlpha" type="matrix" values="0 0 0 0 0 0 0 0 0 0 0 0 0 0 0 0 0 0 127 0" result="hardAlpha"/>
<feOffset/>
<feGaussianBlur stdDeviation="2"/>
<feColorMatrix type="matrix" values="0 0 0 0 0 0 0 0 0 0 0 0 0 0 0 0 0 0 0.24 0"/>
<feBlend mode="normal" in2="BackgroundImageFix" result="effect1_dropShadow_55_13879"/>
<feBlend mode="normal" in="SourceGraphic" in2="effect1_dropShadow_55_13879" result="shape"/>
</filter>
</defs>
</svg>
