<svg width="32" height="24" viewBox="0 0 32 24" fill="none" xmlns="http://www.w3.org/2000/svg">
<mask id="mask0_55_13748" style="mask-type:alpha" maskUnits="userSpaceOnUse" x="0" y="0" width="32" height="24">
<rect width="32" height="24" fill="white"/>
</mask>
<g mask="url(#mask0_55_13748)">
<path fill-rule="evenodd" clip-rule="evenodd" d="M0 0V24H32V0H0Z" fill="#BF2714"/>
<mask id="mask1_55_13748" style="mask-type:alpha" maskUnits="userSpaceOnUse" x="0" y="0" width="32" height="24">
<path fill-rule="evenodd" clip-rule="evenodd" d="M0 0V24H32V0H0Z" fill="white"/>
</mask>
<g mask="url(#mask1_55_13748)">
<path fill-rule="evenodd" clip-rule="evenodd" d="M0 -2V12H32V-2H0Z" fill="#3D58DB"/>
</g>
<path fill-rule="evenodd" clip-rule="evenodd" d="M0 0V24L18 12L0 0Z" fill="#F7FCFF"/>
<mask id="mask2_55_13748" style="mask-type:alpha" maskUnits="userSpaceOnUse" x="0" y="0" width="18" height="24">
<path fill-rule="evenodd" clip-rule="evenodd" d="M0 0V24L18 12L0 0Z" fill="white"/>
</mask>
<g mask="url(#mask2_55_13748)">
<path fill-rule="evenodd" clip-rule="evenodd" d="M13.6051 10.9201L14.8809 11.4122L15.64 10.5188L15.6602 11.7136L16.8344 12.0955L15.5984 12.5151L15.6799 13.613L14.8658 12.772L13.5862 13.0154L14.3417 12.0467L13.6051 10.9201Z" fill="#FECA00"/>
<path fill-rule="evenodd" clip-rule="evenodd" d="M1.60505 16.9201L2.77782 17.4386L3.64004 16.5188L3.55706 17.7401L4.83444 18.0955L3.49532 18.5416L3.67989 19.613L2.74753 18.8474L1.58619 19.0154L2.23857 18.0732L1.60505 16.9201Z" fill="#FECA00"/>
<path fill-rule="evenodd" clip-rule="evenodd" d="M1.60505 4.92014L2.90281 5.39836L3.64004 4.51883L3.68205 5.69979L4.83444 6.09554L3.62031 6.50128L3.67989 7.61298L2.87252 6.80711L1.58619 7.01536L2.36356 6.0329L1.60505 4.92014Z" fill="#FECA00"/>
<path fill-rule="evenodd" clip-rule="evenodd" d="M8.1215 14.5328C9.50221 14.5328 10.6215 13.4135 10.6215 12.0328C10.6215 10.6521 9.50221 9.53284 8.1215 9.53284C6.74079 9.53284 5.6215 10.6521 5.6215 12.0328C5.6215 13.4135 6.74079 14.5328 8.1215 14.5328Z" fill="#FECA00"/>
<path fill-rule="evenodd" clip-rule="evenodd" d="M7.82597 8.23965L7.96031 9.84565C7.97315 9.94317 8.04818 10.0209 8.1452 10.0371C8.26707 10.0575 8.38241 9.97525 8.40281 9.85338L8.58012 8.25282C8.58323 8.2342 8.58496 8.21539 8.58529 8.19652C8.58897 7.98595 8.42125 7.81227 8.21068 7.8086C8.19181 7.80827 8.17295 7.80934 8.15424 7.8118C7.94544 7.8393 7.79847 8.03086 7.82597 8.23965ZM7.40786 9.01582L7.61548 9.71445C7.63475 9.7793 7.69952 9.81946 7.77276 9.80654C7.8328 9.79235 7.86998 9.73218 7.85579 9.67213L7.6901 8.97098C7.67104 8.89035 7.59292 8.83814 7.51113 8.85137C7.50566 8.85226 7.50026 8.85349 7.49496 8.85507C7.42652 8.87541 7.38752 8.94738 7.40786 9.01582ZM8.53068 9.74356C8.51441 9.80307 8.54946 9.86451 8.6155 9.88236C8.68172 9.89625 8.74785 9.85838 8.76937 9.79424L9.00124 9.10328C9.02396 9.03559 8.9875 8.9623 8.91981 8.93959C8.91456 8.93783 8.90921 8.9364 8.90378 8.93533C8.8225 8.91924 8.7426 8.9687 8.72074 9.04862L8.53068 9.74356ZM10.6078 9.0414L9.49009 10.2756C9.43021 10.3536 9.42833 10.4616 9.48544 10.5417C9.5572 10.6423 9.69692 10.6657 9.79752 10.594L11.1318 9.58397C11.1471 9.57301 11.1616 9.56093 11.1752 9.54782C11.3267 9.40152 11.3309 9.16012 11.1846 9.00863C11.1715 8.99505 11.1574 8.98247 11.1425 8.97098C10.9754 8.84279 10.736 8.87431 10.6078 9.0414ZM10.2678 11.6613L11.9367 11.5322C12.1455 11.5047 12.3371 11.6516 12.3646 11.8604C12.3671 11.8792 12.3681 11.898 12.3678 11.9169C12.3641 12.1275 12.1904 12.2952 11.9799 12.2915C11.961 12.2912 11.9422 12.2894 11.9236 12.2863L10.2601 12.1038C10.1382 12.0834 10.0559 11.9681 10.0763 11.8462C10.0926 11.7492 10.1703 11.6742 10.2678 11.6613ZM11.134 14.3195L9.83783 13.1911C9.75979 13.1312 9.6518 13.1294 9.57171 13.1865C9.47111 13.2582 9.44772 13.398 9.51947 13.4986L10.5914 14.8435C10.6023 14.8588 10.6144 14.8734 10.6275 14.887C10.7738 15.0384 11.0152 15.0427 11.1667 14.8964C11.1803 14.8833 11.1929 14.8692 11.2044 14.8542C11.3326 14.6871 11.301 14.4477 11.134 14.3195ZM8.45209 13.9688L8.55105 15.6538C8.57855 15.8626 8.43158 16.0542 8.22278 16.0817C8.20407 16.0842 8.1852 16.0852 8.16634 16.0849C7.95577 16.0812 7.78805 15.9075 7.79173 15.697C7.79205 15.6781 7.79378 15.6593 7.7969 15.6407L8.00959 13.9611C8.02999 13.8392 8.14533 13.757 8.2672 13.7774C8.36422 13.7936 8.43925 13.8713 8.45209 13.9688ZM5.82102 14.8791L6.92232 13.5389C6.98219 13.4608 6.98408 13.3528 6.92696 13.2727C6.85521 13.1721 6.71548 13.1488 6.61488 13.2205L5.29706 14.3366C5.2817 14.3475 5.26717 14.3596 5.25359 14.3727C5.1021 14.519 5.09789 14.7604 5.24418 14.9119C5.25729 14.9255 5.27139 14.9381 5.28636 14.9496C5.45345 15.0778 5.69282 15.0462 5.82102 14.8791ZM6.14462 12.1531L4.46541 12.2915C4.25662 12.319 4.06506 12.172 4.03756 11.9632C4.0351 11.9445 4.03403 11.9257 4.03436 11.9068C4.03803 11.6962 4.21171 11.5285 4.42228 11.5322C4.44115 11.5325 4.45996 11.5342 4.47858 11.5373L6.15234 11.7106C6.27422 11.731 6.35648 11.8464 6.33608 11.9682C6.31984 12.0653 6.24214 12.1403 6.14462 12.1531ZM5.15034 9.52205L6.57457 10.6233C6.65261 10.6832 6.76061 10.6851 6.84069 10.628C6.94129 10.5562 6.96468 10.4165 6.89293 10.3159L5.69291 8.9981C5.68196 8.98273 5.66987 8.9682 5.65676 8.95463C5.51047 8.80313 5.26906 8.79892 5.11757 8.94521C5.104 8.95832 5.09141 8.97242 5.07993 8.9874C4.95173 9.15448 4.98326 9.39386 5.15034 9.52205ZM9.33903 9.939L9.68623 9.29818C9.72024 9.23541 9.79871 9.21209 9.86148 9.2461C9.86635 9.24874 9.87104 9.25168 9.87553 9.25492C9.94273 9.3034 9.96105 9.39556 9.9175 9.46605L9.53888 10.079C9.50645 10.1315 9.43762 10.1478 9.38513 10.1153C9.3242 10.0727 9.3068 9.99848 9.33903 9.939ZM11.0976 11.1089L10.399 11.3165C10.3341 11.3358 10.294 11.4005 10.3069 11.4738C10.3211 11.5338 10.3813 11.571 10.4413 11.5568L11.1425 11.3911C11.2231 11.3721 11.2753 11.294 11.2621 11.2122C11.2612 11.2067 11.2599 11.2013 11.2584 11.196C11.238 11.1275 11.1661 11.0886 11.0976 11.1089ZM10.1744 13.0401L10.8153 13.3873C10.878 13.4213 10.9013 13.4997 10.8673 13.5625C10.8647 13.5674 10.8618 13.5721 10.8585 13.5766C10.81 13.6438 10.7179 13.6621 10.6474 13.6185L10.0344 13.2399C9.98195 13.2075 9.96568 13.1386 9.9981 13.0862C10.0408 13.0252 10.115 13.0078 10.1744 13.0401ZM9.00454 14.7987L8.79693 14.1C8.77765 14.0352 8.71289 13.995 8.63964 14.0079C8.5796 14.0221 8.54243 14.0823 8.55662 14.1423L8.72231 14.8435C8.74136 14.9241 8.81948 14.9763 8.90128 14.9631C8.90674 14.9622 8.91214 14.961 8.91745 14.9594C8.98589 14.9391 9.02488 14.8671 9.00454 14.7987ZM7.07337 13.8755L6.72617 14.5163C6.69216 14.5791 6.6137 14.6024 6.55092 14.5684C6.54606 14.5657 6.54136 14.5628 6.53687 14.5595C6.46968 14.5111 6.45135 14.4189 6.4949 14.3484L6.87353 13.7355C6.90595 13.683 6.97479 13.6667 7.02728 13.6991C7.08821 13.7418 7.1056 13.816 7.07337 13.8755ZM5.31479 12.7056L6.01342 12.498C6.07827 12.4787 6.11843 12.4139 6.10551 12.3407C6.09132 12.2806 6.03115 12.2435 5.9711 12.2576L5.26995 12.4233C5.18931 12.4424 5.1371 12.5205 5.15034 12.6023C5.15123 12.6078 5.15246 12.6132 5.15404 12.6185C5.17438 12.6869 5.24635 12.7259 5.31479 12.7056ZM6.23796 10.7744L5.59715 10.4272C5.53437 10.3932 5.51106 10.3147 5.54507 10.252C5.54771 10.2471 5.55065 10.2424 5.55389 10.2379C5.60237 10.1707 5.69452 10.1524 5.76502 10.1959L6.37797 10.5746C6.43046 10.607 6.44672 10.6758 6.4143 10.7283C6.37164 10.7892 6.29745 10.8066 6.23796 10.7744ZM9.96559 10.6067C9.912 10.6373 9.89334 10.7055 9.92742 10.7649C9.96442 10.8215 10.038 10.8415 10.0985 10.8113L10.7511 10.4867C10.815 10.4549 10.841 10.3773 10.8092 10.3134C10.8068 10.3084 10.804 10.3036 10.8009 10.299C10.7548 10.2302 10.6634 10.2087 10.5914 10.2497L9.96559 10.6067ZM10.2311 12.3165C10.2489 12.2505 10.3104 12.2154 10.3699 12.2317L11.0648 12.4218C11.1447 12.4436 11.1942 12.5235 11.1781 12.6048C11.177 12.6102 11.1756 12.6156 11.1738 12.6208C11.1511 12.6885 11.0778 12.725 11.0102 12.7023L10.3192 12.4704C10.2551 12.4489 10.2172 12.3828 10.2311 12.3165ZM9.50671 13.6666C9.47613 13.613 9.40791 13.5944 9.34858 13.6285C9.29194 13.6655 9.27196 13.739 9.3021 13.7996L9.62672 14.4521C9.65852 14.516 9.73612 14.5421 9.80005 14.5103C9.805 14.5078 9.8098 14.505 9.8144 14.5019C9.88324 14.4558 9.90477 14.3644 9.86371 14.2924L9.50671 13.6666ZM7.7969 13.9321C7.86295 13.95 7.898 14.0114 7.88172 14.0709L7.69166 14.7658C7.6698 14.8458 7.58991 14.8952 7.50863 14.8791C7.5032 14.8781 7.49784 14.8766 7.49259 14.8749C7.42491 14.8522 7.38845 14.7789 7.41116 14.7112L7.64303 14.0202C7.66456 13.9561 7.73069 13.9182 7.7969 13.9321ZM6.44681 13.2077C6.5004 13.1772 6.51906 13.1089 6.48498 13.0496C6.44798 12.993 6.37444 12.973 6.31387 13.0031L5.66133 13.3278C5.5974 13.3596 5.57136 13.4372 5.60316 13.5011C5.60563 13.506 5.60841 13.5108 5.61149 13.5154C5.65759 13.5843 5.74905 13.6058 5.82102 13.5647L6.44681 13.2077ZM6.18133 11.4979C6.16348 11.564 6.10204 11.599 6.04253 11.5828L5.34759 11.3927C5.26766 11.3708 5.21821 11.2909 5.2343 11.2097C5.23537 11.2042 5.23679 11.1989 5.23855 11.1936C5.26127 11.1259 5.33456 11.0895 5.40224 11.1122L6.09321 11.3441C6.15735 11.3656 6.19522 11.4317 6.18133 11.4979ZM6.9057 10.1478C6.93627 10.2014 7.0045 10.2201 7.06382 10.186C7.12046 10.149 7.14044 10.0755 7.11031 10.0149L6.78568 9.36236C6.75388 9.29843 6.67628 9.27239 6.61236 9.30419C6.6074 9.30666 6.60261 9.30944 6.59801 9.31252C6.52916 9.35862 6.50763 9.45008 6.54869 9.52205L6.9057 10.1478Z" fill="#FECA00"/>
</g>
</g>
</svg>
