<svg width="921" height="425" viewBox="0 0 921 425" fill="none" xmlns="http://www.w3.org/2000/svg">
<mask id="mask0_29_12099" style="mask-type:alpha" maskUnits="userSpaceOnUse" x="0" y="0" width="921" height="425">
<rect width="921" height="425" fill="#C4C4C4"/>
</mask>
<g mask="url(#mask0_29_12099)">
<g clip-path="url(#clip0_29_12099)">
<path d="M513.299 134.836H509.35V134.044H513.299V134.836ZM514.74 132.064H513.299V132.955H509.35V132.064H507.909V135.969H514.74V132.064ZM515.906 137.773V136.618H506.743V137.773H510.582V138.631H507.755V139.775H513.343V141.942H514.795V138.631H512.034V137.773H515.906ZM519.32 138.422C518.561 138.422 518.055 137.619 518.055 136.112C518.055 134.616 518.561 133.813 519.32 133.813C520.068 133.813 520.585 134.616 520.585 136.112C520.585 137.619 520.068 138.422 519.32 138.422ZM519.32 132.504C517.78 132.504 516.658 133.89 516.658 136.112C516.658 138.345 517.78 139.742 519.32 139.742C520.849 139.742 521.982 138.345 521.982 136.112C521.982 133.89 520.849 132.504 519.32 132.504ZM526.008 135.617H524.534V131.8H523.082V141.931H524.534V136.816H526.008V135.617ZM529.399 138.268H528.101V133.978H529.399V138.268ZM531.72 135.474H530.741V132.834H526.748V139.401H530.741V136.651H531.72V141.469H533.073V131.954H531.72V135.474ZM533.777 131.789V141.92H535.152V131.789H533.777ZM538.346 136.574H541.635V132.658H536.85V133.813H540.15V135.43H536.861V139.599H537.774C539.611 139.599 541.096 139.533 542.746 139.247L542.592 138.07C541.162 138.312 539.886 138.389 538.346 138.4V136.574ZM543.296 131.789V141.953H544.748V131.789H543.296ZM546.765 132.768V133.923H549.977C549.944 134.407 549.867 134.847 549.768 135.265L546.226 135.474L546.413 136.706L549.35 136.42C548.778 137.531 547.799 138.477 546.138 139.302L546.908 140.424C550.681 138.499 551.418 135.892 551.418 132.768H546.765ZM555.532 135.661H554.113V131.789H552.661V141.909H554.113V136.86H555.532V135.661Z" fill="#3E80D6"/>
<path d="M499.039 152.985H500.139V149.515C500.139 148.715 500.049 147.865 499.989 147.105H500.039L500.809 148.645L503.249 152.985H504.439V145.625H503.339V149.055C503.339 149.855 503.429 150.745 503.489 151.505H503.439L502.669 149.945L500.229 145.625H499.039V152.985ZM508.224 153.115C509.584 153.115 510.814 152.065 510.814 150.245C510.814 148.405 509.584 147.345 508.224 147.345C506.864 147.345 505.634 148.405 505.634 150.245C505.634 152.065 506.864 153.115 508.224 153.115ZM508.224 152.175C507.364 152.175 506.824 151.405 506.824 150.245C506.824 149.075 507.364 148.295 508.224 148.295C509.094 148.295 509.634 149.075 509.634 150.245C509.634 151.405 509.094 152.175 508.224 152.175ZM511.907 152.985H513.047V149.555C513.397 148.685 513.937 148.375 514.387 148.375C514.607 148.375 514.747 148.405 514.937 148.465L515.147 147.465C514.977 147.385 514.797 147.345 514.527 147.345C513.937 147.345 513.357 147.765 512.967 148.475H512.937L512.847 147.485H511.907V152.985ZM517.589 153.115C517.989 153.115 518.359 153.015 518.669 152.915L518.459 152.065C518.299 152.135 518.059 152.195 517.869 152.195C517.299 152.195 517.069 151.855 517.069 151.195V148.405H518.499V147.485H517.069V145.965H516.099L515.969 147.485L515.119 147.545V148.405H515.919V151.185C515.919 152.345 516.349 153.115 517.589 153.115ZM519.445 152.985H520.585V149.085C521.075 148.595 521.425 148.335 521.935 148.335C522.585 148.335 522.865 148.715 522.865 149.665V152.985H524.015V149.525C524.015 148.125 523.495 147.345 522.325 147.345C521.575 147.345 521.025 147.755 520.545 148.215L520.585 147.125V145.015H519.445V152.985ZM528.593 149.975L528.893 148.985C529.133 148.185 529.363 147.375 529.573 146.535H529.613C529.843 147.365 530.063 148.185 530.313 148.985L530.603 149.975H528.593ZM531.503 152.985H532.733L530.293 145.625H528.953L526.513 152.985H527.693L528.323 150.885H530.883L531.503 152.985ZM533.344 152.985H534.484V149.085C534.944 148.585 535.354 148.335 535.724 148.335C536.354 148.335 536.644 148.715 536.644 149.665V152.985H537.794V149.085C538.254 148.585 538.654 148.335 539.034 148.335C539.654 148.335 539.954 148.715 539.954 149.665V152.985H541.104V149.525C541.104 148.125 540.564 147.345 539.414 147.345C538.724 147.345 538.164 147.775 537.624 148.355C537.384 147.725 536.924 147.345 536.104 147.345C535.424 147.345 534.874 147.755 534.404 148.255H534.374L534.284 147.485H533.344V152.985ZM544.798 153.115C545.518 153.115 546.148 152.875 546.658 152.535L546.258 151.805C545.858 152.065 545.438 152.215 544.948 152.215C543.998 152.215 543.338 151.585 543.248 150.535H546.818C546.848 150.405 546.868 150.175 546.868 149.955C546.868 148.395 546.088 147.345 544.628 147.345C543.338 147.345 542.118 148.455 542.118 150.245C542.118 152.055 543.308 153.115 544.798 153.115ZM543.238 149.745C543.348 148.775 543.958 148.245 544.648 148.245C545.448 148.245 545.878 148.795 545.878 149.745H543.238ZM547.903 152.985H549.043V149.555C549.393 148.685 549.933 148.375 550.383 148.375C550.603 148.375 550.743 148.405 550.933 148.465L551.143 147.465C550.973 147.385 550.793 147.345 550.523 147.345C549.933 147.345 549.353 147.765 548.963 148.475H548.933L548.843 147.485H547.903V152.985ZM551.736 152.985H552.876V147.485H551.736V152.985ZM552.306 146.455C552.726 146.455 553.046 146.175 553.046 145.775C553.046 145.365 552.726 145.095 552.306 145.095C551.886 145.095 551.576 145.365 551.576 145.775C551.576 146.175 551.886 146.455 552.306 146.455ZM556.587 153.115C557.217 153.115 557.867 152.885 558.367 152.435L557.897 151.675C557.567 151.955 557.157 152.175 556.697 152.175C555.777 152.175 555.147 151.405 555.147 150.245C555.147 149.075 555.807 148.295 556.727 148.295C557.107 148.295 557.417 148.455 557.717 148.725L558.287 147.975C557.887 147.625 557.377 147.345 556.677 147.345C555.227 147.345 553.957 148.405 553.957 150.245C553.957 152.065 555.097 153.115 556.587 153.115ZM560.446 153.115C561.106 153.115 561.696 152.785 562.196 152.355H562.226L562.326 152.985H563.266V149.675C563.266 148.215 562.636 147.345 561.266 147.345C560.386 147.345 559.616 147.705 559.046 148.065L559.476 148.845C559.946 148.545 560.486 148.285 561.066 148.285C561.876 148.285 562.106 148.845 562.116 149.485C559.826 149.735 558.826 150.345 558.826 151.525C558.826 152.495 559.496 153.115 560.446 153.115ZM560.796 152.205C560.306 152.205 559.936 151.985 559.936 151.445C559.936 150.825 560.486 150.415 562.116 150.215V151.565C561.666 151.975 561.276 152.205 560.796 152.205Z" fill="#5D8FCA"/>
<path d="M130.549 117.827C131.869 117.827 132.716 118.223 132.716 118.938C132.716 119.664 131.869 120.049 130.549 120.049C129.218 120.049 128.371 119.664 128.371 118.938C128.371 118.223 129.218 117.827 130.549 117.827ZM130.549 121.204C132.705 121.204 134.212 120.324 134.212 118.938C134.212 117.563 132.705 116.672 130.549 116.672C128.382 116.672 126.886 117.563 126.886 118.938C126.886 120.324 128.382 121.204 130.549 121.204ZM135.158 121.963H125.984V123.14H128.063V126.451H129.526V123.14H131.561V126.451H133.035V123.14H135.158V121.963ZM141.497 120.346C140.254 120.544 139.176 120.588 137.669 120.599V119.752H140.782V116.705H136.217V117.86H139.352V118.674H136.228V121.765H137.064C138.912 121.765 140.177 121.732 141.596 121.512L141.497 120.346ZM142.883 125.186H138.978V124.361H142.883V125.186ZM142.883 123.25H138.978V122.37H137.537V126.352H144.313V122.37H142.883V123.25ZM142.861 116.331V118.289H141.288V119.444H142.861V121.952H144.313V116.331H142.861Z" fill="#3E80D6"/>
<path d="M119.98 137.516H124.44V136.536H121.14V134.156H123.84V133.176H121.14V131.126H124.33V130.156H119.98V137.516ZM127.227 137.646C127.987 137.646 128.527 137.266 129.027 136.686H129.057L129.147 137.516H130.087V132.016H128.937V135.836C128.477 136.416 128.127 136.656 127.617 136.656C126.967 136.656 126.697 136.286 126.697 135.336V132.016H125.547V135.476C125.547 136.876 126.057 137.646 127.227 137.646ZM131.558 137.516H132.698V134.086C133.048 133.216 133.588 132.906 134.038 132.906C134.258 132.906 134.398 132.936 134.588 132.996L134.798 131.996C134.628 131.916 134.448 131.876 134.178 131.876C133.588 131.876 133.008 132.296 132.618 133.006H132.588L132.498 132.016H131.558V137.516ZM137.483 137.646C138.843 137.646 140.073 136.596 140.073 134.776C140.073 132.936 138.843 131.876 137.483 131.876C136.123 131.876 134.893 132.936 134.893 134.776C134.893 136.596 136.123 137.646 137.483 137.646ZM137.483 136.706C136.623 136.706 136.083 135.936 136.083 134.776C136.083 133.606 136.623 132.826 137.483 132.826C138.353 132.826 138.893 133.606 138.893 134.776C138.893 135.936 138.353 136.706 137.483 136.706ZM141.166 139.746H142.306V137.966L142.276 137.026C142.746 137.426 143.236 137.646 143.726 137.646C144.966 137.646 146.096 136.566 146.096 134.676C146.096 132.986 145.316 131.876 143.916 131.876C143.306 131.876 142.706 132.216 142.226 132.616H142.196L142.106 132.016H141.166V139.746ZM143.506 136.696C143.166 136.696 142.736 136.566 142.306 136.196V133.506C142.776 133.056 143.186 132.836 143.616 132.836C144.536 132.836 144.906 133.546 144.906 134.696C144.906 135.986 144.306 136.696 143.506 136.696ZM149.496 137.646C150.216 137.646 150.846 137.406 151.356 137.066L150.956 136.336C150.556 136.596 150.136 136.746 149.646 136.746C148.696 136.746 148.036 136.116 147.946 135.066H151.516C151.546 134.936 151.566 134.706 151.566 134.486C151.566 132.926 150.786 131.876 149.326 131.876C148.036 131.876 146.816 132.986 146.816 134.776C146.816 136.586 148.006 137.646 149.496 137.646ZM147.936 134.276C148.046 133.306 148.656 132.776 149.346 132.776C150.146 132.776 150.576 133.326 150.576 134.276H147.936Z" fill="#5D8FCA"/>
<path d="M203.515 115.292C202.756 115.292 202.25 114.489 202.25 112.982C202.25 111.486 202.756 110.683 203.515 110.683C204.263 110.683 204.78 111.486 204.78 112.982C204.78 114.489 204.263 115.292 203.515 115.292ZM203.515 109.374C201.975 109.374 200.853 110.76 200.853 112.982C200.853 115.215 201.975 116.612 203.515 116.612C205.044 116.612 206.177 115.215 206.177 112.982C206.177 110.76 205.044 109.374 203.515 109.374ZM210.203 112.487H208.729V108.67H207.277V118.801H208.729V113.686H210.203V112.487ZM214.585 109.451H213.133V110.925C213.133 112.894 212.297 114.852 210.526 115.611L211.395 116.81C212.605 116.238 213.43 115.149 213.881 113.796C214.332 115.039 215.113 116.04 216.279 116.568L217.104 115.391C215.388 114.654 214.585 112.806 214.585 110.925V109.451ZM217.599 108.659V118.823H219.051V108.659H217.599ZM223.234 115.292C222.475 115.292 221.969 114.489 221.969 112.982C221.969 111.486 222.475 110.683 223.234 110.683C223.982 110.683 224.499 111.486 224.499 112.982C224.499 114.489 223.982 115.292 223.234 115.292ZM223.234 109.374C221.694 109.374 220.572 110.76 220.572 112.982C220.572 115.215 221.694 116.612 223.234 116.612C224.763 116.612 225.896 115.215 225.896 112.982C225.896 110.76 224.763 109.374 223.234 109.374ZM229.922 112.487H228.448V108.67H226.996V118.801H228.448V113.686H229.922V112.487Z" fill="#3E80D6"/>
<path d="M207.772 126.845L208.072 125.855C208.312 125.055 208.542 124.245 208.752 123.405H208.792C209.022 124.235 209.242 125.055 209.492 125.855L209.782 126.845H207.772ZM210.682 129.855H211.912L209.472 122.495H208.132L205.692 129.855H206.872L207.502 127.755H210.062L210.682 129.855ZM214.248 129.985C215.608 129.985 216.338 129.235 216.338 128.315C216.338 127.275 215.488 126.935 214.718 126.645C214.118 126.425 213.548 126.245 213.548 125.775C213.548 125.395 213.828 125.095 214.428 125.095C214.888 125.095 215.278 125.295 215.658 125.575L216.198 124.865C215.748 124.515 215.148 124.215 214.408 124.215C213.198 124.215 212.458 124.905 212.458 125.825C212.458 126.755 213.298 127.145 214.028 127.425C214.628 127.655 215.248 127.875 215.248 128.375C215.248 128.795 214.938 129.115 214.278 129.115C213.688 129.115 213.208 128.875 212.718 128.485L212.178 129.225C212.708 129.665 213.488 129.985 214.248 129.985ZM217.303 129.855H218.443V124.355H217.303V129.855ZM217.873 123.325C218.293 123.325 218.613 123.045 218.613 122.645C218.613 122.235 218.293 121.965 217.873 121.965C217.453 121.965 217.143 122.235 217.143 122.645C217.143 123.045 217.453 123.325 217.873 123.325ZM221.214 129.985C221.874 129.985 222.464 129.655 222.964 129.225H222.994L223.094 129.855H224.034V126.545C224.034 125.085 223.404 124.215 222.034 124.215C221.154 124.215 220.384 124.575 219.814 124.935L220.244 125.715C220.714 125.415 221.254 125.155 221.834 125.155C222.644 125.155 222.874 125.715 222.884 126.355C220.594 126.605 219.594 127.215 219.594 128.395C219.594 129.365 220.264 129.985 221.214 129.985ZM221.564 129.075C221.074 129.075 220.704 128.855 220.704 128.315C220.704 127.695 221.254 127.285 222.884 127.085V128.435C222.434 128.845 222.044 129.075 221.564 129.075Z" fill="#5D8FCA"/>
<path d="M117.864 202.017C119.778 201.852 121.021 201.137 121.56 200.18C122.099 201.137 123.342 201.852 125.245 202.017L125.751 200.895C123.859 200.73 122.869 200.07 122.616 199.388H125.311V198.233H117.82V199.388H120.504C120.251 200.07 119.261 200.73 117.38 200.895L117.864 202.017ZM123.584 206.12C123.584 206.626 122.891 206.846 121.538 206.846C120.185 206.846 119.492 206.626 119.492 206.12C119.492 205.603 120.185 205.383 121.538 205.383C122.891 205.383 123.584 205.603 123.584 206.12ZM126.136 203.568V202.413H116.984V203.568H120.834V204.305C119.074 204.448 118.029 205.075 118.029 206.12C118.029 207.286 119.349 207.957 121.538 207.957C123.727 207.957 125.058 207.286 125.058 206.12C125.058 205.086 124.024 204.459 122.286 204.316V203.568H126.136ZM131.397 206.857C130.044 206.857 129.351 206.626 129.351 206.098C129.351 205.57 130.044 205.328 131.397 205.328C132.75 205.328 133.443 205.57 133.443 206.098C133.443 206.626 132.75 206.857 131.397 206.857ZM131.397 204.228C129.208 204.228 127.888 204.899 127.888 206.098C127.888 207.286 129.208 207.957 131.397 207.957C133.586 207.957 134.917 207.286 134.917 206.098C134.917 204.899 133.586 204.228 131.397 204.228ZM132.156 202.578V201.742H134.972V200.587H129.406V199.399H134.917V198.244H127.965V201.742H130.704V202.578H126.854V203.733H136.017V202.578H132.156Z" fill="#3E80D6"/>
<path d="M101.296 221H102.336V217.36C102.336 216.7 102.246 215.75 102.196 215.08H102.236L102.816 216.78L104.106 220.29H104.826L106.106 216.78L106.696 215.08H106.736C106.676 215.75 106.586 216.7 106.586 217.36V221H107.666V213.64H106.326L104.996 217.36C104.826 217.85 104.686 218.35 104.516 218.85H104.466C104.296 218.35 104.146 217.85 103.976 217.36L102.626 213.64H101.296V221ZM109.238 221H110.378V215.5H109.238V221ZM109.808 214.47C110.228 214.47 110.548 214.19 110.548 213.79C110.548 213.38 110.228 213.11 109.808 213.11C109.388 213.11 109.078 213.38 109.078 213.79C109.078 214.19 109.388 214.47 109.808 214.47ZM113.749 221.13C114.369 221.13 114.939 220.8 115.349 220.38H115.379L115.479 221H116.419V213.03H115.269V215.07L115.319 215.98C114.869 215.6 114.469 215.36 113.839 215.36C112.609 215.36 111.479 216.47 111.479 218.26C111.479 220.08 112.369 221.13 113.749 221.13ZM114.019 220.18C113.159 220.18 112.669 219.49 112.669 218.24C112.669 217.05 113.289 216.32 114.059 216.32C114.469 216.32 114.859 216.45 115.269 216.82V219.51C114.869 219.97 114.479 220.18 114.019 220.18ZM119.789 221.13C120.409 221.13 120.979 220.8 121.389 220.38H121.419L121.519 221H122.459V213.03H121.309V215.07L121.359 215.98C120.909 215.6 120.509 215.36 119.879 215.36C118.649 215.36 117.519 216.47 117.519 218.26C117.519 220.08 118.409 221.13 119.789 221.13ZM120.059 220.18C119.199 220.18 118.709 219.49 118.709 218.24C118.709 217.05 119.329 216.32 120.099 216.32C120.509 216.32 120.899 216.45 121.309 216.82V219.51C120.909 219.97 120.519 220.18 120.059 220.18ZM125.068 221.13C125.348 221.13 125.548 221.09 125.688 221.04L125.538 220.17C125.438 220.19 125.398 220.19 125.348 220.19C125.208 220.19 125.068 220.08 125.068 219.77V213.03H123.928V219.71C123.928 220.6 124.238 221.13 125.068 221.13ZM128.937 221.13C129.657 221.13 130.287 220.89 130.797 220.55L130.397 219.82C129.997 220.08 129.577 220.23 129.087 220.23C128.137 220.23 127.477 219.6 127.387 218.55H130.957C130.987 218.42 131.007 218.19 131.007 217.97C131.007 216.41 130.227 215.36 128.767 215.36C127.477 215.36 126.257 216.47 126.257 218.26C126.257 220.07 127.447 221.13 128.937 221.13ZM127.377 217.76C127.487 216.79 128.097 216.26 128.787 216.26C129.587 216.26 130.017 216.81 130.017 217.76H127.377ZM134.129 221H138.589V220.02H135.289V217.64H137.989V216.66H135.289V214.61H138.479V213.64H134.129V221ZM141.066 221.13C141.726 221.13 142.316 220.8 142.816 220.37H142.846L142.946 221H143.886V217.69C143.886 216.23 143.256 215.36 141.886 215.36C141.006 215.36 140.236 215.72 139.666 216.08L140.096 216.86C140.566 216.56 141.106 216.3 141.686 216.3C142.496 216.3 142.726 216.86 142.736 217.5C140.446 217.75 139.446 218.36 139.446 219.54C139.446 220.51 140.116 221.13 141.066 221.13ZM141.416 220.22C140.926 220.22 140.556 220 140.556 219.46C140.556 218.84 141.106 218.43 142.736 218.23V219.58C142.286 219.99 141.896 220.22 141.416 220.22ZM146.748 221.13C148.108 221.13 148.838 220.38 148.838 219.46C148.838 218.42 147.988 218.08 147.218 217.79C146.618 217.57 146.048 217.39 146.048 216.92C146.048 216.54 146.328 216.24 146.928 216.24C147.388 216.24 147.778 216.44 148.158 216.72L148.698 216.01C148.248 215.66 147.648 215.36 146.908 215.36C145.698 215.36 144.958 216.05 144.958 216.97C144.958 217.9 145.798 218.29 146.528 218.57C147.128 218.8 147.748 219.02 147.748 219.52C147.748 219.94 147.438 220.26 146.778 220.26C146.188 220.26 145.708 220.02 145.218 219.63L144.678 220.37C145.208 220.81 145.988 221.13 146.748 221.13ZM151.429 221.13C151.829 221.13 152.199 221.03 152.509 220.93L152.299 220.08C152.139 220.15 151.899 220.21 151.709 220.21C151.139 220.21 150.909 219.87 150.909 219.21V216.42H152.339V215.5H150.909V213.98H149.939L149.809 215.5L148.959 215.56V216.42H149.759V219.2C149.759 220.36 150.189 221.13 151.429 221.13Z" fill="#5D8FCA"/>
<g opacity="0.7">
<path d="M183.397 295.992H181.801V303.924H183.397V295.992ZM175.921 299.496C175.921 298.584 176.569 298.056 177.385 298.056C178.213 298.056 178.837 298.584 178.837 299.496C178.837 300.384 178.213 300.924 177.385 300.924C176.569 300.924 175.921 300.384 175.921 299.496ZM180.385 299.496C180.385 297.864 179.077 296.688 177.385 296.688C175.693 296.688 174.373 297.864 174.373 299.496C174.373 301.104 175.693 302.292 177.385 302.292C179.077 302.292 180.385 301.104 180.385 299.496ZM177.625 305.58V303.144H176.041V306.84H183.673V305.58H177.625ZM190.78 304.488V302.184H193.936V300.912H187.756V298.008H193.852V296.736H186.16V302.184H189.196V304.488H184.996V305.784H195.004V304.488H190.78ZM197.408 299.268C197.408 298.416 198.02 297.912 198.86 297.912C199.688 297.912 200.312 298.416 200.312 299.268C200.312 300.108 199.688 300.612 198.86 300.612C198.02 300.612 197.408 300.108 197.408 299.268ZM201.848 299.268C201.848 297.696 200.552 296.58 198.86 296.58C197.156 296.58 195.86 297.696 195.86 299.268C195.86 300.816 197.156 301.944 198.86 301.944C200.552 301.944 201.848 300.816 201.848 299.268ZM200.864 305.796C199.448 305.796 198.692 305.496 198.692 304.848C198.692 304.212 199.448 303.9 200.864 303.9C202.268 303.9 203.024 304.212 203.024 304.848C203.024 305.496 202.268 305.796 200.864 305.796ZM200.864 302.664C198.572 302.664 197.12 303.48 197.12 304.848C197.12 306.228 198.572 307.044 200.864 307.044C203.144 307.044 204.596 306.228 204.596 304.848C204.596 303.48 203.144 302.664 200.864 302.664ZM205.892 298.632V297.336H204.476V295.98H202.892V302.424H204.476V301.032H205.892V299.736H204.476V298.632H205.892Z" fill="#3E80D6"/>
<path d="M161.059 318H162.219V310.64H161.059V318ZM163.786 318H164.926V314.1C165.416 313.61 165.766 313.35 166.276 313.35C166.926 313.35 167.206 313.73 167.206 314.68V318H168.356V314.54C168.356 313.14 167.836 312.36 166.666 312.36C165.916 312.36 165.356 312.77 164.846 313.26H164.816L164.726 312.5H163.786V318ZM171.666 318.13C172.286 318.13 172.856 317.8 173.266 317.38H173.296L173.396 318H174.336V310.03H173.186V312.07L173.236 312.98C172.786 312.6 172.386 312.36 171.756 312.36C170.526 312.36 169.396 313.47 169.396 315.26C169.396 317.08 170.286 318.13 171.666 318.13ZM171.936 317.18C171.076 317.18 170.586 316.49 170.586 315.24C170.586 314.05 171.206 313.32 171.976 313.32C172.386 313.32 172.776 313.45 173.186 313.82V316.51C172.786 316.97 172.396 317.18 171.936 317.18ZM175.806 318H176.946V312.5H175.806V318ZM176.376 311.47C176.796 311.47 177.116 311.19 177.116 310.79C177.116 310.38 176.796 310.11 176.376 310.11C175.956 310.11 175.646 310.38 175.646 310.79C175.646 311.19 175.956 311.47 176.376 311.47ZM179.717 318.13C180.377 318.13 180.967 317.8 181.467 317.37H181.497L181.597 318H182.537V314.69C182.537 313.23 181.907 312.36 180.537 312.36C179.657 312.36 178.887 312.72 178.317 313.08L178.747 313.86C179.217 313.56 179.757 313.3 180.337 313.3C181.147 313.3 181.377 313.86 181.387 314.5C179.097 314.75 178.097 315.36 178.097 316.54C178.097 317.51 178.767 318.13 179.717 318.13ZM180.067 317.22C179.577 317.22 179.207 317 179.207 316.46C179.207 315.84 179.757 315.43 181.387 315.23V316.58C180.937 316.99 180.547 317.22 180.067 317.22ZM183.91 318H185.05V314.1C185.54 313.61 185.89 313.35 186.4 313.35C187.05 313.35 187.33 313.73 187.33 314.68V318H188.48V314.54C188.48 313.14 187.96 312.36 186.79 312.36C186.04 312.36 185.48 312.77 184.97 313.26H184.94L184.85 312.5H183.91V318ZM194.777 318.13C196.667 318.13 197.987 316.66 197.987 314.29C197.987 311.92 196.667 310.5 194.777 310.5C192.887 310.5 191.577 311.92 191.577 314.29C191.577 316.66 192.887 318.13 194.777 318.13ZM194.777 317.12C193.557 317.12 192.767 316.02 192.767 314.29C192.767 312.56 193.557 311.51 194.777 311.51C195.997 311.51 196.797 312.56 196.797 314.29C196.797 316.02 195.997 317.12 194.777 317.12ZM201.397 318.13C202.027 318.13 202.677 317.9 203.177 317.45L202.707 316.69C202.377 316.97 201.967 317.19 201.507 317.19C200.587 317.19 199.957 316.42 199.957 315.26C199.957 314.09 200.617 313.31 201.537 313.31C201.917 313.31 202.227 313.47 202.527 313.74L203.097 312.99C202.697 312.64 202.187 312.36 201.487 312.36C200.037 312.36 198.767 313.42 198.767 315.26C198.767 317.08 199.907 318.13 201.397 318.13ZM206.09 318.13C206.81 318.13 207.44 317.89 207.95 317.55L207.55 316.82C207.15 317.08 206.73 317.23 206.24 317.23C205.29 317.23 204.63 316.6 204.54 315.55H208.11C208.14 315.42 208.16 315.19 208.16 314.97C208.16 313.41 207.38 312.36 205.92 312.36C204.63 312.36 203.41 313.47 203.41 315.26C203.41 317.07 204.6 318.13 206.09 318.13ZM204.53 314.76C204.64 313.79 205.25 313.26 205.94 313.26C206.74 313.26 207.17 313.81 207.17 314.76H204.53ZM210.348 318.13C211.008 318.13 211.598 317.8 212.098 317.37H212.128L212.228 318H213.168V314.69C213.168 313.23 212.538 312.36 211.168 312.36C210.288 312.36 209.518 312.72 208.948 313.08L209.378 313.86C209.848 313.56 210.388 313.3 210.968 313.3C211.778 313.3 212.008 313.86 212.018 314.5C209.728 314.75 208.728 315.36 208.728 316.54C208.728 317.51 209.398 318.13 210.348 318.13ZM210.698 317.22C210.208 317.22 209.838 317 209.838 316.46C209.838 315.84 210.388 315.43 212.018 315.23V316.58C211.568 316.99 211.178 317.22 210.698 317.22ZM214.541 318H215.681V314.1C216.171 313.61 216.521 313.35 217.031 313.35C217.681 313.35 217.961 313.73 217.961 314.68V318H219.111V314.54C219.111 313.14 218.591 312.36 217.421 312.36C216.671 312.36 216.111 312.77 215.601 313.26H215.571L215.481 312.5H214.541V318Z" fill="#6FA0E0"/>
</g>
<g opacity="0.7">
<path d="M392.208 189.482H394.944V188.258H392.208V186.626H395.172V185.366H390.708V192.758H391.476C393.132 192.758 394.224 192.734 395.496 192.518L395.352 191.246C394.32 191.402 393.432 191.45 392.208 191.462V189.482ZM398.316 184.214V188.498H397.428V184.394H395.952V194.786H397.428V189.77H398.316V195.278H399.816V184.214H398.316ZM408.772 190.982H410.356V184.226H408.772V186.002H407.476V187.274H408.772V188.078H407.476V189.338H408.772V190.982ZM403.792 186.218H404.824V189.218C404.476 189.23 404.128 189.254 403.792 189.254V186.218ZM407.356 189.026C407.032 189.062 406.696 189.098 406.348 189.122V186.218H407.224V184.958H401.392V186.218H402.268V189.29C401.86 189.29 401.476 189.29 401.116 189.29L401.284 190.574C403.024 190.574 405.4 190.538 407.452 190.19L407.356 189.026ZM406.612 194.09C405.16 194.09 404.416 193.802 404.416 193.226C404.416 192.638 405.16 192.362 406.612 192.362C408.076 192.362 408.82 192.638 408.82 193.226C408.82 193.802 408.076 194.09 406.612 194.09ZM406.612 191.162C404.26 191.162 402.832 191.918 402.832 193.226C402.832 194.522 404.26 195.29 406.612 195.29C408.976 195.29 410.404 194.522 410.404 193.226C410.404 191.918 408.976 191.162 406.612 191.162ZM413.527 187.514C413.527 186.662 414.139 186.158 414.979 186.158C415.807 186.158 416.431 186.662 416.431 187.514C416.431 188.354 415.807 188.858 414.979 188.858C414.139 188.858 413.527 188.354 413.527 187.514ZM417.967 187.514C417.967 185.942 416.671 184.826 414.979 184.826C413.275 184.826 411.979 185.942 411.979 187.514C411.979 189.062 413.275 190.19 414.979 190.19C416.671 190.19 417.967 189.062 417.967 187.514ZM416.983 194.042C415.567 194.042 414.811 193.742 414.811 193.094C414.811 192.458 415.567 192.146 416.983 192.146C418.387 192.146 419.143 192.458 419.143 193.094C419.143 193.742 418.387 194.042 416.983 194.042ZM416.983 190.91C414.691 190.91 413.239 191.726 413.239 193.094C413.239 194.474 414.691 195.29 416.983 195.29C419.263 195.29 420.715 194.474 420.715 193.094C420.715 191.726 419.263 190.91 416.983 190.91ZM422.011 186.878V185.582H420.595V184.226H419.011V190.67H420.595V189.278H422.011V187.982H420.595V186.878H422.011Z" fill="#3E80D6"/>
<path d="M377.364 206.246H378.524V203.456H379.634C381.234 203.456 382.404 202.716 382.404 201.106C382.404 199.446 381.234 198.886 379.594 198.886H377.364V206.246ZM378.524 202.526V199.816H379.484C380.654 199.816 381.264 200.136 381.264 201.106C381.264 202.076 380.704 202.526 379.524 202.526H378.524ZM384.33 206.376C384.99 206.376 385.58 206.046 386.08 205.616H386.11L386.21 206.246H387.15V202.936C387.15 201.476 386.52 200.606 385.15 200.606C384.27 200.606 383.5 200.966 382.93 201.326L383.36 202.106C383.83 201.806 384.37 201.546 384.95 201.546C385.76 201.546 385.99 202.106 386 202.746C383.71 202.996 382.71 203.606 382.71 204.786C382.71 205.756 383.38 206.376 384.33 206.376ZM384.68 205.466C384.19 205.466 383.82 205.246 383.82 204.706C383.82 204.086 384.37 203.676 386 203.476V204.826C385.55 205.236 385.16 205.466 384.68 205.466ZM390.762 206.376C391.392 206.376 392.042 206.146 392.542 205.696L392.072 204.936C391.742 205.216 391.332 205.436 390.872 205.436C389.952 205.436 389.322 204.666 389.322 203.506C389.322 202.336 389.982 201.556 390.902 201.556C391.282 201.556 391.592 201.716 391.892 201.986L392.462 201.236C392.062 200.886 391.552 200.606 390.852 200.606C389.402 200.606 388.132 201.666 388.132 203.506C388.132 205.326 389.272 206.376 390.762 206.376ZM393.429 206.246H394.569V200.746H393.429V206.246ZM393.999 199.716C394.419 199.716 394.739 199.436 394.739 199.036C394.739 198.626 394.419 198.356 393.999 198.356C393.579 198.356 393.269 198.626 393.269 199.036C393.269 199.436 393.579 199.716 393.999 199.716ZM396.23 200.746L395.48 200.806V201.666H396.23V206.246H397.38V201.666H398.49V200.746H397.38V200.046C397.38 199.376 397.62 199.056 398.11 199.056C398.3 199.056 398.51 199.106 398.71 199.196L398.94 198.336C398.69 198.226 398.34 198.146 397.97 198.146C396.74 198.146 396.23 198.926 396.23 200.056V200.746ZM400.27 199.716C400.69 199.716 401.01 199.436 401.01 199.036C401.01 198.626 400.69 198.356 400.27 198.356C399.85 198.356 399.53 198.626 399.53 199.036C399.53 199.436 399.85 199.716 400.27 199.716ZM399.69 206.246H400.84V200.746H399.69V206.246ZM404.554 206.376C405.184 206.376 405.834 206.146 406.334 205.696L405.864 204.936C405.534 205.216 405.124 205.436 404.664 205.436C403.744 205.436 403.114 204.666 403.114 203.506C403.114 202.336 403.774 201.556 404.694 201.556C405.074 201.556 405.384 201.716 405.684 201.986L406.254 201.236C405.854 200.886 405.344 200.606 404.644 200.606C403.194 200.606 401.924 201.666 401.924 203.506C401.924 205.326 403.064 206.376 404.554 206.376ZM411.407 206.376C412.767 206.376 413.997 205.326 413.997 203.506C413.997 201.666 412.767 200.606 411.407 200.606C410.047 200.606 408.817 201.666 408.817 203.506C408.817 205.326 410.047 206.376 411.407 206.376ZM411.407 205.436C410.547 205.436 410.007 204.666 410.007 203.506C410.007 202.336 410.547 201.556 411.407 201.556C412.277 201.556 412.817 202.336 412.817 203.506C412.817 204.666 412.277 205.436 411.407 205.436ZM417.331 206.376C417.961 206.376 418.611 206.146 419.111 205.696L418.641 204.936C418.311 205.216 417.901 205.436 417.441 205.436C416.521 205.436 415.891 204.666 415.891 203.506C415.891 202.336 416.551 201.556 417.471 201.556C417.851 201.556 418.161 201.716 418.461 201.986L419.031 201.236C418.631 200.886 418.121 200.606 417.421 200.606C415.971 200.606 414.701 201.666 414.701 203.506C414.701 205.326 415.841 206.376 417.331 206.376ZM422.023 206.376C422.743 206.376 423.373 206.136 423.883 205.796L423.483 205.066C423.083 205.326 422.663 205.476 422.173 205.476C421.223 205.476 420.563 204.846 420.473 203.796H424.043C424.073 203.666 424.093 203.436 424.093 203.216C424.093 201.656 423.313 200.606 421.853 200.606C420.563 200.606 419.343 201.716 419.343 203.506C419.343 205.316 420.533 206.376 422.023 206.376ZM420.463 203.006C420.573 202.036 421.183 201.506 421.873 201.506C422.673 201.506 423.103 202.056 423.103 203.006H420.463ZM426.282 206.376C426.942 206.376 427.532 206.046 428.032 205.616H428.062L428.162 206.246H429.102V202.936C429.102 201.476 428.472 200.606 427.102 200.606C426.222 200.606 425.452 200.966 424.882 201.326L425.312 202.106C425.782 201.806 426.322 201.546 426.902 201.546C427.712 201.546 427.942 202.106 427.952 202.746C425.662 202.996 424.662 203.606 424.662 204.786C424.662 205.756 425.332 206.376 426.282 206.376ZM426.632 205.466C426.142 205.466 425.772 205.246 425.772 204.706C425.772 204.086 426.322 203.676 427.952 203.476V204.826C427.502 205.236 427.112 205.466 426.632 205.466ZM430.474 206.246H431.614V202.346C432.104 201.856 432.454 201.596 432.964 201.596C433.614 201.596 433.894 201.976 433.894 202.926V206.246H435.044V202.786C435.044 201.386 434.524 200.606 433.354 200.606C432.604 200.606 432.044 201.016 431.534 201.506H431.504L431.414 200.746H430.474V206.246Z" fill="#548BD3"/>
</g>
<g opacity="0.7">
<path d="M711.224 181.602H713.756V180.318H709.664V187.614H710.432C711.848 187.614 713.024 187.566 714.368 187.314L714.248 186.03C713.192 186.222 712.256 186.282 711.224 186.306V181.602ZM717.332 179.034V183.294H716.336V179.25H714.86V189.582H716.336V184.566H717.332V190.098H718.832V179.034H717.332ZM724.283 179.898H722.687V181.494C722.687 183.594 721.847 185.742 719.975 186.606L720.959 187.878C722.195 187.254 723.023 186.102 723.503 184.686C723.959 186.018 724.763 187.098 725.975 187.686L726.911 186.426C725.087 185.61 724.283 183.582 724.283 181.494V179.898ZM727.823 179.034V182.502H725.699V183.774H727.823V190.122H729.407V179.034H727.823ZM732.543 182.334C732.543 181.482 733.155 180.978 733.995 180.978C734.823 180.978 735.447 181.482 735.447 182.334C735.447 183.174 734.823 183.678 733.995 183.678C733.155 183.678 732.543 183.174 732.543 182.334ZM736.983 182.334C736.983 180.762 735.687 179.646 733.995 179.646C732.291 179.646 730.995 180.762 730.995 182.334C730.995 183.882 732.291 185.01 733.995 185.01C735.687 185.01 736.983 183.882 736.983 182.334ZM735.999 188.862C734.583 188.862 733.827 188.562 733.827 187.914C733.827 187.278 734.583 186.966 735.999 186.966C737.403 186.966 738.159 187.278 738.159 187.914C738.159 188.562 737.403 188.862 735.999 188.862ZM735.999 185.73C733.707 185.73 732.255 186.546 732.255 187.914C732.255 189.294 733.707 190.11 735.999 190.11C738.279 190.11 739.731 189.294 739.731 187.914C739.731 186.546 738.279 185.73 735.999 185.73ZM741.027 181.698V180.402H739.611V179.046H738.027V185.49H739.611V184.098H741.027V182.802H739.611V181.698H741.027Z" fill="#3E80D6"/>
<path d="M694.311 198.056L694.611 197.066C694.851 196.266 695.081 195.456 695.291 194.616H695.331C695.561 195.446 695.781 196.266 696.031 197.066L696.321 198.056H694.311ZM697.221 201.066H698.451L696.011 193.706H694.671L692.231 201.066H693.411L694.041 198.966H696.601L697.221 201.066ZM700.747 201.196C701.147 201.196 701.517 201.096 701.827 200.996L701.617 200.146C701.457 200.216 701.217 200.276 701.027 200.276C700.457 200.276 700.227 199.936 700.227 199.276V196.486H701.657V195.566H700.227V194.046H699.257L699.127 195.566L698.277 195.626V196.486H699.077V199.266C699.077 200.426 699.507 201.196 700.747 201.196ZM703.742 201.196C704.022 201.196 704.222 201.156 704.362 201.106L704.212 200.236C704.112 200.256 704.072 200.256 704.022 200.256C703.882 200.256 703.742 200.146 703.742 199.836V193.096H702.602V199.776C702.602 200.666 702.912 201.196 703.742 201.196ZM706.621 201.196C707.281 201.196 707.871 200.866 708.371 200.436H708.401L708.501 201.066H709.441V197.756C709.441 196.296 708.811 195.426 707.441 195.426C706.561 195.426 705.791 195.786 705.221 196.146L705.651 196.926C706.121 196.626 706.661 196.366 707.241 196.366C708.051 196.366 708.281 196.926 708.291 197.566C706.001 197.816 705.001 198.426 705.001 199.606C705.001 200.576 705.671 201.196 706.621 201.196ZM706.971 200.286C706.481 200.286 706.111 200.066 706.111 199.526C706.111 198.906 706.661 198.496 708.291 198.296V199.646C707.841 200.056 707.451 200.286 706.971 200.286ZM710.814 201.066H711.954V197.166C712.444 196.676 712.794 196.416 713.304 196.416C713.954 196.416 714.234 196.796 714.234 197.746V201.066H715.384V197.606C715.384 196.206 714.864 195.426 713.694 195.426C712.944 195.426 712.384 195.836 711.874 196.326H711.844L711.754 195.566H710.814V201.066ZM718.644 201.196C719.044 201.196 719.414 201.096 719.724 200.996L719.514 200.146C719.354 200.216 719.114 200.276 718.924 200.276C718.354 200.276 718.124 199.936 718.124 199.276V196.486H719.554V195.566H718.124V194.046H717.154L717.024 195.566L716.174 195.626V196.486H716.974V199.266C716.974 200.426 717.404 201.196 718.644 201.196ZM720.5 201.066H721.64V195.566H720.5V201.066ZM721.07 194.536C721.49 194.536 721.81 194.256 721.81 193.856C721.81 193.446 721.49 193.176 721.07 193.176C720.65 193.176 720.34 193.446 720.34 193.856C720.34 194.256 720.65 194.536 721.07 194.536ZM725.351 201.196C725.981 201.196 726.631 200.966 727.131 200.516L726.661 199.756C726.331 200.036 725.921 200.256 725.461 200.256C724.541 200.256 723.911 199.486 723.911 198.326C723.911 197.156 724.571 196.376 725.491 196.376C725.871 196.376 726.181 196.536 726.481 196.806L727.051 196.056C726.651 195.706 726.141 195.426 725.441 195.426C723.991 195.426 722.721 196.486 722.721 198.326C722.721 200.146 723.861 201.196 725.351 201.196ZM732.905 201.196C734.795 201.196 736.115 199.726 736.115 197.356C736.115 194.986 734.795 193.566 732.905 193.566C731.015 193.566 729.705 194.986 729.705 197.356C729.705 199.726 731.015 201.196 732.905 201.196ZM732.905 200.186C731.685 200.186 730.895 199.086 730.895 197.356C730.895 195.626 731.685 194.576 732.905 194.576C734.125 194.576 734.925 195.626 734.925 197.356C734.925 199.086 734.125 200.186 732.905 200.186ZM739.524 201.196C740.154 201.196 740.804 200.966 741.304 200.516L740.834 199.756C740.504 200.036 740.094 200.256 739.634 200.256C738.714 200.256 738.084 199.486 738.084 198.326C738.084 197.156 738.744 196.376 739.664 196.376C740.044 196.376 740.354 196.536 740.654 196.806L741.224 196.056C740.824 195.706 740.314 195.426 739.614 195.426C738.164 195.426 736.894 196.486 736.894 198.326C736.894 200.146 738.034 201.196 739.524 201.196ZM744.217 201.196C744.937 201.196 745.567 200.956 746.077 200.616L745.677 199.886C745.277 200.146 744.857 200.296 744.367 200.296C743.417 200.296 742.757 199.666 742.667 198.616H746.237C746.267 198.486 746.287 198.256 746.287 198.036C746.287 196.476 745.507 195.426 744.047 195.426C742.757 195.426 741.537 196.536 741.537 198.326C741.537 200.136 742.727 201.196 744.217 201.196ZM742.657 197.826C742.767 196.856 743.377 196.326 744.067 196.326C744.867 196.326 745.297 196.876 745.297 197.826H742.657ZM748.476 201.196C749.136 201.196 749.726 200.866 750.226 200.436H750.256L750.356 201.066H751.296V197.756C751.296 196.296 750.666 195.426 749.296 195.426C748.416 195.426 747.646 195.786 747.076 196.146L747.506 196.926C747.976 196.626 748.516 196.366 749.096 196.366C749.906 196.366 750.136 196.926 750.146 197.566C747.856 197.816 746.856 198.426 746.856 199.606C746.856 200.576 747.526 201.196 748.476 201.196ZM748.826 200.286C748.336 200.286 747.966 200.066 747.966 199.526C747.966 198.906 748.516 198.496 750.146 198.296V199.646C749.696 200.056 749.306 200.286 748.826 200.286ZM752.668 201.066H753.808V197.166C754.298 196.676 754.648 196.416 755.158 196.416C755.808 196.416 756.088 196.796 756.088 197.746V201.066H757.238V197.606C757.238 196.206 756.718 195.426 755.548 195.426C754.798 195.426 754.238 195.836 753.728 196.326H753.698L753.608 195.566H752.668V201.066Z" fill="#548BD3"/>
</g>
<g opacity="0.7">
<path d="M398.285 35.292H393.977V34.428H398.285V35.292ZM399.857 32.268H398.285V33.24H393.977V32.268H392.405V36.528H399.857V32.268ZM401.129 38.496V37.236H391.133V38.496H395.321V39.432H392.237V40.68H398.333V43.044H399.917V39.432H396.905V38.496H401.129ZM402.968 40.272H409.184V43.044H410.768V39.024H402.968V40.272ZM410.528 36.48C410.744 35.1 410.744 34.044 410.744 33.228V32.46H403.136V33.72H409.184C409.172 34.452 409.136 35.352 408.956 36.48H401.912V37.74H411.92V36.48H410.528ZM415.344 39.336C414.744 39.336 414.312 38.856 414.312 38.028C414.312 37.2 414.744 36.708 415.344 36.708C415.944 36.708 416.376 37.2 416.376 38.028C416.376 38.856 415.944 39.336 415.344 39.336ZM415.344 35.388C413.928 35.388 412.92 36.48 412.92 38.028C412.92 39.564 413.928 40.656 415.344 40.656C416.76 40.656 417.768 39.564 417.768 38.028C417.768 36.48 416.76 35.388 415.344 35.388ZM416.124 32.28H414.564V33.648H412.68V34.908H417.96V33.648H416.124V32.28ZM420.672 31.968V36.48H419.832V32.184H418.356V42.564H419.832V37.752H420.672V43.02H422.172V31.968H420.672Z" fill="#3E80D6"/>
<path d="M380.696 50.99L380.996 50C381.236 49.2 381.466 48.39 381.676 47.55H381.716C381.946 48.38 382.166 49.2 382.416 50L382.706 50.99H380.696ZM383.606 54H384.836L382.396 46.64H381.056L378.616 54H379.796L380.426 51.9H382.986L383.606 54ZM385.448 54H386.588V50.57C386.938 49.7 387.478 49.39 387.928 49.39C388.148 49.39 388.288 49.42 388.478 49.48L388.688 48.48C388.518 48.4 388.338 48.36 388.068 48.36C387.478 48.36 386.898 48.78 386.508 49.49H386.478L386.388 48.5H385.448V54ZM391.413 54.13C392.043 54.13 392.693 53.9 393.193 53.45L392.723 52.69C392.393 52.97 391.983 53.19 391.523 53.19C390.603 53.19 389.973 52.42 389.973 51.26C389.973 50.09 390.633 49.31 391.553 49.31C391.933 49.31 392.243 49.47 392.543 49.74L393.113 48.99C392.713 48.64 392.203 48.36 391.503 48.36C390.053 48.36 388.783 49.42 388.783 51.26C388.783 53.08 389.923 54.13 391.413 54.13ZM395.822 54.13C396.222 54.13 396.592 54.03 396.902 53.93L396.692 53.08C396.532 53.15 396.292 53.21 396.102 53.21C395.532 53.21 395.302 52.87 395.302 52.21V49.42H396.732V48.5H395.302V46.98H394.332L394.202 48.5L393.352 48.56V49.42H394.152V52.2C394.152 53.36 394.582 54.13 395.822 54.13ZM397.677 54H398.817V48.5H397.677V54ZM398.247 47.47C398.667 47.47 398.987 47.19 398.987 46.79C398.987 46.38 398.667 46.11 398.247 46.11C397.827 46.11 397.517 46.38 397.517 46.79C397.517 47.19 397.827 47.47 398.247 47.47ZM402.529 54.13C403.159 54.13 403.809 53.9 404.309 53.45L403.839 52.69C403.509 52.97 403.099 53.19 402.639 53.19C401.719 53.19 401.089 52.42 401.089 51.26C401.089 50.09 401.749 49.31 402.669 49.31C403.049 49.31 403.359 49.47 403.659 49.74L404.229 48.99C403.829 48.64 403.319 48.36 402.619 48.36C401.169 48.36 399.899 49.42 399.899 51.26C399.899 53.08 401.039 54.13 402.529 54.13ZM410.082 54.13C411.972 54.13 413.292 52.66 413.292 50.29C413.292 47.92 411.972 46.5 410.082 46.5C408.192 46.5 406.882 47.92 406.882 50.29C406.882 52.66 408.192 54.13 410.082 54.13ZM410.082 53.12C408.862 53.12 408.072 52.02 408.072 50.29C408.072 48.56 408.862 47.51 410.082 47.51C411.302 47.51 412.102 48.56 412.102 50.29C412.102 52.02 411.302 53.12 410.082 53.12ZM416.702 54.13C417.332 54.13 417.982 53.9 418.482 53.45L418.012 52.69C417.682 52.97 417.272 53.19 416.812 53.19C415.892 53.19 415.262 52.42 415.262 51.26C415.262 50.09 415.922 49.31 416.842 49.31C417.222 49.31 417.532 49.47 417.832 49.74L418.402 48.99C418.002 48.64 417.492 48.36 416.792 48.36C415.342 48.36 414.072 49.42 414.072 51.26C414.072 53.08 415.212 54.13 416.702 54.13ZM421.395 54.13C422.115 54.13 422.745 53.89 423.255 53.55L422.855 52.82C422.455 53.08 422.035 53.23 421.545 53.23C420.595 53.23 419.935 52.6 419.845 51.55H423.415C423.445 51.42 423.465 51.19 423.465 50.97C423.465 49.41 422.685 48.36 421.225 48.36C419.935 48.36 418.715 49.47 418.715 51.26C418.715 53.07 419.905 54.13 421.395 54.13ZM419.835 50.76C419.945 49.79 420.555 49.26 421.245 49.26C422.045 49.26 422.475 49.81 422.475 50.76H419.835ZM425.653 54.13C426.313 54.13 426.903 53.8 427.403 53.37H427.433L427.533 54H428.473V50.69C428.473 49.23 427.843 48.36 426.473 48.36C425.593 48.36 424.823 48.72 424.253 49.08L424.683 49.86C425.153 49.56 425.693 49.3 426.273 49.3C427.083 49.3 427.313 49.86 427.323 50.5C425.033 50.75 424.033 51.36 424.033 52.54C424.033 53.51 424.703 54.13 425.653 54.13ZM426.003 53.22C425.513 53.22 425.143 53 425.143 52.46C425.143 51.84 425.693 51.43 427.323 51.23V52.58C426.873 52.99 426.483 53.22 426.003 53.22ZM429.845 54H430.985V50.1C431.475 49.61 431.825 49.35 432.335 49.35C432.985 49.35 433.265 49.73 433.265 50.68V54H434.415V50.54C434.415 49.14 433.895 48.36 432.725 48.36C431.975 48.36 431.415 48.77 430.905 49.26H430.875L430.785 48.5H429.845V54Z" fill="#548BD3"/>
</g>
<path d="M280.927 317.126C280.927 316.092 281.884 315.487 283.27 315.487C284.667 315.487 285.624 316.092 285.624 317.126C285.624 318.16 284.667 318.765 283.27 318.765C281.884 318.765 280.927 318.16 280.927 317.126ZM283.996 321.592V319.876C285.789 319.667 287.054 318.633 287.054 317.126C287.054 315.432 285.437 314.332 283.27 314.332C281.114 314.332 279.497 315.432 279.497 317.126C279.497 318.633 280.762 319.656 282.544 319.876V321.592H278.694V322.769H287.868V321.592H283.996ZM291.788 314.695H290.391V316.4C290.391 318.127 289.852 319.942 288.367 320.844L289.236 321.933C290.149 321.383 290.743 320.415 291.095 319.293C291.414 320.316 291.953 321.174 292.811 321.702L293.603 320.58C292.228 319.667 291.788 317.984 291.788 316.345V314.695ZM293.812 317.236H292.547V318.413H293.812V323.495H295.165V313.98H293.812V317.236ZM295.869 313.815V323.946H297.244V313.815H295.869ZM301.13 320.437C300.371 320.437 299.865 319.634 299.865 318.127C299.865 316.631 300.371 315.828 301.13 315.828C301.878 315.828 302.395 316.631 302.395 318.127C302.395 319.634 301.878 320.437 301.13 320.437ZM301.13 314.519C299.59 314.519 298.468 315.905 298.468 318.127C298.468 320.36 299.59 321.757 301.13 321.757C302.659 321.757 303.792 320.36 303.792 318.127C303.792 315.905 302.659 314.519 301.13 314.519ZM307.818 317.632H306.344V313.815H304.892V323.946H306.344V318.831H307.818V317.632ZM310.242 314.772H308.801V321.449H309.703C311.243 321.449 312.926 321.339 314.653 320.976L314.499 319.766C313.014 320.063 311.573 320.173 310.242 320.206V314.772ZM315.28 313.804V323.935H316.732V313.804H315.28ZM320.85 320.437C320.091 320.437 319.585 319.634 319.585 318.127C319.585 316.631 320.091 315.828 320.85 315.828C321.598 315.828 322.115 316.631 322.115 318.127C322.115 319.634 321.598 320.437 320.85 320.437ZM320.85 314.519C319.31 314.519 318.188 315.905 318.188 318.127C318.188 320.36 319.31 321.757 320.85 321.757C322.379 321.757 323.512 320.36 323.512 318.127C323.512 315.905 322.379 314.519 320.85 314.519ZM327.538 317.632H326.064V313.815H324.612V323.946H326.064V318.831H327.538V317.632Z" fill="#3E80D6"/>
<path d="M288.266 335.13C290.156 335.13 291.476 333.66 291.476 331.29C291.476 328.92 290.156 327.5 288.266 327.5C286.376 327.5 285.066 328.92 285.066 331.29C285.066 333.66 286.376 335.13 288.266 335.13ZM288.266 334.12C287.046 334.12 286.256 333.02 286.256 331.29C286.256 329.56 287.046 328.51 288.266 328.51C289.486 328.51 290.286 329.56 290.286 331.29C290.286 333.02 289.486 334.12 288.266 334.12ZM294.886 335.13C295.516 335.13 296.166 334.9 296.666 334.45L296.196 333.69C295.866 333.97 295.456 334.19 294.996 334.19C294.076 334.19 293.446 333.42 293.446 332.26C293.446 331.09 294.106 330.31 295.026 330.31C295.406 330.31 295.716 330.47 296.016 330.74L296.586 329.99C296.186 329.64 295.676 329.36 294.976 329.36C293.526 329.36 292.256 330.42 292.256 332.26C292.256 334.08 293.396 335.13 294.886 335.13ZM299.579 335.13C300.299 335.13 300.929 334.89 301.439 334.55L301.039 333.82C300.639 334.08 300.219 334.23 299.729 334.23C298.779 334.23 298.119 333.6 298.029 332.55H301.599C301.629 332.42 301.649 332.19 301.649 331.97C301.649 330.41 300.869 329.36 299.409 329.36C298.119 329.36 296.899 330.47 296.899 332.26C296.899 334.07 298.089 335.13 299.579 335.13ZM298.019 331.76C298.129 330.79 298.739 330.26 299.429 330.26C300.229 330.26 300.659 330.81 300.659 331.76H298.019ZM303.837 335.13C304.497 335.13 305.087 334.8 305.587 334.37H305.617L305.717 335H306.657V331.69C306.657 330.23 306.027 329.36 304.657 329.36C303.777 329.36 303.007 329.72 302.437 330.08L302.867 330.86C303.337 330.56 303.877 330.3 304.457 330.3C305.267 330.3 305.497 330.86 305.507 331.5C303.217 331.75 302.217 332.36 302.217 333.54C302.217 334.51 302.887 335.13 303.837 335.13ZM304.187 334.22C303.697 334.22 303.327 334 303.327 333.46C303.327 332.84 303.877 332.43 305.507 332.23V333.58C305.057 333.99 304.667 334.22 304.187 334.22ZM308.03 335H309.17V331.1C309.66 330.61 310.01 330.35 310.52 330.35C311.17 330.35 311.45 330.73 311.45 331.68V335H312.6V331.54C312.6 330.14 312.08 329.36 310.91 329.36C310.16 329.36 309.6 329.77 309.09 330.26H309.06L308.97 329.5H308.03V335ZM314.01 335H315.15V329.5H314.01V335ZM314.58 328.47C315 328.47 315.32 328.19 315.32 327.79C315.32 327.38 315 327.11 314.58 327.11C314.16 327.11 313.85 327.38 313.85 327.79C313.85 328.19 314.16 328.47 314.58 328.47ZM317.922 335.13C318.582 335.13 319.172 334.8 319.672 334.37H319.702L319.802 335H320.742V331.69C320.742 330.23 320.112 329.36 318.742 329.36C317.862 329.36 317.092 329.72 316.522 330.08L316.952 330.86C317.422 330.56 317.962 330.3 318.542 330.3C319.352 330.3 319.582 330.86 319.592 331.5C317.302 331.75 316.302 332.36 316.302 333.54C316.302 334.51 316.972 335.13 317.922 335.13ZM318.272 334.22C317.782 334.22 317.412 334 317.412 333.46C317.412 332.84 317.962 332.43 319.592 332.23V333.58C319.142 333.99 318.752 334.22 318.272 334.22Z" fill="#5D8FCA"/>
<path d="M54.8487 220.895C54.0897 220.895 53.5837 220.092 53.5837 218.585C53.5837 217.089 54.0897 216.286 54.8487 216.286C55.5967 216.286 56.1137 217.089 56.1137 218.585C56.1137 220.092 55.5967 220.895 54.8487 220.895ZM54.8487 214.977C53.3087 214.977 52.1867 216.363 52.1867 218.585C52.1867 220.818 53.3087 222.215 54.8487 222.215C56.3777 222.215 57.5107 220.818 57.5107 218.585C57.5107 216.363 56.3777 214.977 54.8487 214.977ZM61.5367 218.09H60.0627V214.273H58.6107V224.404H60.0627V219.289H61.5367V218.09ZM67.5904 219.344H65.5224V216.308H67.5904V219.344ZM64.0814 219.344H62.7614V220.499H70.3734V219.344H69.0314V216.308H70.4064V215.153H62.7064V216.308H64.0814V219.344ZM61.9914 222.05V223.227H71.1654V222.05H61.9914ZM73.8751 219.047H77.1641V215.131H72.3791V216.286H75.6791V217.903H72.3901V222.072H73.3031C75.1401 222.072 76.6251 222.006 78.2751 221.72L78.1211 220.543C76.6911 220.785 75.4151 220.862 73.8751 220.873V219.047ZM78.8251 214.262V224.426H80.2771V214.262H78.8251ZM82.2938 215.241V216.396H85.5058C85.4728 216.88 85.3958 217.32 85.2968 217.738L81.7548 217.947L81.9418 219.179L84.8788 218.893C84.3068 220.004 83.3278 220.95 81.6668 221.775L82.4368 222.897C86.2098 220.972 86.9468 218.365 86.9468 215.241H82.2938ZM91.0608 218.134H89.6418V214.262H88.1898V224.382H89.6418V219.333H91.0608V218.134Z" fill="#3E80D6"/>
<path d="M60.5694 232.448L60.8694 231.458C61.1094 230.658 61.3394 229.848 61.5494 229.008H61.5894C61.8194 229.838 62.0394 230.658 62.2894 231.458L62.5794 232.448H60.5694ZM63.4794 235.458H64.7094L62.2694 228.098H60.9294L58.4894 235.458H59.6694L60.2994 233.358H62.8594L63.4794 235.458ZM68.1133 227.548C67.8633 227.438 67.5133 227.358 67.1433 227.358C65.9133 227.358 65.4033 228.138 65.4033 229.268V229.958L64.6533 230.018V230.878H65.4033V235.458H66.5533V230.878H67.6633V229.958H66.5533V229.258C66.5533 228.588 66.7933 228.268 67.2833 228.268C67.4733 228.268 67.6833 228.318 67.8833 228.408L68.1133 227.548ZM68.4011 235.458H69.5411V232.028C69.8911 231.158 70.4311 230.848 70.8811 230.848C71.1011 230.848 71.2411 230.878 71.4311 230.938L71.6411 229.938C71.4711 229.858 71.2911 229.818 71.0211 229.818C70.4311 229.818 69.8511 230.238 69.4611 230.948H69.4311L69.3411 229.958H68.4011V235.458ZM72.2334 235.458H73.3734V229.958H72.2334V235.458ZM72.8034 228.928C73.2234 228.928 73.5434 228.648 73.5434 228.248C73.5434 227.838 73.2234 227.568 72.8034 227.568C72.3834 227.568 72.0734 227.838 72.0734 228.248C72.0734 228.648 72.3834 228.928 72.8034 228.928ZM77.0851 235.588C77.7151 235.588 78.3651 235.358 78.8651 234.908L78.3951 234.148C78.0651 234.428 77.6551 234.648 77.1951 234.648C76.2751 234.648 75.6451 233.878 75.6451 232.718C75.6451 231.548 76.3051 230.768 77.2251 230.768C77.6051 230.768 77.9151 230.928 78.2151 231.198L78.7851 230.448C78.3851 230.098 77.8751 229.818 77.1751 229.818C75.7251 229.818 74.4551 230.878 74.4551 232.718C74.4551 234.538 75.5951 235.588 77.0851 235.588ZM80.9443 235.588C81.6043 235.588 82.1943 235.258 82.6943 234.828H82.7243L82.8243 235.458H83.7643V232.148C83.7643 230.688 83.1343 229.818 81.7643 229.818C80.8843 229.818 80.1143 230.178 79.5443 230.538L79.9743 231.318C80.4443 231.018 80.9843 230.758 81.5643 230.758C82.3743 230.758 82.6043 231.318 82.6143 231.958C80.3243 232.208 79.3243 232.818 79.3243 233.998C79.3243 234.968 79.9943 235.588 80.9443 235.588ZM81.2943 234.678C80.8043 234.678 80.4343 234.458 80.4343 233.918C80.4343 233.298 80.9843 232.888 82.6143 232.688V234.038C82.1643 234.448 81.7743 234.678 81.2943 234.678Z" fill="#5D8FCA"/>
<path d="M635.748 290.676C634.26 290.964 632.844 291.072 631.524 291.096V287.256H629.94V292.416H630.876C632.436 292.416 634.128 292.308 635.928 291.948L635.748 290.676ZM632.556 294.708H636.648V296.424H632.556V294.708ZM630.996 297.66H638.196V293.472H630.996V297.66ZM639.66 289.068H638.196V286.74H636.612V292.956H638.196V290.364H639.66V289.068ZM643.239 293.964C642.411 293.964 641.859 293.088 641.859 291.444C641.859 289.812 642.411 288.936 643.239 288.936C644.055 288.936 644.619 289.812 644.619 291.444C644.619 293.088 644.055 293.964 643.239 293.964ZM643.239 287.508C641.559 287.508 640.335 289.02 640.335 291.444C640.335 293.88 641.559 295.404 643.239 295.404C644.907 295.404 646.143 293.88 646.143 291.444C646.143 289.02 644.907 287.508 643.239 287.508ZM650.535 290.904H648.927V286.74H647.343V297.792H648.927V292.212H650.535V290.904ZM654.259 293.796H652.843V289.116H654.259V293.796ZM656.791 290.748H655.723V287.868H651.367V295.032H655.723V292.032H656.791V297.288H658.267V286.908H656.791V290.748ZM659.035 286.728V297.78H660.535V286.728H659.035ZM664.043 291.948H667.631V287.676H662.411V288.936H666.011V290.7H662.423V295.248H663.419C665.423 295.248 667.043 295.176 668.843 294.864L668.675 293.58C667.115 293.844 665.723 293.928 664.043 293.94V291.948ZM669.443 286.728V297.816H671.027V286.728H669.443ZM673.25 287.796V289.056H676.754C676.718 289.584 676.634 290.064 676.526 290.52L672.662 290.748L672.866 292.092L676.07 291.78C675.446 292.992 674.378 294.024 672.566 294.924L673.406 296.148C677.522 294.048 678.326 291.204 678.326 287.796H673.25ZM682.814 290.952H681.266V286.728H679.682V297.768H681.266V292.26H682.814V290.952Z" fill="#3E80D6"/>
<path d="M625.724 308.89C627.334 308.89 628.314 307.93 628.314 306.75C628.314 305.67 627.684 305.13 626.814 304.76L625.804 304.33C625.204 304.09 624.614 303.85 624.614 303.22C624.614 302.63 625.104 302.27 625.854 302.27C626.504 302.27 627.014 302.52 627.474 302.93L628.084 302.19C627.524 301.62 626.714 301.26 625.854 301.26C624.454 301.26 623.434 302.13 623.434 303.29C623.434 304.36 624.224 304.92 624.934 305.22L625.954 305.66C626.634 305.96 627.134 306.17 627.134 306.84C627.134 307.46 626.634 307.88 625.744 307.88C625.034 307.88 624.314 307.54 623.784 307.01L623.104 307.81C623.774 308.49 624.714 308.89 625.724 308.89ZM631.549 308.89C632.909 308.89 634.139 307.84 634.139 306.02C634.139 304.18 632.909 303.12 631.549 303.12C630.189 303.12 628.959 304.18 628.959 306.02C628.959 307.84 630.189 308.89 631.549 308.89ZM631.549 307.95C630.689 307.95 630.149 307.18 630.149 306.02C630.149 304.85 630.689 304.07 631.549 304.07C632.419 304.07 632.959 304.85 632.959 306.02C632.959 307.18 632.419 307.95 631.549 307.95ZM636.842 308.89C637.602 308.89 638.142 308.51 638.642 307.93H638.672L638.762 308.76H639.702V303.26H638.552V307.08C638.092 307.66 637.742 307.9 637.232 307.9C636.582 307.9 636.312 307.53 636.312 306.58V303.26H635.162V306.72C635.162 308.12 635.672 308.89 636.842 308.89ZM643.024 308.89C643.424 308.89 643.794 308.79 644.104 308.69L643.894 307.84C643.734 307.91 643.494 307.97 643.304 307.97C642.734 307.97 642.504 307.63 642.504 306.97V304.18H643.934V303.26H642.504V301.74H641.534L641.404 303.26L640.554 303.32V304.18H641.354V306.96C641.354 308.12 641.784 308.89 643.024 308.89ZM644.879 308.76H646.019V304.86C646.509 304.37 646.859 304.11 647.369 304.11C648.019 304.11 648.299 304.49 648.299 305.44V308.76H649.449V305.3C649.449 303.9 648.929 303.12 647.759 303.12C647.009 303.12 646.459 303.53 645.979 303.99L646.019 302.9V300.79H644.879V308.76ZM654.027 305.75L654.327 304.76C654.567 303.96 654.797 303.15 655.007 302.31H655.047C655.277 303.14 655.497 303.96 655.747 304.76L656.037 305.75H654.027ZM656.937 308.76H658.167L655.727 301.4H654.387L651.947 308.76H653.127L653.757 306.66H656.317L656.937 308.76ZM658.779 308.76H659.919V304.86C660.379 304.36 660.789 304.11 661.159 304.11C661.789 304.11 662.079 304.49 662.079 305.44V308.76H663.229V304.86C663.689 304.36 664.089 304.11 664.469 304.11C665.089 304.11 665.389 304.49 665.389 305.44V308.76H666.539V305.3C666.539 303.9 665.999 303.12 664.849 303.12C664.159 303.12 663.599 303.55 663.059 304.13C662.819 303.5 662.359 303.12 661.539 303.12C660.859 303.12 660.309 303.53 659.839 304.03H659.809L659.719 303.26H658.779V308.76ZM670.233 308.89C670.953 308.89 671.583 308.65 672.093 308.31L671.693 307.58C671.293 307.84 670.873 307.99 670.383 307.99C669.433 307.99 668.773 307.36 668.683 306.31H672.253C672.283 306.18 672.303 305.95 672.303 305.73C672.303 304.17 671.523 303.12 670.063 303.12C668.773 303.12 667.553 304.23 667.553 306.02C667.553 307.83 668.743 308.89 670.233 308.89ZM668.673 305.52C668.783 304.55 669.393 304.02 670.083 304.02C670.883 304.02 671.313 304.57 671.313 305.52H668.673ZM673.338 308.76H674.478V305.33C674.828 304.46 675.368 304.15 675.818 304.15C676.038 304.15 676.178 304.18 676.368 304.24L676.578 303.24C676.408 303.16 676.228 303.12 675.958 303.12C675.368 303.12 674.788 303.54 674.398 304.25H674.368L674.278 303.26H673.338V308.76ZM677.17 308.76H678.31V303.26H677.17V308.76ZM677.74 302.23C678.16 302.23 678.48 301.95 678.48 301.55C678.48 301.14 678.16 300.87 677.74 300.87C677.32 300.87 677.01 301.14 677.01 301.55C677.01 301.95 677.32 302.23 677.74 302.23ZM682.022 308.89C682.652 308.89 683.302 308.66 683.802 308.21L683.332 307.45C683.002 307.73 682.592 307.95 682.132 307.95C681.212 307.95 680.582 307.18 680.582 306.02C680.582 304.85 681.242 304.07 682.162 304.07C682.542 304.07 682.852 304.23 683.152 304.5L683.722 303.75C683.322 303.4 682.812 303.12 682.112 303.12C680.662 303.12 679.392 304.18 679.392 306.02C679.392 307.84 680.532 308.89 682.022 308.89ZM685.881 308.89C686.541 308.89 687.131 308.56 687.631 308.13H687.661L687.761 308.76H688.701V305.45C688.701 303.99 688.071 303.12 686.701 303.12C685.821 303.12 685.051 303.48 684.481 303.84L684.911 304.62C685.381 304.32 685.921 304.06 686.501 304.06C687.311 304.06 687.541 304.62 687.551 305.26C685.261 305.51 684.261 306.12 684.261 307.3C684.261 308.27 684.931 308.89 685.881 308.89ZM686.231 307.98C685.741 307.98 685.371 307.76 685.371 307.22C685.371 306.6 685.921 306.19 687.551 305.99V307.34C687.101 307.75 686.711 307.98 686.231 307.98Z" fill="#5D8FCA"/>
</g>
</g>
<defs>
<clipPath id="clip0_29_12099">
<rect width="768.244" height="393.725" fill="white" transform="translate(-12.2441 9.1377)"/>
</clipPath>
</defs>
</svg>
