<svg width="39" height="39" viewBox="0 0 39 39" fill="none" xmlns="http://www.w3.org/2000/svg">
<g clip-path="url(#clip0)">
<path fill-rule="evenodd" clip-rule="evenodd" d="M19.1 11.6C21.5 11.6 21.8 11.6 22.8 11.7C25.3 11.8 26.4 13 26.5 15.4C26.5 16.3 26.5 16.6 26.5 19.1C26.5 21.6 26.5 21.8 26.5 22.8C26.4 25.2 25.2 26.4 22.8 26.5C21.8 26.6 21.6 26.6 19.1 26.6C16.6 26.6 16.4 26.6 15.4 26.5C12.9 26.4 11.8 25.2 11.7 22.8C11.7 21.8 11.7 21.6 11.7 19.1C11.7 16.6 11.7 16.4 11.7 15.4C11.8 13 12.9 11.8 15.4 11.7C16.4 11.6 16.6 11.6 19.1 11.6ZM19.1 10C16.6 10 16.3 10 15.3 10.1C12 10.2 10.2 12 10 15.3C10 16.3 10 16.6 10 19.1C10 21.6 10 21.9 10.1 22.9C10.2 26.2 12.1 28 15.4 28.2C16.4 28.3 16.7 28.3 19.1 28.3C21.5 28.3 21.9 28.3 22.8 28.2C26.1 28.1 27.9 26.2 28.1 22.9C28.1 21.9 28.2 21.6 28.2 19.1C28.2 16.6 28.2 16.3 28.1 15.4C28 12.1 26.1 10.3 22.8 10.1C21.8 10 21.5 10 19.1 10ZM19.1 14.4C16.5 14.4 14.4 16.5 14.4 19.1C14.4 21.7 16.5 23.8 19.1 23.8C21.7 23.8 23.8 21.7 23.8 19.1C23.7 16.5 21.6 14.4 19.1 14.4ZM19.1 22.1C17.4 22.1 16.1 20.7 16.1 19.1C16.1 17.4 17.5 16.1 19.1 16.1C20.8 16.1 22.1 17.5 22.1 19.1C22.1 20.7 20.7 22.1 19.1 22.1ZM23.9 13.1C23.3 13.1 22.8 13.6 22.8 14.2C22.8 14.8 23.3 15.3 23.9 15.3C24.5 15.3 25 14.8 25 14.2C25 13.6 24.5 13.1 23.9 13.1Z" fill="#FEFDFF"/>
</g>
<defs>
<clipPath id="clip0">
<rect width="18.1" height="18.1" fill="white" transform="translate(10 10)"/>
</clipPath>
</defs>
</svg>
