<svg width="39" height="39" viewBox="0 0 39 39" fill="none" xmlns="http://www.w3.org/2000/svg">
<path d="M23.0002 12.3H16.0002C15.5002 12.3 15.2002 12.7 15.2002 13.1V20.1C15.2002 20.6 15.5002 21 16.0002 21H19.2002C19.2002 21.8 18.8002 22.7 18.3002 23.5C17.7002 24.4 16.5002 25.4 16.5002 25.4C16.4002 25.5 16.3002 25.6 16.3002 25.7C16.3002 25.8 16.4002 25.9 16.4002 26L18.6002 28.5C18.6002 28.5 18.7002 28.6 18.8002 28.6C18.9002 28.6 19.0002 28.6 19.1002 28.6C23.0002 25.6 23.5002 21.8 23.6002 19.8V13.1C23.8002 12.7 23.5002 12.3 23.0002 12.3Z" fill="white"/>
</svg>
