<?xml version="1.0" encoding="utf-8"?>
<!-- Generator: Adobe Illustrator 25.0.1, SVG Export Plug-In . SVG Version: 6.00 Build 0)  -->
<svg version="1.1" id="Layer_1" xmlns="http://www.w3.org/2000/svg" xmlns:xlink="http://www.w3.org/1999/xlink" x="0px" y="0px"
	 viewBox="0 0 20 20" style="enable-background:new 0 0 20 20;" xml:space="preserve">
<style type="text/css">
	.st0{fill:#FFFFFF;}
</style>
<g>
	<g>
		<path class="st0" d="M19,10.7h-2c-0.4,0-0.8-0.3-0.8-0.8s0.3-0.8,0.8-0.8h0.2L10,2.1L2.8,9.2H3c0.4,0,0.8,0.3,0.8,0.8
			S3.4,10.7,3,10.7H1c-0.3,0-0.6-0.2-0.7-0.5C0.2,10,0.3,9.7,0.5,9.5l9-9c0.3-0.3,0.8-0.3,1.1,0l9,9c0.2,0.2,0.3,0.5,0.2,0.8
			C19.6,10.6,19.3,10.7,19,10.7z"/>
	</g>
	<g>
		<path class="st0" d="M15,19.7H5c-1.5,0-2.8-1.2-2.8-2.8v-7c0-0.4,0.3-0.8,0.8-0.8S3.8,9.6,3.8,10v7c0,0.7,0.6,1.2,1.3,1.2h10
			c0.7,0,1.2-0.6,1.2-1.2v-7c0-0.4,0.3-0.8,0.8-0.8s0.8,0.3,0.8,0.8v7C17.8,18.5,16.5,19.7,15,19.7z"/>
	</g>
	<g>
		<path class="st0" d="M12,14.7H8c-0.4,0-0.7-0.3-0.7-0.8v-4c0-0.4,0.3-0.8,0.7-0.8h4c0.4,0,0.8,0.3,0.8,0.8v4
			C12.8,14.4,12.4,14.7,12,14.7z M8.8,13.2h2.5v-2.5H8.8V13.2z"/>
	</g>
</g>
</svg>
