<svg width="30" height="30" viewBox="0 0 30 30" fill="none" xmlns="http://www.w3.org/2000/svg">
<g clip-path="url(#clip0)">
<path d="M13 21C8.6 21 5 17.4 5 13C5 8.6 8.6 5 13 5C17.4 5 21 8.6 21 13C21 17.4 17.4 21 13 21ZM13 7C9.7 7 7 9.7 7 13C7 16.3 9.7 19 13 19C16.3 19 19 16.3 19 13C19 9.7 16.3 7 13 7Z" fill="black"/>
<path d="M24 25C23.7 25 23.5 24.9 23.3 24.7L17.3 18.7C16.9 18.3 16.9 17.7 17.3 17.3C17.7 16.9 18.3 16.9 18.7 17.3L24.7 23.3C25.1 23.7 25.1 24.3 24.7 24.7C24.5 24.9 24.3 25 24 25Z" fill="black"/>
</g>
<defs>
<clipPath id="clip0">
<rect width="20" height="20" fill="white" transform="translate(5 5)"/>
</clipPath>
</defs>
</svg>
