<svg width="30" height="30" viewBox="0 0 30 30" fill="none" xmlns="http://www.w3.org/2000/svg">
<path d="M23.0001 9.9001H7.0001C6.5001 9.9001 6.1001 9.5001 6.1001 9.0001C6.1001 8.5001 6.5001 8.1001 7.0001 8.1001H23.0001C23.5001 8.1001 23.9001 8.5001 23.9001 9.0001C23.9001 9.5001 23.5001 9.9001 23.0001 9.9001Z" fill="black"/>
<path d="M23.0001 15.9001H7.0001C6.5001 15.9001 6.1001 15.5001 6.1001 15.0001C6.1001 14.5001 6.5001 14.1001 7.0001 14.1001H23.0001C23.5001 14.1001 23.9001 14.5001 23.9001 15.0001C23.9001 15.5001 23.5001 15.9001 23.0001 15.9001Z" fill="black"/>
<path d="M19.0001 21.9001H7.0001C6.5001 21.9001 6.1001 21.5001 6.1001 21.0001C6.1001 20.5001 6.5001 20.1001 7.0001 20.1001H19.0001C19.5001 20.1001 19.9001 20.5001 19.9001 21.0001C19.9001 21.5001 19.5001 21.9001 19.0001 21.9001Z" fill="black"/>
</svg>
