<svg xmlns="http://www.w3.org/2000/svg" xmlns:xlink="http://www.w3.org/1999/xlink" viewBox="0 0 188.34 47"><defs><style>.cls-1{fill:#003e88;}.cls-2{fill:url(#linear-gradient);}.cls-3{fill:url(#linear-gradient-2);}</style><linearGradient id="linear-gradient" x1="57.56" y1="0.29" x2="29.58" y2="51.98" gradientUnits="userSpaceOnUse"><stop offset="0" stop-color="#003e88"/><stop offset="1" stop-color="#00b3f0"/></linearGradient><linearGradient id="linear-gradient-2" x1="0" y1="30.84" x2="28.93" y2="30.84" xlink:href="#linear-gradient"/></defs><g id="레이어_2" data-name="레이어 2"><g id="Layer_1" data-name="Layer 1"><path class="cls-1" d="M69.76,37.47V20.19h6.41c2.75,0,5,.79,5,4.48a3.52,3.52,0,0,1-3,3.8v.05c2.56.36,3.23,2,3.23,4.38,0,4.38-3.8,4.57-5.33,4.57Zm3.61-10.22h2.42a1.93,1.93,0,0,0,1.89-2.2,2.07,2.07,0,0,0-2.08-2.2H73.37Zm0,7.56h2a2.15,2.15,0,0,0,2.49-2.44c0-1.53-.57-2.46-2.39-2.46H73.37Z"/><path class="cls-1" d="M85.12,28.83c0-4.57,0-8.92,6-8.92s6,4.35,6,8.92,0,8.92-6,8.92S85.12,33.35,85.12,28.83Zm8.26,0c0-4.43-.27-6.34-2.3-6.34s-2.3,1.91-2.3,6.34.27,6.34,2.3,6.34S93.38,33.26,93.38,28.83Z"/><path class="cls-1" d="M104.89,37.47h-3.62V20.19H108c2.46,0,4,1.58,4,4.53,0,2.2-.86,3.85-3.2,4.23V29a3.06,3.06,0,0,1,3.13,3.39,23.39,23.39,0,0,0,.41,5.08h-3.54a7.93,7.93,0,0,1-.39-3.35c0-2.06.2-3.81-2.58-3.81h-.93Zm0-9.81h1.6c1.44,0,1.84-1.44,1.84-2.54,0-1.65-.69-2.27-1.84-2.27h-1.6Z"/><path class="cls-1" d="M118.43,31.49l-4.52-11.3h4l2.58,7.3,2.75-7.3h3.69L122,31.49v6h-3.61Z"/><path class="cls-1" d="M130,37.47V20.19h9.42v2.66H133.6v4.26H139v2.65H133.6v5.05h6v2.66Z"/><path class="cls-1" d="M143.22,28.83c0-4.57,0-8.92,6-8.92s5.95,4.35,5.95,8.92,0,8.92-5.95,8.92S143.22,33.35,143.22,28.83Zm8.25,0c0-4.43-.26-6.34-2.29-6.34s-2.3,1.91-2.3,6.34.26,6.34,2.3,6.34S151.47,33.26,151.47,28.83Z"/><path class="cls-1" d="M159.47,37.47V20.19h4.88l4.59,12H169v-12h3.37V37.47H167.6l-4.71-12.64h0V37.47Z"/><path class="cls-1" d="M184.73,25.5c0-1.6-.24-3-2.15-3-2.25,0-2.25,3-2.25,6.39,0,5.41.53,6.36,2.59,6.36a5.73,5.73,0,0,0,1.79-.33V31.08h-2V28.42h5.57v8.76a33.14,33.14,0,0,1-4.88.57c-6.08,0-6.77-2.51-6.77-9.06,0-4.36.22-8.78,6.13-8.78,3.54,0,5.74,2,5.52,5.59Z"/><path class="cls-2" d="M21.5,44.93c-.87.64-1.28,1.45-.93,1.79s1.35.12,2.22-.52,1.27-1.45.92-1.8S22.36,44.28,21.5,44.93Zm4.29-.06c-.86.64-1.28,1.45-.92,1.8s1.35.12,2.21-.53,1.28-1.44.92-1.79S26.65,44.23,25.79,44.87Zm4.29,0c-.86.64-1.28,1.45-.92,1.8s1.35.12,2.22-.53,1.27-1.44.91-1.8S30.94,44.17,30.08,44.82Zm4.28.21c-.86.64-1.28,1.45-.92,1.8s1.35.12,2.21-.52,1.28-1.45.92-1.8S35.22,44.39,34.36,45ZM37,37.31c-.66-.49-2.22,0-3.48,1.17s-1.74,2.44-1.07,2.93,2.22,0,3.48-1.17S37.68,37.8,37,37.31Zm-6.19.07c-.72-.44-2.21.19-3.34,1.42s-1.46,2.57-.74,3,2.21-.19,3.34-1.42S31.54,37.82,30.82,37.38ZM42.2,11a16,16,0,0,0,5.5-4.54C50.23,2.68,48.72.6,47,.11S42.3.82,41.51,4.64A12.12,12.12,0,0,0,42.2,11Zm9.94,0a16.66,16.66,0,0,0,5.57-4.61c2.58-3.79,1.1-5.84-.6-6.32s-4.73.78-5.57,4.62A12,12,0,0,0,52.14,11Zm10.37,0a17.6,17.6,0,0,0,5.7-4.64C70.89,2.61,69.46.56,67.78.09S63,.89,62.09,4.73A12,12,0,0,0,62.51,11.06ZM36.59,27.76c-1-.5-2.88.57-4.16,2.38s-1.5,3.67-.49,4.17,2.88-.57,4.16-2.38S37.6,28.26,36.59,27.76Zm6.4,9.4c-.67-.48-2.22.07-3.45,1.22s-1.67,2.48-1,3,2.22-.07,3.44-1.23S43.68,37.64,43,37.16ZM42.3,20.6c2.28-2.66,1.63-4.82.27-5.41s-4,.36-5.19,3.26a9.6,9.6,0,0,0-.28,5.41A14.21,14.21,0,0,0,42.3,20.6Zm8.24,0c2.37-2.64,1.79-4.8.45-5.4s-4.05.32-5.31,3.21a9.55,9.55,0,0,0-.46,5.4A14.8,14.8,0,0,0,50.54,20.6Zm8.68,0c2.43-2.63,1.9-4.79.57-5.4s-4,.31-5.38,3.19a9.61,9.61,0,0,0-.57,5.4A15.07,15.07,0,0,0,59.22,20.56ZM43.38,27c-1-.47-2.86.65-4.09,2.5s-1.41,3.71-.39,4.18,2.87-.65,4.1-2.5S44.41,27.49,43.38,27Zm7.15-.18c-1-.46-2.86.67-4.11,2.52S45,33.09,46,33.55s2.87-.66,4.12-2.51S51.56,27.31,50.53,26.85Z"/><path class="cls-3" d="M1.57,15.53c-1.85,0-2.1,1.31-.57,2.18a30.61,30.61,0,0,1,15.45,26.6c0,.62,0,1.22-.06,1.83A30.79,30.79,0,0,0,28.93,32.38,30.64,30.64,0,0,0,1.57,15.53Z"/></g></g></svg>