<svg width="26" height="26" viewBox="0 0 26 26" fill="none" xmlns="http://www.w3.org/2000/svg">
<path d="M19.9333 18.4253C21.5973 16.3973 22.516 13.8667 22.516 11.2493C22.516 5.044 17.472 0 11.2493 0C5.02667 0 0 5.044 0 11.2493C0 17.4547 5.044 22.4987 11.2493 22.4987C13.8667 22.4987 16.3973 21.58 18.4253 19.916L24.3533 25.844L24.492 26L26 24.492L19.9333 18.4253ZM11.2493 20.384C6.20533 20.384 2.11467 16.2933 2.11467 11.2493C2.11467 6.20533 6.20533 2.11467 11.2493 2.11467C16.2933 2.11467 20.384 6.20533 20.384 11.2493C20.384 16.2933 16.2933 20.384 11.2493 20.384Z" fill="black"/>
</svg>
