<svg width="250" height="60" viewBox="0 0 250 60" fill="none" xmlns="http://www.w3.org/2000/svg">
<path d="M126.931 40.331C126.931 40.9477 126.886 41.6338 126.796 42.3882C126.707 43.1405 126.573 43.9408 126.396 44.7826L128.758 45.0739C128.838 44.7165 128.915 44.3281 128.988 43.9066C129.062 43.4851 129.122 43.0477 129.171 42.5942C129.22 42.1407 129.256 41.6893 129.282 41.2433C129.306 40.7973 129.318 40.3801 129.318 39.9906V37.2921H118.287V39.36H126.932V40.331H126.931Z" fill="white"/>
<path d="M132.764 51.5551C132.155 51.2072 131.419 50.9319 130.559 50.7281C129.699 50.5265 128.733 50.4262 127.663 50.4262C126.59 50.4262 125.62 50.5265 124.753 50.7281C123.884 50.9319 123.144 51.2072 122.537 51.5551C121.928 51.904 121.46 52.3266 121.134 52.8206C120.811 53.3146 120.648 53.8545 120.648 54.4371V55.215C120.648 55.7987 120.811 56.3386 121.134 56.8337C121.46 57.3277 121.927 57.7492 122.537 58.0981C123.144 58.4471 123.884 58.7234 124.753 58.9261C125.62 59.1268 126.59 59.2292 127.663 59.2292C128.733 59.2292 129.699 59.1268 130.559 58.9261C131.42 58.7234 132.155 58.4471 132.764 58.0981C133.37 57.7503 133.842 57.3277 134.174 56.8337C134.508 56.3386 134.674 55.7987 134.674 55.215V54.4371C134.674 53.8545 134.508 53.3146 134.174 52.8206C133.842 52.3266 133.372 51.904 132.764 51.5551ZM132.313 55.0688C132.313 55.3132 132.21 55.5693 132.009 55.836C131.805 56.1049 131.504 56.3471 131.109 56.5659C130.708 56.7846 130.223 56.9639 129.647 57.1015C129.071 57.2392 128.408 57.3075 127.664 57.3075C126.915 57.3075 126.254 57.2392 125.678 57.1015C125.103 56.9639 124.615 56.7846 124.218 56.5659C123.82 56.3471 123.52 56.1049 123.316 55.836C123.115 55.5693 123.013 55.3132 123.013 55.0688V54.5823C123.013 54.34 123.115 54.084 123.316 53.8172C123.519 53.5494 123.82 53.3061 124.218 53.0863C124.615 52.8675 125.103 52.6904 125.678 52.5528C126.254 52.4151 126.915 52.3447 127.664 52.3447C128.408 52.3447 129.071 52.4151 129.647 52.5528C130.223 52.6904 130.708 52.8675 131.109 53.0863C131.504 53.305 131.804 53.5494 132.009 53.8172C132.21 54.084 132.313 54.34 132.313 54.5823V55.0688Z" fill="white"/>
<path d="M134.649 36.2688H132.264V49.8158H134.649V44.2214H137.816V42.1311H134.649V36.2688Z" fill="white"/>
<path d="M131.07 46.8495H123.726L123.717 42.2281H121.331V46.8495H116.778V48.9174H131.07V46.8495Z" fill="white"/>
<path d="M172.899 40.331C172.899 40.9477 172.854 41.6338 172.765 42.3882C172.676 43.1405 172.541 43.9408 172.364 44.7826L174.726 45.0739C174.806 44.7165 174.882 44.3281 174.957 43.9066C175.029 43.4851 175.09 43.0477 175.139 42.5942C175.188 42.1407 175.225 41.6893 175.249 41.2433C175.274 40.7973 175.286 40.3801 175.286 39.9906V37.2921H164.255V39.36H172.9V40.331H172.899Z" fill="white"/>
<path d="M178.731 51.5551C178.122 51.2072 177.387 50.9319 176.527 50.7281C175.666 50.5265 174.701 50.4262 173.63 50.4262C172.557 50.4262 171.588 50.5265 170.72 50.7281C169.851 50.9319 169.111 51.2072 168.504 51.5551C167.896 51.904 167.427 52.3266 167.104 52.8206C166.779 53.3146 166.616 53.8545 166.616 54.4371V55.215C166.616 55.7987 166.779 56.3386 167.104 56.8337C167.427 57.3277 167.895 57.7492 168.504 58.0981C169.111 58.4471 169.851 58.7234 170.72 58.9261C171.588 59.1268 172.557 59.2292 173.63 59.2292C174.701 59.2292 175.666 59.1268 176.527 58.9261C177.388 58.7234 178.122 58.4471 178.731 58.0981C179.339 57.7503 179.809 57.3277 180.142 56.8337C180.475 56.3386 180.641 55.7987 180.641 55.215V54.4371C180.641 53.8545 180.475 53.3146 180.142 52.8206C179.808 52.3266 179.339 51.904 178.731 51.5551ZM178.279 55.0688C178.279 55.3132 178.177 55.5693 177.976 55.836C177.773 56.1049 177.471 56.3471 177.075 56.5659C176.675 56.7846 176.189 56.9639 175.614 57.1015C175.038 57.2392 174.374 57.3075 173.63 57.3075C172.882 57.3075 172.221 57.2392 171.645 57.1015C171.069 56.9639 170.581 56.7846 170.185 56.5659C169.786 56.3471 169.486 56.1049 169.283 55.836C169.081 55.5693 168.98 55.3132 168.98 55.0688V54.5823C168.98 54.34 169.081 54.084 169.283 53.8172C169.485 53.5494 169.786 53.3061 170.185 53.0863C170.581 52.8675 171.069 52.6904 171.645 52.5528C172.221 52.4151 172.882 52.3447 173.63 52.3447C174.374 52.3447 175.038 52.4151 175.614 52.5528C176.189 52.6904 176.675 52.8675 177.075 53.0863C177.471 53.305 177.772 53.5494 177.976 53.8172C178.177 54.084 178.279 54.34 178.279 54.5823V55.0688Z" fill="white"/>
<path d="M180.617 36.2688H178.23V49.8158H180.617V44.2214H183.783V42.1311H180.617V36.2688Z" fill="white"/>
<path d="M177.039 46.8495H169.694L169.684 42.2281H167.299V46.8495H162.746V48.9174H177.039V46.8495Z" fill="white"/>
<path d="M89.9145 36.2688H87.528V52.541H89.9145V45.0259H93.1023V42.9335H89.9145V36.2688Z" fill="white"/>
<path d="M78.6152 52.2487H76.2051V58.4492H90.5224V56.3589H78.6152V52.2487Z" fill="white"/>
<path d="M78.908 50.6428C79.7829 50.6428 80.5468 50.5265 81.1974 50.2907C81.8458 50.057 82.3906 49.7443 82.8286 49.3549C83.2656 48.9654 83.5957 48.5247 83.8136 48.0296C84.0337 47.5356 84.1437 47.0287 84.1437 46.508V45.7792C84.1437 45.2617 84.0337 44.7528 83.8136 44.2587C83.5957 43.7647 83.2656 43.3229 82.8286 42.9335C82.3906 42.544 81.8458 42.2314 81.1974 41.9966C80.5478 41.7629 79.784 41.6445 78.908 41.6445C78.031 41.6445 77.2682 41.7629 76.6187 41.9966C75.9702 42.2314 75.4254 42.5397 74.9874 42.9217C74.5483 43.3016 74.2193 43.7402 74.0003 44.2331C73.7813 44.7293 73.6713 45.2436 73.6713 45.7782V46.507C73.6713 47.0266 73.7813 47.5345 74.0003 48.0285C74.2193 48.5237 74.5483 48.9643 74.9874 49.3538C75.4254 49.7433 75.9702 50.0559 76.6187 50.2896C77.2682 50.5254 78.031 50.6428 78.908 50.6428ZM75.9606 46.3875V45.8998C75.9606 45.6096 76.0226 45.3215 76.1433 45.0377C76.264 44.7517 76.4478 44.502 76.6924 44.2833C76.9349 44.0645 77.2404 43.8895 77.6047 43.7604C77.9701 43.6313 78.4038 43.5662 78.9091 43.5662C79.4122 43.5662 79.846 43.6313 80.2124 43.7604C80.5767 43.8895 80.8812 44.0645 81.1247 44.2833C81.3694 44.502 81.551 44.7517 81.6738 45.0377C81.7945 45.3215 81.8565 45.6085 81.8565 45.8998V46.3875C81.8565 46.6777 81.7945 46.9669 81.6738 47.2507C81.552 47.5356 81.3694 47.7853 81.1247 48.0051C80.8812 48.2227 80.5735 48.3977 80.1996 48.5269C79.8257 48.6581 79.3962 48.7232 78.9102 48.7232C78.423 48.7232 77.9925 48.6581 77.6197 48.5269C77.2447 48.3977 76.936 48.2227 76.6945 48.0051C76.4499 47.7853 76.2672 47.5356 76.1454 47.2507C76.0226 46.9669 75.9606 46.6788 75.9606 46.3875Z" fill="white"/>
<path d="M85.3368 38.7507H80.1001V36.0511H77.7146V38.7507H72.4543V40.793H85.3368V38.7507Z" fill="white"/>
<path d="M111.508 42.5312C111.59 41.6648 111.63 40.8912 111.63 40.2093V37.1704H96.8499V39.2127H109.195V40.1133C109.195 40.8421 109.156 41.6338 109.073 42.4843C108.993 43.3368 108.847 44.216 108.635 45.1241H94.1472V47.1664H103.158V51.0579H96.8018V53.1002H109.464V58.9133H111.876V51.0579H105.594V47.1664H114.748V45.1241H111.145C111.305 44.263 111.428 43.3998 111.508 42.5312Z" fill="white"/>
<path d="M149.259 44.4903C148.821 44.0848 148.298 43.7647 147.688 43.5299C147.08 43.2941 146.4 43.1768 145.655 43.1768C144.908 43.1768 144.231 43.2941 143.622 43.5299C143.013 43.7658 142.488 44.0859 142.051 44.4903C141.612 44.8968 141.275 45.3578 141.041 45.8763C140.805 46.3949 140.688 46.9476 140.688 47.5313V48.6986C140.688 49.2823 140.805 49.8329 141.041 50.3525C141.276 50.8722 141.612 51.3331 142.051 51.7397C142.488 52.1441 143.012 52.4653 143.622 52.7C144.231 52.9348 144.908 53.0521 145.655 53.0521C146.4 53.0521 147.08 52.9348 147.688 52.7C148.296 52.4642 148.821 52.1441 149.259 51.7397C149.696 51.3331 150.033 50.8722 150.267 50.3525C150.505 49.8329 150.622 49.2823 150.622 48.6986V47.5313C150.622 46.9476 150.505 46.396 150.267 45.8763C150.032 45.3588 149.696 44.8968 149.259 44.4903ZM148.455 48.5759C148.455 48.8672 148.394 49.1607 148.272 49.4509C148.151 49.7433 147.972 50.01 147.736 50.2544C147.501 50.4966 147.209 50.6951 146.86 50.8508C146.511 51.0045 146.11 51.0803 145.655 51.0803C145.199 51.0803 144.797 51.0045 144.451 50.8508C144.1 50.6951 143.808 50.4966 143.574 50.2544C143.337 50.01 143.159 49.7433 143.037 49.4509C142.915 49.1607 142.855 48.8672 142.855 48.5759V47.6519C142.855 47.3606 142.915 47.0682 143.037 46.7769C143.159 46.4846 143.337 46.2178 143.574 45.9745C143.809 45.7302 144.1 45.5328 144.451 45.377C144.797 45.2233 145.199 45.1465 145.655 45.1465C146.11 45.1465 146.511 45.2233 146.86 45.377C147.209 45.5328 147.502 45.7302 147.736 45.9745C147.972 46.2178 148.151 46.4846 148.272 46.7769C148.394 47.0682 148.455 47.3606 148.455 47.6519V48.5759Z" fill="white"/>
<path d="M146.75 36.9026H144.389V40.0397H139.884V42.0585H150.986V40.0397H146.75V36.9026Z" fill="white"/>
<path d="M157.195 44.5884H154.785V36.2688H152.424V58.6935H154.785V46.6788H157.195V58.6935H159.557V36.2688H157.195V44.5884Z" fill="white"/>
<path d="M201.249 51.6885H192.02V48.8427H189.634V58.6925H203.636V48.8427H201.249V51.6885V51.6885ZM201.249 56.6513H192.02V53.7084H201.249V56.6513Z" fill="white"/>
<path d="M201.249 41.1355H196.696C196.614 40.6159 196.44 40.1144 196.173 39.6267C195.904 39.1391 195.539 38.708 195.077 38.325C194.614 37.9451 194.059 37.6357 193.409 37.4009C192.759 37.1662 192.012 37.0488 191.169 37.0488C190.243 37.0488 189.432 37.1864 188.734 37.4617C188.036 37.7392 187.456 38.0998 186.993 38.5448C186.529 38.9908 186.179 39.4944 185.946 40.0536C185.71 40.6127 185.593 41.1761 185.593 41.7427V42.6667C185.593 43.2344 185.71 43.7978 185.946 44.3569C186.18 44.916 186.53 45.4197 186.993 45.8657C187.456 46.3117 188.036 46.6724 188.734 46.9477C189.432 47.224 190.243 47.3617 191.169 47.3617C192.012 47.3617 192.763 47.2454 193.42 47.0095C194.078 46.7737 194.639 46.46 195.1 46.0716C195.563 45.6843 195.926 45.2383 196.196 44.7357C196.463 44.2321 196.629 43.721 196.695 43.2024H201.248V47.7501H203.635V36.2688H201.248V41.1355H201.249ZM194.432 42.544C194.432 42.8855 194.358 43.2194 194.211 43.5428C194.067 43.8671 193.855 44.1574 193.579 44.4167C193.303 44.677 192.963 44.8872 192.557 45.0494C192.15 45.2116 191.687 45.2938 191.169 45.2938C190.65 45.2938 190.185 45.2116 189.779 45.0494C189.373 44.8883 189.033 44.677 188.757 44.4167C188.48 44.1574 188.272 43.8661 188.124 43.5428C187.978 43.2194 187.904 42.8865 187.904 42.544V41.8643C187.904 41.5229 187.978 41.191 188.124 40.8656C188.272 40.5412 188.48 40.2531 188.757 40.0023C189.033 39.7505 189.373 39.5435 189.779 39.3813C190.185 39.2213 190.649 39.137 191.169 39.137C191.686 39.137 192.15 39.2202 192.557 39.3813C192.963 39.5435 193.303 39.7505 193.579 40.0023C193.855 40.252 194.067 40.5412 194.211 40.8656C194.358 41.191 194.432 41.5218 194.432 41.8643V42.544Z" fill="white"/>
<path d="M221.583 51.3236C220.95 50.9672 220.206 50.6951 219.355 50.5084C218.502 50.3227 217.583 50.2288 216.591 50.2288C215.601 50.2288 214.68 50.3227 213.826 50.5084C212.975 50.6951 212.233 50.9672 211.599 51.3236C210.966 51.681 210.47 52.1089 210.114 52.6136C209.756 53.1151 209.579 53.6913 209.579 54.3401V55.214C209.579 55.8627 209.756 56.4421 210.114 56.9543C210.47 57.4643 210.966 57.8943 211.599 58.2422C212.233 58.5922 212.975 58.8589 213.826 59.0446C214.68 59.2313 215.601 59.3252 216.591 59.3252C217.583 59.3252 218.502 59.2313 219.355 59.0446C220.206 58.8589 220.95 58.5922 221.583 58.2422C222.217 57.8943 222.711 57.4643 223.068 56.9543C223.426 56.4432 223.604 55.8638 223.604 55.214V54.3401C223.604 53.6913 223.426 53.1151 223.068 52.6136C222.711 52.11 222.217 51.681 221.583 51.3236ZM221.217 55.0688C221.217 55.3943 221.097 55.6931 220.853 55.9694C220.609 56.2447 220.28 56.4837 219.867 56.6886C219.452 56.8892 218.965 57.0514 218.404 57.1741C217.844 57.2936 217.241 57.3555 216.591 57.3555C215.943 57.3555 215.337 57.2936 214.778 57.1741C214.219 57.0514 213.731 56.8892 213.317 56.6886C212.902 56.4848 212.574 56.2447 212.331 55.9694C212.086 55.6931 211.965 55.3943 211.965 55.0688V54.4852C211.965 54.1779 212.086 53.8834 212.331 53.5985C212.574 53.3136 212.902 53.0714 213.317 52.8676C213.731 52.6659 214.219 52.5026 214.778 52.3821C215.337 52.2604 215.943 52.1985 216.591 52.1985C217.241 52.1985 217.844 52.2604 218.404 52.3821C218.965 52.5026 219.452 52.6659 219.867 52.8676C220.28 53.0703 220.609 53.3136 220.853 53.5985C221.097 53.8834 221.217 54.1779 221.217 54.4852V55.0688Z" fill="white"/>
<path d="M221.388 40.0397C221.388 40.7034 221.347 41.4546 221.266 42.289C221.185 43.1245 221.038 44.0027 220.828 44.9278L223.214 45.1956C223.312 44.7571 223.4 44.2918 223.483 43.7957C223.563 43.3016 223.628 42.8204 223.677 42.3498C223.725 41.8814 223.761 41.4375 223.787 41.0246C223.811 40.6116 223.824 40.2745 223.824 40.0162V37.1694H208.994V39.2138H221.389V40.0397H221.388Z" fill="white"/>
<path d="M216.568 42.1791H214.132V46.5806H206.292V48.625H226.892V46.5806H216.568V42.1791Z" fill="white"/>
<path d="M246.226 42.1065V36.2688H243.841V52.2721H246.226V44.199H249.416V42.1065H246.226Z" fill="white"/>
<path d="M234.928 51.0088H232.518V58.4503H246.835V56.3589H234.928V51.0088Z" fill="white"/>
<path d="M242.039 46.5582H231.903L231.909 39.7975H239.945V37.7296H229.547V48.625H242.039V46.5582Z" fill="white"/>
<path d="M29.9836 44.565L20.2525 59.3263L10.5193 44.565L20.2525 29.8111L29.9836 44.565Z" fill="#0082CB"/>
<path d="M29.9836 44.565L39.7168 59.3263L49.4499 44.565L39.7168 29.8111L29.9836 44.565Z" fill="#0082CB"/>
<path d="M20.2515 29.8058L29.9836 44.565L39.7178 29.8058L29.9836 15.0509L20.2515 29.8058Z" fill="#0082CB"/>
<path d="M10.5184 44.565L0.78418 59.321H20.2495L10.5184 44.565Z" fill="#0082CB"/>
<path d="M49.4499 44.565L39.7178 59.321H59.182L49.4499 44.565Z" fill="#0082CB"/>
<path d="M29.9838 44.5652L20.2528 59.3265L10.5196 44.5652L20.2528 29.8113L29.9838 44.5652Z" fill="#00A0D9"/>
<path d="M29.9836 44.5652L39.7168 59.3265L49.4499 44.5652L39.7168 29.8113L29.9836 44.5652Z" fill="#00A0D9"/>
<path d="M20.2516 29.8058L29.9837 44.5649L39.7179 29.8058L29.9837 15.0508L20.2516 29.8058Z" fill="#65B9E3"/>
<path d="M10.5184 44.5648L0.784119 59.3208H20.2494L10.5184 44.5648Z" fill="#0082CB"/>
<path d="M49.4502 44.5648L39.7181 59.3208H59.1823L49.4502 44.5648Z" fill="#0082CB"/>
<path d="M59.1823 15.0487L49.4502 0.293823L39.7181 15.0487H59.1823Z" fill="#65B9E3"/>
<path d="M39.7181 15.0541L49.4513 29.809L59.1823 15.0541H39.7181Z" fill="#00A0D9"/>
</svg>
