<svg width="8" height="15" viewBox="0 0 8 15" fill="none" xmlns="http://www.w3.org/2000/svg">
<path d="M6.1761 15C6.02281 15 5.68431 15 5.50547 14.7156L0.811131 9.73815C0.274635 9.17607 0 8.42438 0 7.51016C0 6.77878 0.261861 6.04063 0.77281 5.31603L5.53102 0.264108C5.69708 0.0948081 5.91423 0 6.14416 0C6.37409 0 6.59124 0.0948081 6.75091 0.264108C7.08303 0.616253 7.08303 1.19865 6.75091 1.55079L2.02464 6.56208C1.52646 7.09029 1.52646 7.79458 2.02464 8.3228L6.75091 13.3341C7.05109 13.6524 7.08303 14.1535 6.84033 14.5056C6.80201 14.7223 6.65511 15 6.1761 15Z" fill="#888888"/>
</svg>
