<svg width="262" height="125" viewBox="0 0 262 125" fill="none" xmlns="http://www.w3.org/2000/svg">
<path d="M239.632 23.4071L238.77 30.4988L242.114 30.9053L242.976 23.8136L239.632 23.4071Z" fill="#F2C800"/>
<path d="M242.223 2.12353L241.361 9.21521L244.705 9.62168L245.567 2.53L242.223 2.12353Z" fill="#F2C800"/>
<path d="M234.902 17.7814L228.355 20.5698L229.676 23.6692L236.222 20.8808L234.902 17.7814Z" fill="#F2C800"/>
<path d="M254.652 9.36994L248.105 12.1583L249.425 15.2577L255.972 12.4693L254.652 9.36994Z" fill="#F2C800"/>
<path d="M231.758 6.5855L229.734 9.27844L235.422 13.5539L237.446 10.861L231.758 6.5855Z" fill="#F2C800"/>
<path d="M248.911 19.483L246.887 22.1759L252.575 26.4514L254.599 23.7584L248.911 19.483Z" fill="#F2C800"/>
<path d="M215.915 41.6166H214.556V45.0344H215.915V41.6166Z" fill="#F2C800"/>
<path d="M215.915 31.363H214.556V34.7809H215.915V31.363Z" fill="#F2C800"/>
<path d="M211.919 39.3308L208.971 41.0327L209.651 42.2094L212.599 40.5075L211.919 39.3308Z" fill="#F2C800"/>
<path d="M220.816 34.1985L217.869 35.9004L218.548 37.0771L221.496 35.3752L220.816 34.1985Z" fill="#F2C800"/>
<path d="M209.655 34.1948L208.975 35.3713L211.923 37.0738L212.602 35.8972L209.655 34.1948Z" fill="#F2C800"/>
<path d="M218.544 39.3268L217.865 40.5037L220.813 42.2051L221.492 41.0283L218.544 39.3268Z" fill="#F2C800"/>
<path d="M19.3348 97.3783L20.0798 103.552L17.1891 103.906L16.444 97.7322L19.3348 97.3783Z" fill="#C4D3E7"/>
<path d="M17.0957 78.8488L17.8408 85.0228L14.9501 85.3767L14.205 79.2026L17.0957 78.8488Z" fill="#C4D3E7"/>
<path d="M23.4234 92.4806L29.0825 94.9082L27.9414 97.6066L22.2823 95.179L23.4234 92.4806Z" fill="#C4D3E7"/>
<path d="M6.35191 85.1576L12.011 87.5852L10.8699 90.2836L5.21081 87.856L6.35191 85.1576Z" fill="#C4D3E7"/>
<path d="M26.1414 82.7334L27.8911 85.0779L22.9742 88.8002L21.2245 86.4557L26.1414 82.7334Z" fill="#C4D3E7"/>
<path d="M11.3141 93.9619L13.0637 96.3064L8.1468 100.029L6.39713 97.6842L11.3141 93.9619Z" fill="#C4D3E7"/>
<path d="M39.8362 113.232H41.0107V116.207H39.8362V113.232Z" fill="#C4D3E7"/>
<path d="M39.8362 104.305H41.0107V107.28H39.8362V104.305Z" fill="#C4D3E7"/>
<path d="M43.29 111.242L45.8381 112.723L45.2509 113.748L42.7028 112.266L43.29 111.242Z" fill="#C4D3E7"/>
<path d="M35.5991 106.773L38.1472 108.255L37.56 109.279L35.0119 107.798L35.5991 106.773Z" fill="#C4D3E7"/>
<path d="M45.2475 106.77L45.835 107.795L43.2871 109.277L42.6997 108.252L45.2475 106.77Z" fill="#C4D3E7"/>
<path d="M37.5638 111.238L38.1509 112.263L35.6025 113.744L35.0154 112.719L37.5638 111.238Z" fill="#C4D3E7"/>
<path d="M172.39 30C163.771 30 156.781 36.9807 156.781 45.588C156.781 63.3605 142.297 77.8238 124.5 77.8238C106.703 77.8238 92.2194 63.3605 92.2194 45.588C92.2194 36.9807 85.229 30 76.6097 30C67.9904 30 61 36.9807 61 45.588C61 80.5566 89.4829 109 124.5 109C159.517 109 188 80.5566 188 45.588C188 36.9807 181.01 30 172.39 30Z" fill="#EBF1F9"/>
</svg>
