<svg width="16" height="14" viewBox="0 0 16 14" fill="none" xmlns="http://www.w3.org/2000/svg">
<path d="M15.6215 2.24219C15.0489 2.49546 14.4417 2.66179 13.82 2.73569C14.4753 2.34376 14.9658 1.72695 15.2 1.00019C14.585 1.36619 13.9107 1.62269 13.208 1.76144C12.7359 1.25637 12.1102 0.921411 11.4282 0.808628C10.7461 0.695844 10.0459 0.811557 9.43643 1.13778C8.82692 1.464 8.34227 1.98245 8.05781 2.61253C7.77336 3.24262 7.70504 3.94902 7.86348 4.62194C6.61631 4.55943 5.39623 4.23533 4.28244 3.67069C3.16866 3.10604 2.18607 2.31347 1.39848 1.34444C1.1197 1.82328 0.973195 2.36761 0.973978 2.92169C0.973978 4.00919 1.52748 4.96994 2.36898 5.53244C1.87099 5.51676 1.38395 5.38227 0.948479 5.14019V5.17919C0.948629 5.90346 1.19926 6.6054 1.65786 7.16598C2.11647 7.72657 2.75484 8.1113 3.46473 8.25494C3.00244 8.38022 2.51771 8.39868 2.04723 8.30894C2.24738 8.93236 2.63748 9.47759 3.16292 9.86827C3.68836 10.259 4.32282 10.4755 4.97748 10.4877C4.32684 10.9987 3.58186 11.3764 2.78514 11.5993C1.98842 11.8222 1.15557 11.8859 0.334229 11.7867C1.768 12.7088 3.43705 13.1983 5.14173 13.1967C10.9115 13.1967 14.0667 8.41694 14.0667 4.27169C14.0667 4.13669 14.063 4.00019 14.057 3.86669C14.6711 3.42281 15.2012 2.87295 15.6222 2.24294L15.6215 2.24219Z" fill="white"/>
</svg>
