<svg width="262" height="125" viewBox="0 0 262 125" fill="none" xmlns="http://www.w3.org/2000/svg">
<path d="M239.632 23.4071L238.77 30.4988L242.114 30.9053L242.976 23.8136L239.632 23.4071Z" fill="#F2C800"/>
<path d="M242.223 2.12365L241.361 9.21533L244.705 9.6218L245.567 2.53012L242.223 2.12365Z" fill="#F2C800"/>
<path d="M234.902 17.7814L228.355 20.5698L229.675 23.6692L236.222 20.8808L234.902 17.7814Z" fill="#F2C800"/>
<path d="M254.652 9.37006L248.105 12.1584L249.425 15.2579L255.972 12.4695L254.652 9.37006Z" fill="#F2C800"/>
<path d="M231.758 6.58562L229.734 9.27856L235.422 13.554L237.446 10.8611L231.758 6.58562Z" fill="#F2C800"/>
<path d="M248.911 19.4828L246.887 22.1758L252.575 26.4513L254.599 23.7583L248.911 19.4828Z" fill="#F2C800"/>
<path d="M215.915 41.6167H214.556V45.0346H215.915V41.6167Z" fill="#F2C800"/>
<path d="M215.915 31.363H214.556V34.7809H215.915V31.363Z" fill="#F2C800"/>
<path d="M211.919 39.3308L208.971 41.0327L209.651 42.2094L212.598 40.5075L211.919 39.3308Z" fill="#F2C800"/>
<path d="M220.816 34.1985L217.869 35.9004L218.548 37.0771L221.496 35.3752L220.816 34.1985Z" fill="#F2C800"/>
<path d="M209.655 34.1948L208.975 35.3713L211.923 37.0738L212.602 35.8972L209.655 34.1948Z" fill="#F2C800"/>
<path d="M218.544 39.3268L217.864 40.5037L220.812 42.2051L221.492 41.0283L218.544 39.3268Z" fill="#F2C800"/>
<path d="M19.3348 97.3784L20.0799 103.552L17.1891 103.906L16.444 97.7323L19.3348 97.3784Z" fill="#C4D3E7"/>
<path d="M17.0957 78.8489L17.8408 85.0229L14.95 85.3768L14.2049 79.2028L17.0957 78.8489Z" fill="#C4D3E7"/>
<path d="M23.4234 92.4809L29.0825 94.9084L27.9414 97.6068L22.2823 95.1792L23.4234 92.4809Z" fill="#C4D3E7"/>
<path d="M6.35181 85.1576L12.0109 87.5852L10.8698 90.2836L5.21071 87.856L6.35181 85.1576Z" fill="#C4D3E7"/>
<path d="M26.1413 82.7334L27.891 85.0779L22.9741 88.8002L21.2244 86.4557L26.1413 82.7334Z" fill="#C4D3E7"/>
<path d="M11.3141 93.9621L13.0637 96.3066L8.14683 100.029L6.39716 97.6844L11.3141 93.9621Z" fill="#C4D3E7"/>
<path d="M39.8362 113.232H41.0107V116.207H39.8362V113.232Z" fill="#C4D3E7"/>
<path d="M39.8362 104.305H41.0107V107.281H39.8362V104.305Z" fill="#C4D3E7"/>
<path d="M43.29 111.242L45.8382 112.723L45.2509 113.748L42.7028 112.266L43.29 111.242Z" fill="#C4D3E7"/>
<path d="M35.5992 106.773L38.1473 108.255L37.5601 109.28L35.012 107.798L35.5992 106.773Z" fill="#C4D3E7"/>
<path d="M45.2476 106.77L45.835 107.795L43.2871 109.277L42.6997 108.252L45.2476 106.77Z" fill="#C4D3E7"/>
<path d="M37.5639 111.238L38.1509 112.263L35.6026 113.744L35.0155 112.719L37.5639 111.238Z" fill="#C4D3E7"/>
</svg>
