<svg width="67" height="78" viewBox="0 0 67 78" fill="none" xmlns="http://www.w3.org/2000/svg">
<g opacity="0.8">
<path d="M10.8118 2.39087V9.80811" stroke="white" stroke-width="1.63196" stroke-miterlimit="10"/>
<path d="M14.5163 6.10352H7.10718" stroke="white" stroke-width="1.63196" stroke-miterlimit="10"/>
<path d="M51.8024 49.3005L50.158 52.5745L58.3975 56.7131L60.042 53.4392L51.8024 49.3005Z" fill="white"/>
<path d="M27.0922 36.8906L25.4478 40.1646L33.6873 44.3032L35.3318 41.0293L27.0922 36.8906Z" fill="white"/>
<path d="M45.113 55.9382L41.4554 56.1516L41.9898 65.3076L45.6473 65.0942L45.113 55.9382Z" fill="white"/>
<path d="M43.5051 28.2947L39.8475 28.5082L40.3824 37.6723L44.0399 37.4589L43.5051 28.2947Z" fill="white"/>
<path d="M33.9934 50.3651L26.3303 55.4045L28.3434 58.4657L36.0065 53.4262L33.9934 50.3651Z" fill="white"/>
<path d="M57.1303 35.1583L49.4681 40.1991L51.4818 43.2599L59.1439 38.2191L57.1303 35.1583Z" fill="white"/>
</g>
</svg>
