<svg width="68" height="64" viewBox="0 0 68 64" fill="none" xmlns="http://www.w3.org/2000/svg">
<g opacity="0.5">
<path d="M42.2204 27.1712L41.2269 35.4033L45.0813 35.8752L46.0747 27.6431L42.2204 27.1712Z" fill="white"/>
<path d="M45.2057 2.46504L44.2123 10.6971L48.0666 11.169L49.0601 2.93688L45.2057 2.46504Z" fill="white"/>
<path d="M36.7687 20.6409L29.2233 23.8777L30.7447 27.4755L38.2902 24.2387L36.7687 20.6409Z" fill="white"/>
<path d="M59.531 10.8769L51.9856 14.1136L53.5071 17.7115L61.0525 14.4747L59.531 10.8769Z" fill="white"/>
<path d="M33.145 7.64464L30.8121 10.7706L37.368 15.7337L39.7009 12.6077L33.145 7.64464Z" fill="white"/>
<path d="M52.9146 22.6161L50.5817 25.7421L57.1376 30.7051L59.4704 27.5791L52.9146 22.6161Z" fill="white"/>
<path d="M14.8851 48.309H13.3191V52.2764H14.8851V48.309Z" fill="white"/>
<path d="M14.8851 36.4065H13.3191V40.374H14.8851V36.4065Z" fill="white"/>
<path d="M10.2797 45.6555L6.8822 47.6311L7.6652 48.997L11.0627 47.0214L10.2797 45.6555Z" fill="white"/>
<path d="M20.5342 39.6979L17.1367 41.6735L17.9197 43.0394L21.3172 41.0638L20.5342 39.6979Z" fill="white"/>
<path d="M7.66983 39.6935L6.8866 41.0593L10.2837 43.0355L11.067 41.6697L7.66983 39.6935Z" fill="white"/>
<path d="M17.9146 45.6509L17.1318 47.017L20.5297 48.992L21.3124 47.6259L17.9146 45.6509Z" fill="white"/>
</g>
</svg>
