<svg width="82" height="49" viewBox="0 0 82 49" fill="none" xmlns="http://www.w3.org/2000/svg">
<path d="M2.7 25.52C2.7 25.36 2.7 25.08 2.7 24.68C2.74 24.24 2.76 23.94 2.76 23.78C2.76 23.74 2.76 23.62 2.76 23.42C2.8 23.22 2.82 23 2.82 22.76C2.86 22.52 2.88 22.3 2.88 22.1C2.92 21.9 2.94 21.76 2.94 21.68C2.94 21.56 2.98 21.32 3.06 20.96C3.14 20.6 3.18 20.36 3.18 20.24C3.18 20.12 3.24 19.84 3.36 19.4C3.52 18.96 3.6 18.68 3.6 18.56C3.6 18.44 3.66 18.22 3.78 17.9C3.9 17.58 3.96 17.38 3.96 17.3L3.6 17.36C3.4 17.44 3.2 17.54 3 17.66C2.84 17.78 2.6 18.08 2.28 18.56C2.08 18.68 1.9 18.78 1.74 18.86C1.62 18.9 1.46 18.88 1.26 18.8L0.72 18.5L0.66 17.6C0.66 17.48 0.68 17.28 0.72 17C0.8 16.72 0.84 16.52 0.84 16.4C0.84 16.28 0.88 16.14 0.96 15.98L1.08 15.74L2.28 14.54C2.36 14.54 2.54 14.46 2.82 14.3C3.1 14.1 3.32 14 3.48 14C3.6 14 3.88 13.96 4.32 13.88C4.76 13.8 5.02 13.76 5.1 13.76L6.36 13.94C6.56 13.94 6.92 14.04 7.44 14.24C8 14.4 8.34 14.54 8.46 14.66L9.66 15.74C9.78 15.82 9.92 15.96 10.08 16.16C10.28 16.36 10.38 16.52 10.38 16.64C10.38 16.76 10.46 16.92 10.62 17.12C10.78 17.32 10.86 17.48 10.86 17.6V17.84C10.86 17.88 10.88 18 10.92 18.2C10.96 18.36 11 18.54 11.04 18.74C11.12 18.94 11.18 19.14 11.22 19.34C11.3 19.54 11.34 19.66 11.34 19.7C11.34 19.98 11.36 20.22 11.4 20.42C11.44 20.58 11.48 20.76 11.52 20.96V24.08C11.52 24.16 11.5 24.32 11.46 24.56C11.46 24.8 11.44 25.1 11.4 25.46C11.4 25.78 11.38 26.1 11.34 26.42C11.34 26.74 11.34 26.98 11.34 27.14C11.34 27.38 11.3 27.78 11.22 28.34C11.14 28.86 11.1 29.16 11.1 29.24L10.86 30.08L10.68 30.26L10.38 31.04L9.24 32.9C9.08 33.02 8.82 33.18 8.46 33.38C8.14 33.58 7.9 33.68 7.74 33.68C7.42 33.76 7.12 33.8 6.84 33.8C6.6 33.8 6.26 33.76 5.82 33.68C5.7 33.6 5.54 33.52 5.34 33.44C5.14 33.32 5 33.22 4.92 33.14C4.76 33.14 4.58 33.02 4.38 32.78C4.18 32.5 4.04 32.3 3.96 32.18L3.72 31.7C3.6 31.38 3.46 31 3.3 30.56C3.14 30.08 3 29.58 2.88 29.06V28.88C2.88 28.8 2.86 28.64 2.82 28.4C2.82 28.12 2.8 27.84 2.76 27.56C2.76 27.24 2.74 26.96 2.7 26.72C2.7 26.44 2.7 26.28 2.7 26.24V25.52ZM21.24 12.02C21.24 11.98 21.24 11.8 21.24 11.48C21.28 11.12 21.3 10.76 21.3 10.4C21.34 10 21.36 9.64 21.36 9.32C21.4 9 21.42 8.8 21.42 8.72V8.42C21.5 8.26 21.54 8.06 21.54 7.82V7.34L21.78 7.1C21.98 6.9 22.08 6.8 22.08 6.8H22.98L23.46 7.1C23.42 7.1 23.5 7.2 23.7 7.4C23.74 7.52 23.8 7.62 23.88 7.7L24.24 8.72C24.24 8.8 24.26 9.02 24.3 9.38C24.34 9.74 24.38 10.18 24.42 10.7C24.5 11.22 24.56 11.78 24.6 12.38C24.64 12.94 24.68 13.48 24.72 14C24.72 14.12 24.72 14.46 24.72 15.02C24.76 15.58 24.8 16.18 24.84 16.82C24.88 17.42 24.9 17.98 24.9 18.5C24.94 19.02 24.96 19.34 24.96 19.46V22.46C24.96 22.58 24.98 22.9 25.02 23.42C25.06 23.9 25.08 24.2 25.08 24.32V29.96C25.08 30.28 25.06 30.64 25.02 31.04C25.02 31.44 25 31.96 24.96 32.6C24.96 33.24 24.94 34.04 24.9 35C24.9 35.92 24.9 37.06 24.9 38.42C24.9 38.5 24.88 38.68 24.84 38.96C24.8 39.2 24.74 39.48 24.66 39.8C24.62 40.08 24.56 40.36 24.48 40.64C24.4 40.88 24.34 41.02 24.3 41.06C24.3 41.14 24.28 41.22 24.24 41.3C24.2 41.34 24.16 41.4 24.12 41.48L24 41.72H23.16C23.08 41.64 23.02 41.56 22.98 41.48C22.82 41.32 22.78 41.2 22.86 41.12C22.7 40.96 22.6 40.78 22.56 40.58C22.52 40.46 22.48 40.32 22.44 40.16C22.44 40.08 22.42 39.94 22.38 39.74C22.34 39.54 22.28 39.32 22.2 39.08C22.16 38.84 22.12 38.62 22.08 38.42C22.08 38.18 22.08 38 22.08 37.88V36.98C22.08 36.86 22.06 36.5 22.02 35.9C22.02 35.3 22.02 34.88 22.02 34.64C22.02 34.52 21.98 34.26 21.9 33.86C21.86 33.42 21.84 33.16 21.84 33.08V31.04C21.84 30.76 21.8 30.26 21.72 29.54C21.68 28.78 21.66 28.26 21.66 27.98C21.66 27.9 21.64 27.7 21.6 27.38C21.56 27.02 21.54 26.8 21.54 26.72C21.62 24.96 21.62 23.5 21.54 22.34C21.46 21.14 21.42 20.44 21.42 20.24L21.48 17.96C21.48 17.88 21.46 17.66 21.42 17.3C21.42 16.9 21.42 16.64 21.42 16.52L21.24 12.02ZM6.66 27.32C6.66 27.4 6.66 27.54 6.66 27.74C6.7 27.9 6.74 28.08 6.78 28.28C6.82 28.48 6.84 28.68 6.84 28.88C6.88 29.04 6.9 29.14 6.9 29.18L7.08 29.72H7.32C7.44 29.64 7.58 29.4 7.74 29C7.94 28.56 8.04 28.28 8.04 28.16C8.04 28 8.06 27.76 8.1 27.44C8.18 27.12 8.22 26.92 8.22 26.84L8.28 25.94C8.44 25.1 8.52 24.16 8.52 23.12C8.56 22.04 8.5 20.9 8.34 19.7C8.34 19.58 8.32 19.36 8.28 19.04C8.24 18.72 8.2 18.52 8.16 18.44L7.98 17.84L7.14 17.18L7.02 17.78C7.02 17.86 7 18.06 6.96 18.38C6.96 18.7 6.96 18.92 6.96 19.04C6.96 19.16 6.94 19.54 6.9 20.18C6.86 20.78 6.82 21.48 6.78 22.28C6.78 23.04 6.76 23.78 6.72 24.5C6.68 25.18 6.66 25.64 6.66 25.88V27.32ZM44.4525 39.62C44.4525 39.34 44.4325 38.86 44.3925 38.18C44.3925 37.5 44.3725 36.74 44.3325 35.9C44.2925 35.02 44.2525 34.14 44.2125 33.26C44.1725 32.38 44.1525 31.62 44.1525 30.98C43.9525 31.02 43.6725 31.1 43.3125 31.22C42.9925 31.3 42.6525 31.4 42.2925 31.52C41.9325 31.64 41.5925 31.78 41.2725 31.94C40.9525 32.06 40.7125 32.18 40.5525 32.3L39.8925 32.48L39.5925 32.72C39.4725 32.72 39.2125 32.78 38.8125 32.9C38.4125 33.02 37.9925 33.16 37.5525 33.32C37.1125 33.48 36.6925 33.62 36.2925 33.74C35.9325 33.86 35.7125 33.92 35.6325 33.92C35.5125 33.92 35.3525 33.94 35.1525 33.98C34.9525 34.02 34.7525 34.08 34.5525 34.16C34.3125 34.24 34.0725 34.32 33.8325 34.4H33.2325C33.1125 34.44 32.9525 34.46 32.7525 34.46C32.6725 34.46 32.5925 34.48 32.5125 34.52C32.3925 34.48 32.2725 34.42 32.1525 34.34C31.9525 34.22 31.8525 34.06 31.8525 33.86L31.4925 33.14L31.7325 32.48C32.0525 32 32.4725 31.66 32.9925 31.46C33.5525 31.26 34.0925 31.08 34.6125 30.92C34.6925 30.84 34.8125 30.76 34.9725 30.68C35.0925 30.6 35.2125 30.54 35.3325 30.5C35.4525 30.42 35.5725 30.38 35.6925 30.38C35.8525 30.26 36.1525 30.12 36.5925 29.96C37.0325 29.76 37.4925 29.58 37.9725 29.42C38.4525 29.22 38.8925 29.06 39.2925 28.94C39.6925 28.82 39.9325 28.76 40.0125 28.76C40.0925 28.76 40.2325 28.72 40.4325 28.64C40.6725 28.56 40.9125 28.46 41.1525 28.34C41.3925 28.22 41.6125 28.12 41.8125 28.04C42.0525 27.96 42.2325 27.92 42.3525 27.92C42.5925 27.92 42.8725 27.86 43.1925 27.74C43.3525 27.66 43.5325 27.58 43.7325 27.5C43.9725 27.42 44.4125 27.3 45.0525 27.14C45.6925 26.94 46.3525 26.74 47.0325 26.54C47.7525 26.34 48.4125 26.16 49.0125 26C49.6525 25.8 50.0925 25.64 50.3325 25.52C51.2125 25.32 52.0725 25.12 52.9125 24.92C53.7525 24.72 54.5925 24.58 55.4325 24.5H56.0925L56.4525 24.44L57.4725 24.68L57.8925 25.04V25.4L57.9525 25.76L57.2925 26.42L56.6325 26.9C56.5525 26.9 56.3525 26.96 56.0325 27.08C55.7525 27.2 55.4325 27.34 55.0725 27.5C54.7525 27.62 54.4125 27.74 54.0525 27.86C53.7325 27.94 53.4925 27.98 53.3325 27.98L51.5925 28.52C51.5125 28.52 51.3525 28.56 51.1125 28.64C50.8725 28.72 50.5925 28.82 50.2725 28.94C49.9925 29.02 49.7125 29.1 49.4325 29.18C49.1525 29.26 48.9725 29.3 48.8925 29.3L47.8725 29.84V40.58C47.8725 40.66 47.8925 40.96 47.9325 41.48C47.9725 42 48.0125 42.56 48.0525 43.16C48.0925 43.76 48.1325 44.32 48.1725 44.84C48.2125 45.32 48.2325 45.6 48.2325 45.68V46.4C48.2325 46.48 48.2125 46.62 48.1725 46.82C48.1325 46.98 48.0925 47.16 48.0525 47.36C47.9725 47.56 47.9125 47.8 47.8725 48.08L47.5725 48.38H46.9125C46.7925 48.3 46.6525 48.18 46.4925 48.02C46.3725 47.94 46.2525 47.82 46.1325 47.66C46.0125 47.54 45.9125 47.44 45.8325 47.36L45.5325 46.76V46.4L45.1725 45.02C45.1725 44.82 45.1125 44.48 44.9925 44C44.8725 43.52 44.8125 43.18 44.8125 42.98V42.68C44.8125 42.6 44.7925 42.42 44.7525 42.14C44.7125 41.82 44.6725 41.5 44.6325 41.18C44.5925 40.82 44.5525 40.5 44.5125 40.22C44.4725 39.9 44.4525 39.7 44.4525 39.62ZM33.6525 26.24C33.6925 26.16 33.7325 26.06 33.7725 25.94C33.8525 25.7 33.8925 25.52 33.8925 25.4L35.8725 20.6L36.1725 20.06C36.2125 19.86 36.2925 19.6 36.4125 19.28C36.5725 18.92 36.7325 18.56 36.8925 18.2C37.0525 17.84 37.1725 17.52 37.2525 17.24C37.3725 16.96 37.4325 16.78 37.4325 16.7C37.6325 16.18 37.8525 15.6 38.0925 14.96C38.3725 14.28 38.6325 13.66 38.8725 13.1C39.1125 12.54 39.3125 12.06 39.4725 11.66C39.6325 11.26 39.7125 11.02 39.7125 10.94L39.8925 10.34C39.8125 10.42 39.6725 10.52 39.4725 10.64C39.2725 10.72 39.0525 10.82 38.8125 10.94C38.6125 11.06 38.3925 11.2 38.1525 11.36C37.9525 11.48 37.8325 11.58 37.7925 11.66L37.2525 11.9C37.1725 11.9 37.0525 11.96 36.8925 12.08C36.7725 12.2 36.6125 12.34 36.4125 12.5C36.2525 12.62 36.0925 12.74 35.9325 12.86C35.7725 12.98 35.6725 13.04 35.6325 13.04C35.4325 13.04 35.1325 13.18 34.7325 13.46C34.3325 13.7 33.9725 13.88 33.6525 14L33.1125 14.36H32.5125H31.9125C31.7525 14.36 31.6125 14.34 31.4925 14.3L31.1325 13.7V12.92C31.1725 12.8 31.2325 12.68 31.3125 12.56C31.3925 12.48 31.4525 12.4 31.4925 12.32C31.5725 12.2 31.6525 12.1 31.7325 12.02L32.2725 11.48C32.5525 11.36 32.7925 11.22 32.9925 11.06C33.1925 10.94 33.3725 10.82 33.5325 10.7C33.6925 10.58 33.8125 10.48 33.8925 10.4L34.4925 10.04C34.6525 9.96 34.7925 9.88 34.9125 9.8C35.0725 9.68 35.1925 9.58 35.2725 9.5C35.5925 9.38 35.9925 9.18 36.4725 8.9C36.7125 8.74 36.9725 8.58 37.2525 8.42C37.4525 8.34 37.7925 8.18 38.2725 7.94C38.7525 7.7 39.2525 7.44 39.7725 7.16C40.3325 6.88 40.8525 6.64 41.3325 6.44C41.8125 6.2 42.1525 6.04 42.3525 5.96H43.4325C43.5925 5.96 43.7725 6.06 43.9725 6.26C44.1725 6.46 44.2725 6.62 44.2725 6.74V7.64C44.2325 7.92 44.1725 8.18 44.0925 8.42C44.0125 8.62 43.9525 8.82 43.9125 9.02C43.8725 9.22 43.8125 9.38 43.7325 9.5C43.2925 10.9 42.8725 12.08 42.4725 13.04C42.1125 13.96 41.6725 14.94 41.1525 15.98C40.7125 17.26 40.2325 18.52 39.7125 19.76C39.1925 20.96 38.5925 22.18 37.9125 23.42C37.8325 23.5 37.7325 23.66 37.6125 23.9C37.5325 24.14 37.4325 24.4 37.3125 24.68C37.1925 24.96 37.0725 25.24 36.9525 25.52C36.8325 25.76 36.7325 25.9 36.6525 25.94C36.6525 26.06 36.5725 26.24 36.4125 26.48L36.1725 26.84L35.1525 27.62H34.0725L33.7725 27.08L33.6525 26.24ZM41.4525 16.94C41.5325 16.82 41.6325 16.68 41.7525 16.52C41.8325 16.44 41.9125 16.36 41.9925 16.28C42.0725 16.16 42.1525 16.1 42.2325 16.1L43.0725 15.86C43.3125 15.78 43.5125 15.68 43.6725 15.56C43.8325 15.48 43.9725 15.42 44.0925 15.38C44.2525 15.3 44.3725 15.26 44.4525 15.26L44.9325 15.14C45.2525 15.06 45.4725 15.02 45.5925 15.02C45.7125 15.02 45.9325 14.98 46.2525 14.9C46.6125 14.78 46.8525 14.72 46.9725 14.72C47.0925 14.72 47.2325 14.72 47.3925 14.72C47.5925 14.68 47.7925 14.64 47.9925 14.6C48.1925 14.56 48.3925 14.52 48.5925 14.48H50.8725C50.9925 14.48 51.1925 14.5 51.4725 14.54C51.7525 14.54 52.0325 14.56 52.3125 14.6C52.6325 14.64 52.9125 14.68 53.1525 14.72C53.3925 14.72 53.5525 14.72 53.6325 14.72C53.7925 14.72 54.0525 14.8 54.4125 14.96C54.8125 15.12 55.1525 15.2 55.4325 15.2C55.8725 15.32 56.2325 15.48 56.5125 15.68C56.7925 15.84 57.0725 16.06 57.3525 16.34L57.6525 16.88V17.48L57.3525 17.78C57.1925 17.78 57.0125 17.82 56.8125 17.9C56.6125 17.98 56.4325 18.02 56.2725 18.02L50.8725 17.96C50.2725 18 49.7125 18.04 49.1925 18.08C48.7525 18.16 48.2925 18.24 47.8125 18.32C47.3325 18.36 46.9725 18.42 46.7325 18.5C46.5325 18.5 46.2325 18.54 45.8325 18.62C45.4325 18.7 45.1525 18.74 44.9925 18.74H42.8325L42.2325 18.5L41.4525 17.66V16.94ZM64.0711 41.48L68.9911 39.2V32.06L68.5711 32.12L67.7311 31.76L66.7111 30.8C66.7111 30.68 66.6511 30.52 66.5311 30.32C66.4511 30.08 66.3311 29.84 66.1711 29.6C66.0511 29.32 65.9311 29.08 65.8111 28.88C65.7311 28.64 65.6911 28.46 65.6911 28.34V27.86C65.6911 27.7 65.6511 27.36 65.5711 26.84C65.5311 26.28 65.5111 25.92 65.5111 25.76V24.08C65.5111 23.68 65.5711 23.22 65.6911 22.7C65.8111 22.18 65.8711 21.84 65.8711 21.68C65.8711 21.44 65.9111 21.24 65.9911 21.08C66.0711 20.88 66.1911 20.66 66.3511 20.42C66.4311 20.26 66.5911 20.08 66.8311 19.88C67.0711 19.68 67.2911 19.58 67.4911 19.58C67.5711 19.34 67.7911 19.02 68.1511 18.62C68.5511 18.18 68.8511 17.96 69.0511 17.96H70.5511C70.7111 17.96 70.9911 18.04 71.3911 18.2C71.5511 18.28 71.7311 18.36 71.9311 18.44C72.0911 18.56 72.2511 18.7 72.4111 18.86C72.5311 18.98 72.6711 19.12 72.8311 19.28C72.9911 19.4 73.1111 19.52 73.1911 19.64L73.5511 20.42C73.5511 20.5 73.5911 20.74 73.6711 21.14C73.7111 21.3 73.7711 21.48 73.8511 21.68V24.98C73.8511 25.18 73.7511 25.5 73.5511 25.94C73.3911 26.38 73.3111 26.74 73.3111 27.02C73.3111 27.1 73.2711 27.3 73.1911 27.62C73.1111 27.9 73.0111 28.22 72.8911 28.58C72.7711 28.9 72.6511 29.22 72.5311 29.54C72.4111 29.86 72.2911 30.06 72.1711 30.14V38.06L72.5911 38C72.9511 37.76 73.4311 37.58 74.0311 37.46C74.6711 37.3 75.2111 37.14 75.6511 36.98C75.7311 36.98 75.9111 36.94 76.1911 36.86C76.4711 36.78 76.7511 36.68 77.0311 36.56C77.3511 36.44 77.6311 36.34 77.8711 36.26C78.1511 36.18 78.3311 36.14 78.4111 36.14C78.4911 36.14 78.6311 36.14 78.8311 36.14C79.0311 36.1 79.2311 36.04 79.4311 35.96C79.6311 35.88 79.8511 35.8 80.0911 35.72H81.2311L81.6511 36.14L81.2311 36.98L80.7511 37.58C80.6311 37.74 80.5111 37.88 80.3911 38C80.2711 38.12 80.1711 38.18 80.0911 38.18C80.0111 38.26 79.9111 38.32 79.7911 38.36C79.5911 38.48 79.3911 38.54 79.1911 38.54C78.9111 38.66 78.5511 38.82 78.1111 39.02C77.7111 39.22 77.2711 39.44 76.7911 39.68C76.3111 39.92 75.8311 40.16 75.3511 40.4C74.9111 40.6 74.5311 40.76 74.2111 40.88C74.1311 40.88 73.9511 40.94 73.6711 41.06C73.3911 41.18 73.0911 41.32 72.7711 41.48C72.4911 41.64 72.2111 41.78 71.9311 41.9C71.6511 42.02 71.4511 42.08 71.3311 42.08L70.5511 42.44H70.1911L68.5711 43.28C68.4511 43.28 68.2311 43.32 67.9111 43.4C67.6311 43.48 67.3311 43.58 67.0111 43.7C66.7311 43.78 66.4711 43.86 66.2311 43.94C65.9911 44.02 65.8311 44.06 65.7511 44.06H64.4911C64.2911 44.06 64.0311 43.92 63.7111 43.64C63.4311 43.32 63.2911 43.06 63.2911 42.86V42.26L64.0711 41.48ZM61.0111 17.18C61.0511 16.74 61.1511 16.38 61.3111 16.1C61.5111 15.82 61.6911 15.58 61.8511 15.38C61.9711 15.34 62.0911 15.28 62.2111 15.2C62.3711 15.12 62.5311 15.04 62.6911 14.96L63.1711 14.6C63.2911 14.52 63.5311 14.4 63.8911 14.24C64.2911 14.08 64.7111 13.92 65.1511 13.76C65.5911 13.56 65.9911 13.38 66.3511 13.22C66.7511 13.02 67.0111 12.86 67.1311 12.74L67.7311 12.44L67.6711 11.12C67.6711 10.44 67.6511 9.88 67.6111 9.44C67.6111 8.96 67.5911 8.52 67.5511 8.12C67.5511 7.72 67.5311 7.3 67.4911 6.86C67.4911 6.38 67.4911 5.78 67.4911 5.06V3.86C67.4911 3.62 67.5511 3.22 67.6711 2.66C67.8311 2.06 67.9111 1.62 67.9111 1.34L68.6911 0.619996H69.9511L70.3111 1.34C70.3111 1.74 70.3111 2.3 70.3111 3.02C70.3511 3.74 70.3711 4.5 70.3711 5.3C70.3711 6.06 70.3711 6.8 70.3711 7.52C70.4111 8.24 70.4311 8.78 70.4311 9.14L70.4911 11.72L71.8111 11.3C72.0111 11.22 72.2511 11.16 72.5311 11.12C72.8511 11.08 73.1711 11.02 73.4911 10.94C73.8511 10.86 74.2311 10.8 74.6311 10.76L76.6711 10.7L77.0311 11.06V11.18C76.9911 11.46 76.8911 11.68 76.7311 11.84C76.5711 12 76.3911 12.18 76.1911 12.38C75.7511 12.5 75.3911 12.68 75.1111 12.92C74.8711 13.12 74.5311 13.34 74.0911 13.58L71.9911 14.3L71.2711 14.54C71.1511 14.66 70.7911 14.84 70.1911 15.08C69.5911 15.32 68.9311 15.58 68.2111 15.86C67.4911 16.14 66.8111 16.42 66.1711 16.7C65.5311 16.94 65.1511 17.12 65.0311 17.24L63.1711 17.96L61.4311 17.9L61.0111 17.48V17.18ZM68.4511 21.68C68.4511 22.08 68.4511 22.64 68.4511 23.36C68.4511 24.08 68.4711 24.82 68.5111 25.58C68.5511 26.46 68.5911 27.4 68.6311 28.4L69.2911 29.12C69.9311 28.12 70.4111 27.14 70.7311 26.18C71.0911 25.18 71.2711 24.18 71.2711 23.18L71.1511 21.44L70.7911 20.96C70.5511 20.64 70.3511 20.48 70.1911 20.48L69.1711 20.54L68.2711 20.9L68.4511 21.68Z" fill="#111111"/>
</svg>
