<svg width="34" height="36" viewBox="0 0 34 36" fill="none" xmlns="http://www.w3.org/2000/svg">
<path d="M19.8303 26.0771L20.8643 34.5837L16.8528 35.0712L15.8189 26.5647L19.8303 26.0771Z" fill="#C4D3E7"/>
<path d="M16.7232 0.547256L17.7571 9.05383L13.7456 9.5414L12.7117 1.03482L16.7232 0.547256Z" fill="#C4D3E7"/>
<path d="M25.504 19.3291L33.3569 22.6738L31.7735 26.3916L23.9205 23.0469L25.504 19.3291Z" fill="#C4D3E7"/>
<path d="M1.81416 9.23946L9.66711 12.5842L8.08364 16.302L0.23069 12.9572L1.81416 9.23946Z" fill="#C4D3E7"/>
<path d="M29.2755 5.89942L31.7035 9.12964L24.8804 14.2581L22.4524 11.0279L29.2755 5.89942Z" fill="#C4D3E7"/>
<path d="M8.70015 21.3701L11.1281 24.6003L4.30503 29.7288L1.87707 26.4986L8.70015 21.3701Z" fill="#C4D3E7"/>
</svg>
