<svg width="280" height="52" viewBox="0 0 280 52" fill="none" xmlns="http://www.w3.org/2000/svg">
<g clip-path="url(#clip0_6_22)">
<path d="M15.2876 8.3592C19.4541 4.76396 24.8732 2.56803 30.8164 2.51038C35.7585 2.46845 40.3652 3.92018 44.2121 6.4358C39.5267 2.42653 33.442 0 26.7914 0C11.9964 0 0 11.9911 0 26.7861C0 30.8006 0.885708 34.6055 2.46845 38.0278C6.07942 45.8629 14.0036 51.3082 23.1961 51.3082C32.3886 51.3082 40.2919 45.6219 43.5307 37.5719C44.123 36.0835 44.4479 34.4588 44.4479 32.766C44.4479 27.5146 40.1871 23.259 34.9409 23.259C31.5606 23.259 28.5942 25.02 26.9067 27.6771C25.2191 30.329 22.2528 32.0951 18.8776 32.0951C15.5025 32.0951 12.2899 30.2189 10.5761 27.2264C9.93146 26.1048 9.5646 24.8994 9.40738 23.4844C9.33925 22.8974 9.30256 22.279 9.29732 21.6134C9.25015 16.3306 11.5823 11.5719 15.2929 8.36444" fill="white"/>
<path d="M31.0941 3.88873C42.514 3.88873 53.567 12.7982 53.567 26.7442C53.567 38.358 46.1879 48.2842 35.8529 51.9948C43.8819 48.0117 49.4005 39.7311 49.4005 30.156C49.4005 17.9605 39.511 8.07095 27.3155 8.07095C22.0379 8.07095 17.2163 10.0415 13.5529 13.2856C13.1336 13.6577 12.7406 14.0613 12.3737 14.4858C13.3642 12.4523 14.7688 10.6652 16.4826 9.21871C20.4237 5.89075 25.5231 3.88873 31.0941 3.88873" fill="white"/>
<path d="M71.4384 33.4106V26.7599H73.9593V33.4106H77.5335V26.7599H80.0754V33.4106H86.4378V35.7375H66.7531V33.4106H71.4332H71.4384ZM82.1927 29.6424V19.3703H68.341V16.9909H84.855V29.6424H82.1874H82.1927Z" fill="white"/>
<path d="M108.911 30.7745V37.378H106.248V33.0542H91.8936V30.7745H95.3001L95.3211 28.2798H90.8087V25.9738H110.493V28.2798H105.955V30.7745H108.905H108.911ZM105.934 20.3084C105.934 20.9792 105.787 21.6134 105.504 22.2056C105.216 22.7978 104.839 23.3272 104.377 23.7884C103.895 24.2181 103.34 24.5692 102.695 24.8313C102.056 25.0933 101.374 25.2244 100.656 25.2244C99.9383 25.2244 99.2518 25.0933 98.6071 24.8313C97.9573 24.5692 97.3965 24.2181 96.9143 23.7884C96.4531 23.3272 96.0758 22.7978 95.7876 22.2056C95.4993 21.6134 95.3578 20.9792 95.3578 20.3084C95.3578 19.6376 95.4993 19.0034 95.7876 18.4112C96.0758 17.819 96.4531 17.2897 96.9143 16.8285C97.3965 16.3778 97.9573 16.0214 98.6071 15.7593C99.257 15.4973 99.9383 15.361 100.656 15.361C101.374 15.361 102.056 15.492 102.695 15.7593C103.334 16.0266 103.895 16.3778 104.377 16.8285C104.839 17.2897 105.216 17.819 105.504 18.4112C105.792 19.0034 105.934 19.6323 105.934 20.3084ZM97.7476 30.7745H103.507V28.2798H97.7686L97.7424 30.7745H97.7476ZM103.319 20.3084C103.319 19.5904 103.057 18.9772 102.538 18.4741C102.019 17.971 101.39 17.7194 100.651 17.7194C99.9121 17.7194 99.2832 17.971 98.7539 18.4741C98.2246 18.9772 97.9625 19.5904 97.9625 20.3084C97.9625 21.0264 98.2246 21.6448 98.7539 22.1584C99.2832 22.672 99.9121 22.9236 100.651 22.9236C101.39 22.9236 102.019 22.6668 102.538 22.1584C103.057 21.6448 103.319 21.0317 103.319 20.3084Z" fill="white"/>
<path d="M115.105 29.438H134.79V31.7912H126.268V37.3151H123.606V31.7912H115.111V29.438H115.105ZM119.309 18.972H130.566V16.2572H133.207V26.5555H116.693V16.2572H119.309V18.972ZM130.566 21.278H119.309V24.2286H130.566V21.278Z" fill="white"/>
</g>
<path d="M148.29 18.808C148.29 17.152 148.938 15.76 150.042 14.776C151.05 13.912 152.394 13.408 154.074 13.408C155.73 13.408 157.098 13.912 158.106 14.776C158.322 14.968 158.514 15.16 158.682 15.376H163.146V13.528H166.434V24.4H163.146V22.336H158.61C158.466 22.504 158.298 22.672 158.106 22.84C157.098 23.728 155.73 24.232 154.074 24.232C152.394 24.232 151.05 23.728 150.042 22.84C148.938 21.88 148.29 20.488 148.29 18.808ZM159.81 18.04C159.834 18.28 159.858 18.544 159.858 18.808C159.858 19.096 159.834 19.384 159.786 19.672H163.146V18.04H159.81ZM151.506 18.808C151.506 19.648 151.818 20.32 152.298 20.824C152.73 21.256 153.354 21.52 154.074 21.52C154.794 21.52 155.418 21.256 155.85 20.824C156.33 20.32 156.642 19.648 156.642 18.808C156.642 17.992 156.33 17.296 155.85 16.816C155.418 16.384 154.794 16.12 154.074 16.12C153.354 16.12 152.73 16.384 152.298 16.816C151.818 17.296 151.506 17.992 151.506 18.808ZM153.114 33.112H166.674V35.8H149.826V29.224H163.146V27.88H149.826V25.24H166.434V31.84H153.114V33.112ZM173.657 24.328H181.313C183.161 24.328 184.241 24.088 184.985 23.536V13.528H188.273V29.488H184.985V26.08C184.241 26.728 182.897 27.064 180.401 27.064H170.393V19.024H178.217V16.504H170.393V13.792H181.481V21.736H173.657V24.328ZM171.665 35.656V28.36H174.953V32.8H188.657V35.656H171.665ZM206.848 16.864V13.792H210.136V25.288H192.76V13.792H196.048V16.864H206.848ZM206.848 19.696H196.048V22.456H206.848V19.696ZM191.656 27.448H211.24V30.328H203.056V35.92H199.768V30.328H191.656V27.448ZM214.767 14.8H221.607V12.76H224.895V14.8H231.807V17.56H225.231C226.191 19.12 229.191 19.984 232.047 20.152V22.864C228.543 22.744 225.207 21.784 223.263 20.008C221.319 21.832 218.007 22.72 214.479 22.864V20.152C217.359 19.984 220.311 19.12 221.271 17.56H214.767V14.8ZM224.871 21.688V23.968H233.199V26.776H213.375V23.968H221.607V21.688H224.871ZM214.383 31.936C214.383 30.4 215.247 29.368 216.663 28.72C218.319 27.952 220.743 27.712 223.311 27.712C225.879 27.712 228.303 27.952 229.959 28.72C231.375 29.368 232.239 30.4 232.239 31.936C232.239 33.472 231.375 34.504 229.959 35.152C228.303 35.92 225.879 36.184 223.311 36.184C220.743 36.184 218.319 35.92 216.663 35.152C215.247 34.504 214.383 33.472 214.383 31.936ZM217.671 31.936C217.671 32.32 217.911 32.632 218.415 32.872C219.327 33.28 221.055 33.424 223.311 33.424C225.567 33.424 227.295 33.28 228.207 32.872C228.711 32.632 228.951 32.32 228.951 31.936C228.951 31.552 228.711 31.24 228.207 31.024C227.295 30.592 225.567 30.448 223.311 30.448C221.055 30.448 219.327 30.592 218.415 31.024C217.911 31.24 217.671 31.552 217.671 31.936ZM239.294 31.24H246.686C248.462 31.24 249.782 30.952 250.478 30.352V13.528H253.766V35.56H250.478V33.016C249.758 33.736 248.126 34.096 246.062 34.096H236.03V22.456H243.35V16.768H236.03V13.912H246.614V25.312H239.294V31.24ZM264.853 15.088C264.853 19.024 266.701 20.512 269.461 21.28V24.16C266.869 23.752 264.517 22.528 263.245 20.872C261.997 22.624 259.669 23.92 256.981 24.424V21.544C259.837 20.728 261.565 18.856 261.565 15.088V13.648H264.853V15.088ZM272.341 24.28V13.528H275.629V24.28H272.341ZM262.309 33.112H275.869V35.8H259.021V29.224H272.341V27.88H259.021V25.24H275.629V31.84H262.309V33.112Z" fill="white"/>
<defs>
<clipPath id="clip0_6_22">
<rect width="134.79" height="52" fill="white"/>
</clipPath>
</defs>
</svg>
