<svg width="246" height="246" viewBox="0 0 246 246" fill="none" xmlns="http://www.w3.org/2000/svg">
<g opacity="0.12" clip-path="url(#clip0)">
<path d="M209.886 115.222C194.376 115.222 186.067 126.478 178.361 143.379C168.091 165.908 157.55 178.828 149.444 178.828C147.952 178.828 143.406 178.828 139.45 169.998C138.211 167.235 135.177 165.7 132.228 166.345C117.645 169.545 106.949 176.178 100.436 186.056C95.0237 194.267 94.0045 202.653 93.8788 206.919C93.8281 208.689 94.4737 210.357 95.6993 211.62C96.923 212.88 98.569 213.574 100.333 213.574H148.577C149.258 218.959 149.825 224.251 150.268 229.369C136.55 239.307 121.095 239.638 110.374 238.095C98.0641 236.321 85.647 231.575 73.6372 226.986C68.8644 225.162 63.9302 223.275 59.0317 221.582C44.368 216.513 32.7542 214.323 22.1088 214.679C27.8068 168.637 41.2656 120.478 50.5634 103.592H67.0289C65.7751 110.179 64.3581 120.016 62.9561 131.919C62.7234 133.895 64.1367 135.687 66.1148 135.92C66.2575 135.937 66.3982 135.945 66.539 135.945C68.3408 135.945 69.8985 134.595 70.1144 132.761C71.6027 120.125 73.0929 109.917 74.371 103.592H97.197C98.4695 109.935 99.9522 120.102 101.442 132.761C101.658 134.595 103.216 135.945 105.018 135.945C105.157 135.945 105.299 135.937 105.442 135.92C107.42 135.687 108.833 133.895 108.601 131.919C107.197 120.001 105.787 110.198 104.537 103.592H120.256C126.006 114.136 133.405 136.965 139.437 162.935C139.824 164.602 141.304 165.726 142.943 165.726C143.213 165.726 143.487 165.696 143.761 165.632C145.7 165.182 146.907 163.245 146.456 161.306C140.167 134.222 132.294 110.256 126.151 99.3688C127.142 94.6955 128.281 89.583 129.385 84.6244C132.228 71.8676 135.167 58.6754 135.955 51.2694C137.1 40.5114 136.321 13.7403 136.055 5.7919C135.946 2.54498 133.315 0 130.064 0H121.609C118.304 0 115.616 2.6895 115.616 5.9946V14.6618C115.616 31.6903 101.99 45.5901 85.2416 45.6464H85.1365C76.9911 45.6464 69.3392 42.4783 63.5811 36.7221C57.8267 30.9658 54.6568 23.3121 54.6568 15.1667V5.9946C54.6568 2.6895 51.9673 0 48.6622 0H40.2089C36.9583 0 34.3269 2.54498 34.2181 5.7919C34.0642 10.3714 33.7076 22.1992 33.7076 33.081C33.7076 35.0705 35.3198 36.6845 37.3111 36.6845C39.3006 36.6845 40.9146 35.0705 40.9146 33.081C40.9146 23.1376 41.2149 12.3777 41.382 7.20703H47.4498V15.1667C47.4498 25.2359 51.3686 34.7007 58.4855 41.8177C65.6362 48.9684 75.1293 52.8703 85.2679 52.8534C105.975 52.784 122.823 35.6504 122.823 14.6618V7.20703H128.891C129.18 16.2177 129.835 40.6784 128.79 50.5055C128.043 57.5061 125.151 70.4957 122.35 83.0573C121.357 87.5148 120.338 92.0942 119.419 96.3847H100.264C100.161 96.3809 100.055 96.3809 99.9503 96.3847H71.4413C71.3268 96.379 71.2123 96.379 71.0959 96.3847H50.8468C49.9685 92.3007 48.9981 87.9464 48.0541 83.7029C45.1957 70.8785 42.2397 57.615 41.4833 50.5055C41.3913 49.6422 41.3069 48.5855 41.2281 47.2736C41.1061 45.2879 39.4019 43.7846 37.4106 43.8972C35.4249 44.0173 33.9122 45.7271 34.0342 47.7128C34.1205 49.1336 34.2125 50.2953 34.3157 51.2675C35.1171 58.7842 38.1163 72.2486 41.0179 85.2701C42.1327 90.2699 43.2813 95.4256 44.2685 100.084C39.385 108.976 33.5424 125.607 28.109 146.139C21.8967 169.613 17.0413 195.19 14.4363 218.159C14.3143 219.244 14.6878 220.325 15.4554 221.1C16.223 221.875 17.2985 222.26 18.3851 222.151C29.1769 221.046 40.9841 222.971 56.6763 228.395C61.4659 230.049 66.3457 231.914 71.064 233.718C83.4417 238.45 96.2417 243.341 109.346 245.229C112.931 245.745 116.448 246 119.88 246C133.634 246 146.057 241.888 156.25 233.881C157.201 233.134 157.714 231.961 157.616 230.756C157.167 225.21 156.572 219.447 155.84 213.574H158.046C161.25 213.574 164.074 211.541 165.076 208.514C168.141 199.239 174.682 188.837 183.021 179.977C189.325 173.277 195.136 169.164 198.668 167.845C199.233 170.396 199.518 175.335 199.518 182.591V207.088C199.518 210.663 202.427 213.574 206.004 213.574H211.973C215.548 213.574 218.459 210.663 218.459 207.088V182.591C218.459 177.237 220.646 172.683 222.963 167.866C225.625 162.329 228.374 156.605 228.374 149.101C228.374 129.471 220.599 115.222 209.886 115.222V115.222ZM216.468 164.743C213.902 170.078 211.252 175.594 211.252 182.591V206.367H206.725V182.591C206.725 171.075 206.19 164.27 203.367 161.295C202.688 160.578 201.742 160.173 200.753 160.173C192.409 160.173 181.054 171.55 177.773 175.037C168.74 184.637 161.617 196.014 158.233 206.252C158.211 206.318 158.132 206.367 158.046 206.367H151.824C151.775 206.365 151.725 206.365 151.676 206.367H101.114C101.563 197.987 105.789 179.791 133.14 173.526C137.018 181.827 142.502 186.035 149.444 186.035C160.985 186.035 172.92 172.689 184.918 146.368C192.977 128.692 199.511 122.429 209.886 122.429C214.615 122.429 221.167 131.697 221.167 149.101C221.167 154.964 218.885 159.715 216.468 164.743V164.743Z" fill="white"/>
<path d="M231.252 58.0767C231.227 58.0148 231.201 57.9528 231.175 57.8928L220.473 32.7038C219.42 30.2245 216.997 28.6217 214.304 28.6217H156.893C154.198 28.6217 151.777 30.2245 150.722 32.7057L149.38 35.8644C148.602 37.6981 149.456 39.8132 151.287 40.5903C153.121 41.3691 155.236 40.5152 156.013 38.6834L157.226 35.8287H170.99L168.111 55.7738H148.754L150.191 52.3861C150.97 50.5544 150.116 48.4392 148.284 47.6603C146.453 46.8833 144.336 47.7372 143.559 49.569L140.023 57.8928C139.994 57.9528 139.97 58.0148 139.946 58.0767C138.996 60.4284 139.465 63.1516 141.154 65.0491L180.592 109.318C181.853 110.735 183.663 111.551 185.558 111.563H185.598H185.637C187.533 111.551 189.342 110.735 190.603 109.318L230.041 65.0491C231.732 63.1516 232.201 60.4265 231.252 58.0767V58.0767ZM167.967 63.6959L177.415 94.917L148.964 62.9809H167.785C167.837 63.2286 167.897 63.4669 167.967 63.6959V63.6959ZM195.258 77.6014C193.351 77.0271 191.341 78.1025 190.765 80.0075L185.598 97.0791L175.281 62.9809H195.916L195.066 65.7905C194.49 67.6954 195.567 69.7055 197.472 70.2836C199.377 70.8579 201.389 69.7825 201.966 67.8775L203.231 63.6959C203.3 63.4688 203.36 63.2286 203.413 62.9809H222.233L193.783 94.917L197.664 82.0945C198.238 80.1895 197.161 78.1776 195.258 77.6014V77.6014ZM222.444 55.7738H203.084L200.207 35.8287H213.97L222.444 55.7738ZM178.272 35.8287H192.925L195.802 55.7738H175.393L178.272 35.8287Z" fill="white"/>
</g>
<defs>
<clipPath id="clip0">
<rect width="246" height="246" fill="white"/>
</clipPath>
</defs>
</svg>
