<svg width="329" height="329" viewBox="0 0 329 329" fill="none" xmlns="http://www.w3.org/2000/svg">
<g opacity="0.12" clip-path="url(#clip0)">
<path d="M117.816 248.054C115.159 248.054 113.005 250.208 113.005 252.865V278.198C113.005 280.855 115.159 283.008 117.816 283.008C120.472 283.008 122.626 280.855 122.626 278.198V252.865C122.626 250.208 120.472 248.054 117.816 248.054Z" fill="white"/>
<path d="M210.928 248.054C208.271 248.054 206.118 250.208 206.118 252.865V278.198C206.118 280.855 208.271 283.008 210.928 283.008C213.585 283.008 215.738 280.855 215.738 278.198V252.865C215.738 250.208 213.585 248.054 210.928 248.054Z" fill="white"/>
<path d="M304.397 231.261L288.29 224.799V220.685C291.452 218.928 294.291 216.642 296.68 213.943C306.868 215.145 316.616 211.078 322.926 202.896C329.452 194.435 330.81 183.531 326.559 173.728L319.326 157.051C318.783 155.798 318.409 154.476 318.214 153.124C316.655 142.291 311.241 132.378 302.97 125.212C294.698 118.044 284.115 114.098 273.171 114.098C262.227 114.098 251.644 118.044 243.372 125.212C235.101 132.378 229.687 142.291 228.128 153.124C227.933 154.477 227.559 155.799 227.015 157.051L219.783 173.728C215.532 183.531 216.89 194.435 223.416 202.896C228.998 210.134 237.27 214.168 246.156 214.167C247.302 214.167 248.46 214.099 249.623 213.963C251.791 216.421 254.333 218.538 257.165 220.224V224.798L241.059 231.261C240.009 231.682 238.984 232.159 237.985 232.686C234.868 226.954 230.419 221.942 224.883 218.134L203.904 203.706C204.025 201.057 202.966 198.388 200.808 196.557L192.283 189.324C191.475 188.637 190.567 188.119 189.607 187.767V178.028C198.618 171.493 205.007 161.563 206.88 150.128H207.393C216.565 150.128 224.027 142.666 224.027 133.495C224.027 129.579 222.663 125.977 220.391 123.133L223.829 98.6896C226.307 81.0686 214.005 64.604 196.404 61.9859L195.72 61.8846C190.092 52.6989 181.375 46.0716 170.916 43.1059L169.657 42.7487C155.79 38.8171 140.958 41.1638 128.963 49.1887C126.755 50.6657 126.162 53.6533 127.639 55.8608C129.117 58.0684 132.103 58.6617 134.312 57.184C143.959 50.7305 155.885 48.843 167.032 52.0043L168.291 52.3615C177.043 54.843 184.227 60.6262 188.52 68.6459C191.474 74.1636 192.778 80.2316 192.401 86.3016L189.14 83.4988C186.16 80.9372 181.778 80.8692 178.721 83.3384L174.443 86.7935H150.027C134.183 86.7935 121.293 99.6838 121.293 115.528V116.864C120.017 116.868 118.777 117.021 117.584 117.298C112.146 101.989 113.679 84.7398 121.853 70.6303C123.185 68.331 122.401 65.3884 120.102 64.0563C117.803 62.7254 114.861 63.5085 113.529 65.8072C103.644 82.8715 102.041 103.851 109.147 122.213C106.403 125.18 104.722 129.144 104.722 133.495C104.722 142.666 112.184 150.128 121.355 150.128H121.868C123.741 161.563 130.131 171.493 139.141 178.028V187.767C138.182 188.119 137.273 188.637 136.466 189.323L127.941 196.557C125.783 198.388 124.723 201.058 124.844 203.706L103.866 218.134C99.6026 221.066 95.9827 224.711 93.1196 228.85C91.2641 227.825 89.3304 226.949 87.328 226.24L73.0845 221.195V217.403C80.3397 212.921 85.5553 205.449 87.008 196.719H89.1604C97.6002 196.719 104.466 189.853 104.466 181.414C104.466 177.624 103.079 174.156 100.79 171.48L101.649 161.314C102.843 146.674 96.4547 132.787 84.5605 124.169C72.6663 115.549 57.4806 113.803 43.94 119.496L34.3521 123.527C19.5063 126.804 9.58368 141.03 11.7034 156.14L13.8482 171.431C11.5341 174.113 10.1301 177.601 10.1301 181.414C10.1301 189.853 16.996 196.719 25.4358 196.719H27.5882C28.9467 204.883 33.5972 211.944 40.1277 216.491V221.195L25.8841 226.239C23.8894 226.946 21.9243 227.831 20.0438 228.871C17.7188 230.156 16.8761 233.083 18.1614 235.408C19.0388 236.995 20.6813 237.891 22.3752 237.891C23.1621 237.891 23.9606 237.698 24.6982 237.29C26.1176 236.505 27.5972 235.838 29.0948 235.307L41.4027 230.948C43.8951 236.888 49.77 241.071 56.6051 241.071C63.4402 241.071 69.3152 236.888 71.8075 230.948L84.1154 235.308C85.6637 235.856 87.1581 236.537 88.5903 237.338C86.6796 242.182 85.6554 247.401 85.6554 252.757V281.294C85.6554 283.951 87.8091 286.105 90.4656 286.105C93.1222 286.105 95.2759 283.951 95.2759 281.294V252.757C95.2759 242.087 100.525 232.108 109.316 226.061L129.35 212.283L137.561 223.262C139.327 225.623 142.094 226.952 144.949 226.952C145.838 226.952 146.736 226.823 147.614 226.556L159.563 222.919V283.308C159.563 285.965 161.717 288.118 164.373 288.118C167.03 288.118 169.184 285.965 169.184 283.308V222.919L181.134 226.556C182.012 226.823 182.909 226.952 183.798 226.952C186.652 226.952 189.42 225.622 191.185 223.262L199.396 212.283L219.43 226.061C228.222 232.108 233.47 242.087 233.47 252.757V281.294C233.47 283.951 235.624 286.105 238.28 286.105C240.937 286.105 243.091 283.951 243.091 281.294V252.757C243.091 248.969 242.577 245.248 241.602 241.679C242.577 241.11 243.591 240.611 244.64 240.191L258.607 234.586C261.081 239.912 266.478 243.616 272.727 243.616C278.976 243.616 284.373 239.913 286.847 234.587L300.815 240.191C309.648 243.734 315.354 252.172 315.354 261.688V269.83C315.354 272.488 317.508 274.641 320.164 274.641C322.821 274.641 324.974 272.488 324.974 269.83V261.688C324.974 248.219 316.896 236.276 304.397 231.261V231.261ZM114.341 133.494C114.341 129.649 117.453 126.519 121.291 126.485V140.503C117.454 140.469 114.341 137.34 114.341 133.494ZM89.1592 187.097H87.4223V175.727H89.1592C92.2942 175.727 94.8443 178.278 94.8443 181.412C94.8443 184.547 92.2942 187.097 89.1592 187.097V187.097ZM19.7494 181.413C19.7494 178.278 22.2995 175.728 25.4345 175.728H27.1713V187.098H25.4345C22.3001 187.097 19.7494 184.547 19.7494 181.413V181.413ZM33.0136 151.279C29.8228 155.686 27.8935 160.76 27.3413 166.107H25.4345C24.552 166.107 23.6887 166.186 22.8466 166.33L21.2297 154.803C19.7917 144.553 26.6108 134.911 36.7534 132.85C37.0638 132.787 37.3678 132.694 37.6603 132.571L47.6683 128.363C58.0854 123.983 69.766 125.328 78.9152 131.957C88.0643 138.587 92.9785 149.269 92.0614 160.516L91.5726 166.298C90.7863 166.173 89.9808 166.106 89.1592 166.106H87.38C86.9657 162.028 83.5119 158.834 79.3257 158.834H67.4475C58.982 158.834 50.6051 156.016 43.8604 150.901L42.4995 149.869C41.0705 148.785 39.2323 148.314 37.4602 148.579C35.6862 148.843 34.0654 149.827 33.0136 151.279V151.279ZM40.8056 156.922C40.8043 156.924 40.8037 156.925 40.803 156.927C40.8037 156.925 40.805 156.924 40.8056 156.922ZM36.7925 169.308C36.7925 165.83 37.6308 162.468 39.2362 159.44C47.4284 165.263 57.3882 168.455 67.4481 168.455H77.8018V191.759C77.8018 203.066 68.6032 212.264 57.2972 212.264C45.9911 212.264 36.7925 203.066 36.7925 191.759V169.308ZM56.6045 231.451C52.823 231.451 49.7469 228.374 49.7469 224.593V220.926C52.1604 221.551 54.6906 221.885 57.2972 221.885C59.4098 221.885 61.4712 221.664 63.4626 221.248V224.593C63.4626 228.374 60.386 231.451 56.6045 231.451ZM207.454 140.503V126.485C211.291 126.518 214.404 129.649 214.404 133.494C214.404 137.34 211.291 140.469 207.454 140.503ZM214.3 97.3479L211.483 117.371C210.193 117.044 208.843 116.867 207.453 116.862V116.473C207.453 108.717 205.054 101.258 200.71 95.0242C202.604 87.7293 202.537 80.2188 200.577 73.0804C209.868 77.046 215.769 86.9083 214.3 97.3479V97.3479ZM130.912 143.142V115.526C130.912 104.987 139.487 96.4128 150.026 96.4128H176.142C177.242 96.4128 178.309 96.0357 179.165 95.3449L183.804 91.5974L188.113 95.3013C194.29 100.611 197.832 108.328 197.832 116.473V143.142C197.832 161.592 182.822 176.602 164.372 176.602C145.922 176.602 130.912 161.592 130.912 143.142V143.142ZM164.373 186.223C169.879 186.223 175.141 185.174 179.986 183.283V189.447L164.373 197.102L148.76 189.447V183.283C153.604 185.173 158.866 186.223 164.373 186.223ZM145.091 217.266L134.729 203.412L142.295 196.991L159.562 205.457V212.862L145.091 217.266ZM183.654 217.266L169.183 212.863V205.458L186.45 196.992L194.016 203.413L183.654 217.266ZM231.033 197.021C226.678 191.374 225.772 184.098 228.609 177.556L235.841 160.88C236.725 158.843 237.334 156.695 237.65 154.495C240.175 136.95 255.445 123.719 273.171 123.719C290.896 123.719 306.167 136.95 308.691 154.495C309.007 156.694 309.616 158.842 310.5 160.88L317.732 177.556C320.569 184.098 319.663 191.374 315.308 197.021C312.083 201.201 307.514 203.775 302.498 204.393C303.534 201.701 304.209 198.833 304.458 195.843C304.677 193.195 302.708 190.871 300.061 190.651C297.416 190.436 295.09 192.401 294.87 195.048C293.943 206.238 284.412 215.003 273.171 215.003C261.16 215.003 251.389 205.233 251.389 193.222V170.146C251.389 165.029 252.895 159.997 255.669 155.725C261.894 160.477 269.566 163.194 277.404 163.401L294.952 163.864V174.945C294.952 177.602 297.106 179.755 299.763 179.755C302.419 179.755 304.573 177.602 304.573 174.945V162.562C304.573 158.038 301.03 154.4 296.508 154.282L277.657 153.785C271.553 153.624 265.584 151.413 260.849 147.561L259.606 146.55C258.14 145.358 256.298 144.811 254.419 145.013C252.54 145.214 250.855 146.138 249.676 147.612C244.576 153.983 241.767 161.987 241.767 170.148V193.224C241.767 197.153 242.499 200.914 243.823 204.384C238.817 203.762 234.253 201.196 231.033 197.021V197.021ZM272.726 233.995C269.45 233.995 266.784 231.33 266.784 228.052V223.97C268.847 224.398 270.983 224.625 273.17 224.625C275.042 224.625 276.878 224.449 278.669 224.126V228.053C278.669 231.33 276.003 233.995 272.726 233.995V233.995Z" fill="white"/>
<path d="M10.31 243.707C7.919 242.546 5.04246 243.548 3.88414 245.939C1.30711 251.263 0 256.957 0 262.864V278.198C0 280.855 2.15372 283.008 4.81028 283.008C7.46684 283.008 9.62056 280.855 9.62056 278.198V262.864C9.62056 258.422 10.6038 254.139 12.5439 250.132C13.7016 247.741 12.7017 244.864 10.31 243.707V243.707Z" fill="white"/>
</g>
<defs>
<clipPath id="clip0">
<rect width="329" height="329" fill="white"/>
</clipPath>
</defs>
</svg>
