<svg width="55" height="48" viewBox="0 0 55 48" fill="none" xmlns="http://www.w3.org/2000/svg">
<g clip-path="url(#clip0_40_2359)">
<path d="M27.9939 40C23.7212 40 19.7024 38.3348 16.6818 35.3142C10.4427 29.0752 10.4427 18.9248 16.6775 12.6858C19.7024 9.66519 23.7169 8 27.9939 8C32.2709 8 36.2854 9.66519 39.306 12.6858C45.545 18.9248 45.545 29.0752 39.306 35.3099C36.2854 38.3305 32.2666 39.9957 27.9939 39.9957V40ZM27.9939 9.50598C24.1214 9.50598 20.4812 11.012 17.7446 13.7486C12.095 19.4024 12.095 28.5976 17.7446 34.2471C20.4812 36.9837 24.1214 38.4897 27.9939 38.4897C31.8664 38.4897 35.5066 36.9837 38.2432 34.2471C43.8928 28.5976 43.8928 19.4024 38.2432 13.7486C35.5066 11.012 31.8664 9.50598 27.9939 9.50598Z" fill="white"/>
<path d="M27.9943 32.6809C25.6751 32.6809 23.4936 31.7773 21.8542 30.138C18.4679 26.7517 18.4679 21.2441 21.8542 17.8621C23.4936 16.2227 25.6751 15.3191 27.9943 15.3191C30.3135 15.3191 32.495 16.2227 34.1344 17.8621C37.5207 21.2484 37.5207 26.756 34.1344 30.138C32.495 31.7773 30.3135 32.6809 27.9943 32.6809ZM27.9943 16.8251C26.0795 16.8251 24.2767 17.5695 22.9213 18.9248C20.1245 21.7217 20.1245 26.274 22.9213 29.0709C24.2767 30.4263 26.0795 31.1706 27.9943 31.1706C29.909 31.1706 31.7119 30.4263 33.0673 29.0709C35.8641 26.274 35.8641 21.7217 33.0673 18.9248C31.7119 17.5695 29.909 16.8251 27.9943 16.8251V16.8251Z" fill="white"/>
<path d="M33.9229 18.817C33.7293 18.817 33.5357 18.7439 33.3894 18.5976C33.0968 18.305 33.0968 17.8274 33.3894 17.5348L38.2386 12.6855C38.5312 12.3929 39.0088 12.3929 39.3014 12.6855C39.594 12.9781 39.594 13.4557 39.3014 13.7483L34.4522 18.5976C34.3059 18.7439 34.1122 18.817 33.9186 18.817H33.9229Z" fill="white"/>
<path d="M17.211 35.5333C17.0174 35.5333 16.8237 35.4602 16.6775 35.3139C16.3849 35.0213 16.3849 34.5437 16.6775 34.2511L21.5267 29.4018C21.8193 29.1092 22.2969 29.1092 22.5895 29.4018C22.8821 29.6944 22.8821 30.172 22.5895 30.4646L17.7402 35.3139C17.5939 35.4602 17.4003 35.5333 17.2067 35.5333H17.211Z" fill="white"/>
<path d="M22.0603 18.817C21.8666 18.817 21.673 18.7439 21.5267 18.5976L16.6775 13.7483C16.3849 13.4557 16.3849 12.9781 16.6775 12.6855C16.97 12.3929 17.4477 12.3929 17.7402 12.6855L22.5895 17.5348C22.8821 17.8274 22.8821 18.305 22.5895 18.5976C22.4432 18.7439 22.2496 18.817 22.056 18.817H22.0603Z" fill="white"/>
<path d="M38.7722 35.5333C38.5786 35.5333 38.3849 35.4602 38.2386 35.3139L33.3894 30.4646C33.0968 30.172 33.0968 29.6944 33.3894 29.4018C33.682 29.1092 34.1596 29.1092 34.4522 29.4018L39.3014 34.2511C39.594 34.5437 39.594 35.0213 39.3014 35.3139C39.1551 35.4602 38.9615 35.5333 38.7679 35.5333H38.7722Z" fill="white"/>
</g>
<defs>
<clipPath id="clip0_40_2359">
<rect width="31.9828" height="32" fill="white" transform="translate(12 8)"/>
</clipPath>
</defs>
</svg>
