<svg width="49" height="52" viewBox="0 0 49 52" fill="none" xmlns="http://www.w3.org/2000/svg">
<g clip-path="url(#clip0_26_2471)">
<path d="M6.87305 28.9985L15.3996 51.1241H28.9916L20.1988 28.4661L6.87305 28.9985Z" fill="#B2C4CF"/>
<path d="M28.9917 51.9999H15.3997C15.0354 51.9999 14.7131 51.7757 14.58 51.4394L6.05344 29.3209C5.94834 29.0546 5.98337 28.7604 6.13751 28.5222C6.29165 28.2839 6.55088 28.1368 6.83813 28.1298L20.1639 27.5973C20.5352 27.5903 20.8785 27.8075 21.0117 28.1578L29.8044 50.8089C29.9095 51.0751 29.8745 51.3834 29.7134 51.6216C29.5522 51.8598 29.279 51.9999 28.9917 51.9999ZM16.0022 50.2484H27.7166L19.6104 29.3699L8.13428 29.8323L16.0092 50.2484H16.0022Z" fill="#3E3A39"/>
<path d="M18.8682 15.3856V31.668L47.9929 46.1778V0.875732L18.8682 15.3856Z" fill="#F5D020"/>
<path d="M47.9927 47.0536C47.8596 47.0536 47.7265 47.0256 47.6004 46.9625L18.4756 32.4527C18.1814 32.3056 17.9922 32.0043 17.9922 31.668V15.3856C17.9922 15.0563 18.1814 14.748 18.4756 14.6009L47.6074 0.0910623C47.8806 -0.0420554 48.2029 -0.028043 48.4621 0.1331C48.7214 0.294242 48.8755 0.57449 48.8755 0.875756V46.1778C48.8755 46.4791 48.7214 46.7664 48.4621 46.9205C48.322 47.0046 48.1609 47.0536 47.9997 47.0536H47.9927ZM19.7437 31.1285L47.124 44.7696V2.29101L19.7437 15.9321V31.1285Z" fill="#3E3A39"/>
<path d="M23.2608 23.5267C23.2608 27.282 20.2201 30.3227 16.4648 30.3227H7.67199C3.91667 30.3227 0.875977 27.282 0.875977 23.5267C0.875977 19.7714 3.91667 16.7307 7.67199 16.7307H16.4648C20.2201 16.7307 23.2608 19.7714 23.2608 23.5267Z" fill="#1074E4"/>
<path d="M16.4646 31.1986H7.67179C3.44004 31.1986 0 27.7585 0 23.5268C0 19.295 3.44004 15.855 7.67179 15.855H16.4646C20.6963 15.855 24.1364 19.295 24.1364 23.5268C24.1364 27.7585 20.6963 31.1986 16.4646 31.1986V31.1986ZM7.67179 17.6065C4.4069 17.6065 1.75155 20.2619 1.75155 23.5268C1.75155 26.7917 4.4069 29.447 7.67179 29.447H16.4646C19.7295 29.447 22.3848 26.7917 22.3848 23.5268C22.3848 20.2619 19.7295 17.6065 16.4646 17.6065H7.67179Z" fill="#3E3A39"/>
<path d="M14.8672 15.3856V31.668L43.999 46.1778V0.875732L14.8672 15.3856Z" fill="white"/>
<path d="M43.9988 47.0536C43.8656 47.0536 43.7325 47.0256 43.6064 46.9625L14.4746 32.4527C14.1804 32.3056 13.9912 32.0043 13.9912 31.668V15.3856C13.9912 15.0563 14.1804 14.748 14.4746 14.6009L43.6064 0.0910623C43.8797 -0.0420554 44.2019 -0.028043 44.4612 0.1331C44.7204 0.294242 44.8745 0.57449 44.8745 0.875756V46.1778C44.8745 46.4791 44.7204 46.7664 44.4612 46.9205C44.321 47.0046 44.1599 47.0536 43.9988 47.0536ZM15.7428 31.1285L43.123 44.7696V2.29101L15.7428 15.9321V31.1285Z" fill="#3E3A39"/>
</g>
<defs>
<clipPath id="clip0_26_2471">
<rect width="48.8682" height="52" fill="white"/>
</clipPath>
</defs>
</svg>
