<svg width="60" height="60" viewBox="0 0 60 60" fill="none" xmlns="http://www.w3.org/2000/svg">
<g clip-path="url(#clip0_2_238)">
<path fill-rule="evenodd" clip-rule="evenodd" d="M40.9769 18.8613L31.0601 40.0015L33.47 50.9168H31.7874L30.0555 41.869H29.9815L28.2065 50.9168H26.5239L28.9399 40.0015L19.0231 18.8613L20.4037 18.2203L29.8089 38.2696L30 37.8875L30.1911 38.2696L39.5963 18.2203L40.9769 18.8613Z" fill="#B2C4CF"/>
<path fill-rule="evenodd" clip-rule="evenodd" d="M40.9769 18.8613L31.0601 40.0015L33.47 50.9168H31.7874L30 42.2696V37.8875L30.1911 38.2696L39.5963 18.2203L40.9769 18.8613Z" fill="#B2C4CF"/>
<path fill-rule="evenodd" clip-rule="evenodd" d="M42.2342 18.7441C42.4253 20.6794 44.3113 22.0846 46.4499 21.8751C48.5886 21.6655 50.1726 19.9275 49.9815 17.986C49.7905 16.0507 47.9045 14.6455 45.7658 14.8551C43.6271 15.0646 42.0432 16.8027 42.2342 18.7441V18.7441Z" fill="#E3E3E3"/>
<path fill-rule="evenodd" clip-rule="evenodd" d="M39.8305 16.7657C41.7658 16.5747 43.171 14.6887 42.9615 12.55C42.7519 10.4113 41.0139 8.82736 39.0724 9.01843C37.1371 9.20949 35.7319 11.0955 35.9415 13.2341C36.151 15.3728 37.8891 16.9568 39.8305 16.7657Z" fill="#E3E3E3"/>
<path fill-rule="evenodd" clip-rule="evenodd" d="M37.1988 19.9645C37.0077 18.0293 35.1217 16.624 32.9831 16.8336C30.8444 17.0431 29.2604 18.7812 29.4515 20.7226C29.6425 22.6579 31.5285 24.0632 33.6672 23.8536C35.8059 23.644 37.3898 21.906 37.1988 19.9645V19.9645Z" fill="#E3E3E3"/>
<path fill-rule="evenodd" clip-rule="evenodd" d="M39.6086 21.9368C37.6734 22.1278 36.2681 24.0138 36.4777 26.1525C36.6872 28.2912 38.4314 29.8751 40.3667 29.6841C42.302 29.493 43.7073 27.607 43.4977 25.4683C43.2881 23.3297 41.5501 21.7457 39.6086 21.9368V21.9368Z" fill="#E3E3E3"/>
<path fill-rule="evenodd" clip-rule="evenodd" d="M41.4207 20.7473C40.1818 22.2511 40.527 24.5809 42.1911 25.943C43.849 27.3051 46.2034 27.1941 47.4361 25.6903C48.6749 24.1864 48.3297 21.8628 46.6656 20.4946C45.0015 19.1325 42.6533 19.2434 41.4207 20.7473Z" fill="#F0F0F0"/>
<path fill-rule="evenodd" clip-rule="evenodd" d="M38.0185 17.9553C39.2573 16.4514 38.9122 14.1278 37.2481 12.7596C35.584 11.3975 33.2358 11.5084 32.0031 13.0123C30.7643 14.5161 31.1094 16.8459 32.7735 18.208C34.4376 19.5701 36.7858 19.4591 38.0185 17.9553Z" fill="#F0F0F0"/>
<path fill-rule="evenodd" clip-rule="evenodd" d="M41.1187 17.6471C42.6225 18.8859 44.9461 18.5407 46.3143 16.8766C47.6764 15.2125 47.5655 12.8643 46.0616 11.6317C44.5578 10.3928 42.2281 10.738 40.866 12.4021C39.5039 14.0662 39.6148 16.4144 41.1187 17.6471Z" fill="#F0F0F0"/>
<path fill-rule="evenodd" clip-rule="evenodd" d="M38.3205 21.0554C36.8166 19.8165 34.4931 20.1617 33.1248 21.8258C31.7627 23.4837 31.8737 25.8381 33.3775 27.0708C34.8814 28.3096 37.2049 27.9645 38.5732 26.3004C39.9353 24.6363 39.8243 22.288 38.3205 21.0554V21.0554Z" fill="#F0F0F0"/>
<path fill-rule="evenodd" clip-rule="evenodd" d="M41.735 16.8951C43.0909 18.0107 43.2881 20.0138 42.1726 21.3697C41.057 22.7256 39.0539 22.9229 37.698 21.8073C36.3421 20.6917 36.1448 18.6887 37.2604 17.3327C38.376 15.9768 40.379 15.7796 41.735 16.8951V16.8951Z" fill="#FFCE1D"/>
<path fill-rule="evenodd" clip-rule="evenodd" d="M22.8012 18.7442C22.9923 20.6795 24.8783 22.0848 27.0169 21.8752C29.1556 21.6657 30.7396 19.9276 30.5485 17.9861C30.3575 16.0509 28.4715 14.6456 26.3328 14.8552C24.1941 15.0647 22.6102 16.8028 22.8012 18.7442V18.7442Z" fill="#E3E3E3"/>
<path fill-rule="evenodd" clip-rule="evenodd" d="M20.3914 16.7658C22.3267 16.5747 23.7319 14.6887 23.5223 12.5501C23.3128 10.4052 21.5686 8.82742 19.6333 9.01848C17.698 9.20954 16.2928 11.0955 16.5023 13.2342C16.7119 15.3729 18.4499 16.9568 20.3914 16.7658V16.7658Z" fill="#E3E3E3"/>
<path fill-rule="evenodd" clip-rule="evenodd" d="M17.7658 19.9645C17.5747 18.0293 15.6888 16.624 13.5501 16.8336C11.4052 17.0431 9.82743 18.7812 10.0185 20.7226C10.2096 22.6579 12.0955 24.0632 14.2342 23.8536C16.3729 23.644 17.9569 21.906 17.7658 19.9645V19.9645Z" fill="#E3E3E3"/>
<path fill-rule="evenodd" clip-rule="evenodd" d="M20.1695 21.9368C18.2342 22.1278 16.829 24.0138 17.0385 26.1525C17.2481 28.2912 18.9861 29.8751 20.9276 29.6841C22.8629 29.493 24.2681 27.607 24.0586 25.4683C23.849 23.3297 22.1048 21.7457 20.1695 21.9368V21.9368Z" fill="#E3E3E3"/>
<path fill-rule="evenodd" clip-rule="evenodd" d="M21.9815 20.7473C20.7488 22.2511 21.0878 24.5809 22.7519 25.943C24.416 27.3051 26.7643 27.1941 27.9969 25.6903C29.2357 24.1864 28.8906 21.8628 27.2265 20.4946C25.5624 19.1325 23.2142 19.2434 21.9815 20.7473V20.7473Z" fill="#F0F0F0"/>
<path fill-rule="evenodd" clip-rule="evenodd" d="M18.5794 17.9553C19.812 16.4514 19.473 14.1278 17.8089 12.7596C16.1448 11.3975 13.7966 11.5084 12.564 13.0123C11.3251 14.5161 11.6703 16.8459 13.3344 18.208C14.9923 19.5701 17.3467 19.4591 18.5794 17.9553Z" fill="#F0F0F0"/>
<path fill-rule="evenodd" clip-rule="evenodd" d="M21.6795 17.6472C23.1834 18.886 25.5069 18.5409 26.8752 16.8768C28.2373 15.2127 28.1263 12.8644 26.6225 11.6318C25.1186 10.3929 22.7889 10.7381 21.4268 12.4022C20.0647 14.0663 20.1757 16.4145 21.6795 17.6472Z" fill="#F0F0F0"/>
<path fill-rule="evenodd" clip-rule="evenodd" d="M18.8814 21.0555C17.3775 19.8167 15.0478 20.1618 13.6857 21.8259C12.3236 23.4838 12.4345 25.8382 13.9384 27.0709C15.4422 28.3097 17.7658 27.9646 19.1341 26.3005C20.4962 24.6364 20.3852 22.2881 18.8814 21.0555V21.0555Z" fill="#F0F0F0"/>
<path fill-rule="evenodd" clip-rule="evenodd" d="M22.302 16.8953C23.6579 18.0108 23.8552 20.0139 22.7396 21.3698C21.624 22.7258 19.621 22.923 18.265 21.8074C16.9091 20.6919 16.7119 18.6888 17.8274 17.3329C18.943 15.9769 20.9461 15.7797 22.302 16.8953V16.8953Z" fill="#FFCE1D"/>
<path fill-rule="evenodd" clip-rule="evenodd" d="M28.8721 40.0323L31.7257 39.8721L37.9754 48.4391L34.6841 49.5916L28.8721 40.0323Z" fill="#1C1C1C"/>
<path fill-rule="evenodd" clip-rule="evenodd" d="M31.1279 39.8721H27.9538L21.6179 48.6795L25.2296 49.6718L31.1279 39.8721Z" fill="#292929"/>
<path fill-rule="evenodd" clip-rule="evenodd" d="M28.1387 36.889L23.5716 35.0709C22.6533 34.7072 21.772 35.8782 21.772 36.8705V42.1957C21.772 43.1818 22.6533 44.359 23.5716 43.9953L28.1387 42.1772C29.057 41.8135 29.9384 41.3698 29.9384 40.3775V38.6887C29.9384 37.7026 29.057 37.2588 28.1387 36.889V36.889Z" fill="#3B3B3B"/>
<path fill-rule="evenodd" clip-rule="evenodd" d="M31.8552 36.889L36.4222 35.0709C37.3405 34.7072 38.2219 35.8782 38.2219 36.8705V42.1957C38.2219 43.1818 37.3405 44.359 36.4222 43.9953L31.8552 42.1772C30.9368 41.8135 30.0555 41.3698 30.0555 40.3775V38.6887C30.0555 37.7026 30.9368 37.2588 31.8552 36.889V36.889Z" fill="#292929"/>
<path d="M28.0401 36.2234H31.9538C32.6256 36.2234 33.1741 36.7719 33.1741 37.4437V41.3574C33.1741 42.0292 32.6256 42.5778 31.9538 42.5778H28.0401C27.3683 42.5778 26.8197 42.0292 26.8197 41.3574V37.4437C26.8197 36.7719 27.3683 36.2234 28.0401 36.2234V36.2234Z" fill="#4F4F4F"/>
<path fill-rule="evenodd" clip-rule="evenodd" d="M30 36.2234H31.9599C32.6317 36.2234 33.1803 36.7719 33.1803 37.4437V41.3574C33.1803 42.0292 32.6317 42.5778 31.9599 42.5778H30V36.2234V36.2234Z" fill="#3B3B3B"/>
</g>
<defs>
<clipPath id="clip0_2_238">
<rect width="40" height="41.9168" fill="white" transform="translate(10 9)"/>
</clipPath>
</defs>
</svg>
