<svg width="60" height="60" viewBox="0 0 60 60" fill="none" xmlns="http://www.w3.org/2000/svg">
<g clip-path="url(#clip0_2_238)">
<path d="M39.9617 47.9439C45.4619 42.4305 45.4619 33.4916 39.9617 27.9782C34.4614 22.4648 25.5438 22.4648 20.0435 27.9782C14.5432 33.4916 14.5432 42.4305 20.0435 47.9439C25.5437 53.4573 34.4614 53.4573 39.9617 47.9439Z" stroke="#B2C4CF" stroke-width="2.25" stroke-miterlimit="10"/>
<path d="M41.6045 12.7178L33.4603 26.3239H26.5397L18.3955 12.7178H41.6045Z" fill="#A8DBEE"/>
<path d="M30 6L26.1264 12.7178L22.2609 6H30Z" fill="#A8DBEE"/>
<path d="M37.7391 6L33.8655 12.7178L30 6H37.7391Z" fill="#A8DBEE"/>
<path d="M33.8655 12.7178L37.7391 6L41.6045 12.7178H33.8655Z" fill="#C2E6F3"/>
<path d="M18.3955 12.7178L22.2609 6L26.1264 12.7178H18.3955Z" fill="#C2E6F3"/>
<path d="M26.1264 12.7178L30 6L33.8655 12.7178H26.1264Z" fill="#C2E6F3"/>
<path d="M33.8655 12.7178L30 26.3239L26.1264 12.7178H33.8655Z" fill="#C2E6F3"/>
</g>
<defs>
<clipPath id="clip0_2_238">
<rect width="30" height="47" fill="white" transform="translate(15 6)"/>
</clipPath>
</defs>
</svg>
