<svg width="60" height="60" viewBox="0 0 60 60" fill="none" xmlns="http://www.w3.org/2000/svg">
<g clip-path="url(#clip0_2_184)">
<path d="M38.9822 46.2439V36.2213C38.9822 36.2213 38.9646 36.1966 38.954 36.186C37.8427 35.3005 37.37 33.9882 36.5692 32.8875C36.4669 32.7464 36.3822 32.5876 36.3116 32.4289C35.8707 31.4305 35.4297 30.4286 35.0063 29.4232C34.7947 28.9257 34.4313 28.5906 33.9692 28.3577C33.0625 27.9097 32.5968 27.1336 32.2687 26.2622C31.6161 26.0505 30.9634 25.8353 30.3284 25.6272C30.3778 25.3203 30.4166 25.0522 30.4625 24.7876C30.4907 24.6465 30.526 24.5124 30.5613 24.3713C30.6989 24.4842 30.84 24.59 30.967 24.7135C31.0975 24.837 31.2139 24.9781 31.3339 25.1086C31.3656 25.0769 31.4009 25.0451 31.4326 25.0134C31.3127 24.6747 31.0058 24.202 31.1116 24.0256C31.3833 23.5599 31.2915 23.1542 30.9176 22.7167C31.6231 22.2969 32.2934 21.9512 32.8932 21.5102C33.2213 21.2703 33.5458 21.2562 33.9656 21.2527C34.5548 21.2456 35.1157 21.0234 35.6343 20.7941C35.8424 20.7023 35.8848 20.339 36.04 20.1308C36.1282 20.0144 36.2799 19.9298 36.4281 19.8945C37.123 19.7357 37.7404 19.5135 37.9133 18.6985C37.9591 18.4869 38.2026 18.3069 38.4142 18.2082C39.1127 17.8836 39.8395 17.6084 40.545 17.2874C40.8167 17.1604 40.9366 17.0052 40.799 16.5818C40.6473 16.1091 40.6015 15.5129 40.7638 15.1072C40.9543 14.6098 40.8026 14.3487 40.4674 13.9571C40.2558 13.7102 40.0335 13.2586 40.1076 13.0328C40.2558 12.5566 40.5909 12.1615 40.859 11.7381C41.0178 11.4876 41.1871 11.2407 41.3706 11.0114C41.6916 10.6092 41.9456 10.0024 42.383 9.87895C42.9616 9.7202 43.138 9.49794 42.9581 8.89116C43.3708 9.07108 43.7201 9.22277 44.1258 9.39917C44.1082 9.21572 44.1328 9.08872 44.0835 9.01816C43.6248 8.42548 43.1556 7.83634 42.6829 7.24366C42.4889 7.00024 42.1678 6.77446 42.1043 6.51693C42.002 6.10417 41.8715 5.76902 41.6246 5.38449C41.3776 4.99643 41.1801 4.95762 40.8837 5.02818C40.5133 5.11637 39.9735 4.98232 39.9806 5.61733C39.9876 6.19236 39.9806 6.77093 39.9488 7.33891C39.9206 7.84692 39.3597 8.17853 38.954 7.95275C38.2731 7.5788 38.1179 7.61761 37.8604 8.2244C37.7863 8.39373 37.7157 8.5666 37.6311 8.7324C37.0137 9.93892 35.1157 10.1471 33.8986 9.12752C33.507 8.79943 33.1084 8.6936 32.6356 8.72888C32.9249 9.73078 32.7591 10.7256 33.4541 11.6676C33.5987 11.8686 33.7046 12.3625 33.6693 12.3731C33.2671 12.4966 33.0943 13.0646 32.4734 12.7894C31.8066 12.4931 31.1222 12.232 30.4378 12.0309C29.2666 11.6817 28.24 10.7292 27.8413 9.50853C27.6931 9.59672 27.5661 9.68845 27.4215 9.75195C27.2769 9.81898 27.1216 9.90012 26.9558 9.90365C26.2679 9.92481 25.9892 10.1576 25.9998 10.8491C26.0068 11.2901 25.8798 11.5935 25.5129 11.7663C25.4106 11.8122 25.3224 11.8933 25.2519 11.978C24.7721 12.5566 24.3311 13.1704 23.8055 13.7031C23.6185 13.8901 23.2375 13.8936 22.9306 13.9395C22.6236 13.9889 22.2744 13.9324 21.9922 14.0277C21.6958 14.1265 21.4383 14.3276 21.2019 14.5286C20.8738 14.8073 20.514 14.9343 20.0307 14.9167C19.752 14.9061 19.4098 15.0578 19.2581 15.2695C18.9512 15.7069 18.5278 15.9115 18.0586 16.1267C17.2472 16.4972 16.4676 16.9381 15.702 17.4038C15.5398 17.5026 15.3916 17.7672 15.4163 17.9577C15.4692 18.4198 15.314 18.7409 15.0564 19.0584C14.9682 19.1642 15.0423 19.4076 15.0388 19.5876C15.2152 19.5629 15.4551 19.6017 15.5609 19.5029C15.949 19.143 16.5205 19.2524 16.7745 19.8027C16.9721 20.2226 17.1167 20.6671 17.286 21.1116C17.8434 21.0057 17.6423 20.466 17.6106 19.9474C18.0868 20.2508 18.489 20.5436 18.9194 20.78C19.2228 20.9458 19.5615 21.0375 19.886 21.1645C20.1048 21.2986 20.3517 21.7148 20.5422 21.7219C20.8174 21.7325 21.0538 21.4432 21.3078 21.2844C21.3289 21.4679 21.2972 21.6125 21.209 21.7007C20.701 22.1981 20.6798 22.2722 21.0996 22.9743C21.2972 23.3024 21.2513 23.4541 20.9515 23.5952C20.7257 23.701 20.5211 23.895 20.4011 24.1102C20.1753 24.5195 19.9954 24.964 19.8402 25.4155C19.7308 25.7295 19.3145 26.1423 20.1154 26.3504C20.14 26.3575 20.1683 26.4386 20.1824 26.488C20.2953 26.9043 20.5352 26.8267 20.8139 26.7879C21.0573 26.7561 21.3289 26.8055 21.5865 26.8196C21.2513 27.4687 20.701 27.1124 20.2776 26.9607C19.8613 26.809 19.6744 26.9078 19.4874 27.1689C19.4168 27.2676 19.3357 27.3558 19.2263 27.4828C19.1699 27.183 19.124 26.9537 19.0782 26.7208C19.0182 26.7208 18.9582 26.7279 18.8983 26.7279C18.8912 26.8267 18.8736 26.9254 18.8771 27.0242C18.9124 28.1778 18.4714 28.58 17.3248 28.5377C17.1873 28.5341 17.0673 28.707 16.9438 28.7987C17.0638 28.8975 17.1731 29.0351 17.3037 29.081C17.4871 29.148 17.6882 29.1445 17.8787 29.1727C17.8858 29.2326 17.8928 29.2856 17.9034 29.3455C17.6494 29.4584 17.4024 29.5748 17.152 29.6913C17.5048 30.1887 17.8399 30.2557 18.048 29.9417C18.676 30.0335 19.2052 30.1781 19.7061 30.1781C20.133 30.1781 20.2459 30.3474 20.3129 30.7355C19.7414 30.351 19.7202 30.3616 19.5721 31.0283C19.4874 30.993 19.4027 30.9295 19.3216 30.9225C19.1699 30.9154 19.0182 30.9401 18.87 30.9542C18.9688 31.0953 19.0499 31.3105 19.177 31.3599C19.4662 31.4799 19.8296 31.7797 20.0307 31.3247C20.0483 31.2823 20.2212 31.3282 20.3059 31.3352C20.3341 31.5681 20.3552 31.7621 20.3799 31.9561C20.5669 31.8962 20.7539 31.8362 20.9444 31.7762C20.9903 31.7586 21.0396 31.7092 21.082 31.7198C21.2019 31.7515 21.3254 31.808 21.4489 31.8574C21.3818 31.9244 21.3254 32.0161 21.2443 32.062C20.9726 32.2137 20.6833 32.3548 20.4046 32.4994C20.4505 32.5876 20.4964 32.6758 20.5422 32.7605C20.9021 32.6476 21.2654 32.5347 21.6817 32.4042C21.7135 32.4253 21.8475 32.5171 22.0592 32.6617C22.098 32.3971 22.1227 32.2031 22.1544 32.002C22.292 31.9879 22.4331 31.9738 22.6095 31.9597C22.5072 31.4764 21.7029 31.4905 21.8546 30.9119C22.5601 30.8978 22.7471 31.0389 22.987 31.6457C23.0787 31.8821 23.2163 32.1925 23.3998 32.2913C23.5797 32.3936 23.8513 32.2666 24.1053 32.2419C24.1971 32.4783 24.3064 32.764 24.4158 33.0498C24.4616 33.0498 24.5005 33.0604 24.5463 33.0639C24.6169 32.8804 24.6874 32.697 24.7862 32.45C24.9062 32.6793 24.9873 32.824 25.1108 33.0533C25.2942 32.7146 25.4389 32.45 25.6258 32.1043C25.8269 32.323 25.9645 32.4747 26.148 32.6758C25.6294 32.8487 25.5024 33.1415 25.6752 33.6283C25.8516 34.1328 26.155 34.1822 26.5819 34.2069C26.9347 34.2281 27.0722 34.5703 27.0934 35.0183C26.7935 34.9089 26.5431 34.8207 26.2926 34.7255C26.0139 34.6232 25.6823 34.602 25.8234 34.9548C25.9151 35.1841 26.3208 35.3993 26.6101 35.5051C26.8394 35.5898 27.104 35.5016 27.3545 35.4875C27.3333 35.5475 27.3157 35.6074 27.2945 35.6709C27.552 35.9708 27.8096 36.2672 28.0495 36.5494C27.1463 36.4012 27.0264 36.4224 27.1322 36.7222C27.2028 36.9304 27.4603 37.1068 27.6085 37.2726C27.806 37.703 28.0071 38.1369 28.1729 38.4967C28.4446 38.6449 28.6598 38.7613 28.9737 38.9342C28.5469 39.0153 28.2788 39.0683 28.0071 39.1247C27.6684 38.7966 27.8166 37.6924 26.9311 38.2815C26.783 38.0558 26.6595 37.8723 26.4443 37.5513C26.4055 37.9182 26.3808 38.1193 26.3596 38.3204C26.3173 38.3168 26.275 38.3133 26.2291 38.3098C26.1585 38.1545 26.088 38.0028 26.0209 37.8512C25.46 37.89 26.2079 38.846 25.4741 38.7649C25.3965 38.6273 25.3224 38.4826 25.2448 38.3345C24.8144 38.4826 24.437 38.6908 24.5287 39.1988C24.564 39.4034 24.9097 39.6045 25.1143 39.8126C25.139 39.7879 25.1637 39.7632 25.1884 39.735C25.2554 39.9537 25.326 40.1689 25.4071 40.4159C25.6929 40.0596 25.9257 39.7668 26.2079 39.4175C26.3702 39.735 26.5783 39.9855 26.5889 40.2042C26.596 40.3912 26.3737 40.5429 26.2679 40.684C26.4266 40.8216 26.5889 40.9698 26.7547 41.1144C26.6242 41.259 26.4937 41.4072 26.349 41.5695C26.9558 42.1622 26.5642 42.6314 26.4655 42.9101C26.8394 43.5133 27.1252 43.9367 27.3651 44.3776C27.4674 44.5681 27.4779 44.7939 27.5732 45.1679C27.1887 45.5207 26.6807 45.9828 26.1726 46.445C26.3349 46.6566 26.4443 46.7977 26.5572 46.9494C26.5043 47.027 26.4831 47.1223 26.4161 47.1576C25.8199 47.4821 25.9045 48.2159 25.7634 48.7874C25.6893 49.0767 25.841 49.6765 26.0668 49.8423C26.6313 50.2515 26.342 50.4773 26.2044 50.8406C25.7705 50.2868 25.6541 50.7383 25.4706 50.9147C25.2413 51.1299 25.3471 51.3698 25.58 51.5638C25.707 51.4086 25.8199 51.2746 25.9257 51.1405C25.968 51.1723 26.0104 51.204 26.0527 51.2322C26.0703 51.4051 26.088 51.578 26.1127 51.772C26.3914 51.7226 26.6418 51.6803 26.8923 51.6379C26.9241 51.7014 26.9594 51.7685 26.9911 51.832C26.6595 52.0225 26.3314 52.2165 26.0315 52.3894C26.1621 52.6504 26.2608 52.8515 26.3631 53.0526C26.2961 53.0843 26.2361 53.1161 26.1691 53.1443C25.9081 52.7668 25.6505 52.3894 25.393 52.0154C25.0967 52.5516 25.3401 53.1655 26.0315 53.483C26.402 53.6488 26.5713 53.8181 26.4513 54.185C26.4196 54.2767 26.3984 54.4179 26.4513 54.499C26.5642 54.6824 26.7089 54.9082 26.8712 54.9788C26.9805 55.0282 27.1992 54.8694 27.2804 54.7389C27.5026 54.3826 27.6755 53.991 27.8695 53.6135C27.9154 53.6453 27.9648 53.6735 28.0106 53.7017C28.0389 53.8746 28.0671 54.0474 28.0988 54.2168C28.5469 54.3544 28.9455 54.3473 29.0126 53.9063C29.1113 53.2819 29.6088 53.1231 30.0321 52.8691C30.1097 52.8233 30.2967 52.9326 30.4307 52.9714C30.3814 53.0879 30.3531 53.2325 30.272 53.3172C30.0885 53.5006 29.8804 53.6558 29.644 53.8534C29.8945 54.0051 30.0286 54.0862 30.2614 54.2274C29.8804 54.2909 29.6052 54.3367 29.3301 54.3826C29.7075 54.6366 30.0603 54.9082 30.3602 54.566C30.4025 54.5202 30.526 54.5096 30.5965 54.5413C31.3444 54.8941 31.1786 54.0157 31.5596 53.8675C31.5985 53.8499 31.4679 53.4054 31.3374 53.1937C30.9211 52.5058 30.974 52.3611 31.7607 52.3541C31.8736 52.8092 31.983 53.2678 32.1206 53.8252C32.3464 53.5853 32.4698 53.4583 32.6639 53.2502C32.7238 53.543 32.745 53.7052 32.7909 53.864C32.8367 54.0298 32.8755 54.2097 32.9708 54.3508C33.0166 54.4143 33.2918 54.4355 33.3024 54.4002C33.3483 54.2274 33.4259 53.991 33.3412 53.8499C33.0519 53.3842 33.1225 52.9644 33.1331 52.5269C33.1331 52.4211 33.0801 52.2976 33.0519 52.1742C32.9743 52.1847 32.9426 52.1918 32.9073 52.1953C32.6815 52.2059 32.5122 52.6328 32.2617 52.2094C32.2052 52.1107 32.4945 51.8284 32.6497 51.652C32.7062 51.5921 32.8332 51.578 32.932 51.5815C33.4153 51.6062 33.8951 51.645 34.4172 51.6803C34.4701 52.0683 34.7735 52.2271 35.1792 52.3082C35.532 52.3752 35.8848 52.5058 36.3116 52.6292C36.4351 52.2377 36.5903 51.7579 36.7491 51.2569C36.9572 51.4368 37.1618 51.6203 37.4723 51.8955C37.4229 51.5956 37.3982 51.4474 37.3629 51.2322C37.938 51.3769 38.573 52.1071 38.9928 51.2675C39.0245 51.3345 39.0563 51.4016 39.088 51.4721C39.3138 51.4862 39.5467 51.525 39.7654 51.5074C40.4886 51.4368 40.3722 50.4984 40.979 50.2938C41.3035 49.4754 41.4693 48.604 41.5858 47.715H40.478C39.6596 47.715 38.9963 47.0517 38.9963 46.2333L38.9822 46.2439Z" fill="#2FB06C"/>
</g>
<defs>
<clipPath id="clip0_2_184">
<rect width="29.1187" height="50" fill="white" transform="translate(15 5)"/>
</clipPath>
</defs>
</svg>
