<svg width="60" height="60" viewBox="0 0 60 60" fill="none" xmlns="http://www.w3.org/2000/svg">
<g clip-path="url(#clip0_50_2378)">
<path d="M49.6311 39.6298C49.1158 43.3347 46.4578 48.4825 43.1164 51.352C44.0928 50.24 45.3621 48.5368 45.8828 46.8335C47.8302 40.5302 44.288 34.8725 41.8199 33.1638C41.8199 35.6428 38.8419 46.3778 36.2219 43.3401C34.9851 41.9677 34.5728 40.042 34.5728 38.3659C34.5728 35.2088 39.4006 27.0993 34.2691 20.8774C33.5205 23.7415 31.7847 23.9314 28.4595 27.6417C26.6314 29.6867 25.7581 33.3808 25.7147 35.811C25.6713 38.4527 25.5791 40.3024 24.8739 40.4923C21.2395 41.4795 23.2303 32.8926 21.668 27.5115C19.5254 28.9056 17.5129 30.8476 16.8186 31.9542C12.7122 38.5829 14.2528 48.0268 19.9919 51.9542C12.9021 49.5728 10 41.8267 10 36.272C10 31.8511 10.8679 29.0955 13.5313 25.7323C17.3935 20.834 21.2666 18.7347 19.9213 11.9542C25.0746 15.7621 26.1866 23.7632 23.2737 29.1714C30.5316 22.6621 20.8706 9.75726 36.5311 5C31.7684 13.9666 43.7293 19.0548 38.5978 34.661C45.08 25.0705 37.0627 19.2067 43.0079 15.3499C42.3895 18.6425 45.3133 20.8828 47.9713 26.1446C50.3146 30.7933 50.2495 35.1383 49.6311 39.6352V39.6298Z" fill="#FFB300"/>
<path d="M45.8828 46.8334C45.3621 48.5367 44.0928 50.24 43.1164 51.352C43.214 50.9126 44.288 48.2004 44.4237 47.6959C45.4001 43.9639 43.8432 40.3566 41.9067 38.2248C41.9067 40.7038 37.9034 46.9148 35.2834 43.8771C34.0467 42.5047 33.2167 40.0854 32.9401 38.4364C32.5224 35.5397 33.0757 31.0591 33.4934 28.2926C30.4719 29.6379 28.1937 31.314 27.2172 35.5614C26.3602 39.3368 27.8573 41.0401 26.2571 42.0925C23.5123 43.8825 19.4765 39.646 20.735 35.2088C15.9235 40.1451 16.173 46.3181 19.9973 51.9541C14.2582 48.0268 12.7177 38.5828 16.824 31.9541C17.5183 30.8475 19.5362 28.911 21.6734 27.5115C23.2357 32.8926 21.2395 41.4795 24.8793 40.4922C25.5899 40.3078 25.6767 38.4526 25.7201 35.8109C25.7635 33.3862 26.6368 29.6867 28.4649 27.6417C31.7901 23.9314 33.5259 23.7469 34.2745 20.8774C39.4114 27.1047 34.5783 35.2088 34.5783 38.3659C34.5783 40.0366 34.9905 41.9623 36.2273 43.3401C38.8473 46.3778 41.8253 35.6428 41.8253 33.1638C44.288 34.8725 47.8356 40.5302 45.8883 46.8334H45.8828Z" fill="#FFD228"/>
<path d="M44.4236 47.6905C44.288 48.2004 43.214 50.9072 43.1164 51.3466C42.1508 51.8186 41.2069 52.22 40.2794 52.5563C41.1093 50.712 40.8652 48.1082 39.8074 46.725C39.3084 49.524 35.3594 50.5492 33.3957 48.2764C32.1101 46.7846 33.0974 41.805 30.9167 40.7526C28.6981 44.8861 23.8487 45.1356 22.6065 48.3089C22.1237 49.5403 22.0911 49.8929 22.1345 51.2653C22.1562 51.8782 22.2539 52.2905 22.3624 52.6593C21.4836 52.4044 20.6916 52.1494 19.981 51.9433C16.1622 46.3073 15.9072 40.1343 20.7187 35.198C19.4657 39.6298 23.4961 43.8717 26.2408 42.0816C27.8465 41.0293 26.3439 39.326 27.201 35.5506C28.1774 31.3032 30.4557 29.6216 33.4771 28.2818C33.0594 31.0537 32.5061 35.5289 32.9238 38.4255C33.2004 40.0746 34.0304 42.4939 35.2672 43.8663C37.8872 46.904 41.8904 40.693 41.8904 38.214C43.8215 40.3512 45.3838 43.9531 44.4074 47.6851L44.4236 47.6905Z" fill="#FFE128"/>
<path d="M40.2794 52.5617C40.0841 52.6376 39.8834 52.7027 39.6881 52.7732C39.4928 52.8383 39.303 52.898 39.1077 52.9577C38.5218 53.1421 37.9523 53.2994 37.3881 53.435C37.1928 53.4784 37.0084 53.5272 36.8186 53.5598C36.4822 53.6357 36.1405 53.7008 35.8096 53.7605C35.5926 53.7985 35.3756 53.8256 35.1587 53.8581C34.9797 53.8853 34.8007 53.9124 34.6216 53.9341C34.1714 53.9937 33.732 54.0371 33.2927 54.0697C33.1353 54.0751 32.978 54.086 32.8207 54.0914C32.696 54.0968 32.5658 54.1077 32.441 54.1077C32.2946 54.1131 32.1481 54.1239 32.0071 54.1239C31.5134 54.1402 31.0361 54.1294 30.5587 54.1185C30.32 54.1131 30.0759 54.0968 29.8427 54.0805C29.2894 54.0426 28.747 53.9937 28.2154 53.9341C28.0363 53.9124 27.8573 53.8907 27.6783 53.8581C26.8809 53.7442 26.1161 53.6032 25.3838 53.4459C25.1994 53.4079 25.0203 53.3699 24.8359 53.3265C24.4887 53.2452 24.1416 53.153 23.8053 53.0716C23.6317 53.0282 23.4689 52.9848 23.3062 52.936C22.9753 52.8438 22.6607 52.757 22.3569 52.6648C22.2484 52.2905 22.1508 51.8782 22.1291 51.2707C22.0857 49.8983 22.1128 49.5457 22.601 48.3143C23.8378 45.141 28.6927 44.8969 30.9113 40.7581C33.0919 41.8104 32.1047 46.7901 33.3903 48.2818C35.3539 50.5492 39.303 49.5294 39.802 46.7304C40.8544 48.1136 41.0985 50.7174 40.2739 52.5617H40.2794Z" fill="white"/>
</g>
<defs>
<clipPath id="clip0_50_2378">
<rect width="40" height="49.1294" fill="white" transform="translate(10 5)"/>
</clipPath>
</defs>
</svg>
