<svg width="268" height="218" viewBox="0 0 268 218" fill="none" xmlns="http://www.w3.org/2000/svg">
<g clip-path="url(#clip0_33_2278)">
<path d="M183.32 39.0098H181.67V95.7098H183.32V39.0098Z" fill="#C8C9C7"/>
<path d="M87.1002 39.1602H85.4502V95.8602H87.1002V39.1602Z" fill="#C8C9C7"/>
<path d="M220.81 63.9602H217.26C217.26 55.0002 213.72 45.0202 208.64 45.0202C203.56 45.0202 200.02 55.0002 200.02 63.9602H196.47C196.47 51.3502 201.82 41.4702 208.64 41.4702C215.46 41.4702 220.82 51.3502 220.82 63.9602H220.81Z" fill="#2FB06C"/>
<path d="M267.56 63.9602H264.01C264.01 48.8902 258.22 38.7702 252.81 38.7702C247.4 38.7702 241.61 48.8902 241.61 63.9602H238.06C238.06 47.8402 244.54 35.2202 252.81 35.2202C261.08 35.2202 267.56 47.8502 267.56 63.9602Z" fill="#2FB06C"/>
<path d="M241.61 63.9604H238.06C238.06 56.6604 234.11 50.4904 229.44 50.4904C224.77 50.4904 220.82 56.6604 220.82 63.9604H217.27C217.27 54.5704 222.73 46.9404 229.45 46.9404C236.17 46.9404 241.62 54.5804 241.62 63.9604H241.61Z" fill="#2FB06C"/>
<path d="M260.46 70.3301H256.91C256.91 73.8501 253.72 76.7201 249.79 76.7201C245.86 76.7201 242.67 73.8501 242.67 70.3301H239.12C239.12 73.8501 235.93 76.7201 232 76.7201C228.07 76.7201 224.89 73.8501 224.89 70.3301H221.34C221.34 73.8501 218.15 76.7201 214.22 76.7201C210.29 76.7201 207.1 73.8501 207.1 70.3301H203.55C203.55 73.8501 200.36 76.7201 196.43 76.7201V80.2701C200.14 80.2701 203.41 78.4901 205.32 75.8101C207.23 78.4901 210.5 80.2701 214.21 80.2701C217.92 80.2701 221.19 78.4901 223.1 75.8101C225.01 78.4901 228.28 80.2701 231.99 80.2701C235.7 80.2701 238.97 78.4901 240.88 75.8101C242.79 78.4901 246.06 80.2701 249.77 80.2701C253.48 80.2701 256.75 78.4901 258.66 75.8101C260.57 78.4901 263.84 80.2701 267.55 80.2701V76.7201C263.63 76.7201 260.43 73.8501 260.43 70.3301H260.46Z" fill="#45ACD8"/>
<path d="M260.46 84.9302H256.91C256.91 88.4502 253.72 91.3202 249.79 91.3202C245.86 91.3202 242.67 88.4502 242.67 84.9302H239.12C239.12 88.4502 235.93 91.3202 232 91.3202C228.07 91.3202 224.89 88.4502 224.89 84.9302H221.34C221.34 88.4502 218.15 91.3202 214.22 91.3202C210.29 91.3202 207.1 88.4502 207.1 84.9302H203.55C203.55 88.4502 200.36 91.3202 196.43 91.3202V94.8702C200.14 94.8702 203.41 93.0902 205.32 90.4102C207.23 93.0902 210.5 94.8702 214.21 94.8702C217.92 94.8702 221.19 93.0902 223.1 90.4102C225.01 93.0902 228.28 94.8702 231.99 94.8702C235.7 94.8702 238.97 93.0902 240.88 90.4102C242.79 93.0902 246.06 94.8702 249.77 94.8702C253.48 94.8702 256.75 93.0902 258.66 90.4102C260.57 93.0902 263.84 94.8702 267.55 94.8702V91.3202C263.63 91.3202 260.43 88.4502 260.43 84.9302H260.46Z" fill="#45ACD8"/>
<path d="M202.689 19.2402H196.449V22.7902H202.689V19.2402Z" fill="#F5D020"/>
<path d="M214.769 19.2402H208.529V22.7902H214.769V19.2402Z" fill="#F5D020"/>
<path d="M207.389 11.8501H203.839V18.0901H207.389V11.8501Z" fill="#F5D020"/>
<path d="M207.389 23.9302H203.839V30.1702H207.389V23.9302Z" fill="#F5D020"/>
<path d="M249.889 7.39014H243.649V10.9401H249.889V7.39014Z" fill="#F5D020"/>
<path d="M261.969 7.39014H255.729V10.9401H261.969V7.39014Z" fill="#F5D020"/>
<path d="M254.589 0H251.039V6.24H254.589V0Z" fill="#F5D020"/>
<path d="M254.589 12.0801H251.039V18.3201H254.589V12.0801Z" fill="#F5D020"/>
<path d="M220.724 26.7041L218.214 29.2144L222.626 33.6267L225.136 31.1165L220.724 26.7041Z" fill="#F5D020"/>
<path d="M229.272 35.2539L226.762 37.7642L231.174 42.1765L233.684 39.6663L229.272 35.2539Z" fill="#F5D020"/>
<path d="M231.175 26.7322L226.763 31.1445L229.273 33.6548L233.685 29.2424L231.175 26.7322Z" fill="#F5D020"/>
<path d="M222.635 35.2698L218.223 39.6821L220.733 42.1924L225.145 37.78L222.635 35.2698Z" fill="#F5D020"/>
<path d="M149.83 74.1298H146.28V56.2998H162.23L157.99 62.2998L162.23 68.2998H149.83V74.1298ZM149.83 64.7498H155.37L153.64 62.2998L155.37 59.8498H149.83V64.7498Z" fill="#B5A899"/>
<path d="M157.74 83.1701L156.3 75.9101H142.47L141.06 83.0801L137.57 82.3901L139.56 72.3501H159.22L161.22 82.4801L157.74 83.1701Z" fill="#B5A899"/>
<path d="M119.42 71.3101H115.87V83.2301H119.42V71.3101Z" fill="#B5A899"/>
<path d="M133.65 72.5498H101.63V70.7698C101.63 61.9398 108.81 54.7598 117.64 54.7598C126.47 54.7598 133.65 61.9398 133.65 70.7698V72.5498ZM105.31 68.9998H129.97C129.11 62.9698 123.91 58.3198 117.64 58.3198C111.37 58.3198 106.17 62.9698 105.31 68.9998Z" fill="#B5A899"/>
<path d="M112.33 70.7802H108.78C108.78 58.9602 116.55 55.1102 116.88 54.9502L118.42 58.1502L117.65 56.5502L118.43 58.1402C118.18 58.2602 112.34 61.2902 112.34 70.7802H112.33Z" fill="#B5A899"/>
<path d="M126.51 70.78H122.96C122.96 61.29 117.12 58.27 116.87 58.14L115.89 57.65V52.21H119.43V55.54C121.61 57.01 126.52 61.38 126.52 70.77L126.51 70.78Z" fill="#B5A899"/>
<path d="M159.532 16.3499L155.12 20.7622L157.63 23.2724L162.043 18.8601L159.532 16.3499Z" fill="#F5D020"/>
<path d="M151.002 24.8977L146.59 29.3101L149.1 31.8203L153.512 27.4079L151.002 24.8977Z" fill="#F5D020"/>
<path d="M149.101 16.3418L146.591 18.8521L151.003 23.2644L153.513 20.7542L149.101 16.3418Z" fill="#F5D020"/>
<path d="M157.646 24.899L155.136 27.4092L159.548 31.8215L162.058 29.3113L157.646 24.899Z" fill="#F5D020"/>
<path d="M124.38 16.6401H120.83V22.8801H124.38V16.6401Z" fill="#F5D020"/>
<path d="M124.38 4.56006H120.83V10.8001H124.38V4.56006Z" fill="#F5D020"/>
<path d="M131.77 11.9502H125.53V15.5002H131.77V11.9502Z" fill="#F5D020"/>
<path d="M119.69 11.9502H113.45V15.5002H119.69V11.9502Z" fill="#F5D020"/>
<path d="M169.04 48.7999H165.49C165.49 46.0999 163.3 43.9099 160.6 43.9099C157.9 43.9099 155.71 46.0999 155.71 48.7999H152.16C152.16 44.1499 155.95 40.3599 160.6 40.3599C165.25 40.3599 169.04 44.1499 169.04 48.7999Z" fill="#1A98CF"/>
<path d="M155.7 48.7999H152.15C152.15 46.0999 149.96 43.9099 147.26 43.9099C144.56 43.9099 142.37 46.0999 142.37 48.7999H138.82C138.82 44.1499 142.61 40.3599 147.26 40.3599C151.91 40.3599 155.7 44.1499 155.7 48.7999Z" fill="#1A98CF"/>
<path d="M129.21 39.0098H125.66C125.66 36.3098 123.47 34.1198 120.77 34.1198C118.07 34.1198 115.88 36.3098 115.88 39.0098H112.33C112.33 34.3598 116.12 30.5698 120.77 30.5698C125.42 30.5698 129.21 34.3598 129.21 39.0098Z" fill="#1A98CF"/>
<path d="M115.87 39.0098H112.32C112.32 36.3098 110.13 34.1198 107.43 34.1198C104.73 34.1198 102.54 36.3098 102.54 39.0098H98.9902C98.9902 34.3598 102.78 30.5698 107.43 30.5698C112.08 30.5698 115.87 34.3598 115.87 39.0098Z" fill="#1A98CF"/>
<path d="M169.62 82.8901C167.53 84.7601 164.15 84.7601 162.07 82.8801C158.67 79.8101 153.14 79.8101 149.74 82.8801C147.65 84.7701 144.26 84.7601 142.17 82.8801C138.77 79.8101 133.24 79.8101 129.84 82.8801C127.75 84.7701 124.36 84.7701 122.27 82.8801C118.87 79.8101 113.34 79.8101 109.94 82.8801C107.85 84.7701 104.46 84.7701 102.37 82.8801C101.26 81.8801 99.92 81.2101 98.5 80.8601V84.5901C99.04 84.8201 99.55 85.1201 99.99 85.5201C103.39 88.5901 108.92 88.5901 112.32 85.5201C114.41 83.6401 117.8 83.6301 119.89 85.5201C123.29 88.5901 128.82 88.5901 132.22 85.5201C134.31 83.6401 137.7 83.6301 139.79 85.5201C143.19 88.5901 148.72 88.5901 152.12 85.5201C154.21 83.6401 157.6 83.6301 159.69 85.5201C161.39 87.0501 163.62 87.8201 165.85 87.8201C167.14 87.8201 168.43 87.5501 169.62 87.0401V82.8901Z" fill="#B5A899"/>
<path d="M169.62 91.3101H98.5V94.8601H169.62V91.3101Z" fill="#B5A899"/>
<path d="M65.9992 53.1899H62.4492V61.7999H65.9992V53.1899Z" fill="#C8C9C7"/>
<path d="M71.5994 54.9598H63.5194L60.2794 47.5998H42.2194L38.9894 54.9598H30.8994V51.4098H36.6694L39.9094 44.0498H62.5994L65.8394 51.4098H71.5994V54.9598Z" fill="#C8C9C7"/>
<path d="M39.3791 53.1899H35.8291V64.8899H39.3791V53.1899Z" fill="#C8C9C7"/>
<path d="M71.5993 54.9598H43.8393L39.4893 46.6498L42.6393 45.0098L45.9893 51.4098H71.5993V54.9598Z" fill="#C8C9C7"/>
<path d="M55.6502 23.9199H49.4102V27.4699H55.6502V23.9199Z" fill="#F5D020"/>
<path d="M67.7302 23.9199H61.4902V27.4699H67.7302V23.9199Z" fill="#F5D020"/>
<path d="M60.34 16.5298H56.79V22.7698H60.34V16.5298Z" fill="#F5D020"/>
<path d="M60.34 28.6099H56.79V34.8499H60.34V28.6099Z" fill="#F5D020"/>
<path d="M20.2168 14.0767L15.8037 18.4883L18.3135 20.9989L22.7266 16.5874L20.2168 14.0767Z" fill="#F5D020"/>
<path d="M28.7659 5.53443L24.3535 9.94678L26.8637 12.457L31.2761 8.04466L28.7659 5.53443Z" fill="#F5D020"/>
<path d="M18.3081 5.53323L15.7979 8.04346L20.2102 12.4558L22.7204 9.94557L18.3081 5.53323Z" fill="#F5D020"/>
<path d="M26.8628 14.0659L24.3525 16.5762L28.7649 20.9885L31.2751 18.4783L26.8628 14.0659Z" fill="#F5D020"/>
<path d="M13.3698 54.4399C6.45984 54.4399 0.839844 48.8199 0.839844 41.9099C0.839844 34.9999 6.45984 29.3799 13.3698 29.3799C20.2798 29.3799 25.8998 34.9999 25.8998 41.9099C25.8998 48.8199 20.2798 54.4399 13.3698 54.4399ZM13.3698 32.9399C8.41984 32.9399 4.38984 36.9699 4.38984 41.9199C4.38984 46.8699 8.41984 50.8999 13.3698 50.8999C18.3198 50.8999 22.3498 46.8699 22.3498 41.9199C22.3498 36.9699 18.3198 32.9399 13.3698 32.9399Z" fill="#F5D020"/>
<path d="M53.5794 72.1897H50.0294C50.0294 68.4797 46.5294 65.4597 42.2194 65.4597C37.9094 65.4597 34.4094 68.4797 34.4094 72.1897H30.8594C30.8594 66.5197 35.9594 61.9097 42.2194 61.9097C48.4794 61.9097 53.5794 66.5197 53.5794 72.1897Z" fill="#2FB06C"/>
<path d="M72.7591 72.1898H69.2091C69.2091 67.1998 65.7091 63.1398 61.3991 63.1398C57.0891 63.1398 53.5891 67.1998 53.5891 72.1898H50.0391C50.0391 65.2398 55.1391 59.5898 61.3991 59.5898C67.6591 59.5898 72.7591 65.2398 72.7591 72.1898Z" fill="#2FB06C"/>
<path d="M32.5794 86.0602C29.2994 81.8502 24.5394 79.4302 19.5394 79.4302C15.1594 79.4302 11.1494 81.2602 8.09938 84.2702C7.25938 82.8202 6.62937 81.2102 6.23937 79.4802H2.61937C3.13937 82.3102 4.21937 84.9102 5.71937 87.1402C4.21937 89.3702 3.12937 91.9802 2.60938 94.8102H6.22938C6.60938 93.0802 7.24938 91.4602 8.08938 90.0102C11.1394 93.0202 15.1394 94.8502 19.5294 94.8502C24.5394 94.8502 29.2894 92.4302 32.5694 88.2202L33.4194 87.1302L32.5694 86.0402L32.5794 86.0602ZM10.2394 87.1502C12.2794 85.0002 14.8794 83.5402 17.7594 83.1102V91.1802C14.8794 90.7502 12.2694 89.2902 10.2394 87.1402V87.1502ZM21.3094 91.1802V83.1202C24.1194 83.5402 26.7494 84.9502 28.8394 87.1502C26.7494 89.3602 24.1194 90.7602 21.3094 91.1802Z" fill="#C8C9C7"/>
<path d="M72.7499 72.1899H1.62988V75.7399H72.7499V72.1899Z" fill="#B5A899"/>
<path d="M65.6395 81.3101H62.0895C62.0895 84.8301 58.8995 87.7001 54.9695 87.7001C51.0395 87.7001 47.8495 84.8301 47.8495 81.3101H44.2995C44.2995 84.8301 41.1095 87.7001 37.1895 87.7001V91.2501C40.8995 91.2501 44.1695 89.4701 46.0795 86.7901C47.9895 89.4701 51.2595 91.2501 54.9695 91.2501C58.6795 91.2501 61.9495 89.4701 63.8595 86.7901C65.7695 89.4701 69.0395 91.2501 72.7495 91.2501V87.7001C68.8295 87.7001 65.6295 84.8301 65.6295 81.3101H65.6395Z" fill="#45ACD8"/>
<path d="M0 140.29L9.49 116.09H16.15L25.64 140.29H18.89L17.01 134.65H8.22L6.34 140.29H0ZM9.81 129.84H15.41L12.61 121.34L9.81 129.84Z" fill="#97989B"/>
<path d="M28.25 140.29V114.5H34.01V140.29H28.25Z" fill="#97989B"/>
<path d="M41.8095 140.29L36.5195 123.86H42.5695L44.7395 133.92L47.6695 123.86H52.3795L55.4995 133.96L57.5995 123.86H63.6495L58.3595 140.29H53.1995L49.9195 130.8L46.7995 140.29H41.7995H41.8095Z" fill="#97989B"/>
<path d="M71.8096 140.8C70.3896 140.8 69.1296 140.43 68.0396 139.7C66.9496 138.97 66.0896 137.95 65.4796 136.64C64.8596 135.33 64.5596 133.83 64.5596 132.13C64.5596 130.43 64.8896 128.96 65.5496 127.64C66.2096 126.32 67.0996 125.28 68.2196 124.5C69.3396 123.73 70.6096 123.34 72.0096 123.34C73.0696 123.34 74.0296 123.57 74.8796 124.02C75.7296 124.48 76.3896 125.12 76.8496 125.95L76.9096 123.85H82.3596V140.28H76.9096L76.8496 138.18C76.3596 139.01 75.6796 139.65 74.8096 140.11C73.9396 140.57 72.9396 140.79 71.8196 140.79L71.8096 140.8ZM73.5896 135.67C74.5496 135.67 75.3296 135.33 75.9496 134.65C76.5696 133.97 76.8696 133.11 76.8696 132.07C76.8696 131.03 76.5596 130.14 75.9496 129.47C75.3296 128.8 74.5496 128.47 73.5896 128.47C72.6296 128.47 71.8196 128.8 71.1996 129.47C70.5796 130.14 70.2796 131 70.2796 132.07C70.2796 133.14 70.5896 133.97 71.1996 134.65C71.8196 135.33 72.6096 135.67 73.5896 135.67Z" fill="#97989B"/>
<path d="M87.35 148.09L91.46 139.4L84.71 123.86H91.05L94.39 133.51L97.48 123.86H103.66L93.15 148.1H87.35V148.09Z" fill="#97989B"/>
<path d="M111.52 140.8C110.25 140.8 109 140.65 107.79 140.35C106.58 140.05 105.61 139.66 104.89 139.17L105.53 135.09C106.36 135.62 107.26 136.02 108.24 136.3C109.22 136.58 110.18 136.72 111.14 136.72C112.58 136.72 113.31 136.35 113.31 135.61C113.31 135.23 113.15 134.94 112.83 134.73C112.51 134.53 111.84 134.29 110.82 134.01C108.78 133.46 107.33 132.77 106.47 131.96C105.61 131.14 105.18 130.02 105.18 128.6C105.18 126.94 105.81 125.65 107.06 124.73C108.31 123.81 110.03 123.34 112.22 123.34C113.32 123.34 114.42 123.46 115.5 123.69C116.58 123.92 117.48 124.24 118.21 124.65L117.61 128.66C115.91 127.83 114.24 127.42 112.61 127.42C111.38 127.42 110.76 127.77 110.76 128.47C110.76 128.81 110.93 129.09 111.27 129.31C111.61 129.53 112.28 129.78 113.28 130.06C115.32 130.61 116.78 131.32 117.66 132.18C118.54 133.04 118.98 134.17 118.98 135.57C118.98 137.23 118.32 138.51 117.01 139.42C115.69 140.33 113.87 140.79 111.53 140.79L111.52 140.8Z" fill="#97989B"/>
<path d="M129.51 140.29V116.09H146.36V120.96H135.41V125.61H145.06V130.48H135.41V135.42H146.81V140.29H129.52H129.51Z" fill="#97989B"/>
<path d="M149 140.29L154.99 131.82L149.32 123.86H155.75L158.42 128.32L161.03 123.86H167.14L161.5 131.89L167.52 140.3H161.06L158.07 135.33L155.11 140.3H149V140.29Z" fill="#97989B"/>
<path d="M177.38 140.73C175.53 140.73 173.93 140.37 172.57 139.66C171.21 138.95 170.15 137.95 169.4 136.65C168.65 135.36 168.27 133.85 168.27 132.13C168.27 130.41 168.65 128.89 169.42 127.58C170.18 126.26 171.25 125.24 172.62 124.51C173.99 123.78 175.57 123.41 177.35 123.41C178.35 123.41 179.37 123.53 180.42 123.76C181.47 123.99 182.34 124.29 183.02 124.65L182.32 129.46C181.6 129.14 180.89 128.91 180.19 128.76C179.49 128.61 178.8 128.54 178.12 128.54C176.82 128.54 175.82 128.85 175.09 129.46C174.37 130.08 174.01 130.95 174.01 132.07C174.01 133.19 174.38 134.03 175.12 134.65C175.86 135.27 176.89 135.57 178.21 135.57C179.53 135.57 181 135.26 182.51 134.65L183.08 139.36C182.34 139.78 181.46 140.12 180.45 140.36C179.44 140.6 178.42 140.73 177.38 140.73Z" fill="#97989B"/>
<path d="M189.22 121.28C188.31 121.28 187.54 120.98 186.91 120.39C186.28 119.8 185.97 119.07 185.97 118.23C185.97 117.34 186.28 116.6 186.91 116.02C187.54 115.44 188.31 115.14 189.22 115.14C190.13 115.14 190.9 115.43 191.51 116.02C192.13 116.6 192.43 117.34 192.43 118.23C192.43 119.12 192.12 119.8 191.51 120.39C190.89 120.99 190.13 121.28 189.22 121.28ZM186.32 140.29V123.86H192.08V140.29H186.32Z" fill="#97989B"/>
<path d="M197.47 140.29V128.48H194.7V123.86H197.47V119.62H203.23V123.86H206.57V128.48H203.23V140.29H197.47Z" fill="#97989B"/>
<path d="M212.6 121.28C211.69 121.28 210.92 120.98 210.29 120.39C209.66 119.8 209.35 119.07 209.35 118.23C209.35 117.34 209.66 116.6 210.29 116.02C210.92 115.44 211.69 115.14 212.6 115.14C213.51 115.14 214.28 115.43 214.89 116.02C215.51 116.6 215.81 117.34 215.81 118.23C215.81 119.12 215.5 119.8 214.89 120.39C214.27 120.99 213.51 121.28 212.6 121.28ZM209.7 140.29V123.86H215.46V140.29H209.7Z" fill="#97989B"/>
<path d="M219.35 140.29V123.86H225.02L225.08 125.9C225.5 125.09 226.13 124.47 226.96 124.02C227.79 123.57 228.74 123.35 229.83 123.35C231.68 123.35 233.08 123.94 234.05 125.12C235.02 126.3 235.5 128.02 235.5 130.3V140.3H229.74V131.38C229.74 129.45 229.01 128.48 227.54 128.48C226.75 128.48 226.16 128.75 225.74 129.29C225.33 129.83 225.12 130.6 225.12 131.6V140.29H219.36H219.35Z" fill="#97989B"/>
<path d="M246.8 148.38C246.01 148.38 245.21 148.32 244.38 148.21C243.55 148.09 242.78 147.93 242.07 147.73C241.36 147.53 240.78 147.3 240.33 147.05L240.93 142.34C241.59 142.7 242.4 143 243.35 143.25C244.31 143.49 245.19 143.62 245.99 143.62C249.17 143.62 250.77 142.13 250.77 139.16V137.95C249.71 139.67 248.05 140.53 245.8 140.53C244.36 140.53 243.08 140.17 241.98 139.45C240.88 138.73 240.02 137.73 239.4 136.44C238.78 135.16 238.48 133.68 238.48 132.03C238.48 130.38 238.81 128.89 239.47 127.59C240.13 126.28 241.02 125.26 242.15 124.5C243.27 123.75 244.55 123.37 245.97 123.37C247.01 123.37 247.95 123.59 248.79 124.04C249.63 124.49 250.29 125.13 250.78 125.98L250.84 123.88H256.29V138.97C256.29 142.05 255.49 144.39 253.89 145.99C252.29 147.59 249.93 148.39 246.8 148.39V148.38ZM247.53 135.51C248.49 135.51 249.27 135.18 249.89 134.51C250.51 133.84 250.81 132.99 250.81 131.95C250.81 130.91 250.5 130.02 249.89 129.35C249.27 128.68 248.49 128.35 247.53 128.35C246.57 128.35 245.76 128.68 245.14 129.35C244.52 130.02 244.22 130.88 244.22 131.95C244.22 133.02 244.53 133.84 245.14 134.51C245.76 135.18 246.55 135.51 247.53 135.51Z" fill="#97989B"/>
<path d="M264.31 140.48C263.33 140.48 262.55 140.19 261.95 139.62C261.36 139.05 261.06 138.31 261.06 137.42C261.06 136.53 261.36 135.8 261.95 135.24C262.54 134.68 263.33 134.4 264.31 134.4C265.29 134.4 266.05 134.68 266.65 135.24C267.25 135.8 267.56 136.53 267.56 137.42C267.56 138.31 267.26 139.04 266.65 139.62C266.04 140.19 265.26 140.48 264.31 140.48ZM261.73 131.95L261.16 115.14H267.47L266.9 131.95H261.74H261.73Z" fill="#97989B"/>
<path d="M37.9202 213.3V201.35H42.3102C43.5002 201.35 44.4302 201.62 45.0802 202.14C45.7302 202.67 46.0602 203.42 46.0602 204.38C46.0602 204.96 45.9102 205.47 45.6002 205.92C45.3002 206.37 44.8802 206.71 44.3402 206.93C45.0602 207.09 45.6302 207.43 46.0502 207.95C46.4702 208.47 46.6802 209.11 46.6802 209.85C46.6802 210.95 46.3202 211.8 45.6002 212.4C44.8802 213 43.8002 213.3 42.4702 213.3H37.9102H37.9202ZM42.0402 202.83H39.7402V206.4H41.9902C42.7302 206.4 43.2802 206.25 43.6302 205.94C43.9802 205.63 44.1602 205.16 44.1602 204.52C44.1602 203.4 43.4502 202.84 42.0402 202.84V202.83ZM42.3102 207.83H39.7502V211.82H42.4902C43.2002 211.82 43.7502 211.64 44.1402 211.29C44.5302 210.94 44.7202 210.45 44.7202 209.82C44.7202 208.49 43.9202 207.82 42.3102 207.82V207.83Z" fill="#97989B"/>
<path d="M52.4204 213.55C51.6104 213.55 50.8904 213.37 50.2504 213C49.6104 212.63 49.1104 212.13 48.7404 211.49C48.3704 210.85 48.1904 210.13 48.1904 209.32C48.1904 208.51 48.3804 207.81 48.7604 207.17C49.1404 206.54 49.6504 206.03 50.2804 205.66C50.9204 205.29 51.6304 205.1 52.4204 205.1C53.2104 205.1 53.9504 205.28 54.5904 205.65C55.2304 206.02 55.7304 206.52 56.1004 207.15C56.4704 207.78 56.6504 208.5 56.6504 209.31C56.6504 210.12 56.4604 210.83 56.0804 211.46C55.7004 212.1 55.2004 212.61 54.5604 212.98C53.9304 213.35 53.2104 213.54 52.4104 213.54L52.4204 213.55ZM52.4204 211.93C53.1304 211.93 53.7104 211.69 54.1604 211.2C54.6104 210.71 54.8304 210.09 54.8304 209.32C54.8304 208.55 54.6104 207.93 54.1604 207.45C53.7104 206.97 53.1404 206.73 52.4204 206.73C51.7004 206.73 51.1404 206.97 50.7004 207.45C50.2504 207.93 50.0304 208.56 50.0304 209.32C50.0304 210.08 50.2504 210.71 50.7004 211.2C51.1504 211.69 51.7204 211.93 52.4204 211.93Z" fill="#97989B"/>
<path d="M58.4805 213.3V205.36H60.2105L60.2305 206.95C60.4405 206.41 60.7405 205.98 61.1405 205.69C61.5405 205.39 61.9905 205.24 62.5105 205.24C62.6805 205.24 62.8505 205.26 63.0205 205.29C63.1905 205.32 63.3305 205.36 63.4405 205.42L63.2705 207.12C62.9705 206.99 62.6405 206.93 62.3005 206.93C61.6705 206.93 61.1805 207.16 60.8305 207.62C60.4805 208.08 60.3005 208.73 60.3005 209.57V213.31H58.4905L58.4805 213.3Z" fill="#97989B"/>
<path d="M65.6599 217.15L67.7799 212.72L64.4199 205.36H66.3899L68.7299 210.85L70.9499 205.36H72.8699L67.5099 217.15H65.6699H65.6599Z" fill="#97989B"/>
<path d="M77.9302 213.55C77.0002 213.55 76.1901 213.38 75.5201 213.04C74.8401 212.7 74.3202 212.21 73.9602 211.59C73.5902 210.96 73.4102 210.22 73.4102 209.36C73.4102 208.5 73.5802 207.79 73.9202 207.15C74.2602 206.52 74.7301 206.02 75.3401 205.66C75.9501 205.3 76.6402 205.12 77.4102 205.12C78.1802 205.12 78.8002 205.28 79.3602 205.61C79.9202 205.94 80.3402 206.39 80.6502 206.98C80.9502 207.57 81.1102 208.26 81.1102 209.05C81.1102 209.3 81.0902 209.56 81.0602 209.84H75.2001C75.2901 210.58 75.5901 211.14 76.0901 211.52C76.5901 211.9 77.2601 212.09 78.0901 212.09C79.0201 212.09 79.9102 211.89 80.7602 211.48L80.9501 212.89C80.5701 213.1 80.1102 213.26 79.5702 213.38C79.0302 213.5 78.4802 213.56 77.9302 213.56V213.55ZM77.3502 206.51C76.7602 206.51 76.2802 206.69 75.9002 207.06C75.5202 207.43 75.2802 207.95 75.1802 208.62H79.3902C79.3902 208.5 79.3802 208.4 79.3602 208.31C79.2802 207.73 79.0602 207.29 78.7202 206.98C78.3702 206.67 77.9202 206.52 77.3502 206.52V206.51Z" fill="#97989B"/>
<path d="M86.8003 213.55C85.9903 213.55 85.2703 213.37 84.6303 213C83.9903 212.63 83.4903 212.13 83.1203 211.49C82.7503 210.85 82.5703 210.13 82.5703 209.32C82.5703 208.51 82.7603 207.81 83.1403 207.17C83.5203 206.54 84.0303 206.03 84.6603 205.66C85.3003 205.29 86.0103 205.1 86.8003 205.1C87.5903 205.1 88.3303 205.28 88.9703 205.65C89.6103 206.02 90.1103 206.52 90.4803 207.15C90.8503 207.78 91.0303 208.5 91.0303 209.31C91.0303 210.12 90.8403 210.83 90.4603 211.46C90.0803 212.1 89.5803 212.61 88.9403 212.98C88.3103 213.35 87.5903 213.54 86.7903 213.54L86.8003 213.55ZM86.8003 211.93C87.5103 211.93 88.0903 211.69 88.5403 211.2C88.9903 210.71 89.2103 210.09 89.2103 209.32C89.2103 208.55 88.9903 207.93 88.5403 207.45C88.0903 206.97 87.5203 206.73 86.8003 206.73C86.0803 206.73 85.5203 206.97 85.0803 207.45C84.6303 207.93 84.4103 208.56 84.4103 209.32C84.4103 210.08 84.6303 210.71 85.0803 211.2C85.5303 211.69 86.1003 211.93 86.8003 211.93Z" fill="#97989B"/>
<path d="M92.8701 213.3V205.36H94.6201L94.6401 206.59C94.8701 206.13 95.2101 205.77 95.6501 205.51C96.0901 205.25 96.6001 205.12 97.1701 205.12C98.1001 205.12 98.8201 205.41 99.3101 205.99C99.8001 206.57 100.05 207.41 100.05 208.5V213.31H98.2401V208.83C98.2401 207.43 97.6901 206.72 96.6001 206.72C96.0001 206.72 95.5301 206.92 95.1901 207.32C94.8501 207.72 94.6801 208.27 94.6801 208.99V213.31H92.8701V213.3Z" fill="#97989B"/>
<path d="M105.77 217.29C105.19 217.29 104.62 217.22 104.05 217.09C103.48 216.96 103.05 216.79 102.75 216.59L102.95 215.03C103.31 215.24 103.73 215.41 104.21 215.53C104.69 215.66 105.17 215.72 105.64 215.72C106.57 215.72 107.26 215.49 107.72 215.02C108.17 214.55 108.4 213.84 108.4 212.89V211.95C108.11 212.44 107.72 212.82 107.24 213.09C106.76 213.36 106.2 213.49 105.57 213.49C104.85 213.49 104.2 213.31 103.64 212.96C103.08 212.6 102.64 212.11 102.32 211.47C102 210.84 101.84 210.12 101.84 209.31C101.84 208.5 102.01 207.81 102.35 207.17C102.69 206.53 103.15 206.03 103.74 205.65C104.33 205.28 104.98 205.09 105.7 205.09C106.27 205.09 106.78 205.23 107.26 205.5C107.73 205.77 108.11 206.16 108.39 206.65L108.42 205.34H110.16V212.76C110.16 214.25 109.79 215.37 109.05 216.13C108.31 216.89 107.21 217.27 105.76 217.27L105.77 217.29ZM106.07 211.91C106.78 211.91 107.36 211.67 107.81 211.18C108.26 210.69 108.48 210.07 108.48 209.3C108.48 208.79 108.38 208.34 108.17 207.95C107.97 207.56 107.68 207.26 107.32 207.03C106.96 206.8 106.54 206.69 106.07 206.69C105.37 206.69 104.79 206.93 104.35 207.42C103.9 207.91 103.68 208.53 103.68 209.3C103.68 210.07 103.9 210.69 104.35 211.18C104.8 211.67 105.37 211.91 106.07 211.91Z" fill="#97989B"/>
<path d="M5.30047 213.3L0.730469 201.35H2.89047L6.40047 211.1L9.91047 201.35H12.0005L7.41047 213.3H5.30047Z" fill="#97989B"/>
<path d="M14.3702 203.52C14.0502 203.52 13.7802 203.41 13.5602 203.2C13.3502 202.99 13.2402 202.72 13.2402 202.39C13.2402 202.06 13.3502 201.8 13.5602 201.59C13.7702 201.38 14.0402 201.28 14.3702 201.28C14.7002 201.28 14.9802 201.39 15.1902 201.59C15.4002 201.8 15.5002 202.07 15.5002 202.39C15.5002 202.71 15.4002 202.98 15.1902 203.2C14.9802 203.41 14.7102 203.52 14.3702 203.52ZM13.4702 213.3V205.36H15.2802V213.3H13.4702Z" fill="#97989B"/>
<path d="M19.9208 213.55C19.3908 213.55 18.8608 213.48 18.3308 213.35C17.8108 213.21 17.3908 213.03 17.0908 212.8L17.3308 211.35C17.6908 211.6 18.0908 211.8 18.5608 211.94C19.0208 212.08 19.4608 212.15 19.8808 212.15C20.3908 212.15 20.7908 212.07 21.0708 211.9C21.3508 211.73 21.4908 211.5 21.4908 211.19C21.4908 210.99 21.4508 210.83 21.3608 210.69C21.2708 210.56 21.1008 210.44 20.8608 210.33C20.6108 210.22 20.2608 210.1 19.8008 209.98C18.8808 209.71 18.2208 209.38 17.8308 209C17.4408 208.62 17.2508 208.13 17.2508 207.51C17.2508 206.77 17.5308 206.18 18.0808 205.75C18.6408 205.32 19.4008 205.11 20.3608 205.11C20.8208 205.11 21.2908 205.17 21.7708 205.29C22.2508 205.41 22.6308 205.56 22.9308 205.74L22.6808 207.14C21.9608 206.72 21.2008 206.51 20.4208 206.51C19.4808 206.51 19.0108 206.8 19.0108 207.39C19.0108 207.66 19.1208 207.88 19.3308 208.04C19.5408 208.2 19.9608 208.37 20.5608 208.55C21.5708 208.84 22.2808 209.18 22.6908 209.57C23.1008 209.96 23.3108 210.48 23.3108 211.13C23.3108 211.87 23.0108 212.46 22.4008 212.9C21.7908 213.34 20.9708 213.55 19.9508 213.55H19.9208Z" fill="#97989B"/>
<path d="M25.9405 203.52C25.6205 203.52 25.3505 203.41 25.1305 203.2C24.9105 202.99 24.8105 202.72 24.8105 202.39C24.8105 202.06 24.9205 201.8 25.1305 201.59C25.3405 201.38 25.6105 201.28 25.9405 201.28C26.2705 201.28 26.5505 201.39 26.7605 201.59C26.9705 201.8 27.0705 202.07 27.0705 202.39C27.0705 202.71 26.9605 202.98 26.7605 203.2C26.5505 203.41 26.2805 203.52 25.9405 203.52ZM25.0405 213.3V205.36H26.8505V213.3H25.0405Z" fill="#97989B"/>
<path d="M33.7402 205.36H31.9002V203.14H30.0902V205.36H28.2402V206.87H30.0902V213.3H31.9002V206.87H33.7402V205.36Z" fill="#97989B"/>
<path d="M124.2 207.33C124.2 209.07 124.58 210.57 125.31 211.65C126.15 212.91 127.37 213.54 128.95 213.54C130.53 213.54 131.75 212.9 132.61 211.63C133.36 210.51 133.76 209 133.76 207.27C133.76 205.54 133.37 204.11 132.63 203.06C131.78 201.87 130.56 201.27 129.01 201.27C127.46 201.27 126.19 201.88 125.35 203.08C124.6 204.15 124.21 205.62 124.21 207.33H124.2ZM128.99 203.27C130.18 203.27 131.6 203.97 131.6 207.31C131.6 210.65 130.18 211.55 128.99 211.55C128.01 211.55 126.36 211 126.36 207.31C126.36 204.7 127.29 203.27 128.99 203.27Z" fill="#97989B"/>
<path d="M122.941 211.41H118.411L121.381 208.13C121.791 207.7 122.131 207.25 122.401 206.8C122.771 206.16 122.951 205.53 122.951 204.88C122.951 202.69 121.411 201.27 119.021 201.27C117.361 201.27 115.941 201.95 114.771 203.3L116.211 204.58C117.111 203.63 117.931 203.2 118.841 203.2C120.051 203.2 120.801 203.92 120.801 205.07C120.801 205.98 120.221 206.7 119.521 207.49L114.891 212.59V213.32H122.941V211.41Z" fill="#97989B"/>
<path d="M142.551 211.41H138.021L140.991 208.13C141.401 207.7 141.741 207.25 142.011 206.8C142.381 206.16 142.561 205.53 142.561 204.88C142.561 202.69 141.021 201.27 138.631 201.27C136.981 201.27 135.551 201.95 134.381 203.3L135.821 204.58C136.721 203.63 137.541 203.2 138.451 203.2C139.661 203.2 140.411 203.92 140.411 205.07C140.411 205.98 139.831 206.7 139.131 207.49L134.501 212.59V213.32H142.551V211.41Z" fill="#97989B"/>
<path d="M152.17 211.41H147.64L150.6 208.13C151.01 207.7 151.35 207.25 151.62 206.8C151.99 206.16 152.17 205.53 152.17 204.88C152.17 202.69 150.63 201.27 148.24 201.27C146.59 201.27 145.16 201.95 143.99 203.3L145.43 204.58C146.33 203.63 147.15 203.2 148.06 203.2C149.27 203.2 150.02 203.92 150.02 205.07C150.02 205.98 149.44 206.7 148.74 207.49L144.11 212.59V213.32H152.16V211.41H152.17Z" fill="#97989B"/>
<path d="M256.23 169.69C256.23 165.9 253.06 162.83 249.16 162.83C245.26 162.83 242.09 165.9 242.09 169.69C242.09 173.48 245.26 176.55 249.16 176.55C253.06 176.55 256.23 173.48 256.23 169.69ZM249.16 172.88C247.35 172.88 245.88 171.45 245.88 169.69C245.88 167.93 247.35 166.5 249.16 166.5C250.97 166.5 252.44 167.93 252.44 169.69C252.44 171.45 250.97 172.88 249.16 172.88Z" fill="#97989B"/>
<path d="M251.01 158.81H256.39V162.08H241.96V158.81H247.25V156.28H251.01V158.81Z" fill="#97989B"/>
<path d="M267.56 155.92V179.93H263.75V168.96H261.83V179.93H258.07V155.92H261.83V165.08H263.75V155.92H267.56Z" fill="#97989B"/>
<path d="M175.22 169.23H161.56V156.28H165.51V160.05H171.26V156.28H175.21V169.23H175.22ZM171.27 163.52H165.52V165.81H171.27V163.52Z" fill="#97989B"/>
<path d="M185.17 160.48V164.04H181.84V170.54H178.23V155.92H181.84V160.48H185.17Z" fill="#97989B"/>
<path d="M209.92 168.62V171.89H200.66V175.17H196.65V171.89H187.14V168.62H209.92Z" fill="#97989B"/>
<path d="M194.16 178.27H207.43V181.75H190.35V174.45H194.16V178.27Z" fill="#97989B"/>
<path d="M207.02 166.65H189.95V156.27H207.02V166.65ZM203.07 159.49H193.91V163.38H203.07V159.49Z" fill="#97989B"/>
<path d="M234.28 155.92H230.27V179.93H234.28V155.92Z" fill="#97989B"/>
<path d="M228.72 174.97L212.61 176.53V173L228.72 171.44V174.97Z" fill="#97989B"/>
<path d="M227.23 163.38C227.23 159.43 223.93 156.22 219.85 156.22C215.77 156.22 212.47 159.42 212.47 163.38C212.47 167.34 215.77 170.54 219.85 170.54C223.93 170.54 227.23 167.34 227.23 163.38ZM219.85 166.7C217.96 166.7 216.42 165.21 216.42 163.38C216.42 161.55 217.95 160.06 219.85 160.06C221.75 160.06 223.28 161.55 223.28 163.38C223.28 165.21 221.75 166.7 219.85 166.7Z" fill="#97989B"/>
<path d="M128.59 173.92V177.45H105.81V173.92H115.17V169.91H108.21V156.28H112.42V160.25H121.95V156.28H126.1V169.91H119.37V173.92H128.58H128.59ZM112.42 166.44H121.95V163.72H112.42V166.44Z" fill="#97989B"/>
<path d="M148.36 167.29H144.52V164.22H148.36V161.84H144.52V158.77H148.36V155.92H152.17V170.54H148.36V167.29Z" fill="#97989B"/>
<path d="M151.77 175.72C151.77 171.93 148.6 168.86 144.7 168.86C140.8 168.86 137.63 171.93 137.63 175.72C137.63 179.51 140.8 182.58 144.7 182.58C148.6 182.58 151.77 179.51 151.77 175.72ZM144.7 178.84C142.92 178.84 141.48 177.44 141.48 175.72C141.48 174 142.92 172.6 144.7 172.6C146.48 172.6 147.92 174 147.92 175.72C147.92 177.44 146.48 178.84 144.7 178.84Z" fill="#97989B"/>
<path d="M181.7 175.72C181.7 171.93 178.53 168.86 174.63 168.86C170.73 168.86 167.56 171.93 167.56 175.72C167.56 179.51 170.73 182.58 174.63 182.58C178.53 182.58 181.7 179.51 181.7 175.72ZM174.63 178.84C172.85 178.84 171.41 177.44 171.41 175.72C171.41 174 172.85 172.6 174.63 172.6C176.41 172.6 177.85 174 177.85 175.72C177.85 177.44 176.41 178.84 174.63 178.84Z" fill="#97989B"/>
<path d="M143.48 169.75H131.49V161.49H139.32V159.55H131.46V156.28H143.07V164.57H135.3V166.48H143.48V169.75Z" fill="#97989B"/>
<path d="M26.5001 155.63C23.5501 155.63 21.2701 156.76 19.7101 158.98C18.3401 160.92 17.6201 163.58 17.6201 166.68C17.6201 169.78 18.3201 172.52 19.6501 174.5C21.2101 176.82 23.4801 178 26.4101 178C29.3401 178 31.6101 176.81 33.2001 174.47C34.5701 172.44 35.3001 169.71 35.3001 166.58C35.3001 163.45 34.5901 160.87 33.2301 158.94C31.6501 156.74 29.3901 155.63 26.5001 155.63ZM26.4701 173.73C24.8701 173.73 22.1901 172.81 22.1901 166.64C22.1901 164.12 22.7501 159.89 26.4701 159.89C29.2501 159.89 30.7201 162.22 30.7201 166.64C30.7201 172.5 28.4101 173.73 26.4701 173.73Z" fill="#97989B"/>
<path d="M77.8297 156.93V167.28L87.6197 166.78V170.57L73.8896 171.19V156.93H77.8297Z" fill="#97989B"/>
<path d="M81.05 176.73H94.72V180.4H77.04V173.31H81.05V176.73Z" fill="#97989B"/>
<path d="M91.1094 165.37H85.8594V162.3H91.1094V160.93H85.8594V157.86H91.1094V155.92H94.9194V173.15H91.1094V165.37Z" fill="#97989B"/>
<path d="M12.5 168.34C13.24 167.56 13.87 166.75 14.36 165.93C15.05 164.73 15.38 163.56 15.38 162.35C15.38 158.26 12.5 155.62 8.04 155.62C4.88 155.62 2.17 156.96 0 159.61L3.09 162.34C4.71 160.56 6.15 159.76 7.73 159.76C9.68 159.76 10.84 160.85 10.84 162.69C10.84 164.16 9.86 165.37 8.67 166.7L0.38 175.78V177.58H15.39V173.47H7.82L12.51 168.33L12.5 168.34Z" fill="#97989B"/>
<path d="M48.9805 168.34C49.7205 167.56 50.3505 166.75 50.8405 165.93C51.5305 164.73 51.8605 163.56 51.8605 162.35C51.8605 158.26 48.9805 155.62 44.5205 155.62C41.3605 155.62 38.6505 156.96 36.4805 159.61L39.5705 162.34C41.1905 160.56 42.6305 159.76 44.2105 159.76C46.1605 159.76 47.3205 160.85 47.3205 162.69C47.3205 164.16 46.3405 165.37 45.1505 166.7L36.8505 175.79V177.59H51.8605V173.48H44.2905L48.9805 168.34Z" fill="#97989B"/>
<path d="M66.8398 168.34C67.5798 167.56 68.2098 166.75 68.6998 165.93C69.3898 164.73 69.7198 163.56 69.7198 162.35C69.7198 158.26 66.8398 155.62 62.3798 155.62C59.2198 155.62 56.5098 156.96 54.3398 159.61L57.4298 162.34C59.0498 160.56 60.4898 159.76 62.0698 159.76C64.0198 159.76 65.1798 160.85 65.1798 162.69C65.1798 164.16 64.1998 165.37 63.0098 166.7L54.7098 175.79V177.59H69.7198V173.48H62.1498L66.8398 168.34Z" fill="#97989B"/>
</g>
<defs>
<clipPath id="clip0_33_2278">
<rect width="267.57" height="217.29" fill="white"/>
</clipPath>
</defs>
</svg>
