<svg width="247" height="247" viewBox="0 0 247 247" fill="none" xmlns="http://www.w3.org/2000/svg">
<g opacity="0.12" clip-path="url(#clip0)">
<path d="M123.5 26.7932C126.164 26.7932 128.324 24.6329 128.324 21.969V4.82422C128.324 2.1598 126.164 0 123.5 0C120.836 0 118.676 2.1598 118.676 4.82422V21.969C118.676 24.6334 120.836 26.7932 123.5 26.7932Z" fill="white"/>
<path d="M166.581 37.4036C167.495 38.1977 168.622 38.587 169.744 38.587C171.092 38.587 172.433 38.025 173.387 36.9284L185.39 23.1225C187.138 21.1118 186.925 18.0648 184.914 16.3165C182.903 14.5682 179.857 14.7814 178.108 16.7917L166.105 30.5976C164.357 32.6083 164.57 35.6553 166.581 37.4036Z" fill="white"/>
<path d="M203.883 76.7074C204.699 76.7074 205.526 76.4995 206.285 76.0634L222.156 66.9287C224.466 65.5996 225.26 62.6506 223.931 60.3413C222.602 58.0324 219.653 57.2378 217.344 58.5664L201.472 67.7011C199.163 69.0301 198.368 71.9792 199.697 74.2885C200.59 75.8395 202.213 76.7074 203.883 76.7074Z" fill="white"/>
<path d="M236.696 113.819H218.37C215.705 113.819 213.545 115.98 213.545 118.644C213.545 121.307 215.705 123.468 218.37 123.468H236.696C239.361 123.468 241.521 121.307 241.521 118.644C241.521 115.979 239.361 113.819 236.696 113.819Z" fill="white"/>
<path d="M73.6133 36.9284C74.5675 38.0255 75.9082 38.587 77.2561 38.587C78.3782 38.587 79.5056 38.1972 80.4193 37.4036C82.43 35.6553 82.6428 32.6084 80.895 30.5976L68.8919 16.7917C67.1436 14.7809 64.0966 14.5692 62.0859 16.3165C60.0751 18.0648 59.8624 21.1118 61.6102 23.1225L73.6133 36.9284Z" fill="white"/>
<path d="M24.846 66.9288L40.7176 76.0635C41.476 76.5001 42.3034 76.7075 43.1196 76.7075C44.7888 76.7075 46.4126 75.8397 47.3051 74.2887C48.6342 71.9793 47.8396 69.0303 45.5303 67.7012L29.6586 58.5665C27.3488 57.2365 24.3997 58.0315 23.0711 60.3414C21.7421 62.6507 22.5366 65.5998 24.846 66.9288Z" fill="white"/>
<path d="M33.4566 118.644C33.4566 115.98 31.2968 113.819 28.6324 113.819H10.3052C7.64076 113.819 5.48096 115.98 5.48096 118.644C5.48096 121.307 7.64076 123.468 10.3052 123.468H28.6324C31.2968 123.468 33.4566 121.307 33.4566 118.644Z" fill="white"/>
<path d="M211.962 213.691V207.618C211.962 198.287 205.119 190.525 196.189 189.085V109.821C196.189 69.7996 163.629 37.24 123.608 37.24H123.395C83.3739 37.24 50.8143 69.7996 50.8143 109.821V189.085C41.8837 190.526 35.0415 198.288 35.0415 207.619V213.692C29.2563 215.432 25.0303 220.808 25.0303 227.153V242.176C25.0303 244.84 27.1901 247 29.8545 247H101.693C104.357 247 106.517 244.84 106.517 242.176C106.517 239.512 104.357 237.351 101.693 237.351H34.6787V227.152C34.6787 224.723 36.6552 222.747 39.0842 222.747H207.919C210.348 222.747 212.324 224.723 212.324 227.152V237.351H145.31C142.645 237.351 140.485 239.512 140.485 242.176C140.485 244.84 142.645 247 145.31 247H217.149C219.813 247 221.973 244.84 221.973 242.176V227.152C221.973 220.808 217.746 215.432 211.962 213.691V213.691ZM60.4627 109.821C60.4627 75.1198 88.694 46.8884 123.395 46.8884H123.608C158.309 46.8884 186.54 75.1202 186.54 109.821V188.845H137.353V152.962C144.84 148.234 149.532 139.827 149.532 130.754C149.532 116.437 137.855 104.789 123.501 104.789C109.148 104.789 97.4703 116.437 97.4703 130.754C97.4703 139.827 102.163 148.234 109.649 152.962V188.845H60.4627V109.821ZM116.525 145.749C110.898 143.105 107.119 137.079 107.119 130.753C107.119 121.756 114.468 114.437 123.501 114.437C132.535 114.437 139.884 121.756 139.884 130.753C139.884 137.079 136.104 143.105 130.478 145.749C128.785 146.543 127.705 148.245 127.705 150.115V188.845H119.298V150.115C119.298 148.245 118.218 146.544 116.525 145.749V145.749ZM53.8145 198.493H193.188C198.22 198.493 202.313 202.587 202.313 207.618V213.098H44.6899V207.618C44.6899 202.587 48.7828 198.493 53.8145 198.493V198.493Z" fill="white"/>
<path d="M127.866 240.333C127.103 238.468 125.184 237.26 123.174 237.361C121.187 237.46 119.43 238.809 118.821 240.702C118.188 242.668 118.919 244.898 120.605 246.096C122.233 247.252 124.427 247.283 126.091 246.185C127.984 244.936 128.737 242.421 127.866 240.333V240.333Z" fill="white"/>
</g>
<defs>
<clipPath id="clip0">
<rect width="247" height="247" fill="white"/>
</clipPath>
</defs>
</svg>
