<svg width="246" height="246" viewBox="0 0 246 246" fill="none" xmlns="http://www.w3.org/2000/svg">
<g opacity="0.12">
<path d="M56.5876 83.7674C54.7138 81.8936 51.6676 81.8936 49.7942 83.7674C47.9156 85.6461 47.9156 88.6874 49.7942 90.5613C51.6681 92.4399 54.7142 92.4399 56.5876 90.5613C58.4657 88.6874 58.4657 85.6461 56.5876 83.7674Z" fill="white"/>
<path d="M121.654 215.115C123.773 212.246 124.918 208.789 124.918 205.154C124.918 195.882 117.374 188.338 108.102 188.338H26.4249C21.931 188.338 17.7082 190.087 14.5337 193.262C11.3578 196.437 9.60891 200.66 9.60891 205.154C9.60891 208.877 10.8274 212.32 12.8833 215.109C5.23279 219.132 0 227.156 0 236.383V241.188C0 243.841 2.15154 245.992 4.8047 245.992H129.722C132.375 245.992 134.527 243.841 134.527 241.188V236.383C134.527 227.16 129.299 219.139 121.654 215.115ZM21.328 200.056C22.6883 198.695 24.4987 197.946 26.4249 197.946H108.102C112.076 197.946 115.308 201.179 115.308 205.153C115.308 207.08 114.559 208.889 113.198 210.25C111.838 211.611 110.028 212.36 108.101 212.36H26.4249C22.4509 212.36 19.2183 209.127 19.2183 205.153C19.2183 203.227 19.9674 201.417 21.328 200.056ZM9.60891 236.383C9.60891 228.435 16.0751 221.969 24.0225 221.969H26.4249H108.102H110.504C118.452 221.969 124.918 228.435 124.918 236.383H9.60891Z" fill="white"/>
<path d="M241.528 201.857C239.897 199.328 237.95 197.092 235.741 195.211L213.291 175.63C213.116 175.367 212.914 175.117 212.681 174.885C212.291 174.495 211.849 174.191 211.379 173.963L197.803 162.122L134.962 107.305C137.535 104.616 138.951 101.099 138.951 97.3595C138.951 93.5071 137.451 89.8868 134.726 87.1615C133.537 85.9743 132.186 85.0407 130.742 84.357L136.556 78.5434C138.181 78.9753 139.85 79.1963 141.522 79.1963C146.442 79.1958 151.363 77.323 155.109 73.5772C158.74 69.9463 160.74 65.12 160.74 59.9871C160.74 54.8543 158.74 50.028 155.109 46.397L114.342 5.63111C110.711 2.0002 105.885 0.000488281 100.75 0.000488281C95.6184 0.000488281 90.7931 2.0002 87.1626 5.63111C82.1446 10.6491 80.4928 17.774 82.1965 24.1845L24.1918 82.1887C22.589 81.7625 20.9212 81.5376 19.2175 81.5376C14.0822 81.5376 9.25785 83.5359 5.62982 87.1635C-1.86359 94.6569 -1.86359 106.85 5.62982 114.344L46.3962 155.111C50.1434 158.857 55.0649 160.731 59.9863 160.731C64.9082 160.731 69.8297 158.857 73.5769 155.111C78.5949 150.092 80.2468 142.968 78.543 136.557L84.3447 130.755C85.0418 132.211 85.9879 133.554 87.1631 134.729C89.8855 137.451 93.5048 138.951 97.3563 138.951C101.092 138.951 104.607 137.537 107.3 134.967L174.232 211.868C174.417 212.157 174.632 212.431 174.884 212.683C174.97 212.769 175.061 212.847 175.152 212.925L195.097 235.84C195.593 236.426 196.123 237.001 196.673 237.551C202.151 243.027 209.386 245.999 216.982 245.999C218.321 245.999 219.673 245.907 221.026 245.719C230.073 244.467 237.892 239.055 242.476 230.869C247.499 221.897 247.125 210.507 241.528 201.857ZM93.9579 12.4259C95.7736 10.6102 98.1865 9.60988 100.751 9.60988C103.318 9.60988 105.733 10.6102 107.548 12.4259L148.315 53.1923C150.131 55.008 151.13 57.4214 151.13 59.9876C151.13 62.5538 150.131 64.9672 148.314 66.7829C144.569 70.5291 138.474 70.5291 134.729 66.7829L93.9603 26.0146C93.9594 26.0136 93.9589 26.0131 93.9579 26.0122C90.2117 22.2664 90.2117 16.1717 93.9579 12.4259ZM66.7821 148.316C63.0354 152.062 56.9377 152.063 53.191 148.316L12.4246 107.549C8.67744 103.802 8.67744 97.7059 12.4246 93.9583C14.237 92.1454 16.6499 91.147 19.2175 91.147C21.7847 91.147 24.1961 92.145 26.008 93.9563L66.7816 134.73C70.5283 138.475 70.5283 144.57 66.7821 148.316ZM87.0108 114.5L73.5764 127.935L32.8057 87.1644L87.1626 32.8065L127.933 73.5772L114.474 87.0366C114.43 87.0779 114.387 87.1183 114.341 87.1639L87.1766 114.329C87.1204 114.384 87.0661 114.442 87.0108 114.5ZM104.166 124.523C104.157 124.533 104.148 124.542 104.138 124.552L100.755 127.935C99.847 128.842 98.6406 129.342 97.3558 129.342C96.0715 129.342 94.8646 128.842 93.9574 127.935C93.0489 127.027 92.5487 125.819 92.5487 124.533C92.5487 123.276 93.0287 122.092 93.8998 121.199L121.191 93.9083C123.061 92.0892 126.085 92.1118 127.934 93.9583C128.842 94.8663 129.342 96.0743 129.342 97.3595C129.342 98.6438 128.843 99.8483 127.933 100.756L124.57 104.12C124.547 104.142 124.523 104.165 124.501 104.188L104.166 124.523ZM114.116 128.163L128.158 114.121L187.613 165.98L165.917 187.676L114.116 128.163ZM172.241 194.941L194.87 172.311L202.129 178.643L178.564 202.208L172.241 194.941ZM234.093 226.175C230.992 231.711 225.749 235.365 219.709 236.201C213.683 237.035 207.762 235.051 203.466 230.756C203.097 230.387 202.743 230.002 202.413 229.612C202.398 229.594 202.383 229.576 202.367 229.558L184.887 209.473L209.387 184.973L229.447 202.47C229.461 202.484 229.477 202.497 229.493 202.51C230.994 203.787 232.326 205.32 233.457 207.072C237.09 212.686 237.345 220.364 234.093 226.175Z" fill="white"/>
<path d="M90.5612 49.7939C88.6845 47.9177 85.6431 47.9177 83.7664 49.7939L63.3811 70.1793C61.5048 72.0555 61.5048 75.0978 63.3811 76.9736C64.3194 77.9119 65.5489 78.3809 66.7785 78.3809C68.008 78.3809 69.2375 77.9115 70.1759 76.9736L90.5612 56.5882C92.4375 54.7125 92.4375 51.6706 90.5612 49.7939Z" fill="white"/>
</g>
</svg>
