<svg width="84" height="119" viewBox="0 0 84 119" fill="none" xmlns="http://www.w3.org/2000/svg">
<path d="M37.0386 111.76C37.0386 111.76 37.0386 111.8 37.0486 111.82C37.0486 111.84 37.0586 111.87 37.0686 111.89C37.0686 111.91 37.0786 111.93 37.0886 111.95V112L37.1086 112.02C37.1086 112.02 37.1186 112.06 37.1286 112.08C37.1286 112.1 37.1486 112.13 37.1586 112.15C37.1586 112.17 37.1786 112.19 37.1886 112.21L37.2086 112.25V112.28C37.2086 112.28 37.2486 112.32 37.2586 112.34C37.2786 112.37 37.2886 112.4 37.3086 112.42C37.3186 112.44 37.3286 112.45 37.3386 112.47L37.3586 112.5C37.3586 112.5 37.3886 112.54 37.4086 112.56C37.4086 112.57 37.4286 112.59 37.4386 112.6C37.4686 112.63 37.4886 112.66 37.5186 112.69C37.5286 112.7 37.5386 112.72 37.5486 112.73L37.5786 112.77C37.5786 112.77 37.6486 112.84 37.6886 112.88C37.7086 112.9 37.7186 112.91 37.7386 112.93H37.7486L37.7786 112.97L37.7986 112.99C37.7986 112.99 37.8386 113.03 37.8686 113.04C37.8886 113.06 37.9186 113.08 37.9386 113.1C37.9586 113.12 37.9886 113.14 38.0086 113.15H38.0186L38.0586 113.19L38.0886 113.21C38.0886 113.21 38.1386 113.24 38.1686 113.26C38.1986 113.28 38.2286 113.3 38.2586 113.31C38.2986 113.33 38.3286 113.35 38.3686 113.38C38.4686 113.44 38.5786 113.49 38.6886 113.55C38.7186 113.56 38.7486 113.58 38.7786 113.59C38.8786 113.64 38.9786 113.68 39.0786 113.72H39.1186V113.74C39.2286 113.78 39.3486 113.82 39.4586 113.86C39.5386 113.89 39.6186 113.91 39.6986 113.93C39.7586 113.95 39.8186 113.96 39.8886 113.98H39.9086C39.9086 113.98 39.9686 114 39.9886 114C40.0386 114.01 40.0986 114.02 40.1486 114.03C40.2086 114.04 40.2786 114.06 40.3386 114.07C40.3686 114.07 40.3886 114.07 40.4186 114.08C40.5286 114.1 40.6386 114.11 40.7486 114.13H40.8486C40.9086 114.15 40.9786 114.15 41.0386 114.16C41.1486 114.16 41.2486 114.18 41.3586 114.18C41.4286 114.18 41.4986 114.18 41.5686 114.18C41.5986 114.18 41.6286 114.18 41.6486 114.18C41.6886 114.18 41.7286 114.18 41.7786 114.18C41.7986 114.18 41.8086 114.18 41.8286 114.18C41.8986 114.18 41.9686 114.18 42.0486 114.18C42.1286 114.18 42.2086 114.18 42.2886 114.17C42.3586 114.17 42.4386 114.16 42.5086 114.15H42.5686C42.5686 114.15 42.6486 114.13 42.6886 114.13H42.7486C42.8186 114.11 42.8886 114.1 42.9586 114.09C43.0386 114.08 43.1286 114.06 43.2086 114.05C43.2786 114.04 43.3386 114.02 43.4086 114.01H43.4486C43.4486 114.01 43.5386 113.98 43.5886 113.97C43.6286 113.97 43.6686 113.95 43.6986 113.94C43.7586 113.92 43.8286 113.91 43.8886 113.89C43.9186 113.89 43.9586 113.87 43.9886 113.86C44.0886 113.83 44.1786 113.8 44.2786 113.76H44.3186L44.3486 113.73H44.3586C44.4486 113.69 44.5286 113.66 44.6086 113.62C44.6486 113.6 44.6886 113.59 44.7286 113.57C44.8486 113.51 44.9686 113.45 45.0786 113.39C45.2386 113.3 45.3686 113.2 45.4986 113.11C45.5286 113.09 45.5586 113.06 45.5886 113.04C45.7086 112.94 45.8286 112.84 45.9186 112.73C46.0086 112.62 46.0886 112.51 46.1586 112.4C46.1786 112.37 46.1886 112.35 46.2086 112.32C46.2686 112.21 46.3286 112.09 46.3686 111.98C46.3686 111.98 46.3886 111.9 46.3986 111.86C46.4086 111.81 46.4286 111.77 46.4386 111.72C46.4386 111.67 46.4486 111.63 46.4586 111.58C46.4586 111.54 46.4586 111.51 46.4586 111.47V111.45L46.4986 116.22C46.4986 116.93 46.0386 117.63 45.0986 118.17C44.9886 118.23 44.8686 118.29 44.7486 118.35C44.7086 118.37 44.6686 118.39 44.6286 118.4C44.5586 118.43 44.4886 118.46 44.4186 118.49H44.3786C44.3786 118.49 44.3286 118.52 44.2986 118.53C44.2086 118.56 44.1086 118.6 44.0086 118.63C43.9786 118.64 43.9386 118.65 43.9086 118.66C43.8886 118.66 43.8686 118.67 43.8386 118.68C43.7986 118.69 43.7586 118.7 43.7186 118.71C43.6186 118.74 43.5286 118.76 43.4286 118.78C43.3986 118.78 43.3786 118.79 43.3486 118.8C43.3086 118.8 43.2686 118.81 43.2286 118.82C43.1486 118.84 43.0586 118.85 42.9786 118.86C42.9486 118.86 42.9086 118.87 42.8786 118.88C42.8386 118.88 42.8086 118.88 42.7686 118.89C42.6886 118.89 42.6086 118.91 42.5286 118.92C42.4886 118.92 42.4486 118.92 42.4186 118.93C42.3786 118.93 42.3486 118.93 42.3086 118.93C42.2286 118.93 42.1486 118.93 42.0686 118.94C42.0286 118.94 41.9886 118.94 41.9486 118.94C41.9186 118.94 41.8886 118.94 41.8486 118.94C41.7586 118.94 41.6786 118.94 41.5886 118.94C41.5486 118.94 41.4986 118.94 41.4586 118.94C41.4286 118.94 41.4086 118.94 41.3786 118.94C41.2686 118.94 41.1686 118.93 41.0586 118.92C41.0186 118.92 40.9686 118.92 40.9286 118.92C40.9086 118.92 40.8886 118.92 40.8686 118.92C40.8386 118.92 40.8086 118.92 40.7686 118.91C40.6586 118.9 40.5486 118.88 40.4386 118.86C40.4086 118.86 40.3886 118.86 40.3586 118.85H40.3186C40.2686 118.83 40.2186 118.82 40.1686 118.81C40.0786 118.79 39.9886 118.77 39.9086 118.75C39.8486 118.73 39.7886 118.72 39.7186 118.7C39.6386 118.68 39.5586 118.66 39.4786 118.63C39.4586 118.63 39.4386 118.63 39.4286 118.62C39.3286 118.59 39.2386 118.55 39.1386 118.52L39.0986 118.5C38.9986 118.46 38.8986 118.42 38.7986 118.37C38.7686 118.36 38.7386 118.34 38.7086 118.33C38.5986 118.28 38.4886 118.22 38.3886 118.16L38.3286 118.13C38.3286 118.13 38.2986 118.11 38.2786 118.1C38.2486 118.08 38.2186 118.06 38.1886 118.05C38.1586 118.03 38.1386 118.02 38.1186 118C38.0886 117.98 38.0686 117.96 38.0386 117.94C38.0186 117.92 37.9886 117.91 37.9686 117.89C37.9386 117.87 37.9186 117.85 37.8986 117.83C37.8786 117.81 37.8586 117.79 37.8386 117.78C37.8186 117.76 37.7886 117.74 37.7686 117.72L37.7386 117.7L37.7186 117.68C37.7186 117.68 37.6486 117.61 37.6086 117.57L37.5786 117.53C37.5786 117.53 37.4986 117.44 37.4586 117.39C37.4586 117.39 37.4386 117.36 37.4386 117.35C37.4186 117.32 37.3886 117.29 37.3686 117.26C37.3586 117.24 37.3486 117.23 37.3386 117.21C37.3186 117.18 37.2986 117.15 37.2886 117.13V117.11C37.2886 117.11 37.2586 117.09 37.2586 117.08C37.2486 117.06 37.2286 117.03 37.2186 117.01C37.2186 116.99 37.1986 116.97 37.1886 116.95C37.1786 116.93 37.1686 116.9 37.1586 116.88V116.85L37.1386 116.82C37.1386 116.82 37.1186 116.77 37.1186 116.75C37.1186 116.73 37.1086 116.71 37.0986 116.69C37.0986 116.67 37.0886 116.64 37.0786 116.62C37.0786 116.61 37.0786 116.6 37.0786 116.58V116.55C37.0786 116.55 37.0686 116.5 37.0586 116.48C37.0586 116.46 37.0586 116.44 37.0586 116.42C37.0586 116.4 37.0586 116.37 37.0586 116.35C37.0586 116.34 37.0586 116.32 37.0586 116.31C37.0586 116.3 37.0586 116.52 37.0586 116.51L37.0186 111.49C37.0186 111.49 37.0186 111.55 37.0186 111.57C37.0186 111.59 37.0186 111.62 37.0186 111.64C37.0186 111.66 37.0186 111.68 37.0186 111.7V111.77L37.0386 111.76Z" fill="#DEDAD3"/>
<path d="M38.6186 110.77V110.8C38.6186 110.8 38.6186 110.83 38.6186 110.85V110.89C38.6186 110.89 38.6186 110.92 38.6286 110.94V110.98L38.6486 111.03V111.07L38.6786 111.12V111.14L38.6986 111.16L38.7186 111.21L38.7386 111.25C38.7386 111.25 38.7586 111.28 38.7586 111.3V111.32L38.7786 111.34C38.7786 111.34 38.7986 111.38 38.8086 111.4L38.8286 111.43C38.8286 111.43 38.8586 111.47 38.8686 111.49L38.8886 111.51C38.8886 111.51 38.9386 111.58 38.9686 111.61L38.9886 111.63C38.9886 111.63 39.0386 111.68 39.0586 111.7L39.0786 111.72L39.0986 111.74L39.1486 111.78L39.1886 111.82C39.1886 111.82 39.2186 111.85 39.2386 111.86L39.2886 111.9C39.2886 111.9 39.3286 111.93 39.3386 111.94L39.3886 111.97C39.3886 111.97 39.4286 111.99 39.4486 112.01L39.4786 112.03L39.5186 112.05C39.5886 112.09 39.6586 112.13 39.7286 112.16L39.7886 112.19C39.8586 112.22 39.9186 112.25 39.9886 112.28H40.0186C40.0786 112.31 40.1486 112.34 40.2086 112.36H40.2486C40.2986 112.39 40.3586 112.4 40.4086 112.42C40.4486 112.43 40.4886 112.44 40.5286 112.45C40.5886 112.46 40.6486 112.48 40.6986 112.49C40.7286 112.49 40.7686 112.51 40.7986 112.51H40.8786C40.9486 112.53 41.0186 112.54 41.0986 112.55H41.1986C41.1986 112.55 41.2586 112.57 41.2886 112.57C41.3586 112.57 41.4286 112.58 41.4986 112.58C41.5186 112.58 41.5286 112.58 41.5486 112.58C41.5786 112.58 41.6086 112.58 41.6386 112.58C41.6986 112.58 41.7586 112.58 41.8086 112.58C41.8286 112.58 41.8486 112.58 41.8686 112.58C41.8986 112.58 41.9186 112.58 41.9486 112.58C41.9986 112.58 42.0586 112.58 42.1086 112.58C42.1286 112.58 42.1586 112.58 42.1786 112.58C42.2086 112.58 42.2286 112.58 42.2586 112.58C42.3086 112.58 42.3686 112.57 42.4186 112.56C42.4386 112.56 42.4686 112.56 42.4886 112.56C42.5086 112.56 42.5286 112.56 42.5586 112.55C42.6186 112.55 42.6686 112.53 42.7286 112.52C42.7586 112.52 42.7786 112.52 42.8086 112.51C42.8286 112.51 42.8386 112.51 42.8586 112.5C42.9286 112.49 42.9886 112.47 43.0586 112.45C43.0886 112.45 43.1086 112.44 43.1386 112.43H43.1786C43.1786 112.43 43.2186 112.4 43.2486 112.4C43.3186 112.38 43.3786 112.36 43.4386 112.33C43.4586 112.33 43.4786 112.32 43.4886 112.31H43.5186C43.5186 112.31 43.6086 112.26 43.6586 112.24C43.6886 112.23 43.7186 112.22 43.7386 112.2C43.8186 112.16 43.8986 112.12 43.9686 112.08C44.5886 111.72 44.8986 111.25 44.8986 110.78L44.8686 109.49C44.9286 109.52 44.9986 109.55 45.0586 109.58C45.9786 110.11 46.4386 110.81 46.4286 111.51V111.53C46.4286 111.61 46.4286 111.69 46.4086 111.78C46.4086 111.83 46.3886 111.87 46.3686 111.92C46.3586 111.96 46.3486 112 46.3386 112.04C46.2986 112.16 46.2486 112.27 46.1786 112.38C46.1586 112.41 46.1486 112.43 46.1286 112.46C46.0586 112.57 45.9786 112.68 45.8886 112.78C45.7886 112.9 45.6786 113 45.5586 113.1C45.5286 113.12 45.4986 113.15 45.4686 113.17C45.3386 113.27 45.1986 113.36 45.0486 113.45C44.8186 113.58 44.5786 113.7 44.3186 113.8H44.2886C44.0586 113.9 43.8086 113.97 43.5586 114.03C43.5086 114.04 43.4686 114.05 43.4186 114.06C43.1686 114.12 42.9186 114.16 42.6586 114.19C42.6186 114.19 42.5786 114.19 42.5386 114.2C42.2786 114.23 42.0186 114.24 41.7486 114.24C41.7086 114.24 41.6686 114.24 41.6186 114.24C41.3486 114.24 41.0686 114.22 40.8086 114.19H40.7686C40.4986 114.15 40.2286 114.11 39.9786 114.05C39.9486 114.05 39.9186 114.04 39.8986 114.03C39.6286 113.96 39.3586 113.89 39.1086 113.79H39.0986C38.8386 113.68 38.5986 113.57 38.3686 113.44C38.2586 113.38 38.1586 113.31 38.0686 113.25L38.0286 113.22C37.9386 113.16 37.8586 113.09 37.7786 113.03L37.7486 113C37.6686 112.93 37.5986 112.86 37.5386 112.79C37.5286 112.78 37.5186 112.76 37.5086 112.75C37.4486 112.69 37.3986 112.62 37.3486 112.55L37.3286 112.52C37.2786 112.45 37.2386 112.37 37.1986 112.3L37.1786 112.27C37.1386 112.2 37.1086 112.12 37.0886 112.05V112.02C37.0486 111.94 37.0386 111.87 37.0186 111.79V111.76C36.8986 110.98 37.3586 110.17 38.3886 109.58C38.4586 109.54 38.5486 109.51 38.6286 109.47L38.5986 110.8V110.83L38.6186 110.77Z" fill="#FDFDFD"/>
<path d="M37.5186 112.7C37.5186 112.7 37.5386 112.73 37.5486 112.74C37.5386 112.73 37.5286 112.71 37.5186 112.7Z" fill="#FDFDFD"/>
<path d="M41.7486 74.55C42.5686 74.55 43.3786 74.51 44.1886 74.45L44.9086 109.43C43.1286 108.5 40.4486 108.5 38.6486 109.41L39.3386 74.46C40.1386 74.52 40.9386 74.56 41.7486 74.56V74.55Z" fill="#DEDAD3"/>
<path d="M44.9086 109.43L44.9386 110.72C44.9386 111.19 44.6286 111.66 44.0086 112.02C43.9386 112.06 43.8586 112.1 43.7786 112.14C43.7486 112.15 43.7286 112.16 43.6986 112.18C43.6486 112.2 43.6086 112.22 43.5586 112.24H43.5286C43.5286 112.24 43.4886 112.26 43.4786 112.27C43.4186 112.29 43.3486 112.32 43.2886 112.34C43.2686 112.34 43.2486 112.35 43.2186 112.36H43.1786C43.1786 112.36 43.1286 112.39 43.0986 112.39C43.0386 112.41 42.9686 112.42 42.8986 112.44C42.8786 112.44 42.8686 112.44 42.8486 112.45C42.8186 112.45 42.7986 112.45 42.7686 112.46C42.7086 112.47 42.6586 112.48 42.5986 112.49C42.5786 112.49 42.5586 112.49 42.5286 112.5C42.5086 112.5 42.4786 112.5 42.4586 112.5C42.4086 112.5 42.3586 112.51 42.2986 112.52C42.2686 112.52 42.2486 112.52 42.2186 112.52C42.1986 112.52 42.1686 112.52 42.1486 112.52C42.0986 112.52 42.0386 112.52 41.9886 112.52C41.9586 112.52 41.9386 112.52 41.9086 112.52C41.8886 112.52 41.8686 112.52 41.8486 112.52C41.7886 112.52 41.7286 112.52 41.6786 112.52C41.6486 112.52 41.6186 112.52 41.5886 112.52C41.5686 112.52 41.5586 112.52 41.5386 112.52C41.4686 112.52 41.3986 112.52 41.3286 112.51C41.2986 112.51 41.2686 112.51 41.2386 112.51H41.1386C41.0686 112.49 40.9886 112.48 40.9186 112.47H40.8386C40.8386 112.47 40.7686 112.44 40.7386 112.44C40.6786 112.43 40.6186 112.42 40.5686 112.4C40.5286 112.39 40.4886 112.38 40.4486 112.37C40.3986 112.36 40.3386 112.34 40.2886 112.32H40.2486C40.1886 112.29 40.1186 112.27 40.0586 112.24H40.0286C39.9586 112.2 39.8886 112.17 39.8286 112.14L39.7686 112.11C39.6986 112.07 39.6286 112.04 39.5586 112L39.5186 111.98L39.4886 111.96C39.4886 111.96 39.4486 111.94 39.4286 111.92L39.3786 111.89C39.3786 111.89 39.3386 111.87 39.3286 111.85L39.2786 111.81C39.2786 111.81 39.2486 111.78 39.2286 111.77L39.1886 111.73L39.1386 111.69L39.1186 111.67L39.0986 111.65C39.0986 111.65 39.0486 111.6 39.0286 111.58L39.0086 111.56C39.0086 111.56 38.9486 111.5 38.9286 111.46L38.9086 111.43C38.9086 111.43 38.8786 111.39 38.8686 111.37L38.8486 111.34C38.8486 111.34 38.8286 111.3 38.8186 111.28V111.26L38.7986 111.24C38.7986 111.24 38.7786 111.21 38.7786 111.19L38.7586 111.15L38.7386 111.1V111.08L38.7186 111.06L38.6986 111.01V110.97L38.6786 110.92V110.88C38.6786 110.88 38.6686 110.85 38.6586 110.83V110.79C38.6586 110.79 38.6586 110.76 38.6586 110.74V110.68L38.6786 109.35C40.4786 108.44 43.1686 108.44 44.9386 109.37L44.9086 109.43Z" fill="#DEDAD3"/>
<path d="M39.3386 74.45L39.9186 45C40.4586 45.29 41.0886 45.46 41.7486 45.46C42.4086 45.46 43.0386 45.29 43.5886 45L44.1886 74.45C43.3786 74.51 42.5686 74.55 41.7486 74.55C40.9286 74.55 40.1386 74.51 39.3386 74.45V74.45Z" fill="#C6C4C2"/>
<mask id="mask0_17_21053" style="mask-type:alpha" maskUnits="userSpaceOnUse" x="37" y="45" width="10" height="74">
<path d="M37.0386 111.76C37.0386 111.76 37.0386 111.8 37.0486 111.82C37.0486 111.84 37.0586 111.87 37.0686 111.89C37.0686 111.91 37.0786 111.93 37.0886 111.95V112L37.1086 112.02C37.1086 112.02 37.1186 112.06 37.1286 112.08C37.1286 112.1 37.1486 112.13 37.1586 112.15C37.1586 112.17 37.1786 112.19 37.1886 112.21L37.2086 112.25V112.28C37.2086 112.28 37.2486 112.32 37.2586 112.34C37.2786 112.37 37.2886 112.4 37.3086 112.42C37.3186 112.44 37.3286 112.45 37.3386 112.47L37.3586 112.5C37.3586 112.5 37.3886 112.54 37.4086 112.56C37.4086 112.57 37.4286 112.59 37.4386 112.6C37.4686 112.63 37.4886 112.66 37.5186 112.69C37.5286 112.7 37.5386 112.72 37.5486 112.73L37.5786 112.77C37.5786 112.77 37.6486 112.84 37.6886 112.88C37.7086 112.9 37.7186 112.91 37.7386 112.93H37.7486L37.7786 112.97L37.7986 112.99C37.7986 112.99 37.8386 113.03 37.8686 113.04C37.8886 113.06 37.9186 113.08 37.9386 113.1C37.9586 113.12 37.9886 113.14 38.0086 113.15H38.0186L38.0586 113.19L38.0886 113.21C38.0886 113.21 38.1386 113.24 38.1686 113.26C38.1986 113.28 38.2286 113.3 38.2586 113.31C38.2986 113.33 38.3286 113.35 38.3686 113.38C38.4686 113.44 38.5786 113.49 38.6886 113.55C38.7186 113.56 38.7486 113.58 38.7786 113.59C38.8786 113.64 38.9786 113.68 39.0786 113.72H39.1186V113.74C39.2286 113.78 39.3486 113.82 39.4586 113.86C39.5386 113.89 39.6186 113.91 39.6986 113.93C39.7586 113.95 39.8186 113.96 39.8886 113.98H39.9086C39.9086 113.98 39.9686 114 39.9886 114C40.0386 114.01 40.0986 114.02 40.1486 114.03C40.2086 114.04 40.2786 114.06 40.3386 114.07C40.3686 114.07 40.3886 114.07 40.4186 114.08C40.5286 114.1 40.6386 114.11 40.7486 114.13H40.8486C40.9086 114.15 40.9786 114.15 41.0386 114.16C41.1486 114.16 41.2486 114.18 41.3586 114.18C41.4286 114.18 41.4986 114.18 41.5686 114.18C41.5986 114.18 41.6286 114.18 41.6486 114.18C41.6886 114.18 41.7286 114.18 41.7786 114.18C41.7986 114.18 41.8086 114.18 41.8286 114.18C41.8986 114.18 41.9686 114.18 42.0486 114.18C42.1286 114.18 42.2086 114.18 42.2886 114.17C42.3586 114.17 42.4386 114.16 42.5086 114.15H42.5686C42.5686 114.15 42.6486 114.13 42.6886 114.13H42.7486C42.8186 114.11 42.8886 114.1 42.9586 114.09C43.0386 114.08 43.1286 114.06 43.2086 114.05C43.2786 114.04 43.3386 114.02 43.4086 114.01H43.4486C43.4486 114.01 43.5386 113.98 43.5886 113.97C43.6286 113.97 43.6686 113.95 43.6986 113.94C43.7586 113.92 43.8286 113.91 43.8886 113.89C43.9186 113.89 43.9586 113.87 43.9886 113.86C44.0886 113.83 44.1786 113.8 44.2786 113.76H44.3186L44.3486 113.73H44.3586C44.4486 113.69 44.5286 113.66 44.6086 113.62C44.6486 113.6 44.6886 113.59 44.7286 113.57C44.8486 113.51 44.9686 113.45 45.0786 113.39C45.2386 113.3 45.3686 113.2 45.4986 113.11C45.5286 113.09 45.5586 113.06 45.5886 113.04C45.7086 112.94 45.8286 112.84 45.9186 112.73C46.0086 112.62 46.0886 112.51 46.1586 112.4C46.1786 112.37 46.1886 112.35 46.2086 112.32C46.2686 112.21 46.3286 112.09 46.3686 111.98C46.3686 111.98 46.3886 111.9 46.3986 111.86C46.4086 111.81 46.4286 111.77 46.4386 111.72C46.4386 111.67 46.4486 111.63 46.4586 111.58C46.4586 111.54 46.4586 111.51 46.4586 111.47V111.45L46.4986 116.22C46.4986 116.93 46.0386 117.63 45.0986 118.17C44.9886 118.23 44.8686 118.29 44.7486 118.35C44.7086 118.37 44.6686 118.39 44.6286 118.4C44.5586 118.43 44.4886 118.46 44.4186 118.49H44.3786C44.3786 118.49 44.3286 118.52 44.2986 118.53C44.2086 118.56 44.1086 118.6 44.0086 118.63C43.9786 118.64 43.9386 118.65 43.9086 118.66C43.8886 118.66 43.8686 118.67 43.8386 118.68C43.7986 118.69 43.7586 118.7 43.7186 118.71C43.6186 118.74 43.5286 118.76 43.4286 118.78C43.3986 118.78 43.3786 118.79 43.3486 118.8C43.3086 118.8 43.2686 118.81 43.2286 118.82C43.1486 118.84 43.0586 118.85 42.9786 118.86C42.9486 118.86 42.9086 118.87 42.8786 118.88C42.8386 118.88 42.8086 118.88 42.7686 118.89C42.6886 118.89 42.6086 118.91 42.5286 118.92C42.4886 118.92 42.4486 118.92 42.4186 118.93C42.3786 118.93 42.3486 118.93 42.3086 118.93C42.2286 118.93 42.1486 118.93 42.0686 118.94C42.0286 118.94 41.9886 118.94 41.9486 118.94C41.9186 118.94 41.8886 118.94 41.8486 118.94C41.7586 118.94 41.6786 118.94 41.5886 118.94C41.5486 118.94 41.4986 118.94 41.4586 118.94C41.4286 118.94 41.4086 118.94 41.3786 118.94C41.2686 118.94 41.1686 118.93 41.0586 118.92C41.0186 118.92 40.9686 118.92 40.9286 118.92C40.9086 118.92 40.8886 118.92 40.8686 118.92C40.8386 118.92 40.8086 118.92 40.7686 118.91C40.6586 118.9 40.5486 118.88 40.4386 118.86C40.4086 118.86 40.3886 118.86 40.3586 118.85H40.3186C40.2686 118.83 40.2186 118.82 40.1686 118.81C40.0786 118.79 39.9886 118.77 39.9086 118.75C39.8486 118.73 39.7886 118.72 39.7186 118.7C39.6386 118.68 39.5586 118.66 39.4786 118.63C39.4586 118.63 39.4386 118.63 39.4286 118.62C39.3286 118.59 39.2386 118.55 39.1386 118.52L39.0986 118.5C38.9986 118.46 38.8986 118.42 38.7986 118.37C38.7686 118.36 38.7386 118.34 38.7086 118.33C38.5986 118.28 38.4886 118.22 38.3886 118.16L38.3286 118.13C38.3286 118.13 38.2986 118.11 38.2786 118.1C38.2486 118.08 38.2186 118.06 38.1886 118.05C38.1586 118.03 38.1386 118.02 38.1186 118C38.0886 117.98 38.0686 117.96 38.0386 117.94C38.0186 117.92 37.9886 117.91 37.9686 117.89C37.9386 117.87 37.9186 117.85 37.8986 117.83C37.8786 117.81 37.8586 117.79 37.8386 117.78C37.8186 117.76 37.7886 117.74 37.7686 117.72L37.7386 117.7L37.7186 117.68C37.7186 117.68 37.6486 117.61 37.6086 117.57L37.5786 117.53C37.5786 117.53 37.4986 117.44 37.4586 117.39C37.4586 117.39 37.4386 117.36 37.4386 117.35C37.4186 117.32 37.3886 117.29 37.3686 117.26C37.3586 117.24 37.3486 117.23 37.3386 117.21C37.3186 117.18 37.2986 117.15 37.2886 117.13V117.11C37.2886 117.11 37.2586 117.09 37.2586 117.08C37.2486 117.06 37.2286 117.03 37.2186 117.01C37.2186 116.99 37.1986 116.97 37.1886 116.95C37.1786 116.93 37.1686 116.9 37.1586 116.88V116.85L37.1386 116.82C37.1386 116.82 37.1186 116.77 37.1186 116.75C37.1186 116.73 37.1086 116.71 37.0986 116.69C37.0986 116.67 37.0886 116.64 37.0786 116.62C37.0786 116.61 37.0786 116.6 37.0786 116.58V116.55C37.0786 116.55 37.0686 116.5 37.0586 116.48C37.0586 116.46 37.0586 116.44 37.0586 116.42C37.0586 116.4 37.0586 116.37 37.0586 116.35C37.0586 116.34 37.0586 116.32 37.0586 116.31C37.0586 116.3 37.0586 116.52 37.0586 116.51L37.0186 111.49C37.0186 111.49 37.0186 111.55 37.0186 111.57C37.0186 111.59 37.0186 111.62 37.0186 111.64C37.0186 111.66 37.0186 111.68 37.0186 111.7V111.77L37.0386 111.76Z" fill="#DEDAD3"/>
<path d="M38.6186 110.77V110.8C38.6186 110.8 38.6186 110.83 38.6186 110.85V110.89C38.6186 110.89 38.6186 110.92 38.6286 110.94V110.98L38.6486 111.03V111.07L38.6786 111.12V111.14L38.6986 111.16L38.7186 111.21L38.7386 111.25C38.7386 111.25 38.7586 111.28 38.7586 111.3V111.32L38.7786 111.34C38.7786 111.34 38.7986 111.38 38.8086 111.4L38.8286 111.43C38.8286 111.43 38.8586 111.47 38.8686 111.49L38.8886 111.51C38.8886 111.51 38.9386 111.58 38.9686 111.61L38.9886 111.63C38.9886 111.63 39.0386 111.68 39.0586 111.7L39.0786 111.72L39.0986 111.74L39.1486 111.78L39.1886 111.82C39.1886 111.82 39.2186 111.85 39.2386 111.86L39.2886 111.9C39.2886 111.9 39.3286 111.93 39.3386 111.94L39.3886 111.97C39.3886 111.97 39.4286 111.99 39.4486 112.01L39.4786 112.03L39.5186 112.05C39.5886 112.09 39.6586 112.13 39.7286 112.16L39.7886 112.19C39.8586 112.22 39.9186 112.25 39.9886 112.28H40.0186C40.0786 112.31 40.1486 112.34 40.2086 112.36H40.2486C40.2986 112.39 40.3586 112.4 40.4086 112.42C40.4486 112.43 40.4886 112.44 40.5286 112.45C40.5886 112.46 40.6486 112.48 40.6986 112.49C40.7286 112.49 40.7686 112.51 40.7986 112.51H40.8786C40.9486 112.53 41.0186 112.54 41.0986 112.55H41.1986C41.1986 112.55 41.2586 112.57 41.2886 112.57C41.3586 112.57 41.4286 112.58 41.4986 112.58C41.5186 112.58 41.5286 112.58 41.5486 112.58C41.5786 112.58 41.6086 112.58 41.6386 112.58C41.6986 112.58 41.7586 112.58 41.8086 112.58C41.8286 112.58 41.8486 112.58 41.8686 112.58C41.8986 112.58 41.9186 112.58 41.9486 112.58C41.9986 112.58 42.0586 112.58 42.1086 112.58C42.1286 112.58 42.1586 112.58 42.1786 112.58C42.2086 112.58 42.2286 112.58 42.2586 112.58C42.3086 112.58 42.3686 112.57 42.4186 112.56C42.4386 112.56 42.4686 112.56 42.4886 112.56C42.5086 112.56 42.5286 112.56 42.5586 112.55C42.6186 112.55 42.6686 112.53 42.7286 112.52C42.7586 112.52 42.7786 112.52 42.8086 112.51C42.8286 112.51 42.8386 112.51 42.8586 112.5C42.9286 112.49 42.9886 112.47 43.0586 112.45C43.0886 112.45 43.1086 112.44 43.1386 112.43H43.1786C43.1786 112.43 43.2186 112.4 43.2486 112.4C43.3186 112.38 43.3786 112.36 43.4386 112.33C43.4586 112.33 43.4786 112.32 43.4886 112.31H43.5186C43.5186 112.31 43.6086 112.26 43.6586 112.24C43.6886 112.23 43.7186 112.22 43.7386 112.2C43.8186 112.16 43.8986 112.12 43.9686 112.08C44.5886 111.72 44.8986 111.25 44.8986 110.78L44.8686 109.49C44.9286 109.52 44.9986 109.55 45.0586 109.58C45.9786 110.11 46.4386 110.81 46.4286 111.51V111.53C46.4286 111.61 46.4286 111.69 46.4086 111.78C46.4086 111.83 46.3886 111.87 46.3686 111.92C46.3586 111.96 46.3486 112 46.3386 112.04C46.2986 112.16 46.2486 112.27 46.1786 112.38C46.1586 112.41 46.1486 112.43 46.1286 112.46C46.0586 112.57 45.9786 112.68 45.8886 112.78C45.7886 112.9 45.6786 113 45.5586 113.1C45.5286 113.12 45.4986 113.15 45.4686 113.17C45.3386 113.27 45.1986 113.36 45.0486 113.45C44.8186 113.58 44.5786 113.7 44.3186 113.8H44.2886C44.0586 113.9 43.8086 113.97 43.5586 114.03C43.5086 114.04 43.4686 114.05 43.4186 114.06C43.1686 114.12 42.9186 114.16 42.6586 114.19C42.6186 114.19 42.5786 114.19 42.5386 114.2C42.2786 114.23 42.0186 114.24 41.7486 114.24C41.7086 114.24 41.6686 114.24 41.6186 114.24C41.3486 114.24 41.0686 114.22 40.8086 114.19H40.7686C40.4986 114.15 40.2286 114.11 39.9786 114.05C39.9486 114.05 39.9186 114.04 39.8986 114.03C39.6286 113.96 39.3586 113.89 39.1086 113.79H39.0986C38.8386 113.68 38.5986 113.57 38.3686 113.44C38.2586 113.38 38.1586 113.31 38.0686 113.25L38.0286 113.22C37.9386 113.16 37.8586 113.09 37.7786 113.03L37.7486 113C37.6686 112.93 37.5986 112.86 37.5386 112.79C37.5286 112.78 37.5186 112.76 37.5086 112.75C37.4486 112.69 37.3986 112.62 37.3486 112.55L37.3286 112.52C37.2786 112.45 37.2386 112.37 37.1986 112.3L37.1786 112.27C37.1386 112.2 37.1086 112.12 37.0886 112.05V112.02C37.0486 111.94 37.0386 111.87 37.0186 111.79V111.76C36.8986 110.98 37.3586 110.17 38.3886 109.58C38.4586 109.54 38.5486 109.51 38.6286 109.47L38.5986 110.8V110.83L38.6186 110.77Z" fill="#FDFDFD"/>
<path d="M37.5186 112.7C37.5186 112.7 37.5386 112.73 37.5486 112.74C37.5386 112.73 37.5286 112.71 37.5186 112.7Z" fill="#FDFDFD"/>
<path d="M41.7486 74.55C42.5686 74.55 43.3786 74.51 44.1886 74.45L44.9086 109.43C43.1286 108.5 40.4486 108.5 38.6486 109.41L39.3386 74.46C40.1386 74.52 40.9386 74.56 41.7486 74.56V74.55Z" fill="#DEDAD3"/>
<path d="M44.9086 109.43L44.9386 110.72C44.9386 111.19 44.6286 111.66 44.0086 112.02C43.9386 112.06 43.8586 112.1 43.7786 112.14C43.7486 112.15 43.7286 112.16 43.6986 112.18C43.6486 112.2 43.6086 112.22 43.5586 112.24H43.5286C43.5286 112.24 43.4886 112.26 43.4786 112.27C43.4186 112.29 43.3486 112.32 43.2886 112.34C43.2686 112.34 43.2486 112.35 43.2186 112.36H43.1786C43.1786 112.36 43.1286 112.39 43.0986 112.39C43.0386 112.41 42.9686 112.42 42.8986 112.44C42.8786 112.44 42.8686 112.44 42.8486 112.45C42.8186 112.45 42.7986 112.45 42.7686 112.46C42.7086 112.47 42.6586 112.48 42.5986 112.49C42.5786 112.49 42.5586 112.49 42.5286 112.5C42.5086 112.5 42.4786 112.5 42.4586 112.5C42.4086 112.5 42.3586 112.51 42.2986 112.52C42.2686 112.52 42.2486 112.52 42.2186 112.52C42.1986 112.52 42.1686 112.52 42.1486 112.52C42.0986 112.52 42.0386 112.52 41.9886 112.52C41.9586 112.52 41.9386 112.52 41.9086 112.52C41.8886 112.52 41.8686 112.52 41.8486 112.52C41.7886 112.52 41.7286 112.52 41.6786 112.52C41.6486 112.52 41.6186 112.52 41.5886 112.52C41.5686 112.52 41.5586 112.52 41.5386 112.52C41.4686 112.52 41.3986 112.52 41.3286 112.51C41.2986 112.51 41.2686 112.51 41.2386 112.51H41.1386C41.0686 112.49 40.9886 112.48 40.9186 112.47H40.8386C40.8386 112.47 40.7686 112.44 40.7386 112.44C40.6786 112.43 40.6186 112.42 40.5686 112.4C40.5286 112.39 40.4886 112.38 40.4486 112.37C40.3986 112.36 40.3386 112.34 40.2886 112.32H40.2486C40.1886 112.29 40.1186 112.27 40.0586 112.24H40.0286C39.9586 112.2 39.8886 112.17 39.8286 112.14L39.7686 112.11C39.6986 112.07 39.6286 112.04 39.5586 112L39.5186 111.98L39.4886 111.96C39.4886 111.96 39.4486 111.94 39.4286 111.92L39.3786 111.89C39.3786 111.89 39.3386 111.87 39.3286 111.85L39.2786 111.81C39.2786 111.81 39.2486 111.78 39.2286 111.77L39.1886 111.73L39.1386 111.69L39.1186 111.67L39.0986 111.65C39.0986 111.65 39.0486 111.6 39.0286 111.58L39.0086 111.56C39.0086 111.56 38.9486 111.5 38.9286 111.46L38.9086 111.43C38.9086 111.43 38.8786 111.39 38.8686 111.37L38.8486 111.34C38.8486 111.34 38.8286 111.3 38.8186 111.28V111.26L38.7986 111.24C38.7986 111.24 38.7786 111.21 38.7786 111.19L38.7586 111.15L38.7386 111.1V111.08L38.7186 111.06L38.6986 111.01V110.97L38.6786 110.92V110.88C38.6786 110.88 38.6686 110.85 38.6586 110.83V110.79C38.6586 110.79 38.6586 110.76 38.6586 110.74V110.68L38.6786 109.35C40.4786 108.44 43.1686 108.44 44.9386 109.37L44.9086 109.43Z" fill="#DEDAD3"/>
<path d="M39.3386 74.45L39.9186 45C40.4586 45.29 41.0886 45.46 41.7486 45.46C42.4086 45.46 43.0386 45.29 43.5886 45L44.1886 74.45C43.3786 74.51 42.5686 74.55 41.7486 74.55C40.9286 74.55 40.1386 74.51 39.3386 74.45V74.45Z" fill="#C6C4C2"/>
</mask>
<g mask="url(#mask0_17_21053)">
<path opacity="0.6" d="M-6.4 103.77V104.5C-2.29 106.62 1.37 104.5 1.37 104.5L1.28 100.1L98.36 53.76L98.18 62.3C102.31 64.42 105.97 62.3 105.97 62.3L105.73 50.2401L148.13 30V103.5L-57 202.37V127.92L-6.41 103.77H-6.4Z" fill="#6DC6DC"/>
</g>
</svg>
