<svg width="1218" height="820" viewBox="0 0 1218 820" fill="none" xmlns="http://www.w3.org/2000/svg">
<g clip-path="url(#clip0_152_5)">
<path d="M714.34 358.83L714.36 362.87L714.6 363.01L714.58 358.97L714.34 358.83Z" fill="#D8D8D8"/>
<path d="M714.58 358.97L714.6 363.01L714.85 362.87L714.83 358.83L714.58 358.97Z" fill="white"/>
<path d="M716.5 352.55L716.52 356.59L716.77 356.73L716.75 352.69L716.5 352.55Z" fill="#D8D8D8"/>
<path d="M716.75 352.69L716.77 356.73L717.01 356.59L716.99 352.55L716.75 352.69Z" fill="white"/>
<path d="M706.48 354.39L706.5 358.43L706.74 358.57L706.72 354.53L706.48 354.39Z" fill="#D8D8D8"/>
<path d="M706.72 354.53L706.74 358.57L706.99 358.42L706.97 354.38L706.72 354.53Z" fill="white"/>
<path d="M717.36 357.06L717.38 361.1L717.62 361.24L717.6 357.2L717.36 357.06Z" fill="#D8D8D8"/>
<path d="M717.6 357.2L717.62 361.24L717.87 361.1L717.85 357.06L717.6 357.2Z" fill="white"/>
<path d="M709.53 352.24L708.5 352.84L717.51 357.98L718.54 357.37L709.53 352.24Z" fill="#ECB08F"/>
<path d="M708.5 352.84V353.19L717.51 358.32V357.98L708.5 352.84Z" fill="#C6815C"/>
<path d="M717.51 357.98V358.32L718.54 357.72V357.37L717.51 357.98Z" fill="#9D5D37"/>
<path d="M708.28 352.98L707.25 353.58L716.27 358.71L717.29 358.11L708.28 352.98Z" fill="#ECB08F"/>
<path d="M707.25 353.58V353.92L716.27 359.06V358.71L707.25 353.58Z" fill="#C6815C"/>
<path d="M716.27 358.71V359.06L717.29 358.45V358.11L716.27 358.71Z" fill="#9D5D37"/>
<path d="M707.03 353.71L706.01 354.31L715.02 359.45L716.04 358.84L707.03 353.71Z" fill="#ECB08F"/>
<path d="M706.01 354.31V354.66L715.02 359.79V359.45L706.01 354.31Z" fill="#C6815C"/>
<path d="M715.02 359.45V359.79L716.04 359.19V358.84L715.02 359.45Z" fill="#9D5D37"/>
<path d="M709.29 350.13V351.32L718.3 356.45V355.26L709.29 350.13Z" fill="#ECB08F"/>
<path d="M718.3 356.45L718.6 356.28L718.59 355.09L718.3 355.26V356.45Z" fill="#9D5D37"/>
<path d="M718.3 355.26L718.59 355.09L709.58 349.95L709.29 350.13L718.3 355.26Z" fill="#C6815C"/>
<path d="M709.27 348.15L709.28 349.34L718.29 354.47V353.28L709.27 348.15Z" fill="#ECB08F"/>
<path d="M718.29 354.47L718.59 354.3L718.58 353.11L718.29 353.28V354.47Z" fill="#9D5D37"/>
<path d="M718.29 353.28L718.58 353.11L709.57 347.97L709.27 348.15L718.29 353.28Z" fill="#C6815C"/>
<path d="M724.28 364.36L724.3 368.4L724.55 368.54L724.53 364.5L724.28 364.36Z" fill="#D8D8D8"/>
<path d="M724.53 364.5L724.55 368.54L724.79 368.4L724.77 364.36L724.53 364.5Z" fill="white"/>
<path d="M726.44 358.08L726.46 362.12L726.71 362.26L726.69 358.22L726.44 358.08Z" fill="#D8D8D8"/>
<path d="M726.69 358.22L726.71 362.26L726.96 362.12L726.93 358.08L726.69 358.22Z" fill="white"/>
<path d="M716.42 359.91L716.44 363.95L716.69 364.09L716.67 360.05L716.42 359.91Z" fill="#D8D8D8"/>
<path d="M716.67 360.05L716.69 364.09L716.93 363.95L716.91 359.91L716.67 360.05Z" fill="white"/>
<path d="M727.3 362.59L727.32 366.63L727.57 366.77L727.55 362.73L727.3 362.59Z" fill="#D8D8D8"/>
<path d="M727.55 362.73L727.57 366.77L727.81 366.63L727.79 362.59L727.55 362.73Z" fill="white"/>
<path d="M719.47 357.77L718.44 358.37L727.46 363.5L728.48 362.9L719.47 357.77Z" fill="#ECB08F"/>
<path d="M718.44 358.37L718.45 358.71L727.46 363.85V363.5L718.44 358.37Z" fill="#C6815C"/>
<path d="M727.46 363.5V363.85L728.48 363.24V362.9L727.46 363.5Z" fill="#9D5D37"/>
<path d="M718.22 358.5L717.2 359.11L726.21 364.24L727.23 363.64L718.22 358.5Z" fill="#ECB08F"/>
<path d="M717.2 359.11V359.45L726.21 364.58V364.24L717.2 359.11Z" fill="#C6815C"/>
<path d="M726.21 364.24V364.58L727.23 363.98V363.64L726.21 364.24Z" fill="#9D5D37"/>
<path d="M716.97 359.24L715.95 359.84L724.96 364.97L725.98 364.37L716.97 359.24Z" fill="#ECB08F"/>
<path d="M715.95 359.84V360.18L724.96 365.32V364.97L715.95 359.84Z" fill="#C6815C"/>
<path d="M724.96 364.97V365.32L725.99 364.71L725.98 364.37L724.96 364.97Z" fill="#9D5D37"/>
<path d="M719.23 355.65V356.84L728.24 361.98V360.79L719.23 355.65Z" fill="#ECB08F"/>
<path d="M728.24 361.98L728.54 361.8V360.61L728.24 360.79V361.98Z" fill="#9D5D37"/>
<path d="M728.24 360.79L728.54 360.61L719.52 355.48L719.23 355.65L728.24 360.79Z" fill="#C6815C"/>
<path d="M719.22 353.67V354.86L728.23 360V358.81L719.22 353.67Z" fill="#ECB08F"/>
<path d="M728.23 360L728.53 359.82V358.63L728.23 358.81V360Z" fill="#9D5D37"/>
<path d="M728.23 358.81L728.53 358.63L719.51 353.5L719.22 353.67L728.23 358.81Z" fill="#C6815C"/>
<path d="M731.04 368.53L731.97 373.41L732.96 373.97L732.27 369.24L731.04 368.53Z" fill="#CCCCD4"/>
<path d="M732.27 369.24L732.96 373.97L739.06 370.4L739.91 364.78L732.27 369.24Z" fill="#F2F2F2"/>
<path d="M731.04 368.53L732.27 369.24L739.91 364.78L738.67 364.07L731.04 368.53Z" fill="#E8E8FC"/>
<path opacity="0.6" d="M730.94 353.08L731.04 368.53L732.27 369.24L732.18 353.79L730.94 353.08Z" fill="#1CAFCC"/>
<path opacity="0.6" d="M732.18 353.79V354.35L732.2 357.68L732.28 369.24L739.91 364.78L739.88 360.96L739.86 357.63L739.85 355.98L739.84 354.65L739.81 349.33L734.57 352.39L733.25 353.16L732.18 353.79Z" fill="url(#paint0_linear_152_5)"/>
<path d="M730.94 353.08L732.18 353.79L739.81 349.33L738.57 348.62L730.94 353.08Z" fill="#15D9FD"/>
<path opacity="0.4" d="M733.25 353.16L739.85 355.98L739.84 354.65L734.57 352.39L733.25 353.16Z" fill="white"/>
<path opacity="0.4" d="M732.18 354.35L732.2 357.68L739.88 360.96L739.86 357.63L732.18 354.35Z" fill="white"/>
<path d="M774.4 386.92L747.57 371.31L747.26 354.75L774.31 370.28L774.4 386.92Z" fill="#BABABA"/>
<path d="M774.37 393.77L774.33 387.54L777.28 385.81L777.31 392.83L775.05 394.16L774.37 393.77Z" fill="#AA795E"/>
<path d="M761.99 386.77L761.95 380.54L764.9 378.81L764.93 385.83L762.67 387.16L761.99 386.77Z" fill="#AA795E"/>
<path d="M778.27 384.28L778.62 384.48L778.63 385.75L773.32 388.83L760.28 381.34L760.27 379.83L760.41 379.75L773.31 387.15L778.27 384.28Z" fill="#AA795E"/>
<path d="M765.37 376.87L778.27 384.28L776.06 385.56L763.23 378.11L765.37 376.87Z" fill="#C6906B"/>
<path d="M760.41 379.75L762.52 378.52L775.35 385.97L773.31 387.15L760.41 379.75Z" fill="#C6906B"/>
<path d="M763.23 378.11L776.06 385.56L775.35 385.97L763.24 378.94L763.23 378.11Z" fill="#AA795E"/>
<path d="M738.78 376.33L738.6 343.04L747.39 338.03L747.57 371.31L738.78 376.33Z" fill="#777777"/>
<path d="M745.53 370.13C744.55 370.69 742.93 371.61 740.8 372.83L740.64 344.22C741.62 343.66 743.24 342.74 745.37 341.52L745.53 370.13Z" fill="#00AAB5"/>
<path d="M736.92 342.08L737.1 375.36L738.78 376.33L738.6 343.04L736.92 342.08Z" fill="#969696"/>
<path d="M776.17 404.52L775.99 371.24L790.26 362.84L790.44 396.13L776.17 404.52Z" fill="#777777"/>
<path d="M788.4 394.96L778.19 400.97L778.03 372.4L788.24 366.39L788.4 394.96Z" fill="#6DC6DC"/>
<path d="M790.22 355.84L775.95 364.24L732.86 339.51L747.14 331.11L790.22 355.84Z" fill="#A0A0A0"/>
<path d="M775.95 364.24L790.22 355.84L790.26 362.84L775.99 371.24L732.9 346.51L732.86 339.51L775.95 364.24Z" fill="#8C8C8C"/>
<path d="M767.84 364.94L767.82 361.39L741 345.93L741.02 349.47L767.84 364.94Z" fill="white"/>
<path d="M774.31 370.28L774.49 403.56L776.17 404.52L775.99 371.24L774.31 370.28Z" fill="#969696"/>
<path d="M757.21 382.9L757.18 376.67L760.12 374.94L760.16 381.96L757.89 383.29L757.21 382.9Z" fill="#AA795E"/>
<path d="M744.83 375.9L744.8 369.67L747.74 367.94L747.78 374.96L745.51 376.29L744.83 375.9Z" fill="#AA795E"/>
<path d="M761.11 373.41L761.47 373.61V374.88L756.16 377.96L743.12 370.47L743.11 368.96L743.25 368.88L756.15 376.28L761.11 373.41Z" fill="#AA795E"/>
<path d="M748.21 366L761.11 373.41L758.9 374.69L746.08 367.24L748.21 366Z" fill="#C6906B"/>
<path d="M743.25 368.88L745.36 367.65L758.19 375.1L756.15 376.28L743.25 368.88Z" fill="#C6906B"/>
<path d="M746.08 367.24L758.9 374.69L758.19 375.1L746.08 368.07V367.24Z" fill="#AA795E"/>
<path d="M768.72 381.93C768.9 382.29 768.77 382.75 768.5 383.06C768.24 383.37 767.86 383.56 767.49 383.72C766.39 384.21 765.23 384.64 764.04 384.84C764.06 385.91 764.15 386.2 763.98 387.51C763.85 388.5 763.56 389.25 763.6 390.24C763.6 390.38 763.6 390.91 763.6 391.04C763.6 391.16 763.61 391.31 763.49 391.38C763.36 391.46 763.15 391.47 763.01 391.53C762.72 391.65 762.12 392.19 761.83 392.34C761.55 392.49 760.73 392.48 760.63 392.24C760.57 392.11 760.75 391.82 760.86 391.71C761.2 391.35 761.59 391.11 761.95 390.77C762.08 390.65 762.26 390.45 762.38 390.3C762.47 390.2 762.53 390.08 762.53 389.95C762.58 387.99 762.26 386.82 762.14 384.73C762.12 384.35 762.19 383.95 762.45 383.68C762.71 383.41 763.07 383.24 763.42 383.09L766.41 381.75" fill="#404040"/>
<path d="M768.59 379.65C768.7 380.23 768.77 380.81 768.81 381.39C768.84 381.94 768.84 382.51 768.58 383C768.17 383.76 767.26 384.09 766.43 384.31C765.73 384.49 764.98 384.71 764.26 384.83C764.26 384.83 764.31 387.19 763.96 389.98C763.96 389.98 762.7 390.68 762.13 389.99C762.14 389.41 762.13 385.86 762.13 384.78C762.13 384.51 762.13 384.24 762.22 383.98C762.43 383.38 763.07 382.9 763.61 382.57C764.7 381.91 766.79 380.55 766.79 380.55" fill="#5B5B5B"/>
<path d="M770.39 382.88C770.57 383.24 770.44 383.69 770.17 384C769.91 384.31 769.54 384.49 769.17 384.66C768.08 385.15 766.92 385.58 765.74 385.77C765.76 386.83 765.84 387.12 765.68 388.43C765.56 389.41 765.26 390.15 765.3 391.15C765.3 391.29 765.3 391.82 765.3 391.94C765.3 392.06 765.31 392.2 765.19 392.28C765.06 392.36 764.86 392.37 764.71 392.42C764.42 392.54 763.82 393.08 763.54 393.22C763.26 393.37 762.45 393.36 762.35 393.12C762.29 392.99 762.47 392.7 762.58 392.59C762.92 392.23 763.3 391.99 763.66 391.66C763.79 391.55 763.97 391.34 764.09 391.2C764.17 391.1 764.24 390.98 764.24 390.85C764.29 388.9 763.97 387.74 763.85 385.66C763.83 385.28 763.9 384.89 764.16 384.61C764.42 384.34 764.78 384.18 765.12 384.02L768.09 382.69" fill="#404040"/>
<path d="M770.28 380.59C770.39 381.17 770.46 381.75 770.5 382.33C770.53 382.88 770.53 383.45 770.27 383.94C769.86 384.7 768.95 385.03 768.12 385.25C767.42 385.43 766.67 385.65 765.95 385.77C765.95 385.77 766 388.13 765.65 390.92C765.65 390.92 764.39 391.62 763.82 390.93C763.83 390.35 763.82 386.8 763.82 385.72C763.82 385.45 763.82 385.18 763.91 384.92C764.12 384.32 764.75 383.99 765.32 383.72C766.41 383.22 767.52 382.66 768.65 382.25" fill="#5B5B5B"/>
<path d="M763.83 390.05C763.83 388.76 763.83 386.54 763.83 385.73C763.83 385.46 763.83 385.19 763.92 384.93C764.13 384.33 764.32 384.19 765.14 383.72C766.22 383.11 766.85 382.79 766.85 382.79" stroke="#424242" stroke-width="0.5" stroke-linecap="round" stroke-linejoin="round"/>
<path d="M767.04 373.82C767.04 373.82 766.55 373.69 766.21 373.7C766.1 373.7 766.01 373.74 765.96 373.77C765.7 373.94 765.14 375.27 764.93 375.84C764.8 376.19 764.6 376.65 764.66 377.03C764.72 377.42 765 377.48 765.23 377.8C765.43 378.08 765.78 378.69 765.78 378.69" fill="white"/>
<path d="M769.28 375.48L768.59 375.07L768.55 373.6L767.21 374.18L767.22 374.64L766.32 374.66L766.36 376.24L769.34 377.86L769.28 375.48Z" fill="#FDAD9C"/>
<path d="M768.98 375.01L770.08 375.86C770.42 376.12 770.62 376.52 770.63 376.95V382.68C770.63 382.68 769.95 383.5 768.62 383.06C767.29 382.61 765.82 381.25 765.82 381.25L765.7 375.88C765.68 375.02 766.23 373.66 766.47 373.71L766.83 373.81L767.29 375.28L768.98 375.02V375.01Z" fill="#0082AF"/>
<path d="M768.58 374.61L767.29 375.28L767.21 374.25L766.81 373.99L766.65 375.72L767.29 375.28L767.54 376.09L768.98 375.01L768.58 374.61Z" fill="#FBFFFC"/>
<path d="M767.02 378.44C766.65 378.05 766.12 377.86 765.62 377.93C765.62 378.29 765.82 378.63 766.1 378.81C766.38 378.99 766.72 379.03 767.03 378.95" fill="#FFBFAD"/>
<path d="M769.22 377.31L768.83 379.21L767.09 378.13C767.09 378.13 766.51 378.31 766.57 379.33L768.63 380.87C769.14 381.25 769.87 380.99 770.02 380.37L770.65 378.16C770.65 378.16 771.03 376.27 770.27 376.12C769.51 375.97 769.22 377.32 769.22 377.32V377.31Z" fill="white"/>
<path d="M765.19 376.89C765.31 376.95 765.44 377.08 765.48 377.2L766.17 379.3C766.21 379.42 766.14 379.46 766.02 379.41L765.22 379.04C765.1 378.98 764.97 378.85 764.93 378.73L764.24 376.63C764.2 376.51 764.27 376.47 764.39 376.52L765.19 376.89Z" fill="#E2E5E4"/>
<path d="M765.29 376.82L764.49 376.45C764.43 376.42 764.38 376.42 764.36 376.45L764.26 376.53C764.26 376.53 764.33 376.51 764.39 376.53L765.19 376.9C765.31 376.96 765.44 377.09 765.48 377.21L766.17 379.31C766.19 379.37 766.18 379.41 766.16 379.43L766.26 379.35C766.26 379.35 766.29 379.29 766.27 379.23L765.58 377.13C765.54 377.01 765.41 376.88 765.29 376.82Z" fill="#BCBCBC"/>
<path d="M764.71 377.65C764.89 377.76 765.07 377.94 765.14 378.12C765.21 378.3 765.14 378.52 764.89 378.48C764.74 378.46 764.62 378.37 764.54 378.26C764.43 378.11 764.35 377.89 764.33 377.71C764.3 377.48 764.58 377.57 764.71 377.64V377.65Z" fill="#FFBFAD"/>
<path d="M768.58 373.92C768.94 373.53 769.15 373.06 769.16 372.52C769.18 371.92 768.82 371.44 768.27 371.26C767.79 371.1 767.15 371.12 766.8 371.54C766.58 371.8 766.58 372.15 766.58 372.48C766.58 372.8 766.55 373.12 766.58 373.44C766.62 373.79 766.75 374.29 767.08 374.43C767.47 374.6 768.24 374.28 768.56 373.93L768.58 373.92Z" fill="#FFBFAD"/>
<path d="M766.5 371.73C766.43 371.89 766.39 372.07 766.4 372.26C766.4 372.44 766.49 372.62 766.58 372.75C766.58 372.55 766.58 372.34 766.58 372.34C766.6 372.21 766.71 372.12 766.83 372.09C766.97 372.05 767.12 372.04 767.27 372.07C767.36 372.09 767.44 372.12 767.53 372.14C767.77 372.19 768.02 372.16 768.23 372.03C768.19 372.14 768.14 372.25 768.14 372.36C768.14 372.46 768.16 372.56 768.19 372.66L768.37 373.34C768.42 373.53 768.51 373.84 768.58 374.02C768.99 373.64 769.25 373.06 769.31 372.51C769.33 372.3 769.31 372.01 769.19 371.84C769.11 371.72 768.99 371.63 768.86 371.56C768.84 371.39 768.7 371.26 768.55 371.18C768.37 371.08 768.16 371.03 767.95 371C767.62 370.95 767.26 370.98 766.98 371.18C766.77 371.32 766.61 371.51 766.51 371.72L766.5 371.73Z" fill="#89604C"/>
<path d="M768.29 373.48C768.37 373.3 768.51 372.9 768.77 373.03C768.91 373.1 768.9 373.26 768.85 373.39C768.76 373.6 768.57 373.78 768.38 373.89" fill="#FFBFAD"/>
<path d="M749.14 372.36C748.81 372.59 748.48 372.83 748.16 373.08C747.9 373.28 747.59 373.48 747.38 373.74C747.02 374.18 747.03 374.81 747.06 375.35C747.14 376.99 747.57 377.91 747.51 379.45C747.51 379.55 747.45 379.65 747.39 379.72C747.29 379.83 747.15 379.99 747.05 380.08C746.76 380.34 746.45 380.53 746.19 380.81C746.11 380.89 745.96 381.12 746.01 381.23C746.09 381.42 746.73 381.43 746.95 381.32C747.17 381.21 747.65 380.79 747.88 380.7C747.99 380.65 748.16 380.65 748.26 380.59C748.36 380.53 748.35 380.42 748.35 380.32C748.35 380.22 748.35 379.8 748.35 379.69C748.32 378.91 748.57 378.32 748.67 377.55C748.81 376.52 748.58 375.88 748.57 375.04C749.23 374.63 750.66 373.91 750.66 373.91" fill="#FFBFAD"/>
<path d="M748.45 379.69C748.43 379.03 748.6 378.51 748.71 377.89C748.33 378.03 747.74 377.88 747.37 377.7C747.42 378.23 747.45 378.78 747.42 379.43C747.42 379.53 747.36 379.63 747.3 379.7C747.2 379.81 747.06 379.97 746.96 380.06C746.67 380.32 746.46 380.52 746.19 380.79C746.11 380.87 745.96 381.1 746.01 381.21C746.09 381.4 746.73 381.41 746.95 381.3C747.17 381.19 747.65 380.77 747.88 380.68C747.99 380.63 748.16 380.63 748.26 380.57C748.36 380.51 748.44 380.4 748.45 380.31C748.45 380.21 748.45 379.79 748.45 379.68V379.69Z" fill="#404040"/>
<path d="M750.86 373.12C750.3 373.42 749.74 373.74 749.21 374.09C748.98 374.24 748.73 374.41 748.62 374.66C748.44 375.05 748.55 375.65 748.59 376.06C748.63 376.55 749.14 379.26 749.18 380.23C749.18 380.33 749.14 380.43 749.08 380.51C748.99 380.63 748.86 380.8 748.77 380.9C748.5 381.18 748.21 381.39 747.97 381.69C747.9 381.78 747.77 382.02 747.82 382.12C747.91 382.3 748.55 382.26 748.76 382.13C748.97 382 749.41 381.54 749.64 381.43C749.75 381.38 749.91 381.36 750.01 381.29C750.1 381.22 750.08 381.11 750.08 381.01C750.08 380.91 750.05 380.49 750.04 380.39C749.95 379.61 750.15 379.01 750.19 378.23C750.25 377.19 750.34 376.51 750.27 375.67C751.25 375.5 752.21 375.18 753.1 374.74" fill="#FFBFAD"/>
<path d="M750.86 373.12C750.3 373.42 749.74 373.74 749.21 374.09C748.98 374.24 748.73 374.41 748.62 374.66C748.44 375.05 748.55 375.65 748.59 376.06C748.6 376.21 748.59 376.11 748.66 376.55" stroke="#E09585" stroke-width="0.5" stroke-linecap="round" stroke-linejoin="round"/>
<path d="M750.11 380.4C750.04 379.74 750.16 379.21 750.23 378.59C749.87 378.76 749.26 378.65 748.88 378.51C748.97 379.04 749.04 379.58 749.07 380.23C749.07 380.33 749.03 380.43 748.97 380.51C748.88 380.63 748.75 380.8 748.66 380.9C748.39 381.18 748.2 381.39 747.95 381.69C747.88 381.78 747.75 382.02 747.8 382.12C747.89 382.3 748.53 382.26 748.74 382.13C748.95 382 749.39 381.54 749.62 381.43C749.73 381.38 749.89 381.36 749.99 381.29C750.08 381.22 750.16 381.11 750.16 381.01C750.16 380.91 750.13 380.49 750.12 380.39L750.11 380.4Z" fill="#404040"/>
<path d="M750.14 381.08C750.13 381.31 750.1 381.54 750.07 381.77L749.67 381.89C749.67 381.89 749.57 381.52 749.5 381.29" fill="#404040"/>
<path d="M748.39 380.28C748.38 380.51 748.35 380.74 748.32 380.97L747.92 381.09C747.92 381.09 747.82 380.72 747.75 380.49" fill="#404040"/>
<path d="M754.42 372.84C754.4 373.41 754.32 374.03 753.95 374.47C753.69 374.78 753.3 374.97 752.93 375.12C752.21 375.42 751.46 375.65 750.7 375.82C750.59 375.35 750.1 375.02 749.69 374.77C748.98 374.33 748.27 373.91 747.54 373.51C748.6 372.62 749.72 371.77 750.91 371.07C752 371.81 753.2 372.38 754.43 372.86L754.42 372.84Z" fill="#6B94DF"/>
<path d="M751.08 364.63C751.08 364.63 750.62 364.51 750.3 364.52C750.2 364.52 750.11 364.56 750.06 364.59C749.81 364.75 749.29 366 749.1 366.54C748.98 366.87 748.79 367.3 748.85 367.66C748.91 368.03 749.17 368.09 749.38 368.38C749.57 368.65 749.89 369.22 749.89 369.22" fill="#FFEBBA"/>
<path d="M753.19 366.19L752.54 365.8L752.51 364.42L751.24 364.96L751.25 365.4L750.41 365.42L750.45 366.9L753.24 368.42L753.19 366.19Z" fill="#FDAD9C"/>
<path d="M753.94 366.54L752.53 365.36L752.18 365.54C751.77 365.75 751.28 365.48 751.25 365.02L750.89 364.61L750.55 364.51C750.33 364.47 749.81 365.74 749.83 366.55L749.94 371.6C749.94 371.6 751.33 372.69 752.57 373.11C753.82 373.53 754.44 372.76 754.44 372.76V367.56C754.44 367.16 754.25 366.78 753.93 366.54H753.94Z" fill="#FFEBBA"/>
<path d="M749.82 366.56L749.88 369.19" stroke="#D9AF71" stroke-width="0.5" stroke-linecap="round" stroke-linejoin="round"/>
<path d="M751.07 368.97C750.72 368.6 750.22 368.42 749.75 368.49C749.75 368.83 749.94 369.15 750.2 369.32C750.46 369.49 750.78 369.53 751.07 369.45" fill="#FFBFAD"/>
<path d="M753.14 367.91L752.77 369.7L751.13 368.68C751.13 368.68 750.59 368.85 750.65 369.81L752.58 371.25C753.06 371.61 753.75 371.36 753.89 370.78L754.48 368.7C754.48 368.7 754.79 367.11 753.93 366.54C753.32 366.13 753.13 367.9 753.13 367.9L753.14 367.91Z" fill="#FFEBBA"/>
<path d="M753.14 367.91L752.77 369.69L751.14 368.68" stroke="#D9AF71" stroke-width="0.5" stroke-linecap="round" stroke-linejoin="round"/>
<path d="M750.65 369.81L752.58 371.25C753.06 371.61 753.75 371.36 753.89 370.78L754.15 369.87" stroke="#D9AF71" stroke-width="0.5" stroke-linecap="round" stroke-linejoin="round"/>
<path d="M749.35 367.51C749.46 367.56 749.58 367.69 749.62 367.8L750.27 369.77C750.31 369.88 750.24 369.92 750.13 369.87L749.38 369.53C749.27 369.48 749.15 369.35 749.11 369.24L748.46 367.27C748.42 367.16 748.49 367.12 748.6 367.17L749.35 367.51Z" fill="#E2E5E4"/>
<path d="M749.44 367.44L748.69 367.1C748.63 367.07 748.59 367.07 748.56 367.1L748.46 367.17C748.46 367.17 748.53 367.15 748.59 367.17L749.34 367.51C749.45 367.56 749.57 367.69 749.61 367.8L750.26 369.77C750.28 369.82 750.27 369.86 750.25 369.88L750.35 369.81C750.35 369.81 750.38 369.75 750.36 369.7L749.71 367.73C749.67 367.62 749.55 367.49 749.44 367.44Z" fill="#BCBCBC"/>
<path d="M748.9 368.22C749.07 368.32 749.24 368.49 749.31 368.66C749.38 368.83 749.31 369.03 749.08 369C748.94 368.98 748.82 368.89 748.75 368.79C748.65 368.65 748.57 368.44 748.55 368.28C748.53 368.06 748.79 368.15 748.91 368.22H748.9Z" fill="#FFBFAD"/>
<path d="M752.52 364.71C752.86 364.35 753.05 363.9 753.07 363.39C753.09 362.82 752.75 362.38 752.23 362.2C751.78 362.05 751.18 362.07 750.85 362.46C750.64 362.71 750.64 363.04 750.65 363.34C750.65 363.64 750.62 363.94 750.65 364.24C750.69 364.57 750.81 365.03 751.12 365.17C751.49 365.33 752.21 365.03 752.51 364.7L752.52 364.71Z" fill="#FFBFAD"/>
<path d="M752.35 364.06C752.4 364.24 752.45 364.64 752.51 364.81C752.89 364.45 753.14 363.91 753.19 363.39C753.21 363.19 753.19 362.92 753.08 362.76C753.01 362.65 752.89 362.56 752.77 362.5C752.75 362.34 752.62 362.22 752.48 362.15C752.31 362.06 752.11 362.01 751.92 361.98C751.61 361.94 751.27 361.96 751.01 362.15C750.82 362.29 750.66 362.46 750.57 362.66C750.5 362.81 750.46 362.98 750.47 363.15C750.47 363.32 750.55 363.49 750.64 363.61C751.23 363.63 752.26 363.73 752.35 364.06Z" fill="#63341A"/>
<path d="M752.24 364.3C752.31 364.13 752.45 363.75 752.69 363.88C752.82 363.95 752.82 364.1 752.76 364.22C752.67 364.42 752.5 364.58 752.32 364.69" fill="#FFBFAD"/>
<path d="M753.06 362.69C753.447 362.69 753.76 362.377 753.76 361.99C753.76 361.603 753.447 361.29 753.06 361.29C752.673 361.29 752.36 361.603 752.36 361.99C752.36 362.377 752.673 362.69 753.06 362.69Z" fill="#63341A"/>
<path d="M780.22 419.09C782.738 419.09 784.78 418.217 784.78 417.14C784.78 416.063 782.738 415.19 780.22 415.19C777.702 415.19 775.66 416.063 775.66 417.14C775.66 418.217 777.702 419.09 780.22 419.09Z" fill="#D3D3D3"/>
<path d="M779.11 411.49V411.51V411.54V411.57V411.6H779.12V411.63H779.13V411.66H779.15V411.69H779.17L779.19 411.72C779.19 411.72 779.21 411.75 779.22 411.76L779.25 411.79H779.26L779.28 411.82H779.3L779.32 411.85H779.34L779.36 411.88H779.38L779.4 411.9L779.43 411.92C779.43 411.92 779.48 411.95 779.51 411.96H779.53C779.53 411.96 779.58 411.99 779.6 412C779.6 412 779.65 412.02 779.68 412.03C779.7 412.03 779.72 412.04 779.74 412.05H779.78C779.78 412.05 779.82 412.07 779.84 412.08H779.9C779.9 412.08 779.95 412.1 779.98 412.1H780.05C780.05 412.1 780.1 412.11 780.13 412.11H780.18C780.18 412.11 780.22 412.11 780.24 412.11H780.46L780.51 412.09C780.51 412.09 780.55 412.09 780.57 412.08H780.62C780.62 412.08 780.67 412.06 780.69 412.05H780.73L780.75 412.03C780.75 412.03 780.8 412.02 780.82 412.01H780.84C780.84 412.01 780.88 411.99 780.9 411.98H780.93C780.93 411.98 780.99 411.94 781.01 411.92C781.18 411.82 781.28 411.71 781.32 411.58C781.32 411.56 781.33 411.54 781.34 411.52V411.49C781.34 411.49 781.34 411.47 781.34 411.46V416.49C781.35 416.66 781.24 416.82 781.02 416.95C780.99 416.97 780.97 416.98 780.94 416.99H780.91C780.91 416.99 780.88 417.02 780.86 417.02H780.83C780.83 417.02 780.79 417.05 780.76 417.05H780.72L780.69 417.07C780.69 417.07 780.64 417.08 780.62 417.09H780.57C780.57 417.09 780.53 417.11 780.51 417.11H780.4L780.37 417.13H780.26H780.24C780.22 417.13 780.2 417.13 780.18 417.13C780.17 417.13 780.16 417.13 780.15 417.13H780.13C780.13 417.13 780.08 417.13 780.05 417.13H779.98C779.98 417.13 779.93 417.12 779.9 417.11H779.84C779.84 417.11 779.8 417.09 779.78 417.08H779.74C779.74 417.08 779.7 417.06 779.68 417.05H779.67C779.67 417.05 779.62 417.03 779.6 417.02C779.6 417.02 779.55 417 779.53 416.99H779.51C779.51 416.99 779.46 416.95 779.43 416.94H779.42V416.92H779.39L779.37 416.9H779.35L779.33 416.87H779.31L779.29 416.84H779.27V416.82H779.26L779.23 416.79C779.23 416.79 779.21 416.76 779.2 416.75L779.18 416.72V416.69H779.16V416.66H779.14V416.63H779.13V416.6V416.57V416.54V416.51V411.48L779.11 411.49Z" fill="#766052"/>
<path d="M779.44 411.01C779 411.26 779 411.67 779.44 411.92C779.87 412.17 780.58 412.17 781.02 411.92C781.46 411.67 781.46 411.26 781.02 411.01C780.58 410.76 779.88 410.76 779.44 411.01Z" fill="white" stroke="black" stroke-width="0.5" stroke-linecap="round" stroke-linejoin="round"/>
<path d="M780.23 412.72C774.82 412.72 772.16 410.16 775.14 402.06C778.12 393.97 780.23 394.9 780.23 394.9C780.23 394.9 782.34 393.97 785.32 402.06C788.3 410.15 785.64 412.72 780.23 412.72Z" fill="#62AB51"/>
<path d="M775.14 402.07C776.4 398.65 777.51 396.84 778.36 395.9C777.76 397.68 777.38 399.55 777.14 401.41C776.83 403.77 776.72 406.19 777.27 408.5C777.63 410.02 778.31 411.49 779.3 412.7C774.53 412.4 772.33 409.68 775.14 402.07Z" fill="#548945"/>
<path d="M786.56 371.09L786.05 370.82C786.05 370.82 786.03 370.81 786.02 370.8H786C785.84 370.73 785.64 370.75 785.43 370.87L780.42 373.8C779.89 374.11 779.46 374.94 779.46 375.65L779.51 385.28C779.51 385.64 779.63 385.91 779.81 386.03L780.33 386.31L780.45 386.01C780.45 386.01 780.47 386.01 780.48 386L785.49 383.07C786.02 382.76 786.45 381.93 786.45 381.22L786.4 371.59C786.4 371.59 786.4 371.52 786.39 371.48L786.55 371.08L786.56 371.09Z" fill="#3D79C2"/>
<path d="M786 383.35L780.99 386.28C780.46 386.59 780.02 386.26 780.02 385.55L779.97 375.92C779.97 375.21 780.4 374.38 780.93 374.06L785.94 371.13C786.47 370.82 786.91 371.15 786.91 371.86L786.96 381.49C786.96 382.2 786.53 383.03 786 383.35Z" fill="#418BD6"/>
<path d="M781.34 385.62L785.76 383.04C786.26 382.75 786.67 381.97 786.66 381.3L786.61 372.4C786.61 372.03 786.48 371.74 786.25 371.61C786.06 371.5 785.82 371.52 785.58 371.66L781.16 374.24C780.66 374.53 780.25 375.31 780.26 375.98L780.31 384.88C780.31 385.25 780.44 385.54 780.67 385.67C780.76 385.72 780.85 385.74 780.95 385.74C781.08 385.74 781.21 385.7 781.34 385.62ZM786.14 371.81C786.29 371.9 786.38 372.11 786.38 372.4L786.43 381.3C786.43 381.88 786.07 382.59 785.64 382.84L781.22 385.42C781.05 385.52 780.9 385.54 780.78 385.47C780.63 385.38 780.54 385.17 780.54 384.88L780.49 375.98C780.49 375.4 780.85 374.69 781.28 374.44L785.7 371.86C785.8 371.8 785.89 371.77 785.98 371.77C786.04 371.77 786.09 371.78 786.14 371.81Z" fill="white"/>
<path d="M781.8 382.7L785.17 380.73C785.54 380.51 785.84 379.93 785.84 379.43L785.81 374.05C785.81 373.55 785.5 373.33 785.13 373.54L781.76 375.51C781.39 375.73 781.09 376.31 781.09 376.81L781.12 382.19C781.12 382.69 781.43 382.91 781.8 382.7Z" fill="white"/>
<path d="M781.52 380.58L785.42 378.3L785.4 375L781.5 377.28L781.52 380.58Z" fill="#418BD6"/>
<path d="M782.52 376.14L784.37 375.05V374.54L782.52 375.62V376.14Z" fill="#418BD6"/>
<path d="M785.13 381.62C785.3 381.52 785.44 381.25 785.44 381.02V380.26C785.44 380.03 785.29 379.92 785.12 380.02C784.95 380.12 784.81 380.39 784.81 380.62V381.38C784.81 381.61 784.96 381.72 785.13 381.62Z" fill="white"/>
<path d="M781.85 383.53C782.02 383.43 782.16 383.16 782.16 382.93V382.17C782.16 381.94 782.01 381.83 781.84 381.93C781.67 382.03 781.53 382.3 781.53 382.53V383.29C781.53 383.52 781.68 383.63 781.85 383.53Z" fill="white"/>
<path d="M784.81 379.9C784.81 380.13 784.95 380.23 785.12 380.13C785.29 380.03 785.43 379.76 785.43 379.54C785.43 379.32 785.29 379.21 785.12 379.31C784.95 379.41 784.81 379.68 784.81 379.9Z" fill="#418BD6"/>
<path d="M781.53 381.82C781.53 382.05 781.67 382.15 781.84 382.05C782.01 381.95 782.15 381.68 782.15 381.46C782.15 381.24 782.01 381.13 781.84 381.23C781.67 381.33 781.53 381.6 781.53 381.82Z" fill="#418BD6"/>
<path d="M1228.03 24.05V72.98L1202.17 57.92L1228.03 24.05Z" fill="#5DA04A"/>
<path d="M1203.32 38.48V87.41L1228.03 72.84L1203.32 38.48Z" fill="#4E7F3E"/>
<path d="M1203.32 38.48V87.41L1177.46 72.35L1203.32 38.48Z" fill="#5DA04A"/>
<path d="M1203.32 38.48V54.02L1204.79 51.08L1209.7 55.33L1208.72 49.93L1212.68 51.5L1203.32 38.48Z" fill="#A0BF94"/>
<path d="M1203.32 38.48V54.02L1202.01 50.75L1198.74 54.02V49.77L1194.8 49.64L1203.32 38.48Z" fill="#B6DDAB"/>
<path d="M1212.02 61.77L1211.21 67.01H1212.7L1211.96 70.28H1213.74L1212.47 77.15L1214.61 76.17L1213.05 81.69L1217.63 78.99V73.55L1215.15 73.88L1215.56 69.13L1213.74 68.48L1214.42 65.37H1212.57L1212.02 61.77Z" fill="#4A7239"/>
<path d="M1199.7 72.0699L1200.23 75.4499H1199.26L1199.74 77.5599H1198.59L1199.41 81.9999L1198.03 81.3699L1199.04 84.9299L1196.08 83.1899V79.6799L1197.68 79.8899L1197.42 76.8199L1198.59 76.3999L1198.15 74.3899H1199.35L1199.7 72.0699Z" fill="#589344"/>
<path d="M1178.61 52.99V101.92L1203.32 87.36L1178.61 52.99Z" fill="#4E7F3E"/>
<path d="M1178.61 52.99V101.92L1152.75 86.87L1178.61 52.99Z" fill="#5DA04A"/>
<path d="M1178.61 52.99V68.54L1180.08 65.59L1184.99 69.85L1184.01 64.45L1187.97 66.01L1178.61 52.99Z" fill="#A0BF94"/>
<path d="M1178.61 52.99V68.54L1177.3 65.27L1174.03 68.54V64.28L1170.09 64.15L1178.61 52.99Z" fill="#B6DDAB"/>
<path d="M1187.32 76.29L1186.5 81.52H1187.99L1187.25 84.79H1189.03L1187.76 91.67L1189.9 90.69L1188.34 96.21L1192.92 93.51V88.07L1190.44 88.39L1190.85 83.65L1189.03 82.99L1189.71 79.89H1187.86L1187.32 76.29Z" fill="#4A7239"/>
<path d="M1194.37 77.59L1193.77 81.44H1194.87L1194.32 83.84H1195.63L1194.7 88.89L1196.26 88.17L1195.12 92.23L1198.48 90.24V86.25L1196.66 86.49L1196.96 83L1195.63 82.52L1196.12 80.24H1194.77L1194.37 77.59Z" fill="#4A7239"/>
<path d="M1174.99 86.58L1175.52 89.96H1174.55L1175.03 92.08H1173.88L1174.7 96.52L1173.32 95.88L1174.33 99.45L1171.37 97.71V94.19L1172.97 94.3999L1172.71 91.34L1173.88 90.92L1173.44 88.91H1174.64L1174.99 86.58Z" fill="#589344"/>
<path d="M1153.9 67.51V116.44L1178.61 101.87L1153.9 67.51Z" fill="#4E7F3E"/>
<path d="M1153.9 67.51V116.44L1128.04 101.38L1153.9 67.51Z" fill="#5DA04A"/>
<path d="M1153.9 67.51V83.06L1155.37 80.11L1160.28 84.36L1159.3 78.96L1163.26 80.53L1153.9 67.51Z" fill="#A0BF94"/>
<path d="M1153.9 67.51V83.06L1152.59 79.78L1149.32 83.06V78.8L1145.38 78.67L1153.9 67.51Z" fill="#B6DDAB"/>
<path d="M1162.61 90.8L1161.79 96.04H1163.28L1162.54 99.31H1164.32L1163.05 106.18L1165.19 105.2L1163.63 110.72L1168.21 108.02V102.58L1165.73 102.91L1166.14 98.17L1164.32 97.51L1165 94.4H1163.15L1162.61 90.8Z" fill="#4A7239"/>
<path d="M1169.66 92.11L1169.06 95.96H1170.16L1169.61 98.36H1170.92L1169.99 103.41L1171.55 102.69L1170.41 106.74L1173.77 104.76V100.76L1171.95 101L1172.25 97.52L1170.92 97.04L1171.41 94.75H1170.06L1169.66 92.11Z" fill="#4A7239"/>
<path d="M1150.28 101.1L1150.81 104.48H1149.84L1150.32 106.59H1149.17L1149.99 111.03L1148.61 110.4L1149.62 113.97L1146.66 112.22V108.71L1148.26 108.92L1148 105.85L1149.17 105.43L1148.74 103.42H1149.93L1150.28 101.1Z" fill="#589344"/>
<path d="M1129.19 82.03V130.95L1153.9 116.39L1129.19 82.03Z" fill="#4E7F3E"/>
<path d="M1129.19 82.03V130.95L1103.34 115.9L1129.19 82.03Z" fill="#5DA04A"/>
<path d="M1129.19 82.03V97.57L1130.66 94.63L1135.57 98.88L1134.59 93.48L1138.55 95.05L1129.19 82.03Z" fill="#A0BF94"/>
<path d="M1129.19 82.03V97.57L1127.88 94.3L1124.61 97.57V93.32L1120.67 93.19L1129.19 82.03Z" fill="#B6DDAB"/>
<path d="M1137.9 105.32L1137.08 110.55H1138.58L1137.83 113.83H1139.61L1138.34 120.7L1140.48 119.72L1138.92 125.24L1143.5 122.54V117.1L1141.02 117.43L1141.43 112.68L1139.61 112.03L1140.29 108.92H1138.44L1137.9 105.32Z" fill="#4A7239"/>
<path d="M1144.95 106.63L1144.35 110.47H1145.45L1144.9 112.88H1146.21L1145.28 117.92L1146.84 117.2L1145.7 121.26L1149.06 119.28V115.28L1147.24 115.52L1147.54 112.03L1146.21 111.55L1146.71 109.27H1145.35L1144.95 106.63Z" fill="#4A7239"/>
<path d="M1125.57 115.61L1126.1 119H1125.13L1125.62 121.11H1124.46L1125.28 125.55L1123.9 124.91L1124.91 128.48L1121.95 126.74V123.22L1123.55 123.44L1123.29 120.37L1124.46 119.95L1124.03 117.94H1125.22L1125.57 115.61Z" fill="#589344"/>
<path d="M1104.48 96.54V145.47L1129.19 130.91L1104.48 96.54Z" fill="#4E7F3E"/>
<path d="M1104.48 96.54V145.47L1078.63 130.42L1104.48 96.54Z" fill="#5DA04A"/>
<path d="M1104.48 96.54V112.09L1105.95 109.14L1110.86 113.4L1109.88 108L1113.84 109.56L1104.48 96.54Z" fill="#A0BF94"/>
<path d="M1104.48 96.54V112.09L1103.17 108.82L1099.9 112.09V107.83L1095.96 107.7L1104.48 96.54Z" fill="#B6DDAB"/>
<path d="M1113.19 119.83L1112.37 125.07H1113.87L1113.12 128.34H1114.9L1113.64 135.22L1115.77 134.23L1114.21 139.76L1118.79 137.06V131.62L1116.31 131.94L1116.72 127.2L1114.9 126.54L1115.58 123.43H1113.73L1113.19 119.83Z" fill="#4A7239"/>
<path d="M1120.24 121.14L1119.64 124.99H1120.74L1120.19 127.39H1121.5L1120.57 132.44L1122.14 131.72L1120.99 135.77L1124.35 133.79V129.8L1122.53 130.04L1122.83 126.55L1121.5 126.07L1122 123.79H1120.64L1120.24 121.14Z" fill="#4A7239"/>
<path d="M1100.86 130.13L1101.39 133.51H1100.42L1100.91 135.63H1099.76L1100.57 140.07L1099.19 139.43L1100.2 143L1097.24 141.25V137.74L1098.84 137.95L1098.58 134.89L1099.76 134.46L1099.32 132.46H1100.51L1100.86 130.13Z" fill="#589344"/>
<path d="M1079.77 111.06V159.99L1104.48 145.42L1079.77 111.06Z" fill="#4E7F3E"/>
<path d="M1079.77 111.06V159.99L1053.92 144.93L1079.77 111.06Z" fill="#5DA04A"/>
<path d="M1079.77 111.06V126.6L1081.25 123.66L1086.15 127.91L1085.17 122.51L1089.13 124.08L1079.77 111.06Z" fill="#A0BF94"/>
<path d="M1079.77 111.06V126.6L1078.46 123.33L1075.19 126.6V122.35L1071.25 122.22L1079.77 111.06Z" fill="#B6DDAB"/>
<path d="M1088.48 134.35L1087.66 139.59H1089.16L1088.41 142.86H1090.19L1088.93 149.73L1091.06 148.75L1089.5 154.27L1094.08 151.57V146.13L1091.6 146.46L1092.01 141.71L1090.19 141.06L1090.87 137.95H1089.02L1088.48 134.35Z" fill="#4A7239"/>
<path d="M1095.53 135.66L1094.93 139.5H1096.03L1095.48 141.91H1096.79L1095.86 146.96L1097.43 146.23L1096.28 150.29L1099.64 148.31V144.31L1097.83 144.55L1098.12 141.07L1096.79 140.59L1097.29 138.3H1095.93L1095.53 135.66Z" fill="#4A7239"/>
<path d="M1076.15 144.65L1076.68 148.03H1075.71L1076.2 150.14H1075.05L1075.86 154.58L1074.48 153.95L1075.49 157.51L1072.53 155.77V152.26L1074.13 152.47L1073.87 149.4L1075.05 148.98L1074.61 146.97H1075.8L1076.15 144.65Z" fill="#589344"/>
<path d="M1055.06 125.57V174.5L1079.77 159.94L1055.06 125.57Z" fill="#4E7F3E"/>
<path d="M1055.06 125.57V174.5L1029.21 159.45L1055.06 125.57Z" fill="#5DA04A"/>
<path d="M1055.06 125.57V141.12L1056.54 138.17L1061.44 142.43L1060.46 137.03L1064.43 138.59L1055.06 125.57Z" fill="#A0BF94"/>
<path d="M1055.06 125.57V141.12L1053.75 137.85L1050.48 141.12V136.87L1046.54 136.73L1055.06 125.57Z" fill="#B6DDAB"/>
<path d="M1063.77 148.87L1062.95 154.1H1064.45L1063.7 157.38H1065.48L1064.22 164.25L1066.35 163.27L1064.79 168.79L1069.37 166.09V160.65L1066.89 160.98L1067.3 156.23L1065.48 155.58L1066.16 152.47H1064.31L1063.77 148.87Z" fill="#4A7239"/>
<path d="M1070.82 150.18L1070.22 154.02H1071.32L1070.77 156.42H1072.08L1071.15 161.47L1072.72 160.75L1071.57 164.81L1074.93 162.82V158.83L1073.12 159.07L1073.42 155.58L1072.08 155.1L1072.58 152.82H1071.22L1070.82 150.18Z" fill="#4A7239"/>
<path d="M1051.44 159.16L1051.97 162.54H1051L1051.49 164.66H1050.34L1051.15 169.1L1049.78 168.46L1050.78 172.03L1047.83 170.29V166.77L1049.42 166.98L1049.16 163.92L1050.34 163.5L1049.9 161.49H1051.09L1051.44 159.16Z" fill="#589344"/>
<path d="M1030.35 140.09V189.02L1055.06 174.46L1030.35 140.09Z" fill="#4E7F3E"/>
<path d="M1030.35 140.09V189.02L1004.5 173.96L1030.35 140.09Z" fill="#5DA04A"/>
<path d="M1030.35 140.09V155.64L1031.83 152.69L1036.74 156.95L1035.75 151.55L1039.72 153.11L1030.35 140.09Z" fill="#A0BF94"/>
<path d="M1030.35 140.09V155.64L1029.04 152.36L1025.77 155.64V151.38L1021.84 151.25L1030.35 140.09Z" fill="#B6DDAB"/>
<path d="M1039.06 163.38L1038.24 168.62H1039.74L1038.99 171.89H1040.77L1039.51 178.76L1041.64 177.78L1040.08 183.3L1044.66 180.61V175.16L1042.18 175.49L1042.59 170.75L1040.77 170.09L1041.45 166.98H1039.6L1039.06 163.38Z" fill="#4A7239"/>
<path d="M1046.11 164.69L1045.51 168.54H1046.61L1046.06 170.94H1047.37L1046.44 175.99L1048.01 175.27L1046.86 179.32L1050.22 177.34V173.34L1048.41 173.58L1048.71 170.1L1047.37 169.62L1047.87 167.34H1046.51L1046.11 164.69Z" fill="#4A7239"/>
<path d="M1026.73 173.68L1027.26 177.06H1026.29L1026.78 179.17H1025.63L1026.44 183.61L1025.07 182.98L1026.07 186.55L1023.12 184.8V181.29L1024.71 181.5L1024.45 178.43L1025.63 178.01L1025.19 176H1026.38L1026.73 173.68Z" fill="#589344"/>
<path d="M1005.64 154.61V203.53L1030.35 188.97L1005.64 154.61Z" fill="#4E7F3E"/>
<path d="M1005.64 154.61V203.53L979.79 188.48L1005.64 154.61Z" fill="#5DA04A"/>
<path d="M1005.64 154.61V170.15L1007.12 167.21L1012.03 171.46L1011.04 166.06L1015.01 167.63L1005.64 154.61Z" fill="#A0BF94"/>
<path d="M1005.64 154.61V170.15L1004.33 166.88L1001.06 170.15V165.9L997.13 165.77L1005.64 154.61Z" fill="#B6DDAB"/>
<path d="M1014.35 177.9L1013.53 183.13H1015.03L1014.28 186.41H1016.06L1014.8 193.28L1016.93 192.3L1015.37 197.82L1019.95 195.12V189.68L1017.48 190.01L1017.88 185.26L1016.06 184.61L1016.74 181.5H1014.89L1014.35 177.9Z" fill="#4A7239"/>
<path d="M1021.4 179.21L1020.8 183.05H1021.9L1021.35 185.46H1022.66L1021.73 190.5L1023.3 189.78L1022.15 193.84L1025.51 191.86V187.86L1023.7 188.1L1024 184.62L1022.66 184.13L1023.16 181.85H1021.8L1021.4 179.21Z" fill="#4A7239"/>
<path d="M1002.02 188.2L1002.55 191.58H1001.59L1002.07 193.69H1000.92L1001.73 198.13L1000.36 197.5L1001.36 201.06L998.41 199.32V195.8L1000.01 196.02L999.74 192.95L1000.92 192.53L1000.48 190.52H1001.67L1002.02 188.2Z" fill="#589344"/>
<path d="M980.93 169.12V218.05L1005.64 203.49L980.93 169.12Z" fill="#4E7F3E"/>
<path d="M980.93 169.12V218.05L955.08 203L980.93 169.12Z" fill="#5DA04A"/>
<path d="M980.93 169.12V184.67L982.41 181.72L987.32 185.98L986.33 180.58L990.3 182.14L980.93 169.12Z" fill="#A0BF94"/>
<path d="M980.93 169.12V184.67L979.63 181.4L976.35 184.67V180.41L972.42 180.28L980.93 169.12Z" fill="#B6DDAB"/>
<path d="M989.64 192.41L988.82 197.65H990.32L989.57 200.92H991.35L990.09 207.8L992.22 206.81L990.66 212.34L995.24 209.64V204.2L992.77 204.52L993.17 199.78L991.35 199.12L992.03 196.01H990.18L989.64 192.41Z" fill="#4A7239"/>
<path d="M996.69 193.72L996.09 197.57H997.19L996.64 199.97H997.95L997.02 205.02L998.59 204.3L997.44 208.35L1000.81 206.37V202.38L998.99 202.62L999.29 199.13L997.95 198.65L998.45 196.37H997.09L996.69 193.72Z" fill="#4A7239"/>
<path d="M977.31 202.71L977.84 206.09H976.88L977.36 208.21H976.21L977.02 212.65L975.65 212.01L976.65 215.58L973.7 213.83V210.32L975.3 210.53L975.03 207.47L976.21 207.04L975.77 205.04H976.96L977.31 202.71Z" fill="#589344"/>
<path d="M958.22 184.64V233.57L982.93 219L958.22 184.64Z" fill="#4E7F3E"/>
<path d="M958.22 184.64V233.57L932.37 218.51L958.22 184.64Z" fill="#5DA04A"/>
<path d="M958.22 184.64V200.18L959.7 197.24L964.61 201.49L963.62 196.09L967.59 197.66L958.22 184.64Z" fill="#A0BF94"/>
<path d="M958.22 184.64V200.18L956.92 196.91L953.64 200.18V195.93L949.71 195.8L958.22 184.64Z" fill="#B6DDAB"/>
<path d="M966.93 207.93L966.11 213.17H967.61L966.86 216.44H968.64L967.38 223.31L969.51 222.33L967.95 227.85L972.53 225.15V219.71L970.06 220.04L970.46 215.29L968.64 214.64L969.32 211.53H967.47L966.93 207.93Z" fill="#4A7239"/>
<path d="M973.98 209.24L973.38 213.09H974.48L973.93 215.49H975.24L974.31 220.54L975.88 219.82L974.73 223.87L978.1 221.89V217.89L976.28 218.13L976.58 214.65L975.24 214.17L975.74 211.88H974.38L973.98 209.24Z" fill="#4A7239"/>
<path d="M954.61 218.23L955.13 221.61H954.17L954.65 223.72H953.5L954.32 228.16L952.94 227.53L953.95 231.09L950.99 229.35V225.84L952.59 226.05L952.32 222.98L953.5 222.56L953.06 220.55H954.25L954.61 218.23Z" fill="#589344"/>
<path d="M975.72 197.82V258.7L951.2 244.23L975.72 197.82Z" fill="#5DA04A"/>
<path d="M975.72 197.82V258.7L1001.78 243.53L975.72 197.82Z" fill="#4E7F3E"/>
<path d="M975.72 197.82V213.49L974.24 210.52L971.02 213.94L970.92 209.48L968.38 211.72L975.72 197.82Z" fill="#B6DDAB"/>
<path d="M975.72 197.82V213.49L977.04 210.19L980.34 213.49V209.2L982.76 210.16L975.72 197.82Z" fill="#A0BF94"/>
<path d="M966.95 232.86L967.77 238.14H966.27L967.02 241.44H965.22L966.5 248.36L964.35 247.37L965.92 252.94L961.3 250.22V244.74L963.8 245.07L963.39 240.28L965.22 239.62L964.54 236.49H966.4L966.95 232.86Z" fill="#589344"/>
<path d="M959.84 234.18L960.45 238.06H959.34L959.89 240.48H958.57L959.51 245.57L957.93 244.84L959.09 248.93L955.7 246.93V242.9L957.53 243.14L957.23 239.63L958.57 239.15L958.07 236.85H959.44L959.84 234.18Z" fill="#4A7239"/>
<path d="M979.37 243.24L978.84 246.65H979.81L979.33 248.78H980.49L979.66 253.25L981.05 252.61L980.04 256.21L983.02 254.45V250.91L981.41 251.12L981.67 248.03L980.49 247.61L980.93 245.58H979.73L979.37 243.24Z" fill="#4A7239"/>
<path d="M999.1 212.2V272.45L974.75 258.17L999.1 212.2Z" fill="#5DA04A"/>
<path d="M999.1 212.2V272.45L1024.97 257.39L999.1 212.2Z" fill="#4E7F3E"/>
<path d="M999.1 212.2V227.75L997.63 224.8L994.68 227.68L994.39 223.87L991.79 226L999.1 212.2Z" fill="#B6DDAB"/>
<path d="M999.1 212.2V227.75L1000.41 224.48L1003.69 227.75V223.49L1006.7 225.48L999.1 212.2Z" fill="#A0BF94"/>
<path d="M990.39 246.8L991.21 252.04H989.71L990.46 255.31H988.68L989.94 262.19L987.81 261.21L989.37 266.73L984.79 264.03V258.59L987.26 258.91L986.86 254.17L988.68 253.51L988 250.4H989.85L990.39 246.8Z" fill="#589344"/>
<path d="M983.34 248.11L983.94 251.96H982.84L983.39 254.36H982.08L983.01 259.41L981.44 258.69L982.59 262.75L979.22 260.76V256.77L981.04 257.01L980.74 253.52L982.08 253.04L981.58 250.75H982.94L983.34 248.11Z" fill="#4A7239"/>
<path d="M1002.72 257.1L1002.2 260.48H1003.16L1002.68 262.6H1003.83L1003.01 267.04L1004.39 266.41L1003.38 269.97L1006.34 268.23V264.71L1004.74 264.93L1005.01 261.86L1003.83 261.44L1004.27 259.43H1003.07L1002.72 257.1Z" fill="#4A7239"/>
<path d="M1023.14 225.75V286.83L998.82 272.28L1023.14 225.75Z" fill="#5DA04A"/>
<path d="M1023.14 225.75V286.68L1048.31 270.69L1023.14 225.75Z" fill="#4E7F3E"/>
<path d="M1023.14 225.75V241.3L1021.47 237.97L1018.99 241.53L1018.68 237.55L1015.37 240.62L1023.14 225.75Z" fill="#B6DDAB"/>
<path d="M1023.14 225.75V241.3L1024.78 237.84L1027.24 240.82L1027.73 237.05L1031.04 239.85L1023.14 225.75Z" fill="#A0BF94"/>
<path d="M1014.43 261.03L1015.25 266.27H1013.75L1014.5 269.54H1012.72L1013.98 276.42L1011.85 275.44L1013.45 281.09L1008.83 278.3V272.82L1011.31 273.14L1010.9 268.4L1012.72 267.74L1012.04 264.63H1013.89L1014.43 261.03Z" fill="#589344"/>
<path d="M1007.38 262.34L1007.98 266.18H1006.88L1007.43 268.59H1006.12L1007.05 273.64L1005.48 272.92L1006.63 276.98L1003.26 274.99V270.99L1005.08 271.24L1004.78 267.75L1006.12 267.27L1005.62 264.98H1006.98L1007.38 262.34Z" fill="#4A7239"/>
<path d="M1026.76 271.33L1026.24 274.71H1027.2L1026.72 276.83H1027.87L1027.05 281.27L1028.43 280.63L1027.42 284.2L1030.38 282.08V278.94L1028.78 279.15L1029.05 276.09L1027.87 275.66L1028.31 273.66H1027.12L1026.76 271.33Z" fill="#4A7239"/>
<path d="M949.24 237.23C950.676 237.23 951.84 236.729 951.84 236.11C951.84 235.491 950.676 234.99 949.24 234.99C947.804 234.99 946.64 235.491 946.64 236.11C946.64 236.729 947.804 237.23 949.24 237.23Z" fill="#64AE47"/>
<path d="M948.6 232.88V232.9V232.92V232.94V232.96V232.98V233H948.61V233.02H948.62V233.04L948.64 233.06V233.08H948.67V233.1H948.7V233.12H948.73V233.14C948.73 233.14 948.77 233.16 948.79 233.16H948.8C948.8 233.16 948.83 233.18 948.84 233.18C948.84 233.18 948.87 233.19 948.89 233.2H948.92L948.95 233.22H949.02L949.06 233.24H949.17C949.17 233.24 949.19 233.24 949.2 233.24H949.35L949.38 233.22H949.41L949.45 233.2H949.49L949.53 233.18H949.54L949.57 233.16H949.59C949.59 233.16 949.62 233.14 949.64 233.13C949.73 233.08 949.79 233.01 949.82 232.94C949.82 232.93 949.82 232.92 949.82 232.9V232.88C949.82 232.88 949.82 232.87 949.82 232.86V235.73C949.82 235.83 949.76 235.92 949.64 235.99C949.62 235.99 949.61 236.01 949.59 236.01H949.57L949.54 236.03H949.52L949.48 236.05H949.44L949.4 236.07H949.33V236.09H949.21C949.21 236.09 949.21 236.09 949.2 236.09C949.19 236.09 949.18 236.09 949.17 236.09C949.17 236.09 949.16 236.09 949.15 236.09H949.01V236.07H948.94L948.91 236.05H948.87L948.83 236.02C948.83 236.02 948.8 236.01 948.79 236H948.78C948.78 236 948.75 235.98 948.74 235.97H948.73V235.95H948.7V235.93H948.68V235.91H948.66V235.88H948.64L948.62 235.86V235.84H948.61V235.82H948.6V235.8V235.78V235.76V235.74V235.72V235.7V232.82V232.88Z" fill="#766052"/>
<path d="M948.79 232.61C948.54 232.75 948.54 232.99 948.79 233.13C949.04 233.27 949.44 233.27 949.69 233.13C949.94 232.99 949.94 232.75 949.69 232.61C949.44 232.47 949.04 232.47 948.79 232.61Z" fill="white" stroke="black" stroke-width="0.5" stroke-linecap="round" stroke-linejoin="round"/>
<path d="M949.24 233.58C946.15 233.58 944.63 232.12 946.33 227.5C948.03 222.88 949.24 223.41 949.24 223.41C949.24 223.41 950.44 222.88 952.15 227.5C953.85 232.12 952.33 233.58 949.24 233.58Z" fill="#548945"/>
<path d="M946.33 227.5C947.05 225.55 947.68 224.52 948.17 223.98C947.83 225 947.61 226.06 947.47 227.13C947.29 228.48 947.23 229.86 947.55 231.18C947.76 232.05 948.14 232.89 948.71 233.58C945.99 233.41 944.73 231.86 946.34 227.51L946.33 227.5Z" fill="#41782D"/>
<path d="M1029.69 233.81C1030.53 233.81 1031.21 233.519 1031.21 233.16C1031.21 232.801 1030.53 232.51 1029.69 232.51C1028.85 232.51 1028.17 232.801 1028.17 233.16C1028.17 233.519 1028.85 233.81 1029.69 233.81Z" fill="#64AE47"/>
<path d="M1029.31 231.27V231.29V231.31V231.33V231.35H1029.32V231.38H1029.34V231.4H1029.36V231.42H1029.38V231.44H1029.41V231.46H1029.44L1029.47 231.48H1029.52L1029.54 231.5H1029.64C1029.64 231.5 1029.65 231.5 1029.66 231.5H1029.78L1029.8 231.48H1029.85V231.46H1029.89L1029.92 231.43C1029.98 231.4 1030.01 231.36 1030.02 231.32V231.3V232.96C1030.02 233.02 1029.99 233.07 1029.91 233.11H1029.88V233.13H1029.84L1029.82 233.15H1029.77V233.17H1029.65C1029.65 233.17 1029.64 233.18 1029.63 233.18H1029.52L1029.5 233.16H1029.46L1029.44 233.14H1029.41L1029.38 233.11H1029.36V233.09H1029.34V233.07H1029.32V233.05H1029.31V233.03H1029.3V233.01V232.99V232.97V232.95V231.25L1029.31 231.27Z" fill="#766052"/>
<path d="M1029.42 231.11C1029.27 231.19 1029.27 231.33 1029.42 231.42C1029.57 231.5 1029.8 231.5 1029.95 231.42C1030.1 231.34 1030.1 231.2 1029.95 231.11C1029.8 231.02 1029.57 231.03 1029.42 231.11Z" fill="white" stroke="black" stroke-width="0.5" stroke-linecap="round" stroke-linejoin="round"/>
<path d="M1029.69 231.68C1027.88 231.68 1026.99 230.82 1027.99 228.11C1028.99 225.4 1029.69 225.72 1029.69 225.72C1029.69 225.72 1030.39 225.41 1031.39 228.11C1032.39 230.82 1031.5 231.68 1029.69 231.68Z" fill="#548945"/>
<path d="M1027.98 228.12C1028.4 226.98 1028.77 226.37 1029.06 226.05C1028.86 226.65 1028.73 227.27 1028.65 227.89C1028.55 228.68 1028.51 229.49 1028.69 230.26C1028.81 230.77 1029.04 231.26 1029.37 231.66C1027.77 231.56 1027.04 230.65 1027.98 228.1V228.12Z" fill="#41782D"/>
<path d="M1018.55 229.38C1019.69 229.38 1020.62 228.981 1020.62 228.49C1020.62 227.998 1019.69 227.6 1018.55 227.6C1017.41 227.6 1016.48 227.998 1016.48 228.49C1016.48 228.981 1017.41 229.38 1018.55 229.38Z" fill="#64AE47"/>
<path d="M1018.04 225.92V225.94V225.96V225.98H1018.05V226H1018.06V226.02H1018.07V226.04H1018.09V226.06H1018.11V226.08H1018.13V226.1H1018.16V226.12C1018.16 226.12 1018.19 226.13 1018.21 226.14L1018.24 226.16H1018.28L1018.31 226.18H1018.36L1018.38 226.2H1018.51C1018.51 226.2 1018.53 226.21 1018.54 226.21H1018.69L1018.71 226.19H1018.76V226.17H1018.81L1018.84 226.14H1018.85C1018.85 226.14 1018.88 226.12 1018.89 226.11C1018.97 226.07 1019.01 226.01 1019.03 225.96C1019.03 225.96 1019.03 225.94 1019.03 225.93C1019.03 225.93 1019.03 225.91 1019.03 225.9V228.19C1019.03 228.27 1018.98 228.34 1018.88 228.4C1018.87 228.4 1018.86 228.41 1018.84 228.42H1018.83L1018.81 228.44H1018.8L1018.77 228.46H1018.74L1018.71 228.48H1018.61V228.5H1018.54C1018.54 228.5 1018.52 228.5 1018.51 228.5C1018.51 228.5 1018.51 228.5 1018.5 228.5H1018.38L1018.36 228.48H1018.31L1018.28 228.46H1018.24L1018.21 228.43C1018.21 228.43 1018.19 228.41 1018.18 228.41H1018.16V228.39H1018.14V228.37H1018.11V228.35H1018.1V228.33L1018.08 228.31H1018.07V228.29H1018.06V228.27V228.25V228.23V228.21V228.19V225.9L1018.04 225.92Z" fill="#766052"/>
<path d="M1018.19 225.7C1017.99 225.81 1017.99 226 1018.19 226.12C1018.39 226.23 1018.71 226.23 1018.91 226.12C1019.11 226.01 1019.11 225.82 1018.91 225.7C1018.71 225.58 1018.39 225.59 1018.19 225.7Z" fill="white" stroke="black" stroke-width="0.5" stroke-linecap="round" stroke-linejoin="round"/>
<path d="M1018.55 226.48C1016.09 226.48 1014.88 225.31 1016.23 221.63C1017.59 217.95 1018.55 218.37 1018.55 218.37C1018.55 218.37 1019.51 217.95 1020.87 221.63C1022.23 225.31 1021.01 226.48 1018.55 226.48Z" fill="#548945"/>
<path d="M1016.23 221.63C1016.8 220.07 1017.31 219.25 1017.7 218.82C1017.43 219.63 1017.25 220.48 1017.14 221.33C1017 222.4 1016.95 223.5 1017.2 224.56C1017.36 225.25 1017.67 225.92 1018.12 226.47C1015.95 226.34 1014.95 225.1 1016.23 221.64V221.63Z" fill="#41782D"/>
<path d="M1036.98 182.82V182.84V182.86V182.88H1036.99V182.9H1037V182.92H1037.01V182.94H1037.03V182.96H1037.05V182.98H1037.07V183H1037.1V183.02C1037.1 183.02 1037.13 183.03 1037.15 183.04L1037.18 183.06H1037.22L1037.25 183.08H1037.3L1037.32 183.1H1037.45C1037.45 183.1 1037.47 183.11 1037.48 183.11H1037.63L1037.65 183.09H1037.7V183.07H1037.75L1037.78 183.04H1037.79C1037.79 183.04 1037.82 183.02 1037.83 183.01C1037.9 182.97 1037.95 182.91 1037.97 182.86C1037.97 182.86 1037.97 182.84 1037.97 182.83C1037.97 182.83 1037.97 182.81 1037.97 182.8V185.08C1037.97 185.16 1037.92 185.23 1037.83 185.29C1037.82 185.29 1037.81 185.3 1037.79 185.31H1037.78L1037.76 185.33H1037.75L1037.72 185.35H1037.69L1037.66 185.37H1037.56V185.39H1037.49C1037.49 185.39 1037.47 185.39 1037.46 185.39C1037.46 185.39 1037.46 185.39 1037.45 185.39H1037.33L1037.31 185.37H1037.26L1037.23 185.35H1037.19L1037.16 185.32C1037.16 185.32 1037.14 185.3 1037.13 185.3H1037.11V185.28H1037.09V185.26H1037.06V185.24H1037.05V185.22L1037.03 185.2H1037.02V185.18H1037.01V185.16V185.14V185.12V185.1V185.08V182.8L1036.98 182.82Z" fill="#766052"/>
<path d="M1037.13 182.6C1036.93 182.71 1036.93 182.9 1037.13 183.01C1037.33 183.12 1037.65 183.12 1037.84 183.01C1038.03 182.9 1038.04 182.71 1037.84 182.6C1037.64 182.49 1037.32 182.49 1037.13 182.6Z" fill="white" stroke="black" stroke-width="0.5" stroke-linecap="round" stroke-linejoin="round"/>
<path d="M1037.48 183.37C1035.03 183.37 1033.83 182.21 1035.18 178.55C1036.53 174.89 1037.48 175.31 1037.48 175.31C1037.48 175.31 1038.43 174.89 1039.78 178.55C1041.13 182.21 1039.92 183.37 1037.48 183.37Z" fill="#62AB51"/>
<path d="M1035.18 178.55C1035.75 177 1036.25 176.18 1036.64 175.76C1036.37 176.57 1036.2 177.41 1036.09 178.26C1035.95 179.33 1035.9 180.42 1036.15 181.47C1036.31 182.16 1036.62 182.82 1037.07 183.37C1034.91 183.24 1033.92 182 1035.19 178.56L1035.18 178.55Z" fill="#548945"/>
<path d="M1044.64 177.63V177.65V177.67V177.69V177.71V177.73H1044.65V177.75L1044.67 177.77V177.8H1044.69L1044.71 177.83L1044.73 177.86V177.88H1044.75V177.9H1044.78V177.92H1044.81L1044.83 177.94H1044.85C1044.85 177.94 1044.89 177.97 1044.91 177.98H1044.93C1044.93 177.98 1044.97 178 1044.99 178.01C1044.99 178.01 1045.03 178.03 1045.05 178.03H1045.09L1045.12 178.05C1045.12 178.05 1045.15 178.05 1045.17 178.06H1045.22C1045.22 178.06 1045.26 178.08 1045.28 178.08H1045.33C1045.33 178.08 1045.37 178.08 1045.39 178.08H1045.43C1045.43 178.08 1045.46 178.08 1045.48 178.08H1045.65L1045.69 178.06H1045.74L1045.78 178.04C1045.78 178.04 1045.82 178.04 1045.83 178.03H1045.86L1045.88 178.01C1045.88 178.01 1045.92 178 1045.93 177.99H1045.95C1045.95 177.99 1045.98 177.97 1046 177.96H1046.02C1046.02 177.96 1046.06 177.93 1046.08 177.92C1046.21 177.85 1046.29 177.75 1046.32 177.66C1046.32 177.64 1046.32 177.63 1046.33 177.61V177.59V177.57V181.51C1046.33 181.64 1046.25 181.77 1046.08 181.87C1046.06 181.88 1046.04 181.89 1046.02 181.9H1046C1046 181.9 1045.97 181.92 1045.96 181.93H1045.94C1045.94 181.93 1045.9 181.95 1045.89 181.96H1045.86L1045.84 181.98C1045.84 181.98 1045.8 181.98 1045.79 181.99H1045.75L1045.7 182.01H1045.58L1045.54 182.03H1045.52C1045.52 182.03 1045.51 182.03 1045.5 182.03C1045.48 182.03 1045.47 182.03 1045.45 182.03H1045.43H1045.42C1045.42 182.03 1045.38 182.03 1045.36 182.03H1045.31C1045.31 182.03 1045.27 182.02 1045.25 182.02H1045.2C1045.2 182.02 1045.17 182 1045.15 182H1045.12L1045.08 181.98C1045.08 181.98 1045.04 181.97 1045.03 181.96C1045.03 181.96 1044.99 181.94 1044.97 181.93H1044.95C1044.95 181.93 1044.91 181.9 1044.89 181.89H1044.87L1044.85 181.87H1044.84V181.85H1044.81V181.83H1044.78V181.81H1044.76L1044.74 181.78L1044.72 181.75V181.73H1044.7V181.71H1044.68V181.69H1044.67V181.67V181.65V181.63V181.61V181.59V177.65L1044.64 177.63Z" fill="#766052"/>
<path d="M1044.89 177.25C1044.55 177.45 1044.55 177.77 1044.89 177.97C1045.23 178.17 1045.78 178.17 1046.13 177.97C1046.48 177.77 1046.47 177.45 1046.13 177.25C1045.79 177.05 1045.24 177.05 1044.9 177.25H1044.89Z" fill="white" stroke="black" stroke-width="0.5" stroke-linecap="round" stroke-linejoin="round"/>
<path d="M1045.51 178.59C1041.28 178.59 1039.2 176.58 1041.53 170.26C1043.86 163.93 1045.51 164.66 1045.51 164.66C1045.51 164.66 1047.16 163.93 1049.49 170.26C1051.82 176.59 1049.74 178.59 1045.51 178.59Z" fill="#62AB51"/>
<path d="M1041.53 170.26C1042.52 167.58 1043.38 166.17 1044.05 165.43C1043.58 166.82 1043.28 168.28 1043.09 169.74C1042.85 171.58 1042.76 173.48 1043.19 175.28C1043.47 176.47 1044 177.62 1044.77 178.56C1041.04 178.33 1039.32 176.2 1041.52 170.25L1041.53 170.26Z" fill="#548945"/>
<path d="M993.39 212.79V212.81V212.83V212.85V212.87V212.89H993.4V212.91H993.41V212.93H993.43V212.95L993.45 212.97L993.47 212.99V213.01H993.49V213.03H993.51V213.05H993.53V213.07H993.56C993.56 213.07 993.59 213.1 993.61 213.11H993.62C993.62 213.11 993.65 213.13 993.67 213.14C993.67 213.14 993.71 213.16 993.72 213.16H993.76L993.79 213.18H993.83L993.86 213.2H993.97C993.97 213.2 994 213.22 994.02 213.22H994.05C994.05 213.22 994.08 213.22 994.09 213.22H994.27L994.31 213.2H994.34L994.39 213.18H994.44L994.49 213.15H994.5C994.5 213.15 994.53 213.13 994.54 213.13H994.56C994.56 213.13 994.6 213.1 994.62 213.09C994.73 213.03 994.8 212.95 994.83 212.86C994.83 212.85 994.83 212.83 994.84 212.82V212.8C994.84 212.8 994.84 212.79 994.84 212.78V216.16C994.84 216.27 994.77 216.38 994.62 216.47C994.6 216.48 994.58 216.49 994.56 216.5H994.54L994.51 216.52H994.49L994.44 216.54H994.39L994.34 216.56H994.27L994.25 216.58H994.1C994.1 216.58 994.09 216.59 994.08 216.59C994.07 216.59 994.05 216.59 994.04 216.59C994.04 216.59 994.03 216.59 994.02 216.59H993.91L993.86 216.57H993.82L993.78 216.55H993.75L993.71 216.53C993.71 216.53 993.68 216.52 993.66 216.51C993.66 216.51 993.63 216.49 993.61 216.49H993.6C993.6 216.49 993.57 216.47 993.55 216.46H993.53V216.44H993.5V216.42H993.48V216.4H993.46V216.38H993.44L993.42 216.36L993.4 216.33V216.31H993.38V216.29H993.37V216.27H993.36V216.25V216.23V216.21V216.19V216.17V212.77L993.39 212.79Z" fill="#766052"/>
<path d="M993.62 212.46C993.33 212.63 993.32 212.91 993.62 213.07C993.91 213.24 994.39 213.24 994.68 213.07C994.97 212.9 994.98 212.62 994.68 212.46C994.38 212.3 993.91 212.29 993.62 212.46Z" fill="white" stroke="black" stroke-width="0.5" stroke-linecap="round" stroke-linejoin="round"/>
<path d="M994.15 213.61C990.52 213.61 988.72 211.89 990.73 206.45C992.74 201.01 994.15 201.64 994.15 201.64C994.15 201.64 995.57 201.01 997.57 206.45C999.58 211.89 997.78 213.61 994.15 213.61Z" fill="#62AB51"/>
<path d="M990.73 206.45C991.58 204.15 992.32 202.94 992.9 202.3C992.5 203.5 992.24 204.75 992.08 206.01C991.87 207.59 991.8 209.22 992.17 210.78C992.41 211.8 992.87 212.79 993.53 213.6C990.32 213.4 988.85 211.57 990.73 206.46V206.45Z" fill="#548945"/>
<path d="M1112.44 138.64V138.66V138.68V138.7V138.72V138.74V138.76H1112.45V138.78H1112.46V138.8L1112.48 138.82V138.84H1112.51V138.86H1112.54V138.88H1112.57V138.9C1112.57 138.9 1112.61 138.92 1112.63 138.92H1112.64C1112.64 138.92 1112.67 138.94 1112.68 138.94C1112.68 138.94 1112.71 138.95 1112.73 138.96H1112.76L1112.79 138.98H1112.86L1112.9 139H1113.01C1113.01 139 1113.03 139 1113.04 139H1113.19L1113.22 138.98H1113.25L1113.29 138.96H1113.33L1113.37 138.94H1113.38L1113.41 138.92H1113.43C1113.43 138.92 1113.46 138.9 1113.48 138.89C1113.57 138.84 1113.63 138.77 1113.66 138.7C1113.66 138.69 1113.66 138.68 1113.66 138.66V138.64C1113.66 138.64 1113.66 138.63 1113.66 138.62V141.49C1113.66 141.58 1113.6 141.68 1113.48 141.75C1113.47 141.75 1113.45 141.77 1113.43 141.77H1113.41L1113.38 141.79H1113.36L1113.32 141.81H1113.28L1113.24 141.83H1113.17V141.85H1113.05C1113.05 141.85 1113.05 141.85 1113.04 141.85C1113.03 141.85 1113.02 141.85 1113.01 141.85C1113.01 141.85 1113 141.85 1112.99 141.85H1112.85V141.83H1112.78L1112.75 141.81H1112.71L1112.67 141.79C1112.67 141.79 1112.64 141.78 1112.63 141.77H1112.62C1112.62 141.77 1112.59 141.75 1112.58 141.74H1112.57V141.72H1112.54V141.7H1112.52V141.68H1112.5V141.65H1112.48L1112.46 141.63V141.61H1112.45V141.59H1112.44V141.57V141.55V141.53V141.51V141.49V141.47V138.59V138.64Z" fill="#766052"/>
<path d="M1112.63 138.37C1112.38 138.51 1112.38 138.75 1112.63 138.89C1112.88 139.03 1113.28 139.03 1113.53 138.89C1113.78 138.75 1113.78 138.51 1113.53 138.37C1113.28 138.23 1112.88 138.23 1112.63 138.37Z" fill="white" stroke="black" stroke-width="0.5" stroke-linecap="round" stroke-linejoin="round"/>
<path d="M1113.08 139.35C1110 139.35 1108.48 137.89 1110.18 133.28C1111.88 128.67 1113.08 129.2 1113.08 129.2C1113.08 129.2 1114.28 128.67 1115.98 133.28C1117.68 137.89 1116.16 139.35 1113.08 139.35Z" fill="#62AB51"/>
<path d="M1110.18 133.27C1110.9 131.32 1111.53 130.29 1112.02 129.75C1111.68 130.77 1111.46 131.83 1111.32 132.89C1111.14 134.23 1111.08 135.61 1111.4 136.93C1111.61 137.8 1111.99 138.63 1112.55 139.32C1109.83 139.15 1108.58 137.6 1110.18 133.26V133.27Z" fill="#548945"/>
<path d="M1146.07 119.56V119.58V119.6V119.62V119.64V119.66V119.68H1146.08V119.7H1146.09V119.72L1146.11 119.74V119.76H1146.14V119.78H1146.17V119.8H1146.2V119.82C1146.2 119.82 1146.24 119.84 1146.26 119.84H1146.27C1146.27 119.84 1146.3 119.86 1146.31 119.86C1146.31 119.86 1146.34 119.87 1146.36 119.88H1146.39L1146.42 119.9H1146.49L1146.53 119.92H1146.64C1146.64 119.92 1146.66 119.92 1146.67 119.92H1146.82L1146.85 119.9H1146.88L1146.92 119.88H1146.96L1147 119.86H1147.01L1147.04 119.84H1147.06C1147.06 119.84 1147.09 119.82 1147.11 119.81C1147.2 119.76 1147.26 119.69 1147.29 119.62C1147.29 119.61 1147.29 119.6 1147.29 119.58V119.56C1147.29 119.56 1147.29 119.55 1147.29 119.54V122.41C1147.29 122.5 1147.23 122.6 1147.11 122.67C1147.1 122.67 1147.08 122.69 1147.06 122.69H1147.04L1147.01 122.71H1146.99L1146.95 122.73H1146.91L1146.87 122.75H1146.8V122.77H1146.68C1146.68 122.77 1146.68 122.77 1146.67 122.77C1146.66 122.77 1146.65 122.77 1146.64 122.77C1146.64 122.77 1146.63 122.77 1146.62 122.77H1146.48V122.75H1146.41L1146.38 122.73H1146.34L1146.3 122.71C1146.3 122.71 1146.27 122.7 1146.26 122.69H1146.25C1146.25 122.69 1146.22 122.67 1146.21 122.66H1146.2V122.64H1146.17V122.62H1146.15V122.6H1146.13V122.57H1146.11L1146.09 122.55V122.53H1146.08V122.51H1146.07V122.49V122.47V122.45V122.43V122.41V122.39V119.51V119.56Z" fill="#766052"/>
<path d="M1146.25 119.29C1146 119.43 1146 119.67 1146.25 119.81C1146.5 119.95 1146.9 119.95 1147.15 119.81C1147.4 119.67 1147.4 119.43 1147.15 119.29C1146.9 119.15 1146.5 119.15 1146.25 119.29Z" fill="white" stroke="black" stroke-width="0.5" stroke-linecap="round" stroke-linejoin="round"/>
<path d="M1146.71 120.26C1143.63 120.26 1142.11 118.8 1143.81 114.19C1145.51 109.58 1146.71 110.11 1146.71 110.11C1146.71 110.11 1147.91 109.58 1149.61 114.19C1151.31 118.8 1149.79 120.26 1146.71 120.26Z" fill="#62AB51"/>
<path d="M1143.81 114.19C1144.53 112.24 1145.16 111.21 1145.65 110.67C1145.31 111.69 1145.09 112.75 1144.95 113.81C1144.77 115.15 1144.71 116.53 1145.03 117.85C1145.24 118.72 1145.62 119.55 1146.18 120.24C1143.46 120.07 1142.21 118.52 1143.81 114.18V114.19Z" fill="#548945"/>
<path d="M1153.45 116.25V116.27V116.29V116.31V116.33H1153.46V116.35V116.37H1153.49V116.39H1153.51V116.41H1153.53V116.43H1153.56L1153.59 116.46L1153.62 116.48H1153.66L1153.68 116.5H1153.74V116.52H1153.86H1153.88H1154.01L1154.03 116.5H1154.09L1154.12 116.48H1154.15V116.46L1154.19 116.44C1154.26 116.4 1154.3 116.35 1154.32 116.3V116.27C1154.32 116.27 1154.32 116.25 1154.32 116.24V118.28C1154.32 118.35 1154.28 118.41 1154.19 118.47L1154.16 118.49H1154.13V118.51H1154.09V118.53H1154.03V118.55H1153.89L1153.87 118.56C1153.87 118.56 1153.87 118.56 1153.86 118.56H1153.74L1153.72 118.54H1153.67L1153.64 118.52H1153.61V118.5L1153.57 118.48H1153.55V118.46H1153.53V118.44H1153.51V118.42H1153.49V118.39H1153.47V118.37H1153.46V118.35V118.33V118.31V118.29V118.27V116.23L1153.45 116.25Z" fill="#766052"/>
<path d="M1153.58 116.06C1153.4 116.16 1153.4 116.33 1153.58 116.43C1153.76 116.53 1154.04 116.53 1154.22 116.43C1154.4 116.33 1154.4 116.16 1154.22 116.06C1154.04 115.96 1153.76 115.96 1153.58 116.06Z" fill="white" stroke="black" stroke-width="0.5" stroke-linecap="round" stroke-linejoin="round"/>
<path d="M1153.9 116.75C1151.71 116.75 1150.63 115.71 1151.84 112.44C1153.05 109.17 1153.9 109.54 1153.9 109.54C1153.9 109.54 1154.75 109.16 1155.96 112.44C1157.17 115.71 1156.09 116.75 1153.9 116.75Z" fill="#62AB51"/>
<path d="M1151.84 112.44C1152.35 111.05 1152.8 110.32 1153.14 109.94C1152.9 110.66 1152.74 111.42 1152.65 112.17C1152.53 113.12 1152.48 114.1 1152.7 115.04C1152.85 115.66 1153.12 116.25 1153.52 116.74C1151.59 116.62 1150.7 115.52 1151.84 112.44Z" fill="#548945"/>
<path d="M1185.4 96.7001V96.7201V96.7401V96.7601V96.7801H1185.41V96.8001V96.8201H1185.44V96.8401H1185.46V96.8601H1185.48V96.8801H1185.51L1185.54 96.9101L1185.57 96.9301H1185.61L1185.63 96.9501H1185.69V96.9701H1185.81H1185.83H1185.96L1185.98 96.9501H1186.04L1186.07 96.9301H1186.1V96.9101L1186.14 96.8901C1186.21 96.8501 1186.25 96.8001 1186.27 96.7501V96.7201C1186.27 96.7201 1186.27 96.7001 1186.27 96.6901V98.7301C1186.27 98.8001 1186.23 98.8601 1186.14 98.9201L1186.11 98.9401H1186.08V98.9601H1186.04V98.9801H1185.98V99.0001H1185.84L1185.82 99.0101C1185.82 99.0101 1185.82 99.0101 1185.81 99.0101H1185.69L1185.67 98.9901H1185.62L1185.59 98.9701H1185.56V98.9501L1185.52 98.9301H1185.5V98.9101H1185.48V98.8901H1185.46V98.8701H1185.44V98.8401H1185.42V98.8201H1185.41V98.8001V98.7801V98.7601V98.7401V98.7201V96.6801L1185.4 96.7001Z" fill="#766052"/>
<path d="M1185.53 96.5C1185.35 96.6 1185.35 96.77 1185.53 96.87C1185.71 96.97 1185.99 96.97 1186.17 96.87C1186.35 96.77 1186.35 96.6 1186.17 96.5C1185.99 96.4 1185.71 96.4 1185.53 96.5Z" fill="white" stroke="black" stroke-width="0.5" stroke-linecap="round" stroke-linejoin="round"/>
<path d="M1185.85 97.2C1183.66 97.2 1182.58 96.16 1183.79 92.89C1185 89.62 1185.85 89.99 1185.85 89.99C1185.85 89.99 1186.7 89.61 1187.91 92.89C1189.12 96.16 1188.04 97.2 1185.85 97.2Z" fill="#62AB51"/>
<path d="M1183.79 92.88C1184.3 91.49 1184.75 90.76 1185.09 90.38C1184.85 91.1 1184.69 91.86 1184.6 92.61C1184.48 93.56 1184.43 94.54 1184.65 95.48C1184.8 96.1 1185.07 96.69 1185.47 97.18C1183.54 97.06 1182.65 95.96 1183.79 92.88Z" fill="#548945"/>
<path d="M1191.82 93.18V93.2V93.22V93.24V93.26H1191.83V93.28V93.3H1191.86V93.32H1191.88V93.34H1191.9V93.36H1191.93L1191.96 93.39L1191.99 93.41H1192.03L1192.05 93.43H1192.11V93.45H1192.23H1192.25H1192.38L1192.4 93.43H1192.46L1192.49 93.41H1192.52V93.39L1192.56 93.37C1192.63 93.33 1192.67 93.28 1192.69 93.23V93.2C1192.69 93.2 1192.69 93.18 1192.69 93.17V95.21C1192.69 95.28 1192.65 95.34 1192.56 95.4L1192.53 95.42H1192.5V95.44H1192.46V95.46H1192.4V95.48H1192.26L1192.24 95.49C1192.24 95.49 1192.24 95.49 1192.23 95.49H1192.11L1192.09 95.47H1192.04L1192.01 95.45H1191.98V95.43L1191.94 95.41H1191.92V95.39H1191.9V95.37H1191.88V95.35H1191.86V95.32H1191.84V95.3H1191.83V95.28V95.26V95.24V95.22V95.2V93.16L1191.82 93.18Z" fill="#766052"/>
<path d="M1191.95 92.98C1191.77 93.08 1191.77 93.25 1191.95 93.35C1192.13 93.45 1192.41 93.45 1192.59 93.35C1192.77 93.25 1192.77 93.08 1192.59 92.98C1192.41 92.88 1192.13 92.88 1191.95 92.98Z" fill="white" stroke="black" stroke-width="0.5" stroke-linecap="round" stroke-linejoin="round"/>
<path d="M1192.27 93.68C1190.08 93.68 1189 92.64 1190.21 89.37C1191.42 86.1 1192.27 86.47 1192.27 86.47C1192.27 86.47 1193.12 86.09 1194.33 89.37C1195.54 92.64 1194.46 93.68 1192.27 93.68Z" fill="#62AB51"/>
<path d="M1190.21 89.36C1190.72 87.97 1191.17 87.24 1191.51 86.86C1191.27 87.58 1191.11 88.34 1191.02 89.09C1190.9 90.04 1190.85 91.02 1191.07 91.96C1191.22 92.58 1191.49 93.17 1191.89 93.66C1189.96 93.54 1189.07 92.44 1190.21 89.36Z" fill="#548945"/>
<path d="M1160.11 112.63V112.65V112.67V112.69V112.71H1160.13V112.73H1160.15V112.75H1160.17V112.77H1160.2L1160.22 112.79H1160.26V112.81H1160.39C1160.39 112.81 1160.4 112.82 1160.41 112.82H1160.52L1160.54 112.8H1160.58L1160.6 112.78L1160.62 112.76C1160.62 112.76 1160.7 112.7 1160.71 112.66V112.64V114.07C1160.71 114.07 1160.68 114.17 1160.62 114.2H1160.6V114.22H1160.57L1160.55 114.24H1160.5L1160.48 114.26H1160.4C1160.4 114.26 1160.39 114.26 1160.38 114.26H1160.27V114.24H1160.22L1160.2 114.22H1160.17V114.2H1160.15V114.18H1160.13V114.16H1160.11V114.14H1160.1V114.12V114.1V114.08V112.62L1160.11 112.63Z" fill="#766052"/>
<path d="M1160.21 112.49C1160.08 112.56 1160.08 112.68 1160.21 112.75C1160.33 112.82 1160.54 112.82 1160.66 112.75C1160.78 112.68 1160.79 112.56 1160.66 112.49C1160.53 112.42 1160.33 112.42 1160.21 112.49Z" fill="white" stroke="black" stroke-width="0.5" stroke-linecap="round" stroke-linejoin="round"/>
<path d="M1160.43 112.99C1158.88 112.99 1158.11 112.25 1158.97 109.93C1159.83 107.6 1160.43 107.87 1160.43 107.87C1160.43 107.87 1161.04 107.6 1161.89 109.93C1162.75 112.26 1161.98 112.99 1160.43 112.99Z" fill="#62AB51"/>
<path d="M1158.97 109.92C1159.33 108.94 1159.65 108.42 1159.9 108.15C1159.73 108.66 1159.62 109.2 1159.55 109.73C1159.46 110.41 1159.43 111.1 1159.59 111.77C1159.69 112.21 1159.89 112.63 1160.17 112.98C1158.8 112.9 1158.17 112.11 1158.97 109.93V109.92Z" fill="#548945"/>
<path d="M1120.36 135.31V135.33V135.35V135.37V135.39V135.41H1120.37V135.43V135.45H1120.38V135.47H1120.4V135.49H1120.43V135.51H1120.45V135.53H1120.48V135.55C1120.48 135.55 1120.52 135.56 1120.53 135.57H1120.54L1120.58 135.59L1120.62 135.61H1120.67L1120.7 135.63H1120.8L1120.84 135.65H1120.86C1120.86 135.65 1120.88 135.65 1120.89 135.65H1121.02L1121.05 135.63H1121.11L1121.13 135.61H1121.17V135.59H1121.21V135.57C1121.21 135.57 1121.25 135.56 1121.26 135.55C1121.34 135.5 1121.39 135.45 1121.41 135.39C1121.41 135.38 1121.41 135.37 1121.41 135.36V135.34C1121.41 135.34 1121.41 135.33 1121.41 135.32V137.79C1121.41 137.87 1121.36 137.95 1121.25 138.02C1121.24 138.02 1121.22 138.03 1121.21 138.04H1121.2L1121.18 138.06H1121.17L1121.14 138.08H1121.11L1121.08 138.1H1121L1120.97 138.12H1120.89C1120.89 138.12 1120.87 138.12 1120.86 138.12H1120.85H1120.72L1120.7 138.1H1120.65L1120.62 138.08H1120.58V138.06H1120.54V138.04C1120.54 138.04 1120.5 138.03 1120.49 138.02H1120.47V138H1120.44V137.98H1120.42V137.96V137.94H1120.4V137.92H1120.38V137.9H1120.37V137.88H1120.36V137.86V137.84V137.82V137.8V137.78V135.29V135.31Z" fill="#766052"/>
<path d="M1120.52 135.07C1120.31 135.19 1120.3 135.39 1120.52 135.52C1120.73 135.64 1121.08 135.64 1121.29 135.52C1121.5 135.4 1121.51 135.2 1121.29 135.07C1121.07 134.94 1120.73 134.95 1120.52 135.07Z" fill="white" stroke="black" stroke-width="0.5" stroke-linecap="round" stroke-linejoin="round"/>
<path d="M1120.91 135.91C1118.26 135.91 1116.95 134.65 1118.41 130.68C1119.87 126.71 1120.91 127.17 1120.91 127.17C1120.91 127.17 1121.94 126.71 1123.41 130.68C1124.87 134.65 1123.57 135.91 1120.91 135.91Z" fill="#62AB51"/>
<path d="M1118.41 130.69C1119.03 129.01 1119.57 128.13 1119.99 127.66C1119.7 128.53 1119.51 129.45 1119.39 130.36C1119.24 131.52 1119.19 132.7 1119.46 133.84C1119.64 134.59 1119.97 135.31 1120.45 135.9C1118.11 135.75 1117.03 134.42 1118.41 130.69Z" fill="#548945"/>
<path d="M1071.7 256.91V256.93V256.95V256.97V256.99V257.01H1071.71V257.03L1071.73 257.05V257.08H1071.75L1071.77 257.11L1071.79 257.14V257.16H1071.81V257.18H1071.84V257.2H1071.87L1071.89 257.22H1071.91C1071.91 257.22 1071.95 257.25 1071.97 257.26H1071.99C1071.99 257.26 1072.03 257.28 1072.05 257.29C1072.05 257.29 1072.09 257.31 1072.11 257.31H1072.15L1072.18 257.33C1072.18 257.33 1072.21 257.33 1072.23 257.34H1072.28C1072.28 257.34 1072.32 257.36 1072.34 257.36H1072.39C1072.39 257.36 1072.43 257.36 1072.45 257.36H1072.49C1072.49 257.36 1072.52 257.36 1072.54 257.36H1072.71L1072.75 257.34H1072.8L1072.84 257.32C1072.84 257.32 1072.88 257.32 1072.89 257.31H1072.92L1072.94 257.29C1072.94 257.29 1072.98 257.28 1072.99 257.27H1073.01C1073.01 257.27 1073.04 257.25 1073.06 257.24H1073.08C1073.08 257.24 1073.12 257.21 1073.14 257.2C1073.27 257.13 1073.35 257.03 1073.38 256.94C1073.38 256.92 1073.38 256.91 1073.39 256.89V256.87V256.85V260.79C1073.39 260.92 1073.31 261.05 1073.14 261.15C1073.12 261.16 1073.1 261.17 1073.08 261.18H1073.06C1073.06 261.18 1073.03 261.2 1073.02 261.21H1073C1073 261.21 1072.96 261.23 1072.95 261.24H1072.92L1072.9 261.26C1072.9 261.26 1072.86 261.26 1072.85 261.27H1072.81L1072.76 261.29H1072.64L1072.6 261.31H1072.58C1072.58 261.31 1072.57 261.31 1072.56 261.31C1072.54 261.31 1072.53 261.31 1072.51 261.31H1072.49H1072.48C1072.48 261.31 1072.44 261.31 1072.42 261.31H1072.37C1072.37 261.31 1072.33 261.3 1072.31 261.3H1072.26C1072.26 261.3 1072.23 261.28 1072.21 261.28H1072.18L1072.14 261.26C1072.14 261.26 1072.1 261.25 1072.09 261.24C1072.09 261.24 1072.05 261.22 1072.03 261.21H1072.01C1072.01 261.21 1071.97 261.18 1071.95 261.17H1071.93L1071.91 261.15H1071.9V261.13H1071.87V261.11H1071.84V261.09H1071.82L1071.8 261.06L1071.78 261.03V261.01H1071.76V260.99H1071.74V260.97H1071.73V260.95V260.93V260.91V260.89V260.87V256.93L1071.7 256.91Z" fill="#766052"/>
<path d="M1071.96 256.53C1071.62 256.73 1071.62 257.05 1071.96 257.25C1072.3 257.45 1072.85 257.45 1073.2 257.25C1073.55 257.05 1073.54 256.73 1073.2 256.53C1072.86 256.33 1072.31 256.33 1071.97 256.53H1071.96Z" fill="white" stroke="black" stroke-width="0.5" stroke-linecap="round" stroke-linejoin="round"/>
<path d="M1072.58 257.87C1068.35 257.87 1066.27 255.86 1068.6 249.54C1070.93 243.21 1072.58 243.94 1072.58 243.94C1072.58 243.94 1074.23 243.21 1076.56 249.54C1078.89 255.87 1076.81 257.87 1072.58 257.87Z" fill="#62AB51"/>
<path d="M1068.6 249.54C1069.59 246.86 1070.45 245.45 1071.12 244.71C1070.65 246.1 1070.35 247.56 1070.16 249.02C1069.92 250.86 1069.83 252.76 1070.26 254.56C1070.54 255.75 1071.07 256.9 1071.84 257.84C1068.11 257.61 1066.39 255.48 1068.59 249.53L1068.6 249.54Z" fill="#548945"/>
<path d="M1061.42 252.03V252.05V252.07V252.09H1061.43V252.11V252.13H1061.44V252.16H1061.46V252.18H1061.49V252.2H1061.51V252.22H1061.54V252.24C1061.54 252.24 1061.58 252.25 1061.59 252.26L1061.62 252.28H1061.66L1061.69 252.3H1061.74L1061.76 252.32H1061.9C1061.9 252.32 1061.92 252.33 1061.93 252.33H1062.06L1062.09 252.31H1062.14L1062.16 252.29H1062.2V252.27H1062.24V252.25C1062.24 252.25 1062.28 252.24 1062.29 252.23C1062.37 252.18 1062.42 252.13 1062.44 252.07C1062.44 252.07 1062.44 252.05 1062.44 252.04C1062.44 252.04 1062.44 252.02 1062.44 252.01V254.4C1062.44 254.48 1062.39 254.56 1062.29 254.62C1062.28 254.62 1062.26 254.63 1062.25 254.64H1062.24L1062.22 254.66H1062.21L1062.18 254.68H1062.15L1062.12 254.7H1062.05L1062.02 254.72H1061.94C1061.94 254.72 1061.92 254.72 1061.91 254.72C1061.91 254.72 1061.91 254.72 1061.9 254.72H1061.77L1061.75 254.7H1061.7L1061.67 254.68H1061.63L1061.6 254.65C1061.6 254.65 1061.58 254.63 1061.56 254.63H1061.54V254.61H1061.51V254.59H1061.49V254.57H1061.47V254.55L1061.45 254.53H1061.44V254.51H1061.43V254.49V254.47V254.45V254.43V254.41V252.02L1061.42 252.03Z" fill="#766052"/>
<path d="M1061.57 251.8C1061.36 251.92 1061.36 252.11 1061.57 252.23C1061.78 252.35 1062.11 252.35 1062.32 252.23C1062.53 252.11 1062.53 251.92 1062.32 251.8C1062.11 251.68 1061.78 251.68 1061.57 251.8Z" fill="white" stroke="black" stroke-width="0.5" stroke-linecap="round" stroke-linejoin="round"/>
<path d="M1061.95 252.61C1059.38 252.61 1058.12 251.39 1059.54 247.55C1060.96 243.71 1061.95 244.15 1061.95 244.15C1061.95 244.15 1062.95 243.71 1064.36 247.55C1065.78 251.39 1064.51 252.61 1061.95 252.61Z" fill="#62AB51"/>
<path d="M1059.53 247.56C1060.13 245.94 1060.65 245.08 1061.06 244.63C1060.78 245.48 1060.6 246.36 1060.48 247.25C1060.33 248.37 1060.28 249.52 1060.54 250.61C1060.71 251.33 1061.03 252.03 1061.5 252.6C1059.24 252.46 1058.19 251.17 1059.53 247.56Z" fill="#548945"/>
<path d="M649.68 311.65V312.24C649.69 312.64 649.95 313.03 650.48 313.34C651.53 313.95 653.24 313.95 654.3 313.34C654.83 313.03 655.1 312.63 655.1 312.23V311.64C655.1 312.04 654.82 312.45 654.29 312.75C653.23 313.36 651.52 313.36 650.47 312.75C649.95 312.45 649.69 312.05 649.69 311.65H649.68Z" fill="#535353"/>
<path d="M650.47 310.54C649.41 311.15 649.41 312.14 650.46 312.75C651.51 313.36 653.22 313.36 654.28 312.75C655.34 312.14 655.34 311.15 654.29 310.54C653.24 309.93 651.53 309.93 650.47 310.54Z" fill="#6D6D6D"/>
<path d="M650.52 308.46V311.42C650.52 311.69 650.71 311.97 651.07 312.18C651.79 312.6 652.97 312.6 653.7 312.18C654.07 311.97 654.25 311.69 654.25 311.41V308.45C654.25 308.73 654.06 309 653.69 309.22C652.96 309.64 651.79 309.64 651.06 309.22C650.7 309.01 650.52 308.74 650.52 308.46Z" fill="#535353"/>
<path d="M651.07 307.7C650.34 308.12 650.34 308.8 651.07 309.22C651.79 309.64 652.97 309.64 653.7 309.22C654.43 308.8 654.43 308.12 653.7 307.7C652.97 307.28 651.8 307.28 651.07 307.7Z" fill="#6D6D6D"/>
<path d="M651.78 279.94V308.35C651.78 308.44 651.84 308.53 651.96 308.59C652.19 308.73 652.57 308.73 652.81 308.59C652.93 308.52 652.99 308.43 652.99 308.34V279.93C652.99 280.02 652.93 280.11 652.81 280.18C652.58 280.32 652.2 280.32 651.96 280.18C651.84 280.11 651.79 280.02 651.79 279.94H651.78Z" fill="#B2B2B2"/>
<path d="M651.96 279.69C651.73 279.83 651.72 280.05 651.96 280.18C652.19 280.32 652.57 280.32 652.81 280.18C653.05 280.04 653.05 279.82 652.81 279.69C652.57 279.56 652.2 279.55 651.96 279.69Z" fill="#DBDBDB"/>
<path d="M652.38 276.38L652.39 282.03L655.07 280.13L655.65 274.49L652.38 276.38Z" fill="#535353"/>
<path d="M649.12 274.49L652.38 276.38L655.65 274.49L652.4 272.59L649.12 274.49Z" fill="#ABABAB"/>
<path d="M649.12 274.49L649.73 280.13L652.39 282.03L652.38 276.38L649.12 274.49Z" fill="#6D6D6D"/>
<path d="M649.48 275.28L649.96 279.76L652.03 281.23L652.02 276.76L649.48 275.28Z" fill="#DEDAD3"/>
<path d="M655.27 275.28L654.79 279.76L652.72 281.23L652.73 276.76L655.27 275.28Z" fill="#DEDAD3"/>
<path d="M648.57 274.51L652.36 276.71L656.18 274.51L652.39 272.31L648.57 274.51Z" fill="#6D6D6D"/>
<path d="M648.57 274.51V274.91L652.36 277.11V276.71L648.57 274.51Z" fill="#535353"/>
<path d="M652.36 276.71V277.11L656.18 274.91V274.51L652.36 276.71Z" fill="#535353"/>
<path d="M653.74 273.57L653.72 273.73C653.72 273.93 653.59 274.13 653.33 274.28C652.8 274.59 651.94 274.59 651.41 274.28C651.14 274.13 651.01 273.92 651.01 273.72L651.03 273.56C651.03 273.56 651.06 272.01 652.39 272.01C653.72 272.01 653.74 273.57 653.74 273.57Z" fill="#B2B2B2"/>
<path d="M652.62 272.17C652.62 272.17 652.6 272.24 652.55 272.27C652.45 272.33 652.3 272.33 652.2 272.27C652.15 272.24 652.13 272.21 652.13 272.17C652.13 272.17 652.13 269.3 652.38 269.3C652.63 269.3 652.62 272.17 652.62 272.17Z" fill="#C1C1C1"/>
</g>
<defs>
<linearGradient id="paint0_linear_152_5" x1="738.193" y1="350.39" x2="734.055" y2="367.422" gradientUnits="userSpaceOnUse">
<stop stop-color="#00FFBF"/>
<stop offset="1" stop-color="#0093C4"/>
</linearGradient>
<clipPath id="clip0_152_5">
<rect width="1218" height="820" fill="white"/>
</clipPath>
</defs>
</svg>
