<svg width="513" height="319" viewBox="0 0 513 319" fill="none" xmlns="http://www.w3.org/2000/svg">
<g clip-path="url(#clip0_112_24294)">
<path d="M68 124.64L27.43 101.36C26.36 100.74 26.37 99.1996 27.43 98.5896L107.15 52.8896C109.2 51.7096 111.73 51.7096 113.78 52.8996L154.35 76.1796C155.42 76.7996 155.41 78.3396 154.35 78.9496L74.63 124.65C72.58 125.83 70.05 125.83 68 124.64Z" fill="#64AE47"/>
<path d="M150.19 35.5095L72.8 80.4794L35.4301 58.9094L112.82 13.9395L150.19 35.5095Z" fill="white"/>
<path d="M144.79 35.0394L72.98 76.6494L41.05 58.2694L112.85 16.6494L144.79 35.0394Z" fill="#CECECE"/>
<path d="M150.19 35.5098L150.09 79.6998L72.7001 124.67L72.8 80.4797L150.19 35.5098Z" fill="#DBDBDB"/>
<path d="M72.8 80.4792L72.7001 124.669L35.3301 103.089L35.4301 58.9092L72.8 80.4792Z" fill="#CECECE"/>
<path d="M44.17 60.0694L41.05 58.2694L112.87 16.6494L112.77 20.2094L44.17 60.0694Z" fill="#E1DDD7"/>
<path d="M112.77 20.2094L112.87 16.6494L144.84 35.0394L141.68 36.8394L112.77 20.2094Z" fill="#EDEDED"/>
<path d="M69.4301 84.3495L69.4101 88.5195L62.3501 84.4395L62.3701 80.2695L69.4301 84.3495Z" fill="#8C8C8C"/>
<path d="M61.17 79.6298L61.1501 83.7998L54.0901 79.7298L54.11 75.5498L61.17 79.6298Z" fill="#8C8C8C"/>
<path d="M52.9001 74.9098L52.8801 79.0798L45.8201 75.0098L45.8401 70.8398L52.9001 74.9098Z" fill="#8C8C8C"/>
<path d="M44.6401 70.1891L44.6201 74.3691L37.5601 70.2891L37.5801 66.1191L44.6401 70.1891Z" fill="#8C8C8C"/>
<path d="M69.4301 92.2597L69.4101 96.4297L62.3501 92.3597L62.3701 88.1797L69.4301 92.2597Z" fill="#8C8C8C"/>
<path d="M61.17 87.5397L61.1501 91.7197L54.0901 87.6398L54.11 83.4697L61.17 87.5397Z" fill="#8C8C8C"/>
<path d="M52.9001 82.819L52.8801 86.999L45.8201 82.919L45.8401 78.749L52.9001 82.819Z" fill="#8C8C8C"/>
<path d="M44.6401 78.1093L44.6201 82.2793L37.5601 78.1993L37.5801 74.0293L44.6401 78.1093Z" fill="#8C8C8C"/>
<path d="M69.4301 100.17L69.4101 104.35L62.3501 100.27L62.3701 96.0996L69.4301 100.17Z" fill="#8C8C8C"/>
<path d="M61.17 95.4599L61.1501 99.6299L54.0901 95.5499L54.11 91.3799L61.17 95.4599Z" fill="#8C8C8C"/>
<path d="M52.9001 90.7392L52.8801 94.9092L45.8201 90.8392L45.8401 86.6592L52.9001 90.7392Z" fill="#8C8C8C"/>
<path d="M44.6401 86.0195L44.6201 90.1895L37.5601 86.1194L37.5801 81.9395L44.6401 86.0195Z" fill="#8C8C8C"/>
<path d="M69.4301 108.09L69.4101 112.26L62.3501 108.18L62.3701 104.01L69.4301 108.09Z" fill="#8C8C8C"/>
<path d="M61.17 103.369L61.1501 107.539L54.0901 103.469L54.11 99.2891L61.17 103.369Z" fill="#8C8C8C"/>
<path d="M52.9001 98.6491L52.8801 102.819L45.8201 98.7491L45.8401 94.5791L52.9001 98.6491Z" fill="#8C8C8C"/>
<path d="M44.6401 93.9294L44.6201 98.1094L37.5601 94.0294L37.5801 89.8594L44.6401 93.9294Z" fill="#8C8C8C"/>
<path d="M76.1801 84.3495L76.2001 88.5195L83.2601 84.4395L83.2401 80.2695L76.1801 84.3495Z" fill="#8C8C8C"/>
<path d="M84.4401 79.6298L84.4601 83.7998L91.5201 79.7298L91.5001 75.5498L84.4401 79.6298Z" fill="#8C8C8C"/>
<path d="M92.7101 74.9098L92.73 79.0798L99.79 75.0098L99.7701 70.8398L92.7101 74.9098Z" fill="#8C8C8C"/>
<path d="M100.97 70.1891L100.99 74.3691L108.05 70.2891L108.03 66.1191L100.97 70.1891Z" fill="#8C8C8C"/>
<path d="M76.1801 92.2597L76.2001 96.4297L83.2601 92.3597L83.2401 88.1797L76.1801 92.2597Z" fill="#8C8C8C"/>
<path d="M84.4401 87.5397L84.4601 91.7197L91.5201 87.6398L91.5001 83.4697L84.4401 87.5397Z" fill="#8C8C8C"/>
<path d="M92.7101 82.819L92.73 86.999L99.79 82.919L99.7701 78.749L92.7101 82.819Z" fill="#8C8C8C"/>
<path d="M100.97 78.1093L100.99 82.2793L108.05 78.1993L108.03 74.0293L100.97 78.1093Z" fill="#8C8C8C"/>
<path d="M76.1801 100.17L76.2001 104.35L83.2601 100.27L83.2401 96.0996L76.1801 100.17Z" fill="#8C8C8C"/>
<path d="M84.4401 95.4599L84.4601 99.6299L91.5201 95.5499L91.5001 91.3799L84.4401 95.4599Z" fill="#8C8C8C"/>
<path d="M92.7101 90.7392L92.73 94.9092L99.79 90.8392L99.7701 86.6592L92.7101 90.7392Z" fill="#8C8C8C"/>
<path d="M100.97 86.0195L100.99 90.1895L108.05 86.1194L108.03 81.9395L100.97 86.0195Z" fill="#8C8C8C"/>
<path d="M76.1801 108.09L76.2001 112.26L83.2601 108.18L83.2401 104.01L76.1801 108.09Z" fill="#8C8C8C"/>
<path d="M84.4401 103.369L84.4601 107.539L91.5201 103.469L91.5001 99.2891L84.4401 103.369Z" fill="#8C8C8C"/>
<path d="M92.7101 98.6491L92.73 102.819L99.79 98.7491L99.7701 94.5791L92.7101 98.6491Z" fill="#8C8C8C"/>
<path d="M100.97 93.9294L100.99 98.1094L108.05 94.0294L108.03 89.8594L100.97 93.9294Z" fill="#8C8C8C"/>
<path d="M114.16 63.1494L114.18 67.3193L121.24 63.2393L121.22 59.0693L114.16 63.1494Z" fill="#8C8C8C"/>
<path d="M122.43 58.4296L122.45 62.5996L129.5 58.5297L129.49 54.3496L122.43 58.4296Z" fill="#8C8C8C"/>
<path d="M130.69 53.7097L130.71 57.8896L137.77 53.8096L137.75 49.6396L130.69 53.7097Z" fill="#8C8C8C"/>
<path d="M138.96 48.9899L138.97 53.1699L146.03 49.09L146.02 44.9199L138.96 48.9899Z" fill="#8C8C8C"/>
<path d="M114.16 71.0595L114.18 75.2295L121.24 71.1595L121.22 66.9795L114.16 71.0595Z" fill="#8C8C8C"/>
<path d="M122.43 66.3395L122.45 70.5195L129.5 66.4395L129.49 62.2695L122.43 66.3395Z" fill="#8C8C8C"/>
<path d="M130.69 61.6298L130.71 65.7998L137.77 61.7198L137.75 57.5498L130.69 61.6298Z" fill="#8C8C8C"/>
<path d="M138.96 56.9091L138.97 61.0791L146.03 57.0091L146.02 52.8291L138.96 56.9091Z" fill="#8C8C8C"/>
<path d="M114.16 78.9694L114.18 83.1494L121.24 79.0694L121.22 74.8994L114.16 78.9694Z" fill="#8C8C8C"/>
<path d="M122.43 74.2597L122.45 78.4297L129.5 74.3497L129.49 70.1797L122.43 74.2597Z" fill="#8C8C8C"/>
<path d="M130.69 69.5389L130.71 73.709L137.77 69.639L137.75 65.459L130.69 69.5389Z" fill="#8C8C8C"/>
<path d="M138.96 64.819L138.97 68.999L146.03 64.919L146.02 60.749L138.96 64.819Z" fill="#8C8C8C"/>
<path d="M114.16 86.8896L114.18 91.0596L121.24 86.9896L121.22 82.8096L114.16 86.8896Z" fill="#8C8C8C"/>
<path d="M122.43 82.1698L122.45 86.3398L129.5 82.2698L129.49 78.0898L122.43 82.1698Z" fill="#8C8C8C"/>
<path d="M130.69 77.4499L130.71 81.6299L137.77 77.5499L137.75 73.3799L130.69 77.4499Z" fill="#8C8C8C"/>
<path d="M138.96 72.7392L138.97 76.9092L146.03 72.8292L146.02 68.6592L138.96 72.7392Z" fill="#8C8C8C"/>
<path d="M72.8 80.4797L63.1901 60.2897L140.75 16.4297L150.19 35.5097L72.8 80.4797Z" fill="#C6C6C6"/>
<path d="M63.1901 60.2899L35.4301 43.6299V58.9099L72.8 80.4799L63.1901 60.2899Z" fill="#B5B5B5"/>
<path d="M35.4301 43.6298L113 -0.240234L140.75 16.4297L63.1901 60.2897L35.4301 43.6298Z" fill="#D1D1D1"/>
<path d="M79.2901 26.4996C75.1001 28.9196 75.0801 32.8396 79.2401 35.2596C83.4001 37.6796 90.1801 37.6796 94.3701 35.2596C98.5601 32.8396 98.5801 28.9196 94.4201 26.4996C90.2601 24.0796 83.4901 24.0796 79.3001 26.4996H79.2901Z" fill="#C4C4C4"/>
<path d="M79.7002 21.1197C79.7002 21.1197 79.7002 21.2097 79.7002 21.2497C79.7002 21.2897 79.7002 21.3297 79.7102 21.3597C79.7102 21.3997 79.7202 21.4497 79.7302 21.4897C79.7302 21.5297 79.7502 21.5697 79.7502 21.6097C79.7502 21.6497 79.7702 21.6897 79.7802 21.7397C79.7902 21.7797 79.8002 21.8197 79.8102 21.8597C79.8202 21.8997 79.8402 21.9397 79.8502 21.9897C79.8602 22.0297 79.8802 22.0697 79.8902 22.0997C79.9102 22.1397 79.9302 22.1897 79.9502 22.2297C79.9702 22.2697 79.9802 22.2997 80.0002 22.3397C80.0202 22.3797 80.0402 22.4297 80.0702 22.4697C80.0902 22.5097 80.1102 22.5397 80.1302 22.5797C80.1602 22.6297 80.1902 22.6797 80.2302 22.7297C80.2502 22.7597 80.2702 22.7897 80.2902 22.8197C80.3302 22.8797 80.3702 22.9297 80.4102 22.9897C80.4302 23.0097 80.4502 23.0397 80.4602 23.0597C80.5302 23.1497 80.6102 23.2397 80.6902 23.3197C80.7102 23.3397 80.7302 23.3597 80.7502 23.3897C80.8102 23.4597 80.8802 23.5197 80.9502 23.5897C80.9802 23.6197 81.0102 23.6497 81.0402 23.6797C81.0802 23.7197 81.1202 23.7497 81.1702 23.7897C81.2102 23.8197 81.2502 23.8597 81.2902 23.8897C81.3302 23.9297 81.3802 23.9597 81.4302 23.9997C81.4702 24.0297 81.5202 24.0697 81.5602 24.0997C81.6102 24.1397 81.6602 24.1697 81.7102 24.1997C81.7602 24.2297 81.8002 24.2597 81.8502 24.2897C81.9002 24.3197 81.9602 24.3597 82.0102 24.3897C82.0802 24.4297 82.1402 24.4697 82.2102 24.5097C82.4002 24.6197 82.6002 24.7197 82.8002 24.8197C82.8502 24.8497 82.9102 24.8697 82.9602 24.8997C83.1402 24.9797 83.3302 25.0597 83.5202 25.1397C83.5402 25.1397 83.5702 25.1597 83.5902 25.1697C83.7902 25.2497 84.0002 25.3197 84.2202 25.3897C84.3702 25.4397 84.5202 25.4797 84.6702 25.5197C84.7802 25.5497 84.9002 25.5797 85.0102 25.6097C85.1702 25.6497 85.3302 25.6797 85.4902 25.7097C85.6102 25.7297 85.7202 25.7597 85.8402 25.7797C85.8902 25.7797 85.9402 25.7997 85.9902 25.7997C86.1902 25.8297 86.3902 25.8597 86.5902 25.8897C86.6502 25.8897 86.7102 25.8997 86.7702 25.9097C86.8902 25.9197 87.0002 25.9297 87.1202 25.9397C87.3202 25.9597 87.5102 25.9697 87.7102 25.9797C87.8402 25.9797 87.9602 25.9797 88.0902 25.9897C88.2502 25.9897 88.4102 25.9897 88.5702 25.9897C88.7002 25.9897 88.8402 25.9897 88.9702 25.9797C89.1202 25.9797 89.2702 25.9697 89.4102 25.9597C89.5502 25.9597 89.6802 25.9397 89.8102 25.9297C89.9602 25.9197 90.1002 25.8997 90.2502 25.8797C90.3802 25.8597 90.5102 25.8397 90.6402 25.8197C90.8002 25.7997 90.9502 25.7697 91.1002 25.7397C91.2202 25.7197 91.3402 25.6897 91.4602 25.6697C91.6402 25.6297 91.8202 25.5797 92.0002 25.5397C92.1202 25.5097 92.2302 25.4797 92.3502 25.4497C92.4102 25.4297 92.4702 25.4097 92.5302 25.3897C92.7102 25.3297 92.8902 25.2697 93.0602 25.2097C93.1102 25.1897 93.1602 25.1697 93.2102 25.1497C93.3702 25.0897 93.5202 25.0197 93.6702 24.9497C93.7402 24.9197 93.8202 24.8897 93.9002 24.8497C94.1202 24.7497 94.3302 24.6297 94.5402 24.5197C95.8302 23.7697 96.6402 22.8497 96.9602 21.8897C97.0102 21.7297 97.0502 21.5697 97.0802 21.4097C97.0902 21.3297 97.1002 21.2497 97.1102 21.1697C97.1102 21.0897 97.1102 21.0097 97.1102 20.9297L97.1902 30.3697C97.1902 31.6697 96.3302 32.9797 94.6102 33.9697C94.4002 34.0897 94.1902 34.1997 93.9702 34.2997C93.9002 34.3397 93.8202 34.3697 93.7402 34.3997C93.6102 34.4597 93.4802 34.5197 93.3502 34.5697C93.3302 34.5697 93.3002 34.5897 93.2802 34.5997C93.2302 34.6197 93.1802 34.6397 93.1302 34.6597C92.9602 34.7197 92.7802 34.7797 92.6002 34.8397C92.5402 34.8597 92.4802 34.8797 92.4202 34.8997C92.3802 34.9097 92.3402 34.9297 92.3002 34.9397C92.2302 34.9597 92.1502 34.9797 92.0802 34.9897C91.9002 35.0397 91.7202 35.0797 91.5402 35.1197C91.4902 35.1297 91.4402 35.1497 91.3902 35.1597C91.3202 35.1697 91.2402 35.1797 91.1702 35.1997C91.0202 35.2297 90.8602 35.2597 90.7102 35.2797C90.6502 35.2797 90.5902 35.2997 90.5202 35.3097C90.4502 35.3097 90.3802 35.3197 90.3202 35.3297C90.1802 35.3497 90.0302 35.3597 89.8802 35.3797C89.8102 35.3797 89.7402 35.3997 89.6702 35.3997C89.6102 35.3997 89.5402 35.3997 89.4802 35.4097C89.3302 35.4197 89.1902 35.4297 89.0402 35.4297C88.9702 35.4297 88.8902 35.4397 88.8202 35.4397C88.7602 35.4397 88.7002 35.4397 88.6402 35.4397C88.4802 35.4397 88.3202 35.4397 88.1602 35.4397C88.0802 35.4397 88.0002 35.4397 87.9202 35.4397C87.8702 35.4397 87.8302 35.4397 87.7802 35.4397C87.5802 35.4397 87.3902 35.4197 87.1902 35.3997C87.1102 35.3997 87.0302 35.3997 86.9502 35.3797C86.9102 35.3797 86.8802 35.3797 86.8402 35.3697C86.7802 35.3697 86.7202 35.3597 86.6602 35.3497C86.4602 35.3297 86.2602 35.2997 86.0602 35.2597C86.0102 35.2597 85.9602 35.2397 85.9102 35.2397C85.8902 35.2397 85.8602 35.2397 85.8402 35.2297C85.7502 35.2097 85.6502 35.1897 85.5602 35.1697C85.4002 35.1397 85.2402 35.1097 85.0802 35.0697C84.9602 35.0397 84.8502 35.0097 84.7402 34.9797C84.5902 34.9397 84.4402 34.8997 84.2902 34.8497C84.2602 34.8497 84.2202 34.8297 84.1902 34.8197C84.0102 34.7597 83.8302 34.6997 83.6602 34.6297C83.6402 34.6297 83.6102 34.6097 83.5902 34.5997C83.4002 34.5297 83.2102 34.4497 83.0302 34.3597C82.9802 34.3397 82.9202 34.3097 82.8702 34.2797C82.6702 34.1797 82.4702 34.0797 82.2802 33.9697C82.2402 33.9497 82.2102 33.9297 82.1702 33.9097C82.1402 33.8897 82.1102 33.8697 82.0702 33.8497C82.0202 33.8197 81.9602 33.7797 81.9102 33.7497C81.8602 33.7197 81.8202 33.6897 81.7702 33.6597C81.7202 33.6297 81.6702 33.5897 81.6202 33.5597C81.5802 33.5297 81.5302 33.4997 81.4902 33.4597C81.4402 33.4197 81.4002 33.3897 81.3502 33.3497C81.3102 33.3197 81.2702 33.2797 81.2302 33.2497C81.1902 33.2097 81.1402 33.1797 81.1002 33.1397C81.0802 33.1197 81.0702 33.1097 81.0502 33.0997C81.0302 33.0897 81.0202 33.0697 81.0102 33.0597C80.9402 32.9897 80.8802 32.9297 80.8102 32.8597C80.7902 32.8397 80.7702 32.8197 80.7502 32.7897C80.6702 32.6997 80.5902 32.6097 80.5202 32.5297C80.5202 32.5297 80.4902 32.4797 80.4702 32.4597C80.4302 32.3997 80.3902 32.3497 80.3502 32.2897C80.3302 32.2597 80.3102 32.2297 80.2902 32.1997C80.2602 32.1497 80.2202 32.0997 80.1902 32.0497C80.1902 32.0397 80.1702 32.0197 80.1602 32.0097C80.1502 31.9897 80.1402 31.9697 80.1302 31.9497C80.1102 31.9097 80.0802 31.8597 80.0602 31.8197C80.0402 31.7797 80.0302 31.7497 80.0102 31.7097C79.9902 31.6697 79.9702 31.6197 79.9502 31.5797C79.9502 31.5597 79.9302 31.5397 79.9302 31.5197C79.9302 31.4997 79.9202 31.4797 79.9102 31.4697C79.9002 31.4297 79.8802 31.3897 79.8702 31.3397C79.8602 31.2997 79.8502 31.2597 79.8402 31.2197C79.8302 31.1797 79.8202 31.1297 79.8102 31.0897C79.8102 31.0697 79.8002 31.0397 79.7902 31.0197C79.7902 30.9997 79.7902 30.9897 79.7902 30.9697C79.7902 30.9297 79.7802 30.8797 79.7702 30.8397C79.7702 30.7997 79.7602 30.7597 79.7602 30.7297C79.7602 30.6897 79.7602 30.6397 79.7602 30.5997C79.7602 30.5697 79.7602 30.5497 79.7602 30.5197C79.7602 30.4897 79.7602 30.4697 79.7602 30.4397L79.6802 20.9997C79.6802 21.0497 79.6802 21.0997 79.6802 21.1497L79.7002 21.1197Z" fill="#EDEDED"/>
<path d="M82.2702 17.36C78.8502 19.34 78.8302 22.54 82.2302 24.52C85.6302 26.5 91.1602 26.49 94.5902 24.52C98.0102 22.54 98.0302 19.34 94.6302 17.36C91.2302 15.38 85.7002 15.38 82.2802 17.36H82.2702Z" fill="white"/>
<path d="M80.7202 19.6192C80.8402 20.5492 81.3702 21.3992 82.0802 22.0192C82.8302 22.6692 83.7502 23.0792 84.6902 23.3692C87.1402 24.1192 89.8202 24.1092 92.2602 23.3192C93.1902 23.0192 94.0902 22.6092 94.8202 21.9592C95.5502 21.3092 96.0702 20.3792 96.1402 19.4092C96.2402 20.1492 96.2502 20.9292 95.9802 21.6192C95.6802 22.3892 95.0502 22.9992 94.3602 23.4592C92.7102 24.5692 90.6902 24.9892 88.7002 25.0192C87.4102 25.0392 86.1202 24.9192 84.8902 24.5392C83.9202 24.2392 83.0002 23.7892 82.2002 23.1592C81.4102 22.5292 80.9502 21.7692 80.7902 20.7692C80.7202 20.3492 80.7102 19.8692 80.7102 19.4092C80.7102 19.4592 80.7102 19.5792 80.7102 19.6192H80.7202Z" fill="#DDDDDD"/>
<path d="M83.0002 16.3096C79.9802 18.0496 79.9602 20.8796 82.9602 22.6296C85.9602 24.3696 90.8402 24.3696 93.8602 22.6296C96.8802 20.8896 96.9002 18.0596 93.9002 16.3196C90.9002 14.5796 86.0202 14.5796 83.0002 16.3196V16.3096Z" fill="white"/>
<path d="M79.54 24.1398L86.86 19.9198C87.05 19.8098 87.2901 19.8798 87.4001 20.0598C87.4501 20.1498 87.4701 20.2598 87.4401 20.3598C87.4101 20.4598 87.3501 20.5498 87.2601 20.5998L79.9401 24.8198C79.5801 25.0298 79.35 25.4198 79.35 25.8398V35.4298C79.35 35.6498 79.1701 35.8198 78.9601 35.8198C78.7501 35.8198 78.5701 35.6398 78.5701 35.4298V25.8398C78.5701 25.1398 78.95 24.4898 79.55 24.1398H79.54Z" fill="#8C8C8C"/>
<path d="M58.2601 37.98C54.0701 40.4 54.0501 44.32 58.2101 46.74C62.3701 49.16 69.1501 49.16 73.3401 46.74C77.5301 44.32 77.5501 40.4 73.3901 37.98C69.2301 35.56 62.4601 35.56 58.2701 37.98H58.2601Z" fill="#C4C4C4"/>
<path d="M58.6701 32.6002C58.6701 32.6002 58.6701 32.6902 58.6701 32.7302C58.6701 32.7702 58.6701 32.8102 58.6801 32.8402C58.6801 32.8802 58.6901 32.9302 58.7001 32.9702C58.7001 33.0102 58.7201 33.0502 58.7201 33.0902C58.7201 33.1302 58.7401 33.1702 58.7501 33.2202C58.7601 33.2602 58.7702 33.3002 58.7802 33.3402C58.7902 33.3802 58.8101 33.4202 58.8201 33.4702C58.8301 33.5102 58.8501 33.5502 58.8601 33.5802C58.8801 33.6202 58.9001 33.6702 58.9201 33.7102C58.9401 33.7502 58.9501 33.7802 58.9701 33.8202C58.9901 33.8602 59.0101 33.9102 59.0401 33.9502C59.0601 33.9902 59.0801 34.0202 59.1001 34.0602C59.1301 34.1102 59.1601 34.1602 59.2001 34.2102C59.2201 34.2402 59.2401 34.2702 59.2601 34.3002C59.3001 34.3602 59.3401 34.4102 59.3801 34.4702C59.4001 34.4902 59.4201 34.5202 59.4301 34.5402C59.5001 34.6302 59.5801 34.7202 59.6601 34.8002C59.6801 34.8202 59.7001 34.8402 59.7201 34.8702C59.7801 34.9402 59.8501 35.0002 59.9201 35.0702C59.9501 35.1002 59.9801 35.1302 60.0101 35.1602C60.0501 35.2002 60.0901 35.2302 60.1401 35.2702C60.1801 35.3002 60.2201 35.3402 60.2601 35.3702C60.3001 35.4102 60.3501 35.4402 60.4001 35.4802C60.4401 35.5102 60.4902 35.5502 60.5302 35.5802C60.5802 35.6202 60.6301 35.6502 60.6801 35.6802C60.7301 35.7102 60.7701 35.7402 60.8201 35.7702C60.8701 35.8002 60.9301 35.8402 60.9801 35.8702C61.0501 35.9102 61.1101 35.9502 61.1801 35.9902C61.3701 36.1002 61.5701 36.2002 61.7701 36.3002C61.8201 36.3302 61.8801 36.3502 61.9301 36.3802C62.1101 36.4602 62.3001 36.5402 62.4901 36.6202C62.5101 36.6202 62.5401 36.6402 62.5601 36.6502C62.7601 36.7302 62.9701 36.8002 63.1901 36.8702C63.3401 36.9202 63.4901 36.9602 63.6401 37.0002C63.7501 37.0302 63.8701 37.0602 63.9801 37.0902C64.1401 37.1302 64.3001 37.1602 64.4601 37.1902C64.5801 37.2102 64.6901 37.2402 64.8101 37.2602C64.8601 37.2602 64.9101 37.2802 64.9601 37.2802C65.1601 37.3102 65.3601 37.3402 65.5601 37.3702C65.6201 37.3702 65.6801 37.3802 65.7401 37.3902C65.8601 37.4002 65.9701 37.4102 66.0901 37.4202C66.2901 37.4402 66.4801 37.4502 66.6801 37.4602C66.8101 37.4602 66.9301 37.4602 67.0601 37.4702C67.2201 37.4702 67.3801 37.4702 67.5401 37.4702C67.6701 37.4702 67.8101 37.4702 67.9401 37.4602C68.0901 37.4602 68.2401 37.4502 68.3801 37.4402C68.5201 37.4402 68.6502 37.4202 68.7802 37.4102C68.9302 37.4002 69.0701 37.3802 69.2201 37.3602C69.3501 37.3402 69.4801 37.3202 69.6101 37.3002C69.7701 37.2802 69.9201 37.2502 70.0701 37.2202C70.1901 37.2002 70.3101 37.1702 70.4301 37.1502C70.6101 37.1102 70.7901 37.0602 70.9701 37.0202C71.0901 36.9902 71.2001 36.9602 71.3201 36.9302C71.3801 36.9102 71.4401 36.8902 71.5001 36.8702C71.6801 36.8102 71.8602 36.7502 72.0302 36.6902C72.0802 36.6702 72.1301 36.6502 72.1801 36.6302C72.3401 36.5702 72.4901 36.5002 72.6401 36.4302C72.7101 36.4002 72.7901 36.3702 72.8701 36.3302C73.0901 36.2302 73.3001 36.1102 73.5101 36.0002C74.8001 35.2502 75.6101 34.3302 75.9301 33.3702C75.9801 33.2102 76.0201 33.0502 76.0501 32.8902C76.0601 32.8102 76.0701 32.7302 76.0801 32.6502C76.0801 32.5702 76.0801 32.4902 76.0801 32.4102L76.1601 41.8502C76.1601 43.1502 75.3001 44.4602 73.5801 45.4502C73.3701 45.5702 73.1601 45.6802 72.9401 45.7802C72.8701 45.8202 72.7901 45.8502 72.7101 45.8802C72.5801 45.9402 72.4501 46.0002 72.3201 46.0502C72.3001 46.0502 72.2701 46.0702 72.2501 46.0802C72.2001 46.1002 72.1501 46.1202 72.1001 46.1402C71.9301 46.2002 71.7501 46.2602 71.5701 46.3202C71.5101 46.3402 71.4501 46.3602 71.3901 46.3802C71.3501 46.3902 71.3101 46.4102 71.2701 46.4202C71.2001 46.4402 71.1201 46.4602 71.0501 46.4702C70.8701 46.5202 70.6901 46.5602 70.5101 46.6002C70.4601 46.6102 70.4101 46.6302 70.3601 46.6402C70.2901 46.6502 70.2101 46.6602 70.1401 46.6802C69.9901 46.7102 69.8301 46.7402 69.6801 46.7602C69.6201 46.7602 69.5601 46.7802 69.4901 46.7902C69.4201 46.7902 69.3501 46.8002 69.2901 46.8102C69.1501 46.8302 69.0001 46.8402 68.8501 46.8602C68.7801 46.8602 68.7101 46.8802 68.6401 46.8802C68.5801 46.8802 68.5101 46.8802 68.4501 46.8902C68.3001 46.9002 68.1601 46.9102 68.0101 46.9102C67.9401 46.9102 67.8601 46.9202 67.7901 46.9202C67.7301 46.9202 67.6701 46.9202 67.6101 46.9202C67.4501 46.9202 67.2901 46.9202 67.1301 46.9202C67.0501 46.9202 66.9701 46.9202 66.8901 46.9202C66.8401 46.9202 66.8001 46.9202 66.7501 46.9202C66.5501 46.9202 66.3601 46.9002 66.1601 46.8802C66.0801 46.8802 66.0001 46.8802 65.9201 46.8602C65.8801 46.8602 65.8501 46.8602 65.8101 46.8502C65.7501 46.8502 65.6901 46.8402 65.6301 46.8302C65.4301 46.8102 65.2302 46.7802 65.0302 46.7402C64.9802 46.7402 64.9301 46.7202 64.8801 46.7202C64.8601 46.7202 64.8301 46.7202 64.8101 46.7102C64.7201 46.6902 64.6202 46.6702 64.5302 46.6502C64.3702 46.6202 64.2101 46.5902 64.0501 46.5502C63.9301 46.5202 63.8201 46.4902 63.7101 46.4602C63.5601 46.4202 63.4101 46.3802 63.2601 46.3302C63.2301 46.3302 63.1901 46.3102 63.1601 46.3002C62.9801 46.2402 62.8001 46.1802 62.6301 46.1102C62.6101 46.1102 62.5801 46.0902 62.5601 46.0802C62.3701 46.0102 62.1801 45.9302 62.0001 45.8402C61.9501 45.8202 61.8901 45.7902 61.8401 45.7602C61.6401 45.6602 61.4401 45.5602 61.2501 45.4502C61.2101 45.4302 61.1801 45.4102 61.1401 45.3902C61.1101 45.3702 61.0801 45.3502 61.0401 45.3302C60.9901 45.3002 60.9301 45.2602 60.8801 45.2302C60.8301 45.2002 60.7901 45.1702 60.7401 45.1402C60.6901 45.1102 60.6401 45.0702 60.5901 45.0402C60.5501 45.0102 60.5001 44.9802 60.4601 44.9402C60.4101 44.9002 60.3701 44.8702 60.3201 44.8302C60.2801 44.8002 60.2401 44.7602 60.2001 44.7302C60.1601 44.6902 60.1101 44.6602 60.0701 44.6202C60.0501 44.6002 60.0401 44.5902 60.0201 44.5802C60.0001 44.5702 59.9901 44.5502 59.9801 44.5402C59.9101 44.4702 59.8502 44.4102 59.7802 44.3402C59.7602 44.3202 59.7401 44.3002 59.7201 44.2702C59.6401 44.1802 59.5601 44.0902 59.4901 44.0102C59.4901 44.0102 59.4601 43.9602 59.4401 43.9402C59.4001 43.8802 59.3601 43.8302 59.3201 43.7702C59.3001 43.7402 59.2801 43.7102 59.2601 43.6802C59.2301 43.6302 59.1901 43.5802 59.1601 43.5302C59.1601 43.5202 59.1401 43.5002 59.1301 43.4902C59.1201 43.4702 59.1101 43.4502 59.1001 43.4302C59.0801 43.3902 59.0502 43.3402 59.0302 43.3002C59.0102 43.2602 59.0001 43.2302 58.9801 43.1902C58.9601 43.1502 58.9401 43.1002 58.9201 43.0602C58.9201 43.0402 58.9001 43.0202 58.9001 43.0002C58.9001 42.9802 58.8901 42.9602 58.8801 42.9502C58.8701 42.9102 58.8501 42.8702 58.8401 42.8202C58.8301 42.7802 58.8201 42.7402 58.8101 42.7002C58.8001 42.6602 58.7902 42.6102 58.7802 42.5702C58.7802 42.5502 58.7701 42.5202 58.7601 42.5002C58.7601 42.4802 58.7601 42.4702 58.7601 42.4502C58.7601 42.4102 58.7501 42.3602 58.7401 42.3202C58.7401 42.2802 58.7301 42.2402 58.7301 42.2102C58.7301 42.1702 58.7301 42.1202 58.7301 42.0802C58.7301 42.0502 58.7301 42.0302 58.7301 42.0002C58.7301 41.9702 58.7301 41.9502 58.7301 41.9202L58.6501 32.4802C58.6501 32.5302 58.6501 32.5802 58.6501 32.6302L58.6701 32.6002Z" fill="#EDEDED"/>
<path d="M61.2401 28.8405C57.8201 30.8205 57.8002 34.0204 61.2002 36.0004C64.6002 37.9804 70.1301 37.9704 73.5601 36.0004C76.9801 34.0204 77.0001 30.8205 73.6001 28.8405C70.2001 26.8605 64.6701 26.8605 61.2501 28.8405H61.2401Z" fill="white"/>
<path d="M59.6901 31.1104C59.8101 32.0404 60.34 32.8904 61.05 33.5104C61.8 34.1604 62.72 34.5704 63.66 34.8604C66.11 35.6104 68.79 35.6004 71.23 34.8104C72.16 34.5104 73.06 34.1004 73.79 33.4504C74.52 32.8004 75.04 31.8704 75.11 30.9004C75.21 31.6404 75.2201 32.4204 74.9501 33.1104C74.6501 33.8804 74.0201 34.4904 73.3301 34.9504C71.6801 36.0604 69.66 36.4804 67.67 36.5104C66.38 36.5304 65.09 36.4104 63.86 36.0304C62.89 35.7304 61.97 35.2804 61.17 34.6504C60.38 34.0204 59.9201 33.2604 59.7601 32.2604C59.6901 31.8404 59.6801 31.3604 59.6801 30.9004C59.6801 30.9504 59.6801 31.0704 59.6801 31.1104H59.6901Z" fill="#DDDDDD"/>
<path d="M61.97 27.7901C58.95 29.5301 58.9301 32.3601 61.9301 34.1101C64.9301 35.8501 69.8101 35.8501 72.8301 34.1101C75.8501 32.3701 75.8701 29.5401 72.8701 27.8001C69.8701 26.0601 64.99 26.0601 61.97 27.8001V27.7901Z" fill="white"/>
<path d="M58.5 35.6203L65.82 31.4003C66.01 31.2903 66.25 31.3602 66.36 31.5402C66.41 31.6302 66.43 31.7403 66.4 31.8403C66.37 31.9403 66.31 32.0303 66.22 32.0803L58.9 36.3002C58.54 36.5102 58.31 36.9003 58.31 37.3203V46.9102C58.31 47.1302 58.13 47.3002 57.92 47.3002C57.71 47.3002 57.53 47.1202 57.53 46.9102V37.3203C57.53 36.6203 57.91 35.9703 58.51 35.6203H58.5Z" fill="#8C8C8C"/>
</g>
<defs>
<clipPath id="clip0_112_24294">
<rect width="513" height="319" fill="white"/>
</clipPath>
</defs>
</svg>
