<svg width="513" height="319" viewBox="0 0 513 319" fill="none" xmlns="http://www.w3.org/2000/svg">
<path d="M468.1 240.7C467.48 241.27 467.19 242.17 466.54 242.68C465.84 243.23 464.89 243.23 464.02 243.22C462.38 243.2 460.43 243.43 459.66 244.96C459.43 245.42 459.34 245.94 459.09 246.39C458.5 247.47 457.21 247.83 456.05 248C454.88 248.17 453.62 248.28 452.74 249.11C452.47 249.37 452.26 249.68 452.07 250.01L454.36 251.35L472.39 240.98C471.84 240.62 471.26 240.31 470.63 240.16C469.76 239.95 468.78 240.09 468.11 240.7H468.1Z" fill="#62370F"/>
</svg>
