<svg width="513" height="319" viewBox="0 0 513 319" fill="none" xmlns="http://www.w3.org/2000/svg">
<path d="M198.77 114.44C192.67 120.07 219.47 120.41 219.47 120.41L219.36 105.95C219.36 105.95 209.27 107.83 198.77 114.44Z" fill="#C8890A"/>
<path d="M240.57 114.22C246.67 119.85 219.45 120.36 219.45 120.36L219.36 105.96C219.36 105.96 232.44 108.8 240.57 114.22Z" fill="#FFEA4B"/>
<path d="M220.7 108.15C220.56 108.13 220.28 108.11 219.95 108.1L219.48 107.83L219.01 108.1C218.68 108.1 218.4 108.12 218.26 108.15C214.22 108.86 196.26 109.6 183.18 130.65H183.26L219.48 151.56L255.7 130.65H255.78C245.8 110.45 224.74 108.85 220.7 108.15Z" fill="#FFD534"/>
<path d="M219.28 107.94L219.01 108.1C218.68 108.1 218.4 108.12 218.26 108.15C214.22 108.86 196.26 109.6 183.18 130.65H183.26L219.29 151.45V107.94H219.28Z" fill="#DA9A0A"/>
<path d="M210.73 117.85C213.9 120.1 212.45 128.41 211.75 131.82L198.88 124.46C204.04 116.73 208.16 116.03 210.73 117.86V117.85Z" fill="url(#paint0_linear_112_12198)"/>
<path d="M210.73 117.85C213.9 120.1 212.45 128.41 211.75 131.82L198.88 124.46C204.04 116.73 208.16 116.03 210.73 117.86V117.85Z" fill="#28221D"/>
<path d="M223.58 108.59L219.4 106.08L215.22 108.59L219.39 110.91L223.57 108.5V108.59H223.58Z" fill="#FFD534"/>
<path d="M226.65 118.291C220.07 122.971 223.07 140.221 224.53 147.291L251.25 132.001C240.54 115.951 231.98 114.491 226.65 118.291Z" fill="#28221D"/>
<g style="mix-blend-mode:screen" opacity="0.7">
<path d="M223.13 139.04C223.53 142.14 224.05 144.97 224.47 147.02C224.53 147.09 224.58 147.16 224.64 147.23C226.39 146.23 248.61 133.51 251.03 132.13C238.79 128.53 226.19 132.74 223.13 139.05V139.04Z" fill="#1A1D17"/>
</g>
<path d="M246.17 125.26C240.28 118.46 235.2 116.2 231.15 116.59L246.17 125.26Z" fill="#BA7F07"/>
<path d="M227.2 119.62C232.4 115.92 240.66 117.22 251 132.15L251.25 132.01C240.54 115.96 231.98 114.5 226.65 118.3C220.07 122.98 223.07 140.23 224.53 147.3L224.79 147.15C223.28 139.4 221.04 124 227.2 119.62V119.62Z" fill="#FFEA4B"/>
<path d="M261.08 137.17L252.14 142.08L251.2 141.61L260.15 136.69L261.08 137.17Z" fill="#3A191E"/>
<path d="M259.61 145.841L258.68 145.371L249.74 131.311L250.67 131.791L259.61 145.841Z" fill="#3A191E"/>
<path d="M249.81 130.451C250.29 130.701 250.68 131.301 250.68 131.791C250.68 132.281 250.29 132.481 249.81 132.241C249.33 131.991 248.94 131.391 248.94 130.901C248.94 130.411 249.33 130.211 249.81 130.451Z" fill="#3A191E"/>
<path d="M260.98 136.221C261.46 136.471 261.85 137.071 261.85 137.561C261.85 138.051 261.46 138.251 260.98 138.011C260.5 137.761 260.11 137.161 260.11 136.671C260.11 136.181 260.5 135.981 260.98 136.221Z" fill="#3A191E"/>
<path d="M260.33 137.51L251.39 142.43L250.46 141.95L259.4 137.03L260.33 137.51Z" fill="#593036"/>
<path d="M258.87 146.19L257.94 145.71L249 131.65L249.93 132.13L258.87 146.19Z" fill="#593036"/>
<path d="M249.07 130.801C249.55 131.051 249.94 131.651 249.94 132.141C249.94 132.631 249.55 132.831 249.07 132.591C248.59 132.341 248.2 131.741 248.2 131.251C248.2 130.761 248.59 130.561 249.07 130.801Z" fill="#593036"/>
<path d="M260.24 136.57C260.72 136.82 261.11 137.42 261.11 137.91C261.11 138.4 260.72 138.6 260.24 138.36C259.76 138.11 259.37 137.51 259.37 137.02C259.37 136.53 259.76 136.33 260.24 136.57Z" fill="#593036"/>
<path d="M259.61 145.841L258.87 146.191L255.16 140.361L255.9 140.011L259.61 145.841Z" fill="#3A191E"/>
<path d="M252.23 141.971L252.14 142.081L251.39 142.431L252.07 142.051L252.23 141.971Z" fill="#3A191E"/>
<path d="M255.12 139.391L254.69 139.621L249.94 132.141L250.43 132.201L255.12 139.391Z" fill="#3A191E"/>
<path d="M269.5 132.801L260.56 137.721L259.62 137.241L268.57 132.321L269.5 132.801Z" fill="#3A191E"/>
<path d="M268.03 141.481L267.1 141.001L258.16 126.941L259.09 127.421L268.03 141.481Z" fill="#3A191E"/>
<path d="M258.11 126.041C258.11 126.041 258.19 126.071 258.23 126.091C258.71 126.341 259.1 126.941 259.1 127.431C259.1 127.921 258.71 128.121 258.23 127.881C257.75 127.631 257.36 127.031 257.36 126.541C257.36 126.521 257.36 126.501 257.36 126.471C257.63 126.351 257.88 126.211 258.11 126.041Z" fill="#3A191E"/>
<path d="M268.93 131.761C269.2 131.931 269.5 132.081 269.82 132.181C270.09 132.471 270.28 132.861 270.28 133.201C270.28 133.691 269.89 133.891 269.41 133.651C268.93 133.401 268.54 132.801 268.54 132.311C268.54 131.991 268.7 131.801 268.95 131.761H268.93Z" fill="#3A191E"/>
<path d="M268.75 133.141L259.81 138.061L258.88 137.591L267.82 132.671L268.75 133.141Z" fill="#593036"/>
<path d="M267.29 141.821L266.36 141.351L257.42 127.291L258.35 127.761L267.29 141.821Z" fill="#593036"/>
<path d="M257.46 126.421H257.48C257.96 126.681 258.35 127.281 258.35 127.771C258.35 128.261 257.96 128.461 257.48 128.221C257 127.971 256.61 127.371 256.61 126.881C256.61 126.821 256.61 126.771 256.63 126.711C256.92 126.641 257.2 126.541 257.46 126.421V126.421Z" fill="#593036"/>
<path d="M268.66 132.201C269.14 132.451 269.53 133.051 269.53 133.541C269.53 134.031 269.14 134.231 268.66 133.991C268.18 133.741 267.79 133.141 267.79 132.651C267.79 132.161 268.18 131.961 268.66 132.201Z" fill="#593036"/>
<path d="M268.03 141.481L267.29 141.821L263.58 135.991L264.32 135.641L268.03 141.481Z" fill="#3A191E"/>
<path d="M260.65 137.601L260.56 137.721L259.81 138.061L260.49 137.691L260.65 137.601Z" fill="#3A191E"/>
<path d="M263.54 135.021L263.11 135.261L258.36 127.771L258.85 127.841L263.54 135.021Z" fill="#3A191E"/>
<path d="M258.66 126.391C263 131.491 269.31 131.811 269.31 131.811C270.04 132.071 270.27 132.851 270.27 132.851C270.5 133.551 270.08 133.711 270.08 133.711L260.84 138.411C261.47 138.031 260.78 137.031 260.78 137.031C260.15 136.301 259.72 136.471 259.72 136.471C252.46 135.301 249.07 130.791 249.07 130.791C248.73 130.651 248.55 130.701 248.47 130.731L257.66 126.041C258.15 125.801 258.66 126.381 258.66 126.381V126.391Z" fill="#DB430D"/>
<path d="M248.47 130.74L248.42 130.76C248.42 130.76 248.44 130.75 248.47 130.74Z" fill="#DB430D"/>
<path d="M363.18 160.58L363.56 159.87L362.31 160.44L363.18 160.58Z" fill="#B46C32"/>
<path d="M364.39 163.41L372.32 175.73L372.92 174.38L364.8 162.19L364.39 163.41Z" fill="#B46C32"/>
<path d="M380.5 169.84L382.21 173.04L383.62 172.41L381.53 169.36L380.5 169.84Z" fill="#B46C32"/>
<path d="M366.66 178.191L368.18 178.971L382.75 170.961L381.23 170.181L366.66 178.191Z" fill="#B46C32"/>
<path d="M364.28 161.421L378.85 184.321L380.36 185.091L365.8 162.191L364.28 161.421Z" fill="#B46C32"/>
<path d="M364.39 160.021C363.6 159.621 362.97 159.941 362.97 160.751C362.97 161.561 363.61 162.531 364.39 162.931C365.18 163.331 365.81 163.011 365.81 162.201C365.81 161.391 365.17 160.421 364.39 160.021Z" fill="#B46C32"/>
<path d="M382.59 169.421C381.8 169.021 381.17 169.341 381.17 170.151C381.17 170.961 381.81 171.931 382.59 172.331C383.38 172.731 384.01 172.411 384.01 171.601C384.01 170.791 383.37 169.821 382.59 169.421Z" fill="#B46C32"/>
<path d="M373.11 176.151L379.15 185.651L380.36 185.091L374.32 175.591L373.11 176.151Z" fill="#B46C32"/>
<path d="M366.97 179.53L368.18 178.97L368.33 178.78L368.08 178.92L366.97 179.53Z" fill="#B46C32"/>
<path d="M364.6 162.761L372.35 174.961L373.05 174.571L365.4 162.871L364.6 162.761Z" fill="#B46C32"/>
<path d="M365.45 178.75L366.97 179.53L381.53 171.52L380.02 170.74L365.45 178.75Z" fill="#C6885B"/>
<path d="M363.07 161.98L377.63 184.88L379.15 185.651L364.58 162.75L363.07 161.98Z" fill="#C6885B"/>
<path d="M363.18 160.58C362.39 160.18 361.76 160.5 361.76 161.31C361.76 162.12 362.4 163.09 363.18 163.49C363.97 163.89 364.6 163.57 364.6 162.76C364.6 161.95 363.96 160.98 363.18 160.58Z" fill="#C6885B"/>
<path d="M381.38 169.981C380.59 169.581 379.96 169.901 379.96 170.711C379.96 171.521 380.6 172.491 381.38 172.891C382.17 173.291 382.8 172.971 382.8 172.161C382.8 171.351 382.16 170.381 381.38 169.981Z" fill="#C6885B"/>
<path d="M334.45 175.31L334.83 174.6L333.58 175.17L334.45 175.31Z" fill="#B46C32"/>
<path d="M335.66 178.14L343.59 190.45L344.19 189.11L336.07 176.92L335.66 178.14Z" fill="#B46C32"/>
<path d="M351.77 184.57L353.48 187.77L354.88 187.13L352.8 184.09L351.77 184.57Z" fill="#B46C32"/>
<path d="M337.93 192.919L339.45 193.699L354.02 185.679L352.5 184.909L337.93 192.919Z" fill="#B46C32"/>
<path d="M335.55 176.14L350.12 199.05L351.63 199.82L337.07 176.92L335.55 176.14Z" fill="#B46C32"/>
<path d="M335.66 174.75C334.87 174.35 334.24 174.67 334.24 175.48C334.24 176.29 334.88 177.26 335.66 177.66C336.45 178.06 337.08 177.74 337.08 176.93C337.08 176.12 336.44 175.15 335.66 174.75Z" fill="#B46C32"/>
<path d="M353.86 184.15C353.07 183.75 352.44 184.07 352.44 184.88C352.44 185.69 353.08 186.66 353.86 187.06C354.65 187.46 355.28 187.14 355.28 186.33C355.28 185.52 354.64 184.55 353.86 184.15Z" fill="#B46C32"/>
<path d="M344.37 190.88L350.42 200.38L351.63 199.82L345.59 190.32L344.37 190.88Z" fill="#B46C32"/>
<path d="M338.24 194.26L339.45 193.7L339.6 193.51L339.35 193.64L338.24 194.26Z" fill="#B46C32"/>
<path d="M335.87 177.49L343.62 189.69L344.32 189.3L336.67 177.6L335.87 177.49Z" fill="#B46C32"/>
<path d="M336.72 193.48L338.24 194.26L352.8 186.24L351.29 185.47L336.72 193.48Z" fill="#C6885B"/>
<path d="M334.33 176.71L348.9 199.61L350.42 200.38L335.85 177.48L334.33 176.71Z" fill="#C6885B"/>
<path d="M334.45 175.31C333.66 174.91 333.03 175.23 333.03 176.04C333.03 176.85 333.67 177.82 334.45 178.22C335.24 178.62 335.87 178.3 335.87 177.49C335.87 176.68 335.23 175.71 334.45 175.31Z" fill="#C6885B"/>
<path d="M352.65 184.71C351.86 184.31 351.23 184.63 351.23 185.44C351.23 186.25 351.87 187.22 352.65 187.62C353.44 188.02 354.07 187.7 354.07 186.89C354.07 186.08 353.43 185.11 352.65 184.71Z" fill="#C6885B"/>
<path d="M328.54 176.02L349.13 186.54L388.17 166.6L367.58 156.07L328.54 176.02Z" fill="#FFDBA8"/>
<path d="M349.13 186.541V188.931L388.17 168.981V166.601L349.13 186.541Z" fill="#B46C32"/>
<path d="M328.54 178.41L349.13 188.93V186.54L328.54 176.021V178.41Z" fill="#C6885B"/>
<path d="M224.37 176.59C223.99 176.34 223.61 176.15 223.13 175.88C222.97 175.79 222.8 175.69 222.63 175.59C221.43 175.18 220.32 174.49 219.22 173.76C219.06 173.66 218.91 173.55 218.75 173.45C217.25 172.7 215.84 171.93 214.43 170.99C214.25 170.87 214.08 170.75 213.9 170.63C211.68 169.63 209.38 168.86 207.76 167.01C207.63 166.93 207.49 166.85 207.36 166.78C207.21 166.69 207.06 166.61 206.91 166.52C206.76 166.43 206.61 166.35 206.46 166.26C204.57 165.59 203.23 164.43 201.7 163.51C201.56 163.43 201.43 163.35 201.29 163.27C200.24 162.79 199.19 162.36 198.19 161.84C198.02 161.75 197.86 161.67 197.7 161.57C195.92 160.77 194.58 159.42 192.98 158.46C192.81 158.36 192.67 158.28 192.55 158.21L192.2 158L192.1 158.06C192.03 158.1 191.93 158.16 191.8 158.24C190.35 159.22 189.01 160.18 187.19 160.91C186.98 161.02 186.78 161.14 186.57 161.26C186.4 161.36 186.23 161.46 186.06 161.56C185.29 162.23 184.37 162.77 183.4 163.27C183.24 163.35 183.08 163.43 182.92 163.51C181.52 165.18 179.79 165.95 177.67 166.4C177.56 166.46 177.45 166.52 177.35 166.59C177.15 166.71 176.94 166.83 176.74 166.94C176.54 167.06 176.33 167.18 176.13 167.3C174.8 168.64 173.07 169.41 171.26 170.11C171.06 170.23 170.86 170.34 170.67 170.45C170.57 170.51 170.46 170.57 170.36 170.63C170.26 170.69 170.15 170.75 170.05 170.81C168.63 172.14 167.09 172.89 165.42 173.58C165.23 173.66 165.05 173.73 164.86 173.81C163.28 174.79 161.74 175.75 160.3 176.48C160.16 176.56 160.03 176.64 159.89 176.72C159.62 176.87 159.34 177 159.05 177.1C160.78 177.48 162.13 178.83 163.65 179.87C163.77 179.94 163.9 180.01 164.02 180.08C165.97 180.94 167.7 181.91 169.19 183.05C169.32 183.14 169.47 183.22 169.61 183.3C171.55 183.83 173.09 184.6 174.52 186.14C174.66 186.22 174.8 186.3 174.93 186.38C176.93 186.91 178.66 188.06 180.21 189.43C180.34 189.51 180.47 189.58 180.59 189.65C182.5 190.36 184.03 191.13 185.65 192.57C185.82 192.68 185.99 192.77 186.16 192.86C187.72 193.68 189.56 193.99 190.8 195.53C190.93 195.62 191.06 195.69 191.17 195.75C191.85 196.14 192.23 196.36 192.23 196.36C192.23 196.36 192.4 196.26 192.71 196.08C192.87 195.99 193.06 195.88 193.29 195.75C194.8 194.01 196.53 192.85 198.82 192.56C198.94 192.49 199.06 192.42 199.19 192.35C199.52 192.16 199.86 191.96 200.21 191.76C200.33 191.66 200.44 191.58 200.56 191.5C201.51 190.29 202.83 189.74 204.15 189.22C204.34 189.14 204.53 189.07 204.72 188.98C206.33 187.85 207.87 186.89 209.65 186.31C209.79 186.23 209.94 186.14 210.08 186.06C211.72 184.78 213.64 183.62 215.81 182.75C215.95 182.67 216.09 182.59 216.23 182.51C217.1 181.79 218.01 181.09 218.99 180.55C219.15 180.46 219.32 180.37 219.49 180.29C221.15 179.21 223.07 178.44 224.85 177.54C224.99 177.46 225.1 177.4 225.19 177.34C225.38 177.23 225.47 177.18 225.47 177.18C225.47 177.18 225.3 177.08 224.99 176.9C224.83 176.81 224.64 176.7 224.41 176.57L224.37 176.59Z" fill="#D63B00"/>
<g opacity="0.75">
<path opacity="0.75" d="M219.97 175.84C219.19 175.58 218.81 175.2 218.19 174.81C218.08 174.75 217.98 174.69 217.87 174.63C217.35 174.33 216.8 174.01 216.24 173.69C216.13 173.62 216.01 173.56 215.9 173.49C215.34 173.27 214.77 172.89 214.13 172.47C214.01 172.4 213.89 172.33 213.76 172.26C213.15 171.91 212.52 171.55 211.89 171.18C211.76 171.11 211.64 171.03 211.51 170.96C210.15 170.39 209 169.43 207.6 168.7C207.47 168.62 207.34 168.55 207.21 168.47C206.17 167.87 205.14 167.27 204.12 166.68C203.97 166.6 203.83 166.51 203.68 166.43C203.23 166.15 202.84 165.96 202.39 165.68C202.25 165.6 202.11 165.52 201.97 165.43C201.04 164.89 200.13 164.37 199.26 163.87C199.12 163.79 198.97 163.7 198.83 163.62C198.09 163.06 197.15 162.82 196.37 162.35C196.24 162.27 196.11 162.19 195.99 162.1C195.34 161.15 194.19 161.35 193.38 160.48C193.27 160.41 193.16 160.35 193.05 160.29C192.8 160.15 192.56 160.01 192.35 159.89C192.13 159.77 191.94 159.65 191.76 159.55C190.73 158.27 189.77 160.19 188.61 160.19C189.38 160.77 190.15 160.96 190.92 161.5C191.07 161.59 191.23 161.68 191.39 161.77C197.7 165.41 212.72 174.08 218.97 177.69C219.14 177.79 219.31 177.89 219.47 177.98C220.14 178.45 221.1 178.45 221.75 178.81C221.83 178.84 221.88 178.86 221.88 178.86C222.64 178.64 223.22 178.07 223.99 178.07C223.03 177.11 221.68 176.92 220.55 176.16C220.36 176.05 220.17 175.94 219.97 175.83V175.84Z" fill="white"/>
<path opacity="0.75" d="M215.89 178.86C208.47 174.58 190.95 164.46 186.86 162.1C186.67 161.99 186.52 161.9 186.39 161.83C185.36 161.74 184.78 162.7 184.01 163.08C184.59 163.46 185.55 163.27 185.86 163.96C186 164.04 186.14 164.12 186.29 164.21C192.63 167.87 209.64 177.69 215.28 180.95C215.43 181.03 215.56 181.11 215.69 181.19C216.3 181.35 216.49 181.73 216.98 181.85L217.1 181.9C217.84 181.55 218.23 180.78 219.19 180.59C218.42 180.01 217.27 179.82 216.43 179.19C216.26 179.09 216.08 178.98 215.89 178.88V178.86Z" fill="white"/>
<path opacity="0.75" d="M211.01 181.681C204.26 177.781 189.18 169.071 183.41 165.741C183.27 165.661 183.13 165.581 183 165.501C181.71 164.231 180.75 165.571 179.21 165.961C180.17 166.541 181.32 166.921 182.26 167.511C182.43 167.611 182.6 167.711 182.78 167.811C189.72 171.821 204.3 180.241 209.95 183.491C210.11 183.581 210.26 183.671 210.41 183.751C210.93 184.211 211.51 184.021 212.15 184.331C212.23 184.351 212.27 184.361 212.27 184.361C212.85 183.821 213.62 183.631 214.39 183.431C213.43 182.851 212.28 182.661 211.56 181.961C211.39 181.861 211.21 181.761 211.02 181.651L211.01 181.681Z" fill="white"/>
<path opacity="0.75" d="M175.91 167.45C175.55 167.89 174.59 168.08 174.78 168.66C174.78 169.24 175.74 169.04 176.3 169.47C176.44 169.55 176.58 169.63 176.73 169.72C182.73 173.18 198.37 182.21 204.77 185.91C204.94 186.01 205.11 186.11 205.27 186.2C206.11 186.54 206.88 186.73 207.59 187.07C207.67 187.11 207.72 187.13 207.72 187.13C208.23 186.93 208.61 186.74 209.15 186.6C209.45 186.45 209.69 186.31 209.69 186.31L176.45 167.12C176.45 167.12 176.22 167.26 175.91 167.45V167.45Z" fill="white"/>
<path opacity="0.75" d="M203.79 188.461C202.83 187.891 201.92 187.341 200.88 186.861C200.68 186.741 200.47 186.631 200.26 186.501C193.43 182.561 180.7 175.211 174.76 171.781C174.6 171.691 174.44 171.591 174.28 171.501C173.23 170.961 172.27 169.811 171.01 170.241C170.85 170.331 170.68 170.431 170.5 170.531C170.37 170.611 170.24 170.681 170.11 170.751C169.99 170.821 169.87 170.891 169.77 170.951C169.58 170.951 169.58 171.141 169.39 171.141C169.77 171.141 169.97 171.721 170.31 171.631C170.4 171.681 170.5 171.741 170.61 171.801C175.2 174.451 192.09 184.201 199.34 188.391C199.53 188.501 199.71 188.601 199.88 188.701C200.72 189.391 201.49 189.391 202.39 189.661C202.47 189.701 202.52 189.731 202.52 189.731C202.86 189.381 203.4 189.351 203.95 189.251C204.09 189.231 204.23 189.201 204.36 189.161C204.5 189.121 204.63 189.071 204.76 188.991C204.59 188.911 204.42 188.821 204.26 188.721C204.1 188.621 203.94 188.531 203.78 188.431L203.79 188.461Z" fill="white"/>
<path opacity="0.75" d="M169.7 174.24C168.24 173.46 166.9 172.31 165.35 173.56C165.02 173.71 164.78 173.84 164.78 173.84L164.88 173.9C164.95 173.94 165.04 173.99 165.17 174.07C165.93 174.43 166.5 174.81 167.06 175.16C167.2 175.24 167.35 175.33 167.51 175.42C173.22 178.71 186.47 186.37 193.49 190.42C193.7 190.54 193.91 190.66 194.11 190.78C195.35 191.74 196.7 191.93 197.79 192.85C197.88 192.91 197.93 192.94 197.93 192.94C197.93 192.94 198.22 192.87 198.57 192.72C198.74 192.64 198.92 192.53 199.09 192.43C199.62 192.13 200.15 191.82 200.15 191.82C200.15 191.82 178.68 179.43 170.25 174.56C170.06 174.45 169.88 174.35 169.71 174.25L169.7 174.24Z" fill="white"/>
<path opacity="0.75" d="M192.53 192.35C185.61 188.36 169.94 179.31 164.52 176.18C164.39 176.1 164.26 176.03 164.14 175.96C163.06 174.81 161.91 175.77 160.56 176.35C161.33 176.35 161.71 177.12 162.39 177.34C162.54 177.44 162.68 177.55 162.83 177.65C163.27 177.96 163.74 178.26 164.26 178.48C164.39 178.55 164.52 178.63 164.65 178.71C164.78 178.79 164.92 178.86 165.05 178.94C165.17 179.01 165.29 179.08 165.41 179.15C166.9 179.82 168.24 180.78 169.55 181.54C169.7 181.63 169.85 181.71 170 181.8C170.15 181.89 170.31 181.98 170.46 182.07C170.6 182.15 170.74 182.23 170.88 182.31C172.08 182.89 173.23 183.66 174.37 184.33C174.52 184.42 174.67 184.5 174.82 184.59C175.12 184.76 175.42 184.94 175.72 185.11C175.85 185.19 175.99 185.27 176.12 185.34C177.46 185.97 178.8 186.55 179.76 187.44C179.89 187.52 180.03 187.59 180.16 187.67C180.56 187.9 180.96 188.13 181.35 188.36C181.48 188.43 181.6 188.51 181.73 188.58C183.22 189.43 184.76 190.2 186.07 191.09C186.18 191.16 186.3 191.22 186.41 191.28C186.54 191.35 186.66 191.42 186.79 191.5C188.22 192.51 189.76 192.89 190.94 193.89C191.12 194 191.29 194.09 191.45 194.19C191.93 194.47 192.35 194.71 192.69 194.9C192.86 195 193.01 195.09 193.14 195.16C193.27 195.24 193.38 195.3 193.47 195.35C193.65 195.45 193.75 195.5 193.75 195.5C194.19 194.82 194.76 194.24 195.34 193.66C194.57 193.28 193.8 193.08 193.06 192.68C192.89 192.58 192.71 192.48 192.52 192.37L192.53 192.35Z" fill="white"/>
</g>
<g opacity="0.35">
<path opacity="0.35" d="M221.41 175.68C220.34 175.01 219 174.43 217.87 173.64C217.76 173.58 217.65 173.51 217.54 173.45C216.12 172.71 214.96 171.94 213.62 171.18C213.5 171.11 213.37 171.03 213.24 170.96C211.5 170.01 209.58 169.24 207.88 167.87C207.74 167.79 207.6 167.71 207.46 167.63C206.88 167.3 206.31 166.96 205.73 166.63C205.59 166.55 205.44 166.46 205.3 166.38C204 165.97 203.04 165.01 201.96 164.45C201.83 164.37 201.69 164.29 201.56 164.22C201.25 164.04 200.94 163.86 200.64 163.69C200.49 163.6 200.34 163.51 200.19 163.43C199.41 162.97 198.59 162.56 197.77 162.11C197.61 162.02 197.44 161.93 197.28 161.84C195.74 161.17 194.4 160.02 192.99 159.27C192.8 159.16 192.63 159.06 192.48 158.98C192.33 158.89 192.19 158.81 192.07 158.74C191.32 158.29 190.36 159.25 189.79 159.83C190.17 160.21 190.75 160.6 191.3 160.74C191.43 160.81 191.57 160.89 191.71 160.98C197.48 164.31 212.56 173.02 219.31 176.91C219.5 177.02 219.68 177.12 219.85 177.22C220.54 177.9 221.69 177.71 222.62 178.36C222.7 178.41 222.74 178.43 222.74 178.43C223.42 178.28 224 177.9 224.77 177.7C224 176.93 222.85 176.55 221.96 175.99C221.79 175.89 221.61 175.79 221.41 175.68V175.68Z" fill="white"/>
<path opacity="0.35" d="M218.71 179.5C218.23 179.24 217.76 178.96 217.29 178.68C217.12 178.58 216.93 178.47 216.75 178.37C208.32 173.5 186.85 161.11 186.85 161.11C186.85 161.11 186.62 161.24 186.3 161.43C185.73 161.75 185.35 162.13 184.77 162.52C185.35 162.71 185.73 163.1 186.25 163.21C186.37 163.28 186.5 163.35 186.63 163.43C192.36 166.74 209.45 176.6 215.67 180.2C215.83 180.29 215.98 180.38 216.13 180.47C216.68 180.79 217.25 181.17 217.79 181.19C217.87 181.22 217.91 181.23 217.91 181.23C218.26 181.01 218.62 180.8 219 180.62C219.12 180.56 219.25 180.51 219.38 180.45C219.57 180.39 219.95 180.39 220.15 180.2C219.77 180.01 219.57 179.82 219.19 179.76C219.03 179.68 218.87 179.59 218.71 179.51V179.5Z" fill="white"/>
<path opacity="0.35" d="M211.87 181.191C205.12 177.291 190.04 168.581 184.27 165.261C184.13 165.181 183.99 165.101 183.86 165.021C183.73 164.991 183.6 164.931 183.49 164.851C183.37 164.781 183.26 164.691 183.15 164.601C181.9 163.471 181.13 165.401 180.17 165.781C181.13 165.971 181.9 166.361 182.73 166.801C182.89 166.891 183.06 166.991 183.23 167.091C189.8 170.881 204.22 179.211 210.31 182.721C210.48 182.821 210.65 182.921 210.81 183.001C211.51 183.461 212.28 183.461 213.01 183.781C213.09 183.811 213.13 183.831 213.13 183.831C213.81 183.651 214.39 183.271 215.16 183.081C214.2 182.501 213.43 182.121 212.42 181.501C212.25 181.401 212.07 181.291 211.88 181.191H211.87Z" fill="white"/>
<path opacity="0.35" d="M210.07 185.53C206.81 183.65 187.97 172.77 180.43 168.42C180.25 168.32 180.09 168.22 179.92 168.13C179.01 167.9 178.63 167.13 177.76 166.88C177.61 166.8 177.5 166.73 177.43 166.69C177.35 166.65 177.31 166.62 177.31 166.62C177.31 166.62 177.08 166.76 176.76 166.94C176.6 167.03 176.43 167.13 176.25 167.23C175.93 167.51 175.36 167.51 175.36 168.09C175.74 168.09 176.13 168.09 176.42 168.55C176.53 168.61 176.65 168.68 176.77 168.76C182.01 171.78 198.91 181.54 205.64 185.43C205.81 185.53 205.98 185.63 206.14 185.72C206.89 185.98 207.65 186.37 208.38 186.8C208.46 186.85 208.5 186.88 208.5 186.88C208.81 186.94 209.19 186.56 209.49 186.44C209.67 186.34 209.84 186.24 210 186.15C210.31 185.97 210.55 185.83 210.55 185.83C210.55 185.83 210.51 185.81 210.43 185.76C210.35 185.71 210.23 185.65 210.07 185.55V185.53Z" fill="white"/>
<path opacity="0.35" d="M204.39 187.78C204.26 187.7 204.12 187.61 203.98 187.53C203.43 187.2 202.87 186.9 202.31 186.69C202.13 186.58 201.93 186.47 201.73 186.36C195.13 182.55 181.94 174.93 175.76 171.36C175.59 171.26 175.42 171.16 175.26 171.07C174.2 170.57 172.85 169.04 171.36 170.04C171.18 170.14 171 170.24 170.85 170.33C170.54 170.51 170.3 170.65 170.3 170.65C170.3 170.65 190.82 182.5 199.62 187.58C199.82 187.7 200.01 187.81 200.2 187.91C201.11 188.65 202.26 188.65 203.27 189.31C203.36 189.37 203.4 189.4 203.4 189.4C203.55 189.36 203.69 189.31 203.84 189.27C203.98 189.23 204.13 189.18 204.27 189.14C204.76 189.23 205.14 188.65 205.72 188.46C205.34 188.08 204.57 188.27 204.38 187.78H204.39Z" fill="white"/>
<path opacity="0.35" d="M199.94 190.701C199.83 190.641 199.7 190.571 199.57 190.501C194.43 187.531 176.84 177.381 170.26 173.581C170.1 173.491 169.95 173.401 169.81 173.321C168.43 172.321 167.08 172.891 165.74 173.471C166.7 173.851 167.66 174.431 168.49 174.991C168.65 175.081 168.82 175.181 168.99 175.281C175.17 178.851 188.37 186.471 194.96 190.281C195.16 190.401 195.35 190.511 195.54 190.611C196.5 191.151 197.46 191.731 198.4 192.261C198.56 192.351 198.68 192.421 198.76 192.471L198.88 192.541L199.94 191.931C200.12 191.821 200.29 191.711 200.45 191.601C200.72 191.531 201.11 191.341 200.92 191.151C200.73 190.961 200.34 190.771 199.94 190.701V190.701Z" fill="white"/>
<path opacity="0.35" d="M192.81 191.52C185.48 187.29 170.01 178.35 165.05 175.49C164.93 175.42 164.81 175.35 164.7 175.29C163.63 174.04 162.67 175.58 161.32 175.77C162.09 176.15 162.67 176.73 163.38 176.94C163.55 177.04 163.72 177.14 163.89 177.24C164.06 177.34 164.22 177.44 164.38 177.55C164.5 177.62 164.63 177.7 164.76 177.77C165.28 178.07 165.85 178.4 166.46 178.75C166.56 178.81 166.67 178.87 166.77 178.93C167.66 179.23 168.24 179.81 169.11 180.28C169.23 180.35 169.34 180.41 169.46 180.48C173.4 182.76 178.22 185.54 182.58 188.06C182.71 188.13 182.84 188.21 182.96 188.28C183.99 188.65 184.57 189.42 185.57 189.79C185.69 189.86 185.81 189.93 185.93 190C186.52 190.34 187.1 190.68 187.65 191C187.77 191.07 187.9 191.14 188.02 191.21C189 191.74 189.76 192.12 190.68 192.75C190.88 192.87 191.08 192.98 191.26 193.09C191.78 193.39 192.24 193.66 192.65 193.89C192.85 194.01 193.05 194.12 193.22 194.21C193.6 194.43 193.99 194.82 194.28 194.67C194.41 194.73 194.47 194.76 194.47 194.76C194.56 193.67 195.71 193.67 196.29 193.09C195.33 192.71 194.37 192.32 193.36 191.87C193.18 191.76 192.98 191.65 192.78 191.54L192.81 191.52Z" fill="white"/>
</g>
<g opacity="0.75">
<path opacity="0.75" d="M193.22 159.6C193.13 159.65 193.03 159.71 192.92 159.77C192.73 159.88 192.52 160 192.28 160.14C192.16 160.21 192.04 160.28 191.92 160.35C190.92 160.97 190.15 161.35 189.19 161.93C189.01 162.03 188.84 162.13 188.65 162.24C187.99 162.62 187.28 163.03 186.55 163.45C186.37 163.56 186.18 163.66 185.99 163.77C185.16 164.03 184.78 164.42 184.24 164.78C184.04 164.9 183.84 165.01 183.64 165.13C183.44 165.24 183.25 165.36 183.05 165.47C181.71 166.34 180.37 167.11 179.05 167.78C178.95 167.84 178.84 167.9 178.74 167.96C178.11 168.32 177.48 168.69 176.85 169.05C176.75 169.11 176.64 169.17 176.54 169.23C175.19 170.18 173.84 170.75 172.51 171.56C172.31 171.68 172.11 171.79 171.91 171.91C171.48 172.16 171.06 172.4 170.65 172.64C170.44 172.76 170.24 172.88 170.03 173C168.84 173.46 167.69 174.42 166.6 174.98C166.42 175.08 166.25 175.18 166.08 175.28C165.4 175.67 164.78 176.03 164.21 176.36C164.02 176.47 163.84 176.57 163.67 176.67C163.45 176.92 163.07 176.92 162.79 177.14C162.66 177.22 162.53 177.31 162.4 177.39C162.01 177.64 161.63 177.88 161.15 178.07C162.11 178.65 163.07 179.99 164.04 178.89C164.15 178.82 164.27 178.75 164.4 178.68C169.58 175.69 187.38 165.41 193.85 161.68C193.99 161.6 194.12 161.52 194.25 161.45C194.79 161.34 195.37 160.77 195.91 160.49C195.97 160.45 196 160.43 196 160.43C194.79 160.18 194.22 158.45 193.24 159.59L193.22 159.6Z" fill="white"/>
<path opacity="0.75" d="M196.45 163.12C196.31 163.2 196.16 163.29 196 163.38C189.94 166.88 175.43 175.26 168.85 179.05C168.66 179.16 168.48 179.26 168.31 179.37C167.28 179.81 166.7 180.77 165.74 180.96C167.09 181.73 168.24 182.5 169.46 181.14C169.6 181.06 169.76 180.97 169.92 180.87C176.58 177.03 195.67 166 199.99 163.51C200.18 163.4 200.34 163.31 200.47 163.23C200.6 163.15 200.7 163.1 200.76 163.06C200.83 163.02 200.86 163 200.86 163C199.39 162.11 197.85 161.72 196.45 163.11V163.12Z" fill="white"/>
<path opacity="0.75" d="M202.42 165.32C202.31 165.38 202.19 165.45 202.07 165.53C196.83 168.55 179.93 178.31 173.2 182.2C173.03 182.3 172.86 182.4 172.7 182.49C171.9 182.7 171.13 183.47 170.37 183.67C171.52 184.05 172.68 184.82 173.95 184.21C174.08 184.14 174.22 184.07 174.36 183.98C180.26 180.57 198.66 169.95 204.18 166.76C204.3 166.69 204.42 166.62 204.54 166.55C204.79 166.17 205.36 166.36 205.62 165.92L205.72 165.86C204.6 165.59 203.45 164.05 202.44 165.33L202.42 165.32Z" fill="white"/>
<path opacity="0.75" d="M207.9 167.541C207.77 167.611 207.61 167.711 207.42 167.811C203.1 170.301 184.01 181.331 177.35 185.171C177.19 185.261 177.04 185.351 176.89 185.431C176.31 185.961 175.54 186.151 174.97 186.531C176.51 187.301 178.05 187.491 179.46 186.381C179.62 186.291 179.79 186.191 179.96 186.091C186.21 182.481 201.23 173.811 207.54 170.171C207.7 170.081 207.86 169.991 208.01 169.901C208.61 169.421 209.19 169.231 209.83 168.781C209.87 168.751 209.89 168.731 209.89 168.731C209.19 168.461 209 167.111 207.9 167.531V167.541Z" fill="white"/>
<path opacity="0.75" d="M213.73 170.44C213.04 169.81 212.47 170.58 211.95 170.83C211.84 170.9 211.72 170.96 211.59 171.04C205.79 174.39 185.84 185.91 181 188.7C180.77 188.83 180.58 188.94 180.42 189.03C180.16 189.03 180.16 189.22 179.97 189.22C180.16 189.41 180.35 189.6 180.48 189.63C180.66 189.8 180.83 189.92 181.01 190.01C182.27 190.63 183.6 189.52 184.84 188.92C185.01 188.82 185.2 188.71 185.38 188.61C192.3 184.62 207.97 175.57 213.39 172.44C213.52 172.36 213.65 172.29 213.77 172.22C214.17 171.93 214.56 171.74 215.02 171.43C215.07 171.39 215.09 171.37 215.09 171.37C214.83 171.07 214.44 170.99 214.07 170.76C213.95 170.68 213.82 170.58 213.7 170.45L213.73 170.44Z" fill="white"/>
<path opacity="0.75" d="M218.8 173.33C218.04 172.51 217.08 173.08 216.38 173.67C216.27 173.74 216.15 173.8 216.03 173.87C210.24 177.21 192.27 187.59 186.45 190.95C186.3 191.03 186.17 191.11 186.04 191.19C185.75 191.54 185.17 191.73 184.6 191.93C185.18 191.93 185.18 192.7 185.68 192.63C185.86 192.76 186.03 192.85 186.21 192.9C187.44 193.29 188.59 192.06 189.53 191.62C189.7 191.52 189.88 191.41 190.07 191.31C196.99 187.32 212.66 178.27 218.08 175.14C218.21 175.06 218.34 174.99 218.46 174.92C219.01 175.02 219.2 174.05 219.74 174.18C219.8 174.15 219.83 174.13 219.83 174.13C219.56 174.04 219.33 173.85 219.12 173.65C219.01 173.55 218.91 173.44 218.81 173.34L218.8 173.33Z" fill="white"/>
<path opacity="0.75" d="M223.17 175.89C222.99 175.79 222.82 175.69 222.66 175.6C222.07 175 221.49 175.77 220.8 176.04C220.68 176.11 220.55 176.18 220.42 176.26C217.19 178.12 209.9 182.33 203.14 186.24C203.01 186.32 202.88 186.39 202.75 186.47C201.7 186.92 200.74 187.5 200.06 188.02C199.93 188.09 199.81 188.16 199.69 188.24C198.45 188.96 197.25 189.65 196.14 190.29C196.03 190.36 195.91 190.42 195.8 190.49C194.98 190.96 194.02 191.35 193.28 191.95C193.09 192.06 192.9 192.17 192.72 192.28C192.36 192.49 192.01 192.69 191.69 192.87C191.52 192.97 191.35 193.07 191.19 193.16C190.56 193.85 189.6 193.66 188.83 194.05C189.41 194.43 190.18 194.63 190.43 195.33C190.76 195.57 191 195.72 191 195.72C191 195.72 191.68 195.33 192.84 194.66C192.99 194.58 193.14 194.49 193.3 194.38C194.6 193.1 195.95 192.14 197.96 191.71C198.09 191.64 198.21 191.57 198.34 191.5C198.67 191.31 199.01 191.11 199.36 190.91C199.48 190.84 199.59 190.78 199.71 190.71C200.85 189.4 202.31 188.77 203.82 188.15C204.01 188.07 204.2 187.99 204.39 187.92C205.76 187.35 206.92 186.38 208.32 185.74C208.46 185.66 208.6 185.58 208.74 185.5C209.2 185.24 209.65 184.97 210.11 184.71C210.26 184.61 210.41 184.51 210.57 184.42C211.92 183.5 213.46 182.54 214.93 181.93C215.07 181.85 215.21 181.77 215.34 181.69C215.5 181.6 215.66 181.51 215.81 181.42C216.85 180.86 217.91 180.22 218.99 179.59C219.14 179.5 219.3 179.41 219.46 179.31C220.95 178.51 222.29 177.16 224.01 176.69C224.17 176.6 224.26 176.55 224.26 176.55C224.03 176.2 223.64 176.2 223.2 175.94L223.17 175.89Z" fill="white"/>
</g>
<g opacity="0.35">
<path opacity="0.35" d="M192.82 158.84C192.7 158.91 192.55 159 192.38 159.1C192.21 159.2 192.01 159.31 191.8 159.44C190.74 160.2 189.4 160.78 188.21 161.51C188.02 161.62 187.83 161.72 187.64 161.84C187.3 162.03 186.96 162.23 186.6 162.44C186.42 162.54 186.24 162.65 186.06 162.76C185.25 163.3 184.29 163.86 183.4 164.34C183.25 164.42 183.11 164.5 182.96 164.58C181.51 165.59 179.78 166.75 178.08 167.37C177.97 167.43 177.86 167.5 177.75 167.56C177.43 167.74 177.11 167.93 176.79 168.11C176.68 168.17 176.58 168.23 176.47 168.3C174.98 169.25 173.82 170.21 172.04 170.86C171.83 170.98 171.63 171.1 171.42 171.22C171.22 171.34 171.01 171.45 170.81 171.57C170.61 171.69 170.41 171.8 170.21 171.92C168.83 173.1 167.29 173.87 165.79 174.47C165.62 174.57 165.46 174.66 165.3 174.75C165.18 174.82 165.06 174.89 164.94 174.96C164.82 175.03 164.71 175.09 164.59 175.16C163.64 175.98 162.29 176.17 161.33 177.05C161.2 177.12 161.06 177.2 160.93 177.27C160.67 177.42 160.42 177.56 160.18 177.7C161.72 178.66 162.87 179.05 164.41 177.7C164.57 177.61 164.74 177.51 164.91 177.41C168.4 175.4 174.63 171.8 180.54 168.38C180.66 168.31 180.77 168.25 180.89 168.18C181.52 167.7 182.1 167.32 182.61 167.19C182.72 167.12 182.84 167.06 182.95 166.99C187.25 164.51 191.15 162.26 193.38 160.97C193.52 160.89 193.65 160.82 193.77 160.75C194.2 160.6 194.58 160.41 195.05 160.02C195.11 159.99 195.14 159.97 195.14 159.97C194.39 159.64 194.01 158.68 193.13 158.68C193.06 158.72 192.96 158.78 192.83 158.86L192.82 158.84Z" fill="white"/>
<path opacity="0.35" d="M197.79 161.7C197.46 161.74 196.89 161.54 196.46 161.96C196.31 162.07 196.16 162.21 196 162.38C195.87 162.46 195.73 162.54 195.59 162.62C189.82 165.95 174.74 174.66 167.99 178.56C167.8 178.67 167.62 178.77 167.45 178.87C166.51 179.42 165.36 179.81 164.59 180.58C166.32 181.35 167.86 182.12 169.07 180.39C169.22 180.29 169.39 180.2 169.56 180.1C175.97 176.4 191.61 167.37 197.6 163.91C197.75 163.82 197.89 163.74 198.03 163.66C198.8 163.48 199.19 162.9 199.72 162.61C199.78 162.57 199.81 162.55 199.81 162.55C199.22 162.32 198.71 162.04 198.24 161.86C198.08 161.8 197.93 161.75 197.78 161.71L197.79 161.7Z" fill="white"/>
<path opacity="0.35" d="M201.9 164.62C201.81 164.67 201.71 164.73 201.6 164.79C196.76 167.58 178.35 178.21 171.83 181.98C171.67 182.07 171.52 182.16 171.37 182.24C170.74 182.49 170.16 183.07 169.59 183.26C170.74 184.03 172.09 184.03 173.49 183.44C173.63 183.37 173.79 183.28 173.95 183.19C180.17 179.6 197.26 169.73 202.99 166.42C203.12 166.34 203.25 166.27 203.37 166.2C203.81 165.76 204.2 165.76 204.63 165.43C204.68 165.4 204.71 165.38 204.71 165.38C203.62 164.99 202.85 163.64 201.9 164.6V164.62Z" fill="white"/>
<path opacity="0.35" d="M207.98 167.12C207.67 166.94 207.43 166.8 207.43 166.8C207.43 166.8 180.93 182.1 175.25 185.38C175.02 185.51 174.83 185.62 174.67 185.71C174.58 185.95 174.39 185.95 174.2 185.95C174.39 186.14 174.58 186.33 174.74 186.31C174.91 186.43 175.08 186.53 175.25 186.6C176.42 187.11 177.45 186.45 178.6 185.88C178.76 185.79 178.93 185.69 179.1 185.59C185.51 181.89 201.15 172.86 207.14 169.4C207.29 169.31 207.43 169.23 207.57 169.15C208.03 168.65 208.6 168.65 209.22 168.2C209.27 168.17 209.29 168.15 209.29 168.15C208.98 167.69 208.41 167.49 207.97 167.11L207.98 167.12Z" fill="white"/>
<path opacity="0.35" d="M209.81 171.069C209.65 171.159 209.49 171.249 209.32 171.349C202.4 175.349 185.52 185.089 180.5 187.989C180.37 188.069 180.25 188.129 180.13 188.199C179.77 188.259 179.39 188.649 179 188.649C179.38 188.839 179.77 189.229 180.12 189.419C180.3 189.529 180.47 189.629 180.63 189.719C182.07 190.189 182.84 188.839 183.98 188.419C184.15 188.319 184.34 188.219 184.52 188.109C191.77 183.919 208.66 174.169 213.25 171.519C213.36 171.459 213.46 171.399 213.55 171.349C213.79 171.159 214.18 171.159 214.29 170.909C214.35 170.869 214.38 170.849 214.38 170.849C214.18 170.809 213.99 170.689 213.82 170.569C212.46 169.039 211.11 170.189 209.81 171.069V171.069Z" fill="white"/>
<path opacity="0.35" d="M215.08 173.419C214.95 173.499 214.81 173.579 214.66 173.659C208.56 177.179 192.11 186.679 186.04 190.189C185.88 190.279 185.73 190.369 185.58 190.449C184.97 190.769 184.39 190.769 183.82 191.149C184.4 191.729 184.97 192.299 185.8 192.509C185.96 192.509 186.11 192.509 186.25 192.469C187.11 192.269 187.77 191.429 188.65 191.119C188.82 191.019 189.01 190.919 189.19 190.809C196.27 186.719 212.55 177.319 217.58 174.419C217.7 174.349 217.81 174.289 217.92 174.219C218.22 174.049 218.61 173.859 218.92 173.649C218.98 173.619 219.01 173.599 219.01 173.599C218.91 173.439 218.71 173.359 218.52 173.279C217.27 172.319 216.31 172.509 215.08 173.429V173.419Z" fill="white"/>
<path opacity="0.35" d="M222.31 175.4C221.11 174.62 220.35 175.2 219.37 175.88C219.24 175.96 219.1 176.04 218.96 176.12C213.19 179.45 198.11 188.16 191.36 192.06C191.17 192.17 190.99 192.27 190.82 192.37C189.97 193.08 188.82 193.08 188.05 193.66C189.2 194.04 189.78 195.58 191.19 194.59C191.3 194.52 191.43 194.45 191.56 194.38C191.81 194.24 192.08 194.08 192.38 193.91C192.53 193.82 192.69 193.73 192.85 193.64C194.21 192.31 195.94 191.73 197.39 191.02C197.51 190.95 197.63 190.88 197.75 190.82C198.31 190.5 198.88 190.17 199.48 189.82C199.6 189.75 199.72 189.68 199.84 189.61C201.14 188.47 202.87 187.9 204.34 187.01C204.47 186.94 204.6 186.86 204.73 186.79C204.87 186.71 205.01 186.63 205.15 186.54C205.75 186.16 206.52 185.58 207.25 185.33C207.39 185.25 207.53 185.17 207.67 185.09C208.38 184.68 209.1 184.27 209.8 183.86C209.94 183.78 210.08 183.7 210.22 183.62C211.51 182.9 212.86 182.13 214.28 181.28C214.41 181.2 214.54 181.13 214.66 181.06C214.97 180.88 215.28 180.7 215.58 180.53C215.73 180.44 215.88 180.36 216.03 180.27C217.09 179.83 218.05 178.87 219.26 178.41C219.38 178.34 219.5 178.27 219.61 178.2C220.55 177.33 221.9 176.94 223.12 176.17C223.29 176.07 223.39 176.02 223.39 176.02L222.84 175.7C222.68 175.61 222.51 175.51 222.33 175.41L222.31 175.4Z" fill="white"/>
</g>
<path d="M160.59 137.37C154.49 143 181.29 143.34 181.29 143.34L181.18 128.88C181.18 128.88 171.09 130.76 160.59 137.37Z" fill="#C8890A"/>
<path d="M202.39 137.15C208.49 142.78 181.27 143.29 181.27 143.29L181.18 128.89C181.18 128.89 194.26 131.73 202.39 137.15Z" fill="#FFEA4B"/>
<path d="M182.52 131.08C182.38 131.06 182.1 131.04 181.77 131.03L181.3 130.76L180.83 131.03C180.5 131.03 180.22 131.05 180.08 131.08C176.04 131.79 158.08 132.53 145 153.58H145.08L181.3 174.49L217.52 153.58H217.6C207.62 133.38 186.56 131.78 182.52 131.08Z" fill="#FFD534"/>
<path d="M181.1 130.87L180.83 131.03C180.5 131.03 180.22 131.05 180.08 131.08C176.04 131.79 158.08 132.53 145 153.58H145.08L181.11 174.38V130.87H181.1Z" fill="#DA9A0A"/>
<path d="M172.55 140.779C175.72 143.029 174.27 151.339 173.57 154.749L160.7 147.389C165.86 139.659 169.98 138.959 172.55 140.789V140.779Z" fill="url(#paint1_linear_112_12198)"/>
<path d="M172.55 140.779C175.72 143.029 174.27 151.339 173.57 154.749L160.7 147.389C165.86 139.659 169.98 138.959 172.55 140.789V140.779Z" fill="#28221D"/>
<path d="M185.39 131.52L181.21 129.01L177.03 131.52L181.2 133.84L185.38 131.43V131.52H185.39Z" fill="#FFD534"/>
<path d="M188.46 141.22C181.88 145.9 184.88 163.15 186.34 170.22L213.06 154.93C202.35 138.88 193.79 137.42 188.46 141.22Z" fill="#28221D"/>
<g style="mix-blend-mode:screen" opacity="0.7">
<path d="M184.95 161.97C185.35 165.07 185.87 167.9 186.29 169.95C186.35 170.02 186.4 170.09 186.46 170.16C188.21 169.16 210.43 156.44 212.85 155.06C200.61 151.46 188.01 155.67 184.95 161.98V161.97Z" fill="#1A1D17"/>
</g>
<path d="M207.98 148.19C202.09 141.39 197.01 139.13 192.96 139.52L207.98 148.19Z" fill="#BA7F07"/>
<path d="M189.02 142.54C194.22 138.84 202.48 140.14 212.82 155.07L213.07 154.93C202.36 138.88 193.8 137.42 188.47 141.22C181.89 145.9 184.89 163.15 186.35 170.22L186.61 170.07C185.1 162.32 182.86 146.92 189.02 142.54V142.54Z" fill="#FFEA4B"/>
<path d="M217.78 157.691L226.73 162.611L227.66 162.131L218.71 157.211L217.78 157.691Z" fill="#3A191E"/>
<path d="M219.25 166.371L220.18 165.891L229.12 151.841L228.19 152.311L219.25 166.371Z" fill="#3A191E"/>
<path d="M229.05 150.98C228.57 151.23 228.18 151.83 228.18 152.32C228.18 152.81 228.57 153.01 229.05 152.77C229.53 152.52 229.92 151.92 229.92 151.43C229.92 150.94 229.53 150.74 229.05 150.98Z" fill="#3A191E"/>
<path d="M217.88 156.75C217.4 157 217.01 157.6 217.01 158.09C217.01 158.58 217.4 158.78 217.88 158.54C218.36 158.29 218.75 157.69 218.75 157.2C218.75 156.71 218.36 156.51 217.88 156.75Z" fill="#3A191E"/>
<path d="M218.53 158.03L227.47 162.95L228.4 162.48L219.46 157.56L218.53 158.03Z" fill="#593036"/>
<path d="M219.99 166.71L220.92 166.24L229.86 152.18L228.93 152.66L219.99 166.71Z" fill="#593036"/>
<path d="M229.8 151.32C229.32 151.57 228.93 152.17 228.93 152.66C228.93 153.15 229.32 153.35 229.8 153.11C230.28 152.86 230.67 152.26 230.67 151.77C230.67 151.28 230.28 151.08 229.8 151.32Z" fill="#593036"/>
<path d="M218.63 157.09C218.15 157.34 217.76 157.94 217.76 158.43C217.76 158.92 218.15 159.12 218.63 158.88C219.11 158.63 219.5 158.03 219.5 157.54C219.5 157.05 219.11 156.85 218.63 157.09Z" fill="#593036"/>
<path d="M219.25 166.37L219.99 166.71L223.7 160.88L222.96 160.54L219.25 166.37Z" fill="#3A191E"/>
<path d="M226.64 162.49L226.73 162.61L227.47 162.95L226.79 162.58L226.64 162.49Z" fill="#3A191E"/>
<path d="M223.74 159.91L224.17 160.15L228.92 152.66L228.43 152.73L223.74 159.91Z" fill="#3A191E"/>
<path d="M209.36 153.32L218.31 158.24L219.24 157.77L210.3 152.85L209.36 153.32Z" fill="#3A191E"/>
<path d="M210.83 162L211.76 161.53L220.7 147.47L219.77 147.94L210.83 162Z" fill="#3A191E"/>
<path d="M220.75 146.56C220.75 146.56 220.67 146.59 220.63 146.61C220.15 146.86 219.76 147.46 219.76 147.95C219.76 148.44 220.15 148.64 220.63 148.4C221.11 148.15 221.5 147.55 221.5 147.06C221.5 147.04 221.5 147.02 221.5 146.99C221.23 146.87 220.98 146.73 220.75 146.56Z" fill="#3A191E"/>
<path d="M209.93 152.279C209.66 152.449 209.36 152.599 209.04 152.699C208.77 152.989 208.58 153.379 208.58 153.719C208.58 154.209 208.97 154.409 209.45 154.169C209.93 153.919 210.32 153.319 210.32 152.829C210.32 152.509 210.16 152.319 209.91 152.279H209.93Z" fill="#3A191E"/>
<path d="M210.11 153.669L219.05 158.589L219.98 158.109L211.04 153.189L210.11 153.669Z" fill="#593036"/>
<path d="M211.57 162.35L212.5 161.87L221.45 147.81L220.51 148.29L211.57 162.35Z" fill="#593036"/>
<path d="M221.4 146.939H221.38C220.9 147.199 220.51 147.799 220.51 148.289C220.51 148.779 220.9 148.979 221.38 148.739C221.86 148.489 222.25 147.889 222.25 147.399C222.25 147.339 222.25 147.289 222.23 147.229C221.94 147.159 221.66 147.059 221.4 146.939V146.939Z" fill="#593036"/>
<path d="M210.21 152.729C209.73 152.979 209.34 153.579 209.34 154.069C209.34 154.559 209.73 154.759 210.21 154.519C210.69 154.269 211.08 153.669 211.08 153.179C211.08 152.689 210.69 152.489 210.21 152.729Z" fill="#593036"/>
<path d="M210.83 162L211.57 162.35L215.28 156.51L214.54 156.17L210.83 162Z" fill="#3A191E"/>
<path d="M218.22 158.13L218.31 158.24L219.05 158.59L218.37 158.21L218.22 158.13Z" fill="#3A191E"/>
<path d="M215.32 155.549L215.75 155.779L220.5 148.289L220.01 148.359L215.32 155.549Z" fill="#3A191E"/>
<path d="M220.2 146.92C215.86 152.02 209.55 152.34 209.55 152.34C208.82 152.6 208.59 153.38 208.59 153.38C208.36 154.08 208.78 154.24 208.78 154.24L218.02 158.94C217.39 158.56 218.08 157.56 218.08 157.56C218.71 156.83 219.14 157 219.14 157C226.4 155.83 229.79 151.32 229.79 151.32C230.13 151.18 230.31 151.23 230.39 151.26L221.2 146.57C220.71 146.33 220.2 146.91 220.2 146.91V146.92Z" fill="#DB430D"/>
<path d="M230.39 151.26L230.44 151.28C230.44 151.28 230.42 151.27 230.39 151.26Z" fill="#DB430D"/>
<path d="M296.17 167.501C296.27 167.441 296.38 167.401 296.48 167.371H296.51C296.62 167.331 296.72 167.311 296.82 167.321H296.83C296.93 167.321 297.03 167.341 297.12 167.381L267.77 155.861C267.77 155.861 267.71 155.841 267.68 155.831C267.64 155.831 267.61 155.811 267.57 155.811C267.54 155.811 267.51 155.811 267.48 155.811H267.47C267.47 155.811 267.46 155.811 267.45 155.811C267.41 155.811 267.37 155.811 267.33 155.811C267.29 155.811 267.25 155.821 267.2 155.831C267.18 155.831 267.17 155.831 267.15 155.841H267.12C267.12 155.841 267.08 155.861 267.06 155.871C267.01 155.891 266.96 155.911 266.91 155.931C266.88 155.951 266.84 155.971 266.81 155.991L266.78 156.011C266.78 156.011 266.76 156.011 266.75 156.031C266.69 156.071 266.62 156.111 266.56 156.161C266.52 156.191 266.48 156.221 266.45 156.251L295.8 167.771C295.91 167.681 296.03 167.601 296.14 167.531L296.17 167.511V167.501Z" fill="#503B2C"/>
<path d="M294.16 173.351C294.16 173.351 294.12 173.271 294.11 173.231C294.07 173.151 294.04 173.071 294.01 172.981C293.99 172.931 293.98 172.861 293.97 172.811C293.95 172.721 293.93 172.631 293.92 172.531C293.92 172.461 293.92 172.391 293.91 172.321C293.91 172.211 293.9 172.091 293.91 171.971C293.91 171.941 293.91 171.911 293.91 171.881C293.91 171.711 293.94 171.531 293.97 171.341C293.97 171.331 293.97 171.321 293.97 171.311C294 171.111 294.04 170.911 294.1 170.711V170.681C294.16 170.481 294.23 170.271 294.3 170.071V170.051C294.39 169.841 294.48 169.631 294.58 169.421C294.66 169.261 294.74 169.121 294.82 168.981C294.85 168.941 294.87 168.891 294.9 168.851C294.95 168.771 295 168.701 295.05 168.621C295.11 168.531 295.17 168.451 295.24 168.371C295.29 168.311 295.34 168.251 295.38 168.201C295.44 168.131 295.51 168.061 295.57 167.991C295.65 167.911 295.72 167.831 295.8 167.771L266.45 156.251C266.4 156.291 266.35 156.341 266.29 156.391C266.26 156.411 266.24 156.451 266.21 156.471C266.15 156.531 266.08 156.601 266.02 156.681C265.97 156.741 265.92 156.791 265.87 156.851C265.81 156.931 265.75 157.011 265.69 157.101C265.66 157.141 265.63 157.181 265.6 157.231C265.58 157.261 265.56 157.301 265.54 157.341C265.51 157.381 265.49 157.421 265.46 157.471C265.44 157.511 265.41 157.551 265.39 157.591C265.34 157.671 265.3 157.761 265.25 157.851L265.22 157.911C265.19 157.961 265.17 158.021 265.14 158.071C265.11 158.141 265.07 158.221 265.04 158.291C265.01 158.361 264.98 158.431 264.96 158.501V158.531L264.94 158.551C264.92 158.601 264.9 158.651 264.89 158.701C264.87 158.771 264.84 158.841 264.82 158.901C264.8 158.971 264.78 159.041 264.76 159.111V159.171L264.74 159.201C264.74 159.201 264.72 159.281 264.71 159.321C264.69 159.391 264.68 159.461 264.66 159.541C264.64 159.621 264.63 159.691 264.62 159.771V159.841C264.6 159.901 264.59 159.961 264.58 160.021C264.57 160.111 264.56 160.201 264.55 160.291C264.55 160.321 264.55 160.351 264.55 160.371C264.55 160.401 264.55 160.431 264.55 160.461C264.55 160.511 264.55 160.561 264.55 160.621C264.55 160.691 264.55 160.751 264.56 160.811C264.56 160.881 264.56 160.951 264.57 161.021C264.58 161.121 264.6 161.211 264.62 161.301C264.63 161.361 264.64 161.421 264.66 161.471C264.69 161.561 264.72 161.641 264.76 161.721C264.78 161.761 264.79 161.811 264.81 161.841C264.87 161.951 264.95 162.051 265.03 162.121C265.11 162.191 265.2 162.251 265.29 162.281L294.64 173.801C294.55 173.761 294.46 173.711 294.38 173.641C294.29 173.561 294.22 173.471 294.16 173.351V173.351Z" fill="#5E4534"/>
<path d="M295.8 167.75C296.38 167.27 296.97 167.16 297.38 167.53C298.1 168.17 298.02 170.07 297.19 171.76C296.83 172.49 296.4 173.06 295.96 173.42C295.38 173.9 294.8 174.01 294.38 173.64C293.66 173 293.74 171.1 294.57 169.41C294.93 168.69 295.36 168.12 295.8 167.75Z" fill="#8E725E"/>
<path d="M255 197.59C255.1 197.53 255.21 197.49 255.31 197.46H255.34C255.45 197.42 255.55 197.4 255.65 197.41H255.66C255.76 197.41 255.86 197.43 255.95 197.47L226.6 185.95C226.6 185.95 226.54 185.93 226.51 185.92C226.47 185.92 226.44 185.9 226.4 185.9C226.37 185.9 226.34 185.9 226.31 185.9H226.3C226.3 185.9 226.29 185.9 226.28 185.9C226.24 185.9 226.2 185.9 226.16 185.9C226.12 185.9 226.08 185.91 226.03 185.92C226.01 185.92 226 185.92 225.98 185.93H225.95C225.95 185.93 225.91 185.95 225.89 185.96C225.84 185.98 225.79 186 225.74 186.02C225.71 186.04 225.67 186.06 225.64 186.08L225.61 186.1C225.61 186.1 225.59 186.1 225.58 186.12C225.52 186.16 225.45 186.2 225.39 186.25C225.35 186.28 225.31 186.31 225.28 186.34L254.63 197.86C254.74 197.77 254.86 197.69 254.97 197.62L255 197.6V197.59Z" fill="#503B2C"/>
<path d="M252.99 203.441C252.99 203.441 252.95 203.361 252.94 203.321C252.9 203.241 252.87 203.161 252.84 203.071C252.82 203.021 252.81 202.951 252.8 202.901C252.78 202.811 252.76 202.721 252.75 202.621C252.75 202.551 252.75 202.481 252.74 202.411C252.74 202.301 252.73 202.181 252.74 202.061C252.74 202.031 252.74 202.001 252.74 201.971C252.74 201.801 252.77 201.621 252.8 201.431C252.8 201.421 252.8 201.411 252.8 201.401C252.83 201.201 252.87 201.001 252.93 200.801V200.771C252.99 200.571 253.06 200.361 253.13 200.161V200.141C253.22 199.931 253.31 199.721 253.41 199.511C253.49 199.351 253.57 199.211 253.65 199.071C253.68 199.031 253.7 198.981 253.73 198.941C253.78 198.861 253.83 198.791 253.88 198.711C253.94 198.621 254 198.541 254.07 198.461C254.12 198.401 254.17 198.341 254.21 198.291C254.27 198.221 254.34 198.151 254.4 198.081C254.48 198.001 254.55 197.921 254.63 197.861L225.28 186.341C225.23 186.381 225.18 186.431 225.12 186.481C225.09 186.501 225.07 186.541 225.04 186.561C224.98 186.621 224.91 186.691 224.85 186.771C224.8 186.831 224.75 186.881 224.7 186.941C224.64 187.021 224.58 187.101 224.52 187.191C224.49 187.231 224.46 187.271 224.43 187.321C224.41 187.351 224.39 187.391 224.37 187.431C224.34 187.471 224.32 187.511 224.29 187.561C224.27 187.601 224.24 187.641 224.22 187.681C224.17 187.761 224.13 187.851 224.08 187.941L224.05 188.001C224.02 188.051 224 188.111 223.97 188.161C223.94 188.231 223.9 188.311 223.87 188.381C223.84 188.451 223.81 188.521 223.79 188.591V188.621L223.77 188.641C223.75 188.691 223.73 188.741 223.72 188.791C223.7 188.861 223.67 188.931 223.65 188.991C223.63 189.061 223.61 189.131 223.59 189.201V189.261L223.57 189.291C223.57 189.291 223.55 189.371 223.54 189.411C223.52 189.481 223.51 189.551 223.49 189.631C223.47 189.711 223.46 189.781 223.45 189.861V189.931C223.43 189.991 223.42 190.051 223.41 190.111C223.4 190.201 223.39 190.291 223.38 190.381C223.38 190.411 223.38 190.441 223.38 190.461C223.38 190.491 223.38 190.521 223.38 190.551C223.38 190.601 223.38 190.651 223.38 190.711C223.38 190.781 223.38 190.841 223.39 190.901C223.39 190.971 223.39 191.041 223.4 191.111C223.41 191.211 223.43 191.301 223.45 191.391C223.46 191.451 223.47 191.511 223.49 191.561C223.52 191.651 223.55 191.731 223.59 191.811C223.61 191.851 223.62 191.901 223.64 191.931C223.7 192.041 223.78 192.141 223.86 192.211C223.94 192.281 224.03 192.341 224.12 192.371L253.47 203.891C253.38 203.851 253.29 203.801 253.21 203.731C253.12 203.651 253.05 203.561 252.99 203.441V203.441Z" fill="#5E4534"/>
<path d="M254.63 197.84C255.21 197.36 255.8 197.25 256.21 197.62C256.93 198.26 256.85 200.16 256.02 201.85C255.66 202.58 255.23 203.15 254.79 203.51C254.21 203.99 253.63 204.1 253.21 203.73C252.49 203.09 252.57 201.19 253.4 199.5C253.76 198.78 254.19 198.21 254.63 197.84Z" fill="#8E725E"/>
<path d="M290.99 168.68C291.04 168.7 291.1 168.71 291.15 168.72H291.16C291.21 168.72 291.26 168.72 291.31 168.72C291.31 168.72 291.4 168.69 291.44 168.67L278.66 176.46C278.66 176.46 278.63 176.48 278.62 176.48C278.6 176.48 278.59 176.49 278.57 176.5C278.56 176.5 278.54 176.5 278.53 176.5H278.52C278.52 176.5 278.48 176.5 278.46 176.5C278.44 176.5 278.42 176.5 278.4 176.5H278.33C278.33 176.5 278.28 176.48 278.26 176.48C278.24 176.48 278.22 176.47 278.21 176.46H278.18C278.18 176.46 278.11 176.42 278.08 176.41C278.06 176.4 278.04 176.39 278.02 176.38L290.8 168.59C290.86 168.62 290.92 168.65 290.98 168.67H291L290.99 168.68Z" fill="#503B2C"/>
<path d="M289.57 166.11C289.57 166.11 289.57 166.15 289.56 166.17C289.55 166.21 289.54 166.25 289.53 166.3C289.53 166.33 289.53 166.36 289.53 166.38C289.53 166.42 289.53 166.47 289.53 166.51C289.53 166.54 289.53 166.58 289.54 166.61C289.54 166.66 289.55 166.72 289.57 166.77V166.81C289.6 166.89 289.62 166.97 289.65 167.06C289.68 167.16 289.72 167.25 289.76 167.34C289.8 167.44 289.85 167.54 289.9 167.63C289.95 167.73 290.01 167.82 290.08 167.91C290.13 167.98 290.18 168.04 290.23 168.1L290.28 168.15C290.28 168.15 290.34 168.21 290.37 168.24C290.41 168.28 290.44 168.31 290.48 168.34C290.51 168.36 290.53 168.39 290.56 168.41C290.6 168.44 290.63 168.47 290.67 168.49C290.71 168.52 290.75 168.55 290.8 168.57L278.02 176.36C278.02 176.36 277.96 176.33 277.94 176.31C277.93 176.31 277.91 176.29 277.9 176.28C277.86 176.26 277.83 176.23 277.79 176.2C277.76 176.18 277.74 176.16 277.71 176.13C277.67 176.1 277.64 176.06 277.6 176.03C277.58 176.01 277.56 176 277.55 175.98C277.54 175.97 277.52 175.95 277.51 175.94C277.49 175.92 277.48 175.91 277.46 175.89C277.45 175.87 277.43 175.86 277.42 175.84C277.39 175.8 277.36 175.77 277.33 175.73L277.31 175.7C277.31 175.7 277.28 175.65 277.26 175.63C277.24 175.6 277.22 175.57 277.2 175.53C277.18 175.5 277.16 175.47 277.14 175.44V175.42H277.13C277.13 175.42 277.1 175.37 277.09 175.34C277.07 175.31 277.06 175.28 277.04 175.25C277.02 175.22 277.01 175.19 277 175.16V175.13H276.98C276.98 175.13 276.96 175.08 276.96 175.06C276.95 175.03 276.93 175 276.92 174.96C276.91 174.93 276.89 174.89 276.88 174.86V174.84H276.87C276.87 174.84 276.85 174.77 276.84 174.74C276.83 174.7 276.82 174.66 276.81 174.61V174.57L276.79 174.53C276.79 174.53 276.78 174.48 276.77 174.46C276.77 174.43 276.77 174.4 276.76 174.37C276.76 174.34 276.76 174.3 276.75 174.27C276.75 174.22 276.75 174.18 276.75 174.14C276.75 174.11 276.75 174.08 276.75 174.06C276.75 174.01 276.77 173.97 276.78 173.93C276.78 173.91 276.78 173.89 276.8 173.87C276.82 173.81 276.85 173.76 276.88 173.72C276.91 173.68 276.95 173.65 276.99 173.62L289.77 165.83C289.77 165.83 289.69 165.89 289.66 165.93C289.63 165.97 289.6 166.02 289.58 166.08L289.57 166.11Z" fill="#5E4534"/>
<path d="M290.8 168.59C291.11 168.77 291.39 168.77 291.56 168.56C291.85 168.2 291.65 167.32 291.13 166.6C290.9 166.29 290.65 166.06 290.42 165.93C290.11 165.75 289.83 165.75 289.66 165.96C289.37 166.32 289.57 167.2 290.09 167.92C290.32 168.23 290.57 168.46 290.8 168.59Z" fill="#8E725E"/>
<path d="M278.96 211.15C277.16 211.93 275.55 212.6 274.21 213.08C274.2 213.08 274.18 213.08 274.17 213.09C273.09 213.47 271.9 213.41 270.87 212.91L269.5 212.25L268.61 211.82C267.11 211.1 266.05 209.67 265.92 208.02C265.87 207.43 265.94 206.8 266.22 206.18C266.42 205.73 266.72 205.28 267.18 204.85C267.65 204.4 268.79 203.55 270.34 202.44C274.93 204.03 280.3 207.41 278.97 211.14L278.96 211.15Z" fill="url(#paint2_linear_112_12198)"/>
<path d="M284.89 208.43C282.8 209.43 280.79 210.35 278.96 211.15C280.29 207.42 274.92 204.04 270.33 202.45C271.76 201.43 273.55 200.19 275.52 198.84C280.19 200.46 286.45 204.48 284.89 208.43V208.43Z" fill="url(#paint3_linear_112_12198)"/>
<path d="M290.8 205.57C288.81 206.56 286.81 207.53 284.89 208.44C286.46 204.49 280.19 200.47 275.52 198.85C277.25 197.67 279.11 196.42 280.99 195.16C285.44 196.79 292.3 201.51 290.8 205.57V205.57Z" fill="url(#paint4_linear_112_12198)"/>
<path d="M296.77 202.57C294.84 203.55 292.82 204.57 290.8 205.57C292.3 201.51 285.44 196.79 280.99 195.16C282.85 193.91 284.73 192.66 286.51 191.49C290.6 192.92 298.09 198.35 296.77 202.58V202.57Z" fill="url(#paint5_linear_112_12198)"/>
<path d="M303 199.35C301.11 200.34 299 201.43 296.77 202.56C298.09 198.33 290.6 192.9 286.51 191.47C288.36 190.25 290.09 189.1 291.58 188.12C295.15 188.74 304.19 194.72 303 199.35Z" fill="url(#paint6_linear_112_12198)"/>
<path d="M307.27 197.12C306.06 197.75 304.62 198.52 303 199.35C304.18 194.72 295.15 188.75 291.58 188.12C292.37 187.6 293.09 187.13 293.72 186.72C296.5 184.9 299.79 183.94 303.11 184.14C305.46 184.28 307.92 184.98 309.5 186.93C309.75 187.23 309.97 187.57 310.17 187.93C311.96 191.23 310.59 195.36 307.28 197.11L307.27 197.12Z" fill="url(#paint7_linear_112_12198)"/>
<path d="M307.27 197.121C299.6 201.161 282.11 210.241 274.21 213.081C274.2 213.081 274.18 213.081 274.17 213.091C273.09 213.471 271.9 213.411 270.87 212.911L269.5 212.251C278.53 210.521 296.44 199.521 303.16 195.901C308.72 192.891 309.48 188.811 309.5 186.931C309.75 187.231 309.97 187.571 310.17 187.931C311.96 191.231 310.59 195.361 307.28 197.111L307.27 197.121Z" fill="#7D9640"/>
<path d="M274.47 212.341L274.14 211.511C284.73 207.361 303.18 196.721 304 195.851C304.53 195.171 304.22 193.251 304.07 192.641L304.94 192.431C305.01 192.721 305.6 195.261 304.7 196.421C303.92 197.421 285.29 208.111 274.47 212.361V212.341Z" fill="#353435"/>
<path d="M303.9 192.62C301.42 189.58 300.03 188.67 298.77 188.21C298.18 187.99 297.61 187.87 296.98 187.68C296.6 187.57 296.55 187.05 296.89 186.86C298.64 185.88 302.57 184.11 305.39 185.91C306.16 186.4 306.64 187.1 306.91 187.86C307.95 190.83 305.75 194.89 303.9 192.62Z" fill="#FE5236"/>
<path d="M303.9 192.62C301.42 189.58 300.03 188.67 298.77 188.21C300.73 187.23 304.09 186.02 306.58 187.62C306.7 187.7 306.8 187.77 306.91 187.86C307.95 190.83 305.75 194.89 303.9 192.62Z" fill="#C72F21"/>
<path d="M274.21 213.081C274.21 213.081 274.18 213.081 274.17 213.091C273.09 213.471 271.9 213.411 270.87 212.911L268.62 211.821C267.12 211.101 266.06 209.671 265.93 208.021C265.88 207.431 265.95 206.801 266.23 206.181C270.01 207.481 275.96 210.071 274.23 213.071L274.21 213.081Z" fill="#353435"/>
<path d="M271.18 171.12C270.12 169.92 268.56 169.11 267.11 168.43C266.46 168.15 265.78 167.88 265.08 167.6C262.06 166.42 259.2 165.23 255.87 164.7C255.04 164.65 254.21 164.65 253.38 164.67C250.06 164.79 246.78 165.43 243.96 166.6C243.83 166.65 243.7 166.71 243.57 166.77C243.44 166.83 243.31 166.88 243.19 166.94C241.6 167.84 240.41 169.03 238.89 170.13C238.79 170.26 238.7 170.38 238.61 170.51C238.52 170.64 238.44 170.77 238.36 170.91C238.27 171.06 238.18 171.21 238.11 171.37C238.99 173.07 238.27 174.26 237.07 175.72C237.07 175.87 237.07 176.02 237.09 176.17C239.07 179.99 243.75 182.38 248.7 183.56C248.8 183.58 248.9 183.61 249 183.63C250.41 184.02 251.6 182.83 252.78 183.31C253.49 183.55 253.97 184.5 255.19 184.44C255.38 184.44 255.57 184.45 255.75 184.45C256.68 184.46 257.58 184.43 258.42 184.36C259.08 184.25 259.73 184.12 260.38 183.97C260.51 183.94 260.64 183.91 260.77 183.88C262.53 182.6 263.96 182.36 265.87 182.21C266.03 182.14 266.19 182.07 266.35 182C268.11 181.2 269.76 180.21 271.22 179.01C271.66 178.38 271.99 177.74 272.21 177.08C272.26 176.94 272.3 176.81 272.33 176.67C272.37 176.53 272.4 176.39 272.42 176.26C271.79 174.53 271.56 173.1 271.46 171.51C271.37 171.38 271.27 171.26 271.16 171.14L271.18 171.12Z" fill="#FBE9C5"/>
<path d="M254.53 173.31C253.95 172.98 253.56 172.76 253.56 172.76C253.56 172.76 255.27 175.02 254.36 175.05C256.1 175.7 258 175.7 259.67 176.17C258.72 175.46 257.77 174.98 256.66 174.51C255.88 174.07 255.11 173.64 254.53 173.31V173.31Z" fill="#B89259"/>
<path d="M259.89 170.99C259.57 171.12 259.26 171.26 258.96 171.41C259.34 171.33 259.64 171.18 259.89 170.99Z" fill="#B89259"/>
<path d="M260.355 167.699L246.605 175.025L248.551 178.679L262.301 171.353L260.355 167.699Z" fill="#420906"/>
<path d="M260.35 167.699C259.71 168.039 259.62 169.139 260.16 170.139C260.7 171.139 261.65 171.689 262.29 171.349C262.93 171.009 263.02 169.909 262.48 168.909C261.94 167.899 260.99 167.359 260.35 167.699Z" fill="#420906"/>
<path d="M248.528 167.656L246.582 171.31L260.333 178.634L262.279 174.979L248.528 167.656Z" fill="#210202"/>
<path d="M248.54 167.699C247.9 167.359 246.94 167.899 246.41 168.909C245.87 169.919 245.96 171.009 246.6 171.349C247.24 171.689 248.2 171.149 248.73 170.139C249.27 169.129 249.18 168.039 248.54 167.699Z" fill="#210202"/>
<path fill-rule="evenodd" clip-rule="evenodd" d="M247.74 178.349L247.72 178.329L247.75 178.349H247.74Z" fill="#C6885B"/>
<path fill-rule="evenodd" clip-rule="evenodd" d="M247.74 176.739L246.31 175.909C246.31 175.909 246.37 177.519 247.73 178.339C249.08 179.069 249.14 177.539 249.14 177.539L247.71 176.709L247.74 176.729V176.739Z" fill="#C6885B"/>
<path d="M248.94 178.199C248.71 178.589 248.3 178.629 247.74 178.319C247.74 178.319 247.43 178.169 247.1 177.789C246.66 177.289 246.4 176.659 246.33 175.899L246.23 175.859C246.32 176.859 246.73 177.519 247.06 177.889C247.33 178.199 247.58 178.359 247.69 178.429C247.72 178.449 247.74 178.459 247.75 178.459C248.5 178.859 248.86 178.609 249.03 178.319C249.22 178.009 249.23 177.609 249.23 177.589L249.13 177.529C249.13 177.529 249.13 177.909 248.95 178.199H248.94Z" fill="#420906"/>
<path fill-rule="evenodd" clip-rule="evenodd" d="M247.72 175.18L247.74 175.2L247.71 175.18H247.72Z" fill="#C6885B"/>
<path fill-rule="evenodd" clip-rule="evenodd" d="M247.73 175.19C246.38 174.46 246.32 175.99 246.32 175.99L247.75 176.82L247.72 176.8L249.15 177.63C249.15 177.63 249.09 176.02 247.73 175.2V175.19Z" fill="#C6885B"/>
<path d="M247.75 175.09C247.75 175.09 247.72 175.07 247.69 175.05C247.58 174.99 247.33 174.86 247.06 174.85C246.73 174.85 246.32 175.02 246.23 175.92L246.33 176C246.4 175.33 246.66 174.99 247.1 175C247.43 175 247.74 175.21 247.74 175.21C248.3 175.56 248.7 176.06 248.94 176.72C249.11 177.21 249.12 177.6 249.12 177.61L249.22 177.67C249.22 177.67 249.22 177.24 249.02 176.72C248.85 176.23 248.48 175.56 247.74 175.1L247.75 175.09Z" fill="#420906"/>
<path fill-rule="evenodd" clip-rule="evenodd" d="M261.43 178.44H261.41V178.46L261.43 178.44Z" fill="#C6885B"/>
<path fill-rule="evenodd" clip-rule="evenodd" d="M261.43 176.83L260 177.66C260 177.66 260.06 179.19 261.41 178.46C262.77 177.63 262.83 176.03 262.83 176.03L261.4 176.86L261.43 176.84V176.83Z" fill="#C6885B"/>
<path d="M262.05 177.91C261.72 178.28 261.41 178.44 261.41 178.44C260.85 178.75 260.45 178.7 260.21 178.32C260.04 178.03 260.03 177.651 260.03 177.651L259.93 177.711C259.93 177.711 259.93 178.13 260.13 178.44C260.3 178.73 260.67 178.981 261.41 178.581C261.41 178.581 261.44 178.57 261.47 178.55C261.58 178.49 261.83 178.32 262.1 178.01C262.43 177.64 262.84 176.99 262.93 175.98L262.83 176.021C262.76 176.771 262.5 177.41 262.06 177.91H262.05Z" fill="#420906"/>
<path fill-rule="evenodd" clip-rule="evenodd" d="M261.4 175.3H261.42V175.28L261.4 175.3Z" fill="#C6885B"/>
<path fill-rule="evenodd" clip-rule="evenodd" d="M261.42 175.3C260.06 176.13 260 177.73 260 177.73L261.43 176.9L261.4 176.92L262.8 176.11C262.8 176.11 262.77 174.56 261.41 175.3H261.42Z" fill="#C6885B"/>
<path d="M262.09 174.96C261.82 174.96 261.57 175.09 261.46 175.16C261.43 175.18 261.41 175.19 261.4 175.2C260.65 175.66 260.29 176.34 260.12 176.82C259.93 177.35 259.92 177.76 259.92 177.77L260.02 177.71C260.02 177.71 260.02 177.31 260.2 176.82C260.43 176.16 260.84 175.66 261.4 175.31C261.4 175.31 261.71 175.1 262.04 175.09C262.48 175.09 262.73 175.42 262.8 176.09L262.91 175.95C262.82 175.05 262.41 174.93 262.08 174.94L262.09 174.96Z" fill="#420906"/>
<path d="M260 156.01C252.08 158.13 252.79 163.87 252.79 163.87C252.58 161.41 250.67 161.03 250.67 161.03C251.8 163.08 250.25 164.28 250.25 164.28C250.25 164.28 247.28 165.9 247.57 169.92C247.85 173.94 251.87 174.16 251.87 174.16C251.87 174.16 256.4 175.37 259.03 173.19C261.65 171.01 259.87 166.96 257.96 162.43C256.05 157.91 260.01 156.01 260.01 156.01H260Z" fill="#FFAD2F"/>
<path d="M254.94 175.8C254.44 175.25 257.69 173.98 257.69 173.98L250.61 173.89L254.94 175.8V175.8Z" fill="#FFAD2F"/>
<path d="M255.87 169.44C255.87 169.44 255.89 169.01 255.83 168.41C255.75 168.8 255.75 169.16 255.87 169.44Z" fill="#E25928"/>
<path d="M256.88 165.95C256.88 165.95 256.06 167.28 255.83 168.41C255.89 169.01 255.87 169.44 255.87 169.44C255.75 169.16 255.75 168.8 255.83 168.41C255.72 167.27 255.32 165.5 253.95 164.79C253.95 164.79 253.37 164.46 252.06 164.08C252.06 164.08 254.18 165.05 253.33 167.37C253.33 167.37 252.09 169.19 250.26 170.33C248.43 171.47 249.81 173.53 249.81 173.53L254.95 175.79C254.95 175.79 254.91 175.19 256.48 174.5C256.48 174.5 259.27 173.34 259.03 170.85C258.79 168.36 256.93 167.88 256.88 165.94V165.95Z" fill="#E25928"/>
<path d="M252.77 166.83C251.84 168.76 249.86 169.5 249.37 171.45C248.88 173.4 253.51 168.66 253.51 168.66L253.83 165.25L252.31 164.24C252.73 164.57 253.46 165.39 252.77 166.83V166.83Z" fill="#E25928"/>
<path d="M252.31 164.239C252.17 164.129 252.06 164.069 252.06 164.069L252.31 164.239Z" fill="#E25928"/>
<path d="M353.86 178.391L345.72 173.691C345.4 173.511 344.88 173.511 344.56 173.691L339.23 176.771C338.91 176.951 338.91 177.261 339.23 177.441L347.37 182.141C347.69 182.321 348.21 182.321 348.53 182.141L353.86 179.061C354.18 178.881 354.18 178.571 353.86 178.391Z" fill="#CED6D8"/>
<path d="M338.99 177.08L354.1 178.75V172.29L338.99 170.71V177.08Z" fill="#CED6D8"/>
<path d="M353.87 175.081L345.72 170.381C345.4 170.201 344.88 170.201 344.56 170.381L339.23 173.461C338.91 173.641 338.91 173.951 339.23 174.131L347.38 178.831C347.7 179.011 348.22 179.011 348.54 178.831L353.87 175.751C354.19 175.571 354.19 175.261 353.87 175.081Z" fill="#F0ECE8"/>
<path d="M338.99 173.811L354.1 175.461L354.11 174.441L338.99 172.801V173.811Z" fill="#F0ECE8"/>
<path d="M353.87 174.061L345.72 169.361C345.4 169.181 344.88 169.181 344.56 169.361L339.23 172.441C338.91 172.621 338.91 172.931 339.23 173.111L347.38 177.811C347.7 177.991 348.22 177.991 348.54 177.811L353.87 174.731C354.19 174.551 354.19 174.241 353.87 174.061Z" fill="#CED6D8"/>
<path d="M353.86 171.98L345.72 167.281C345.4 167.101 344.88 167.101 344.56 167.281L339.23 170.36C338.91 170.54 338.91 170.851 339.23 171.031L347.37 175.73C347.69 175.91 348.21 175.91 348.53 175.73L353.86 172.651C354.18 172.471 354.18 172.16 353.86 171.98Z" fill="#E8EEEF"/>
<path d="M354.4 173L345.66 167.95C345.32 167.75 344.75 167.75 344.41 167.95L338.69 171.25C338.35 171.45 338.35 171.77 338.69 171.97L347.43 177.02C347.77 177.22 348.34 177.22 348.68 177.02L354.4 173.72C354.74 173.52 354.74 173.2 354.4 173Z" fill="#A57F70"/>
<path d="M338.43 171.64L354.65 173.41L354.66 172.31L338.43 170.55V171.64Z" fill="#A57F70"/>
<path d="M354.4 171.9L345.66 166.85C345.32 166.65 344.75 166.65 344.41 166.85L338.69 170.15C338.35 170.35 338.35 170.67 338.69 170.87L347.43 175.92C347.77 176.12 348.34 176.12 348.68 175.92L354.4 172.62C354.74 172.42 354.74 172.1 354.4 171.9Z" fill="#DEC1BA"/>
<path d="M350.23 165.591L344.37 162.231C343.71 161.851 343.03 161.811 342.51 162.111C341.99 162.411 341.69 163.021 341.69 163.791V168.431L342.8 167.791V163.791C342.8 163.431 342.9 163.171 343.07 163.071C343.24 162.971 343.52 163.021 343.83 163.191L349.69 166.551C350.54 167.041 351.27 168.291 351.27 169.271L351.25 175.541L352.37 174.891V169.271C352.37 167.891 351.43 166.271 350.24 165.591H350.23Z" fill="#F0ECE8"/>
<path d="M355.74 167C355.74 167 355.56 166.92 355.54 166.67C355.53 166.49 355.54 165.92 355.54 165.92C355.54 165.92 355.56 165.72 355.84 165.61C355.9 165.58 355.66 165.42 355.66 165.42L355.38 165.58C355.38 165.58 355.11 165.61 355.19 166.55C355.22 166.88 355.29 167.27 355.59 167.11L355.73 166.99L355.74 167Z" fill="#ADBEDB"/>
<path d="M355.7 166.99L356.61 167.51L356.33 167.67L355.42 167.15L355.7 166.99Z" fill="#ADBEDB"/>
<path d="M355.86 166.78L356.77 167.31L356.49 167.47L355.58 166.94L355.86 166.78Z" fill="white"/>
<path d="M355.48 165.87C355.48 165.87 355.34 166.8 355.58 166.95L355.86 166.79C355.86 166.79 355.73 166.72 355.73 166.58C355.73 166.44 355.73 165.98 355.73 165.98L355.49 165.87H355.48Z" fill="white"/>
<path d="M355.57 165.67L356.6 166.27L356.32 166.43L355.42 165.9L355.57 165.67Z" fill="#ADBEDB"/>
<path d="M355.66 165.43L356.57 165.95L356.29 166.11L355.38 165.59L355.66 165.43Z" fill="white"/>
<path d="M355.56 165.991C355.56 165.991 355.46 165.941 355.45 166.081C355.44 166.221 355.37 165.811 355.37 165.811L355.57 165.991H355.56Z" fill="#ADBEDB"/>
<path d="M356.14 168.151C356.14 167.671 356.82 167.271 357.67 167.271C358.51 167.271 359.2 167.661 359.2 168.141C359.2 168.621 358.52 169.021 357.67 169.021C356.83 169.021 356.14 168.631 356.14 168.151Z" fill="#E7ECF7"/>
<path d="M359.2 164.91H356.13V168.14H359.2V164.91Z" fill="#E7ECF7"/>
<path d="M356.14 164.92C356.14 164.43 356.82 164.04 357.67 164.04C358.51 164.04 359.2 164.43 359.2 164.91C359.2 165.39 358.52 165.79 357.67 165.79C356.83 165.79 356.14 165.4 356.14 164.92Z" fill="white"/>
<path d="M356.4 164.9C356.4 164.5 356.96 164.18 357.65 164.18C358.34 164.18 358.91 164.5 358.91 164.9C358.91 165.3 358.35 165.62 357.65 165.62C356.96 165.62 356.39 165.3 356.39 164.9H356.4Z" fill="#ADBEDB"/>
<path d="M357.66 164.8C357.16 164.8 356.73 164.97 356.53 165.21C356.73 165.45 357.17 165.62 357.67 165.62C358.17 165.62 358.6 165.45 358.8 165.21C358.6 164.97 358.16 164.8 357.67 164.8H357.66Z" fill="#703F1B"/>
<path d="M363.33 168.69C363.33 168.69 363.51 168.61 363.53 168.36C363.54 168.18 363.53 167.61 363.53 167.61C363.53 167.61 363.51 167.41 363.23 167.3C363.17 167.27 363.41 167.11 363.41 167.11L363.69 167.27C363.69 167.27 363.96 167.3 363.88 168.24C363.85 168.57 363.78 168.96 363.48 168.8L363.34 168.68L363.33 168.69Z" fill="#ADBEDB"/>
<path d="M363.38 168.681L362.47 169.211L362.74 169.371L363.65 168.841L363.38 168.681Z" fill="#ADBEDB"/>
<path d="M363.21 168.48L362.31 169.01L362.58 169.17L363.49 168.641L363.21 168.48Z" fill="white"/>
<path d="M363.59 167.561C363.59 167.561 363.73 168.491 363.49 168.641L363.21 168.481C363.21 168.481 363.34 168.411 363.34 168.271C363.34 168.141 363.34 167.671 363.34 167.671L363.58 167.561H363.59Z" fill="white"/>
<path d="M363.5 167.36L362.47 167.97L362.75 168.13L363.66 167.6L363.5 167.36Z" fill="#ADBEDB"/>
<path d="M363.42 167.12L362.51 167.65L362.78 167.81L363.69 167.28L363.42 167.12Z" fill="white"/>
<path d="M363.51 167.68C363.51 167.68 363.61 167.63 363.62 167.77C363.63 167.91 363.7 167.5 363.7 167.5L363.5 167.68H363.51Z" fill="#ADBEDB"/>
<path d="M362.93 169.851C362.93 169.371 362.25 168.971 361.4 168.971C360.56 168.971 359.87 169.361 359.87 169.841C359.87 170.321 360.55 170.721 361.4 170.721C362.24 170.721 362.93 170.331 362.93 169.851Z" fill="#E7ECF7"/>
<path d="M362.94 166.61H359.87V169.84H362.94V166.61Z" fill="#E7ECF7"/>
<path d="M362.93 166.62C362.93 166.13 362.25 165.74 361.4 165.74C360.56 165.74 359.87 166.13 359.87 166.61C359.87 167.09 360.55 167.49 361.4 167.49C362.24 167.49 362.93 167.1 362.93 166.62Z" fill="white"/>
<path d="M362.67 166.59C362.67 166.19 362.11 165.87 361.42 165.87C360.73 165.87 360.16 166.19 360.16 166.59C360.16 166.99 360.72 167.31 361.42 167.31C362.11 167.31 362.68 166.99 362.68 166.59H362.67Z" fill="#ADBEDB"/>
<path d="M361.42 166.49C361.92 166.49 362.35 166.66 362.55 166.9C362.35 167.14 361.91 167.31 361.41 167.31C360.91 167.31 360.48 167.14 360.28 166.9C360.48 166.66 360.92 166.49 361.41 166.49H361.42Z" fill="#703F1B"/>
<path d="M277.85 159.491C278.03 159.851 277.9 160.311 277.63 160.621C277.37 160.931 276.99 161.121 276.62 161.281C275.52 161.771 274.36 162.201 273.17 162.401C273.19 163.471 273.28 163.761 273.11 165.071C272.98 166.061 272.69 166.811 272.73 167.801C272.73 167.941 272.73 168.471 272.73 168.601C272.73 168.721 272.74 168.871 272.62 168.941C272.49 169.021 272.28 169.031 272.14 169.091C271.85 169.211 271.25 169.751 270.96 169.901C270.68 170.051 269.86 170.041 269.76 169.801C269.7 169.671 269.88 169.381 269.99 169.271C270.33 168.911 270.72 168.671 271.08 168.331C271.21 168.211 271.39 168.011 271.51 167.861C271.6 167.761 271.66 167.641 271.66 167.511C271.71 165.551 271.39 164.381 271.27 162.291C271.25 161.911 271.32 161.511 271.58 161.241C271.84 160.971 272.2 160.801 272.55 160.651L275.54 159.311" fill="#404040"/>
<path d="M277.72 157.2C277.83 157.78 277.9 158.36 277.94 158.94C277.97 159.49 277.97 160.06 277.71 160.55C277.3 161.31 276.39 161.64 275.56 161.86C274.86 162.04 274.11 162.26 273.39 162.38C273.39 162.38 273.44 164.74 273.09 167.53C273.09 167.53 271.83 168.23 271.26 167.54C271.27 166.96 271.26 163.41 271.26 162.33C271.26 162.06 271.26 161.79 271.35 161.53C271.56 160.93 272.2 160.45 272.74 160.12C273.83 159.46 275.92 158.1 275.92 158.1" fill="#49838C"/>
<path d="M279.52 160.43C279.7 160.79 279.57 161.24 279.3 161.55C279.04 161.86 278.67 162.04 278.3 162.21C277.21 162.7 276.05 163.13 274.87 163.32C274.89 164.38 274.97 164.67 274.81 165.98C274.69 166.96 274.39 167.7 274.43 168.7C274.43 168.84 274.43 169.37 274.43 169.49C274.43 169.61 274.44 169.75 274.32 169.83C274.19 169.91 273.99 169.92 273.84 169.97C273.55 170.09 272.95 170.63 272.67 170.77C272.39 170.92 271.58 170.91 271.48 170.67C271.42 170.54 271.6 170.25 271.71 170.14C272.05 169.78 272.43 169.54 272.79 169.21C272.92 169.1 273.1 168.89 273.22 168.75C273.3 168.65 273.37 168.53 273.37 168.4C273.42 166.45 273.1 165.29 272.98 163.21C272.96 162.83 273.03 162.44 273.29 162.16C273.55 161.89 273.91 161.73 274.25 161.57L277.22 160.24" fill="#404040"/>
<path d="M279.41 158.15C279.52 158.73 279.59 159.31 279.63 159.89C279.66 160.44 279.66 161.01 279.4 161.5C278.99 162.26 278.08 162.59 277.25 162.81C276.55 162.99 275.8 163.21 275.08 163.33C275.08 163.33 275.13 165.69 274.78 168.48C274.78 168.48 273.52 169.18 272.95 168.49C272.96 167.91 272.95 164.36 272.95 163.28C272.95 163.01 272.95 162.74 273.04 162.48C273.25 161.88 273.88 161.55 274.45 161.28C275.54 160.78 276.65 160.22 277.78 159.81" fill="#49838C"/>
<path d="M272.95 167.611C272.95 166.321 272.95 164.101 272.95 163.291C272.95 163.021 272.95 162.751 273.04 162.491C273.25 161.891 273.44 161.751 274.26 161.281C275.34 160.671 275.97 160.351 275.97 160.351" stroke="#32676D" stroke-width="0.5" stroke-linecap="round" stroke-linejoin="round"/>
<path d="M276.17 151.38C276.17 151.38 275.68 151.25 275.34 151.26C275.23 151.26 275.14 151.3 275.09 151.33C274.83 151.5 274.27 152.83 274.06 153.4C273.93 153.75 273.73 154.21 273.79 154.59C273.85 154.98 274.13 155.04 274.36 155.36C274.56 155.64 274.91 156.25 274.91 156.25" fill="white"/>
<path d="M278.41 153.04L277.72 152.63L277.68 151.16L276.33 151.74L276.35 152.2L275.45 152.22L275.49 153.79L278.46 155.42L278.41 153.04Z" fill="#FDAD9C"/>
<path d="M278.1 152.57L279.2 153.42C279.54 153.68 279.74 154.08 279.75 154.51V160.24C279.75 160.24 279.07 161.06 277.74 160.62C276.41 160.17 274.94 158.81 274.94 158.81L274.82 153.44C274.8 152.58 275.35 151.22 275.59 151.27L275.95 151.37L276.41 152.84L278.1 152.58V152.57Z" fill="#AD8C00"/>
<path d="M277.71 152.161L276.41 152.831L276.34 151.801L275.94 151.551L275.78 153.271L276.41 152.831L276.66 153.651L278.1 152.571L277.71 152.161Z" fill="#FBFFFC"/>
<path d="M276.15 156C275.78 155.61 275.25 155.42 274.75 155.49C274.75 155.85 274.95 156.19 275.23 156.37C275.51 156.55 275.85 156.59 276.16 156.51" fill="#FFBFAD"/>
<path d="M278.35 154.871L277.96 156.771L276.22 155.691C276.22 155.691 275.64 155.871 275.7 156.891L277.76 158.431C278.27 158.811 279 158.551 279.15 157.931L279.78 155.721C279.78 155.721 280.16 153.831 279.4 153.681C278.64 153.531 278.35 154.881 278.35 154.881V154.871Z" fill="white"/>
<path d="M274.32 154.45C274.44 154.51 274.57 154.64 274.61 154.76L275.3 156.86C275.34 156.98 275.27 157.02 275.15 156.97L274.35 156.6C274.23 156.54 274.1 156.41 274.06 156.29L273.37 154.19C273.33 154.07 273.4 154.03 273.52 154.08L274.32 154.45Z" fill="#E2E5E4"/>
<path d="M274.42 154.37L273.62 154C273.56 153.97 273.51 153.97 273.49 154L273.39 154.08C273.39 154.08 273.46 154.06 273.52 154.08L274.32 154.45C274.44 154.51 274.57 154.64 274.61 154.76L275.3 156.86C275.32 156.92 275.31 156.96 275.29 156.98L275.39 156.9C275.39 156.9 275.42 156.84 275.4 156.78L274.71 154.68C274.67 154.56 274.54 154.43 274.42 154.37Z" fill="#BCBCBC"/>
<path d="M273.84 155.211C274.02 155.321 274.2 155.501 274.27 155.681C274.34 155.861 274.27 156.081 274.02 156.041C273.87 156.021 273.75 155.931 273.67 155.821C273.56 155.671 273.48 155.451 273.46 155.271C273.43 155.041 273.71 155.131 273.84 155.201V155.211Z" fill="#FFBFAD"/>
<path d="M277.71 151.47C278.07 151.08 278.28 150.61 278.29 150.07C278.31 149.47 277.95 148.99 277.4 148.81C276.92 148.65 276.28 148.67 275.93 149.09C275.71 149.35 275.71 149.7 275.71 150.03C275.71 150.35 275.68 150.67 275.71 150.99C275.75 151.34 275.88 151.84 276.21 151.98C276.6 152.15 277.37 151.83 277.69 151.48L277.71 151.47Z" fill="#FFBFAD"/>
<path d="M275.63 149.29C275.56 149.45 275.52 149.63 275.53 149.82C275.53 150 275.62 150.18 275.71 150.31C275.71 150.11 275.71 149.9 275.71 149.9C275.73 149.77 275.84 149.68 275.96 149.65C276.1 149.61 276.25 149.6 276.4 149.63C276.49 149.65 276.57 149.68 276.66 149.7C276.9 149.75 277.15 149.72 277.36 149.59C277.32 149.7 277.27 149.81 277.27 149.92C277.27 150.02 277.29 150.12 277.32 150.22L277.5 150.9C277.55 151.09 277.64 151.4 277.71 151.58C278.12 151.2 278.38 150.62 278.44 150.07C278.46 149.86 278.44 149.57 278.32 149.4C278.24 149.28 278.12 149.19 277.99 149.12C277.97 148.95 277.83 148.82 277.68 148.74C277.5 148.64 277.29 148.59 277.08 148.56C276.75 148.51 276.39 148.54 276.11 148.74C275.9 148.88 275.74 149.07 275.64 149.28L275.63 149.29Z" fill="#472D23"/>
<path d="M277.41 151.04C277.49 150.86 277.63 150.46 277.89 150.59C278.03 150.66 278.02 150.82 277.97 150.95C277.88 151.16 277.69 151.34 277.5 151.45" fill="#FFBFAD"/>
<defs>
<linearGradient id="paint0_linear_112_12198" x1="209.29" y1="125.31" x2="221.83" y2="137" gradientUnits="userSpaceOnUse">
<stop stop-color="#0B0F0A"/>
<stop offset="1" stop-color="#282D25"/>
</linearGradient>
<linearGradient id="paint1_linear_112_12198" x1="171.11" y1="148.239" x2="183.65" y2="159.929" gradientUnits="userSpaceOnUse">
<stop stop-color="#0B0F0A"/>
<stop offset="1" stop-color="#282D25"/>
</linearGradient>
<linearGradient id="paint2_linear_112_12198" x1="265.91" y1="207.9" x2="279.17" y2="207.9" gradientUnits="userSpaceOnUse">
<stop stop-color="#9EC959"/>
<stop offset="0.41" stop-color="#8FB24E"/>
<stop offset="1" stop-color="#7D9640"/>
</linearGradient>
<linearGradient id="paint3_linear_112_12198" x1="270.33" y1="205" x2="285.14" y2="205" gradientUnits="userSpaceOnUse">
<stop stop-color="#9EC959"/>
<stop offset="0.41" stop-color="#8FB24E"/>
<stop offset="1" stop-color="#7D9640"/>
</linearGradient>
<linearGradient id="paint4_linear_112_12198" x1="275.53" y1="201.79" x2="291.02" y2="201.79" gradientUnits="userSpaceOnUse">
<stop stop-color="#9EC959"/>
<stop offset="0.41" stop-color="#8FB24E"/>
<stop offset="1" stop-color="#7D9640"/>
</linearGradient>
<linearGradient id="paint5_linear_112_12198" x1="281" y1="198.52" x2="296.93" y2="198.52" gradientUnits="userSpaceOnUse">
<stop stop-color="#9EC959"/>
<stop offset="0.41" stop-color="#8FB24E"/>
<stop offset="1" stop-color="#7D9640"/>
</linearGradient>
<linearGradient id="paint6_linear_112_12198" x1="286.51" y1="195.35" x2="303.11" y2="195.35" gradientUnits="userSpaceOnUse">
<stop stop-color="#9EC959"/>
<stop offset="0.41" stop-color="#8FB24E"/>
<stop offset="1" stop-color="#7D9640"/>
</linearGradient>
<linearGradient id="paint7_linear_112_12198" x1="291.58" y1="191.74" x2="310.96" y2="191.74" gradientUnits="userSpaceOnUse">
<stop stop-color="#9EC959"/>
<stop offset="0.41" stop-color="#8FB24E"/>
<stop offset="1" stop-color="#7D9640"/>
</linearGradient>
</defs>
</svg>
