<svg width="513" height="319" viewBox="0 0 513 319" fill="none" xmlns="http://www.w3.org/2000/svg">
<path d="M449.612 295.333C451.335 295.324 452.729 294.716 452.725 293.976C452.721 293.236 451.321 292.644 449.597 292.653C447.874 292.662 446.481 293.27 446.485 294.01C446.489 294.75 447.889 295.342 449.612 295.333Z" fill="#64AE47"/>
<path d="M448.82 290.121V290.141V290.161V290.181V290.201V290.221H448.83V290.241H448.84V290.261H448.86V290.281L448.88 290.301L448.9 290.321V290.341H448.92V290.361H448.94V290.381H448.97V290.401H449C449 290.401 449.03 290.431 449.05 290.441H449.06C449.06 290.441 449.09 290.461 449.11 290.471C449.11 290.471 449.15 290.491 449.16 290.491H449.2L449.23 290.511H449.3V290.531C449.3 290.531 449.35 290.531 449.37 290.531H449.42C449.42 290.531 449.45 290.531 449.47 290.531H449.5C449.5 290.531 449.53 290.531 449.54 290.531H449.69L449.72 290.511H449.79L449.84 290.481H449.89C449.89 290.481 449.92 290.461 449.94 290.451H449.95C449.95 290.451 449.98 290.431 449.99 290.431H450.01C450.01 290.431 450.05 290.401 450.07 290.391C450.18 290.321 450.25 290.241 450.28 290.161C450.28 290.151 450.28 290.131 450.29 290.121V290.101C450.29 290.101 450.29 290.091 450.29 290.081L450.32 293.521C450.32 293.631 450.25 293.751 450.1 293.841C450.08 293.851 450.06 293.861 450.04 293.871H450.02L449.99 293.891H449.97L449.92 293.911H449.87C449.87 293.911 449.84 293.931 449.82 293.941H449.75L449.73 293.961H449.58C449.58 293.961 449.57 293.971 449.56 293.971C449.55 293.971 449.53 293.971 449.52 293.971C449.52 293.971 449.51 293.971 449.5 293.971H449.49C449.49 293.971 449.46 293.971 449.44 293.971H449.39C449.39 293.971 449.35 293.971 449.34 293.961H449.3L449.26 293.941H449.23L449.19 293.921C449.19 293.921 449.16 293.911 449.14 293.901C449.14 293.901 449.11 293.881 449.09 293.881H449.08C449.08 293.881 449.04 293.861 449.03 293.851H449.01V293.831H448.98V293.811H448.96V293.791H448.94V293.771H448.92L448.9 293.751L448.88 293.721V293.701H448.86V293.681H448.85V293.661H448.84V293.641V293.621V293.601V293.581V293.561L448.81 290.111L448.82 290.121Z" fill="#766052"/>
<path d="M449.04 289.79C448.74 289.96 448.74 290.24 449.04 290.42C449.34 290.59 449.82 290.59 450.12 290.42C450.42 290.25 450.42 289.97 450.12 289.79C449.82 289.61 449.34 289.62 449.04 289.79Z" fill="white" stroke="black" stroke-width="0.5" stroke-linecap="round" stroke-linejoin="round"/>
<path d="M449.59 290.96C445.89 290.98 444.06 289.24 446.07 283.7C448.08 278.16 449.52 278.79 449.52 278.79C449.52 278.79 450.96 278.14 453.03 283.66C455.1 289.18 453.29 290.94 449.59 290.96Z" fill="#62AB51"/>
<path d="M446.07 283.7C446.92 281.36 447.67 280.12 448.25 279.47C447.85 280.69 447.59 281.97 447.43 283.24C447.23 284.85 447.16 286.51 447.55 288.09C447.8 289.13 448.27 290.13 448.95 290.95C445.69 290.77 444.18 288.91 446.07 283.7Z" fill="#548945"/>
<path d="M429.854 304.929C432.842 304.913 435.259 303.861 435.252 302.58C435.245 301.299 432.817 300.273 429.829 300.29C426.841 300.306 424.425 301.357 424.432 302.639C424.439 303.92 426.866 304.946 429.854 304.929Z" fill="#64AE47"/>
<path d="M428.49 295.911V295.981L428.51 296.001V296.041L428.53 296.061V296.081L428.55 296.101V296.121L428.57 296.141V296.161H428.59L428.61 296.201C428.61 296.201 428.63 296.241 428.64 296.251L428.67 296.291H428.68L428.7 296.321L428.72 296.341L428.74 296.361H428.76L428.78 296.391H428.8L428.82 296.421L428.85 296.441C428.85 296.441 428.91 296.471 428.94 296.491H428.96C428.96 296.491 429.02 296.531 429.05 296.541H429.06C429.06 296.541 429.12 296.571 429.16 296.581C429.18 296.581 429.21 296.591 429.23 296.601C429.25 296.601 429.26 296.601 429.28 296.611C429.3 296.611 429.33 296.621 429.35 296.631C429.37 296.631 429.39 296.631 429.4 296.641H429.42C429.42 296.641 429.48 296.651 429.51 296.661H429.54C429.54 296.661 429.58 296.661 429.59 296.661C429.62 296.661 429.65 296.661 429.68 296.661H429.74C429.74 296.661 429.79 296.661 429.81 296.661H429.87C429.87 296.661 429.91 296.661 429.94 296.661H430C430 296.661 430.04 296.651 430.07 296.651H430.13C430.13 296.651 430.18 296.631 430.2 296.631H430.25C430.25 296.631 430.3 296.611 430.33 296.601C430.35 296.601 430.37 296.601 430.38 296.591H430.41C430.41 296.591 430.46 296.561 430.49 296.551H430.51C430.51 296.551 430.56 296.521 430.58 296.511L430.61 296.491C430.61 296.491 430.68 296.461 430.71 296.441C430.91 296.331 431.03 296.191 431.07 296.041C431.07 296.021 431.08 295.991 431.09 295.971V295.931C431.09 295.931 431.09 295.911 431.09 295.891L431.13 301.861C431.13 302.061 431 302.261 430.74 302.411C430.71 302.431 430.68 302.451 430.64 302.461L430.61 302.481C430.61 302.481 430.57 302.501 430.55 302.511H430.52C430.52 302.511 430.47 302.541 430.44 302.551H430.39L430.36 302.571C430.36 302.571 430.31 302.581 430.28 302.591H430.23C430.23 302.591 430.18 302.611 430.16 302.611H430.1C430.1 302.611 430.06 302.621 430.03 302.631H429.97C429.97 302.631 429.93 302.631 429.9 302.631H429.87C429.87 302.631 429.85 302.631 429.84 302.631C429.82 302.631 429.79 302.631 429.77 302.631C429.76 302.631 429.75 302.631 429.73 302.631H429.71C429.71 302.631 429.65 302.631 429.62 302.631H429.54C429.54 302.631 429.48 302.621 429.45 302.611H429.42C429.42 302.611 429.39 302.601 429.38 302.601C429.36 302.601 429.33 302.601 429.31 302.581C429.29 302.581 429.28 302.581 429.26 302.571C429.24 302.571 429.21 302.561 429.19 302.551H429.18C429.18 302.551 429.13 302.531 429.1 302.521H429.09C429.09 302.521 429.03 302.491 429 302.481H428.98C428.98 302.481 428.92 302.441 428.89 302.421H428.87V302.401L428.83 302.381H428.81L428.79 302.351H428.77L428.75 302.321L428.73 302.301L428.71 302.281H428.7L428.67 302.241C428.67 302.241 428.65 302.201 428.64 302.191L428.62 302.151V302.111H428.6V302.091L428.58 302.071V302.051L428.56 302.031V301.981L428.54 301.961V301.891V301.871L428.5 295.901V295.921L428.49 295.911Z" fill="#766052"/>
<path d="M428.87 295.34C428.35 295.64 428.35 296.13 428.87 296.43C429.39 296.73 430.23 296.72 430.74 296.42C431.25 296.12 431.26 295.63 430.74 295.33C430.22 295.03 429.38 295.04 428.87 295.34Z" fill="white" stroke="black" stroke-width="0.5" stroke-linecap="round" stroke-linejoin="round"/>
<path d="M429.82 297.36C423.41 297.39 420.23 294.37 423.71 284.75C427.2 275.13 429.7 276.23 429.7 276.23C429.7 276.23 432.19 275.11 435.78 284.69C439.37 294.27 436.23 297.33 429.81 297.36H429.82Z" fill="#62AB51"/>
<path d="M423.72 284.75C425.2 280.68 426.49 278.54 427.5 277.41C426.8 279.53 426.36 281.74 426.09 283.96C425.74 286.76 425.63 289.63 426.29 292.37C426.73 294.17 427.54 295.91 428.72 297.33C423.06 297.01 420.44 293.8 423.72 284.75V284.75Z" fill="#548945"/>
</svg>
