<svg width="513" height="319" viewBox="0 0 513 319" fill="none" xmlns="http://www.w3.org/2000/svg">
<path d="M159.09 113C170.114 113 179.05 109.758 179.05 105.76C179.05 101.761 170.114 98.5195 159.09 98.5195C148.066 98.5195 139.13 101.761 139.13 105.76C139.13 109.758 148.066 113 159.09 113Z" fill="#64AE47"/>
<path d="M153.2 70.0693V105.299C153.2 108.839 158.99 111.709 166.13 111.709C173.27 111.709 179.06 108.839 179.06 105.299V70.0693H153.2V70.0693Z" fill="#1A6468"/>
<path d="M179.07 70.0697C179.07 73.6097 173.28 76.4797 166.14 76.4797C159 76.4797 153.21 73.6097 153.21 70.0697C153.21 67.6797 159.13 63.6496 162.96 61.2896C164.91 60.0896 167.38 60.0896 169.33 61.2896C173.16 63.6396 179.08 67.6697 179.08 70.0697H179.07Z" fill="#2D7F7F"/>
<path d="M166.13 61.0397V48.3298L144.06 35.5098" stroke="#2D7F7F" stroke-width="3" stroke-linecap="round" stroke-linejoin="round"/>
<path d="M130.57 129.629C141.593 129.629 150.53 126.388 150.53 122.389C150.53 118.391 141.593 115.149 130.57 115.149C119.546 115.149 110.61 118.391 110.61 122.389C110.61 126.388 119.546 129.629 130.57 129.629Z" fill="#64AE47"/>
<path d="M124.69 86.6992V121.929C124.69 125.469 130.48 128.339 137.62 128.339C144.76 128.339 150.55 125.469 150.55 121.929V86.6992H124.69V86.6992Z" fill="#1A6468"/>
<path d="M150.55 86.6996C150.55 90.2396 144.76 93.1095 137.62 93.1095C130.48 93.1095 124.69 90.2396 124.69 86.6996C124.69 84.3096 130.61 80.2795 134.44 77.9195C136.39 76.7195 138.86 76.7195 140.81 77.9195C144.64 80.2695 150.56 84.2996 150.56 86.6996H150.55Z" fill="#2D7F7F"/>
<path d="M137.62 77.6696V64.9597L115.54 52.1396" stroke="#2D7F7F" stroke-width="3" stroke-linecap="round" stroke-linejoin="round"/>
</svg>
