<svg width="63" height="55" viewBox="0 0 63 55" fill="none" xmlns="http://www.w3.org/2000/svg">
<path d="M29.0784 20.6827L38.1854 15.0602L45.5249 19.4979L36.4179 25.1204L29.0784 20.6827Z" fill="#0078AA"/>
<path d="M29.0785 21.1848L28.8388 20.6828L45.7646 19.498L45.515 19.99L36.408 25.6125L29.0785 21.1848Z" fill="#0078AA"/>
<path d="M45.7646 19.498L38.1855 14.9197L28.8388 20.6928L36.418 25.2711L45.7646 19.498ZM38.1855 15.2108L45.2753 19.498L36.408 24.9699L29.3181 20.6827L38.1855 15.2108Z" fill="white"/>
<path d="M40.8815 22.3996L33.542 17.9719L33.7218 17.7811L41.0613 22.2088L40.8815 22.3996Z" fill="white"/>
<path d="M32.8432 22.9919L32.6634 22.8112L41.7604 17.1887L41.9402 17.3694L32.8432 22.9919Z" fill="white"/>
<path d="M37.0472 15.7631L44.3867 20.2008" stroke="white" stroke-width="0.1" stroke-miterlimit="10"/>
<path d="M35.9088 16.4658L43.2483 20.9036" stroke="white" stroke-width="0.1" stroke-miterlimit="10"/>
<path d="M34.7703 17.1687L42.1099 21.6065" stroke="white" stroke-width="0.1" stroke-miterlimit="10"/>
<path d="M32.4935 18.5743L39.833 23.0121" stroke="white" stroke-width="0.1" stroke-miterlimit="10"/>
<path d="M31.3553 19.2771L38.6948 23.7149" stroke="white" stroke-width="0.1" stroke-miterlimit="10"/>
<path d="M30.2169 19.9799L37.5564 24.4176" stroke="white" stroke-width="0.1" stroke-miterlimit="10"/>
<path d="M29.9973 21.2349L39.1042 15.6224" stroke="white" stroke-width="0.1" stroke-miterlimit="10"/>
<path d="M30.916 21.7972L40.0229 16.1747" stroke="white" stroke-width="0.1" stroke-miterlimit="10"/>
<path d="M31.8346 22.3494L40.9316 16.7269" stroke="white" stroke-width="0.1" stroke-miterlimit="10"/>
<path d="M33.6621 23.4538L42.769 17.8313" stroke="white" stroke-width="0.1" stroke-miterlimit="10"/>
<path d="M34.5805 24.006L43.6875 18.3835" stroke="white" stroke-width="0.1" stroke-miterlimit="10"/>
<path d="M35.4992 24.5683L44.6062 18.9458" stroke="white" stroke-width="0.1" stroke-miterlimit="10"/>
<path d="M19.9814 15.1005L29.0884 9.48804L36.418 13.9157L27.321 19.5382L19.9814 15.1005Z" fill="#0078AA"/>
<path d="M19.9816 15.6025L19.7419 15.1106L36.6677 13.9158L36.4181 14.4077L27.3111 20.0302L19.9816 15.6025Z" fill="#0078AA"/>
<path d="M36.6677 13.9157L29.0886 9.3374L19.7419 15.1105L27.3211 19.6888L36.6677 13.9157V13.9157ZM29.0886 9.62857L36.1784 13.9157L27.3111 19.3876L20.2212 15.1005L29.0886 9.62857Z" fill="white"/>
<path d="M31.7846 16.8173L24.4451 12.3896L24.6248 12.1989L31.9644 16.6366L31.7846 16.8173Z" fill="white"/>
<path d="M23.7363 17.4097L23.5565 17.2289L32.6635 11.6064L32.8433 11.7872L23.7363 17.4097Z" fill="white"/>
<path d="M27.9503 10.1908L35.2798 14.6185" stroke="white" stroke-width="0.1" stroke-miterlimit="10"/>
<path d="M26.8119 10.8937L34.1514 15.3214" stroke="white" stroke-width="0.1" stroke-miterlimit="10"/>
<path d="M25.6734 11.5964L33.0129 16.0241" stroke="white" stroke-width="0.1" stroke-miterlimit="10"/>
<path d="M23.3966 12.9921L30.7361 17.4298" stroke="white" stroke-width="0.1" stroke-miterlimit="10"/>
<path d="M22.2584 13.6948L29.5979 18.1326" stroke="white" stroke-width="0.1" stroke-miterlimit="10"/>
<path d="M21.12 14.3976L28.4595 18.8353" stroke="white" stroke-width="0.1" stroke-miterlimit="10"/>
<path d="M20.9003 15.6627L30.0073 10.0402" stroke="white" stroke-width="0.1" stroke-miterlimit="10"/>
<path d="M21.819 16.2149L30.916 10.5924" stroke="white" stroke-width="0.1" stroke-miterlimit="10"/>
<path d="M22.7377 16.7671L31.8347 11.1447" stroke="white" stroke-width="0.1" stroke-miterlimit="10"/>
<path d="M24.5651 17.8715L33.6721 12.249" stroke="white" stroke-width="0.1" stroke-miterlimit="10"/>
<path d="M25.4836 18.4237L34.5906 12.8113" stroke="white" stroke-width="0.1" stroke-miterlimit="10"/>
<path d="M26.4023 18.986L35.5093 13.3635" stroke="white" stroke-width="0.1" stroke-miterlimit="10"/>
</svg>
