<svg width="63" height="55" viewBox="0 0 63 55" fill="none" xmlns="http://www.w3.org/2000/svg">
<path d="M27.9485 42.2736L33.3823 45.5452L40.85 41.0801L35.4162 37.8188L27.9485 42.2736Z" fill="#323231"/>
<path d="M50.0781 29.3312L55.5119 32.6028L61.8261 28.8374L57.556 24.8765L50.0781 29.3312Z" fill="#323231"/>
<path d="M29.3546 42.3353C28.8183 42.0164 28.0898 42.0679 27.2701 42.5411C25.813 43.395 24.6089 45.3498 24.3863 47.1193C24.366 47.3045 24.356 47.5 24.356 47.6748C24.356 48.6111 24.6797 49.2695 25.2059 49.5781L27.7053 51.0699C27.1791 50.7613 26.8553 50.1028 26.8553 49.1666C26.8553 48.9814 26.8654 48.7963 26.8857 48.6111C27.0982 46.8518 28.3124 44.8971 29.7695 44.0329C30.579 43.5596 31.3177 43.5082 31.854 43.8271L29.3546 42.3353Z" fill="#323231"/>
<path d="M29.7697 44.0329C31.2268 43.179 32.4411 43.714 32.6637 45.216C32.6839 45.3807 32.7042 45.5453 32.7042 45.7305C32.7042 47.6132 31.409 49.9177 29.79 50.8642C28.1709 51.8107 26.8656 51.0494 26.8555 49.1667C26.8555 48.9815 26.8656 48.7963 26.8859 48.6111C27.0984 46.8518 28.3126 44.8971 29.7697 44.0329ZM29.79 49.8662C30.9334 49.1975 31.8542 47.572 31.8542 46.2346C31.8542 44.8971 30.9233 44.3621 29.7798 45.0309C28.6364 45.6996 27.7155 47.3251 27.7155 48.6626C27.7155 50 28.6465 50.535 29.79 49.8662Z" fill="#5E5E59"/>
<path d="M31.8441 46.2449C31.8441 47.5824 30.9234 49.2079 29.7799 49.8766C28.6365 50.5453 27.7056 50.0103 27.7056 48.6729C27.7056 47.3354 28.6264 45.7099 29.7698 45.0412C30.9132 44.3725 31.8441 44.9075 31.8441 46.2449Z" fill="#C6BFB3"/>
<path d="M31.419 46.4918C31.419 47.5515 30.6904 48.8375 29.7798 49.3725C28.8691 49.9075 28.1304 49.4753 28.1304 48.4157C28.1304 47.356 28.8589 46.07 29.7696 45.535C30.6803 45 31.419 45.4321 31.419 46.4918Z" fill="#898984"/>
<path d="M29.9113 46.862C29.5571 47.0678 29.2637 47.5822 29.2637 48.004C29.2637 48.4258 29.5571 48.5904 29.9113 48.3846C30.2655 48.1789 30.5589 47.6645 30.5589 47.2427C30.5589 46.8209 30.2655 46.6562 29.9113 46.862Z" fill="#323231"/>
<path d="M51.5048 29.3209C50.9685 29.002 50.24 29.0535 49.4203 29.5267C47.9632 30.3806 46.7591 32.3353 46.5365 34.1049C46.5163 34.2901 46.5061 34.4855 46.5061 34.6604C46.5061 35.5967 46.8299 36.2551 47.3561 36.5637L49.8554 38.0555C49.3293 37.7469 49.0055 37.0884 49.0055 36.1522C49.0055 35.967 49.0156 35.7818 49.0358 35.5967C49.2483 33.8374 50.4626 31.8827 51.9197 31.0185C52.7292 30.5452 53.4679 30.4938 54.0042 30.8127L51.5048 29.3209Z" fill="#323231"/>
<path d="M51.9196 31.0288C53.3767 30.1749 54.591 30.7098 54.8136 32.2119C54.8338 32.3765 54.854 32.5411 54.854 32.7263C54.854 34.609 53.5588 36.9136 51.9398 37.8601C50.3208 38.8066 49.0155 38.0452 49.0054 36.1625C49.0054 35.9773 49.0155 35.7922 49.0357 35.607C49.2482 33.8477 50.4625 31.893 51.9196 31.0288ZM51.9398 36.8621C53.0832 36.1934 54.0041 34.5679 54.0041 33.2304C54.0041 31.893 53.0732 31.358 51.9297 32.0267C50.7863 32.6954 49.8654 34.321 49.8654 35.6584C49.8654 36.9959 50.7964 37.5308 51.9398 36.8621Z" fill="#5E5E59"/>
<path d="M53.9941 33.2304C53.9941 34.5678 53.0733 36.1933 51.9299 36.8621C50.7865 37.5308 49.8555 36.9958 49.8555 35.6583C49.8555 34.3209 50.7763 32.6954 51.9198 32.0267C53.0632 31.3579 53.9941 31.8929 53.9941 33.2304Z" fill="#C6BFB3"/>
<path d="M53.5691 33.4773C53.5691 34.537 52.8406 35.8229 51.9299 36.3579C51.0192 36.8929 50.2805 36.4608 50.2805 35.4011C50.2805 34.3415 51.0091 33.0555 51.9198 32.5205C52.8305 31.9855 53.5691 32.4176 53.5691 33.4773Z" fill="#898984"/>
<path d="M52.0514 33.8475C51.6973 34.0532 51.4038 34.5677 51.4038 34.9895C51.4038 35.4113 51.6973 35.5759 52.0514 35.3701C52.4056 35.1644 52.699 34.65 52.699 34.2282C52.699 33.8064 52.4056 33.6417 52.0514 33.8475Z" fill="#323231"/>
<path d="M62.0794 6.31687L51.7379 0.246914C51.1814 -0.0823045 50.4831 -0.0823045 49.9266 0.246914L5.44414 26.4918C2.74241 29.0741 2.14534 38.4568 2.47926 46.5123C2.50962 47.3251 2.95488 48.0659 3.65309 48.4671L14.0856 54.4547C15.3302 55.1749 16.8582 55.1646 18.1028 54.4445L26.1574 49.7428C26.1574 49.6914 26.1574 49.6296 26.1574 49.5782C26.1574 49.3518 26.1675 49.1255 26.1979 48.8889C26.461 46.7078 27.9586 44.2901 29.7597 43.2305C31.5609 42.1708 33.0686 42.8395 33.3418 44.6914C33.3721 44.8868 33.3924 45.1029 33.3924 45.3292C33.3924 45.3909 33.3924 45.463 33.3924 45.535L48.3177 36.8107C48.3177 36.7284 48.3177 36.6564 48.3177 36.5741C48.3177 36.3477 48.3278 36.1214 48.3582 35.8848C48.6213 33.7037 50.1189 31.286 51.9201 30.2263C53.7212 29.1667 55.2289 29.8354 55.5021 31.6872C55.5325 31.8827 55.5527 32.0988 55.5527 32.3251C55.5527 32.4177 55.5527 32.5103 55.5426 32.6029L61.8467 28.93C62.555 28.5185 63.0002 27.7469 63.0002 26.9136V7.93207C63.0002 7.27363 62.6562 6.66665 62.0895 6.33743L62.0794 6.31687Z" fill="#FDFDFD"/>
<path d="M62.747 6.99597L17.5866 33.57C17.5866 33.57 17.5866 33.57 17.5967 33.57C15.9676 40.0207 15.6438 47.2737 16.0688 54.9898C16.767 54.9898 17.4753 54.8149 18.1026 54.4445L26.1573 49.7429C26.1573 49.6914 26.1573 49.6297 26.1573 49.5783C26.1573 49.3519 26.1674 49.1256 26.1977 48.889C26.4608 46.7079 27.9584 44.2902 29.7596 43.2305C31.5607 42.1709 33.0684 42.8396 33.3416 44.6914C33.372 44.8869 33.3923 45.1029 33.3923 45.3293C33.3923 45.391 33.3923 45.463 33.3923 45.5351L48.3176 36.8108C48.3176 36.7285 48.3176 36.6565 48.3176 36.5742C48.3176 36.3478 48.3277 36.1215 48.3581 35.8848C48.6211 33.7038 50.1188 31.2861 51.9199 30.2264C53.7211 29.1667 55.2288 29.8355 55.502 31.6873C55.5323 31.8828 55.5525 32.0988 55.5525 32.3252C55.5525 32.4178 55.5525 32.5104 55.5424 32.603L61.8465 28.9301C62.5548 28.5186 63 27.747 63 26.9137V7.93216C63 7.60294 62.909 7.28402 62.7572 7.00624L62.747 6.99597Z" fill="#E1DDD7"/>
<path d="M60.8042 29.9279C60.5917 29.9279 60.4197 29.753 60.4197 29.5369V17.0781C60.4197 16.862 60.5917 16.6871 60.8042 16.6871C61.0167 16.6871 61.1887 16.862 61.1887 17.0781V29.5369C61.1887 29.753 61.0167 29.9279 60.8042 29.9279Z" fill="#C6BFB3"/>
<path d="M16.1698 52.5102C16.0079 52.5102 15.8663 52.4073 15.8056 52.2427C15.7347 52.037 15.846 51.8209 16.0484 51.7489L16.1394 51.7181C16.7061 51.5226 17.121 51.3888 17.5764 51.0391C19.0234 49.9485 19.3472 49.4032 19.9847 48.3127C20.2174 47.9217 20.4805 47.4691 20.8447 46.9032C21.8769 45.3086 24.1637 43.323 26.3899 42.0576L60.6118 22.109C60.794 22.0061 61.0267 22.0678 61.1279 22.253C61.2291 22.4382 61.1684 22.6749 60.9862 22.7777L26.7642 42.7263C24.6595 43.9197 22.4334 45.8539 21.4721 47.325C21.1179 47.8703 20.8548 48.323 20.6322 48.7036C19.9846 49.8045 19.59 50.4732 18.0216 51.6563C17.4651 52.0781 16.9591 52.2428 16.3722 52.4485L16.2811 52.4794C16.2811 52.4794 16.2002 52.4999 16.1597 52.4999L16.1698 52.5102Z" fill="#C6BFB3"/>
<path d="M15.3906 24.7531L19.7417 27.3662L25.722 23.8066L21.3709 21.1831L15.3906 24.7531Z" fill="#EFEDE7"/>
<path d="M15.3906 24.7529L15.4109 25.3394L19.7519 27.9525L19.7417 27.3661L15.3906 24.7529Z" fill="#E1DDD7"/>
<path d="M19.7417 27.3662L19.7518 27.9526L25.7321 24.3826L25.722 23.8065L19.7417 27.3662Z" fill="#CDCAC8"/>
<path d="M17.8293 24.2695L20.015 25.5864L23.0304 23.7962L20.8447 22.4794L17.8293 24.2695Z" fill="#FDFDFD"/>
<path d="M17.8293 24.2695L17.8395 24.7531L20.0251 26.0699L20.015 25.5864L17.8293 24.2695Z" fill="#E1DDD7"/>
<path d="M20.0151 25.5864L20.0253 26.0699L23.0305 24.2695V23.7963L20.0151 25.5864Z" fill="#CDCAC8"/>
<path d="M42.7522 8.65224L47.1033 11.2654L53.0734 7.69545L48.7324 5.08228L42.7522 8.65224Z" fill="#EFEDE7"/>
<path d="M42.7522 8.65234L42.7623 9.23877L47.1134 11.8519L47.1033 11.2655L42.7522 8.65234Z" fill="#E1DDD7"/>
<path d="M47.1033 11.2654L47.1134 11.8518L53.0936 8.28186L53.0734 7.69543L47.1033 11.2654Z" fill="#CDCAC8"/>
<path d="M45.1907 8.16878L47.3764 9.48565L50.3817 7.69553L48.196 6.37866L45.1907 8.16878Z" fill="#FDFDFD"/>
<path d="M45.1907 8.1687L45.2008 8.65224L47.3864 9.96911L47.3764 9.48557L45.1907 8.1687Z" fill="#E1DDD7"/>
<path d="M47.3762 9.48555L47.3863 9.96909L50.3916 8.16868L50.3815 7.69543L47.3762 9.48555Z" fill="#CDCAC8"/>
<path d="M62.322 20.1851C62.1095 20.3086 61.978 20.5452 61.978 20.7921V24.1563C61.978 24.5576 62.403 24.8148 62.7571 24.609L63 24.4752V19.7942L62.3322 20.1851H62.322Z" fill="#E64E47"/>
<path d="M34.8091 45.0616C34.5966 45.0616 34.4246 44.8867 34.4246 44.6707V37.6645C34.4246 37.4485 34.5966 37.2736 34.8091 37.2736C35.0216 37.2736 35.1936 37.4485 35.1936 37.6645V44.6707C35.1936 44.8867 35.0216 45.0616 34.8091 45.0616Z" fill="#C6BFB3"/>
<path d="M40.4853 41.8003C40.2728 41.8003 40.1008 41.6254 40.1008 41.4094V34.3106C40.1008 34.0946 40.2728 33.9197 40.4853 33.9197C40.6978 33.9197 40.8698 34.0946 40.8698 34.3106V41.4094C40.8698 41.6254 40.6978 41.8003 40.4853 41.8003Z" fill="#C6BFB3"/>
<path d="M46.2129 38.4773C46.0004 38.4773 45.8284 38.3024 45.8284 38.0864V30.9876C45.8284 30.7716 46.0004 30.5967 46.2129 30.5967C46.4254 30.5967 46.5974 30.7716 46.5974 30.9876V38.0864C46.5974 38.3024 46.4254 38.4773 46.2129 38.4773Z" fill="#C6BFB3"/>
<path d="M37.0652 42.3457C37.0045 42.3457 36.9336 42.3148 36.9033 42.2531C36.8527 42.1605 36.883 42.0473 36.9741 41.9959L38.4616 41.1317C38.5526 41.0803 38.6639 41.1111 38.7145 41.2037C38.7651 41.2963 38.7348 41.4095 38.6438 41.4609L37.1562 42.3251C37.1562 42.3251 37.0956 42.3457 37.0652 42.3457Z" fill="#C6BFB3"/>
<path d="M42.4687 39.0946C42.408 39.0946 42.3372 39.0637 42.3068 39.002C42.2562 38.9094 42.2866 38.7962 42.3777 38.7448L43.8651 37.8806C43.9562 37.8292 44.0675 37.86 44.1181 37.9526C44.1687 38.0452 44.1383 38.1584 44.0473 38.2098L42.5598 39.074C42.5598 39.074 42.4991 39.0946 42.4687 39.0946Z" fill="#C6BFB3"/>
<path d="M57.8798 30.1647C57.8191 30.1647 57.7483 30.1338 57.718 30.0721C57.6674 29.9795 57.6977 29.8663 57.7888 29.8149L59.2763 28.9507C59.3673 28.8992 59.4786 28.9301 59.5292 29.0227C59.5798 29.1153 59.5495 29.2284 59.4584 29.2799L57.9709 30.1441C57.9709 30.1441 57.9102 30.1647 57.8798 30.1647Z" fill="#C6BFB3"/>
<path d="M57.1108 26.2449C57.0197 26.2449 56.9387 26.1934 56.8881 26.1111C56.8173 25.9877 56.8578 25.8334 56.9792 25.7613L59.7315 24.1564C59.8529 24.0844 60.0048 24.1255 60.0756 24.249C60.1464 24.3725 60.1059 24.5268 59.9845 24.5988L57.2322 26.2037C57.2322 26.2037 57.1512 26.2346 57.1108 26.2346V26.2449Z" fill="#C6BFB3"/>
<path d="M57.1108 26.8106C57.0197 26.8106 56.9387 26.7591 56.8881 26.6768C56.8173 26.5534 56.8578 26.399 56.9792 26.327L59.7315 24.7221C59.8529 24.6501 60.0048 24.6912 60.0756 24.8147C60.1464 24.9381 60.1059 25.0924 59.9845 25.1645L57.2322 26.7694C57.2322 26.7694 57.1512 26.8003 57.1108 26.8003V26.8106Z" fill="#C6BFB3"/>
<path d="M57.1108 27.3869C57.0197 27.3869 56.9387 27.3354 56.8881 27.2531C56.8173 27.1297 56.8578 26.9753 56.9792 26.9033L59.7315 25.2984C59.8529 25.2264 60.0048 25.2675 60.0756 25.391C60.1464 25.5144 60.1059 25.6688 59.9845 25.7408L57.2322 27.3457C57.2322 27.3457 57.1512 27.3766 57.1108 27.3766V27.3869Z" fill="#C6BFB3"/>
<path d="M57.1108 27.9526C57.0197 27.9526 56.9387 27.9012 56.8881 27.8189C56.8173 27.6954 56.8578 27.5411 56.9792 27.4691L59.7315 25.8642C59.8529 25.7922 60.0048 25.8333 60.0756 25.9568C60.1464 26.0802 60.1059 26.2345 59.9845 26.3066L57.2322 27.9115C57.2322 27.9115 57.1512 27.9424 57.1108 27.9424V27.9526Z" fill="#C6BFB3"/>
<path d="M57.1108 28.5184C57.0197 28.5184 56.9387 28.467 56.8881 28.3847C56.8173 28.2612 56.8578 28.1069 56.9792 28.0349L59.7315 26.43C59.8529 26.358 60.0048 26.3991 60.0756 26.5226C60.1464 26.646 60.1059 26.8003 59.9845 26.8723L57.2322 28.4773C57.2322 28.4773 57.1512 28.5081 57.1108 28.5081V28.5184Z" fill="#C6BFB3"/>
<path d="M57.1108 29.0947C57.0197 29.0947 56.9387 29.0433 56.8881 28.961C56.8173 28.8375 56.8578 28.6832 56.9792 28.6112L59.7315 27.0063C59.8529 26.9342 60.0048 26.9754 60.0756 27.0989C60.1464 27.2223 60.1059 27.3766 59.9845 27.4486L57.2322 29.0536C57.2322 29.0536 57.1512 29.0845 57.1108 29.0845V29.0947Z" fill="#C6BFB3"/>
<path d="M56.1797 32.6132C55.9672 32.6132 55.7952 32.4383 55.7952 32.2222V25.1337C55.7952 24.9177 55.9672 24.7428 56.1797 24.7428C56.3922 24.7428 56.5642 24.9177 56.5642 25.1337V32.2222C56.5642 32.4383 56.3922 32.6132 56.1797 32.6132Z" fill="#C6BFB3"/>
<path d="M25.6917 29.9691L20.6829 32.9115C20.6829 32.9115 18.7603 33.7757 18.1228 36.5638C17.4853 39.3518 17.5966 48.7963 17.5966 48.7963C17.5966 48.7963 18.2037 48.8169 21.9376 41.749C23.5769 38.6523 25.2364 37.8189 25.2364 37.8189L25.6917 37.5514V29.9794V29.9691Z" fill="#5E5E59"/>
<path d="M1.22422 37.6337L0.981378 37.5514C0.51591 37.3971 0.192139 36.9547 0.192139 36.4608V33.3539C0.192139 33.1172 0.414756 32.9526 0.637371 33.0246L0.880214 33.1069C1.34568 33.2612 1.66945 33.7037 1.66945 34.1975V37.3045C1.66945 37.5411 1.44684 37.7057 1.22422 37.6337Z" fill="#323231"/>
<path d="M1.01189 34.3725C0.455349 34.3725 0 33.9096 0 33.3437V32.387C0 32.0372 0.18211 31.7079 0.475557 31.5125L3.5618 29.5371C4.03738 29.2388 4.66476 29.3829 4.9582 29.8561C5.25165 30.3294 5.10999 30.9775 4.64452 31.2758L2.02377 32.9528V33.3437C2.02377 33.9096 1.56842 34.3725 1.01189 34.3725V34.3725Z" fill="#323231"/>
<path d="M17.5868 33.57C11.1309 31.142 7.4578 28.7963 5.44414 26.5021C2.74241 29.0844 2.14534 38.4671 2.47926 46.5226C2.50962 47.3354 2.95488 48.0761 3.65309 48.4774L14.0856 54.465C14.713 54.8251 15.4112 55 16.1094 55C16.2409 46.2654 16.6154 37.7984 17.5868 33.6008V33.5803V33.57Z" fill="#EFEDE7"/>
<path d="M3.2784 42.2942L14.3079 48.611C14.5811 48.7654 14.905 48.5699 14.9151 48.2509C15.0264 43.9814 15.6436 38.6933 15.8359 36.9032C15.8662 36.5946 15.6942 36.3065 15.4008 36.1933C9.46101 33.9197 5.80813 31.7077 3.79448 29.5472C2.80283 32.6851 2.40818 36.6563 2.38794 41.43C2.60044 41.7798 2.904 42.0781 3.26828 42.2942H3.2784Z" fill="#5E5E59"/>
<path d="M14.9757 45.5658L14.7329 45.4835C14.2674 45.3292 13.9436 44.8868 13.9436 44.393V41.286C13.9436 41.0494 14.1662 40.8848 14.3888 40.9568L14.6317 41.0391C15.0971 41.1934 15.421 41.6358 15.421 42.1296V45.2366C15.421 45.4732 15.1984 45.6378 14.9757 45.5658Z" fill="#323231"/>
<path d="M14.7631 42.2942C14.2066 42.2942 13.7512 41.8312 13.7512 41.2654V40.3086C13.7512 39.9588 13.9334 39.6296 14.2268 39.4341L15.9875 38.3024C16.4631 38.0041 17.0905 38.1481 17.3839 38.6213C17.6875 39.1049 17.5357 39.7427 17.0702 40.0411L15.775 40.8744V41.2654C15.775 41.8312 15.3196 42.2942 14.7631 42.2942V42.2942Z" fill="#323231"/>
<path d="M26.3496 29.5783V37.1606L31.6013 34.1051V26.5022L26.3496 29.5783Z" fill="#5E5E59"/>
<path d="M39.3423 21.9445V29.5885L46.0713 25.6585V17.9939L39.3423 21.9445Z" fill="#5E5E59"/>
<path d="M32.1072 26.2036V33.8065L38.8362 29.8867V22.2427L32.1072 26.2036Z" fill="#5E5E59"/>
<path d="M46.5771 17.6954V25.3703L53.3062 21.4402V13.7345L46.5771 17.6954Z" fill="#5E5E59"/>
<path d="M53.8123 13.4465V21.1522L60.8044 17.0782V9.34155L53.8123 13.4465Z" fill="#5E5E59"/>
<path d="M31.6011 26.5022V34.1051L32.107 33.8068V26.2039L31.6011 26.5022Z" fill="#323231"/>
<path d="M38.8364 22.2428V29.8868L39.3424 29.5885V21.9445L38.8364 22.2428Z" fill="#323231"/>
<path d="M46.0713 17.9938V25.6584L46.5772 25.3703V17.6954L46.0713 17.9938Z" fill="#323231"/>
<path d="M53.3064 13.7346V21.4403L53.8123 21.1523V13.4465L53.3064 13.7346Z" fill="#323231"/>
<path d="M16.1394 52.5102C15.3906 52.5102 14.5812 52.2839 13.9032 51.9032L3.47067 45.9156C2.59033 45.4115 2.06416 44.609 2.02368 43.714C2.02368 43.4979 2.17545 43.323 2.38795 43.3127C2.59032 43.2818 2.77248 43.467 2.7826 43.6831C2.80283 44.3003 3.19746 44.8662 3.84506 45.2366L14.2776 51.2242C14.8544 51.5534 15.5323 51.7386 16.1597 51.7386C16.3722 51.7078 16.5442 51.9135 16.5442 52.1193C16.5442 52.325 16.3722 52.5102 16.1698 52.5102H16.1496H16.1394Z" fill="#C6BFB3"/>
<path d="M17.4955 33.9814C17.5258 33.8374 17.5461 33.7037 17.5764 33.5802C17.5461 33.7139 17.5157 33.8374 17.4854 33.9814H17.4955Z" fill="#EFEDE7"/>
<path d="M5.77783 47.6953L5.78796 49.2282L10.0379 51.7899L10.0278 50.257L5.77783 47.6953Z" fill="#5E5E59"/>
<path d="M4.45193 44.9898L2.40796 43.7655C2.40796 44.4548 2.42818 45.1441 2.45854 45.8334L4.46206 47.0371V44.9898H4.45193Z" fill="#FDCF24"/>
<path d="M14.3889 50.7715L12.2639 49.4855V51.5328L14.3889 52.8085C14.9252 53.1275 15.5525 53.2303 16.1495 53.0966C16.1596 52.4073 16.1799 51.7283 16.19 51.0492C15.5829 51.1933 14.9454 51.1007 14.3889 50.7715Z" fill="#FDCF24"/>
</svg>
