<svg width="63" height="55" viewBox="0 0 63 55" fill="none" xmlns="http://www.w3.org/2000/svg">
<path d="M33.9216 20.6827L24.8146 15.0602L17.4751 19.4979L26.5821 25.1204L33.9216 20.6827Z" fill="#0078AA"/>
<path d="M33.9215 21.1848L34.1612 20.6828L17.2354 19.498L17.485 19.99L26.592 25.6125L33.9215 21.1848Z" fill="#0078AA"/>
<path d="M17.2354 19.498L24.8145 14.9197L34.1612 20.6928L26.582 25.2711L17.2354 19.498ZM24.8145 15.2108L17.7247 19.498L26.592 24.9699L33.6819 20.6827L24.8145 15.2108Z" fill="white"/>
<path d="M22.1185 22.3996L29.458 17.9719L29.2782 17.7811L21.9387 22.2088L22.1185 22.3996Z" fill="white"/>
<path d="M30.1568 22.9919L30.3366 22.8112L21.2396 17.1887L21.0598 17.3694L30.1568 22.9919Z" fill="white"/>
<path d="M25.9528 15.7631L18.6133 20.2008" stroke="white" stroke-width="0.1" stroke-miterlimit="10"/>
<path d="M27.0912 16.4658L19.7517 20.9036" stroke="white" stroke-width="0.1" stroke-miterlimit="10"/>
<path d="M28.2297 17.1687L20.8901 21.6065" stroke="white" stroke-width="0.1" stroke-miterlimit="10"/>
<path d="M30.5065 18.5743L23.167 23.0121" stroke="white" stroke-width="0.1" stroke-miterlimit="10"/>
<path d="M31.6447 19.2771L24.3052 23.7149" stroke="white" stroke-width="0.1" stroke-miterlimit="10"/>
<path d="M32.7831 19.9799L25.4436 24.4176" stroke="white" stroke-width="0.1" stroke-miterlimit="10"/>
<path d="M33.0027 21.2349L23.8958 15.6224" stroke="white" stroke-width="0.1" stroke-miterlimit="10"/>
<path d="M32.084 21.7972L22.9771 16.1747" stroke="white" stroke-width="0.1" stroke-miterlimit="10"/>
<path d="M31.1654 22.3494L22.0684 16.7269" stroke="white" stroke-width="0.1" stroke-miterlimit="10"/>
<path d="M29.3379 23.4538L20.231 17.8313" stroke="white" stroke-width="0.1" stroke-miterlimit="10"/>
<path d="M28.4195 24.006L19.3125 18.3835" stroke="white" stroke-width="0.1" stroke-miterlimit="10"/>
<path d="M27.5008 24.5683L18.3938 18.9458" stroke="white" stroke-width="0.1" stroke-miterlimit="10"/>
<path d="M43.0186 15.1005L33.9116 9.48804L26.582 13.9157L35.679 19.5382L43.0186 15.1005Z" fill="#0078AA"/>
<path d="M43.0184 15.6025L43.2581 15.1106L26.3323 13.9158L26.5819 14.4077L35.6889 20.0302L43.0184 15.6025Z" fill="#0078AA"/>
<path d="M26.3323 13.9157L33.9114 9.3374L43.2581 15.1105L35.6789 19.6888L26.3323 13.9157V13.9157ZM33.9114 9.62857L26.8216 13.9157L35.6889 19.3876L42.7788 15.1005L33.9114 9.62857Z" fill="white"/>
<path d="M31.2154 16.8173L38.5549 12.3896L38.3752 12.1989L31.0356 16.6366L31.2154 16.8173Z" fill="white"/>
<path d="M39.2637 17.4097L39.4435 17.2289L30.3365 11.6064L30.1567 11.7872L39.2637 17.4097Z" fill="white"/>
<path d="M35.0497 10.1908L27.7202 14.6185" stroke="white" stroke-width="0.1" stroke-miterlimit="10"/>
<path d="M36.1881 10.8937L28.8486 15.3214" stroke="white" stroke-width="0.1" stroke-miterlimit="10"/>
<path d="M37.3266 11.5964L29.9871 16.0241" stroke="white" stroke-width="0.1" stroke-miterlimit="10"/>
<path d="M39.6034 12.9921L32.2639 17.4298" stroke="white" stroke-width="0.1" stroke-miterlimit="10"/>
<path d="M40.7416 13.6948L33.4021 18.1326" stroke="white" stroke-width="0.1" stroke-miterlimit="10"/>
<path d="M41.88 14.3976L34.5405 18.8353" stroke="white" stroke-width="0.1" stroke-miterlimit="10"/>
<path d="M42.0997 15.6627L32.9927 10.0402" stroke="white" stroke-width="0.1" stroke-miterlimit="10"/>
<path d="M41.181 16.2149L32.084 10.5924" stroke="white" stroke-width="0.1" stroke-miterlimit="10"/>
<path d="M40.2623 16.7671L31.1653 11.1447" stroke="white" stroke-width="0.1" stroke-miterlimit="10"/>
<path d="M38.4349 17.8715L29.3279 12.249" stroke="white" stroke-width="0.1" stroke-miterlimit="10"/>
<path d="M37.5164 18.4237L28.4094 12.8113" stroke="white" stroke-width="0.1" stroke-miterlimit="10"/>
<path d="M36.5977 18.986L27.4907 13.3635" stroke="white" stroke-width="0.1" stroke-miterlimit="10"/>
</svg>
