<svg width="63" height="55" viewBox="0 0 63 55" fill="none" xmlns="http://www.w3.org/2000/svg">
<path d="M25.0784 19.6827L34.1854 14.0602L41.5249 18.4979L32.4179 24.1204L25.0784 19.6827Z" fill="#0078AA"/>
<path d="M25.0785 20.1848L24.8388 19.6828L41.7646 18.498L41.515 18.99L32.408 24.6125L25.0785 20.1848Z" fill="#0078AA"/>
<path d="M41.7646 18.498L34.1855 13.9197L24.8388 19.6928L32.418 24.2711L41.7646 18.498ZM34.1855 14.2108L41.2753 18.498L32.408 23.9699L25.3181 19.6827L34.1855 14.2108Z" fill="white"/>
<path d="M36.8815 21.3996L29.542 16.9719L29.7218 16.7811L37.0613 21.2088L36.8815 21.3996Z" fill="white"/>
<path d="M28.8432 21.9919L28.6634 21.8112L37.7604 16.1887L37.9402 16.3694L28.8432 21.9919Z" fill="white"/>
<path d="M33.0472 14.7631L40.3867 19.2008" stroke="white" stroke-width="0.1" stroke-miterlimit="10"/>
<path d="M31.9088 15.4658L39.2483 19.9036" stroke="white" stroke-width="0.1" stroke-miterlimit="10"/>
<path d="M30.7703 16.1687L38.1099 20.6065" stroke="white" stroke-width="0.1" stroke-miterlimit="10"/>
<path d="M28.4935 17.5743L35.833 22.0121" stroke="white" stroke-width="0.1" stroke-miterlimit="10"/>
<path d="M27.3553 18.2771L34.6948 22.7149" stroke="white" stroke-width="0.1" stroke-miterlimit="10"/>
<path d="M26.2169 18.9799L33.5564 23.4176" stroke="white" stroke-width="0.1" stroke-miterlimit="10"/>
<path d="M25.9973 20.2349L35.1042 14.6224" stroke="white" stroke-width="0.1" stroke-miterlimit="10"/>
<path d="M26.916 20.7972L36.0229 15.1747" stroke="white" stroke-width="0.1" stroke-miterlimit="10"/>
<path d="M27.8346 21.3494L36.9316 15.7269" stroke="white" stroke-width="0.1" stroke-miterlimit="10"/>
<path d="M29.6621 22.4538L38.769 16.8313" stroke="white" stroke-width="0.1" stroke-miterlimit="10"/>
<path d="M30.5805 23.006L39.6875 17.3835" stroke="white" stroke-width="0.1" stroke-miterlimit="10"/>
<path d="M31.4992 23.5683L40.6062 17.9458" stroke="white" stroke-width="0.1" stroke-miterlimit="10"/>
<path d="M15.9814 14.1005L25.0884 8.48804L32.418 12.9157L23.321 18.5382L15.9814 14.1005Z" fill="#0078AA"/>
<path d="M15.9816 14.6025L15.7419 14.1106L32.6677 12.9158L32.4181 13.4077L23.3111 19.0302L15.9816 14.6025Z" fill="#0078AA"/>
<path d="M32.6677 12.9157L25.0886 8.3374L15.7419 14.1105L23.3211 18.6888L32.6677 12.9157V12.9157ZM25.0886 8.62857L32.1784 12.9157L23.3111 18.3876L16.2212 14.1005L25.0886 8.62857Z" fill="white"/>
<path d="M27.7846 15.8173L20.4451 11.3896L20.6248 11.1989L27.9644 15.6366L27.7846 15.8173Z" fill="white"/>
<path d="M19.7363 16.4097L19.5565 16.2289L28.6635 10.6064L28.8433 10.7872L19.7363 16.4097Z" fill="white"/>
<path d="M23.9503 9.1908L31.2798 13.6185" stroke="white" stroke-width="0.1" stroke-miterlimit="10"/>
<path d="M22.8119 9.89368L30.1514 14.3214" stroke="white" stroke-width="0.1" stroke-miterlimit="10"/>
<path d="M21.6734 10.5964L29.0129 15.0241" stroke="white" stroke-width="0.1" stroke-miterlimit="10"/>
<path d="M19.3966 11.9921L26.7361 16.4298" stroke="white" stroke-width="0.1" stroke-miterlimit="10"/>
<path d="M18.2584 12.6948L25.5979 17.1326" stroke="white" stroke-width="0.1" stroke-miterlimit="10"/>
<path d="M17.12 13.3976L24.4595 17.8353" stroke="white" stroke-width="0.1" stroke-miterlimit="10"/>
<path d="M16.9003 14.6627L26.0073 9.04016" stroke="white" stroke-width="0.1" stroke-miterlimit="10"/>
<path d="M17.819 15.2149L26.916 9.59241" stroke="white" stroke-width="0.1" stroke-miterlimit="10"/>
<path d="M18.7377 15.7671L27.8347 10.1447" stroke="white" stroke-width="0.1" stroke-miterlimit="10"/>
<path d="M20.5651 16.8715L29.6721 11.249" stroke="white" stroke-width="0.1" stroke-miterlimit="10"/>
<path d="M21.4836 17.4237L30.5906 11.8113" stroke="white" stroke-width="0.1" stroke-miterlimit="10"/>
<path d="M22.4023 17.986L31.5093 12.3635" stroke="white" stroke-width="0.1" stroke-miterlimit="10"/>
</svg>
