<svg width="42" height="32" viewBox="0 0 42 32" fill="none" xmlns="http://www.w3.org/2000/svg">
<g clip-path="url(#clip0_145_8991)">
<path d="M14.9131 25.7245L15.0028 25.8048L17.3339 23.7766L16.1484 23.3047L14.8135 24.9112L14.9131 25.7245Z" fill="#CFCBC4"/>
<path d="M0.84668 10.7537C0.84668 10.7537 7.37182 6.75747 12.0639 4.5987C13.4985 3.93601 14.5843 3.91593 16.0288 4.56858L39.9079 15.4126L0.84668 10.7537Z" fill="#FFF5DE"/>
<path d="M24.5964 13.8463C24.5964 13.8463 25.3435 15.764 25.8118 20.1418L38.7923 12.9627C38.7923 12.9627 38.2245 9.01663 35.9432 7.22937L24.5864 13.8362L24.5964 13.8463Z" fill="#FFFBF3"/>
<path d="M17.3738 23.4754C17.9018 23.1641 18.629 23.2143 19.4359 23.6762C20.8804 24.5196 22.0759 26.4374 22.2851 28.1644C22.305 28.3452 22.315 28.5359 22.315 28.7167C22.315 29.6404 21.9862 30.283 21.4682 30.5943L19.944 31.498C20.462 31.1968 20.7908 30.5441 20.7908 29.6204C20.7908 29.4396 20.7808 29.2589 20.7609 29.0681C20.5517 27.3411 19.3563 25.4133 17.9118 24.5799C17.1048 24.108 16.3776 24.0678 15.8496 24.3791L17.3738 23.4754Z" fill="#323231"/>
<path d="M20.771 29.0782C20.7909 29.2589 20.8008 29.4497 20.8008 29.6304C20.8008 31.4879 19.4958 32.231 17.8919 31.2972C16.288 30.3634 15.0029 28.1042 15.0029 26.2567C15.0029 26.076 15.0129 25.9053 15.0428 25.7446C15.2619 24.2686 16.4674 23.7365 17.9118 24.5799C19.3563 25.4233 20.5518 27.3411 20.761 29.0681L20.771 29.0782ZM17.9019 30.3132C19.0376 30.9759 19.9541 30.4437 19.9541 29.1284C19.9541 27.8231 19.0475 26.2266 17.9118 25.5639C16.7762 24.9012 15.8597 25.4333 15.8597 26.7487C15.8597 28.064 16.7662 29.6605 17.9019 30.3132" fill="#5E5E59"/>
<path d="M17.9118 25.574C19.0475 26.2367 19.954 27.8331 19.954 29.1384C19.954 30.4538 19.0275 30.9759 17.9018 30.3233C16.7662 29.6606 15.8596 28.0641 15.8596 26.7588C15.8596 25.4535 16.7861 24.9213 17.9118 25.574Z" fill="#C6BFB3"/>
<path d="M17.9119 26.0559C18.8084 26.578 19.5357 27.8431 19.5357 28.8874C19.5357 29.9316 18.7985 30.3533 17.9019 29.8212C17.0053 29.299 16.2781 28.0339 16.2781 26.9897C16.2781 25.9454 17.0153 25.5337 17.9119 26.0559Z" fill="#898984"/>
<path d="M17.7823 27.3612C18.1409 27.5721 18.4199 28.0641 18.4199 28.4758C18.4199 28.8874 18.131 29.0481 17.7723 28.8473C17.4137 28.6364 17.1348 28.1444 17.1348 27.7327C17.1348 27.3211 17.4237 27.1604 17.7823 27.3612Z" fill="#323231"/>
<path d="M5.37939 8.61502L21.767 0.230957L11.4861 6.05462L5.37939 8.61502Z" fill="#FFF5DE"/>
<path d="M27.1467 26.3571C27.2164 28.3953 25.5029 32 25.5029 32L40.3165 23.5557C40.3165 23.5557 42.0599 20.2723 42.0001 18.2341C41.9303 16.1958 39.9081 15.4126 39.9081 15.4126L39.5793 14.6194C39.5793 14.6194 33.7216 18.9269 30.2548 20.2422C26.788 21.5475 25.9313 21.3266 25.9313 21.3266L25.9114 21.3869L26.1007 23.3549C26.1007 23.3549 27.0869 24.3288 27.1566 26.3671L27.1467 26.3571Z" fill="#FFF5DE"/>
<path d="M7.39193 20.6037C7.15284 18.6759 5.82788 16.5372 4.21403 15.6034C2.61014 14.6696 1.26527 15.2519 1.02618 16.8986C0.99629 17.0794 0.986328 17.2601 0.986328 17.4609C0.986328 17.481 0.986328 17.491 0.986328 17.5111L7.42181 21.2965C7.42181 21.2965 7.42181 21.2463 7.42181 21.2162C7.42181 21.0154 7.41185 20.8145 7.38196 20.6037H7.39193Z" fill="#F4C6D9"/>
<path d="M26.1006 23.2946C26.1006 23.2946 25.8217 19.5896 25.5128 16.6175C25.2538 14.0972 24.2676 13.535 24.2676 13.535L11.4863 6.05457C11.4863 6.05457 6.76426 7.32975 5.36957 8.83586C5.36957 8.83586 2.37099 9.61905 1.07593 10.5729C1.70354 11.1553 2.18172 11.4967 2.76948 11.7377L5.05079 12.6815C6.7543 13.3843 8.91606 16.0452 8.60724 18.9068L8.33826 21.8387L15.0626 25.7948C15.0626 25.6542 15.0726 25.5136 15.0925 25.3831C15.3416 23.7464 16.6765 23.154 18.2804 24.0878C19.8843 25.0216 21.2192 27.1603 21.4583 29.0881C21.4782 29.2588 21.4882 29.4195 21.4882 29.5801L25.5029 31.9397C29.2486 25.7546 26.0906 23.2846 26.0906 23.2846L26.1006 23.2946Z" fill="#F7EAD2"/>
<path d="M0.996318 17.5613L1.1059 17.6215L2.98873 15.1716L1.73351 14.9507L0.737305 16.7781L0.996318 17.5613Z" fill="#CFCBC4"/>
<path d="M3.41702 14.8804C3.945 14.5692 4.67223 14.6194 5.47916 15.0812C6.92366 15.9247 8.1191 17.8424 8.32831 19.5695C8.34823 19.7502 8.35819 19.941 8.35819 20.1217C8.35819 21.0455 8.02944 21.6881 7.51142 21.9993L5.98722 22.903C6.50525 22.6018 6.834 21.9491 6.834 21.0254C6.834 20.8446 6.82404 20.6639 6.80411 20.4731C6.59491 18.7461 5.39946 16.8183 3.95497 15.9849C3.14804 15.513 2.42081 15.4728 1.89282 15.7841L3.41702 14.8804V14.8804Z" fill="#323231"/>
<path d="M6.80416 20.4832C6.82408 20.6639 6.83405 20.8547 6.83405 21.0354C6.83405 22.893 5.52902 23.636 3.92513 22.7022C2.32124 21.7684 1.03613 19.5092 1.03613 17.6617C1.03613 17.481 1.04609 17.3103 1.07598 17.1496C1.29515 15.6736 2.50055 15.1415 3.94505 15.9849C5.38955 16.8283 6.58499 18.7461 6.7942 20.4731L6.80416 20.4832ZM3.93509 21.7182C5.07076 22.3809 5.98727 21.8487 5.98727 20.5334C5.98727 19.2281 5.08073 17.6316 3.94505 16.9689C2.80938 16.3062 1.89287 16.8384 1.89287 18.1537C1.89287 19.4691 2.79942 21.0655 3.93509 21.7182" fill="#5E5E59"/>
<path d="M3.945 16.9689C5.08068 17.6316 5.98722 19.228 5.98722 20.5333C5.98722 21.8487 5.06075 22.3708 3.93504 21.7182C2.79937 21.0555 1.89282 19.459 1.89282 18.1537C1.89282 16.8484 2.81929 16.3162 3.945 16.9689Z" fill="#C6BFB3"/>
<path d="M3.94506 17.4609C4.84164 17.983 5.56887 19.2481 5.56887 20.2924C5.56887 21.3366 4.83168 21.7583 3.93509 21.2262C3.03851 20.7041 2.31128 19.4389 2.31128 18.3947C2.31128 17.3504 3.04847 16.9388 3.94506 17.4609Z" fill="#898984"/>
<path d="M3.8155 18.7663C4.17414 18.9771 4.45307 19.4691 4.45307 19.8808C4.45307 20.2925 4.16417 20.4531 3.80554 20.2523C3.44691 20.0414 3.16797 19.5494 3.16797 19.1378C3.16797 18.7261 3.45687 18.5654 3.8155 18.7663V18.7663Z" fill="#323231"/>
<path d="M23.9289 13.294L11.4863 6.05461L21.4683 0.351444C22.9028 -0.281126 24.0883 0.0602607 24.6063 0.361484L34.9868 6.49641C35.3355 6.69722 35.6642 6.94824 35.9531 7.22939L24.5964 13.8362C24.4071 13.6153 24.178 13.4246 23.9289 13.284V13.294Z" fill="#FFF5DE"/>
<path d="M14.674 8.61494L13.0502 7.55062C12.2233 7.04858 11.4961 6.97829 10.9581 7.3498L7.72047 9.00653C7.55112 9.12702 7.72047 9.72947 7.99941 9.95037C8.368 10.2516 8.74656 10.5227 9.1052 10.7436L14.0464 13.7257C14.4747 10.7335 14.6142 9.46841 14.674 8.61494V8.61494Z" fill="#5E5E59"/>
<path d="M22.8728 17.3103L22.554 14.3482C22.5141 13.796 22.1356 13.0831 21.767 12.8522L14.9729 8.66516C14.933 9.37806 14.4847 10.593 14.0464 13.7157L22.2053 18.8566C22.4643 18.9871 22.6237 18.967 22.7034 18.7562C22.8429 18.3947 22.9026 17.8926 22.8628 17.3203L22.8728 17.3103Z" fill="#5E5E59"/>
<path d="M13.917 13.7258C13.917 13.7258 14.3852 8.49454 14.6841 7.93225L15.1124 8.18327C14.8036 8.856 14.3454 13.9768 14.3454 13.9768" fill="#F7EAD2"/>
<path d="M9.44396 8.12296L7.80022 8.90614C7.48144 8.95634 7.05307 9.4885 7.31208 9.66924C7.67072 9.92026 8.04928 10.1512 8.4378 10.342L9.20487 10.7938L9.44396 8.11292V8.12296Z" fill="#323231"/>
<path d="M7.9895 9.52866C7.9895 9.11699 8.22859 8.78564 8.51749 8.78564C8.80639 8.78564 9.04548 9.11699 9.04548 9.52866C9.04548 9.94034 8.80639 10.2717 8.51749 10.2717C8.22859 10.2717 7.9895 9.94034 7.9895 9.52866Z" fill="#CFCBC4"/>
<path d="M8.5274 10.2014L6.31582 11.4867C6.11658 11.6071 5.85757 11.5168 5.76791 11.3059C5.66829 11.075 5.65832 10.8039 5.74798 10.5629C5.8476 10.332 6.03688 10.0408 6.4254 9.73956C6.9235 9.34797 7.30206 9.0367 7.65073 8.80577C7.90975 8.63507 8.24846 8.68527 8.46762 8.90617L8.51743 8.95638V10.2014H8.5274Z" fill="#CFCBC4"/>
<path d="M8.33822 10.1211C8.33822 10.1211 8.35815 9.28776 8.26849 9.04678C8.17883 8.8058 6.52513 9.81992 6.09676 10.7035C6.09676 10.7035 5.86764 11.3461 6.22627 11.3361L8.34819 10.1211H8.33822Z" fill="#CFF3FF"/>
<path d="M38.7922 12.9727L39.7486 15.021L26.0508 22.893L25.8416 20.1317L38.7922 12.9727Z" fill="#FFF5DE"/>
<path d="M25.4231 22.9131L26.0806 23.1641L29.8064 21.0756V18.8365L25.8814 20.9552L25.2737 20.7242L25.4231 22.9131Z" fill="#FDCF24"/>
<path d="M39.9477 15.4327L36.4211 17.4107V15.0712L39.1109 13.6254C39.1109 13.6254 39.8481 15.1817 39.9577 15.4327H39.9477Z" fill="#FDCF24"/>
<path d="M14.3454 13.9667L14.3952 25.4032L13.9568 25.1421L13.917 13.7157" fill="#EADECA"/>
<path d="M25.682 14.5491C25.9112 15.242 26.2897 16.5673 26.3694 18.0333C26.3993 18.5152 26.8875 18.8064 27.2959 18.5755L37.7361 12.8522C38.0051 12.7016 38.1346 12.3803 38.0449 12.0791C37.766 11.1453 37.1085 9.1974 36.3315 8.32385C36.1322 8.10295 35.8134 8.07283 35.5644 8.2134L25.9709 13.766C25.702 13.9166 25.5824 14.2379 25.682 14.5391V14.5491Z" fill="#5E5E59"/>
<path d="M5.05085 12.6816L2.76955 11.7377C2.18178 11.4968 1.70361 11.1554 1.076 10.573L0.836908 10.7839C0.388615 11.2156 0.179412 12.29 0.0797918 13.4346L0.0200195 16.2862C0.0299816 16.6778 0.0499057 16.9288 0.0499057 16.9489L0.16945 17.0192L1.01622 17.5212C1.01622 17.5212 1.01622 17.4911 1.01622 17.471C1.01622 17.2702 1.02619 17.0794 1.05607 16.9087C1.30512 15.2721 2.64004 14.6797 4.24393 15.6135C5.84782 16.5473 7.18273 18.686 7.42182 20.6138C7.45171 20.8246 7.46167 21.0255 7.46167 21.2263C7.46167 21.2564 7.46167 21.2765 7.46167 21.3066L8.36822 21.8388L8.63719 18.9069C8.93605 16.0452 6.78425 13.3844 5.08074 12.6816H5.05085Z" fill="#F4E2C9"/>
<path d="M41.8305 19.6498L27.1564 28.0941C26.7878 29.3793 25.5127 31.9497 25.5127 31.9497L40.386 23.5255C40.386 23.5255 41.7608 20.694 41.8405 19.6498H41.8305Z" fill="#F9E8CF"/>
<path d="M33.1238 24.0276L37.7163 21.4572V23.395L33.1238 26.096V24.0276Z" fill="#898984"/>
<path d="M30.5835 20.7342L35.953 17.8525C35.953 17.8525 34.0304 19.4691 30.5835 20.7342V20.7342Z" fill="#F9E8CF"/>
</g>
<defs>
<clipPath id="clip0_145_8991">
<rect width="42" height="32" fill="white"/>
</clipPath>
</defs>
</svg>
