<svg width="42" height="32" viewBox="0 0 42 32" fill="none" xmlns="http://www.w3.org/2000/svg">
<path d="M16.8738 24.7462L23.1028 27.9186L27.001 25.9414L20.2122 22.3826L16.8738 24.7462Z" fill="#CFCBC4"/>
<path d="M34.726 15.6513L40.9549 18.8327L41.6572 17.0982L38.0644 13.2877L34.726 15.6513Z" fill="#CFCBC4"/>
<path d="M19.4692 24.135C18.9298 23.8564 18.1868 23.9013 17.3624 24.3147C15.8866 25.0696 14.6652 26.7862 14.4515 28.3319C14.4311 28.4937 14.421 28.6645 14.421 28.8262C14.421 29.653 14.7568 30.2282 15.2861 30.5068L17.8103 31.8189C17.281 31.5493 16.9451 30.9652 16.9451 30.1383C16.9451 29.9766 16.9553 29.8148 16.9757 29.6441C17.1894 28.0983 18.4107 26.3728 19.8866 25.6268C20.711 25.2045 21.454 25.1685 21.9934 25.4471L19.4692 24.135Z" fill="#323231"/>
<path d="M38.2782 15.6153C37.7388 15.3367 36.9958 15.3817 36.1714 15.7951C34.6955 16.55 33.4742 18.2665 33.2605 19.8123C33.2401 19.9741 33.2299 20.1448 33.2299 20.3066C33.2299 21.1334 33.5658 21.7085 34.0951 21.9871L35.6523 22.796C35.123 22.5264 34.7872 21.9422 34.7872 21.1154C34.7872 20.9536 34.7973 20.7919 34.8177 20.6211C35.0314 19.0754 36.2528 17.3498 37.7286 16.6039C38.553 16.1815 39.296 16.1456 39.8354 16.4242L38.2782 15.6153Z" fill="#323231"/>
<path d="M23.1847 0.714806L13.312 5.82844C12.681 6.15197 12.1314 6.59234 11.7039 7.12257L7.78537 11.2296C2.98134 13.5663 2.06533 16.8016 2.06533 16.8016C0.833787 17.7722 0.314695 19.2641 0.111134 20.666C-0.0415361 21.7265 -0.0313581 22.8229 0.111134 23.8834C0.162024 24.2878 0.335056 24.5844 0.752354 24.7911L13.8209 31.3516C14.6148 31.756 15.6021 31.7471 16.396 31.3516L16.7115 31.1899C16.6301 30.9382 16.5893 30.6596 16.5792 30.3361C16.5792 30.1564 16.5893 29.9676 16.6199 29.7879C16.8642 28.0534 18.2382 26.1212 19.8972 25.2764C21.5562 24.4316 22.9303 24.9619 23.1847 26.4447C23.2152 26.6065 23.2254 26.7772 23.2254 26.957C23.2254 27.2715 23.1847 27.604 23.1033 27.9366L34.523 22.1219C34.4518 21.8883 34.4111 21.6187 34.4111 21.3221C34.4111 21.1424 34.4212 20.9536 34.4518 20.7739C34.696 19.0394 36.0701 17.1072 37.7291 16.2624C39.3881 15.4176 40.7621 15.9478 41.0166 17.4307C41.0471 17.5925 41.0573 17.7632 41.0573 17.943C41.0573 18.2395 41.0166 18.5451 40.9555 18.8596L41.1591 18.7518C41.4339 18.608 41.6273 18.3654 41.6883 18.0868C42.696 12.7215 40.9046 12.5597 40.9046 12.5597L39.6019 9.98044C38.8996 6.05311 37.3932 5.5049 37.3932 5.5049L27.3373 0.51709L23.1847 0.750762V0.714806Z" fill="#F9E8CF"/>
<path d="M23.6932 0.454135L13.3116 5.82838C12.6806 6.15192 12.131 6.59228 11.7035 7.12252L7.78495 11.2296C6.8791 11.67 6.11573 12.1373 5.47452 12.6136C5.04704 12.9281 4.66028 13.2427 4.33458 13.5572C3.58141 14.2582 3.07252 14.9323 2.72647 15.4715C2.68576 15.5344 2.65521 15.5883 2.61449 15.6512C2.1972 16.3432 2.07506 16.8016 2.07506 16.8016C2.07506 16.8016 1.20995 18.4102 2.76719 19.5875C3.86642 20.4233 9.68822 23.2992 13.047 24.9258C14.5228 25.6448 16.3039 25.6268 17.7696 24.8989L20.1614 23.7036C21.9527 22.8049 24.1716 23.9463 24.1716 25.7616V27.3883L34.543 22.1039C34.4717 21.8703 34.431 21.6006 34.431 21.3041C34.431 21.1243 34.4412 20.9356 34.4717 20.7559C34.716 19.0214 36.09 17.0891 37.749 16.2444C39.4081 15.3996 40.7821 15.9298 41.0365 17.4127C41.067 17.5744 41.0772 17.7452 41.0772 17.9249C41.0772 18.2215 41.0365 18.5271 40.9754 18.8416L41.179 18.7338C41.4029 18.6169 41.576 18.4282 41.6574 18.2125C41.6777 18.1676 41.6879 18.1137 41.6981 18.0597C41.7795 17.6194 41.8406 17.206 41.8915 16.8285C42.034 15.6602 42.0238 14.8064 41.9322 14.1863V14.1234C41.6676 12.5956 40.9144 12.5237 40.9144 12.5237L39.6116 9.94445C38.9093 6.01711 37.403 5.46891 37.403 5.46891L31.8763 2.70988L27.3166 0.436157L23.7033 0.454135H23.6932Z" fill="#FFF5DE"/>
<path d="M41.9934 15.2289C41.9934 14.8245 41.9629 14.483 41.9222 14.1864C41.9018 14.0247 41.8713 13.8808 41.8306 13.755C41.739 13.3866 41.6067 13.1259 41.4744 12.9462C41.4336 12.8833 41.3827 12.8384 41.342 12.7934C41.3013 12.7485 41.2606 12.7125 41.2199 12.6856C41.1894 12.6676 41.169 12.6496 41.1486 12.6317C41.1181 12.6137 41.0876 12.5957 41.057 12.5867C41.0062 12.5688 40.9654 12.5508 40.9451 12.5418C40.9247 12.5418 40.9146 12.5418 40.9044 12.5418L39.6016 9.96251C38.8993 6.03517 37.393 5.48695 37.393 5.48695L37.3115 5.44202L24.5992 11.9217C24.2938 12.0834 24.019 12.2902 23.8053 12.5328C23.103 13.3327 21.3015 15.2738 19.4593 19.5876C19.4593 19.5876 17.8104 21.6996 15.7952 25.4472C16.4771 25.3933 17.1387 25.2135 17.7494 24.908L20.1412 23.7127C21.9325 22.814 24.1513 23.9553 24.1513 25.7707V27.3974L34.5227 22.113C34.4515 21.8793 34.4108 21.6097 34.4108 21.3131C34.4108 21.1334 34.421 20.9447 34.4515 20.7649C34.6958 19.0304 36.0698 17.0982 37.7288 16.2534C39.3878 15.4087 40.7619 15.9389 41.0163 17.4217C41.0469 17.5835 41.057 17.7543 41.057 17.934C41.057 18.2306 41.0163 18.5362 40.9553 18.8507L41.1588 18.7428C41.2301 18.7069 41.2911 18.662 41.3522 18.617C41.5252 18.4732 41.6474 18.2845 41.6881 18.0688C41.912 16.8915 41.9934 15.9748 41.9934 15.2469V15.2289Z" fill="#F7EAD2"/>
<path d="M11.1946 9.90862L7.74422 8.14717C7.43888 7.99439 7.06228 8.14716 7.00121 8.46171C6.94014 8.77625 7.00122 9.19866 7.4287 9.63902C8.31419 10.5557 9.82054 10.8523 9.82054 10.8523L11.1946 9.91762V9.90862Z" fill="#CFCBC4"/>
<path d="M16.9756 29.6531C16.9552 29.8148 16.945 29.9856 16.945 30.1474C16.945 31.81 18.2783 32.475 19.917 31.6392C21.5557 30.8034 22.8687 28.7813 22.8687 27.1277C22.8687 26.9659 22.8585 26.8132 22.8279 26.6694C22.604 25.3483 21.3725 24.872 19.8967 25.6269C18.4208 26.3818 17.1995 28.0983 16.9858 29.6441L16.9756 29.6531ZM19.9068 30.7585C18.7466 31.3516 17.8102 30.8753 17.8102 29.698C17.8102 28.5297 18.7364 27.1007 19.8967 26.5076C21.057 25.9145 21.9933 26.3908 21.9933 27.5681C21.9933 28.7454 21.0671 30.1743 19.9068 30.7585Z" fill="#5E5E59"/>
<path d="M19.8967 26.5166C18.7364 27.1098 17.8103 28.5387 17.8103 29.707C17.8103 30.8843 18.7568 31.3516 19.9069 30.7675C21.0672 30.1743 21.9934 28.7454 21.9934 27.5771C21.9934 26.4088 21.0469 25.9325 19.8967 26.5166Z" fill="#C6BFB3"/>
<path d="M19.8967 26.9479C18.9807 27.4152 18.2377 28.5476 18.2377 29.4823C18.2377 30.4169 18.9909 30.7944 19.9069 30.3181C20.8229 29.8507 21.5659 28.7184 21.5659 27.7837C21.5659 26.849 20.8127 26.4806 19.8967 26.9479Z" fill="#898984"/>
<path d="M20.0291 28.1162C19.6627 28.3049 19.3777 28.7453 19.3777 29.1138C19.3777 29.4823 19.6729 29.626 20.0393 29.4463C20.4057 29.2666 20.6907 28.8172 20.6907 28.4487C20.6907 28.0803 20.3955 27.9365 20.0291 28.1162Z" fill="#323231"/>
<path d="M34.8076 20.6301C34.7872 20.7919 34.7771 20.9626 34.7771 21.1244C34.7771 22.787 36.1104 23.452 37.7491 22.6162C39.3877 21.7805 40.7007 19.7584 40.7007 18.1048C40.7007 17.943 40.6905 17.7902 40.66 17.6464C40.436 16.3253 39.2045 15.849 37.7287 16.6039C36.2529 17.3588 35.0315 19.0754 34.8178 20.6211L34.8076 20.6301ZM37.7389 21.7355C36.5786 22.3287 35.6422 21.8524 35.6422 20.6751C35.6422 19.5067 36.5684 18.0778 37.7287 17.4847C38.889 16.8915 39.8254 17.3678 39.8254 18.5451C39.8254 19.7224 38.8992 21.1514 37.7389 21.7355Z" fill="#5E5E59"/>
<path d="M37.7285 17.4846C36.5682 18.0778 35.642 19.5067 35.642 20.675C35.642 21.8523 36.5886 22.3197 37.7387 21.7355C38.899 21.1424 39.8252 19.7134 39.8252 18.5451C39.8252 17.3768 38.8786 16.9005 37.7285 17.4846Z" fill="#C6BFB3"/>
<path d="M37.7287 17.925C36.8127 18.3923 36.0697 19.5246 36.0697 20.4593C36.0697 21.394 36.8229 21.7714 37.7389 21.2951C38.6549 20.8278 39.3979 19.6954 39.3979 18.7608C39.3979 17.8261 38.6448 17.4576 37.7287 17.925Z" fill="#898984"/>
<path d="M37.8611 19.0933C37.4947 19.282 37.2098 19.7224 37.2098 20.0908C37.2098 20.4593 37.5049 20.6031 37.8713 20.4234C38.2377 20.2346 38.5227 19.7943 38.5227 19.4258C38.5227 19.0573 38.2275 18.9135 37.8611 19.0933Z" fill="#323231"/>
<path d="M11.7036 7.1225L7.78507 11.2296C7.33724 11.4453 6.91993 11.6789 6.53316 11.9036C5.70874 13.2517 6.41104 14.4919 8.07005 15.2648L14.4822 18.5271C15.388 18.9854 16.3855 19.3089 17.4237 19.4707C18.0954 19.5785 18.7773 19.6145 19.4593 19.5785C21.3015 15.2648 23.103 13.3236 23.8053 12.5237C23.846 12.4788 23.8867 12.4428 23.9172 12.4069L12.3143 6.49341C12.0904 6.68214 11.8766 6.89782 11.6934 7.1225H11.7036Z" fill="#FFFBF3"/>
<path d="M24.5989 11.9037L37.3113 5.42401L27.1231 0.319365C25.6574 -0.246819 24.4463 0.0587494 23.917 0.328361L13.3115 5.81944C12.9553 5.99918 12.6194 6.22386 12.3242 6.47549L23.9272 12.389C24.1205 12.1913 24.3547 12.0205 24.6091 11.8947L24.5989 11.9037Z" fill="#FFF5DE"/>
<path d="M6.91978 12.5417C6.87907 12.9911 7.09282 13.4404 7.40834 13.7909C7.72386 14.1504 8.14116 14.429 8.55846 14.6807L14.8688 17.889C15.7645 18.3474 16.7416 18.6529 17.7594 18.8147C17.8713 18.8327 17.9833 18.8506 18.0953 18.8596C18.6042 18.9225 19.0927 18.6619 19.2861 18.2485C20.5787 15.4895 21.9018 14.2403 22.5838 13.3056C22.828 12.9731 22.7059 12.5328 22.3191 12.335L11.8052 6.97876C11.8052 6.97876 11.7238 7.06862 11.6933 7.11356L7.77473 11.2206C7.77473 11.2206 6.97066 11.7599 6.90959 12.5328L6.91978 12.5417Z" fill="#5E5E59"/>
<path d="M4.32443 25.5549L9.39307 28.0983V27.3793L4.32443 24.845V25.5549Z" fill="#CFCBC4"/>
<path d="M12.7213 29.06L9.75947 27.5681V28.2871L12.3752 29.5992C12.4261 29.6261 12.4872 29.6441 12.5482 29.6441C12.6704 29.6441 12.7925 29.5902 12.8536 29.4913C12.9452 29.3386 12.8943 29.1498 12.7213 29.0689V29.06Z" fill="#CFCBC4"/>
<path d="M3.95783 24.6563L1.58637 23.461C1.41334 23.3801 1.1996 23.4251 1.108 23.5778C1.01639 23.7306 1.06729 23.9193 1.24032 24.0002L3.96802 25.3663V24.6473L3.95783 24.6563Z" fill="#CFCBC4"/>
<path d="M16.487 21.1783C16.2122 21.2053 15.9476 21.2412 15.6728 21.2861C14.3802 21.5108 13.1282 21.9781 12.1613 22.769C12.029 22.8769 11.9069 22.9847 11.8255 23.1195C11.7339 23.2543 11.6931 23.4161 11.7237 23.5689C11.7644 23.7396 11.9069 23.8834 12.0799 23.9643C12.2529 24.0452 12.4565 24.0811 12.6499 24.0901C13.3827 24.126 14.1053 23.8654 14.7364 23.5329C15.5404 23.1105 16.2936 22.6432 16.9857 22.041C17.1995 21.8523 17.688 21.403 17.1995 21.1873C17.057 21.1244 16.8941 21.1334 16.7414 21.1423C16.6498 21.1423 16.5684 21.1603 16.4768 21.1603L16.487 21.1783Z" fill="#CFCBC4"/>
<path d="M15.7544 22.5624C15.6526 22.6433 15.4287 22.814 15.2862 22.9039C14.8791 23.1645 14.472 23.4072 14.0241 23.5869C13.6374 23.7487 13.1997 23.8565 12.7722 23.8026C12.4465 23.7577 12.1412 23.5599 12.243 23.2364C12.2939 23.0836 12.4058 22.9668 12.5381 22.8589C13.2099 22.3197 14.0241 21.9962 14.8994 21.8254C15.276 21.9513 15.5916 22.2388 15.7442 22.5624H15.7544Z" fill="#FDFDFD"/>
<path d="M4.19202 16.2624C4.21237 15.9749 4.24289 15.3098 4.14111 15.0312C4.11058 14.9593 4.04952 14.8694 3.9681 14.8784C3.90703 14.8784 3.86631 14.9324 3.83578 14.9773C2.96047 16.1097 2.7162 17.5925 3.07243 18.9316C3.15385 19.2461 3.45919 19.8483 3.95791 19.6595C4.30396 19.5337 4.31416 18.9945 4.2938 18.7429C4.19202 17.7004 4.12077 17.242 4.19202 16.2624V16.2624Z" fill="#CFCBC4"/>
<path d="M3.40839 16.4331C3.11323 17.0352 3.0929 18.0777 3.27611 18.7967C3.327 18.9854 3.5102 19.3539 3.81554 19.2371C4.0191 19.1562 4.0598 18.8506 4.02927 18.608C3.8766 17.2959 3.95802 16.6128 3.95802 16.6128L3.40839 16.4331V16.4331Z" fill="#FDFDFD"/>
<path d="M40.9041 12.5238L40.0492 10.8342L38.4614 11.661C38.2069 11.7959 38.0645 12.0475 38.1052 12.3081L38.2171 13.063C38.268 13.3686 38.6446 13.5483 38.9601 13.4045L40.9143 12.5238H40.9041Z" fill="#FDCF24"/>
<path d="M24.1512 27.3884V25.7617C24.1512 23.9463 21.9324 22.805 20.141 23.7037L17.7492 24.899C17.1386 25.2045 16.4668 25.3843 15.795 25.4382L15.5508 25.8336C15.2047 26.3998 15.0317 27.0469 15.0724 27.6939L15.3167 31.6482C15.6831 31.6213 16.0495 31.5224 16.3854 31.3517L16.7009 31.1899C16.6195 30.9383 16.5788 30.6597 16.5686 30.3361C16.5686 30.1564 16.5787 29.9677 16.6093 29.7879C16.8535 28.0534 18.2276 26.1212 19.8866 25.2764C21.5456 24.4316 22.9197 24.9619 23.1741 26.4447C23.2046 26.6065 23.2148 26.7773 23.2148 26.957C23.2148 27.2715 23.1741 27.6041 23.0927 27.9366L28.1206 25.3753L24.1308 27.4063L24.1512 27.3884Z" fill="#F4E2C9"/>
<path d="M31.0721 23.8653L31.3775 23.7126L31.4487 8.41663L31.1434 8.5694L31.0721 23.8653Z" fill="#EADECA"/>
<path d="M39.7439 10.2411L39.5912 9.94448C38.8889 6.01715 37.3826 5.46894 37.3826 5.46894L37.3012 5.43298L24.5888 11.9126C24.2835 12.0744 24.0087 12.2811 23.7949 12.5238C23.0926 13.3236 21.2911 15.2648 19.4489 19.5786C20.8637 19.5157 22.2479 19.1562 23.4998 18.5181L39.7439 10.2411V10.2411Z" fill="#EADECA"/>
<path d="M30.3496 9.63888L26.6957 11.5351C25.8204 11.9935 25.1283 12.6675 24.711 13.4853L22.0749 17.9789C21.9426 18.2395 22.2377 18.5091 22.5431 18.4012C22.9604 18.2485 23.3573 18.0777 23.7441 17.88L30.9705 14.1953C30.7058 11.5262 30.4819 10.3309 30.3496 9.62988V9.63888Z" fill="#5E5E59"/>
<path d="M37.4031 9.25251L36.4565 7.35624C36.2937 6.97878 35.795 6.82601 35.398 7.02372L30.7772 9.42326C30.8891 9.99843 31.1334 11.2027 31.4082 13.9797L37.1283 11.0679C37.3929 10.9061 37.5354 10.7264 37.5659 10.4837C37.6168 10.0703 37.5659 9.63895 37.3929 9.25251H37.4031Z" fill="#5E5E59"/>
<path d="M22.0849 17.9879C21.9525 18.2485 22.2477 18.5181 22.5531 18.4103C22.9704 18.2575 23.3673 18.0868 23.7541 17.889L24.5581 17.4756C24.3953 15.9029 24.2935 15.2648 24.1714 14.5638L22.095 17.9789L22.0849 17.9879Z" fill="#323231"/>
<path d="M23.9272 17.2421C23.9272 16.8736 23.683 16.577 23.3878 16.577C23.0926 16.577 22.8484 16.8736 22.8484 17.2421C22.8484 17.6105 23.0926 17.9071 23.3878 17.9071C23.683 17.9071 23.9272 17.6105 23.9272 17.2421Z" fill="#CFCBC4"/>
<path d="M23.3881 17.8441L25.6476 18.9944C25.8511 19.1022 26.1158 19.0214 26.2074 18.8326C26.3092 18.6259 26.3193 18.3833 26.2277 18.1676C26.126 17.9609 25.9326 17.7003 25.5356 17.4307C25.0267 17.0802 24.64 16.8016 24.2837 16.5949C24.0191 16.4421 23.673 16.487 23.4491 16.6847L23.3982 16.7297V17.8441H23.3881Z" fill="#CFCBC4"/>
<path d="M5.25045 23.7307L8.43615 25.3304C8.89416 25.5551 9.44378 25.573 9.91197 25.3843L10.6143 25.0967L4.32425 21.9423L4.44638 22.6972C4.51763 23.1286 4.81279 23.515 5.24027 23.7307H5.25045Z" fill="#CFCBC4"/>
</svg>
