<svg width="42" height="32" viewBox="0 0 42 32" fill="none" xmlns="http://www.w3.org/2000/svg">
<path d="M16.874 24.7441L23.103 27.9265L26.991 25.9397L20.2124 22.3799L16.874 24.7441Z" fill="#CFCBC4"/>
<path d="M34.7158 15.6467L40.9549 18.829L41.6572 17.094L38.0542 13.2825L34.7158 15.6467Z" fill="#CFCBC4"/>
<path d="M19.4693 24.1327C18.9298 23.854 18.1868 23.899 17.3624 24.3125C15.8866 25.0676 14.6652 26.7846 14.4515 28.3308C14.4311 28.4926 14.421 28.6635 14.421 28.8253C14.421 29.6523 14.7568 30.2276 15.2861 30.5063L17.8103 31.8188C17.281 31.5491 16.9451 30.9648 16.9451 30.1377C16.9451 29.9759 16.9553 29.8141 16.9757 29.6433C17.1894 28.0971 18.4107 26.3711 19.8866 25.625C20.711 25.2025 21.454 25.1665 21.9934 25.4452L19.4693 24.1327Z" fill="#323231"/>
<path d="M38.268 15.6106C37.7285 15.3319 36.9855 15.3769 36.1611 15.7904C34.6853 16.5455 33.4639 18.2626 33.2502 19.8088C33.2298 19.9706 33.2196 20.1414 33.2196 20.3032C33.2196 21.1302 33.5555 21.7055 34.0848 21.9842L35.642 22.7933C35.1128 22.5236 34.7769 21.9393 34.7769 21.1122C34.7769 20.9504 34.7871 20.7886 34.8074 20.6178C35.0211 19.0716 36.2425 17.3456 37.7183 16.5995C38.5428 16.177 39.2858 16.141 39.8252 16.4197L38.268 15.6106Z" fill="#323231"/>
<path d="M23.1845 0.706072L13.3118 5.82114C12.6807 6.14476 12.1311 6.58522 11.7037 7.11561L7.78512 11.2238C2.9811 13.5611 2.06508 16.7974 2.06508 16.7974C0.833543 17.7683 0.31445 19.2605 0.11089 20.6629C-0.0417803 21.7237 -0.0316022 22.8204 0.11089 23.8812C0.16178 24.2857 0.334811 24.5823 0.75211 24.7891L13.8207 31.3515C14.6146 31.756 15.6018 31.747 16.3957 31.3515L16.7112 31.1897C16.6298 30.938 16.5891 30.6593 16.5789 30.3357C16.5789 30.1559 16.5891 29.9671 16.6196 29.7873C16.8639 28.0523 18.2379 26.1196 19.897 25.2745C21.556 24.4295 22.93 24.9599 23.1845 26.4432C23.215 26.605 23.2252 26.7758 23.2252 26.9556C23.2252 27.2702 23.1845 27.6028 23.103 27.9354L34.5228 22.1192C34.4515 21.8855 34.4108 21.6158 34.4108 21.3191C34.4108 21.1393 34.421 20.9505 34.4515 20.7708C34.6958 19.0358 36.0698 17.103 37.7288 16.258C39.3879 15.413 40.7619 15.9434 41.0163 17.4266C41.0469 17.5885 41.0571 17.7593 41.0571 17.9391C41.0571 18.2357 41.0164 18.5414 40.9553 18.856L41.1589 18.7481C41.4337 18.6043 41.627 18.3616 41.6881 18.0829C42.6957 12.7161 40.9044 12.5543 40.9044 12.5543L39.6016 9.97431C38.8993 6.04587 37.393 5.4975 37.393 5.4975L27.3371 0.508301L23.1845 0.742011V0.706072Z" fill="#EFBBD0"/>
<path d="M23.6932 0.445337L13.3116 5.82111C12.6806 6.14473 12.131 6.58519 11.7035 7.11558L7.78495 11.2238C6.8791 11.6643 6.11576 12.1318 5.47455 12.6082C5.04707 12.9229 4.66028 13.2375 4.33458 13.5521C3.58141 14.2533 3.07252 14.9275 2.72647 15.4669C2.68576 15.5298 2.65521 15.5838 2.61449 15.6467C2.1972 16.3389 2.07506 16.7974 2.07506 16.7974C2.07506 16.7974 1.20995 18.4065 2.76719 19.5841C3.86642 20.4202 9.68822 23.2968 13.047 24.9239C14.5228 25.6431 16.3039 25.6251 17.7696 24.897L20.1614 23.7013C21.9527 22.8024 24.1716 23.9441 24.1716 25.76V27.3871L34.543 22.1012C34.4717 21.8675 34.431 21.5978 34.431 21.3011C34.431 21.1213 34.4412 20.9326 34.4717 20.7528C34.716 19.0178 36.09 17.085 37.749 16.24C39.4081 15.395 40.7821 15.9254 41.0365 17.4086C41.067 17.5705 41.0772 17.7413 41.0772 17.9211C41.0772 18.2177 41.0365 18.5233 40.9754 18.838L41.179 18.7301C41.4029 18.6132 41.576 18.4245 41.6574 18.2087C41.6777 18.1638 41.6879 18.1098 41.6981 18.0559C41.7795 17.6154 41.8406 17.2019 41.8915 16.8243C42.034 15.6557 42.0238 14.8017 41.9322 14.1814V14.1185C41.6676 12.5902 40.9144 12.5183 40.9144 12.5183L39.6116 9.93831C38.9093 6.00988 37.403 5.4615 37.403 5.4615L31.8763 2.70173L27.3166 0.427368L23.7033 0.445337H23.6932Z" fill="#FFD2E2"/>
<path d="M41.9934 15.2242C41.9934 14.8197 41.9629 14.4781 41.9222 14.1814C41.9018 14.0196 41.8713 13.8758 41.8306 13.7499C41.739 13.3813 41.6067 13.1207 41.4744 12.9409C41.4336 12.8779 41.3827 12.833 41.342 12.7881C41.3013 12.7431 41.2606 12.7071 41.2199 12.6802C41.1894 12.6622 41.169 12.6442 41.1486 12.6262C41.1181 12.6082 41.0876 12.5903 41.057 12.5813C41.0062 12.5633 40.9654 12.5453 40.9451 12.5363C40.9247 12.5363 40.9146 12.5363 40.9044 12.5363L39.6016 9.95632C38.8993 6.02788 37.393 5.47953 37.393 5.47953L37.3115 5.43457L24.5992 11.9161C24.2938 12.0779 24.019 12.2846 23.8053 12.5273C23.103 13.3274 21.3015 15.2692 19.4593 19.5842C19.4593 19.5842 17.8104 21.6967 15.7952 25.4453C16.4771 25.3914 17.1387 25.2116 17.7494 24.906L20.1412 23.7104C21.9325 22.8114 24.1513 23.9531 24.1513 25.769V27.3961L34.5227 22.1102C34.4515 21.8765 34.4108 21.6068 34.4108 21.3101C34.4108 21.1304 34.421 20.9416 34.4515 20.7618C34.6958 19.0268 36.0698 17.094 37.7288 16.249C39.3878 15.404 40.7619 15.9344 41.0163 17.4177C41.0469 17.5795 41.057 17.7503 41.057 17.9301C41.057 18.2267 41.0163 18.5324 40.9553 18.847L41.1588 18.7391C41.2301 18.7032 41.2912 18.6582 41.3522 18.6133C41.5252 18.4694 41.6474 18.2807 41.6881 18.0649C41.912 16.8873 41.9934 15.9703 41.9934 15.2422V15.2242Z" fill="#F4C6D9"/>
<path d="M11.1946 9.90229L7.74422 8.14035C7.43888 7.98752 7.06231 8.14035 7.00124 8.45499C6.94017 8.76962 7.00122 9.19213 7.4287 9.63262C8.31419 10.5496 9.82054 10.8462 9.82054 10.8462L11.1946 9.91129V9.90229Z" fill="#E2AFC6"/>
<path d="M16.9756 29.6525C16.9552 29.8143 16.945 29.9851 16.945 30.1469C16.945 31.81 18.2783 32.4752 19.917 31.6392C21.5557 30.8031 22.8687 28.7805 22.8687 27.1264C22.8687 26.9646 22.8585 26.8117 22.8279 26.6679C22.604 25.3464 21.3725 24.87 19.8967 25.6252C18.4208 26.3803 17.1995 28.0973 16.9858 29.6435L16.9756 29.6525ZM19.9068 30.7582C18.7466 31.3515 17.8102 30.8751 17.8102 29.6974C17.8102 28.5288 18.7364 27.0994 19.8967 26.5061C21.057 25.9128 21.9933 26.3892 21.9933 27.5669C21.9933 28.7445 21.0671 30.1739 19.9068 30.7582Z" fill="#5E5E59"/>
<path d="M19.8967 26.515C18.7364 27.1083 17.8103 28.5376 17.8103 29.7063C17.8103 30.8839 18.7568 31.3514 19.9069 30.7671C21.0672 30.1737 21.9934 28.7444 21.9934 27.5757C21.9934 26.4071 21.0469 25.9307 19.8967 26.515Z" fill="#C6BFB3"/>
<path d="M19.8967 26.9465C18.9807 27.414 18.2377 28.5466 18.2377 29.4815C18.2377 30.4165 18.9909 30.794 19.9069 30.3176C20.8229 29.8501 21.5659 28.7174 21.5659 27.7825C21.5659 26.8476 20.8127 26.479 19.8967 26.9465Z" fill="#898984"/>
<path d="M20.0291 28.1151C19.6627 28.3039 19.3777 28.7444 19.3777 29.113C19.3777 29.4815 19.6729 29.6254 20.0393 29.4456C20.4057 29.2658 20.6907 28.8163 20.6907 28.4478C20.6907 28.0792 20.3955 27.9354 20.0291 28.1151Z" fill="#323231"/>
<path d="M34.8076 20.6268C34.7872 20.7887 34.7771 20.9594 34.7771 21.1213C34.7771 22.7843 36.1104 23.4496 37.7491 22.6135C39.3877 21.7775 40.7007 19.7548 40.7007 18.1008C40.7007 17.9389 40.6905 17.7861 40.66 17.6423C40.436 16.3208 39.2045 15.8444 37.7287 16.5995C36.2529 17.3546 35.0315 19.0716 34.8178 20.6178L34.8076 20.6268ZM37.7389 21.7325C36.5786 22.3259 35.6422 21.8494 35.6422 20.6718C35.6422 19.5031 36.5684 18.0738 37.7287 17.4805C38.889 16.8872 39.8254 17.3636 39.8254 18.5413C39.8254 19.7189 38.8992 21.1482 37.7389 21.7325Z" fill="#5E5E59"/>
<path d="M37.7285 17.4806C36.5682 18.0739 35.642 19.5032 35.642 20.6718C35.642 21.8495 36.5886 22.3169 37.7387 21.7326C38.899 21.1393 39.8252 19.71 39.8252 18.5413C39.8252 17.3727 38.8786 16.8962 37.7285 17.4806Z" fill="#C6BFB3"/>
<path d="M37.7287 17.921C36.8127 18.3884 36.0697 19.5211 36.0697 20.4561C36.0697 21.391 36.8229 21.7685 37.7389 21.2921C38.6549 20.8246 39.3979 19.6919 39.3979 18.757C39.3979 17.8221 38.6448 17.4535 37.7287 17.921Z" fill="#898984"/>
<path d="M37.8611 19.0896C37.4947 19.2784 37.2097 19.7189 37.2097 20.0875C37.2097 20.4561 37.5049 20.5999 37.8713 20.4201C38.2377 20.2313 38.5227 19.7908 38.5227 19.4222C38.5227 19.0537 38.2275 18.9098 37.8611 19.0896Z" fill="#323231"/>
<path d="M11.7036 7.11558L7.78507 11.2238C7.33724 11.4396 6.91993 11.6733 6.53316 11.898C5.70874 13.2465 6.41104 14.487 8.07005 15.2602L14.4822 18.5233C15.388 18.9818 16.3855 19.3054 17.4237 19.4673C18.0954 19.5751 18.7773 19.6111 19.4593 19.5751C21.3015 15.2601 23.103 13.3184 23.8053 12.5183C23.846 12.4734 23.8867 12.4374 23.9172 12.4014L12.3143 6.48633C12.0904 6.67511 11.8766 6.89084 11.6934 7.11558H11.7036Z" fill="#FFE3EE"/>
<path d="M24.5989 11.907L37.3113 5.42555L27.1231 0.319454C25.6574 -0.246888 24.4463 0.0587659 23.917 0.328453L13.3115 5.82109C12.9553 6.00088 12.6194 6.2256 12.3242 6.47731L23.9272 12.3925C24.1205 12.1947 24.3547 12.0239 24.6091 11.898L24.5989 11.907Z" fill="#FFD2E2"/>
<path d="M6.91978 12.5362C6.87907 12.9857 7.09282 13.4352 7.40834 13.7858C7.72386 14.1453 8.14116 14.424 8.55846 14.6757L14.8688 17.885C15.7645 18.3435 16.7416 18.6491 17.7594 18.8109C17.8713 18.8289 17.9833 18.8469 18.0953 18.8559C18.6042 18.9188 19.0927 18.6581 19.2861 18.2446C20.5787 15.4848 21.9018 14.2352 22.5838 13.3003C22.828 12.9677 22.7059 12.5272 22.3191 12.3295L11.8053 6.97168C11.8053 6.97168 11.7238 7.06157 11.6933 7.10652L7.77473 11.2148C7.77473 11.2148 6.97066 11.7541 6.90959 12.5272L6.91978 12.5362Z" fill="#5E5E59"/>
<path d="M4.32443 25.5531L9.39307 28.0971V27.378L4.32443 24.8429V25.5531Z" fill="#D89CB7"/>
<path d="M12.7213 29.059L9.75945 27.5668V28.286L12.3752 29.5984C12.4261 29.6254 12.4871 29.6434 12.5482 29.6434C12.6704 29.6434 12.7925 29.5894 12.8536 29.4906C12.9452 29.3377 12.8943 29.1489 12.7213 29.068V29.059Z" fill="#D89CB7"/>
<path d="M3.95783 24.6542L1.58637 23.4586C1.41334 23.3777 1.1996 23.4226 1.108 23.5754C1.01639 23.7283 1.06729 23.917 1.24032 23.998L3.96802 25.3644V24.6452L3.95783 24.6542Z" fill="#D89CB7"/>
<path d="M16.487 21.1753C16.2122 21.2022 15.9476 21.2382 15.6728 21.2831C14.3802 21.5079 13.1282 21.9753 12.1613 22.7664C12.029 22.8743 11.9069 22.9822 11.8255 23.117C11.7339 23.2518 11.6931 23.4137 11.7237 23.5665C11.7644 23.7373 11.9069 23.8811 12.0799 23.962C12.2529 24.0429 12.4565 24.0789 12.6499 24.0879C13.3827 24.1238 14.1053 23.8631 14.7364 23.5305C15.5404 23.108 16.2936 22.6405 16.9857 22.0382C17.1995 21.8495 17.688 21.4 17.1995 21.1843C17.057 21.1213 16.8941 21.1303 16.7414 21.1393C16.6498 21.1393 16.5684 21.1573 16.4768 21.1573L16.487 21.1753Z" fill="#D89CB7"/>
<path d="M15.7441 22.5597C15.6424 22.6406 15.4184 22.8114 15.2759 22.9013C14.8688 23.162 14.4617 23.4047 14.0139 23.5845C13.6271 23.7463 13.1894 23.8542 12.762 23.8002C12.4363 23.7553 12.1309 23.5575 12.2327 23.2339C12.2836 23.0811 12.3956 22.9642 12.5279 22.8563C13.1996 22.3169 14.0139 21.9933 14.8892 21.8225C15.2658 21.9484 15.5813 22.236 15.734 22.5597H15.7441Z" fill="#FDFDFD"/>
<path d="M4.18176 16.2579C4.20212 15.9703 4.23266 15.3051 4.13088 15.0264C4.10035 14.9545 4.03927 14.8646 3.95784 14.8735C3.89678 14.8735 3.85606 14.9275 3.82552 14.9724C2.95021 16.1051 2.70594 17.5884 3.06217 18.9279C3.1436 19.2425 3.44896 19.8448 3.94769 19.656C4.29374 19.5301 4.3039 18.9908 4.28355 18.7391C4.18177 17.6963 4.11052 17.2378 4.18176 16.2579V16.2579Z" fill="#D89CB7"/>
<path d="M3.40842 16.4288C3.11326 17.0311 3.0929 18.0739 3.27611 18.7931C3.327 18.9819 3.5102 19.3504 3.81554 19.2336C4.0191 19.1527 4.0598 18.847 4.02927 18.6043C3.8766 17.2918 3.95802 16.6086 3.95802 16.6086L3.40842 16.4288V16.4288Z" fill="#FDFDFD"/>
<path d="M40.9041 12.5183L40.0492 10.8282L38.4614 11.6553C38.2069 11.7901 38.0645 12.0419 38.1052 12.3025L38.2171 13.0577C38.268 13.3633 38.6446 13.5431 38.9601 13.3993L40.9143 12.5183H40.9041Z" fill="#FDCF24"/>
<path d="M24.1512 27.3871V25.76C24.1512 23.9441 21.9323 22.8024 20.141 23.7013L17.7492 24.897C17.1385 25.2026 16.4668 25.3824 15.795 25.4363L15.5507 25.8319C15.2047 26.3982 15.0317 27.0455 15.0724 27.6927L15.3166 31.6481C15.683 31.6211 16.0495 31.5223 16.3854 31.3515L16.7009 31.1897C16.6194 30.9379 16.5787 30.6593 16.5685 30.3356C16.5685 30.1558 16.5787 29.9671 16.6092 29.7873C16.8535 28.0523 18.2275 26.1195 19.8866 25.2745C21.5456 24.4295 22.9196 24.9599 23.1741 26.4431C23.2046 26.605 23.2148 26.7758 23.2148 26.9556C23.2148 27.2702 23.1741 27.6028 23.0927 27.9354L28.1206 25.3734L24.1308 27.405L24.1512 27.3871Z" fill="#E2AFC6"/>
<path d="M31.0619 23.8631L31.3672 23.7103L31.4385 8.41003L31.1331 8.56287L31.0619 23.8631Z" fill="#E2AFC6"/>
<path d="M39.7439 10.2349L39.5912 9.93829C38.8889 6.00985 37.3826 5.46148 37.3826 5.46148L37.3012 5.42554L24.5888 11.907C24.2835 12.0688 24.0087 12.2756 23.795 12.5183C23.0927 13.3184 21.2911 15.2601 19.4489 19.5751C20.8637 19.5122 22.2479 19.1526 23.4998 18.5143L39.7439 10.2349V10.2349Z" fill="#EDC3D6"/>
<path d="M30.3496 9.63266L26.6957 11.5294C25.8204 11.9879 25.1283 12.6621 24.711 13.4802L22.0749 17.975C21.9426 18.2357 22.2377 18.5054 22.5431 18.3975C22.9604 18.2447 23.3573 18.0738 23.7441 17.8761L30.9705 14.1904C30.7058 11.5205 30.4819 10.3248 30.3496 9.62366V9.63266Z" fill="#5E5E59"/>
<path d="M37.3928 9.24609L36.4463 7.34928C36.2834 6.97172 35.7847 6.8189 35.3878 7.01667L30.7669 9.41689C30.8789 9.99223 31.1232 11.1968 31.398 13.9746L37.118 11.062C37.3827 10.9002 37.5252 10.7204 37.5557 10.4777C37.6066 10.0641 37.5557 9.63264 37.3826 9.24609H37.3928Z" fill="#5E5E59"/>
<path d="M22.0751 17.9839C21.9428 18.2446 22.2379 18.5142 22.5433 18.4064C22.9606 18.2535 23.3575 18.0827 23.7443 17.885L24.5483 17.4714C24.3855 15.8983 24.2837 15.26 24.1616 14.5588L22.0852 17.9749L22.0751 17.9839Z" fill="#323231"/>
<path d="M23.9272 17.2379C23.9272 16.8693 23.683 16.5726 23.3878 16.5726C23.0926 16.5726 22.8484 16.8693 22.8484 17.2379C22.8484 17.6064 23.0926 17.9031 23.3878 17.9031C23.683 17.9031 23.9272 17.6064 23.9272 17.2379Z" fill="#E2AFC6"/>
<path d="M23.3778 17.8402L25.6374 18.9908C25.8409 19.0987 26.1055 19.0178 26.1971 18.829C26.2989 18.6223 26.3091 18.3795 26.2175 18.1638C26.1157 17.957 25.9223 17.6963 25.5254 17.4266C25.0165 17.076 24.6297 16.7974 24.2735 16.5906C24.0089 16.4378 23.6628 16.4827 23.4389 16.6805L23.388 16.7255V17.8402H23.3778Z" fill="#E2AFC6"/>
<path d="M5.24044 23.7282L8.42617 25.3284C8.88418 25.5531 9.43377 25.5711 9.90196 25.3823L10.6042 25.0946L4.31424 21.9393L4.43637 22.6945C4.50762 23.126 4.80278 23.5125 5.23026 23.7282H5.24044Z" fill="#D89CB7"/>
</svg>
