<svg width="42" height="32" viewBox="0 0 42 32" fill="none" xmlns="http://www.w3.org/2000/svg">
<path d="M8.73661 6.7876L18.7086 0.622559L26.738 5.4823L16.776 11.6473L8.73661 6.7876Z" fill="#0078AA"/>
<path d="M8.73664 7.32981L8.47762 6.7876L26.9971 5.4823L26.7281 6.0245L16.766 12.1895L8.73664 7.32981Z" fill="#0078AA"/>
<path d="M26.9971 5.48231L18.7086 0.461914L8.47762 6.79765L16.776 11.818L26.9971 5.48231ZM18.7086 0.783219L26.4691 5.48231L16.766 11.4867L9.00561 6.78761L18.7086 0.783219Z" fill="white"/>
<path d="M21.6574 8.66529L13.628 3.80555L13.8173 3.60474L21.8467 8.46448L21.6574 8.66529Z" fill="white"/>
<path d="M12.851 9.31789L12.6617 9.11707L22.6238 2.95203L22.823 3.15284L12.851 9.31789Z" fill="white"/>
<path d="M17.4635 1.39575L25.4929 6.25549" stroke="white" stroke-width="0.1" stroke-miterlimit="10"/>
<path d="M16.2181 2.15881L24.2476 7.0286" stroke="white" stroke-width="0.1" stroke-miterlimit="10"/>
<path d="M14.9728 2.93201L23.0022 7.79175" stroke="white" stroke-width="0.1" stroke-miterlimit="10"/>
<path d="M12.4723 4.47827L20.5117 9.33801" stroke="white" stroke-width="0.1" stroke-miterlimit="10"/>
<path d="M11.2272 5.24133L19.2666 10.1111" stroke="white" stroke-width="0.1" stroke-miterlimit="10"/>
<path d="M9.98187 6.01453L18.0212 10.8843" stroke="white" stroke-width="0.1" stroke-miterlimit="10"/>
<path d="M9.74278 7.40006L19.7048 1.22498" stroke="white" stroke-width="0.1" stroke-miterlimit="10"/>
<path d="M10.7489 8.00257L20.7109 1.83752" stroke="white" stroke-width="0.1" stroke-miterlimit="10"/>
<path d="M11.7552 8.61503L21.7173 2.43994" stroke="white" stroke-width="0.1" stroke-miterlimit="10"/>
<path d="M13.7574 9.82999L23.7195 3.65491" stroke="white" stroke-width="0.1" stroke-miterlimit="10"/>
<path d="M14.7638 10.4324L24.7258 4.26733" stroke="white" stroke-width="0.1" stroke-miterlimit="10"/>
<path d="M15.7699 11.0449L25.7319 4.87988" stroke="white" stroke-width="0.1" stroke-miterlimit="10"/>
</svg>
