<svg width="42" height="32" viewBox="0 0 42 32" fill="none" xmlns="http://www.w3.org/2000/svg">
<path d="M16.8757 24.7405L23.1053 27.9122L26.9938 25.9355L20.2145 22.3774L16.8757 24.7405Z" fill="#CFCBC4"/>
<path d="M34.7197 15.6477L40.9493 18.8284L41.6619 17.0943L38.0585 13.2847L34.7197 15.6477Z" fill="#CFCBC4"/>
<path d="M19.4715 24.1295C18.932 23.8509 18.1889 23.8959 17.3644 24.3092C15.8884 25.0639 14.6669 26.78 14.4532 28.3254C14.4328 28.4872 14.4226 28.6579 14.4226 28.8196C14.4226 29.6462 14.7586 30.2213 15.2879 30.4998L17.8123 31.8116C17.283 31.5421 16.9471 30.9581 16.9471 30.1314C16.9471 29.9697 16.9572 29.808 16.9776 29.6372C17.1913 28.0918 18.4128 26.3667 19.8888 25.621C20.7133 25.1987 21.4564 25.1627 21.9959 25.4413L19.4715 24.1295Z" fill="#323231"/>
<path d="M38.2722 15.6118C37.7327 15.3332 36.9897 15.3781 36.1652 15.7914C34.6892 16.5462 33.4677 18.2623 33.2539 19.8077C33.2335 19.9695 33.2234 20.1402 33.2234 20.3019C33.2234 21.1285 33.5593 21.7036 34.0886 21.9821L35.646 22.7908C35.1167 22.5212 34.7808 21.9372 34.7808 21.1106C34.7808 20.9488 34.791 20.7871 34.8113 20.6164C35.0251 19.071 36.2466 17.3458 37.7225 16.6001C38.547 16.1778 39.2901 16.1419 39.8296 16.4204L38.2722 15.6118Z" fill="#323231"/>
<path d="M23.1868 0.714638L13.3131 5.82709C12.682 6.15055 12.1323 6.59082 11.7048 7.12093L7.78583 11.2271C2.98128 13.5632 2.06517 16.7977 2.06517 16.7977C0.833493 17.7681 0.314313 19.2596 0.110731 20.6613C-0.041956 21.7215 -0.0317769 22.8177 0.110731 23.8779C0.161626 24.2822 0.334676 24.5787 0.75202 24.7854L13.822 31.3444C14.616 31.7488 15.6033 31.7398 16.3973 31.3444L16.7129 31.1827C16.6314 30.9311 16.5907 30.6526 16.5805 30.3291C16.5805 30.1494 16.5908 29.9607 16.6213 29.7811C16.8656 28.0469 18.2397 26.1152 19.8989 25.2706C21.5581 24.426 22.9324 24.9561 23.1868 26.4386C23.2174 26.6004 23.2275 26.7711 23.2275 26.9508C23.2275 27.2653 23.1868 27.5977 23.1054 27.9301L34.5263 22.1169C34.4551 21.8833 34.4144 21.6137 34.4144 21.3172C34.4144 21.1375 34.4245 20.9488 34.4551 20.7691C34.6994 19.035 36.0736 17.1033 37.7328 16.2587C39.392 15.4141 40.7661 15.9442 41.0206 17.4267C41.0511 17.5884 41.0614 17.7592 41.0614 17.9389C41.0614 18.2354 41.0206 18.5408 40.9595 18.8553L41.1631 18.7475C41.438 18.6037 41.6314 18.3612 41.6925 18.0826C42.7002 12.7186 40.9087 12.5568 40.9087 12.5568L39.6058 9.97815C38.9034 6.05171 37.3968 5.50365 37.3968 5.50365L27.3399 0.516968L23.1868 0.750586V0.714638Z" fill="#D0ECF4"/>
<path d="M23.6858 0.454023L13.3031 5.82702C12.672 6.15048 12.1223 6.59075 11.6948 7.12086L7.77583 11.227C6.86989 11.6673 6.10644 12.1345 5.46515 12.6107C5.03763 12.9252 4.65083 13.2396 4.3251 13.5541C3.57184 14.2549 3.06287 14.9288 2.71678 15.4679C2.67606 15.5308 2.64554 15.5847 2.60482 15.6476C2.18748 16.3394 2.06536 16.7977 2.06536 16.7977C2.06536 16.7977 1.20013 18.406 2.75753 19.583C3.85688 20.4186 9.67931 23.2938 13.0384 24.9201C14.5144 25.6389 16.2958 25.6209 17.7615 24.8931L20.1536 23.6982C21.9451 22.7997 24.1642 23.9407 24.1642 25.7557V27.382L34.5367 22.0988C34.4655 21.8652 34.4248 21.5957 34.4248 21.2992C34.4248 21.1195 34.4349 20.9308 34.4655 20.7511C34.7097 19.017 36.084 17.0852 37.7432 16.2406C39.4024 15.396 40.7765 15.9262 41.031 17.4087C41.0615 17.5704 41.0717 17.7411 41.0717 17.9208C41.0717 18.2173 41.031 18.5228 40.9699 18.8373L41.1735 18.7295C41.3975 18.6127 41.5705 18.424 41.6519 18.2083C41.6723 18.1634 41.6825 18.1095 41.6927 18.0556C41.7741 17.6153 41.8352 17.202 41.8861 16.8246C42.0286 15.6566 42.0184 14.803 41.9268 14.1831V14.1202C41.6621 12.5927 40.9088 12.5208 40.9088 12.5208L39.606 9.94216C38.9036 6.01572 37.397 5.46763 37.397 5.46763L31.8698 2.70923L27.3096 0.436035L23.696 0.454023H23.6858Z" fill="#DBF6FF"/>
<path d="M41.9979 15.2254C41.9979 14.8211 41.9674 14.4797 41.9267 14.1832C41.9063 14.0215 41.8757 13.8777 41.835 13.7519C41.7434 13.3835 41.6111 13.123 41.4788 12.9433C41.4381 12.8804 41.3872 12.8354 41.3464 12.7905C41.3057 12.7456 41.265 12.7096 41.2243 12.6827C41.1938 12.6647 41.1734 12.6467 41.153 12.6288C41.1225 12.6108 41.092 12.5928 41.0615 12.5839C41.0106 12.5659 40.9698 12.5479 40.9494 12.5389C40.9291 12.5389 40.9189 12.5389 40.9087 12.5389L39.6058 9.96024C38.9035 6.0338 37.3969 5.48571 37.3969 5.48571L37.3155 5.4408L24.6018 11.919C24.2964 12.0807 24.0216 12.2873 23.8078 12.5299C23.1055 13.3296 21.3038 15.2704 19.4613 19.5831C19.4613 19.5831 17.8123 21.6946 15.7969 25.4414C16.4789 25.3875 17.1405 25.2078 17.7512 24.9023L20.1433 23.7072C21.9348 22.8087 24.1539 23.9498 24.1539 25.7648V27.3911L34.5264 22.1079C34.4552 21.8743 34.4145 21.6048 34.4145 21.3083C34.4145 21.1286 34.4246 20.9399 34.4552 20.7602C34.6995 19.0261 36.0737 17.0943 37.7329 16.2497C39.3921 15.4051 40.7662 15.9352 41.0207 17.4178C41.0512 17.5795 41.0615 17.7502 41.0615 17.9299C41.0615 18.2264 41.0207 18.5319 40.9596 18.8464L41.1632 18.7386C41.2345 18.7026 41.2956 18.6577 41.3566 18.6128C41.5297 18.469 41.6518 18.2803 41.6926 18.0647C41.9165 16.8876 41.9979 15.9712 41.9979 15.2434V15.2254Z" fill="#C5E3EA"/>
<path d="M11.1855 9.90625L7.7348 8.1452C7.42942 7.99246 7.05281 8.14518 6.99174 8.45966C6.93067 8.77413 6.99172 9.19642 7.41925 9.63669C8.30483 10.5532 9.81138 10.8497 9.81138 10.8497L11.1855 9.91525V9.90625Z" fill="#B2D3D8"/>
<path d="M19.8887 25.63C21.3646 24.8752 22.5963 25.3514 22.8203 26.6722C22.8406 26.816 22.861 26.9687 22.861 27.1304C22.861 28.7927 21.5479 30.8053 19.9091 31.6409C18.2702 32.4765 16.9469 31.8026 16.9368 30.1494C16.9368 29.9877 16.9469 29.826 16.9673 29.6552C17.181 28.1098 18.4026 26.3847 19.8785 25.639L19.8887 25.63ZM19.9091 30.7604C21.0695 30.1674 21.9958 28.7388 21.9958 27.5707C21.9958 26.4027 21.0491 25.9265 19.8989 26.5105C18.7384 27.1035 17.8122 28.5321 17.8122 29.7002C17.8122 30.8772 18.7588 31.3444 19.9091 30.7604Z" fill="#5E5E59"/>
<path d="M21.9959 27.5618C21.9959 28.7389 21.0696 30.1675 19.9092 30.7515C18.7487 31.3445 17.8123 30.8683 17.8123 29.6913C17.8123 28.5232 18.7385 27.0946 19.899 26.5016C21.0594 25.9086 21.9959 26.3848 21.9959 27.5618Z" fill="#C6BFB3"/>
<path d="M21.5683 27.7863C21.5683 28.7208 20.8253 29.8529 19.9091 30.3201C18.993 30.7873 18.2397 30.41 18.2397 29.4845C18.2397 28.5501 18.9828 27.418 19.8989 26.9508C20.8151 26.4835 21.5683 26.8609 21.5683 27.7863Z" fill="#898984"/>
<path d="M20.0314 28.1097C19.6649 28.2984 19.3799 28.7387 19.3799 29.1071C19.3799 29.4754 19.6751 29.6192 20.0416 29.4395C20.408 29.2598 20.693 28.8106 20.693 28.4422C20.693 28.0738 20.3978 27.93 20.0314 28.1097Z" fill="#323231"/>
<path d="M37.7224 16.6001C39.1984 15.8453 40.4301 16.3215 40.654 17.6423C40.6744 17.7861 40.6947 17.9388 40.6947 18.1006C40.6947 19.7628 39.3816 21.7754 37.7428 22.611C36.104 23.4466 34.7807 22.7728 34.7705 21.1195C34.7705 20.9578 34.7807 20.7961 34.801 20.6253C35.0148 19.0799 36.2363 17.3548 37.7122 16.6091L37.7224 16.6001ZM37.7428 21.7305C38.9032 21.1375 39.8295 19.7089 39.8295 18.5408C39.8295 17.3728 38.8828 16.8966 37.7326 17.4806C36.5722 18.0736 35.6459 19.5022 35.6459 20.6703C35.6459 21.8473 36.5926 22.3145 37.7428 21.7305Z" fill="#5E5E59"/>
<path d="M39.8296 18.5408C39.8296 19.7179 38.9033 21.1465 37.7429 21.7305C36.5825 22.3235 35.646 21.8473 35.646 20.6703C35.646 19.5023 36.5723 18.0736 37.7327 17.4806C38.8931 16.8876 39.8296 17.3638 39.8296 18.5408Z" fill="#C6BFB3"/>
<path d="M39.4021 18.7565C39.4021 19.6909 38.659 20.823 37.7429 21.2902C36.8268 21.7574 36.0735 21.3801 36.0735 20.4546C36.0735 19.5202 36.8166 18.3881 37.7327 17.9208C38.6488 17.4536 39.4021 17.831 39.4021 18.7565Z" fill="#898984"/>
<path d="M37.8651 19.089C37.4987 19.2777 37.2136 19.7179 37.2136 20.0863C37.2136 20.4547 37.5088 20.5984 37.8753 20.4187C38.2417 20.2301 38.5267 19.7898 38.5267 19.4214C38.5267 19.053 38.2315 18.9093 37.8651 19.089Z" fill="#323231"/>
<path d="M11.7046 7.1209L7.78566 11.227C7.33778 11.4427 6.9204 11.6763 6.53359 11.9009C5.70908 13.2487 6.41145 14.4886 8.07065 15.2613L14.4835 18.5228C15.3894 18.9811 16.387 19.3045 17.4253 19.4663C18.0971 19.5741 18.7791 19.61 19.4611 19.5741C21.3035 15.2613 23.1052 13.3205 23.8076 12.5209C23.8483 12.476 23.889 12.44 23.9195 12.4041L12.3153 6.49194C12.0914 6.68063 11.8776 6.89628 11.6944 7.1209H11.7046Z" fill="#F0FCFF"/>
<path d="M24.6017 11.9009L37.3155 5.42278L27.1262 0.319292C25.6604 -0.246762 24.449 0.058736 23.9197 0.328285L13.3131 5.81809C12.9568 5.99779 12.6209 6.22243 12.3257 6.47401L23.9299 12.3861C24.1233 12.1885 24.3574 12.0177 24.6119 11.8919L24.6017 11.9009Z" fill="#DBF6FF"/>
<path d="M6.92059 12.5389C6.87987 12.9881 7.09368 13.4374 7.40923 13.7878C7.72478 14.1472 8.14213 14.4257 8.55947 14.6773L14.8705 17.885C15.7662 18.3432 16.7435 18.6487 17.7614 18.8104C17.8733 18.8284 17.9853 18.8463 18.0973 18.8553C18.6063 18.9182 19.0948 18.6577 19.2882 18.2443C20.581 15.486 21.9043 14.237 22.5863 13.3026C22.8306 12.9702 22.7084 12.5299 22.3216 12.3322L11.8066 6.97717C11.8066 6.97717 11.7251 7.06702 11.6946 7.11194L7.77566 11.2181C7.77566 11.2181 6.97148 11.7572 6.9104 12.5299L6.92059 12.5389Z" fill="#5E5E59"/>
<path d="M4.32495 25.5492L9.38401 28.0919V27.3731L4.32495 24.8394V25.5492Z" fill="#B2D3D8"/>
<path d="M12.7228 29.0532L9.76074 27.5616V28.2804L12.3768 29.5923C12.4277 29.6192 12.4887 29.6372 12.5498 29.6372C12.672 29.6372 12.7941 29.5833 12.8552 29.4844C12.9468 29.3317 12.8959 29.143 12.7228 29.0621V29.0532Z" fill="#B2D3D8"/>
<path d="M3.95849 24.6506L1.58673 23.4556C1.41369 23.3748 1.19996 23.4197 1.10835 23.5724C1.01673 23.7252 1.06763 23.9139 1.24068 23.9947L3.96868 25.3604V24.6416L3.95849 24.6506Z" fill="#B2D3D8"/>
<path d="M16.4889 21.1734C16.2141 21.2004 15.9495 21.2363 15.6746 21.2812C14.3819 21.5058 13.1298 21.9731 12.1628 22.7637C12.0305 22.8716 11.9083 22.9794 11.8269 23.1141C11.7353 23.2489 11.6946 23.4106 11.7251 23.5634C11.7658 23.7341 11.9083 23.8779 12.0814 23.9587C12.2544 24.0396 12.458 24.0755 12.6514 24.0845C13.3843 24.1205 14.107 23.8599 14.7381 23.5275C15.5422 23.1052 16.2955 22.638 16.9877 22.036C17.2015 21.8473 17.6901 21.398 17.2015 21.1824C17.059 21.1195 16.8961 21.1285 16.7434 21.1375C16.6518 21.1375 16.5704 21.1554 16.4787 21.1554L16.4889 21.1734Z" fill="#B2D3D8"/>
<path d="M15.7458 22.5572C15.644 22.638 15.4201 22.8088 15.2776 22.8986C14.8704 23.1592 14.4633 23.4018 14.0154 23.5815C13.6286 23.7432 13.1908 23.851 12.7633 23.7971C12.4376 23.7522 12.1322 23.5545 12.234 23.2311C12.2849 23.0783 12.3969 22.9615 12.5292 22.8537C13.201 22.3146 14.0154 21.9911 14.8908 21.8204C15.2674 21.9462 15.583 22.2337 15.7357 22.5572H15.7458Z" fill="#FDFDFD"/>
<path d="M4.18218 16.2587C4.20254 15.9712 4.23309 15.3063 4.1313 15.0277C4.10076 14.9559 4.03971 14.866 3.95827 14.875C3.8972 14.875 3.85648 14.9289 3.82594 14.9738C2.95054 16.1059 2.70624 17.5885 3.06251 18.9272C3.14394 19.2417 3.44931 19.8437 3.94809 19.655C4.29418 19.5292 4.30437 18.9901 4.28401 18.7385C4.18222 17.6963 4.11093 17.2381 4.18218 16.2587V16.2587Z" fill="#B2D3D8"/>
<path d="M3.40883 16.4294C3.11364 17.0314 3.09334 18.0737 3.27656 18.7925C3.32746 18.9812 3.51065 19.3496 3.81602 19.2328C4.0196 19.1519 4.06034 18.8464 4.02981 18.6038C3.87712 17.292 3.95854 16.6091 3.95854 16.6091L3.40883 16.4294Z" fill="#FDFDFD"/>
<path d="M40.8984 12.521L40.0434 10.8318L38.4555 11.6584C38.201 11.7932 38.0585 12.0447 38.0992 12.3053L38.2111 13.0601C38.262 13.3656 38.6387 13.5452 38.9542 13.4015L40.9086 12.521H40.8984Z" fill="#FDCF24"/>
<path d="M24.1537 27.3821V25.7558C24.1537 23.9408 21.9347 22.7998 20.1431 23.6982L17.7511 24.8932C17.1403 25.1987 16.4685 25.3784 15.7967 25.4323L15.5524 25.8277C15.2063 26.3937 15.0333 27.0407 15.074 27.6876L15.3183 31.641C15.6847 31.614 16.0511 31.5152 16.3871 31.3444L16.7027 31.1827C16.6212 30.9311 16.5805 30.6526 16.5703 30.3292C16.5703 30.1495 16.5805 29.9608 16.611 29.7811C16.8553 28.047 18.2295 26.1152 19.8887 25.2706C21.5479 24.426 22.9221 24.9561 23.1766 26.4387C23.2071 26.6004 23.2173 26.7711 23.2173 26.9508C23.2173 27.2653 23.1765 27.5977 23.0951 27.9302L28.1236 25.3694L24.1334 27.4001L24.1537 27.3821Z" fill="#B2D3D8"/>
<path d="M31.0654 23.86L31.3708 23.7072L31.4421 8.41479L31.1367 8.56755L31.0654 23.86Z" fill="#C0DCE2"/>
<path d="M39.7483 10.2387L39.5957 9.94224C38.8933 6.0158 37.3868 5.46771 37.3868 5.46771L37.3054 5.43176L24.5917 11.91C24.2863 12.0717 24.0114 12.2783 23.7977 12.5209C23.0953 13.3206 21.2936 15.2613 19.4512 19.5741C20.8661 19.5112 22.2505 19.1518 23.5025 18.5139L39.7483 10.2387V10.2387Z" fill="#CEEBF2"/>
<path d="M30.3528 9.63665L26.6984 11.5325C25.823 11.9907 25.1309 12.6646 24.7136 13.4822L22.0771 17.9747C21.9448 18.2353 22.24 18.5048 22.5454 18.397C22.9628 18.2443 23.3597 18.0736 23.7465 17.8759L30.9737 14.192C30.709 11.5235 30.4851 10.3285 30.3528 9.62769V9.63665Z" fill="#5E5E59"/>
<path d="M37.3966 9.25037L36.45 7.35456C36.2871 6.97719 35.7884 6.82445 35.3914 7.02212L30.77 9.42109C30.882 9.99613 31.1263 11.2001 31.4011 13.9765L37.1218 11.0654C37.3865 10.9036 37.529 10.7239 37.5595 10.4813C37.6104 10.068 37.5595 9.63673 37.3864 9.25037H37.3966Z" fill="#5E5E59"/>
<path d="M22.0771 17.9837C21.9448 18.2443 22.24 18.5138 22.5454 18.406C22.9628 18.2532 23.3597 18.0825 23.7465 17.8849L24.5507 17.4715C24.3878 15.8992 24.286 15.2613 24.1639 14.5604L22.0873 17.9747L22.0771 17.9837Z" fill="#323231"/>
<path d="M23.9298 17.238C23.9298 16.8696 23.6855 16.5731 23.3903 16.5731C23.0951 16.5731 22.8508 16.8696 22.8508 17.238C22.8508 17.6064 23.0951 17.9029 23.3903 17.9029C23.6855 17.9029 23.9298 17.6064 23.9298 17.238Z" fill="#B2D3D8"/>
<path d="M23.3801 17.84L25.6399 18.99C25.8434 19.0978 26.1081 19.017 26.1997 18.8283C26.3015 18.6217 26.3117 18.3791 26.2201 18.1634C26.1183 17.9568 25.9249 17.6962 25.5279 17.4267C25.019 17.0762 24.6321 16.7977 24.2758 16.5911C24.0112 16.4383 23.6651 16.4832 23.4412 16.6809L23.3903 16.7258V17.84H23.3801Z" fill="#B2D3D8"/>
<path d="M5.24103 23.7252L8.4271 25.3245C8.88516 25.5491 9.43478 25.5671 9.90302 25.3784L10.6054 25.0909L4.3147 21.9371L4.43684 22.6919C4.5081 23.1232 4.80332 23.5095 5.23084 23.7252H5.24103Z" fill="#B2D3D8"/>
</svg>
