<svg width="271" height="185" viewBox="0 0 271 185" fill="none" xmlns="http://www.w3.org/2000/svg">
<path d="M219.543 33.5796L232.023 40.0896V164.66L219.543 158.75V33.5796Z" fill="#DBD7D1"/>
<path d="M232.023 40.0896L244.733 33.5796V157.59L232.023 164.66V40.0896Z" fill="#EAE6E1"/>
<path d="M219.543 33.5798L232.023 26.2798L244.733 33.5798L232.023 40.0898L219.543 33.5798Z" fill="#F5F1E8"/>
<path d="M222.313 33.4898L232.043 27.7998L241.963 33.4898L232.043 38.5698L222.313 33.4898Z" fill="#CCCAC6"/>
<path d="M270.043 61.1897C270.043 61.1897 270.043 61.0997 270.043 61.0497C270.043 51.8497 253.013 44.3896 232.013 44.3896C211.013 44.3896 193.983 51.8497 193.983 61.0497C193.983 61.0497 193.513 64.7396 193.983 70.5196C193.983 79.7196 211.013 87.1797 232.013 87.1797C253.013 87.1797 270.043 79.7196 270.043 70.5196C270.043 70.4596 270.043 70.3996 270.033 70.3396C270.433 65.2996 270.113 61.8897 270.033 61.1897H270.043ZM232.143 62.2096C229.713 62.2096 227.453 61.8997 225.533 61.3697C227.453 60.8397 229.713 60.5296 232.143 60.5296C234.573 60.5296 236.833 60.8397 238.753 61.3697C236.833 61.8997 234.573 62.2096 232.143 62.2096ZM232.143 51.0696C237.563 51.0696 242.163 52.5796 243.943 54.6996C240.193 54.1596 236.193 53.8596 232.023 53.8596C227.853 53.8596 224.043 54.1396 220.373 54.6596C222.173 52.5596 226.763 51.0696 232.143 51.0696V51.0696Z" fill="#A1D1CF"/>
<path d="M219.503 56.5795C219.503 56.6895 219.523 56.7895 219.543 56.8995V56.2695C219.533 56.3695 219.503 56.4795 219.503 56.5895V56.5795Z" fill="#B2D6CF"/>
<path d="M219.543 37.2798V56.8998C219.913 59.8098 225.343 62.1298 232.023 62.1498V43.0398L219.543 37.2798Z" fill="#DBD7D1"/>
<path d="M232.023 43.0396V62.1496C232.023 62.1496 232.093 62.1496 232.123 62.1496C239.093 62.1496 244.743 59.6596 244.743 56.5796V36.3296L232.023 43.0396V43.0396Z" fill="#EAE6E1"/>
<path d="M215.403 85.5098L224.333 100.3L226.293 100.85L223.223 86.7298L215.403 85.5098Z" fill="#8DB7B1"/>
<path d="M199.653 67.0498C199.653 67.0498 229.033 81.5998 264.353 67.0498C264.353 67.0498 233.073 85.5098 199.653 67.0498Z" fill="white"/>
<path opacity="0.2" d="M205.103 75.8496C205.103 75.8496 229.543 86.7696 258.913 75.8496C258.913 75.8496 232.903 89.6996 205.103 75.8496Z" fill="white"/>
<path d="M226.293 100.85V96.72L225.503 86.94L223.223 86.73L226.293 100.85Z" fill="#7FADA8"/>
<path d="M232.043 27.7998V38.5698L222.313 33.4898L232.043 27.7998Z" fill="#B2B1AF"/>
</svg>
