<svg width="271" height="185" viewBox="0 0 271 185" fill="none" xmlns="http://www.w3.org/2000/svg">
<path d="M63.5328 41.21L20.4828 66.17L167.233 151.19L210.743 126.09L63.5328 41.21Z" fill="#888888"/>
<path d="M20.8328 66.3398V72.6199L163.013 154.72L167.233 151.19L20.8328 66.3398Z" fill="#7C7C7C"/>
<path d="M63.8628 41.3999L20.8228 66.3499L167.573 151.38L211.073 126.28L63.8628 41.3999Z" fill="#7CA8C3"/>
<path d="M20.8228 66.3497L167.573 151.38L169.163 150.46L21.9528 65.6997L20.8228 66.3497Z" fill="white"/>
<path d="M62.7328 42.0499L209.483 127.19L211.073 126.28L63.8628 41.3999L62.7328 42.0499Z" fill="white"/>
<path d="M20.8228 66.3499L63.8728 41.3999L65.0028 42.0599L21.9928 67.0299L20.8228 66.3499Z" fill="white"/>
<path d="M40.6428 77.8399L83.6928 52.8799L84.8228 53.5399L41.8128 78.5099L40.6428 77.8399Z" fill="white"/>
<path d="M61.0428 89.6599L104.193 64.6499L105.323 65.2999L62.2128 90.3399L61.0428 89.6599Z" fill="white"/>
<path d="M81.4428 101.48L124.643 76.4399L125.783 77.0999L82.6128 102.16L81.4428 101.48Z" fill="white"/>
<path d="M101.843 113.3L145.093 88.23L146.233 88.89L103.013 113.98L101.843 113.3Z" fill="white"/>
<path d="M122.253 125.12L165.543 100.02L166.683 100.68L123.423 125.8L122.253 125.12Z" fill="white"/>
<path d="M142.653 136.94L185.993 111.82L187.133 112.47L143.823 137.62L142.653 136.94Z" fill="white"/>
<path d="M166.403 150.7L209.833 125.56L211.073 126.28L167.573 151.38L166.403 150.7Z" fill="white"/>
<path d="M41.9828 56.86L55.7828 65.2599L66.6128 59.55L52.5028 50.98L41.9828 56.86Z" fill="#699DB7"/>
<path d="M41.9828 56.8599V58.5499L55.8328 66.9698V65.2598L41.9828 56.8599Z" fill="#508899"/>
<path d="M66.6128 59.5498V61.1098L55.8328 66.9698V65.2598L66.6128 59.5498Z" fill="#437C89"/>
<path d="M61.7828 68.36L75.5828 76.77L86.4128 71.05L72.3128 62.48L61.7828 68.36Z" fill="#699DB7"/>
<path d="M61.7828 68.3599V70.0499L75.6428 78.4698V76.7698L61.7828 68.3599Z" fill="#508899"/>
<path d="M86.4128 71.0498V72.6098L75.6428 78.4698V76.7698L86.4128 71.0498Z" fill="#437C89"/>
<path d="M82.1828 80.1798L95.9728 88.5898L106.803 82.8698L92.7028 74.2998L82.1828 80.1798Z" fill="#699DB7"/>
<path d="M82.1828 80.1797V81.8697L96.0328 90.2897V88.5897L82.1828 80.1797Z" fill="#508899"/>
<path d="M106.803 82.8696V84.4296L96.0328 90.2896V88.5896L106.803 82.8696Z" fill="#437C89"/>
<path d="M102.563 92.0099L116.363 100.41L127.193 94.6999L113.083 86.1299L102.563 92.0099Z" fill="#699DB7"/>
<path d="M102.563 92.0098V93.6998L116.413 102.12V100.41L102.563 92.0098Z" fill="#508899"/>
<path d="M127.193 94.6997V96.2597L116.413 102.12V100.41L127.193 94.6997Z" fill="#437C89"/>
<path d="M122.953 103.84L136.743 112.24L147.573 106.53L133.473 97.96L122.953 103.84Z" fill="#699DB7"/>
<path d="M122.953 103.84V105.53L136.803 113.95V112.24L122.953 103.84Z" fill="#508899"/>
<path d="M147.573 106.53V108.09L136.803 113.95V112.24L147.573 106.53Z" fill="#437C89"/>
<path d="M143.343 115.66L157.143 124.07L167.973 118.36L153.863 109.79L143.343 115.66Z" fill="#699DB7"/>
<path d="M143.343 115.66V117.36L157.193 125.78V124.07L143.343 115.66Z" fill="#508899"/>
<path d="M167.973 118.36V119.92L157.193 125.78V124.07L167.973 118.36Z" fill="#437C89"/>
<path d="M164.753 128.48L178.553 136.89L189.383 131.18L175.283 122.61L164.753 128.48Z" fill="#699DB7"/>
<path d="M164.753 128.48V130.18L178.613 138.6V136.89L164.753 128.48Z" fill="#508899"/>
<path d="M189.383 131.18V132.74L178.613 138.6V136.89L189.383 131.18Z" fill="#437C89"/>
</svg>
