<svg width="133" height="129" viewBox="0 0 133 129" fill="none" xmlns="http://www.w3.org/2000/svg">
<path d="M9.86456 92.13V98.37L12.6346 99.95L12.6146 93.79L9.86456 92.13Z" fill="#55ACC1"/>
<path d="M12.6346 99.95L19.1146 96.14L19.1446 90.17L12.6146 93.79L12.6346 99.95Z" fill="#4199AE"/>
<path d="M24.7546 101.34V107.58L27.5245 109.15L27.5046 103L24.7546 101.34Z" fill="#55ACC1"/>
<path d="M27.5245 109.15L33.9946 105.35L34.0245 99.38L27.5046 103L27.5245 109.15Z" fill="#4199AE"/>
<path d="M38.3046 109.23V115.47L41.0846 117.04L41.0546 110.88L38.3046 109.23Z" fill="#55ACC1"/>
<path d="M41.0846 117.04L47.5546 113.24L47.5846 107.27L41.0546 110.88L41.0846 117.04Z" fill="#4199AE"/>
<path d="M51.8546 116.93V123.17L54.6346 124.75L54.6146 118.59L51.8546 116.93Z" fill="#55ACC1"/>
<path d="M54.6346 124.75L61.1046 120.94L61.1346 114.97L54.6146 118.59L54.6346 124.75Z" fill="#4199AE"/>
<path d="M65.4146 124.87V128.2L68.1646 126.69V126.53L65.4146 124.87Z" fill="#55ACC1"/>
<path d="M68.1646 126.69L74.7146 122.91H74.6846L68.1646 126.53V126.69Z" fill="#DB5E2C"/>
<path d="M74.4546 122.97L12.9546 91.97C12.8646 59.07 38.8246 22.5 67.4546 5.96997L124.955 40.47C96.3246 57 74.3646 90.07 74.4546 122.97Z" fill="#AAAAAA"/>
<path d="M74.4546 122.97L12.9546 91.97C12.8646 59.07 38.8246 22.5 67.4546 5.96997L124.955 40.47C96.3246 57 74.3646 90.07 74.4546 122.97Z" fill="#6DC6DC"/>
<path d="M50.0046 55.76C50.0046 55.76 44.3446 62.38 42.1346 69.92" stroke="white" stroke-linecap="round" stroke-linejoin="round"/>
<path d="M48.8945 63.83C48.8945 63.83 43.6445 70.79 41.9045 78.44" stroke="white" stroke-linecap="round" stroke-linejoin="round"/>
<path d="M56.9546 77.92C56.9546 77.92 52.8246 85.59 52.2646 93.42" stroke="white" stroke-linecap="round" stroke-linejoin="round"/>
<path d="M76.8945 74.78C76.8945 74.78 71.9946 81.98 70.6246 89.72" stroke="white" stroke-linecap="round" stroke-linejoin="round"/>
<path d="M28.4846 58.99C28.4846 58.99 24.3546 66.66 23.7946 74.49" stroke="white" stroke-linecap="round" stroke-linejoin="round"/>
<path d="M34.6445 54.4399C34.6445 54.4399 29.7646 61.66 28.4146 69.39" stroke="white" stroke-linecap="round" stroke-linejoin="round"/>
<path d="M114.215 59.9899C114.215 59.9899 114.145 59.9899 114.115 59.9599L103.595 53.92C103.535 53.88 103.495 53.82 103.495 53.75L103.525 50.3699C103.525 50.2999 103.565 50.24 103.625 50.2C103.685 50.16 103.765 50.17 103.825 50.2L114.345 56.2399C114.405 56.2799 114.445 56.34 114.445 56.41L114.415 59.79C114.415 59.86 114.375 59.9199 114.315 59.9599C114.285 59.9799 114.255 59.9899 114.215 59.9899V59.9899ZM103.895 53.64L114.025 59.4599L114.055 56.53L103.925 50.7099L103.895 53.64Z" fill="black"/>
<path d="M114.245 56.42L132.885 45.56L132.855 48.94L114.215 59.79L114.245 56.42Z" fill="#C8C8CC"/>
<path d="M122.365 39.52L103.725 50.37L114.245 56.41L132.885 45.56L122.365 39.52Z" fill="#DDDDDD"/>
<path d="M53.0446 24.57C53.0446 24.57 52.9746 24.57 52.9446 24.54L42.4246 18.5C42.3646 18.46 42.3246 18.3999 42.3246 18.3299L42.3546 14.95C42.3546 14.88 42.3946 14.82 42.4546 14.78C42.5146 14.74 42.5945 14.75 42.6545 14.78L53.1746 20.82C53.2346 20.86 53.2745 20.9199 53.2745 20.9899L53.2446 24.3699C53.2446 24.4399 53.2045 24.5 53.1445 24.54C53.1145 24.56 53.0846 24.57 53.0446 24.57V24.57ZM42.7246 18.22L52.8546 24.04L52.8846 21.11L42.7546 15.29L42.7246 18.22Z" fill="black"/>
<path d="M53.0746 20.99L71.7146 10.14L71.6846 13.52L53.0446 24.37L53.0746 20.99Z" fill="#C8C8CC"/>
<path d="M61.1946 4.09998L42.5546 14.95L53.0746 20.99L71.7146 10.14L61.1946 4.09998Z" fill="#DDDDDD"/>
<path d="M106.315 49.66L106.275 70.19L29.4346 25.68L29.4746 5.14999L106.315 49.66Z" fill="#DDDDDD"/>
<path d="M93.5646 51.22L93.5345 62.84L41.5345 32.72L41.3746 20.99L93.5646 51.22Z" fill="#323231"/>
<path d="M106.315 49.66L115.145 44.5L115.105 59.34L106.275 70.19L106.315 49.66Z" fill="#C8C8CC"/>
<path d="M38.3046 0L29.4746 5.14999L106.315 49.66L115.145 44.5L38.3046 0Z" fill="#EDEDED"/>
<path d="M74.6845 122.91L68.1645 126.53C68.0945 102.59 78.9945 78.5 96.1645 61.19L97.4345 65.06C83.5545 80.91 74.6345 101.66 74.6945 122.91H74.6845Z" fill="#C8C8CC"/>
<path d="M68.1646 126.53L65.4146 124.87C65.3446 101.07 78.1346 76.37 96.1646 58.72L92.7746 65.44C77.8246 82.55 68.1046 104.87 68.1646 126.53V126.53Z" fill="#DDDDDD"/>
<path d="M89.4045 52.37L89.3945 69.75L87.2845 68.54L87.2946 51.17L89.4045 52.37Z" fill="#DDDDDD"/>
<path d="M89.4045 52.37L97.4446 47.69L97.4346 65.06L89.3945 69.75L89.4045 52.37Z" fill="#C8C8CC"/>
<path d="M95.3346 46.48L87.2946 51.17L89.4045 52.37L97.4446 47.69L95.3346 46.48Z" fill="#EDEDED"/>
<path d="M61.1346 115.08L54.6146 118.7C54.5446 94.76 65.4446 70.67 82.6146 53.36L83.8846 57.23C70.0046 73.08 61.0845 93.83 61.1445 115.08H61.1346Z" fill="#C8C8CC"/>
<path d="M54.6147 118.7L51.8647 117.04C51.7947 93.24 64.5847 68.54 82.6147 50.89L79.2247 57.61C64.2747 74.72 54.5547 97.04 54.6147 118.7Z" fill="#DDDDDD"/>
<path d="M75.8546 44.55L75.8346 61.92L73.7346 60.71L73.7446 43.34L75.8546 44.55Z" fill="#DDDDDD"/>
<path d="M75.8546 44.55L83.8945 39.86L83.8846 57.24L75.8346 61.92L75.8546 44.55Z" fill="#C8C8CC"/>
<path d="M81.7845 38.66L73.7446 43.34L75.8546 44.55L83.8945 39.86L81.7845 38.66Z" fill="#EDEDED"/>
<path d="M47.5846 107.26L41.0645 110.89C40.9945 86.95 51.8945 62.85 69.0645 45.54L70.3346 49.41C56.4546 65.26 47.5346 86.01 47.5946 107.26H47.5846Z" fill="#C8C8CC"/>
<path d="M41.0546 110.88L38.3046 109.21C38.2346 85.41 51.0246 60.71 69.0546 43.06L65.6646 49.78C50.7146 66.89 40.9946 89.22 41.0546 110.88V110.88Z" fill="#DDDDDD"/>
<path d="M62.2946 36.72L62.2845 54.09L60.1746 52.89L60.1846 35.51L62.2946 36.72Z" fill="#DDDDDD"/>
<path d="M62.2946 36.72L70.3346 32.04L70.3246 49.41L62.2845 54.09L62.2946 36.72Z" fill="#C8C8CC"/>
<path d="M68.2346 30.83L60.1846 35.51L62.2946 36.72L70.3346 32.04L68.2346 30.83Z" fill="#EDEDED"/>
<path d="M34.0245 99.43L27.5046 103.08C27.4346 79.14 38.3346 55.02 55.5046 37.71L56.7745 41.58C42.8945 57.43 33.9745 78.18 34.0345 99.43H34.0245Z" fill="#C8C8CC"/>
<path d="M27.5046 103.05L24.7546 101.39C24.6846 77.59 37.4746 52.89 55.5046 35.24L52.1146 41.96C37.1646 59.07 27.4446 81.39 27.5046 103.05V103.05Z" fill="#DDDDDD"/>
<path d="M48.7446 28.9L48.7346 46.27L46.6246 45.06L46.6346 27.69L48.7446 28.9Z" fill="#DDDDDD"/>
<path d="M48.7446 28.9L56.7845 24.21L56.7745 41.58L48.7346 46.27L48.7446 28.9Z" fill="#C8C8CC"/>
<path d="M54.6746 23L46.6346 27.69L48.7446 28.9L56.7845 24.21L54.6746 23Z" fill="#EDEDED"/>
<path d="M19.1446 90.17L12.6246 93.83C12.5546 69.89 23.4547 45.76 40.6247 28.45L41.8946 32.32C28.0146 48.17 19.0946 68.92 19.1546 90.17H19.1446Z" fill="#C8C8CC"/>
<path d="M12.6145 93.79L9.86454 92.13C9.79454 68.33 22.5846 43.63 40.6146 25.98L37.2246 32.7C22.2746 49.81 12.5545 72.13 12.6145 93.79V93.79Z" fill="#DDDDDD"/>
<path d="M33.8546 19.64L33.8446 37.01L31.7346 35.8L31.7446 18.43L33.8546 19.64Z" fill="#DDDDDD"/>
<path d="M33.8546 19.64L41.8945 14.95L41.8846 32.32L33.8446 37.01L33.8546 19.64Z" fill="#C8C8CC"/>
<path d="M39.7845 13.75L31.7446 18.43L33.8546 19.64L41.8945 14.95L39.7845 13.75Z" fill="#EDEDED"/>
<path d="M41.3746 127.68C42.5841 127.68 43.5646 126.699 43.5646 125.49C43.5646 124.28 42.5841 123.3 41.3746 123.3C40.1651 123.3 39.1846 124.28 39.1846 125.49C39.1846 126.699 40.1651 127.68 41.3746 127.68Z" fill="white"/>
<path d="M37.8746 101.57C39.0841 101.57 40.0646 100.589 40.0646 99.3799C40.0646 98.1704 39.0841 97.1899 37.8746 97.1899C36.6651 97.1899 35.6846 98.1704 35.6846 99.3799C35.6846 100.589 36.6651 101.57 37.8746 101.57Z" fill="white"/>
<path d="M18.1346 112.69C18.5985 112.69 18.9746 112.314 18.9746 111.85C18.9746 111.386 18.5985 111.01 18.1346 111.01C17.6707 111.01 17.2946 111.386 17.2946 111.85C17.2946 112.314 17.6707 112.69 18.1346 112.69Z" fill="white"/>
<path d="M71.7446 122.72C72.6146 120.58 71.7646 118.08 69.6846 116.94C68.3446 116.2 66.7946 116.21 65.5046 116.8C65.1446 116.3 64.6646 115.86 64.0846 115.54C62.7246 114.79 61.1445 114.86 59.8945 115.57C59.4345 114.75 58.7446 114.04 57.8646 113.56C56.8546 113 55.7345 112.82 54.6745 112.96C54.4745 111.42 53.5746 110 52.1046 109.2C50.8846 108.53 49.5046 108.42 48.2646 108.78C47.8446 107.94 47.1645 107.21 46.2745 106.72C44.8045 105.91 43.1046 105.95 41.7146 106.67C41.4746 105.19 40.5845 103.84 39.1745 103.06C38.2245 102.54 37.1745 102.36 36.1745 102.47C35.8045 101.9 35.2845 101.4 34.6445 101.05C34.2545 100.84 33.8546 100.69 33.4446 100.61C33.0846 99.68 32.4046 98.86 31.4546 98.34C30.4046 97.76 29.2146 97.66 28.1346 97.96C27.6646 96.95 26.8746 96.07 25.8246 95.49C25.4146 95.27 24.9846 95.1 24.5546 94.99C24.1746 93.62 23.2646 92.4 21.9246 91.67C20.3646 90.81 18.5646 90.8 17.0546 91.48C16.7246 91.09 16.3246 90.75 15.8546 90.49C14.8446 89.94 13.7146 89.84 12.6846 90.13C12.5646 88.37 11.5846 86.7 9.92455 85.79C7.53455 84.48 4.59459 85.18 3.02459 87.32C1.96459 87.37 0.944583 87.95 0.394583 88.95C-0.195417 90.01 -0.0954028 91.27 0.534597 92.21C0.484597 92.28 0.444592 92.35 0.404592 92.43C-0.465408 94.01 0.11457 95.99 1.69457 96.86C2.57457 97.34 3.57456 97.38 4.43456 97.04C4.86456 97.66 5.43458 98.19 6.14458 98.58C6.90458 99 7.73456 99.2 8.55456 99.2C8.51456 100.87 9.37457 102.51 10.9446 103.37C12.2846 104.1 13.8146 104.1 15.1046 103.51C15.5346 104.78 16.4246 105.9 17.6846 106.59C18.5746 107.08 19.5346 107.29 20.4846 107.27C20.8246 108.72 21.7546 110.02 23.1646 110.8C24.6146 111.6 26.2646 111.66 27.6946 111.13C28.0946 111.65 28.6046 112.11 29.2146 112.45C30.2046 112.99 31.2946 113.15 32.3246 112.98C32.7546 113.81 33.4145 114.52 34.2945 115C35.5545 115.69 36.9946 115.76 38.2546 115.31C38.4246 116.82 39.2946 118.23 40.7246 119.01C42.1746 119.81 43.8446 119.78 45.2246 119.09C45.0246 121.09 45.9946 123.1 47.8646 124.13C49.2046 124.87 50.7346 124.94 52.0746 124.46C52.3646 125.98 53.3046 127.36 54.7546 128.16C56.8346 129.3 59.3446 128.92 60.9946 127.38C61.3346 127.8 61.7645 128.17 62.2745 128.45C64.3645 129.6 66.9846 128.84 68.1246 126.75C68.1446 126.72 68.1546 126.69 68.1746 126.66C69.4946 127.39 71.1546 126.91 71.8846 125.58C72.3946 124.64 72.3046 123.54 71.7446 122.72V122.72Z" fill="white"/>
<path d="M6.20459 109.23C7.41409 109.23 8.39459 108.249 8.39459 107.04C8.39459 105.83 7.41409 104.85 6.20459 104.85C4.99509 104.85 4.01459 105.83 4.01459 107.04C4.01459 108.249 4.99509 109.23 6.20459 109.23Z" fill="white"/>
<path d="M3.0946 102.64C3.51434 102.64 3.85461 102.3 3.85461 101.88C3.85461 101.46 3.51434 101.12 3.0946 101.12C2.67487 101.12 2.33459 101.46 2.33459 101.88C2.33459 102.3 2.67487 102.64 3.0946 102.64Z" fill="white"/>
<path d="M62.4846 113.98C62.9485 113.98 63.3246 113.604 63.3246 113.14C63.3246 112.676 62.9485 112.3 62.4846 112.3C62.0207 112.3 61.6445 112.676 61.6445 113.14C61.6445 113.604 62.0207 113.98 62.4846 113.98Z" fill="white"/>
</svg>
