<svg width="105" height="61" viewBox="0 0 105 61" fill="none" xmlns="http://www.w3.org/2000/svg">
<path d="M89.2792 54.0045C91.1625 54.0045 92.6892 53.3508 92.6892 52.5445C92.6892 51.7382 91.1625 51.0845 89.2792 51.0845C87.3959 51.0845 85.8693 51.7382 85.8693 52.5445C85.8693 53.3508 87.3959 54.0045 89.2792 54.0045Z" fill="#64AE47"/>
<path d="M88.4392 48.3144V48.3344V48.3544V48.3744V48.3944V48.4144H88.4492V48.4344H88.4592V48.4544L88.4792 48.4744L88.4993 48.5044L88.5192 48.5344V48.5544H88.5392V48.5744H88.5692V48.5944H88.5992L88.6193 48.6144H88.6392C88.6392 48.6144 88.6792 48.6444 88.6992 48.6544H88.7192C88.7192 48.6544 88.7592 48.6744 88.7692 48.6844C88.7692 48.6844 88.8092 48.7044 88.8292 48.7044H88.8693L88.8992 48.7244C88.8992 48.7244 88.9292 48.7244 88.9492 48.7244H88.9993C88.9993 48.7244 89.0392 48.7344 89.0592 48.7444H89.1093C89.1093 48.7444 89.1492 48.7444 89.1692 48.7444H89.2092C89.2092 48.7444 89.2393 48.7444 89.2593 48.7444H89.4192L89.4592 48.7244H89.5392C89.5392 48.7244 89.5692 48.7044 89.5892 48.6944H89.6392C89.6392 48.6944 89.6692 48.6644 89.6892 48.6644H89.6992C89.6992 48.6644 89.7293 48.6444 89.7393 48.6444H89.7593C89.7593 48.6444 89.7992 48.6144 89.8192 48.6044C89.9392 48.5344 90.0192 48.4444 90.0492 48.3544C90.0492 48.3344 90.0492 48.3244 90.0592 48.3044V48.2844V48.2644V52.0344C90.0592 52.1544 89.9892 52.2844 89.8192 52.3744C89.7992 52.3844 89.7793 52.3944 89.7593 52.4044H89.7393L89.6992 52.4344H89.6792C89.6792 52.4344 89.6493 52.4544 89.6293 52.4644H89.5792C89.5792 52.4644 89.5492 52.4844 89.5292 52.4944H89.4492L89.4292 52.5144H89.2692C89.2692 52.5144 89.2593 52.5244 89.2493 52.5244C89.2293 52.5244 89.2192 52.5244 89.1992 52.5244H89.1792H89.1692C89.1692 52.5244 89.1293 52.5244 89.1093 52.5244H89.0592C89.0592 52.5244 89.0193 52.5244 88.9993 52.5144H88.9492L88.8992 52.4944H88.8693L88.8292 52.4744C88.8292 52.4744 88.7992 52.4644 88.7792 52.4544C88.7792 52.4544 88.7392 52.4344 88.7292 52.4244H88.7092C88.7092 52.4244 88.6692 52.3944 88.6492 52.3844H88.6293L88.6093 52.3644H88.5992V52.3444H88.5692V52.3244H88.5492V52.3044H88.5292L88.5093 52.2744L88.4893 52.2444V52.2244H88.4692V52.2044H88.4592V52.1844H88.4492V52.1644V52.1444V52.1244V52.1044V52.0844V48.3044L88.4392 48.3144Z" fill="#766052"/>
<path d="M88.6892 47.9544C88.3592 48.1444 88.3592 48.4544 88.6892 48.6344C89.0192 48.8244 89.5392 48.8244 89.8692 48.6344C90.1992 48.4444 90.1992 48.1344 89.8692 47.9544C89.5392 47.7744 89.0192 47.7644 88.6892 47.9544Z" fill="white" stroke="black" stroke-width="0.5" stroke-linecap="round" stroke-linejoin="round"/>
<path d="M89.2792 49.2345C85.2292 49.2345 83.2392 47.3145 85.4692 41.2545C87.6992 35.1945 89.2792 35.8945 89.2792 35.8945C89.2792 35.8945 90.8592 35.1945 93.0892 41.2545C95.3192 47.3145 93.3292 49.2345 89.2792 49.2345Z" fill="#548945"/>
<path d="M85.4692 41.2645C86.4092 38.7045 87.2392 37.3545 87.8792 36.6445C87.4292 37.9745 87.1492 39.3745 86.9592 40.7745C86.7292 42.5345 86.6492 44.3545 87.0592 46.0845C87.3292 47.2245 87.8392 48.3245 88.5792 49.2245C85.0092 49.0045 83.3692 46.9645 85.4692 41.2645Z" fill="#41782D"/>
<path d="M100.889 54.6747C102.242 54.6747 103.339 54.2046 103.339 53.6247C103.339 53.0448 102.242 52.5747 100.889 52.5747C99.5361 52.5747 98.4392 53.0448 98.4392 53.6247C98.4392 54.2046 99.5361 54.6747 100.889 54.6747Z" fill="#64AE47"/>
<path d="M100.289 50.5847V50.6047V50.6247V50.6447V50.6647V50.6847V50.7047H100.299V50.7247H100.309V50.7447L100.329 50.7647V50.7847H100.359V50.8047H100.389V50.8247H100.419V50.8447C100.419 50.8447 100.459 50.8547 100.469 50.8647H100.479L100.519 50.8847C100.519 50.8847 100.549 50.8947 100.559 50.9047H100.589L100.609 50.9247H100.679L100.719 50.9447H100.819C100.819 50.9447 100.839 50.9447 100.849 50.9447H100.989L101.019 50.9247H101.079L101.099 50.9047H101.109L101.149 50.8847H101.159L101.189 50.8647H101.209C101.209 50.8647 101.239 50.8447 101.249 50.8347C101.339 50.7847 101.389 50.7247 101.419 50.6547C101.419 50.6447 101.419 50.6347 101.419 50.6247V50.6047C101.419 50.6047 101.419 50.5947 101.419 50.5847V53.2947C101.419 53.3847 101.369 53.4747 101.249 53.5447C101.239 53.5447 101.219 53.5647 101.209 53.5647H101.189L101.159 53.5847H101.139L101.099 53.6047H101.059L101.019 53.6247H100.939L100.909 53.6447H100.839C100.839 53.6447 100.839 53.6447 100.829 53.6447C100.819 53.6447 100.809 53.6447 100.799 53.6447C100.799 53.6447 100.789 53.6447 100.779 53.6447H100.639V53.6247H100.579L100.559 53.6047H100.519L100.479 53.5847L100.439 53.5647H100.429C100.429 53.5647 100.399 53.5447 100.389 53.5347H100.379V53.5147H100.349V53.4947H100.319V53.4747H100.299V53.4547H100.279L100.259 53.4347V53.4147H100.249V53.3947H100.239V53.3747V53.3547V53.3347V53.3147V53.2947V53.2747V50.5547L100.289 50.5847Z" fill="#766052"/>
<path d="M100.459 50.3247C100.219 50.4647 100.219 50.6847 100.459 50.8147C100.689 50.9547 101.069 50.9547 101.309 50.8147C101.549 50.6747 101.549 50.4547 101.309 50.3247C101.069 50.1947 100.699 50.1847 100.459 50.3247Z" fill="white" stroke="black" stroke-width="0.5" stroke-linecap="round" stroke-linejoin="round"/>
<path d="M100.889 51.2446C97.9792 51.2446 96.5392 49.8646 98.1492 45.5046C99.7592 41.1446 100.889 41.6546 100.889 41.6546C100.889 41.6546 102.019 41.1546 103.629 45.5046C105.239 49.8646 103.799 51.2446 100.889 51.2446Z" fill="#548945"/>
<path d="M98.1492 45.5046C98.8292 43.6646 99.4193 42.6946 99.8793 42.1846C99.5593 43.1446 99.3492 44.1446 99.2192 45.1546C99.0492 46.4246 98.9992 47.7246 99.2892 48.9746C99.4792 49.7946 99.8493 50.5846 100.379 51.2346C97.8093 51.0746 96.6291 49.6146 98.1391 45.5146L98.1492 45.5046Z" fill="#41782D"/>
</svg>
