<svg width="48" height="63" viewBox="0 0 48 63" fill="none" xmlns="http://www.w3.org/2000/svg">
<path d="M18.5998 48.0996C19.0601 48.0996 20.7384 48.0996 21.8084 49.3164C22.2842 49.8574 22.3837 50.2988 22.5 51C22.6282 51.7733 22.33 53 22.33 53L22.0884 54.5744C22.0884 54.5744 22.0684 55.4244 22.0484 55.6844C22.4884 55.8044 22.5984 56.2844 22.5984 56.8444C22.5984 57.3144 22.6584 57.9844 22.1184 58.1944C22.1184 58.7844 22.0184 59.3843 21.9184 59.9543C21.8984 60.0543 21.8684 60.1444 21.8084 60.2244C21.5784 60.5244 21.0984 60.7544 20.7384 60.8544C19.6784 61.1444 18.5784 61.2144 17.4884 61.0644C16.8984 60.9844 16.2384 60.9043 15.9184 60.3943C15.6384 59.9443 15.7784 59.4144 16.0784 58.9744C16.1784 58.8144 16.4484 58.5444 16.3784 58.0744C16.0784 57.9644 15.8884 57.6244 15.8284 56.8444C15.7584 55.9444 16.1484 55.6144 16.3084 55.6244C16.2484 54.9144 16.1784 54.3744 15.9884 53.8544C15.8284 53.4344 15.5884 52.9144 15.3584 52.5244C15.1384 52.1444 14.9298 52.0696 14.3498 50.4996C13.9998 48.4996 18.5998 48.0996 18.5998 48.0996Z" fill="#040000"/>
<path d="M18.5 48.4995C21 48.4995 21.8975 49.8788 22 51C22.13 52.4215 21.6864 53.5948 21.6864 54.2341C21.3179 54.177 20.9489 54.1071 20.5785 54.0241C20.5485 54.0241 20.5084 54.0141 20.4784 54.0241C20.3984 54.0741 20.4885 54.1941 20.5785 54.2341C20.9185 54.3941 21.2884 54.4741 21.6484 54.5541C21.6584 55.0341 21.6185 55.7441 21.5185 56.1041C20.8285 56.4441 19.9584 56.4941 19.1584 56.4841C18.3184 56.4841 17.0384 56.4141 16.6684 56.0441C16.6284 54.6741 16.3785 53.8441 15.8685 52.7741C15.5485 52.0941 15.0184 51.2141 14.7284 50.5141C14.3484 49.5941 16.8302 48.4995 18.5 48.4995Z" fill="white"/>
<path d="M22.0686 57.8145C22.2386 57.6545 22.2687 57.2145 22.2687 56.9445C22.2687 56.8445 22.2687 56.1545 22.0187 56.1045C22.0187 56.3945 21.5886 56.5645 20.9886 56.7045C19.8086 56.9845 18.7886 56.9245 17.5886 56.7345C17.1386 56.6645 16.4087 56.5545 16.2687 56.2045C16.1187 56.5445 16.1286 56.9645 16.1786 57.2145C16.2086 57.3645 16.3587 57.6345 16.4587 57.6945C16.8987 57.9545 17.2986 58.0945 17.5586 58.1545C18.5686 58.3845 19.4387 58.4045 20.5787 58.2345C21.0487 58.1645 21.8586 58.0045 22.0586 57.8145H22.0686Z" fill="#68391B"/>
<path d="M16.7485 58.2744C16.7485 58.2744 17.7285 58.7044 19.2185 58.7044C20.7085 58.7044 21.7686 58.3145 21.7686 58.3145C21.7686 58.3145 21.6785 59.8145 21.4785 60.0645C21.2785 60.3145 20.1085 60.7644 18.6385 60.7144C17.1585 60.6544 16.2385 60.4745 16.2385 59.8245C16.2385 59.3445 16.4885 59.0744 16.6185 58.9344C16.7885 58.7444 16.7585 58.2744 16.7585 58.2744H16.7485Z" fill="#68391B"/>
</svg>
