<svg width="48" height="63" viewBox="0 0 48 63" fill="none" xmlns="http://www.w3.org/2000/svg">
<path d="M12.7687 34.8146C12.4887 31.6846 12.6087 29.5845 13.1987 27.2945C13.7887 25.0045 14.6186 23.4245 16.1186 21.5845C15.8186 20.7345 15.9587 19.6745 16.5087 18.9645C17.0587 18.2545 18.0086 17.9245 18.8986 18.0145C19.7886 18.1045 20.3687 18.7045 20.6887 19.5145C22.1787 19.0645 25.9586 19.1646 27.4186 19.4446C27.7486 18.4646 28.6686 17.9945 29.7386 18.0245C30.3886 18.0445 31.0187 18.3145 31.4587 18.7945C32.2187 19.6245 32.1587 20.4545 31.9987 21.5945C33.3387 23.1545 34.4887 25.1445 34.9987 27.5345C35.6687 30.6945 35.5087 32.3346 35.3287 34.8146C35.3287 34.8146 35.643 34.8936 35.79 35.029C35.9261 35.1544 35.8897 35.328 36.03 35.5319C36.1752 35.7429 36.4417 35.9863 36.61 36.242C36.7775 36.4966 36.742 36.7407 36.9 37C37.1272 37.3728 37.3739 37.7172 37.5 38C37.5665 38.1492 37.5 38.5 37.5 38.5C37.3 39 35.2746 39.5 35.2746 39.5C35.2435 41.5888 35.1985 43.8341 35.1387 44.9845C35.0087 47.4845 34.4286 49.2345 33.9686 50.2245C33.7127 50.778 33.386 51.4164 33.0791 52.0239C33.2411 51.6757 32.8703 52.4373 33.0791 52.0239C32.7691 52.6739 31.1082 53.2423 30.5 53.5C27.7753 54.6545 26.2286 54.6545 26.2286 54.6545C24.7386 54.8145 23.5886 54.6846 22.0886 54.5746C22.0886 54.5746 20.5544 54.4515 18 53.6C16.5 53.1 15.3586 52.5245 15.3586 52.5245C15.3586 52.5245 14.5987 51.2245 14.0187 49.6545C13.4387 48.0845 13.0386 46.6245 13.0386 45.0245C12.65 42.0484 13.1987 39.53 13.1987 39.53C13.1987 39.53 11.5 39 10.8787 38.6545C10.7287 38.5645 10.7387 38.3945 10.7487 38.2845C10.8187 37.8345 11.0187 37.4045 11.3787 36.9845C11.4687 36.8845 11.5286 36.7845 11.5386 36.6445C11.5386 36.6045 11.5887 36.3445 11.6387 36.2345C11.7287 36.0545 11.9486 35.9146 12.0286 35.8246C12.1886 35.6346 12.1686 35.5145 12.2986 35.2145C12.3886 34.9845 12.4087 34.8245 12.7487 34.8345L12.7687 34.8146Z" fill="#040000"/>
<path d="M13.6 39.6001C13.6 39.6001 18.1786 40.7145 21.7886 40.2945C21.8586 40.5245 21.9986 40.7545 22.1286 40.9045C21.7486 41.5345 21.6886 42.3845 21.7986 43.2045C21.9186 44.0245 22.0886 44.8645 22.6686 45.4745C23.1586 45.2845 23.4686 44.9945 23.7986 44.6045C23.9986 45.6845 24.6186 46.5545 25.7286 46.9445C26.5586 44.8545 26.7286 42.7345 25.8386 41.0645C26.0886 40.8545 26.2286 40.6145 26.3286 40.3045C27.5386 40.5645 29.6686 40.4645 30.6186 40.3545C31.4467 40.2567 34.88 39.5928 34.88 39.5928C35 41.5 34.7786 46.8845 34.1786 48.5145C33.5486 50.2445 33.14 51.5345 32.34 52.8145C32.34 52.8145 31.2341 53.4527 30.5 53.8C29.2487 54.3919 27 54.56 27 54.56C27.57 54.49 28.1486 54.2845 28.1286 54.1545C28.1086 54.0245 27.6986 54.1545 27.2986 54.2145C24.9886 54.5445 22.8086 54.5245 20.5786 54.0245C20.5486 54.0245 20.5086 54.0145 20.4786 54.0245C20.3986 54.0745 20.4886 54.1945 20.5786 54.2345C20.9186 54.3945 21 54.41 21 54.41C21 54.41 19.2716 54.0524 18.2 53.7C17.2694 53.394 15.8686 52.7745 15.8686 52.7745C15.5486 52.0945 15.0186 51.2145 14.7286 50.5145C14.3486 49.5945 13.9586 48.4945 13.7286 47.2045C13.5286 46.0545 13.3886 44.8545 13.3086 43.7745C13.1386 41.3645 13.6 39.6001 13.6 39.6001Z" fill="white"/>
<path d="M34.7186 28.2645C34.4786 26.9745 34.2686 26.2246 33.9086 25.3446C33.4986 24.3546 32.6786 22.6946 31.6386 21.6546C31.4186 21.4346 31.3586 21.3446 31.3686 21.2946C31.3686 21.2246 31.4386 21.1846 31.4586 21.1746C31.5486 21.1646 31.7086 21.2846 31.7786 21.3146C31.7986 20.4046 31.9486 19.3246 30.6986 18.6646C29.9486 18.2646 29.0986 18.4246 28.6486 18.7246C28.2986 18.9546 28.0486 19.3146 27.8886 19.6546C27.9886 19.7046 28.0386 19.7846 28.0586 19.8046C28.0886 19.8446 28.0786 19.9046 28.0586 19.9246C28.0386 19.9546 28.0086 19.9846 27.9386 19.9646C26.2686 19.5346 22.8486 19.4046 20.5386 19.9546C20.4686 19.9746 20.3986 19.9846 20.3186 19.9746C20.2486 19.9646 20.1786 19.9146 20.1586 19.8446C20.1486 19.7746 20.2286 19.6646 20.2986 19.6846C20.2186 19.4846 20.1286 19.2746 19.9986 19.1046C19.6386 18.6246 18.9886 18.4546 18.3986 18.4646C18.0986 18.4646 17.2886 18.8046 16.9186 19.2546C16.3186 20.0046 16.4286 20.8346 16.4986 21.3246C16.5886 21.2146 16.6586 21.1746 16.7286 21.1646C16.7986 21.1546 16.8686 21.2146 16.8686 21.3046C16.8686 21.3646 16.7186 21.5046 16.6686 21.5746C15.8686 22.5746 15.4986 22.7846 14.9786 23.7246C14.4986 24.5946 14.1986 25.4046 14.0786 25.7346C13.2286 28.0846 12.6386 31.7046 13.1886 34.9146C16.0786 36.2546 18.5486 37.0346 22.0286 38.0846C22.3586 37.6046 22.8686 37.2346 23.4386 37.1046C24.0086 36.9746 24.5286 37.0146 25.0886 37.1746C25.5686 37.3146 25.9586 37.6246 26.2586 38.0946C28.0586 37.5246 29.9386 36.9546 31.7186 36.3446C32.4886 36.0846 33.5286 35.6246 34.8886 34.9146C35.0886 32.5946 35.0686 30.1946 34.7086 28.2746L34.7186 28.2645Z" fill="white"/>
<path d="M31.7086 24.8628L31.7089 24.8623C31.0392 24.5068 29.9044 24.1584 28.5493 23.8987C27.1908 23.6383 25.5988 23.4647 24.0086 23.4647C22.4171 23.4647 20.8269 23.6586 19.4708 23.9378C18.1174 24.2166 16.9869 24.5825 16.319 24.9318L16.319 24.9318L16.3179 24.9324C15.3742 25.4365 14.7254 26.7008 14.839 28.1267C14.8951 28.83 15.0583 29.5407 15.3288 30.1229C15.5976 30.7018 15.9831 31.1757 16.4965 31.3654L16.497 31.3656C16.751 31.4585 17.1091 31.51 17.5092 31.5262C17.9122 31.5425 18.3686 31.5233 18.8251 31.4687C19.2814 31.4141 19.741 31.3238 20.1496 31.1964C20.5558 31.0698 20.9216 30.9035 21.1827 30.6915C21.3515 30.5564 21.4871 30.3695 21.6181 30.1855C21.6267 30.1733 21.6354 30.1612 21.644 30.149C21.7703 29.9712 21.8988 29.7903 22.0624 29.6217C22.4028 29.271 22.9044 28.9644 23.85 28.9547C24.9493 28.9451 25.5546 29.2701 25.9539 29.6332C26.1572 29.8182 26.3109 30.0164 26.4537 30.2014L26.4645 30.2154C26.5986 30.3892 26.7335 30.5639 26.891 30.6766C27.5691 31.1668 28.4817 31.432 29.3345 31.5337C30.1854 31.6351 31.0043 31.5769 31.5001 31.3956C32.0214 31.2051 32.3942 30.7205 32.6487 30.1345C32.9046 29.545 33.0522 28.8276 33.1081 28.1267C33.2201 26.7213 32.6583 25.3788 31.7086 24.8628Z" fill="#159F85" stroke="black" stroke-width="0.3"/>
<path d="M31.2985 25.3047C30.0585 24.7047 27.0485 24.0947 24.0385 24.0947C21.0285 24.0947 18.0285 24.7647 16.7885 25.3647C15.9485 25.7747 15.3586 26.8247 15.4586 28.0347C15.5586 29.2447 15.9685 30.5547 16.8485 30.8647C17.7285 31.1647 20.1985 30.9547 21.0085 30.1447C21.5585 29.5947 21.7986 28.5748 24.0186 28.5748C26.2386 28.5748 26.4585 29.5247 27.0585 30.1447C28.0885 31.2247 30.3985 31.1848 31.2785 30.8848C32.1585 30.5848 32.4685 29.2547 32.5685 28.0447C32.6685 26.8347 32.1385 25.7147 31.2985 25.3047Z" fill="#231815"/>
<path d="M31.1586 25.3943C29.9386 24.8243 26.9886 24.2544 24.0386 24.2544C21.0886 24.2544 18.1386 24.8843 16.9286 25.4543C16.0986 25.8343 15.5186 26.8344 15.6286 27.9644C15.7386 29.0944 16.1286 30.3344 16.9986 30.6244C17.8686 30.9044 20.1086 30.7043 20.9086 29.9543C21.4486 29.4343 21.8586 28.3644 24.0386 28.3644C26.2186 28.3644 26.5686 29.3643 27.1586 29.9543C28.1686 30.9643 30.2986 30.9243 31.1586 30.6443C32.0286 30.3643 32.3186 29.1144 32.4286 27.9744C32.5386 26.8344 32.0086 25.7843 31.1786 25.3943H31.1586Z" fill="#8DCEC4"/>
<path d="M23.9687 31.0944C24.5431 31.0944 25.0087 30.7899 25.0087 30.4144C25.0087 30.0388 24.5431 29.7344 23.9687 29.7344C23.3943 29.7344 22.9287 30.0388 22.9287 30.4144C22.9287 30.7899 23.3943 31.0944 23.9687 31.0944Z" fill="#231815"/>
<path d="M26.4487 31.9144C26.2987 31.8644 26.2187 32.5044 25.4287 32.8344C25.0987 32.9744 24.8787 33.0444 23.9687 33.0444C23.0587 33.0444 22.8487 32.9744 22.5087 32.8344C21.7187 32.5044 21.6387 31.8644 21.4887 31.9144C21.3187 31.9644 21.5787 32.6344 22.2587 33.0244C22.6887 33.2744 23.3687 33.3144 23.9587 33.3144C24.5487 33.3144 25.2287 33.2744 25.6587 33.0244C26.3387 32.6344 26.6087 31.9644 26.4287 31.9144H26.4487Z" fill="#040000"/>
<path d="M21.9686 24.3647C19.7886 24.5647 17.8486 25.0347 16.9186 25.4647C16.0886 25.8447 15.5086 26.8447 15.6186 27.9747C15.6786 28.6147 15.8286 29.2747 16.0986 29.7947C16.5186 28.7047 17.8986 26.0947 21.9686 24.3647Z" fill="white"/>
<path d="M17.6485 19.6445C17.8685 19.3945 18.2286 19.3245 18.5586 19.3445C18.6886 19.3445 18.8386 19.4145 18.9486 19.4745C19.0786 19.5545 19.2786 19.7246 19.3686 19.8846C19.4286 19.9946 19.4786 20.1245 19.4186 20.1645C19.3386 20.2145 19.3086 20.1445 18.4486 20.4545C17.5886 20.7645 17.5785 20.8645 17.4685 20.8345C17.3585 20.8045 17.3686 20.5546 17.3786 20.3246C17.3886 20.0646 17.4786 19.8545 17.6586 19.6445H17.6485Z" fill="#040000"/>
<path d="M28.6287 20.1547C28.6987 20.2447 29.0286 20.2347 29.6086 20.4647C30.1886 20.6947 30.4487 20.8547 30.6287 20.8347C30.8087 20.8147 30.8286 20.2247 30.6486 19.9047C30.4186 19.4947 29.8086 19.1747 29.1886 19.4347C28.5686 19.6947 28.5486 20.0647 28.6186 20.1547H28.6287Z" fill="#040000"/>
<path d="M17.7686 19.7545C17.9586 19.5445 18.2585 19.4745 18.5485 19.4945C18.6585 19.4945 18.7885 19.5545 18.8885 19.6145C18.9985 19.6845 19.1785 19.8344 19.2485 19.9644C19.2985 20.0544 19.3085 20.0544 19.2585 20.0844C19.1885 20.1344 19.1685 20.0644 18.4185 20.3344C17.6485 20.6144 17.6685 20.6845 17.5785 20.6645C17.4885 20.6445 17.5185 20.5344 17.5285 20.3344C17.5285 20.1044 17.6186 19.9345 17.7686 19.7545Z" fill="#E799BA"/>
<path d="M30.3185 19.7545C30.1285 19.5445 29.8285 19.4745 29.5385 19.4945C29.4285 19.4945 29.2985 19.5545 29.1985 19.6145C29.0885 19.6845 28.9085 19.8344 28.8385 19.9644C28.7885 20.0544 28.7785 20.0544 28.8285 20.0844C28.8985 20.1344 28.9185 20.0644 29.6685 20.3344C30.4185 20.6044 30.4185 20.6845 30.5085 20.6645C30.5985 20.6445 30.5685 20.5344 30.5585 20.3344C30.5585 20.1044 30.4685 19.9345 30.3185 19.7545Z" fill="#E799BA"/>
<path d="M26.4201 38.3644C26.4201 38.3644 26.7001 39.1344 26.3901 40.0944C26.3901 40.0944 28.6501 40.4644 31.6701 39.9144C34.6901 39.3644 36.4501 38.7444 36.9301 38.4744C37.4101 38.2044 36.6801 37.4144 36.5601 37.2344C36.4401 37.0544 36.3701 36.9944 36.3201 36.6944C36.2701 36.3944 36.2101 36.2444 35.9601 36.0444C35.7101 35.8444 35.6301 35.5044 35.5601 35.3444C35.5001 35.2144 35.3701 35.0744 35.1001 35.1344C34.9601 35.1644 34.7601 35.2944 34.4701 35.4644C33.6301 35.9344 32.0401 36.5844 30.8301 37.0244C29.6201 37.4644 27.4301 38.0444 26.4201 38.3744V38.3644Z" fill="#DF600E"/>
<path d="M22.34 40.7445C22.89 41.4045 23.82 41.6545 24.36 41.5945C25.02 41.5245 25.5 41.1145 25.92 40.5545C26.38 39.9445 26.37 38.7145 25.87 38.0945C25.37 37.4745 24.85 37.2545 23.93 37.3245C23.01 37.3945 22.39 37.8645 22.09 38.4845C21.79 39.1045 21.92 40.2545 22.34 40.7545V40.7445Z" fill="#159F85"/>
<path d="M24.75 41.7944C24.3 41.8344 23.92 41.8345 23.54 41.7545C23.47 42.0545 23.42 42.3644 23.38 42.6644C23.38 42.6944 23.38 42.7344 23.35 42.7644C23.32 42.7944 23.29 42.8044 23.26 42.7944C23.24 42.7844 23.23 42.7644 23.22 42.7344C23.19 42.6444 23.19 42.5345 23.2 42.4445C23.21 42.1945 23.25 41.9445 23.3 41.6945C22.91 41.5845 22.62 41.4045 22.27 41.0645C21.69 42.4445 22.01 43.9444 22.72 45.1544C22.95 45.1544 24.82 43.8844 24.75 41.7944Z" fill="#DF600E"/>
<path d="M25.6 46.6046C25.13 46.4946 24.79 46.0546 24.53 45.7046C24.27 45.3546 24.09 44.8346 23.99 44.4146C24.81 43.5446 24.94 42.7146 25.02 41.7146C25.32 41.5046 25.51 41.4546 25.7 41.2446C26.09 41.9446 26.13 42.7646 26.15 43.1446C26.18 43.7546 26.19 44.4946 26.06 45.0346C25.92 45.6046 25.84 46.0446 25.59 46.5946L25.6 46.6046Z" fill="#DF600E"/>
<path d="M36.96 37.8147C35.88 38.2747 34.2 38.7947 32.46 39.1747C30.75 39.5547 28.73 39.7947 26.45 39.8447C26.45 39.8447 26.4299 39.9447 26.4099 39.9947C27.3699 40.0147 29.5599 40.0147 31.8799 39.6047C33.8699 39.2547 35.71 38.6447 37.08 38.1147C37.06 38.0147 37.02 37.9147 36.96 37.8047V37.8147Z" fill="white"/>
<path d="M32.46 39.1746C34.2 38.7946 35.88 38.2746 36.96 37.8146C36.87 37.6546 36.7499 37.5045 36.6699 37.3945C35.2299 38.0045 33.6799 38.4246 32.2299 38.7346C29.1299 39.3846 26.5099 39.4645 26.5099 39.4645C26.5099 39.5945 26.49 39.7246 26.46 39.8546C28.74 39.7946 30.7499 39.5546 32.4699 39.1846L32.46 39.1746Z" fill="#68391B"/>
<path d="M12.6899 35.1545C12.4599 35.1745 12.4699 35.5444 12.3599 35.7744C12.1899 36.1544 11.9999 36.1745 11.8799 36.3445C11.7799 36.4845 11.7899 36.6544 11.7199 36.8944C11.6599 37.0944 11.39 37.3444 11.27 37.5244C11.08 37.8144 10.96 38.0645 10.96 38.3545C10.96 38.5545 11.5499 38.6545 11.7599 38.7345C11.9899 38.8345 12.8399 39.0645 13.0599 39.1245C13.6799 39.2945 14.3099 39.5245 15.4299 39.7545C16.1299 39.9045 17.73 40.0645 18.45 40.1045C19.42 40.1545 20.36 40.1845 21.71 40.0045C21.58 39.2745 21.6599 38.8445 21.8499 38.2945C19.4599 37.7945 16.0699 36.4645 14.0899 35.5945C13.7699 35.4545 13.0699 35.1144 12.6899 35.1444V35.1545Z" fill="#DF600E"/>
<path d="M11.17 37.7146C12.25 38.1746 13.9601 38.7146 15.7001 39.0946C17.4101 39.4746 19.39 39.7146 21.67 39.7646C21.67 39.8246 21.6801 39.8546 21.6901 39.9146C20.7301 39.9346 18.5901 39.9346 16.2701 39.5146C14.2801 39.1646 12.39 38.5346 11.03 38.0146C11.06 37.9146 11.11 37.8046 11.17 37.7046V37.7146Z" fill="white"/>
<path d="M15.7 39.0944C13.96 38.7144 12.2499 38.1744 11.1699 37.7144C11.2599 37.5544 11.3099 37.4945 11.3999 37.3845L11.4799 37.2944C12.9199 37.9044 14.4899 38.3544 15.9399 38.6544C19.0399 39.3044 21.6499 39.3845 21.6499 39.3845C21.6499 39.5145 21.6499 39.6344 21.6799 39.7744C19.3999 39.7144 17.42 39.4744 15.71 39.1044L15.7 39.0944Z" fill="#68391B"/>
<path d="M23.2299 38.8244L22.7299 38.4844L22.6899 38.5143L23.1799 38.8544L23.2299 38.8244Z" fill="white"/>
<path d="M23.3701 38.7443L22.9301 38.3643L22.8801 38.3942L23.3001 38.7842L23.3701 38.7443Z" fill="white"/>
<path d="M23.5101 38.6544L23.11 38.2544L23.03 38.3044L23.4401 38.6944L23.5101 38.6544Z" fill="white"/>
<path d="M24.0602 38.3243L25.0002 38.8443L25.5402 38.5143L25.4202 38.4443L25.3401 38.5543L25.4001 38.4343L25.2802 38.3643L25.2002 38.4843L25.2602 38.3543L25.1402 38.2943L25.0702 38.4143L25.1102 38.2743L25.0002 38.2143L24.9402 38.3543L24.9702 38.1943L24.8802 38.1443L24.7902 38.3143V38.0943L24.7202 38.0543L24.6402 38.2843V38.0043L24.5602 37.9643L24.4802 38.2543L24.4602 37.9043L24.3202 37.8243L24.3401 38.2443L24.2402 37.7843L24.1202 37.7143L24.1802 38.2543L23.9802 37.6943L23.9001 37.7443L24.0302 38.2843L23.8102 37.7943L23.7002 37.8543L23.9302 38.3543L24.0402 38.2843L24.0602 38.3243Z" fill="white"/>
<path d="M23.6501 38.5746C23.6501 38.5746 23.4202 38.2945 23.2902 38.1445L23.2002 38.1946L23.5602 38.6146L23.6402 38.5646L23.6501 38.5746Z" fill="white"/>
<path d="M23.92 38.4146C23.92 38.4146 23.74 38.1046 23.65 37.9346L23.5601 37.9846L23.84 38.4545L23.92 38.4045V38.4146Z" fill="white"/>
<path d="M23.7899 38.4844L23.4799 38.0244L23.3999 38.0844L23.7 38.5444L23.7899 38.4844Z" fill="white"/>
<path d="M23.1401 38.9243L22.5801 38.6743V38.7043L23.1401 38.9843V38.9243Z" fill="white"/>
<path d="M23.1401 39.1144L22.5901 38.9644V38.9944L23.1401 39.1544V39.1144Z" fill="white"/>
<path d="M23.1501 39.274C23.0701 39.254 22.8201 39.2041 22.6001 39.1641V39.2141L23.1501 39.3541V39.2841V39.274Z" fill="white"/>
<path d="M23.1501 39.4345L22.6001 39.3745V39.4445L23.1501 39.4845V39.4345Z" fill="white"/>
<path d="M23.1501 39.5645L22.6001 39.5745V39.6644L23.1601 39.6444L23.1501 39.5645Z" fill="white"/>
<path d="M23.1601 39.6943L22.6101 39.7543V39.8543L23.1601 39.7843V39.6943Z" fill="white"/>
<path d="M23.4299 40.1045L22.96 40.4745L23.0599 40.5245L23.5399 40.1645L23.4299 40.1045Z" fill="white"/>
<path d="M23.31 40.0342L22.73 40.3442L22.88 40.4242L23.41 40.0942L23.31 40.0342Z" fill="white"/>
<path d="M23.1701 39.9644L22.6201 40.1644V40.2844L23.2701 40.0143L23.1701 39.9644Z" fill="white"/>
<path d="M23.1601 39.8242L22.6101 39.9442V40.0742L23.1601 39.9242V39.8242Z" fill="white"/>
<path d="M24.5501 39.7642L24.9301 39.9742L24.1001 40.4742L23.5401 40.1642L23.1301 40.5643L23.2401 40.6243L23.5801 40.2943L23.2901 40.6442L23.3901 40.7042C23.4801 40.6042 23.6401 40.4243 23.6401 40.4243L23.4401 40.7343L23.5601 40.8043L23.6801 40.6343L23.6001 40.8243L23.6901 40.8743L23.8201 40.6743L23.7401 40.8942L23.8501 40.9542L23.9601 40.7543L23.8901 40.9843L24.0001 41.0443C24.0301 40.9643 24.1001 40.8043 24.1001 40.8043L24.0401 41.0643L24.1301 41.1143L24.2101 41.0643L24.2601 40.8542L24.2301 41.0543L25.5901 40.2242V39.6943L24.5501 39.1343V39.7742V39.7642Z" fill="white"/>
</svg>
