<svg width="3" height="8" viewBox="0 0 3 8" fill="none" xmlns="http://www.w3.org/2000/svg">
<path d="M2.8101 0.832489V0.912506L2.7901 0.932495V0.972504L2.7701 0.992493V1.01248L2.7501 1.0325V1.05249L2.7301 1.07248L2.7101 1.0925L2.6901 1.13251C2.6901 1.13251 2.6701 1.1725 2.6501 1.1825H2.6401L2.6101 1.2225H2.5901L2.5701 1.2525L2.5501 1.27249L2.5301 1.29248L2.5101 1.3125L2.4901 1.33249H2.4701L2.4401 1.36249L2.4101 1.38251C2.4101 1.38251 2.3501 1.4125 2.3201 1.4325H2.2901C2.2901 1.4325 2.2301 1.47248 2.2001 1.48248H2.1901C2.1901 1.48248 2.1201 1.51249 2.0901 1.52249C2.0701 1.52249 2.0401 1.53248 2.0201 1.54248C2.0001 1.54248 1.9801 1.55249 1.9701 1.55249C1.9401 1.55249 1.9201 1.56248 1.8901 1.57248C1.8701 1.57248 1.8501 1.57249 1.8301 1.58249H1.8101C1.8101 1.58249 1.7501 1.59251 1.7101 1.60251H1.6801C1.6801 1.60251 1.6401 1.60251 1.6201 1.60251C1.5901 1.60251 1.5601 1.60251 1.5301 1.60251C1.5101 1.60251 1.4901 1.60251 1.4701 1.60251C1.4401 1.60251 1.4201 1.60251 1.3901 1.60251H1.3301C1.3301 1.60251 1.2801 1.60251 1.2601 1.60251C1.2401 1.60251 1.2201 1.60251 1.2001 1.60251C1.1801 1.60251 1.1501 1.60251 1.1301 1.60251H1.0701C1.0701 1.60251 1.0201 1.58249 1.0001 1.58249H0.940095C0.940095 1.58249 0.880099 1.55249 0.850099 1.55249C0.830099 1.55249 0.810101 1.55248 0.790101 1.54248H0.760103C0.760103 1.54248 0.700101 1.5125 0.680101 1.5025H0.660096C0.660096 1.5025 0.610097 1.47249 0.590097 1.46249L0.550096 1.4425C0.550096 1.4425 0.480097 1.41249 0.450097 1.39249C0.250097 1.27249 0.1201 1.1325 0.0701001 0.972504C0.0701001 0.942504 0.0600958 0.922487 0.0500958 0.892487C0.0500958 0.882487 0.0500958 0.862509 0.0500958 0.852509C0.0500958 0.842509 0.0500958 0.8225 0.0500958 0.8125V6.63251C0.0400958 6.84251 0.170097 7.04248 0.450097 7.20248C0.480097 7.22248 0.520096 7.2425 0.550096 7.2525L0.590097 7.27249C0.590097 7.27249 0.630102 7.29249 0.650102 7.30249H0.690095C0.690095 7.30249 0.750097 7.3325 0.770097 7.3425H0.800096L0.8201 7.36249H0.860101C0.860101 7.36249 0.920097 7.38249 0.950097 7.39249H1.0101C1.0101 7.39249 1.0601 7.41251 1.0801 7.41251H1.1401C1.1401 7.41251 1.1901 7.4225 1.2101 7.4325H1.2701C1.2701 7.4325 1.3201 7.4325 1.3401 7.4325H1.3801C1.3801 7.4325 1.4001 7.4325 1.4101 7.4325C1.4401 7.4325 1.4601 7.4325 1.4901 7.4325C1.5001 7.4325 1.5201 7.4325 1.5301 7.4325H1.5501C1.5501 7.4325 1.6101 7.4325 1.6401 7.4325H1.7201C1.7201 7.4325 1.7801 7.41251 1.8201 7.41251H1.8601C1.8601 7.41251 1.8901 7.40249 1.9001 7.39249C1.9301 7.39249 1.9501 7.3825 1.9801 7.3725C2.0001 7.3725 2.0201 7.37249 2.0301 7.36249C2.0501 7.36249 2.0801 7.3525 2.1001 7.3425H2.1201C2.1201 7.3425 2.1801 7.3225 2.2001 7.3125H2.2101C2.2101 7.3125 2.2701 7.28249 2.3001 7.27249H2.3301C2.3301 7.27249 2.3901 7.23249 2.4201 7.21249H2.4401L2.4601 7.1925L2.4901 7.17249H2.5101L2.5301 7.14249L2.5501 7.1225L2.5701 7.10251L2.5901 7.08249L2.6101 7.0625H2.6301L2.6601 7.01248H2.6701C2.6701 7.01248 2.6901 6.97249 2.7101 6.96249L2.7301 6.92249L2.7501 6.88251V6.86249L2.7701 6.8425V6.82248L2.7901 6.80249V6.74249L2.8101 6.7225V6.64249V0.822479V0.832489Z" fill="#E64E47"/>
<path d="M2.40002 0.2325C2.94002 0.5425 2.95002 1.05251 2.40002 1.37251C1.86002 1.68251 0.980009 1.68251 0.440009 1.37251C-0.0999914 1.06251 -0.109991 0.5525 0.440009 0.2325C0.980009 -0.0775 1.86002 -0.0775 2.40002 0.2325Z" fill="#FF6E6E"/>
</svg>
