<svg width="403" height="202" viewBox="0 0 403 202" fill="none" xmlns="http://www.w3.org/2000/svg">
<path d="M78.6099 45.2023C70.6699 49.7923 70.6199 57.2223 78.5099 61.8123C86.3999 66.4023 99.2399 66.3923 107.19 61.8123C115.13 57.2223 115.18 49.7923 107.28 45.2023C99.3899 40.6123 86.5499 40.6123 78.6099 45.2023Z" fill="#C4C4C4"/>
<path d="M73.5598 11.6027C73.5598 11.6827 73.5598 11.7727 73.5798 11.8527C73.5798 11.9227 73.5998 12.0027 73.6098 12.0727C73.6198 12.1527 73.6298 12.2427 73.6498 12.3227C73.6598 12.3927 73.6798 12.4727 73.6998 12.5427C73.7198 12.6227 73.7398 12.7027 73.7598 12.7827C73.7798 12.8527 73.7998 12.9327 73.8198 13.0027C73.8398 13.0827 73.8698 13.1626 73.8998 13.2426C73.9298 13.3126 73.9498 13.3827 73.9798 13.4527C74.0098 13.5327 74.0498 13.6227 74.0898 13.7027C74.1198 13.7727 74.1498 13.8427 74.1898 13.9127C74.2298 13.9927 74.2698 14.0827 74.3198 14.1627C74.3598 14.2327 74.3898 14.2927 74.4298 14.3627C74.4898 14.4627 74.5498 14.5626 74.6098 14.6526C74.6498 14.7126 74.6898 14.7727 74.7298 14.8327C74.7998 14.9427 74.8798 15.0426 74.9598 15.1526C74.9898 15.2026 75.0298 15.2427 75.0598 15.2927C75.1898 15.4627 75.3398 15.6327 75.4898 15.7927C75.5298 15.8327 75.5698 15.8727 75.6098 15.9227C75.7298 16.0527 75.8498 16.1727 75.9898 16.2927C76.0498 16.3527 76.1098 16.4026 76.1698 16.4626C76.2498 16.5326 76.3298 16.6027 76.4098 16.6727C76.4798 16.7327 76.5598 16.8027 76.6398 16.8627C76.7198 16.9327 76.8098 17.0027 76.8998 17.0627C76.9798 17.1227 77.0598 17.1826 77.1498 17.2426C77.2398 17.3126 77.3398 17.3727 77.4298 17.4427C77.5198 17.5027 77.5998 17.5627 77.6898 17.6227C77.7898 17.6827 77.8898 17.7527 77.9898 17.8127C78.1198 17.8927 78.2398 17.9727 78.3698 18.0427C78.7298 18.2527 79.0998 18.4427 79.4898 18.6327C79.5898 18.6827 79.6898 18.7326 79.7898 18.7726C80.1398 18.9326 80.4898 19.0827 80.8498 19.2227C80.8998 19.2427 80.9398 19.2627 80.9898 19.2827C81.3798 19.4327 81.7798 19.5627 82.1798 19.6927C82.4598 19.7827 82.7398 19.8526 83.0298 19.9326C83.2498 19.9926 83.4598 20.0527 83.6798 20.1127C83.9798 20.1827 84.2898 20.2426 84.5898 20.3026C84.8098 20.3526 85.0398 20.4027 85.2598 20.4427C85.3498 20.4627 85.4498 20.4727 85.5398 20.4827C85.9198 20.5427 86.2998 20.6027 86.6898 20.6427C86.7998 20.6527 86.9098 20.6726 87.0198 20.6826C87.2398 20.7026 87.4598 20.7226 87.6798 20.7426C88.0498 20.7726 88.4298 20.8027 88.7998 20.8127C89.0398 20.8227 89.2798 20.8327 89.5198 20.8327C89.8198 20.8327 90.1298 20.8327 90.4298 20.8327C90.6798 20.8327 90.9398 20.8227 91.1898 20.8127C91.4698 20.8027 91.7498 20.7826 92.0298 20.7726C92.2898 20.7526 92.5398 20.7326 92.7998 20.7126C93.0798 20.6826 93.3498 20.6526 93.6298 20.6227C93.8798 20.5927 94.1298 20.5526 94.3698 20.5226C94.6598 20.4726 94.9598 20.4227 95.2498 20.3727C95.4798 20.3327 95.7098 20.2827 95.9398 20.2327C96.2898 20.1527 96.6298 20.0727 96.9698 19.9827C97.1898 19.9227 97.4098 19.8726 97.6298 19.8026C97.7498 19.7726 97.8598 19.7327 97.9798 19.6927C98.3198 19.5827 98.6598 19.4727 98.9898 19.3527C99.0898 19.3127 99.1798 19.2826 99.2798 19.2426C99.5798 19.1226 99.8698 18.9927 100.16 18.8727C100.3 18.8127 100.45 18.7526 100.59 18.6826C101.01 18.4826 101.41 18.2726 101.81 18.0526C104.26 16.6426 105.79 14.8927 106.4 13.0627C106.5 12.7627 106.58 12.4527 106.63 12.1427C106.66 11.9927 106.67 11.8326 106.69 11.6826C106.7 11.5326 106.71 11.3727 106.71 11.2227L106.85 51.7527C106.85 54.2227 105.23 56.6927 101.96 58.5827C101.57 58.8127 101.16 59.0226 100.75 59.2126C100.61 59.2826 100.46 59.3326 100.32 59.4026C100.07 59.5126 99.8298 59.6227 99.5798 59.7227C99.5398 59.7427 99.4898 59.7526 99.4498 59.7726C99.3598 59.8126 99.2598 59.8427 99.1598 59.8827C98.8298 60.0027 98.4898 60.1227 98.1498 60.2227C98.0298 60.2627 97.9198 60.2927 97.7998 60.3327C97.7198 60.3527 97.6398 60.3826 97.5598 60.4026C97.4198 60.4426 97.2798 60.4727 97.1298 60.5027C96.7898 60.5927 96.4498 60.6827 96.0998 60.7527C96.0098 60.7727 95.9198 60.8027 95.8198 60.8227C95.6798 60.8527 95.5398 60.8727 95.4098 60.8927C95.1198 60.9527 94.8298 61.0027 94.5298 61.0427C94.4098 61.0627 94.2998 61.0827 94.1798 61.1027C94.0498 61.1227 93.9198 61.1327 93.7898 61.1427C93.5198 61.1727 93.2398 61.2127 92.9598 61.2327C92.8298 61.2427 92.6998 61.2626 92.5598 61.2726C92.4398 61.2826 92.3098 61.2827 92.1898 61.2927C91.9098 61.3127 91.6298 61.3227 91.3498 61.3327C91.2098 61.3327 91.0698 61.3527 90.9298 61.3527C90.8198 61.3527 90.7098 61.3527 90.5898 61.3527C90.2898 61.3527 89.9898 61.3527 89.6798 61.3527C89.5298 61.3527 89.3798 61.3527 89.2298 61.3527C89.1398 61.3527 89.0498 61.3427 88.9598 61.3327C88.5798 61.3127 88.2098 61.2927 87.8398 61.2627C87.6898 61.2527 87.5398 61.2427 87.3898 61.2327C87.3198 61.2327 87.2498 61.2127 87.1798 61.2027C87.0698 61.1927 86.9598 61.1727 86.8498 61.1627C86.4698 61.1127 86.0798 61.0627 85.6998 61.0027C85.6098 60.9827 85.5098 60.9727 85.4198 60.9527C85.3698 60.9527 85.3298 60.9426 85.2798 60.9326C85.0998 60.9026 84.9298 60.8527 84.7498 60.8227C84.4398 60.7627 84.1398 60.7027 83.8398 60.6227C83.6198 60.5727 83.4098 60.5027 83.1898 60.4427C82.8998 60.3627 82.6198 60.2827 82.3398 60.2027C82.2798 60.1827 82.2198 60.1726 82.1598 60.1526C81.8198 60.0426 81.4798 59.9226 81.1598 59.8026C81.1098 59.7826 81.0698 59.7626 81.0198 59.7426C80.6598 59.6026 80.2998 59.4527 79.9598 59.2927C79.8598 59.2427 79.7598 59.2026 79.6598 59.1526C79.2798 58.9627 78.8998 58.7727 78.5398 58.5627C78.4698 58.5227 78.3998 58.4827 78.3398 58.4427C78.2798 58.4027 78.2198 58.3627 78.1598 58.3327C78.0598 58.2727 77.9598 58.2027 77.8598 58.1427C77.7698 58.0827 77.6798 58.0226 77.5998 57.9626C77.4998 57.8926 77.4098 57.8327 77.3198 57.7627C77.2398 57.7027 77.1598 57.6427 77.0698 57.5827C76.9798 57.5127 76.8898 57.4527 76.8098 57.3827C76.7298 57.3227 76.6598 57.2527 76.5798 57.1927C76.4998 57.1227 76.4198 57.0527 76.3398 56.9827C76.3098 56.9527 76.2698 56.9227 76.2398 56.8927C76.2098 56.8627 76.1898 56.8427 76.1598 56.8127C76.0298 56.6927 75.8998 56.5627 75.7798 56.4427C75.7398 56.4027 75.6998 56.3627 75.6598 56.3127C75.5098 56.1427 75.3598 55.9827 75.2298 55.8127L75.2098 55.7927C75.2098 55.7927 75.1498 55.7127 75.1198 55.6727C75.0398 55.5627 74.9598 55.4627 74.8898 55.3527C74.8498 55.2927 74.8098 55.2327 74.7698 55.1727C74.7098 55.0727 74.6498 54.9727 74.5898 54.8827C74.5698 54.8527 74.5598 54.8326 74.5398 54.8026C74.5198 54.7626 74.4998 54.7226 74.4798 54.6826C74.4398 54.6026 74.3898 54.5126 74.3498 54.4326C74.3198 54.3626 74.2798 54.2927 74.2498 54.2227C74.2098 54.1427 74.1798 54.0527 74.1398 53.9727C74.1298 53.9327 74.1098 53.9027 74.0898 53.8627C74.0798 53.8327 74.0698 53.7927 74.0598 53.7627C74.0298 53.6827 74.0098 53.6026 73.9798 53.5226C73.9598 53.4526 73.9398 53.3726 73.9198 53.3026C73.8998 53.2226 73.8798 53.1427 73.8598 53.0627C73.8598 53.0227 73.8398 52.9726 73.8298 52.9326C73.8298 52.9026 73.8298 52.8727 73.8198 52.8427C73.7998 52.7626 73.7898 52.6727 73.7798 52.5927C73.7698 52.5227 73.7598 52.4527 73.7498 52.3727C73.7498 52.2926 73.7398 52.2027 73.7298 52.1227C73.7298 52.0727 73.7298 52.0227 73.7198 51.9727C73.7198 51.9227 73.7198 51.8727 73.7198 51.8227L73.5798 11.2927C73.5798 11.3927 73.5798 11.4827 73.5898 11.5827L73.5598 11.6027Z" fill="#EDEDED"/>
<path d="M78.4398 4.48221C71.9498 8.23221 71.9099 14.3022 78.3599 18.0522C84.8099 21.8022 95.2898 21.7922 101.78 18.0522C108.27 14.3022 108.3 8.23219 101.86 4.49219C95.4099 0.742188 84.9298 0.742188 78.4398 4.49219V4.48221Z" fill="white"/>
<path d="M75.4999 8.77206C75.7199 10.5321 76.7399 12.1521 78.0899 13.3221C79.4999 14.5521 81.2499 15.3221 83.0399 15.8721C87.6799 17.3021 92.7599 17.2721 97.3799 15.7821C99.1399 15.2121 100.86 14.4321 102.24 13.2021C103.62 11.9721 104.61 10.2121 104.73 8.37207C104.91 9.77207 104.94 11.2621 104.43 12.5621C103.86 14.0321 102.67 15.1721 101.36 16.0521C98.2399 18.1521 94.3999 18.9421 90.6399 19.0221C88.1999 19.0721 85.7499 18.8321 83.4199 18.1121C81.5899 17.5521 79.8399 16.6821 78.3299 15.4921C76.8299 14.3021 75.9599 12.8521 75.6599 10.9521C75.5399 10.1521 75.4999 9.24208 75.4999 8.38208C75.4999 8.47208 75.4799 8.70207 75.4999 8.78207V8.77206Z" fill="#DDDDDD"/>
<path d="M79.8199 2.4825C74.0899 5.7925 74.0599 11.1525 79.7499 14.4525C85.4399 17.7625 94.6899 17.7525 100.42 14.4525C106.15 11.1425 106.18 5.7825 100.49 2.4825C94.7999 -0.8275 85.5499 -0.8275 79.8199 2.4825Z" fill="white"/>
<path d="M87.0698 8.09171C87.1198 8.46171 87.3298 8.79172 87.6098 9.04172C87.8998 9.29172 88.2698 9.46172 88.6398 9.57172C89.6098 9.87172 90.6598 9.8617 91.6198 9.5517C91.9898 9.4317 92.3398 9.27172 92.6298 9.01172C92.9198 8.75172 93.1198 8.39172 93.1498 8.01172C93.1898 8.30172 93.1898 9.7217 93.0898 9.9917C92.9698 10.2917 92.7198 10.5317 92.4498 10.7217C91.7998 11.1617 90.9998 11.3217 90.2198 11.3417C89.7098 11.3417 89.1998 11.3017 88.7198 11.1517C88.3398 11.0317 87.9698 10.8517 87.6598 10.6017C87.3498 10.3517 87.1698 10.0517 87.1098 9.66171C87.0798 9.49171 87.0798 8.19172 87.0798 8.01172C87.0798 8.03172 87.0798 8.08171 87.0798 8.09171H87.0698Z" fill="#DDDDDD"/>
<path d="M87.9698 6.78215C86.7798 7.47215 86.7698 8.58214 87.9598 9.27214C89.1398 9.96214 91.0698 9.96214 92.2598 9.27214C93.4498 8.58214 93.4598 7.47215 92.2698 6.78215C91.0898 6.09215 89.1598 6.09215 87.9698 6.78215Z" fill="white"/>
<path d="M72.1299 61.8824C72.4099 61.8824 72.6399 61.6524 72.6399 61.3724V20.5524C72.6399 19.6724 73.1099 18.8524 73.8799 18.4124L87.7599 10.4024C87.9999 10.2624 88.0799 9.95243 87.9499 9.71243C87.8099 9.47243 87.4999 9.38242 87.2599 9.52242L73.3799 17.5324C72.2999 18.1524 71.6399 19.3124 71.6399 20.5524V61.3724C71.6399 61.6524 71.8699 61.8824 72.1499 61.8824H72.1299Z" fill="#0078AA"/>
<path d="M100.61 27.832L100.64 37.412L98.9698 38.372L98.9598 34.132L96.2398 35.702L96.2498 39.942L94.5798 40.912L94.5598 31.322L96.2298 30.362L96.2398 34.092L98.9498 32.532L98.9398 28.792L100.61 27.832Z" fill="#3D9BAA"/>
<path d="M102.83 31.3723C103.27 31.1223 103.6 31.0523 103.82 31.1523C104.04 31.2623 104.16 31.5323 104.16 31.9623C104.16 32.0723 104.16 32.1823 104.14 32.2923C104.13 32.4023 104.1 32.5123 104.07 32.6223C104.04 32.7423 104 32.8623 103.95 32.9923C103.9 33.1223 103.84 33.2723 103.77 33.4423C103.74 33.5123 103.69 33.6123 103.63 33.7623C103.57 33.9023 103.5 34.0623 103.42 34.2423C103.34 34.4223 103.25 34.6023 103.16 34.8023C103.07 35.0023 102.98 35.1823 102.9 35.3423L104.24 34.5723V35.3223L101.43 36.9423V36.9223C101.49 36.7823 101.58 36.6223 101.68 36.4223C101.78 36.2223 101.89 36.0023 102 35.7823C102.11 35.5523 102.22 35.3223 102.34 35.0923C102.45 34.8523 102.56 34.6423 102.65 34.4423C102.75 34.2423 102.83 34.0723 102.89 33.9323C102.96 33.7923 103 33.6923 103.02 33.6423C103.09 33.4723 103.14 33.3223 103.18 33.2023C103.22 33.0823 103.25 32.9723 103.27 32.8923C103.29 32.8023 103.31 32.7223 103.31 32.6623C103.31 32.5923 103.32 32.5223 103.32 32.4623C103.32 32.2923 103.28 32.1723 103.2 32.1223C103.12 32.0723 102.98 32.0923 102.8 32.2023C102.69 32.2623 102.61 32.3323 102.54 32.4023C102.47 32.4723 102.42 32.5523 102.37 32.6323C102.33 32.7123 102.3 32.7923 102.28 32.8723C102.26 32.9523 102.25 33.0323 102.25 33.1123L101.47 33.5623C101.49 33.2923 101.53 33.0523 101.61 32.8223C101.69 32.6023 101.79 32.3923 101.91 32.2123C102.03 32.0323 102.17 31.8723 102.32 31.7323C102.47 31.5923 102.63 31.4823 102.8 31.3823L102.83 31.3723Z" fill="#3D9BAA"/>
</svg>
