<svg width="403" height="202" viewBox="0 0 403 202" fill="none" xmlns="http://www.w3.org/2000/svg">
<path d="M245.8 101.463C245.8 100.433 247.76 99.5928 250.17 99.5928C252.58 99.5928 254.54 100.433 254.54 101.463C254.54 102.493 252.58 103.333 250.17 103.333C247.76 103.333 245.8 102.493 245.8 101.463Z" fill="#D3D3D3"/>
<path d="M251.15 96.6928V96.7228V96.7528V96.7828V96.8128H251.14V96.8428H251.13V96.8728L251.11 96.8929V96.9229H251.09L251.06 96.9628L251.04 96.9928H251.03V97.0128H251L250.98 97.0328H250.97L250.95 97.0528H250.93L250.91 97.0728H250.89C250.89 97.0728 250.85 97.1128 250.82 97.1228H250.8C250.8 97.1228 250.76 97.1528 250.74 97.1628C250.74 97.1628 250.69 97.1828 250.67 97.1928C250.65 97.1928 250.64 97.1929 250.62 97.2029H250.58C250.58 97.2029 250.54 97.2228 250.53 97.2228H250.47C250.47 97.2228 250.43 97.2428 250.4 97.2428H250.34C250.34 97.2428 250.3 97.2428 250.27 97.2428H250.23C250.23 97.2428 250.19 97.2428 250.18 97.2428H249.99L249.95 97.2228H249.9L249.86 97.2029C249.86 97.2029 249.82 97.2028 249.8 97.1928H249.76L249.74 97.1729C249.74 97.1729 249.7 97.1628 249.68 97.1528H249.66C249.66 97.1528 249.63 97.1328 249.61 97.1228H249.58C249.58 97.1228 249.53 97.0928 249.51 97.0728C249.37 96.9928 249.28 96.8828 249.24 96.7828C249.24 96.7628 249.23 96.7428 249.23 96.7328V96.7029C249.23 96.7029 249.23 96.6829 249.23 96.6729V101.053C249.23 101.203 249.03 100.943 249.23 101.053C249.25 101.063 249.56 101.483 249.59 101.493H249.62C249.62 101.493 249.65 101.513 249.66 101.523H249.68C249.68 101.523 249.72 101.543 249.74 101.553H249.77L249.79 101.573C249.79 101.573 249.83 101.583 249.85 101.583H249.89L249.94 101.603H250.06L250.08 101.623H250.15C250.15 101.623 250.16 101.623 250.17 101.623C250.19 101.623 250.21 101.623 250.22 101.623C250.22 101.623 250.24 101.623 250.25 101.623H250.27C250.27 101.623 250.31 101.623 250.34 101.623H250.4C250.4 101.623 250.45 101.613 250.47 101.603H250.53C250.53 101.603 250.57 101.583 250.58 101.583H250.62C250.62 101.583 250.65 101.563 250.67 101.563H250.68C250.68 101.563 250.72 101.543 250.74 101.543C250.74 101.543 250.78 101.523 250.8 101.513H250.82C250.82 101.513 250.86 101.483 250.89 101.473H250.91L250.93 101.453H250.95L250.97 101.433H250.98L251 101.413H251.01V101.393H251.03L251.05 101.363L251.08 101.323V101.293H251.1V101.263H251.12V101.233H251.13V101.203H251.14V101.173V101.143V101.113V101.083V96.7029L251.15 96.6928Z" fill="#6A6461"/>
<path d="M250.86 96.2724C251.24 96.4924 251.24 96.8524 250.86 97.0724C250.48 97.2924 249.87 97.2924 249.48 97.0724C249.1 96.8524 249.1 96.4924 249.48 96.2724C249.86 96.0524 250.47 96.0524 250.86 96.2724Z" fill="white" stroke="black" stroke-width="0.5" stroke-linecap="round" stroke-linejoin="round"/>
<path d="M250.17 97.7622C254.88 97.7622 257.2 95.5322 254.6 88.4822C252 81.4322 250.17 82.2421 250.17 82.2421C250.17 82.2421 248.34 81.4322 245.74 88.4822C243.14 95.5322 245.46 97.7622 250.17 97.7622Z" fill="#219973"/>
<path d="M254.61 88.4825C253.51 85.5025 252.55 83.9325 251.8 83.1025C252.32 84.6525 252.65 86.2825 252.87 87.9025C253.14 89.9525 253.23 92.0625 252.75 94.0826C252.43 95.4125 251.84 96.6925 250.98 97.7425C255.14 97.4825 257.05 95.1125 254.6 88.4825H254.61Z" fill="#008057"/>
<path d="M288.03 177.662C290.847 177.662 293.13 176.682 293.13 175.472C293.13 174.263 290.847 173.282 288.03 173.282C285.213 173.282 282.93 174.263 282.93 175.472C282.93 176.682 285.213 177.662 288.03 177.662Z" fill="#D3D3D3"/>
<path d="M289.17 169.903V169.923V169.983H289.16V170.013H289.15V170.043H289.14V170.073H289.12V170.103H289.1L289.08 170.133C289.08 170.133 289.06 170.163 289.05 170.173L289.02 170.203H289.01L288.99 170.233H288.97L288.95 170.263H288.93L288.91 170.293H288.89L288.87 170.323L288.84 170.343C288.84 170.343 288.79 170.373 288.76 170.383H288.74C288.74 170.383 288.69 170.413 288.67 170.423C288.67 170.423 288.62 170.443 288.59 170.453C288.57 170.453 288.55 170.463 288.53 170.473H288.49C288.49 170.473 288.45 170.493 288.43 170.503H288.36C288.36 170.503 288.31 170.523 288.28 170.523H288.21C288.21 170.523 288.16 170.533 288.13 170.533H288.08C288.08 170.533 288.04 170.533 288.02 170.533H287.86L287.8 170.513H287.75C287.75 170.513 287.71 170.503 287.69 170.493H287.64C287.64 170.493 287.59 170.473 287.57 170.463H287.52L287.5 170.443C287.5 170.443 287.45 170.423 287.43 170.423H287.41C287.41 170.423 287.37 170.403 287.35 170.393H287.32C287.32 170.393 287.26 170.353 287.24 170.333C287.07 170.233 286.97 170.113 286.93 169.993C286.93 169.973 286.92 169.953 286.91 169.933V169.903C286.91 169.903 286.91 169.883 286.91 169.873V174.993C286.9 175.163 286.68 174.863 286.91 174.993C286.94 175.013 287.3 175.493 287.33 175.503H287.36C287.36 175.503 287.39 175.533 287.41 175.543H287.44C287.44 175.543 287.49 175.573 287.51 175.573H287.55L287.58 175.593C287.58 175.593 287.63 175.603 287.65 175.613H287.7C287.7 175.613 287.74 175.633 287.76 175.633H287.87L287.9 175.653H288.01H288.03C288.05 175.653 288.07 175.653 288.09 175.653C288.1 175.653 288.11 175.653 288.12 175.653H288.14C288.14 175.653 288.19 175.653 288.22 175.653H288.29C288.29 175.653 288.34 175.643 288.37 175.633H288.44C288.44 175.633 288.48 175.613 288.5 175.603H288.54C288.54 175.603 288.58 175.583 288.6 175.573H288.61C288.61 175.573 288.66 175.553 288.68 175.543C288.68 175.543 288.73 175.523 288.75 175.503H288.77C288.77 175.503 288.82 175.463 288.85 175.453H288.86V175.433H288.89L288.91 175.403H288.93L288.95 175.373H288.97L288.99 175.343H289.01V175.323H289.02L289.05 175.293C289.05 175.293 289.07 175.263 289.08 175.253L289.1 175.223V175.193H289.12V175.163H289.14V175.133H289.15V175.103V175.073V175.043V175.013V169.893L289.17 169.903Z" fill="#6A6461"/>
<path d="M288.84 169.413C289.29 169.673 289.29 170.083 288.84 170.343C288.4 170.603 287.68 170.603 287.23 170.343C286.78 170.083 286.78 169.673 287.23 169.413C287.67 169.153 288.39 169.153 288.84 169.413Z" fill="white" stroke="black" stroke-width="0.5" stroke-linecap="round" stroke-linejoin="round"/>
<path d="M288.03 171.153C293.53 171.153 296.25 168.543 293.21 160.303C290.17 152.063 288.03 153.013 288.03 153.013C288.03 153.013 285.89 152.063 282.85 160.303C279.81 168.543 282.53 171.153 288.03 171.153Z" fill="#219973"/>
<path d="M293.21 160.302C291.93 156.822 290.8 154.982 289.93 154.022C290.54 155.832 290.93 157.732 291.17 159.632C291.48 162.032 291.59 164.492 291.03 166.852C290.66 168.402 289.97 169.902 288.97 171.122C293.83 170.822 296.06 168.052 293.2 160.302H293.21Z" fill="#008057"/>
<path d="M164.81 149.203C164.81 148.173 166.77 147.333 169.18 147.333C171.59 147.333 173.55 148.173 173.55 149.203C173.55 150.233 171.59 151.073 169.18 151.073C166.77 151.073 164.81 150.233 164.81 149.203Z" fill="#D3D3D3"/>
<path d="M170.16 144.433V144.463V144.493V144.523V144.553H170.15V144.583H170.14V144.613L170.12 144.633V144.663H170.1L170.07 144.703L170.05 144.733H170.04V144.753H170.01L169.99 144.773H169.98L169.96 144.793H169.94L169.92 144.813H169.9C169.9 144.813 169.86 144.853 169.83 144.863H169.81C169.81 144.863 169.77 144.893 169.75 144.903C169.75 144.903 169.7 144.923 169.68 144.933C169.66 144.933 169.65 144.933 169.63 144.943H169.59C169.59 144.943 169.55 144.963 169.54 144.963H169.48C169.48 144.963 169.44 144.983 169.41 144.983H169.35C169.35 144.983 169.31 144.983 169.28 144.983H169.24C169.24 144.983 169.2 144.983 169.19 144.983H169L168.96 144.963H168.91L168.87 144.943C168.87 144.943 168.83 144.943 168.81 144.933H168.77L168.75 144.913C168.75 144.913 168.71 144.903 168.69 144.893H168.67C168.67 144.893 168.64 144.873 168.62 144.863H168.59C168.59 144.863 168.54 144.833 168.52 144.813C168.38 144.733 168.29 144.623 168.25 144.523C168.25 144.503 168.24 144.483 168.24 144.473V144.443C168.24 144.443 168.24 144.423 168.24 144.413V148.793C168.24 148.943 168.04 148.683 168.24 148.793C168.26 148.803 168.57 149.223 168.6 149.233H168.63C168.63 149.233 168.66 149.253 168.67 149.263H168.69C168.69 149.263 168.73 149.283 168.75 149.293H168.78L168.8 149.313C168.8 149.313 168.84 149.323 168.86 149.323H168.9L168.95 149.343H169.07L169.09 149.363H169.16C169.16 149.363 169.17 149.363 169.18 149.363C169.2 149.363 169.22 149.363 169.23 149.363C169.23 149.363 169.25 149.363 169.26 149.363H169.28C169.28 149.363 169.32 149.363 169.35 149.363H169.41C169.41 149.363 169.46 149.353 169.48 149.343H169.54C169.54 149.343 169.58 149.323 169.59 149.323H169.63C169.63 149.323 169.66 149.303 169.68 149.303H169.69C169.69 149.303 169.73 149.283 169.75 149.283C169.75 149.283 169.79 149.263 169.81 149.253H169.83C169.83 149.253 169.87 149.223 169.9 149.213H169.92L169.94 149.193H169.96L169.98 149.173H169.99L170.01 149.153H170.02V149.133H170.04L170.06 149.103L170.09 149.063V149.033H170.11V149.003H170.13V148.973H170.14V148.943H170.15V148.913V148.883V148.853V148.823V144.443L170.16 144.433Z" fill="#6A6461"/>
<path d="M169.87 144.013C170.25 144.233 170.25 144.593 169.87 144.813C169.49 145.033 168.88 145.033 168.49 144.813C168.11 144.593 168.11 144.233 168.49 144.013C168.87 143.793 169.48 143.793 169.87 144.013Z" fill="white" stroke="black" stroke-width="0.5" stroke-linecap="round" stroke-linejoin="round"/>
<path d="M169.18 145.502C173.89 145.502 176.21 143.272 173.61 136.222C171.01 129.172 169.18 129.982 169.18 129.982C169.18 129.982 167.35 129.172 164.75 136.222C162.15 143.272 164.47 145.502 169.18 145.502Z" fill="#219973"/>
<path d="M173.62 136.223C172.52 133.243 171.56 131.673 170.81 130.843C171.33 132.393 171.66 134.023 171.88 135.643C172.15 137.693 172.24 139.803 171.76 141.823C171.44 143.153 170.85 144.433 169.99 145.483C174.15 145.223 176.06 142.853 173.61 136.223H173.62Z" fill="#008057"/>
<path d="M372.21 126.323C374.502 126.323 376.36 125.526 376.36 124.543C376.36 123.56 374.502 122.763 372.21 122.763C369.918 122.763 368.06 123.56 368.06 124.543C368.06 125.526 369.918 126.323 372.21 126.323Z" fill="#D3D3D3"/>
<path d="M373.14 120.002V120.032V120.062V120.092V120.122H373.13V120.152H373.12V120.182L373.1 120.202V120.232H373.08L373.06 120.272L373.04 120.302H373.03V120.322H373V120.342H372.97L372.95 120.362H372.94L372.92 120.382H372.9C372.9 120.382 372.86 120.422 372.84 120.432H372.82C372.82 120.432 372.78 120.462 372.76 120.462C372.76 120.462 372.72 120.482 372.69 120.492C372.67 120.492 372.66 120.492 372.64 120.502H372.6C372.6 120.502 372.57 120.522 372.55 120.522H372.5C372.5 120.522 372.46 120.542 372.44 120.542H372.38C372.38 120.542 372.34 120.542 372.32 120.542H372.28C372.28 120.542 372.25 120.542 372.23 120.542H372.05L372.01 120.522H371.96L371.92 120.502C371.92 120.502 371.88 120.502 371.86 120.492H371.82L371.8 120.472C371.8 120.472 371.76 120.462 371.74 120.452H371.72C371.72 120.452 371.69 120.432 371.67 120.422H371.65C371.65 120.422 371.6 120.392 371.58 120.372C371.44 120.292 371.36 120.192 371.32 120.092C371.32 120.072 371.32 120.062 371.31 120.042V120.012C371.31 120.012 371.31 119.992 371.31 119.982V124.152C371.31 124.292 371.12 124.042 371.31 124.152C371.33 124.162 371.63 124.562 371.65 124.572H371.67C371.67 124.572 371.7 124.592 371.71 124.602H371.73C371.73 124.602 371.77 124.622 371.79 124.632H371.82L371.84 124.652C371.84 124.652 371.88 124.652 371.9 124.662H371.94L371.99 124.682H372.12L372.17 124.702H372.19C372.19 124.702 372.2 124.702 372.21 124.702C372.23 124.702 372.24 124.702 372.26 124.702C372.26 124.702 372.28 124.702 372.29 124.702H372.3C372.3 124.702 372.34 124.702 372.36 124.702H372.42C372.42 124.702 372.46 124.692 372.48 124.692H372.53C372.53 124.692 372.56 124.672 372.58 124.672H372.62C372.62 124.672 372.65 124.652 372.67 124.652H372.68C372.68 124.652 372.72 124.632 372.74 124.632C372.74 124.632 372.78 124.612 372.8 124.602H372.82C372.82 124.602 372.86 124.572 372.88 124.562H372.9L372.92 124.542H372.93L372.95 124.522H372.96V124.502H372.99V124.482H373.01L373.03 124.452L373.05 124.412V124.382H373.07V124.352H373.09V124.322H373.1V124.292H373.11V124.262V124.232V124.202V124.172V120.002H373.14Z" fill="#6A6461"/>
<path d="M372.87 119.613C373.23 119.823 373.23 120.163 372.87 120.373C372.51 120.583 371.92 120.583 371.56 120.373C371.2 120.163 371.2 119.823 371.56 119.613C371.92 119.403 372.51 119.403 372.87 119.613Z" fill="white" stroke="black" stroke-width="0.5" stroke-linecap="round" stroke-linejoin="round"/>
<path d="M372.22 121.023C376.7 121.023 378.9 118.903 376.43 112.203C373.96 105.503 372.22 106.273 372.22 106.273C372.22 106.273 370.48 105.503 368.01 112.203C365.54 118.903 367.75 121.023 372.22 121.023Z" fill="#219973"/>
<path d="M376.43 112.203C375.38 109.373 374.47 107.873 373.76 107.093C374.25 108.573 374.57 110.113 374.77 111.653C375.02 113.603 375.11 115.613 374.66 117.523C374.36 118.783 373.8 120.003 372.98 120.993C376.93 120.753 378.75 118.493 376.42 112.193L376.43 112.203Z" fill="#008057"/>
</svg>
