<svg width="403" height="202" viewBox="0 0 403 202" fill="none" xmlns="http://www.w3.org/2000/svg">
<path d="M88.17 113.372L116.01 97.2925L119.14 95.4324L73.2599 69.2625C72.2799 68.6925 71.0699 68.6925 70.0899 69.2625L45.05 83.7225C42.46 85.2125 39.87 87.4625 42.46 88.9525L84.9999 113.362C85.9799 113.932 87.19 113.932 88.17 113.362V113.372Z" fill="#C4C4C4"/>
<path d="M26.9299 48.1429L78.8199 78.3028L103.88 63.8329L51.9899 33.6729L26.9299 48.1429Z" fill="#4CAAC0"/>
<path d="M30.5499 47.8229L78.6999 75.7329L100.11 63.4029L51.9698 35.5029L30.5499 47.8229Z" fill="#7DC4D9"/>
<path d="M26.9299 48.1426L26.9998 77.7726L78.8899 107.923L78.8199 78.3026L26.9299 48.1426Z" fill="#0078AA"/>
<path d="M78.8199 78.303L78.8899 107.923L103.94 93.453L103.88 63.833L78.8199 78.303Z" fill="#0B88B1"/>
<path d="M98.0199 64.6129L100.11 63.4029L51.9599 35.5029L52.0199 37.8829L98.0199 64.6129Z" fill="#399DBE"/>
<path d="M52.0199 37.8829L51.9599 35.5029L30.5199 47.8229L32.6399 49.0329L52.0199 37.8829Z" fill="#399DBE"/>
<path d="M38.6799 70.5926L62.5298 84.4426L66.2399 82.2826L42.3899 68.4326L38.6799 70.5926Z" fill="white"/>
<path d="M40.5598 90.0322L52.6099 83.2522L40.4998 76.2422L40.5598 90.0322Z" fill="#323231"/>
<path d="M62.5298 84.4428L62.5598 102.813L60.6898 101.723L60.6699 87.9328L40.5399 76.2428L40.5598 90.0328L38.6999 88.9528L38.6799 70.5928L62.5298 84.4428Z" fill="#EDEDED"/>
<path d="M62.5298 84.4422L62.5598 102.812L66.2699 100.642L66.2399 82.2822L62.5298 84.4422Z" fill="#CECECE"/>
<path d="M40.5598 90.0329L60.6898 101.723L60.6699 87.9329L52.6099 83.2529L40.5598 90.0329Z" fill="#5E5E59"/>
<path d="M70.2099 77.5225L70.2198 80.3825L75.2399 83.3025L75.2299 80.4325L70.2099 77.5225Z" fill="#4CAAC0"/>
<path d="M62.1799 72.9023L62.1898 75.7624L67.2099 78.6823L67.1999 75.8224L62.1799 72.9023Z" fill="#4CAAC0"/>
<path d="M54.1499 68.2832L54.1599 71.1532L59.1799 74.0632L59.1699 71.2032L54.1499 68.2832Z" fill="#4CAAC0"/>
<path d="M46.1199 63.6631L46.1299 66.5331L51.1499 69.4431L51.1399 66.5831L46.1199 63.6631Z" fill="#4CAAC0"/>
<path d="M38.0999 59.043V61.913L43.1199 64.823L43.1099 61.963L38.0999 59.043Z" fill="#4CAAC0"/>
<path d="M30.0699 54.4229V57.2928L35.0898 60.2029L35.0799 57.3428L30.0699 54.4229Z" fill="#4CAAC0"/>
<path d="M70.2099 82.9023L70.2198 85.7624L75.2399 88.6823L75.2299 85.8224L70.2099 82.9023Z" fill="#4CAAC0"/>
<path d="M30.0699 59.8027V62.6728L35.0898 65.5927L35.0799 62.7227L30.0699 59.8027Z" fill="#4CAAC0"/>
<path d="M70.2099 88.2832L70.2198 91.1532L75.2399 94.0632L75.2299 91.2032L70.2099 88.2832Z" fill="#4CAAC0"/>
<path d="M30.0699 65.1826V68.0526L35.0898 70.9726L35.0799 68.1026L30.0699 65.1826Z" fill="#4CAAC0"/>
<path d="M47.7299 47.8724C46.0199 48.8624 46.0099 50.4524 47.7099 51.4424C49.4099 52.4324 52.1699 52.4224 53.8699 51.4424C55.5799 50.4524 55.5899 48.8624 53.8899 47.8724C52.1899 46.8824 49.4399 46.8824 47.7299 47.8724Z" fill="#4CAAC0"/>
<path d="M46.3499 44.8535C46.3499 44.8535 46.3499 44.8934 46.3499 44.9034V44.9535C46.3499 44.9535 46.3599 44.9934 46.3599 45.0034V45.0534C46.3599 45.0534 46.3799 45.0835 46.3799 45.1035V45.1534C46.3799 45.1534 46.3999 45.1835 46.4099 45.2035L46.4299 45.2534C46.4299 45.2534 46.4399 45.2934 46.4499 45.3034L46.4698 45.3434C46.4698 45.3434 46.4898 45.3835 46.4998 45.3935L46.5199 45.4334C46.5199 45.4334 46.5498 45.4734 46.5598 45.4934L46.5799 45.5334C46.5799 45.5334 46.6099 45.5835 46.6299 45.6035L46.6499 45.6335C46.6499 45.6335 46.7099 45.7034 46.7399 45.7434L46.7699 45.7734C46.7699 45.7734 46.8199 45.8235 46.8499 45.8535L46.8899 45.8935C46.8899 45.8935 46.9198 45.9234 46.9398 45.9334L46.9899 45.9734C46.9899 45.9734 47.0299 46.0035 47.0499 46.0135C47.0699 46.0235 47.0799 46.0434 47.0999 46.0534C47.1199 46.0634 47.1399 46.0834 47.1599 46.0934C47.1799 46.1034 47.1998 46.1235 47.2198 46.1335C47.2398 46.1435 47.2598 46.1635 47.2798 46.1735C47.3098 46.1935 47.3299 46.2034 47.3599 46.2234C47.4399 46.2634 47.5199 46.3135 47.5999 46.3535L47.6699 46.3835C47.7399 46.4135 47.8199 46.4535 47.8999 46.4835H47.9299C48.0099 46.5235 48.0998 46.5535 48.1898 46.5835C48.2498 46.6035 48.3099 46.6235 48.3699 46.6335C48.4199 46.6435 48.4599 46.6635 48.5099 46.6735C48.5699 46.6935 48.6399 46.7034 48.7099 46.7134C48.7599 46.7134 48.8099 46.7334 48.8499 46.7434H48.9099C48.9899 46.7634 49.0699 46.7734 49.1599 46.7834C49.1799 46.7834 49.2099 46.7834 49.2299 46.7834C49.2799 46.7834 49.3299 46.7835 49.3699 46.7935C49.4499 46.7935 49.5299 46.8034 49.6099 46.8134C49.6599 46.8134 49.7099 46.8134 49.7599 46.8134C49.8299 46.8134 49.8899 46.8134 49.9599 46.8134C50.0099 46.8134 50.0699 46.8134 50.1199 46.8134C50.1799 46.8134 50.2399 46.8134 50.2999 46.8134C50.3599 46.8134 50.4099 46.8134 50.4599 46.8034C50.5199 46.8034 50.5799 46.7934 50.6399 46.7834C50.6899 46.7834 50.7499 46.7735 50.7999 46.7635C50.8599 46.7635 50.9299 46.7435 50.9899 46.7335C51.0399 46.7335 51.0899 46.7135 51.1399 46.7035C51.2099 46.6835 51.2899 46.6734 51.3599 46.6534C51.4099 46.6434 51.4598 46.6335 51.4998 46.6135C51.5298 46.6135 51.5499 46.5934 51.5799 46.5934C51.6499 46.5734 51.7299 46.5434 51.7999 46.5234C51.8199 46.5234 51.8399 46.5134 51.8599 46.5034C51.9199 46.4834 51.9899 46.4535 52.0499 46.4235C52.0799 46.4135 52.1099 46.3935 52.1399 46.3835C52.2299 46.3435 52.3199 46.2934 52.3999 46.2434C52.9299 45.9434 53.2499 45.5635 53.3899 45.1735C53.4099 45.1035 53.4298 45.0434 53.4398 44.9734C53.4398 44.9434 53.4399 44.9034 53.4499 44.8734C53.4499 44.8434 53.4499 44.8034 53.4499 44.7734L53.4799 49.1935C53.4799 49.7235 53.1299 50.2535 52.4299 50.6635C52.3499 50.7135 52.2599 50.7534 52.1699 50.8034C52.1399 50.8134 52.1099 50.8334 52.0799 50.8434C52.0299 50.8634 51.9699 50.8935 51.9199 50.9135H51.8899C51.8899 50.9135 51.8499 50.9435 51.8299 50.9435C51.7599 50.9735 51.6899 50.9935 51.6099 51.0135C51.5899 51.0135 51.5598 51.0334 51.5298 51.0334C51.5098 51.0334 51.4999 51.0434 51.4799 51.0534C51.4499 51.0534 51.4199 51.0635 51.3899 51.0735C51.3199 51.0935 51.2399 51.1134 51.1699 51.1234C51.1499 51.1234 51.1299 51.1335 51.1099 51.1335C51.0799 51.1335 51.0499 51.1334 51.0199 51.1534C50.9599 51.1634 50.8899 51.1734 50.8299 51.1834C50.7999 51.1834 50.7798 51.1835 50.7498 51.1935C50.7198 51.1935 50.6899 51.1935 50.6699 51.1935C50.6099 51.1935 50.5499 51.2034 50.4899 51.2134C50.4599 51.2134 50.4299 51.2134 50.3999 51.2134C50.3699 51.2134 50.3499 51.2134 50.3199 51.2134C50.2599 51.2134 50.1999 51.2134 50.1399 51.2134C50.1099 51.2134 50.0799 51.2134 50.0499 51.2134C50.0299 51.2134 49.9999 51.2134 49.9799 51.2134C49.9099 51.2134 49.8498 51.2134 49.7798 51.2134C49.7498 51.2134 49.7199 51.2134 49.6799 51.2134C49.6599 51.2134 49.6399 51.2134 49.6199 51.2134C49.5399 51.2134 49.4599 51.2135 49.3799 51.1935C49.3499 51.1935 49.3198 51.1935 49.2798 51.1935H49.2299C49.2299 51.1935 49.1799 51.1834 49.1599 51.1834C49.0799 51.1834 48.9999 51.1634 48.9099 51.1534H48.8199C48.8199 51.1534 48.7399 51.1235 48.7099 51.1135C48.6399 51.1035 48.5799 51.0835 48.5099 51.0735C48.4599 51.0635 48.4199 51.0534 48.3699 51.0334C48.3099 51.0134 48.2498 51.0035 48.1898 50.9835H48.1499C48.0799 50.9535 47.9999 50.9235 47.9299 50.8935H47.8999C47.8199 50.8535 47.7499 50.8134 47.6699 50.7834L47.5999 50.7534C47.5199 50.7134 47.4399 50.6734 47.3599 50.6234L47.3199 50.5934L47.2798 50.5735C47.2798 50.5735 47.2398 50.5434 47.2198 50.5334C47.1998 50.5234 47.1799 50.5034 47.1599 50.4934C47.1399 50.4834 47.1199 50.4635 47.0999 50.4535C47.0799 50.4435 47.0599 50.4235 47.0499 50.4135C47.0299 50.4035 47.0099 50.3834 46.9899 50.3734C46.9699 50.3634 46.9598 50.3435 46.9398 50.3335C46.9198 50.3235 46.9099 50.3035 46.8899 50.2935L46.8699 50.2734L46.8499 50.2534C46.8499 50.2534 46.7999 50.2035 46.7699 50.1735L46.7399 50.1435C46.7399 50.1435 46.6799 50.0734 46.6499 50.0334L46.6299 50.0034C46.6299 50.0034 46.5999 49.9534 46.5799 49.9334L46.5598 49.8935C46.5598 49.8935 46.5299 49.8535 46.5199 49.8335V49.8134L46.4998 49.7834C46.4998 49.7834 46.4798 49.7435 46.4698 49.7335L46.4499 49.6935C46.4499 49.6935 46.4299 49.6535 46.4299 49.6435V49.6234L46.4099 49.6035C46.4099 49.6035 46.3999 49.5734 46.3899 49.5534V49.5034C46.3899 49.5034 46.3699 49.4735 46.3599 49.4535V49.4034C46.3599 49.4034 46.3398 49.3635 46.3398 49.3535V49.3034C46.3398 49.3034 46.3398 49.2634 46.3398 49.2534V49.1935L46.3098 44.7734C46.3098 44.7734 46.3098 44.8135 46.3098 44.8335L46.3499 44.8535Z" fill="#EDEDED"/>
<path d="M47.3999 43.3231C46.0099 44.1331 45.9998 45.4331 47.3798 46.2431C48.7698 47.0531 51.0198 47.0431 52.4098 46.2431C53.7998 45.4331 53.8099 44.1331 52.4299 43.3331C51.0399 42.5231 48.7899 42.5231 47.3999 43.3331V43.3231Z" fill="white"/>
<path d="M46.7699 44.2431C46.8199 44.6231 47.0399 44.9731 47.3299 45.2231C47.6299 45.4831 48.0099 45.6531 48.3899 45.7731C49.3899 46.0831 50.4798 46.0731 51.4698 45.7531C51.8498 45.6331 52.2199 45.4631 52.5099 45.2031C52.8099 44.9431 53.0199 44.5631 53.0499 44.1631C53.0899 44.4631 53.0899 44.7831 52.9899 45.0631C52.8699 45.3731 52.6099 45.6231 52.3299 45.8131C51.6599 46.2631 50.8298 46.4331 50.0298 46.4531C49.5098 46.4631 48.9799 46.4131 48.4799 46.2531C48.0899 46.1331 47.7099 45.9431 47.3899 45.6931C47.0699 45.4331 46.8799 45.1231 46.8199 44.7131C46.7899 44.5431 46.7899 44.3431 46.7899 44.1631C46.7899 44.1831 46.7899 44.2331 46.7899 44.2531L46.7699 44.2431Z" fill="#DDDDDD"/>
<path d="M47.6999 42.8929C46.4699 43.6029 46.4599 44.7528 47.6799 45.4628C48.8999 46.1728 50.8899 46.1728 52.1199 45.4628C53.3499 44.7528 53.3599 43.6029 52.1299 42.8929C50.9099 42.1829 48.9199 42.1829 47.6899 42.8929H47.6999Z" fill="white"/>
<path d="M57.2199 53.432C55.5099 54.422 55.4999 56.012 57.1999 57.002C58.8999 57.992 61.6599 57.982 63.3599 57.002C65.0699 56.012 65.0799 54.422 63.3799 53.432C61.6799 52.442 58.9299 52.442 57.2199 53.432Z" fill="#4CAAC0"/>
<path d="M55.8499 50.413C55.8499 50.413 55.8499 50.453 55.8499 50.463V50.513C55.8499 50.513 55.8599 50.553 55.8599 50.563V50.613C55.8599 50.613 55.8799 50.643 55.8799 50.663V50.713C55.8799 50.713 55.8999 50.743 55.9099 50.763L55.9299 50.813C55.9299 50.813 55.9399 50.853 55.9499 50.863L55.9698 50.903C55.9698 50.903 55.9898 50.943 55.9998 50.953L56.0199 50.993C56.0199 50.993 56.0498 51.033 56.0598 51.053L56.0799 51.093C56.0799 51.093 56.1099 51.143 56.1299 51.163L56.1499 51.193C56.1499 51.193 56.2099 51.263 56.2399 51.303L56.2699 51.333C56.2699 51.333 56.3199 51.383 56.3499 51.413L56.3899 51.453C56.3899 51.453 56.4198 51.483 56.4398 51.493L56.4899 51.533C56.4899 51.533 56.5299 51.563 56.5499 51.573C56.5699 51.583 56.5799 51.603 56.5999 51.613C56.6199 51.623 56.6399 51.643 56.6599 51.653C56.6799 51.663 56.6998 51.683 56.7198 51.693C56.7398 51.703 56.7598 51.723 56.7798 51.733C56.8098 51.753 56.8299 51.763 56.8599 51.783C56.9399 51.823 57.0199 51.873 57.0999 51.913L57.1699 51.943C57.2399 51.973 57.3199 52.013 57.3999 52.043H57.4299C57.5099 52.083 57.5998 52.113 57.6898 52.143C57.7498 52.163 57.8099 52.183 57.8699 52.193C57.9199 52.203 57.9599 52.223 58.0099 52.233C58.0699 52.253 58.1399 52.263 58.2099 52.273C58.2599 52.273 58.3099 52.293 58.3499 52.303H58.4099C58.4899 52.323 58.5699 52.333 58.6599 52.343C58.6799 52.343 58.7099 52.343 58.7299 52.343C58.7799 52.343 58.8299 52.343 58.8699 52.353C58.9499 52.353 59.0299 52.363 59.1099 52.373C59.1599 52.373 59.2099 52.373 59.2599 52.373C59.3299 52.373 59.3899 52.373 59.4599 52.373C59.5099 52.373 59.5699 52.373 59.6199 52.373C59.6799 52.373 59.7399 52.373 59.7999 52.373C59.8599 52.373 59.9099 52.373 59.9599 52.363C60.0199 52.363 60.0799 52.353 60.1399 52.343C60.1899 52.343 60.2499 52.333 60.2999 52.323C60.3599 52.323 60.4299 52.303 60.4899 52.293C60.5399 52.293 60.5899 52.273 60.6399 52.263C60.7099 52.243 60.7899 52.233 60.8599 52.213C60.9099 52.203 60.9598 52.193 60.9998 52.173C61.0298 52.173 61.0499 52.153 61.0799 52.153C61.1499 52.133 61.2299 52.103 61.2999 52.083C61.3199 52.083 61.3399 52.073 61.3599 52.063C61.4199 52.043 61.4899 52.013 61.5499 51.983C61.5799 51.973 61.6099 51.953 61.6399 51.943C61.7299 51.903 61.8199 51.853 61.8999 51.803C62.4299 51.503 62.7499 51.123 62.8899 50.733C62.9099 50.663 62.9298 50.603 62.9398 50.533C62.9398 50.503 62.9399 50.463 62.9499 50.433C62.9499 50.403 62.9499 50.363 62.9499 50.333L62.9799 54.753C62.9799 55.283 62.6299 55.813 61.9299 56.223C61.8499 56.273 61.7599 56.313 61.6699 56.363C61.6399 56.373 61.6099 56.393 61.5799 56.403C61.5299 56.423 61.4699 56.453 61.4199 56.473H61.3899C61.3899 56.473 61.3499 56.503 61.3299 56.503C61.2599 56.533 61.1899 56.553 61.1099 56.573C61.0899 56.573 61.0598 56.593 61.0298 56.593C61.0098 56.593 60.9999 56.603 60.9799 56.613C60.9499 56.613 60.9199 56.623 60.8899 56.633C60.8199 56.653 60.7399 56.673 60.6699 56.683C60.6499 56.683 60.6299 56.693 60.6099 56.693C60.5799 56.693 60.5499 56.693 60.5199 56.713C60.4599 56.723 60.3899 56.733 60.3299 56.743C60.2999 56.743 60.2798 56.743 60.2498 56.753C60.2198 56.753 60.1899 56.753 60.1699 56.753C60.1099 56.753 60.0499 56.763 59.9899 56.773C59.9599 56.773 59.9299 56.773 59.8999 56.773C59.8699 56.773 59.8499 56.773 59.8199 56.773C59.7599 56.773 59.6999 56.773 59.6399 56.773C59.6099 56.773 59.5799 56.773 59.5499 56.773C59.5299 56.773 59.4999 56.773 59.4799 56.773C59.4099 56.773 59.3498 56.773 59.2798 56.773C59.2498 56.773 59.2199 56.773 59.1799 56.773C59.1599 56.773 59.1399 56.773 59.1199 56.773C59.0399 56.773 58.9599 56.773 58.8799 56.753C58.8499 56.753 58.8198 56.753 58.7798 56.753H58.7299C58.7299 56.753 58.6799 56.743 58.6599 56.743C58.5799 56.743 58.4999 56.723 58.4099 56.713C58.3899 56.713 58.3699 56.713 58.3499 56.713H58.3199C58.3199 56.713 58.2399 56.693 58.2099 56.683C58.1399 56.673 58.0799 56.653 58.0099 56.643C57.9599 56.633 57.9199 56.623 57.8699 56.603C57.8099 56.583 57.7498 56.573 57.6898 56.553H57.6499C57.5799 56.513 57.4999 56.493 57.4299 56.463H57.3999C57.3199 56.423 57.2499 56.383 57.1699 56.353L57.0999 56.323C57.0199 56.283 56.9399 56.243 56.8599 56.193L56.8199 56.163L56.7798 56.143C56.7798 56.143 56.7398 56.113 56.7198 56.103C56.6998 56.093 56.6799 56.073 56.6599 56.063C56.6399 56.053 56.6199 56.033 56.5999 56.023C56.5799 56.013 56.5599 55.993 56.5499 55.983C56.5299 55.973 56.5099 55.953 56.4899 55.943L56.4398 55.903C56.4398 55.903 56.4099 55.873 56.3899 55.863L56.3699 55.843L56.3499 55.823C56.3499 55.823 56.2999 55.773 56.2699 55.743L56.2399 55.713C56.2399 55.713 56.1799 55.643 56.1499 55.603L56.1299 55.573C56.1299 55.573 56.0999 55.523 56.0799 55.503L56.0598 55.463C56.0598 55.463 56.0299 55.423 56.0199 55.403V55.383L55.9998 55.353C55.9998 55.353 55.9798 55.313 55.9698 55.303L55.9499 55.263C55.9499 55.263 55.9299 55.223 55.9299 55.213V55.193L55.9099 55.173C55.9099 55.173 55.8999 55.143 55.8899 55.123V55.073C55.8899 55.073 55.8699 55.043 55.8599 55.023V54.973C55.8599 54.973 55.8398 54.933 55.8398 54.923V54.873C55.8398 54.873 55.8398 54.833 55.8398 54.823V54.763L55.8098 50.343C55.8098 50.343 55.8098 50.383 55.8098 50.403L55.8499 50.413Z" fill="#EDEDED"/>
<path d="M56.8999 48.8826C55.5099 49.6926 55.4998 50.9926 56.8798 51.8026C58.2698 52.6126 60.5198 52.6026 61.9098 51.8026C63.2998 50.9926 63.3099 49.6927 61.9299 48.8927C60.5399 48.0827 58.2899 48.0827 56.8999 48.8927V48.8826Z" fill="white"/>
<path d="M56.2699 49.8026C56.3199 50.1826 56.5399 50.5327 56.8299 50.7827C57.1299 51.0427 57.5099 51.2127 57.8899 51.3327C58.8899 51.6427 59.9798 51.6327 60.9698 51.3127C61.3498 51.1927 61.7199 51.0227 62.0099 50.7627C62.3099 50.5027 62.5199 50.1227 62.5499 49.7227C62.5899 50.0227 62.5899 50.3427 62.4899 50.6227C62.3699 50.9327 62.1099 51.1827 61.8299 51.3727C61.1599 51.8227 60.3298 51.9927 59.5298 52.0127C59.0098 52.0227 58.4799 51.9727 57.9799 51.8127C57.5899 51.6927 57.2099 51.5027 56.8899 51.2527C56.5699 51.0027 56.3799 50.6826 56.3199 50.2726C56.2899 50.1026 56.2899 49.9027 56.2899 49.7227C56.2899 49.7427 56.2899 49.7927 56.2899 49.8127L56.2699 49.8026Z" fill="#DDDDDD"/>
<path d="M57.1899 48.4524C55.9599 49.1624 55.9499 50.3124 57.1699 51.0224C58.3899 51.7324 60.3799 51.7324 61.6099 51.0224C62.8399 50.3124 62.8499 49.1624 61.6199 48.4524C60.3899 47.7424 58.4099 47.7424 57.1799 48.4524H57.1899Z" fill="white"/>
<path d="M66.7199 59.0032C65.0099 59.9932 64.9999 61.5832 66.6999 62.5732C68.3999 63.5632 71.1499 63.5532 72.8599 62.5732C74.5699 61.5832 74.5799 59.9932 72.8799 59.0032C71.1799 58.0132 68.4299 58.0132 66.7199 59.0032Z" fill="#4CAAC0"/>
<path d="M65.3499 55.9735C65.3499 55.9735 65.3499 56.0135 65.3499 56.0235V56.0735C65.3499 56.0735 65.3599 56.1135 65.3599 56.1235V56.1736C65.3599 56.1736 65.3799 56.2035 65.3799 56.2235V56.2735C65.3799 56.2735 65.3999 56.3035 65.4099 56.3235L65.4299 56.3735C65.4299 56.3735 65.4399 56.4136 65.4499 56.4236L65.4698 56.4635C65.4698 56.4635 65.4898 56.5035 65.4998 56.5135L65.5199 56.5535C65.5199 56.5535 65.5498 56.5936 65.5598 56.6136L65.5799 56.6535C65.5799 56.6535 65.6099 56.7035 65.6299 56.7235L65.6499 56.7535C65.6499 56.7535 65.7099 56.8236 65.7399 56.8636L65.7699 56.8936C65.7699 56.8936 65.8199 56.9435 65.8499 56.9735L65.8899 57.0135C65.8899 57.0135 65.9198 57.0435 65.9398 57.0535C65.9598 57.0635 65.9699 57.0835 65.9899 57.0935C66.0099 57.1035 66.0299 57.1235 66.0499 57.1335C66.0699 57.1435 66.0799 57.1636 66.0999 57.1736C66.1199 57.1836 66.1399 57.2035 66.1599 57.2135C66.1799 57.2235 66.1998 57.2435 66.2198 57.2535C66.2398 57.2635 66.2598 57.2835 66.2798 57.2935C66.3098 57.3135 66.3299 57.3235 66.3599 57.3435C66.4399 57.3835 66.5199 57.4335 66.5999 57.4735L66.6699 57.5035C66.7399 57.5335 66.8199 57.5735 66.8999 57.6035H66.9299C67.0099 57.6435 67.0998 57.6736 67.1898 57.7036C67.2498 57.7236 67.3099 57.7435 67.3699 57.7535C67.4199 57.7635 67.4599 57.7835 67.5099 57.7935C67.5699 57.8135 67.6399 57.8236 67.7099 57.8336C67.7599 57.8336 67.8099 57.8536 67.8499 57.8636H67.9099C67.9899 57.8836 68.0699 57.8935 68.1599 57.9035C68.1799 57.9035 68.2099 57.9035 68.2299 57.9035C68.2799 57.9035 68.3299 57.9035 68.3699 57.9135C68.4499 57.9135 68.5299 57.9235 68.6099 57.9335C68.6599 57.9335 68.7099 57.9335 68.7599 57.9335C68.8299 57.9335 68.8899 57.9335 68.9599 57.9335C69.0099 57.9335 69.0699 57.9335 69.1199 57.9335C69.1799 57.9335 69.2399 57.9335 69.2999 57.9335C69.3599 57.9335 69.4099 57.9336 69.4599 57.9236C69.5199 57.9236 69.5799 57.9135 69.6399 57.9035C69.6899 57.9035 69.7499 57.8935 69.7999 57.8835C69.8599 57.8835 69.9299 57.8635 69.9899 57.8535C70.0399 57.8535 70.0899 57.8335 70.1399 57.8235C70.2099 57.8035 70.2899 57.7935 70.3599 57.7735C70.4099 57.7635 70.4598 57.7536 70.4998 57.7336C70.5298 57.7336 70.5499 57.7135 70.5799 57.7135C70.6499 57.6935 70.7299 57.6636 70.7999 57.6436C70.8199 57.6436 70.8399 57.6335 70.8599 57.6235C70.9199 57.6035 70.9899 57.5735 71.0499 57.5435C71.0799 57.5335 71.1099 57.5135 71.1399 57.5035C71.2299 57.4635 71.3199 57.4136 71.3999 57.3636C71.9299 57.0636 72.2499 56.6835 72.3899 56.2935C72.4099 56.2235 72.4298 56.1635 72.4398 56.0935C72.4398 56.0635 72.4399 56.0235 72.4499 55.9935C72.4599 55.9635 72.4499 55.9236 72.4499 55.8936L72.4799 60.3135C72.4799 60.8435 72.1299 61.3735 71.4299 61.7835C71.3499 61.8335 71.2599 61.8736 71.1699 61.9236C71.1399 61.9336 71.1099 61.9535 71.0799 61.9635C71.0299 61.9835 70.9699 62.0135 70.9199 62.0335H70.8899C70.8899 62.0335 70.8499 62.0635 70.8299 62.0635C70.7599 62.0935 70.6899 62.1135 70.6099 62.1335C70.5899 62.1335 70.5598 62.1535 70.5298 62.1535C70.5098 62.1535 70.4999 62.1636 70.4799 62.1736C70.4499 62.1736 70.4199 62.1835 70.3899 62.1935C70.3199 62.2135 70.2399 62.2335 70.1699 62.2435C70.1499 62.2435 70.1299 62.2535 70.1099 62.2535C70.0799 62.2535 70.0499 62.2535 70.0199 62.2735C69.9599 62.2835 69.8899 62.2935 69.8299 62.3035C69.7999 62.3035 69.7798 62.3035 69.7498 62.3135C69.7198 62.3135 69.6899 62.3135 69.6699 62.3135C69.6099 62.3135 69.5499 62.3236 69.4899 62.3336C69.4599 62.3336 69.4299 62.3336 69.3999 62.3336C69.3699 62.3336 69.3499 62.3336 69.3199 62.3336C69.2599 62.3336 69.1999 62.3336 69.1399 62.3336C69.1099 62.3336 69.0799 62.3336 69.0499 62.3336C69.0299 62.3336 68.9999 62.3336 68.9799 62.3336C68.9099 62.3336 68.8498 62.3336 68.7798 62.3336C68.7498 62.3336 68.7199 62.3336 68.6799 62.3336C68.6599 62.3336 68.6399 62.3336 68.6199 62.3336C68.5399 62.3336 68.4599 62.3335 68.3799 62.3135C68.3499 62.3135 68.3198 62.3135 68.2798 62.3135H68.2299C68.2299 62.3135 68.1799 62.3035 68.1599 62.3035C68.0799 62.3035 67.9999 62.2835 67.9099 62.2735H67.8199C67.8199 62.2735 67.7399 62.2436 67.7099 62.2336C67.6399 62.2236 67.5799 62.2035 67.5099 62.1935C67.4599 62.1835 67.4199 62.1735 67.3699 62.1535C67.3099 62.1335 67.2498 62.1235 67.1898 62.1035H67.1499C67.0799 62.0635 66.9999 62.0436 66.9299 62.0135H66.8999C66.8199 61.9735 66.7499 61.9335 66.6699 61.9035L66.5999 61.8735C66.5199 61.8335 66.4399 61.7935 66.3599 61.7435L66.3199 61.7135L66.2798 61.6935C66.2798 61.6935 66.2398 61.6635 66.2198 61.6535C66.1998 61.6435 66.1799 61.6236 66.1599 61.6136C66.1399 61.6036 66.1199 61.5835 66.0999 61.5735C66.0799 61.5635 66.0599 61.5435 66.0499 61.5335C66.0299 61.5235 66.0099 61.5035 65.9899 61.4935C65.9699 61.4835 65.9598 61.4636 65.9398 61.4536C65.9198 61.4436 65.9099 61.4235 65.8899 61.4135L65.8699 61.3936L65.8499 61.3735C65.8499 61.3735 65.7999 61.3235 65.7699 61.2935L65.7399 61.2635C65.7399 61.2635 65.6799 61.1935 65.6499 61.1535L65.6299 61.1235C65.6299 61.1235 65.5999 61.0735 65.5799 61.0535L65.5598 61.0135C65.5598 61.0135 65.5299 60.9736 65.5199 60.9536V60.9335L65.4998 60.9035C65.4998 60.9035 65.4798 60.8635 65.4698 60.8535L65.4499 60.8135C65.4499 60.8135 65.4299 60.7736 65.4299 60.7635V60.7435L65.4099 60.7235C65.4099 60.7235 65.3999 60.6936 65.3899 60.6736V60.6235C65.3899 60.6235 65.3699 60.5935 65.3599 60.5735V60.5235C65.3599 60.5235 65.3398 60.4835 65.3398 60.4735V60.4236C65.3398 60.4236 65.3398 60.3835 65.3398 60.3735V60.3135L65.3098 55.8936C65.3098 55.8936 65.3098 55.9336 65.3098 55.9536L65.3499 55.9735Z" fill="#EDEDED"/>
<path d="M66.3899 54.4432C64.9999 55.2432 64.9899 56.5532 66.3699 57.3632C67.7599 58.1732 70.0099 58.1632 71.3999 57.3632C72.7899 56.5532 72.7999 55.2532 71.4199 54.4532C70.0299 53.6432 67.7799 53.6432 66.3899 54.4532V54.4432Z" fill="white"/>
<path d="M65.7599 55.3632C65.8099 55.7432 66.0299 56.0932 66.3199 56.3432C66.6199 56.6032 66.9999 56.7732 67.3799 56.8932C68.3799 57.2032 69.4699 57.1932 70.4599 56.8732C70.8399 56.7532 71.2098 56.5832 71.4998 56.3232C71.7998 56.0632 72.0099 55.6832 72.0399 55.2832C72.0799 55.5832 72.0799 55.9032 71.9799 56.1832C71.8599 56.4932 71.5999 56.7432 71.3199 56.9332C70.6499 57.3832 69.8199 57.5532 69.0199 57.5732C68.4999 57.5832 67.9698 57.5332 67.4698 57.3732C67.0798 57.2532 66.6999 57.0632 66.3799 56.8132C66.0599 56.5632 65.8698 56.2432 65.8098 55.8332C65.7798 55.6632 65.7798 55.4632 65.7798 55.2832C65.7798 55.3032 65.7798 55.3532 65.7798 55.3732L65.7599 55.3632Z" fill="#DDDDDD"/>
<path d="M66.6899 54.013C65.4599 54.723 65.4499 55.873 66.6699 56.583C67.8899 57.293 69.8799 57.293 71.1099 56.583C72.3399 55.873 72.3499 54.723 71.1199 54.013C69.8999 53.303 67.9099 53.303 66.6799 54.013H66.6899Z" fill="white"/>
<path d="M76.2199 64.5628C74.5099 65.5528 74.4999 67.1428 76.1999 68.1328C77.8999 69.1228 80.6599 69.1128 82.3599 68.1328C84.0699 67.1428 84.0799 65.5528 82.3799 64.5628C80.6799 63.5728 77.9299 63.5728 76.2199 64.5628Z" fill="#4CAAC0"/>
<path d="M74.8398 61.5331C74.8398 61.5331 74.8398 61.5731 74.8398 61.5831V61.6331C74.8398 61.6331 74.8499 61.6731 74.8499 61.6831V61.7331C74.8499 61.7331 74.8699 61.7631 74.8699 61.7831V61.8331C74.8699 61.8331 74.8899 61.8631 74.8999 61.8831L74.9199 61.9331C74.9199 61.9331 74.9298 61.9731 74.9398 61.9831L74.9599 62.0231C74.9599 62.0231 74.9799 62.0631 74.9899 62.0731L75.0099 62.1131C75.0099 62.1131 75.0399 62.1531 75.0499 62.1731L75.0699 62.2131C75.0699 62.2131 75.0999 62.2631 75.1199 62.2831L75.1399 62.3131C75.1399 62.3131 75.1999 62.3831 75.2299 62.4231L75.2599 62.4531C75.2599 62.4531 75.3098 62.5031 75.3398 62.5331L75.3799 62.5731C75.3799 62.5731 75.4099 62.6031 75.4299 62.6131L75.4799 62.6531C75.4799 62.6531 75.5199 62.6831 75.5399 62.6931L75.5898 62.7331C75.5898 62.7331 75.6299 62.7631 75.6499 62.7731C75.6699 62.7831 75.6899 62.8031 75.7099 62.8131C75.7299 62.8231 75.7499 62.8431 75.7699 62.8531C75.7999 62.8731 75.8199 62.8831 75.8499 62.9031C75.9299 62.9431 76.0098 62.9931 76.0898 63.0331L76.1599 63.0631C76.2299 63.0931 76.3099 63.1331 76.3899 63.1631H76.4199C76.4999 63.2031 76.5899 63.2331 76.6799 63.2631C76.7399 63.2831 76.7999 63.3031 76.8599 63.3131C76.9099 63.3231 76.9498 63.3431 76.9998 63.3531C77.0598 63.3731 77.1299 63.3831 77.1999 63.3931C77.2499 63.3931 77.2998 63.4131 77.3398 63.4231H77.3999C77.4799 63.4431 77.5599 63.4531 77.6499 63.4631C77.6699 63.4631 77.6998 63.4631 77.7198 63.4631C77.7698 63.4631 77.8199 63.4631 77.8599 63.4731C77.9399 63.4731 78.0199 63.4831 78.0999 63.4931C78.1499 63.4931 78.1998 63.4931 78.2498 63.4931C78.3198 63.4931 78.3799 63.4931 78.4499 63.4931C78.4999 63.4931 78.5599 63.4931 78.6099 63.4931C78.6699 63.4931 78.7299 63.4931 78.7899 63.4931C78.8499 63.4931 78.8999 63.4931 78.9499 63.4831C79.0099 63.4831 79.0699 63.4731 79.1299 63.4631C79.1799 63.4631 79.2399 63.4531 79.2899 63.4431C79.3499 63.4431 79.4199 63.4231 79.4799 63.4131C79.5299 63.4131 79.5799 63.3931 79.6299 63.3831C79.6999 63.3631 79.7799 63.3531 79.8499 63.3331C79.8999 63.3231 79.9499 63.3131 79.9899 63.2931C80.0199 63.2931 80.0399 63.2731 80.0699 63.2731C80.1399 63.2531 80.2199 63.2231 80.2899 63.2031C80.3099 63.2031 80.3299 63.1931 80.3499 63.1831C80.4099 63.1631 80.4799 63.1331 80.5399 63.1031C80.5699 63.0931 80.5999 63.0731 80.6299 63.0631C80.7199 63.0231 80.8099 62.9731 80.8899 62.9231C81.4199 62.6231 81.7399 62.2431 81.8799 61.8531C81.8999 61.7831 81.9199 61.7231 81.9299 61.6531C81.9299 61.6231 81.9298 61.5831 81.9398 61.5531C81.9398 61.5231 81.9398 61.4831 81.9398 61.4531L81.9698 65.8731C81.9698 66.4031 81.6199 66.9331 80.9199 67.3431C80.8399 67.3931 80.7499 67.4331 80.6599 67.4831C80.6299 67.4931 80.5999 67.5131 80.5699 67.5231C80.5199 67.5431 80.4599 67.5731 80.4099 67.5931H80.3799C80.3799 67.5931 80.3399 67.6231 80.3199 67.6231C80.2499 67.6531 80.1799 67.6731 80.0999 67.6931C80.0799 67.6931 80.0499 67.7131 80.0199 67.7131C79.9999 67.7131 79.9898 67.7231 79.9698 67.7331C79.9398 67.7331 79.9099 67.7431 79.8799 67.7531C79.8099 67.7731 79.7299 67.7931 79.6599 67.8031C79.6399 67.8031 79.6199 67.8131 79.5999 67.8131C79.5699 67.8131 79.5399 67.8131 79.5099 67.8331C79.4499 67.8431 79.3799 67.8531 79.3199 67.8631C79.2899 67.8631 79.2699 67.8631 79.2399 67.8731C79.2099 67.8731 79.1799 67.8731 79.1599 67.8731C79.0999 67.8731 79.0399 67.8831 78.9799 67.8931C78.9499 67.8931 78.9199 67.8931 78.8899 67.8931C78.8599 67.8931 78.8398 67.8931 78.8098 67.8931C78.7498 67.8931 78.6899 67.8931 78.6299 67.8931C78.5999 67.8931 78.5699 67.8931 78.5399 67.8931C78.5199 67.8931 78.4898 67.8931 78.4698 67.8931C78.3998 67.8931 78.3399 67.8931 78.2699 67.8931C78.2399 67.8931 78.2099 67.8931 78.1699 67.8931C78.1499 67.8931 78.1299 67.8931 78.1099 67.8931C78.0299 67.8931 77.9499 67.8931 77.8699 67.8731C77.8399 67.8731 77.8099 67.8731 77.7699 67.8731H77.7198C77.7198 67.8731 77.6699 67.8631 77.6499 67.8631C77.5699 67.8631 77.4899 67.8431 77.3999 67.8331H77.3098C77.3098 67.8331 77.2299 67.8031 77.1999 67.7931C77.1299 67.7831 77.0698 67.7631 76.9998 67.7531C76.9498 67.7431 76.9099 67.7331 76.8599 67.7131C76.7999 67.6931 76.7399 67.6831 76.6799 67.6631H76.6399C76.5699 67.6231 76.4899 67.6031 76.4199 67.5731H76.3899C76.3099 67.5331 76.2399 67.4931 76.1599 67.4631C76.1399 67.4531 76.1198 67.4431 76.0898 67.4331C76.0098 67.3931 75.9299 67.3531 75.8499 67.3031L75.8098 67.2731L75.7699 67.2531C75.7699 67.2531 75.7299 67.2231 75.7099 67.2131C75.6899 67.2031 75.6699 67.1831 75.6499 67.1731C75.6299 67.1631 75.6098 67.1431 75.5898 67.1331C75.5698 67.1231 75.5499 67.1031 75.5399 67.0931C75.5199 67.0831 75.4999 67.0631 75.4799 67.0531C75.4599 67.0431 75.4499 67.0231 75.4299 67.0131C75.4099 67.0031 75.3999 66.9831 75.3799 66.9731L75.3599 66.9531L75.3398 66.9331C75.3398 66.9331 75.2899 66.8831 75.2599 66.8531L75.2299 66.8231C75.2299 66.8231 75.1699 66.7531 75.1399 66.7131L75.1199 66.6831C75.1199 66.6831 75.0899 66.6331 75.0699 66.6131L75.0499 66.5731C75.0499 66.5731 75.0199 66.5331 75.0099 66.5131V66.4931L74.9899 66.4631C74.9899 66.4631 74.9699 66.4231 74.9599 66.4131L74.9398 66.3731C74.9398 66.3731 74.9199 66.3331 74.9199 66.3231V66.3031L74.8999 66.2831C74.8999 66.2831 74.8899 66.2531 74.8799 66.2331V66.1831C74.8799 66.1831 74.8599 66.1531 74.8499 66.1331V66.0831C74.8499 66.0831 74.8299 66.0431 74.8299 66.0331V65.9831C74.8299 65.9831 74.8299 65.9431 74.8299 65.9331V65.8731L74.7999 61.4531C74.7999 61.4531 74.7999 61.4931 74.7999 61.5131L74.8398 61.5331Z" fill="#EDEDED"/>
<path d="M75.8899 60.0028C74.4999 60.8128 74.4899 62.1128 75.8699 62.9228C77.2599 63.7328 79.5099 63.7228 80.8999 62.9228C82.2899 62.1228 82.2999 60.8128 80.9199 60.0128C79.5299 59.2028 77.2799 59.2028 75.8899 60.0128V60.0028Z" fill="white"/>
<path d="M75.2599 60.9228C75.3099 61.3028 75.5299 61.6528 75.8199 61.9028C76.1199 62.1628 76.4999 62.3328 76.8799 62.4528C77.8799 62.7628 78.9699 62.7528 79.9599 62.4328C80.3399 62.3128 80.7098 62.1428 80.9998 61.8828C81.2998 61.6228 81.5099 61.2428 81.5399 60.8428C81.5799 61.1428 81.5799 61.4628 81.4799 61.7428C81.3599 62.0528 81.0999 62.3028 80.8199 62.4928C80.1499 62.9428 79.3199 63.1128 78.5199 63.1328C77.9999 63.1428 77.4698 63.0928 76.9698 62.9328C76.5798 62.8128 76.1999 62.6228 75.8799 62.3728C75.5599 62.1228 75.3698 61.8028 75.3098 61.3928C75.2798 61.2228 75.2798 61.0228 75.2798 60.8428C75.2798 60.8628 75.2798 60.9128 75.2798 60.9328L75.2599 60.9228Z" fill="#DDDDDD"/>
<path d="M76.1899 59.5725C74.9599 60.2825 74.9499 61.4325 76.1699 62.1425C77.3899 62.8525 79.3799 62.8525 80.6099 62.1425C81.8399 61.4325 81.8499 60.2825 80.6199 59.5725C79.3999 58.8625 77.4099 58.8625 76.1799 59.5725H76.1899Z" fill="white"/>
</svg>
