<svg width="403" height="202" viewBox="0 0 403 202" fill="none" xmlns="http://www.w3.org/2000/svg">
<path d="M280.34 43.5829V43.6829L280.36 43.7129V43.7429L280.38 43.7729V43.8029L280.4 43.8329L280.42 43.8729V43.9029L280.45 43.9429L280.47 43.9729C280.47 43.9729 280.49 44.0029 280.5 44.0129L280.52 44.0429C280.52 44.0429 280.54 44.0729 280.55 44.0929V44.1129C280.55 44.1129 280.6 44.1629 280.63 44.1829L280.65 44.2029C280.65 44.2029 280.69 44.2429 280.7 44.2529L280.73 44.2729L280.76 44.3029L280.79 44.3329L280.83 44.3629L280.87 44.3929L280.91 44.4229L280.95 44.4529L280.99 44.4829C280.99 44.4829 281.03 44.5029 281.04 44.5129C281.09 44.5429 281.15 44.5729 281.2 44.5929L281.24 44.6129C281.24 44.6129 281.34 44.6529 281.39 44.6829H281.41C281.47 44.7129 281.52 44.7329 281.58 44.7529C281.62 44.7629 281.66 44.7729 281.7 44.7829C281.73 44.7829 281.76 44.8029 281.79 44.8129C281.83 44.8229 281.88 44.8329 281.92 44.8429C281.95 44.8429 281.98 44.8529 282.02 44.8629H282.06C282.11 44.8829 282.17 44.8829 282.22 44.8929H282.27C282.27 44.8929 282.33 44.9029 282.37 44.9029C282.42 44.9029 282.48 44.9029 282.53 44.9129C282.56 44.9129 282.6 44.9129 282.63 44.9129C282.67 44.9129 282.72 44.9129 282.76 44.9129C282.8 44.9129 282.83 44.9129 282.87 44.9129C282.91 44.9129 282.95 44.9129 282.99 44.9129C283.03 44.9129 283.06 44.9129 283.1 44.9129C283.14 44.9129 283.18 44.9129 283.22 44.9029C283.26 44.9029 283.29 44.9029 283.33 44.8829C283.37 44.8829 283.41 44.8729 283.46 44.8629C283.49 44.8629 283.53 44.8529 283.56 44.8429C283.61 44.8329 283.66 44.8229 283.71 44.8029C283.74 44.8029 283.77 44.7829 283.8 44.7729L283.85 44.7529C283.85 44.7529 283.95 44.7229 283.99 44.7029L284.03 44.6829C284.03 44.6829 284.11 44.6429 284.16 44.6329C284.18 44.6329 284.2 44.6129 284.22 44.6029C284.28 44.5729 284.34 44.5429 284.39 44.5129C284.74 44.3129 284.96 44.0629 285.05 43.8029C285.06 43.7629 285.08 43.7129 285.08 43.6729C285.08 43.6529 285.08 43.6329 285.08 43.6029C285.08 43.5829 285.08 43.5629 285.08 43.5329L285.1 89.8429C285.1 90.1929 284.87 90.5529 284.4 90.8229C284.34 90.8529 284.29 90.8829 284.23 90.9129C284.21 90.9129 284.19 90.9329 284.17 90.9429C284.13 90.9629 284.1 90.9729 284.06 90.9929H284.04L284 91.0129C284 91.0129 283.9 91.0429 283.86 91.0629L283.81 91.0829H283.78C283.78 91.0829 283.74 91.1029 283.72 91.1129C283.67 91.1229 283.62 91.1429 283.57 91.1529H283.53C283.53 91.1529 283.49 91.1729 283.47 91.1729C283.43 91.1729 283.39 91.1929 283.34 91.1929C283.32 91.1929 283.31 91.1929 283.29 91.1929C283.27 91.1929 283.25 91.1929 283.23 91.1929C283.19 91.1929 283.15 91.1929 283.11 91.2029C283.09 91.2029 283.07 91.2029 283.05 91.2029C283.03 91.2029 283.01 91.2029 283 91.2029C282.96 91.2029 282.92 91.2029 282.88 91.2029C282.86 91.2029 282.84 91.2029 282.82 91.2029C282.8 91.2029 282.79 91.2029 282.77 91.2029C282.73 91.2029 282.68 91.2029 282.64 91.2029C282.62 91.2029 282.6 91.2029 282.58 91.2029H282.54C282.49 91.2029 282.43 91.2029 282.38 91.1929C282.36 91.1929 282.34 91.1929 282.32 91.1929H282.24C282.18 91.1729 282.13 91.1729 282.08 91.1629H282.02C282.02 91.1629 281.97 91.1429 281.94 91.1329C281.9 91.1329 281.85 91.1129 281.81 91.1029C281.78 91.1029 281.75 91.0829 281.72 91.0729C281.68 91.0629 281.64 91.0529 281.6 91.0429H281.57C281.57 91.0429 281.47 91.0029 281.43 90.9829H281.41C281.36 90.9529 281.31 90.9329 281.26 90.9129L281.22 90.8929C281.17 90.8629 281.11 90.8429 281.06 90.8129L281.03 90.7929L281 90.7729L280.96 90.7429L280.92 90.7129L280.88 90.6829L280.84 90.6529L280.8 90.6229L280.77 90.5929L280.74 90.5629H280.73V90.5429C280.73 90.5429 280.68 90.5029 280.66 90.4929L280.64 90.4729C280.64 90.4729 280.6 90.4229 280.58 90.4029V90.3829C280.58 90.3829 280.54 90.3529 280.53 90.3329L280.51 90.3029C280.51 90.3029 280.49 90.2729 280.48 90.2629V90.2329L280.45 90.1929V90.1629L280.42 90.1229V90.1029H280.41V90.0529L280.39 90.0229V89.9729H280.38V89.8329C280.38 89.8329 280.37 89.9429 280.37 89.9329L280.35 43.5029C280.35 43.5029 280.35 43.5329 280.35 43.5429L280.34 43.5829Z" fill="#C4C4C4"/>
<path d="M281.04 42.5632C280.11 43.1032 280.11 43.9732 281.03 44.5032C281.95 45.0432 283.46 45.0432 284.38 44.5032C285.31 43.9632 285.31 43.0932 284.39 42.5632C283.47 42.0232 281.97 42.0232 281.04 42.5632Z" fill="white"/>
<path d="M182.34 101.352V101.452L182.36 101.482V101.512L182.38 101.542V101.572L182.4 101.602L182.42 101.642V101.672L182.45 101.712L182.47 101.742C182.47 101.742 182.49 101.772 182.5 101.782L182.52 101.812C182.52 101.812 182.54 101.842 182.55 101.862V101.882C182.55 101.882 182.6 101.932 182.63 101.952L182.65 101.972C182.65 101.972 182.69 102.012 182.7 102.022L182.73 102.042L182.76 102.072L182.79 102.102L182.83 102.132L182.87 102.162L182.91 102.192L182.95 102.222L182.99 102.252C182.99 102.252 183.03 102.272 183.04 102.282C183.09 102.312 183.15 102.342 183.2 102.362L183.24 102.382C183.24 102.382 183.34 102.422 183.39 102.452H183.41C183.47 102.482 183.52 102.502 183.58 102.522C183.62 102.532 183.66 102.542 183.7 102.552C183.73 102.552 183.76 102.572 183.79 102.582C183.83 102.592 183.88 102.602 183.92 102.612C183.95 102.612 183.98 102.622 184.02 102.632H184.06C184.11 102.652 184.17 102.652 184.22 102.662H184.27C184.27 102.662 184.33 102.672 184.37 102.672C184.42 102.672 184.48 102.672 184.53 102.682C184.56 102.682 184.6 102.682 184.63 102.682C184.67 102.682 184.72 102.682 184.76 102.682C184.8 102.682 184.83 102.682 184.87 102.682C184.91 102.682 184.95 102.682 184.99 102.682C185.03 102.682 185.06 102.682 185.1 102.682C185.14 102.682 185.18 102.682 185.22 102.672C185.26 102.672 185.29 102.672 185.33 102.652C185.37 102.652 185.41 102.642 185.46 102.632C185.49 102.632 185.53 102.622 185.56 102.612C185.61 102.602 185.66 102.592 185.71 102.572C185.74 102.572 185.77 102.552 185.8 102.542L185.85 102.522C185.85 102.522 185.95 102.492 185.99 102.472L186.03 102.452C186.03 102.452 186.11 102.412 186.16 102.402C186.18 102.402 186.2 102.382 186.22 102.372C186.28 102.342 186.34 102.312 186.39 102.282C186.74 102.082 186.96 101.832 187.05 101.572C187.06 101.532 187.08 101.482 187.08 101.442C187.08 101.422 187.08 101.402 187.08 101.372C187.08 101.352 187.08 101.332 187.08 101.302L187.1 147.612C187.1 147.962 186.87 148.322 186.4 148.592C186.34 148.622 186.29 148.652 186.23 148.682C186.21 148.682 186.19 148.702 186.17 148.712C186.13 148.732 186.1 148.742 186.06 148.762H186.04L186 148.782C186 148.782 185.9 148.812 185.86 148.832L185.81 148.852H185.78C185.78 148.852 185.74 148.872 185.72 148.882C185.67 148.892 185.62 148.912 185.57 148.922H185.53C185.53 148.922 185.49 148.942 185.47 148.942C185.43 148.942 185.39 148.962 185.34 148.962C185.32 148.962 185.31 148.962 185.29 148.962C185.27 148.962 185.25 148.962 185.23 148.962C185.19 148.962 185.15 148.962 185.11 148.972C185.09 148.972 185.07 148.972 185.05 148.972C185.03 148.972 185.01 148.972 185 148.972C184.96 148.972 184.92 148.972 184.88 148.972C184.86 148.972 184.84 148.972 184.82 148.972C184.8 148.972 184.79 148.972 184.77 148.972C184.73 148.972 184.68 148.972 184.64 148.972C184.62 148.972 184.6 148.972 184.58 148.972H184.54C184.49 148.972 184.43 148.972 184.38 148.962C184.36 148.962 184.34 148.962 184.32 148.962H184.24C184.18 148.942 184.13 148.942 184.08 148.932H184.02C184.02 148.932 183.97 148.912 183.94 148.902C183.9 148.902 183.85 148.882 183.81 148.872C183.78 148.872 183.75 148.852 183.72 148.842C183.68 148.832 183.64 148.822 183.6 148.812H183.57C183.57 148.812 183.47 148.772 183.43 148.752H183.41C183.36 148.722 183.31 148.702 183.26 148.682L183.22 148.662C183.17 148.632 183.11 148.612 183.06 148.582L183.03 148.562L183 148.542L182.96 148.512L182.92 148.482L182.88 148.452L182.84 148.422L182.8 148.392L182.77 148.362L182.74 148.332H182.73V148.312C182.73 148.312 182.68 148.272 182.66 148.262L182.64 148.242C182.64 148.242 182.6 148.192 182.58 148.172V148.152C182.58 148.152 182.54 148.122 182.53 148.102L182.51 148.072C182.51 148.072 182.49 148.042 182.48 148.032V148.002L182.45 147.962V147.932L182.42 147.892V147.872H182.41V147.822L182.39 147.792V147.742H182.38V147.602C182.38 147.602 182.37 147.712 182.37 147.702L182.35 101.272C182.35 101.272 182.35 101.302 182.35 101.312L182.34 101.352Z" fill="#C4C4C4"/>
<path d="M183.04 100.333C182.11 100.873 182.11 101.743 183.03 102.273C183.95 102.813 185.46 102.813 186.38 102.273C187.31 101.733 187.31 100.863 186.39 100.333C185.47 99.7927 183.97 99.7927 183.04 100.333Z" fill="white"/>
</svg>
