<svg width="403" height="202" viewBox="0 0 403 202" fill="none" xmlns="http://www.w3.org/2000/svg">
<path d="M115.3 66.0724C107.36 70.6624 107.31 78.0924 115.2 82.6824C123.09 87.2724 135.93 87.2624 143.88 82.6824C151.82 78.0924 151.87 70.6624 143.97 66.0724C136.08 61.4824 123.24 61.4824 115.3 66.0724Z" fill="#C4C4C4"/>
<path d="M110.25 32.4718C110.25 32.5518 110.25 32.6418 110.27 32.7218C110.27 32.7918 110.29 32.8718 110.3 32.9418C110.31 33.0218 110.32 33.1118 110.34 33.1918C110.35 33.2618 110.37 33.3418 110.39 33.4118C110.41 33.4918 110.43 33.5718 110.45 33.6518C110.47 33.7218 110.49 33.8018 110.51 33.8718C110.53 33.9518 110.56 34.0318 110.59 34.1118C110.62 34.1818 110.64 34.2518 110.67 34.3218C110.7 34.4018 110.74 34.4918 110.78 34.5718C110.81 34.6418 110.84 34.7118 110.88 34.7818C110.92 34.8618 110.96 34.9518 111.01 35.0318C111.05 35.1018 111.08 35.1618 111.12 35.2318C111.18 35.3318 111.24 35.4318 111.3 35.5218C111.34 35.5818 111.38 35.6418 111.42 35.7018C111.49 35.8118 111.57 35.9118 111.65 36.0218C111.68 36.0718 111.72 36.1118 111.75 36.1618C111.88 36.3318 112.03 36.5018 112.18 36.6618C112.22 36.7018 112.26 36.7418 112.3 36.7918C112.42 36.9218 112.54 37.0418 112.68 37.1618C112.74 37.2218 112.8 37.2718 112.86 37.3318C112.94 37.4018 113.02 37.4718 113.1 37.5418C113.17 37.6018 113.25 37.6718 113.33 37.7318C113.41 37.8018 113.5 37.8718 113.59 37.9318C113.67 37.9918 113.75 38.0518 113.84 38.1118C113.93 38.1818 114.03 38.2418 114.12 38.3118C114.21 38.3718 114.29 38.4318 114.38 38.4918C114.48 38.5518 114.58 38.6218 114.68 38.6818C114.81 38.7618 114.93 38.8418 115.06 38.9118C115.42 39.1218 115.79 39.3118 116.18 39.5018C116.28 39.5518 116.38 39.6018 116.48 39.6418C116.83 39.8018 117.18 39.9518 117.54 40.0918C117.59 40.1118 117.63 40.1318 117.68 40.1518C118.07 40.3018 118.47 40.4318 118.87 40.5618C119.15 40.6518 119.43 40.7218 119.72 40.8018C119.94 40.8618 120.15 40.9218 120.37 40.9818C120.67 41.0518 120.98 41.1118 121.28 41.1718C121.5 41.2218 121.73 41.2718 121.95 41.3118C122.04 41.3318 122.14 41.3418 122.23 41.3518C122.61 41.4118 122.99 41.4718 123.38 41.5118C123.49 41.5218 123.6 41.5418 123.71 41.5518C123.93 41.5718 124.15 41.5918 124.37 41.6118C124.74 41.6418 125.12 41.6718 125.49 41.6818C125.73 41.6918 125.97 41.7018 126.21 41.7018C126.51 41.7018 126.82 41.7018 127.12 41.7018C127.37 41.7018 127.63 41.6918 127.88 41.6818C128.16 41.6718 128.44 41.6518 128.72 41.6418C128.98 41.6218 129.23 41.6018 129.49 41.5818C129.77 41.5518 130.04 41.5218 130.32 41.4918C130.57 41.4618 130.82 41.4218 131.06 41.3918C131.35 41.3418 131.65 41.2918 131.94 41.2418C132.17 41.2018 132.4 41.1518 132.63 41.1018C132.98 41.0218 133.32 40.9418 133.66 40.8518C133.88 40.7918 134.1 40.7418 134.32 40.6718C134.44 40.6418 134.55 40.6018 134.67 40.5618C135.01 40.4518 135.35 40.3418 135.68 40.2218C135.78 40.1818 135.87 40.1518 135.97 40.1118C136.27 39.9918 136.56 39.8618 136.85 39.7418C136.99 39.6818 137.14 39.6218 137.28 39.5518C137.7 39.3518 138.1 39.1418 138.5 38.9218C140.95 37.5118 142.48 35.7618 143.09 33.9318C143.19 33.6318 143.27 33.3218 143.32 33.0118C143.35 32.8618 143.36 32.7018 143.38 32.5518C143.39 32.4018 143.4 32.2418 143.4 32.0918L143.54 72.6218C143.54 75.0918 141.92 77.5618 138.65 79.4518C138.26 79.6818 137.85 79.8918 137.44 80.0818C137.3 80.1518 137.15 80.2018 137.01 80.2718C136.76 80.3818 136.52 80.4918 136.27 80.5918C136.23 80.6118 136.18 80.6218 136.14 80.6418C136.05 80.6818 135.95 80.7118 135.85 80.7518C135.52 80.8718 135.18 80.9918 134.84 81.0918C134.72 81.1318 134.61 81.1618 134.49 81.2018C134.41 81.2218 134.33 81.2518 134.25 81.2718C134.11 81.3118 133.97 81.3418 133.82 81.3718C133.48 81.4618 133.14 81.5518 132.79 81.6218C132.7 81.6418 132.61 81.6718 132.51 81.6918C132.37 81.7218 132.23 81.7418 132.1 81.7618C131.81 81.8218 131.52 81.8718 131.22 81.9118C131.1 81.9318 130.99 81.9518 130.87 81.9718C130.74 81.9918 130.61 82.0018 130.48 82.0118C130.21 82.0418 129.93 82.0818 129.65 82.1018C129.52 82.1118 129.39 82.1318 129.25 82.1418C129.13 82.1518 129 82.1518 128.88 82.1618C128.6 82.1818 128.32 82.1918 128.04 82.2018C127.9 82.2018 127.76 82.2218 127.62 82.2218C127.51 82.2218 127.4 82.2218 127.28 82.2218C126.98 82.2218 126.68 82.2218 126.37 82.2218C126.22 82.2218 126.07 82.2218 125.92 82.2218C125.83 82.2218 125.74 82.2118 125.65 82.2018C125.27 82.1818 124.9 82.1618 124.53 82.1318C124.38 82.1218 124.23 82.1118 124.08 82.1018C124.01 82.1018 123.94 82.0818 123.87 82.0718C123.76 82.0618 123.65 82.0418 123.54 82.0318C123.16 81.9818 122.77 81.9318 122.39 81.8718C122.3 81.8518 122.2 81.8418 122.11 81.8218C122.06 81.8218 122.02 81.8118 121.97 81.8018C121.79 81.7718 121.62 81.7218 121.44 81.6918C121.13 81.6318 120.83 81.5718 120.53 81.4918C120.31 81.4418 120.1 81.3718 119.88 81.3118C119.59 81.2318 119.31 81.1518 119.03 81.0718C118.97 81.0518 118.91 81.0418 118.85 81.0218C118.51 80.9118 118.17 80.7918 117.85 80.6718C117.8 80.6518 117.76 80.6318 117.71 80.6118C117.35 80.4718 116.99 80.3218 116.65 80.1618C116.55 80.1118 116.45 80.0718 116.35 80.0218C115.97 79.8318 115.59 79.6418 115.23 79.4318C115.16 79.3918 115.09 79.3518 115.03 79.3118C114.97 79.2718 114.91 79.2318 114.85 79.2018C114.75 79.1418 114.65 79.0718 114.55 79.0118C114.46 78.9518 114.37 78.8918 114.29 78.8318C114.19 78.7618 114.1 78.7018 114.01 78.6318C113.93 78.5718 113.85 78.5118 113.76 78.4518C113.67 78.3818 113.58 78.3218 113.5 78.2518C113.42 78.1918 113.35 78.1218 113.27 78.0618C113.19 77.9918 113.11 77.9218 113.03 77.8518C113 77.8218 112.96 77.7918 112.93 77.7618C112.9 77.7318 112.88 77.7118 112.85 77.6818C112.72 77.5618 112.59 77.4318 112.47 77.3118C112.43 77.2718 112.39 77.2318 112.35 77.1818C112.2 77.0118 112.05 76.8518 111.92 76.6818L111.9 76.6618C111.9 76.6618 111.84 76.5818 111.81 76.5418C111.73 76.4318 111.65 76.3318 111.58 76.2218C111.54 76.1618 111.5 76.1018 111.46 76.0418C111.4 75.9418 111.34 75.8518 111.28 75.7518C111.26 75.7218 111.25 75.7018 111.23 75.6718C111.21 75.6318 111.19 75.5918 111.17 75.5518C111.13 75.4718 111.08 75.3818 111.04 75.3018C111.01 75.2318 110.97 75.1618 110.94 75.0918C110.9 75.0118 110.87 74.9218 110.83 74.8418C110.82 74.8018 110.8 74.7718 110.78 74.7318C110.77 74.7018 110.76 74.6618 110.75 74.6318C110.72 74.5518 110.7 74.4718 110.67 74.3918C110.65 74.3218 110.63 74.2418 110.61 74.1718C110.59 74.0918 110.57 74.0118 110.55 73.9318C110.55 73.8918 110.53 73.8418 110.52 73.8018C110.52 73.7718 110.52 73.7418 110.51 73.7118C110.49 73.6318 110.48 73.5418 110.47 73.4618C110.46 73.3918 110.45 73.3218 110.44 73.2418C110.44 73.1618 110.43 73.0718 110.42 72.9918C110.42 72.9418 110.42 72.8918 110.41 72.8418C110.41 72.7918 110.41 72.7418 110.41 72.6918L110.27 32.1618C110.27 32.2618 110.27 32.3518 110.28 32.4518L110.25 32.4718Z" fill="#EDEDED"/>
<path d="M115.13 25.3523C108.64 29.1023 108.6 35.1723 115.05 38.9223C121.5 42.6723 131.98 42.6623 138.47 38.9223C144.96 35.1723 144.99 29.1023 138.55 25.3623C132.1 21.6123 121.62 21.6123 115.13 25.3623V25.3523Z" fill="white"/>
<path d="M112.19 29.6422C112.41 31.4022 113.43 33.0222 114.78 34.1922C116.19 35.4222 117.94 36.1922 119.73 36.7422C124.37 38.1722 129.45 38.1422 134.07 36.6522C135.83 36.0822 137.55 35.3022 138.93 34.0722C140.31 32.8422 141.3 31.0822 141.42 29.2422C141.6 30.6422 141.63 32.1322 141.12 33.4322C140.55 34.9022 139.36 36.0422 138.05 36.9222C134.93 39.0222 131.09 39.8122 127.32 39.8922C124.88 39.9422 122.43 39.7022 120.1 38.9822C118.27 38.4222 116.52 37.5522 115.01 36.3622C113.51 35.1722 112.64 33.7222 112.34 31.8222C112.22 31.0222 112.18 30.1122 112.18 29.2522C112.18 29.3422 112.16 29.5722 112.18 29.6522L112.19 29.6422Z" fill="#DDDDDD"/>
<path d="M116.51 23.3526C110.78 26.6626 110.75 32.0226 116.44 35.3226C122.13 38.6326 131.38 38.6226 137.11 35.3226C142.84 32.0126 142.87 26.6626 137.18 23.3526C131.49 20.0426 122.24 20.0426 116.51 23.3526Z" fill="white"/>
<path d="M123.75 28.9618C123.8 29.3318 124.01 29.6618 124.29 29.9118C124.58 30.1618 124.95 30.3318 125.32 30.4418C126.29 30.7418 127.34 30.7318 128.3 30.4218C128.67 30.3018 129.02 30.1418 129.31 29.8818C129.6 29.6318 129.8 29.2618 129.83 28.8818C129.87 29.1718 129.87 30.5918 129.77 30.8618C129.65 31.1618 129.4 31.4018 129.13 31.5918C128.48 32.0318 127.68 32.1918 126.9 32.2118C126.39 32.2118 125.88 32.1718 125.4 32.0218C125.02 31.9018 124.65 31.7218 124.34 31.4718C124.03 31.2218 123.85 30.9218 123.79 30.5318C123.76 30.3618 123.76 29.0618 123.76 28.8818C123.76 28.9018 123.76 28.9518 123.76 28.9618H123.75Z" fill="#DDDDDD"/>
<path d="M124.65 27.6523C123.46 28.3423 123.45 29.4523 124.64 30.1423C125.82 30.8323 127.75 30.8323 128.94 30.1423C130.13 29.4523 130.14 28.3423 128.95 27.6523C127.77 26.9623 125.84 26.9623 124.65 27.6523Z" fill="white"/>
<path d="M108.81 82.7525C109.09 82.7525 109.32 82.5225 109.32 82.2425V41.4225C109.32 40.5425 109.79 39.7225 110.56 39.2825L124.44 31.2725C124.68 31.1325 124.76 30.8225 124.63 30.5825C124.49 30.3425 124.18 30.2525 123.94 30.3925L110.06 38.4025C108.98 39.0225 108.32 40.1825 108.32 41.4225V82.2425C108.32 82.5225 108.55 82.7525 108.83 82.7525H108.81Z" fill="#0078AA"/>
<path d="M116.16 47.1022V46.6222L117.59 47.4522V45.3422L116.16 44.5122V44.0322L119.33 45.8622V46.3422L117.97 45.5622V47.6722L119.32 48.4522V48.9322L116.16 47.1022Z" fill="#3D9BAA"/>
<path d="M117.72 55.6819C116.78 55.1319 116.14 54.042 116.14 52.792V51.502L119.31 53.332V54.6219C119.31 55.8719 118.66 56.232 117.71 55.692L117.72 55.6819ZM116.52 52.192V53.0219C116.52 53.9419 116.95 54.762 117.72 55.202C118.49 55.652 118.94 55.342 118.94 54.422V53.5919L116.52 52.192Z" fill="#3D9BAA"/>
<path d="M119.31 52.822L117.21 50.132L116.15 49.522V49.042L117.21 49.652L119.32 49.442V49.982L117.6 50.132L119.31 52.312V52.822Z" fill="#3D9BAA"/>
<path d="M117.7 63.4218C116.74 62.8718 116.05 61.6518 116.05 60.5518C116.05 59.4518 116.76 59.0318 117.71 59.5818C118.67 60.1318 119.36 61.3518 119.36 62.4518C119.36 63.5518 118.65 63.9718 117.7 63.4218ZM117.7 60.0618C116.96 59.6318 116.42 59.9418 116.42 60.7718C116.42 61.6018 116.95 62.5218 117.69 62.9518C118.44 63.3818 118.97 63.0718 118.97 62.2418C118.97 61.4118 118.44 60.4918 117.7 60.0618Z" fill="#3D9BAA"/>
<path d="M116.12 58.3626V57.8026L117.25 57.6226C117.25 57.5526 117.25 57.4826 117.25 57.4126V56.5226L116.13 55.8726V55.3926L119.3 57.2226V58.5826C119.3 59.5026 118.89 59.8126 118.27 59.4526C117.82 59.1926 117.49 58.7226 117.34 58.1326L116.13 58.3426L116.12 58.3626ZM117.62 56.7426V57.5926C117.62 58.2226 117.84 58.7426 118.27 58.9826C118.7 59.2326 118.92 58.9826 118.93 58.3426V57.4926L117.63 56.7426" fill="#3D9BAA"/>
<path d="M117.62 67.6319C116.69 67.0919 116.03 65.8919 116.04 64.8319C116.04 63.7219 116.75 63.3319 117.7 63.8819C118.66 64.4319 119.35 65.6319 119.35 66.7419C119.35 67.6719 118.87 68.0919 118.27 67.9319V67.4119C118.67 67.4919 118.97 67.1519 118.97 66.5319C118.97 65.6919 118.44 64.7819 117.7 64.3519C116.95 63.9219 116.41 64.2119 116.41 65.0619C116.41 65.8119 116.83 66.6119 117.41 66.9919V65.5419L117.77 65.7519V67.7119L117.62 67.6319Z" fill="#3D9BAA"/>
<path d="M116.09 69.9923L116.1 67.3623L119.27 69.1923L119.26 71.7823L118.89 71.5623L118.9 69.4623L117.9 68.8823L117.89 70.8323L117.53 70.6223V68.6723L116.47 68.0523L116.46 70.2023L116.09 69.9923Z" fill="#3D9BAA"/>
<path d="M116.1 73.7425V73.2925L118.58 72.5225L116.09 71.0826V70.6025L119.26 72.4325V72.8825L116.78 73.6625L119.27 75.0925V75.5725L116.1 73.7425Z" fill="#3D9BAA"/>
</svg>
