<svg width="403" height="202" viewBox="0 0 403 202" fill="none" xmlns="http://www.w3.org/2000/svg">
<path d="M120.13 95.2927C114.48 98.5527 114.45 103.843 120.06 107.103C125.67 110.363 134.8 110.363 140.45 107.103C146.1 103.843 146.13 98.5527 140.52 95.2927C134.91 92.0327 125.78 92.0327 120.13 95.2927Z" fill="#C4C4C4"/>
<path d="M115.58 85.2825C115.58 85.3425 115.58 85.4025 115.59 85.4625C115.59 85.5125 115.6 85.5625 115.61 85.6125C115.61 85.6725 115.63 85.7325 115.64 85.7925C115.64 85.8425 115.66 85.8925 115.67 85.9525C115.68 86.0125 115.7 86.0625 115.71 86.1225C115.72 86.1725 115.74 86.2225 115.76 86.2825C115.78 86.3425 115.8 86.3925 115.82 86.4525C115.84 86.5025 115.86 86.5525 115.88 86.6025C115.9 86.6625 115.93 86.7225 115.96 86.7825C115.98 86.8325 116.01 86.8825 116.03 86.9325C116.06 86.9925 116.09 87.0525 116.12 87.1125C116.15 87.1625 116.17 87.2125 116.2 87.2525C116.24 87.3225 116.28 87.3925 116.33 87.4625C116.36 87.5025 116.38 87.5425 116.41 87.5925C116.46 87.6725 116.52 87.7425 116.58 87.8225C116.6 87.8525 116.63 87.8925 116.65 87.9225C116.75 88.0425 116.85 88.1625 116.96 88.2825C116.99 88.3125 117.02 88.3425 117.05 88.3725C117.14 88.4625 117.22 88.5525 117.32 88.6425C117.36 88.6825 117.4 88.7225 117.45 88.7625C117.51 88.8125 117.56 88.8625 117.62 88.9125C117.67 88.9625 117.73 89.0025 117.78 89.0425C117.84 89.0925 117.9 89.1425 117.96 89.1825C118.02 89.2225 118.08 89.2725 118.13 89.3125C118.19 89.3625 118.26 89.4025 118.33 89.4525C118.39 89.4925 118.45 89.5425 118.52 89.5825C118.59 89.6325 118.66 89.6725 118.73 89.7225C118.82 89.7825 118.91 89.8325 119 89.8925C119.26 90.0425 119.52 90.1825 119.79 90.3125C119.86 90.3425 119.93 90.3825 120.01 90.4125C120.26 90.5225 120.51 90.6325 120.77 90.7325C120.8 90.7425 120.83 90.7625 120.87 90.7725C121.15 90.8825 121.43 90.9725 121.72 91.0625C121.92 91.1225 122.12 91.1825 122.32 91.2325C122.47 91.2725 122.63 91.3225 122.78 91.3525C122.99 91.4025 123.21 91.4425 123.43 91.4925C123.59 91.5225 123.75 91.5625 123.91 91.5925C123.98 91.6025 124.04 91.6125 124.11 91.6225C124.38 91.6625 124.65 91.7025 124.93 91.7425C125.01 91.7425 125.09 91.7625 125.17 91.7725C125.33 91.7925 125.48 91.8025 125.64 91.8125C125.9 91.8325 126.17 91.8525 126.44 91.8625C126.61 91.8625 126.78 91.8725 126.95 91.8725C127.17 91.8725 127.38 91.8725 127.6 91.8725C127.78 91.8725 127.96 91.8725 128.14 91.8625C128.34 91.8625 128.54 91.8425 128.74 91.8325C128.92 91.8225 129.1 91.8025 129.28 91.7825C129.48 91.7625 129.67 91.7425 129.87 91.7125C130.05 91.6925 130.22 91.6625 130.4 91.6425C130.61 91.6125 130.82 91.5725 131.02 91.5325C131.18 91.5025 131.35 91.4725 131.51 91.4325C131.76 91.3825 132 91.3125 132.24 91.2525C132.4 91.2125 132.56 91.1725 132.71 91.1225C132.79 91.1025 132.88 91.0725 132.96 91.0425C133.2 90.9625 133.44 90.8825 133.68 90.8025C133.75 90.7725 133.82 90.7525 133.88 90.7325C134.09 90.6525 134.3 90.5625 134.51 90.4625C134.61 90.4225 134.72 90.3725 134.81 90.3325C135.11 90.1925 135.4 90.0425 135.67 89.8825C137.41 88.8725 138.5 87.6325 138.93 86.3325C139 86.1125 139.06 85.9025 139.09 85.6825C139.11 85.5725 139.12 85.4625 139.13 85.3525C139.14 85.2425 139.14 85.1325 139.14 85.0225L139.24 99.6325C139.24 101.392 138.09 103.152 135.76 104.492C135.48 104.652 135.19 104.802 134.9 104.942C134.8 104.992 134.7 105.032 134.59 105.072C134.41 105.152 134.24 105.232 134.06 105.302C134.03 105.312 134 105.322 133.97 105.332C133.9 105.362 133.83 105.382 133.76 105.402C133.53 105.492 133.29 105.572 133.04 105.642C132.96 105.672 132.88 105.692 132.79 105.722C132.73 105.742 132.68 105.762 132.62 105.772C132.52 105.802 132.42 105.822 132.32 105.842C132.08 105.902 131.84 105.972 131.59 106.022C131.52 106.032 131.46 106.052 131.39 106.072C131.29 106.092 131.19 106.102 131.1 106.122C130.89 106.162 130.69 106.202 130.48 106.232C130.4 106.242 130.31 106.262 130.23 106.272C130.14 106.282 130.05 106.292 129.95 106.302C129.75 106.322 129.56 106.352 129.36 106.372C129.27 106.372 129.17 106.392 129.08 106.402C128.99 106.402 128.9 106.402 128.82 106.412C128.62 106.422 128.42 106.432 128.22 106.442C128.12 106.442 128.02 106.452 127.92 106.462C127.84 106.462 127.76 106.462 127.68 106.462C127.46 106.462 127.25 106.462 127.03 106.462C126.92 106.462 126.82 106.462 126.71 106.462C126.65 106.462 126.58 106.462 126.52 106.452C126.25 106.442 125.99 106.422 125.72 106.402C125.61 106.402 125.51 106.392 125.4 106.382C125.35 106.382 125.3 106.372 125.25 106.362C125.17 106.362 125.09 106.342 125.01 106.332C124.74 106.302 124.47 106.262 124.2 106.212C124.13 106.202 124.07 106.192 124 106.182C123.97 106.182 123.94 106.182 123.9 106.162C123.77 106.142 123.65 106.102 123.52 106.082C123.3 106.042 123.08 105.992 122.87 105.942C122.71 105.902 122.56 105.862 122.41 105.822C122.21 105.762 122 105.712 121.8 105.652C121.76 105.642 121.71 105.632 121.67 105.612C121.43 105.532 121.19 105.452 120.96 105.362C120.93 105.352 120.89 105.332 120.86 105.322C120.6 105.222 120.35 105.112 120.1 105.002C120.03 104.972 119.96 104.932 119.88 104.902C119.61 104.772 119.34 104.632 119.09 104.482C119.04 104.452 118.99 104.422 118.95 104.402C118.91 104.372 118.86 104.352 118.82 104.322C118.75 104.272 118.68 104.232 118.61 104.182C118.55 104.142 118.48 104.102 118.42 104.052C118.35 104.002 118.29 103.962 118.22 103.912C118.16 103.872 118.1 103.822 118.05 103.782C117.99 103.732 117.93 103.682 117.87 103.642C117.81 103.602 117.76 103.552 117.71 103.512C117.65 103.462 117.59 103.412 117.54 103.362C117.52 103.342 117.49 103.322 117.47 103.302C117.45 103.282 117.43 103.262 117.41 103.242C117.32 103.152 117.23 103.062 117.14 102.972C117.11 102.942 117.08 102.912 117.05 102.882C116.94 102.762 116.84 102.642 116.74 102.522H116.73C116.73 102.522 116.69 102.452 116.67 102.422C116.61 102.342 116.56 102.272 116.5 102.192C116.47 102.152 116.44 102.112 116.42 102.062C116.38 101.992 116.33 101.922 116.29 101.852C116.28 101.832 116.27 101.812 116.25 101.792C116.23 101.762 116.22 101.732 116.21 101.702C116.18 101.642 116.15 101.582 116.12 101.522C116.1 101.472 116.07 101.422 116.05 101.372C116.02 101.312 116 101.252 115.97 101.192C115.96 101.162 115.95 101.142 115.94 101.112C115.94 101.092 115.92 101.062 115.92 101.042C115.9 100.982 115.88 100.932 115.86 100.872C115.84 100.822 115.83 100.772 115.81 100.712C115.79 100.652 115.78 100.602 115.77 100.542C115.77 100.512 115.75 100.482 115.75 100.452C115.75 100.432 115.75 100.412 115.75 100.392C115.74 100.332 115.73 100.272 115.72 100.212C115.72 100.162 115.71 100.112 115.7 100.062C115.7 100.002 115.7 99.9425 115.69 99.8825C115.69 99.8525 115.69 99.8125 115.69 99.7825C115.69 99.7525 115.69 99.7125 115.69 99.6825L115.59 85.0725C115.59 85.1425 115.59 85.2125 115.59 85.2825H115.58Z" fill="#EDEDED"/>
<path d="M119.05 80.2225C114.44 82.8825 114.41 87.2025 118.99 89.8725C123.57 92.5325 131.03 92.5325 135.65 89.8725C140.26 87.2125 140.29 82.8925 135.7 80.2225C131.12 77.5625 123.66 77.5625 119.04 80.2225H119.05Z" fill="white"/>
<path d="M116.96 83.2726C117.12 84.5226 117.84 85.6727 118.8 86.5027C119.8 87.3727 121.05 87.9327 122.32 88.3227C125.62 89.3427 129.23 89.3127 132.52 88.2627C133.77 87.8627 134.99 87.3027 135.98 86.4227C136.96 85.5527 137.66 84.3027 137.75 82.9827C137.88 83.9727 137.9 85.0326 137.54 85.9626C137.14 87.0026 136.29 87.8227 135.36 88.4427C133.14 89.9327 130.41 90.5026 127.73 90.5526C126 90.5826 124.25 90.4126 122.59 89.9026C121.29 89.5026 120.04 88.8827 118.97 88.0327C117.9 87.1927 117.28 86.1526 117.07 84.8026C116.98 84.2326 116.96 83.5827 116.96 82.9727C116.96 83.0327 116.95 83.1927 116.96 83.2627V83.2726Z" fill="#DDDDDD"/>
<path d="M120.03 78.8023C115.96 81.1523 115.93 84.9623 119.98 87.3223C124.03 89.6723 130.61 89.6723 134.68 87.3223C138.75 84.9723 138.77 81.1623 134.73 78.8123C130.68 76.4623 124.1 76.4623 120.03 78.8123V78.8023Z" fill="white"/>
<path d="M125.19 82.7922C125.22 83.0522 125.37 83.2922 125.57 83.4622C125.78 83.6422 126.04 83.7622 126.3 83.8422C126.99 84.0522 127.74 84.0522 128.42 83.8322C128.68 83.7522 128.93 83.6322 129.14 83.4522C129.34 83.2722 129.49 83.0122 129.51 82.7422C129.54 82.9522 129.54 83.9622 129.47 84.1522C129.39 84.3722 129.21 84.5422 129.02 84.6722C128.56 84.9822 127.99 85.1022 127.43 85.1122C127.07 85.1122 126.71 85.0822 126.36 84.9822C126.09 84.9022 125.83 84.7722 125.61 84.5922C125.39 84.4122 125.26 84.2022 125.22 83.9222C125.2 83.8022 125.2 82.8822 125.2 82.7522C125.2 82.7622 125.2 82.8022 125.2 82.8122L125.19 82.7922Z" fill="#DDDDDD"/>
<path d="M125.83 81.8626C124.98 82.3526 124.98 83.1426 125.82 83.6326C126.66 84.1226 128.03 84.1226 128.88 83.6326C129.73 83.1426 129.73 82.3526 128.88 81.8626C128.04 81.3726 126.67 81.3726 125.82 81.8626H125.83Z" fill="white"/>
<path d="M114.56 106.833C114.76 106.833 114.92 106.673 114.92 106.473V91.6529C114.92 91.0229 115.26 90.4429 115.8 90.1329L125.67 84.4429C125.84 84.3429 125.9 84.1229 125.8 83.9529C125.7 83.7829 125.48 83.7229 125.31 83.8229L115.44 89.5129C114.67 89.9529 114.2 90.7729 114.2 91.6629V106.483C114.2 106.683 114.36 106.843 114.56 106.843V106.833Z" fill="#0078AA"/>
<path d="M114.03 106.473V91.6526C114.03 90.7126 114.54 89.8326 115.36 89.3626L125.23 83.6726C125.48 83.5226 125.81 83.6126 125.95 83.8626C126.02 83.9826 126.04 84.1226 126 84.2626C125.96 84.4026 125.88 84.5126 125.75 84.5826L115.88 90.2726C115.39 90.5526 115.08 91.0826 115.08 91.6526V106.473C115.08 106.763 114.84 107.003 114.55 107.003C114.26 107.003 114.02 106.763 114.02 106.473H114.03ZM125.4 83.9526L115.53 89.6426C114.82 90.0526 114.37 90.8226 114.37 91.6426V106.463C114.37 106.563 114.46 106.653 114.56 106.653C114.66 106.653 114.75 106.563 114.75 106.463V91.6426C114.75 90.9526 115.12 90.3126 115.72 89.9726L125.59 84.2826C125.59 84.2826 125.67 84.2126 125.68 84.1626C125.69 84.1126 125.68 84.0626 125.66 84.0226C125.62 83.9626 125.56 83.9226 125.49 83.9226C125.46 83.9226 125.43 83.9226 125.4 83.9526Z" fill="#0078AA"/>
<path d="M122.37 95.3824L122.36 100.822L121.41 100.282L121.42 97.8723L119.87 96.9824V99.3924L118.92 98.8423L118.93 93.4023L119.88 93.9424V96.0724L121.42 96.9623V94.8324L122.37 95.3824Z" fill="#3D9BAA"/>
<path d="M123.62 98.8428C123.87 98.9828 124.06 99.1628 124.18 99.3728C124.3 99.5828 124.37 99.8128 124.37 100.053C124.37 100.113 124.37 100.173 124.36 100.223C124.36 100.273 124.34 100.323 124.32 100.373C124.3 100.423 124.28 100.463 124.25 100.503C124.22 100.543 124.19 100.593 124.15 100.643C124.13 100.663 124.11 100.693 124.07 100.733C124.04 100.773 123.99 100.823 123.95 100.863C123.9 100.913 123.85 100.963 123.8 101.013C123.75 101.063 123.7 101.113 123.65 101.153L124.41 101.593V102.013L122.81 101.093C122.81 101.093 122.9 101.013 122.96 100.963C123.02 100.913 123.08 100.863 123.14 100.803C123.2 100.743 123.27 100.693 123.33 100.633C123.39 100.573 123.46 100.523 123.51 100.473C123.56 100.423 123.61 100.383 123.65 100.343C123.69 100.303 123.71 100.283 123.72 100.263C123.76 100.213 123.79 100.163 123.82 100.123C123.84 100.083 123.86 100.043 123.87 100.003C123.88 99.9628 123.89 99.9328 123.9 99.9028C123.9 99.8728 123.9 99.8328 123.9 99.7928C123.9 99.6928 123.88 99.6028 123.83 99.5228C123.78 99.4428 123.71 99.3628 123.6 99.3028C123.54 99.2728 123.49 99.2528 123.45 99.2428C123.41 99.2428 123.38 99.2428 123.36 99.2628C123.34 99.2828 123.32 99.3128 123.31 99.3428C123.3 99.3728 123.29 99.4128 123.29 99.4628L122.85 99.2028C122.85 99.0628 122.89 98.9528 122.93 98.8828C122.98 98.8128 123.03 98.7528 123.1 98.7328C123.17 98.7128 123.25 98.7028 123.33 98.7328C123.42 98.7528 123.51 98.7928 123.6 98.8428H123.62Z" fill="#3D9BAA"/>
</svg>
