<svg width="403" height="202" viewBox="0 0 403 202" fill="none" xmlns="http://www.w3.org/2000/svg">
<path d="M303.65 29.6925V29.7925L303.67 29.8225V29.8525L303.69 29.8825V29.9125L303.71 29.9425L303.73 29.9825V30.0125L303.76 30.0525L303.78 30.0826C303.78 30.0826 303.8 30.1125 303.81 30.1225L303.83 30.1525C303.83 30.1525 303.85 30.1825 303.86 30.2025V30.2225C303.86 30.2225 303.91 30.2725 303.94 30.2925L303.96 30.3125C303.96 30.3125 304 30.3525 304.01 30.3625L304.04 30.3825L304.07 30.4125L304.1 30.4425L304.14 30.4725L304.18 30.5025L304.22 30.5325L304.26 30.5625L304.3 30.5925C304.3 30.5925 304.34 30.6125 304.35 30.6225C304.4 30.6525 304.46 30.6825 304.51 30.7025L304.55 30.7225C304.55 30.7225 304.65 30.7625 304.7 30.7825H304.72C304.78 30.8125 304.83 30.8325 304.89 30.8525C304.93 30.8625 304.97 30.8725 305.01 30.8825C305.04 30.8825 305.07 30.9025 305.1 30.9125C305.14 30.9225 305.19 30.9325 305.23 30.9425C305.26 30.9425 305.29 30.9525 305.33 30.9625H305.37C305.42 30.9825 305.48 30.9825 305.53 30.9925H305.58C305.58 30.9925 305.64 31.0025 305.67 31.0025C305.72 31.0025 305.78 31.0025 305.83 31.0125C305.86 31.0125 305.9 31.0125 305.93 31.0125C305.97 31.0125 306.02 31.0125 306.06 31.0125C306.1 31.0125 306.13 31.0125 306.17 31.0125C306.21 31.0125 306.25 31.0125 306.29 31.0125C306.33 31.0125 306.36 31.0125 306.4 31.0125C306.44 31.0125 306.48 31.0125 306.52 31.0025C306.56 31.0025 306.59 31.0025 306.63 30.9825C306.67 30.9825 306.71 30.9725 306.76 30.9625C306.79 30.9625 306.83 30.9525 306.86 30.9425C306.91 30.9325 306.96 30.9225 307.01 30.9025C307.04 30.9025 307.07 30.8825 307.1 30.8725L307.15 30.8525C307.15 30.8525 307.25 30.8225 307.29 30.8025L307.33 30.7825C307.33 30.7825 307.41 30.7425 307.46 30.7325C307.48 30.7325 307.5 30.7125 307.52 30.7025C307.58 30.6725 307.64 30.6425 307.69 30.6125C308.04 30.4125 308.26 30.1625 308.35 29.9025C308.36 29.8625 308.38 29.8125 308.38 29.7725C308.38 29.7525 308.38 29.7325 308.38 29.7025C308.38 29.6825 308.38 29.6625 308.38 29.6325L308.4 75.9425C308.4 76.2925 308.17 76.6525 307.7 76.9225C307.64 76.9525 307.59 76.9825 307.53 77.0125C307.51 77.0125 307.49 77.0325 307.47 77.0425C307.43 77.0625 307.4 77.0725 307.36 77.0925H307.34L307.3 77.1125C307.3 77.1125 307.2 77.1425 307.16 77.1625L307.11 77.1825H307.08C307.08 77.1825 307.04 77.2025 307.02 77.2125C306.97 77.2225 306.92 77.2425 306.87 77.2525H306.83C306.83 77.2525 306.79 77.2725 306.77 77.2725C306.73 77.2725 306.69 77.2925 306.64 77.2925C306.62 77.2925 306.61 77.2925 306.59 77.2925C306.57 77.2925 306.55 77.2925 306.53 77.2925C306.49 77.2925 306.45 77.2925 306.41 77.3025C306.39 77.3025 306.37 77.3025 306.35 77.3025C306.33 77.3025 306.31 77.3025 306.3 77.3025C306.26 77.3025 306.22 77.3025 306.18 77.3025C306.16 77.3025 306.14 77.3025 306.12 77.3025C306.1 77.3025 306.09 77.3025 306.07 77.3025C306.03 77.3025 305.98 77.3025 305.94 77.3025C305.92 77.3025 305.9 77.3025 305.88 77.3025H305.84C305.79 77.3025 305.73 77.3025 305.68 77.2925C305.66 77.2925 305.64 77.2925 305.62 77.2925H305.54C305.48 77.2725 305.43 77.2725 305.38 77.2625H305.32C305.32 77.2625 305.27 77.2425 305.24 77.2325C305.2 77.2325 305.15 77.2125 305.11 77.2025C305.08 77.2025 305.05 77.1825 305.02 77.1725C304.98 77.1625 304.94 77.1525 304.9 77.1425H304.87C304.87 77.1425 304.77 77.1026 304.73 77.0826H304.71C304.66 77.0526 304.61 77.0325 304.56 77.0125L304.52 76.9925C304.47 76.9625 304.41 76.9425 304.36 76.9125L304.33 76.8925L304.3 76.8725L304.26 76.8425L304.22 76.8125L304.18 76.7825L304.14 76.7525L304.1 76.7225L304.07 76.6925L304.04 76.6625H304.03V76.6425C304.03 76.6425 303.98 76.6025 303.96 76.5925L303.94 76.5725C303.94 76.5725 303.9 76.5225 303.88 76.5025V76.4825C303.88 76.4825 303.84 76.4525 303.83 76.4325L303.81 76.4025C303.81 76.4025 303.79 76.3725 303.78 76.3625V76.3326L303.75 76.2925V76.2625L303.72 76.2225V76.2025H303.71V76.1525L303.69 76.1225V76.0725H303.68V75.9325C303.68 75.9325 303.67 76.0425 303.67 76.0325L303.65 29.6025C303.65 29.6025 303.65 29.6325 303.65 29.6425V29.6925Z" fill="#C4C4C4"/>
<path d="M304.35 28.6727C303.42 29.2127 303.42 30.0827 304.34 30.6127C305.26 31.1527 306.77 31.1527 307.69 30.6127C308.62 30.0727 308.62 29.2027 307.7 28.6727C306.78 28.1427 305.28 28.1327 304.35 28.6727Z" fill="white"/>
<path d="M205.65 87.463V87.563L205.67 87.593V87.623L205.69 87.653V87.683L205.71 87.713L205.73 87.7531V87.7831L205.76 87.8231L205.78 87.8531C205.78 87.8531 205.8 87.8831 205.81 87.8931L205.83 87.9231C205.83 87.9231 205.85 87.9531 205.86 87.9731V87.993C205.86 87.993 205.91 88.043 205.94 88.063L205.96 88.0831C205.96 88.0831 206 88.1231 206.01 88.1331L206.04 88.153L206.07 88.183L206.1 88.213L206.14 88.243L206.18 88.273L206.22 88.303L206.26 88.3331L206.3 88.3631C206.3 88.3631 206.34 88.3831 206.35 88.3931C206.4 88.4231 206.46 88.4531 206.51 88.4731L206.55 88.493C206.55 88.493 206.65 88.533 206.7 88.553H206.72C206.78 88.583 206.83 88.603 206.89 88.623C206.93 88.633 206.97 88.643 207.01 88.653C207.04 88.653 207.07 88.673 207.1 88.683C207.14 88.693 207.19 88.703 207.23 88.713C207.26 88.713 207.29 88.7231 207.33 88.7331H207.37C207.42 88.7531 207.48 88.7531 207.53 88.7631H207.58C207.58 88.7631 207.64 88.773 207.67 88.773C207.72 88.773 207.78 88.7731 207.83 88.7831C207.86 88.7831 207.9 88.7831 207.93 88.7831C207.97 88.7831 208.02 88.7831 208.06 88.7831C208.1 88.7831 208.13 88.7831 208.17 88.7831C208.21 88.7831 208.25 88.7831 208.29 88.7831C208.33 88.7831 208.36 88.7831 208.4 88.7831C208.44 88.7831 208.48 88.783 208.52 88.773C208.56 88.773 208.59 88.7731 208.63 88.7531C208.67 88.7531 208.71 88.7431 208.76 88.7331C208.79 88.7331 208.83 88.723 208.86 88.713C208.91 88.703 208.96 88.6931 209.01 88.6731C209.04 88.6731 209.07 88.6531 209.1 88.6431L209.15 88.623C209.15 88.623 209.25 88.5931 209.29 88.5731L209.33 88.553C209.33 88.553 209.41 88.5131 209.46 88.5031C209.48 88.5031 209.5 88.4831 209.52 88.4731C209.58 88.4431 209.64 88.4131 209.69 88.3831C210.04 88.1831 210.26 87.9331 210.35 87.6731C210.36 87.6331 210.38 87.5831 210.38 87.5431C210.38 87.5231 210.38 87.5031 210.38 87.4731C210.38 87.4531 210.38 87.433 210.38 87.403L210.4 133.713C210.4 134.063 210.17 134.423 209.7 134.693C209.64 134.723 209.59 134.753 209.53 134.783C209.51 134.783 209.49 134.803 209.47 134.813C209.43 134.833 209.4 134.843 209.36 134.863H209.34L209.3 134.883C209.3 134.883 209.2 134.913 209.16 134.933L209.11 134.953H209.08C209.08 134.953 209.04 134.973 209.02 134.983C208.97 134.993 208.92 135.013 208.87 135.023H208.83C208.83 135.023 208.79 135.043 208.77 135.043C208.73 135.043 208.69 135.063 208.64 135.063C208.62 135.063 208.61 135.063 208.59 135.063C208.57 135.063 208.55 135.063 208.53 135.063C208.49 135.063 208.45 135.063 208.41 135.073C208.39 135.073 208.37 135.073 208.35 135.073C208.33 135.073 208.31 135.073 208.3 135.073C208.26 135.073 208.22 135.073 208.18 135.073C208.16 135.073 208.14 135.073 208.12 135.073C208.1 135.073 208.09 135.073 208.07 135.073C208.03 135.073 207.98 135.073 207.94 135.073C207.92 135.073 207.9 135.073 207.88 135.073H207.84C207.79 135.073 207.73 135.073 207.68 135.063C207.66 135.063 207.64 135.063 207.62 135.063H207.54C207.48 135.043 207.43 135.043 207.38 135.033H207.32C207.32 135.033 207.27 135.013 207.24 135.003C207.2 135.003 207.15 134.983 207.11 134.973C207.08 134.973 207.05 134.953 207.02 134.943C206.98 134.933 206.94 134.923 206.9 134.913H206.87C206.87 134.913 206.77 134.873 206.73 134.853H206.71C206.66 134.823 206.61 134.803 206.56 134.783L206.52 134.763C206.47 134.733 206.41 134.713 206.36 134.683L206.33 134.663L206.3 134.643L206.26 134.613L206.22 134.583L206.18 134.553L206.14 134.523L206.1 134.493L206.07 134.463L206.04 134.433H206.03V134.413C206.03 134.413 205.98 134.373 205.96 134.363L205.94 134.343C205.94 134.343 205.9 134.293 205.88 134.273V134.253C205.88 134.253 205.84 134.223 205.83 134.203L205.81 134.173C205.81 134.173 205.79 134.143 205.78 134.133V134.103L205.75 134.063V134.033L205.72 133.993V133.973H205.71V133.923L205.69 133.893V133.843H205.68V133.703C205.68 133.703 205.67 133.813 205.67 133.803L205.65 87.373C205.65 87.373 205.65 87.4031 205.65 87.4131V87.463Z" fill="#C4C4C4"/>
<path d="M206.35 86.4431C205.42 86.9831 205.42 87.8531 206.34 88.3831C207.26 88.9231 208.77 88.9231 209.69 88.3831C210.62 87.8431 210.62 86.9731 209.7 86.4431C208.78 85.9031 207.28 85.9031 206.35 86.4431Z" fill="white"/>
</svg>
