<svg width="403" height="202" viewBox="0 0 403 202" fill="none" xmlns="http://www.w3.org/2000/svg">
<path d="M315.35 142.833L297.92 132.703C297.71 132.583 297.71 132.283 297.92 132.163L327.43 115.463C327.83 115.233 328.32 115.233 328.71 115.463L346.14 125.593C346.35 125.713 346.35 126.013 346.14 126.133L316.63 142.833C316.23 143.063 315.74 143.063 315.35 142.833Z" fill="#D3D3D3"/>
<path d="M342.95 101.473C342.95 102.533 343.69 103.813 344.61 104.353C345.09 104.633 345.52 104.643 345.83 104.453L345.8 104.473L346.29 104.193C346.59 104.023 346.77 103.653 346.78 103.123C346.78 102.063 346.04 100.783 345.12 100.243C344.66 99.9729 344.24 99.9529 343.93 100.123L343.44 100.393C343.14 100.563 342.95 100.933 342.95 101.463V101.473Z" fill="#C6BFB3"/>
<path d="M344.62 100.543C344.16 100.283 343.75 100.253 343.45 100.423C343.15 100.593 342.96 100.963 342.96 101.483C342.96 102.003 343.14 102.593 343.44 103.103C343.74 103.623 344.15 104.073 344.61 104.333C345.07 104.593 345.48 104.623 345.78 104.453C346.08 104.283 346.27 103.913 346.27 103.393C346.27 102.873 346.09 102.283 345.79 101.773C345.49 101.253 345.08 100.803 344.62 100.543Z" fill="#DEDAD3"/>
<path d="M341.99 102.733C341.99 103.353 342.43 104.123 342.97 104.433C343.25 104.593 343.51 104.603 343.69 104.493H343.67L345.13 103.703C345.31 103.603 345.42 103.383 345.42 103.073C345.42 102.453 344.98 101.683 344.44 101.373C344.17 101.213 343.92 101.203 343.74 101.303L342.28 102.103C342.1 102.203 341.99 102.423 341.99 102.733Z" fill="#C6BFB3"/>
<path d="M342.97 102.173C342.7 102.013 342.46 102.003 342.28 102.103C342.1 102.203 341.99 102.423 341.99 102.733C341.99 103.043 342.1 103.383 342.27 103.693C342.45 103.993 342.69 104.263 342.96 104.423C343.23 104.583 343.47 104.593 343.65 104.493C343.83 104.393 343.94 104.173 343.94 103.863C343.94 103.553 343.83 103.213 343.66 102.903C343.48 102.603 343.24 102.333 342.97 102.173Z" fill="#DEDAD3"/>
<path d="M339.66 104.962V115.662L339.62 115.682L335.52 118.032C335.37 118.122 335.32 118.312 335.4 118.462C335.48 118.612 335.68 118.662 335.83 118.582L340.13 116.122C340.23 116.062 340.29 115.962 340.29 115.852V105.152L343.04 103.582C343.19 103.492 343.24 103.302 343.16 103.152C343.12 103.082 343.05 103.022 342.97 103.002C342.94 103.002 342.91 102.992 342.89 102.992C342.84 102.992 342.78 103.002 342.73 103.032L339.82 104.692C339.72 104.752 339.66 104.852 339.66 104.962V104.962Z" fill="#5E5E59"/>
<path d="M283.63 124.623L266.2 114.493C265.99 114.373 265.99 114.073 266.2 113.953L295.71 97.2526C296.11 97.0226 296.6 97.0226 296.99 97.2526L314.42 107.383C314.63 107.503 314.63 107.803 314.42 107.923L284.91 124.623C284.51 124.853 284.02 124.853 283.63 124.623Z" fill="#D3D3D3"/>
<path d="M311.23 83.2629C311.23 84.3229 311.97 85.6029 312.89 86.1429C313.37 86.4229 313.8 86.4329 314.11 86.2429L314.08 86.2629L314.57 85.9829C314.87 85.8129 315.05 85.4429 315.06 84.9129C315.06 83.8529 314.32 82.5729 313.4 82.0329C312.94 81.7629 312.52 81.7429 312.21 81.9129L311.72 82.1829C311.42 82.3529 311.23 82.7229 311.23 83.2529V83.2629Z" fill="#C6BFB3"/>
<path d="M312.9 82.3326C312.44 82.0726 312.03 82.0426 311.73 82.2126C311.43 82.3826 311.24 82.7526 311.24 83.2726C311.24 83.7926 311.42 84.3826 311.72 84.8926C312.02 85.4126 312.43 85.8626 312.89 86.1226C313.35 86.3826 313.76 86.4126 314.06 86.2426C314.36 86.0726 314.55 85.7026 314.55 85.1826C314.55 84.6626 314.37 84.0726 314.07 83.5626C313.77 83.0426 313.36 82.5926 312.9 82.3326Z" fill="#DEDAD3"/>
<path d="M310.27 84.5134C310.27 85.1334 310.71 85.9034 311.25 86.2134C311.53 86.3734 311.79 86.3834 311.97 86.2734H311.95L313.41 85.4834C313.59 85.3834 313.7 85.1634 313.7 84.8534C313.7 84.2334 313.26 83.4634 312.72 83.1534C312.45 82.9934 312.2 82.9834 312.02 83.0834L310.56 83.8834C310.38 83.9834 310.27 84.2034 310.27 84.5134Z" fill="#C6BFB3"/>
<path d="M311.25 83.9629C310.98 83.8029 310.74 83.793 310.56 83.893C310.38 83.993 310.27 84.2129 310.27 84.5229C310.27 84.8329 310.38 85.173 310.55 85.483C310.73 85.783 310.97 86.0529 311.24 86.2129C311.51 86.3729 311.75 86.3829 311.93 86.2829C312.11 86.1829 312.22 85.9629 312.22 85.6529C312.22 85.3429 312.11 85.0029 311.94 84.6929C311.76 84.3929 311.52 84.1229 311.25 83.9629Z" fill="#DEDAD3"/>
<path d="M307.94 86.7425V97.4425L307.9 97.4625L303.8 99.8125C303.65 99.9025 303.6 100.092 303.68 100.242C303.76 100.392 303.96 100.442 304.11 100.362L308.41 97.9025C308.51 97.8425 308.57 97.7425 308.57 97.6325V86.9325L311.32 85.3625C311.47 85.2725 311.52 85.0825 311.44 84.9325C311.4 84.8625 311.33 84.8025 311.25 84.7825C311.22 84.7825 311.19 84.7725 311.17 84.7725C311.12 84.7725 311.06 84.7825 311.01 84.8125L308.1 86.4725C308 86.5325 307.94 86.6325 307.94 86.7425V86.7425Z" fill="#5E5E59"/>
<path d="M226.36 198.573L208.93 188.443C208.72 188.323 208.72 188.023 208.93 187.903L238.44 171.203C238.84 170.973 239.33 170.973 239.72 171.203L257.15 181.333C257.36 181.453 257.36 181.753 257.15 181.873L227.64 198.573C227.24 198.803 226.75 198.803 226.36 198.573Z" fill="#D3D3D3"/>
<path d="M253.96 157.223C253.96 158.283 254.7 159.563 255.62 160.103C256.1 160.383 256.53 160.393 256.84 160.203L256.81 160.223L257.3 159.943C257.6 159.773 257.78 159.403 257.79 158.873C257.79 157.813 257.05 156.533 256.13 155.993C255.67 155.723 255.25 155.703 254.94 155.873L254.45 156.143C254.15 156.313 253.96 156.683 253.96 157.213V157.223Z" fill="#C6BFB3"/>
<path d="M255.64 156.283C255.18 156.023 254.77 155.993 254.47 156.163C254.17 156.333 253.98 156.703 253.98 157.223C253.98 157.743 254.16 158.333 254.46 158.843C254.76 159.363 255.17 159.813 255.63 160.073C256.09 160.333 256.5 160.363 256.8 160.193C257.1 160.023 257.29 159.653 257.29 159.133C257.29 158.613 257.11 158.023 256.81 157.513C256.51 156.993 256.1 156.543 255.64 156.283Z" fill="#DEDAD3"/>
<path d="M253 158.473C253 159.093 253.44 159.863 253.98 160.173C254.26 160.333 254.52 160.343 254.7 160.233H254.68L256.14 159.443C256.32 159.343 256.43 159.123 256.43 158.813C256.43 158.193 255.99 157.423 255.45 157.113C255.18 156.953 254.93 156.943 254.75 157.043L253.29 157.843C253.11 157.943 253 158.163 253 158.473V158.473Z" fill="#C6BFB3"/>
<path d="M253.99 157.913C253.72 157.753 253.48 157.743 253.3 157.843C253.12 157.943 253.01 158.163 253.01 158.473C253.01 158.783 253.12 159.123 253.29 159.433C253.47 159.733 253.71 160.003 253.98 160.163C254.25 160.323 254.49 160.333 254.67 160.233C254.85 160.133 254.96 159.913 254.96 159.603C254.96 159.293 254.85 158.953 254.68 158.643C254.5 158.343 254.26 158.073 253.99 157.913Z" fill="#DEDAD3"/>
<path d="M250.67 160.702V171.402L250.63 171.422L246.53 173.772C246.38 173.862 246.33 174.052 246.41 174.202C246.49 174.352 246.69 174.402 246.84 174.322L251.14 171.862C251.24 171.802 251.3 171.702 251.3 171.592V160.892L254.05 159.322C254.2 159.232 254.25 159.042 254.17 158.892C254.13 158.822 254.06 158.762 253.98 158.742C253.95 158.742 253.92 158.732 253.9 158.732C253.85 158.732 253.79 158.742 253.74 158.772L250.83 160.432C250.73 160.492 250.67 160.592 250.67 160.702V160.702Z" fill="#5E5E59"/>
<path d="M194.64 180.363L177.21 170.233C177 170.113 177 169.813 177.21 169.693L206.72 152.993C207.12 152.763 207.61 152.763 208 152.993L225.43 163.123C225.64 163.243 225.64 163.543 225.43 163.663L195.92 180.363C195.52 180.593 195.03 180.593 194.64 180.363Z" fill="#D3D3D3"/>
<path d="M222.25 139.003C222.25 140.063 222.99 141.343 223.91 141.883C224.39 142.163 224.82 142.173 225.13 141.983L225.1 142.003L225.59 141.723C225.89 141.553 226.07 141.183 226.08 140.653C226.08 139.593 225.34 138.313 224.42 137.773C223.96 137.503 223.54 137.483 223.23 137.653L222.74 137.923C222.44 138.093 222.25 138.463 222.25 138.993V139.003Z" fill="#C6BFB3"/>
<path d="M223.92 138.073C223.46 137.813 223.05 137.783 222.75 137.953C222.45 138.123 222.26 138.493 222.26 139.013C222.26 139.533 222.44 140.123 222.74 140.633C223.04 141.153 223.45 141.603 223.91 141.863C224.37 142.123 224.78 142.153 225.08 141.983C225.38 141.813 225.57 141.443 225.57 140.923C225.57 140.403 225.39 139.813 225.09 139.303C224.79 138.783 224.38 138.333 223.92 138.073Z" fill="#DEDAD3"/>
<path d="M221.28 140.263C221.28 140.883 221.72 141.653 222.26 141.963C222.54 142.123 222.8 142.133 222.98 142.023H222.96L224.42 141.233C224.6 141.133 224.71 140.913 224.71 140.603C224.71 139.983 224.27 139.213 223.73 138.903C223.46 138.743 223.21 138.733 223.03 138.833L221.57 139.633C221.39 139.733 221.28 139.953 221.28 140.263V140.263Z" fill="#C6BFB3"/>
<path d="M222.27 139.703C222 139.543 221.76 139.533 221.58 139.633C221.4 139.733 221.29 139.953 221.29 140.263C221.29 140.573 221.4 140.913 221.57 141.223C221.75 141.523 221.99 141.793 222.26 141.953C222.53 142.113 222.77 142.123 222.95 142.023C223.13 141.923 223.24 141.703 223.24 141.393C223.24 141.083 223.13 140.743 222.96 140.433C222.78 140.133 222.54 139.863 222.27 139.703Z" fill="#DEDAD3"/>
<path d="M218.95 142.492V153.192L218.91 153.212L214.81 155.562C214.66 155.652 214.61 155.842 214.69 155.992C214.77 156.142 214.97 156.192 215.12 156.112L219.42 153.652C219.52 153.592 219.58 153.492 219.58 153.382V142.682L222.33 141.112C222.48 141.022 222.53 140.832 222.45 140.682C222.41 140.612 222.34 140.552 222.26 140.532C222.23 140.532 222.2 140.522 222.18 140.522C222.13 140.522 222.07 140.532 222.02 140.562L219.11 142.222C219.01 142.282 218.95 142.382 218.95 142.492V142.492Z" fill="#5E5E59"/>
</svg>
