<svg width="70" height="169" viewBox="0 0 70 169" fill="none" xmlns="http://www.w3.org/2000/svg">
<path d="M37.1609 156.373C37.1609 156.373 36.5594 157.908 35.3754 159.04C33.3284 161.057 31.1196 162.56 29.2195 164.712C28.6303 165.349 27.6588 167.087 28.0183 167.829C28.6375 169.175 33.3576 169.086 34.9752 168.172C36.5929 167.259 39.9617 164.011 41.6321 163.237C42.4682 162.874 43.6455 162.781 44.3818 162.28C45.0709 161.78 44.9453 160.982 44.9649 160.273C44.9355 159.519 44.8161 156.453 44.7849 155.651" fill="#404040"/>
<path d="M47.4594 156.521L47.4558 156.584C47.3693 156.883 47.0282 157.261 46.3927 157.614C45.7563 157.967 44.8714 158.268 43.8037 158.422C41.7027 158.726 38.9164 158.458 35.9752 156.939L36.1809 118.729L36.1812 118.729L36.1807 118.718C36.1631 118.263 36.1855 117.838 36.209 117.393C36.2208 117.169 36.2329 116.94 36.2402 116.7C36.2514 116.674 36.2691 116.635 36.2937 116.585C36.3435 116.484 36.4216 116.338 36.5328 116.165C36.7555 115.818 37.1093 115.362 37.6319 114.934C38.6696 114.082 40.3962 113.317 43.1476 113.754C46.0625 114.218 47.5366 115.408 48.2866 116.451C48.6639 116.976 48.8634 117.472 48.9685 117.834C49.0211 118.014 49.0499 118.161 49.0655 118.262C49.0733 118.312 49.0778 118.35 49.0803 118.375C49.0815 118.387 49.0823 118.396 49.0827 118.402L49.0829 118.405C49.1528 122.032 48.7465 131.574 48.3216 140.223C48.1092 144.546 47.8924 148.643 47.7287 151.659C47.6468 153.167 47.5782 154.405 47.5301 155.265C47.5061 155.696 47.4871 156.032 47.4742 156.26L47.4594 156.521Z" fill="#535353" stroke="#272727" stroke-width="0.5"/>
<mask id="mask0_148_198" style="mask-type:alpha" maskUnits="userSpaceOnUse" x="35" y="113" width="15" height="46">
<path d="M47.4594 156.521L47.4558 156.584C47.3693 156.883 47.0282 157.261 46.3927 157.614C45.7563 157.967 44.8714 158.268 43.8037 158.422C41.7027 158.726 38.9164 158.458 35.9752 156.939L36.1809 118.729L36.1812 118.729L36.1807 118.718C36.1631 118.263 36.1855 117.838 36.209 117.393C36.2208 117.169 36.2329 116.94 36.2402 116.7C36.2514 116.674 36.2691 116.635 36.2937 116.585C36.3435 116.484 36.4216 116.338 36.5328 116.165C36.7555 115.818 37.1093 115.362 37.6319 114.934C38.6696 114.082 40.3962 113.317 43.1476 113.754C46.0625 114.218 47.5366 115.408 48.2866 116.451C48.6639 116.976 48.8634 117.472 48.9685 117.834C49.0211 118.014 49.0499 118.161 49.0655 118.262C49.0733 118.312 49.0778 118.35 49.0803 118.375C49.0815 118.387 49.0823 118.396 49.0827 118.402L49.0829 118.405C49.1528 122.032 48.7465 131.574 48.3216 140.223C48.1092 144.546 47.8924 148.643 47.7287 151.659C47.6468 153.167 47.5782 154.405 47.5301 155.265C47.5061 155.696 47.4871 156.032 47.4742 156.26L47.4594 156.521Z" fill="#535353" stroke="#272727" stroke-width="0.5"/>
</mask>
<g mask="url(#mask0_148_198)">
<path d="M28 82.9998L62 82.9998L53.5 119L28.5 116L28 82.9998Z" fill="#535353"/>
</g>
</svg>
