<svg width="89" height="168" viewBox="0 0 89 168" fill="none" xmlns="http://www.w3.org/2000/svg">
<path d="M48.883 113.677C48.883 113.677 45.8643 106.758 41.3643 107.758C36.9444 108.74 35.7275 115.914 35.7275 115.914C35.8873 123.157 38.8166 153.889 38.8166 153.889C39.2427 155.487 44.8352 157.351 50.7472 153.889L49.0428 115.754C49.0428 115.062 48.9363 114.369 48.883 113.677Z" fill="#CECECE"/>
<mask id="mask0_148_2112" style="mask-type:alpha" maskUnits="userSpaceOnUse" x="30" y="112" width="26" height="47">
<path d="M30 117L55.5 112.5L56 159H32L30 117Z" fill="#C4C4C4"/>
</mask>
<g mask="url(#mask0_148_2112)">
<path d="M48.7928 115.754H48.7925L48.793 115.765L50.4907 153.749C47.6281 155.388 44.8579 155.762 42.7511 155.538C41.6805 155.424 40.7874 155.156 40.1428 154.827C39.4964 154.497 39.1507 154.133 39.0633 153.843L39.0571 153.777L39.0325 153.519C39.0111 153.292 38.9795 152.958 38.9393 152.531C38.8589 151.677 38.7439 150.448 38.6053 148.951C38.3282 145.957 37.9571 141.89 37.581 137.596C36.8301 129.023 36.0606 119.563 35.978 115.933C35.9803 115.92 35.9836 115.902 35.9879 115.88C35.9976 115.828 36.0125 115.753 36.033 115.655C36.0742 115.461 36.138 115.181 36.2283 114.842C36.4091 114.163 36.6953 113.249 37.1167 112.306C37.9671 110.404 39.3319 108.465 41.4185 108.002C43.5197 107.535 45.3114 108.909 46.6179 110.501C47.2642 111.288 47.774 112.108 48.1227 112.733C48.2968 113.045 48.4302 113.307 48.5198 113.491C48.5646 113.583 48.5984 113.655 48.6209 113.704C48.6272 113.718 48.6326 113.729 48.6372 113.739C48.6555 113.969 48.6784 114.192 48.701 114.412C48.7477 114.865 48.7928 115.305 48.7928 115.754Z" fill="#CECECE" stroke="#9E9E9E" stroke-width="0.5"/>
</g>
</svg>
