<svg width="89" height="168" viewBox="0 0 89 168" fill="none" xmlns="http://www.w3.org/2000/svg">
<path d="M50.0001 88.8851C50.0001 88.8851 47.3586 88.4487 41.9273 85.8505C31.0964 80.6694 31.1221 90.2377 31.1221 90.2377C32.9867 102.467 36.0917 112.168 35.6625 115.394C37.5411 121.341 43.918 125.878 49.0056 115.211C48.9516 115.904 49.1123 114.527 49.0056 115.211C49.0056 115.211 49.7651 107.169 50.0001 102C50.5001 90.9998 50.0001 88.8851 50.0001 88.8851Z" fill="#5A8BB7"/>
<mask id="mask0_148_2054" style="mask-type:alpha" maskUnits="userSpaceOnUse" x="28" y="89" width="25" height="37">
<path d="M28 90.5L53 89V126H28V90.5Z" fill="#C4C4C4"/>
</mask>
<g mask="url(#mask0_148_2054)">
<path d="M49.4429 89.0191C49.5861 89.0542 49.6994 89.0796 49.7829 89.0972C49.7937 89.1715 49.8071 89.2749 49.8218 89.4136C49.86 89.7764 49.9066 90.3783 49.9377 91.3257C49.9999 93.2207 50.0001 96.4924 49.7503 101.988C49.6331 104.568 49.3848 107.867 49.1656 110.523C49.056 111.851 48.9538 113.017 48.879 113.852C48.8416 114.269 48.811 114.603 48.7898 114.833L48.7653 115.097L48.7609 115.144C47.5047 117.766 46.1817 119.431 44.8911 120.374C43.6007 121.318 42.3404 121.544 41.1846 121.289C40.02 121.031 38.9319 120.279 38.014 119.211C37.108 118.158 36.3791 116.81 35.9174 115.371C36.0178 114.525 35.897 113.301 35.6429 111.781C35.3819 110.22 34.9743 108.317 34.4967 106.139C34.4202 105.79 34.342 105.435 34.2622 105.072C33.3452 100.905 32.2283 95.829 31.3722 90.2198L31.3723 90.2143C31.3725 90.198 31.3731 90.1731 31.3743 90.1404C31.3766 90.0751 31.3814 89.9786 31.3913 89.8569C31.4111 89.6134 31.4512 89.2701 31.5322 88.8737C31.695 88.0776 32.0194 87.0845 32.6609 86.254C33.2969 85.4306 34.2497 84.759 35.6972 84.5987C37.1545 84.4373 39.1352 84.792 41.8194 86.076C44.5444 87.3796 46.5729 88.1424 47.9234 88.58C48.5986 88.7987 49.1044 88.9361 49.4429 89.0191ZM48.8738 115.199L49.0056 115.211L48.8764 115.201C48.8755 115.201 48.8746 115.2 48.8738 115.199Z" fill="#5A8BB7" stroke="#4A7DA3" stroke-width="0.5"/>
</g>
</svg>
