<svg width="70" height="168" viewBox="0 0 70 168" fill="none" xmlns="http://www.w3.org/2000/svg">
<path d="M28.128 150.083C28.128 150.083 27.5265 151.618 26.3425 152.75C24.2954 154.767 22.0866 156.27 20.1866 158.422C19.5973 159.059 18.6258 160.797 18.9853 161.539C19.6046 162.885 24.3246 162.795 25.9423 161.882C27.5599 160.969 30.9288 157.72 32.5991 156.947C33.4352 156.583 34.6126 156.49 35.3488 155.989C36.0379 155.49 35.9123 154.692 35.9319 153.983C35.9025 153.228 35.7831 150.162 35.7519 149.361" fill="#404040"/>
<path d="M38.4265 150.23L38.4229 150.294C38.3364 150.593 37.9952 150.971 37.3597 151.324C36.7233 151.677 35.8384 151.978 34.7708 152.132C32.6697 152.435 29.8835 152.168 26.9422 150.649L27.148 112.438L27.1482 112.438L27.1478 112.427C27.1301 111.973 27.1526 111.547 27.176 111.103C27.1878 110.879 27.1999 110.65 27.2072 110.41C27.2185 110.384 27.2361 110.345 27.2607 110.295C27.3105 110.194 27.3886 110.048 27.4999 109.875C27.7226 109.527 28.0764 109.072 28.599 108.643C29.6366 107.792 31.3632 107.026 34.1146 107.464C37.0296 107.928 38.5037 109.118 39.2536 110.161C39.6309 110.686 39.8305 111.182 39.9356 111.543C39.9881 111.724 40.0169 111.871 40.0325 111.971C40.0403 112.021 40.0448 112.06 40.0473 112.085C40.0486 112.097 40.0493 112.106 40.0497 112.111L40.0499 112.114C40.1199 115.742 39.7135 125.284 39.2887 133.932C39.0763 138.256 38.8594 142.353 38.6957 145.369C38.6139 146.877 38.5453 148.114 38.4972 148.975C38.4731 149.405 38.4542 149.741 38.4412 149.97L38.4265 150.23Z" fill="#535353" stroke="#272727" stroke-width="0.5"/>
<mask id="mask0_148_88" style="mask-type:alpha" maskUnits="userSpaceOnUse" x="26" y="107" width="15" height="46">
<path d="M38.4265 150.23L38.4229 150.294C38.3364 150.593 37.9952 150.971 37.3597 151.324C36.7233 151.677 35.8384 151.978 34.7708 152.132C32.6697 152.435 29.8835 152.168 26.9422 150.649L27.148 112.438L27.1482 112.438L27.1478 112.427C27.1301 111.973 27.1526 111.547 27.176 111.103C27.1878 110.879 27.1999 110.65 27.2072 110.41C27.2185 110.384 27.2361 110.345 27.2607 110.295C27.3105 110.194 27.3886 110.048 27.4999 109.875C27.7226 109.527 28.0764 109.072 28.599 108.643C29.6366 107.792 31.3632 107.026 34.1146 107.464C37.0296 107.928 38.5037 109.118 39.2536 110.161C39.6309 110.686 39.8305 111.182 39.9356 111.543C39.9881 111.724 40.0169 111.871 40.0325 111.971C40.0403 112.021 40.0448 112.06 40.0473 112.085C40.0486 112.097 40.0493 112.106 40.0497 112.111L40.0499 112.114C40.1199 115.742 39.7135 125.284 39.2887 133.932C39.0763 138.256 38.8594 142.353 38.6957 145.369C38.6139 146.877 38.5453 148.114 38.4972 148.975C38.4731 149.405 38.4542 149.741 38.4412 149.97L38.4265 150.23Z" fill="#535353" stroke="#272727" stroke-width="0.5"/>
</mask>
<g mask="url(#mask0_148_88)">
<path d="M19.0002 76.9998L53.0002 76.9998L41.0002 112L20.0002 109.5L19.0002 76.9998Z" fill="#535353"/>
</g>
</svg>
