<svg width="89" height="168" viewBox="0 0 89 168" fill="none" xmlns="http://www.w3.org/2000/svg">
<path d="M52.4873 149.475C52.4873 149.475 52.2743 150.114 52.221 150.274C52.0612 150.807 51.9014 151.393 51.8481 151.979C51.8481 152.298 51.7416 152.618 51.8481 152.937C51.9014 153.15 52.0079 153.31 52.1144 153.47C53.2862 155.174 55.7362 155.015 57.121 156.559C57.8134 157.358 58.2395 158.317 58.9319 159.116C59.9438 160.287 61.4884 160.98 62.9797 161.353C64.3112 161.672 65.6427 161.885 66.9743 161.672C67.6667 161.566 68.359 161.406 68.9449 160.98C69.6906 160.394 70.1167 159.542 70.3831 158.636C70.3831 158.53 68.8384 157.784 68.6787 157.678L66.9211 156.666L63.4059 154.695L56.3754 150.754L53.3394 149.049C53.3394 149.049 52.7003 149.475 52.5405 149.529L52.4873 149.475Z" fill="white"/>
<path d="M66.6015 160.66C64.3645 160.447 61.9677 160.234 60.1568 158.903C59.5176 158.423 58.9851 157.891 58.4525 157.305C56.9612 155.76 55.2568 154.961 53.7655 153.417C53.1263 152.725 52.434 151.979 52.2209 151.02C52.0611 150.328 52.2209 148.89 52.4339 148.197C52.647 147.345 53.2329 146.333 53.9786 145.8C54.4046 145.534 54.884 145.481 55.3633 145.641C55.7894 145.747 56.109 146.014 56.3221 146.386C56.6949 147.185 58.1329 147.398 59.0383 147.079C59.571 146.866 59.784 147.132 60.0503 147.452C61.3286 149.049 62.0743 150.168 64.258 152.032C65.5363 153.097 66.8678 154.216 68.2526 155.174C68.7852 155.547 69.1047 155.867 69.5308 156.293C69.8504 156.666 70.1699 157.039 70.3297 157.518C70.5427 157.944 70.596 158.477 70.4894 158.956C70.2764 159.648 69.6372 160.181 68.9448 160.394C68.2524 160.607 67.347 160.66 66.6546 160.607L66.6015 160.66Z" fill="white"/>
<path d="M70.3297 157.571C70.1166 157.145 69.8504 156.719 69.5308 156.346C69.158 155.867 68.8385 155.601 68.2526 155.228C66.8678 154.269 65.5895 153.204 64.258 152.085C62.1808 150.328 61.435 149.263 60.3166 147.825C60.6894 149.05 61.5948 150.061 62.5003 150.967C63.0862 151.5 63.8852 152.085 64.4178 152.618C64.7906 152.991 65.1633 153.31 65.4829 153.683C65.909 154.216 65.9091 154.695 65.2167 154.961C64.1514 155.388 63.6721 155.175 62.8732 154.429C60.9558 152.671 59.784 151.287 58.1862 149.742C57.7601 149.316 57.2275 149.316 56.6416 149.476C56.0557 149.635 55.896 149.742 55.3101 149.848C54.7242 149.955 53.9785 149.795 53.7122 149.209C53.5525 148.89 53.6057 148.517 53.659 148.144C53.7123 147.452 53.7122 146.759 53.5525 146.12C53.0731 146.653 52.5938 147.452 52.3807 148.197C52.1677 148.89 52.0079 150.328 52.1677 151.02C52.3807 151.979 53.0731 152.725 53.7122 153.417C55.2035 154.962 56.9079 155.76 58.3992 157.305C58.9319 157.891 59.4645 158.424 60.1036 158.903C61.9145 160.234 64.3112 160.447 66.5482 160.66C67.2938 160.714 68.146 160.66 68.8384 160.447C69.5308 160.234 70.1699 159.702 70.383 159.009C70.5428 158.53 70.383 157.997 70.2232 157.571H70.3297Z" fill="#6EE2D9"/>
<path d="M58.8255 149.902C58.5592 149.583 58.0799 149.05 57.6538 148.997C57.6538 148.997 58.3461 148.357 58.719 148.144C59.0385 147.931 59.4646 147.559 59.8374 147.772C60.0505 147.878 60.2635 148.038 60.4765 148.251C60.4765 148.145 60.3701 148.038 60.3701 147.932L60.1038 147.612C59.8908 147.292 59.6244 147.079 59.0918 147.239C58.1864 147.505 56.7483 147.292 56.3755 146.547C56.1624 146.174 55.8429 145.854 55.4168 145.801C54.8842 145.694 54.4581 145.694 54.032 145.961C53.8722 146.067 53.7657 146.174 53.6592 146.28C53.819 146.919 53.8189 147.612 53.7656 148.304C53.7656 148.677 53.6592 149.05 53.819 149.369C54.0853 149.955 54.7777 150.115 55.4168 150.009C56.0027 149.902 56.1625 149.796 56.7483 149.636C57.3342 149.476 57.8668 149.476 58.2929 149.902C58.7722 150.381 59.2515 150.807 59.6776 151.287C59.4646 150.807 59.1983 150.381 58.8787 150.009L58.8255 149.902Z" fill="#00BEB3"/>
<path d="M65.4832 153.684C65.1636 153.311 64.7909 152.938 64.4181 152.618C63.8322 152.086 63.0332 151.5 62.5006 150.967C61.6484 150.168 60.8496 149.263 60.4235 148.198C60.2637 148.038 60.0507 147.825 59.7844 147.718C59.4116 147.505 58.9854 147.878 58.6658 148.091C58.293 148.358 57.6006 148.943 57.6006 148.943C58.0267 148.943 58.4528 149.582 58.7723 149.849C59.0919 150.222 59.3583 150.648 59.5713 151.127C60.5833 152.139 61.5419 153.204 62.8735 154.429C63.6724 155.175 64.1517 155.388 65.217 154.962C65.9094 154.696 65.9093 154.216 65.4832 153.684V153.684Z" fill="#00BEB3"/>
<path d="M70.5428 158.956C70.6494 158.477 70.5429 158.051 70.2233 157.731C70.2233 157.731 70.1168 157.625 70.0635 157.625C69.957 157.625 69.8505 157.678 69.744 157.731L68.6254 158.69C68.6254 158.69 68.5188 158.796 68.4656 158.85C68.4656 158.903 68.4657 159.009 68.4124 159.063C68.3059 159.649 68.2527 160.128 67.9331 160.66C68.6788 160.66 69.4776 160.341 70.0102 159.862C70.3298 159.595 70.4363 159.222 70.5428 158.903V158.956Z" fill="#00BEB3"/>
<path d="M57.8668 150.275C57.8668 150.275 57.707 150.488 57.6005 150.488C57.4407 150.488 57.3875 150.328 57.3875 150.221C57.3875 150.115 57.5473 150.008 57.6538 150.008C57.8136 150.008 57.8668 150.168 57.8668 150.275Z" fill="white"/>
<path d="M57.5473 150.594C57.5473 150.594 57.2278 150.381 57.2278 150.168C57.2278 150.061 57.281 150.008 57.3876 149.902C57.4941 149.848 57.5474 149.795 57.6539 149.848C57.7604 149.848 57.8136 149.901 57.9201 150.008C57.9734 150.115 58.0267 150.168 57.9734 150.274C57.9734 150.274 57.9202 150.434 57.8137 150.541C57.7071 150.594 57.6539 150.647 57.5473 150.594ZM57.6539 150.114C57.6539 150.114 57.6006 150.114 57.5473 150.114C57.4941 150.114 57.5474 150.115 57.4941 150.221C57.4941 150.274 57.494 150.381 57.6006 150.381C57.6006 150.381 57.6539 150.381 57.7071 150.381C57.7071 150.381 57.7071 150.381 57.7603 150.274C57.7603 150.274 57.7603 150.221 57.7603 150.168C57.7603 150.168 57.7604 150.168 57.6539 150.168V150.114Z" fill="#00BEB3"/>
<path d="M58.8787 151.286C58.8787 151.286 58.7189 151.499 58.6124 151.499C58.4526 151.499 58.3994 151.34 58.3994 151.233C58.3994 151.073 58.5591 151.02 58.6657 151.02C58.8254 151.02 58.8787 151.18 58.8787 151.286Z" fill="white"/>
<path d="M58.5591 151.606C58.5591 151.606 58.3993 151.552 58.3461 151.446C58.2928 151.339 58.2396 151.286 58.2928 151.179C58.3461 151.073 58.3461 151.02 58.4526 150.913C58.5591 150.86 58.6124 150.807 58.7189 150.86C58.7189 150.86 59.0385 151.073 59.0385 151.286C59.0385 151.286 58.9852 151.446 58.8787 151.552C58.7722 151.606 58.7189 151.659 58.6124 151.606H58.5591ZM58.6656 151.126C58.6656 151.126 58.6124 151.126 58.5591 151.126C58.5591 151.126 58.5591 151.126 58.5058 151.233C58.5058 151.233 58.5058 151.286 58.5058 151.339C58.5058 151.339 58.5059 151.339 58.6124 151.393C58.6124 151.393 58.6657 151.393 58.7189 151.393C58.7722 151.393 58.7189 151.392 58.7722 151.286C58.7722 151.286 58.7721 151.126 58.6656 151.126Z" fill="#00BEB3"/>
<path d="M59.9972 152.406C59.9972 152.406 59.8374 152.618 59.7309 152.618C59.5711 152.618 59.5178 152.459 59.5178 152.352C59.5178 152.192 59.6777 152.139 59.7842 152.139C59.944 152.139 59.9972 152.299 59.9972 152.406Z" fill="white"/>
<path d="M59.6775 152.725C59.6775 152.725 59.3579 152.512 59.3579 152.299C59.3579 152.192 59.4112 152.139 59.5177 152.032C59.6242 151.979 59.6776 151.926 59.7841 151.979C59.7841 151.979 60.1036 152.192 60.1036 152.405C60.1036 152.405 60.0504 152.565 59.9439 152.672C59.8373 152.778 59.784 152.778 59.6775 152.725ZM59.7841 152.245C59.7841 152.245 59.7307 152.245 59.6775 152.245C59.6242 152.245 59.6774 152.245 59.6242 152.352C59.6242 152.405 59.6243 152.512 59.7308 152.512C59.7308 152.512 59.784 152.512 59.8372 152.512C59.8905 152.512 59.8373 152.512 59.8906 152.405C59.8906 152.352 59.8906 152.245 59.7841 152.245Z" fill="#00BEB3"/>
<path d="M61.0089 153.417C61.0089 153.417 60.8492 153.63 60.7426 153.63C60.6361 153.63 60.5295 153.47 60.5295 153.363C60.5295 153.257 60.6893 153.15 60.7958 153.15C60.9556 153.15 61.0089 153.31 61.0089 153.417Z" fill="white"/>
<path d="M60.6894 153.736C60.6894 153.736 60.5296 153.683 60.4764 153.576C60.4231 153.47 60.3699 153.416 60.4232 153.31C60.4765 153.203 60.4765 153.15 60.583 153.044C60.6895 152.99 60.7427 152.937 60.8492 152.99C60.9557 152.99 61.0091 153.044 61.1156 153.15C61.1689 153.257 61.222 153.31 61.1688 153.416C61.1688 153.416 60.9558 153.736 60.7428 153.736H60.6894ZM60.7959 153.257C60.7959 153.257 60.7427 153.257 60.6894 153.257C60.6362 153.257 60.6894 153.257 60.6361 153.363C60.6361 153.363 60.6361 153.416 60.6361 153.47C60.6361 153.47 60.6362 153.47 60.7428 153.523C60.796 153.523 60.9025 153.523 60.9025 153.416C60.9025 153.416 60.9025 153.363 60.9025 153.31C60.9025 153.31 60.9024 153.31 60.7959 153.31V153.257Z" fill="#00BEB3"/>
<path d="M62.0743 154.483C62.0743 154.483 61.9144 154.696 61.8079 154.696C61.6481 154.696 61.595 154.536 61.595 154.429C61.595 154.323 61.7547 154.216 61.8612 154.216C62.021 154.216 62.0743 154.376 62.0743 154.483Z" fill="white"/>
<path d="M61.7548 154.802C61.7548 154.802 61.5949 154.748 61.5417 154.642C61.4884 154.535 61.4351 154.482 61.4884 154.376C61.4884 154.163 61.7015 154.056 61.9145 154.056C62.1276 154.056 62.2341 154.269 62.2341 154.482C62.2341 154.482 62.1808 154.642 62.0743 154.749C61.9678 154.855 61.9144 154.855 61.8079 154.802H61.7548ZM61.8612 154.322C61.8612 154.322 61.7014 154.322 61.7014 154.429C61.7014 154.429 61.7014 154.482 61.7014 154.535C61.7014 154.535 61.7014 154.536 61.8079 154.589C61.8079 154.589 61.8613 154.589 61.9145 154.589C61.9145 154.589 61.9144 154.589 61.9677 154.482C61.9677 154.482 61.9677 154.322 61.8612 154.322Z" fill="#00BEB3"/>
<path d="M61.4885 149.156C60.2102 149.422 58.9852 149.795 57.7602 150.328C57.707 150.328 57.6005 150.328 57.5472 150.328C57.494 150.328 57.4407 150.221 57.494 150.168C58.1331 149.263 59.5712 148.89 60.5831 148.624C60.6897 148.624 60.7429 148.624 60.8494 148.624C60.9026 148.624 60.9559 148.677 61.0092 148.73C61.1689 148.89 61.3287 149.05 61.4885 149.209V149.156Z" fill="white"/>
<path d="M62.3407 150.168C61.0625 150.434 59.9973 150.86 58.7723 151.34C58.719 151.34 58.6125 151.34 58.5593 151.34C58.506 151.34 58.4527 151.233 58.5059 151.18C59.1451 150.274 60.5832 149.902 61.5952 149.635C61.7017 149.635 61.7549 149.635 61.8614 149.635C61.9147 149.635 61.9679 149.689 62.0212 149.742C62.181 149.902 62.3407 150.168 62.3407 150.168Z" fill="white"/>
<path d="M63.3524 151.179C62.0742 151.446 61.0622 151.872 59.8905 152.405C59.8372 152.405 59.7307 152.405 59.6774 152.405C59.6242 152.405 59.5708 152.298 59.6241 152.245C60.2632 151.339 62.7133 150.647 62.8198 150.7C62.8731 150.7 63.4058 151.179 63.4058 151.179H63.3524Z" fill="white"/>
<path d="M64.5243 152.298C63.246 152.564 62.234 152.937 61.009 153.417C60.9558 153.417 60.8492 153.417 60.7959 153.417C60.7427 153.417 60.6895 153.31 60.7428 153.257C61.3819 152.351 63.8851 151.766 63.9916 151.766C64.0449 151.766 64.5775 152.298 64.5243 152.298V152.298Z" fill="white"/>
<path d="M65.8025 153.31C64.5242 153.577 63.246 154.056 62.021 154.536C61.9677 154.536 61.8612 154.536 61.8079 154.536C61.7546 154.536 61.7015 154.429 61.7548 154.376C62.3939 153.47 65.1634 152.778 65.2167 152.778C65.27 152.778 65.8026 153.31 65.7493 153.31H65.8025Z" fill="white"/>
<path d="M63.1395 155.387C63.1395 155.387 62.9798 155.6 62.8732 155.6C62.7135 155.6 62.6602 155.441 62.6602 155.334C62.6602 155.174 62.82 155.121 62.9266 155.121C63.0863 155.121 63.1395 155.281 63.1395 155.387Z" fill="white"/>
<path d="M62.82 155.707C62.82 155.707 62.6604 155.653 62.6071 155.547C62.5538 155.44 62.5005 155.387 62.5538 155.281C62.5538 155.174 62.607 155.121 62.7136 155.014C62.8201 154.961 62.8733 154.908 62.9798 154.961C63.0863 154.961 63.1397 155.014 63.2462 155.121C63.2995 155.227 63.3526 155.281 63.2994 155.387C63.2994 155.387 63.0864 155.707 62.8733 155.707H62.82ZM62.9267 155.227C62.9267 155.227 62.8733 155.227 62.82 155.227C62.7668 155.227 62.8201 155.227 62.7669 155.334C62.7669 155.334 62.7669 155.387 62.7669 155.44C62.7669 155.44 62.7668 155.44 62.8733 155.494C62.9266 155.494 63.0331 155.494 63.0331 155.387C63.0331 155.387 63.0331 155.334 63.0331 155.281C63.0331 155.281 63.0332 155.281 62.9267 155.281V155.227Z" fill="#00BEB3"/>
<path d="M66.8678 154.163C65.5895 154.429 64.3113 154.908 63.0863 155.388C63.033 155.388 62.9265 155.388 62.8732 155.388C62.82 155.388 62.7666 155.281 62.8199 155.228C63.459 154.322 66.2286 153.63 66.2818 153.63C66.3351 153.63 66.9743 154.109 66.8145 154.163H66.8678Z" fill="white"/>
</svg>
