<svg width="89" height="168" viewBox="0 0 89 168" fill="none" xmlns="http://www.w3.org/2000/svg">
<path d="M40.4871 154.475C40.4871 154.475 40.274 155.114 40.2207 155.274C40.061 155.807 39.9011 156.393 39.8479 156.979C39.8479 157.298 39.7414 157.618 39.8479 157.937C39.9011 158.15 40.0077 158.31 40.1142 158.47C41.2859 160.174 43.736 160.015 45.1208 161.559C45.8132 162.358 46.2392 163.317 46.9316 164.116C47.9436 165.287 49.4881 165.98 50.9794 166.353C52.311 166.672 53.6425 166.885 54.974 166.672C55.6664 166.566 56.3588 166.406 56.9447 165.98C57.6903 165.394 58.1165 164.542 58.3828 163.636C58.3828 163.53 56.8382 162.784 56.6784 162.678L54.9209 161.666L51.4056 159.695L44.3751 155.754L41.3392 154.049C41.3392 154.049 40.7001 154.475 40.5403 154.529L40.4871 154.475Z" fill="white"/>
<path d="M54.6012 165.66C52.3643 165.447 49.9674 165.234 48.1565 163.903C47.5174 163.423 46.9848 162.891 46.4522 162.305C44.9609 160.76 43.2565 159.961 41.7652 158.417C41.1261 157.725 40.4337 156.979 40.2207 156.02C40.0609 155.328 40.2206 153.89 40.4337 153.197C40.6467 152.345 41.2327 151.333 41.9783 150.8C42.4044 150.534 42.8837 150.481 43.3631 150.641C43.7892 150.747 44.1088 151.014 44.3218 151.386C44.6946 152.185 46.1327 152.398 47.0381 152.079C47.5707 151.866 47.7838 152.132 48.0501 152.452C49.3283 154.049 50.074 155.168 52.2577 157.032C53.536 158.097 54.8675 159.216 56.2523 160.174C56.7849 160.547 57.1045 160.867 57.5305 161.293C57.8501 161.666 58.1696 162.039 58.3294 162.518C58.5425 162.944 58.5957 163.477 58.4892 163.956C58.2762 164.648 57.637 165.181 56.9446 165.394C56.2522 165.607 55.3468 165.66 54.6544 165.607L54.6012 165.66Z" fill="white"/>
<path d="M58.3294 162.571C58.1164 162.145 57.8501 161.719 57.5306 161.346C57.1577 160.867 56.8382 160.601 56.2523 160.228C54.8675 159.269 53.5893 158.204 52.2578 157.085C50.1806 155.328 49.4348 154.263 48.3163 152.825C48.6891 154.05 49.5946 155.061 50.5 155.967C51.0859 156.5 51.8849 157.085 52.4175 157.618C52.7904 157.991 53.1631 158.31 53.4827 158.683C53.9087 159.216 53.9088 159.695 53.2164 159.961C52.1512 160.388 51.6718 160.175 50.8729 159.429C48.9555 157.671 47.7837 156.287 46.1859 154.742C45.7598 154.316 45.2272 154.316 44.6414 154.476C44.0555 154.635 43.8957 154.742 43.3098 154.848C42.724 154.955 41.9783 154.795 41.712 154.209C41.5522 153.89 41.6055 153.517 41.6588 153.144C41.712 152.452 41.712 151.759 41.5522 151.12C41.0729 151.653 40.5935 152.452 40.3805 153.197C40.1674 153.89 40.0077 155.328 40.1675 156.02C40.3805 156.979 41.0729 157.725 41.712 158.417C43.2033 159.962 44.9077 160.76 46.399 162.305C46.9316 162.891 47.4643 163.424 48.1034 163.903C49.9143 165.234 52.311 165.447 54.5479 165.66C55.2936 165.714 56.1457 165.66 56.8381 165.447C57.5305 165.234 58.1697 164.702 58.3827 164.009C58.5425 163.53 58.3828 162.997 58.223 162.571H58.3294Z" fill="#6EE2D9"/>
<path d="M46.8253 154.902C46.559 154.583 46.0796 154.05 45.6535 153.997C45.6535 153.997 46.3459 153.357 46.7187 153.144C47.0383 152.931 47.4643 152.559 47.8372 152.772C48.0502 152.878 48.2632 153.038 48.4763 153.251C48.4763 153.145 48.3698 153.038 48.3698 152.932L48.1036 152.612C47.8905 152.292 47.6242 152.079 47.0916 152.239C46.1862 152.505 44.7481 152.292 44.3752 151.547C44.1622 151.174 43.8427 150.854 43.4166 150.801C42.884 150.694 42.4578 150.694 42.0317 150.961C41.8719 151.067 41.7655 151.174 41.6589 151.28C41.8187 151.919 41.8187 152.612 41.7654 153.304C41.7654 153.677 41.6589 154.05 41.8187 154.369C42.085 154.955 42.7774 155.115 43.4166 155.009C44.0024 154.902 44.1622 154.796 44.7481 154.636C45.334 154.476 45.8665 154.476 46.2926 154.902C46.772 155.381 47.2513 155.807 47.6774 156.287C47.4643 155.807 47.1981 155.381 46.8785 155.009L46.8253 154.902Z" fill="#00BEB3"/>
<path d="M53.483 158.684C53.1634 158.311 52.7907 157.938 52.4178 157.618C51.832 157.086 51.033 156.5 50.5004 155.967C49.6482 155.168 48.8493 154.263 48.4233 153.198C48.2635 153.038 48.0505 152.825 47.7841 152.718C47.4113 152.505 46.9851 152.878 46.6655 153.091C46.2927 153.358 45.6003 153.943 45.6003 153.943C46.0264 153.943 46.4525 154.582 46.7721 154.849C47.0917 155.222 47.358 155.648 47.5711 156.127C48.583 157.139 49.5417 158.204 50.8732 159.429C51.6721 160.175 52.1515 160.388 53.2167 159.962C53.9091 159.696 53.9091 159.216 53.483 158.684V158.684Z" fill="#00BEB3"/>
<path d="M58.5426 163.956C58.6491 163.477 58.5426 163.051 58.2231 162.731C58.2231 162.731 58.1165 162.625 58.0633 162.625C57.9568 162.625 57.8502 162.678 57.7437 162.731L56.6251 163.69C56.6251 163.69 56.5186 163.796 56.4653 163.85C56.4653 163.903 56.4655 164.009 56.4122 164.063C56.3057 164.649 56.2524 165.128 55.9329 165.66C56.6785 165.66 57.4773 165.341 58.01 164.862C58.3295 164.595 58.4361 164.222 58.5426 163.903V163.956Z" fill="#00BEB3"/>
<path d="M45.8665 155.275C45.8665 155.275 45.7067 155.488 45.6002 155.488C45.4404 155.488 45.3872 155.328 45.3872 155.221C45.3872 155.115 45.547 155.008 45.6535 155.008C45.8133 155.008 45.8665 155.168 45.8665 155.275Z" fill="white"/>
<path d="M45.5471 155.594C45.5471 155.594 45.2275 155.381 45.2275 155.168C45.2275 155.061 45.2808 155.008 45.3873 154.902C45.4938 154.848 45.5471 154.795 45.6536 154.848C45.7602 154.848 45.8134 154.901 45.9199 155.008C45.9731 155.115 46.0265 155.168 45.9732 155.274C45.9732 155.274 45.9199 155.434 45.8134 155.541C45.7069 155.594 45.6536 155.647 45.5471 155.594ZM45.6536 155.114C45.6536 155.114 45.6004 155.114 45.5471 155.114C45.4938 155.114 45.5471 155.115 45.4939 155.221C45.4939 155.274 45.4938 155.381 45.6003 155.381C45.6003 155.381 45.6536 155.381 45.7069 155.381C45.7069 155.381 45.7068 155.381 45.7601 155.274C45.7601 155.274 45.7601 155.221 45.7601 155.168C45.7601 155.168 45.7602 155.168 45.6536 155.168V155.114Z" fill="#00BEB3"/>
<path d="M46.8785 156.286C46.8785 156.286 46.7187 156.499 46.6122 156.499C46.4524 156.499 46.3992 156.34 46.3992 156.233C46.3992 156.073 46.5589 156.02 46.6654 156.02C46.8252 156.02 46.8785 156.18 46.8785 156.286Z" fill="white"/>
<path d="M46.5589 156.606C46.5589 156.606 46.3991 156.552 46.3458 156.446C46.2925 156.339 46.2393 156.286 46.2926 156.179C46.3458 156.073 46.3458 156.02 46.4524 155.913C46.5589 155.86 46.6122 155.807 46.7187 155.86C46.7187 155.86 47.0382 156.073 47.0382 156.286C47.0382 156.286 46.985 156.446 46.8785 156.552C46.7719 156.606 46.7187 156.659 46.6121 156.606H46.5589ZM46.6654 156.126C46.6654 156.126 46.6122 156.126 46.5589 156.126C46.5589 156.126 46.5588 156.126 46.5056 156.233C46.5056 156.233 46.5056 156.286 46.5056 156.339C46.5056 156.339 46.5056 156.339 46.6121 156.393C46.6121 156.393 46.6654 156.393 46.7187 156.393C46.7719 156.393 46.7186 156.392 46.7719 156.286C46.7719 156.286 46.7719 156.126 46.6654 156.126Z" fill="#00BEB3"/>
<path d="M47.9969 157.406C47.9969 157.406 47.8372 157.618 47.7307 157.618C47.5709 157.618 47.5176 157.459 47.5176 157.352C47.5176 157.192 47.6775 157.139 47.784 157.139C47.9438 157.139 47.9969 157.299 47.9969 157.406Z" fill="white"/>
<path d="M47.6772 157.725C47.6772 157.725 47.3577 157.512 47.3577 157.299C47.3577 157.192 47.4109 157.139 47.5174 157.032C47.624 156.979 47.6773 156.926 47.7838 156.979C47.7838 156.979 48.1034 157.192 48.1034 157.405C48.1034 157.405 48.0501 157.565 47.9436 157.672C47.8371 157.778 47.7837 157.778 47.6772 157.725ZM47.7838 157.245C47.7838 157.245 47.7305 157.245 47.6772 157.245C47.624 157.245 47.6772 157.245 47.6239 157.352C47.6239 157.405 47.624 157.512 47.7305 157.512C47.7305 157.512 47.7837 157.512 47.837 157.512C47.8903 157.512 47.837 157.512 47.8903 157.405C47.8903 157.352 47.8904 157.245 47.7838 157.245Z" fill="#00BEB3"/>
<path d="M49.0086 158.417C49.0086 158.417 48.8489 158.63 48.7424 158.63C48.6359 158.63 48.5293 158.47 48.5293 158.363C48.5293 158.257 48.689 158.15 48.7955 158.15C48.9553 158.15 49.0086 158.31 49.0086 158.417Z" fill="white"/>
<path d="M48.6892 158.736C48.6892 158.736 48.5294 158.683 48.4761 158.576C48.4229 158.47 48.3697 158.416 48.423 158.31C48.4762 158.203 48.4762 158.15 48.5827 158.044C48.6893 157.99 48.7425 157.937 48.849 157.99C48.9555 157.99 49.0089 158.044 49.1154 158.15C49.1686 158.257 49.2218 158.31 49.1685 158.416C49.1685 158.416 48.9556 158.736 48.7425 158.736H48.6892ZM48.7957 158.257C48.7957 158.257 48.7425 158.257 48.6892 158.257C48.6359 158.257 48.6892 158.257 48.6359 158.363C48.6359 158.363 48.6359 158.416 48.6359 158.47C48.6359 158.47 48.636 158.47 48.7425 158.523C48.7958 158.523 48.9023 158.523 48.9023 158.416C48.9023 158.416 48.9023 158.363 48.9023 158.31C48.9023 158.31 48.9022 158.31 48.7957 158.31V158.257Z" fill="#00BEB3"/>
<path d="M50.0741 159.483C50.0741 159.483 49.9142 159.696 49.8077 159.696C49.6479 159.696 49.5947 159.536 49.5947 159.429C49.5947 159.323 49.7544 159.216 49.861 159.216C50.0208 159.216 50.0741 159.376 50.0741 159.483Z" fill="white"/>
<path d="M49.7545 159.802C49.7545 159.802 49.5947 159.748 49.5414 159.642C49.4882 159.535 49.4349 159.482 49.4881 159.376C49.4881 159.163 49.7013 159.056 49.9143 159.056C50.1273 159.056 50.2338 159.269 50.2338 159.482C50.2338 159.482 50.1806 159.642 50.0741 159.749C49.9675 159.855 49.9142 159.855 49.8077 159.802H49.7545ZM49.861 159.322C49.861 159.322 49.7012 159.322 49.7012 159.429C49.7012 159.429 49.7012 159.482 49.7012 159.535C49.7012 159.535 49.7011 159.536 49.8077 159.589C49.8077 159.589 49.861 159.589 49.9143 159.589C49.9143 159.589 49.9142 159.589 49.9674 159.482C49.9674 159.482 49.9675 159.322 49.861 159.322Z" fill="#00BEB3"/>
<path d="M49.4882 154.156C48.21 154.422 46.985 154.795 45.76 155.328C45.7067 155.328 45.6002 155.328 45.547 155.328C45.4937 155.328 45.4405 155.221 45.4937 155.168C46.1329 154.263 47.5709 153.89 48.5829 153.624C48.6894 153.624 48.7426 153.624 48.8491 153.624C48.9024 153.624 48.9557 153.677 49.0089 153.73C49.1687 153.89 49.3285 154.05 49.4882 154.209V154.156Z" fill="white"/>
<path d="M50.3405 155.168C49.0622 155.434 47.997 155.86 46.772 156.34C46.7188 156.34 46.6123 156.34 46.559 156.34C46.5057 156.34 46.4524 156.233 46.5057 156.18C47.1448 155.274 48.583 154.902 49.5949 154.635C49.7015 154.635 49.7546 154.635 49.8612 154.635C49.9144 154.635 49.9677 154.689 50.0209 154.742C50.1807 154.902 50.3405 155.168 50.3405 155.168Z" fill="white"/>
<path d="M51.3522 156.179C50.0739 156.446 49.062 156.872 47.8903 157.405C47.837 157.405 47.7304 157.405 47.6772 157.405C47.6239 157.405 47.5706 157.298 47.6239 157.245C48.263 156.339 50.713 155.647 50.8196 155.7C50.8728 155.7 51.4055 156.179 51.4055 156.179H51.3522Z" fill="white"/>
<path d="M52.524 157.298C51.2458 157.564 50.2338 157.937 49.0088 158.417C48.9555 158.417 48.849 158.417 48.7957 158.417C48.7424 158.417 48.6893 158.31 48.7425 158.257C49.3817 157.351 51.8849 156.766 51.9914 156.766C52.0447 156.766 52.5773 157.298 52.524 157.298V157.298Z" fill="white"/>
<path d="M53.8022 158.31C52.524 158.577 51.2458 159.056 50.0207 159.536C49.9675 159.536 49.8609 159.536 49.8077 159.536C49.7544 159.536 49.7012 159.429 49.7545 159.376C50.3936 158.47 53.1632 157.778 53.2164 157.778C53.2697 157.778 53.8024 158.31 53.7491 158.31H53.8022Z" fill="white"/>
<path d="M51.1392 160.387C51.1392 160.387 50.9795 160.6 50.873 160.6C50.7132 160.6 50.6599 160.441 50.6599 160.334C50.6599 160.174 50.8198 160.121 50.9263 160.121C51.0861 160.121 51.1392 160.281 51.1392 160.387Z" fill="white"/>
<path d="M50.8198 160.707C50.8198 160.707 50.6601 160.653 50.6069 160.547C50.5536 160.44 50.5003 160.387 50.5535 160.281C50.5535 160.174 50.6068 160.121 50.7133 160.014C50.8198 159.961 50.873 159.908 50.9796 159.961C51.0861 159.961 51.1394 160.014 51.246 160.121C51.2992 160.227 51.3524 160.281 51.2991 160.387C51.2991 160.387 51.0861 160.707 50.8731 160.707H50.8198ZM50.9264 160.227C50.9264 160.227 50.873 160.227 50.8198 160.227C50.7665 160.227 50.8199 160.227 50.7666 160.334C50.7666 160.334 50.7666 160.387 50.7666 160.44C50.7666 160.44 50.7666 160.44 50.8731 160.494C50.9264 160.494 51.0329 160.494 51.0329 160.387C51.0329 160.387 51.0329 160.334 51.0329 160.281C51.0329 160.281 51.0329 160.281 50.9264 160.281V160.227Z" fill="#00BEB3"/>
<path d="M54.8676 159.163C53.5893 159.429 52.3111 159.908 51.0861 160.388C51.0328 160.388 50.9262 160.388 50.873 160.388C50.8197 160.388 50.7664 160.281 50.8197 160.228C51.4588 159.322 54.2283 158.63 54.2816 158.63C54.3349 158.63 54.974 159.109 54.8142 159.163H54.8676Z" fill="white"/>
</svg>
