<svg width="89" height="168" viewBox="0 0 89 168" fill="none" xmlns="http://www.w3.org/2000/svg">
<path d="M28.0153 69.3277C29.8794 71.1919 30.9979 73.6419 31.211 76.1452C31.3708 77.743 29.7197 78.8615 28.2816 78.1691C27.0033 77.53 25.8849 76.5714 25.1925 75.4529C24.0207 73.5355 23.8609 71.2452 24.4468 69.168" fill="#FFBFAD"/>
<mask id="path-2-outside-1_148_2327" maskUnits="userSpaceOnUse" x="15.1914" y="57.6221" width="15" height="15" fill="black">
<rect fill="white" x="15.1914" y="57.6221" width="15" height="15"/>
<path d="M24.6599 58.6221L29.2937 69.4341C29.2937 69.4341 28.2284 72.47 22.849 71.9373L16.1914 61.3383"/>
</mask>
<path d="M24.6599 58.6221L29.2937 69.4341C29.2937 69.4341 28.2284 72.47 22.849 71.9373L16.1914 61.3383" fill="#007DBC"/>
<path d="M29.2937 69.4341L29.7655 69.5996L29.8299 69.416L29.7532 69.2371L29.2937 69.4341ZM22.849 71.9373L22.4256 72.2033L22.556 72.4108L22.7998 72.4349L22.849 71.9373ZM24.2003 58.819L28.8341 69.631L29.7532 69.2371L25.1195 58.4251L24.2003 58.819ZM29.2937 69.4341C28.8219 69.2685 28.822 69.2682 28.8221 69.2678C28.8222 69.2677 28.8223 69.2674 28.8224 69.2672C28.8225 69.2667 28.8226 69.2664 28.8228 69.266C28.823 69.2654 28.8232 69.2649 28.8233 69.2646C28.8235 69.2641 28.8234 69.2642 28.8231 69.2649C28.8226 69.2665 28.8209 69.2707 28.8182 69.2774C28.8126 69.2909 28.8026 69.3142 28.7873 69.3458C28.7566 69.4092 28.7051 69.5056 28.627 69.623C28.4709 69.8575 28.2084 70.1758 27.7918 70.4831C26.9683 71.0905 25.4856 71.696 22.8983 71.4398L22.7998 72.4349C25.5918 72.7114 27.3315 72.0652 28.3854 71.2878C28.9076 70.9027 29.2477 70.4953 29.4594 70.1772C29.5652 70.0183 29.6389 69.8817 29.6875 69.7811C29.7119 69.7308 29.7299 69.6894 29.7426 69.6586C29.749 69.6433 29.754 69.6305 29.7578 69.6206C29.7596 69.6156 29.7612 69.6114 29.7625 69.6079C29.7631 69.6061 29.7637 69.6046 29.7642 69.6032C29.7645 69.6025 29.7647 69.6019 29.7649 69.6013C29.765 69.601 29.7651 69.6006 29.7652 69.6004C29.7653 69.6 29.7655 69.5996 29.2937 69.4341ZM23.2724 71.6714L16.6148 61.0723L15.768 61.6042L22.4256 72.2033L23.2724 71.6714Z" fill="#116B98" mask="url(#path-2-outside-1_148_2327)"/>
<mask id="mask0_148_2327" style="mask-type:alpha" maskUnits="userSpaceOnUse" x="11" y="30" width="23" height="42">
<path d="M11 32L28 30L33.5 45.5L31 72H11V32Z" fill="#C4C4C4"/>
</mask>
<g mask="url(#mask0_148_2327)">
<path d="M33.1953 44.156L33.2209 44.124L33.2349 44.0854C34.7392 39.9487 35.2521 37.0993 35.1559 35.1517C35.0592 33.1935 34.3421 32.114 33.368 31.5921C32.4166 31.0825 31.2838 31.1415 30.421 31.3093C29.9847 31.3941 29.6058 31.509 29.3359 31.6027C29.2008 31.6496 29.0925 31.6913 29.0173 31.7216C28.9797 31.7368 28.9504 31.7491 28.9302 31.7577L28.9067 31.7679L28.9002 31.7708L28.8983 31.7716L28.8977 31.7719C28.8975 31.772 28.8973 31.772 28.9999 32L28.8973 31.772L28.8473 31.7946L28.8113 31.836L12.7538 50.3093L12.73 50.3367L12.7149 50.3698C12.1707 51.5671 11.8403 52.8274 11.8403 54.1483C11.8403 55.7453 12.336 57.2804 13.1543 58.6442L13.155 58.6454L18.2659 67.0573C18.7965 67.997 19.8445 68.5125 20.8785 68.5125C23.873 68.5125 25.7895 67.4756 26.9965 66.5428L26.9972 66.5423C28.049 65.7243 28.3948 64.2698 27.8724 63.0508L27.8722 63.0505L24.4691 55.1447L27.9178 50.7624L27.919 50.761L33.1953 44.156Z" fill="#007DBC" stroke="#116B98" stroke-width="0.5"/>
</g>
</svg>
