<svg width="89" height="168" viewBox="0 0 89 168" fill="none" xmlns="http://www.w3.org/2000/svg">
<path d="M61.9996 83.8851C61.9996 83.8851 59.3581 83.4487 53.9268 80.8505C43.0959 75.6694 43.1216 85.2377 43.1216 85.2377C44.9862 97.4673 48.0912 107.168 47.6621 110.394C49.5406 116.341 55.9175 120.878 61.0051 110.211C60.9511 110.904 61.1119 109.527 61.0051 110.211C61.0051 110.211 61.7646 102.169 61.9996 96.9998C62.4996 85.9998 61.9996 83.8851 61.9996 83.8851Z" fill="#CECECE"/>
<mask id="mask0_148_2171" style="mask-type:alpha" maskUnits="userSpaceOnUse" x="40" y="84" width="25" height="37">
<path d="M40 85.5L65 84V121H40V85.5Z" fill="#C4C4C4"/>
</mask>
<g mask="url(#mask0_148_2171)">
<path d="M61.4425 84.0191C61.5856 84.0542 61.6989 84.0796 61.7824 84.0972C61.7932 84.1715 61.8066 84.2749 61.8213 84.4136C61.8595 84.7764 61.9061 85.3783 61.9372 86.3257C61.9994 88.2207 61.9997 91.4924 61.7498 96.9885C61.6326 99.568 61.3843 102.867 61.1651 105.523C61.0555 106.851 60.9533 108.017 60.8785 108.852C60.8411 109.269 60.8105 109.603 60.7893 109.833L60.7648 110.097L60.7604 110.144C59.5042 112.766 58.1812 114.431 56.8906 115.374C55.6002 116.318 54.3399 116.544 53.1841 116.289C52.0195 116.031 50.9314 115.279 50.0135 114.211C49.1075 113.158 48.3786 111.81 47.917 110.371C48.0173 109.525 47.8965 108.301 47.6425 106.781C47.3814 105.22 46.9738 103.317 46.4962 101.139C46.4197 100.79 46.3415 100.435 46.2617 100.072C45.3447 95.905 44.2278 90.829 43.3717 85.2198L43.3718 85.2143C43.3721 85.198 43.3726 85.1731 43.3738 85.1404C43.3761 85.0751 43.3809 84.9786 43.3908 84.8569C43.4106 84.6134 43.4507 84.2701 43.5317 83.8737C43.6945 83.0776 44.0189 82.0845 44.6604 81.254C45.2964 80.4306 46.2492 79.759 47.6967 79.5987C49.1541 79.4373 51.1347 79.792 53.8189 81.076C56.5439 82.3796 58.5724 83.1424 59.9229 83.58C60.5981 83.7987 61.1039 83.9361 61.4425 84.0191ZM60.8733 110.199L61.0051 110.211L60.8759 110.201C60.875 110.201 60.8742 110.2 60.8733 110.199Z" fill="#CECECE" stroke="#9E9E9E" stroke-width="0.5"/>
</g>
</svg>
