<svg width="89" height="168" viewBox="0 0 89 168" fill="none" xmlns="http://www.w3.org/2000/svg">
<path d="M37.1762 29.6488L41.8632 26.8791L42.023 16.9727L51.1306 20.8075L51.0774 23.8965L57.1492 24.0032L56.9361 34.6554L36.9099 45.7336L37.1762 29.6488Z" fill="#FDAD9C"/>
<path d="M62.9545 66.9316L62.7414 74.4415C62.7414 74.4415 47.1893 82.324 45.8578 82.8033C45.1654 83.0697 44.4196 83.336 43.7805 83.5491C35.4718 86.1056 29.4533 81.5251 29.4533 81.5251L29.2402 74.8142" fill="#7DBA5A"/>
<path d="M30.5187 30.5007L40.6383 22.1386L41.8633 21.0734V25.1213L50.7046 28.317L51.0775 21.3398L53.1547 19.9549L53.634 18.3038L56.084 17.5581C62.7036 18.3038 62.0001 26.5001 62.5001 32.5001L64.446 66.5584C64.5525 67.7834 63.9134 68.9551 62.8482 69.4877C58.4808 71.7779 47.4024 77.4237 46.2307 77.903C45.485 78.1693 44.6861 78.4889 43.9937 78.7019C37.8687 80.6193 32.5426 78.9149 29.773 77.6366C28.4948 77.0508 27.6958 75.7725 27.6958 74.3345L26.9502 38.0637C26.9502 35.1876 28.2817 32.3116 30.5187 30.5007Z" fill="#7DBA5A"/>
<path d="M32.1167 29.2758C32.1167 27.2519 34.0874 26.3465 35.5254 24.8552C36.1645 24.2161 36.9634 23.6834 37.3363 22.8313C37.5493 22.3519 37.6026 21.7659 37.8156 21.2333C38.1352 20.5409 38.8276 20.0083 39.52 19.742C40.2656 19.4757 41.97 19.6889 41.97 19.6889V25.1214L50.7048 28.2105L51.1842 21.2866L52.3026 17.0258C52.3026 17.0258 53.7407 15.3747 54.9657 16.4932C56.1907 17.6117 56.4571 16.4931 57.3625 17.6116C57.3625 17.6116 58.3055 26.4848 52.5001 30" fill="#7DBA5A"/>
<path d="M41.8633 19.2088C39.4666 16.6523 38.0817 13.5633 37.9752 9.99477C37.8154 6.05345 40.1589 2.911 43.7807 1.63274C46.9231 0.567515 51.1307 0.673966 53.4742 3.39028C54.9123 5.09464 54.9655 7.43815 54.9122 9.56859C54.9122 11.6458 55.1253 13.7763 54.9122 15.8535C54.6459 18.1438 53.7938 21.3927 51.6634 22.3514C49.1068 23.4699 43.9938 21.3927 41.9166 19.1557L41.8633 19.2088Z" fill="#FFBFAD"/>
<path d="M43.248 15.4809C42.9285 16.7592 42.3426 18.7299 41.9165 20.0081C39.2535 17.5049 37.4426 13.7232 37.0697 10.1015C36.9099 8.71669 37.0697 6.85262 37.8154 5.68087C38.348 4.88196 39.147 4.29605 39.9459 3.8167C40.1057 2.69822 41.011 1.84603 41.9697 1.31342C43.1947 0.67429 44.5263 0.301456 45.9111 0.141673C48.0948 -0.177894 50.4383 -0.0181562 52.3024 1.26011C53.6872 2.21881 54.7524 3.39063 55.4448 4.82868C55.7644 5.52107 55.7643 6.32001 55.2317 6.85262C53.1013 8.98307 49.6394 8.6635 46.6035 8.34393C45.9111 8.29067 45.1122 8.18414 44.473 8.50371C43.4611 9.03632 43.1415 10.3145 43.0883 11.433C42.9817 12.8178 43.5676 14.1494 43.248 15.4809V15.4809Z" fill="#63341A"/>
<path d="M43.7272 16.333C43.1946 15.1613 42.2892 12.4981 40.5316 13.4036C39.6262 13.8829 39.6794 14.9482 40.0522 15.8004C40.6381 17.1852 41.9163 18.3036 43.1413 19.1026" fill="#FFBFAD"/>
</svg>
