<svg width="108" height="168" viewBox="0 0 108 168" fill="none" xmlns="http://www.w3.org/2000/svg">
<path d="M57.2325 127.493C57.2325 127.493 57.4722 127.494 57.6321 127.414C58.1516 127.214 58.3915 126.614 58.1916 126.095L54.115 116.063C53.9151 115.543 53.3156 115.304 52.796 115.503C52.2764 115.703 52.0368 116.303 52.2367 116.822L56.3131 126.854C56.473 127.254 56.8328 127.493 57.2325 127.493Z" fill="#C4C4C4"/>
<path d="M44.2829 111.107C43.7234 111.427 43.7234 111.946 44.2829 112.266L49.5586 115.344C50.1181 115.663 50.9974 115.663 51.5569 115.344L54.1548 113.825C54.7144 113.505 54.7144 112.986 54.1548 112.666L48.8792 109.588C48.3197 109.269 47.4404 109.269 46.8809 109.588L44.2829 111.107Z" fill="#5E5E59" stroke="#5E5E59" stroke-width="0.5" stroke-miterlimit="10"/>
<path d="M44.2829 112.266L49.5585 115.344C50.118 115.663 50.9973 115.663 51.5568 115.344L54.1548 113.825C54.4345 113.665 54.5943 113.465 54.5543 113.225V114.744C54.5543 114.944 54.4345 115.184 54.1548 115.344L51.5568 116.862C50.9973 117.182 50.118 117.182 49.5585 116.862L44.2829 113.785C44.0031 113.625 43.8833 113.425 43.8833 113.225V111.707C43.8833 111.907 44.0031 112.106 44.2829 112.266Z" fill="#323231"/>
</svg>
