<svg width="108" height="168" viewBox="0 0 108 168" fill="none" xmlns="http://www.w3.org/2000/svg">
<path d="M22.7407 147.796C23.1004 147.796 23.46 147.597 23.6199 147.277C23.9796 146.637 32.0928 131.69 33.132 125.815C34.291 119.18 28.4559 117.861 28.4159 117.861C27.8564 117.742 27.3369 118.101 27.217 118.661C27.0971 119.22 27.4568 119.74 27.9764 119.86C28.376 119.94 31.933 120.859 31.1336 125.495C30.2943 130.251 24.0595 142.161 22.3009 145.478L20.7824 144.719C20.2628 144.479 19.6632 144.679 19.4234 145.198C19.1836 145.718 19.3835 146.318 19.903 146.557L22.3009 147.716C22.3009 147.716 22.5809 147.836 22.7407 147.836V147.796Z" fill="#90897E"/>
<path d="M62.9075 132.01C62.9075 132.01 63.2272 131.97 63.3471 131.85L90.7642 104.992C91.004 104.752 91.004 104.393 90.7642 104.153C90.5244 103.913 90.1648 103.913 89.925 104.153L62.5077 131.01C62.2679 131.25 62.2679 131.61 62.5077 131.85C62.6276 131.97 62.7877 132.05 62.9475 132.05L62.9075 132.01Z" fill="#008057"/>
<path d="M90.3243 105.552C90.684 105.552 91.0038 105.392 91.2036 105.072C91.4834 104.593 91.3234 103.993 90.8438 103.674L69.9014 91.1641C69.4218 90.8843 68.8221 91.044 68.5024 91.5236C68.2226 92.0032 68.3826 92.6029 68.8622 92.9226L89.8047 105.432C89.8047 105.432 90.1644 105.592 90.3243 105.592V105.552Z" fill="#008057"/>
<path d="M61.7087 123.057C59.1109 124.536 57.0325 128.173 57.0325 131.171C57.0325 134.128 59.1509 135.327 61.7487 133.848C64.3466 132.369 66.4248 128.732 66.4248 125.735C66.4248 122.777 64.3066 121.578 61.7087 123.057Z" fill="#EDEDED"/>
<path d="M59.9102 122.018C61.2291 121.259 62.3882 121.219 63.2275 121.698L65.0258 122.737C64.1865 122.258 62.9876 122.298 61.7087 123.057C59.1109 124.536 57.0324 128.173 57.0324 131.171C57.0324 132.649 57.5521 133.688 58.3914 134.168L56.5929 133.129C55.7536 132.649 55.2341 131.61 55.2341 130.131C55.2341 127.174 57.3123 123.537 59.9102 122.018Z" fill="#CCCCCC"/>
</svg>
