<svg width="108" height="168" viewBox="0 0 108 168" fill="none" xmlns="http://www.w3.org/2000/svg">
<path d="M65.8252 139.483C65.8252 139.483 66.0652 139.484 66.225 139.404C66.7446 139.204 66.9842 138.604 66.7844 138.085L62.708 128.053C62.5081 127.533 61.9086 127.294 61.389 127.493C60.8694 127.693 60.6296 128.293 60.8294 128.812L64.9061 138.844C65.0659 139.244 65.4256 139.483 65.8252 139.483Z" fill="#C4C4C4"/>
<path d="M64.1467 138.564C63.5872 138.884 63.5872 139.403 64.1467 139.723L69.4223 142.801C69.9819 143.12 70.8611 143.12 71.4207 142.801L74.0183 141.282C74.5779 140.962 74.5779 140.443 74.0183 140.123L68.743 137.045C68.1834 136.726 67.3042 136.726 66.7446 137.045L64.1467 138.564Z" fill="#5E5E59" stroke="#5E5E59" stroke-width="0.5" stroke-miterlimit="10"/>
<path d="M64.1466 139.723L69.4223 142.8C69.9818 143.12 70.8611 143.12 71.4206 142.8L74.0183 141.282C74.298 141.122 74.4581 140.922 74.4181 140.682V142.201C74.4181 142.401 74.298 142.641 74.0183 142.8L71.4206 144.319C70.8611 144.639 69.9818 144.639 69.4223 144.319L64.1466 141.242C63.8669 141.082 63.7471 140.882 63.7471 140.682V139.164C63.7471 139.363 63.8669 139.563 64.1466 139.723Z" fill="#323231"/>
</svg>
