<svg width="108" height="168" viewBox="0 0 108 168" fill="none" xmlns="http://www.w3.org/2000/svg">
<path d="M63.8263 11.5102C63.8263 12.1897 63.8263 12.9091 63.5065 13.5086C63.1468 14.3479 62.3876 14.9074 61.868 15.6668C61.3085 16.5461 61.0686 17.6251 61.3084 18.6243C61.4283 19.1838 61.6682 19.6634 61.908 20.143C62.5075 21.2221 63.3068 22.1813 64.3859 22.7408C65.6249 23.4203 67.1437 23.5002 68.4226 23.0206C69.7415 22.5011 70.7807 21.422 71.2203 20.1031C71.58 19.064 71.5798 17.9049 71.4998 16.7858C71.3799 14.8275 71.0603 12.8692 70.5407 10.9908C70.181 9.67186 69.7415 8.31291 68.9822 7.15387C68.3027 6.15471 67.4233 5.27546 66.3442 4.67596C62.8671 2.63766 63.7864 9.99157 63.8263 11.4703V11.5102Z" fill="#63341A"/>
<path d="M66.7041 57.2722L93.122 65.0256C92.8116 68.7396 91.8645 72.8103 90.6563 76.8386C90.3386 77.8978 90.0028 78.954 89.6558 80.0001C84 85.0001 74 82.5001 74 74.0001C73.96 74.5596 74 73.4006 74 74.0001L66 68.5001" fill="#007DBC"/>
<path d="M81.9312 24.0598L77.7745 22.2214L76.5755 13.9482L69.3816 18.1048L69.7414 20.7026L64.7056 21.422L65.9445 30.2946L83.8495 37.4885L81.9312 24.0598Z" fill="#FDAD9C"/>
<path d="M79.893 21.6218L86.6474 25.6585C88.7257 26.8974 90.1643 29.0157 90.4841 31.4537L94.2012 63.7866C94.2012 63.7866 90.9639 68.9025 83.2103 67.2239C75.4169 65.5852 66.1845 58.9107 66.1845 58.9107L61.9481 28.656C61.2686 23.82 63.4667 15.7867 64.8255 15.9066L66.9439 16.2264L70.5407 24.1797L79.893 21.5819V21.6218Z" fill="#FFC44A"/>
<path d="M66.3045 58.711C65.705 59.5902 65.1055 60.4695 64.3062 61.109C63.4269 61.8284 62.308 62.2281 61.2289 62.6277C60.4696 62.9075 59.5903 63.1073 58.9508 62.6277C58.4712 62.268 58.3113 61.6286 58.3912 61.0691C58.4711 60.5096 58.8309 59.99 59.1906 59.5504C60.1898 58.3913 61.5885 57.592 63.1072 57.2722C63.5069 56.8326 63.8266 56.1932 64.0664 55.6736" fill="#FFBFAD"/>
<path d="M80.8119 29.6152L72.8586 43.2839L61.708 55.6736C61.708 55.6736 63.1868 59.0707 66.9836 59.7901L80.2126 48.3596C84.2492 44.8425 90.6038 32.8126 90.6038 32.8126" fill="#FFC44A"/>
<path d="M73.219 54.4346L80.1732 48.3996C84.2098 44.8825 89.765 35.4504 89.765 35.4504" stroke="#EFA943" stroke-width="0.5" stroke-linecap="round" stroke-linejoin="round"/>
<path d="M80.8121 29.6152L72.8587 43.3239L67.7031 48.9991" stroke="#EFA943" stroke-width="0.5" stroke-linecap="round" stroke-linejoin="round"/>
<path d="M38.1677 40.726C37.3284 41.3654 36.4891 42.0049 35.49 42.3646C34.4109 42.7643 33.2517 42.8043 32.0926 42.8043C31.2933 42.8043 30.3742 42.7643 29.9345 42.1248C29.6148 41.6452 29.6548 40.9659 29.9345 40.4463C30.2143 39.9267 30.6939 39.567 31.1735 39.2472C32.4924 38.4479 34.091 38.1282 35.6097 38.3281C36.1293 38.0483 36.6488 37.5287 37.0485 37.0891" fill="#FFBFAD"/>
<path d="M68.1825 25.2987C68.1825 25.2987 59.5496 33.2521 54.5938 35.3304L38.4473 42.0047C35.0901 40.1263 34.7305 36.4094 34.7305 36.4094L49.2384 28.2163L61.1084 17.785C62.2274 16.7458 63.3465 15.7867 64.8252 15.9865" fill="#FFC44A"/>
<path d="M77.4154 19.6234L70.541 24.2197L69.4221 18.4645L67.0239 17.3054L67.2637 27.1372L70.541 24.2197L72.4993 28.6559L79.8933 21.6218L77.4154 19.6234Z" fill="#FBFFFC"/>
<path d="M76.8557 15.587C78.5343 13.189 79.3335 10.3913 79.0138 7.39377C78.6541 4.03657 76.3361 1.71856 73.1388 1.07909C70.3811 0.559525 66.8639 1.11907 65.2652 3.7169C64.2661 5.31557 64.5059 7.27392 64.7857 9.07242C65.0654 10.831 65.1054 12.6295 65.545 14.348C66.0246 16.2265 67.1437 18.8642 69.0621 19.4238C71.3402 20.0632 75.3769 17.7052 76.8557 15.547V15.587Z" fill="#FFBFAD"/>
<path d="M75.2568 12.5895C75.6965 13.6286 76.4161 15.2272 76.9356 16.1864C78.894 13.7884 79.933 10.3913 79.8131 7.31384C79.7731 6.15481 79.4135 4.55613 78.6542 3.67686C78.1346 3.07736 77.3752 2.67775 76.6558 2.35802C76.3761 1.43878 75.5368 0.839197 74.6575 0.519464C73.5784 0.119797 72.3795 0 71.2204 0C69.342 0 67.4236 0.399637 65.9848 1.71854C64.9457 2.67774 64.1861 3.79679 63.7864 5.07572C63.5067 5.99495 63.4268 7.03408 63.6267 8.07322C63.8265 9.07238 64.3859 10.0315 65.0254 10.631C68.5025 10.3113 71.8999 8.67265 74.7375 6.63435C74.6576 8.63269 74.5375 10.711 75.2968 12.5895H75.2568Z" fill="#63341A"/>
<path d="M86.0477 25.2989L84.0094 24.0999C82.3308 24.4996 79.7731 24.8192 78.2144 24.0199C77.0954 23.4604 76.296 22.3414 75.9363 21.1024C75.5766 19.8635 75.6564 18.5845 76.0161 17.3455C76.2159 16.6661 76.216 15.1873 76.3359 14.5078C76.4558 13.7884 76.6555 13.8285 76.2559 13.229C77.0552 12.2698 77.6548 10.9508 78.0944 9.79179C78.4941 8.75266 78.7338 7.63361 79.0136 6.55451C79.1335 5.95501 79.0137 4.99581 79.1736 4.43628C80.3726 6.43461 81.3318 9.51206 81.6915 12.0699C81.8913 13.4288 81.9311 14.8276 82.2509 16.1465C82.5706 17.4254 83.1303 18.6644 83.8896 19.7036C84.5291 20.5828 85.2484 21.3422 85.7679 22.3014C86.2875 23.2206 86.5273 24.3397 86.0477 25.2989Z" fill="#63341A"/>
<path d="M74.9375 13.4288C75.2173 12.3897 75.6967 10.0717 77.2554 10.5912C78.0547 10.871 78.1748 11.7902 77.975 12.5096C77.6153 13.7485 76.7358 14.8676 75.7766 15.6269" fill="#FFBFAD"/>
</svg>
