<svg width="108" height="168" viewBox="0 0 108 168" fill="none" xmlns="http://www.w3.org/2000/svg">
<path d="M63.9742 124.21C63.9742 124.21 63.3347 125.649 62.2157 126.649C60.2173 128.447 58.1391 129.766 56.3007 131.684C55.7411 132.284 54.742 133.842 55.0617 134.562C55.5813 135.841 60.0176 135.921 61.5363 135.121C63.055 134.322 66.3324 131.404 67.9311 130.765C68.7304 130.445 69.8494 130.445 70.5288 130.006C71.2082 129.566 71.1284 128.807 71.1684 128.167C71.1684 127.488 71.2084 124.61 71.1684 123.851" fill="#404040"/>
<path d="M66.6938 89L72.1938 89.5L74.7246 93.3962C74.6047 99.4711 72.1269 125.37 72.1269 125.37C71.7672 126.688 67.091 128.247 62.0952 125.37L63.534 93.2762C63.534 92.6767 63.5706 92.1513 63.654 91.5576" fill="#007DBC"/>
</svg>
