<svg width="78" height="167" viewBox="0 0 78 167" fill="none" xmlns="http://www.w3.org/2000/svg">
<path d="M39.8101 0.832489V0.912506L39.7901 0.932495V0.972504L39.7701 0.992493V1.01248L39.7501 1.0325V1.05249L39.7301 1.07248L39.7101 1.0925L39.6901 1.13251C39.6901 1.13251 39.6701 1.1725 39.6501 1.1825H39.6401L39.6101 1.2225H39.5901L39.5701 1.2525L39.5501 1.27249L39.5301 1.29248L39.5101 1.3125L39.4901 1.33249H39.4701L39.4401 1.36249L39.4101 1.38251C39.4101 1.38251 39.3501 1.4125 39.3201 1.4325H39.2901C39.2901 1.4325 39.2301 1.47248 39.2001 1.48248H39.1901C39.1901 1.48248 39.1201 1.51249 39.0901 1.52249C39.0701 1.52249 39.0401 1.53248 39.0201 1.54248C39.0001 1.54248 38.9801 1.55249 38.9701 1.55249C38.9401 1.55249 38.9201 1.56248 38.8901 1.57248C38.8701 1.57248 38.8501 1.57249 38.8301 1.58249H38.8101C38.8101 1.58249 38.7501 1.59251 38.7101 1.60251H38.6801C38.6801 1.60251 38.6401 1.60251 38.6201 1.60251C38.5901 1.60251 38.5601 1.60251 38.5301 1.60251C38.5101 1.60251 38.4901 1.60251 38.4701 1.60251C38.4401 1.60251 38.4201 1.60251 38.3901 1.60251H38.3301C38.3301 1.60251 38.2801 1.60251 38.2601 1.60251C38.2401 1.60251 38.2201 1.60251 38.2001 1.60251C38.1801 1.60251 38.1501 1.60251 38.1301 1.60251H38.0701C38.0701 1.60251 38.0201 1.58249 38.0001 1.58249H37.9401C37.9401 1.58249 37.8801 1.55249 37.8501 1.55249C37.8301 1.55249 37.8101 1.55248 37.7901 1.54248H37.7601C37.7601 1.54248 37.7001 1.5125 37.6801 1.5025H37.6601C37.6601 1.5025 37.6101 1.47249 37.5901 1.46249L37.5501 1.4425C37.5501 1.4425 37.4801 1.41249 37.4501 1.39249C37.2501 1.27249 37.1201 1.1325 37.0701 0.972504C37.0701 0.942504 37.0601 0.922487 37.0501 0.892487C37.0501 0.882487 37.0501 0.862509 37.0501 0.852509C37.0501 0.842509 37.0501 0.8225 37.0501 0.8125V6.63251C37.0401 6.84251 37.1701 7.04248 37.4501 7.20248C37.4801 7.22248 37.5201 7.2425 37.5501 7.2525L37.5901 7.27249C37.5901 7.27249 37.6301 7.29249 37.6501 7.30249H37.6901C37.6901 7.30249 37.7501 7.3325 37.7701 7.3425H37.8001L37.8201 7.36249H37.8601C37.8601 7.36249 37.9201 7.38249 37.9501 7.39249H38.0101C38.0101 7.39249 38.0601 7.41251 38.0801 7.41251H38.1401C38.1401 7.41251 38.1901 7.4225 38.2101 7.4325H38.2701C38.2701 7.4325 38.3201 7.4325 38.3401 7.4325H38.3801C38.3801 7.4325 38.4001 7.4325 38.4101 7.4325C38.4401 7.4325 38.4601 7.4325 38.4901 7.4325C38.5001 7.4325 38.5201 7.4325 38.5301 7.4325H38.5501C38.5501 7.4325 38.6101 7.4325 38.6401 7.4325H38.7201C38.7201 7.4325 38.7801 7.41251 38.8201 7.41251H38.8601C38.8601 7.41251 38.8901 7.40249 38.9001 7.39249C38.9301 7.39249 38.9501 7.3825 38.9801 7.3725C39.0001 7.3725 39.0201 7.37249 39.0301 7.36249C39.0501 7.36249 39.0801 7.3525 39.1001 7.3425H39.1201C39.1201 7.3425 39.1801 7.3225 39.2001 7.3125H39.2101C39.2101 7.3125 39.2701 7.28249 39.3001 7.27249H39.3301C39.3301 7.27249 39.3901 7.23249 39.4201 7.21249H39.4401L39.4601 7.1925L39.4901 7.17249H39.5101L39.5301 7.14249L39.5501 7.1225L39.5701 7.10251L39.5901 7.08249L39.6101 7.0625H39.6301L39.6601 7.01248H39.6701C39.6701 7.01248 39.6901 6.97249 39.7101 6.96249L39.7301 6.92249L39.7501 6.88251V6.86249L39.7701 6.8425V6.82248L39.7901 6.80249V6.74249L39.8101 6.7225V6.64249V0.822479V0.832489Z" fill="#E64E47"/>
<path d="M39.4 0.2325C39.94 0.5425 39.95 1.05251 39.4 1.37251C38.86 1.68251 37.98 1.68251 37.44 1.37251C36.9 1.06251 36.89 0.5525 37.44 0.2325C37.98 -0.0775 38.86 -0.0775 39.4 0.2325Z" fill="#FF6E6E"/>
</svg>
