<svg width="459" height="272" viewBox="0 0 459 272" fill="none" xmlns="http://www.w3.org/2000/svg">
<path d="M98.75 54.6396L98.92 70.7097L199.32 130.06L199.14 113.99L98.75 54.6396Z" fill="#EDEDED"/>
<path d="M98.75 54.6395L199.14 113.989L254.44 81.2794L154.04 21.9395L98.75 54.6395Z" fill="#FDFDFD"/>
<path d="M103.46 54.1993L198.97 110.639L249.53 80.7493L154.02 24.3193L103.46 54.1993Z" fill="#EDEDED"/>
<path d="M199.14 113.989L199.32 130.059L254.61 97.3493L254.44 81.2793L199.14 113.989Z" fill="#D1D1D1"/>
<path d="M246.8 82.3393L249.53 80.7493L154.01 24.3193L154.11 27.4193L246.8 82.3393Z" fill="#DDDDDD"/>
<path d="M154.11 27.4193L153.89 24.3193L103.46 54.1993L105.85 55.5893L154.11 27.4193Z" fill="#DDDDDD"/>
<path d="M112.14 78.6393L199.32 130.059L200.82 75.6193L112.73 22.8193L112.14 78.6393Z" fill="#E2E2E2"/>
<path d="M150.59 63.079C150.59 62.989 150.62 62.889 150.63 62.799C150.74 62.099 151.15 61.389 151.65 61.099L152.45 60.639L157.61 57.659L158.25 57.289C158.52 57.139 158.76 57.139 158.93 57.269L158.96 57.179L191.28 75.839L190.97 77.029L189.55 82.389L188.89 84.889L187.67 89.509L186.27 94.829C186.27 94.829 153.81 76.229 153.37 75.859L153.33 75.839C152.95 75.509 152.61 75.109 152.34 74.599C151.42 72.889 150.96 70.469 150.75 68.189C150.56 66.199 150.56 64.309 150.59 63.079V63.079Z" fill="#3D9EC4"/>
<path d="M190.97 77.0289L189.55 82.3889L152.45 60.6389L157.61 57.6689L190.97 77.0289Z" fill="#3091C1"/>
<path d="M152.45 71.7285L181.39 88.4385C181.39 88.4385 181.42 88.9485 181.66 89.9285C181.87 90.7685 182.45 91.5085 182.45 91.5085L154.79 75.5185C154.06 75.0985 153.42 74.4885 152.97 73.5985C152.59 72.8385 152.45 71.7285 152.45 71.7285V71.7285Z" fill="#1571AA"/>
<path d="M183.6 89.0191L183.73 88.7892L150.95 69.8691L151 70.1991L183.6 89.0191Z" fill="#2C8BA8"/>
<path d="M154.77 73.0693L153.93 74.2093L181.78 90.2993L181.4 88.4393L154.77 73.0693Z" fill="white"/>
<path d="M150.58 63.8595L187.79 85.3495V84.4095L150.61 62.9395C150.61 62.9395 150.58 63.2295 150.58 63.3195C150.58 63.4595 150.58 63.8595 150.58 63.8595V63.8595Z" fill="#2C8BA8"/>
<path d="M191.73 76.6992V95.4492C191.73 95.4492 186.75 96.8092 184.84 93.2592C183.11 90.0492 183.02 84.3692 183.09 81.7492C183.11 80.9792 183.58 80.0992 184.15 79.7692L190.74 75.9592C191.28 75.6492 191.72 75.9792 191.72 76.6992H191.73Z" fill="#2C8BA8"/>
<path d="M190.98 77.8394V94.3494C190.98 94.3494 186.86 95.4695 185.29 92.5395C183.86 89.8795 183.79 84.1794 183.84 82.0094C183.86 81.3694 184.25 80.6494 184.72 80.3694L190.17 77.2194C190.62 76.9594 190.98 77.2394 190.98 77.8294V77.8394Z" fill="#1571AA"/>
<path d="M149.03 159.89L199.32 130.06L112.14 78.6396L52.97 107.51L149.03 159.89Z" fill="#FDFDFD"/>
<path d="M52.5601 54.2893L112.73 22.8193L112.14 78.6393L52.5601 108V54.2893Z" fill="#C1C1C1"/>
<path d="M160.19 77.5498C160.19 77.5498 157.15 78.4698 156.04 81.3398C154.93 84.2098 149.03 84.8898 149.03 84.8898C149.03 84.8898 154.99 86.3298 156.81 82.1998C158.63 78.0698 160.18 77.5498 160.18 77.5498H160.19Z" fill="white"/>
<path d="M166.24 80.3496C166.24 80.3496 163.2 81.2696 162.09 84.1396C161.01 86.9296 155.08 87.6896 155.08 87.6896C155.08 87.6896 161.04 89.1296 162.86 84.9996C164.68 80.8696 166.23 80.3496 166.23 80.3496H166.24Z" fill="white"/>
<path d="M172.29 83.1592C172.29 83.1592 169.25 84.0792 168.14 86.9492C167.03 89.8192 161.13 90.4992 161.13 90.4992C161.13 90.4992 167.09 91.9392 168.91 87.8092C170.73 83.6792 172.28 83.1592 172.28 83.1592H172.29Z" fill="white"/>
<path d="M112.7 26.0793L112.74 22.8193L52.5601 54.2893L54.95 55.6693L112.7 26.0793Z" fill="#FDFDFD"/>
<path d="M198.2 77.1693L200.82 75.5393L112.74 22.8193L112.7 26.0793L198.2 77.1693Z" fill="#FDFDFD"/>
<path d="M112.7 26.0744L112.74 22.8145L52.5601 54.2844L54.9501 55.6645L112.7 26.0744Z" fill="#FDFDFD"/>
<path d="M197.98 77.0794L200.78 75.5794L112.74 22.8145L112.7 26.0744L197.98 77.0794Z" fill="#FDFDFD"/>
</svg>
