<svg width="459" height="272" viewBox="0 0 459 272" fill="none" xmlns="http://www.w3.org/2000/svg">
<path d="M52.5601 54.2891L52.97 107.509L146.47 161.169L146.06 107.949L52.5601 54.2891Z" fill="#F2F2F2"/>
<path d="M101.88 118.73L121.94 130.2L126.48 127.52L106.42 116.05L101.88 118.73Z" fill="white"/>
<path d="M104.32 142.59L119.06 134.18L104.15 125.66L104.32 142.59Z" fill="#323231"/>
<path d="M121.94 130.199L122.09 152.74L119.79 151.419L119.67 134.499L104.21 125.66L104.32 142.589L102.04 141.27L101.88 118.729L121.94 130.199Z" fill="#EDEDED"/>
<path d="M121.94 130.2L122.09 152.74L126.63 150.06L126.48 127.52L121.94 130.2Z" fill="#CECECE"/>
<path d="M104.32 142.59L119.79 151.42L119.67 134.5L119.06 134.18L104.32 142.59Z" fill="#5E5E59"/>
<path d="M66.5101 98.1595L86.5601 109.63L91.1001 106.949L71.0501 95.4795L66.5101 98.1595Z" fill="white"/>
<path d="M68.95 122.009L83.6901 113.599L68.78 105.079L68.95 122.009Z" fill="#323231"/>
<path d="M86.5601 109.629L86.7201 132.159L84.4101 130.839L84.3001 113.919L68.8401 105.079L68.9501 122.009L66.6601 120.699L66.5101 98.1592L86.5601 109.629Z" fill="#EDEDED"/>
<path d="M86.5601 109.629L86.72 132.159L91.2601 129.479L91.1 106.949L86.5601 109.629Z" fill="#CECECE"/>
<path d="M68.9501 122.01L84.4101 130.84L84.3001 113.92L83.6901 113.6L68.9501 122.01Z" fill="#5E5E59"/>
<path d="M130.6 106.629L130.64 111.779L139.68 116.969L139.64 111.829L130.6 106.629Z" fill="#89CEE1"/>
<path d="M116.13 98.4189L116.17 103.559L125.21 108.749L125.17 103.609L116.13 98.4189Z" fill="#89CEE1"/>
<path d="M101.66 90.1992L101.7 95.3392L110.74 100.529L110.7 95.3892L101.66 90.1992Z" fill="#89CEE1"/>
<path d="M87.1901 81.9795L87.23 87.1195L96.27 92.3095L96.23 87.1695L87.1901 81.9795Z" fill="#89CEE1"/>
<path d="M72.7201 73.7598L72.7601 78.8998L81.8001 84.0898L81.7601 78.9498L72.7201 73.7598Z" fill="#89CEE1"/>
<path d="M116.18 108.8L116.22 113.95L125.27 119.14L125.23 113.99L116.18 108.8Z" fill="#89CEE1"/>
<path d="M101.71 100.579L101.75 105.729L110.8 110.919L110.76 105.769L101.71 100.579Z" fill="#89CEE1"/>
<path d="M87.2401 92.3594L87.2801 97.5094L96.3301 102.699L96.2901 97.5494L87.2401 92.3594Z" fill="#89CEE1"/>
<path d="M72.78 84.1396L72.8201 89.2897L81.86 94.4796L81.8201 89.3297L72.78 84.1396Z" fill="#89CEE1"/>
<path d="M58.2501 65.5391L58.2901 70.6791L67.3301 75.8791L67.2901 70.7291L58.2501 65.5391Z" fill="#89CEE1"/>
<path d="M130.65 116.3L130.69 121.45L139.73 126.64L139.69 121.49L130.65 116.3Z" fill="#89CEE1"/>
<path d="M58.3 75.1992L58.34 80.3492L67.39 85.5392L67.35 80.3892L58.3 75.1992Z" fill="#89CEE1"/>
<path d="M146.06 107.949L148.87 106.369L55.5101 52.7393L52.5601 54.2893L146.06 107.949Z" fill="#FDFDFD"/>
<path d="M149.03 106.454V159.874L146.47 161.164L146.06 107.944L149.03 106.454Z" fill="#D1D1D1"/>
<path d="M146.06 107.944L149.03 106.454L55.5101 52.7344L52.5601 54.2844L146.06 107.944Z" fill="#FDFDFD"/>
</svg>
