<svg width="459" height="272" viewBox="0 0 459 272" fill="none" xmlns="http://www.w3.org/2000/svg">
<path d="M389.09 146.139L402.76 137.869L374.33 122.109L360.84 129.829L389.09 146.139Z" fill="#6EA989"/>
<path d="M402.76 137.869V139.909L390.84 147.149L389.09 146.139L402.76 137.869Z" fill="#5A8E70"/>
<path d="M423.69 164.889L421.54 166.139L330.29 113.479L181.92 199.119L179.75 197.869L179.76 200.359L211.38 218.619L204.51 222.849L202.45 221.619V224.109L232.94 242.259L241.8 236.179L273.16 254.289L423.69 167.379V164.889Z" fill="#5A8E70"/>
<path d="M215.68 213.479L202.45 221.619L232.93 239.769L244.78 231.639L215.68 213.479Z" fill="#6EA989"/>
<path d="M273.16 251.799L179.75 197.869L330.28 110.959L423.69 164.889L273.16 251.799Z" fill="#6EA989"/>
<g opacity="0.35">
<path opacity="0.35" d="M405.16 175.579L311.76 121.659L330.28 110.959L423.69 164.889L405.16 175.579Z" fill="#94D6B0"/>
<path opacity="0.35" d="M367.53 197.309L274.13 143.389L292.65 132.689L386.06 186.609L367.53 197.309Z" fill="#94D6B0"/>
<path opacity="0.35" d="M329.9 219.039L236.5 165.109L255.03 154.409L348.43 208.339L329.9 219.039Z" fill="#94D6B0"/>
<path opacity="0.35" d="M292.27 240.759L198.87 186.839L217.39 176.139L310.8 230.069L292.27 240.759Z" fill="#94D6B0"/>
</g>
<path d="M273.13 246.899L188.25 197.889L330.32 115.869L415.21 164.879L273.14 246.899H273.13ZM190.14 197.889L273.13 245.809L413.31 164.869L330.32 116.959L190.14 197.889V197.889Z" fill="white"/>
<path d="M409.02 167.889C406.12 166.209 406.1 163.499 408.99 161.839L409.94 162.389C407.57 163.759 407.58 165.979 409.97 167.359L409.03 167.899L409.02 167.889Z" fill="white"/>
<path d="M325.08 119.429L326.02 118.889C328.4 120.259 332.26 120.269 334.62 118.909L335.57 119.459C332.69 121.129 327.98 121.119 325.08 119.439V119.429Z" fill="white"/>
<path d="M194.46 200.929L193.51 200.389C195.88 199.019 195.86 196.799 193.48 195.429L194.42 194.889C197.32 196.559 197.34 199.279 194.45 200.939L194.46 200.929Z" fill="white"/>
<path d="M268.81 243.859L267.86 243.309C270.74 241.639 275.45 241.649 278.35 243.329L277.4 243.879C275.02 242.509 271.17 242.499 268.8 243.859H268.81Z" fill="white"/>
<path d="M343.22 205.879L259.29 157.419L260.23 156.879L344.16 205.339L343.22 205.879Z" fill="white"/>
<path d="M285.1 190.979C275.88 185.649 275.83 177.019 284.99 171.729C294.15 166.439 309.11 166.469 318.33 171.789C327.55 177.109 327.6 185.749 318.43 191.039C309.27 196.329 294.31 196.299 285.09 190.979H285.1ZM317.4 172.329C308.7 167.309 294.59 167.279 285.94 172.269C277.3 177.259 277.34 185.409 286.04 190.429C294.74 195.449 308.85 195.479 317.5 190.489C326.15 185.499 326.1 177.349 317.4 172.329Z" fill="white"/>
<path d="M374.7 155.639L343.77 137.789L355.56 130.989L356.5 131.529L345.66 137.789L374.69 154.549L385.53 148.289L386.48 148.839L374.7 155.639Z" fill="white"/>
<path d="M376.03 169.45L320.49 137.38L343.57 124.06L344.51 124.61L322.38 137.39L376.02 168.36L398.16 155.58L399.1 156.13L376.03 169.45Z" fill="white"/>
<path d="M245.99 230.679L245.04 230.139L254.16 224.869L225.13 208.109L216.01 213.369L215.06 212.829L225.12 207.019L256.05 224.869L245.99 230.679Z" fill="white"/>
<path d="M257.98 237.609L257.03 237.059L277.44 225.279L223.79 194.309L203.39 206.089L202.45 205.539L223.79 193.209L279.33 225.279L257.98 237.609Z" fill="white"/>
<path d="M340.56 158.949C334.34 155.349 332.08 150.109 334.66 145.269C334.77 145.069 335.14 144.959 335.49 145.019C335.84 145.079 336.04 145.299 335.93 145.499C333.49 150.069 335.63 155.019 341.5 158.409C347.37 161.799 355.94 163.029 363.86 161.629C364.21 161.559 364.59 161.679 364.7 161.879C364.81 162.089 364.62 162.299 364.26 162.359C355.87 163.849 346.79 162.539 340.56 158.949V158.949Z" fill="white"/>
<path d="M266.33 218.42C266.16 218.32 266.08 218.17 266.16 218.03C268.6 213.46 266.46 208.52 260.59 205.12C254.72 201.73 246.15 200.5 238.23 201.9C237.88 201.97 237.51 201.85 237.39 201.64C237.28 201.44 237.48 201.22 237.83 201.16C246.22 199.67 255.3 200.98 261.53 204.57C267.76 208.16 270.02 213.4 267.43 218.25C267.32 218.45 266.95 218.57 266.6 218.5C266.49 218.48 266.4 218.45 266.33 218.41V218.42Z" fill="white"/>
<path d="M246.92 229.049L243.26 231.269L213.03 215.029L221.92 209.959L243.26 221.249L246.92 229.049Z" fill="#6EA989"/>
<path d="M233.29 236.479C233.19 236.479 233.09 236.429 233.03 236.359C232.97 236.289 232.91 236.169 232.94 235.959L234.77 223.609C234.82 223.299 235.05 222.939 235.31 222.769L238.57 220.709C238.67 220.649 238.77 220.619 238.87 220.619C239.07 220.619 239.29 220.779 239.29 221.109V231.989C239.29 232.309 239.09 232.689 238.82 232.869L233.58 236.359C233.48 236.429 233.38 236.469 233.28 236.469L233.29 236.479ZM238.85 221.079C238.85 221.079 238.83 221.079 238.82 221.099L235.55 223.159C235.4 223.259 235.24 223.499 235.21 223.679L233.39 235.979L238.59 232.509C238.73 232.419 238.86 232.179 238.86 231.999V221.119V221.089L238.85 221.079Z" fill="white"/>
<path d="M208.11 221.62C208 221.62 207.91 221.58 207.84 221.5C207.78 221.44 207.72 221.31 207.75 221.11L209.59 208.76C209.63 208.45 209.87 208.09 210.13 207.92L213.4 205.86C213.5 205.8 213.6 205.77 213.69 205.77C213.9 205.77 214.12 205.93 214.12 206.26V217.14C214.12 217.46 213.91 217.84 213.65 218.02L208.41 221.52C208.31 221.58 208.2 221.62 208.11 221.62V221.62ZM213.67 206.23C213.67 206.23 213.65 206.23 213.64 206.25L210.37 208.31C210.22 208.41 210.05 208.66 210.03 208.83L208.2 221.12L213.39 217.65C213.53 217.55 213.67 217.31 213.67 217.14V206.26C213.67 206.26 213.67 206.23 213.67 206.22V206.23Z" fill="white"/>
<path d="M238.86 221.059C238.86 221.059 238.78 221.049 238.75 221.029L213.59 206.129C213.48 206.069 213.45 205.929 213.51 205.819C213.57 205.719 213.7 205.679 213.82 205.739L238.97 220.639C239.08 220.699 239.11 220.839 239.05 220.949C239.01 221.019 238.93 221.059 238.86 221.059V221.059Z" fill="white"/>
<path d="M233.13 236.399C233.13 236.399 233.05 236.399 233.02 236.369L207.83 221.549C207.73 221.489 207.69 221.349 207.75 221.239C207.81 221.139 207.95 221.099 208.05 221.159L233.25 235.979C233.35 236.039 233.39 236.179 233.33 236.289C233.29 236.359 233.21 236.399 233.14 236.399H233.13Z" fill="white"/>
<path d="M209.18 222.189H209.17C209.1 222.189 209.06 222.119 209.07 222.059L210.93 209.499C210.97 209.219 211.19 208.889 211.42 208.739L214.79 206.619C214.84 206.589 214.91 206.599 214.94 206.649C214.98 206.699 214.96 206.769 214.91 206.809L211.54 208.929C211.36 209.039 211.18 209.319 211.15 209.529L209.29 222.089C209.29 222.149 209.23 222.179 209.18 222.179V222.189Z" fill="white"/>
<path d="M210.36 222.829H210.34C210.28 222.819 210.24 222.759 210.25 222.699L212.11 210.139C212.15 209.859 212.36 209.529 212.6 209.379L215.97 207.259C216.02 207.229 216.09 207.239 216.12 207.289C216.15 207.339 216.14 207.409 216.09 207.439L212.72 209.559C212.54 209.669 212.36 209.949 212.33 210.159L210.47 222.729C210.47 222.779 210.41 222.819 210.36 222.819V222.829Z" fill="white"/>
<path d="M211.46 223.589H211.45C211.39 223.589 211.35 223.529 211.36 223.459L213.22 210.899C213.26 210.619 213.48 210.289 213.71 210.139L217.08 208.019C217.13 207.989 217.2 208.009 217.23 208.049C217.26 208.109 217.25 208.179 217.2 208.209L213.83 210.329C213.65 210.449 213.47 210.719 213.44 210.939L211.58 223.499C211.58 223.559 211.52 223.599 211.47 223.599L211.46 223.589Z" fill="white"/>
<path d="M212.67 224.18H212.65C212.59 224.18 212.55 224.11 212.56 224.05L214.42 211.49C214.46 211.21 214.68 210.88 214.92 210.73L218.28 208.61C218.34 208.58 218.41 208.59 218.44 208.64C218.47 208.69 218.46 208.76 218.41 208.79L215.04 210.91C214.86 211.03 214.68 211.3 214.65 211.52L212.79 224.08C212.79 224.13 212.73 224.17 212.68 224.17L212.67 224.18Z" fill="white"/>
<path d="M213.83 224.939H213.81C213.75 224.939 213.71 224.879 213.71 224.809L215.57 212.249C215.61 211.969 215.83 211.639 216.06 211.489L219.43 209.369C219.43 209.369 219.55 209.349 219.58 209.399C219.61 209.449 219.6 209.519 219.55 209.559L216.18 211.679C216 211.799 215.82 212.069 215.79 212.289L213.93 224.849C213.93 224.909 213.87 224.939 213.82 224.939H213.83Z" fill="white"/>
<path d="M215 225.549H214.98C214.92 225.539 214.88 225.489 214.89 225.419L216.76 212.859C216.8 212.579 217.02 212.249 217.25 212.099L220.62 209.979C220.67 209.939 220.74 209.959 220.78 210.009C220.81 210.059 220.79 210.129 220.74 210.159L217.38 212.279C217.19 212.399 217.02 212.669 216.98 212.879L215.12 225.439C215.12 225.499 215.06 225.539 215.01 225.539L215 225.549Z" fill="white"/>
<path d="M216.15 226.239H216.14C216.07 226.239 216.04 226.169 216.04 226.109L217.9 213.549C217.94 213.269 218.16 212.939 218.39 212.789L221.76 210.669C221.81 210.639 221.88 210.649 221.92 210.699C221.95 210.749 221.94 210.819 221.89 210.849L218.52 212.969C218.34 213.089 218.16 213.359 218.13 213.569L216.27 226.129C216.27 226.189 216.21 226.229 216.16 226.229L216.15 226.239Z" fill="white"/>
<path d="M217.34 226.9C217.34 226.9 217.34 226.9 217.32 226.9C217.26 226.9 217.22 226.84 217.23 226.77L219.09 214.21C219.13 213.93 219.35 213.6 219.58 213.45L222.94 211.33C223 211.3 223.06 211.32 223.1 211.36C223.13 211.42 223.12 211.48 223.07 211.52L219.7 213.64C219.52 213.76 219.34 214.03 219.31 214.24L217.45 226.8C217.45 226.86 217.39 226.89 217.34 226.89V226.9Z" fill="white"/>
<path d="M218.5 227.68C218.5 227.68 218.49 227.68 218.48 227.68C218.42 227.68 218.38 227.62 218.39 227.55L220.26 214.99C220.3 214.71 220.52 214.38 220.75 214.23L224.12 212.11C224.17 212.08 224.24 212.09 224.28 212.14C224.31 212.19 224.29 212.26 224.24 212.3L220.87 214.42C220.69 214.53 220.51 214.81 220.48 215.02L218.62 227.58C218.62 227.64 218.56 227.68 218.51 227.68H218.5Z" fill="white"/>
<path d="M219.62 228.379H219.61C219.55 228.379 219.5 228.309 219.51 228.249L221.37 215.699C221.41 215.419 221.62 215.089 221.86 214.939L225.23 212.819C225.28 212.789 225.35 212.809 225.39 212.849C225.42 212.909 225.4 212.969 225.35 213.009L221.98 215.129C221.8 215.239 221.62 215.519 221.59 215.729L219.73 228.289C219.72 228.349 219.67 228.389 219.62 228.389V228.379Z" fill="white"/>
<path d="M220.81 229.04H220.79C220.73 229.04 220.69 228.98 220.7 228.91L222.56 216.35C222.6 216.07 222.82 215.74 223.05 215.59L226.42 213.47C226.42 213.47 226.54 213.46 226.57 213.51C226.61 213.56 226.59 213.63 226.54 213.66L223.17 215.78C222.99 215.9 222.81 216.17 222.78 216.39L220.92 228.95C220.92 229 220.86 229.04 220.81 229.04Z" fill="white"/>
<path d="M221.97 229.729H221.95C221.89 229.729 221.85 229.659 221.86 229.599L223.72 217.039C223.76 216.759 223.98 216.429 224.21 216.279L227.58 214.159C227.63 214.129 227.7 214.139 227.74 214.189C227.77 214.239 227.76 214.309 227.71 214.339L224.34 216.459C224.16 216.569 223.98 216.849 223.95 217.059L222.09 229.619C222.08 229.679 222.03 229.709 221.98 229.709L221.97 229.729Z" fill="white"/>
<path d="M223.19 230.51H223.17C223.11 230.51 223.07 230.44 223.08 230.38L224.94 217.82C224.98 217.54 225.2 217.21 225.43 217.06L228.8 214.94C228.85 214.91 228.92 214.92 228.96 214.97C228.99 215.02 228.98 215.09 228.92 215.13L225.55 217.25C225.37 217.36 225.19 217.64 225.16 217.85L223.3 230.4C223.3 230.46 223.24 230.5 223.19 230.5V230.51Z" fill="white"/>
<path d="M224.51 231.1C224.51 231.1 224.51 231.1 224.49 231.1C224.43 231.1 224.39 231.04 224.39 230.98L226.26 218.42C226.3 218.14 226.52 217.81 226.75 217.66L230.12 215.54C230.17 215.51 230.24 215.52 230.28 215.58C230.31 215.63 230.3 215.7 230.25 215.73L226.88 217.85C226.7 217.96 226.52 218.24 226.49 218.45L224.63 231.01C224.62 231.07 224.57 231.11 224.52 231.11L224.51 231.1Z" fill="white"/>
<path d="M225.78 231.859H225.76C225.7 231.859 225.66 231.789 225.67 231.729L227.53 219.169C227.57 218.889 227.79 218.559 228.03 218.409L231.4 216.289C231.45 216.259 231.52 216.279 231.55 216.329C231.58 216.379 231.57 216.449 231.52 216.479L228.15 218.599C227.97 218.719 227.79 218.989 227.76 219.209L225.9 231.769C225.9 231.819 225.84 231.859 225.79 231.859H225.78Z" fill="white"/>
<path d="M227.02 232.619H227.01C226.95 232.609 226.91 232.549 226.91 232.489L228.77 219.929C228.81 219.649 229.03 219.319 229.27 219.169L232.64 217.049C232.69 217.019 232.76 217.029 232.79 217.079C232.82 217.129 232.81 217.199 232.75 217.239L229.38 219.359C229.2 219.469 229.02 219.749 228.99 219.959L227.13 232.519C227.13 232.579 227.07 232.619 227.02 232.619V232.619Z" fill="white"/>
<path d="M228.3 233.45H228.28C228.22 233.45 228.18 233.39 228.19 233.32L230.05 220.76C230.09 220.48 230.31 220.15 230.55 220L233.92 217.88C233.97 217.84 234.04 217.86 234.07 217.91C234.1 217.96 234.09 218.03 234.04 218.06L230.67 220.18C230.49 220.3 230.31 220.57 230.28 220.79L228.42 233.35C228.41 233.4 228.36 233.44 228.31 233.44L228.3 233.45Z" fill="white"/>
<path d="M229.49 234.18H229.48C229.41 234.18 229.37 234.11 229.38 234.05L231.24 221.49C231.28 221.22 231.5 220.88 231.74 220.73L235.11 218.61C235.16 218.58 235.23 218.59 235.26 218.64C235.29 218.69 235.28 218.76 235.23 218.8L231.86 220.92C231.68 221.03 231.5 221.31 231.47 221.53L229.61 234.08C229.61 234.14 229.55 234.18 229.5 234.18H229.49Z" fill="white"/>
<path d="M230.68 234.979H230.66C230.6 234.979 230.56 234.919 230.57 234.849L232.43 222.289C232.47 222.009 232.69 221.679 232.93 221.529L236.3 219.409C236.35 219.379 236.43 219.389 236.46 219.439C236.49 219.489 236.48 219.559 236.43 219.589L233.06 221.709C232.88 221.829 232.7 222.099 232.67 222.309L230.81 234.869C230.81 234.919 230.75 234.959 230.7 234.959L230.68 234.979Z" fill="white"/>
<path d="M231.85 235.58H231.83C231.77 235.58 231.73 235.51 231.74 235.45L233.6 222.9C233.64 222.62 233.86 222.29 234.1 222.14L237.47 220.02C237.52 219.99 237.59 220 237.62 220.05C237.65 220.1 237.64 220.17 237.59 220.21L234.22 222.33C234.04 222.45 233.86 222.72 233.83 222.94L231.97 235.5C231.97 235.56 231.91 235.59 231.86 235.59L231.85 235.58Z" fill="white"/>
<path d="M237.78 221.61C237.78 221.61 237.74 221.61 237.72 221.59L212.62 206.81C212.56 206.78 212.55 206.71 212.58 206.66C212.61 206.61 212.68 206.59 212.74 206.62L237.84 221.4C237.89 221.43 237.91 221.5 237.88 221.55C237.86 221.58 237.82 221.61 237.78 221.61Z" fill="white"/>
<path d="M236.73 222.239C236.73 222.239 236.69 222.239 236.67 222.229L211.57 207.449C211.52 207.419 211.5 207.349 211.53 207.289C211.56 207.239 211.63 207.219 211.68 207.249L236.79 222.029C236.84 222.059 236.86 222.129 236.83 222.189C236.81 222.219 236.77 222.239 236.73 222.239Z" fill="white"/>
<path d="M235.65 222.94C235.65 222.94 235.61 222.94 235.59 222.93L210.63 208.22C210.57 208.19 210.56 208.12 210.59 208.06C210.62 208.01 210.69 207.99 210.75 208.02L235.71 222.73C235.76 222.76 235.78 222.83 235.75 222.88C235.73 222.91 235.69 222.93 235.65 222.93V222.94Z" fill="white"/>
<path d="M234.95 223.879C234.95 223.879 234.91 223.88 234.89 223.87L209.93 209.159C209.88 209.129 209.86 209.059 209.89 209.009C209.92 208.949 209.99 208.94 210.04 208.97L235 223.68C235.05 223.71 235.07 223.78 235.04 223.84C235.02 223.87 234.98 223.889 234.95 223.889V223.879Z" fill="white"/>
<path d="M234.7 225.149C234.7 225.149 234.66 225.149 234.64 225.129L209.44 210.419C209.38 210.389 209.37 210.319 209.4 210.259C209.43 210.209 209.5 210.189 209.56 210.219L234.76 224.929C234.81 224.959 234.83 225.029 234.8 225.089C234.78 225.119 234.74 225.149 234.7 225.149Z" fill="white"/>
<path d="M234.7 226.569C234.7 226.569 234.66 226.569 234.64 226.549L209.44 211.839C209.38 211.809 209.37 211.739 209.4 211.679C209.43 211.629 209.5 211.609 209.56 211.639L234.76 226.349C234.81 226.379 234.83 226.449 234.8 226.499C234.78 226.529 234.74 226.559 234.7 226.559V226.569Z" fill="white"/>
<path d="M234.37 227.73C234.37 227.73 234.33 227.73 234.31 227.72L209.11 213.01C209.06 212.98 209.04 212.91 209.07 212.86C209.1 212.81 209.17 212.79 209.22 212.82L234.42 227.53C234.47 227.56 234.49 227.63 234.46 227.68C234.44 227.72 234.4 227.74 234.37 227.74V227.73Z" fill="white"/>
<path d="M234.14 229.05C234.14 229.05 234.1 229.05 234.08 229.03L208.88 214.32C208.83 214.29 208.81 214.22 208.84 214.17C208.87 214.11 208.94 214.1 208.99 214.13L234.19 228.84C234.24 228.87 234.26 228.94 234.23 228.99C234.21 229.03 234.17 229.05 234.13 229.05H234.14Z" fill="white"/>
<path d="M233.98 230.359C233.98 230.359 233.94 230.359 233.92 230.349L208.88 215.729C208.83 215.699 208.81 215.629 208.84 215.579C208.87 215.529 208.94 215.509 208.99 215.539L234.03 230.159C234.08 230.189 234.1 230.26 234.07 230.31C234.05 230.35 234.01 230.359 233.97 230.359H233.98Z" fill="white"/>
<path d="M233.82 231.64C233.82 231.64 233.78 231.64 233.77 231.62L208.43 216.85C208.38 216.82 208.36 216.75 208.39 216.7C208.42 216.65 208.49 216.63 208.55 216.66L233.89 231.43C233.94 231.46 233.96 231.53 233.93 231.58C233.91 231.61 233.87 231.64 233.83 231.64H233.82Z" fill="white"/>
<path d="M233.62 233.039C233.62 233.039 233.58 233.039 233.56 233.029L208.43 218.379C208.38 218.349 208.36 218.279 208.39 218.219C208.42 218.169 208.49 218.149 208.55 218.179L233.68 232.829C233.73 232.859 233.75 232.929 233.72 232.989C233.7 233.019 233.66 233.039 233.62 233.039Z" fill="white"/>
<path d="M233.39 234.48C233.39 234.48 233.35 234.48 233.33 234.46L208.2 219.82C208.15 219.79 208.13 219.72 208.16 219.66C208.19 219.61 208.26 219.59 208.31 219.62L233.45 234.26C233.5 234.29 233.52 234.36 233.49 234.42C233.47 234.45 233.43 234.48 233.39 234.48Z" fill="white"/>
<path d="M238.06 233.219C238 233.219 237.95 233.169 237.95 233.109L238.02 221.359C238.02 221.299 238.07 221.249 238.13 221.249C238.2 221.249 238.24 221.299 238.24 221.359L238.17 233.109C238.17 233.169 238.12 233.219 238.06 233.219Z" fill="white"/>
<path d="M237.12 233.779C237.06 233.779 237.01 233.729 237.01 233.669L237.08 221.919C237.08 221.859 237.13 221.809 237.19 221.809C237.25 221.809 237.3 221.859 237.3 221.919L237.23 233.669C237.23 233.739 237.18 233.779 237.12 233.779Z" fill="white"/>
<path d="M236.06 234.479C236 234.479 235.95 234.429 235.95 234.369L236.02 222.619C236.02 222.549 236.07 222.499 236.13 222.509C236.19 222.509 236.24 222.559 236.24 222.619L236.17 234.369C236.17 234.429 236.12 234.479 236.06 234.479Z" fill="white"/>
<path d="M234.91 235.209C234.85 235.209 234.8 235.159 234.8 235.099L234.87 223.479C234.87 223.409 234.92 223.369 234.98 223.369C235.04 223.369 235.09 223.419 235.09 223.479L235.02 235.099C235.02 235.159 234.97 235.209 234.91 235.209Z" fill="white"/>
<path d="M233.98 235.959C233.92 235.959 233.87 235.909 233.87 235.849V230.759C233.87 230.699 233.92 230.639 233.98 230.639C234.04 230.639 234.09 230.689 234.09 230.759V235.849C234.09 235.909 234.04 235.959 233.98 235.959Z" fill="white"/>
<path d="M234.98 224.819C234.98 224.819 234.91 224.799 234.88 224.759C234.85 224.709 234.86 224.639 234.91 224.609L239.01 222.029C239.01 222.029 239.13 222.009 239.16 222.059C239.19 222.109 239.18 222.179 239.13 222.209L235.03 224.789C235.03 224.789 234.99 224.809 234.97 224.809L234.98 224.819Z" fill="white"/>
<path d="M234.96 225.969C234.96 225.969 234.88 225.949 234.86 225.909C234.83 225.859 234.85 225.789 234.9 225.749L239.04 223.239C239.09 223.209 239.16 223.219 239.19 223.279C239.22 223.329 239.21 223.399 239.15 223.429L235.01 225.939C235.01 225.939 234.97 225.959 234.95 225.959L234.96 225.969Z" fill="white"/>
<path d="M234.43 227.549C234.43 227.549 234.35 227.529 234.33 227.499C234.3 227.439 234.32 227.379 234.37 227.339L239.1 224.499C239.15 224.469 239.22 224.489 239.26 224.539C239.29 224.599 239.27 224.669 239.22 224.699L234.49 227.539C234.49 227.539 234.45 227.549 234.43 227.549Z" fill="white"/>
<path d="M234.38 228.869C234.38 228.869 234.3 228.849 234.28 228.809C234.25 228.759 234.27 228.689 234.32 228.659L239.05 225.929C239.1 225.899 239.17 225.919 239.2 225.969C239.23 226.019 239.21 226.089 239.16 226.119L234.43 228.859C234.43 228.859 234.4 228.879 234.38 228.879V228.869Z" fill="white"/>
<path d="M234.17 230.069C234.17 230.069 234.09 230.049 234.07 230.009C234.04 229.959 234.06 229.889 234.11 229.859L239.04 226.959C239.09 226.929 239.16 226.949 239.19 226.999C239.22 227.049 239.21 227.119 239.15 227.149L234.22 230.049C234.22 230.049 234.18 230.059 234.16 230.059L234.17 230.069Z" fill="white"/>
<path d="M233.96 231.269C233.96 231.269 233.89 231.249 233.86 231.209C233.83 231.159 233.85 231.089 233.9 231.059L239.04 227.999C239.09 227.969 239.16 227.989 239.19 228.039C239.22 228.089 239.21 228.159 239.15 228.199L234.01 231.249C234.01 231.249 233.97 231.269 233.95 231.269H233.96Z" fill="white"/>
<path d="M233.76 232.479C233.76 232.479 233.69 232.459 233.66 232.429C233.63 232.369 233.65 232.299 233.7 232.269L239.04 229.049C239.09 229.019 239.16 229.039 239.19 229.089C239.22 229.139 239.21 229.209 239.15 229.239L233.8 232.449C233.8 232.449 233.77 232.469 233.74 232.469L233.76 232.479Z" fill="white"/>
<path d="M233.55 233.679C233.55 233.679 233.48 233.659 233.46 233.629C233.43 233.579 233.45 233.509 233.5 233.479L239.05 230.099C239.1 230.069 239.17 230.079 239.2 230.129C239.23 230.179 239.22 230.249 239.16 230.279L233.61 233.659C233.61 233.659 233.57 233.679 233.55 233.679V233.679Z" fill="white"/>
<path d="M233.34 234.889C233.34 234.889 233.27 234.869 233.24 234.829C233.21 234.779 233.23 234.709 233.28 234.679L239.04 231.139C239.09 231.109 239.16 231.129 239.19 231.179C239.22 231.239 239.21 231.309 239.15 231.339L233.39 234.879C233.39 234.879 233.35 234.899 233.33 234.899L233.34 234.889Z" fill="white"/>
<path d="M386.14 143.649C386.08 143.619 386.03 143.559 386.03 143.489L384.87 130.899C384.87 130.819 384.9 130.749 384.97 130.709L388.97 128.339C388.97 128.339 389.08 128.299 389.13 128.319C389.18 128.339 389.23 128.379 389.25 128.429L393.97 138.759C394.01 138.849 393.97 138.959 393.89 139.019L386.32 143.649C386.32 143.649 386.25 143.679 386.21 143.679C386.18 143.679 386.15 143.679 386.12 143.659L386.14 143.649ZM388.98 128.799L385.29 130.989L386.4 143.129L393.53 138.769L388.98 128.809V128.799Z" fill="white"/>
<path d="M366.27 132.729C366.21 132.699 366.16 132.639 366.16 132.569L365 119.979C365 119.899 365.03 119.829 365.1 119.789L369.1 117.419C369.1 117.419 369.21 117.379 369.26 117.399C369.32 117.419 369.36 117.459 369.38 117.509L374.1 127.839C374.14 127.929 374.1 128.039 374.02 128.099L366.46 132.729C366.46 132.729 366.39 132.759 366.35 132.759C366.32 132.759 366.29 132.759 366.26 132.739L366.27 132.729ZM369.11 117.879L365.42 120.069L366.53 132.209L373.66 127.849L369.11 117.889V117.879Z" fill="white"/>
<path d="M389.07 128.719C389.14 128.719 389.21 128.679 389.25 128.609C389.3 128.509 389.27 128.389 389.17 128.329L369.3 117.409C369.2 117.349 369.08 117.389 369.03 117.489C368.98 117.589 369.01 117.709 369.11 117.759L388.98 128.679C388.98 128.679 389.04 128.709 389.08 128.709L389.07 128.719Z" fill="white"/>
<path d="M385.07 131.089C385.14 131.089 385.21 131.049 385.25 130.989C385.3 130.889 385.27 130.769 385.17 130.709L365.3 119.789C365.2 119.729 365.08 119.769 365.02 119.869C364.97 119.969 365 120.089 365.1 120.139L384.97 131.059C384.97 131.059 385.03 131.079 385.07 131.079V131.089Z" fill="white"/>
<path d="M385.91 130.338C385.98 130.338 386.04 130.378 386.05 130.448L387.4 142.898C387.4 142.968 387.36 143.028 387.29 143.028H387.28C387.22 143.028 387.17 142.978 387.16 142.918L385.81 130.468C385.81 130.398 385.85 130.338 385.92 130.328L385.91 130.338Z" fill="white"/>
<path d="M392.64 139.689C392.64 139.759 392.6 139.819 392.53 139.819C392.46 139.819 392.41 139.769 392.4 139.709L391.79 134.059L392.11 134.749L392.65 139.679L392.64 139.689Z" fill="white"/>
<path d="M390.89 132.129L391.75 140.079C391.75 140.149 391.71 140.209 391.64 140.209C391.57 140.209 391.52 140.159 391.51 140.099L390.57 131.429L390.89 132.119V132.129Z" fill="white"/>
<path d="M393.52 139.149C393.52 139.219 393.48 139.279 393.41 139.279H393.4C393.34 139.279 393.29 139.229 393.28 139.169L393.01 136.679L393.33 137.369L393.52 139.149V139.149Z" fill="white"/>
<path d="M387.76 129.109L389.14 141.799C389.14 141.869 389.1 141.929 389.03 141.929C388.97 141.929 388.91 141.879 388.9 141.819L387.54 129.259L387.77 129.099L387.76 129.109Z" fill="white"/>
<path d="M389.67 129.508L390.89 140.758C390.89 140.828 390.85 140.888 390.78 140.898H390.77C390.71 140.898 390.66 140.848 390.65 140.788L389.35 128.818L389.67 129.508V129.508Z" fill="white"/>
<path d="M386.9 129.709L388.26 142.189C388.26 142.259 388.22 142.319 388.15 142.329H388.14C388.08 142.329 388.03 142.279 388.02 142.219L386.67 129.869L386.9 129.709V129.709Z" fill="white"/>
<path d="M388.63 128.519L390.01 141.259C390.01 141.329 389.97 141.389 389.9 141.399H389.89C389.83 141.399 389.78 141.349 389.77 141.289L388.4 128.679L388.63 128.519V128.519Z" fill="white"/>
<path d="M365.85 119.579C365.92 119.579 365.98 119.619 365.98 119.689L367.32 132.069C367.32 132.139 367.28 132.199 367.21 132.199C367.14 132.199 367.1 132.219 367.09 132.159L365.74 119.709C365.74 119.639 365.78 119.579 365.85 119.569V119.579Z" fill="white"/>
<path d="M372.59 128.869C372.59 128.939 372.55 128.999 372.48 129.009C372.48 129.009 372.49 128.949 372.48 129.009C372.47 129.069 372.35 129.019 372.34 128.959L371.73 123.309L372.05 123.999L372.59 128.879V128.869Z" fill="white"/>
<path d="M370.84 121.369L371.7 129.319C371.7 129.389 371.66 129.449 371.59 129.459H371.58C371.52 129.459 371.47 129.409 371.46 129.349L370.52 120.679L370.84 121.369V121.369Z" fill="white"/>
<path d="M373.47 128.339C373.47 128.409 373.43 128.469 373.36 128.479C373.29 128.479 373.24 128.479 373.24 128.429L372.97 125.939L373.29 126.629L373.48 128.349L373.47 128.339Z" fill="white"/>
<path d="M367.71 118.349L369.09 131.009C369.09 131.079 369.05 131.139 368.98 131.139H368.97C368.91 131.139 368.86 131.129 368.85 131.059L367.49 118.499L367.72 118.339L367.71 118.349Z" fill="white"/>
<path d="M369.62 118.749L370.83 129.909C370.83 129.979 370.79 130.039 370.72 130.039H370.71C370.65 130.039 370.61 130.079 370.6 130.019L369.3 118.049L369.62 118.739V118.749Z" fill="white"/>
<path d="M366.85 118.949L368.21 131.429C368.21 131.499 368.17 131.559 368.1 131.559H368.09C368.03 131.559 367.98 131.509 367.97 131.449L366.62 119.099L366.85 118.939V118.949Z" fill="white"/>
<path d="M368.58 117.759L369.96 130.499C369.96 130.569 369.92 130.629 369.85 130.629H369.84C369.78 130.629 369.73 130.579 369.72 130.519L368.35 117.909L368.58 117.749V117.759Z" fill="white"/>
<path d="M385.49 135.709L385.46 135.439L390.87 132.399L390.98 132.619L385.49 135.709Z" fill="white"/>
<path d="M385.73 137.889L385.7 137.629L391.74 134.209L391.84 134.429L385.73 137.889Z" fill="white"/>
<path d="M385.61 136.8L385.58 136.54L391.3 133.31L391.41 133.53L385.61 136.8Z" fill="white"/>
<path d="M385.85 138.979L385.82 138.719L392.17 135.109L392.27 135.339L385.85 138.979Z" fill="white"/>
<path d="M390.55 131.719L385.37 134.619L385.34 134.349L390.44 131.499L390.55 131.719Z" fill="white"/>
<path d="M386.18 141.989L393.46 137.829L393.57 138.049L386.21 142.259L386.18 141.989Z" fill="white"/>
<path d="M390.12 130.82L385.25 133.52L385.22 133.26L390.01 130.6L390.12 130.82Z" fill="white"/>
<path d="M389.64 129.829L385.26 132.389L385.14 132.179L389.54 129.609L389.64 129.829Z" fill="white"/>
<path d="M385.97 140.07L385.94 139.81L392.6 136.02L392.7 136.24L385.97 140.07Z" fill="white"/>
<path d="M386.06 140.899L393.03 136.919L393.14 137.139L386.09 141.169L386.06 140.899Z" fill="white"/>
<path d="M365.54 124.669L365.51 124.409L370.92 121.369L371.03 121.589L365.54 124.669Z" fill="white"/>
<path d="M365.78 126.86L365.75 126.59L371.78 123.18L371.89 123.4L365.78 126.86Z" fill="white"/>
<path d="M365.66 125.77L365.63 125.5L371.35 122.27L371.46 122.49L365.66 125.77Z" fill="white"/>
<path d="M365.9 127.949L365.87 127.679L372.22 124.079L372.32 124.299L365.9 127.949Z" fill="white"/>
<path d="M370.6 120.689L365.42 123.579L365.39 123.319L370.49 120.459L370.6 120.689Z" fill="white"/>
<path d="M366.23 130.959L373.51 126.789L373.62 127.009L366.26 131.219L366.23 130.959Z" fill="white"/>
<path d="M370.17 119.78L365.3 122.49L365.27 122.23L370.06 119.56L370.17 119.78Z" fill="white"/>
<path d="M369.69 118.799L365.31 121.349L365.19 121.139L369.59 118.569L369.69 118.799Z" fill="white"/>
<path d="M366.02 129.04L365.99 128.779L372.65 124.979L372.75 125.199L366.02 129.04Z" fill="white"/>
<path d="M366.11 129.87L373.08 125.89L373.18 126.11L366.14 130.13L366.11 129.87Z" fill="white"/>
<path d="M388.16 129.109L388.28 128.899L368.41 117.809L368.29 118.019L388.16 129.109Z" fill="white"/>
<path d="M387.33 129.558L387.45 129.348L367.74 118.368L367.62 118.578L387.33 129.558Z" fill="white"/>
<path d="M366.882 118.722L366.764 118.932L386.601 130.091L386.718 129.882L366.882 118.722Z" fill="white"/>
<path d="M366.187 119.338L366.071 119.548L385.777 130.449L385.893 130.239L366.187 119.338Z" fill="white"/>
<path d="M384.15 130.439L388.11 128.049L387.98 127.839L384.02 130.239L384.15 130.439Z" fill="white"/>
<path d="M387.001 127.347L383.038 129.741L383.162 129.947L387.125 127.552L387.001 127.347Z" fill="white"/>
<path d="M385.98 126.752L382.017 129.146L382.141 129.351L386.104 126.957L385.98 126.752Z" fill="white"/>
<path d="M381.14 128.788L385.1 126.398L384.97 126.188L381.01 128.578L381.14 128.788Z" fill="white"/>
<path d="M383.993 125.698L380.03 128.093L380.154 128.298L384.117 125.903L383.993 125.698Z" fill="white"/>
<path d="M382.962 125.101L379.007 127.489L379.131 127.695L383.086 125.306L382.962 125.101Z" fill="white"/>
<path d="M381.97 124.552L378.007 126.945L378.131 127.151L382.094 124.757L381.97 124.552Z" fill="white"/>
<path d="M377.12 126.588L381.08 124.198L380.95 123.988L376.99 126.378L377.12 126.588Z" fill="white"/>
<path d="M379.947 123.446L375.993 125.834L376.117 126.039L380.071 123.651L379.947 123.446Z" fill="white"/>
<path d="M375.11 125.479L379.07 123.089L378.95 122.889L374.99 125.279L375.11 125.479Z" fill="white"/>
<path d="M377.957 122.388L373.993 124.781L374.117 124.987L378.081 122.593L377.957 122.388Z" fill="white"/>
<path d="M376.948 121.792L372.985 124.187L373.109 124.392L377.072 121.998L376.948 121.792Z" fill="white"/>
<path d="M375.956 121.297L371.992 123.689L372.116 123.895L376.08 121.502L375.956 121.297Z" fill="white"/>
<path d="M374.937 120.691L370.974 123.085L371.098 123.29L375.061 120.897L374.937 120.691Z" fill="white"/>
<path d="M370.09 122.729L374.05 120.339L373.93 120.129L369.97 122.519L370.09 122.729Z" fill="white"/>
<path d="M372.919 119.594L368.965 121.982L369.089 122.188L373.043 119.799L372.919 119.594Z" fill="white"/>
<path d="M368.08 121.628L372.04 119.238L371.92 119.028L367.96 121.418L368.08 121.628Z" fill="white"/>
<path d="M370.928 118.543L366.974 120.933L367.099 121.138L371.052 118.748L370.928 118.543Z" fill="white"/>
<path d="M369.905 117.94L365.95 120.328L366.074 120.534L370.029 118.145L369.905 117.94Z" fill="white"/>
<path d="M374.022 127.824L373.902 128.043L393.76 138.978L393.88 138.759L374.022 127.824Z" fill="white"/>
<path d="M373.184 126.517L373.068 126.728L392.93 137.656L393.046 137.446L373.184 126.517Z" fill="white"/>
<path d="M372.874 125.449L372.758 125.659L392.616 136.594L392.732 136.384L372.874 125.449Z" fill="white"/>
<path d="M392.23 135.499L392.35 135.289L372.48 124.369L372.36 124.579L392.23 135.499Z" fill="white"/>
<path d="M373.2 124.26L372.969 124.356L374.636 128.364L374.867 128.268L373.2 124.26Z" fill="white"/>
<path d="M374.248 124.849L374.017 124.945L375.664 128.906L375.895 128.81L374.248 124.849Z" fill="white"/>
<path d="M375.218 125.357L374.987 125.453L376.691 129.553L376.922 129.457L375.218 125.357Z" fill="white"/>
<path d="M376.252 125.894L376.022 125.99L377.726 130.09L377.957 129.994L376.252 125.894Z" fill="white"/>
<path d="M377.319 126.55L377.088 126.646L378.724 130.579L378.955 130.483L377.319 126.55Z" fill="white"/>
<path d="M378.316 127.086L378.085 127.182L379.725 131.124L379.956 131.028L378.316 127.086Z" fill="white"/>
<path d="M379.277 127.664L379.047 127.76L380.709 131.758L380.94 131.662L379.277 127.664Z" fill="white"/>
<path d="M380.267 128.152L380.036 128.248L381.706 132.265L381.937 132.169L380.267 128.152Z" fill="white"/>
<path d="M381.301 128.632L381.07 128.728L382.774 132.827L383.005 132.732L381.301 128.632Z" fill="white"/>
<path d="M382.364 129.388L382.133 129.484L383.791 133.474L384.022 133.378L382.364 129.388Z" fill="white"/>
<path d="M383.466 129.899L383.235 129.995L384.94 134.095L385.17 133.999L383.466 129.899Z" fill="white"/>
<g style="mix-blend-mode:multiply" opacity="0.3">
<path d="M298.78 180.899C301.105 180.899 302.99 180.393 302.99 179.769C302.99 179.145 301.105 178.639 298.78 178.639C296.455 178.639 294.57 179.145 294.57 179.769C294.57 180.393 296.455 180.899 298.78 180.899Z" fill="#494949"/>
</g>
<path d="M302.06 174.999C302.06 174.999 302.07 175.089 302.08 175.139C302.17 175.949 302.01 176.739 301.67 177.429C301.24 178.299 300.52 179.009 299.61 179.409C299.26 179.569 298.88 179.679 298.48 179.729C298.08 179.779 297.69 179.779 297.31 179.729C296.33 179.589 295.44 179.109 294.79 178.379C294.28 177.809 293.91 177.099 293.77 176.289C293.76 176.239 293.75 176.199 293.75 176.149C293.62 175.189 293.82 174.259 294.27 173.469C294.66 172.789 295.24 172.219 295.94 171.849C296.36 171.629 296.83 171.469 297.33 171.399C297.83 171.329 298.32 171.349 298.79 171.449C299.57 171.619 300.28 171.999 300.84 172.549C301.49 173.179 301.94 174.019 302.07 174.979L302.06 174.999Z" fill="#EFEFEF"/>
<path d="M297.69 174.019L296.36 175.299L297.16 176.959L298.99 176.709L299.32 174.889L297.69 174.019Z" fill="#494949"/>
<path d="M298.78 171.459L297.5 172.689L295.94 171.859C296.36 171.639 296.83 171.479 297.33 171.409C297.83 171.339 298.32 171.359 298.79 171.459H298.78Z" fill="#494949"/>
<path d="M295.04 175.069L293.77 176.299C293.77 176.299 293.75 176.209 293.75 176.159C293.62 175.199 293.82 174.269 294.27 173.479L295.04 175.069Z" fill="#494949"/>
<path d="M297.31 179.729C296.33 179.589 295.44 179.109 294.79 178.379L296.54 178.139L297.31 179.729Z" fill="#494949"/>
<path d="M301.67 177.429C301.24 178.299 300.52 179.009 299.61 179.409L299.92 177.669L301.67 177.429V177.429Z" fill="#494949"/>
<path d="M302.06 174.999C302.06 174.999 302.07 175.089 302.08 175.139L300.52 174.309L300.83 172.569C301.48 173.199 301.93 174.039 302.06 174.999V174.999Z" fill="#494949"/>
</svg>
