<svg width="459" height="272" viewBox="0 0 459 272" fill="none" xmlns="http://www.w3.org/2000/svg">
<path d="M394.37 127.029L458.28 164.129L455.18 165.929L394.37 130.959" fill="#9B683E"/>
<path d="M324.29 140.169L347.4 153.159V157.399L324.29 144.699V140.169Z" fill="#BC9162"/>
<path d="M347.4 157.399L394.37 130.959V127.029L347.4 153.159V157.399Z" fill="#CB9F68"/>
<path d="M347.4 157.399V208.609L394.37 180.839V130.959L347.4 157.399Z" fill="#B57E4D"/>
<path d="M324.29 144.699L347.4 157.399V208.609L324.29 193.879V144.699Z" fill="#A86F40"/>
<path d="M394.37 130.959V180.839L411.95 191.039L455.29 165.999L394.37 130.959Z" fill="#A86F40"/>
<path d="M184.86 221.229L324.29 140.169V144.689L188.84 223.559L184.86 221.229Z" fill="#CB9F68"/>
<path d="M324.29 144.689V193.759L231.59 248.199L188.84 223.559L324.29 144.689Z" fill="#B57E4D"/>
<path opacity="0.8" d="M220.17 241.629L324.47 182.319L347.42 195.779L394.37 168.709L422.87 184.729L272.6 271.839L220.17 241.629Z" fill="#6DC6DC"/>
<path d="M209.65 235.559L256.56 208.569L319.71 244.609L272.6 271.839L209.65 235.559Z" fill="#89552F"/>
<path d="M227.19 234.04C227.798 234.04 228.29 233.547 228.29 232.94C228.29 232.332 227.798 231.84 227.19 231.84C226.583 231.84 226.09 232.332 226.09 232.94C226.09 233.547 226.583 234.04 227.19 234.04Z" fill="#9B633D"/>
<path d="M269.13 238.41C269.71 238.41 270.18 237.939 270.18 237.36C270.18 236.78 269.71 236.31 269.13 236.31C268.55 236.31 268.08 236.78 268.08 237.36C268.08 237.939 268.55 238.41 269.13 238.41Z" fill="#9B633D"/>
<path d="M252.25 225.829C253.255 225.829 254.07 225.015 254.07 224.009C254.07 223.004 253.255 222.189 252.25 222.189C251.245 222.189 250.43 223.004 250.43 224.009C250.43 225.015 251.245 225.829 252.25 225.829Z" fill="#9B633D"/>
<path d="M242.69 238.979C243.585 238.979 244.31 238.254 244.31 237.359C244.31 236.465 243.585 235.739 242.69 235.739C241.795 235.739 241.07 236.465 241.07 237.359C241.07 238.254 241.795 238.979 242.69 238.979Z" fill="#9B633D"/>
<path d="M270.23 255.999C270.578 255.999 270.86 255.717 270.86 255.369C270.86 255.021 270.578 254.739 270.23 254.739C269.882 254.739 269.6 255.021 269.6 255.369C269.6 255.717 269.882 255.999 270.23 255.999Z" fill="#9B633D"/>
<path d="M257.83 254.97C258.542 254.97 259.12 254.392 259.12 253.68C259.12 252.967 258.542 252.39 257.83 252.39C257.118 252.39 256.54 252.967 256.54 253.68C256.54 254.392 257.118 254.97 257.83 254.97Z" fill="#9B633D"/>
<path d="M284.37 251.78C285.088 251.78 285.67 251.198 285.67 250.48C285.67 249.762 285.088 249.18 284.37 249.18C283.652 249.18 283.07 249.762 283.07 250.48C283.07 251.198 283.652 251.78 284.37 251.78Z" fill="#9B633D"/>
<path d="M291.95 238.719C292.966 238.719 293.79 237.895 293.79 236.879C293.79 235.863 292.966 235.039 291.95 235.039C290.934 235.039 290.11 235.863 290.11 236.879C290.11 237.895 290.934 238.719 291.95 238.719Z" fill="#9B633D"/>
<path d="M270.86 225.589C271.368 225.589 271.78 225.177 271.78 224.669C271.78 224.161 271.368 223.749 270.86 223.749C270.352 223.749 269.94 224.161 269.94 224.669C269.94 225.177 270.352 225.589 270.86 225.589Z" fill="#9B633D"/>
<path d="M273.73 228.539C274.089 228.539 274.38 228.248 274.38 227.889C274.38 227.53 274.089 227.239 273.73 227.239C273.371 227.239 273.08 227.53 273.08 227.889C273.08 228.248 273.371 228.539 273.73 228.539Z" fill="#9B633D"/>
<path d="M302.7 242.589C303.059 242.589 303.35 242.298 303.35 241.939C303.35 241.58 303.059 241.289 302.7 241.289C302.341 241.289 302.05 241.58 302.05 241.939C302.05 242.298 302.341 242.589 302.7 242.589Z" fill="#9B633D"/>
<path d="M230 236.879C230.315 236.879 230.57 236.624 230.57 236.309C230.57 235.994 230.315 235.739 230 235.739C229.685 235.739 229.43 235.994 229.43 236.309C229.43 236.624 229.685 236.879 230 236.879Z" fill="#9B633D"/>
<path d="M272.41 271.789L184.86 221.23L324.29 140.17L347.4 153.16L394.38 127.02L458.82 164.079L272.41 271.789Z" fill="#77C767"/>
</svg>
