<svg width="459" height="272" viewBox="0 0 459 272" fill="none" xmlns="http://www.w3.org/2000/svg">
<path d="M184.86 221.23L184.67 221.219L0 114.809L186.98 7.0791L394.38 127.02L347.4 153.16L324.29 140.17L184.86 221.23Z" fill="#77C767"/>
<path d="M28.84 107.519C28.25 107.939 28.41 109.329 28.7 110.419C27.78 109.419 26.26 110.689 26.26 110.689C28.85 110.109 27.65 111.629 27.65 111.629C28.41 111.649 28.79 111.399 28.96 111.219C29.12 111.629 29.28 111.879 29.37 111.819C29.67 111.599 29.76 111.269 29.76 111.269C28.14 109.329 28.83 107.519 28.83 107.519H28.84Z" fill="#70BA3F"/>
<path d="M32.73 111.069C32.73 111.069 33 110.429 34.8 109.619C34.8 109.619 32.75 109.749 31.85 110.789C32.03 110.059 32.52 109.099 33.91 108.369C33.91 108.369 32.36 108.399 31.56 110.299C31.66 108.789 31.56 106.409 30.41 105.579C30.35 105.539 31.36 107.529 30.56 110.689C30.3 109.989 29.79 108.719 29.15 107.709C29.15 107.709 30.28 110.369 29.96 111.199C29.73 111.809 30.25 111.539 30.55 111.349C30.79 111.529 31.26 111.839 31.38 111.589C31.46 111.759 31.58 111.939 31.67 111.859C31.7 111.829 31.71 111.739 31.73 111.589C31.92 111.869 32.26 112.189 32.72 111.899C33.43 111.449 33.49 110.429 34.66 111.369C34.7 111.399 34.73 111.429 34.77 111.459C34.77 111.459 34.44 109.709 32.73 111.059V111.069Z" fill="#70BA3F"/>
<path d="M156.16 176.329C155.57 176.749 155.73 178.139 156.02 179.229C155.1 178.229 153.58 179.499 153.58 179.499C156.17 178.919 154.97 180.439 154.97 180.439C155.73 180.459 156.11 180.209 156.28 180.029C156.44 180.439 156.6 180.689 156.69 180.629C156.99 180.409 157.08 180.079 157.08 180.079C155.46 178.139 156.15 176.329 156.15 176.329H156.16Z" fill="#70BA3F"/>
<path d="M160.05 179.889C160.05 179.889 160.32 179.249 162.12 178.439C162.12 178.439 160.07 178.569 159.17 179.609C159.35 178.879 159.84 177.919 161.23 177.189C161.23 177.189 159.68 177.219 158.88 179.119C158.98 177.609 158.88 175.229 157.73 174.399C157.67 174.359 158.68 176.349 157.88 179.509C157.62 178.809 157.11 177.539 156.47 176.529C156.47 176.529 157.6 179.189 157.28 180.019C157.05 180.629 157.57 180.359 157.87 180.169C158.11 180.349 158.58 180.659 158.7 180.409C158.78 180.579 158.9 180.759 158.99 180.679C159.02 180.649 159.03 180.559 159.05 180.409C159.24 180.689 159.58 181.009 160.04 180.719C160.75 180.269 160.81 179.249 161.98 180.189C162.02 180.219 162.05 180.249 162.09 180.279C162.09 180.279 161.76 178.529 160.05 179.879V179.889Z" fill="#70BA3F"/>
<path d="M128.07 172.469C127.19 173.089 127.42 175.179 127.86 176.809C126.47 175.319 124.21 177.209 124.21 177.209C128.09 176.349 126.3 178.619 126.3 178.619C127.44 178.649 128.01 178.269 128.26 177.999C128.51 178.619 128.75 178.989 128.87 178.899C129.32 178.569 129.46 178.069 129.46 178.069C127.03 175.169 128.07 172.449 128.07 172.449V172.469Z" fill="#70BA3F"/>
<path d="M133.9 177.789C133.9 177.789 134.3 176.829 137 175.619C137 175.619 133.93 175.819 132.58 177.369C132.86 176.269 133.58 174.829 135.66 173.749C135.66 173.749 133.33 173.799 132.13 176.639C132.27 174.369 132.12 170.819 130.41 169.569C130.33 169.509 131.83 172.489 130.64 177.229C130.25 176.179 129.49 174.279 128.52 172.769C128.52 172.769 130.21 176.749 129.74 177.999C129.4 178.909 130.17 178.509 130.62 178.219C130.98 178.489 131.69 178.949 131.86 178.579V178.559C131.99 178.829 132.16 179.099 132.3 178.979C132.35 178.939 132.37 178.789 132.39 178.569C132.68 178.989 133.18 179.469 133.87 179.039C134.94 178.369 135.03 176.839 136.78 178.239C136.83 178.279 136.89 178.329 136.95 178.379C136.95 178.379 136.46 175.759 133.9 177.779V177.789Z" fill="#70BA3F"/>
<path d="M208.4 146.359C207.52 146.979 207.75 149.069 208.19 150.699C206.8 149.209 204.54 151.099 204.54 151.099C208.42 150.239 206.63 152.509 206.63 152.509C207.77 152.539 208.34 152.159 208.59 151.889C208.84 152.509 209.08 152.879 209.2 152.789C209.65 152.459 209.79 151.959 209.79 151.959C207.36 149.059 208.4 146.339 208.4 146.339V146.359Z" fill="#70BA3F"/>
<path d="M214.23 151.679C214.23 151.679 214.63 150.719 217.33 149.509C217.33 149.509 214.26 149.709 212.91 151.259C213.19 150.159 213.91 148.719 215.99 147.639C215.99 147.639 213.66 147.689 212.46 150.529C212.6 148.259 212.45 144.709 210.74 143.459C210.66 143.399 212.16 146.379 210.97 151.119C210.58 150.069 209.82 148.169 208.85 146.659C208.85 146.659 210.54 150.639 210.07 151.889C209.73 152.799 210.5 152.399 210.95 152.109C211.31 152.379 212.02 152.839 212.19 152.469V152.449C212.32 152.719 212.49 152.989 212.63 152.869C212.68 152.829 212.7 152.679 212.72 152.459C213.01 152.879 213.51 153.359 214.2 152.929C215.27 152.259 215.36 150.729 217.11 152.129C217.16 152.169 217.22 152.219 217.28 152.269C217.28 152.269 216.79 149.649 214.23 151.669V151.679Z" fill="#70BA3F"/>
<path d="M196.2 30.3799C195.65 30.7699 195.79 32.0699 196.07 33.0799C195.21 32.1499 193.8 33.3299 193.8 33.3299C196.21 32.7899 195.1 34.2099 195.1 34.2099C195.81 34.2299 196.16 33.9899 196.32 33.8299C196.47 34.2099 196.62 34.4499 196.7 34.3899C196.98 34.1899 197.07 33.8699 197.07 33.8699C195.56 32.0599 196.2 30.3799 196.2 30.3799V30.3799Z" fill="#70BA3F"/>
<path d="M199.83 33.6895C199.83 33.6895 200.08 33.0895 201.76 32.3395C201.76 32.3395 199.85 32.4695 199.01 33.4295C199.18 32.7495 199.63 31.8495 200.93 31.1795C200.93 31.1795 199.48 31.2095 198.74 32.9795C198.83 31.5695 198.74 29.3595 197.67 28.5895C197.62 28.5495 198.55 30.3995 197.81 33.3495C197.57 32.6995 197.09 31.5195 196.49 30.5795C196.49 30.5795 197.54 33.0595 197.25 33.8395C197.04 34.4095 197.52 34.1595 197.8 33.9795C198.03 34.1495 198.47 34.4395 198.57 34.2095C198.65 34.3695 198.75 34.5295 198.84 34.4595C198.87 34.4295 198.88 34.3395 198.89 34.2095C199.07 34.4695 199.38 34.7695 199.81 34.4995C200.47 34.0795 200.53 33.1295 201.62 34.0095C201.65 34.0395 201.69 34.0695 201.72 34.0995C201.72 34.0995 201.41 32.4695 199.82 33.7195L199.83 33.6895Z" fill="#70BA3F"/>
<path d="M341.74 123.609C340.91 124.199 341.12 126.179 341.54 127.729C340.23 126.319 338.08 128.109 338.08 128.109C341.76 127.289 340.06 129.449 340.06 129.449C341.15 129.479 341.68 129.119 341.91 128.869C342.14 129.449 342.37 129.809 342.49 129.729C342.92 129.419 343.05 128.939 343.05 128.939C340.74 126.189 341.73 123.619 341.73 123.619L341.74 123.609Z" fill="#70BA3F"/>
<path d="M347.26 128.649C347.26 128.649 347.64 127.739 350.2 126.589C350.2 126.589 347.29 126.779 346.01 128.249C346.27 127.209 346.95 125.839 348.93 124.819C348.93 124.819 346.73 124.869 345.59 127.559C345.73 125.409 345.58 122.039 343.96 120.859C343.88 120.799 345.3 123.629 344.17 128.119C343.8 127.119 343.08 125.319 342.16 123.889C342.16 123.889 343.76 127.669 343.32 128.849C343 129.709 343.73 129.329 344.16 129.059C344.5 129.319 345.17 129.749 345.34 129.399V129.379C345.47 129.639 345.63 129.889 345.76 129.779C345.81 129.739 345.82 129.599 345.84 129.389C346.11 129.789 346.59 130.239 347.24 129.829C348.25 129.189 348.34 127.749 350 129.079C350.05 129.119 350.1 129.159 350.16 129.209C350.16 129.209 349.69 126.729 347.27 128.639L347.26 128.649Z" fill="#70BA3F"/>
<path d="M238.83 50.8691C238 51.4591 238.21 53.4391 238.63 54.9891C237.32 53.5791 235.17 55.3691 235.17 55.3691C238.85 54.5491 237.15 56.7091 237.15 56.7091C238.24 56.7391 238.77 56.3791 239 56.1291C239.23 56.7091 239.46 57.0691 239.58 56.9891C240.01 56.6791 240.14 56.1991 240.14 56.1991C237.83 53.4491 238.82 50.8791 238.82 50.8791L238.83 50.8691Z" fill="#70BA3F"/>
<path d="M244.36 55.9189C244.36 55.9189 244.74 55.0089 247.3 53.8589C247.3 53.8589 244.39 54.0489 243.11 55.5189C243.37 54.4789 244.05 53.1089 246.03 52.0889C246.03 52.0889 243.83 52.1389 242.69 54.8289C242.83 52.6789 242.68 49.3089 241.06 48.1289C240.98 48.0689 242.4 50.8989 241.27 55.3889C240.9 54.3889 240.18 52.5889 239.26 51.1589C239.26 51.1589 240.86 54.9389 240.42 56.1189C240.1 56.9789 240.83 56.5989 241.26 56.3289C241.6 56.5889 242.27 57.0189 242.44 56.6689V56.6489C242.57 56.9089 242.73 57.1589 242.86 57.0489C242.91 57.0089 242.92 56.8689 242.94 56.6589C243.21 57.0589 243.69 57.5089 244.34 57.0989C245.35 56.4589 245.44 55.0189 247.1 56.3489C247.15 56.3889 247.2 56.4289 247.26 56.4789C247.26 56.4789 246.79 53.9989 244.37 55.9089L244.36 55.9189Z" fill="#70BA3F"/>
<path d="M186.37 28.7289C189.358 28.7289 191.78 27.6902 191.78 26.4089C191.78 25.1276 189.358 24.0889 186.37 24.0889C183.382 24.0889 180.96 25.1276 180.96 26.4089C180.96 27.6902 183.382 28.7289 186.37 28.7289Z" fill="#64AE47"/>
<path d="M185.05 19.7094V19.7794L185.07 19.7995V19.8395L185.09 19.8595V19.8795L185.11 19.8995V19.9194L185.13 19.9395V19.9594H185.15L185.17 19.9995C185.17 19.9995 185.19 20.0395 185.2 20.0495L185.23 20.0895H185.24L185.26 20.1195L185.28 20.1395L185.3 20.1595H185.32L185.34 20.1895H185.36L185.38 20.2195L185.41 20.2395C185.41 20.2395 185.47 20.2695 185.5 20.2895H185.52C185.52 20.2895 185.58 20.3295 185.61 20.3395H185.62C185.62 20.3395 185.68 20.3695 185.72 20.3795C185.74 20.3795 185.77 20.3895 185.79 20.3995C185.81 20.3995 185.82 20.3995 185.84 20.4095C185.86 20.4095 185.89 20.4195 185.91 20.4295C185.93 20.4295 185.95 20.4295 185.96 20.4395H185.98C185.98 20.4395 186.04 20.4494 186.07 20.4594H186.1C186.1 20.4594 186.14 20.4594 186.15 20.4594C186.18 20.4594 186.21 20.4594 186.24 20.4594H186.3C186.3 20.4594 186.35 20.4594 186.37 20.4594H186.43C186.43 20.4594 186.47 20.4594 186.5 20.4594H186.56C186.56 20.4594 186.6 20.4595 186.63 20.4495H186.69C186.69 20.4495 186.74 20.4295 186.76 20.4295H186.81C186.81 20.4295 186.87 20.4095 186.89 20.3995C186.91 20.3995 186.93 20.3995 186.94 20.3895H186.97C186.97 20.3895 187.02 20.3594 187.05 20.3494H187.07C187.07 20.3494 187.12 20.3195 187.14 20.3095H187.17C187.17 20.3095 187.24 20.2595 187.27 20.2395C187.47 20.1295 187.59 19.9895 187.64 19.8395C187.64 19.8195 187.65 19.7895 187.66 19.7695V19.7295C187.66 19.7295 187.66 19.7095 187.66 19.6895V25.6595C187.67 25.8595 187.54 26.0594 187.28 26.2094C187.25 26.2294 187.22 26.2395 187.18 26.2595H187.15C187.15 26.2595 187.11 26.2895 187.09 26.2995H187.06C187.06 26.2995 187.01 26.3295 186.98 26.3395H186.93L186.9 26.3595C186.9 26.3595 186.85 26.3695 186.82 26.3795H186.77C186.77 26.3795 186.72 26.3995 186.7 26.3995H186.64C186.64 26.3995 186.6 26.4094 186.57 26.4194H186.51C186.51 26.4194 186.47 26.4194 186.44 26.4194H186.41C186.41 26.4194 186.39 26.4194 186.38 26.4194C186.36 26.4194 186.33 26.4194 186.31 26.4194C186.3 26.4194 186.29 26.4194 186.27 26.4194H186.25C186.25 26.4194 186.19 26.4194 186.16 26.4194H186.08C186.08 26.4194 186.02 26.3995 185.99 26.3995H185.96C185.96 26.3995 185.93 26.3895 185.92 26.3895C185.9 26.3895 185.87 26.3895 185.85 26.3695C185.83 26.3695 185.82 26.3695 185.8 26.3595C185.78 26.3595 185.75 26.3495 185.73 26.3395H185.72C185.72 26.3395 185.67 26.3195 185.64 26.3095H185.63C185.63 26.3095 185.57 26.2795 185.55 26.2695H185.53C185.53 26.2695 185.47 26.2294 185.44 26.2094H185.42V26.1895L185.38 26.1694H185.36L185.34 26.1395H185.32L185.3 26.1095L185.28 26.0895L185.26 26.0695H185.25L185.22 26.0294C185.22 26.0294 185.2 25.9895 185.19 25.9795L185.17 25.9395V25.8995H185.15V25.8795L185.13 25.8595V25.8395L185.11 25.8195V25.7695L185.09 25.7495V25.6795V19.7094H185.05Z" fill="#766052"/>
<path d="M185.44 19.1391C184.92 19.4391 184.92 19.9291 185.44 20.2291C185.96 20.5291 186.79 20.5291 187.31 20.2291C187.83 19.9291 187.83 19.4391 187.31 19.1391C186.79 18.8391 185.96 18.8391 185.44 19.1391Z" fill="white" stroke="black" stroke-width="0.5" stroke-linecap="round" stroke-linejoin="round"/>
<path d="M186.38 21.1692C179.97 21.1692 176.8 18.1292 180.34 8.52915C183.88 -1.07085 186.38 0.0391558 186.38 0.0391558C186.38 0.0391558 188.88 -1.07085 192.42 8.52915C195.96 18.1292 192.8 21.1692 186.38 21.1692Z" fill="#62AB51"/>
<path d="M180.34 8.52898C181.84 4.46898 183.15 2.32898 184.16 1.20898C183.45 3.31898 183 5.53898 182.71 7.74898C182.35 10.549 182.22 13.419 182.87 16.159C183.3 17.959 184.11 19.709 185.27 21.139C179.61 20.789 177.01 17.559 180.34 8.52898Z" fill="#548945"/>
</svg>
