<svg width="459" height="272" viewBox="0 0 459 272" fill="none" xmlns="http://www.w3.org/2000/svg">
<path d="M225.42 166.409L226.15 165.989L221.79 163.469L221.06 163.889L225.42 166.409Z" fill="#BEC3C7"/>
<path d="M225.42 165.858L226.15 165.438L224.43 164.448L223.7 164.858L225.42 165.858Z" fill="#EAEAEA"/>
<path d="M225.42 161.699L226.15 161.279L224.43 160.289L223.7 160.699L225.42 161.699Z" fill="#EAEAEA"/>
<path d="M225.42 165.859L226.15 165.439L221.79 162.919L221.06 163.339L225.42 165.859Z" fill="#EAEAEA"/>
<path d="M225.42 165.859V166.409L221.06 163.889V163.339L225.42 165.859Z" fill="#BEC3C7"/>
<path d="M226.15 165.438V165.988L225.42 166.408V165.858L226.15 165.438Z" fill="#E1E1E1"/>
<path d="M223.05 159.179L223.7 159.549V164.859L223.05 164.489V159.179Z" fill="#BEC3C7"/>
<path d="M225.42 161.699L226.15 161.279L221.79 158.759L221.06 159.179L225.42 161.699Z" fill="#252525"/>
<path d="M224.43 164.449V160.289L223.7 160.699V164.859L224.43 164.449Z" fill="#E1E1E1"/>
<path d="M225.42 161.069L226.15 160.649L221.79 158.139L221.06 158.549L225.42 161.069Z" fill="#5B5B5B"/>
<path d="M225.42 161.069V161.699L221.06 159.179V158.549L225.42 161.069Z" fill="#252525"/>
<path d="M226.15 160.648V161.278L225.42 161.698V161.068L226.15 160.648Z" fill="#3A3A3A"/>
<path d="M215.81 162.169L220.17 159.649L218.57 152.639L214.21 155.149L215.81 162.169Z" fill="#746457"/>
<path d="M216.11 163.478L220.47 160.958L218.86 153.948L214.5 156.458L216.11 163.478Z" fill="#564742"/>
<path d="M221.27 166.448L225.63 163.928L221.27 161.408L216.92 163.928L221.27 166.448Z" fill="#564742"/>
<path d="M221.27 165.329L225.63 162.809L221.27 160.299L216.92 162.809L221.27 165.329Z" fill="#998675"/>
<path d="M216.92 162.808L221.27 160.298L219.67 153.278L215.31 155.798L216.92 162.808Z" fill="#746457"/>
<path d="M221.27 165.329V166.449L216.92 163.929V162.809L221.27 165.329Z" fill="#564742"/>
<path d="M225.63 162.809V163.929L221.27 166.449V165.329L225.63 162.809Z" fill="#746457"/>
<path d="M216.92 163.928L216.11 163.478L214.21 155.148L215.31 155.798L216.92 162.808V163.928Z" fill="#564742"/>
<path d="M218.57 152.639L219.67 153.279L215.31 155.799L214.21 155.149L218.57 152.639Z" fill="#998675"/>
<path d="M221.27 168.809L222 168.389L217.64 165.879L216.92 166.299L221.27 168.809Z" fill="#BEC3C7"/>
<path d="M221.27 168.259L222 167.849L220.28 166.849L219.55 167.269L221.27 168.259Z" fill="#EAEAEA"/>
<path d="M221.27 164.099L222 163.679L220.28 162.689L219.55 163.109L221.27 164.099Z" fill="#EAEAEA"/>
<path d="M221.27 168.259L222 167.849L217.64 165.329L216.92 165.749L221.27 168.259Z" fill="#EAEAEA"/>
<path d="M221.27 168.259V168.809L216.92 166.299V165.749L221.27 168.259Z" fill="#BEC3C7"/>
<path d="M222 167.849V168.389L221.27 168.809V168.259L222 167.849Z" fill="#E1E1E1"/>
<path d="M218.91 161.579L219.55 161.959V167.269L218.91 166.899V161.579Z" fill="#BEC3C7"/>
<path d="M221.27 164.099L222 163.679L217.64 161.169L216.92 161.589L221.27 164.099Z" fill="#252525"/>
<path d="M220.28 166.849V162.689L219.55 163.109V167.269L220.28 166.849Z" fill="#E1E1E1"/>
<path d="M221.27 163.479L222 163.059L217.64 160.539L216.92 160.959L221.27 163.479Z" fill="#5B5B5B"/>
<path d="M221.27 163.479V164.099L216.92 161.589V160.959L221.27 163.479Z" fill="#252525"/>
<path d="M222 163.059V163.679L221.27 164.099V163.479L222 163.059Z" fill="#3A3A3A"/>
<path d="M210.94 166.569L215.3 164.049L213.7 157.039L209.34 159.559L210.94 166.569Z" fill="#564742"/>
<path d="M216.11 169.539L220.47 167.019L216.11 164.509L211.75 167.019L216.11 169.539Z" fill="#564742"/>
<path d="M216.11 168.419L220.47 165.909L216.11 163.389L211.75 165.909L216.11 168.419Z" fill="#998675"/>
<path d="M211.75 165.909L216.11 163.389L214.5 156.379L210.15 158.889L211.75 165.909Z" fill="#746457"/>
<path d="M216.11 168.418V169.538L211.75 167.018V165.908L216.11 168.418Z" fill="#564742"/>
<path d="M220.47 165.908V167.018L216.11 169.538V168.418L220.47 165.908Z" fill="#746457"/>
<path d="M211.75 167.019L210.94 166.569L209.04 158.249L210.15 158.889L211.75 165.909V167.019Z" fill="#564742"/>
<path d="M213.4 155.729L214.5 156.379L210.15 158.889L209.04 158.249L213.4 155.729Z" fill="#998675"/>
<path d="M216.09 171.798L216.82 171.378L212.46 168.858L211.74 169.278L216.09 171.798Z" fill="#BEC3C7"/>
<path d="M216.09 171.249L216.82 170.829L215.1 169.839L214.37 170.249L216.09 171.249Z" fill="#EAEAEA"/>
<path d="M216.09 167.079L216.82 166.669L215.1 165.669L214.37 166.089L216.09 167.079Z" fill="#EAEAEA"/>
<path d="M216.09 171.249L216.82 170.829L212.46 168.309L211.74 168.729L216.09 171.249Z" fill="#EAEAEA"/>
<path d="M216.09 171.249V171.799L211.74 169.279V168.729L216.09 171.249Z" fill="#BEC3C7"/>
<path d="M216.82 170.828V171.378L216.09 171.798V171.248L216.82 170.828Z" fill="#E1E1E1"/>
<path d="M213.73 164.559L214.37 164.939V170.249L213.73 169.879V164.559Z" fill="#BEC3C7"/>
<path d="M216.09 167.078L216.82 166.668L212.46 164.148L211.74 164.568L216.09 167.078Z" fill="#252525"/>
<path d="M215.1 169.839V165.669L214.37 166.089V170.249L215.1 169.839Z" fill="#E1E1E1"/>
<path d="M216.09 166.459L216.82 166.039L212.46 163.519L211.74 163.939L216.09 166.459Z" fill="#5B5B5B"/>
<path d="M216.09 166.458V167.078L211.74 164.568V163.938L216.09 166.458Z" fill="#252525"/>
<path d="M216.82 166.038V166.668L216.09 167.078V166.458L216.82 166.038Z" fill="#3A3A3A"/>
<path d="M213.43 173.469L214.16 173.049L209.8 170.529L209.07 170.949L213.43 173.469Z" fill="#BEC3C7"/>
<path d="M213.43 172.919L214.16 172.499L212.44 171.509L211.71 171.929L213.43 172.919Z" fill="#EAEAEA"/>
<path d="M213.43 168.76L214.16 168.34L212.44 167.35L211.71 167.77L213.43 168.76Z" fill="#EAEAEA"/>
<path d="M213.43 172.919L214.16 172.499L209.8 169.989L209.07 170.399L213.43 172.919Z" fill="#EAEAEA"/>
<path d="M213.43 172.919V173.469L209.07 170.949V170.399L213.43 172.919Z" fill="#BEC3C7"/>
<path d="M214.16 172.499V173.049L213.43 173.469V172.919L214.16 172.499Z" fill="#E1E1E1"/>
<path d="M211.06 166.239L211.71 166.609V171.929L211.06 171.549V166.239Z" fill="#BEC3C7"/>
<path d="M213.43 168.759L214.16 168.339L209.8 165.819L209.07 166.239L213.43 168.759Z" fill="#252525"/>
<path d="M212.44 171.51V167.35L211.71 167.77V171.93L212.44 171.51Z" fill="#E1E1E1"/>
<path d="M213.43 168.129L214.16 167.719L209.8 165.199L209.07 165.619L213.43 168.129Z" fill="#5B5B5B"/>
<path d="M213.43 168.129V168.759L209.07 166.239V165.619L213.43 168.129Z" fill="#252525"/>
<path d="M214.16 167.719V168.339L213.43 168.759V168.129L214.16 167.719Z" fill="#3A3A3A"/>
<path d="M203.82 169.229L208.18 166.709L206.58 159.699L202.22 162.219L203.82 169.229Z" fill="#746457"/>
<path d="M204.12 170.539L208.48 168.019L206.87 161.009L202.51 163.529L204.12 170.539Z" fill="#564742"/>
<path d="M209.28 173.509L213.64 170.989L209.28 168.469L204.93 170.989L209.28 173.509Z" fill="#564742"/>
<path d="M209.28 172.389L213.64 169.869L209.28 167.359L204.93 169.869L209.28 172.389Z" fill="#998675"/>
<path d="M204.93 169.869L209.28 167.359L207.68 160.339L203.32 162.859L204.93 169.869Z" fill="#746457"/>
<path d="M209.28 172.389V173.509L204.93 170.989V169.869L209.28 172.389Z" fill="#564742"/>
<path d="M213.64 169.869V170.989L209.28 173.509V172.389L213.64 169.869Z" fill="#746457"/>
<path d="M204.93 170.989L204.12 170.539L202.22 162.219L203.32 162.859L204.93 169.869V170.989Z" fill="#564742"/>
<path d="M206.58 159.699L207.68 160.339L203.32 162.859L202.22 162.219L206.58 159.699Z" fill="#998675"/>
<path d="M209.28 175.869L210.01 175.459L205.65 172.939L204.93 173.359L209.28 175.869Z" fill="#BEC3C7"/>
<path d="M209.28 175.329L210.01 174.909L208.29 173.909L207.56 174.329L209.28 175.329Z" fill="#EAEAEA"/>
<path d="M209.28 171.16L210.01 170.75L208.29 169.75L207.56 170.17L209.28 171.16Z" fill="#EAEAEA"/>
<path d="M209.28 175.33L210.01 174.91L205.65 172.39L204.93 172.81L209.28 175.33Z" fill="#EAEAEA"/>
<path d="M209.28 175.33V175.87L204.93 173.36V172.81L209.28 175.33Z" fill="#BEC3C7"/>
<path d="M210.01 174.909V175.459L209.28 175.869V175.329L210.01 174.909Z" fill="#E1E1E1"/>
<path d="M206.91 168.64L207.56 169.02V174.33L206.91 173.96V168.64Z" fill="#BEC3C7"/>
<path d="M209.28 171.16L210.01 170.749L205.65 168.229L204.93 168.65L209.28 171.16Z" fill="#252525"/>
<path d="M208.29 173.91V169.75L207.56 170.17V174.33L208.29 173.91Z" fill="#E1E1E1"/>
<path d="M209.28 170.54L210.01 170.12L205.65 167.6L204.93 168.02L209.28 170.54Z" fill="#5B5B5B"/>
<path d="M209.28 170.54V171.16L204.93 168.65V168.02L209.28 170.54Z" fill="#252525"/>
<path d="M210.01 170.119V170.749L209.28 171.159V170.539L210.01 170.119Z" fill="#3A3A3A"/>
<path d="M198.95 173.63L203.31 171.12L201.71 164.1L197.35 166.62L198.95 173.63Z" fill="#564742"/>
<path d="M204.12 176.599L208.48 174.079L204.12 171.569L199.76 174.079L204.12 176.599Z" fill="#564742"/>
<path d="M204.12 175.479L208.48 172.969L204.12 170.449L199.76 172.969L204.12 175.479Z" fill="#998675"/>
<path d="M199.76 172.969L204.12 170.449L202.51 163.439L198.16 165.949L199.76 172.969Z" fill="#746457"/>
<path d="M204.12 175.479V176.599L199.76 174.079V172.969L204.12 175.479Z" fill="#564742"/>
<path d="M208.48 172.969V174.079L204.12 176.599V175.479L208.48 172.969Z" fill="#746457"/>
<path d="M199.76 174.08L198.95 173.63L197.05 165.31L198.16 165.95L199.76 172.97V174.08Z" fill="#564742"/>
<path d="M201.41 162.789L202.51 163.439L198.16 165.949L197.05 165.309L201.41 162.789Z" fill="#998675"/>
<path d="M204.1 178.859L204.83 178.439L200.47 175.919L199.75 176.339L204.1 178.859Z" fill="#BEC3C7"/>
<path d="M204.1 178.308L204.83 177.888L203.11 176.898L202.38 177.318L204.1 178.308Z" fill="#EAEAEA"/>
<path d="M204.1 174.149L204.83 173.729L203.11 172.739L202.38 173.149L204.1 174.149Z" fill="#EAEAEA"/>
<path d="M204.1 178.309L204.83 177.889L200.47 175.369L199.75 175.789L204.1 178.309Z" fill="#EAEAEA"/>
<path d="M204.1 178.309V178.859L199.75 176.339V175.789L204.1 178.309Z" fill="#BEC3C7"/>
<path d="M204.83 177.889V178.439L204.1 178.859V178.309L204.83 177.889Z" fill="#E1E1E1"/>
<path d="M201.73 171.629L202.38 171.999V177.319L201.73 176.939V171.629Z" fill="#BEC3C7"/>
<path d="M204.1 174.149L204.83 173.729L200.47 171.209L199.75 171.629L204.1 174.149Z" fill="#252525"/>
<path d="M203.11 176.899V172.739L202.38 173.149V177.319L203.11 176.899Z" fill="#E1E1E1"/>
<path d="M204.1 173.519L204.83 173.099L200.47 170.589L199.75 170.999L204.1 173.519Z" fill="#5B5B5B"/>
<path d="M204.1 173.519V174.149L199.75 171.629V170.999L204.1 173.519Z" fill="#252525"/>
<path d="M204.83 173.099V173.729L204.1 174.149V173.519L204.83 173.099Z" fill="#3A3A3A"/>
<path d="M302.13 121.859L302.85 121.449L298.49 118.929L297.77 119.349L302.13 121.859Z" fill="#BEC3C7"/>
<path d="M302.13 121.318L302.85 120.898L301.13 119.898L300.41 120.318L302.13 121.318Z" fill="#EAEAEA"/>
<path d="M302.13 117.149L302.85 116.739L301.13 115.739L300.41 116.159L302.13 117.149Z" fill="#EAEAEA"/>
<path d="M302.13 121.319L302.85 120.899L298.49 118.379L297.77 118.799L302.13 121.319Z" fill="#EAEAEA"/>
<path d="M302.13 121.319V121.859L297.77 119.349V118.799L302.13 121.319Z" fill="#BEC3C7"/>
<path d="M302.85 120.898V121.448L302.13 121.858V121.318L302.85 120.898Z" fill="#E1E1E1"/>
<path d="M299.76 114.629L300.41 115.009V120.319L299.76 119.949V114.629Z" fill="#BEC3C7"/>
<path d="M302.13 117.149L302.85 116.739L298.49 114.219L297.77 114.639L302.13 117.149Z" fill="#252525"/>
<path d="M301.13 119.899V115.739L300.41 116.159V120.319L301.13 119.899Z" fill="#E1E1E1"/>
<path d="M302.13 116.529L302.85 116.109L298.49 113.589L297.77 114.009L302.13 116.529Z" fill="#5B5B5B"/>
<path d="M302.13 116.529V117.149L297.77 114.639V114.009L302.13 116.529Z" fill="#252525"/>
<path d="M302.85 116.108V116.738L302.13 117.148V116.528L302.85 116.108Z" fill="#3A3A3A"/>
<path d="M292.52 117.619L296.88 115.109L295.28 108.089L290.92 110.609L292.52 117.619Z" fill="#746457"/>
<path d="M292.81 118.928L297.17 116.418L295.57 109.398L291.21 111.918L292.81 118.928Z" fill="#564742"/>
<path d="M297.98 121.899L302.34 119.389L297.98 116.869L293.62 119.389L297.98 121.899Z" fill="#564742"/>
<path d="M297.98 120.789L302.34 118.269L297.98 115.749L293.62 118.269L297.98 120.789Z" fill="#998675"/>
<path d="M293.62 118.269L297.98 115.749L296.38 108.739L292.02 111.259L293.62 118.269Z" fill="#746457"/>
<path d="M297.98 120.789V121.899L293.62 119.389V118.269L297.98 120.789Z" fill="#564742"/>
<path d="M302.34 118.269V119.389L297.98 121.899V120.789L302.34 118.269Z" fill="#746457"/>
<path d="M293.62 119.388L292.81 118.928L290.92 110.608L292.02 111.258L293.62 118.268V119.388Z" fill="#564742"/>
<path d="M295.28 108.089L296.38 108.739L292.02 111.259L290.92 110.609L295.28 108.089Z" fill="#998675"/>
<path d="M297.98 124.269L298.7 123.849L294.35 121.339L293.62 121.749L297.98 124.269Z" fill="#BEC3C7"/>
<path d="M297.98 123.719L298.7 123.299L296.98 122.309L296.26 122.729L297.98 123.719Z" fill="#EAEAEA"/>
<path d="M297.98 119.559L298.7 119.139L296.98 118.149L296.26 118.569L297.98 119.559Z" fill="#EAEAEA"/>
<path d="M297.98 123.719L298.7 123.299L294.35 120.789L293.62 121.199L297.98 123.719Z" fill="#EAEAEA"/>
<path d="M297.98 123.719V124.269L293.62 121.749V121.199L297.98 123.719Z" fill="#BEC3C7"/>
<path d="M298.7 123.299V123.849L297.98 124.269V123.719L298.7 123.299Z" fill="#E1E1E1"/>
<path d="M295.61 117.039L296.26 117.409V122.729L295.61 122.349V117.039Z" fill="#BEC3C7"/>
<path d="M297.98 119.559L298.7 119.139L294.35 116.619L293.62 117.039L297.98 119.559Z" fill="#252525"/>
<path d="M296.98 122.309V118.149L296.26 118.569V122.729L296.98 122.309Z" fill="#E1E1E1"/>
<path d="M297.98 118.929L298.7 118.519L294.35 115.999L293.62 116.419L297.98 118.929Z" fill="#5B5B5B"/>
<path d="M297.98 118.929V119.559L293.62 117.039V116.419L297.98 118.929Z" fill="#252525"/>
<path d="M298.7 118.519V119.139L297.98 119.559V118.929L298.7 118.519Z" fill="#3A3A3A"/>
<path d="M287.65 122.029L292 119.509L290.4 112.499L286.04 115.009L287.65 122.029Z" fill="#564742"/>
<path d="M292.81 124.999L297.17 122.479L292.81 119.959L288.45 122.479L292.81 124.999Z" fill="#564742"/>
<path d="M292.81 123.879L297.17 121.359L292.81 118.849L288.45 121.359L292.81 123.879Z" fill="#998675"/>
<path d="M288.45 121.359L292.81 118.849L291.21 111.829L286.85 114.349L288.45 121.359Z" fill="#746457"/>
<path d="M292.81 123.878V124.998L288.45 122.478V121.358L292.81 123.878Z" fill="#564742"/>
<path d="M297.17 121.358V122.478L292.81 124.998V123.878L297.17 121.358Z" fill="#746457"/>
<path d="M288.45 122.479L287.65 122.029L285.75 113.699L286.85 114.349L288.45 121.359V122.479Z" fill="#564742"/>
<path d="M290.11 111.188L291.21 111.828L286.85 114.348L285.75 113.698L290.11 111.188Z" fill="#998675"/>
<path d="M292.8 127.248L293.52 126.828L289.17 124.318L288.44 124.738L292.8 127.248Z" fill="#BEC3C7"/>
<path d="M292.8 126.698L293.52 126.288L291.8 125.288L291.08 125.708L292.8 126.698Z" fill="#EAEAEA"/>
<path d="M292.8 122.539L293.52 122.119L291.8 121.129L291.08 121.549L292.8 122.539Z" fill="#EAEAEA"/>
<path d="M292.8 126.699L293.52 126.289L289.17 123.769L288.44 124.189L292.8 126.699Z" fill="#EAEAEA"/>
<path d="M292.8 126.698V127.248L288.44 124.738V124.188L292.8 126.698Z" fill="#BEC3C7"/>
<path d="M293.52 126.288V126.828L292.8 127.248V126.698L293.52 126.288Z" fill="#E1E1E1"/>
<path d="M290.43 120.019L291.08 120.399V125.709L290.43 125.339V120.019Z" fill="#BEC3C7"/>
<path d="M292.8 122.538L293.52 122.118L289.17 119.608L288.44 120.028L292.8 122.538Z" fill="#252525"/>
<path d="M291.8 125.289V121.129L291.08 121.549V125.709L291.8 125.289Z" fill="#E1E1E1"/>
<path d="M292.8 121.919L293.52 121.499L289.17 118.979L288.44 119.399L292.8 121.919Z" fill="#5B5B5B"/>
<path d="M292.8 121.918V122.538L288.44 120.028V119.398L292.8 121.918Z" fill="#252525"/>
<path d="M293.52 121.498V122.118L292.8 122.538V121.918L293.52 121.498Z" fill="#3A3A3A"/>
<path d="M290.14 128.929L290.86 128.509L286.5 125.989L285.78 126.409L290.14 128.929Z" fill="#BEC3C7"/>
<path d="M290.14 128.379L290.86 127.959L289.14 126.969L288.42 127.379L290.14 128.379Z" fill="#EAEAEA"/>
<path d="M290.14 124.22L290.86 123.8L289.14 122.81L288.42 123.22L290.14 124.22Z" fill="#EAEAEA"/>
<path d="M290.14 128.379L290.86 127.959L286.5 125.439L285.78 125.859L290.14 128.379Z" fill="#EAEAEA"/>
<path d="M290.14 128.379V128.929L285.78 126.409V125.859L290.14 128.379Z" fill="#BEC3C7"/>
<path d="M290.86 127.959V128.509L290.14 128.929V128.379L290.86 127.959Z" fill="#E1E1E1"/>
<path d="M287.77 121.689L288.42 122.069V127.379L287.77 127.009V121.689Z" fill="#BEC3C7"/>
<path d="M290.14 124.219L290.86 123.799L286.5 121.279L285.78 121.699L290.14 124.219Z" fill="#252525"/>
<path d="M289.14 126.97V122.81L288.42 123.22V127.38L289.14 126.97Z" fill="#E1E1E1"/>
<path d="M290.14 123.589L290.86 123.169L286.5 120.659L285.78 121.069L290.14 123.589Z" fill="#5B5B5B"/>
<path d="M290.14 123.589V124.219L285.78 121.699V121.069L290.14 123.589Z" fill="#252525"/>
<path d="M290.86 123.169V123.799L290.14 124.219V123.589L290.86 123.169Z" fill="#3A3A3A"/>
<path d="M280.53 124.689L284.89 122.169L283.29 115.159L278.93 117.669L280.53 124.689Z" fill="#746457"/>
<path d="M280.82 125.999L285.18 123.479L283.58 116.469L279.22 118.979L280.82 125.999Z" fill="#564742"/>
<path d="M285.99 128.969L290.35 126.449L285.99 123.929L281.63 126.449L285.99 128.969Z" fill="#564742"/>
<path d="M285.99 127.85L290.35 125.33L285.99 122.81L281.63 125.33L285.99 127.85Z" fill="#998675"/>
<path d="M281.63 125.329L285.99 122.809L284.39 115.799L280.03 118.319L281.63 125.329Z" fill="#746457"/>
<path d="M285.99 127.849V128.969L281.63 126.449V125.329L285.99 127.849Z" fill="#564742"/>
<path d="M290.35 125.329V126.449L285.99 128.969V127.849L290.35 125.329Z" fill="#746457"/>
<path d="M281.63 126.449L280.82 125.999L278.93 117.669L280.03 118.319L281.63 125.329V126.449Z" fill="#564742"/>
<path d="M283.29 115.159L284.39 115.799L280.03 118.319L278.93 117.669L283.29 115.159Z" fill="#998675"/>
<path d="M285.99 131.329L286.71 130.909L282.36 128.399L281.63 128.819L285.99 131.329Z" fill="#BEC3C7"/>
<path d="M285.99 130.779L286.71 130.369L284.99 129.369L284.27 129.789L285.99 130.779Z" fill="#EAEAEA"/>
<path d="M285.99 126.62L286.71 126.2L284.99 125.21L284.27 125.63L285.99 126.62Z" fill="#EAEAEA"/>
<path d="M285.99 130.78L286.71 130.37L282.36 127.85L281.63 128.27L285.99 130.78Z" fill="#EAEAEA"/>
<path d="M285.99 130.78V131.33L281.63 128.82V128.27L285.99 130.78Z" fill="#BEC3C7"/>
<path d="M286.71 130.369V130.909L285.99 131.329V130.779L286.71 130.369Z" fill="#E1E1E1"/>
<path d="M283.62 124.1L284.27 124.48V129.79L283.62 129.41V124.1Z" fill="#BEC3C7"/>
<path d="M285.99 126.619L286.71 126.199L282.36 123.689L281.63 124.099L285.99 126.619Z" fill="#252525"/>
<path d="M284.99 129.37V125.21L284.27 125.63V129.79L284.99 129.37Z" fill="#E1E1E1"/>
<path d="M285.99 126L286.71 125.58L282.36 123.06L281.63 123.48L285.99 126Z" fill="#5B5B5B"/>
<path d="M285.99 125.999V126.619L281.63 124.1V123.479L285.99 125.999Z" fill="#252525"/>
<path d="M286.71 125.579V126.199L285.99 126.619V125.999L286.71 125.579Z" fill="#3A3A3A"/>
<path d="M275.66 129.09L280.01 126.57L278.41 119.56L274.05 122.08L275.66 129.09Z" fill="#564742"/>
<path d="M280.82 132.06L285.18 129.54L280.82 127.02L276.46 129.54L280.82 132.06Z" fill="#564742"/>
<path d="M280.82 130.939L285.18 128.419L280.82 125.909L276.46 128.419L280.82 130.939Z" fill="#998675"/>
<path d="M276.46 128.42L280.82 125.91L279.22 118.89L274.86 121.41L276.46 128.42Z" fill="#746457"/>
<path d="M280.82 130.939V132.059L276.46 129.539V128.419L280.82 130.939Z" fill="#564742"/>
<path d="M285.18 128.419V129.539L280.82 132.059V130.939L285.18 128.419Z" fill="#746457"/>
<path d="M276.46 129.54L275.66 129.09L273.76 120.77L274.86 121.41L276.46 128.42V129.54Z" fill="#564742"/>
<path d="M278.12 118.249L279.22 118.889L274.86 121.409L273.76 120.769L278.12 118.249Z" fill="#998675"/>
<path d="M280.81 134.309L281.53 133.899L277.18 131.379L276.45 131.799L280.81 134.309Z" fill="#BEC3C7"/>
<path d="M280.81 133.769L281.53 133.349L279.81 132.349L279.09 132.769L280.81 133.769Z" fill="#EAEAEA"/>
<path d="M280.81 129.599L281.53 129.189L279.81 128.189L279.09 128.609L280.81 129.599Z" fill="#EAEAEA"/>
<path d="M280.81 133.769L281.53 133.349L277.18 130.829L276.45 131.249L280.81 133.769Z" fill="#EAEAEA"/>
<path d="M280.81 133.769V134.309L276.45 131.799V131.249L280.81 133.769Z" fill="#BEC3C7"/>
<path d="M281.53 133.349V133.899L280.81 134.309V133.769L281.53 133.349Z" fill="#E1E1E1"/>
<path d="M278.44 127.079L279.09 127.459V132.769L278.44 132.399V127.079Z" fill="#BEC3C7"/>
<path d="M280.81 129.599L281.53 129.189L277.18 126.669L276.45 127.089L280.81 129.599Z" fill="#252525"/>
<path d="M279.81 132.349V128.189L279.09 128.609V132.769L279.81 132.349Z" fill="#E1E1E1"/>
<path d="M280.81 128.979L281.53 128.559L277.18 126.039L276.45 126.459L280.81 128.979Z" fill="#5B5B5B"/>
<path d="M280.81 128.979V129.599L276.45 127.089V126.459L280.81 128.979Z" fill="#252525"/>
<path d="M281.53 128.559V129.189L280.81 129.599V128.979L281.53 128.559Z" fill="#3A3A3A"/>
</svg>
