<svg width="459" height="272" viewBox="0 0 459 272" fill="none" xmlns="http://www.w3.org/2000/svg">
<path d="M262.83 107.738V147.168C262.83 147.348 262.71 147.528 262.47 147.668C261.99 147.948 261.22 147.948 260.74 147.668C260.5 147.528 260.38 147.348 260.38 147.168V107.738H262.83Z" fill="#D1D1D1"/>
<path d="M241.45 119.379V158.809C241.45 158.989 241.33 159.169 241.09 159.309C240.61 159.589 239.84 159.589 239.36 159.309C239.12 159.169 239 158.989 239 158.809V119.379H241.45Z" fill="#D1D1D1"/>
<path d="M264.07 128.729L261.44 127.199L250.82 133.329L253.45 134.869L264.07 128.729Z" fill="#3A3A3A"/>
<path d="M259.15 126.039C259.01 126.359 258.84 126.639 258.63 126.879L261.26 128.409C261.47 128.159 261.64 127.879 261.78 127.569L259.15 126.039Z" fill="#252525"/>
<path d="M258.63 126.879C258.42 127.129 258.19 127.329 257.93 127.479L260.56 129.009C260.82 128.859 261.06 128.659 261.26 128.409L258.63 126.879Z" fill="#252525"/>
<path d="M257.93 127.479C257.67 127.629 257.44 127.699 257.23 127.689L259.86 129.219C260.07 129.219 260.3 129.159 260.56 129.009L257.93 127.479Z" fill="#252525"/>
<path d="M257.23 127.689C257.1 127.689 256.98 127.649 256.87 127.589L259.5 129.119C259.61 129.179 259.72 129.209 259.86 129.219L258.54 128.449L257.86 128.049L257.38 127.769C257.38 127.769 257.28 127.699 257.23 127.679V127.689Z" fill="#252525"/>
<path d="M264.05 119.799L261.41 118.269L261.44 127.199L264.07 128.729L264.05 119.799Z" fill="#3A3A3A"/>
<path d="M261.6 123.649L258.97 122.119C259.03 122.159 259.09 122.199 259.14 122.259C259.29 122.409 259.4 122.619 259.47 122.899C259.55 123.179 259.59 123.509 259.59 123.889C259.59 124.269 259.55 124.649 259.48 125.009C259.4 125.379 259.29 125.709 259.15 126.029L261.78 127.559C261.92 127.249 262.03 126.909 262.11 126.539C262.18 126.169 262.22 125.799 262.22 125.419C262.22 125.039 262.18 124.709 262.1 124.429C262.02 124.149 261.91 123.939 261.77 123.789C261.72 123.729 261.66 123.689 261.6 123.649Z" fill="#252525"/>
<path d="M261.06 124.428L258.43 122.898C258.49 122.938 258.55 122.988 258.6 123.048C258.7 123.168 258.77 123.328 258.84 123.528C258.9 123.738 258.93 123.988 258.93 124.278C258.93 124.568 258.9 124.858 258.84 125.128C258.78 125.408 258.7 125.658 258.61 125.878C258.51 126.108 258.41 126.298 258.29 126.458C258.17 126.618 258.05 126.728 257.93 126.798C257.81 126.868 257.69 126.888 257.57 126.868C257.52 126.858 257.47 126.838 257.42 126.808L260.05 128.338C260.05 128.338 260.15 128.388 260.2 128.398C260.32 128.418 260.44 128.398 260.56 128.328C260.68 128.258 260.8 128.148 260.92 127.988C261.04 127.828 261.15 127.638 261.24 127.408C261.33 127.178 261.41 126.928 261.47 126.658C261.53 126.378 261.56 126.098 261.56 125.808C261.56 125.518 261.53 125.258 261.47 125.058C261.41 124.848 261.33 124.688 261.23 124.578C261.18 124.518 261.12 124.468 261.06 124.428Z" fill="#FFC74A"/>
<path d="M257.32 126.738C257.32 126.738 257.39 126.798 257.42 126.818L260.05 128.348C260.05 128.348 259.98 128.298 259.95 128.268L257.32 126.738Z" fill="#252525"/>
<path d="M257.25 126.669C257.25 126.669 257.3 126.719 257.32 126.739L259.95 128.269C259.95 128.269 259.9 128.219 259.88 128.199L257.25 126.669Z" fill="#252525"/>
<path d="M257.01 126.188C257.07 126.398 257.15 126.558 257.25 126.668L259.88 128.198C259.78 128.088 259.7 127.918 259.64 127.718L257.01 126.188Z" fill="#252525"/>
<path d="M256.92 125.438C256.92 125.728 256.95 125.978 257.01 126.188L259.64 127.718C259.58 127.508 259.55 127.258 259.55 126.968L256.92 125.438Z" fill="#252525"/>
<path d="M258.45 128.598L255.82 127.068C255.82 127.298 255.78 127.528 255.7 127.778C255.62 128.028 255.51 128.258 255.37 128.488L258 130.018C258.14 129.788 258.25 129.558 258.33 129.308C258.41 129.058 258.45 128.828 258.45 128.598Z" fill="#252525"/>
<path d="M258.42 122.899C258.42 122.899 258.32 122.849 258.27 122.839L260.9 124.369C260.95 124.369 261 124.399 261.05 124.429C260.26 123.969 259.21 123.359 258.42 122.899Z" fill="#252525"/>
<path d="M257.01 124.579C256.95 124.849 256.92 125.139 256.92 125.429L259.55 126.959C259.55 126.669 259.58 126.379 259.64 126.109L257.01 124.579Z" fill="#252525"/>
<path d="M258.27 122.838C258.15 122.818 258.03 122.838 257.91 122.908L260.54 124.438C260.66 124.368 260.78 124.348 260.9 124.368L258.27 122.838Z" fill="#252525"/>
<path d="M257.24 123.829C257.14 124.059 257.07 124.309 257.01 124.579L259.64 126.109C259.7 125.829 259.78 125.579 259.87 125.359L257.24 123.829Z" fill="#252525"/>
<path d="M257.92 122.909C257.8 122.979 257.68 123.089 257.56 123.249L260.19 124.779C260.31 124.619 260.43 124.509 260.55 124.439L257.92 122.909Z" fill="#252525"/>
<path d="M258.45 128.598L255.82 127.068L255.09 127.488L257.73 129.018L258.45 128.598Z" fill="#FFC74A"/>
<path d="M259.87 125.359C259.77 125.589 259.7 125.839 259.64 126.109C259.58 126.379 259.55 126.669 259.55 126.959C259.55 127.249 259.58 127.499 259.64 127.709C259.7 127.919 259.78 128.079 259.88 128.189C259.98 128.299 260.08 128.369 260.2 128.399C260.32 128.419 260.44 128.399 260.56 128.329C260.68 128.259 260.8 128.149 260.92 127.989C261.04 127.829 261.15 127.639 261.24 127.409C261.33 127.179 261.41 126.929 261.47 126.659C261.53 126.379 261.56 126.099 261.56 125.809C261.56 125.519 261.53 125.259 261.47 125.059C261.41 124.849 261.33 124.689 261.23 124.579C261.13 124.469 261.03 124.399 260.91 124.369C260.79 124.349 260.67 124.369 260.55 124.439C260.43 124.509 260.31 124.619 260.19 124.779C260.07 124.939 259.97 125.129 259.87 125.359Z" fill="#252525"/>
<path d="M257.56 123.249C257.44 123.409 257.34 123.599 257.24 123.829L259.87 125.359C259.97 125.139 260.07 124.939 260.19 124.779L257.56 123.249Z" fill="#252525"/>
<path d="M256.87 127.589L259.5 129.119C259.44 129.079 259.38 129.039 259.33 128.979C259.19 128.829 259.08 128.619 259 128.339C258.92 128.059 258.88 127.729 258.88 127.349C258.88 126.969 258.92 126.589 258.99 126.229L256.36 124.699C256.29 125.059 256.25 125.439 256.25 125.819C256.25 126.199 256.29 126.529 256.37 126.809C256.45 127.089 256.56 127.299 256.7 127.449C256.75 127.509 256.81 127.549 256.87 127.589Z" fill="#FFC74A"/>
<path d="M253.68 129.809C253.49 129.829 253.33 129.809 253.19 129.749L255.82 131.279C255.96 131.339 256.13 131.359 256.31 131.339C256.5 131.319 256.7 131.239 256.91 131.119C257.12 130.999 257.33 130.839 257.51 130.639C257.7 130.449 257.86 130.239 258 130.009L255.37 128.479C255.23 128.709 255.07 128.919 254.88 129.109C254.69 129.299 254.49 129.459 254.28 129.589C254.07 129.719 253.87 129.779 253.68 129.809Z" fill="#252525"/>
<path d="M253.69 128.948L256.32 130.478H256.34C256.41 130.528 256.5 130.538 256.6 130.528C256.7 130.528 256.8 130.488 256.91 130.418C257.02 130.348 257.12 130.268 257.22 130.168C257.32 130.058 257.4 129.948 257.48 129.818C257.55 129.688 257.61 129.558 257.66 129.418C257.71 129.278 257.73 129.138 257.73 129.018L255.1 127.488C255.1 127.618 255.08 127.748 255.03 127.888C254.98 128.028 254.92 128.168 254.85 128.288C254.78 128.418 254.69 128.528 254.59 128.638C254.49 128.748 254.39 128.828 254.28 128.888C254.17 128.948 254.07 128.988 253.97 128.998C253.87 128.998 253.79 128.998 253.71 128.948H253.69Z" fill="#FFC74A"/>
<path d="M259.32 125.209L256.69 123.679C256.55 123.999 256.44 124.339 256.37 124.699L259 126.229C259.08 125.859 259.18 125.519 259.32 125.209Z" fill="#FFC74A"/>
<path d="M261.6 123.649L258.97 122.119C258.87 122.059 258.75 122.029 258.62 122.019C258.41 122.019 258.18 122.079 257.92 122.229C257.66 122.379 257.43 122.579 257.22 122.829C257.01 123.079 256.84 123.359 256.69 123.669L259.32 125.199C259.46 124.889 259.64 124.609 259.85 124.359C260.06 124.109 260.29 123.909 260.55 123.759C260.81 123.609 261.05 123.539 261.25 123.549C261.38 123.549 261.5 123.589 261.6 123.649Z" fill="#FFC74A"/>
<path d="M253.13 129.719L255.76 131.249C255.76 131.249 255.79 131.269 255.81 131.279L253.18 129.749C253.18 129.749 253.15 129.729 253.13 129.719Z" fill="#252525"/>
<path d="M257.37 128.409L254.73 126.879L254.25 127.149L256.89 128.689L257.37 128.409Z" fill="#252525"/>
<path d="M257.36 127.728L254.73 126.188V126.878L257.37 128.408L257.36 127.728Z" fill="#252525"/>
<path d="M253.53 128.779C253.57 128.859 253.63 128.909 253.69 128.949L256.32 130.479C256.25 130.439 256.2 130.379 256.16 130.309C256.11 130.229 256.09 130.129 256.09 130.019C256.09 129.909 256.11 129.799 256.16 129.669L253.53 128.139C253.49 128.269 253.46 128.379 253.46 128.489C253.46 128.609 253.48 128.699 253.53 128.779Z" fill="#252525"/>
<path d="M256.89 128.689L254.26 127.159C254.16 127.219 254.06 127.299 253.96 127.409C253.86 127.519 253.78 127.629 253.7 127.759L256.33 129.289C256.4 129.169 256.49 129.049 256.59 128.939C256.69 128.829 256.79 128.749 256.89 128.689Z" fill="#252525"/>
<path d="M256.33 129.279L253.7 127.749C253.63 127.879 253.57 127.999 253.53 128.129L256.16 129.659C256.2 129.529 256.26 129.399 256.33 129.279Z" fill="#252525"/>
<path d="M258.31 126.428L255.68 124.898L254.93 125.328L257.56 126.858L258.31 126.428Z" fill="#252525"/>
<path d="M257.36 127.728L254.73 126.188L254.25 126.468L256.89 127.998L257.36 127.728Z" fill="#FFC74A"/>
<path d="M257.94 125.759L255.31 124.229C255.4 124.279 255.48 124.349 255.54 124.449C255.62 124.569 255.67 124.719 255.68 124.909L258.31 126.439C258.29 126.259 258.25 126.099 258.17 125.979C258.11 125.889 258.03 125.819 257.94 125.759Z" fill="#252525"/>
<path d="M257.36 126.529L254.73 124.999C254.73 124.999 254.82 125.059 254.85 125.109C254.89 125.169 254.92 125.239 254.93 125.329L257.56 126.859C257.55 126.769 257.52 126.699 257.48 126.639C257.45 126.589 257.41 126.559 257.36 126.529Z" fill="#FFC74A"/>
<path d="M257.36 126.529L254.73 124.999C254.73 124.999 254.71 124.989 254.69 124.979C254.63 124.949 254.56 124.949 254.49 124.949C254.42 124.949 254.34 124.989 254.27 125.029C254.18 125.079 254.1 125.149 254.01 125.239L256.64 126.769C256.72 126.679 256.81 126.609 256.9 126.559C256.97 126.519 257.05 126.489 257.12 126.479C257.19 126.479 257.26 126.479 257.32 126.509C257.33 126.509 257.35 126.519 257.36 126.529Z" fill="#252525"/>
<path d="M253.8 125.519L256.43 127.049C256.49 126.949 256.56 126.859 256.64 126.779L254.01 125.249C253.93 125.329 253.86 125.419 253.8 125.519Z" fill="#252525"/>
<path d="M256.89 127.999L254.26 126.469C254.18 126.509 254.09 126.539 254.01 126.549C253.93 126.549 253.86 126.549 253.79 126.519L256.42 128.049C256.48 128.079 256.56 128.089 256.64 128.079C256.72 128.079 256.8 128.049 256.89 127.999Z" fill="#FFC74A"/>
<path d="M253.64 126.379C253.67 126.429 253.72 126.479 253.77 126.509L256.4 128.039C256.35 128.009 256.3 127.969 256.27 127.909C256.23 127.849 256.21 127.779 256.21 127.689C256.21 127.599 256.23 127.499 256.26 127.389C256.3 127.279 256.35 127.169 256.41 127.069V127.049L253.79 125.519V125.539C253.72 125.639 253.67 125.749 253.63 125.859C253.59 125.969 253.57 126.069 253.58 126.159C253.59 126.249 253.6 126.319 253.64 126.379Z" fill="#252525"/>
<path d="M257.94 125.758L255.31 124.228C255.31 124.228 255.26 124.198 255.23 124.188C255.1 124.138 254.96 124.128 254.79 124.148C254.63 124.168 254.45 124.238 254.26 124.348L256.89 125.878C257.08 125.768 257.25 125.708 257.42 125.678C257.59 125.648 257.73 125.668 257.86 125.718C257.89 125.728 257.92 125.748 257.94 125.758Z" fill="#FFC74A"/>
<path d="M256.9 125.879L254.27 124.349C254.07 124.459 253.89 124.609 253.72 124.789C253.55 124.969 253.4 125.159 253.27 125.359L255.9 126.889C256.03 126.689 256.18 126.499 256.35 126.319C256.52 126.139 256.7 125.999 256.9 125.879Z" fill="#FFC74A"/>
<path d="M255.94 128.879L253.31 127.349C253.22 127.469 253.14 127.599 253.07 127.739C253 127.879 252.94 128.009 252.89 128.149L255.52 129.679C255.57 129.539 255.63 129.409 255.7 129.269C255.77 129.129 255.85 128.999 255.94 128.879Z" fill="#FFC74A"/>
<path d="M253.77 126.509L256.4 128.039H256.42L253.79 126.519H253.77V126.509Z" fill="#FFC74A"/>
<path d="M253.2 127.299L255.83 128.829C255.74 128.779 255.67 128.699 255.61 128.599C255.53 128.459 255.49 128.289 255.49 128.109C255.49 127.929 255.52 127.729 255.6 127.509C255.67 127.299 255.77 127.089 255.9 126.879L253.27 125.349C253.14 125.559 253.04 125.769 252.97 125.979C252.9 126.189 252.86 126.389 252.86 126.579C252.86 126.769 252.9 126.929 252.98 127.069C253.04 127.169 253.11 127.249 253.2 127.299Z" fill="#FFC74A"/>
<path d="M264.05 119.799L261.41 118.269L250.79 124.409L253.43 125.939L264.05 119.799Z" fill="#252525"/>
<path d="M261.37 120.439L258.74 118.909L258.51 119.039L261.14 120.569L261.37 120.439Z" fill="#3A3A3A"/>
<path d="M253.13 129.719L255.76 131.249C255.65 131.179 255.55 131.089 255.48 130.959C255.4 130.819 255.36 130.639 255.36 130.429C255.36 130.319 255.37 130.209 255.4 130.069C255.43 129.939 255.46 129.809 255.51 129.669L252.88 128.139C252.83 128.269 252.79 128.409 252.77 128.539C252.74 128.669 252.73 128.789 252.73 128.899C252.73 129.109 252.77 129.279 252.85 129.429C252.92 129.559 253.01 129.649 253.13 129.719Z" fill="#FFC74A"/>
<path d="M261.37 118.799L258.73 117.269L258.74 118.909L261.37 120.439V118.799Z" fill="#3A3A3A"/>
<path d="M261.14 119.829L258.5 118.299L258.51 119.039L261.14 120.569V119.829Z" fill="#EFEFEF"/>
<path d="M253.31 127.349C253.31 127.349 253.24 127.319 253.21 127.299L255.84 128.829C255.84 128.829 255.91 128.859 255.94 128.879C255.15 128.419 254.14 127.719 253.31 127.349Z" fill="#252525"/>
<path d="M260.51 120.199L257.87 118.669V119.409L260.51 120.939V120.199Z" fill="#3A3A3A"/>
<path d="M261.14 119.829L258.5 118.299L257.87 118.669L260.51 120.199L261.14 119.829Z" fill="#3A3A3A"/>
<path d="M261.14 119.619L258.5 118.089L257.87 118.449L260.51 119.979L261.14 119.619Z" fill="#EFEFEF"/>
<path d="M260.5 119.299L257.87 117.769V118.449L260.51 119.979L260.5 119.299Z" fill="#3A3A3A"/>
<path d="M260.27 119.439L257.64 117.909V119.539L260.27 121.069V119.439Z" fill="#EFEFEF"/>
<path d="M260.51 120.939L257.87 119.409L257.64 119.539L260.27 121.069L260.51 120.939Z" fill="#3A3A3A"/>
<path d="M261.13 118.939L258.5 117.409V118.089L261.14 119.619L261.13 118.939Z" fill="#EFEFEF"/>
<path d="M261.37 118.799L258.73 117.269L258.5 117.409L261.13 118.939L261.37 118.799Z" fill="#EFEFEF"/>
<path d="M257.25 119.539C257.19 119.649 257.12 119.749 257.04 119.839L259.67 121.369C259.75 121.279 259.82 121.179 259.88 121.069L257.25 119.539Z" fill="#3A3A3A"/>
<path d="M257.38 119.199C257.35 119.319 257.3 119.429 257.24 119.549L259.87 121.079C259.93 120.969 259.98 120.849 260.01 120.729L257.38 119.199Z" fill="#3A3A3A"/>
<path d="M257.04 119.849C256.96 119.939 256.87 120.009 256.78 120.069L259.41 121.599C259.51 121.539 259.59 121.469 259.67 121.379L257.04 119.849Z" fill="#3A3A3A"/>
<path d="M257.43 118.849C257.43 118.959 257.41 119.079 257.38 119.199L260.01 120.729C260.04 120.609 260.06 120.489 260.06 120.379L257.43 118.849Z" fill="#3A3A3A"/>
<path d="M256.77 120.068C256.67 120.128 256.58 120.158 256.5 120.158L259.13 121.688C259.21 121.688 259.3 121.658 259.4 121.598L256.77 120.068Z" fill="#3A3A3A"/>
<path d="M257.38 118.559C257.41 118.639 257.43 118.739 257.43 118.849L260.06 120.379C260.06 120.269 260.04 120.169 260.01 120.089L257.38 118.559Z" fill="#3A3A3A"/>
<path d="M259.72 121.018L257.09 119.488C257.05 119.568 257 119.638 256.95 119.698C256.9 119.758 256.84 119.808 256.78 119.848C256.72 119.888 256.66 119.898 256.61 119.898L259.24 121.428C259.29 121.428 259.35 121.408 259.41 121.378C259.47 121.348 259.53 121.288 259.58 121.228C259.63 121.168 259.68 121.098 259.72 121.018Z" fill="#EFEFEF"/>
<path d="M256.5 120.149C256.5 120.149 256.43 120.149 256.4 120.139L259.03 121.669C259.03 121.669 259.09 121.679 259.13 121.679L256.5 120.149Z" fill="#3A3A3A"/>
<path d="M260.5 119.299L257.87 117.769L257.64 117.909L260.27 119.439L260.5 119.299Z" fill="#EFEFEF"/>
<path d="M256.49 119.869L259.12 121.399C259.12 121.399 259.19 121.429 259.23 121.429L256.6 119.899C256.6 119.899 256.52 119.889 256.49 119.869Z" fill="#EFEFEF"/>
<path d="M256.4 120.138C256.4 120.138 256.35 120.118 256.32 120.108L258.95 121.638C258.95 121.638 259 121.668 259.03 121.668L256.4 120.138Z" fill="#3A3A3A"/>
<path d="M256.49 119.869L259.12 121.399C259.12 121.399 259.1 121.389 259.09 121.379L256.46 119.849C256.46 119.849 256.48 119.869 256.49 119.869Z" fill="#3A3A3A"/>
<path d="M257.25 118.369C257.31 118.409 257.36 118.479 257.39 118.559L260.02 120.089C259.99 120.009 259.94 119.949 259.88 119.899L257.25 118.369Z" fill="#3A3A3A"/>
<path d="M257.22 118.349L257.25 118.369L259.88 119.899L259.85 119.879L257.22 118.349Z" fill="#3A3A3A"/>
<path d="M259.69 120.119L257.06 118.589C257.06 118.589 257.08 118.599 257.09 118.609C257.13 118.639 257.16 118.689 257.18 118.749C257.2 118.809 257.21 118.889 257.22 118.979C257.23 119.069 257.21 119.159 257.19 119.249C257.17 119.339 257.14 119.419 257.1 119.499L259.73 121.029C259.77 120.949 259.8 120.869 259.82 120.779C259.84 120.689 259.85 120.599 259.85 120.509C259.85 120.419 259.84 120.349 259.81 120.279C259.79 120.219 259.76 120.169 259.72 120.139C259.72 120.139 259.7 120.129 259.69 120.119Z" fill="#EFEFEF"/>
<path d="M256.36 119.709C256.38 119.769 256.42 119.819 256.46 119.849L259.09 121.379C259.09 121.379 259.02 121.299 258.99 121.239L256.36 119.709Z" fill="#3A3A3A"/>
<path d="M259.69 120.119L257.06 118.589C257.06 118.589 256.99 118.559 256.95 118.559L259.58 120.089C259.58 120.089 259.66 120.089 259.69 120.119Z" fill="#3A3A3A"/>
<path d="M256.33 119.479C256.33 119.569 256.34 119.639 256.37 119.709L259 121.239C258.98 121.179 258.97 121.099 258.96 121.009L256.33 119.479Z" fill="#3A3A3A"/>
<path d="M256.36 119.219C256.34 119.309 256.33 119.399 256.33 119.489L258.96 121.019C258.96 120.929 258.97 120.839 258.99 120.749L256.36 119.219Z" fill="#3A3A3A"/>
<path d="M259.58 120.089L256.95 118.559C256.9 118.559 256.84 118.579 256.77 118.609C256.7 118.639 256.65 118.689 256.6 118.759L259.23 120.289C259.28 120.229 259.34 120.179 259.4 120.139C259.46 120.099 259.52 120.079 259.58 120.089Z" fill="#3A3A3A"/>
<path d="M259.23 120.289L256.6 118.759C256.55 118.819 256.5 118.889 256.46 118.969C256.42 119.049 256.39 119.129 256.37 119.219L259 120.749C259.02 120.659 259.06 120.579 259.09 120.499C259.12 120.419 259.18 120.349 259.23 120.289Z" fill="#3A3A3A"/>
<path d="M259.85 119.878L257.22 118.348C257.17 118.318 257.11 118.298 257.04 118.308C256.96 118.308 256.87 118.338 256.77 118.398C256.68 118.448 256.59 118.518 256.51 118.608C256.43 118.698 256.36 118.798 256.3 118.908C256.24 119.018 256.19 119.138 256.16 119.258L258.79 120.788C258.83 120.668 258.87 120.548 258.93 120.438C258.99 120.328 259.06 120.228 259.14 120.138C259.22 120.048 259.31 119.978 259.4 119.928C259.5 119.868 259.59 119.838 259.67 119.838C259.74 119.838 259.8 119.848 259.85 119.878Z" fill="#EFEFEF"/>
<path d="M258.48 120.468L255.85 118.938L255.93 120.528L258.56 122.058L258.48 120.468Z" fill="#3A3A3A"/>
<path d="M256.32 120.109L258.95 121.639C258.95 121.639 258.93 121.629 258.92 121.619C258.86 121.579 258.82 121.509 258.78 121.429C258.75 121.349 258.73 121.249 258.73 121.149C258.73 121.039 258.75 120.919 258.78 120.799L256.15 119.269C256.12 119.389 256.1 119.509 256.1 119.619C256.1 119.729 256.12 119.819 256.15 119.899C256.18 119.979 256.23 120.039 256.29 120.089C256.3 120.089 256.31 120.099 256.32 120.109Z" fill="#EFEFEF"/>
<path d="M258.3 121.159L255.66 119.619L255.69 120.669L258.33 122.199L258.3 121.159Z" fill="#EFEFEF"/>
<path d="M258.56 122.058L255.93 120.528L255.69 120.668L258.33 122.198L258.56 122.058Z" fill="#3A3A3A"/>
<path d="M259.72 121.019C259.76 120.939 259.79 120.859 259.81 120.769C259.83 120.679 259.84 120.589 259.84 120.499C259.84 120.409 259.83 120.339 259.8 120.269C259.78 120.209 259.75 120.159 259.71 120.129C259.67 120.099 259.62 120.079 259.57 120.079C259.52 120.079 259.46 120.099 259.39 120.129C259.32 120.159 259.27 120.209 259.22 120.279C259.17 120.339 259.12 120.409 259.08 120.489C259.04 120.569 259.01 120.649 258.99 120.739C258.97 120.829 258.96 120.919 258.96 121.009C258.96 121.099 258.97 121.169 259 121.239C259.02 121.299 259.06 121.349 259.1 121.379C259.14 121.409 259.19 121.429 259.24 121.429C259.29 121.429 259.35 121.409 259.41 121.379C259.47 121.349 259.53 121.289 259.58 121.229C259.63 121.169 259.68 121.099 259.72 121.019Z" fill="#3A3A3A"/>
<path d="M253.43 125.939L250.79 124.409L250.82 133.329L253.45 134.869L253.43 125.939Z" fill="#252525"/>
<path d="M249.54 130.559C249.54 130.689 249.5 130.829 249.42 130.979L252.05 132.509C252.13 132.369 252.17 132.229 252.17 132.089L249.54 130.559Z" fill="#3A3A3A"/>
<path d="M249.42 130.969C249.34 131.109 249.23 131.219 249.1 131.299L251.73 132.829C251.86 132.749 251.97 132.649 252.05 132.499L249.42 130.969Z" fill="#3A3A3A"/>
<path d="M249.09 131.299C249.09 131.299 249.06 131.319 249.05 131.319L251.68 132.849C251.68 132.849 251.71 132.829 251.72 132.829L249.09 131.299Z" fill="#3A3A3A"/>
<path d="M258.3 121.159L255.66 119.619L255.28 120.639L257.92 122.169L258.3 121.159Z" fill="#3A3A3A"/>
<path d="M249.42 130.278C249.5 130.328 249.54 130.418 249.54 130.548L252.17 132.078C252.17 131.948 252.13 131.848 252.05 131.808L249.42 130.278Z" fill="#3A3A3A"/>
<path d="M258.36 120.539L255.72 119.009L255.28 120.209L257.92 121.739L258.36 120.539Z" fill="#EFEFEF"/>
<path d="M257.53 121.598L254.9 120.068L255.28 120.638L257.92 122.168L257.53 121.598Z" fill="#EFEFEF"/>
<path d="M257.53 121.598L254.9 120.068L254.88 121.138L257.51 122.668L257.53 121.598Z" fill="#3A3A3A"/>
<path d="M257.47 121.049L254.84 119.519L255.28 120.209L257.92 121.739L257.47 121.049Z" fill="#3A3A3A"/>
<path d="M257.35 121.129L254.71 119.589L254.64 121.279L257.27 122.809L257.35 121.129Z" fill="#EFEFEF"/>
<path d="M257.51 122.669L254.88 121.139L254.64 121.279L257.27 122.809L257.51 122.669Z" fill="#3A3A3A"/>
<path d="M249.05 131.329C248.94 131.389 248.85 131.389 248.78 131.349L251.41 132.879C251.48 132.919 251.57 132.909 251.68 132.859L249.05 131.329Z" fill="#3A3A3A"/>
<path d="M258.48 120.468L255.85 118.938L255.72 119.008L258.36 120.538L258.48 120.468Z" fill="#EFEFEF"/>
<path d="M252.05 131.809L249.42 130.279C249.34 130.229 249.23 130.239 249.1 130.319L251.73 131.849C251.86 131.769 251.97 131.759 252.05 131.809Z" fill="#EFEFEF"/>
<path d="M251.73 131.849C251.59 131.929 251.49 132.039 251.41 132.179C251.33 132.319 251.29 132.459 251.29 132.599C251.29 132.739 251.33 132.829 251.41 132.879C251.49 132.929 251.6 132.919 251.73 132.839C251.86 132.759 251.97 132.659 252.05 132.509C252.13 132.359 252.17 132.229 252.17 132.089C252.17 131.949 252.13 131.859 252.04 131.809C251.96 131.759 251.85 131.779 251.72 131.849H251.73Z" fill="#EFEFEF"/>
<path d="M248.78 131.348L251.41 132.878C251.33 132.828 251.29 132.738 251.29 132.598C251.29 132.458 251.33 132.318 251.41 132.178C251.49 132.038 251.6 131.928 251.73 131.848L249.1 130.318C248.96 130.398 248.86 130.508 248.78 130.648C248.7 130.788 248.66 130.928 248.66 131.068C248.66 131.208 248.7 131.298 248.78 131.348Z" fill="#EFEFEF"/>
<path d="M256.1 123.268L253.46 121.738V121.948L256.1 123.488V123.268Z" fill="#EFEFEF"/>
<path d="M257.06 122.928L254.43 121.398L253.46 121.948L256.1 123.488L257.06 122.928Z" fill="#3A3A3A"/>
<path d="M257.05 121.289L254.42 119.759L254.43 121.399L257.06 122.929L257.05 121.289Z" fill="#3A3A3A"/>
<path d="M256.83 122.339L254.19 120.809V121.319L256.83 122.849V122.339Z" fill="#EFEFEF"/>
<path d="M257.47 121.049L254.84 119.519L254.71 119.589L257.35 121.129L257.47 121.049Z" fill="#EFEFEF"/>
<path d="M256.83 122.848L254.19 121.318L253.46 121.738L256.1 123.268L256.83 122.848Z" fill="#EFEFEF"/>
<path d="M249.53 128.159C249.53 128.289 249.49 128.429 249.41 128.569L252.04 130.099C252.12 129.959 252.16 129.819 252.16 129.689L249.53 128.159Z" fill="#3A3A3A"/>
<path d="M249.41 128.568C249.33 128.708 249.22 128.818 249.09 128.898L251.72 130.428C251.85 130.348 251.96 130.248 252.04 130.098L249.41 128.568Z" fill="#3A3A3A"/>
<path d="M256.82 121.649L254.19 120.119V120.599L256.82 122.129V121.649Z" fill="#EFEFEF"/>
<path d="M249.09 128.898C249.09 128.898 249.06 128.918 249.05 128.918L251.68 130.448C251.68 130.448 251.71 130.428 251.72 130.428L249.09 128.898Z" fill="#3A3A3A"/>
<path d="M256.83 122.339L254.19 120.809L253.52 121.199L256.15 122.739L256.83 122.339Z" fill="#3A3A3A"/>
<path d="M256.15 122.518L253.51 120.988L253.52 121.198L256.15 122.738V122.518Z" fill="#EFEFEF"/>
<path d="M256.82 122.129L254.19 120.599L253.51 120.989L256.15 122.519L256.82 122.129Z" fill="#EFEFEF"/>
<path d="M249.41 127.879C249.49 127.929 249.54 128.019 249.54 128.159L252.17 129.689C252.17 129.549 252.13 129.459 252.04 129.409L249.41 127.879Z" fill="#3A3A3A"/>
<path d="M249.04 128.929C248.93 128.989 248.84 128.989 248.77 128.949L251.4 130.479C251.47 130.519 251.56 130.509 251.67 130.459L249.04 128.929Z" fill="#3A3A3A"/>
<path d="M256.09 121.848L253.46 120.318V120.538L256.09 122.068V121.848Z" fill="#EFEFEF"/>
<path d="M256.82 121.648L254.19 120.108L253.46 120.538L256.09 122.068L256.82 121.648Z" fill="#3A3A3A"/>
<path d="M257.05 121.289L254.42 119.759L253.46 120.319L256.09 121.849L257.05 121.289Z" fill="#EFEFEF"/>
<path d="M248.77 128.948L251.4 130.478C251.32 130.428 251.28 130.338 251.28 130.198C251.28 130.058 251.32 129.918 251.4 129.778C251.48 129.638 251.59 129.528 251.72 129.448C251.85 129.368 251.96 129.358 252.04 129.408L249.41 127.878C249.33 127.828 249.22 127.848 249.09 127.918C248.96 127.988 248.85 128.108 248.77 128.248C248.69 128.388 248.65 128.528 248.65 128.668C248.65 128.808 248.69 128.888 248.77 128.938V128.948Z" fill="#EFEFEF"/>
<path d="M264.07 128.729L253.45 134.859L253.42 125.929L264.04 119.799L264.07 128.729Z" fill="#252525"/>
<path d="M250.11 136.789L247.48 135.259L236.86 141.399L239.49 142.929L250.11 136.789Z" fill="#3A3A3A"/>
<path d="M244.27 134.629C244.13 134.949 243.96 135.229 243.75 135.469L246.38 136.999C246.59 136.749 246.76 136.469 246.9 136.159L244.27 134.629Z" fill="#252525"/>
<path d="M243.75 135.469C243.54 135.719 243.31 135.919 243.05 136.069L245.68 137.599C245.94 137.449 246.18 137.249 246.38 136.999L243.75 135.469Z" fill="#252525"/>
<path d="M258.99 114.428L256.36 112.898L256.37 117.158L259.01 118.688L258.99 114.428Z" fill="#3A3A3A"/>
<path d="M243.05 136.068C242.79 136.218 242.56 136.288 242.35 136.278L244.98 137.808C245.19 137.808 245.42 137.748 245.68 137.598L243.05 136.068Z" fill="#252525"/>
<path d="M242.35 136.279C242.22 136.279 242.1 136.239 241.99 136.179L244.62 137.709C244.73 137.769 244.84 137.799 244.98 137.809L243.66 137.039L242.81 136.549L242.49 136.369C242.49 136.369 242.39 136.299 242.34 136.279H242.35Z" fill="#252525"/>
<path d="M246.72 132.239L244.09 130.709C244.15 130.749 244.21 130.789 244.26 130.849C244.41 130.999 244.52 131.209 244.59 131.489C244.67 131.769 244.71 132.099 244.71 132.479C244.71 132.859 244.67 133.239 244.6 133.599C244.53 133.959 244.41 134.299 244.27 134.619L246.9 136.149C247.04 135.839 247.15 135.499 247.23 135.129C247.3 134.759 247.34 134.389 247.34 134.009C247.34 133.629 247.3 133.299 247.22 133.019C247.14 132.739 247.03 132.529 246.89 132.379C246.84 132.319 246.78 132.279 246.72 132.239Z" fill="#252525"/>
<path d="M246.18 133.018L243.55 131.488C243.61 131.528 243.67 131.578 243.72 131.638C243.82 131.758 243.89 131.918 243.96 132.118C244.03 132.318 244.05 132.578 244.05 132.868C244.05 133.158 244.02 133.448 243.96 133.718C243.9 133.988 243.82 134.248 243.73 134.468C243.63 134.698 243.53 134.888 243.41 135.048C243.29 135.208 243.17 135.318 243.05 135.388C242.93 135.458 242.81 135.478 242.69 135.458C242.64 135.448 242.59 135.428 242.54 135.398L245.17 136.928C245.17 136.928 245.27 136.978 245.32 136.988C245.44 137.008 245.56 136.988 245.68 136.918C245.8 136.848 245.92 136.738 246.04 136.578C246.16 136.418 246.27 136.228 246.36 135.998C246.45 135.768 246.53 135.518 246.59 135.248C246.65 134.978 246.68 134.688 246.68 134.398C246.68 134.108 246.65 133.848 246.59 133.648C246.53 133.448 246.45 133.278 246.35 133.168C246.3 133.108 246.24 133.058 246.18 133.018Z" fill="#FFC74A"/>
<path d="M242.44 135.329C242.44 135.329 242.51 135.389 242.54 135.409L245.17 136.939C245.17 136.939 245.1 136.889 245.07 136.859L242.44 135.329Z" fill="#252525"/>
<path d="M250.09 127.859L247.45 126.329L247.48 135.259L250.11 136.789L250.09 127.859Z" fill="#3A3A3A"/>
<path d="M243.54 131.489C243.54 131.489 243.44 131.439 243.39 131.429L246.02 132.959C246.07 132.959 246.12 132.989 246.17 133.019C245.38 132.559 244.33 131.949 243.54 131.489Z" fill="#252525"/>
<path d="M243.39 131.429C243.27 131.409 243.15 131.429 243.03 131.499L245.66 133.029C245.78 132.959 245.9 132.939 246.02 132.959L244.7 132.189L244.18 131.889L243.69 131.599C243.6 131.549 243.48 131.459 243.38 131.419L243.39 131.429Z" fill="#252525"/>
<path d="M243.04 131.499C242.92 131.569 242.8 131.679 242.68 131.839L245.31 133.369C245.43 133.209 245.55 133.099 245.67 133.029L243.04 131.499Z" fill="#252525"/>
<path d="M242.68 131.839C242.56 131.999 242.46 132.189 242.36 132.419L244.99 133.949C245.09 133.729 245.19 133.529 245.31 133.369L242.68 131.839Z" fill="#252525"/>
<path d="M242.13 133.169C242.07 133.449 242.04 133.729 242.04 134.019L244.67 135.549C244.67 135.259 244.7 134.969 244.76 134.699L242.13 133.169Z" fill="#252525"/>
<path d="M242.36 132.419C242.26 132.649 242.19 132.899 242.13 133.169L244.76 134.699C244.82 134.429 244.9 134.169 244.99 133.949L242.36 132.419Z" fill="#252525"/>
<path d="M244.44 133.799L241.81 132.269C241.67 132.589 241.56 132.929 241.49 133.289L244.12 134.819C244.2 134.449 244.3 134.109 244.44 133.799Z" fill="#FFC74A"/>
<path d="M246.72 132.238L244.09 130.708C243.99 130.648 243.87 130.618 243.74 130.608C243.53 130.608 243.3 130.668 243.04 130.818C242.78 130.968 242.55 131.168 242.34 131.418C242.13 131.668 241.96 131.948 241.81 132.258L244.44 133.788C244.58 133.478 244.76 133.198 244.97 132.948C245.18 132.698 245.41 132.498 245.67 132.348C245.93 132.198 246.17 132.128 246.37 132.138C246.5 132.138 246.62 132.178 246.72 132.238Z" fill="#FFC74A"/>
<path d="M242.04 134.028C242.04 134.318 242.07 134.568 242.13 134.778L244.76 136.308C244.7 136.098 244.67 135.848 244.67 135.558L242.04 134.028Z" fill="#252525"/>
<path d="M242.37 135.259C242.37 135.259 242.42 135.309 242.44 135.329L245.07 136.859C245.07 136.859 245.02 136.809 245 136.789L242.37 135.259Z" fill="#252525"/>
<path d="M242.13 134.778C242.19 134.988 242.27 135.148 242.37 135.258L245 136.788C244.9 136.678 244.82 136.508 244.76 136.308L242.13 134.778Z" fill="#252525"/>
<path d="M241.99 136.179L244.62 137.709C244.56 137.669 244.5 137.629 244.45 137.569C244.31 137.419 244.2 137.209 244.12 136.929C244.04 136.649 244 136.319 244 135.939C244 135.559 244.04 135.179 244.11 134.819L241.48 133.289C241.41 133.649 241.37 134.029 241.37 134.409C241.37 134.789 241.41 135.119 241.49 135.399C241.57 135.679 241.68 135.889 241.82 136.039C241.87 136.099 241.93 136.139 241.99 136.179Z" fill="#FFC74A"/>
<path d="M243.68 134.209L241.04 132.679L240.61 132.929L243.25 134.459L243.68 134.209Z" fill="#252525"/>
<path d="M243.25 134.459L240.61 132.929L240.63 137.409L243.26 138.939L243.25 134.459Z" fill="#252525"/>
<path d="M243.68 133.539L241.04 132.009V132.679L243.68 134.209V133.539Z" fill="#252525"/>
<path d="M243.26 138.939L240.63 137.409L239.91 137.819L242.54 139.349L243.26 138.939Z" fill="#252525"/>
<path d="M242.53 134.199L239.9 132.669L239.91 137.819L242.54 139.349L242.53 134.199Z" fill="#FFC74A"/>
<path d="M243.68 133.539L241.04 132.009L239.9 132.669L242.53 134.199L243.68 133.539Z" fill="#FFC74A"/>
<path d="M250.09 127.859L247.45 126.329L236.83 132.469L239.46 133.999L250.09 127.859Z" fill="#252525"/>
<path d="M247.41 128.499L244.78 126.969L244.54 127.099L247.18 128.629L247.41 128.499Z" fill="#3A3A3A"/>
<path d="M247.41 126.859L244.77 125.329L244.78 126.969L247.41 128.499V126.859Z" fill="#3A3A3A"/>
<path d="M247.18 127.888L244.54 126.358V127.098L247.18 128.628V127.888Z" fill="#EFEFEF"/>
<path d="M247.18 127.888L244.54 126.358L243.91 126.728L246.54 128.258L247.18 127.888Z" fill="#3A3A3A"/>
<path d="M247.17 126.999L244.54 125.469V126.149L247.17 127.679V126.999Z" fill="#EFEFEF"/>
<path d="M247.41 126.859L244.77 125.329L244.54 125.469L247.17 126.999L247.41 126.859Z" fill="#EFEFEF"/>
<path d="M247.17 127.678L244.54 126.148L243.91 126.508L246.54 128.038L247.17 127.678Z" fill="#EFEFEF"/>
<path d="M246.54 127.359L243.91 125.829V126.509L246.54 128.039V127.359Z" fill="#3A3A3A"/>
<path d="M246.54 128.259L243.91 126.729V127.469L246.55 128.999L246.54 128.259Z" fill="#3A3A3A"/>
<path d="M246.31 127.499L243.67 125.969L243.68 127.599L246.31 129.129V127.499Z" fill="#EFEFEF"/>
<path d="M246.54 127.359L243.91 125.829L243.67 125.969L246.31 127.499L246.54 127.359Z" fill="#EFEFEF"/>
<path d="M259.01 118.689L256.37 117.159L241.88 125.519L244.51 127.049L259.01 118.689Z" fill="#3A3A3A"/>
<path d="M255.2 119.689L252.56 118.159L252.28 118.329L254.91 119.859L255.2 119.689Z" fill="#252525"/>
<path d="M255.36 117.808L252.73 116.278L252.56 116.378L255.19 117.908L255.36 117.808Z" fill="#252525"/>
<path d="M255.19 117.909L252.56 116.379V118.159L255.2 119.689L255.19 117.909Z" fill="#252525"/>
<path d="M254.22 119.539L251.59 118.009V118.279L254.22 119.819V119.539Z" fill="#252525"/>
<path d="M255.36 117.539L252.73 116.009V116.279L255.36 117.809V117.539Z" fill="#252525"/>
<path d="M253.47 120.689L250.84 119.159L250.55 119.319L253.18 120.849L253.47 120.689Z" fill="#252525"/>
<path d="M254.9 117.808L252.27 116.278L252.28 118.328L254.91 119.858L254.9 117.808Z" fill="#FFC74A"/>
<path d="M254.9 117.809L254.91 119.859L255.2 119.689L255.19 117.909L255.36 117.809V117.539L254.9 117.809Z" fill="#FFC74A"/>
<path d="M255.36 117.539L252.73 116.009L252.27 116.279L254.9 117.809L255.36 117.539Z" fill="#FFC74A"/>
<path d="M253.47 120.249L250.84 118.719V119.159L253.47 120.689V120.249Z" fill="#252525"/>
<path d="M254.22 119.818L251.59 118.278L250.84 118.718L253.47 120.248L254.22 119.818Z" fill="#252525"/>
<path d="M253.89 119.729L251.25 118.199L250.84 118.439L253.47 119.969L253.89 119.729Z" fill="#FFC74A"/>
<path d="M253.18 120.419L250.55 118.889V119.319L253.18 120.849V120.419Z" fill="#FFC74A"/>
<path d="M253.18 120.419L250.55 118.889L250.31 119.019L252.94 120.549L253.18 120.419Z" fill="#252525"/>
<path d="M252.94 120.279L250.3 118.749L250.31 119.019L252.94 120.549V120.279Z" fill="#FFC74A"/>
<path d="M253.18 120.138L250.54 118.608L250.3 118.748L252.94 120.278L253.18 120.138Z" fill="#FFC74A"/>
<path d="M244.99 133.949C244.89 134.179 244.82 134.429 244.76 134.699C244.7 134.979 244.67 135.259 244.67 135.549C244.67 135.839 244.7 136.089 244.76 136.299C244.82 136.509 244.9 136.669 245 136.779C245.1 136.889 245.2 136.959 245.32 136.989C245.44 137.009 245.56 136.989 245.68 136.919C245.8 136.849 245.92 136.739 246.04 136.579C246.16 136.419 246.27 136.229 246.36 135.999C246.45 135.769 246.53 135.519 246.59 135.249C246.65 134.979 246.68 134.689 246.68 134.399C246.68 134.109 246.65 133.849 246.59 133.649C246.53 133.449 246.45 133.279 246.35 133.169C246.25 133.059 246.15 132.989 246.03 132.959C245.91 132.939 245.79 132.959 245.67 133.029C245.55 133.099 245.43 133.209 245.31 133.369C245.19 133.529 245.09 133.719 244.99 133.949Z" fill="#252525"/>
<path d="M253.47 119.289L250.83 117.759L251.25 118.199L253.89 119.729L253.47 119.289Z" fill="#FFC74A"/>
<path d="M253.47 119.289L250.83 117.759L250.84 118.439L253.47 119.969V119.289Z" fill="#252525"/>
<path d="M253.47 119.969L253.89 119.729L253.47 119.289V119.969Z" fill="#252525"/>
<path d="M249.64 119.459C249.64 119.509 249.62 119.559 249.59 119.619L252.22 121.149C252.25 121.099 252.27 121.039 252.27 120.989L249.64 119.459Z" fill="#252525"/>
<path d="M249.59 119.619C249.56 119.669 249.52 119.719 249.47 119.749L252.1 121.279C252.15 121.249 252.19 121.209 252.22 121.149L249.59 119.619Z" fill="#252525"/>
<path d="M249.47 119.738H249.45C250.33 120.258 251.21 120.768 252.08 121.278H252.1L249.47 119.738Z" fill="#252525"/>
<path d="M249.59 119.349C249.59 119.349 249.64 119.399 249.64 119.459L252.27 120.989C252.27 120.939 252.25 120.899 252.22 120.879L249.59 119.349Z" fill="#252525"/>
<path d="M249.45 119.749C249.45 119.749 249.37 119.769 249.35 119.749L251.98 121.279C251.98 121.279 252.04 121.289 252.08 121.279C251.2 120.769 250.32 120.259 249.45 119.749Z" fill="#252525"/>
<path d="M251.98 121.018L249.35 119.488C249.32 119.538 249.3 119.598 249.3 119.648C249.3 119.698 249.32 119.738 249.35 119.748L251.98 121.278C251.98 121.278 251.93 121.228 251.93 121.178C251.93 121.128 251.95 121.068 251.98 121.018Z" fill="#FFC74A"/>
<path d="M249.35 119.759L251.99 121.289H251.98L249.35 119.759Z" fill="#FFC74A"/>
<path d="M252.23 120.878L249.6 119.348C249.6 119.348 249.53 119.338 249.48 119.368L252.11 120.898C252.16 120.868 252.2 120.868 252.23 120.878Z" fill="#FFC74A"/>
<path d="M253.37 118.689L250.74 117.159L251.59 118.009L254.22 119.539L253.37 118.689Z" fill="#252525"/>
<path d="M252.1 120.899L249.47 119.369C249.42 119.399 249.38 119.439 249.35 119.499L251.98 121.029C252.01 120.979 252.05 120.929 252.1 120.899Z" fill="#FFC74A"/>
<path d="M253.37 118.689L250.74 117.159L250.54 117.279L253.17 118.809L253.37 118.689Z" fill="#FFC74A"/>
<path d="M253.17 118.808L250.54 117.278V118.608L253.18 120.138L253.17 118.808Z" fill="#FFC74A"/>
<path d="M249.64 118.539C249.64 118.589 249.62 118.639 249.59 118.699L252.22 120.229C252.25 120.179 252.27 120.119 252.27 120.069L249.64 118.539Z" fill="#252525"/>
<path d="M249.59 118.699C249.56 118.749 249.52 118.799 249.47 118.829L252.1 120.359C252.15 120.329 252.19 120.289 252.22 120.229L249.59 118.699Z" fill="#252525"/>
<path d="M249.47 118.829H249.45L252.08 120.369H252.1L249.47 118.829Z" fill="#252525"/>
<path d="M249.59 118.429C249.59 118.429 249.64 118.479 249.64 118.539L252.27 120.069C252.27 120.019 252.25 119.979 252.22 119.959L249.59 118.429Z" fill="#252525"/>
<path d="M249.45 118.839C249.45 118.839 249.37 118.859 249.35 118.839L251.98 120.369C251.98 120.369 252.04 120.379 252.08 120.369L249.45 118.839Z" fill="#252525"/>
<path d="M251.98 120.109L249.35 118.579C249.32 118.629 249.3 118.689 249.3 118.739C249.3 118.789 249.32 118.829 249.35 118.839L251.98 120.369C251.98 120.369 251.93 120.319 251.93 120.269C251.93 120.219 251.95 120.159 251.98 120.109Z" fill="#FFC74A"/>
<path d="M249.35 118.839L251.98 120.369L249.35 118.839Z" fill="#FFC74A"/>
<path d="M251.18 121.518L248.55 119.988C248.6 120.048 248.63 120.118 248.64 120.188C248.65 120.258 248.66 120.338 248.66 120.418L251.29 121.948C251.29 121.868 251.29 121.798 251.27 121.718C251.26 121.648 251.23 121.578 251.18 121.518Z" fill="#252525"/>
<path d="M252.22 119.969L249.59 118.439C249.59 118.439 249.52 118.429 249.47 118.459C249.42 118.489 249.38 118.529 249.35 118.589L251.98 120.119C252.01 120.069 252.05 120.019 252.1 119.989C252.15 119.959 252.19 119.959 252.22 119.969Z" fill="#FFC74A"/>
<path d="M251.04 121.399L248.41 119.869C248.47 119.899 248.51 119.939 248.55 119.989L251.18 121.519C251.18 121.519 251.1 121.429 251.04 121.399Z" fill="#252525"/>
<path d="M250.1 122.369L247.47 120.839V121.099L250.1 122.629V122.369Z" fill="#FFC74A"/>
<path d="M251.29 121.949L248.66 120.419L247.47 121.099L250.1 122.629L251.29 121.949Z" fill="#252525"/>
<path d="M250.78 121.689L248.15 120.159C248.15 120.159 248.17 120.169 248.18 120.179C248.25 120.229 248.28 120.299 248.28 120.369L250.91 121.899C250.91 121.829 250.88 121.769 250.81 121.709C250.81 121.709 250.79 121.689 250.78 121.689Z" fill="#FFC74A"/>
<path d="M246.55 128.999L243.91 127.469L243.68 127.599L246.31 129.129L246.55 128.999Z" fill="#3A3A3A"/>
<path d="M250.91 121.899L248.28 120.369L247.47 120.839L250.1 122.369L250.91 121.899Z" fill="#FFC74A"/>
<path d="M251.04 121.399L248.41 119.869C248.41 119.869 248.37 119.849 248.35 119.839C248.26 119.799 248.15 119.779 248.01 119.769L250.64 121.299C250.78 121.299 250.9 121.329 250.98 121.369C251 121.369 251.02 121.389 251.04 121.399Z" fill="#FFC74A"/>
<path d="M251.28 120.539L248.64 119.009L248.34 119.189L250.98 120.719L251.28 120.539Z" fill="#252525"/>
<path d="M250.95 120.589L248.32 119.059C248.32 119.059 248.34 119.139 248.34 119.189L250.97 120.719C250.97 120.669 250.97 120.619 250.95 120.589Z" fill="#FFC74A"/>
<path d="M247.89 119.729L250.52 121.259C250.52 121.259 250.59 121.289 250.64 121.299L248.01 119.769C248.01 119.769 247.92 119.749 247.89 119.729Z" fill="#FFC74A"/>
<path d="M251.11 120.189L248.48 118.659C248.53 118.689 248.57 118.739 248.6 118.799C248.63 118.859 248.65 118.929 248.65 119.019L251.28 120.549C251.28 120.469 251.26 120.389 251.23 120.329C251.2 120.269 251.16 120.219 251.11 120.189Z" fill="#252525"/>
<path d="M251.11 120.189L248.47 118.659L251.1 120.189H251.11Z" fill="#FFC74A"/>
<path d="M247.83 120.078C247.76 120.078 247.71 120.058 247.66 120.028L250.29 121.558C250.29 121.558 250.39 121.598 250.46 121.608C250.6 121.608 250.7 121.638 250.77 121.678L248.14 120.148C248.07 120.108 247.97 120.088 247.83 120.078Z" fill="#252525"/>
<path d="M248.46 118.659L251.09 120.199L248.46 118.659Z" fill="#252525"/>
<path d="M250.9 120.499L248.27 118.969C248.27 118.969 248.32 119.009 248.33 119.049L250.96 120.579C250.96 120.579 250.93 120.519 250.9 120.499Z" fill="#FFC74A"/>
<path d="M250.88 120.499L248.25 118.969H248.26L250.89 120.509H250.88V120.499Z" fill="#FFC74A"/>
<path d="M250.88 120.499L248.25 118.969C248.25 118.969 248.2 118.949 248.17 118.949L250.8 120.479C250.8 120.479 250.85 120.479 250.88 120.499Z" fill="#252525"/>
<path d="M247.89 119.728L250.52 121.258C250.52 121.258 250.48 121.228 250.46 121.208C250.42 121.158 250.41 121.108 250.41 121.038C250.41 120.988 250.41 120.938 250.43 120.888L247.8 119.358C247.79 119.408 247.78 119.458 247.78 119.508C247.78 119.578 247.8 119.638 247.83 119.678C247.85 119.698 247.86 119.708 247.89 119.728Z" fill="#252525"/>
<path d="M246.67 121.289C246.61 121.419 246.55 121.529 246.46 121.629L249.09 123.159C249.17 123.059 249.24 122.949 249.3 122.819L246.67 121.289Z" fill="#252525"/>
<path d="M247.86 119.209C247.86 119.209 247.82 119.309 247.8 119.359L250.43 120.889C250.44 120.839 250.46 120.789 250.49 120.739L247.86 119.209Z" fill="#252525"/>
<path d="M250.81 120.479L248.18 118.949C248.18 118.949 248.11 118.959 248.07 118.989C248.03 119.019 247.99 119.039 247.96 119.079C247.93 119.119 247.9 119.159 247.87 119.209L250.5 120.739C250.5 120.739 250.56 120.649 250.59 120.609C250.62 120.569 250.66 120.539 250.7 120.519C250.74 120.499 250.78 120.479 250.81 120.479Z" fill="#252525"/>
<path d="M251.1 120.189L248.47 118.659C248.42 118.629 248.36 118.619 248.3 118.619C248.23 118.619 248.16 118.649 248.08 118.689L250.71 120.219C250.79 120.169 250.87 120.149 250.93 120.149C251 120.149 251.05 120.149 251.1 120.189Z" fill="#FFC74A"/>
<path d="M246.47 121.629C246.39 121.729 246.3 121.809 246.19 121.869L248.82 123.399C248.92 123.339 249.02 123.259 249.1 123.159L246.47 121.629Z" fill="#252525"/>
<path d="M247.67 120.038L250.3 121.568C250.3 121.568 250.24 121.528 250.22 121.498C250.16 121.428 250.14 121.328 250.14 121.188C250.14 121.108 250.15 121.018 250.18 120.928C250.21 120.838 250.24 120.748 250.29 120.658C250.34 120.568 250.4 120.488 250.47 120.408C250.54 120.328 250.62 120.268 250.7 120.218L248.07 118.688C247.99 118.738 247.91 118.798 247.84 118.878C247.77 118.958 247.71 119.038 247.66 119.128C247.61 119.218 247.57 119.308 247.55 119.398C247.52 119.488 247.51 119.578 247.51 119.658C247.51 119.788 247.54 119.888 247.59 119.968C247.61 119.998 247.64 120.018 247.67 120.038Z" fill="#FFC74A"/>
<path d="M246.19 121.869C246.09 121.929 245.99 121.959 245.91 121.959L248.54 123.489C248.62 123.489 248.72 123.459 248.82 123.399L246.19 121.869Z" fill="#252525"/>
<path d="M245.91 121.949C245.86 121.949 245.81 121.929 245.77 121.909L248.4 123.439C248.4 123.439 248.49 123.479 248.54 123.479L247.22 122.709L247.05 122.609L246.06 122.029C246.06 122.029 245.96 121.959 245.91 121.939V121.949Z" fill="#252525"/>
<path d="M249.23 121.259L246.6 119.729C246.6 119.729 246.65 119.759 246.67 119.789C246.73 119.849 246.77 119.939 246.8 120.049C246.83 120.159 246.85 120.289 246.85 120.439C246.85 120.589 246.83 120.739 246.8 120.889C246.77 121.029 246.73 121.169 246.67 121.289L249.3 122.819C249.36 122.699 249.4 122.559 249.43 122.419C249.46 122.269 249.48 122.129 249.48 121.969C249.48 121.809 249.46 121.689 249.43 121.579C249.4 121.469 249.36 121.379 249.3 121.319C249.28 121.299 249.26 121.279 249.23 121.259Z" fill="#252525"/>
<path d="M249.02 121.569L246.39 120.039C246.39 120.039 246.44 120.069 246.46 120.099C246.5 120.139 246.53 120.209 246.55 120.289C246.57 120.369 246.59 120.469 246.59 120.589C246.59 120.709 246.58 120.819 246.56 120.929C246.54 121.039 246.51 121.139 246.47 121.229C246.43 121.319 246.39 121.399 246.34 121.459C246.29 121.519 246.25 121.569 246.2 121.599C246.15 121.629 246.1 121.639 246.06 121.629C246.04 121.629 246.02 121.619 246 121.609L248.63 123.139C248.63 123.139 248.67 123.159 248.69 123.159C248.74 123.159 248.78 123.159 248.83 123.129C248.88 123.099 248.92 123.059 248.97 122.989C249.02 122.929 249.06 122.849 249.1 122.759C249.14 122.669 249.17 122.569 249.19 122.459C249.21 122.349 249.23 122.239 249.22 122.119C249.21 121.999 249.21 121.899 249.18 121.819C249.16 121.739 249.13 121.669 249.09 121.629C249.07 121.599 249.05 121.579 249.02 121.569Z" fill="#FFC74A"/>
<path d="M245.94 121.568C245.94 121.568 245.97 121.588 245.98 121.598L248.61 123.128C248.61 123.128 248.58 123.108 248.57 123.098L245.94 121.568Z" fill="#252525"/>
<path d="M245.92 121.539C245.92 121.539 245.94 121.559 245.95 121.569L248.58 123.099C248.58 123.099 248.56 123.079 248.55 123.069L245.92 121.539Z" fill="#252525"/>
<path d="M245.82 121.349C245.84 121.429 245.87 121.499 245.91 121.539L248.54 123.069C248.54 123.069 248.47 122.959 248.45 122.879L245.82 121.349Z" fill="#252525"/>
<path d="M245.79 121.049C245.79 121.169 245.8 121.269 245.83 121.349L248.46 122.879C248.44 122.799 248.42 122.699 248.42 122.579L245.79 121.049Z" fill="#252525"/>
<path d="M246.38 120.039C246.38 120.039 246.34 120.019 246.32 120.019L248.95 121.549C248.95 121.549 248.99 121.559 249.01 121.569C248.22 121.109 247.17 120.499 246.38 120.039Z" fill="#252525"/>
<path d="M245.82 120.709C245.8 120.819 245.78 120.929 245.79 121.049L248.42 122.579C248.42 122.459 248.43 122.349 248.45 122.239L245.82 120.709Z" fill="#252525"/>
<path d="M246.32 120.019C246.32 120.019 246.23 120.019 246.18 120.049L248.81 121.579C248.81 121.579 248.9 121.539 248.95 121.549L247.63 120.779L246.95 120.379L246.47 120.099C246.47 120.099 246.37 120.029 246.32 120.009V120.019Z" fill="#252525"/>
<path d="M245.91 120.409C245.87 120.499 245.84 120.599 245.82 120.709L248.45 122.239C248.47 122.129 248.5 122.029 248.54 121.939L245.91 120.409Z" fill="#252525"/>
<path d="M246.18 120.049C246.18 120.049 246.08 120.119 246.04 120.189L248.67 121.719C248.72 121.659 248.76 121.609 248.81 121.579L246.18 120.049Z" fill="#252525"/>
<path d="M246.04 120.179C245.99 120.239 245.95 120.319 245.91 120.409L248.54 121.939C248.58 121.849 248.62 121.769 248.67 121.709L246.04 120.179Z" fill="#252525"/>
<path d="M245.77 121.909L248.4 123.439C248.4 123.439 248.35 123.409 248.33 123.389C248.27 123.329 248.23 123.249 248.2 123.139C248.17 123.029 248.15 122.899 248.15 122.739C248.15 122.579 248.17 122.439 248.2 122.289L245.57 120.759C245.54 120.909 245.52 121.049 245.52 121.209C245.52 121.369 245.54 121.489 245.57 121.609C245.6 121.719 245.64 121.809 245.7 121.859C245.72 121.879 245.74 121.899 245.77 121.909Z" fill="#FFC74A"/>
<path d="M248.33 121.879L245.7 120.349C245.64 120.479 245.6 120.609 245.57 120.759L248.2 122.289C248.23 122.139 248.27 122.009 248.33 121.879Z" fill="#FFC74A"/>
<path d="M249.23 121.258L246.6 119.728C246.6 119.728 246.51 119.688 246.46 119.688C246.38 119.688 246.28 119.708 246.18 119.778C246.08 119.848 245.98 119.918 245.9 120.018C245.82 120.118 245.75 120.228 245.69 120.348L248.32 121.878C248.38 121.748 248.45 121.638 248.53 121.548C248.61 121.448 248.71 121.368 248.81 121.308C248.91 121.248 249.01 121.218 249.09 121.218C249.14 121.218 249.19 121.228 249.23 121.258Z" fill="#FFC74A"/>
<path d="M258.99 114.428L256.36 112.898L241.87 121.268L244.5 122.798L258.99 114.428Z" fill="#252525"/>
<path d="M253.41 115.229L250.77 113.699L250.78 115.109L253.41 116.649V115.229Z" fill="#3A3A3A"/>
<path d="M253.18 115.359L250.54 113.829L250.55 115.249L253.18 116.779V115.359Z" fill="#EFEFEF"/>
<path d="M253.41 116.648L250.78 115.108L250.55 115.248L253.18 116.778L253.41 116.648Z" fill="#3A3A3A"/>
<path d="M243.28 127.599C243.22 127.709 243.15 127.809 243.07 127.899L245.7 129.429C245.78 129.339 245.85 129.239 245.91 129.129L243.28 127.599Z" fill="#3A3A3A"/>
<path d="M243.07 127.909C242.99 127.999 242.9 128.079 242.81 128.129L245.44 129.659C245.54 129.599 245.62 129.529 245.7 129.439L243.07 127.909Z" fill="#3A3A3A"/>
<path d="M245.76 129.079L243.13 127.549C243.09 127.629 243.05 127.699 242.99 127.759L245.62 129.289C245.67 129.229 245.72 129.159 245.76 129.079Z" fill="#EFEFEF"/>
<path d="M245.92 127.959L243.29 126.429C243.35 126.469 243.4 126.539 243.43 126.619C243.46 126.699 243.48 126.799 243.48 126.909C243.48 127.019 243.46 127.139 243.43 127.259C243.4 127.379 243.35 127.489 243.29 127.609L245.92 129.139C245.98 129.029 246.03 128.909 246.06 128.789C246.09 128.669 246.11 128.549 246.11 128.439C246.11 128.329 246.09 128.229 246.06 128.149C246.03 128.069 245.98 128.009 245.92 127.959Z" fill="#3A3A3A"/>
<path d="M245.85 128.829L243.22 127.299C243.2 127.389 243.17 127.469 243.13 127.549L245.76 129.079C245.8 128.999 245.83 128.919 245.85 128.829Z" fill="#EFEFEF"/>
<path d="M242.81 128.129C242.71 128.189 242.62 128.219 242.54 128.219L245.17 129.749C245.25 129.749 245.34 129.719 245.44 129.659L242.81 128.129Z" fill="#3A3A3A"/>
<path d="M245.62 129.289L242.99 127.759C242.94 127.819 242.88 127.869 242.82 127.909C242.76 127.949 242.7 127.959 242.65 127.959L245.28 129.489C245.33 129.489 245.39 129.469 245.45 129.439C245.51 129.409 245.57 129.359 245.62 129.289Z" fill="#EFEFEF"/>
<path d="M253.82 114.779L251.18 113.249V113.459L253.82 114.989V114.779Z" fill="#3A3A3A"/>
<path d="M253.18 115.359L250.54 113.829L250.14 114.069L252.77 115.599L253.18 115.359Z" fill="#3A3A3A"/>
<path d="M252.77 115.379L250.14 113.849V114.069L252.77 115.599V115.379Z" fill="#EFEFEF"/>
<path d="M252.6 115.479L249.97 113.949V115.579L252.61 117.109L252.6 115.479Z" fill="#3A3A3A"/>
<path d="M252.37 115.609L249.73 114.079L249.74 115.719L252.37 117.249V115.609Z" fill="#EFEFEF"/>
<path d="M252.61 117.109L249.97 115.579L249.74 115.719L252.37 117.249L252.61 117.109Z" fill="#3A3A3A"/>
<path d="M242.53 127.929L245.16 129.459C245.16 129.459 245.23 129.489 245.27 129.489L242.64 127.959C242.64 127.959 242.56 127.949 242.53 127.929Z" fill="#EFEFEF"/>
<path d="M253.82 114.989L251.18 113.459L250.77 113.699L253.41 115.229L253.82 114.989Z" fill="#3A3A3A"/>
<path d="M242.54 128.209C242.47 128.209 242.41 128.189 242.36 128.159L244.99 129.689C245.04 129.719 245.1 129.739 245.17 129.739L242.54 128.209Z" fill="#3A3A3A"/>
<path d="M242.53 127.929L245.16 129.459C245.16 129.459 245.14 129.449 245.13 129.439L242.5 127.909C242.5 127.909 242.52 127.929 242.53 127.929Z" fill="#3A3A3A"/>
<path d="M243.26 126.409C243.26 126.409 243.28 126.419 243.29 126.429L245.92 127.959C245.92 127.959 245.9 127.949 245.89 127.939L243.26 126.409Z" fill="#3A3A3A"/>
<path d="M245.73 128.178L243.1 126.648C243.1 126.648 243.12 126.658 243.13 126.668C243.17 126.698 243.2 126.748 243.22 126.808C243.24 126.868 243.25 126.948 243.26 127.038C243.27 127.128 243.25 127.218 243.23 127.308L245.86 128.838C245.88 128.748 245.89 128.658 245.89 128.568C245.89 128.478 245.88 128.408 245.85 128.338C245.83 128.278 245.8 128.228 245.76 128.198C245.76 128.198 245.74 128.188 245.73 128.178Z" fill="#EFEFEF"/>
<path d="M252.06 115.789L249.43 114.259L249.51 115.849L252.14 117.379L252.06 115.789Z" fill="#3A3A3A"/>
<path d="M251.88 116.478L249.24 114.938L249.27 115.988L251.9 117.518L251.88 116.478Z" fill="#EFEFEF"/>
<path d="M252.14 117.379L249.51 115.849L249.27 115.989L251.9 117.519L252.14 117.379Z" fill="#3A3A3A"/>
<path d="M245.04 129.299L242.41 127.769C242.43 127.829 242.46 127.879 242.5 127.909L245.13 129.439C245.13 129.439 245.06 129.359 245.04 129.299Z" fill="#3A3A3A"/>
<path d="M245.73 128.179L243.1 126.649C243.1 126.649 243.03 126.619 242.99 126.619L245.62 128.149C245.62 128.149 245.7 128.149 245.73 128.179Z" fill="#3A3A3A"/>
<path d="M242.37 127.539C242.37 127.629 242.38 127.699 242.41 127.769L245.04 129.299C245.02 129.239 245.01 129.159 245 129.069L242.37 127.539Z" fill="#3A3A3A"/>
<path d="M242.4 127.278C242.38 127.368 242.37 127.458 242.37 127.548L245 129.078C245 128.988 245.01 128.898 245.03 128.808L242.4 127.278Z" fill="#3A3A3A"/>
<path d="M245.61 128.149L242.98 126.619C242.93 126.619 242.87 126.639 242.8 126.669C242.73 126.699 242.68 126.749 242.63 126.819L245.26 128.349C245.31 128.289 245.37 128.239 245.43 128.199C245.49 128.159 245.55 128.149 245.61 128.149Z" fill="#3A3A3A"/>
<path d="M242.49 127.028C242.45 127.108 242.42 127.188 242.4 127.278L245.03 128.808C245.05 128.718 245.08 128.638 245.12 128.558L242.49 127.028Z" fill="#3A3A3A"/>
<path d="M242.63 126.818C242.58 126.878 242.53 126.948 242.49 127.028L245.12 128.558C245.16 128.478 245.21 128.408 245.26 128.348L242.63 126.818Z" fill="#3A3A3A"/>
<path d="M245.89 127.939L243.26 126.409C243.21 126.379 243.15 126.369 243.08 126.369C243 126.369 242.91 126.399 242.81 126.459C242.72 126.509 242.63 126.579 242.55 126.679C242.47 126.769 242.4 126.869 242.34 126.979C242.28 127.089 242.23 127.209 242.2 127.329L244.83 128.859C244.86 128.739 244.91 128.619 244.97 128.509C245.03 128.399 245.1 128.299 245.18 128.209C245.26 128.119 245.35 128.049 245.44 127.989C245.54 127.929 245.63 127.899 245.71 127.899C245.78 127.899 245.84 127.909 245.89 127.939Z" fill="#EFEFEF"/>
<path d="M244.52 128.529L241.89 126.999L241.97 128.589L244.6 130.119L244.52 128.529Z" fill="#3A3A3A"/>
<path d="M244.34 129.218L241.7 127.688L241.73 128.728L244.36 130.258L244.34 129.218Z" fill="#EFEFEF"/>
<path d="M244.6 130.119L241.97 128.589L241.73 128.729L244.36 130.259L244.6 130.119Z" fill="#3A3A3A"/>
<path d="M245.13 128.558C245.09 128.638 245.06 128.718 245.04 128.808C245.02 128.898 245.01 128.988 245.01 129.078C245.01 129.168 245.02 129.238 245.05 129.308C245.07 129.368 245.1 129.418 245.14 129.448C245.18 129.478 245.23 129.498 245.28 129.498C245.33 129.498 245.39 129.478 245.45 129.448C245.51 129.418 245.57 129.368 245.62 129.298C245.67 129.238 245.72 129.168 245.76 129.088C245.8 129.008 245.83 128.928 245.85 128.838C245.87 128.748 245.88 128.658 245.88 128.568C245.88 128.478 245.87 128.408 245.84 128.338C245.82 128.278 245.79 128.228 245.75 128.198C245.71 128.168 245.66 128.148 245.61 128.148C245.56 128.148 245.5 128.168 245.43 128.198C245.36 128.228 245.31 128.278 245.26 128.348C245.21 128.408 245.16 128.478 245.12 128.558H245.13Z" fill="#3A3A3A"/>
<path d="M253.82 114.779L251.18 113.249L250.14 113.849L252.77 115.379L253.82 114.779Z" fill="#EFEFEF"/>
<path d="M251.88 116.478L249.24 114.938L248.86 115.958L251.49 117.488L251.88 116.478Z" fill="#3A3A3A"/>
<path d="M252.6 115.479L249.97 113.949L249.73 114.079L252.37 115.609L252.6 115.479Z" fill="#EFEFEF"/>
<path d="M251.94 115.859L249.3 114.329L248.86 115.529L251.49 117.059L251.94 115.859Z" fill="#EFEFEF"/>
<path d="M251.11 116.919L248.48 115.389L248.86 115.959L251.49 117.489L251.11 116.919Z" fill="#EFEFEF"/>
<path d="M251.11 116.919L248.48 115.389L248.46 116.459L251.09 117.989L251.11 116.919Z" fill="#3A3A3A"/>
<path d="M251.05 116.369L248.42 114.839L248.86 115.529L251.49 117.059L251.05 116.369Z" fill="#3A3A3A"/>
<path d="M250.92 116.449L248.29 114.909L248.22 116.589L250.85 118.119L250.92 116.449Z" fill="#EFEFEF"/>
<path d="M251.09 117.989L248.46 116.459L248.22 116.589L250.85 118.119L251.09 117.989Z" fill="#3A3A3A"/>
<path d="M244.34 129.218L241.7 127.688L241.32 128.698L243.96 130.228L244.34 129.218Z" fill="#3A3A3A"/>
<path d="M244.4 128.598L241.76 127.068L241.32 128.268L243.95 129.798L244.4 128.598Z" fill="#EFEFEF"/>
<path d="M243.57 129.659L240.94 128.129L241.32 128.699L243.96 130.229L243.57 129.659Z" fill="#EFEFEF"/>
<path d="M243.57 129.659L240.94 128.129L240.92 129.199L243.55 130.729L243.57 129.659Z" fill="#3A3A3A"/>
<path d="M243.51 129.119L240.88 127.579L241.32 128.269L243.95 129.799L243.51 129.119Z" fill="#3A3A3A"/>
<path d="M243.38 129.189L240.75 127.659L240.68 129.339L243.31 130.869L243.38 129.189Z" fill="#EFEFEF"/>
<path d="M243.55 130.729L240.92 129.199L240.68 129.339L243.31 130.869L243.55 130.729Z" fill="#3A3A3A"/>
<path d="M252.06 115.789L249.43 114.259L249.3 114.329L251.94 115.859L252.06 115.789Z" fill="#EFEFEF"/>
<path d="M244.52 128.529L241.89 126.999L241.76 127.069L244.4 128.599L244.52 128.529Z" fill="#EFEFEF"/>
<path d="M249.67 118.589L247.04 117.059V117.269L249.67 118.799V118.589Z" fill="#EFEFEF"/>
<path d="M250.64 118.249L248 116.719L247.04 117.269L249.67 118.799L250.64 118.249Z" fill="#3A3A3A"/>
<path d="M250.63 116.609L248 115.079V116.719L250.64 118.249L250.63 116.609Z" fill="#3A3A3A"/>
<path d="M250.4 117.659L247.77 116.129V116.639L250.4 118.169V117.659Z" fill="#EFEFEF"/>
<path d="M242.14 131.329L239.5 129.799V130.009L242.14 131.549V131.329Z" fill="#EFEFEF"/>
<path d="M243.1 130.989L240.46 129.459L239.5 130.009L242.14 131.549L243.1 130.989Z" fill="#3A3A3A"/>
<path d="M243.09 129.348L240.46 127.818V129.458L243.1 130.988L243.09 129.348Z" fill="#3A3A3A"/>
<path d="M242.86 130.409L240.23 128.869V129.379L242.86 130.909V130.409Z" fill="#EFEFEF"/>
<path d="M251.05 116.369L248.42 114.839L248.29 114.909L250.92 116.449L251.05 116.369Z" fill="#EFEFEF"/>
<path d="M250.4 118.169L247.77 116.639L247.04 117.059L249.67 118.589L250.4 118.169Z" fill="#EFEFEF"/>
<path d="M243.51 129.119L240.88 127.579L240.75 127.659L243.38 129.189L243.51 129.119Z" fill="#EFEFEF"/>
<path d="M242.86 130.909L240.23 129.379L239.5 129.799L242.14 131.329L242.86 130.909Z" fill="#EFEFEF"/>
<path d="M250.4 116.969L247.77 115.429V115.919L250.4 117.449V116.969Z" fill="#EFEFEF"/>
<path d="M250.4 117.659L247.77 116.129L247.09 116.519L249.73 118.049L250.4 117.659Z" fill="#3A3A3A"/>
<path d="M242.86 129.709L240.23 128.179V128.659L242.86 130.189V129.709Z" fill="#EFEFEF"/>
<path d="M249.73 117.839L247.09 116.309V116.519L249.73 118.049V117.839Z" fill="#EFEFEF"/>
<path d="M250.4 117.449L247.77 115.919L247.09 116.309L249.73 117.839L250.4 117.449Z" fill="#EFEFEF"/>
<path d="M242.86 130.409L240.23 128.869L239.55 129.269L242.19 130.799L242.86 130.409Z" fill="#3A3A3A"/>
<path d="M242.19 130.579L239.55 129.049V129.269L242.19 130.799V130.579Z" fill="#EFEFEF"/>
<path d="M242.86 130.189L240.23 128.659L239.55 129.049L242.19 130.579L242.86 130.189Z" fill="#EFEFEF"/>
<path d="M249.67 117.169L247.04 115.639V115.859L249.67 117.389V117.169Z" fill="#EFEFEF"/>
<path d="M250.4 116.969L247.77 115.429L247.04 115.859L249.67 117.389L250.4 116.969Z" fill="#3A3A3A"/>
<path d="M250.63 116.609L248 115.079L247.04 115.639L249.67 117.169L250.63 116.609Z" fill="#EFEFEF"/>
<path d="M242.13 129.909L239.5 128.379V128.599L242.13 130.129V129.909Z" fill="#EFEFEF"/>
<path d="M242.86 129.709L240.23 128.179L239.5 128.599L242.13 130.129L242.86 129.709Z" fill="#3A3A3A"/>
<path d="M243.09 129.348L240.46 127.818L239.5 128.378L242.13 129.908L243.09 129.348Z" fill="#EFEFEF"/>
<path d="M239.46 133.999L236.83 132.469L236.86 141.399L239.49 142.929L239.46 133.999Z" fill="#252525"/>
<path d="M250.11 136.788L239.49 142.918L239.46 133.988L250.08 127.858L250.11 136.788Z" fill="#252525"/>
<path d="M259.01 118.689L244.52 127.059V122.799L259 114.429V118.689H259.01Z" fill="#252525"/>
<path d="M244.5 122.799L241.87 121.269L241.88 125.519L244.51 127.049L244.5 122.799Z" fill="#252525"/>
<path d="M263.83 107.329C265.03 106.629 266.01 107.189 266.02 108.579L266.07 126.899C266.07 128.279 265.1 129.969 263.9 130.669L239.69 144.649C238.49 145.349 237.51 144.789 237.5 143.399L237.45 125.079C237.45 123.699 238.42 122.009 239.62 121.319L263.83 107.339V107.329ZM239.49 142.919L250.11 136.789L250.08 127.859L239.46 133.989L239.49 142.919ZM253.45 134.859L264.07 128.729L264.04 119.799L253.42 125.929L253.45 134.859ZM258.99 114.429L244.5 122.799V127.059L259 118.689V114.429H258.99ZM251.4 132.879C251.48 132.929 251.59 132.919 251.72 132.839C251.85 132.759 251.96 132.659 252.04 132.509C252.12 132.359 252.16 132.229 252.16 132.089C252.16 131.949 252.12 131.859 252.03 131.809C251.95 131.759 251.84 131.779 251.71 131.849C251.58 131.919 251.47 132.039 251.39 132.179C251.31 132.319 251.27 132.459 251.27 132.599C251.27 132.739 251.31 132.829 251.39 132.879H251.4ZM251.39 130.479C251.47 130.529 251.58 130.519 251.71 130.439C251.84 130.359 251.95 130.259 252.03 130.109C252.11 129.969 252.15 129.829 252.15 129.699C252.15 129.569 252.11 129.469 252.02 129.419C251.93 129.369 251.83 129.389 251.7 129.459C251.57 129.529 251.46 129.649 251.38 129.789C251.3 129.929 251.26 130.069 251.26 130.209C251.26 130.349 251.3 130.429 251.38 130.479" fill="#3A3A3A"/>
<path d="M251.72 130.429C251.85 130.349 251.96 130.249 252.04 130.099C252.12 129.959 252.16 129.819 252.16 129.689C252.16 129.559 252.12 129.459 252.03 129.409C251.94 129.359 251.84 129.379 251.71 129.449C251.58 129.519 251.47 129.639 251.39 129.779C251.31 129.919 251.27 130.059 251.27 130.199C251.27 130.339 251.31 130.419 251.39 130.469C251.47 130.519 251.58 130.509 251.71 130.429H251.72Z" fill="#EFEFEF"/>
<path d="M265.38 107.179L262.75 105.649C262.35 105.419 261.8 105.449 261.2 105.799L263.83 107.329C264.44 106.979 264.99 106.949 265.38 107.179Z" fill="#494949"/>
<path d="M235.49 143.258L238.12 144.788C237.73 144.558 237.49 144.078 237.48 143.388L234.85 141.858C234.85 142.548 235.09 143.028 235.49 143.258Z" fill="#252525"/>
<path d="M237.44 125.079L234.81 123.549L234.86 141.869L237.49 143.399L237.44 125.079Z" fill="#252525"/>
<path d="M263.83 107.329L261.19 105.799L236.98 119.779L239.61 121.309L263.83 107.329Z" fill="#5B5B5B"/>
<path d="M239.61 121.308L236.98 119.778C235.78 120.478 234.8 122.158 234.81 123.538L237.44 125.068C237.44 123.688 238.41 121.998 239.61 121.308Z" fill="#494949"/>
</svg>
