<svg width="459" height="272" viewBox="0 0 459 272" fill="none" xmlns="http://www.w3.org/2000/svg">
<path d="M296.61 132.984C296.61 132.914 296.49 110.624 296.49 110.554C296.28 106.744 290.77 110.374 283.97 110.404C277.49 110.444 272.09 107.394 271.46 110.974C271.46 110.974 271.57 132.874 271.57 133.114C271.59 137.024 277.21 140.164 284.13 140.124C291.05 140.084 296.63 136.884 296.61 132.984V132.984Z" fill="#566472"/>
<path d="M296.59 129.214C296.59 129.144 296.47 106.854 296.47 106.784C296.26 102.974 290.75 106.604 283.95 106.634C277.47 106.674 272.07 103.624 271.44 107.204C271.44 107.204 271.55 129.104 271.55 129.344C271.57 133.254 277.19 136.394 284.11 136.354C291.02 136.314 296.61 133.114 296.59 129.214Z" fill="#DEDAD3"/>
<path d="M296.47 106.784C296.45 102.874 290.83 99.7338 283.91 99.7738C277 99.8138 271.41 103.014 271.43 106.914C271.45 110.824 277.07 113.964 283.99 113.924C290.9 113.884 296.49 110.684 296.47 106.784Z" fill="#FDFDFD"/>
</svg>
