<svg width="26" height="33" viewBox="0 0 26 33" fill="none" xmlns="http://www.w3.org/2000/svg">
<path d="M19.1285 18.9999C19.8885 18.6299 20.8285 18.05 21.5985 17.36C22.5485 16.51 23.2085 15.4799 23.4885 14.1299C23.7085 13.0499 23.5785 10.98 23.0385 9.67998C22.4985 8.37998 21.7685 7.32997 20.6385 6.47997C19.6485 5.73997 18.8985 5.45996 17.6785 5.21996C16.4585 4.97996 14.9685 4.94996 13.5385 5.28996C13.0685 4.59996 12.5985 4.29995 11.8285 3.83995C11.9185 2.69995 11.3685 1.74992 10.6185 1.11992C9.22851 -0.04008 7.25853 -0.16006 5.76853 0.13994C3.99853 0.48994 2.56851 1.38994 1.55851 2.88994C0.54851 4.38994 -0.0814775 6.15996 0.00852254 7.96996C0.00852254 8.08996 0.00852986 8.16995 0.0785299 8.27995C0.79853 7.28995 1.9085 6.67998 3.1085 6.42998C4.5785 6.11998 6.18851 6.37995 7.67851 6.20995C9.83851 5.96995 11.0685 4.93996 11.7185 4.09996C12.3285 4.48996 12.7085 4.75995 13.1085 5.39995C10.2185 6.14995 8.50848 7.80994 7.71848 9.19994C6.76848 10.8799 6.77851 12.44 6.92851 13.79C7.09851 15.31 7.74853 16.63 8.57853 17.66C9.54853 18.87 11.6485 19.7199 12.4685 19.8099C12.1985 19.8299 11.9985 19.9899 11.8785 20.1299C11.7585 20.2699 11.6285 20.52 11.6285 20.85C10.1085 22.86 8.11854 24.6999 7.20853 25.9399C6.95853 26.2799 6.90852 26.86 7.12852 27.22C7.45852 27.77 7.98851 27.7399 8.36851 27.7599C8.23851 27.8899 7.82849 28.52 7.90849 28.66C7.97849 28.79 8.17851 28.68 8.30851 28.66C8.47851 28.63 8.70848 28.6399 9.02848 28.7099C9.46848 28.8099 9.82849 29.1399 10.3485 29.3199C10.7585 29.4599 11.0185 29.5899 11.4485 29.5599C11.3885 30.2799 11.4285 30.9599 11.5285 31.2699C11.6285 31.5799 11.9285 31.9999 12.2385 32.0799C12.6585 32.1899 13.1085 32.1099 13.4185 31.8899C13.7285 31.6699 14.3685 31.19 14.7385 30.1C15.4085 30.26 16.0485 30.2499 16.7485 30.1199C16.8385 30.4099 16.8785 30.65 16.9985 30.92C17.1685 31.3 17.3685 31.6799 17.6785 31.9499C17.9885 32.2199 18.4385 32.37 18.8285 32.23C18.9585 32.19 19.0785 32.11 19.1785 32.03C19.5085 31.77 19.6985 31.4099 19.8385 31.0099C19.9585 30.6599 20.0585 30.1799 20.1185 29.7599C20.4985 29.7599 20.9085 29.7999 21.2785 29.8699C21.3385 29.8799 21.3885 29.84 21.3885 29.78C21.3785 28.14 21.4085 27.15 20.8985 25.1C21.4285 26.12 21.8985 26.6399 22.3685 27.0199C22.4585 27.0899 22.7485 27.2499 23.0185 27.2499C23.2885 27.2499 23.4485 26.9999 23.3885 26.6999C23.7585 26.8999 23.9585 26.86 24.3185 26.85C24.7985 26.84 25.1785 26.54 25.3385 26.09C25.4785 25.69 25.3385 25.2399 25.0385 24.9599C24.2385 24.2099 23.8585 24.12 23.0685 23.54C22.1385 22.86 21.2585 21.8599 20.6985 21.1999C20.4585 20.9199 20.0485 20.43 19.9085 20.28C19.8685 20.03 19.6985 19.3599 19.1385 19.0099L19.1285 18.9999Z" fill="#231815"/>
<path d="M1.61853 3.26007C2.38853 1.92007 3.7985 0.990071 5.2785 0.570071C6.7585 0.150071 8.43851 0.230105 9.78851 0.980105C10.5885 1.42011 11.5685 2.3901 11.5685 3.6601C10.5985 3.1901 10.0285 2.88007 8.41852 2.88007C7.52852 2.88007 6.36855 3.09011 5.51855 3.36011C4.29855 3.73011 2.99853 4.62009 3.11853 4.84009C3.20853 4.93009 3.53853 4.53011 3.98853 4.30011C5.18853 3.66011 5.94852 3.4501 7.35852 3.2201C8.67852 3.0101 10.3285 3.22007 11.4685 3.94007C10.2985 5.40007 8.75854 5.95012 6.62854 5.99012C5.51854 6.01012 4.26853 5.83009 3.17853 6.09009C2.20853 6.31009 0.928516 6.68008 0.228516 7.70008C0.228516 7.25008 0.248523 7.0001 0.298523 6.7201C0.578523 5.1001 1.34851 3.7301 1.59851 3.2901L1.61853 3.26007Z" fill="#159F85"/>
<path d="M22.5686 15.4902C22.6786 14.8102 22.6686 13.7802 22.5486 13.1102C22.3086 11.7702 21.7185 10.1602 20.0885 9.08017C19.3285 8.57017 18.0586 7.8202 16.3086 7.8002C14.5586 7.7802 13.3386 8.11017 12.3886 8.58017C11.5486 8.99017 10.5685 9.62018 9.96854 10.3402C9.03854 11.4702 8.54853 12.7602 8.58853 14.1802C8.63853 16.1402 9.29856 17.5902 10.3086 18.6902C9.43856 18.1702 8.97854 17.7301 8.59854 17.2501C7.20854 15.5001 7.06856 12.7102 7.30856 11.4802C7.57856 10.0602 8.07857 8.73015 9.74856 7.44015C10.9086 6.54015 12.0786 6.0202 13.3686 5.6802C15.3886 5.1402 17.1086 5.27017 18.9986 5.96017C20.8886 6.65017 22.4686 8.4902 22.9586 10.4902C23.5986 13.0902 23.0986 14.5301 22.5786 15.5001L22.5686 15.4902Z" fill="white"/>
<path d="M8.84859 14.2901C8.74859 12.4201 9.51863 11.0601 10.5186 10.0901C11.4186 9.22006 12.6986 8.57007 13.8686 8.28007C15.0386 7.99007 16.0786 7.91008 17.2786 8.11008C18.3186 8.28008 19.5986 8.82009 20.6386 9.80009C21.4886 10.6001 22.0786 11.8901 22.2486 12.9901C22.4286 14.1901 22.3086 15.3101 22.1586 15.9201C20.8786 17.7201 19.3686 18.49 18.2386 18.94C17.3486 19.3 15.2286 19.6701 13.4486 19.5401C12.0986 19.4401 11.2786 19.02 10.7086 18.76C9.47864 17.3 8.94859 16.2001 8.84859 14.2901Z" fill="#FBE5D4"/>
<path d="M11.5786 21.2301C11.1886 21.7701 10.6786 22.3501 10.2486 22.8701C9.94861 23.2201 9.09859 24.1701 8.79859 24.5201C8.05859 25.3801 7.5186 25.8002 7.3086 26.3002C7.0186 27.0202 7.52859 27.3201 7.85859 27.3801C8.18859 27.4401 8.67858 27.4001 8.90858 27.3201C9.22858 27.2201 9.54859 27.0801 9.79859 26.7701C9.86859 26.6801 9.95862 26.7201 10.0086 26.8101C10.0486 26.9001 9.77862 27.0701 9.75862 27.3801C9.74862 27.5501 9.93857 27.6201 10.0886 27.5301C10.2686 27.4201 10.5186 27.0401 10.5786 26.8801C10.6986 26.5901 10.8086 26.4801 11.1886 25.5601C11.5686 24.6401 11.8786 24.0002 12.2086 23.1702C12.4786 22.4902 12.6886 21.4401 12.5586 21.1601C12.3386 20.6501 11.8786 20.8001 11.5686 21.2301H11.5786Z" fill="white"/>
<path d="M12.4387 19.9902C12.6087 19.9502 13.1387 19.9101 13.3187 20.1701C13.4187 20.3101 13.5286 20.5801 13.5286 20.8801C13.5286 21.6101 13.3086 22.2701 12.5986 22.7701C12.7586 22.3101 12.8687 21.7701 12.8687 21.3701C12.8687 21.1301 12.7687 20.8101 12.6387 20.7001C12.5187 20.6001 12.2486 20.4801 11.8486 20.7001C11.8786 20.2701 12.2487 20.0402 12.4387 19.9902Z" fill="#159F85"/>
<path d="M15.5985 26.6398C16.7085 26.7098 17.3986 26.5898 18.3286 26.1798C18.8086 25.9698 19.2885 25.6398 19.6085 25.2198C19.7585 25.0198 19.9786 24.5498 20.0186 24.0098C20.0686 23.2898 19.8885 22.5898 19.6585 21.8298C19.3685 20.8798 19.0585 20.1398 18.4285 19.2798C16.9685 19.8298 15.4385 20.0798 13.5385 19.9898C13.8485 20.5098 13.9085 21.2298 13.6985 21.8398C13.4885 22.4498 13.1685 22.7898 12.5285 23.1398C12.3985 23.4098 12.3085 23.7498 12.2585 23.9398C12.3185 24.2698 12.4385 24.7098 12.8085 25.3298C13.6385 25.4398 14.7185 25.9898 15.6085 26.6298L15.5985 26.6398Z" fill="white"/>
<path d="M19.7087 21.2399C19.5287 20.5299 19.0987 19.6998 18.6187 19.1898C18.7287 19.1498 18.8086 19.0998 18.9086 19.0698C19.3186 19.2898 19.5686 19.6898 19.6586 20.0598C19.7686 20.5198 19.7487 20.8699 19.7087 21.2399Z" fill="#159F85"/>
<path d="M19.9585 20.6602C19.9685 21.0802 19.9484 21.3302 19.8984 21.6802C20.0784 22.1402 20.3084 23.0702 20.3484 23.5502C20.7784 24.3302 21.2884 25.0901 21.5984 25.5801C21.8184 25.9401 22.2685 26.5202 22.6285 26.7402C22.7085 26.7902 22.7985 26.8301 22.8885 26.8401C22.9785 26.8501 23.0885 26.8002 23.1285 26.7202C23.1685 26.6402 23.1285 26.5102 23.0385 26.4902C22.8785 26.4502 22.7785 26.3002 22.6785 26.1702C22.6485 26.1402 22.6285 26.0902 22.6285 26.0502C22.6285 25.9902 22.6985 25.9501 22.7585 25.9501C22.8185 25.9501 22.8685 25.9801 22.9185 26.0201C23.0685 26.1201 23.2085 26.2401 23.3685 26.3301C23.7685 26.5501 24.2985 26.5501 24.6985 26.3201C24.7785 26.2701 24.8484 26.2201 24.9084 26.1501C25.0484 25.9601 25.0084 25.6802 24.9084 25.4702C24.6384 24.9302 24.0685 24.6301 23.5585 24.3101C22.1185 23.3901 20.9884 22.0402 19.9684 20.6802L19.9585 20.6602Z" fill="white"/>
<path d="M13.6186 29.55C13.5186 29.69 13.0285 30 12.5485 29.66C12.3685 29.53 12.2986 29.3 12.3086 29.08C12.1286 28.99 11.9485 28.88 11.7885 28.77C11.7185 29.31 11.6985 29.88 11.7185 30.5C12.2485 31.04 13.0085 31.33 13.7285 31.19C14.1185 30.73 14.3486 30.24 14.5586 29.7C14.2486 29.67 13.9285 29.62 13.6085 29.55H13.6186Z" fill="white"/>
<path d="M15.4186 26.8198C14.6086 26.2398 13.7286 25.7799 12.7886 25.6099C12.2886 26.5699 11.9686 27.5099 11.8186 28.5399C11.8586 28.5699 11.9086 28.5998 11.9486 28.6298C12.0786 28.7098 12.2186 28.7899 12.3486 28.8599C12.5186 28.4599 12.8986 28.2998 13.3286 28.4498C13.5886 28.5398 13.8086 28.8598 13.7086 29.3398C14.0086 29.4098 14.3186 29.4599 14.6386 29.4799L14.6586 29.4299C14.8986 28.8099 15.4586 27.0798 15.4086 26.8198H15.4186Z" fill="white"/>
<path d="M12.5385 29.4202C12.6285 29.5702 12.8285 29.6702 13.0385 29.6602C13.3085 29.6502 13.4985 29.4602 13.5185 29.3902C13.5985 29.1702 13.5985 28.8002 13.3085 28.6502C13.0185 28.5002 12.6985 28.6302 12.5785 28.7902C12.4085 29.0302 12.4885 29.3302 12.5385 29.4202Z" fill="white"/>
<path d="M13.5685 31.3898C13.0085 31.4598 12.2885 31.3698 11.7285 30.7798C11.7285 31.1298 11.9785 31.5898 12.3585 31.7198C12.8085 31.8898 13.2885 31.7198 13.5685 31.3898Z" fill="#159F85"/>
<path d="M17.6084 31.4301C17.7484 31.6001 17.9484 31.79 18.1184 31.84C18.6184 31.98 19.0284 31.7901 19.2884 31.4901C19.3284 31.4401 19.3784 31.37 19.4184 31.29C18.7784 31.59 18.1684 31.56 17.6184 31.44L17.6084 31.4301Z" fill="#159F85"/>
<path d="M19.6584 25.6301C19.1384 26.2401 17.7784 26.9202 16.8884 26.9302C16.8184 27.9302 16.8284 28.7102 16.9284 29.4802C17.3484 29.5802 17.7884 29.6001 18.2284 29.5601C18.2284 29.5301 18.2284 29.4901 18.2284 29.4601C18.2284 29.0601 18.4984 28.7701 18.7884 28.7501C19.3084 28.7101 19.4984 29.0101 19.5284 29.3301C19.6584 29.3001 19.7884 29.2602 19.8984 29.2202C19.9184 29.0202 19.9284 28.8102 19.9284 28.6002C19.9284 27.5702 19.8084 26.4101 19.6684 25.6201L19.6584 25.6301Z" fill="white"/>
<path d="M18.3784 29.4601C18.3784 29.6901 18.4984 29.9501 18.7284 30.0101C18.9584 30.0701 19.1984 29.9901 19.3084 29.7501C19.4384 29.4701 19.4384 28.8701 18.8084 28.9101C18.5884 28.9301 18.3784 29.1501 18.3784 29.4501V29.4601Z" fill="white"/>
<path d="M19.5185 29.5699C19.5085 29.6799 19.4785 29.77 19.4385 29.85C19.2985 30.16 18.9585 30.2699 18.6685 30.1899C18.4785 30.1299 18.3485 29.97 18.2685 29.78C17.8885 29.8 17.3785 29.79 16.9485 29.71C16.9485 29.77 16.9685 29.8199 16.9785 29.8799C17.0385 30.2399 17.1785 30.71 17.4385 31.18C18.1085 31.34 18.9484 31.34 19.5284 30.98C19.6684 30.6 19.7985 30.07 19.8585 29.46C19.7385 29.5 19.6185 29.5399 19.4985 29.5699H19.5185Z" fill="white"/>
<path d="M11.4385 29.2098C11.5385 27.8798 12.0885 26.2899 12.5685 25.4299C12.3485 25.1199 12.1785 24.6798 12.0585 24.3198C11.4985 25.5698 11.1485 26.3199 10.6785 27.2999C10.5785 27.4999 10.2185 27.8499 9.99847 27.8599C9.76847 27.8699 9.51844 27.6698 9.52844 27.4398C9.19844 27.5898 9.00849 27.6699 8.57849 27.7399C8.39849 27.9599 8.3485 28.0998 8.2085 28.3898C8.7685 28.2498 9.24844 28.4698 9.77844 28.6998C10.4684 28.9998 10.8885 29.2998 11.4485 29.1998L11.4385 29.2098Z" fill="#007A66"/>
<path d="M16.6887 29.8199C16.5887 28.9099 16.5487 27.8599 16.6287 26.9399C16.2887 26.9399 15.9986 26.9599 15.6586 26.9399C15.5286 27.9299 15.0986 29.1499 14.8486 29.8099C15.4486 29.9399 16.1087 29.9899 16.6887 29.8099V29.8199Z" fill="#007A66"/>
<path d="M21.1987 29.5297C21.2587 27.8697 21.0387 26.5197 20.6387 24.5197C20.5287 24.3397 20.4286 24.1597 20.3486 23.9697C20.3086 24.5097 20.1587 24.9497 19.8687 25.4097C19.9787 25.8297 20.0787 26.1997 20.1187 26.6297C20.2087 27.5497 20.2286 28.4697 20.1686 29.4497C20.2586 29.4497 20.3186 29.4697 20.4086 29.4497C20.6486 29.4197 20.9687 29.4497 21.2087 29.5197L21.1987 29.5297Z" fill="#007A66"/>
<path d="M11.3886 14.1701C10.1086 13.9601 9.13859 14.7401 9.05859 15.7901C9.17859 16.3301 9.3686 16.81 9.6286 17.28C9.8186 17.47 10.0386 17.6101 10.2786 17.6801C11.1386 17.9301 11.9186 17.6401 12.4886 17.0401C12.7086 16.8001 13.0586 16.13 12.7886 15.34C12.5886 14.74 12.0186 14.2601 11.3886 14.1601V14.1701Z" fill="#EEA78B"/>
<path d="M22.2686 13.0701C22.2086 12.6901 22.0986 12.2902 21.9486 11.9002C21.8886 11.8502 21.8386 11.8102 21.7786 11.7902C21.3386 11.5802 20.0186 11.3901 19.1786 12.4501C18.4586 13.3601 19.0186 14.7102 19.6386 15.0502C20.3086 15.4202 21.4986 15.3302 22.0786 14.9102C22.1886 14.8302 22.2686 14.7402 22.3486 14.6502C22.3686 14.1702 22.3486 13.6401 22.2586 13.0801L22.2686 13.0701Z" fill="#EEA78B"/>
<path d="M13.1085 12.9999C13.0485 13.1699 13.0485 13.3199 13.1085 13.6499C13.1685 13.9799 13.3285 14.2099 13.4085 14.2799C13.5785 14.4399 13.8385 14.3699 13.9585 14.1999C14.0385 14.0799 14.0385 13.8199 13.9585 13.5099C13.8785 13.1999 13.8185 12.9599 13.6185 12.8199C13.4985 12.7299 13.1985 12.7699 13.1185 12.9999H13.1085Z" fill="#040000"/>
<path d="M16.6186 12.22C16.5686 12.39 16.5685 12.5399 16.6585 12.8699C16.7485 13.1999 16.9086 13.42 16.9886 13.49C17.1586 13.64 17.4285 13.5599 17.5285 13.3799C17.5985 13.2499 17.5886 12.9999 17.4886 12.6899C17.3886 12.3799 17.3185 12.15 17.1085 12.02C16.9885 11.94 16.6886 11.99 16.6186 12.22Z" fill="#040000"/>
<path d="M13.7585 13.2299C13.7885 13.3399 13.7884 13.4398 13.6684 13.4598C13.5684 13.4798 13.5084 13.4099 13.4784 13.2999C13.4484 13.1899 13.4585 13.0898 13.5685 13.0698C13.6885 13.0398 13.7285 13.1199 13.7585 13.2299Z" fill="white"/>
<path d="M17.2585 12.39C17.2885 12.5 17.2884 12.5999 17.1684 12.6199C17.0684 12.6399 17.0084 12.57 16.9784 12.46C16.9484 12.35 16.9585 12.25 17.0685 12.23C17.1885 12.2 17.2285 12.28 17.2585 12.39Z" fill="white"/>
<path d="M18.0186 14.6899C16.5986 14.8099 15.1286 15.15 13.8086 15.7C13.7186 15.74 13.6786 15.83 13.7086 15.92C13.8486 16.38 14.1085 16.91 14.3385 17.18C14.6685 17.58 15.0985 18.03 15.5985 18.16C16.0885 18.29 17.2686 18.2499 17.8286 17.6199C18.5186 16.8499 18.5085 15.75 18.2185 14.83C18.1885 14.74 18.1086 14.69 18.0186 14.7V14.6899Z" fill="#040000"/>
<path d="M18.0585 14.9102C16.4485 14.9102 14.1384 15.7502 13.8984 15.8502C14.0284 16.3402 14.2984 16.8901 14.6484 17.2501C14.9984 17.6101 15.4684 17.9501 15.9684 18.0101C16.4684 18.0701 17.3384 17.8901 17.6584 17.5001C18.0284 17.0501 18.3785 16.3702 18.0585 14.9102Z" fill="#E06741"/>
<path d="M15.7783 22.09L15.0483 21.71L14.9883 21.7499L15.7183 22.14L15.7783 22.09Z" fill="#1CA790"/>
<path d="M15.9483 21.96L15.2983 21.52L15.2383 21.56L15.8583 22.02L15.9483 21.96Z" fill="#1CA790"/>
<path d="M16.1285 21.8198L15.5185 21.3398L15.4185 21.4199L16.0485 21.8798L16.1285 21.8198Z" fill="#1CA790"/>
<path d="M16.8184 21.29L18.1683 21.85L18.8483 21.3199L18.6783 21.2499L18.5883 21.41L18.6583 21.24L18.4883 21.17L18.3983 21.35L18.4584 21.16L18.2883 21.09L18.2084 21.2599L18.2484 21.0699L18.0883 20.9999L18.0283 21.1899L18.0483 20.98L17.9183 20.93L17.8284 21.18L17.8083 20.89L17.6984 20.84L17.6284 21.16L17.5684 20.78L17.4783 20.74L17.4183 21.15L17.3383 20.68L17.1384 20.6L17.2183 21.16L17.0184 20.55L16.8483 20.48L17.0084 21.21L16.6483 20.48L16.5483 20.55L16.8083 21.2599L16.4283 20.64L16.2983 20.74L16.6884 21.39L16.8284 21.28L16.8184 21.29Z" fill="#1CA790"/>
<path d="M16.3085 21.6802C16.2485 21.6202 15.9585 21.3402 15.7585 21.1602L15.6484 21.2501L16.1985 21.7701L16.3085 21.6901V21.6802Z" fill="#1CA790"/>
<path d="M16.6384 21.4301C16.6384 21.4301 16.3484 21.0401 16.1984 20.8301L16.0884 20.9201L16.5384 21.5201L16.6484 21.4401L16.6384 21.4301Z" fill="#1CA790"/>
<path d="M16.4784 21.55L15.9984 20.98L15.8884 21.0599L16.3584 21.64L16.4784 21.55Z" fill="#1CA790"/>
<path d="M15.6684 22.24L14.8784 21.98V22.03L15.6784 22.3099L15.6684 22.24Z" fill="#1CA790"/>
<path d="M15.6985 22.4899L14.9285 22.3799L14.9385 22.4099L15.7085 22.5499L15.6985 22.4899Z" fill="#1CA790"/>
<path d="M15.7283 22.7101C15.6183 22.7101 15.2683 22.6701 14.9683 22.6401V22.7001L15.7483 22.8002V22.7001L15.7283 22.7101Z" fill="#1CA790"/>
<path d="M15.7585 22.9302H14.9985L15.0186 23.0201L15.7686 23.0001L15.7585 22.9302Z" fill="#1CA790"/>
<path d="M15.7783 23.1001L15.0383 23.2001L15.0583 23.3301L15.7983 23.2101L15.7783 23.1001Z" fill="#1CA790"/>
<path d="M15.8083 23.2798L15.0684 23.4398L15.0883 23.5798L15.8184 23.3998L15.8083 23.2798Z" fill="#1CA790"/>
<path d="M16.2385 23.79L15.6484 24.36L15.7985 24.42L16.3885 23.85L16.2385 23.79Z" fill="#1CA790"/>
<path d="M16.0583 23.7197L15.3184 24.2197L15.5383 24.3097L16.2183 23.7797L16.0583 23.7197Z" fill="#1CA790"/>
<path d="M15.8585 23.6401L15.1484 24.0001L15.1685 24.1602L15.9985 23.6901L15.8585 23.6401Z" fill="#1CA790"/>
<path d="M15.8284 23.46L15.1084 23.7L15.1284 23.8699L15.8484 23.58L15.8284 23.46Z" fill="#1CA790"/>
<path d="M17.7085 23.1601L18.2585 23.3901L17.2085 24.2001L16.3984 23.8701L15.9084 24.4801L16.0685 24.5501L16.4785 24.0601L16.1385 24.5801L16.2784 24.6401C16.3884 24.4901 16.5785 24.2301 16.5785 24.2301L16.3484 24.6701L16.5185 24.7401L16.6584 24.4901L16.5785 24.7601L16.7085 24.8101L16.8484 24.5301L16.7685 24.8401L16.9285 24.9101L17.0385 24.6201L16.9785 24.9401L17.1285 25.0001C17.1585 24.8801 17.2184 24.6601 17.2184 24.6601L17.1685 25.0201L17.2885 25.0701L17.3885 24.9901L17.4285 24.6901V24.9601L19.1385 23.6401L19.0385 22.9201L17.5585 22.3101L17.6685 23.1701L17.7085 23.1601Z" fill="#1CA790"/>
</svg>
