<svg width="321" height="381" viewBox="0 0 321 381" fill="none" xmlns="http://www.w3.org/2000/svg">
<path d="M156.42 210.27C157.895 210.27 159.09 209.826 159.09 209.28C159.09 208.733 157.895 208.29 156.42 208.29C154.945 208.29 153.75 208.733 153.75 209.28C153.75 209.826 154.945 210.27 156.42 210.27Z" fill="#97C483"/>
<path d="M155.63 205.7V205.72V205.74V205.76V205.78V205.8H155.64V205.82H155.65V205.84L155.67 205.86L155.69 205.89L155.71 205.91V205.93H155.73V205.95H155.75V205.97H155.78V205.99H155.81C155.81 205.99 155.84 206.02 155.86 206.03H155.87C155.87 206.03 155.9 206.05 155.92 206.06C155.92 206.06 155.96 206.08 155.98 206.08H156.02L156.05 206.1H156.09L156.12 206.12H156.13C156.13 206.12 156.17 206.12 156.18 206.12H156.23C156.23 206.12 156.27 206.12 156.28 206.12H156.31C156.31 206.12 156.34 206.12 156.35 206.12H156.5L156.54 206.1H156.61C156.61 206.1 156.64 206.08 156.66 206.07H156.71C156.71 206.07 156.74 206.05 156.76 206.04H156.77C156.77 206.04 156.8 206.02 156.81 206.02H156.83C156.83 206.02 156.87 205.99 156.89 205.98C157.01 205.91 157.08 205.83 157.11 205.74C157.11 205.73 157.11 205.71 157.12 205.7V205.68C157.12 205.68 157.12 205.67 157.12 205.66V209.19C157.12 209.31 157.05 209.42 156.9 209.51C156.88 209.52 156.86 209.53 156.84 209.54H156.82L156.78 209.56H156.76C156.76 209.56 156.73 209.58 156.71 209.58H156.66C156.66 209.58 156.63 209.6 156.61 209.61H156.54L156.52 209.63H156.37C156.37 209.63 156.36 209.64 156.35 209.64C156.34 209.64 156.32 209.64 156.31 209.64C156.31 209.64 156.3 209.64 156.29 209.64H156.28C156.28 209.64 156.24 209.64 156.23 209.64H156.18C156.18 209.64 156.14 209.64 156.13 209.63H156.08L156.04 209.61H156.01L155.97 209.59C155.97 209.59 155.94 209.58 155.92 209.57C155.92 209.57 155.89 209.55 155.87 209.55H155.86C155.86 209.55 155.82 209.53 155.81 209.52H155.79V209.5H155.76V209.48H155.74V209.46H155.72V209.44H155.7L155.68 209.41L155.66 209.38V209.36H155.64V209.34H155.63V209.32H155.62V209.3V209.28V209.26V209.24V209.22V205.67L155.63 205.7Z" fill="#766052"/>
<path d="M155.86 205.36C155.55 205.54 155.55 205.82 155.86 206C156.17 206.18 156.66 206.18 156.97 206C157.28 205.82 157.28 205.54 156.97 205.36C156.66 205.18 156.17 205.18 155.86 205.36Z" fill="white" stroke="black" stroke-width="0.5" stroke-linecap="round" stroke-linejoin="round"/>
<path d="M156.42 206.56C152.62 206.56 150.75 204.76 152.85 199.08C154.94 193.4 156.42 194.06 156.42 194.06C156.42 194.06 157.9 193.4 159.99 199.08C162.08 204.76 160.21 206.56 156.42 206.56Z" fill="#548945"/>
<path d="M152.85 199.08C153.74 196.68 154.51 195.41 155.11 194.75C154.69 196 154.42 197.31 154.25 198.62C154.03 200.27 153.96 201.969 154.34 203.599C154.59 204.669 155.07 205.699 155.76 206.549C152.41 206.339 150.87 204.43 152.84 199.09L152.85 199.08Z" fill="#41782D"/>
<path d="M160.83 192.77C163.028 192.77 164.81 192.009 164.81 191.07C164.81 190.131 163.028 189.37 160.83 189.37C158.632 189.37 156.85 190.131 156.85 191.07C156.85 192.009 158.632 192.77 160.83 192.77Z" fill="#97C483"/>
<path d="M159.85 186.14V186.17V186.2V186.23V186.26H159.86V186.29H159.87V186.32L159.89 186.34V186.37H159.91L159.94 186.41L159.96 186.44H159.97V186.46H160L160.02 186.48H160.03L160.05 186.5H160.07L160.09 186.52H160.11C160.11 186.52 160.15 186.56 160.18 186.57H160.2C160.2 186.57 160.24 186.6 160.26 186.61C160.26 186.61 160.31 186.63 160.33 186.64C160.35 186.64 160.36 186.64 160.38 186.65H160.42C160.42 186.65 160.46 186.67 160.47 186.67H160.53C160.53 186.67 160.57 186.69 160.6 186.69H160.66C160.66 186.69 160.7 186.69 160.73 186.69H160.77C160.77 186.69 160.81 186.69 160.82 186.69H161.01L161.05 186.67H161.1L161.14 186.65C161.14 186.65 161.18 186.65 161.2 186.64H161.24L161.26 186.62C161.26 186.62 161.3 186.61 161.32 186.6H161.34C161.34 186.6 161.37 186.58 161.39 186.57H161.42C161.42 186.57 161.47 186.54 161.49 186.52C161.63 186.44 161.72 186.33 161.76 186.23C161.76 186.21 161.77 186.19 161.77 186.18V186.15C161.77 186.15 161.77 186.13 161.77 186.12V190.51C161.77 190.66 161.68 190.8 161.49 190.91C161.47 190.92 161.44 190.94 161.42 190.95H161.39C161.39 190.95 161.36 190.97 161.35 190.98H161.33C161.33 190.98 161.29 191 161.27 191.01H161.24L161.21 191.03C161.21 191.03 161.17 191.04 161.15 191.04H161.11L161.06 191.06H160.94L160.92 191.08H160.85C160.85 191.08 160.84 191.08 160.83 191.08C160.81 191.08 160.79 191.08 160.78 191.08C160.78 191.08 160.76 191.08 160.75 191.08H160.73C160.73 191.08 160.69 191.08 160.66 191.08H160.6C160.6 191.08 160.55 191.07 160.53 191.06H160.47C160.47 191.06 160.43 191.04 160.42 191.04H160.38C160.38 191.04 160.35 191.02 160.33 191.02H160.32C160.32 191.02 160.28 191 160.26 191C160.26 191 160.22 190.98 160.2 190.97H160.18C160.18 190.97 160.14 190.94 160.11 190.93H160.09L160.07 190.9H160.05L160.03 190.88H160.02L160 190.86H159.99V190.84H159.97L159.95 190.81L159.92 190.77V190.74H159.9V190.71H159.88V190.68H159.87V190.65H159.86V190.62V190.59V190.56V190.53V186.14H159.85Z" fill="#766052"/>
<path d="M160.14 185.72C159.76 185.94 159.76 186.3 160.14 186.52C160.52 186.74 161.14 186.74 161.52 186.52C161.9 186.3 161.9 185.94 161.52 185.72C161.14 185.5 160.52 185.5 160.14 185.72Z" fill="white" stroke="black" stroke-width="0.5" stroke-linecap="round" stroke-linejoin="round"/>
<path d="M160.83 187.21C156.11 187.21 153.79 184.97 156.39 177.92C158.99 170.86 160.83 171.68 160.83 171.68C160.83 171.68 162.67 170.87 165.27 177.92C167.87 184.98 165.55 187.21 160.83 187.21Z" fill="#62AB51"/>
<path d="M156.39 177.92C157.49 174.94 158.45 173.36 159.2 172.54C158.68 174.09 158.35 175.72 158.13 177.35C157.86 179.41 157.77 181.52 158.25 183.54C158.57 184.87 159.16 186.15 160.02 187.2C155.86 186.94 153.94 184.57 156.39 177.93V177.92Z" fill="#548945"/>
<path d="M124.63 196.019C124.63 194.709 127.11 193.649 130.16 193.649C133.21 193.649 135.69 194.709 135.69 196.019C135.69 197.329 133.21 198.389 130.16 198.389C127.1 198.389 124.63 197.329 124.63 196.019Z" fill="#97C483"/>
<path d="M128.8 189.169V189.249L128.82 189.269V189.309L128.84 189.329V189.349L128.86 189.369V189.389L128.88 189.409V189.429H128.9L128.92 189.469C128.92 189.469 128.94 189.509 128.96 189.519L128.99 189.559H129L129.02 189.589L129.04 189.609L129.06 189.629L129.08 189.649L129.1 189.669H129.12L129.14 189.699L129.17 189.719C129.17 189.719 129.23 189.749 129.26 189.769H129.28C129.28 189.769 129.34 189.809 129.37 189.819H129.38C129.38 189.819 129.44 189.849 129.48 189.859C129.5 189.859 129.53 189.869 129.55 189.879C129.57 189.879 129.59 189.889 129.6 189.889C129.62 189.889 129.65 189.899 129.67 189.909C129.69 189.909 129.71 189.909 129.73 189.919H129.75C129.75 189.919 129.81 189.929 129.84 189.939H129.87C129.87 189.939 129.91 189.939 129.92 189.939C129.95 189.939 129.98 189.939 130.01 189.939H130.07C130.07 189.939 130.12 189.939 130.14 189.939H130.2C130.2 189.939 130.25 189.939 130.27 189.939H130.33C130.33 189.939 130.38 189.939 130.4 189.929H130.46C130.46 189.929 130.51 189.909 130.53 189.909H130.59C130.59 189.909 130.65 189.889 130.67 189.879C130.69 189.879 130.71 189.879 130.72 189.869H130.75C130.75 189.869 130.81 189.839 130.83 189.829H130.85C130.85 189.829 130.9 189.799 130.92 189.789L130.96 189.769C130.96 189.769 131.03 189.739 131.06 189.719C131.26 189.599 131.39 189.459 131.44 189.309C131.44 189.289 131.45 189.259 131.46 189.229V189.189C131.46 189.189 131.46 189.159 131.46 189.149V195.259C131.47 195.459 131.34 195.659 131.07 195.819C131.04 195.839 131 195.859 130.97 195.869L130.93 195.889C130.93 195.889 130.89 195.909 130.87 195.919H130.84C130.84 195.919 130.79 195.949 130.76 195.959H130.71L130.68 195.979C130.68 195.979 130.62 195.989 130.6 195.999H130.54C130.54 195.999 130.49 196.019 130.47 196.019H130.41C130.41 196.019 130.37 196.029 130.34 196.039H130.28C130.28 196.039 130.23 196.039 130.21 196.039H130.18C130.18 196.039 130.16 196.039 130.15 196.039C130.13 196.039 130.1 196.039 130.08 196.039C130.07 196.039 130.06 196.039 130.04 196.039H130.02C130.02 196.039 129.96 196.039 129.93 196.039H129.85C129.85 196.039 129.79 196.019 129.76 196.019H129.73C129.73 196.019 129.7 196.009 129.69 196.009C129.66 196.009 129.64 195.999 129.62 195.989C129.6 195.989 129.58 195.989 129.57 195.979C129.55 195.979 129.52 195.969 129.5 195.959H129.48C129.48 195.959 129.42 195.939 129.4 195.929H129.39C129.39 195.929 129.33 195.899 129.3 195.889H129.28C129.28 195.889 129.22 195.849 129.19 195.829H129.17V195.809L129.13 195.789H129.11L129.09 195.759L129.07 195.739L129.05 195.719L129.03 195.699L129.01 195.679H129L128.97 195.639C128.97 195.639 128.95 195.599 128.93 195.589L128.91 195.549V195.509H128.89V195.489L128.87 195.469V195.449L128.85 195.429V195.379L128.83 195.359V195.279V189.169H128.8Z" fill="#766052"/>
<path d="M129.2 188.58C128.67 188.89 128.67 189.38 129.2 189.69C129.73 190 130.59 190 131.12 189.69C131.65 189.38 131.65 188.89 131.12 188.58C130.59 188.27 129.73 188.27 129.2 188.58Z" fill="white" stroke="black" stroke-width="0.5" stroke-linecap="round" stroke-linejoin="round"/>
<path d="M130.16 190.66C123.6 190.66 120.36 187.55 123.98 177.73C127.6 167.91 130.16 169.04 130.16 169.04C130.16 169.04 132.72 167.91 136.34 177.73C139.96 187.55 136.73 190.66 130.16 190.66Z" fill="#548945"/>
<path d="M123.99 177.73C125.52 173.58 126.86 171.39 127.9 170.24C127.18 172.4 126.71 174.67 126.42 176.93C126.05 179.79 125.92 182.73 126.58 185.54C127.02 187.39 127.84 189.17 129.04 190.63C123.25 190.27 120.58 186.97 123.99 177.73Z" fill="#41782D"/>
<path d="M107.36 174.42C111.43 174.42 114.73 173.005 114.73 171.26C114.73 169.514 111.43 168.1 107.36 168.1C103.29 168.1 99.99 169.514 99.99 171.26C99.99 173.005 103.29 174.42 107.36 174.42Z" fill="#97C483"/>
<path d="M105.56 162.129V162.229L105.58 162.259V162.279L105.6 162.309V162.329L105.62 162.359V162.379L105.64 162.409V162.429L105.67 162.459V162.479L105.71 162.519V162.539C105.71 162.539 105.75 162.579 105.77 162.589H105.78C105.78 162.589 105.81 162.629 105.82 162.639L105.84 162.659L105.87 162.679L105.89 162.699L105.92 162.719L105.95 162.739L105.98 162.759L106.01 162.779L106.04 162.799L106.08 162.829C106.08 162.829 106.16 162.869 106.2 162.889L106.23 162.909C106.23 162.909 106.31 162.939 106.35 162.959H106.36C106.36 162.959 106.45 162.999 106.49 163.009C106.52 163.009 106.55 163.029 106.58 163.039C106.6 163.039 106.63 163.049 106.65 163.059C106.68 163.059 106.72 163.069 106.75 163.079C106.77 163.079 106.8 163.089 106.82 163.089H106.85C106.85 163.089 106.93 163.109 106.97 163.109H107.01C107.01 163.109 107.06 163.109 107.08 163.119C107.12 163.119 107.16 163.119 107.2 163.119C107.23 163.119 107.25 163.119 107.28 163.119C107.31 163.119 107.35 163.119 107.38 163.119C107.41 163.119 107.44 163.119 107.46 163.119C107.49 163.119 107.52 163.119 107.55 163.119C107.58 163.119 107.61 163.119 107.63 163.119C107.66 163.119 107.69 163.119 107.72 163.109C107.75 163.109 107.77 163.109 107.8 163.099C107.83 163.099 107.86 163.089 107.9 163.079C107.93 163.079 107.95 163.079 107.97 163.059C108.01 163.059 108.05 163.039 108.08 163.029C108.1 163.029 108.13 163.019 108.15 163.009H108.19C108.19 163.009 108.26 162.969 108.3 162.959H108.33C108.33 162.959 108.39 162.919 108.43 162.909C108.45 162.909 108.46 162.899 108.48 162.889C108.53 162.869 108.57 162.849 108.61 162.819C108.88 162.669 109.04 162.479 109.11 162.279C109.12 162.249 109.13 162.209 109.13 162.179C109.13 162.159 109.13 162.149 109.13 162.129C109.13 162.109 109.13 162.099 109.13 162.079L109.15 170.209C109.15 170.479 108.97 170.749 108.62 170.949C108.58 170.969 108.53 170.999 108.49 171.019C108.47 171.019 108.46 171.029 108.44 171.039C108.41 171.049 108.39 171.059 108.36 171.079H108.35L108.32 171.099C108.32 171.099 108.25 171.129 108.21 171.139H108.17L108.14 171.159C108.14 171.159 108.11 171.159 108.09 171.169C108.05 171.169 108.02 171.189 107.98 171.199H107.95C107.95 171.199 107.92 171.209 107.91 171.219C107.88 171.219 107.85 171.229 107.81 171.239H107.73C107.73 171.239 107.67 171.259 107.64 171.259H107.56C107.56 171.259 107.5 171.269 107.47 171.269C107.45 171.269 107.44 171.269 107.42 171.269C107.41 171.269 107.4 171.269 107.38 171.269C107.35 171.269 107.31 171.269 107.28 171.269C107.26 171.269 107.25 171.269 107.23 171.269H107.2C107.2 171.269 107.12 171.269 107.08 171.259C107.06 171.259 107.05 171.259 107.03 171.259H106.97C106.97 171.259 106.89 171.239 106.85 171.239H106.8C106.8 171.239 106.76 171.219 106.74 171.219C106.71 171.219 106.67 171.209 106.64 171.199C106.62 171.199 106.59 171.189 106.57 171.179C106.54 171.179 106.51 171.159 106.48 171.149H106.46C106.46 171.149 106.39 171.119 106.35 171.109H106.33C106.33 171.109 106.25 171.069 106.21 171.049L106.18 171.029C106.18 171.029 106.1 170.989 106.06 170.969H106.04L106.02 170.939L105.99 170.919L105.96 170.899L105.93 170.879L105.9 170.859L105.87 170.839L105.85 170.819L105.82 170.799H105.81V170.779C105.81 170.779 105.77 170.749 105.76 170.739H105.75C105.75 170.739 105.72 170.689 105.7 170.669V170.649L105.67 170.609V170.589L105.64 170.559V170.539L105.62 170.509V170.489L105.6 170.459V170.409L105.58 170.389V170.359V170.229L105.55 162.099V162.129H105.56Z" fill="#766052"/>
<path d="M106.09 161.359C105.38 161.769 105.38 162.429 106.09 162.839C106.79 163.249 107.94 163.249 108.64 162.839C109.35 162.429 109.35 161.769 108.64 161.359C107.93 160.949 106.79 160.949 106.09 161.359Z" fill="white" stroke="black" stroke-width="0.5" stroke-linecap="round" stroke-linejoin="round"/>
<path d="M107.37 164.12C98.63 164.12 94.32 159.97 99.14 146.9C103.96 133.82 107.37 135.329 107.37 135.329C107.37 135.329 110.77 133.82 115.6 146.9C120.42 159.98 116.11 164.12 107.37 164.12Z" fill="#529640"/>
<path d="M99.1501 146.899C101.19 141.369 102.97 138.449 104.36 136.919C103.4 139.799 102.78 142.819 102.38 145.829C101.88 149.639 101.71 153.549 102.6 157.289C103.18 159.749 104.28 162.129 105.87 164.069C98.16 163.589 94.6101 159.199 99.1501 146.889V146.899Z" fill="#497739"/>
</svg>
