<svg width="321" height="381" viewBox="0 0 321 381" fill="none" xmlns="http://www.w3.org/2000/svg">
<g clip-path="url(#clip0_101_3562)">
<path d="M44.37 153.33V202.89L19.72 188.36L44.37 153.33Z" fill="#5DA04A"/>
<path d="M44.37 153.33V202.89L70.56 187.64L44.37 153.33Z" fill="#4E7F3E"/>
<path d="M44.37 153.33V169.08L42.88 166.09L37.9 170.4L38.9 164.93L34.89 166.52L44.37 153.33Z" fill="#B6DDAB"/>
<path d="M44.37 153.33V169.08L45.69 165.76L49.01 169.08V164.77L53 164.63L44.37 153.33Z" fill="#A0BF94"/>
<path d="M35.55 176.919L36.38 182.219H34.86L35.62 185.539H33.82L35.1 192.499L32.94 191.509L34.52 197.099L29.88 194.369V188.849L32.39 189.189L31.97 184.379L33.82 183.719L33.13 180.569H35L35.55 176.919Z" fill="#589344"/>
<path d="M28.41 178.25L29.02 182.14H27.9L28.46 184.58H27.13L28.07 189.69L26.49 188.96L27.65 193.07L24.24 191.06V187.01L26.08 187.25L25.78 183.719L27.13 183.24L26.63 180.919H28L28.41 178.25Z" fill="#589344"/>
<path d="M48.03 187.35L47.5 190.78H48.48L47.99 192.92H49.16L48.33 197.41L49.72 196.77L48.7 200.38L51.7 198.62V195.06L50.08 195.27L50.35 192.17L49.16 191.74L49.6 189.7H48.39L48.03 187.35Z" fill="#4A7239"/>
<path d="M69.0199 167.939V217.489L44.3699 202.959L69.0199 167.939Z" fill="#5DA04A"/>
<path d="M69.0199 167.939V217.489L95.2099 202.239L69.0199 167.939Z" fill="#4E7F3E"/>
<path d="M69.0198 167.939V183.679L67.5298 180.699L62.5498 185.009L63.5498 179.539L59.5398 181.119L69.0198 167.939Z" fill="#73AF5D"/>
<path d="M69.0199 167.939V183.679L70.3399 180.369L73.6599 183.679V179.369L77.6499 179.239L69.0199 167.939Z" fill="#629150"/>
<path d="M60.1999 191.529L61.0299 196.829H59.5099L60.2699 200.149H58.4698L59.7499 207.109L57.5899 206.109L59.1699 211.699L54.5299 208.969V203.459L57.0399 203.789L56.6199 198.989L58.4698 198.319L57.7799 195.169H59.6499L60.1999 191.529Z" fill="#589344"/>
<path d="M53.0599 192.85L53.6699 196.75H52.5499L53.1099 199.18H51.7799L52.7198 204.29L51.1399 203.56L52.2999 207.67L48.8899 205.66V201.62L50.7299 201.86L50.4299 198.33L51.7799 197.84L51.2799 195.53H52.6499L53.0599 192.85Z" fill="#589344"/>
<path d="M72.6799 201.959L72.1499 205.379H73.1299L72.6399 207.519H73.8099L72.9799 212.019L74.3699 211.379L73.3499 214.989L76.3499 213.219V209.659L74.7299 209.879L74.9999 206.769L73.8099 206.339L74.2499 204.309H73.0399L72.6799 201.959Z" fill="#4A7239"/>
<path d="M93.67 182.54V232.1L69.02 217.57L93.67 182.54Z" fill="#5DA04A"/>
<path d="M93.6699 182.54V232.1L119.86 216.85L93.6699 182.54Z" fill="#4E7F3E"/>
<path d="M93.6699 182.54V198.29L92.1799 195.3L87.2 199.61L88.2 194.14L84.1899 195.73L93.6699 182.54Z" fill="#B6DDAB"/>
<path d="M93.6699 182.54V198.29L94.9899 194.97L98.3099 198.29V193.98L102.3 193.85L93.6699 182.54Z" fill="#A0BF94"/>
<path d="M84.8499 206.129L85.6799 211.439H84.1599L84.9199 214.749H83.1199L84.4 221.709L82.2399 220.719L83.8199 226.309L79.1799 223.579V218.069L81.6899 218.399L81.27 213.589L83.1199 212.929L82.4299 209.779H84.2999L84.8499 206.129Z" fill="#589344"/>
<path d="M77.7101 207.459L78.3201 211.349H77.2001L77.7601 213.789H76.4301L77.3701 218.899L75.79 218.169L76.9501 222.279L73.54 220.269V216.219L75.3801 216.469L75.0801 212.939L76.4301 212.449L75.9301 210.139H77.3L77.7101 207.459Z" fill="#589344"/>
<path d="M97.3301 216.56L96.8 219.99H97.7801L97.29 222.13H98.4601L97.6301 226.62L99.0201 225.98L98.0001 229.59L101 227.83V224.27L99.3801 224.48L99.6501 221.38L98.4601 220.95L98.9001 218.92H97.6901L97.3301 216.56Z" fill="#4A7239"/>
<path d="M118.32 197.15V246.7L93.6699 232.18L118.32 197.15Z" fill="#5DA04A"/>
<path d="M118.32 197.15V246.7L144.51 231.46L118.32 197.15Z" fill="#4E7F3E"/>
<path d="M118.32 197.15V212.89L116.83 209.91L111.85 214.22L112.85 208.75L108.84 210.34L118.32 197.15Z" fill="#73AF5D"/>
<path d="M118.32 197.15V212.89L119.64 209.58L122.96 212.89V208.58L126.95 208.45L118.32 197.15Z" fill="#629150"/>
<path d="M109.5 220.74L110.33 226.04H108.81L109.57 229.36H107.77L109.05 236.32L106.89 235.32L108.47 240.92L103.83 238.18V232.67L106.34 233L105.92 228.2L107.77 227.53L107.08 224.38H108.95L109.5 220.74Z" fill="#589344"/>
<path d="M102.36 222.06L102.97 225.96H101.85L102.41 228.39H101.08L102.02 233.51L100.44 232.78L101.6 236.88L98.1899 234.88V230.83L100.03 231.07L99.7299 227.54L101.08 227.05L100.58 224.74H101.95L102.36 222.06Z" fill="#589344"/>
<path d="M121.98 231.17L121.45 234.59H122.43L121.94 236.73H123.11L122.28 241.23L123.67 240.59L122.65 244.2L125.65 242.43V238.87L124.03 239.09L124.3 235.98L123.11 235.56L123.55 233.52H122.34L121.98 231.17Z" fill="#4A7239"/>
<path d="M142.97 211.75V261.31L118.32 246.78L142.97 211.75Z" fill="#5DA04A"/>
<path d="M142.97 211.75V261.31L169.16 246.06L142.97 211.75Z" fill="#4E7F3E"/>
<path d="M142.97 211.75V227.5L141.48 224.52L136.5 228.83L137.5 223.36L133.49 224.94L142.97 211.75Z" fill="#B6DDAB"/>
<path d="M142.97 211.75V227.5L144.29 224.18L147.61 227.5V223.19L151.6 223.06L142.97 211.75Z" fill="#A0BF94"/>
<path d="M134.15 235.34L134.98 240.65H133.46L134.22 243.96H132.42L133.7 250.92L131.54 249.93L133.12 255.52L128.48 252.79V247.28L130.99 247.61L130.57 242.8L132.42 242.14L131.73 238.99H133.6L134.15 235.34Z" fill="#589344"/>
<path d="M127.01 236.67L127.62 240.57H126.5L127.06 243H125.73L126.67 248.11L125.09 247.38L126.25 251.49L122.84 249.48V245.43L124.68 245.68L124.38 242.15L125.73 241.66L125.23 239.35H126.6L127.01 236.67Z" fill="#589344"/>
<path d="M146.63 245.77L146.1 249.2H147.08L146.59 251.34H147.76L146.93 255.84L148.32 255.19L147.3 258.8L150.3 257.04V253.48L148.68 253.69L148.95 250.59L147.76 250.16L148.2 248.13H146.99L146.63 245.77Z" fill="#4A7239"/>
<path d="M171.19 227.9V279.96L145.3 264.7L171.19 227.9Z" fill="#5DA04A"/>
<path d="M171.19 227.9V279.96L198.71 263.95L171.19 227.9Z" fill="#4E7F3E"/>
<path d="M171.19 227.9V244.44L169.63 241.31L164.4 245.84L165.45 240.09L161.23 241.76L171.19 227.9Z" fill="#73AF5D"/>
<path d="M171.19 227.9V244.44L172.59 240.96L176.07 244.44V239.92L180.26 239.78L171.19 227.9Z" fill="#629150"/>
<path d="M161.93 252.69L162.8 258.26H161.21L162 261.74H160.11L161.45 269.05L159.18 268.01L160.84 273.88L155.97 271.01V265.22L158.61 265.57L158.17 260.52L160.11 259.82L159.39 256.52H161.35L161.93 252.69Z" fill="#589344"/>
<path d="M154.43 254.08L155.07 258.17H153.9L154.48 260.73H153.09L154.08 266.1L152.41 265.33L153.63 269.65L150.05 267.54V263.29L151.98 263.54L151.67 259.83L153.09 259.32L152.56 256.89H154L154.43 254.08Z" fill="#589344"/>
<path d="M175.05 263.64L174.49 267.24H175.51L175 269.49H176.22L175.35 274.21L176.82 273.54L175.75 277.33L178.9 275.48V271.74L177.19 271.96L177.47 268.7L176.22 268.25L176.69 266.12H175.42L175.05 263.64Z" fill="#4A7239"/>
<path d="M222.81 210.979V309.09L174.01 280.33L222.81 210.979Z" fill="#5DA04A"/>
<path d="M222.81 210.979V309.09L274.65 278.9L222.81 210.979Z" fill="#4E7F3E"/>
<path d="M222.81 210.979V242.15L219.86 236.25L210.01 244.78L211.98 233.95L204.04 237.09L222.81 210.979Z" fill="#B6DDAB"/>
<path d="M222.81 210.979V242.15L225.44 235.59L232 242.15V233.62L239.89 233.359L222.81 210.979Z" fill="#A0BF94"/>
<path d="M205.36 257.68L206.99 268.18H203.99L205.49 274.75H201.92L204.46 288.53L200.18 286.56L203.31 297.63L194.12 292.22V281.31L199.09 281.96L198.27 272.45L201.92 271.14L200.56 264.9H204.27L205.36 257.68Z" fill="#589344"/>
<path d="M191.22 260.31L192.42 268.02H190.22L191.32 272.84H188.69L190.55 282.96L187.41 281.51L189.71 289.65L182.97 285.67V277.66L186.61 278.14L186.01 271.15L188.69 270.19L187.69 265.61H190.42L191.22 260.31Z" fill="#589344"/>
<path d="M230.07 278.33L229.01 285.11H230.95L229.98 289.35H232.29L230.65 298.25L233.41 296.98L231.39 304.13L237.32 300.63V293.59L234.12 294.01L234.64 287.87L232.29 287.02L233.17 282.99H230.77L230.07 278.33Z" fill="#4A7239"/>
<path d="M304.08 218.33V323.3L251.86 292.52L304.08 218.33Z" fill="#5DA04A"/>
<path d="M304.08 218.33V323.3L359.55 291L304.08 218.33Z" fill="#4E7F3E"/>
<path d="M304.08 218.33V251.68L300.92 245.36L290.39 254.49L292.5 242.9L283.99 246.26L304.08 218.33Z" fill="#B6DDAB"/>
<path d="M304.08 218.33V251.68L306.89 244.66L313.91 251.68V242.55L322.36 242.27L304.08 218.33Z" fill="#A0BF94"/>
<path d="M285.4 268.3L287.15 279.53H283.95L285.55 286.55H281.73L284.44 301.3L279.86 299.19L283.21 311.04L273.39 305.25V293.58L278.7 294.28L277.82 284.1L281.73 282.69L280.27 276.02H284.24L285.4 268.3Z" fill="#589344"/>
<path d="M270.27 271.109L271.56 279.359H269.2L270.38 284.509H267.57L269.57 295.339L266.21 293.799L268.66 302.499L261.45 298.239V289.669L265.35 290.189L264.71 282.709L267.57 281.679L266.5 276.779H269.42L270.27 271.109Z" fill="#589344"/>
<path d="M311.85 290.39L310.72 297.64H312.79L311.75 302.18H314.22L312.47 311.7L315.42 310.34L313.26 317.99L319.61 314.25V306.71L316.18 307.17L316.74 300.59L314.22 299.68L315.16 295.38H312.6L311.85 290.39Z" fill="#4A7239"/>
</g>
<defs>
<clipPath id="clip0_101_3562">
<rect width="321" height="381" fill="white"/>
</clipPath>
</defs>
</svg>
