<svg width="321" height="381" viewBox="0 0 321 381" fill="none" xmlns="http://www.w3.org/2000/svg">
<path d="M47.34 261.65C50.3278 261.65 52.7499 260.611 52.7499 259.33C52.7499 258.048 50.3278 257.01 47.34 257.01C44.3521 257.01 41.9299 258.048 41.9299 259.33C41.9299 260.611 44.3521 261.65 47.34 261.65Z" fill="#64AE47"/>
<path d="M46.0099 252.629V252.699L46.0299 252.719V252.759L46.0499 252.779V252.799L46.0699 252.819V252.839L46.0899 252.859V252.879H46.1099L46.1299 252.919C46.1299 252.919 46.1499 252.959 46.1599 252.969L46.1899 253.009H46.1999L46.2198 253.039L46.2399 253.059L46.2599 253.079H46.2799L46.2999 253.109H46.3199L46.3399 253.139L46.3699 253.159C46.3699 253.159 46.4299 253.189 46.4599 253.209H46.4799C46.4799 253.209 46.5399 253.249 46.5699 253.259H46.5799C46.5799 253.259 46.6399 253.289 46.6799 253.299C46.6999 253.299 46.7299 253.309 46.7499 253.319C46.7699 253.319 46.7799 253.319 46.7999 253.329C46.8199 253.329 46.8499 253.339 46.8699 253.349C46.8899 253.349 46.9099 253.349 46.9199 253.359H46.9399C46.9399 253.359 46.9999 253.369 47.0299 253.379H47.0599C47.0599 253.379 47.0999 253.379 47.1099 253.379C47.1399 253.379 47.1699 253.379 47.1999 253.379H47.2599C47.2599 253.379 47.3099 253.379 47.3299 253.379H47.3899C47.3899 253.379 47.4299 253.379 47.4599 253.379H47.5199C47.5199 253.379 47.5599 253.379 47.5899 253.369H47.6499C47.6499 253.369 47.6998 253.349 47.7198 253.349H47.7699C47.7699 253.349 47.8299 253.329 47.8499 253.319C47.8699 253.319 47.8899 253.319 47.8999 253.309H47.9299C47.9299 253.309 47.9799 253.279 48.0099 253.269H48.0299C48.0299 253.269 48.0799 253.239 48.0999 253.229H48.1299C48.1299 253.229 48.1999 253.179 48.2299 253.159C48.4299 253.049 48.5499 252.909 48.5999 252.759C48.5999 252.739 48.6099 252.709 48.6199 252.689V252.649C48.6199 252.649 48.6199 252.629 48.6199 252.609V258.579C48.6299 258.779 48.4999 258.979 48.2399 259.129C48.2099 259.149 48.1799 259.159 48.1399 259.179H48.1099C48.1099 259.179 48.0699 259.209 48.0499 259.219H48.0199C48.0199 259.219 47.9699 259.249 47.9399 259.259H47.8899L47.8599 259.279C47.8599 259.279 47.8099 259.289 47.7799 259.299H47.7299C47.7299 259.299 47.6799 259.319 47.6599 259.319H47.5999C47.5999 259.319 47.5599 259.329 47.5299 259.339H47.4698C47.4698 259.339 47.4299 259.339 47.3999 259.339H47.3699C47.3699 259.339 47.3499 259.339 47.3399 259.339C47.3199 259.339 47.2899 259.339 47.2699 259.339C47.2599 259.339 47.2499 259.339 47.2299 259.339H47.2099C47.2099 259.339 47.1499 259.339 47.1199 259.339H47.0399C47.0399 259.339 46.9799 259.319 46.9499 259.319H46.9199C46.9199 259.319 46.8899 259.309 46.8799 259.309C46.8599 259.309 46.8299 259.309 46.8099 259.289C46.7899 259.289 46.7799 259.289 46.7599 259.279C46.7399 259.279 46.7099 259.269 46.6899 259.259H46.6799C46.6799 259.259 46.6299 259.239 46.5999 259.229H46.5899C46.5899 259.229 46.5299 259.199 46.5099 259.189H46.4899C46.4899 259.189 46.4299 259.149 46.3999 259.129H46.3799V259.109L46.3399 259.089H46.3199L46.2999 259.059H46.2799L46.2599 259.029L46.2399 259.009L46.2198 258.989H46.2099L46.1799 258.949C46.1799 258.949 46.1599 258.909 46.1499 258.899L46.1299 258.859V258.819H46.1099V258.799L46.0899 258.779V258.759L46.0699 258.739V258.689L46.0499 258.669V258.599V252.629H46.0099Z" fill="#766052"/>
<path d="M46.3999 252.059C45.8799 252.359 45.8799 252.849 46.3999 253.149C46.9199 253.449 47.7499 253.449 48.2699 253.149C48.7899 252.849 48.7899 252.359 48.2699 252.059C47.7499 251.759 46.9199 251.759 46.3999 252.059Z" fill="white" stroke="black" stroke-width="0.5" stroke-linecap="round" stroke-linejoin="round"/>
<path d="M47.3399 254.09C40.9299 254.09 37.7598 251.05 41.2998 241.45C44.8398 231.85 47.3399 232.96 47.3399 232.96C47.3399 232.96 49.8399 231.85 53.3799 241.45C56.9199 251.05 53.7599 254.09 47.3399 254.09Z" fill="#62AB51"/>
<path d="M41.31 241.449C42.81 237.389 44.12 235.249 45.13 234.129C44.42 236.239 43.9699 238.459 43.6799 240.669C43.3199 243.469 43.19 246.339 43.84 249.079C44.27 250.879 45.0799 252.629 46.2399 254.059C40.5799 253.709 37.98 250.479 41.31 241.449Z" fill="#548945"/>
<path d="M26.7799 237.99C28.5086 237.99 29.9099 237.39 29.9099 236.65C29.9099 235.91 28.5086 235.31 26.7799 235.31C25.0513 235.31 23.6499 235.91 23.6499 236.65C23.6499 237.39 25.0513 237.99 26.7799 237.99Z" fill="#64AE47"/>
<path d="M26.01 232.77V232.79V232.81V232.83V232.85V232.87H26.02V232.89H26.03V232.91H26.05V232.93L26.07 232.95L26.09 232.97V232.99H26.11V233.01H26.13V233.03H26.16V233.05H26.19C26.19 233.05 26.22 233.08 26.24 233.09H26.25C26.25 233.09 26.28 233.11 26.3 233.12C26.3 233.12 26.34 233.14 26.36 233.14H26.4L26.43 233.16H26.47L26.5 233.18H26.51C26.51 233.18 26.55 233.18 26.56 233.18H26.61C26.61 233.18 26.64 233.18 26.66 233.18H26.69C26.69 233.18 26.72 233.18 26.73 233.18H26.88L26.91 233.16H26.98L27.03 233.13H27.08C27.08 233.13 27.11 233.11 27.13 233.1H27.14C27.14 233.1 27.17 233.08 27.18 233.08H27.2C27.2 233.08 27.24 233.05 27.26 233.04C27.37 232.97 27.44 232.89 27.47 232.81C27.47 232.8 27.47 232.78 27.48 232.77V232.75C27.48 232.75 27.48 232.74 27.48 232.73V236.19C27.48 236.3 27.41 236.42 27.26 236.51C27.24 236.52 27.22 236.53 27.2 236.54H27.18L27.15 236.56H27.13C27.13 236.56 27.1 236.58 27.08 236.58H27.03C27.03 236.58 27 236.6 26.98 236.6H26.91L26.89 236.62H26.74C26.74 236.62 26.73 236.63 26.72 236.63C26.71 236.63 26.69 236.63 26.68 236.63C26.68 236.63 26.67 236.63 26.66 236.63H26.65C26.65 236.63 26.62 236.63 26.6 236.63H26.55C26.55 236.63 26.51 236.63 26.5 236.62H26.46L26.42 236.6H26.39L26.35 236.58C26.35 236.58 26.32 236.57 26.3 236.56C26.3 236.56 26.27 236.54 26.25 236.54H26.24C26.24 236.54 26.2 236.52 26.19 236.51H26.17V236.49H26.14V236.47H26.12V236.45H26.1V236.43H26.08L26.06 236.4L26.04 236.37V236.35H26.02V236.33H26.01V236.31H26V236.29V236.27V236.25V236.23V236.21V232.74L26.01 232.77Z" fill="#766052"/>
<path d="M26.24 232.44C25.94 232.61 25.94 232.89 26.24 233.07C26.54 233.24 27.02 233.24 27.32 233.07C27.62 232.9 27.62 232.62 27.32 232.44C27.02 232.26 26.54 232.27 26.24 232.44Z" fill="white" stroke="black" stroke-width="0.5" stroke-linecap="round" stroke-linejoin="round"/>
<path d="M26.78 233.62C23.07 233.62 21.23 231.86 23.28 226.3C25.33 220.74 26.78 221.38 26.78 221.38C26.78 221.38 28.23 220.74 30.28 226.3C32.33 231.86 30.5 233.62 26.78 233.62Z" fill="#62AB51"/>
<path d="M23.2899 226.3C24.1599 223.95 24.92 222.71 25.5 222.06C25.09 223.28 24.8299 224.57 24.6599 225.85C24.4499 227.47 24.37 229.13 24.75 230.72C25 231.76 25.47 232.78 26.14 233.6C22.86 233.4 21.35 231.53 23.28 226.3H23.2899Z" fill="#548945"/>
<path d="M205.86 335.74C208.191 335.74 210.08 334.93 210.08 333.93C210.08 332.93 208.191 332.12 205.86 332.12C203.529 332.12 201.64 332.93 201.64 333.93C201.64 334.93 203.529 335.74 205.86 335.74Z" fill="#97C483"/>
<path d="M204.82 328.69V328.71V328.74V328.77V328.8H204.83V328.83H204.84V328.86H204.85V328.89H204.87V328.92H204.89C204.89 328.92 204.91 328.95 204.92 328.96L204.94 328.99H204.95V329.01H204.98L205 329.03H205.02L205.04 329.05H205.06L205.08 329.07H205.1C205.1 329.07 205.15 329.11 205.17 329.12H205.19C205.19 329.12 205.23 329.15 205.26 329.16C205.26 329.16 205.31 329.18 205.33 329.19C205.35 329.19 205.37 329.2 205.38 329.21H205.42C205.42 329.21 205.46 329.23 205.48 329.23H205.54C205.54 329.23 205.59 329.25 205.61 329.25H205.67C205.67 329.25 205.72 329.25 205.74 329.26H205.78C205.78 329.26 205.82 329.26 205.84 329.26H206.04L206.09 329.24H206.14L206.18 329.22C206.18 329.22 206.22 329.21 206.24 329.2H206.28L206.3 329.18C206.3 329.18 206.34 329.17 206.36 329.16H206.38C206.38 329.16 206.42 329.14 206.43 329.13H206.46C206.46 329.13 206.51 329.09 206.54 329.08C206.69 328.99 206.79 328.88 206.83 328.77C206.83 328.75 206.84 328.73 206.84 328.71V328.68C206.84 328.68 206.84 328.66 206.84 328.65V333.31C206.84 333.46 206.75 333.62 206.54 333.74C206.52 333.75 206.49 333.77 206.46 333.78H206.43C206.43 333.78 206.4 333.81 206.38 333.81H206.35C206.35 333.81 206.31 333.83 206.29 333.84H206.25L206.22 333.86C206.22 333.86 206.18 333.87 206.16 333.88H206.12L206.07 333.9H205.97L205.95 333.92H205.85C205.85 333.92 205.84 333.92 205.83 333.92C205.81 333.92 205.79 333.92 205.77 333.92C205.77 333.92 205.75 333.92 205.74 333.92H205.72C205.72 333.92 205.67 333.92 205.65 333.92H205.59C205.59 333.92 205.54 333.91 205.52 333.9H205.46C205.46 333.9 205.42 333.88 205.4 333.88H205.36C205.36 333.88 205.32 333.86 205.31 333.85H205.3C205.3 333.85 205.26 333.83 205.24 333.82C205.24 333.82 205.2 333.8 205.17 333.79H205.15C205.15 333.79 205.1 333.76 205.08 333.74H205.06L205.04 333.71H205.02L205 333.69H204.98L204.96 333.67H204.95V333.65H204.92L204.9 333.62C204.9 333.62 204.88 333.59 204.87 333.58V333.55H204.85V333.52H204.83V333.49H204.82V333.46H204.81V333.43V333.4V333.37V333.34V328.68L204.82 328.69Z" fill="#766052"/>
<path d="M205.13 328.24C204.72 328.47 204.72 328.85 205.13 329.09C205.53 329.32 206.19 329.32 206.59 329.09C206.99 328.86 207 328.48 206.59 328.24C206.18 328 205.53 328.01 205.13 328.24Z" fill="white" stroke="black" stroke-width="0.5" stroke-linecap="round" stroke-linejoin="round"/>
<path d="M205.86 329.83C200.85 329.83 198.38 327.45 201.14 319.95C203.91 312.45 205.86 313.32 205.86 313.32C205.86 313.32 207.81 312.45 210.58 319.95C213.35 327.45 210.87 329.83 205.86 329.83Z" fill="#548945"/>
<path d="M201.14 319.95C202.31 316.78 203.33 315.11 204.13 314.23C203.58 315.88 203.22 317.61 203 319.34C202.71 321.53 202.61 323.77 203.12 325.91C203.46 327.32 204.09 328.68 205 329.8C200.58 329.53 198.54 327 201.15 319.95H201.14Z" fill="#41782D"/>
<path d="M108.98 327.68C111.669 327.68 113.85 326.744 113.85 325.59C113.85 324.436 111.669 323.5 108.98 323.5C106.29 323.5 104.11 324.436 104.11 325.59C104.11 326.744 106.29 327.68 108.98 327.68Z" fill="#97C483"/>
<path d="M107.79 319.56V319.64L107.81 319.66V319.69L107.83 319.71V319.73L107.85 319.75V319.79H107.87L107.89 319.83C107.89 319.83 107.91 319.86 107.92 319.88L107.95 319.92H107.96L107.98 319.95H108L108.02 319.98H108.04L108.06 320.01H108.08L108.1 320.04L108.13 320.06C108.13 320.06 108.18 320.09 108.21 320.1H108.23C108.23 320.1 108.28 320.13 108.31 320.14C108.31 320.14 108.37 320.16 108.4 320.17C108.42 320.17 108.44 320.18 108.46 320.19C108.48 320.19 108.49 320.19 108.51 320.2C108.53 320.2 108.55 320.2 108.58 320.21C108.6 320.21 108.61 320.21 108.63 320.21H108.65C108.65 320.21 108.7 320.22 108.73 320.22H108.8C108.8 320.22 108.85 320.23 108.88 320.23H108.93C108.93 320.23 108.97 320.23 109 320.23H109.17L109.23 320.21H109.28C109.28 320.21 109.32 320.2 109.34 320.19H109.39C109.39 320.19 109.44 320.17 109.46 320.16C109.48 320.16 109.49 320.16 109.51 320.15H109.54C109.54 320.15 109.59 320.13 109.61 320.12H109.63C109.63 320.12 109.67 320.09 109.69 320.09H109.72C109.72 320.09 109.78 320.05 109.81 320.03C109.99 319.93 110.1 319.8 110.14 319.67C110.14 319.65 110.15 319.63 110.16 319.6V319.57C110.16 319.57 110.16 319.55 110.16 319.54V324.91C110.17 325.09 110.05 325.27 109.82 325.4C109.79 325.42 109.76 325.43 109.73 325.45H109.7C109.7 325.45 109.66 325.48 109.65 325.49H109.62C109.62 325.49 109.57 325.52 109.55 325.53H109.51L109.48 325.55C109.48 325.55 109.43 325.56 109.41 325.57H109.36C109.36 325.57 109.32 325.59 109.3 325.59H109.19L109.16 325.61H109.04H109.02C109 325.61 108.98 325.61 108.95 325.61C108.94 325.61 108.93 325.61 108.92 325.61H108.9C108.9 325.61 108.85 325.61 108.82 325.61H108.75C108.75 325.61 108.69 325.6 108.67 325.59H108.6C108.6 325.59 108.56 325.57 108.53 325.56H108.48C108.48 325.56 108.44 325.54 108.42 325.53H108.41C108.41 325.53 108.36 325.51 108.34 325.5H108.33C108.33 325.5 108.28 325.47 108.25 325.46H108.23C108.23 325.46 108.18 325.42 108.15 325.41H108.14V325.39H108.11L108.09 325.36H108.07L108.05 325.33H108.03L108.01 325.3L107.99 325.28H107.98L107.95 325.24C107.95 325.24 107.93 325.21 107.92 325.19L107.9 325.16V325.13H107.88V325.1L107.86 325.08V325.06H107.85V325.01L107.83 324.99V324.92V319.55L107.79 319.56Z" fill="#766052"/>
<path d="M108.14 319.04C107.67 319.31 107.67 319.75 108.14 320.02C108.6 320.29 109.36 320.29 109.83 320.02C110.3 319.75 110.3 319.31 109.83 319.04C109.36 318.77 108.61 318.77 108.14 319.04Z" fill="white" stroke="black" stroke-width="0.5" stroke-linecap="round" stroke-linejoin="round"/>
<path d="M108.99 320.87C103.22 320.87 100.37 318.13 103.56 309.49C106.75 300.85 108.99 301.85 108.99 301.85C108.99 301.85 111.24 300.85 114.42 309.49C117.61 318.13 114.76 320.87 108.99 320.87Z" fill="#62AB51"/>
<path d="M103.55 309.5C104.9 305.85 106.08 303.92 106.99 302.91C106.35 304.81 105.94 306.81 105.68 308.8C105.35 311.32 105.24 313.9 105.82 316.37C106.21 317.99 106.93 319.56 107.98 320.85C102.89 320.53 100.54 317.63 103.54 309.5H103.55Z" fill="#548945"/>
<path d="M135.37 328.13C137.701 328.13 139.59 327.319 139.59 326.32C139.59 325.32 137.701 324.51 135.37 324.51C133.039 324.51 131.15 325.32 131.15 326.32C131.15 327.319 133.039 328.13 135.37 328.13Z" fill="#97C483"/>
<path d="M134.33 321.09V321.11V321.14V321.17V321.2H134.34V321.23H134.35V321.26H134.36V321.29H134.38V321.32H134.4C134.4 321.32 134.42 321.35 134.43 321.36L134.45 321.39H134.46V321.41H134.49L134.51 321.43H134.53L134.55 321.45H134.57L134.59 321.47H134.61C134.61 321.47 134.66 321.51 134.68 321.52H134.7C134.7 321.52 134.74 321.55 134.77 321.56C134.77 321.56 134.82 321.58 134.84 321.59C134.86 321.59 134.88 321.6 134.89 321.61H134.93C134.93 321.61 134.97 321.63 134.99 321.63H135.05C135.05 321.63 135.1 321.65 135.12 321.65H135.18C135.18 321.65 135.23 321.65 135.25 321.66H135.29C135.29 321.66 135.33 321.66 135.35 321.66H135.55L135.6 321.64H135.65L135.69 321.62C135.69 321.62 135.73 321.61 135.75 321.6H135.79L135.81 321.58C135.81 321.58 135.85 321.57 135.87 321.56H135.89C135.89 321.56 135.93 321.54 135.94 321.53H135.97C135.97 321.53 136.02 321.49 136.05 321.48C136.2 321.39 136.3 321.28 136.34 321.17C136.34 321.15 136.35 321.13 136.35 321.11V321.08C136.35 321.08 136.35 321.06 136.35 321.05V325.71C136.35 325.86 136.26 326.02 136.05 326.14C136.03 326.15 136 326.17 135.97 326.18H135.94C135.94 326.18 135.91 326.21 135.89 326.21H135.86C135.86 326.21 135.82 326.23 135.8 326.24H135.76L135.73 326.26C135.73 326.26 135.69 326.27 135.67 326.28H135.63L135.58 326.3H135.48L135.46 326.32H135.36C135.36 326.32 135.35 326.32 135.34 326.32C135.32 326.32 135.3 326.32 135.28 326.32C135.28 326.32 135.26 326.32 135.25 326.32H135.23C135.23 326.32 135.18 326.32 135.16 326.32H135.1C135.1 326.32 135.05 326.31 135.03 326.3H134.97C134.97 326.3 134.93 326.28 134.91 326.28H134.87C134.87 326.28 134.83 326.26 134.82 326.25H134.81C134.81 326.25 134.77 326.23 134.75 326.22C134.75 326.22 134.71 326.2 134.68 326.19H134.66C134.66 326.19 134.61 326.16 134.59 326.14H134.57L134.55 326.11H134.53L134.51 326.09H134.49L134.47 326.07H134.46V326.05H134.43L134.41 326.02C134.41 326.02 134.39 325.99 134.38 325.98V325.95H134.36V325.92H134.34V325.89H134.33V325.86H134.32V325.83V325.8V325.77V325.74V321.08L134.33 321.09Z" fill="#766052"/>
<path d="M134.64 320.64C134.23 320.87 134.23 321.25 134.64 321.49C135.04 321.72 135.7 321.72 136.1 321.49C136.5 321.26 136.51 320.88 136.1 320.64C135.69 320.4 135.04 320.41 134.64 320.64Z" fill="white" stroke="black" stroke-width="0.5" stroke-linecap="round" stroke-linejoin="round"/>
<path d="M135.37 322.23C130.36 322.23 127.89 319.85 130.65 312.35C133.42 304.85 135.37 305.72 135.37 305.72C135.37 305.72 137.32 304.85 140.09 312.35C142.86 319.85 140.38 322.23 135.37 322.23Z" fill="#62AB51"/>
<path d="M130.65 312.35C131.82 309.18 132.84 307.51 133.64 306.63C133.09 308.28 132.73 310.01 132.51 311.74C132.22 313.93 132.12 316.17 132.63 318.31C132.97 319.72 133.6 321.08 134.51 322.2C130.09 321.93 128.05 319.4 130.66 312.35H130.65Z" fill="#548945"/>
<path d="M143.31 343.07C145.232 343.07 146.79 342.493 146.79 341.78C146.79 341.068 145.232 340.49 143.31 340.49C141.388 340.49 139.83 341.068 139.83 341.78C139.83 342.493 141.388 343.07 143.31 343.07Z" fill="#97C483"/>
<path d="M142.28 337.11V337.13V337.16V337.19V337.22V337.25H142.29V337.28H142.3V337.31H142.32V337.34H142.34C142.34 337.34 142.36 337.37 142.37 337.38L142.39 337.41H142.4V337.43H142.43L142.45 337.45H142.47L142.49 337.47H142.51L142.53 337.49H142.55C142.55 337.49 142.6 337.53 142.62 337.54H142.64C142.64 337.54 142.68 337.57 142.71 337.58C142.71 337.58 142.76 337.6 142.78 337.61C142.8 337.61 142.81 337.62 142.83 337.62H142.87C142.87 337.62 142.91 337.64 142.93 337.64H142.99C142.99 337.64 143.04 337.66 143.06 337.66H143.12C143.12 337.66 143.17 337.66 143.19 337.67H143.23C143.23 337.67 143.27 337.67 143.29 337.67H143.49L143.54 337.65H143.59L143.63 337.63C143.63 337.63 143.67 337.63 143.69 337.61H143.73L143.75 337.59C143.75 337.59 143.79 337.58 143.81 337.57H143.83C143.83 337.57 143.87 337.55 143.88 337.54H143.91C143.91 337.54 143.96 337.5 143.98 337.49C144.13 337.4 144.23 337.3 144.26 337.18C144.26 337.16 144.27 337.14 144.27 337.12V337.09C144.27 337.09 144.27 337.07 144.27 337.06V341.66C144.27 341.81 144.18 341.96 143.98 342.08C143.96 342.09 143.93 342.11 143.91 342.12H143.88C143.88 342.12 143.85 342.15 143.83 342.15H143.8C143.8 342.15 143.76 342.17 143.74 342.18H143.7L143.67 342.2C143.67 342.2 143.63 342.21 143.61 342.22H143.57L143.52 342.24H143.4L143.38 342.26H143.3C143.3 342.26 143.29 342.26 143.28 342.26C143.26 342.26 143.24 342.26 143.22 342.26C143.22 342.26 143.2 342.26 143.19 342.26H143.17C143.17 342.26 143.12 342.26 143.1 342.26H143.04C143.04 342.26 142.99 342.25 142.97 342.24H142.91C142.91 342.24 142.87 342.22 142.85 342.22H142.81C142.81 342.22 142.77 342.2 142.76 342.19H142.75C142.75 342.19 142.71 342.17 142.69 342.16C142.69 342.16 142.65 342.14 142.62 342.13H142.6C142.6 342.13 142.55 342.1 142.53 342.09H142.51L142.49 342.06H142.47L142.45 342.04H142.43L142.41 342.02H142.4V342H142.37L142.35 341.97C142.35 341.97 142.33 341.94 142.32 341.93V341.9H142.3V341.87H142.28V341.84H142.27V341.81H142.26V341.78V341.75V341.72V341.69V337.09L142.28 337.11Z" fill="#766052"/>
<path d="M142.58 336.67C142.18 336.9 142.18 337.28 142.58 337.51C142.98 337.74 143.62 337.74 144.02 337.51C144.42 337.28 144.42 336.9 144.02 336.67C143.62 336.44 142.98 336.44 142.58 336.67Z" fill="white" stroke="black" stroke-width="0.5" stroke-linecap="round" stroke-linejoin="round"/>
<path d="M143.31 338.23C138.37 338.23 135.93 335.88 138.66 328.49C141.39 321.09 143.31 321.95 143.31 321.95C143.31 321.95 145.23 321.1 147.96 328.49C150.69 335.89 148.25 338.23 143.31 338.23Z" fill="#548945"/>
<path d="M138.65 328.49C139.8 325.36 140.81 323.71 141.59 322.85C141.04 324.48 140.69 326.19 140.47 327.89C140.19 330.05 140.09 332.26 140.59 334.37C140.92 335.76 141.54 337.11 142.44 338.21C138.08 337.94 136.07 335.45 138.64 328.49H138.65Z" fill="#41782D"/>
<path d="M155.4 351.54C156.875 351.54 158.07 351.097 158.07 350.55C158.07 350.003 156.875 349.56 155.4 349.56C153.925 349.56 152.73 350.003 152.73 350.55C152.73 351.097 153.925 351.54 155.4 351.54Z" fill="#97C483"/>
<path d="M154.62 346.97V346.99V347.01V347.03V347.05V347.07H154.63V347.09H154.64V347.11L154.66 347.13L154.68 347.16L154.7 347.18V347.2H154.72V347.22H154.74V347.24H154.77V347.26H154.8C154.8 347.26 154.83 347.29 154.85 347.3H154.86C154.86 347.3 154.89 347.32 154.91 347.33C154.91 347.33 154.95 347.35 154.97 347.35H155.01L155.04 347.37H155.08L155.11 347.39H155.12C155.12 347.39 155.16 347.39 155.17 347.39H155.22C155.22 347.39 155.26 347.39 155.27 347.39H155.3C155.3 347.39 155.33 347.39 155.34 347.39H155.49L155.53 347.37H155.6C155.6 347.37 155.63 347.35 155.65 347.34H155.7C155.7 347.34 155.73 347.32 155.75 347.31H155.76C155.76 347.31 155.79 347.29 155.8 347.29H155.82C155.82 347.29 155.86 347.26 155.88 347.25C156 347.18 156.07 347.1 156.1 347.01C156.1 347 156.1 346.98 156.11 346.97V346.95C156.11 346.95 156.11 346.94 156.11 346.93V350.46C156.11 350.58 156.04 350.69 155.89 350.78C155.87 350.79 155.85 350.8 155.83 350.81H155.81L155.77 350.83H155.75C155.75 350.83 155.72 350.85 155.7 350.85H155.65C155.65 350.85 155.62 350.87 155.6 350.88H155.53L155.51 350.9H155.36C155.36 350.9 155.35 350.91 155.34 350.91C155.33 350.91 155.31 350.91 155.3 350.91C155.3 350.91 155.29 350.91 155.28 350.91H155.27C155.27 350.91 155.23 350.91 155.22 350.91H155.17C155.17 350.91 155.13 350.91 155.12 350.9H155.07L155.03 350.88H155L154.96 350.86C154.96 350.86 154.93 350.85 154.91 350.84C154.91 350.84 154.88 350.82 154.86 350.82H154.85C154.85 350.82 154.81 350.8 154.8 350.79H154.78V350.77H154.75V350.75H154.73V350.73H154.71V350.71H154.69L154.67 350.68L154.65 350.65V350.63H154.63V350.61H154.62V350.59H154.61V350.57V350.55V350.53V350.51V350.49V346.94L154.62 346.97Z" fill="#766052"/>
<path d="M154.85 346.63C154.54 346.81 154.54 347.09 154.85 347.27C155.16 347.45 155.65 347.45 155.96 347.27C156.27 347.09 156.27 346.81 155.96 346.63C155.65 346.45 155.16 346.45 154.85 346.63Z" fill="white" stroke="black" stroke-width="0.5" stroke-linecap="round" stroke-linejoin="round"/>
<path d="M155.4 347.83C151.6 347.83 149.73 346.03 151.83 340.35C153.92 334.67 155.4 335.33 155.4 335.33C155.4 335.33 156.88 334.67 158.97 340.35C161.06 346.03 159.19 347.83 155.4 347.83Z" fill="#548945"/>
<path d="M151.83 340.35C152.72 337.95 153.49 336.68 154.09 336.02C153.67 337.27 153.4 338.58 153.23 339.89C153.01 341.54 152.94 343.24 153.32 344.87C153.57 345.94 154.05 346.97 154.74 347.82C151.39 347.61 149.85 345.7 151.82 340.36L151.83 340.35Z" fill="#41782D"/>
<path d="M181.33 338.83C182.804 338.83 184 338.387 184 337.84C184 337.293 182.804 336.85 181.33 336.85C179.855 336.85 178.66 337.293 178.66 337.84C178.66 338.387 179.855 338.83 181.33 338.83Z" fill="#97C483"/>
<path d="M180.54 334.25V334.27V334.29V334.31V334.33V334.35H180.55V334.37H180.56V334.39L180.58 334.41L180.6 334.44L180.62 334.46V334.48H180.64V334.5H180.66V334.52H180.69V334.54H180.72C180.72 334.54 180.75 334.57 180.77 334.58H180.78C180.78 334.58 180.81 334.6 180.83 334.61C180.83 334.61 180.87 334.63 180.89 334.63H180.93L180.96 334.65H181L181.03 334.67H181.04C181.04 334.67 181.08 334.67 181.09 334.67H181.14C181.14 334.67 181.18 334.67 181.19 334.67H181.22C181.22 334.67 181.25 334.67 181.26 334.67H181.41L181.45 334.65H181.52C181.52 334.65 181.55 334.63 181.57 334.62H181.62C181.62 334.62 181.65 334.6 181.67 334.59H181.68C181.68 334.59 181.71 334.57 181.72 334.57H181.74C181.74 334.57 181.78 334.54 181.8 334.53C181.92 334.46 181.99 334.38 182.02 334.29C182.02 334.28 182.02 334.26 182.03 334.25V334.23C182.03 334.23 182.03 334.22 182.03 334.21V337.74C182.03 337.86 181.96 337.97 181.81 338.06C181.79 338.07 181.77 338.08 181.75 338.09H181.73L181.69 338.11H181.67C181.67 338.11 181.64 338.13 181.62 338.13H181.57C181.57 338.13 181.54 338.15 181.52 338.16H181.45L181.43 338.18H181.28C181.28 338.18 181.27 338.19 181.26 338.19C181.25 338.19 181.23 338.19 181.22 338.19C181.22 338.19 181.21 338.19 181.2 338.19H181.19C181.19 338.19 181.15 338.19 181.14 338.19H181.09C181.09 338.19 181.05 338.19 181.04 338.18H180.99L180.95 338.16H180.92L180.88 338.14C180.88 338.14 180.85 338.13 180.83 338.12C180.83 338.12 180.8 338.1 180.78 338.1H180.77C180.77 338.1 180.73 338.08 180.72 338.07H180.7V338.05H180.67V338.03H180.65V338.01H180.63V337.99H180.61L180.59 337.96L180.57 337.93V337.91H180.55V337.89H180.54V337.87H180.53V337.85V337.83V337.81V337.79V337.77V334.22L180.54 334.25Z" fill="#766052"/>
<path d="M180.78 333.92C180.47 334.1 180.47 334.38 180.78 334.56C181.09 334.74 181.58 334.74 181.89 334.56C182.2 334.38 182.2 334.1 181.89 333.92C181.58 333.74 181.09 333.74 180.78 333.92Z" fill="white" stroke="black" stroke-width="0.5" stroke-linecap="round" stroke-linejoin="round"/>
<path d="M181.33 335.12C177.53 335.12 175.66 333.32 177.76 327.64C179.85 321.96 181.33 322.62 181.33 322.62C181.33 322.62 182.81 321.96 184.9 327.64C186.99 333.32 185.12 335.12 181.33 335.12Z" fill="#548945"/>
<path d="M177.76 327.64C178.65 325.24 179.42 323.97 180.02 323.31C179.6 324.56 179.33 325.87 179.16 327.18C178.94 328.83 178.87 330.53 179.25 332.16C179.5 333.23 179.98 334.26 180.67 335.11C177.32 334.9 175.78 332.99 177.75 327.65L177.76 327.64Z" fill="#41782D"/>
<path d="M120.24 333.13C120.24 333.48 121.01 333.77 121.97 333.77C122.92 333.77 123.7 333.48 123.7 333.13C123.7 332.78 122.93 332.49 121.97 332.49C121.01 332.49 120.24 332.78 120.24 333.13Z" fill="#97C483"/>
<path d="M121.46 330.82V330.84V330.86V330.88H121.47V330.9H121.48V330.92H121.49V330.94H121.51V330.96H121.53V330.98H121.55V331H121.58V331.02C121.58 331.02 121.61 331.03 121.63 331.04L121.66 331.06H121.7L121.73 331.08H121.78L121.8 331.1H121.93C121.93 331.1 121.95 331.11 121.96 331.11H122.11L122.13 331.09H122.18V331.07H122.23L122.26 331.04H122.27C122.27 331.04 122.3 331.02 122.31 331.01C122.38 330.97 122.43 330.91 122.45 330.86C122.45 330.86 122.45 330.84 122.45 330.83C122.45 330.83 122.45 330.81 122.45 330.8V333.08C122.45 333.16 122.4 333.23 122.31 333.29C122.3 333.29 122.29 333.3 122.27 333.31H122.26L122.24 333.33H122.23L122.2 333.35H122.17L122.14 333.37H122.04V333.39H121.97C121.97 333.39 121.95 333.39 121.94 333.39C121.94 333.39 121.94 333.39 121.93 333.39H121.81L121.79 333.37H121.74L121.71 333.35H121.67L121.64 333.32C121.64 333.32 121.62 333.3 121.61 333.3H121.59V333.28H121.57V333.26H121.54V333.24H121.53V333.22L121.51 333.2H121.5V333.18H121.49V333.16V333.14V333.12V333.1V333.08V330.8L121.46 330.82Z" fill="#766052"/>
<path d="M121.61 330.6C121.41 330.71 121.41 330.9 121.61 331.01C121.81 331.12 122.13 331.12 122.33 331.01C122.53 330.9 122.53 330.71 122.33 330.6C122.13 330.49 121.81 330.49 121.61 330.6Z" fill="white" stroke="black" stroke-width="0.5" stroke-linecap="round" stroke-linejoin="round"/>
<path d="M121.97 331.38C119.52 331.38 118.31 330.22 119.66 326.55C121.01 322.88 121.97 323.31 121.97 323.31C121.97 323.31 122.92 322.89 124.28 326.55C125.63 330.22 124.42 331.38 121.97 331.38Z" fill="#548945"/>
<path d="M119.66 326.55C120.23 325 120.73 324.18 121.12 323.75C120.85 324.56 120.68 325.4 120.57 326.25C120.43 327.32 120.38 328.41 120.63 329.46C120.79 330.15 121.1 330.82 121.55 331.36C119.39 331.23 118.39 329.99 119.67 326.54L119.66 326.55Z" fill="#41782D"/>
<path d="M185.74 321.33C187.938 321.33 189.72 320.569 189.72 319.63C189.72 318.691 187.938 317.93 185.74 317.93C183.542 317.93 181.76 318.691 181.76 319.63C181.76 320.569 183.542 321.33 185.74 321.33Z" fill="#97C483"/>
<path d="M184.77 314.7V314.73V314.76V314.79V314.82H184.78V314.85H184.79V314.88L184.81 314.9V314.93H184.83L184.86 314.97L184.88 315H184.89V315.02H184.92L184.94 315.04H184.95L184.97 315.06H184.99L185.01 315.08H185.03C185.03 315.08 185.07 315.12 185.1 315.13H185.12C185.12 315.13 185.16 315.16 185.18 315.17C185.18 315.17 185.23 315.19 185.25 315.2C185.27 315.2 185.28 315.2 185.3 315.21H185.34C185.34 315.21 185.38 315.23 185.39 315.23H185.45C185.45 315.23 185.49 315.25 185.52 315.25H185.58C185.58 315.25 185.62 315.25 185.65 315.25H185.69C185.69 315.25 185.73 315.25 185.74 315.25H185.93L185.97 315.23H186.02L186.06 315.21C186.06 315.21 186.1 315.21 186.12 315.2H186.16L186.18 315.18C186.18 315.18 186.22 315.17 186.24 315.16H186.26C186.26 315.16 186.29 315.14 186.31 315.13H186.34C186.34 315.13 186.39 315.1 186.41 315.08C186.55 315 186.64 314.89 186.68 314.79C186.68 314.77 186.69 314.75 186.69 314.74V314.71C186.69 314.71 186.69 314.69 186.69 314.68V319.07C186.69 319.22 186.6 319.36 186.41 319.47C186.39 319.48 186.36 319.5 186.34 319.51H186.31C186.31 319.51 186.28 319.53 186.27 319.54H186.25C186.25 319.54 186.21 319.56 186.19 319.57H186.16L186.13 319.59C186.13 319.59 186.09 319.6 186.07 319.6H186.03L185.98 319.62H185.86L185.84 319.64H185.77C185.77 319.64 185.76 319.64 185.75 319.64C185.73 319.64 185.71 319.64 185.7 319.64C185.7 319.64 185.68 319.64 185.67 319.64H185.65C185.65 319.64 185.61 319.64 185.58 319.64H185.52C185.52 319.64 185.47 319.63 185.45 319.62H185.39C185.39 319.62 185.35 319.6 185.34 319.6H185.3C185.3 319.6 185.27 319.58 185.25 319.58H185.24C185.24 319.58 185.2 319.56 185.18 319.56C185.18 319.56 185.14 319.54 185.12 319.53H185.1C185.1 319.53 185.06 319.5 185.03 319.49H185.01L184.99 319.46H184.97L184.95 319.44H184.94L184.92 319.42H184.91V319.4H184.89L184.87 319.37L184.84 319.33V319.3H184.82V319.27H184.8V319.24H184.79V319.21H184.78V319.18V319.15V319.12V319.09V314.7H184.77Z" fill="#766052"/>
<path d="M185.05 314.28C184.67 314.5 184.67 314.86 185.05 315.08C185.43 315.3 186.05 315.3 186.43 315.08C186.81 314.86 186.81 314.5 186.43 314.28C186.05 314.06 185.43 314.06 185.05 314.28Z" fill="white" stroke="black" stroke-width="0.5" stroke-linecap="round" stroke-linejoin="round"/>
<path d="M185.74 315.77C181.02 315.77 178.7 313.53 181.3 306.48C183.9 299.42 185.74 300.24 185.74 300.24C185.74 300.24 187.58 299.43 190.18 306.48C192.78 313.54 190.46 315.77 185.74 315.77Z" fill="#62AB51"/>
<path d="M181.31 306.48C182.41 303.5 183.37 301.92 184.12 301.1C183.6 302.65 183.27 304.28 183.05 305.91C182.78 307.97 182.69 310.08 183.17 312.1C183.49 313.43 184.08 314.71 184.94 315.76C180.78 315.5 178.86 313.13 181.31 306.49V306.48Z" fill="#548945"/>
<path d="M191.67 344.34C192.984 344.34 194.05 343.883 194.05 343.32C194.05 342.756 192.984 342.3 191.67 342.3C190.355 342.3 189.29 342.756 189.29 343.32C189.29 343.883 190.355 344.34 191.67 344.34Z" fill="#97C483"/>
<path d="M191.09 340.37V340.39V340.41V340.43V340.45V340.47V340.49H191.1V340.51H191.11V340.53L191.13 340.55V340.57H191.16V340.59H191.19V340.61H191.22V340.63C191.22 340.63 191.26 340.64 191.27 340.65H191.28L191.32 340.67C191.32 340.67 191.35 340.68 191.36 340.69H191.41L191.44 340.71H191.53L191.55 340.73H191.61C191.61 340.73 191.63 340.73 191.64 340.73H191.78L191.81 340.71H191.87L191.89 340.69H191.9L191.94 340.67H191.95L191.98 340.65H192C192 340.65 192.03 340.63 192.04 340.62C192.13 340.57 192.18 340.51 192.2 340.44C192.2 340.43 192.2 340.42 192.2 340.41V340.39C192.2 340.39 192.2 340.38 192.2 340.37V343C192.2 343.09 192.15 343.17 192.03 343.24C192.02 343.24 192 343.26 191.99 343.26H191.97L191.94 343.28H191.93L191.89 343.3H191.85L191.81 343.32H191.73L191.7 343.34H191.63C191.63 343.34 191.63 343.34 191.62 343.34C191.61 343.34 191.6 343.34 191.59 343.34C191.59 343.34 191.58 343.34 191.57 343.34H191.43L191.41 343.32H191.35L191.32 343.3H191.28V343.28L191.24 343.26H191.23C191.23 343.26 191.2 343.24 191.19 343.23H191.17V343.21H191.14V343.19H191.11V343.17V343.15H191.09L191.07 343.13V343.11H191.06V343.09H191.05V343.07V343.05V343.03V343.01V342.99V342.97V340.33L191.09 340.37Z" fill="#766052"/>
<path d="M191.26 340.12C191.03 340.25 191.03 340.47 191.26 340.6C191.49 340.73 191.86 340.73 192.08 340.6C192.3 340.47 192.31 340.25 192.08 340.12C191.85 339.99 191.48 339.99 191.26 340.12Z" fill="white" stroke="black" stroke-width="0.5" stroke-linecap="round" stroke-linejoin="round"/>
<path d="M191.67 341.02C188.85 341.02 187.46 339.68 189.01 335.46C190.57 331.24 191.67 331.73 191.67 331.73C191.67 331.73 192.77 331.24 194.33 335.46C195.89 339.68 194.5 341.02 191.67 341.02Z" fill="#62AB51"/>
<path d="M189.02 335.46C189.68 333.67 190.25 332.73 190.7 332.24C190.39 333.17 190.19 334.14 190.06 335.12C189.9 336.35 189.84 337.61 190.13 338.82C190.32 339.61 190.67 340.38 191.19 341.01C188.7 340.86 187.56 339.44 189.02 335.47V335.46Z" fill="#548945"/>
<path d="M147.53 308.95C149.861 308.95 151.75 308.14 151.75 307.14C151.75 306.14 149.861 305.33 147.53 305.33C145.199 305.33 143.31 306.14 143.31 307.14C143.31 308.14 145.199 308.95 147.53 308.95Z" fill="#97C483"/>
<path d="M146.5 301.91V301.93V301.96V301.99V302.02H146.51V302.05H146.52V302.08H146.53V302.11H146.55V302.14H146.57C146.57 302.14 146.59 302.17 146.6 302.18L146.62 302.21H146.63V302.23H146.66L146.68 302.25H146.7L146.72 302.27H146.74L146.76 302.29H146.78C146.78 302.29 146.83 302.33 146.85 302.34H146.87C146.87 302.34 146.91 302.37 146.94 302.38C146.94 302.38 146.99 302.4 147.01 302.41C147.03 302.41 147.05 302.42 147.06 302.43H147.1C147.1 302.43 147.14 302.45 147.16 302.45H147.22C147.22 302.45 147.27 302.47 147.29 302.47H147.35C147.35 302.47 147.4 302.47 147.42 302.48H147.46C147.46 302.48 147.5 302.48 147.52 302.48H147.72L147.77 302.46H147.82L147.86 302.44C147.86 302.44 147.9 302.43 147.92 302.42H147.96L147.98 302.4C147.98 302.4 148.02 302.39 148.04 302.38H148.06C148.06 302.38 148.1 302.36 148.11 302.35H148.14C148.14 302.35 148.19 302.31 148.22 302.3C148.37 302.21 148.47 302.1 148.51 301.99C148.51 301.97 148.52 301.95 148.52 301.93V301.9C148.52 301.9 148.52 301.88 148.52 301.87V306.53C148.52 306.68 148.43 306.84 148.22 306.96C148.2 306.97 148.17 306.99 148.14 307H148.11C148.11 307 148.08 307.03 148.06 307.03H148.03C148.03 307.03 147.99 307.05 147.97 307.06H147.93L147.9 307.08C147.9 307.08 147.86 307.09 147.84 307.1H147.8L147.75 307.12H147.65L147.63 307.14H147.53C147.53 307.14 147.52 307.14 147.51 307.14C147.49 307.14 147.47 307.14 147.45 307.14C147.45 307.14 147.43 307.14 147.42 307.14H147.4C147.4 307.14 147.35 307.14 147.33 307.14H147.27C147.27 307.14 147.22 307.13 147.2 307.12H147.14C147.14 307.12 147.1 307.1 147.08 307.1H147.04C147.04 307.1 147 307.08 146.99 307.07H146.98C146.98 307.07 146.94 307.05 146.92 307.04C146.92 307.04 146.88 307.02 146.85 307.01H146.83C146.83 307.01 146.78 306.98 146.76 306.96H146.74L146.72 306.93H146.7L146.68 306.91H146.66L146.64 306.89H146.63V306.87H146.6L146.58 306.84C146.58 306.84 146.56 306.81 146.55 306.8V306.77H146.53V306.74H146.51V306.71H146.5V306.68H146.49V306.65V306.62V306.59V306.56V301.9L146.5 301.91Z" fill="#766052"/>
<path d="M146.8 301.46C146.39 301.69 146.39 302.07 146.8 302.31C147.2 302.54 147.86 302.54 148.26 302.31C148.66 302.08 148.67 301.7 148.26 301.46C147.85 301.22 147.2 301.23 146.8 301.46Z" fill="white" stroke="black" stroke-width="0.5" stroke-linecap="round" stroke-linejoin="round"/>
<path d="M147.54 303.05C142.53 303.05 140.06 300.67 142.82 293.17C145.59 285.67 147.54 286.54 147.54 286.54C147.54 286.54 149.49 285.67 152.26 293.17C155.03 300.67 152.55 303.05 147.54 303.05Z" fill="#529640"/>
<path d="M142.82 293.17C143.99 290 145.01 288.33 145.81 287.45C145.26 289.1 144.9 290.83 144.68 292.56C144.39 294.75 144.29 296.99 144.8 299.13C145.14 300.54 145.77 301.9 146.68 303.02C142.26 302.75 140.22 300.22 142.83 293.17H142.82Z" fill="#497739"/>
<path d="M166.09 319.75C166.09 318.75 167.98 317.94 170.31 317.94C172.64 317.94 174.53 318.75 174.53 319.75C174.53 320.75 172.64 321.56 170.31 321.56C167.98 321.56 166.09 320.75 166.09 319.75Z" fill="#97C483"/>
<path d="M169.28 314.52V314.54V314.57V314.6V314.63H169.29V314.66H169.3V314.69H169.31V314.72H169.33V314.75H169.35C169.35 314.75 169.37 314.78 169.38 314.79L169.4 314.82H169.41V314.84H169.44L169.46 314.86H169.48L169.5 314.88H169.52L169.54 314.9H169.56C169.56 314.9 169.61 314.94 169.63 314.95H169.65C169.65 314.95 169.69 314.98 169.72 314.99C169.72 314.99 169.77 315.01 169.79 315.02C169.81 315.02 169.83 315.03 169.84 315.04H169.88C169.88 315.04 169.92 315.06 169.94 315.06H170C170 315.06 170.05 315.08 170.07 315.08H170.13C170.13 315.08 170.18 315.08 170.2 315.09H170.24C170.24 315.09 170.28 315.09 170.3 315.09H170.5L170.55 315.07H170.6L170.64 315.05C170.64 315.05 170.68 315.04 170.7 315.03H170.74L170.76 315.01C170.76 315.01 170.8 315 170.82 314.99H170.84C170.84 314.99 170.88 314.97 170.89 314.96H170.92C170.92 314.96 170.97 314.92 171 314.91C171.15 314.82 171.25 314.71 171.29 314.6C171.29 314.58 171.3 314.56 171.3 314.54V314.51C171.3 314.51 171.3 314.49 171.3 314.48V319.14C171.3 319.29 171.21 319.45 171 319.57C170.98 319.58 170.95 319.6 170.92 319.61H170.89C170.89 319.61 170.86 319.64 170.84 319.64H170.81C170.81 319.64 170.77 319.66 170.75 319.67H170.71L170.68 319.69C170.68 319.69 170.64 319.7 170.62 319.71H170.58L170.53 319.73H170.43L170.41 319.75H170.31C170.31 319.75 170.3 319.75 170.29 319.75C170.27 319.75 170.25 319.75 170.23 319.75C170.23 319.75 170.21 319.75 170.2 319.75H170.18C170.18 319.75 170.13 319.75 170.11 319.75H170.05C170.05 319.75 170 319.74 169.98 319.73H169.92C169.92 319.73 169.88 319.71 169.86 319.71H169.82C169.82 319.71 169.78 319.69 169.77 319.68H169.76C169.76 319.68 169.72 319.66 169.7 319.65C169.7 319.65 169.66 319.63 169.63 319.62H169.61C169.61 319.62 169.56 319.59 169.54 319.57H169.52L169.5 319.54H169.48L169.46 319.52H169.44L169.42 319.5H169.41V319.48H169.38L169.36 319.45C169.36 319.45 169.34 319.42 169.33 319.41V319.38H169.31V319.35H169.29V319.32H169.28V319.29H169.27V319.26V319.23V319.2V319.17V314.51L169.28 314.52Z" fill="#766052"/>
<path d="M169.59 314.07C169.18 314.3 169.18 314.68 169.59 314.92C169.99 315.15 170.65 315.15 171.05 314.92C171.45 314.69 171.46 314.31 171.05 314.07C170.64 313.83 169.99 313.84 169.59 314.07Z" fill="white" stroke="black" stroke-width="0.5" stroke-linecap="round" stroke-linejoin="round"/>
<path d="M170.32 315.66C165.31 315.66 162.84 313.28 165.6 305.78C168.37 298.28 170.32 299.15 170.32 299.15C170.32 299.15 172.27 298.28 175.04 305.78C177.81 313.28 175.33 315.66 170.32 315.66Z" fill="#548945"/>
<path d="M165.6 305.78C166.77 302.61 167.79 300.94 168.59 300.06C168.04 301.71 167.68 303.44 167.46 305.17C167.17 307.36 167.07 309.6 167.58 311.74C167.92 313.15 168.55 314.51 169.46 315.63C165.04 315.36 163 312.83 165.61 305.78H165.6Z" fill="#41782D"/>
<path d="M149.54 324.58C149.54 323.27 152.02 322.21 155.07 322.21C158.12 322.21 160.6 323.27 160.6 324.58C160.6 325.89 158.12 326.95 155.07 326.95C152.01 326.95 149.54 325.89 149.54 324.58Z" fill="#97C483"/>
<path d="M153.72 317.72V317.8L153.74 317.82V317.86L153.76 317.88V317.9L153.78 317.92V317.94L153.8 317.96V317.98H153.82L153.84 318.02C153.84 318.02 153.86 318.06 153.88 318.07L153.91 318.11H153.92L153.94 318.14L153.96 318.16L153.98 318.18L154 318.2L154.02 318.22H154.04L154.06 318.25L154.09 318.27C154.09 318.27 154.15 318.3 154.18 318.32H154.2C154.2 318.32 154.26 318.36 154.29 318.37H154.3C154.3 318.37 154.36 318.4 154.4 318.41C154.42 318.41 154.45 318.42 154.47 318.43C154.49 318.43 154.51 318.44 154.52 318.44C154.54 318.44 154.57 318.45 154.59 318.46C154.61 318.46 154.63 318.46 154.65 318.47H154.67C154.67 318.47 154.73 318.48 154.76 318.49H154.79C154.79 318.49 154.83 318.49 154.84 318.49C154.87 318.49 154.9 318.49 154.93 318.49H154.99C154.99 318.49 155.04 318.49 155.06 318.49H155.12C155.12 318.49 155.17 318.49 155.19 318.49H155.25C155.25 318.49 155.3 318.49 155.32 318.48H155.38C155.38 318.48 155.43 318.46 155.45 318.46H155.51C155.51 318.46 155.57 318.44 155.59 318.43C155.61 318.43 155.63 318.43 155.64 318.42H155.67C155.67 318.42 155.73 318.39 155.75 318.38H155.77C155.77 318.38 155.82 318.35 155.84 318.34L155.88 318.32C155.88 318.32 155.95 318.29 155.98 318.27C156.18 318.15 156.31 318.01 156.36 317.86C156.36 317.84 156.37 317.81 156.38 317.78V317.74C156.38 317.74 156.38 317.71 156.38 317.7V323.81C156.39 324.01 156.26 324.21 155.99 324.37C155.96 324.39 155.92 324.41 155.89 324.42L155.85 324.44C155.85 324.44 155.81 324.46 155.79 324.47H155.76C155.76 324.47 155.71 324.5 155.68 324.51H155.63L155.6 324.53C155.6 324.53 155.54 324.54 155.52 324.55H155.46C155.46 324.55 155.41 324.57 155.39 324.57H155.33C155.33 324.57 155.29 324.58 155.26 324.59H155.2C155.2 324.59 155.15 324.59 155.13 324.59H155.1C155.1 324.59 155.08 324.59 155.07 324.59C155.05 324.59 155.02 324.59 155 324.59C154.99 324.59 154.98 324.59 154.96 324.59H154.94C154.94 324.59 154.88 324.59 154.85 324.59H154.77C154.77 324.59 154.71 324.57 154.68 324.57H154.65C154.65 324.57 154.62 324.56 154.61 324.56C154.58 324.56 154.56 324.55 154.54 324.54C154.52 324.54 154.5 324.54 154.49 324.53C154.47 324.53 154.44 324.52 154.42 324.51H154.4C154.4 324.51 154.34 324.49 154.32 324.48H154.31C154.31 324.48 154.25 324.45 154.22 324.44H154.2C154.2 324.44 154.14 324.4 154.11 324.38H154.09V324.36L154.05 324.34H154.03L154.01 324.31L153.99 324.29L153.97 324.27L153.95 324.25L153.93 324.23H153.92L153.89 324.19C153.89 324.19 153.87 324.15 153.85 324.14L153.83 324.1V324.06H153.81V324.04L153.79 324.02V324L153.77 323.98V323.93L153.75 323.91V323.83V317.72H153.72Z" fill="#766052"/>
<path d="M154.11 317.14C153.58 317.45 153.58 317.94 154.11 318.25C154.64 318.56 155.5 318.56 156.03 318.25C156.56 317.94 156.56 317.45 156.03 317.14C155.5 316.83 154.64 316.83 154.11 317.14Z" fill="white" stroke="black" stroke-width="0.5" stroke-linecap="round" stroke-linejoin="round"/>
<path d="M155.08 319.22C148.52 319.22 145.28 316.11 148.9 306.29C152.52 296.47 155.08 297.6 155.08 297.6C155.08 297.6 157.64 296.47 161.26 306.29C164.88 316.11 161.65 319.22 155.08 319.22Z" fill="#548945"/>
<path d="M148.9 306.28C150.43 302.13 151.77 299.94 152.81 298.79C152.09 300.95 151.62 303.22 151.33 305.48C150.96 308.34 150.83 311.28 151.49 314.09C151.93 315.94 152.75 317.72 153.95 319.18C148.16 318.82 145.49 315.52 148.9 306.28Z" fill="#41782D"/>
<path d="M132.28 302.98C136.35 302.98 139.65 301.565 139.65 299.82C139.65 298.075 136.35 296.66 132.28 296.66C128.21 296.66 124.91 298.075 124.91 299.82C124.91 301.565 128.21 302.98 132.28 302.98Z" fill="#97C483"/>
<path d="M130.47 290.69V290.79L130.49 290.82V290.84L130.51 290.87V290.89L130.53 290.92V290.94L130.55 290.97V290.99L130.58 291.02V291.04L130.62 291.08V291.1C130.62 291.1 130.66 291.14 130.68 291.15H130.69C130.69 291.15 130.72 291.19 130.73 291.2L130.75 291.22L130.78 291.24L130.8 291.26L130.83 291.28L130.86 291.3L130.89 291.32L130.92 291.34L130.95 291.36L130.99 291.39C130.99 291.39 131.07 291.43 131.11 291.45L131.14 291.47C131.14 291.47 131.22 291.5 131.26 291.52H131.27C131.27 291.52 131.36 291.56 131.4 291.57C131.43 291.57 131.46 291.59 131.49 291.6C131.51 291.6 131.54 291.61 131.56 291.62C131.59 291.62 131.63 291.63 131.66 291.64C131.68 291.64 131.71 291.65 131.73 291.65H131.76C131.76 291.65 131.84 291.67 131.88 291.67H131.92C131.92 291.67 131.97 291.67 131.99 291.68C132.03 291.68 132.07 291.68 132.11 291.68C132.14 291.68 132.16 291.68 132.19 291.68C132.22 291.68 132.26 291.68 132.29 291.68C132.32 291.68 132.35 291.68 132.37 291.68C132.4 291.68 132.43 291.68 132.46 291.68C132.49 291.68 132.52 291.68 132.54 291.68C132.57 291.68 132.6 291.68 132.63 291.67C132.66 291.67 132.68 291.67 132.71 291.66C132.74 291.66 132.77 291.65 132.81 291.64C132.84 291.64 132.86 291.64 132.88 291.62C132.92 291.62 132.96 291.6 132.99 291.59C133.01 291.59 133.04 291.58 133.06 291.57H133.1C133.1 291.57 133.17 291.53 133.21 291.52H133.24C133.24 291.52 133.3 291.48 133.34 291.47C133.36 291.47 133.37 291.46 133.39 291.45C133.44 291.43 133.48 291.41 133.52 291.38C133.79 291.23 133.95 291.04 134.02 290.84C134.03 290.81 134.04 290.77 134.04 290.74C134.04 290.72 134.04 290.71 134.04 290.69C134.04 290.67 134.04 290.66 134.04 290.64L134.06 298.77C134.06 299.04 133.88 299.31 133.53 299.51C133.49 299.53 133.44 299.56 133.4 299.58C133.38 299.58 133.37 299.59 133.35 299.6C133.32 299.61 133.3 299.62 133.27 299.64H133.26L133.23 299.66C133.23 299.66 133.16 299.69 133.12 299.7H133.08L133.05 299.72C133.05 299.72 133.02 299.72 133 299.73C132.96 299.73 132.93 299.75 132.89 299.76H132.86C132.86 299.76 132.83 299.77 132.82 299.78C132.79 299.78 132.76 299.79 132.72 299.8H132.64C132.64 299.8 132.58 299.82 132.55 299.82H132.47C132.47 299.82 132.41 299.83 132.38 299.83C132.36 299.83 132.35 299.83 132.33 299.83C132.32 299.83 132.31 299.83 132.29 299.83C132.26 299.83 132.22 299.83 132.19 299.83C132.17 299.83 132.16 299.83 132.14 299.83H132.11C132.11 299.83 132.03 299.83 131.99 299.82C131.97 299.82 131.96 299.82 131.94 299.82H131.88C131.88 299.82 131.8 299.8 131.76 299.8H131.71C131.71 299.8 131.67 299.78 131.65 299.78C131.62 299.78 131.58 299.77 131.55 299.76C131.53 299.76 131.5 299.75 131.48 299.74C131.45 299.74 131.42 299.72 131.39 299.71H131.37C131.37 299.71 131.3 299.68 131.26 299.67H131.24C131.24 299.67 131.16 299.63 131.12 299.61L131.09 299.59C131.09 299.59 131.01 299.55 130.97 299.53H130.95L130.93 299.5L130.9 299.48L130.87 299.46L130.84 299.44L130.81 299.42L130.78 299.4L130.76 299.38L130.73 299.36H130.72V299.34C130.72 299.34 130.68 299.31 130.67 299.3H130.66C130.66 299.3 130.63 299.25 130.61 299.23V299.21L130.58 299.17V299.15L130.55 299.12V299.1L130.53 299.07V299.05L130.51 299.02V298.97L130.49 298.95V298.92V298.79L130.46 290.66V290.69H130.47Z" fill="#766052"/>
<path d="M131.01 289.92C130.3 290.33 130.3 290.99 131.01 291.4C131.71 291.81 132.86 291.81 133.56 291.4C134.27 290.99 134.27 290.33 133.56 289.92C132.85 289.51 131.71 289.51 131.01 289.92Z" fill="white" stroke="black" stroke-width="0.5" stroke-linecap="round" stroke-linejoin="round"/>
<path d="M132.29 292.68C123.55 292.68 119.24 288.53 124.06 275.46C128.88 262.38 132.29 263.89 132.29 263.89C132.29 263.89 135.69 262.38 140.52 275.46C145.34 288.54 141.03 292.68 132.29 292.68Z" fill="#529640"/>
<path d="M124.06 275.46C126.1 269.93 127.88 267.01 129.27 265.48C128.31 268.36 127.69 271.38 127.29 274.39C126.79 278.2 126.62 282.11 127.51 285.85C128.09 288.31 129.19 290.69 130.78 292.63C123.07 292.15 119.52 287.76 124.06 275.45V275.46Z" fill="#497739"/>
<path d="M160.25 340.98C160.25 339.83 162.42 338.9 165.1 338.9C167.78 338.9 169.95 339.83 169.95 340.98C169.95 342.13 167.78 343.06 165.1 343.06C162.42 343.06 160.25 342.13 160.25 340.98Z" fill="#97C483"/>
<path d="M163.91 334.969V335.049L163.93 335.069V335.099L163.95 335.119V335.149H163.97V335.189H163.99L164.01 335.229C164.01 335.229 164.03 335.259 164.04 335.279L164.07 335.319H164.08L164.1 335.349H164.12L164.14 335.379H164.16L164.18 335.409H164.2L164.22 335.439L164.25 335.459C164.25 335.459 164.3 335.489 164.33 335.499H164.35C164.35 335.499 164.4 335.529 164.43 335.539C164.43 335.539 164.49 335.559 164.52 335.569C164.54 335.569 164.56 335.579 164.58 335.589C164.6 335.589 164.61 335.589 164.63 335.599C164.65 335.599 164.67 335.599 164.7 335.609C164.72 335.609 164.73 335.609 164.75 335.609H164.77C164.77 335.609 164.82 335.619 164.85 335.619H164.92C164.92 335.619 164.97 335.629 165 335.629H165.05C165.05 335.629 165.09 335.629 165.12 335.629H165.29L165.35 335.609H165.4C165.4 335.609 165.44 335.599 165.46 335.589H165.51C165.51 335.589 165.56 335.569 165.58 335.559C165.6 335.559 165.61 335.559 165.63 335.549H165.66C165.66 335.549 165.71 335.529 165.73 335.519H165.75C165.75 335.519 165.79 335.489 165.81 335.489H165.84C165.84 335.489 165.9 335.449 165.93 335.429C166.11 335.329 166.22 335.199 166.26 335.069C166.26 335.049 166.27 335.029 166.28 334.999V334.969C166.28 334.969 166.28 334.949 166.28 334.939V340.299C166.29 340.479 166.17 340.649 165.94 340.789C165.91 340.809 165.88 340.819 165.85 340.839H165.82C165.82 340.839 165.78 340.869 165.77 340.879H165.74C165.74 340.879 165.69 340.909 165.67 340.919H165.63L165.6 340.939C165.6 340.939 165.55 340.949 165.53 340.959H165.48C165.48 340.959 165.44 340.979 165.42 340.979H165.31L165.28 340.999H165.16H165.14C165.12 340.999 165.1 340.999 165.07 340.999C165.06 340.999 165.05 340.999 165.04 340.999H165.02C165.02 340.999 164.97 340.999 164.94 340.999H164.87C164.87 340.999 164.81 340.989 164.79 340.979H164.72C164.72 340.979 164.68 340.959 164.65 340.949H164.6C164.6 340.949 164.56 340.929 164.54 340.919H164.53C164.53 340.919 164.48 340.899 164.46 340.889H164.45C164.45 340.889 164.4 340.859 164.37 340.849H164.35C164.35 340.849 164.3 340.809 164.27 340.799H164.26V340.779H164.23L164.21 340.749H164.19L164.17 340.719H164.15L164.13 340.689H164.11V340.669H164.1L164.07 340.639C164.07 340.639 164.05 340.609 164.04 340.599L164.02 340.569V340.539H164V340.509H163.98V340.479H163.97V340.429L163.95 340.409V340.339V334.979L163.91 334.969Z" fill="#766052"/>
<path d="M164.26 334.45C163.79 334.72 163.79 335.15 164.26 335.42C164.72 335.69 165.48 335.69 165.94 335.42C166.4 335.15 166.41 334.72 165.94 334.45C165.47 334.18 164.72 334.18 164.26 334.45Z" fill="white" stroke="black" stroke-width="0.5" stroke-linecap="round" stroke-linejoin="round"/>
<path d="M165.1 336.28C159.34 336.28 156.51 333.55 159.68 324.94C162.86 316.33 165.1 317.32 165.1 317.32C165.1 317.32 167.34 316.33 170.52 324.94C173.7 333.55 170.86 336.28 165.1 336.28Z" fill="#62AB51"/>
<path d="M159.68 324.93C161.02 321.29 162.2 319.37 163.11 318.36C162.48 320.26 162.07 322.24 161.81 324.23C161.48 326.74 161.37 329.32 161.95 331.78C162.33 333.4 163.06 334.96 164.11 336.25C159.03 335.94 156.7 333.04 159.68 324.94V324.93Z" fill="#548945"/>
<path d="M110.01 302.59C111.932 302.59 113.49 302.012 113.49 301.3C113.49 300.587 111.932 300.01 110.01 300.01C108.088 300.01 106.53 300.587 106.53 301.3C106.53 302.012 108.088 302.59 110.01 302.59Z" fill="#97C483"/>
<path d="M108.99 296.63V296.65V296.68V296.71V296.74V296.77H109V296.8H109.01V296.83H109.03V296.86H109.05C109.05 296.86 109.07 296.89 109.08 296.9L109.1 296.93H109.11V296.95H109.14L109.16 296.97H109.18L109.2 296.99H109.22L109.24 297.01H109.26C109.26 297.01 109.31 297.05 109.33 297.06H109.35C109.35 297.06 109.39 297.09 109.42 297.1C109.42 297.1 109.47 297.12 109.49 297.13C109.51 297.13 109.52 297.14 109.54 297.14H109.58C109.58 297.14 109.62 297.16 109.64 297.16H109.7C109.7 297.16 109.75 297.18 109.77 297.18H109.83C109.83 297.18 109.88 297.18 109.9 297.19H109.94C109.94 297.19 109.98 297.19 110 297.19H110.2L110.25 297.17H110.3L110.34 297.15C110.34 297.15 110.38 297.15 110.4 297.13H110.44L110.46 297.11C110.46 297.11 110.5 297.1 110.52 297.09H110.54C110.54 297.09 110.58 297.07 110.59 297.06H110.62C110.62 297.06 110.67 297.02 110.69 297.01C110.84 296.92 110.94 296.82 110.97 296.7C110.97 296.68 110.98 296.66 110.98 296.64V296.61C110.98 296.61 110.98 296.59 110.98 296.58V301.18C110.98 301.33 110.89 301.48 110.69 301.6C110.67 301.61 110.64 301.63 110.62 301.64H110.59C110.59 301.64 110.56 301.67 110.54 301.67H110.51C110.51 301.67 110.47 301.69 110.45 301.7H110.41L110.38 301.72C110.38 301.72 110.34 301.73 110.32 301.74H110.28L110.23 301.76H110.11L110.09 301.78H110.01C110.01 301.78 110 301.78 109.99 301.78C109.97 301.78 109.95 301.78 109.93 301.78C109.93 301.78 109.91 301.78 109.9 301.78H109.88C109.88 301.78 109.83 301.78 109.81 301.78H109.75C109.75 301.78 109.7 301.77 109.68 301.76H109.62C109.62 301.76 109.58 301.74 109.56 301.74H109.52C109.52 301.74 109.48 301.72 109.47 301.71H109.46C109.46 301.71 109.42 301.69 109.4 301.68C109.4 301.68 109.36 301.66 109.33 301.65H109.31C109.31 301.65 109.26 301.62 109.24 301.61H109.22L109.2 301.58H109.18L109.16 301.56H109.14L109.12 301.54H109.11V301.52H109.08L109.06 301.49C109.06 301.49 109.04 301.46 109.03 301.45V301.42H109.01V301.39H108.99V301.36H108.98V301.33H108.97V301.3V301.27V301.24V301.21V296.61L108.99 296.63Z" fill="#766052"/>
<path d="M109.29 296.19C108.89 296.42 108.89 296.8 109.29 297.03C109.69 297.26 110.33 297.26 110.73 297.03C111.13 296.8 111.13 296.42 110.73 296.19C110.33 295.96 109.69 295.96 109.29 296.19Z" fill="white" stroke="black" stroke-width="0.5" stroke-linecap="round" stroke-linejoin="round"/>
<path d="M110.01 297.76C105.07 297.76 102.63 295.41 105.36 288.02C108.09 280.62 110.01 281.48 110.01 281.48C110.01 281.48 111.93 280.63 114.66 288.02C117.39 295.42 114.95 297.76 110.01 297.76Z" fill="#548945"/>
<path d="M105.36 288.01C106.51 284.88 107.52 283.23 108.3 282.37C107.75 284 107.4 285.71 107.18 287.41C106.9 289.57 106.8 291.78 107.3 293.89C107.63 295.28 108.25 296.63 109.15 297.73C104.79 297.46 102.78 294.97 105.35 288.01H105.36Z" fill="#41782D"/>
<path d="M98.2799 310.38C99.7545 310.38 100.95 309.937 100.95 309.39C100.95 308.843 99.7545 308.4 98.2799 308.4C96.8053 308.4 95.6099 308.843 95.6099 309.39C95.6099 309.937 96.8053 310.38 98.2799 310.38Z" fill="#97C483"/>
<path d="M97.4999 305.81V305.83V305.85V305.87V305.89V305.91H97.5099V305.93H97.5199V305.95L97.5399 305.97L97.5599 306L97.5799 306.02V306.04H97.5999V306.06H97.6199V306.08H97.6499V306.1H97.6799C97.6799 306.1 97.7099 306.13 97.7299 306.14H97.7399C97.7399 306.14 97.7699 306.16 97.7899 306.17C97.7899 306.17 97.8299 306.19 97.8499 306.19H97.8899L97.9199 306.21H97.9599L97.9899 306.23H97.9999C97.9999 306.23 98.0399 306.23 98.0499 306.23H98.0999C98.0999 306.23 98.1399 306.23 98.1499 306.23H98.1799C98.1799 306.23 98.2098 306.23 98.2198 306.23H98.3699L98.4099 306.21H98.4799C98.4799 306.21 98.5099 306.19 98.5299 306.18H98.5799C98.5799 306.18 98.6099 306.16 98.6299 306.15H98.6399C98.6399 306.15 98.6699 306.13 98.6799 306.13H98.6999C98.6999 306.13 98.7399 306.1 98.7599 306.09C98.8799 306.02 98.9499 305.94 98.9799 305.85C98.9799 305.84 98.9799 305.82 98.9899 305.81V305.79C98.9899 305.79 98.9899 305.78 98.9899 305.77V309.3C98.9899 309.42 98.9199 309.53 98.7699 309.62C98.7499 309.63 98.7299 309.64 98.7099 309.65H98.6899L98.6499 309.67H98.6299C98.6299 309.67 98.5999 309.69 98.5799 309.69H98.5299C98.5299 309.69 98.4999 309.71 98.4799 309.72H98.4099L98.3899 309.74H98.2399C98.2399 309.74 98.2298 309.75 98.2198 309.75C98.2098 309.75 98.1899 309.75 98.1799 309.75C98.1799 309.75 98.1699 309.75 98.1599 309.75H98.1499C98.1499 309.75 98.1099 309.75 98.0999 309.75H98.0499C98.0499 309.75 98.0099 309.75 97.9999 309.74H97.9499L97.9099 309.72H97.8799L97.8399 309.7C97.8399 309.7 97.8099 309.69 97.7899 309.68C97.7899 309.68 97.7599 309.66 97.7399 309.66H97.7299C97.7299 309.66 97.6899 309.64 97.6799 309.63H97.6599V309.61H97.6299V309.59H97.6099V309.57H97.5899V309.55H97.5699L97.5499 309.52L97.5299 309.49V309.47H97.5099V309.45H97.4999V309.43H97.4899V309.41V309.39V309.37V309.35V309.33V305.78L97.4999 305.81Z" fill="#766052"/>
<path d="M97.7298 305.47C97.4198 305.65 97.4198 305.93 97.7298 306.11C98.0398 306.29 98.5299 306.29 98.8399 306.11C99.1499 305.93 99.1499 305.65 98.8399 305.47C98.5299 305.29 98.0398 305.29 97.7298 305.47Z" fill="white" stroke="black" stroke-width="0.5" stroke-linecap="round" stroke-linejoin="round"/>
<path d="M98.2799 306.67C94.4799 306.67 92.6099 304.87 94.7099 299.19C96.7999 293.51 98.2799 294.17 98.2799 294.17C98.2799 294.17 99.7599 293.51 101.85 299.19C103.94 304.87 102.07 306.67 98.2799 306.67Z" fill="#548945"/>
<path d="M94.7099 299.19C95.5999 296.79 96.3698 295.52 96.9698 294.86C96.5498 296.11 96.2799 297.42 96.1099 298.73C95.8899 300.38 95.8199 302.08 96.1999 303.71C96.4499 304.78 96.9299 305.81 97.6199 306.66C94.2699 306.45 92.7299 304.54 94.6999 299.2L94.7099 299.19Z" fill="#41782D"/>
<path d="M122.7 317.68C125.229 317.68 127.28 316.802 127.28 315.72C127.28 314.637 125.229 313.76 122.7 313.76C120.17 313.76 118.12 314.637 118.12 315.72C118.12 316.802 120.17 317.68 122.7 317.68Z" fill="#97C483"/>
<path d="M121.58 310.04V310.06V310.09V310.12V310.15H121.59V310.18H121.6V310.21H121.62V310.24H121.64L121.66 310.27C121.66 310.27 121.68 310.3 121.69 310.31L121.72 310.34H121.73L121.75 310.37H121.77L121.79 310.4H121.81L121.83 310.43H121.85L121.87 310.46L121.9 310.48C121.9 310.48 121.95 310.51 121.98 310.52H122C122 310.52 122.05 310.55 122.07 310.56C122.07 310.56 122.12 310.58 122.15 310.59C122.17 310.59 122.19 310.6 122.21 310.61H122.25C122.25 310.61 122.29 310.63 122.31 310.64H122.37C122.37 310.64 122.42 310.66 122.45 310.66H122.52C122.52 310.66 122.57 310.67 122.6 310.67H122.65C122.65 310.67 122.69 310.67 122.71 310.67H122.87L122.93 310.65H122.98C122.98 310.65 123.02 310.64 123.04 310.63H123.09C123.09 310.63 123.14 310.61 123.16 310.6H123.2L123.22 310.58C123.22 310.58 123.27 310.56 123.29 310.56H123.31C123.31 310.56 123.35 310.54 123.37 310.53H123.4C123.4 310.53 123.46 310.49 123.48 310.47C123.65 310.37 123.75 310.26 123.79 310.13C123.79 310.11 123.8 310.09 123.81 310.07V310.04C123.81 310.04 123.81 310.02 123.81 310.01V315.07C123.82 315.24 123.71 315.41 123.49 315.53C123.46 315.55 123.44 315.56 123.41 315.57H123.38C123.38 315.57 123.35 315.6 123.33 315.6H123.3C123.3 315.6 123.25 315.63 123.23 315.63H123.19L123.16 315.65C123.16 315.65 123.11 315.66 123.09 315.67H123.04C123.04 315.67 123 315.69 122.98 315.69H122.87L122.84 315.71H122.73H122.71C122.69 315.71 122.67 315.71 122.65 315.71C122.64 315.71 122.63 315.71 122.62 315.71H122.6C122.6 315.71 122.55 315.71 122.52 315.71H122.45C122.45 315.71 122.4 315.7 122.37 315.69H122.31C122.31 315.69 122.27 315.67 122.25 315.66H122.21C122.21 315.66 122.17 315.64 122.15 315.63H122.14C122.14 315.63 122.09 315.61 122.07 315.6C122.07 315.6 122.02 315.58 122 315.57H121.98C121.98 315.57 121.93 315.53 121.9 315.52H121.89V315.5H121.86L121.84 315.48H121.82L121.8 315.45H121.78L121.76 315.42H121.74V315.4H121.73L121.7 315.37C121.7 315.37 121.68 315.34 121.67 315.33L121.65 315.3V315.27H121.63V315.24H121.61V315.21H121.6V315.18V315.15V315.12V315.09V310.03L121.58 310.04Z" fill="#766052"/>
<path d="M121.91 309.56C121.47 309.81 121.47 310.23 121.91 310.48C122.35 310.73 123.06 310.73 123.5 310.48C123.94 310.23 123.94 309.81 123.5 309.56C123.06 309.31 122.35 309.31 121.91 309.56Z" fill="white" stroke="black" stroke-width="0.5" stroke-linecap="round" stroke-linejoin="round"/>
<path d="M122.71 311.28C117.27 311.28 114.59 308.7 117.59 300.57C120.59 292.44 122.71 293.38 122.71 293.38C122.71 293.38 124.83 292.44 127.83 300.57C130.83 308.7 128.15 311.28 122.71 311.28Z" fill="#62AB51"/>
<path d="M117.59 300.56C118.86 297.12 119.97 295.31 120.83 294.35C120.23 296.14 119.85 298.02 119.6 299.89C119.29 302.26 119.18 304.69 119.73 307.02C120.09 308.55 120.78 310.03 121.77 311.24C116.97 310.94 114.77 308.21 117.59 300.56Z" fill="#548945"/>
<path d="M183.09 292.44C184.603 292.44 185.83 291.983 185.83 291.42C185.83 290.857 184.603 290.4 183.09 290.4C181.577 290.4 180.35 290.857 180.35 291.42C180.35 291.983 181.577 292.44 183.09 292.44Z" fill="#64AE47"/>
<path d="M182.29 287.75V287.77V287.79V287.81V287.83V287.85H182.3V287.87H182.31V287.89L182.33 287.91L182.35 287.94L182.37 287.96V287.98H182.39V288H182.41V288.02H182.44V288.04H182.47C182.47 288.04 182.51 288.07 182.52 288.08H182.53C182.53 288.08 182.56 288.1 182.58 288.11C182.58 288.11 182.62 288.13 182.64 288.13H182.68L182.71 288.15H182.75L182.78 288.17H182.79C182.79 288.17 182.83 288.17 182.85 288.18H182.9C182.9 288.18 182.94 288.18 182.95 288.18H182.98C182.98 288.18 183.01 288.18 183.02 288.18H183.17L183.21 288.16H183.29C183.29 288.16 183.32 288.14 183.34 288.13H183.39C183.39 288.13 183.42 288.11 183.44 288.1H183.45C183.45 288.1 183.48 288.08 183.49 288.08H183.51C183.51 288.08 183.55 288.05 183.57 288.04C183.69 287.97 183.76 287.89 183.79 287.8C183.79 287.79 183.79 287.77 183.8 287.76V287.74C183.8 287.74 183.8 287.73 183.8 287.72V291.34C183.8 291.46 183.73 291.58 183.57 291.67C183.55 291.68 183.53 291.69 183.51 291.7H183.49L183.45 291.72H183.43C183.43 291.72 183.4 291.74 183.38 291.74H183.33C183.33 291.74 183.3 291.76 183.28 291.77H183.2L183.18 291.79H183.02C183.02 291.79 183.01 291.8 183 291.8C182.99 291.8 182.97 291.8 182.96 291.8C182.96 291.8 182.95 291.8 182.94 291.8H182.93C182.93 291.8 182.89 291.8 182.88 291.8H182.83C182.83 291.8 182.79 291.8 182.77 291.79H182.72L182.68 291.77H182.65L182.61 291.75C182.61 291.75 182.58 291.74 182.56 291.73C182.56 291.73 182.53 291.71 182.51 291.71H182.5C182.5 291.71 182.46 291.68 182.45 291.67H182.43V291.65H182.4V291.63H182.37V291.61H182.35V291.59H182.33L182.31 291.56L182.29 291.53V291.51H182.27V291.49H182.26V291.47H182.25V291.45V291.43V291.41V291.39V291.37V287.74L182.29 287.75Z" fill="#766052"/>
<path d="M182.52 287.4C182.21 287.58 182.2 287.88 182.52 288.06C182.83 288.24 183.34 288.24 183.66 288.06C183.97 287.88 183.98 287.58 183.66 287.4C183.35 287.22 182.84 287.22 182.53 287.4H182.52Z" fill="white" stroke="black" stroke-width="0.5" stroke-linecap="round" stroke-linejoin="round"/>
<path d="M183.09 288.63C179.2 288.63 177.29 286.79 179.43 280.97C181.57 275.16 183.09 275.83 183.09 275.83C183.09 275.83 184.6 275.16 186.75 280.97C188.89 286.78 186.98 288.63 183.09 288.63Z" fill="#548945"/>
<path d="M179.43 280.97C180.34 278.51 181.13 277.21 181.74 276.53C181.31 277.81 181.04 279.15 180.86 280.49C180.64 282.18 180.56 283.92 180.96 285.59C181.22 286.68 181.71 287.74 182.42 288.61C178.99 288.4 177.41 286.44 179.43 280.97Z" fill="#41782D"/>
</svg>
