<svg width="321" height="381" viewBox="0 0 321 381" fill="none" xmlns="http://www.w3.org/2000/svg">
<path d="M230.32 380.28C232.507 380.28 234.28 379.519 234.28 378.58C234.28 377.641 232.507 376.88 230.32 376.88C228.133 376.88 226.36 377.641 226.36 378.58C226.36 379.519 228.133 380.28 230.32 380.28Z" fill="#64AE47"/>
<path d="M229.36 373.68V373.71V373.74V373.77V373.8H229.37V373.83H229.38V373.86L229.4 373.88V373.91H229.42L229.45 373.95L229.47 373.98H229.48V374H229.51L229.53 374.02H229.54L229.56 374.04H229.58L229.6 374.06H229.62C229.62 374.06 229.66 374.1 229.69 374.11H229.71C229.71 374.11 229.75 374.14 229.77 374.14C229.77 374.14 229.82 374.16 229.84 374.17C229.86 374.17 229.87 374.17 229.89 374.18H229.93C229.93 374.18 229.97 374.2 229.98 374.2H230.04C230.04 374.2 230.08 374.22 230.11 374.22H230.17C230.17 374.22 230.21 374.22 230.24 374.22H230.28C230.28 374.22 230.32 374.22 230.33 374.22H230.52L230.56 374.2H230.61L230.65 374.18C230.65 374.18 230.69 374.18 230.71 374.17H230.75L230.77 374.15C230.77 374.15 230.81 374.14 230.83 374.13H230.85C230.85 374.13 230.88 374.11 230.9 374.1H230.93C230.93 374.1 230.98 374.07 231 374.05C231.14 373.97 231.23 373.87 231.27 373.76C231.27 373.74 231.28 373.72 231.28 373.71V373.68C231.28 373.68 231.28 373.66 231.28 373.65V378.02C231.28 378.16 231.19 378.31 231 378.42C230.98 378.43 230.95 378.45 230.93 378.46H230.9C230.9 378.46 230.87 378.48 230.86 378.49H230.84C230.84 378.49 230.8 378.51 230.78 378.52H230.75L230.73 378.54C230.73 378.54 230.69 378.55 230.67 378.55H230.63L230.58 378.57H230.46L230.44 378.59H230.37C230.37 378.59 230.36 378.59 230.35 378.59C230.33 378.59 230.31 378.59 230.3 378.59C230.3 378.59 230.28 378.59 230.27 378.59H230.25C230.25 378.59 230.21 378.59 230.18 378.59H230.12C230.12 378.59 230.08 378.58 230.05 378.57H229.99C229.99 378.57 229.95 378.55 229.94 378.55H229.9C229.9 378.55 229.87 378.53 229.85 378.53H229.84C229.84 378.53 229.8 378.51 229.78 378.51C229.78 378.51 229.74 378.49 229.72 378.48H229.7C229.7 378.48 229.66 378.45 229.63 378.44H229.61L229.59 378.42H229.57L229.55 378.4H229.54L229.52 378.38H229.51V378.36H229.49L229.47 378.33L229.44 378.29V378.26H229.42V378.23H229.4V378.2H229.39V378.17H229.38V378.14V378.11V378.08V378.05V373.68H229.36Z" fill="#766052"/>
<path d="M229.64 373.26C229.26 373.48 229.26 373.83 229.64 374.05C230.02 374.27 230.63 374.27 231.01 374.05C231.39 373.83 231.39 373.48 231.01 373.26C230.63 373.04 230.02 373.04 229.64 373.26Z" fill="white" stroke="black" stroke-width="0.5" stroke-linecap="round" stroke-linejoin="round"/>
<path d="M230.33 374.75C225.64 374.75 223.32 372.52 225.91 365.5C228.5 358.48 230.33 359.29 230.33 359.29C230.33 359.29 232.16 358.48 234.75 365.5C237.34 372.52 235.03 374.75 230.33 374.75Z" fill="#62AB51"/>
<path d="M225.91 365.5C227.01 362.53 227.96 360.96 228.71 360.14C228.19 361.69 227.86 363.31 227.65 364.93C227.38 366.98 227.29 369.08 227.77 371.09C228.08 372.41 228.67 373.69 229.53 374.73C225.39 374.47 223.48 372.11 225.92 365.5H225.91Z" fill="#548945"/>
<g clip-path="url(#clip0_97_769)">
<path d="M258.2 338.82C261.188 338.82 263.61 337.781 263.61 336.5C263.61 335.219 261.188 334.18 258.2 334.18C255.212 334.18 252.79 335.219 252.79 336.5C252.79 337.781 255.212 338.82 258.2 338.82Z" fill="#64AE47"/>
<path d="M256.88 329.8V329.87L256.9 329.89V329.93L256.92 329.95V329.97L256.94 329.99V330.01L256.96 330.03V330.05H256.98L257 330.09C257 330.09 257.02 330.13 257.03 330.14L257.06 330.18H257.07L257.09 330.21L257.11 330.23L257.13 330.25H257.15L257.17 330.28H257.19L257.21 330.31L257.24 330.33C257.24 330.33 257.3 330.36 257.33 330.38H257.35C257.35 330.38 257.41 330.42 257.44 330.43H257.45C257.45 330.43 257.51 330.46 257.55 330.47C257.57 330.47 257.6 330.48 257.62 330.49C257.64 330.49 257.65 330.49 257.67 330.5C257.69 330.5 257.72 330.51 257.74 330.52C257.76 330.52 257.78 330.52 257.79 330.53H257.81C257.81 330.53 257.87 330.54 257.9 330.55H257.93C257.93 330.55 257.97 330.55 257.98 330.55C258.01 330.55 258.04 330.55 258.07 330.55H258.13C258.13 330.55 258.18 330.55 258.2 330.55H258.26C258.26 330.55 258.3 330.55 258.33 330.55H258.39C258.39 330.55 258.43 330.55 258.46 330.54H258.52C258.52 330.54 258.57 330.52 258.59 330.52H258.64C258.64 330.52 258.7 330.5 258.72 330.49C258.74 330.49 258.76 330.49 258.77 330.48H258.8C258.8 330.48 258.85 330.45 258.88 330.44H258.9C258.9 330.44 258.95 330.41 258.97 330.4H259C259 330.4 259.07 330.35 259.1 330.33C259.3 330.22 259.42 330.08 259.47 329.93C259.47 329.91 259.48 329.88 259.49 329.86V329.82C259.49 329.82 259.49 329.8 259.49 329.78V335.75C259.5 335.95 259.37 336.15 259.11 336.3C259.08 336.32 259.05 336.33 259.01 336.35H258.98C258.98 336.35 258.94 336.38 258.92 336.39H258.89C258.89 336.39 258.84 336.42 258.81 336.43H258.76L258.73 336.45C258.73 336.45 258.68 336.46 258.65 336.47H258.6C258.6 336.47 258.55 336.49 258.53 336.49H258.47C258.47 336.49 258.43 336.5 258.4 336.51H258.34C258.34 336.51 258.3 336.51 258.27 336.51H258.24C258.24 336.51 258.22 336.51 258.21 336.51C258.19 336.51 258.16 336.51 258.14 336.51C258.13 336.51 258.12 336.51 258.1 336.51H258.08C258.08 336.51 258.02 336.51 257.99 336.51H257.91C257.91 336.51 257.85 336.49 257.82 336.49H257.79C257.79 336.49 257.76 336.48 257.75 336.48C257.73 336.48 257.7 336.48 257.68 336.46C257.66 336.46 257.65 336.46 257.63 336.45C257.61 336.45 257.58 336.44 257.56 336.43H257.55C257.55 336.43 257.5 336.41 257.47 336.4H257.46C257.46 336.4 257.4 336.37 257.38 336.36H257.36C257.36 336.36 257.3 336.32 257.27 336.3H257.25V336.28L257.21 336.26H257.19L257.17 336.23H257.15L257.13 336.2L257.11 336.18L257.09 336.16H257.08L257.05 336.12C257.05 336.12 257.03 336.08 257.02 336.07L257 336.03V335.99H256.98V335.97L256.96 335.95V335.93L256.94 335.91V335.86L256.92 335.84V335.77V329.8H256.88Z" fill="#766052"/>
<path d="M257.27 329.23C256.75 329.53 256.75 330.02 257.27 330.32C257.79 330.62 258.62 330.62 259.14 330.32C259.66 330.02 259.66 329.53 259.14 329.23C258.62 328.93 257.79 328.93 257.27 329.23Z" fill="white" stroke="black" stroke-width="0.5" stroke-linecap="round" stroke-linejoin="round"/>
<path d="M258.21 331.26C251.8 331.26 248.63 328.22 252.17 318.62C255.71 309.02 258.21 310.13 258.21 310.13C258.21 310.13 260.71 309.02 264.25 318.62C267.79 328.22 264.63 331.26 258.21 331.26Z" fill="#62AB51"/>
<path d="M252.17 318.62C253.67 314.56 254.98 312.42 255.99 311.3C255.28 313.41 254.83 315.63 254.54 317.84C254.18 320.64 254.05 323.51 254.7 326.25C255.13 328.05 255.94 329.8 257.1 331.23C251.44 330.88 248.84 327.65 252.17 318.62V318.62Z" fill="#548945"/>
<path d="M279.11 0.469727V113.43L336.16 79.8097L279.11 0.469727Z" fill="#4E7F3E"/>
<path d="M279.11 0.469727V113.43L219.41 78.6697L279.11 0.469727Z" fill="#5DA04A"/>
<path d="M279.11 0.469727V36.3597L282.51 29.5597L293.84 39.3797L291.58 26.9097L300.73 30.5297L279.11 0.469727Z" fill="#A0BF94"/>
<path d="M279.11 0.469727V36.3597L276.09 28.7997L268.53 36.3597V26.5297L259.44 26.2297L279.11 0.469727Z" fill="#B6DDAB"/>
<path d="M299.21 54.2397L297.32 66.3297H300.78L299.05 73.8898H303.16L300.24 89.7498L305.17 87.4897L301.57 100.24L312.14 93.9998V81.4398L306.42 82.1998L307.37 71.2397L303.16 69.7298L304.73 62.5497H300.46L299.21 54.2397Z" fill="#4A7239"/>
<path d="M315.49 57.2598L314.11 66.1398H316.64L315.37 71.6898H318.39L316.25 83.3398L319.87 81.6797L317.22 91.0398L324.99 86.4698V77.2397L320.79 77.7997L321.48 69.7498L318.39 68.6398L319.55 63.3698H316.41L315.49 57.2598Z" fill="#4A7239"/>
<path d="M270.75 78.0098L271.97 85.8198H269.74L270.85 90.6998H268.2L270.08 100.95L266.9 99.4897L269.23 107.72L262.4 103.69V95.5797L266.09 96.0698L265.48 88.9897L268.2 88.0197L267.18 83.3798H269.94L270.75 78.0098Z" fill="#589344"/>
<path d="M244.84 30.4297V140.42L300.38 107.68L244.84 30.4297Z" fill="#4E7F3E"/>
<path d="M244.84 30.4297V140.42L186.71 106.58L244.84 30.4297Z" fill="#5DA04A"/>
<path d="M244.84 30.4297V65.3797L248.15 58.7597L259.18 68.3197L256.98 56.1797L265.88 59.6997L244.84 30.4297Z" fill="#A0BF94"/>
<path d="M244.84 30.4297V65.3797L241.89 58.0197L234.54 65.3797V55.8097L225.69 55.5197L244.84 30.4297Z" fill="#B6DDAB"/>
<path d="M264.41 82.7896L262.57 94.5595H265.93L264.25 101.92H268.26L265.42 117.37L270.21 115.16L266.7 127.58L277 121.51V109.28L271.43 110.01L272.35 99.3395L268.26 97.8695L269.79 90.8795H265.63L264.41 82.7896Z" fill="#4A7239"/>
<path d="M280.26 85.7295L278.91 94.3795H281.38L280.15 99.7795H283.09L281 111.129L284.52 109.509L281.95 118.619L289.51 114.169V105.189L285.42 105.729L286.09 97.8895L283.09 96.8095L284.21 91.6795H281.16L280.26 85.7295Z" fill="#4A7239"/>
<path d="M236.7 105.939L237.88 113.539H235.71L236.8 118.289H234.21L236.05 128.269L232.95 126.849L235.22 134.859L228.57 130.939V123.039L232.16 123.519L231.57 116.629L234.21 115.679L233.23 111.159H235.91L236.7 105.939Z" fill="#589344"/>
<path d="M327.29 36.6299V135.01L275.3 104.74L327.29 36.6299Z" fill="#5DA04A"/>
<path d="M327.29 36.6299V67.8899L324.66 61.3099L318.08 67.8899V59.3299L310.16 59.0699L327.29 36.6299Z" fill="#B6DDAB"/>
<path d="M320.01 104.17L321.07 110.97H319.13L320.1 115.22H317.79L319.43 124.14L316.66 122.87L318.69 130.04L312.74 126.53V119.47L315.95 119.89L315.42 113.73L317.79 112.88L316.91 108.84H319.31L320.01 104.17Z" fill="#589344"/>
<path d="M281.55 66.6699V152.71L325 127.1L281.55 66.6699Z" fill="#4E7F3E"/>
<path d="M281.55 66.6699V152.71L236.08 126.24L281.55 66.6699Z" fill="#5DA04A"/>
<path d="M281.55 66.6699V93.9999L284.14 88.8199L292.77 96.3099L291.05 86.8099L298.01 89.5599L281.55 66.6699Z" fill="#A0BF94"/>
<path d="M281.55 66.6699V93.9999L279.25 88.2499L273.49 93.9999V86.5199L266.57 86.2899L281.55 66.6699Z" fill="#B6DDAB"/>
<path d="M296.86 107.63L295.42 116.83H298.05L296.74 122.59H299.87L297.65 134.68L301.4 132.95L298.65 142.66L306.71 137.91V128.35L302.36 128.92L303.07 120.58L299.87 119.43L301.07 113.96H297.81L296.86 107.63Z" fill="#4A7239"/>
<path d="M309.26 109.93L308.21 116.69H310.14L309.17 120.92H311.47L309.84 129.79L312.59 128.53L310.58 135.66L316.49 132.17V125.15L313.3 125.57L313.82 119.44L311.47 118.59L312.35 114.58H309.96L309.26 109.93Z" fill="#4A7239"/>
<path d="M275.18 125.73L276.11 131.68H274.41L275.26 135.4H273.24L274.67 143.21L272.25 142.09L274.02 148.36L268.82 145.3V139.12L271.63 139.49L271.17 134.1L273.24 133.35L272.47 129.82H274.57L275.18 125.73Z" fill="#589344"/>
<path d="M309.56 97.0596V169.43L346.1 147.89L309.56 97.0596Z" fill="#4E7F3E"/>
<path d="M309.56 97.0596V169.43L271.32 147.16L309.56 97.0596Z" fill="#5DA04A"/>
<path d="M309.56 97.0596V120.05L311.74 115.69L319 121.99L317.54 114L323.41 116.32L309.56 97.0596Z" fill="#A0BF94"/>
<path d="M309.56 97.0596V120.05L307.62 115.21L302.78 120.05V113.76L296.96 113.56L309.56 97.0596Z" fill="#B6DDAB"/>
<path d="M304.2 146.74L304.98 151.74H303.55L304.27 154.87H302.57L303.78 161.43L301.74 160.49L303.23 165.77L298.85 163.19V157.99L301.22 158.3L300.83 153.77L302.57 153.15L301.92 150.18H303.68L304.2 146.74Z" fill="#589344"/>
<path d="M211.26 66.4697V167.84L160.83 138.12L211.26 66.4697Z" fill="#5DA04A"/>
<path d="M211.26 66.4697V167.84L264.82 136.65L211.26 66.4697Z" fill="#4E7F3E"/>
<path d="M211.26 66.4697V98.6797L208.2 92.5797L198.03 101.39L200.07 90.2097L191.86 93.4497L211.26 66.4697Z" fill="#B6DDAB"/>
<path d="M211.26 66.4697V98.6797L213.97 91.8997L220.75 98.6797V89.8697L228.9 89.5897L211.26 66.4697Z" fill="#A0BF94"/>
<path d="M193.22 114.729L194.91 125.579H191.81L193.36 132.359H189.67L192.29 146.599L187.87 144.559L191.1 155.999L181.62 150.409V139.139L186.74 139.819L185.9 129.979L189.67 128.629L188.26 122.189H192.09L193.22 114.729Z" fill="#589344"/>
<path d="M178.61 117.44L179.85 125.41H177.58L178.71 130.39H176L177.93 140.85L174.68 139.35L177.06 147.75L170.09 143.65V135.37L173.85 135.87L173.23 128.65L176 127.65L174.97 122.92H177.78L178.61 117.44Z" fill="#589344"/>
<path d="M218.75 136.06L217.66 143.07H219.66L218.66 147.45H221.05L219.36 156.64L222.21 155.33L220.12 162.72L226.25 159.11V151.83L222.94 152.26L223.48 145.91L221.05 145.04L221.96 140.88H219.48L218.75 136.06Z" fill="#4A7239"/>
<path d="M250.56 107.49V189.22L209.9 165.26L250.56 107.49Z" fill="#5DA04A"/>
<path d="M250.56 107.49V189.22L293.74 164.07L250.56 107.49Z" fill="#4E7F3E"/>
<path d="M250.56 107.49V133.46L248.09 128.54L239.89 135.65L241.54 126.63L234.92 129.24L250.56 107.49Z" fill="#B6DDAB"/>
<path d="M250.56 107.49V133.46L252.74 127.99L258.21 133.46V126.35L264.78 126.13L250.56 107.49Z" fill="#A0BF94"/>
<path d="M236.01 146.4L237.38 155.14H234.88L236.13 160.61H233.15L235.27 172.09L231.7 170.45L234.31 179.68L226.66 175.17V166.08L230.79 166.62L230.11 158.7L233.15 157.6L232.02 152.41H235.11L236.01 146.4Z" fill="#589344"/>
<path d="M224.24 148.58L225.24 155.01H223.4L224.32 159.02H222.13L223.68 167.45L221.07 166.25L222.98 173.02L217.36 169.71V163.04L220.4 163.44L219.9 157.62L222.13 156.81L221.3 153H223.57L224.24 148.58Z" fill="#589344"/>
<path d="M256.6 163.6L255.72 169.25H257.33L256.53 172.78H258.45L257.09 180.19L259.39 179.13L257.7 185.09L262.64 182.18V176.31L259.97 176.66L260.41 171.54L258.45 170.83L259.18 167.48H257.19L256.6 163.6Z" fill="#4A7239"/>
<path d="M195.57 139.08V194.29L168.11 178.1L195.57 139.08Z" fill="#5DA04A"/>
<path d="M195.57 139.08V194.29L224.74 177.3L195.57 139.08Z" fill="#4E7F3E"/>
<path d="M195.57 139.08V156.62L193.91 153.3L188.37 158.1L189.47 152.01L185 153.77L195.57 139.08Z" fill="#B6DDAB"/>
<path d="M195.57 139.08V156.62L197.04 152.93L200.74 156.62V151.82L205.18 151.67L195.57 139.08Z" fill="#A0BF94"/>
<path d="M185.75 165.359L186.67 171.269H184.98L185.82 174.959H183.81L185.24 182.719L182.83 181.609L184.59 187.839L179.43 184.789V178.649L182.22 179.019L181.76 173.669L183.81 172.929L183.05 169.419H185.13L185.75 165.359Z" fill="#589344"/>
<path d="M177.79 166.84L178.46 171.18H177.23L177.84 173.89H176.37L177.42 179.58L175.65 178.77L176.94 183.35L173.15 181.11V176.6L175.2 176.87L174.86 172.94L176.37 172.4L175.81 169.82H177.34L177.79 166.84Z" fill="#589344"/>
<path d="M199.65 176.979L199.06 180.789H200.15L199.6 183.18H200.9L199.98 188.19L201.53 187.469L200.4 191.5L203.73 189.53V185.56L201.93 185.799L202.23 182.34L200.9 181.87L201.39 179.599H200.05L199.65 176.979Z" fill="#4A7239"/>
<path d="M276.78 119.89V187.57L243.12 167.72L276.78 119.89Z" fill="#5DA04A"/>
<path d="M276.78 119.89V187.57L312.54 166.74L276.78 119.89Z" fill="#4E7F3E"/>
<path d="M276.78 119.89V141.39L274.74 137.32L267.95 143.2L269.31 135.73L263.83 137.9L276.78 119.89Z" fill="#B6DDAB"/>
<path d="M276.78 119.89V141.39L278.59 136.87L283.12 141.39V135.51L288.56 135.33L276.78 119.89Z" fill="#A0BF94"/>
<path d="M264.74 152.109L265.87 159.349H263.8L264.83 163.879H262.37L264.12 173.379L261.17 172.019L263.33 179.659L256.99 175.929V168.399L260.42 168.859L259.85 162.289L262.37 161.389L261.43 157.089H263.99L264.74 152.109Z" fill="#589344"/>
<path d="M254.99 153.919L255.81 159.239H254.3L255.05 162.559H253.25L254.53 169.539L252.36 168.539L253.95 174.149L249.3 171.409V165.889L251.81 166.219L251.4 161.399L253.25 160.729L252.56 157.569H254.43L254.99 153.919Z" fill="#589344"/>
<path d="M281.79 166.35L281.06 171.03H282.39L281.73 173.95H283.32L282.19 180.09L284.09 179.21L282.7 184.14L286.79 181.73V176.87L284.58 177.17L284.94 172.93L283.32 172.34L283.92 169.56H282.27L281.79 166.35Z" fill="#4A7239"/>
<path d="M245.78 130.78V214.32L204.23 189.83L245.78 130.78Z" fill="#5DA04A"/>
<path d="M245.78 130.78V214.32L289.93 188.61L245.78 130.78Z" fill="#4E7F3E"/>
<path d="M245.78 130.78V157.32L243.27 152.29L234.89 159.56L236.57 150.34L229.8 153.01L245.78 130.78Z" fill="#B6DDAB"/>
<path d="M245.78 130.78V157.32L248.02 151.73L253.61 157.32V150.06L260.33 149.83L245.78 130.78Z" fill="#A0BF94"/>
<path d="M230.92 170.55L232.31 179.49H229.76L231.04 185.08H228L230.16 196.81L226.51 195.13L229.18 204.56L221.36 199.95V190.66L225.59 191.22L224.89 183.12L228 182L226.84 176.69H229.99L230.92 170.55Z" fill="#589344"/>
<path d="M218.88 172.78L219.9 179.35H218.03L218.97 183.45H216.73L218.32 192.07L215.64 190.84L217.6 197.76L211.86 194.38V187.56L214.96 187.97L214.45 182.02L216.73 181.19L215.88 177.3H218.2L218.88 172.78Z" fill="#589344"/>
<path d="M251.96 188.13L251.07 193.9H252.71L251.89 197.51H253.85L252.46 205.09L254.81 204.01L253.09 210.09L258.14 207.12V201.12L255.41 201.48L255.86 196.25L253.85 195.52L254.6 192.1H252.56L251.96 188.13Z" fill="#4A7239"/>
<path d="M212.4 167.729V217.81L187.49 203.13L212.4 167.729Z" fill="#5DA04A"/>
<path d="M212.4 167.729V217.81L238.86 202.4L212.4 167.729Z" fill="#4E7F3E"/>
<path d="M212.4 167.729V183.65L210.89 180.63L205.86 184.99L206.87 179.46L202.81 181.06L212.4 167.729Z" fill="#B6DDAB"/>
<path d="M212.4 167.729V183.65L213.74 180.299L217.09 183.65V179.289L221.11 179.159L212.4 167.729Z" fill="#A0BF94"/>
<path d="M203.49 191.569L204.32 196.929H202.79L203.56 200.279H201.73L203.03 207.319L200.84 206.309L202.44 211.959L197.75 209.199V203.629L200.29 203.969L199.87 199.109L201.73 198.439L201.04 195.259H202.93L203.49 191.569Z" fill="#589344"/>
<path d="M196.27 192.91L196.88 196.85H195.76L196.32 199.31H194.98L195.93 204.47L194.33 203.74L195.5 207.89L192.06 205.86V201.77L193.92 202.02L193.61 198.45L194.98 197.96L194.47 195.62H195.86L196.27 192.91Z" fill="#589344"/>
<path d="M216.1 202.109L215.56 205.569H216.55L216.06 207.739H217.23L216.4 212.279L217.81 211.629L216.78 215.279L219.8 213.499V209.899L218.17 210.119L218.44 206.979L217.23 206.549L217.68 204.489H216.46L216.1 202.109Z" fill="#4A7239"/>
<path d="M334.45 126.76V186.5L302.88 168.12L334.45 126.76Z" fill="#5DA04A"/>
<path d="M304.29 145.05V204.79L334.46 187.01L304.29 145.05Z" fill="#4E7F3E"/>
<path d="M304.29 145.05V204.79L272.72 186.41L304.29 145.05Z" fill="#5DA04A"/>
<path d="M304.29 145.05V164.03L306.09 160.44L312.09 165.63L310.89 159.04L315.72 160.95L304.29 145.05Z" fill="#A0BF94"/>
<path d="M304.29 145.05V164.03L302.69 160.04L298.7 164.03V158.84L293.89 158.68L304.29 145.05Z" fill="#B6DDAB"/>
<path d="M314.92 173.49L313.93 179.89H315.75L314.84 183.88H317.01L315.47 192.27L318.08 191.07L316.17 197.82L321.76 194.52V187.88L318.74 188.28L319.24 182.48L317.01 181.68L317.84 177.89H315.59L314.92 173.49Z" fill="#4A7239"/>
<path d="M299.87 186.06L300.52 190.19H299.34L299.93 192.77H298.52L299.52 198.19L297.84 197.42L299.07 201.78L295.46 199.65V195.36L297.41 195.61L297.09 191.87L298.52 191.35L297.99 188.9H299.44L299.87 186.06Z" fill="#589344"/>
<path d="M272.56 163.21V223.26L242.69 205.65L272.56 163.21Z" fill="#5DA04A"/>
<path d="M272.56 163.21V223.26L304.29 204.78L272.56 163.21Z" fill="#4E7F3E"/>
<path d="M272.56 163.21V182.29L270.75 178.67L264.73 183.89L265.93 177.26L261.07 179.19L272.56 163.21Z" fill="#B6DDAB"/>
<path d="M272.56 163.21V182.29L274.17 178.27L278.18 182.29V177.06L283.01 176.9L272.56 163.21Z" fill="#A0BF94"/>
<path d="M261.87 191.79L262.88 198.22H261.04L261.96 202.24H259.77L261.32 210.67L258.71 209.47L260.62 216.24L255 212.93V206.25L258.04 206.66L257.54 200.83L259.77 200.03L258.94 196.21H261.21L261.87 191.79Z" fill="#589344"/>
<path d="M253.22 193.4L253.95 198.12H252.61L253.28 201.07H251.67L252.81 207.26L250.89 206.38L252.3 211.36L248.17 208.92V204.02L250.4 204.32L250.03 200.04L251.67 199.45L251.06 196.64H252.73L253.22 193.4Z" fill="#589344"/>
<path d="M277 204.43L276.35 208.58H277.54L276.95 211.18H278.36L277.36 216.62L279.05 215.85L277.81 220.22L281.44 218.08V213.77L279.48 214.03L279.8 210.27L278.36 209.75L278.9 207.28H277.43L277 204.43Z" fill="#4A7239"/>
<path d="M333.95 162.26V222.01L302.38 203.63L333.95 162.26Z" fill="#5DA04A"/>
<path d="M238.57 176.89V227.99L213.15 213.01L238.57 176.89Z" fill="#5DA04A"/>
<path d="M238.57 176.89V227.99L265.57 212.27L238.57 176.89Z" fill="#4E7F3E"/>
<path d="M238.57 176.89V193.12L237.03 190.05L231.9 194.49L232.93 188.85L228.79 190.49L238.57 176.89Z" fill="#B6DDAB"/>
<path d="M238.57 176.89V193.12L239.94 189.71L243.35 193.12V188.68L247.46 188.54L238.57 176.89Z" fill="#A0BF94"/>
<path d="M229.48 201.209L230.33 206.679H228.77L229.55 210.099H227.69L229.01 217.279L226.78 216.249L228.41 222.019L223.63 219.199V213.519L226.21 213.859L225.79 208.899L227.69 208.219L226.98 204.969H228.91L229.48 201.209Z" fill="#589344"/>
<path d="M222.11 202.58L222.74 206.6H221.59L222.16 209.11H220.8L221.77 214.38L220.13 213.63L221.33 217.86L217.81 215.79V211.62L219.71 211.87L219.4 208.23L220.8 207.73L220.28 205.34H221.69L222.11 202.58Z" fill="#589344"/>
<path d="M242.35 211.97L241.8 215.5H242.81L242.3 217.71H243.5L242.65 222.34L244.09 221.68L243.04 225.41L246.13 223.58V219.92L244.46 220.14L244.73 216.93L243.5 216.49L243.96 214.4H242.71L242.35 211.97Z" fill="#4A7239"/>
<path d="M302.43 180.77V240.82L272.56 223.219L302.43 180.77Z" fill="#5DA04A"/>
<path d="M302.43 180.77V240.82L334.16 222.34L302.43 180.77Z" fill="#4E7F3E"/>
<path d="M302.43 180.77V199.849L300.62 196.229L294.6 201.46L295.8 194.83L290.94 196.75L302.43 180.77Z" fill="#B6DDAB"/>
<path d="M302.43 180.77V199.849L304.04 195.83L308.05 199.849V194.63L312.88 194.469L302.43 180.77Z" fill="#A0BF94"/>
<path d="M291.75 209.359L292.75 215.779H290.91L291.83 219.799H289.64L291.2 228.239L288.58 227.029L290.49 233.809L284.87 230.499V223.819L287.91 224.219L287.41 218.389L289.64 217.589L288.81 213.769H291.08L291.75 209.359Z" fill="#589344"/>
<path d="M283.09 210.959L283.83 215.679H282.48L283.15 218.629H281.55L282.69 224.829L280.76 223.939L282.17 228.919L278.04 226.489V221.579L280.27 221.879L279.91 217.599L281.55 217.009L280.93 214.209H282.6L283.09 210.959Z" fill="#589344"/>
<path d="M306.87 221.989L306.23 226.149H307.41L306.82 228.739H308.23L307.23 234.189L308.92 233.409L307.68 237.789L311.31 235.649V231.329L309.35 231.589L309.67 227.829L308.23 227.309L308.77 224.849H307.3L306.87 221.989Z" fill="#4A7239"/>
<path d="M214.8 200.08V251.41L189.26 236.36L214.8 200.08Z" fill="#5DA04A"/>
<path d="M214.8 200.08V251.41L241.93 235.62L214.8 200.08Z" fill="#4E7F3E"/>
<path d="M214.8 200.08V216.39L213.26 213.3L208.1 217.76L209.14 212.09L204.98 213.74L214.8 200.08Z" fill="#B6DDAB"/>
<path d="M214.8 200.08V216.39L216.17 212.95L219.61 216.39V211.92L223.74 211.78L214.8 200.08Z" fill="#A0BF94"/>
<path d="M205.67 224.51L206.52 230.01H204.95L205.74 233.44H203.87L205.2 240.65L202.96 239.62L204.6 245.42L199.79 242.59V236.88L202.39 237.22L201.96 232.24L203.87 231.55L203.16 228.29H205.1L205.67 224.51Z" fill="#589344"/>
<path d="M198.27 225.89L198.9 229.92H197.74L198.32 232.45H196.95L197.92 237.74L196.28 236.98L197.48 241.24L193.95 239.16V234.97L195.86 235.22L195.54 231.56L196.95 231.06L196.42 228.66H197.85L198.27 225.89Z" fill="#589344"/>
<path d="M218.6 235.32L218.05 238.87H219.06L218.55 241.09H219.76L218.9 245.74L220.35 245.08L219.29 248.82L222.39 246.99V243.3L220.72 243.52L220.99 240.31L219.76 239.87L220.22 237.76H218.97L218.6 235.32Z" fill="#4A7239"/>
<path d="M266.82 176.91V282.02L214.53 251.2L266.82 176.91Z" fill="#5DA04A"/>
<path d="M266.82 176.91V282.02L322.37 249.68L266.82 176.91Z" fill="#4E7F3E"/>
<path d="M266.82 176.91V210.3L263.65 203.98L253.11 213.12L255.22 201.51L246.7 204.88L266.82 176.91Z" fill="#B6DDAB"/>
<path d="M266.82 176.91V210.3L269.63 203.27L276.66 210.3V201.16L285.12 200.88L266.82 176.91Z" fill="#A0BF94"/>
<path d="M248.12 226.939L249.87 238.189H246.66L248.26 245.229H244.44L247.15 259.989L242.57 257.879L245.92 269.739L236.08 263.949V252.259L241.4 252.959L240.52 242.759L244.44 241.359L242.98 234.679H246.95L248.12 226.939Z" fill="#589344"/>
<path d="M232.97 229.76L234.25 238.02H231.89L233.07 243.18H230.26L232.26 254.03L228.89 252.48L231.35 261.19L224.13 256.93V248.35L228.03 248.86L227.39 241.38L230.26 240.34L229.19 235.44H232.11L232.97 229.76Z" fill="#589344"/>
<path d="M274.59 249.07L273.46 256.33H275.54L274.5 260.87H276.97L275.22 270.41L278.18 269.05L276.01 276.71L282.37 272.96V265.41L278.93 265.87L279.5 259.28L276.97 258.37L277.91 254.06H275.35L274.59 249.07Z" fill="#4A7239"/>
<path d="M324.59 212.47V295.85L283.11 271.41L324.59 212.47Z" fill="#5DA04A"/>
<path d="M324.59 212.47V238.96L322.07 233.94L313.71 241.19L315.38 231.99L308.63 234.66L324.59 212.47Z" fill="#B6DDAB"/>
<path d="M309.75 252.16L311.14 261.09H308.59L309.87 266.66H306.83L308.99 278.38L305.35 276.7L308.01 286.11L300.2 281.51V272.24L304.42 272.8L303.73 264.71L306.83 263.6L305.67 258.3H308.82L309.75 252.16Z" fill="#589344"/>
<path d="M297.73 254.39L298.75 260.95H296.88L297.82 265.04H295.59L297.17 273.65L294.5 272.42L296.45 279.33L290.72 275.95V269.14L293.82 269.55L293.31 263.61L295.59 262.79L294.74 258.9H297.05L297.73 254.39Z" fill="#589344"/>
<path d="M305.08 218.33V323.3L252.86 292.52L305.08 218.33Z" fill="#5DA04A"/>
<path d="M305.08 218.33V323.3L360.55 291L305.08 218.33Z" fill="#4E7F3E"/>
<path d="M305.08 218.33V251.68L301.92 245.36L291.39 254.49L293.5 242.9L284.99 246.26L305.08 218.33Z" fill="#B6DDAB"/>
<path d="M305.08 218.33V251.68L307.89 244.66L314.91 251.68V242.55L323.36 242.27L305.08 218.33Z" fill="#A0BF94"/>
<path d="M286.4 268.3L288.15 279.53H284.95L286.55 286.55H282.73L285.44 301.3L280.86 299.19L284.21 311.04L274.39 305.25V293.58L279.7 294.28L278.82 284.1L282.73 282.69L281.27 276.02H285.24L286.4 268.3Z" fill="#589344"/>
<path d="M271.27 271.11L272.56 279.36H270.2L271.38 284.51H268.57L270.57 295.34L267.21 293.8L269.66 302.5L262.45 298.24V289.67L266.35 290.19L265.71 282.71L268.57 281.68L267.5 276.78H270.42L271.27 271.11Z" fill="#589344"/>
<path d="M312.85 290.39L311.72 297.64H313.79L312.75 302.18H315.22L313.47 311.7L316.42 310.34L314.26 317.99L320.61 314.25V306.71L317.18 307.17L317.74 300.59L315.22 299.68L316.16 295.38H313.6L312.85 290.39Z" fill="#4A7239"/>
</g>
<defs>
<clipPath id="clip0_97_769">
<rect width="224" height="339" fill="white" transform="translate(97)"/>
</clipPath>
</defs>
</svg>
