<svg width="304" height="194" viewBox="0 0 304 194" fill="none" xmlns="http://www.w3.org/2000/svg">
<path d="M300.41 163.379C304.54 165.769 304.57 169.639 300.46 172.019C296.35 174.409 289.67 174.409 285.54 172.019C281.41 169.629 281.38 165.759 285.49 163.379C289.6 160.989 296.28 160.989 300.41 163.379Z" fill="#D6D6D6"/>
<path d="M300 127.16C300 127.16 300 127.25 300 127.29C300 127.33 300 127.37 299.99 127.4C299.99 127.44 299.98 127.49 299.97 127.53C299.97 127.57 299.95 127.61 299.95 127.64C299.95 127.68 299.93 127.72 299.92 127.77C299.91 127.81 299.9 127.85 299.89 127.88C299.88 127.92 299.86 127.96 299.85 128.01C299.84 128.05 299.82 128.08 299.81 128.12C299.79 128.16 299.77 128.21 299.75 128.25C299.73 128.29 299.72 128.32 299.7 128.36C299.68 128.4 299.66 128.45 299.63 128.49C299.61 128.52 299.59 128.56 299.57 128.59C299.54 128.64 299.51 128.69 299.48 128.74C299.46 128.77 299.44 128.8 299.42 128.83C299.38 128.89 299.34 128.94 299.3 129C299.28 129.02 299.27 129.05 299.25 129.07C299.18 129.16 299.11 129.24 299.03 129.33C299.01 129.35 298.99 129.37 298.97 129.4C298.91 129.47 298.84 129.53 298.77 129.59C298.74 129.62 298.71 129.65 298.68 129.68C298.64 129.72 298.6 129.75 298.56 129.79C298.52 129.82 298.48 129.86 298.44 129.89C298.4 129.93 298.35 129.96 298.3 130C298.26 130.03 298.22 130.06 298.17 130.1C298.12 130.13 298.07 130.17 298.02 130.2C297.97 130.23 297.93 130.26 297.88 130.29C297.83 130.32 297.78 130.36 297.72 130.39C297.65 130.43 297.59 130.47 297.52 130.51C297.33 130.62 297.14 130.72 296.94 130.82C296.89 130.85 296.83 130.87 296.78 130.89C296.6 130.97 296.42 131.05 296.23 131.13C296.21 131.13 296.18 131.15 296.16 131.16C295.96 131.24 295.75 131.31 295.54 131.37C295.39 131.42 295.25 131.46 295.1 131.5C294.99 131.53 294.88 131.56 294.76 131.59C294.6 131.63 294.44 131.66 294.29 131.69C294.17 131.71 294.06 131.74 293.94 131.76C293.89 131.76 293.84 131.78 293.79 131.78C293.59 131.81 293.39 131.84 293.19 131.86C293.13 131.86 293.07 131.87 293.02 131.88C292.91 131.89 292.79 131.9 292.67 131.91C292.48 131.93 292.28 131.94 292.09 131.95C291.97 131.95 291.84 131.95 291.72 131.96C291.56 131.96 291.41 131.96 291.25 131.96C291.12 131.96 290.99 131.96 290.86 131.95C290.71 131.95 290.57 131.94 290.42 131.93C290.29 131.93 290.15 131.91 290.02 131.9C289.88 131.89 289.73 131.87 289.59 131.85C289.46 131.83 289.33 131.82 289.2 131.8C289.05 131.78 288.89 131.75 288.74 131.72C288.62 131.7 288.5 131.67 288.38 131.65C288.2 131.61 288.02 131.57 287.85 131.52C287.74 131.49 287.62 131.46 287.51 131.43C287.45 131.41 287.39 131.39 287.33 131.37C287.15 131.31 286.98 131.25 286.81 131.19C286.76 131.17 286.71 131.15 286.66 131.14C286.5 131.08 286.35 131.01 286.2 130.95C286.13 130.92 286.05 130.89 285.98 130.85C285.76 130.75 285.55 130.64 285.35 130.52C284.08 129.78 283.28 128.88 282.96 127.93C282.91 127.77 282.87 127.61 282.84 127.45C282.83 127.37 282.82 127.29 282.81 127.21C282.81 127.13 282.81 127.05 282.81 126.97L282.74 167.19C282.74 168.48 283.59 169.76 285.28 170.74C285.48 170.86 285.69 170.97 285.91 171.07C285.98 171.1 286.06 171.13 286.13 171.17C286.26 171.23 286.39 171.29 286.52 171.34C286.54 171.34 286.57 171.36 286.59 171.37C286.64 171.39 286.69 171.41 286.74 171.42C286.91 171.48 287.09 171.54 287.26 171.6C287.32 171.62 287.38 171.64 287.44 171.66C287.48 171.67 287.52 171.69 287.56 171.7C287.63 171.72 287.71 171.73 287.78 171.75C287.96 171.8 288.13 171.84 288.31 171.88C288.36 171.89 288.4 171.91 288.45 171.92C288.52 171.93 288.59 171.94 288.66 171.96C288.81 171.99 288.96 172.02 289.12 172.04C289.18 172.04 289.24 172.06 289.3 172.07C289.37 172.07 289.43 172.08 289.5 172.09C289.64 172.11 289.79 172.12 289.93 172.14C290 172.14 290.07 172.16 290.14 172.16C290.2 172.16 290.27 172.16 290.33 172.17C290.48 172.18 290.62 172.19 290.77 172.19C290.84 172.19 290.92 172.19 290.99 172.2C291.05 172.2 291.11 172.2 291.16 172.2C291.32 172.2 291.47 172.2 291.63 172.2C291.71 172.2 291.79 172.2 291.87 172.2C291.92 172.2 291.96 172.2 292.01 172.2C292.21 172.2 292.4 172.18 292.59 172.16C292.67 172.16 292.75 172.16 292.82 172.14C292.86 172.14 292.89 172.14 292.93 172.13C292.99 172.13 293.05 172.12 293.1 172.11C293.3 172.09 293.5 172.06 293.7 172.03C293.75 172.03 293.8 172.02 293.85 172.01C293.87 172.01 293.9 172.01 293.92 172C294.01 171.98 294.1 171.96 294.2 171.94C294.36 171.91 294.52 171.88 294.68 171.84C294.79 171.81 294.91 171.78 295.02 171.75C295.17 171.71 295.32 171.67 295.46 171.62C295.49 171.62 295.52 171.6 295.56 171.59C295.74 171.53 295.91 171.47 296.08 171.41C296.1 171.41 296.13 171.39 296.15 171.38C296.34 171.31 296.52 171.23 296.7 171.14C296.75 171.12 296.81 171.09 296.86 171.07C297.06 170.97 297.25 170.87 297.44 170.76C297.48 170.74 297.51 170.72 297.55 170.7C297.58 170.68 297.61 170.66 297.64 170.64C297.69 170.61 297.75 170.57 297.8 170.54C297.85 170.51 297.89 170.48 297.94 170.45C297.99 170.42 298.04 170.38 298.09 170.35C298.13 170.32 298.18 170.29 298.22 170.25C298.27 170.21 298.31 170.18 298.36 170.14C298.4 170.11 298.44 170.07 298.48 170.04C298.52 170 298.56 169.97 298.6 169.93C298.62 169.92 298.63 169.9 298.65 169.89C298.67 169.88 298.68 169.86 298.69 169.85C298.76 169.79 298.82 169.72 298.89 169.66C298.91 169.64 298.93 169.62 298.95 169.59C299.03 169.5 299.1 169.42 299.17 169.33C299.17 169.33 299.2 169.28 299.21 169.26C299.25 169.2 299.29 169.15 299.33 169.09C299.35 169.06 299.37 169.03 299.39 169C299.42 168.95 299.45 168.9 299.48 168.85C299.48 168.84 299.5 168.82 299.51 168.81C299.52 168.79 299.53 168.77 299.54 168.75C299.56 168.71 299.59 168.66 299.61 168.62C299.63 168.58 299.64 168.55 299.66 168.51C299.68 168.47 299.7 168.42 299.72 168.38C299.72 168.36 299.74 168.34 299.74 168.32C299.74 168.3 299.75 168.28 299.76 168.27C299.77 168.23 299.79 168.19 299.8 168.14C299.81 168.1 299.82 168.06 299.83 168.03C299.84 167.99 299.85 167.95 299.86 167.9C299.86 167.88 299.87 167.85 299.88 167.83C299.88 167.81 299.88 167.8 299.88 167.78C299.88 167.74 299.89 167.69 299.9 167.65C299.9 167.61 299.91 167.57 299.91 167.54C299.91 167.5 299.91 167.45 299.91 167.41C299.91 167.38 299.91 167.36 299.91 167.33C299.91 167.3 299.91 167.28 299.91 167.25L299.98 127.03C299.98 127.08 299.98 127.13 299.98 127.18L300 127.16Z" fill="#EDEDED"/>
<path d="M297.46 123.66C300.84 125.61 300.86 128.77 297.5 130.72C294.15 132.67 288.69 132.67 285.31 130.72C281.93 128.77 281.92 125.61 285.27 123.66C288.62 121.71 294.08 121.71 297.46 123.66Z" fill="white"/>
</svg>
