<svg width="304" height="194" viewBox="0 0 304 194" fill="none" xmlns="http://www.w3.org/2000/svg">
<path d="M257.64 86.8691L240.16 97.0691C239.44 97.4891 239.31 98.4691 239.9 99.0591L240.23 99.3891C240.64 99.7991 241.27 99.8791 241.77 99.5891L258.35 89.8791C258.85 89.5891 259.48 89.6691 259.89 90.0791L260.04 90.2291C260.63 90.8191 260.5 91.7991 259.78 92.2191L243.52 101.819C242.8 102.239 242.68 103.219 243.26 103.809L243.67 104.219C244.08 104.629 244.72 104.709 245.22 104.409L261.26 94.6891C261.76 94.3891 262.4 94.4691 262.81 94.8791L262.97 95.0391C263.56 95.6291 263.43 96.6191 262.71 97.0391L246.9 106.089C246.18 106.509 246.05 107.499 246.64 108.089C247.04 108.489 247.66 108.579 248.16 108.299L266.13 98.2091" stroke="#FFD600" stroke-width="0.5" stroke-linecap="round" stroke-linejoin="round"/>
<path d="M230.91 102.289L213.43 112.489C212.71 112.909 212.58 113.889 213.17 114.479L213.5 114.809C213.91 115.219 214.54 115.299 215.04 115.009L231.62 105.299C232.12 105.009 232.75 105.089 233.16 105.499L233.31 105.649C233.9 106.239 233.77 107.219 233.05 107.639L216.79 117.239C216.07 117.659 215.95 118.639 216.53 119.229L216.94 119.639C217.35 120.049 217.99 120.129 218.49 119.829L234.53 110.109C235.03 109.809 235.67 109.889 236.08 110.299L236.24 110.459C236.83 111.049 236.7 112.039 235.98 112.459L220.17 121.509C219.45 121.929 219.32 122.919 219.91 123.509C220.31 123.909 220.93 123.999 221.43 123.719L239.4 113.629" stroke="#FFD600" stroke-width="0.5" stroke-linecap="round" stroke-linejoin="round"/>
<path d="M270.1 103.839L252.62 114.039C251.9 114.459 251.77 115.439 252.36 116.029L252.69 116.359C253.1 116.769 253.73 116.849 254.23 116.559L270.81 106.849C271.31 106.559 271.94 106.639 272.35 107.049L272.5 107.199C273.09 107.789 272.96 108.769 272.24 109.189L255.98 118.789C255.26 119.209 255.14 120.189 255.72 120.779L256.13 121.189C256.54 121.599 257.18 121.679 257.68 121.379L273.72 111.659C274.22 111.359 274.86 111.439 275.27 111.849L275.43 112.009C276.02 112.599 275.89 113.589 275.17 114.009L259.36 123.059C258.64 123.479 258.51 124.469 259.1 125.059C259.5 125.459 260.12 125.549 260.62 125.269L278.59 115.179" stroke="#FFD600" stroke-width="0.5" stroke-linecap="round" stroke-linejoin="round"/>
<path d="M243.37 119.259L225.89 129.459C225.17 129.879 225.04 130.859 225.63 131.449L225.96 131.779C226.37 132.189 227 132.269 227.5 131.979L244.08 122.269C244.58 121.979 245.21 122.059 245.62 122.469L245.77 122.619C246.36 123.209 246.23 124.189 245.51 124.609L229.25 134.209C228.53 134.629 228.41 135.609 228.99 136.199L229.4 136.609C229.81 137.019 230.45 137.099 230.95 136.799L246.99 127.079C247.49 126.779 248.13 126.859 248.54 127.269L248.7 127.429C249.29 128.019 249.16 129.009 248.44 129.429L232.63 138.479C231.91 138.899 231.78 139.889 232.37 140.479C232.77 140.879 233.39 140.969 233.89 140.689L251.86 130.599" stroke="#FFD600" stroke-width="0.5" stroke-linecap="round" stroke-linejoin="round"/>
</svg>
