<svg width="304" height="194" viewBox="0 0 304 194" fill="none" xmlns="http://www.w3.org/2000/svg">
<path d="M161.58 49.96L161.64 68.72L135.26 84.07L135.19 61.15L161.58 49.96Z" fill="#C4C4C4"/>
<path d="M135.26 84.0696L115.06 72.3296L114.99 51.3296L124.5 48.8496L135.19 61.1496L135.26 84.0696Z" fill="white"/>
<path d="M124.36 48.6897L151.44 33.1797L163.49 49.4897L136.42 65.0097L124.36 48.6897Z" fill="#2EAA77"/>
<path d="M124.36 48.6895L113.65 52.0595V52.7095L123.97 49.8895L136.42 66.1995V65.0095L124.36 48.6895Z" fill="#1F8456"/>
<path d="M151.44 33.1797L140.14 36.7897L113.65 52.0597L124.36 48.6897L151.44 33.1797Z" fill="#289E6B"/>
<path d="M136.42 65.0093V66.1993L163.49 50.6793V49.4893L136.42 65.0093Z" fill="#258959"/>
<path d="M144.51 63.8799L144.53 72.9699L139.27 75.9999L139.25 66.9199L144.51 63.8799Z" fill="#399DBE"/>
<path d="M144.55 72.9699L139.27 75.9999V75.4199L144.03 72.6699L144.55 72.9699Z" fill="#EFEDE7"/>
<path d="M144.51 63.8799L144.55 72.9699L144.03 72.6699L144.01 64.1699L144.51 63.8799Z" fill="#EFEDE7"/>
<path d="M141.98 65.3496L142 74.3696L141.66 74.1796L141.65 65.5396L141.98 65.3496Z" fill="#EFEDE7"/>
<path d="M144.39 68.6197L139.27 71.5697L139.26 71.1897L144.05 68.4297L144.39 68.6197Z" fill="#EFEDE7"/>
<path d="M127.86 63.7998L127.84 72.8798L133.1 75.9198L133.12 66.8398L127.86 63.7998Z" fill="#6DC6DC"/>
<path d="M127.82 72.8801L133.1 75.9201V75.3401L128.33 72.5801L127.82 72.8801Z" fill="#DDDDDD"/>
<path d="M127.86 63.7998L127.82 72.8798L128.33 72.5798L128.35 64.0898L127.86 63.7998Z" fill="#DDDDDD"/>
<path d="M130.39 65.2695L130.36 74.2895L130.7 74.0895L130.71 65.4495L130.39 65.2695Z" fill="#DDDDDD"/>
<path d="M127.98 68.5398L133.1 71.4898V71.1098L128.31 68.3398L127.98 68.5398Z" fill="#DDDDDD"/>
<path d="M117.7 58.0098L117.68 72.0098L124.73 76.1698L124.75 62.1698L117.7 58.0098Z" fill="#6DC6DC"/>
<path d="M117.65 72.0094L124.73 76.1694V75.4694L118.27 71.6494L117.65 72.0094Z" fill="#DDDDDD"/>
<path d="M117.7 58.0098L117.65 72.0098L118.27 71.6498L118.3 58.3498L117.7 58.0098Z" fill="#DDDDDD"/>
<path d="M121.38 60.1699L121.35 74.0599L121.76 73.8199L121.77 60.3999L121.38 60.1699Z" fill="#DDDDDD"/>
<path d="M151.61 60.0098L151.63 69.0998L146.37 72.1298L146.35 63.0498L151.61 60.0098Z" fill="#399DBE"/>
<path d="M151.65 69.0998L146.37 72.1298V71.5498L151.13 68.7998L151.65 69.0998Z" fill="#EFEDE7"/>
<path d="M151.61 60.0098L151.65 69.0998L151.13 68.7998L151.11 60.2998L151.61 60.0098Z" fill="#EFEDE7"/>
<path d="M149.08 61.4795L149.1 70.4995L148.76 70.2995L148.75 61.6595L149.08 61.4795Z" fill="#EFEDE7"/>
<path d="M151.49 64.7498L146.37 67.6998L146.36 67.3198L151.15 64.5498L151.49 64.7498Z" fill="#EFEDE7"/>
<path d="M158.74 56.1094L158.76 65.1894L153.5 68.2294L153.48 59.1494L158.74 56.1094Z" fill="#399DBE"/>
<path d="M158.78 65.1894L153.5 68.2294V67.6494L158.27 64.8994L158.78 65.1894Z" fill="#EFEDE7"/>
<path d="M158.74 56.1094L158.78 65.1894L158.27 64.8994L158.25 56.3994L158.74 56.1094Z" fill="#EFEDE7"/>
<path d="M156.21 57.5791L156.24 66.5991L155.9 66.3991L155.89 57.7591L156.21 57.5791Z" fill="#EFEDE7"/>
<path d="M158.62 60.8494L153.5 63.7994V63.4194L158.29 60.6494L158.62 60.8494Z" fill="#EFEDE7"/>
<path d="M204.78 76.7705L204.84 95.5205L178.46 110.871L178.39 87.9505L204.78 76.7705Z" fill="#C4C4C4"/>
<path d="M178.46 110.87L158.26 99.1301L158.19 78.1301L167.7 75.6602L178.39 87.9501L178.46 110.87Z" fill="white"/>
<path d="M167.56 75.4905L194.64 59.9805L206.69 76.3005L179.62 91.8105L167.56 75.4905Z" fill="#2EAA77"/>
<path d="M167.56 75.4902L156.85 78.8602V79.5102L167.17 76.7002L179.62 93.0002V91.8102L167.56 75.4902Z" fill="#1F8456"/>
<path d="M194.64 59.9805L183.34 63.5905L156.85 78.8605L167.56 75.4905L194.64 59.9805Z" fill="#289E6B"/>
<path d="M179.62 91.8108V93.0008L206.69 77.4908V76.3008L179.62 91.8108Z" fill="#258959"/>
<path d="M187.71 90.6904L187.73 99.7704L182.47 102.81L182.45 93.7304L187.71 90.6904Z" fill="#399DBE"/>
<path d="M187.75 99.7707L182.47 102.811V102.221L187.23 99.4707L187.75 99.7707Z" fill="#EFEDE7"/>
<path d="M187.71 90.6904L187.75 99.7704L187.23 99.4704L187.21 90.9704L187.71 90.6904Z" fill="#EFEDE7"/>
<path d="M185.18 92.1504L185.2 101.18L184.86 100.98L184.85 92.3404L185.18 92.1504Z" fill="#EFEDE7"/>
<path d="M187.59 95.4205L182.47 98.3805V98.0005L187.25 95.2305L187.59 95.4205Z" fill="#EFEDE7"/>
<path d="M171.06 90.6104L171.04 99.6904L176.3 102.72L176.32 93.6404L171.06 90.6104Z" fill="#6DC6DC"/>
<path d="M171.02 99.6906L176.3 102.721V102.141L171.53 99.3906L171.02 99.6906Z" fill="#DDDDDD"/>
<path d="M171.06 90.6104L171.02 99.6904L171.53 99.3904L171.55 90.8904L171.06 90.6104Z" fill="#DDDDDD"/>
<path d="M173.59 92.0703L173.56 101.09L173.9 100.9L173.91 92.2603L173.59 92.0703Z" fill="#DDDDDD"/>
<path d="M171.18 95.3404L176.3 98.2904V97.9104L171.51 95.1504L171.18 95.3404Z" fill="#DDDDDD"/>
<path d="M160.9 84.8105L160.88 98.8105L167.93 102.981L167.95 88.9806L160.9 84.8105Z" fill="#6DC6DC"/>
<path d="M160.85 98.8102L167.93 102.98V102.28L161.47 98.4502L160.85 98.8102Z" fill="#DDDDDD"/>
<path d="M160.9 84.8105L160.85 98.8105L161.47 98.4505L161.5 85.1506L160.9 84.8105Z" fill="#DDDDDD"/>
<path d="M164.58 86.9805L164.55 100.86L164.96 100.62L164.97 87.2005L164.58 86.9805Z" fill="#DDDDDD"/>
<path d="M194.81 86.8203L194.83 95.9003L189.57 98.9403L189.55 89.8503L194.81 86.8203Z" fill="#399DBE"/>
<path d="M194.85 95.9006L189.57 98.9406V98.3506L194.33 95.6006L194.85 95.9006Z" fill="#EFEDE7"/>
<path d="M194.81 86.8203L194.85 95.9003L194.33 95.6003L194.31 87.1003L194.81 86.8203Z" fill="#EFEDE7"/>
<path d="M192.28 88.2803L192.3 97.3103L191.96 97.1103L191.95 88.4703L192.28 88.2803Z" fill="#EFEDE7"/>
<path d="M194.69 91.5504L189.57 94.5104V94.1303L194.35 91.3604L194.69 91.5504Z" fill="#EFEDE7"/>
<path d="M201.95 82.9209L201.97 92.0009L196.71 95.0309L196.69 85.9509L201.95 82.9209Z" fill="#399DBE"/>
<path d="M201.99 92.0012L196.71 95.0312L196.7 94.4512L201.47 91.7012L201.99 92.0012Z" fill="#EFEDE7"/>
<path d="M201.95 82.9209L201.99 92.0009L201.47 91.7009L201.45 83.2009L201.95 82.9209Z" fill="#EFEDE7"/>
<path d="M199.41 84.3809L199.44 93.4009L199.1 93.2109L199.09 84.5709L199.41 84.3809Z" fill="#EFEDE7"/>
<path d="M201.83 87.6509L196.7 90.6109V90.2309L201.49 87.4609L201.83 87.6509Z" fill="#EFEDE7"/>
<path d="M27.5601 13.08L47.5401 25.01L70.4201 11.93L50.4401 0L27.5601 13.08Z" fill="#FDFDFD"/>
<path d="M27.56 13.0801L27.41 65.2301L47.39 77.1501L47.54 25.0101L27.56 13.0801Z" fill="#BFBFBF"/>
<path d="M47.54 25.0097L47.39 77.1497L70.27 64.0697L70.42 11.9297L47.54 25.0097Z" fill="#DDDDDD"/>
<path d="M50.4 27.1704V29.5004L54.37 27.2404L54.36 24.9004L50.4 27.1704Z" fill="#A9A9A9"/>
<path d="M55.04 24.5403V26.8803L59 24.6103V22.2803L55.04 24.5403Z" fill="#A9A9A9"/>
<path d="M59.6799 21.9204V24.2604L63.64 21.9904V19.6504L59.6799 21.9204Z" fill="#A9A9A9"/>
<path d="M64.3201 19.3003V21.6403L68.2801 19.3703V17.0303L64.3201 19.3003Z" fill="#A9A9A9"/>
<path d="M50.38 31.6001V33.9401L54.35 31.6701V29.3301L50.38 31.6001Z" fill="#A9A9A9"/>
<path d="M55.02 28.98V31.31L58.99 29.05V26.71L55.02 28.98Z" fill="#A9A9A9"/>
<path d="M59.66 26.3498V28.6898L63.63 26.4198L63.62 24.0898L59.66 26.3498Z" fill="#A9A9A9"/>
<path d="M64.3 23.73V26.07L68.2601 23.8V21.46L64.3 23.73Z" fill="#A9A9A9"/>
<path d="M50.36 36.0307L50.37 38.3707L54.33 36.1007V33.7607L50.36 36.0307Z" fill="#A9A9A9"/>
<path d="M55 33.4106L55.01 35.7406L58.97 33.4806V31.1406L55 33.4106Z" fill="#A9A9A9"/>
<path d="M59.64 30.7805V33.1205L63.61 30.8605V28.5205L59.64 30.7805Z" fill="#A9A9A9"/>
<path d="M64.28 28.1604V30.5004L68.25 28.2304V25.9004L64.28 28.1604Z" fill="#A9A9A9"/>
<path d="M50.3501 40.0998V42.4398L54.3101 40.1798V37.8398L50.3501 40.0998Z" fill="#A9A9A9"/>
<path d="M54.99 37.4807V39.8207L58.95 37.5507V35.2207L54.99 37.4807Z" fill="#A9A9A9"/>
<path d="M59.63 34.8598V37.1998L63.59 34.9298V32.5898L59.63 34.8598Z" fill="#A9A9A9"/>
<path d="M64.27 32.2407V34.5707L68.23 32.3107V29.9707L64.27 32.2407Z" fill="#A9A9A9"/>
<path d="M50.3301 44.5405V46.8705L54.2901 44.6105V42.2705L50.3301 44.5405Z" fill="#A9A9A9"/>
<path d="M54.97 41.9104V44.2504L58.9299 41.9804V39.6504L54.97 41.9104Z" fill="#A9A9A9"/>
<path d="M59.61 39.2905V41.6305L63.57 39.3605V37.0205L59.61 39.2905Z" fill="#A9A9A9"/>
<path d="M64.25 36.6704V39.0104L68.21 36.7404V34.4004L64.25 36.6704Z" fill="#A9A9A9"/>
<path d="M50.3101 48.9702V51.3102L54.2801 49.0402L54.2701 46.7002L50.3101 48.9702Z" fill="#A9A9A9"/>
<path d="M54.95 46.3501V48.6801L58.92 46.4201L58.91 44.0801L54.95 46.3501Z" fill="#A9A9A9"/>
<path d="M59.5901 43.72V46.06L63.55 43.79V41.46L59.5901 43.72Z" fill="#A9A9A9"/>
<path d="M64.23 41.1001V43.4401L68.1899 41.1701V38.8301L64.23 41.1001Z" fill="#A9A9A9"/>
<path d="M50.3 53.0403V55.3803L54.2601 53.1103V50.7803L50.3 53.0403Z" fill="#A9A9A9"/>
<path d="M54.9299 50.4204L54.9399 52.7604L58.9 50.4904V48.1504L54.9299 50.4204Z" fill="#A9A9A9"/>
<path d="M59.5701 47.8003V50.1303L63.5401 47.8703V45.5303L59.5701 47.8003Z" fill="#A9A9A9"/>
<path d="M64.21 45.1702V47.5102L68.1799 45.2502V42.9102L64.21 45.1702Z" fill="#A9A9A9"/>
<path d="M50.28 57.47V59.81L54.24 57.55V55.21L50.28 57.47Z" fill="#A9A9A9"/>
<path d="M54.92 54.8498V57.1898L58.88 54.9198V52.5898L54.92 54.8498Z" fill="#A9A9A9"/>
<path d="M59.5601 52.23V54.57L63.5201 52.3V49.96L59.5601 52.23Z" fill="#A9A9A9"/>
<path d="M64.1899 49.6098L64.2 51.9398L68.16 49.6798V47.3398L64.1899 49.6098Z" fill="#A9A9A9"/>
<path d="M43.72 27.1398L43.7 29.4798L39.76 27.1798L39.78 24.8398L43.72 27.1398Z" fill="#8C8C8C"/>
<path d="M39.11 24.4797L39.09 26.8197L35.14 24.5197L35.16 22.1797L39.11 24.4797Z" fill="#8C8C8C"/>
<path d="M34.49 21.8195L34.47 24.1595L30.52 21.8595L30.54 19.5195L34.49 21.8195Z" fill="#8C8C8C"/>
<path d="M43.71 31.5695L43.68 33.9095L39.74 31.6095L39.76 29.2695L43.71 31.5695Z" fill="#8C8C8C"/>
<path d="M39.09 28.9104L39.07 31.2504L35.12 28.9504L35.14 26.6104L39.09 28.9104Z" fill="#8C8C8C"/>
<path d="M34.47 26.2502L34.45 28.5902L30.51 26.2902L30.53 23.9502L34.47 26.2502Z" fill="#8C8C8C"/>
<path d="M43.6899 36.0002L43.67 38.3402L39.72 36.0402L39.7399 33.7002L43.6899 36.0002Z" fill="#8C8C8C"/>
<path d="M39.0701 33.34L39.05 35.68L35.1001 33.38L35.1301 31.04L39.0701 33.34Z" fill="#8C8C8C"/>
<path d="M34.45 30.6799L34.43 33.0199L30.49 30.7199L30.51 28.3799L34.45 30.6799Z" fill="#8C8C8C"/>
<path d="M43.67 40.0803L43.65 42.4103L39.71 40.1203L39.73 37.7803L43.67 40.0803Z" fill="#8C8C8C"/>
<path d="M39.05 37.4201L39.0301 39.7501L35.0901 37.4601L35.11 35.1201L39.05 37.4201Z" fill="#8C8C8C"/>
<path d="M34.4399 34.76L34.41 37.09L30.47 34.79L30.4899 32.46L34.4399 34.76Z" fill="#8C8C8C"/>
<path d="M43.65 44.51L43.6299 46.85L39.6899 44.55L39.71 42.21L43.65 44.51Z" fill="#8C8C8C"/>
<path d="M39.0301 41.8498L39.0101 44.1898L35.0701 41.8898L35.0901 39.5498L39.0301 41.8498Z" fill="#8C8C8C"/>
<path d="M34.42 39.1896L34.4 41.5196L30.45 39.2296L30.47 36.8896L34.42 39.1896Z" fill="#8C8C8C"/>
<path d="M43.63 48.9396L43.61 51.2796L39.67 48.9796L39.69 46.6396L43.63 48.9396Z" fill="#8C8C8C"/>
<path d="M39.0201 46.2805L39.0001 48.6205L35.05 46.3205L35.0701 43.9805L39.0201 46.2805Z" fill="#8C8C8C"/>
<path d="M34.4 43.6203L34.3799 45.9603L30.4299 43.6603L30.45 41.3203L34.4 43.6203Z" fill="#8C8C8C"/>
<path d="M43.62 53.0197L43.6 55.3497L39.65 53.0497L39.67 50.7197L43.62 53.0197Z" fill="#8C8C8C"/>
<path d="M39 50.3496L38.98 52.6896L35.04 50.3896L35.06 48.0596L39 50.3496Z" fill="#8C8C8C"/>
<path d="M34.38 47.6904L34.36 50.0304L30.42 47.7304L30.44 45.4004L34.38 47.6904Z" fill="#8C8C8C"/>
<path d="M43.6 57.4504L43.58 59.7804L39.63 57.4904L39.65 55.1504L43.6 57.4504Z" fill="#8C8C8C"/>
<path d="M38.98 54.7902L38.96 57.1202L35.02 54.8202L35.04 52.4902L38.98 54.7902Z" fill="#8C8C8C"/>
<path d="M34.36 52.1301L34.34 54.4601L30.4 52.1601L30.42 49.8301L34.36 52.1301Z" fill="#8C8C8C"/>
<path d="M29.8501 13.1804L47.4301 23.6504L68.1701 11.8304L50.5801 1.36035L29.8501 13.1804Z" fill="#DDDDDD"/>
<path d="M66.8401 12.5804L68.1701 11.8304L50.5801 1.36035L50.61 2.83035L66.8401 12.5804Z" fill="#EDEDED"/>
<path d="M50.61 2.83035L50.5801 1.36035L29.8501 13.1804L31.1201 13.9404L50.61 2.83035Z" fill="#EDEDED"/>
<path d="M284.62 117.04L284.77 159.01L225.74 193.35L225.59 142.07L284.62 117.04Z" fill="#C4C4C4"/>
<path d="M225.74 193.351L180.55 167.081L180.4 120.091L201.67 114.561L225.59 142.071L225.74 193.351Z" fill="white"/>
<path d="M201.37 114.2L261.94 79.4902L288.92 115.99L228.34 150.7L201.37 114.2Z" fill="#2EAA77"/>
<path d="M201.37 114.2L177.39 121.74L177.4 123.18L200.5 116.89L228.34 153.36V150.7L201.37 114.2Z" fill="#1F8456"/>
<path d="M261.94 79.4902L236.66 87.5702L177.39 121.74L201.37 114.2L261.94 79.4902Z" fill="#289E6B"/>
<path d="M228.34 150.7V153.36L288.92 118.66V115.99L228.34 150.7Z" fill="#258959"/>
<path d="M246.44 148.19L246.48 168.51L234.71 175.3L234.67 154.99L246.44 148.19Z" fill="#399DBE"/>
<path d="M246.53 168.511L234.71 175.301V174.001L245.38 167.841L246.53 168.511Z" fill="#EFEDE7"/>
<path d="M246.44 148.19L246.53 168.51L245.38 167.84L245.33 148.83L246.44 148.19Z" fill="#EFEDE7"/>
<path d="M240.77 151.471L240.83 171.651L240.08 171.211L240.05 151.881L240.77 151.471Z" fill="#EFEDE7"/>
<path d="M246.17 158.791L234.71 165.391V164.541L245.42 158.351L246.17 158.791Z" fill="#EFEDE7"/>
<path d="M209.19 148L209.14 168.32L220.91 175.12L220.96 154.8L209.19 148Z" fill="#6DC6DC"/>
<path d="M209.1 168.32L220.91 175.12V173.81L210.25 167.65L209.1 168.32Z" fill="#DDDDDD"/>
<path d="M209.19 148L209.1 168.32L210.25 167.65L210.29 148.64L209.19 148Z" fill="#DDDDDD"/>
<path d="M214.85 151.28L214.79 171.47L215.55 171.03L215.58 151.7L214.85 151.28Z" fill="#DDDDDD"/>
<path d="M209.46 158.6L220.91 165.21L220.92 164.35L210.21 158.16L209.46 158.6Z" fill="#DDDDDD"/>
<path d="M186.47 135.04L186.42 166.37L202.18 175.69L202.24 144.36L186.47 135.04Z" fill="#6DC6DC"/>
<path d="M186.36 166.37L202.18 175.69L202.19 174.12L187.75 165.56L186.36 166.37Z" fill="#DDDDDD"/>
<path d="M186.47 135.04L186.36 166.37L187.75 165.56L187.8 135.81L186.47 135.04Z" fill="#DDDDDD"/>
<path d="M194.7 139.89L194.63 170.95L195.54 170.42L195.57 140.39L194.7 139.89Z" fill="#DDDDDD"/>
<path d="M262.32 139.53L262.37 159.85L250.6 166.64L250.55 146.33L262.32 139.53Z" fill="#399DBE"/>
<path d="M262.41 159.851L250.6 166.641V165.341L261.26 159.181L262.41 159.851Z" fill="#EFEDE7"/>
<path d="M262.32 139.53L262.41 159.85L261.26 159.18L261.22 140.17L262.32 139.53Z" fill="#EFEDE7"/>
<path d="M256.66 142.811L256.72 162.991L255.96 162.551L255.93 143.221L256.66 142.811Z" fill="#EFEDE7"/>
<path d="M262.05 150.13L250.6 156.73L250.59 155.88L261.3 149.69L262.05 150.13Z" fill="#EFEDE7"/>
<path d="M278.29 130.8L278.34 151.12L266.57 157.92L266.52 137.6L278.29 130.8Z" fill="#399DBE"/>
<path d="M278.38 151.12L266.57 157.92L266.56 156.61L277.23 150.45L278.38 151.12Z" fill="#EFEDE7"/>
<path d="M278.29 130.8L278.38 151.12L277.23 150.45L277.19 131.44L278.29 130.8Z" fill="#EFEDE7"/>
<path d="M272.63 134.08L272.69 154.27L271.93 153.83L271.9 134.5L272.63 134.08Z" fill="#EFEDE7"/>
<path d="M278.02 141.4L266.57 148.01L266.56 147.15L277.27 140.96L278.02 141.4Z" fill="#EFEDE7"/>
<path d="M0.0200195 58.37L21.21 71.02L45.48 57.15L24.28 44.5L0.0200195 58.37Z" fill="#FDFDFD"/>
<path d="M3.52002 58.0798L21.11 68.5398L41.84 56.7198L24.25 46.2598L3.52002 58.0798Z" fill="#BFBFBF"/>
<path d="M0.0200195 58.3701L0 79.6101L21.19 92.2601L21.21 71.0201L0.0200195 58.3701Z" fill="#DDDDDD"/>
<path d="M21.21 71.0204L21.1899 92.2604L45.45 78.3904L45.48 57.1504L21.21 71.0204Z" fill="#EDEDED"/>
<path d="M39.81 57.8798L41.84 56.7198L24.24 46.2598L24.3 48.5598L39.81 57.8798Z" fill="#DDDDDD"/>
<path d="M24.3 48.5598L24.24 46.2598L3.48999 58.0798L5.53003 59.2498L24.3 48.5598Z" fill="#DDDDDD"/>
<path d="M23.3901 73.5292V76.2392L27.9702 73.6192V70.9092L23.3901 73.5292Z" fill="#BFBFBF"/>
<path d="M28.75 70.4999L28.76 73.1999L33.34 70.5799V67.8799L28.75 70.4999Z" fill="#BFBFBF"/>
<path d="M34.1201 67.4696V70.1696L38.7001 67.5496V64.8496L34.1201 67.4696Z" fill="#BFBFBF"/>
<path d="M39.4801 64.4296L39.4901 67.1396L44.0701 64.5196V61.8096L39.4801 64.4296Z" fill="#BFBFBF"/>
<path d="M23.3701 78.66V81.36L27.9501 78.74V76.04L23.3701 78.66Z" fill="#BFBFBF"/>
<path d="M28.7301 75.6298V78.3298L33.3201 75.7098V73.0098L28.7301 75.6298Z" fill="#BFBFBF"/>
<path d="M34.1001 72.5897V75.2997L38.6801 72.6797V69.9697L34.1001 72.5897Z" fill="#BFBFBF"/>
<path d="M39.4601 69.5594V72.2595L44.05 69.6395V66.9395L39.4601 69.5594Z" fill="#BFBFBF"/>
<path d="M23.3501 83.7792V86.4892L27.9301 83.8692V81.1592L23.3501 83.7792Z" fill="#BFBFBF"/>
<path d="M28.7101 80.7499V83.4499L33.3 80.8299V78.1299L28.7101 80.7499Z" fill="#BFBFBF"/>
<path d="M34.0801 77.7196V80.4196L38.6601 77.7996V75.0996L34.0801 77.7196Z" fill="#BFBFBF"/>
<path d="M39.4401 74.6896V77.3896L44.0301 74.7696V72.0596L39.4401 74.6896Z" fill="#BFBFBF"/>
<path d="M20.6702 42.2496L28.9102 47.0096L33.1702 44.5696L24.9301 39.8096L20.6702 42.2496Z" fill="#FDFDFD"/>
<path d="M20.6702 42.25L20.6201 56.78L28.8701 61.55L28.9102 47.01L20.6702 42.25Z" fill="#DDDDDD"/>
<path d="M28.9102 47.0093L28.8701 61.5493L33.1301 59.1093L33.1702 44.5693L28.9102 47.0093Z" fill="#EDEDED"/>
<path d="M14.0701 53.7795L22.3201 58.5495L28.1301 55.2095L19.8901 50.4395L14.0701 53.7795Z" fill="#FDFDFD"/>
<path d="M14.0701 53.7793L14.05 60.5293L22.3 65.2993L22.3201 58.5493L14.0701 53.7793Z" fill="#DDDDDD"/>
<path d="M22.3201 58.549L22.3 65.299L28.1201 61.959L28.1301 55.209L22.3201 58.549Z" fill="#EDEDED"/>
<path d="M35.21 67.9604L47.73 75.3004L61.92 67.0204L49.4 59.6904L35.21 67.9604Z" fill="white"/>
<path d="M36.9099 67.9007L47.8299 74.3007L60.2199 67.0807L49.2999 60.6807L36.9099 67.9007Z" fill="#EDEDED"/>
<path d="M35.21 67.96L35.3799 100.47L47.9 107.81L47.73 75.3L35.21 67.96Z" fill="#CCCCCC"/>
<path d="M47.73 75.3005L47.9 107.811L62.09 99.5305L61.92 67.0205L47.73 75.3005Z" fill="#F2F2F2"/>
<path d="M49.52 76.6304L49.53 78.6504L51.99 77.2204L51.98 75.1904L49.52 76.6304Z" fill="#A8D3E2"/>
<path d="M52.3999 74.9703L52.4099 76.9903L54.8699 75.5603L54.8599 73.5303L52.3999 74.9703Z" fill="#A8D3E2"/>
<path d="M55.28 73.3101L55.29 75.3301L57.75 73.9001L57.74 71.8701L55.28 73.3101Z" fill="#A8D3E2"/>
<path d="M58.1599 71.6507L58.1699 73.6707L60.6299 72.2407L60.6199 70.2207L58.1599 71.6507Z" fill="#A8D3E2"/>
<path d="M49.54 80.5501L49.55 82.5801L52.01 81.1501L51.99 79.1201L49.54 80.5501Z" fill="#A8D3E2"/>
<path d="M52.4099 78.89L52.4299 80.92L54.8899 79.49L54.8699 77.46L52.4099 78.89Z" fill="#A8D3E2"/>
<path d="M55.29 77.2308L55.31 79.2608L57.77 77.8308L57.75 75.8008L55.29 77.2308Z" fill="#A8D3E2"/>
<path d="M58.1699 75.5806L58.1899 77.6006L60.6499 76.1706L60.6299 74.1406L58.1699 75.5806Z" fill="#A8D3E2"/>
<path d="M49.5499 84.4808L49.5699 86.5108L52.03 85.0708L52.0099 83.0508L49.5499 84.4808Z" fill="#A8D3E2"/>
<path d="M52.4299 82.8206L52.45 84.8506L54.9 83.4106L54.89 81.3906L52.4299 82.8206Z" fill="#A8D3E2"/>
<path d="M55.3099 81.1605L55.3199 83.1905L57.78 81.7505L57.77 79.7305L55.3099 81.1605Z" fill="#A8D3E2"/>
<path d="M58.1899 79.5003L58.2 81.5303L60.66 80.1003L60.65 78.0703L58.1899 79.5003Z" fill="#A8D3E2"/>
<path d="M49.5699 88.4107L49.58 90.4307L52.04 89.0007L52.03 86.9707L49.5699 88.4107Z" fill="#A8D3E2"/>
<path d="M52.45 86.7505L52.46 88.7705L54.92 87.3405L54.91 85.3105L52.45 86.7505Z" fill="#A8D3E2"/>
<path d="M55.33 85.0901L55.34 87.1102L57.7999 85.6802L57.79 83.6602L55.33 85.0901Z" fill="#A8D3E2"/>
<path d="M58.21 83.43L58.22 85.46L60.6799 84.02L60.66 82L58.21 83.43Z" fill="#A8D3E2"/>
<path d="M49.58 92.3304L49.6 94.3604L52.0599 92.9304L52.04 90.9004L49.58 92.3304Z" fill="#A8D3E2"/>
<path d="M52.46 90.6802L52.48 92.7002L54.9399 91.2702L54.92 89.2402L52.46 90.6802Z" fill="#A8D3E2"/>
<path d="M55.34 89.0201L55.3599 91.0401L57.8199 89.6101L57.7999 87.5801L55.34 89.0201Z" fill="#A8D3E2"/>
<path d="M58.22 87.3609L58.2399 89.3809L60.7 87.9509L60.6799 85.9209L58.22 87.3609Z" fill="#A8D3E2"/>
<path d="M49.6 96.2601L49.6199 98.2901L52.0699 96.8501L52.0599 94.8301L49.6 96.2601Z" fill="#A8D3E2"/>
<path d="M52.48 94.6009L52.4899 96.6309L54.95 95.1909L54.9399 93.1709L52.48 94.6009Z" fill="#A8D3E2"/>
<path d="M55.3599 92.9407L55.3699 94.9707L57.8299 93.5407L57.8199 91.5107L55.3599 92.9407Z" fill="#A8D3E2"/>
<path d="M58.24 91.2806L58.25 93.3106L60.71 91.8806L60.7 89.8506L58.24 91.2806Z" fill="#A8D3E2"/>
<path d="M60.41 95.8204L52.5 100.46L51.26 99.7504L59.18 95.1104L60.41 95.8204Z" fill="white"/>
<path d="M59.8101 102.29L55.8 100.05L59.8201 97.7002L59.8101 102.29Z" fill="#8C8C8C"/>
<path d="M52.5 100.46L52.52 106.57L53.14 106.2L53.12 101.62L59.8 97.7003L59.81 102.29L60.43 101.93L60.41 95.8203L52.5 100.46Z" fill="#EDEDED"/>
<path d="M52.5 100.46L52.52 106.57L51.28 105.85L51.26 99.75L52.5 100.46Z" fill="#CECECE"/>
<path d="M59.81 102.291L53.14 106.201L53.12 101.621L55.8 100.051L59.81 102.291Z" fill="#A9A9A9"/>
<path d="M57.47 56.2303L78.2 68.3703L101.7 54.6703L80.98 42.5303L57.47 56.2303Z" fill="white"/>
<path d="M60.2999 56.1307L78.3799 66.7207L98.8799 54.7707L80.7999 44.1807L60.2999 56.1307Z" fill="#EDEDED"/>
<path d="M57.47 56.2305L57.7599 110.06L78.4899 122.2L78.2 68.3705L57.47 56.2305Z" fill="#CCCCCC"/>
<path d="M78.2 68.3699L78.4899 122.2L101.99 108.5L101.7 54.6699L78.2 68.3699Z" fill="#F2F2F2"/>
<path d="M81.1699 70.5702L81.1899 73.9302L85.2699 71.5502L85.2399 68.2002L81.1699 70.5702Z" fill="#A8D3E2"/>
<path d="M85.9399 67.8302L85.96 71.1802L90.03 68.8102L90.0099 65.4502L85.9399 67.8302Z" fill="#A8D3E2"/>
<path d="M90.7 65.08L90.73 68.43L94.7999 66.06L94.78 62.71L90.7 65.08Z" fill="#A8D3E2"/>
<path d="M95.47 62.33L95.4999 65.69L99.5699 63.31L99.54 59.96L95.47 62.33Z" fill="#A8D3E2"/>
<path d="M81.2 77.0802L81.22 80.4302L85.29 78.0602L85.27 74.7002L81.2 77.0802Z" fill="#A8D3E2"/>
<path d="M85.96 74.33L85.9899 77.68L90.0599 75.31L90.04 71.96L85.96 74.33Z" fill="#A8D3E2"/>
<path d="M90.73 71.58L90.7599 74.94L94.83 72.56L94.7999 69.21L90.73 71.58Z" fill="#A8D3E2"/>
<path d="M95.5 68.84L95.52 72.19L99.59 69.82L99.57 66.46L95.5 68.84Z" fill="#A8D3E2"/>
<path d="M81.22 83.58L81.2499 86.93L85.3199 84.56L85.29 81.21L81.22 83.58Z" fill="#A8D3E2"/>
<path d="M85.99 80.83L86.01 84.19L90.09 81.81L90.06 78.46L85.99 80.83Z" fill="#A8D3E2"/>
<path d="M90.76 78.08L90.78 81.44L94.85 79.07L94.83 75.71L90.76 78.08Z" fill="#A8D3E2"/>
<path d="M95.52 75.34L95.55 78.69L99.62 76.32L99.6 72.96L95.52 75.34Z" fill="#A8D3E2"/>
<path d="M81.25 90.08L81.27 93.43L85.35 91.06L85.32 87.71L81.25 90.08Z" fill="#A8D3E2"/>
<path d="M86.02 87.33L86.04 90.69L90.11 88.31L90.09 84.96L86.02 87.33Z" fill="#A8D3E2"/>
<path d="M90.78 84.59L90.81 87.94L94.88 85.57L94.86 82.21L90.78 84.59Z" fill="#A8D3E2"/>
<path d="M95.5499 81.8407L95.58 85.1907L99.65 82.8207L99.6199 79.4707L95.5499 81.8407Z" fill="#A8D3E2"/>
<path d="M81.28 96.58L81.3 99.94L85.37 97.56L85.35 94.21L81.28 96.58Z" fill="#A8D3E2"/>
<path d="M86.04 93.84L86.07 97.19L90.14 94.82L90.12 91.46L86.04 93.84Z" fill="#A8D3E2"/>
<path d="M90.8099 91.0907L90.84 94.4407L94.91 92.0707L94.8799 88.7207L90.8099 91.0907Z" fill="#A8D3E2"/>
<path d="M95.58 88.3407L95.6 91.7007L99.67 89.3207L99.65 85.9707L95.58 88.3407Z" fill="#A8D3E2"/>
<path d="M81.2999 103.09L81.33 106.44L85.4 104.07L85.3699 100.71L81.2999 103.09Z" fill="#A8D3E2"/>
<path d="M86.0699 100.341L86.09 103.691L90.17 101.321L90.14 97.9707L86.0699 100.341Z" fill="#A8D3E2"/>
<path d="M90.84 97.5907L90.8599 100.951L94.9299 98.5707L94.91 95.2207L90.84 97.5907Z" fill="#A8D3E2"/>
<path d="M95.6 94.8407L95.6299 98.2007L99.7 95.8307L99.6799 92.4707L95.6 94.8407Z" fill="#A8D3E2"/>
<path d="M99.21 102.361L86.1099 110.041L84.0599 108.861L97.16 101.181L99.21 102.361Z" fill="white"/>
<path d="M98.21 113.071L91.5699 109.361L98.22 105.471L98.21 113.071Z" fill="#8C8C8C"/>
<path d="M86.1099 110.04L86.1299 120.15L87.1599 119.54L87.1399 111.95L98.1899 105.47L98.2099 113.07L99.2299 112.47L99.2099 102.36L86.1099 110.04Z" fill="#EDEDED"/>
<path d="M86.1099 110.04L86.1299 120.15L84.09 118.96L84.0599 108.86L86.1099 110.04Z" fill="#CECECE"/>
<path d="M98.2099 113.07L87.1599 119.54L87.1399 111.95L91.5699 109.36L98.2099 113.07Z" fill="#A9A9A9"/>
<path d="M95.8101 106L119.51 119.88L146.38 104.22L122.68 90.3398L95.8101 106Z" fill="#FDFDFD"/>
<path d="M99.7001 105.64L119.37 117.12L142.33 103.78L122.66 92.2998L99.7001 105.64Z" fill="#EDEDED"/>
<path d="M95.8101 106L95.9801 129.62L119.68 143.51L119.51 119.88L95.8101 106Z" fill="#CCCCCC"/>
<path d="M119.51 119.88L119.68 143.51L146.55 127.85L146.38 104.22L119.51 119.88Z" fill="#F2F2F2"/>
<path d="M140.08 105.08L142.33 103.78L122.65 92.2998L122.74 94.8598L140.08 105.08Z" fill="#DDDDDD"/>
<path d="M122.74 94.8598L122.65 92.2998L99.6702 105.64L101.95 106.92L122.74 94.8598Z" fill="#DDDDDD"/>
<path d="M121.95 122.649L121.98 125.659L127.05 122.699L127.03 119.689L121.95 122.649Z" fill="#A8D3E2"/>
<path d="M127.89 119.23L127.92 122.24L132.99 119.28L132.97 116.27L127.89 119.23Z" fill="#A8D3E2"/>
<path d="M133.83 115.81L133.86 118.81L138.94 115.85L138.91 112.85L133.83 115.81Z" fill="#A8D3E2"/>
<path d="M139.78 112.38L139.8 115.39L144.88 112.43L144.85 109.42L139.78 112.38Z" fill="#A8D3E2"/>
<path d="M121.97 128.36L122 131.36L127.08 128.4L127.05 125.4L121.97 128.36Z" fill="#A8D3E2"/>
<path d="M127.92 124.93L127.94 127.94L133.02 124.98L132.99 121.97L127.92 124.93Z" fill="#A8D3E2"/>
<path d="M133.86 121.51L133.88 124.52L138.96 121.56L138.93 118.55L133.86 121.51Z" fill="#A8D3E2"/>
<path d="M139.8 118.08L139.83 121.09L144.9 118.13L144.88 115.13L139.8 118.08Z" fill="#A8D3E2"/>
<path d="M122 134.06L122.02 137.07L127.1 134.11L127.07 131.1L122 134.06Z" fill="#A8D3E2"/>
<path d="M127.94 130.63L127.97 133.64L133.04 130.68L133.01 127.68L127.94 130.63Z" fill="#A8D3E2"/>
<path d="M133.88 127.21L133.91 130.22L138.98 127.26L138.96 124.25L133.88 127.21Z" fill="#A8D3E2"/>
<path d="M139.82 123.79L139.85 126.79L144.92 123.84L144.9 120.83L139.82 123.79Z" fill="#A8D3E2"/>
<path d="M171.12 145.821V145.891L171.1 145.911V145.951L171.08 145.971V145.991L171.06 146.011V146.031L171.04 146.051V146.071H171.02L171 146.111C171 146.111 170.98 146.151 170.97 146.161L170.94 146.201H170.93L170.91 146.231L170.89 146.251L170.87 146.271H170.85L170.83 146.301H170.81L170.79 146.331L170.76 146.351C170.76 146.351 170.7 146.381 170.67 146.401H170.65C170.65 146.401 170.59 146.441 170.56 146.451H170.55C170.55 146.451 170.49 146.481 170.45 146.491C170.43 146.491 170.4 146.501 170.38 146.511C170.36 146.511 170.35 146.511 170.33 146.521C170.31 146.521 170.28 146.531 170.26 146.541C170.24 146.541 170.22 146.541 170.21 146.551H170.19C170.19 146.551 170.13 146.561 170.1 146.571H170.07C170.07 146.571 170.03 146.571 170.02 146.571C169.99 146.571 169.96 146.571 169.93 146.571H169.87C169.87 146.571 169.82 146.571 169.8 146.571H169.74C169.74 146.571 169.7 146.571 169.67 146.571H169.61C169.61 146.571 169.57 146.571 169.54 146.561H169.48C169.48 146.561 169.43 146.541 169.41 146.541H169.36C169.36 146.541 169.3 146.521 169.28 146.511C169.26 146.511 169.24 146.511 169.23 146.501H169.2C169.2 146.501 169.15 146.471 169.12 146.461H169.1C169.1 146.461 169.05 146.431 169.03 146.421H169C169 146.421 168.93 146.371 168.9 146.351C168.7 146.241 168.58 146.101 168.53 145.951C168.53 145.931 168.52 145.901 168.51 145.881V145.841C168.51 145.841 168.51 145.821 168.51 145.801V151.771C168.5 151.971 168.63 152.171 168.89 152.321C168.92 152.341 168.95 152.351 168.99 152.371H169.02C169.02 152.371 169.06 152.401 169.08 152.411H169.11C169.11 152.411 169.16 152.441 169.19 152.451H169.24L169.27 152.471C169.27 152.471 169.32 152.481 169.35 152.491H169.4C169.4 152.491 169.45 152.511 169.47 152.511H169.53C169.53 152.511 169.57 152.521 169.6 152.531H169.66C169.66 152.531 169.7 152.531 169.73 152.531H169.76C169.76 152.531 169.78 152.531 169.79 152.531C169.81 152.531 169.84 152.531 169.86 152.531C169.87 152.531 169.88 152.531 169.9 152.531H169.92C169.92 152.531 169.98 152.531 170.01 152.531H170.09C170.09 152.531 170.15 152.511 170.18 152.511H170.21C170.21 152.511 170.24 152.501 170.25 152.501C170.27 152.501 170.3 152.501 170.32 152.481C170.34 152.481 170.35 152.481 170.37 152.471C170.39 152.471 170.42 152.461 170.44 152.451H170.45C170.45 152.451 170.5 152.431 170.53 152.421H170.54C170.54 152.421 170.6 152.391 170.62 152.381H170.64C170.64 152.381 170.7 152.341 170.73 152.321H170.75V152.301L170.79 152.281H170.81L170.83 152.251H170.85L170.87 152.221L170.89 152.201L170.91 152.181H170.92L170.95 152.141C170.95 152.141 170.97 152.101 170.98 152.091L171 152.051V152.011H171.02V151.991L171.04 151.971V151.951L171.06 151.931V151.881L171.08 151.861V151.791V145.801L171.09 145.821H171.12Z" fill="#6A6461"/>
<path d="M170.73 145.25C171.25 145.55 171.25 146.04 170.73 146.33C170.21 146.63 169.38 146.63 168.86 146.33C168.34 146.03 168.34 145.54 168.86 145.25C169.38 144.95 170.21 144.95 170.73 145.25Z" fill="white" stroke="black" stroke-width="0.5" stroke-linecap="round" stroke-linejoin="round"/>
<path d="M169.79 147.28C176.2 147.28 179.36 144.24 175.82 134.64C172.28 125.05 169.79 126.15 169.79 126.15C169.79 126.15 167.29 125.04 163.76 134.64C160.22 144.23 163.38 147.28 169.79 147.28V147.28Z" fill="#4FB08D"/>
<path d="M175.82 134.65C174.32 130.59 173.01 128.45 172 127.33C172.71 129.44 173.16 131.66 173.45 133.87C173.81 136.67 173.94 139.54 173.29 142.28C172.86 144.08 172.05 145.83 170.89 147.26C176.55 146.91 179.15 143.68 175.82 134.66V134.65Z" fill="#219973"/>
<path d="M154.04 89.6298V89.6498V89.6698V89.6898V89.7098V89.7299V89.7498H154.03V89.7698H154.02V89.7898L154 89.8098V89.8298H153.97V89.8498H153.94V89.8699H153.91V89.8898C153.91 89.8898 153.87 89.8999 153.86 89.9099H153.85L153.81 89.9298C153.81 89.9298 153.78 89.9398 153.77 89.9498H153.72L153.69 89.9698H153.6L153.58 89.9898H153.51C153.51 89.9898 153.49 89.9898 153.48 89.9898H153.34L153.31 89.9698H153.25L153.23 89.9498H153.22L153.18 89.9298H153.17L153.14 89.9099H153.12C153.12 89.9099 153.09 89.8898 153.08 89.8798C152.99 89.8298 152.94 89.7698 152.92 89.6998C152.92 89.6898 152.92 89.6798 152.92 89.6698V89.6498C152.92 89.6498 152.92 89.6398 152.92 89.6298V92.2999C152.92 92.3899 152.97 92.4798 153.09 92.5398C153.1 92.5398 153.12 92.5598 153.13 92.5598H153.15L153.18 92.5798H153.2L153.24 92.5998H153.28L153.32 92.6199H153.4L153.43 92.6398H153.5C153.5 92.6398 153.5 92.6398 153.51 92.6398C153.52 92.6398 153.53 92.6398 153.54 92.6398C153.54 92.6398 153.55 92.6398 153.56 92.6398H153.7L153.72 92.6199H153.78L153.81 92.5998H153.85V92.5798L153.89 92.5598H153.9C153.9 92.5598 153.93 92.5398 153.94 92.5298H153.95V92.5098H153.98V92.4898H154.01V92.4698H154.02V92.4498H154.04L154.06 92.4298V92.4099H154.07V92.3898H154.08V92.3699V92.3498V92.3298V92.3098V92.2898V92.2698V89.5898L154.04 89.6298Z" fill="#6A6461"/>
<path d="M153.87 89.3797C154.1 89.5097 154.1 89.7297 153.87 89.8597C153.64 89.9897 153.26 89.9897 153.03 89.8597C152.8 89.7297 152.8 89.5097 153.03 89.3797C153.26 89.2497 153.64 89.2497 153.87 89.3797Z" fill="white" stroke="black" stroke-width="0.5" stroke-linecap="round" stroke-linejoin="round"/>
<path d="M153.45 90.2801C156.32 90.2801 157.73 88.9201 156.15 84.6301C154.57 80.3401 153.45 80.8401 153.45 80.8401C153.45 80.8401 152.33 80.3401 150.75 84.6301C149.17 88.9201 150.58 90.2801 153.45 90.2801Z" fill="#4FB08D"/>
<path d="M156.14 84.6303C155.47 82.8203 154.89 81.8604 154.43 81.3604C154.75 82.3004 154.95 83.2903 155.08 84.2803C155.24 85.5303 155.3 86.8104 155.01 88.0404C154.82 88.8504 154.46 89.6304 153.94 90.2604C156.47 90.1004 157.63 88.6603 156.14 84.6303V84.6303Z" fill="#219973"/>
<path d="M110.84 62.8291V62.8491V62.8691V62.8891V62.9091V62.9291V62.9491H110.83V62.9691H110.82V62.9891L110.8 63.0091V63.0291H110.77V63.0491H110.74V63.0691H110.71V63.0891C110.71 63.0891 110.67 63.0991 110.66 63.1091H110.65L110.61 63.1291C110.61 63.1291 110.58 63.1391 110.57 63.1491H110.52L110.49 63.1691H110.4L110.38 63.1891H110.31C110.31 63.1891 110.29 63.1891 110.28 63.1891H110.14L110.11 63.1691H110.05L110.03 63.1491H110.02L109.98 63.1291H109.97L109.94 63.1091H109.92C109.92 63.1091 109.89 63.0891 109.88 63.0791C109.79 63.0291 109.74 62.9691 109.72 62.8991C109.72 62.8891 109.72 62.8791 109.72 62.8691V62.8491C109.72 62.8491 109.72 62.8391 109.72 62.8291V65.4991C109.72 65.5891 109.77 65.6791 109.89 65.7391C109.9 65.7391 109.92 65.7591 109.93 65.7591H109.95L109.98 65.7791H110L110.04 65.7991H110.08L110.12 65.8191H110.2L110.23 65.8391H110.3C110.3 65.8391 110.3 65.8391 110.31 65.8391C110.32 65.8391 110.33 65.8391 110.34 65.8391C110.34 65.8391 110.35 65.8391 110.36 65.8391H110.5L110.52 65.8191H110.58L110.61 65.7991H110.65V65.7791L110.69 65.7591H110.7C110.7 65.7591 110.73 65.7391 110.74 65.7291H110.75V65.7091H110.78V65.6891H110.81V65.6691H110.82V65.6491H110.84L110.86 65.6291V65.6091H110.87V65.5891H110.88V65.5691V65.5491V65.5291V65.5091V65.4891V65.4691V62.7891L110.84 62.8291Z" fill="#6A6461"/>
<path d="M110.67 62.5692C110.9 62.6992 110.9 62.9192 110.67 63.0492C110.44 63.1792 110.06 63.1792 109.83 63.0492C109.6 62.9192 109.6 62.6992 109.83 62.5692C110.06 62.4392 110.44 62.4392 110.67 62.5692Z" fill="white" stroke="black" stroke-width="0.5" stroke-linecap="round" stroke-linejoin="round"/>
<path d="M110.25 63.4794C113.12 63.4794 114.53 62.1194 112.95 57.8294C111.37 53.5394 110.25 54.0394 110.25 54.0394C110.25 54.0394 109.13 53.5394 107.55 57.8294C105.97 62.1194 107.38 63.4794 110.25 63.4794Z" fill="#4FB08D"/>
<path d="M112.94 57.8296C112.27 56.0196 111.69 55.0596 111.23 54.5596C111.55 55.4996 111.75 56.4896 111.88 57.4796C112.04 58.7296 112.1 60.0096 111.81 61.2396C111.62 62.0496 111.26 62.8296 110.74 63.4596C113.27 63.2996 114.43 61.8596 112.94 57.8296V57.8296Z" fill="#219973"/>
</svg>
