<svg width="17" height="50" viewBox="0 0 17 50" fill="none" xmlns="http://www.w3.org/2000/svg">
<path d="M7.12 31.9001V48.4601L9.34 49.6801V30.5601L7.12 31.9001Z" fill="#B5B5B5"/>
<path d="M11.56 29.22V48.46L9.33997 49.68V30.56L11.56 29.22Z" fill="#CECECE"/>
<path d="M0 6.38L11.3 0L16.87 3.18999L5.78 9.73L0 6.38Z" fill="#D8D8D8"/>
<path d="M0 6.37988V32.0099L5.84 35.3599V9.72988L0 6.37988Z" fill="#B5B5B5"/>
<path d="M16.87 3.18994V28.7099L5.83997 35.3599V9.72994L16.87 3.18994Z" fill="#CECECE"/>
<path d="M8.91998 12.4101L14.6 9.33008V15.9601L8.91998 19.1101V12.4101Z" fill="#494949"/>
<path d="M8.91998 22.5199L14.6 19.4399V26.0299L8.91998 29.2199V22.5199Z" fill="#494949"/>
<path d="M8.91998 19.1101L14.6 11.1201V11.7601L11.28 17.8001L8.91998 19.1101Z" fill="#3F3F3F"/>
<path d="M8.91998 29.2201L14.6 20.8701V21.8401L11.04 28.0301L8.91998 29.2201Z" fill="#3F3F3F"/>
</svg>
