<svg width="398" height="272" viewBox="0 0 398 272" fill="none" xmlns="http://www.w3.org/2000/svg">
<path d="M272.97 107.541V108.051L272.21 108.491V107.981L272.97 107.541Z" fill="#DCB47A"/>
<path d="M271.49 108.4V108.91L270.73 109.35L270.74 108.84L271.49 108.4Z" fill="#DCB47A"/>
<path d="M270.02 109.251V109.761L269.26 110.201V109.691L270.02 109.251Z" fill="#DCB47A"/>
<path d="M278.57 110.771V111.291L272.97 108.051V107.541L278.57 110.771Z" fill="#84653C"/>
<path d="M277.1 111.63V112.14L271.49 108.91V108.4L277.1 111.63Z" fill="#84653C"/>
<path d="M275.62 112.491V113.001L270.02 109.761V109.251L275.62 112.491Z" fill="#84653C"/>
<path d="M279.99 110.841V111.361L274.83 114.351V113.841L279.99 110.841Z" fill="#DCB47A"/>
<path d="M272.85 106.721L279.99 110.841L274.83 113.841L267.69 109.721L272.85 106.721ZM276.34 112.071L277.1 111.631L271.5 108.401L270.74 108.841L276.34 112.071ZM277.81 111.211L278.57 110.771L272.97 107.541L272.21 107.981L277.81 111.211ZM274.86 112.921L275.62 112.481L270.02 109.251L269.26 109.691L274.86 112.921Z" fill="#DCB47A"/>
<path d="M274.83 113.841V114.351L267.69 110.231V109.721L274.83 113.841Z" fill="#84653C"/>
<path d="M273.18 106.181L273.62 105.921V107.231L273.18 107.481V106.181Z" fill="#DCB47A"/>
<path d="M273.19 104.481L273.63 104.221V105.181L273.18 105.441L273.19 104.481Z" fill="#DCB47A"/>
<path d="M273.19 102.771L273.63 102.511V103.471L273.19 103.731V102.771Z" fill="#DCB47A"/>
<path d="M273.18 105.441L273.63 105.181L279.23 108.421L278.79 108.671L273.18 105.441Z" fill="#DCB47A"/>
<path d="M273.19 103.731L273.63 103.471L279.24 106.711L278.8 106.971L273.19 103.731Z" fill="#DCB47A"/>
<path d="M279.57 105.361L280.01 105.101L280 110.891L279.55 111.151L279.57 105.361Z" fill="#DCB47A"/>
<path d="M272.43 101.231L272.87 100.971L280.01 105.101L279.57 105.361L272.43 101.231Z" fill="#DCB47A"/>
<path d="M272.43 101.231L279.57 105.351L279.55 111.141L278.78 110.711V109.411L273.18 106.171V107.471L273.14 107.431L272.41 107.011L272.43 101.221V101.231ZM278.8 106.971V106.011L273.2 102.771V103.731L278.8 106.971ZM278.8 108.671V107.711L273.2 104.471V105.431L278.8 108.671Z" fill="#84653C"/>
<path d="M278.78 111.541L278.34 111.291L278.33 110.001L278.78 110.261V111.541Z" fill="#EAA61F"/>
<path d="M274.86 113.811L274.41 113.551V111.261L274.85 111.521L274.86 113.811Z" fill="#EAA61F"/>
<path d="M274.85 111.521L274.41 111.261L279.1 108.551L279.54 108.811L274.85 111.521Z" fill="#FFE24E"/>
<path d="M279.54 108.811L279.55 111.101L278.78 111.541V110.261L275.62 112.081V113.371L274.86 113.811L274.85 111.521L279.54 108.811Z" fill="#FDD506"/>
<path d="M272.06 107.711L271.61 107.461V106.171L272.05 106.431L272.06 107.711Z" fill="#EAA61F"/>
<path d="M268.13 109.981L267.69 109.721L267.68 107.431L268.12 107.691L268.13 109.981Z" fill="#EAA61F"/>
<path d="M268.12 107.691L267.68 107.431L272.38 104.721L272.82 104.981L268.12 107.691Z" fill="#FFE24E"/>
<path d="M272.82 104.98V107.27L272.06 107.71L272.05 106.43L268.9 108.25V109.53L268.13 109.98L268.12 107.69L272.82 104.98Z" fill="#FDD506"/>
<path d="M270.51 106.26C270.34 106.26 270.2 106.12 270.2 105.95V73.2905C270.2 73.1205 270.34 72.9805 270.51 72.9805C270.68 72.9805 270.82 73.1205 270.82 73.2905V105.95C270.82 106.12 270.68 106.26 270.51 106.26Z" fill="#3B4847"/>
<path d="M276.98 110.23C276.81 110.23 276.67 110.09 276.67 109.92V77.2602C276.67 77.0902 276.81 76.9502 276.98 76.9502C277.15 76.9502 277.29 77.0902 277.29 77.2602V109.92C277.29 110.09 277.15 110.23 276.98 110.23Z" fill="#3B4847"/>
</svg>
