<svg width="398" height="272" viewBox="0 0 398 272" fill="none" xmlns="http://www.w3.org/2000/svg">
<path d="M274.75 100.96C276.948 100.96 278.73 100.198 278.73 99.2596C278.73 98.3207 276.948 97.5596 274.75 97.5596C272.552 97.5596 270.77 98.3207 270.77 99.2596C270.77 100.198 272.552 100.96 274.75 100.96Z" fill="#72BC61"/>
<path d="M273.78 94.3293V94.3593V94.3893V94.4193V94.4493H273.79V94.4793H273.8V94.5093L273.82 94.5293V94.5593H273.84L273.87 94.5993L273.89 94.6293H273.9V94.6493H273.93L273.95 94.6693H273.96L273.98 94.6893H274L274.02 94.7093H274.04C274.04 94.7093 274.08 94.7493 274.11 94.7593H274.13C274.13 94.7593 274.17 94.7893 274.19 94.7993C274.19 94.7993 274.24 94.8193 274.26 94.8293C274.28 94.8293 274.29 94.8293 274.31 94.8393H274.35C274.35 94.8393 274.39 94.8593 274.4 94.8593H274.46C274.46 94.8593 274.5 94.8793 274.53 94.8793H274.59C274.59 94.8793 274.63 94.8793 274.66 94.8893H274.7C274.7 94.8893 274.74 94.8893 274.75 94.8893H274.94L274.98 94.8693H275.03L275.07 94.8493C275.07 94.8493 275.11 94.8493 275.13 94.8393H275.17L275.19 94.8193C275.19 94.8193 275.23 94.8093 275.25 94.7993H275.27C275.27 94.7993 275.3 94.7793 275.32 94.7693H275.35C275.35 94.7693 275.4 94.7293 275.42 94.7193C275.56 94.6393 275.65 94.5293 275.69 94.4293C275.69 94.4093 275.7 94.3893 275.7 94.3793V94.3493C275.7 94.3493 275.7 94.3293 275.7 94.3193V98.7093C275.7 98.8593 275.61 98.9993 275.42 99.1093C275.4 99.1193 275.37 99.1393 275.35 99.1493H275.32C275.32 99.1493 275.29 99.1693 275.28 99.1793H275.26C275.26 99.1793 275.22 99.1993 275.2 99.2093H275.17L275.14 99.2293C275.14 99.2293 275.1 99.2393 275.08 99.2393H275.04L274.99 99.2593H274.87L274.85 99.2793H274.78C274.78 99.2793 274.77 99.2793 274.76 99.2793C274.74 99.2793 274.72 99.2793 274.71 99.2793C274.71 99.2793 274.69 99.2793 274.68 99.2793H274.66C274.66 99.2793 274.62 99.2793 274.59 99.2793H274.53C274.53 99.2793 274.48 99.2693 274.46 99.2593H274.4C274.4 99.2593 274.36 99.2393 274.35 99.2393H274.31C274.31 99.2393 274.28 99.2193 274.26 99.2193H274.25C274.25 99.2193 274.21 99.1993 274.19 99.1993C274.19 99.1993 274.15 99.1793 274.13 99.1693H274.11C274.11 99.1693 274.07 99.1393 274.04 99.1293H274.02L274 99.0993H273.98L273.96 99.0793H273.95L273.93 99.0593H273.92V99.0393H273.9L273.88 99.0093L273.85 98.9693V98.9393H273.83V98.9093H273.81V98.8793H273.8V98.8493H273.79V98.8193V98.7893V98.7593V98.7293V94.3393L273.78 94.3293Z" fill="#766052"/>
<path d="M274.07 93.9091C273.69 94.1291 273.69 94.4891 274.07 94.7091C274.45 94.9291 275.07 94.9291 275.45 94.7091C275.83 94.4891 275.83 94.1291 275.45 93.9091C275.07 93.6891 274.45 93.6891 274.07 93.9091Z" fill="white" stroke="black" stroke-width="0.5" stroke-linecap="round" stroke-linejoin="round"/>
<path d="M274.76 95.3994C270.04 95.3994 267.72 93.1594 270.32 86.0994C272.92 79.0394 274.76 79.8494 274.76 79.8494C274.76 79.8494 276.6 79.0294 279.2 86.0994C281.8 93.1594 279.48 95.3994 274.76 95.3994Z" fill="#62AB51"/>
<path d="M270.32 86.099C271.42 83.109 272.38 81.539 273.13 80.709C272.61 82.269 272.28 83.889 272.06 85.519C271.79 87.579 271.7 89.689 272.18 91.709C272.5 93.039 273.09 94.319 273.95 95.369C269.79 95.109 267.87 92.739 270.32 86.099Z" fill="#548945"/>
</svg>
