<svg width="398" height="272" viewBox="0 0 398 272" fill="none" xmlns="http://www.w3.org/2000/svg">
<path d="M249.28 115.829L260.6 104.479L277.79 114.399L266.47 125.749L249.28 115.829ZM260.68 105.1L250.09 115.719L266.39 125.13L276.98 114.509L260.68 105.1Z" fill="white"/>
<path d="M268.848 109.477L257.895 120.458L258.249 120.811L269.202 109.831L268.848 109.477Z" fill="white"/>
<path d="M255.278 110.042L255.028 110.475L271.768 120.14L272.018 119.707L255.278 110.042Z" fill="white"/>
<path d="M262.73 105.999L251.78 116.979" stroke="white" stroke-width="0.1" stroke-miterlimit="10"/>
<path d="M264.82 107.21L253.87 118.19" stroke="white" stroke-width="0.1" stroke-miterlimit="10"/>
<path d="M266.92 108.409L255.96 119.399" stroke="white" stroke-width="0.1" stroke-miterlimit="10"/>
<path d="M271.1 110.829L260.15 121.809" stroke="white" stroke-width="0.1" stroke-miterlimit="10"/>
<path d="M273.19 112.039L262.24 123.019" stroke="white" stroke-width="0.1" stroke-miterlimit="10"/>
<path d="M275.29 113.249L264.33 124.229" stroke="white" stroke-width="0.1" stroke-miterlimit="10"/>
<path d="M276.01 115.829L259.27 106.159" stroke="white" stroke-width="0.1" stroke-miterlimit="10"/>
<path d="M274.64 117.199L257.9 107.529" stroke="white" stroke-width="0.1" stroke-miterlimit="10"/>
<path d="M273.27 118.569L256.53 108.909" stroke="white" stroke-width="0.1" stroke-miterlimit="10"/>
<path d="M270.53 121.319L253.79 111.649" stroke="white" stroke-width="0.1" stroke-miterlimit="10"/>
<path d="M269.16 122.689L252.42 113.029" stroke="white" stroke-width="0.1" stroke-miterlimit="10"/>
<path d="M267.79 124.069L251.05 114.399" stroke="white" stroke-width="0.1" stroke-miterlimit="10"/>
<path d="M266.02 125.49L277.34 114.14L294.53 124.06L283.21 135.41L266.02 125.49ZM277.42 114.76L266.83 125.38L283.13 134.79L293.72 124.17L277.42 114.76Z" fill="white"/>
<path d="M285.58 119.139L274.626 130.119L274.98 130.472L285.934 119.492L285.58 119.139Z" fill="white"/>
<path d="M272.019 119.715L271.769 120.148L288.509 129.813L288.759 129.38L272.019 119.715Z" fill="white"/>
<path d="M279.47 115.659L268.52 126.649" stroke="white" stroke-width="0.1" stroke-miterlimit="10"/>
<path d="M281.56 116.87L270.61 127.85" stroke="white" stroke-width="0.1" stroke-miterlimit="10"/>
<path d="M283.66 118.08L272.7 129.06" stroke="white" stroke-width="0.1" stroke-miterlimit="10"/>
<path d="M287.84 120.5L276.89 131.48" stroke="white" stroke-width="0.1" stroke-miterlimit="10"/>
<path d="M289.94 121.699L278.98 132.689" stroke="white" stroke-width="0.1" stroke-miterlimit="10"/>
<path d="M292.03 122.909L281.07 133.899" stroke="white" stroke-width="0.1" stroke-miterlimit="10"/>
<path d="M292.75 125.49L276.01 115.83" stroke="white" stroke-width="0.1" stroke-miterlimit="10"/>
<path d="M291.38 126.869L274.64 117.199" stroke="white" stroke-width="0.1" stroke-miterlimit="10"/>
<path d="M290.01 128.239L273.27 118.569" stroke="white" stroke-width="0.1" stroke-miterlimit="10"/>
<path d="M287.28 130.979L270.53 121.319" stroke="white" stroke-width="0.1" stroke-miterlimit="10"/>
<path d="M285.91 132.359L269.16 122.689" stroke="white" stroke-width="0.1" stroke-miterlimit="10"/>
<path d="M284.54 133.73L267.79 124.06" stroke="white" stroke-width="0.1" stroke-miterlimit="10"/>
<path d="M230.41 126.499L241.73 115.149L258.92 125.069L247.6 136.419L230.41 126.499V126.499ZM241.81 115.769L231.22 126.389L247.52 135.799L258.11 125.179L241.81 115.769Z" fill="white"/>
<path d="M249.958 120.149L239.005 131.13L239.359 131.483L250.312 120.502L249.958 120.149Z" fill="white"/>
<path d="M236.403 120.718L236.153 121.151L252.894 130.816L253.144 130.383L236.403 120.718Z" fill="white"/>
<path d="M243.86 116.669L232.91 127.659" stroke="white" stroke-width="0.1" stroke-miterlimit="10"/>
<path d="M245.95 117.88L235 128.86" stroke="white" stroke-width="0.1" stroke-miterlimit="10"/>
<path d="M248.04 119.09L237.09 130.07" stroke="white" stroke-width="0.1" stroke-miterlimit="10"/>
<path d="M252.23 121.51L241.28 132.49" stroke="white" stroke-width="0.1" stroke-miterlimit="10"/>
<path d="M254.32 122.709L243.37 133.699" stroke="white" stroke-width="0.1" stroke-miterlimit="10"/>
<path d="M256.42 123.919L245.46 134.909" stroke="white" stroke-width="0.1" stroke-miterlimit="10"/>
<path d="M257.14 126.5L240.4 116.84" stroke="white" stroke-width="0.1" stroke-miterlimit="10"/>
<path d="M255.77 127.879L239.03 118.209" stroke="white" stroke-width="0.1" stroke-miterlimit="10"/>
<path d="M254.4 129.249L237.66 119.579" stroke="white" stroke-width="0.1" stroke-miterlimit="10"/>
<path d="M251.66 131.999L234.92 122.329" stroke="white" stroke-width="0.1" stroke-miterlimit="10"/>
<path d="M250.29 133.369L233.55 123.699" stroke="white" stroke-width="0.1" stroke-miterlimit="10"/>
<path d="M248.92 134.739L232.18 125.079" stroke="white" stroke-width="0.1" stroke-miterlimit="10"/>
<path d="M247.15 136.169L258.47 124.819L275.66 134.739L264.34 146.089L247.15 136.169V136.169ZM258.55 125.439L247.96 136.059L264.26 145.469L274.85 134.849L258.55 125.439V125.439Z" fill="white"/>
<path d="M266.714 129.82L255.76 140.801L256.114 141.154L267.068 130.173L266.714 129.82Z" fill="white"/>
<path d="M253.153 130.387L252.903 130.82L269.643 140.485L269.893 140.052L253.153 130.387Z" fill="white"/>
<path d="M260.6 126.339L249.65 137.319" stroke="white" stroke-width="0.1" stroke-miterlimit="10"/>
<path d="M262.69 127.55L251.74 138.53" stroke="white" stroke-width="0.1" stroke-miterlimit="10"/>
<path d="M264.79 128.76L253.83 139.74" stroke="white" stroke-width="0.1" stroke-miterlimit="10"/>
<path d="M268.97 131.169L258.02 142.149" stroke="white" stroke-width="0.1" stroke-miterlimit="10"/>
<path d="M271.07 132.379L260.11 143.359" stroke="white" stroke-width="0.1" stroke-miterlimit="10"/>
<path d="M273.16 133.589L262.2 144.569" stroke="white" stroke-width="0.1" stroke-miterlimit="10"/>
<path d="M273.88 136.169L257.14 126.499" stroke="white" stroke-width="0.1" stroke-miterlimit="10"/>
<path d="M272.51 137.539L255.77 127.879" stroke="white" stroke-width="0.1" stroke-miterlimit="10"/>
<path d="M271.14 138.919L254.4 129.249" stroke="white" stroke-width="0.1" stroke-miterlimit="10"/>
<path d="M268.4 141.659L251.66 131.989" stroke="white" stroke-width="0.1" stroke-miterlimit="10"/>
<path d="M267.04 143.029L250.29 133.369" stroke="white" stroke-width="0.1" stroke-miterlimit="10"/>
<path d="M265.67 144.409L248.92 134.739" stroke="white" stroke-width="0.1" stroke-miterlimit="10"/>
<path d="M211.54 137.179L222.86 125.829L240.05 135.749L228.73 147.099L211.54 137.179ZM222.94 126.449L212.35 137.069L228.65 146.479L239.24 135.859L222.94 126.449Z" fill="white"/>
<path d="M231.093 130.831L220.139 141.812L220.493 142.165L231.447 131.184L231.093 130.831Z" fill="white"/>
<path d="M217.537 131.389L217.287 131.822L234.028 141.487L234.278 141.054L217.537 131.389Z" fill="white"/>
<path d="M224.99 127.349L214.03 138.329" stroke="white" stroke-width="0.1" stroke-miterlimit="10"/>
<path d="M227.08 128.56L216.13 139.54" stroke="white" stroke-width="0.1" stroke-miterlimit="10"/>
<path d="M229.17 129.77L218.22 140.75" stroke="white" stroke-width="0.1" stroke-miterlimit="10"/>
<path d="M233.36 132.179L222.41 143.169" stroke="white" stroke-width="0.1" stroke-miterlimit="10"/>
<path d="M235.45 133.389L224.5 144.369" stroke="white" stroke-width="0.1" stroke-miterlimit="10"/>
<path d="M237.55 134.599L226.59 145.579" stroke="white" stroke-width="0.1" stroke-miterlimit="10"/>
<path d="M238.27 137.179L221.53 127.509" stroke="white" stroke-width="0.1" stroke-miterlimit="10"/>
<path d="M236.9 138.549L220.16 128.889" stroke="white" stroke-width="0.1" stroke-miterlimit="10"/>
<path d="M235.53 139.929L218.79 130.259" stroke="white" stroke-width="0.1" stroke-miterlimit="10"/>
<path d="M232.79 142.669L216.05 133.009" stroke="white" stroke-width="0.1" stroke-miterlimit="10"/>
<path d="M231.42 144.039L214.68 134.379" stroke="white" stroke-width="0.1" stroke-miterlimit="10"/>
<path d="M230.05 145.419L213.31 135.749" stroke="white" stroke-width="0.1" stroke-miterlimit="10"/>
<path d="M228.28 146.839L239.6 135.489L256.79 145.409L245.47 156.759L228.28 146.839V146.839ZM239.68 136.109L229.09 146.729L245.39 156.139L255.98 145.519L239.68 136.109Z" fill="white"/>
<path d="M247.841 140.485L236.887 151.466L237.241 151.819L248.195 140.838L247.841 140.485Z" fill="white"/>
<path d="M234.273 141.073L234.023 141.506L250.763 151.171L251.013 150.738L234.273 141.073Z" fill="white"/>
<path d="M241.73 137.009L230.78 147.999" stroke="white" stroke-width="0.1" stroke-miterlimit="10"/>
<path d="M243.82 138.22L232.87 149.21" stroke="white" stroke-width="0.1" stroke-miterlimit="10"/>
<path d="M245.92 139.43L234.96 150.41" stroke="white" stroke-width="0.1" stroke-miterlimit="10"/>
<path d="M250.1 141.85L239.15 152.83" stroke="white" stroke-width="0.1" stroke-miterlimit="10"/>
<path d="M252.19 143.06L241.24 154.04" stroke="white" stroke-width="0.1" stroke-miterlimit="10"/>
<path d="M254.29 144.259L243.33 155.249" stroke="white" stroke-width="0.1" stroke-miterlimit="10"/>
<path d="M255.01 146.85L238.27 137.18" stroke="white" stroke-width="0.1" stroke-miterlimit="10"/>
<path d="M253.64 148.219L236.9 138.549" stroke="white" stroke-width="0.1" stroke-miterlimit="10"/>
<path d="M252.27 149.59L235.53 139.93" stroke="white" stroke-width="0.1" stroke-miterlimit="10"/>
<path d="M249.53 152.339L232.79 142.669" stroke="white" stroke-width="0.1" stroke-miterlimit="10"/>
<path d="M248.16 153.709L231.42 144.039" stroke="white" stroke-width="0.1" stroke-miterlimit="10"/>
<path d="M246.8 155.079L230.05 145.419" stroke="white" stroke-width="0.1" stroke-miterlimit="10"/>
<path d="M192.67 147.849L203.99 136.499L221.18 146.419L209.86 157.769L192.67 147.849ZM204.07 137.119L193.48 147.739L209.78 157.149L220.37 146.529L204.07 137.119Z" fill="white"/>
<path d="M212.22 141.496L201.266 152.477L201.62 152.83L212.574 141.849L212.22 141.496Z" fill="white"/>
<path d="M198.671 142.071L198.421 142.504L215.162 152.169L215.412 151.736L198.671 142.071Z" fill="white"/>
<path d="M206.12 138.029L195.16 149.009" stroke="white" stroke-width="0.1" stroke-miterlimit="10"/>
<path d="M208.21 139.229L197.26 150.219" stroke="white" stroke-width="0.1" stroke-miterlimit="10"/>
<path d="M210.3 140.439L199.35 151.429" stroke="white" stroke-width="0.1" stroke-miterlimit="10"/>
<path d="M214.49 142.859L203.54 153.839" stroke="white" stroke-width="0.1" stroke-miterlimit="10"/>
<path d="M216.58 144.069L205.63 155.049" stroke="white" stroke-width="0.1" stroke-miterlimit="10"/>
<path d="M218.67 145.279L207.72 156.259" stroke="white" stroke-width="0.1" stroke-miterlimit="10"/>
<path d="M219.4 147.859L202.66 138.189" stroke="white" stroke-width="0.1" stroke-miterlimit="10"/>
<path d="M218.03 149.229L201.29 139.559" stroke="white" stroke-width="0.1" stroke-miterlimit="10"/>
<path d="M216.66 150.599L199.92 140.939" stroke="white" stroke-width="0.1" stroke-miterlimit="10"/>
<path d="M213.92 153.349L197.18 143.679" stroke="white" stroke-width="0.1" stroke-miterlimit="10"/>
<path d="M212.55 154.719L195.81 145.049" stroke="white" stroke-width="0.1" stroke-miterlimit="10"/>
<path d="M211.18 156.089L194.44 146.429" stroke="white" stroke-width="0.1" stroke-miterlimit="10"/>
<path d="M209.41 157.519L220.73 146.169L237.92 156.089L226.6 167.439L209.41 157.519ZM220.81 146.789L210.22 157.409L226.52 166.819L237.11 156.199L220.81 146.789Z" fill="white"/>
<path d="M228.966 151.167L218.012 162.147L218.366 162.501L229.32 151.52L228.966 151.167Z" fill="white"/>
<path d="M215.407 151.744L215.157 152.177L231.897 161.842L232.147 161.409L215.407 151.744Z" fill="white"/>
<path d="M222.86 147.688L211.91 158.668" stroke="white" stroke-width="0.1" stroke-miterlimit="10"/>
<path d="M224.95 148.899L214 159.879" stroke="white" stroke-width="0.1" stroke-miterlimit="10"/>
<path d="M227.05 150.109L216.09 161.089" stroke="white" stroke-width="0.1" stroke-miterlimit="10"/>
<path d="M231.23 152.519L220.28 163.509" stroke="white" stroke-width="0.1" stroke-miterlimit="10"/>
<path d="M233.32 153.729L222.37 164.719" stroke="white" stroke-width="0.1" stroke-miterlimit="10"/>
<path d="M235.42 154.938L224.46 165.918" stroke="white" stroke-width="0.1" stroke-miterlimit="10"/>
<path d="M236.14 157.519L219.4 147.859" stroke="white" stroke-width="0.1" stroke-miterlimit="10"/>
<path d="M234.77 158.889L218.03 149.229" stroke="white" stroke-width="0.1" stroke-miterlimit="10"/>
<path d="M233.4 160.269L216.66 150.599" stroke="white" stroke-width="0.1" stroke-miterlimit="10"/>
<path d="M230.66 163.009L213.92 153.349" stroke="white" stroke-width="0.1" stroke-miterlimit="10"/>
<path d="M229.29 164.389L212.55 154.719" stroke="white" stroke-width="0.1" stroke-miterlimit="10"/>
<path d="M227.92 165.759L211.18 156.089" stroke="white" stroke-width="0.1" stroke-miterlimit="10"/>
<path d="M173.8 158.53L185.12 147.18L202.31 157.1L190.99 168.45L173.8 158.53ZM185.2 147.8L174.61 158.42L190.91 167.83L201.5 157.21L185.2 147.8Z" fill="white"/>
<path d="M193.344 152.179L182.391 163.159L182.745 163.512L193.698 152.532L193.344 152.179Z" fill="white"/>
<path d="M179.797 152.739L179.547 153.172L196.287 162.837L196.537 162.404L179.797 152.739Z" fill="white"/>
<path d="M187.25 148.699L176.29 159.679" stroke="white" stroke-width="0.1" stroke-miterlimit="10"/>
<path d="M189.34 149.91L178.39 160.89" stroke="white" stroke-width="0.1" stroke-miterlimit="10"/>
<path d="M191.43 151.12L180.48 162.1" stroke="white" stroke-width="0.1" stroke-miterlimit="10"/>
<path d="M195.62 153.529L184.66 164.519" stroke="white" stroke-width="0.1" stroke-miterlimit="10"/>
<path d="M197.71 154.739L186.76 165.729" stroke="white" stroke-width="0.1" stroke-miterlimit="10"/>
<path d="M199.8 155.949L188.85 166.929" stroke="white" stroke-width="0.1" stroke-miterlimit="10"/>
<path d="M200.53 158.53L183.79 148.87" stroke="white" stroke-width="0.1" stroke-miterlimit="10"/>
<path d="M199.16 159.909L182.42 150.239" stroke="white" stroke-width="0.1" stroke-miterlimit="10"/>
<path d="M197.79 161.279L181.05 151.609" stroke="white" stroke-width="0.1" stroke-miterlimit="10"/>
<path d="M195.05 164.019L178.31 154.359" stroke="white" stroke-width="0.1" stroke-miterlimit="10"/>
<path d="M193.68 165.399L176.94 155.729" stroke="white" stroke-width="0.1" stroke-miterlimit="10"/>
<path d="M192.31 166.77L175.57 157.1" stroke="white" stroke-width="0.1" stroke-miterlimit="10"/>
<path d="M190.54 168.19L201.86 156.84L219.05 166.76L207.73 178.11L190.54 168.19ZM201.94 157.46L191.35 168.08L207.65 177.49L218.24 166.87L201.94 157.46Z" fill="white"/>
<path d="M210.1 161.84L199.146 172.82L199.5 173.173L210.454 162.193L210.1 161.84Z" fill="white"/>
<path d="M196.542 162.426L196.292 162.859L213.032 172.524L213.282 172.091L196.542 162.426Z" fill="white"/>
<path d="M203.99 158.37L193.04 169.35" stroke="white" stroke-width="0.1" stroke-miterlimit="10"/>
<path d="M206.08 159.58L195.13 170.56" stroke="white" stroke-width="0.1" stroke-miterlimit="10"/>
<path d="M208.18 160.78L197.22 171.77" stroke="white" stroke-width="0.1" stroke-miterlimit="10"/>
<path d="M212.36 163.2L201.41 174.18" stroke="white" stroke-width="0.1" stroke-miterlimit="10"/>
<path d="M214.45 164.41L203.5 175.39" stroke="white" stroke-width="0.1" stroke-miterlimit="10"/>
<path d="M216.55 165.62L205.59 176.6" stroke="white" stroke-width="0.1" stroke-miterlimit="10"/>
<path d="M217.27 168.2L200.53 158.53" stroke="white" stroke-width="0.1" stroke-miterlimit="10"/>
<path d="M215.9 169.569L199.16 159.899" stroke="white" stroke-width="0.1" stroke-miterlimit="10"/>
<path d="M214.53 170.94L197.79 161.28" stroke="white" stroke-width="0.1" stroke-miterlimit="10"/>
<path d="M211.79 173.69L195.05 164.02" stroke="white" stroke-width="0.1" stroke-miterlimit="10"/>
<path d="M210.42 175.059L193.68 165.399" stroke="white" stroke-width="0.1" stroke-miterlimit="10"/>
<path d="M209.05 176.43L192.31 166.77" stroke="white" stroke-width="0.1" stroke-miterlimit="10"/>
<path d="M154.93 169.209L166.25 157.859L183.44 167.779L172.12 179.129L154.93 169.209ZM166.33 158.479L155.74 169.099L172.04 178.509L182.63 167.889L166.33 158.479Z" fill="white"/>
<path d="M174.478 162.86L163.525 173.841L163.879 174.194L174.832 163.213L174.478 162.86Z" fill="white"/>
<path d="M160.931 163.421L160.681 163.854L177.421 173.519L177.671 173.086L160.931 163.421Z" fill="white"/>
<path d="M168.38 159.379L157.42 170.359" stroke="white" stroke-width="0.1" stroke-miterlimit="10"/>
<path d="M170.47 160.59L159.52 171.57" stroke="white" stroke-width="0.1" stroke-miterlimit="10"/>
<path d="M172.56 161.789L161.61 172.779" stroke="white" stroke-width="0.1" stroke-miterlimit="10"/>
<path d="M176.75 164.209L165.79 175.189" stroke="white" stroke-width="0.1" stroke-miterlimit="10"/>
<path d="M178.84 165.419L167.89 176.399" stroke="white" stroke-width="0.1" stroke-miterlimit="10"/>
<path d="M180.93 166.629L169.98 177.609" stroke="white" stroke-width="0.1" stroke-miterlimit="10"/>
<path d="M181.66 169.209L164.91 159.539" stroke="white" stroke-width="0.1" stroke-miterlimit="10"/>
<path d="M180.29 170.579L163.55 160.919" stroke="white" stroke-width="0.1" stroke-miterlimit="10"/>
<path d="M178.92 171.949L162.18 162.289" stroke="white" stroke-width="0.1" stroke-miterlimit="10"/>
<path d="M176.18 174.699L159.44 165.029" stroke="white" stroke-width="0.1" stroke-miterlimit="10"/>
<path d="M174.81 176.069L158.07 166.409" stroke="white" stroke-width="0.1" stroke-miterlimit="10"/>
<path d="M173.44 177.449L156.7 167.779" stroke="white" stroke-width="0.1" stroke-miterlimit="10"/>
<path d="M171.67 178.87L182.99 167.52L200.18 177.44L188.86 188.79L171.67 178.87ZM183.07 168.14L172.48 178.76L188.78 188.17L199.37 177.55L183.07 168.14Z" fill="white"/>
<path d="M191.21 172.521L180.256 183.502L180.61 183.855L191.564 172.874L191.21 172.521Z" fill="white"/>
<path d="M177.667 173.093L177.417 173.526L194.157 183.191L194.407 182.758L177.667 173.093Z" fill="white"/>
<path d="M185.12 169.039L174.16 180.029" stroke="white" stroke-width="0.1" stroke-miterlimit="10"/>
<path d="M187.21 170.25L176.26 181.23" stroke="white" stroke-width="0.1" stroke-miterlimit="10"/>
<path d="M189.3 171.46L178.35 182.44" stroke="white" stroke-width="0.1" stroke-miterlimit="10"/>
<path d="M193.49 173.88L182.54 184.86" stroke="white" stroke-width="0.1" stroke-miterlimit="10"/>
<path d="M195.58 175.079L184.63 186.069" stroke="white" stroke-width="0.1" stroke-miterlimit="10"/>
<path d="M197.68 176.289L186.72 187.279" stroke="white" stroke-width="0.1" stroke-miterlimit="10"/>
<path d="M198.4 178.87L181.66 169.21" stroke="white" stroke-width="0.1" stroke-miterlimit="10"/>
<path d="M197.03 180.249L180.29 170.579" stroke="white" stroke-width="0.1" stroke-miterlimit="10"/>
<path d="M195.66 181.619L178.92 171.949" stroke="white" stroke-width="0.1" stroke-miterlimit="10"/>
<path d="M192.92 184.369L176.18 174.699" stroke="white" stroke-width="0.1" stroke-miterlimit="10"/>
<path d="M191.55 185.739L174.81 176.069" stroke="white" stroke-width="0.1" stroke-miterlimit="10"/>
<path d="M190.18 187.109L173.44 177.439" stroke="white" stroke-width="0.1" stroke-miterlimit="10"/>
<path d="M136.06 179.879L147.38 168.529L164.57 178.449L153.25 189.799L136.06 179.879ZM147.46 169.149L136.87 179.769L153.17 189.179L163.76 178.559L147.46 169.149Z" fill="white"/>
<path d="M155.606 173.525L144.652 184.506L145.006 184.859L155.96 173.878L155.606 173.525Z" fill="white"/>
<path d="M142.057 174.087L141.807 174.521L158.547 184.186L158.797 183.752L142.057 174.087Z" fill="white"/>
<path d="M149.51 170.049L138.55 181.039" stroke="white" stroke-width="0.1" stroke-miterlimit="10"/>
<path d="M151.6 171.26L140.64 182.25" stroke="white" stroke-width="0.1" stroke-miterlimit="10"/>
<path d="M153.69 172.47L142.74 183.45" stroke="white" stroke-width="0.1" stroke-miterlimit="10"/>
<path d="M157.88 174.89L146.92 185.87" stroke="white" stroke-width="0.1" stroke-miterlimit="10"/>
<path d="M159.97 176.1L149.02 187.08" stroke="white" stroke-width="0.1" stroke-miterlimit="10"/>
<path d="M162.06 177.299L151.11 188.289" stroke="white" stroke-width="0.1" stroke-miterlimit="10"/>
<path d="M162.79 179.88L146.04 170.22" stroke="white" stroke-width="0.1" stroke-miterlimit="10"/>
<path d="M161.42 181.259L144.67 171.589" stroke="white" stroke-width="0.1" stroke-miterlimit="10"/>
<path d="M160.05 182.629L143.31 172.959" stroke="white" stroke-width="0.1" stroke-miterlimit="10"/>
<path d="M157.31 185.379L140.57 175.709" stroke="white" stroke-width="0.1" stroke-miterlimit="10"/>
<path d="M155.94 186.749L139.2 177.079" stroke="white" stroke-width="0.1" stroke-miterlimit="10"/>
<path d="M154.57 188.119L137.83 178.459" stroke="white" stroke-width="0.1" stroke-miterlimit="10"/>
<path d="M152.8 189.549L164.12 178.199L181.31 188.119L169.99 199.469L152.8 189.549ZM164.2 178.819L153.61 189.439L169.91 198.849L180.5 188.229L164.2 178.819Z" fill="white"/>
<path d="M172.344 183.203L161.391 194.184L161.745 194.537L172.698 183.556L172.344 183.203Z" fill="white"/>
<path d="M158.801 183.775L158.551 184.208L175.291 193.873L175.541 193.44L158.801 183.775Z" fill="white"/>
<path d="M166.25 179.719L155.29 190.699" stroke="white" stroke-width="0.1" stroke-miterlimit="10"/>
<path d="M168.34 180.93L157.39 191.91" stroke="white" stroke-width="0.1" stroke-miterlimit="10"/>
<path d="M170.43 182.14L159.48 193.12" stroke="white" stroke-width="0.1" stroke-miterlimit="10"/>
<path d="M174.62 184.549L163.67 195.539" stroke="white" stroke-width="0.1" stroke-miterlimit="10"/>
<path d="M176.71 185.759L165.76 196.739" stroke="white" stroke-width="0.1" stroke-miterlimit="10"/>
<path d="M178.81 186.969L167.85 197.949" stroke="white" stroke-width="0.1" stroke-miterlimit="10"/>
<path d="M179.53 189.549L162.79 179.879" stroke="white" stroke-width="0.1" stroke-miterlimit="10"/>
<path d="M178.16 190.919L161.42 181.259" stroke="white" stroke-width="0.1" stroke-miterlimit="10"/>
<path d="M176.79 192.299L160.05 182.629" stroke="white" stroke-width="0.1" stroke-miterlimit="10"/>
<path d="M174.05 195.039L157.31 185.379" stroke="white" stroke-width="0.1" stroke-miterlimit="10"/>
<path d="M172.68 196.409L155.94 186.749" stroke="white" stroke-width="0.1" stroke-miterlimit="10"/>
<path d="M171.31 197.789L154.57 188.119" stroke="white" stroke-width="0.1" stroke-miterlimit="10"/>
<path d="M119.33 64.8992L123.03 61.1592L128.69 64.3992L124.99 68.1392L119.33 64.8992V64.8992ZM123.06 61.3592L119.6 64.8592L124.97 67.9292L128.43 64.4292L123.06 61.3592Z" fill="white"/>
<path d="M125.744 62.7877L122.165 66.4062L122.278 66.5188L125.858 62.9002L125.744 62.7877Z" fill="white"/>
<path d="M121.298 63.0037L121.219 63.1426L126.731 66.2955L126.81 66.1566L121.298 63.0037Z" fill="white"/>
<path d="M123.74 61.6592L120.15 65.2792" stroke="white" stroke-width="0.1" stroke-miterlimit="10"/>
<path d="M124.43 62.0488L120.84 65.6688" stroke="white" stroke-width="0.1" stroke-miterlimit="10"/>
<path d="M125.11 62.4395L121.53 66.0695" stroke="white" stroke-width="0.1" stroke-miterlimit="10"/>
<path d="M126.49 63.2295L122.91 66.8495" stroke="white" stroke-width="0.1" stroke-miterlimit="10"/>
<path d="M127.18 63.6289L123.6 67.2489" stroke="white" stroke-width="0.1" stroke-miterlimit="10"/>
<path d="M127.87 64.0195L124.29 67.6395" stroke="white" stroke-width="0.1" stroke-miterlimit="10"/>
<path d="M128.11 64.869L122.6 61.709" stroke="white" stroke-width="0.1" stroke-miterlimit="10"/>
<path d="M127.66 65.3189L122.15 62.1689" stroke="white" stroke-width="0.1" stroke-miterlimit="10"/>
<path d="M127.22 65.7691L121.7 62.6191" stroke="white" stroke-width="0.1" stroke-miterlimit="10"/>
<path d="M126.32 66.6793L120.81 63.5293" stroke="white" stroke-width="0.1" stroke-miterlimit="10"/>
<path d="M125.87 67.1295L120.36 63.9795" stroke="white" stroke-width="0.1" stroke-miterlimit="10"/>
<path d="M125.42 67.5787L119.91 64.4287" stroke="white" stroke-width="0.1" stroke-miterlimit="10"/>
<path d="M155.14 55.4297L150.21 50.5197L157.66 46.1797L162.59 51.0897L155.14 55.4297ZM150.56 50.5697L155.18 55.1597L162.24 51.0397L157.62 46.4497L150.56 50.5697Z" fill="white"/>
<path d="M154.092 48.3557L153.937 48.5117L158.716 53.2643L158.872 53.1083L154.092 48.3557Z" fill="white"/>
<path d="M159.969 48.5949L152.72 52.8203L152.831 53.0104L160.08 48.785L159.969 48.5949Z" fill="white"/>
<path d="M156.73 46.8496L161.51 51.5996" stroke="white" stroke-width="0.1" stroke-miterlimit="10"/>
<path d="M155.83 47.3701L160.6 52.1201" stroke="white" stroke-width="0.1" stroke-miterlimit="10"/>
<path d="M154.92 47.8994L159.69 52.6494" stroke="white" stroke-width="0.1" stroke-miterlimit="10"/>
<path d="M153.11 48.96L157.88 53.71" stroke="white" stroke-width="0.1" stroke-miterlimit="10"/>
<path d="M152.2 49.4893L156.97 54.2393" stroke="white" stroke-width="0.1" stroke-miterlimit="10"/>
<path d="M151.29 50.0195L156.07 54.7695" stroke="white" stroke-width="0.1" stroke-miterlimit="10"/>
<path d="M150.98 51.1402L158.24 46.9102" stroke="white" stroke-width="0.1" stroke-miterlimit="10"/>
<path d="M151.58 51.73L158.83 47.5" stroke="white" stroke-width="0.1" stroke-miterlimit="10"/>
<path d="M152.18 52.3296L159.43 48.0996" stroke="white" stroke-width="0.1" stroke-miterlimit="10"/>
<path d="M153.37 53.51L160.62 49.29" stroke="white" stroke-width="0.1" stroke-miterlimit="10"/>
<path d="M153.97 54.1099L161.22 49.8799" stroke="white" stroke-width="0.1" stroke-miterlimit="10"/>
<path d="M154.56 54.6997L161.82 50.4697" stroke="white" stroke-width="0.1" stroke-miterlimit="10"/>
<path d="M146.89 60.1201L141.96 55.2101L149.41 50.8701L154.34 55.7801L146.89 60.1201ZM142.31 55.2601L146.93 59.8501L153.99 55.7301L149.37 51.1401L142.31 55.2601Z" fill="white"/>
<path d="M145.841 53.0432L145.686 53.1992L150.465 57.9518L150.62 57.7958L145.841 53.0432Z" fill="white"/>
<path d="M151.713 53.2922L144.465 57.5176L144.576 57.7076L151.824 53.4822L151.713 53.2922Z" fill="white"/>
<path d="M148.48 51.54L153.26 56.29" stroke="white" stroke-width="0.1" stroke-miterlimit="10"/>
<path d="M147.57 52.0703L152.35 56.8203" stroke="white" stroke-width="0.1" stroke-miterlimit="10"/>
<path d="M146.67 52.5898L151.44 57.3398" stroke="white" stroke-width="0.1" stroke-miterlimit="10"/>
<path d="M144.85 53.6504L149.63 58.4004" stroke="white" stroke-width="0.1" stroke-miterlimit="10"/>
<path d="M143.95 54.1797L148.72 58.9297" stroke="white" stroke-width="0.1" stroke-miterlimit="10"/>
<path d="M143.04 54.71L147.82 59.46" stroke="white" stroke-width="0.1" stroke-miterlimit="10"/>
<path d="M142.73 55.8306L149.98 51.6006" stroke="white" stroke-width="0.1" stroke-miterlimit="10"/>
<path d="M143.33 56.4202L150.58 52.2002" stroke="white" stroke-width="0.1" stroke-miterlimit="10"/>
<path d="M143.92 57.02L151.18 52.79" stroke="white" stroke-width="0.1" stroke-miterlimit="10"/>
<path d="M145.12 58.2005L152.37 53.9805" stroke="white" stroke-width="0.1" stroke-miterlimit="10"/>
<path d="M145.72 58.8003L152.97 54.5703" stroke="white" stroke-width="0.1" stroke-miterlimit="10"/>
<path d="M146.31 59.3902L153.57 55.1602" stroke="white" stroke-width="0.1" stroke-miterlimit="10"/>
<path d="M120.43 93.5999L115.22 88.4198L123.08 83.8398L128.29 89.0199L120.43 93.5999ZM115.59 88.4698L120.47 93.3198L127.92 88.9798L123.04 84.1299L115.59 88.4698V88.4698Z" fill="white"/>
<path d="M119.32 86.1426L119.158 86.3057L124.2 91.3191L124.362 91.156L119.32 86.1426Z" fill="white"/>
<path d="M125.532 86.3914L117.878 90.8535L117.994 91.0522L125.648 86.5901L125.532 86.3914Z" fill="white"/>
<path d="M122.11 84.54L127.15 89.55" stroke="white" stroke-width="0.1" stroke-miterlimit="10"/>
<path d="M121.15 85.0996L126.19 90.1096" stroke="white" stroke-width="0.1" stroke-miterlimit="10"/>
<path d="M120.19 85.6602L125.24 90.6702" stroke="white" stroke-width="0.1" stroke-miterlimit="10"/>
<path d="M118.28 86.7695L123.32 91.7895" stroke="white" stroke-width="0.1" stroke-miterlimit="10"/>
<path d="M117.32 87.3301L122.36 92.3401" stroke="white" stroke-width="0.1" stroke-miterlimit="10"/>
<path d="M116.36 87.8896L121.41 92.8996" stroke="white" stroke-width="0.1" stroke-miterlimit="10"/>
<path d="M116.04 89.0694L123.69 84.6094" stroke="white" stroke-width="0.1" stroke-miterlimit="10"/>
<path d="M116.67 89.7002L124.33 85.2402" stroke="white" stroke-width="0.1" stroke-miterlimit="10"/>
<path d="M117.3 90.3294L124.96 85.8594" stroke="white" stroke-width="0.1" stroke-miterlimit="10"/>
<path d="M118.56 91.5801L126.22 87.1201" stroke="white" stroke-width="0.1" stroke-miterlimit="10"/>
<path d="M119.19 92.2102L126.85 87.7402" stroke="white" stroke-width="0.1" stroke-miterlimit="10"/>
<path d="M119.82 92.8301L127.48 88.3701" stroke="white" stroke-width="0.1" stroke-miterlimit="10"/>
<path d="M114.53 80.3893L110.76 76.6393L116.45 73.3193L120.22 77.0693L114.53 80.3893ZM111.03 76.6793L114.56 80.1893L119.96 77.0493L116.43 73.5393L111.03 76.6793Z" fill="white"/>
<path d="M113.709 74.9881L113.596 75.1016L117.248 78.733L117.361 78.6195L113.709 74.9881Z" fill="white"/>
<path d="M118.21 75.1585L112.672 78.3867L112.752 78.5249L118.29 75.2967L118.21 75.1585Z" fill="white"/>
<path d="M115.74 73.8291L119.39 77.4591" stroke="white" stroke-width="0.1" stroke-miterlimit="10"/>
<path d="M115.05 74.2295L118.7 77.8595" stroke="white" stroke-width="0.1" stroke-miterlimit="10"/>
<path d="M114.35 74.6289L118 78.2589" stroke="white" stroke-width="0.1" stroke-miterlimit="10"/>
<path d="M112.97 75.4395L116.62 79.0694" stroke="white" stroke-width="0.1" stroke-miterlimit="10"/>
<path d="M112.28 75.8496L115.93 79.4796" stroke="white" stroke-width="0.1" stroke-miterlimit="10"/>
<path d="M111.58 76.249L115.23 79.879" stroke="white" stroke-width="0.1" stroke-miterlimit="10"/>
<path d="M111.35 77.1089L116.89 73.8789" stroke="white" stroke-width="0.1" stroke-miterlimit="10"/>
<path d="M111.8 77.5591L117.35 74.3291" stroke="white" stroke-width="0.1" stroke-miterlimit="10"/>
<path d="M112.26 78.0093L117.8 74.7793" stroke="white" stroke-width="0.1" stroke-miterlimit="10"/>
<path d="M113.17 78.9194L118.71 75.6895" stroke="white" stroke-width="0.1" stroke-miterlimit="10"/>
<path d="M113.63 79.3794L119.17 76.1494" stroke="white" stroke-width="0.1" stroke-miterlimit="10"/>
<path d="M114.08 79.8296L119.63 76.5996" stroke="white" stroke-width="0.1" stroke-miterlimit="10"/>
<path d="M88.7101 50.5194L80.3701 42.2294L92.9501 34.8994L101.29 43.1894L88.7101 50.5194ZM80.9701 42.3094L88.7701 50.0694L100.7 43.1194L92.9001 35.3594L80.9701 42.3094Z" fill="white"/>
<path d="M86.9277 38.5729L86.6738 38.8281L94.7431 46.8525L94.997 46.5972L86.9277 38.5729Z" fill="white"/>
<path d="M96.8669 38.97L84.6165 46.1113L84.7978 46.4223L97.0482 39.281L96.8669 38.97Z" fill="white"/>
<path d="M91.3901 36.0195L99.4601 44.0395" stroke="white" stroke-width="0.25" stroke-miterlimit="10"/>
<path d="M89.8601 36.9092L97.9301 44.9292" stroke="white" stroke-width="0.25" stroke-miterlimit="10"/>
<path d="M88.3301 37.7998L96.4001 45.8298" stroke="white" stroke-width="0.25" stroke-miterlimit="10"/>
<path d="M85.26 39.5898L93.33 47.6098" stroke="white" stroke-width="0.25" stroke-miterlimit="10"/>
<path d="M83.7302 40.4795L91.8002 48.4995" stroke="white" stroke-width="0.25" stroke-miterlimit="10"/>
<path d="M82.2002 41.3691L90.2702 49.3991" stroke="white" stroke-width="0.25" stroke-miterlimit="10"/>
<path d="M81.6802 43.2699L93.9302 36.1299" stroke="white" stroke-width="0.25" stroke-miterlimit="10"/>
<path d="M82.6902 44.2699L94.9402 37.1299" stroke="white" stroke-width="0.25" stroke-miterlimit="10"/>
<path d="M83.6902 45.2699L95.9502 38.1299" stroke="white" stroke-width="0.25" stroke-miterlimit="10"/>
<path d="M85.7102 47.2796L97.9602 40.1396" stroke="white" stroke-width="0.25" stroke-miterlimit="10"/>
<path d="M86.7202 48.2796L98.9702 41.1396" stroke="white" stroke-width="0.25" stroke-miterlimit="10"/>
<path d="M87.7302 49.2896L99.9802 42.1396" stroke="white" stroke-width="0.25" stroke-miterlimit="10"/>
<path d="M41.2301 25.9895L27.3701 12.2095L48.2901 0.0195312L62.1501 13.7995L41.2301 25.9895V25.9895ZM28.3501 12.3295L41.3201 25.2295L61.1601 13.6695L48.1901 0.769531L28.3501 12.3295V12.3295Z" fill="white"/>
<path d="M38.2671 6.11752L37.844 6.54297L51.2598 19.884L51.6828 19.4586L38.2671 6.11752Z" fill="white"/>
<path d="M54.7986 6.8023L34.4272 18.6777L34.7294 19.1961L55.1007 7.32065L54.7986 6.8023Z" fill="white"/>
<path d="M45.6902 1.87988L59.1102 15.2199" stroke="white" stroke-width="0.25" stroke-miterlimit="10"/>
<path d="M56.5701 16.6994L43.1501 3.35938" stroke="white" stroke-width="0.25" stroke-miterlimit="10"/>
<path d="M40.6001 4.83984L54.0201 18.1898" stroke="white" stroke-width="0.25" stroke-miterlimit="10"/>
<path d="M35.51 7.80957L48.92 21.1596" stroke="white" stroke-width="0.25" stroke-miterlimit="10"/>
<path d="M32.9602 9.2998L46.3802 22.6398" stroke="white" stroke-width="0.25" stroke-miterlimit="10"/>
<path d="M30.4102 10.7793L43.8302 24.1293" stroke="white" stroke-width="0.25" stroke-miterlimit="10"/>
<path d="M29.54 13.9396L49.92 2.05957" stroke="white" stroke-width="0.25" stroke-miterlimit="10"/>
<path d="M31.2202 15.5995L51.6002 3.72949" stroke="white" stroke-width="0.25" stroke-miterlimit="10"/>
<path d="M32.9001 17.2694L53.2701 5.39941" stroke="white" stroke-width="0.25" stroke-miterlimit="10"/>
<path d="M36.25 20.6095L56.63 8.72949" stroke="white" stroke-width="0.25" stroke-miterlimit="10"/>
<path d="M37.9302 22.2694L58.3002 10.3994" stroke="white" stroke-width="0.25" stroke-miterlimit="10"/>
<path d="M39.6101 23.9393L59.9801 12.0693" stroke="white" stroke-width="0.25" stroke-miterlimit="10"/>
<path d="M82.6602 121.289L72.9602 111.649L87.5902 103.119L97.2902 112.759L82.6602 121.289V121.289ZM73.6502 111.739L82.7302 120.769L96.6102 112.679L87.5302 103.649L73.6502 111.739Z" fill="white"/>
<path d="M80.5742 107.391L80.2781 107.688L89.6663 117.024L89.9624 116.727L80.5742 107.391Z" fill="white"/>
<path d="M92.148 107.867L77.8933 116.177L78.1048 116.54L92.3596 108.23L92.148 107.867Z" fill="white"/>
<path d="M85.7703 104.429L95.1603 113.759" stroke="white" stroke-width="0.25" stroke-miterlimit="10"/>
<path d="M83.9902 105.469L93.3802 114.799" stroke="white" stroke-width="0.25" stroke-miterlimit="10"/>
<path d="M82.2102 106.499L91.6002 115.839" stroke="white" stroke-width="0.25" stroke-miterlimit="10"/>
<path d="M78.6501 108.579L88.0301 117.919" stroke="white" stroke-width="0.25" stroke-miterlimit="10"/>
<path d="M76.8701 109.619L86.2501 118.949" stroke="white" stroke-width="0.25" stroke-miterlimit="10"/>
<path d="M75.0901 110.659L84.4701 119.989" stroke="white" stroke-width="0.25" stroke-miterlimit="10"/>
<path d="M74.4802 112.86L88.7302 104.56" stroke="white" stroke-width="0.25" stroke-miterlimit="10"/>
<path d="M75.6501 114.029L89.9001 105.719" stroke="white" stroke-width="0.25" stroke-miterlimit="10"/>
<path d="M76.8203 115.199L91.0803 106.889" stroke="white" stroke-width="0.25" stroke-miterlimit="10"/>
<path d="M79.1702 117.529L93.4202 109.219" stroke="white" stroke-width="0.25" stroke-miterlimit="10"/>
<path d="M80.3401 118.699L94.6001 110.389" stroke="white" stroke-width="0.25" stroke-miterlimit="10"/>
<path d="M81.5203 119.86L95.7703 111.56" stroke="white" stroke-width="0.25" stroke-miterlimit="10"/>
<path d="M184.91 96.0495L176.22 87.4095L189.33 79.7695L198.02 88.4095L184.91 96.0495V96.0495ZM176.84 87.4895L184.97 95.5795L197.41 88.3295L189.28 80.2395L176.84 87.4895Z" fill="white"/>
<path d="M183.052 83.587L182.784 83.8564L191.194 92.2193L191.462 91.9498L183.052 83.587Z" fill="white"/>
<path d="M193.421 84.0006L180.643 91.4492L180.835 91.7775L193.612 84.3289L193.421 84.0006Z" fill="white"/>
<path d="M187.71 80.9297L196.12 89.2897" stroke="white" stroke-width="0.25" stroke-miterlimit="10"/>
<path d="M186.11 81.8594L194.53 90.2194" stroke="white" stroke-width="0.25" stroke-miterlimit="10"/>
<path d="M184.52 82.7891L192.93 91.1591" stroke="white" stroke-width="0.25" stroke-miterlimit="10"/>
<path d="M181.32 84.6494L189.73 93.0194" stroke="white" stroke-width="0.25" stroke-miterlimit="10"/>
<path d="M179.73 85.5791L188.14 93.9491" stroke="white" stroke-width="0.25" stroke-miterlimit="10"/>
<path d="M178.13 86.5098L186.54 94.8798" stroke="white" stroke-width="0.25" stroke-miterlimit="10"/>
<path d="M177.58 88.4891L190.36 81.0391" stroke="white" stroke-width="0.25" stroke-miterlimit="10"/>
<path d="M178.64 89.5298L191.41 82.0898" stroke="white" stroke-width="0.25" stroke-miterlimit="10"/>
<path d="M179.69 90.5799L192.46 83.1299" stroke="white" stroke-width="0.25" stroke-miterlimit="10"/>
<path d="M181.79 92.6695L194.56 85.2295" stroke="white" stroke-width="0.25" stroke-miterlimit="10"/>
<path d="M182.84 93.7195L195.62 86.2695" stroke="white" stroke-width="0.25" stroke-miterlimit="10"/>
<path d="M183.89 94.7593L196.67 87.3193" stroke="white" stroke-width="0.25" stroke-miterlimit="10"/>
</svg>
