<svg width="398" height="272" viewBox="0 0 398 272" fill="none" xmlns="http://www.w3.org/2000/svg">
<g clip-path="url(#clip0_137_11696)">
<path d="M113.36 66.0293L123.96 72.2393L135.98 65.2393L125.38 59.0293L113.36 66.0293Z" fill="white"/>
<path d="M114.8 65.9791L124.05 71.3991L134.53 65.2891L125.29 59.8691L114.8 65.9791Z" fill="#EDEDED"/>
<path d="M113.36 66.0293L113.5 93.5593L124.1 99.7693L123.96 72.2393L113.36 66.0293Z" fill="#CCCCCC"/>
<path d="M123.96 72.2393L124.1 99.7693L136.12 92.7693L135.98 65.2393L123.96 72.2393Z" fill="#F2F2F2"/>
<path d="M125.48 73.3692L125.49 75.0792L127.57 73.8692L127.56 72.1592L125.48 73.3692Z" fill="#A8D3E2"/>
<path d="M127.91 71.959L127.93 73.679L130.01 72.469L130 70.749L127.91 71.959Z" fill="#A8D3E2"/>
<path d="M130.35 70.5596L130.36 72.2696L132.45 71.0596L132.43 69.3496L130.35 70.5596Z" fill="#A8D3E2"/>
<path d="M132.79 69.1495L132.8 70.8695L134.88 69.6595L134.87 67.9395L132.79 69.1495Z" fill="#A8D3E2"/>
<path d="M125.49 76.6895L125.5 78.4095L127.58 77.1995L127.57 75.4795L125.49 76.6895Z" fill="#A8D3E2"/>
<path d="M127.93 75.2891L127.94 76.9991L130.02 75.7891L130.01 74.0791L127.93 75.2891Z" fill="#A8D3E2"/>
<path d="M130.37 73.8789L130.38 75.5989L132.46 74.3889L132.45 72.6689L130.37 73.8789Z" fill="#A8D3E2"/>
<path d="M132.8 72.4795L132.82 74.1895L134.9 72.9795L134.89 71.2695L132.8 72.4795Z" fill="#A8D3E2"/>
<path d="M125.5 80.0196L125.52 81.7296L127.6 80.5196L127.59 78.8096L125.5 80.0196Z" fill="#A8D3E2"/>
<path d="M127.94 78.6094L127.95 80.3294L130.04 79.1194L130.02 77.3994L127.94 78.6094Z" fill="#A8D3E2"/>
<path d="M130.38 77.209L130.39 78.919L132.47 77.709L132.46 75.999L130.38 77.209Z" fill="#A8D3E2"/>
<path d="M132.82 75.8089L132.83 77.5189L134.91 76.3089L134.9 74.5889L132.82 75.8089Z" fill="#A8D3E2"/>
<path d="M125.52 83.3389L125.53 85.0589L127.61 83.8489L127.6 82.1289L125.52 83.3389Z" fill="#A8D3E2"/>
<path d="M127.95 81.9395L127.97 83.6595L130.05 82.4395L130.04 80.7295L127.95 81.9395Z" fill="#A8D3E2"/>
<path d="M130.39 80.5393L130.41 82.2493L132.49 81.0393L132.47 79.3193L130.39 80.5393Z" fill="#A8D3E2"/>
<path d="M132.83 79.129L132.84 80.849L134.93 79.629L134.91 77.9189L132.83 79.129Z" fill="#A8D3E2"/>
<path d="M125.53 86.669L125.54 88.389L127.63 87.169L127.61 85.459L125.53 86.669Z" fill="#A8D3E2"/>
<path d="M127.97 85.2688L127.98 86.9788L130.06 85.7688L130.05 84.0488L127.97 85.2688Z" fill="#A8D3E2"/>
<path d="M130.41 83.8594L130.42 85.5794L132.5 84.3594L132.49 82.6494L130.41 83.8594Z" fill="#A8D3E2"/>
<path d="M132.84 82.4593L132.86 84.1693L134.94 82.9593L134.93 81.2393L132.84 82.4593Z" fill="#A8D3E2"/>
<path d="M125.54 89.9993L125.56 91.7093L127.64 90.4993L127.63 88.7793L125.54 89.9993Z" fill="#A8D3E2"/>
<path d="M127.98 88.5889L127.99 90.3089L130.08 89.0889L130.06 87.3789L127.98 88.5889Z" fill="#A8D3E2"/>
<path d="M130.42 87.1897L130.43 88.8997L132.51 87.6897L132.5 85.9697L130.42 87.1897Z" fill="#A8D3E2"/>
<path d="M132.86 85.7793L132.87 87.4993L134.95 86.2793L134.94 84.5693L132.86 85.7793Z" fill="#A8D3E2"/>
<path d="M134.7 89.6195L128 93.5495L126.95 92.9495L133.65 89.0195L134.7 89.6195Z" fill="white"/>
<path d="M134.19 95.0997L130.79 93.1997L134.19 91.2197V95.0997Z" fill="#8C8C8C"/>
<path d="M128 93.5491L128.01 98.7191L128.54 98.4091L128.53 94.5291L134.18 91.2191L134.19 95.0992L134.71 94.7891L134.7 89.6191L128 93.5491Z" fill="#EDEDED"/>
<path d="M128 93.5492L128.01 98.7192L126.97 98.1192L126.95 92.9492L128 93.5492Z" fill="#CECECE"/>
<path d="M134.19 95.0992L128.54 98.4092L128.53 94.5292L130.79 93.1992L134.19 95.0992Z" fill="#A9A9A9"/>
<path d="M132.83 55.3197L151.52 66.2797L172.71 53.9197L154.02 42.9697L132.83 55.3197Z" fill="white"/>
<path d="M135.38 55.24L151.68 64.79L170.17 54.01L153.86 44.46L135.38 55.24Z" fill="#EDEDED"/>
<path d="M132.83 55.3193L133.09 103.859L151.78 114.819L151.52 66.2793L132.83 55.3193Z" fill="#CCCCCC"/>
<path d="M151.52 66.2799L151.78 114.82L172.97 102.46L172.71 53.9199L151.52 66.2799Z" fill="#F2F2F2"/>
<path d="M154.2 68.2601L154.22 71.2901L157.89 69.1501L157.87 66.1201L154.2 68.2601Z" fill="#A8D3E2"/>
<path d="M158.5 65.7796L158.52 68.8096L162.19 66.6696L162.17 63.6396L158.5 65.7796Z" fill="#A8D3E2"/>
<path d="M162.79 63.3099L162.82 66.3299L166.49 64.1899L166.47 61.1699L162.79 63.3099Z" fill="#A8D3E2"/>
<path d="M167.09 60.8295L167.12 63.8494L170.79 61.7094L170.76 58.6895L167.09 60.8295Z" fill="#A8D3E2"/>
<path d="M154.22 74.1195L154.24 77.1495L157.92 75.0095L157.89 71.9795L154.22 74.1195Z" fill="#A8D3E2"/>
<path d="M158.52 71.6498L158.54 74.6698L162.21 72.5298L162.19 69.5098L158.52 71.6498Z" fill="#A8D3E2"/>
<path d="M162.82 69.1693L162.84 72.1893L166.51 70.0593L166.49 67.0293L162.82 69.1693Z" fill="#A8D3E2"/>
<path d="M167.12 66.6898L167.14 69.7198L170.81 67.5798L170.79 64.5498L167.12 66.6898Z" fill="#A8D3E2"/>
<path d="M154.25 79.9896L154.27 83.0096L157.94 80.8696L157.92 77.8496L154.25 79.9896Z" fill="#A8D3E2"/>
<path d="M158.54 77.5101L158.57 80.5401L162.24 78.4001L162.22 75.3701L158.54 77.5101Z" fill="#A8D3E2"/>
<path d="M162.84 75.0296L162.87 78.0596L166.54 75.9196L166.51 72.8896L162.84 75.0296Z" fill="#A8D3E2"/>
<path d="M167.14 72.5599L167.16 75.5799L170.84 73.4399L170.81 70.4199L167.14 72.5599Z" fill="#A8D3E2"/>
<path d="M154.27 85.85L154.29 88.88L157.96 86.74L157.94 83.71L154.27 85.85Z" fill="#A8D3E2"/>
<path d="M158.57 83.3695L158.59 86.3995L162.26 84.2595L162.24 81.2295L158.57 83.3695Z" fill="#A8D3E2"/>
<path d="M162.87 80.8998L162.89 83.9198L166.56 81.7798L166.54 78.7598L162.87 80.8998Z" fill="#A8D3E2"/>
<path d="M167.17 78.4193L167.19 81.4393L170.86 79.2993L170.84 76.2793L167.17 78.4193Z" fill="#A8D3E2"/>
<path d="M154.29 91.7093L154.32 94.7393L157.99 92.5993L157.97 89.5693L154.29 91.7093Z" fill="#A8D3E2"/>
<path d="M158.59 89.2396L158.61 92.2596L162.29 90.1196L162.26 87.0996L158.59 89.2396Z" fill="#A8D3E2"/>
<path d="M162.89 86.7601L162.91 89.7801L166.58 87.6401L166.56 84.6201L162.89 86.7601Z" fill="#A8D3E2"/>
<path d="M167.19 84.2796L167.21 87.3096L170.88 85.1696L170.86 82.1396L167.19 84.2796Z" fill="#A8D3E2"/>
<path d="M154.32 97.5795L154.34 100.599L158.01 98.4595L157.99 95.4395L154.32 97.5795Z" fill="#A8D3E2"/>
<path d="M158.62 95.1L158.64 98.1199L162.31 95.9799L162.29 92.96L158.62 95.1Z" fill="#A8D3E2"/>
<path d="M162.92 92.6195L162.94 95.6495L166.61 93.5095L166.59 90.4795L162.92 92.6195Z" fill="#A8D3E2"/>
<path d="M167.21 90.1498L167.24 93.1698L170.91 91.0298L170.89 88.0098L167.21 90.1498Z" fill="#A8D3E2"/>
<path d="M170.46 96.9194L158.65 103.849L156.8 102.779L168.61 95.8594L170.46 96.9194Z" fill="white"/>
<path d="M169.57 106.579L163.57 103.229L169.57 99.7295V106.579Z" fill="#8C8C8C"/>
<path d="M158.65 103.849L158.67 112.959L159.6 112.419L159.58 105.569L169.55 99.7289L169.57 106.579L170.49 106.039L170.46 96.9189L158.65 103.849Z" fill="#EDEDED"/>
<path d="M158.65 103.849L158.67 112.959L156.83 111.899L156.8 102.779L158.65 103.849Z" fill="#CECECE"/>
<path d="M169.57 106.579L159.6 112.419L159.58 105.57L163.57 103.229L169.57 106.579Z" fill="#A9A9A9"/>
<path d="M114.54 44.54L92.66 57.6L67.61 43.28L89.49 30.21L114.54 44.54Z" fill="#FDFDFD"/>
<path d="M114.54 44.54L114.7 101.64L92.82 114.7L92.66 57.6L114.54 44.54Z" fill="#BFBFBF"/>
<path d="M92.66 57.6003L92.82 114.7L67.77 100.38L67.61 43.2803L92.66 57.6003Z" fill="#DDDDDD"/>
<path d="M89.53 59.9605V62.5205L85.19 60.0405V57.4805L89.53 59.9605Z" fill="#A9A9A9"/>
<path d="M84.45 57.0903L84.44 59.6504L80.11 57.1703V54.6104L84.45 57.0903Z" fill="#A9A9A9"/>
<path d="M79.37 54.2202L79.36 56.7802L75.02 54.3002L75.03 51.7402L79.37 54.2202Z" fill="#A9A9A9"/>
<path d="M74.29 51.3501L74.28 53.9101L69.94 51.4201L69.95 48.8701L74.29 51.3501Z" fill="#A9A9A9"/>
<path d="M89.55 64.8201L89.54 67.3801L85.21 64.8901V62.3301L89.55 64.8201Z" fill="#A9A9A9"/>
<path d="M84.47 61.94L84.46 64.5L80.12 62.02L80.13 59.46L84.47 61.94Z" fill="#A9A9A9"/>
<path d="M79.39 59.0698L79.38 61.6298L75.04 59.1498L75.05 56.5898L79.39 59.0698Z" fill="#A9A9A9"/>
<path d="M74.31 56.1997L74.3 58.7597L69.96 56.2797L69.97 53.7197L74.31 56.1997Z" fill="#A9A9A9"/>
<path d="M89.57 69.6704L89.56 72.2304L85.23 69.7504V67.1904L89.57 69.6704Z" fill="#A9A9A9"/>
<path d="M84.49 66.8003L84.48 69.3603L80.14 66.8703L80.15 64.3203L84.49 66.8003Z" fill="#A9A9A9"/>
<path d="M79.41 63.9304L79.4 66.4804L75.06 64.0004L75.07 61.4404L79.41 63.9304Z" fill="#A9A9A9"/>
<path d="M74.33 61.0503L74.32 63.6103L69.98 61.1303L69.99 58.5703L74.33 61.0503Z" fill="#A9A9A9"/>
<path d="M89.58 74.1304V76.6904L85.24 74.2104V71.6504L89.58 74.1304Z" fill="#A9A9A9"/>
<path d="M84.5 71.2603V73.8203L80.16 71.3403V68.7803L84.5 71.2603Z" fill="#A9A9A9"/>
<path d="M79.42 68.3902V70.9501L75.08 68.4602V65.9102L79.42 68.3902Z" fill="#A9A9A9"/>
<path d="M74.34 65.5203V68.0703L70 65.5903V63.0303L74.34 65.5203Z" fill="#A9A9A9"/>
<path d="M89.6 78.98V81.54L85.26 79.06V76.5L89.6 78.98Z" fill="#A9A9A9"/>
<path d="M84.52 76.1099V78.6699L80.18 76.1899V73.6299L84.52 76.1099Z" fill="#A9A9A9"/>
<path d="M79.44 73.2398V75.7998L75.1 73.3198V70.7598L79.44 73.2398Z" fill="#A9A9A9"/>
<path d="M74.36 70.3697V72.9296L70.02 70.4496V67.8896L74.36 70.3697Z" fill="#A9A9A9"/>
<path d="M89.62 83.8403V86.4003L85.28 83.9203V81.3604L89.62 83.8403Z" fill="#A9A9A9"/>
<path d="M84.54 80.9705V83.5205L80.2 81.0405V78.4805L84.54 80.9705Z" fill="#A9A9A9"/>
<path d="M79.46 78.0903V80.6503L75.12 78.1703V75.6104L79.46 78.0903Z" fill="#A9A9A9"/>
<path d="M74.38 75.2202V77.7802L70.04 75.3002V72.7402L74.38 75.2202Z" fill="#A9A9A9"/>
<path d="M89.64 88.3003V90.8603L85.3 88.3803V85.8203L89.64 88.3003Z" fill="#A9A9A9"/>
<path d="M84.56 85.4302V87.9902L80.22 85.5102V82.9502L84.56 85.4302Z" fill="#A9A9A9"/>
<path d="M79.48 82.5603V85.1103L75.14 82.6303V80.0703L79.48 82.5603Z" fill="#A9A9A9"/>
<path d="M74.4 79.6802V82.2402L70.06 79.7602V77.2002L74.4 79.6802Z" fill="#A9A9A9"/>
<path d="M89.66 93.1499V95.7099L85.32 93.2299V90.6699L89.66 93.1499Z" fill="#A9A9A9"/>
<path d="M84.58 90.2798V92.8398L80.24 90.3598V87.7998L84.58 90.2798Z" fill="#A9A9A9"/>
<path d="M79.5 87.4097V89.9697L75.16 87.4897V84.9297L79.5 87.4097Z" fill="#A9A9A9"/>
<path d="M74.42 84.5398V87.0998L70.08 84.6098V82.0498L74.42 84.5398Z" fill="#A9A9A9"/>
<path d="M96.84 59.9299L96.86 62.4899L101.18 59.9799L101.16 57.4199L96.84 59.9299Z" fill="#8C8C8C"/>
<path d="M101.9 57.02L101.92 59.58L106.24 57.06L106.21 54.5L101.9 57.02Z" fill="#8C8C8C"/>
<path d="M106.95 54.1098L106.97 56.6698L111.29 54.1498L111.27 51.5898L106.95 54.1098Z" fill="#8C8C8C"/>
<path d="M96.86 64.7895L96.88 67.3495L101.2 64.8295L101.18 62.2695L96.86 64.7895Z" fill="#8C8C8C"/>
<path d="M101.92 61.8704L101.94 64.4304L106.26 61.9104L106.23 59.3604L101.92 61.8704Z" fill="#8C8C8C"/>
<path d="M106.97 58.9604L106.99 61.5204L111.31 59.0004L111.29 56.4404L106.97 58.9604Z" fill="#8C8C8C"/>
<path d="M96.88 69.6401L96.9 72.2001L101.22 69.6801L101.2 67.1201L96.88 69.6401Z" fill="#8C8C8C"/>
<path d="M101.94 66.73L101.96 69.29L106.28 66.77L106.25 64.21L101.94 66.73Z" fill="#8C8C8C"/>
<path d="M106.99 63.81L107.01 66.37L111.33 63.85L111.31 61.29L106.99 63.81Z" fill="#8C8C8C"/>
<path d="M96.9 74.1001L96.92 76.6601L101.24 74.1401L101.22 71.5801L96.9 74.1001Z" fill="#8C8C8C"/>
<path d="M101.95 71.1899L101.98 73.7499L106.3 71.2299L106.27 68.6699L101.95 71.1899Z" fill="#8C8C8C"/>
<path d="M107.01 68.2698L107.03 70.8298L111.35 68.3198L111.33 65.7598L107.01 68.2698Z" fill="#8C8C8C"/>
<path d="M96.92 78.9504L96.94 81.5104L101.26 79.0004L101.24 76.4404L96.92 78.9504Z" fill="#8C8C8C"/>
<path d="M101.97 76.0395L102 78.5995L106.32 76.0795L106.29 73.5195L101.97 76.0395Z" fill="#8C8C8C"/>
<path d="M107.03 73.1303L107.05 75.6904L111.37 73.1703L111.35 70.6104L107.03 73.1303Z" fill="#8C8C8C"/>
<path d="M96.94 83.81L96.96 86.37L101.28 83.8501L101.26 81.29L96.94 83.81Z" fill="#8C8C8C"/>
<path d="M101.99 80.8899L102.02 83.4499L106.33 80.9399L106.31 78.3799L101.99 80.8899Z" fill="#8C8C8C"/>
<path d="M107.05 77.98L107.07 80.54L111.39 78.02L111.37 75.46L107.05 77.98Z" fill="#8C8C8C"/>
<path d="M96.96 88.27L96.98 90.83L101.3 88.31L101.27 85.75L96.96 88.27Z" fill="#8C8C8C"/>
<path d="M102.01 85.3598L102.03 87.9198L106.35 85.3998L106.33 82.8398L102.01 85.3598Z" fill="#8C8C8C"/>
<path d="M107.07 82.4399L107.09 84.9999L111.41 82.4799L111.39 79.9199L107.07 82.4399Z" fill="#8C8C8C"/>
<path d="M96.98 93.1203L97 95.6803L101.32 93.1604L101.29 90.6104L96.98 93.1203Z" fill="#8C8C8C"/>
<path d="M102.03 90.2104L102.05 92.7704L106.37 90.2504L106.35 87.6904L102.03 90.2104Z" fill="#8C8C8C"/>
<path d="M107.09 87.3003L107.11 89.8503L111.43 87.3403L111.41 84.7803L107.09 87.3003Z" fill="#8C8C8C"/>
<path d="M144.7 94.1304L121.49 107.99L94.92 92.8004L118.13 78.9404L144.7 94.1304Z" fill="#FDFDFD"/>
<path d="M140.86 93.8101L121.6 105.27L98.9 92.3301L118.16 80.8701L140.86 93.8101Z" fill="#BFBFBF"/>
<path d="M144.7 94.1309L144.72 117.391L121.51 131.251L121.49 107.991L144.7 94.1309Z" fill="#DDDDDD"/>
<path d="M121.49 107.991L121.51 131.251L94.94 116.051L94.92 92.8008L121.49 107.991Z" fill="#EDEDED"/>
<path d="M101.12 93.5901L98.9 92.3301L118.17 80.8701L118.11 83.3901L101.12 93.5901Z" fill="#DDDDDD"/>
<path d="M118.11 83.3901L118.17 80.8701L140.9 93.8101L138.67 95.1001L118.11 83.3901Z" fill="#DDDDDD"/>
<path d="M119.11 110.74V113.7L114.09 110.83V107.87L119.11 110.74Z" fill="#BFBFBF"/>
<path d="M113.23 107.421V110.381L108.21 107.511V104.551L113.23 107.421Z" fill="#BFBFBF"/>
<path d="M107.36 104.1L107.35 107.06L102.34 104.19V101.23L107.36 104.1Z" fill="#BFBFBF"/>
<path d="M101.48 100.77V103.73L96.46 100.86V97.9004L101.48 100.77Z" fill="#BFBFBF"/>
<path d="M119.13 116.35V119.31L114.11 116.44V113.48L119.13 116.35Z" fill="#BFBFBF"/>
<path d="M113.25 113.03V115.99L108.23 113.12L108.24 110.16L113.25 113.03Z" fill="#BFBFBF"/>
<path d="M107.38 109.711V112.671L102.36 109.801V106.841L107.38 109.711Z" fill="#BFBFBF"/>
<path d="M101.5 106.391V109.351L96.48 106.48V103.521L101.5 106.391Z" fill="#BFBFBF"/>
<path d="M119.15 121.961V124.921L114.13 122.051V119.091L119.15 121.961Z" fill="#BFBFBF"/>
<path d="M113.28 118.641V121.601L108.26 118.73V115.771L113.28 118.641Z" fill="#BFBFBF"/>
<path d="M107.4 115.32V118.28L102.38 115.41V112.45L107.4 115.32Z" fill="#BFBFBF"/>
<path d="M101.53 112.001V114.961L96.51 112.091V109.131L101.53 112.001Z" fill="#BFBFBF"/>
<path d="M122.09 76.4796L113.06 81.6896L108.39 79.0296L117.42 73.8096L122.09 76.4796Z" fill="#FDFDFD"/>
<path d="M122.09 76.4795L122.14 92.3895L113.11 97.6095L113.06 81.6895L122.09 76.4795Z" fill="#DDDDDD"/>
<path d="M113.06 81.6893L113.11 97.6093L108.44 94.9393L108.39 79.0293L113.06 81.6893Z" fill="#EDEDED"/>
<path d="M129.31 89.1102L120.28 94.3302L113.91 90.6702L122.94 85.4502L129.31 89.1102Z" fill="#FDFDFD"/>
<path d="M129.31 89.1104L129.33 96.5004L120.3 101.72L120.28 94.3304L129.31 89.1104Z" fill="#DDDDDD"/>
<path d="M120.28 94.3299L120.3 101.72L113.93 98.0599L113.91 90.6699L120.28 94.3299Z" fill="#EDEDED"/>
<path d="M125.42 94.1597L126.83 94.9697C127.36 95.2697 127.68 95.8297 127.69 96.4397V100.09C127.71 100.26 127.56 100.41 127.39 100.41C127.22 100.41 127.07 100.27 127.07 100.1V96.4497C127.05 96.0697 126.85 95.7197 126.52 95.5297L125.11 94.7197C124.96 94.6297 124.91 94.4397 124.99 94.2897C125.08 94.1397 125.27 94.0897 125.42 94.1697V94.1597Z" fill="#8C8C8C"/>
<path d="M123.26 95.1997L124.67 96.0097C125.2 96.3097 125.52 96.8697 125.53 97.4797V101.13C125.55 101.3 125.4 101.45 125.23 101.45C125.06 101.45 124.91 101.31 124.91 101.14V97.4897C124.89 97.1097 124.69 96.7597 124.36 96.5697L122.95 95.7597C122.8 95.6697 122.75 95.4797 122.83 95.3297C122.92 95.1797 123.11 95.1297 123.26 95.2097V95.1997Z" fill="#8C8C8C"/>
<path d="M112.04 44.65L92.78 56.11L70.07 43.17L89.33 31.71L112.04 44.65Z" fill="#DDDDDD"/>
<path d="M71.53 43.99L70.07 43.17L89.33 31.71L89.29 33.32L71.53 43.99Z" fill="#EDEDED"/>
<path d="M89.29 33.32L89.33 31.71L112.04 44.65L110.64 45.48L89.29 33.32Z" fill="#EDEDED"/>
<path d="M7 17.6197L42.03 38.1497L81.75 14.9997L46.72 -5.53027L7 17.6197Z" fill="white"/>
<path d="M11.78 17.4498L42.33 35.3598L76.97 15.1698L46.42 -2.74023L11.78 17.4498Z" fill="#EDEDED"/>
<path d="M7 17.6201L7.48 108.59L42.51 129.12L42.03 38.1501L7 17.6201Z" fill="#CCCCCC"/>
<path d="M42.03 38.15L42.51 129.12L82.23 105.97L81.75 15L42.03 38.15Z" fill="#F2F2F2"/>
<path d="M47.05 41.8694L47.09 47.5394L53.97 43.5294L53.93 37.8594L47.05 41.8694Z" fill="#A8D3E2"/>
<path d="M55.1 37.2297L55.14 42.8897L62.03 38.8797L61.98 33.2197L55.1 37.2297Z" fill="#A8D3E2"/>
<path d="M63.16 32.5793L63.2 38.2493L70.08 34.2393L70.04 28.5693L63.16 32.5793Z" fill="#A8D3E2"/>
<path d="M71.21 27.9397L71.26 33.6097L78.14 29.5997L78.1 23.9297L71.21 27.9397Z" fill="#A8D3E2"/>
<path d="M47.09 52.8596L47.13 58.5296L54.01 54.5096L53.97 48.8496L47.09 52.8596Z" fill="#A8D3E2"/>
<path d="M55.15 48.2202L55.19 53.8802L62.07 49.8702L62.03 44.2002L55.15 48.2202Z" fill="#A8D3E2"/>
<path d="M63.2 43.5696L63.25 49.2396L70.13 45.2296L70.08 39.5596L63.2 43.5696Z" fill="#A8D3E2"/>
<path d="M71.26 38.9299L71.3 44.5999L78.18 40.5899L78.14 34.9199L71.26 38.9299Z" fill="#A8D3E2"/>
<path d="M47.14 63.8498L47.18 69.5098L54.06 65.4998L54.02 59.8398L47.14 63.8498Z" fill="#A8D3E2"/>
<path d="M55.19 59.1994L55.23 64.8695L62.12 60.8595L62.07 55.1895L55.19 59.1994Z" fill="#A8D3E2"/>
<path d="M63.25 54.5598L63.29 60.2298L70.17 56.2198L70.13 50.5498L63.25 54.5598Z" fill="#A8D3E2"/>
<path d="M71.3 49.9202L71.35 55.5901L78.23 51.5802L78.19 45.9102L71.3 49.9202Z" fill="#A8D3E2"/>
<path d="M47.18 74.8393L47.22 80.4993L54.1 76.4893L54.06 70.8193L47.18 74.8393Z" fill="#A8D3E2"/>
<path d="M55.24 70.1897L55.28 75.8597L62.16 71.8497L62.12 66.1797L55.24 70.1897Z" fill="#A8D3E2"/>
<path d="M63.29 65.55L63.34 71.22L70.22 67.21L70.18 61.54L63.29 65.55Z" fill="#A8D3E2"/>
<path d="M71.35 60.9094L71.39 66.5794L78.27 62.5694L78.23 56.8994L71.35 60.9094Z" fill="#A8D3E2"/>
<path d="M47.23 85.8196L47.27 91.4896L54.15 87.4796L54.11 81.8096L47.23 85.8196Z" fill="#A8D3E2"/>
<path d="M55.28 81.1799L55.32 86.8499L62.21 82.8399L62.16 77.1699L55.28 81.1799Z" fill="#A8D3E2"/>
<path d="M63.34 76.5393L63.38 82.2093L70.26 78.1993L70.22 72.5293L63.34 76.5393Z" fill="#A8D3E2"/>
<path d="M71.39 71.8997L71.44 77.5696L78.32 73.5497L78.28 67.8896L71.39 71.8997Z" fill="#A8D3E2"/>
<path d="M47.27 96.8098L47.31 102.48L54.19 98.4698L54.15 92.7998L47.27 96.8098Z" fill="#A8D3E2"/>
<path d="M55.33 92.1702L55.37 97.8401L62.25 93.8302L62.21 88.1602L55.33 92.1702Z" fill="#A8D3E2"/>
<path d="M63.38 87.5295L63.43 93.1995L70.31 89.1895L70.27 83.5195L63.38 87.5295Z" fill="#A8D3E2"/>
<path d="M71.44 82.8899L71.48 88.5499L78.36 84.5399L78.32 78.8799L71.44 82.8899Z" fill="#A8D3E2"/>
<path d="M77.53 95.5898L55.39 108.56L51.93 106.57L74.07 93.5898L77.53 95.5898Z" fill="white"/>
<path d="M75.85 113.68L64.62 107.41L75.86 100.85L75.85 113.68Z" fill="#8C8C8C"/>
<path d="M55.39 108.56L55.44 125.65L57.17 124.63L57.13 111.8L75.81 100.85L75.85 113.68L77.57 112.67L77.53 95.5801L55.39 108.56Z" fill="#EDEDED"/>
<path d="M55.39 108.56L55.44 125.65L51.98 123.65L51.93 106.57L55.39 108.56Z" fill="#CECECE"/>
<path d="M75.85 113.68L57.17 124.63L57.13 111.8L64.62 107.41L75.85 113.68Z" fill="#A9A9A9"/>
<path d="M57.31 114.98L83.26 130.18L112.68 113.03L86.74 97.8301L57.31 114.98Z" fill="#FDFDFD"/>
<path d="M61.58 114.58L83.11 127.16L108.25 112.55L86.72 99.9697L61.58 114.58Z" fill="#EDEDED"/>
<path d="M57.31 114.98L57.5 140.85L83.45 156.05L83.26 130.18L57.31 114.98Z" fill="#CCCCCC"/>
<path d="M83.26 130.18L83.45 156.05L112.87 138.91L112.68 113.03L83.26 130.18Z" fill="#F2F2F2"/>
<path d="M105.79 113.98L108.25 112.55L86.71 99.9697L86.8 102.78L105.79 113.98Z" fill="#DDDDDD"/>
<path d="M86.8 102.78L86.71 99.9697L61.54 114.58L64.03 115.99L86.8 102.78Z" fill="#DDDDDD"/>
<path d="M85.94 133.22L85.97 136.51L91.52 133.27L91.49 129.98L85.94 133.22Z" fill="#A8D3E2"/>
<path d="M92.44 129.47L92.47 132.76L98.03 129.52L98 126.23L92.44 129.47Z" fill="#A8D3E2"/>
<path d="M98.95 125.72L98.98 129.01L104.54 125.77L104.51 122.48L98.95 125.72Z" fill="#A8D3E2"/>
<path d="M105.46 121.97L105.49 125.26L111.04 122.02L111.01 118.73L105.46 121.97Z" fill="#A8D3E2"/>
<path d="M85.96 139.461L85.99 142.751L91.55 139.511L91.52 136.221L85.96 139.461Z" fill="#A8D3E2"/>
<path d="M92.47 135.711L92.5 139.001L98.06 135.771L98.03 132.471L92.47 135.711Z" fill="#A8D3E2"/>
<path d="M98.98 131.961L99 135.261L104.56 132.021L104.53 128.721L98.98 131.961Z" fill="#A8D3E2"/>
<path d="M105.48 128.211L105.51 131.511L111.07 128.271L111.04 124.971L105.48 128.211Z" fill="#A8D3E2"/>
<path d="M85.99 145.711L86.02 149.001L91.57 145.761L91.55 142.471L85.99 145.711Z" fill="#A8D3E2"/>
<path d="M92.49 141.961L92.52 145.251L98.08 142.011L98.05 138.721L92.49 141.961Z" fill="#A8D3E2"/>
<path d="M99 138.211L99.03 141.501L104.59 138.261L104.56 134.971L99 138.211Z" fill="#A8D3E2"/>
<path d="M105.51 134.461L105.54 137.751L111.09 134.511L111.07 131.221L105.51 134.461Z" fill="#A8D3E2"/>
<path d="M158.06 94.9999L182.3 109.2L216.13 89.6199L191.89 75.4199L158.06 94.9999Z" fill="white"/>
<path d="M161.28 94.8898L182.51 107.33L212.92 89.7398L191.69 77.2998L161.28 94.8898Z" fill="#EDEDED"/>
<path d="M158.06 95L158.25 121.5L182.49 135.7L182.3 109.2L158.06 95Z" fill="#CCCCCC"/>
<path d="M182.3 109.2L182.49 135.7L216.31 116.12L216.13 89.6201L182.3 109.2Z" fill="#F2F2F2"/>
<path d="M207.09 98.1302L207.11 100.56L213.47 96.8802L213.44 94.4502L207.09 98.1302Z" fill="#A8D3E2"/>
<path d="M199.77 102.28L199.79 104.7L206.15 101.03L206.12 98.5996L199.77 102.28Z" fill="#A8D3E2"/>
<path d="M192.44 106.42L192.47 108.85L198.83 105.17L198.8 102.74L192.44 106.42Z" fill="#A8D3E2"/>
<path d="M185.12 110.56L185.15 112.99L191.5 109.31L191.48 106.88L185.12 110.56Z" fill="#A8D3E2"/>
<path d="M207.11 102.57L207.13 105L213.49 101.32L213.46 98.8896L207.11 102.57Z" fill="#A8D3E2"/>
<path d="M199.78 106.71L199.81 109.14L206.17 105.46L206.14 103.03L199.78 106.71Z" fill="#A8D3E2"/>
<path d="M192.46 110.86L192.49 113.28L198.84 109.6L198.82 107.18L192.46 110.86Z" fill="#A8D3E2"/>
<path d="M185.14 115L185.17 117.43L191.52 113.75L191.5 111.32L185.14 115Z" fill="#A8D3E2"/>
<path d="M207.12 107.01L207.15 109.44L213.5 105.76L213.48 103.33L207.12 107.01Z" fill="#A8D3E2"/>
<path d="M199.8 111.15L199.83 113.58L206.18 109.9L206.16 107.47L199.8 111.15Z" fill="#A8D3E2"/>
<path d="M192.48 115.29L192.5 117.72L198.86 114.04L198.84 111.61L192.48 115.29Z" fill="#A8D3E2"/>
<path d="M185.16 119.43L185.18 121.86L191.54 118.18L191.52 115.76L185.16 119.43Z" fill="#A8D3E2"/>
<path d="M207.14 111.44L207.17 113.87L213.52 110.19L213.5 107.76L207.14 111.44Z" fill="#A8D3E2"/>
<path d="M199.82 115.59L199.84 118.02L206.2 114.34L206.18 111.91L199.82 115.59Z" fill="#A8D3E2"/>
<path d="M192.5 119.73L192.52 122.16L198.88 118.48L198.86 116.05L192.5 119.73Z" fill="#A8D3E2"/>
<path d="M185.18 123.869L185.2 126.299L191.56 122.619L191.54 120.189L185.18 123.869Z" fill="#A8D3E2"/>
<path d="M165.67 102.91V105.34L159.28 101.72L159.29 99.29L165.67 102.91Z" fill="#85BCCA"/>
<path d="M173.03 107V109.43L166.64 105.8V103.37L173.03 107Z" fill="#85BCCA"/>
<path d="M180.38 111.08V113.51L173.99 109.88L174 107.45L180.38 111.08Z" fill="#85BCCA"/>
<path d="M165.69 107.35V109.78L159.3 106.15L159.31 103.72L165.69 107.35Z" fill="#85BCCA"/>
<path d="M173.05 111.43L173.04 113.86L166.66 110.24V107.81L173.05 111.43Z" fill="#85BCCA"/>
<path d="M180.4 115.52V117.94L174.01 114.32L174.02 111.89L180.4 115.52Z" fill="#85BCCA"/>
<path d="M165.71 111.79V114.22L159.32 110.59V108.16L165.71 111.79Z" fill="#85BCCA"/>
<path d="M173.07 115.87L173.06 118.3L166.67 114.67L166.68 112.24L173.07 115.87Z" fill="#85BCCA"/>
<path d="M180.42 119.95V122.38L174.03 118.75V116.33L180.42 119.95Z" fill="#85BCCA"/>
<path d="M165.73 116.22V118.65L159.34 115.03V112.6L165.73 116.22Z" fill="#85BCCA"/>
<path d="M173.08 120.31V122.74L166.69 119.11L166.7 116.68L173.08 120.31Z" fill="#85BCCA"/>
<path d="M180.44 124.39V126.82L174.05 123.19V120.76L180.44 124.39Z" fill="#85BCCA"/>
<path d="M189.12 87.3502L194.81 90.6802L202.58 86.0702L196.9 82.7402L189.12 87.3502Z" fill="white"/>
<path d="M189.12 87.3506L189.15 88.0906L194.83 91.4206L194.81 90.6806L189.12 87.3506Z" fill="#CCCCCC"/>
<path d="M194.81 90.6803L194.83 91.4203L202.6 86.8203L202.58 86.0703L194.81 90.6803Z" fill="#DBDBDB"/>
<path d="M192.3 86.7204L195.16 88.3904L199.07 86.0804L196.22 84.4004L192.3 86.7204Z" fill="#EDEDED"/>
<path d="M192.3 86.7207L192.31 87.3307L195.17 89.0107L195.16 88.3907L192.3 86.7207Z" fill="#CCCCCC"/>
<path d="M195.16 88.3901L195.17 89.0101L199.09 86.6901L199.07 86.0801L195.16 88.3901Z" fill="#DBDBDB"/>
<path d="M187.74 97.3306C189.7 98.4506 189.72 100.281 187.78 101.421C185.84 102.561 182.68 102.571 180.72 101.451C178.76 100.331 178.74 98.5006 180.68 97.3606C182.62 96.2206 185.78 96.2106 187.73 97.3306H187.74Z" fill="#DBDBDB"/>
<path d="M189.31 97.6801C189.31 97.6801 189.31 97.7201 189.31 97.7401C189.31 97.7601 189.31 97.7801 189.31 97.7901C189.31 97.8101 189.31 97.8301 189.31 97.8501C189.31 97.8701 189.31 97.8901 189.3 97.9001C189.3 97.9201 189.3 97.9401 189.29 97.9601C189.29 97.9801 189.28 98.0001 189.27 98.0101C189.27 98.0301 189.26 98.0501 189.25 98.0701C189.25 98.0901 189.24 98.1101 189.23 98.1201C189.23 98.1401 189.21 98.1601 189.2 98.1801L189.18 98.2301C189.18 98.2301 189.16 98.2701 189.15 98.2901C189.15 98.3101 189.13 98.3201 189.12 98.3401C189.11 98.3601 189.09 98.3901 189.08 98.4101C189.08 98.4201 189.06 98.4401 189.05 98.4501C189.03 98.4801 189.01 98.5001 188.99 98.5301L188.96 98.5601C188.96 98.5601 188.89 98.6401 188.85 98.6801L188.82 98.7101C188.82 98.7101 188.76 98.7701 188.73 98.8001L188.69 98.8401C188.69 98.8401 188.65 98.8701 188.63 98.8901C188.61 98.9101 188.59 98.9201 188.57 98.9401C188.55 98.9601 188.53 98.9701 188.51 98.9901C188.49 99.0101 188.47 99.0201 188.45 99.0401C188.43 99.0601 188.4 99.0701 188.38 99.0901C188.36 99.1001 188.34 99.1201 188.32 99.1301C188.3 99.1501 188.27 99.1601 188.25 99.1801C188.22 99.2001 188.19 99.2201 188.16 99.2401C188.07 99.2901 187.98 99.3401 187.89 99.3901C187.87 99.4001 187.84 99.4101 187.82 99.4301C187.73 99.4701 187.65 99.5101 187.56 99.5401H187.53C187.43 99.5901 187.34 99.6201 187.24 99.6601C187.17 99.6801 187.1 99.7001 187.03 99.7201C186.98 99.7301 186.92 99.7501 186.87 99.7601C186.8 99.7801 186.72 99.7901 186.65 99.8101C186.59 99.8201 186.54 99.8301 186.48 99.8401C186.46 99.8401 186.43 99.8401 186.41 99.8501C186.32 99.8701 186.22 99.8801 186.13 99.8901C186.1 99.8901 186.08 99.8901 186.05 99.9001C186 99.9001 185.94 99.9001 185.89 99.9101C185.8 99.9101 185.71 99.9301 185.61 99.9301C185.55 99.9301 185.49 99.9301 185.43 99.9301C185.36 99.9301 185.28 99.9301 185.21 99.9301C185.15 99.9301 185.09 99.9301 185.02 99.9301C184.95 99.9301 184.88 99.9301 184.81 99.9201C184.75 99.9201 184.68 99.9201 184.62 99.9001C184.55 99.9001 184.48 99.8901 184.42 99.8801C184.36 99.8801 184.3 99.8601 184.24 99.8501C184.17 99.8401 184.1 99.8301 184.02 99.8101C183.96 99.8001 183.91 99.7901 183.85 99.7801C183.76 99.7601 183.68 99.7401 183.6 99.7201C183.55 99.7101 183.49 99.6901 183.44 99.6801C183.41 99.6801 183.38 99.6601 183.35 99.6501C183.27 99.6201 183.18 99.6001 183.1 99.5701C183.08 99.5701 183.05 99.5501 183.03 99.5401C182.96 99.5101 182.88 99.4801 182.81 99.4501C182.78 99.4301 182.74 99.4201 182.7 99.4001C182.6 99.3501 182.5 99.3001 182.4 99.2501C181.8 98.9001 181.42 98.4801 181.27 98.0301C181.24 97.9601 181.23 97.8801 181.21 97.8001C181.21 97.7601 181.2 97.7201 181.2 97.6901C181.2 97.6601 181.2 97.6101 181.2 97.5801L181.17 98.8301C181.17 99.4401 181.57 100.04 182.38 100.51C182.48 100.57 182.58 100.62 182.68 100.66C182.71 100.68 182.75 100.69 182.79 100.71C182.85 100.74 182.91 100.76 182.97 100.79H183C183 100.79 183.05 100.82 183.07 100.83C183.15 100.86 183.23 100.89 183.32 100.91C183.35 100.91 183.38 100.93 183.41 100.94C183.43 100.94 183.45 100.95 183.47 100.96C183.5 100.96 183.54 100.98 183.57 100.99C183.65 101.01 183.74 101.03 183.82 101.05C183.84 101.05 183.86 101.06 183.89 101.07C183.92 101.07 183.96 101.08 183.99 101.09C184.06 101.1 184.13 101.12 184.21 101.13C184.24 101.13 184.27 101.14 184.3 101.14C184.33 101.14 184.36 101.14 184.4 101.15C184.47 101.15 184.54 101.17 184.6 101.17C184.63 101.17 184.66 101.17 184.7 101.18C184.73 101.18 184.76 101.18 184.79 101.18C184.86 101.18 184.93 101.18 185 101.19C185.03 101.19 185.07 101.19 185.1 101.19C185.13 101.19 185.16 101.19 185.18 101.19C185.25 101.19 185.33 101.19 185.4 101.19C185.44 101.19 185.47 101.19 185.51 101.19C185.53 101.19 185.55 101.19 185.58 101.19C185.67 101.19 185.76 101.18 185.86 101.17C185.9 101.17 185.93 101.17 185.97 101.17H186.02C186.02 101.17 186.07 101.16 186.1 101.15C186.19 101.14 186.29 101.12 186.38 101.11C186.4 101.11 186.43 101.11 186.45 101.1H186.48C186.48 101.1 186.57 101.08 186.61 101.07C186.69 101.05 186.76 101.04 186.83 101.02C186.88 101.01 186.94 100.99 186.99 100.98C187.06 100.96 187.13 100.94 187.2 100.92C187.21 100.92 187.23 100.92 187.25 100.91C187.33 100.88 187.42 100.85 187.5 100.82H187.53C187.62 100.77 187.71 100.73 187.79 100.69C187.82 100.68 187.84 100.67 187.86 100.65C187.95 100.6 188.05 100.56 188.13 100.5L188.18 100.47C188.18 100.47 188.21 100.45 188.22 100.44C188.25 100.42 188.27 100.41 188.29 100.39C188.31 100.38 188.33 100.36 188.35 100.35C188.37 100.33 188.4 100.32 188.42 100.3C188.44 100.28 188.46 100.27 188.48 100.25C188.5 100.23 188.52 100.22 188.54 100.2C188.56 100.18 188.58 100.17 188.6 100.15C188.62 100.13 188.64 100.12 188.66 100.1L188.68 100.08L188.7 100.06C188.7 100.06 188.76 100 188.79 99.9701L188.82 99.9401C188.82 99.9401 188.89 99.8601 188.93 99.8201L188.95 99.7901C188.95 99.7901 188.99 99.7401 189.01 99.7101C189.01 99.7001 189.03 99.6801 189.04 99.6701C189.06 99.6501 189.07 99.6201 189.08 99.6001V99.5801L189.11 99.5501C189.11 99.5501 189.13 99.5101 189.14 99.4901L189.16 99.4401C189.16 99.4401 189.18 99.4001 189.19 99.3801V99.3501L189.21 99.3201C189.21 99.3201 189.22 99.2801 189.23 99.2601C189.23 99.2401 189.24 99.2201 189.25 99.2101C189.25 99.1901 189.25 99.1701 189.26 99.1501V99.1001C189.26 99.1001 189.28 99.0601 189.28 99.0401C189.28 99.0201 189.28 99.0001 189.28 98.9901C189.28 98.9701 189.28 98.9501 189.28 98.9301V98.8901C189.28 98.8901 189.28 98.8701 189.28 98.8501L189.31 97.6001C189.31 97.6001 189.31 97.6501 189.31 97.6701V97.6801Z" fill="#EDEDED"/>
<path d="M188.1 95.9299C189.7 96.8499 189.72 98.3399 188.13 99.2699C186.55 100.2 183.97 100.21 182.37 99.2899C180.77 98.3699 180.76 96.8799 182.34 95.9499C183.92 95.0199 186.5 95.0099 188.1 95.9299Z" fill="white"/>
<path d="M188.83 96.9799C188.78 97.4099 188.53 97.8099 188.2 98.0999C187.85 98.3999 187.42 98.5999 186.98 98.7299C185.84 99.0899 184.59 99.0799 183.45 98.7299C183.02 98.5899 182.59 98.3999 182.25 98.0999C181.91 97.7999 181.66 97.3699 181.63 96.9099C181.59 97.2499 181.58 97.6199 181.71 97.9399C181.85 98.2999 182.15 98.5799 182.47 98.7899C183.24 99.2999 184.19 99.4999 185.11 99.5099C185.71 99.5099 186.31 99.4599 186.89 99.2799C187.34 99.1399 187.77 98.9199 188.14 98.6299C188.51 98.3399 188.72 97.9799 188.79 97.5099C188.82 97.3099 188.83 97.0899 188.83 96.8799C188.83 96.8999 188.83 96.9599 188.83 96.9799Z" fill="#DDDDDD"/>
<path d="M187.76 95.4402C189.17 96.2502 189.19 97.5702 187.79 98.3902C186.39 99.2102 184.12 99.2202 182.7 98.4102C181.29 97.6002 181.27 96.2802 182.67 95.4602C184.07 94.6402 186.34 94.6302 187.75 95.4402H187.76Z" fill="white"/>
<path d="M176.72 91.98C178.68 93.1 178.7 94.93 176.76 96.07C174.82 97.21 171.66 97.22 169.7 96.1C167.74 94.98 167.72 93.15 169.66 92.01C171.6 90.87 174.76 90.86 176.71 91.98H176.72Z" fill="#DBDBDB"/>
<path d="M178.29 92.3195C178.29 92.3195 178.29 92.3595 178.29 92.3795C178.29 92.3995 178.29 92.4195 178.29 92.4295C178.29 92.4495 178.29 92.4695 178.29 92.4895C178.29 92.5095 178.29 92.5295 178.28 92.5395C178.28 92.5595 178.28 92.5795 178.27 92.5995C178.27 92.6195 178.26 92.6395 178.25 92.6495C178.25 92.6695 178.24 92.6895 178.23 92.7095C178.23 92.7295 178.22 92.7495 178.21 92.7595C178.21 92.7795 178.19 92.7995 178.18 92.8195L178.16 92.8695C178.16 92.8695 178.14 92.9095 178.13 92.9295C178.13 92.9495 178.11 92.9595 178.1 92.9795C178.09 92.9995 178.07 93.0295 178.06 93.0495C178.06 93.0595 178.04 93.0795 178.03 93.0895C178.01 93.1195 177.99 93.1395 177.97 93.1695L177.94 93.1995C177.94 93.1995 177.87 93.2795 177.83 93.3195L177.8 93.3495C177.8 93.3495 177.74 93.4095 177.71 93.4395L177.67 93.4795C177.67 93.4795 177.63 93.5095 177.61 93.5295C177.59 93.5495 177.57 93.5595 177.55 93.5795C177.53 93.5995 177.51 93.6095 177.49 93.6295C177.47 93.6495 177.45 93.6595 177.43 93.6795C177.41 93.6995 177.38 93.7095 177.36 93.7295C177.34 93.7395 177.32 93.7595 177.3 93.7695C177.28 93.7895 177.25 93.7995 177.23 93.8195C177.2 93.8395 177.17 93.8595 177.14 93.8795C177.05 93.9295 176.96 93.9795 176.87 94.0295C176.85 94.0395 176.82 94.0495 176.8 94.0695C176.71 94.1095 176.63 94.1495 176.54 94.1795H176.51C176.41 94.2295 176.32 94.2595 176.22 94.2995C176.15 94.3195 176.08 94.3395 176.01 94.3595C175.96 94.3695 175.9 94.3895 175.85 94.3995C175.78 94.4195 175.7 94.4295 175.63 94.4495C175.57 94.4595 175.52 94.4695 175.46 94.4795C175.44 94.4795 175.41 94.4795 175.39 94.4895C175.3 94.5095 175.2 94.5195 175.11 94.5295C175.08 94.5295 175.06 94.5295 175.03 94.5395C174.98 94.5395 174.92 94.5395 174.87 94.5495C174.78 94.5495 174.69 94.5695 174.59 94.5695C174.53 94.5695 174.47 94.5695 174.41 94.5695C174.34 94.5695 174.26 94.5695 174.19 94.5695C174.13 94.5695 174.07 94.5695 174 94.5695C173.93 94.5695 173.86 94.5695 173.79 94.5595C173.73 94.5595 173.66 94.5595 173.6 94.5495C173.53 94.5495 173.46 94.5395 173.4 94.5295C173.34 94.5295 173.28 94.5095 173.22 94.4995C173.15 94.4895 173.08 94.4795 173 94.4595C172.94 94.4495 172.89 94.4395 172.83 94.4295C172.74 94.4095 172.66 94.3895 172.58 94.3695C172.53 94.3595 172.47 94.3395 172.42 94.3295C172.39 94.3295 172.36 94.3095 172.33 94.2995C172.25 94.2695 172.16 94.2495 172.08 94.2195C172.06 94.2195 172.03 94.1995 172.01 94.1895C171.94 94.1595 171.86 94.1295 171.79 94.0995C171.76 94.0795 171.72 94.0695 171.68 94.0495C171.58 93.9995 171.48 93.9495 171.38 93.8995C170.78 93.5495 170.4 93.1295 170.25 92.6795C170.22 92.6095 170.21 92.5295 170.19 92.4495C170.19 92.4095 170.18 92.3695 170.18 92.3395C170.18 92.2995 170.18 92.2595 170.18 92.2295L170.15 93.4795C170.15 94.0895 170.55 94.6895 171.36 95.1595C171.46 95.2195 171.56 95.2695 171.66 95.3095C171.69 95.3295 171.73 95.3395 171.77 95.3595C171.83 95.3895 171.89 95.4095 171.95 95.4395H171.98C171.98 95.4395 172.03 95.4695 172.05 95.4795C172.13 95.5095 172.21 95.5395 172.3 95.5595C172.33 95.5595 172.36 95.5795 172.39 95.5895C172.41 95.5895 172.43 95.5995 172.45 95.6095C172.48 95.6095 172.52 95.6295 172.55 95.6395C172.63 95.6595 172.72 95.6795 172.8 95.6995C172.82 95.6995 172.84 95.7095 172.87 95.7195C172.9 95.7195 172.94 95.7295 172.97 95.7395C173.04 95.7495 173.11 95.7695 173.19 95.7795C173.22 95.7795 173.25 95.7895 173.28 95.7895C173.31 95.7895 173.34 95.7895 173.38 95.7995C173.45 95.7995 173.52 95.8195 173.58 95.8195C173.61 95.8195 173.64 95.8195 173.68 95.8295C173.71 95.8295 173.74 95.8295 173.77 95.8295C173.84 95.8295 173.91 95.8295 173.98 95.8395C174.01 95.8395 174.05 95.8395 174.08 95.8395C174.11 95.8395 174.14 95.8395 174.16 95.8395C174.23 95.8395 174.31 95.8395 174.38 95.8395C174.42 95.8395 174.45 95.8395 174.49 95.8395C174.51 95.8395 174.53 95.8395 174.56 95.8395C174.65 95.8395 174.74 95.8295 174.84 95.8195C174.88 95.8195 174.91 95.8195 174.95 95.8195H175C175 95.8195 175.05 95.8095 175.08 95.7995C175.17 95.7895 175.27 95.7695 175.36 95.7595C175.38 95.7595 175.41 95.7595 175.43 95.7495H175.46C175.46 95.7495 175.55 95.7295 175.59 95.7195C175.67 95.6995 175.74 95.6895 175.81 95.6695C175.86 95.6595 175.92 95.6395 175.97 95.6295C176.04 95.6095 176.11 95.5895 176.18 95.5695C176.19 95.5695 176.21 95.5695 176.23 95.5595C176.31 95.5295 176.4 95.4995 176.48 95.4695H176.51C176.6 95.4195 176.69 95.3795 176.77 95.3395C176.8 95.3295 176.82 95.3195 176.84 95.2995C176.93 95.2495 177.03 95.2095 177.11 95.1495L177.16 95.1195C177.16 95.1195 177.19 95.0995 177.2 95.0895C177.23 95.0695 177.25 95.0595 177.27 95.0395C177.29 95.0295 177.31 95.0095 177.33 94.9995C177.35 94.9795 177.38 94.9695 177.4 94.9495C177.42 94.9295 177.44 94.9195 177.46 94.8995C177.48 94.8795 177.5 94.8695 177.52 94.8495C177.54 94.8295 177.56 94.8195 177.58 94.7995C177.6 94.7795 177.62 94.7695 177.64 94.7495L177.66 94.7295L177.68 94.7095C177.68 94.7095 177.74 94.6495 177.77 94.6195L177.8 94.5895C177.8 94.5895 177.87 94.5095 177.91 94.4695L177.93 94.4395C177.93 94.4395 177.97 94.3895 177.99 94.3595C177.99 94.3495 178.01 94.3295 178.02 94.3195C178.04 94.2995 178.05 94.2695 178.06 94.2495V94.2295L178.09 94.1995C178.09 94.1995 178.11 94.1595 178.12 94.1395L178.14 94.0895C178.14 94.0895 178.16 94.0495 178.17 94.0295V93.9995L178.19 93.9695C178.19 93.9695 178.2 93.9295 178.21 93.9095C178.21 93.8895 178.22 93.8695 178.23 93.8595C178.23 93.8395 178.23 93.8195 178.24 93.7995V93.7495C178.24 93.7495 178.26 93.7095 178.26 93.6895C178.26 93.6695 178.26 93.6495 178.26 93.6395C178.26 93.6195 178.26 93.5995 178.26 93.5795V93.5395C178.26 93.5395 178.26 93.5195 178.26 93.4995L178.29 92.2495C178.29 92.2495 178.29 92.2995 178.29 92.3195V92.3195Z" fill="#EDEDED"/>
<path d="M177.09 90.5695C178.69 91.4895 178.71 92.9795 177.12 93.9095C175.54 94.8395 172.96 94.8495 171.36 93.9295C169.76 93.0095 169.75 91.5195 171.33 90.5895C172.91 89.6595 175.49 89.6495 177.09 90.5695Z" fill="white"/>
<path d="M177.81 91.6303C177.76 92.0603 177.51 92.4603 177.18 92.7503C176.83 93.0503 176.4 93.2503 175.96 93.3803C174.82 93.7403 173.57 93.7303 172.43 93.3803C172 93.2403 171.57 93.0503 171.23 92.7503C170.89 92.4503 170.64 92.0203 170.61 91.5603C170.57 91.9003 170.56 92.2703 170.69 92.5903C170.83 92.9503 171.13 93.2303 171.45 93.4403C172.22 93.9503 173.17 94.1503 174.09 94.1603C174.69 94.1603 175.29 94.1103 175.87 93.9303C176.32 93.7903 176.75 93.5703 177.12 93.2803C177.49 92.9903 177.7 92.6303 177.77 92.1603C177.8 91.9603 177.81 91.7403 177.81 91.5303C177.81 91.5503 177.81 91.6103 177.81 91.6303Z" fill="#DDDDDD"/>
<path d="M176.74 90.0798C178.15 90.8898 178.17 92.2098 176.77 93.0298C175.37 93.8498 173.1 93.8598 171.68 93.0498C170.27 92.2398 170.25 90.9198 171.65 90.0998C173.05 89.2798 175.32 89.2698 176.73 90.0798H176.74Z" fill="white"/>
<path d="M338.36 123.59L277.79 89.1699L97.77 191.83L158.27 227.1L338.36 123.59Z" fill="#77C767"/>
<path d="M161.39 205.47C160.8 205.89 160.96 207.28 161.25 208.37C160.33 207.37 158.81 208.64 158.81 208.64C161.4 208.06 160.2 209.58 160.2 209.58C160.96 209.6 161.34 209.35 161.51 209.17C161.67 209.58 161.83 209.83 161.92 209.77C162.22 209.55 162.31 209.22 162.31 209.22C160.69 207.28 161.38 205.47 161.38 205.47H161.39Z" fill="#70BA3F"/>
<path d="M165.29 209.02C165.29 209.02 165.56 208.38 167.36 207.57C167.36 207.57 165.31 207.7 164.41 208.74C164.59 208.01 165.08 207.05 166.47 206.32C166.47 206.32 164.92 206.35 164.12 208.25C164.22 206.74 164.12 204.36 162.97 203.53C162.91 203.49 163.92 205.48 163.12 208.64C162.86 207.94 162.35 206.67 161.71 205.66C161.71 205.66 162.84 208.32 162.52 209.15C162.29 209.76 162.81 209.49 163.11 209.3C163.35 209.48 163.82 209.79 163.94 209.54C164.02 209.71 164.14 209.89 164.23 209.81C164.26 209.78 164.27 209.69 164.29 209.54C164.48 209.82 164.82 210.14 165.28 209.85C165.99 209.4 166.05 208.38 167.22 209.32C167.26 209.35 167.29 209.38 167.33 209.41C167.33 209.41 167 207.66 165.29 209.01V209.02Z" fill="#70BA3F"/>
<path d="M120.39 184.88C119.95 185.19 120.06 186.24 120.29 187.06C119.59 186.31 118.46 187.26 118.46 187.26C120.41 186.83 119.51 187.97 119.51 187.97C120.08 187.99 120.37 187.79 120.49 187.66C120.61 187.97 120.73 188.16 120.8 188.11C121.03 187.95 121.1 187.69 121.1 187.69C119.88 186.23 120.4 184.87 120.4 184.87L120.39 184.88Z" fill="#70BA3F"/>
<path d="M123.32 187.56C123.32 187.56 123.52 187.08 124.88 186.47C124.88 186.47 123.34 186.57 122.66 187.35C122.8 186.8 123.16 186.08 124.21 185.53C124.21 185.53 123.04 185.56 122.44 186.98C122.51 185.84 122.44 184.06 121.58 183.43C121.54 183.4 122.29 184.89 121.69 187.28C121.49 186.75 121.11 185.8 120.63 185.04C120.63 185.04 121.48 187.04 121.24 187.67C121.07 188.13 121.46 187.93 121.68 187.78C121.86 187.92 122.22 188.15 122.3 187.96C122.36 188.09 122.45 188.22 122.52 188.16C122.54 188.14 122.55 188.07 122.56 187.96C122.7 188.17 122.96 188.41 123.3 188.19C123.83 187.85 123.88 187.09 124.76 187.79C124.79 187.81 124.81 187.83 124.84 187.86C124.84 187.86 124.59 186.55 123.31 187.56H123.32Z" fill="#70BA3F"/>
<path d="M297.55 110.649C296.96 111.069 297.12 112.459 297.41 113.549C296.49 112.549 294.97 113.819 294.97 113.819C297.56 113.239 296.36 114.759 296.36 114.759C297.12 114.779 297.5 114.529 297.67 114.349C297.83 114.759 297.99 115.009 298.08 114.949C298.38 114.729 298.47 114.399 298.47 114.399C296.85 112.459 297.54 110.649 297.54 110.649H297.55Z" fill="#70BA3F"/>
<path d="M301.44 114.2C301.44 114.2 301.71 113.56 303.51 112.75C303.51 112.75 301.46 112.88 300.56 113.92C300.74 113.19 301.23 112.23 302.62 111.5C302.62 111.5 301.07 111.53 300.27 113.43C300.37 111.92 300.27 109.54 299.12 108.71C299.06 108.67 300.07 110.66 299.27 113.82C299.01 113.12 298.5 111.85 297.86 110.84C297.86 110.84 298.99 113.5 298.67 114.33C298.44 114.94 298.96 114.67 299.26 114.48C299.5 114.66 299.97 114.97 300.09 114.72C300.17 114.89 300.29 115.07 300.38 114.99C300.41 114.96 300.42 114.87 300.44 114.72C300.63 115 300.97 115.32 301.43 115.03C302.14 114.58 302.2 113.56 303.37 114.5C303.41 114.53 303.44 114.56 303.48 114.59C303.48 114.59 303.15 112.84 301.44 114.19V114.2Z" fill="#70BA3F"/>
<path d="M280.59 139.399C280 139.819 280.16 141.209 280.45 142.299C279.53 141.299 278.01 142.569 278.01 142.569C280.6 141.989 279.4 143.509 279.4 143.509C280.16 143.529 280.54 143.279 280.71 143.099C280.87 143.509 281.03 143.759 281.12 143.699C281.42 143.479 281.51 143.149 281.51 143.149C279.89 141.209 280.58 139.399 280.58 139.399H280.59Z" fill="#70BA3F"/>
<path d="M284.48 142.95C284.48 142.95 284.75 142.31 286.55 141.5C286.55 141.5 284.5 141.63 283.6 142.67C283.78 141.94 284.27 140.98 285.66 140.25C285.66 140.25 284.11 140.28 283.31 142.18C283.41 140.67 283.31 138.29 282.16 137.46C282.1 137.42 283.11 139.41 282.31 142.57C282.05 141.87 281.54 140.6 280.9 139.59C280.9 139.59 282.03 142.25 281.71 143.08C281.48 143.69 282 143.42 282.3 143.23C282.54 143.41 283.01 143.72 283.13 143.47C283.21 143.64 283.33 143.82 283.42 143.74C283.45 143.71 283.46 143.62 283.48 143.47C283.67 143.75 284.01 144.07 284.47 143.78C285.18 143.33 285.24 142.31 286.41 143.25C286.45 143.28 286.48 143.31 286.52 143.34C286.52 143.34 286.19 141.59 284.48 142.94V142.95Z" fill="#70BA3F"/>
<path d="M275.05 104.9C274.62 105.21 274.73 106.22 274.95 107.02C274.27 106.29 273.17 107.22 273.17 107.22C275.06 106.8 274.19 107.91 274.19 107.91C274.75 107.93 275.02 107.74 275.15 107.61C275.27 107.91 275.39 108.1 275.45 108.05C275.67 107.89 275.74 107.64 275.74 107.64C274.55 106.22 275.06 104.9 275.06 104.9H275.05Z" fill="#70BA3F"/>
<path d="M277.9 107.5C277.9 107.5 278.1 107.03 279.42 106.44C279.42 106.44 277.92 106.54 277.26 107.29C277.39 106.75 277.75 106.05 278.77 105.52C278.77 105.52 277.63 105.55 277.05 106.93C277.12 105.82 277.05 104.09 276.21 103.48C276.17 103.45 276.9 104.91 276.32 107.22C276.13 106.71 275.76 105.78 275.28 105.04C275.28 105.04 276.11 106.99 275.88 107.6C275.71 108.04 276.09 107.85 276.31 107.71C276.49 107.84 276.83 108.07 276.92 107.89C276.98 108.01 277.06 108.14 277.13 108.09C277.15 108.07 277.16 108 277.17 107.89C277.31 108.1 277.56 108.33 277.89 108.12C278.41 107.79 278.45 107.05 279.31 107.73C279.34 107.75 279.36 107.77 279.39 107.8C279.39 107.8 279.15 106.52 277.9 107.5Z" fill="#70BA3F"/>
<path d="M106.66 190.56V191.15C106.67 191.55 106.93 191.94 107.46 192.25C108.51 192.86 110.22 192.86 111.28 192.25C111.81 191.94 112.08 191.54 112.08 191.14V190.55C112.08 190.95 111.8 191.36 111.27 191.66C110.21 192.27 108.5 192.27 107.45 191.66C106.93 191.36 106.67 190.96 106.67 190.56H106.66Z" fill="#535353"/>
<path d="M107.46 189.44C106.4 190.05 106.4 191.04 107.45 191.65C108.5 192.26 110.21 192.26 111.27 191.65C112.33 191.04 112.33 190.05 111.28 189.44C110.23 188.83 108.52 188.83 107.46 189.44Z" fill="#6D6D6D"/>
<path d="M107.5 187.37V190.33C107.5 190.6 107.69 190.88 108.05 191.09C108.77 191.51 109.95 191.51 110.68 191.09C111.05 190.88 111.23 190.6 111.23 190.32V187.36C111.23 187.64 111.04 187.91 110.67 188.13C109.94 188.55 108.77 188.55 108.04 188.13C107.68 187.92 107.5 187.65 107.5 187.37V187.37Z" fill="#535353"/>
<path d="M108.05 186.6C107.32 187.02 107.32 187.7 108.05 188.12C108.77 188.54 109.95 188.54 110.68 188.12C111.41 187.7 111.41 187.02 110.68 186.6C109.95 186.18 108.78 186.18 108.05 186.6Z" fill="#6D6D6D"/>
<path d="M108.76 158.84V187.25C108.76 187.34 108.82 187.43 108.94 187.49C109.17 187.63 109.55 187.63 109.79 187.49C109.91 187.42 109.97 187.33 109.97 187.24V158.83C109.97 158.92 109.91 159.01 109.79 159.08C109.56 159.22 109.18 159.22 108.94 159.08C108.82 159.01 108.77 158.92 108.77 158.84H108.76Z" fill="#B2B2B2"/>
<path d="M108.94 158.591C108.71 158.731 108.7 158.951 108.94 159.081C109.17 159.221 109.55 159.221 109.79 159.081C110.03 158.941 110.03 158.721 109.79 158.591C109.55 158.461 109.18 158.451 108.94 158.591Z" fill="#DBDBDB"/>
<path d="M109.36 155.28L109.38 160.93L112.06 159.04L112.64 153.39L109.36 155.28Z" fill="#535353"/>
<path d="M106.1 153.39L109.36 155.28L112.64 153.39L109.38 151.5L106.1 153.39Z" fill="#ABABAB"/>
<path d="M106.1 153.39L106.72 159.04L109.38 160.93L109.36 155.28L106.1 153.39Z" fill="#6D6D6D"/>
<path d="M106.46 154.18L106.94 158.66L109.02 160.13L109 155.66L106.46 154.18Z" fill="#DEDAD3"/>
<path d="M112.26 154.18L111.77 158.66L109.7 160.13L109.71 155.66L112.26 154.18Z" fill="#DEDAD3"/>
<path d="M105.55 153.41L109.35 155.62L113.16 153.41L109.37 151.21L105.55 153.41Z" fill="#6D6D6D"/>
<path d="M105.55 153.41V153.81L109.35 156.02V155.62L105.55 153.41Z" fill="#535353"/>
<path d="M109.35 155.62V156.02L113.16 153.81V153.41L109.35 155.62Z" fill="#535353"/>
<path d="M110.73 152.47L110.71 152.63C110.71 152.83 110.58 153.03 110.32 153.18C109.79 153.49 108.93 153.49 108.4 153.18C108.13 153.03 108 152.82 108 152.62L108.02 152.46C108.02 152.46 108.05 150.91 109.38 150.91C110.71 150.91 110.73 152.47 110.73 152.47V152.47Z" fill="#B2B2B2"/>
<path d="M109.6 151.07C109.6 151.07 109.58 151.14 109.53 151.17C109.43 151.23 109.28 151.23 109.18 151.17C109.13 151.14 109.11 151.11 109.11 151.07C109.11 151.07 109.11 148.2 109.36 148.2C109.61 148.2 109.6 151.07 109.6 151.07V151.07Z" fill="#C1C1C1"/>
</g>
<defs>
<clipPath id="clip0_137_11696">
<rect width="398" height="272" fill="white"/>
</clipPath>
</defs>
</svg>
