<svg width="398" height="272" viewBox="0 0 398 272" fill="none" xmlns="http://www.w3.org/2000/svg">
<path d="M177.02 164.5V165.25L129.03 193.14V192.39L177.02 164.5Z" fill="#0B88B1"/>
<path d="M129.03 192.39V193.14L125.27 190.97L125.28 190.22L129.03 192.39Z" fill="#155C8A"/>
<path d="M177.02 164.5L129.03 192.39L125.28 190.22L173.27 162.33L177.02 164.5Z" fill="#39A4C3"/>
<path d="M171.55 162.09V162.55L170.87 162.94V162.48L171.55 162.09Z" fill="#9C2A34"/>
<path d="M170.23 162.859V163.319L169.54 163.709V163.249L170.23 162.859Z" fill="#9C2A34"/>
<path d="M168.9 163.63V164.09L168.22 164.48V164.02L168.9 163.63Z" fill="#9C2A34"/>
<path d="M176.59 165V165.46L171.55 162.55V162.09L176.59 165Z" fill="#C72F21"/>
<path d="M175.27 165.769V166.229L170.23 163.319V162.859L175.27 165.769Z" fill="#C72F21"/>
<path d="M173.94 166.54V167L168.9 164.09V163.63L173.94 166.54Z" fill="#C72F21"/>
<path d="M177.87 165.06V165.52L173.23 168.21V167.75L177.87 165.06Z" fill="#9C2A34"/>
<path d="M171.44 161.35L177.87 165.06L173.23 167.75L166.8 164.04L171.44 161.35ZM174.58 166.17L175.26 165.77L170.22 162.86L169.54 163.26L174.58 166.17ZM175.91 165.4L176.59 165L171.55 162.09L170.87 162.49L175.91 165.4ZM173.26 166.94L173.94 166.54L168.9 163.63L168.22 164.03L173.26 166.94Z" fill="#FE5236"/>
<path d="M173.23 167.75V168.21L166.81 164.5V164.04L173.23 167.75Z" fill="#C72F21"/>
<path d="M171.75 160.87L172.15 160.64L172.14 161.81L171.75 162.04V160.87Z" fill="#9C2A34"/>
<path d="M171.75 159.33L172.15 159.1V159.97L171.75 160.2V159.33Z" fill="#9C2A34"/>
<path d="M171.76 157.799L172.16 157.569L172.15 158.429L171.76 158.669V157.799Z" fill="#9C2A34"/>
<path d="M171.75 160.2L172.15 159.97L177.19 162.88L176.79 163.11L171.75 160.2Z" fill="#FE5236"/>
<path d="M171.76 158.67L172.15 158.43L177.19 161.34L176.8 161.58L171.76 158.67Z" fill="#FE5236"/>
<path d="M177.49 160.12L177.89 159.89L177.87 165.1L177.48 165.33L177.49 160.12Z" fill="#9C2A34"/>
<path d="M171.07 156.41L171.46 156.18L177.89 159.89L177.49 160.12L171.07 156.41Z" fill="#FE5236"/>
<path d="M171.07 156.41L177.5 160.12V165.33L176.79 164.95V163.78L171.75 160.87V162.04L171.71 162L171.05 161.62V156.41H171.07ZM176.81 161.57V160.71L171.77 157.8V158.66L176.81 161.57ZM176.81 163.1V162.24L171.77 159.33V160.19L176.81 163.1Z" fill="#C72F21"/>
<path d="M176.78 165.69L176.38 165.46V164.3L176.78 164.53V165.69Z" fill="#EAA61F"/>
<path d="M173.25 167.73L172.85 167.5V165.44L173.25 165.67V167.73Z" fill="#EAA61F"/>
<path d="M173.25 165.67L172.85 165.44L177.07 163L177.47 163.23L173.25 165.67Z" fill="#FFE24E"/>
<path d="M177.47 163.23L177.48 165.29L176.78 165.69V164.53L173.94 166.17L173.95 167.33L173.25 167.73V165.67L177.47 163.23Z" fill="#FDD506"/>
<path d="M170.74 162.249L170.34 162.009V160.859L170.73 161.089L170.74 162.249Z" fill="#EAA61F"/>
<path d="M167.21 164.28L166.81 164.05L166.8 161.99L167.2 162.22L167.21 164.28Z" fill="#EAA61F"/>
<path d="M167.2 162.22L166.8 161.99L171.03 159.55L171.42 159.78L167.2 162.22Z" fill="#FFE24E"/>
<path d="M171.42 159.78L171.43 161.85L170.74 162.25L170.73 161.09L167.89 162.73L167.9 163.88L167.21 164.28L167.2 162.22L171.42 159.78Z" fill="#FDD506"/>
<path d="M129.37 186.91V187.37L128.69 187.77V187.31L129.37 186.91Z" fill="#C72F21"/>
<path d="M128.04 187.68V188.14L127.36 188.54V188.08L128.04 187.68Z" fill="#C72F21"/>
<path d="M126.72 188.45V188.91L126.03 189.31L126.04 188.85L126.72 188.45Z" fill="#C72F21"/>
<path d="M134.41 189.82V190.28L129.37 187.37V186.91L134.41 189.82Z" fill="#9C2A34"/>
<path d="M133.08 190.59V191.05L128.04 188.14V187.68L133.08 190.59Z" fill="#9C2A34"/>
<path d="M131.76 191.36V191.82L126.72 188.91V188.45L131.76 191.36Z" fill="#9C2A34"/>
<path d="M135.68 189.88V190.34L131.04 193.04L131.05 192.58L135.68 189.88Z" fill="#C72F21"/>
<path d="M129.26 186.17L135.69 189.88L131.05 192.57L124.62 188.86L129.26 186.17ZM133.73 190.22L134.41 189.82L129.37 186.91L128.69 187.31L133.73 190.22ZM132.4 190.99L133.08 190.59L128.04 187.68L127.36 188.08L132.4 190.99ZM131.07 191.76L131.75 191.36L126.71 188.45L126.03 188.85L131.07 191.76Z" fill="#FE5236"/>
<path d="M131.05 192.58L131.04 193.04L124.62 189.33V188.87L131.05 192.58Z" fill="#9C2A34"/>
<path d="M134.9 190.23L134.51 190L134.5 188.84L134.9 189.07V190.23Z" fill="#EAA61F"/>
<path d="M131.37 192.27L130.97 192.04V189.98L131.37 190.21V192.27Z" fill="#EAA61F"/>
<path d="M131.37 190.21L130.97 189.98L135.19 187.54L135.59 187.77L131.37 190.21Z" fill="#FFE24E"/>
<path d="M135.59 187.771L135.6 189.831L134.9 190.23V189.071L132.06 190.711L132.07 191.87L131.37 192.271V190.211L135.59 187.771Z" fill="#FDD506"/>
<path d="M128.86 186.789L128.46 186.559V185.399L128.86 185.629V186.789Z" fill="#EAA61F"/>
<path d="M125.33 188.83L124.93 188.59L124.92 186.53L125.32 186.76L125.33 188.83Z" fill="#EAA61F"/>
<path d="M125.32 186.76L124.92 186.53L129.15 184.09L129.54 184.32L125.32 186.76Z" fill="#FFE24E"/>
<path d="M129.54 184.32L129.55 186.39L128.86 186.79V185.63L126.01 187.27L126.02 188.43L125.33 188.83L125.32 186.76L129.54 184.32Z" fill="#FDD506"/>
<path d="M125.34 188.11L125.74 187.88L125.73 189.05L125.33 189.28L125.34 188.11Z" fill="#C72F21"/>
<path d="M125.34 186.57L125.74 186.34V187.21L125.34 187.44V186.57Z" fill="#C72F21"/>
<path d="M125.35 185.04L125.74 184.81V185.67L125.34 185.91L125.35 185.04Z" fill="#C72F21"/>
<path d="M125.34 187.44L125.74 187.21L130.78 190.12L130.38 190.35L125.34 187.44Z" fill="#FE5236"/>
<path d="M125.34 185.91L125.74 185.67L130.79 188.59L130.39 188.82L125.34 185.91Z" fill="#FE5236"/>
<path d="M131.08 187.37L131.48 187.14L131.47 192.34L131.07 192.57L131.08 187.37Z" fill="#C72F21"/>
<path d="M124.66 183.66L125.06 183.43L131.48 187.14L131.08 187.37L124.66 183.66Z" fill="#FE5236"/>
<path d="M124.66 183.66L131.09 187.37V192.58L130.38 192.19V191.02L125.34 188.11V189.28L125.3 189.25L124.64 188.87V183.66H124.66ZM130.4 188.82V187.96L125.36 185.05V185.91L130.4 188.82ZM130.4 190.35V189.49L125.36 186.58V187.44L130.4 190.35Z" fill="#9C2A34"/>
</svg>
