<svg width="398" height="272" viewBox="0 0 398 272" fill="none" xmlns="http://www.w3.org/2000/svg">
<path d="M222.349 189.417L204.717 179.085L205.391 180.105L222.58 190.158L230.985 178.74L231.051 177.604L222.349 189.417Z" fill="#0078AA"/>
<path d="M205.556 179.037L207.332 180.09L208.22 178.889L205.556 179.037Z" fill="#444444"/>
<path d="M209.487 181.34L210.375 180.123L208.286 178.905L207.398 180.123L209.487 181.34Z" fill="#444444"/>
<path d="M207.398 176.339L206.378 177.721L208.269 178.823L209.273 177.441L207.398 176.339Z" fill="#444444"/>
<path d="M209.552 181.374L211.625 182.591L212.53 181.39L210.441 180.173L209.552 181.374Z" fill="#444444"/>
<path d="M212.628 181.373L214.52 182.476L215.523 181.094L213.648 179.991L212.628 181.373Z" fill="#444444"/>
<path d="M212.563 181.341L213.582 179.959L211.493 178.741L210.474 180.107L212.563 181.341Z" fill="#444444"/>
<path d="M209.322 177.393L210.326 176.011L208.451 174.908L207.431 176.29L209.322 177.393Z" fill="#444444"/>
<path d="M211.691 182.64L213.582 183.743L214.471 182.525L212.596 181.423L211.691 182.64Z" fill="#444444"/>
<path d="M208.385 178.89L210.408 180.075L211.411 178.709L208.385 178.89Z" fill="#444444"/>
<path d="M211.428 178.71L209.339 177.476L208.335 178.858L208.385 178.89L211.411 178.71H211.428Z" fill="#444444"/>
<path d="M210.392 176.06L209.388 177.425L211.461 178.643L212.48 177.277L210.392 176.06Z" fill="#444444"/>
<path d="M209.372 173.642L211.263 174.744L210.375 175.961L208.483 174.859L209.372 173.642Z" fill="#444444"/>
<path d="M214.043 184.006L215.934 185.108L216.822 183.89L214.931 182.788L214.043 184.006Z" fill="#444444"/>
<path d="M211.559 178.708L213.615 179.909L214.618 178.527L211.559 178.708Z" fill="#444444"/>
<path d="M216 185.141L218.073 186.375L218.978 185.158L216.889 183.94L216 185.141Z" fill="#444444"/>
<path d="M217.875 182.475L215.984 181.373L214.98 182.739L216.856 183.841L217.875 182.475Z" fill="#444444"/>
<path d="M215.572 181.044L216.576 179.678L214.684 178.56L213.681 179.942L215.572 181.044Z" fill="#444444"/>
<path d="M213.467 176.044L212.579 177.261L214.668 178.479L215.556 177.261L213.467 176.044Z" fill="#444444"/>
<path d="M218.138 186.408L220.227 187.625L221.116 186.408L219.027 185.19L218.138 186.408Z" fill="#444444"/>
<path d="M216.921 183.891L219.01 185.108L220.03 183.726L217.941 182.509L216.921 183.891Z" fill="#444444"/>
<path d="M218.928 181.046L217.037 179.943L216.017 181.309L217.908 182.411L218.928 181.046Z" fill="#444444"/>
<path d="M212.48 173.115L213.484 171.733L211.592 170.631L210.589 171.996L212.48 173.115Z" fill="#444444"/>
<path d="M217.464 178.38L215.622 177.294L214.734 178.511L214.75 178.528L217.464 178.38Z" fill="#444444"/>
<path d="M214.75 178.528L216.626 179.614L217.514 178.413L217.464 178.38L214.75 178.528Z" fill="#444444"/>
<path d="M220.293 187.659L222.185 188.761L223.073 187.56L221.181 186.458L220.293 187.659Z" fill="#444444"/>
<path d="M219.076 185.141L221.165 186.358L222.168 184.976L220.079 183.759L219.076 185.141Z" fill="#444444"/>
<path d="M213.747 175.664L215.836 176.881L216.724 175.68L214.651 174.446L213.747 175.664Z" fill="#444444"/>
<path d="M221.066 182.295L218.994 181.077L217.974 182.459L220.063 183.677L221.066 182.295Z" fill="#444444"/>
<path d="M218.961 180.996L219.849 179.778L217.974 178.676L217.07 179.893L218.961 180.996Z" fill="#444444"/>
<path d="M213.516 171.684L214.536 170.302L212.645 169.199L211.641 170.581L213.516 171.684Z" fill="#444444"/>
<path d="M221.214 186.392L223.106 187.494L224.126 186.129L222.234 185.026L221.214 186.392Z" fill="#444444"/>
<path d="M216.79 175.714L215.902 176.931L217.793 178.034L218.681 176.816L216.79 175.714Z" fill="#444444"/>
<path d="M223.221 183.562L221.133 182.345L220.129 183.71L222.218 184.928L223.221 183.562Z" fill="#444444"/>
<path d="M214.619 178.527L212.546 177.31L211.527 178.692L211.559 178.708L214.619 178.527Z" fill="#444444"/>
<path d="M210.441 175.993L212.513 177.227L213.418 176.009L211.329 174.792L210.441 175.993Z" fill="#444444"/>
<path d="M211.543 174.382L212.431 173.165L210.54 172.062L209.651 173.264L211.543 174.382Z" fill="#444444"/>
<path d="M214.685 174.399L216.774 175.616L217.777 174.251L215.704 173.033L214.685 174.399Z" fill="#444444"/>
<path d="M222.004 181.029L219.915 179.812L219.027 181.029L221.116 182.246L222.004 181.029Z" fill="#444444"/>
<path d="M216.691 171.568L214.602 170.334L213.583 171.716L215.671 172.933L216.691 171.568Z" fill="#444444"/>
<path d="M224.159 182.295L222.07 181.077L221.182 182.278L223.254 183.496L224.159 182.295Z" fill="#444444"/>
<path d="M212.694 169.149L214.569 170.251L215.474 169.034L213.583 167.932L212.694 169.149Z" fill="#444444"/>
<path d="M221.001 178.182L219.142 177.08L218.254 178.298L218.303 178.33L221.001 178.182Z" fill="#444444"/>
<path d="M222.267 184.977L224.159 186.079L225.178 184.697L223.287 183.595L222.267 184.977Z" fill="#444444"/>
<path d="M218.829 172.819L216.74 171.602L215.737 172.967L217.826 174.201L218.829 172.819Z" fill="#444444"/>
<path d="M222.284 180.651L223.172 179.45L221.099 178.232L220.195 179.433L222.284 180.651Z" fill="#444444"/>
<path d="M224.488 181.95L226.379 183.052L227.284 181.835L225.392 180.732L224.488 181.95Z" fill="#444444"/>
<path d="M216.79 171.551L218.879 172.769L219.767 171.551L217.678 170.334L216.79 171.551Z" fill="#444444"/>
<path d="M225.327 180.7L223.238 179.482L222.349 180.7L224.438 181.917L225.327 180.7Z" fill="#444444"/>
<path d="M223.32 183.545L225.211 184.647L226.1 183.429L224.225 182.327L223.32 183.545Z" fill="#444444"/>
<path d="M221.132 178.166L223.221 179.399L224.224 178.017L224.191 178.001L221.132 178.166Z" fill="#444444"/>
<path d="M224.191 178.002L222.135 176.801L221.132 178.166L224.191 178.002Z" fill="#444444"/>
<path d="M218.944 172.802L220.819 173.905L221.724 172.687L219.833 171.585L218.944 172.802Z" fill="#444444"/>
<path d="M225.359 180.65L226.379 179.268L224.29 178.051L223.287 179.433L225.359 180.65Z" fill="#444444"/>
<path d="M223.188 175.369L222.185 176.751L224.274 177.969L225.277 176.587L223.188 175.369Z" fill="#444444"/>
<path d="M221.28 174.168L223.172 175.287L224.06 174.069L222.168 172.967L221.28 174.168Z" fill="#444444"/>
<path d="M228.337 180.419L226.445 179.316L225.425 180.682L227.317 181.784L228.337 180.419Z" fill="#444444"/>
<path d="M227.383 177.82L225.343 176.619L224.34 177.985L227.383 177.82Z" fill="#444444"/>
<path d="M224.323 178.001L226.412 179.219L227.432 177.853L227.382 177.82L224.339 177.985L224.323 178.001Z" fill="#444444"/>
<path d="M226.281 175.353L225.376 176.57L227.465 177.787L228.353 176.586L226.281 175.353Z" fill="#444444"/>
<path d="M223.238 175.319L225.31 176.536L226.215 175.319L224.126 174.102L223.238 175.319Z" fill="#444444"/>
<path d="M228.369 180.371L229.373 178.989L227.498 177.887L226.478 179.252L228.369 180.371Z" fill="#444444"/>
<path d="M227.531 177.836L229.422 178.939L230.311 177.721L230.212 177.655L227.547 177.803L227.531 177.836Z" fill="#444444"/>
<path d="M230.211 177.656L228.419 176.619L227.547 177.804L230.211 177.656Z" fill="#444444"/>
<path d="M206.345 177.771L208.22 178.873V178.889L205.556 179.037L205.44 178.972L206.345 177.771Z" fill="#444444"/>
<path d="M211.608 174.414L213.697 175.631L214.586 174.414L212.497 173.196L211.608 174.414Z" fill="#444444"/>
<path d="M212.53 173.148L214.619 174.365L215.639 172.983L213.55 171.766L212.53 173.148Z" fill="#444444"/>
<path d="M218.303 178.331L220.129 179.4L221.033 178.183H221L218.303 178.331Z" fill="#444444"/>
<path d="M216.839 175.665L218.714 176.767L219.734 175.386L217.843 174.283L216.839 175.665Z" fill="#444444"/>
<path d="M217.892 174.234L219.767 175.336L220.787 173.954L218.895 172.852L217.892 174.234Z" fill="#444444"/>
<path d="M214.635 170.285L216.724 171.502L217.612 170.301L215.54 169.084L214.635 170.285Z" fill="#444444"/>
<path d="M220.195 175.648L219.175 177.03L221.066 178.133L222.086 176.767L220.195 175.648Z" fill="#444444"/>
<path d="M223.139 175.336L221.247 174.233L220.227 175.599L222.119 176.701L223.139 175.336Z" fill="#444444"/>
<path d="M242.733 201.189L225.1 190.857L225.774 191.877L242.963 201.929L251.368 190.511L251.434 189.376L242.733 201.189Z" fill="#0078AA"/>
<path d="M225.939 190.808L227.715 191.861L228.604 190.66L225.939 190.808Z" fill="#444444"/>
<path d="M229.87 193.112L230.758 191.894L228.669 190.677L227.781 191.894L229.87 193.112Z" fill="#444444"/>
<path d="M227.781 188.11L226.761 189.492L228.653 190.595L229.656 189.213L227.781 188.11Z" fill="#444444"/>
<path d="M229.936 193.145L232.008 194.363L232.913 193.162L230.824 191.944L229.936 193.145Z" fill="#444444"/>
<path d="M233.012 193.145L234.903 194.247L235.907 192.865L234.032 191.763L233.012 193.145Z" fill="#444444"/>
<path d="M232.946 193.112L233.966 191.73L231.877 190.513L230.857 191.878L232.946 193.112Z" fill="#444444"/>
<path d="M229.706 189.164L230.709 187.782L228.834 186.68L227.814 188.062L229.706 189.164Z" fill="#444444"/>
<path d="M232.074 194.412L233.966 195.514L234.854 194.297L232.979 193.194L232.074 194.412Z" fill="#444444"/>
<path d="M228.768 190.661L230.791 191.846L231.795 190.48L228.768 190.661Z" fill="#444444"/>
<path d="M231.811 190.481L229.722 189.247L228.719 190.629L228.768 190.662L231.794 190.481H231.811Z" fill="#444444"/>
<path d="M230.775 187.831L229.771 189.197L231.844 190.414L232.864 189.049L230.775 187.831Z" fill="#444444"/>
<path d="M229.755 185.413L231.646 186.515L230.758 187.733L228.867 186.631L229.755 185.413Z" fill="#444444"/>
<path d="M234.426 195.777L236.318 196.879L237.206 195.662L235.314 194.56L234.426 195.777Z" fill="#444444"/>
<path d="M231.942 190.48L233.998 191.681L235.002 190.299L231.942 190.48Z" fill="#444444"/>
<path d="M236.384 196.913L238.456 198.147L239.361 196.929L237.272 195.712L236.384 196.913Z" fill="#444444"/>
<path d="M238.259 194.247L236.367 193.145L235.364 194.51L237.239 195.612L238.259 194.247Z" fill="#444444"/>
<path d="M235.956 192.815L236.959 191.45L235.068 190.331L234.064 191.713L235.956 192.815Z" fill="#444444"/>
<path d="M233.851 187.815L232.962 189.033L235.051 190.25L235.94 189.033L233.851 187.815Z" fill="#444444"/>
<path d="M238.522 198.179L240.611 199.397L241.499 198.179L239.41 196.962L238.522 198.179Z" fill="#444444"/>
<path d="M237.305 195.662L239.394 196.88L240.413 195.498L238.324 194.28L237.305 195.662Z" fill="#444444"/>
<path d="M239.312 192.817L237.42 191.715L236.4 193.08L238.292 194.183L239.312 192.817Z" fill="#444444"/>
<path d="M232.864 184.887L233.867 183.505L231.975 182.402L230.972 183.768L232.864 184.887Z" fill="#444444"/>
<path d="M237.848 190.151L236.005 189.065L235.117 190.283L235.134 190.299L237.848 190.151Z" fill="#444444"/>
<path d="M235.134 190.299L237.009 191.385L237.897 190.184L237.848 190.151L235.134 190.299Z" fill="#444444"/>
<path d="M240.677 199.43L242.568 200.533L243.456 199.332L241.565 198.229L240.677 199.43Z" fill="#444444"/>
<path d="M239.459 196.912L241.548 198.13L242.552 196.748L240.463 195.53L239.459 196.912Z" fill="#444444"/>
<path d="M234.13 187.435L236.219 188.653L237.107 187.452L235.035 186.218L234.13 187.435Z" fill="#444444"/>
<path d="M241.45 194.066L239.377 192.849L238.357 194.231L240.446 195.448L241.45 194.066Z" fill="#444444"/>
<path d="M239.344 192.767L240.233 191.55L238.358 190.447L237.453 191.665L239.344 192.767Z" fill="#444444"/>
<path d="M233.9 183.455L234.92 182.073L233.028 180.971L232.025 182.353L233.9 183.455Z" fill="#444444"/>
<path d="M241.598 198.163L243.489 199.266L244.509 197.9L242.617 196.798L241.598 198.163Z" fill="#444444"/>
<path d="M237.173 187.485L236.285 188.703L238.176 189.805L239.065 188.588L237.173 187.485Z" fill="#444444"/>
<path d="M243.605 195.334L241.516 194.116L240.512 195.482L242.601 196.699L243.605 195.334Z" fill="#444444"/>
<path d="M235.002 190.299L232.93 189.081L231.91 190.463L231.943 190.479L235.002 190.299Z" fill="#444444"/>
<path d="M230.824 187.764L232.896 188.998L233.801 187.781L231.712 186.563L230.824 187.764Z" fill="#444444"/>
<path d="M231.926 186.154L232.814 184.936L230.923 183.834L230.035 185.035L231.926 186.154Z" fill="#444444"/>
<path d="M235.068 186.17L237.157 187.388L238.16 186.022L236.088 184.805L235.068 186.17Z" fill="#444444"/>
<path d="M242.387 192.8L240.298 191.583L239.41 192.8L241.499 194.018L242.387 192.8Z" fill="#444444"/>
<path d="M237.075 183.339L234.986 182.105L233.966 183.487L236.055 184.705L237.075 183.339Z" fill="#444444"/>
<path d="M244.542 194.066L242.453 192.849L241.565 194.05L243.637 195.267L244.542 194.066Z" fill="#444444"/>
<path d="M233.078 180.921L234.953 182.023L235.857 180.805L233.966 179.703L233.078 180.921Z" fill="#444444"/>
<path d="M241.384 189.954L239.525 188.852L238.637 190.069L238.686 190.102L241.384 189.954Z" fill="#444444"/>
<path d="M242.65 196.748L244.542 197.851L245.562 196.469L243.67 195.366L242.65 196.748Z" fill="#444444"/>
<path d="M239.213 184.591L237.124 183.373L236.12 184.739L238.209 185.973L239.213 184.591Z" fill="#444444"/>
<path d="M242.667 192.422L243.555 191.221L241.483 190.004L240.578 191.205L242.667 192.422Z" fill="#444444"/>
<path d="M244.871 193.721L246.763 194.824L247.667 193.606L245.776 192.504L244.871 193.721Z" fill="#444444"/>
<path d="M237.173 183.323L239.262 184.54L240.15 183.323L238.062 182.105L237.173 183.323Z" fill="#444444"/>
<path d="M245.71 192.471L243.621 191.254L242.733 192.471L244.822 193.689L245.71 192.471Z" fill="#444444"/>
<path d="M243.703 195.316L245.595 196.418L246.483 195.201L244.608 194.099L243.703 195.316Z" fill="#444444"/>
<path d="M241.515 189.937L243.604 191.171L244.608 189.789L244.575 189.772L241.515 189.937Z" fill="#444444"/>
<path d="M244.575 189.773L242.519 188.572L241.515 189.938L244.575 189.773Z" fill="#444444"/>
<path d="M239.328 184.574L241.203 185.676L242.107 184.459L240.216 183.356L239.328 184.574Z" fill="#444444"/>
<path d="M245.743 192.422L246.762 191.04L244.673 189.822L243.67 191.204L245.743 192.422Z" fill="#444444"/>
<path d="M243.572 187.141L242.568 188.523L244.657 189.74L245.661 188.358L243.572 187.141Z" fill="#444444"/>
<path d="M241.664 185.939L243.555 187.058L244.443 185.841L242.552 184.738L241.664 185.939Z" fill="#444444"/>
<path d="M248.72 192.19L246.828 191.088L245.809 192.453L247.7 193.556L248.72 192.19Z" fill="#444444"/>
<path d="M247.766 189.592L245.726 188.391L244.723 189.756L247.766 189.592Z" fill="#444444"/>
<path d="M244.706 189.773L246.795 190.99L247.815 189.625L247.766 189.592L244.723 189.756L244.706 189.773Z" fill="#444444"/>
<path d="M246.664 187.124L245.759 188.341L247.848 189.559L248.736 188.358L246.664 187.124Z" fill="#444444"/>
<path d="M243.621 187.09L245.693 188.308L246.598 187.09L244.509 185.873L243.621 187.09Z" fill="#444444"/>
<path d="M248.753 192.143L249.756 190.761L247.881 189.658L246.861 191.024L248.753 192.143Z" fill="#444444"/>
<path d="M247.914 189.608L249.806 190.71L250.694 189.493L250.595 189.427L247.931 189.575L247.914 189.608Z" fill="#444444"/>
<path d="M250.595 189.427L248.802 188.391L247.93 189.575L250.595 189.427Z" fill="#444444"/>
<path d="M226.728 189.542L228.604 190.644V190.661L225.939 190.809L225.824 190.743L226.728 189.542Z" fill="#444444"/>
<path d="M231.992 186.185L234.081 187.403L234.969 186.185L232.88 184.968L231.992 186.185Z" fill="#444444"/>
<path d="M232.913 184.919L235.002 186.137L236.022 184.755L233.933 183.537L232.913 184.919Z" fill="#444444"/>
<path d="M238.686 190.102L240.512 191.172L241.417 189.954H241.384L238.686 190.102Z" fill="#444444"/>
<path d="M237.223 187.437L239.098 188.539L240.118 187.157L238.226 186.055L237.223 187.437Z" fill="#444444"/>
<path d="M238.275 186.005L240.15 187.107L241.17 185.725L239.278 184.623L238.275 186.005Z" fill="#444444"/>
<path d="M235.019 182.056L237.108 183.274L237.996 182.073L235.923 180.855L235.019 182.056Z" fill="#444444"/>
<path d="M240.578 187.42L239.558 188.802L241.45 189.904L242.469 188.539L240.578 187.42Z" fill="#444444"/>
<path d="M243.522 187.107L241.63 186.005L240.611 187.37L242.502 188.473L243.522 187.107Z" fill="#444444"/>
<path d="M212.843 202.367L195.21 192.035L195.884 193.055L213.073 203.108L221.478 191.69L221.544 190.555L212.843 202.367Z" fill="#0078AA"/>
<path d="M196.049 191.987L197.825 193.04L198.713 191.839L196.049 191.987Z" fill="#444444"/>
<path d="M199.98 194.29L200.868 193.073L198.779 191.855L197.891 193.073L199.98 194.29Z" fill="#444444"/>
<path d="M197.891 189.289L196.871 190.671L198.763 191.773L199.766 190.391L197.891 189.289Z" fill="#444444"/>
<path d="M200.046 194.324L202.118 195.542L203.023 194.341L200.934 193.123L200.046 194.324Z" fill="#444444"/>
<path d="M203.122 194.323L205.013 195.426L206.017 194.044L204.141 192.941L203.122 194.323Z" fill="#444444"/>
<path d="M203.056 194.291L204.076 192.909L201.987 191.691L200.967 193.057L203.056 194.291Z" fill="#444444"/>
<path d="M199.815 190.343L200.819 188.961L198.944 187.858L197.924 189.24L199.815 190.343Z" fill="#444444"/>
<path d="M202.184 195.59L204.076 196.693L204.964 195.475L203.089 194.373L202.184 195.59Z" fill="#444444"/>
<path d="M198.878 191.84L200.901 193.025L201.904 191.659L198.878 191.84Z" fill="#444444"/>
<path d="M201.921 191.66L199.832 190.426L198.828 191.808L198.878 191.841L201.904 191.66H201.921Z" fill="#444444"/>
<path d="M200.885 189.01L199.881 190.375L201.954 191.593L202.974 190.227L200.885 189.01Z" fill="#444444"/>
<path d="M199.865 186.592L201.756 187.694L200.868 188.912L198.977 187.809L199.865 186.592Z" fill="#444444"/>
<path d="M204.536 196.956L206.427 198.058L207.316 196.841L205.424 195.738L204.536 196.956Z" fill="#444444"/>
<path d="M202.052 191.659L204.108 192.86L205.112 191.478L202.052 191.659Z" fill="#444444"/>
<path d="M206.494 198.092L208.566 199.326L209.471 198.108L207.382 196.891L206.494 198.092Z" fill="#444444"/>
<path d="M208.369 195.426L206.477 194.323L205.474 195.689L207.349 196.791L208.369 195.426Z" fill="#444444"/>
<path d="M206.066 193.994L207.069 192.629L205.177 191.51L204.174 192.892L206.066 193.994Z" fill="#444444"/>
<path d="M203.96 188.994L203.072 190.212L205.161 191.429L206.049 190.212L203.96 188.994Z" fill="#444444"/>
<path d="M208.632 199.358L210.721 200.576L211.609 199.358L209.52 198.141L208.632 199.358Z" fill="#444444"/>
<path d="M207.415 196.841L209.503 198.058L210.523 196.676L208.434 195.459L207.415 196.841Z" fill="#444444"/>
<path d="M209.421 193.996L207.53 192.894L206.51 194.259L208.402 195.361L209.421 193.996Z" fill="#444444"/>
<path d="M202.974 186.065L203.977 184.683L202.085 183.581L201.082 184.947L202.974 186.065Z" fill="#444444"/>
<path d="M207.957 191.33L206.115 190.244L205.227 191.462L205.244 191.478L207.957 191.33Z" fill="#444444"/>
<path d="M205.244 191.478L207.119 192.564L208.007 191.363L207.958 191.33L205.244 191.478Z" fill="#444444"/>
<path d="M210.786 200.609L212.678 201.712L213.566 200.511L211.675 199.408L210.786 200.609Z" fill="#444444"/>
<path d="M209.569 198.091L211.658 199.308L212.662 197.926L210.573 196.709L209.569 198.091Z" fill="#444444"/>
<path d="M204.24 188.614L206.329 189.831L207.217 188.63L205.145 187.396L204.24 188.614Z" fill="#444444"/>
<path d="M211.56 195.245L209.487 194.027L208.467 195.409L210.556 196.627L211.56 195.245Z" fill="#444444"/>
<path d="M209.454 193.946L210.343 192.728L208.467 191.626L207.563 192.843L209.454 193.946Z" fill="#444444"/>
<path d="M204.01 184.634L205.029 183.252L203.138 182.149L202.135 183.531L204.01 184.634Z" fill="#444444"/>
<path d="M211.708 199.342L213.599 200.444L214.619 199.079L212.727 197.977L211.708 199.342Z" fill="#444444"/>
<path d="M207.283 188.664L206.395 189.882L208.286 190.984L209.175 189.766L207.283 188.664Z" fill="#444444"/>
<path d="M213.715 196.512L211.626 195.295L210.622 196.66L212.711 197.878L213.715 196.512Z" fill="#444444"/>
<path d="M205.112 191.477L203.04 190.26L202.02 191.642L202.053 191.658L205.112 191.477Z" fill="#444444"/>
<path d="M200.934 188.943L203.006 190.177L203.911 188.96L201.822 187.742L200.934 188.943Z" fill="#444444"/>
<path d="M202.036 187.332L202.924 186.115L201.033 185.013L200.145 186.214L202.036 187.332Z" fill="#444444"/>
<path d="M205.178 187.349L207.267 188.566L208.27 187.201L206.198 185.983L205.178 187.349Z" fill="#444444"/>
<path d="M212.497 193.979L210.408 192.762L209.52 193.979L211.609 195.197L212.497 193.979Z" fill="#444444"/>
<path d="M207.184 184.518L205.095 183.284L204.076 184.666L206.165 185.884L207.184 184.518Z" fill="#444444"/>
<path d="M214.652 195.245L212.563 194.027L211.675 195.228L213.747 196.446L214.652 195.245Z" fill="#444444"/>
<path d="M203.188 182.099L205.063 183.202L205.967 181.984L204.076 180.882L203.188 182.099Z" fill="#444444"/>
<path d="M211.494 191.133L209.635 190.03L208.747 191.248L208.796 191.281L211.494 191.133Z" fill="#444444"/>
<path d="M212.76 197.927L214.652 199.029L215.672 197.647L213.78 196.545L212.76 197.927Z" fill="#444444"/>
<path d="M209.323 185.769L207.234 184.552L206.23 185.917L208.319 187.151L209.323 185.769Z" fill="#444444"/>
<path d="M212.777 193.601L213.665 192.4L211.592 191.183L210.688 192.384L212.777 193.601Z" fill="#444444"/>
<path d="M214.981 194.9L216.873 196.002L217.777 194.785L215.886 193.683L214.981 194.9Z" fill="#444444"/>
<path d="M207.283 184.502L209.372 185.719L210.26 184.502L208.171 183.284L207.283 184.502Z" fill="#444444"/>
<path d="M215.82 193.65L213.731 192.433L212.843 193.65L214.932 194.868L215.82 193.65Z" fill="#444444"/>
<path d="M213.813 196.495L215.705 197.597L216.593 196.38L214.718 195.277L213.813 196.495Z" fill="#444444"/>
<path d="M211.625 191.116L213.714 192.35L214.718 190.968L214.685 190.951L211.625 191.116Z" fill="#444444"/>
<path d="M214.685 190.952L212.629 189.751L211.625 191.117L214.685 190.952Z" fill="#444444"/>
<path d="M209.438 185.753L211.313 186.855L212.217 185.637L210.326 184.535L209.438 185.753Z" fill="#444444"/>
<path d="M215.853 193.6L216.872 192.218L214.783 191.001L213.78 192.383L215.853 193.6Z" fill="#444444"/>
<path d="M213.682 188.319L212.678 189.701L214.767 190.919L215.771 189.537L213.682 188.319Z" fill="#444444"/>
<path d="M211.773 187.118L213.665 188.237L214.553 187.019L212.662 185.917L211.773 187.118Z" fill="#444444"/>
<path d="M218.83 193.369L216.938 192.267L215.918 193.632L217.81 194.734L218.83 193.369Z" fill="#444444"/>
<path d="M217.876 190.77L215.836 189.569L214.833 190.935L217.876 190.77Z" fill="#444444"/>
<path d="M214.816 190.951L216.905 192.169L217.925 190.803L217.876 190.771L214.833 190.935L214.816 190.951Z" fill="#444444"/>
<path d="M216.774 188.303L215.869 189.52L217.958 190.738L218.846 189.537L216.774 188.303Z" fill="#444444"/>
<path d="M213.731 188.269L215.803 189.487L216.708 188.269L214.619 187.052L213.731 188.269Z" fill="#444444"/>
<path d="M218.862 193.321L219.866 191.939L217.991 190.837L216.971 192.202L218.862 193.321Z" fill="#444444"/>
<path d="M218.024 190.786L219.916 191.889L220.804 190.671L220.705 190.605L218.04 190.754L218.024 190.786Z" fill="#444444"/>
<path d="M220.705 190.606L218.912 189.569L218.04 190.754L220.705 190.606Z" fill="#444444"/>
<path d="M196.838 190.721L198.713 191.823V191.839L196.049 191.988L195.934 191.922L196.838 190.721Z" fill="#444444"/>
<path d="M202.102 187.364L204.19 188.581L205.079 187.364L202.99 186.146L202.102 187.364Z" fill="#444444"/>
<path d="M203.023 186.098L205.112 187.315L206.132 185.933L204.043 184.716L203.023 186.098Z" fill="#444444"/>
<path d="M208.796 191.281L210.622 192.35L211.527 191.133H211.494L208.796 191.281Z" fill="#444444"/>
<path d="M207.333 188.615L209.208 189.718L210.227 188.336L208.336 187.233L207.333 188.615Z" fill="#444444"/>
<path d="M208.385 187.184L210.26 188.286L211.28 186.904L209.388 185.802L208.385 187.184Z" fill="#444444"/>
<path d="M205.128 183.235L207.217 184.453L208.106 183.252L206.033 182.034L205.128 183.235Z" fill="#444444"/>
<path d="M210.688 188.599L209.668 189.981L211.56 191.083L212.579 189.717L210.688 188.599Z" fill="#444444"/>
<path d="M213.632 188.286L211.74 187.184L210.72 188.549L212.612 189.651L213.632 188.286Z" fill="#444444"/>
<path d="M233.243 214.127L215.61 203.795L216.284 204.815L233.473 214.868L241.878 203.45L241.944 202.314L233.243 214.127Z" fill="#0078AA"/>
<path d="M216.449 203.747L218.225 204.8L219.114 203.599L216.449 203.747Z" fill="#444444"/>
<path d="M220.38 206.05L221.268 204.833L219.179 203.615L218.291 204.833L220.38 206.05Z" fill="#444444"/>
<path d="M218.291 201.049L217.271 202.431L219.163 203.533L220.166 202.151L218.291 201.049Z" fill="#444444"/>
<path d="M220.446 206.084L222.518 207.301L223.423 206.1L221.334 204.883L220.446 206.084Z" fill="#444444"/>
<path d="M223.522 206.083L225.413 207.185L226.417 205.803L224.542 204.701L223.522 206.083Z" fill="#444444"/>
<path d="M223.456 206.051L224.476 204.669L222.387 203.451L221.367 204.817L223.456 206.051Z" fill="#444444"/>
<path d="M220.216 202.102L221.219 200.72L219.344 199.618L218.324 201L220.216 202.102Z" fill="#444444"/>
<path d="M222.584 207.35L224.476 208.453L225.364 207.235L223.489 206.133L222.584 207.35Z" fill="#444444"/>
<path d="M219.278 203.6L221.301 204.784L222.305 203.419L219.278 203.6Z" fill="#444444"/>
<path d="M222.321 203.419L220.232 202.186L219.229 203.568L219.278 203.6L222.304 203.419H222.321Z" fill="#444444"/>
<path d="M221.285 200.77L220.281 202.135L222.354 203.353L223.374 201.987L221.285 200.77Z" fill="#444444"/>
<path d="M220.265 198.352L222.156 199.454L221.268 200.671L219.377 199.569L220.265 198.352Z" fill="#444444"/>
<path d="M224.936 208.715L226.828 209.818L227.716 208.6L225.824 207.498L224.936 208.715Z" fill="#444444"/>
<path d="M222.452 203.418L224.508 204.619L225.512 203.237L222.452 203.418Z" fill="#444444"/>
<path d="M226.894 209.851L228.966 211.085L229.871 209.868L227.782 208.65L226.894 209.851Z" fill="#444444"/>
<path d="M228.769 207.185L226.877 206.083L225.874 207.449L227.749 208.551L228.769 207.185Z" fill="#444444"/>
<path d="M226.466 205.754L227.469 204.388L225.578 203.27L224.574 204.652L226.466 205.754Z" fill="#444444"/>
<path d="M224.361 200.754L223.472 201.971L225.561 203.189L226.45 201.971L224.361 200.754Z" fill="#444444"/>
<path d="M229.032 211.118L231.121 212.335L232.009 211.118L229.92 209.9L229.032 211.118Z" fill="#444444"/>
<path d="M227.815 208.601L229.904 209.818L230.923 208.436L228.834 207.219L227.815 208.601Z" fill="#444444"/>
<path d="M229.822 205.756L227.93 204.653L226.91 206.019L228.802 207.121L229.822 205.756Z" fill="#444444"/>
<path d="M223.374 197.825L224.377 196.443L222.486 195.341L221.482 196.706L223.374 197.825Z" fill="#444444"/>
<path d="M228.358 203.09L226.515 202.004L225.627 203.221L225.644 203.238L228.358 203.09Z" fill="#444444"/>
<path d="M225.644 203.238L227.519 204.324L228.407 203.123L228.358 203.09L225.644 203.238Z" fill="#444444"/>
<path d="M231.187 212.369L233.078 213.471L233.966 212.27L232.075 211.168L231.187 212.369Z" fill="#444444"/>
<path d="M229.969 209.851L232.058 211.068L233.062 209.686L230.973 208.469L229.969 209.851Z" fill="#444444"/>
<path d="M224.64 200.374L226.729 201.591L227.617 200.39L225.545 199.156L224.64 200.374Z" fill="#444444"/>
<path d="M231.96 207.005L229.887 205.787L228.867 207.169L230.956 208.387L231.96 207.005Z" fill="#444444"/>
<path d="M229.854 205.705L230.743 204.488L228.868 203.386L227.963 204.603L229.854 205.705Z" fill="#444444"/>
<path d="M224.41 196.393L225.43 195.011L223.538 193.909L222.535 195.291L224.41 196.393Z" fill="#444444"/>
<path d="M232.108 211.102L233.999 212.204L235.019 210.839L233.127 209.736L232.108 211.102Z" fill="#444444"/>
<path d="M227.683 200.424L226.795 201.641L228.686 202.744L229.575 201.526L227.683 200.424Z" fill="#444444"/>
<path d="M234.115 208.272L232.026 207.055L231.022 208.42L233.111 209.638L234.115 208.272Z" fill="#444444"/>
<path d="M225.512 203.237L223.44 202.02L222.42 203.402L222.453 203.418L225.512 203.237Z" fill="#444444"/>
<path d="M221.334 200.703L223.406 201.937L224.311 200.719L222.222 199.502L221.334 200.703Z" fill="#444444"/>
<path d="M222.436 199.092L223.324 197.875L221.433 196.772L220.545 197.973L222.436 199.092Z" fill="#444444"/>
<path d="M225.578 199.109L227.667 200.326L228.67 198.961L226.598 197.743L225.578 199.109Z" fill="#444444"/>
<path d="M232.897 205.739L230.808 204.521L229.92 205.739L232.009 206.956L232.897 205.739Z" fill="#444444"/>
<path d="M227.585 196.278L225.496 195.044L224.476 196.426L226.565 197.643L227.585 196.278Z" fill="#444444"/>
<path d="M235.052 207.005L232.963 205.787L232.075 206.988L234.147 208.206L235.052 207.005Z" fill="#444444"/>
<path d="M223.588 193.859L225.463 194.961L226.367 193.744L224.476 192.642L223.588 193.859Z" fill="#444444"/>
<path d="M231.894 202.892L230.035 201.79L229.147 203.007L229.196 203.04L231.894 202.892Z" fill="#444444"/>
<path d="M233.16 209.687L235.052 210.789L236.072 209.407L234.18 208.305L233.16 209.687Z" fill="#444444"/>
<path d="M229.723 197.529L227.634 196.312L226.63 197.677L228.719 198.911L229.723 197.529Z" fill="#444444"/>
<path d="M233.177 205.361L234.065 204.16L231.993 202.942L231.088 204.143L233.177 205.361Z" fill="#444444"/>
<path d="M235.381 206.66L237.273 207.762L238.177 206.545L236.286 205.442L235.381 206.66Z" fill="#444444"/>
<path d="M227.683 196.261L229.772 197.479L230.66 196.261L228.572 195.044L227.683 196.261Z" fill="#444444"/>
<path d="M236.22 205.41L234.131 204.192L233.243 205.41L235.332 206.627L236.22 205.41Z" fill="#444444"/>
<path d="M234.213 208.255L236.105 209.357L236.993 208.139L235.118 207.037L234.213 208.255Z" fill="#444444"/>
<path d="M232.025 202.875L234.114 204.109L235.118 202.727L235.085 202.711L232.025 202.875Z" fill="#444444"/>
<path d="M235.085 202.712L233.029 201.511L232.025 202.876L235.085 202.712Z" fill="#444444"/>
<path d="M229.838 197.512L231.713 198.615L232.617 197.397L230.726 196.295L229.838 197.512Z" fill="#444444"/>
<path d="M236.253 205.36L237.272 203.978L235.184 202.761L234.18 204.143L236.253 205.36Z" fill="#444444"/>
<path d="M234.082 200.079L233.078 201.461L235.167 202.679L236.171 201.297L234.082 200.079Z" fill="#444444"/>
<path d="M232.174 198.878L234.065 199.997L234.953 198.779L233.062 197.677L232.174 198.878Z" fill="#444444"/>
<path d="M239.23 205.129L237.338 204.026L236.319 205.392L238.21 206.494L239.23 205.129Z" fill="#444444"/>
<path d="M238.276 202.53L236.236 201.329L235.233 202.695L238.276 202.53Z" fill="#444444"/>
<path d="M235.216 202.711L237.305 203.929L238.325 202.563L238.276 202.53L235.233 202.695L235.216 202.711Z" fill="#444444"/>
<path d="M237.174 200.062L236.269 201.28L238.358 202.497L239.246 201.296L237.174 200.062Z" fill="#444444"/>
<path d="M234.131 200.029L236.203 201.246L237.108 200.029L235.019 198.812L234.131 200.029Z" fill="#444444"/>
<path d="M239.263 205.081L240.266 203.699L238.391 202.597L237.371 203.962L239.263 205.081Z" fill="#444444"/>
<path d="M238.424 202.546L240.316 203.649L241.204 202.431L241.105 202.365L238.441 202.513L238.424 202.546Z" fill="#444444"/>
<path d="M241.105 202.366L239.312 201.329L238.44 202.514L241.105 202.366Z" fill="#444444"/>
<path d="M217.238 202.48L219.114 203.583V203.599L216.449 203.747L216.334 203.681L217.238 202.48Z" fill="#444444"/>
<path d="M222.502 199.124L224.591 200.341L225.479 199.124L223.39 197.906L222.502 199.124Z" fill="#444444"/>
<path d="M223.423 197.858L225.512 199.075L226.532 197.693L224.443 196.476L223.423 197.858Z" fill="#444444"/>
<path d="M229.196 203.041L231.022 204.11L231.927 202.893H231.894L229.196 203.041Z" fill="#444444"/>
<path d="M227.733 200.375L229.608 201.477L230.628 200.095L228.736 198.993L227.733 200.375Z" fill="#444444"/>
<path d="M228.785 198.944L230.66 200.046L231.68 198.664L229.788 197.562L228.785 198.944Z" fill="#444444"/>
<path d="M225.529 194.995L227.618 196.212L228.506 195.011L226.433 193.794L225.529 194.995Z" fill="#444444"/>
<path d="M231.088 200.358L230.068 201.74L231.96 202.843L232.979 201.477L231.088 200.358Z" fill="#444444"/>
<path d="M234.032 200.046L232.14 198.943L231.121 200.309L233.012 201.411L234.032 200.046Z" fill="#444444"/>
<path d="M281.569 157.58L270.85 151.299L271.26 151.919L281.709 158.03L286.819 151.089L286.859 150.399L281.569 157.58Z" fill="#0078AA"/>
<path d="M271.359 151.271L272.439 151.911L272.979 151.181L271.359 151.271Z" fill="#444444"/>
<path d="M273.749 152.671L274.289 151.93L273.019 151.19L272.479 151.93L273.749 152.671Z" fill="#444444"/>
<path d="M272.479 149.631L271.859 150.471L273.009 151.141L273.619 150.301L272.479 149.631Z" fill="#444444"/>
<path d="M273.789 152.691L275.049 153.431L275.599 152.701L274.329 151.961L273.789 152.691Z" fill="#444444"/>
<path d="M275.659 152.691L276.809 153.361L277.419 152.521L276.279 151.851L275.659 152.691Z" fill="#444444"/>
<path d="M275.619 152.671L276.239 151.831L274.969 151.091L274.349 151.921L275.619 152.671Z" fill="#444444"/>
<path d="M273.649 150.271L274.259 149.431L273.119 148.761L272.499 149.601L273.649 150.271Z" fill="#444444"/>
<path d="M275.089 153.461L276.239 154.131L276.779 153.391L275.639 152.721L275.089 153.461Z" fill="#444444"/>
<path d="M273.079 151.181L274.309 151.901L274.919 151.071L273.079 151.181Z" fill="#444444"/>
<path d="M274.929 151.072L273.659 150.322L273.049 151.162L273.079 151.182L274.919 151.072H274.929Z" fill="#444444"/>
<path d="M274.299 149.461L273.689 150.291L274.949 151.031L275.569 150.201L274.299 149.461Z" fill="#444444"/>
<path d="M273.679 147.991L274.829 148.661L274.289 149.401L273.139 148.731L273.679 147.991Z" fill="#444444"/>
<path d="M276.519 154.291L277.669 154.961L278.209 154.221L277.059 153.551L276.519 154.291Z" fill="#444444"/>
<path d="M275.009 151.071L276.259 151.801L276.869 150.961L275.009 151.071Z" fill="#444444"/>
<path d="M277.709 154.981L278.969 155.731L279.519 154.991L278.249 154.251L277.709 154.981Z" fill="#444444"/>
<path d="M278.849 153.36L277.699 152.69L277.089 153.52L278.229 154.191L278.849 153.36Z" fill="#444444"/>
<path d="M277.449 152.491L278.059 151.661L276.909 150.98L276.299 151.821L277.449 152.491Z" fill="#444444"/>
<path d="M276.169 149.451L275.629 150.191L276.899 150.931L277.439 150.191L276.169 149.451Z" fill="#444444"/>
<path d="M279.009 155.752L280.279 156.492L280.819 155.752L279.549 155.012L279.009 155.752Z" fill="#444444"/>
<path d="M278.269 154.221L279.539 154.961L280.159 154.121L278.889 153.381L278.269 154.221Z" fill="#444444"/>
<path d="M279.489 152.492L278.339 151.822L277.719 152.652L278.869 153.322L279.489 152.492Z" fill="#444444"/>
<path d="M275.569 147.671L276.179 146.831L275.029 146.161L274.419 146.991L275.569 147.671Z" fill="#444444"/>
<path d="M278.599 150.871L277.479 150.211L276.939 150.951L276.949 150.961L278.599 150.871Z" fill="#444444"/>
<path d="M276.949 150.961L278.089 151.621L278.629 150.891L278.599 150.871L276.949 150.961Z" fill="#444444"/>
<path d="M280.319 156.512L281.469 157.182L282.009 156.452L280.859 155.782L280.319 156.512Z" fill="#444444"/>
<path d="M279.579 154.981L280.849 155.721L281.459 154.881L280.189 154.141L279.579 154.981Z" fill="#444444"/>
<path d="M276.339 149.221L277.609 149.961L278.149 149.231L276.889 148.48L276.339 149.221Z" fill="#444444"/>
<path d="M280.789 153.251L279.529 152.511L278.909 153.351L280.179 154.091L280.789 153.251Z" fill="#444444"/>
<path d="M279.509 152.462L280.049 151.722L278.909 151.052L278.359 151.792L279.509 152.462Z" fill="#444444"/>
<path d="M276.199 146.801L276.819 145.961L275.669 145.291L275.059 146.131L276.199 146.801Z" fill="#444444"/>
<path d="M280.879 155.741L282.029 156.411L282.649 155.581L281.499 154.911L280.879 155.741Z" fill="#444444"/>
<path d="M278.189 149.251L277.649 149.991L278.799 150.661L279.339 149.921L278.189 149.251Z" fill="#444444"/>
<path d="M282.099 154.021L280.829 153.281L280.219 154.111L281.489 154.851L282.099 154.021Z" fill="#444444"/>
<path d="M276.869 150.961L275.609 150.221L274.99 151.061L275.009 151.071L276.869 150.961Z" fill="#444444"/>
<path d="M274.329 149.42L275.589 150.171L276.139 149.43L274.869 148.69L274.329 149.42Z" fill="#444444"/>
<path d="M274.999 148.441L275.539 147.701L274.389 147.031L273.849 147.761L274.999 148.441Z" fill="#444444"/>
<path d="M276.909 148.451L278.179 149.191L278.789 148.361L277.529 147.621L276.909 148.451Z" fill="#444444"/>
<path d="M281.359 152.482L280.089 151.742L279.549 152.482L280.819 153.222L281.359 152.482Z" fill="#444444"/>
<path d="M278.129 146.731L276.859 145.98L276.239 146.821L277.509 147.561L278.129 146.731Z" fill="#444444"/>
<path d="M282.669 153.251L281.399 152.511L280.859 153.241L282.119 153.981L282.669 153.251Z" fill="#444444"/>
<path d="M275.699 145.261L276.839 145.931L277.389 145.191L276.239 144.521L275.699 145.261Z" fill="#444444"/>
<path d="M280.749 150.751L279.619 150.081L279.079 150.821L279.109 150.841L280.749 150.751Z" fill="#444444"/>
<path d="M281.519 154.881L282.669 155.551L283.289 154.711L282.139 154.041L281.519 154.881Z" fill="#444444"/>
<path d="M279.429 147.491L278.159 146.751L277.549 147.581L278.819 148.331L279.429 147.491Z" fill="#444444"/>
<path d="M281.529 152.252L282.069 151.522L280.809 150.782L280.259 151.512L281.529 152.252Z" fill="#444444"/>
<path d="M282.869 153.042L284.019 153.712L284.569 152.972L283.419 152.302L282.869 153.042Z" fill="#444444"/>
<path d="M278.189 146.721L279.459 147.461L279.999 146.721L278.729 145.98L278.189 146.721Z" fill="#444444"/>
<path d="M283.379 152.282L282.109 151.542L281.569 152.282L282.839 153.022L283.379 152.282Z" fill="#444444"/>
<path d="M282.159 154.011L283.309 154.681L283.849 153.941L282.709 153.271L282.159 154.011Z" fill="#444444"/>
<path d="M280.829 150.742L282.099 151.492L282.709 150.652L282.689 150.642L280.829 150.742Z" fill="#444444"/>
<path d="M282.689 150.641L281.439 149.911L280.829 150.741L282.689 150.641Z" fill="#444444"/>
<path d="M279.499 147.481L280.639 148.151L281.189 147.411L280.039 146.741L279.499 147.481Z" fill="#444444"/>
<path d="M283.399 152.252L284.019 151.412L282.749 150.672L282.139 151.512L283.399 152.252Z" fill="#444444"/>
<path d="M282.079 149.041L281.469 149.881L282.739 150.621L283.349 149.781L282.079 149.041Z" fill="#444444"/>
<path d="M280.919 148.311L282.069 148.991L282.609 148.251L281.459 147.581L280.919 148.311Z" fill="#444444"/>
<path d="M285.209 152.11L284.059 151.44L283.439 152.27L284.589 152.941L285.209 152.11Z" fill="#444444"/>
<path d="M284.629 150.531L283.389 149.801L282.779 150.631L284.629 150.531Z" fill="#444444"/>
<path d="M282.769 150.641L284.038 151.381L284.658 150.551L284.628 150.531L282.779 150.631L282.769 150.641Z" fill="#444444"/>
<path d="M283.959 149.031L283.409 149.771L284.679 150.511L285.219 149.781L283.959 149.031Z" fill="#444444"/>
<path d="M282.109 149.011L283.369 149.751L283.919 149.011L282.649 148.271L282.109 149.011Z" fill="#444444"/>
<path d="M285.229 152.081L285.839 151.241L284.699 150.571L284.079 151.401L285.229 152.081Z" fill="#444444"/>
<path d="M284.719 150.541L285.869 151.211L286.409 150.471L286.349 150.431L284.729 150.521L284.719 150.541Z" fill="#444444"/>
<path d="M286.348 150.431L285.258 149.801L284.729 150.521L286.348 150.431Z" fill="#444444"/>
<path d="M271.84 150.501L272.979 151.171V151.181L271.36 151.271L271.29 151.231L271.84 150.501Z" fill="#444444"/>
<path d="M275.039 148.461L276.309 149.201L276.849 148.461L275.579 147.721L275.039 148.461Z" fill="#444444"/>
<path d="M275.599 147.691L276.869 148.431L277.489 147.591L276.219 146.851L275.599 147.691Z" fill="#444444"/>
<path d="M279.109 150.842L280.219 151.492L280.769 150.752H280.749L279.109 150.842Z" fill="#444444"/>
<path d="M278.219 149.221L279.359 149.891L279.979 149.051L278.829 148.381L278.219 149.221Z" fill="#444444"/>
<path d="M278.859 148.351L279.999 149.021L280.619 148.181L279.469 147.511L278.859 148.351Z" fill="#444444"/>
<path d="M276.879 145.951L278.149 146.691L278.689 145.961L277.429 145.221L276.879 145.951Z" fill="#444444"/>
<path d="M280.259 149.211L279.639 150.051L280.789 150.721L281.409 149.891L280.259 149.211Z" fill="#444444"/>
<path d="M282.049 149.021L280.899 148.351L280.279 149.181L281.429 149.851L282.049 149.021Z" fill="#444444"/>
<path d="M293.96 164.735L283.241 158.455L283.651 159.075L294.1 165.185L299.21 158.245L299.25 157.555L293.96 164.735Z" fill="#0078AA"/>
<path d="M283.751 158.426L284.831 159.066L285.371 158.336L283.751 158.426Z" fill="#444444"/>
<path d="M286.141 159.826L286.681 159.086L285.411 158.346L284.871 159.086L286.141 159.826Z" fill="#444444"/>
<path d="M284.871 156.786L284.251 157.626L285.401 158.296L286.011 157.456L284.871 156.786Z" fill="#444444"/>
<path d="M286.181 159.846L287.441 160.586L287.991 159.856L286.721 159.116L286.181 159.846Z" fill="#444444"/>
<path d="M288.051 159.846L289.201 160.516L289.811 159.676L288.671 159.006L288.051 159.846Z" fill="#444444"/>
<path d="M288.011 159.826L288.631 158.986L287.361 158.246L286.741 159.076L288.011 159.826Z" fill="#444444"/>
<path d="M286.041 157.426L286.651 156.586L285.511 155.916L284.891 156.756L286.041 157.426Z" fill="#444444"/>
<path d="M287.481 160.616L288.631 161.286L289.171 160.546L288.031 159.876L287.481 160.616Z" fill="#444444"/>
<path d="M285.471 158.337L286.701 159.057L287.311 158.227L285.471 158.337Z" fill="#444444"/>
<path d="M287.321 158.228L286.051 157.478L285.441 158.318L285.471 158.338L287.311 158.228H287.321Z" fill="#444444"/>
<path d="M286.691 156.616L286.081 157.446L287.341 158.186L287.961 157.356L286.691 156.616Z" fill="#444444"/>
<path d="M286.071 155.146L287.221 155.817L286.681 156.557L285.531 155.887L286.071 155.146Z" fill="#444444"/>
<path d="M288.911 161.446L290.061 162.116L290.601 161.376L289.451 160.706L288.911 161.446Z" fill="#444444"/>
<path d="M287.401 158.226L288.651 158.956L289.261 158.116L287.401 158.226Z" fill="#444444"/>
<path d="M290.101 162.136L291.361 162.886L291.911 162.146L290.641 161.406L290.101 162.136Z" fill="#444444"/>
<path d="M291.241 160.516L290.091 159.846L289.481 160.676L290.621 161.346L291.241 160.516Z" fill="#444444"/>
<path d="M289.841 159.646L290.451 158.816L289.301 158.136L288.691 158.976L289.841 159.646Z" fill="#444444"/>
<path d="M288.561 156.606L288.021 157.346L289.291 158.087L289.831 157.346L288.561 156.606Z" fill="#444444"/>
<path d="M291.4 162.907L292.67 163.647L293.21 162.907L291.94 162.167L291.4 162.907Z" fill="#444444"/>
<path d="M290.661 161.376L291.931 162.116L292.551 161.276L291.281 160.536L290.661 161.376Z" fill="#444444"/>
<path d="M291.881 159.648L290.731 158.978L290.111 159.808L291.261 160.478L291.881 159.648Z" fill="#444444"/>
<path d="M287.961 154.826L288.571 153.986L287.421 153.316L286.811 154.146L287.961 154.826Z" fill="#444444"/>
<path d="M290.991 158.026L289.871 157.366L289.331 158.106L289.341 158.116L290.991 158.026Z" fill="#444444"/>
<path d="M289.341 158.116L290.481 158.776L291.021 158.046L290.991 158.026L289.341 158.116Z" fill="#444444"/>
<path d="M292.71 163.668L293.86 164.338L294.4 163.608L293.25 162.938L292.71 163.668Z" fill="#444444"/>
<path d="M291.97 162.136L293.24 162.876L293.85 162.036L292.58 161.296L291.97 162.136Z" fill="#444444"/>
<path d="M288.731 156.376L290.001 157.116L290.541 156.386L289.281 155.636L288.731 156.376Z" fill="#444444"/>
<path d="M293.18 160.406L291.92 159.666L291.301 160.506L292.57 161.246L293.18 160.406Z" fill="#444444"/>
<path d="M291.901 159.617L292.441 158.877L291.301 158.207L290.751 158.947L291.901 159.617Z" fill="#444444"/>
<path d="M288.591 153.956L289.211 153.116L288.061 152.446L287.451 153.286L288.591 153.956Z" fill="#444444"/>
<path d="M293.27 162.896L294.42 163.566L295.04 162.736L293.89 162.066L293.27 162.896Z" fill="#444444"/>
<path d="M290.58 156.406L290.041 157.146L291.19 157.816L291.73 157.076L290.58 156.406Z" fill="#444444"/>
<path d="M294.49 161.177L293.221 160.437L292.611 161.267L293.881 162.007L294.49 161.177Z" fill="#444444"/>
<path d="M289.261 158.116L288.001 157.376L287.381 158.216L287.401 158.226L289.261 158.116Z" fill="#444444"/>
<path d="M286.721 156.576L287.981 157.326L288.531 156.586L287.261 155.846L286.721 156.576Z" fill="#444444"/>
<path d="M287.391 155.597L287.931 154.857L286.781 154.187L286.241 154.917L287.391 155.597Z" fill="#444444"/>
<path d="M289.301 155.606L290.571 156.346L291.181 155.516L289.921 154.776L289.301 155.606Z" fill="#444444"/>
<path d="M293.75 159.637L292.48 158.896L291.94 159.637L293.21 160.377L293.75 159.637Z" fill="#444444"/>
<path d="M290.521 153.886L289.251 153.136L288.631 153.976L289.901 154.716L290.521 153.886Z" fill="#444444"/>
<path d="M295.06 160.406L293.79 159.666L293.25 160.396L294.51 161.136L295.06 160.406Z" fill="#444444"/>
<path d="M288.091 152.416L289.231 153.086L289.781 152.346L288.631 151.676L288.091 152.416Z" fill="#444444"/>
<path d="M293.14 157.906L292.01 157.236L291.47 157.976L291.5 157.996L293.14 157.906Z" fill="#444444"/>
<path d="M293.91 162.036L295.06 162.706L295.68 161.866L294.53 161.196L293.91 162.036Z" fill="#444444"/>
<path d="M291.821 154.646L290.551 153.906L289.941 154.736L291.211 155.486L291.821 154.646Z" fill="#444444"/>
<path d="M293.92 159.408L294.46 158.678L293.2 157.938L292.65 158.668L293.92 159.408Z" fill="#444444"/>
<path d="M295.26 160.197L296.41 160.867L296.96 160.127L295.81 159.457L295.26 160.197Z" fill="#444444"/>
<path d="M290.581 153.876L291.851 154.616L292.391 153.876L291.121 153.136L290.581 153.876Z" fill="#444444"/>
<path d="M295.77 159.437L294.5 158.697L293.96 159.437L295.23 160.177L295.77 159.437Z" fill="#444444"/>
<path d="M294.55 161.166L295.7 161.836L296.24 161.096L295.1 160.426L294.55 161.166Z" fill="#444444"/>
<path d="M293.22 157.897L294.49 158.647L295.1 157.807L295.08 157.797L293.22 157.897Z" fill="#444444"/>
<path d="M295.08 157.796L293.83 157.066L293.22 157.896L295.08 157.796Z" fill="#444444"/>
<path d="M291.89 154.637L293.03 155.307L293.58 154.567L292.43 153.896L291.89 154.637Z" fill="#444444"/>
<path d="M295.79 159.407L296.41 158.567L295.14 157.827L294.53 158.667L295.79 159.407Z" fill="#444444"/>
<path d="M294.471 156.196L293.861 157.036L295.131 157.776L295.74 156.936L294.471 156.196Z" fill="#444444"/>
<path d="M293.311 155.466L294.46 156.146L295 155.406L293.851 154.736L293.311 155.466Z" fill="#444444"/>
<path d="M297.6 159.266L296.45 158.596L295.83 159.426L296.98 160.096L297.6 159.266Z" fill="#444444"/>
<path d="M297.02 157.686L295.78 156.956L295.17 157.786L297.02 157.686Z" fill="#444444"/>
<path d="M295.16 157.797L296.43 158.537L297.05 157.707L297.02 157.687L295.17 157.787L295.16 157.797Z" fill="#444444"/>
<path d="M296.35 156.187L295.8 156.927L297.07 157.667L297.61 156.937L296.35 156.187Z" fill="#444444"/>
<path d="M294.5 156.166L295.76 156.906L296.31 156.166L295.04 155.426L294.5 156.166Z" fill="#444444"/>
<path d="M297.62 159.237L298.23 158.397L297.09 157.727L296.47 158.557L297.62 159.237Z" fill="#444444"/>
<path d="M297.11 157.696L298.26 158.366L298.8 157.626L298.74 157.586L297.12 157.676L297.11 157.696Z" fill="#444444"/>
<path d="M298.74 157.586L297.65 156.956L297.12 157.676L298.74 157.586Z" fill="#444444"/>
<path d="M284.231 157.656L285.371 158.326V158.336L283.751 158.426L283.681 158.386L284.231 157.656Z" fill="#444444"/>
<path d="M287.431 155.616L288.701 156.356L289.241 155.616L287.971 154.876L287.431 155.616Z" fill="#444444"/>
<path d="M287.991 154.846L289.261 155.586L289.881 154.746L288.611 154.006L287.991 154.846Z" fill="#444444"/>
<path d="M291.5 157.997L292.61 158.647L293.16 157.907H293.14L291.5 157.997Z" fill="#444444"/>
<path d="M290.611 156.376L291.751 157.046L292.37 156.206L291.221 155.536L290.611 156.376Z" fill="#444444"/>
<path d="M291.25 155.506L292.39 156.176L293.01 155.336L291.86 154.666L291.25 155.506Z" fill="#444444"/>
<path d="M289.271 153.106L290.541 153.846L291.081 153.116L289.821 152.376L289.271 153.106Z" fill="#444444"/>
<path d="M292.65 156.366L292.031 157.206L293.18 157.876L293.8 157.046L292.65 156.366Z" fill="#444444"/>
<path d="M294.44 156.176L293.29 155.506L292.67 156.336L293.82 157.006L294.44 156.176Z" fill="#444444"/>
<path d="M275.789 165.452L265.07 159.172L265.48 159.792L275.929 165.902L281.039 158.962L281.079 158.271L275.789 165.452Z" fill="#0078AA"/>
<path d="M265.58 159.142L266.66 159.782L267.2 159.052L265.58 159.142Z" fill="#444444"/>
<path d="M267.97 160.542L268.51 159.802L267.24 159.062L266.7 159.802L267.97 160.542Z" fill="#444444"/>
<path d="M266.7 157.502L266.08 158.342L267.23 159.012L267.84 158.172L266.7 157.502Z" fill="#444444"/>
<path d="M268.01 160.562L269.27 161.302L269.82 160.572L268.55 159.832L268.01 160.562Z" fill="#444444"/>
<path d="M269.88 160.562L271.03 161.232L271.64 160.392L270.5 159.722L269.88 160.562Z" fill="#444444"/>
<path d="M269.84 160.542L270.46 159.702L269.19 158.962L268.57 159.792L269.84 160.542Z" fill="#444444"/>
<path d="M267.87 158.143L268.48 157.303L267.34 156.633L266.72 157.473L267.87 158.143Z" fill="#444444"/>
<path d="M269.31 161.333L270.46 162.003L271 161.263L269.86 160.593L269.31 161.333Z" fill="#444444"/>
<path d="M267.3 159.052L268.53 159.772L269.14 158.942L267.3 159.052Z" fill="#444444"/>
<path d="M269.15 158.943L267.88 158.193L267.27 159.033L267.3 159.053L269.14 158.943H269.15Z" fill="#444444"/>
<path d="M268.52 157.332L267.91 158.162L269.17 158.902L269.79 158.072L268.52 157.332Z" fill="#444444"/>
<path d="M267.9 155.862L269.05 156.532L268.51 157.272L267.36 156.602L267.9 155.862Z" fill="#444444"/>
<path d="M270.74 162.162L271.889 162.832L272.429 162.092L271.279 161.422L270.74 162.162Z" fill="#444444"/>
<path d="M269.23 158.942L270.48 159.672L271.09 158.832L269.23 158.942Z" fill="#444444"/>
<path d="M271.93 162.853L273.19 163.603L273.74 162.863L272.47 162.123L271.93 162.853Z" fill="#444444"/>
<path d="M273.069 161.233L271.92 160.562L271.31 161.393L272.449 162.063L273.069 161.233Z" fill="#444444"/>
<path d="M271.669 160.362L272.279 159.532L271.129 158.852L270.52 159.692L271.669 160.362Z" fill="#444444"/>
<path d="M270.39 157.322L269.85 158.062L271.12 158.802L271.66 158.062L270.39 157.322Z" fill="#444444"/>
<path d="M273.229 163.623L274.499 164.363L275.039 163.623L273.769 162.883L273.229 163.623Z" fill="#444444"/>
<path d="M272.49 162.092L273.759 162.832L274.379 161.992L273.109 161.252L272.49 162.092Z" fill="#444444"/>
<path d="M273.71 160.363L272.56 159.693L271.94 160.523L273.09 161.193L273.71 160.363Z" fill="#444444"/>
<path d="M269.79 155.542L270.4 154.702L269.25 154.032L268.64 154.862L269.79 155.542Z" fill="#444444"/>
<path d="M272.82 158.743L271.7 158.083L271.16 158.823L271.17 158.833L272.82 158.743Z" fill="#444444"/>
<path d="M271.17 158.832L272.31 159.492L272.85 158.762L272.82 158.742L271.17 158.832Z" fill="#444444"/>
<path d="M274.539 164.383L275.689 165.053L276.229 164.323L275.079 163.653L274.539 164.383Z" fill="#444444"/>
<path d="M273.8 162.852L275.069 163.592L275.679 162.752L274.41 162.012L273.8 162.852Z" fill="#444444"/>
<path d="M270.56 157.092L271.829 157.832L272.369 157.102L271.11 156.352L270.56 157.092Z" fill="#444444"/>
<path d="M275.01 161.122L273.75 160.382L273.13 161.222L274.4 161.962L275.01 161.122Z" fill="#444444"/>
<path d="M273.73 160.333L274.269 159.593L273.13 158.923L272.58 159.663L273.73 160.333Z" fill="#444444"/>
<path d="M270.42 154.672L271.04 153.832L269.89 153.162L269.28 154.002L270.42 154.672Z" fill="#444444"/>
<path d="M275.099 163.612L276.249 164.282L276.869 163.452L275.719 162.782L275.099 163.612Z" fill="#444444"/>
<path d="M272.41 157.122L271.87 157.862L273.02 158.532L273.56 157.792L272.41 157.122Z" fill="#444444"/>
<path d="M276.32 161.892L275.05 161.152L274.44 161.982L275.71 162.722L276.32 161.892Z" fill="#444444"/>
<path d="M271.09 158.832L269.83 158.092L269.21 158.932L269.23 158.942L271.09 158.832Z" fill="#444444"/>
<path d="M268.55 157.292L269.81 158.042L270.36 157.302L269.09 156.562L268.55 157.292Z" fill="#444444"/>
<path d="M269.22 156.312L269.76 155.572L268.61 154.902L268.07 155.632L269.22 156.312Z" fill="#444444"/>
<path d="M271.13 156.322L272.4 157.062L273.01 156.232L271.75 155.492L271.13 156.322Z" fill="#444444"/>
<path d="M275.579 160.353L274.309 159.613L273.769 160.353L275.039 161.093L275.579 160.353Z" fill="#444444"/>
<path d="M272.35 154.602L271.08 153.852L270.46 154.692L271.73 155.432L272.35 154.602Z" fill="#444444"/>
<path d="M276.889 161.122L275.62 160.382L275.08 161.112L276.34 161.852L276.889 161.122Z" fill="#444444"/>
<path d="M269.92 153.132L271.06 153.802L271.61 153.062L270.46 152.392L269.92 153.132Z" fill="#444444"/>
<path d="M274.969 158.622L273.84 157.952L273.3 158.692L273.33 158.712L274.969 158.622Z" fill="#444444"/>
<path d="M275.739 162.752L276.889 163.422L277.509 162.582L276.359 161.912L275.739 162.752Z" fill="#444444"/>
<path d="M273.649 155.362L272.379 154.622L271.77 155.452L273.039 156.202L273.649 155.362Z" fill="#444444"/>
<path d="M275.749 160.123L276.289 159.393L275.029 158.653L274.479 159.383L275.749 160.123Z" fill="#444444"/>
<path d="M277.089 160.913L278.239 161.583L278.789 160.843L277.639 160.173L277.089 160.913Z" fill="#444444"/>
<path d="M272.41 154.592L273.68 155.332L274.22 154.592L272.95 153.852L272.41 154.592Z" fill="#444444"/>
<path d="M277.599 160.153L276.329 159.413L275.789 160.153L277.059 160.893L277.599 160.153Z" fill="#444444"/>
<path d="M276.379 161.882L277.529 162.552L278.069 161.812L276.929 161.142L276.379 161.882Z" fill="#444444"/>
<path d="M275.049 158.613L276.319 159.363L276.929 158.523L276.909 158.513L275.049 158.613Z" fill="#444444"/>
<path d="M276.909 158.513L275.659 157.783L275.049 158.613L276.909 158.513Z" fill="#444444"/>
<path d="M273.719 155.352L274.859 156.022L275.409 155.282L274.259 154.612L273.719 155.352Z" fill="#444444"/>
<path d="M277.619 160.123L278.239 159.283L276.969 158.543L276.359 159.383L277.619 160.123Z" fill="#444444"/>
<path d="M276.299 156.912L275.689 157.752L276.959 158.492L277.569 157.652L276.299 156.912Z" fill="#444444"/>
<path d="M275.139 156.182L276.289 156.862L276.829 156.122L275.679 155.452L275.139 156.182Z" fill="#444444"/>
<path d="M279.429 159.982L278.279 159.312L277.659 160.142L278.809 160.812L279.429 159.982Z" fill="#444444"/>
<path d="M278.849 158.402L277.609 157.672L276.999 158.502L278.849 158.402Z" fill="#444444"/>
<path d="M276.989 158.512L278.259 159.252L278.879 158.422L278.849 158.402L276.999 158.502L276.989 158.512Z" fill="#444444"/>
<path d="M278.179 156.902L277.629 157.642L278.899 158.382L279.439 157.652L278.179 156.902Z" fill="#444444"/>
<path d="M276.329 156.882L277.589 157.622L278.139 156.882L276.869 156.142L276.329 156.882Z" fill="#444444"/>
<path d="M279.449 159.952L280.059 159.112L278.919 158.442L278.299 159.272L279.449 159.952Z" fill="#444444"/>
<path d="M278.939 158.412L280.089 159.082L280.629 158.342L280.569 158.302L278.949 158.392L278.939 158.412Z" fill="#444444"/>
<path d="M280.569 158.302L279.479 157.672L278.949 158.392L280.569 158.302Z" fill="#444444"/>
<path d="M266.06 158.372L267.2 159.042V159.052L265.58 159.142L265.51 159.102L266.06 158.372Z" fill="#444444"/>
<path d="M269.26 156.332L270.53 157.072L271.07 156.332L269.8 155.592L269.26 156.332Z" fill="#444444"/>
<path d="M269.82 155.562L271.09 156.302L271.71 155.462L270.44 154.722L269.82 155.562Z" fill="#444444"/>
<path d="M273.329 158.713L274.439 159.363L274.989 158.623H274.969L273.329 158.713Z" fill="#444444"/>
<path d="M272.44 157.093L273.58 157.763L274.2 156.923L273.05 156.253L272.44 157.093Z" fill="#444444"/>
<path d="M273.08 156.222L274.22 156.892L274.839 156.052L273.69 155.382L273.08 156.222Z" fill="#444444"/>
<path d="M271.1 153.822L272.37 154.562L272.91 153.832L271.65 153.092L271.1 153.822Z" fill="#444444"/>
<path d="M274.479 157.082L273.859 157.922L275.009 158.592L275.629 157.762L274.479 157.082Z" fill="#444444"/>
<path d="M276.269 156.893L275.119 156.223L274.499 157.053L275.649 157.723L276.269 156.893Z" fill="#444444"/>
<path d="M288.191 172.6L277.472 166.32L277.882 166.94L288.331 173.05L293.441 166.11L293.481 165.42L288.191 172.6Z" fill="#0078AA"/>
<path d="M277.982 166.29L279.062 166.93L279.602 166.2L277.982 166.29Z" fill="#444444"/>
<path d="M280.371 167.69L280.911 166.95L279.642 166.21L279.102 166.95L280.371 167.69Z" fill="#444444"/>
<path d="M279.102 164.65L278.482 165.49L279.632 166.16L280.242 165.32L279.102 164.65Z" fill="#444444"/>
<path d="M280.412 167.711L281.672 168.451L282.222 167.721L280.952 166.98L280.412 167.711Z" fill="#444444"/>
<path d="M282.281 167.71L283.431 168.38L284.041 167.54L282.901 166.87L282.281 167.71Z" fill="#444444"/>
<path d="M282.242 167.69L282.862 166.85L281.592 166.11L280.972 166.94L282.242 167.69Z" fill="#444444"/>
<path d="M280.272 165.29L280.881 164.45L279.742 163.78L279.122 164.62L280.272 165.29Z" fill="#444444"/>
<path d="M281.712 168.48L282.862 169.15L283.402 168.41L282.262 167.74L281.712 168.48Z" fill="#444444"/>
<path d="M279.702 166.201L280.932 166.921L281.542 166.091L279.702 166.201Z" fill="#444444"/>
<path d="M281.552 166.091L280.282 165.341L279.672 166.181L279.702 166.201L281.542 166.091H281.552Z" fill="#444444"/>
<path d="M280.922 164.48L280.312 165.311L281.572 166.051L282.192 165.221L280.922 164.48Z" fill="#444444"/>
<path d="M280.302 163.011L281.452 163.681L280.912 164.421L279.762 163.751L280.302 163.011Z" fill="#444444"/>
<path d="M283.141 169.31L284.291 169.98L284.831 169.24L283.681 168.57L283.141 169.31Z" fill="#444444"/>
<path d="M281.631 166.09L282.881 166.821L283.491 165.98L281.631 166.09Z" fill="#444444"/>
<path d="M284.332 170.001L285.591 170.751L286.141 170.011L284.871 169.271L284.332 170.001Z" fill="#444444"/>
<path d="M285.471 168.38L284.321 167.71L283.711 168.54L284.851 169.21L285.471 168.38Z" fill="#444444"/>
<path d="M284.071 167.51L284.681 166.68L283.531 166L282.921 166.84L284.071 167.51Z" fill="#444444"/>
<path d="M282.791 164.471L282.251 165.211L283.521 165.951L284.061 165.211L282.791 164.471Z" fill="#444444"/>
<path d="M285.631 170.77L286.901 171.51L287.441 170.77L286.171 170.03L285.631 170.77Z" fill="#444444"/>
<path d="M284.891 169.24L286.161 169.98L286.781 169.14L285.511 168.4L284.891 169.24Z" fill="#444444"/>
<path d="M286.111 167.511L284.962 166.841L284.342 167.671L285.492 168.341L286.111 167.511Z" fill="#444444"/>
<path d="M282.192 162.691L282.802 161.851L281.652 161.181L281.042 162.011L282.192 162.691Z" fill="#444444"/>
<path d="M285.221 165.891L284.101 165.23L283.562 165.971L283.572 165.981L285.221 165.891Z" fill="#444444"/>
<path d="M283.572 165.981L284.711 166.641L285.251 165.911L285.221 165.891L283.572 165.981Z" fill="#444444"/>
<path d="M286.941 171.531L288.091 172.201L288.631 171.471L287.481 170.801L286.941 171.531Z" fill="#444444"/>
<path d="M286.201 170L287.471 170.74L288.081 169.9L286.811 169.16L286.201 170Z" fill="#444444"/>
<path d="M282.961 164.24L284.231 164.98L284.771 164.25L283.511 163.5L282.961 164.24Z" fill="#444444"/>
<path d="M287.411 168.27L286.151 167.53L285.531 168.37L286.801 169.11L287.411 168.27Z" fill="#444444"/>
<path d="M286.131 167.48L286.671 166.74L285.531 166.07L284.981 166.81L286.131 167.48Z" fill="#444444"/>
<path d="M282.821 161.821L283.441 160.981L282.291 160.311L281.681 161.151L282.821 161.821Z" fill="#444444"/>
<path d="M287.501 170.761L288.651 171.431L289.271 170.601L288.121 169.931L287.501 170.761Z" fill="#444444"/>
<path d="M284.811 164.271L284.271 165.011L285.421 165.681L285.961 164.941L284.811 164.271Z" fill="#444444"/>
<path d="M288.721 169.041L287.451 168.301L286.841 169.131L288.111 169.871L288.721 169.041Z" fill="#444444"/>
<path d="M283.492 165.98L282.232 165.24L281.612 166.08L281.632 166.09L283.492 165.98Z" fill="#444444"/>
<path d="M280.952 164.44L282.212 165.19L282.762 164.45L281.492 163.71L280.952 164.44Z" fill="#444444"/>
<path d="M281.622 163.461L282.162 162.721L281.012 162.051L280.472 162.781L281.622 163.461Z" fill="#444444"/>
<path d="M283.531 163.471L284.801 164.211L285.411 163.381L284.151 162.641L283.531 163.471Z" fill="#444444"/>
<path d="M287.981 167.501L286.711 166.761L286.171 167.501L287.441 168.241L287.981 167.501Z" fill="#444444"/>
<path d="M284.751 161.75L283.482 161L282.862 161.84L284.131 162.58L284.751 161.75Z" fill="#444444"/>
<path d="M289.291 168.27L288.021 167.53L287.481 168.26L288.741 169L289.291 168.27Z" fill="#444444"/>
<path d="M282.322 160.28L283.461 160.95L284.011 160.21L282.862 159.54L282.322 160.28Z" fill="#444444"/>
<path d="M287.371 165.771L286.241 165.101L285.701 165.841L285.731 165.861L287.371 165.771Z" fill="#444444"/>
<path d="M288.141 169.901L289.291 170.571L289.911 169.731L288.761 169.061L288.141 169.901Z" fill="#444444"/>
<path d="M286.051 162.511L284.781 161.771L284.171 162.601L285.441 163.351L286.051 162.511Z" fill="#444444"/>
<path d="M288.151 167.271L288.691 166.541L287.431 165.801L286.881 166.531L288.151 167.271Z" fill="#444444"/>
<path d="M289.491 168.06L290.641 168.73L291.191 167.99L290.041 167.32L289.491 168.06Z" fill="#444444"/>
<path d="M284.812 161.74L286.081 162.48L286.621 161.74L285.351 161L284.812 161.74Z" fill="#444444"/>
<path d="M290.001 167.301L288.731 166.561L288.191 167.301L289.461 168.041L290.001 167.301Z" fill="#444444"/>
<path d="M288.781 169.03L289.931 169.7L290.471 168.96L289.331 168.29L288.781 169.03Z" fill="#444444"/>
<path d="M287.451 165.76L288.721 166.51L289.331 165.67L289.311 165.66L287.451 165.76Z" fill="#444444"/>
<path d="M289.311 165.661L288.061 164.931L287.451 165.761L289.311 165.661Z" fill="#444444"/>
<path d="M286.121 162.501L287.261 163.171L287.811 162.431L286.661 161.761L286.121 162.501Z" fill="#444444"/>
<path d="M290.021 167.271L290.641 166.43L289.371 165.69L288.761 166.53L290.021 167.271Z" fill="#444444"/>
<path d="M288.701 164.061L288.091 164.901L289.361 165.641L289.971 164.801L288.701 164.061Z" fill="#444444"/>
<path d="M287.541 163.331L288.691 164.011L289.231 163.271L288.081 162.601L287.541 163.331Z" fill="#444444"/>
<path d="M291.831 167.13L290.681 166.46L290.061 167.29L291.211 167.96L291.831 167.13Z" fill="#444444"/>
<path d="M291.251 165.55L290.011 164.82L289.401 165.65L291.251 165.55Z" fill="#444444"/>
<path d="M289.391 165.661L290.661 166.401L291.281 165.571L291.251 165.551L289.401 165.651L289.391 165.661Z" fill="#444444"/>
<path d="M290.581 164.051L290.031 164.791L291.301 165.531L291.841 164.801L290.581 164.051Z" fill="#444444"/>
<path d="M288.731 164.03L289.991 164.77L290.541 164.03L289.271 163.29L288.731 164.03Z" fill="#444444"/>
<path d="M291.851 167.101L292.461 166.261L291.321 165.591L290.701 166.421L291.851 167.101Z" fill="#444444"/>
<path d="M291.341 165.56L292.491 166.23L293.031 165.49L292.971 165.45L291.351 165.54L291.341 165.56Z" fill="#444444"/>
<path d="M292.971 165.45L291.881 164.82L291.351 165.54L292.971 165.45Z" fill="#444444"/>
<path d="M278.462 165.521L279.602 166.191V166.201L277.982 166.291L277.912 166.251L278.462 165.521Z" fill="#444444"/>
<path d="M281.661 163.48L282.931 164.22L283.471 163.48L282.201 162.74L281.661 163.48Z" fill="#444444"/>
<path d="M282.222 162.71L283.492 163.45L284.112 162.61L282.842 161.87L282.222 162.71Z" fill="#444444"/>
<path d="M285.731 165.861L286.841 166.511L287.391 165.771H287.371L285.731 165.861Z" fill="#444444"/>
<path d="M284.842 164.24L285.981 164.91L286.601 164.07L285.452 163.4L284.842 164.24Z" fill="#444444"/>
<path d="M285.481 163.37L286.621 164.04L287.241 163.2L286.091 162.53L285.481 163.37Z" fill="#444444"/>
<path d="M283.501 160.97L284.771 161.71L285.311 160.98L284.051 160.24L283.501 160.97Z" fill="#444444"/>
<path d="M286.881 164.23L286.261 165.071L287.411 165.741L288.031 164.911L286.881 164.23Z" fill="#444444"/>
<path d="M288.671 164.04L287.521 163.37L286.901 164.2L288.051 164.87L288.671 164.04Z" fill="#444444"/>
<path d="M333.619 127.94L322.9 121.66L323.31 122.28L333.759 128.39L338.869 121.45L338.909 120.76L333.619 127.94Z" fill="#0078AA"/>
<path d="M323.409 121.631L324.489 122.271L325.029 121.541L323.409 121.631Z" fill="#444444"/>
<path d="M325.799 123.031L326.339 122.291L325.069 121.551L324.529 122.291L325.799 123.031Z" fill="#444444"/>
<path d="M324.529 119.991L323.909 120.831L325.059 121.501L325.669 120.661L324.529 119.991Z" fill="#444444"/>
<path d="M325.839 123.051L327.099 123.791L327.649 123.061L326.379 122.321L325.839 123.051Z" fill="#444444"/>
<path d="M327.709 123.051L328.859 123.721L329.469 122.881L328.329 122.211L327.709 123.051Z" fill="#444444"/>
<path d="M327.669 123.031L328.289 122.191L327.019 121.451L326.399 122.281L327.669 123.031Z" fill="#444444"/>
<path d="M325.699 120.631L326.309 119.791L325.169 119.121L324.549 119.961L325.699 120.631Z" fill="#444444"/>
<path d="M327.139 123.821L328.289 124.491L328.829 123.751L327.689 123.081L327.139 123.821Z" fill="#444444"/>
<path d="M325.129 121.542L326.359 122.262L326.969 121.432L325.129 121.542Z" fill="#444444"/>
<path d="M326.979 121.433L325.709 120.683L325.099 121.523L325.129 121.543L326.969 121.433H326.979Z" fill="#444444"/>
<path d="M326.349 119.821L325.74 120.651L326.999 121.391L327.619 120.561L326.349 119.821Z" fill="#444444"/>
<path d="M325.729 118.352L326.879 119.022L326.339 119.762L325.189 119.092L325.729 118.352Z" fill="#444444"/>
<path d="M328.569 124.651L329.719 125.321L330.259 124.581L329.109 123.911L328.569 124.651Z" fill="#444444"/>
<path d="M327.059 121.431L328.309 122.161L328.919 121.321L327.059 121.431Z" fill="#444444"/>
<path d="M329.759 125.341L331.019 126.091L331.569 125.351L330.299 124.611L329.759 125.341Z" fill="#444444"/>
<path d="M330.899 123.721L329.749 123.051L329.139 123.881L330.279 124.551L330.899 123.721Z" fill="#444444"/>
<path d="M329.499 122.851L330.109 122.021L328.959 121.341L328.349 122.181L329.499 122.851Z" fill="#444444"/>
<path d="M328.219 119.812L327.679 120.552L328.949 121.292L329.489 120.552L328.219 119.812Z" fill="#444444"/>
<path d="M331.059 126.112L332.329 126.852L332.869 126.112L331.599 125.372L331.059 126.112Z" fill="#444444"/>
<path d="M330.319 124.581L331.589 125.321L332.209 124.481L330.939 123.741L330.319 124.581Z" fill="#444444"/>
<path d="M331.539 122.853L330.389 122.183L329.769 123.013L330.919 123.683L331.539 122.853Z" fill="#444444"/>
<path d="M327.619 118.032L328.229 117.192L327.079 116.521L326.469 117.352L327.619 118.032Z" fill="#444444"/>
<path d="M330.649 121.231L329.529 120.571L328.989 121.311L328.999 121.321L330.649 121.231Z" fill="#444444"/>
<path d="M328.999 121.321L330.139 121.981L330.679 121.251L330.649 121.231L328.999 121.321Z" fill="#444444"/>
<path d="M332.369 126.873L333.519 127.543L334.059 126.813L332.909 126.143L332.369 126.873Z" fill="#444444"/>
<path d="M331.629 125.341L332.899 126.081L333.509 125.241L332.239 124.501L331.629 125.341Z" fill="#444444"/>
<path d="M328.389 119.581L329.659 120.321L330.199 119.591L328.939 118.841L328.389 119.581Z" fill="#444444"/>
<path d="M332.839 123.611L331.579 122.871L330.959 123.711L332.229 124.451L332.839 123.611Z" fill="#444444"/>
<path d="M331.559 122.822L332.099 122.082L330.959 121.412L330.409 122.152L331.559 122.822Z" fill="#444444"/>
<path d="M328.249 117.161L328.869 116.321L327.719 115.651L327.109 116.491L328.249 117.161Z" fill="#444444"/>
<path d="M332.929 126.102L334.079 126.772L334.699 125.942L333.549 125.271L332.929 126.102Z" fill="#444444"/>
<path d="M330.239 119.611L329.699 120.351L330.849 121.021L331.389 120.281L330.239 119.611Z" fill="#444444"/>
<path d="M334.149 124.382L332.879 123.642L332.269 124.472L333.539 125.212L334.149 124.382Z" fill="#444444"/>
<path d="M328.919 121.321L327.66 120.581L327.04 121.421L327.06 121.431L328.919 121.321Z" fill="#444444"/>
<path d="M326.379 119.781L327.639 120.531L328.189 119.791L326.919 119.051L326.379 119.781Z" fill="#444444"/>
<path d="M327.049 118.802L327.589 118.062L326.439 117.392L325.899 118.122L327.049 118.802Z" fill="#444444"/>
<path d="M328.959 118.811L330.229 119.552L330.839 118.721L329.579 117.981L328.959 118.811Z" fill="#444444"/>
<path d="M333.409 122.843L332.139 122.103L331.599 122.843L332.869 123.583L333.409 122.843Z" fill="#444444"/>
<path d="M330.179 117.091L328.909 116.341L328.289 117.181L329.559 117.921L330.179 117.091Z" fill="#444444"/>
<path d="M334.719 123.611L333.449 122.871L332.909 123.601L334.169 124.341L334.719 123.611Z" fill="#444444"/>
<path d="M327.749 115.621L328.889 116.291L329.439 115.551L328.289 114.881L327.749 115.621Z" fill="#444444"/>
<path d="M332.799 121.111L331.669 120.441L331.129 121.181L331.159 121.201L332.799 121.111Z" fill="#444444"/>
<path d="M333.569 125.241L334.719 125.911L335.339 125.071L334.189 124.401L333.569 125.241Z" fill="#444444"/>
<path d="M331.479 117.851L330.209 117.111L329.599 117.941L330.869 118.691L331.479 117.851Z" fill="#444444"/>
<path d="M333.579 122.613L334.119 121.883L332.859 121.143L332.309 121.873L333.579 122.613Z" fill="#444444"/>
<path d="M334.919 123.402L336.069 124.072L336.619 123.332L335.469 122.662L334.919 123.402Z" fill="#444444"/>
<path d="M330.239 117.081L331.509 117.821L332.049 117.081L330.779 116.341L330.239 117.081Z" fill="#444444"/>
<path d="M335.429 122.642L334.159 121.902L333.619 122.642L334.889 123.382L335.429 122.642Z" fill="#444444"/>
<path d="M334.209 124.371L335.359 125.041L335.899 124.301L334.759 123.631L334.209 124.371Z" fill="#444444"/>
<path d="M332.879 121.102L334.149 121.852L334.759 121.012L334.739 121.002L332.879 121.102Z" fill="#444444"/>
<path d="M334.739 121.002L333.489 120.271L332.879 121.102L334.739 121.002Z" fill="#444444"/>
<path d="M331.549 117.842L332.689 118.512L333.239 117.772L332.089 117.102L331.549 117.842Z" fill="#444444"/>
<path d="M335.449 122.612L336.069 121.772L334.799 121.032L334.189 121.872L335.449 122.612Z" fill="#444444"/>
<path d="M334.129 119.401L333.519 120.241L334.789 120.981L335.399 120.141L334.129 119.401Z" fill="#444444"/>
<path d="M332.969 118.671L334.119 119.351L334.659 118.611L333.509 117.941L332.969 118.671Z" fill="#444444"/>
<path d="M337.259 122.471L336.109 121.801L335.489 122.631L336.639 123.301L337.259 122.471Z" fill="#444444"/>
<path d="M336.679 120.891L335.439 120.161L334.829 120.991L336.679 120.891Z" fill="#444444"/>
<path d="M334.819 121.002L336.089 121.742L336.708 120.912L336.678 120.892L334.829 120.992L334.819 121.002Z" fill="#444444"/>
<path d="M336.009 119.392L335.459 120.132L336.729 120.872L337.269 120.142L336.009 119.392Z" fill="#444444"/>
<path d="M334.159 119.371L335.419 120.111L335.969 119.371L334.699 118.631L334.159 119.371Z" fill="#444444"/>
<path d="M337.279 122.442L337.889 121.602L336.749 120.932L336.129 121.762L337.279 122.442Z" fill="#444444"/>
<path d="M336.769 120.901L337.919 121.571L338.459 120.831L338.399 120.791L336.779 120.881L336.769 120.901Z" fill="#444444"/>
<path d="M338.398 120.791L337.309 120.161L336.779 120.881L338.398 120.791Z" fill="#444444"/>
<path d="M323.89 120.861L325.029 121.531V121.541L323.41 121.631L323.34 121.591L323.89 120.861Z" fill="#444444"/>
<path d="M327.089 118.821L328.359 119.561L328.899 118.821L327.629 118.081L327.089 118.821Z" fill="#444444"/>
<path d="M327.649 118.051L328.919 118.791L329.539 117.951L328.269 117.211L327.649 118.051Z" fill="#444444"/>
<path d="M331.159 121.202L332.269 121.852L332.819 121.112H332.799L331.159 121.202Z" fill="#444444"/>
<path d="M330.269 119.581L331.409 120.251L332.029 119.411L330.879 118.741L330.269 119.581Z" fill="#444444"/>
<path d="M330.909 118.711L332.049 119.381L332.669 118.541L331.519 117.871L330.909 118.711Z" fill="#444444"/>
<path d="M328.929 116.311L330.199 117.051L330.739 116.321L329.479 115.581L328.929 116.311Z" fill="#444444"/>
<path d="M332.309 119.571L331.689 120.411L332.839 121.081L333.459 120.251L332.309 119.571Z" fill="#444444"/>
<path d="M334.099 119.381L332.949 118.711L332.329 119.541L333.479 120.211L334.099 119.381Z" fill="#444444"/>
<path d="M346.01 135.095L335.291 128.815L335.701 129.435L346.15 135.545L351.26 128.605L351.3 127.915L346.01 135.095Z" fill="#0078AA"/>
<path d="M335.801 128.786L336.881 129.426L337.421 128.696L335.801 128.786Z" fill="#444444"/>
<path d="M338.191 130.186L338.731 129.446L337.461 128.706L336.921 129.446L338.191 130.186Z" fill="#444444"/>
<path d="M336.921 127.146L336.301 127.987L337.451 128.657L338.061 127.817L336.921 127.146Z" fill="#444444"/>
<path d="M338.231 130.207L339.491 130.947L340.041 130.217L338.771 129.477L338.231 130.207Z" fill="#444444"/>
<path d="M340.101 130.206L341.251 130.876L341.861 130.036L340.721 129.366L340.101 130.206Z" fill="#444444"/>
<path d="M340.061 130.187L340.681 129.346L339.411 128.606L338.791 129.436L340.061 130.187Z" fill="#444444"/>
<path d="M338.091 127.786L338.701 126.946L337.561 126.276L336.941 127.116L338.091 127.786Z" fill="#444444"/>
<path d="M339.531 130.976L340.681 131.646L341.221 130.906L340.081 130.236L339.531 130.976Z" fill="#444444"/>
<path d="M337.521 128.697L338.751 129.417L339.361 128.587L337.521 128.697Z" fill="#444444"/>
<path d="M339.371 128.588L338.101 127.838L337.491 128.678L337.521 128.698L339.361 128.588H339.371Z" fill="#444444"/>
<path d="M338.741 126.977L338.131 127.807L339.391 128.547L340.011 127.717L338.741 126.977Z" fill="#444444"/>
<path d="M338.121 125.507L339.271 126.177L338.731 126.917L337.581 126.247L338.121 125.507Z" fill="#444444"/>
<path d="M340.961 131.806L342.111 132.476L342.651 131.736L341.501 131.066L340.961 131.806Z" fill="#444444"/>
<path d="M339.451 128.587L340.701 129.317L341.311 128.477L339.451 128.587Z" fill="#444444"/>
<path d="M342.151 132.497L343.411 133.247L343.961 132.507L342.691 131.767L342.151 132.497Z" fill="#444444"/>
<path d="M343.291 130.876L342.141 130.206L341.531 131.036L342.671 131.706L343.291 130.876Z" fill="#444444"/>
<path d="M341.891 130.006L342.501 129.176L341.351 128.496L340.741 129.336L341.891 130.006Z" fill="#444444"/>
<path d="M340.611 126.967L340.071 127.707L341.341 128.447L341.881 127.707L340.611 126.967Z" fill="#444444"/>
<path d="M343.45 133.267L344.72 134.007L345.26 133.267L343.99 132.527L343.45 133.267Z" fill="#444444"/>
<path d="M342.711 131.737L343.981 132.477L344.601 131.637L343.331 130.896L342.711 131.737Z" fill="#444444"/>
<path d="M343.931 130.008L342.781 129.338L342.161 130.168L343.311 130.838L343.931 130.008Z" fill="#444444"/>
<path d="M340.011 125.187L340.621 124.347L339.471 123.677L338.861 124.507L340.011 125.187Z" fill="#444444"/>
<path d="M343.041 128.387L341.921 127.727L341.381 128.467L341.391 128.477L343.041 128.387Z" fill="#444444"/>
<path d="M341.391 128.477L342.531 129.137L343.071 128.407L343.041 128.387L341.391 128.477Z" fill="#444444"/>
<path d="M344.76 134.028L345.91 134.698L346.45 133.968L345.3 133.298L344.76 134.028Z" fill="#444444"/>
<path d="M344.021 132.496L345.29 133.236L345.9 132.396L344.63 131.656L344.021 132.496Z" fill="#444444"/>
<path d="M340.781 126.736L342.051 127.476L342.591 126.746L341.331 125.996L340.781 126.736Z" fill="#444444"/>
<path d="M345.23 130.766L343.971 130.026L343.351 130.866L344.621 131.606L345.23 130.766Z" fill="#444444"/>
<path d="M343.951 129.977L344.491 129.237L343.351 128.567L342.801 129.307L343.951 129.977Z" fill="#444444"/>
<path d="M340.641 124.317L341.261 123.477L340.111 122.807L339.501 123.647L340.641 124.317Z" fill="#444444"/>
<path d="M345.32 133.257L346.47 133.927L347.09 133.097L345.94 132.427L345.32 133.257Z" fill="#444444"/>
<path d="M342.631 126.767L342.091 127.507L343.24 128.177L343.78 127.437L342.631 126.767Z" fill="#444444"/>
<path d="M346.541 131.537L345.271 130.797L344.661 131.627L345.931 132.367L346.541 131.537Z" fill="#444444"/>
<path d="M341.311 128.476L340.051 127.736L339.431 128.576L339.451 128.586L341.311 128.476Z" fill="#444444"/>
<path d="M338.771 126.936L340.031 127.686L340.581 126.946L339.311 126.206L338.771 126.936Z" fill="#444444"/>
<path d="M339.441 125.957L339.981 125.217L338.831 124.547L338.291 125.277L339.441 125.957Z" fill="#444444"/>
<path d="M341.351 125.967L342.621 126.707L343.231 125.877L341.971 125.137L341.351 125.967Z" fill="#444444"/>
<path d="M345.8 129.997L344.53 129.257L343.99 129.997L345.26 130.737L345.8 129.997Z" fill="#444444"/>
<path d="M342.571 124.246L341.301 123.496L340.681 124.336L341.951 125.076L342.571 124.246Z" fill="#444444"/>
<path d="M347.11 130.766L345.841 130.026L345.301 130.756L346.56 131.496L347.11 130.766Z" fill="#444444"/>
<path d="M340.141 122.776L341.281 123.446L341.831 122.706L340.681 122.036L340.141 122.776Z" fill="#444444"/>
<path d="M345.19 128.267L344.06 127.597L343.521 128.337L343.551 128.357L345.19 128.267Z" fill="#444444"/>
<path d="M345.96 132.397L347.11 133.067L347.73 132.227L346.58 131.557L345.96 132.397Z" fill="#444444"/>
<path d="M343.871 125.007L342.601 124.267L341.991 125.097L343.261 125.847L343.871 125.007Z" fill="#444444"/>
<path d="M345.97 129.768L346.51 129.038L345.25 128.298L344.7 129.028L345.97 129.768Z" fill="#444444"/>
<path d="M347.31 130.557L348.46 131.227L349.01 130.487L347.86 129.817L347.31 130.557Z" fill="#444444"/>
<path d="M342.631 124.236L343.901 124.976L344.441 124.236L343.171 123.496L342.631 124.236Z" fill="#444444"/>
<path d="M347.82 129.798L346.55 129.058L346.01 129.798L347.28 130.538L347.82 129.798Z" fill="#444444"/>
<path d="M346.6 131.526L347.75 132.196L348.29 131.456L347.15 130.786L346.6 131.526Z" fill="#444444"/>
<path d="M345.271 128.257L346.54 129.007L347.15 128.167L347.13 128.157L345.271 128.257Z" fill="#444444"/>
<path d="M347.13 128.157L345.88 127.427L345.271 128.257L347.13 128.157Z" fill="#444444"/>
<path d="M343.94 124.997L345.08 125.667L345.63 124.927L344.48 124.257L343.94 124.997Z" fill="#444444"/>
<path d="M347.84 129.768L348.46 128.928L347.19 128.188L346.58 129.028L347.84 129.768Z" fill="#444444"/>
<path d="M346.521 126.557L345.911 127.397L347.181 128.137L347.791 127.297L346.521 126.557Z" fill="#444444"/>
<path d="M345.361 125.827L346.511 126.507L347.05 125.767L345.901 125.097L345.361 125.827Z" fill="#444444"/>
<path d="M349.65 129.626L348.5 128.956L347.88 129.786L349.03 130.456L349.65 129.626Z" fill="#444444"/>
<path d="M349.07 128.046L347.83 127.316L347.22 128.146L349.07 128.046Z" fill="#444444"/>
<path d="M347.21 128.157L348.48 128.897L349.1 128.067L349.07 128.047L347.22 128.147L347.21 128.157Z" fill="#444444"/>
<path d="M348.4 126.547L347.85 127.287L349.12 128.027L349.66 127.297L348.4 126.547Z" fill="#444444"/>
<path d="M346.55 126.526L347.81 127.266L348.36 126.526L347.09 125.786L346.55 126.526Z" fill="#444444"/>
<path d="M349.67 129.597L350.28 128.757L349.14 128.087L348.52 128.917L349.67 129.597Z" fill="#444444"/>
<path d="M349.16 128.056L350.31 128.726L350.85 127.986L350.79 127.946L349.17 128.036L349.16 128.056Z" fill="#444444"/>
<path d="M350.79 127.946L349.7 127.316L349.17 128.036L350.79 127.946Z" fill="#444444"/>
<path d="M336.281 128.017L337.421 128.687V128.697L335.801 128.787L335.731 128.747L336.281 128.017Z" fill="#444444"/>
<path d="M339.481 125.976L340.751 126.716L341.291 125.976L340.021 125.236L339.481 125.976Z" fill="#444444"/>
<path d="M340.041 125.206L341.311 125.946L341.931 125.106L340.661 124.366L340.041 125.206Z" fill="#444444"/>
<path d="M343.551 128.358L344.66 129.008L345.21 128.268H345.19L343.551 128.358Z" fill="#444444"/>
<path d="M342.661 126.737L343.801 127.407L344.421 126.567L343.271 125.896L342.661 126.737Z" fill="#444444"/>
<path d="M343.301 125.866L344.44 126.536L345.06 125.696L343.91 125.026L343.301 125.866Z" fill="#444444"/>
<path d="M341.321 123.466L342.591 124.206L343.131 123.476L341.871 122.736L341.321 123.466Z" fill="#444444"/>
<path d="M344.701 126.727L344.081 127.567L345.23 128.237L345.85 127.407L344.701 126.727Z" fill="#444444"/>
<path d="M346.49 126.536L345.34 125.866L344.72 126.696L345.87 127.366L346.49 126.536Z" fill="#444444"/>
<path d="M327.839 135.812L317.12 129.532L317.53 130.152L327.979 136.262L333.089 129.322L333.129 128.632L327.839 135.812Z" fill="#0078AA"/>
<path d="M317.63 129.502L318.71 130.142L319.25 129.412L317.63 129.502Z" fill="#444444"/>
<path d="M320.02 130.902L320.56 130.162L319.29 129.422L318.75 130.162L320.02 130.902Z" fill="#444444"/>
<path d="M318.75 127.862L318.13 128.702L319.28 129.372L319.89 128.532L318.75 127.862Z" fill="#444444"/>
<path d="M320.06 130.922L321.32 131.662L321.87 130.932L320.6 130.192L320.06 130.922Z" fill="#444444"/>
<path d="M321.93 130.922L323.08 131.592L323.69 130.752L322.55 130.082L321.93 130.922Z" fill="#444444"/>
<path d="M321.89 130.902L322.51 130.062L321.24 129.322L320.62 130.152L321.89 130.902Z" fill="#444444"/>
<path d="M319.92 128.503L320.53 127.663L319.39 126.993L318.77 127.833L319.92 128.503Z" fill="#444444"/>
<path d="M321.36 131.693L322.51 132.363L323.05 131.623L321.91 130.953L321.36 131.693Z" fill="#444444"/>
<path d="M319.35 129.413L320.58 130.133L321.19 129.303L319.35 129.413Z" fill="#444444"/>
<path d="M321.2 129.304L319.93 128.554L319.32 129.394L319.35 129.414L321.19 129.304H321.2Z" fill="#444444"/>
<path d="M320.57 127.692L319.96 128.522L321.22 129.262L321.84 128.432L320.57 127.692Z" fill="#444444"/>
<path d="M319.95 126.223L321.1 126.893L320.56 127.633L319.41 126.963L319.95 126.223Z" fill="#444444"/>
<path d="M322.79 132.522L323.939 133.192L324.479 132.452L323.329 131.782L322.79 132.522Z" fill="#444444"/>
<path d="M321.28 129.302L322.53 130.032L323.14 129.192L321.28 129.302Z" fill="#444444"/>
<path d="M323.98 133.213L325.24 133.963L325.79 133.223L324.52 132.483L323.98 133.213Z" fill="#444444"/>
<path d="M325.119 131.593L323.97 130.923L323.36 131.753L324.5 132.423L325.119 131.593Z" fill="#444444"/>
<path d="M323.72 130.722L324.329 129.892L323.18 129.212L322.57 130.052L323.72 130.722Z" fill="#444444"/>
<path d="M322.44 127.683L321.9 128.423L323.17 129.163L323.71 128.423L322.44 127.683Z" fill="#444444"/>
<path d="M325.28 133.983L326.549 134.723L327.089 133.983L325.82 133.243L325.28 133.983Z" fill="#444444"/>
<path d="M324.54 132.452L325.809 133.192L326.429 132.352L325.16 131.612L324.54 132.452Z" fill="#444444"/>
<path d="M325.76 130.724L324.61 130.054L323.99 130.884L325.14 131.554L325.76 130.724Z" fill="#444444"/>
<path d="M321.84 125.903L322.45 125.063L321.3 124.393L320.69 125.223L321.84 125.903Z" fill="#444444"/>
<path d="M324.87 129.103L323.75 128.443L323.21 129.183L323.22 129.193L324.87 129.103Z" fill="#444444"/>
<path d="M323.22 129.193L324.36 129.853L324.9 129.123L324.87 129.103L323.22 129.193Z" fill="#444444"/>
<path d="M326.589 134.744L327.739 135.414L328.279 134.684L327.129 134.014L326.589 134.744Z" fill="#444444"/>
<path d="M325.85 133.212L327.12 133.952L327.729 133.112L326.46 132.372L325.85 133.212Z" fill="#444444"/>
<path d="M322.61 127.452L323.88 128.192L324.42 127.462L323.16 126.712L322.61 127.452Z" fill="#444444"/>
<path d="M327.06 131.482L325.8 130.742L325.18 131.582L326.45 132.322L327.06 131.482Z" fill="#444444"/>
<path d="M325.78 130.693L326.32 129.953L325.18 129.283L324.63 130.023L325.78 130.693Z" fill="#444444"/>
<path d="M322.47 125.033L323.09 124.192L321.94 123.522L321.33 124.363L322.47 125.033Z" fill="#444444"/>
<path d="M327.149 133.973L328.299 134.643L328.919 133.813L327.769 133.143L327.149 133.973Z" fill="#444444"/>
<path d="M324.46 127.482L323.92 128.222L325.07 128.892L325.61 128.152L324.46 127.482Z" fill="#444444"/>
<path d="M328.37 132.253L327.1 131.513L326.49 132.343L327.76 133.083L328.37 132.253Z" fill="#444444"/>
<path d="M323.14 129.192L321.88 128.452L321.26 129.292L321.28 129.302L323.14 129.192Z" fill="#444444"/>
<path d="M320.6 127.652L321.86 128.402L322.41 127.662L321.14 126.922L320.6 127.652Z" fill="#444444"/>
<path d="M321.27 126.673L321.81 125.933L320.66 125.263L320.12 125.993L321.27 126.673Z" fill="#444444"/>
<path d="M323.18 126.683L324.45 127.423L325.06 126.593L323.8 125.853L323.18 126.683Z" fill="#444444"/>
<path d="M327.629 130.714L326.359 129.974L325.819 130.714L327.089 131.454L327.629 130.714Z" fill="#444444"/>
<path d="M324.4 124.962L323.13 124.212L322.51 125.052L323.78 125.792L324.4 124.962Z" fill="#444444"/>
<path d="M328.94 131.482L327.67 130.742L327.13 131.472L328.39 132.212L328.94 131.482Z" fill="#444444"/>
<path d="M321.97 123.492L323.11 124.162L323.66 123.422L322.51 122.752L321.97 123.492Z" fill="#444444"/>
<path d="M327.019 128.983L325.89 128.312L325.35 129.053L325.38 129.073L327.019 128.983Z" fill="#444444"/>
<path d="M327.789 133.113L328.939 133.783L329.559 132.942L328.409 132.272L327.789 133.113Z" fill="#444444"/>
<path d="M325.699 125.722L324.43 124.982L323.82 125.812L325.089 126.563L325.699 125.722Z" fill="#444444"/>
<path d="M327.799 130.484L328.339 129.754L327.079 129.014L326.53 129.744L327.799 130.484Z" fill="#444444"/>
<path d="M329.139 131.273L330.289 131.943L330.839 131.203L329.689 130.533L329.139 131.273Z" fill="#444444"/>
<path d="M324.46 124.952L325.73 125.692L326.27 124.952L325 124.212L324.46 124.952Z" fill="#444444"/>
<path d="M329.649 130.513L328.379 129.773L327.839 130.513L329.109 131.254L329.649 130.513Z" fill="#444444"/>
<path d="M328.429 132.242L329.579 132.912L330.119 132.172L328.979 131.502L328.429 132.242Z" fill="#444444"/>
<path d="M327.099 128.973L328.369 129.723L328.979 128.883L328.959 128.873L327.099 128.973Z" fill="#444444"/>
<path d="M328.959 128.874L327.709 128.144L327.099 128.974L328.959 128.874Z" fill="#444444"/>
<path d="M325.77 125.713L326.909 126.383L327.459 125.643L326.31 124.973L325.77 125.713Z" fill="#444444"/>
<path d="M329.669 130.483L330.289 129.643L329.019 128.903L328.409 129.743L329.669 130.483Z" fill="#444444"/>
<path d="M328.349 127.272L327.74 128.113L329.009 128.853L329.619 128.013L328.349 127.272Z" fill="#444444"/>
<path d="M327.189 126.543L328.339 127.223L328.879 126.483L327.729 125.812L327.189 126.543Z" fill="#444444"/>
<path d="M331.479 130.342L330.329 129.672L329.709 130.502L330.859 131.172L331.479 130.342Z" fill="#444444"/>
<path d="M330.899 128.762L329.659 128.032L329.049 128.862L330.899 128.762Z" fill="#444444"/>
<path d="M329.039 128.873L330.309 129.613L330.929 128.783L330.899 128.763L329.049 128.863L329.039 128.873Z" fill="#444444"/>
<path d="M330.229 127.263L329.679 128.003L330.949 128.743L331.489 128.013L330.229 127.263Z" fill="#444444"/>
<path d="M328.379 127.242L329.639 127.982L330.189 127.242L328.919 126.502L328.379 127.242Z" fill="#444444"/>
<path d="M331.499 130.313L332.109 129.473L330.969 128.803L330.349 129.633L331.499 130.313Z" fill="#444444"/>
<path d="M330.989 128.772L332.139 129.442L332.679 128.702L332.619 128.662L330.999 128.752L330.989 128.772Z" fill="#444444"/>
<path d="M332.619 128.662L331.529 128.032L330.999 128.752L332.619 128.662Z" fill="#444444"/>
<path d="M318.11 128.732L319.25 129.402V129.412L317.63 129.502L317.56 129.462L318.11 128.732Z" fill="#444444"/>
<path d="M321.31 126.692L322.58 127.432L323.12 126.692L321.85 125.952L321.31 126.692Z" fill="#444444"/>
<path d="M321.87 125.922L323.14 126.662L323.76 125.822L322.49 125.082L321.87 125.922Z" fill="#444444"/>
<path d="M325.379 129.073L326.489 129.723L327.039 128.983H327.019L325.379 129.073Z" fill="#444444"/>
<path d="M324.49 127.453L325.63 128.123L326.25 127.283L325.1 126.613L324.49 127.453Z" fill="#444444"/>
<path d="M325.13 126.582L326.27 127.252L326.89 126.412L325.74 125.742L325.13 126.582Z" fill="#444444"/>
<path d="M323.15 124.182L324.42 124.922L324.96 124.192L323.7 123.452L323.15 124.182Z" fill="#444444"/>
<path d="M326.529 127.442L325.909 128.282L327.059 128.952L327.679 128.122L326.529 127.442Z" fill="#444444"/>
<path d="M328.319 127.253L327.169 126.583L326.549 127.413L327.699 128.083L328.319 127.253Z" fill="#444444"/>
<path d="M340.241 142.961L329.522 136.68L329.932 137.3L340.381 143.411L345.491 136.47L345.531 135.78L340.241 142.961Z" fill="#0078AA"/>
<path d="M330.032 136.651L331.112 137.291L331.652 136.561L330.032 136.651Z" fill="#444444"/>
<path d="M332.422 138.05L332.961 137.31L331.692 136.57L331.152 137.31L332.422 138.05Z" fill="#444444"/>
<path d="M331.152 135.011L330.532 135.851L331.682 136.521L332.292 135.681L331.152 135.011Z" fill="#444444"/>
<path d="M332.462 138.071L333.722 138.811L334.272 138.081L333.002 137.341L332.462 138.071Z" fill="#444444"/>
<path d="M334.332 138.071L335.481 138.741L336.091 137.901L334.951 137.23L334.332 138.071Z" fill="#444444"/>
<path d="M334.292 138.051L334.912 137.211L333.642 136.471L333.022 137.301L334.292 138.051Z" fill="#444444"/>
<path d="M332.322 135.651L332.932 134.811L331.792 134.141L331.172 134.981L332.322 135.651Z" fill="#444444"/>
<path d="M333.762 138.841L334.912 139.511L335.452 138.771L334.312 138.101L333.762 138.841Z" fill="#444444"/>
<path d="M331.752 136.561L332.982 137.281L333.592 136.451L331.752 136.561Z" fill="#444444"/>
<path d="M333.602 136.451L332.332 135.701L331.722 136.541L331.752 136.561L333.592 136.451H333.602Z" fill="#444444"/>
<path d="M332.972 134.841L332.362 135.671L333.622 136.411L334.242 135.581L332.972 134.841Z" fill="#444444"/>
<path d="M332.352 133.371L333.502 134.041L332.962 134.781L331.812 134.111L332.352 133.371Z" fill="#444444"/>
<path d="M335.191 139.671L336.341 140.341L336.881 139.601L335.731 138.931L335.191 139.671Z" fill="#444444"/>
<path d="M333.681 136.451L334.931 137.181L335.541 136.341L333.681 136.451Z" fill="#444444"/>
<path d="M336.382 140.361L337.641 141.111L338.191 140.371L336.922 139.631L336.382 140.361Z" fill="#444444"/>
<path d="M337.521 138.74L336.371 138.07L335.761 138.9L336.901 139.57L337.521 138.74Z" fill="#444444"/>
<path d="M336.121 137.87L336.731 137.04L335.581 136.36L334.971 137.2L336.121 137.87Z" fill="#444444"/>
<path d="M334.841 134.831L334.302 135.571L335.571 136.311L336.111 135.571L334.841 134.831Z" fill="#444444"/>
<path d="M337.681 141.131L338.951 141.871L339.491 141.131L338.221 140.391L337.681 141.131Z" fill="#444444"/>
<path d="M336.941 139.601L338.211 140.341L338.831 139.501L337.561 138.761L336.941 139.601Z" fill="#444444"/>
<path d="M338.162 137.871L337.012 137.201L336.392 138.031L337.542 138.701L338.162 137.871Z" fill="#444444"/>
<path d="M334.242 133.051L334.852 132.211L333.702 131.541L333.092 132.371L334.242 133.051Z" fill="#444444"/>
<path d="M337.271 136.251L336.152 135.591L335.612 136.331L335.622 136.341L337.271 136.251Z" fill="#444444"/>
<path d="M335.622 136.341L336.762 137.001L337.301 136.271L337.271 136.251L335.622 136.341Z" fill="#444444"/>
<path d="M338.991 141.891L340.141 142.561L340.681 141.831L339.531 141.161L338.991 141.891Z" fill="#444444"/>
<path d="M338.251 140.361L339.521 141.101L340.131 140.261L338.861 139.521L338.251 140.361Z" fill="#444444"/>
<path d="M335.011 134.6L336.281 135.34L336.821 134.61L335.561 133.86L335.011 134.6Z" fill="#444444"/>
<path d="M339.461 138.631L338.201 137.891L337.581 138.731L338.851 139.471L339.461 138.631Z" fill="#444444"/>
<path d="M338.181 137.841L338.721 137.101L337.581 136.431L337.031 137.171L338.181 137.841Z" fill="#444444"/>
<path d="M334.871 132.181L335.491 131.341L334.341 130.671L333.731 131.511L334.871 132.181Z" fill="#444444"/>
<path d="M339.551 141.121L340.701 141.791L341.321 140.961L340.171 140.291L339.551 141.121Z" fill="#444444"/>
<path d="M336.861 134.631L336.322 135.371L337.471 136.041L338.011 135.301L336.861 134.631Z" fill="#444444"/>
<path d="M340.771 139.401L339.501 138.661L338.891 139.491L340.161 140.231L340.771 139.401Z" fill="#444444"/>
<path d="M335.542 136.341L334.282 135.601L333.662 136.441L333.682 136.451L335.542 136.341Z" fill="#444444"/>
<path d="M333.002 134.8L334.262 135.55L334.812 134.81L333.542 134.07L333.002 134.8Z" fill="#444444"/>
<path d="M333.672 133.821L334.212 133.081L333.062 132.411L332.522 133.141L333.672 133.821Z" fill="#444444"/>
<path d="M335.582 133.831L336.851 134.571L337.461 133.741L336.201 133.001L335.582 133.831Z" fill="#444444"/>
<path d="M340.031 137.861L338.761 137.121L338.221 137.861L339.491 138.601L340.031 137.861Z" fill="#444444"/>
<path d="M336.801 132.11L335.532 131.36L334.912 132.2L336.182 132.94L336.801 132.11Z" fill="#444444"/>
<path d="M341.341 138.631L340.071 137.891L339.531 138.621L340.791 139.361L341.341 138.631Z" fill="#444444"/>
<path d="M334.372 130.64L335.512 131.31L336.061 130.57L334.912 129.9L334.372 130.64Z" fill="#444444"/>
<path d="M339.421 136.131L338.291 135.461L337.751 136.201L337.781 136.221L339.421 136.131Z" fill="#444444"/>
<path d="M340.191 140.261L341.341 140.931L341.961 140.091L340.811 139.421L340.191 140.261Z" fill="#444444"/>
<path d="M338.101 132.871L336.831 132.131L336.221 132.961L337.491 133.711L338.101 132.871Z" fill="#444444"/>
<path d="M340.201 137.631L340.741 136.901L339.481 136.161L338.931 136.891L340.201 137.631Z" fill="#444444"/>
<path d="M341.541 138.421L342.691 139.091L343.241 138.351L342.091 137.681L341.541 138.421Z" fill="#444444"/>
<path d="M336.862 132.1L338.132 132.84L338.671 132.1L337.402 131.36L336.862 132.1Z" fill="#444444"/>
<path d="M342.051 137.661L340.781 136.921L340.241 137.661L341.511 138.401L342.051 137.661Z" fill="#444444"/>
<path d="M340.831 139.39L341.981 140.06L342.521 139.32L341.381 138.65L340.831 139.39Z" fill="#444444"/>
<path d="M339.501 136.121L340.771 136.871L341.381 136.031L341.361 136.021L339.501 136.121Z" fill="#444444"/>
<path d="M341.361 136.021L340.111 135.291L339.501 136.121L341.361 136.021Z" fill="#444444"/>
<path d="M338.171 132.861L339.311 133.531L339.861 132.791L338.711 132.121L338.171 132.861Z" fill="#444444"/>
<path d="M342.071 137.631L342.691 136.791L341.421 136.051L340.811 136.891L342.071 137.631Z" fill="#444444"/>
<path d="M340.751 134.421L340.141 135.261L341.411 136.001L342.021 135.161L340.751 134.421Z" fill="#444444"/>
<path d="M339.591 133.691L340.741 134.371L341.281 133.631L340.131 132.961L339.591 133.691Z" fill="#444444"/>
<path d="M343.881 137.49L342.731 136.82L342.111 137.65L343.261 138.32L343.881 137.49Z" fill="#444444"/>
<path d="M343.301 135.911L342.061 135.181L341.451 136.011L343.301 135.911Z" fill="#444444"/>
<path d="M341.441 136.021L342.711 136.761L343.331 135.931L343.301 135.911L341.451 136.011L341.441 136.021Z" fill="#444444"/>
<path d="M342.631 134.411L342.081 135.151L343.351 135.891L343.891 135.161L342.631 134.411Z" fill="#444444"/>
<path d="M340.781 134.39L342.041 135.13L342.591 134.39L341.321 133.65L340.781 134.39Z" fill="#444444"/>
<path d="M343.901 137.461L344.511 136.621L343.371 135.951L342.751 136.781L343.901 137.461Z" fill="#444444"/>
<path d="M343.391 135.921L344.541 136.591L345.081 135.851L345.021 135.811L343.401 135.901L343.391 135.921Z" fill="#444444"/>
<path d="M345.021 135.811L343.931 135.181L343.401 135.901L345.021 135.811Z" fill="#444444"/>
<path d="M330.512 135.881L331.652 136.551V136.561L330.032 136.651L329.962 136.611L330.512 135.881Z" fill="#444444"/>
<path d="M333.711 133.841L334.981 134.581L335.521 133.841L334.251 133.101L333.711 133.841Z" fill="#444444"/>
<path d="M334.272 133.071L335.542 133.811L336.162 132.971L334.892 132.23L334.272 133.071Z" fill="#444444"/>
<path d="M337.781 136.221L338.891 136.871L339.441 136.131H339.421L337.781 136.221Z" fill="#444444"/>
<path d="M336.892 134.601L338.032 135.271L338.652 134.431L337.502 133.761L336.892 134.601Z" fill="#444444"/>
<path d="M337.531 133.731L338.671 134.401L339.291 133.561L338.141 132.891L337.531 133.731Z" fill="#444444"/>
<path d="M335.552 131.331L336.821 132.071L337.361 131.341L336.101 130.601L335.552 131.331Z" fill="#444444"/>
<path d="M338.931 134.591L338.311 135.431L339.461 136.101L340.081 135.271L338.931 134.591Z" fill="#444444"/>
<path d="M340.721 134.401L339.571 133.73L338.951 134.561L340.101 135.231L340.721 134.401Z" fill="#444444"/>
</svg>
