<svg width="143" height="134" viewBox="0 0 143 134" fill="none" xmlns="http://www.w3.org/2000/svg">
<path d="M18.2114 61.0521C8.90727 58.7213 4.03526 63.8868 4.03526 63.8868C4.03526 63.8868 -2.88002 67.95 1.39483 73.1785C6.01544 78.2181 56.2764 120.834 94.7186 131.197C123.479 138.945 142.874 128.173 142.999 128.173C143.094 125.685 134.23 115.417 113.515 103.259C72.7471 79.3835 27.6412 63.4144 18.18 61.0521H18.2114Z" fill="#003647"/>
<path d="M11.548 59.3822C10.1649 59.7287 8.93902 60.4847 8.18464 61.0517L8.68757 61.3666L6.173 62.3114C5.8901 62.4059 -0.805055 64.6107 2.74684 68.9574C3.06117 69.2723 3.43831 69.7134 3.87837 70.2173C24.3411 92.99 78.5939 120.078 99.1509 128.991C112.95 134.85 141.176 127.448 142.622 127.385C144.068 123.826 135.393 119.322 121.877 105.935C110.938 95.1319 93.3673 87.4464 70.5158 77.3358C51.0903 68.737 17.7717 60.0752 16.0114 59.6342C13.2768 58.9413 11.988 59.2562 11.548 59.3822V59.3822Z" fill="#005F72"/>
<g style="mix-blend-mode:multiply">
<path d="M72.4013 78.9742C74.8845 82.3759 75.6073 87.006 75.073 87.7304C74.5386 88.4548 74.0043 90.5967 71.8669 89.5258C69.7295 88.4549 67.4034 84.8642 67.4034 84.8642C67.4034 84.8642 65.989 82.3758 64.1973 81.9978C62.4056 81.6199 59.3881 83.4153 54.736 83.0688C50.084 82.7224 49.2039 79.8561 47.4122 79.3206C45.6206 78.7852 42.7602 82.3444 39.3969 80.927C36.0336 79.5097 35.0592 78.7221 33.299 80.1709C31.5387 81.6198 30.47 81.6199 30.47 81.6199C30.47 81.6199 27.0438 80.612 27.3267 78.2496C27.6096 75.8873 26.3523 74.6275 27.9554 73.5566C29.5584 72.4856 32.6074 72.1393 31.1615 70.8794C29.7156 69.6195 26.1638 67.3201 29.3699 65.5248C32.576 63.7294 47.0351 68.5486 47.0351 68.5486C47.0351 68.5486 69.8552 75.5094 72.3698 78.9112L72.4013 78.9742Z" fill="#D2D2D2"/>
</g>
<path d="M31.823 27.0661C31.823 27.0661 33.8975 29.3025 33.6146 30.342C33.3317 31.3814 28.7426 35.2869 26.7623 35.9169C24.782 36.5468 21.0102 39.6335 21.0102 39.6335C21.0102 39.6335 22.1417 43.0667 21.5445 43.9487C20.9472 44.8306 21.1358 46.7835 21.1358 46.7835C21.1358 46.7835 20.6958 47.6654 20.2243 47.5394C19.7843 47.4134 19.5956 45.9017 19.5956 45.9017L19.3442 43.9802L17.8669 44.2953L16.0437 45.7127L15.0693 47.0356L14.9122 48.6104C14.9122 48.6104 15.2894 49.3663 15.038 49.5553C14.7865 49.7443 14.6922 50.5317 14.2521 49.8702C13.8435 49.1773 13.7806 48.012 13.7806 48.012C13.7806 48.012 13.0891 47.0984 13.152 46.7205L13.2148 46.3425L13.0262 45.4607C12.8691 44.7047 13.0577 44.3268 13.0577 44.3268C13.0577 44.3268 13.1519 44.4527 13.1833 43.2558C13.2148 42.0589 17.4268 38.6571 17.4268 38.6571C17.4268 38.6571 18.9984 36.0744 20.1929 35.413C21.3873 34.7516 26.668 27.6961 27.7682 27.3181C28.8683 26.9402 29.5913 25.9637 31.6973 27.0661H31.823Z" fill="#FFBFAD"/>
<path d="M27.39 15.034C27.39 15.034 26.1013 13.8372 24.4668 16.7665C22.8323 19.6958 26.7299 23.9478 26.7299 23.9478L27.9558 28.137C27.9558 28.137 27.0443 29.8694 29.9675 30.1214C32.8908 30.3733 33.0793 30.5307 33.3308 29.8378C33.6136 29.1449 31.9792 21.9004 31.2248 19.9476C30.4704 17.9947 27.4214 15.034 27.4214 15.034H27.39Z" fill="#FFBFAD"/>
<path d="M71.019 58.941C71.019 58.941 73.4392 61.1458 74.0993 64.8625C74.7594 68.5792 73.0621 70.7525 73.5336 73.3038C74.005 75.8551 74.3508 74.8788 74.6023 76.5797C74.8537 78.2805 75.3252 78.3434 75.7652 79.2253C76.2053 80.1073 77.8399 81.9026 78.0913 82.5956C78.3428 83.2885 78.2799 84.3279 78.4685 84.5169C78.6571 84.7059 79.0343 85.3988 78.8772 85.6823C78.72 85.9657 78.5942 86.1548 78.5942 86.1548C78.5942 86.1548 78.6256 86.6903 78.1227 86.9422L77.6198 87.1943C77.6198 87.1943 77.6827 87.5408 77.3055 87.7927C76.9283 88.0447 76.6454 87.9817 76.6454 87.9817C76.6454 87.9817 76.8968 88.2966 76.5511 88.2966C76.2053 88.2966 75.6081 88.1707 75.6081 88.1707C75.6081 88.1707 75.6081 88.6746 74.6965 88.8951C73.785 89.1155 73.0307 88.2651 72.8735 87.5092C72.7163 86.7217 72.1505 86.0604 71.8991 85.6509C71.6476 85.2415 71.5219 83.7611 71.4904 83.0996C71.4904 82.4382 70.1702 78.5639 69.8873 78.0915C69.6045 77.619 69.1958 77.43 69.4159 75.9497C69.6359 74.4693 68.5043 71.603 67.6242 70.0281C66.7126 68.4533 66.1783 67.7603 66.0211 65.713C65.8639 63.6972 65.8325 62.9728 65.8325 62.9728C65.8325 62.9728 67.6556 57.1456 71.0503 58.9095L71.019 58.941Z" fill="#FFBFAD"/>
<path d="M37.9515 59.4136C37.9515 59.4136 39.6175 61.1145 39.9633 62.9728C40.309 64.8311 39.6175 65.9964 39.6804 67.1933C39.7433 68.3902 41.4406 69.3668 41.3777 70.6266C41.3148 71.918 40.4976 72.926 38.6745 73.7764C36.8514 74.6268 36.6313 75.0048 36.1598 75.9182C35.6884 76.8631 34.1796 79.9183 33.3309 80.1703C32.4822 80.4222 31.0049 82.0601 30.4705 82.1546C29.9362 82.2806 29.339 82.1547 28.8361 81.6823C28.3331 81.2413 28.4274 80.8318 28.4274 80.8318C28.4274 80.8318 27.7988 80.9578 27.7359 80.4223L27.6731 79.8869C27.6731 79.8869 27.2016 79.6033 27.2016 79.3828C27.2016 79.1623 27.453 78.5954 27.453 78.5954C27.453 78.5954 27.3273 79.1309 27.3902 78.2805L27.453 77.43C27.453 77.43 27.8302 76.2647 28.3331 75.7923C28.8361 75.3198 29.2762 74.9102 29.2762 74.9102C29.2762 74.9102 29.8419 73.8394 30.5963 73.5559C31.3507 73.2724 32.9537 72.0441 32.9537 72.0441L35.2797 70.2487C35.2797 70.2487 33.9911 66.9099 32.5137 65.8705C31.0364 64.8311 30.6278 63.9178 30.6278 62.2169C30.6278 60.516 37.983 59.4136 37.983 59.4136H37.9515Z" fill="#FFBFAD"/>
<path d="M53.4159 29.8057C53.4159 29.8057 57.6593 31.8216 56.7163 35.4123C55.7733 38.9715 41.22 55.8541 41.22 55.8541L38.6739 61.2402C38.6739 61.2402 34.8706 64.5473 33.1104 64.6418C31.3502 64.7363 30.6272 61.9961 30.6272 61.9961C30.6272 61.9961 33.5504 47.3182 36.065 44.1685C38.5796 41.0187 40.7171 35.8846 40.7171 35.8846L42.8859 31.5066L53.3844 29.8057H53.4159Z" fill="#FFBFAD"/>
<path d="M54.234 20.6402C54.234 20.6402 58.7918 20.0733 61.5579 24.4514C64.3239 28.8296 67.2786 31.7903 67.9072 38.0268C68.5359 44.2633 73.2822 61.3663 71.742 63.9176C70.2018 66.4689 69.6675 66.1224 67.4672 64.5161C65.2669 62.9097 64.1982 62.7522 63.821 60.9568C63.4438 59.1615 57.7545 49.6494 57.2201 46.6886C56.6858 43.6963 55.177 37.6487 55.177 37.6487L53.9197 36.1368L50.4936 30.4674L54.2026 20.6086L54.234 20.6402Z" fill="#FFBFAD"/>
<path d="M52.756 22.4357C52.756 22.4357 51.8758 20.5143 55.1448 20.4513C58.4138 20.3883 61.2113 23.0026 63.726 26.3413C66.2406 29.68 67.3722 33.8691 67.8751 36.2944C68.378 38.7197 71.647 53.2085 71.647 53.2085C71.647 53.2085 68.4723 55.8229 65.2661 56.6418C62.06 57.4607 60.7713 56.8623 60.7713 56.8623C60.7713 56.8623 57.5651 49.1769 57.1251 46.9406C56.685 44.7042 54.9562 38.5308 54.9562 38.5308C54.9562 38.5308 49.5498 46.9721 47.9153 49.5549C46.2808 52.1377 41.4087 59.13 41.4087 59.13C41.4087 59.13 39.4914 60.0751 36.4424 59.2561C33.3934 58.4057 31.5074 55.3505 31.5074 55.3505C31.5074 55.3505 35.0593 46.4681 35.7509 44.3577C36.4424 42.2474 43.1061 31.7274 43.1061 31.7274L52.756 22.4357Z" fill="#AFEDEF"/>
<path d="M44.3321 8.51396C47.5068 8.98642 50.8701 8.9865 52.4103 12.7347C53.9505 16.4829 53.9819 20.6406 54.862 21.2706C55.7421 21.9005 56.1822 20.5776 58.0996 23.7588C60.017 26.94 57.1252 33.3025 50.9958 34.5624C44.8664 35.8223 41.9746 33.9639 41.9746 33.9639C41.9746 33.9639 41.2831 32.3575 40.5602 31.7906C39.8372 31.2236 37.2912 30.2788 36.2225 30.4993C35.1537 30.7198 32.2933 29.1448 31.0674 26.6565C29.8416 24.1682 26.2583 18.5932 26.1954 18.2467C26.1325 17.9003 22.7692 14.9395 33.2363 10.9708C43.7034 6.97068 41.0946 8.01016 44.3007 8.48262L44.3321 8.51396Z" fill="#FFC74C"/>
<path d="M46.8157 14.1205C46.8157 14.1205 46.7213 9.99438 50.1161 9.99438C53.4794 9.99438 57.5342 12.0417 60.5203 12.8921C63.5064 13.7425 67.467 15.664 67.9699 15.7585C68.4728 15.853 71.5218 16.2938 73.4706 16.8608C75.4195 17.4278 83.4977 25.7431 83.4977 25.7431L86.8609 27.7905C86.8609 27.7905 88.0868 28.6723 89.0298 29.8062C89.9728 30.9401 90.0356 31.3495 90.0356 31.3495C90.0356 31.3495 89.7528 32.0425 89.187 31.3811C88.6212 30.7196 85.8865 29.3338 85.8865 29.3338C85.8865 29.3338 88.8097 33.3025 89.0298 34.0269C89.2498 34.7514 88.9983 35.5073 88.7154 35.5703C88.4325 35.6333 88.0868 35.5703 88.0868 35.5703C88.0868 35.5703 88.6212 35.8224 88.0868 36.2633C87.5525 36.7358 87.081 36.4836 87.081 36.4836L82.9005 31.8851C82.9005 31.8851 86.4209 36.7672 85.9494 36.7987C85.4779 36.7987 85.3208 37.7752 84.1892 36.4523C83.0891 35.1294 79.8828 30.8772 79.8828 30.8772C79.8828 30.8772 78.8141 31.7906 78.9084 32.2C79.0027 32.6095 79.4114 33.5859 79.0027 33.9954C78.5941 34.4364 78.3427 34.9089 77.9655 34.6884C77.5883 34.4995 77.4626 33.2394 77.3997 32.9244L76.9911 30.9087L78.437 27.0344C78.437 27.0344 69.0072 21.4595 68.85 21.302C68.6614 21.1131 63.0036 20.5461 60.6147 19.5067C58.2258 18.4673 57.1884 21.2074 51.6877 19.8216C46.187 18.4357 46.8157 14.1521 46.8157 14.1521V14.1205Z" fill="#FFBFAD"/>
<path d="M38.2346 5.49055L38.3604 4.41955L37.3859 2.71876C37.3859 2.71876 38.6432 1.61637 34.9027 0.576959C31.1937 -0.493953 29.4021 0.0413798 27.6104 1.23828C25.8188 2.43518 25.1272 7.9474 26.1331 9.67976C27.1389 11.4436 31.2565 13.4594 31.4451 13.3649C31.6337 13.2704 38.2346 5.49055 38.2346 5.49055Z" fill="#C4794B"/>
<path d="M30.219 13.0811C30.219 13.0811 31.602 15.6639 32.8593 17.4277C34.1481 19.1916 38.9572 20.861 39.7116 20.798C40.466 20.7035 40.3718 16.8607 40.2775 16.3882C40.1832 15.9158 38.8315 13.0811 38.8315 13.0811H30.1875H30.219Z" fill="#E59D6E"/>
<path d="M37.386 3.00179C37.386 3.00179 39.8377 5.30126 40.0263 6.30918L40.2463 7.31712C40.2463 7.31712 40.9378 8.63987 40.9064 9.14383C40.875 9.64779 40.9379 11.3802 41.0322 11.7897C41.1265 12.1992 42.1951 14.7818 41.4722 15.2228C40.7492 15.6638 40.1206 16.7663 38.0775 16.4828C36.0344 16.1993 34.7771 16.1678 33.7712 15.6953C32.7654 15.1914 31.5081 13.8369 31.5081 13.8369C31.5081 13.8369 31.2252 14.1834 30.8165 14.2464C30.4079 14.3409 28.3648 12.8606 28.1762 12.6087C27.9876 12.3567 27.3904 11.2227 28.1762 11.0023C28.962 10.7818 29.6849 11.5377 29.905 11.5692C30.125 11.5692 31.1623 12.2936 31.8224 11.7266C32.4825 11.1597 32.5767 9.61639 32.451 9.04944C32.3253 8.51398 31.3508 6.46663 31.3508 6.46663C31.3508 6.46663 35.0914 6.18313 36.2544 5.45869C37.4489 4.73425 37.3545 2.97046 37.3545 2.97046L37.386 3.00179Z" fill="#FFBFAD"/>
</svg>
