<svg width="58" height="24" viewBox="0 0 58 24" fill="none" xmlns="http://www.w3.org/2000/svg">
<g clip-path="url(#clip0_165_3829)">
<g style="mix-blend-mode:multiply" opacity="0.2">
<path d="M24.91 2.45989C19.71 -0.740113 11.15 -0.830113 5.79001 2.26989C0.420012 5.35989 0.290011 10.4699 5.49001 13.6699C10.69 16.8699 19.25 16.9599 24.61 13.8599C29.97 10.7599 30.1 5.65989 24.91 2.45989V2.45989ZM19.66 10.3399C16.96 11.8999 12.64 11.8599 10.02 10.2399C7.40001 8.62989 7.47001 6.04989 10.17 4.48989C12.87 2.92989 17.19 2.96989 19.8 4.58989C22.42 6.19989 22.35 8.77989 19.65 10.3399H19.66Z" fill="#241915"/>
</g>
<path d="M6.62002 8.39986C6.40002 7.88986 6.36002 7.34986 6.49002 6.82986H6.47002C4.67002 6.10986 1.42002 6.89986 0.0600205 7.29986C-0.109979 8.39986 0.100021 9.50986 0.680021 10.5699C1.98002 7.95986 5.18002 8.15986 6.63002 8.39986H6.62002Z" fill="white"/>
<path d="M10.24 2.73986C11.05 2.44986 11.67 2.34986 11.67 2.34986C11.88 2.33986 12.06 2.34986 12.26 2.33986L11.28 0.109863C10.37 0.199863 9.47004 0.339863 8.60004 0.539863C9.41004 1.12986 9.93004 1.99986 10.24 2.72986V2.73986Z" fill="white"/>
<path d="M7.14003 4.86984C7.46003 4.40984 7.87003 4.01984 8.32003 3.70984C7.48003 2.75984 6.11003 1.93984 5.47003 1.58984C5.00003 1.79984 4.54003 2.01984 4.11003 2.26984C3.57003 2.57984 3.10003 2.91984 2.66003 3.26984C4.73003 2.99984 6.32003 4.10984 7.14003 4.86984V4.86984Z" fill="white"/>
<path d="M9.92002 10.9497C9.35002 10.7597 8.81002 10.5397 8.34002 10.2497C8.23002 10.1797 8.13002 10.1097 8.03002 10.0397C6.50002 10.0197 4.80002 11.5897 3.71002 12.8197C4.98002 13.4497 6.36002 13.8897 7.72002 14.1997C8.06002 12.4597 9.18002 11.4497 9.93002 10.9497H9.92002Z" fill="white"/>
<path d="M15.7201 14.8698C16.2701 14.8098 16.7701 14.7298 17.2701 14.6498C16.9401 13.0198 15.9801 11.9298 15.1801 11.2898C14.1801 11.4698 13.1401 11.5098 12.1101 11.4098C11.6501 12.0498 11.5601 13.5298 11.5901 14.7998C12.4701 14.8798 13.2301 14.9198 13.8001 14.9298C14.4401 14.9498 15.0801 14.9298 15.7201 14.8598V14.8698Z" fill="white"/>
<path d="M18.19 3.73979C18.67 4.09979 19.04 4.4798 19.3 4.8598C20.38 3.0898 22.25 2.66979 23.4 2.57979C23.34 2.53979 23.28 2.49979 23.22 2.45979C22.48 2.0098 21.68 1.61979 20.82 1.28979C19.38 1.66979 18.6 2.79979 18.19 3.73979V3.73979Z" fill="white"/>
<path d="M26.71 9.81979C26.93 9.22979 27.03 8.62979 27.02 8.02979C26.98 8.65979 26.86 9.23979 26.67 9.76979C26.68 9.77979 26.69 9.79979 26.7 9.81979H26.71Z" fill="white"/>
<path d="M16.24 2.77979C16.24 1.62979 16.66 0.789785 17.01 0.279785C16.22 0.149785 15.42 0.0697852 14.61 0.0297852L14.83 2.46979C15.35 2.54979 15.82 2.64979 16.24 2.77979Z" fill="white"/>
<path d="M5.16002 14.3898C4.94002 14.2798 4.72002 14.1798 4.52002 14.0698C4.73002 14.1798 4.94002 14.2898 5.16002 14.3898Z" fill="white"/>
<path d="M3.79999 13.67C3.93999 13.76 4.08999 13.83 4.23999 13.92C3.97999 13.77 3.71999 13.62 3.48999 13.47C3.58999 13.54 3.68999 13.61 3.79999 13.68V13.67Z" fill="white"/>
<path d="M19.96 6.81978C20.04 7.13978 20.06 7.45978 20.01 7.78978C23.49 7.08978 25.38 8.30978 26.32 9.33978C26.75 8.58978 26.94 7.98978 27.01 7.69978C26.97 7.14978 26.83 6.60978 26.6 6.06978C24.07 4.88978 21.36 6.03978 19.96 6.82978V6.81978Z" fill="white"/>
<path d="M6.24004 14.8499C6.05004 14.7799 5.85004 14.6999 5.67004 14.6199C5.86004 14.6999 6.05004 14.7799 6.24004 14.8499Z" fill="white"/>
<path d="M19.35 9.19995C19.01 9.60995 18.56 9.99995 17.97 10.34C17.79 10.45 17.58 10.53 17.38 10.62C19.14 11.44 20.09 12.74 20.59 13.8C22 13.28 23.1 12.65 23.96 11.98C22.62 9.71995 20.48 9.26995 19.34 9.19995H19.35Z" fill="white"/>
<path d="M17.39 15.7798C16.01 16.0198 15.04 16.0698 15.04 16.0698C13.81 16.1298 12.69 16.0898 11.65 16.0098V16.0398C13.57 16.1998 15.52 16.1198 17.39 15.7798V15.7798Z" fill="white"/>
<path d="M6.85004 15.0698C7.10004 15.1498 7.36004 15.2298 7.61004 15.3098C7.35004 15.2298 7.09004 15.1598 6.85004 15.0698Z" fill="white"/>
<path d="M3.28003 13.3098C3.35003 13.3598 3.41003 13.3998 3.48003 13.4498C3.41003 13.3998 3.35003 13.3498 3.28003 13.3098Z" fill="white"/>
<path d="M19.63 15.2598L19.57 15.2798L19.63 15.2598Z" fill="#EAAE57"/>
<path d="M17.38 10.6199C16.7 10.9299 15.96 11.1599 15.18 11.2999C15.98 11.9399 16.94 13.0199 17.27 14.6599C18.53 14.4499 19.63 14.1599 20.59 13.8099C20.09 12.7499 19.14 11.4499 17.38 10.6299V10.6199Z" fill="#EAAE57"/>
<path d="M17.39 15.7897C17.86 15.7097 18.33 15.5997 18.79 15.4897C18.29 15.6097 17.82 15.7097 17.39 15.7797V15.7897Z" fill="#EAAE57"/>
<path d="M23.96 11.9798C25.13 11.0798 25.86 10.1298 26.31 9.32983C25.37 8.30983 23.48 7.07983 20 7.77983C19.93 8.26983 19.7 8.74983 19.34 9.18983C20.47 9.25983 22.62 9.70983 23.96 11.9698V11.9798Z" fill="#EAAE57"/>
<path d="M26.18 10.8798C26.4 10.5298 26.58 10.1798 26.71 9.81977C26.7 9.80977 26.69 9.78978 26.68 9.76978C26.55 10.1598 26.38 10.5298 26.18 10.8798V10.8798Z" fill="#EAAE57"/>
<path d="M19.3 4.85984C19.98 5.83984 20.01 6.72984 20.01 6.72984C19.91 6.49984 19.78 6.28984 19.65 6.08984C19.79 6.32984 19.9 6.57984 19.96 6.82984C21.35 6.03984 24.0601 4.88984 26.6 6.06984C26.06 4.80984 24.99 3.60984 23.4 2.58984C22.25 2.66984 20.38 3.08984 19.3 4.86984V4.85984Z" fill="#EAAE57"/>
<path d="M18.19 3.73979C18.6 2.79979 19.38 1.66979 20.82 1.28979C19.63 0.829785 18.34 0.499785 17.01 0.279785C16.66 0.779785 16.24 1.62979 16.24 2.77979C17.06 3.02979 17.69 3.36979 18.19 3.73979Z" fill="#EAAE57"/>
<path d="M14.83 2.46985L14.61 0.039854C13.5 -0.010146 12.38 0.00985401 11.28 0.119854L12.26 2.33985C13.23 2.30985 14.09 2.35985 14.83 2.47985V2.46985Z" fill="#EAAE57"/>
<path d="M8.32002 3.7098C8.95002 3.2598 9.65002 2.9498 10.24 2.7398C9.93002 2.0098 9.41002 1.1398 8.60002 0.549805C7.50002 0.809805 6.45002 1.1598 5.46002 1.5898C6.10002 1.9398 7.48002 2.7598 8.31002 3.7098H8.32002Z" fill="#EAAE57"/>
<path d="M6.47 6.81992C6.5 6.03992 6.76 5.39992 7.13 4.85992C6.3 4.09992 4.71 2.98992 2.65 3.25992C1.15 4.46992 0.279998 5.86992 0.0599976 7.29992C1.42 6.90992 4.68 6.10992 6.47 6.81992Z" fill="#EAAE57"/>
<path d="M6.47003 6.82985H6.49003C6.51003 6.75985 6.53003 6.67985 6.55003 6.59985C6.50003 6.71985 6.48003 6.79985 6.47003 6.82985V6.82985Z" fill="#EAAE57"/>
<path d="M3.70999 12.8099C4.79999 11.5799 6.49999 10.0099 8.02999 10.0299C7.33999 9.53994 6.86999 8.97994 6.62999 8.39994C5.17999 8.15994 1.97999 7.95994 0.679993 10.5699C0.709993 10.6199 0.729993 10.6599 0.759993 10.7099C1.58999 11.5699 2.59999 12.2599 3.70999 12.8099V12.8099Z" fill="#EAAE57"/>
<path d="M1.98004 12.2598C2.36004 12.6298 2.79004 12.9798 3.28004 13.3198C2.77004 12.9598 2.33004 12.5998 1.98004 12.2598V12.2598Z" fill="#EAAE57"/>
<path d="M12.12 11.4099C11.35 11.3299 10.62 11.1699 9.92002 10.9399C9.17002 11.4299 8.05002 12.4399 7.71002 14.1899C9.10002 14.5099 10.44 14.6999 11.59 14.8099C11.56 13.5399 11.65 12.0499 12.11 11.4199L12.12 11.4099Z" fill="#EAAE57"/>
<path d="M8.05005 15.4299C9.21005 15.7399 10.42 15.9399 11.66 16.0399V16.0099C10.32 15.9099 9.11005 15.7099 8.05005 15.4399V15.4299Z" fill="#EAAE57"/>
<g style="mix-blend-mode:multiply" opacity="0.2">
<path d="M18.12 4.58992C18.06 4.54992 17.98 4.51992 17.91 4.48992C17.43 4.21992 16.91 3.99992 16.35 3.82992C15.89 3.68992 15.42 3.56992 14.93 3.49992C14.21 3.38992 13.47 3.34992 12.73 3.38992C11.99 3.41992 11.27 3.51992 10.58 3.68992C9.94 3.84992 9.34 4.07992 8.78 4.35992C8.68 4.40992 8.58 4.44992 8.49 4.49992C8.1 4.71992 7.78 4.96992 7.5 5.22992C7.04 5.65992 6.72 6.11992 6.56 6.60992C6.86 5.87992 8.14 3.66992 12.86 3.41992C12.86 3.41992 17.72 3.20992 19.66 6.08992C19.51 5.82992 19.31 5.57992 19.06 5.32992C18.8 5.06992 18.49 4.82992 18.12 4.59992V4.58992Z" fill="#241915"/>
</g>
<path d="M16.35 3.82997C16.27 3.45997 16.24 3.10997 16.24 2.77997C15.82 2.64997 15.35 2.54997 14.83 2.46997L14.92 3.49997C15.41 3.57997 15.88 3.68997 16.34 3.82997H16.35Z" fill="white"/>
<g style="mix-blend-mode:multiply" opacity="0.2">
<path d="M16.35 3.82997C16.27 3.45997 16.24 3.10997 16.24 2.77997C15.82 2.64997 15.35 2.54997 14.83 2.46997L14.92 3.49997C15.41 3.57997 15.88 3.68997 16.34 3.82997H16.35Z" fill="#241915"/>
</g>
<path d="M18.12 4.58974C18.49 4.81974 18.8 5.05974 19.06 5.31974C19.14 5.15974 19.21 4.99974 19.3 4.84974C19.04 4.46974 18.68 4.08974 18.19 3.72974C18.07 4.00974 17.98 4.25974 17.91 4.47974C17.98 4.51974 18.05 4.53974 18.12 4.57974V4.58974Z" fill="white"/>
<g style="mix-blend-mode:multiply" opacity="0.2">
<path d="M18.12 4.58974C18.49 4.81974 18.8 5.05974 19.06 5.31974C19.14 5.15974 19.21 4.99974 19.3 4.84974C19.04 4.46974 18.68 4.08974 18.19 3.72974C18.07 4.00974 17.98 4.25974 17.91 4.47974C17.98 4.51974 18.05 4.53974 18.12 4.57974V4.58974Z" fill="#241915"/>
</g>
<path d="M7.50001 5.21995C7.78001 4.95995 8.10001 4.71995 8.49001 4.48995C8.58001 4.43995 8.69001 4.39995 8.78001 4.34995C8.66001 4.12995 8.50001 3.90995 8.32001 3.69995C7.87001 4.01995 7.46001 4.39995 7.14001 4.85995C7.28001 4.98995 7.41001 5.10995 7.50001 5.21995V5.21995Z" fill="white"/>
<g style="mix-blend-mode:multiply" opacity="0.2">
<path d="M7.50001 5.21995C7.78001 4.95995 8.10001 4.71995 8.49001 4.48995C8.58001 4.43995 8.69001 4.39995 8.78001 4.34995C8.66001 4.12995 8.50001 3.90995 8.32001 3.69995C7.87001 4.01995 7.46001 4.39995 7.14001 4.85995C7.28001 4.98995 7.41001 5.10995 7.50001 5.21995V5.21995Z" fill="#241915"/>
</g>
<path d="M12.73 3.37983L12.27 2.32983C12.07 2.32983 11.89 2.32983 11.68 2.33983C11.68 2.33983 11.06 2.43983 10.25 2.72983C10.41 3.09983 10.52 3.43983 10.58 3.67983C11.27 3.50983 12 3.40983 12.73 3.37983Z" fill="white"/>
<g style="mix-blend-mode:multiply" opacity="0.2">
<path d="M12.73 3.37983L12.27 2.32983C12.07 2.32983 11.89 2.32983 11.68 2.33983C11.68 2.33983 11.06 2.43983 10.25 2.72983C10.41 3.09983 10.52 3.43983 10.58 3.67983C11.27 3.50983 12 3.40983 12.73 3.37983Z" fill="#241915"/>
</g>
<path d="M19.65 6.07985C19.78 6.27985 19.91 6.48985 20.01 6.71985C20.01 6.71985 19.97 5.82985 19.3 4.84985C19.21 4.98985 19.13 5.15985 19.06 5.31985C19.3 5.55985 19.5 5.80985 19.66 6.07985H19.65Z" fill="#EAAE57"/>
<g style="mix-blend-mode:multiply" opacity="0.2">
<path d="M19.65 6.07985C19.78 6.27985 19.91 6.48985 20.01 6.71985C20.01 6.71985 19.97 5.82985 19.3 4.84985C19.21 4.98985 19.13 5.15985 19.06 5.31985C19.3 5.55985 19.5 5.80985 19.66 6.07985H19.65Z" fill="#241915"/>
</g>
<path d="M16.35 3.82979C16.91 3.99979 17.44 4.21978 17.91 4.48978C17.97 4.26978 18.07 4.00979 18.19 3.73979C17.69 3.36979 17.05 3.03979 16.24 2.77979C16.24 3.10979 16.27 3.44979 16.35 3.82979Z" fill="#EAAE57"/>
<g style="mix-blend-mode:multiply" opacity="0.2">
<path d="M16.35 3.82979C16.91 3.99979 17.44 4.21978 17.91 4.48978C17.97 4.26978 18.07 4.00979 18.19 3.73979C17.69 3.36979 17.05 3.03979 16.24 2.77979C16.24 3.10979 16.27 3.44979 16.35 3.82979Z" fill="#241915"/>
</g>
<path d="M14.93 3.49975L14.84 2.46975C14.1 2.35975 13.24 2.30975 12.27 2.32975L12.73 3.37976C13.47 3.34976 14.21 3.37975 14.93 3.48975V3.49975Z" fill="#EAAE57"/>
<g style="mix-blend-mode:multiply" opacity="0.2">
<path d="M14.93 3.49975L14.84 2.46975C14.1 2.35975 13.24 2.30975 12.27 2.32975L12.73 3.37976C13.47 3.34976 14.21 3.37975 14.93 3.48975V3.49975Z" fill="#241915"/>
</g>
<path d="M10.58 3.67974C10.51 3.43974 10.41 3.10974 10.25 2.72974C9.65002 2.93974 8.96002 3.24974 8.33002 3.69974C8.52002 3.90974 8.67002 4.12974 8.79002 4.34974C9.34002 4.05974 9.94002 3.83974 10.59 3.67974H10.58Z" fill="#EAAE57"/>
<g style="mix-blend-mode:multiply" opacity="0.2">
<path d="M10.58 3.67974C10.51 3.43974 10.41 3.10974 10.25 2.72974C9.65002 2.93974 8.96002 3.24974 8.33002 3.69974C8.52002 3.90974 8.67002 4.12974 8.79002 4.34974C9.34002 4.05974 9.94002 3.83974 10.59 3.67974H10.58Z" fill="#241915"/>
</g>
<path d="M7.50004 5.21986C7.40004 5.11986 7.28004 4.99986 7.14004 4.85986C6.76004 5.39986 6.50004 6.03986 6.48004 6.81986C6.48004 6.81986 6.51004 6.71986 6.56004 6.59986C6.72004 6.11986 7.04004 5.64986 7.50004 5.21986Z" fill="#EAAE57"/>
<g style="mix-blend-mode:multiply" opacity="0.2">
<path d="M7.50004 5.21986C7.40004 5.11986 7.28004 4.99986 7.14004 4.85986C6.76004 5.39986 6.50004 6.03986 6.48004 6.81986C6.48004 6.81986 6.51004 6.71986 6.56004 6.59986C6.72004 6.11986 7.04004 5.64986 7.50004 5.21986Z" fill="#241915"/>
</g>
<g style="mix-blend-mode:multiply" opacity="0.2">
<path d="M6.84999 15.0699C6.63999 14.9999 6.43999 14.9199 6.23999 14.8499C6.43999 14.9299 6.63999 14.9999 6.84999 15.0699Z" fill="#241915"/>
</g>
<g style="mix-blend-mode:multiply" opacity="0.2">
<path d="M5.67004 14.6199C5.50004 14.5499 5.33004 14.4699 5.17004 14.3899C5.33004 14.4699 5.50004 14.5399 5.67004 14.6199Z" fill="#241915"/>
</g>
<g style="mix-blend-mode:multiply" opacity="0.2">
<path d="M27.05 7.48975C27.05 7.48975 27.04 7.56975 27.01 7.68975C27.01 7.79975 27.03 7.91975 27.03 8.02975C27.04 7.84975 27.06 7.67975 27.06 7.48975H27.05Z" fill="#241915"/>
</g>
<g style="mix-blend-mode:multiply" opacity="0.2">
<path d="M0.5 10.45C0.5 10.45 0.92 11.26 1.98 12.26C1.47 11.77 1.07 11.25 0.76 10.71C0.67 10.62 0.58 10.54 0.5 10.45Z" fill="#241915"/>
</g>
<g style="mix-blend-mode:multiply" opacity="0.2">
<path d="M4.51999 14.0699C4.42999 14.0199 4.32999 13.9699 4.23999 13.9199C4.32999 13.9699 4.41999 14.0199 4.51999 14.0699Z" fill="#241915"/>
</g>
<g style="mix-blend-mode:multiply" opacity="0.2">
<path d="M8.05 15.4298C7.9 15.3898 7.76 15.3498 7.62 15.3098C7.76 15.3498 7.9 15.3998 8.05 15.4298Z" fill="#241915"/>
</g>
<g style="mix-blend-mode:multiply" opacity="0.2">
<path d="M24.39 12.8499C23.95 13.1999 23.47 13.5499 22.93 13.8599C22.32 14.2099 21.66 14.5199 20.98 14.7899C20.54 14.9599 20.1 15.1199 19.64 15.2599C22.07 14.5599 24.82 13.2699 26.18 10.8799C25.75 11.5699 25.15 12.2399 24.39 12.8499Z" fill="#241915"/>
</g>
<g style="mix-blend-mode:multiply" opacity="0.2">
<path d="M19.57 15.2798C19.31 15.3598 19.05 15.4198 18.79 15.4898C19.05 15.4298 19.31 15.3598 19.57 15.2798Z" fill="#241915"/>
</g>
<path d="M17.27 14.6499C16.77 14.7299 16.27 14.8099 15.72 14.8699C15.09 14.9399 14.44 14.9499 13.8 14.9399C13.23 14.9299 12.46 14.8899 11.59 14.8099C11.59 15.2599 11.62 15.6699 11.65 16.0099C12.69 16.0899 13.81 16.1199 15.04 16.0699C15.04 16.0699 16 16.0299 17.39 15.7799C17.39 15.3799 17.34 15.0099 17.27 14.6499V14.6499Z" fill="white"/>
<g style="mix-blend-mode:multiply" opacity="0.2">
<path d="M17.27 14.6499C16.77 14.7299 16.27 14.8099 15.72 14.8699C15.09 14.9399 14.44 14.9499 13.8 14.9399C13.23 14.9299 12.46 14.8899 11.59 14.8099C11.59 15.2599 11.62 15.6699 11.65 16.0099C12.69 16.0899 13.81 16.1199 15.04 16.0699C15.04 16.0699 16 16.0299 17.39 15.7799C17.39 15.3799 17.34 15.0099 17.27 14.6499V14.6499Z" fill="#241915"/>
</g>
<path d="M26.68 9.76994C26.86 9.23994 26.98 8.65994 27.03 8.02994C27.03 7.91994 27.03 7.79994 27.01 7.68994C26.94 7.97994 26.75 8.57994 26.32 9.32994C26.46 9.47994 26.58 9.62994 26.68 9.76994Z" fill="white"/>
<g style="mix-blend-mode:multiply" opacity="0.2">
<path d="M26.68 9.76994C26.86 9.23994 26.98 8.65994 27.03 8.02994C27.03 7.91994 27.03 7.79994 27.01 7.68994C26.94 7.97994 26.75 8.57994 26.32 9.32994C26.46 9.47994 26.58 9.62994 26.68 9.76994Z" fill="#241915"/>
</g>
<path d="M20.98 14.7897C21.66 14.5197 22.32 14.2097 22.93 13.8597C23.48 13.5397 23.96 13.1997 24.39 12.8497C24.26 12.5397 24.12 12.2397 23.96 11.9797C23.09 12.6497 22 13.2797 20.59 13.7997C20.77 14.1697 20.89 14.5097 20.97 14.7897H20.98Z" fill="white"/>
<g style="mix-blend-mode:multiply" opacity="0.2">
<path d="M20.98 14.7897C21.66 14.5197 22.32 14.2097 22.93 13.8597C23.48 13.5397 23.96 13.1997 24.39 12.8497C24.26 12.5397 24.12 12.2397 23.96 11.9797C23.09 12.6497 22 13.2797 20.59 13.7997C20.77 14.1697 20.89 14.5097 20.97 14.7897H20.98Z" fill="#241915"/>
</g>
<path d="M7.72004 14.1898C6.37004 13.8798 4.98004 13.4298 3.71004 12.8098C3.55004 12.9898 3.42004 13.1498 3.29004 13.3098C3.36004 13.3598 3.42004 13.4098 3.49004 13.4498H3.51004C3.74004 13.6098 4.00004 13.7598 4.26004 13.9098C4.35004 13.9598 4.44004 14.0098 4.54004 14.0598C4.74004 14.1698 4.96004 14.2798 5.18004 14.3798C5.35004 14.4598 5.51004 14.5398 5.68004 14.6098C5.86004 14.6898 6.06004 14.7598 6.25004 14.8398C6.45004 14.9198 6.65004 14.9898 6.86004 15.0598C7.10004 15.1398 7.36004 15.2198 7.62004 15.2998C7.62004 14.8998 7.66004 14.5298 7.72004 14.1898V14.1898Z" fill="white"/>
<g style="mix-blend-mode:multiply" opacity="0.2">
<path d="M7.72004 14.1898C6.37004 13.8798 4.98004 13.4298 3.71004 12.8098C3.55004 12.9898 3.42004 13.1498 3.29004 13.3098C3.36004 13.3598 3.42004 13.4098 3.49004 13.4498H3.51004C3.74004 13.6098 4.00004 13.7598 4.26004 13.9098C4.35004 13.9598 4.44004 14.0098 4.54004 14.0598C4.74004 14.1698 4.96004 14.2798 5.18004 14.3798C5.35004 14.4598 5.51004 14.5398 5.68004 14.6098C5.86004 14.6898 6.06004 14.7598 6.25004 14.8398C6.45004 14.9198 6.65004 14.9898 6.86004 15.0598C7.10004 15.1398 7.36004 15.2198 7.62004 15.2998C7.62004 14.8998 7.66004 14.5298 7.72004 14.1898V14.1898Z" fill="#241915"/>
</g>
<path d="M20.59 13.7998C19.63 14.1498 18.53 14.4398 17.27 14.6498C17.34 14.9998 17.39 15.3698 17.39 15.7798C17.82 15.6998 18.29 15.6098 18.79 15.4898C19.05 15.4198 19.32 15.3598 19.57 15.2798L19.63 15.2598C20.09 15.1198 20.54 14.9598 20.97 14.7898C20.89 14.5098 20.76 14.1698 20.59 13.7998Z" fill="#EAAE57"/>
<g style="mix-blend-mode:multiply" opacity="0.2">
<path d="M20.59 13.7998C19.63 14.1498 18.53 14.4398 17.27 14.6498C17.34 14.9998 17.39 15.3698 17.39 15.7798C17.82 15.6998 18.29 15.6098 18.79 15.4898C19.05 15.4198 19.32 15.3598 19.57 15.2798L19.63 15.2598C20.09 15.1198 20.54 14.9598 20.97 14.7898C20.89 14.5098 20.76 14.1698 20.59 13.7998Z" fill="#241915"/>
</g>
<path d="M26.32 9.32983C25.86 10.1298 25.13 11.0798 23.97 11.9798C24.13 12.2398 24.27 12.5398 24.4 12.8498C25.16 12.2398 25.76 11.5698 26.19 10.8798C26.39 10.5398 26.55 10.1698 26.69 9.76983C26.59 9.62983 26.47 9.48983 26.33 9.32983H26.32Z" fill="#EAAE57"/>
<g style="mix-blend-mode:multiply" opacity="0.2">
<path d="M26.32 9.32983C25.86 10.1298 25.13 11.0798 23.97 11.9798C24.13 12.2398 24.27 12.5398 24.4 12.8498C25.16 12.2398 25.76 11.5698 26.19 10.8798C26.39 10.5398 26.55 10.1698 26.69 9.76983C26.59 9.62983 26.47 9.48983 26.33 9.32983H26.32Z" fill="#241915"/>
</g>
<path d="M3.71001 12.81C2.60001 12.26 1.59001 11.57 0.76001 10.71C1.07001 11.24 1.48001 11.76 1.98001 12.26C2.34001 12.6 2.77001 12.95 3.28001 13.31C3.41001 13.15 3.55001 12.99 3.70001 12.81H3.71001Z" fill="#EAAE57"/>
<g style="mix-blend-mode:multiply" opacity="0.2">
<path d="M3.71001 12.81C2.60001 12.26 1.59001 11.57 0.76001 10.71C1.07001 11.24 1.48001 11.76 1.98001 12.26C2.34001 12.6 2.77001 12.95 3.28001 13.31C3.41001 13.15 3.55001 12.99 3.70001 12.81H3.71001Z" fill="#241915"/>
</g>
<path d="M11.6001 14.8099C10.4501 14.6999 9.10005 14.5199 7.72005 14.1899C7.65005 14.5299 7.61005 14.8999 7.62005 15.2999C7.76005 15.3399 7.91005 15.3899 8.05005 15.4299C9.11005 15.6999 10.3101 15.8999 11.6501 15.9999C11.6301 15.6599 11.6001 15.2399 11.5901 14.7999L11.6001 14.8099Z" fill="#EAAE57"/>
<g style="mix-blend-mode:multiply" opacity="0.2">
<path d="M11.6001 14.8099C10.4501 14.6999 9.10005 14.5199 7.72005 14.1899C7.65005 14.5299 7.61005 14.8999 7.62005 15.2999C7.76005 15.3399 7.91005 15.3899 8.05005 15.4299C9.11005 15.6999 10.3101 15.8999 11.6501 15.9999C11.6301 15.6599 11.6001 15.2399 11.5901 14.7999L11.6001 14.8099Z" fill="#241915"/>
</g>
</g>
<g clip-path="url(#clip1_165_3829)">
<g style="mix-blend-mode:multiply" opacity="0.2">
<path d="M54.21 12.09C49.78 9.37003 42.49 9.29003 37.93 11.93C33.36 14.57 33.25 18.91 37.67 21.64C42.1 24.37 49.39 24.44 53.95 21.8C58.52 19.16 58.63 14.82 54.2 12.09H54.21ZM49.74 18.8C47.44 20.13 43.77 20.09 41.54 18.72C39.31 17.35 39.37 15.16 41.67 13.83C43.97 12.5 47.64 12.54 49.87 13.91C52.1 15.28 52.04 17.47 49.74 18.8V18.8Z" fill="#241915"/>
</g>
<path d="M49.46 17.8301C49.17 18.1801 48.8 18.5101 48.3 18.8001C48.14 18.8901 47.97 18.9601 47.8 19.0401C49.3 19.7401 50.11 20.8501 50.53 21.7501C51.73 21.3101 52.66 20.7701 53.4 20.2001C52.26 18.2601 50.41 17.8901 49.45 17.8301H49.46Z" fill="white"/>
<path d="M49.99 15.8101C50.06 16.0801 50.06 16.3601 50.02 16.6301C53 16.0301 54.61 17.0701 55.41 17.9401C55.77 17.3001 55.94 16.7901 56 16.5401C55.96 16.0701 55.85 15.6101 55.65 15.1501C53.49 14.1501 51.18 15.1201 49.99 15.8001V15.8101Z" fill="white"/>
<path d="M39.08 14.1501C39.36 13.7601 39.71 13.4301 40.09 13.1601C39.38 12.3501 38.21 11.6501 37.66 11.3601C37.26 11.5401 36.87 11.7301 36.5 11.9401C36.04 12.2101 35.64 12.4901 35.27 12.7901C37.03 12.5601 38.38 13.5001 39.09 14.1601L39.08 14.1501Z" fill="white"/>
<path d="M38.66 17.16C38.47 16.72 38.43 16.27 38.54 15.83H38.51C36.98 15.21 34.21 15.89 33.05 16.22C32.9 17.15 33.08 18.1 33.58 19C34.69 16.76 37.45 16.95 38.67 17.16H38.66Z" fill="white"/>
<path d="M48.49 13.1801C48.9 13.4801 49.21 13.8101 49.43 14.1301C50.35 12.6201 51.95 12.2601 52.92 12.1901C52.87 12.1601 52.82 12.1201 52.77 12.0901C52.14 11.7001 51.45 11.3801 50.73 11.1001C49.5 11.4201 48.84 12.3801 48.49 13.1801V13.1801Z" fill="white"/>
<path d="M46.8299 12.37C46.8299 11.39 47.1899 10.67 47.4899 10.24C46.8199 10.13 46.1299 10.06 45.4399 10.03L45.6299 12.11C46.0699 12.18 46.4699 12.26 46.8299 12.37Z" fill="white"/>
<path d="M41.72 12.3301C42.41 12.0901 42.94 12.0001 42.94 12.0001C43.12 11.9901 43.27 12.0001 43.44 11.9901L42.6 10.1001C41.82 10.1801 41.05 10.3001 40.3 10.4701C41 10.9701 41.44 11.7101 41.71 12.3301H41.72Z" fill="white"/>
<path d="M55.75 18.3601C55.93 17.8601 56.02 17.3501 56.02 16.8401C55.98 17.3701 55.88 17.8701 55.72 18.3201C55.72 18.3301 55.74 18.3501 55.75 18.3601Z" fill="white"/>
<path d="M41.45 19.3199C40.97 19.1599 40.5 18.9699 40.1 18.7199C40.01 18.6599 39.95 18.5999 39.86 18.5399C38.55 18.4999 37.09 19.8499 36.15 20.9099C37.23 21.4399 38.41 21.8199 39.56 22.0899C39.85 20.5999 40.8 19.7399 41.44 19.3299L41.45 19.3199Z" fill="white"/>
<path d="M38.83 22.8301C39.04 22.9001 39.26 22.9701 39.48 23.0301C39.26 22.9701 39.04 22.9001 38.83 22.8301Z" fill="white"/>
<path d="M38.31 22.64C38.15 22.58 37.98 22.51 37.83 22.45C37.99 22.52 38.15 22.58 38.31 22.64V22.64Z" fill="white"/>
<path d="M36.24 21.64C36.36 21.71 36.49 21.78 36.61 21.85C36.39 21.72 36.17 21.59 35.97 21.46C36.06 21.52 36.14 21.58 36.23 21.64H36.24Z" fill="white"/>
<path d="M47.81 23.4399C46.63 23.6499 45.81 23.6799 45.81 23.6799C44.76 23.7299 43.81 23.6999 42.92 23.6299V23.6599C44.55 23.7999 46.22 23.7199 47.8 23.4399H47.81Z" fill="white"/>
<path d="M46.39 22.6601C46.85 22.6101 47.29 22.5401 47.71 22.4701C47.43 21.0801 46.61 20.1501 45.93 19.6101C45.08 19.7601 44.19 19.8001 43.32 19.7101C42.93 20.2501 42.85 21.5201 42.88 22.6001C43.63 22.6701 44.28 22.7001 44.76 22.7101C45.3 22.7201 45.85 22.7101 46.39 22.6501V22.6601Z" fill="white"/>
<path d="M37.39 22.25C37.2 22.16 37.02 22.07 36.84 21.98C37.02 22.07 37.2 22.17 37.39 22.25Z" fill="white"/>
<path d="M35.79 21.3401C35.85 21.3801 35.9 21.4201 35.96 21.4601C35.9 21.4201 35.85 21.3801 35.79 21.3401Z" fill="white"/>
<path d="M47.8 19.04C47.22 19.31 46.59 19.5 45.93 19.62C46.61 20.16 47.43 21.09 47.71 22.48C48.78 22.3 49.72 22.05 50.54 21.75C50.11 20.85 49.3 19.74 47.81 19.04H47.8Z" fill="#E5775E"/>
<path d="M47.81 23.4399C48.21 23.3699 48.61 23.2799 49 23.1799C48.58 23.2799 48.18 23.3599 47.81 23.4299V23.4399Z" fill="#E5775E"/>
<path d="M49.72 23L49.67 23.02L49.72 23Z" fill="#E5775E"/>
<path d="M55.29 19.2601C55.47 18.9601 55.63 18.6601 55.74 18.3601C55.74 18.3501 55.72 18.3301 55.71 18.3201C55.6 18.6501 55.45 18.9701 55.29 19.2601V19.2601Z" fill="#E5775E"/>
<path d="M53.41 20.2C54.4 19.43 55.03 18.63 55.41 17.95C54.61 17.08 52.99 16.03 50.02 16.64C49.96 17.05 49.77 17.46 49.46 17.84C50.42 17.9 52.26 18.27 53.41 20.21V20.2Z" fill="#E5775E"/>
<path d="M49.43 14.14C50.01 14.97 50.04 15.73 50.04 15.73C49.95 15.52 49.83 15.33 49.71 15.15C49.84 15.37 49.93 15.59 49.99 15.82C51.18 15.14 53.49 14.17 55.65 15.17C55.19 14.09 54.28 13.07 52.93 12.21C51.95 12.28 50.36 12.64 49.44 14.15L49.43 14.14Z" fill="#E5775E"/>
<path d="M48.4899 13.18C48.8399 12.38 49.5099 11.42 50.7299 11.1C49.7099 10.71 48.6199 10.42 47.4799 10.24C47.1799 10.67 46.8199 11.39 46.8199 12.37C47.5099 12.58 48.0599 12.87 48.4799 13.18H48.4899Z" fill="#E5775E"/>
<path d="M45.63 12.11L45.44 10.03C44.49 9.98001 43.54 10 42.6 10.1L43.44 11.99C44.27 11.97 45 12.01 45.63 12.11V12.11Z" fill="#E5775E"/>
<path d="M40.08 13.16C40.62 12.78 41.21 12.52 41.71 12.34C41.44 11.71 41 10.98 40.3 10.48C39.37 10.7 38.48 10.99 37.64 11.36C38.19 11.66 39.36 12.35 40.07 13.16H40.08Z" fill="#E5775E"/>
<path d="M38.79 15.21C38.7 15.35 38.64 15.48 38.6 15.58C38.65 15.46 38.72 15.34 38.79 15.21Z" fill="#E5775E"/>
<path d="M38.5099 15.8101H38.5399C38.5599 15.7501 38.5599 15.6801 38.5799 15.6101C38.5299 15.7201 38.5099 15.7901 38.5099 15.8101Z" fill="#E5775E"/>
<path d="M38.51 15.81C38.53 15.15 38.75 14.6 39.07 14.14C38.37 13.49 37.01 12.55 35.25 12.77C33.98 13.81 33.24 15 33.05 16.22C34.21 15.89 36.98 15.2 38.51 15.81Z" fill="#E5775E"/>
<path d="M36.16 20.9101C37.1 19.8601 38.56 18.5101 39.87 18.5401C39.28 18.1301 38.88 17.6501 38.67 17.1501C37.45 16.9401 34.7 16.7601 33.58 18.9901C33.6 19.0301 33.62 19.0701 33.65 19.1101C34.36 19.8401 35.22 20.4301 36.16 20.9001V20.9101Z" fill="#E5775E"/>
<path d="M34.69 20.4399C35.01 20.7499 35.38 21.0499 35.8 21.3399C35.36 21.0299 34.99 20.7299 34.69 20.4399V20.4399Z" fill="#E5775E"/>
<path d="M43.3199 19.7201C42.6699 19.6601 42.0399 19.5201 41.4499 19.3201C40.8199 19.7401 39.8599 20.6001 39.5699 22.0801C40.7499 22.3501 41.8999 22.5101 42.8799 22.6001C42.8599 21.5201 42.9299 20.2501 43.3199 19.7101V19.7201Z" fill="#E5775E"/>
<path d="M39.48 23.03L39.49 23.04L39.48 23.03Z" fill="#E5775E"/>
<path d="M39.86 23.1399C40.85 23.3999 41.88 23.5699 42.93 23.6599V23.6299C41.79 23.5399 40.76 23.3699 39.86 23.1399V23.1399Z" fill="#E5775E"/>
<g style="mix-blend-mode:multiply" opacity="0.2">
<path d="M48.43 13.9099C48.38 13.8799 48.31 13.8499 48.26 13.8199C47.85 13.5899 47.4 13.3999 46.93 13.2599C46.54 13.1399 46.14 13.0399 45.72 12.9799C45.11 12.8899 44.48 12.8599 43.85 12.8799C43.22 12.9099 42.61 12.9899 42.02 13.1399C41.47 13.2799 40.96 13.4699 40.49 13.7099C40.41 13.7499 40.32 13.7799 40.24 13.8299C39.91 14.0199 39.64 14.2299 39.4 14.4499C39.14 14.6899 38.95 14.9499 38.8 15.2099C39.3 14.4099 40.61 13.0799 43.96 12.8999C43.96 12.8999 48.06 12.7299 49.72 15.1399C49.59 14.9299 49.43 14.7299 49.23 14.5299C49.01 14.3099 48.75 14.0999 48.43 13.8999V13.9099Z" fill="#241915"/>
</g>
<path d="M39.39 14.4499C39.63 14.2299 39.9 14.0199 40.23 13.8299C40.31 13.7799 40.4 13.7499 40.48 13.7099C40.38 13.5199 40.25 13.3299 40.09 13.1499C39.71 13.4199 39.36 13.7499 39.08 14.1399C39.2 14.2499 39.31 14.3599 39.39 14.4499V14.4499Z" fill="white"/>
<g style="mix-blend-mode:multiply" opacity="0.2">
<path d="M39.39 14.4499C39.63 14.2299 39.9 14.0199 40.23 13.8299C40.31 13.7799 40.4 13.7499 40.48 13.7099C40.38 13.5199 40.25 13.3299 40.09 13.1499C39.71 13.4199 39.36 13.7499 39.08 14.1399C39.2 14.2499 39.31 14.3599 39.39 14.4499V14.4499Z" fill="#241915"/>
</g>
<path d="M43.84 12.88L43.44 11.99C43.27 11.99 43.12 11.99 42.94 12C42.94 12 42.41 12.09 41.72 12.33C41.86 12.65 41.95 12.93 42.01 13.13C42.6 12.98 43.22 12.9 43.84 12.87V12.88Z" fill="white"/>
<g style="mix-blend-mode:multiply" opacity="0.2">
<path d="M43.84 12.88L43.44 11.99C43.27 11.99 43.12 11.99 42.94 12C42.94 12 42.41 12.09 41.72 12.33C41.86 12.65 41.95 12.93 42.01 13.13C42.6 12.98 43.22 12.9 43.84 12.87V12.88Z" fill="#241915"/>
</g>
<path d="M48.4299 13.9099C48.7399 14.0999 48.9999 14.3199 49.2299 14.5399C49.2999 14.3999 49.3599 14.2599 49.4399 14.1399C49.2199 13.8199 48.9099 13.4899 48.4999 13.1899C48.3999 13.4199 48.3199 13.6499 48.2599 13.8299C48.3199 13.8599 48.3799 13.8799 48.4299 13.9199V13.9099Z" fill="white"/>
<g style="mix-blend-mode:multiply" opacity="0.2">
<path d="M48.4299 13.9099C48.7399 14.0999 48.9999 14.3199 49.2299 14.5399C49.2999 14.3999 49.3599 14.2599 49.4399 14.1399C49.2199 13.8199 48.9099 13.4899 48.4999 13.1899C48.3999 13.4199 48.3199 13.6499 48.2599 13.8299C48.3199 13.8599 48.3799 13.8799 48.4299 13.9199V13.9099Z" fill="#241915"/>
</g>
<path d="M46.9199 13.2601C46.8499 12.9401 46.8299 12.6501 46.8299 12.3701C46.4699 12.2601 46.0699 12.1701 45.6299 12.1101L45.7099 12.9801C46.1299 13.0401 46.5299 13.1401 46.9199 13.2601V13.2601Z" fill="white"/>
<g style="mix-blend-mode:multiply" opacity="0.2">
<path d="M46.9199 13.2601C46.8499 12.9401 46.8299 12.6501 46.8299 12.3701C46.4699 12.2601 46.0699 12.1701 45.6299 12.1101L45.7099 12.9801C46.1299 13.0401 46.5299 13.1401 46.9199 13.2601V13.2601Z" fill="#241915"/>
</g>
<path d="M49.71 15.1499C49.83 15.3299 49.95 15.5199 50.04 15.7299C50.04 15.7299 50.01 14.9699 49.43 14.1399C49.35 14.2599 49.29 14.3999 49.22 14.5399C49.42 14.7399 49.58 14.9399 49.71 15.1499V15.1499Z" fill="#E5775E"/>
<g style="mix-blend-mode:multiply" opacity="0.2">
<path d="M49.71 15.1499C49.83 15.3299 49.95 15.5199 50.04 15.7299C50.04 15.7299 50.01 14.9699 49.43 14.1399C49.35 14.2599 49.29 14.3999 49.22 14.5399C49.42 14.7399 49.58 14.9399 49.71 15.1499V15.1499Z" fill="#241915"/>
</g>
<path d="M46.92 13.2601C47.4 13.4101 47.85 13.5901 48.25 13.8201C48.3 13.6401 48.38 13.4101 48.49 13.1801C48.06 12.8601 47.52 12.5801 46.83 12.3701C46.83 12.6501 46.86 12.9401 46.92 13.2601Z" fill="#E5775E"/>
<g style="mix-blend-mode:multiply" opacity="0.2">
<path d="M46.92 13.2601C47.4 13.4101 47.85 13.5901 48.25 13.8201C48.3 13.6401 48.38 13.4101 48.49 13.1801C48.06 12.8601 47.52 12.5801 46.83 12.3701C46.83 12.6501 46.86 12.9401 46.92 13.2601Z" fill="#241915"/>
</g>
<path d="M45.7099 12.9801L45.6299 12.1101C44.9999 12.0101 44.2699 11.9701 43.4399 11.9901L43.8399 12.8801C44.4699 12.8501 45.0999 12.8801 45.7099 12.9801Z" fill="#E5775E"/>
<g style="mix-blend-mode:multiply" opacity="0.2">
<path d="M45.7099 12.9801L45.6299 12.1101C44.9999 12.0101 44.2699 11.9701 43.4399 11.9901L43.8399 12.8801C44.4699 12.8501 45.0999 12.8801 45.7099 12.9801Z" fill="#241915"/>
</g>
<path d="M42.01 13.1401C41.95 12.9401 41.86 12.6601 41.72 12.3401C41.21 12.5201 40.63 12.7801 40.09 13.1601C40.25 13.3401 40.38 13.5301 40.48 13.7201C40.95 13.4801 41.46 13.2801 42.01 13.1501V13.1401Z" fill="#E5775E"/>
<g style="mix-blend-mode:multiply" opacity="0.2">
<path d="M42.01 13.1401C41.95 12.9401 41.86 12.6601 41.72 12.3401C41.21 12.5201 40.63 12.7801 40.09 13.1601C40.25 13.3401 40.38 13.5301 40.48 13.7201C40.95 13.4801 41.46 13.2801 42.01 13.1501V13.1401Z" fill="#241915"/>
</g>
<path d="M38.6 15.5799C38.64 15.4799 38.71 15.3499 38.79 15.2099C38.94 14.9499 39.13 14.6899 39.39 14.4499C39.31 14.3599 39.2 14.2599 39.08 14.1399C38.76 14.5999 38.54 15.1499 38.52 15.8099C38.52 15.8099 38.55 15.7199 38.59 15.6099V15.5799H38.6Z" fill="#E5775E"/>
<g style="mix-blend-mode:multiply" opacity="0.2">
<path d="M38.6 15.5799C38.64 15.4799 38.71 15.3499 38.79 15.2099C38.94 14.9499 39.13 14.6899 39.39 14.4499C39.31 14.3599 39.2 14.2599 39.08 14.1399C38.76 14.5999 38.54 15.1499 38.52 15.8099C38.52 15.8099 38.55 15.7199 38.59 15.6099V15.5799H38.6Z" fill="#241915"/>
</g>
<g style="mix-blend-mode:multiply" opacity="0.2">
<path d="M33.42 18.8999C33.42 18.8999 33.78 19.5899 34.68 20.4399C34.25 20.0199 33.9 19.5799 33.64 19.1199C33.57 19.0399 33.49 18.9699 33.42 18.8999V18.8999Z" fill="#241915"/>
</g>
<g style="mix-blend-mode:multiply" opacity="0.2">
<path d="M39.86 23.14C39.74 23.11 39.61 23.07 39.49 23.03C39.61 23.07 39.73 23.1 39.86 23.14Z" fill="#241915"/>
</g>
<g style="mix-blend-mode:multiply" opacity="0.2">
<path d="M36.85 21.9801C36.77 21.9401 36.69 21.8901 36.61 21.8501C36.69 21.8901 36.77 21.9401 36.85 21.9801V21.9801Z" fill="#241915"/>
</g>
<g style="mix-blend-mode:multiply" opacity="0.2">
<path d="M38.83 22.8299C38.65 22.7699 38.48 22.7099 38.31 22.6399C38.48 22.7099 38.65 22.7699 38.83 22.8299Z" fill="#241915"/>
</g>
<g style="mix-blend-mode:multiply" opacity="0.2">
<path d="M37.83 22.45C37.68 22.39 37.54 22.32 37.4 22.25C37.54 22.32 37.68 22.38 37.83 22.45Z" fill="#241915"/>
</g>
<g style="mix-blend-mode:multiply" opacity="0.2">
<path d="M56.03 16.3801C56.03 16.3801 56.02 16.4501 55.99 16.5501C55.99 16.6501 56 16.7401 56.01 16.8401C56.02 16.6901 56.03 16.5401 56.03 16.3801Z" fill="#241915"/>
</g>
<g style="mix-blend-mode:multiply" opacity="0.2">
<path d="M49.67 23.01C49.45 23.08 49.23 23.13 49 23.19C49.22 23.14 49.44 23.08 49.67 23.01Z" fill="#241915"/>
</g>
<g style="mix-blend-mode:multiply" opacity="0.2">
<path d="M53.77 20.94C53.4 21.24 52.99 21.53 52.52 21.8C52 22.1 51.44 22.36 50.86 22.59C50.49 22.74 50.11 22.87 49.72 22.99C51.79 22.4 54.13 21.29 55.29 19.26C54.92 19.85 54.42 20.42 53.77 20.94Z" fill="#241915"/>
</g>
<path d="M55.72 18.32C55.88 17.87 55.98 17.37 56.02 16.84C56.02 16.74 56.02 16.65 56 16.55C55.94 16.8 55.78 17.31 55.41 17.95C55.53 18.08 55.63 18.21 55.72 18.32V18.32Z" fill="white"/>
<g style="mix-blend-mode:multiply" opacity="0.2">
<path d="M55.72 18.32C55.88 17.87 55.98 17.37 56.02 16.84C56.02 16.74 56.02 16.65 56 16.55C55.94 16.8 55.78 17.31 55.41 17.95C55.53 18.08 55.63 18.21 55.72 18.32V18.32Z" fill="#241915"/>
</g>
<path d="M47.7099 22.48C47.2899 22.55 46.8599 22.62 46.3899 22.67C45.8499 22.73 45.2999 22.74 44.7599 22.73C44.2699 22.72 43.6199 22.69 42.8799 22.62C42.8799 23 42.9099 23.35 42.9299 23.64C43.8199 23.71 44.7699 23.74 45.8199 23.69C45.8199 23.69 46.6399 23.65 47.8199 23.45C47.8199 23.11 47.7799 22.79 47.7199 22.49L47.7099 22.48Z" fill="white"/>
<g style="mix-blend-mode:multiply" opacity="0.2">
<path d="M47.7099 22.48C47.2899 22.55 46.8599 22.62 46.3899 22.67C45.8499 22.73 45.2999 22.74 44.7599 22.73C44.2699 22.72 43.6199 22.69 42.8799 22.62C42.8799 23 42.9099 23.35 42.9299 23.64C43.8199 23.71 44.7699 23.74 45.8199 23.69C45.8199 23.69 46.6399 23.65 47.8199 23.45C47.8199 23.11 47.7799 22.79 47.7199 22.49L47.7099 22.48Z" fill="#241915"/>
</g>
<path d="M39.57 22.0899C38.42 21.8199 37.24 21.4499 36.16 20.9099C36.03 21.0599 35.91 21.1999 35.8 21.3299C35.86 21.3699 35.91 21.4099 35.97 21.4499H35.98C36.18 21.5899 36.39 21.7199 36.62 21.8499C36.7 21.8899 36.78 21.9399 36.86 21.9799C37.03 22.0699 37.22 22.1599 37.41 22.2499C37.55 22.3199 37.7 22.3799 37.84 22.4499C38 22.5199 38.16 22.5799 38.32 22.6399C38.49 22.7099 38.66 22.7699 38.84 22.8299C39.05 22.8999 39.27 22.9699 39.49 23.0299C39.49 22.6899 39.52 22.3699 39.58 22.0799L39.57 22.0899Z" fill="white"/>
<g style="mix-blend-mode:multiply" opacity="0.2">
<path d="M39.57 22.0899C38.42 21.8199 37.24 21.4499 36.16 20.9099C36.03 21.0599 35.91 21.1999 35.8 21.3299C35.86 21.3699 35.91 21.4099 35.97 21.4499H35.98C36.18 21.5899 36.39 21.7199 36.62 21.8499C36.7 21.8899 36.78 21.9399 36.86 21.9799C37.03 22.0699 37.22 22.1599 37.41 22.2499C37.55 22.3199 37.7 22.3799 37.84 22.4499C38 22.5199 38.16 22.5799 38.32 22.6399C38.49 22.7099 38.66 22.7699 38.84 22.8299C39.05 22.8999 39.27 22.9699 39.49 23.0299C39.49 22.6899 39.52 22.3699 39.58 22.0799L39.57 22.0899Z" fill="#241915"/>
</g>
<path d="M50.86 22.59C51.44 22.36 52 22.1 52.52 21.8C52.99 21.53 53.39 21.24 53.77 20.94C53.66 20.67 53.54 20.42 53.41 20.2C52.67 20.77 51.74 21.31 50.54 21.75C50.69 22.07 50.8 22.36 50.87 22.59H50.86Z" fill="white"/>
<g style="mix-blend-mode:multiply" opacity="0.2">
<path d="M50.86 22.59C51.44 22.36 52 22.1 52.52 21.8C52.99 21.53 53.39 21.24 53.77 20.94C53.66 20.67 53.54 20.42 53.41 20.2C52.67 20.77 51.74 21.31 50.54 21.75C50.69 22.07 50.8 22.36 50.87 22.59H50.86Z" fill="#241915"/>
</g>
<path d="M50.54 21.75C49.73 22.05 48.78 22.29 47.71 22.48C47.77 22.78 47.81 23.1 47.81 23.44C48.18 23.38 48.58 23.29 49 23.19C49.22 23.13 49.45 23.08 49.67 23.01L49.72 22.99C50.11 22.87 50.49 22.73 50.86 22.59C50.79 22.36 50.68 22.06 50.53 21.75H50.54Z" fill="#E5775E"/>
<g style="mix-blend-mode:multiply" opacity="0.2">
<path d="M50.54 21.75C49.73 22.05 48.78 22.29 47.71 22.48C47.77 22.78 47.81 23.1 47.81 23.44C48.18 23.38 48.58 23.29 49 23.19C49.22 23.13 49.45 23.08 49.67 23.01L49.72 22.99C50.11 22.87 50.49 22.73 50.86 22.59C50.79 22.36 50.68 22.06 50.53 21.75H50.54Z" fill="#241915"/>
</g>
<path d="M55.41 17.95C55.02 18.63 54.4 19.44 53.41 20.2C53.54 20.42 53.66 20.67 53.77 20.94C54.42 20.42 54.93 19.85 55.29 19.26C55.46 18.97 55.6 18.65 55.71 18.32C55.63 18.2 55.52 18.08 55.4 17.95H55.41Z" fill="#E5775E"/>
<g style="mix-blend-mode:multiply" opacity="0.2">
<path d="M55.41 17.95C55.02 18.63 54.4 19.44 53.41 20.2C53.54 20.42 53.66 20.67 53.77 20.94C54.42 20.42 54.93 19.85 55.29 19.26C55.46 18.97 55.6 18.65 55.71 18.32C55.63 18.2 55.52 18.08 55.4 17.95H55.41Z" fill="#241915"/>
</g>
<path d="M36.16 20.9101C35.21 20.4401 34.35 19.8501 33.65 19.1201C33.92 19.5701 34.26 20.0201 34.69 20.4401C34.99 20.7301 35.36 21.0301 35.8 21.3301C35.91 21.2001 36.03 21.0601 36.16 20.9101V20.9101Z" fill="#E5775E"/>
<g style="mix-blend-mode:multiply" opacity="0.2">
<path d="M36.16 20.9101C35.21 20.4401 34.35 19.8501 33.65 19.1201C33.92 19.5701 34.26 20.0201 34.69 20.4401C34.99 20.7301 35.36 21.0301 35.8 21.3301C35.91 21.2001 36.03 21.0601 36.16 20.9101V20.9101Z" fill="#241915"/>
</g>
<path d="M42.88 22.6101C41.9 22.5201 40.75 22.3601 39.57 22.0901C39.51 22.3801 39.48 22.7001 39.48 23.0401C39.6 23.0801 39.72 23.1201 39.85 23.1501C40.75 23.3801 41.78 23.5501 42.92 23.6401C42.9 23.3501 42.88 23.0001 42.87 22.6201L42.88 22.6101Z" fill="#E5775E"/>
<g style="mix-blend-mode:multiply" opacity="0.2">
<path d="M42.88 22.6101C41.9 22.5201 40.75 22.3601 39.57 22.0901C39.51 22.3801 39.48 22.7001 39.48 23.0401C39.6 23.0801 39.72 23.1201 39.85 23.1501C40.75 23.3801 41.78 23.5501 42.92 23.6401C42.9 23.3501 42.88 23.0001 42.87 22.6201L42.88 22.6101Z" fill="#241915"/>
</g>
</g>
<defs>
<clipPath id="clip0_165_3829">
<rect width="28.72" height="16.13" fill="white"/>
</clipPath>
<clipPath id="clip1_165_3829">
<rect width="24.46" height="13.73" fill="white" transform="translate(33 10)"/>
</clipPath>
</defs>
</svg>
