<svg width="267" height="267" viewBox="0 0 267 267" fill="none" xmlns="http://www.w3.org/2000/svg">
<path d="M61.2402 12.26C61.2802 10.58 60.0602 9.09997 58.3502 8.84997C57.2502 8.68997 56.2002 9.09002 55.4702 9.83002C55.0902 9.58002 54.6602 9.41003 54.1802 9.34003C53.0702 9.18003 52.0102 9.63 51.3302 10.44C50.8002 10 50.1602 9.70003 49.4302 9.59003C48.6002 9.47003 47.7902 9.63 47.1002 10C46.5702 9.01 45.5902 8.26997 44.3902 8.09997C43.3902 7.95997 42.4202 8.22999 41.6702 8.79999C41.1602 8.32999 40.5202 8.00997 39.7902 7.90997C38.5802 7.73997 37.4302 8.19998 36.6702 9.03998C36.1302 8.09998 35.1702 7.39999 34.0102 7.23999C33.2302 7.12999 32.4702 7.26998 31.8202 7.60998C31.4202 7.30998 30.9402 7.10998 30.4102 7.03998C30.0902 6.98998 29.7802 6.99998 29.4802 7.03998C28.9902 6.49998 28.3202 6.12001 27.5502 6.01001C26.6802 5.89001 25.8502 6.11997 25.1902 6.59997C24.6102 6.02997 23.8502 5.63001 22.9802 5.51001C22.6402 5.46001 22.3102 5.46 21.9902 5.5C21.3802 4.67 20.4502 4.06997 19.3502 3.90997C18.0702 3.72997 16.8402 4.18003 15.9802 5.03003C15.6602 4.85003 15.3002 4.71997 14.9102 4.65997C14.0802 4.53997 13.2802 4.76998 12.6602 5.22998C12.1302 4.05998 11.0302 3.17998 9.67017 2.97998C7.71017 2.69998 5.88018 3.92998 5.37018 5.78998C4.66018 6.08998 4.11019 6.75001 4.00019 7.57001C3.88019 8.44001 4.26018 9.27001 4.93018 9.76001C4.92018 9.82001 4.90017 9.88 4.89017 9.94C4.71017 11.24 5.61018 12.44 6.90018 12.62C7.62018 12.72 8.31019 12.49 8.81019 12.04C9.26019 12.35 9.79018 12.57 10.3702 12.65C11.0002 12.74 11.6102 12.66 12.1702 12.46C12.5702 13.61 13.5802 14.5 14.8702 14.69C15.9702 14.85 17.0102 14.45 17.7402 13.72C18.3602 14.47 19.2502 15.01 20.2902 15.15C21.0202 15.25 21.7302 15.15 22.3702 14.9C22.9802 15.8 23.9402 16.45 25.1002 16.61C26.2902 16.78 27.4302 16.4 28.2702 15.67C28.6802 15.93 29.1402 16.1 29.6402 16.18C30.4502 16.3 31.2302 16.12 31.8902 15.74C32.3902 16.19 33.0302 16.51 33.7502 16.61C34.7902 16.76 35.7802 16.43 36.5202 15.81C37.0202 16.79 37.9802 17.53 39.1502 17.7C40.3402 17.87 41.4702 17.42 42.2302 16.6C42.6002 18.01 43.7902 19.13 45.3202 19.35C46.4302 19.51 47.4802 19.16 48.2702 18.49C48.8602 19.45 49.8502 20.15 51.0502 20.32C52.7602 20.56 54.3702 19.66 55.1002 18.19C55.4402 18.39 55.8302 18.53 56.2502 18.59C57.9602 18.83 59.5502 17.64 59.8002 15.93C59.8002 15.9 59.8002 15.88 59.8002 15.85C60.8902 16.01 61.8902 15.25 62.0502 14.16C62.1602 13.39 61.8102 12.66 61.2202 12.25L61.2402 12.26Z" fill="url(#paint0_linear_7_24078)"/>
<g clip-path="url(#clip0_7_24078)">
<path d="M43.2201 1.18C43.0701 0.470002 42.1501 -0.0399983 41.0701 1.68104e-06C40.3701 0.0300017 39.7601 0.290002 39.3901 0.660002C39.1301 0.590002 38.8401 0.550002 38.5401 0.570002C37.8301 0.600002 37.2201 0.880002 36.8901 1.28C36.5201 1.14 36.0801 1.07 35.6201 1.09C35.0901 1.11 34.6101 1.25 34.2201 1.46C33.7801 1.09 33.1001 0.870002 32.3401 0.900002C31.7001 0.930002 31.1301 1.13 30.7301 1.43C30.3701 1.28 29.9301 1.2 29.4701 1.22C28.7001 1.25 28.0401 1.55 27.6601 1.97C27.2201 1.62 26.5601 1.41 25.8201 1.45C25.3201 1.47 24.8701 1.6 24.5001 1.8C24.2201 1.71 23.9001 1.67 23.5701 1.68C23.3701 1.68 23.1801 1.72 22.9901 1.76C22.6301 1.58 22.1701 1.47 21.6801 1.5C21.1301 1.52 20.6401 1.7 20.2801 1.95C19.8601 1.76 19.3501 1.66 18.8001 1.69C18.5901 1.69 18.3801 1.73 18.1901 1.77C17.7201 1.47 17.0801 1.31 16.3801 1.34C15.5601 1.38 14.8501 1.67 14.4201 2.1C14.2001 2.05 13.9701 2.03 13.7201 2.04C13.1901 2.06 12.7201 2.23 12.3901 2.47C11.9301 2.03 11.1601 1.75 10.3001 1.79C9.06011 1.84 8.06011 2.52 7.94011 3.34C7.52011 3.53 7.26011 3.85 7.27011 4.21C7.29011 4.59 7.61011 4.9 8.08011 5.04C8.08011 5.07 8.08011 5.09 8.08011 5.12C8.10011 5.68 8.79011 6.1 9.61011 6.07C10.0701 6.05 10.4701 5.89 10.7301 5.66C11.0401 5.75 11.3901 5.8 11.7601 5.78C12.1601 5.76 12.5301 5.68 12.8501 5.54C13.2201 5.99 13.9401 6.27 14.7601 6.24C15.4601 6.21 16.0601 5.95 16.4301 5.58C16.8901 5.84 17.5001 5.99 18.1601 5.96C18.6201 5.94 19.0501 5.84 19.4201 5.67C19.8901 5.99 20.5601 6.18 21.2901 6.15C22.0401 6.12 22.7101 5.86 23.1501 5.48C23.4301 5.55 23.7301 5.59 24.0501 5.57C24.5601 5.55 25.0301 5.41 25.4001 5.19C25.7601 5.34 26.1901 5.41 26.6401 5.39C27.3001 5.36 27.8801 5.14 28.2701 4.81C28.6901 5.18 29.3601 5.4 30.1001 5.37C30.8501 5.34 31.5101 5.05 31.8901 4.64C32.2701 5.2 33.1301 5.57 34.1001 5.52C34.8001 5.49 35.4201 5.25 35.8401 4.9C36.3101 5.25 37.0001 5.46 37.7601 5.42C38.8501 5.37 39.7401 4.85 40.0401 4.17C40.2701 4.22 40.5301 4.25 40.7901 4.24C41.8801 4.19 42.7301 3.56 42.7001 2.82C42.7001 2.81 42.7001 2.8 42.7001 2.79C43.3901 2.76 43.9301 2.36 43.9101 1.89C43.9001 1.56 43.6001 1.28 43.1901 1.16L43.2201 1.18Z" fill="url(#paint1_linear_7_24078)"/>
</g>
<path d="M251.01 164.91C251.01 164.91 254.21 179.13 239.85 193.01C206.9 224.86 236.8 265.81 236.8 265.81" stroke="#540E0E" stroke-miterlimit="10"/>
<path d="M19.4202 26.65L11.6202 18.55C8.18017 14.98 10.5102 9.00997 15.4602 8.71997L26.9802 8.03998L19.4202 26.65V26.65Z" fill="#ED6969"/>
<path d="M18.8501 15.67C20.9501 10.37 25.1701 7.06999 28.2901 8.29999C28.3901 8.33999 28.4801 8.37999 28.5801 8.42999L77.9801 28.48L68.5801 35.87L70.1602 47.29L20.5902 27.46C17.5802 26.13 16.8001 20.91 18.8701 15.67H18.8501Z" fill="#E64E47"/>
<path d="M79.6666 40.0613C81.7356 34.8276 80.9189 29.599 77.8424 28.3828C74.7659 27.1665 70.5946 30.4233 68.5256 35.657C66.4567 40.8907 67.2734 46.1193 70.3499 47.3355C73.4264 48.5517 77.5977 45.295 79.6666 40.0613Z" fill="#DD4D44"/>
<path d="M58.1001 31.55C60.6201 25.16 65.7102 21.19 69.4702 22.67C69.5902 22.72 69.7001 22.77 69.8201 22.82L79.0002 26.7L67.6701 35.5999L69.5701 49.36L60.1802 45.74C56.5502 44.14 55.6101 37.85 58.1001 31.55V31.55Z" fill="#C83131"/>
<path d="M81.0173 40.6733C83.5086 34.3713 82.5262 28.0758 78.8231 26.6119C75.12 25.148 70.0984 29.07 67.6071 35.372C65.1158 41.6739 66.0981 47.9694 69.8012 49.4334C73.5043 50.8973 78.5259 46.9753 81.0173 40.6733Z" fill="#A02020"/>
<path d="M75.1402 33.92C75.6602 33 76.5102 32.5 77.0502 32.81C77.0702 32.81 77.0802 32.83 77.1002 32.84L85.6402 37.76L83.7302 38.88V41.01L75.1502 36.13C74.6302 35.81 74.6202 34.83 75.1302 33.93L75.1402 33.92Z" fill="#721818"/>
<path d="M85.6568 39.8951C86.1669 38.9907 86.1474 38.0135 85.6135 37.7123C85.0795 37.4112 84.2332 37.9002 83.7232 38.8046C83.2131 39.709 83.2325 40.6863 83.7665 40.9874C84.3005 41.2886 85.1468 40.7995 85.6568 39.8951Z" fill="#540E0E"/>
<path d="M72.0902 41.81C72.6102 40.89 73.4602 40.39 74.0002 40.7C74.0202 40.7 74.0302 40.72 74.0502 40.73L82.5902 45.65L80.6802 46.77V48.9L72.1002 44.02C71.5802 43.7 71.5702 42.72 72.0802 41.82L72.0902 41.81Z" fill="#721818"/>
<path d="M82.6161 47.7787C83.1261 46.8743 83.1067 45.8971 82.5728 45.5959C82.0388 45.2948 81.1924 45.7838 80.6824 46.6882C80.1724 47.5926 80.1918 48.5699 80.7258 48.8711C81.2598 49.1722 82.1061 48.6831 82.6161 47.7787Z" fill="#540E0E"/>
<path d="M77.7901 39.47C82.5801 34.55 88.8101 32.85 91.7001 35.67C91.7901 35.76 91.8801 35.85 91.9601 35.95L98.9301 43.07L85.0501 46.91L81.4901 60.34L74.2202 53.37C71.4902 50.49 73.0501 44.33 77.7801 39.48L77.7901 39.47Z" fill="#C83131"/>
<path d="M95.4176 56.7141C100.148 51.8617 101.671 45.6748 98.8198 42.8953C95.9685 40.1157 89.8224 41.796 85.0921 46.6484C80.3618 51.5008 78.8386 57.6878 81.6899 60.4673C84.5412 63.2469 90.6873 61.5665 95.4176 56.7141Z" fill="#A02020"/>
<path d="M86.4702 47.86C90.4502 43.78 95.6202 42.36 98.0202 44.7C98.1002 44.77 98.1702 44.85 98.2402 44.93L136.08 82.49L124.55 85.68L121.59 96.83L83.5101 59.4C81.2401 57.01 82.5402 51.89 86.4602 47.86H86.4702Z" fill="#E64E47"/>
<path d="M133.157 93.8131C137.085 89.7833 138.35 84.6445 135.981 82.3352C133.612 80.026 128.507 81.4208 124.579 85.4506C120.65 89.4804 119.386 94.6193 121.755 96.9285C124.124 99.2378 129.228 97.8429 133.157 93.8131Z" fill="#DD4D44"/>
<path d="M116.54 77.66C121.33 72.74 127.56 71.04 130.45 73.86C130.54 73.95 130.63 74.04 130.71 74.14L137.68 81.26L123.8 85.1L120.24 98.53L112.97 91.56C110.24 88.68 111.8 82.52 116.53 77.67L116.54 77.66Z" fill="#C83131"/>
<path d="M134.17 94.902C138.9 90.0496 140.424 83.8627 137.572 81.0831C134.721 78.3035 128.575 79.9839 123.845 84.8363C119.114 89.6887 117.591 95.8756 120.442 98.6552C123.294 101.435 129.44 99.7544 134.17 94.902Z" fill="#A02020"/>
<path d="M130.82 85.8C131.34 84.88 132.19 84.38 132.73 84.69C132.75 84.69 132.76 84.71 132.78 84.72L141.32 89.64L139.41 90.76V92.89L130.83 88.01C130.31 87.69 130.3 86.71 130.81 85.81L130.82 85.8Z" fill="#721818"/>
<path d="M141.336 91.7742C141.846 90.8698 141.826 89.8926 141.292 89.5914C140.758 89.2903 139.912 89.7793 139.402 90.6837C138.892 91.5881 138.911 92.5654 139.445 92.8666C139.979 93.1677 140.826 92.6786 141.336 91.7742Z" fill="#540E0E"/>
<path d="M125.18 93.4C125.7 92.48 126.55 91.98 127.09 92.29C127.11 92.29 127.12 92.31 127.14 92.32L135.68 97.24L133.77 98.36V100.49L125.19 95.61C124.67 95.29 124.66 94.31 125.17 93.41L125.18 93.4Z" fill="#721818"/>
<path d="M135.71 99.3714C136.22 98.467 136.201 97.4898 135.667 97.1886C135.133 96.8875 134.286 97.3766 133.776 98.281C133.266 99.1854 133.286 100.163 133.82 100.464C134.354 100.765 135.2 100.276 135.71 99.3714Z" fill="#540E0E"/>
<path d="M130.73 94.16C132.53 87.53 137.15 83.02 141.05 84.08C141.17 84.11 141.29 84.15 141.41 84.2L150.96 87.04L140.68 97.13L144.08 110.6L134.35 108.03C130.57 106.84 128.94 100.69 130.72 94.15L130.73 94.16Z" fill="#C83131"/>
<path d="M154.527 100.746C156.308 94.2082 154.637 88.0594 150.796 87.0127C146.954 85.966 142.395 90.4177 140.614 96.9559C138.832 103.494 140.503 109.643 144.345 110.69C148.187 111.736 152.745 107.285 154.527 100.746Z" fill="#A02020"/>
<path d="M142.39 97.29C143.89 91.79 147.72 88.04 150.96 88.92C151.06 88.95 151.16 88.98 151.26 89.02L202.57 103.49L194.04 111.87L196.87 123.05L145.41 108.81C142.27 107.82 140.92 102.71 142.4 97.29H142.39Z" fill="#E64E47"/>
<path d="M205.53 114.869C207.01 109.44 205.621 104.333 202.429 103.463C199.238 102.594 195.451 106.29 193.972 111.72C192.492 117.15 193.88 122.257 197.072 123.127C200.264 123.996 204.051 120.299 205.53 114.869Z" fill="#DD4D44"/>
<path d="M183.15 108.75C184.95 102.12 189.57 97.61 193.47 98.67C193.59 98.7 193.71 98.74 193.83 98.79L203.38 101.63L193.1 111.72L196.5 125.19L186.77 122.62C182.99 121.43 181.36 115.28 183.14 108.74L183.15 108.75Z" fill="#C83131"/>
<path d="M206.943 115.335C208.724 108.797 207.054 102.648 203.212 101.601C199.37 100.555 194.811 105.006 193.03 111.545C191.249 118.083 192.919 124.232 196.761 125.278C200.603 126.325 205.162 121.873 206.943 115.335Z" fill="#A02020"/>
<path d="M200.51 108.4C200.94 107.44 201.75 106.86 202.31 107.12C202.33 107.12 202.35 107.14 202.36 107.15L211.32 111.26L209.52 112.55L209.72 114.67L200.73 110.6C200.18 110.33 200.08 109.36 200.51 108.41V108.4Z" fill="#721818"/>
<path d="M211.534 113.37C211.959 112.422 211.849 111.451 211.29 111.2C210.73 110.95 209.933 111.515 209.508 112.463C209.084 113.41 209.194 114.382 209.753 114.632C210.313 114.883 211.11 114.317 211.534 113.37Z" fill="#540E0E"/>
<path d="M197.87 116.01C198.3 115.05 199.11 114.47 199.67 114.73C199.69 114.73 199.71 114.75 199.72 114.76L208.68 118.87L206.88 120.16L207.08 122.28L198.09 118.21C197.54 117.94 197.44 116.97 197.87 116.02V116.01Z" fill="#721818"/>
<path d="M208.888 120.974C209.312 120.027 209.203 119.055 208.643 118.805C208.084 118.554 207.286 119.119 206.862 120.067C206.437 121.015 206.547 121.986 207.107 122.236C207.666 122.487 208.464 121.922 208.888 120.974Z" fill="#540E0E"/>
<path d="M201.22 112.63C205.81 107.52 211.97 105.57 214.97 108.27C215.06 108.35 215.15 108.44 215.24 108.53L222.49 115.37L208.77 119.77L205.75 133.33L198.21 126.66C195.36 123.89 196.67 117.67 201.2 112.63H201.22Z" fill="#C83131"/>
<path d="M219.536 129.18C224.067 124.141 225.339 117.898 222.378 115.235C219.417 112.573 213.344 114.499 208.813 119.539C204.282 124.578 203.01 130.821 205.971 133.483C208.932 136.146 215.005 134.219 219.536 129.18Z" fill="#A02020"/>
<path d="M210.23 120.68C214.04 116.44 219.15 114.82 221.64 117.06C221.72 117.13 221.79 117.2 221.86 117.28L261.18 153.28L249.79 156.93L247.29 168.19L207.73 132.33C205.37 130.03 206.46 124.87 210.22 120.68H210.23Z" fill="#E64E47"/>
<path d="M266.28 164.34L262.16 154.87C262.07 154.58 261.95 154.31 261.8 154.05V154.03H261.79C261.6 153.71 261.37 153.41 261.09 153.16C258.63 150.95 253.59 152.55 249.82 156.73C246.06 160.91 245 166.1 247.46 168.31C247.69 168.52 247.95 168.68 248.23 168.82L248.3 168.85C248.69 169.04 249.12 169.17 249.57 169.24L259.26 172.2C264 173.65 268.27 168.87 266.29 164.32L266.28 164.34Z" fill="#ED6969"/>
<path opacity="0.5" d="M139.12 69.95C139.12 69.95 140.37 70.26 140.49 71.07C140.61 71.88 141.33 71.45 141.62 72.17C141.91 72.89 142.59 72.7 142.64 73.45C142.69 74.2 142.44 74.8 143.27 74.97C144.1 75.14 144.07 75.26 144.42 75.95C144.77 76.64 145.74 75.93 146.38 76.89C147.02 77.85 148.92 77.46 149.34 78.23C149.76 79 151.59 78.65 152.11 79.34C152.63 80.03 154.26 80.44 153.01 80.93C151.76 81.42 151.26 80.43 150.5 80.64C149.74 80.85 149.89 79.81 148.59 79.81C147.29 79.81 145.48 79.41 145.11 78.65C144.74 77.89 142.87 77.85 142.41 77.16C141.95 76.47 142.01 75.53 140.99 74.79C139.97 74.05 140.3 72.95 139.78 72.58C139.26 72.21 137.69 69.8 139.13 69.95H139.12Z" fill="url(#paint2_linear_7_24078)"/>
<path d="M100.08 86.67C100.08 86.67 103.41 87.3 103.82 89.89C104.23 92.48 106.06 90.88 106.93 93.09C107.8 95.3 109.53 94.53 109.77 96.91C110.01 99.29 109.43 101.28 111.61 101.6C113.79 101.92 113.75 102.3 114.74 104.41C115.73 106.52 118.18 103.98 119.99 106.88C121.8 109.78 126.7 108.02 127.93 110.36C129.16 112.7 133.89 111.08 135.32 113.16C136.75 115.24 141.1 116.09 137.89 118.01C134.68 119.92 133.24 116.88 131.27 117.76C129.3 118.64 129.57 115.26 126.17 115.62C122.77 115.98 117.97 115.2 116.9 112.87C115.83 110.54 110.94 110.92 109.63 108.84C108.32 106.76 108.36 103.75 105.58 101.64C102.8 99.53 103.52 95.94 102.13 94.91C100.74 93.88 96.2802 86.6 100.07 86.67H100.08Z" fill="url(#paint3_linear_7_24078)"/>
<path d="M100.66 102.76C100.66 102.76 102.46 103.22 102.62 104.4C102.78 105.58 103.82 104.96 104.23 106C104.64 107.04 105.61 106.78 105.68 107.86C105.75 108.94 105.37 109.8 106.56 110.06C107.75 110.32 107.71 110.48 108.2 111.48C108.69 112.48 110.09 111.47 111 112.86C111.91 114.25 114.64 113.72 115.25 114.84C115.86 115.96 118.49 115.48 119.22 116.48C119.95 117.48 122.3 118.1 120.49 118.79C118.68 119.48 117.98 118.04 116.87 118.33C115.76 118.62 116.01 117.12 114.14 117.1C112.27 117.08 109.67 116.48 109.15 115.38C108.63 114.28 105.94 114.2 105.29 113.19C104.64 112.18 104.74 110.84 103.28 109.75C101.82 108.66 102.31 107.09 101.58 106.55C100.85 106.01 98.6102 102.52 100.68 102.75L100.66 102.76Z" fill="url(#paint4_linear_7_24078)"/>
<path opacity="0.6" d="M92.2402 99.02C92.2402 99.02 93.1702 99.71 92.9802 100.43C92.7902 101.15 93.5402 101.03 93.5302 101.73C93.5202 102.43 94.1402 102.51 93.9302 103.14C93.7202 103.77 93.3002 104.19 93.9202 104.62C94.5402 105.05 94.4802 105.14 94.5302 105.83C94.5802 106.52 95.6202 106.27 95.8202 107.29C96.0202 108.31 97.7202 108.64 97.8002 109.43C97.8802 110.22 99.5202 110.56 99.7002 111.31C99.8802 112.06 101.09 112.97 99.8902 112.94C98.6902 112.91 98.6202 111.92 97.9102 111.82C97.2002 111.72 97.7002 110.92 96.6202 110.47C95.5402 110.02 94.1902 109.06 94.1502 108.3C94.1102 107.54 92.5802 106.86 92.4402 106.13C92.3002 105.4 92.6802 104.65 92.0902 103.67C91.5002 102.69 92.1602 101.91 91.8602 101.43C91.5602 100.95 91.1002 98.41 92.2402 99.03V99.02Z" fill="url(#paint5_linear_7_24078)"/>
<path opacity="0.8" d="M237.3 122C237.3 122 233.98 121.35 233.57 118.76C233.16 116.17 231.33 117.76 230.47 115.54C229.61 113.32 227.88 114.09 227.65 111.71C227.42 109.33 228.01 107.34 225.83 107.01C223.65 106.68 223.69 106.3 222.71 104.19C221.73 102.08 219.27 104.6 217.47 101.7C215.67 98.8 210.76 100.53 209.55 98.18C208.34 95.83 203.59 97.43 202.17 95.34C200.75 93.25 196.4 92.38 199.63 90.48C202.86 88.58 204.27 91.63 206.25 90.76C208.23 89.89 207.94 93.27 211.34 92.93C214.75 92.59 219.53 93.39 220.6 95.72C221.67 98.05 226.55 97.69 227.85 99.79C229.15 101.89 229.09 104.89 231.86 107.01C234.63 109.13 233.89 112.72 235.28 113.76C236.67 114.8 241.09 122.1 237.3 122.01V122Z" fill="url(#paint6_linear_7_24078)"/>
<path opacity="0.6" d="M236.8 105.92C236.8 105.92 235 105.45 234.85 104.27C234.7 103.09 233.65 103.71 233.24 102.66C232.83 101.61 231.86 101.87 231.8 100.79C231.74 99.71 232.12 98.85 230.93 98.59C229.74 98.33 229.78 98.16 229.3 97.16C228.82 96.16 227.41 97.16 226.5 95.76C225.59 94.36 222.86 94.88 222.26 93.76C221.66 92.64 219.02 93.11 218.3 92.1C217.58 91.09 215.23 90.47 217.04 89.79C218.85 89.11 219.55 90.55 220.65 90.27C221.75 89.99 221.5 91.48 223.38 91.51C225.26 91.54 227.85 92.15 228.37 93.25C228.89 94.35 231.57 94.45 232.22 95.46C232.87 96.47 232.76 97.81 234.22 98.91C235.68 100.01 235.18 101.58 235.91 102.12C236.64 102.66 238.86 106.17 236.79 105.93L236.8 105.92Z" fill="url(#paint7_linear_7_24078)"/>
<path opacity="0.4" d="M245.21 109.69C245.21 109.69 244.28 109 244.47 108.28C244.66 107.56 243.91 107.67 243.92 106.98C243.93 106.29 243.31 106.2 243.53 105.56C243.75 104.92 244.17 104.52 243.55 104.08C242.93 103.64 242.99 103.56 242.95 102.87C242.91 102.18 241.86 102.43 241.67 101.41C241.48 100.39 239.78 100.05 239.7 99.26C239.62 98.47 237.99 98.12 237.81 97.37C237.63 96.62 236.42 95.7 237.63 95.74C238.84 95.78 238.9 96.77 239.6 96.87C240.3 96.97 239.81 97.77 240.88 98.23C241.95 98.69 243.3 99.65 243.34 100.41C243.38 101.17 244.9 101.86 245.04 102.59C245.18 103.32 244.8 104.07 245.38 105.05C245.96 106.03 245.3 106.81 245.6 107.3C245.9 107.79 246.35 110.33 245.21 109.7V109.69Z" fill="url(#paint8_linear_7_24078)"/>
<path opacity="0.6" d="M193.44 139.61C193.44 139.61 192.2 138.92 192.31 138.02C192.42 137.12 191.54 137.38 191.43 136.53C191.32 135.68 190.56 135.68 190.73 134.88C190.9 134.08 191.33 133.51 190.51 133.09C189.69 132.67 189.74 132.55 189.58 131.72C189.42 130.89 188.18 131.36 187.78 130.16C187.38 128.96 185.26 128.82 185.03 127.88C184.8 126.94 182.77 126.78 182.43 125.9C182.09 125.02 180.47 124.11 181.94 123.95C183.41 123.79 183.65 124.99 184.52 124.99C185.39 124.99 184.92 126.05 186.3 126.43C187.68 126.81 189.48 127.75 189.65 128.67C189.82 129.59 191.78 130.17 192.07 131.03C192.36 131.89 192.02 132.87 192.89 133.96C193.76 135.05 193.09 136.11 193.52 136.65C193.95 137.19 194.93 140.2 193.44 139.63V139.61Z" fill="url(#paint9_linear_7_24078)"/>
<path d="M44.7902 45.63C45.8102 44.3 45.7002 42.38 44.4702 41.18C43.6702 40.4 42.5902 40.1 41.5702 40.27C41.4102 39.85 41.1702 39.45 40.8202 39.11C40.0102 38.32 38.8902 38.06 37.8702 38.32C37.7002 37.66 37.3602 37.03 36.8402 36.51C36.2402 35.92 35.4902 35.58 34.7202 35.47C34.8802 34.35 34.5202 33.18 33.6502 32.33C32.9202 31.62 31.9802 31.28 31.0402 31.29C30.9102 30.62 30.5802 29.97 30.0502 29.46C29.1802 28.61 27.9802 28.3 26.8702 28.54C26.9902 27.46 26.6302 26.33 25.7902 25.51C25.2202 24.96 24.5302 24.63 23.8002 24.52C23.6502 24.04 23.3802 23.6 23.0002 23.22C22.7702 23 22.5102 22.81 22.2402 22.68C22.1702 21.96 21.8502 21.25 21.2902 20.7C20.6602 20.09 19.8502 19.79 19.0402 19.79C18.9002 18.99 18.5302 18.22 17.9002 17.61C17.6602 17.37 17.3902 17.18 17.1102 17.02C17.1102 15.99 16.7102 14.96 15.9102 14.18C14.9802 13.27 13.7202 12.92 12.5302 13.1C12.3802 12.76 12.1602 12.45 11.8802 12.17C11.2802 11.59 10.5002 11.3 9.73018 11.3C9.99018 10.04 9.62018 8.67996 8.64018 7.71996C7.22018 6.33996 5.02018 6.26 3.51018 7.45C2.75018 7.28 1.93017 7.49 1.35017 8.08C0.730172 8.71 0.560194 9.61001 0.810194 10.4C0.760194 10.44 0.720179 10.48 0.670179 10.53C-0.239821 11.47 -0.219812 12.97 0.710188 13.88C1.23019 14.39 1.92017 14.61 2.60017 14.54C2.78017 15.06 3.0802 15.54 3.5002 15.95C3.9502 16.39 4.49017 16.69 5.07017 16.85C4.72017 18.02 5.0102 19.33 5.9402 20.24C6.7302 21.01 7.81018 21.31 8.83018 21.15C8.89018 22.12 9.29017 23.08 10.0402 23.81C10.5702 24.33 11.2002 24.66 11.8702 24.83C11.8302 25.91 12.2302 27.01 13.0602 27.82C13.9202 28.66 15.0602 29.03 16.1702 28.93C16.3502 29.38 16.6202 29.79 16.9802 30.15C17.5702 30.72 18.3002 31.04 19.0602 31.13C19.2002 31.79 19.5302 32.42 20.0502 32.93C20.8002 33.66 21.7902 33.99 22.7602 33.92C22.5902 35.01 22.9202 36.17 23.7702 37C24.6302 37.84 25.8102 38.15 26.9102 37.93C26.3802 39.29 26.6702 40.89 27.7902 41.98C28.5902 42.76 29.6502 43.11 30.6802 43.03C30.5902 44.15 30.9802 45.3 31.8402 46.15C33.0802 47.36 34.9102 47.57 36.3602 46.81C36.5202 47.17 36.7502 47.52 37.0502 47.81C38.2902 49.02 40.2702 48.99 41.4802 47.75C41.5002 47.73 41.5102 47.71 41.5302 47.69C42.3202 48.46 43.5702 48.44 44.3402 47.66C44.8802 47.1 45.0302 46.31 44.7902 45.62V45.63Z" fill="url(#paint10_linear_7_24078)"/>
<path d="M36.0593 67.9008C36.6793 67.2808 36.4193 65.5008 35.4093 63.7308C34.7593 62.5908 33.9393 61.7208 33.2093 61.3008C33.0593 60.8308 32.8393 60.3408 32.5593 59.8508C31.8993 58.7008 31.0593 57.8408 30.3393 57.5008C30.1593 56.8108 29.8493 56.0608 29.4193 55.3108C28.9293 54.4508 28.3493 53.7308 27.7793 53.2008C27.7793 52.2908 27.4193 51.0408 26.7093 49.8008C26.1093 48.7608 25.3893 47.9208 24.7093 47.4108C24.5493 46.7308 24.2493 45.9708 23.8093 45.2208C23.0893 43.9708 22.1893 43.0308 21.4093 42.6208C21.3893 41.7208 21.0193 40.5108 20.3393 39.3108C19.8793 38.5008 19.3393 37.8208 18.7993 37.3108C18.6493 36.8008 18.4093 36.2508 18.0993 35.7108C17.9093 35.3808 17.7093 35.0808 17.4993 34.8008C17.3793 34.1108 17.0793 33.3008 16.6193 32.5008C16.1093 31.6008 15.4893 30.8808 14.8993 30.4308C14.7293 29.6408 14.3793 28.7408 13.8593 27.8408C13.6593 27.4908 13.4493 27.1708 13.2293 26.8708C13.1293 25.9408 12.7393 24.8008 12.0893 23.6608C11.3293 22.3308 10.3793 21.3108 9.52935 20.8108C9.38935 20.4208 9.19935 20.0208 8.96935 19.6208C8.47935 18.7608 7.88935 18.0708 7.31935 17.6408C7.38935 16.6608 6.99935 15.2408 6.18935 13.8308C4.99935 11.7808 3.38935 10.4808 2.39935 10.7108C1.82935 10.1308 1.24935 9.8608 0.889346 10.0708C0.499346 10.2908 0.449346 11.0008 0.709346 11.8508C0.679346 11.8608 0.649346 11.8708 0.619346 11.8908C0.0393461 12.2208 0.199346 13.5708 0.969346 14.9208C1.39935 15.6608 1.91935 16.2508 2.39935 16.5608C2.57935 17.1208 2.83935 17.7308 3.18935 18.3308C3.55935 18.9808 3.97935 19.5508 4.41935 20.0108C4.26935 20.8608 4.60935 22.2008 5.36935 23.5308C6.01935 24.6708 6.82935 25.5308 7.55935 25.9508C7.68935 26.8508 8.07935 27.9308 8.68935 29.0108C9.11935 29.7708 9.61935 30.4208 10.1193 30.9508C10.1893 31.9008 10.5793 33.1008 11.2693 34.3008C11.9793 35.5308 12.8393 36.5008 13.6393 37.0308C13.8093 37.5308 14.0493 38.0508 14.3493 38.5708C14.8293 39.4108 15.3993 40.1108 15.9493 40.6008C16.1093 41.2708 16.4093 42.0208 16.8393 42.7608C17.4593 43.8308 18.2093 44.6808 18.9093 45.1508C18.8893 46.0308 19.2393 47.2508 19.9393 48.4708C20.6493 49.7008 21.5293 50.6308 22.3093 51.0508C22.0493 51.9708 22.4193 53.5708 23.3293 55.1608C23.9893 56.3008 24.7893 57.2008 25.5293 57.7108C25.5693 58.6608 25.9593 59.9108 26.6693 61.1508C27.6793 62.9208 29.0393 64.1308 30.0193 64.2708C30.1693 64.6808 30.3693 65.1208 30.6193 65.5508C31.6393 67.3208 33.0793 68.4108 33.8393 67.9708C33.8493 67.9708 33.8593 67.9508 33.8693 67.9508C34.5093 69.0808 35.4293 69.7608 35.9093 69.4908C36.2493 69.2908 36.2893 68.6708 36.0493 67.9208L36.0593 67.9008Z" fill="url(#paint11_linear_7_24078)"/>
<defs>
<linearGradient id="paint0_linear_7_24078" x1="8.91922" y1="10.4641" x2="60.0874" y2="13.1939" gradientUnits="userSpaceOnUse">
<stop stop-color="white"/>
<stop offset="1" stop-color="#6DC6DC"/>
</linearGradient>
<linearGradient id="paint1_linear_7_24078" x1="7.8036" y1="6.8563" x2="34.7695" y2="9.71289" gradientUnits="userSpaceOnUse">
<stop stop-color="white"/>
<stop offset="1" stop-color="#6DC6DC"/>
</linearGradient>
<linearGradient id="paint2_linear_7_24078" x1="144.726" y1="79.1785" x2="142.841" y2="81.4385" gradientUnits="userSpaceOnUse">
<stop stop-color="white" stop-opacity="0.5"/>
<stop offset="1" stop-color="#6DC6DC"/>
</linearGradient>
<linearGradient id="paint3_linear_7_24078" x1="116.865" y1="104.503" x2="111.063" y2="111.155" gradientUnits="userSpaceOnUse">
<stop stop-color="white" stop-opacity="0.9"/>
<stop offset="1" stop-color="#6DC6DC"/>
</linearGradient>
<linearGradient id="paint4_linear_7_24078" x1="108.795" y1="114.979" x2="106.046" y2="118.199" gradientUnits="userSpaceOnUse">
<stop stop-color="white" stop-opacity="0.5"/>
<stop offset="1" stop-color="#6DC6DC"/>
</linearGradient>
<linearGradient id="paint5_linear_7_24078" x1="93.357" y1="108.995" x2="91.0064" y2="110.204" gradientUnits="userSpaceOnUse">
<stop stop-color="white" stop-opacity="0.5"/>
<stop offset="1" stop-color="#6DC6DC"/>
</linearGradient>
<linearGradient id="paint6_linear_7_24078" x1="220.596" y1="104.089" x2="226.44" y2="97.4673" gradientUnits="userSpaceOnUse">
<stop stop-color="white" stop-opacity="0.9"/>
<stop offset="1" stop-color="#6DC6DC"/>
</linearGradient>
<linearGradient id="paint7_linear_7_24078" x1="228.789" y1="93.2297" x2="231.563" y2="90.023" gradientUnits="userSpaceOnUse">
<stop stop-color="white" stop-opacity="0.5"/>
<stop offset="1" stop-color="#6DC6DC"/>
</linearGradient>
<linearGradient id="paint8_linear_7_24078" x1="244.327" y1="99.408" x2="246.674" y2="98.207" gradientUnits="userSpaceOnUse">
<stop stop-color="white" stop-opacity="0.5"/>
<stop offset="1" stop-color="#6DC6DC"/>
</linearGradient>
<linearGradient id="paint9_linear_7_24078" x1="190.102" y1="128.366" x2="192.758" y2="126.528" gradientUnits="userSpaceOnUse">
<stop stop-color="white" stop-opacity="0.5"/>
<stop offset="1" stop-color="#6DC6DC"/>
</linearGradient>
<linearGradient id="paint10_linear_7_24078" x1="3.52018" y1="13.3489" x2="43.2212" y2="45.7442" gradientUnits="userSpaceOnUse">
<stop stop-color="white"/>
<stop offset="1" stop-color="#6DC6DC"/>
</linearGradient>
<linearGradient id="paint11_linear_7_24078" x1="0.770138" y1="10.5" x2="8.32543" y2="74.3088" gradientUnits="userSpaceOnUse">
<stop stop-color="white"/>
<stop offset="1" stop-color="#6DC6DC"/>
</linearGradient>
<clipPath id="clip0_7_24078">
<rect width="36.67" height="6.24" fill="white" transform="translate(7.27014)"/>
</clipPath>
</defs>
</svg>
