<svg width="48" height="33" viewBox="0 0 48 33" fill="none" xmlns="http://www.w3.org/2000/svg">
<path d="M8.57056 0.000501479C8.57056 0.000501479 11.9005 0.630533 12.3105 3.22053C12.7205 5.81053 14.5506 4.21055 15.4206 6.42055C16.2906 8.63055 18.0206 7.86049 18.2606 10.2405C18.5006 12.6205 17.9206 14.6105 20.1006 14.9305C22.2806 15.2505 22.2406 15.6305 23.2306 17.7405C24.2206 19.8505 26.6706 17.3105 28.4806 20.2105C30.2906 23.1105 35.1906 21.3505 36.4206 23.6905C37.6506 26.0305 42.3805 24.4105 43.8105 26.4905C45.2405 28.5705 49.5906 29.4205 46.3806 31.3405C43.1706 33.2505 41.7306 30.2105 39.7606 31.0905C37.7906 31.9705 38.0606 28.5905 34.6606 28.9505C31.2606 29.3105 26.4606 28.5305 25.3906 26.2005C24.3206 23.8705 19.4305 24.2505 18.1205 22.1705C16.8105 20.0905 16.8506 17.0805 14.0706 14.9705C11.2906 12.8605 12.0105 9.27049 10.6205 8.24049C9.23054 7.21049 4.77055 -0.0694985 8.56055 0.000501479H8.57056Z" fill="url(#paint0_linear_11_24835)"/>
<path d="M9.15043 16.0905C9.15043 16.0905 10.9504 16.5505 11.1104 17.7305C11.2704 18.9105 12.3104 18.2905 12.7204 19.3305C13.1304 20.3705 14.1004 20.1105 14.1704 21.1905C14.2404 22.2705 13.8604 23.1305 15.0504 23.3905C16.2404 23.6505 16.2004 23.8105 16.6904 24.8105C17.1804 25.8105 18.5804 24.8005 19.4904 26.1905C20.4004 27.5805 23.1304 27.0505 23.7404 28.1705C24.3504 29.2905 26.9804 28.8105 27.7104 29.8105C28.4404 30.8105 30.7904 31.4305 28.9804 32.1205C27.1704 32.8105 26.4704 31.3705 25.3604 31.6605C24.2504 31.9505 24.5004 30.4505 22.6304 30.4305C20.7604 30.4105 18.1604 29.8105 17.6404 28.7105C17.1204 27.6105 14.4304 27.5305 13.7804 26.5205C13.1304 25.5105 13.2304 24.1705 11.7704 23.0805C10.3104 21.9905 10.8004 20.4205 10.0704 19.8805C9.34042 19.3405 7.10042 15.8505 9.17042 16.0805L9.15043 16.0905Z" fill="url(#paint1_linear_11_24835)"/>
<path opacity="0.6" d="M0.730414 12.3505C0.730414 12.3505 1.6604 13.0405 1.4704 13.7605C1.2804 14.4805 2.03042 14.3605 2.02042 15.0605C2.01042 15.7605 2.63042 15.8405 2.42042 16.4705C2.21042 17.1005 1.79041 17.5205 2.41041 17.9505C3.03041 18.3805 2.97042 18.4705 3.02042 19.1605C3.07042 19.8505 4.1104 19.6005 4.3104 20.6205C4.5104 21.6405 6.21041 21.9705 6.29041 22.7605C6.37041 23.5505 8.01041 23.8905 8.19041 24.6405C8.37041 25.3905 9.58041 26.3005 8.38041 26.2705C7.18041 26.2405 7.11043 25.2505 6.40043 25.1505C5.69043 25.0505 6.19042 24.2505 5.11042 23.8005C4.03042 23.3505 2.68042 22.3905 2.64042 21.6305C2.60042 20.8705 1.07043 20.1905 0.930427 19.4605C0.790427 18.7305 1.17042 17.9805 0.58042 17.0005C-0.00957948 16.0205 0.65041 15.2405 0.35041 14.7605C0.0504095 14.2805 -0.409586 11.7406 0.730414 12.3606V12.3505Z" fill="url(#paint2_linear_11_24835)"/>
<defs>
<linearGradient id="paint0_linear_11_24835" x1="25.355" y1="17.8335" x2="19.553" y2="24.485" gradientUnits="userSpaceOnUse">
<stop stop-color="white" stop-opacity="0.9"/>
<stop offset="1" stop-color="#6DC6DC"/>
</linearGradient>
<linearGradient id="paint1_linear_11_24835" x1="17.2854" y1="28.3096" x2="14.5365" y2="31.5291" gradientUnits="userSpaceOnUse">
<stop stop-color="white" stop-opacity="0.5"/>
<stop offset="1" stop-color="#6DC6DC"/>
</linearGradient>
<linearGradient id="paint2_linear_11_24835" x1="1.84723" y1="22.3253" x2="-0.503408" y2="23.5349" gradientUnits="userSpaceOnUse">
<stop stop-color="white" stop-opacity="0.5"/>
<stop offset="1" stop-color="#6DC6DC"/>
</linearGradient>
</defs>
</svg>
