<svg width="267" height="266" viewBox="0 0 267 266" fill="none" xmlns="http://www.w3.org/2000/svg">
<path d="M61.2402 12.26C61.2802 10.58 60.0602 9.09997 58.3502 8.84997C57.2502 8.68997 56.2002 9.09002 55.4702 9.83002C55.0902 9.58002 54.6602 9.41003 54.1802 9.34003C53.0702 9.18003 52.0102 9.63 51.3302 10.44C50.8002 10 50.1602 9.70003 49.4302 9.59003C48.6002 9.47003 47.7902 9.63 47.1002 10C46.5702 9.01 45.5902 8.26997 44.3902 8.09997C43.3902 7.95997 42.4202 8.22999 41.6702 8.79999C41.1602 8.32999 40.5202 8.00997 39.7902 7.90997C38.5802 7.73997 37.4302 8.19998 36.6702 9.03998C36.1302 8.09998 35.1702 7.39999 34.0102 7.23999C33.2302 7.12999 32.4702 7.26998 31.8202 7.60998C31.4202 7.30998 30.9402 7.10998 30.4102 7.03998C30.0902 6.98998 29.7802 6.99998 29.4802 7.03998C28.9902 6.49998 28.3202 6.12001 27.5502 6.01001C26.6802 5.89001 25.8502 6.11997 25.1902 6.59997C24.6102 6.02997 23.8502 5.63001 22.9802 5.51001C22.6402 5.46001 22.3102 5.46 21.9902 5.5C21.3802 4.67 20.4502 4.06997 19.3502 3.90997C18.0702 3.72997 16.8402 4.18003 15.9802 5.03003C15.6602 4.85003 15.3002 4.71997 14.9102 4.65997C14.0802 4.53997 13.2802 4.76998 12.6602 5.22998C12.1302 4.05998 11.0302 3.17998 9.67017 2.97998C7.71017 2.69998 5.88018 3.92998 5.37018 5.78998C4.66018 6.08998 4.11019 6.75001 4.00019 7.57001C3.88019 8.44001 4.26018 9.27001 4.93018 9.76001C4.92018 9.82001 4.90017 9.88 4.89017 9.94C4.71017 11.24 5.61018 12.44 6.90018 12.62C7.62018 12.72 8.31019 12.49 8.81019 12.04C9.26019 12.35 9.79018 12.57 10.3702 12.65C11.0002 12.74 11.6102 12.66 12.1702 12.46C12.5702 13.61 13.5802 14.5 14.8702 14.69C15.9702 14.85 17.0102 14.45 17.7402 13.72C18.3602 14.47 19.2502 15.01 20.2902 15.15C21.0202 15.25 21.7302 15.15 22.3702 14.9C22.9802 15.8 23.9402 16.45 25.1002 16.61C26.2902 16.78 27.4302 16.4 28.2702 15.67C28.6802 15.93 29.1402 16.1 29.6402 16.18C30.4502 16.3 31.2302 16.12 31.8902 15.74C32.3902 16.19 33.0302 16.51 33.7502 16.61C34.7902 16.76 35.7802 16.43 36.5202 15.81C37.0202 16.79 37.9802 17.53 39.1502 17.7C40.3402 17.87 41.4702 17.42 42.2302 16.6C42.6002 18.01 43.7902 19.13 45.3202 19.35C46.4302 19.51 47.4802 19.16 48.2702 18.49C48.8602 19.45 49.8502 20.15 51.0502 20.32C52.7602 20.56 54.3702 19.66 55.1002 18.19C55.4402 18.39 55.8302 18.53 56.2502 18.59C57.9602 18.83 59.5502 17.64 59.8002 15.93C59.8002 15.9 59.8002 15.88 59.8002 15.85C60.8902 16.01 61.8902 15.25 62.0502 14.16C62.1602 13.39 61.8102 12.66 61.2202 12.25L61.2402 12.26Z" fill="url(#paint0_linear_7_24079)"/>
<g clip-path="url(#clip0_7_24079)">
<path d="M43.2201 1.18C43.0701 0.470002 42.1501 -0.0399983 41.0701 1.68104e-06C40.3701 0.0300017 39.7601 0.290002 39.3901 0.660002C39.1301 0.590002 38.8401 0.550002 38.5401 0.570002C37.8301 0.600002 37.2201 0.880002 36.8901 1.28C36.5201 1.14 36.0801 1.07 35.6201 1.09C35.0901 1.11 34.6101 1.25 34.2201 1.46C33.7801 1.09 33.1001 0.870002 32.3401 0.900002C31.7001 0.930002 31.1301 1.13 30.7301 1.43C30.3701 1.28 29.9301 1.2 29.4701 1.22C28.7001 1.25 28.0401 1.55 27.6601 1.97C27.2201 1.62 26.5601 1.41 25.8201 1.45C25.3201 1.47 24.8701 1.6 24.5001 1.8C24.2201 1.71 23.9001 1.67 23.5701 1.68C23.3701 1.68 23.1801 1.72 22.9901 1.76C22.6301 1.58 22.1701 1.47 21.6801 1.5C21.1301 1.52 20.6401 1.7 20.2801 1.95C19.8601 1.76 19.3501 1.66 18.8001 1.69C18.5901 1.69 18.3801 1.73 18.1901 1.77C17.7201 1.47 17.0801 1.31 16.3801 1.34C15.5601 1.38 14.8501 1.67 14.4201 2.1C14.2001 2.05 13.9701 2.03 13.7201 2.04C13.1901 2.06 12.7201 2.23 12.3901 2.47C11.9301 2.03 11.1601 1.75 10.3001 1.79C9.06011 1.84 8.06011 2.52 7.94011 3.34C7.52011 3.53 7.26011 3.85 7.27011 4.21C7.29011 4.59 7.61011 4.9 8.08011 5.04C8.08011 5.07 8.08011 5.09 8.08011 5.12C8.10011 5.68 8.79011 6.1 9.61011 6.07C10.0701 6.05 10.4701 5.89 10.7301 5.66C11.0401 5.75 11.3901 5.8 11.7601 5.78C12.1601 5.76 12.5301 5.68 12.8501 5.54C13.2201 5.99 13.9401 6.27 14.7601 6.24C15.4601 6.21 16.0601 5.95 16.4301 5.58C16.8901 5.84 17.5001 5.99 18.1601 5.96C18.6201 5.94 19.0501 5.84 19.4201 5.67C19.8901 5.99 20.5601 6.18 21.2901 6.15C22.0401 6.12 22.7101 5.86 23.1501 5.48C23.4301 5.55 23.7301 5.59 24.0501 5.57C24.5601 5.55 25.0301 5.41 25.4001 5.19C25.7601 5.34 26.1901 5.41 26.6401 5.39C27.3001 5.36 27.8801 5.14 28.2701 4.81C28.6901 5.18 29.3601 5.4 30.1001 5.37C30.8501 5.34 31.5101 5.05 31.8901 4.64C32.2701 5.2 33.1301 5.57 34.1001 5.52C34.8001 5.49 35.4201 5.25 35.8401 4.9C36.3101 5.25 37.0001 5.46 37.7601 5.42C38.8501 5.37 39.7401 4.85 40.0401 4.17C40.2701 4.22 40.5301 4.25 40.7901 4.24C41.8801 4.19 42.7301 3.56 42.7001 2.82C42.7001 2.81 42.7001 2.8 42.7001 2.79C43.3901 2.76 43.9301 2.36 43.9101 1.89C43.9001 1.56 43.6001 1.28 43.1901 1.16L43.2201 1.18Z" fill="url(#paint1_linear_7_24079)"/>
</g>
<defs>
<linearGradient id="paint0_linear_7_24079" x1="8.91922" y1="10.4641" x2="60.0874" y2="13.1939" gradientUnits="userSpaceOnUse">
<stop stop-color="white"/>
<stop offset="1" stop-color="#6DC6DC"/>
</linearGradient>
<linearGradient id="paint1_linear_7_24079" x1="7.8036" y1="6.8563" x2="34.7695" y2="9.71289" gradientUnits="userSpaceOnUse">
<stop stop-color="white"/>
<stop offset="1" stop-color="#6DC6DC"/>
</linearGradient>
<clipPath id="clip0_7_24079">
<rect width="36.67" height="6.24" fill="white" transform="translate(7.27014)"/>
</clipPath>
</defs>
</svg>
