<svg width="48" height="33" viewBox="0 0 48 33" fill="none" xmlns="http://www.w3.org/2000/svg">
<path opacity="0.8" d="M38.8369 32.3945C38.8369 32.3945 35.5169 31.7445 35.1069 29.1545C34.6969 26.5645 32.8669 28.1545 32.0069 25.9345C31.1469 23.7145 29.4169 24.4845 29.1869 22.1045C28.9569 19.7245 29.5469 17.7345 27.3669 17.4045C25.1869 17.0745 25.2269 16.6945 24.2469 14.5845C23.2669 12.4745 20.8069 14.9945 19.0069 12.0945C17.2069 9.1945 12.2969 10.9245 11.0869 8.57448C9.87694 6.22448 5.12691 7.82452 3.70691 5.73452C2.28691 3.64452 -2.0631 2.77447 1.1669 0.874472C4.3969 -1.02553 5.80689 2.0245 7.78689 1.1545C9.76689 0.284501 9.47692 3.66448 12.8769 3.32448C16.2869 2.98448 21.0669 3.78446 22.1369 6.11446C23.2069 8.44446 28.0869 8.08447 29.3869 10.1845C30.6869 12.2845 30.6269 15.2845 33.3969 17.4045C36.1669 19.5245 35.4269 23.1145 36.8169 24.1545C38.2069 25.1945 42.6269 32.4945 38.8369 32.4045V32.3945Z" fill="url(#paint0_linear_11_24836)"/>
<path opacity="0.6" d="M38.337 16.3144C38.337 16.3144 36.5369 15.8445 36.3869 14.6645C36.2369 13.4845 35.1869 14.1044 34.7769 13.0544C34.3669 12.0044 33.397 12.2644 33.337 11.1844C33.277 10.1044 33.6569 9.24448 32.4669 8.98448C31.2769 8.72448 31.317 8.55443 30.837 7.55443C30.357 6.55443 28.9469 7.55446 28.0369 6.15446C27.1269 4.75446 24.3969 5.27446 23.7969 4.15446C23.1969 3.03446 20.557 3.50443 19.837 2.49443C19.117 1.48443 16.7669 0.86443 18.5769 0.18443C20.3869 -0.49557 21.0869 0.944472 22.1869 0.664472C23.2869 0.384472 23.0369 1.87446 24.9169 1.90446C26.7969 1.93446 29.3869 2.54445 29.9069 3.64445C30.4269 4.74445 33.1069 4.84447 33.7569 5.85447C34.4069 6.86447 34.2969 8.20443 35.7569 9.30443C37.2169 10.4044 36.7169 11.9744 37.4469 12.5144C38.1769 13.0544 40.3969 16.5644 38.3269 16.3244L38.337 16.3144Z" fill="url(#paint1_linear_11_24836)"/>
<path opacity="0.4" d="M46.7469 20.0845C46.7469 20.0845 45.8169 19.3945 46.0069 18.6745C46.1969 17.9545 45.4469 18.0644 45.4569 17.3744C45.4669 16.6844 44.8469 16.5944 45.0669 15.9544C45.2869 15.3144 45.7069 14.9145 45.0869 14.4745C44.4669 14.0345 44.5269 13.9544 44.4869 13.2644C44.4469 12.5744 43.3969 12.8244 43.2069 11.8044C43.0169 10.7844 41.3169 10.4445 41.2369 9.65446C41.1569 8.86446 39.5268 8.51444 39.3468 7.76444C39.1668 7.01444 37.9568 6.09444 39.1668 6.13444C40.3768 6.17444 40.4369 7.16444 41.1369 7.26444C41.8369 7.36444 41.3468 8.16443 42.4168 8.62443C43.4868 9.08443 44.8369 10.0444 44.8769 10.8044C44.9169 11.5644 46.4369 12.2545 46.5769 12.9845C46.7169 13.7145 46.3368 14.4644 46.9168 15.4444C47.4968 16.4244 46.8369 17.2044 47.1369 17.6944C47.4369 18.1844 47.8869 20.7245 46.7469 20.0945V20.0845Z" fill="url(#paint2_linear_11_24836)"/>
<defs>
<linearGradient id="paint0_linear_11_24836" x1="22.1326" y1="14.484" x2="27.9769" y2="7.86178" gradientUnits="userSpaceOnUse">
<stop stop-color="white" stop-opacity="0.9"/>
<stop offset="1" stop-color="#6DC6DC"/>
</linearGradient>
<linearGradient id="paint1_linear_11_24836" x1="30.3255" y1="3.62417" x2="33.0992" y2="0.417512" gradientUnits="userSpaceOnUse">
<stop stop-color="white" stop-opacity="0.5"/>
<stop offset="1" stop-color="#6DC6DC"/>
</linearGradient>
<linearGradient id="paint2_linear_11_24836" x1="45.8633" y1="9.80247" x2="48.2112" y2="8.60148" gradientUnits="userSpaceOnUse">
<stop stop-color="white" stop-opacity="0.5"/>
<stop offset="1" stop-color="#6DC6DC"/>
</linearGradient>
</defs>
</svg>
