<svg width="58" height="58" viewBox="0 0 58 58" fill="none" xmlns="http://www.w3.org/2000/svg">
<circle cx="29" cy="29" r="28.5" stroke="#DDDDDD"/>
<path d="M22 34H21C20.4696 34 19.9609 33.7893 19.5858 33.4142C19.2107 33.0391 19 32.5304 19 32V22C19 21.4696 19.2107 20.9609 19.5858 20.5858C19.9609 20.2107 20.4696 20 21 20H37C37.5304 20 38.0391 20.2107 38.4142 20.5858C38.7893 20.9609 39 21.4696 39 22V32C39 32.5304 38.7893 33.0391 38.4142 33.4142C38.0391 33.7893 37.5304 34 37 34H36" stroke="#EC1A5B" stroke-width="2" stroke-linecap="round" stroke-linejoin="round"/>
<path d="M22 34H21C20.4696 34 19.9609 33.7893 19.5858 33.4142C19.2107 33.0391 19 32.5304 19 32V22C19 21.4696 19.2107 20.9609 19.5858 20.5858C19.9609 20.2107 20.4696 20 21 20H37C37.5304 20 38.0391 20.2107 38.4142 20.5858C38.7893 20.9609 39 21.4696 39 22V32C39 32.5304 38.7893 33.0391 38.4142 33.4142C38.0391 33.7893 37.5304 34 37 34H36" stroke="url(#paint0_linear)" stroke-width="2" stroke-linecap="round" stroke-linejoin="round"/>
<path d="M29 32L34 38H24L29 32Z" stroke="#EC1A5B" stroke-width="2" stroke-linecap="round" stroke-linejoin="round"/>
<path d="M29 32L34 38H24L29 32Z" stroke="url(#paint1_linear)" stroke-width="2" stroke-linecap="round" stroke-linejoin="round"/>
<defs>
<linearGradient id="paint0_linear" x1="19" y1="34" x2="39" y2="34" gradientUnits="userSpaceOnUse">
<stop stop-color="#D9676C"/>
<stop offset="1" stop-color="#EC1A5B"/>
</linearGradient>
<linearGradient id="paint1_linear" x1="24" y1="38" x2="34" y2="38" gradientUnits="userSpaceOnUse">
<stop stop-color="#D9676C"/>
<stop offset="1" stop-color="#EC1A5B"/>
</linearGradient>
</defs>
</svg>
