<svg width="58" height="58" viewBox="0 0 58 58" fill="none" xmlns="http://www.w3.org/2000/svg">
<circle cx="29" cy="29" r="28.5" stroke="#DDDDDD"/>
<path d="M23 26V19H35V26" stroke="#EC1A5B" stroke-width="2" stroke-linecap="round" stroke-linejoin="round"/>
<path d="M23 26V19H35V26" stroke="url(#paint0_linear)" stroke-width="2" stroke-linecap="round" stroke-linejoin="round"/>
<path d="M23 35H21C20.4696 35 19.9609 34.7893 19.5858 34.4142C19.2107 34.0391 19 33.5304 19 33V28C19 27.4696 19.2107 26.9609 19.5858 26.5858C19.9609 26.2107 20.4696 26 21 26H37C37.5304 26 38.0391 26.2107 38.4142 26.5858C38.7893 26.9609 39 27.4696 39 28V33C39 33.5304 38.7893 34.0391 38.4142 34.4142C38.0391 34.7893 37.5304 35 37 35H35" stroke="#EC1A5B" stroke-width="2" stroke-linecap="round" stroke-linejoin="round"/>
<path d="M23 35H21C20.4696 35 19.9609 34.7893 19.5858 34.4142C19.2107 34.0391 19 33.5304 19 33V28C19 27.4696 19.2107 26.9609 19.5858 26.5858C19.9609 26.2107 20.4696 26 21 26H37C37.5304 26 38.0391 26.2107 38.4142 26.5858C38.7893 26.9609 39 27.4696 39 28V33C39 33.5304 38.7893 34.0391 38.4142 34.4142C38.0391 34.7893 37.5304 35 37 35H35" stroke="url(#paint1_linear)" stroke-width="2" stroke-linecap="round" stroke-linejoin="round"/>
<path d="M35 31H23V39H35V31Z" stroke="#EC1A5B" stroke-width="2" stroke-linecap="round" stroke-linejoin="round"/>
<path d="M35 31H23V39H35V31Z" stroke="url(#paint2_linear)" stroke-width="2" stroke-linecap="round" stroke-linejoin="round"/>
<defs>
<linearGradient id="paint0_linear" x1="23" y1="26" x2="35" y2="26" gradientUnits="userSpaceOnUse">
<stop stop-color="#D9676C"/>
<stop offset="1" stop-color="#EC1A5B"/>
</linearGradient>
<linearGradient id="paint1_linear" x1="19" y1="35" x2="39" y2="35" gradientUnits="userSpaceOnUse">
<stop stop-color="#D9676C"/>
<stop offset="1" stop-color="#EC1A5B"/>
</linearGradient>
<linearGradient id="paint2_linear" x1="23" y1="39" x2="35" y2="39" gradientUnits="userSpaceOnUse">
<stop stop-color="#D9676C"/>
<stop offset="1" stop-color="#EC1A5B"/>
</linearGradient>
</defs>
</svg>
