<svg width="14" height="12" viewBox="0 0 14 12" fill="none" xmlns="http://www.w3.org/2000/svg">
<path fill-rule="evenodd" clip-rule="evenodd" d="M7.8464 0.646447C8.04166 0.451184 8.35824 0.451184 8.5535 0.646447L13.3535 5.44645C13.5488 5.64171 13.5488 5.95829 13.3535 6.15355L8.5535 10.9536C8.35824 11.1488 8.04166 11.1488 7.8464 10.9536C7.65114 10.7583 7.65114 10.4417 7.8464 10.2464L12.2928 5.8L7.8464 1.35355C7.65114 1.15829 7.65114 0.841709 7.8464 0.646447Z" fill="white"/>
<path fill-rule="evenodd" clip-rule="evenodd" d="M0.5 5.80078C0.5 5.52464 0.723858 5.30078 1 5.30078H12.6571C12.9333 5.30078 13.1571 5.52464 13.1571 5.80078C13.1571 6.07692 12.9333 6.30078 12.6571 6.30078H1C0.723858 6.30078 0.5 6.07692 0.5 5.80078Z" fill="white"/>
</svg>
