<svg width="48" height="48" viewBox="0 0 48 48" fill="none" xmlns="http://www.w3.org/2000/svg">
<path d="M26.7834 23.5321C26.9188 23.6422 27 23.8073 27 24C27 24.1651 26.9188 24.3303 26.7834 24.4679L21.5323 29.8073C21.397 29.9174 21.2346 30 21.0722 30C20.8827 30 20.7203 29.9174 20.612 29.8073L20.0165 29.2018C19.8812 29.0642 19.8 28.8991 19.8 28.7339C19.8 28.5413 19.8541 28.3761 19.9895 28.2661L24.185 24L19.9895 19.7339C19.8541 19.5963 19.8 19.4312 19.8 19.2661C19.8 19.0734 19.8812 18.9083 20.0165 18.7982L20.612 18.1927C20.7203 18.055 20.8827 18 21.0722 18C21.2346 18 21.397 18.055 21.5323 18.1927L26.7834 23.5321Z" fill="#1C1A54"/>
<path d="M19.8 18.9C19.8 18.4029 20.2029 18 20.7 18V18C21.197 18 21.6 18.4029 21.6 18.9V29.1C21.6 29.5971 21.197 30 20.7 30V30C20.2029 30 19.8 29.5971 19.8 29.1V18.9Z" fill="#1C1A54"/>
<path d="M22.8 21.6H24.6V26.4H22.8V21.6Z" fill="#1C1A54"/>
<path d="M21 21H22.8V27H21V21Z" fill="#1C1A54"/>
</svg>
