<svg width="63" height="54" viewBox="0 0 63 54" fill="none" xmlns="http://www.w3.org/2000/svg">
<path d="M56.9424 33H41.9863C41.4025 33 40.9287 32.5397 40.9287 31.9725C40.9287 31.4053 41.4025 30.945 41.9863 30.945H55.8849V4.05502H28.1151V7.9349C28.1151 8.50209 27.6414 8.96241 27.0576 8.96241C26.4738 8.96241 26 8.50209 26 7.9349V3.02751C26 2.46032 26.4738 2 27.0576 2H56.9424C57.5262 2 58 2.46032 58 3.02751V31.9725C58 32.5397 57.5262 33 56.9424 33V33Z" fill="#222222"/>
<path d="M29.7101 51H5.04828C4.46963 51 4 50.5333 4 49.9583V11.0417C4 10.4667 4.46963 10 5.04828 10H38.9517C39.5304 10 40 10.4667 40 11.0417V39.6453C40 39.9015 39.9057 40.1474 39.7337 40.339L30.4921 50.6521C30.2929 50.875 30.0078 51 29.7101 51ZM6.09656 48.9166H29.2384L37.9013 39.2473V12.0834H6.09656V48.9166Z" fill="#4B55AE"/>
<path d="M30.017 51C29.895 51 29.7729 50.976 29.655 50.9279C29.2604 50.7662 29 50.3598 29 49.9076V39.0924C29 38.4894 29.4556 38 30.017 38H38.9832C39.3839 38 39.748 38.2534 39.9107 38.6445C40.0754 39.0378 40.0083 39.4966 39.7419 39.8178L30.7757 50.6329C30.5784 50.8711 30.2998 50.9978 30.015 50.9978L30.017 51ZM31.0341 40.1849V47.0388L36.7152 40.1849H31.0341Z" fill="#4B55AE"/>
<path d="M31.9433 23H12.0567C11.4734 23 11 22.552 11 22C11 21.448 11.4734 21 12.0567 21H31.9433C32.5266 21 33 21.448 33 22C33 22.552 32.5266 23 31.9433 23V23Z" fill="#222222"/>
<path d="M31.9433 30H12.0567C11.4734 30 11 29.552 11 29C11 28.448 11.4734 28 12.0567 28H31.9433C32.5266 28 33 28.448 33 29C33 29.552 32.5266 30 31.9433 30V30Z" fill="#222222"/>
<path d="M24.9413 37H12.0587C11.4743 37 11 36.552 11 36C11 35.448 11.4743 35 12.0587 35H24.9413C25.5257 35 26 35.448 26 36C26 36.552 25.5257 37 24.9413 37Z" fill="#222222"/>
</svg>
