<svg width="44" height="44" viewBox="0 0 44 44" fill="none" xmlns="http://www.w3.org/2000/svg">
<mask id="mask0_117_3659" style="mask-type:alpha" maskUnits="userSpaceOnUse" x="0" y="0" width="44" height="44">
<rect width="44" height="44" fill="#D9D9D9"/>
</mask>
<g mask="url(#mask0_117_3659)">
<path d="M37.7585 36.75C46.1824 28.3276 46.1824 14.6723 37.7585 6.25C29.3346 -2.17235 15.6768 -2.17234 7.25284 6.25C-1.17107 14.6723 -1.17107 28.3277 7.25284 36.75C15.6768 45.1723 29.3346 45.1723 37.7585 36.75Z" fill="#F42F4C"/>
<path d="M35.2317 23.1551C34.2975 22.3642 32.6431 22.5088 31.4934 22.5797C32.7877 21.9334 34.8007 20.6393 36.1674 21.7888C35.1608 20.4224 32.9323 20.8548 31.5657 21.1425C32.7154 20.2793 34.513 18.7698 36.0242 19.633C34.8022 18.4112 32.6446 19.2021 31.3503 19.7761C32.3568 18.7698 33.8665 16.9726 35.5209 17.548C34.1543 16.5417 32.1413 17.6203 30.9193 18.4112C31.7104 17.2617 33.0046 15.2476 34.7299 15.6077C33.2201 14.8168 31.4225 16.254 30.3437 17.1172C30.9901 15.8231 31.8535 13.6658 33.6511 13.7381C31.9967 13.235 30.4869 14.8876 29.5527 15.9662C29.9836 14.5999 30.4869 12.2995 32.2845 12.084C30.6301 11.7963 29.3372 13.6658 28.617 14.8876C28.8325 13.4504 28.9771 11.0777 30.7024 10.6468C28.9771 10.6468 28.0415 12.7318 27.4673 14.0259C27.4673 12.5887 27.2518 10.216 28.9048 9.49736C27.2504 9.78509 26.604 11.9409 26.2439 13.3073C26.0284 11.87 25.4528 9.56966 26.8903 8.63417C25.2359 9.13734 25.0204 11.4377 24.8773 12.8041C24.4463 11.4377 23.5107 9.28193 24.805 8.06016C23.2952 8.85106 23.3675 11.0792 23.4384 12.5178C22.7919 11.2237 21.4976 9.21108 22.6473 7.84473C21.2807 8.85106 21.7131 11.0792 22.0009 12.4455C21.1375 11.296 19.6278 9.49881 20.4911 7.98787C19.2691 9.20964 20.0602 11.2946 20.6343 12.6609C19.6278 11.6546 17.8302 10.1451 18.4058 8.49103C17.3992 9.85739 18.4781 11.87 19.2691 13.0918C18.1194 12.3009 16.1049 11.0069 16.465 9.28192C15.674 10.7914 17.1115 12.5886 18.0471 13.6673C16.7528 13.021 14.5966 12.1578 14.6675 10.3605C14.1642 11.9423 15.8172 13.5241 16.896 14.4582C15.5294 14.0273 13.2285 13.5241 13.0131 11.7269C12.7253 13.381 14.5952 14.6736 15.8172 15.3937C14.3797 15.1782 12.0065 15.0336 11.5756 13.3087C11.5756 15.0336 13.6609 15.9691 14.9552 16.5431C13.5178 16.5431 11.1446 16.7586 10.4259 15.1059C10.7137 16.76 12.8699 17.4063 14.2365 17.7664C12.799 17.9818 10.4982 18.5572 9.56256 17.12C10.0658 18.7741 12.3666 18.9896 13.7333 19.1327C12.3666 19.5636 10.2104 20.4991 8.98842 19.205C9.77947 20.7145 12.008 20.6422 13.4469 20.5714C12.1526 21.2177 10.1396 22.5117 8.77295 21.3623C9.77947 22.7286 12.008 22.2963 13.3746 22.0086C12.2249 22.8718 10.4273 24.3812 8.91612 23.5181C10.1381 24.7398 12.2235 23.9489 13.5901 23.3749C12.5836 24.3813 11.0738 26.1785 9.41937 25.603C10.786 26.6094 12.799 25.5307 14.021 24.7398C13.23 25.8893 11.9357 27.9034 10.2104 27.5434C11.7202 28.3343 13.5178 26.8971 14.5966 25.9616C13.9502 27.2557 13.0868 29.4129 11.2893 29.3406C12.9436 29.8438 14.4534 28.1912 15.3876 27.1125C14.9567 28.4789 14.4534 30.7793 12.6559 30.9947C14.3103 31.2824 15.6031 29.3406 16.3233 28.1912C16.1078 29.6284 15.9632 32.0011 14.238 32.4319C15.9632 32.4319 16.8989 30.347 17.473 29.0529C17.473 30.4901 17.6885 32.8628 16.0355 33.5814C17.6899 33.2937 18.3363 31.1379 18.6964 29.7715C18.9119 31.2087 19.4875 33.5091 18.05 34.4446C19.7044 33.9414 19.9199 31.641 20.0631 30.2747C20.494 31.641 21.4297 33.7968 20.1354 35.0186C21.6451 34.2277 21.5728 31.9996 21.502 30.5609C22.1484 31.855 23.4427 33.8677 22.293 35.234C23.6596 34.2277 23.2272 31.9996 22.9394 30.6332C23.8028 31.7827 25.3126 33.5799 24.4492 35.0909C25.6712 33.8691 24.8802 31.7842 24.3061 30.4178C25.3126 31.4241 27.1101 32.9336 26.5346 34.5877C27.5411 33.2214 26.4623 31.2087 25.6712 29.9869C26.8209 30.7778 28.8354 32.0719 28.4753 33.7968C29.2663 32.2873 27.8289 30.4901 26.9655 29.4115C28.2598 30.0578 30.416 30.921 30.3452 32.7182C30.8484 31.0641 29.194 29.5546 28.1167 28.6206C29.4833 29.0515 31.7841 29.5546 31.9996 31.3518C32.2874 29.6269 30.3452 28.4051 29.1955 27.6851C30.6329 27.9005 32.9338 28.0451 33.437 29.77C33.437 28.0451 31.3517 27.1096 30.0574 26.5356C31.4948 26.5356 33.868 26.3202 34.5867 27.9728C34.2989 26.2479 32.1428 25.6724 30.7761 25.3124C32.2136 25.097 34.5144 24.5215 35.4501 25.9587C34.9468 24.3769 32.646 24.0183 31.2794 23.9461C32.646 23.4429 34.8022 22.5797 36.0242 23.8738C35.8087 23.586 35.5209 23.3706 35.2332 23.1551H35.2317ZM22.507 30.1286C19.272 30.1286 16.251 28.2591 14.8135 25.3847C13.3037 22.5088 13.6624 18.9144 15.6046 16.2554C17.5453 13.6673 20.8526 12.3732 24.0891 12.9487C27.2533 13.5241 29.8405 15.8954 30.7761 18.9158C32.4305 24.4507 28.1875 30.1301 22.507 30.1301" fill="#FFE62E"/>
<path d="M17.328 16.4697C16.0337 17.7638 15.3149 19.561 15.3149 21.5014C15.3149 22.9386 15.7459 24.305 16.4646 25.4559C17.0402 22.7955 18.2622 20.3519 19.8443 18.3393C19.1256 17.6207 18.2622 16.9729 17.328 16.4697" fill="#FFE62E"/>
<path d="M22.002 16.0343C21.4264 15.5312 20.78 15.1003 20.1321 14.668C19.8444 14.7403 19.5566 14.8834 19.2688 15.028C19.9875 15.4589 20.7063 16.0343 21.4264 16.5375C21.5696 16.4652 21.7865 16.2498 22.002 16.0343Z" fill="#FFE62E"/>
<path d="M20.9234 17.115C20.2046 16.4687 19.4136 15.9655 18.5502 15.4609C18.3348 15.6041 18.1193 15.821 17.9038 15.9641C18.7672 16.4673 19.6291 17.0427 20.3478 17.7613C20.491 17.5459 20.7079 17.3305 20.9234 17.115Z" fill="#FFE62E"/>
<path d="M20.4199 18.7666C18.7655 20.9239 17.6159 23.4397 17.0403 26.171C17.4004 26.531 17.759 26.8896 18.19 27.2496C18.4777 24.3737 19.4843 21.7147 21.0664 19.4852C20.8509 19.1975 20.6354 18.982 20.4199 18.7666" fill="#FFE62E"/>
<path d="M23.9431 19.4891C25.5252 21.7172 26.604 24.3776 26.8195 27.2535C27.2505 26.9658 27.6105 26.6072 27.9692 26.1749C27.4659 23.4436 26.2439 20.9278 24.5895 18.7705C24.3741 18.9859 24.1586 19.2014 23.9431 19.4891" fill="#FFE62E"/>
<path d="M21.9299 19.4891C22.1454 19.7768 22.3609 19.9923 22.5055 20.28C22.721 19.9923 22.8656 19.7768 23.0811 19.4891C22.8656 19.2737 22.721 18.9859 22.5055 18.7705C22.29 18.9859 22.0745 19.2014 21.9299 19.4891Z" fill="#FFE62E"/>
<path d="M24.0152 14.4556C23.5119 14.3833 23.0087 14.3125 22.5054 14.3125C22.0021 14.3125 21.4989 14.3848 20.9956 14.4556C21.4989 14.8157 22.0744 15.1742 22.5054 15.6051C23.0087 15.1742 23.5119 14.8142 24.0152 14.4556Z" fill="#FFE62E"/>
<path d="M22.1453 20.9247L21.4989 20.0615C19.9891 22.2896 18.9826 24.8777 18.7671 27.6813L20.0614 28.3276V28.1122C20.1337 25.4518 20.8524 23.0082 22.1467 20.9233" fill="#FFE62E"/>
<path d="M22.5058 17.6915L23.1522 17.0452C22.9368 16.8297 22.7213 16.6143 22.5058 16.4697C22.2903 16.6852 22.0749 16.8297 21.8594 17.0452L22.5058 17.6915Z" fill="#FFE62E"/>
<path d="M23.5844 18.9137C23.7998 18.6983 24.0153 18.4106 24.2308 18.1951C24.0153 17.9797 23.8707 17.7643 23.6552 17.5488L23.0088 18.1951C23.152 18.4829 23.3689 18.6983 23.5844 18.9137Z" fill="#FFE62E"/>
<path d="M21.4266 17.6182C21.2112 17.8336 21.0666 18.049 20.8511 18.2645C21.0666 18.4799 21.282 18.6953 21.4975 18.9831C21.713 18.7676 21.8576 18.4799 22.0731 18.2645C21.8576 17.9767 21.6421 17.7613 21.4266 17.6182Z" fill="#FFE62E"/>
<path d="M22.5055 21.5693C21.4267 23.5097 20.7803 25.7393 20.7803 28.0397V28.4705C21.3558 28.6137 21.93 28.686 22.5055 28.686C23.0811 28.686 23.6552 28.6137 24.2308 28.4705V28.0397C24.2308 25.667 23.5844 23.4389 22.5055 21.5693Z" fill="#FFE62E"/>
<path d="M22.9365 20.9282C24.2308 23.0131 24.9496 25.4567 24.9496 28.1171V28.3325C25.3805 28.1894 25.8838 27.9725 26.2439 27.6862C26.0284 24.8826 25.0942 22.2945 23.5121 20.0664C23.2966 20.2818 23.0811 20.5696 22.9365 20.9296" fill="#FFE62E"/>
<path d="M23.6566 16.6107C24.303 16.0353 25.0232 15.5321 25.8143 15.1012C25.5265 14.9581 25.2387 14.8135 24.9509 14.7412C24.3045 15.1721 23.6566 15.6044 23.0811 16.1076C23.2242 16.2507 23.4411 16.4676 23.6566 16.6107Z" fill="#FFE62E"/>
<path d="M28.5447 25.4559C29.2634 24.3064 29.6944 22.94 29.6944 21.5014C29.6944 19.561 28.9033 17.7638 27.6813 16.4697C26.7471 16.9729 25.8838 17.5484 25.165 18.267C26.7471 20.3519 27.8968 22.7955 28.5447 25.4559" fill="#FFE62E"/>
<path d="M24.6635 17.7613C25.3822 17.115 26.2455 16.4673 27.1075 15.9641C26.892 15.7487 26.6765 15.6041 26.461 15.4609C25.5977 15.9641 24.8789 16.4673 24.0879 17.115C24.3034 17.3305 24.5188 17.5459 24.6635 17.7613Z" fill="#FFE62E"/>
</g>
</svg>
