<svg width="85" height="85" viewBox="0 0 85 85" fill="none" xmlns="http://www.w3.org/2000/svg">
<path d="M16.4984 79.3805C16.2084 79.3805 15.9184 79.3005 15.6684 79.1305C15.1484 78.7805 14.8984 78.1505 15.0384 77.5405C16.4984 71.3105 17.3084 63.3705 17.3084 55.2005C17.3084 47.0305 16.4984 39.0805 15.0384 32.8405C14.8984 32.2305 15.1484 31.6005 15.6684 31.2505C16.1884 30.9005 16.8684 30.9205 17.3784 31.2905C23.5784 35.8105 32.8084 38.4005 42.7084 38.4005C52.6084 38.4005 61.8384 35.8105 68.0384 31.2905C68.5484 30.9205 69.2284 30.9105 69.7484 31.2505C70.2684 31.6005 70.5184 32.2305 70.3784 32.8405C68.9184 39.0805 68.1084 47.0105 68.1084 55.1905C68.1084 63.3705 68.9184 71.3005 70.3784 77.5305C70.5184 78.1405 70.2684 78.7805 69.7484 79.1205C69.2284 79.4705 68.5384 79.4505 68.0384 79.0805C61.8384 74.5605 52.6084 71.9705 42.7084 71.9705C32.8084 71.9705 23.5784 74.5605 17.3784 79.0805C17.1184 79.2705 16.8084 79.3705 16.4984 79.3705V79.3805ZM42.7084 68.9805C51.7184 68.9805 60.2584 71.0305 66.7284 74.6905C65.6784 68.9005 65.1084 62.1205 65.1084 55.1905C65.1084 48.2605 65.6784 41.4705 66.7284 35.6905C60.2584 39.3505 51.7184 41.4005 42.7084 41.4005C33.6984 41.4005 25.1584 39.3405 18.6884 35.6805C19.7384 41.4705 20.3084 48.2505 20.3084 55.1805C20.3084 62.1105 19.7384 68.9005 18.6884 74.6805C25.1584 71.0205 33.6984 68.9705 42.7084 68.9705V68.9805Z" fill="white"/>
<path d="M24.7184 68.3596L22.5684 66.2696L32.4384 56.1096C33.0084 55.5196 33.9484 55.4996 34.5484 56.0696L44.4184 65.4496L42.3484 67.6196L33.5584 59.2596L24.7184 68.3596V68.3596Z" fill="white"/>
<path d="M56.0486 68.3693L46.8486 59.1693L40.7186 64.2493L38.8086 61.9393L45.9886 55.9893C46.5786 55.4993 47.4586 55.5393 48.0086 56.0793L58.1686 66.2393L56.0486 68.3593V68.3693Z" fill="white"/>
<path d="M55.7077 55.4995C51.9677 55.4995 48.9277 52.4595 48.9277 48.7195C48.9277 44.9795 51.9677 41.9395 55.7077 41.9395C59.4477 41.9395 62.4877 44.9795 62.4877 48.7195C62.4877 52.4595 59.4477 55.4995 55.7077 55.4995ZM55.7077 44.9295C53.6177 44.9295 51.9277 46.6295 51.9277 48.7095C51.9277 50.7895 53.6277 52.4895 55.7077 52.4895C57.7877 52.4895 59.4877 50.7895 59.4877 48.7095C59.4877 46.6295 57.7877 44.9295 55.7077 44.9295V44.9295Z" fill="white"/>
<path d="M30.71 25H25.51V23.624L26.902 22.984V15.592L25.51 14.952V13.576H30.71V14.952L29.318 15.592V22.984L30.71 23.624V25ZM40.7048 15.432C39.7768 15.432 39.0675 15.7787 38.5768 16.472C38.0861 17.1653 37.8408 18.1147 37.8408 19.32C37.8408 20.536 38.0648 21.48 38.5128 22.152C38.9715 22.8133 39.7021 23.144 40.7048 23.144C41.1635 23.144 41.6275 23.0907 42.0968 22.984C42.5661 22.8773 43.0728 22.728 43.6168 22.536V24.568C43.1155 24.7707 42.6195 24.92 42.1288 25.016C41.6381 25.112 41.0888 25.16 40.4808 25.16C39.2968 25.16 38.3261 24.92 37.5688 24.44C36.8115 23.9493 36.2515 23.2667 35.8888 22.392C35.5261 21.5067 35.3448 20.4773 35.3448 19.304C35.3448 18.152 35.5528 17.1333 35.9688 16.248C36.3848 15.3627 36.9875 14.6693 37.7768 14.168C38.5768 13.6667 39.5528 13.416 40.7048 13.416C41.2701 13.416 41.8355 13.4907 42.4008 13.64C42.9768 13.7787 43.5261 13.9707 44.0488 14.216L43.2648 16.184C42.8381 15.9813 42.4061 15.8053 41.9688 15.656C41.5421 15.5067 41.1208 15.432 40.7048 15.432ZM58.6043 25H56.1883V20.072H51.6603V25H49.2443V13.576H51.6603V18.056H56.1883V13.576H58.6043V25Z" fill="white" fill-opacity="0.5"/>
</svg>
