<svg width="63" height="54" viewBox="0 0 63 54" fill="none" xmlns="http://www.w3.org/2000/svg">
<path d="M34.4223 31.4828C34.3255 31.4828 34.2288 31.4689 34.136 31.4393C33.4232 31.2223 32.7183 30.9756 32.041 30.7032C31.5356 30.4999 31.2907 29.9256 31.4921 29.4204C31.6955 28.9152 32.2701 28.6705 32.7755 28.8718C33.3087 29.0849 33.8595 29.2842 34.4203 29.4619C43.3194 26.6397 47.6712 19.6672 47.9476 14.3308C48.1135 11.1317 46.832 8.71607 44.433 7.70562C42.3302 6.8195 40.4958 6.74253 38.9755 7.47471C36.3395 8.74567 35.3799 12.0711 35.37 12.1027C35.2496 12.5289 34.8626 12.825 34.4183 12.825H34.4164C33.9721 12.825 33.5851 12.5289 33.4666 12.1007C33.4587 12.0691 32.4991 8.74567 29.8631 7.47471C28.3428 6.74253 26.5085 6.8195 24.4056 7.70562C22.7431 8.40622 21.6097 9.77585 21.1299 11.6665C20.2927 14.9643 21.5347 19.2133 24.3701 22.7518C24.7117 23.1781 24.6426 23.7978 24.2161 24.1392C23.7896 24.4807 23.1696 24.4116 22.828 23.9853C19.6135 19.9731 18.2294 15.0669 19.2147 11.181C19.8445 8.70422 21.4142 6.82345 23.6375 5.88602C26.2913 4.769 28.6784 4.70782 30.7339 5.70445C32.5307 6.57675 33.7016 8.09046 34.4164 9.36339C35.1311 8.09046 36.304 6.57478 38.1008 5.70445C40.1562 4.70782 42.5434 4.769 45.1971 5.88602C48.3603 7.21815 50.1255 10.4133 49.9182 14.4314C49.6042 20.4921 44.7094 28.4001 34.7046 31.4393C34.6118 31.467 34.5151 31.4828 34.4183 31.4828H34.4223Z" fill="#4B55AE"/>
<path d="M23.4683 47.207C19.3074 47.207 18.9922 47.1198 18.784 47.0616C18.3578 46.9433 18.0645 46.5612 18.0645 46.1287V35.2759C18.0645 34.8667 18.0645 34.4788 22.0272 29.1881C23.7042 26.9481 25.4011 24.7605 25.7461 24.3164C26.0989 23.6279 26.7353 23.207 27.433 23.207C27.8672 23.207 28.2914 23.3738 28.6304 23.6783L30.2975 25.1755C31.0171 25.8213 31.364 27.113 31.1063 28.1816L29.7623 33.7554C29.7445 33.8272 29.7385 33.8853 29.7385 33.9338L38.5223 34.281C38.9386 34.2945 39.6404 34.1607 40.021 33.9998L50.7673 29.4596C50.9854 29.3665 51.2173 29.32 51.4532 29.32C52.3532 29.32 53.1461 29.993 53.4256 30.9937L54.8628 36.1428C55.184 37.2967 54.7459 38.5476 53.8419 39.0519L40.8774 46.2878C40.5146 46.4895 40.2727 46.6369 40.1657 46.7067C39.9833 46.8696 39.6919 46.9937 39.234 47.0209C39.0278 47.0325 38.7602 47.0383 38.4807 47.0383C38.4073 47.0383 29.1557 47.207 23.4664 47.207H23.4683ZM20.0468 45.2308C20.6375 45.2502 21.6684 45.2676 23.4664 45.2676C29.1379 45.2676 38.3697 45.1009 38.4629 45.0989C38.7325 45.0989 38.9366 45.0931 39.0714 45.0873C39.2835 44.9457 39.5551 44.7925 39.8961 44.6044L52.8607 37.3685C52.9221 37.3142 53.047 36.9922 52.9519 36.6548L51.5147 31.5057C51.4869 31.4087 51.4512 31.3409 51.4195 31.2982L40.808 35.7821C40.1578 36.0575 39.1269 36.2475 38.443 36.2223L29.4253 35.8674C28.9218 35.848 28.4738 35.6172 28.1645 35.2177C27.7819 34.7232 27.661 34.0288 27.8335 33.3152L29.1755 27.7433C29.2846 27.2914 29.0982 26.7387 28.9555 26.6107L27.4747 25.2802C27.4489 25.3287 27.4192 25.3733 27.3855 25.4179C24.0888 29.6516 20.5146 34.4575 20.0468 35.4272V45.2366V45.2308Z" fill="#222222"/>
<path d="M14.276 48.0347H10.1111C8.94614 48.0347 8 47.0768 8 45.8999V34.4472C8 33.2703 8.94811 32.3105 10.1111 32.3105H14.276C15.441 32.3105 16.3871 33.2684 16.3871 34.4472V45.8999C16.3871 47.0768 15.441 48.0347 14.276 48.0347V48.0347ZM10.1111 34.2149C10.0638 34.2149 9.97112 34.3044 9.97112 34.4472V45.8999C9.97112 46.0408 10.0638 46.1303 10.1111 46.1303H14.276C14.3233 46.1303 14.416 46.0408 14.416 45.8999V34.4472C14.416 34.3063 14.3233 34.2149 14.276 34.2149H10.1111Z" fill="#222222"/>
</svg>
