<svg width="27" height="27" viewBox="0 0 27 27" fill="none" xmlns="http://www.w3.org/2000/svg">
<path fill-rule="evenodd" clip-rule="evenodd" d="M5.625 6.46875C4.84835 6.46875 4.21875 7.09835 4.21875 7.875V19.125C4.21875 19.9016 4.84835 20.5312 5.625 20.5312H21.375C22.1517 20.5312 22.7812 19.9016 22.7812 19.125V7.875C22.7812 7.09835 22.1517 6.46875 21.375 6.46875H5.625ZM2.53125 7.875C2.53125 6.16637 3.91637 4.78125 5.625 4.78125H21.375C23.0836 4.78125 24.4688 6.16637 24.4688 7.875V19.125C24.4688 20.8336 23.0836 22.2188 21.375 22.2188H5.625C3.91637 22.2188 2.53125 20.8336 2.53125 19.125V7.875Z" fill="#4B55AE"/>
<path fill-rule="evenodd" clip-rule="evenodd" d="M2.67296 7.40706C2.93144 7.01933 3.4553 6.91456 3.84303 7.17305L13.5 13.611L23.157 7.17305C23.5447 6.91456 24.0686 7.01933 24.327 7.40706C24.5855 7.79479 24.4808 8.31865 24.093 8.57713L13.968 15.3271C13.6846 15.5161 13.3154 15.5161 13.032 15.3271L2.90697 8.57713C2.51924 8.31865 2.41447 7.79479 2.67296 7.40706Z" fill="#4B55AE"/>
</svg>
