<svg width="63" height="54" viewBox="0 0 63 54" fill="none" xmlns="http://www.w3.org/2000/svg">
<g clip-path="url(#clip0_112_3502)">
<path d="M55.0773 40.255H7.92273C6.81005 40.255 5.90625 39.3606 5.90625 38.2595V5.92329C5.90625 4.82215 6.81005 3.92773 7.92273 3.92773H40.8668C41.4376 3.92773 41.9009 4.3862 41.9009 4.9511C41.9009 5.51599 41.4376 5.97446 40.8668 5.97446H7.97443V38.2083H55.0256V5.97446H51.3442C50.7734 5.97446 50.3101 5.51599 50.3101 4.9511C50.3101 4.3862 50.7734 3.92773 51.3442 3.92773H55.0773C56.19 3.92773 57.0937 4.82215 57.0937 5.92329V38.2595C57.0937 39.3606 56.19 40.255 55.0773 40.255Z" fill="#222222"/>
<path d="M49.2411 51.055H11.7902C10.7161 51.055 9.84375 50.2346 9.84375 49.2246V46.9944C9.84375 45.9844 10.7161 45.1641 11.7902 45.1641H49.2411C50.3151 45.1641 51.1875 45.9844 51.1875 46.9944V49.2246C51.1875 50.2346 50.3151 51.055 49.2411 51.055ZM11.8401 49.1777H49.1912V47.0413H11.8401V49.1777V49.1777Z" fill="#222222"/>
<path d="M30.5156 47.1274C29.9723 47.1274 29.5312 46.6219 29.5312 45.9991V39.4193C29.5312 38.7965 29.9723 38.291 30.5156 38.291C31.059 38.291 31.5 38.7965 31.5 39.4193V45.9991C31.5 46.6219 31.059 47.1274 30.5156 47.1274Z" fill="#222222"/>
<path d="M55.0834 33.3826H6.93227C6.36591 33.3826 5.90625 32.9427 5.90625 32.4008C5.90625 31.8588 6.36591 31.4189 6.93227 31.4189H55.0834C55.6497 31.4189 56.1094 31.8588 56.1094 32.4008C56.1094 32.9427 55.6497 33.3826 55.0834 33.3826Z" fill="#222222"/>
<path d="M30.032 24.5429C27.6181 24.5429 25.3533 23.287 23.973 21.1846C22.8447 19.4658 22.4115 17.3806 22.756 15.3146C23.1006 13.2486 24.1806 11.4505 25.7986 10.2504C27.0458 9.32457 28.5047 8.83594 30.0199 8.83594C32.4338 8.83594 34.6986 10.0918 36.0788 12.1942C38.4101 15.7454 37.59 20.651 34.2513 23.1306C33.004 24.0564 31.5452 24.545 30.03 24.545L30.032 24.5429ZM30.0199 10.9791C28.9197 10.9791 27.8579 11.3348 26.9511 12.0078C25.7764 12.88 24.9906 14.1895 24.7387 15.6896C24.4869 17.192 24.8012 18.7072 25.6233 19.9566C26.6267 21.4847 28.275 22.3976 30.03 22.3976C31.1301 22.3976 32.192 22.0419 33.0987 21.3689C35.5247 19.5666 36.1212 16.0004 34.4266 13.4179C33.4231 11.8899 31.7749 10.9769 30.0179 10.9769L30.0199 10.9791Z" fill="#4B55AE"/>
<path d="M38.3258 30.4356C37.9943 30.4356 37.6691 30.272 37.4656 29.9687L33.6578 24.2962C33.3263 23.8031 33.4417 23.1224 33.918 22.7777C34.3942 22.4329 35.0467 22.5529 35.3781 23.0482L39.1859 28.7207C39.5174 29.2138 39.402 29.8945 38.9258 30.2392C38.7433 30.3723 38.5335 30.4356 38.3258 30.4356Z" fill="#4B55AE"/>
<path d="M29.7527 20.6188C29.4363 20.6188 29.1368 20.4764 28.9343 20.2276L26.8146 17.6014C26.4476 17.1464 26.5151 16.4765 26.9664 16.1065C27.4178 15.7365 28.0822 15.8046 28.4492 16.2596L29.5945 17.678L31.497 14.2863C31.7838 13.7738 32.4271 13.5952 32.9334 13.8844C33.4396 14.1736 33.6188 14.8222 33.332 15.3325L30.6681 20.0787C30.4972 20.3849 30.1851 20.5848 29.8392 20.6146C29.8096 20.6167 29.7801 20.6188 29.7506 20.6188H29.7527Z" fill="#4B55AE"/>
</g>
<defs>
<clipPath id="clip0_112_3502">
<rect width="52.1719" height="47.1273" fill="white" transform="translate(5.90625 3.92773)"/>
</clipPath>
</defs>
</svg>
