<svg width="42" height="42" viewBox="0 0 42 42" fill="none" xmlns="http://www.w3.org/2000/svg">
<circle cx="21" cy="21" r="21" fill="#4A55AC"/>
<path d="M24.7499 14.7506L16.6249 22.8756C16.1276 23.3728 15.8482 24.0473 15.8482 24.7506C15.8482 25.4538 16.1276 26.1283 16.6249 26.6256C17.1222 27.1228 17.7966 27.4022 18.4999 27.4022C19.2031 27.4022 19.8776 27.1228 20.3749 26.6256L28.4999 18.5006C29.4944 17.506 30.0532 16.1571 30.0532 14.7506C30.0532 13.344 29.4944 11.9951 28.4999 11.0006C27.5053 10.006 26.1564 9.44727 24.7499 9.44727C23.3434 9.44727 21.9944 10.006 20.9999 11.0006L12.8749 19.1256C11.383 20.6174 10.5449 22.6408 10.5449 24.7506C10.5449 26.8604 11.383 28.8837 12.8749 30.3756C14.3667 31.8674 16.3901 32.7055 18.4999 32.7055C20.6097 32.7055 22.633 31.8674 24.1249 30.3756L32.2499 22.2506" stroke="white" stroke-width="2" stroke-linecap="round" stroke-linejoin="round"/>
</svg>
