<svg width="42" height="42" viewBox="0 0 42 42" fill="none" xmlns="http://www.w3.org/2000/svg">
<circle cx="21" cy="21" r="21" fill="#4A55AC"/>
<g clip-path="url(#clip0_119_3689)">
<path d="M21 23.667C23.2091 23.667 25 21.8761 25 19.667C25 17.4579 23.2091 15.667 21 15.667C18.7909 15.667 17 17.4579 17 19.667C17 21.8761 18.7909 23.667 21 23.667Z" stroke="white" stroke-width="2" stroke-linecap="round" stroke-linejoin="round"/>
<path d="M28.5426 27.2089L22.8853 32.8663C22.3852 33.3658 21.7074 33.6464 21.0006 33.6464C20.2938 33.6464 19.6159 33.3658 19.1159 32.8663L13.4573 27.2089C11.9656 25.7172 10.9497 23.8165 10.5382 21.7474C10.1266 19.6783 10.3379 17.5336 11.1453 15.5846C11.9526 13.6355 13.3198 11.9697 15.0739 10.7976C16.828 9.62558 18.8903 9 20.9999 9C23.1096 9 25.1718 9.62558 26.9259 10.7976C28.6801 11.9697 30.0472 13.6355 30.8546 15.5846C31.6619 17.5336 31.8732 19.6783 31.4617 21.7474C31.0501 23.8165 30.0343 25.7172 28.5426 27.2089V27.2089Z" stroke="white" stroke-width="2" stroke-linecap="round" stroke-linejoin="round"/>
</g>
<defs>
<clipPath id="clip0_119_3689">
<rect width="32" height="32" fill="white" transform="translate(5 5)"/>
</clipPath>
</defs>
</svg>
