<svg width="85" height="85" viewBox="0 0 85 85" fill="none" xmlns="http://www.w3.org/2000/svg">
<g clip-path="url(#clip0_113_3545)">
<path d="M43 22.5674V11.4336" stroke="white" stroke-width="1.8" stroke-linecap="round" stroke-linejoin="round"/>
<path d="M42.9992 14.7591C44.8357 14.7591 46.3245 13.2703 46.3245 11.4337C46.3245 9.59721 44.8357 8.1084 42.9992 8.1084C41.1626 8.1084 39.6738 9.59721 39.6738 11.4337C39.6738 13.2703 41.1626 14.7591 42.9992 14.7591Z" fill="white" stroke="white" stroke-width="1.8" stroke-linecap="round" stroke-linejoin="round"/>
<path d="M28.5536 28.5536L20.6836 20.6836" stroke="white" stroke-width="1.8" stroke-linecap="round" stroke-linejoin="round"/>
<path d="M20.6828 24.0081C22.5193 24.0081 24.0081 22.5193 24.0081 20.6828C24.0081 18.8462 22.5193 17.3574 20.6828 17.3574C18.8462 17.3574 17.3574 18.8462 17.3574 20.6828C17.3574 22.5193 18.8462 24.0081 20.6828 24.0081Z" fill="white" stroke="white" stroke-width="1.8" stroke-linecap="round" stroke-linejoin="round"/>
<path d="M22.5674 43H11.4336" stroke="white" stroke-width="1.8" stroke-linecap="round" stroke-linejoin="round"/>
<path d="M11.4347 46.3255C13.2713 46.3255 14.7601 44.8367 14.7601 43.0002C14.7601 41.1636 13.2713 39.6748 11.4347 39.6748C9.59819 39.6748 8.10938 41.1636 8.10938 43.0002C8.10938 44.8367 9.59819 46.3255 11.4347 46.3255Z" fill="white" stroke="white" stroke-width="1.8" stroke-linecap="round" stroke-linejoin="round"/>
<path d="M28.5536 57.4473L20.6836 65.3173" stroke="white" stroke-width="1.8" stroke-linecap="round" stroke-linejoin="round"/>
<path d="M20.6828 68.6419C22.5193 68.6419 24.0081 67.1531 24.0081 65.3166C24.0081 63.48 22.5193 61.9912 20.6828 61.9912C18.8462 61.9912 17.3574 63.48 17.3574 65.3166C17.3574 67.1531 18.8462 68.6419 20.6828 68.6419Z" fill="white" stroke="white" stroke-width="1.8" stroke-linecap="round" stroke-linejoin="round"/>
<path d="M43 63.4326V74.5664" stroke="white" stroke-width="1.8" stroke-linecap="round" stroke-linejoin="round"/>
<path d="M42.9992 77.8919C44.8357 77.8919 46.3245 76.4031 46.3245 74.5666C46.3245 72.73 44.8357 71.2412 42.9992 71.2412C41.1626 71.2412 39.6738 72.73 39.6738 74.5666C39.6738 76.4031 41.1626 77.8919 42.9992 77.8919Z" fill="white" stroke="white" stroke-width="1.8" stroke-linecap="round" stroke-linejoin="round"/>
<path d="M57.4473 57.4473L65.3173 65.3173" stroke="white" stroke-width="1.8" stroke-linecap="round" stroke-linejoin="round"/>
<path d="M65.3175 68.6419C67.1541 68.6419 68.6429 67.1531 68.6429 65.3166C68.6429 63.48 67.1541 61.9912 65.3175 61.9912C63.481 61.9912 61.9922 63.48 61.9922 65.3166C61.9922 67.1531 63.481 68.6419 65.3175 68.6419Z" fill="white" stroke="white" stroke-width="1.8" stroke-linecap="round" stroke-linejoin="round"/>
<path d="M63.4316 43H74.5654" stroke="white" stroke-width="1.8" stroke-linecap="round" stroke-linejoin="round"/>
<path d="M74.5656 46.3255C76.4021 46.3255 77.8909 44.8367 77.8909 43.0002C77.8909 41.1636 76.4021 39.6748 74.5656 39.6748C72.729 39.6748 71.2402 41.1636 71.2402 43.0002C71.2402 44.8367 72.729 46.3255 74.5656 46.3255Z" fill="white" stroke="white" stroke-width="1.8" stroke-linecap="round" stroke-linejoin="round"/>
<path d="M57.4473 28.5536L65.3173 20.6836" stroke="white" stroke-width="1.8" stroke-linecap="round" stroke-linejoin="round"/>
<path d="M65.3175 24.0081C67.1541 24.0081 68.6429 22.5193 68.6429 20.6828C68.6429 18.8462 67.1541 17.3574 65.3175 17.3574C63.481 17.3574 61.9922 18.8462 61.9922 20.6828C61.9922 22.5193 63.481 24.0081 65.3175 24.0081Z" fill="white" stroke="white" stroke-width="1.8" stroke-linecap="round" stroke-linejoin="round"/>
</g>
<circle cx="42.9996" cy="43.0045" r="12.9" stroke="white" stroke-width="3"/>
<circle cx="42.9988" cy="43.0037" r="3.2" fill="white"/>
<defs>
<clipPath id="clip0_113_3545">
<rect width="72" height="72" fill="white" transform="translate(7 7)"/>
</clipPath>
</defs>
</svg>
