<svg width="64" height="64" viewBox="0 0 64 64" fill="none" xmlns="http://www.w3.org/2000/svg">
<path d="M0.412109 32.1192C0.412109 45.7078 9.12275 57.2225 21.1541 61.4745V2.76172C9.12483 7.01376 0.412109 18.5285 0.412109 32.1171V32.1192Z" fill="#ED4C5C"/>
<path d="M31.5251 1C27.8956 1 24.3684 1.62176 21.1541 2.76301V21.747H60.8735C56.6225 9.71482 45.1104 1 31.5251 1V1Z" fill="#699635"/>
<path d="M60.8737 21.7461H21.1543V42.4931H60.8737C62.0147 39.2779 62.6363 35.7499 62.6363 32.1196C62.6363 28.4893 62.0147 24.9612 60.8737 21.7461" fill="#F9F9F9"/>
<path d="M21.1543 42.4922V61.4762C24.3686 62.6174 27.8959 63.2391 31.5253 63.2391C45.1107 63.2391 56.6227 54.6287 60.8737 42.4922H21.1543V42.4922Z" fill="#3E4347"/>
</svg>
