<svg width="63" height="63" viewBox="0 0 63 63" fill="none" xmlns="http://www.w3.org/2000/svg">
<path d="M0 31.1191C0 43.049 6.74158 53.4225 16.5932 58.6071V3.62891C6.74158 8.81565 0 19.1891 0 31.1191Z" fill="#3E4347"/>
<path d="M62.2241 31.1209C62.2241 19.191 55.4825 8.81747 45.6309 3.63281V58.7133C55.4825 53.4222 62.2241 43.0487 62.2241 31.1209" fill="#699635"/>
<path d="M31.1136 0C25.8238 0 20.9512 1.3478 16.5938 3.6303V58.7128C20.9491 60.9953 25.8238 62.3431 31.1136 62.3431C36.4034 62.3431 41.276 60.9953 45.6334 58.7128V3.6303C41.276 1.3478 36.4013 0 31.1136 0Z" fill="#ED4C5C"/>
<path d="M35.0522 36.3086H33.9112C33.9112 36.8281 33.8069 37.2412 33.4961 37.5542H35.7781C35.363 37.2433 35.0522 36.7238 35.0522 36.3086Z" fill="white"/>
<path d="M35.1578 29.8768L35.7794 29.1507H33.706L32.6693 28.4246L29.455 28.3203L28.5226 29.1507H26.4492L27.0708 29.8768H35.1599H35.1578Z" fill="white"/>
<path d="M29.6608 28.2174H32.4601C32.8752 28.0108 32.9795 27.2848 32.9795 26.9718C32.9795 25.8306 32.2536 25.3131 31.5277 25.3131C31.4234 25.3131 31.3212 25.2088 31.2169 25.1066C31.1126 24.9 31.1126 24.6914 31.1126 24.6914C31.0083 24.6914 31.1126 24.7957 31.0083 25.1066C31.0083 25.2109 30.904 25.3131 30.6975 25.3131C29.7651 25.3131 29.1414 26.0392 29.2457 26.9718C29.2457 27.5936 29.35 28.0088 29.6608 28.2174" fill="white"/>
<path d="M33.706 36.7211L33.1866 36.4102V35.7885L32.8758 35.5819V34.9602L32.3564 34.7537V34.2341L31.9414 34.1298V33.6103L31.3198 33.4038L31.009 33.1972V32.782H28.9356V32.4712C28.9356 31.4342 30.2831 30.4995 31.1133 30.4995C32.1499 30.4995 33.2909 31.4321 33.2909 32.4712V33.5081H33.3952V32.4712C33.3952 31.5385 32.2542 30.3973 31.2175 30.3973H34.9513V30.293H27.0687V30.3973H30.8025C30.1809 30.3973 28.6248 31.1233 28.6248 32.4712V36.2058H29.455V36.9318H28.4183C28.314 36.9318 28.2118 36.7253 28.2118 36.5166H27.1751C27.1751 37.0362 26.8643 37.4493 26.4492 37.8644H29.5614V37.0341H30.3915L30.598 37.8644H31.3239L31.0131 37.0341H31.739L32.2584 37.8644H33.2951L32.5692 37.0341C32.5692 36.7232 33.7102 36.7232 33.7102 36.7232L33.706 36.7211ZM29.5614 35.3754H30.1829L30.2872 36.1015H29.5614V35.3754ZM31.0131 36.7232H30.3915L30.2872 35.9971H30.8066L30.6001 35.2711H30.9109L31.326 35.9971H30.8066L31.0131 36.7232V36.7232ZM31.739 36.7232L31.3239 35.9971H31.9455L32.5671 36.7232H31.7369" fill="white"/>
<path d="M33.291 33.9219H33.3953V34.9588H33.291V33.9219Z" fill="white"/>
<path d="M27.2751 35.0619H28.4161V33.7141H27.2751V34.025L24.9932 30.0838L25.0975 29.8773C25.0975 29.6707 24.9932 29.5664 24.7867 29.5664C24.5802 29.5664 24.4759 29.6707 24.4759 29.8773C24.4759 30.0838 24.5802 30.1881 24.7867 30.1881H24.891L24.9953 30.2925C24.7888 30.2925 24.5802 30.812 24.0629 31.2251C23.7521 31.4316 23.5435 32.1577 23.4413 32.5729V33.5055C23.4413 33.712 23.2348 34.1272 23.337 34.2316C23.6478 34.4381 24.0629 35.0619 24.2694 35.2685C24.3737 35.3728 24.5802 34.6467 24.6845 34.1272V34.0229C24.7888 33.6077 24.7888 33.0903 25.0996 32.7773L25.2039 32.673C25.4104 32.4665 25.8255 32.2578 26.034 32.0513L27.3815 34.4381L27.2772 35.0598" fill="white"/>
<path d="M27.2754 26.2461H28.3121V26.4526H27.2754V26.2461Z" fill="white"/>
<path d="M27.2754 26.6602H28.3121V28.734H27.2754V26.6602Z" fill="white"/>
<path d="M27.7951 25.1016C27.5886 25.1016 27.1735 25.5168 27.2757 25.9319H28.4167C28.4167 25.5168 28.0016 25.1016 27.7951 25.1016Z" fill="white"/>
<path d="M27.1699 30.4961H28.3109V32.1569H27.1699V30.4961Z" fill="white"/>
<path d="M27.2754 33.0898H28.4164V33.4007H27.2754V33.0898Z" fill="white"/>
<path d="M27.1699 35.2695H28.4152V35.9956H27.1699V35.2695Z" fill="white"/>
<path d="M27.2742 32.7796H28.3109L28.5174 32.4688H27.1699L27.2742 32.7796Z" fill="white"/>
<path d="M29.3489 30.6016H28.623V31.5342C28.8295 31.119 29.0381 30.8081 29.3489 30.6016Z" fill="white"/>
<path d="M38.892 32.9881V32.5729C38.892 32.1577 38.6855 31.5359 38.2704 31.2251C37.751 30.8099 37.4402 30.2925 37.338 30.2925L37.4423 30.1881H37.5466C37.7531 30.1881 37.8574 30.0838 37.8574 29.8773C37.8574 29.6707 37.7531 29.5664 37.5466 29.5664C37.3401 29.5664 37.2358 29.6707 37.2358 29.8773L37.3401 30.0838L35.1625 34.025V33.7141H34.0215V35.0619H35.1625V34.3359L36.5099 31.9491C36.6142 32.0534 37.1315 32.2599 37.3401 32.5708L37.4444 32.6751C37.7552 33.0903 37.6509 33.5055 37.7552 33.9207V34.025C37.8595 34.4402 37.9617 35.2706 38.1703 35.1663C38.3768 34.9597 38.7919 34.4402 39.1027 34.1293C39.207 34.025 38.9984 33.6098 38.9984 33.4033C38.7919 33.2989 38.8941 33.1967 38.8941 32.9881" fill="white"/>
<path d="M34.0156 26.2461H35.0523V26.4526H34.0156V26.2461Z" fill="white"/>
<path d="M34.0156 26.6602H35.0523V28.734H34.0156V26.6602Z" fill="white"/>
<path d="M35.0528 25.9319C35.0528 25.5168 34.742 25.1016 34.5334 25.1016C34.3248 25.1016 33.9118 25.5168 34.014 25.9319H35.0507" fill="white"/>
<path d="M33.9121 30.4961H35.0531V32.1569H33.9121V30.4961Z" fill="white"/>
<path d="M33.9121 33.0898H35.0531V33.4007H33.9121V33.0898Z" fill="white"/>
<path d="M33.9121 35.2695H35.1574V35.9956H33.9121V35.2695Z" fill="white"/>
<path d="M33.7052 32.4688L33.9117 32.7796H34.9484L35.1549 32.4688H33.7031H33.7052Z" fill="white"/>
<path d="M33.6009 31.5342V30.6016H32.875C33.1858 30.8081 33.3944 31.1211 33.6009 31.5342Z" fill="white"/>
<path d="M42.1065 32.363C42.5216 32.1564 43.0389 31.8435 43.3517 31.5326C43.6625 31.0131 43.5582 30.0805 43.5582 30.0805C43.5582 30.0805 42.8324 30.3913 42.2108 30.7022C42.2108 30.287 42.0043 29.7696 41.7957 29.3544C42.1065 29.0435 42.6258 28.6283 42.7281 28.3175C43.0389 27.6957 42.6238 26.8654 42.6238 26.8654C42.6238 26.8654 42.0022 27.2805 41.4828 27.798C41.3785 27.3828 41.0677 26.9676 40.7569 26.5524C40.9634 26.1372 41.3785 25.6198 41.3785 25.3068C41.4828 24.5808 40.8591 23.8547 40.8591 23.8547C40.8591 23.8547 40.3397 24.4765 40.0289 25.1003C39.7181 24.6851 39.1987 24.1677 38.7837 23.8547C38.9902 23.5438 38.9902 23.233 38.9902 22.8178C38.9902 20.5353 35.465 18.668 31.0054 18.668C26.5458 18.668 23.0206 20.5353 23.0206 22.8178C23.0206 23.1286 23.1249 23.5438 23.2271 23.8547C22.812 24.1656 22.2947 24.5808 21.9819 25.1003C21.6711 24.4785 21.1517 23.8547 21.1517 23.8547C21.1517 23.8547 20.5301 24.5808 20.6323 25.3068C20.7366 25.722 21.0474 26.2394 21.2539 26.5524C20.9431 26.9676 20.6323 27.3828 20.528 27.798C20.1129 27.2785 19.387 26.8654 19.387 26.8654C19.387 26.8654 18.9719 27.6957 19.2827 28.3175C19.4892 28.7327 19.9043 29.1479 20.2151 29.3544C20.0086 29.7696 19.9043 30.287 19.8 30.7022C19.4892 30.3913 18.659 30.0805 18.659 30.0805C18.659 30.0805 18.4525 31.0131 18.8655 31.5326C19.0721 31.8435 19.6957 32.1543 20.1108 32.363C20.0065 32.7782 20.0065 33.3999 20.1108 33.8151C19.4892 33.6085 18.659 33.5042 18.659 33.5042C18.659 33.5042 18.7633 34.4368 19.2806 34.852C19.5914 35.0586 20.213 35.2672 20.6281 35.2672C20.7324 35.6824 20.8346 36.3041 21.0432 36.615C20.4216 36.5107 19.5914 36.7193 19.5914 36.7193C19.5914 36.7193 19.9022 37.6519 20.5238 37.8606C20.9389 37.9649 21.5605 37.9649 21.9756 37.9649C22.1821 38.3801 22.3907 38.8975 22.7015 39.2105C22.0799 39.3148 21.354 39.6257 21.354 39.6257C21.354 39.6257 21.8734 40.456 22.5993 40.456C23.0144 40.456 23.636 40.3517 24.0511 40.1452C24.3619 40.5604 24.6727 40.8712 25.0877 41.1821C24.4661 41.493 23.8425 42.0125 23.8425 42.0125C23.8425 42.0125 24.5684 42.6342 25.2942 42.532C25.5007 42.532 25.605 42.4277 25.8136 42.3254L24.8812 43.571H37.3256L36.4954 42.6384C36.7019 42.7427 36.8062 42.7427 37.0148 42.8449C37.7407 42.9493 38.4666 42.3254 38.4666 42.3254C38.4666 42.3254 37.845 41.8059 37.2213 41.4951C37.6364 41.2885 37.9472 40.8733 38.258 40.4581C38.6731 40.6647 39.2947 40.769 39.7098 40.769C40.4357 40.6647 40.9551 39.9386 40.9551 39.9386C40.9551 39.9386 40.2292 39.6277 39.6076 39.5234C39.9184 39.2126 40.127 38.693 40.3335 38.2779C40.7486 38.2779 41.3701 38.3822 41.7852 38.1735C42.4068 37.8627 42.7176 37.0323 42.7176 37.0323C42.7176 37.0323 41.8874 36.928 41.2659 36.928C41.4724 36.5128 41.5767 35.9954 41.6809 35.5802C42.096 35.4758 42.7176 35.3736 43.0284 35.165C43.5478 34.7498 43.65 33.8172 43.65 33.8172C43.65 33.8172 42.8198 33.9215 42.1982 34.128C42.1982 33.402 42.0939 32.8825 42.0939 32.3651L42.1065 32.363ZM25.8115 40.2495C25.5007 40.0429 25.0857 39.8343 24.6706 39.73C24.7749 39.4191 24.9814 39.1082 25.0857 38.7974H26.018C26.018 39.1082 25.8115 39.73 25.8115 40.2495ZM35.0416 39.8343C34.9373 40.1452 34.9373 40.5604 35.0416 40.9755L34.42 40.2495H27.6784L27.0568 40.9755C27.1611 40.5604 27.1611 40.1452 27.0568 39.8343C26.9525 39.3148 26.4352 39.0039 26.1244 38.9017H35.8738C35.6673 39.006 35.2523 39.3169 35.0437 39.8343H35.0416ZM36.3911 40.2495C36.3911 39.73 36.1846 39.1082 36.1846 38.7974H37.117C37.2213 39.1082 37.4278 39.5234 37.5321 39.73C37.117 39.9365 36.7019 40.0408 36.3911 40.2495ZM40.6422 33.6106C40.1228 33.1954 39.3969 32.678 39.3969 32.678C39.3969 32.678 39.0861 33.6106 39.3969 34.2345C39.6034 34.6496 40.2271 35.0648 40.5379 35.2714C40.2271 35.5823 40.0185 35.8931 39.812 36.204C39.5012 35.5823 38.8796 34.9584 38.8796 34.9584C38.8796 34.9584 38.3602 35.7888 38.4645 36.4105C38.5688 36.8257 38.9839 37.3432 39.2947 37.7583C38.9839 37.9649 38.5688 38.1735 38.3623 38.4844C38.1558 37.8627 37.7407 37.0323 37.7407 37.0323C37.7407 37.0323 37.0148 37.654 37.0148 38.3801C37.0148 38.4844 37.0148 38.3801 37.0294 38.7953L36.0803 37.9649H26.2287L25.2004 38.7953C25.2004 38.7953 25.2942 38.5887 25.2942 38.3801C25.2942 37.654 24.5684 37.0323 24.5684 37.0323C24.5684 37.0323 24.1533 37.7584 23.9468 38.4844C23.7403 38.1735 23.3252 37.9649 23.0144 37.7583C23.3252 37.4475 23.7403 36.928 23.8446 36.4105C24.0511 35.6845 23.4295 34.9584 23.4295 34.9584C23.4295 34.9584 22.8079 35.5802 22.4971 36.204C22.2906 35.8931 22.082 35.5823 21.7712 35.2714C22.1863 35.0648 22.7036 34.6496 22.9122 34.2345C23.223 33.6127 22.9122 32.678 22.9122 32.678C22.9122 32.678 22.082 33.0932 21.6669 33.6106C21.5626 33.2998 21.4604 32.8846 21.2518 32.5737C21.6669 32.4694 22.2885 32.1585 22.5993 31.8476C23.1187 31.3281 23.0144 30.3955 23.0144 30.3955C23.0144 30.3955 22.1842 30.6021 21.5626 30.915C21.5626 30.6041 21.5626 30.189 21.4583 29.7738C21.8734 29.7738 22.5993 29.6695 23.0144 29.4629C23.636 29.0477 23.7403 28.1151 23.7403 28.1151C23.7403 28.1151 22.8079 28.1151 22.1842 28.3217C22.2885 28.0108 22.2885 27.5956 22.3907 27.1804C22.8058 27.2847 23.5317 27.387 23.9468 27.2847C24.6726 27.0782 24.9834 26.2478 24.9834 26.2478C24.9834 26.2478 24.1533 26.0412 23.4274 26.0412C23.9468 25.2109 24.1533 23.6544 24.1533 23.6544C24.1533 23.6544 24.049 23.6544 23.9468 23.7587C25.192 22.3066 27.9913 21.2697 31.2056 21.2697C34.42 21.2697 37.2213 22.3066 38.4645 23.7587C38.3602 23.6544 38.258 23.6544 38.258 23.6544C38.258 23.6544 38.4645 25.2109 38.9839 26.0412C38.258 26.0412 37.4278 26.2478 37.4278 26.2478C37.4278 26.2478 37.8429 27.0782 38.4645 27.2847C38.8796 27.389 39.6055 27.2847 40.0206 27.1804C40.0206 27.5956 40.0206 28.0108 40.2271 28.3217C39.6055 28.1151 38.671 28.1151 38.671 28.1151C38.671 28.1151 38.8775 29.0477 39.3969 29.4629C39.812 29.6695 40.4336 29.7738 40.953 29.7738C40.8487 30.189 40.7465 30.6041 40.8487 30.915C40.2271 30.6041 39.3969 30.3955 39.3969 30.3955C39.3969 30.3955 39.2926 31.3281 39.812 31.8476C40.1228 32.1585 40.7444 32.3671 41.1595 32.5737C40.953 32.8846 40.7444 33.1954 40.6401 33.6106" fill="white"/>
</svg>
