<svg width="63" height="63" viewBox="0 0 63 63" fill="none" xmlns="http://www.w3.org/2000/svg">
<mask id="mask0_122_8867" style="mask-type:alpha" maskUnits="userSpaceOnUse" x="0" y="0" width="63" height="63">
<rect width="63" height="63" fill="#D9D9D9"/>
</mask>
<g mask="url(#mask0_122_8867)">
<path d="M54.0007 54.0163C66.1511 41.863 66.1511 22.1586 54.0007 10.0053C41.8503 -2.14801 22.1506 -2.14798 10.0002 10.0053C-2.1502 22.1586 -2.15016 41.8629 10.0002 54.0162C22.1506 66.1695 41.8503 66.1696 54.0007 54.0163Z" fill="#F5F5F5"/>
<path d="M11.779 37.1948C11.779 37.1948 11.5725 38.647 12.1941 39.2687C12.8157 39.8904 14.1653 40.7208 14.6826 40.8251C15.2019 40.9295 14.061 38.9578 14.061 38.9578C14.061 38.9578 12.5049 36.884 11.779 37.1948" fill="#699635"/>
<path d="M11.9863 40.7256C11.9863 40.7256 12.1929 42.0734 13.0231 42.282C13.9554 42.4886 14.7856 42.3863 14.7856 42.3863C14.7856 42.3863 14.8899 40.8299 11.9863 40.7256Z" fill="#699635"/>
<path d="M14.9941 38.0285C14.9941 38.0285 15.9266 38.3393 15.9266 39.1697C15.9266 40.0001 15.8223 40.8284 15.8223 40.8284C15.8223 40.8284 15.2007 39.998 15.2007 39.5828C15.2007 39.1676 14.9941 38.0264 14.9941 38.0264" fill="#699635"/>
<path d="M14.6832 43.0067C14.6832 43.0067 14.5789 43.8371 15.5133 43.8371C16.4478 43.8371 15.6176 42.8002 14.6832 43.0067Z" fill="#699635"/>
<path d="M14.5781 44.3539C14.5781 44.3539 15.6148 44.043 16.7558 44.2496C17.8968 44.4561 18.5184 45.3908 18.5184 45.3908C18.5184 45.3908 17.2731 45.7017 15.8213 45.3908C14.4738 45.0799 14.576 44.3539 14.576 44.3539" fill="#699635"/>
<path d="M15.3047 41.3456C15.3047 41.3456 16.7564 40.9304 18.1039 44.0433C18.1039 44.0433 15.4069 43.4215 15.3047 41.3456Z" fill="#699635"/>
<path d="M16.7578 40.7255C16.7578 40.7255 18.314 39.7929 19.6614 43.9406C19.6614 43.9406 17.7945 43.2145 16.7578 40.7255Z" fill="#699635"/>
<path d="M18.9355 44.5602C18.9355 44.5602 20.4916 43.9385 22.565 46.4275C19.142 46.3232 18.9355 44.5602 18.9355 44.5602Z" fill="#699635"/>
<path d="M19.9733 43.4229C19.9733 43.4229 19.8691 44.3556 20.4928 44.3556C21.1165 44.3556 20.597 43.2143 19.9733 43.4229Z" fill="#699635"/>
<path d="M18.8308 45.9121C18.8308 45.9121 18.7265 46.7424 19.2459 46.7424C19.7653 46.7424 19.2459 45.6012 18.8308 45.9121Z" fill="#699635"/>
<path d="M23.7058 48.401C23.7058 48.401 23.6015 49.3336 24.2252 49.3336C24.8489 49.3336 24.3294 48.0881 23.7058 48.401Z" fill="#699635"/>
<path d="M25.1589 45.6002C25.1589 45.6002 25.0546 46.5329 25.6783 46.5329C26.302 46.5329 25.7826 45.2873 25.1589 45.6002Z" fill="#699635"/>
<path d="M21.2168 43.9416C21.2168 43.9416 23.4988 43.3199 24.4312 46.2241C21.7341 45.8089 21.2168 43.9416 21.2168 43.9416Z" fill="#699635"/>
<path d="M19.2461 47.1566C19.2461 47.1566 21.8388 46.5349 22.9798 47.3631C24.1208 48.1935 20.6979 48.6087 19.2461 47.1566Z" fill="#699635"/>
<path d="M23.707 47.1557C23.707 47.1557 25.4697 46.3253 27.3366 48.1926C23.7071 48.6078 23.707 47.1557 23.707 47.1557Z" fill="#699635"/>
<path d="M26.6108 46.0159C26.6108 46.0159 28.3734 45.4964 30.0337 48.6093C26.1957 48.0898 26.6108 46.0159 26.6108 46.0159Z" fill="#699635"/>
<path d="M29.5128 49.4364C29.5128 49.4364 27.6459 50.7842 25.2617 49.3321C25.2617 49.4364 26.092 47.7756 29.5128 49.4364Z" fill="#699635"/>
<path d="M52.2246 37.0926C52.2246 37.0926 52.4311 38.5447 51.8095 39.1665C51.1879 39.7882 49.8384 40.6186 49.3211 40.7229C48.8017 40.8272 49.9427 38.8556 49.9427 38.8556C49.9427 38.8556 51.4987 36.884 52.2246 37.0926" fill="#699635"/>
<path d="M52.0188 40.7256C52.0188 40.7256 51.8123 42.0734 50.8778 42.282C49.9455 42.4886 49.1152 42.3863 49.1152 42.3863C49.1152 42.3863 49.1152 40.8299 52.0188 40.7256Z" fill="#699635"/>
<path d="M49.0105 37.923C49.0105 37.923 48.0781 38.2339 48.0781 39.0642C48.0781 39.8946 48.1824 40.7229 48.1824 40.7229C48.1824 40.7229 48.804 39.8925 48.804 39.4773C48.804 39.0622 49.0105 37.9209 49.0105 37.9209" fill="#699635"/>
<path d="M49.322 43.0067C49.322 43.0067 49.4263 43.8371 48.4918 43.8371C47.5573 43.8371 48.3875 42.8002 49.322 43.0067Z" fill="#699635"/>
<path d="M49.4246 44.2523C49.4246 44.2523 48.388 43.9414 47.247 44.148C46.106 44.3545 45.4844 45.2892 45.4844 45.2892C45.4844 45.2892 46.7297 45.6001 48.1815 45.2892C49.5289 44.9784 49.4267 44.2523 49.4267 44.2523" fill="#699635"/>
<path d="M48.6996 41.3456C48.6996 41.3456 47.2479 40.9304 45.9004 44.0433C45.9004 44.0433 48.5974 43.3172 48.6996 41.3456Z" fill="#699635"/>
<path d="M47.2474 40.7255C47.2474 40.7255 45.6912 39.7929 44.3438 43.9406C44.3438 43.9406 46.2107 43.2145 47.2474 40.7255Z" fill="#699635"/>
<path d="M45.1724 44.5602C45.1724 44.5602 43.6163 43.9385 41.543 46.4275C44.8616 46.221 45.1724 44.5602 45.1724 44.5602Z" fill="#699635"/>
<path d="M44.0335 43.4206C44.0335 43.4206 44.1377 44.3532 43.514 44.3532C42.8904 44.3532 43.4098 43.1076 44.0335 43.4206Z" fill="#699635"/>
<path d="M45.172 45.8075C45.172 45.8075 45.2763 46.6379 44.7569 46.6379C44.2375 46.6379 44.7569 45.6009 45.172 45.8075Z" fill="#699635"/>
<path d="M40.2991 48.401C40.2991 48.401 40.4033 49.3336 39.7797 49.3336C39.156 49.3336 39.6754 48.0881 40.2991 48.401Z" fill="#699635"/>
<path d="M38.8479 45.6002C38.8479 45.6002 38.9522 46.5329 38.3285 46.5329C37.7048 46.5329 38.2242 45.2873 38.8479 45.6002Z" fill="#699635"/>
<path d="M42.7885 43.9416C42.7885 43.9416 40.5066 43.3199 39.5742 46.2241C42.2713 45.8089 42.7885 43.9416 42.7885 43.9416Z" fill="#699635"/>
<path d="M44.7594 47.0511C44.7594 47.0511 42.1667 46.4294 41.0257 47.2577C39.8847 48.1903 43.3076 48.6055 44.7594 47.0511Z" fill="#699635"/>
<path d="M40.2993 47.1557C40.2993 47.1557 38.5368 46.3253 36.6699 48.1926C40.2994 48.6078 40.2993 47.1557 40.2993 47.1557Z" fill="#699635"/>
<path d="M37.3956 46.0159C37.3956 46.0159 35.633 45.4964 33.9727 48.6093C37.8107 48.0898 37.3956 46.0159 37.3956 46.0159Z" fill="#699635"/>
<path d="M34.4902 49.4364C34.4902 49.4364 36.3571 50.7842 38.7412 49.3321C38.7412 49.4364 37.9111 47.7756 34.4902 49.4364Z" fill="#699635"/>
<path d="M31.692 50.1644C31.692 50.1644 30.3445 51.9274 30.3445 51.7208C30.3445 51.5143 29.4121 50.7882 29.4121 50.7882L30.9682 49.647L30.3466 49.3361L30.6574 48.9209L31.7983 49.4404" fill="#699635"/>
<path d="M32.0028 50.1644C32.0028 50.1644 33.3503 51.9274 33.3503 51.7208C33.3503 51.5143 34.2827 50.7882 34.2827 50.7882L32.7267 49.647L33.3483 49.3361L33.0374 48.9209L31.8965 49.4404" fill="#699635"/>
<path d="M17.4833 29.4171C17.4833 29.4171 17.8985 30.5584 18.4157 30.5584C18.933 30.5584 20.2827 30.6627 20.2827 30.6627C20.2827 30.6627 21.0085 30.5584 21.215 29.9366C21.4215 29.3149 22.0452 26.7215 25.1553 28.278C28.2674 29.8344 28.4739 25.5803 28.4739 25.5803L27.9545 24.8542L28.0588 23.4021C28.0588 23.4021 29.717 24.5434 30.858 24.5434C31.8947 24.439 32.7249 24.8542 33.0357 24.8542C33.3465 24.8542 34.4874 25.1651 34.4874 25.1651L37.2868 25.2694C37.2868 25.2694 37.7018 24.8542 38.2191 24.9585C38.6342 25.0629 38.6342 24.6477 39.5666 24.6477C40.3968 24.6477 41.2249 23.6107 41.2249 23.6107C41.2249 23.6107 41.4314 23.4042 42.6767 23.6107C42.6767 23.6107 43.5068 22.8847 44.75 22.5738C45.9953 22.1586 45.7868 21.6412 45.7868 21.6412C45.7868 21.6412 46.7191 21.4346 47.1342 21.5369C47.5493 21.6391 47.7558 20.8108 47.7558 20.8108L48.6882 20.7065L49.1033 20.187L50.0356 19.9804C50.0356 19.9804 51.1766 19.1501 51.3831 18.6326C51.5896 18.1131 52.835 18.5283 52.835 18.5283C52.835 18.5283 53.3543 18.0088 53.4566 17.6979C53.5608 17.3871 53.9759 17.5936 53.9759 17.5936L53.8716 18.5262L53.25 18.8371V19.3566H52.3176L52.2133 19.8761L51.3831 19.9804L51.2788 20.7065L51.0724 21.0174L50.8658 21.1217H50.3465L50.1399 21.4326L49.6206 22.0543L49.2054 22.5738L48.3753 22.4695L47.8559 23.1956H47.5451L47.0258 24.0259L46.6106 24.5454L46.4042 24.8563L45.989 24.9606L45.8847 25.3758L45.1589 25.5824L44.3287 25.7889L44.0179 26.2041C44.0179 26.2041 43.0855 28.1757 44.1222 28.7975C45.1589 29.5235 45.1589 30.2496 45.1589 30.2496L45.6783 30.5605L46.0933 31.2865L46.2999 32.1169C46.2999 32.1169 46.0933 32.2212 45.8847 32.2212C45.5739 32.0147 45.1589 32.0147 45.1589 32.0147L44.7438 31.5995L43.9136 31.4952L43.3942 32.0147C43.3942 32.0147 43.1878 32.3256 43.1878 32.5342C43.1878 32.7428 43.0834 32.7407 42.7726 32.5342C42.4618 32.3276 42.0467 32.119 42.0467 32.119L41.4251 32.0147L41.3208 31.7038L40.9057 31.9104C40.9057 31.9104 40.8015 32.2212 40.595 32.1169C40.3885 32.0126 40.1798 32.0126 40.1798 32.0126H39.7648C39.7648 32.0126 38.8324 32.7387 38.9346 34.9168L37.8979 35.1234L37.3785 35.5386L37.172 35.8494H36.4461L36.1354 36.1603L35.4095 36.4712L35.0986 36.8864L34.062 36.9907L33.7512 37.1973L33.5446 37.6124L32.923 37.1973L32.0929 36.9907L31.367 37.1973L30.9519 37.4038C30.7454 37.6104 30.1218 37.7147 30.1218 37.7147C30.1218 37.7147 29.7066 37.819 29.7066 38.0255C29.7066 38.2321 29.6023 38.6473 29.6023 38.6473V39.4777C29.6023 39.4777 29.4981 39.9972 29.083 39.9972C28.6679 39.9972 28.7721 39.9972 28.5636 39.8929C28.355 39.7885 28.3571 39.3733 28.3571 39.3733V38.7516L27.4247 37.9212L26.8031 37.7147L26.1815 37.819L25.6622 38.1299L25.1427 38.4407C25.1427 38.4407 25.2471 38.8559 24.832 38.5451C24.4169 38.2342 24.106 38.2342 24.106 38.2342L23.5867 37.9233L22.8608 37.7168L22.3413 37.095L20.9939 36.9907L19.853 35.6429L19.5421 35.332L19.4378 34.2951L18.7119 34.1908V33.6713L18.4012 33.1518L18.5055 32.1148L17.7796 31.804L17.4688 30.8713V29.4192" fill="#FF8736"/>
</g>
</svg>
