<svg width="159" height="97" viewBox="0 0 159 97" fill="none" xmlns="http://www.w3.org/2000/svg">
<path d="M44.8066 10.2852V14.9789" stroke="#CECECE" stroke-linecap="round" stroke-linejoin="round"/>
<path d="M44.8066 0.632812V5.31384" stroke="#CECECE" stroke-linecap="round" stroke-linejoin="round"/>
<path d="M47.2861 7.80664H51.9798" stroke="#CECECE" stroke-linecap="round" stroke-linejoin="round"/>
<path d="M37.6328 7.80664H42.3138" stroke="#CECECE" stroke-linecap="round" stroke-linejoin="round"/>
<path d="M51.9795 30.2363V33.7534" stroke="#CECECE" stroke-linecap="round" stroke-linejoin="round"/>
<path d="M51.9795 22.9883V26.5054" stroke="#CECECE" stroke-linecap="round" stroke-linejoin="round"/>
<path d="M53.8389 28.377H57.356" stroke="#CECECE" stroke-linecap="round" stroke-linejoin="round"/>
<path d="M46.6025 28.377H50.107" stroke="#CECECE" stroke-linecap="round" stroke-linejoin="round"/>
<path d="M73.2207 15.3594V17.6999" stroke="#FFC9C9" stroke-linecap="round" stroke-linejoin="round"/>
<path d="M73.2207 10.5273V12.8678" stroke="#FFC9C9" stroke-linecap="round" stroke-linejoin="round"/>
<path d="M74.4609 14.1191H76.8141" stroke="#FFC9C9" stroke-linecap="round" stroke-linejoin="round"/>
<path d="M69.6406 14.1191H71.9811" stroke="#FFC9C9" stroke-linecap="round" stroke-linejoin="round"/>
<path d="M18.0436 52.9141H11.5215V56.7506H18.0436V52.9141Z" stroke="url(#paint0_linear_121_7493)" stroke-width="1.5" stroke-linecap="round" stroke-linejoin="round"/>
<path d="M22.9038 65.4477L18.0437 57.0977H11.5873L6.69727 65.3135L22.9038 65.4477Z" fill="#FFF5F5" stroke="url(#paint1_linear_121_7493)" stroke-width="1.5" stroke-linecap="round" stroke-linejoin="round"/>
<path d="M22.8801 85.1543H6.73926V93.0835H22.8801V85.1543Z" fill="#FFF5F5" stroke="url(#paint2_linear_121_7493)" stroke-width="1.5" stroke-linecap="round" stroke-linejoin="round"/>
<path d="M22.8801 65.0273H6.73926V73.5664H22.8801V65.0273Z" fill="#FFF5F5" stroke="url(#paint3_linear_121_7493)" stroke-width="1.5" stroke-linecap="round" stroke-linejoin="round"/>
<path d="M22.2821 73.5664H7.33691V85.1551H22.2821V73.5664Z" fill="#FFF5F5" stroke="url(#paint4_linear_121_7493)" stroke-width="1.5" stroke-linecap="round" stroke-linejoin="round"/>
<path d="M41.0436 52.9141H34.5215V56.7506H41.0436V52.9141Z" stroke="url(#paint5_linear_121_7493)" stroke-width="1.5" stroke-linecap="round" stroke-linejoin="round"/>
<path d="M45.9038 65.4477L41.0437 57.0977H34.5873L29.6973 65.3135L45.9038 65.4477Z" fill="#FFF5F5" stroke="url(#paint6_linear_121_7493)" stroke-width="1.5" stroke-linecap="round" stroke-linejoin="round"/>
<path d="M45.8801 85.1543H29.7393V93.0835H45.8801V85.1543Z" fill="#FFF5F5" stroke="url(#paint7_linear_121_7493)" stroke-width="1.5" stroke-linecap="round" stroke-linejoin="round"/>
<path d="M45.8801 65.0273H29.7393V73.5664H45.8801V65.0273Z" fill="#FFF5F5" stroke="url(#paint8_linear_121_7493)" stroke-width="1.5" stroke-linecap="round" stroke-linejoin="round"/>
<path d="M45.2821 73.5664H30.3369V85.1551H45.2821V73.5664Z" fill="#FFF5F5" stroke="url(#paint9_linear_121_7493)" stroke-width="1.5" stroke-linecap="round" stroke-linejoin="round"/>
<path d="M76 80C76.7398 87.5505 80.0526 93 83.9079 93H111.092C114.947 93 118.26 87.5505 119 80H76Z" fill="#FFC9C9"/>
<path d="M66.5859 39.6055L75.7554 86.8457C76.4949 90.6494 79.8061 93.3947 83.6596 93.3947H110.831C114.685 93.3947 117.996 90.6494 118.735 86.8457L127.913 39.6055H66.5859Z" stroke="url(#paint10_linear_121_7493)" stroke-width="3" stroke-linecap="round" stroke-linejoin="round"/>
<path d="M106.022 64.3101C105.705 57.6254 98.3784 49.7141 98.0697 49.3811L97.2494 48.5039L96.429 49.3811C96.1204 49.7141 88.7858 57.6254 88.4772 64.3101L88.4609 64.7487C88.4609 69.5084 92.4003 73.3747 97.2494 73.3747C102.098 73.3747 106.03 69.5003 106.03 64.7487C106.03 64.6025 106.03 64.4563 106.013 64.302L106.022 64.3101Z" fill="white" stroke="url(#paint11_linear_121_7493)" stroke-width="1.5"/>
<path d="M97.2498 73.991C92.0759 73.991 87.8604 69.8486 87.8604 64.7558L87.8766 64.301C88.2015 57.3969 95.6741 49.3152 95.9909 48.974L96.8112 48.0968C97.0387 47.8531 97.461 47.8531 97.6885 48.0968L98.5088 48.974C98.8256 49.3152 106.298 57.3888 106.623 64.2847C106.631 64.4472 106.639 64.6096 106.639 64.764C106.639 69.8567 102.432 73.9991 97.2498 73.9991V73.991ZM97.2498 49.3964L96.8681 49.8025C96.5594 50.1274 89.3792 57.8924 89.0787 64.3497L89.0625 64.7802C89.0625 69.1907 92.7338 72.7889 97.2498 72.7889C101.766 72.7889 105.429 69.1907 105.429 64.764C105.429 64.634 105.429 64.4959 105.413 64.3497C105.112 57.8843 97.9321 50.1274 97.6235 49.8025L97.2417 49.3964H97.2498Z" fill="url(#paint12_linear_121_7493)" stroke="url(#paint13_linear_121_7493)" stroke-width="1.5"/>
<path d="M104.146 64.399C103.91 59.3875 98.9315 53.2306 97.2501 51.2812C94.6834 54.2053 90.5735 59.9398 90.3623 64.399V64.8133C90.3542 68.4765 93.4488 71.506 97.2582 71.506C101.068 71.506 104.162 68.4765 104.162 64.7564C104.162 64.6427 104.162 64.537 104.154 64.4152V64.399H104.146Z" fill="#FFC9C9"/>
<path d="M108.441 13.9141H82.8271V26.5075H108.441V13.9141Z" fill="white" stroke="url(#paint14_linear_121_7493)" stroke-width="3.09677" stroke-miterlimit="10"/>
<path d="M101.257 1.50785C106.435 1.85224 109.256 2.85748 109.256 5.86387C109.256 8.58173 107.173 10.434 100.737 10.6387C93.4198 10.8714 85.9799 9.77312 83.3863 6.99011C80.1681 3.54625 80.9537 0 80.9537 0C80.9537 0 82.7995 2.44793 86.9738 2.44793C91.148 2.44793 96.108 1.17277 101.257 1.50785Z" fill="url(#paint15_linear_121_7493)"/>
<path d="M88.3223 19.6133V26.8391" stroke="url(#paint16_linear_121_7493)" stroke-width="3.09677" stroke-miterlimit="10" stroke-linecap="round" stroke-linejoin="round"/>
<path d="M95.5479 19.6133V26.8391" stroke="url(#paint17_linear_121_7493)" stroke-width="3.09677" stroke-miterlimit="10" stroke-linecap="round" stroke-linejoin="round"/>
<path d="M102.773 19.6133V26.8391" stroke="url(#paint18_linear_121_7493)" stroke-width="3.09677" stroke-miterlimit="10" stroke-linecap="round" stroke-linejoin="round"/>
<path d="M153.763 28.7902C153.763 30.0467 152.722 31.0706 151.444 31.0706H81.2653C79.9875 31.0706 78.9463 30.0467 78.9463 28.7902C78.9463 27.5336 79.9875 26.5098 81.2653 26.5098H151.444C152.722 26.5098 153.763 27.5336 153.763 28.7902Z" fill="url(#paint19_linear_121_7493)"/>
<defs>
<linearGradient id="paint0_linear_121_7493" x1="14.7825" y1="48.7868" x2="14.7825" y2="56.4309" gradientUnits="userSpaceOnUse">
<stop offset="0.588542" stop-color="#FD7575"/>
<stop offset="1" stop-color="#E03131"/>
</linearGradient>
<linearGradient id="paint1_linear_121_7493" x1="14.8006" y1="48.1147" x2="14.8006" y2="64.7519" gradientUnits="userSpaceOnUse">
<stop offset="0.588542" stop-color="#FD7575"/>
<stop offset="1" stop-color="#E03131"/>
</linearGradient>
<linearGradient id="paint2_linear_121_7493" x1="14.8097" y1="76.6241" x2="14.8097" y2="92.4227" gradientUnits="userSpaceOnUse">
<stop offset="0.588542" stop-color="#FD7575"/>
<stop offset="1" stop-color="#E03131"/>
</linearGradient>
<linearGradient id="paint3_linear_121_7493" x1="14.8097" y1="55.8409" x2="14.8097" y2="72.8548" gradientUnits="userSpaceOnUse">
<stop offset="0.588542" stop-color="#FD7575"/>
<stop offset="1" stop-color="#E03131"/>
</linearGradient>
<linearGradient id="paint4_linear_121_7493" x1="14.8095" y1="61.0991" x2="14.8095" y2="84.1894" gradientUnits="userSpaceOnUse">
<stop offset="0.588542" stop-color="#FD7575"/>
<stop offset="1" stop-color="#E03131"/>
</linearGradient>
<linearGradient id="paint5_linear_121_7493" x1="37.7825" y1="48.7868" x2="37.7825" y2="56.4309" gradientUnits="userSpaceOnUse">
<stop offset="0.588542" stop-color="#FD7575"/>
<stop offset="1" stop-color="#E03131"/>
</linearGradient>
<linearGradient id="paint6_linear_121_7493" x1="37.8006" y1="48.1147" x2="37.8006" y2="64.7519" gradientUnits="userSpaceOnUse">
<stop offset="0.588542" stop-color="#FD7575"/>
<stop offset="1" stop-color="#E03131"/>
</linearGradient>
<linearGradient id="paint7_linear_121_7493" x1="37.8097" y1="76.6241" x2="37.8097" y2="92.4227" gradientUnits="userSpaceOnUse">
<stop offset="0.588542" stop-color="#FD7575"/>
<stop offset="1" stop-color="#E03131"/>
</linearGradient>
<linearGradient id="paint8_linear_121_7493" x1="37.8097" y1="55.8409" x2="37.8097" y2="72.8548" gradientUnits="userSpaceOnUse">
<stop offset="0.588542" stop-color="#FD7575"/>
<stop offset="1" stop-color="#E03131"/>
</linearGradient>
<linearGradient id="paint9_linear_121_7493" x1="37.8095" y1="61.0991" x2="37.8095" y2="84.1894" gradientUnits="userSpaceOnUse">
<stop offset="0.588542" stop-color="#FD7575"/>
<stop offset="1" stop-color="#E03131"/>
</linearGradient>
<linearGradient id="paint10_linear_121_7493" x1="97.2496" y1="-18.2616" x2="97.2496" y2="88.9122" gradientUnits="userSpaceOnUse">
<stop offset="0.588542" stop-color="#FD7575"/>
<stop offset="1" stop-color="#E03131"/>
</linearGradient>
<linearGradient id="paint11_linear_121_7493" x1="97.2453" y1="21.7476" x2="97.2453" y2="71.3021" gradientUnits="userSpaceOnUse">
<stop offset="0.588542" stop-color="#FD7575"/>
<stop offset="1" stop-color="#E03131"/>
</linearGradient>
<linearGradient id="paint12_linear_121_7493" x1="97.2498" y1="19.8514" x2="97.2498" y2="71.8254" gradientUnits="userSpaceOnUse">
<stop offset="0.588542" stop-color="#FD7575"/>
<stop offset="1" stop-color="#E03131"/>
</linearGradient>
<linearGradient id="paint13_linear_121_7493" x1="97.2498" y1="19.8514" x2="97.2498" y2="71.8254" gradientUnits="userSpaceOnUse">
<stop offset="0.588542" stop-color="#FD7575"/>
<stop offset="1" stop-color="#E03131"/>
</linearGradient>
<linearGradient id="paint14_linear_121_7493" x1="95.634" y1="0.366004" x2="95.634" y2="25.4581" gradientUnits="userSpaceOnUse">
<stop offset="0.588542" stop-color="#FD7575"/>
<stop offset="1" stop-color="#E03131"/>
</linearGradient>
<linearGradient id="paint15_linear_121_7493" x1="95.0623" y1="-11.4779" x2="95.0623" y2="9.77993" gradientUnits="userSpaceOnUse">
<stop offset="0.588542" stop-color="#FD7575"/>
<stop offset="1" stop-color="#E03131"/>
</linearGradient>
<linearGradient id="paint16_linear_121_7493" x1="-nan" y1="-nan" x2="-nan" y2="-nan" gradientUnits="userSpaceOnUse">
<stop offset="0.588542" stop-color="#FD7575"/>
<stop offset="1" stop-color="#E03131"/>
</linearGradient>
<linearGradient id="paint17_linear_121_7493" x1="-nan" y1="-nan" x2="-nan" y2="-nan" gradientUnits="userSpaceOnUse">
<stop offset="0.588542" stop-color="#FD7575"/>
<stop offset="1" stop-color="#E03131"/>
</linearGradient>
<linearGradient id="paint18_linear_121_7493" x1="-nan" y1="-nan" x2="-nan" y2="-nan" gradientUnits="userSpaceOnUse">
<stop offset="0.588542" stop-color="#FD7575"/>
<stop offset="1" stop-color="#E03131"/>
</linearGradient>
<linearGradient id="paint19_linear_121_7493" x1="116.355" y1="21.6032" x2="116.355" y2="30.6905" gradientUnits="userSpaceOnUse">
<stop offset="0.588542" stop-color="#FD7575"/>
<stop offset="1" stop-color="#E03131"/>
</linearGradient>
</defs>
</svg>
