<svg width="63" height="63" viewBox="0 0 63 63" fill="none" xmlns="http://www.w3.org/2000/svg">
<path d="M52.2674 8.29754C46.6668 3.1108 39.3036 0 31.1102 0C22.9169 0 15.5537 3.11288 9.95312 8.29754H52.2653" fill="#F9F9F9"/>
<path d="M9.95508 53.9375C15.5557 59.1242 22.9188 62.2371 31.1122 62.2371C39.3055 62.2371 46.6687 59.1242 52.2693 53.9375H9.95717" fill="#F9F9F9"/>
<path d="M0 31.1192C0 35.5799 0.932376 39.7297 2.59274 43.5666H59.6312C61.2895 39.7276 62.224 35.5799 62.224 31.1192C62.224 26.6585 61.2916 22.5087 59.6312 18.6719H2.59274C0.934462 22.5108 0 26.6585 0 31.1192Z" fill="#F9F9F9"/>
<path d="M10.0611 53.9399H52.2711C55.3832 51.0356 57.9759 47.5076 59.6342 43.5664H2.5957C4.35827 47.5076 6.95104 51.0356 10.0632 53.9399" fill="#428BC1"/>
<path d="M52.2685 8.29688H10.0585C6.94635 11.2011 4.35359 14.7292 2.69531 18.6704H59.7338C57.9713 14.7292 55.3785 11.2011 52.2664 8.29688" fill="#428BC1"/>
<path d="M40.446 25.9328H34.2238L31.1117 20.7461L27.9996 25.9328H21.7773L24.8895 31.1196L21.7773 36.3063H27.9996L31.1117 41.4931L34.2238 36.3063H40.446L37.3339 31.1196L40.446 25.9328ZM31.1117 23.7547L32.4592 25.9328H29.8664L31.1117 23.7547ZM24.5787 27.4893H27.1715L25.9262 29.6675L24.5787 27.4893ZM24.5787 34.7499L25.824 32.5717L27.0693 34.7499H24.5808H24.5787ZM31.1138 38.4845L29.8685 36.3063H32.4613L31.1138 38.4845ZM33.3958 34.7499H29.0404L26.7585 31.1196L28.9361 27.4893H33.2915L35.5734 31.1196L33.3958 34.7499ZM37.7511 34.7499H35.1583L36.4036 32.5717L37.7511 34.7499ZM36.5058 29.5631L35.2605 27.385H37.8533L36.5058 29.5631Z" fill="#428BC1"/>
</svg>
