<svg width="64" height="63" viewBox="0 0 64 63" fill="none" xmlns="http://www.w3.org/2000/svg">
<path d="M32.0079 0C18.5268 0 7.01484 8.71273 2.76172 20.747H61.4606C57.1053 8.71481 45.5932 0 32.0079 0V0Z" fill="#F2B200"/>
<path d="M32.0079 62.2392C45.5932 62.2392 57.1053 53.6287 61.3563 41.4922H2.76172C7.01275 53.6287 18.5247 62.2392 32.0079 62.2392Z" fill="#83BF4F"/>
<path d="M2.76257 20.7461C1.6216 23.9612 1 27.4893 1 31.1196C1 34.7499 1.6216 38.278 2.76257 41.4931H61.4614C62.6024 38.278 63.224 34.7499 63.224 31.1196C63.224 27.4893 62.6024 23.9612 61.4614 20.7461H2.76257" fill="white"/>
<path d="M32.0086 39.4196C36.5912 39.4196 40.3062 35.7037 40.3062 31.1199C40.3062 26.5362 36.5912 22.8203 32.0086 22.8203C27.4259 22.8203 23.7109 26.5362 23.7109 31.1199C23.7109 35.7037 27.4259 39.4196 32.0086 39.4196Z" fill="#428BC1"/>
<path d="M32.0089 38.3806C36.0178 38.3806 39.2677 35.1299 39.2677 31.12C39.2677 27.1101 36.0178 23.8594 32.0089 23.8594C27.9999 23.8594 24.75 27.1101 24.75 31.12C24.75 35.1299 27.9999 38.3806 32.0089 38.3806Z" fill="white"/>
<path d="M29.3124 23.8594C29.5981 23.8594 29.8317 24.091 29.8317 24.3789C29.8317 24.6668 29.6002 24.8984 29.3124 24.8984C29.0245 24.8984 28.793 24.6668 28.793 24.3789C28.793 24.091 29.0245 23.8594 29.3124 23.8594Z" fill="#428BC1"/>
<path d="M27.6522 24.7891C27.938 24.7891 28.1716 25.0206 28.1716 25.3086C28.1716 25.5965 27.94 25.8281 27.6522 25.8281C27.3643 25.8281 27.1328 25.5965 27.1328 25.3086C27.1328 25.0206 27.3643 24.7891 27.6522 24.7891Z" fill="#428BC1"/>
<path d="M26.3045 26.1406C26.5903 26.1406 26.8239 26.3722 26.8239 26.6601C26.8239 26.9481 26.5924 27.1797 26.3045 27.1797C26.0167 27.1797 25.7852 26.9481 25.7852 26.6601C25.7852 26.3722 26.0167 26.1406 26.3045 26.1406Z" fill="#428BC1"/>
<path d="M25.3709 27.8008C25.6567 27.8008 25.8903 28.0324 25.8903 28.3203C25.8903 28.6082 25.6588 28.8398 25.3709 28.8398C25.0831 28.8398 24.8516 28.6082 24.8516 28.3203C24.8516 28.0324 25.0831 27.8008 25.3709 27.8008Z" fill="#428BC1"/>
<path d="M24.8514 29.668C25.1372 29.668 25.3708 29.8996 25.3708 30.1875C25.3708 30.4754 25.1393 30.707 24.8514 30.707C24.5636 30.707 24.332 30.4754 24.332 30.1875C24.332 29.8996 24.5636 29.668 24.8514 29.668Z" fill="#428BC1"/>
<path d="M24.8514 31.5352C25.1372 31.5352 25.3708 31.7667 25.3708 32.0547C25.3708 32.3426 25.1393 32.5742 24.8514 32.5742C24.5636 32.5742 24.332 32.3426 24.332 32.0547C24.332 31.7667 24.5636 31.5352 24.8514 31.5352Z" fill="#428BC1"/>
<path d="M25.3709 33.4023C25.6567 33.4023 25.8903 33.6339 25.8903 33.9219C25.8903 34.2098 25.6588 34.4414 25.3709 34.4414C25.0831 34.4414 24.8516 34.2098 24.8516 33.9219C24.8516 33.6339 25.0831 33.4023 25.3709 33.4023Z" fill="#428BC1"/>
<path d="M26.3045 35.0625C26.5903 35.0625 26.8239 35.2941 26.8239 35.582C26.8239 35.8699 26.5924 36.1015 26.3045 36.1015C26.0167 36.1015 25.7852 35.8699 25.7852 35.582C25.7852 35.2941 26.0167 35.0625 26.3045 35.0625Z" fill="#428BC1"/>
<path d="M27.6522 36.4102C27.938 36.4102 28.1716 36.6417 28.1716 36.9297C28.1716 37.2176 27.94 37.4492 27.6522 37.4492C27.3643 37.4492 27.1328 37.2176 27.1328 36.9297C27.1328 36.6417 27.3643 36.4102 27.6522 36.4102Z" fill="#428BC1"/>
<path d="M29.3124 37.3438C29.5981 37.3438 29.8317 37.5753 29.8317 37.8633C29.8317 38.1512 29.6002 38.3828 29.3124 38.3828C29.0245 38.3828 28.793 38.1512 28.793 37.8633C28.793 37.5753 29.0245 37.3438 29.3124 37.3438Z" fill="#428BC1"/>
<path d="M31.0741 37.7578C31.3598 37.7578 31.5935 37.9894 31.5935 38.2773C31.5935 38.5653 31.3619 38.7968 31.0741 38.7968C30.7862 38.7968 30.5547 38.5653 30.5547 38.2773C30.5547 37.9894 30.7862 37.7578 31.0741 37.7578Z" fill="#428BC1"/>
<path d="M32.5254 38.3796C32.5254 38.0687 32.7319 37.86 32.9405 37.7578C33.2513 37.7578 33.4599 37.9644 33.5621 38.173C33.5621 38.4839 33.3556 38.6925 33.147 38.7948C32.7319 38.8991 32.5254 38.6904 32.5254 38.3796Z" fill="#428BC1"/>
<path d="M34.8084 37.3438C35.0942 37.3438 35.3278 37.5753 35.3278 37.8633C35.3278 38.1512 35.0963 38.3828 34.8084 38.3828C34.5206 38.3828 34.2891 38.1512 34.2891 37.8633C34.2891 37.5753 34.5206 37.3438 34.8084 37.3438Z" fill="#428BC1"/>
<path d="M36.4666 36.4102C36.7524 36.4102 36.986 36.6417 36.986 36.9297C36.986 37.2176 36.7545 37.4492 36.4666 37.4492C36.1788 37.4492 35.9473 37.2176 35.9473 36.9297C35.9473 36.6417 36.1788 36.4102 36.4666 36.4102Z" fill="#428BC1"/>
<path d="M37.8163 35.0625C38.102 35.0625 38.3356 35.2941 38.3356 35.582C38.3356 35.8699 38.1041 36.1015 37.8163 36.1015C37.5284 36.1015 37.2969 35.8699 37.2969 35.582C37.2969 35.2941 37.5284 35.0625 37.8163 35.0625Z" fill="#428BC1"/>
<path d="M38.7479 33.4023C39.0337 33.4023 39.2673 33.6339 39.2673 33.9219C39.2673 34.2098 39.0358 34.4414 38.7479 34.4414C38.46 34.4414 38.2285 34.2098 38.2285 33.9219C38.2285 33.6339 38.46 33.4023 38.7479 33.4023Z" fill="#428BC1"/>
<path d="M39.2674 32.5742C39.5543 32.5742 39.7868 32.3416 39.7868 32.0547C39.7868 31.7677 39.5543 31.5352 39.2674 31.5352C38.9806 31.5352 38.748 31.7677 38.748 32.0547C38.748 32.3416 38.9806 32.5742 39.2674 32.5742Z" fill="#428BC1"/>
<path d="M39.2681 30.7049C38.9573 30.7049 38.7487 30.4983 38.6465 30.2897C38.6465 29.9788 38.853 29.7702 39.0616 29.668C39.3724 29.668 39.581 29.8745 39.6832 30.0832C39.7875 30.394 39.5789 30.6027 39.2681 30.7049Z" fill="#428BC1"/>
<path d="M38.7479 27.8008C39.0337 27.8008 39.2673 28.0324 39.2673 28.3203C39.2673 28.6082 39.0358 28.8398 38.7479 28.8398C38.46 28.8398 38.2285 28.6082 38.2285 28.3203C38.2285 28.0324 38.46 27.8008 38.7479 27.8008Z" fill="#428BC1"/>
<path d="M37.8163 26.1406C38.102 26.1406 38.3356 26.3722 38.3356 26.6601C38.3356 26.9481 38.1041 27.1797 37.8163 27.1797C37.5284 27.1797 37.2969 26.9481 37.2969 26.6601C37.2969 26.3722 37.5284 26.1406 37.8163 26.1406Z" fill="#428BC1"/>
<path d="M36.4666 24.7891C36.7524 24.7891 36.986 25.0206 36.986 25.3086C36.986 25.5965 36.7545 25.8281 36.4666 25.8281C36.1788 25.8281 35.9473 25.5965 35.9473 25.3086C35.9473 25.0206 36.1788 24.7891 36.4666 24.7891Z" fill="#428BC1"/>
<path d="M35.3278 24.5855C35.2235 24.8964 34.9127 25.0007 34.6019 24.8964C34.2911 24.7921 34.1868 24.4812 34.2911 24.1703C34.3954 23.8595 34.7062 23.7551 35.017 23.8595C35.3278 24.066 35.4321 24.379 35.3278 24.5855Z" fill="#428BC1"/>
<path d="M33.4603 23.9614C33.4603 24.2723 33.1495 24.4809 32.8387 24.3766C32.5279 24.3766 32.3193 24.0657 32.4236 23.7548C32.4236 23.444 32.7344 23.2353 33.0452 23.3396C33.356 23.444 33.5646 23.7548 33.4603 23.9614Z" fill="#428BC1"/>
<path d="M31.5933 23.8564C31.5933 24.1673 31.3868 24.3759 31.1782 24.4781C30.8674 24.4781 30.6588 24.2716 30.5566 24.0629C30.5566 23.7521 30.7631 23.5434 30.9717 23.4412C31.2825 23.3369 31.5933 23.5455 31.5933 23.8564Z" fill="#428BC1"/>
<path d="M32.0092 32.6754C32.8686 32.6754 33.5653 31.9785 33.5653 31.1189C33.5653 30.2593 32.8686 29.5625 32.0092 29.5625C31.1498 29.5625 30.4531 30.2593 30.4531 31.1189C30.4531 31.9785 31.1498 32.6754 32.0092 32.6754Z" fill="#428BC1"/>
<path d="M32.0092 23.8594L31.8027 28.3201L32.0092 31.12L32.32 28.3201L32.0092 23.8594Z" fill="#428BC1"/>
<path d="M30.1427 24.0625L31.0751 28.5232L32.0075 31.1166L31.5924 28.3166L30.1406 24.0646L30.1427 24.0625Z" fill="#428BC1"/>
<path d="M28.377 24.7891L30.4503 28.8346L32.0064 31.1171L30.8654 28.5237L28.377 24.7891V24.7891Z" fill="#428BC1"/>
<path d="M26.9258 25.9297L29.9336 29.3534L32.007 31.1164L30.2444 28.9383L26.9258 25.9297Z" fill="#428BC1"/>
<path d="M25.7852 27.4883L29.5189 29.9773L32.0073 31.1186L29.7254 29.4599L25.7852 27.4883V27.4883Z" fill="#428BC1"/>
<path d="M25.0586 29.25L29.3096 30.5978L32.0067 31.1173L29.4139 30.1847L25.0586 29.2521V29.25Z" fill="#428BC1"/>
<path d="M24.748 31.1167L29.312 31.3233L32.009 31.1167L29.312 30.9102L24.748 31.1167Z" fill="#428BC1"/>
<path d="M25.0586 32.9863L29.4139 32.0537L32.0067 31.1211L29.3096 31.6406L25.0586 32.9884V32.9863Z" fill="#428BC1"/>
<path d="M25.7852 34.7496L29.7254 32.7779L32.0073 31.1172L29.5189 32.2584L25.7852 34.7475V34.7496Z" fill="#428BC1"/>
<path d="M26.9258 36.1996L30.2444 33.2954L32.007 31.1172L29.9336 32.8802L26.9258 36.1996Z" fill="#428BC1"/>
<path d="M28.377 37.4452L30.8654 33.6062L32.0064 31.1172L30.4503 33.3997L28.377 37.4452V37.4452Z" fill="#428BC1"/>
<path d="M30.1426 38.1731L31.5943 33.921L32.0094 31.1211L31.077 33.7145L30.1447 38.1751L30.1426 38.1731Z" fill="#428BC1"/>
<path d="M32.0092 38.3817L32.32 33.921L32.0092 31.1211L31.8027 33.921L32.0092 38.3817Z" fill="#428BC1"/>
<path d="M33.8747 38.1712L33.0445 33.7106L32.0078 31.1172L32.5272 33.9171L33.8747 38.1692V38.1712Z" fill="#428BC1"/>
<path d="M35.6374 37.4452L33.6662 33.3997L32.0059 31.1172L33.2512 33.7106L35.6374 37.4452V37.4452Z" fill="#428BC1"/>
<path d="M37.1933 36.1996L34.1855 32.8802L32.0078 31.1172L33.8747 33.2954L37.1933 36.1996Z" fill="#428BC1"/>
<path d="M38.3324 34.7475L34.5986 32.2584L32.0059 31.1172L34.2878 32.7779L38.3324 34.7496V34.7475Z" fill="#428BC1"/>
<path d="M39.0581 32.9845L34.8071 31.6367L32.0078 31.1172L34.7049 32.0498L39.0602 32.9824L39.0581 32.9845Z" fill="#428BC1"/>
<path d="M39.2667 31.1195L34.8071 30.8086L32.0078 31.1195L34.8071 31.326L39.2667 31.1195Z" fill="#428BC1"/>
<path d="M39.0582 29.2521L34.7029 30.1847L32.0059 31.1173L34.8051 30.5978L39.0562 29.25L39.0582 29.2521Z" fill="#428BC1"/>
<path d="M38.3324 27.4883L34.2878 29.4599L32.0059 31.1186L34.5986 29.9773L38.3324 27.4883V27.4883Z" fill="#428BC1"/>
<path d="M37.1933 26.0352L33.8747 28.9394L32.0078 31.1176L34.1855 29.3546L37.1933 26.0352Z" fill="#428BC1"/>
<path d="M35.6374 24.7891L33.2512 28.628L32.0059 31.1171L33.6662 28.8346L35.6374 24.7891V24.7891Z" fill="#428BC1"/>
<path d="M33.977 24.0646L32.5253 28.3166L32.0059 31.1166L33.0426 28.5232L33.9749 24.0625L33.977 24.0646Z" fill="#428BC1"/>
</svg>
