<svg width="63" height="63" viewBox="0 0 63 63" fill="none" xmlns="http://www.w3.org/2000/svg">
<path d="M31.1101 0C17.5247 0 6.01275 8.61049 1.76172 20.747H60.4606C56.2095 8.61049 44.6975 0 31.1122 0H31.1101Z" fill="#83BF4F"/>
<path d="M31.1102 62.2392C44.6956 62.2392 56.2076 53.6287 60.4586 41.4922H1.75977C6.0108 53.6287 17.5228 62.2392 31.1081 62.2392H31.1102Z" fill="#ED4C5C"/>
<path d="M1.76259 20.7461C0.621609 23.9612 0 27.4893 0 31.1196C0 34.7499 0.621609 38.278 1.76259 41.4931H60.4614C61.6024 38.278 62.224 34.7499 62.224 31.1196C62.224 27.4893 61.6024 23.9612 60.4614 20.7461H1.76259V20.7461Z" fill="#F9F9F9"/>
<path d="M59.5276 43.8789L59.2168 44.5006H59.5276V43.8789Z" fill="white"/>
<path d="M3.00611 44.5006L2.69531 43.8789V44.5006H3.00611Z" fill="white"/>
<path d="M3.73174 17.4258H3.21236C3.10807 17.5301 3.00586 17.6323 3.00586 17.7366H3.73174V17.4258Z" fill="white"/>
<path d="M3.73197 19.7071V19.3963H2.69529V18.7745H4.25135V19.7071H6.53332V17.3203H6.22253V19.2919H5.60091V17.3203H5.29012V19.2919H4.66853V17.3203H4.35773V18.3572H2.69947C2.59517 18.5638 2.49297 18.8767 2.38867 19.0833V19.705H3.73614" fill="white"/>
<path d="M3.73174 44.5H3.00586C3.00586 44.6043 3.11015 44.7065 3.21236 44.8109H3.83395L3.72965 44.5" fill="white"/>
<path d="M2.69582 43.88H4.25188V44.8126H6.53385V42.4258H6.22306V44.3974H5.60144V42.4258H5.29065V44.3974H4.66906V42.4258H4.35826V43.4627H2.5957C2.5957 43.6693 2.7 43.7736 2.7 43.8779" fill="white"/>
<path d="M3.73184 42.5273H2.17578C2.17578 42.6317 2.28008 42.7339 2.28008 42.8382H3.73184V42.5273Z" fill="white"/>
<path d="M12.0293 19.7071H13.4811V19.3963H12.4444V18.7745H14.0004V19.7071H16.2824V17.3203H15.9716V19.3942H15.35V17.3203H14.9349V19.3942H14.3133V17.3203H14.0025V18.3572H12.0314V19.705L12.0293 19.7071Z" fill="white"/>
<path d="M11.4047 19.7072V18.3594H10.0572V18.7746H11.0939V19.3963H9.5378V18.3594H7.25586V19.8115H7.56665V18.7746H9.12272V19.7072H11.4047Z" fill="white"/>
<path d="M8.08789 19.3984H8.60727V19.7093H8.08789V19.3984Z" fill="white"/>
<path d="M7.1543 17.4258H13.4808V17.7366H7.1543V17.4258Z" fill="white"/>
<path d="M10.0572 43.88H11.0939V44.5018H9.5378V43.4648H7.25586V44.917H7.56665V43.88H9.12272V44.8126H11.4047V43.4648H10.0572V43.88Z" fill="white"/>
<path d="M8.08789 44.5H8.60727V44.8109H8.08789V44.5Z" fill="white"/>
<path d="M7.1543 42.5273H13.4808V42.8382H7.1543V42.5273Z" fill="white"/>
<path d="M15.9695 44.5017H15.3479V42.4279H14.9328V44.5017H14.3112V42.4279H14.0004V43.4648H12.0293V44.8126H13.4811V44.5017H12.4444V43.88H14.0004V44.8126H16.2824V42.4258H15.9716V44.4996L15.9695 44.5017Z" fill="white"/>
<path d="M21.7773 19.7071H23.1248V19.3963H22.0881V18.7745H23.6442V19.7071H25.9261V17.3203H25.6153V19.3942H24.9938V17.3203H24.683V19.3942H24.0614V17.3203H23.6463V18.3572H21.7794V19.705L21.7773 19.7071Z" fill="white"/>
<path d="M21.1554 19.7072V18.3594H19.7037V18.7746H20.7403V19.3963H19.1843V18.3594H16.9023V19.8115H17.2131V18.7746H18.8714V19.7072H21.1534H21.1554Z" fill="white"/>
<path d="M16.7988 17.4258H23.1253V17.7366H16.7988V17.4258Z" fill="white"/>
<path d="M17.8359 19.3984H18.3553V19.7093H17.8359V19.3984Z" fill="white"/>
<path d="M25.6152 44.5017H24.9936V42.4279H24.6828V44.5017H24.0612V42.4279H23.6462V43.4648H21.7793V44.8126H23.1268V44.5017H22.0901V43.88H23.6462V44.8126H25.9281V42.4258H25.6173V44.4996L25.6152 44.5017Z" fill="white"/>
<path d="M17.8359 44.5H18.3553V44.8109H17.8359V44.5Z" fill="white"/>
<path d="M16.7988 42.5273H23.1253V42.8382H16.7988V42.5273Z" fill="white"/>
<path d="M19.7037 43.88H20.7403V44.5018H19.1843V43.4648H16.9023V44.917H17.2131V43.88H18.8714V44.8126H21.1534V43.4648H19.7016V43.88H19.7037Z" fill="white"/>
<path d="M30.8 19.7072V18.3594H29.4525V18.7746H30.4892V19.3963H28.8288V18.3594H26.5469V19.8115H26.962V18.7746H28.518V19.7072H30.8V19.7072Z" fill="white"/>
<path d="M26.5469 17.4258H32.8733V17.7366H26.5469V17.4258Z" fill="white"/>
<path d="M27.4824 19.3984H28.0018V19.7093H27.4824V19.3984Z" fill="white"/>
<path d="M31.4219 19.7071H32.7693V19.3963H31.7327V18.7745H33.3909V19.7071H35.6729V17.3203H35.2578V19.3942H34.6362V17.3203H34.3254V19.3942H33.7038V17.3203H33.393V18.3572H31.4219V19.705V19.7071Z" fill="white"/>
<path d="M26.5469 42.5273H32.8733V42.8382H26.5469V42.5273Z" fill="white"/>
<path d="M29.4505 43.88H30.4872V44.5018H28.8269V43.4648H26.5449V44.917H26.96V43.88H28.5161V44.8126H30.798V43.4648H29.4505V43.88V43.88Z" fill="white"/>
<path d="M27.4824 44.5H28.0018V44.8109H27.4824V44.5Z" fill="white"/>
<path d="M35.2597 44.5017H34.6382V42.4279H34.3274V44.5017H33.7058V42.4279H33.395V43.4648H31.4238V44.8126H32.7713V44.5017H31.7346V43.88H33.3929V44.8126H35.6749V42.4258H35.2597V44.4996V44.5017Z" fill="white"/>
<path d="M37.127 19.3984H37.6463V19.7093H37.127V19.3984Z" fill="white"/>
<path d="M36.1914 17.4258H42.5179V17.7366H36.1914V17.4258Z" fill="white"/>
<path d="M41.0664 19.7071H42.5182V19.3963H41.4815V18.7745H43.0376V19.7071H45.3196V17.3203H45.0088V19.3942H44.3871V17.3203H43.972V19.3942H43.3504V17.3203H43.0396V18.3572H41.0685V19.705L41.0664 19.7071Z" fill="white"/>
<path d="M40.4457 19.7072V18.3594H39.0982V18.7746H40.1349V19.3963H38.5788V18.3594H36.2969V19.8115H36.6077V18.7746H38.1637V19.7072H40.4457V19.7072Z" fill="white"/>
<path d="M36.1914 42.5273H42.5179V42.8382H36.1914V42.5273Z" fill="white"/>
<path d="M45.0067 44.5017H44.385V42.4279H43.9699V44.5017H43.3484V42.4279H43.0376V43.4648H41.0664V44.8126H42.5182V44.5017H41.4815V43.88H43.0376V44.8126H45.3196V42.4258H45.0088V44.4996L45.0067 44.5017Z" fill="white"/>
<path d="M39.0962 43.88H40.1329V44.5018H38.5769V43.4648H36.2949V44.917H36.6057V43.88H38.1618V44.8126H40.4437V43.4648H39.0962V43.88V43.88Z" fill="white"/>
<path d="M37.127 44.5H37.6463V44.8109H37.127V44.5Z" fill="white"/>
<path d="M50.1925 19.7072V18.3594H48.7408V18.7746H49.7775V19.3963H48.2214V18.3594H45.9395V19.8115H46.2502V18.7746H47.9085V19.7072H50.1905H50.1925Z" fill="white"/>
<path d="M46.873 19.3984H47.3924V19.7093H46.873V19.3984Z" fill="white"/>
<path d="M45.8379 17.4258H52.1643V17.7366H45.8379V17.4258Z" fill="white"/>
<path d="M50.8164 19.7071H52.1639V19.3963H51.1272V18.7745H52.6833V19.7071H54.9653V17.3203H54.6545V19.3942H54.0328V17.3203H53.722V19.3942H53.1004V17.3203H52.6853V18.3572H50.8185V19.705L50.8164 19.7071Z" fill="white"/>
<path d="M46.873 44.5H47.3924V44.8109H46.873V44.5Z" fill="white"/>
<path d="M48.7408 43.88H49.7775V44.5018H48.2214V43.4648H45.9395V44.917H46.2502V43.88H47.9085V44.8126H50.1905V43.4648H48.7387V43.88H48.7408Z" fill="white"/>
<path d="M45.8379 42.5273H52.1643V42.8382H45.8379V42.5273Z" fill="white"/>
<path d="M54.6524 44.5017H54.0308V42.4279H53.7199V44.5017H53.0984V42.4279H52.6833V43.4648H50.8164V44.8126H52.1639V44.5017H51.1272V43.88H52.6833V44.8126H54.9653V42.4258H54.6545V44.4996L54.6524 44.5017Z" fill="white"/>
<path d="M55.5866 17.7366H59.216C59.1117 17.6323 59.1117 17.5301 59.0095 17.4258H55.4844C55.5887 17.4258 55.5887 17.7366 55.5887 17.7366" fill="white"/>
<path d="M58.4908 18.7739H59.5275V19.3956H57.9714V18.463H55.6895V19.8108H56.0002V18.7739H57.5563V19.7065H59.8383V19.187C59.734 18.9804 59.6318 18.6675 59.5275 18.4609H58.4908V18.7718" fill="white"/>
<path d="M56.5195 19.3984H57.0389V19.7093H56.5195V19.3984Z" fill="white"/>
<path d="M56.5195 44.5H57.0389V44.8109H56.5195V44.5Z" fill="white"/>
<path d="M55.5859 42.5273V42.8382H59.9412C59.9412 42.7339 60.0455 42.6317 60.0455 42.5273H55.5859Z" fill="white"/>
<path d="M58.4904 43.88H59.527C59.6313 43.7757 59.6313 43.6735 59.7335 43.4648H58.4883V43.88" fill="white"/>
<path d="M57.8659 44.499V43.5664H55.584V44.9142H55.9991V43.8773H57.5551V44.8099H59.0069C59.1112 44.7056 59.1112 44.6033 59.2134 44.499H57.8659" fill="white"/>
<path d="M35.7779 33.0882C36.7103 30.3905 35.7779 27.382 33.7045 25.5168C36.0908 29.0427 35.1563 33.7121 31.8377 36.2011L32.0442 30.3926V25.8276C31.6291 25.6211 31.3183 25.4124 31.1118 25.1016C30.9053 25.4124 30.5924 25.7233 30.1794 25.8276V30.3926L30.3859 36.2011C26.963 33.7121 26.1349 29.0427 28.519 25.5168C26.3414 27.3841 25.5112 30.3926 26.4457 33.0882C27.0673 34.9555 28.3125 36.3033 29.8686 37.1337C28.9362 37.4446 27.8975 37.6532 26.8608 37.6532C28.106 38.0684 29.3492 38.0684 30.4902 37.8598V38.0663L31.1118 38.8967L31.7334 38.0663V37.8598C32.8743 38.0663 34.1196 38.0663 35.3628 37.6532C34.3261 37.6532 33.2894 37.5489 32.355 37.1337C33.911 36.3033 35.1542 34.8512 35.7779 33.0882Z" fill="#ED4C5C"/>
<path d="M38.0599 28.1085C37.2298 26.7607 35.8822 25.7217 34.3262 25.3086C37.7491 27.902 38.475 32.7778 35.8823 36.1995C38.7858 34.6431 39.7203 31.0128 38.0599 28.1085" fill="#ED4C5C"/>
<path d="M27.7923 25.3086C26.2362 25.7238 24.8887 26.6564 24.0585 28.1085C22.4003 30.9084 23.437 34.5408 26.2362 36.1995C23.7478 32.7758 24.3694 27.902 27.7923 25.3086" fill="#ED4C5C"/>
<path d="M29.5547 24.8947C30.074 25.2056 30.7999 25.1012 31.1107 24.5838C31.4215 25.1033 32.1474 25.2056 32.6668 24.8947C33.0819 24.5838 33.2884 24.0643 33.0819 23.5469C32.9776 24.1686 32.4603 24.4795 31.8366 24.3773C31.5258 24.2729 31.3172 24.1707 31.1107 23.8577C31.0064 24.1686 30.6956 24.2729 30.3848 24.3773C29.7632 24.4816 29.2439 24.0664 29.1396 23.5469C28.9331 24.0664 29.1396 24.5838 29.5547 24.8947Z" fill="#ED4C5C"/>
</svg>
