<svg width="63" height="63" viewBox="0 0 63 63" fill="none" xmlns="http://www.w3.org/2000/svg">
<path d="M6.22266 20.747H60.4618C56.2108 8.71481 44.6989 0 31.1135 0C20.9511 0 11.9276 4.87588 6.22474 12.4474V20.7449L6.22266 20.747Z" fill="#3E4347"/>
<path d="M60.4618 20.7461H6.22266V41.4931H60.4618C61.6028 38.278 62.2245 34.7499 62.2245 31.1196C62.2245 27.4893 61.6028 23.9612 60.4618 20.7461Z" fill="#F9F9F9"/>
<path d="M6.22279 41.4943V49.7918C11.9277 57.3633 20.9491 62.2392 31.1115 62.2392C44.6969 62.2392 56.2089 53.6287 60.4599 41.4922H6.2207L6.22279 41.4943Z" fill="#75A843"/>
<path d="M6.22221 12.4492C2.28197 17.636 0 24.0683 0 31.1202C0 38.1722 2.28197 44.6045 6.22221 49.7913L31.1109 31.1202L6.22221 12.4492" fill="#C94747"/>
<path d="M9.33226 28.7374L10.3689 25.9375L11.4057 28.7374L13.9984 27.4919L12.7531 30.0852L15.5524 31.1222L12.7531 32.1591L13.9984 34.7525L11.4057 33.5069L10.3689 36.3068L9.33226 33.5069L6.73952 34.7525L7.98479 32.1591L5.18555 31.1222L7.98479 30.0852L6.73952 27.4919L9.33226 28.7374Z" fill="white"/>
</svg>
