<svg width="63" height="63" viewBox="0 0 63 63" fill="none" xmlns="http://www.w3.org/2000/svg">
<mask id="mask0_122_8902" style="mask-type:alpha" maskUnits="userSpaceOnUse" x="0" y="0" width="63" height="63">
<rect width="63" height="63" fill="#D9D9D9"/>
</mask>
<g mask="url(#mask0_122_8902)">
<path d="M54.0007 53.0162C66.1511 40.8629 66.1511 21.1585 54.0007 9.00524C41.8503 -3.14805 22.1506 -3.14804 10.0002 9.00525C-2.15015 21.1585 -2.15016 40.8629 10.0002 53.0162C22.1506 65.1695 41.8503 65.1695 54.0007 53.0162Z" fill="#F42F4C"/>
<path d="M50.3587 33.3964C49.0112 32.2551 46.6249 32.4638 44.9667 32.566C46.8335 31.6334 49.7371 29.7661 51.7082 31.4248C50.2564 29.4531 47.0421 30.077 45.0709 30.4921C46.7292 29.2466 49.322 27.0684 51.5017 28.314C49.7391 26.551 46.627 27.6922 44.7601 28.5205C46.2119 27.0684 48.3896 24.475 50.7758 25.3054C48.8047 23.8533 45.9011 25.4097 44.1385 26.551C45.2795 24.8902 47.1464 21.986 49.6349 22.5055C47.4572 21.3642 44.8644 23.4381 43.3084 24.6837C44.2407 22.8164 45.486 19.7035 48.0788 19.8078C45.6925 19.0817 43.5149 21.4686 42.1674 23.0229C42.789 21.0513 43.5149 17.7318 46.1076 17.421C43.7214 17.0058 41.8566 19.7035 40.8178 21.4665C41.1286 19.3926 41.3372 15.9689 43.8257 15.3471C41.3372 15.3471 39.9876 18.3557 39.1595 20.223C39.1595 18.1491 38.8488 14.7254 41.2329 13.6885C38.8467 14.1036 37.9143 17.2144 37.3949 19.1861C37.0841 17.1122 36.2539 13.7928 38.3273 12.4429C35.941 13.1689 35.6302 16.4884 35.4237 18.46C34.8021 16.4884 33.4526 13.3776 35.3194 11.6146C33.1418 12.7558 33.2461 15.9709 33.3483 18.0469C32.4159 16.1796 30.549 13.2753 32.2073 11.3037C30.2361 12.7558 30.8598 15.9709 31.2749 17.9426C30.0296 16.2839 27.852 13.6905 29.0972 11.5103C27.3347 13.2733 28.4756 16.2818 29.3037 18.2534C27.852 16.8013 25.2592 14.6231 26.0894 12.2363C24.6376 14.2079 26.1937 17.1122 27.3347 18.8752C25.6764 17.7339 22.7708 15.8666 23.2901 13.3776C22.1492 15.5557 24.2225 18.1491 25.5721 19.7056C23.7052 18.773 20.5952 17.5274 20.6974 14.934C19.9715 17.2165 22.3557 19.499 23.9117 20.8468C21.9406 20.2251 18.6219 19.499 18.3111 16.9056C17.896 19.2925 20.5931 21.1577 22.3557 22.1967C20.2823 21.8858 16.8593 21.6772 16.2378 19.1882C16.2378 21.6772 19.2456 23.0271 21.1125 23.8554C19.0391 23.8554 15.6162 24.1662 14.5795 21.7815C14.9946 24.1683 18.1046 25.1009 20.0758 25.6205C18.0024 25.9313 14.6838 26.7617 13.3342 24.6878C14.0601 27.0747 17.3787 27.3855 19.3499 27.5921C17.3787 28.2138 14.2687 29.5637 12.5061 27.6964C13.6471 29.8746 16.8614 29.7703 18.9369 29.668C17.07 30.6007 14.1665 32.468 12.1953 30.8093C13.6471 32.7809 16.8614 32.1571 18.8326 31.7419C17.1743 32.9875 14.5816 35.1657 12.4018 33.9201C14.1644 35.6831 17.1722 34.5418 19.1434 33.7135C17.6916 35.1657 15.514 37.759 13.1277 36.9286C15.0989 38.3807 18.0024 36.8243 19.765 35.6831C18.624 37.3417 16.7572 40.2481 14.2687 39.7286C16.4464 40.8698 19.0391 38.796 20.5952 37.4461C19.6628 39.3134 18.4175 42.4263 15.8248 42.3219C18.211 43.048 20.3887 40.6633 21.7362 39.1068C21.1146 41.0785 20.3887 44.3979 17.7959 44.7087C20.1822 45.1239 22.047 42.3219 23.0857 40.6633C22.7749 42.7371 22.5663 46.1609 20.0779 46.7826C22.5663 46.7826 23.9159 43.7741 24.744 41.9068C24.744 43.9806 25.0548 47.4044 22.6706 48.4413C25.0569 48.0261 25.9893 44.9153 26.5086 42.9437C26.8194 45.0175 27.6496 48.337 25.5763 49.6869C27.9625 48.9608 28.2733 45.6414 28.4798 43.6697C29.1014 45.6414 30.451 48.7521 28.5841 50.5151C30.7618 49.3739 30.6575 46.1588 30.5553 44.0828C31.4877 45.9501 33.3545 48.8544 31.6963 50.826C33.6674 49.3739 33.0437 46.1588 32.6286 44.1872C33.8739 45.8479 36.0516 48.4392 34.8063 50.6195C36.5689 48.8565 35.4279 45.8479 34.5998 43.8763C36.0516 45.3284 38.6443 47.5066 37.8141 49.8934C39.2659 47.9218 37.7099 45.0175 36.5689 43.2545C38.2272 44.3958 41.1328 46.2631 40.6134 48.7522C41.7544 46.574 39.681 43.9806 38.4357 42.4242C40.3026 43.3568 43.4127 44.6024 43.3104 47.1957C44.0363 44.8089 41.6501 42.6307 40.0961 41.2829C42.0673 41.9046 45.3859 42.6307 45.6967 45.2241C46.1118 42.735 43.3105 40.972 41.6522 39.933C43.7255 40.2439 47.0442 40.4525 47.7701 42.9416C47.7701 40.4525 44.7622 39.1027 42.8954 38.2744C44.9687 38.2744 48.3917 37.9635 49.4283 40.3482C49.0132 37.8592 45.9032 37.0288 43.932 36.5093C46.0054 36.1984 49.3241 35.368 50.6736 37.4419C49.9477 35.1594 46.6291 34.642 44.6579 34.5376C46.6291 33.8116 49.7391 32.566 51.5017 34.4333C51.1909 34.0181 50.7758 33.7073 50.3607 33.3964H50.3587ZM32.005 43.459C27.3388 43.459 22.9814 40.7613 20.9081 36.6136C18.7304 32.4638 19.2477 27.2771 22.0491 23.4402C24.8483 19.7056 29.6187 17.8383 34.2869 18.6686C38.8508 19.499 42.5825 22.9207 43.932 27.2791C46.3183 35.2658 40.1983 43.4611 32.005 43.4611" fill="#FFE62E"/>
<path d="M24.5363 23.749C22.6695 25.6163 21.6328 28.2097 21.6328 31.0096C21.6328 33.0835 22.2544 35.0551 23.2911 36.7159C24.1213 32.8769 25.8838 29.3509 28.1658 26.4467C27.1291 25.4098 25.8838 24.4751 24.5363 23.749" fill="#FFE62E"/>
<path d="M31.2744 23.123C30.4442 22.397 29.5118 21.7752 28.5773 21.1514C28.1622 21.2557 27.7471 21.4622 27.332 21.6709C28.3687 22.2926 29.4054 23.123 30.4442 23.8491C30.6507 23.7447 30.9636 23.4339 31.2744 23.123Z" fill="#FFE62E"/>
<path d="M29.7206 24.6788C28.6839 23.7462 27.5429 23.0201 26.2976 22.292C25.9868 22.4985 25.676 22.8115 25.3652 23.018C26.6105 23.7441 27.8537 24.5745 28.8904 25.6114C29.0969 25.3005 29.4098 24.9897 29.7206 24.6788Z" fill="#FFE62E"/>
<path d="M28.9958 27.0654C26.6096 30.1783 24.9513 33.8086 24.1211 37.7498C24.6405 38.2693 25.1578 38.7867 25.7794 39.3062C26.1945 35.1564 27.6462 31.3196 29.9282 28.1024C29.6174 27.6872 29.3066 27.3763 28.9958 27.0654" fill="#FFE62E"/>
<path d="M34.0762 28.1024C36.3581 31.3175 37.9142 35.1564 38.225 39.3062C38.8466 38.891 39.366 38.3736 39.8833 37.7498C39.1574 33.8086 37.3948 30.1783 35.0086 27.0654C34.6978 27.3763 34.387 27.6872 34.0762 28.1024" fill="#FFE62E"/>
<path d="M31.1738 28.1024C31.4846 28.5176 31.7954 28.8284 32.004 29.2436C32.3148 28.8284 32.5234 28.5176 32.8342 28.1024C32.5234 27.7915 32.3148 27.3763 32.004 27.0654C31.6932 27.3763 31.3824 27.6872 31.1738 28.1024Z" fill="#FFE62E"/>
<path d="M34.1815 20.8423C33.4556 20.738 32.7297 20.6357 32.0038 20.6357C31.278 20.6357 30.5521 20.7401 29.8262 20.8423C30.5521 21.3618 31.3823 21.8792 32.0038 22.503C32.7297 21.8813 33.4556 21.3618 34.1815 20.8423Z" fill="#FFE62E"/>
<path d="M31.4839 30.1782L30.5515 28.9326C28.3739 32.1477 26.9221 35.8823 26.6113 39.9278L28.4782 40.8605V40.5496C28.5825 36.7107 29.6192 33.1847 31.486 30.1761" fill="#FFE62E"/>
<path d="M32.0007 25.512L32.9331 24.5794C32.6223 24.2685 32.3115 23.9577 32.0007 23.749C31.6899 24.0599 31.3792 24.2685 31.0684 24.5794L32.0007 25.512Z" fill="#FFE62E"/>
<path d="M33.5567 27.2733C33.8675 26.9624 34.1783 26.5472 34.4891 26.2363C34.1783 25.9254 33.9697 25.6146 33.6589 25.3037L32.7266 26.2363C32.9331 26.6515 33.2459 26.9624 33.5567 27.2733Z" fill="#FFE62E"/>
<path d="M30.4474 25.4053C30.1366 25.7161 29.928 26.027 29.6172 26.3379C29.928 26.6488 30.2388 26.9596 30.5496 27.3748C30.8604 27.064 31.069 26.6488 31.3798 26.3379C31.069 25.9227 30.7582 25.6118 30.4474 25.4053Z" fill="#FFE62E"/>
<path d="M32.0002 31.1123C30.4441 33.9122 29.5117 37.1294 29.5117 40.4489V41.0706C30.3419 41.2772 31.17 41.3815 32.0002 41.3815C32.8304 41.3815 33.6585 41.2772 34.4886 41.0706V40.4489C34.4886 37.0251 33.5563 33.81 32.0002 31.1123Z" fill="#FFE62E"/>
<path d="M32.625 30.1761C34.4919 33.1847 35.5286 36.7106 35.5286 40.5496V40.8605C36.1502 40.6539 36.876 40.3409 37.3954 39.9278C37.0846 35.8823 35.7371 32.1477 33.4552 28.9326C33.1444 29.2435 32.8336 29.6587 32.625 30.1782" fill="#FFE62E"/>
<path d="M33.6622 23.9545C34.5946 23.1242 35.6334 22.3981 36.7744 21.7763C36.3593 21.5698 35.9442 21.3612 35.5291 21.2568C34.5967 21.8786 33.6622 22.5024 32.832 23.2285C33.0385 23.435 33.3514 23.748 33.6622 23.9545Z" fill="#FFE62E"/>
<path d="M40.7146 36.7159C41.7512 35.0572 42.3728 33.0856 42.3728 31.0096C42.3728 28.2097 41.2318 25.6163 39.4693 23.749C38.1218 24.4751 36.8765 25.3054 35.8398 26.3424C38.1218 29.3509 39.7801 32.8769 40.7146 36.7159" fill="#FFE62E"/>
<path d="M35.1134 25.6153C36.1501 24.6827 37.3953 23.748 38.6385 23.022C38.3277 22.7111 38.0169 22.5025 37.7061 22.2959C36.4609 23.022 35.4242 23.748 34.2832 24.6827C34.594 24.9936 34.9048 25.3045 35.1134 25.6153Z" fill="#FFE62E"/>
</g>
</svg>
