<svg width="63" height="63" viewBox="0 0 63 63" fill="none" xmlns="http://www.w3.org/2000/svg">
<path d="M0 31.1167C0 37.236 1.76255 42.9423 4.77039 47.7138H57.3493C60.3571 42.9423 62.1197 37.236 62.1197 31.1167C62.1197 24.9973 60.3571 19.2911 57.3493 14.5195H4.77039C1.76255 19.2911 0 24.9973 0 31.1167V31.1167Z" fill="#ED4C5C"/>
<path d="M57.4528 14.5212C51.9565 5.80848 42.2071 0 31.1102 0C20.0133 0 10.266 5.80848 4.76758 14.5233H57.4508L57.4528 14.5212Z" fill="#2A5F9E"/>
<path d="M4.76953 47.7148C10.2658 56.4276 20.0153 62.2381 31.1122 62.2381C42.2091 62.2381 51.9564 56.4297 57.4548 47.7148H4.77162H4.76953Z" fill="#2A5F9E"/>
<path d="M45.5261 34.956V31.7409C45.6304 31.3257 45.9412 31.0149 46.252 30.9105V28.0063C45.9412 28.0063 45.7326 28.4215 45.7326 28.5258V27.2802C45.6283 27.1759 45.4218 27.1759 45.2132 27.2802V27.5911H44.5917V26.2433C44.3852 26.2433 44.3852 26.865 43.9701 26.865C43.7636 26.865 43.7636 26.5542 43.8658 26.3455C43.968 26.1369 44.0723 25.826 43.9701 25.4129C43.8658 25.7238 43.555 25.9324 43.555 25.6195C43.6593 25.2043 43.9701 25.1 43.7615 24.4782C43.6572 24.9977 43.3464 24.9977 43.4507 24.6848C43.555 24.3739 43.7615 24.1653 43.4507 23.6478C43.3464 24.1674 43.1399 24.1674 43.1399 23.8544C43.1399 23.3349 43.1398 22.8175 42.5182 22.6088C42.5182 22.6088 42.5183 22.0893 42.2075 22.0893C41.8967 22.0893 41.8967 22.6088 41.8967 22.6088C41.2751 22.8154 41.2751 23.3349 41.2751 23.8544C41.2751 24.1653 41.0686 24.2696 40.9643 23.6478C40.7578 24.1674 40.9643 24.2696 40.9643 24.6848C41.0686 24.9957 40.7578 24.9957 40.6535 24.4782C40.447 25.1 40.7578 25.2043 40.86 25.6195C40.9643 25.826 40.5492 25.7238 40.4449 25.3086C40.2384 25.8281 40.4449 26.139 40.5492 26.2412C40.6535 26.4478 40.6535 26.7607 40.4449 26.7607C40.0298 26.7607 40.0298 26.139 39.8233 26.139V28.628H34.9486V26.4499C34.6378 26.5542 34.5335 26.865 34.5335 26.865V27.2802H34.2227C34.2227 27.2802 34.0162 27.2802 34.0162 26.865C34.0162 26.4499 34.1205 26.2433 34.4313 26.2433V25.4129C34.4313 25.4129 33.7054 25.5172 33.7054 26.3455V25.6195C33.4989 25.6195 33.4989 25.9304 33.4989 26.6564H33.2924V25.9303C33.2924 25.5152 33.7075 25.5152 33.7075 25.2043C33.7075 25.2043 33.8118 24.6848 33.6032 24.4782C33.3967 25.1 33.1881 24.9977 33.1881 24.6848C33.1881 24.4782 33.3946 24.2696 33.7075 23.6478C33.8118 23.4413 33.7075 22.9218 33.6032 22.7152C33.4989 23.2347 33.4989 23.4413 33.2924 23.4413C33.1881 23.4413 33.0859 23.337 33.0859 23.1304C33.0859 22.8196 33.2924 22.7152 33.3967 22.4044C33.501 22.0935 33.3967 21.7826 33.2924 21.574C33.1881 22.0935 33.1881 22.1957 33.0859 22.1957C32.6708 22.0914 33.0859 21.4697 33.1902 21.2631C33.2945 20.9522 33.0859 20.7436 33.0859 20.7436C32.9816 21.1588 32.8794 21.1588 32.7751 21.1588C32.5686 21.1588 32.6708 20.8479 32.8794 20.6393C32.9837 20.535 32.9837 20.3284 32.8794 20.1198C32.7751 20.4307 32.4643 20.4307 32.5686 20.2241L32.6729 19.6024H32.3621V18.2546H31.947C31.947 17.9437 31.7405 17.6328 31.3254 17.6328C30.9103 17.6328 30.806 18.048 30.7038 18.2546H30.0822V19.6024H29.7714L29.8757 20.3284C29.8757 20.535 29.6692 20.535 29.5649 20.2241C29.4606 20.4307 29.3584 20.6393 29.5649 20.7436C29.7714 20.9502 29.7714 21.2631 29.6692 21.2631C29.567 21.2631 29.4627 21.2631 29.3584 20.8479C29.3584 20.8479 29.1519 21.1588 29.2541 21.3674C29.3584 21.4718 29.7735 22.0935 29.3584 22.3C29.1519 22.3 29.1519 22.0935 29.1519 21.6783C28.9454 21.8849 28.8411 22.1978 29.0476 22.5087C29.1519 22.8196 29.3584 22.9239 29.3584 23.2347C29.3584 23.4413 29.2541 23.5456 29.1519 23.5456C28.9454 23.5456 28.8411 23.3391 28.8411 22.8196C28.7369 23.0261 28.6346 23.5456 28.7369 23.7522C29.0476 24.2717 29.2562 24.4782 29.2562 24.7891C29.2562 24.9957 28.9454 25.2043 28.8411 24.5825C28.7369 24.7891 28.7369 25.3086 28.7369 25.3086C28.7369 25.6195 29.1519 25.6195 29.1519 26.0347V26.865H28.9454C28.9454 26.139 28.9454 25.8281 28.6346 25.8281V26.5542C28.6346 25.7238 27.9088 25.6216 27.9088 25.6216V26.4519C28.2196 26.4519 28.3239 26.6585 28.3239 27.0737C28.3239 27.4889 28.1174 27.4889 28.1174 27.4889H27.7023V27.0737C27.7023 27.0737 27.598 26.7628 27.2872 26.6585V28.8367H22.5167V26.3476C22.3102 26.3476 22.3102 26.9694 21.8951 26.9694C21.6886 26.9694 21.6886 26.6585 21.7908 26.4499C21.8951 26.2433 21.9974 25.9303 21.8951 25.5172C21.7908 25.9324 21.4801 26.0368 21.4801 25.8281C21.5843 25.4129 21.8951 25.3086 21.6866 24.6869C21.5823 25.2064 21.2715 25.2064 21.3758 24.8934C21.4801 24.5825 21.6866 24.3739 21.3758 23.8565C21.2715 24.376 21.065 24.376 21.065 24.063C21.065 23.5435 21.065 23.0261 20.4434 22.8175C20.4434 22.8175 20.4434 22.298 20.1326 22.298C19.8218 22.298 19.7175 22.6088 19.7175 22.6088C19.0959 22.8154 19.0959 23.3349 19.0959 23.8544C19.0959 24.1653 18.8894 24.2696 18.7851 23.6478C18.5786 24.1674 18.7851 24.2696 18.7851 24.6848C18.8894 24.9957 18.5786 24.9957 18.4743 24.4782C18.2678 25.1 18.5786 25.2043 18.6808 25.6195C18.7851 25.826 18.37 25.7238 18.2657 25.3086C18.0592 25.8281 18.2657 26.139 18.37 26.2412C18.4743 26.4478 18.4743 26.7607 18.2657 26.7607C17.8506 26.7607 17.8506 26.139 17.6441 26.139V27.4868H17.1247V27.1759C16.9182 27.0716 16.7096 27.0716 16.6053 27.1759V28.4215C16.6053 28.4215 16.3988 27.902 16.0859 27.902V30.9105C16.2924 31.0149 16.7075 31.3257 16.8118 31.7409V34.956C16.7075 35.2669 16.3967 35.6821 16.1902 35.7864H46.3688C45.9537 35.6821 45.6429 35.3712 45.5387 34.956" fill="#E2E2E2"/>
<path d="M49.4662 41.5975V39.6259H48.4295V37.9672H47.4971V36.7217H46.9778V35.7891H15.2431V36.7217H14.7237V37.9672H13.7913V39.6259H12.7546V41.5975H11.8223V43.5692H50.4007V41.5975H49.4683H49.4662Z" fill="white"/>
<path d="M21.5694 35.7867C21.3629 35.6824 20.9478 35.3715 20.9478 34.9563V31.5326L21.2586 31.0131H21.3629V29.9761C21.1564 30.0805 21.0521 30.1827 20.8435 30.287C20.8435 30.1827 20.7392 30.0805 20.7392 29.9761C20.8435 29.8718 21.2586 29.3544 21.3608 29.1458V28.3154C21.2565 28.3154 21.1543 28.4197 21.05 28.4197C21.2565 28.2132 21.3608 28.0045 21.3608 27.798V26.9676C21.1543 26.9676 20.8414 27.1741 20.7392 27.4871C20.7392 27.2805 20.6349 27.0719 20.5327 26.8653C20.637 26.761 20.9478 26.4502 20.9478 26.2436V25.7241C20.7413 25.7241 20.637 25.8284 20.4284 26.035C20.4284 25.9654 20.3937 25.8966 20.3241 25.8284L20.6349 25.4132V24.8937C20.5306 24.8937 20.4284 24.998 20.3241 25.1003C20.3241 24.996 20.2198 24.8937 20.2198 24.7894L20.3241 24.4785V24.0633C20.2546 24.0633 20.1858 24.0981 20.1176 24.1677C20.1176 24.0633 20.0133 23.9611 20.0133 23.9611H20.1176L20.4284 23.7546V23.4437C20.3589 23.4437 20.2901 23.4785 20.2219 23.548C20.1176 23.3415 20.0154 23.2371 19.8068 23.1328C19.6003 23.2371 19.496 23.3394 19.3918 23.548C19.3222 23.4785 19.2534 23.4437 19.1853 23.4437V23.7546L19.496 23.9611H19.7025C19.7025 24.0654 19.5983 24.0654 19.5983 24.1677C19.5287 24.0981 19.4599 24.0633 19.3918 24.0633V24.4785L19.496 24.7894C19.496 24.8937 19.3918 24.8937 19.3918 24.996C19.2875 24.7894 19.1853 24.7894 19.081 24.7894V25.3089L19.3918 25.7241C19.3918 25.7936 19.357 25.8625 19.2875 25.9306C19.1832 25.7241 18.9767 25.6198 18.7681 25.6198V26.1393C18.7681 26.3458 19.0789 26.6588 19.1832 26.761C19.0789 26.9676 19.0789 27.1762 18.9767 27.3828C18.7702 27.0719 18.5616 26.8633 18.3551 26.8633V27.6936C18.3551 27.798 18.5616 28.1088 18.6659 28.3154C18.5616 28.2111 18.4594 28.2111 18.3551 28.2111V29.0414C18.4594 29.248 18.7702 29.6632 18.9767 29.7675C18.9767 29.8718 18.8724 29.9741 18.8724 30.0784C18.7681 30.1827 18.6659 30.0784 18.4573 30.0784V31.1153L18.7681 31.6348V35.0586C18.7681 35.3694 18.353 35.6803 18.1465 35.8889H18.6659V43.5647H21.0521V35.7846H21.5715" fill="white"/>
<path d="M32.8725 27.2826V26.2457C32.4574 26.35 32.2509 26.6609 32.1466 26.8674C32.1466 26.6609 32.0423 26.4522 31.9401 26.2457C32.0444 25.8305 32.1466 25.624 32.3552 25.4153H32.4595V24.4827C32.1487 24.587 31.9401 24.7936 31.8379 25.0022C31.8379 24.8979 31.7336 24.587 31.6314 24.3805L31.9422 23.861H32.3573V22.9283C32.0465 23.0327 31.8379 23.2392 31.8379 23.4479C31.8379 23.3435 31.7336 23.0327 31.6314 22.8261L32.1508 22.4109V21.7892C31.9443 21.8935 31.6314 21.8935 31.6314 22.3087C31.6314 22.1021 31.5271 21.8935 31.5271 21.7892L32.0465 21.374V20.7523C31.84 20.7523 31.6314 20.8566 31.6314 21.0631C31.6314 20.9588 31.5271 20.8566 31.5271 20.7523L31.8379 20.5457V20.0262C31.7336 20.0262 31.5271 20.1305 31.5271 20.3371C31.5271 20.0262 31.4228 20.0262 31.2163 19.9219C31.112 20.0262 31.0098 20.0262 30.9055 20.3371C30.9055 20.1305 30.699 20.1305 30.5947 20.0262V20.5457L30.9055 20.7523C30.9055 20.8566 30.8012 20.9588 30.8012 21.0631C30.8012 20.7523 30.5947 20.7523 30.3862 20.7523V21.2718L30.9055 21.687C30.8012 21.7913 30.8012 21.9978 30.8012 22.2065C30.8012 21.7913 30.4904 21.7913 30.2819 21.687V22.413L30.6969 22.8282C30.5927 23.0348 30.4904 23.3477 30.4904 23.4499C30.3862 23.2434 30.1797 23.0348 29.9711 22.9304V23.863H30.0754L30.3862 24.3826C30.2819 24.5891 30.1797 24.7977 30.1797 25.0043C30.0754 24.7977 29.8689 24.5891 29.5581 24.4848V25.4174H29.6624C29.8689 25.5217 30.0774 25.8326 30.0774 26.2478V26.7673C29.9732 26.5607 29.6624 26.2478 29.3516 26.1455V27.1825H29.5581C29.8689 27.5977 29.9732 28.2194 29.9732 28.6346L29.6624 28.3237V29.3607H30.699C30.4925 29.6715 30.3882 29.9824 30.3882 30.3976C30.0774 30.2933 30.0774 30.191 29.7667 30.0867V31.1237L29.9732 31.4345V35.0648C29.9732 35.3757 29.5581 35.6866 29.3516 35.8952H29.8709V43.571H32.2572V35.7909H32.7766C32.5701 35.6866 32.155 35.3757 32.155 34.9605V31.3302L32.3615 31.0193V29.9824C31.9464 30.0867 31.9464 30.189 31.8421 30.5019C31.8421 30.191 31.7378 29.7758 31.5313 29.465H32.568V28.428C32.4637 28.5324 32.3615 28.5324 32.2572 28.6346C32.2572 28.1151 32.3615 27.5977 32.6723 27.1825C32.7766 27.2868 32.8788 27.2868 32.8788 27.2868" fill="white"/>
<path d="M43.9697 35.7879C43.7632 35.6835 43.3481 35.3727 43.3481 34.9575V31.5337L43.6589 31.0142H43.7632V29.9773C43.5567 30.0816 43.4524 30.1838 43.2438 30.1838C43.2438 30.0795 43.1395 29.9773 43.1395 29.873C43.2438 29.6664 43.6589 29.3535 43.7611 29.1469V28.3165C43.6568 28.3165 43.5546 28.4209 43.4503 28.4209C43.6568 28.2143 43.7611 27.9013 43.7611 27.7991V26.9687C43.5546 26.9687 43.2417 27.1753 43.1395 27.4882C43.1395 27.2817 43.0352 27.0731 42.933 26.8665C43.0373 26.7622 43.3481 26.4513 43.3481 26.2448V25.7252C43.1416 25.7252 43.0373 25.8296 42.8287 26.0361C42.8287 25.9666 42.794 25.8977 42.7244 25.8296L43.0352 25.4144V24.8949C42.9309 24.8949 42.8287 24.9992 42.7244 25.1014C42.7244 24.9971 42.6201 24.8949 42.6201 24.8949L42.7244 24.584V24.1688C42.6549 24.1688 42.586 24.2036 42.5179 24.2731C42.5179 24.1688 42.4136 24.0666 42.4136 24.0666H42.5179L42.8287 23.86V23.5492C42.7592 23.5492 42.6903 23.5839 42.6222 23.6535C42.5179 23.4469 42.4157 23.3426 42.2071 23.2383C42.0006 23.3426 41.8963 23.4448 41.792 23.6535C41.7225 23.5839 41.6536 23.5492 41.5855 23.5492V23.86L41.8963 24.0666H42.0006C42.0006 24.1709 41.8963 24.1709 41.8963 24.2731C41.8268 24.2036 41.7579 24.1688 41.6898 24.1688V24.584L41.7941 24.8949C41.7246 24.9644 41.6898 25.068 41.6898 25.2057C41.5855 24.9992 41.4833 24.9992 41.379 24.9992V25.5187L41.6898 25.9339C41.6898 26.0034 41.655 26.0723 41.5855 26.1404C41.4812 25.9339 41.379 25.9339 41.1704 25.8296V26.3491C41.1704 26.5556 41.4812 26.8686 41.5855 26.9708C41.4812 27.1774 41.4812 27.386 41.379 27.5926C41.1725 27.2817 40.9639 27.073 40.7574 27.073V27.9034C40.7574 28.0077 40.9639 28.3186 41.0682 28.5252C40.9639 28.4209 40.8617 28.4209 40.7574 28.4209V29.2512C40.8617 29.4578 41.2768 29.873 41.379 30.0816C41.379 30.1859 41.2747 30.2882 41.2747 30.3925C41.1704 30.2882 40.9639 30.1859 40.7553 30.0816V31.1185H40.8596L41.1704 31.638V35.0618C41.1704 35.3727 40.7553 35.6835 40.5488 35.8922H41.0682V43.568H43.4545V35.7879H43.9739" fill="white"/>
</svg>
