<svg width="63" height="64" viewBox="0 0 63 64" fill="none" xmlns="http://www.w3.org/2000/svg">
<path d="M31.1131 1C20.4313 1 11.0969 6.29108 5.49634 14.4843H56.7277C51.1271 6.28899 41.7949 1 31.111 1H31.1131Z" fill="#2A5F9E"/>
<path d="M31.1128 63.2421C41.7946 63.2421 51.129 57.951 56.7296 49.7578H5.49609C11.0967 57.9531 20.4289 63.2421 31.1128 63.2421V63.2421Z" fill="#2A5F9E"/>
<path d="M59.114 18.6367H3.11214C1.14098 22.6822 0 27.2472 0 32.121C0 36.9948 1.14098 41.5598 3.11214 45.6053H59.114C61.0851 41.5598 62.2261 36.9948 62.2261 32.121C62.2261 27.2472 61.0851 22.6822 59.114 18.6367" fill="#ED4C5C"/>
<path d="M3.11133 45.6055C3.83722 47.0576 4.6674 48.4054 5.49758 49.7553H56.729C57.6614 48.4075 58.4915 47.0576 59.1152 45.6055H3.11133Z" fill="white"/>
<path d="M59.1133 18.6381C58.3874 17.1859 57.5572 15.8382 56.727 14.4883H5.49563C4.56324 15.8361 3.73305 17.1859 3.10938 18.6381H59.1133Z" fill="white"/>
<path d="M16.5932 43.5318C22.8935 43.5318 28.0009 38.4231 28.0009 32.1213C28.0009 25.8195 22.8935 20.7109 16.5932 20.7109C10.2929 20.7109 5.18555 25.8195 5.18555 32.1213C5.18555 38.4231 10.2929 43.5318 16.5932 43.5318Z" fill="white"/>
<path d="M16.5927 36.1677L21.6739 40.1089L19.807 33.7809L24.8883 29.8397H18.5618L16.5906 23.5117L14.6195 29.8397H8.29297L13.3742 33.7809L11.5073 40.1089L16.5885 36.1677H16.5927Z" fill="#ED4C5C"/>
</svg>
