<svg width="63" height="63" viewBox="0 0 63 63" fill="none" xmlns="http://www.w3.org/2000/svg">
<mask id="mask0_122_8900" style="mask-type:alpha" maskUnits="userSpaceOnUse" x="0" y="0" width="63" height="63">
<rect width="63" height="63" fill="#D9D9D9"/>
</mask>
<g mask="url(#mask0_122_8900)">
<path d="M53.0007 53.0162C65.1511 40.8629 65.1511 21.1585 53.0007 9.00525C40.8503 -3.14804 21.1506 -3.14803 9.00024 9.00526C-3.15016 21.1586 -3.15016 40.8629 9.00024 53.0162C21.1506 65.1695 40.8503 65.1695 53.0007 53.0162Z" fill="#F5F5F5"/>
<path d="M22.0819 32.7721C24.9855 34.7437 29.03 33.9133 31.0012 31.009C32.9723 28.1048 36.9126 27.2744 39.9204 29.2461C42.7197 31.1134 43.5499 34.7437 41.9938 37.5457C45.4167 31.7372 43.8607 24.1636 38.0536 20.3268C32.1422 16.3856 24.1574 17.94 20.2151 23.8528C20.1108 24.0593 20.0086 24.268 19.9043 24.3723C18.4525 27.3808 19.3849 30.9068 22.0819 32.7741" fill="#ED4C5C"/>
<path d="M41.6836 38.167C41.7879 37.9604 41.8901 37.7518 41.9944 37.6475C41.8901 37.7518 41.7879 37.9583 41.6836 38.167Z" fill="#003478"/>
<path d="M39.9208 29.2453C37.0172 27.2737 32.9727 28.1041 31.0015 31.0083C29.0304 33.9125 25.0901 34.7429 22.0823 32.7713C19.283 30.904 18.4528 27.2737 20.0089 24.4717C16.4838 30.2802 18.142 37.8537 23.9491 41.6906C29.8605 45.6318 37.8453 44.0774 41.7876 38.1646C41.8919 37.958 41.9941 37.7494 42.0984 37.6451C43.5502 34.6365 42.6178 31.1105 39.9208 29.2432" fill="#428BC1"/>
<path d="M5.90489 21.9853L13.0616 11.3009L12.3357 10.7814L11.6098 10.3662L4.45312 21.0506L5.17901 21.4657L5.90489 21.9853Z" fill="#3E4347"/>
<path d="M7.87237 23.3357L8.59826 23.7509L15.6506 13.0665L15.029 12.6513L14.3032 12.1318L7.14648 22.8162L7.87237 23.3357Z" fill="#3E4347"/>
<path d="M16.8961 13.8975L9.84375 24.5818L10.5696 25.1013L11.2955 25.5165L18.3479 14.8322L17.622 14.417L16.8961 13.8975Z" fill="#3E4347"/>
<path d="M48.1126 41.9022L48.8385 42.4217L52.1571 37.4415L51.4313 36.922L50.7054 36.5068L47.3867 41.487L48.1126 41.9022Z" fill="#3E4347"/>
<path d="M56.0979 40.0342L52.7793 45.0144L53.5052 45.5339L54.2311 45.9491L57.5497 40.971L56.8238 40.5558L56.0979 40.0363V40.0342Z" fill="#3E4347"/>
<path d="M51.5358 44.1834L54.8544 39.2032L54.1285 38.6837L53.4026 38.2686L50.084 43.2487L50.8099 43.6639L51.5358 44.1834Z" fill="#3E4347"/>
<path d="M47.6969 42.6291L46.971 42.2139L43.6523 47.192L44.3782 47.6072L45.1041 48.1267L48.4228 43.1465L47.6969 42.627V42.6291Z" fill="#3E4347"/>
<path d="M50.2898 44.3908L49.6682 43.9756L46.3496 48.9537L46.9712 49.3689L47.6971 49.8884L51.0157 44.9082L50.2898 44.3887V44.3908Z" fill="#3E4347"/>
<path d="M52.2601 45.7412L48.9414 50.7214L49.6673 51.2409L50.3932 51.6561L53.7118 46.6759L52.9859 46.1564L52.2601 45.7412Z" fill="#3E4347"/>
<path d="M5.17901 40.5537L4.45312 40.9689L11.6098 51.6532L12.3357 51.2381L13.0616 50.7186L5.90489 40.0342L5.17901 40.5537Z" fill="#3E4347"/>
<path d="M11.7103 44.3926L10.9844 44.9121L14.303 49.8923L15.0289 49.3728L15.6505 48.9576L12.3318 43.9795L11.7103 44.3947V44.3926Z" fill="#3E4347"/>
<path d="M10.5696 36.922L9.84375 37.4415L16.8961 48.1259L17.622 47.6064L18.3479 47.1912L11.2955 36.5068L10.5696 36.922V36.922Z" fill="#3E4347"/>
<path d="M7.14648 39.2072L10.4651 44.1873L11.191 43.6678L11.9169 43.2526L8.59826 38.2725L7.87237 38.6876L7.14648 39.2072Z" fill="#3E4347"/>
<path d="M52.9859 15.8659L53.7118 15.3464L50.3932 10.3662L49.6673 10.7814L48.9414 11.3009L52.2601 16.2811L52.9859 15.8659Z" fill="#3E4347"/>
<path d="M47.6969 19.3933L48.4228 18.8737L45.1041 13.8936L44.3782 14.4131L43.6523 14.8282L46.971 19.8084L47.6969 19.3933Z" fill="#3E4347"/>
<path d="M52.7793 17.0058L56.0979 21.986L56.8238 21.4665L57.5497 21.0513L54.2311 16.0732L53.5052 16.4884L52.7793 17.0079V17.0058Z" fill="#3E4347"/>
<path d="M54.1279 23.3357L54.8538 22.8162L47.6971 12.1318L46.9712 12.6513L46.3496 13.0665L53.402 23.7509L54.1279 23.3357Z" fill="#3E4347"/>
<path d="M51.4313 25.0982L52.1571 24.5787L48.8385 19.6006L48.1126 20.1201L47.3867 20.5353L50.7054 25.5155L51.4313 25.1003V25.0982Z" fill="#3E4347"/>
</g>
</svg>
