<svg width="63" height="64" viewBox="0 0 63 64" fill="none" xmlns="http://www.w3.org/2000/svg">
<path d="M31.1122 63.2391C44.6975 63.2391 56.2096 54.6287 60.4606 42.4922H1.76172C6.01275 54.6287 17.5247 63.2391 31.11 63.2391H31.1122Z" fill="#ED4C5C"/>
<path d="M31.1121 1C17.5267 1 6.0147 9.71273 1.76367 21.747H60.4626C56.2115 9.71481 44.6995 1 31.1141 1H31.1121Z" fill="#FFE62E"/>
<path d="M60.4615 42.4931C61.6025 39.278 62.224 35.7499 62.224 32.1196C62.224 28.4893 61.6025 24.9612 60.4615 21.7461H1.76261C0.621634 24.9612 0 28.4893 0 32.1196C0 35.7499 0.621634 39.278 1.76261 42.4931H60.4615Z" fill="#699635"/>
<path d="M31.1134 41.5607L43.247 50.793L38.6831 35.7523L50.8167 26.4157H35.7796L31.1134 11.375L26.4473 26.4157H11.4102L23.5437 35.7523L18.9798 50.793L31.1134 41.5607Z" fill="white"/>
</svg>
