<svg width="64" height="64" viewBox="0 0 64 64" fill="none" xmlns="http://www.w3.org/2000/svg">
<path d="M32.1133 1.00209C26.617 1.00209 21.5358 2.45421 17.0762 4.84103V59.2997C21.5358 61.7888 26.617 63.2409 32.1133 63.2409C49.3281 63.2409 63.2263 49.3414 63.2263 32.1205C63.2263 14.8995 49.3302 1 32.1133 1" fill="#C94747"/>
<path opacity="0.33" d="M32.1133 1.00209C26.617 1.00209 21.5358 2.45421 17.0762 4.84103V59.2997C21.5358 61.7888 26.617 63.2409 32.1133 63.2409C49.3281 63.2409 63.2263 49.3414 63.2263 32.1205C63.2263 14.8995 49.3302 1 32.1133 1" fill="#9450E0"/>
<path d="M1 32.1224C1 43.8437 7.533 54.0106 17.0738 59.4039L27.9621 57.0171L17.5911 53.9042L27.9621 50.7913L17.5911 47.6785L27.9621 44.5656L17.5911 41.4527L27.9621 38.3398L17.5911 35.2269L27.9621 32.1141L17.5911 29.0012L27.9621 25.8883L17.5911 22.7754L27.9621 19.6626L17.5911 16.5497L27.9621 13.4368L17.5911 10.3239L27.9621 7.21103L17.0738 4.82422C7.533 10.2175 1 20.3844 1 32.1057" fill="#F9F9F9"/>
</svg>
