<svg width="63" height="64" viewBox="0 0 63 64" fill="none" xmlns="http://www.w3.org/2000/svg">
<path d="M31.0059 1C17.5249 1 6.01288 9.71274 1.75977 21.747H60.4586C56.1033 9.71482 44.5913 1 31.0059 1Z" fill="#F9F9F9"/>
<path d="M31.0059 63.2392C44.5913 63.2392 56.1033 54.5264 60.3544 42.4922H1.75977C6.0108 54.6287 17.5228 63.2392 31.0059 63.2392Z" fill="#ED4C5C"/>
<path d="M1.76256 21.7461C0.621583 24.9612 0 28.4893 0 32.1196C0 35.7499 0.621583 39.2779 1.76256 42.4931H60.4614C61.6024 39.2779 62.224 35.7499 62.224 32.1196C62.224 28.4893 61.6024 24.9612 60.4614 21.7461H1.76256Z" fill="#428BC1"/>
</svg>
