<svg width="20" height="20" viewBox="0 0 20 20" fill="none" xmlns="http://www.w3.org/2000/svg">
<path fill-rule="evenodd" clip-rule="evenodd" d="M11.2249 3.72569C11.8946 3.05595 12.803 2.67969 13.7502 2.67969C14.6973 2.67969 15.6057 3.05595 16.2754 3.72569C16.9452 4.39544 17.3214 5.3038 17.3214 6.25097C17.3214 7.19813 16.9452 8.1065 16.2754 8.77624L12.9443 12.1074C12.615 12.4429 12.2222 12.7094 11.7888 12.8915C11.3545 13.074 10.888 13.1681 10.4168 13.1681C9.94565 13.1681 9.4792 13.074 9.04481 12.8915C8.61043 12.709 8.21683 12.4416 7.88707 12.105C7.64549 11.8585 7.64953 11.4628 7.89609 11.2212C8.14264 10.9796 8.53835 10.9837 8.77992 11.2302C8.9933 11.448 9.24798 11.621 9.52906 11.7391C9.81013 11.8572 10.1119 11.9181 10.4168 11.9181C10.7217 11.9181 11.0235 11.8572 11.3046 11.7391C11.5857 11.621 11.8404 11.448 12.0537 11.2302L12.0582 11.2257L15.3916 7.89236C15.8269 7.45703 16.0714 6.86661 16.0714 6.25097C16.0714 5.63532 15.8269 5.0449 15.3916 4.60957C14.9562 4.17425 14.3658 3.92969 13.7502 3.92969C13.1345 3.92969 12.5441 4.17425 12.1088 4.60957L11.6921 5.02624C11.448 5.27032 11.0523 5.27032 10.8082 5.02624C10.5641 4.78216 10.5641 4.38643 10.8082 4.14236L11.2249 3.72569Z" fill="#4A55AC"/>
<path fill-rule="evenodd" clip-rule="evenodd" d="M8.21131 7.10858C8.6457 6.92605 9.11214 6.83203 9.58332 6.83203C10.0545 6.83203 10.5209 6.92605 10.9553 7.10858C11.3897 7.29111 11.7833 7.55849 12.1131 7.89505C12.3547 8.1416 12.3506 8.53731 12.1041 8.77889C11.8575 9.02046 11.4618 9.01642 11.2202 8.76987C11.0069 8.55209 10.7522 8.37909 10.4711 8.26098C10.19 8.14287 9.8882 8.08203 9.58332 8.08203C9.27844 8.08203 8.97662 8.14287 8.69555 8.26098C8.41447 8.37909 8.15979 8.55209 7.94642 8.76987L7.94193 8.7744L4.6086 12.1077C4.17327 12.5431 3.92871 13.1335 3.92871 13.7491C3.92871 14.3648 4.17327 14.9552 4.6086 15.3905C5.04392 15.8258 5.63435 16.0704 6.24999 16.0704C6.86563 16.0704 7.45606 15.8258 7.89138 15.3905L8.30805 14.9738C8.55212 14.7298 8.94785 14.7298 9.19193 14.9738C9.43601 15.2179 9.43601 15.6137 9.19193 15.8577L8.77526 16.2744C8.10552 16.9441 7.19715 17.3204 6.24999 17.3204C5.30283 17.3204 4.39446 16.9441 3.72471 16.2744C3.05497 15.6047 2.67871 14.6963 2.67871 13.7491C2.67871 12.802 3.05497 11.8936 3.72471 11.2238L7.05591 7.89265C7.38519 7.55722 7.77795 7.29068 8.21131 7.10858Z" fill="#4A55AC"/>
</svg>
