<svg width="64" height="64" viewBox="0 0 64 64" fill="none" xmlns="http://www.w3.org/2000/svg">
<path d="M53.2674 9.29754C47.6668 4.1108 40.3036 1 32.1102 1C23.9169 1 16.5537 4.11288 10.9531 9.29754H53.2653H53.2674Z" fill="#ED4C5C"/>
<path d="M10.9551 54.9375C16.5557 60.1242 23.9188 63.235 32.1122 63.235C40.3055 63.235 47.6687 60.1222 53.2693 54.9375H10.9572" fill="#ED4C5C"/>
<path d="M1 32.1192C1 36.5799 1.93239 40.7297 3.59275 44.5665H60.6313C62.2895 40.7276 63.224 36.5799 63.224 32.1192C63.224 27.6585 62.2916 23.5087 60.6313 19.6719H3.59275C1.93447 23.5108 1 27.6585 1 32.1192Z" fill="#2A5F9E"/>
<path d="M10.9556 54.9399H53.1656C56.2777 52.0356 58.8705 48.5076 60.5287 44.5664H3.49023C5.3571 48.5076 7.84557 52.0356 10.9577 54.9399" fill="#F9F9F9"/>
<path d="M53.2671 9.29688H10.955C7.84284 12.2011 5.25007 15.7292 3.5918 19.6704H60.6303C58.8677 15.7292 56.3793 12.2011 53.2671 9.29688" fill="#F9F9F9"/>
</svg>
