<svg width="599" height="162" viewBox="0 0 599 162" fill="none" xmlns="http://www.w3.org/2000/svg">
<g style="mix-blend-mode:multiply">
<path d="M27 54C27 54 95.8111 96.75 170 54" stroke="url(#paint0_linear)" stroke-width="50" stroke-miterlimit="10" stroke-linecap="round"/>
</g>
<g opacity="0.1" clip-path="url(#clip0)">
<path fill-rule="evenodd" clip-rule="evenodd" d="M508.191 50C518.81 56.1011 531.159 59.617 544.304 59.617C557.448 59.617 569.797 56.1356 580.416 50V113.941C580.416 162.715 553.021 205.113 512.688 226.691C511.2 227.483 509.713 228.276 508.191 229C506.669 228.242 505.182 227.483 503.694 226.691C463.396 205.113 436 162.715 436 113.941V50C446.619 56.1356 458.934 59.617 472.078 59.617C485.257 59.617 497.572 56.1356 508.191 50ZM484.289 114.079H443.541V116.802C443.541 132.692 446.689 147.859 452.431 161.681L484.289 129.935V114.079ZM478.132 199.977C486.918 208.697 497.053 216.039 508.191 221.692C519.433 216.005 529.603 208.594 538.354 199.839L508.364 169.85L478.132 199.977ZM532.439 129.831L564.09 161.44C569.762 147.652 572.876 132.589 572.91 116.802V114.079H532.439V129.831ZM532.198 85.2266C532.198 98.4285 521.44 109.148 508.192 109.148C494.943 109.148 484.185 98.4285 484.185 85.2266C484.185 72.0248 494.943 61.3048 508.192 61.3048C521.474 61.3048 532.198 72.0248 532.198 85.2266ZM529.705 85.2253C529.705 73.4712 520.192 63.9232 508.431 63.8198H508.224C496.359 63.8198 486.743 73.4023 486.743 85.2253C486.743 96.876 496.048 106.321 507.67 106.631H508.293C520.089 106.631 529.705 97.0484 529.705 85.2253ZM489.337 85.2253C489.337 75.2637 497.086 67.1289 506.909 66.4739V81.5026H509.469V66.5429C513.655 67.1978 517.045 70.886 517.045 75.2292C517.045 79.986 512.928 83.9155 508.189 83.9155C501.859 83.9155 496.774 88.948 496.774 95.256C496.774 97.5309 497.432 99.6336 498.573 101.392C493.039 98.0825 489.337 92.0848 489.337 85.2253ZM509.469 103.977V88.9136H506.909V103.908C502.724 103.253 499.299 99.5646 499.299 95.256C499.299 90.4992 503.45 86.5352 508.224 86.5352C514.519 86.5352 519.639 81.5371 519.639 75.2292C519.639 72.9887 518.982 70.886 517.84 69.0936C523.34 72.3682 527.041 78.3659 527.041 85.2253C527.041 95.187 519.293 103.322 509.469 103.977Z" fill="url(#paint1_linear)"/>
</g>
<path d="M128.382 69.9358V92.1118H131.55V69.9358H128.382ZM115.11 82.6318C117.702 81.9358 119.43 80.4478 120.414 78.5278C121.398 80.3518 123.078 81.7678 125.67 82.4158L127.062 80.0158C123.822 79.1998 122.19 77.1838 121.998 75.0718H126.462V72.5518H121.974V70.1518H118.782V72.5518H114.342V75.0718H118.758C118.566 77.2798 116.958 79.3678 113.694 80.2078L115.11 82.6318ZM121.974 81.9838H118.782V85.3438C116.766 85.4158 114.846 85.4158 113.214 85.4158L113.622 87.9838C117.39 87.9838 122.646 87.9358 127.374 86.9758L127.182 84.6718C125.454 84.9358 123.798 85.0798 121.974 85.1998V81.9838Z" fill="#333333"/>
<path d="M151.204 84.5518C152.092 79.8718 152.092 76.7278 152.092 73.9678V71.8558H136.036V74.3758H148.924C148.924 76.9438 148.876 80.0398 148.036 84.1918L151.204 84.5518ZM144.244 86.8558V79.2478H141.076V86.8558H134.02V89.3998H154.012V86.8558H144.244Z" fill="#333333"/>
<path d="M170.138 69.9358V92.1118H173.306V69.9358H170.138ZM161.978 71.4238C158.522 71.4238 155.906 73.7038 155.906 76.8718C155.906 80.0398 158.522 82.3198 161.978 82.3198C165.434 82.3198 168.074 80.0398 168.074 76.8718C168.074 73.7038 165.434 71.4238 161.978 71.4238ZM161.978 74.1358C163.706 74.1358 164.978 75.1438 164.978 76.8718C164.978 78.5998 163.706 79.6078 161.978 79.6078C160.25 79.6078 158.978 78.5998 158.978 76.8718C158.978 75.1438 160.25 74.1358 161.978 74.1358ZM155.378 87.6238C159.194 87.6238 164.378 87.5758 169.13 86.6158L168.938 84.3358C164.282 85.0318 158.858 85.0558 154.97 85.0558L155.378 87.6238Z" fill="#333333"/>
<path d="M195.95 69.9358V78.4558H193.958V70.3678H191.006V91.0318H193.958V80.9998H195.95V92.0638H198.95V69.9358H195.95ZM183.734 75.0718H188.798V72.5038H180.614V87.0958H182.15C184.958 87.0958 187.334 86.9998 190.022 86.4958L189.782 83.9278C187.67 84.3118 185.846 84.4078 183.734 84.4798V75.0718Z" fill="#333333"/>
<path d="M213.876 71.9038H208.956V69.8398H205.764V71.9038H200.868V74.3998H213.876V71.9038ZM221.196 75.6478H218.268V69.9598H215.1V83.8078H218.268V78.2638H221.196V75.6478ZM212.796 79.1518C212.796 76.7518 210.564 75.0958 207.372 75.0958C204.18 75.0958 201.948 76.7518 201.948 79.1518C201.948 81.5518 204.18 83.2318 207.372 83.2318C210.564 83.2318 212.796 81.5518 212.796 79.1518ZM204.972 79.1518C204.972 78.0238 205.932 77.4958 207.372 77.4958C208.812 77.4958 209.772 78.0238 209.772 79.1518C209.772 80.2798 208.812 80.8318 207.372 80.8318C205.932 80.8318 204.972 80.2798 204.972 79.1518ZM203.532 87.2638H215.1V92.0878H218.268V84.7198H203.532V87.2638Z" fill="#333333"/>
<path d="M450.382 69.9358V92.1118H453.55V69.9358H450.382ZM437.11 82.6318C439.702 81.9358 441.43 80.4478 442.414 78.5278C443.398 80.3518 445.078 81.7678 447.67 82.4158L449.062 80.0158C445.822 79.1998 444.19 77.1838 443.998 75.0718H448.462V72.5518H443.974V70.1518H440.782V72.5518H436.342V75.0718H440.758C440.566 77.2798 438.958 79.3678 435.694 80.2078L437.11 82.6318ZM443.974 81.9838H440.782V85.3438C438.766 85.4158 436.846 85.4158 435.214 85.4158L435.622 87.9838C439.39 87.9838 444.646 87.9358 449.374 86.9758L449.182 84.6718C447.454 84.9358 445.798 85.0798 443.974 85.1998V81.9838Z" fill="#333333"/>
<path d="M457.772 83.4718C461.924 82.9198 464.54 81.3598 466.004 79.0558C467.468 81.3598 470.084 82.9198 474.236 83.4718L475.364 80.9758C470.324 80.3998 467.9 77.8798 467.636 75.4798H474.284V72.9598H467.588V70.2478H464.42V72.9598H457.724V75.4798H464.372C464.108 77.8798 461.684 80.3998 456.644 80.9758L457.772 83.4718ZM467.588 86.9758V82.7038H464.42V86.9758H455.996V89.5438H476.012V86.9758H467.588Z" fill="#333333"/>
<path d="M492.138 69.9358V92.1118H495.306V69.9358H492.138ZM483.978 71.4238C480.522 71.4238 477.906 73.7038 477.906 76.8718C477.906 80.0398 480.522 82.3198 483.978 82.3198C487.434 82.3198 490.074 80.0398 490.074 76.8718C490.074 73.7038 487.434 71.4238 483.978 71.4238ZM483.978 74.1358C485.706 74.1358 486.978 75.1438 486.978 76.8718C486.978 78.5998 485.706 79.6078 483.978 79.6078C482.25 79.6078 480.978 78.5998 480.978 76.8718C480.978 75.1438 482.25 74.1358 483.978 74.1358ZM477.378 87.6238C481.194 87.6238 486.378 87.5758 491.13 86.6158L490.938 84.3358C486.282 85.0318 480.858 85.0558 476.97 85.0558L477.378 87.6238Z" fill="#333333"/>
<path d="M517.95 69.9358V78.4558H515.958V70.3678H513.006V91.0318H515.958V80.9998H517.95V92.0638H520.95V69.9358H517.95ZM505.734 75.0718H510.798V72.5038H502.614V87.0958H504.15C506.958 87.0958 509.334 86.9998 512.022 86.4958L511.782 83.9278C509.67 84.3118 507.846 84.4078 505.734 84.4798V75.0718Z" fill="#333333"/>
<path d="M535.876 71.9038H530.956V69.8398H527.764V71.9038H522.868V74.3998H535.876V71.9038ZM543.196 75.6478H540.268V69.9598H537.1V83.8078H540.268V78.2638H543.196V75.6478ZM534.796 79.1518C534.796 76.7518 532.564 75.0958 529.372 75.0958C526.18 75.0958 523.948 76.7518 523.948 79.1518C523.948 81.5518 526.18 83.2318 529.372 83.2318C532.564 83.2318 534.796 81.5518 534.796 79.1518ZM526.972 79.1518C526.972 78.0238 527.932 77.4958 529.372 77.4958C530.812 77.4958 531.772 78.0238 531.772 79.1518C531.772 80.2798 530.812 80.8318 529.372 80.8318C527.932 80.8318 526.972 80.2798 526.972 79.1518ZM525.532 87.2638H537.1V92.0878H540.268V84.7198H525.532V87.2638Z" fill="#333333"/>
<path d="M338.236 80.475C337.25 80.5446 334.809 82.4763 333.893 82.5926C333.366 82.6615 332.85 82.7768 332.304 82.8969C332.176 82.926 332.046 82.9544 331.914 82.9834L331.937 82.8797C332.017 82.5363 332.09 82.216 332.15 81.8915C332.188 81.6916 332.228 81.4924 332.267 81.2915C332.379 80.7355 332.488 80.1623 332.548 79.5855L332.552 79.5565C332.553 79.5318 332.56 79.5041 332.563 79.4785V79.4552L332.571 79.3923C332.571 79.384 332.571 79.3757 332.571 79.3665L332.603 79.024L332.575 79.0381C332.557 77.6898 331.821 76.6295 331.077 75.7631C331.014 75.6909 330.958 75.6086 330.896 75.5258C330.627 75.1499 330.286 74.6622 329.519 74.7874L329.382 74.8107L329.327 74.9378C329.283 75.0422 329.242 75.1476 329.199 75.2537C329.113 75.4753 329.028 75.6854 328.922 75.8796C328.631 76.4007 328.334 76.9175 328.037 77.4345C327.683 78.0518 327.328 78.6707 326.986 79.2954C326.692 79.8284 326.411 80.3691 326.132 80.9103C325.946 81.2696 325.762 81.6305 325.572 81.9875C325.49 82.1417 325.402 82.2953 325.315 82.448L325.167 82.7058C325.114 82.7971 325.063 82.8926 325.011 82.9855L324.938 83.1126L324.94 83.1116C324.781 83.3962 324.625 83.6849 324.49 83.9838C324.221 84.5829 323.977 85.2027 323.738 85.7984C323.567 86.2349 323.396 86.6696 323.215 87.0978L323.133 87.2968C323.015 87.5857 322.884 87.9125 322.7 88.0306C322.261 88.3059 322.172 88.6115 322.172 88.9848C322.175 89.1059 322.183 89.229 322.195 89.3549C322.203 89.461 322.212 89.5705 322.212 89.6768C322.215 89.7633 322.21 89.8742 322.178 89.9591C322.07 90.2443 322.006 90.54 321.982 90.8584C321.884 90.9214 321.791 90.9864 321.7 91.0542C321.605 91.1273 321.517 91.2069 321.431 91.2899C321.313 91.4061 321.2 91.5122 321.082 91.5687C320.086 92.0432 319.031 92.5261 317.849 93.039C317.604 93.1453 317.506 92.8582 317.482 92.7701C317.389 92.4184 317.311 92.0499 317.361 91.7312L317.515 90.7904C317.642 90.0285 317.793 89.2272 318.032 88.4719C318.293 87.6471 318.659 86.8308 319.013 86.0423C319.134 85.7702 319.259 85.4965 319.392 85.1896L319.437 85.0867C319.804 84.2402 320.109 83.535 320.456 82.8255C320.883 81.9575 321.253 81.2606 321.623 80.6325C322.04 79.9287 322.464 79.2293 322.899 78.5338C323.17 78.0972 323.443 77.6609 323.732 77.2325C324.332 76.3454 324.348 75.2461 323.744 74.5898C323.453 74.2737 323.432 74.2047 323.568 74.0265L323.74 73.8023L322.902 73.4896L322.093 73.3469C322.087 73.3503 322.078 73.3545 322.072 73.357C321.809 73.4921 321.537 73.6301 321.299 73.8274C321.175 73.9319 321.108 73.9379 321.097 73.9379C321.069 73.9379 321.034 73.8798 321.014 73.8316C320.878 73.5097 320.66 73.3469 320.366 73.3469C320.235 73.3469 320.106 73.3794 319.985 73.4142C319.944 73.4257 319.903 73.4359 319.86 73.4458C319.665 73.4873 319.315 73.562 319.224 73.9676C319.204 73.9769 319.176 73.9902 319.132 74.0085C318.794 74.1411 318.454 74.2656 318.113 74.3885C317.96 74.4438 317.804 74.4895 317.652 74.5354C317.569 74.5587 317.48 74.5769 317.394 74.5935C317.177 74.6366 316.949 74.6823 316.757 74.8142L316.674 74.8688C315.931 75.3699 315.163 75.8885 314.472 76.487C313.092 77.6828 311.627 78.9747 310.257 80.3205C308.924 81.6356 307.981 82.8481 307.289 84.1348L307.282 84.1385L307.232 84.2354C307.189 84.3151 307.142 84.3924 307.096 84.4703C306.892 84.8114 306.638 85.2362 306.814 85.7624C306.812 85.7841 306.787 85.8569 306.732 85.9402C306.652 86.0562 306.576 86.1756 306.5 86.2969C306.294 86.6221 306.098 86.9308 305.845 87.1614C305.414 87.5548 305.166 88.031 304.967 88.4957H304.965L304.925 88.5937C304.922 88.6036 304.917 88.6135 304.912 88.6218L304.737 89.0551L304.742 89.0533L304.649 89.289C304.565 89.4979 304.49 89.7156 304.417 89.9293C304.254 90.4007 304.102 90.8439 303.831 91.2504C303.593 91.6056 303.509 92.1417 303.597 92.7074L303.01 93.1921L303.055 93.1886C302.934 93.3115 302.816 93.4377 302.698 93.5654C302.499 93.7861 302.308 93.9953 302.096 94.1728C301.891 94.3421 301.652 94.4765 301.4 94.6195C301.262 94.6975 301.124 94.7754 300.99 94.86C300.789 94.9896 300.588 95.1206 300.389 95.2534C300.032 95.4891 299.676 95.7245 299.308 95.9404C299.191 96.0084 299.095 96.043 299.022 96.043C298.959 96.043 298.861 96.0133 298.693 95.7926C298.622 95.6996 298.559 95.5982 298.497 95.499C298.449 95.4225 298.402 95.348 298.353 95.2746C298.046 94.825 297.968 94.3073 297.888 93.7612C297.876 93.6833 297.863 93.6051 297.849 93.5269H297.861L297.803 93.2384C297.803 93.2384 297.803 93.2384 297.803 93.235L297.763 93.0261H297.753C297.738 92.9631 297.728 92.9031 297.707 92.8367C297.896 92.5914 297.921 92.3225 297.941 92.1032C297.953 91.9803 297.963 91.8675 297.999 91.7762L298.11 91.5057L297.865 91.4428C298.122 91.1972 298.198 90.8354 298.26 90.5466L298.298 90.364L298.137 90.2727C298.069 90.2344 298.023 90.1814 298.009 90.1249C298.001 90.0882 298.006 90.0552 298.028 90.025L298.095 89.9254C298.152 89.8625 298.197 89.7995 298.228 89.7365L298.351 89.5604L298.298 89.5671C298.324 89.4691 298.339 89.3745 298.351 89.2883C298.359 89.2184 298.368 89.1439 298.389 89.0692L298.477 88.754L298.785 88.1233L298.524 88.1634L298.565 88.1104L298.461 88.0022C298.555 87.9441 298.683 87.8346 298.667 87.6489L298.652 87.4979L298.577 87.4663C298.649 87.3835 298.722 87.2622 298.678 87.1077L298.672 87.0913C298.778 87.0383 298.886 86.9585 298.913 86.819C298.931 86.7228 298.904 86.6398 298.871 86.5686L299.304 86.756L298.984 85.8567L298.878 85.5562C299.289 85.0434 299.597 83.6081 299.513 83.0353L299.886 82.2271L300.081 82.1689L299.94 82.106L300.03 81.9109H299.629C299.585 81.9109 299.56 81.9068 299.534 81.9044C299.534 81.9019 299.534 81.8996 299.535 81.8971C299.622 81.6856 299.655 81.6738 299.733 81.6729C299.904 81.6704 300.06 81.5212 300.098 81.3842C300.161 81.1635 300.218 80.9419 300.276 80.7187L300.362 80.3809C300.399 80.2457 300.429 80.1095 300.461 79.972C300.527 79.6649 300.592 79.3743 300.714 79.1216C300.897 78.7489 301.135 78.3839 301.614 78.2386C302.147 78.0786 302.671 77.8745 303.178 77.6769C303.514 77.5473 303.853 77.4163 304.193 77.2961C304.402 77.2223 304.618 77.1681 304.836 77.1135C305.086 77.0496 305.335 76.9855 305.578 76.896C306.107 76.7012 306.631 76.4837 307.152 76.2679L307.975 75.9328C308.158 75.8606 308.347 75.7866 308.527 75.6856C308.701 75.5867 308.88 75.2648 308.768 75.0492C308.685 74.893 308.46 74.7279 308.21 74.7279C308.21 74.7279 308.206 74.7279 308.205 74.7279C307.164 74.8513 306.124 74.9892 305.083 75.1269L304.105 75.2546C304.045 75.2639 303.987 75.2689 303.927 75.2738C303.813 75.2871 303.701 75.2987 303.59 75.321C303.424 75.3559 303.26 75.3939 303.095 75.4331C302.855 75.4878 302.612 75.5426 302.371 75.5865C302.215 75.6139 302.102 75.6303 301.988 75.633C301.966 75.6171 301.926 75.5484 301.88 75.4622L302.554 74.6066L302.213 74.6811L302.183 74.6073C302.308 74.5402 302.439 74.4496 302.451 74.2831C302.459 74.1178 302.537 73.9504 302.619 73.77C302.758 73.4689 302.931 73.0964 302.783 72.674C302.969 72.5089 302.962 72.284 302.959 72.1537C302.959 72.1072 302.957 72.0557 302.962 72.0327C303.012 71.8701 302.944 71.1762 302.999 71.0162C303.061 70.8495 302.59 71.2816 302.639 71.1107C302.783 70.6186 302.328 73.7336 302.462 73.239L302.574 72.834C302.648 72.5626 302.73 72.2898 302.809 72.0193C303.004 71.3621 303.206 70.6816 303.331 69.9946C303.452 69.34 303.509 68.6687 303.563 68.0191C303.592 67.6732 303.621 67.328 303.66 66.9812L303.678 66.8403C303.724 66.4858 303.781 66.0454 303.427 65.6741C303.163 65.3962 302.903 65.1283 302.61 64.8811C302.21 64.546 301.76 64.228 301.177 64.1856L301.013 64.1738L300.933 64.3193C300.873 64.4379 300.813 64.5624 300.755 64.6851C300.629 64.9491 300.511 65.1972 300.352 65.4138C299.008 67.2374 298.079 68.6938 297.335 70.1351C295.922 72.8841 295.721 73.5991 296.426 72.0521C296.31 72.3059 296.195 72.5598 296.078 72.8156C296.044 72.8877 296.039 72.9565 296.033 73.0353C295.975 73.1896 295.911 73.3457 295.824 73.4901C295.772 73.53 295.693 73.5897 295.654 73.6967C295.601 73.8477 295.555 74.0029 295.506 74.1574C295.452 74.3391 295.898 73.1158 295.83 73.2927C295.719 73.5862 295.775 73.3734 295.656 73.6644C295.428 74.2137 295.759 73.018 295.574 73.5964C295.51 73.8005 295.426 73.9969 295.343 74.192C295.221 74.4817 295.091 74.7831 295.018 75.113C294.953 75.4001 294.837 75.6799 294.711 75.9753C294.636 76.1542 294.56 76.3336 294.495 76.5172C294.442 76.6724 294.4 76.8299 294.361 76.9885C294.321 77.1419 294.283 77.2945 294.211 77.4915C294.06 77.9162 293.966 78.1401 293.587 78.2082C293.009 78.3119 292.448 78.5285 292.024 78.7067C291.573 78.8967 291.126 79.1052 290.681 79.316C290.342 79.4746 290.002 79.6337 289.658 79.7857C289.361 79.9167 289.056 80.0281 288.75 80.1399L288.142 80.3647L288.17 80.564C288.222 80.9355 288.336 81.357 288.987 81.3187C290.435 81.22 291.69 81.0136 292.83 80.6866C293 80.6378 293.187 80.6129 293.357 80.593L293.356 80.5986C293.336 80.8368 293.319 81.0558 293.298 81.2698C293.269 81.3056 293.233 81.357 293.221 81.4299C293.191 81.609 293.11 81.7885 293.022 81.9801C292.848 82.3578 292.65 82.7849 292.838 83.3118C292.838 83.3134 292.836 83.3185 292.834 83.3252L292.73 83.6771L292.716 83.7183C292.715 83.7193 292.715 83.7202 292.715 83.7218L292.628 84.014L292.632 84.0124C292.56 84.2513 292.487 84.4895 292.427 84.73C292.391 84.8769 292.447 85.0104 292.49 85.11C292.5 85.14 292.515 85.1697 292.535 85.2493C292.537 85.2592 292.54 85.2726 292.544 85.279C292.326 85.4965 292.333 85.767 292.334 85.9547C292.334 86.0144 292.338 86.0758 292.331 86.1355L292.314 86.2833C292.294 86.4609 292.273 86.6401 292.245 86.816L292.243 86.8195C292.203 87.0736 292.15 87.271 292.077 87.44C291.966 87.699 291.901 87.9363 291.942 88.2169C291.861 88.2766 291.778 88.3626 291.743 88.4821C291.71 88.5983 291.721 88.7175 291.78 88.8437C291.766 88.8803 291.751 88.9269 291.746 88.9735C291.735 89.0531 291.728 89.1326 291.721 89.2089L291.715 89.3035L291.74 89.481L291.634 90.2277L291.017 90.2711L291.7 90.6629C291.527 90.8702 291.406 91.1674 291.668 91.5456C291.408 91.8442 291.472 92.1662 291.519 92.3984L291.535 92.4814C291.562 92.6059 291.646 92.6839 291.738 92.7636L292.203 93.2714L292.201 93.235L293.115 95.3939L292.892 95.5998L293.138 95.8569C293.174 95.8933 293.208 95.9268 293.237 95.9632C293.272 96.0031 293.312 96.0594 293.352 96.1124C293.491 96.3084 293.586 96.4378 293.752 96.4378L293.843 96.4212C293.843 96.4212 293.843 96.4212 293.843 96.4228C293.863 96.4975 293.885 96.5907 293.951 96.67C294.132 96.8958 294.308 97.128 294.486 97.3604L294.803 97.7737C294.866 97.8581 294.957 97.8883 295.012 97.9046L295.376 98.0326C295.6 98.1106 295.824 98.1869 296.046 98.2731C296.13 98.3047 296.209 98.3495 296.289 98.391C296.417 98.4574 296.545 98.527 296.696 98.5701C296.809 98.6017 296.923 98.6248 297.04 98.6449C297.292 98.6931 297.513 98.7327 297.675 98.8971C297.828 99.0482 297.974 99.1261 298.109 99.1261L298.162 99.1213C298.32 99.0964 298.447 99.0016 298.549 98.9269L298.609 98.8838C298.725 98.7991 298.728 98.6679 298.731 98.5785L298.752 98.4392C298.763 98.4509 298.778 98.4625 298.793 98.4772L298.991 98.6516L299.158 98.4491C299.17 98.4309 299.188 98.4156 299.205 98.3993C299.27 98.3395 299.353 98.2584 299.381 98.1403H299.411C299.559 98.1403 299.741 98.0741 299.763 97.8915L299.771 97.8285C299.791 97.8138 299.867 97.8039 299.914 97.7986C300.017 97.7852 300.144 97.7704 300.258 97.6989C300.284 97.6823 300.342 97.6708 300.399 97.6591C300.493 97.6392 300.613 97.6157 300.719 97.5463C301.37 97.1164 302.004 96.6917 302.61 96.2452C302.67 96.2019 302.731 96.1588 302.795 96.1191C303.118 95.9033 303.518 95.636 303.562 95.0768L303.613 95.0171C303.698 94.9025 303.784 94.7878 303.871 94.6767C304.02 94.4825 304.168 94.2881 304.306 94.0875C304.335 94.1108 304.364 94.129 304.394 94.1454C304.719 94.3299 305.048 94.5091 305.378 94.685C306.019 95.03 306.682 95.3886 307.293 95.7903C307.682 96.049 308.092 96.1786 308.51 96.1786C309.164 96.1786 309.755 95.8615 310.197 95.5846C310.765 95.2294 311.242 94.7316 311.7 94.2503C311.81 94.1341 311.917 94.0213 312.029 93.9086C312.361 93.5668 312.635 93.1683 312.887 92.7899C312.965 92.6737 313.171 92.3633 313.229 92.332C313.304 92.3518 313.53 92.6025 313.678 92.7669C314.034 93.1651 314.491 93.4637 314.933 93.7492C315.047 93.8255 315.162 93.8987 315.273 93.9734C315.438 94.088 315.615 94.1694 315.785 94.2505C315.949 94.3303 316.103 94.4032 316.24 94.4959C317.177 95.1432 318.518 95.1381 319.865 94.5095C320.829 94.058 321.507 93.318 322.143 92.5743L322.173 92.727C322.241 93.0837 322.314 93.4538 322.357 93.8156C322.428 94.4097 322.948 94.843 323.594 94.843C323.762 94.843 323.925 94.8114 324.082 94.7516C324.404 94.6271 324.672 94.4265 324.931 94.2339C325.291 93.9635 325.63 93.7098 326.076 93.698C326.221 93.6932 326.349 93.5885 326.403 93.4953C326.483 93.3676 326.578 93.2433 326.671 93.1188C326.912 92.7968 327.161 92.465 327.212 92.0734C327.267 91.6485 327.528 91.3531 327.803 91.0427C328.029 90.7904 328.259 90.5298 328.4 90.1865C328.469 90.0087 328.644 89.8595 328.823 89.7015C329.14 89.4246 329.534 89.0826 329.478 88.462C329.612 88.3128 329.741 88.1549 329.869 87.9971L330.145 87.6685C330.331 87.4513 330.545 87.2122 330.792 87.0212C332.325 85.8263 332.318 84.956 333.716 84.6239C333.866 84.5884 334.958 84.0338 335.058 83.9785C335.166 83.9185 337.16 82.6857 337.283 82.6334L337.29 82.6689L337.775 82.6846L337.632 82.6507L338.112 81.4991C338.153 81.4991 338.294 81.6699 338.351 81.6916C338.407 81.7114 338.324 81.6891 338.351 81.6916L338.236 80.475ZM309.811 87.8092C310.156 87.19 310.537 86.5395 310.98 85.9174L311.398 85.3231C312.031 84.4247 312.687 83.4951 313.424 82.6578C313.733 82.3085 313.98 82.0479 314.226 81.8166C314.847 81.2318 315.438 80.6025 316.011 79.9946C316.35 79.637 316.689 79.2761 317.027 78.9309C317.041 78.9209 317.094 78.9018 317.12 78.8935C317.125 78.896 317.132 78.9002 317.138 78.9069C317.1 78.9269 317.062 78.9516 317.027 78.9816C316.876 79.1135 316.656 79.3157 316.481 79.5549C316.31 79.7838 316.149 80.0195 315.986 80.2559C315.827 80.4893 315.666 80.7231 315.5 80.9479C315.352 81.1478 315.193 81.3446 315.018 81.562L314.975 81.615L314.385 82.3486L314.414 82.3377C314.394 82.3643 314.37 82.3901 314.352 82.4166C313.461 83.6381 312.57 84.8603 311.682 86.082L310.875 87.1919H310.873L309.397 89.2216C309.16 89.5468 308.888 89.8871 308.564 90.2623C308.675 89.9552 308.785 89.663 308.931 89.3976L309.811 87.8092Z" fill="#E5347E"/>
<path d="M290.927 93.5897L290.899 93.3358L290.882 93.3374C290.877 93.3109 290.877 93.2975 290.869 93.271L290.807 93.0072L290.748 93.0219C290.918 92.7929 291.025 92.4742 290.839 92.0476C290.807 91.9796 290.789 91.8931 290.771 91.8004C290.753 91.7142 290.734 91.6312 290.708 91.5481C290.68 91.4603 290.633 91.369 290.587 91.2758C290.557 91.2161 290.507 91.1167 290.492 91.1017L290.529 90.9239C290.53 90.9205 290.53 90.9172 290.532 90.9122L290.607 90.5324L290.537 90.5423C290.492 90.26 290.338 90.0345 290.175 89.8454C288.629 88.0465 287.189 86.938 285.506 86.2492C283.741 85.5272 282.017 85.1755 280.239 85.1755H280.164C279.402 85.179 278.643 85.1956 277.883 85.2136C277.21 85.2283 276.538 85.2435 275.863 85.2484C275.767 85.2484 275.651 85.2184 275.532 85.1838C275.578 85.0858 275.614 85.0037 275.64 84.9175C275.865 84.1184 276.093 83.3169 276.304 82.5144C276.315 82.4729 276.36 82.409 276.403 82.3467C276.511 82.1948 276.719 81.9019 276.535 81.5542C276.536 81.5516 276.538 81.5493 276.541 81.5468L276.669 81.3409C276.812 81.1135 276.953 80.8861 277.109 80.6622C277.247 80.4549 277.426 80.1445 277.36 79.8491C277.348 79.7869 277.322 79.7112 277.265 79.6351C277.323 79.5164 277.381 79.4017 277.436 79.2871C277.625 78.9057 277.805 78.543 277.961 78.1678C278.163 77.6773 278.346 77.1778 278.528 76.6832L278.761 76.0493L278.854 75.675L278.557 75.6794L278.852 75.4338C278.879 75.4114 278.912 75.3891 278.945 75.3667C279.065 75.2853 279.212 75.1841 279.267 75.0058C279.478 74.2995 279.696 73.6169 280.071 73.0111C280.164 72.8559 280.265 72.7058 280.364 72.5555C280.497 72.3539 280.632 72.1521 280.753 71.9432C280.815 71.8353 280.86 71.7175 280.901 71.5996C280.941 71.4878 280.979 71.3817 281.031 71.3109C281.111 71.2055 281.217 71.111 281.33 71.0097C281.466 70.8861 281.605 70.7575 281.722 70.5965C281.947 70.2778 282.156 69.9476 282.366 69.6148C282.513 69.3776 282.665 69.14 282.851 68.8629C283.621 67.7163 284.392 66.5718 285.183 65.4401C285.418 65.1041 285.675 64.7828 285.929 64.4619C286.095 64.2552 286.26 64.0461 286.42 63.8346C286.533 63.6868 286.635 63.5277 286.743 63.3566L286.869 63.1624C286.892 63.1458 286.917 63.1327 286.943 63.117C287.081 63.0395 287.251 62.9417 287.377 62.7792C287.608 62.4787 287.804 62.1418 287.945 61.809C288.086 61.4797 288.315 61.2051 288.557 60.9145C288.722 60.7194 288.889 60.5163 289.034 60.2908C289.266 59.9283 289.474 59.5471 289.672 59.177C289.829 58.8876 289.984 58.5979 290.153 58.3168C290.437 57.8499 290.731 57.3917 291.03 56.9328C291.179 56.7054 291.327 56.4764 291.475 56.2458C291.566 56.1005 291.653 55.9527 291.741 55.8042C291.912 55.5074 292.076 55.2259 292.279 54.9787C293.288 53.7364 293.399 52.2596 292.581 50.9247C292.524 50.8334 292.483 50.7347 292.438 50.6358C292.383 50.5122 292.327 50.3902 292.255 50.2765C292.191 50.1727 292.131 50.0666 292.069 49.9603C291.867 49.6151 291.658 49.2572 291.369 48.9669C291.123 48.7172 290.814 48.5454 290.489 48.362C290.341 48.28 290.186 48.1937 290.027 48.0957L289.874 48L289.725 48.1038C289.466 48.2871 289.2 48.4704 288.928 48.6586C288.247 49.1292 287.543 49.616 286.861 50.14C286.572 50.3579 286.326 50.6219 286.09 50.8758C285.921 51.0575 285.75 51.2392 285.564 51.4044C285.395 51.5545 285.205 51.6857 285.004 51.824C284.835 51.9403 284.665 52.0565 284.508 52.1849C284.392 52.2813 284.305 52.4008 284.229 52.5062C284.174 52.5809 284.121 52.6549 284.068 52.7052C283.807 52.9415 283.542 53.1733 283.274 53.4046C282.804 53.8153 282.316 54.2428 281.866 54.6976C281.39 55.1777 280.944 55.6974 280.515 56.2011C280.29 56.4626 280.066 56.7271 279.836 56.9851C279.786 57.0407 279.723 57.0863 279.661 57.132C279.59 57.1867 279.518 57.2415 279.457 57.3045C279.273 57.4855 279.095 57.6746 278.927 57.8748C278.748 58.0888 278.57 58.3071 278.391 58.526C278.167 58.799 277.944 59.0718 277.715 59.3416C277.625 59.4479 277.522 59.5475 277.42 59.6488C277.219 59.8439 277.011 60.0461 276.87 60.3025C276.692 60.6203 276.495 60.9148 276.282 61.2295C275.962 61.7041 275.63 62.1946 275.39 62.7688C275.13 63.3903 274.688 63.9363 274.218 64.5144C274.004 64.7785 273.791 65.0423 273.595 65.3112C273.541 65.3849 273.508 65.461 273.479 65.5281L273.318 65.8544C273.23 66.0362 273.14 66.2188 273.036 66.3904C272.969 66.4957 272.887 66.5938 272.805 66.6908C272.632 66.9 272.456 67.1133 272.385 67.3854C272.252 67.9183 272.104 68.1355 271.82 68.2211L271.664 68.2665L271.631 68.4275C271.613 68.5096 271.599 68.5875 271.586 68.6629C271.566 68.7849 271.55 68.8945 271.51 68.9957C271.239 69.6942 270.961 70.3897 270.671 71.0801L270.592 71.2768C270.421 71.7117 270.304 71.9605 269.914 72.0202C269.092 72.1431 268.954 72.6643 268.956 73.013C268.946 73.0203 268.936 73.0303 268.926 73.0393C268.876 73.0849 268.822 73.1357 268.777 73.2002C268.709 73.2957 268.628 73.3937 268.544 73.4898C268.308 73.7705 268.063 74.0592 268.073 74.4026C268.091 74.903 267.91 75.327 267.717 75.7758L267.601 76.0504C267.481 76.3417 267.354 76.6297 267.226 76.9168C266.816 77.8277 266.396 78.7697 266.304 79.8325C266.261 80.3214 266.193 80.7902 266.103 81.2267C265.853 82.4637 265.907 83.6796 266.264 84.7431C266.625 85.8293 267.405 86.7819 268.582 87.5802C268.802 87.728 269.033 87.8572 269.261 87.987C269.444 88.0896 269.627 88.1927 269.805 88.3055C269.887 88.3585 269.967 88.4482 270.052 88.5444L270.156 88.6606C270.263 88.7733 270.367 88.8863 270.476 89.0058L270.532 89.0687C270.439 89.4672 270.605 89.8572 270.985 90.0977C271.166 90.2104 271.36 90.2835 271.548 90.3516C271.716 90.4134 271.875 90.4729 272.008 90.5543C272.878 91.1019 273.81 91.2297 274.768 91.3259C276.089 91.4538 277.464 91.4488 279.239 91.306C280.134 91.2361 281.036 91.1135 281.908 90.9956C282.243 90.9491 282.578 90.9043 282.915 90.8612C283.136 90.8347 283.322 90.8596 283.369 90.9276C283.403 90.9804 283.41 91.1199 283.306 91.3823L283.282 91.4453C283.043 92.0361 282.812 92.534 282.57 92.967C282.524 93.0487 282.476 93.128 282.429 93.2078L282.344 93.3538C282.18 93.6328 282.011 93.9116 281.843 94.1869C281.396 94.9237 280.933 95.6837 280.568 96.4853C280.438 96.7692 280.282 97.0678 280.08 97.4181L280.071 97.4315C279.774 97.9408 279.447 98.4237 279.067 98.9085C278.944 99.0676 278.814 99.2186 278.65 99.4114L278.643 99.4178C278.474 99.6139 278.301 99.811 278.13 100.009L277.831 100.352C277.59 100.629 277.351 100.908 277.114 101.187C276.538 101.857 275.943 102.551 275.325 103.198C275.058 103.477 274.746 103.736 274.442 103.983C274.007 104.343 273.554 104.715 273.203 105.173C272.754 105.761 272.191 106.179 271.596 106.619C271.354 106.796 271.113 106.976 270.879 107.165C270.743 107.274 270.65 107.417 270.565 107.543C270.522 107.605 270.482 107.666 270.435 107.724L270.344 107.838C270.253 107.958 270.165 108.067 270.07 108.134C269.647 108.421 269.218 108.705 268.788 108.985C268.383 109.252 267.976 109.521 267.574 109.793C267.464 109.868 267.39 109.966 267.32 110.05C267.275 110.108 267.232 110.165 267.194 110.19C266.75 110.48 266.302 110.762 265.852 111.043C265.557 111.227 265.259 111.413 264.965 111.6C264.859 111.668 264.779 111.754 264.71 111.831L264.416 112.143C264.131 112.443 263.843 112.745 263.561 113.051L263.363 113.262C262.955 113.703 262.533 114.156 262.143 114.626C261.968 114.832 261.964 115.218 262.075 115.426C262.191 115.64 262.502 115.738 262.688 115.738L262.819 115.721C263.212 115.62 263.601 115.499 263.988 115.374L264.502 115.213C264.743 115.14 264.989 115.068 265.233 115.004C265.402 114.964 265.575 114.925 265.746 114.885C266.071 114.812 266.395 114.737 266.714 114.643C266.913 114.581 267.084 114.466 267.235 114.367L267.365 114.284C267.665 114.095 268.013 113.975 268.376 113.853C269.035 113.627 269.721 113.395 270.211 112.711C270.329 112.545 270.576 112.432 270.837 112.31C270.985 112.243 271.133 112.173 271.265 112.093L271.441 111.987C271.926 111.695 272.413 111.403 272.889 111.098C272.999 111.028 273.085 110.935 273.16 110.859C273.208 110.806 273.256 110.753 273.311 110.713C273.492 110.584 273.678 110.461 273.861 110.338C274.101 110.179 274.34 110.019 274.571 109.85L274.704 109.754C275.001 109.548 275.309 109.332 275.302 109.024C275.302 108.977 275.305 108.954 275.302 108.944C275.32 108.937 275.347 108.929 275.37 108.924C275.42 108.908 275.47 108.891 275.521 108.869C275.885 108.708 276.241 108.538 276.614 108.358L277.583 107.895L277.157 107.626L278.115 107.321L278.143 107.155C278.156 107.065 278.199 106.992 278.257 106.961C278.43 106.863 278.612 106.783 278.795 106.703L279.31 106.471L279.026 105.983C279.154 105.882 279.285 105.784 279.42 105.684L279.474 105.646C279.612 105.548 279.785 105.429 279.741 105.233C279.803 105.23 279.868 105.223 279.932 105.2C280.029 105.163 280.145 105.14 280.258 105.115C280.563 105.05 280.879 104.981 281.012 104.724C281.12 104.513 281.301 104.432 281.53 104.327C281.688 104.257 281.869 104.174 282.025 104.038C282.148 103.932 282.284 103.842 282.418 103.753C282.78 103.511 283.187 103.238 283.36 102.697C283.833 102.824 284.095 102.505 284.291 102.216L284.497 101.917C284.791 101.491 285.093 101.051 285.425 100.654C285.505 100.56 285.592 100.47 285.681 100.387C285.764 100.306 285.85 100.224 285.938 100.145C286.139 99.9639 286.347 99.7764 286.526 99.5557C286.667 99.3849 286.715 99.169 286.759 98.9832C286.783 98.8803 286.805 98.7809 286.845 98.6928C286.907 98.5584 287.014 98.4157 287.166 98.2695C287.204 98.2314 287.282 98.2014 287.328 98.1834L287.63 98.0271L287.529 97.7965C287.501 97.7285 287.466 97.6655 287.436 97.6058L287.405 97.5458C287.41 97.5426 287.416 97.541 287.42 97.5361C287.488 97.5013 287.554 97.463 287.609 97.4199L287.714 97.3383C287.848 97.2338 288.001 97.1178 288.127 96.9085C288.437 96.3908 288.761 95.8565 289.015 95.2956C289.221 94.8441 289.643 94.685 290.113 94.5206L288.447 97.3305H288.446L288.052 97.996L287.969 98.1818L288.366 98.6615L288.577 98.5054C288.627 98.4689 288.678 98.4339 288.731 98.3991C288.868 98.3077 289.024 98.2049 289.142 98.0605C289.191 98.0008 289.238 97.9212 289.284 97.8514H289.291L289.367 97.7287C289.367 97.7287 289.367 97.7271 289.371 97.7252L289.424 97.6355C289.497 97.5147 289.57 97.3934 289.653 97.2804C290.023 96.7858 290.249 96.3313 290.363 95.85C290.387 95.7405 290.428 95.6309 290.48 95.4967L290.61 95.1397L290.347 94.433C290.603 94.335 290.84 94.1906 290.908 93.8853H290.958L290.927 93.5897Z" fill="#E5347E"/>
<path d="M296.312 72.2525C296.199 72.4797 295.931 72.9736 295.837 73.1634C295.74 73.3534 295.666 73.3354 295.571 73.6772C295.475 74.0191 295.418 74.1702 295.418 74.1702L297.318 73.8476L297.565 72.1582L296.312 72.2525Z" fill="#E5347E"/>
<path d="M302.81 70.9219H302.517V71.4641H302.81V70.9219Z" fill="#E5347E"/>
<path fill-rule="evenodd" clip-rule="evenodd" d="M350.505 79.6984C350.535 79.7115 350.563 79.7247 350.593 79.7374C350.729 79.4434 350.867 79.1486 351.005 78.8539C350.975 78.8392 350.942 78.8249 350.908 78.8105C350.774 79.1063 350.638 79.4028 350.505 79.6984Z" fill="url(#paint2_linear)"/>
<path fill-rule="evenodd" clip-rule="evenodd" d="M348.856 84.3028C349.048 84.3942 349.176 84.4553 349.351 84.536C349.397 83.9177 349.756 83.4681 350.129 83.0233C350.211 82.9287 350.219 82.7735 350.26 82.6448C350.222 82.6273 350.184 82.6109 350.146 82.5918C349.571 83.0631 349.161 83.6537 348.856 84.3028Z" fill="url(#paint3_linear)"/>
<path fill-rule="evenodd" clip-rule="evenodd" d="M349.566 84.7596C349.505 84.9945 349.319 85.1938 349.206 85.4191C349.083 85.6716 348.98 85.9303 348.866 86.1893C348.912 86.2158 348.958 86.2423 349.003 86.2691C349.412 85.6866 349.817 85.1039 350.259 84.4734C349.82 84.3272 349.654 84.4185 349.566 84.7596Z" fill="url(#paint4_linear)"/>
<path fill-rule="evenodd" clip-rule="evenodd" d="M352.993 78.0135C353.304 77.6153 353.591 77.1928 353.735 76.7032C353.693 76.6841 353.649 76.6626 353.608 76.6426C353.404 77.0999 353.198 77.5564 352.993 78.0135Z" fill="url(#paint5_linear)"/>
<path fill-rule="evenodd" clip-rule="evenodd" d="M352.353 79.3271C352.383 79.3405 352.413 79.3543 352.443 79.367C352.579 79.073 352.717 78.7765 352.855 78.4828C352.823 78.4678 352.792 78.4545 352.758 78.4395C352.624 78.7352 352.488 79.0324 352.353 79.3271Z" fill="url(#paint6_linear)"/>
<path fill-rule="evenodd" clip-rule="evenodd" d="M347.415 60.7754V60.7773C346.819 60.8518 346.222 60.9281 345.628 61.0097C344.544 61.1587 343.461 61.3065 342.382 61.4691C341.499 61.6037 340.643 61.8443 339.843 62.255C339.73 62.3131 339.604 62.3929 339.546 62.4973C339.454 62.6624 339.328 62.7132 339.162 62.7148C338.795 62.7219 338.426 62.7129 338.061 62.7346C337.769 62.7512 337.429 62.7219 337.198 62.8598C336.937 63.0159 336.663 63.0796 336.432 63.0125C336.08 62.9115 335.919 63.0904 335.728 63.2947C335.622 63.411 335.512 63.5237 335.398 63.6323C335.366 63.6648 335.315 63.6897 335.268 63.7006C335.066 63.7495 334.679 64.1493 334.674 64.3502C334.657 64.7835 334.664 65.2182 334.652 65.6512C334.649 65.7631 334.609 65.8745 334.587 65.9865C334.534 66.257 334.403 66.5407 334.451 66.7913C334.507 67.0934 334.698 67.3787 334.866 67.6459C334.976 67.8203 335.185 67.9296 335.296 68.1023C335.61 68.5918 336.132 68.8084 336.582 69.1112C336.779 69.2431 337.027 69.303 337.258 69.38C337.312 69.3983 337.398 69.3775 337.448 69.3427C337.621 69.2258 337.792 69.1003 337.95 68.962C338.01 68.9096 338.031 68.8118 338.071 68.7355C337.56 68.8792 337.56 68.8792 337.374 68.7397C337.468 68.7016 337.543 68.6636 337.618 68.6435C337.829 68.5905 338.056 68.5773 338.249 68.4908C338.476 68.388 338.682 68.3855 338.901 68.48C338.918 68.4867 338.926 68.5215 338.946 68.5556C338.874 68.5681 338.811 68.5789 338.672 68.6038C338.837 68.6991 338.933 68.7729 339.041 68.8135C339.333 68.9239 339.431 69.2085 339.524 69.4409C339.601 69.6268 339.843 69.7744 339.733 70.031C339.73 70.0384 339.798 70.0949 339.833 70.0974C340.218 70.1182 340.394 70.3986 340.567 70.6839C340.73 70.9555 340.984 71.0717 341.286 71.0955C341.356 71.1019 341.485 71.0673 341.495 71.0242C341.565 70.7777 341.8 70.7909 341.955 70.6815C342.415 70.352 342.95 70.3188 343.463 70.2077C344.16 70.0575 344.866 69.9429 345.571 69.8251C345.595 69.8216 345.616 69.8186 345.641 69.8143C345.617 69.8857 345.598 69.9605 345.57 70.0308C345.238 70.8879 344.894 71.7393 344.547 72.5907C344.233 73.3607 343.908 74.1233 343.586 74.89C343.381 75.3805 343.167 75.8657 342.981 76.3628C342.802 76.84 342.656 77.3311 342.491 77.8133C342.473 77.8664 342.425 77.9097 342.398 77.9611C342.182 78.3984 341.96 78.8314 341.759 79.2753C341.601 79.6189 341.487 79.98 341.334 80.3243C341.213 80.5907 341.053 80.8372 340.927 81.1026C340.709 81.5541 340.526 82.022 340.296 82.4659C339.951 83.1289 339.567 83.7709 339.221 84.4322C338.83 85.1798 338.472 85.9434 338.081 86.69C337.779 87.2712 337.452 87.8384 337.141 88.4159C336.844 88.9718 336.554 89.5345 336.27 90.0822C336.309 90.1087 336.353 90.132 336.452 90.1949C336.235 90.3012 336.022 90.4903 335.911 90.4438C335.617 90.316 335.569 90.4968 335.473 90.6727C335.328 90.9352 335.214 91.2306 335.018 91.4512C334.596 91.9309 334.313 92.4834 334.038 93.0442C333.865 93.3945 333.802 93.8225 333.342 93.9588C333.301 93.9722 333.272 94.0485 333.246 94.1015C333.07 94.4417 332.889 94.7818 332.721 95.1268C332.612 95.3525 332.524 95.5917 332.426 95.8239C332.442 95.8303 332.459 95.8373 332.476 95.8421C332.572 95.731 332.672 95.618 332.768 95.5087L332.821 95.552C332.771 95.6645 332.725 95.7743 332.663 95.9203C332.926 95.9071 333.075 95.8656 333.146 95.5917C333.216 95.3263 333.397 95.0906 333.528 94.8399C333.575 94.8514 333.623 94.8616 333.669 94.8699C333.643 94.9596 333.618 95.0507 333.593 95.1385C333.82 94.991 333.966 94.9312 334.078 95.225C334.237 95.0871 334.388 94.9561 334.543 94.8249C334.447 95.0309 334.362 95.243 334.276 95.4556C334.291 95.4623 334.307 95.4674 334.325 95.4722C334.422 95.3625 334.52 95.2497 334.618 95.1404L334.669 95.1835C334.621 95.2963 334.573 95.406 334.512 95.5522C334.774 95.5386 334.923 95.4957 334.995 95.2234C335.066 94.958 335.246 94.7223 335.378 94.4716C335.425 94.4816 335.471 94.4899 335.518 94.4998C335.493 94.5911 335.468 94.679 335.443 94.7705C335.669 94.6227 335.815 94.5595 335.929 94.8565C336.303 94.533 336.644 94.2376 337.019 93.9092C337.012 93.8776 336.989 93.7881 336.961 93.665C337.047 93.6735 337.107 93.6634 337.153 93.6835C337.407 93.7895 337.6 93.8195 337.745 93.4907C337.811 93.3382 338.04 93.2419 338.211 93.1572C338.583 92.9748 339.01 92.8768 339.251 92.5085C339.278 92.5251 339.309 92.5385 339.337 92.5519C339.383 92.4922 339.433 92.4255 339.479 92.3644C339.458 92.4924 339.438 92.6086 339.42 92.7177C339.453 92.7412 339.486 92.7643 339.52 92.7892C339.828 92.5254 340.068 92.1769 340.361 91.8666C340.338 91.9364 340.313 92.0109 340.287 92.0808C340.331 92.1041 340.373 92.1255 340.416 92.1472C340.589 91.9214 340.762 91.6991 340.932 91.4715C340.848 91.6807 340.784 91.8366 340.737 91.9593C340.924 92.054 341.052 92.1172 341.186 92.1836C341.419 91.8783 341.668 91.5529 341.91 91.2276C342.038 91.0567 342.183 90.9986 342.357 91.0848C342.279 91.3074 342.208 91.5114 342.137 91.7104C342.18 91.7321 342.223 91.7554 342.266 91.7769C342.6 91.3389 342.929 90.8925 343.271 90.4608C343.334 90.381 343.447 90.3446 343.536 90.2865C343.53 90.3877 343.526 90.4873 343.515 90.5904C343.506 90.6518 343.485 90.7113 343.458 90.8143C343.563 90.7927 343.653 90.7961 343.679 90.7597C344.013 90.3017 344.335 89.8336 344.665 89.374C344.808 89.178 344.864 88.8877 345.233 88.8229C345.082 89.1381 344.959 89.3904 344.813 89.6941C344.931 89.674 344.999 89.6793 345.014 89.6542C345.278 89.1992 345.562 88.7548 345.791 88.2835C345.982 87.8917 346.027 87.4104 346.552 87.2778C346.588 87.2679 346.616 87.2117 346.641 87.1715C346.801 86.893 346.96 86.6105 347.119 86.3319C347.086 86.408 347.052 86.4811 347.018 86.5577C347.065 86.5842 347.111 86.6105 347.156 86.6372C347.254 86.498 347.355 86.3552 347.454 86.2125L347.068 86.999C347.106 87.0156 347.145 87.0355 347.183 87.0553C347.516 86.4249 347.849 85.7976 348.182 85.1685C348.259 85.0588 348.332 84.9545 348.41 84.8425C348.232 84.7825 348.109 84.7735 348.008 84.7927C348.304 84.2913 348.599 83.7909 348.895 83.2898C348.914 83.2608 348.938 83.2276 348.966 83.2151C349.195 83.1289 349.21 82.9605 349.169 82.7546C349.157 82.694 349.185 82.6176 349.214 82.5579C349.441 82.1064 349.675 81.6586 349.906 81.2071C349.893 81.2006 349.881 81.1939 349.869 81.1863C349.645 81.5225 349.424 81.8576 349.202 82.1954C349.18 82.182 349.16 82.1705 349.14 82.159C349.202 82.0119 349.26 81.8659 349.321 81.7183C349.297 81.7001 349.268 81.6819 349.243 81.6618C349.119 81.7515 348.994 81.8387 348.883 81.9192C348.876 81.6537 349.552 81.5225 349.022 81.0943C349.133 81.0528 349.291 81.0081 349.356 81.0652C349.529 81.2262 349.615 81.1026 349.685 80.9898C349.75 80.8851 349.773 80.7516 349.811 80.6296C349.909 80.3308 349.944 79.9957 350.11 79.7409C350.463 79.199 350.854 78.6806 351.242 78.1636C351.21 78.2358 351.178 78.308 351.146 78.3801C351.31 78.1684 351.468 77.9494 351.599 77.7179C351.71 77.6118 351.836 77.5154 351.925 77.3943C352.185 77.0367 352.416 76.6585 352.663 76.2934C352.83 76.0485 353.034 75.8288 353.17 75.5723C353.342 75.2428 353.505 74.9084 353.665 74.5725C353.5 74.9931 353.333 75.4114 353.158 75.8269C353.469 75.3547 353.751 74.8709 354.019 74.3813C353.975 74.5796 353.931 74.7779 353.886 74.9756C353.909 74.9929 353.936 75.012 353.956 75.0302C354.11 74.7885 354.366 74.6601 354.452 74.3347C354.562 73.9224 354.713 73.5126 354.905 73.1289C355.189 72.5605 355.528 72.0156 355.792 71.5507C355.741 71.3498 355.666 71.2281 355.698 71.14C355.796 70.842 355.937 70.5577 356.058 70.2655C356.333 69.5943 356.855 69.0623 356.996 68.2939C357.021 68.1588 357.058 68.0225 357.094 67.8881C357.451 67.8316 357.805 67.7718 358.162 67.7181C356.926 70.2213 356.09 72.8909 355.009 75.4575C356.583 73.0687 357.569 70.4307 358.311 67.6941C358.469 67.6701 358.625 67.6425 358.784 67.6178C359.389 67.5265 359.997 67.4552 360.598 67.3614C361.727 67.1889 362.888 67.2544 363.975 66.8421C364.259 66.7332 364.613 66.8278 364.834 66.5317C364.868 66.4869 364.98 66.4927 365.058 66.4853C365.448 66.4445 365.838 66.4214 366.227 66.3649C366.887 66.2688 367.543 66.1417 368.204 66.0463C368.707 65.9748 369.212 65.931 369.715 65.8738C370.059 65.8348 370.404 65.8083 370.745 65.7502C371.203 65.672 371.659 65.5691 372.115 65.4781C372.253 65.4515 372.392 65.4255 372.532 65.4114C373.049 65.3561 373.543 65.1119 374.084 65.1884C374.159 65.1999 374.241 65.161 374.317 65.1492C374.79 65.0793 375.262 64.9783 375.738 64.9468C376.495 64.8969 377.256 64.8896 377.973 64.5983C377.995 64.5891 378.025 64.59 378.05 64.5926C378.417 64.6165 378.783 64.6465 379.15 64.6673C379.247 64.6728 379.349 64.6728 379.438 64.6407C380.266 64.331 381.156 64.4316 382.01 64.2665C382.342 64.2001 382.7 64.2621 383.047 64.2517C383.11 64.249 383.174 64.1752 383.235 64.1346C383.181 64.0698 383.132 63.9577 383.07 63.9476C382.898 63.9229 382.72 63.942 382.546 63.942C382.468 63.942 382.373 63.9669 382.312 63.9319C382.132 63.8283 381.97 63.767 381.791 63.9386C381.762 63.966 381.653 63.9577 381.622 63.9268C381.46 63.7562 381.264 63.8034 381.08 63.8415C380.927 63.8724 380.78 63.9476 380.616 64.0098C380.583 63.8083 380.485 63.7891 380.286 63.8309C380.133 63.8639 379.955 64.0066 379.771 63.8424C379.688 63.7677 379.545 63.7236 379.431 63.7236C379.062 63.7236 378.694 63.7502 378.348 63.767C378.328 63.6351 378.336 63.5106 378.303 63.4981C378.121 63.4273 377.926 63.3312 377.742 63.3427C377.305 63.3727 376.877 63.4707 376.442 63.5138C376.36 63.5203 376.267 63.3967 376.183 63.3356C376.253 63.2565 376.309 63.1504 376.397 63.1082C376.523 63.0473 376.671 63.0344 376.81 62.9986C376.872 63.1801 377.123 63.1861 377.408 62.9687C377.304 62.9348 377.222 62.9099 377.089 62.8681C377.196 62.8208 377.259 62.771 377.33 62.7637C377.85 62.7005 378.373 62.644 378.894 62.5868C379.353 62.5354 379.813 62.4881 380.271 62.4291C380.404 62.4115 380.497 62.3354 380.47 62.1749C380.442 61.9935 380.319 62.0472 380.209 62.0596C380.045 62.0797 379.88 62.112 379.715 62.1196C379.311 62.1394 378.907 62.1413 378.505 62.1634C377.753 62.2042 377.005 62.2586 376.253 62.2979C375.703 62.3267 375.153 62.346 374.605 62.3617C374.291 62.3689 373.977 62.3631 373.675 62.3631C373.78 62.2081 374.147 62.3677 374.112 61.9847C373.933 61.9955 373.762 61.9932 373.596 62.0172C373.376 62.0488 373.159 62.1053 372.941 62.1427C372.822 62.1625 372.699 62.1733 372.58 62.1708C372.467 62.1676 372.357 62.1217 372.248 62.126C372.083 62.1325 371.919 62.1768 371.753 62.1826C371.303 62.1998 370.851 62.1982 370.398 62.2199C369.504 62.2614 368.611 62.3151 367.716 62.3592C367.676 62.362 367.635 62.3276 367.595 62.311C367.675 62.2365 367.754 62.2123 367.836 62.1957C368.04 62.1551 368.243 62.1113 368.45 62.0797C368.663 62.0472 368.878 62.025 369.093 62.0082C369.367 61.9833 369.639 61.9766 369.911 61.9476C370.247 61.9102 370.579 61.8528 370.911 61.8147C371.112 61.7924 371.313 61.7956 371.513 61.7758C372.05 61.7195 372.585 61.6349 373.123 61.6049C373.762 61.5685 374.406 61.5768 375.047 61.565C375.092 61.5641 375.135 61.547 375.177 61.5417C375.386 61.5145 375.593 61.4801 375.801 61.4635C376.294 61.4271 376.789 61.3983 377.282 61.3648C377.324 61.3623 377.364 61.3402 377.407 61.3323C377.482 61.3199 377.556 61.3077 377.634 61.3017C377.983 61.2742 378.335 61.2502 378.687 61.2219C378.697 61.2212 378.702 61.1787 378.727 61.1066C378.624 61.1066 378.543 61.1033 378.463 61.1075C377.741 61.1474 377.016 61.193 376.294 61.2276C375.637 61.2601 374.983 61.28 374.325 61.3033C374.104 61.3113 373.882 61.3107 373.661 61.3256C373.267 61.3522 372.877 61.4029 372.483 61.416C372.014 61.4336 371.544 61.416 371.074 61.4287C370.891 61.4336 370.698 61.613 370.52 61.3517C370.951 61.3026 371.366 61.2454 371.783 61.209C372.276 61.1649 372.773 61.1474 373.269 61.1001C373.648 61.0644 374.023 60.9797 374.403 60.9491C374.87 60.9126 375.34 60.9159 375.808 60.8877C375.919 60.8801 376.036 60.768 376.135 60.784C376.56 60.8511 376.962 60.8188 377.39 60.7422C377.741 60.68 378.111 60.6926 378.483 60.6368C379.414 60.4992 380.364 60.481 381.307 60.4111C381.486 60.3963 381.666 60.3564 381.845 60.3382C382.124 60.3101 382.403 60.2628 382.679 60.2736C382.876 60.2819 383.075 60.4298 383.22 60.1699C383.235 60.1459 383.32 60.16 383.371 60.16C383.466 60.159 383.559 60.1689 383.654 60.16C383.947 60.1309 384.239 60.0645 384.532 60.067C385.199 60.0696 385.863 60.1088 386.528 60.1261C387.081 60.1408 387.632 60.1309 388.183 60.16C388.731 60.189 389.279 60.0031 389.829 60.1657C389.917 60.1922 390.023 60.1549 390.123 60.1491C390.06 60.0852 389.996 60.0536 389.93 60.0472C389.462 60.0034 388.992 59.9709 388.524 59.9204C388.393 59.9058 388.266 59.8396 388.138 59.7984C388.147 59.7642 388.153 59.731 388.16 59.6987C390.111 59.6496 392.054 59.7924 394 59.9757C393.849 59.8888 393.678 59.8812 393.542 59.809C393.108 59.5807 392.636 59.5625 392.169 59.5166C391.931 59.4942 391.642 59.5781 391.508 59.2668C391.5 59.2461 391.446 59.2396 391.413 59.2352C391.028 59.188 390.642 59.1165 390.258 59.0994C389.108 59.0519 387.959 59.0261 386.81 58.989C386.593 58.9816 386.359 59.0321 386.204 58.7964C386.174 58.7517 386.078 58.7383 386.012 58.7325C385.62 58.7009 385.228 58.6604 384.834 58.6472C383.441 58.6016 382.05 58.531 380.657 58.5444C380.119 58.5485 379.616 58.3345 379.047 58.4623C378.445 58.6002 377.801 58.5594 377.173 58.566C376.819 58.5702 376.461 58.4724 376.11 58.4913C375.503 58.5238 374.9 58.582 374.29 58.5444C374.096 58.5319 373.9 58.5354 373.708 58.5534C373.572 58.566 373.44 58.6223 373.306 58.6507C373.246 58.6631 373.163 58.6781 373.117 58.6498C372.874 58.5038 372.306 58.5303 372.119 58.6846C372.027 58.6507 371.954 58.5939 371.886 58.6016C371.414 58.6564 370.945 58.7245 370.471 58.7849C370.41 58.7925 370.344 58.795 370.282 58.7877C370.166 58.7701 370.053 58.7238 369.94 58.727C369.311 58.7443 368.681 58.7651 368.052 58.8043C367.797 58.8183 367.539 58.8647 367.292 58.9276C367.101 58.9767 366.933 59.0249 366.744 58.9062C366.649 58.8471 366.51 58.8423 366.392 58.843C366.238 58.8448 366.081 58.8746 365.927 58.896C365.688 58.9302 365.448 58.9682 365.208 59.0033C365.14 59.015 365.053 58.9707 364.969 58.9767C364.271 59.0365 363.576 59.0996 362.88 59.1748C362.75 59.1905 362.625 59.2645 362.523 59.3028C362.446 59.2721 362.369 59.2099 362.295 59.2147C361.982 59.2371 361.664 59.2572 361.356 59.3194C361.235 59.3441 361.113 59.3591 360.992 59.3798C360.999 59.3452 361.004 59.3137 360.994 59.3037C360.801 59.1086 360.947 58.9451 361.04 58.8024C361.635 57.907 361.628 56.9262 361.478 55.9222C361.47 55.8777 361.417 55.8404 361.322 55.7156C361.314 56.0608 361.311 56.308 361.306 56.6159C360.801 56.0666 361.352 55.5062 361.146 55.0003C360.667 55.123 360.364 54.8425 360.439 54.3781C360.452 54.2999 360.459 54.2105 360.439 54.1348C360.359 53.8304 360.29 53.5217 360.17 53.233C360.129 53.1331 359.957 53.0337 359.843 53.0296C359.625 53.0187 359.481 52.998 359.453 52.7374C359.446 52.6592 359.315 52.5963 359.212 52.5017C359.156 52.6636 359.121 52.7648 359.096 52.8329C358.86 52.8188 358.656 52.8089 358.369 52.7914C358.371 52.5391 358.374 52.2647 358.379 51.8796C358.14 51.7735 357.803 51.6141 357.461 51.4705C357.407 51.4474 357.314 51.4672 357.261 51.4998C357.014 51.6531 356.81 51.6109 356.662 51.3709C356.57 51.2221 356.509 51.054 356.418 50.8624C356.351 50.8656 356.247 50.864 356.147 50.8804C355.749 50.9433 355.353 51.0282 354.955 51.0681C354.865 51.0761 354.709 50.9551 354.672 50.8596C354.563 50.5776 354.422 50.5029 354.146 50.62C354.03 50.6682 353.875 50.7519 353.792 50.7106C353.583 50.606 353.399 50.5379 353.168 50.6359C353.102 50.6641 352.994 50.5986 352.906 50.5679C352.673 50.4814 352.447 50.3687 352.211 50.3089C351.723 50.1879 351.232 50.0901 350.737 49.9928C350.652 49.9762 350.549 49.9937 350.465 50.0212C350.046 50.1544 349.63 50.2972 349.214 50.4319C349.104 50.4102 348.997 50.3837 348.889 50.362C348.803 50.3454 348.701 50.3629 348.615 50.3901C348.129 50.5453 347.645 50.7155 347.159 50.8682C347.051 50.9027 346.926 50.879 346.815 50.8979C346.651 50.9244 346.49 50.9668 346.327 51.0014C346.397 51.1352 346.455 51.2754 346.536 51.4015C346.803 51.8256 347.333 52.0578 347.398 52.6412C347.442 53.027 347.496 53.4393 347.672 53.7762C347.971 54.3504 347.913 54.9355 347.896 55.5327C347.884 55.9907 347.855 56.4531 347.913 56.9036C347.994 57.5632 348.095 58.2054 347.894 58.8661C347.736 59.3812 347.612 59.9065 347.493 60.4318L347.415 60.7754ZM338.261 67.5631C337.859 67.6468 337.458 67.7193 337.055 67.788C336.906 67.812 336.733 67.8618 336.693 67.6047C336.974 67.5166 337.249 67.4278 337.54 67.3367C337.829 67.6554 338.159 67.3242 338.553 67.3939C338.425 67.47 338.348 67.544 338.261 67.5631ZM339.847 64.0006C339.843 63.975 339.84 63.951 339.838 63.9268C340.296 63.8251 340.756 63.7469 341.226 63.7518C341.231 63.7834 341.233 63.8143 341.238 63.8456C340.773 63.8971 340.309 63.9494 339.847 64.0006ZM345.764 82.7685C345.791 82.7867 345.816 82.8058 345.84 82.8222C345.891 82.7848 345.948 82.7532 345.988 82.7078C345.902 82.8556 345.821 83.0057 345.733 83.1526C345.64 83.3094 345.537 83.4612 345.439 83.6164C345.382 83.6489 345.316 83.6869 345.226 83.74C345.299 83.4197 345.356 83.1734 345.412 82.9278C345.392 82.9204 345.374 82.913 345.354 82.9038C345.128 83.2426 344.903 83.5802 344.675 83.9185C344.577 83.9468 344.483 83.9733 344.39 84.0001C344.388 83.9976 344.388 83.9966 344.385 83.9943C344.39 83.9869 344.391 83.977 344.396 83.9687C344.637 83.5811 344.898 83.2078 345.15 82.827C345.17 82.798 345.187 82.7622 345.215 82.7449C345.645 82.4904 345.975 82.1408 346.228 81.7112C346.244 81.6821 346.306 81.6786 346.407 81.7137C346.193 82.0656 345.98 82.4175 345.764 82.7685ZM346.347 80.753C346.141 81.0417 345.874 81.2871 345.633 81.5511C345.608 81.5403 345.585 81.5287 345.56 81.5172C345.625 81.353 345.691 81.1803 345.754 81.0143C345.972 80.7431 346.186 80.4666 346.379 80.1705C346.621 79.802 346.996 79.5184 347.361 79.2304C347.041 79.7487 346.699 80.2551 346.347 80.753ZM349.535 78.9158C349.311 79.2172 349.067 79.505 348.846 79.8103C348.782 79.9033 348.765 80.0368 348.74 80.153C348.736 80.1677 348.86 80.2325 348.871 80.2201C348.947 80.1421 349.009 80.0508 349.075 79.9648C349.191 79.8129 349.306 79.6625 349.489 79.5481C349.424 79.675 349.372 79.8119 349.294 79.9298C349.065 80.2648 348.813 80.5861 348.59 80.9243C348.489 81.0772 348.444 81.2689 348.356 81.4305C348.103 81.8846 347.846 82.3368 347.582 82.783C347.499 82.92 347.411 83.0509 347.327 83.1854C347.323 83.1637 347.323 83.1439 347.32 83.1224C347.307 83.0627 347.335 82.9855 347.365 82.9264C347.591 82.4751 347.826 82.0264 348.057 81.5758C348.044 81.5684 348.031 81.5624 348.021 81.555C347.797 81.891 347.574 82.227 347.352 82.5639C347.332 82.5505 347.312 82.5392 347.29 82.5266C347.352 82.3806 347.411 82.2337 347.471 82.0861C347.446 82.0679 347.419 82.0497 347.395 82.0305C347.268 82.1193 347.146 82.2074 347.034 82.287C347.028 82.0215 347.7 81.891 347.174 81.463C347.285 81.4206 347.443 81.3766 347.506 81.4347C347.68 81.5949 347.763 81.4713 347.836 81.3576C347.901 81.2539 347.923 81.1204 347.962 80.9991C348.059 80.7004 348.093 80.3635 348.26 80.1096C348.512 79.7264 348.779 79.3553 349.053 78.9871C349.231 78.8469 349.41 78.7064 349.578 78.5595C349.588 78.5496 349.621 78.5614 349.716 78.5669C349.65 78.6993 349.606 78.8204 349.535 78.9158ZM350.636 78.613C350.774 77.785 351.314 76.8566 351.808 76.4698C351.843 76.4887 351.88 76.5088 351.914 76.527C351.488 77.2223 351.063 77.9175 350.636 78.613ZM375.93 63.3411C375.868 63.7038 375.568 63.5071 375.412 63.6815C375.368 63.5703 375.341 63.4972 375.296 63.378C375.528 63.3637 375.724 63.3545 375.93 63.3411ZM378.743 63.518C378.949 63.562 379.101 63.6307 379.248 63.6176C379.563 63.5887 379.873 63.5179 380.188 63.4598C380.231 63.4525 380.269 63.4193 380.32 63.3927C380.026 63.1801 379.138 63.2292 378.743 63.518ZM381.984 63.1986H381.277C381.421 63.4075 381.81 63.3819 381.984 63.1986ZM378.839 61.164C378.887 61.2039 378.94 61.2786 378.983 61.2735C379.166 61.2553 379.347 61.2113 379.53 61.1774C379.528 61.1508 379.526 61.125 379.526 61.0994C379.347 61.0849 379.166 61.0628 378.989 61.0628C378.937 61.0625 378.889 61.128 378.839 61.164ZM382.562 63.1942C382.622 63.2265 382.678 63.2763 382.738 63.2846C382.809 63.2938 382.887 63.2638 382.962 63.2523C382.965 63.2274 382.97 63.2006 382.972 63.176C382.897 63.152 382.822 63.107 382.746 63.1089C382.685 63.1098 382.623 63.1635 382.562 63.1942Z" fill="url(#paint7_linear)"/>
<path fill-rule="evenodd" clip-rule="evenodd" d="M314.795 61.445C314.692 61.4904 314.596 61.5453 314.489 61.5817C314.41 61.6117 314.32 61.6149 314.237 61.6354C314.141 61.6562 314.036 61.6603 313.958 61.7076C313.757 61.8238 313.435 61.8303 313.234 61.7035C313.198 61.6795 313.151 61.6527 313.111 61.656C312.792 61.6933 312.67 61.4461 312.513 61.2455C312.384 61.0762 312.241 60.9194 312.118 60.7476C311.931 60.4822 311.736 60.2175 311.589 59.9294C311.486 59.7337 311.446 59.5021 311.409 59.2822C311.379 59.1032 311.396 58.9146 311.397 58.731C311.401 58.4665 311.366 58.4149 311.115 58.3378C310.812 58.2424 310.562 57.9403 310.565 57.6682C310.565 57.6184 310.582 57.572 310.597 57.513C310.963 57.6228 311.306 57.605 311.638 57.4452C311.701 57.415 311.768 57.3606 311.795 57.3015C312.059 56.6967 312.394 56.1347 312.802 55.6179C313.141 55.1865 313.498 54.7631 313.875 54.3632C314.169 54.0508 314.494 53.7627 314.83 53.4943C315.29 53.1267 315.753 52.7552 316.251 52.4499C316.636 52.2143 317.026 51.9793 317.453 51.8068C317.839 51.6509 318.232 51.6087 318.624 51.5222C318.692 51.5075 318.772 51.5305 318.842 51.5538C319.052 51.6228 319.265 51.6998 319.474 51.7782C319.507 51.7904 319.539 51.8137 319.557 51.8416C319.677 52.0542 319.806 52.2684 319.911 52.4884C320.062 52.7979 320.047 53.1131 319.907 53.4217C319.783 53.7005 319.671 53.9885 319.519 54.2539C319.414 54.44 319.251 54.5966 319.113 54.7626C318.949 54.9593 318.801 55.1683 318.617 55.3426C318.315 55.6371 317.989 55.9043 317.659 56.1709C317.156 56.5749 316.593 56.8763 316.055 57.2171C315.592 57.5116 315.075 57.6991 314.554 57.8619C314.281 57.9456 314.004 58.0072 313.732 58.0835C313.692 58.0943 313.637 58.1234 313.627 58.1557C313.528 58.4591 313.436 58.7647 313.342 59.0682C313.361 59.0848 313.38 59.1016 313.4 59.1196C313.523 59.0682 313.649 59.026 313.77 58.9697C314.36 58.6934 314.942 58.4029 315.537 58.1405C316.169 57.8619 316.81 57.6094 317.45 57.3481C317.685 57.252 317.92 57.1456 318.162 57.0675C318.614 56.924 319.07 56.7905 319.53 56.672C319.616 56.6494 319.791 56.6891 319.809 56.7398C319.844 56.8387 319.826 56.9854 319.766 57.0725C319.683 57.2021 319.523 57.2741 319.467 57.4457C319.447 57.513 319.339 57.5596 319.264 57.6075C319.007 57.772 318.745 57.9329 318.484 58.098C318.462 58.1089 318.432 58.1361 318.434 58.1497C318.48 58.3867 318.268 58.4068 318.148 58.5039C317.974 58.6432 317.692 58.6406 317.625 58.9123C317.408 58.9197 317.35 59.2448 317.091 59.1775C317.067 59.1719 317.021 59.2058 316.996 59.2314C316.898 59.3387 316.805 59.453 316.705 59.5593C316.644 59.6239 316.579 59.6894 316.504 59.7401C316.191 59.9525 315.932 60.2106 315.767 60.5583C315.757 60.58 315.744 60.6088 315.726 60.6183C315.472 60.7349 315.336 60.9683 315.168 61.1708C315.141 61.2024 315.095 61.2197 315.058 61.243C314.965 61.3043 314.872 61.3665 314.779 61.4281C314.783 61.4323 314.79 61.438 314.795 61.445ZM314.289 56.3542C314.307 56.3759 314.322 56.399 314.337 56.4197C314.504 56.3268 314.672 56.2339 314.845 56.14C315.164 55.9675 315.496 55.8075 315.808 55.6182C316.07 55.4588 316.32 55.2729 316.568 55.0878C316.927 54.8233 317.304 54.5733 317.63 54.2721C317.93 53.9977 318.176 53.6666 318.44 53.3553C318.56 53.2174 318.493 53.0746 318.402 52.9653C318.36 52.9162 318.242 52.8955 318.176 52.9162C317.962 52.9842 317.737 53.05 317.55 53.1685C317.307 53.3239 317.097 53.5303 316.871 53.712C316.549 53.9735 316.197 54.2034 315.906 54.497C315.473 54.9326 315.081 55.4081 314.676 55.8684C314.54 56.0247 314.418 56.1923 314.289 56.3542Z" fill="#04519F"/>
<path fill-rule="evenodd" clip-rule="evenodd" d="M327.92 53.762C328.073 53.7503 328.222 53.7611 328.358 53.7214C328.589 53.6534 328.983 53.9364 328.979 54.2062C328.977 54.4368 328.984 54.6657 328.853 54.8832C328.78 55.0043 328.788 55.1761 328.728 55.3098C328.599 55.5944 328.446 55.8665 328.31 56.1487C328.162 56.4557 328.028 56.7679 327.877 57.0748C327.712 57.4133 327.528 57.7436 327.367 58.0839C327.247 58.3344 327.149 58.5991 327.04 58.8555C326.99 58.9667 326.933 59.072 326.89 59.185C326.874 59.2259 326.882 59.278 326.88 59.3236C326.927 59.3181 326.983 59.3285 327.015 59.3038C327.136 59.2141 327.257 59.1196 327.368 59.0142C327.751 58.654 328.141 58.3016 328.508 57.9237C328.83 57.5902 329.124 57.2309 329.431 56.8832C329.542 56.7545 329.663 56.63 329.763 56.4926C329.813 56.422 329.834 56.3281 329.864 56.246C329.876 56.2163 329.882 56.1838 329.897 56.1591C330.205 55.6587 330.512 55.1574 330.826 54.6604C331.008 54.3667 331.201 54.0779 331.385 53.7941C331.47 53.8531 331.544 53.9029 331.618 53.955C331.639 53.9534 331.659 53.9516 331.681 53.9493C331.624 54.1035 331.571 54.259 331.516 54.4148C331.42 54.6789 331.35 54.9544 331.226 55.2065C330.983 55.7053 330.696 56.1801 330.462 56.6812C330.322 56.98 330.193 57.287 330.083 57.6022C329.934 58.032 329.679 58.4303 329.432 58.8177C329.23 59.1355 328.969 59.4182 328.743 59.7221C328.682 59.8012 328.67 59.9156 328.607 59.9894C328.408 60.2158 328.204 60.4407 327.984 60.6466C327.763 60.8539 327.531 61.0465 327.287 61.2289C327.189 61.3026 327.056 61.3386 326.933 61.3815C326.805 61.4297 326.681 61.4638 326.553 61.5392C326.395 61.6347 326.168 61.6073 325.971 61.6414C325.743 61.6804 325.593 61.5616 325.451 61.4108C325.351 61.3103 325.248 61.2116 325.13 61.1419C324.903 61.01 324.866 60.7942 324.848 60.5726C324.835 60.4158 324.844 60.2603 324.843 60.0855C324.807 60.1012 324.773 60.1047 324.757 60.1245C324.516 60.3975 324.282 60.6821 324.033 60.9528C323.822 61.1809 323.599 61.4009 323.377 61.614C323.07 61.9027 322.749 62.175 322.45 62.4711C322.342 62.5756 322.292 62.7358 322.204 62.861C322.148 62.9374 322.065 62.9955 321.977 63.0727C321.931 62.9782 321.912 62.8703 321.866 62.8578C321.726 62.8205 321.574 62.8195 321.428 62.8052C321.381 62.8027 321.317 62.8334 321.29 62.811C321.195 62.7356 321.125 62.7248 321.027 62.8126C320.951 62.8816 320.705 62.7072 320.695 62.5587C320.682 62.3198 320.572 62.1745 320.368 62.0484C320.206 61.9479 320.112 61.7438 319.95 61.6451C319.646 61.4569 319.611 61.1721 319.576 60.8627C319.508 60.2825 319.535 59.7083 319.681 59.1424C319.774 58.79 319.888 58.4395 320.005 58.092C320.187 57.5542 320.36 57.0123 320.572 56.4879C320.754 56.0357 320.986 55.6052 321.198 55.1645C321.38 54.7937 321.549 54.4195 321.74 54.0549C321.964 53.6292 322.21 53.2153 322.442 52.7937C322.497 52.6902 322.518 52.5631 322.588 52.4667C322.901 52.033 323.224 51.6022 323.551 51.1781C323.789 50.8719 324.036 50.5774 324.284 50.2802C324.476 50.0461 324.601 50.0295 324.82 50.247C324.985 50.4121 325.137 50.5947 325.263 50.7898C325.408 51.0096 325.373 51.2559 325.272 51.4853C325.067 51.9465 324.845 52.398 324.646 52.8618C324.553 53.0801 324.506 53.3177 324.417 53.5381C324.332 53.7473 324.207 53.9398 324.123 54.149C324.075 54.2592 324.065 54.3851 324.04 54.5057C324.03 54.558 324.032 54.6175 324.013 54.6683C323.816 55.1924 323.602 55.7154 323.419 56.2456C323.25 56.7377 323.107 57.2413 322.961 57.7408C322.909 57.9177 322.871 58.0959 322.836 58.2758C322.826 58.3182 322.855 58.3696 322.865 58.4176C322.918 58.4028 322.984 58.4077 323.019 58.3761C323.334 58.1091 323.645 57.837 323.957 57.5653C324.171 57.3778 324.39 57.1947 324.596 56.9987C324.995 56.6245 325.383 56.2394 325.782 55.866C326.333 55.3476 326.893 54.8405 327.441 54.3212C327.6 54.1725 327.676 53.9435 327.907 53.8623C327.92 53.8584 327.915 53.7936 327.92 53.762Z" fill="#04519F"/>
<path fill-rule="evenodd" clip-rule="evenodd" d="M311.571 53.7865C311.553 53.6173 311.541 53.4448 311.498 53.282C311.446 53.0922 311.377 52.9045 311.294 52.7253C311.181 52.488 311.135 52.2118 310.913 52.0291C310.89 52.0091 310.867 51.9784 310.859 51.9494C310.776 51.6689 310.58 51.4656 310.377 51.2716C310.316 51.2126 310.192 51.2135 310.14 51.1505C309.951 50.9234 309.685 50.9031 309.428 50.8535C309.3 50.83 309.17 50.8194 309.042 50.8012C308.911 50.7804 308.775 50.7115 308.654 50.7355C308.33 50.8044 308.018 50.9331 307.692 50.9986C307.327 51.0751 307.027 51.2742 306.753 51.4909C306.591 51.6161 306.417 51.7132 306.254 51.8294C306.098 51.9404 305.924 52.0337 305.788 52.1638C305.555 52.3863 305.351 52.6393 305.121 52.8658C304.851 53.1303 304.577 53.3885 304.373 53.7095C304.335 53.7725 304.272 53.8267 304.204 53.8606C304.181 53.8749 304.093 53.8324 304.079 53.796C304.003 53.5802 303.947 53.3553 303.863 53.142C303.789 52.9511 303.687 52.7703 303.598 52.5853C303.52 52.4276 303.47 52.2466 303.357 52.1156C303.025 51.7247 302.713 51.3057 302.167 51.1828C301.833 51.1074 301.537 50.9017 301.18 50.9158C301.129 50.9176 301.076 50.8704 301.056 50.8605C300.948 50.8752 300.875 50.8835 300.795 50.895C300.637 50.9176 300.472 50.9133 300.325 50.9665C300.251 50.9921 300.177 51.0154 300.104 51.038C300.026 51.0454 299.95 51.0597 299.872 51.0645C299.007 51.1399 298.167 51.2843 297.424 51.7865C297.023 52.0568 296.592 52.2876 296.187 52.5505C296.078 52.6222 295.998 52.7433 295.915 52.8519C295.895 52.8812 295.895 52.9564 295.917 52.988C296.026 53.1434 296.138 53.3009 296.269 53.436C296.317 53.4884 296.422 53.4794 296.493 53.5117C296.591 53.5555 296.682 53.6127 296.775 53.6659C296.817 53.6908 296.847 53.7333 296.886 53.754C297.18 53.8866 297.474 54.022 297.772 54.1447C297.851 54.1763 297.949 54.1903 298.032 54.1786C298.213 54.1511 298.391 54.1073 298.568 54.0642C298.701 54.0303 298.687 53.8931 298.809 53.8368C298.997 53.7522 299.075 53.5571 299.256 53.4616C299.404 53.3828 299.437 53.1614 299.563 53.0551C299.791 52.8683 300.237 52.7654 300.603 52.69C300.709 52.7073 300.814 52.7281 300.923 52.7431C300.967 52.7479 301.02 52.8399 301.033 52.9017C301.061 53.0459 301.068 53.1962 301.086 53.344C301.114 53.5712 301.147 53.7969 301.174 54.0243C301.199 54.2731 301.076 54.5254 301.19 54.7735C301.199 54.7968 301.174 54.8342 301.164 54.8632C301.144 54.9246 301.111 54.9804 301.106 55.0398C301.088 55.2308 301.079 55.4227 301.061 55.615C301.061 55.6622 301.045 55.7095 301.033 55.7559C300.98 55.9477 300.925 56.1377 300.872 56.3301C300.849 56.4098 300.824 56.4887 300.8 56.5701C300.766 56.6926 300.734 56.8196 300.701 56.9458C300.686 56.9921 300.671 57.0403 300.654 57.0827C300.584 57.2506 300.508 57.413 300.442 57.5799C300.397 57.6968 300.375 57.8237 300.324 57.9376C300.229 58.1407 300.121 58.3365 300.017 58.5341C299.92 58.7159 299.824 58.8959 299.721 59.0744C299.667 59.1722 299.57 59.2543 299.543 59.3555C299.482 59.6071 299.316 59.7879 299.168 59.9821C299.118 60.0469 299.098 60.134 299.063 60.2129C299.044 60.2636 298.997 60.301 298.966 60.3499C298.864 60.5009 298.779 60.6626 298.668 60.8069C298.525 60.9944 298.363 61.1655 298.21 61.3438C298.197 61.362 298.187 61.3984 298.192 61.4192C298.227 61.5246 298.192 61.5808 298.094 61.6251C298.039 61.6507 297.996 61.7123 297.963 61.7669C297.725 62.1463 297.493 62.5286 297.257 62.9086C297.192 63.0159 297.179 63.2513 297.245 63.2947C297.346 63.3659 297.456 63.4265 297.552 63.5026C297.637 63.57 297.699 63.6661 297.785 63.7284C297.886 63.8038 298.002 63.8592 298.114 63.92C298.117 63.9016 298.122 63.8818 298.122 63.8628C298.185 63.8421 298.246 63.808 298.31 63.8047C298.409 63.798 298.542 63.8562 298.599 63.8112C298.843 63.6161 299.152 63.7466 299.419 63.6078C299.666 63.48 299.899 63.3339 300.11 63.1641C300.32 62.9914 300.492 62.7723 300.679 62.5747C300.741 62.5108 300.812 62.4576 300.862 62.3889C301.036 62.1573 301.204 61.9182 301.375 61.6857C301.569 61.4219 301.779 61.1706 301.958 60.8976C302.145 60.6063 302.303 60.2945 302.479 59.9957C302.674 59.6671 302.879 59.347 303.067 59.014C303.172 58.8265 303.258 58.6248 303.336 58.4191C303.437 58.1421 303.618 57.9314 303.841 57.7443C303.894 57.7012 303.921 57.6267 303.962 57.5677C304.032 57.4665 304.092 57.3578 304.176 57.2698C304.333 57.1028 304.508 56.9536 304.67 56.7894C304.784 56.675 304.869 56.5254 305 56.4384C305.199 56.3008 305.372 56.1539 305.52 55.9588C305.722 55.6943 305.963 55.4602 306.196 55.2195C306.274 55.1376 306.382 55.0816 306.46 55.0007C306.643 54.8065 306.815 54.6038 306.998 54.4073C307.044 54.3536 307.114 54.3185 307.162 54.2655C307.282 54.1387 307.387 53.9902 307.519 53.8779C307.797 53.6447 308.087 53.4282 308.373 53.2068C308.433 53.1595 308.512 53.1439 308.511 53.2474C308.511 53.4233 308.487 53.5991 308.466 53.7752C308.443 53.9436 308.409 54.1094 308.376 54.2747C308.341 54.4539 308.308 54.6333 308.261 54.8116C308.209 55.0129 308.144 55.2137 308.089 55.4164C308.047 55.5633 308.027 55.7227 307.974 55.8652C307.916 56.0169 307.783 56.144 307.85 56.3324C307.86 56.357 307.817 56.3969 307.798 56.432C307.777 56.4783 307.749 56.5238 307.732 56.572C307.664 56.7744 307.621 56.991 307.526 57.1787C307.381 57.4607 307.182 57.713 307.117 58.0342C307.099 58.1223 307.036 58.2224 306.965 58.2749C306.777 58.4073 306.774 58.6365 306.661 58.8083C306.53 59.0073 306.465 59.2481 306.352 59.4632C306.224 59.7072 306.07 59.9362 305.942 60.1776C305.894 60.2655 305.879 60.3718 305.862 60.473C305.845 60.5916 305.857 60.7145 305.837 60.8307C305.823 60.9319 305.777 61.0223 305.874 61.1143C305.968 61.2031 306.05 61.3076 306.126 61.412C306.257 61.6014 306.301 61.8792 306.606 61.8984C306.621 61.8993 306.636 61.9323 306.656 61.9383C306.704 61.953 306.759 61.9738 306.809 61.9682C307.023 61.944 307.239 61.876 307.455 61.8884C307.677 61.9002 307.878 61.8262 308.054 61.7422C308.295 61.6286 308.511 61.4411 308.703 61.2501C308.909 61.0428 309.1 60.8113 309.263 60.5648C309.497 60.2014 309.713 59.8213 309.92 59.4362C310.1 59.0984 310.259 58.7484 310.419 58.3999C310.517 58.1892 310.593 57.9692 310.683 57.7543C310.793 57.4879 310.905 57.2209 311.013 56.952C311.047 56.8655 311.078 56.7758 311.1 56.6847C311.144 56.5205 311.181 56.3531 311.226 56.1896C311.274 56.0213 311.349 55.8594 311.38 55.6883C311.433 55.4194 311.462 55.1482 311.501 54.8754C311.516 54.7749 311.538 54.6737 311.55 54.5715C311.568 54.429 311.586 54.2879 311.593 54.1458C311.593 54.0254 311.582 53.9041 311.571 53.7865Z" fill="#04519F"/>
<path d="M329.307 89.3675C329.177 89.3393 329.078 89.2879 329.066 89.2413C329.056 89.2049 329.081 89.1251 329.192 88.9992L329.217 88.9692C329.468 88.6869 329.697 88.455 329.918 88.259C329.959 88.2255 330.002 88.1891 330.044 88.1526L330.046 88.1543L330.122 88.0897C330.268 87.967 330.417 87.8441 330.565 87.7247C330.964 87.4027 331.372 87.0674 331.738 86.6923C331.866 86.5597 332.012 86.4234 332.195 86.2691L332.201 86.2643C332.47 86.0369 332.747 85.8328 333.056 85.6368C333.157 85.5738 333.261 85.5141 333.39 85.441L333.396 85.4376C333.529 85.3594 333.664 85.2849 333.8 85.2086L334.034 85.076C334.223 84.9697 334.414 84.8599 334.6 84.7531C335.057 84.4919 335.525 84.2221 336.002 83.9832C336.204 83.8819 336.43 83.7989 336.651 83.72C336.966 83.6064 337.29 83.4883 337.579 83.302C337.948 83.0638 338.345 82.9415 338.765 82.814C338.936 82.7626 339.105 82.7103 339.275 82.6505C339.371 82.6166 339.452 82.556 339.525 82.502C339.562 82.4762 339.595 82.4497 339.633 82.4273L339.706 82.3816C339.783 82.3328 339.854 82.288 339.919 82.2721C340.213 82.1949 340.508 82.122 340.804 82.0489C341.085 81.9809 341.364 81.9119 341.644 81.839C341.719 81.8199 341.782 81.78 341.835 81.7452C341.873 81.7219 341.908 81.6988 341.935 81.6928C342.24 81.6191 342.548 81.5519 342.855 81.483C343.057 81.4392 343.258 81.3942 343.461 81.3476C343.534 81.332 343.595 81.2988 343.648 81.2688L343.876 81.1544C344.093 81.0423 344.314 80.9309 344.533 80.8166L344.686 80.737C345.001 80.5735 345.327 80.4026 345.639 80.2191C345.777 80.1386 345.857 79.9221 345.837 79.7851C345.813 79.6423 345.66 79.5264 345.554 79.4897L345.48 79.4715C345.241 79.4507 344.998 79.4417 344.757 79.4343L344.438 79.421C344.287 79.4152 344.138 79.4067 343.989 79.3935C343.884 79.3818 343.781 79.3702 343.676 79.3587C343.48 79.334 343.286 79.3114 343.087 79.3015C342.966 79.2958 342.848 79.3248 342.741 79.3497L342.653 79.3721C342.447 79.4177 342.232 79.4159 342.002 79.412C341.589 79.4071 341.161 79.4002 340.751 79.685C340.651 79.754 340.49 79.7696 340.32 79.7849C340.224 79.7939 340.128 79.8028 340.038 79.8204L339.918 79.846C339.589 79.9115 339.259 79.9788 338.932 80.0542C338.856 80.0724 338.791 80.1056 338.733 80.1347C338.697 80.1547 338.66 80.1737 338.62 80.1863C338.494 80.2218 338.366 80.2544 338.238 80.2859C338.072 80.3275 337.908 80.3687 337.745 80.4185L337.652 80.4444C337.444 80.5016 337.229 80.5604 337.17 80.7347C337.162 80.7605 337.157 80.7739 337.156 80.7787C337.146 80.7787 337.128 80.7787 337.113 80.7769C337.084 80.7769 337.053 80.7744 337.019 80.7778C336.785 80.7935 336.551 80.8186 336.305 80.8449L335.673 80.9104L335.857 81.147L335.263 81.1269L335.215 81.2134C335.188 81.2598 335.15 81.2921 335.11 81.2997C334.994 81.3204 334.876 81.3285 334.76 81.3368L334.424 81.3633L334.486 81.6928C334.394 81.7235 334.303 81.7519 334.207 81.7816L334.169 81.7925C334.072 81.819 333.953 81.8524 333.938 81.9693C333.903 81.9594 333.865 81.9511 333.825 81.952C333.764 81.952 333.694 81.9421 333.627 81.9329C333.443 81.9082 333.251 81.884 333.126 82.0028C333.025 82.0989 332.907 82.1079 332.757 82.1197C332.654 82.1296 332.538 82.1395 332.425 82.1826C332.334 82.2175 332.241 82.2424 332.148 82.2654C331.897 82.3286 331.617 82.4001 331.412 82.6671C331.173 82.5036 330.963 82.6282 330.795 82.7501L330.62 82.877C330.371 83.0571 330.116 83.2429 329.852 83.3981C329.787 83.4362 329.722 83.4671 329.656 83.4978C329.593 83.5268 329.528 83.5524 329.463 83.5808C329.315 83.6421 329.161 83.706 329.018 83.7932C328.905 83.8621 328.835 83.9707 328.773 84.0671C328.741 84.1194 328.707 84.1706 328.668 84.2124C328.608 84.276 328.516 84.3334 328.405 84.3849" fill="#E5347E"/>
<path d="M358.123 79.4895H353.294V74.4785H350.51V86.3341C350.51 87.0508 351.084 87.6384 351.807 87.6552H359.616C360.332 87.6386 360.909 87.0511 360.909 86.3341V74.4785H358.123V79.4895V79.4895ZM358.123 85.4512H353.294V81.67H358.123V85.4512Z" fill="#04519F"/>
<path d="M366.773 79.4323H365.338V74.4787H362.5V92.8661H364.046C364.759 92.853 365.338 92.264 365.338 91.5452V81.7191H366.773V92.8746H368.35V92.8661C369.081 92.8661 369.672 92.2772 369.672 91.5452V74.4785H366.773V79.4323Z" fill="#04519F"/>
<path d="M390.069 79.4323H388.636V74.4787H385.8V92.8661H387.34C388.055 92.853 388.636 92.264 388.636 91.5452V81.7191H390.069V92.8746H391.65V92.8661C392.381 92.8661 392.97 92.2772 392.97 91.5452V74.4785H390.07V79.4323H390.069Z" fill="#04519F"/>
<path d="M380.593 76.7979H384.349V74.4785H373.848V76.7979H377.602C377.496 84.3378 374.681 85.171 373.24 85.7136V88.1829C374.497 88.0171 375.633 87.599 376.642 86.9284C377.748 86.2048 378.567 85.2655 379.099 84.1088C379.631 85.2655 380.448 86.2048 381.55 86.9284C382.564 87.599 383.7 88.0173 384.956 88.1829V85.7136C383.515 85.171 380.697 84.3378 380.593 76.7979Z" fill="#04519F"/>
<path d="M305.857 102.875C306.211 102.62 306.664 102.698 306.9 103.17C307.451 104.546 307.923 105.666 308.356 106.905C308.965 106.708 309.103 106.65 309.26 106.61C309.496 106.551 310.008 106.63 310.086 107.22C310.146 107.731 309.791 107.868 309.3 108.045L308.808 108.222C309.339 109.756 309.752 111.25 310.067 112.449C310.185 112.901 309.949 113.137 309.555 113.216C309.201 113.275 308.945 113.137 308.828 112.724C308.513 111.486 308.08 110.188 307.569 108.674C306.841 108.989 306.113 109.225 305.405 109.52C305.228 109.579 304.795 109.441 304.677 108.95C304.618 108.655 304.756 108.281 305.071 108.124L307.116 107.357L305.641 103.465C304.638 106.571 303.812 110.463 303.222 113.353C303.123 113.648 302.651 113.727 302.396 113.648C302.081 113.53 301.884 113.373 301.963 112.921C302.769 108.144 303.89 104.153 304.835 101.912C305.09 101.361 306.133 102.069 305.975 102.521L305.857 102.875Z" fill="#04519F"/>
<path d="M313.901 113.177C313.842 113.57 313.528 113.786 313.213 113.786C312.879 113.786 312.564 113.648 312.525 113.157L311.974 104.369C311.974 103.917 312.387 103.701 312.741 103.701C313.056 103.701 313.41 103.898 313.43 104.252C313.587 106.394 313.842 110.699 313.901 113.177Z" fill="#04519F"/>
<path d="M317.089 108.044C316.459 108.044 315.968 107.572 315.968 106.923C315.968 106.294 316.459 105.783 317.089 105.783C317.718 105.783 318.23 106.294 318.23 106.923C318.23 107.572 317.718 108.044 317.089 108.044Z" fill="#04519F"/>
<path d="M323.639 102.659C322.793 102.443 321.928 103.052 321.711 103.878C321.574 104.723 322.124 105.785 322.715 106.925C323.678 108.734 324.681 110.778 323.246 112.626C322.262 113.727 320.925 114.219 319.705 114.671C319.43 114.75 318.997 114.69 318.84 114.199C318.702 113.648 319.154 113.452 319.587 113.255C320.826 112.783 322.282 112.194 322.518 111.073C322.715 109.972 322.085 108.773 321.475 107.613C320.865 106.453 320.216 105.195 320.256 103.957C320.295 102.581 321.475 101.381 323.088 101.283C323.737 101.244 324.426 101.401 324.878 102.05C325.37 102.777 325.193 103.367 324.76 103.505C324.465 103.603 324.229 103.406 324.072 103.092C323.973 102.935 323.836 102.718 323.639 102.659Z" fill="#04519F"/>
<path d="M334.438 111.78C334.163 112.527 333.907 113.215 333.199 113.195C332.825 113.195 332.53 112.881 332.452 112.468C331.92 110.423 331.35 108.359 330.839 106.354C330.032 108.379 329.344 110.993 328.754 113.156C328.596 113.765 327.691 113.647 327.573 113.136C327.003 110.738 326.511 108.398 325.764 106C325.685 105.725 325.665 105.253 326.255 105.096C326.708 104.978 327.042 105.41 327.141 105.764C327.475 106.845 327.888 108.575 328.183 110.01C328.714 108.103 329.403 106.236 330.111 104.309C330.229 104.073 330.583 103.837 330.878 103.837C331.153 103.837 331.586 104.112 331.684 104.388C332.333 106.708 332.825 108.496 333.337 110.816C334.143 108.379 334.91 105.862 335.54 103.405C335.658 102.953 336.11 102.894 336.346 102.953C336.7 103.031 336.976 103.287 336.956 103.621L334.438 111.78Z" fill="#04519F"/>
<path d="M338.393 105.469C339.179 103.818 340.34 102.108 342.032 100.004C341.206 100.142 339.789 100.594 338.707 101.066C337.881 101.4 337.39 100.358 338.019 99.9455C339.711 99.0609 341.461 98.6677 342.898 98.5891C343.743 98.53 344.333 99.3164 343.783 100.162C343.015 101.046 342.386 101.793 341.757 102.639C342.484 102.698 343.232 102.698 343.999 102.698C344.805 102.698 345.592 102.678 346.34 102.639C346.694 102.639 347.028 102.835 347.028 103.248C347.028 103.582 346.714 103.818 346.379 103.877C345.337 103.995 344.019 104.074 342.721 104.074C342.013 104.074 341.324 104.074 340.715 104.015C340.301 104.566 339.967 105.116 339.593 105.765C339.338 106.099 339.023 106.197 338.767 106.177C338.373 106.138 338.255 105.764 338.393 105.469ZM342.622 111.799C342.838 111.21 343.428 110.207 343.959 109.244C344.038 109.126 344.117 108.969 344.943 107.514C344.195 107.612 341.619 108.202 339.671 108.733C339.376 108.772 338.786 108.654 338.668 108.3C338.55 107.927 338.747 107.553 339.061 107.455C340.241 107.101 344.018 106.157 345.808 106C346.418 105.961 346.929 106.314 346.713 106.944C346.28 107.966 345.021 110.089 344.569 110.974C345.159 111.092 345.749 111.721 345.828 112.605C345.867 114.276 344.608 115.417 343.605 116.007C343.251 116.223 342.917 116.321 342.621 116.321C341.953 116.321 341.579 115.79 341.599 114.886C341.599 113.824 342.09 112.704 342.622 111.799ZM343.841 112.35C343.33 113.077 343.035 113.942 342.936 114.788C343.507 114.571 344.333 113.608 344.353 112.822C344.372 112.37 343.94 112.271 343.841 112.35Z" fill="#04519F"/>
<path d="M353.951 101.635C353.813 102.245 353.597 103.169 353.282 104.309C354.109 104.565 354.679 105.115 355.348 106.629C355.722 107.533 355.977 108.772 355.8 108.929C355.427 109.126 354.994 108.791 354.758 108.3C354.03 106.727 353.656 105.921 352.889 105.705C352.535 106.865 352.142 108.025 351.905 108.713C351.748 109.067 351.315 109.499 350.882 109.263C350.686 109.165 350.568 108.693 350.705 108.162C351.197 106.668 351.964 104.309 352.377 101.911C351.236 102.422 349.938 102.815 349.21 102.973C348.896 102.992 348.561 102.737 348.483 102.422C348.463 102.343 348.384 101.793 348.896 101.577C349.918 101.262 352.043 100.574 353.066 100.044C353.321 99.9057 353.715 100.004 353.951 100.26C354.207 100.515 354.089 101.065 353.951 101.635ZM359.872 107.081C359.97 106.078 360.089 104.997 360.108 103.581C359.242 103.857 358.436 104.132 356.331 104.918C355.938 104.997 355.427 104.997 355.289 104.427C355.269 104.211 355.19 103.759 356.056 103.404C357.806 102.815 358.849 102.421 360.088 102.087C360.088 101.852 360.069 101.596 360.049 101.124C360.029 100.554 360.069 100.279 360.403 100.082C360.993 99.7674 361.426 100.082 361.504 101.085C361.524 103.326 361.406 105.645 361.131 107.533C361.052 107.965 360.777 108.123 360.423 108.123C359.951 108.044 359.833 107.553 359.872 107.081ZM356.371 115.514C356.076 115.475 355.781 115.18 355.761 114.689C355.702 113.175 355.741 111.209 355.859 109.853C355.918 109.322 356.41 109.243 356.705 109.302C357 109.361 357.335 109.557 357.276 110.324C357.118 111.465 357.059 113.097 357.02 114.748C357.02 115.239 356.843 115.514 356.39 115.514H356.371V115.514ZM360.206 113.883L362.311 113.411C362.862 113.313 363.019 113.49 363.157 113.883C363.236 114.256 363.039 114.59 362.646 114.669L358.987 115.475C358.515 115.554 358.121 114.865 358.476 114.237C359.066 113.057 359.754 111.819 360.344 110.659L358.141 111.13C357.728 111.189 357.512 110.993 357.512 110.423C357.512 110.128 357.708 109.853 357.984 109.794C359.026 109.558 360.167 109.381 361.19 109.145C361.918 109.047 362.291 109.892 361.957 110.521L360.206 113.883Z" fill="#04519F"/>
<path d="M364.357 103.84C365.774 103.663 367.937 103.014 368.744 102.661C369.118 102.543 369.314 102.72 369.334 103.172C369.354 103.369 369.255 103.801 368.803 103.978C367.78 104.391 367.052 104.607 366.206 104.803C366.147 106.239 366.069 107.556 366.029 109.01C368.036 108.106 369.904 106.553 371.006 105.098C370.986 104.587 371.222 104.332 371.557 104.312C372.127 104.292 372.383 104.803 372.383 105.02C372.363 105.983 372.363 106.396 372.324 107.261C373.464 106.061 374.959 104.391 375.648 103.368C375.727 103.073 376.041 102.975 376.336 102.995C376.769 103.034 377.064 103.309 377.084 103.683V104.331C377.084 107.241 376.926 109.246 376.474 111.684C376.356 112.175 376.159 112.431 375.766 112.391C375.293 112.332 375.117 111.979 375.156 111.487C375.451 109.069 375.667 107.536 375.667 105.747V105.432C374.762 106.553 373.563 107.909 372.009 109.619C371.556 110.032 370.848 109.6 370.907 108.932C370.947 108.224 370.986 107.909 371.006 107.143C369.629 108.656 367.603 110.15 365.951 110.583C365.065 110.76 364.593 110.111 364.613 109.482L364.829 105.078C364.711 105.098 364.574 105.118 364.495 105.118C363.984 105.118 363.511 105.019 363.452 104.508C363.413 104.017 363.807 103.899 364.357 103.84Z" fill="#04519F"/>
<path d="M379.562 102.62C380.251 102.482 380.723 102.404 381.156 102.306C381.234 101.264 381.234 100.694 381.195 99.6713C381.175 99.2191 381.293 98.7473 381.746 98.6293C382.316 98.4916 382.572 98.8848 382.592 99.4156C382.651 100.281 382.631 101.165 382.572 101.971C383.221 101.794 383.831 101.598 384.716 101.303C385.031 101.205 385.66 101.244 385.66 101.794C385.66 102.07 385.463 102.541 385.129 102.679C383.516 103.21 381.962 103.623 379.602 104.075C379.11 104.114 378.894 103.761 378.874 103.465C378.815 103.131 379.051 102.718 379.562 102.62ZM382.946 104.567C383.556 104.527 384.283 104.94 384.48 105.825C384.795 107.26 383.497 109.285 382.08 109.363C381.313 109.363 380.94 108.538 380.94 107.633C380.94 106.611 381.372 105.432 381.687 104.822C381.805 104.606 382.179 104.036 382.533 104.036C382.71 104.036 382.867 104.232 382.946 104.567ZM382.198 107.987C382.788 107.614 383.359 106.788 383.28 106.257C383.221 105.766 382.788 105.569 382.631 105.864C382.316 106.454 382.159 107.378 382.198 107.987ZM388.886 115.929C388.493 115.929 388.178 115.615 388.178 115.339C388.316 113.865 388.375 112.371 388.375 110.916C387.254 111.191 386.192 111.388 384.972 111.565C384.697 111.565 384.264 111.211 384.264 110.7C384.264 110.542 384.284 110.267 384.598 110.149C386.152 109.913 387.332 109.658 388.808 109.225C389.575 109.009 389.85 109.756 389.85 110.011C389.85 111.8 389.791 113.609 389.634 115.398C389.614 115.733 389.201 115.929 388.886 115.929ZM389.476 104.901C389.496 105.215 389.515 105.589 389.751 105.569C390.243 105.53 391.836 105.215 392.348 105.078C392.682 104.999 392.997 105.156 393.115 105.431C393.233 105.726 393.135 106.159 392.957 106.257C391.797 106.689 389.81 107.043 389.142 107.063C388.453 107.063 388.197 106.296 388.119 105.51C388.06 104.586 388.02 103.642 388.02 102.757C388.02 102.246 388.02 101.696 388.04 101.146C388.079 100.89 388.433 100.713 388.768 100.713C389.102 100.713 389.456 100.87 389.456 101.205C389.437 102.148 389.398 103.78 389.476 104.901Z" fill="#04519F"/>
<defs>
<linearGradient id="paint0_linear" x1="38.1103" y1="85.4364" x2="168.119" y2="20.1968" gradientUnits="userSpaceOnUse">
<stop offset="0.00763574" stop-color="#C0E2FF"/>
<stop offset="1" stop-color="#C0E2FF" stop-opacity="0"/>
</linearGradient>
<linearGradient id="paint1_linear" x1="508.208" y1="50" x2="436" y2="151" gradientUnits="userSpaceOnUse">
<stop stop-color="#1358E0"/>
<stop offset="1" stop-color="#1358E0" stop-opacity="0"/>
</linearGradient>
<linearGradient id="paint2_linear" x1="350.997" y1="78.8489" x2="350.506" y2="79.6988" gradientUnits="userSpaceOnUse">
<stop offset="0.087" stop-color="#273C88"/>
<stop offset="0.2705" stop-color="#1E5393"/>
<stop offset="0.2994" stop-color="#285293"/>
<stop offset="0.3321" stop-color="#3C5292"/>
<stop offset="0.3667" stop-color="#545190"/>
<stop offset="0.4025" stop-color="#704E8D"/>
<stop offset="0.4394" stop-color="#8E4B89"/>
<stop offset="0.4771" stop-color="#B24485"/>
<stop offset="0.5148" stop-color="#DC377F"/>
<stop offset="0.5217" stop-color="#E5347E"/>
</linearGradient>
<linearGradient id="paint3_linear" x1="350.152" y1="82.5825" x2="349.084" y2="84.4342" gradientUnits="userSpaceOnUse">
<stop offset="0.087" stop-color="#273C88"/>
<stop offset="0.2705" stop-color="#1E5393"/>
<stop offset="0.2994" stop-color="#285293"/>
<stop offset="0.3321" stop-color="#3C5292"/>
<stop offset="0.3667" stop-color="#545190"/>
<stop offset="0.4025" stop-color="#704E8D"/>
<stop offset="0.4394" stop-color="#8E4B89"/>
<stop offset="0.4771" stop-color="#B24485"/>
<stop offset="0.5148" stop-color="#DC377F"/>
<stop offset="0.5217" stop-color="#E5347E"/>
</linearGradient>
<linearGradient id="paint4_linear" x1="350.047" y1="84.3511" x2="348.956" y2="86.2417" gradientUnits="userSpaceOnUse">
<stop offset="0.087" stop-color="#273C88"/>
<stop offset="0.2705" stop-color="#1E5393"/>
<stop offset="0.2994" stop-color="#285293"/>
<stop offset="0.3321" stop-color="#3C5292"/>
<stop offset="0.3667" stop-color="#545190"/>
<stop offset="0.4025" stop-color="#704E8D"/>
<stop offset="0.4394" stop-color="#8E4B89"/>
<stop offset="0.4771" stop-color="#B24485"/>
<stop offset="0.5148" stop-color="#DC377F"/>
<stop offset="0.5217" stop-color="#E5347E"/>
</linearGradient>
<linearGradient id="paint5_linear" x1="353.708" y1="76.6876" x2="352.956" y2="77.9918" gradientUnits="userSpaceOnUse">
<stop offset="0.087" stop-color="#273C88"/>
<stop offset="0.2705" stop-color="#1E5393"/>
<stop offset="0.2994" stop-color="#285293"/>
<stop offset="0.3321" stop-color="#3C5292"/>
<stop offset="0.3667" stop-color="#545190"/>
<stop offset="0.4025" stop-color="#704E8D"/>
<stop offset="0.4394" stop-color="#8E4B89"/>
<stop offset="0.4771" stop-color="#B24485"/>
<stop offset="0.5148" stop-color="#DC377F"/>
<stop offset="0.5217" stop-color="#E5347E"/>
</linearGradient>
<linearGradient id="paint6_linear" x1="352.846" y1="78.4779" x2="352.355" y2="79.3283" gradientUnits="userSpaceOnUse">
<stop offset="0.087" stop-color="#273C88"/>
<stop offset="0.2705" stop-color="#1E5393"/>
<stop offset="0.2994" stop-color="#285293"/>
<stop offset="0.3321" stop-color="#3C5292"/>
<stop offset="0.3667" stop-color="#545190"/>
<stop offset="0.4025" stop-color="#704E8D"/>
<stop offset="0.4394" stop-color="#8E4B89"/>
<stop offset="0.4771" stop-color="#B24485"/>
<stop offset="0.5148" stop-color="#DC377F"/>
<stop offset="0.5217" stop-color="#E5347E"/>
</linearGradient>
<linearGradient id="paint7_linear" x1="372.686" y1="47.6781" x2="341.788" y2="101.226" gradientUnits="userSpaceOnUse">
<stop offset="0.087" stop-color="#273C88"/>
<stop offset="0.2705" stop-color="#1E5393"/>
<stop offset="0.2994" stop-color="#285293"/>
<stop offset="0.3321" stop-color="#3C5292"/>
<stop offset="0.3667" stop-color="#545190"/>
<stop offset="0.4025" stop-color="#704E8D"/>
<stop offset="0.4394" stop-color="#8E4B89"/>
<stop offset="0.4771" stop-color="#B24485"/>
<stop offset="0.5148" stop-color="#DC377F"/>
<stop offset="0.5217" stop-color="#E5347E"/>
</linearGradient>
<clipPath id="clip0">
<rect width="147" height="112" fill="white" transform="translate(436 50)"/>
</clipPath>
</defs>
</svg>
