<svg width="64" height="64" viewBox="0 0 64 64" fill="none" xmlns="http://www.w3.org/2000/svg">
<g clip-path="url(#clip0)">
<path d="M62.765 19.6405L49.2549 15.0746C48.7645 14.9096 48.2323 15.1721 48.0664 15.6626C47.9007 16.1531 48.1639 16.6853 48.6545 16.8511L62.0356 21.3734L55.7369 24.4442C55.4754 24.2679 55.1818 24.1325 54.8636 24.0493L35.9706 19.1117C35.3701 16.0221 31.5661 14.7254 29.2296 16.9242C28.4209 17.6852 27.9571 18.7584 27.9571 19.8686V19.8891C27.9637 21.1963 29.0457 22.2597 30.3691 22.2597H33.6311C34.4734 22.2597 35.3158 21.8202 35.7527 20.9928L53.3716 25.5976C47.8045 28.3117 35.3071 34.4047 33.714 35.1815C32.5894 35.7297 31.3364 35.6937 30.286 35.1815L1.96422 21.3734L30.7477 11.6456C31.5551 11.3726 32.4448 11.3726 33.2522 11.6456L44.49 15.4437C44.9806 15.6094 45.5125 15.3465 45.6784 14.8557C45.8442 14.3652 45.5809 13.833 45.0904 13.6672L33.8526 9.86914C32.6578 9.46549 31.3421 9.46549 30.1472 9.86914L1.2348 19.6405C-0.301287 20.16 -0.43992 22.2875 1.02004 22.9992L15.8582 30.2333C15.0419 34.1142 13.7955 38.2923 12.441 42.0008C11.8864 43.5174 12.3642 45.2045 13.6295 46.199C17.9117 49.5646 22.9712 52.1645 28.1569 53.8357C30.5938 54.6209 33.3111 54.6511 35.8425 53.8357C41.0298 52.1637 46.0898 49.5628 50.3697 46.199C51.6396 45.2006 52.1109 43.5127 51.5583 42.0008C50.2323 38.3746 48.969 34.1692 48.1412 30.2337L55.1208 26.8309V40.9417C53.9279 41.0331 52.9846 42.0308 52.9846 43.2467V45.9789C52.9846 46.3848 53.1608 46.7494 53.4396 47.0034L53.0913 52.269C53.0233 53.2977 53.8413 54.172 54.8726 54.172H57.2445C58.2753 54.172 59.0936 53.2981 59.0256 52.269L58.6774 47.0034C58.9562 46.7494 59.1325 46.3849 59.1325 45.9789V43.2466C59.1325 42.0307 58.189 41.033 56.9961 40.9416V26.8105C56.9961 26.5224 56.9507 26.2432 56.8697 25.9782L62.9798 22.9993C64.4379 22.2884 64.3036 20.1607 62.765 19.6405V19.6405ZM33.6311 20.3846H30.3691C30.0795 20.3846 29.8336 20.1534 29.8322 19.8844V19.8686C29.8322 19.2646 30.0745 18.7039 30.5146 18.2896C31.8648 17.0189 34.0775 17.9336 34.1651 19.7612C34.186 20.1989 33.9042 20.3846 33.6311 20.3846V20.3846ZM48.7416 39.5906C43.676 43.5551 36.4874 46.3912 34.0112 46.8632C33.5026 46.9602 33.1689 47.4512 33.2659 47.9597C33.3629 48.4685 33.8553 48.8022 34.3625 48.705C36.9525 48.2111 44.0488 45.4533 49.376 41.4667C49.507 41.8404 49.6588 42.2658 49.7972 42.6444C50.0722 43.397 49.8365 44.2328 49.211 44.7247C44.1619 48.6928 38.8415 50.8989 35.2673 52.0506C33.1324 52.7388 30.8137 52.7218 28.732 52.0506C25.1578 50.8988 19.8374 48.6928 14.7883 44.7247C14.1629 44.233 13.9269 43.3974 14.2023 42.6443C14.2078 42.6293 14.2132 42.6141 14.2187 42.5991C14.3549 42.2258 14.506 41.8021 14.6233 41.4665C19.8246 45.3577 26.9016 48.1838 29.636 48.7054C30.1452 48.8022 30.6357 48.4688 30.7327 47.9602C30.8297 47.4516 30.496 46.9606 29.9875 46.8636C27.6499 46.4179 20.4366 43.6419 15.2578 39.5905C16.0192 37.262 16.9015 34.2696 17.595 31.0801L29.4642 36.8667C31.0446 37.6373 32.8937 37.6674 34.5358 36.8667L46.4042 31.0804C47.0977 34.2697 47.98 37.2621 48.7416 39.5906V39.5906ZM54.9686 52.2968L55.2947 47.3666H56.8221L57.1481 52.2968H54.9686ZM57.2572 43.2465V45.4914H54.8597V43.2465C54.8597 43.0086 55.0606 42.8076 55.2986 42.8076H56.8182C57.0561 42.8077 57.2572 43.0086 57.2572 43.2465V43.2465Z" fill="#666666"/>
</g>
<defs>
<clipPath id="clip0">
<rect width="64" height="64" fill="white"/>
</clipPath>
</defs>
</svg>
