<svg width="90" height="80" viewBox="0 0 90 80" fill="none" xmlns="http://www.w3.org/2000/svg">
<g opacity="0.3">
<path d="M45.0651 47.7727C40.6439 47.7727 37.1534 44.2821 37.1534 39.8609C37.1534 35.4397 40.6439 31.9492 45.0651 31.9492C49.4864 31.9492 52.9768 35.4397 52.9768 39.8609C52.7441 44.2821 49.2537 47.7727 45.0651 47.7727ZM45.0651 35.6724C42.7382 35.6724 40.6439 37.5339 40.6439 40.0936C40.6439 42.4206 42.5055 44.5148 45.0651 44.5148C47.6248 44.5148 49.4864 42.6533 49.4864 40.0936C49.2537 37.7666 47.3921 35.6724 45.0651 35.6724Z" fill="#BAD2EE"/>
<path d="M45.064 78.9535C35.5235 78.9535 28.0771 61.7339 28.0771 39.8604C28.0771 28.2255 30.1714 17.2888 34.1273 9.84246L37.1523 11.4714C33.6619 18.4523 31.5676 28.6909 31.5676 39.8604C31.5676 56.6145 37.1523 75.2303 45.064 75.2303C52.9757 75.2303 58.5605 56.6145 58.5605 39.8604C58.5605 18.9176 51.5795 4.49046 45.064 4.49046C43.9005 4.49046 42.5044 4.95581 41.3409 6.11929L39.0139 3.55968C40.8755 1.9308 42.9698 1 45.064 1C54.6046 1 62.0509 18.2196 62.0509 40.0931C61.8182 61.9666 54.3719 78.9535 45.064 78.9535Z" fill="#BAD2EE"/>
<path d="M22.9586 64.5262C21.5624 64.5262 20.1662 64.5262 18.77 64.2935L19.4681 60.803C27.1471 62.1992 39.7128 58.4761 51.5803 51.7279C59.9574 46.8412 67.171 41.0238 71.5923 35.2064C75.7808 29.8543 77.177 25.2004 75.5481 22.408C72.2903 16.8233 56.2343 17.9868 38.0839 28.4582C19.9335 38.9295 11.091 52.1933 14.3488 57.778L11.3237 59.4069C6.66979 51.2625 17.6065 36.1372 36.6877 25.2004C55.5362 14.2637 74.1519 12.1694 78.8059 20.3138C81.1328 24.5023 79.7367 30.3198 74.6173 37.068C69.7307 43.3508 62.2844 49.4009 53.4419 54.5203C42.5051 61.0358 31.3357 64.5262 22.9586 64.5262Z" fill="#BAD2EE"/>
<path d="M66.9381 64.5259C58.561 64.5259 47.3915 60.8028 36.4547 54.7527C27.6123 49.6333 20.166 43.5832 15.2793 37.3004C10.16 30.7849 8.7638 24.7347 11.0908 20.5462C15.7447 12.4018 34.3605 14.4961 53.2089 25.4328C62.0514 30.5522 69.4977 36.6023 74.3844 42.8851C79.5037 49.4006 80.8999 55.4507 78.5729 59.6393C78.1075 60.5701 77.4094 61.2681 76.4786 61.9662L74.3844 59.1739C74.8498 58.7085 75.3151 58.2431 75.5478 57.7777C77.1767 54.9854 75.7805 50.3314 71.592 44.9794C67.1708 39.162 59.9571 33.3445 51.5801 28.4579C33.4297 17.9865 17.3736 16.823 14.1158 22.4077C12.4869 25.2001 13.8831 29.854 18.0717 35.2061C22.4929 41.0235 29.7065 46.8409 38.0836 51.7276C48.7877 58.0104 60.4225 61.5009 68.1015 61.0355L68.3342 64.5259C67.8688 64.5259 67.4034 64.5259 66.9381 64.5259Z" fill="#BAD2EE"/>
<path d="M37.3853 13.3335C34.3602 13.3335 31.8005 10.7738 31.8005 7.74878C31.8005 4.72372 34.3602 2.16406 37.3853 2.16406C40.4103 2.16406 42.97 4.72372 42.97 7.74878C43.2027 10.7738 40.643 13.3335 37.3853 13.3335ZM37.3853 5.65452C36.2218 5.65452 35.291 6.58529 35.291 7.74878C35.291 8.91226 36.2218 9.84304 37.3853 9.84304C38.5488 9.84304 39.4795 8.91226 39.4795 7.74878C39.7122 6.58529 38.5488 5.65452 37.3853 5.65452Z" fill="#BAD2EE"/>
<path d="M15.7451 66.853C12.7201 66.853 10.1604 64.2934 10.1604 61.2683C10.1604 58.2432 12.7201 55.6836 15.7451 55.6836C18.7702 55.6836 21.3299 58.2432 21.3299 61.2683C21.3299 64.2934 18.7702 66.853 15.7451 66.853ZM15.7451 58.9413C14.5816 58.9413 13.6509 59.8721 13.6509 61.0356C13.6509 62.1991 14.5816 63.1299 15.7451 63.1299C16.9086 63.1299 17.8394 62.1991 17.8394 61.0356C17.8394 59.8721 16.9086 58.9413 15.7451 58.9413Z" fill="#BAD2EE"/>
<path d="M72.0569 68.0171C69.0318 68.0171 66.4722 65.4574 66.4722 62.4324C66.4722 59.4073 69.0318 56.8477 72.0569 56.8477C75.082 56.8477 77.6416 59.4073 77.6416 62.4324C77.6416 65.4574 75.3147 68.0171 72.0569 68.0171ZM72.0569 60.1054C70.8934 60.1054 69.9626 61.0362 69.9626 62.1997C69.9626 63.3631 70.8934 64.2939 72.0569 64.2939C73.2204 64.2939 74.1512 63.3631 74.1512 62.1997C74.1512 61.0362 73.2204 60.1054 72.0569 60.1054Z" fill="#BAD2EE"/>
</g>
</svg>
