<svg width="125" height="125" viewBox="0 0 125 125" fill="none" xmlns="http://www.w3.org/2000/svg">
<rect x="42.6367" y="61.4551" width="39.5454" height="13.1818" fill="#8F9DC3"/>
<path d="M50.5457 44.3184H74.2729L79.5456 58.8183H45.2729L50.5457 44.3184Z" fill="#8F9DC3"/>
<path d="M41.3003 76.916V80.9177C41.3003 81.8129 41.9271 82.5456 42.6929 82.5456H47.2169C47.8943 82.5456 48.4434 81.9037 48.4434 81.1119V78.2341C48.4434 78.2288 48.3557 78.2235 48.2931 78.2179C44.0391 77.8411 42.2073 77.5218 41.3003 76.916Z" fill="#8F9DC3"/>
<path d="M83.4611 60.2965C82.2747 58.6835 81.252 58.172 81.252 58.172H83.572C84.3636 58.0944 84.9913 57.314 84.9913 56.3691C84.9913 55.3733 84.2943 54.5586 83.4425 54.5586H80.1854C78.3472 49.9636 75.885 43.5022 74.2088 43.2673C71.6684 42.9109 53.338 42.9109 50.7975 43.2673C49.1239 43.5019 46.6669 49.9563 44.8296 54.5586H41.5489C40.697 54.5588 40 55.3736 40 56.3694C40 57.3651 40.697 58.1799 41.5489 58.1799C41.5489 58.1799 41.637 58.188 41.7675 58.2086H43.723C43.723 58.2086 42.7849 58.6801 41.6635 60.1362C39.292 63.7217 39.7094 73.1296 41.3381 75.5618C42.0155 76.5741 47.749 77.2092 54.7915 77.469L56.3206 77.519C68.0579 77.8545 82.5557 77.1956 83.6587 75.5482C85.2594 73.1575 85.6969 64.0156 83.4611 60.2965ZM46.9048 55.1348C47.037 54.7943 47.1756 54.4354 47.3223 54.0631C48.0747 52.1528 48.9254 49.9873 49.7366 48.2464C50.3772 46.8718 50.8257 46.1127 51.111 45.7015C51.2895 45.4443 51.5485 45.2826 51.8305 45.2479C54.5946 44.9094 70.4046 44.9099 73.1692 45.2482C73.4495 45.2826 73.7068 45.4423 73.8855 45.6971C74.172 46.106 74.6232 46.8621 75.265 48.2394C76.0762 49.9803 76.929 52.1495 77.6817 54.0597C77.8286 54.4323 77.9677 54.7921 78.1001 55.1331C78.3049 55.6607 78.009 56.2668 77.5163 56.3294C75.3013 56.6104 69.616 57.2299 62.5346 57.2299H62.4715C55.3901 57.2299 49.7041 56.6115 47.4886 56.3308C46.9961 56.2685 46.7003 55.6624 46.9048 55.1348ZM46.8382 70.0208C45.2413 70.0208 43.9469 68.5075 43.9469 66.6411C43.9469 64.7745 45.2413 63.2614 46.8382 63.2614C48.4351 63.2614 49.7294 64.7747 49.7294 66.6411C49.7297 68.5075 48.4351 70.0208 46.8382 70.0208ZM71.5649 66.1191L70.2089 68.7921C69.9723 69.2583 69.5432 69.5443 69.0794 69.5443H55.9244C55.4606 69.5443 55.0314 69.2583 54.7949 68.7921L53.4236 66.0889C53.1141 65.4789 53.4902 64.7071 54.0969 64.7071H70.8767C71.4968 64.7071 71.881 65.4957 71.5649 66.1191ZM78.1529 70.0208C76.556 70.0208 75.2616 68.5075 75.2616 66.6411C75.2616 64.7745 76.556 63.2614 78.1529 63.2614C79.7498 63.2614 81.0441 64.7747 81.0441 66.6411C81.0441 68.5075 79.7495 70.0208 78.1529 70.0208Z" fill="#0F3192"/>
<path d="M76.562 78.2338V81.0001C76.562 81.8534 77.1539 82.5453 77.8839 82.5453H82.2169C83.0387 82.5453 83.7048 81.7666 83.7048 80.806V76.916C82.7978 77.5221 80.966 77.8411 76.7121 78.2176C76.6497 78.2232 76.562 78.2285 76.562 78.2338Z" fill="#8F9DC3"/>
</svg>
