<svg width="125" height="125" viewBox="0 0 125 125" fill="none" xmlns="http://www.w3.org/2000/svg">
<rect x="47.8169" y="40.9395" width="29.1071" height="35.6797" fill="#8F9DC3"/>
<path d="M70.8599 80.8533V84.0383C70.8599 84.569 71.2902 84.9994 71.821 84.9994H76.2951C76.8517 84.9994 77.3074 84.5442 77.3074 83.9871V80.8066" fill="#8F9DC3"/>
<path d="M47.8027 80.8203V84.0387C47.8027 84.57 48.2331 85.0004 48.7644 85.0004H53.0509C53.5999 85.0004 54.049 84.5512 54.049 84.0023V80.8543" fill="#8F9DC3"/>
<path d="M75.8228 40H51.041C47.451 40 45 40 45 44.1294V73.253C45 79.3842 47.708 79.3842 51.041 79.4501H75.8228C80.2345 79.4501 80.1093 76.1019 80.1093 73.253V44.1294C80.1098 41.2805 78.6717 40 75.8228 40ZM57.3891 43.0953C57.3891 42.526 57.8525 42.0677 58.4233 42.0677H66.6871C67.2563 42.0677 67.7156 42.526 67.7156 43.0953V45.163C67.7156 45.7323 67.2563 46.1971 66.6871 46.1971H58.4233C57.8525 46.1971 57.3891 45.7323 57.3891 45.163V43.0953ZM50.163 50.7705C50.163 48.39 52.4269 48.2587 54.1362 48.2587H73.7566C75.471 48.2587 75.9794 48.7388 75.9794 50.7705V55.6806C75.9794 59.6447 76.1264 60.653 73.7566 60.653H54.1362C51.3842 60.6737 50.163 60.1136 50.163 55.6806V50.7705ZM53.2947 74.8006C51.48 74.8006 50.0069 73.329 50.0069 71.5076C50.0069 69.6929 51.4795 68.2162 53.2947 68.2162C55.1146 68.2162 56.5877 69.6929 56.5877 71.5076C56.5877 73.329 55.1146 74.8006 53.2947 74.8006ZM72.9186 74.8006C71.0988 74.8006 69.6257 73.329 69.6257 71.5076C69.6257 69.6929 71.0983 68.2162 72.9186 68.2162C74.7334 68.2162 76.2116 69.6929 76.2116 71.5076C76.2116 73.329 74.7334 74.8006 72.9186 74.8006Z" fill="#0F3192"/>
</svg>
