<svg width="62" height="62" viewBox="0 0 62 62" fill="none" xmlns="http://www.w3.org/2000/svg">
<path d="M53.125 34.536V28.5885C54.2163 28.2014 55 27.1598 55 25.9373C55 24.3867 53.7381 23.1248 52.1875 23.1248H36.6906C37.2278 22.4648 37.8287 21.6014 38.1831 20.8814C39.0644 19.086 39.9963 16.3795 39.4263 13.6767C38.9125 11.2392 37.1041 9.38198 34.8184 8.94698C33.6625 8.72667 32.7916 9.0248 32.1306 9.30042C32.1325 8.69948 32.0284 8.12386 31.8137 7.58948C31.6216 7.10855 31.0759 6.87511 30.595 7.0673C30.1141 7.25948 29.8806 7.80511 30.0728 8.28605C30.2284 8.67605 30.2725 9.07917 30.2509 9.46542C26.8459 8.46323 24.9503 9.48886 23.9406 10.5942C22.8981 11.736 22.3656 13.4292 22.4012 15.4907C22.4331 17.2982 22.9019 19.2135 23.7213 20.8823C24.0747 21.6023 24.6766 22.4657 25.2137 23.1257H18.4375C14.8188 23.1257 11.875 26.0695 11.875 29.6882V33.4382C11.875 35.2729 12.6325 36.9332 13.8513 38.1257H13.5625C9.94375 38.1257 7 41.0695 7 44.6882V48.4382C7 52.057 9.94375 55.0007 13.5625 55.0007H47.3116C48.8622 55.0007 50.1241 53.7389 50.1241 52.1882C50.1241 50.9657 49.3403 49.9242 48.2491 49.537V43.5895C49.3403 43.2023 50.1241 42.1607 50.1241 40.9382C50.1241 40.6092 50.0669 40.2942 49.9628 40.0007H52.1875C53.7381 40.0007 55 38.7389 55 37.1882C54.9991 35.9657 54.2153 34.9232 53.125 34.536ZM25.3244 11.8589C25.9431 11.182 26.7906 10.9364 27.6934 10.9364C27.8209 10.9364 27.9503 10.942 28.0797 10.9504C28.0375 11.0179 28.0028 11.091 27.9784 11.1707C27.8266 11.6657 28.105 12.1898 28.6 12.3417C28.9947 12.4626 29.3481 12.5132 29.6678 12.5132C30.6728 12.5132 31.3384 12.0126 31.8588 11.6217C32.0997 11.4407 32.3275 11.2701 32.5759 11.1473C32.5975 11.1379 32.6191 11.1295 32.6397 11.1201C33.2275 10.867 33.7347 10.6485 34.4659 10.7882C36.0063 11.0817 37.2325 12.367 37.5897 14.0629C38.0491 16.2426 37.2503 18.5245 36.4984 20.0545C36.1694 20.7239 35.4231 21.7776 34.8334 22.4039C34.48 22.7798 34.0112 22.9992 33.8125 22.9607C33.5959 22.9195 33.3475 22.8239 33.0587 22.7132C32.5 22.4985 31.8053 22.2314 30.9494 22.2314C30.0944 22.2314 29.3988 22.4985 28.84 22.7132C28.5522 22.8239 28.3028 22.9195 28.0862 22.9607C27.8866 22.9982 27.4197 22.7798 27.0653 22.4039C26.4766 21.7776 25.7294 20.7239 25.4003 20.0545C24.1028 17.407 23.7175 13.6167 25.3244 11.8589ZM18.4375 34.3748C17.9294 34.3748 17.5 33.9454 17.5 33.4373V32.4998H30.1562C30.6737 32.4998 31.0938 32.0798 31.0938 31.5623C31.0938 31.0448 30.6737 30.6248 30.1562 30.6248H17.5V29.6873C17.5 29.1792 17.9294 28.7498 18.4375 28.7498H51.25V30.6248H38.5938C38.0763 30.6248 37.6562 31.0448 37.6562 31.5623C37.6562 32.0798 38.0763 32.4998 38.5938 32.4998H51.25V34.3748H18.4375ZM24.8706 49.3748V47.4998H46.3741V49.3748H24.8706ZM20.6519 47.4998H22.9956V51.682L22.2044 51.3304C21.9625 51.2226 21.685 51.2226 21.4431 51.3304L20.6519 51.682V47.4998ZM46.3741 45.6248H12.625V44.6873C12.625 44.1792 13.0544 43.7498 13.5625 43.7498H46.3741V45.6248ZM12.625 47.4998H18.7778V49.3748H13.5625C13.0544 49.3748 12.625 48.9454 12.625 48.4373V47.4998ZM47.3116 53.1248H24.8706V51.2498H47.3116C47.8281 51.2498 48.2491 51.6707 48.2491 52.1873C48.2491 52.7039 47.8291 53.1248 47.3116 53.1248ZM48.2491 40.9373C48.2491 41.4539 47.8281 41.8748 47.3116 41.8748H13.5625C12.0119 41.8748 10.75 43.1367 10.75 44.6873V48.4373C10.75 49.9879 12.0119 51.2498 13.5625 51.2498H18.7778V53.1248H13.5625C10.9778 53.1248 8.875 51.022 8.875 48.4373V44.6873C8.875 42.1026 10.9778 39.9998 13.5625 39.9998H18.4375H47.3116C47.8291 39.9998 48.2491 40.4207 48.2491 40.9373ZM52.1875 38.1248H18.4375C15.8528 38.1248 13.75 36.022 13.75 33.4373V29.6873C13.75 27.1026 15.8528 24.9998 18.4375 24.9998H52.1875C52.7041 24.9998 53.125 25.4207 53.125 25.9373C53.125 26.4539 52.7041 26.8748 52.1875 26.8748H18.4375C16.8869 26.8748 15.625 28.1367 15.625 29.6873V33.4373C15.625 34.9879 16.8869 36.2498 18.4375 36.2498H52.1875C52.7041 36.2498 53.125 36.6707 53.125 37.1873C53.125 37.7048 52.7041 38.1248 52.1875 38.1248Z" fill="#666666"/>
<path d="M34.376 30.625C33.8575 30.625 33.4385 31.045 33.4385 31.5625C33.4385 32.08 33.8585 32.5 34.376 32.5C34.8935 32.5 35.3135 32.08 35.3135 31.5625C35.3135 31.045 34.8935 30.625 34.376 30.625Z" fill="#666666"/>
</svg>
