<svg width="62" height="62" viewBox="0 0 62 62" fill="none" xmlns="http://www.w3.org/2000/svg">
<path d="M31.1417 36.6518C22.9666 36.6518 16.3164 30.0004 16.3164 21.8265C16.3164 13.6514 22.9666 7 31.1417 7C39.3169 7 45.967 13.6514 45.967 21.8253C45.967 30.0004 39.3169 36.6518 31.1417 36.6518ZM31.9757 34.9029L32.4951 34.6384C33.5495 34.1011 34.5347 32.9622 35.3425 31.3467C35.8107 30.4103 36.205 29.3476 36.5148 28.1884L36.6351 27.7392H31.9757V34.9029ZM25.7687 28.1884C26.0784 29.3464 26.4728 30.4091 26.941 31.3467C27.7487 32.9622 28.7328 34.0999 29.7883 34.6384L30.3078 34.9029V27.7381H25.6484L25.7687 28.1884ZM38.2768 28.0144C37.9194 29.5227 37.4333 30.894 36.8341 32.0925C36.6279 32.5047 36.4052 32.9002 36.1705 33.2707L35.5236 34.2917L36.622 33.7866C39.1262 32.6345 41.2516 30.676 42.6086 28.2718L42.91 27.7392H38.3423L38.2768 28.0144ZM19.6749 28.2718C21.0318 30.676 23.1584 32.6345 25.6615 33.7866L26.7599 34.2917L26.113 33.2707C25.8771 32.899 25.6543 32.5023 25.4494 32.0925C24.8501 30.894 24.3653 29.5215 24.0067 28.0133L23.9411 27.7381H19.3734L19.6749 28.2718ZM38.7116 17.9867C38.8844 19.2413 38.9714 20.5327 38.9714 21.8265C38.9714 23.1191 38.8844 24.4106 38.7116 25.6663L38.6556 26.0725H43.5986L43.6784 25.8235C44.0906 24.5333 44.2991 23.1882 44.2991 21.8265C44.2991 20.4648 44.0906 19.1197 43.6784 17.8295L43.5986 17.5805H38.6556L38.7116 17.9867ZM31.9757 26.0713H36.9699L37.0163 25.7675C37.2081 24.4987 37.3046 23.1727 37.3046 21.8265C37.3046 20.4803 37.2081 19.1543 37.0163 17.8855L36.9699 17.5817H31.9757V26.0713ZM25.2683 17.8843C25.0765 19.1531 24.98 20.4791 24.98 21.8253C24.98 23.1727 25.0765 24.4987 25.2683 25.7663L25.3148 26.0701H30.3078V17.5805H25.3136L25.2683 17.8843ZM18.605 17.8295C18.1928 19.1197 17.9843 20.4648 17.9843 21.8265C17.9843 23.1882 18.1928 24.5333 18.6062 25.8235L18.686 26.0725H23.629L23.573 25.6663C23.4002 24.4118 23.3133 23.1203 23.3133 21.8277C23.3133 20.5351 23.4002 19.2436 23.573 17.9879L23.629 17.5817H18.686L18.605 17.8295ZM29.7883 9.0134C28.7328 9.5519 27.7487 10.6896 26.941 12.3051C26.4728 13.2415 26.0784 14.3042 25.7687 15.4634L25.6484 15.9126H30.3078V8.74773L29.7883 9.0134ZM25.6615 9.86523C23.1572 11.0173 21.0318 12.9759 19.6749 15.38L19.3746 15.9126H23.9423L24.0078 15.6374C24.3653 14.1291 24.8513 12.7567 25.4506 11.5593C25.6567 11.1471 25.8795 10.7504 26.1142 10.3811L26.7623 9.36009L25.6615 9.86523ZM36.1705 10.3811C36.4052 10.7528 36.6291 11.1495 36.8341 11.5593C37.4333 12.7579 37.9182 14.1303 38.2768 15.6386L38.3423 15.9138H42.91L42.6086 15.3812C41.2516 12.9747 39.1262 11.0161 36.622 9.86523L35.5236 9.36009L36.1705 10.3811ZM31.9757 15.9126H36.6351L36.5148 15.4634C36.205 14.3042 35.8107 13.2427 35.3425 12.3051C34.5347 10.6896 33.5507 9.5519 32.4951 9.0134L31.9757 8.74773V15.9126Z" fill="#666666"/>
<path d="M32.9932 51.9607C32.7526 51.9607 32.525 51.8571 32.3666 51.6772C32.1307 51.4091 32.0925 51.0196 32.2712 50.7098L32.581 50.1737H27.2568C26.7969 50.1737 26.4229 49.7996 26.4229 49.3397C26.4229 48.8799 26.7969 48.5058 27.2568 48.5058H32.581L32.2712 47.9697C32.0925 47.6599 32.1307 47.2704 32.3666 47.0023C32.525 46.8224 32.7537 46.7188 32.9932 46.7188C33.1957 46.7188 33.3911 46.7926 33.5436 46.926L35.5773 48.7131C35.8942 48.9847 35.9526 49.4875 35.7107 49.8163C35.6726 49.8699 35.6297 49.9176 35.5701 49.9736L33.5436 51.7535C33.3911 51.8869 33.1957 51.9607 32.9932 51.9607Z" fill="#666666"/>
<path d="M29.2906 45.2908C29.088 45.2908 28.8927 45.217 28.7402 45.0835L26.7065 43.2965C26.5278 43.1452 26.4277 42.9188 26.4277 42.6698C26.4277 42.422 26.5278 42.1945 26.7017 42.0479L28.7414 40.2561C28.8939 40.1227 29.0892 40.0488 29.2918 40.0488C29.5324 40.0488 29.76 40.1525 29.9184 40.3324C30.1543 40.6004 30.1924 40.99 30.0137 41.2998L29.704 41.8359H35.0282C35.4881 41.8359 35.8621 42.21 35.8621 42.6698C35.8621 43.1297 35.4881 43.5038 35.0282 43.5038H29.704L30.0137 44.0399C30.1924 44.3496 30.1543 44.738 29.9184 45.0073C29.7588 45.1872 29.53 45.2908 29.2906 45.2908Z" fill="#666666"/>
<path d="M14.6792 55.0003C14.2194 55.0003 13.8453 54.6262 13.8453 54.1663C13.8453 53.7065 14.2194 53.3324 14.6792 53.3324H15.9683V50.5112C15.9683 49.4593 15.5585 48.4704 14.815 47.727C14.0716 46.9836 13.0828 46.5738 12.0308 46.5738H6.60536C5.55339 46.5738 4.56456 46.9836 3.82115 47.727C3.07774 48.4704 2.66791 49.4593 2.66791 50.5112V53.3324H3.95696C4.41683 53.3324 4.79092 53.7065 4.79092 54.1663C4.79092 54.6262 4.41683 55.0003 3.95696 55.0003H1.83395C1.37409 55.0003 1 54.6262 1 54.1663V50.5112C1 49.0137 1.58258 47.6067 2.6417 46.5476C3.22427 45.965 3.90692 45.5278 4.67178 45.2466L5.19002 45.0572L4.80521 44.6617C3.63887 43.4655 3.00387 41.9036 3.01459 40.2643V39.5674L2.92167 39.4649C2.26642 38.7453 2.19613 38.5464 2.1592 37.3348C2.1592 35.5858 2.92405 33.8119 4.25599 32.4776C5.63321 31.098 7.43098 30.3379 9.31809 30.3379C11.2052 30.3379 13.003 31.098 14.3802 32.4776C15.7121 33.8119 16.477 35.5858 16.477 37.3455C16.4413 38.5464 16.3698 38.7453 15.7145 39.4661L15.6216 39.5686V40.2703C15.6335 41.9072 14.9973 43.4667 13.8322 44.6628L13.4474 45.0584L13.9656 45.2478C14.7305 45.5278 15.4143 45.965 15.9969 46.5476C17.056 47.6067 17.6386 49.0137 17.6386 50.5112V54.1663C17.6386 54.6262 17.2645 55.0003 16.8046 55.0003H14.6792ZM9.36217 44.9059C10.5678 44.9059 11.7151 44.4222 12.5931 43.5453C13.4795 42.6602 13.962 41.4998 13.9537 40.2762V38.88L13.6118 38.8645C11.8211 38.7847 10.4928 38.3522 9.5516 37.5456L9.31929 37.3455L9.08697 37.5456C8.14579 38.3534 6.81742 38.7847 5.02561 38.8657L4.68369 38.8812V40.2715C4.67535 41.4974 5.15905 42.6614 6.04542 43.5465C6.92345 44.4234 8.07074 44.9071 9.2752 44.9071H9.32524L9.36217 44.9059ZM9.31809 32.007C6.53388 32.007 4.07848 34.2194 3.84497 36.938L3.79851 37.4849L4.31794 37.3062C4.49903 37.2442 4.68727 37.2097 4.88027 37.2013C7.43812 37.1025 8.22204 36.2101 8.58898 35.5465C8.73552 35.2809 9.01549 35.1164 9.31809 35.1164C9.62189 35.1164 9.90067 35.2809 10.0484 35.5465C10.4153 36.2101 11.1993 37.1025 13.7571 37.2013C13.9501 37.2085 14.1395 37.2442 14.3194 37.3062L14.8389 37.4849L14.7924 36.938C14.5589 34.2194 12.1035 32.007 9.31809 32.007Z" fill="#666666"/>
<path d="M9.31833 54.9999C9.77891 54.9999 10.1523 54.6266 10.1523 54.166C10.1523 53.7054 9.77891 53.332 9.31833 53.332C8.85775 53.332 8.48438 53.7054 8.48438 54.166C8.48438 54.6266 8.85775 54.9999 9.31833 54.9999Z" fill="#666666"/>
<path d="M45.4795 54.9991C45.0196 54.9991 44.6455 54.625 44.6455 54.1651V50.51C44.6455 49.0125 45.2281 47.6055 46.2872 46.5464C46.8698 45.9638 47.5524 45.5266 48.3173 45.2466L48.8355 45.0572L48.4507 44.6616C47.2844 43.4655 46.6494 41.9048 46.6601 40.2643V39.5674L46.5672 39.4649C45.9119 38.7453 45.8416 38.5464 45.8059 37.3348C45.8059 35.5858 46.5708 33.8119 47.9027 32.4776C49.2799 31.098 51.0777 30.3379 52.9648 30.3379C54.8519 30.3379 56.6497 31.098 58.0269 32.4776C59.3589 33.8119 60.1237 35.5858 60.1237 37.3455C60.1011 38.0913 60.0737 38.2342 59.9998 38.5035C59.8723 38.8526 59.6627 39.1718 59.3755 39.4506L59.2671 39.5555V40.2703C59.279 41.9072 58.6428 43.4667 57.4777 44.6628L57.0929 45.0584L57.6111 45.2478C58.376 45.5278 59.0598 45.9662 59.6424 46.5488C60.7015 47.6079 61.2841 49.0149 61.2841 50.5124V54.1675C61.2841 54.6274 60.91 55.0015 60.4501 55.0015H45.4795V54.9991ZM50.2509 46.5726C49.1989 46.5726 48.2101 46.9824 47.4667 47.7258C46.7232 48.4692 46.3134 49.4581 46.3134 50.51V53.3312H59.615V50.51C59.615 49.4581 59.2052 48.4692 58.4618 47.7258C57.7183 46.9824 56.7295 46.5726 55.6775 46.5726H50.2509ZM53.0077 44.9047C54.2134 44.9047 55.3606 44.421 56.2387 43.5441C57.125 42.659 57.6075 41.4986 57.5992 40.275V38.8788L57.2573 38.8633C55.4655 38.7835 54.1383 38.351 53.1971 37.5444L52.9648 37.3443L52.7325 37.5444C51.7913 38.3522 50.4629 38.7835 48.6711 38.8645L48.3292 38.88V40.2703C48.3209 41.4962 48.8046 42.6602 49.6909 43.5453C50.569 44.4222 51.7163 44.9059 52.9207 44.9059H52.9708L53.0077 44.9047ZM52.9636 35.1153C53.2674 35.1153 53.5462 35.2797 53.6927 35.5453C54.0597 36.2089 54.8436 37.1013 57.4014 37.2001C57.5944 37.2073 57.7839 37.243 57.9638 37.305L58.4832 37.4837L58.4367 36.9368C58.2032 34.2182 55.7478 32.007 52.9636 32.007C50.1794 32.007 47.724 34.2194 47.4905 36.938L47.444 37.4849L47.9635 37.3074C48.1445 37.2454 48.334 37.2097 48.5258 37.2025C51.0836 37.1036 51.8676 36.2113 52.2345 35.5477C52.3822 35.2809 52.661 35.1153 52.9636 35.1153Z" fill="#666666"/>
</svg>
