<svg width="62" height="62" viewBox="0 0 62 62" fill="none" xmlns="http://www.w3.org/2000/svg">
<path d="M42.606 28.1094C40.7648 28.1094 39.2676 29.6075 39.2676 31.4478C39.2676 33.2881 40.7657 34.7862 42.606 34.7862C44.4463 34.7862 45.9444 33.2881 45.9444 31.4478C45.9444 29.6075 44.4473 28.1094 42.606 28.1094ZM42.606 32.9112C41.7988 32.9112 41.1426 32.255 41.1426 31.4478C41.1426 30.6406 41.7988 29.9844 42.606 29.9844C43.4132 29.9844 44.0694 30.6406 44.0694 31.4478C44.0694 32.2541 43.4132 32.9112 42.606 32.9112Z" fill="#666666"/>
<path d="M42.6064 23.2715C42.0889 23.2715 41.6689 23.6915 41.6689 24.209V25.2955C41.6689 25.813 42.0889 26.233 42.6064 26.233C43.1239 26.233 43.5439 25.813 43.5439 25.2955V24.209C43.5439 23.6915 43.1249 23.2715 42.6064 23.2715Z" fill="#666666"/>
<path d="M42.6064 36.6602C42.0889 36.6602 41.6689 37.0802 41.6689 37.5977V42.903C41.6689 43.4205 42.0889 43.8405 42.6064 43.8405C43.1239 43.8405 43.5439 43.4205 43.5439 42.903V37.5977C43.5439 37.0792 43.1249 36.6602 42.6064 36.6602Z" fill="#666666"/>
<path d="M54.0621 30.5098H48.7568C48.2393 30.5098 47.8193 30.9298 47.8193 31.4473C47.8193 31.9648 48.2393 32.3848 48.7568 32.3848H54.0621C54.5796 32.3848 54.9996 31.9648 54.9996 31.4473C54.9996 30.9298 54.5796 30.5098 54.0621 30.5098Z" fill="#666666"/>
<path d="M46.9566 28.0337C47.1966 28.0337 47.4366 27.9418 47.6194 27.759L51.3703 24.008C51.7359 23.6424 51.7359 23.048 51.3703 22.6824C51.0047 22.3168 50.4103 22.3168 50.0447 22.6824L46.2937 26.4334C45.9281 26.799 45.9281 27.3934 46.2937 27.759C46.4766 27.9427 46.7166 28.0337 46.9566 28.0337Z" fill="#666666"/>
<path d="M33.8433 40.2101C34.0261 40.393 34.2661 40.4848 34.5061 40.4848C34.7461 40.4848 34.9861 40.393 35.1689 40.2101L38.9198 36.4592C39.2855 36.0936 39.2855 35.4992 38.9198 35.1336C38.5542 34.768 37.9598 34.768 37.5942 35.1336L33.8433 38.8845C33.4767 39.2511 33.4767 39.8445 33.8433 40.2101Z" fill="#666666"/>
<path d="M47.6194 35.1336C47.2537 34.768 46.6594 34.768 46.2937 35.1336C45.9281 35.4992 45.9281 36.0936 46.2937 36.4592L47.0616 37.227C47.2444 37.4098 47.4844 37.5017 47.7244 37.5017C47.9644 37.5017 48.2044 37.4098 48.3872 37.227C48.7528 36.8614 48.7528 36.267 48.3872 35.9014L47.6194 35.1336Z" fill="#666666"/>
<path d="M38.9195 26.4337L35.1686 22.6828C34.802 22.3162 34.2086 22.3171 33.8429 22.6828C33.4773 23.0484 33.4764 23.6428 33.8429 24.0084L37.5939 27.7593C37.7767 27.9421 38.0167 28.034 38.2567 28.034C38.4967 28.034 38.7367 27.9421 38.9195 27.7593C39.286 27.3937 39.286 26.8003 38.9195 26.4337Z" fill="#666666"/>
<path d="M18.0674 41.1172C16.5168 41.1172 15.2549 42.3791 15.2549 43.9297C15.2549 45.4803 16.5168 46.7422 18.0674 46.7422C19.618 46.7422 20.8799 45.4803 20.8799 43.9297C20.8799 42.3791 19.618 41.1172 18.0674 41.1172ZM18.0674 44.8672C17.5508 44.8672 17.1299 44.4462 17.1299 43.9297C17.1299 43.4131 17.5508 42.9922 18.0674 42.9922C18.5839 42.9922 19.0049 43.4131 19.0049 43.9297C19.0049 44.4462 18.5849 44.8672 18.0674 44.8672Z" fill="#666666"/>
<path d="M17.1299 33.8047V38.3094C17.1299 38.8269 17.5499 39.2469 18.0674 39.2469C18.5849 39.2469 19.0049 38.8269 19.0049 38.3094V33.8047C19.0049 33.2872 18.5849 32.8672 18.0674 32.8672C17.5499 32.8672 17.1299 33.2872 17.1299 33.8047Z" fill="#666666"/>
<path d="M18.0674 48.6172C17.5499 48.6172 17.1299 49.0372 17.1299 49.5547V54.0594C17.1299 54.5769 17.5499 54.9969 18.0674 54.9969C18.5849 54.9969 19.0049 54.5769 19.0049 54.0594V49.5547C19.0049 49.0372 18.5849 48.6172 18.0674 48.6172Z" fill="#666666"/>
<path d="M28.1971 42.9922H23.6924C23.1749 42.9922 22.7549 43.4122 22.7549 43.9297C22.7549 44.4472 23.1749 44.8672 23.6924 44.8672H28.1971C28.7146 44.8672 29.1346 44.4472 29.1346 43.9297C29.1346 43.4122 28.7146 42.9922 28.1971 42.9922Z" fill="#666666"/>
<path d="M13.3797 43.9297C13.3797 43.4122 12.9597 42.9922 12.4422 42.9922H7.9375C7.42 42.9922 7 43.4122 7 43.9297C7 44.4472 7.42 44.8672 7.9375 44.8672H12.4422C12.9597 44.8672 13.3797 44.4472 13.3797 43.9297Z" fill="#666666"/>
<path d="M24.5673 36.1066L21.3816 39.2922C21.016 39.6578 21.016 40.2522 21.3816 40.6178C21.5645 40.8007 21.8045 40.8925 22.0445 40.8925C22.2845 40.8925 22.5245 40.8007 22.7073 40.6178L25.8929 37.4322C26.2585 37.0666 26.2585 36.4722 25.8929 36.1066C25.5273 35.741 24.9338 35.74 24.5673 36.1066Z" fill="#666666"/>
<path d="M13.4264 47.2469L10.2407 50.4325C9.87418 50.7981 9.87418 51.3925 10.2407 51.7581C10.4236 51.9409 10.6636 52.0328 10.9036 52.0328C11.1436 52.0328 11.3836 51.9409 11.5664 51.7581L14.752 48.5725C15.1176 48.2069 15.1176 47.6125 14.752 47.2469C14.3864 46.8813 13.7929 46.8813 13.4264 47.2469Z" fill="#666666"/>
<path d="M22.7082 47.2469C22.3426 46.8813 21.7482 46.8813 21.3826 47.2469C21.017 47.6125 21.017 48.2069 21.3826 48.5725L24.5682 51.7581C24.751 51.9409 24.991 52.0328 25.231 52.0328C25.471 52.0328 25.711 51.9409 25.8939 51.7581C26.2595 51.3925 26.2595 50.7981 25.8939 50.4325L22.7082 47.2469Z" fill="#666666"/>
<path d="M11.5673 36.1062C11.2017 35.7406 10.6073 35.7406 10.2417 36.1062C9.87516 36.4719 9.87516 37.0662 10.2417 37.4319L13.4273 40.6175C13.6102 40.8003 13.8502 40.8922 14.0902 40.8922C14.3301 40.8922 14.5701 40.8003 14.753 40.6175C15.1186 40.2519 15.1186 39.6575 14.753 39.2919L11.5673 36.1062Z" fill="#666666"/>
<path d="M23.8794 16.1838C24.245 15.8182 24.245 15.2238 23.8794 14.8582C23.5138 14.4926 22.9194 14.4926 22.5538 14.8582L20.2635 17.1485C19.8979 17.5141 19.8979 18.1085 20.2635 18.4741C20.4463 18.6569 20.6863 18.7488 20.9263 18.7488C21.1663 18.7488 21.4063 18.6569 21.5891 18.4741L23.8794 16.1838Z" fill="#666666"/>
<path d="M12.2547 25.1544C11.8891 25.52 11.8891 26.1144 12.2547 26.48C12.4375 26.6628 12.6775 26.7547 12.9175 26.7547C13.1575 26.7547 13.3975 26.6628 13.5803 26.48L15.8706 24.1897C16.2362 23.8241 16.2362 23.2297 15.8706 22.8641C15.505 22.4984 14.9106 22.4984 14.545 22.8641L12.2547 25.1544Z" fill="#666666"/>
<path d="M10.7903 19.6891L13.9187 20.5272C14.0003 20.5488 14.0818 20.5591 14.1624 20.5591C14.5759 20.5591 14.9556 20.2826 15.0671 19.8644C15.2012 19.3638 14.904 18.8501 14.4043 18.716L11.2759 17.8779C10.7753 17.7438 10.2615 18.041 10.1275 18.5407C9.99339 19.0413 10.2896 19.5551 10.7903 19.6891Z" fill="#666666"/>
<path d="M21.7312 22.6188L24.8596 23.4569C24.9412 23.4785 25.0227 23.4888 25.1034 23.4888C25.5168 23.4888 25.8965 23.2122 26.008 22.7941C26.1421 22.2935 25.8449 21.7798 25.3452 21.6457L22.2168 20.8076C21.7162 20.6735 21.2024 20.9707 21.0684 21.4704C20.9343 21.9701 21.2306 22.4848 21.7312 22.6188Z" fill="#666666"/>
<path d="M20.0192 24.3317C19.8851 23.832 19.3714 23.5348 18.8708 23.6689C18.3711 23.803 18.0739 24.3167 18.208 24.8173L19.0461 27.9458C19.1586 28.3648 19.5373 28.6404 19.9508 28.6404C20.0314 28.6404 20.113 28.6301 20.1945 28.6086C20.6942 28.4745 20.9914 27.9608 20.8573 27.4601L20.0192 24.3317Z" fill="#666666"/>
<path d="M16.1154 17.0044C16.2279 17.4234 16.6067 17.699 17.0201 17.699C17.1007 17.699 17.1823 17.6887 17.2639 17.6672C17.7635 17.5331 18.0607 17.0194 17.9267 16.5187L17.0885 13.3903C16.9545 12.8906 16.4407 12.5934 15.9401 12.7275C15.4404 12.8615 15.1432 13.3753 15.2773 13.8759L16.1154 17.0044Z" fill="#666666"/>
<path d="M28.1421 16.4405L31.5949 16.5774L33.4399 19.4996C33.6124 19.7733 33.9133 19.9364 34.2321 19.9364C34.2649 19.9364 34.2977 19.9346 34.3305 19.9318C34.6858 19.8943 34.9886 19.6589 35.1114 19.3243L36.3086 16.0824L39.6574 15.2311C40.0033 15.143 40.2695 14.8664 40.3436 14.5177C40.4177 14.169 40.2874 13.808 40.007 13.5868L37.2939 11.4465L37.5189 7.99833C37.5424 7.64208 37.3614 7.30365 37.0521 7.12552C36.7427 6.9474 36.3592 6.95959 36.063 7.1574L33.1896 9.07646L29.9796 7.79583C29.6477 7.66365 29.2699 7.73115 29.0055 7.97021C28.7402 8.20927 28.6333 8.57771 28.7308 8.92083L29.6674 12.2471L27.4586 14.9049C27.2308 15.1796 27.1783 15.5593 27.3227 15.8855C27.4671 16.2118 27.7849 16.4264 28.1421 16.4405ZM31.6052 12.2133L31.0492 10.2408L32.9524 10.9993C33.2392 11.1136 33.5636 11.079 33.8205 10.9083L35.5239 9.77021L35.3908 11.8149C35.3711 12.1224 35.5033 12.4205 35.7461 12.6118L37.3549 13.8802L35.3692 14.3855C35.0702 14.4615 34.8274 14.6799 34.7205 14.9696L34.0108 16.8914L32.9167 15.1589C32.7517 14.8983 32.4696 14.7352 32.1611 14.723L30.1136 14.6424L31.4233 13.0665C31.6211 12.8293 31.6886 12.5105 31.6052 12.2133Z" fill="#666666"/>
<path d="M42.3374 46.4919L38.9193 45.9866L37.3977 42.8844C37.2402 42.5638 36.9149 42.3603 36.5587 42.3594C36.5577 42.3594 36.5568 42.3594 36.5568 42.3594C36.2005 42.3594 35.8752 42.5609 35.7168 42.8797L34.1802 45.9744L30.7593 46.4628C30.4059 46.5134 30.1124 46.76 30.0009 47.0994C29.8893 47.4387 29.9812 47.8109 30.2362 48.0612L32.7046 50.4791L32.1121 53.8831C32.0512 54.2347 32.1946 54.5909 32.4824 54.8009C32.7702 55.0119 33.1537 55.04 33.4696 54.875L36.5324 53.2747L39.5868 54.89C39.7246 54.9631 39.8746 54.9987 40.0246 54.9987C40.2187 54.9987 40.4108 54.9387 40.574 54.8206C40.8627 54.6115 41.009 54.2562 40.949 53.9047L40.3733 50.4978L42.854 48.0922C43.1099 47.8437 43.2027 47.4716 43.094 47.1322C42.9833 46.7919 42.6899 46.5434 42.3374 46.4919ZM38.713 49.4947C38.4918 49.7094 38.3896 50.0197 38.4412 50.3234L38.7824 52.3437L36.9712 51.3856C36.8343 51.3134 36.6833 51.2769 36.5333 51.2769C36.3843 51.2769 36.2352 51.3125 36.0993 51.3837L34.2833 52.3325L34.6349 50.3141C34.6874 50.0103 34.588 49.7 34.3677 49.4834L32.9043 48.05L34.933 47.7603C35.2387 47.7172 35.503 47.5259 35.6399 47.2494L36.5512 45.4147L37.453 47.2541C37.589 47.5306 37.8524 47.7237 38.158 47.7687L40.1849 48.0687L38.713 49.4947Z" fill="#666666"/>
<path d="M36.4557 32.3848C36.9732 32.3848 37.3932 31.9648 37.3932 31.4473C37.3932 30.9298 36.9732 30.5098 36.4557 30.5098H35.3691C34.8516 30.5098 34.4316 30.9298 34.4316 31.4473C34.4316 31.9648 34.8516 32.3848 35.3691 32.3848H36.4557Z" fill="#666666"/>
<path d="M42.6064 20.9277C43.1242 20.9277 43.5439 20.508 43.5439 19.9902C43.5439 19.4725 43.1242 19.0527 42.6064 19.0527C42.0887 19.0527 41.6689 19.4725 41.6689 19.9902C41.6689 20.508 42.0887 20.9277 42.6064 20.9277Z" fill="#666666"/>
<path d="M31.1504 32.3848C31.6682 32.3848 32.0879 31.965 32.0879 31.4473C32.0879 30.9295 31.6682 30.5098 31.1504 30.5098C30.6326 30.5098 30.2129 30.9295 30.2129 31.4473C30.2129 31.965 30.6326 32.3848 31.1504 32.3848Z" fill="#666666"/>
<path d="M50.707 40.4844C51.2248 40.4844 51.6445 40.0646 51.6445 39.5469C51.6445 39.0291 51.2248 38.6094 50.707 38.6094C50.1893 38.6094 49.7695 39.0291 49.7695 39.5469C49.7695 40.0646 50.1893 40.4844 50.707 40.4844Z" fill="#666666"/>
<path d="M18.0674 21.6055C18.5851 21.6055 19.0049 21.1857 19.0049 20.668C19.0049 20.1502 18.5851 19.7305 18.0674 19.7305C17.5496 19.7305 17.1299 20.1502 17.1299 20.668C17.1299 21.1857 17.5496 21.6055 18.0674 21.6055Z" fill="#666666"/>
</svg>
