<svg width="175" height="175" viewBox="0 0 175 175" fill="none" xmlns="http://www.w3.org/2000/svg">
<path d="M0 87.1C0 135.16 39.0397 174.2 87.1 174.2C135.16 174.2 174.2 135.16 174.2 87.1C174.2 39.0397 135.16 0 87.1 0C39.0397 0 0 39.0397 0 87.1ZM2.21817 87.1C2.21817 40.2227 40.3706 2.21817 87.1 2.21817C133.977 2.21817 171.982 40.3706 171.982 87.1C171.982 133.977 133.829 171.982 87.1 171.982C40.2227 171.982 2.21817 133.977 2.21817 87.1Z" fill="#004EA2"/>
<path d="M145.512 87.0992C145.512 119.337 119.338 145.511 87.1002 145.511C54.8628 145.511 28.6885 119.337 28.6885 87.0992C28.6885 54.8619 54.8628 28.6875 87.1002 28.6875C119.338 28.6875 145.512 54.8619 145.512 87.0992Z" fill="white"/>
<path d="M27.8008 87.0998C27.8008 119.781 54.4188 146.399 87.0998 146.399C119.781 146.399 146.399 119.781 146.399 87.0998C146.399 54.4188 119.781 27.8008 87.0998 27.8008C54.4188 27.8008 27.8008 54.4188 27.8008 87.0998ZM29.5753 87.0998C29.5753 55.306 55.306 29.5753 87.0998 29.5753C118.893 29.5753 144.624 55.4539 144.624 87.0998C144.624 118.746 118.893 144.772 87.0998 144.772C55.306 144.772 29.5753 118.893 29.5753 87.0998Z" fill="#004EA2"/>
<path d="M19.3719 96.4174C19.5198 97.0089 19.3719 97.6004 19.2241 97.8961C18.9283 98.1919 18.4847 98.3398 17.8932 98.4876C17.1538 98.6355 16.7101 98.4877 16.4144 98.3398C16.1186 98.044 15.9707 97.6004 15.8229 96.861L15.675 95.9737L19.3719 95.5301V96.4174ZM20.9986 92.1289L7.98535 93.9034L8.42898 96.7131L13.6047 95.9737L13.7526 97.4525V97.6004C13.9005 98.4877 14.0483 99.0792 14.1962 99.5228C14.3441 99.9664 14.6399 100.262 14.9356 100.41C15.2314 100.706 15.675 100.854 16.2665 101.002C16.858 101.149 17.4495 101.149 18.041 101.002C19.5198 100.854 20.4071 100.41 20.9986 99.6707C21.4422 99.0792 21.5901 97.8961 21.4422 96.4174L20.9986 92.1289Z" fill="#004EA2"/>
<path d="M21.2946 107.358L16.2668 110.316L15.3795 107.654L21.2946 107.358ZM12.8656 115.639L24.4001 108.245L23.2171 104.992L9.6123 105.288L10.3517 107.95L13.3092 107.802L14.4923 111.499L11.8305 113.125L12.8656 115.639Z" fill="#004EA2"/>
<path d="M15.3789 121.407L27.2091 115.492L28.3922 117.858L16.7098 123.773L15.3789 121.407Z" fill="#004EA2"/>
<path d="M33.2728 139.447L33.1249 139.595C33.1249 139.595 32.977 139.743 32.8292 139.891C31.794 140.778 30.9068 141.074 29.8716 141.074C28.8365 141.074 27.9492 140.483 27.0619 139.447C26.6183 139.004 26.3225 138.56 26.1747 137.969C25.8789 137.525 25.8789 136.933 25.8789 136.638C25.8789 135.898 26.1747 135.159 26.6183 134.42C27.0619 133.68 28.0971 132.645 29.5759 131.462C30.611 130.575 31.3504 129.983 32.0898 129.54C32.6813 129.096 33.2728 128.948 33.8643 128.8C34.4558 128.652 35.0473 128.8 35.6388 129.096C36.2303 129.392 36.8219 129.835 37.2655 130.427C38.1528 131.462 38.5964 132.349 38.4485 133.384C38.4485 134.272 37.857 135.307 36.8219 136.194L36.674 136.342L34.8994 134.272L35.0473 134.124C35.6388 133.68 35.9346 133.237 35.9346 132.793C36.0825 132.349 35.9346 132.054 35.6388 131.758C35.1952 131.314 34.7516 131.166 34.1601 131.314C33.5685 131.462 32.3855 132.349 30.9067 133.828C29.5758 135.011 28.6886 135.898 28.3928 136.49C28.0971 137.081 28.0971 137.525 28.5407 138.117C28.8365 138.412 29.1322 138.56 29.5759 138.56C30.0195 138.56 30.4631 138.264 31.0546 137.673L31.2025 137.525L31.3504 137.377L33.2728 139.447Z" fill="#004EA2"/>
<path d="M36.8217 148.32L34.6035 146.693L42.7368 136.342L44.955 137.968L41.8495 141.961L44.2156 143.736L47.321 139.743L49.5392 141.37L41.4059 151.721L39.1877 150.094L42.7368 145.51L40.3707 143.736L36.8217 148.32Z" fill="#004EA2"/>
<path d="M55.7497 148.025L54.4188 153.793L51.9049 152.61L55.7497 148.025ZM55.8976 160.003L58.5594 146.547L55.3061 144.92L46.1377 154.976L48.6516 156.159L50.574 153.793L53.9752 155.567L53.3837 158.525L55.8976 160.003Z" fill="#004EA2"/>
<path d="M61.0732 161.779L65.0659 149.209L67.5799 150.096L63.5872 162.666L61.0732 161.779Z" fill="#004EA2"/>
<path d="M87.5437 152.904L87.1001 161.037C86.9522 162.812 86.6564 164.143 85.917 164.882C85.1776 165.621 83.9946 165.917 82.368 165.917C80.8892 165.769 79.7062 165.326 79.1147 164.586C78.3753 163.847 78.0795 162.516 78.2274 160.889L78.671 152.312L81.4807 152.46L81.0371 160.298C80.8892 161.777 81.0371 162.812 81.3328 163.108C81.6286 163.551 82.0722 163.699 82.6637 163.847C83.2552 163.847 83.6989 163.699 83.9946 163.255C84.2904 162.812 84.4383 161.925 84.5861 160.446L85.0298 152.608L87.5437 152.904Z" fill="#004EA2"/>
<path d="M109.578 162.517L105.585 149.948L108.099 149.061L112.092 161.63L109.578 162.517Z" fill="#004EA2"/>
<path d="M103.367 164.293L101.297 151.279L98.6348 151.723L100.114 161.187L95.3815 152.314L91.6846 152.758L93.7549 165.771L96.4167 165.328L94.79 155.716L99.8178 164.884L103.367 164.293Z" fill="#004EA2"/>
<path d="M120.076 158.672L111.352 148.32L113.865 147.137L118.006 152.757C118.745 153.644 119.189 154.383 119.633 154.827C120.076 155.418 120.372 155.862 120.52 156.306C120.224 155.566 119.928 154.827 119.781 154.087C119.633 153.348 119.337 152.757 119.189 152.165L117.562 145.363L120.076 144.18L122.738 157.489L120.076 158.672Z" fill="#004EA2"/>
<path d="M130.428 153.053L122.738 142.258L128.506 138.117L129.689 139.744L126.139 142.258L127.914 144.772L131.167 142.406L132.35 144.032L129.097 146.398L131.315 149.504L135.012 146.842L136.195 148.617L130.428 153.053Z" fill="#004EA2"/>
<path d="M134.717 135.309L135.16 134.718C135.752 134.126 136.195 133.978 136.491 133.83C136.787 133.83 137.231 133.978 137.674 134.57C138.118 135.013 138.414 135.457 138.414 135.901C138.414 136.344 138.118 136.788 137.674 137.232L137.231 137.675L134.717 135.309ZM131.315 135.901L140.632 145.217L142.554 143.295L138.709 139.45L139.597 138.563C140.04 138.119 140.336 137.971 140.632 137.971C140.927 137.971 141.371 138.267 141.815 138.71C141.963 138.858 142.258 139.154 142.554 139.45C143.441 140.337 144.181 140.929 144.624 141.076L146.695 139.006C146.399 138.858 145.955 138.563 145.66 138.415C145.364 138.119 144.92 137.823 144.477 137.38C144.477 137.38 144.329 137.232 144.181 137.084C144.033 136.936 144.033 136.936 143.885 136.788C143.146 136.049 142.406 135.605 141.963 135.457C141.519 135.309 140.927 135.605 140.188 136.049C140.484 135.457 140.632 134.866 140.484 134.274C140.336 133.683 139.892 133.091 139.153 132.352C138.266 131.464 137.378 131.021 136.639 131.169C135.9 131.317 135.012 131.908 133.829 132.943L131.315 135.901Z" fill="#004EA2"/>
<path d="M146.694 132.645L148.321 130.279L148.617 130.427C149.208 130.871 149.652 131.019 149.948 131.019C150.243 131.019 150.687 130.723 150.983 130.279C151.278 129.984 151.278 129.54 151.278 129.244C151.278 128.948 150.983 128.653 150.687 128.357C150.243 128.061 149.208 128.061 148.025 128.653C147.877 128.653 147.877 128.653 147.877 128.801C147.138 129.096 146.694 129.244 146.251 129.392C145.807 129.54 145.511 129.688 145.215 129.688C144.624 129.836 144.032 129.836 143.589 129.836C143.145 129.688 142.702 129.54 142.258 129.244C141.371 128.653 140.927 127.765 140.779 126.878C140.631 125.843 140.927 124.808 141.666 123.773C142.406 122.738 143.293 121.998 144.032 121.85C144.92 121.702 145.807 121.85 146.842 122.59L147.138 122.738L145.659 124.956C145.215 124.66 144.772 124.364 144.328 124.512C143.885 124.512 143.589 124.66 143.441 125.104C143.145 125.399 143.145 125.843 143.145 126.139C143.145 126.435 143.441 126.73 143.737 127.026C144.328 127.47 145.363 127.322 146.99 126.582C147.434 126.435 147.729 126.287 148.025 126.139C148.912 125.695 149.8 125.547 150.391 125.547C150.983 125.547 151.574 125.695 152.166 126.139C153.201 126.878 153.792 127.765 153.94 128.653C154.088 129.688 153.645 130.723 152.905 131.906C152.166 133.089 151.278 133.681 150.391 133.828C149.504 133.976 148.617 133.681 147.434 132.941C147.434 132.941 147.286 132.941 147.286 132.793C146.842 132.645 146.694 132.645 146.694 132.645Z" fill="#004EA2"/>
<path d="M157.49 123.033L145.808 117.118L146.991 114.752L158.673 120.667L157.49 123.033Z" fill="#004EA2"/>
<path d="M161.778 113.274L151.427 109.725L150.392 112.534L148.321 111.795L151.131 103.514L153.201 104.253L152.166 107.063L162.518 110.612L161.778 113.274Z" fill="#004EA2"/>
<path d="M165.327 99.8163L160.447 99.0769L151.87 101.295L152.314 98.3375L158.081 97.3024L152.905 94.3448L153.349 91.5352L160.891 96.4151L165.771 97.1545L165.327 99.8163Z" fill="#004EA2"/>
<path d="M19.9631 70.8331C19.9631 72.9034 18.1885 74.6779 16.1183 74.6779C14.048 74.6779 12.2734 72.9034 12.2734 70.8331C12.2734 68.7628 13.9001 66.9883 16.1183 66.9883C18.1885 66.9883 19.9631 68.6149 19.9631 70.8331Z" fill="#004EA2"/>
<path d="M161.779 70.8331C161.779 72.9034 160.004 74.6779 157.934 74.6779C155.863 74.6779 154.089 72.9034 154.089 70.8331C154.089 68.7628 155.863 66.9883 157.934 66.9883C160.152 66.9883 161.779 68.7628 161.779 70.8331Z" fill="#004EA2"/>
<path d="M91.8322 11.9785H90.6492V7.83789H88.2831V17.8936H82.5159V9.7603H87.1001V7.83789H80.002V18.3372C80.002 18.7808 80.1498 19.2245 80.2977 19.3724C80.4456 19.5202 80.7413 19.6681 81.185 19.6681H88.2831V22.9214H89.614C90.2055 22.9214 90.6492 22.4778 90.6492 21.8863V13.753H91.8322V22.9214H93.1631C93.7546 22.9214 94.1982 22.4778 94.1982 21.8863V7.83789H91.8322V11.9785Z" fill="#004EA2"/>
<path d="M29.1316 38.5976L28.3922 39.4849L25.1389 37.1188L23.6602 39.0412L35.7861 48.2097L36.5255 47.1745C36.8213 46.7309 36.8213 45.9915 36.2298 45.6957L29.7231 40.8158L30.4625 39.9285L37.8564 45.5479L38.5958 44.5127C38.8916 44.0691 38.8916 43.3297 38.4479 43.0339L27.2092 34.457L25.7304 36.3794L29.1316 38.5976Z" fill="#004EA2"/>
<path d="M24.6952 44.5131L22.1813 47.7664L18.928 45.2525L17.4492 47.1749L25.2867 53.09C25.7304 53.3857 26.4698 53.3857 26.7655 52.9421L30.9061 47.6185C31.2018 47.1749 31.2019 46.4355 30.6103 46.1397L22.7728 40.2246L21.294 42.147L24.6952 44.5131ZM28.6879 47.4706L26.174 50.8718L23.6601 48.9494L26.174 45.5482L28.6879 47.4706Z" fill="#004EA2"/>
<path d="M154.976 45.9887L146.991 35.7852L145.512 36.9682L151.87 45.2493L143.737 51.6081L142.406 49.8335L146.399 46.7281L144.92 44.8057L140.928 47.9111L139.892 46.4324L143.885 43.3269L142.406 41.4045L138.414 44.3621L136.935 42.4397L135.456 43.6227L143.441 53.8262C143.737 54.2699 144.477 54.2699 144.92 53.9741L154.976 45.9887Z" fill="#004EA2"/>
<path d="M130.28 20.5536L128.062 19.2227L123.626 26.6165L114.458 21.1451L113.57 22.7717L122.739 28.2432L120.373 32.2359L121.704 33.1232C122.147 33.271 122.739 33.1232 123.034 32.6795L128.21 24.2505L129.985 25.2856L130.872 23.659L129.097 22.6238L130.28 20.5536Z" fill="#004EA2"/>
<path d="M118.007 22.4756C120.077 23.6586 122.591 23.3629 123.626 21.5884C124.07 20.9968 124.218 20.1096 124.07 19.3702L125.253 20.1096L126.14 18.6308L122.887 16.7084L123.626 15.5254L121.408 14.1945L120.668 15.3775L117.415 13.4551L116.528 14.9339L117.711 15.6732C116.971 15.969 116.38 16.4126 115.936 17.0041C115.049 18.9266 115.936 21.2926 118.007 22.4756ZM120.964 17.5957C121.999 18.1872 122.295 19.5181 121.704 20.4053C121.112 21.4405 119.781 21.7362 118.894 21.1447C117.859 20.5532 117.563 19.2223 118.155 18.335C118.746 17.2999 120.077 17.0041 120.964 17.5957Z" fill="#004EA2"/>
<path d="M58.2642 17.5982L57.229 18.1897L55.3066 14.4927L53.2363 15.5279L60.1866 28.9847L61.3696 28.3932C61.8132 28.0975 62.109 27.506 61.8132 26.9145L58.1163 19.6684L59.1514 19.0769L63.292 27.2102L64.475 26.6187C65.0665 26.3229 65.2144 25.7314 64.9187 25.1399L58.412 12.5703L56.3418 13.6055L58.2642 17.5982Z" fill="#004EA2"/>
<path d="M50.4264 19.226L53.2361 17.7472L52.3488 15.9727L44.6592 19.9654L45.5464 21.7399L48.3561 20.2611C51.1658 25.8805 49.3913 27.5071 48.504 28.3944L49.3913 30.1689C50.2785 29.5774 50.87 28.838 51.4616 27.9508C52.0531 27.0635 52.2009 26.0283 52.2009 24.9932C53.0882 25.5847 53.9755 26.0283 55.0106 26.1762C56.0458 26.3241 56.933 26.1762 57.9682 25.8805L57.0809 24.1059C55.75 24.2538 53.2361 24.6974 50.4264 19.226Z" fill="#004EA2"/>
<path d="M107.359 50.4266C99.9651 50.4266 93.1627 48.5041 87.2476 44.9551C81.3325 48.3563 74.3822 50.4266 67.1362 50.4266C59.7423 50.4266 52.9399 48.5041 46.877 44.9551V80.8894C46.877 108.247 62.2562 132.055 84.7337 144.181C85.6209 144.625 86.3603 145.068 87.2476 145.512C88.1348 145.068 88.8742 144.625 89.7615 144.181C112.239 132.055 127.618 108.247 127.618 80.8894V45.103C121.555 48.5041 114.605 50.4266 107.359 50.4266ZM51.0175 81.0372H73.7907V89.9099L56.0454 107.655C52.7921 99.9656 51.0175 91.3887 51.0175 82.516V81.0372ZM87.0997 141.371C80.8888 138.266 75.2695 134.125 70.2416 129.245L87.2476 112.239L103.958 129.098C99.0778 133.977 93.3106 138.118 87.0997 141.371ZM118.302 107.507L100.557 89.762V80.8894H123.182V82.3682C123.33 91.3887 121.555 99.8177 118.302 107.507Z" fill="#004EA2"/>
<path d="M100.704 81.0371H123.329V82.5159C123.329 91.3886 121.555 99.8176 118.449 107.507L100.704 89.7619V81.0371Z" fill="white"/>
<path d="M103.958 129.096C99.0784 133.976 93.3111 138.117 87.1003 141.37C80.8894 138.265 75.27 134.124 70.2422 129.244L87.2481 112.238L103.958 129.096Z" fill="white"/>
<path d="M73.7908 81.0371V89.9098L56.0454 107.655C52.7921 99.9655 51.0176 91.3886 51.0176 82.5159V81.0371H73.7908Z" fill="white"/>
<path d="M100.556 64.7713C100.556 72.1652 94.4933 78.2282 87.0995 78.2282C79.7056 78.2282 73.6426 72.1652 73.6426 64.7713C73.6426 57.3774 79.7056 51.3145 87.0995 51.3145C94.4933 51.3145 100.556 57.3774 100.556 64.7713Z" fill="white"/>
<path d="M99.0783 64.7711C99.0783 58.1166 93.7547 52.793 87.248 52.793H87.1002C80.4457 52.793 75.1221 58.1166 75.1221 64.7711C75.1221 71.2777 80.2978 76.6013 86.8044 76.7492C86.9523 76.7492 87.1002 76.7492 87.1002 76.7492C93.7547 76.897 99.0783 71.4256 99.0783 64.7711ZM76.6008 64.7711C76.6008 59.1517 80.8893 54.5675 86.3608 54.2717V62.7008H87.8396V54.2717C90.2056 54.5675 92.128 56.7857 92.128 59.1517C92.128 61.8135 89.762 64.0317 87.1002 64.0317C83.5511 64.0317 80.7414 66.8414 80.7414 70.3904C80.7414 71.7213 81.0372 72.9043 81.7766 73.7916C78.6711 72.0171 76.6008 68.6159 76.6008 64.7711ZM87.8396 75.2704V66.8414H86.3608V75.2704C83.9947 74.9746 82.0723 72.7565 82.0723 70.3904C82.0723 67.7286 84.4384 65.5105 87.1002 65.5105C90.6492 65.5105 93.4589 62.7008 93.4589 59.1517C93.4589 57.8208 93.1632 56.6378 92.4238 55.7505C95.5292 57.5251 97.5995 60.9262 97.5995 64.7711C97.5995 70.3904 93.311 74.9746 87.8396 75.2704Z" fill="#E60012"/>
</svg>
