<svg width="469" height="124" viewBox="0 0 469 124" fill="none" xmlns="http://www.w3.org/2000/svg">
<path d="M148.757 97.0293C148.757 93.9302 148.042 91.7846 146.85 90.5927C145.658 89.4007 143.274 88.6855 140.175 88.6855H130.878V115.862H136.838V104.896H140.175H140.414C142.321 104.896 143.751 104.658 144.466 104.419C145.181 104.181 146.135 103.704 146.612 102.989C147.327 102.274 147.804 101.559 148.042 100.367C148.519 99.6516 148.757 98.4596 148.757 97.0293ZM142.082 99.8899C141.606 100.367 140.414 100.605 138.745 100.605H136.838V92.9766H139.222C140.652 92.9766 141.606 93.215 142.082 93.6918C142.559 94.1686 142.798 95.1221 142.798 96.5525C142.798 98.4596 142.559 99.4132 142.082 99.8899Z" fill="#004EA2"/>
<path d="M155.195 88.9219L147.566 116.099H153.288L154.718 110.139H162.585L164.015 116.099H169.975L162.347 88.9219H155.195V88.9219ZM155.672 105.848L158.771 94.1665L161.632 105.848H155.672Z" fill="#004EA2"/>
<path d="M179.749 88.9219H174.027V116.099H179.749V88.9219Z" fill="#004EA2"/>
<path d="M208.356 106.8H202.396C202.396 107.038 202.396 107.038 202.396 107.276C202.396 107.515 202.396 107.515 202.396 107.753C202.396 109.184 202.158 110.375 201.681 111.091C201.204 111.806 200.489 112.283 199.535 112.283C198.344 112.283 197.39 111.567 196.913 110.375C196.436 109.184 196.198 106.561 196.198 102.985C196.198 98.4558 196.436 95.8335 196.913 94.4032C197.39 93.2112 198.344 92.4961 199.535 92.4961C200.489 92.4961 201.204 92.7344 201.681 93.4496C202.158 94.1648 202.396 95.1183 202.396 96.5487V97.0255H208.118V96.7871C208.118 93.9264 207.402 92.0192 205.972 90.5889C204.542 89.1585 202.396 88.4434 199.774 88.4434C198.105 88.4434 196.675 88.6817 195.244 89.1585C194.052 89.6353 193.099 90.3505 192.384 91.5424C191.669 92.496 191.192 93.9264 190.953 95.3567C190.715 96.7871 190.477 98.9326 190.477 101.793C190.477 105.846 190.715 108.707 191.192 110.375C191.669 112.044 192.384 113.475 193.576 114.428C194.291 114.905 195.006 115.382 196.198 115.858C197.39 116.097 198.582 116.335 199.774 116.335C202.635 116.335 204.542 115.62 206.21 114.19C207.641 112.759 208.356 110.614 208.356 107.992C208.356 107.753 208.356 107.276 208.356 107.276C208.356 107.038 208.356 106.8 208.356 106.8Z" fill="#004EA2"/>
<path d="M223.851 99.4111H217.653V88.9219H211.932V116.099H217.653V104.179H223.851V116.099H229.573V88.9219H223.851V99.4111Z" fill="#004EA2"/>
<path d="M240.776 88.9219L233.147 116.099H238.869L240.299 110.139H248.166L249.597 116.099H255.556L247.928 88.9219H240.776ZM241.253 105.848L244.352 94.1665L247.213 105.848H241.253Z" fill="#004EA2"/>
<path d="M265.093 88.9219H259.371V116.099H265.093V88.9219Z" fill="#004EA2"/>
<path d="M289.886 105.371C289.886 108.232 289.647 110.139 289.171 111.092C288.694 112.046 287.74 112.523 286.31 112.523C284.88 112.523 283.926 112.046 283.449 111.331C282.972 110.377 282.734 108.47 282.734 105.371V88.9219H277.013V106.801C277.013 110.139 277.728 112.761 279.397 114.191C280.827 115.86 283.211 116.575 286.548 116.575C289.886 116.575 292.27 115.86 293.7 114.191C295.131 112.523 295.846 109.9 295.846 106.086V88.9219H290.124V105.371H289.886Z" fill="#004EA2"/>
<path d="M331.844 88.9219H326.122V116.099H331.844V88.9219Z" fill="#004EA2"/>
<path d="M344.954 108.47L340.425 88.9219H334.703L341.616 116.099H348.291L355.205 88.9219H349.483L344.954 108.47Z" fill="#004EA2"/>
<path d="M315.155 107.993L308.242 88.9219H306.096H303.474H300.613V116.099H306.096V96.312L313.486 116.099H315.155H318.254H320.877V88.9219H315.155V107.993Z" fill="#004EA2"/>
<path d="M358.543 116.099H373.085V111.807H364.264V103.702H373.085V99.6495H364.264V92.9745H373.085V88.9219H358.543V116.099Z" fill="#004EA2"/>
<path d="M394.778 108.232C394.778 106.086 394.54 103.464 390.487 102.51C394.302 101.557 394.778 97.7424 394.778 95.8352C394.778 93.2129 394.063 91.3057 392.871 90.3522C391.679 89.3986 389.295 88.9219 385.958 88.9219H377.853V116.099H383.574V104.894H385.958C387.15 104.894 387.865 105.133 388.342 105.609C388.819 106.086 389.057 107.04 389.057 108.47C389.057 109.9 388.819 113.953 389.534 116.099H395.494C394.54 113.715 394.778 109.9 394.778 108.232ZM388.103 99.6495C387.388 100.126 386.435 100.603 384.766 100.603H383.574V93.2129H385.004C386.673 93.2129 387.627 93.4513 388.103 93.9281C388.58 94.4048 388.819 95.3584 388.819 96.7888C389.057 98.2191 388.819 99.1727 388.103 99.6495Z" fill="#004EA2"/>
<path d="M409.797 100.367C406.698 98.4596 405.029 97.0292 405.029 95.3605C405.029 94.1685 405.506 92.7382 407.89 92.7382C410.274 92.7382 410.751 95.5989 410.751 96.7909H416.472V96.3141C416.472 93.4533 415.519 88.6855 408.128 88.6855C400.5 88.6855 399.546 93.6918 399.546 95.8373C399.546 100.605 403.122 102.274 406.936 104.896C409.797 106.803 410.989 107.519 410.989 109.187C410.989 111.571 409.082 112.286 407.89 112.286C404.076 112.286 404.552 108.71 404.552 107.519H398.831C398.831 107.519 398.831 107.757 398.831 107.995C398.831 115.862 404.314 116.577 407.89 116.577C415.042 116.577 416.472 112.048 416.472 109.187C416.472 107.042 416.472 104.419 409.797 100.367Z" fill="#004EA2"/>
<path d="M426.246 88.9219H420.524V116.099H426.246V88.9219Z" fill="#004EA2"/>
<path d="M428.153 93.2129H434.59V116.099H440.55V93.2129H447.225V88.9219H428.153V93.2129Z" fill="#004EA2"/>
<path d="M462.482 88.9219L457.952 100.126L453.899 88.9219H447.701L454.853 105.848V116.099H460.574V105.848L468.441 88.9219H462.482Z" fill="#004EA2"/>
<path d="M134.931 58.6501H159.485C161.631 58.6501 163.538 56.7429 163.538 54.5974V17.4082H154.717V33.1421H139.46V17.4082H130.878V54.5974C130.878 56.7429 132.785 58.6501 134.931 58.6501ZM139.698 39.8171H154.956V51.7367H139.698V39.8171V39.8171Z" fill="#004EA2"/>
<path d="M465.343 67.4644V18.1172H415.758V25.269H455.807V64.3653H447.225V45.2939H437.69V64.3653H431.015V45.2939H421.479V64.3653H412.182V71.517H461.529C463.674 71.517 465.343 69.61 465.343 67.4644Z" fill="#004EA2"/>
<path d="M398.831 33.3767H406.46V26.2249H398.831V17.166H389.295V50.3025H348.292V57.4543H389.295V75.0953H395.255C397.162 74.8569 398.831 72.9498 398.831 71.0427V33.3767Z" fill="#004EA2"/>
<path d="M323.5 32.6615H318.97V17.166H310.15V53.4016H287.741V24.3178H305.143V17.166H278.205V55.3088C278.205 57.2159 278.682 58.6462 279.397 59.3614C280.112 60.0766 281.304 60.315 282.735 60.315H310.15V74.8569H314.917C317.063 74.8569 318.97 72.9498 318.97 70.8043V39.8133H323.5V74.8569H328.506C330.89 74.8569 332.559 72.9498 332.559 70.8043V17.166H323.5V32.6615Z" fill="#004EA2"/>
<path d="M191.191 17.166H182.132V32.6615H177.603V17.166H168.782V75.0953H173.55C175.696 75.0953 177.603 73.1882 177.603 71.0427V40.0517H182.132V75.0953H187.138C189.522 75.0953 191.191 73.1882 191.191 71.0427V17.166Z" fill="#004EA2"/>
<path d="M346.147 33.853C346.147 41.7199 353.537 47.9181 362.834 47.9181C371.893 47.9181 379.522 41.7199 379.522 33.853C379.522 30.9923 378.568 28.1316 376.661 25.986H382.144V19.311H367.84V14.0664H357.59V19.311H343.524V25.986H349.007C347.339 28.1316 346.147 30.7539 346.147 33.853ZM362.834 25.5092C367.125 25.5092 370.701 29.0851 370.701 33.6146C370.701 38.144 367.125 41.7199 362.834 41.7199C358.543 41.7199 354.967 38.144 354.967 33.6146C354.967 29.0851 358.543 25.5092 362.834 25.5092Z" fill="#004EA2"/>
<path d="M250.789 70.8043V39.8133H255.319V74.8569H260.325C262.709 74.8569 264.378 72.9498 264.378 70.8043V17.166H255.319V32.6615H250.789V17.166H241.969V75.0953H246.737C248.882 75.0953 250.789 73.1882 250.789 70.8043Z" fill="#004EA2"/>
<path d="M220.752 47.438C222.42 51.0139 225.043 54.113 228.38 56.2586C231.479 58.4041 235.055 59.5961 239.108 60.3113V52.4443C234.578 50.7755 225.758 48.1532 225.281 24.314H237.201V16.9238H204.303V24.314H216.222C215.984 47.9148 206.925 50.7755 202.396 52.4443V60.3113C206.448 59.8345 210.024 58.4041 213.123 56.2586C216.699 54.113 219.083 51.0139 220.752 47.438Z" fill="#004EA2"/>
<path d="M74.3784 6.9134C65.3195 6.9134 56.7374 4.52947 49.5856 0.238407C42.1954 4.52947 33.8517 6.9134 24.7928 6.9134C15.7339 6.9134 7.15177 4.52947 0 0.238407V44.341C0 78.1927 18.833 107.277 46.7249 122.295C47.6785 122.772 48.8704 123.487 49.824 123.964C50.7776 123.487 51.9695 123.01 52.9231 122.295C80.5766 107.277 99.648 77.9543 99.648 44.341V0C92.0194 4.52945 83.4373 6.9134 74.3784 6.9134ZM5.00624 44.5794H33.1365V55.5454L11.2044 77.4775C7.15177 67.9418 5.00624 57.4525 5.00624 46.4865V44.5794V44.5794ZM49.5856 118.958C41.957 115.143 34.8053 109.899 28.8455 103.939L49.5856 83.1989L70.3257 103.939C64.3659 109.899 57.2141 115.143 49.5856 118.958ZM87.9668 77.2391L66.0347 55.307V44.341H93.9266V46.2481C94.165 57.4525 92.0194 67.7034 87.9668 77.2391Z" fill="#004EA2"/>
<path d="M66.2734 44.5781H94.1653V46.4852C94.1653 57.4513 92.0198 67.9405 88.2055 77.4762L66.2734 55.5442V44.5781V44.5781Z" fill="white"/>
<path d="M70.3269 103.937C64.3671 109.897 57.2154 115.142 49.5868 118.956C41.9583 115.142 34.8065 109.897 28.8467 103.937L49.5868 83.1973L70.3269 103.937Z" fill="white"/>
<path d="M33.1371 44.5781V55.5442L11.205 77.4762C7.15237 67.9405 5.00684 57.4513 5.00684 46.4852V44.5781H33.1371Z" fill="white"/>
<path d="M66.0349 24.5565C66.0349 33.6154 58.6447 41.0056 49.5858 41.0056C40.5269 41.0056 33.1367 33.6154 33.1367 24.5565C33.1367 15.4976 40.5269 8.10742 49.5858 8.10742C58.6447 8.10742 66.0349 15.4976 66.0349 24.5565Z" fill="white"/>
<path d="M64.3654 24.5538C64.3654 16.4484 57.9288 9.77344 49.5851 9.77344H49.3467C41.2414 9.77344 34.5664 16.4484 34.5664 24.5538C34.5664 32.6591 41.003 39.0957 48.8699 39.3341C49.1083 39.3341 49.3467 39.3341 49.3467 39.3341C57.6905 39.3341 64.3654 32.6591 64.3654 24.5538ZM36.4735 24.5538C36.4735 17.6404 41.7182 12.1574 48.6315 11.6806V22.1698H50.3003V11.919C53.161 12.3957 55.5449 15.0181 55.5449 17.8788C55.5449 21.2163 52.6842 23.8386 49.3467 23.8386C45.0557 23.8386 41.4798 27.4145 41.4798 31.7055C41.4798 33.3743 41.9566 34.8046 42.6717 35.9966C39.0959 33.3743 36.4735 29.3216 36.4735 24.5538ZM50.5387 37.427V26.9377H48.8699V37.1885C46.0092 36.7118 43.6253 34.0895 43.6253 31.2287C43.6253 27.8913 46.486 25.2689 49.8235 25.2689C54.1146 25.2689 57.6905 21.693 57.6905 17.402C57.6905 15.7332 57.2137 14.3029 56.4985 13.1109C60.3128 15.4948 62.9351 19.5475 62.9351 24.3154C62.4583 31.4671 57.2137 37.1886 50.5387 37.427Z" fill="#E60012"/>
</svg>
