<svg width="16" height="16" viewBox="0 0 16 16" fill="none" xmlns="http://www.w3.org/2000/svg">
<path d="M12.6669 2H6.00019C5.26381 2 4.66685 2.59695 4.66685 3.33333V10C4.66685 10.7364 5.26381 11.3333 6.00019 11.3333H12.6669C13.4032 11.3333 14.0002 10.7364 14.0002 10V3.33333C14.0002 2.59695 13.4032 2 12.6669 2Z" stroke="#5078E7" stroke-linecap="round" stroke-linejoin="round"/>
<path d="M11.3333 11.3329V12.6663C11.3333 13.0199 11.1929 13.359 10.9428 13.6091C10.6928 13.8591 10.3536 13.9996 10 13.9996H3.33333C2.97971 13.9996 2.64057 13.8591 2.39052 13.6091C2.14048 13.359 2 13.0199 2 12.6663V5.99959C2 5.64597 2.14048 5.30683 2.39052 5.05678C2.64057 4.80674 2.97971 4.66626 3.33333 4.66626H4.66667" stroke="#5078E7" stroke-linecap="round" stroke-linejoin="round"/>
</svg>
