<svg width="19" height="18" viewBox="0 0 19 18" fill="none" xmlns="http://www.w3.org/2000/svg">
<path d="M3.91699 8.325L5.41699 6.825L9.54199 10.95L12.167 8.325L14.417 10.575V3.75H3.91699V8.325ZM3.16699 2.25H15.167C15.3659 2.25 15.5567 2.32902 15.6973 2.46967C15.838 2.61032 15.917 2.80109 15.917 3V15C15.917 15.1989 15.838 15.3897 15.6973 15.5303C15.5567 15.671 15.3659 15.75 15.167 15.75H3.16699C2.96808 15.75 2.77731 15.671 2.63666 15.5303C2.49601 15.3897 2.41699 15.1989 2.41699 15V3C2.41699 2.80109 2.49601 2.61032 2.63666 2.46967C2.77731 2.32902 2.96808 2.25 3.16699 2.25ZM11.792 7.5C11.4936 7.5 11.2075 7.38147 10.9965 7.1705C10.7855 6.95952 10.667 6.67337 10.667 6.375C10.667 6.07663 10.7855 5.79048 10.9965 5.5795C11.2075 5.36853 11.4936 5.25 11.792 5.25C12.0904 5.25 12.3765 5.36853 12.5875 5.5795C12.7985 5.79048 12.917 6.07663 12.917 6.375C12.917 6.67337 12.7985 6.95952 12.5875 7.1705C12.3765 7.38147 12.0904 7.5 11.792 7.5Z" fill="#6247AA"/>
</svg>
