<svg width="19" height="18" viewBox="0 0 19 18" fill="none" xmlns="http://www.w3.org/2000/svg">
<path d="M12.167 1.5L15.917 5.25V15.7448C15.9177 15.8432 15.899 15.9409 15.8619 16.0322C15.8249 16.1234 15.7702 16.2065 15.701 16.2766C15.6319 16.3468 15.5496 16.4026 15.4589 16.4409C15.3681 16.4792 15.2707 16.4993 15.1722 16.5H3.16174C2.96478 16.4986 2.77626 16.4198 2.63691 16.2806C2.49756 16.1414 2.41856 15.953 2.41699 15.756V2.244C2.41699 1.833 2.75224 1.5 3.16624 1.5H12.167ZM7.16674 11.0002H6.16699V13.5H12.167V12.5002L7.16674 12.4995V10.9995V11.0002ZM9.16699 10.7498C9.0685 10.7498 8.97097 10.7691 8.87998 10.8068C8.78899 10.8445 8.70631 10.8998 8.63666 10.9694C8.56702 11.0391 8.51177 11.1217 8.47408 11.2127C8.43639 11.3037 8.41699 11.4013 8.41699 11.4998C8.41699 11.5982 8.43639 11.6958 8.47408 11.7868C8.51177 11.8778 8.56702 11.9604 8.63666 12.0301C8.70631 12.0997 8.78899 12.155 8.87998 12.1927C8.97097 12.2304 9.0685 12.2498 9.16699 12.2498C9.3659 12.2498 9.55667 12.1707 9.69732 12.0301C9.83797 11.8894 9.91699 11.6987 9.91699 11.4998C9.91699 11.3008 9.83797 11.1101 9.69732 10.9694C9.55667 10.8288 9.3659 10.7498 9.16699 10.7498ZM9.16699 6.75C8.66971 6.75 8.1928 6.94754 7.84117 7.29917C7.48954 7.65081 7.29199 8.12772 7.29199 8.625C7.29199 9.12228 7.48954 9.59919 7.84117 9.95082C8.1928 10.3025 8.66971 10.5 9.16699 10.5C9.66427 10.5 10.1412 10.3025 10.4928 9.95082C10.8444 9.59919 11.042 9.12228 11.042 8.625C11.042 8.12772 10.8444 7.65081 10.4928 7.29917C10.1412 6.94754 9.66427 6.75 9.16699 6.75ZM9.16699 7.74975C9.39912 7.74975 9.62175 7.84196 9.78589 8.0061C9.95003 8.17025 10.0422 8.39287 10.0422 8.625C10.0422 8.85713 9.95003 9.07975 9.78589 9.2439C9.62175 9.40804 9.39912 9.50025 9.16699 9.50025C8.93486 9.50025 8.71224 9.40804 8.5481 9.2439C8.38396 9.07975 8.29174 8.85713 8.29174 8.625C8.29174 8.39287 8.38396 8.17025 8.5481 8.0061C8.71224 7.84196 8.93486 7.74975 9.16699 7.74975ZM9.66724 4.5H8.66674V5.49975H6.16699V6.50025H12.167V5.49975H9.66649V4.5H9.66724Z" fill="#5078E7"/>
</svg>
