<svg width="24" height="24" viewBox="0 0 24 24" fill="none" xmlns="http://www.w3.org/2000/svg">
<rect width="24" height="24" rx="3.78947" fill="url(#paint0_linear)"/>
<g filter="url(#filter0_i)">
<path d="M19.9636 14.3943C19.4863 13.8931 18.5078 13.6067 17.1235 13.6067C16.3837 13.6067 15.5245 13.6783 14.5937 13.8453C14.0687 13.3441 13.5436 12.7475 13.0424 12.0554C12.6844 11.578 12.3742 11.053 12.0878 10.5518C12.6367 8.88115 12.8992 7.52077 12.8992 6.54226C12.8992 5.44441 12.4935 4.29883 11.324 4.29883C10.9661 4.29883 10.6081 4.51362 10.4171 4.82389C9.89207 5.75467 10.1307 7.7833 11.0377 9.78806C10.7035 10.7904 10.3455 11.7451 9.89207 12.8191C9.51021 13.726 9.08062 14.6568 8.6033 15.516C5.97801 16.5661 4.28351 17.7833 4.09258 18.7379C4.02098 19.0959 4.14031 19.43 4.40284 19.6926C4.4983 19.7642 4.83243 20.0506 5.40522 20.0506C7.14746 20.0506 8.98516 17.2343 9.91594 15.5398C10.6319 15.3012 11.3479 15.0625 12.0639 14.8716C12.8515 14.6568 13.6391 14.4897 14.3551 14.3704C16.1928 16.0172 17.8157 16.2797 18.6271 16.2797C19.6295 16.2797 19.9875 15.874 20.1068 15.5398C20.3216 15.1102 20.1784 14.6329 19.9636 14.3943ZM19.009 15.0864C18.9374 15.4444 18.5794 15.683 18.0782 15.683C17.935 15.683 17.8157 15.6592 17.6725 15.6353C16.7656 15.4205 15.9064 14.967 15.0472 14.2511C15.8825 14.1079 16.5985 14.084 17.0519 14.084C17.5531 14.084 17.9827 14.1079 18.2691 14.1795C18.6033 14.2511 19.1283 14.4658 19.009 15.0864ZM13.9493 13.9647C13.3288 14.084 12.6606 14.2272 11.9684 14.4181C11.4195 14.5613 10.8467 14.7284 10.2739 14.9193C10.5842 14.3227 10.8467 13.7499 11.0854 13.2009C11.3718 12.5327 11.6104 11.8406 11.8491 11.1962C12.0878 11.6019 12.3503 12.0076 12.6128 12.3656C13.0663 12.9384 13.5197 13.4873 13.9493 13.9647ZM10.8229 5.08641C10.9183 4.89548 11.1093 4.80002 11.2763 4.80002C11.7775 4.80002 11.873 5.37281 11.873 5.82627C11.873 6.58999 11.6343 7.75943 11.2286 9.09594C10.5365 7.23438 10.4887 5.68307 10.8229 5.08641ZM8.19757 16.2081C6.98039 18.2129 5.81095 19.4539 5.09496 19.4539C4.95176 19.4539 4.83243 19.4062 4.73696 19.3346C4.59377 19.1914 4.52217 19.0243 4.5699 18.8334C4.7131 18.1174 6.09734 17.115 8.19757 16.2081Z" fill="white"/>
</g>
<defs>
<filter id="filter0_i" x="4.07211" y="4.29883" width="26.9913" height="21.9521" filterUnits="userSpaceOnUse" color-interpolation-filters="sRGB">
<feFlood flood-opacity="0" result="BackgroundImageFix"/>
<feBlend mode="normal" in="SourceGraphic" in2="BackgroundImageFix" result="shape"/>
<feColorMatrix in="SourceAlpha" type="matrix" values="0 0 0 0 0 0 0 0 0 0 0 0 0 0 0 0 0 0 127 0" result="hardAlpha"/>
<feOffset dx="10.8503" dy="6.20018"/>
<feGaussianBlur stdDeviation="6.9752"/>
<feComposite in2="hardAlpha" operator="arithmetic" k2="-1" k3="1"/>
<feColorMatrix type="matrix" values="0 0 0 0 1 0 0 0 0 1 0 0 0 0 1 0 0 0 0.15 0"/>
<feBlend mode="normal" in2="shape" result="effect1_innerShadow"/>
</filter>
<linearGradient id="paint0_linear" x1="0" y1="0" x2="24" y2="24" gradientUnits="userSpaceOnUse">
<stop stop-color="#FF6D73"/>
<stop offset="0.239209" stop-color="#F2555A"/>
<stop offset="0.330492" stop-color="#EF464C"/>
<stop offset="0.731" stop-color="#9C191D"/>
<stop offset="1" stop-color="#5C1617"/>
</linearGradient>
</defs>
</svg>
