<svg width="30" height="30" viewBox="0 0 30 30" fill="none" xmlns="http://www.w3.org/2000/svg">
<path d="M20.532 15.312L12.5828 20.6115C12.5263 20.6491 12.4607 20.6706 12.3929 20.6739C12.3252 20.6771 12.2578 20.6619 12.198 20.6299C12.1382 20.5979 12.0882 20.5502 12.0533 20.4921C12.0185 20.4339 12 20.3673 12 20.2995V9.70049C12 9.63266 12.0185 9.56611 12.0533 9.50792C12.0882 9.44974 12.1382 9.4021 12.198 9.37008C12.2578 9.33807 12.3252 9.32287 12.3929 9.32611C12.4607 9.32935 12.5263 9.35091 12.5828 9.38849L20.532 14.688C20.5834 14.7222 20.6255 14.7686 20.6546 14.8231C20.6837 14.8775 20.699 14.9383 20.699 15C20.699 15.0617 20.6837 15.1225 20.6546 15.1769C20.6255 15.2313 20.5834 15.2777 20.532 15.312Z" fill="#7A7D94"/>
</svg>
