<svg width="193" height="178" viewBox="0 0 193 178" fill="none" xmlns="http://www.w3.org/2000/svg">
<g clip-path="url(#clip0)">
<path opacity="0.3" d="M21.4696 109.171C21.5307 107.136 22.8089 105.247 24.8679 104.896C24.3556 102.585 26.5106 100.768 28.6158 100.244C31.5216 99.5299 34.7227 99.9568 37.6323 100.382C40.9216 100.865 44.1524 101.549 47.4733 101.819C50.7868 102.069 54.1219 102.021 57.4421 101.754C63.1716 101.296 69.2399 99.6601 74.9181 101.144C77.9947 101.953 80.3921 103.867 82.8434 105.806C85.2529 107.693 87.8408 109.223 90.6486 110.446C93.9881 111.894 97.4938 113.011 100.87 114.378C93.4447 108.253 85.9756 102.19 78.9563 95.5998C73.5919 90.5549 68.592 85.1716 64.091 79.3322C59.5409 73.4219 55.3186 67.254 50.4604 61.5939C50.3917 61.5303 50.3353 61.4398 50.2666 61.3762C47.6622 58.3774 44.8792 55.5575 41.8223 53.0197C40.2976 51.7605 38.7289 50.5627 37.0843 49.4604C36.2486 48.9031 35.4202 48.3655 34.56 47.8622C34.1263 47.6007 32.3914 46.7336 32.3737 46.2708C32.3636 46.0064 32.5739 45.7931 33.3083 45.606C37.4405 44.5869 41.5505 43.5091 45.7269 42.6074C49.2669 41.856 52.7564 41.8613 56.091 43.3556C58.5902 44.4715 60.806 46.1411 62.8042 48.0045C64.3699 48.7788 65.9182 49.269 67.5643 49.7223C69.8596 50.356 72.1817 50.8232 74.4818 51.4104C76.608 51.9513 78.7319 52.6048 80.7264 53.5083C82.074 54.1187 83.5932 54.8881 84.836 55.8734C84.8173 54.6955 84.8452 53.5226 84.9661 52.3592C85.4064 48.1248 86.7602 44.0605 88.4374 40.1428C90.4784 35.3504 92.9285 30.6946 95.4889 26.1538C96.8034 23.8258 98.157 21.483 99.6944 19.2723C100.071 18.7282 100.526 18.1546 101.088 17.8086C101.631 17.4699 102.116 17.5109 102.716 17.6204C103.711 17.8272 107.299 19.8747 108.132 20.3658C108.098 18.97 108.224 17.5814 108.575 16.1974C108.816 15.2348 109.204 14.3062 109.399 13.3387C109.649 12.1042 109.317 11.0443 108.968 9.87913C108.486 8.18277 108.146 6.56703 108.423 4.80846C108.619 3.54955 109.091 1.181 110.433 0.586669C111.162 0.267392 112.049 1.14045 112.567 1.50465C113.295 2.01306 116.462 4.48711 118.598 5.47121C119.932 5.03606 121.655 4.38737 122.152 4.22266C123.087 3.91536 123.42 3.79005 124.354 4.31043C127.265 5.98653 133.559 10.4131 135.991 12.3592C139.722 15.381 143.201 18.7436 146.186 22.5157C149.171 26.2879 151.713 30.4279 153.506 34.8946C155.226 39.1654 156.16 43.665 156.895 48.1723C157.757 53.3699 158.4 58.5824 159.734 63.6692C159.741 63.6888 159.749 63.7084 159.736 63.7353C160.565 64.0942 161.373 64.4605 162.189 64.8464C161.319 60.6356 160.422 56.4127 159.638 52.192C159.261 50.1209 158.974 47.9933 159.091 45.87C159.226 43.6733 159.632 41.6648 159.078 39.4813C158.48 37.1802 157.613 34.9358 156.812 32.6889C155.986 30.3171 155.121 27.9601 154.229 25.5908C153.403 23.3978 152.57 21.1852 151.659 19.0021C150.677 16.6893 149.371 14.7662 147.652 12.9319C146.162 11.347 144.536 9.70108 144.029 7.52234C143.61 5.75732 143.72 3.97204 144.931 2.5551C145.038 2.42518 145.21 2.40537 145.499 2.52008C163.87 10.2247 177.793 27.3162 183.658 46.1004C185.477 51.9432 186.577 58.0123 186.957 64.1288C189.211 61.2682 191.519 58.432 193.487 55.344C194.591 53.5869 195.581 51.7613 196.408 49.8624C197.48 47.4245 198.334 44.8228 198.257 42.1244C198.175 39.6513 198.199 37.1609 198.482 34.7068C198.678 32.9116 199.168 30.8271 200.817 29.8039C202.014 29.0628 203.764 28.9626 205.119 29.0563C205.51 29.0877 205.917 29.1582 206.255 29.3438C206.836 29.6394 206.776 30.3104 206.284 30.6074C205.812 30.8969 205.388 31.2574 205.068 31.7133C203.347 34.1496 204.287 37.775 204.847 40.4483C205.739 44.7178 206.677 48.9921 207.557 53.2885C208.309 57.0072 208.97 60.7824 208.864 64.6001C208.767 68.6162 207.621 72.401 206.181 76.1176C203.042 84.2295 199.818 92.3513 196.02 100.197C194.215 103.895 192.141 107.47 190.605 111.29C189.07 115.109 188.458 119.006 188.211 123.101C187.952 127.401 187.718 131.647 186.579 135.809C185.517 139.697 183.825 143.397 181.63 146.771C180.946 151.724 178.439 156.11 175.654 158.925C175.296 159.283 174.932 159.621 174.548 159.967C174.836 161.088 175.713 164.961 177 167.964C177.043 167.009 177.781 164.339 178.313 162.663C179.281 159.594 180.542 156.056 182.774 152.958C183.226 152.318 183.679 151.857 184.117 151.536C185.032 150.878 185.945 150.87 186.818 151.525C187.977 152.408 188.919 153.663 189.477 155.085C190.666 158.124 190.21 161.426 188.227 163.938C187.098 165.392 185.606 166.893 183.703 168.548C183.351 168.859 180.921 170.78 180.308 171.525C180.398 171.647 181.527 173.279 182.232 175.093C182.819 176.593 184.97 176.901 185.493 178.47C185.86 179.562 185.797 180.703 186.222 181.773C186.478 182.392 186.792 182.989 187.158 183.545C188.505 185.698 190.084 187.696 191.786 189.604C192.922 190.898 194.197 192.028 195.249 193.398C195.835 194.183 196.144 194.827 196.261 195.789L196.276 195.828C196.595 198.279 197.464 200.053 198.809 201.134L200.297 202.295C200.726 202.603 201.123 202.945 201.208 203.584C201.361 205.002 198.328 205.853 197.476 206.084C195.871 206.51 194.526 206.502 193.389 206.036C191.324 205.181 190.085 203.077 189.156 201.146C188.818 200.424 188.447 199.737 187.991 199.059C187.309 198.019 186.132 197.389 185.269 196.641C184.536 196 183.796 195.34 183.075 194.672C182.087 193.77 181.092 192.848 180.679 191.573C180.416 190.755 180.535 189.883 180.284 189.039C180.055 188.253 179.508 187.632 179.025 187.12C178.108 186.169 175.66 184.654 175.66 184.654C173.818 184.811 170.604 185.06 169.517 185.201C166.209 185.619 162.767 186.155 159.295 186.791C156.514 187.301 153.733 187.812 150.93 188.263C145.612 189.103 141.305 189.539 137.355 189.618C135.272 189.665 133.185 189.645 131.116 189.91C130.259 190.009 129.417 190.147 128.578 190.352C127.172 190.657 125.848 191.178 124.49 191.667C123.973 191.839 123.403 191.808 123.24 191.198C123.154 190.851 123.323 190.407 123.442 190.072C123.977 188.641 124.788 187.173 125.77 185.864C126.973 184.249 128.516 182.886 130.19 181.808C131.722 180.829 133.518 180.019 135.506 179.36C136.683 178.984 137.89 178.686 139.077 178.396C139.772 178.223 140.487 178.044 141.202 177.864C142.808 177.438 144.237 176.9 145.583 176.259C146.985 175.351 148.353 174.412 149.733 173.445C151.912 171.931 154.183 170.361 156.542 169.026C157.3 168.606 158.034 168.241 158.737 167.909C158.477 167.694 157.827 167.156 157.384 166.809C157.193 166.657 156.925 166.423 156.697 166.173C153.93 166.365 151.03 165.847 148.661 165.018C145.621 163.949 142.754 162.391 139.885 160.945C136.535 159.232 133.178 157.501 129.828 155.788C123.318 152.449 116.812 149.064 110.296 145.771C103.835 142.503 97.2853 139.357 90.4452 136.925C87.1428 135.754 83.7745 134.764 80.3306 134.048C77.7538 133.498 75.1602 133.2 72.5447 133.023C71.4726 133.381 70.3857 133.701 69.2816 133.916C64.3658 134.872 59.4497 133.75 54.7462 132.301C49.4401 130.677 44.2706 128.644 39.2524 126.241C33.8839 123.679 28.0399 120.804 24.3067 115.995C22.8253 114.138 21.3872 111.684 21.4696 109.171ZM180.615 168.481C180.647 168.447 183.763 165.798 184.675 164.896C185.754 163.841 186.844 162.76 187.509 161.437C188.031 160.39 188.248 159.124 188.133 157.871C187.977 156.029 187.166 154.233 185.725 153.077C185.492 152.874 185.24 152.857 184.983 153.065C184.007 153.857 183.225 155.404 182.927 155.918C182.275 157.036 181.784 158.226 181.247 159.412C180.405 161.272 179.469 164.486 179.203 165.324C178.978 166.034 178.325 168.158 179.182 169.959C179.609 169.374 180.116 168.937 180.615 168.481ZM92.787 112.86C90.1925 111.847 87.6542 110.746 85.2746 109.295C82.7994 107.768 80.7079 105.716 78.2449 104.162C73.3263 101.073 67.5166 102.03 62.0665 102.696C56.1219 103.414 50.1351 103.723 44.2006 102.805C40.8769 102.29 37.5971 101.535 34.2371 101.28C32.5497 101.133 30.7644 101.022 29.0825 101.365C28.0445 101.577 27.0045 102.08 26.315 102.921C25.9801 103.338 25.6843 103.74 25.74 105.194C25.7552 105.591 25.3708 105.579 25.0745 105.623C24.0266 105.75 23.2708 106.414 23.0315 106.907C22.2961 108.279 23.4737 109.982 24.2636 111.07C25.2694 112.436 26.5442 113.565 27.9314 114.518C30.8063 116.454 34.0843 117.679 37.2474 119.015C37.4091 119.088 37.5708 119.161 37.7521 119.227C41.0034 120.619 44.2351 122.018 47.4668 123.417C50.5981 124.786 53.7075 126.276 56.9535 127.357C62.9359 129.352 69.0421 128.529 74.9215 126.628C80.9185 124.684 86.5591 121.733 92.8559 120.704C98.2641 119.808 104.012 119.991 109.693 121.899C108.283 120.708 106.322 118.943 104.912 117.752C101.019 115.842 96.854 114.459 92.787 112.86ZM65.9583 53.7697C63.7021 51.221 61.3969 48.6014 58.6443 46.5749C55.2521 44.0962 51.5041 43.0481 47.3224 43.6387C42.607 44.2962 37.9337 45.3625 33.2675 46.2697C39.4294 48.8011 44.7196 53.2926 49.2217 58.1256C54.3246 63.6042 58.6448 69.7352 63.1435 75.6873C67.6274 81.6001 72.5076 87.1403 77.8305 92.3125C83.0774 97.4016 88.6226 102.155 94.2436 106.813C96.9989 109.084 99.7543 111.355 102.51 113.627C106.018 116.531 109.506 119.443 112.899 122.458C115 122.695 117.072 123.033 119.135 123.464C116.727 121.464 114.391 119.415 112.27 117.106C109.362 113.953 107.161 110.422 105.52 106.48C103.901 102.596 102.615 98.5862 100.553 94.8912C98.3567 90.9564 95.5654 87.402 92.6544 84.0044C86.8592 77.2215 80.8512 70.5857 74.9338 63.8936C71.9322 60.5524 68.955 57.1574 65.9583 53.7697ZM79.7803 54.7363C77.7123 53.8158 75.5297 53.1844 73.3692 52.6117C71.189 52.0464 69.0163 51.5007 66.8898 50.781C66.2798 50.5859 65.6355 50.359 65.0034 50.1052C67.5609 52.7416 69.908 55.5914 72.3235 58.326C78.4004 65.2041 84.4773 72.0822 90.5616 78.9798C93.5509 82.3479 96.5477 85.7356 99.1457 89.4298C101.638 92.9626 103.59 96.7214 105.155 100.76C106.961 105.378 108.5 110.12 111.771 113.94C115.97 118.798 121.218 123.06 122.865 124.407C123.213 124.499 123.561 124.592 123.916 124.704C119.842 119.464 117.358 113.044 114.747 106.94C112.981 102.843 111.122 98.7368 108.59 95.04C105.821 91.008 102.109 87.8 98.7253 84.3345C93.1837 78.6409 88.4929 71.8223 86.2057 64.1435C85.6204 62.173 85.2112 60.1362 85.0005 58.0917C82.9215 56.1917 80.824 55.1929 79.7803 54.7363ZM109.158 22.2598C107.854 21.4093 104.616 19.3418 103.266 18.6653C101.816 17.9595 101.271 18.5895 100.552 19.7095C99.9337 20.68 99.5087 21.5107 98.9736 22.4052C97.8375 24.3754 96.7087 26.3653 95.6265 28.3599C93.4938 32.315 91.4837 36.358 89.7357 40.5036C88.1221 44.3526 86.7609 48.3973 86.3842 52.5631C86.0267 56.364 86.4821 60.1272 87.5961 63.7989C89.8267 71.2084 94.5392 77.7283 99.887 83.2041C103.077 86.452 106.536 89.4644 109.247 93.161C111.7 96.5297 113.571 100.252 115.245 104.048C118.522 111.444 121.228 119.524 126.711 125.597C136.293 128.898 145.022 134.33 152.404 141.231C152.477 140.533 152.608 139.813 152.509 139.134C152.334 138.016 151.417 137.243 150.572 136.6C148.954 135.331 147.461 134.038 146.244 132.35C145.076 130.733 144.121 128.968 143.362 127.13C140.154 119.262 140.402 110.36 136.489 102.757C135.574 100.978 134.533 99.2233 134.087 97.2674C133.723 95.7055 133.713 94.0771 134.01 92.4899C134.324 90.8293 134.985 89.2612 135.966 87.8862C137.178 86.1779 138.697 84.6895 139.36 82.6513C140.007 80.6866 140.085 78.5781 140.697 76.5815C141.314 74.5385 142.352 72.6051 143.665 70.926C144.239 70.1955 146.152 68.2683 147.083 67.3587C146.994 66.4086 146.118 63.0721 145.43 61.0063C144.751 59.0261 143.936 57.0975 143.01 55.2328C141.095 51.3931 138.72 47.8161 136.017 44.4966C130.259 37.4541 123.15 31.814 115.721 26.6297C113.533 25.151 111.351 23.6919 109.158 22.2598ZM140.581 83.399C141.204 82.7395 141.754 82.063 142.145 81.2005C143.175 78.89 142.885 76.16 144.266 74.0082C145.603 71.9177 148.062 70.7905 149.701 68.9666C150.914 67.6157 152.362 64.8125 152.441 63.419C150.97 65.806 148.572 67.5135 146.52 69.4261C143.522 72.2093 142.042 75.5832 141.401 79.5804C141.192 80.8662 141.01 82.1643 140.581 83.399ZM152.709 37.5868C149.582 28.3908 143.267 20.6413 135.925 14.4407C132.025 11.1473 127.386 8.44492 123.334 5.34267C121.917 5.85384 119.278 6.98122 118.556 6.96256C117.197 6.91533 112.382 2.91537 110.877 1.82761C109.817 3.52352 109.738 5.09572 109.729 5.90382C109.734 7.75753 110.39 9.32143 110.782 11.0742C111.158 12.7879 110.634 14.3043 110.154 15.9383C109.664 17.6653 109.468 19.4605 109.629 21.2552C123.115 29.3457 136.334 39.1016 143.732 53.1724C144.896 55.3724 145.891 57.6582 146.702 59.9908C147.388 61.9906 148.162 64.2253 148.363 66.3628C148.969 65.7768 149.591 65.2299 150.163 64.6121C150.977 63.7466 151.799 62.9007 152.395 61.8715C152.495 61.722 152.593 61.5064 152.777 61.4596C152.953 61.3933 153.127 61.4396 153.281 61.4932C155.072 62.0933 156.87 62.713 157.821 62.9811C155.645 54.5896 155.487 45.7963 152.709 37.5868ZM195.091 55.746C192.846 59.6988 190.052 63.5004 187.113 66.9765C187.172 69.2121 187.158 71.4307 187.031 73.647C186.765 78.2853 186.095 82.9192 185.023 87.4361C183.881 92.3596 181.666 97.1057 181.124 102.139C180.483 108.036 181.057 114.191 181.752 120.077C182.121 123.135 182.595 126.176 183.221 129.204C183.188 126.445 182.989 123.658 182.703 120.882C182.329 117.155 181.991 113.348 182.704 109.659C183.059 107.871 183.644 106.22 184.517 104.617C185.567 102.657 186.657 100.861 187.188 98.6486C188.15 94.5531 188.01 90.2018 188.499 86.0383C188.976 81.9017 189.713 77.8015 190.67 73.7525C191.632 69.657 192.814 65.6125 194.305 61.6755C195.05 59.6739 195.875 57.7089 196.754 55.7684C197.674 53.7004 198.901 51.6737 198.851 49.345C198.833 48.7035 198.789 48.0497 198.744 47.396C197.903 50.3282 196.574 53.1533 195.091 55.746ZM184.834 135.863C185.962 131.973 186.261 128.015 186.483 123.975C186.701 119.98 187.093 116.032 188.457 112.233C189.825 108.386 191.834 104.813 193.668 101.194C197.703 93.1474 201.003 84.7513 204.291 76.3821C205.841 72.4229 207.146 68.4665 207.206 64.1737C207.277 60.1454 206.547 56.128 205.78 52.1913C204.861 47.3734 203.689 42.5386 202.999 37.6787C202.636 35.1104 203.006 31.8188 204.995 30.1536C203.859 30.0448 202.341 30.1692 201.335 30.8831C199.576 32.1489 199.69 35.124 199.612 37.0537C199.509 39.2161 199.546 41.393 199.669 43.56C199.794 45.6144 200.23 47.6634 200.223 49.7228C200.209 51.7626 199.315 53.4853 198.531 55.3229C197.73 57.2339 196.983 59.1694 196.291 61.1293C194.905 65.0491 193.693 69.0152 192.709 73.052C191.72 77.1353 190.971 81.2625 190.462 85.4334C189.968 89.4646 189.98 93.5957 189.28 97.615C188.967 99.4544 188.46 101.255 187.59 102.924C186.63 104.828 185.445 106.548 184.862 108.623C183.821 112.212 184.1 116.041 184.445 119.689C184.964 125.105 185.378 130.539 184.721 135.861C184.743 135.919 184.758 135.959 184.76 136.025C184.812 135.983 184.836 135.929 184.834 135.863ZM179.184 107.139C179.178 104.57 179.266 102.011 179.779 99.5152C180.305 96.9923 181.205 94.5743 181.959 92.1221C183.312 87.7003 184.291 83.1738 184.843 78.5841C185.509 72.9903 185.59 67.3262 185.044 61.7192C184.865 59.8192 184.601 57.9291 184.278 56.0611C183.639 52.3448 182.73 48.685 181.548 45.1285C179.095 37.7805 175.464 30.8087 170.772 24.639C163.952 15.6706 155.309 8.68566 145.331 3.4998C143.45 7.2929 147.816 10.8135 150.038 13.3304C153.008 16.7058 154.331 21.3494 155.914 25.4931C157.54 29.7543 159.201 34.0473 160.554 38.4117C161.181 40.4336 161.239 42.3117 161.022 44.4056C160.779 46.5535 160.838 48.6104 161.191 50.7355C162.035 55.8278 163.23 60.9001 164.257 65.9456C164.453 66.0507 164.649 66.1557 164.826 66.2681C168.509 68.3914 171.914 71.3794 173.797 75.2533C175.58 78.9192 175.563 82.972 175.02 86.9323C174.452 91.1253 173.73 95.2646 173.488 99.4915C173.239 103.878 173.321 108.251 173.74 112.631C174.177 117.117 174.812 121.773 176.392 126.03C177.933 130.122 180.34 133.844 181.313 138.15C181.527 139.075 181.682 140.023 181.772 140.973C184.108 131.441 179.258 124.616 179.184 107.139ZM179.402 148.929C179.902 147.109 180.185 145.013 180.166 143.12C180.161 141.624 179.998 140.12 179.67 138.656C178.764 134.526 176.448 130.927 174.934 127.026C173.433 123.098 172.734 118.867 172.237 114.695C171.759 110.694 171.558 106.657 171.636 102.648C171.722 98.6587 172.098 94.6717 172.742 90.7406C173.355 87.0226 174.18 83.1574 173.519 79.3823C172.658 74.5422 169.173 70.6899 165.166 68.0626C161.519 65.6798 157.269 64.3066 153.304 62.4458C153.493 64.6102 152.443 66.9281 151.334 68.7318C150.747 69.668 150.119 70.5528 149.334 71.3178C148.378 72.2814 147.201 73.0151 146.272 73.9909C144.438 75.8886 144.583 78.8294 143.345 81.0618C142.267 83.01 140.621 84.4568 139.208 86.1067C138.404 87.2366 137.457 88.2859 136.749 89.4916C134.784 92.8244 135.193 96.5827 136.897 99.9206C137.805 101.68 138.785 103.391 139.504 105.243C140.202 107.037 140.716 108.878 141.179 110.761C142.124 114.697 142.715 118.7 143.824 122.597C144.941 126.514 146.668 130.446 149.644 133.305C150.978 134.592 152.747 135.49 153.795 137.086C154.835 138.661 154.413 140.273 154.381 142.029C154.311 146.057 156.257 149.863 158.04 153.35C158.892 155.019 159.77 156.7 160.882 158.226C161.664 159.296 162.577 160.472 163.729 161.156C164.162 161.418 164.613 161.606 165.12 161.706C166.761 162.027 168.492 161.576 169.982 160.903C171.622 160.152 173.082 159.043 174.359 157.803C176.807 155.338 178.495 152.221 179.402 148.929ZM170.55 183.314C171.142 183.225 172.112 183.128 173.187 183.014C172.26 182.334 169.388 180.107 169.388 180.107C169.227 181.107 169.27 181.873 169.572 182.497C169.739 182.881 170.168 183.368 170.55 183.314ZM137.674 180.489C134.693 181.298 132.304 182.376 130.364 183.755C129.571 184.322 128.867 184.944 128.224 185.611C127.886 185.962 127.583 186.344 127.28 186.727C128.873 185.613 130.551 184.668 131.875 183.968C132.822 183.455 133.769 182.942 134.723 182.449L134.743 182.442C136.138 181.693 137.591 180.922 139.018 180.139C138.565 180.243 138.12 180.366 137.674 180.489ZM159.063 170.022C156.704 171.178 154.489 172.66 152.412 174.091C147.884 177.204 143.453 179.923 138.832 182.378C137.788 182.927 132.639 185.581 131.173 186.379C129.786 187.147 127.826 188.354 126.722 189.284C129.048 188.453 131.586 188.012 134.273 187.962C138.296 187.9 141.643 187.825 145.11 187.414C149.032 186.966 166.601 183.929 168.018 183.775C167.189 182.522 167.229 180.786 167.387 179.899C167.535 179.106 167.749 178.31 167.959 177.56C168.329 176.169 168.732 174.743 168.715 173.274C168.712 171.129 167.277 169.277 165.239 168.792C163.074 168.266 160.798 169.168 159.063 170.022ZM160.35 167.324C163.657 166.191 166.294 166.428 168.383 168.056C169.966 169.293 170.796 171.261 170.748 173.626C170.718 175.269 170.284 176.729 169.882 178.155L169.877 178.202C170.328 178.568 170.799 178.928 171.235 179.255C172.23 179.998 175.882 182.692 176.738 183.242C177.966 184.009 179.257 184.887 180.334 186.024C180.942 186.689 181.425 187.379 181.737 188.089C182.245 189.261 182.081 190.665 182.805 191.756C183.626 192.989 184.769 193.945 185.833 194.931C186.767 195.808 187.833 196.503 188.728 197.395C189.505 198.153 189.945 199.083 190.419 200.045C191.153 201.579 192.071 203.067 193.512 204.045C194.232 204.534 195.119 204.692 196.257 204.509C197.271 204.351 198.343 203.992 199.224 203.481C198.469 202.961 197.469 202.086 197.02 201.606C195.799 200.322 195.204 198.802 194.921 197.098C194.758 196.131 194.597 195.23 193.903 194.396C193.535 193.953 193.121 193.506 192.721 193.097C190.051 190.28 187.51 187.212 185.353 183.978C184.588 182.835 184.045 181.631 183.914 180.272C183.862 179.778 183.817 179.303 183.542 178.87C183.091 178.145 182.182 177.75 181.544 177.185C180.757 176.52 180.453 175.651 180.143 174.829C179.959 174.339 179.76 173.811 179.49 173.331C178.847 172.276 177.852 171.533 176.982 170.944C176.058 170.331 175.767 169.322 175.431 168.309C175.34 168.008 175.141 167.479 174.909 166.806C174.243 164.978 173.3 162.293 173.102 161.115C171.214 162.452 169.038 163.383 166.386 163.465C165.989 163.48 164.596 163.401 163.841 163.238C162.452 164.655 160.663 165.485 158.739 165.896C159.151 166.278 159.911 166.931 160.35 167.324ZM87.4498 134.61C93.7995 136.512 99.9369 139.097 105.93 141.893C118.833 147.9 131.345 154.77 144.07 161.135C147.29 162.74 150.725 164.263 154.361 164.482C157.307 164.647 160.272 164.09 162.202 162.268C159.439 160.155 157.694 156.945 156.096 153.947C154.405 150.761 152.958 147.394 152.371 143.814C146.653 138.187 139.979 133.523 132.724 130.107C129.441 128.571 125.849 127.106 122.319 126.222C118.65 125.323 115.01 124.503 111.236 124.157C106.717 123.734 102.165 123.816 97.6799 124.432C92.8518 125.087 88.0856 126.322 83.548 128.165C80.6404 129.349 77.819 130.88 74.9066 132.111C79.1751 132.404 83.4446 133.413 87.4498 134.61ZM28.4311 118.399C32.6522 121.773 37.8343 124.137 42.7762 126.278C47.5025 128.321 52.3779 130.108 57.3628 131.472C62.3478 132.837 67.1969 133.247 72.1411 131.475C76.8234 129.78 81.0661 127.154 85.7558 125.478C90.0734 123.942 94.5705 122.942 99.1 122.444C101.032 122.231 102.961 122.131 104.893 122.096C101.139 121.565 97.3383 121.565 93.5728 122.133C87.0359 123.118 81.202 126.209 74.9528 128.137C69.2275 129.912 63.1875 130.733 57.3449 128.931C54.0353 127.919 50.8842 126.378 47.726 124.996C44.3791 123.528 41.02 122.088 37.6853 120.594C32.2901 118.198 24.6124 115.679 22.6039 109.572C22.6336 109.829 22.6633 110.086 22.6857 110.323C22.7622 110.764 22.8582 111.197 23.013 111.608C23.1089 111.863 23.1973 112.098 23.3323 112.338C24.5108 114.756 26.3744 116.737 28.4311 118.399Z" fill="#ABD1F9"/>
</g>
<defs>
<clipPath id="clip0">
<rect width="192.604" height="177.424" fill="white"/>
</clipPath>
</defs>
</svg>
