<svg width="90" height="90" viewBox="0 0 90 90" fill="none" xmlns="http://www.w3.org/2000/svg">
<path d="M54.3697 26H35.4566C30.2339 26 26 30.2339 26 35.4566V54.3697C26 59.5925 30.2339 63.8263 35.4566 63.8263H54.3697C59.5925 63.8263 63.8263 59.5925 63.8263 54.3697V35.4566C63.8263 30.2339 59.5925 26 54.3697 26Z" stroke="white" stroke-width="4.53916" stroke-linecap="round" stroke-linejoin="round"/>
<path d="M44.9132 52.4801C49.0913 52.4801 52.4784 49.0931 52.4784 44.9149C52.4784 40.7367 49.0913 37.3496 44.9132 37.3496C40.735 37.3496 37.3479 40.7367 37.3479 44.9149C37.3479 49.0931 40.735 52.4801 44.9132 52.4801Z" stroke="white" stroke-width="4.53916" stroke-linecap="round" stroke-linejoin="round"/>
<path d="M56.2615 33.5669V33.5706" stroke="white" stroke-width="5.67032" stroke-linecap="round" stroke-linejoin="round"/>
</svg>
