<svg width="84" height="84" viewBox="0 0 84 84" fill="none" xmlns="http://www.w3.org/2000/svg">
<circle cx="42" cy="42" r="41.5" fill="white" stroke="#C2CAD5"/>
<g clip-path="url(#clip0_996_11832)">
<path d="M41.998 42.2099C45.6008 42.2099 48.5214 39.2893 48.5214 35.6865C48.5214 32.0837 45.6008 29.1631 41.998 29.1631C38.3952 29.1631 35.4746 32.0837 35.4746 35.6865C35.4746 39.2893 38.3952 42.2099 41.998 42.2099Z" fill="#EFF3FF"/>
<path d="M41.9981 43.8027L20.6587 62.3415H63.3412L41.9981 43.8027Z" fill="#EFF3FF"/>
<path d="M63.3414 62.9958H20.6589C20.524 62.9972 20.392 62.9569 20.2809 62.8805C20.1698 62.8041 20.085 62.6952 20.038 62.5688C19.9911 62.4424 19.9843 62.3046 20.0186 62.1741C20.0529 62.0437 20.1267 61.9271 20.2298 61.8401L41.5692 43.3051C41.6889 43.2015 41.8419 43.1445 42.0002 43.1445C42.1585 43.1445 42.3115 43.2015 42.4312 43.3051L63.7743 61.8401C63.8755 61.9282 63.9474 62.0452 63.9804 62.1753C64.0133 62.3054 64.0058 62.4424 63.9587 62.5681C63.9116 62.6938 63.8273 62.8021 63.717 62.8785C63.6067 62.9549 63.4756 62.9958 63.3414 62.9958V62.9958ZM22.4243 61.6783H61.5722L41.9983 44.6753L22.4243 61.6783Z" fill="#1768C7"/>
<path d="M34.8197 50.4091C34.6682 50.4095 34.5215 50.3562 34.4057 50.2586L20.2446 38.7175C20.1089 38.6071 20.0225 38.4474 20.0045 38.2734C19.9865 38.0994 20.0383 37.9253 20.1487 37.7896C20.259 37.6538 20.4187 37.5674 20.5927 37.5494C20.7667 37.5314 20.9408 37.5833 21.0765 37.6936L35.2375 49.2385C35.3436 49.3243 35.4204 49.441 35.4572 49.5724C35.4941 49.7037 35.4893 49.8433 35.4434 49.9718C35.3975 50.1003 35.3129 50.2114 35.2012 50.2898C35.0895 50.3681 34.9562 50.4098 34.8197 50.4091V50.4091Z" fill="#1768C7"/>
<path d="M49.1806 50.4091C49.0441 50.4098 48.9108 50.3681 48.7991 50.2898C48.6874 50.2114 48.6028 50.1003 48.5569 49.9718C48.511 49.8433 48.5062 49.7037 48.5431 49.5724C48.5799 49.441 48.6567 49.3243 48.7627 49.2385L62.9237 37.6936C62.991 37.639 63.0683 37.5981 63.1513 37.5734C63.2343 37.5486 63.3214 37.5405 63.4076 37.5494C63.4937 37.5583 63.5773 37.5841 63.6535 37.6253C63.7297 37.6665 63.797 37.7223 63.8516 37.7896C63.9062 37.8568 63.9471 37.9341 63.9718 38.0171C63.9966 38.1001 64.0047 38.1872 63.9958 38.2734C63.9869 38.3595 63.9611 38.4431 63.9199 38.5193C63.8787 38.5955 63.8229 38.6628 63.7556 38.7174L49.5946 50.2586C49.4788 50.3562 49.3321 50.4095 49.1806 50.4091V50.4091Z" fill="#1768C7"/>
<path d="M63.3413 62.9959H20.6587C20.484 62.9959 20.3165 62.9265 20.1929 62.803C20.0694 62.6795 20 62.5119 20 62.3372V38.1935C19.9997 38.0989 20.02 38.0054 20.0597 37.9196C20.0994 37.8337 20.1574 37.7576 20.2296 37.6966L26.8697 31.926C27.002 31.8117 27.1743 31.7547 27.3486 31.7674C27.523 31.7801 27.6852 31.8615 27.7995 31.9938C27.9138 32.1261 27.9709 32.2983 27.9582 32.4727C27.9454 32.6471 27.864 32.8093 27.7317 32.9236L21.3325 38.4946V61.6785H62.675V38.4946L56.449 33.093C56.3782 33.0381 56.3195 32.9693 56.2762 32.891C56.2329 32.8126 56.2061 32.7262 56.1973 32.6371C56.1885 32.548 56.198 32.4581 56.2252 32.3727C56.2523 32.2874 56.2966 32.2086 56.3553 32.1409C56.4139 32.0733 56.4858 32.0184 56.5664 31.9794C56.647 31.9405 56.7347 31.9184 56.8241 31.9145C56.9136 31.9106 57.0029 31.9249 57.0866 31.9567C57.1703 31.9885 57.2466 32.0369 57.311 32.0992L63.7742 37.7117C63.8451 37.7735 63.902 37.8499 63.941 37.9356C63.9799 38.0213 64 38.1144 64 38.2085V62.3523C63.9961 62.5243 63.9249 62.6881 63.8018 62.8084C63.6787 62.9287 63.5134 62.996 63.3413 62.9959V62.9959Z" fill="#1768C7"/>
<path d="M48.5594 26.0131C48.4002 26.0139 48.2462 25.9563 48.1265 25.8512L42.0022 20.5286L35.9229 25.7985C35.7912 25.9133 35.6192 25.9711 35.4448 25.9591C35.2704 25.9471 35.108 25.8663 34.9932 25.7346C34.8784 25.6028 34.8206 25.4308 34.8326 25.2564C34.8446 25.082 34.9254 24.9196 35.0572 24.8048L41.5693 19.1585C41.6879 19.0526 41.8413 18.9941 42.0003 18.9941C42.1592 18.9941 42.3127 19.0526 42.4313 19.1585L48.9923 24.8537C49.0576 24.9105 49.111 24.9797 49.1496 25.0572C49.1881 25.1347 49.211 25.219 49.217 25.3053C49.2229 25.3917 49.2118 25.4784 49.1842 25.5604C49.1567 25.6424 49.1132 25.7182 49.0563 25.7835C48.9953 25.8557 48.9192 25.9137 48.8333 25.9534C48.7475 25.9931 48.654 26.0134 48.5594 26.0131V26.0131Z" fill="#1768C7"/>
<path d="M56.4302 43.8706C56.2555 43.8706 56.0879 43.8012 55.9644 43.6777C55.8408 43.5541 55.7714 43.3866 55.7714 43.2119V26.318H28.2286V43.2232C28.2286 43.3979 28.1592 43.5654 28.0357 43.689C27.9121 43.8125 27.7446 43.8819 27.5699 43.8819C27.3952 43.8819 27.2276 43.8125 27.1041 43.689C26.9805 43.5654 26.9111 43.3979 26.9111 43.2232V25.648C26.9111 25.4733 26.9805 25.3057 27.1041 25.1822C27.2276 25.0587 27.3952 24.9893 27.5699 24.9893H56.4302C56.6049 24.9893 56.7724 25.0587 56.896 25.1822C57.0195 25.3057 57.0889 25.4733 57.0889 25.648V43.2119C57.0889 43.3866 57.0195 43.5541 56.896 43.6777C56.7724 43.8012 56.6049 43.8706 56.4302 43.8706V43.8706Z" fill="#1768C7"/>
<path d="M38.1621 35.8641L41.1584 38.8605L47.8851 32.1338" fill="#EFF3FF"/>
<path d="M41.1621 39.5184C41.0755 39.5188 40.9896 39.5021 40.9095 39.4691C40.8294 39.4362 40.7566 39.3877 40.6953 39.3264L37.684 36.315C37.6222 36.2544 37.5731 36.182 37.5396 36.1022C37.506 36.0224 37.4888 35.9367 37.4888 35.8501C37.4888 35.7636 37.506 35.6778 37.5396 35.598C37.5731 35.5182 37.6222 35.4459 37.684 35.3852C37.8074 35.2623 37.9746 35.1932 38.1488 35.1932C38.3231 35.1932 38.4903 35.2623 38.6137 35.3852L41.147 37.9148L47.407 31.6549C47.5307 31.5316 47.6984 31.4625 47.8732 31.4629C48.0479 31.4632 48.2153 31.533 48.3386 31.6568C48.4619 31.7806 48.531 31.9483 48.5306 32.123C48.5302 32.2977 48.4605 32.4651 48.3367 32.5884L41.61 39.3151C41.4931 39.4388 41.3323 39.5118 41.1621 39.5184V39.5184Z" fill="#1768C7"/>
</g>
<defs>
<clipPath id="clip0_996_11832">
<rect width="44" height="44" fill="white" transform="translate(20 19)"/>
</clipPath>
</defs>
</svg>
