<svg width="80" height="80" viewBox="0 0 80 80" fill="none" xmlns="http://www.w3.org/2000/svg">
<path d="M60.3083 75.0002H19.5936C18.6798 75.0002 17.9355 74.2559 17.9355 73.3421C17.9355 72.4284 18.6798 71.6841 19.5936 71.6841H60.3083C61.2221 71.6841 61.9664 72.4284 61.9664 73.3421C61.9664 74.2559 61.2221 75.0002 60.3083 75.0002Z" fill="#595757"/>
<path d="M52.5453 55.5817H27.3574V73.3414H52.5453V55.5817Z" fill="white"/>
<path d="M52.5451 74.9997H27.3573C26.4435 74.9997 25.6992 74.2554 25.6992 73.3416V55.5819C25.6992 54.6681 26.4435 53.9238 27.3573 53.9238H52.5451C53.4589 53.9238 54.2032 54.6681 54.2032 55.5819V73.3416C54.2032 74.2554 53.4589 74.9997 52.5451 74.9997ZM29.0153 71.6835H50.8871V57.24H29.0153V71.6835Z" fill="#595757"/>
<path d="M76.2555 6.51233H3.64648V63.1782H76.2555V6.51233Z" fill="white"/>
<path d="M76.2631 64.6903H3.64671C2.73919 64.6903 2 64.0115 2 63.1781V6.51225C2 5.67883 2.73919 5 3.64671 5H76.2558C77.1633 5 77.9025 5.67883 77.9025 6.51225V63.1781C77.9098 64.0115 77.1706 64.6903 76.2631 64.6903ZM5.29343 61.6658H74.6091V8.02451H5.29343V61.6658Z" fill="#595757"/>
<path d="M23.9941 31.3398V39.0449C23.9941 39.5788 23.8672 39.9824 23.6133 40.2559C23.3594 40.5293 23.0371 40.666 22.6465 40.666C22.2559 40.666 21.9368 40.526 21.6895 40.2461C21.4486 39.9661 21.3281 39.5658 21.3281 39.0449V31.418C21.3281 30.8906 21.4486 30.4935 21.6895 30.2266C21.9368 29.9596 22.2559 29.8262 22.6465 29.8262C23.0371 29.8262 23.3594 29.9596 23.6133 30.2266C23.8672 30.4935 23.9941 30.8646 23.9941 31.3398ZM22.6758 28.5859C22.3047 28.5859 21.9857 28.472 21.7188 28.2441C21.4583 28.0163 21.3281 27.694 21.3281 27.2773C21.3281 26.8997 21.4616 26.5905 21.7285 26.3496C22.002 26.1022 22.3177 25.9785 22.6758 25.9785C23.0208 25.9785 23.3268 26.0892 23.5938 26.3105C23.8607 26.5319 23.9941 26.8542 23.9941 27.2773C23.9941 27.6875 23.8639 28.0098 23.6035 28.2441C23.3431 28.472 23.0339 28.5859 22.6758 28.5859Z" fill="#4493F1"/>
<path d="M29.6637 36.3984H26.5777C26.109 36.3984 25.7509 36.291 25.5035 36.0762C25.2626 35.8548 25.1422 35.5716 25.1422 35.2266C25.1422 34.875 25.2594 34.5918 25.4938 34.377C25.7346 34.1556 26.096 34.0449 26.5777 34.0449H29.6637C30.1454 34.0449 30.5035 34.1556 30.7379 34.377C30.9788 34.5918 31.0992 34.875 31.0992 35.2266C31.0992 35.5716 30.982 35.8548 30.7477 36.0762C30.5133 36.291 30.152 36.3984 29.6637 36.3984Z" fill="#4493F1"/>
<path d="M34.6789 31.3203V31.6426C35.1802 31.0241 35.701 30.5716 36.2414 30.2852C36.7818 29.9922 37.3937 29.8457 38.0773 29.8457C38.8977 29.8457 39.6529 30.0573 40.343 30.4805C41.0331 30.9036 41.5767 31.5221 41.9738 32.3359C42.3775 33.1497 42.5793 34.1133 42.5793 35.2266C42.5793 36.0469 42.4621 36.8021 42.2277 37.4922C41.9999 38.1758 41.6841 38.752 41.2805 39.2207C40.8768 39.6829 40.3983 40.041 39.8449 40.2949C39.298 40.5423 38.7089 40.666 38.0773 40.666C37.3156 40.666 36.6743 40.513 36.1535 40.207C35.6392 39.901 35.1477 39.4518 34.6789 38.8594V42.8633C34.6789 44.0352 34.2525 44.6211 33.3996 44.6211C32.8983 44.6211 32.5663 44.4681 32.4035 44.1621C32.2408 43.8626 32.1594 43.4232 32.1594 42.8438V31.3398C32.1594 30.832 32.2701 30.4544 32.4914 30.207C32.7128 29.9531 33.0155 29.8262 33.3996 29.8262C33.7772 29.8262 34.0832 29.9564 34.3176 30.2168C34.5585 30.4707 34.6789 30.8385 34.6789 31.3203ZM39.9035 35.1973C39.9035 34.4941 39.7961 33.8919 39.5812 33.3906C39.3664 32.8828 39.0669 32.4954 38.6828 32.2285C38.3052 31.9551 37.8853 31.8184 37.423 31.8184C36.6874 31.8184 36.0656 32.1081 35.5578 32.6875C35.0565 33.2669 34.8059 34.1198 34.8059 35.2461C34.8059 36.3073 35.0565 37.1341 35.5578 37.7266C36.0591 38.3125 36.6809 38.6055 37.423 38.6055C37.8658 38.6055 38.2759 38.4785 38.6535 38.2246C39.0311 37.9642 39.3339 37.5768 39.5617 37.0625C39.7896 36.5482 39.9035 35.9264 39.9035 35.1973Z" fill="#4493F1"/>
<path d="M46.784 31.3398V39.0449C46.784 39.5788 46.657 39.9824 46.4031 40.2559C46.1492 40.5293 45.827 40.666 45.4363 40.666C45.0457 40.666 44.7267 40.526 44.4793 40.2461C44.2384 39.9661 44.118 39.5658 44.118 39.0449V31.418C44.118 30.8906 44.2384 30.4935 44.4793 30.2266C44.7267 29.9596 45.0457 29.8262 45.4363 29.8262C45.827 29.8262 46.1492 29.9596 46.4031 30.2266C46.657 30.4935 46.784 30.8646 46.784 31.3398ZM45.4656 28.5859C45.0945 28.5859 44.7755 28.472 44.5086 28.2441C44.2482 28.0163 44.118 27.694 44.118 27.2773C44.118 26.8997 44.2514 26.5905 44.5184 26.3496C44.7918 26.1022 45.1076 25.9785 45.4656 25.9785C45.8107 25.9785 46.1167 26.0892 46.3836 26.3105C46.6505 26.5319 46.784 26.8542 46.784 27.2773C46.784 27.6875 46.6538 28.0098 46.3934 28.2441C46.1329 28.472 45.8237 28.5859 45.4656 28.5859Z" fill="#4493F1"/>
<path d="M51.3695 31.3008V31.623C51.8383 31.0046 52.3493 30.5521 52.9027 30.2656C53.4626 29.9727 54.1039 29.8262 54.8266 29.8262C55.5297 29.8262 56.1579 29.9792 56.7113 30.2852C57.2647 30.5911 57.6781 31.0241 57.9516 31.584C58.1273 31.9095 58.2413 32.2611 58.2934 32.6387C58.3454 33.0163 58.3715 33.498 58.3715 34.084V39.0449C58.3715 39.5788 58.2478 39.9824 58.0004 40.2559C57.7595 40.5293 57.4437 40.666 57.0531 40.666C56.656 40.666 56.3337 40.526 56.0863 40.2461C55.8389 39.9661 55.7152 39.5658 55.7152 39.0449V34.6016C55.7152 33.7227 55.5915 33.0521 55.3441 32.5898C55.1033 32.1211 54.6182 31.8867 53.8891 31.8867C53.4138 31.8867 52.9809 32.0299 52.5902 32.3164C52.1996 32.5964 51.9132 32.9837 51.7309 33.4785C51.6007 33.8757 51.5355 34.6178 51.5355 35.7051V39.0449C51.5355 39.5853 51.4086 39.9922 51.1547 40.2656C50.9073 40.5326 50.585 40.666 50.1879 40.666C49.8038 40.666 49.488 40.526 49.2406 40.2461C48.9932 39.9661 48.8695 39.5658 48.8695 39.0449V31.3398C48.8695 30.832 48.9802 30.4544 49.2016 30.207C49.4229 29.9531 49.7257 29.8262 50.1098 29.8262C50.3441 29.8262 50.5557 29.8815 50.7445 29.9922C50.9333 30.1029 51.0831 30.2689 51.1938 30.4902C51.3109 30.7116 51.3695 30.9818 51.3695 31.3008Z" fill="#4493F1"/>
<path d="M75.8723 51.5066H4.03014C3.11636 51.5066 2.37207 50.7623 2.37207 49.8485C2.37207 48.9347 3.11636 48.1904 4.03014 48.1904H75.8723C76.786 48.1904 77.5303 48.9347 77.5303 49.8485C77.5303 50.7623 76.786 51.5066 75.8723 51.5066Z" fill="#595757"/>
<rect x="13.0801" y="16.7358" width="53.7427" height="32.3721" stroke="#595757" stroke-width="3" stroke-linecap="round" stroke-linejoin="round"/>
</svg>
