<svg width="18" height="18" viewBox="0 0 18 18" fill="none" xmlns="http://www.w3.org/2000/svg">
<path d="M3.40156 2.3999C3.18939 2.3999 2.98591 2.48419 2.83588 2.63422C2.68585 2.78425 2.60156 2.98773 2.60156 3.1999C2.60156 3.41208 2.68585 3.61556 2.83588 3.76559C2.98591 3.91562 3.18939 3.9999 3.40156 3.9999H12.2016C12.4137 3.9999 12.6172 3.91562 12.7672 3.76559C12.9173 3.61556 13.0016 3.41208 13.0016 3.1999C13.0016 2.98773 12.9173 2.78425 12.7672 2.63422C12.6172 2.48419 12.4137 2.3999 12.2016 2.3999H3.40156ZM3.40156 5.5999C3.18939 5.5999 2.98591 5.68419 2.83588 5.83422C2.68585 5.98425 2.60156 6.18773 2.60156 6.3999C2.60156 6.61208 2.68585 6.81556 2.83588 6.96559C2.98591 7.11562 3.18939 7.1999 3.40156 7.1999H7.40156C7.61374 7.1999 7.81722 7.11562 7.96725 6.96559C8.11728 6.81556 8.20156 6.61208 8.20156 6.3999C8.20156 6.18773 8.11728 5.98425 7.96725 5.83422C7.81722 5.68419 7.61374 5.5999 7.40156 5.5999H3.40156ZM3.40156 8.7999C3.18939 8.7999 2.98591 8.88419 2.83588 9.03422C2.68585 9.18425 2.60156 9.38773 2.60156 9.5999C2.60156 9.81208 2.68585 10.0156 2.83588 10.1656C2.98591 10.3156 3.18939 10.3999 3.40156 10.3999H6.60156C6.81374 10.3999 7.01722 10.3156 7.16725 10.1656C7.31728 10.0156 7.40156 9.81208 7.40156 9.5999C7.40156 9.38773 7.31728 9.18425 7.16725 9.03422C7.01722 8.88419 6.81374 8.7999 6.60156 8.7999H3.40156ZM11.4016 12.7999C11.4016 13.0121 11.4858 13.2156 11.6359 13.3656C11.7859 13.5156 11.9894 13.5999 12.2016 13.5999C12.4137 13.5999 12.6172 13.5156 12.7672 13.3656C12.9173 13.2156 13.0016 13.0121 13.0016 12.7999V8.3311L14.036 9.3655C14.1868 9.51123 14.3889 9.59186 14.5987 9.59004C14.8084 9.58822 15.0091 9.50408 15.1574 9.35576C15.3057 9.20743 15.3899 9.00678 15.3917 8.79702C15.3935 8.58727 15.3129 8.38518 15.1672 8.2343L12.7672 5.8343C12.6171 5.68433 12.4137 5.60007 12.2016 5.60007C11.9894 5.60007 11.786 5.68433 11.636 5.8343L9.23596 8.2343C9.15955 8.3081 9.09861 8.39638 9.05668 8.49398C9.01475 8.59158 8.99268 8.69656 8.99176 8.80278C8.99084 8.90901 9.01108 9.01435 9.05131 9.11267C9.09153 9.21098 9.15093 9.3003 9.22605 9.37542C9.30116 9.45053 9.39048 9.50993 9.4888 9.55016C9.58712 9.59038 9.69246 9.61063 9.79868 9.6097C9.90491 9.60878 10.0099 9.58671 10.1075 9.54478C10.2051 9.50286 10.2934 9.44191 10.3672 9.3655L11.4016 8.3311V12.7999Z" fill="#3565C9"/>
</svg>
