<svg width="205" height="58" viewBox="0 0 205 58" fill="none" xmlns="http://www.w3.org/2000/svg">
<g clip-path="url(#clip0_370_4758)">
<path d="M107 53.5C94.5733 53.5 84.5 43.4267 84.5 31C84.5 18.5733 94.5733 8.5 107 8.5C119.427 8.5 129.5 18.5733 129.5 31C129.5 43.4267 119.427 53.5 107 53.5ZM107 49C111.774 49 116.352 47.1036 119.728 43.7279C123.104 40.3523 125 35.7739 125 31C125 26.2261 123.104 21.6477 119.728 18.2721C116.352 14.8964 111.774 13 107 13C102.226 13 97.6477 14.8964 94.2721 18.2721C90.8964 21.6477 89 26.2261 89 31C89 35.7739 90.8964 40.3523 94.2721 43.7279C97.6477 47.1036 102.226 49 107 49V49ZM104.75 37.75H109.25V42.25H104.75V37.75ZM104.75 19.75H109.25V33.25H104.75V19.75Z" fill="#D5D5D5"/>
</g>
<g clip-path="url(#clip1_370_4758)">
<path d="M18.0058 40.5951C17.2166 40.5951 16.563 40.044 16.5304 40.0162C16.465 39.9606 16.4323 39.8721 16.4449 39.7862C16.4575 39.7002 16.5153 39.6269 16.5957 39.5915C16.842 39.4854 17.1412 38.7725 17.2643 38.3251C17.2719 38.2998 17.2819 38.2771 17.2945 38.2569C17.4579 38.0016 17.493 37.6805 17.3975 37.3014C17.1789 36.4318 16.3192 35.4813 15.8266 35.2109C15.5702 35.0693 15.2736 34.8671 15.2686 34.5359C15.261 34.1138 15.7411 33.7422 16.6309 33.2038C17.8977 32.4404 17.0532 30.3853 16.8697 29.9834C16.6837 29.5713 16.3117 29.1163 15.9347 29.091C15.5828 29.0658 15.2711 29.4323 15.075 29.7432C14.889 30.0364 14.8388 30.2741 14.9293 30.4485C15.1253 30.8378 15.9573 30.9717 16.2338 30.9894C16.269 30.9894 16.3041 31.0021 16.3368 31.0172C16.5128 31.1108 16.8069 31.3686 16.8069 31.7478C16.8069 32.2104 16.3846 32.6527 15.5224 33.1001C14.8337 33.4591 14.238 33.5172 13.7554 33.2771C13.2578 33.0294 13.024 32.5238 12.9235 32.2179C12.6042 32.2533 12.2624 32.175 11.9683 31.993C11.5762 31.7528 11.071 31.2195 10.8925 30.0516C10.8046 29.4727 10.9152 28.995 11.2218 28.636C11.5863 28.2063 12.1392 28.0622 12.4761 28.0142C12.461 27.6249 12.6042 26.9475 13.582 26.3256C14.0194 26.0476 14.4517 25.9616 14.8689 26.0703C15.2811 26.1765 15.5803 26.452 15.7637 26.6694C16.0754 26.356 16.7289 25.9136 17.8726 26.0147C19.1268 26.1234 19.6346 27.1649 19.7628 27.8575C20.4866 27.9131 21.5926 28.3555 21.756 29.7786C21.9294 31.2953 21.0924 31.8489 20.6852 32.0258C20.7254 33.5501 19.529 33.8711 18.5588 34.129L18.5236 34.1391C18.1491 34.2402 18.1013 34.3312 18.1013 34.3337C18.1013 34.4095 18.325 34.6295 18.4432 34.7483L18.5035 34.8089C18.6543 34.9606 19.3405 34.8443 19.9588 34.637C19.9362 34.5334 19.9261 34.4045 19.9563 34.2579C20.0418 33.8105 20.4339 33.3858 21.1175 32.9965C21.5825 32.7311 22.0526 32.6679 22.5125 32.8069C23.1862 33.0091 23.6612 33.5981 23.8874 33.9394C24.3072 33.7574 24.9431 33.909 25.1844 33.9798C25.7273 33.8838 26.2074 33.9849 26.6071 34.2806C27.4491 34.8999 27.7105 36.2119 27.7909 36.9374C27.8186 37.1851 27.8915 37.496 28.08 37.5769C28.2534 37.6527 28.5601 37.5491 28.8793 37.3064C29.6082 36.7579 30.1738 37.0739 30.9027 37.8069C31.5059 38.4136 32.6295 37.8347 32.6395 37.8297C32.735 37.7791 32.8506 37.7968 32.9286 37.8701C33.0065 37.9434 33.0291 38.0597 32.9839 38.1583C32.6068 38.995 31.7095 39.3009 30.586 38.9773C30.415 38.9293 30.1788 38.8913 30.033 38.9899C29.9098 39.0733 29.8897 39.2326 29.8897 39.2326C29.8872 39.2629 29.8797 39.2933 29.8646 39.3185C29.5429 39.9909 29.1055 40.3954 28.5676 40.5193C27.9543 40.6608 27.3837 40.3903 27.0997 40.2184C26.6272 40.6254 26.0038 40.4914 25.6368 40.312C25.0864 40.5698 24.6113 40.5824 24.2242 40.3524C23.4048 39.8646 23.3596 38.4591 23.3596 38.3984C23.3571 38.2973 23.4149 38.2038 23.5054 38.1633C23.5959 38.1204 23.7039 38.1381 23.7794 38.2038C24.0156 38.4161 24.4052 38.4161 24.6691 38.2038C24.9984 37.9384 25.0009 37.4556 24.6792 36.8817C24.5133 36.586 24.3097 36.4267 24.0609 36.3964C23.4576 36.3231 22.6885 37.0005 22.4396 37.2685C22.3793 37.3317 22.2914 37.362 22.2059 37.3443C22.1204 37.3266 22.0501 37.266 22.0199 37.1825C21.9294 36.9348 21.4719 36.7023 21.0396 36.7882C20.6098 36.8742 20.3836 37.2457 20.4062 37.8373C20.4188 38.1911 20.5294 38.4313 20.738 38.5728C21.198 38.8838 22.0752 38.6714 22.3718 38.5627C22.4698 38.5273 22.5804 38.5551 22.6483 38.636C22.7161 38.7144 22.7287 38.8282 22.6809 38.9192C22.3391 39.5612 21.8892 39.9303 21.3438 40.0187C20.6475 40.13 19.9814 39.7356 19.632 39.4727C19.3053 40.0744 18.883 40.4358 18.3728 40.5546C18.2496 40.5824 18.129 40.5951 18.0133 40.5951H18.0058ZM17.111 39.8064C17.3774 39.9657 17.8173 40.1628 18.2572 40.0592C18.6819 39.9606 19.0363 39.5941 19.3103 38.9697C19.343 38.8939 19.4109 38.8408 19.4913 38.8231C19.5717 38.8079 19.6547 38.8307 19.715 38.8888C19.7225 38.8964 20.5068 39.6396 21.2633 39.5182C21.4795 39.4829 21.6781 39.3792 21.8565 39.2048C21.4217 39.2705 20.8687 39.2705 20.4565 38.9925C20.1096 38.7574 19.9211 38.3757 19.901 37.8549C19.8683 37.0107 20.2579 36.4242 20.9391 36.2902C21.4493 36.1891 21.9948 36.3686 22.2964 36.6997C22.6608 36.3711 23.4023 35.81 24.1137 35.8934C24.5284 35.9414 24.8652 36.1916 25.1115 36.6315C25.6419 37.5744 25.3905 38.2645 24.9783 38.5981C24.6742 38.8433 24.267 38.9192 23.9075 38.8282C23.9804 39.225 24.1463 39.7205 24.4756 39.9151C24.732 40.0668 25.0839 40.0289 25.5212 39.8014C25.5991 39.7609 25.6947 39.7634 25.7676 39.8115C25.7952 39.8292 26.4663 40.2286 26.8609 39.7331C26.9489 39.6244 27.1047 39.6067 27.2128 39.6927C27.2179 39.6977 27.8312 40.1704 28.4495 40.0263C28.8215 39.9379 29.1382 39.6396 29.387 39.134C29.4071 39.0177 29.4825 38.7498 29.7389 38.5728C29.9852 38.4035 30.312 38.3757 30.7142 38.4894C30.9077 38.545 31.2319 38.6158 31.5612 38.588C31.2068 38.5754 30.8398 38.4667 30.5357 38.1633C29.7766 37.3999 29.5253 37.4429 29.1709 37.7109C28.8893 37.9232 28.3464 38.2493 27.8689 38.0395C27.5396 37.8954 27.341 37.544 27.2807 36.9904C27.2229 36.4722 27.0117 35.2109 26.3004 34.6876C25.9988 34.4652 25.6419 34.3994 25.2095 34.4854C25.1668 34.493 25.1266 34.4904 25.0864 34.4778C24.6591 34.3438 24.1111 34.3034 24.0156 34.4449C23.9654 34.5182 23.8799 34.5612 23.7919 34.5562C23.704 34.5511 23.6235 34.5005 23.5833 34.4197C23.5783 34.4095 23.1032 33.5071 22.3592 33.2847C22.0299 33.1861 21.7032 33.2341 21.3563 33.4313C20.831 33.7296 20.5068 34.0506 20.4439 34.3362C20.4037 34.5132 20.4816 34.6219 20.4841 34.6269C20.5294 34.6901 20.5445 34.7735 20.5218 34.8494C20.4992 34.9252 20.4464 34.9884 20.3735 35.0162C19.9714 35.1755 18.6266 35.6507 18.139 35.1628L18.0812 35.1047C17.8047 34.8292 17.5182 34.5435 17.6087 34.1997C17.6966 33.8711 18.0938 33.7296 18.3879 33.6512L18.423 33.6411C19.4209 33.3731 20.2805 33.1431 20.1674 31.8742C20.1549 31.7478 20.2403 31.6315 20.366 31.6037C20.4062 31.5936 21.4242 31.3433 21.2508 29.8367C21.0773 28.3251 19.6069 28.3555 19.5441 28.358C19.4134 28.3555 19.2952 28.2594 19.2852 28.1254C19.2802 28.0648 19.1444 26.634 17.8198 26.5177C16.4399 26.3989 15.9648 27.2002 15.9598 27.2078C15.9146 27.2862 15.8241 27.3342 15.7386 27.3342C15.6481 27.3342 15.5652 27.2837 15.5199 27.2028C15.5199 27.1977 15.2258 26.682 14.7307 26.5557C14.4542 26.4849 14.1551 26.5506 13.8409 26.7503C12.7601 27.4353 12.9838 28.1229 12.9938 28.1532C13.0215 28.2316 13.0089 28.3175 12.9612 28.3858C12.9134 28.4515 12.838 28.4945 12.7576 28.4945C12.7576 28.4945 11.9859 28.5046 11.5913 28.9672C11.3852 29.2098 11.3123 29.5486 11.3776 29.9758C11.5259 30.9515 11.9181 31.3762 12.2197 31.5632C12.4735 31.72 12.7727 31.7655 13.0165 31.682C13.0868 31.6593 13.1622 31.6669 13.2251 31.7048C13.2879 31.7427 13.3307 31.8059 13.3432 31.8792C13.3432 31.8843 13.4739 32.5769 13.9741 32.8246C14.3059 32.9889 14.7458 32.9308 15.2837 32.6502C16.2212 32.1623 16.2966 31.8337 16.2966 31.7452C16.2966 31.6264 16.1885 31.5304 16.1307 31.4874C15.8366 31.4621 14.8036 31.3231 14.4768 30.6785C14.3009 30.3322 14.3587 29.9252 14.6452 29.4702C15.0373 28.8484 15.4797 28.5501 15.9648 28.5855C16.5907 28.6285 17.0859 29.2528 17.3221 29.7736C17.6212 30.4384 18.4758 32.6755 16.8848 33.6386C15.907 34.2275 15.7637 34.4475 15.7663 34.5258C15.7663 34.5258 15.7713 34.6067 16.0629 34.766C16.6359 35.0819 17.6137 36.1209 17.8801 37.1775C18.0083 37.6831 17.958 38.1279 17.7318 38.4995C17.6665 38.727 17.4503 39.4121 17.1034 39.8089L17.111 39.8064Z" fill="#D4D4D4"/>
<path d="M11.5162 40.9997C10.7998 40.9997 10.2318 40.8076 9.82458 40.4259C9.51542 40.1352 9.36209 39.7889 9.28669 39.5134C9.24396 39.5386 9.19871 39.5614 9.15096 39.5841C8.54017 39.9987 7.60514 40.4638 6.59722 40.3728C6.08195 40.3248 5.39325 40.0189 4.59646 39.665C3.01043 38.9598 1.21577 38.161 0.456692 39.2454C0.386313 39.3465 0.250583 39.3819 0.139988 39.3263C0.0293935 39.2707 -0.025904 39.1418 0.0117988 39.023C0.0268799 38.9699 0.429043 37.7565 2.41975 37.7565C2.82945 37.7565 3.23665 37.797 3.62875 37.8349C4.59395 37.9284 5.43598 38.0093 6.11965 37.5391C5.8859 36.7732 6.14479 36.1362 6.4263 35.757C6.03168 35.5043 5.36308 34.9633 5.2173 34.1544C5.09162 33.4492 5.38822 32.7161 6.09954 31.978C6.83098 31.2196 7.60012 30.8607 8.37931 30.9062C9.17861 30.9542 9.78185 31.4219 10.096 31.7302C10.2393 31.5331 10.468 31.303 10.8023 31.2019C11.2221 31.0755 11.6871 31.1893 12.1823 31.5381C13.4038 32.3976 12.9413 33.9598 12.5266 34.6676C12.4789 34.7484 12.3884 34.7939 12.2979 34.7914C12.2049 34.7864 12.1219 34.7308 12.0817 34.6448C11.9762 34.4173 11.6092 33.8182 11.1844 33.7601C10.9582 33.7297 10.7169 33.8637 10.468 34.1569C10.1714 34.5083 10.0634 34.799 10.1488 35.0215C10.3197 35.4663 11.2246 35.6787 11.5262 35.7166C11.6092 35.7267 11.6821 35.7798 11.7198 35.8556C11.7575 35.9315 11.755 36.0225 11.7122 36.0958C11.2975 36.8111 11.7022 37.4229 12.1747 37.7313C12.7227 38.0877 13.5044 38.1307 13.9342 37.5265C14.0925 37.3041 14.2559 36.9931 14.1529 36.7606C14.0121 36.4446 13.4239 36.3106 13.2304 36.2904C13.1148 36.2778 13.0218 36.1868 13.0092 36.068C12.9439 35.5194 13.2078 34.9911 13.718 34.66C14.3288 34.2606 15.1331 34.2302 15.7188 34.5816C16.1109 34.8167 16.7468 35.436 16.6262 36.9426C16.5332 38.1054 16.1436 38.9345 15.4699 39.4072C14.8089 39.8723 14.0498 39.8647 13.6376 39.8116C13.6125 39.9608 13.5496 40.1428 13.4114 40.3223C13.1173 40.7065 12.5945 40.9315 11.8555 40.9896C11.7399 40.9997 11.6268 41.0022 11.5162 41.0022V40.9997ZM9.46515 38.7778C9.4928 38.7778 9.52045 38.7828 9.54558 38.7904C9.64863 38.8258 9.7165 38.9219 9.7165 39.0306C9.7165 39.0356 9.72153 39.6372 10.174 40.0594C10.5359 40.3956 11.0889 40.5371 11.8178 40.4815C12.3934 40.436 12.8056 40.2768 13.0067 40.0189C13.1826 39.7939 13.15 39.5589 13.1475 39.5488C13.1349 39.4628 13.165 39.3769 13.2279 39.3187C13.2907 39.2606 13.3787 39.2378 13.4616 39.2606C13.4717 39.2631 14.4344 39.5159 15.1859 38.9825C15.7288 38.5983 16.0455 37.8956 16.126 36.8946C16.2014 35.9795 15.9651 35.3096 15.4624 35.0088C15.0376 34.7535 14.4444 34.7813 13.992 35.0771C13.7029 35.2666 13.532 35.5295 13.5069 35.8152C13.8311 35.8834 14.4042 36.0705 14.6154 36.5432C14.7762 36.9047 14.6857 37.3319 14.3464 37.8096C13.7331 38.6741 12.6548 38.6337 11.9058 38.1458C11.295 37.749 10.8426 36.983 11.1366 36.1489C10.6817 36.0427 9.91255 35.7848 9.68634 35.1959C9.52799 34.7864 9.66372 34.3238 10.091 33.8207C10.458 33.386 10.8501 33.1938 11.2573 33.2495C11.7198 33.3127 12.0692 33.6817 12.2878 33.9901C12.4965 33.4517 12.7 32.5063 11.8982 31.9426C11.5363 31.6873 11.2196 31.5988 10.9532 31.6772C10.5661 31.7909 10.3801 32.2358 10.3776 32.2383C10.3424 32.3218 10.267 32.3824 10.1765 32.3925C10.086 32.4052 9.99801 32.3673 9.94272 32.2939C9.93769 32.2864 9.29171 31.4522 8.34663 31.3966C7.72076 31.3587 7.08484 31.6696 6.46149 32.3167C5.8683 32.931 5.61695 33.5149 5.71246 34.0508C5.8683 34.933 6.92147 35.4512 6.93152 35.4562C7.00944 35.4942 7.06222 35.5675 7.07228 35.6509C7.08233 35.7368 7.05217 35.8202 6.98682 35.8758C6.95665 35.9011 6.25538 36.5331 6.65252 37.524C6.69273 37.6251 6.66257 37.7439 6.57963 37.8121C5.71246 38.5326 4.63165 38.4264 3.58351 38.3253C3.20146 38.2874 2.80683 38.2495 2.42226 38.2495C2.34183 38.2495 2.26391 38.2495 2.18851 38.257C3.03808 38.4062 3.97059 38.8207 4.80257 39.1923C5.52646 39.5134 6.21014 39.8192 6.64498 39.8597C7.5599 39.9456 8.44466 39.4476 8.88955 39.1443C8.90212 39.1367 8.91469 39.1291 8.92977 39.1216C9.14342 39.028 9.26407 38.8713 9.26658 38.8688C9.31434 38.8056 9.38974 38.7677 9.46766 38.7677L9.46515 38.7778Z" fill="#D4D4D4"/>
</g>
<g clip-path="url(#clip2_370_4758)">
<path d="M186.37 17.5151C185.39 17.5151 184.578 16.8538 184.537 16.8204C184.456 16.7537 184.415 16.6475 184.431 16.5444C184.446 16.4413 184.518 16.3533 184.618 16.3108C184.924 16.1834 185.296 15.328 185.449 14.7911C185.458 14.7608 185.471 14.7335 185.486 14.7092C185.689 14.4028 185.733 14.0176 185.614 13.5626C185.343 12.5191 184.275 11.3786 183.663 11.054C183.344 10.8841 182.976 10.6415 182.969 10.2441C182.96 9.73753 183.556 9.29162 184.662 8.64552C186.236 7.72944 185.187 5.26331 184.959 4.78101C184.728 4.28657 184.265 3.74056 183.797 3.71023C183.36 3.67989 182.972 4.11973 182.729 4.49284C182.498 4.84471 182.435 5.12984 182.548 5.33915C182.791 5.80628 183.825 5.96705 184.169 5.98829C184.212 5.98829 184.256 6.00345 184.297 6.02165C184.515 6.13389 184.881 6.44329 184.881 6.8983C184.881 7.4534 184.356 7.98424 183.285 8.52115C182.429 8.95189 181.689 9.02165 181.089 8.73348C180.471 8.43621 180.181 7.82954 180.056 7.4625C179.659 7.50497 179.234 7.41094 178.869 7.19253C178.382 6.90436 177.754 6.26432 177.532 4.86291C177.423 4.16827 177.561 3.59496 177.942 3.16422C178.394 2.64855 179.081 2.47565 179.5 2.41801C179.481 1.95087 179.659 1.13793 180.874 0.391724C181.417 0.0580538 181.954 -0.0450807 182.473 0.0853541C182.985 0.212756 183.357 0.543393 183.585 0.804262C183.972 0.428125 184.784 -0.102715 186.205 0.01862C187.763 0.149055 188.394 1.3988 188.553 2.22994C189.452 2.29668 190.826 2.82752 191.029 4.5353C191.245 6.35532 190.205 7.01963 189.699 7.23197C189.749 9.06109 188.263 9.44633 187.057 9.75573L187.013 9.76786C186.548 9.8892 186.489 9.9984 186.489 10.0014C186.489 10.0924 186.767 10.3563 186.914 10.4989L186.988 10.5717C187.176 10.7537 188.028 10.6142 188.797 10.3654C188.768 10.2411 188.756 10.0864 188.793 9.91043C188.9 9.37352 189.387 8.86392 190.236 8.39678C190.814 8.07828 191.398 8.00244 191.969 8.16928C192.806 8.41195 193.397 9.11872 193.678 9.52823C194.199 9.30982 194.989 9.49183 195.289 9.57676C195.964 9.46149 196.56 9.58283 197.057 9.93773C198.103 10.6809 198.427 12.2552 198.527 13.1258C198.562 13.4231 198.652 13.7962 198.887 13.8932C199.102 13.9842 199.483 13.8599 199.88 13.5687C200.785 12.9104 201.488 13.2896 202.394 14.1693C203.143 14.8973 204.539 14.2026 204.551 14.1966C204.67 14.1359 204.814 14.1571 204.911 14.2451C205.007 14.3331 205.035 14.4726 204.979 14.5909C204.511 15.595 203.396 15.962 202 15.5737C201.788 15.5161 201.494 15.4706 201.313 15.5889C201.16 15.689 201.135 15.8801 201.135 15.8801C201.132 15.9165 201.123 15.9529 201.104 15.9832C200.704 16.7901 200.161 17.2754 199.492 17.4241C198.73 17.5939 198.022 17.2694 197.669 17.0631C197.082 17.5515 196.307 17.3907 195.851 17.1753C195.167 17.4847 194.577 17.4999 194.096 17.2239C193.078 16.6384 193.022 14.9519 193.022 14.8791C193.019 14.7578 193.091 14.6455 193.203 14.597C193.315 14.5454 193.45 14.5666 193.543 14.6455C193.837 14.9003 194.321 14.9003 194.649 14.6455C195.058 14.327 195.061 13.7476 194.661 13.0591C194.455 12.7042 194.202 12.5131 193.893 12.4767C193.144 12.3887 192.188 13.2016 191.879 13.5232C191.804 13.599 191.695 13.6354 191.588 13.6142C191.482 13.5929 191.395 13.5201 191.357 13.42C191.245 13.1228 190.677 12.8437 190.139 12.9468C189.605 13.05 189.324 13.4959 189.352 14.2057C189.368 14.6304 189.505 14.9185 189.765 15.0884C190.336 15.4615 191.426 15.2067 191.795 15.0763C191.916 15.0338 192.054 15.0672 192.138 15.1642C192.222 15.2583 192.238 15.3948 192.179 15.504C191.754 16.2744 191.195 16.7173 190.517 16.8235C189.652 16.9569 188.825 16.4837 188.391 16.1683C187.985 16.8902 187.46 17.324 186.826 17.4665C186.673 17.4999 186.523 17.5151 186.38 17.5151H186.37ZM185.258 16.5687C185.589 16.7598 186.136 16.9964 186.682 16.872C187.21 16.7537 187.651 16.3139 187.991 15.5646C188.031 15.4736 188.116 15.4099 188.216 15.3887C188.316 15.3705 188.419 15.3978 188.494 15.4676C188.503 15.4767 189.477 16.3685 190.417 16.2229C190.686 16.1804 190.933 16.056 191.154 15.8467C190.614 15.9256 189.927 15.9256 189.415 15.5919C188.984 15.3098 188.75 14.8518 188.725 14.2269C188.684 13.2138 189.168 12.51 190.015 12.3493C190.648 12.2279 191.326 12.4433 191.701 12.8407C192.154 12.4463 193.075 11.7729 193.959 11.873C194.474 11.9307 194.892 12.231 195.198 12.7588C195.857 13.8902 195.545 14.7183 195.033 15.1187C194.655 15.413 194.149 15.504 193.703 15.3948C193.793 15.871 193.999 16.4655 194.408 16.6991C194.727 16.8811 195.164 16.8356 195.707 16.5626C195.804 16.5141 195.923 16.5171 196.014 16.5747C196.048 16.596 196.882 17.0752 197.372 16.4807C197.481 16.3503 197.675 16.329 197.809 16.4322C197.815 16.4382 198.577 17.0055 199.346 16.8326C199.808 16.7264 200.201 16.3685 200.51 15.7618C200.535 15.6223 200.629 15.3007 200.948 15.0884C201.254 14.8852 201.66 14.8518 202.159 14.9883C202.4 15.055 202.803 15.14 203.212 15.1066C202.771 15.0914 202.315 14.961 201.938 14.597C200.994 13.6809 200.682 13.7325 200.242 14.054C199.892 14.3088 199.218 14.7001 198.624 14.4483C198.215 14.2754 197.968 13.8538 197.893 13.1895C197.822 12.5677 197.559 11.054 196.676 10.4261C196.301 10.1592 195.857 10.0803 195.32 10.1834C195.267 10.1925 195.217 10.1895 195.167 10.1743C194.636 10.0136 193.956 9.96503 193.837 10.1349C193.774 10.2229 193.668 10.2744 193.559 10.2684C193.45 10.2623 193.35 10.2016 193.3 10.1046C193.294 10.0924 192.703 9.00952 191.779 8.74258C191.37 8.62428 190.964 8.68192 190.533 8.91852C189.88 9.27646 189.477 9.66169 189.399 10.0045C189.349 10.2168 189.446 10.3472 189.449 10.3533C189.505 10.4291 189.524 10.5292 189.496 10.6202C189.468 10.7112 189.402 10.7871 189.312 10.8204C188.812 11.0115 187.141 11.5818 186.536 10.9964L186.464 10.9266C186.12 10.596 185.764 10.2532 185.877 9.84066C185.986 9.44632 186.479 9.27646 186.845 9.18242L186.889 9.17029C188.128 8.84875 189.196 8.57272 189.056 7.04997C189.04 6.8983 189.146 6.75876 189.302 6.72539C189.352 6.71326 190.617 6.41296 190.402 4.60507C190.186 2.79112 188.359 2.82752 188.281 2.83055C188.119 2.82752 187.972 2.71225 187.96 2.55148C187.953 2.47868 187.785 0.761795 186.139 0.62226C184.425 0.479692 183.834 1.44127 183.828 1.45037C183.772 1.5444 183.659 1.60204 183.553 1.60204C183.441 1.60204 183.338 1.54137 183.282 1.4443C183.282 1.43824 182.916 0.819429 182.301 0.667761C181.958 0.582826 181.586 0.661694 181.196 0.90133C179.853 1.72337 180.131 2.54845 180.143 2.58485C180.178 2.67888 180.162 2.78202 180.103 2.86392C180.043 2.94279 179.95 2.99435 179.85 2.99435C179.85 2.99435 178.891 3.00649 178.401 3.56159C178.145 3.8528 178.054 4.25927 178.135 4.77191C178.319 5.94279 178.807 6.45239 179.181 6.67686C179.497 6.86493 179.868 6.91953 180.171 6.81943C180.259 6.79213 180.352 6.80123 180.43 6.84673C180.509 6.89223 180.562 6.96806 180.577 7.05603C180.577 7.0621 180.74 7.89324 181.361 8.19051C181.773 8.38768 182.32 8.31791 182.988 7.98121C184.153 7.39577 184.247 7.00143 184.247 6.89526C184.247 6.75269 184.112 6.63743 184.04 6.58586C183.675 6.55553 182.392 6.38869 181.986 5.61518C181.767 5.19961 181.839 4.71124 182.195 4.16523C182.682 3.41902 183.232 3.06109 183.834 3.10355C184.612 3.15512 185.227 3.90436 185.521 4.52924C185.892 5.32701 186.954 8.01154 184.977 9.16726C183.763 9.87403 183.585 10.1379 183.588 10.232C183.588 10.232 183.594 10.329 183.956 10.5201C184.668 10.8993 185.883 12.146 186.214 13.414C186.373 14.0206 186.311 14.5545 186.03 15.0004C185.949 15.2734 185.68 16.0955 185.249 16.5717L185.258 16.5687Z" fill="#D4D4D4"/>
<path d="M178.308 17.9997C177.418 17.9997 176.712 17.7691 176.206 17.3111C175.822 16.9622 175.632 16.5467 175.538 16.216C175.485 16.2464 175.429 16.2737 175.369 16.301C174.611 16.7984 173.449 17.3566 172.197 17.2474C171.556 17.1897 170.701 16.8227 169.711 16.398C167.74 15.5517 165.511 14.5932 164.567 15.8945C164.48 16.0158 164.311 16.0583 164.174 15.9916C164.037 15.9248 163.968 15.7701 164.015 15.6276C164.033 15.5639 164.533 14.1078 167.006 14.1078C167.515 14.1078 168.021 14.1564 168.508 14.2019C169.708 14.3141 170.754 14.4112 171.603 13.847C171.313 12.9279 171.634 12.1635 171.984 11.7085C171.494 11.4051 170.663 10.756 170.482 9.7853C170.326 8.93899 170.694 8.05931 171.578 7.17357C172.487 6.26356 173.443 5.83282 174.411 5.88742C175.404 5.94505 176.153 6.50623 176.544 6.8763C176.722 6.6397 177.006 6.36366 177.421 6.24232C177.943 6.09066 178.52 6.22716 179.136 6.64576C180.653 7.67711 180.079 9.55173 179.563 10.4011C179.504 10.4981 179.392 10.5527 179.279 10.5497C179.164 10.5436 179.061 10.4769 179.011 10.3738C178.879 10.1008 178.424 9.38186 177.896 9.31209C177.615 9.27569 177.315 9.43646 177.006 9.78833C176.637 10.21 176.503 10.5588 176.609 10.8257C176.822 11.3596 177.946 11.6144 178.32 11.6599C178.424 11.6721 178.514 11.7358 178.561 11.8268C178.608 11.9178 178.605 12.027 178.552 12.1149C178.036 12.9734 178.539 13.7074 179.126 14.0775C179.807 14.5052 180.778 14.5568 181.312 13.8318C181.509 13.5649 181.712 13.1918 181.584 12.9127C181.409 12.5335 180.678 12.3728 180.438 12.3485C180.294 12.3333 180.179 12.2241 180.163 12.0816C180.082 11.4233 180.41 10.7893 181.044 10.392C181.802 9.9127 182.802 9.8763 183.529 10.2979C184.017 10.58 184.807 11.3232 184.657 13.1311C184.541 14.5264 184.057 15.5214 183.22 16.0886C182.399 16.6468 181.456 16.6377 180.944 16.574C180.912 16.7529 180.834 16.9713 180.663 17.1867C180.297 17.6478 179.648 17.9178 178.73 17.9875C178.586 17.9997 178.445 18.0027 178.308 18.0027V17.9997ZM175.76 15.3333C175.794 15.3333 175.828 15.3394 175.86 15.3485C175.988 15.391 176.072 15.5062 176.072 15.6367C176.072 15.6427 176.078 16.3647 176.64 16.8712C177.09 17.2747 177.777 17.4445 178.683 17.3778C179.398 17.3232 179.91 17.1321 180.16 16.8227C180.378 16.5527 180.338 16.2706 180.335 16.2585C180.319 16.1554 180.357 16.0522 180.435 15.9825C180.513 15.9127 180.622 15.8854 180.725 15.9127C180.738 15.9157 181.934 16.2191 182.867 15.579C183.542 15.118 183.935 14.2747 184.035 13.0735C184.129 11.9754 183.835 11.1715 183.211 10.8106C182.683 10.5042 181.946 10.5376 181.384 10.8925C181.025 11.12 180.813 11.4354 180.781 11.7782C181.184 11.8601 181.896 12.0846 182.158 12.6518C182.358 13.0856 182.246 13.5982 181.824 14.1715C181.062 15.209 179.723 15.1604 178.792 14.575C178.033 14.0987 177.471 13.1796 177.836 12.1786C177.271 12.0512 176.316 11.7418 176.035 11.035C175.838 10.5436 176.006 9.98853 176.537 9.38489C176.993 8.86315 177.48 8.63262 177.986 8.69935C178.561 8.77519 178.995 9.21806 179.267 9.58813C179.526 8.94202 179.779 7.80754 178.783 7.1311C178.333 6.82473 177.939 6.71856 177.608 6.8126C177.128 6.9491 176.896 7.48297 176.893 7.486C176.85 7.58611 176.756 7.65891 176.643 7.67104C176.531 7.68621 176.422 7.64071 176.353 7.55274C176.347 7.54364 175.544 6.54263 174.37 6.47589C173.592 6.43039 172.802 6.8035 172.028 7.58004C171.291 8.31715 170.979 9.01786 171.097 9.66093C171.291 10.7196 172.599 11.3414 172.612 11.3475C172.709 11.393 172.774 11.4809 172.787 11.581C172.799 11.6842 172.762 11.7843 172.681 11.851C172.643 11.8814 171.772 12.6397 172.265 13.8288C172.315 13.9501 172.278 14.0927 172.175 14.1746C171.097 15.0391 169.754 14.9117 168.452 14.7904C167.978 14.7449 167.487 14.6994 167.009 14.6994C166.91 14.6994 166.813 14.6994 166.719 14.7085C167.775 14.8874 168.933 15.3849 169.967 15.8308C170.866 16.216 171.716 16.5831 172.256 16.6316C173.393 16.7347 174.492 16.1372 175.045 15.7732C175.06 15.7641 175.076 15.755 175.095 15.7459C175.36 15.6336 175.51 15.4456 175.513 15.4425C175.572 15.3667 175.666 15.3212 175.763 15.3212L175.76 15.3333Z" fill="#D4D4D4"/>
</g>
<defs>
<clipPath id="clip0_370_4758">
<rect width="54" height="54" fill="white" transform="translate(80 4)"/>
</clipPath>
<clipPath id="clip1_370_4758">
<rect width="33" height="15" fill="white" transform="translate(0 26)"/>
</clipPath>
<clipPath id="clip2_370_4758">
<rect width="41" height="18" fill="white" transform="translate(164)"/>
</clipPath>
</defs>
</svg>
