<svg width="1414" height="20" viewBox="0 0 1414 20" fill="none" xmlns="http://www.w3.org/2000/svg">
<g opacity="0.5">
<g clip-path="url(#clip0_375_4790)">
<path d="M13.7617 6.23926H0.640625V7.51622H12.4847V19.3608H13.7617V6.23926Z" fill="#86612E"/>
<path d="M7.51679 12.4824H20V20H0V0H7.51679V12.4824ZM1.27829 12.4824H6.23974V1.27697H1.27829V12.4824V12.4824ZM7.51679 18.7218H18.7217V13.7606H7.51679V18.7218ZM1.27829 18.7218H6.23974V13.7606H1.27829V18.7218V18.7218Z" fill="#86612E"/>
</g>
</g>
<g opacity="0.5" clip-path="url(#clip1_375_4790)">
<path d="M1400.24 6.23926H1413.36V7.51622H1401.52V19.3608H1400.24V6.23926Z" fill="#86612E"/>
<path d="M1406.48 12.4824H1394V20H1414V0H1406.48V12.4824ZM1412.72 12.4824H1407.76V1.27697H1412.72V12.4824V12.4824ZM1406.48 18.7218H1395.28V13.7606H1406.48V18.7218ZM1412.72 18.7218H1407.76V13.7606H1412.72V18.7218V18.7218Z" fill="#86612E"/>
</g>
<defs>
<clipPath id="clip0_375_4790">
<rect width="20" height="20" fill="white"/>
</clipPath>
<clipPath id="clip1_375_4790">
<rect width="20" height="20" fill="white" transform="matrix(-1 0 0 1 1414 0)"/>
</clipPath>
</defs>
</svg>
