<svg width="1415" height="20" viewBox="0 0 1415 20" fill="none" xmlns="http://www.w3.org/2000/svg">
<g opacity="0.5">
<g clip-path="url(#clip0_375_4820)">
<path d="M1401.24 13.7607L1414.36 13.7607L1414.36 12.4838L1402.52 12.4838L1402.52 0.639193L1401.24 0.639193L1401.24 13.7607Z" fill="#86612E"/>
<path d="M1407.48 7.51756L1395 7.51756L1395 -1.26647e-06L1415 4.81986e-07L1415 20L1407.48 20L1407.48 7.51756ZM1413.72 7.51756L1408.76 7.51756L1408.76 18.723L1413.72 18.723L1413.72 7.51756V7.51756ZM1407.48 1.27821L1396.28 1.27821L1396.28 6.23935L1407.48 6.23935L1407.48 1.27821ZM1413.72 1.27821L1408.76 1.27821L1408.76 6.23935L1413.72 6.23935L1413.72 1.27821V1.27821Z" fill="#86612E"/>
</g>
</g>
<g opacity="0.5" clip-path="url(#clip1_375_4820)">
<path d="M13.7617 13.7607L0.640625 13.7607L0.640625 12.4838L12.4847 12.4838L12.4847 0.639196L13.7617 0.639196L13.7617 13.7607Z" fill="#86612E"/>
<path d="M7.51679 7.51757L20 7.51757L20 3.9789e-06L3.49691e-06 4.81986e-07L0 20L7.51679 20L7.51679 7.51757ZM1.27829 7.51756L6.23974 7.51756L6.23974 18.723L1.27829 18.723L1.27829 7.51756V7.51756ZM7.51679 1.27821L18.7217 1.27821L18.7217 6.23936L7.51679 6.23936L7.51679 1.27821ZM1.27829 1.27821L6.23974 1.27821L6.23974 6.23936L1.27829 6.23935L1.27829 1.27821V1.27821Z" fill="#86612E"/>
</g>
<defs>
<clipPath id="clip0_375_4820">
<rect x="1415" y="20" width="20" height="20" transform="rotate(-180 1415 20)" fill="white"/>
</clipPath>
<clipPath id="clip1_375_4820">
<rect width="20" height="20" fill="white" transform="matrix(1 1.74846e-07 1.74846e-07 -1 0 20)"/>
</clipPath>
</defs>
</svg>
