<svg width="24" height="24" viewBox="0 0 24 24" fill="none" xmlns="http://www.w3.org/2000/svg">
<path fill-rule="evenodd" clip-rule="evenodd" d="M6.29279 9.30529C6.48031 9.11782 6.73462 9.0125 6.99979 9.0125C7.26495 9.0125 7.51926 9.11782 7.70679 9.30529L10.9998 12.5983L14.2928 9.30529C14.385 9.20978 14.4954 9.1336 14.6174 9.08119C14.7394 9.02878 14.8706 9.00119 15.0034 9.00004C15.1362 8.99888 15.2678 9.02419 15.3907 9.07447C15.5136 9.12475 15.6253 9.199 15.7192 9.29289C15.8131 9.38679 15.8873 9.49844 15.9376 9.62133C15.9879 9.74423 16.0132 9.87591 16.012 10.0087C16.0109 10.1415 15.9833 10.2727 15.9309 10.3947C15.8785 10.5167 15.8023 10.627 15.7068 10.7193L11.7068 14.7193C11.5193 14.9068 11.265 15.0121 10.9998 15.0121C10.7346 15.0121 10.4803 14.9068 10.2928 14.7193L6.29279 10.7193C6.10532 10.5318 6 10.2775 6 10.0123C6 9.74712 6.10532 9.49282 6.29279 9.30529V9.30529Z" fill="#222222"/>
</svg>
