<svg width="29" height="28" viewBox="0 0 29 28" fill="none" xmlns="http://www.w3.org/2000/svg">
<path d="M22.7074 20.1558L28.5456 25.8652L26.6168 27.7518L20.78 22.0412C18.6082 23.7441 15.907 24.6704 13.1235 24.6665C6.35165 24.6665 0.855652 19.2905 0.855652 12.6665C0.855652 6.0425 6.35165 0.666504 13.1235 0.666504C19.8954 0.666504 25.3914 6.0425 25.3914 12.6665C25.3953 15.3892 24.4484 18.0315 22.7074 20.1558ZM19.9731 19.1665C21.703 17.4264 22.6691 15.0937 22.6652 12.6665C22.6652 7.50917 18.3946 3.33317 13.1235 3.33317C7.85106 3.33317 3.58184 7.50917 3.58184 12.6665C3.58184 17.8225 7.85106 21.9998 13.1235 21.9998C15.6049 22.0037 17.9896 21.0587 19.7686 19.3665L19.9731 19.1665Z" fill="#3182F6"/>
</svg>
