<svg width="28" height="28" viewBox="0 0 28 28" fill="none" xmlns="http://www.w3.org/2000/svg">
<path d="M22.0414 20.1558L27.7521 25.8652L25.8654 27.7518L20.1561 22.0412C18.0317 23.7441 15.3894 24.6704 12.6667 24.6665C6.04275 24.6665 0.666748 19.2905 0.666748 12.6665C0.666748 6.0425 6.04275 0.666504 12.6667 0.666504C19.2907 0.666504 24.6667 6.0425 24.6667 12.6665C24.6706 15.3892 23.7444 18.0315 22.0414 20.1558ZM19.3667 19.1665C21.0589 17.4264 22.0039 15.0937 22.0001 12.6665C22.0001 7.50917 17.8227 3.33317 12.6667 3.33317C7.50941 3.33317 3.33341 7.50917 3.33341 12.6665C3.33341 17.8225 7.50941 21.9998 12.6667 21.9998C15.094 22.0037 17.4266 21.0587 19.1667 19.3665L19.3667 19.1665Z" fill="#222222"/>
</svg>
