<svg width="8" height="6" viewBox="0 0 8 6" fill="none" xmlns="http://www.w3.org/2000/svg">
<path fill-rule="evenodd" clip-rule="evenodd" d="M7.76553 5.16553C7.61551 5.3155 7.41207 5.39976 7.19994 5.39976C6.9878 5.39976 6.78436 5.3155 6.63434 5.16553L3.99994 2.53113L1.36554 5.16553C1.21465 5.31125 1.01257 5.39189 0.802814 5.39007C0.593057 5.38824 0.392407 5.30411 0.24408 5.15578C0.095754 5.00746 0.0116186 4.80681 0.00979587 4.59705C0.00797313 4.38729 0.088609 4.18521 0.234335 4.03433L3.43434 0.834327C3.58436 0.68435 3.7878 0.600098 3.99994 0.600098C4.21207 0.600098 4.41551 0.68435 4.56554 0.834327L7.76553 4.03433C7.91551 4.18435 7.99976 4.3878 7.99976 4.59993C7.99976 4.81206 7.91551 5.0155 7.76553 5.16553Z" fill="white" fill-opacity="0.8"/>
</svg>
