<svg width="12" height="12" viewBox="0 0 12 12" fill="none" xmlns="http://www.w3.org/2000/svg">
<path d="M11.25 6C11.25 7.39239 10.6969 8.72774 9.71231 9.71231C8.72774 10.6969 7.39239 11.25 6 11.25M11.25 6C11.25 4.60761 10.6969 3.27226 9.71231 2.28769C8.72774 1.30312 7.39239 0.75 6 0.75M11.25 6H0.75M6 11.25C4.60761 11.25 3.27226 10.6969 2.28769 9.71231C1.30312 8.72774 0.75 7.39239 0.75 6M6 11.25C6.96658 11.25 7.75 8.89917 7.75 6C7.75 3.10083 6.96658 0.75 6 0.75M6 11.25C5.03342 11.25 4.25 8.89917 4.25 6C4.25 3.10083 5.03342 0.75 6 0.75M0.75 6C0.75 4.60761 1.30312 3.27226 2.28769 2.28769C3.27226 1.30312 4.60761 0.75 6 0.75" stroke="white" stroke-linecap="round" stroke-linejoin="round"/>
</svg>
