<svg width="111" height="110" viewBox="0 0 111 110" fill="none" xmlns="http://www.w3.org/2000/svg">
<g opacity="0.3" clip-path="url(#clip0_315_4044)">
<path d="M101.481 31.6338L80.9842 99.679L27.5305 85.1525V110H110.022V31.6338H101.481Z" fill="#CA8A40"/>
<path d="M80.9842 101.399C80.7832 101.399 80.6828 101.399 80.4818 101.303L1.3061 79.7046C0.401814 79.4179 -0.201047 78.5578 0.100384 77.6021L22.8081 2.29368C23.1096 1.43355 24.0139 0.860139 25.0186 1.14685L104.295 22.7455C104.697 22.841 105.099 23.1277 105.3 23.51C105.501 23.8923 105.601 24.3701 105.501 24.7524L82.7928 100.156C82.6923 100.539 82.3909 100.921 81.989 101.112C81.5871 101.303 81.2856 101.399 80.9842 101.399ZM3.9185 76.9331L79.7785 97.576L101.481 25.4214L25.6215 4.77847L3.9185 76.9331Z" fill="#CA8A40"/>
<path d="M16.8725 59.6022L13.0815 72.1885L74.7049 88.9805L78.4959 76.3942L16.8725 59.6022Z" fill="#CA8A40"/>
<path d="M68.6255 47.593C68.4245 47.593 68.3241 47.593 68.1231 47.4975L41.6977 40.3298C40.7934 40.0431 40.1906 39.183 40.492 38.2273C40.7934 37.3671 41.6977 36.7937 42.7025 37.0804L69.1279 44.2481C70.0322 44.5348 70.635 45.395 70.3336 46.3506C70.1326 47.1152 69.4293 47.593 68.6255 47.593Z" fill="#CA8A40"/>
<path d="M71.0369 57.3412C70.8359 57.3412 70.7355 57.3412 70.5345 57.2457L34.2624 47.4021C33.3581 47.1153 32.7553 46.2552 33.0567 45.2995C33.3581 44.4394 34.2624 43.866 35.2672 44.1527L71.6398 54.0919C72.5441 54.3786 73.1469 55.2387 72.8455 56.1944C72.5441 56.8634 71.8407 57.3412 71.0369 57.3412Z" fill="#CA8A40"/>
<path d="M63.6018 64.3176C63.4009 64.3176 63.3004 64.3176 63.0994 64.2221L36.674 57.0544C35.7697 56.7677 35.1669 55.9076 35.4683 54.9519C35.7697 54.0918 36.674 53.5183 37.6788 53.805L64.1042 60.9727C65.0085 61.2594 65.6113 62.1196 65.3099 63.0752C65.0085 63.8398 64.3051 64.3176 63.6018 64.3176Z" fill="#CA8A40"/>
<path d="M61.6925 35.6473C56.3673 35.6473 51.9463 31.5378 51.9463 26.3771C51.9463 25.4214 52.7501 24.6568 53.7549 24.6568C54.7596 24.6568 55.5634 25.4214 55.5634 26.3771C55.5634 29.6264 58.3768 32.3023 61.793 32.3023C65.2092 32.3023 68.0226 29.6264 68.0226 26.3771V9.2702C68.0226 6.02085 65.2092 3.34492 61.793 3.34492C58.3768 3.34492 55.5634 6.02085 55.5634 9.2702C55.5634 10.2259 54.7596 10.9904 53.7549 10.9904C52.7501 10.9904 51.9463 10.2259 51.9463 9.2702C51.9463 4.20504 56.2668 0 61.6925 0C67.0178 0 71.3383 4.10947 71.3383 9.2702V26.3771C71.3383 31.4422 67.0178 35.6473 61.6925 35.6473Z" fill="#CA8A40"/>
</g>
<defs>
<clipPath id="clip0_315_4044">
<rect width="110" height="110" fill="white" transform="translate(0.0219727)"/>
</clipPath>
</defs>
</svg>
