<svg width="110" height="110" viewBox="0 0 110 110" fill="none" xmlns="http://www.w3.org/2000/svg">
<g opacity="0.3">
<path d="M46.1453 54.5869C46.1453 59.3762 50.0638 63.2947 54.8531 63.2947C59.6424 63.2947 63.5609 59.3762 63.5609 54.5869H46.1453Z" fill="#686AB1"/>
<path d="M19.0643 66.6035C19.0643 66.6035 44.9265 68.5192 53.4602 85.5865C53.4602 85.5865 38.4827 72.9602 17.3228 72.0894L19.0643 66.6035Z" fill="#686AB1"/>
<path d="M90.7296 66.6035C90.7296 66.6035 64.7803 68.5192 56.3337 85.5865C56.3337 85.5865 71.3983 72.9602 92.4712 72.0894L90.7296 66.6035Z" fill="#686AB1"/>
<path d="M72.2689 30.2919C72.2689 20.278 64.519 12.1797 54.9404 12.1797C45.623 12.1797 37.9601 19.8426 37.6118 29.5082C43.0107 29.3341 52.1539 27.7667 57.901 20.7133C57.901 20.7133 63.0386 29.6824 72.1818 32.3818C72.1818 31.6852 72.2689 30.9886 72.2689 30.2919Z" fill="#686AB1"/>
<path d="M54.8536 100.912C53.9828 100.912 53.2862 100.215 53.2862 99.3445V89.9401L7.04773 79.839V99.3445C7.04773 100.215 6.35111 100.912 5.48033 100.912C4.60955 100.912 4 100.215 4 99.3445V78.0104C4 77.575 4.17416 77.1396 4.60955 76.7913C4.95786 76.5301 5.48033 76.3559 5.91572 76.5301L55.289 87.2407C55.9856 87.4148 56.5081 88.0244 56.5081 88.721V99.4316C56.421 100.215 55.7244 100.912 54.8536 100.912Z" fill="#686AB1"/>
<path d="M104.227 100.912C103.356 100.912 102.66 100.215 102.66 99.3444V79.8389L56.4212 89.9399V99.4314C56.4212 100.302 55.7246 100.999 54.8538 100.999C53.983 100.999 53.2864 100.302 53.2864 99.4314V88.6337C53.2864 87.9371 53.8088 87.3276 54.5055 87.1534L103.879 76.4428C104.314 76.3557 104.837 76.4428 105.185 76.704C105.533 76.9653 105.794 77.4007 105.794 77.9231V99.3444C105.794 100.215 105.098 100.912 104.227 100.912Z" fill="#686AB1"/>
<path d="M54.9404 90.2026C54.5051 90.2026 54.0697 90.0284 53.7214 89.5931C53.5472 89.3318 40.8338 73.3094 13.23 73.3094C13.0559 73.3094 12.8817 73.3094 12.7076 73.3094V78.0117C12.7076 78.8824 12.0109 79.5791 11.1402 79.5791C10.2694 79.5791 9.57275 78.8824 9.57275 78.0117V71.8291C9.57275 71.0454 10.2694 70.3488 11.0531 70.3488C41.7046 69.5651 55.3758 87.0678 55.9854 87.8515C56.5079 88.5481 56.3337 89.506 55.7242 90.0284C55.55 90.1155 55.2888 90.2026 54.9404 90.2026Z" fill="#686AB1"/>
<path d="M54.8536 90.202C54.5052 90.202 54.244 90.1149 53.8957 89.8536C53.1991 89.3312 53.112 88.3733 53.6345 87.6767C54.244 86.893 67.9153 69.3903 98.5668 70.174C99.3505 70.174 100.047 70.8706 100.047 71.6543V77.8369C100.047 78.7076 99.3505 79.4043 98.4797 79.4043C97.6089 79.4043 96.9994 78.7076 96.9994 77.8369V73.1346C96.8252 73.1346 96.651 73.1346 96.4769 73.1346C68.699 73.1346 56.1597 89.2441 56.0726 89.4182C55.8114 90.0278 55.2889 90.202 54.8536 90.202Z" fill="#686AB1"/>
<path d="M91.9487 72.873C91.0779 72.873 90.3813 72.1764 90.3813 71.3056C90.3813 62.4237 83.1538 55.1962 74.2719 55.1962H35.435C26.553 55.1962 19.3256 62.4237 19.3256 71.3056C19.3256 72.1764 18.6289 72.873 17.8452 72.873C16.9745 72.873 16.2778 72.1764 16.2778 71.3056C16.2778 60.7692 24.8986 52.1484 35.435 52.1484H74.3589C84.8954 52.1484 93.5161 60.7692 93.5161 71.3056C93.5161 72.1764 92.8195 72.873 91.9487 72.873Z" fill="#686AB1"/>
<path d="M54.8532 49.8844C44.4039 49.8844 35.9573 41.0895 35.9573 30.2918C35.9573 19.4941 44.4909 10.6992 54.8532 10.6992C65.3026 10.6992 73.7492 19.4941 73.7492 30.2918C73.7492 41.0895 65.3026 49.8844 54.8532 49.8844ZM54.8532 13.747C46.1454 13.747 39.005 21.1486 39.005 30.2918C39.005 39.435 46.1454 46.8366 54.8532 46.8366C63.561 46.8366 70.7014 39.435 70.7014 30.2918C70.7014 21.1486 63.6481 13.747 54.8532 13.747Z" fill="#686AB1"/>
</g>
</svg>
