<svg width="118" height="118" viewBox="0 0 118 118" fill="none" xmlns="http://www.w3.org/2000/svg">
<g opacity="0.3" clip-path="url(#clip0_400_2603)">
<path d="M49.4004 57.4004C49.4004 62.9004 53.9004 67.4004 59.4004 67.4004C64.9004 67.4004 69.4004 62.9004 69.4004 57.4004H49.4004Z" fill="#686AB1"/>
<path d="M18.2998 71.1992C18.2998 71.1992 47.9998 73.3992 57.7998 92.9992C57.7998 92.9992 40.5998 78.4992 16.2998 77.4992L18.2998 71.1992Z" fill="#686AB1"/>
<path d="M100.6 71.1992C100.6 71.1992 70.7996 73.3992 61.0996 92.9992C61.0996 92.9992 78.3996 78.4992 102.6 77.4992L100.6 71.1992Z" fill="#686AB1"/>
<path d="M79.3996 29.4992C79.3996 17.9992 70.4996 8.69922 59.4996 8.69922C48.7996 8.69922 39.9996 17.4992 39.5996 28.5992C45.7996 28.3992 56.2996 26.5992 62.8996 18.4992C62.8996 18.4992 68.7996 28.7992 79.2996 31.8992C79.2996 31.0992 79.3996 30.2992 79.3996 29.4992Z" fill="#686AB1"/>
<path d="M59.4 110.598C58.4 110.598 57.6 109.798 57.6 108.798V97.9981L4.5 86.3981V108.798C4.5 109.798 3.7 110.598 2.7 110.598C1.7 110.598 1 109.798 1 108.798V84.2981C1 83.7981 1.2 83.2981 1.7 82.8981C2.1 82.5981 2.7 82.3981 3.2 82.5981L59.9 94.8981C60.7 95.0981 61.3 95.7981 61.3 96.5981V108.898C61.2 109.798 60.4 110.598 59.4 110.598Z" fill="white"/>
<path d="M116.1 110.598C115.1 110.598 114.3 109.798 114.3 108.798V86.3984L61.1996 97.9984V108.898C61.1996 109.898 60.3996 110.698 59.3996 110.698C58.3996 110.698 57.5996 109.898 57.5996 108.898V96.4984C57.5996 95.6984 58.1996 94.9984 58.9996 94.7984L115.7 82.4984C116.2 82.3984 116.8 82.4984 117.2 82.7984C117.6 83.0984 117.9 83.5984 117.9 84.1984V108.798C117.9 109.798 117.1 110.598 116.1 110.598Z" fill="white"/>
<path d="M59.5004 98.2981C59.0004 98.2981 58.5004 98.0981 58.1004 97.5981C57.9004 97.2981 43.3004 78.8981 11.6004 78.8981C11.4004 78.8981 11.2004 78.8981 11.0004 78.8981V84.2981C11.0004 85.2981 10.2004 86.0981 9.20039 86.0981C8.20039 86.0981 7.40039 85.2981 7.40039 84.2981V77.1981C7.40039 76.2981 8.20039 75.4981 9.10039 75.4981C44.3004 74.5981 60.0004 94.6981 60.7004 95.5981C61.3004 96.3981 61.1004 97.4981 60.4004 98.0981C60.2004 98.1981 59.9004 98.2981 59.5004 98.2981Z" fill="white"/>
<path d="M59.401 98.2989C59.001 98.2989 58.7009 98.1989 58.3009 97.8989C57.5009 97.2989 57.4009 96.1989 58.0009 95.3989C58.7009 94.4989 74.4009 74.3989 109.601 75.2989C110.501 75.2989 111.301 76.0989 111.301 76.9989V84.0989C111.301 85.0989 110.501 85.8989 109.501 85.8989C108.501 85.8989 107.801 85.0989 107.801 84.0989V78.6989C107.601 78.6989 107.401 78.6989 107.201 78.6989C75.3009 78.6989 60.9009 97.1989 60.8009 97.3989C60.5009 98.0989 59.901 98.2989 59.401 98.2989Z" fill="white"/>
<path d="M102 78.3996C101 78.3996 100.2 77.5996 100.2 76.5996C100.2 66.3996 91.8996 58.0996 81.6996 58.0996H37.0996C26.8996 58.0996 18.5996 66.3996 18.5996 76.5996C18.5996 77.5996 17.7996 78.3996 16.8996 78.3996C15.8996 78.3996 15.0996 77.5996 15.0996 76.5996C15.0996 64.4996 24.9996 54.5996 37.0996 54.5996H81.7996C93.8996 54.5996 103.8 64.4996 103.8 76.5996C103.8 77.5996 103 78.3996 102 78.3996Z" fill="white"/>
<path d="M59.4002 52C47.4002 52 37.7002 41.9 37.7002 29.5C37.7002 17.1 47.5002 7 59.4002 7C71.4002 7 81.1002 17.1 81.1002 29.5C81.1002 41.9 71.4002 52 59.4002 52ZM59.4002 10.5C49.4002 10.5 41.2002 19 41.2002 29.5C41.2002 40 49.4002 48.5 59.4002 48.5C69.4002 48.5 77.6002 40 77.6002 29.5C77.6002 19 69.5002 10.5 59.4002 10.5Z" fill="white"/>
</g>
<defs>
<clipPath id="clip0_400_2603">
<rect width="116.9" height="103.6" fill="white" transform="translate(1 7)"/>
</clipPath>
</defs>
</svg>
