<svg width="118" height="118" viewBox="0 0 118 118" fill="none" xmlns="http://www.w3.org/2000/svg">
<g opacity="0.3" clip-path="url(#clip0_400_2604)">
<path d="M69.6004 11.9997C65.9004 11.7997 62.4004 12.8997 59.5004 14.7997C56.5004 12.7997 53.1004 11.7997 49.4004 11.9997C39.4004 12.4997 31.8004 21.9997 32.4004 33.0997C33.0004 44.2997 41.9004 59.3997 51.9004 58.8997H67.1004C77.1004 59.3997 86.0004 44.1997 86.6004 33.0997C87.1004 21.9997 79.5004 12.4997 69.6004 11.9997Z" fill="#9687EE"/>
<path d="M116.2 105H2.7998V113H116.2V105Z" fill="#9687EE"/>
<path d="M116.1 114.801H2.8C1.8 114.801 1 114.001 1 113.001V88.6008C1 87.6008 1.8 86.8008 2.8 86.8008H116.2C117.2 86.8008 118 87.6008 118 88.6008V113.101C117.9 114.001 117.1 114.801 116.1 114.801ZM4.5 111.301H114.4V90.3008H4.5V111.301Z" fill="white"/>
<path d="M74.3 113.6C73.3 113.6 72.5 112.8 72.5 111.8V89.8C72.5 88.8 73.3 88 74.3 88C75.3 88 76.1 88.8 76.1 89.8V111.9C76.1 112.8 75.3 113.6 74.3 113.6Z" fill="white"/>
<path d="M41.7996 106.301H11.8996C10.8996 106.301 10.0996 105.501 10.0996 104.501V97.0012C10.0996 96.0012 10.8996 95.2012 11.8996 95.2012H41.7996C42.7996 95.2012 43.5996 96.0012 43.5996 97.0012V104.501C43.5996 105.501 42.7996 106.301 41.7996 106.301ZM13.5996 102.801H39.9996V98.8012H13.5996V102.801Z" fill="white"/>
<path d="M99 90.3008H18C8.6 90.3008 1 82.7008 1 73.3008C1 63.9008 8.6 56.3008 18 56.3008H99C101.9 56.3008 104.2 58.7008 104.2 61.5008C104.2 64.4008 101.8 66.7008 99 66.7008H18C14.4 66.7008 11.5 69.6008 11.5 73.2008C11.5 76.8008 14.4 79.7008 18 79.7008H99C101.9 79.7008 104.2 82.1008 104.2 84.9008C104.2 87.9008 101.9 90.3008 99 90.3008ZM18 59.8008C10.6 59.8008 4.5 65.9008 4.5 73.3008C4.5 80.7008 10.6 86.8008 18 86.8008H99C100 86.8008 100.8 86.0008 100.8 85.0008C100.8 84.0008 100 83.2008 99 83.2008H18C12.5 83.2008 8 78.7008 8 73.2008C8 67.7008 12.5 63.2008 18 63.2008H99C100 63.2008 100.8 62.4008 100.8 61.4008C100.8 60.4008 100 59.6008 99 59.6008H18V59.8008Z" fill="white"/>
<path d="M96.8 82.6C95.8 82.6 95 81.8 95 80.8V65.8C95 64.8 95.8 64 96.8 64C97.8 64 98.6 64.8 98.6 65.8V80.8C98.5 81.8 97.7 82.6 96.8 82.6Z" fill="white"/>
<path d="M69 72.2012V100.201L77.8 95.6012L86.5 100.201V72.2012H69Z" fill="#9687EE"/>
<path d="M86.5004 101.901C86.2004 101.901 85.9004 101.801 85.7004 101.701L77.8004 97.6008L69.9004 101.701C69.4004 102.001 68.7004 102.001 68.2004 101.601C67.7004 101.301 67.4004 100.701 67.4004 100.101V72.1008C67.4004 71.1008 68.2004 70.3008 69.2004 70.3008H86.6004C87.6004 70.3008 88.4004 71.1008 88.4004 72.1008V100.101C88.4004 100.701 88.1004 101.301 87.6004 101.601C87.1004 101.801 86.8004 101.901 86.5004 101.901ZM77.8004 93.9008C78.1004 93.9008 78.4004 94.0008 78.6004 94.1008L84.7004 97.3008V73.9008H70.8004V97.3008L76.9004 94.1008C77.2004 94.0008 77.5004 93.9008 77.8004 93.9008Z" fill="white"/>
<path d="M59.4008 22.8996C56.4008 22.8996 53.4008 21.7996 51.2008 19.4996C50.5008 18.7996 50.5008 17.6996 51.2008 16.9996C51.9008 16.2996 53.0008 16.2996 53.7008 16.9996C56.9008 20.1996 62.0008 20.1996 65.2008 16.9996C65.9008 16.2996 67.0008 16.2996 67.7008 16.9996C68.4008 17.6996 68.4008 18.7996 67.7008 19.4996C65.4008 21.7996 62.4008 22.8996 59.4008 22.8996Z" fill="white"/>
<path d="M59.3996 21.4C58.4996 21.4 57.6996 20.7 57.6996 19.8C57.6996 19.4 56.7996 8.8 63.5996 4.2C64.3996 3.8 65.4996 4 65.9996 4.8C66.4996 5.6 66.2996 6.7 65.4996 7.2C60.3996 10.6 61.0996 19.5 61.0996 19.5C61.1996 20.5 60.4996 21.3 59.4996 21.4C59.4996 21.4 59.4996 21.4 59.3996 21.4Z" fill="white"/>
</g>
<defs>
<clipPath id="clip0_400_2604">
<rect width="116.9" height="110.8" fill="white" transform="translate(1 4)"/>
</clipPath>
</defs>
</svg>
