<svg width="35" height="53" viewBox="0 0 35 53" fill="none" xmlns="http://www.w3.org/2000/svg">
<g style="mix-blend-mode:multiply" filter="url(#filter0_f)">
<ellipse cx="17.5" cy="46" rx="13.5" ry="3" fill="#0E0000" fill-opacity="0.5"/>
</g>
<path d="M18 0C8.61043 0 1 7.66899 1 17.1275C1 26.586 18 45 18 45C18 45 35 26.586 35 17.1275C35 7.66899 27.3896 0 18 0ZM18 24.0671C14.1955 24.0671 11.1121 20.9605 11.1121 17.1275C11.1121 13.2945 14.1955 10.1879 18 10.1879C21.8045 10.1879 24.8879 13.2945 24.8879 17.1275C24.8879 20.9605 21.8045 24.0671 18 24.0671Z" fill="#0F3192"/>
<circle cx="18" cy="17" r="7" fill="white"/>
<defs>
<filter id="filter0_f" x="0" y="39" width="35" height="14" filterUnits="userSpaceOnUse" color-interpolation-filters="sRGB">
<feFlood flood-opacity="0" result="BackgroundImageFix"/>
<feBlend mode="normal" in="SourceGraphic" in2="BackgroundImageFix" result="shape"/>
<feGaussianBlur stdDeviation="2" result="effect1_foregroundBlur"/>
</filter>
</defs>
</svg>
