<svg width="18" height="18" viewBox="0 0 18 18" fill="none" xmlns="http://www.w3.org/2000/svg">
<path d="M16.6998 10.1933V9.69331H15.6998V10.1933H16.6998ZM8.9998 3.498H9.4998V2.498H8.9998V3.498ZM10.1998 2.998L10.5532 3.35166L10.9071 2.99799L10.5532 2.64433L10.1998 2.998ZM15.6998 10.1933C15.6998 13.8899 12.6996 16.8886 8.9998 16.8886V17.8886C13.2512 17.8886 16.6998 14.4428 16.6998 10.1933H15.6998ZM8.9998 16.8886C5.30004 16.8886 2.2998 13.8899 2.2998 10.1933H1.2998C1.2998 14.4428 4.74837 17.8886 8.9998 17.8886V16.8886ZM2.2998 10.1933C2.2998 6.49675 5.30004 3.498 8.9998 3.498V2.498C4.74837 2.498 1.2998 5.94385 1.2998 10.1933H2.2998ZM7.44637 0.953281L9.84637 3.35167L10.5532 2.64433L8.15324 0.245937L7.44637 0.953281ZM9.84636 2.64434L7.44636 5.04287L8.15325 5.75019L10.5532 3.35166L9.84636 2.64434Z" fill="#5D6064"/>
</svg>
