<svg width="15" height="16" viewBox="0 0 15 16" fill="none" xmlns="http://www.w3.org/2000/svg">
<path d="M10.5 3.5C9.67157 3.5 9 4.17157 9 5C9 5.82843 9.67157 6.5 10.5 6.5C11.3284 6.5 12 5.82843 12 5C12 4.17157 11.3284 3.5 10.5 3.5Z" fill="#014F86"/>
<path fill-rule="evenodd" clip-rule="evenodd" d="M0 2C0 1.17157 0.671573 0.5 1.5 0.5H13.5C14.3284 0.5 15 1.17157 15 2V14C15 14.1035 14.9895 14.2047 14.9695 14.3023C14.9399 14.4468 14.8896 14.5838 14.8217 14.7099C14.5685 15.1803 14.0716 15.5 13.5 15.5H1.5C0.671573 15.5 0 14.8284 0 14V2ZM4.84923 3.64214L4.5 3.29291L1 6.79291V2C1 1.72386 1.22386 1.5 1.5 1.5H13.5C13.7761 1.5 14 1.72386 14 2V10.5H11.7071L4.85359 3.64645C4.85215 3.645 4.85069 3.64357 4.84923 3.64214Z" fill="#014F86"/>
</svg>
