<svg width="13" height="14" viewBox="0 0 13 14" fill="none" xmlns="http://www.w3.org/2000/svg">
<path d="M9 1C9 0.81989 8.90313 0.653698 8.74641 0.564936C8.58969 0.476173 8.39735 0.478558 8.24288 0.57118L3.36159 3.49804H1.5C0.672491 3.49804 0 4.16798 0 4.99739V8.99479C0 9.8242 0.672491 10.4941 1.5 10.4941H3.36159L8.24288 13.421C8.39735 13.5136 8.58969 13.516 8.74641 13.4272C8.90313 13.3385 9 13.1723 9 12.9922V1Z" fill="#5D6064"/>
<path d="M12 3.5V10.5H13V3.5H12Z" fill="#5D6064"/>
<path d="M10 5.5V8.5H11V5.5H10Z" fill="#5D6064"/>
</svg>
