<svg width="15" height="16" viewBox="0 0 15 16" fill="none" xmlns="http://www.w3.org/2000/svg">
<path fill-rule="evenodd" clip-rule="evenodd" d="M0 8C0 3.85786 3.35786 0.5 7.5 0.5C11.6421 0.5 15 3.85786 15 8C15 12.1421 11.6421 15.5 7.5 15.5C3.35786 15.5 0 12.1421 0 8ZM6.24904 5.56754C6.40319 5.47808 6.59332 5.47745 6.74807 5.56588L10.2481 7.56588C10.4039 7.6549 10.5 7.82057 10.5 8C10.5 8.17943 10.4039 8.3451 10.2481 8.43412L6.74807 10.4341C6.59332 10.5226 6.40319 10.5219 6.24904 10.4325C6.09488 10.343 6 10.1782 6 10V6C6 5.82176 6.09488 5.65701 6.24904 5.56754Z" fill="white"/>
</svg>
