<svg width="1086" height="43" viewBox="0 0 1086 43" fill="none" xmlns="http://www.w3.org/2000/svg">
<path d="M1048.85 25.8445H1021.46C1020.37 25.7879 1019.35 25.3164 1018.6 24.5271C1017.85 23.7379 1017.43 22.691 1017.43 21.6028C1017.43 20.5145 1017.85 19.4678 1018.6 18.6786C1019.35 17.8893 1020.37 17.4178 1021.46 17.3612H1048.85C1049.43 17.3313 1050 17.4187 1050.54 17.6183C1051.08 17.818 1051.58 18.1256 1052 18.5225C1052.41 18.9193 1052.75 19.397 1052.97 19.9266C1053.2 20.4561 1053.32 21.0264 1053.32 21.6028C1053.32 22.1791 1053.2 22.7496 1052.97 23.2791C1052.75 23.8087 1052.41 24.2864 1052 24.6832C1051.58 25.0801 1051.08 25.3876 1050.54 25.5872C1050 25.7868 1049.43 25.8744 1048.85 25.8445V25.8445Z" fill="#5E4F44"/>
<path d="M1072.01 35.644C1079.74 31.5819 1082.71 22.0244 1078.64 14.2969C1074.58 6.56938 1065.03 3.59817 1057.3 7.66036C1049.57 11.7226 1046.6 21.2799 1050.66 29.0074C1054.72 36.7349 1064.28 39.7062 1072.01 35.644Z" fill="#564C44"/>
<path d="M59.9048 25.8445H32.5032C31.4164 25.7879 30.3928 25.3164 29.6436 24.5271C28.8943 23.7379 28.4766 22.691 28.4766 21.6028C28.4766 20.5145 28.8943 19.4678 29.6436 18.6786C30.3928 17.8893 31.4164 17.4178 32.5032 17.3612H59.9048C60.4804 17.3313 61.056 17.4187 61.5967 17.6183C62.1374 17.818 62.6318 18.1256 63.0498 18.5225C63.4678 18.9193 63.8007 19.397 64.0282 19.9266C64.2556 20.4561 64.3729 21.0264 64.3729 21.6028C64.3729 22.1791 64.2556 22.7496 64.0282 23.2791C63.8007 23.8087 63.4678 24.2864 63.0498 24.6832C62.6318 25.0801 62.1374 25.3876 61.5967 25.5872C61.056 25.7868 60.4804 25.8744 59.9048 25.8445V25.8445Z" fill="#5E4F44"/>
<path d="M0.900395 21.608C0.898124 18.4806 1.82355 15.4228 3.5596 12.8215C5.29565 10.2202 7.76429 8.1924 10.6532 6.99455C13.542 5.7967 16.7213 5.48267 19.7887 6.09224C22.856 6.70181 25.6737 8.20756 27.8851 10.419C30.0964 12.6304 31.6022 15.4481 32.2117 18.5155C32.8213 21.5829 32.5073 24.7621 31.3094 27.651C30.1116 30.5399 28.0838 33.0087 25.4825 34.7448C22.8813 36.4808 19.8235 37.4062 16.6962 37.4039C12.5069 37.4039 8.48914 35.7398 5.52685 32.7775C2.56457 29.8151 0.900395 25.7973 0.900395 21.608Z" fill="#564C44"/>
<path d="M1019.7 37.0122H61.6499C57.5539 37.0092 53.6267 35.3799 50.7315 32.4825C47.8363 29.5851 46.21 25.6568 46.21 21.5609V21.5609C46.2085 19.5323 46.6067 17.5233 47.3819 15.6488C48.1572 13.7742 49.2943 12.0707 50.7281 10.6357C52.162 9.20078 53.8646 8.06242 55.7386 7.28577C57.6126 6.50912 59.6213 6.10937 61.6499 6.10938H1019.7C1023.8 6.10938 1027.73 7.73733 1030.63 10.635C1033.53 13.5327 1035.16 17.4629 1035.16 21.5609V21.5609C1035.16 25.6588 1033.53 29.5889 1030.63 32.4866C1027.73 35.3842 1023.8 37.0122 1019.7 37.0122V37.0122Z" fill="#BDB39B"/>
</svg>
