<svg width="1083" height="225" viewBox="0 0 1083 225" fill="none" xmlns="http://www.w3.org/2000/svg">
<path d="M1048.85 150.606H1021.46C1020.37 150.55 1019.35 150.078 1018.6 149.289C1017.85 148.5 1017.43 147.453 1017.43 146.365C1017.43 145.276 1017.85 144.23 1018.6 143.44C1019.35 142.651 1020.37 142.179 1021.46 142.123H1048.85C1049.43 142.093 1050 142.18 1050.54 142.38C1051.08 142.58 1051.58 142.887 1052 143.284C1052.41 143.681 1052.75 144.159 1052.97 144.688C1053.2 145.218 1053.32 145.788 1053.32 146.365C1053.32 146.941 1053.2 147.511 1052.97 148.041C1052.75 148.57 1052.41 149.048 1052 149.445C1051.58 149.842 1051.08 150.149 1050.54 150.349C1050 150.549 1049.43 150.636 1048.85 150.606V150.606Z" fill="#5E4F44"/>
<path d="M1080.18 149.154C1081.72 140.562 1076.01 132.343 1067.42 130.797C1058.83 129.251 1050.61 134.964 1049.06 143.556C1047.52 152.148 1053.23 160.367 1061.82 161.913C1070.41 163.458 1078.63 157.746 1080.18 149.154Z" fill="#564C44"/>
<path d="M59.9048 150.606H32.5032C31.4164 150.55 30.3928 150.078 29.6436 149.289C28.8943 148.5 28.4766 147.453 28.4766 146.365C28.4766 145.276 28.8943 144.23 29.6436 143.44C30.3928 142.651 31.4164 142.179 32.5032 142.123H59.9048C60.4804 142.093 61.056 142.18 61.5967 142.38C62.1374 142.58 62.6318 142.887 63.0498 143.284C63.4678 143.681 63.8007 144.159 64.0282 144.688C64.2556 145.218 64.3729 145.788 64.3729 146.365C64.3729 146.941 64.2556 147.511 64.0282 148.041C63.8007 148.57 63.4678 149.048 63.0498 149.445C62.6318 149.842 62.1374 150.149 61.5967 150.349C61.056 150.549 60.4804 150.636 59.9048 150.606V150.606Z" fill="#5E4F44"/>
<path d="M16.7076 162.177C25.4377 162.177 32.5149 155.1 32.5149 146.37C32.5149 137.64 25.4377 130.562 16.7076 130.562C7.97754 130.562 0.900391 137.64 0.900391 146.37C0.900391 155.1 7.97754 162.177 16.7076 162.177Z" fill="#564C44"/>
<path d="M1017.51 161.809H59.4573C55.3593 161.809 51.4292 160.182 48.5315 157.284C45.6338 154.386 44.0059 150.456 44.0059 146.358V146.358C44.0089 142.262 45.6382 138.335 48.5355 135.44C51.4329 132.544 55.3613 130.918 59.4573 130.918H1017.51C1021.61 130.918 1025.54 132.544 1028.43 135.44C1031.33 138.335 1032.96 142.262 1032.96 146.358V146.358C1032.96 150.456 1031.34 154.386 1028.44 157.284C1025.54 160.182 1021.61 161.809 1017.51 161.809V161.809Z" fill="#BDB39B"/>
<g clip-path="url(#clip0_150_4259)">
<path d="M541.621 0H544.386V82.2139C544.386 82.507 544.35 82.7973 544.28 83.068C544.211 83.3387 544.109 83.5845 543.98 83.7914C543.851 83.9982 543.698 84.1619 543.53 84.2731C543.362 84.3844 543.182 84.4409 543 84.4395V84.4395C542.635 84.4395 542.284 84.205 542.025 83.7876C541.766 83.3702 541.621 82.8041 541.621 82.2139V0Z" fill="#403323"/>
<path d="M551.25 90.0162C551.25 91.6557 550.766 93.2584 549.859 94.6216C548.953 95.9848 547.665 97.0473 546.157 97.6747C544.65 98.3022 542.991 98.4663 541.391 98.1465C539.791 97.8266 538.321 97.0371 537.167 95.8778C536.013 94.7185 535.228 93.2414 534.909 91.6334C534.591 90.0253 534.755 88.3586 535.379 86.8439C536.003 85.3291 537.061 84.0345 538.417 83.1236C539.774 82.2127 541.369 81.7266 543 81.7266C545.188 81.7266 547.286 82.5999 548.833 84.1545C550.38 85.7091 551.25 87.8176 551.25 90.0162Z" fill="#C83025"/>
<path d="M543 100.232C540.989 100.232 539.024 99.6328 537.352 98.5103C535.68 97.3878 534.377 95.7924 533.608 93.9257C532.838 92.0591 532.637 90.005 533.029 88.0234C533.422 86.0418 534.39 84.2215 535.812 82.7929C537.233 81.3642 539.045 80.3912 541.017 79.9971C542.989 79.6029 545.033 79.8052 546.89 80.5784C548.748 81.3516 550.336 82.661 551.453 84.3409C552.57 86.0208 553.166 87.9959 553.166 90.0164C553.164 92.7252 552.093 95.3226 550.186 97.238C548.28 99.1534 545.696 100.23 543 100.232ZM543 83.6528C541.747 83.6528 540.523 84.026 539.482 84.7252C538.44 85.4245 537.629 86.4183 537.149 87.5811C536.67 88.7439 536.545 90.0234 536.789 91.2579C537.033 92.4923 537.636 93.6262 538.522 94.5161C539.408 95.4061 540.536 96.0122 541.765 96.2577C542.993 96.5032 544.266 96.3772 545.423 95.8956C546.581 95.4139 547.57 94.5983 548.265 93.5518C548.961 92.5053 549.333 91.275 549.333 90.0164C549.331 88.3292 548.663 86.7116 547.476 85.5185C546.289 84.3255 544.679 83.6545 543 83.6528V83.6528Z" fill="#403323"/>
<path d="M573.375 147.997C576.561 147.997 579.144 145.402 579.144 142.2C579.144 138.998 576.561 136.402 573.375 136.402C570.188 136.402 567.605 138.998 567.605 142.2C567.605 145.402 570.188 147.997 573.375 147.997Z" fill="#FCAF39"/>
<path d="M573.374 149.924C571.854 149.924 570.368 149.471 569.104 148.622C567.84 147.773 566.855 146.567 566.274 145.156C565.692 143.744 565.54 142.191 565.836 140.693C566.133 139.195 566.865 137.819 567.94 136.739C569.015 135.659 570.384 134.923 571.875 134.625C573.366 134.327 574.911 134.48 576.316 135.064C577.72 135.649 578.921 136.639 579.765 137.909C580.61 139.179 581.06 140.672 581.06 142.2C581.059 144.248 580.248 146.211 578.807 147.659C577.366 149.108 575.412 149.922 573.374 149.924V149.924ZM573.374 138.329C572.614 138.329 571.87 138.555 571.237 138.979C570.605 139.403 570.111 140.006 569.818 140.711C569.526 141.417 569.448 142.193 569.594 142.943C569.74 143.694 570.103 144.383 570.639 144.926C571.175 145.469 571.858 145.84 572.603 145.993C573.348 146.146 574.122 146.074 574.826 145.786C575.531 145.498 576.135 145.007 576.562 144.375C576.989 143.742 577.221 142.997 577.227 142.233C577.227 141.203 576.822 140.215 576.101 139.483C575.379 138.752 574.399 138.337 573.374 138.329Z" fill="#403323"/>
<path d="M512.71 147.997C515.896 147.997 518.479 145.402 518.479 142.2C518.479 138.998 515.896 136.402 512.71 136.402C509.523 136.402 506.94 138.998 506.94 142.2C506.94 145.402 509.523 147.997 512.71 147.997Z" fill="#FCAF39"/>
<path d="M512.71 149.924C511.19 149.922 509.705 149.468 508.441 148.619C507.178 147.769 506.194 146.563 505.613 145.151C505.033 143.74 504.881 142.187 505.179 140.689C505.476 139.192 506.209 137.816 507.284 136.736C508.359 135.657 509.728 134.922 511.219 134.624C512.71 134.327 514.255 134.48 515.659 135.065C517.063 135.65 518.263 136.64 519.107 137.91C519.952 139.18 520.402 140.673 520.402 142.2C520.401 144.249 519.589 146.214 518.147 147.662C516.704 149.11 514.749 149.924 512.71 149.924V149.924ZM512.71 138.329C511.949 138.329 511.206 138.555 510.573 138.979C509.94 139.403 509.446 140.006 509.154 140.711C508.861 141.417 508.783 142.193 508.929 142.943C509.075 143.694 509.439 144.383 509.974 144.926C510.51 145.469 511.193 145.84 511.939 145.993C512.684 146.146 513.457 146.074 514.162 145.786C514.866 145.498 515.47 145.007 515.897 144.375C516.325 143.742 516.556 142.997 516.562 142.233C516.563 141.203 516.158 140.215 515.436 139.483C514.714 138.752 513.735 138.337 512.71 138.329Z" fill="#403323"/>
<path d="M573.375 167.087C576.561 167.087 579.144 164.492 579.144 161.29C579.144 158.088 576.561 155.492 573.375 155.492C570.188 155.492 567.605 158.088 567.605 161.29C567.605 164.492 570.188 167.087 573.375 167.087Z" fill="#FCAF39"/>
<path d="M573.374 169.013C571.854 169.013 570.368 168.56 569.104 167.712C567.84 166.863 566.855 165.657 566.274 164.246C565.692 162.834 565.54 161.281 565.836 159.783C566.133 158.285 566.865 156.909 567.94 155.829C569.015 154.748 570.384 154.013 571.875 153.715C573.366 153.417 574.911 153.57 576.316 154.154C577.72 154.739 578.921 155.729 579.765 156.999C580.61 158.269 581.06 159.762 581.06 161.29C581.059 163.338 580.248 165.301 578.807 166.749C577.366 168.197 575.412 169.012 573.374 169.013V169.013ZM573.374 157.418C572.603 157.412 571.848 157.636 571.204 158.063C570.56 158.489 570.057 159.099 569.759 159.813C569.461 160.528 569.381 161.316 569.53 162.076C569.679 162.836 570.05 163.535 570.595 164.083C571.14 164.631 571.836 165.003 572.592 165.153C573.349 165.303 574.133 165.222 574.844 164.923C575.555 164.623 576.161 164.118 576.586 163.471C577.01 162.824 577.234 162.065 577.227 161.29C577.214 160.269 576.803 159.294 576.083 158.574C575.362 157.854 574.39 157.446 573.374 157.438V157.418Z" fill="#403323"/>
<path d="M512.71 167.087C515.896 167.087 518.479 164.492 518.479 161.29C518.479 158.088 515.896 155.492 512.71 155.492C509.523 155.492 506.94 158.088 506.94 161.29C506.94 164.492 509.523 167.087 512.71 167.087Z" fill="#FCAF39"/>
<path d="M512.71 169.013C511.19 169.012 509.705 168.558 508.441 167.709C507.178 166.859 506.194 165.652 505.613 164.241C505.033 162.83 504.881 161.277 505.179 159.779C505.476 158.281 506.209 156.906 507.284 155.826C508.359 154.747 509.728 154.012 511.219 153.714C512.71 153.417 514.255 153.57 515.659 154.155C517.063 154.74 518.263 155.73 519.107 157C519.952 158.27 520.402 159.763 520.402 161.29C520.401 163.339 519.589 165.303 518.147 166.752C516.704 168.2 514.749 169.013 512.71 169.013V169.013ZM512.71 157.418C511.939 157.412 511.183 157.636 510.539 158.063C509.895 158.489 509.392 159.099 509.094 159.813C508.796 160.528 508.717 161.316 508.866 162.076C509.014 162.836 509.385 163.535 509.93 164.083C510.476 164.631 511.171 165.003 511.928 165.153C512.684 165.303 513.468 165.222 514.179 164.923C514.89 164.623 515.497 164.118 515.921 163.471C516.346 162.824 516.569 162.065 516.562 161.29C516.549 160.269 516.138 159.294 515.418 158.574C514.698 157.854 513.726 157.446 512.71 157.438V157.418Z" fill="#403323"/>
<path d="M522.321 117.532C523.048 113.012 519.991 108.756 515.494 108.026C510.996 107.296 506.761 110.367 506.034 114.887C505.307 119.406 508.364 123.662 512.861 124.393C517.359 125.123 521.594 122.051 522.321 117.532Z" fill="#A67F5B"/>
<path d="M514.16 126.429C512.148 126.429 510.181 125.829 508.508 124.706C506.835 123.583 505.532 121.986 504.762 120.118C503.992 118.25 503.79 116.195 504.183 114.212C504.575 112.229 505.544 110.408 506.967 108.978C508.389 107.549 510.202 106.575 512.175 106.181C514.148 105.786 516.194 105.989 518.053 106.762C519.911 107.536 521.5 108.846 522.618 110.527C523.736 112.208 524.332 114.185 524.332 116.206C524.329 118.916 523.256 121.515 521.349 123.431C519.442 125.347 516.857 126.425 514.16 126.429V126.429ZM514.16 109.849C512.907 109.849 511.682 110.223 510.641 110.922C509.599 111.622 508.788 112.616 508.308 113.779C507.829 114.942 507.704 116.222 507.949 117.457C508.194 118.691 508.798 119.825 509.684 120.715C510.57 121.605 511.699 122.21 512.928 122.455C514.157 122.7 515.431 122.573 516.588 122.09C517.745 121.608 518.733 120.791 519.428 119.744C520.123 118.696 520.494 117.465 520.492 116.206C520.489 114.52 519.82 112.904 518.633 111.713C517.446 110.521 515.838 109.851 514.16 109.849V109.849Z" fill="#403323"/>
<path d="M579.843 118.105C580.884 113.648 578.132 109.187 573.697 108.141C569.261 107.094 564.822 109.859 563.781 114.316C562.74 118.774 565.491 123.235 569.927 124.281C574.362 125.327 578.802 122.562 579.843 118.105Z" fill="#A67F5B"/>
<path d="M571.788 126.429C569.776 126.43 567.809 125.831 566.135 124.709C564.461 123.587 563.156 121.991 562.386 120.123C561.615 118.255 561.412 116.2 561.804 114.216C562.196 112.233 563.164 110.411 564.587 108.981C566.009 107.55 567.821 106.576 569.795 106.181C571.768 105.786 573.814 105.988 575.673 106.762C577.532 107.535 579.121 108.846 580.239 110.527C581.357 112.208 581.954 114.184 581.954 116.206C581.953 118.916 580.881 121.514 578.975 123.43C577.069 125.347 574.485 126.425 571.788 126.429V126.429ZM571.788 109.849C570.536 109.849 569.311 110.223 568.269 110.922C567.228 111.622 566.416 112.616 565.937 113.779C565.458 114.942 565.333 116.222 565.578 117.457C565.823 118.691 566.426 119.825 567.313 120.715C568.199 121.605 569.328 122.21 570.557 122.455C571.786 122.7 573.059 122.573 574.216 122.09C575.373 121.608 576.362 120.791 577.057 119.744C577.752 118.696 578.122 117.465 578.121 116.206C578.118 114.52 577.449 112.904 576.262 111.713C575.075 110.521 573.466 109.851 571.788 109.849V109.849Z" fill="#403323"/>
<path d="M528.988 125.466C528.718 125.464 528.451 125.405 528.204 125.293C527.958 125.181 527.737 125.018 527.557 124.816L521.011 117.483C520.674 117.096 520.503 116.591 520.535 116.078C520.566 115.565 520.798 115.086 521.179 114.743L541.744 96.8498C542.095 96.5508 542.54 96.3867 543 96.3867C543.46 96.3867 543.905 96.5508 544.256 96.8498L564.821 114.756C565.203 115.099 565.434 115.578 565.466 116.091C565.497 116.604 565.326 117.109 564.99 117.496L558.443 124.829C558.084 125.139 557.625 125.307 557.151 125.3C556.678 125.294 556.223 125.114 555.872 124.794C555.521 124.475 555.299 124.037 555.247 123.564C555.194 123.091 555.316 122.615 555.588 122.226L560.833 116.37L543 100.832L525.168 116.383L530.413 122.239C530.649 122.519 530.803 122.861 530.854 123.225C530.906 123.589 530.855 123.96 530.706 124.296C530.557 124.632 530.317 124.919 530.013 125.124C529.709 125.328 529.354 125.443 528.988 125.453V125.466Z" fill="#403323"/>
<path d="M546.182 221.802C550.386 220.035 552.368 215.18 550.611 210.956C548.853 206.732 544.021 204.739 539.818 206.505C535.615 208.271 533.632 213.127 535.389 217.351C537.147 221.575 541.979 223.568 546.182 221.802Z" fill="#C83025"/>
<path d="M543 224.401C540.988 224.403 539.02 223.804 537.346 222.681C535.672 221.558 534.368 219.962 533.597 218.094C532.826 216.226 532.624 214.17 533.016 212.186C533.409 210.203 534.378 208.381 535.801 206.951C537.224 205.521 539.037 204.547 541.011 204.153C542.985 203.759 545.03 203.962 546.89 204.736C548.749 205.511 550.337 206.822 551.454 208.504C552.572 210.186 553.167 212.163 553.166 214.186C553.163 216.894 552.091 219.49 550.185 221.405C548.279 223.32 545.695 224.398 543 224.401ZM543 207.822C541.748 207.822 540.523 208.195 539.482 208.894C538.441 209.594 537.629 210.588 537.15 211.75C536.67 212.913 536.545 214.193 536.789 215.427C537.034 216.662 537.637 217.795 538.522 218.685C539.408 219.575 540.536 220.181 541.765 220.427C542.993 220.673 544.266 220.546 545.424 220.065C546.581 219.583 547.57 218.768 548.266 217.721C548.961 216.675 549.333 215.444 549.333 214.186C549.331 212.498 548.663 210.881 547.476 209.688C546.289 208.495 544.679 207.824 543 207.822V207.822Z" fill="#403323"/>
<path d="M579.859 189.918C580.911 185.464 578.171 180.995 573.739 179.937C569.306 178.879 564.859 181.633 563.807 186.087C562.754 190.541 565.494 195.01 569.926 196.068C574.359 197.126 578.806 194.372 579.859 189.918Z" fill="#A67F5B"/>
<path d="M571.788 198.205C569.777 198.205 567.812 197.605 566.14 196.483C564.468 195.36 563.165 193.765 562.396 191.898C561.626 190.032 561.425 187.978 561.817 185.996C562.21 184.014 563.178 182.194 564.6 180.766C566.021 179.337 567.833 178.364 569.805 177.97C571.777 177.576 573.821 177.778 575.678 178.551C577.536 179.324 579.124 180.634 580.241 182.314C581.358 183.994 581.954 185.969 581.954 187.989C581.952 190.698 580.881 193.295 578.975 195.211C577.068 197.126 574.484 198.203 571.788 198.205V198.205ZM571.788 181.625C570.536 181.625 569.311 181.999 568.27 182.698C567.228 183.397 566.417 184.391 565.937 185.554C565.458 186.717 565.333 187.996 565.577 189.231C565.821 190.465 566.424 191.599 567.31 192.489C568.196 193.379 569.324 193.985 570.553 194.23C571.781 194.476 573.054 194.35 574.211 193.868C575.369 193.387 576.358 192.571 577.053 191.524C577.749 190.478 578.121 189.248 578.121 187.989C578.119 186.302 577.451 184.684 576.264 183.491C575.077 182.298 573.467 181.627 571.788 181.625V181.625Z" fill="#403323"/>
<path d="M522.255 189.625C523.158 185.138 520.27 180.764 515.804 179.857C511.339 178.95 506.987 181.852 506.084 186.34C505.181 190.827 508.069 195.2 512.535 196.108C517.001 197.015 521.353 194.113 522.255 189.625Z" fill="#A67F5B"/>
<path d="M514.16 198.205C512.149 198.198 510.186 197.593 508.517 196.465C506.849 195.337 505.551 193.737 504.788 191.868C504.024 189.999 503.83 187.945 504.228 185.964C504.627 183.984 505.601 182.167 507.027 180.743C508.453 179.318 510.268 178.351 512.241 177.963C514.214 177.576 516.257 177.784 518.113 178.564C519.968 179.343 521.551 180.657 522.663 182.341C523.775 184.024 524.365 186.001 524.358 188.022C524.346 190.73 523.266 193.323 521.354 195.232C519.442 197.141 516.855 198.21 514.16 198.205V198.205ZM514.16 181.625C512.907 181.625 511.683 181.999 510.642 182.698C509.6 183.397 508.789 184.391 508.309 185.554C507.83 186.717 507.705 187.996 507.949 189.23C508.193 190.465 508.796 191.599 509.682 192.489C510.568 193.379 511.696 193.985 512.924 194.23C514.153 194.476 515.426 194.35 516.583 193.868C517.74 193.387 518.729 192.571 519.425 191.524C520.121 190.478 520.493 189.248 520.493 187.989C520.491 186.302 519.823 184.684 518.636 183.491C517.449 182.298 515.839 181.627 514.16 181.625V181.625Z" fill="#403323"/>
<path d="M543 207.819C542.537 207.82 542.09 207.651 541.743 207.344L521.178 189.444C520.795 189.102 520.563 188.621 520.531 188.106C520.499 187.592 520.672 187.086 521.01 186.698L527.556 179.372C527.708 179.133 527.909 178.93 528.146 178.777C528.384 178.625 528.651 178.525 528.93 178.487C529.209 178.448 529.494 178.471 529.763 178.554C530.032 178.637 530.281 178.778 530.491 178.967C530.701 179.156 530.867 179.388 530.979 179.648C531.09 179.908 531.144 180.19 531.136 180.473C531.129 180.756 531.06 181.034 530.935 181.287C530.81 181.541 530.631 181.765 530.412 181.942L525.167 187.798L543 203.323L560.832 187.798L555.587 181.942C555.34 181.552 555.238 181.086 555.301 180.627C555.364 180.169 555.586 179.748 555.929 179.439C556.272 179.13 556.713 178.954 557.174 178.942C557.634 178.929 558.084 179.082 558.443 179.372L564.989 186.718C565.331 187.105 565.506 187.613 565.475 188.13C565.461 188.385 565.397 188.634 565.286 188.863C565.175 189.092 565.019 189.296 564.827 189.464L544.256 207.344C543.909 207.651 543.462 207.82 543 207.819V207.819Z" fill="#403323"/>
<path d="M550.036 116.522L543.049 123.543L550.036 130.564L557.023 123.543L550.036 116.522Z" fill="#ECE2D9"/>
<path d="M550.032 132.485C549.523 132.483 549.034 132.28 548.673 131.919L541.686 124.905C541.332 124.54 541.134 124.051 541.134 123.542C541.134 123.032 541.332 122.543 541.686 122.178L548.673 115.145C549.035 114.789 549.522 114.59 550.029 114.59C550.536 114.59 551.023 114.789 551.386 115.145L558.372 122.159C558.726 122.524 558.924 123.013 558.924 123.522C558.924 124.031 558.726 124.521 558.372 124.885L551.386 131.906C551.21 132.088 550.999 132.233 550.767 132.332C550.535 132.432 550.285 132.484 550.032 132.485V132.485ZM545.759 123.538L550.032 127.833L554.306 123.538L550.032 119.244L545.759 123.538Z" fill="#403323"/>
<path d="M557.022 123.541L550.035 130.562L557.022 137.584L564.009 130.562L557.022 123.541Z" fill="#ECE2D9"/>
<path d="M557.019 139.506C556.509 139.504 556.021 139.301 555.659 138.94L548.672 131.919C548.318 131.555 548.12 131.065 548.12 130.556C548.12 130.047 548.318 129.557 548.672 129.193L555.659 122.172C556.022 121.816 556.509 121.617 557.015 121.617C557.522 121.617 558.009 121.816 558.372 122.172L565.359 129.193C565.713 129.557 565.911 130.047 565.911 130.556C565.911 131.065 565.713 131.555 565.359 131.919L558.372 138.94C558.012 139.299 557.526 139.502 557.019 139.506V139.506ZM552.739 130.559L557.019 134.854L561.292 130.559L557.019 126.265L552.739 130.559Z" fill="#403323"/>
<path d="M542.964 123.545L535.977 130.566L542.964 137.587L549.95 130.566L542.964 123.545Z" fill="#ECE2D9"/>
<path d="M542.961 139.505C542.451 139.503 541.963 139.3 541.601 138.939L534.615 131.918C534.261 131.554 534.062 131.064 534.062 130.555C534.062 130.046 534.261 129.557 534.615 129.192L541.601 122.171C541.968 121.823 542.453 121.629 542.958 121.629C543.462 121.629 543.948 121.823 544.314 122.171L551.301 129.192C551.655 129.557 551.853 130.046 551.853 130.555C551.853 131.064 551.655 131.554 551.301 131.918L544.314 138.939C543.954 139.298 543.468 139.501 542.961 139.505ZM538.681 130.558L542.961 134.853L547.235 130.558L542.955 126.264L538.681 130.558Z" fill="#403323"/>
<path d="M528.901 123.541L521.914 130.562L528.901 137.584L535.888 130.562L528.901 123.541Z" fill="#ECE2D9"/>
<path d="M528.897 139.505C528.39 139.501 527.904 139.298 527.544 138.939L520.557 131.918C520.203 131.554 520.005 131.064 520.005 130.555C520.005 130.046 520.203 129.557 520.557 129.192L527.544 122.171C527.91 121.823 528.396 121.629 528.9 121.629C529.405 121.629 529.89 121.823 530.257 122.171L537.243 129.192C537.597 129.557 537.796 130.046 537.796 130.555C537.796 131.064 537.597 131.554 537.243 131.918L530.257 138.939C529.895 139.3 529.407 139.503 528.897 139.505V139.505ZM524.623 130.558L528.897 134.853L533.171 130.558L528.897 126.264L524.623 130.558Z" fill="#403323"/>
<path d="M535.977 116.522L528.99 123.543L535.977 130.564L542.964 123.543L535.977 116.522Z" fill="#ECE2D9"/>
<path d="M535.975 132.485C535.465 132.483 534.977 132.28 534.615 131.919L527.628 124.905C527.274 124.54 527.076 124.051 527.076 123.542C527.076 123.032 527.274 122.543 527.628 122.178L534.615 115.145C534.978 114.789 535.465 114.59 535.971 114.59C536.478 114.59 536.965 114.789 537.328 115.145L544.315 122.159C544.669 122.524 544.867 123.013 544.867 123.522C544.867 124.031 544.669 124.521 544.315 124.885L537.328 131.906C536.97 132.27 536.484 132.478 535.975 132.485V132.485ZM531.701 123.538L535.975 127.833L540.248 123.538L535.975 119.244L531.701 123.538Z" fill="#403323"/>
<path d="M550.035 130.565L543.048 137.586L550.035 144.607L557.022 137.586L550.035 130.565Z" fill="#ECE2D9"/>
<path d="M550.032 146.526C549.523 146.523 549.034 146.32 548.673 145.959L541.686 138.939C541.332 138.574 541.134 138.085 541.134 137.575C541.134 137.066 541.332 136.577 541.686 136.212L548.673 129.192C549.035 128.836 549.522 128.637 550.029 128.637C550.536 128.637 551.023 128.836 551.386 129.192L558.372 136.212C558.726 136.577 558.924 137.066 558.924 137.575C558.924 138.085 558.726 138.574 558.372 138.939L551.386 145.959C551.025 146.318 550.54 146.522 550.032 146.526V146.526ZM545.759 137.579L550.032 141.873L554.306 137.579L550.032 133.284L545.759 137.579Z" fill="#403323"/>
<path d="M557.022 137.584L550.035 144.605L557.022 151.627L564.009 144.605L557.022 137.584Z" fill="#ECE2D9"/>
<path d="M557.019 153.536C556.509 153.534 556.021 153.33 555.659 152.97L548.672 145.962C548.318 145.597 548.12 145.108 548.12 144.599C548.12 144.09 548.318 143.6 548.672 143.236L555.659 136.215C556.022 135.859 556.509 135.66 557.015 135.66C557.522 135.66 558.009 135.859 558.372 136.215L565.359 143.236C565.713 143.6 565.911 144.09 565.911 144.599C565.911 145.108 565.713 145.597 565.359 145.962L558.372 152.983C558.01 153.337 557.524 153.536 557.019 153.536V153.536ZM552.739 144.589L557.019 148.884L561.292 144.589L557.019 140.288L552.739 144.589Z" fill="#403323"/>
<path d="M542.964 137.577L535.977 144.598L542.964 151.619L549.95 144.598L542.964 137.577Z" fill="#ECE2D9"/>
<path d="M542.961 153.532C542.451 153.53 541.963 153.327 541.601 152.966L534.615 145.946C534.261 145.581 534.062 145.092 534.062 144.582C534.062 144.073 534.261 143.584 534.615 143.219L541.601 136.198C541.968 135.85 542.453 135.656 542.958 135.656C543.462 135.656 543.948 135.85 544.314 136.198L551.301 143.219C551.655 143.584 551.853 144.073 551.853 144.582C551.853 145.092 551.655 145.581 551.301 145.946L544.314 152.966C543.954 153.325 543.468 153.529 542.961 153.532ZM538.681 144.586L542.961 148.88L547.235 144.586L542.955 140.285L538.681 144.586Z" fill="#403323"/>
<path d="M528.9 137.584L521.913 144.605L528.9 151.627L535.887 144.605L528.9 137.584Z" fill="#ECE2D9"/>
<path d="M528.897 153.532C528.39 153.529 527.904 153.325 527.544 152.966L520.557 145.946C520.203 145.581 520.005 145.092 520.005 144.582C520.005 144.073 520.203 143.584 520.557 143.219L527.544 136.198C527.91 135.85 528.396 135.656 528.9 135.656C529.405 135.656 529.89 135.85 530.257 136.198L537.243 143.219C537.597 143.584 537.796 144.073 537.796 144.582C537.796 145.092 537.597 145.581 537.243 145.946L530.257 152.966C529.895 153.327 529.407 153.53 528.897 153.532V153.532ZM524.623 144.586L528.897 148.88L533.171 144.586L528.897 140.285L524.623 144.586Z" fill="#403323"/>
<path d="M535.977 130.565L528.99 137.586L535.977 144.607L542.964 137.586L535.977 130.565Z" fill="#ECE2D9"/>
<path d="M535.975 146.526C535.465 146.523 534.977 146.32 534.615 145.959L527.628 138.939C527.274 138.574 527.076 138.085 527.076 137.575C527.076 137.066 527.274 136.577 527.628 136.212L534.615 129.192C534.978 128.836 535.465 128.637 535.971 128.637C536.478 128.637 536.965 128.836 537.328 129.192L544.315 136.212C544.669 136.577 544.867 137.066 544.867 137.575C544.867 138.085 544.669 138.574 544.315 138.939L537.328 145.959C536.968 146.318 536.482 146.522 535.975 146.526ZM531.701 137.579L535.975 141.873L540.248 137.579L535.975 133.284L531.701 137.579Z" fill="#403323"/>
<path d="M550.035 144.604L543.048 151.625L550.035 158.646L557.022 151.625L550.035 144.604Z" fill="#ECE2D9"/>
<path d="M550.032 160.562C549.524 160.562 549.035 160.361 548.673 160.002L541.686 152.982C541.332 152.617 541.134 152.128 541.134 151.618C541.134 151.109 541.332 150.62 541.686 150.255L548.673 143.235C549.035 142.879 549.522 142.68 550.029 142.68C550.536 142.68 551.023 142.879 551.386 143.235L558.372 150.281C558.726 150.646 558.924 151.135 558.924 151.644C558.924 152.154 558.726 152.643 558.372 153.008L551.386 160.028C551.02 160.376 550.535 160.567 550.032 160.562V160.562ZM545.759 151.615L550.032 155.91L554.306 151.615L550.032 147.321L545.759 151.615Z" fill="#403323"/>
<path d="M557.016 151.62L550.029 158.641L557.016 165.662L564.003 158.641L557.016 151.62Z" fill="#ECE2D9"/>
<path d="M557.019 167.583C556.51 167.582 556.022 167.381 555.659 167.023L548.672 160.002C548.318 159.638 548.12 159.149 548.12 158.639C548.12 158.13 548.318 157.641 548.672 157.276L555.659 150.281C556.022 149.926 556.509 149.727 557.015 149.727C557.522 149.727 558.009 149.926 558.372 150.281L565.359 157.302C565.713 157.667 565.911 158.156 565.911 158.665C565.911 159.175 565.713 159.664 565.359 160.028L558.372 167.049C558.007 167.396 557.521 167.588 557.019 167.583V167.583ZM552.739 158.636L557.019 162.93L561.292 158.636L557.019 154.342L552.739 158.636Z" fill="#403323"/>
<path d="M542.959 151.616L535.972 158.637L542.959 165.658L549.946 158.637L542.959 151.616Z" fill="#ECE2D9"/>
<path d="M542.961 167.583C542.452 167.582 541.964 167.381 541.601 167.023L534.615 160.002C534.261 159.638 534.062 159.149 534.062 158.639C534.062 158.13 534.261 157.641 534.615 157.276L541.601 150.281C541.964 149.926 542.451 149.727 542.958 149.727C543.465 149.727 543.952 149.926 544.314 150.281L551.301 157.302C551.655 157.667 551.853 158.156 551.853 158.665C551.853 159.175 551.655 159.664 551.301 160.028L544.314 167.049C543.949 167.396 543.464 167.588 542.961 167.583V167.583ZM538.681 158.636L542.961 162.93L547.235 158.636L542.955 154.342L538.681 158.636Z" fill="#403323"/>
<path d="M528.895 151.62L521.908 158.641L528.895 165.662L535.882 158.641L528.895 151.62Z" fill="#ECE2D9"/>
<path d="M528.897 167.582C528.391 167.58 527.905 167.379 527.544 167.022L520.557 160.002C520.203 159.637 520.005 159.148 520.005 158.638C520.005 158.129 520.203 157.64 520.557 157.275L527.544 150.281C527.91 149.932 528.396 149.738 528.9 149.738C529.405 149.738 529.89 149.932 530.257 150.281L537.243 157.301C537.597 157.666 537.796 158.155 537.796 158.664C537.796 159.174 537.597 159.663 537.243 160.028L530.257 167.048C529.89 167.397 529.402 167.588 528.897 167.582V167.582ZM524.623 158.635L528.897 162.93L533.171 158.635L528.897 154.341L524.623 158.635Z" fill="#403323"/>
<path d="M535.976 144.604L528.989 151.625L535.976 158.646L542.963 151.625L535.976 144.604Z" fill="#ECE2D9"/>
<path d="M535.975 160.562C535.466 160.562 534.978 160.361 534.615 160.002L527.628 152.982C527.274 152.617 527.076 152.128 527.076 151.618C527.076 151.109 527.274 150.62 527.628 150.255L534.615 143.235C534.978 142.879 535.465 142.68 535.971 142.68C536.478 142.68 536.965 142.879 537.328 143.235L544.315 150.281C544.669 150.646 544.867 151.135 544.867 151.644C544.867 152.154 544.669 152.643 544.315 153.008L537.328 160.028C536.965 160.379 536.478 160.571 535.975 160.562V160.562ZM531.701 151.615L535.975 155.91L540.248 151.615L535.975 147.321L531.701 151.615Z" fill="#403323"/>
<path d="M521.919 144.6L514.932 151.621L521.919 158.642L528.906 151.621L521.919 144.6Z" fill="#ECE2D9"/>
<path d="M521.93 160.562C521.679 160.563 521.43 160.514 521.198 160.418C520.966 160.322 520.755 160.181 520.577 160.002L513.59 152.982C513.236 152.617 513.038 152.128 513.038 151.618C513.038 151.109 513.236 150.62 513.59 150.255L520.577 143.235C520.94 142.879 521.427 142.68 521.933 142.68C522.44 142.68 522.927 142.879 523.29 143.235L530.257 150.281C530.611 150.646 530.809 151.135 530.809 151.644C530.809 152.154 530.611 152.643 530.257 153.008L523.271 160.028C522.908 160.372 522.429 160.563 521.93 160.562V160.562ZM517.657 151.615L521.93 155.91L526.204 151.615L521.93 147.321L517.657 151.615Z" fill="#403323"/>
<path d="M564.007 144.604L557.021 151.625L564.007 158.646L570.994 151.625L564.007 144.604Z" fill="#ECE2D9"/>
<path d="M564.019 160.561C563.51 160.561 563.022 160.36 562.659 160.002L555.672 152.981C555.318 152.616 555.12 152.127 555.12 151.618C555.12 151.108 555.318 150.619 555.672 150.254L562.659 143.234C563.026 142.885 563.511 142.691 564.015 142.691C564.52 142.691 565.005 142.885 565.372 143.234L572.346 150.28C572.7 150.645 572.898 151.134 572.898 151.644C572.898 152.153 572.7 152.642 572.346 153.007L565.359 160.028C564.997 160.372 564.517 160.563 564.019 160.561ZM559.745 151.614L564.019 155.909L568.292 151.614L564.012 147.32L559.745 151.614Z" fill="#403323"/>
<path d="M550.03 158.639L543.043 165.66L550.03 172.681L557.017 165.66L550.03 158.639Z" fill="#ECE2D9"/>
<path d="M550.032 174.604C549.524 174.604 549.035 174.403 548.673 174.044L541.686 167.024C541.332 166.659 541.134 166.17 541.134 165.661C541.134 165.151 541.332 164.662 541.686 164.297L548.673 157.277C549.039 156.928 549.525 156.734 550.029 156.734C550.534 156.734 551.019 156.928 551.386 157.277L558.372 164.297C558.726 164.662 558.924 165.151 558.924 165.661C558.924 166.17 558.726 166.659 558.372 167.024L551.386 174.044C551.024 174.401 550.539 174.602 550.032 174.604V174.604ZM545.759 165.657L550.032 169.952L554.306 165.657L550.032 161.363L545.759 165.657Z" fill="#403323"/>
<path d="M557.016 165.663L550.029 172.684L557.016 179.705L564.003 172.684L557.016 165.663Z" fill="#ECE2D9"/>
<path d="M557.019 181.624C556.509 181.622 556.021 181.419 555.659 181.058L548.672 174.044C548.318 173.68 548.12 173.19 548.12 172.681C548.12 172.172 548.318 171.682 548.672 171.318L555.659 164.297C556.022 163.941 556.509 163.742 557.015 163.742C557.522 163.742 558.009 163.941 558.372 164.297L565.359 171.318C565.713 171.682 565.911 172.172 565.911 172.681C565.911 173.19 565.713 173.68 565.359 174.044L558.372 181.058C558.012 181.417 557.526 181.621 557.019 181.624V181.624ZM552.739 172.678L557.019 176.972L561.292 172.678L557.019 168.383L552.739 172.678Z" fill="#403323"/>
<path d="M542.964 165.663L535.978 172.684L542.964 179.705L549.951 172.684L542.964 165.663Z" fill="#ECE2D9"/>
<path d="M542.961 181.624C542.451 181.622 541.963 181.419 541.601 181.058L534.615 174.044C534.261 173.68 534.062 173.19 534.062 172.681C534.062 172.172 534.261 171.682 534.615 171.318L541.601 164.297C541.964 163.941 542.451 163.742 542.958 163.742C543.465 163.742 543.952 163.941 544.314 164.297L551.301 171.318C551.655 171.682 551.853 172.172 551.853 172.681C551.853 173.19 551.655 173.68 551.301 174.044L544.314 181.058C543.954 181.417 543.468 181.621 542.961 181.624V181.624ZM538.681 172.678L542.961 176.972L547.235 172.678L542.955 168.383L538.681 172.678Z" fill="#403323"/>
<path d="M528.901 165.663L521.914 172.684L528.901 179.705L535.888 172.684L528.901 165.663Z" fill="#ECE2D9"/>
<path d="M528.897 181.624C528.645 181.624 528.396 181.574 528.164 181.477C527.932 181.38 527.721 181.237 527.544 181.058L520.557 174.043C520.203 173.679 520.005 173.189 520.005 172.68C520.005 172.171 520.203 171.682 520.557 171.317L527.544 164.296C527.91 163.948 528.396 163.754 528.9 163.754C529.405 163.754 529.89 163.948 530.257 164.296L537.243 171.317C537.597 171.682 537.796 172.171 537.796 172.68C537.796 173.189 537.597 173.679 537.243 174.043L530.257 181.058C529.895 181.418 529.407 181.621 528.897 181.624V181.624ZM524.623 172.677L528.897 176.971L533.171 172.677L528.897 168.382L524.623 172.677Z" fill="#403323"/>
<path d="M535.971 158.643L528.984 165.664L535.971 172.685L542.958 165.664L535.971 158.643Z" fill="#ECE2D9"/>
<path d="M535.975 174.604C535.466 174.604 534.978 174.403 534.615 174.044L527.628 167.024C527.274 166.659 527.076 166.17 527.076 165.661C527.076 165.151 527.274 164.662 527.628 164.297L534.615 157.277C534.982 156.928 535.467 156.734 535.971 156.734C536.476 156.734 536.961 156.928 537.328 157.277L544.315 164.297C544.669 164.662 544.867 165.151 544.867 165.661C544.867 166.17 544.669 166.659 544.315 167.024L537.328 174.044C536.967 174.401 536.481 174.602 535.975 174.604V174.604ZM531.701 165.657L535.975 169.952L540.248 165.657L535.975 161.363L531.701 165.657Z" fill="#403323"/>
<path d="M550.03 172.682L543.043 179.703L550.03 186.724L557.017 179.703L550.03 172.682Z" fill="#ECE2D9"/>
<path d="M550.032 188.673C549.523 188.671 549.034 188.468 548.672 188.107L541.686 181.06C541.334 180.696 541.137 180.208 541.137 179.7C541.137 179.192 541.334 178.705 541.686 178.34L548.672 171.32C549.039 170.971 549.524 170.777 550.029 170.777C550.533 170.777 551.019 170.971 551.385 171.32L558.372 178.34C558.724 178.705 558.921 179.192 558.921 179.7C558.921 180.208 558.724 180.696 558.372 181.06L551.385 188.081C551.21 188.265 551.001 188.412 550.768 188.514C550.536 188.616 550.286 188.67 550.032 188.673V188.673ZM545.759 179.726L550.032 184.021L554.306 179.726L550.032 175.432L545.759 179.726Z" fill="#403323"/>
<path d="M535.971 172.682L528.984 179.703L535.971 186.724L542.958 179.703L535.971 172.682Z" fill="#ECE2D9"/>
<path d="M535.974 188.673C535.465 188.671 534.977 188.468 534.615 188.107L527.628 181.06C527.276 180.696 527.079 180.208 527.079 179.7C527.079 179.192 527.276 178.705 527.628 178.34L534.615 171.32C534.981 170.971 535.467 170.777 535.971 170.777C536.476 170.777 536.961 170.971 537.328 171.32L544.314 178.34C544.667 178.705 544.863 179.192 544.863 179.7C544.863 180.208 544.667 180.696 544.314 181.06L537.328 188.081C536.972 188.45 536.486 188.662 535.974 188.673ZM531.701 179.726L535.974 184.021L540.248 179.726L535.974 175.432L531.701 179.726Z" fill="#403323"/>
</g>
<defs>
<clipPath id="clip0_150_4259">
<rect width="79" height="225" fill="white" transform="translate(503.5)"/>
</clipPath>
</defs>
</svg>
