<svg width="13" height="12" viewBox="0 0 13 12" fill="none" xmlns="http://www.w3.org/2000/svg">
<path d="M5.16667 2V3.33333H1.83333V10.6667H9.16667V7.33333H10.5V11.3333C10.5 11.5101 10.4298 11.6797 10.3047 11.8047C10.1797 11.9298 10.0101 12 9.83333 12H1.16667C0.989856 12 0.820286 11.9298 0.695262 11.8047C0.570238 11.6797 0.5 11.5101 0.5 11.3333V2.66667C0.5 2.48986 0.570238 2.32029 0.695262 2.19526C0.820286 2.07024 0.989856 2 1.16667 2H5.16667ZM12.5 0V5.33333H11.1667V2.27533L5.97133 7.47133L5.02867 6.52867L10.2233 1.33333H7.16667V0H12.5Z" fill="white"/>
</svg>
