<svg width="52" height="46" viewBox="0 0 52 46" fill="none" xmlns="http://www.w3.org/2000/svg">
<path fill-rule="evenodd" clip-rule="evenodd" d="M0.700195 4.5C0.700195 3.67157 1.37177 3 2.2002 3H50.2322C51.0606 3 51.7322 3.67157 51.7322 4.5V41.052C51.7322 41.8804 51.0606 42.552 50.2322 42.552H2.2002C1.37177 42.552 0.700195 41.8804 0.700195 41.052V4.5ZM3.7002 6V39.552H48.7322V6H3.7002Z" fill="#333333"/>
<path fill-rule="evenodd" clip-rule="evenodd" d="M6.62012 35.2129C6.62012 34.3845 7.29169 33.7129 8.12012 33.7129H44.9201C45.7485 33.7129 46.4201 34.3845 46.4201 35.2129C46.4201 36.0413 45.7485 36.7129 44.9201 36.7129H8.12012C7.29169 36.7129 6.62012 36.0413 6.62012 35.2129Z" fill="#333333"/>
<path d="M14.9759 37.7165C16.3765 37.7165 17.5119 36.5811 17.5119 35.1805C17.5119 33.7799 16.3765 32.6445 14.9759 32.6445C13.5753 32.6445 12.4399 33.7799 12.4399 35.1805C12.4399 36.5811 13.5753 37.7165 14.9759 37.7165Z" fill="white"/>
<path fill-rule="evenodd" clip-rule="evenodd" d="M14.9759 34.1445C14.4038 34.1445 13.9399 34.6084 13.9399 35.1805C13.9399 35.7527 14.4038 36.2165 14.9759 36.2165C15.5481 36.2165 16.0119 35.7527 16.0119 35.1805C16.0119 34.6084 15.5481 34.1445 14.9759 34.1445ZM10.9399 35.1805C10.9399 32.9515 12.7469 31.1445 14.9759 31.1445C17.205 31.1445 19.0119 32.9515 19.0119 35.1805C19.0119 37.4096 17.205 39.2165 14.9759 39.2165C12.7469 39.2165 10.9399 37.4095 10.9399 35.1805Z" fill="#333333"/>
<path d="M20.9199 13.252L33.1439 20.308L20.9199 27.364V13.252Z" fill="#A67F5B"/>
</svg>
