<svg width="41" height="46" viewBox="0 0 41 46" fill="none" xmlns="http://www.w3.org/2000/svg">
<path fill-rule="evenodd" clip-rule="evenodd" d="M11.436 14.6953C11.8338 14.6953 12.2154 14.8533 12.4967 15.1347L23.9074 26.5454L30.1988 20.2472C30.4799 19.9658 30.8614 19.8075 31.2592 19.8073C31.6571 19.8071 32.0387 19.965 32.3201 20.2461L40.4161 28.3341C41.0022 28.9196 41.0027 29.8694 40.4172 30.4554C39.8317 31.0415 38.8819 31.042 38.2959 30.4565L31.2611 23.4287L24.9692 29.7274C24.688 30.009 24.3064 30.1672 23.9084 30.1673C23.5104 30.1674 23.1287 30.0094 22.8473 29.728L11.436 18.3166L2.56066 27.192C1.97487 27.7778 1.02513 27.7778 0.43934 27.192C-0.146447 26.6062 -0.146447 25.6564 0.43934 25.0707L10.3753 15.1347C10.6566 14.8533 11.0382 14.6953 11.436 14.6953Z" fill="#A67F5B"/>
<path fill-rule="evenodd" clip-rule="evenodd" d="M28.5879 10.3281C27.4591 10.3281 26.5439 11.2433 26.5439 12.3721C26.5439 13.501 27.4591 14.4161 28.5879 14.4161C29.7168 14.4161 30.6319 13.501 30.6319 12.3721C30.6319 11.2433 29.7168 10.3281 28.5879 10.3281ZM23.5439 12.3721C23.5439 9.5864 25.8022 7.32812 28.5879 7.32812C31.3737 7.32812 33.6319 9.5864 33.6319 12.3721C33.6319 15.1578 31.3737 17.4161 28.5879 17.4161C25.8022 17.4161 23.5439 15.1578 23.5439 12.3721Z" fill="#A67F5B"/>
<path fill-rule="evenodd" clip-rule="evenodd" d="M0 4.5C0 3.67157 0.671573 3 1.5 3H39.356C40.1844 3 40.856 3.67157 40.856 4.5V42.356C40.856 43.1844 40.1844 43.856 39.356 43.856H1.5C0.671573 43.856 0 43.1844 0 42.356V4.5ZM3 6V40.856H37.856V6H3Z" fill="#333333"/>
</svg>
