<svg width="41" height="41" viewBox="0 0 41 41" fill="none" xmlns="http://www.w3.org/2000/svg">
<path fill-rule="evenodd" clip-rule="evenodd" d="M0.231201 0.230469H12.6666V3.16797H5.24583L15.2718 13.194L13.1947 15.2711L3.1687 5.24509V12.6659H0.231201V0.230469ZM35.7541 3.16797H28.3333V0.230469H40.7687V12.6659H37.8312V5.24509L27.8052 15.2711L25.7281 13.194L35.7541 3.16797ZM15.2718 27.8044L5.24583 37.8305H12.6666V40.768H0.231201V28.3326H3.1687V35.7533L13.1947 25.7273L15.2718 27.8044ZM27.8052 25.7273L37.8312 35.7533L37.8312 28.3325L40.7687 28.3326L40.7687 40.768H28.3333V37.8305H35.7541L25.7281 27.8044L27.8052 25.7273Z" fill="white"/>
</svg>
