<svg width="14" height="14" viewBox="0 0 14 14" fill="none" xmlns="http://www.w3.org/2000/svg">
<path fill-rule="evenodd" clip-rule="evenodd" d="M7.17118 10.9131C6.94337 10.6853 6.94337 10.316 7.17118 10.0882L10.2587 7.00065L7.17118 3.91313C6.94337 3.68532 6.94337 3.31598 7.17118 3.08817C7.39899 2.86036 7.76833 2.86036 7.99614 3.08817L11.4961 6.58817C11.6055 6.69757 11.667 6.84594 11.667 7.00065C11.667 7.15536 11.6055 7.30373 11.4961 7.41313L7.99614 10.9131C7.76833 11.1409 7.39899 11.1409 7.17118 10.9131Z" fill="#5D6064"/>
<path fill-rule="evenodd" clip-rule="evenodd" d="M3.08719 10.9131C2.85939 10.6853 2.85939 10.316 3.08719 10.0882L6.17472 7.00065L3.08719 3.91313C2.85939 3.68532 2.85939 3.31598 3.08719 3.08817C3.315 2.86036 3.68435 2.86036 3.91215 3.08817L7.41215 6.58817C7.52155 6.69757 7.58301 6.84594 7.58301 7.00065C7.58301 7.15536 7.52155 7.30373 7.41215 7.41313L3.91215 10.9131C3.68435 11.1409 3.315 11.1409 3.08719 10.9131Z" fill="#5D6064"/>
</svg>
