<svg width="40" height="40" viewBox="0 0 40 40" fill="none" xmlns="http://www.w3.org/2000/svg">
<path fill-rule="evenodd" clip-rule="evenodd" d="M5.48913 5.48816C6.14001 4.83728 7.19528 4.83728 7.84615 5.48816L20.001 17.643L32.1558 5.48816C32.8067 4.83728 33.8619 4.83728 34.5128 5.48816C35.1637 6.13903 35.1637 7.1943 34.5128 7.84518L22.358 20L34.5128 32.1548C35.1637 32.8057 35.1637 33.861 34.5128 34.5118C33.8619 35.1627 32.8067 35.1627 32.1558 34.5118L20.001 22.357L7.84615 34.5118C7.19528 35.1627 6.14001 35.1627 5.48913 34.5118C4.83826 33.861 4.83826 32.8057 5.48913 32.1548L17.644 20L5.48913 7.84518C4.83826 7.1943 4.83826 6.13903 5.48913 5.48816Z" fill="white"/>
</svg>
