<svg width="70" height="50" viewBox="0 0 70 50" fill="none" xmlns="http://www.w3.org/2000/svg">
<path d="M31.8795 38.6541C41.2773 38.6541 48.8958 31.0356 48.8958 21.6378C48.8958 12.24 41.2773 4.62158 31.8795 4.62158C22.4817 4.62158 14.8633 12.24 14.8633 21.6378C14.8633 31.0356 22.4817 38.6541 31.8795 38.6541Z" stroke="white" stroke-width="2" stroke-linecap="round" stroke-linejoin="round"/>
<path d="M43.9229 33.6787L54.8656 44.6215" stroke="white" stroke-width="2" stroke-linecap="round" stroke-linejoin="round"/>
<path d="M37.7985 21.7527L36.1142 28.5553C36.0038 29.0016 35.6033 29.315 35.1435 29.315H34.6565C34.1956 29.315 33.7945 29.0001 33.6851 28.5524L32.0234 21.7527H30.6495L28.9879 28.5524C28.8785 29.0001 28.4773 29.315 28.0165 29.315H27.5586C27.0967 29.315 26.6948 28.9986 26.5865 28.5494L24.9474 21.7527H23.0629C22.6533 21.7527 22.3213 21.4207 22.3213 21.0111V21.0111C22.3213 20.6015 22.6533 20.2694 23.0629 20.2694H24.5948L23.6635 16.2553C23.518 15.6284 23.994 15.0293 24.6376 15.0293H24.7121C25.1774 15.0293 25.5811 15.3501 25.6863 15.8033L26.7225 20.2694H28.996L30.1085 15.7884C30.2192 15.3424 30.6196 15.0293 31.0791 15.0293H31.6666C32.1318 15.0293 32.5355 15.3501 32.6407 15.8033L33.6769 20.2694H35.9748L37.011 15.8033C37.1161 15.3501 37.5199 15.0293 37.9851 15.0293H38.041C38.6828 15.0293 39.1584 15.6252 39.0161 16.251L38.1024 20.2694H39.6708C40.0804 20.2694 40.4125 20.6015 40.4125 21.0111V21.0111C40.4125 21.4207 40.0804 21.7527 39.6708 21.7527H37.7985ZM28.7407 21.7527H27.1602L27.8435 24.7065C27.8699 24.821 28.0328 24.8214 28.0599 24.7071V24.7071L28.7407 21.7527ZM30.9413 20.2694H31.8532L31.5128 18.1174L31.4277 17.6068L30.9413 20.2694ZM35.7195 21.7527H34.1024L34.7711 24.5977V24.5977C34.7916 24.7058 34.9444 24.7111 34.9723 24.6046L35.7195 21.7527Z" fill="white"/>
</svg>
