<svg width="100" height="100" viewBox="0 0 100 100" fill="none" xmlns="http://www.w3.org/2000/svg">
<circle opacity="0.4" cx="57.2871" cy="49.3389" r="27.4795" fill="url(#paint0_linear_1071_16478)"/>
<path d="M54.8789 25.6506L61.1589 19.252" stroke="#4493F1" stroke-width="2" stroke-miterlimit="10" stroke-linecap="round" stroke-linejoin="round"/>
<path d="M47.3838 20.6933L50.7629 12.3545" stroke="#4493F1" stroke-width="2" stroke-miterlimit="10" stroke-linecap="round" stroke-linejoin="round"/>
<path d="M38.5757 19.0113L38.541 10" stroke="#4493F1" stroke-width="2" stroke-miterlimit="10" stroke-linecap="round" stroke-linejoin="round"/>
<path d="M29.8078 20.8665L26.3594 12.5557" stroke="#4493F1" stroke-width="2" stroke-miterlimit="10" stroke-linecap="round" stroke-linejoin="round"/>
<path d="M22.4052 25.9691L16.0732 19.623" stroke="#4493F1" stroke-width="2" stroke-miterlimit="10" stroke-linecap="round" stroke-linejoin="round"/>
<path d="M20.7293 89.999L53.3701 89.999L53.3701 78.4941L20.7293 78.4942L20.7293 89.999Z" fill="#4493F1" stroke="#20335B" stroke-width="2" stroke-miterlimit="10" stroke-linecap="round" stroke-linejoin="round"/>
<path d="M34.8232 43.4671V47.0849C34.8232 50.335 36.3378 52.9652 39.554 52.9652C42.7703 52.9652 44.2849 50.3315 44.2849 47.0849V43.4671V42.2413V38.6234C44.2849 35.3734 42.7703 32.7432 39.554 32.7432C36.3378 32.7432 34.8232 35.3769 34.8232 38.6234V42.2413V43.4671V43.4671Z" fill="white" stroke="#20335B" stroke-width="2" stroke-miterlimit="10" stroke-linecap="round" stroke-linejoin="round"/>
<path d="M44.2842 43.4671V47.0849C44.2842 50.335 45.7987 52.9652 49.015 52.9652C52.2312 52.9652 53.7458 50.3315 53.7458 47.0849V43.4671V42.2413V38.6234C53.7458 35.3734 52.2312 32.7432 49.015 32.7432C45.7987 32.7432 44.2842 35.3769 44.2842 38.6234V42.2413V43.4671Z" fill="white" stroke="#20335B" stroke-width="2" stroke-miterlimit="10" stroke-linecap="round" stroke-linejoin="round"/>
<path d="M42.0909 64.8951C43.2069 57.2917 49.0155 54.1362 49.0155 54.1362L38.2196 54.3498C37.0135 54.3498 35.1766 53.8665 34.324 53.0014C32.5114 51.1698 32.8164 48.3434 34.3171 46.4242C36.0673 44.1898 38.7845 44.3299 41.3423 44.3299C43.7233 44.3299 46.9915 44.3299 52.0966 44.3299C53.8122 44.3299 55.5243 44.6591 57.0735 45.4051C59.7352 46.6869 61.1423 47.6325 61.9048 51.1417C62.092 51.9998 62.2653 55.1168 62.2098 55.9959C61.7142 63.9039 55.5971 73.4371 50.1454 73.4371V78.4943H23.9301V73.5982C23.9301 73.5982 20.1386 71.5248 18.6968 67.5183C17.612 64.5063 17.5115 61.7746 17.0921 57.9396C17.0263 57.3267 16.9812 56.7103 16.957 56.0939L16.3955 45.2755H50.485" fill="white"/>
<path d="M42.0909 64.8951C43.2069 57.2917 49.0155 54.1362 49.0155 54.1362L38.2196 54.3498C37.0135 54.3498 35.1766 53.8665 34.324 53.0014C32.5114 51.1698 32.8164 48.3434 34.3171 46.4242C36.0673 44.1898 38.7845 44.3299 41.3423 44.3299C43.7233 44.3299 46.9915 44.3299 52.0966 44.3299C53.8122 44.3299 55.5243 44.6591 57.0735 45.4051C59.7352 46.6869 61.1423 47.6325 61.9048 51.1417C62.092 51.9998 62.2653 55.1168 62.2098 55.9959C61.7142 63.9039 55.5971 73.4371 50.1454 73.4371V78.4943H23.9301V73.5982C23.9301 73.5982 20.1386 71.5248 18.6968 67.5183C17.612 64.5063 17.5115 61.7746 17.0921 57.9396C17.0263 57.3267 16.9812 56.7103 16.957 56.0939L16.3955 45.2755H50.485" stroke="#20335B" stroke-width="2" stroke-miterlimit="10" stroke-linecap="round" stroke-linejoin="round"/>
<path d="M25.3633 43.4675V46.8086C25.3633 50.0587 26.8778 52.6889 30.0941 52.6889C33.3103 52.6889 34.8249 50.0552 34.8249 46.8086V43.4675V42.2417V39.601C34.8249 36.3509 33.3103 33.7207 30.0941 33.7207C26.8778 33.7207 25.3633 36.3544 25.3633 39.601V42.2417V43.4675V43.4675Z" fill="white" stroke="#20335B" stroke-width="2" stroke-miterlimit="10" stroke-linecap="round" stroke-linejoin="round"/>
<path d="M16 43.4675V46.8086C16 50.0587 17.5146 52.6889 20.7308 52.6889C23.9471 52.6889 25.4616 50.0552 25.4616 46.8086V43.4675V42.2417V39.601C25.4616 36.3509 23.9471 33.7207 20.7308 33.7207C17.5146 33.7207 16 36.3544 16 39.601V42.2417V43.4675Z" fill="white" stroke="#20335B" stroke-width="2" stroke-miterlimit="10" stroke-linecap="round" stroke-linejoin="round"/>
<path d="M49.0112 54.1362L38.2153 54.3498C37.0092 54.3498 35.1723 53.8665 34.3197 53.0014C32.5071 51.1698 32.8121 48.3434 34.3128 46.4242C36.063 44.1898 38.7802 44.3299 41.338 44.3299C43.719 44.3299 46.9872 44.3299 52.0923 44.3299" fill="white"/>
<path d="M49.0112 54.1362L38.2153 54.3498C37.0092 54.3498 35.1723 53.8665 34.3197 53.0014C32.5071 51.1698 32.8121 48.3434 34.3128 46.4242C36.063 44.1898 38.7802 44.3299 41.338 44.3299C43.719 44.3299 46.9872 44.3299 52.0923 44.3299" stroke="#20335B" stroke-width="2" stroke-miterlimit="10" stroke-linecap="round" stroke-linejoin="round"/>
<defs>
<linearGradient id="paint0_linear_1071_16478" x1="57.2871" y1="21.8594" x2="57.2871" y2="76.8184" gradientUnits="userSpaceOnUse">
<stop stop-color="#E9E9E9"/>
<stop offset="1" stop-color="#B8CAFF"/>
<stop offset="1" stop-color="#B8CAFF"/>
</linearGradient>
</defs>
</svg>
