<svg width="100" height="100" viewBox="0 0 100 100" fill="none" xmlns="http://www.w3.org/2000/svg">
<path d="M57.298 33.3496H60.9845C61.356 33.3496 61.7132 33.4282 62.0419 33.5639C62.3634 33.6997 62.6563 33.8997 62.8992 34.1426C63.1421 34.3855 63.3421 34.6785 63.4779 35C63.6136 35.3286 63.6922 35.6787 63.6922 36.0573V43.366V50.6747V57.9834V65.2921C63.6922 65.6636 63.6136 66.0208 63.4779 66.3494C63.3421 66.6709 63.1421 66.9638 62.8992 67.2068C62.6563 67.4497 62.3634 67.6497 62.0419 67.7854C61.7204 67.9212 61.3632 67.9998 60.9845 67.9998H55.4905H49.9965H44.5024H39.0156C38.6369 67.9998 38.2869 67.9212 37.9582 67.7854C37.6367 67.6497 37.3438 67.4497 37.1009 67.2068C36.858 66.9638 36.6579 66.6709 36.5222 66.3494C36.3864 66.0279 36.3079 65.6707 36.3079 65.2921V57.9834V50.6747V43.366V36.0573C36.3079 35.6858 36.3864 35.3286 36.5222 35C36.6579 34.6785 36.858 34.3855 37.1009 34.1426C37.3438 33.8997 37.6367 33.6997 37.9582 33.5639C38.2797 33.4282 38.6369 33.3496 39.0156 33.3496H42.7021" stroke="#1768C7" stroke-width="2.4" stroke-linecap="round" stroke-linejoin="round"/>
<path d="M53.6972 34.8792C53.6972 35.6293 53.0113 36.2438 52.1683 36.2438H47.8316C46.9886 36.2438 46.3027 35.6365 46.3027 34.8792V33.3646C46.3027 32.6144 46.9886 32 47.8316 32H52.1683C53.0113 32 53.6972 32.6073 53.6972 33.3646V34.8792Z" stroke="#1768C7" stroke-width="2.4" stroke-linecap="round" stroke-linejoin="round"/>
<path d="M46.0315 47.2031H53.9689" stroke="#777777" stroke-width="2.4" stroke-linecap="round" stroke-linejoin="round"/>
<path d="M46.0315 52.0762H53.9689" stroke="#777777" stroke-width="2.4" stroke-linecap="round" stroke-linejoin="round"/>
<path d="M46.0315 56.9561H53.9689" stroke="#777777" stroke-width="2.4" stroke-linecap="round" stroke-linejoin="round"/>
</svg>
