<svg width="90" height="91" viewBox="0 0 90 91" fill="none" xmlns="http://www.w3.org/2000/svg">
<path d="M57.765 31.3042V27.2344H31.1422C30.613 27.2317 30.0887 27.3375 29.602 27.5453C29.1315 27.7432 28.7042 28.0313 28.3443 28.3932C27.9758 28.7584 27.6837 29.1932 27.4848 29.6723C27.2858 30.1514 27.1841 30.6653 27.1856 31.184V58.7818C27.1841 58.2631 27.2858 57.7492 27.4848 57.2701C27.6837 56.791 27.9758 56.3562 28.3443 55.991C28.7042 55.6291 29.1315 55.341 29.602 55.1431C30.0887 54.9353 30.613 54.8295 31.1422 54.8322H57.765V48.6358" stroke="#777777" stroke-width="2.4" stroke-linecap="round" stroke-linejoin="round"/>
<path d="M27.1855 58.7824V59.284C27.1874 60.3322 27.6051 61.3368 28.3469 62.0773C29.0887 62.8178 30.0941 63.2337 31.1422 63.2337H57.765V54.8398H31.1422C30.0953 54.8398 29.091 55.2548 28.3494 55.9937C27.6078 56.7327 27.1893 57.7355 27.1855 58.7824V58.7824Z" stroke="#777777" stroke-width="2.4" stroke-linecap="round" stroke-linejoin="round"/>
<path d="M54.6355 45.9737C53.4227 46.6406 52.0804 47.0382 50.7001 47.1395L48.0647 47.2313C46.8988 47.2737 46.4184 46.4753 46.9978 45.4649L48.3119 43.1757C49.0372 42.0084 50.0001 41.0069 51.1381 40.2365L54.8617 37.9967L58.4933 35.8064L62.2097 33.5667C63.213 32.959 64.4142 33.1145 64.8947 33.9058L66.6186 36.7744C67.0991 37.5587 66.6681 38.6962 65.6718 39.2968L62.0049 41.5436L58.3732 43.7339L54.6355 45.9737Z" stroke="#1768C7" stroke-width="2.4" stroke-linecap="round" stroke-linejoin="round"/>
<path d="M32.3574 35.1074H39.6349" stroke="#777777" stroke-width="2.4" stroke-linecap="round" stroke-linejoin="round"/>
</svg>
