<svg width="50" height="50" viewBox="0 0 50 50" fill="none" xmlns="http://www.w3.org/2000/svg">
<path d="M13.7502 32.9744C14.9558 33.6409 23.6824 38.6714 29.8877 34.7943C36.0929 30.9172 35.7506 24.2376 35.7506 21.1768C36.3127 19.9992 37.5002 19.4005 37.5002 16.2129C36.3338 17.2904 35.1744 17.657 34.0221 17.3128C32.8932 15.5915 31.3399 14.8302 29.3624 15.0289C26.3961 15.3269 25.3108 18.2371 25.6302 22.0022C21.0564 24.3152 17.4699 20.3255 15.6216 17.3128C15.004 19.6855 14.4086 22.534 15.6216 25.6852C16.4303 27.786 18.3743 29.562 21.4536 31.0134C18.3329 32.7048 15.7651 33.3584 13.7502 32.9744Z" fill="white"/>
</svg>
