<svg width="80" height="80" viewBox="0 0 80 80" fill="none" xmlns="http://www.w3.org/2000/svg">
<path d="M52.36 29.0066C52.36 31.5732 50.2826 33.6441 47.7161 33.6441C45.156 33.6441 43.0723 31.5668 43.0723 29.0066C43.0723 26.4401 45.1496 24.3628 47.7161 24.3628C50.2826 24.3628 52.36 26.4401 52.36 29.0066Z" stroke="#777777" stroke-width="2" stroke-linecap="round" stroke-linejoin="round"/>
<path d="M39.4453 40.6072C39.4453 39.5018 39.8964 38.4981 40.6206 37.7675C41.3448 37.0433 42.3485 36.5923 43.4602 36.5923H47.7229H51.9856C53.0974 36.5923 54.0947 37.0433 54.8253 37.7675C55.5495 38.4918 56.0006 39.4955 56.0006 40.6072V44.476V48.3449H44.0892" stroke="#777777" stroke-width="2" stroke-linecap="round" stroke-linejoin="round"/>
<path d="M36.9205 36.2928C36.9205 38.8593 34.8432 40.9303 32.2767 40.9303C29.7165 40.9303 27.6328 38.8529 27.6328 36.2928C27.6328 33.7263 29.7102 31.6489 32.2767 31.6489C34.8432 31.6489 36.9205 33.7263 36.9205 36.2928Z" stroke="#4493F1" stroke-width="2" stroke-linecap="round" stroke-linejoin="round"/>
<path d="M36.5403 43.8789H28.0149C25.7978 43.8789 24 45.6767 24 47.8938V55.6378H40.5552V47.8938C40.5552 45.6767 38.7574 43.8789 36.5403 43.8789Z" stroke="#4493F1" stroke-width="2" stroke-linecap="round" stroke-linejoin="round"/>
</svg>
