<svg width="80" height="80" viewBox="0 0 80 80" fill="none" xmlns="http://www.w3.org/2000/svg">
<path d="M32.8199 57.8537V53.9419V50.0302H31.177H29.5341C28.4459 50.0302 27.4644 49.5892 26.7531 48.878C26.0419 48.1668 25.601 47.1853 25.601 46.0971V44.319V42.5481H24.0505H22.5L24.399 37.4059L26.298 32.2566C27.0803 29.1627 28.8726 26.4672 31.305 24.5469C33.7374 22.6265 37.0465 21.4791 40.1456 21.4815C44.9099 21.0536 54.4386 23.434 54.4386 36.3784" stroke="#777777" stroke-width="2" stroke-linecap="round" stroke-linejoin="round"/>
<path d="M55.1905 55.4824V51.6641C55.1905 49.583 53.5034 47.896 51.4224 47.896C49.3413 47.896 47.6543 49.583 47.6543 51.6641V55.4824" stroke="#777777" stroke-width="2" stroke-linecap="round" stroke-linejoin="round"/>
<path d="M56.7563 58.5645H46.0879" stroke="#4493F1" stroke-width="2" stroke-linecap="round" stroke-linejoin="round"/>
<path d="M51.4199 43.1035V44.5925" stroke="#4493F1" stroke-width="2" stroke-linecap="round" stroke-linejoin="round"/>
<path d="M45.3418 44.6592L46.0863 45.9487" stroke="#4493F1" stroke-width="2" stroke-linecap="round" stroke-linejoin="round"/>
<path d="M56.7539 45.9487L57.4984 44.6592" stroke="#4493F1" stroke-width="2" stroke-linecap="round" stroke-linejoin="round"/>
</svg>
