<svg width="80" height="80" viewBox="0 0 80 80" fill="none" xmlns="http://www.w3.org/2000/svg">
<path d="M51.9563 43.4639C51.9563 50.0655 46.6013 55.4205 39.9996 55.4205C33.398 55.4205 28.043 50.0655 28.043 43.4639" stroke="#777777" stroke-width="2" stroke-miterlimit="10" stroke-linecap="round" stroke-linejoin="round"/>
<path d="M42.4791 56.9506H37.5066C36.6566 56.9506 35.9766 56.2706 35.9766 55.4206C35.9766 54.5706 36.6566 53.8906 37.5066 53.8906H42.4791C43.3291 53.8906 44.0091 54.5706 44.0091 55.4206C44.0091 56.2706 43.3291 56.9506 42.4791 56.9506Z" stroke="#777777" stroke-width="2" stroke-miterlimit="10" stroke-linecap="round" stroke-linejoin="round"/>
<path d="M53.5008 38.5767H26.4992C25.1533 38.5767 24.0625 39.6675 24.0625 41.0133C24.0625 42.3592 25.1533 43.45 26.4992 43.45H53.4867C54.8325 43.45 55.9233 42.3592 55.9233 41.0133C55.9375 39.6675 54.8467 38.5767 53.5008 38.5767Z" stroke="#4493F1" stroke-width="2" stroke-miterlimit="10" stroke-linecap="round" stroke-linejoin="round"/>
<path d="M43.2578 24.9341C49.137 26.3932 53.5003 31.7057 53.5003 38.0382" stroke="#4493F1" stroke-width="2" stroke-miterlimit="10" stroke-linecap="round" stroke-linejoin="round"/>
<path d="M26.5 38.0382C26.5 31.8049 30.7217 26.5632 36.4592 25.019" stroke="#4493F1" stroke-width="2" stroke-miterlimit="10" stroke-linecap="round" stroke-linejoin="round"/>
<path d="M37.1387 38.5765V25.9115C37.1387 24.3248 38.4278 23.0498 40.0003 23.0498C41.587 23.0498 42.862 24.339 42.862 25.9115V38.5765" stroke="#4493F1" stroke-width="2" stroke-miterlimit="10" stroke-linecap="round" stroke-linejoin="round"/>
</svg>
