<svg width="330" height="150" viewBox="0 0 330 150" fill="none" xmlns="http://www.w3.org/2000/svg">
<path d="M103.119 91.7472L92.4125 108L81.7061 91.7472L92.4125 75.4941L103.119 91.7472Z" fill="#0082CB"/>
<path d="M103.119 91.7472L113.826 108L124.52 91.7472L113.826 75.4941L103.119 91.7472Z" fill="#0082CB"/>
<path d="M92.4131 75.4932L103.12 91.7463L113.826 75.4932L103.12 59.2402L92.4131 75.4932Z" fill="#0082CB"/>
<path d="M81.7064 91.7461L71 107.987H92.4129L81.7064 91.7461Z" fill="#0082CB"/>
<path d="M124.521 91.7461L113.826 107.987H135.227L124.521 91.7461Z" fill="#0082CB"/>
<path d="M103.119 91.7472L92.4125 108L81.7061 91.7472L92.4125 75.4941L103.119 91.7472Z" fill="#00A0D8"/>
<path d="M103.119 91.7472L113.826 108L124.52 91.7472L113.826 75.4941L103.119 91.7472Z" fill="#00A0D8"/>
<path d="M92.4131 75.4932L103.12 91.7463L113.826 75.4932L103.12 59.2402L92.4131 75.4932Z" fill="#62B9E3"/>
<path d="M81.7064 91.7461L71 107.987H92.4129L81.7064 91.7461Z" fill="#0082CB"/>
<path d="M124.521 91.7461L113.826 107.987H135.227L124.521 91.7461Z" fill="#0082CB"/>
<path d="M135.227 59.2409L124.533 43L113.826 59.2409H135.227Z" fill="#62B9E3"/>
<path d="M113.826 59.2539L124.533 75.4948L135.227 59.2539H113.826Z" fill="#00A0D8"/>
<path d="M171.78 82.2363H166.85L157.98 92.6286H155.322V82.2363H151.552V107.649H155.322V96.3505H157.98L167.684 107.649H172.626L161.328 94.4774L171.78 82.2363Z" fill="black"/>
<path d="M234.654 82.2363H230.884V107.649H234.654V82.2363Z" fill="black"/>
<path d="M252.405 97.293C255.534 96.2055 257.589 93.4261 257.589 90.0426C257.589 85.5232 254.121 82.2363 249.335 82.2363H239.729V107.649H243.499V97.8005H248.344L254.229 107.649H258.592L252.405 97.293ZM243.511 85.9703H249.299C251.958 85.9703 253.806 87.6379 253.806 90.0305C253.806 92.4111 251.946 94.0666 249.299 94.0666H243.511V85.9703Z" fill="black"/>
<path d="M222.824 82.2363L213.822 101.293L204.819 82.2363H201.858V107.649H205.689V92.8582L212.758 107.649H214.885L221.954 92.8582V107.649H225.773V82.2363H222.824Z" fill="black"/>
<path d="M185.049 81.8984C177.847 81.8984 171.998 87.735 171.998 94.9492C171.998 102.163 177.835 108 185.049 108C192.251 108 198.1 102.163 198.1 94.9492C198.1 87.735 192.251 81.8984 185.049 81.8984ZM185.049 104.483C179.78 104.483 175.515 100.218 175.515 94.9492C175.515 89.6806 179.78 85.4149 185.049 85.4149C190.317 85.4149 194.583 89.6806 194.583 94.9492C194.583 100.218 190.317 104.483 185.049 104.483Z" fill="black"/>
<path d="M174.62 66.3575C174.62 66.6233 174.596 66.9133 174.559 67.2275C174.523 67.5417 174.463 67.88 174.39 68.2426L175.393 68.3634C175.429 68.2063 175.466 68.0492 175.49 67.868C175.526 67.6867 175.55 67.5054 175.562 67.3121C175.587 67.1187 175.599 66.9254 175.611 66.7441C175.623 66.5508 175.623 66.3816 175.623 66.2125V65.0645H170.946V65.9466H174.608V66.3575H174.62Z" fill="#101820"/>
<path d="M177.098 71.1064C176.844 70.9614 176.53 70.8406 176.168 70.756C175.805 70.6714 175.394 70.623 174.947 70.623C174.488 70.623 174.077 70.6714 173.715 70.756C173.352 70.8406 173.038 70.9614 172.772 71.1064C172.518 71.2514 172.313 71.4327 172.18 71.6381C172.047 71.8435 171.975 72.0731 171.975 72.3269V72.6532C171.975 72.8948 172.047 73.1244 172.18 73.342C172.313 73.5474 172.518 73.7286 172.772 73.8737C173.026 74.0187 173.34 74.1395 173.715 74.2241C174.077 74.3087 174.488 74.357 174.947 74.357C175.406 74.357 175.805 74.3087 176.168 74.2241C176.53 74.1395 176.844 74.0187 177.098 73.8737C177.352 73.7286 177.557 73.5474 177.69 73.342C177.823 73.1365 177.896 72.9069 177.896 72.6532V72.3269C177.896 72.0852 177.823 71.8556 177.69 71.6381C177.557 71.4327 177.352 71.2635 177.098 71.1064ZM176.905 72.6048C176.905 72.7136 176.857 72.8223 176.772 72.9311C176.687 73.0399 176.554 73.1486 176.385 73.2453C176.216 73.342 176.011 73.4145 175.769 73.4749C175.527 73.5353 175.249 73.5595 174.923 73.5595C174.609 73.5595 174.331 73.5353 174.077 73.4749C173.836 73.4145 173.63 73.342 173.461 73.2453C173.292 73.1486 173.171 73.0519 173.074 72.9311C172.99 72.8223 172.941 72.7136 172.941 72.6048V72.3994C172.941 72.2906 172.99 72.194 173.074 72.0731C173.159 71.9644 173.292 71.8556 173.461 71.7589C173.63 71.6623 173.836 71.5898 174.077 71.5293C174.319 71.4689 174.597 71.4448 174.923 71.4448C175.237 71.4448 175.515 71.4689 175.769 71.5293C176.011 71.5898 176.216 71.6623 176.385 71.7589C176.554 71.8556 176.675 71.9523 176.772 72.0731C176.857 72.1819 176.905 72.2906 176.905 72.3994V72.6048Z" fill="#101820"/>
<path d="M177.895 64.6289H176.88V70.3688H177.895V68.0004H179.236V67.1182H177.895V64.6289Z" fill="#101820"/>
<path d="M176.372 69.1139H173.267V67.1562H172.251V69.1139H170.33V69.996H176.372V69.1139Z" fill="#101820"/>
<path d="M194.088 66.3575C194.088 66.6233 194.063 66.9133 194.027 67.2275C193.991 67.5417 193.93 67.88 193.858 68.2426L194.861 68.3634C194.897 68.2063 194.933 68.0492 194.958 67.868C194.994 67.6867 195.018 67.5054 195.03 67.3121C195.054 67.1187 195.066 66.9254 195.078 66.7441C195.091 66.5508 195.091 66.3816 195.091 66.2125V65.0645H190.414V65.9466H194.076V66.3575H194.088Z" fill="#101820"/>
<path d="M196.552 71.1064C196.299 70.9614 195.984 70.8406 195.622 70.756C195.259 70.6714 194.848 70.623 194.401 70.623C193.942 70.623 193.531 70.6714 193.169 70.756C192.806 70.8406 192.492 70.9614 192.226 71.1064C191.972 71.2514 191.767 71.4327 191.634 71.6381C191.501 71.8435 191.429 72.0731 191.429 72.3269V72.6532C191.429 72.8948 191.501 73.1244 191.634 73.342C191.767 73.5595 191.972 73.7286 192.226 73.8737C192.48 74.0187 192.794 74.1395 193.169 74.2241C193.531 74.3087 193.942 74.357 194.401 74.357C194.861 74.357 195.259 74.3087 195.622 74.2241C195.984 74.1395 196.299 74.0187 196.552 73.8737C196.806 73.7286 197.012 73.5474 197.144 73.342C197.289 73.1365 197.35 72.9069 197.35 72.6532V72.3269C197.35 72.0852 197.277 71.8556 197.144 71.6381C197.012 71.4327 196.818 71.2635 196.552 71.1064ZM196.371 72.6048C196.371 72.7136 196.323 72.8223 196.238 72.9311C196.154 73.0399 196.021 73.1486 195.851 73.2453C195.682 73.342 195.477 73.4145 195.235 73.4749C194.993 73.5353 194.716 73.5595 194.389 73.5595C194.075 73.5595 193.797 73.5353 193.543 73.4749C193.302 73.4145 193.096 73.342 192.927 73.2453C192.758 73.1486 192.637 73.0519 192.54 72.9311C192.456 72.8223 192.408 72.7136 192.408 72.6048V72.3994C192.408 72.2906 192.456 72.194 192.54 72.0731C192.625 71.9644 192.758 71.8556 192.927 71.7589C193.096 71.6623 193.302 71.5898 193.543 71.5293C193.785 71.4689 194.063 71.4448 194.389 71.4448C194.703 71.4448 194.981 71.4689 195.235 71.5293C195.477 71.5898 195.682 71.6623 195.851 71.7589C196.021 71.8556 196.141 71.9523 196.238 72.0731C196.323 72.1819 196.371 72.2906 196.371 72.3994V72.6048Z" fill="#101820"/>
<path d="M197.364 64.6289H196.349V70.3688H197.364V68.0004H198.693V67.1182H197.364V64.6289Z" fill="#101820"/>
<path d="M195.839 69.1139H192.734L192.722 67.1562H191.719V69.1139H189.785V69.996H195.839V69.1139Z" fill="#101820"/>
<path d="M158.948 64.6289H157.945V71.5289H158.948V68.3387H160.302V67.4566H158.948V64.6289Z" fill="#101820"/>
<path d="M154.163 71.4102H153.147V74.0324H159.214V73.1503H154.163V71.4102Z" fill="#101820"/>
<path d="M154.295 70.7202C154.669 70.7202 154.984 70.6718 155.261 70.5751C155.539 70.4785 155.769 70.3456 155.95 70.1764C156.132 70.0072 156.277 69.8259 156.373 69.6205C156.47 69.4151 156.518 69.1976 156.518 68.9801V68.6659C156.518 68.4484 156.47 68.2309 156.373 68.0254C156.277 67.82 156.144 67.6267 155.95 67.4696C155.769 67.3004 155.539 67.1675 155.261 67.0708C154.984 66.9741 154.657 66.9258 154.295 66.9258C153.92 66.9258 153.606 66.9741 153.328 67.0708C153.05 67.1675 152.821 67.3004 152.639 67.4575C152.458 67.6146 152.313 67.8079 152.216 68.0133C152.12 68.2188 152.071 68.4363 152.071 68.6659V68.9801C152.071 69.1976 152.12 69.4151 152.216 69.6205C152.313 69.8259 152.446 70.0193 152.639 70.1764C152.821 70.3456 153.05 70.4785 153.328 70.5751C153.594 70.6718 153.92 70.7202 154.295 70.7202ZM153.038 68.9196V68.7142C153.038 68.5934 153.062 68.4725 153.11 68.3517C153.159 68.2308 153.243 68.1221 153.34 68.0375C153.449 67.9408 153.57 67.8683 153.727 67.82C153.884 67.7596 154.065 67.7354 154.283 67.7354C154.5 67.7354 154.681 67.7596 154.839 67.82C154.996 67.8804 155.116 67.9529 155.225 68.0375C155.334 68.1342 155.406 68.2308 155.455 68.3517C155.503 68.4725 155.527 68.5934 155.527 68.7142V68.9196C155.527 69.0405 155.503 69.1613 155.455 69.2822C155.406 69.403 155.322 69.5118 155.225 69.5963C155.116 69.693 154.996 69.7655 154.839 69.8139C154.681 69.8743 154.5 69.8984 154.295 69.8984C154.089 69.8984 153.908 69.8743 153.751 69.8139C153.594 69.7534 153.461 69.6809 153.364 69.5963C153.256 69.4997 153.183 69.3909 153.135 69.2822C153.062 69.1613 153.038 69.0405 153.038 68.9196Z" fill="#101820"/>
<path d="M157.015 65.6808H154.791V64.5449H153.788V65.6808H151.553V66.5509H157.015V65.6808Z" fill="#101820"/>
<path d="M168.096 67.2894C168.132 66.9269 168.144 66.5885 168.144 66.3106V65.0176H161.885V65.8876H167.117V66.2743C167.117 66.5885 167.105 66.9148 167.069 67.2773C167.033 67.6398 166.972 68.0144 166.888 68.4011H160.749V69.2712H164.568V70.9267H161.873V71.7967H167.238V74.2619H168.253V70.9267H165.595V69.2712H169.474V68.4011H167.951C168.012 68.0265 168.06 67.6519 168.096 67.2894Z" fill="#101820"/>
<path d="M184.082 68.1223C183.901 67.9531 183.671 67.8202 183.417 67.7114C183.163 67.6147 182.873 67.5664 182.559 67.5664C182.245 67.5664 181.955 67.6147 181.701 67.7114C181.448 67.8081 181.218 67.941 181.037 68.1223C180.855 68.2914 180.71 68.4848 180.614 68.7144C180.517 68.9319 180.469 69.1736 180.469 69.4153V69.9107C180.469 70.1524 180.517 70.3941 180.614 70.6116C180.71 70.8291 180.855 71.0224 181.037 71.2037C181.218 71.3729 181.448 71.5058 181.701 71.6145C181.955 71.7112 182.245 71.7596 182.559 71.7596C182.873 71.7596 183.163 71.7112 183.417 71.6145C183.671 71.5179 183.901 71.385 184.082 71.2037C184.263 71.0345 184.408 70.8412 184.505 70.6116C184.601 70.3941 184.65 70.1524 184.65 69.9107V69.4153C184.65 69.1736 184.601 68.9319 184.505 68.7144C184.408 68.4848 184.263 68.2914 184.082 68.1223ZM183.744 69.8503C183.744 69.9711 183.719 70.092 183.671 70.2249C183.623 70.3457 183.538 70.4666 183.441 70.5632C183.345 70.672 183.212 70.7445 183.067 70.817C182.922 70.8774 182.753 70.9137 182.559 70.9137C182.366 70.9137 182.197 70.8774 182.052 70.817C181.907 70.7566 181.786 70.672 181.677 70.5632C181.58 70.4545 181.508 70.3457 181.448 70.2249C181.399 70.104 181.375 69.9832 181.375 69.8503V69.4636C181.375 69.3427 181.399 69.2219 181.448 69.089C181.496 68.9681 181.58 68.8473 181.677 68.7506C181.774 68.6419 181.895 68.5694 182.052 68.4969C182.197 68.4365 182.366 68.4002 182.559 68.4002C182.753 68.4002 182.922 68.4365 183.067 68.4969C183.212 68.5573 183.333 68.6419 183.441 68.7506C183.538 68.8594 183.611 68.9681 183.671 69.089C183.719 69.2098 183.744 69.3307 183.744 69.4636V69.8503Z" fill="#101820"/>
<path d="M183.02 64.8965H182.017V66.2257H180.107V67.0837H184.808V66.2257H183.02V64.8965Z" fill="#101820"/>
<path d="M187.442 68.1574H186.415V64.6289H185.424V74.139H186.415V69.0396H187.442V74.139H188.445V64.6289H187.442V68.1574Z" fill="#101820"/>
<path d="M206.101 71.1674H202.198V69.959H201.183V74.1401H207.116V69.959H206.101V71.1674V71.1674ZM206.101 73.27H202.198V72.0254H206.101V73.27Z" fill="#101820"/>
<path d="M206.099 66.6956H204.166C204.13 66.4781 204.057 66.2606 203.948 66.0552C203.84 65.8498 203.682 65.6685 203.489 65.4993C203.296 65.3422 203.054 65.2093 202.788 65.1126C202.51 65.016 202.196 64.9676 201.846 64.9676C201.459 64.9676 201.109 65.028 200.819 65.1368C200.528 65.2576 200.275 65.4026 200.081 65.596C199.888 65.7893 199.743 65.9948 199.634 66.2364C199.538 66.4781 199.489 66.7077 199.489 66.9494V67.3361C199.489 67.5778 199.538 67.8195 199.634 68.049C199.731 68.2907 199.876 68.4962 200.081 68.6895C200.275 68.8828 200.528 69.0279 200.819 69.1487C201.109 69.2695 201.459 69.3179 201.846 69.3179C202.208 69.3179 202.522 69.2695 202.8 69.1729C203.078 69.0762 203.32 68.9433 203.513 68.7741C203.707 68.6049 203.864 68.4237 203.972 68.2061C204.081 67.9886 204.154 67.7711 204.178 67.5536H206.111V69.487H207.126V64.6172H206.111V66.6956H206.099ZM203.211 67.2878C203.211 67.4328 203.175 67.5778 203.114 67.7107C203.054 67.8436 202.957 67.9765 202.849 68.0853C202.728 68.1941 202.583 68.2907 202.414 68.3511C202.244 68.4237 202.051 68.4599 201.821 68.4599C201.604 68.4599 201.411 68.4237 201.229 68.3511C201.06 68.2786 200.915 68.1941 200.794 68.0853C200.674 67.9765 200.589 67.8557 200.529 67.7107C200.468 67.5778 200.432 67.4328 200.432 67.2878V66.9977C200.432 66.8527 200.468 66.7077 200.529 66.5748C200.589 66.4419 200.674 66.321 200.794 66.2123C200.915 66.1035 201.06 66.0189 201.229 65.9464C201.399 65.8739 201.592 65.8377 201.821 65.8377C202.039 65.8377 202.232 65.8739 202.414 65.9464C202.583 66.0189 202.728 66.1035 202.849 66.2123C202.969 66.321 203.054 66.4419 203.114 66.5748C203.175 66.7077 203.211 66.8527 203.211 66.9977V67.2878Z" fill="#101820"/>
<path d="M214.703 71.0103C214.437 70.8532 214.123 70.7445 213.76 70.6599C213.398 70.5874 213.011 70.5391 212.588 70.5391C212.165 70.5391 211.778 70.5753 211.416 70.6599C211.053 70.7445 210.739 70.8532 210.473 71.0103C210.207 71.1674 209.99 71.3487 209.845 71.5541C209.688 71.7716 209.615 72.0133 209.615 72.2913V72.6659C209.615 72.9438 209.688 73.1855 209.845 73.403C209.99 73.6205 210.207 73.8018 210.473 73.9468C210.739 74.0918 211.053 74.2126 211.416 74.2851C211.778 74.3697 212.165 74.406 212.588 74.406C213.011 74.406 213.398 74.3697 213.76 74.2851C214.123 74.2005 214.437 74.0918 214.703 73.9468C214.968 73.8018 215.186 73.6205 215.331 73.403C215.476 73.1855 215.561 72.9438 215.561 72.6659V72.2913C215.561 72.0133 215.488 71.7716 215.331 71.5541C215.186 71.3487 214.968 71.1674 214.703 71.0103ZM214.546 72.6054C214.546 72.7384 214.497 72.8713 214.388 72.9921C214.28 73.113 214.147 73.2096 213.965 73.2942C213.796 73.3788 213.579 73.4513 213.349 73.4997C213.108 73.548 212.854 73.5722 212.576 73.5722C212.298 73.5722 212.044 73.548 211.802 73.4997C211.561 73.4513 211.355 73.3788 211.186 73.2942C211.017 73.2096 210.872 73.1009 210.763 72.9921C210.654 72.8713 210.606 72.7504 210.606 72.6054V72.3638C210.606 72.2308 210.654 72.11 210.763 71.9892C210.872 71.8683 211.005 71.7716 211.186 71.675C211.367 71.5904 211.573 71.5179 211.802 71.4695C212.044 71.4212 212.298 71.397 212.576 71.397C212.854 71.397 213.108 71.4212 213.349 71.4695C213.591 71.5179 213.796 71.5904 213.965 71.675C214.135 71.7596 214.28 71.8683 214.388 71.9892C214.497 72.11 214.546 72.2308 214.546 72.3638V72.6054Z" fill="#101820"/>
<path d="M214.619 66.2244C214.619 66.5023 214.606 66.8286 214.57 67.179C214.534 67.5295 214.474 67.9041 214.389 68.3028L215.404 68.4116C215.44 68.2303 215.489 68.0249 215.513 67.8195C215.549 67.614 215.573 67.4086 215.597 67.2032C215.621 67.0098 215.634 66.8165 215.646 66.6352C215.658 66.4661 215.658 66.3211 215.658 66.2123V65.0039H209.374V65.8739H214.619V66.2244V66.2244Z" fill="#101820"/>
<path d="M212.577 67.1426H211.55V69.0035H208.227V69.8736H216.951V69.0035H212.577V67.1426Z" fill="#101820"/>
<path d="M225.143 67.1061V64.6289H224.128V71.4201H225.143V67.9883H226.484V67.1061H225.143Z" fill="#101820"/>
<path d="M220.358 70.877H219.331V74.0309H225.397V73.1488H220.358V70.877Z" fill="#101820"/>
<path d="M223.367 68.9921H219.077V66.1282H222.473V65.2461H218.074V69.8743H223.367V68.9921Z" fill="#101820"/>
</svg>
