<svg width="330" height="250" viewBox="0 0 330 250" fill="none" xmlns="http://www.w3.org/2000/svg">
<path d="M165 25C109.857 25 65 69.8573 65 125C65 180.143 109.857 225 165 225C220.143 225 265 180.143 265 125C265 69.8573 220.143 25 165 25ZM165 198.503C124.47 198.503 91.4973 165.53 91.4973 125C91.4973 84.4701 124.47 51.4973 165 51.4973C205.53 51.4973 238.503 84.4701 238.503 125C238.503 165.53 205.53 198.503 165 198.503Z" fill="#0082CB"/>
<path d="M115.641 48.9402L108.601 53.7223L107.849 52.6091L110.718 50.6649L109.714 49.1911L111.016 48.3131L112.019 49.7869L114.873 47.8427L115.641 48.9402ZM115.798 56.717C115.312 57.0462 114.857 57.2657 114.418 57.3755C113.979 57.4852 113.571 57.5166 113.179 57.4695C112.803 57.4225 112.458 57.2971 112.145 57.1089C111.847 56.9208 111.596 56.6856 111.408 56.4034L111.141 55.9957C110.937 55.7135 110.812 55.3843 110.749 55.0236C110.686 54.6787 110.702 54.3181 110.796 53.9418C110.89 53.5655 111.078 53.2049 111.345 52.8286C111.612 52.4523 111.988 52.1074 112.458 51.7781C112.944 51.4488 113.399 51.2293 113.838 51.1196C114.277 51.0098 114.7 50.9785 115.077 51.0255C115.453 51.0726 115.798 51.198 116.111 51.3861C116.409 51.5743 116.66 51.8095 116.848 52.0917L117.115 52.4837C117.303 52.7659 117.444 53.0795 117.507 53.4401C117.57 53.785 117.554 54.1613 117.46 54.5376C117.366 54.9139 117.178 55.2902 116.911 55.6508C116.644 56.0428 116.284 56.3877 115.798 56.717ZM115.092 55.6665C115.359 55.494 115.563 55.2902 115.719 55.0864C115.876 54.8825 115.986 54.663 116.033 54.4592C116.08 54.2554 116.096 54.0515 116.049 53.8477C116.017 53.6439 115.939 53.4714 115.829 53.3146L115.641 53.0481C115.531 52.8913 115.39 52.7502 115.218 52.6404C115.045 52.5307 114.857 52.468 114.638 52.4366C114.418 52.4053 114.199 52.4209 113.948 52.4837C113.697 52.5464 113.446 52.6718 113.164 52.86C112.897 53.0481 112.678 53.2362 112.521 53.4557C112.364 53.6596 112.27 53.8791 112.223 54.0829C112.176 54.2867 112.16 54.4906 112.207 54.6944C112.239 54.8982 112.317 55.0707 112.427 55.2275L112.599 55.494C112.709 55.6508 112.85 55.7919 113.023 55.9017C113.195 56.0114 113.383 56.0741 113.603 56.1055C113.822 56.1368 114.057 56.1212 114.308 56.0428C114.559 55.9644 114.826 55.8389 115.092 55.6665ZM117.742 59.9625L124.249 55.541L125.033 56.6856L117.225 61.9851L114.92 58.5984L116.221 57.7204L117.742 59.9625ZM121.458 48.3758L119.718 49.5517L122.508 53.6596L121.207 54.5376L115.155 45.632L116.456 44.7383L118.934 48.3915L120.674 47.2155L121.458 48.3758Z" fill="white"/>
<path d="M125.739 50.7281L129.564 48.9878L128.498 46.6516L123.073 49.1132L122.509 47.8746L131.226 43.9235C131.101 43.312 130.96 42.7476 130.772 42.2145C130.583 41.6814 130.395 41.1954 130.191 40.7563L129.941 40.2233L122.509 43.5942L121.944 42.3713L130.834 38.3418L131.665 40.1762C131.853 40.5839 132.042 41.0699 132.23 41.603C132.418 42.1518 132.575 42.7005 132.716 43.265L134.879 42.2772L135.444 43.5158L129.941 46.0088L131.007 48.3449L134.77 46.6359L136.918 51.371L135.475 52.0295L133.892 48.5331L126.272 51.9824L125.739 50.7281Z" fill="white"/>
<path d="M142.296 39.9883C142.264 39.4238 142.217 38.8908 142.154 38.389C142.092 37.8873 141.998 37.4483 141.904 37.0563L141.747 36.4292L136.212 37.856L135.867 36.5546L142.923 34.7202L143.362 36.4292C143.424 36.68 143.487 36.9466 143.55 37.2445C143.613 37.5424 143.66 37.8246 143.707 38.1225C143.754 38.4204 143.785 38.7183 143.801 38.9848C143.816 39.2671 143.832 39.5336 143.848 39.7688L142.296 39.9883ZM145.87 41.4935C145.259 41.713 144.679 41.9168 144.114 42.1206C143.55 42.3088 142.923 42.5126 142.248 42.7164C141.559 42.9202 140.79 43.1554 139.928 43.3906C139.066 43.6258 138.031 43.908 136.839 44.2216L136.494 42.9202L139.411 42.1677L138.642 39.1887L140.163 38.7967L140.931 41.7443C141.355 41.6189 141.747 41.5091 142.123 41.3837C142.499 41.274 142.86 41.1485 143.221 41.0388C143.581 40.9133 143.942 40.8036 144.302 40.6782C144.663 40.5527 145.039 40.4273 145.431 40.2705L145.87 41.4935ZM140.226 47.1222C140.132 46.7459 140.148 46.3696 140.273 46.009C140.398 45.6484 140.634 45.2878 140.963 44.9742C141.292 44.6449 141.715 44.347 142.248 44.0805C142.766 43.8139 143.377 43.5788 144.052 43.4063C144.741 43.2338 145.369 43.1397 145.949 43.1241C146.529 43.1084 147.046 43.1711 147.485 43.2809C147.94 43.4063 148.301 43.5944 148.598 43.861C148.896 44.1275 149.084 44.4411 149.194 44.8174L149.32 45.3191C149.414 45.6954 149.398 46.0717 149.273 46.4323C149.147 46.8086 148.912 47.1535 148.583 47.4828C148.254 47.8121 147.83 48.11 147.313 48.3765C146.795 48.643 146.2 48.8782 145.51 49.0507C144.82 49.2232 144.193 49.3172 143.597 49.3329C143.001 49.3486 142.484 49.2859 142.045 49.1761C141.606 49.0507 141.229 48.8625 140.947 48.596C140.665 48.3295 140.461 48.0159 140.367 47.6396L140.226 47.1222ZM141.857 47.1222C141.904 47.279 141.998 47.4201 142.186 47.5612C142.358 47.7023 142.593 47.8121 142.876 47.8748C143.158 47.9532 143.503 47.9845 143.895 47.9688C144.287 47.9688 144.726 47.8905 145.196 47.765C145.666 47.6396 146.074 47.4828 146.435 47.3103C146.78 47.1222 147.062 46.934 147.281 46.7302C147.501 46.5264 147.658 46.3226 147.736 46.1187C147.814 45.9149 147.846 45.7268 147.799 45.57L147.72 45.2564C147.673 45.0996 147.579 44.9585 147.391 44.8174C147.219 44.6763 146.984 44.5665 146.701 44.5038C146.419 44.4254 146.074 44.3941 145.682 44.4097C145.29 44.4254 144.867 44.4881 144.381 44.6136C143.91 44.739 143.487 44.8958 143.158 45.0683C142.813 45.2564 142.531 45.4445 142.311 45.6484C142.092 45.8522 141.951 46.056 141.857 46.2598C141.778 46.4637 141.747 46.6518 141.794 46.8086L141.857 47.1222ZM146.874 42.2304L144.616 33.5599L146.137 33.168L147.109 36.9152L149.132 36.3978L149.476 37.7305L147.454 38.2636L148.379 41.8384L146.874 42.2304Z" fill="white"/>
<path d="M157.754 35.5033L150.448 36.2402L150.307 34.8918L153.27 34.5939L153.066 32.54L154.634 32.3832L154.838 34.4371L157.629 34.1549L157.754 35.5033ZM154.32 36.6008C154.807 36.5538 155.261 36.5851 155.685 36.6949C156.108 36.8046 156.468 36.9928 156.782 37.2279C157.096 37.4631 157.346 37.7453 157.535 38.0746C157.723 38.4039 157.833 38.7488 157.88 39.1408L157.958 39.909C157.989 40.2853 157.958 40.6616 157.833 41.0222C157.707 41.3829 157.519 41.7121 157.268 41.9943C157.002 42.2922 156.688 42.5274 156.296 42.7312C155.904 42.9194 155.481 43.0448 154.979 43.0919C154.493 43.1389 154.038 43.1075 153.615 42.9978C153.192 42.888 152.831 42.7156 152.517 42.4647C152.204 42.2295 151.953 41.9473 151.765 41.618C151.577 41.2888 151.467 40.9438 151.42 40.5519L151.341 39.7836C151.31 39.4073 151.341 39.031 151.467 38.6704C151.592 38.3098 151.78 37.9962 152.047 37.6983C152.314 37.4004 152.627 37.1652 153.019 36.9614C153.38 36.7733 153.819 36.6478 154.32 36.6008ZM154.838 41.7905C155.136 41.7591 155.402 41.6808 155.622 41.5553C155.841 41.4299 156.014 41.2731 156.155 41.1006C156.296 40.9282 156.39 40.74 156.453 40.5362C156.516 40.3324 156.531 40.1442 156.515 39.9561L156.453 39.3446C156.437 39.1564 156.374 38.9683 156.28 38.7802C156.186 38.592 156.045 38.4352 155.873 38.2941C155.7 38.153 155.496 38.0432 155.261 37.9649C155.026 37.8865 154.759 37.8708 154.462 37.8865C154.164 37.9178 153.897 37.9962 153.678 38.1216C153.458 38.2471 153.286 38.3882 153.145 38.5763C153.003 38.7488 152.909 38.9369 152.847 39.1408C152.784 39.3446 152.768 39.5327 152.784 39.7366L152.847 40.348C152.862 40.5362 152.925 40.7243 153.019 40.9125C153.113 41.1006 153.254 41.2574 153.427 41.3985C153.599 41.5396 153.803 41.6494 154.038 41.7278C154.273 41.8062 154.54 41.8219 154.838 41.7905ZM158.334 31.9128L159.902 31.756L160.42 36.93L161.987 36.7733L161.439 31.3013L163.007 31.1445L164.496 45.8984L162.928 46.0552L162.129 38.153L160.561 38.3098L161.282 45.4907L159.714 45.6475L158.334 31.9128Z" fill="white"/>
<path d="M174.829 39.9083C174.186 39.924 173.559 39.924 172.963 39.924C172.368 39.924 171.709 39.9083 171.004 39.8769C170.298 39.8456 169.483 39.7985 168.589 39.7358C167.695 39.6731 166.629 39.5947 165.406 39.5006L165.516 38.1523L168.511 38.4031L168.762 35.3457L170.329 35.4712L170.079 38.4815C170.518 38.5129 170.925 38.5286 171.317 38.5442C171.709 38.5599 172.085 38.5756 172.462 38.5756C172.838 38.5756 173.214 38.5913 173.591 38.5913C173.967 38.5913 174.375 38.5913 174.798 38.5913L174.829 39.9083ZM171.944 37.2899C172.101 36.7412 172.242 36.2238 172.336 35.7377C172.43 35.236 172.509 34.797 172.54 34.3893L172.587 33.7465L166.896 33.2761L167.006 31.9277L174.265 32.5392L174.124 34.2952C174.108 34.5461 174.077 34.8283 174.03 35.1106C173.983 35.4084 173.936 35.6907 173.889 35.9886C173.826 36.2865 173.763 36.5687 173.7 36.8509C173.622 37.1174 173.559 37.3683 173.481 37.6035L171.944 37.2899ZM167.633 43.3263C167.664 42.9343 167.805 42.5894 168.04 42.2915C168.276 41.9779 168.605 41.727 169.028 41.5389C169.451 41.3508 169.953 41.2096 170.533 41.1156C171.113 41.0372 171.756 41.0215 172.462 41.0685C173.167 41.1312 173.794 41.241 174.359 41.4291C174.908 41.6016 175.378 41.8368 175.77 42.0877C176.146 42.3542 176.444 42.6521 176.632 42.997C176.82 43.342 176.899 43.7026 176.868 44.0946L176.82 44.612C176.789 44.9883 176.648 45.3332 176.397 45.6468C176.146 45.9603 175.817 46.2112 175.394 46.3994C174.97 46.6032 174.469 46.7443 173.904 46.8227C173.324 46.9011 172.681 46.9168 171.976 46.8697C171.27 46.807 170.643 46.6973 170.079 46.5091C169.514 46.321 169.044 46.1015 168.667 45.8506C168.291 45.5841 168.009 45.2862 167.821 44.9412C167.633 44.5963 167.554 44.2357 167.586 43.8437L167.633 43.3263ZM169.169 43.8751C169.154 44.0318 169.201 44.2043 169.326 44.3925C169.451 44.5806 169.624 44.7531 169.875 44.9255C170.126 45.098 170.439 45.2391 170.8 45.3645C171.176 45.49 171.599 45.5684 172.085 45.5997C172.571 45.6468 173.011 45.6311 173.402 45.5684C173.794 45.5057 174.124 45.4116 174.39 45.3018C174.657 45.1764 174.876 45.0353 175.017 44.8785C175.159 44.706 175.253 44.5492 175.253 44.3925L175.284 44.0632C175.3 43.9064 175.253 43.7339 175.127 43.5458C175.002 43.3576 174.829 43.1852 174.578 43.0127C174.328 42.8402 174.014 42.6991 173.653 42.5737C173.277 42.4483 172.854 42.3699 172.368 42.3228C171.882 42.2758 171.443 42.2915 171.051 42.3542C170.659 42.4169 170.329 42.511 170.063 42.6207C169.796 42.7462 169.577 42.8873 169.436 43.0598C169.295 43.2165 169.201 43.389 169.201 43.5458L169.169 43.8751ZM175.535 40.9274L176.287 32.0061L177.855 32.1316L177.526 35.9886L179.611 36.161L179.502 37.5408L177.416 37.3683L177.103 41.0529L175.535 40.9274Z" fill="white"/>
<path d="M190.54 42.7462L191.292 39.8299L188.376 39.0773C188.251 39.3909 188.062 39.7045 187.796 39.971C187.545 40.2532 187.231 40.4727 186.871 40.6452C186.51 40.8177 186.103 40.9274 185.648 40.9745C185.193 41.0215 184.691 40.9588 184.158 40.8177C183.563 40.6609 183.077 40.4414 182.669 40.1435C182.261 39.8456 181.963 39.5163 181.744 39.1557C181.524 38.7951 181.383 38.4188 181.32 38.0112C181.258 37.6192 181.273 37.2429 181.368 36.8666L181.524 36.2708C181.618 35.9102 181.791 35.5653 182.026 35.2517C182.277 34.9381 182.575 34.6716 182.951 34.4677C183.327 34.2639 183.751 34.1228 184.237 34.0601C184.723 33.9974 185.272 34.0444 185.867 34.2012C186.4 34.3423 186.871 34.5461 187.247 34.797C187.623 35.0635 187.921 35.3458 188.156 35.675C188.392 36.0043 188.548 36.3335 188.643 36.6941C188.737 37.0548 188.752 37.3997 188.721 37.7446L191.637 38.4972L192.453 35.3614L193.973 35.7534L192.061 43.0911L190.54 42.7462ZM191.872 43.828L190.226 50.1466L181.273 47.8105L182.92 41.4919L184.441 41.8839L183.97 43.7026L189.865 45.2391L190.336 43.4204L191.872 43.828ZM184.488 39.5163C184.817 39.5947 185.13 39.6261 185.413 39.5947C185.695 39.5634 185.946 39.485 186.165 39.3595C186.385 39.2341 186.573 39.0773 186.714 38.9049C186.855 38.7324 186.965 38.5129 187.028 38.2934L187.137 37.8544C187.2 37.6349 187.2 37.4154 187.169 37.1802C187.137 36.945 187.043 36.7255 186.902 36.5217C186.761 36.3178 186.589 36.1297 186.353 35.9572C186.118 35.7848 185.836 35.6593 185.507 35.5653C185.178 35.4869 184.864 35.4555 184.582 35.4869C184.299 35.5182 184.049 35.5966 183.829 35.722C183.61 35.8318 183.421 35.9886 183.28 36.1767C183.124 36.3649 183.029 36.5687 182.967 36.7725L182.857 37.2115C182.794 37.431 182.794 37.6505 182.826 37.8857C182.857 38.1209 182.951 38.3404 183.077 38.5442C183.218 38.7638 183.39 38.9519 183.625 39.1244C183.876 39.2968 184.158 39.4379 184.488 39.5163ZM189.05 48.4376L189.536 46.5562L183.641 45.0196L183.155 46.9011L189.05 48.4376Z" fill="white"/>
<path d="M199.774 48.126C200.37 48.3925 200.903 48.7061 201.357 49.051C201.828 49.396 202.188 49.7566 202.471 50.1485C202.753 50.5405 202.925 50.9325 203.019 51.3245C203.098 51.7321 203.051 52.1241 202.862 52.5161L202.627 53.0491C202.455 53.4411 202.188 53.739 201.828 53.9428C201.467 54.1467 201.059 54.2721 200.589 54.3191C200.119 54.3505 199.601 54.3191 199.037 54.1937C198.472 54.0683 197.892 53.8801 197.296 53.6136C196.701 53.347 196.168 53.0335 195.713 52.6885C195.258 52.3436 194.882 51.983 194.6 51.591C194.317 51.2147 194.129 50.8071 194.051 50.4151C193.973 50.0074 194.02 49.6155 194.208 49.2235L194.443 48.6904C194.615 48.2984 194.882 48.0005 195.243 47.7967C195.587 47.5929 196.011 47.4675 196.481 47.4204C196.952 47.3734 197.485 47.4204 198.049 47.5302C198.613 47.6399 199.178 47.8437 199.774 48.126ZM206.955 48.7374L206.39 49.9604L194.004 44.3474L194.568 43.1244L199.288 45.2567L200.495 42.607L201.953 43.2655L200.746 45.9152L206.955 48.7374ZM197.83 52.4063C198.222 52.5788 198.598 52.7199 198.974 52.7983C199.35 52.8767 199.68 52.908 199.993 52.908C200.291 52.8924 200.558 52.8453 200.777 52.7512C200.997 52.6572 201.153 52.5004 201.248 52.3122L201.404 51.9516C201.483 51.7635 201.498 51.5596 201.42 51.3245C201.357 51.0893 201.216 50.8541 201.028 50.6189C200.84 50.3837 200.589 50.1485 200.275 49.929C199.978 49.7095 199.633 49.5057 199.241 49.3176C198.849 49.1451 198.472 49.0197 198.096 48.9256C197.72 48.8472 197.391 48.8158 197.077 48.8158C196.779 48.8315 196.513 48.8786 196.277 48.9883C196.058 49.0981 195.901 49.2392 195.823 49.4273L195.666 49.7723C195.572 49.9761 195.572 50.1799 195.635 50.4151C195.697 50.6503 195.838 50.8855 196.026 51.1206C196.215 51.3558 196.465 51.591 196.779 51.8105C197.093 52.03 197.438 52.2338 197.83 52.4063ZM198.77 38.1855L207.692 42.2307L206.908 43.9397C206.829 44.0965 206.735 44.3003 206.61 44.5355C206.484 44.7707 206.343 45.0372 206.186 45.3038C206.03 45.5703 205.857 45.8525 205.669 46.1191C205.481 46.3856 205.308 46.6522 205.12 46.8873L203.756 46.072C204.132 45.5703 204.462 45.0843 204.744 44.5982C205.026 44.1122 205.246 43.6732 205.434 43.2812L205.653 42.7795L198.206 39.3928L198.77 38.1855Z" fill="white"/>
<path d="M207.88 57.0301L214.387 61.4359L213.603 62.5804L205.795 57.281L208.554 53.2045L209.856 54.0825L207.88 57.0301ZM214.936 55.0389C214.418 54.788 213.948 54.5372 213.525 54.2863C213.086 54.0354 212.615 53.7689 212.114 53.4553C211.596 53.1417 211.016 52.7654 210.357 52.3264C209.699 51.8874 208.884 51.3387 207.912 50.6958L211.863 44.8633L217.554 48.7203L216.802 49.8335L212.411 46.8545L209.981 50.445C210.671 50.9153 211.251 51.2916 211.722 51.6052C212.208 51.9188 212.647 52.201 213.054 52.4362C213.462 52.6871 213.854 52.9066 214.23 53.1261C214.622 53.3456 215.061 53.5807 215.547 53.8316L214.936 55.0389ZM220.314 55.7601L218.573 54.5842L215.579 59.0056L214.277 58.1276L220.204 49.3631L221.505 50.2411L219.342 53.4396L221.082 54.6312L220.314 55.7601Z" fill="white"/>
<path d="M165.002 138.262L149.573 161.686L134.161 138.262L149.573 114.854L165.002 138.262Z" fill="#0082CB"/>
<path d="M165.001 138.262L180.429 161.686L195.841 138.262L180.429 114.854L165.001 138.262Z" fill="#0082CB"/>
<path d="M149.572 114.854L165 138.262L180.428 114.854L165 91.4453L149.572 114.854Z" fill="#0082CB"/>
<path d="M134.16 138.262L118.732 161.67H149.573L134.16 138.262Z" fill="#0082CB"/>
<path d="M195.842 138.262L180.43 161.67H211.27L195.842 138.262Z" fill="#0082CB"/>
<path d="M165.002 138.262L149.573 161.686L134.161 138.262L149.573 114.854L165.002 138.262Z" fill="#00A0D8"/>
<path d="M165.001 138.262L180.429 161.686L195.841 138.262L180.429 114.854L165.001 138.262Z" fill="#00A0D8"/>
<path d="M149.572 114.854L165 138.262L180.428 114.854L165 91.4453L149.572 114.854Z" fill="#62B9E3"/>
<path d="M134.16 138.262L118.732 161.67H149.573L134.16 138.262Z" fill="#0082CB"/>
<path d="M195.842 138.262L180.43 161.67H211.27L195.842 138.262Z" fill="#0082CB"/>
<path d="M211.267 91.4457L195.839 68.0371L180.427 91.4457H211.267Z" fill="#62B9E3"/>
<path d="M180.427 91.4453L195.839 114.854L211.267 91.4453H180.427Z" fill="#00A0D8"/>
<path d="M148.08 169.338H145.572L141.056 174.622H139.708V169.338H137.795V182.257H139.708V176.519H141.056L145.995 182.257H148.504L142.765 175.562L148.08 169.338Z" fill="black"/>
<path d="M180.019 169.338H178.106V182.257H180.019V169.338Z" fill="black"/>
<path d="M189.049 176.989C190.649 176.44 191.684 175.029 191.684 173.305C191.684 171.016 189.912 169.338 187.482 169.338H182.605V182.257H184.518V177.256H186.98L189.975 182.257H192.185L189.049 176.989ZM184.518 171.235H187.466C188.814 171.235 189.755 172.082 189.755 173.305C189.755 174.512 188.814 175.359 187.466 175.359H184.518V171.235V171.235Z" fill="black"/>
<path d="M174.013 169.338L169.435 179.027L164.872 169.338H163.367V182.257H165.311V174.747L168.902 182.257H169.984L173.574 174.747V182.257H175.518V169.338H174.013Z" fill="black"/>
<path d="M154.822 169.166C151.153 169.166 148.189 172.129 148.189 175.798C148.189 179.467 151.153 182.43 154.822 182.43C158.49 182.43 161.454 179.467 161.454 175.798C161.454 172.129 158.475 169.166 154.822 169.166ZM154.822 180.643C152.141 180.643 149.977 178.479 149.977 175.798C149.977 173.117 152.141 170.953 154.822 170.953C157.503 170.953 159.666 173.117 159.666 175.798C159.666 178.479 157.487 180.643 154.822 180.643Z" fill="black"/>
<path d="M79.7842 134.248L75.8488 137.933L75.7077 136.616L78.9533 133.621L77.9655 132.884L75.3314 133.166L75.2217 132.147L82.7789 131.332L82.8887 132.367L79.2668 132.759L83.2493 135.675L83.3904 136.945L79.7842 134.248Z" fill="white"/>
<path d="M82.1353 139.8C82.2764 140.584 82.151 141.242 81.7904 141.775C81.4298 142.308 80.8183 142.653 80.003 142.794L79.3131 142.92C78.4978 143.061 77.8079 142.951 77.2905 142.575C76.7575 142.199 76.4282 141.618 76.2871 140.835C76.146 140.051 76.2714 139.392 76.632 138.859C76.9926 138.326 77.6041 137.981 78.4194 137.84L79.1093 137.714C79.9403 137.558 80.6145 137.683 81.1475 138.059C81.6806 138.436 82.0099 139.016 82.1353 139.8ZM77.1651 140.678C77.2435 141.132 77.4473 141.462 77.7923 141.697C78.1372 141.932 78.6076 141.979 79.219 141.885L79.7521 141.791C80.3479 141.681 80.7869 141.462 81.0221 141.132C81.273 140.803 81.3514 140.411 81.273 139.957C81.1946 139.502 80.9751 139.173 80.6302 138.937C80.2852 138.702 79.8148 138.655 79.2034 138.749L78.6703 138.843C78.0745 138.953 77.6355 139.173 77.4003 139.502C77.1651 139.847 77.071 140.239 77.1651 140.678Z" fill="white"/>
<path d="M82.4969 146.65C82.5126 146.54 82.5283 146.43 82.5126 146.321C82.5126 146.195 82.497 146.07 82.4656 145.929C82.4186 145.741 82.3402 145.568 82.2304 145.427C82.1207 145.286 81.9796 145.161 81.8228 145.066C81.666 144.972 81.4778 144.91 81.274 144.878C81.0702 144.847 80.8664 144.863 80.6468 144.91L77.37 145.694L77.1348 144.69L82.7478 143.357L82.983 144.33L82.0893 144.549V144.565C82.4499 144.659 82.7321 144.816 82.983 145.035C83.2182 145.255 83.3907 145.568 83.4847 145.976C83.5474 146.227 83.5631 146.478 83.5475 146.728L82.4969 146.65Z" fill="white"/>
<path d="M79.9729 153.063C79.7378 152.875 79.5026 152.624 79.2831 152.326C79.0636 152.028 78.8754 151.62 78.7343 151.119C78.6403 150.774 78.5775 150.444 78.5932 150.115C78.6089 149.786 78.6716 149.488 78.8127 149.206C78.9538 148.924 79.1733 148.673 79.4556 148.453C79.7378 148.234 80.1141 148.061 80.5531 147.92L81.1802 147.732C81.6036 147.607 81.9799 147.559 82.3405 147.575C82.6854 147.607 82.999 147.685 83.2812 147.842C83.5634 147.983 83.7986 148.187 83.9868 148.453C84.1749 148.704 84.3317 149.018 84.4258 149.347C84.6453 150.052 84.5825 150.68 84.2846 151.228C83.9711 151.777 83.4223 152.169 82.6384 152.404L81.9015 152.624L80.7883 148.908L80.7412 148.924C80.2238 149.08 79.8632 149.331 79.6751 149.692C79.4869 150.052 79.4556 150.444 79.5967 150.899C79.7064 151.26 79.8475 151.558 80.0043 151.793C80.1768 152.028 80.3649 152.232 80.5844 152.42L79.9729 153.063ZM83.5791 149.613C83.5164 149.41 83.4223 149.237 83.3126 149.08C83.1871 148.924 83.046 148.814 82.8892 148.72C82.7324 148.626 82.5443 148.579 82.3405 148.563C82.1367 148.547 81.9328 148.563 81.729 148.626L81.5879 148.673L82.4189 151.432L82.607 151.385C83.0303 151.26 83.3282 151.04 83.5164 150.711C83.6889 150.397 83.7202 150.037 83.5791 149.613Z" fill="white"/>
<path d="M80.3953 156.105C80.1915 155.557 80.1601 155.071 80.3169 154.663C80.4737 154.24 80.7873 153.942 81.2577 153.769L81.5242 153.675C81.9789 153.503 82.4179 153.518 82.8256 153.722C83.2332 153.926 83.5625 154.381 83.8133 155.055L84.3307 156.435L84.6443 156.325C85.0049 156.184 85.2401 155.996 85.3499 155.76C85.4596 155.525 85.4439 155.196 85.2872 154.804C85.1617 154.49 85.0206 154.224 84.8325 154.036C84.6443 153.848 84.4248 153.644 84.1739 153.456L84.707 152.719C84.9892 152.907 85.2558 153.142 85.5223 153.424C85.7732 153.707 85.9927 154.067 86.1495 154.49C86.2592 154.788 86.322 155.086 86.3376 155.368C86.3533 155.651 86.3219 155.902 86.2436 156.137C86.1652 156.372 86.0397 156.591 85.8516 156.764C85.6791 156.952 85.4596 157.093 85.1774 157.187L81.3988 158.598L81.0538 157.673L81.7124 157.438V157.422C81.5869 157.407 81.4772 157.375 81.3674 157.313C81.2577 157.25 81.1479 157.187 81.0382 157.093C80.9127 156.983 80.7873 156.842 80.6776 156.686C80.5835 156.544 80.4894 156.356 80.3953 156.105ZM83.5154 156.733L83.0137 155.384C82.8726 155.008 82.7001 154.773 82.4963 154.663C82.2925 154.553 82.0573 154.553 81.8064 154.647L81.6653 154.694C81.3988 154.788 81.242 154.961 81.195 155.18C81.1479 155.416 81.1636 155.651 81.2577 155.902C81.3517 156.137 81.4458 156.341 81.5712 156.497C81.6967 156.654 81.8378 156.78 81.9946 156.889C82.1357 156.983 82.2925 157.03 82.4493 157.046C82.5904 157.046 82.7785 157.015 82.9824 156.936L83.5154 156.733Z" fill="white"/>
<path d="M88.5649 161.31C88.6119 161.248 88.6746 161.185 88.7217 161.122C88.7687 161.059 88.8314 160.997 88.8941 160.95C88.9568 160.887 89.0196 160.824 89.0823 160.746C89.1607 160.667 89.2391 160.589 89.3331 160.495L83.5006 163.458L83.0459 162.565L89.8192 159.131L90.509 160.511L87.0283 164.634L92.3905 164.227L93.0804 165.591L86.3071 169.024L85.8524 168.131L91.685 165.183C91.5439 165.214 91.4184 165.246 91.3244 165.246C91.2303 165.261 91.1362 165.277 91.0578 165.293C90.9794 165.308 90.901 165.308 90.8226 165.324C90.7442 165.324 90.6658 165.34 90.5874 165.34L86.0092 165.622L85.6016 164.838L88.5649 161.31Z" fill="white"/>
<path d="M92.7669 168.475L87.8124 171.423L87.2793 170.529L92.2338 167.582L92.7669 168.475ZM94.5543 167.456L93.5979 168.021L93.0334 167.08L93.9899 166.516L94.5543 167.456Z" fill="white"/>
<path d="M91.2766 176.818L90.6965 175.955L93.6912 173.98C94.0988 173.713 94.334 173.431 94.3967 173.149C94.4594 172.866 94.381 172.537 94.1459 172.177C94.0518 172.035 93.9264 171.894 93.7853 171.8C93.6441 171.691 93.4874 171.612 93.3149 171.565C93.1424 171.518 92.9543 171.502 92.7661 171.518C92.578 171.549 92.3741 171.612 92.186 171.738L89.207 173.713L88.6426 172.851L93.4403 169.668L93.9891 170.499L93.3776 170.907V170.922C93.6912 170.922 93.9891 171.001 94.2713 171.157C94.5535 171.314 94.8044 171.565 95.0239 171.894C95.1807 172.13 95.2904 172.365 95.3531 172.616C95.4159 172.866 95.4315 173.117 95.4002 173.353C95.3531 173.603 95.2591 173.839 95.1023 174.074C94.9455 174.309 94.726 174.513 94.4281 174.701L91.2766 176.818Z" fill="white"/>
<path d="M95.3696 181.317C95.0717 181.223 94.7738 181.066 94.4602 180.863C94.1466 180.659 93.8331 180.345 93.5038 179.938C93.2843 179.655 93.1275 179.357 93.0178 179.06C92.908 178.762 92.8766 178.448 92.908 178.134C92.9394 177.821 93.0491 177.507 93.2373 177.209C93.4254 176.896 93.7076 176.598 94.0683 176.316L94.5857 175.924C94.9306 175.657 95.2755 175.469 95.6205 175.375C95.9497 175.265 96.279 175.234 96.5926 175.281C96.9061 175.328 97.1884 175.422 97.4706 175.595C97.7371 175.767 97.988 175.986 98.2075 176.284C98.6622 176.864 98.8346 177.476 98.7406 178.087C98.6465 178.715 98.2702 179.263 97.6117 179.765L97.0002 180.235L94.6327 177.162L94.6013 177.194C94.1623 177.523 93.9272 177.899 93.8801 178.291C93.8331 178.699 93.9428 179.075 94.2251 179.452C94.4602 179.749 94.6954 179.985 94.9306 180.141C95.1658 180.298 95.4167 180.424 95.6989 180.518L95.3696 181.317ZM97.5176 176.802C97.3922 176.629 97.2354 176.504 97.0786 176.41C96.9061 176.316 96.7337 176.253 96.5612 176.237C96.373 176.206 96.1849 176.222 95.9968 176.284C95.8086 176.347 95.6205 176.425 95.448 176.567L95.3226 176.661L97.0786 178.95L97.2354 178.824C97.5803 178.558 97.7842 178.244 97.8469 177.884C97.8939 177.507 97.7841 177.162 97.5176 176.802Z" fill="white"/>
<path d="M98.2222 185.456L97.5166 184.703L103.051 179.514L104.933 181.521C105.199 181.803 105.387 182.085 105.529 182.383C105.654 182.681 105.732 182.963 105.732 183.23C105.732 183.512 105.685 183.763 105.576 184.014C105.466 184.264 105.309 184.5 105.09 184.703L104.886 184.892C104.572 185.174 104.227 185.362 103.82 185.425C103.428 185.487 103.036 185.425 102.644 185.236L101.217 188.639L100.449 187.823L101.828 184.656L101.703 184.531L100.543 183.292L98.2222 185.456ZM101.185 182.681L102.189 183.747C102.597 184.186 102.957 184.405 103.302 184.437C103.631 184.468 103.929 184.358 104.211 184.108L104.368 183.966C104.635 183.716 104.776 183.418 104.76 183.088C104.745 182.759 104.556 182.399 104.196 182.022L103.13 180.878L101.185 182.681Z" fill="white"/>
<path d="M105.905 192.276C105.607 192.228 105.278 192.134 104.933 191.993C104.588 191.852 104.227 191.601 103.835 191.241C103.569 190.99 103.365 190.739 103.208 190.457C103.051 190.175 102.957 189.877 102.941 189.563C102.926 189.249 102.973 188.936 103.114 188.591C103.255 188.262 103.474 187.917 103.788 187.572L104.227 187.086C104.525 186.772 104.823 186.521 105.152 186.365C105.466 186.208 105.779 186.129 106.093 186.114C106.406 186.098 106.72 186.161 107.018 186.286C107.316 186.412 107.598 186.6 107.865 186.835C108.398 187.337 108.68 187.901 108.696 188.528C108.711 189.155 108.429 189.767 107.88 190.378L107.363 190.943L104.509 188.309L104.478 188.34C104.102 188.748 103.929 189.14 103.945 189.547C103.96 189.955 104.133 190.316 104.478 190.629C104.76 190.88 105.027 191.068 105.278 191.194C105.544 191.303 105.811 191.397 106.109 191.445L105.905 192.276ZM107.253 187.462C107.096 187.321 106.924 187.211 106.751 187.148C106.563 187.086 106.391 187.054 106.203 187.054C106.014 187.07 105.842 187.117 105.654 187.196C105.466 187.29 105.309 187.399 105.168 187.572L105.074 187.682L107.19 189.641L107.316 189.5C107.614 189.171 107.77 188.826 107.755 188.466C107.739 188.105 107.582 187.776 107.253 187.462Z" fill="white"/>
<path d="M110.342 196.635L109.542 195.992L111.8 193.201C112.098 192.825 112.239 192.48 112.223 192.182C112.208 191.884 112.019 191.602 111.69 191.336C111.549 191.226 111.408 191.147 111.235 191.085C111.063 191.022 110.891 190.991 110.718 191.006C110.546 191.006 110.357 191.053 110.185 191.132C109.997 191.21 109.84 191.336 109.699 191.524L107.457 194.299L106.657 193.656L111.659 187.447L112.458 188.09L110.624 190.348C110.922 190.254 111.235 190.254 111.533 190.317C111.847 190.395 112.145 190.552 112.458 190.803C112.678 190.975 112.85 191.179 112.992 191.398C113.133 191.618 113.211 191.853 113.258 192.104C113.289 192.355 113.274 192.606 113.195 192.872C113.117 193.139 112.96 193.405 112.741 193.672L110.342 196.635Z" fill="white"/>
<path d="M112.883 198.565C112.397 198.236 112.115 197.844 111.99 197.42C111.88 196.997 111.958 196.574 112.256 196.15L112.413 195.915C112.695 195.507 113.056 195.272 113.511 195.21C113.965 195.147 114.483 195.335 115.094 195.758L116.301 196.605L116.489 196.323C116.709 196.009 116.803 195.727 116.756 195.46C116.709 195.21 116.521 194.943 116.16 194.708C115.878 194.52 115.611 194.394 115.345 194.332C115.078 194.269 114.78 194.238 114.467 194.238L114.483 193.328C114.828 193.328 115.188 193.375 115.549 193.454C115.925 193.532 116.301 193.72 116.678 193.971C116.944 194.159 117.164 194.363 117.336 194.582C117.509 194.802 117.618 195.037 117.697 195.272C117.759 195.507 117.775 195.758 117.728 196.009C117.681 196.26 117.587 196.495 117.415 196.73L115.094 200.039L114.294 199.474L114.686 198.91H114.671C114.561 198.957 114.451 199.004 114.31 199.02C114.185 199.035 114.059 199.035 113.918 199.02C113.746 199.004 113.573 198.957 113.401 198.894C113.291 198.816 113.087 198.722 112.883 198.565ZM115.8 197.311L114.624 196.48C114.294 196.244 114.012 196.15 113.793 196.182C113.558 196.213 113.369 196.338 113.213 196.558L113.134 196.683C112.977 196.919 112.93 197.138 113.024 197.358C113.119 197.577 113.275 197.765 113.495 197.922C113.699 198.079 113.902 198.173 114.091 198.236C114.279 198.298 114.467 198.314 114.671 198.314C114.843 198.314 115 198.267 115.125 198.189C115.251 198.11 115.376 197.985 115.502 197.797L115.8 197.311Z" fill="white"/>
<path d="M119.987 197.075C120.285 196.918 120.598 196.887 120.912 196.934C121.225 196.996 121.523 197.106 121.79 197.263C122.417 197.639 122.793 198.11 122.903 198.674C123.013 199.238 122.872 199.85 122.464 200.524L121.931 201.402C121.727 201.731 121.507 202.014 121.241 202.202C120.99 202.406 120.724 202.547 120.441 202.625C120.159 202.703 119.877 202.719 119.579 202.672C119.281 202.625 118.983 202.515 118.701 202.343C118.325 202.123 118.074 201.872 117.917 201.606C117.776 201.339 117.698 201.089 117.698 200.853L117.682 200.838L117.337 201.418L116.49 200.9L120.614 194.08L121.492 194.613L119.987 197.075ZM118.387 199.677C118.309 199.803 118.262 199.944 118.246 200.116C118.231 200.289 118.246 200.461 118.309 200.634C118.372 200.806 118.45 200.963 118.576 201.12C118.701 201.277 118.842 201.418 119.046 201.528C119.422 201.763 119.783 201.794 120.159 201.669C120.52 201.528 120.849 201.23 121.131 200.759L121.492 200.148C121.774 199.677 121.884 199.254 121.837 198.862C121.79 198.47 121.57 198.172 121.21 197.953C121.021 197.843 120.849 197.765 120.645 197.733C120.457 197.702 120.269 197.702 120.081 197.733C119.893 197.765 119.72 197.843 119.563 197.953C119.406 198.063 119.265 198.219 119.14 198.407L118.387 199.677Z" fill="white"/>
<path d="M125.567 199.535L122.839 204.615L121.93 204.129L124.658 199.049L125.567 199.535ZM126.586 197.717L126.053 198.704L125.081 198.187L125.614 197.199L126.586 197.717Z" fill="white"/>
<path d="M128.703 198.658L125.128 205.776L124.203 205.306L127.778 198.188L128.703 198.658Z" fill="white"/>
<path d="M129.894 201.668L127.449 206.889L126.508 206.45L128.954 201.229L129.894 201.668ZM130.788 199.802L130.318 200.822L129.33 200.351L129.8 199.332L130.788 199.802Z" fill="white"/>
<path d="M131.116 203.173L130.238 202.797L130.583 201.982L131.461 202.358L132.026 201.025L132.982 201.433L132.418 202.766L133.813 203.362L133.468 204.177L132.073 203.581L130.803 206.591C130.74 206.748 130.693 206.889 130.693 206.999C130.677 207.109 130.693 207.203 130.74 207.281C130.787 207.36 130.834 207.422 130.913 207.485C130.991 207.532 131.069 207.579 131.179 207.626C131.414 207.72 131.665 207.783 131.932 207.799L131.759 208.63C131.634 208.63 131.477 208.614 131.273 208.567C131.069 208.52 130.881 208.473 130.693 208.394C130.191 208.175 129.862 207.893 129.721 207.532C129.58 207.172 129.627 206.733 129.862 206.199L131.116 203.173Z" fill="white"/>
<path d="M134.112 209.727C133.563 209.523 133.171 209.241 132.952 208.849C132.732 208.457 132.701 208.033 132.873 207.547L132.967 207.281C133.14 206.826 133.422 206.497 133.845 206.324C134.269 206.152 134.818 206.183 135.507 206.434L136.887 206.92L136.997 206.607C137.122 206.246 137.138 205.948 137.028 205.713C136.919 205.478 136.668 205.29 136.26 205.149C135.946 205.039 135.649 204.992 135.382 205.007C135.115 205.023 134.818 205.07 134.52 205.149L134.3 204.255C134.629 204.161 134.99 204.114 135.366 204.098C135.743 204.082 136.15 204.145 136.589 204.302C136.887 204.412 137.154 204.553 137.389 204.725C137.608 204.882 137.797 205.086 137.922 205.29C138.047 205.509 138.126 205.729 138.157 205.995C138.173 206.246 138.141 206.513 138.047 206.779L136.683 210.573L135.758 210.244L135.993 209.586H135.978C135.884 209.664 135.79 209.742 135.664 209.774C135.539 209.821 135.429 209.868 135.288 209.884C135.115 209.915 134.943 209.915 134.755 209.899C134.567 209.868 134.363 209.805 134.112 209.727ZM136.605 207.736L135.241 207.249C134.865 207.108 134.567 207.093 134.347 207.171C134.128 207.249 133.987 207.422 133.893 207.688L133.845 207.83C133.751 208.096 133.783 208.316 133.924 208.504C134.065 208.692 134.269 208.833 134.52 208.927C134.755 209.006 134.974 209.053 135.162 209.068C135.366 209.068 135.554 209.053 135.727 208.99C135.899 208.943 136.025 208.864 136.135 208.755C136.244 208.645 136.323 208.488 136.401 208.284L136.605 207.736Z" fill="white"/>
<path d="M139.928 206.433L139.019 206.167L139.27 205.32L140.179 205.587L140.587 204.207L141.575 204.505L141.167 205.885L142.625 206.324L142.374 207.17L140.916 206.731L139.991 209.867C139.944 210.04 139.913 210.181 139.928 210.29C139.928 210.4 139.96 210.494 140.007 210.573C140.054 210.651 140.117 210.714 140.195 210.745C140.273 210.792 140.367 210.824 140.462 210.855C140.712 210.933 140.963 210.949 141.23 210.933L141.151 211.78C141.026 211.796 140.854 211.796 140.665 211.764C140.462 211.749 140.273 211.717 140.07 211.655C139.536 211.498 139.192 211.247 139.019 210.918C138.847 210.588 138.847 210.134 139.003 209.569L139.928 206.433Z" fill="white"/>
<path d="M144.539 206.811L143.096 212.392L142.093 212.141L143.535 206.56L144.539 206.811ZM145.087 204.819L144.805 205.901L143.739 205.619L144.021 204.537L145.087 204.819Z" fill="white"/>
<path d="M148.051 207.517C148.835 207.674 149.399 208.019 149.76 208.567C150.12 209.1 150.214 209.79 150.042 210.606L149.901 211.295C149.728 212.111 149.383 212.691 148.835 213.052C148.286 213.412 147.627 213.506 146.859 213.334C146.075 213.177 145.511 212.832 145.15 212.283C144.789 211.75 144.695 211.06 144.868 210.245L145.009 209.555C145.181 208.724 145.526 208.144 146.075 207.799C146.624 207.454 147.282 207.36 148.051 207.517ZM147.047 212.471C147.486 212.565 147.878 212.487 148.223 212.252C148.568 212.017 148.788 211.593 148.913 210.998L149.023 210.48C149.148 209.884 149.101 209.398 148.882 209.053C148.662 208.693 148.333 208.473 147.878 208.395C147.424 208.301 147.032 208.379 146.702 208.614C146.357 208.85 146.138 209.273 146.012 209.869L145.903 210.402C145.777 210.998 145.824 211.484 146.044 211.829C146.263 212.158 146.593 212.377 147.047 212.471Z" fill="white"/>
<path d="M155.546 214.635L154.527 214.494L154.998 210.935C155.06 210.449 155.013 210.088 154.825 209.853C154.653 209.618 154.355 209.461 153.932 209.398C153.759 209.383 153.587 209.383 153.414 209.414C153.226 209.445 153.069 209.524 152.928 209.618C152.771 209.712 152.646 209.837 152.536 210.01C152.426 210.167 152.364 210.371 152.332 210.59L151.862 214.133L150.843 213.992L151.595 208.27L152.583 208.395L152.489 209.116H152.505C152.709 208.881 152.975 208.693 153.273 208.599C153.571 208.489 153.932 208.473 154.323 208.52C154.606 208.552 154.857 208.63 155.092 208.74C155.327 208.865 155.515 209.006 155.688 209.195C155.844 209.383 155.954 209.618 156.032 209.884C156.095 210.151 156.111 210.465 156.064 210.81L155.546 214.635Z" fill="white"/>
<path d="M161.252 215.105C160.672 215.089 160.218 214.917 159.888 214.619C159.559 214.321 159.402 213.913 159.418 213.412L159.434 213.129C159.449 212.643 159.622 212.236 159.967 211.938C160.312 211.64 160.845 211.499 161.582 211.53L163.04 211.577L163.056 211.248C163.071 210.856 162.977 210.574 162.805 210.385C162.617 210.197 162.319 210.088 161.895 210.072C161.566 210.056 161.268 210.103 161.017 210.197C160.766 210.291 160.5 210.433 160.233 210.589L159.747 209.821C160.03 209.633 160.359 209.476 160.719 209.335C161.08 209.21 161.488 209.147 161.942 209.163C162.272 209.178 162.554 209.225 162.82 209.319C163.087 209.413 163.306 209.539 163.495 209.711C163.683 209.868 163.824 210.072 163.934 210.307C164.028 210.542 164.075 210.793 164.075 211.091L163.934 215.121L162.961 215.089L162.977 214.399H162.961C162.899 214.493 162.82 214.603 162.726 214.682C162.632 214.76 162.522 214.838 162.413 214.901C162.256 214.979 162.083 215.042 161.911 215.073C161.723 215.105 161.503 215.121 161.252 215.105ZM163.009 212.455L161.566 212.408C161.158 212.392 160.876 212.455 160.704 212.612C160.531 212.753 160.437 212.972 160.422 213.239V213.38C160.406 213.662 160.5 213.866 160.704 214.007C160.892 214.148 161.127 214.211 161.409 214.227C161.66 214.227 161.88 214.211 162.068 214.164C162.256 214.117 162.428 214.023 162.585 213.913C162.726 213.819 162.836 213.694 162.899 213.568C162.961 213.427 162.993 213.255 163.009 213.035V212.455Z" fill="white"/>
<path d="M170.361 214.963L169.326 214.995L169.201 211.42C169.185 210.934 169.075 210.589 168.856 210.369C168.652 210.15 168.323 210.056 167.899 210.072C167.727 210.072 167.554 210.119 167.382 210.181C167.209 210.244 167.053 210.338 166.927 210.463C166.786 210.589 166.692 210.73 166.598 210.918C166.519 211.106 166.472 211.294 166.488 211.53L166.614 215.104L165.579 215.136L165.391 209.366L166.394 209.335L166.425 210.056H166.441C166.614 209.789 166.833 209.57 167.115 209.413C167.398 209.256 167.742 209.178 168.134 209.162C168.417 209.146 168.683 209.178 168.934 209.256C169.185 209.335 169.404 209.444 169.593 209.617C169.781 209.774 169.938 209.993 170.047 210.244C170.157 210.495 170.22 210.793 170.235 211.138L170.361 214.963Z" fill="white"/>
<path d="M175.52 213.74C175.394 214.054 175.175 214.289 174.893 214.43C174.61 214.587 174.281 214.681 173.936 214.712C173.215 214.791 172.635 214.634 172.212 214.257C171.788 213.881 171.537 213.285 171.459 212.517L171.349 211.498C171.302 211.106 171.334 210.761 171.412 210.448C171.49 210.118 171.616 209.852 171.804 209.617C171.976 209.381 172.212 209.193 172.478 209.052C172.745 208.911 173.043 208.833 173.387 208.786C173.826 208.739 174.187 208.77 174.454 208.895C174.72 209.021 174.924 209.162 175.065 209.303L174.767 206.512L175.786 206.402L176.617 214.336L175.645 214.446L175.567 213.724H175.52V213.74ZM175.191 210.73C175.175 210.573 175.128 210.432 175.034 210.291C174.94 210.15 174.83 210.04 174.673 209.93C174.516 209.836 174.36 209.758 174.156 209.711C173.968 209.664 173.764 209.648 173.544 209.664C173.105 209.711 172.792 209.899 172.572 210.228C172.368 210.557 172.29 210.996 172.337 211.545L172.415 212.251C172.478 212.799 172.635 213.207 172.917 213.489C173.199 213.771 173.544 213.881 173.968 213.834C174.171 213.818 174.375 213.756 174.548 213.677C174.72 213.599 174.877 213.474 174.987 213.332C175.112 213.191 175.206 213.035 175.269 212.846C175.332 212.658 175.347 212.454 175.332 212.235L175.191 210.73Z" fill="white"/>
<path d="M180.992 208.097C180.945 208.035 180.898 207.956 180.851 207.894C180.803 207.831 180.756 207.752 180.725 207.69C180.678 207.627 180.631 207.549 180.568 207.455C180.521 207.361 180.459 207.266 180.38 207.157L181.776 213.538L180.803 213.742L179.173 206.31L180.678 205.981L183.798 210.387L184.739 205.087L186.228 204.758L187.859 212.19L186.887 212.409L185.491 206.028C185.491 206.169 185.476 206.294 185.476 206.388C185.46 206.482 185.46 206.577 185.444 206.655C185.429 206.733 185.429 206.812 185.413 206.89C185.397 206.969 185.382 207.047 185.366 207.125L184.504 211.625L183.641 211.813L180.992 208.097Z" fill="white"/>
<path d="M188.439 203.848L188.753 204.93L187.702 205.227L187.389 204.146L188.439 203.848ZM188.988 205.839L190.587 211.374L189.599 211.656L188 206.121L188.988 205.839Z" fill="white"/>
<path d="M196.687 209.367L195.715 209.712L194.555 206.325C194.398 205.871 194.194 205.573 193.927 205.432C193.661 205.29 193.332 205.29 192.924 205.432C192.752 205.494 192.61 205.573 192.454 205.682C192.313 205.792 192.203 205.933 192.109 206.09C192.015 206.247 191.952 206.419 191.936 206.607C191.905 206.796 191.936 206.999 192.015 207.219L193.175 210.59L192.203 210.919L190.321 205.463L191.262 205.134L191.497 205.823H191.513C191.591 205.51 191.748 205.243 191.968 205.008C192.187 204.789 192.501 204.601 192.877 204.475C193.143 204.381 193.41 204.334 193.661 204.334C193.927 204.334 194.163 204.381 194.398 204.491C194.633 204.585 194.837 204.742 195.009 204.961C195.197 205.181 195.339 205.447 195.448 205.761L196.687 209.367Z" fill="white"/>
<path d="M202.08 206.543C201.908 206.81 201.688 207.061 201.422 207.312C201.139 207.563 200.763 207.782 200.277 208.002C199.948 208.143 199.619 208.221 199.305 208.252C198.976 208.284 198.678 208.237 198.38 208.127C198.082 208.017 197.815 207.829 197.565 207.578C197.314 207.312 197.094 206.967 196.922 206.543L196.671 205.948C196.498 205.54 196.404 205.164 196.389 204.819C196.373 204.474 196.42 204.145 196.545 203.847C196.671 203.549 196.843 203.298 197.079 203.078C197.314 202.859 197.596 202.671 197.925 202.53C198.599 202.247 199.227 202.216 199.807 202.467C200.387 202.718 200.826 203.22 201.155 203.972L201.453 204.678L197.878 206.183L197.894 206.23C198.113 206.732 198.396 207.061 198.772 207.218C199.148 207.374 199.556 207.359 199.979 207.171C200.324 207.014 200.606 206.857 200.826 206.669C201.045 206.481 201.233 206.261 201.39 206.01L202.08 206.543ZM198.254 203.329C198.066 203.408 197.894 203.517 197.753 203.659C197.612 203.8 197.518 203.956 197.439 204.129C197.376 204.301 197.345 204.49 197.345 204.693C197.345 204.897 197.392 205.101 197.486 205.289L197.549 205.43L200.214 204.301L200.136 204.129C199.963 203.721 199.713 203.439 199.368 203.298C199.038 203.141 198.662 203.157 198.254 203.329Z" fill="white"/>
<path d="M204.274 200.775C204.164 200.775 204.054 200.791 203.945 200.822C203.835 200.853 203.71 200.9 203.584 200.963C203.412 201.041 203.271 201.167 203.145 201.308C203.02 201.449 202.941 201.606 202.879 201.794C202.832 201.967 202.8 202.17 202.816 202.374C202.832 202.578 202.894 202.782 202.988 202.986L204.478 205.996L203.553 206.451L200.997 201.277L201.891 200.838L202.298 201.669H202.314C202.33 201.308 202.408 200.979 202.565 200.697C202.722 200.414 203.004 200.179 203.38 199.991C203.6 199.881 203.851 199.803 204.102 199.771L204.274 200.775Z" fill="white"/>
<path d="M208.948 203.754C208.446 204.036 207.96 204.146 207.521 204.068C207.082 203.989 206.737 203.723 206.486 203.284L206.345 203.033C206.094 202.61 206.047 202.171 206.188 201.747C206.329 201.324 206.705 200.916 207.348 200.556L208.618 199.834L208.446 199.537C208.258 199.207 208.038 199.004 207.787 198.925C207.536 198.862 207.223 198.925 206.862 199.129C206.564 199.301 206.345 199.49 206.172 199.709C206 199.929 205.859 200.164 205.702 200.462L204.887 200.054C205.044 199.74 205.232 199.443 205.467 199.145C205.702 198.847 206.016 198.58 206.423 198.345C206.705 198.188 206.988 198.078 207.254 198.016C207.521 197.953 207.787 197.937 208.038 197.984C208.289 198.031 208.509 198.125 208.712 198.267C208.916 198.408 209.089 198.612 209.23 198.862L211.221 202.374L210.359 202.861L210.014 202.249H209.998C209.998 202.374 209.982 202.5 209.951 202.61C209.904 202.735 209.857 202.845 209.794 202.955C209.7 203.111 209.59 203.237 209.449 203.378C209.355 203.503 209.167 203.629 208.948 203.754ZM209.073 200.571L207.819 201.293C207.474 201.496 207.254 201.7 207.192 201.92C207.113 202.139 207.144 202.374 207.286 202.61L207.364 202.735C207.505 202.986 207.693 203.111 207.928 203.127C208.164 203.143 208.399 203.08 208.634 202.939C208.853 202.813 209.026 202.688 209.167 202.531C209.308 202.39 209.402 202.218 209.481 202.045C209.543 201.888 209.575 201.732 209.559 201.575C209.543 201.418 209.481 201.261 209.371 201.073L209.073 200.571Z" fill="white"/>
<path d="M209.134 194.252L213.383 200.994L212.505 201.543L208.256 194.801L209.134 194.252Z" fill="white"/>
<path d="M217.696 198.077L216.865 198.704L212.318 192.621L214.513 190.975C214.827 190.739 215.125 190.583 215.438 190.489C215.736 190.395 216.034 190.363 216.301 190.379C216.567 190.395 216.834 190.489 217.069 190.614C217.304 190.755 217.524 190.943 217.696 191.178L217.869 191.398C218.12 191.743 218.261 192.119 218.276 192.511C218.292 192.903 218.198 193.295 217.963 193.671L221.193 195.459L220.283 196.133L217.289 194.408L217.147 194.502L215.783 195.522L217.696 198.077ZM215.266 194.832L216.442 193.954C216.912 193.593 217.179 193.264 217.257 192.935C217.32 192.605 217.242 192.292 217.022 191.994L216.897 191.821C216.677 191.523 216.395 191.367 216.066 191.335C215.736 191.304 215.36 191.461 214.937 191.774L213.682 192.715L215.266 194.832Z" fill="white"/>
<path d="M225.346 191.18C225.268 191.478 225.142 191.791 224.954 192.105C224.766 192.434 224.484 192.763 224.076 193.108C223.81 193.343 223.527 193.531 223.23 193.641C222.932 193.767 222.634 193.829 222.304 193.814C221.991 193.798 221.677 193.704 221.364 193.531C221.05 193.359 220.737 193.092 220.423 192.748L220 192.261C219.717 191.932 219.514 191.603 219.388 191.274C219.263 190.944 219.216 190.631 219.231 190.302C219.247 189.988 219.341 189.69 219.498 189.408C219.655 189.126 219.859 188.875 220.141 188.64C220.705 188.154 221.285 187.95 221.913 187.997C222.54 188.06 223.12 188.389 223.653 189.016L224.155 189.596L221.223 192.136L221.254 192.167C221.615 192.575 221.991 192.795 222.399 192.826C222.806 192.857 223.182 192.716 223.527 192.403C223.81 192.152 224.029 191.901 224.17 191.666C224.311 191.415 224.421 191.148 224.5 190.866L225.346 191.18ZM220.705 189.298C220.548 189.439 220.423 189.596 220.345 189.769C220.251 189.941 220.203 190.129 220.188 190.302C220.172 190.49 220.204 190.678 220.266 190.866C220.329 191.054 220.439 191.227 220.58 191.399L220.674 191.509L222.853 189.612L222.728 189.471C222.43 189.141 222.116 188.953 221.74 188.922C221.395 188.891 221.035 189.016 220.705 189.298Z" fill="white"/>
<path d="M227.434 188.795C227.7 188.529 227.873 188.278 227.92 188.027C227.982 187.776 227.92 187.572 227.763 187.416L227.7 187.353C227.622 187.275 227.528 187.212 227.449 187.18C227.371 187.149 227.261 187.133 227.151 187.165C227.042 187.18 226.9 187.243 226.744 187.322C226.587 187.4 226.383 187.51 226.148 187.666C225.881 187.839 225.63 187.98 225.38 188.09C225.144 188.2 224.909 188.262 224.705 188.294C224.486 188.325 224.298 188.294 224.11 188.231C223.921 188.153 223.733 188.043 223.561 187.855L223.467 187.761C223.326 187.619 223.216 187.447 223.153 187.259C223.075 187.071 223.059 186.851 223.075 186.632C223.09 186.412 223.185 186.161 223.31 185.91C223.435 185.66 223.639 185.393 223.906 185.142C224.188 184.86 224.486 184.64 224.784 184.468C225.097 184.296 225.411 184.17 225.772 184.123L225.991 184.985C225.756 185.017 225.521 185.095 225.27 185.221C225.019 185.346 224.799 185.503 224.58 185.722C224.266 186.02 224.094 186.287 224.063 186.506C224.015 186.726 224.078 186.914 224.219 187.055L224.282 187.118C224.439 187.275 224.627 187.337 224.831 187.275C225.035 187.212 225.333 187.071 225.709 186.804C226.007 186.6 226.273 186.444 226.524 186.334C226.775 186.224 227.01 186.146 227.214 186.13C227.434 186.114 227.637 186.13 227.826 186.208C228.014 186.287 228.217 186.412 228.39 186.616L228.484 186.71C228.641 186.867 228.751 187.055 228.813 187.275C228.876 187.494 228.892 187.714 228.86 187.949C228.829 188.184 228.735 188.435 228.609 188.67C228.468 188.921 228.28 189.156 228.045 189.391C227.7 189.736 227.339 189.987 226.979 190.175C226.603 190.363 226.258 190.473 225.913 190.52L225.693 189.611C226.007 189.564 226.305 189.47 226.587 189.344C226.916 189.234 227.183 189.046 227.434 188.795Z" fill="white"/>
<path d="M227.605 181.303C228.138 180.707 228.718 180.393 229.377 180.362C230.019 180.331 230.662 180.581 231.274 181.146L231.791 181.616C232.418 182.165 232.732 182.777 232.779 183.419C232.81 184.062 232.559 184.689 232.026 185.285C231.493 185.881 230.913 186.195 230.255 186.226C229.612 186.257 228.969 186.006 228.357 185.442L227.84 184.972C227.213 184.407 226.884 183.811 226.852 183.153C226.821 182.51 227.072 181.883 227.605 181.303ZM231.368 184.674C231.666 184.329 231.807 183.952 231.775 183.545C231.744 183.137 231.493 182.729 231.039 182.322L230.631 181.961C230.176 181.554 229.737 181.35 229.33 181.365C228.922 181.381 228.561 181.554 228.248 181.899C227.934 182.243 227.809 182.62 227.84 183.027C227.871 183.435 228.122 183.843 228.577 184.266L228.969 184.627C229.424 185.034 229.863 185.238 230.27 185.222C230.709 185.191 231.07 185.019 231.368 184.674Z" fill="white"/>
<path d="M229.974 178.745L230.601 177.93L233.423 180.141C233.799 180.438 234.144 180.58 234.426 180.564C234.709 180.548 234.991 180.36 235.257 180.031C235.367 179.89 235.446 179.733 235.508 179.576C235.571 179.404 235.587 179.231 235.587 179.059C235.571 178.886 235.54 178.698 235.446 178.526C235.351 178.353 235.226 178.196 235.054 178.055L232.231 175.86L232.874 175.045L237.421 178.588L236.81 179.388L236.229 178.933V178.949C236.339 179.247 236.355 179.56 236.292 179.874C236.23 180.188 236.073 180.501 235.838 180.815C235.665 181.034 235.477 181.222 235.257 181.348C235.038 181.489 234.818 181.583 234.568 181.614C234.317 181.661 234.066 181.63 233.799 181.552C233.533 181.473 233.266 181.332 232.984 181.113L229.974 178.745Z" fill="white"/>
<path d="M236.275 171.878C236.181 171.925 236.102 172.003 236.008 172.082C235.93 172.16 235.836 172.254 235.757 172.379C235.647 172.536 235.569 172.709 235.538 172.897C235.506 173.085 235.506 173.257 235.538 173.446C235.585 173.634 235.663 173.806 235.773 173.979C235.883 174.151 236.039 174.308 236.228 174.433L239.003 176.331L238.423 177.177L233.672 173.916L234.236 173.085L234.989 173.602C234.816 173.273 234.738 172.96 234.738 172.63C234.738 172.301 234.863 171.972 235.099 171.627C235.24 171.423 235.412 171.235 235.616 171.078L236.275 171.878Z" fill="white"/>
<path d="M236.997 168.618C237.248 168.21 237.499 167.912 237.766 167.709C238.032 167.505 238.299 167.364 238.581 167.254L238.989 168.069C238.675 168.195 238.44 168.336 238.267 168.493C238.095 168.649 237.922 168.853 237.781 169.088C237.687 169.245 237.609 169.418 237.577 169.606C237.546 169.794 237.546 169.966 237.593 170.154C237.64 170.343 237.734 170.515 237.875 170.703C238.016 170.891 238.205 171.048 238.455 171.205L239.083 171.581C239.349 171.738 239.6 171.848 239.819 171.895C240.055 171.942 240.258 171.942 240.447 171.895C240.635 171.848 240.807 171.769 240.948 171.644C241.089 171.519 241.215 171.377 241.325 171.221C241.528 170.891 241.638 170.594 241.685 170.343C241.732 170.076 241.748 169.825 241.717 169.574L242.642 169.559C242.673 169.825 242.673 170.139 242.61 170.499C242.548 170.86 242.375 171.268 242.109 171.722C241.685 172.412 241.168 172.82 240.556 172.945C239.929 173.071 239.271 172.914 238.565 172.491L237.938 172.114C237.577 171.895 237.311 171.66 237.091 171.393C236.872 171.127 236.731 170.844 236.652 170.546C236.574 170.249 236.574 169.935 236.621 169.621C236.668 169.261 236.793 168.947 236.997 168.618Z" fill="white"/>
<path d="M245.228 164.761C245.259 165.059 245.259 165.404 245.197 165.765C245.134 166.125 244.993 166.549 244.742 167.019C244.57 167.333 244.381 167.599 244.146 167.834C243.911 168.069 243.645 168.226 243.347 168.32C243.049 168.414 242.719 168.446 242.359 168.399C241.998 168.352 241.622 168.226 241.199 168.007L240.619 167.709C240.227 167.505 239.929 167.27 239.693 167.003C239.458 166.737 239.301 166.455 239.207 166.157C239.113 165.859 239.082 165.545 239.129 165.232C239.176 164.902 239.27 164.589 239.443 164.275C239.788 163.632 240.258 163.209 240.869 163.037C241.465 162.864 242.139 162.974 242.861 163.35L243.55 163.711L241.732 167.144L241.763 167.16C242.249 167.411 242.688 167.489 243.064 167.364C243.456 167.238 243.754 166.972 243.974 166.564C244.146 166.235 244.256 165.921 244.303 165.639C244.35 165.357 244.35 165.075 244.334 164.777L245.228 164.761ZM240.227 164.683C240.133 164.871 240.07 165.059 240.054 165.247C240.038 165.435 240.054 165.624 240.101 165.796C240.148 165.968 240.242 166.141 240.383 166.282C240.509 166.439 240.681 166.564 240.869 166.658L240.995 166.721L242.343 164.165L242.171 164.071C241.779 163.868 241.402 163.805 241.058 163.915C240.713 164.056 240.43 164.291 240.227 164.683Z" fill="white"/>
<path d="M246.311 161.781C246.468 161.436 246.53 161.138 246.499 160.887C246.468 160.636 246.342 160.464 246.123 160.369L246.044 160.338C245.935 160.291 245.84 160.26 245.746 160.26C245.652 160.26 245.558 160.291 245.464 160.354C245.37 160.417 245.26 160.511 245.135 160.652C245.009 160.777 244.884 160.965 244.712 161.185C244.523 161.451 244.335 161.671 244.147 161.859C243.959 162.047 243.771 162.188 243.583 162.282C243.395 162.376 243.206 162.439 243.003 162.439C242.799 162.439 242.579 162.392 242.344 162.282L242.234 162.235C242.062 162.157 241.889 162.031 241.764 161.875C241.623 161.718 241.529 161.53 241.466 161.31C241.403 161.091 241.388 160.84 241.419 160.558C241.45 160.275 241.544 159.962 241.701 159.617C241.858 159.256 242.062 158.943 242.281 158.676C242.501 158.41 242.767 158.174 243.081 158.002L243.598 158.739C243.395 158.849 243.191 159.021 243.003 159.225C242.814 159.429 242.658 159.664 242.548 159.93C242.375 160.322 242.297 160.636 242.344 160.856C242.391 161.075 242.501 161.232 242.689 161.31L242.767 161.357C242.971 161.451 243.159 161.436 243.332 161.31C243.504 161.185 243.724 160.934 243.99 160.558C244.194 160.26 244.382 160.025 244.586 159.821C244.774 159.617 244.962 159.476 245.166 159.382C245.354 159.288 245.558 159.241 245.762 159.241C245.966 159.241 246.201 159.303 246.436 159.413L246.562 159.476C246.766 159.57 246.938 159.695 247.079 159.883C247.22 160.056 247.314 160.26 247.361 160.495C247.408 160.73 247.424 160.981 247.393 161.263C247.361 161.545 247.267 161.843 247.126 162.141C246.922 162.58 246.687 162.956 246.405 163.27C246.123 163.584 245.84 163.819 245.527 163.976L244.994 163.207C245.26 163.035 245.511 162.847 245.731 162.627C245.982 162.376 246.17 162.094 246.311 161.781Z" fill="white"/>
<path d="M250.386 150.994C250.605 151.48 250.715 151.951 250.699 152.421C250.684 152.891 250.605 153.378 250.433 153.864C250.276 154.303 250.088 154.663 249.837 154.977C249.586 155.29 249.288 155.526 248.928 155.682C248.567 155.839 248.175 155.933 247.736 155.933C247.297 155.933 246.811 155.855 246.278 155.667L245.196 155.29C244.679 155.102 244.24 154.883 243.895 154.616C243.55 154.35 243.283 154.036 243.111 153.691C242.938 153.346 242.844 152.97 242.829 152.578C242.813 152.186 242.876 151.763 243.032 151.339C243.205 150.838 243.409 150.43 243.659 150.101C243.91 149.771 244.224 149.473 244.6 149.238L245.243 150.022C244.867 150.257 244.585 150.508 244.396 150.775C244.208 151.041 244.067 151.339 243.942 151.669C243.848 151.935 243.816 152.202 243.816 152.468C243.832 152.735 243.91 152.986 244.036 153.221C244.177 153.456 244.365 153.675 244.632 153.864C244.898 154.052 245.243 154.224 245.651 154.365L246.482 154.648C246.889 154.789 247.266 154.867 247.595 154.867C247.924 154.883 248.222 154.82 248.473 154.726C248.724 154.616 248.928 154.475 249.1 154.271C249.273 154.083 249.398 153.848 249.492 153.566C249.617 153.221 249.68 152.86 249.68 152.468C249.696 152.092 249.602 151.7 249.414 151.292L250.386 150.994Z" fill="white"/>
<path d="M246.42 146.448C246.623 145.679 247 145.131 247.564 144.801C248.129 144.472 248.803 144.409 249.618 144.629L250.308 144.817C251.108 145.037 251.688 145.413 252.001 145.977C252.331 146.542 252.393 147.2 252.189 147.969C251.986 148.737 251.609 149.286 251.045 149.615C250.48 149.944 249.806 150.007 248.991 149.787L248.317 149.599C247.501 149.38 246.937 149.003 246.608 148.439C246.279 147.875 246.216 147.216 246.42 146.448ZM251.311 147.733C251.421 147.294 251.374 146.887 251.155 146.542C250.935 146.197 250.527 145.93 249.932 145.774L249.414 145.648C248.819 145.491 248.348 145.507 247.988 145.711C247.627 145.915 247.392 146.228 247.266 146.667C247.157 147.106 247.204 147.498 247.423 147.859C247.643 148.204 248.05 148.47 248.63 148.627L249.148 148.768C249.744 148.925 250.214 148.894 250.575 148.705C250.951 148.502 251.186 148.172 251.311 147.733Z" fill="white"/>
<path d="M248.96 140.035C248.897 140.129 248.85 140.223 248.803 140.333C248.756 140.443 248.724 140.568 248.693 140.694C248.662 140.882 248.662 141.07 248.693 141.242C248.724 141.43 248.803 141.603 248.913 141.744C249.022 141.901 249.163 142.026 249.336 142.136C249.508 142.246 249.696 142.324 249.932 142.371L253.224 143.03L253.02 144.049L247.36 142.92L247.564 141.932L248.458 142.105V142.089C248.176 141.869 247.972 141.603 247.846 141.289C247.721 140.991 247.705 140.631 247.784 140.223C247.831 139.972 247.925 139.737 248.05 139.502L248.96 140.035Z" fill="white"/>
<path d="M248.991 138.09C248.725 137.886 248.552 137.62 248.474 137.291C248.395 136.961 248.38 136.632 248.427 136.303C248.521 135.582 248.819 135.048 249.305 134.735C249.791 134.421 250.402 134.312 251.17 134.406L252.174 134.547C252.566 134.609 252.911 134.704 253.193 134.86C253.475 135.017 253.71 135.205 253.899 135.425C254.087 135.644 254.197 135.911 254.275 136.209C254.338 136.507 254.353 136.82 254.306 137.165C254.244 137.588 254.118 137.918 253.946 138.153C253.758 138.388 253.569 138.545 253.397 138.639L256.25 139.031L256.109 140.034L248.16 138.937L248.301 137.965L248.991 138.09ZM251.97 138.482C252.111 138.498 252.268 138.482 252.425 138.435C252.582 138.388 252.738 138.294 252.864 138.184C253.005 138.059 253.115 137.918 253.209 137.745C253.303 137.573 253.366 137.385 253.397 137.149C253.46 136.726 253.35 136.365 253.083 136.083C252.817 135.801 252.409 135.629 251.86 135.55L251.155 135.456C250.606 135.378 250.167 135.44 249.838 135.644C249.509 135.848 249.305 136.162 249.242 136.585C249.211 136.789 249.226 136.993 249.258 137.181C249.305 137.369 249.383 137.541 249.493 137.698C249.603 137.855 249.728 137.98 249.9 138.09C250.073 138.2 250.261 138.263 250.481 138.294L251.97 138.482Z" fill="white"/>
<path d="M253.867 133.371L253.977 132.18L255.184 132.289L255.074 133.497L253.867 133.371Z" fill="white"/>
</svg>
