<svg width="24" height="24" viewBox="0 0 24 24" fill="none" xmlns="http://www.w3.org/2000/svg">
<path d="M5.70824 10.5804C7.33751 14.131 10.2366 16.954 13.841 18.4844L14.4187 18.742C15.7406 19.3313 17.2945 18.8835 18.1008 17.6811L18.8558 16.5551C19.1013 16.189 19.0265 15.6959 18.6836 15.419L16.123 13.3521C15.7469 13.0485 15.1939 13.1192 14.9061 13.5077L14.114 14.5772C12.0814 13.574 10.4312 11.9228 9.42852 9.88895L10.4974 9.09636C10.8856 8.80847 10.9563 8.2551 10.6529 7.87877L8.58708 5.31659C8.31048 4.97353 7.8178 4.8987 7.45192 5.14417L6.31877 5.90442C5.10953 6.71572 4.66457 8.28338 5.26711 9.60954L5.70758 10.579L5.70824 10.5804Z" fill="white"/>
</svg>
