<svg width="16" height="17" viewBox="0 0 16 17" fill="none" xmlns="http://www.w3.org/2000/svg">
<path d="M12.3587 13.0453C11.1489 14.0936 9.60133 14.6696 8.00065 14.6673C4.31865 14.6673 1.33398 11.6827 1.33398 8.00064C1.33398 4.31864 4.31865 1.33398 8.00065 1.33398C11.6827 1.33398 14.6673 4.31864 14.6673 8.00064C14.6673 9.42464 14.2207 10.7447 13.4607 11.8273L11.334 8.00064H13.334C13.3339 6.77145 12.9092 5.58002 12.1318 4.6279C11.3543 3.67579 10.2719 3.02144 9.06754 2.77555C7.86319 2.52966 6.61087 2.70732 5.52244 3.27849C4.434 3.84965 3.57627 4.77925 3.09433 5.91003C2.6124 7.04081 2.53585 8.30335 2.87765 9.48407C3.21944 10.6648 3.95858 11.6912 4.97004 12.3897C5.9815 13.0882 7.20318 13.4158 8.42841 13.3173C9.65365 13.2187 10.8072 12.6999 11.694 11.8487L12.3587 13.0453Z" fill="#666666"/>
</svg>
