<svg width="31" height="31" viewBox="0 0 31 31" fill="none" xmlns="http://www.w3.org/2000/svg">
<path d="M22.125 19.5H20.7425L20.2525 19.0275C21.9675 17.0325 23 14.4425 23 11.625C23 5.3425 17.9075 0.25 11.625 0.25C5.3425 0.25 0.25 5.3425 0.25 11.625C0.25 17.9075 5.3425 23 11.625 23C14.4425 23 17.0325 21.9675 19.0275 20.2525L19.5 20.7425V22.125L28.25 30.8575L30.8575 28.25L22.125 19.5ZM11.625 19.5C7.2675 19.5 3.75 15.9825 3.75 11.625C3.75 7.2675 7.2675 3.75 11.625 3.75C15.9825 3.75 19.5 7.2675 19.5 11.625C19.5 15.9825 15.9825 19.5 11.625 19.5Z" fill="#16192C"/>
</svg>
