<svg width="50" height="48" viewBox="0 0 50 48" fill="none" xmlns="http://www.w3.org/2000/svg">
<path d="M18.5673 13.2557L28.7956 23.5023L39.0285 13.274C39.623 12.6795 40.0946 11.9737 40.4163 11.197C40.738 10.4203 40.9036 9.58782 40.9036 8.7471C40.9036 7.90638 40.738 7.07387 40.4163 6.29715C40.0946 5.52043 39.623 4.81469 39.0285 4.22021C38.4341 3.62574 37.7283 3.15417 36.9516 2.83244C36.1749 2.51072 35.3424 2.34512 34.5017 2.34512C33.6609 2.34512 32.8284 2.51072 32.0517 2.83244C31.275 3.15417 30.5693 3.62574 29.9748 4.22021L29.4446 4.75036C29.3597 4.83534 29.2589 4.90277 29.148 4.94877C29.037 4.99477 28.9181 5.01845 28.7979 5.01845C28.6778 5.01845 28.5589 4.99477 28.4479 4.94877C28.3369 4.90277 28.2361 4.83534 28.1512 4.75036L27.6211 4.22021C27.0269 3.62574 26.3214 3.15412 25.545 2.83228C24.7686 2.51043 23.9363 2.34466 23.0958 2.34445C21.3983 2.34402 19.7702 3.01793 18.5696 4.21793C17.9751 4.8121 17.5035 5.51755 17.1817 6.294C16.8598 7.07045 16.6941 7.90269 16.6938 8.7432C16.6934 10.4407 17.3673 12.0688 18.5673 13.2694V13.2557Z" fill="#FCAF39"/>
<path d="M27.6212 24.9008C27.9338 25.212 28.357 25.3867 28.7981 25.3867C29.2391 25.3867 29.6623 25.212 29.9749 24.9008L40.3175 14.5537C41.8757 13.0258 42.7631 10.9415 42.7845 8.75933C42.8059 6.57717 41.9596 4.47588 40.4317 2.9177C38.9039 1.35953 36.8196 0.472111 34.6374 0.450684C32.4552 0.429257 30.3539 1.27557 28.7958 2.80345C27.2376 1.27557 25.1363 0.429257 22.9541 0.450684C20.7719 0.472111 18.6877 1.35953 17.1598 2.9177C15.6319 4.47588 14.7856 6.57717 14.807 8.75933C14.8285 10.9415 15.7159 13.0258 17.2741 14.5537L27.6212 24.9008ZM23.0829 2.32812C23.9245 2.3263 24.7582 2.49138 25.5356 2.8138C26.313 3.13622 27.0188 3.6096 27.6121 4.20653L28.1422 4.73667C28.2271 4.82166 28.3279 4.88909 28.4389 4.93509C28.5498 4.98109 28.6688 5.00474 28.7889 5.00474C28.909 5.00474 29.028 4.98109 29.1389 4.93509C29.2499 4.88909 29.3507 4.82166 29.4356 4.73667L29.9658 4.20653C31.1664 3.00593 32.7947 2.33141 34.4926 2.33141C36.1905 2.33141 37.8189 3.00593 39.0195 4.20653C40.2201 5.40713 40.8946 7.03548 40.8946 8.73339C40.8946 10.4313 40.2201 12.0597 39.0195 13.2603L28.7958 23.5023L18.5674 13.2694C17.671 12.3748 17.0601 11.2343 16.8123 9.99226C16.5645 8.75025 16.6908 7.46263 17.1753 6.29248C17.6598 5.12233 18.4807 4.12229 19.534 3.419C20.5872 2.71572 21.8255 2.34085 23.092 2.34184L23.0829 2.32812Z" fill="#FCAF39"/>
<path d="M47.3602 23.2235C46.9711 22.8316 46.5083 22.5206 45.9985 22.3083C45.4886 22.0961 44.9418 21.9868 44.3896 21.9868C43.8373 21.9868 43.2905 22.0961 42.7807 22.3083C42.2708 22.5206 41.808 22.8316 41.4189 23.2235L40.907 23.7354C40.1018 23.1915 39.1324 22.9447 38.1651 23.0373C37.1979 23.1298 36.2929 23.556 35.6054 24.2427L31.9995 27.8486C31.7015 27.7673 31.3943 27.7242 31.0854 27.7207H23.2702C20.5966 25.6686 14.7695 23.3149 10.0986 27.9903L1.66646 36.4179C1.49648 36.5893 1.40119 36.821 1.40138 37.0624C1.40069 37.1827 1.42375 37.3019 1.46923 37.4133C1.51472 37.5247 1.58174 37.6259 1.66646 37.7113L10.1946 46.2349C10.3653 46.4066 10.597 46.5035 10.839 46.5046C10.9597 46.5046 11.0791 46.4809 11.1905 46.4346C11.3019 46.3883 11.403 46.3205 11.488 46.2349L16.5473 41.1756H32.3605C35.5917 41.1756 38.6813 37.8576 38.9783 37.5194L47.3602 29.1374C47.7516 28.748 48.0621 28.2851 48.274 27.7753C48.4859 27.2655 48.595 26.7188 48.595 26.1667C48.595 25.6147 48.4859 25.068 48.274 24.5582C48.0621 24.0484 47.7516 23.5855 47.3602 23.1961V23.2235ZM37.6301 36.2991C36.8714 37.1492 34.4309 39.3566 32.3605 39.3566H16.1817C15.9403 39.3564 15.7087 39.4517 15.5373 39.6217L10.8527 44.3063L3.62255 37.0715L11.392 29.302C16.2503 24.4437 22.1231 29.1558 22.3607 29.3569C22.5252 29.4931 22.7322 29.5675 22.9457 29.5671H31.0809C31.3247 29.5548 31.5684 29.5922 31.7973 29.677C32.0262 29.7618 32.2355 29.8923 32.4124 30.0605C32.5893 30.2287 32.7301 30.4311 32.8264 30.6555C32.9226 30.8798 32.9722 31.1213 32.9722 31.3655C32.9722 31.6096 32.9226 31.8512 32.8264 32.0755C32.7301 32.2998 32.5893 32.5022 32.4124 32.6704C32.2355 32.8386 32.0262 32.9691 31.7973 33.0539C31.5684 33.1388 31.3247 33.1762 31.0809 33.1639H20.9302C20.6878 33.1639 20.4553 33.2602 20.2839 33.4316C20.1125 33.603 20.0162 33.8355 20.0162 34.078C20.0162 34.3204 20.1125 34.5529 20.2839 34.7243C20.4553 34.8957 20.6878 34.992 20.9302 34.992H31.0991C31.7945 34.9919 32.4752 34.7919 33.0602 34.4159C33.6452 34.04 34.1099 33.5039 34.3989 32.8714L42.7351 24.5169C43.1812 24.0934 43.7751 23.861 44.3902 23.8692C45.0053 23.8774 45.5928 24.1256 46.0274 24.5608C46.4621 24.9961 46.7095 25.5839 46.7168 26.199C46.7242 26.8141 46.491 27.4077 46.0669 27.8532L37.6667 36.2534L37.6301 36.2991ZM34.5223 30.1521C34.3417 29.6378 34.0499 29.1696 33.6677 28.781L36.9217 25.527C37.2643 25.1835 37.7052 24.955 38.1834 24.8731C38.6616 24.7912 39.1534 24.86 39.5907 25.0699L37.0565 27.611L34.5223 30.1521Z" fill="#403323"/>
</svg>
