<svg width="64" height="64" viewBox="0 0 64 64" fill="none" xmlns="http://www.w3.org/2000/svg">
<path d="M31.8519 32.5774C32.6979 33.3026 33.9065 33.3026 34.7525 32.5774L59.6495 7.68043C60.4956 6.83441 60.4956 5.50496 59.6495 4.65895L58.3201 3.45035C57.4741 2.60434 56.1446 2.7252 55.2986 3.57121L31.731 29.6768C31.0059 30.5228 31.0059 31.8523 31.8519 32.5774Z" stroke="#C0C0C0" stroke-width="1.81289" stroke-miterlimit="10" stroke-linecap="round" stroke-linejoin="round"/>
<path d="M40.7957 26.5347L37.5325 23.2715" stroke="#C0C0C0" stroke-width="1.81289" stroke-miterlimit="10" stroke-linecap="round" stroke-linejoin="round"/>
<path d="M39.2244 27.9844L36.082 24.9629" stroke="#C0C0C0" stroke-width="1.81289" stroke-miterlimit="10" stroke-linecap="round" stroke-linejoin="round"/>
<path d="M24.4791 34.7525C24.2374 35.2359 24.3583 36.6862 23.8749 37.7739C23.5123 38.8617 22.6663 39.5868 22.6663 39.5868C22.6663 39.5868 27.2589 41.6414 29.9178 38.7408C32.2141 36.4445 31.1264 34.7525 29.9178 33.5439C28.5884 32.3353 25.5669 32.3353 24.4791 34.7525Z" stroke="#C0C0C0" stroke-width="1.81289" stroke-miterlimit="10" stroke-linecap="round" stroke-linejoin="round"/>
<path d="M27.0174 37.291C27.0174 37.291 25.5671 39.3456 22.7874 39.7082" stroke="#C0C0C0" stroke-width="1.81289" stroke-miterlimit="10" stroke-linecap="round" stroke-linejoin="round"/>
<path d="M42.8504 24.4796C45.8718 28.4679 47.5639 33.6649 47.5639 38.8618C47.5639 51.1895 37.5326 61.2208 25.2049 61.2208C12.8773 61.2208 2.9668 51.1895 2.9668 38.8618C2.9668 28.5888 7.80117 18.7992 14.811 20.9746C18.4368 22.0624 15.7779 26.2924 17.7116 26.7759C25.9301 28.8305 27.2595 16.7446 32.3356 17.7114C35.1154 18.1949 37.5326 19.4035 39.708 21.0955" stroke="#C0C0C0" stroke-width="1.81289" stroke-miterlimit="10" stroke-linecap="round" stroke-linejoin="round"/>
<path d="M17.2282 33.7862C17.2282 35.9617 15.4153 37.7746 13.2398 37.7746C11.0644 37.7746 9.25146 35.9617 9.25146 33.7862C9.25146 31.6107 11.0644 29.7979 13.2398 29.7979C15.5361 29.7979 17.2282 31.6107 17.2282 33.7862Z" stroke="#C0C0C0" stroke-width="1.81289" stroke-miterlimit="10" stroke-linecap="round" stroke-linejoin="round"/>
<path d="M42.125 38.8618C42.125 40.433 40.9164 41.6416 39.3452 41.6416C37.774 41.6416 36.5654 40.433 36.5654 38.8618C36.5654 37.2906 37.774 36.082 39.3452 36.082C40.9164 36.082 42.125 37.2906 42.125 38.8618Z" stroke="#C0C0C0" stroke-width="1.81289" stroke-miterlimit="10" stroke-linecap="round" stroke-linejoin="round"/>
<path d="M37.5321 49.4981C37.5321 51.4318 35.9609 53.003 34.0271 53.003C32.0934 53.003 30.5222 51.4318 30.5222 49.4981C30.5222 47.5643 32.0934 45.9932 34.0271 45.9932C35.9609 45.9932 37.5321 47.5643 37.5321 49.4981Z" stroke="#C0C0C0" stroke-width="1.81289" stroke-miterlimit="10" stroke-linecap="round" stroke-linejoin="round"/>
<path d="M23.0294 51.9151C23.0294 54.0906 21.2166 55.9035 19.0411 55.9035C16.8656 55.9035 15.0527 54.0906 15.0527 51.9151C15.0527 49.7396 16.8656 47.9268 19.0411 47.9268C21.2166 47.9268 23.0294 49.7396 23.0294 51.9151Z" stroke="#C0C0C0" stroke-width="1.81289" stroke-miterlimit="10" stroke-linecap="round" stroke-linejoin="round"/>
</svg>
