<svg width="22" height="22" viewBox="0 0 22 22" fill="none" xmlns="http://www.w3.org/2000/svg">
<path d="M5 15.6671C5.91212 15.1405 6.94678 14.8633 8 14.8633C9.05322 14.8633 10.0879 15.1405 11 15.6671C11.9121 15.1405 12.9468 14.8633 14 14.8633C15.0532 14.8633 16.0879 15.1405 17 15.6671" stroke="#666666" stroke-width="1.33333" stroke-linecap="round" stroke-linejoin="round"/>
<path d="M5 7.00014C5.91212 6.47353 6.94678 6.19629 8 6.19629C9.05322 6.19629 10.0879 6.47353 11 7.00014C11.9121 6.47353 12.9468 6.19629 14 6.19629C15.0532 6.19629 16.0879 6.47353 17 7.00014" stroke="#666666" stroke-width="1.33333" stroke-linecap="round" stroke-linejoin="round"/>
<path d="M5 7V15.6667" stroke="#666666" stroke-width="1.33333" stroke-linecap="round" stroke-linejoin="round"/>
<path d="M11 7V15.6667" stroke="#666666" stroke-width="1.33333" stroke-linecap="round" stroke-linejoin="round"/>
<path d="M17 7V15.6667" stroke="#666666" stroke-width="1.33333" stroke-linecap="round" stroke-linejoin="round"/>
</svg>
