<svg width="213" height="172" viewBox="0 0 213 172" fill="none" xmlns="http://www.w3.org/2000/svg">
<g opacity="0.4" clip-path="url(#clip0)">
<path d="M20.9858 19.2888C21.1325 19.1289 21.239 19.0461 21.3871 19.0602C21.581 19.0637 21.7862 19.2001 21.9759 19.3111C22.4992 19.6546 26.2069 21.9619 27.4847 22.8568C28.4494 23.5241 29.4394 24.1759 30.5247 24.6119C31.825 25.1433 33.2037 25.2596 34.5972 25.3143C39.8241 25.536 44.9769 26.0655 50.0698 27.3835C59.3197 29.7716 68.0314 34.3955 74.4976 41.5154C77.7511 45.0802 80.2995 49.1474 82.0043 53.6619C82.6214 53.6157 83.254 53.595 83.8661 53.5694C80.77 46.1139 80.2826 37.5309 82.9303 29.8579C85.698 21.8665 91.6799 15.0863 99.4133 11.638C101.839 10.553 104.367 9.66671 106.652 8.26561C108.602 7.0874 110.223 5.56912 111.858 3.9893C112.172 3.67448 112.48 3.20618 112.961 3.36586C113.462 3.53048 113.959 3.8026 114.415 4.06484C116.296 5.06214 117.996 6.36291 119.629 7.75635C121.875 9.66658 124.08 11.7409 126.088 13.9193C127.766 15.7575 129.191 17.7515 130.417 19.8495C136.68 15.0473 144.547 13.0206 152.346 12.6269C157.033 12.3927 161.736 12.7264 166.394 13.2447C171.286 13.7763 176.175 14.4154 181.043 15.1366C183.403 15.4902 186.012 15.6216 188.259 16.4469C189.292 16.827 190.522 17.3847 190.847 18.5487C190.973 19.0133 191.013 19.4786 191.119 19.9383C191.337 21.0981 191.617 22.2728 191.927 23.4113C192.553 25.6679 193.316 27.8927 194.038 30.1075C195.34 34.0472 196.356 38.0046 196.788 42.1461C197.225 46.354 197.218 50.6067 196.982 54.8255C196.741 59.1518 196.424 63.5248 195.78 67.8187C193.176 85.3783 180.426 98.8789 165.735 107.678C158.178 112.189 149.907 115.984 141.044 116.751C138.938 118.13 136.842 119.555 134.916 121.173C132.392 123.298 130.493 125.791 128.847 128.583C136.49 125.33 144.375 122.244 152.793 122.152C161.926 122.059 170.776 125.392 178.689 129.737C185.834 133.678 192.9 138.664 195.507 146.804C197.674 153.535 196.701 160.723 196.312 167.64C196.084 171.644 195.99 175.724 196.746 179.683C197.125 181.707 197.834 183.614 198.442 185.585C198.813 186.738 199.165 187.974 199.042 189.203C198.864 191.113 197.443 191.529 195.888 191.609C193.016 191.761 188.086 190.396 185.787 189.97C181.024 189.079 176.247 189.683 171.426 189.754C161.701 189.878 152.378 186.625 144.007 181.845C135.708 177.126 128.082 171.049 121.353 164.3C117.865 160.809 114.595 157.045 111.685 153.042C110.657 152.728 109.655 152.486 108.552 152.393C107.086 152.278 105.602 152.331 104.133 152.41C102.577 152.49 101.042 152.574 99.4807 152.588C99.3537 152.666 99.2268 152.743 99.1457 152.811C97.3438 154.003 95.3008 155.028 93.4214 156.093C91.0695 157.413 88.7472 158.61 86.4778 160.036C86.1224 160.254 85.7874 160.477 85.4524 160.7C85.4982 160.69 85.5645 160.684 85.5899 160.668C87.6681 160.216 89.7626 159.876 91.8577 159.622C95.3139 159.199 98.7962 158.847 102.276 158.777C105.888 158.695 109.197 159.69 112.319 161.465C115.369 163.179 118.051 165.434 120.368 168.034C122.566 170.497 124.887 172.903 126.979 175.449C127.376 175.958 128.875 177.644 127.987 178.276C127.281 178.778 126.322 178.72 125.485 178.778C120.283 179.083 115.233 181.183 109.985 180.24C103.102 178.989 97.8256 173.936 92.5059 169.785C90.7035 168.373 88.8249 167.007 86.8462 165.877C85.7236 165.237 84.5657 164.653 83.3775 164.106C83.0446 163.96 82.1801 163.686 81.4735 163.385C81.0828 163.659 80.7126 163.939 80.3169 164.234C81.259 164.635 82.2336 165.262 82.6743 165.498C84.622 166.577 86.5598 167.697 88.4109 168.817C91.2823 170.553 93.5917 172.826 95.0195 175.884C96.3282 178.719 97.2899 181.556 99.1374 184.129C100.758 186.388 102.659 188.649 103.1 191.491C103.396 193.407 102.876 195.3 102.206 197.092C101.417 199.202 100.572 201.363 99.0346 203.075C97.7398 204.499 96.8578 201.42 96.5998 200.425C96.2571 199.061 96.2657 197.587 95.5718 196.334C94.1785 193.762 91.6491 192.043 90.2149 189.461C89.4639 188.085 88.9365 186.591 88.6842 185.032C88.4269 183.494 88.5158 181.866 87.6831 180.47C86.8348 179.05 85.5804 177.878 84.5748 176.572C82.4968 173.877 80.808 170.734 79.4507 167.562C79.3259 167.272 78.905 166.324 78.6328 165.476C76.9798 166.77 75.3627 168.094 73.7921 169.494C71.8062 171.271 70.2765 173.31 68.5063 175.27C67.6769 176.198 66.6156 176.832 65.4456 177.287C62.9076 178.301 60.3794 179.274 57.7842 180.166C53.7997 181.526 49.8971 182.905 46.4887 185.467C45.4591 186.238 44.4809 187.065 43.5437 187.902C43.3208 188.109 43.0775 188.31 42.8137 188.507C43.5077 188.501 44.2171 188.521 44.8743 188.397C45.5979 188.268 46.3362 188.078 47.0386 187.857C50.4138 186.871 53.7685 184.622 57.3036 186.388C58.4615 186.972 59.4839 187.849 60.5057 188.638C61.2193 189.18 62.0296 189.68 62.5662 190.417C63.0873 191.129 62.3651 191.432 61.7848 191.596C60.0133 192.122 59.7374 193.987 59.1217 195.466C58.7965 196.278 58.2718 197.019 57.6131 197.598C55.728 199.226 52.9742 199.428 50.5928 199.612C48.8947 199.744 46.6345 199.784 45.0556 198.881C44.0493 198.747 43.0917 198.32 42.2547 197.662C41.125 196.781 40.3395 195.549 39.8135 194.228C39.6781 193.891 39.5272 193.529 39.4123 193.198C39.1238 193.497 38.7994 193.766 38.48 194.014C37.085 195.044 35.3389 195.556 33.736 196.101C30.2297 197.272 26.6655 198.234 23.1226 199.288C19.6 200.346 16.1452 201.573 12.7842 203.039C9.49926 204.459 6.30251 206.052 3.07473 207.594C1.04158 208.579 -0.981685 209.522 -3.05643 210.41C-4.0938 210.854 -5.12624 211.277 -6.17912 211.695C-7.80676 212.344 -9.00774 212.748 -10.7608 212.389C-11.9977 212.134 -13.1697 211.698 -14.3516 211.304C-15.0526 211.069 -18.4798 210.024 -17.0975 208.687C-16.3379 207.959 -9.93949 204.752 -6.79845 203.211C-3.62709 201.633 -0.409184 200.132 2.80378 198.651C6.11337 197.129 9.43847 195.632 12.7636 194.135C15.8954 192.722 19.0315 191.201 22.3143 190.15C23.6274 189.729 24.9207 189.391 26.2606 189.128C26.9433 188.99 27.6309 188.83 28.2768 188.574C28.9228 188.318 29.3375 187.854 29.8439 187.368C31.0696 186.232 32.5329 185.457 33.9962 184.682C36.3185 183.485 38.2085 181.837 40.1077 180.06C41.9562 178.315 43.8413 176.687 46.0246 175.348C48.1318 174.056 50.3378 172.983 52.5021 171.813C53.8991 171.044 55.3427 170.351 56.7708 169.633C57.8991 169.081 58.5656 167.571 59.1136 166.553C59.6214 165.612 60.1292 164.671 60.6575 163.735C61.6583 161.915 62.664 160.075 63.6648 158.255C64.5499 156.645 65.4505 155.062 66.5818 153.599C67.0818 152.96 67.5973 152.346 68.0974 151.708C67.3181 151.888 66.5389 152.069 65.7899 152.213C61.1081 153.144 56.3 153.609 51.5131 153.537C49.0993 153.496 46.6896 153.348 44.2941 153.051C41.6024 152.726 38.9283 152.057 36.2274 151.86C33.3121 151.655 30.4285 152.217 27.5598 152.717C25.8221 153.013 24.069 153.284 22.2884 153.309C21.3956 153.332 19.4119 153.482 18.6672 152.89C17.9995 152.337 18.0828 150.643 18.0532 150.136C17.9834 149.078 18.0822 148.038 18.1655 146.973C18.3278 144.95 18.2518 143.108 17.4303 141.217C16.6766 139.494 15.8826 137.847 15.4646 135.988C15.0726 134.2 14.9098 132.359 14.9769 130.552C15.0935 126.652 16.0987 122.836 17.5495 119.236C19.1153 115.339 21.1824 111.606 23.9378 108.43C29.1404 102.46 36.7821 99.6627 44.5457 99.3256C48.963 99.1346 53.4022 99.7519 57.7067 100.749C59.9407 101.268 62.15 101.888 64.3241 102.566C65.2091 102.845 66.2775 103.082 67.2499 103.447C67.6386 101.653 68.0682 99.868 68.411 98.0842C68.7193 96.444 68.7532 94.9546 68.4804 93.3909C68.0947 93.0155 55.7559 80.8946 50.0054 75.2067C45.0214 70.2902 40.0367 65.2866 35.8785 59.6364C33.8406 56.8647 32.0059 53.9684 30.4962 50.8903C28.8414 47.5166 27.6745 43.9136 25.9533 40.5455C24.1595 37.0297 22.1577 33.6589 21.3201 29.7665C21.2088 29.2404 21.1023 28.6937 21.0163 28.152C20.7167 26.4299 20.5546 24.676 20.566 22.9206C20.523 22.0203 20.5056 19.8456 20.9858 19.2888ZM87.8886 164.154C89.3956 164.996 90.8271 165.972 92.2028 166.999C94.9339 169.048 97.4781 171.335 100.214 173.363C102.914 175.362 105.827 177.195 109.085 178.134C112.205 179.019 115.325 178.731 118.474 178.147C121.17 177.648 123.854 177.103 126.355 177.144C124.438 174.857 122.492 172.693 120.366 170.378C118.07 167.869 115.592 165.577 112.669 163.785C109.741 162.014 106.588 160.731 103.128 160.719C99.8419 160.706 96.4873 161.067 93.2144 161.448C90.4973 161.768 87.7964 162.2 85.1377 162.816C86.0848 163.197 87.0072 163.681 87.8886 164.154ZM82.2495 169.78C83.7895 172.822 85.7498 175.467 87.9392 178.058C89.0005 179.313 89.7352 180.576 90.0087 182.226C90.2561 183.806 90.3195 185.34 90.842 186.856C91.3694 188.351 92.1915 189.7 93.2218 190.904C94.1335 191.971 95.1468 192.976 96.0029 194.094C96.9414 195.32 97.5541 196.64 97.8164 198.157C97.9665 199.062 98.0221 200.269 98.5947 201.037C99.2887 199.772 99.9108 198.447 100.431 197.096C101.02 195.546 101.64 193.872 101.508 192.169C101.309 189.582 99.475 187.402 98.0097 185.398C97.179 184.264 96.3992 183.099 95.7765 181.819C95.1123 180.443 94.5751 178.989 93.9821 177.587C93.4096 176.19 92.7658 174.819 91.8174 173.634C90.8535 172.425 89.6258 171.411 88.3586 170.562C86.7579 169.481 85.0866 168.513 83.4252 167.503C82.3484 166.852 81.297 166.186 80.2506 165.498C81.017 166.899 81.5599 168.42 82.2495 169.78ZM76.6799 57.1716C76.4168 57.4553 76.1897 57.7694 76.0035 58.0934C76.378 57.7064 76.8294 57.3597 77.3477 57.0943C78.8364 56.3038 80.4654 56.4589 82.0599 56.7575C83.8637 57.0851 85.638 57.5357 87.4517 57.8222C89.2859 58.1137 91.2104 58.21 93.0334 57.7391C94.9734 57.2313 96.6018 56.0405 98.2668 54.9671C101.302 52.966 104.7 51.6168 108.129 53.5528C109.939 54.5763 111.562 55.9238 113.013 57.4467C111.075 55.0682 109.069 53.0638 107.268 51.8253C104.246 49.7272 98.7748 50.879 94.7614 52.4483C92.4927 53.3324 90.2093 54.278 87.7629 54.6417C84.2362 55.1782 79.4261 54.1239 76.6799 57.1716ZM78.6063 93.0389C78.2579 94.1268 77.7762 95.139 77.3509 96.1866C77.8713 96.8116 78.3868 97.4571 78.9022 98.1027C81.3667 101.26 84.8974 105.022 83.5241 109.378C82.7581 111.841 80.8447 113.766 79.1606 115.638C77.3044 117.685 75.6231 119.905 74.1519 122.241C73.1293 123.882 72.2244 125.574 71.4528 127.341C70.5507 129.38 69.8228 131.505 69.2635 133.648C69.1252 134.223 69.0222 134.741 68.9094 135.299C69.068 135.989 69.3239 136.724 69.6201 137.381C69.9733 138.161 70.3978 138.915 70.9288 139.586C71.4238 140.227 72.9095 141.606 73.7501 142.07C75.8827 140.762 78.1091 139.694 80.6408 139.156C82.6478 138.729 84.7034 138.64 86.7464 138.873C87.6095 138.974 92.0833 139.447 91.239 141.067C91.043 141.432 90.4182 141.78 90.0782 142.023C88.0852 143.56 85.7996 144.874 83.5584 146.004C83.3603 146.108 82.7658 146.42 82.2115 146.655C82.9794 146.971 83.7918 147.102 84.4145 147.122C88.4052 147.175 92.4637 145.508 95.3996 142.572C96.8778 141.106 97.7009 139.395 98.7736 137.635C99.8012 135.974 101.667 135.144 103.417 136.327C103.807 136.595 104.295 136.995 104.634 137.294C106.927 135.048 109.149 132.829 111.654 130.786C114.158 128.744 116.921 127.154 119.585 125.346C122.351 123.475 124.767 121.259 126.007 118.086C127.242 114.933 127.97 111.463 128.407 108.117C129.273 101.641 128.924 95.0018 127.358 88.6541C126.503 85.1917 125.277 81.8348 124.071 78.4829C122.866 75.131 121.609 71.8102 120.114 68.5835C117.751 63.4758 113.914 59.0971 109.387 55.7887C107.878 54.6859 106.201 53.6511 104.258 53.8109C102.535 53.9585 100.96 54.8367 99.5283 55.7496C96.7364 57.549 94.2046 59.3463 90.766 59.4266C87.5419 59.5154 84.4616 58.4668 81.3186 57.8589C79.2538 57.4466 77.4005 57.9536 76.2213 59.7956C74.382 62.6719 75.3796 66.1689 76.0014 69.2495C76.7353 72.9432 77.7442 76.5731 78.519 80.2767C79.0978 83.0864 79.5243 85.9895 79.3739 88.8617C79.2271 90.2804 79.0345 91.7098 78.6063 93.0389ZM105.529 138.161C105.565 138.192 107.733 140.062 110.985 140.935C111.69 141.062 112.569 140.558 113.431 139.855C114.475 139.022 115.318 137.858 115.844 136.661C117.373 133.189 118.13 128.966 118.322 128.079C116.946 128.94 115.702 129.703 114.393 130.645C111.252 132.903 108.334 135.497 105.529 138.161ZM170.11 36.9121C170.551 34.0016 170.911 29.8995 173.936 28.5689C171.519 28.8094 169.179 29.6327 166.885 30.5324C163.324 31.929 160.37 33.8628 157.78 36.7096C155.423 39.3088 153.37 42.1767 150.647 44.4054C147.93 46.6136 144.805 48.1805 141.844 49.9609C139.467 51.3833 137.373 52.9823 135.526 54.9017C135.094 56.4252 134.576 57.9495 133.935 59.4441C131.671 64.7139 128.177 69.339 123.566 72.7607C125.351 77.034 126.861 81.4581 128.167 85.8326C130.107 92.3358 130.831 99.2178 130.222 105.973C129.982 108.585 129.575 111.178 128.962 113.721C140.593 105.051 151.019 94.4613 158.337 81.8614C162.288 75.0677 165.291 67.7191 167.01 60.0386C168.719 52.3991 168.952 44.5981 170.11 36.9121ZM171.301 37.1783C172.093 36.0458 173.013 35.0093 174.072 34.115C174.944 33.3707 175.924 32.7176 176.94 32.1819C177.9 31.6978 178.898 31.4181 179.911 31.0769C178.585 29.2152 175.594 28.5139 173.728 29.9728C172.262 31.1162 171.932 33.2069 171.65 34.9186C171.534 35.6718 171.417 36.4251 171.301 37.1783ZM126.28 16.2665C125.028 14.7266 118.065 6.70519 112.689 4.494C111.449 5.69178 110.457 6.75439 109.148 7.69687C107.298 9.18128 105.215 10.3709 103.004 11.3773C99.0733 13.1403 95.4041 14.9882 92.2185 17.9731C86.1563 23.6486 82.6637 31.595 82.501 39.9122C82.416 44.5801 83.3769 49.2185 85.2483 53.4911C85.2638 53.5166 85.2588 53.5371 85.2743 53.5625C85.866 53.5319 86.4577 53.5013 87.0338 53.4453C89.5577 53.2089 91.923 52.283 94.258 51.3933C98.4547 49.7815 103.914 48.4097 108.125 51.1426C112.541 54.0118 117.156 59.9243 120.078 65.4059C121.109 67.3264 122.059 69.3141 122.932 71.3486C127.421 67.9842 130.705 63.3301 132.787 58.1899C134.438 54.1177 135.321 49.7297 135.434 45.3942C135.582 40.3727 134.797 35.3643 133.36 30.5456C131.839 25.3592 129.707 20.4594 126.28 16.2665ZM162.684 107.765C169.811 103.779 176.507 98.8865 181.995 92.8116C187.801 86.4013 192.107 78.6733 193.931 70.1935C194.876 65.8203 195.222 61.3242 195.559 56.8692C195.873 52.7777 196.024 48.6466 195.802 44.534C195.545 39.9356 194.647 35.4859 193.285 31.076C192.604 28.871 191.877 26.6767 191.288 24.4505C190.998 23.3169 190.729 22.1882 190.51 21.0284C190.35 20.1649 190.244 18.9888 189.631 18.298C188.946 17.5464 187.627 17.271 186.697 17.0896C184.612 16.6723 182.452 16.4757 180.332 16.202C175.796 15.6264 171.276 15.0762 166.731 14.6286C158.525 13.8385 150.067 13.4651 142.033 15.7337C138.108 16.8468 134.351 18.6084 131.106 21.123C132.297 23.3646 133.286 25.7307 134.122 28.1902C136.787 35.9973 137.723 44.5151 136.027 52.5485C137.162 51.5205 138.405 50.5837 139.689 49.7438C142.77 47.7321 146.12 46.1326 149.082 43.8967C152.049 41.6403 154.229 38.6077 156.727 35.8691C159.322 33.0018 162.271 31.0014 165.872 29.6147C169.26 28.3066 173.463 26.8483 177.091 28.1378C178.509 28.6324 179.628 29.4673 180.252 30.378C180.51 30.7443 180.805 31.2279 180.385 31.6256C180.162 31.8321 178.493 32.3836 178 32.6335C176.943 33.1593 175.948 33.787 175.035 34.5214C173.321 35.8869 171.957 37.5975 170.993 39.535C170.945 39.9141 170.902 40.2726 170.854 40.6517C170.488 43.971 170.183 47.305 169.792 50.6398C169.807 50.6653 169.838 50.7162 169.828 50.7572C169.341 66.8967 167.564 83.8966 159.397 98.1362C155.588 104.79 150.494 110.309 144.155 114.616C143.998 114.73 143.846 114.823 143.688 114.937C150.425 113.831 156.761 111.065 162.684 107.765ZM132.92 121.016C135.503 118.645 138.473 116.737 141.381 114.813C144.467 112.781 147.461 110.683 150.098 108.087C152.787 105.459 155.11 102.461 157.11 99.2763C161.195 92.7322 163.846 85.4071 165.562 77.9211C166.952 71.8758 167.755 65.7536 168.455 59.6067C168.259 60.6012 168.022 61.5857 167.76 62.5858C164.084 76.8692 156.069 89.7564 146 100.389C140.688 106.007 134.732 110.97 128.487 115.516C128.457 115.639 128.433 115.742 128.383 115.86C127.42 119.23 126.004 122.144 123.344 124.475C122.275 125.41 120.956 126.393 119.774 127.171C119.443 128.632 119.179 130.001 118.859 131.421C118.303 134 117.92 135.948 116.587 138.252C115.958 139.337 114.877 140.682 113.592 141.522C116.199 142.109 118.481 140.902 120.355 139.141C123.064 136.605 124.691 133.265 126.379 130.027C128.149 126.721 130.113 123.593 132.92 121.016ZM118.655 158.786C124.906 165.81 132.136 172.008 139.944 177.238C148.127 182.711 157.372 187.095 167.274 188.034C172.671 188.536 178.129 187.62 183.503 188.311C186.189 188.657 188.783 189.479 191.42 190.03C192.739 190.305 195.826 190.965 197.255 190.334C198.999 189.561 197.598 185.945 197.155 184.818C196.535 183.257 196.027 181.68 195.692 180.015C195.049 176.755 194.945 173.409 195.031 170.087C195.196 163.377 196.115 156.414 194.745 149.789C194.013 146.269 192.507 142.996 190.183 140.242C187.52 137.102 184.112 134.716 180.585 132.648C173.074 128.249 164.743 124.563 155.966 123.896C146.193 123.14 137.028 126.871 128.179 130.549C128.108 130.575 127.772 130.711 127.671 130.773C125.791 134.356 123.943 138.077 120.78 140.698C120.02 141.339 119.177 141.873 118.273 142.306C117.022 142.915 115.591 143.199 114.192 143.164C113.156 143.153 112.124 142.947 111.122 142.704C109.859 142.377 108.626 141.927 107.397 141.457C107.1 141.341 106.803 141.226 106.532 141.095C107.341 142.68 108.159 144.224 109.049 145.741C109.432 146.398 109.835 147.06 110.244 147.701C112.745 151.605 115.576 155.307 118.655 158.786ZM105.646 150.801C107.182 150.803 108.897 150.87 110.482 151.297C108.479 148.382 106.633 145.352 105.035 142.188C104.232 140.583 102.138 135.345 100.094 138.714C98.9356 140.648 97.9144 142.463 96.2429 144.013C93.0214 146.967 88.6378 148.816 84.2275 148.618C83.9927 148.605 83.7988 148.601 83.6507 148.587C85.2225 149.249 86.9707 149.628 88.5298 149.984C91.3668 150.604 94.2623 150.892 97.1459 150.96C99.9836 151.038 102.809 150.809 105.646 150.801ZM50.7748 198.137C52.3862 198.006 54.1302 197.863 55.6457 197.231C57.1153 196.609 57.81 195.432 58.406 194.035C58.7163 193.285 59.0471 192.54 59.5218 191.917C59.4964 191.932 59.4964 191.932 59.4759 191.927C58.581 192.319 57.8412 192.965 57.1064 193.59C56.4018 194.179 55.7128 194.794 54.9152 195.231C54.0619 195.719 53.1409 196.039 52.2305 196.405C51.0097 196.891 49.9032 197.622 48.7086 198.18C49.3926 198.215 50.071 198.184 50.7748 198.137ZM42.9578 196.269C43.6157 196.862 44.3329 197.209 45.079 197.346C45.1199 197.356 45.1404 197.361 45.1813 197.371C45.9986 197.481 46.8497 197.362 47.7193 196.986C48.4668 196.667 49.1777 196.231 49.9146 195.867C50.7277 195.456 51.5874 195.121 52.4421 194.807C53.3427 194.482 54.1917 194.101 55.014 193.562C55.7602 193.069 56.4393 192.495 57.1699 191.978C58.2405 191.216 59.8159 190.425 61.2256 190.592C60.0769 189.88 58.9479 189.086 57.7942 188.395C56.2767 187.507 54.7585 187.162 53.0526 187.596C51.5554 187.972 50.1577 188.654 48.7282 189.199C47.1817 189.78 45.6281 190.121 43.9638 190.022C43.0654 189.979 41.9978 189.829 41.2164 190.378C41.0894 190.456 40.9984 190.564 40.887 190.667C40.6959 191.012 40.5457 191.366 40.3905 191.741C41.1231 193.373 41.5905 195.027 42.9578 196.269ZM67.5852 154.644C66.5153 156.122 65.6916 157.746 64.8318 159.34C63.1025 162.568 61.3527 165.792 59.6029 169.015C59.1705 169.822 58.6204 170.579 57.741 170.996C56.643 171.512 55.4773 171.86 54.4159 172.493C52.308 173.698 50.1226 174.776 48.0351 175.986C45.851 177.238 43.8983 178.698 42.0752 180.428C40.1965 182.209 38.3388 184.082 36.0991 185.386C34.9919 186.03 33.817 186.506 32.7098 187.149C31.5976 187.814 31.0405 188.96 29.9953 189.706C29.1582 190.306 28.1639 190.392 27.1907 190.569C25.0102 190.997 22.7951 191.568 20.7402 192.374C18.5378 193.252 16.3876 194.273 14.2268 195.249C7.81565 198.148 1.36857 201.018 -4.95442 204.091C-6.71817 204.945 -12.4368 207.665 -15.1738 209.325C-13.2705 209.959 -10.0816 211.186 -8.73118 210.97C-7.26858 210.737 -5.96816 210.01 -4.58946 209.497C-2.99709 208.905 6.95917 203.954 10.4824 202.353C13.7109 200.898 16.9711 199.58 20.3456 198.508C23.72 197.435 27.1621 196.531 30.5521 195.484C32.1606 195.004 33.7847 194.55 35.3461 193.908C36.8567 193.296 38.3447 192.419 38.9802 190.858C39.7454 188.937 41.6072 187.586 43.1122 186.278C45.2406 184.449 47.5079 182.761 50.0544 181.532C53.7752 179.74 57.7934 178.779 61.5924 177.202C62.6503 176.763 63.6665 176.227 64.7088 175.763C65.4563 175.444 66.2137 175.085 66.8731 174.593C67.4563 174.148 67.864 173.443 68.3443 172.887C69.4868 171.557 70.68 170.196 71.9311 169.044C73.9319 167.205 76.0102 165.493 78.1809 163.848C82.492 160.592 87.0611 157.703 91.8115 155.14C93.107 154.433 94.4384 153.756 95.76 153.121C96.0752 152.98 96.5068 152.715 96.8827 152.502C96.4081 152.496 95.9589 152.474 95.4893 152.448C92.6713 152.287 89.8308 151.861 87.1102 151.116C84.671 150.462 82.2874 149.755 79.6593 147.817C77.3159 148.922 73.983 150.092 70.6227 151.016C69.488 152.044 68.0697 153.98 67.5852 154.644ZM77.1446 147.296C81.7736 145.507 85.9175 143.036 90.2046 140.599C87.1222 139.919 83.8712 139.85 80.8 140.562C77.1379 141.391 74.1541 143.448 71.0941 145.551C68.3945 147.417 65.4601 149.269 62.0998 149.563C60.2642 149.727 58.3905 148.97 56.5718 149.334C54.9159 149.65 53.4491 150.619 51.8927 151.241C51.2925 151.487 50.6769 151.707 50.0253 151.897C59.2436 152.259 68.5276 150.64 77.1446 147.296ZM66.0559 104.721C64.0095 104.053 61.9377 103.4 59.8412 102.85C55.6326 101.724 51.3091 100.896 46.9249 100.769C39.5958 100.56 31.8808 102.493 26.4371 107.667C23.4596 110.507 21.2479 114.031 19.5326 117.741C17.9676 121.096 16.7974 124.698 16.3628 128.391C16.1342 130.42 16.115 132.477 16.4118 134.481C16.7191 136.53 17.4178 138.392 18.2139 140.299C18.9944 142.181 19.4322 143.958 19.1832 145.982C18.9299 148.113 18.7985 150.816 19.1757 152.036C24.1544 152.48 29.0161 150.443 33.9384 150.222C36.652 150.096 39.3254 150.678 41.9875 151.126C42.3401 151.189 42.6772 151.227 43.0298 151.291C45.883 151.395 48.6318 151.213 51.3885 150.099C52.9957 149.446 54.5035 148.486 56.2101 148.139C57.9167 147.792 59.5746 148.367 61.2628 148.276C64.9044 148.071 68.0709 145.884 70.9581 143.869C71.4299 143.527 71.9172 143.211 72.3841 142.89C71.3588 142.295 70.3137 141.152 69.8498 140.562C69.1799 139.749 68.4 138.584 67.9466 137.411C67.6356 137.444 67.2513 137.243 66.9425 136.908C66.3868 136.339 65.963 135.672 65.6154 134.959C64.8793 133.522 64.4379 131.939 64.0988 130.381C63.9296 129.646 63.7907 128.874 63.6977 128.092C63.2822 129.728 62.9486 131.384 62.8244 133.069C62.7884 133.668 61.9619 133.685 62.0134 133.111C62.283 129.204 62.9313 125.432 64.2439 121.778C65.7357 117.558 67.4778 113.378 68.3863 108.974C68.5436 108.231 68.6749 107.416 68.5106 106.66C68.2201 105.44 67.1356 105.091 66.0559 104.721ZM22.3787 29.4147C23.3714 32.9322 25.1969 35.9565 26.8963 39.1456C28.6633 42.503 29.8555 46.0904 31.4801 49.5002C32.9855 52.6859 34.852 55.72 36.9413 58.5476C41.0995 64.1978 46.0637 69.1964 51.0428 74.1335C56.7884 79.8419 62.5135 85.5453 68.2542 91.2742C71.4485 94.4558 74.7296 97.6366 77.7519 100.994C79.9759 103.441 82.1047 106.734 80.7032 110.129C80.6031 110.365 80.199 110.246 80.2583 110C81.3092 106.173 78.6008 103.131 76.0502 100.691C73.9164 98.6772 71.808 96.6481 69.7046 94.5985C69.8448 95.544 69.7764 96.5476 69.6712 97.4339C69.3982 99.6469 68.8854 101.867 68.4233 104.056C68.8901 104.364 69.2914 104.765 69.5861 105.249C70.5232 106.93 69.918 109.084 69.4779 110.823C68.8395 113.295 67.9762 115.712 67.0769 118.1C66.4273 119.809 65.7728 121.539 65.1846 123.264C65.1013 124.329 64.9566 125.379 64.9961 126.474C65.0164 127.738 65.1489 128.986 65.414 130.222C65.6481 131.407 66.3228 134.088 67.5145 135.7C68.3017 131.441 69.6023 127.566 71.5919 123.706C72.6619 121.599 73.8855 119.572 75.2939 117.677C76.7679 115.689 78.5655 113.975 80.1115 112.048C81.5664 110.229 82.7125 108.075 81.9891 105.686C81.3496 103.578 79.7482 101.78 78.4487 100.077C75.3855 96.0804 71.9627 92.4095 68.6866 88.5788C65.493 84.8548 63.1386 80.791 60.9704 76.4033C58.9059 72.2142 56.6382 68.1497 54.0708 64.2515C48.812 56.2515 42.4135 49.3 35.5481 42.6697C29.9943 37.3333 23.564 30.8733 21.6033 23.1063C21.575 25.2917 21.8012 27.4084 22.3787 29.4147ZM25.9765 30.1108C28.5904 34.0854 31.9244 37.496 35.3592 40.7574C38.8815 44.105 42.4693 47.36 45.7334 50.9708C48.8431 54.4141 51.6996 58.1 54.3277 61.926C56.9867 65.803 59.387 69.8561 61.5129 74.06C63.7734 78.5135 65.9156 82.8298 69.1204 86.6867C71.5525 89.6189 74.1517 92.3961 76.6091 95.3126C77.7291 93.0873 77.9098 90.179 77.9212 87.7942C77.9193 85.0154 77.4484 82.2969 76.8449 79.5898C75.6535 74.201 73.9254 68.7042 73.6817 63.1538C73.5853 60.6777 73.998 58.0643 75.7075 56.1768C76.9671 54.81 78.7273 54.1503 80.5262 53.8689C77.2673 45.8315 71.1114 39.2208 63.7734 34.7336C55.0561 29.4138 45.0586 27.3441 34.9758 26.7081C32.2241 26.5421 29.8455 25.8151 27.5671 24.2225C25.5863 22.832 23.8022 21.7929 21.8214 20.4024C22.5955 24.019 23.9204 26.9657 25.9765 30.1108Z" fill="#B1B1B1"/>
</g>
<defs>
<clipPath id="clip0">
<rect width="213" height="172" fill="white"/>
</clipPath>
</defs>
</svg>
