<svg width="272" height="178" viewBox="0 0 272 178" fill="none" xmlns="http://www.w3.org/2000/svg">
<g clip-path="url(#clip0_370_1759)">
<path opacity="0.3" d="M118.24 116.835C118.295 115.012 119.44 113.318 121.286 113.004C120.827 110.933 122.758 109.305 124.644 108.835C127.248 108.195 130.117 108.577 132.725 108.958C135.672 109.391 138.568 110.004 141.544 110.246C144.513 110.47 147.502 110.427 150.477 110.188C155.612 109.778 161.05 108.312 166.139 109.641C168.896 110.366 171.044 112.082 173.241 113.819C175.4 115.511 177.719 116.882 180.236 117.978C183.228 119.275 186.37 120.276 189.396 121.501C182.741 116.013 176.048 110.579 169.757 104.673C164.95 100.152 160.469 95.3273 156.436 90.0943C152.358 84.7977 148.574 79.2703 144.221 74.1979C144.159 74.1409 144.108 74.0598 144.047 74.0028C141.713 71.3154 139.219 68.7884 136.48 66.514C135.113 65.3856 133.707 64.3121 132.234 63.3243C131.485 62.825 130.742 62.3431 129.971 61.8921C129.583 61.6578 128.028 60.8807 128.012 60.466C128.003 60.229 128.191 60.0378 128.85 59.8702C132.553 58.9569 136.236 57.991 139.979 57.183C143.151 56.5096 146.278 56.5143 149.267 57.8535C151.506 58.8535 153.492 60.3498 155.283 62.0196C156.686 62.7135 158.073 63.1528 159.548 63.5591C161.605 64.127 163.686 64.5456 165.748 65.0718C167.653 65.5566 169.556 66.1422 171.344 66.9519C172.551 67.4989 173.913 68.1885 175.027 69.0714C175.01 68.0159 175.035 66.9647 175.143 65.9222C175.538 62.1274 176.751 58.4852 178.254 54.9743C180.083 50.6795 182.279 46.5072 184.573 42.4379C185.751 40.3516 186.964 38.2521 188.342 36.2709C188.679 35.7833 189.087 35.2693 189.591 34.9592C190.078 34.6558 190.513 34.6925 191.05 34.7906C191.942 34.976 195.157 36.8108 195.903 37.2509C195.873 36.0001 195.986 34.7557 196.3 33.5154C196.516 32.6527 196.864 31.8205 197.039 30.9535C197.263 29.8472 196.966 28.8974 196.653 27.8532C196.221 26.333 195.916 24.885 196.164 23.3091C196.34 22.1809 196.763 20.0583 197.965 19.5257C198.619 19.2395 199.414 20.0219 199.878 20.3483C200.53 20.8039 203.368 23.0211 205.283 23.903C206.478 23.513 208.023 22.9317 208.468 22.7841C209.306 22.5087 209.604 22.3964 210.441 22.8627C213.05 24.3648 218.69 28.3317 220.87 30.0757C224.213 32.7838 227.331 35.7972 230.006 39.1776C232.681 42.5581 234.959 46.2682 236.566 50.271C238.107 54.0984 238.944 58.1308 239.603 62.17C240.375 66.8278 240.952 71.4991 242.147 76.0577C242.154 76.0753 242.16 76.0928 242.149 76.117C242.892 76.4386 243.616 76.7668 244.347 77.1126C243.568 73.3391 242.764 69.5547 242.061 65.7723C241.723 63.9162 241.466 62.0096 241.571 60.1068C241.692 58.1382 242.056 56.3383 241.56 54.3814C241.024 52.3193 240.246 50.308 239.528 48.2944C238.788 46.1689 238.013 44.0566 237.214 41.9334C236.474 39.9681 235.728 37.9852 234.911 36.0288C234.03 33.9562 232.861 32.2328 231.32 30.5889C229.984 29.1686 228.527 27.6936 228.073 25.7411C227.698 24.1594 227.797 22.5595 228.881 21.2897C228.978 21.1732 229.131 21.1555 229.39 21.2583C245.853 28.1629 258.331 43.4796 263.587 60.3132C265.217 65.5494 266.203 70.9882 266.544 76.4696C268.564 73.906 270.632 71.3643 272.395 68.597C273.385 67.0223 274.272 65.3863 275.013 63.6846C275.974 61.4999 276.739 59.1683 276.67 56.7501C276.597 54.5338 276.618 52.302 276.872 50.1028C277.048 48.494 277.486 46.6259 278.964 45.7089C280.037 45.0448 281.605 44.955 282.819 45.039C283.17 45.0671 283.535 45.1303 283.838 45.2967C284.358 45.5615 284.304 46.1629 283.863 46.429C283.44 46.6885 283.061 47.0116 282.774 47.4201C281.232 49.6034 282.074 52.8523 282.576 55.2481C283.375 59.0742 284.216 62.9047 285.004 66.755C285.678 70.0875 286.27 73.4706 286.176 76.8919C286.088 80.491 285.061 83.8828 283.771 87.2135C280.958 94.483 278.069 101.762 274.665 108.793C273.048 112.106 271.189 115.311 269.813 118.733C268.437 122.156 267.889 125.649 267.667 129.318C267.435 133.172 267.225 136.977 266.205 140.707C265.253 144.191 263.736 147.507 261.77 150.531C261.156 154.969 258.91 158.9 256.414 161.422C256.094 161.743 255.767 162.046 255.423 162.356C255.681 163.361 256.467 166.832 257.62 169.523C257.659 168.667 258.32 166.274 258.797 164.772C259.664 162.022 260.795 158.851 262.795 156.075C263.2 155.502 263.606 155.089 263.998 154.801C264.818 154.211 265.637 154.204 266.419 154.791C267.458 155.582 268.302 156.706 268.801 157.981C269.867 160.705 269.458 163.664 267.682 165.915C266.669 167.218 265.332 168.563 263.627 170.046C263.311 170.325 261.135 172.046 260.585 172.714C260.666 172.824 261.677 174.286 262.309 175.911C262.835 177.256 264.762 177.532 265.232 178.938C265.56 179.917 265.504 180.939 265.885 181.898C266.114 182.453 266.396 182.988 266.723 183.486C267.931 185.415 269.346 187.206 270.871 188.916C271.889 190.075 273.031 191.088 273.974 192.316C274.5 193.019 274.777 193.596 274.881 194.458L274.894 194.493C275.18 196.69 275.959 198.28 277.165 199.248L278.499 200.289C278.883 200.565 279.239 200.872 279.314 201.444C279.452 202.715 276.734 203.477 275.97 203.685C274.531 204.066 273.327 204.059 272.308 203.641C270.457 202.875 269.346 200.99 268.515 199.259C268.211 198.612 267.879 197.996 267.47 197.389C266.858 196.457 265.804 195.892 265.031 195.222C264.374 194.647 263.711 194.056 263.065 193.458C262.179 192.649 261.287 191.823 260.917 190.68C260.681 189.947 260.788 189.166 260.563 188.409C260.358 187.705 259.868 187.148 259.435 186.69C258.613 185.837 256.419 184.48 256.419 184.48C254.769 184.62 251.888 184.843 250.914 184.97C247.95 185.344 244.865 185.824 241.754 186.395C239.262 186.852 236.769 187.31 234.257 187.714C229.492 188.467 225.632 188.858 222.092 188.928C220.225 188.97 218.355 188.953 216.501 189.19C215.733 189.279 214.979 189.403 214.226 189.586C212.967 189.86 211.78 190.326 210.563 190.765C210.1 190.919 209.589 190.891 209.443 190.345C209.366 190.033 209.517 189.636 209.624 189.335C210.103 188.053 210.83 186.737 211.71 185.564C212.788 184.117 214.171 182.895 215.671 181.93C217.044 181.052 218.654 180.326 220.435 179.736C221.49 179.398 222.571 179.132 223.635 178.871C224.258 178.717 224.899 178.556 225.54 178.395C226.979 178.013 228.26 177.531 229.466 176.957C230.722 176.143 231.948 175.301 233.184 174.435C235.138 173.078 237.173 171.671 239.286 170.475C239.966 170.099 240.624 169.771 241.254 169.474C241.021 169.281 240.439 168.799 240.041 168.488C239.87 168.352 239.63 168.142 239.426 167.918C236.946 168.09 234.347 167.626 232.224 166.883C229.5 165.925 226.931 164.528 224.359 163.232C221.357 161.698 218.349 160.146 215.347 158.611C209.512 155.619 203.682 152.585 197.843 149.634C192.053 146.706 186.183 143.887 180.053 141.707C177.094 140.657 174.075 139.77 170.989 139.129C168.68 138.636 166.356 138.369 164.012 138.21C163.051 138.531 162.077 138.818 161.087 139.01C156.682 139.867 152.276 138.861 148.061 137.563C143.306 136.108 138.674 134.286 134.176 132.132C129.365 129.836 124.128 127.26 120.783 122.95C119.455 121.286 118.166 119.087 118.24 116.835ZM260.86 169.986C260.888 169.955 263.681 167.582 264.498 166.773C265.465 165.828 266.443 164.859 267.038 163.673C267.506 162.736 267.7 161.601 267.598 160.478C267.457 158.827 266.731 157.218 265.439 156.181C265.231 155.999 265.005 155.984 264.774 156.171C263.9 156.881 263.199 158.267 262.932 158.728C262.348 159.729 261.908 160.796 261.426 161.859C260.672 163.526 259.833 166.406 259.594 167.157C259.393 167.793 258.808 169.697 259.576 171.311C259.959 170.786 260.413 170.395 260.86 169.986ZM182.152 120.141C179.827 119.233 177.552 118.247 175.42 116.946C173.201 115.577 171.327 113.738 169.12 112.346C164.712 109.577 159.506 110.436 154.622 111.032C149.294 111.676 143.929 111.952 138.611 111.13C135.632 110.668 132.693 109.992 129.682 109.763C128.17 109.631 126.57 109.532 125.063 109.839C124.132 110.029 123.2 110.48 122.582 111.234C122.282 111.607 122.017 111.967 122.067 113.271C122.081 113.626 121.736 113.616 121.471 113.656C120.532 113.769 119.854 114.364 119.64 114.806C118.981 116.035 120.036 117.561 120.744 118.537C121.645 119.76 122.788 120.773 124.031 121.627C126.607 123.362 129.545 124.46 132.38 125.656C132.525 125.722 132.669 125.788 132.832 125.847C135.746 127.094 138.642 128.348 141.538 129.601C144.344 130.829 147.131 132.164 150.039 133.132C155.401 134.92 160.873 134.183 166.142 132.479C171.516 130.737 176.571 128.092 182.214 127.17C187.06 126.367 192.211 126.532 197.302 128.241C196.039 127.174 194.281 125.592 193.018 124.525C189.529 122.813 185.797 121.574 182.152 120.141ZM158.109 67.1862C156.087 64.9022 154.021 62.5545 151.555 60.7385C148.515 58.5172 145.156 57.5779 141.408 58.1072C137.183 58.6964 132.995 59.652 128.813 60.4649C134.335 62.7335 139.076 66.7587 143.111 71.0897C147.684 75.9995 151.555 81.4938 155.587 86.8278C159.605 92.1267 163.978 97.0915 168.749 101.727C173.451 106.288 178.42 110.547 183.457 114.721C185.927 116.757 188.396 118.792 190.865 120.828C194.009 123.431 197.135 126.04 200.175 128.742C202.059 128.955 203.915 129.258 205.764 129.644C203.606 127.851 201.513 126.015 199.612 123.946C197.006 121.121 195.033 117.956 193.563 114.423C192.112 110.942 190.96 107.349 189.112 104.038C187.143 100.512 184.642 97.3261 182.033 94.2813C176.84 88.2027 171.456 82.256 166.153 76.2588C163.463 73.2646 160.795 70.2221 158.109 67.1862ZM170.496 68.0524C168.643 67.2275 166.687 66.6616 164.751 66.1484C162.797 65.6418 160.85 65.1528 158.944 64.5079C158.397 64.333 157.82 64.1297 157.253 63.9022C159.545 66.2649 161.649 68.8187 163.813 71.2693C169.259 77.4332 174.705 83.5971 180.158 89.7785C182.837 92.7968 185.522 95.8327 187.85 99.1434C190.084 102.31 191.833 105.678 193.236 109.297C194.854 113.436 196.233 117.685 199.165 121.109C202.927 125.462 207.631 129.281 209.107 130.489C209.419 130.572 209.73 130.655 210.049 130.755C206.398 126.059 204.172 120.306 201.832 114.836C200.249 111.164 198.583 107.484 196.314 104.171C193.832 100.558 190.506 97.6828 187.474 94.5771C182.508 89.4748 178.304 83.3642 176.254 76.4828C175.73 74.7169 175.363 72.8915 175.174 71.0594C173.311 69.3567 171.431 68.4616 170.496 68.0524ZM196.823 38.9483C195.654 38.1861 192.753 36.3333 191.543 35.727C190.243 35.0944 189.755 35.6591 189.111 36.6628C188.557 37.5325 188.176 38.2769 187.696 39.0785C186.678 40.8442 185.667 42.6274 184.697 44.415C182.785 47.9593 180.984 51.5825 179.418 55.2976C177.971 58.747 176.752 62.3716 176.414 66.1049C176.094 69.5111 176.502 72.8835 177.5 76.1739C179.499 82.814 183.722 88.6569 188.515 93.5641C191.373 96.4747 194.473 99.1743 196.903 102.487C199.101 105.506 200.777 108.842 202.278 112.244C205.214 118.872 207.64 126.112 212.554 131.555C221.14 134.513 228.963 139.381 235.579 145.566C235.644 144.94 235.761 144.295 235.673 143.687C235.516 142.684 234.694 141.992 233.936 141.416C232.486 140.279 231.148 139.12 230.058 137.607C229.012 136.158 228.156 134.576 227.476 132.929C224.601 125.878 224.823 117.9 221.316 111.087C220.496 109.492 219.563 107.92 219.164 106.167C218.837 104.768 218.829 103.308 219.095 101.886C219.376 100.398 219.969 98.9922 220.847 97.76C221.933 96.2291 223.295 94.8953 223.889 93.0687C224.468 91.308 224.538 89.4184 225.087 87.6292C225.64 85.7983 226.57 84.0657 227.747 82.561C228.261 81.9063 229.975 80.1793 230.81 79.364C230.73 78.5127 229.945 75.5226 229.328 73.6713C228.72 71.8967 227.99 70.1684 227.16 68.4973C225.444 65.0564 223.316 61.8508 220.893 58.876C215.733 52.5648 209.362 47.5103 202.705 42.8644C200.743 41.5393 198.789 40.2317 196.823 38.9483ZM224.983 93.7388C225.542 93.1478 226.035 92.5414 226.385 91.7685C227.308 89.698 227.048 87.2515 228.286 85.3231C229.484 83.4497 231.688 82.4396 233.156 80.805C234.243 79.5944 235.541 77.0823 235.612 75.8335C234.293 77.9726 232.145 79.5028 230.306 81.2168C227.619 83.711 226.293 86.7345 225.718 90.3167C225.531 91.469 225.368 92.6323 224.983 93.7388ZM235.852 52.6837C233.05 44.4426 227.39 37.4978 220.81 31.9411C217.315 28.9896 213.158 26.5679 209.527 23.7878C208.257 24.2459 205.893 25.2562 205.245 25.2395C204.027 25.1972 199.713 21.6125 198.364 20.6377C197.414 22.1575 197.343 23.5665 197.335 24.2907C197.339 25.9519 197.927 27.3534 198.278 28.9242C198.616 30.4599 198.146 31.8189 197.715 33.2832C197.276 34.8308 197.101 36.4396 197.245 38.048C209.331 45.2983 221.177 54.0412 227.807 66.6509C228.85 68.6224 229.741 70.6709 230.468 72.7613C231.083 74.5534 231.777 76.5561 231.957 78.4716C232.5 77.9464 233.057 77.4563 233.57 76.9027C234.3 76.1271 235.036 75.369 235.57 74.4467C235.66 74.3127 235.748 74.1195 235.912 74.0776C236.07 74.0181 236.226 74.0596 236.364 74.1077C237.969 74.6455 239.581 75.2008 240.432 75.4411C238.483 67.9209 238.341 60.0407 235.852 52.6837ZM273.833 68.9573C271.821 72.4995 269.317 75.9064 266.683 79.0216C266.736 81.0251 266.723 83.0133 266.61 84.9994C266.371 89.1561 265.771 93.3088 264.811 97.3566C263.787 101.769 261.802 106.022 261.316 110.533C260.742 115.818 261.256 121.334 261.879 126.609C262.21 129.349 262.635 132.074 263.195 134.788C263.166 132.315 262.987 129.818 262.732 127.33C262.396 123.99 262.093 120.578 262.732 117.272C263.05 115.67 263.575 114.19 264.356 112.754C265.298 110.997 266.274 109.387 266.75 107.405C267.612 103.735 267.487 99.8352 267.925 96.104C268.353 92.397 269.013 88.7225 269.871 85.094C270.733 81.4237 271.792 77.7992 273.129 74.271C273.796 72.4772 274.535 70.7163 275.323 68.9773C276.148 67.1241 277.247 65.3078 277.203 63.2209C277.187 62.646 277.146 62.0601 277.106 61.4743C276.352 64.102 275.162 66.6338 273.833 68.9573ZM264.641 140.755C265.652 137.269 265.92 133.722 266.119 130.101C266.314 126.522 266.665 122.984 267.887 119.579C269.114 116.132 270.914 112.93 272.558 109.687C276.174 102.475 279.131 94.9506 282.077 87.4505C283.466 83.9024 284.636 80.3568 284.69 76.5098C284.753 72.8998 284.099 69.2995 283.412 65.7717C282.588 61.454 281.538 57.1213 280.92 52.7661C280.594 50.4645 280.926 47.5147 282.708 46.0223C281.69 45.9249 280.33 46.0364 279.429 46.6761C277.852 47.8105 277.954 50.4766 277.884 52.206C277.792 54.1438 277.826 56.0947 277.936 58.0366C278.048 59.8777 278.438 61.7139 278.432 63.5595C278.419 65.3875 277.618 66.9313 276.916 68.578C276.198 70.2907 275.529 72.0251 274.908 73.7815C273.666 77.2943 272.58 80.8486 271.698 84.4662C270.812 88.1255 270.14 91.8241 269.684 95.5619C269.241 99.1746 269.253 102.877 268.625 106.479C268.344 108.127 267.89 109.741 267.111 111.236C266.251 112.942 265.188 114.484 264.666 116.344C263.733 119.56 263.983 122.992 264.293 126.261C264.758 131.115 265.128 135.984 264.54 140.753C264.559 140.806 264.573 140.841 264.575 140.9C264.621 140.863 264.643 140.814 264.641 140.755ZM259.578 115.014C259.572 112.712 259.651 110.419 260.111 108.182C260.582 105.921 261.389 103.754 262.064 101.556C263.277 97.5934 264.154 93.5369 264.649 89.4238C265.246 84.4109 265.318 79.3349 264.829 74.3102C264.669 72.6075 264.432 70.9137 264.142 69.2397C263.57 65.9092 262.756 62.6295 261.696 59.4423C259.498 52.8573 256.244 46.6094 252.039 41.0804C245.928 33.0433 238.182 26.7836 229.24 22.1363C227.555 25.5355 231.467 28.6905 233.458 30.9461C236.12 33.971 237.306 38.1324 238.724 41.8458C240.181 45.6645 241.67 49.5117 242.882 53.4229C243.444 55.2348 243.496 56.9179 243.301 58.7945C243.084 60.7193 243.137 62.5626 243.453 64.467C244.21 69.0305 245.28 73.5761 246.201 78.0977C246.376 78.1919 246.552 78.286 246.71 78.3868C250.011 80.2895 253.063 82.9672 254.75 86.4389C256.348 89.7242 256.333 93.3561 255.846 96.9052C255.337 100.663 254.69 104.373 254.473 108.161C254.25 112.091 254.323 116.01 254.699 119.936C255.09 123.956 255.66 128.129 257.076 131.943C258.456 135.61 260.614 138.946 261.485 142.804C261.677 143.634 261.817 144.483 261.897 145.334C263.99 136.793 259.644 130.676 259.578 115.014ZM259.773 152.465C260.221 150.834 260.475 148.955 260.457 147.258C260.454 145.918 260.307 144.57 260.013 143.258C259.201 139.557 257.125 136.332 255.769 132.836C254.424 129.315 253.798 125.524 253.352 121.785C252.924 118.2 252.743 114.582 252.813 110.989C252.89 107.414 253.228 103.841 253.805 100.318C254.353 96.9861 255.093 93.5222 254.5 90.1391C253.729 85.8016 250.606 82.3494 247.015 79.9949C243.747 77.8595 239.938 76.6289 236.385 74.9613C236.555 76.901 235.614 78.9782 234.619 80.5946C234.094 81.4336 233.531 82.2265 232.827 82.9121C231.97 83.7756 230.916 84.4332 230.083 85.3076C228.439 87.0083 228.57 89.6437 227.46 91.6443C226.494 93.3901 225.019 94.6868 223.753 96.1653C223.032 97.1779 222.184 98.1182 221.549 99.1987C219.788 102.186 220.155 105.554 221.682 108.545C222.496 110.122 223.373 111.655 224.018 113.315C224.644 114.923 225.104 116.572 225.519 118.259C226.366 121.787 226.895 125.374 227.89 128.867C228.89 132.377 230.438 135.901 233.105 138.463C234.3 139.616 235.886 140.421 236.825 141.851C237.757 143.263 237.379 144.707 237.351 146.281C237.287 149.891 239.032 153.301 240.629 156.426C241.392 157.922 242.18 159.428 243.176 160.796C243.877 161.755 244.695 162.809 245.727 163.422C246.116 163.656 246.52 163.825 246.974 163.914C248.445 164.202 249.996 163.798 251.331 163.195C252.801 162.522 254.11 161.528 255.254 160.417C257.448 158.208 258.96 155.415 259.773 152.465ZM251.84 183.279C252.371 183.199 253.24 183.112 254.203 183.01C253.373 182.401 250.798 180.405 250.798 180.405C250.655 181.301 250.693 181.988 250.964 182.547C251.113 182.891 251.498 183.327 251.84 183.279ZM222.378 180.747C219.706 181.472 217.566 182.438 215.827 183.674C215.117 184.182 214.485 184.74 213.909 185.338C213.607 185.652 213.335 185.995 213.063 186.337C214.491 185.339 215.995 184.492 217.181 183.865C218.03 183.406 218.879 182.946 219.734 182.504L219.751 182.497C221.001 181.826 222.304 181.135 223.582 180.434C223.177 180.526 222.777 180.637 222.378 180.747ZM241.546 171.367C239.432 172.403 237.447 173.731 235.586 175.013C231.527 177.803 227.556 180.24 223.416 182.44C222.48 182.932 217.866 185.311 216.552 186.026C215.309 186.714 213.552 187.796 212.564 188.629C214.647 187.885 216.923 187.489 219.33 187.444C222.935 187.389 225.935 187.321 229.042 186.953C232.557 186.551 248.301 183.83 249.571 183.692C248.828 182.569 248.864 181.013 249.005 180.219C249.138 179.508 249.33 178.794 249.518 178.122C249.85 176.876 250.211 175.598 250.196 174.281C250.193 172.359 248.907 170.699 247.081 170.265C245.14 169.793 243.101 170.601 241.546 171.367ZM242.699 168.95C245.663 167.934 248.026 168.146 249.898 169.605C251.317 170.714 252.061 172.477 252.018 174.597C251.991 176.07 251.602 177.378 251.242 178.656L251.237 178.697C251.641 179.026 252.063 179.348 252.454 179.642C253.346 180.308 256.619 182.722 257.385 183.214C258.486 183.902 259.643 184.688 260.608 185.708C261.153 186.304 261.586 186.922 261.866 187.558C262.321 188.609 262.174 189.866 262.822 190.844C263.559 191.949 264.582 192.806 265.536 193.689C266.373 194.476 267.329 195.098 268.131 195.898C268.827 196.577 269.221 197.411 269.646 198.273C270.304 199.648 271.126 200.981 272.417 201.857C273.063 202.295 273.858 202.437 274.878 202.273C275.786 202.131 276.747 201.81 277.537 201.352C276.86 200.886 275.964 200.101 275.562 199.672C274.467 198.521 273.934 197.159 273.68 195.632C273.534 194.765 273.39 193.958 272.768 193.21C272.439 192.813 272.067 192.412 271.709 192.046C269.316 189.521 267.039 186.772 265.106 183.874C264.42 182.85 263.934 181.771 263.816 180.553C263.77 180.11 263.729 179.684 263.483 179.296C263.079 178.647 262.264 178.293 261.693 177.786C260.988 177.19 260.714 176.412 260.437 175.675C260.272 175.236 260.093 174.762 259.852 174.332C259.275 173.387 258.384 172.721 257.604 172.194C256.776 171.644 256.516 170.74 256.214 169.832C256.132 169.562 255.954 169.088 255.747 168.485C255.15 166.847 254.304 164.44 254.127 163.385C252.435 164.583 250.485 165.417 248.108 165.491C247.753 165.504 246.504 165.433 245.828 165.287C244.583 166.557 242.98 167.301 241.256 167.67C241.625 168.012 242.306 168.597 242.699 168.95ZM177.369 139.632C183.059 141.336 188.56 143.653 193.93 146.159C205.493 151.543 216.706 157.699 228.11 163.403C230.995 164.841 234.073 166.207 237.333 166.402C239.973 166.55 242.63 166.051 244.359 164.418C241.883 162.525 240.319 159.648 238.887 156.962C237.372 154.106 236.075 151.088 235.549 147.881C230.425 142.838 224.444 138.659 217.942 135.597C215 134.22 211.781 132.908 208.618 132.115C205.329 131.31 202.067 130.574 198.685 130.265C194.636 129.886 190.556 129.959 186.537 130.511C182.21 131.098 177.939 132.205 173.872 133.856C171.267 134.917 168.738 136.29 166.128 137.393C169.954 137.656 173.78 138.559 177.369 139.632ZM124.479 125.105C128.262 128.128 132.906 130.247 137.334 132.165C141.57 133.997 145.939 135.597 150.406 136.821C154.874 138.044 159.219 138.411 163.65 136.823C167.846 135.304 171.648 132.951 175.851 131.449C179.72 130.072 183.75 129.176 187.81 128.73C189.541 128.539 191.27 128.449 193.001 128.418C189.637 127.942 186.231 127.942 182.856 128.451C176.998 129.334 171.77 132.103 166.17 133.831C161.039 135.422 155.626 136.158 150.39 134.543C147.424 133.636 144.6 132.255 141.77 131.016C138.771 129.701 135.76 128.41 132.772 127.071C127.937 124.925 121.057 122.667 119.257 117.194C119.283 117.424 119.31 117.655 119.33 117.867C119.399 118.262 119.485 118.651 119.623 119.019C119.709 119.247 119.789 119.458 119.909 119.673C120.966 121.84 122.636 123.615 124.479 125.105Z" fill="white"/>
</g>
<defs>
<clipPath id="clip0_370_1759">
<rect width="272" height="178" fill="white"/>
</clipPath>
</defs>
</svg>
