<svg width="24" height="24" viewBox="0 0 24 24" fill="none" xmlns="http://www.w3.org/2000/svg">
<rect width="24" height="24" rx="3.78947" fill="url(#paint0_linear)"/>
<g filter="url(#filter0_i)">
<path d="M19.9638 14.3943C19.4865 13.8931 18.5079 13.6067 17.1237 13.6067C16.3838 13.6067 15.5247 13.6783 14.5939 13.8453C14.0688 13.3441 13.5438 12.7475 13.0426 12.0554C12.6846 11.578 12.3743 11.053 12.0879 10.5518C12.6368 8.88115 12.8994 7.52077 12.8994 6.54226C12.8994 5.44441 12.4936 4.29883 11.3242 4.29883C10.9662 4.29883 10.6082 4.51362 10.4173 4.82389C9.89223 5.75467 10.1309 7.7833 11.0378 9.78806C10.7037 10.7904 10.3457 11.7451 9.89223 12.8191C9.51037 13.726 9.08077 14.6568 8.60345 15.516C5.97816 16.5661 4.28366 17.7833 4.09273 18.7379C4.02113 19.0959 4.14046 19.43 4.40299 19.6926C4.49846 19.7642 4.83258 20.0506 5.40537 20.0506C7.14761 20.0506 8.98531 17.2343 9.91609 15.5398C10.6321 15.3012 11.3481 15.0625 12.0641 14.8716C12.8516 14.6568 13.6392 14.4897 14.3552 14.3704C16.1929 16.0172 17.8158 16.2797 18.6273 16.2797C19.6297 16.2797 19.9876 15.874 20.107 15.5398C20.3218 15.1102 20.1786 14.6329 19.9638 14.3943ZM19.0091 15.0864C18.9375 15.4444 18.5795 15.683 18.0783 15.683C17.9352 15.683 17.8158 15.6592 17.6726 15.6353C16.7657 15.4205 15.9065 14.967 15.0473 14.2511C15.8827 14.1079 16.5986 14.084 17.0521 14.084C17.5533 14.084 17.9829 14.1079 18.2693 14.1795C18.6034 14.2511 19.1285 14.4658 19.0091 15.0864ZM13.9495 13.9647C13.329 14.084 12.6607 14.2272 11.9686 14.4181C11.4197 14.5613 10.8469 14.7284 10.2741 14.9193C10.5843 14.3227 10.8469 13.7499 11.0855 13.2009C11.3719 12.5327 11.6106 11.8406 11.8493 11.1962C12.0879 11.6019 12.3505 12.0076 12.613 12.3656C13.0664 12.9384 13.5199 13.4873 13.9495 13.9647ZM10.823 5.08641C10.9185 4.89548 11.1094 4.80002 11.2765 4.80002C11.7777 4.80002 11.8731 5.37281 11.8731 5.82627C11.8731 6.58999 11.6345 7.75943 11.2287 9.09594C10.5366 7.23438 10.4889 5.68307 10.823 5.08641ZM8.19772 16.2081C6.98055 18.2129 5.8111 19.4539 5.09511 19.4539C4.95191 19.4539 4.83258 19.4062 4.73712 19.3346C4.59392 19.1914 4.52232 19.0243 4.57005 18.8334C4.71325 18.1174 6.09749 17.115 8.19772 16.2081Z" fill="white"/>
</g>
<defs>
<filter id="filter0_i" x="4.07227" y="4.29883" width="26.9913" height="21.9519" filterUnits="userSpaceOnUse" color-interpolation-filters="sRGB">
<feFlood flood-opacity="0" result="BackgroundImageFix"/>
<feBlend mode="normal" in="SourceGraphic" in2="BackgroundImageFix" result="shape"/>
<feColorMatrix in="SourceAlpha" type="matrix" values="0 0 0 0 0 0 0 0 0 0 0 0 0 0 0 0 0 0 127 0" result="hardAlpha"/>
<feOffset dx="10.8503" dy="6.20018"/>
<feGaussianBlur stdDeviation="6.9752"/>
<feComposite in2="hardAlpha" operator="arithmetic" k2="-1" k3="1"/>
<feColorMatrix type="matrix" values="0 0 0 0 1 0 0 0 0 1 0 0 0 0 1 0 0 0 0.15 0"/>
<feBlend mode="normal" in2="shape" result="effect1_innerShadow"/>
</filter>
<linearGradient id="paint0_linear" x1="0" y1="0" x2="24" y2="24" gradientUnits="userSpaceOnUse">
<stop stop-color="#FF6D73"/>
<stop offset="0.239209" stop-color="#F2555A"/>
<stop offset="0.330492" stop-color="#EF464C"/>
<stop offset="0.731" stop-color="#9C191D"/>
<stop offset="1" stop-color="#5C1617"/>
</linearGradient>
</defs>
</svg>
