<svg width="202" height="54" viewBox="0 0 202 54" fill="none" xmlns="http://www.w3.org/2000/svg">
<g clip-path="url(#clip0_314_991)">
<path d="M66.9053 21.8314H60.2871V15.0063H56.4609V31.1383C56.4609 32.0689 57.2882 32.8962 58.2189 32.8962H68.8701C69.8008 32.8962 70.6281 32.0689 70.6281 31.1383V15.0063H66.8019V21.8314H66.9053ZM66.9053 30.0008H60.2871V24.8303H66.9053V30.0008Z" fill="white"/>
<path d="M201.646 15.5256H180.137V18.6279H197.51V35.5871H193.787V27.3143H189.651V35.5871H186.755V27.3143H182.619V35.5871H178.586V38.6894H199.992C200.922 38.6894 201.646 37.8621 201.646 36.9314V15.5256Z" fill="white"/>
<path d="M172.798 15.0063H168.661V29.3803H150.875V32.4826H168.661V40.1349H171.247C172.074 40.0315 172.798 39.2042 172.798 38.3769V22.0382H176.107V18.9359H172.798V15.0063Z" fill="white"/>
<path d="M140.017 21.728H138.052V15.0063H134.226V30.7246H124.506V18.1086H132.054V15.0063H120.369V31.5519C120.369 32.3792 120.576 32.9996 120.886 33.3099C121.196 33.6201 121.713 33.7235 122.334 33.7235H134.226V40.0315H136.294C137.225 40.0315 138.052 39.2042 138.052 38.2735V24.8303H140.017V40.0315H142.189C143.223 40.0315 143.947 39.2042 143.947 38.2735V15.0063H140.017V21.728V21.728Z" fill="white"/>
<path d="M78.6933 21.728H76.7285V15.0063H72.9023V40.1349H74.9705C75.9012 40.1349 76.7285 39.3076 76.7285 38.3769V24.9337H78.6933V40.1349H80.8649C81.899 40.1349 82.6229 39.3076 82.6229 38.3769V15.0063H78.6933V21.728Z" fill="white"/>
<path d="M157.183 28.3482C161.112 28.3482 164.422 25.6596 164.422 22.2471C164.422 21.0061 164.008 19.7652 163.181 18.8345H165.559V15.9391H159.354V13.6641H154.908V15.9391H148.807V18.8345H151.185C150.358 19.7652 149.944 21.0061 149.944 22.2471C149.944 25.5562 153.15 28.3482 157.183 28.3482ZM157.183 18.6277C159.044 18.6277 160.595 20.1789 160.595 22.1437C160.595 24.1084 159.044 25.6596 157.183 25.6596C155.321 25.6596 153.77 24.1084 153.77 22.1437C153.77 20.1789 155.321 18.6277 157.183 18.6277Z" fill="white"/>
<path d="M110.545 21.728H108.58V15.0063H104.754V40.1349H106.822C107.753 40.1349 108.58 39.3076 108.58 38.3769V24.9337H110.545V40.1349H112.716C113.751 40.1349 114.474 39.3076 114.474 38.3769V15.0063H110.545V21.728Z" fill="white"/>
<path d="M97.6167 18.212H102.787V15.0063H88.4132V18.212H93.5837C93.4803 28.4496 89.5507 29.6905 87.5859 30.4144V33.8269C89.3439 33.6201 90.895 32.9996 92.2394 32.0689C93.7905 31.0348 94.8246 29.7939 95.5485 28.2428C96.2724 29.7939 97.4099 31.1383 98.8576 32.0689C100.202 32.9996 101.753 33.5167 103.511 33.8269V30.4144C101.546 29.5871 97.7201 28.4496 97.6167 18.212Z" fill="white"/>
<path fill-rule="evenodd" clip-rule="evenodd" d="M21.6126 0.0012207C24.7149 1.86259 28.4377 2.89669 32.3672 2.89669C36.2968 2.89669 40.0195 1.86259 43.1218 0.0012207V19.2354C43.1218 33.8162 34.9525 46.5356 22.9569 53.0504C22.6437 53.2853 22.2711 53.461 21.929 53.6222C21.8194 53.6739 21.713 53.7241 21.6126 53.7742C21.4058 53.6708 21.1731 53.5416 20.9405 53.4123C20.7078 53.283 20.4751 53.1538 20.2683 53.0504C8.16936 46.5356 0 33.8162 0 19.2354V0.0012207C3.2057 1.86259 6.82504 2.89669 10.858 2.89669C14.7876 2.89669 18.4069 1.86259 21.6126 0.0012207ZM14.4774 19.2354H2.27501V20.0627C2.27501 24.8195 3.2057 29.3696 4.96366 33.506L14.4774 23.9923V19.2354ZM12.616 44.9844C15.2012 47.5697 18.3035 49.8447 21.6126 51.4992C24.9217 49.8447 28.024 47.5697 30.6093 44.9844L21.6126 35.9878L12.616 44.9844ZM28.7479 23.8889L38.2616 33.4025C40.0195 29.2662 40.9502 24.8195 40.8468 19.9593V19.132H28.7479V23.8889ZM21.6116 17.6824C25.5412 17.6824 28.7469 14.4767 28.7469 10.5471C28.7469 6.61756 25.5412 3.41187 21.6116 3.41187C17.682 3.41187 14.4763 6.61756 14.4763 10.5471C14.4763 14.4767 17.682 17.6824 21.6116 17.6824Z" fill="white"/>
<path d="M28.0239 10.5452C28.0239 7.02926 25.2318 4.13379 21.6125 4.13379H21.5091C17.9931 4.13379 15.0977 7.02926 15.0977 10.5452C15.0977 14.0611 17.8897 16.8532 21.3022 16.9566C21.4056 16.9566 21.5091 16.9566 21.5091 16.9566C25.1284 16.9566 28.0239 14.1645 28.0239 10.5452ZM15.9249 10.5452C15.9249 7.54631 18.1999 5.16789 21.1988 4.96107V9.51109H21.9227V4.96107C23.1636 5.16789 24.1977 6.30539 24.1977 7.54631C24.1977 8.99404 22.9568 10.1315 21.5091 10.1315C19.6477 10.1315 18.0965 11.6827 18.0965 13.5441C18.0965 14.2679 18.3034 14.8884 18.6136 15.4054C17.0624 14.4748 15.9249 12.6134 15.9249 10.5452ZM21.9227 16.2327V11.6827H21.1988V16.2327C19.9579 16.0259 18.9238 14.8884 18.9238 13.6475C18.9238 12.1997 20.1647 11.0622 21.6125 11.0622C23.4738 11.0622 25.025 9.6145 25.025 7.64972C25.025 6.92585 24.8182 6.30539 24.5079 5.78834C26.1625 6.82244 27.3 8.5804 27.3 10.6486C27.1966 13.5441 24.9216 16.0259 21.9227 16.2327Z" fill="white"/>
</g>
<defs>
<clipPath id="clip0_314_991">
<rect width="201.649" height="53.6696" fill="white"/>
</clipPath>
</defs>
</svg>
