<svg width="74" height="92" viewBox="0 0 74 92" fill="none" xmlns="http://www.w3.org/2000/svg">
<g clip-path="url(#clip0_40_113)">
<path opacity="0.3" d="M38.7101 91.26C57.9848 91.26 73.6101 88.8468 73.6101 85.87C73.6101 82.8932 57.9848 80.48 38.7101 80.48C19.4353 80.48 3.81006 82.8932 3.81006 85.87C3.81006 88.8468 19.4353 91.26 38.7101 91.26Z" fill="#020500"/>
<path d="M19.53 9.63009C19.79 8.07009 19.6 4.76009 22.08 4.96009C24.24 5.14009 23.42 9.62009 21.88 10.9301C20.8 11.8501 20.19 10.8901 19.53 9.63009V9.63009Z" fill="#D38B87"/>
<path d="M30.0301 17.85C27.7201 20.52 22.4601 21.11 19.3101 22.65C20.7101 18.22 21.5701 14.69 23.0501 10.53C21.5001 9.72998 18.7601 9.72998 18.7601 9.72998C18.7601 9.72998 14.4901 16.79 12.4301 21.72C10.9501 25.25 9.27008 31.42 15.0401 30.85C17.4901 30.61 28.8901 30.5 31.2401 28.6" fill="#DDC437"/>
<path d="M8.17002 78.3299C8.18002 79.9999 4.47002 82.4699 6.32002 83.7699C7.98002 84.9399 11.46 82.8199 11.62 80.9399C11.68 80.3199 11.36 79.3099 11.2 78.6999C10.84 77.3299 10.19 77.2799 8.17002 78.3299V78.3299Z" fill="#28334D"/>
<path d="M28.6899 69.8101C24.0499 68.4501 19.4099 65.3501 15.2699 62.8901C13.3999 61.7701 9.51992 58.9601 9.51992 58.9601C10.2699 64.0901 10.2599 67.4201 10.7299 70.6001C11.1399 73.3201 11.5199 76.0301 11.7699 78.6601C8.98992 79.5801 6.75992 79.6201 6.75992 79.6201C6.75992 79.6201 3.29992 67.5601 1.61992 62.7401C0.0899162 58.3601 -2.34008 49.2101 5.19992 49.1601C8.07992 49.1401 11.0699 49.8701 13.9099 50.2801C23.1199 51.6301 32.4299 52.7701 41.6499 53.8601" fill="#EEEDE9"/>
<path d="M45.5199 83.8499C47.1499 84.2299 48.6799 88.4199 50.3799 86.9199C51.9099 85.5699 50.6499 81.6999 48.8699 81.0999C48.2799 80.8999 47.2199 80.9699 46.5999 80.9899C45.1799 81.0199 44.9799 81.6399 45.5299 83.8499H45.5199Z" fill="#28334D"/>
<path d="M44.0901 48.9201C44.4201 54.0001 44.5601 57.5201 42.0401 61.9201C39.6301 66.1101 35.5401 69.9001 32.1701 73.3501C30.6401 74.9101 27.0101 78.0301 27.0101 78.0301C32.1701 78.5001 35.4101 79.2901 38.6101 79.5701C41.3501 79.8101 44.0701 80.0701 46.6901 80.4401C46.9401 83.3501 46.4501 85.5301 46.4501 85.5301C46.4501 85.5301 33.9201 86.0801 28.8301 86.5801C24.2101 87.0401 14.7501 87.2601 16.4701 79.9201C17.1301 77.1201 18.5301 74.3801 19.6001 71.7101C23.0601 63.0701 26.3501 54.2801 29.5601 45.5801" fill="#EEEDE9"/>
<path d="M22.68 4.06006H18.29V7.41006H22.68V4.06006Z" fill="#AAAAAA"/>
<path d="M18.7901 3.41992H17.0901V8.03992H18.7901V3.41992Z" fill="black"/>
<path d="M28.7599 9.40989C28.4699 11.5299 28.7799 13.7999 28.5199 15.9199C28.3299 17.4999 27.8899 19.0399 27.6299 20.6499C29.3299 19.7899 31.2199 18.0999 32.4899 16.6799C33.4299 15.6299 33.3199 15.1899 33.1599 13.6999C32.9799 12.0099 32.6799 10.0999 32.8199 8.45989C31.3699 8.03989 30.1899 9.49989 28.7499 9.39989L28.7599 9.40989Z" fill="#D38B87"/>
<path d="M20.6699 51.1601C24.6399 52.9401 45.7799 53.8301 45.8299 52.2601C45.9199 49.0601 42.7899 31.4201 42.0299 28.3101C40.5599 22.3301 36.9299 17.7301 33.2699 12.8301C32.7799 13.0801 32.2999 13.6001 31.8599 13.9101C31.3399 14.2801 30.8099 14.5901 30.3299 15.0001C29.4099 15.7801 28.5599 16.6101 27.8399 17.5801C25.6099 20.5501 25.1899 24.1001 24.6299 27.7701C24.0299 31.6901 20.6799 51.1601 20.6799 51.1601H20.6699Z" fill="#DDC437"/>
<path d="M31.41 0.730022C27.41 0.640022 24.88 4.60002 25.81 8.18002C26.82 12.09 31.38 13.62 33.6 9.72002C34.87 7.48002 35.98 1.33002 31.42 0.730022H31.41Z" fill="#D38B87"/>
<path d="M27.2099 2.37993C29.4999 3.63993 31.24 3.94993 30.78 7.18993C31.56 6.19993 32.94 6.40993 32.83 7.80993C32.71 9.36993 31.4999 9.25993 32.6399 10.8199C36.5599 9.05993 38.62 5.22993 35.18 1.74993C33.87 0.429934 32.23 -0.210066 30.36 0.0499345C28.9 0.249934 28.05 0.939934 27.2 2.36993L27.2099 2.37993Z" fill="black"/>
<path d="M25.6099 1.83008H20.6699V9.64008H25.6099V1.83008Z" fill="black"/>
<path d="M24.0699 0.429932H22.6299V1.86993H24.0699V0.429932Z" fill="#AAAAAA"/>
<path d="M21.0801 11.03C21.3401 9.46999 21.1501 6.15999 23.6301 6.35999C25.7901 6.53999 24.9701 11.02 23.4301 12.33C22.3501 13.25 21.7401 12.29 21.0801 11.03V11.03Z" fill="#D38B87"/>
<path d="M31.5799 19.2599C29.2699 21.9299 24.0099 22.5199 20.8599 24.0599C22.2599 19.6299 23.1199 16.0999 24.5999 11.9399C23.0499 11.1399 20.3099 11.1399 20.3099 11.1399C20.3099 11.1399 16.0399 18.1999 13.9799 23.1299C12.4999 26.6599 10.8199 32.8299 16.5899 32.2599C19.0399 32.0199 30.4399 31.9099 32.7899 30.0099" fill="#DDC437"/>
<path d="M21.0801 11.03C21.3401 9.46999 21.1501 6.15999 23.6301 6.35999C25.7901 6.53999 24.9701 11.02 23.4301 12.33C22.3501 13.25 21.7401 12.29 21.0801 11.03V11.03Z" fill="#D38B87"/>
<path d="M31.5799 19.2599C29.2699 21.9299 24.0099 22.5199 20.8599 24.0599C22.2599 19.6299 23.1199 16.0999 24.5999 11.9399C23.0499 11.1399 20.3099 11.1399 20.3099 11.1399C20.3099 11.1399 16.0399 18.1999 13.9799 23.1299C12.4999 26.6599 10.8199 32.8299 16.5899 32.2599C19.0399 32.0199 30.4399 31.9099 32.7899 30.0099" fill="#DDC437"/>
<path d="M24.73 31.76C28.18 31.47 31.62 30.96 32.79 30.01" stroke="white" stroke-width="0.75" stroke-linecap="round" stroke-linejoin="round"/>
<path d="M21.07 11.1699C20.61 11.1399 20.32 11.1399 20.32 11.1399C20.32 11.1399 16.05 18.1999 13.99 23.1299C13.17 25.0899 12.28 27.8799 12.65 29.8599" stroke="white" stroke-width="0.75" stroke-linecap="round" stroke-linejoin="round"/>
<path d="M31.5801 19.26C29.2701 21.93 24.0101 22.52 20.8601 24.06C21.0701 23.39 21.2701 22.74 21.4601 22.1" stroke="white" stroke-width="0.75" stroke-linecap="round" stroke-linejoin="round"/>
<path d="M21.77 66.1699L26.06 57.1399" stroke="#CBCBCB" stroke-width="0.75" stroke-linecap="round" stroke-linejoin="round"/>
</g>
<defs>
<clipPath id="clip0_40_113">
<rect width="73.61" height="91.26" fill="white"/>
</clipPath>
</defs>
</svg>
