<svg width="66" height="50" viewBox="0 0 66 50" fill="none" xmlns="http://www.w3.org/2000/svg">
<path d="M49.66 27.02C56.12 24.89 55.65 14.91 51.05 11.29C54.44 11.08 56.43 13.77 58.3 16.15C58.32 10.32 58.99 4.36 53.25 0.690002C73.49 2.5 65.39 34.41 49.66 27.02V27.02Z" fill="#D8C68F"/>
<path d="M42.4601 38.34C45.3901 40.47 48.0301 41.68 51.4701 42.45C52.4801 42.67 53.5101 42.86 54.5101 43.33C54.9701 43.55 55.6601 43.83 56.0201 44.21C56.4601 44.68 56.2401 44.7 56.5201 45.27C56.9401 46.14 57.2201 46.89 58.4001 46.35C60.0101 45.61 61.3201 41.98 60.3001 40.46C58.9301 38.43 55.9601 39.57 54.2001 38.19C52.2301 36.64 53.6701 33.83 53.4601 31.74C53.1701 28.8 51.3901 26.86 48.8801 25.54C43.4101 22.65 36.6701 21.81 30.6101 21.37C28.0501 21.18 25.5801 20.6 23.1401 19.84C20.7301 19.09 18.9901 17.44 16.8301 16.34C15.3301 17.01 13.3601 17.61 12.2401 18.62C10.1301 20.53 8.42005 22.31 5.86005 23.74C2.47005 25.63 0.390058 28.8 0.200058 32.84C0.140058 34.05 0.330054 36.05 1.59005 36.59C2.61005 37.03 3.43006 36.45 3.83006 35.56C4.29006 34.55 4.01006 32.62 5.08006 31.89C5.56006 31.57 6.38005 31.7 6.93005 31.68C7.35005 31.66 7.85005 31.62 8.29005 31.59C8.93005 31.55 9.51005 31.49 10.1501 31.49C12.6901 31.49 14.0701 31.21 16.4501 29.96" fill="#D8C68F"/>
<path d="M45.96 35.46C46.67 38.82 51.64 39.81 52.59 43.27C53.32 45.95 47.9 52.33 46.58 48.21C46.46 47.84 46.82 47.39 46.69 47.11C46.48 46.68 45.7 46.41 45.32 46.21C44.16 45.61 43.13 45.43 41.92 45.07C40.75 44.72 39.61 43.93 38.72 43.09C37.38 41.82 36.81 39.96 35.59 38.71C34.58 37.68 32.29 37.66 30.86 37.22C28.14 36.39 25.39 35.05 22.97 33.58C21.35 32.6 20.92 32.06 19.11 33.16C17.85 33.93 15.49 36.01 15.22 37.56C14.88 39.49 17.06 40.76 15.15 42.58C14.28 43.41 13.21 43.5 12.31 42.72C11.12 41.67 10.02 39.84 9.32004 38.37C7.44004 34.44 10.27 31.98 13.72 29.59" fill="#D8C68F"/>
<path d="M16.3601 9.85997C13.1001 8.93997 11.8501 9.69997 9.1001 11.21C7.9801 11.82 2.5301 13.29 2.1901 14.09C0.190098 18.88 13.9101 19.58 16.1401 18.97C19.6401 18 21.3501 13.18 16.3701 9.85997H16.3601Z" fill="#D8C68F"/>
<path d="M14.88 11.42C18.19 11.75 20.04 14.33 22.99 15.44C25.2 16.27 29.66 15.15 29.81 18.35C29.94 21.11 26.09 22.77 24.05 22.94C18.07 23.42 17.48 17.28 14.88 11.42Z" fill="#AC865A"/>
<path d="M10.52 12.75C10.55 12.41 10.29 12.12 9.95998 12.09C9.61998 12.06 9.31998 12.32 9.29998 12.65C9.26998 12.99 9.51998 13.29 9.85998 13.31C10.2 13.34 10.49 13.08 10.52 12.75Z" fill="#AC865A"/>
<path d="M2.02009 15.44C1.89009 15.14 1.55009 14.27 1.76009 13.94C1.94009 13.66 2.57009 13.65 2.86009 13.75C4.11009 14.14 2.53009 15.18 2.02009 15.44Z" fill="#AC865A"/>
<path d="M52.0901 43C52.0901 43 52.1501 43 52.1801 43C52.3801 42.95 52.5101 42.75 52.4601 42.55C52.1701 41.33 51.0101 40.63 49.9701 40.02C49.6001 39.8 49.2601 39.6 48.9701 39.38C47.5601 38.32 46.9201 37.35 46.4501 35.54C46.4001 35.34 46.2001 35.22 45.9901 35.27C45.7901 35.32 45.6701 35.53 45.7201 35.73C46.2401 37.7 46.9701 38.81 48.5101 39.98C48.8301 40.22 49.1901 40.44 49.5701 40.66C50.5201 41.22 51.5001 41.81 51.7101 42.72C51.7501 42.89 51.9001 43.01 52.0801 43.01L52.0901 43Z" fill="#AC865A"/>
<path d="M10.92 32.34C10.99 32.34 11.05 32.32 11.11 32.29C12.01 31.76 12.68 31.09 13.34 30.45C13.77 30.03 14.18 29.63 14.65 29.26C14.81 29.13 14.84 28.9 14.72 28.73C14.59 28.57 14.36 28.54 14.19 28.66C13.69 29.05 13.24 29.49 12.82 29.91C12.17 30.55 11.55 31.15 10.73 31.64C10.55 31.75 10.49 31.98 10.6 32.15C10.67 32.27 10.79 32.33 10.92 32.33V32.34Z" fill="#AC865A"/>
<path d="M10.59 19.5H10.61C11.2 19.46 11.82 19.38 12.42 19.29C13.58 19.13 14.78 18.96 15.85 19.16C16.06 19.19 16.25 19.06 16.29 18.86C16.33 18.66 16.19 18.46 15.99 18.42C14.79 18.2 13.54 18.38 12.32 18.55C11.71 18.64 11.13 18.72 10.57 18.75C10.36 18.76 10.2 18.94 10.22 19.15C10.23 19.35 10.4 19.5 10.59 19.5V19.5Z" fill="#AC865A"/>
</svg>
