<svg width="113" height="16" viewBox="0 0 113 16" fill="none" xmlns="http://www.w3.org/2000/svg">
<path d="M100.96 0H95.36C95.36 5.55 90.33 10.07 84.14 10.07C77.95 10.07 72.92 5.55 72.92 0H67.32C67.32 5.55 62.29 10.07 56.1 10.07C49.91 10.07 44.87 5.55 44.87 0H39.27C39.27 5.55 34.24 10.07 28.05 10.07C21.86 10.07 16.82 5.55 16.82 0H11.22C11.22 5.55 6.19 10.07 0 10.07V15.67C5.85 15.67 11.01 12.87 14.02 8.64C17.04 12.87 22.19 15.67 28.04 15.67C33.89 15.67 39.05 12.87 42.06 8.64C45.08 12.87 50.23 15.67 56.08 15.67C61.93 15.67 67.09 12.87 70.1 8.64C73.11 12.87 78.27 15.67 84.12 15.67C89.97 15.67 95.13 12.87 98.14 8.64C101.16 12.87 106.31 15.67 112.16 15.67V10.07C105.97 10.07 100.94 5.55 100.94 0L100.96 0Z" fill="#3174DC"/>
</svg>
