<svg width="107" height="116" viewBox="0 0 107 116" fill="none" xmlns="http://www.w3.org/2000/svg">
<g clip-path="url(#clip0_98_6020)">
<path d="M99.3794 108.944C99.3794 105.344 83.7302 102.416 64.4328 102.416C45.1353 102.416 29.4862 105.332 29.4862 108.944C29.4862 112.556 45.1353 115.473 64.4328 115.473C83.7302 115.473 99.3794 112.556 99.3794 108.944Z" fill="#DDC69B"/>
<path d="M58.9604 11.4609C58.9604 14.5452 58.9004 17.4134 59.4524 20.4256C59.8365 22.5498 60.1125 24.7099 60.4605 26.8461C61.5166 33.2906 60.7125 39.9271 61.1926 46.4435C61.6726 52.804 59.9925 58.3484 57.8923 64.2889C56.4642 68.3212 52.6119 78.1139 52.2759 79.05C51.1838 82.1462 43.1672 97.3153 41.7391 101.336C41.3791 102.356 40.731 103.688 40.659 104.768C40.455 107.72 43.5513 111.824 41.4151 111.5C39.483 111.2 37.2028 111.572 35.9547 109.82C34.5146 107.804 35.1746 106.556 36.1947 104.744C37.6108 102.224 39.3269 88.9507 40.575 85.3745C41.4391 82.8903 42.1832 80.8501 43.0952 78.4019C45.3994 72.2335 43.9473 64.8889 44.7393 58.4804L46.5155 44.7154L56.6802 10.5369L58.9604 11.4729V11.4609Z" fill="#CE938D"/>
<path d="M58.3484 53.0559C62.4767 60.8085 66.665 68.7531 67.9251 77.4418C68.8972 84.1503 68.1531 101.816 69.1492 102.896C71.9694 105.956 74.6456 108.332 72.5454 108.44C71.1533 108.512 66.797 109.448 65.6929 108.584C65.1049 108.116 64.9369 106.232 64.9849 105.488C65.3569 98.9714 62.0086 89.1066 61.2886 85.3743C60.6405 81.9901 60.1245 79.0139 59.1404 75.7136C57.6523 70.7453 54.2441 67.577 50.6318 63.8567C48.4596 61.6246 44.8954 57.4963 44.7874 54.256C46.0475 53.992 57.9643 52.3479 58.3364 53.0439V53.0679L58.3484 53.0559Z" fill="#CE938D"/>
<path d="M46.5036 55.3961C48.3637 60.0285 51.4599 63.6288 54.1361 67.7931C55.9363 70.6013 57.7004 75.6897 58.8165 77.5018C60.6286 76.8778 71.1294 71.4893 71.1294 71.4893C71.1294 71.4893 67.4091 62.6927 66.377 60.7245C65.393 58.8524 62.1647 52.3599 61.2047 51.3398L46.5156 55.3961H46.5036Z" fill="#D45D63"/>
<path d="M61.2766 50.9198C60.8325 51.7839 60.8205 52.888 60.7125 53.8481C60.5445 55.3362 60.0645 56.5843 59.6324 58.0124C58.7684 60.8806 58.1683 63.9048 57.5083 66.821C56.7042 70.3733 55.3961 74.2256 54.124 77.4778C51.6279 76.8058 48.9757 76.1937 46.3595 75.7977C43.7193 75.3897 41.4991 74.0456 39.0869 73.4335C41.0671 67.025 44.1753 54.2561 44.7753 48.3997L61.2886 50.9198H61.2766Z" fill="#D45D63"/>
<path d="M55.0962 10.6448C52.8161 6.8045 54.7722 1.12808 59.6446 0.924063C62.7648 0.792053 64.6129 3.84028 64.4209 6.64849C64.3369 7.95659 63.2809 13.165 61.3367 13.705C60.1606 14.029 57.1124 11.8689 55.0842 10.6448H55.0962Z" fill="#CE938D"/>
<path d="M2.44809 58.7203C4.03221 60.5804 6.22838 62.0325 8.55655 62.7886C22.0816 67.2409 42.2431 61.9605 55.6841 59.0323C71.8013 55.528 87.6304 49.7916 101.083 40.0589C104.204 37.8147 107.492 34.6225 106.94 30.8302C106.4 27.0619 102.176 26.4859 98.3952 26.0418C79.2058 23.7617 63.9287 24.9498 46.8034 29.1141C33.8064 32.2703 20.8575 35.2825 9.2766 41.991C5.06429 44.4272 0.25193 47.2954 0.0119095 52.1558C-0.108101 54.604 0.863976 56.8841 2.44809 58.7443V58.7203Z" fill="#BFCEE6"/>
<path d="M92.8028 40.2029C87.1624 43.5031 80.9219 46.4914 74.8255 48.7595C55.9241 55.7921 37.3827 61.6245 16.9212 60.1484C14.641 59.9804 7.21242 59.6323 1.89602 58.0122C2.07603 58.2522 2.25605 58.4923 2.46007 58.7203C4.04418 60.5804 6.24035 62.0325 8.56853 62.7886C22.0935 67.2409 42.255 61.9605 55.696 59.0323C71.8133 55.528 87.6424 49.7916 101.095 40.0589C104.204 37.8147 107.492 34.6225 106.94 30.8302C106.868 30.3501 106.748 29.9061 106.58 29.4861C105.164 31.0702 103.628 32.5463 102.02 33.9264C99.1993 36.3506 96.0071 38.3427 92.7908 40.2149L92.8028 40.2029Z" fill="#9DABC1"/>
<path d="M54.7601 24.8898C54.9041 30.1102 51.7838 38.0428 52.6599 43.0832C53.1039 45.6514 52.7679 55.3601 53.632 58.4683C53.896 59.4404 53.428 63.2807 53.1399 63.9047C52.7199 64.8408 52.4799 65.0448 51.4358 65.1888C49.6237 65.4408 49.5037 64.2168 49.8157 62.7646C50.2357 60.8205 50.9678 58.9004 50.7398 56.8722C50.5358 55.0961 49.9477 53.3079 49.4677 51.5918C48.5196 48.1956 47.3195 44.8233 46.6595 41.3431C46.3474 39.7229 46.5155 29.5102 46.7675 26.2819C46.9715 23.7257 46.7675 20.2095 48.4116 18.0373C49.5997 16.4532 51.6878 15.5291 53.1279 14.209C54.6281 12.8289 55.3241 11.6168 55.7201 9.64868L57.5923 10.5367L54.7361 24.9018L54.7601 24.8898Z" fill="#CE938D"/>
<path d="M60.6885 3.25229C61.4806 2.59224 63.0887 2.44823 63.7728 3.49231C64.1088 0.948118 60.2205 -0.191967 58.3003 0.0360497C54.9761 0.432079 52.972 4.00835 53.26 7.21259C53.392 8.65269 54.4121 10.0088 55.3361 11.0769C56.0202 10.1048 56.8242 9.75677 57.2563 8.64069C57.5203 7.94464 57.0283 5.54446 58.1683 5.36445C58.6484 5.29244 59.3084 6.22851 59.5604 6.57654C59.9205 5.61647 60.4725 4.56039 60.6885 3.25229Z" fill="#262424"/>
</g>
<defs>
<clipPath id="clip0_98_6020">
<rect width="107" height="115.473" fill="white" transform="matrix(-1 0 0 1 107 0)"/>
</clipPath>
</defs>
</svg>
