<svg width="40" height="25" viewBox="0 0 40 25" fill="none" xmlns="http://www.w3.org/2000/svg">
<g clip-path="url(#clip0_65_132)">
<path d="M11.83 8.27012C11.83 10.7001 13.8 12.6701 16.23 12.6701C18.66 12.6701 20.63 10.7001 20.63 8.27012C20.63 5.84012 18.66 3.87012 16.23 3.87012C13.8 3.87012 11.83 5.84012 11.83 8.27012Z" fill="#2FB06C"/>
<path d="M31.9 5.4C29.47 5.4 27.5 3.43 27.5 1" stroke="#353535" stroke-width="2" stroke-miterlimit="10"/>
<path d="M31.9 11.6001C29.47 11.6001 27.5 13.5701 27.5 16.0001" stroke="#353535" stroke-width="2" stroke-miterlimit="10"/>
<path d="M1 11.6001C3.43 11.6001 5.4 13.5701 5.4 16.0001" stroke="#353535" stroke-width="2" stroke-miterlimit="10"/>
<path d="M1 5.4C3.43 5.4 5.4 3.43 5.4 1" stroke="#353535" stroke-width="2" stroke-miterlimit="10"/>
<path d="M31.9 1H1V15.85H31.9V1Z" stroke="#353535" stroke-width="2" stroke-miterlimit="10"/>
<path d="M5.29004 19.5901H35.31V3.11011" stroke="#353535" stroke-width="2" stroke-miterlimit="10"/>
<path d="M8.80005 23.1001H38.82V6.62012" stroke="#353535" stroke-width="2" stroke-miterlimit="10"/>
</g>
<defs>
<clipPath id="clip0_65_132">
<rect width="39.82" height="24.1" fill="white"/>
</clipPath>
</defs>
</svg>
