<svg width="336" height="310" viewBox="0 0 336 310" fill="none" xmlns="http://www.w3.org/2000/svg">
<g clip-path="url(#clip0_98_6019)">
<path d="M105.657 124.964H0V185.034H105.657V124.964Z" fill="#FFB700"/>
<path d="M310.001 124.964H204.343V185.034H310.001V124.964Z" fill="#FFB700"/>
<path d="M185.034 0H124.964V105.657H185.034V0Z" fill="#FFB700"/>
<path d="M185.033 204.343H124.964V310H185.033V204.343Z" fill="#FFB700"/>
<g clip-path="url(#clip1_98_6019)">
<path d="M262.574 45.4362C260.589 41.1808 259.68 39.1693 259.072 37.2772C257.047 30.9738 257.668 23.4953 265.097 20.478C268.29 19.1835 271.281 20.6208 272.522 23.7078C273.913 27.1665 272.1 29.4436 269.372 31.7472C267.42 33.5894 263.842 37.1677 262.574 45.4362Z" fill="#1273E4"/>
<path d="M253.343 31.4318C253.101 30.8011 252.048 28.7862 251.78 28.2651C250.973 26.6984 250.02 25.1283 248.802 23.8437C246.323 21.2281 240.547 20.4248 239.149 25.2545C238.22 28.4676 241.835 31.1828 245.745 30.509C245.745 30.509 250.349 29.7754 253.343 31.4318Z" fill="#1273E4"/>
</g>
</g>
<g clip-path="url(#clip2_98_6019)">
<path d="M335.964 123.469C335.022 119.471 312.185 121.426 284.922 127.806C257.66 134.186 236.333 142.592 237.257 146.591C238.199 150.572 261.036 148.635 288.299 142.255C315.562 135.874 336.906 127.468 335.964 123.469Z" fill="#5BA39C"/>
<path d="M294.555 95.7089C297.043 93.5229 298.803 88.6 301.646 88.1912C304.365 87.8002 308.737 91.0703 310.568 93.6473C316.202 101.574 307.369 112.984 302.339 119.097C299.265 122.847 295.639 126.597 291.836 129.601C284.94 135.021 276.25 141.401 267.897 144.156C258.868 147.142 248.311 150.181 240.723 147.853C233.169 145.525 232.05 137.652 243.851 134.719C247.05 133.919 249.36 131.076 252.186 129.441C261.623 123.931 270.118 117.071 278.364 109.944C282.665 106.23 286.895 102.427 291.214 98.7302C292.227 97.8593 293.364 96.7752 294.591 95.7089H294.555Z" fill="#DD9C28"/>
<path d="M291.32 93.0786C292.92 91.639 294.573 90.2528 296.474 89.2931C298.927 88.0668 301.913 87.5869 304.401 88.7244C307.475 90.1284 309.11 93.6828 309.093 97.0596C309.075 100.436 307.671 103.635 306.036 106.586C298.269 120.59 285.1 131.698 270.971 138.913C267.097 140.886 233.312 153.842 235.231 141.561C235.409 140.388 236.173 139.411 236.937 138.505C244.259 129.778 251.617 128.001 263.062 116.609C271.326 108.381 281.421 102.231 289.987 94.3226C290.432 93.9139 290.876 93.5051 291.32 93.0963V93.0786Z" fill="#F4B83C"/>
<path d="M276.658 64.4119C273.317 65.4605 270.545 68.3396 267.95 70.7033C266.51 72.0362 265.106 73.5291 263.916 75.0931C261.996 77.5812 260.734 80.8513 259.419 83.6949C259.153 84.2814 256.38 93.2919 254.407 91.3903C253.75 90.7682 254.496 88.1202 254.638 87.4271C255.527 82.8773 256.398 77.83 258.353 73.618C259.775 70.5256 262.103 67.9842 264.147 65.2828C266.422 62.2792 268.892 59.3468 271.984 57.1431C273.442 56.1123 274.988 55.2947 276.641 54.6194C278.027 54.0329 279.928 53.4464 280.284 51.758C280.693 49.7853 280.959 47.9192 280.142 46.0709C281.315 45.8576 282.488 45.6266 283.661 45.4133C283.981 48.7545 286.7 50.4251 290.023 50.0341C293.507 49.6254 296.972 48.168 300.544 47.706C304.419 47.2083 308.577 47.1195 312.47 47.706C315.331 48.1325 320.165 48.9322 322.244 51.0649C323.222 52.0779 323.044 53.0199 321.533 53.1265C319.65 53.2509 317.144 52.2201 315.224 51.9713C312.967 51.687 308.791 50.7628 306.534 51.1005C303.299 51.5803 298.714 55.0459 296.297 57.1431C294.164 58.9914 294.413 61.1774 294.413 64.7141C294.413 71.0943 289.135 74.7909 288.512 81.1001V83.8726C289.845 88.3157 292.973 95.3535 294.146 99.8854C295.835 106.461 291.943 108.576 287.553 112.913C281.279 119.133 280.657 120.803 280.657 120.803C280.533 120.821 281.812 125.3 278.489 123.22C277.156 122.385 276.747 121.728 277.174 120.608C277.316 120.252 282.452 110.016 283.696 107.19C284.674 104.933 283.376 100.312 281.457 97.6106C279.893 102.8 276.836 113.446 275.805 115.365C274.543 117.729 260.219 131.893 259.881 132.071C259.508 132.284 260.592 135.59 260.308 136.212C259.668 137.616 258.14 136.532 257.162 135.91C255.545 134.897 254.923 133.635 255.918 132.195C258.371 128.677 260.699 124.482 262.05 122.083C263.649 119.222 266.35 117.676 266.759 114.441C267.097 111.828 267.204 107.083 267.346 104.435C267.648 98.4281 266.724 95.4424 268.608 88.1379C269.336 85.2944 270.971 82.5041 272.695 80.176C273.406 79.1985 274.152 78.2921 274.543 77.1547C276.143 72.3917 272.215 68.233 271.629 63.47" fill="#D08884"/>
<path d="M285.633 39.7795C284.3 37.4869 281.474 36.2429 278.951 37.327C274.437 39.2641 276.036 46.3375 279.093 48.8256C280.248 49.7676 281.865 50.2297 283.252 49.732C284.798 49.1989 285.793 47.6349 286.237 46.0532C286.842 43.9738 286.7 41.6456 285.615 39.7618L285.633 39.7795Z" fill="#D08884"/>
<path d="M277.174 45.5734C272.979 42.9786 273.992 36.5095 278.382 34.5012C281.546 33.0617 284.425 34.3946 287.535 34.91C291.338 35.5498 293.275 32.8662 296.314 31.5155C300.26 29.756 301.433 32.9728 304.845 33.737C307.493 34.3413 310.479 30.7157 312.789 32.1908C316.877 34.7856 311.474 38.4822 309.093 39.5841C307.795 40.1884 306.196 40.7749 304.756 40.7749C303.299 40.7749 301.966 39.9751 300.544 39.9218C298.287 39.8329 297.327 41.1836 295.852 42.6232C288.477 49.7499 279.466 40.1173 279.466 40.1173C278.844 39.8152 276.463 44.1694 277.174 45.5911V45.5734Z" fill="#003D57"/>
<path d="M289.134 85.4543C287.197 87.0182 286.611 88.9554 285.242 91.017C283.909 93.0253 283.003 95.5845 281.528 97.4328C281.332 96.9352 281.012 96.5797 280.71 96.1354C275.13 88.0846 269.336 85.8986 269.336 85.8986L270.207 83.4282C270.207 83.4282 283.056 88.7244 288.672 83.4282C288.832 84.0858 288.992 84.7434 289.152 85.4187L289.134 85.4543Z" fill="black"/>
<path d="M272.784 67.4866C274.97 65.8693 276.676 63.7544 278.933 62.2615C280.888 60.9819 284.691 61.4617 286.611 63.3989C287.89 61.906 288.672 61.0885 290.645 60.5554C291.711 60.271 294.502 61.4617 294.502 61.4617C294.502 61.4617 294.395 62.7236 294.395 64.6608C294.395 66.9356 293.88 68.3929 293.133 70.2946C282.985 71.9119 280.426 71.6097 274.348 71.9119C274.348 71.9119 273.317 69.3171 272.784 67.4866Z" fill="black"/>
</g>
<defs>
<clipPath id="clip0_98_6019">
<rect width="310.001" height="310.001" fill="white"/>
</clipPath>
<clipPath id="clip1_98_6019">
<rect width="34" height="25.4361" fill="white" transform="translate(239 20)"/>
</clipPath>
<clipPath id="clip2_98_6019">
<rect width="101" height="117.688" fill="white" transform="matrix(-1 0 0 1 336 31)"/>
</clipPath>
</defs>
</svg>
