<?xml version="1.0" encoding="utf-8"?>
<!-- Generator: Adobe Illustrator 25.0.1, SVG Export Plug-In . SVG Version: 6.00 Build 0)  -->
<svg version="1.1" id="Layer_1" xmlns="http://www.w3.org/2000/svg" xmlns:xlink="http://www.w3.org/1999/xlink" x="0px" y="0px"
	 viewBox="0 0 166 42" style="enable-background:new 0 0 166 42;" xml:space="preserve">
<style type="text/css">
	.st0{enable-background:new    ;}
	.st1{fill:#171717;}
</style>
<g class="st0">
	<path class="st1" d="M37.5,3.1l0,22.6L6.4,25.8c-0.6,0-1.1-0.2-1.6-0.7l-2.4-2.5c-0.4-0.4-0.6-1-0.6-1.6l0-13.4L0.1,3.2l11,0l0,4.4
		l17.2,0l0-4.4L37.5,3.1z M15.1,27.1l9.2,0l0,5.5l14.7,0l0,7.8L0.4,40.3l0-7.8l14.7,0L15.1,27.1z M28.3,18.4l0-3.5l-17.2,0l0,3.5
		L28.3,18.4z"/>
	<path class="st1" d="M63.8,18.6L63,24.9l-15.5,0c-0.6,0-1.1-0.2-1.6-0.7l-2.4-2.5c-0.4-0.4-0.6-1-0.6-1.6l0-9.3l12.3,0l0.2-1.6
		L43,9.4l0-6.3l17.1,0c0.6,0,1.1,0.2,1.6,0.7L64,6.2c0.2,0.2,0.4,0.5,0.5,0.7c0.1,0.3,0.2,0.5,0.1,0.8l-1,9.2l-11.6,0l0,1.6
		L63.8,18.6z M52.8,41.5c-1.3,0-2.4-0.2-3.4-0.5s-1.9-0.9-2.6-1.5c-0.7-0.7-1.3-1.4-1.6-2.3c-0.4-0.9-0.6-1.9-0.6-3
		c0-1.1,0.2-2.1,0.6-3c0.4-0.9,0.9-1.7,1.6-2.4c0.7-0.7,1.6-1.2,2.6-1.5c1-0.4,2.2-0.6,3.4-0.6l20.4,0c1.3,0,2.5,0.2,3.5,0.5
		c1,0.4,1.9,0.9,2.6,1.5c0.7,0.7,1.2,1.4,1.6,2.3c0.4,0.9,0.5,1.9,0.6,3c0,1.1-0.2,2.1-0.5,3c-0.4,0.9-0.9,1.7-1.6,2.4
		c-0.7,0.7-1.6,1.2-2.6,1.5c-1,0.4-2.2,0.6-3.5,0.6L52.8,41.5z M70.5,35.2c0.5,0,1-0.1,1.3-0.3c0.3-0.2,0.5-0.5,0.5-0.8
		c0-0.4-0.2-0.6-0.5-0.8c-0.3-0.2-0.7-0.3-1.3-0.3l-15,0c-0.5,0-1,0.1-1.3,0.3c-0.3,0.2-0.5,0.5-0.5,0.8c0,0.4,0.2,0.6,0.5,0.8
		c0.3,0.2,0.7,0.3,1.3,0.3L70.5,35.2z M66.5,5.6l4,0L69,2.5l11.4,0l0,23.1l-9.2,0l0-3.2l-6.6,0l0.8-7.4l5.7,0l0-2.1l-5.5,0L66.5,5.6
		z"/>
	<path class="st1" d="M121.6,41.4l-9.2,0l0-4.9l-26.7,0.1l0-6.5l13.4,0l0-2.3l-14.7,0l0-6.7l38.6-0.1l0,6.7l-14.7,0l0,2.3l13.2,0
		L121.6,41.4z M85.8,4.1l12.3,0l-1.6-2.9l11.8,0l0,2.9l13.1,0l0,6.5l-9.6,0l10,8.8l-11.2,0l-7.1-6.4l-7,6.4l-11.2,0l9.9-8.8l-9.5,0
		L85.8,4.1z"/>
	<path class="st1" d="M144.5,10.7l-5.2,0l-1.6,7.4l4.2,0.7l3.3,21.3l-7.8,0l-1.8-11.7L133,40.1l-7.8,0l6.2-29.4l-5.7,0l0-7.8l18.7,0
		L144.5,10.7z M147.2,16.3l0-9.6L145,2.3l10.1,0l0.1,39l-8,0l0-17.5l-3.3,0l-1.2-7.6L147.2,16.3z M165.1,41.3l-8,0l-0.1-39l8,0
		L165.1,41.3z"/>
</g>
</svg>
