<svg width="101" height="129" viewBox="0 0 101 129" fill="none" xmlns="http://www.w3.org/2000/svg">
<g clip-path="url(#clip0_1_76)">
<path d="M27.574 25.4361C25.589 21.1807 24.6795 19.1692 24.0721 17.2772C22.0473 10.9737 22.668 3.49526 30.0967 0.477984C33.2899 -0.816559 36.2806 0.620716 37.522 3.7077C38.9128 7.16645 37.1005 9.44352 34.372 11.7471C32.4202 13.5894 28.8419 17.1676 27.574 25.4361V25.4361Z" fill="#1273E4"/>
<path d="M18.3429 11.4318C18.1006 10.8011 17.0483 8.7863 16.7795 8.26516C15.9729 6.69843 15.0202 5.12839 13.802 3.8438C11.3225 1.22816 5.54681 0.424881 4.14937 5.25452C3.21995 8.46764 6.83471 11.1829 10.7449 10.509C10.7449 10.509 15.3488 9.77546 18.3429 11.4318Z" fill="#1273E4"/>
</g>
<g clip-path="url(#clip1_1_76)">
<path d="M100.964 103.469C100.023 99.4705 77.1851 101.425 49.9224 107.806C22.6597 114.186 1.33293 122.592 2.25709 126.591C3.19902 130.572 26.0364 128.635 53.2991 122.255C80.5619 115.874 101.906 107.468 100.964 103.469Z" fill="#5BA39C"/>
<path d="M59.555 75.709C62.0431 73.523 63.8026 68.6 66.6461 68.1913C69.3653 67.8003 73.7373 71.0704 75.5678 73.6474C81.2016 81.5738 72.3688 92.9836 67.3392 99.0973C64.2646 102.847 60.6391 106.597 56.8358 109.601C49.9402 115.021 41.2495 121.402 32.8965 124.156C23.8682 127.142 13.3114 130.181 5.72267 127.853C-1.83055 125.525 -2.9502 117.652 8.8506 114.719C12.0496 113.919 14.36 111.076 17.1858 109.441C26.6229 103.931 35.1181 97.0713 43.3644 89.9446C47.6653 86.2302 51.8951 82.4269 56.2138 78.7302C57.2268 77.8594 58.3642 76.7753 59.5905 75.709H59.555Z" fill="#DD9C28"/>
<path d="M56.3204 73.0787C57.9199 71.6391 59.5728 70.2529 61.4744 69.2931C63.927 68.0669 66.9127 67.587 69.4008 68.7244C72.4754 70.1284 74.1105 73.6829 74.0927 77.0596C74.0749 80.4364 72.6709 83.6354 71.0359 86.5856C63.2694 100.59 50.1001 111.698 35.9711 118.913C32.0968 120.886 -1.68838 133.842 0.231026 121.561C0.408749 120.389 1.17296 119.411 1.93717 118.505C9.25935 109.778 16.6171 108.001 28.0625 96.6092C36.3266 88.3806 46.4212 82.2314 54.9875 74.3227C55.4318 73.914 55.8761 73.5052 56.3204 73.0964V73.0787Z" fill="#F4B83C"/>
<path d="M41.6583 44.4119C38.3171 45.4605 35.5446 48.3396 32.9498 50.7033C31.5103 52.0362 30.1063 53.5291 28.9155 55.0931C26.9961 57.5812 25.7343 60.8513 24.4191 63.6949C24.1526 64.2814 21.3801 73.2919 19.4074 71.3903C18.7498 70.7682 19.4962 68.1202 19.6384 67.4271C20.527 62.8773 21.3979 57.83 23.3528 53.618C24.7746 50.5256 27.1028 47.9842 29.1466 45.2828C31.4214 42.2792 33.8918 39.3468 36.9842 37.1431C38.4415 36.1123 39.9877 35.2947 41.6405 34.6194C43.0267 34.0329 44.9284 33.4464 45.2838 31.758C45.6926 29.7853 45.9592 27.9192 45.1417 26.0709C46.3146 25.8576 47.4876 25.6266 48.6606 25.4133C48.9805 28.7545 51.6996 30.4251 55.023 30.0341C58.5064 29.6254 61.972 28.168 65.5443 27.706C69.4186 27.2083 73.5773 27.1195 77.4695 27.706C80.3308 28.1325 85.1649 28.9322 87.2442 31.0649C88.2217 32.0779 88.044 33.0199 86.5333 33.1265C84.6495 33.2509 82.1436 32.2201 80.2242 31.9713C77.9671 31.687 73.7906 30.7628 71.5335 31.1005C68.299 31.5803 63.7137 35.0459 61.2967 37.1431C59.164 38.9914 59.4128 41.1774 59.4128 44.7141C59.4128 51.0943 54.1344 54.7909 53.5124 61.1001V63.8726C54.8453 68.3157 57.9733 75.3535 59.1462 79.8854C60.8346 86.4612 56.9425 88.5761 52.5527 92.9125C46.2791 99.1328 45.657 100.803 45.657 100.803C45.5326 100.821 46.8122 105.3 43.4888 103.22C42.1559 102.385 41.7471 101.728 42.1737 100.608C42.3159 100.252 47.452 90.0156 48.6961 87.1899C49.6736 84.9328 48.3762 80.312 46.4568 77.6106C44.8928 82.8001 41.836 93.4457 40.8052 95.3651C39.5434 97.7288 25.2189 111.893 24.8812 112.071C24.508 112.284 25.5921 115.59 25.3078 116.212C24.668 117.616 23.1395 116.532 22.1621 115.91C20.5448 114.897 19.9227 113.635 20.918 112.195C23.3706 108.677 25.6987 104.482 27.0494 102.083C28.6489 99.2217 31.3503 97.6755 31.7591 94.441C32.0968 91.8284 32.2034 87.0832 32.3456 84.4351C32.6477 78.4281 31.7236 75.4424 33.6074 68.1379C34.3361 65.2944 35.9711 62.5041 37.6951 60.176C38.406 59.1985 39.1524 58.2921 39.5434 57.1547C41.1429 52.3917 37.2152 48.233 36.6287 43.47" fill="#D08884"/>
<path d="M50.6333 19.7795C49.3004 17.4869 46.4746 16.2428 43.9509 17.3269C39.4368 19.2641 41.0363 26.3375 44.0931 28.8256C45.2483 29.7675 46.8656 30.2296 48.2518 29.732C49.798 29.1988 50.7933 27.6349 51.2376 26.0531C51.8418 23.9738 51.6996 21.6456 50.6155 19.7617L50.6333 19.7795Z" fill="#D08884"/>
<path d="M42.1737 25.5733C37.9794 22.9785 38.9924 16.5094 43.3822 14.5011C46.5457 13.0616 49.4248 14.3945 52.5349 14.9099C56.3382 15.5497 58.2754 12.8661 61.3145 11.5154C65.2599 9.75593 66.4329 12.9727 69.8452 13.7369C72.4932 14.3412 75.479 10.7156 77.7894 12.1907C81.877 14.7855 76.4742 18.4821 74.0927 19.584C72.7954 20.1883 71.1959 20.7748 69.7563 20.7748C68.299 20.7748 66.966 19.975 65.5443 19.9217C63.2872 19.8328 62.3275 21.1835 60.8524 22.6231C53.4769 29.7498 44.4663 20.1172 44.4663 20.1172C43.8443 19.8151 41.4628 24.1693 42.1737 25.5911V25.5733Z" fill="#003D57"/>
<path d="M54.1344 65.4543C52.1973 67.0183 51.6108 68.9555 50.2423 71.0171C48.9094 73.0253 48.003 75.5845 46.5279 77.4329C46.3324 76.9352 46.0125 76.5798 45.7104 76.1355C40.1299 68.0846 34.3361 65.8986 34.3361 65.8986L35.207 63.4283C35.207 63.4283 48.0563 68.7244 53.6724 63.4283C53.8323 64.0859 53.9923 64.7434 54.1522 65.4188L54.1344 65.4543Z" fill="black"/>
<path d="M37.7839 47.4865C39.9699 45.8693 41.6761 43.7544 43.9331 42.2615C45.8881 40.9819 49.6914 41.4617 51.6108 43.3989C52.8904 41.906 53.6724 41.0885 55.6451 40.5553C56.7114 40.271 59.5017 41.4617 59.5017 41.4617C59.5017 41.4617 59.395 42.7236 59.395 44.6607C59.395 46.9356 58.8796 48.3929 58.1332 50.2946C47.9852 51.9118 45.426 51.6097 39.3479 51.9118C39.3479 51.9118 38.3171 49.3171 37.7839 47.4865Z" fill="black"/>
</g>
<defs>
<clipPath id="clip0_1_76">
<rect width="34" height="25.4361" fill="white" transform="translate(4)"/>
</clipPath>
<clipPath id="clip1_1_76">
<rect width="101" height="117.688" fill="white" transform="matrix(-1 0 0 1 101 11)"/>
</clipPath>
</defs>
</svg>
