<svg width="16" height="16" viewBox="0 0 16 16" fill="none" xmlns="http://www.w3.org/2000/svg">
<g clip-path="url(#clip0_4_10)">
<path d="M7.99398 1.33203C4.31398 1.33203 1.33398 4.3187 1.33398 7.9987C1.33398 11.6787 4.31398 14.6654 7.99398 14.6654C11.6807 14.6654 14.6673 11.6787 14.6673 7.9987C14.6673 4.3187 11.6807 1.33203 7.99398 1.33203ZM8.00065 13.332C5.05398 13.332 2.66732 10.9454 2.66732 7.9987C2.66732 5.05203 5.05398 2.66536 8.00065 2.66536C10.9473 2.66536 13.334 5.05203 13.334 7.9987C13.334 10.9454 10.9473 13.332 8.00065 13.332Z" fill="#888888"/>
<path d="M8.33398 4.66797H7.33398V8.66797L10.834 10.768L11.334 9.94797L8.33398 8.16797V4.66797Z" fill="#888888"/>
</g>
<defs>
<clipPath id="clip0_4_10">
<rect width="16" height="16" fill="white"/>
</clipPath>
</defs>
</svg>
