<svg width="22" height="22" viewBox="0 0 22 22" fill="none" xmlns="http://www.w3.org/2000/svg">
<path d="M11.5 6.54375C12.4425 6.54375 13.2063 7.3075 13.2063 8.25C13.2063 9.1925 12.4425 9.95625 11.5 9.95625C10.5575 9.95625 9.79375 9.1925 9.79375 8.25C9.79375 7.3075 10.5575 6.54375 11.5 6.54375ZM11.5 13.8562C13.9131 13.8562 16.4563 15.0425 16.4563 15.5625V16.4563H6.54375V15.5625C6.54375 15.0425 9.08687 13.8562 11.5 13.8562ZM11.5 5C9.70437 5 8.25 6.45437 8.25 8.25C8.25 10.0456 9.70437 11.5 11.5 11.5C13.2956 11.5 14.75 10.0456 14.75 8.25C14.75 6.45437 13.2956 5 11.5 5ZM11.5 12.3125C9.33062 12.3125 5 13.4012 5 15.5625V18H18V15.5625C18 13.4012 13.6694 12.3125 11.5 12.3125Z" fill="#444444"/>
</svg>
