<svg width="57" height="57" viewBox="0 0 57 57" fill="none" xmlns="http://www.w3.org/2000/svg">
<path fill-rule="evenodd" clip-rule="evenodd" d="M19.7929 20.3261C20.1834 19.9356 20.8166 19.9356 21.2071 20.3261L28.5 27.619L35.7929 20.3261C36.1834 19.9356 36.8166 19.9356 37.2071 20.3261C37.5976 20.7166 37.5976 21.3498 37.2071 21.7403L29.9142 29.0332L37.2071 36.3261C37.5976 36.7166 37.5976 37.3498 37.2071 37.7403C36.8166 38.1308 36.1834 38.1308 35.7929 37.7403L28.5 30.4474L21.2071 37.7403C20.8166 38.1308 20.1834 38.1308 19.7929 37.7403C19.4024 37.3498 19.4024 36.7166 19.7929 36.3261L27.0858 29.0332L19.7929 21.7403C19.4024 21.3498 19.4024 20.7166 19.7929 20.3261Z" fill="white"/>
</svg>
