<svg width="222" height="222" viewBox="0 0 222 222" fill="none" xmlns="http://www.w3.org/2000/svg">
<g clip-path="url(#clip0)" filter="url(#filter0_d)">
<path d="M10.0853 110.896C10.0819 130.857 15.998 150.37 27.0852 166.967C38.1724 183.565 53.9328 196.502 72.373 204.142C90.8133 211.782 111.105 213.782 130.682 209.889C150.259 205.996 168.242 196.384 182.356 182.27C196.47 168.156 206.081 150.173 209.974 130.597C213.867 111.02 211.868 90.7279 204.228 72.2877C196.588 53.8474 183.651 38.0871 167.053 26.9999C150.455 15.9126 130.942 9.99661 110.982 10C84.2363 10.0453 58.5992 20.69 39.6872 39.6019C20.7753 58.5138 10.1306 84.1509 10.0853 110.896V110.896ZM12.6206 110.896C12.6206 91.4383 18.3908 72.4172 29.2015 56.2386C40.0122 40.06 55.3778 27.4506 73.3551 20.0051C91.3324 12.5596 111.114 10.6123 130.198 14.4097C149.282 18.207 166.811 27.5783 180.569 41.3385C194.327 55.0987 203.695 72.6296 207.489 91.7143C211.283 110.799 209.332 130.58 201.884 148.556C194.435 166.532 181.823 181.895 165.642 192.703C149.462 203.511 130.44 209.278 110.982 209.275C84.8881 209.261 59.866 198.894 41.4086 180.449C22.9511 162.005 12.5667 136.99 12.5349 110.896H12.6206Z" fill="white"/>
<path d="M42.221 110.896C42.221 124.479 46.2487 137.756 53.7948 149.05C61.3409 160.343 72.0664 169.146 84.615 174.343C97.1637 179.541 110.972 180.901 124.293 178.251C137.615 175.602 149.852 169.061 159.456 159.457C169.06 149.852 175.601 137.616 178.251 124.294C180.901 110.973 179.541 97.1644 174.343 84.6157C169.145 72.0671 160.343 61.3415 149.049 53.7954C137.756 46.2494 124.478 42.2217 110.896 42.2217C92.689 42.2443 75.2345 49.4869 62.3604 62.361C49.4863 75.2351 42.2437 92.6896 42.221 110.896V110.896ZM44.191 110.896C44.191 97.6993 48.1046 84.7986 55.4368 73.8259C62.7691 62.8532 73.1906 54.3013 85.3834 49.2518C97.5762 44.2023 110.993 42.8819 123.936 45.4578C136.879 48.0336 148.768 54.39 158.098 63.7229C167.429 73.0559 173.782 84.9461 176.355 97.89C178.927 110.834 177.603 124.25 172.551 136.442C167.498 148.633 158.944 159.052 147.969 166.382C136.994 173.711 124.093 177.622 110.896 177.618C93.2099 177.591 76.2565 170.552 63.7523 158.045C51.2482 145.537 44.2136 128.582 44.191 110.896Z" fill="white"/>
<path d="M32.4924 121.603C32.5641 121.877 32.5783 122.163 32.5341 122.443C32.4899 122.723 32.3882 122.991 32.2354 123.23C31.8157 123.633 31.2581 123.859 30.6766 123.864C30.0977 124.004 29.4876 123.924 28.9636 123.641C28.5315 123.173 28.2823 122.565 28.2612 121.928L28.1242 120.883L32.3725 120.335L32.4924 121.603ZM34.2054 116.704L19.1138 118.674L19.542 121.997L25.589 121.192L25.8288 122.99V123.179C25.8806 123.944 26.0541 124.695 26.3427 125.406C26.5517 125.835 26.8636 126.206 27.2506 126.485C27.7061 126.814 28.2356 127.026 28.7923 127.102C29.4966 127.205 30.2121 127.205 30.9164 127.102C32.2088 127.07 33.4379 126.535 34.3424 125.611C34.9845 124.447 35.1678 123.084 34.8564 121.791L34.2054 116.704Z" fill="white"/>
<path d="M34.7363 134.313L28.8949 137.739L27.9356 134.622L34.7363 134.313ZM24.818 143.975L38.1281 135.41L36.929 131.521L21.1179 131.915L22.06 134.981L25.486 134.724L26.7879 138.955L23.7902 140.668L24.818 143.975Z" fill="white"/>
<path d="M27.8846 150.604L41.5887 143.752L42.9762 146.544L29.3578 153.396L27.8846 150.604Z" fill="white"/>
<path d="M48.6113 171.503L48.4229 171.691C48.321 171.796 48.2122 171.893 48.0974 171.983C47.6625 172.454 47.1273 172.821 46.5315 173.058C45.9356 173.294 45.2942 173.394 44.6547 173.35C44.0151 173.305 43.3937 173.118 42.8362 172.801C42.2788 172.485 41.7995 172.047 41.4338 171.52C40.9836 171.011 40.6191 170.433 40.3546 169.807C40.1116 169.311 39.9828 168.767 39.9777 168.214C39.9886 167.3 40.2884 166.412 40.8342 165.679C41.8521 164.419 43.0005 163.271 44.2603 162.253C45.1429 161.451 46.0945 160.729 47.1039 160.094C47.7556 159.687 48.4846 159.418 49.2451 159.306C49.9437 159.208 50.6556 159.328 51.2836 159.649C52.0333 160.031 52.6977 160.561 53.2364 161.208C53.6922 161.654 54.053 162.187 54.2974 162.776C54.5417 163.364 54.6645 163.996 54.6583 164.634C54.5721 165.262 54.3628 165.866 54.0424 166.413C53.722 166.96 53.2967 167.438 52.791 167.82L52.5684 168.009L50.4785 165.627L50.6841 165.439C51.183 165.059 51.5682 164.55 51.7975 163.966C51.8623 163.748 51.8662 163.516 51.8088 163.295C51.7515 163.075 51.635 162.874 51.472 162.715C51.2751 162.463 51.0006 162.283 50.691 162.202C50.3814 162.122 50.0538 162.146 49.759 162.27C48.3485 163.019 47.0556 163.971 45.9219 165.096C44.8092 165.97 43.8385 167.01 43.044 168.18C42.8719 168.462 42.7986 168.794 42.8358 169.123C42.8731 169.452 43.0186 169.759 43.2496 169.996C43.397 170.178 43.591 170.318 43.8111 170.399C44.0313 170.481 44.2693 170.501 44.5001 170.458C45.1449 170.293 45.7354 169.962 46.2131 169.499L46.4015 169.328L46.59 169.139L48.6113 171.503Z" fill="white"/>
<path d="M52.5849 181.867L50.0668 179.948L59.4027 167.957L61.9208 169.893L58.2721 174.604L60.9958 176.728L64.6445 172.017L67.1627 173.97L57.8267 185.961L55.3086 184.025L59.437 178.698L56.7133 176.522L52.5849 181.867Z" fill="white"/>
<path d="M74.5634 181.421L73.0388 188.034L70.1267 186.577L74.5634 181.421ZM74.7175 195.28L77.7324 179.76L74.1008 177.944L63.463 189.644L66.3409 191.083L68.5507 188.393L72.5077 190.363L71.7369 193.789L74.7175 195.28Z" fill="white"/>
<path d="M80.7136 197.335L85.3559 182.826L88.3365 183.785L83.7457 198.277L80.7136 197.335Z" fill="white"/>
<path d="M111.394 187.16L110.88 196.667C110.942 198.291 110.433 199.885 109.441 201.172C108.891 201.647 108.245 201.997 107.547 202.198C106.849 202.4 106.116 202.447 105.398 202.337C104.685 202.357 103.976 202.229 103.315 201.961C102.655 201.693 102.057 201.29 101.561 200.778C100.694 199.549 100.326 198.037 100.533 196.547L101.064 186.594L104.233 186.766L103.736 195.896C103.577 197.01 103.67 198.146 104.01 199.219C104.176 199.478 104.408 199.688 104.682 199.827C104.956 199.965 105.263 200.028 105.569 200.007C105.874 200.055 106.187 200.014 106.469 199.89C106.751 199.765 106.992 199.562 107.162 199.305C107.584 198.297 107.788 197.211 107.762 196.119L108.259 186.988L111.394 187.16Z" fill="white"/>
<path d="M136.934 198.312L132.291 183.802L135.272 182.86L139.897 197.352L136.934 198.312Z" fill="white"/>
<path d="M129.739 200.333L127.409 185.292L124.326 185.755L126.039 196.787L120.455 186.355L116.224 187.005L118.536 202.046L121.62 201.566L119.889 190.329L125.577 200.967L129.739 200.333Z" fill="white"/>
<path d="M149.08 193.738L138.973 181.747L141.953 180.308L146.835 186.766C147.623 187.828 148.24 188.65 148.668 189.25C149.097 189.849 149.456 190.397 149.765 190.963C149.456 190.072 149.165 189.25 148.925 188.41C148.686 187.571 148.48 186.834 148.309 186.115L146.476 178.183L149.388 176.762L152.437 192.179L149.08 193.738Z" fill="white"/>
<path d="M161.002 187.228L152.163 174.809L158.861 170.047L160.232 171.965L156.155 174.809L158.262 177.79L162.013 175.117L163.366 177.019L159.615 179.691L162.184 183.288L166.416 180.291L167.837 182.278L161.002 187.228Z" fill="white"/>
<path d="M165.969 166.741L166.569 166.141C166.96 165.649 167.512 165.309 168.127 165.182C168.412 165.208 168.689 165.293 168.94 165.432C169.19 165.57 169.409 165.759 169.583 165.987C169.824 166.172 170.024 166.404 170.171 166.669C170.318 166.934 170.41 167.227 170.44 167.529C170.352 168.161 170.028 168.737 169.532 169.139L168.967 169.704L165.969 166.741ZM162.063 167.34L172.89 178.046L175.116 175.802L170.68 171.383L171.622 170.441C171.777 170.254 171.971 170.102 172.189 169.996C172.408 169.89 172.647 169.831 172.89 169.824C173.446 169.943 173.951 170.237 174.328 170.663L175.185 171.486C175.881 172.22 176.657 172.875 177.498 173.438L179.827 171.109C179.413 170.891 179.018 170.638 178.645 170.355C178.18 169.984 177.734 169.589 177.309 169.173C177.216 169.083 177.13 168.985 177.052 168.882L176.778 168.608C176.19 167.904 175.42 167.377 174.551 167.083C173.833 167.042 173.125 167.268 172.564 167.717C172.761 167.423 172.896 167.093 172.96 166.745C173.025 166.398 173.019 166.04 172.941 165.696C172.633 164.844 172.114 164.084 171.433 163.486C171.089 163.049 170.652 162.694 170.155 162.445C169.658 162.197 169.112 162.061 168.556 162.047C167.264 162.364 166.114 163.098 165.284 164.137L162.063 167.34Z" fill="white"/>
<path d="M179.913 163.606L181.763 160.934L182.089 161.156C182.544 161.531 183.11 161.747 183.699 161.773C183.944 161.743 184.178 161.654 184.38 161.514C184.583 161.374 184.749 161.186 184.864 160.968C184.994 160.8 185.087 160.606 185.138 160.4C185.188 160.193 185.194 159.978 185.155 159.769C185.045 159.333 184.768 158.957 184.384 158.724C183.785 158.313 182.671 158.398 181.249 159.015L181.044 159.101C180.256 159.426 179.622 159.683 179.142 159.854C178.77 160.005 178.386 160.126 177.995 160.214C177.393 160.38 176.764 160.426 176.145 160.351C175.588 160.224 175.064 159.985 174.603 159.649C174.128 159.34 173.728 158.929 173.432 158.446C173.136 157.963 172.95 157.42 172.89 156.857C172.806 155.583 173.189 154.322 173.969 153.311C174.593 152.242 175.596 151.448 176.778 151.084C177.343 150.98 177.923 151 178.479 151.142C179.035 151.284 179.553 151.545 179.999 151.906L180.324 152.129L178.611 154.715C178.175 154.355 177.634 154.145 177.07 154.116C176.846 154.121 176.628 154.184 176.436 154.298C176.244 154.412 176.085 154.573 175.973 154.767C175.848 154.928 175.757 155.113 175.707 155.31C175.657 155.508 175.649 155.713 175.682 155.915C175.724 156.122 175.808 156.318 175.929 156.492C176.05 156.666 176.205 156.813 176.384 156.925C177.07 157.388 178.337 157.182 180.204 156.343C180.684 156.12 181.061 155.949 181.335 155.846C182.172 155.445 183.08 155.212 184.007 155.161C184.746 155.193 185.459 155.437 186.063 155.863C186.598 156.179 187.056 156.61 187.403 157.126C187.75 157.642 187.977 158.229 188.067 158.844C188.123 160.221 187.679 161.572 186.817 162.647C186.189 163.75 185.157 164.567 183.939 164.925C183.332 165.013 182.714 164.974 182.124 164.808C181.534 164.643 180.985 164.356 180.513 163.966L180.307 163.794L179.913 163.606Z" fill="white"/>
<path d="M192.419 152.54L178.8 145.688L180.188 142.913L193.806 149.765L192.419 152.54Z" fill="white"/>
<path d="M197.404 141.182L185.413 137.071L184.299 140.343L181.935 139.538L185.241 129.859L187.605 130.664L186.458 133.971L198.534 138.099L197.404 141.182Z" fill="white"/>
<path d="M201.515 125.577L195.862 124.721L185.875 127.222L186.406 123.796L193.001 122.562L187.091 119.136L187.588 115.83L196.341 121.517L202.011 122.374L201.515 125.577Z" fill="white"/>
<path d="M33.0577 91.9679C33.0577 92.8386 32.7995 93.6897 32.3158 94.4137C31.832 95.1377 31.1444 95.702 30.34 96.0352C29.5356 96.3684 28.6504 96.4556 27.7964 96.2857C26.9424 96.1158 26.1579 95.6966 25.5423 95.0809C24.9266 94.4652 24.5073 93.6807 24.3374 92.8267C24.1675 91.9728 24.2547 91.0875 24.5879 90.2831C24.9211 89.4787 25.4854 88.7911 26.2094 88.3073C26.9334 87.8236 27.7845 87.5654 28.6552 87.5654C29.8228 87.5654 30.9426 88.0292 31.7682 88.8548C32.5939 89.6805 33.0577 90.8003 33.0577 91.9679V91.9679Z" fill="white"/>
<path d="M197.42 92.0021C197.42 92.8728 197.162 93.724 196.678 94.4479C196.194 95.1719 195.507 95.7362 194.702 96.0694C193.898 96.4026 193.013 96.4898 192.159 96.3199C191.305 96.15 190.52 95.7307 189.904 95.1151C189.289 94.4994 188.869 93.7149 188.7 92.8609C188.53 92.0069 188.617 91.1218 188.95 90.3173C189.283 89.5129 189.848 88.8253 190.572 88.3416C191.296 87.8578 192.147 87.5996 193.017 87.5996C194.184 87.6041 195.301 88.0694 196.125 88.894C196.95 89.7187 197.415 90.8359 197.42 92.0021V92.0021Z" fill="white"/>
<path d="M116.292 23.807H114.921V19.0791H112.215V30.6591H105.517V21.2204H110.81V19.0791H102.605V31.2586C102.567 31.7029 102.689 32.1459 102.947 32.5091C103.26 32.7204 103.633 32.8228 104.009 32.8003H112.215V36.6546H113.688C114.018 36.6457 114.332 36.5082 114.562 36.2714C114.792 36.0347 114.921 35.7173 114.921 35.387V25.9997H116.292V36.6546H117.799C117.966 36.6546 118.13 36.6218 118.284 36.5581C118.438 36.4944 118.578 36.4011 118.695 36.2834C118.813 36.1656 118.907 36.0259 118.97 35.8721C119.034 35.7183 119.067 35.5534 119.067 35.387V19.0791H116.292V23.807Z" fill="white"/>
<path d="M43.6603 54.7265L42.838 55.8229L39.0523 52.945L37.4249 55.1034L51.4202 65.7412L52.311 64.5763C52.4976 64.3129 52.575 63.9874 52.5271 63.6681C52.4793 63.3488 52.3097 63.0605 52.054 62.8633L44.5682 57.1761L45.4075 56.0798L53.887 62.5378L54.812 61.3388C55.0005 61.0774 55.0807 60.7533 55.036 60.4341C54.9913 60.115 54.8252 59.8254 54.5722 59.6258L41.5875 49.7588L39.8745 51.9686L43.6603 54.7265Z" fill="white"/>
<path d="M38.5392 61.5106L35.6099 65.3649L31.8242 62.487L30.1111 64.6283L39.2244 71.566C39.4837 71.7564 39.8065 71.8394 40.1255 71.798C40.4445 71.7565 40.7353 71.5937 40.9374 71.3433L45.6653 65.1422C45.8438 64.8761 45.9165 64.5528 45.8689 64.2359C45.8214 63.919 45.6571 63.6312 45.4083 63.4292L36.278 56.5771L34.6506 58.7184L38.5392 61.5106ZM43.1643 65.0223L40.2351 68.8766L37.3058 66.6668L40.2351 62.7953L43.1643 65.0223Z" fill="white"/>
<path d="M189.524 63.3433L180.29 51.4722L178.577 52.7912L186.029 62.4012L176.642 69.6815L175.031 67.643L179.639 64.0628L177.961 61.7502L173.353 65.3304L172.102 63.6174L176.693 60.0544L174.98 57.776L170.389 61.3562L168.676 59.1122L166.963 60.4141L176.145 72.251C176.347 72.5024 176.639 72.6647 176.959 72.7032C177.28 72.7416 177.602 72.6531 177.858 72.4566L189.524 63.3433Z" fill="white"/>
<path d="M160.831 33.7936L158.347 32.2861L153.208 40.8512L142.57 34.4445L141.457 36.2775L152.095 42.6841L149.32 47.2921L150.896 48.2343C151.174 48.351 151.485 48.3633 151.771 48.2689C152.058 48.1744 152.3 47.9797 152.455 47.7204V47.7204L158.364 37.9391L160.369 39.1382L161.482 37.3053L159.461 36.1062L160.831 33.7936Z" fill="white"/>
<path d="M146.665 36.0548C147.672 36.7721 148.921 37.0646 150.142 36.8691C151.363 36.6736 152.459 36.0058 153.192 35.0099C153.643 34.2529 153.818 33.3633 153.688 32.4918L155.144 33.3825L156.189 31.6695L152.489 29.4426L153.329 28.0722L150.673 26.4619L149.851 27.8495L146.168 25.6226L145.123 27.3356L146.545 28.2092C145.715 28.4966 145.011 29.0665 144.558 29.8194C144.021 30.9274 143.941 32.2019 144.335 33.3683C144.73 34.5346 145.566 35.4995 146.665 36.0548ZM150.177 30.2648C150.733 30.601 151.133 31.1445 151.289 31.7758C151.445 32.407 151.344 33.0743 151.007 33.6309C150.671 34.1874 150.128 34.5876 149.496 34.7434C148.865 34.8992 148.198 34.7979 147.641 34.4617C147.085 34.1255 146.685 33.582 146.529 32.9507C146.373 32.3195 146.474 31.6522 146.811 31.0956C147.147 30.5391 147.69 30.1389 148.322 29.9831C148.953 29.8273 149.62 29.9286 150.177 30.2648V30.2648Z" fill="white"/>
<path d="M77.5609 30.4192L76.3275 31.0359L74.1691 26.8219L71.7538 28.0724L79.8049 43.6951L81.1068 43.027C81.2544 42.9497 81.385 42.8437 81.491 42.7151C81.5971 42.5866 81.6764 42.4382 81.7242 42.2786C81.7721 42.119 81.7876 41.9515 81.7698 41.7859C81.7521 41.6202 81.7013 41.4598 81.6207 41.314L77.321 32.9545L78.5544 32.3207L83.4194 41.8107L84.7727 41.1256C84.9249 41.0531 85.0606 40.9503 85.1715 40.8234C85.2824 40.6965 85.3661 40.5482 85.4175 40.3877C85.4689 40.2272 85.4868 40.0578 85.4702 39.8901C85.4535 39.7224 85.4027 39.5598 85.3208 39.4125L77.8692 24.9033L75.4025 26.171L77.5609 30.4192Z" fill="white"/>
<path d="M68.3283 32.3034L71.5316 30.676L70.5038 28.689L61.5961 33.2798L62.6068 35.2498L65.793 33.6224C68.9963 40.0633 66.9579 42.0162 65.9814 43.0954L67.0435 45.2024C68.0164 44.5489 68.8207 43.6743 69.3903 42.65C70.0046 41.6163 70.3024 40.4252 70.2468 39.224C71.2069 39.973 72.3587 40.4361 73.5701 40.5601C74.7298 40.6783 75.9012 40.5318 76.9961 40.1319L75.9169 38.042C74.4951 38.1619 71.7543 38.6758 68.3283 32.3034Z" fill="white"/>
<path d="M134.28 68.4307C126.071 68.4411 118.005 66.2843 110.897 62.1782C103.788 66.2745 95.7276 68.4307 87.523 68.4307C79.3184 68.4307 71.2578 66.2745 64.1489 62.1782V103.736C64.1408 118.774 68.2138 133.533 75.9337 146.439C83.6536 159.344 94.731 169.913 107.985 177.019C108.944 177.532 109.921 178.029 110.897 178.509C111.891 178.029 112.867 177.532 113.826 177.019C127.078 169.91 138.153 159.341 145.873 146.436C153.592 133.531 157.667 118.774 157.662 103.736V62.1782C150.556 66.288 142.489 68.4451 134.28 68.4307V68.4307ZM69.0139 103.822H95.4114V114.1L74.7696 134.656C70.9643 125.419 69.0087 115.525 69.0139 105.535V103.822ZM110.897 173.764C103.712 170.105 97.1457 165.342 91.4372 159.649L111.017 140.069L130.46 159.546C124.73 165.288 118.127 170.086 110.897 173.764V173.764ZM147.127 134.604L126.571 114.048V103.77H152.78V105.483C152.817 115.466 150.896 125.36 147.127 134.604Z" fill="white"/>
<path d="M126.451 85.0644C126.451 88.1407 125.539 91.148 123.83 93.7058C122.121 96.2637 119.691 98.2573 116.849 99.4346C114.007 100.612 110.88 100.92 107.863 100.32C104.845 99.7195 102.074 98.2381 99.8986 96.0628C97.7233 93.8876 96.2419 91.1161 95.6417 88.0989C95.0416 85.0817 95.3496 81.9542 96.5268 79.1121C97.7041 76.2699 99.6977 73.8407 102.256 72.1316C104.813 70.4225 107.821 69.5103 110.897 69.5103C112.94 69.508 114.964 69.9088 116.852 70.6897C118.74 71.4706 120.456 72.6161 121.9 74.0609C123.345 75.5057 124.491 77.2213 125.272 79.1094C126.053 80.9976 126.453 83.0212 126.451 85.0644V85.0644Z" fill="#E5E5E5"/>
<path d="M124.858 85.0639C124.858 81.4102 123.421 77.9031 120.857 75.3003C118.292 72.6976 114.807 71.2083 111.154 71.1543H111.017C107.402 71.2223 103.955 72.6936 101.405 75.2569C98.8552 77.8203 97.4022 81.2749 97.3532 84.8901C97.3043 88.5054 98.6632 91.998 101.143 94.6294C103.622 97.2609 107.028 98.8249 110.64 98.9907H111.034C114.711 98.9681 118.23 97.4903 120.82 94.8805C123.411 92.2707 124.862 88.7412 124.858 85.0639V85.0639ZM98.7344 85.0639C98.7357 81.9709 99.9106 78.9936 102.022 76.733C104.133 74.4724 107.023 73.097 110.109 72.8845V82.6657H111.822V72.9187C113.168 73.1384 114.395 73.8222 115.29 74.8515C116.184 75.8809 116.691 77.1909 116.721 78.5545C116.69 80.0588 116.072 81.4915 115.001 82.5473C113.929 83.6032 112.487 84.1988 110.982 84.2074C109.657 84.2051 108.356 84.5595 107.215 85.2333C106.074 85.9072 105.135 86.8757 104.497 88.0374C103.86 89.199 103.546 90.5108 103.59 91.8353C103.634 93.1597 104.034 94.4479 104.747 95.5647C102.913 94.4917 101.39 92.9587 100.33 91.1171C99.269 89.2755 98.7074 87.1891 98.7001 85.0639H98.7344ZM111.77 97.2435V87.4451H110.057V97.1921C108.584 97.0477 107.225 96.3327 106.272 95.1997C105.318 94.0668 104.846 92.6058 104.956 91.1292C105.065 89.6526 105.748 88.2775 106.858 87.2977C107.969 86.318 109.418 85.8114 110.897 85.8862C112.221 85.8959 113.523 85.5476 114.666 84.8781C115.809 84.2085 116.749 83.2426 117.388 82.0825C118.027 80.9224 118.34 79.6112 118.295 78.2876C118.25 76.964 117.848 75.6772 117.132 74.5632C119.373 75.8908 121.129 77.9006 122.145 80.2985C123.161 82.6965 123.383 85.3567 122.778 87.8897C122.173 90.4228 120.773 92.6956 118.783 94.3756C116.793 96.0557 114.318 97.0546 111.719 97.2263L111.77 97.2435Z" fill="white"/>
</g>
<defs>
<filter id="filter0_d" x="6" y="10" width="209.81" height="209.81" filterUnits="userSpaceOnUse" color-interpolation-filters="sRGB">
<feFlood flood-opacity="0" result="BackgroundImageFix"/>
<feColorMatrix in="SourceAlpha" type="matrix" values="0 0 0 0 0 0 0 0 0 0 0 0 0 0 0 0 0 0 127 0" result="hardAlpha"/>
<feOffset dy="4"/>
<feGaussianBlur stdDeviation="2"/>
<feColorMatrix type="matrix" values="0 0 0 0 0 0 0 0 0 0 0 0 0 0 0 0 0 0 0.25 0"/>
<feBlend mode="normal" in2="BackgroundImageFix" result="effect1_dropShadow"/>
<feBlend mode="normal" in="SourceGraphic" in2="effect1_dropShadow" result="shape"/>
</filter>
<clipPath id="clip0">
<rect width="201.81" height="201.81" fill="white" transform="translate(10 10)"/>
</clipPath>
</defs>
</svg>
