<svg width="184" height="120" viewBox="0 0 184 120" fill="none" xmlns="http://www.w3.org/2000/svg">
<g opacity="0.05" clip-path="url(#clip0)">
<path d="M120.809 32.2667C109.99 32.2805 99.3583 29.4288 89.9895 24C80.6195 29.4159 69.9951 32.2667 59.1808 32.2667C48.3665 32.2667 37.7421 29.4159 28.3721 24V78.9456C28.3614 98.8287 33.7299 118.342 43.9053 135.405C54.0806 152.468 68.6814 166.442 86.1511 175.836C87.4155 176.516 88.7025 177.173 89.9895 177.807C91.299 177.173 92.586 176.516 93.8504 175.836C111.317 166.438 125.915 152.464 136.09 135.401C146.265 118.339 151.635 98.8276 151.629 78.9456V24C142.263 29.4338 131.63 32.2858 120.809 32.2667V32.2667ZM34.7844 79.0588H69.5783V92.648L42.3709 119.826C37.3552 107.614 34.7777 94.5322 34.7844 81.3237V79.0588ZM89.9895 171.533C80.5193 166.696 71.8642 160.399 64.34 152.871L90.1475 126.983L115.774 152.735C108.222 160.326 99.5193 166.671 89.9895 171.533V171.533ZM137.743 119.758L110.649 92.5801V78.9909H145.194V81.2557C145.242 94.455 142.711 107.536 137.743 119.758Z" fill="white"/>
<path d="M110.648 79.0596H145.194V81.3244C145.233 94.5009 142.702 107.558 137.743 119.759L110.648 92.5808V79.0596Z" fill="#20313E"/>
<path d="M69.578 79.0596V92.6487L42.3706 119.827C37.3549 107.614 34.7774 94.5329 34.7842 81.3244V79.0596H69.578Z" fill="#20313E"/>
<path d="M110.491 54.2593C110.491 58.3266 109.289 62.3027 107.036 65.6846C104.783 69.0665 101.582 71.7024 97.8353 73.2589C94.0892 74.8154 89.967 75.2226 85.9901 74.4291C82.0132 73.6356 78.3602 71.677 75.493 68.8009C72.6259 65.9248 70.6733 62.2605 69.8822 58.2713C69.0912 54.2821 69.4971 50.1472 71.0489 46.3894C72.6006 42.6317 75.2283 39.4198 78.5998 37.1601C81.9712 34.9004 85.935 33.6943 89.9898 33.6943C92.6829 33.6914 95.3502 34.2213 97.8389 35.2537C100.328 36.2862 102.589 37.8008 104.493 39.711C106.397 41.6212 107.907 43.8895 108.937 46.3859C109.966 48.8823 110.494 51.5578 110.491 54.2593V54.2593Z" fill="#20313E"/>
<path opacity="0.8" d="M108.39 54.2598C108.391 49.429 106.497 44.792 103.117 41.3508C99.7368 37.9096 95.1428 35.9405 90.3275 35.8691H90.1468C85.3821 35.9591 80.8389 37.9043 77.478 41.2935C74.1171 44.6826 72.2019 49.2501 72.1374 54.03C72.0729 58.8099 73.8641 63.4277 77.1323 66.9069C80.4005 70.386 84.8895 72.4539 89.6501 72.6732H90.1694C95.0162 72.6432 99.654 70.6893 103.069 67.2388C106.483 63.7882 108.397 59.1217 108.39 54.2598V54.2598ZM73.9579 54.2598C73.9597 50.1703 75.5082 46.2338 78.2908 43.245C81.0735 40.2562 84.8829 38.4377 88.9502 38.1567V51.089H91.2081V38.2019C92.9823 38.4924 94.5994 39.3965 95.7789 40.7575C96.9583 42.1184 97.6258 43.8505 97.6656 45.6534C97.6244 47.6422 96.8108 49.5364 95.398 50.9325C93.9852 52.3285 92.0848 53.116 90.1017 53.1274C88.355 53.1243 86.6397 53.5928 85.1357 54.4838C83.6318 55.3747 82.3946 56.6553 81.554 58.1911C80.7134 59.727 80.3003 61.4614 80.3582 63.2126C80.4161 64.9637 80.9428 66.6669 81.883 68.1434C79.4652 66.7248 77.4582 64.6979 76.0604 62.263C74.6626 59.8281 73.9223 57.0695 73.9127 54.2598H73.9579ZM91.1403 70.363V57.408H88.8824V70.2951C86.9401 70.1042 85.1493 69.1588 83.8927 67.6609C82.6361 66.1629 82.0136 64.2314 82.1581 62.279C82.3026 60.3267 83.2026 58.5086 84.6659 57.2132C86.1292 55.9179 88.0397 55.248 89.9888 55.347C91.7344 55.3598 93.451 54.8993 94.9571 54.014C96.4632 53.1288 97.7028 51.8517 98.5448 50.3179C99.3868 48.784 99.8 47.0505 99.7406 45.3005C99.6813 43.5504 99.1515 41.8491 98.2075 40.3763C101.161 42.1315 103.476 44.7887 104.815 47.9592C106.154 51.1297 106.446 54.6469 105.649 57.9959C104.851 61.345 103.006 64.35 100.383 66.5713C97.7605 68.7925 94.4977 70.1133 91.0726 70.3404L91.1403 70.363Z" fill="white"/>
</g>
<defs>
<clipPath id="clip0">
<rect width="184" height="120" fill="white"/>
</clipPath>
</defs>
</svg>
