<svg width="20" height="20" viewBox="0 0 20 20" fill="none" xmlns="http://www.w3.org/2000/svg">
<path d="M11.8745 16.2494V12.4993C11.8745 12.3335 11.8087 12.1746 11.6915 12.0574C11.5743 11.9401 11.4153 11.8743 11.2495 11.8743H8.74954C8.58378 11.8743 8.42481 11.9401 8.3076 12.0574C8.19039 12.1746 8.12454 12.3335 8.12454 12.4993V16.2494C8.12454 16.4151 8.0587 16.5741 7.94151 16.6913C7.82432 16.8085 7.66537 16.8744 7.49962 16.8744L3.75008 16.8749C3.668 16.8749 3.58671 16.8587 3.51088 16.8273C3.43504 16.7959 3.36613 16.7499 3.30809 16.6918C3.25004 16.6338 3.204 16.5649 3.17258 16.4891C3.14117 16.4132 3.125 16.3319 3.125 16.2499V9.0264C3.125 8.93932 3.14319 8.85321 3.17842 8.77358C3.21364 8.69394 3.26511 8.62255 3.32954 8.56397L9.57911 2.88157C9.69415 2.77696 9.84406 2.719 9.99955 2.71899C10.155 2.71899 10.3049 2.77694 10.42 2.88154L16.6704 8.56397C16.7349 8.62255 16.7863 8.69395 16.8216 8.77358C16.8568 8.85322 16.875 8.93934 16.875 9.02642V16.2499C16.875 16.332 16.8588 16.4132 16.8274 16.4891C16.796 16.5649 16.75 16.6338 16.6919 16.6918C16.6339 16.7499 16.565 16.7959 16.4891 16.8273C16.4133 16.8587 16.332 16.8749 16.2499 16.8749L12.4995 16.8744C12.3337 16.8744 12.1748 16.8085 12.0576 16.6913C11.9404 16.5741 11.8745 16.4151 11.8745 16.2494V16.2494Z" fill="#C8C8C8"/>
</svg>
