<svg width="60" height="60" viewBox="0 0 60 60" fill="none" xmlns="http://www.w3.org/2000/svg">
<circle cx="30" cy="30" r="30" fill="white"/>
<path d="M16.9578 28.9375H15.125V15.125H37.6323V18.4099C37.6323 18.9943 38.1104 19.4724 38.6948 19.4724C39.2792 19.4724 39.7573 18.9943 39.7573 18.4099V14.6469C39.7573 13.7349 39.0135 13 38.1104 13H14.6469C13.7437 13 13 13.7437 13 14.6469V29.4068C13 30.3187 13.7437 31.0536 14.6469 31.0536H16.9578C17.5422 31.0536 18.0203 30.5755 18.0203 29.9911C18.0203 29.4068 17.5422 28.9375 16.9578 28.9375Z" fill="#444E60"/>
<path d="M45.353 21.6948H21.8894C20.9774 21.6948 20.2426 22.4386 20.2426 23.3417V39.5537C20.2426 40.4657 20.9863 41.2094 21.8894 41.2094H32.541L40.0051 46.7433C40.2795 46.9203 40.5894 47 40.8993 47C41.1827 47 41.4571 46.9292 41.7228 46.7875C42.2894 46.4776 42.6436 45.8667 42.6436 45.2026V41.2094H45.3353C46.2472 41.2094 46.9821 40.4657 46.9821 39.5537V23.3417C46.9998 22.4297 46.2561 21.6948 45.353 21.6948ZM44.8748 39.0844H41.5899C41.0056 39.0844 40.5274 39.5625 40.5274 40.1469V44.4854L33.5327 39.2969C33.3467 39.1641 33.1254 39.0844 32.904 39.0844H22.3676V23.8198H44.8748V39.0844Z" fill="#444E60"/>
<path d="M32.0364 35.162C32.2401 35.3745 32.5146 35.4896 32.7979 35.4896C32.8245 35.4896 32.851 35.4896 32.8687 35.4896C33.1875 35.463 33.4708 35.3036 33.6568 35.0557L37.4995 29.7432C37.8448 29.2651 37.7385 28.601 37.2604 28.2557C36.7823 27.9104 36.1182 28.0167 35.7729 28.4948L32.6828 32.7802L31.2042 31.2484C30.7969 30.8234 30.1239 30.8146 29.6989 31.2219C29.2739 31.6292 29.2651 32.3021 29.6724 32.7271L32.0364 35.162Z" fill="#3667C5"/>
</svg>
