<svg width="36" height="35" viewBox="0 0 36 35" fill="none" xmlns="http://www.w3.org/2000/svg">
<path d="M17.931 9.24988C20.1795 9.24988 20.46 9.25863 21.3422 9.30238C22.2236 9.34613 22.8236 9.49225 23.3515 9.70925C23.8977 9.9315 24.3579 10.2325 24.818 10.7181C25.2388 11.1555 25.5644 11.6846 25.7722 12.2686C25.9766 12.826 26.1156 13.4613 26.157 14.3931C26.1959 15.3259 26.2067 15.6225 26.2067 17.9999C26.2067 20.3773 26.1984 20.6739 26.157 21.6066C26.1156 22.5385 25.9766 23.1729 25.7722 23.7311C25.565 24.3154 25.2393 24.8447 24.818 25.2816C24.4042 25.7264 23.9038 26.0707 23.3515 26.2905C22.8244 26.5066 22.2236 26.6536 21.3422 26.6974C20.46 26.7385 20.1795 26.7499 17.931 26.7499C15.6825 26.7499 15.4019 26.7411 14.5197 26.6974C13.6384 26.6536 13.0384 26.5066 12.5104 26.2905C11.9578 26.0713 11.4573 25.727 11.0439 25.2816C10.623 24.8443 10.2974 24.3152 10.0897 23.7311C9.88451 23.1738 9.74631 22.5385 9.70493 21.6066C9.66603 20.6739 9.65527 20.3773 9.65527 17.9999C9.65527 15.6225 9.66355 15.3259 9.70493 14.3931C9.74631 13.4604 9.88451 12.8269 10.0897 12.2686C10.2968 11.6843 10.6225 11.155 11.0439 10.7181C11.4574 10.273 11.9579 9.92864 12.5104 9.70925C13.0384 9.49225 13.6375 9.34613 14.5197 9.30238C15.4019 9.26125 15.6825 9.24988 17.931 9.24988ZM17.931 13.6249C16.8335 13.6249 15.7811 14.0858 15.0051 14.9063C14.2291 15.7268 13.7931 16.8396 13.7931 17.9999C13.7931 19.1602 14.2291 20.273 15.0051 21.0935C15.7811 21.9139 16.8335 22.3749 17.931 22.3749C19.0284 22.3749 20.0809 21.9139 20.8569 21.0935C21.6329 20.273 22.0688 19.1602 22.0688 17.9999C22.0688 16.8396 21.6329 15.7268 20.8569 14.9063C20.0809 14.0858 19.0284 13.6249 17.931 13.6249ZM23.3102 13.4061C23.3102 13.116 23.2012 12.8378 23.0072 12.6327C22.8132 12.4276 22.5501 12.3124 22.2757 12.3124C22.0013 12.3124 21.7382 12.4276 21.5442 12.6327C21.3502 12.8378 21.2412 13.116 21.2412 13.4061C21.2412 13.6962 21.3502 13.9744 21.5442 14.1795C21.7382 14.3846 22.0013 14.4999 22.2757 14.4999C22.5501 14.4999 22.8132 14.3846 23.0072 14.1795C23.2012 13.9744 23.3102 13.6962 23.3102 13.4061ZM17.931 15.3749C18.5894 15.3749 19.2209 15.6514 19.6865 16.1437C20.1521 16.636 20.4137 17.3037 20.4137 17.9999C20.4137 18.6961 20.1521 19.3638 19.6865 19.856C19.2209 20.3483 18.5894 20.6249 17.931 20.6249C17.2725 20.6249 16.641 20.3483 16.1754 19.856C15.7098 19.3638 15.4483 18.6961 15.4483 17.9999C15.4483 17.3037 15.7098 16.636 16.1754 16.1437C16.641 15.6514 17.2725 15.3749 17.931 15.3749Z" fill="white"/>
</svg>
