<svg width="35" height="35" viewBox="0 0 35 35" fill="none" xmlns="http://www.w3.org/2000/svg">
<path d="M16.931 9.24988C19.1795 9.24988 19.46 9.25863 20.3422 9.30238C21.2236 9.34613 21.8236 9.49225 22.3515 9.70925C22.8977 9.9315 23.3579 10.2325 23.818 10.7181C24.2388 11.1555 24.5644 11.6846 24.7722 12.2686C24.9766 12.826 25.1156 13.4613 25.157 14.3931C25.1959 15.3259 25.2067 15.6225 25.2067 17.9999C25.2067 20.3773 25.1984 20.6739 25.157 21.6066C25.1156 22.5385 24.9766 23.1729 24.7722 23.7311C24.565 24.3154 24.2393 24.8447 23.818 25.2816C23.4042 25.7264 22.9038 26.0707 22.3515 26.2905C21.8244 26.5066 21.2236 26.6536 20.3422 26.6974C19.46 26.7385 19.1795 26.7499 16.931 26.7499C14.6825 26.7499 14.4019 26.7411 13.5197 26.6974C12.6384 26.6536 12.0384 26.5066 11.5104 26.2905C10.9578 26.0713 10.4573 25.727 10.0439 25.2816C9.62304 24.8443 9.29741 24.3152 9.08975 23.7311C8.88451 23.1738 8.74631 22.5385 8.70493 21.6066C8.66603 20.6739 8.65527 20.3773 8.65527 17.9999C8.65527 15.6225 8.66355 15.3259 8.70493 14.3931C8.74631 13.4604 8.88451 12.8269 9.08975 12.2686C9.29684 11.6843 9.62254 11.155 10.0439 10.7181C10.4574 10.273 10.9579 9.92864 11.5104 9.70925C12.0384 9.49225 12.6375 9.34613 13.5197 9.30238C14.4019 9.26125 14.6825 9.24988 16.931 9.24988ZM16.931 13.6249C15.8335 13.6249 14.7811 14.0858 14.0051 14.9063C13.2291 15.7268 12.7931 16.8396 12.7931 17.9999C12.7931 19.1602 13.2291 20.273 14.0051 21.0935C14.7811 21.9139 15.8335 22.3749 16.931 22.3749C18.0284 22.3749 19.0809 21.9139 19.8569 21.0935C20.6329 20.273 21.0688 19.1602 21.0688 17.9999C21.0688 16.8396 20.6329 15.7268 19.8569 14.9063C19.0809 14.0858 18.0284 13.6249 16.931 13.6249V13.6249ZM22.3102 13.4061C22.3102 13.116 22.2012 12.8378 22.0072 12.6327C21.8132 12.4276 21.5501 12.3124 21.2757 12.3124C21.0013 12.3124 20.7382 12.4276 20.5442 12.6327C20.3502 12.8378 20.2412 13.116 20.2412 13.4061C20.2412 13.6962 20.3502 13.9744 20.5442 14.1795C20.7382 14.3846 21.0013 14.4999 21.2757 14.4999C21.5501 14.4999 21.8132 14.3846 22.0072 14.1795C22.2012 13.9744 22.3102 13.6962 22.3102 13.4061ZM16.931 15.3749C17.5894 15.3749 18.2209 15.6514 18.6865 16.1437C19.1521 16.636 19.4137 17.3037 19.4137 17.9999C19.4137 18.6961 19.1521 19.3638 18.6865 19.856C18.2209 20.3483 17.5894 20.6249 16.931 20.6249C16.2725 20.6249 15.641 20.3483 15.1754 19.856C14.7098 19.3638 14.4483 18.6961 14.4483 17.9999C14.4483 17.3037 14.7098 16.636 15.1754 16.1437C15.641 15.6514 16.2725 15.3749 16.931 15.3749V15.3749Z" fill="#6247AA"/>
</svg>
