<svg width="100" height="100" viewBox="0 0 100 100" fill="none" xmlns="http://www.w3.org/2000/svg">
<path d="M61.25 43.3333V46.8333C60.5167 46.7333 59.6833 46.6833 58.75 46.6666V43.3333C58.75 38.0833 57.2667 34.5833 50 34.5833C42.7333 34.5833 41.25 38.0833 41.25 43.3333V46.6666C40.3167 46.6833 39.4833 46.7333 38.75 46.8333V43.3333C38.75 38.5 39.9167 32.0833 50 32.0833C60.0833 32.0833 61.25 38.5 61.25 43.3333Z" fill="#222222"/>
<path opacity="0.5" d="M66.6666 55V58.3334C66.6666 65 64.9999 66.6667 58.3333 66.6667H41.6666C34.9999 66.6667 33.3333 65 33.3333 58.3334V55C33.3333 49.4334 34.4999 47.35 38.7499 46.8334C39.4833 46.7334 40.3166 46.6834 41.2499 46.6667H58.7499C59.6833 46.6834 60.5166 46.7334 61.2499 46.8334C65.4999 47.35 66.6666 49.4334 66.6666 55Z" fill="#0F3192"/>
<path d="M43.3334 58.3334C43.1167 58.3334 42.9001 58.2834 42.7001 58.2001C42.4834 58.1168 42.3168 58.0001 42.1501 57.8501C41.8501 57.5334 41.6667 57.1001 41.6667 56.6668C41.6667 56.4501 41.7167 56.2334 41.8001 56.0334C41.8834 55.8334 42.0001 55.6501 42.1501 55.4834C42.3168 55.3334 42.4834 55.2168 42.7001 55.1334C43.3167 54.8668 44.0501 55.0168 44.5167 55.4834C44.6667 55.6501 44.7834 55.8334 44.8668 56.0334C44.9501 56.2334 45.0001 56.4501 45.0001 56.6668C45.0001 57.1001 44.8167 57.5334 44.5167 57.8501C44.2001 58.1501 43.7667 58.3334 43.3334 58.3334Z" fill="#222222"/>
<path d="M49.9999 58.3333C49.5499 58.3333 49.1333 58.15 48.8166 57.85C48.6666 57.6833 48.5499 57.5 48.4666 57.3C48.3832 57.1 48.3333 56.8833 48.3333 56.6667C48.3333 56.2167 48.5166 55.8 48.8166 55.4833C49.4333 54.8666 50.5499 54.8666 51.1832 55.4833C51.4832 55.8 51.6666 56.2167 51.6666 56.6667C51.6666 56.8833 51.6166 57.1 51.5333 57.3C51.4499 57.5 51.3332 57.6833 51.1832 57.85C50.8666 58.15 50.4333 58.3333 49.9999 58.3333Z" fill="#222222"/>
<path d="M56.6667 58.3333C56.2333 58.3333 55.8 58.15 55.4833 57.85C55.1833 57.5333 55 57.1167 55 56.6667C55 56.2167 55.1833 55.8 55.4833 55.4833C56.1167 54.8666 57.2333 54.8666 57.85 55.4833C57.9167 55.5666 57.9833 55.65 58.05 55.75C58.1166 55.8333 58.1667 55.9333 58.2 56.0333C58.25 56.1333 58.2834 56.2333 58.3 56.3333C58.3167 56.45 58.3333 56.5667 58.3333 56.6667C58.3333 57.1 58.15 57.5333 57.85 57.85C57.5333 58.15 57.1 58.3333 56.6667 58.3333Z" fill="#222222"/>
</svg>
