<svg width="307" height="396" viewBox="0 0 307 396" fill="none" xmlns="http://www.w3.org/2000/svg">
<g clip-path="url(#clip0_872_28266)">
<g clip-path="url(#clip1_872_28266)">
<rect x="-24" y="-30" width="358" height="455" fill="#F3F3F3"/>
<g opacity="0.2">
<path d="M156.143 203.198C156.143 203.568 156.116 203.98 156.063 204.433C156.011 204.884 155.931 205.364 155.826 205.869L157.224 206.044C157.272 205.83 157.317 205.597 157.361 205.344C157.405 205.091 157.44 204.828 157.469 204.556C157.498 204.284 157.52 204.013 157.535 203.746C157.549 203.478 157.556 203.228 157.556 202.994V201.375H151.026V202.616H156.143V203.198H156.143Z" fill="black"/>
<path d="M159.596 209.933C159.236 209.724 158.8 209.559 158.291 209.437C157.782 209.316 157.21 209.256 156.576 209.256C155.941 209.256 155.367 209.316 154.854 209.437C154.34 209.559 153.901 209.724 153.542 209.933C153.182 210.143 152.905 210.396 152.712 210.693C152.52 210.989 152.424 211.313 152.424 211.662V212.129C152.424 212.479 152.52 212.803 152.712 213.1C152.905 213.397 153.181 213.65 153.542 213.859C153.901 214.068 154.34 214.234 154.854 214.356C155.367 214.476 155.941 214.538 156.576 214.538C157.21 214.538 157.782 214.476 158.291 214.356C158.801 214.234 159.236 214.068 159.596 213.859C159.955 213.65 160.234 213.397 160.431 213.1C160.629 212.803 160.727 212.479 160.727 212.129V211.662C160.727 211.313 160.629 210.989 160.431 210.693C160.234 210.396 159.956 210.143 159.596 209.933ZM159.329 212.041C159.329 212.188 159.269 212.342 159.15 212.502C159.029 212.663 158.851 212.808 158.617 212.94C158.379 213.071 158.092 213.178 157.751 213.261C157.41 213.344 157.018 213.385 156.577 213.385C156.134 213.385 155.742 213.344 155.401 213.261C155.061 213.178 154.772 213.071 154.537 212.94C154.302 212.808 154.124 212.663 154.003 212.502C153.884 212.342 153.824 212.188 153.824 212.041V211.75C153.824 211.604 153.884 211.451 154.003 211.29C154.123 211.13 154.302 210.984 154.537 210.852C154.772 210.721 155.061 210.614 155.401 210.532C155.742 210.449 156.134 210.407 156.577 210.407C157.018 210.407 157.41 210.449 157.751 210.532C158.092 210.614 158.379 210.721 158.617 210.852C158.851 210.983 159.028 211.13 159.15 211.29C159.269 211.451 159.329 211.604 159.329 211.75V212.041Z" fill="black"/>
<path d="M160.712 200.762H159.3V208.89H160.712V205.533H162.587V204.279H160.712V200.762Z" fill="black"/>
<path d="M158.594 207.11H154.246L154.241 204.337H152.828V207.11H150.132V208.35H158.594V207.11Z" fill="black"/>
<path d="M183.356 203.198C183.356 203.568 183.33 203.98 183.276 204.433C183.224 204.884 183.144 205.364 183.039 205.869L184.438 206.044C184.485 205.83 184.53 205.597 184.574 205.344C184.617 205.091 184.653 204.828 184.682 204.556C184.711 204.284 184.733 204.013 184.748 203.746C184.762 203.478 184.769 203.228 184.769 202.994V201.375H178.239V202.616H183.357V203.198H183.356Z" fill="black"/>
<path d="M186.809 209.933C186.448 209.724 186.013 209.559 185.504 209.437C184.994 209.316 184.423 209.256 183.789 209.256C183.154 209.256 182.58 209.316 182.066 209.437C181.552 209.559 181.113 209.724 180.754 209.933C180.394 210.143 180.117 210.396 179.925 210.693C179.733 210.989 179.637 211.313 179.637 211.662V212.129C179.637 212.479 179.733 212.803 179.925 213.1C180.117 213.397 180.394 213.65 180.754 213.859C181.113 214.068 181.552 214.234 182.066 214.356C182.58 214.476 183.154 214.538 183.789 214.538C184.423 214.538 184.994 214.476 185.504 214.356C186.014 214.234 186.448 214.068 186.809 213.859C187.168 213.65 187.447 213.397 187.644 213.1C187.841 212.803 187.939 212.479 187.939 212.129V211.662C187.939 211.313 187.841 210.989 187.644 210.693C187.446 210.396 187.168 210.143 186.809 209.933ZM186.541 212.041C186.541 212.188 186.481 212.342 186.361 212.502C186.241 212.663 186.063 212.808 185.828 212.94C185.592 213.071 185.304 213.178 184.963 213.261C184.622 213.344 184.229 213.385 183.789 213.385C183.346 213.385 182.954 213.344 182.614 213.261C182.273 213.178 181.984 213.071 181.749 212.94C181.513 212.808 181.335 212.663 181.215 212.502C181.096 212.342 181.036 212.188 181.036 212.041V211.75C181.036 211.604 181.096 211.451 181.215 211.29C181.335 211.13 181.513 210.984 181.749 210.852C181.984 210.721 182.273 210.614 182.614 210.532C182.954 210.449 183.346 210.407 183.789 210.407C184.229 210.407 184.622 210.449 184.963 210.532C185.304 210.614 185.592 210.721 185.828 210.852C186.063 210.983 186.241 211.13 186.361 211.29C186.481 211.451 186.541 211.604 186.541 211.75V212.041Z" fill="black"/>
<path d="M187.925 200.762H186.512V208.89H187.925V205.533H189.799V204.279H187.925V200.762Z" fill="black"/>
<path d="M185.807 207.11H181.459L181.453 204.337H180.041V207.11H177.346V208.35H185.807V207.11Z" fill="black"/>
<path d="M134.229 200.762H132.817V210.525H134.229V206.016H136.117V204.761H134.229V200.762Z" fill="black"/>
<path d="M127.54 210.35H126.114V214.07H134.589V212.816H127.54V210.35Z" fill="black"/>
<path d="M127.713 209.385C128.231 209.385 128.684 209.316 129.069 209.174C129.453 209.034 129.775 208.846 130.034 208.613C130.293 208.379 130.488 208.114 130.617 207.817C130.748 207.521 130.813 207.217 130.813 206.904V206.467C130.813 206.157 130.748 205.851 130.617 205.555C130.488 205.258 130.293 204.993 130.034 204.76C129.775 204.526 129.453 204.338 129.069 204.198C128.684 204.057 128.232 203.986 127.713 203.986C127.194 203.986 126.743 204.057 126.358 204.198C125.974 204.338 125.652 204.523 125.392 204.753C125.132 204.981 124.938 205.244 124.808 205.54C124.678 205.837 124.613 206.146 124.613 206.467V206.904C124.613 207.216 124.678 207.52 124.808 207.817C124.938 208.114 125.132 208.378 125.392 208.612C125.652 208.846 125.974 209.033 126.358 209.173C126.743 209.315 127.194 209.385 127.713 209.385ZM125.969 206.832V206.54C125.969 206.365 126.005 206.193 126.077 206.022C126.148 205.851 126.257 205.701 126.402 205.57C126.545 205.438 126.726 205.333 126.942 205.256C127.158 205.178 127.415 205.139 127.714 205.139C128.012 205.139 128.269 205.178 128.486 205.256C128.701 205.333 128.881 205.438 129.026 205.57C129.17 205.701 129.278 205.851 129.351 206.022C129.422 206.193 129.459 206.365 129.459 206.54V206.832C129.459 207.006 129.422 207.18 129.351 207.35C129.279 207.521 129.17 207.671 129.026 207.803C128.881 207.933 128.699 208.038 128.478 208.116C128.257 208.194 128.002 208.234 127.715 208.234C127.426 208.234 127.171 208.194 126.951 208.116C126.729 208.038 126.546 207.933 126.403 207.803C126.258 207.671 126.15 207.521 126.078 207.35C126.005 207.18 125.969 207.007 125.969 206.832Z" fill="black"/>
<path d="M131.519 202.251H128.419V200.631H127.007V202.251H123.893V203.476H131.519V202.251Z" fill="black"/>
<path d="M147.013 204.519C147.061 203.999 147.085 203.535 147.085 203.126V201.303H138.335V202.528H145.644V203.068C145.644 203.506 145.62 203.981 145.571 204.491C145.524 205.003 145.437 205.53 145.312 206.075H136.735V207.3H142.07V209.635H138.307V210.861H145.803V214.348H147.231V209.635H143.512V207.3H148.931V206.075H146.798C146.893 205.558 146.965 205.04 147.013 204.519Z" fill="black"/>
<path d="M169.361 205.694C169.102 205.451 168.792 205.259 168.431 205.118C168.071 204.977 167.669 204.906 167.228 204.906C166.786 204.906 166.385 204.977 166.024 205.118C165.664 205.26 165.353 205.452 165.094 205.694C164.835 205.938 164.635 206.215 164.496 206.526C164.356 206.837 164.287 207.169 164.287 207.519V208.219C164.287 208.57 164.356 208.9 164.496 209.212C164.635 209.524 164.835 209.8 165.094 210.044C165.353 210.287 165.663 210.479 166.024 210.62C166.385 210.761 166.786 210.831 167.228 210.831C167.669 210.831 168.071 210.761 168.431 210.62C168.792 210.479 169.102 210.287 169.361 210.044C169.62 209.8 169.82 209.524 169.958 209.212C170.099 208.9 170.168 208.57 170.168 208.219V207.519C170.168 207.169 170.099 206.838 169.958 206.526C169.819 206.215 169.62 205.938 169.361 205.694ZM168.885 208.146C168.885 208.321 168.849 208.497 168.777 208.671C168.706 208.846 168.599 209.006 168.46 209.153C168.32 209.298 168.148 209.417 167.941 209.511C167.735 209.603 167.497 209.648 167.228 209.648C166.958 209.648 166.72 209.603 166.515 209.511C166.307 209.417 166.134 209.298 165.996 209.153C165.856 209.006 165.75 208.846 165.678 208.671C165.606 208.497 165.57 208.321 165.57 208.146V207.591C165.57 207.417 165.606 207.241 165.678 207.066C165.75 206.891 165.856 206.731 165.996 206.585C166.135 206.438 166.307 206.32 166.515 206.226C166.72 206.134 166.958 206.088 167.228 206.088C167.497 206.088 167.735 206.134 167.941 206.226C168.148 206.32 168.321 206.438 168.46 206.585C168.599 206.731 168.706 206.891 168.777 207.066C168.849 207.241 168.885 207.417 168.885 207.591V208.146Z" fill="black"/>
<path d="M167.876 201.142H166.478V203.024H163.811V204.235H170.384V203.024H167.876V201.142Z" fill="black"/>
<path d="M174.06 205.754H172.633V200.762H171.235V214.217H172.633V207.008H174.06V214.217H175.458V200.762H174.06V205.754Z" fill="black"/>
<path d="M200.14 210.013H194.676V208.306H193.263V214.216H201.552V208.306H200.14V210.013V210.013ZM200.14 212.991H194.676V211.225H200.14V212.991Z" fill="black"/>
<path d="M200.14 203.682H197.444C197.396 203.37 197.293 203.069 197.134 202.776C196.975 202.484 196.759 202.225 196.486 201.995C196.212 201.768 195.883 201.582 195.498 201.441C195.113 201.3 194.671 201.23 194.172 201.23C193.624 201.23 193.144 201.312 192.731 201.477C192.317 201.644 191.974 201.86 191.7 202.127C191.425 202.395 191.218 202.697 191.08 203.033C190.94 203.368 190.871 203.706 190.871 204.046V204.6C190.871 204.941 190.94 205.279 191.08 205.615C191.219 205.95 191.426 206.252 191.7 206.52C191.974 206.787 192.317 207.004 192.731 207.169C193.144 207.335 193.624 207.417 194.172 207.417C194.671 207.417 195.116 207.348 195.505 207.206C195.894 207.065 196.226 206.876 196.499 206.643C196.773 206.411 196.988 206.143 197.148 205.842C197.306 205.54 197.404 205.233 197.444 204.922H200.139V207.65H201.552V200.762H200.139V203.682H200.14ZM196.104 204.527C196.104 204.732 196.06 204.932 195.973 205.126C195.888 205.321 195.762 205.495 195.599 205.65C195.436 205.807 195.234 205.933 194.994 206.03C194.753 206.127 194.479 206.177 194.172 206.177C193.865 206.177 193.59 206.127 193.349 206.03C193.109 205.933 192.908 205.807 192.744 205.65C192.58 205.495 192.457 205.32 192.37 205.126C192.283 204.932 192.239 204.732 192.239 204.527V204.119C192.239 203.914 192.283 203.715 192.37 203.52C192.457 203.325 192.58 203.152 192.744 203.002C192.908 202.851 193.109 202.727 193.349 202.629C193.59 202.533 193.864 202.483 194.172 202.483C194.478 202.483 194.753 202.533 194.994 202.629C195.234 202.727 195.436 202.851 195.599 203.002C195.762 203.152 195.888 203.325 195.973 203.52C196.06 203.715 196.104 203.914 196.104 204.119V204.527Z" fill="black"/>
<path d="M212.177 209.795C211.802 209.581 211.362 209.417 210.858 209.305C210.354 209.194 209.809 209.138 209.222 209.138C208.636 209.138 208.091 209.194 207.585 209.305C207.081 209.417 206.642 209.581 206.267 209.795C205.892 210.009 205.598 210.266 205.388 210.569C205.176 210.869 205.071 211.215 205.071 211.604V212.129C205.071 212.518 205.176 212.866 205.388 213.173C205.598 213.479 205.892 213.737 206.267 213.946C206.642 214.156 207.081 214.316 207.585 214.427C208.091 214.539 208.636 214.596 209.222 214.596C209.809 214.596 210.354 214.539 210.858 214.427C211.362 214.316 211.802 214.156 212.177 213.946C212.552 213.737 212.845 213.479 213.057 213.173C213.268 212.866 213.374 212.519 213.374 212.129V211.604C213.374 211.215 213.268 210.869 213.057 210.569C212.845 210.266 212.552 210.009 212.177 209.795ZM211.961 212.042C211.961 212.237 211.89 212.416 211.745 212.582C211.601 212.747 211.406 212.891 211.161 213.014C210.916 213.134 210.627 213.231 210.295 213.305C209.964 213.377 209.607 213.414 209.222 213.414C208.838 213.414 208.48 213.377 208.149 213.305C207.817 213.231 207.529 213.134 207.284 213.014C207.038 212.891 206.844 212.747 206.7 212.582C206.555 212.416 206.484 212.237 206.484 212.042V211.692C206.484 211.507 206.555 211.33 206.7 211.16C206.844 210.989 207.038 210.843 207.284 210.721C207.529 210.6 207.817 210.502 208.149 210.43C208.48 210.357 208.838 210.32 209.222 210.32C209.607 210.32 209.964 210.357 210.295 210.43C210.627 210.502 210.916 210.6 211.161 210.721C211.406 210.843 211.601 210.989 211.745 211.16C211.89 211.33 211.961 211.507 211.961 211.692V212.042Z" fill="black"/>
<path d="M212.061 203.024C212.061 203.422 212.037 203.873 211.989 204.374C211.941 204.875 211.854 205.402 211.73 205.957L213.143 206.117C213.2 205.854 213.253 205.575 213.301 205.278C213.349 204.981 213.387 204.692 213.417 204.41C213.445 204.129 213.467 203.863 213.482 203.615C213.496 203.367 213.504 203.165 213.504 203.01V201.302H204.724V202.528H212.062V203.024H212.061Z" fill="black"/>
<path d="M209.208 204.308H207.766V206.949H203.125V208.175H215.32V206.949H209.208V204.308Z" fill="black"/>
<path d="M226.766 204.264V200.762H225.354V210.364H226.766V205.52H228.655V204.264H226.766Z" fill="black"/>
<path d="M220.078 209.605H218.651V214.07H227.127V212.816H220.078V209.605Z" fill="black"/>
<path d="M224.287 206.935H218.286L218.29 202.878H223.047V201.638H216.892V208.175H224.287V206.935Z" fill="black"/>
<path d="M98.7504 205.739L92.9896 214.596L87.2275 205.739L92.9896 196.887L98.7504 205.739Z" fill="#0082CB"/>
<path d="M98.7503 205.739L104.512 214.596L110.274 205.739L104.512 196.887L98.7503 205.739Z" fill="#0082CB"/>
<path d="M92.9889 196.883L98.7503 205.739L104.513 196.883L98.7503 188.03L92.9889 196.883Z" fill="#0082CB"/>
<path d="M87.2275 205.739L81.4648 214.593H92.9882L87.2275 205.739Z" fill="#0082CB"/>
<path d="M110.274 205.739L104.513 214.593H116.036L110.274 205.739Z" fill="#0082CB"/>
<path d="M98.7504 205.739L92.9896 214.596L87.2276 205.739L92.9896 196.887L98.7504 205.739Z" fill="#00A0D9"/>
<path d="M98.7503 205.739L104.512 214.596L110.274 205.739L104.512 196.887L98.7503 205.739Z" fill="#00A0D9"/>
<path d="M92.989 196.883L98.7504 205.739L104.513 196.883L98.7504 188.03L92.989 196.883Z" fill="#65B9E3"/>
<path d="M87.2274 205.739L81.4647 214.593H92.9882L87.2274 205.739Z" fill="#0082CB"/>
<path d="M110.274 205.739L104.513 214.593H116.036L110.274 205.739Z" fill="#0082CB"/>
<path d="M116.036 188.029L110.274 179.176L104.513 188.029H116.036Z" fill="#65B9E3"/>
<path d="M104.513 188.032L110.275 196.885L116.036 188.032H104.513Z" fill="#00A0D9"/>
</g>
</g>
</g>
<defs>
<clipPath id="clip0_872_28266">
<rect width="307" height="396" fill="white"/>
</clipPath>
<clipPath id="clip1_872_28266">
<rect width="340" height="409" fill="white" transform="translate(-15 -7)"/>
</clipPath>
</defs>
</svg>
