<svg width="26" height="24" viewBox="0 0 26 24" fill="none" xmlns="http://www.w3.org/2000/svg">
<path d="M0.5 0.5H19.5V23.5H4C2.067 23.5 0.5 21.933 0.5 20V0.5Z" fill="#F4F5F7" stroke="#E9E9E9"/>
<rect x="3" y="6" width="23" height="13" rx="2" fill="#E2652B"/>
<path d="M6.69581 15H8.12781V13.024H8.82381C10.0798 13.024 11.1758 12.4 11.1758 10.984C11.1758 9.512 10.0958 9.048 8.78381 9.048H6.69581V15ZM8.12781 11.896V10.176H8.71181C9.39981 10.176 9.78381 10.384 9.78381 10.984C9.78381 11.568 9.44781 11.896 8.75181 11.896H8.12781ZM12.188 15H13.62V13.024H14.316C15.572 13.024 16.668 12.4 16.668 10.984C16.668 9.512 15.588 9.048 14.276 9.048H12.188V15ZM13.62 11.896V10.176H14.204C14.892 10.176 15.276 10.384 15.276 10.984C15.276 11.568 14.94 11.896 14.244 11.896H13.62ZM18.715 15H20.147V10.232H21.763V9.048H17.107V10.232H18.715V15Z" fill="white"/>
</svg>
