<svg width="39" height="39" viewBox="0 0 39 39" fill="none" xmlns="http://www.w3.org/2000/svg">
<path fill-rule="evenodd" clip-rule="evenodd" d="M20.1709 23.9124C19.9431 23.6846 19.9431 23.3152 20.1709 23.0874L23.2584 19.9999L20.1709 16.9124C19.9431 16.6846 19.9431 16.3152 20.1709 16.0874C20.3987 15.8596 20.768 15.8596 20.9958 16.0874L24.4958 19.5874C24.6052 19.6968 24.6667 19.8452 24.6667 19.9999C24.6667 20.1546 24.6052 20.303 24.4958 20.4124L20.9958 23.9124C20.768 24.1402 20.3987 24.1402 20.1709 23.9124Z" fill="#7A7D94"/>
<path fill-rule="evenodd" clip-rule="evenodd" d="M16.0875 23.9124C15.8597 23.6846 15.8597 23.3152 16.0875 23.0874L19.175 19.9999L16.0875 16.9124C15.8597 16.6846 15.8597 16.3152 16.0875 16.0874C16.3153 15.8596 16.6847 15.8596 16.9125 16.0874L20.4125 19.5874C20.5219 19.6968 20.5833 19.8452 20.5833 19.9999C20.5833 20.1546 20.5219 20.303 20.4125 20.4124L16.9125 23.9124C16.6847 24.1402 16.3153 24.1402 16.0875 23.9124Z" fill="#7A7D94"/>
</svg>
