<svg width="16" height="16" viewBox="0 0 16 16" fill="none" xmlns="http://www.w3.org/2000/svg">
<path d="M8.07388 10.2594L5.48721 12.8461C5.17403 13.1483 4.75578 13.3172 4.32054 13.3172C3.8853 13.3172 3.46705 13.1483 3.15388 12.8461C3.00028 12.6931 2.8784 12.5113 2.79524 12.3111C2.71208 12.1109 2.66928 11.8962 2.66928 11.6794C2.66928 11.4626 2.71208 11.248 2.79524 11.0478C2.8784 10.8476 3.00028 10.6657 3.15388 10.5127L5.74054 7.92608C5.86608 7.80054 5.9366 7.63028 5.9366 7.45275C5.9366 7.27521 5.86608 7.10495 5.74054 6.97941C5.61501 6.85388 5.44474 6.78335 5.26721 6.78335C5.08967 6.78335 4.91941 6.85388 4.79388 6.97941L2.20721 9.57275C1.68611 10.1399 1.40429 10.8865 1.42059 11.6566C1.43689 12.4266 1.75006 13.1606 2.2947 13.7053C2.83933 14.2499 3.57332 14.5631 4.34337 14.5794C5.11343 14.5957 5.86001 14.3138 6.42721 13.7927L9.02054 11.2061C9.14608 11.0805 9.2166 10.9103 9.2166 10.7327C9.2166 10.5552 9.14608 10.3849 9.02054 10.2594C8.89501 10.1339 8.72474 10.0634 8.54721 10.0634C8.36967 10.0634 8.19941 10.1339 8.07388 10.2594V10.2594ZM13.7939 2.20608C13.2331 1.64875 12.4745 1.33594 11.6839 1.33594C10.8932 1.33594 10.1347 1.64875 9.57387 2.20608L6.98054 4.79275C6.91838 4.8549 6.86908 4.9287 6.83544 5.00991C6.8018 5.09113 6.78448 5.17817 6.78448 5.26608C6.78448 5.35399 6.8018 5.44103 6.83544 5.52224C6.86908 5.60346 6.91838 5.67725 6.98054 5.73941C7.0427 5.80157 7.11649 5.85088 7.19771 5.88452C7.27892 5.91816 7.36597 5.93547 7.45388 5.93547C7.54178 5.93547 7.62883 5.91816 7.71004 5.88452C7.79126 5.85088 7.86505 5.80157 7.92721 5.73941L10.5139 3.15275C10.8271 2.8505 11.2453 2.68158 11.6805 2.68158C12.1158 2.68158 12.534 2.8505 12.8472 3.15275C13.0008 3.30574 13.1227 3.48755 13.2058 3.68776C13.289 3.88796 13.3318 4.10262 13.3318 4.31941C13.3318 4.5362 13.289 4.75086 13.2058 4.95107C13.1227 5.15127 13.0008 5.33309 12.8472 5.48608L10.2605 8.07275C10.1981 8.13472 10.1485 8.20846 10.1146 8.28969C10.0808 8.37093 10.0633 8.45807 10.0633 8.54608C10.0633 8.63409 10.0808 8.72122 10.1146 8.80246C10.1485 8.8837 10.1981 8.95744 10.2605 9.01941C10.3225 9.0819 10.3963 9.13149 10.4775 9.16534C10.5587 9.19919 10.6459 9.21661 10.7339 9.21661C10.8219 9.21661 10.909 9.19919 10.9903 9.16534C11.0715 9.13149 11.1452 9.0819 11.2072 9.01941L13.7939 6.42608C14.3512 5.86527 14.664 5.10673 14.664 4.31608C14.664 3.52543 14.3512 2.76689 13.7939 2.20608V2.20608ZM5.88721 10.1127C5.9495 10.1745 6.02338 10.2234 6.1046 10.2566C6.18583 10.2898 6.2728 10.3066 6.36054 10.3061C6.44828 10.3066 6.53525 10.2898 6.61648 10.2566C6.6977 10.2234 6.77158 10.1745 6.83388 10.1127L10.1139 6.83275C10.2394 6.70721 10.3099 6.53695 10.3099 6.35941C10.3099 6.18188 10.2394 6.01161 10.1139 5.88608C9.98834 5.76054 9.81808 5.69002 9.64054 5.69002C9.46301 5.69002 9.29274 5.76054 9.16721 5.88608L5.88721 9.16608C5.82472 9.22805 5.77513 9.30179 5.74128 9.38303C5.70744 9.46427 5.69001 9.5514 5.69001 9.63941C5.69001 9.72742 5.70744 9.81456 5.74128 9.8958C5.77513 9.97704 5.82472 10.0508 5.88721 10.1127Z" fill="white"/>
</svg>
