<svg width="46" height="46" viewBox="0 0 46 46" fill="none" xmlns="http://www.w3.org/2000/svg">
<path d="M35.4366 31.4361C35.2912 31.2907 35.2912 31.0725 35.4366 30.9271L36.7457 29.618C36.8912 29.4725 36.9639 29.1816 36.8912 28.9634C36.8184 28.7452 36.6002 28.5271 36.3821 28.4543L27.2184 26.418C27.1457 26.418 27.1457 26.418 27.073 26.418C26.8548 26.418 26.7093 26.4907 26.5639 26.6362C26.4184 26.7816 26.3457 27.0725 26.3457 27.2907L28.3821 36.4543C28.4548 36.6725 28.6002 36.8907 28.8912 36.9634C28.9639 36.9634 29.0366 36.9634 29.1093 36.9634C29.2548 36.9634 29.473 36.8907 29.6184 36.7452L30.9275 35.4361C31.0002 35.3634 31.073 35.3634 31.1457 35.3634C31.2184 35.3634 31.2912 35.3634 31.3639 35.4361L34.7093 38.7816C34.8548 38.9271 35.0002 38.9998 35.2184 38.9998C35.4366 38.9998 35.5821 38.9271 35.7275 38.7816L38.7821 35.7271C39.073 35.4362 39.073 34.9998 38.7821 34.7816L35.4366 31.4361ZM37.1093 35.5089L35.5093 37.1089C35.4366 37.1816 35.3639 37.1816 35.2912 37.1816C35.2184 37.1816 35.1457 37.1816 35.073 37.1089L31.7275 33.7634C31.5821 33.618 31.4366 33.5452 31.2184 33.5452C31.0002 33.5452 30.8548 33.618 30.7093 33.7634L29.9821 34.4907C29.9093 34.5634 29.8366 34.5634 29.7639 34.5634H29.6912C29.5457 34.5634 29.473 34.418 29.473 34.3452L28.1639 28.5271C28.1639 28.3816 28.1639 28.3089 28.2366 28.2362C28.3093 28.1634 28.3821 28.1634 28.4548 28.1634H28.5275L34.3457 29.4725C34.4912 29.4725 34.5639 29.618 34.5639 29.6907C34.5639 29.8362 34.5639 29.9089 34.4912 30.0543L33.7639 30.7816C33.473 31.0725 33.473 31.5089 33.7639 31.7271L37.1093 35.0725C37.2548 35.1452 37.2548 35.3634 37.1093 35.5089Z" fill="#053863"/>
<path d="M36.5273 7H9.47273C8.09091 7 7 8.09091 7 9.47273V30.4182C7 31.8 8.09091 32.8909 9.47273 32.8909H17.9091C18.1273 32.8909 18.2727 33.0364 18.2727 33.2545C18.2727 36.1636 17.2545 37.2545 16.8182 37.6182C16.7455 37.6909 16.6727 37.6909 16.6 37.6909H13.8364C13.4727 37.6909 13.1818 37.9818 13.1818 38.3455C13.1818 38.7091 13.4727 39 13.8364 39H26.0545C26.4182 39 26.7091 38.7091 26.7091 38.3455C26.7091 37.9818 26.4182 37.6909 26.0545 37.6909H19.1455C19 37.6909 18.9273 37.6182 18.8545 37.5455C18.7818 37.4727 18.7818 37.3273 18.8545 37.2545C19.3636 36.2364 19.6545 34.9273 19.6545 33.3273C19.6545 33.1091 19.8 32.9636 20.0182 32.9636H25.1091C25.4727 32.9636 25.7636 32.6727 25.7636 32.3091C25.7636 31.9455 25.4727 31.6545 25.1091 31.6545H9.47273C8.89091 31.6545 8.38182 31.1455 8.38182 30.5636V9.47273C8.38182 8.89091 8.89091 8.38182 9.47273 8.38182H36.6C37.1818 8.38182 37.6909 8.89091 37.6909 9.47273V27.0727C37.6909 27.4364 37.9818 27.7273 38.3455 27.7273C38.7091 27.7273 39 27.4364 39 27.0727V9.47273C39 8.09091 37.9091 7 36.5273 7Z" fill="#053863"/>
<path d="M17.91 16.5278H29.11C29.4736 16.5278 29.7645 16.2369 29.7645 15.8733C29.7645 15.5097 29.4736 15.2188 29.11 15.2188H17.91C17.5464 15.2188 17.2555 15.5097 17.2555 15.8733C17.1827 16.2369 17.5464 16.5278 17.91 16.5278Z" fill="#053863"/>
<path d="M29.1085 20.6001C29.4721 20.6001 29.763 20.3092 29.763 19.9456C29.763 19.5819 29.4721 19.291 29.1085 19.291H17.9085C17.5448 19.291 17.2539 19.5819 17.2539 19.9456C17.2539 20.3092 17.5448 20.6001 17.9085 20.6001H29.1085Z" fill="#053863"/>
<path d="M17.6185 28.7452C17.6912 28.818 17.8366 28.818 17.9094 28.818C18.0548 28.818 18.2003 28.7452 18.3457 28.6725L23.1457 24.818C23.2185 24.7452 23.2912 24.7452 23.3639 24.7452H31.873C32.9639 24.7452 33.9094 23.8725 33.9094 22.7089V12.818C33.9094 11.8725 33.1094 11.1452 32.2366 11.1452H14.8548C13.9094 11.0725 13.1094 11.8725 13.1094 12.818V22.9998C13.1094 23.9452 13.9094 24.6725 14.7821 24.6725H16.8185C17.0366 24.6725 17.1821 24.818 17.1821 25.0361V28.0907C17.1821 28.3816 17.3276 28.5998 17.6185 28.7452ZM14.8548 23.3634C14.7821 23.3634 14.7094 23.3634 14.6366 23.2907C14.5639 23.218 14.5639 23.1452 14.5639 23.0725V12.8907C14.5639 12.6725 14.7094 12.527 14.9276 12.527H32.3094C32.5276 12.527 32.673 12.6725 32.673 12.8907V22.7816C32.673 23.1452 32.3821 23.4361 32.0185 23.4361H23.0003C22.8548 23.4361 22.7094 23.5089 22.5639 23.5816L19.1457 26.3452C19.073 26.418 19.0003 26.418 18.9276 26.418C18.8548 26.418 18.8548 26.418 18.7821 26.418C18.6366 26.3452 18.5639 26.2725 18.5639 26.127V24.1634C18.5639 23.7998 18.273 23.5089 17.9094 23.5089H14.8548V23.3634Z" fill="#053863"/>
</svg>
