<svg width="16" height="16" viewBox="0 0 16 16" fill="none" xmlns="http://www.w3.org/2000/svg">
<path d="M8.675 4.125C8.675 4.74 8.165 5.25 7.55 5.25C6.935 5.25 6.425 4.74 6.425 4.125C6.425 3.51 6.935 3 7.55 3C8.165 3 8.675 3.51 8.675 4.125ZM3.125 7.425C3.74 7.425 4.25 7.935 4.25 8.55C4.25 9.165 3.74 9.675 3.125 9.675C2.51 9.675 2 9.165 2 8.55C2 7.935 2.51 7.425 3.125 7.425ZM11.975 9.675C11.36 9.675 10.85 9.165 10.85 8.55C10.85 7.935 11.36 7.425 11.975 7.425C12.59 7.425 13.1 7.935 13.1 8.55C13.1 9.165 12.59 9.675 11.975 9.675ZM6.425 12.975C6.425 12.36 6.935 11.85 7.55 11.85C8.165 11.85 8.675 12.36 8.675 12.975C8.675 13.59 8.165 14.1 7.55 14.1C6.935 14.1 6.425 13.59 6.425 12.975ZM13.01 3.705L8.165 8.55L13.01 13.395L12.41 13.995L7.565 9.15L2.72 13.995L2.12 13.395L6.965 8.55L2.12 3.705L2.72 3.09L7.565 7.95L12.41 3.09L13.01 3.705Z" fill="#2F2F2F"/>
</svg>
