<svg width="1000" height="1000" viewBox="0 0 1000 1000" fill="none" xmlns="http://www.w3.org/2000/svg">
<path d="M162.7 18.8009V16.6009H182.2V18.8009H173.8V22.3009H180.9V29.6009H178.3V24.6009H164.1V22.3009H171.3V18.8009H162.7ZM178.2 11.6009V10.1009H164V7.80087H180.8V11.5009C180.8 12.8009 180.6 14.2009 180.3 15.2009H177.8C178.1 14.2009 178.2 12.9009 178.2 11.6009Z" fill="black"/>
<path d="M186.4 10.2009V7.90088H195.2V10.2009H192.1V17.6009C192.1 22.5009 193.4 24.3009 195.4 25.4009V27.8009C193.2 27.0009 191.6 25.5009 190.8 23.8009C190 25.5009 188.5 27.0009 186.2 27.8009V25.4009C188.2 24.3009 189.5 22.6009 189.5 17.6009V10.2009H186.4ZM193.9 18.3009V16.0009H197.1V7.70088H199.6V29.0009H197.1V18.3009H193.9ZM204.2 29.2009H201.7V7.60088H204.2V29.2009Z" fill="black"/>
<path d="M218.4 16.2009H221V26.1009H228V28.3009H208.8V26.1009H212.8V16.2009H215.4V26.1009H218.5V16.2009H218.4ZM224.3 16.0009V10.2009H209.8V7.90088H226.9V15.4009C226.9 17.9009 226.7 20.5009 226.3 22.4009H223.8C224.1 20.7009 224.3 18.1009 224.3 16.0009Z" fill="black"/>
<path d="M231.7 24.6009V22.3009H250.9V24.6009H246.8V29.5009H244.2V24.6009H238.4V29.5009H235.8V24.6009H231.7ZM235.5 14.9009V17.6009H250.2V19.9009H232.8V12.7009H247.2V10.1009H232.8V7.80087H249.8V14.9009H235.5Z" fill="black"/>
<path d="M261.6 19.0009V22.7009H259V19.0009H254.5V16.8009H264.4C266.1 16.8009 267.7 16.7009 268.9 16.4009V18.5009C267.8 18.9009 266.2 19.0009 264.5 19.0009H261.6ZM255.3 11.5009C255.3 10.3009 255.8 9.30088 256.6 8.70088C257.7 7.80088 259.4 7.40088 261.2 7.40088C263 7.40088 264.7 7.80088 265.8 8.70088C266.6 9.30088 267.1 10.3009 267.1 11.5009C267.1 12.7009 266.6 13.7009 265.8 14.3009C264.7 15.2009 263 15.6009 261.2 15.6009C259.4 15.6009 257.7 15.2009 256.6 14.3009C255.8 13.6009 255.3 12.7009 255.3 11.5009ZM273.2 29.5009H256.6V23.3009H259.2V27.2009H273.2V29.5009ZM257.8 11.5009C257.8 12.1009 258.1 12.5009 258.5 12.8009C259.1 13.3009 260.1 13.5009 261.3 13.5009C262.5 13.5009 263.5 13.3009 264.1 12.8009C264.5 12.5009 264.7 12.1009 264.7 11.5009C264.7 10.9009 264.5 10.5009 264.1 10.2009C263.5 9.70088 262.5 9.50088 261.3 9.50088C260.1 9.50088 259.1 9.70088 258.5 10.2009C258.1 10.5009 257.8 10.9009 257.8 11.5009ZM272.8 24.0009H270.2V22.3009H265.5V20.3009H270.2V7.60088H272.8V24.0009Z" fill="black"/>
<path d="M53.8 13.4009V15.4009H50.1C50.6 15.9009 50.9 16.4009 51.2 17.0009C51.5 17.6009 51.7 18.3009 51.7 19.0009C51.7 20.6009 51.1 22.0009 49.9 23.0009C48.8 24.0009 47.6 24.5009 46.1 24.5009C44.6 24.5009 43.3 24.0009 42.2 23.0009C41.1 21.9009 40.5 20.6009 40.5 19.0009C40.5 18.3009 40.6 17.6009 40.9 17.0009C41.2 16.4009 41.5 15.9009 42 15.4009H38.5V13.4009H44V10.6009H46V13.4009H50.8V9.00093H39.2V7.00093H53.1V13.4009H53.8ZM43.8 16.6009C43.1 17.3009 42.8 18.1009 42.8 19.1009C42.8 20.1009 43.1 20.9009 43.8 21.6009C44.5 22.3009 45.2 22.6009 46.1 22.6009C47 22.6009 47.7 22.3009 48.4 21.6009C49.1 20.9009 49.4 20.1009 49.4 19.1009C49.4 18.1009 49.1 17.3009 48.4 16.6009C47.7 15.9009 47 15.6009 46.1 15.6009C45.2 15.6009 44.5 15.9009 43.8 16.6009Z" fill="black"/>
<path d="M64.2 9.00093C64.2 10.1009 64.8 10.8009 65.9 11.3009C66.8 11.7009 68.1 11.9009 69.8 11.9009V13.9009C68.3 13.8009 67 13.7009 66.1 13.4009C64.6 13.0009 63.5 12.4009 62.9 11.5009C62.3 12.4009 61.2 13.0009 59.7 13.4009C58.7 13.6009 57.5 13.8009 56 13.9009V11.9009C57.7 11.8009 59 11.6009 59.9 11.3009C61 10.8009 61.6 10.0009 61.6 9.00093H56V7.00093H69.9V9.00093H64.2ZM61.7 23.7009V18.3009H55.3V16.3009H70.2V18.3009H63.8V23.7009H61.7Z" fill="black"/>
<path d="M87 20.6009V22.7009H72V20.6009H74.5V13.6009H76.5V20.6009H78.8V13.6009H80.9V20.6009H83.7V9.00093H72.9V7.00093H85.7V20.6009H87Z" fill="black"/>
<path d="M103.1 17.7009V18.9009V23.6009H101.1V19.8009H89.3V17.8009H91.9V15.6009H88.8V13.6009H92.7C92.3 13.2009 92 12.7009 91.8 12.2009C91.6 11.7009 91.5 11.1009 91.5 10.5009C91.5 9.20093 92 8.00093 93 7.20093C93.9 6.40093 95.1 6.00093 96.4 6.00093C97.6 6.00093 98.7 6.40093 99.6 7.20093C100.6 8.10093 101.1 9.20093 101.1 10.5009C101.1 11.1009 101 11.7009 100.7 12.2009C100.5 12.7009 100.2 13.2009 99.8 13.6009H103.8V15.6009H100.7V17.8009H103.1V17.7009ZM94.3 8.60093C93.8 9.10093 93.5 9.80093 93.5 10.5009C93.5 11.2009 93.8 11.9009 94.3 12.4009C94.8 12.9009 95.5 13.2009 96.2 13.2009C96.9 13.2009 97.5 12.9009 98 12.4009C98.5 11.9009 98.8 11.2009 98.8 10.5009C98.8 9.70093 98.5 9.10093 98 8.60093C97.5 8.10093 96.9 7.80093 96.2 7.80093C95.5 7.80093 94.8 8.10093 94.3 8.60093ZM98.5 17.7009V15.5009H93.9V17.7009H98.5Z" fill="black"/>
<path d="M108.1 17.8009H114.4V7.00093H116.3V12.3009H117.9V7.00093H119.9V23.6009H117.9V14.3009H116.3V23.6009H114.4V19.9009H107.4C107 19.9009 106.7 19.8009 106.5 19.7009C106.3 19.5009 106.1 19.2009 106.1 18.7009V7.00093H112.8V9.00093H108.2V17.8009H108.1Z" fill="black"/>
<path d="M130.5 9.60093C130.7 9.90093 130.9 10.2009 131 10.5009C131.1 10.8009 131.2 11.2009 131.2 11.6009C131.2 12.8009 130.8 13.8009 130 14.5009C129.2 15.2009 128.3 15.6009 127.2 15.6009C126.1 15.6009 125.2 15.2009 124.4 14.5009C123.6 13.7009 123.1 12.8009 123.1 11.6009C123.1 11.2009 123.2 10.9009 123.3 10.5009C123.4 10.2009 123.6 9.90093 123.8 9.60093H122.6V7.60093H126.1V6.00093H128.3V7.60093H131.6V9.60093H130.5ZM125.7 10.2009C125.3 10.6009 125.1 11.1009 125.1 11.6009C125.1 12.1009 125.3 12.6009 125.7 13.0009C126.1 13.4009 126.6 13.6009 127.1 13.6009C127.6 13.6009 128.1 13.4009 128.5 13.0009C128.9 12.6009 129.1 12.1009 129.1 11.6009C129.1 11.0009 128.9 10.6009 128.5 10.2009C128.1 9.80093 127.6 9.60093 127.1 9.60093C126.6 9.60093 126.1 9.80093 125.7 10.2009ZM136.6 11.7009V15.0009H134.6V7.00093H136.6V9.70093H138.7V11.7009H136.6ZM136.6 23.6009H134.6V18.8009H123.5V16.8009H136.7V23.6009H136.6Z" fill="black"/>
<path d="M153.8 20.6009V22.7009H138.9V20.6009H141.3V13.6009H143.4V20.6009H145.7V13.6009H147.7V20.6009H150.5V9.00093H139.8V7.00093H152.6V20.6009H153.8Z" fill="black"/>
<path d="M42.7 29.1009C42.7 29.9009 42.5 30.5009 42.1 30.9009C41.7 31.4009 41.3 31.6009 40.7 31.6009C40.4 31.6009 40.1 31.5009 39.9 31.4009C39.6 31.3009 39.4 31.1009 39.2 30.8009C39 30.6009 38.9 30.3009 38.8 30.0009C38.7 29.7009 38.7 29.4009 38.7 29.1009C38.7 28.8009 38.8 28.5009 38.9 28.2009C39 27.9009 39.2 27.6009 39.4 27.4009C39.6 27.2009 39.8 27.0009 40 26.9009C40.2 26.8009 40.5 26.7009 40.8 26.7009C41.2 26.7009 41.6 26.8009 41.9 27.0009C42.2 27.2009 42.4 27.6009 42.6 28.0009H41.8C41.7 27.8009 41.5 27.7009 41.3 27.6009C41.1 27.5009 40.9 27.5009 40.7 27.5009C40.5 27.5009 40.3 27.5009 40.2 27.6009C40 27.7009 39.9 27.8009 39.8 28.0009C39.7 28.2009 39.6 28.3009 39.5 28.6009C39.4 28.8009 39.4 29.0009 39.4 29.2009C39.4 29.4009 39.4 29.7009 39.5 29.9009C39.6 30.1009 39.7 30.3009 39.8 30.5009C39.9 30.7009 40.1 30.8009 40.3 30.9009C40.5 31.0009 40.6 31.0009 40.8 31.0009C41.1 31.0009 41.3 30.9009 41.5 30.7009C41.7 30.5009 41.9 30.3009 42 29.9009H40.7V29.2009H42.7V29.1009Z" fill="black"/>
<path d="M43.2 28.2009C43.3 27.9009 43.5 27.6009 43.7 27.4009C43.9 27.2009 44.1 27.0009 44.3 26.9009C44.5 26.8009 44.8 26.7009 45.1 26.7009C45.4 26.7009 45.6 26.8009 45.9 26.9009C46.1 27.0009 46.4 27.2009 46.6 27.4009C46.8 27.6009 47 27.9009 47.1 28.2009C47.2 28.5009 47.3 28.8009 47.3 29.1009C47.3 29.4009 47.3 29.7009 47.2 30.0009C47.1 30.3009 47 30.5009 46.8 30.8009C46.6 31.1009 46.4 31.3009 46.1 31.4009C45.8 31.5009 45.6 31.6009 45.3 31.6009C45 31.6009 44.7 31.5009 44.5 31.4009C44.2 31.3009 44 31.1009 43.8 30.8009C43.6 30.6009 43.5 30.3009 43.4 30.0009C43.3 29.7009 43.3 29.4009 43.3 29.1009C43 28.8009 43.1 28.5009 43.2 28.2009ZM43.8 29.8009C43.9 30.0009 44 30.2009 44.1 30.4009C44.2 30.6009 44.4 30.7009 44.6 30.8009C44.8 30.9009 44.9 30.9009 45.1 30.9009C45.5 30.9009 45.8 30.7009 46.1 30.4009C46.4 30.1009 46.5 29.6009 46.5 29.2009C46.5 29.0009 46.5 28.8009 46.4 28.6009C46.3 28.4009 46.2 28.2009 46.1 28.1009C46 27.9009 45.8 27.8009 45.6 27.7009C45.4 27.6009 45.2 27.6009 45 27.6009C44.8 27.6009 44.6 27.6009 44.5 27.7009C44.3 27.8009 44.2 27.9009 44.1 28.1009C43.9 28.1009 43.8 28.3009 43.8 28.5009C43.7 28.7009 43.7 28.9009 43.7 29.1009C43.7 29.4009 43.7 29.6009 43.8 29.8009Z" fill="black"/>
<path d="M47.6 31.5009V26.8009H48.2L50 30.2009V26.8009H50.6V31.5009H50.1L48.2 28.0009V31.5009H47.6Z" fill="black"/>
<path d="M55.2 29.1009C55.2 29.9009 55 30.5009 54.6 30.9009C54.2 31.4009 53.8 31.6009 53.2 31.6009C52.9 31.6009 52.6 31.5009 52.4 31.4009C52.2 31.3009 51.9 31.1009 51.7 30.8009C51.5 30.6009 51.4 30.3009 51.3 30.0009C51.2 29.7009 51.2 29.4009 51.2 29.1009C51.2 28.8009 51.3 28.5009 51.4 28.2009C51.5 27.9009 51.7 27.6009 51.9 27.4009C52.1 27.2009 52.3 27.0009 52.5 26.9009C52.7 26.8009 53 26.7009 53.3 26.7009C53.7 26.7009 54.1 26.8009 54.4 27.0009C54.7 27.2009 54.9 27.6009 55.1 28.0009H54.3C54.2 27.8009 54 27.7009 53.8 27.6009C53.6 27.5009 53.4 27.5009 53.2 27.5009C53 27.5009 52.8 27.5009 52.7 27.6009C52.5 27.7009 52.4 27.8009 52.3 28.0009C52.2 28.2009 52.1 28.3009 52 28.6009C51.9 28.8009 51.9 29.0009 51.9 29.2009C51.9 29.4009 51.9 29.7009 52 29.9009C52.1 30.1009 52.2 30.3009 52.3 30.5009C52.4 30.7009 52.6 30.8009 52.8 30.9009C53 31.0009 53.1 31.0009 53.3 31.0009C53.6 31.0009 53.8 30.9009 54 30.7009C54.2 30.5009 54.4 30.3009 54.5 29.9009H53.2V29.2009H55.2V29.1009Z" fill="black"/>
<path d="M57.4 30.5009C57.4 30.7009 57.3 30.9009 57.3 31.0009C57.2 31.2009 57.1 31.3009 56.9 31.4009C56.7 31.5009 56.5 31.6009 56.3 31.6009C56 31.6009 55.7 31.5009 55.5 31.3009C55.3 31.1009 55.2 30.8009 55.2 30.4009H55.8C55.8 30.6009 55.9 30.7009 55.9 30.8009C56 30.9009 56.1 30.9009 56.2 30.9009C56.4 30.9009 56.6 30.8009 56.6 30.6009C56.7 30.5009 56.7 30.2009 56.7 29.8009V26.8009H57.3V29.9009C57.4 30.1009 57.4 30.3009 57.4 30.5009Z" fill="black"/>
<path d="M58.6 26.8009V29.8009C58.6 30.2009 58.6 30.5009 58.7 30.6009C58.8 30.8009 59 30.9009 59.2 30.9009C59.4 30.9009 59.6 30.8009 59.7 30.6009C59.8 30.4009 59.8 30.2009 59.8 29.8009V26.8009H60.4V29.8009C60.4 30.1009 60.4 30.3009 60.4 30.5009C60.4 30.7009 60.3 30.9009 60.2 31.0009C60.1 31.2009 59.9 31.4009 59.8 31.5009C59.6 31.6009 59.4 31.7009 59.2 31.7009C58.9 31.7009 58.7 31.6009 58.5 31.5009C58.3 31.4009 58.1 31.2009 58 31.0009C57.9 30.8009 57.9 30.7009 57.8 30.4009C57.8 30.3009 57.8 30.1009 57.8 29.8009V26.8009H58.6Z" fill="black"/>
<path d="M62.7 31.5009V26.8009H63.3L65.2 30.2009V26.8009H65.8V31.5009H65.2L63.3 28.0009V31.5009H62.7Z" fill="black"/>
<path d="M66.7 31.5009H66L67.6 26.8009H68.2L69.7 31.5009H69L68.6 30.2009H67.1L66.7 31.5009ZM67.9 27.8009L67.4 29.5009H68.4L67.9 27.8009Z" fill="black"/>
<path d="M70.6 31.5009V27.5009H69.7V26.8009H72V27.5009H71.2V31.5009H70.6Z" fill="black"/>
<path d="M72.3 31.5009V26.8009H72.9V31.5009H72.3Z" fill="black"/>
<path d="M73.6 28.2009C73.7 27.9009 73.9 27.6009 74.1 27.4009C74.3 27.2009 74.5 27.0009 74.7 26.9009C74.9 26.8009 75.2 26.7009 75.5 26.7009C75.8 26.7009 76 26.8009 76.3 26.9009C76.5 27.0009 76.8 27.2009 77 27.4009C77.2 27.6009 77.4 27.9009 77.5 28.2009C77.6 28.5009 77.7 28.8009 77.7 29.1009C77.7 29.4009 77.7 29.7009 77.6 30.0009C77.5 30.3009 77.4 30.5009 77.2 30.8009C77 31.1009 76.8 31.3009 76.5 31.4009C76.2 31.5009 76 31.6009 75.7 31.6009C75.4 31.6009 75.1 31.5009 74.9 31.4009C74.6 31.3009 74.4 31.1009 74.2 30.8009C74 30.6009 73.9 30.3009 73.8 30.0009C73.7 29.7009 73.7 29.4009 73.7 29.1009C73.4 28.8009 73.5 28.5009 73.6 28.2009ZM74.2 29.8009C74.3 30.0009 74.4 30.2009 74.5 30.4009C74.6 30.6009 74.8 30.7009 75 30.8009C75.2 30.9009 75.3 30.9009 75.5 30.9009C75.9 30.9009 76.2 30.7009 76.5 30.4009C76.8 30.1009 76.9 29.6009 76.9 29.2009C76.9 29.0009 76.9 28.8009 76.8 28.6009C76.7 28.4009 76.6 28.2009 76.5 28.1009C76.4 27.9009 76.2 27.8009 76 27.7009C75.8 27.6009 75.6 27.6009 75.4 27.6009C75.2 27.6009 75 27.6009 74.9 27.7009C74.7 27.8009 74.6 27.9009 74.5 28.1009C74.4 28.3009 74.3 28.4009 74.2 28.7009C74.1 28.9009 74.1 29.1009 74.1 29.3009C74.1 29.4009 74.1 29.6009 74.2 29.8009Z" fill="black"/>
<path d="M77.9 31.5009V26.8009H78.6L80.4 30.2009V26.8009H81V31.5009H80.5L78.6 28.0009V31.5009H77.9Z" fill="black"/>
<path d="M81.9 31.5009H81.2L82.8 26.8009H83.4L84.9 31.5009H84.2L83.8 30.2009H82.3L81.9 31.5009ZM83.1 27.8009L82.6 29.5009H83.6L83.1 27.8009Z" fill="black"/>
<path d="M85.2 31.5009V26.8009H85.8V30.8009H87.1V31.5009H85.2Z" fill="black"/>
<path d="M89.7 26.8009V29.8009C89.7 30.2009 89.7 30.5009 89.8 30.6009C89.9 30.8009 90.1 30.9009 90.3 30.9009C90.5 30.9009 90.7 30.8009 90.8 30.6009C90.9 30.4009 90.9 30.2009 90.9 29.8009V26.8009H91.5V29.8009C91.5 30.1009 91.5 30.3009 91.5 30.5009C91.5 30.7009 91.4 30.9009 91.3 31.0009C91.2 31.2009 91 31.4009 90.9 31.5009C90.7 31.6009 90.5 31.7009 90.3 31.7009C90 31.7009 89.8 31.6009 89.6 31.5009C89.4 31.4009 89.2 31.2009 89.1 31.0009C89 30.8009 88.9 30.7009 88.9 30.4009C88.9 30.3009 88.9 30.1009 88.9 29.8009V26.8009H89.7Z" fill="black"/>
<path d="M92.2 31.5009V26.8009H92.8L94.7 30.2009V26.8009H95.3V31.5009H94.7L92.8 28.0009V31.5009H92.2Z" fill="black"/>
<path d="M95.9 31.5009V26.8009H96.5V31.5009H95.9Z" fill="black"/>
<path d="M98.2 31.5009L96.7 26.8009H97.4L98.4 30.2009L99.4 26.8009H100.1L98.6 31.5009H98.2Z" fill="black"/>
<path d="M100.3 31.5009V26.8009H102.4V27.5009H100.9V28.8009H102.4V29.5009H100.9V30.8009H102.4V31.5009H100.3Z" fill="black"/>
<path d="M105 29.0009C104.8 29.2009 104.6 29.4009 104.3 29.6009L105.5 31.5009H104.7L103.6 29.6009H103.5V31.5009H102.8V26.8009H103.7C103.9 26.8009 104.1 26.8009 104.2 26.8009C104.4 26.8009 104.5 26.9009 104.6 27.0009C104.8 27.1009 104.9 27.3009 105 27.5009C105.1 27.7009 105.2 27.9009 105.2 28.2009C105.2 28.5009 105.2 28.8009 105 29.0009ZM104.4 27.6009C104.3 27.5009 104.1 27.4009 103.8 27.4009H103.4V28.9009H103.8C104.1 28.9009 104.3 28.8009 104.4 28.7009C104.5 28.6009 104.6 28.4009 104.6 28.1009C104.6 28.0009 104.6 27.8009 104.4 27.6009Z" fill="black"/>
<path d="M106.1 30.1009C106.1 30.3009 106.2 30.5009 106.3 30.7009C106.4 30.8009 106.5 30.9009 106.7 30.9009C106.9 30.9009 107 30.8009 107.2 30.7009C107.3 30.6009 107.4 30.4009 107.4 30.2009C107.4 30.0009 107.3 29.8009 107.2 29.7009C107.1 29.6009 107 29.5009 106.7 29.4009C106.5 29.3009 106.4 29.3009 106.3 29.2009C106.2 29.1009 106 29.0009 105.9 28.8009C105.8 28.7009 105.8 28.6009 105.7 28.5009C105.7 28.4009 105.7 28.2009 105.7 28.1009C105.7 27.7009 105.8 27.4009 106 27.1009C106.2 26.8009 106.5 26.7009 106.8 26.7009C107.1 26.7009 107.4 26.8009 107.5 27.0009C107.7 27.2009 107.8 27.6009 107.8 28.0009H107.2C107.2 27.8009 107.1 27.7009 107.1 27.5009C107 27.4009 106.9 27.3009 106.8 27.3009C106.6 27.3009 106.5 27.4009 106.4 27.5009C106.3 27.6009 106.3 27.8009 106.3 28.0009C106.3 28.1009 106.3 28.1009 106.3 28.2009C106.3 28.3009 106.3 28.3009 106.4 28.4009C106.5 28.5009 106.5 28.5009 106.6 28.6009C106.7 28.6009 106.7 28.7009 106.9 28.7009L107.2 28.8009C107.5 28.9009 107.7 29.1009 107.8 29.3009C107.9 29.5009 108 29.8009 108 30.1009C108 30.6009 107.9 30.9009 107.7 31.2009C107.5 31.5009 107.2 31.6009 106.8 31.6009C106.5 31.6009 106.2 31.5009 106 31.2009C105.8 30.9009 105.7 30.6009 105.7 30.1009H106.1V30.1009Z" fill="black"/>
<path d="M108.3 31.5009V26.8009H108.9V31.5009H108.3Z" fill="black"/>
<path d="M110 31.5009V27.5009H109.2V26.8009H111.4V27.5009H110.6V31.5009H110Z" fill="black"/>
<path d="M113.3 31.5009H112.7V29.8009L111.5 26.8009H112.1L113 29.0009L113.8 26.8009H114.5L113.3 29.8009V31.5009Z" fill="black"/>
<path d="M116.3 28.2009C116.4 27.9009 116.6 27.6009 116.8 27.4009C117 27.2009 117.2 27.0009 117.4 26.9009C117.6 26.8009 117.9 26.7009 118.2 26.7009C118.5 26.7009 118.7 26.8009 119 26.9009C119.2 27.0009 119.5 27.2009 119.7 27.4009C119.9 27.6009 120.1 27.9009 120.2 28.2009C120.3 28.5009 120.4 28.8009 120.4 29.1009C120.4 29.4009 120.4 29.7009 120.3 30.0009C120.2 30.3009 120.1 30.5009 119.9 30.8009C119.7 31.1009 119.5 31.3009 119.2 31.4009C118.9 31.5009 118.7 31.6009 118.4 31.6009C118.1 31.6009 117.8 31.5009 117.6 31.4009C117.3 31.3009 117.1 31.1009 116.9 30.8009C116.7 30.6009 116.6 30.3009 116.5 30.0009C116.4 29.7009 116.4 29.4009 116.4 29.1009C116.2 28.8009 116.2 28.5009 116.3 28.2009ZM116.9 29.8009C117 30.0009 117.1 30.2009 117.2 30.4009C117.3 30.6009 117.5 30.7009 117.7 30.8009C117.9 30.9009 118 30.9009 118.2 30.9009C118.6 30.9009 118.9 30.7009 119.2 30.4009C119.5 30.1009 119.6 29.6009 119.6 29.2009C119.6 29.0009 119.6 28.8009 119.5 28.6009C119.4 28.4009 119.3 28.2009 119.2 28.1009C119.1 27.9009 118.9 27.8009 118.7 27.7009C118.5 27.6009 118.3 27.6009 118.1 27.6009C117.9 27.6009 117.7 27.6009 117.6 27.7009C117.4 27.8009 117.3 27.9009 117.2 28.1009C117.1 28.3009 117 28.4009 116.9 28.7009C116.8 28.9009 116.8 29.1009 116.8 29.3009C116.8 29.4009 116.8 29.6009 116.9 29.8009Z" fill="black"/>
<path d="M120.7 26.8009H122.7V27.5009H121.3V28.8009H122.7V29.5009H121.3V31.5009H120.7V26.8009Z" fill="black"/>
<path d="M124.4 31.5009V26.8009H126.5V27.5009H125V28.8009H126.5V29.5009H125V30.8009H126.5V31.5009H124.4Z" fill="black"/>
<path d="M126.9 31.5009V26.8009H128.2C128.8 26.8009 129.3 27.0009 129.6 27.5009C130 27.9009 130.1 28.5009 130.1 29.2009C130.1 29.6009 130 30.0009 129.9 30.3009C129.8 30.6009 129.6 30.9009 129.3 31.1009C129.1 31.3009 128.9 31.4009 128.7 31.5009C128.5 31.6009 128.3 31.6009 128 31.6009H126.9V31.5009ZM128.1 30.8009C128.5 30.8009 128.9 30.7009 129.1 30.4009C129.3 30.1009 129.5 29.7009 129.5 29.2009C129.5 28.7009 129.4 28.3009 129.1 28.0009C128.8 27.7009 128.5 27.6009 128 27.6009H127.4V30.9009H128.1V30.8009Z" fill="black"/>
<path d="M131.3 26.8009V29.8009C131.3 30.2009 131.3 30.5009 131.4 30.6009C131.5 30.8009 131.7 30.9009 131.9 30.9009C132.1 30.9009 132.3 30.8009 132.4 30.6009C132.5 30.4009 132.5 30.2009 132.5 29.8009V26.8009H133.1V29.8009C133.1 30.1009 133.1 30.3009 133.1 30.5009C133.1 30.7009 133 30.9009 132.9 31.0009C132.8 31.2009 132.6 31.4009 132.5 31.5009C132.3 31.6009 132.1 31.7009 131.9 31.7009C131.6 31.7009 131.4 31.6009 131.2 31.5009C131 31.4009 130.8 31.2009 130.7 31.0009C130.6 30.8009 130.6 30.7009 130.5 30.4009C130.5 30.3009 130.5 30.1009 130.5 29.8009V26.8009H131.3Z" fill="black"/>
<path d="M136.7 31.3009C136.4 31.5009 136 31.6009 135.6 31.6009C135.3 31.6009 135 31.5009 134.8 31.4009C134.5 31.3009 134.3 31.1009 134.1 30.8009C133.9 30.6009 133.8 30.3009 133.7 30.0009C133.6 29.7009 133.6 29.4009 133.6 29.1009C133.6 28.8009 133.6 28.5009 133.8 28.2009C133.9 27.9009 134.1 27.6009 134.3 27.4009C134.5 27.2009 134.7 27.0009 134.9 26.9009C135.1 26.8009 135.4 26.7009 135.7 26.7009C136.1 26.7009 136.5 26.8009 136.8 27.0009C137.1 27.2009 137.3 27.6009 137.5 28.0009H136.8C136.7 27.8009 136.5 27.6009 136.3 27.5009C136.1 27.4009 135.9 27.4009 135.7 27.4009C135.5 27.4009 135.3 27.4009 135.2 27.5009C135 27.6009 134.9 27.7009 134.8 27.9009C134.7 28.1009 134.6 28.2009 134.5 28.5009C134.4 28.7009 134.4 28.9009 134.4 29.1009C134.4 29.3009 134.4 29.6009 134.5 29.8009C134.6 30.0009 134.7 30.2009 134.8 30.4009C134.9 30.6009 135.1 30.7009 135.3 30.8009C135.5 30.9009 135.7 30.9009 135.8 30.9009C136 30.9009 136.2 30.8009 136.4 30.7009C136.6 30.6009 136.7 30.5009 136.8 30.3009H137.5C137.3 30.7009 137 31.0009 136.7 31.3009Z" fill="black"/>
<path d="M138 31.5009H137.3L138.9 26.8009H139.5L141 31.5009H140.3L139.9 30.2009H138.4L138 31.5009ZM139.2 27.8009L138.7 29.5009H139.7L139.2 27.8009Z" fill="black"/>
<path d="M141.9 31.5009V27.5009H141.1V26.8009H143.3V27.5009H142.5V31.5009H141.9Z" fill="black"/>
<path d="M143.8 31.5009V26.8009H144.4V31.5009H143.8Z" fill="black"/>
<path d="M145.1 28.2009C145.2 27.9009 145.4 27.6009 145.6 27.4009C145.8 27.2009 146 27.0009 146.2 26.9009C146.4 26.8009 146.7 26.7009 147 26.7009C147.3 26.7009 147.5 26.8009 147.8 26.9009C148 27.0009 148.3 27.2009 148.5 27.4009C148.7 27.6009 148.9 27.9009 149 28.2009C149.1 28.5009 149.2 28.8009 149.2 29.1009C149.2 29.4009 149.2 29.7009 149.1 30.0009C149 30.3009 148.9 30.5009 148.7 30.8009C148.5 31.1009 148.3 31.3009 148 31.4009C147.7 31.5009 147.5 31.6009 147.2 31.6009C146.9 31.6009 146.6 31.5009 146.4 31.4009C146.1 31.3009 145.9 31.1009 145.7 30.8009C145.5 30.6009 145.4 30.3009 145.3 30.0009C145.2 29.7009 145.2 29.4009 145.2 29.1009C144.9 28.8009 145 28.5009 145.1 28.2009ZM145.6 29.8009C145.7 30.0009 145.8 30.2009 145.9 30.4009C146 30.6009 146.2 30.7009 146.4 30.8009C146.6 30.9009 146.7 30.9009 146.9 30.9009C147.3 30.9009 147.6 30.7009 147.9 30.4009C148.2 30.1009 148.3 29.6009 148.3 29.2009C148.3 29.0009 148.3 28.8009 148.2 28.6009C148.1 28.4009 148 28.2009 147.9 28.1009C147.8 27.9009 147.6 27.8009 147.4 27.7009C147.2 27.6009 147 27.6009 146.8 27.6009C146.6 27.6009 146.4 27.6009 146.3 27.7009C146.1 27.8009 146 27.9009 145.9 28.1009C145.8 28.3009 145.7 28.4009 145.6 28.7009C145.5 28.9009 145.5 29.1009 145.5 29.3009C145.5 29.4009 145.6 29.6009 145.6 29.8009Z" fill="black"/>
<path d="M149.4 31.5009V26.8009H150L151.9 30.2009V26.8009H152.5V31.5009H151.9L150 28.0009V31.5009H149.4Z" fill="black"/>
<path d="M35.4 17.7009C35.4 27.5009 27.5 35.4009 17.7 35.4009C7.9 35.4009 0 27.5009 0 17.7009C0 7.90093 7.9 0.000927413 17.7 0.000927413C27.5 -0.0990726 35.4 7.90093 35.4 17.7009Z" fill="#054963"/>
<path d="M35 17.7009C35 27.3009 27.3 35.0009 17.7 35.0009C8.1 35.0009 0.399994 27.3009 0.399994 17.7009C0.399994 8.10093 8.2 0.400925 17.7 0.400925C27.3 0.400925 35 8.10093 35 17.7009Z" fill="white"/>
<path d="M31 17.5009C31 24.8009 25.1 30.8009 17.7 30.8009C10.4 30.8009 4.39999 24.9009 4.39999 17.5009C4.39999 10.2009 10.3 4.20093 17.7 4.20093C25.1 4.20093 31 10.2009 31 17.5009Z" fill="#0F7239"/>
<path d="M3.59999 23.8009C3.99999 23.6009 4.29999 23.6009 4.59999 23.6009C4.89999 23.7009 5.09999 23.8009 5.29999 24.1009C5.39999 24.2009 5.39999 24.4009 5.39999 24.5009C5.39999 24.6009 5.39999 24.8009 5.29999 25.0009C5.19999 25.1009 5.09999 25.3009 4.99999 25.4009C4.89999 25.5009 4.79999 25.6009 4.59999 25.7009C4.39999 25.8009 4.29999 25.8009 4.09999 25.9009C3.89999 25.9009 3.79999 25.9009 3.59999 25.9009C3.39999 25.9009 3.29999 25.8009 3.19999 25.7009C3.09999 25.6009 2.99999 25.5009 2.89999 25.4009C2.79999 25.2009 2.79999 25.0009 2.79999 24.8009C2.79999 24.6009 2.89999 24.4009 3.09999 24.2009L3.29999 24.5009C3.19999 24.6009 3.19999 24.7009 3.19999 24.8009C3.19999 24.9009 3.19999 25.0009 3.29999 25.1009C3.29999 25.2009 3.39999 25.3009 3.49999 25.3009C3.59999 25.4009 3.69999 25.4009 3.79999 25.4009C3.89999 25.4009 3.99999 25.4009 4.09999 25.4009C4.19999 25.4009 4.29999 25.3009 4.39999 25.3009C4.49999 25.2009 4.59999 25.2009 4.69999 25.1009C4.79999 25.0009 4.79999 24.9009 4.89999 24.8009C4.89999 24.7009 4.99999 24.6009 4.99999 24.5009C4.99999 24.4009 4.99999 24.3009 4.89999 24.2009C4.79999 24.1009 4.69999 24.0009 4.59999 23.9009C4.49999 23.8009 4.29999 23.8009 4.09999 23.8009L4.39999 24.4009L4.09999 24.6009L3.59999 23.8009Z" fill="black"/>
<path d="M3.00001 23.6009C2.80001 23.6009 2.70001 23.6009 2.50001 23.5009C2.40001 23.4009 2.20001 23.4009 2.10001 23.3009C2.00001 23.2009 1.9 23.1009 1.9 23.0009C1.9 22.9009 1.8 22.7009 1.9 22.6009C1.9 22.5009 2.00001 22.3009 2.10001 22.2009C2.20001 22.1009 2.3 21.9009 2.4 21.8009C2.5 21.7009 2.70001 21.6009 2.80001 21.6009C3.00001 21.5009 3.10001 21.5009 3.30001 21.5009C3.40001 21.5009 3.60001 21.5009 3.70001 21.6009C3.90001 21.7009 4.00001 21.7009 4.10001 21.8009C4.20001 21.9009 4.30001 22.0009 4.30001 22.2009C4.40001 22.3009 4.40001 22.5009 4.30001 22.6009C4.30001 22.7009 4.20001 22.9009 4.10001 23.0009C4.00001 23.1009 3.90001 23.2009 3.80001 23.3009C3.70001 23.4009 3.5 23.5009 3.4 23.5009C3.3 23.5009 3.10001 23.6009 3.00001 23.6009ZM3.70001 23.0009C3.80001 22.9009 3.9 22.9009 3.9 22.8009C4 22.7009 4.00001 22.6009 4.00001 22.5009C4.00001 22.4009 4.00001 22.3009 4.00001 22.2009C3.90001 22.0009 3.80001 21.9009 3.60001 21.8009C3.40001 21.7009 3.2 21.7009 2.9 21.8009C2.8 21.8009 2.70001 21.9009 2.60001 21.9009C2.50001 22.0009 2.4 22.0009 2.4 22.1009C2.3 22.2009 2.30001 22.3009 2.30001 22.4009C2.30001 22.5009 2.30001 22.6009 2.30001 22.7009C2.30001 22.8009 2.4 22.9009 2.4 22.9009C2.5 23.0009 2.60001 23.0009 2.70001 23.1009C2.80001 23.1009 2.90001 23.2009 3.00001 23.2009C3.10001 23.2009 3.20001 23.2009 3.30001 23.1009C3.50001 23.1009 3.60001 23.1009 3.70001 23.0009Z" fill="black"/>
<path d="M4.00001 20.9009L1.50001 21.3009L1.40001 21.0009L3.00001 19.7009L1.30001 20.1009L1.20001 19.8009L3.70001 19.3009V19.6009L2.10001 20.9009L3.90001 20.6009L4.00001 20.9009Z" fill="black"/>
<path d="M2.30001 16.9009C2.70001 16.9009 3.00001 17.0009 3.30001 17.2009C3.60001 17.4009 3.70001 17.6009 3.70001 17.9009C3.70001 18.1009 3.70001 18.2009 3.60001 18.3009C3.50001 18.4009 3.40001 18.6009 3.30001 18.7009C3.20001 18.8009 3.10001 18.9009 2.90001 18.9009C2.80001 18.9009 2.60001 19.0009 2.40001 19.0009C2.20001 19.0009 2.10001 19.0009 1.90001 18.9009C1.70001 18.9009 1.60001 18.8009 1.50001 18.7009C1.40001 18.6009 1.30001 18.5009 1.20001 18.4009C1.10001 18.3009 1.10001 18.1009 1.10001 18.0009C1.10001 17.8009 1.10001 17.6009 1.30001 17.4009C1.40001 17.2009 1.60001 17.1009 1.80001 17.0009V17.4009C1.70001 17.5009 1.60001 17.6009 1.60001 17.6009C1.60001 17.7009 1.50001 17.8009 1.50001 17.9009C1.50001 18.0009 1.50001 18.1009 1.60001 18.2009C1.60001 18.3009 1.70001 18.4009 1.80001 18.4009C1.90001 18.5009 2.00001 18.5009 2.10001 18.6009C2.20001 18.6009 2.30001 18.6009 2.40001 18.6009C2.50001 18.6009 2.60001 18.6009 2.80001 18.5009C2.90001 18.5009 3.00001 18.4009 3.10001 18.3009C3.20001 18.2009 3.20001 18.2009 3.30001 18.1009C3.30001 18.0009 3.40001 17.9009 3.40001 17.8009C3.40001 17.7009 3.30001 17.5009 3.30001 17.4009C3.20001 17.3009 3.10001 17.2009 2.90001 17.1009V17.8009H2.50001L2.30001 16.9009Z" fill="black"/>
<path d="M3.19999 15.7009C3.29999 15.7009 3.39999 15.8009 3.49999 15.8009C3.59999 15.9009 3.69999 15.9009 3.69999 16.0009C3.69999 16.1009 3.79999 16.2009 3.79999 16.3009C3.79999 16.5009 3.69999 16.6009 3.59999 16.7009C3.49999 16.8009 3.29999 16.8009 3.09999 16.8009V16.5009C3.19999 16.5009 3.29999 16.5009 3.29999 16.5009C3.39999 16.5009 3.39999 16.4009 3.39999 16.3009C3.39999 16.2009 3.39999 16.1009 3.29999 16.1009C3.19999 16.1009 3.09999 16.0009 2.89999 16.0009L1.29999 15.8009V15.5009L2.89999 15.7009C2.99999 15.7009 3.09999 15.7009 3.19999 15.7009Z" fill="black"/>
<path d="M1.30001 14.6009L2.90001 14.9009C3.10001 14.9009 3.30001 14.9009 3.30001 14.9009C3.40001 14.9009 3.50001 14.8009 3.50001 14.7009C3.50001 14.6009 3.50001 14.5009 3.40001 14.4009C3.30001 14.3009 3.20001 14.3009 3.00001 14.2009L1.40001 13.9009L1.50001 13.6009L3.00001 13.9009C3.10001 13.9009 3.30001 14.0009 3.30001 14.0009C3.40001 14.0009 3.50001 14.1009 3.60001 14.1009C3.70001 14.2009 3.80001 14.3009 3.80001 14.4009C3.80001 14.5009 3.80001 14.6009 3.80001 14.7009C3.80001 14.8009 3.70001 14.9009 3.70001 15.0009C3.60001 15.1009 3.50001 15.2009 3.40001 15.2009C3.30001 15.2009 3.20001 15.2009 3.10001 15.2009C3.00001 15.2009 2.90001 15.2009 2.80001 15.1009L1.20001 14.8009L1.30001 14.6009Z" fill="black"/>
<path d="M4.3 12.9009L2 12.0009L2.1 11.7009L4.2 11.5009L2.5 10.8009L2.6 10.5009L4.9 11.5009L4.8 11.7009L2.7 11.9009L4.4 12.6009L4.3 12.9009Z" fill="black"/>
<path d="M5.10001 11.0009L5.00001 11.3009L3.20001 9.40092L3.40001 9.10092L6.00001 9.70092L5.80001 10.0009L5.10001 9.80092L4.70001 10.5009L5.10001 11.0009ZM3.70001 9.50092L4.30001 10.2009L4.60001 9.70092L3.70001 9.50092Z" fill="black"/>
<path d="M6.2 9.30093L4.5 8.10093L4.2 8.40093L3.89999 8.20094L4.59999 7.30093L4.89999 7.50093L4.7 7.80093L6.39999 9.10093L6.2 9.30093Z" fill="black"/>
<path d="M6.8 8.50093L4.89999 6.90092L5.09999 6.70093L7 8.30093L6.8 8.50093Z" fill="black"/>
<path d="M6 6.70094C5.9 6.50094 5.89999 6.40094 5.89999 6.20094C5.89999 6.00094 5.89999 5.90093 5.89999 5.80093C5.89999 5.70093 5.99999 5.60093 6.09999 5.50093C6.19999 5.40093 6.29999 5.30093 6.39999 5.30093C6.49999 5.30093 6.7 5.30093 6.8 5.30093C7 5.30093 7.1 5.40093 7.3 5.40093C7.4 5.50093 7.6 5.60094 7.7 5.70094C7.8 5.80094 7.9 6.00093 8 6.10093C8.1 6.20093 8.09999 6.40093 8.09999 6.50093C8.09999 6.70093 8.09999 6.80093 8.09999 7.00093C8.09999 7.10093 7.99999 7.30093 7.89999 7.40093C7.79999 7.50093 7.7 7.60093 7.5 7.60093C7.4 7.60093 7.2 7.60093 7 7.60093C6.9 7.60093 6.69999 7.50093 6.59999 7.40093C6.49999 7.30093 6.3 7.20093 6.2 7.10093C6.2 7.00093 6.1 6.90094 6 6.70094ZM6.8 7.10093C6.9 7.20093 6.99999 7.20094 7.09999 7.20094C7.19999 7.20094 7.29999 7.20094 7.39999 7.20094C7.49999 7.20094 7.59999 7.10093 7.59999 7.10093C7.69999 7.00093 7.8 6.80093 7.8 6.50093C7.8 6.30093 7.7 6.10093 7.5 5.90093C7.4 5.80093 7.3 5.80094 7.2 5.70094C7.1 5.60094 6.99999 5.60093 6.89999 5.60093C6.79999 5.60093 6.69999 5.60093 6.59999 5.60093C6.49999 5.60093 6.4 5.70093 6.3 5.80093C6.2 5.90093 6.19999 5.90093 6.09999 6.00093C6.09999 6.10093 6.09999 6.20093 6.09999 6.30093C6.09999 6.40093 6.1 6.50093 6.2 6.60093C6.3 6.70093 6.29999 6.80093 6.39999 6.90093C6.59999 7.00093 6.7 7.10093 6.8 7.10093Z" fill="black"/>
<path d="M8.89999 6.50093L7.39999 4.40093L7.7 4.20093L9.5 5.10093L8.39999 3.70093L8.7 3.50093L10.2 5.50093L9.89999 5.70093L8 4.80093L9.09999 6.30093L8.89999 6.50093Z" fill="black"/>
<path d="M10.6 5.30093L10.3 5.50093L9.79999 2.90093L10.1 2.80093L12 4.60093L11.7 4.80093L11.2 4.30093L10.5 4.70094L10.6 5.30093ZM10.2 3.30093L10.4 4.20094L10.9 4.00093L10.2 3.30093Z" fill="black"/>
<path d="M12.1 4.50092L11.2 2.20092L11.5 2.10092L12.3 4.00092L12.9 3.80092L13 4.20092L12.1 4.50092Z" fill="black"/>
<path d="M13.8 1.30092L14.1 2.90092C14.1 3.10092 14.2 3.20092 14.3 3.30092C14.4 3.40092 14.5 3.40092 14.6 3.40092C14.7 3.40092 14.8 3.30092 14.8 3.20092C14.8 3.10092 14.8 3.00092 14.8 2.80092L14.5 1.20092L14.8 1.10092L15.1 2.60092C15.1 2.70092 15.1 2.90092 15.2 2.90092C15.2 3.00092 15.2 3.10092 15.2 3.20092C15.2 3.30092 15.1 3.40092 15 3.50092C14.9 3.60092 14.8 3.60092 14.7 3.70092C14.6 3.70092 14.5 3.70092 14.3 3.70092C14.2 3.70092 14.1 3.60092 14 3.50092C13.9 3.40092 13.9 3.30092 13.8 3.20092C13.8 3.10092 13.8 3.00092 13.7 2.90092L13.4 1.40092L13.8 1.30092Z" fill="black"/>
<path d="M15.7 3.50093L15.4 1.00093H15.8L16.9 2.70094L16.7 0.900932L17 0.800934L17.3 3.30093L17 3.40093L15.8 1.60093L16 3.50093H15.7Z" fill="black"/>
<path d="M17.7 3.40093V0.800934H18V3.40093H17.7Z" fill="black"/>
<path d="M18.9 3.40093L18.4 0.800934L18.7 0.900932L19.1 2.70094L19.8 1.00093H20.1L19.1 3.40093H18.9Z" fill="black"/>
<path d="M20 3.50092L20.5 1.10092L21.6 1.30092L21.5 1.60092L20.8 1.50092L20.6 2.20092L21.4 2.30092L21.3 2.70092L20.6 2.50092L20.4 3.20092L21.2 3.40092L21.1 3.70092L20 3.50092Z" fill="black"/>
<path d="M22.8 2.90093C22.7 3.00093 22.5 3.10093 22.3 3.10093L22.6 4.30093L22.2 4.20093L21.9 3.10093H21.8L21.5 4.00093L21.2 3.90093L21.9 1.50093L22.4 1.60093C22.5 1.60093 22.6 1.70093 22.7 1.70093C22.8 1.70093 22.8 1.80093 22.9 1.80093C23 1.90093 23 2.00093 23 2.10093C23 2.20093 23 2.40093 23 2.50093C23 2.60093 22.9 2.80093 22.8 2.90093ZM22.7 2.10093C22.7 2.00093 22.6 2.00093 22.4 1.90093L22.2 1.80093L22 2.50093L22.2 2.60093C22.3 2.60093 22.4 2.60093 22.5 2.60093C22.6 2.60093 22.6 2.50093 22.7 2.30093C22.8 2.30093 22.8 2.20093 22.7 2.10093Z" fill="black"/>
<path d="M23.3 3.70092C23.3 3.80092 23.2 3.90092 23.3 4.00092C23.3 4.10092 23.4 4.10092 23.5 4.20092C23.6 4.20092 23.7 4.20092 23.8 4.20092C23.9 4.20092 23.9 4.10092 24 4.00092C24.1 3.90092 24.1 3.80092 24 3.70092C24 3.60092 23.9 3.60092 23.8 3.50092C23.7 3.40092 23.7 3.40092 23.6 3.30092C23.5 3.20092 23.5 3.10092 23.5 3.10092C23.5 3.00092 23.5 3.00092 23.5 2.90092C23.5 2.80092 23.5 2.80092 23.6 2.70092C23.7 2.50092 23.8 2.40092 24 2.30092C24.1 2.20092 24.3 2.20092 24.5 2.30092C24.6 2.40092 24.7 2.50092 24.8 2.60092C24.8 2.80092 24.8 2.90092 24.7 3.10092L24.4 3.00092C24.4 2.90092 24.4 2.80092 24.4 2.70092C24.4 2.60092 24.3 2.60092 24.3 2.60092C24.2 2.60092 24.2 2.60092 24.1 2.60092C24 2.60092 24 2.70092 23.9 2.80092V2.90092V3.00092C23.9 3.00092 23.9 3.10092 24 3.10092L24.1 3.20092L24.2 3.30092C24.3 3.40092 24.4 3.50092 24.4 3.70092C24.4 3.80092 24.4 4.00092 24.3 4.10092C24.2 4.30092 24.1 4.50092 23.9 4.60092C23.7 4.70092 23.6 4.70092 23.4 4.60092C23.2 4.50092 23.1 4.40092 23.1 4.20092C23.1 4.00092 23.1 3.80092 23.2 3.60092L23.3 3.70092Z" fill="black"/>
<path d="M24.1 4.80092L25.2 2.60092L25.5 2.80092L24.3 5.00092L24.1 4.80092Z" fill="black"/>
<path d="M24.9 5.30093L26 3.50093L25.7 3.30093L25.9 2.90092L26.9 3.50093L26.7 3.90092L26.3 3.60093L25.2 5.50093L24.9 5.30093Z" fill="black"/>
<path d="M26.4 6.30093L26.1 6.10093L26.7 5.30093L27.1 3.70093L27.4 3.90092L27 5.10093L28.1 4.40092L28.4 4.60093L26.9 5.60093L26.4 6.30093Z" fill="black"/>
<path d="M29 6.10093C29.2 6.00093 29.3 6.00093 29.5 6.00093C29.7 6.00093 29.8 6.00093 29.9 6.10093C30 6.10093 30.1 6.20093 30.2 6.30093C30.3 6.40093 30.4 6.50093 30.4 6.70093C30.4 6.80093 30.4 7.00093 30.4 7.10093C30.4 7.30093 30.3 7.40093 30.2 7.60093C30.1 7.70093 30 7.90093 29.9 8.00093C29.8 8.10093 29.6 8.20093 29.5 8.30093C29.4 8.40093 29.2 8.40093 29.1 8.40093C28.9 8.40093 28.8 8.40093 28.6 8.30093C28.5 8.20093 28.3 8.20093 28.2 8.10093C28.1 8.00093 28 7.90093 28 7.70093C28 7.60093 28 7.40093 28 7.20093C28 7.10093 28.1 6.90093 28.2 6.80093C28.3 6.70093 28.4 6.50093 28.5 6.40093C28.7 6.30093 28.8 6.20093 29 6.10093ZM28.5 6.90093C28.4 7.00093 28.4 7.10093 28.4 7.20093C28.4 7.30093 28.4 7.40093 28.4 7.50093C28.4 7.60093 28.5 7.70093 28.5 7.80093C28.6 8.00093 28.8 8.00093 29 8.00093C29.2 8.00093 29.4 7.90093 29.6 7.70093C29.7 7.60093 29.8 7.50093 29.8 7.40093C29.9 7.30093 29.9 7.20093 29.9 7.10093C29.9 7.00093 29.9 6.90093 29.9 6.80093C29.9 6.70093 29.8 6.60093 29.8 6.50093C29.7 6.40093 29.7 6.40093 29.6 6.30093C29.5 6.30093 29.4 6.20093 29.3 6.30093C29.2 6.30093 29.1 6.30093 29 6.40093C28.9 6.40093 28.8 6.50093 28.7 6.60093C28.7 6.80093 28.6 6.80093 28.5 6.90093Z" fill="black"/>
<path d="M31.2 7.60092L31.8 8.50092L31.5 8.70092L31.1 8.10092L30.5 8.50092L30.9 9.10092L30.6 9.30092L30.2 8.70092L29.3 9.30092L29.1 9.10092L31.2 7.60092Z" fill="black"/>
<path d="M30.3 10.9009L32.5 9.80093L33 10.7009L32.7 10.9009L32.3 10.2009L31.7 10.5009L32 11.2009L31.7 11.4009L31.4 10.7009L30.7 11.0009L31.1 11.7009L30.7 11.8009L30.3 10.9009Z" fill="black"/>
<path d="M30.8 12.1009L33.2 11.3009L33.4 11.9009C33.5 12.2009 33.5 12.5009 33.3 12.7009C33.1 13.0009 32.9 13.1009 32.5 13.3009C32.4 13.3009 32.2 13.3009 32 13.3009C31.8 13.3009 31.6 13.2009 31.5 13.2009C31.4 13.1009 31.3 13.0009 31.2 12.9009C31.1 12.8009 31.1 12.7009 31 12.6009L30.8 12.1009ZM31.4 12.6009C31.5 12.8009 31.6 13.0009 31.8 13.0009C32 13.1009 32.2 13.1009 32.5 13.0009C32.8 12.9009 33 12.8009 33.1 12.6009C33.2 12.4009 33.2 12.2009 33.1 12.0009L33 11.7009L31.3 12.3009L31.4 12.6009Z" fill="black"/>
<path d="M34 13.7009L32.4 14.0009C32.2 14.0009 32.1 14.1009 32 14.2009C31.9 14.3009 31.9 14.4009 31.9 14.5009C31.9 14.6009 32 14.7009 32.1 14.7009C32.2 14.7009 32.3 14.7009 32.5 14.7009L34.1 14.4009L34.2 14.7009L32.6 15.0009C32.5 15.0009 32.3 15.0009 32.3 15.1009C32.2 15.1009 32.1 15.1009 32 15.1009C31.9 15.1009 31.8 15.0009 31.7 14.9009C31.6 14.8009 31.6 14.7009 31.6 14.6009C31.6 14.5009 31.6 14.4009 31.6 14.3009C31.6 14.2009 31.7 14.1009 31.8 14.0009C31.9 13.9009 32 13.9009 32.1 13.8009C32.2 13.8009 32.3 13.8009 32.4 13.7009L34 13.4009V13.7009Z" fill="black"/>
<path d="M32 17.0009C31.9 16.9009 31.8 16.7009 31.8 16.5009C31.8 16.3009 31.8 16.2009 31.9 16.1009C32 16.0009 32.1 15.8009 32.2 15.7009C32.3 15.6009 32.4 15.5009 32.6 15.5009C32.7 15.4009 32.9 15.4009 33.1 15.4009C33.3 15.4009 33.4 15.4009 33.6 15.4009C33.8 15.4009 33.9 15.5009 34 15.6009C34.1 15.7009 34.2 15.8009 34.3 15.9009C34.4 16.0009 34.4 16.2009 34.4 16.3009C34.4 16.5009 34.4 16.7009 34.3 16.9009C34.2 17.1009 34 17.2009 33.8 17.3009V16.9009C33.9 16.8009 34 16.7009 34 16.6009C34 16.5009 34.1 16.4009 34.1 16.3009C34.1 16.2009 34.1 16.1009 34 16.0009C33.9 15.9009 33.9 15.8009 33.8 15.8009C33.7 15.7009 33.6 15.7009 33.5 15.7009C33.4 15.7009 33.3 15.7009 33.2 15.7009C33.1 15.7009 33 15.7009 32.8 15.8009C32.7 15.8009 32.6 15.9009 32.5 16.0009C32.4 16.1009 32.4 16.2009 32.3 16.2009C32.3 16.3009 32.2 16.4009 32.2 16.5009C32.2 16.6009 32.2 16.7009 32.3 16.8009C32.4 16.9009 32.4 17.0009 32.5 17.0009V17.4009C32.4 17.3009 32.2 17.2009 32 17.0009Z" fill="black"/>
<path d="M31.9 17.8009V17.5009L34.4 18.5009V18.8009L31.8 19.4009V19.0009L32.5 18.8009L32.6 18.0009L31.9 17.8009ZM33.9 18.6009L33 18.3009V18.8009L33.9 18.6009Z" fill="black"/>
<path d="M31.7 19.8009L33.8 20.2009L33.9 19.8009H34.3L34.1 21.0009L33.7 20.9009L33.8 20.5009L31.7 20.1009V19.8009Z" fill="black"/>
<path d="M31.5 20.8009L34 21.4009L33.9 21.7009L31.5 21.1009V20.8009Z" fill="black"/>
<path d="M33.1 22.1009C33.2 22.2009 33.3 22.3009 33.4 22.5009C33.5 22.6009 33.5 22.8009 33.5 22.9009C33.5 23.0009 33.5 23.2009 33.5 23.3009C33.5 23.4009 33.4 23.6009 33.3 23.6009C33.2 23.7009 33.1 23.8009 32.9 23.8009C32.7 23.9009 32.6 23.9009 32.4 23.9009C32.2 23.9009 32.1 23.9009 31.9 23.8009C31.7 23.7009 31.6 23.7009 31.5 23.6009C31.4 23.5009 31.3 23.4009 31.2 23.3009C31.1 23.2009 31.1 23.0009 31 22.9009C31 22.8009 31 22.6009 31 22.5009C31.1 22.4009 31.1 22.2009 31.3 22.1009C31.4 22.0009 31.6 21.9009 31.7 21.9009C31.8 21.9009 32 21.8009 32.1 21.9009C32.3 21.9009 32.4 22.0009 32.6 22.0009C32.8 21.9009 32.9 22.0009 33.1 22.1009ZM32.1 22.1009C32 22.1009 31.9 22.1009 31.8 22.1009C31.7 22.1009 31.6 22.2009 31.5 22.3009C31.4 22.4009 31.4 22.4009 31.3 22.5009C31.2 22.7009 31.3 22.9009 31.4 23.1009C31.5 23.3009 31.7 23.4009 31.9 23.5009C32 23.5009 32.1 23.6009 32.2 23.6009C32.3 23.6009 32.4 23.6009 32.5 23.6009C32.6 23.6009 32.7 23.5009 32.8 23.4009C32.9 23.3009 32.9 23.3009 33 23.2009C33 23.1009 33 23.0009 33 22.9009C33 22.8009 33 22.7009 32.9 22.6009C32.8 22.5009 32.8 22.4009 32.7 22.3009C32.6 22.2009 32.5 22.2009 32.4 22.1009C32.4 22.1009 32.3 22.1009 32.1 22.1009Z" fill="black"/>
<path d="M30.6 23.6009L32.8 24.8009L32.6 25.0009H30.6L32.2 25.9009L32 26.2009L29.8 25.0009L30 24.7009H32.1L30.4 23.8009L30.6 23.6009Z" fill="black"/>
<path d="M9.19999 30.2009L8.99999 30.5009L8.49999 30.1009C8.49999 30.2009 8.49999 30.3009 8.49999 30.4009C8.49999 30.5009 8.39999 30.6009 8.39999 30.7009C8.19999 30.9009 7.99999 31.0009 7.69999 31.0009C7.39999 31.0009 7.19999 30.9009 6.99999 30.7009C6.79999 30.5009 6.59999 30.3009 6.59999 30.0009C6.49999 29.7009 6.59999 29.5009 6.79999 29.3009C6.89999 29.2009 6.99999 29.1009 7.09999 29.1009C7.19999 29.1009 7.29999 29.0009 7.39999 29.0009L6.79999 28.7009L6.99999 28.4009L7.79999 29.1009L8.09999 28.7009L8.39999 28.9009L8.09999 29.3009L8.79999 29.9009L9.29999 29.3009L7.59999 27.9009L7.79999 27.6009L9.79999 29.3009L9.09999 30.1009L9.19999 30.2009ZM7.39999 29.4009C7.19999 29.4009 7.09999 29.5009 6.99999 29.6009C6.89999 29.7009 6.89999 29.9009 6.89999 30.0009C6.89999 30.2009 6.99999 30.3009 7.09999 30.4009C7.19999 30.5009 7.39999 30.5009 7.49999 30.5009C7.69999 30.5009 7.79999 30.4009 7.89999 30.3009C7.99999 30.2009 7.99999 30.0009 7.99999 29.8009C7.99999 29.6009 7.89999 29.5009 7.79999 29.4009C7.69999 29.5009 7.59999 29.4009 7.39999 29.4009Z" fill="black"/>
<path d="M11.5 30.6009C11.4 30.8009 11.5 30.9009 11.6 31.1009C11.7 31.2009 11.9 31.4009 12.2 31.5009L12 31.8009C11.7 31.7009 11.5 31.5009 11.4 31.4009C11.2 31.2009 11 31.0009 11 30.8009C10.8 30.9009 10.6 30.9009 10.3 30.8009C10.1 30.8009 9.89999 30.7009 9.59999 30.6009L9.8 30.3009C10.1 30.4009 10.3 30.5009 10.5 30.5009C10.7 30.5009 10.9 30.5009 11 30.3009L10.1 29.8009L10.3 29.5009L12.7 30.7009L12.5 31.0009L11.5 30.6009ZM10 32.7009L10.4 31.9009L9.39999 31.3009L9.59999 31.0009L12.1 32.3009L11.9 32.6009L10.8 32.0009L10.4 32.8009L10 32.7009Z" fill="black"/>
<path d="M15.3 33.9009V34.2009L12.5 33.6009L12.6 33.2009L13 33.3009L13.3 32.2009L13.7 32.3009L13.4 33.4009L13.8 33.5009L14.1 32.4009L14.5 32.5009L14.2 33.6009L14.7 33.7009L15.2 31.8009L13.2 31.3009L13.3 31.0009L15.6 31.6009L15.1 33.8009L15.3 33.9009Z" fill="black"/>
<path d="M17.3 31.9009C17.2 32.0009 17.1 32.1009 17.1 32.2009C17.1 32.3009 17.2 32.4009 17.3 32.5009C17.4 32.6009 17.5 32.6009 17.7 32.6009C17.8 32.6009 17.9 32.6009 18 32.5009C18.1 32.4009 18.2 32.3009 18.2 32.2009C18.2 32.1009 18.1 32.0009 18 31.9009C17.9 31.8009 17.8 31.8009 17.7 31.8009C17.6 31.8009 17.4 31.8009 17.3 31.9009ZM18.1 33.5009V33.1009H17.2V33.5009H18.1ZM19 33.5009V33.7009V34.5009H18.6V33.8009H16.4V33.5009H16.9V33.1009H16.3V32.8009H17C16.9 32.7009 16.9 32.6009 16.8 32.6009C16.8 32.5009 16.7 32.4009 16.7 32.3009C16.7 32.1009 16.8 31.9009 17 31.7009C17.2 31.6009 17.4 31.5009 17.6 31.5009C17.8 31.5009 18 31.6009 18.2 31.7009C18.4 31.8009 18.5 32.0009 18.5 32.3009C18.5 32.4009 18.5 32.5009 18.4 32.6009C18.4 32.7009 18.3 32.8009 18.2 32.8009H19V33.1009H18.4V33.5009H19Z" fill="black"/>
<path d="M20.4 33.3009L21.6 33.0009L21.2 31.3009L21.6 31.2009L21.8 32.1009L22.1 32.0009L21.8 31.1009L22.2 31.0009L22.8 33.7009L22.4 33.8009L22.1 32.3009L21.8 32.4009L22.1 33.9009L21.8 34.0009L21.7 33.4009L20.4 33.7009C20.3 33.7009 20.3 33.7009 20.2 33.7009C20.1 33.7009 20.1 33.6009 20.1 33.5009L19.7 31.6009L20.9 31.3009L21 31.6009L20.1 31.8009L20.4 33.3009Z" fill="black"/>
<path d="M24.2 30.6009C24.3 30.6009 24.3 30.7009 24.4 30.7009L24.5 30.8009C24.6 31.0009 24.6 31.2009 24.5 31.4009C24.4 31.6009 24.3 31.7009 24.1 31.8009C23.9 31.9009 23.7 31.9009 23.5 31.9009C23.3 31.9009 23.2 31.7009 23.1 31.6009C23.1 31.5009 23.1 31.5009 23 31.4009C23 31.3009 23 31.3009 23 31.2009L22.8 31.3009V30.9009L23.4 30.6009L23.3 30.4009L23.7 30.2009L23.8 30.4009L24.4 30.1009L24.5 30.4009L24.2 30.6009ZM23.5 31.1009C23.5 31.2009 23.5 31.3009 23.5 31.4009C23.5 31.5009 23.6 31.5009 23.7 31.6009C23.8 31.6009 23.9 31.6009 24 31.6009C24.1 31.6009 24.1 31.5009 24.2 31.4009C24.2 31.3009 24.2 31.2009 24.2 31.1009C24.2 31.0009 24.1 31.0009 24 30.9009C23.9 30.9009 23.8 30.9009 23.7 30.9009C23.6 30.9009 23.5 31.0009 23.5 31.1009ZM25.4 30.4009L25.6 30.9009L25.2 31.1009L24.6 29.9009L24.9 29.7009L25.1 30.1009L25.5 29.9009L25.7 30.2009L25.4 30.4009ZM26.3 32.2009L25.9 32.4009L25.5 31.7009L23.6 32.6009V32.3009L25.8 31.2009L26.3 32.2009Z" fill="black"/>
<path d="M29.2 29.5009L29.4 29.7009L27.2 31.5009L27 31.2009L27.3 30.9009L26.6 30.0009L26.9 29.8009L27.6 30.7009L28 30.4009L27.2 29.5009L27.5 29.3009L28.3 30.2009L28.7 29.8009L27.5 28.3009L25.9 29.6009L25.7 29.3009L27.5 27.8009L29 29.6009L29.2 29.5009Z" fill="black"/>
<path d="M15.1 28.7009V27.0009H14.8V26.7009H15.5V28.7009H15.1Z" fill="white"/>
<path d="M16.4 28.8009L16.8 28.1009H16.7C16.5 28.1009 16.4 28.0009 16.2 27.9009C16.1 27.8009 16 27.6009 16 27.4009C16 27.3009 16 27.3009 16 27.2009C16 27.1009 16 27.1009 16.1 27.0009C16.2 26.9009 16.3 26.8009 16.4 26.7009C16.5 26.6009 16.6 26.6009 16.8 26.6009C16.9 26.6009 17 26.6009 17.1 26.7009C17.2 26.7009 17.3 26.8009 17.3 26.9009C17.4 27.0009 17.4 27.0009 17.5 27.1009C17.5 27.2009 17.6 27.3009 17.6 27.4009C17.6 27.5009 17.6 27.6009 17.5 27.8009C17.5 27.9009 17.4 28.0009 17.3 28.2009L16.9 28.9009H16.4V28.8009ZM17 27.1009C16.9 27.0009 16.8 27.0009 16.7 27.0009C16.6 27.0009 16.5 27.0009 16.4 27.1009C16.3 27.2009 16.3 27.3009 16.3 27.4009C16.3 27.5009 16.3 27.6009 16.4 27.7009C16.5 27.8009 16.6 27.8009 16.7 27.8009C16.8 27.8009 16.9 27.8009 17 27.7009C17.1 27.6009 17.1 27.5009 17.1 27.4009C17.2 27.3009 17.1 27.2009 17 27.1009Z" fill="white"/>
<path d="M18.1 28.1009C18.1 28.2009 18.1 28.3009 18.2 28.4009C18.3 28.5009 18.3 28.5009 18.5 28.5009C18.6 28.5009 18.7 28.5009 18.8 28.4009C18.9 28.3009 18.9 28.2009 18.9 28.1009C18.9 28.0009 18.9 27.9009 18.8 27.8009C18.7 27.7009 18.6 27.7009 18.5 27.7009V27.4009C18.6 27.4009 18.7 27.4009 18.7 27.3009C18.8 27.3009 18.8 27.2009 18.8 27.1009C18.8 27.0009 18.8 27.0009 18.7 26.9009C18.7 26.9009 18.6 26.8009 18.5 26.8009C18.4 26.8009 18.4 26.8009 18.3 26.9009C18.3 26.9009 18.2 27.0009 18.2 27.1009H17.9C17.9 26.9009 18 26.8009 18.1 26.7009C18.2 26.6009 18.3 26.6009 18.5 26.6009C18.6 26.6009 18.8 26.7009 18.9 26.8009C19 26.9009 19.1 27.0009 19.1 27.2009C19.1 27.3009 19.1 27.3009 19.1 27.4009C19.1 27.5009 19 27.5009 19 27.6009C19.1 27.7009 19.2 27.7009 19.2 27.8009C19.3 27.9009 19.3 28.0009 19.3 28.1009C19.3 28.3009 19.2 28.5009 19.1 28.6009C19 28.7009 18.8 28.8009 18.6 28.8009C18.4 28.8009 18.2 28.7009 18.1 28.6009C17.9 28.5009 17.8 28.3009 17.8 28.1009H18.1Z" fill="white"/>
<path d="M19.7 27.8009C19.8 27.7009 19.8 27.6009 20 27.6009C19.9 27.5009 19.9 27.5009 19.9 27.4009C19.9 27.3009 19.9 27.3009 19.9 27.2009C19.9 27.0009 20 26.9009 20.1 26.8009C20.2 26.7009 20.3 26.6009 20.5 26.6009C20.7 26.6009 20.8 26.7009 20.9 26.8009C21 26.9009 21.1 27.0009 21.1 27.2009C21.1 27.3009 21.1 27.3009 21 27.4009C21 27.5009 20.9 27.5009 20.8 27.6009C20.9 27.7009 21 27.7009 21.1 27.8009C21.1 27.9009 21.2 28.0009 21.2 28.1009C21.2 28.3009 21.1 28.5009 21 28.6009C20.9 28.7009 20.7 28.8009 20.5 28.8009C20.3 28.8009 20.2 28.7009 20 28.6009C19.9 28.5009 19.8 28.3009 19.8 28.1009C19.6 28.0009 19.6 27.9009 19.7 27.8009ZM20.1 27.4009C20.1 27.4009 20.2 27.5009 20.3 27.5009C20.4 27.5009 20.4 27.5009 20.5 27.4009C20.5 27.4009 20.6 27.3009 20.6 27.2009C20.6 27.1009 20.6 27.1009 20.5 27.0009C20.5 27.0009 20.4 26.9009 20.3 26.9009C20.2 26.9009 20.2 26.9009 20.1 27.0009C20.1 27.0009 20 27.1009 20 27.2009C20 27.3009 20.1 27.3009 20.1 27.4009ZM20 28.4009C20.1 28.5009 20.2 28.5009 20.3 28.5009C20.4 28.5009 20.5 28.5009 20.6 28.4009C20.7 28.3009 20.7 28.2009 20.7 28.1009C20.7 28.0009 20.7 27.9009 20.6 27.8009C20.5 27.7009 20.4 27.7009 20.3 27.7009C20.2 27.7009 20.1 27.7009 20 27.8009C19.9 27.9009 19.9 27.9009 19.9 28.1009C19.9 28.2009 19.9 28.3009 20 28.4009Z" fill="white"/>
<path d="M8.7 15.1009L7.5 12.0009L12.5 9.90092L17.5 12.4009V24.7009L14.3 26.4009L12.6 23.0009C12.6 23.0009 14 23.4009 14.8 22.2009C14.8 22.2009 15.4 21.7009 15.4 20.3009C15.4 18.9009 15.4 16.2009 15.4 16.2009C15.4 16.2009 15.5 13.7009 12.3 13.7009C12.3 13.7009 10.2 13.7009 8.7 15.1009Z" fill="white"/>
<path d="M26.9 15.1009L28.1 12.0009L23.1 9.90092L18.1 12.4009V24.7009L21.3 26.4009L23 23.0009C23 23.0009 21.6 23.4009 20.8 22.2009C20.8 22.2009 20.2 21.7009 20.2 20.3009C20.2 18.9009 20.2 16.2009 20.2 16.2009C20.2 16.2009 20.1 13.7009 23.3 13.7009C23.3 13.7009 25.4 13.7009 26.9 15.1009Z" fill="white"/>
<path d="M53.8 53.4009V55.4009H50.1C50.6 55.9009 50.9 56.4009 51.2 57.0009C51.5 57.6009 51.7 58.3009 51.7 59.0009C51.7 60.6009 51.1 62.0009 49.9 63.0009C48.8 64.0009 47.6 64.5009 46.1 64.5009C44.6 64.5009 43.3 64.0009 42.2 63.0009C41.1 61.9009 40.5 60.6009 40.5 59.0009C40.5 58.3009 40.6 57.6009 40.9 57.0009C41.2 56.4009 41.5 55.9009 42 55.4009H38.5V53.4009H44V50.6009H46V53.4009H50.8V49.0009H39.2V47.0009H53.1V53.4009H53.8ZM43.8 56.6009C43.1 57.3009 42.8 58.1009 42.8 59.1009C42.8 60.1009 43.1 60.9009 43.8 61.6009C44.5 62.3009 45.2 62.6009 46.1 62.6009C47 62.6009 47.7 62.3009 48.4 61.6009C49.1 60.9009 49.4 60.1009 49.4 59.1009C49.4 58.1009 49.1 57.3009 48.4 56.6009C47.7 55.9009 47 55.6009 46.1 55.6009C45.2 55.6009 44.5 55.9009 43.8 56.6009Z" fill="#95979D"/>
<path d="M64.2 49.0009C64.2 50.1009 64.8 50.8009 65.9 51.3009C66.8 51.7009 68.1 51.9009 69.8 51.9009V53.9009C68.3 53.8009 67 53.7009 66.1 53.4009C64.6 53.0009 63.5 52.4009 62.9 51.5009C62.3 52.4009 61.2 53.0009 59.7 53.4009C58.7 53.6009 57.5 53.8009 56 53.9009V51.9009C57.7 51.8009 59 51.6009 59.9 51.3009C61 50.8009 61.6 50.0009 61.6 49.0009H56V47.0009H69.9V49.0009H64.2ZM61.7 63.7009V58.3009H55.3V56.3009H70.2V58.3009H63.8V63.7009H61.7Z" fill="#95979D"/>
<path d="M87 60.6009V62.7009H72V60.6009H74.5V53.6009H76.5V60.6009H78.8V53.6009H80.9V60.6009H83.7V49.0009H72.9V47.0009H85.7V60.6009H87Z" fill="#95979D"/>
<path d="M103.1 57.7009V58.9009V63.6009H101.1V59.8009H89.3V57.8009H91.9V55.6009H88.8V53.6009H92.7C92.3 53.2009 92 52.7009 91.8 52.2009C91.6 51.7009 91.5 51.1009 91.5 50.5009C91.5 49.2009 92 48.0009 93 47.2009C93.9 46.4009 95.1 46.0009 96.4 46.0009C97.6 46.0009 98.7 46.4009 99.6 47.2009C100.6 48.1009 101.1 49.2009 101.1 50.5009C101.1 51.1009 101 51.7009 100.7 52.2009C100.5 52.7009 100.2 53.2009 99.8 53.6009H103.8V55.6009H100.7V57.8009H103.1V57.7009ZM94.3 48.6009C93.8 49.1009 93.5 49.8009 93.5 50.5009C93.5 51.2009 93.8 51.9009 94.3 52.4009C94.8 52.9009 95.5 53.2009 96.2 53.2009C96.9 53.2009 97.5 52.9009 98 52.4009C98.5 51.9009 98.8 51.2009 98.8 50.5009C98.8 49.7009 98.5 49.1009 98 48.6009C97.5 48.1009 96.9 47.8009 96.2 47.8009C95.5 47.8009 94.8 48.1009 94.3 48.6009ZM98.5 57.7009V55.5009H93.9V57.7009H98.5Z" fill="#95979D"/>
<path d="M108.1 57.8009H114.4V47.0009H116.3V52.3009H117.9V47.0009H119.9V63.6009H117.9V54.3009H116.3V63.6009H114.4V59.9009H107.4C107 59.9009 106.7 59.8009 106.5 59.7009C106.3 59.5009 106.1 59.2009 106.1 58.7009V47.0009H112.8V49.0009H108.2V57.8009H108.1Z" fill="#95979D"/>
<path d="M130.5 49.6009C130.7 49.9009 130.9 50.2009 131 50.5009C131.1 50.8009 131.2 51.2009 131.2 51.6009C131.2 52.8009 130.8 53.8009 130 54.5009C129.2 55.2009 128.3 55.6009 127.2 55.6009C126.1 55.6009 125.2 55.2009 124.4 54.5009C123.6 53.7009 123.1 52.8009 123.1 51.6009C123.1 51.2009 123.2 50.9009 123.3 50.5009C123.4 50.2009 123.6 49.9009 123.8 49.6009H122.6V47.6009H126.1V46.0009H128.3V47.6009H131.6V49.6009H130.5ZM125.7 50.2009C125.3 50.6009 125.1 51.1009 125.1 51.6009C125.1 52.1009 125.3 52.6009 125.7 53.0009C126.1 53.4009 126.6 53.6009 127.1 53.6009C127.6 53.6009 128.1 53.4009 128.5 53.0009C128.9 52.6009 129.1 52.1009 129.1 51.6009C129.1 51.0009 128.9 50.6009 128.5 50.2009C128.1 49.8009 127.6 49.6009 127.1 49.6009C126.6 49.6009 126.1 49.8009 125.7 50.2009ZM136.6 51.7009V55.0009H134.6V47.0009H136.6V49.7009H138.7V51.7009H136.6ZM136.6 63.6009H134.6V58.8009H123.5V56.8009H136.7V63.6009H136.6Z" fill="#95979D"/>
<path d="M153.8 60.6009V62.7009H138.9V60.6009H141.3V53.6009H143.4V60.6009H145.7V53.6009H147.7V60.6009H150.5V49.0009H139.8V47.0009H152.6V60.6009H153.8Z" fill="#95979D"/>
<path d="M42.7 69.1009C42.7 69.9009 42.5 70.5009 42.1 70.9009C41.7 71.4009 41.3 71.6009 40.7 71.6009C40.4 71.6009 40.1 71.5009 39.9 71.4009C39.6 71.3009 39.4 71.1009 39.2 70.8009C39 70.6009 38.9 70.3009 38.8 70.0009C38.7 69.7009 38.7 69.4009 38.7 69.1009C38.7 68.8009 38.8 68.5009 38.9 68.2009C39 67.9009 39.2 67.6009 39.4 67.4009C39.6 67.2009 39.8 67.0009 40 66.9009C40.2 66.8009 40.5 66.7009 40.8 66.7009C41.2 66.7009 41.6 66.8009 41.9 67.0009C42.2 67.2009 42.4 67.6009 42.6 68.0009H41.8C41.7 67.8009 41.5 67.7009 41.3 67.6009C41.1 67.5009 40.9 67.5009 40.7 67.5009C40.5 67.5009 40.3 67.5009 40.2 67.6009C40 67.7009 39.9 67.8009 39.8 68.0009C39.7 68.2009 39.6 68.3009 39.5 68.6009C39.4 68.8009 39.4 69.0009 39.4 69.2009C39.4 69.4009 39.4 69.7009 39.5 69.9009C39.6 70.1009 39.7 70.3009 39.8 70.5009C39.9 70.7009 40.1 70.8009 40.3 70.9009C40.5 71.0009 40.6 71.0009 40.8 71.0009C41.1 71.0009 41.3 70.9009 41.5 70.7009C41.7 70.5009 41.9 70.3009 42 69.9009H40.7V69.2009H42.7V69.1009Z" fill="#95979D"/>
<path d="M43.2 68.2009C43.3 67.9009 43.5 67.6009 43.7 67.4009C43.9 67.2009 44.1 67.0009 44.3 66.9009C44.5 66.8009 44.8 66.7009 45.1 66.7009C45.4 66.7009 45.6 66.8009 45.9 66.9009C46.1 67.0009 46.4 67.2009 46.6 67.4009C46.8 67.6009 47 67.9009 47.1 68.2009C47.2 68.5009 47.3 68.8009 47.3 69.1009C47.3 69.4009 47.3 69.7009 47.2 70.0009C47.1 70.3009 47 70.5009 46.8 70.8009C46.6 71.1009 46.4 71.3009 46.1 71.4009C45.8 71.5009 45.6 71.6009 45.3 71.6009C45 71.6009 44.7 71.5009 44.5 71.4009C44.2 71.3009 44 71.1009 43.8 70.8009C43.6 70.6009 43.5 70.3009 43.4 70.0009C43.3 69.7009 43.3 69.4009 43.3 69.1009C43 68.8009 43.1 68.5009 43.2 68.2009ZM43.8 69.8009C43.9 70.0009 44 70.2009 44.1 70.4009C44.2 70.6009 44.4 70.7009 44.6 70.8009C44.8 70.9009 44.9 70.9009 45.1 70.9009C45.5 70.9009 45.8 70.7009 46.1 70.4009C46.4 70.1009 46.5 69.6009 46.5 69.2009C46.5 69.0009 46.5 68.8009 46.4 68.6009C46.3 68.4009 46.2 68.2009 46.1 68.1009C46 67.9009 45.8 67.8009 45.6 67.7009C45.4 67.6009 45.2 67.6009 45 67.6009C44.8 67.6009 44.6 67.6009 44.5 67.7009C44.3 67.8009 44.2 67.9009 44.1 68.1009C43.9 68.1009 43.8 68.3009 43.8 68.5009C43.7 68.7009 43.7 68.9009 43.7 69.1009C43.7 69.4009 43.7 69.6009 43.8 69.8009Z" fill="#95979D"/>
<path d="M47.6 71.5009V66.8009H48.2L50 70.2009V66.8009H50.6V71.5009H50.1L48.2 68.0009V71.5009H47.6Z" fill="#95979D"/>
<path d="M55.2 69.1009C55.2 69.9009 55 70.5009 54.6 70.9009C54.2 71.4009 53.8 71.6009 53.2 71.6009C52.9 71.6009 52.6 71.5009 52.4 71.4009C52.2 71.3009 51.9 71.1009 51.7 70.8009C51.5 70.6009 51.4 70.3009 51.3 70.0009C51.2 69.7009 51.2 69.4009 51.2 69.1009C51.2 68.8009 51.3 68.5009 51.4 68.2009C51.5 67.9009 51.7 67.6009 51.9 67.4009C52.1 67.2009 52.3 67.0009 52.5 66.9009C52.7 66.8009 53 66.7009 53.3 66.7009C53.7 66.7009 54.1 66.8009 54.4 67.0009C54.7 67.2009 54.9 67.6009 55.1 68.0009H54.3C54.2 67.8009 54 67.7009 53.8 67.6009C53.6 67.5009 53.4 67.5009 53.2 67.5009C53 67.5009 52.8 67.5009 52.7 67.6009C52.5 67.7009 52.4 67.8009 52.3 68.0009C52.2 68.2009 52.1 68.3009 52 68.6009C51.9 68.8009 51.9 69.0009 51.9 69.2009C51.9 69.4009 51.9 69.7009 52 69.9009C52.1 70.1009 52.2 70.3009 52.3 70.5009C52.4 70.7009 52.6 70.8009 52.8 70.9009C53 71.0009 53.1 71.0009 53.3 71.0009C53.6 71.0009 53.8 70.9009 54 70.7009C54.2 70.5009 54.4 70.3009 54.5 69.9009H53.2V69.2009H55.2V69.1009Z" fill="#95979D"/>
<path d="M57.4 70.5009C57.4 70.7009 57.3 70.9009 57.3 71.0009C57.2 71.2009 57.1 71.3009 56.9 71.4009C56.7 71.5009 56.5 71.6009 56.3 71.6009C56 71.6009 55.7 71.5009 55.5 71.3009C55.3 71.1009 55.2 70.8009 55.2 70.4009H55.8C55.8 70.6009 55.9 70.7009 55.9 70.8009C56 70.9009 56.1 70.9009 56.2 70.9009C56.4 70.9009 56.6 70.8009 56.6 70.6009C56.7 70.5009 56.7 70.2009 56.7 69.8009V66.8009H57.3V69.9009C57.4 70.1009 57.4 70.3009 57.4 70.5009Z" fill="#95979D"/>
<path d="M58.6 66.8009V69.8009C58.6 70.2009 58.6 70.5009 58.7 70.6009C58.8 70.8009 59 70.9009 59.2 70.9009C59.4 70.9009 59.6 70.8009 59.7 70.6009C59.8 70.4009 59.8 70.2009 59.8 69.8009V66.8009H60.4V69.8009C60.4 70.1009 60.4 70.3009 60.4 70.5009C60.4 70.7009 60.3 70.9009 60.2 71.0009C60.1 71.2009 59.9 71.4009 59.8 71.5009C59.6 71.6009 59.4 71.7009 59.2 71.7009C58.9 71.7009 58.7 71.6009 58.5 71.5009C58.3 71.4009 58.1 71.2009 58 71.0009C57.9 70.8009 57.9 70.7009 57.8 70.4009C57.8 70.3009 57.8 70.1009 57.8 69.8009V66.8009H58.6Z" fill="#95979D"/>
<path d="M62.7 71.5009V66.8009H63.3L65.2 70.2009V66.8009H65.8V71.5009H65.2L63.3 68.0009V71.5009H62.7Z" fill="#95979D"/>
<path d="M66.7 71.5009H66L67.6 66.8009H68.2L69.7 71.5009H69L68.6 70.2009H67.1L66.7 71.5009ZM67.9 67.8009L67.4 69.5009H68.4L67.9 67.8009Z" fill="#95979D"/>
<path d="M70.6 71.5009V67.5009H69.7V66.8009H72V67.5009H71.2V71.5009H70.6Z" fill="#95979D"/>
<path d="M72.3 71.5009V66.8009H72.9V71.5009H72.3Z" fill="#95979D"/>
<path d="M73.6 68.2009C73.7 67.9009 73.9 67.6009 74.1 67.4009C74.3 67.2009 74.5 67.0009 74.7 66.9009C74.9 66.8009 75.2 66.7009 75.5 66.7009C75.8 66.7009 76 66.8009 76.3 66.9009C76.5 67.0009 76.8 67.2009 77 67.4009C77.2 67.6009 77.4 67.9009 77.5 68.2009C77.6 68.5009 77.7 68.8009 77.7 69.1009C77.7 69.4009 77.7 69.7009 77.6 70.0009C77.5 70.3009 77.4 70.5009 77.2 70.8009C77 71.1009 76.8 71.3009 76.5 71.4009C76.2 71.5009 76 71.6009 75.7 71.6009C75.4 71.6009 75.1 71.5009 74.9 71.4009C74.6 71.3009 74.4 71.1009 74.2 70.8009C74 70.6009 73.9 70.3009 73.8 70.0009C73.7 69.7009 73.7 69.4009 73.7 69.1009C73.4 68.8009 73.5 68.5009 73.6 68.2009ZM74.2 69.8009C74.3 70.0009 74.4 70.2009 74.5 70.4009C74.6 70.6009 74.8 70.7009 75 70.8009C75.2 70.9009 75.3 70.9009 75.5 70.9009C75.9 70.9009 76.2 70.7009 76.5 70.4009C76.8 70.1009 76.9 69.6009 76.9 69.2009C76.9 69.0009 76.9 68.8009 76.8 68.6009C76.7 68.4009 76.6 68.2009 76.5 68.1009C76.4 67.9009 76.2 67.8009 76 67.7009C75.8 67.6009 75.6 67.6009 75.4 67.6009C75.2 67.6009 75 67.6009 74.9 67.7009C74.7 67.8009 74.6 67.9009 74.5 68.1009C74.4 68.3009 74.3 68.4009 74.2 68.7009C74.1 68.9009 74.1 69.1009 74.1 69.3009C74.1 69.4009 74.1 69.6009 74.2 69.8009Z" fill="#95979D"/>
<path d="M77.9 71.5009V66.8009H78.6L80.4 70.2009V66.8009H81V71.5009H80.5L78.6 68.0009V71.5009H77.9Z" fill="#95979D"/>
<path d="M81.9 71.5009H81.2L82.8 66.8009H83.4L84.9 71.5009H84.2L83.8 70.2009H82.3L81.9 71.5009ZM83.1 67.8009L82.6 69.5009H83.6L83.1 67.8009Z" fill="#95979D"/>
<path d="M85.2 71.5009V66.8009H85.8V70.8009H87.1V71.5009H85.2Z" fill="#95979D"/>
<path d="M89.7 66.8009V69.8009C89.7 70.2009 89.7 70.5009 89.8 70.6009C89.9 70.8009 90.1 70.9009 90.3 70.9009C90.5 70.9009 90.7 70.8009 90.8 70.6009C90.9 70.4009 90.9 70.2009 90.9 69.8009V66.8009H91.5V69.8009C91.5 70.1009 91.5 70.3009 91.5 70.5009C91.5 70.7009 91.4 70.9009 91.3 71.0009C91.2 71.2009 91 71.4009 90.9 71.5009C90.7 71.6009 90.5 71.7009 90.3 71.7009C90 71.7009 89.8 71.6009 89.6 71.5009C89.4 71.4009 89.2 71.2009 89.1 71.0009C89 70.8009 88.9 70.7009 88.9 70.4009C88.9 70.3009 88.9 70.1009 88.9 69.8009V66.8009H89.7Z" fill="#95979D"/>
<path d="M92.2 71.5009V66.8009H92.8L94.7 70.2009V66.8009H95.3V71.5009H94.7L92.8 68.0009V71.5009H92.2Z" fill="#95979D"/>
<path d="M95.9 71.5009V66.8009H96.5V71.5009H95.9Z" fill="#95979D"/>
<path d="M98.2 71.5009L96.7 66.8009H97.4L98.4 70.2009L99.4 66.8009H100.1L98.6 71.5009H98.2Z" fill="#95979D"/>
<path d="M100.3 71.5009V66.8009H102.4V67.5009H100.9V68.8009H102.4V69.5009H100.9V70.8009H102.4V71.5009H100.3Z" fill="#95979D"/>
<path d="M105 69.0009C104.8 69.2009 104.6 69.4009 104.3 69.6009L105.5 71.5009H104.7L103.6 69.6009H103.5V71.5009H102.8V66.8009H103.7C103.9 66.8009 104.1 66.8009 104.2 66.8009C104.4 66.8009 104.5 66.9009 104.6 67.0009C104.8 67.1009 104.9 67.3009 105 67.5009C105.1 67.7009 105.2 67.9009 105.2 68.2009C105.2 68.5009 105.2 68.8009 105 69.0009ZM104.4 67.6009C104.3 67.5009 104.1 67.4009 103.8 67.4009H103.4V68.9009H103.8C104.1 68.9009 104.3 68.8009 104.4 68.7009C104.5 68.6009 104.6 68.4009 104.6 68.1009C104.6 68.0009 104.6 67.8009 104.4 67.6009Z" fill="#95979D"/>
<path d="M106.1 70.1009C106.1 70.3009 106.2 70.5009 106.3 70.7009C106.4 70.8009 106.5 70.9009 106.7 70.9009C106.9 70.9009 107 70.8009 107.2 70.7009C107.3 70.6009 107.4 70.4009 107.4 70.2009C107.4 70.0009 107.3 69.8009 107.2 69.7009C107.1 69.6009 107 69.5009 106.7 69.4009C106.5 69.3009 106.4 69.3009 106.3 69.2009C106.2 69.1009 106 69.0009 105.9 68.8009C105.8 68.7009 105.8 68.6009 105.7 68.5009C105.7 68.4009 105.7 68.2009 105.7 68.1009C105.7 67.7009 105.8 67.4009 106 67.1009C106.2 66.8009 106.5 66.7009 106.8 66.7009C107.1 66.7009 107.4 66.8009 107.5 67.0009C107.7 67.2009 107.8 67.6009 107.8 68.0009H107.2C107.2 67.8009 107.1 67.7009 107.1 67.5009C107 67.4009 106.9 67.3009 106.8 67.3009C106.6 67.3009 106.5 67.4009 106.4 67.5009C106.3 67.6009 106.3 67.8009 106.3 68.0009C106.3 68.1009 106.3 68.1009 106.3 68.2009C106.3 68.3009 106.3 68.3009 106.4 68.4009C106.5 68.5009 106.5 68.5009 106.6 68.6009C106.7 68.6009 106.7 68.7009 106.9 68.7009L107.2 68.8009C107.5 68.9009 107.7 69.1009 107.8 69.3009C107.9 69.5009 108 69.8009 108 70.1009C108 70.6009 107.9 70.9009 107.7 71.2009C107.5 71.5009 107.2 71.6009 106.8 71.6009C106.5 71.6009 106.2 71.5009 106 71.2009C105.8 70.9009 105.7 70.6009 105.7 70.1009H106.1V70.1009Z" fill="#95979D"/>
<path d="M108.3 71.5009V66.8009H108.9V71.5009H108.3Z" fill="#95979D"/>
<path d="M110 71.5009V67.5009H109.2V66.8009H111.4V67.5009H110.6V71.5009H110Z" fill="#95979D"/>
<path d="M113.3 71.5009H112.7V69.8009L111.5 66.8009H112.1L113 69.0009L113.8 66.8009H114.5L113.3 69.8009V71.5009Z" fill="#95979D"/>
<path d="M116.3 68.2009C116.4 67.9009 116.6 67.6009 116.8 67.4009C117 67.2009 117.2 67.0009 117.4 66.9009C117.6 66.8009 117.9 66.7009 118.2 66.7009C118.5 66.7009 118.7 66.8009 119 66.9009C119.2 67.0009 119.5 67.2009 119.7 67.4009C119.9 67.6009 120.1 67.9009 120.2 68.2009C120.3 68.5009 120.4 68.8009 120.4 69.1009C120.4 69.4009 120.4 69.7009 120.3 70.0009C120.2 70.3009 120.1 70.5009 119.9 70.8009C119.7 71.1009 119.5 71.3009 119.2 71.4009C118.9 71.5009 118.7 71.6009 118.4 71.6009C118.1 71.6009 117.8 71.5009 117.6 71.4009C117.3 71.3009 117.1 71.1009 116.9 70.8009C116.7 70.6009 116.6 70.3009 116.5 70.0009C116.4 69.7009 116.4 69.4009 116.4 69.1009C116.2 68.8009 116.2 68.5009 116.3 68.2009ZM116.9 69.8009C117 70.0009 117.1 70.2009 117.2 70.4009C117.3 70.6009 117.5 70.7009 117.7 70.8009C117.9 70.9009 118 70.9009 118.2 70.9009C118.6 70.9009 118.9 70.7009 119.2 70.4009C119.5 70.1009 119.6 69.6009 119.6 69.2009C119.6 69.0009 119.6 68.8009 119.5 68.6009C119.4 68.4009 119.3 68.2009 119.2 68.1009C119.1 67.9009 118.9 67.8009 118.7 67.7009C118.5 67.6009 118.3 67.6009 118.1 67.6009C117.9 67.6009 117.7 67.6009 117.6 67.7009C117.4 67.8009 117.3 67.9009 117.2 68.1009C117.1 68.3009 117 68.4009 116.9 68.7009C116.8 68.9009 116.8 69.1009 116.8 69.3009C116.8 69.4009 116.8 69.6009 116.9 69.8009Z" fill="#95979D"/>
<path d="M120.7 66.8009H122.7V67.5009H121.3V68.8009H122.7V69.5009H121.3V71.5009H120.7V66.8009Z" fill="#95979D"/>
<path d="M124.4 71.5009V66.8009H126.5V67.5009H125V68.8009H126.5V69.5009H125V70.8009H126.5V71.5009H124.4Z" fill="#95979D"/>
<path d="M126.9 71.5009V66.8009H128.2C128.8 66.8009 129.3 67.0009 129.6 67.5009C130 67.9009 130.1 68.5009 130.1 69.2009C130.1 69.6009 130 70.0009 129.9 70.3009C129.8 70.6009 129.6 70.9009 129.3 71.1009C129.1 71.3009 128.9 71.4009 128.7 71.5009C128.5 71.6009 128.3 71.6009 128 71.6009H126.9V71.5009ZM128.1 70.8009C128.5 70.8009 128.9 70.7009 129.1 70.4009C129.3 70.1009 129.5 69.7009 129.5 69.2009C129.5 68.7009 129.4 68.3009 129.1 68.0009C128.8 67.7009 128.5 67.6009 128 67.6009H127.4V70.9009H128.1V70.8009Z" fill="#95979D"/>
<path d="M131.3 66.8009V69.8009C131.3 70.2009 131.3 70.5009 131.4 70.6009C131.5 70.8009 131.7 70.9009 131.9 70.9009C132.1 70.9009 132.3 70.8009 132.4 70.6009C132.5 70.4009 132.5 70.2009 132.5 69.8009V66.8009H133.1V69.8009C133.1 70.1009 133.1 70.3009 133.1 70.5009C133.1 70.7009 133 70.9009 132.9 71.0009C132.8 71.2009 132.6 71.4009 132.5 71.5009C132.3 71.6009 132.1 71.7009 131.9 71.7009C131.6 71.7009 131.4 71.6009 131.2 71.5009C131 71.4009 130.8 71.2009 130.7 71.0009C130.6 70.8009 130.6 70.7009 130.5 70.4009C130.5 70.3009 130.5 70.1009 130.5 69.8009V66.8009H131.3Z" fill="#95979D"/>
<path d="M136.7 71.3009C136.4 71.5009 136 71.6009 135.6 71.6009C135.3 71.6009 135 71.5009 134.8 71.4009C134.5 71.3009 134.3 71.1009 134.1 70.8009C133.9 70.6009 133.8 70.3009 133.7 70.0009C133.6 69.7009 133.6 69.4009 133.6 69.1009C133.6 68.8009 133.6 68.5009 133.8 68.2009C133.9 67.9009 134.1 67.6009 134.3 67.4009C134.5 67.2009 134.7 67.0009 134.9 66.9009C135.1 66.8009 135.4 66.7009 135.7 66.7009C136.1 66.7009 136.5 66.8009 136.8 67.0009C137.1 67.2009 137.3 67.6009 137.5 68.0009H136.8C136.7 67.8009 136.5 67.6009 136.3 67.5009C136.1 67.4009 135.9 67.4009 135.7 67.4009C135.5 67.4009 135.3 67.4009 135.2 67.5009C135 67.6009 134.9 67.7009 134.8 67.9009C134.7 68.1009 134.6 68.2009 134.5 68.5009C134.4 68.7009 134.4 68.9009 134.4 69.1009C134.4 69.3009 134.4 69.6009 134.5 69.8009C134.6 70.0009 134.7 70.2009 134.8 70.4009C134.9 70.6009 135.1 70.7009 135.3 70.8009C135.5 70.9009 135.7 70.9009 135.8 70.9009C136 70.9009 136.2 70.8009 136.4 70.7009C136.6 70.6009 136.7 70.5009 136.8 70.3009H137.5C137.3 70.7009 137 71.0009 136.7 71.3009Z" fill="#95979D"/>
<path d="M138 71.5009H137.3L138.9 66.8009H139.5L141 71.5009H140.3L139.9 70.2009H138.4L138 71.5009ZM139.2 67.8009L138.7 69.5009H139.7L139.2 67.8009Z" fill="#95979D"/>
<path d="M141.9 71.5009V67.5009H141.1V66.8009H143.3V67.5009H142.5V71.5009H141.9Z" fill="#95979D"/>
<path d="M143.8 71.5009V66.8009H144.4V71.5009H143.8Z" fill="#95979D"/>
<path d="M145.1 68.2009C145.2 67.9009 145.4 67.6009 145.6 67.4009C145.8 67.2009 146 67.0009 146.2 66.9009C146.4 66.8009 146.7 66.7009 147 66.7009C147.3 66.7009 147.5 66.8009 147.8 66.9009C148 67.0009 148.3 67.2009 148.5 67.4009C148.7 67.6009 148.9 67.9009 149 68.2009C149.1 68.5009 149.2 68.8009 149.2 69.1009C149.2 69.4009 149.2 69.7009 149.1 70.0009C149 70.3009 148.9 70.5009 148.7 70.8009C148.5 71.1009 148.3 71.3009 148 71.4009C147.7 71.5009 147.5 71.6009 147.2 71.6009C146.9 71.6009 146.6 71.5009 146.4 71.4009C146.1 71.3009 145.9 71.1009 145.7 70.8009C145.5 70.6009 145.4 70.3009 145.3 70.0009C145.2 69.7009 145.2 69.4009 145.2 69.1009C144.9 68.8009 145 68.5009 145.1 68.2009ZM145.6 69.8009C145.7 70.0009 145.8 70.2009 145.9 70.4009C146 70.6009 146.2 70.7009 146.4 70.8009C146.6 70.9009 146.7 70.9009 146.9 70.9009C147.3 70.9009 147.6 70.7009 147.9 70.4009C148.2 70.1009 148.3 69.6009 148.3 69.2009C148.3 69.0009 148.3 68.8009 148.2 68.6009C148.1 68.4009 148 68.2009 147.9 68.1009C147.8 67.9009 147.6 67.8009 147.4 67.7009C147.2 67.6009 147 67.6009 146.8 67.6009C146.6 67.6009 146.4 67.6009 146.3 67.7009C146.1 67.8009 146 67.9009 145.9 68.1009C145.8 68.3009 145.7 68.4009 145.6 68.7009C145.5 68.9009 145.5 69.1009 145.5 69.3009C145.5 69.4009 145.6 69.6009 145.6 69.8009Z" fill="#95979D"/>
<path d="M149.4 71.5009V66.8009H150L151.9 70.2009V66.8009H152.5V71.5009H151.9L150 68.0009V71.5009H149.4Z" fill="#95979D"/>
<path d="M17.7 40.1009L17.701 40.1009C27.4441 40.0015 35.3 47.9552 35.3 57.7009C35.3 67.4457 27.4448 75.3009 17.7 75.3009C7.95523 75.3009 0.1 67.4457 0.1 57.7009C0.1 47.9562 7.95523 40.1009 17.7 40.1009Z" stroke="#95979D" stroke-width="0.2"/>
<path d="M31 57.5009C31 64.8009 25.1 70.8009 17.7 70.8009C10.4 70.8009 4.39999 64.9009 4.39999 57.5009C4.39999 50.2009 10.3 44.2009 17.7 44.2009C25.1 44.2009 31 50.2009 31 57.5009Z" fill="#95979D"/>
<path d="M3.59999 63.8009C3.99999 63.6009 4.29999 63.6009 4.59999 63.6009C4.89999 63.7009 5.09999 63.8009 5.29999 64.1009C5.39999 64.2009 5.39999 64.4009 5.39999 64.5009C5.39999 64.6009 5.39999 64.8009 5.29999 65.0009C5.19999 65.1009 5.09999 65.3009 4.99999 65.4009C4.89999 65.5009 4.79999 65.6009 4.59999 65.7009C4.39999 65.8009 4.29999 65.8009 4.09999 65.9009C3.89999 65.9009 3.79999 65.9009 3.59999 65.9009C3.39999 65.9009 3.29999 65.8009 3.19999 65.7009C3.09999 65.6009 2.99999 65.5009 2.89999 65.4009C2.79999 65.2009 2.79999 65.0009 2.79999 64.8009C2.79999 64.6009 2.89999 64.4009 3.09999 64.2009L3.29999 64.5009C3.19999 64.6009 3.19999 64.7009 3.19999 64.8009C3.19999 64.9009 3.19999 65.0009 3.29999 65.1009C3.29999 65.2009 3.39999 65.3009 3.49999 65.3009C3.59999 65.4009 3.69999 65.4009 3.79999 65.4009C3.89999 65.4009 3.99999 65.4009 4.09999 65.4009C4.19999 65.4009 4.29999 65.3009 4.39999 65.3009C4.49999 65.2009 4.59999 65.2009 4.69999 65.1009C4.79999 65.0009 4.79999 64.9009 4.89999 64.8009C4.89999 64.7009 4.99999 64.6009 4.99999 64.5009C4.99999 64.4009 4.99999 64.3009 4.89999 64.2009C4.79999 64.1009 4.69999 64.0009 4.59999 63.9009C4.49999 63.8009 4.29999 63.8009 4.09999 63.8009L4.39999 64.4009L4.09999 64.6009L3.59999 63.8009Z" fill="#95979D"/>
<path d="M3.00001 63.6009C2.80001 63.6009 2.70001 63.6009 2.50001 63.5009C2.40001 63.4009 2.20001 63.4009 2.10001 63.3009C2.00001 63.2009 1.9 63.1009 1.9 63.0009C1.9 62.9009 1.8 62.7009 1.9 62.6009C1.9 62.5009 2.00001 62.3009 2.10001 62.2009C2.20001 62.1009 2.3 61.9009 2.4 61.8009C2.5 61.7009 2.70001 61.6009 2.80001 61.6009C3.00001 61.5009 3.10001 61.5009 3.30001 61.5009C3.40001 61.5009 3.60001 61.5009 3.70001 61.6009C3.90001 61.7009 4.00001 61.7009 4.10001 61.8009C4.20001 61.9009 4.30001 62.0009 4.30001 62.2009C4.40001 62.3009 4.40001 62.5009 4.30001 62.6009C4.30001 62.7009 4.20001 62.9009 4.10001 63.0009C4.00001 63.1009 3.90001 63.2009 3.80001 63.3009C3.70001 63.4009 3.5 63.5009 3.4 63.5009C3.3 63.5009 3.10001 63.6009 3.00001 63.6009ZM3.70001 63.0009C3.80001 62.9009 3.9 62.9009 3.9 62.8009C4 62.7009 4.00001 62.6009 4.00001 62.5009C4.00001 62.4009 4.00001 62.3009 4.00001 62.2009C3.90001 62.0009 3.80001 61.9009 3.60001 61.8009C3.40001 61.7009 3.2 61.7009 2.9 61.8009C2.8 61.8009 2.70001 61.9009 2.60001 61.9009C2.50001 62.0009 2.4 62.0009 2.4 62.1009C2.3 62.2009 2.30001 62.3009 2.30001 62.4009C2.30001 62.5009 2.30001 62.6009 2.30001 62.7009C2.30001 62.8009 2.4 62.9009 2.4 62.9009C2.5 63.0009 2.60001 63.0009 2.70001 63.1009C2.80001 63.1009 2.90001 63.2009 3.00001 63.2009C3.10001 63.2009 3.20001 63.2009 3.30001 63.1009C3.50001 63.1009 3.60001 63.1009 3.70001 63.0009Z" fill="#95979D"/>
<path d="M4.00001 60.9009L1.50001 61.3009L1.40001 61.0009L3.00001 59.7009L1.30001 60.1009L1.20001 59.8009L3.70001 59.3009V59.6009L2.10001 60.9009L3.90001 60.6009L4.00001 60.9009Z" fill="#95979D"/>
<path d="M2.30001 56.9009C2.70001 56.9009 3.00001 57.0009 3.30001 57.2009C3.60001 57.4009 3.70001 57.6009 3.70001 57.9009C3.70001 58.1009 3.70001 58.2009 3.60001 58.3009C3.50001 58.4009 3.40001 58.6009 3.30001 58.7009C3.20001 58.8009 3.10001 58.9009 2.90001 58.9009C2.80001 58.9009 2.60001 59.0009 2.40001 59.0009C2.20001 59.0009 2.10001 59.0009 1.90001 58.9009C1.70001 58.9009 1.60001 58.8009 1.50001 58.7009C1.40001 58.6009 1.30001 58.5009 1.20001 58.4009C1.10001 58.3009 1.10001 58.1009 1.10001 58.0009C1.10001 57.8009 1.10001 57.6009 1.30001 57.4009C1.40001 57.2009 1.60001 57.1009 1.80001 57.0009V57.4009C1.70001 57.5009 1.60001 57.6009 1.60001 57.6009C1.60001 57.7009 1.50001 57.8009 1.50001 57.9009C1.50001 58.0009 1.50001 58.1009 1.60001 58.2009C1.60001 58.3009 1.70001 58.4009 1.80001 58.4009C1.90001 58.5009 2.00001 58.5009 2.10001 58.6009C2.20001 58.6009 2.30001 58.6009 2.40001 58.6009C2.50001 58.6009 2.60001 58.6009 2.80001 58.5009C2.90001 58.5009 3.00001 58.4009 3.10001 58.3009C3.20001 58.2009 3.20001 58.2009 3.30001 58.1009C3.30001 58.0009 3.40001 57.9009 3.40001 57.8009C3.40001 57.7009 3.30001 57.5009 3.30001 57.4009C3.20001 57.3009 3.10001 57.2009 2.90001 57.1009V57.8009H2.50001L2.30001 56.9009Z" fill="#95979D"/>
<path d="M3.19999 55.7009C3.29999 55.7009 3.39999 55.8009 3.49999 55.8009C3.59999 55.9009 3.69999 55.9009 3.69999 56.0009C3.69999 56.1009 3.79999 56.2009 3.79999 56.3009C3.79999 56.5009 3.69999 56.6009 3.59999 56.7009C3.49999 56.8009 3.29999 56.8009 3.09999 56.8009V56.5009C3.19999 56.5009 3.29999 56.5009 3.29999 56.5009C3.39999 56.5009 3.39999 56.4009 3.39999 56.3009C3.39999 56.2009 3.39999 56.1009 3.29999 56.1009C3.19999 56.1009 3.09999 56.0009 2.89999 56.0009L1.29999 55.8009V55.5009L2.89999 55.7009C2.99999 55.7009 3.09999 55.7009 3.19999 55.7009Z" fill="#95979D"/>
<path d="M1.30001 54.6009L2.90001 54.9009C3.10001 54.9009 3.30001 54.9009 3.30001 54.9009C3.40001 54.9009 3.50001 54.8009 3.50001 54.7009C3.50001 54.6009 3.50001 54.5009 3.40001 54.4009C3.30001 54.3009 3.20001 54.3009 3.00001 54.2009L1.40001 53.9009L1.50001 53.6009L3.00001 53.9009C3.10001 53.9009 3.30001 54.0009 3.30001 54.0009C3.40001 54.0009 3.50001 54.1009 3.60001 54.1009C3.70001 54.2009 3.80001 54.3009 3.80001 54.4009C3.80001 54.5009 3.80001 54.6009 3.80001 54.7009C3.80001 54.8009 3.70001 54.9009 3.70001 55.0009C3.60001 55.1009 3.50001 55.2009 3.40001 55.2009C3.30001 55.2009 3.20001 55.2009 3.10001 55.2009C3.00001 55.2009 2.90001 55.2009 2.80001 55.1009L1.20001 54.8009L1.30001 54.6009Z" fill="#95979D"/>
<path d="M4.3 52.9009L2 52.0009L2.1 51.7009L4.2 51.5009L2.5 50.8009L2.6 50.5009L4.9 51.5009L4.8 51.7009L2.7 51.9009L4.4 52.6009L4.3 52.9009Z" fill="#95979D"/>
<path d="M5.10001 51.0009L5.00001 51.3009L3.20001 49.4009L3.40001 49.1009L6.00001 49.7009L5.80001 50.0009L5.10001 49.8009L4.70001 50.5009L5.10001 51.0009ZM3.70001 49.5009L4.30001 50.2009L4.60001 49.7009L3.70001 49.5009Z" fill="#95979D"/>
<path d="M6.2 49.3009L4.5 48.1009L4.2 48.4009L3.89999 48.2009L4.59999 47.3009L4.89999 47.5009L4.7 47.8009L6.39999 49.1009L6.2 49.3009Z" fill="#95979D"/>
<path d="M6.8 48.5009L4.89999 46.9009L5.09999 46.7009L7 48.3009L6.8 48.5009Z" fill="#95979D"/>
<path d="M6 46.7009C5.9 46.5009 5.89999 46.4009 5.89999 46.2009C5.89999 46.0009 5.89999 45.9009 5.89999 45.8009C5.89999 45.7009 5.99999 45.6009 6.09999 45.5009C6.19999 45.4009 6.29999 45.3009 6.39999 45.3009C6.49999 45.3009 6.7 45.3009 6.8 45.3009C7 45.3009 7.1 45.4009 7.3 45.4009C7.4 45.5009 7.6 45.6009 7.7 45.7009C7.8 45.8009 7.9 46.0009 8 46.1009C8.1 46.2009 8.09999 46.4009 8.09999 46.5009C8.09999 46.7009 8.09999 46.8009 8.09999 47.0009C8.09999 47.1009 7.99999 47.3009 7.89999 47.4009C7.79999 47.5009 7.7 47.6009 7.5 47.6009C7.4 47.6009 7.2 47.6009 7 47.6009C6.9 47.6009 6.69999 47.5009 6.59999 47.4009C6.49999 47.3009 6.3 47.2009 6.2 47.1009C6.2 47.0009 6.1 46.9009 6 46.7009ZM6.8 47.1009C6.9 47.2009 6.99999 47.2009 7.09999 47.2009C7.19999 47.2009 7.29999 47.2009 7.39999 47.2009C7.49999 47.2009 7.59999 47.1009 7.59999 47.1009C7.69999 47.0009 7.8 46.8009 7.8 46.5009C7.8 46.3009 7.7 46.1009 7.5 45.9009C7.4 45.8009 7.3 45.8009 7.2 45.7009C7.1 45.6009 6.99999 45.6009 6.89999 45.6009C6.79999 45.6009 6.69999 45.6009 6.59999 45.6009C6.49999 45.6009 6.4 45.7009 6.3 45.8009C6.2 45.9009 6.19999 45.9009 6.09999 46.0009C6.09999 46.1009 6.09999 46.2009 6.09999 46.3009C6.09999 46.4009 6.1 46.5009 6.2 46.6009C6.3 46.7009 6.29999 46.8009 6.39999 46.9009C6.59999 47.0009 6.7 47.1009 6.8 47.1009Z" fill="#95979D"/>
<path d="M8.89999 46.5009L7.39999 44.4009L7.7 44.2009L9.5 45.1009L8.39999 43.7009L8.7 43.5009L10.2 45.5009L9.89999 45.7009L8 44.8009L9.09999 46.3009L8.89999 46.5009Z" fill="#95979D"/>
<path d="M10.6 45.3009L10.3 45.5009L9.79999 42.9009L10.1 42.8009L12 44.6009L11.7 44.8009L11.2 44.3009L10.5 44.7009L10.6 45.3009ZM10.2 43.3009L10.4 44.2009L10.9 44.0009L10.2 43.3009Z" fill="#95979D"/>
<path d="M12.1 44.5009L11.2 42.2009L11.5 42.1009L12.3 44.0009L12.9 43.8009L13 44.2009L12.1 44.5009Z" fill="#95979D"/>
<path d="M13.8 41.3009L14.1 42.9009C14.1 43.1009 14.2 43.2009 14.3 43.3009C14.4 43.4009 14.5 43.4009 14.6 43.4009C14.7 43.4009 14.8 43.3009 14.8 43.2009C14.8 43.1009 14.8 43.0009 14.8 42.8009L14.5 41.2009L14.8 41.1009L15.1 42.6009C15.1 42.7009 15.1 42.9009 15.2 42.9009C15.2 43.0009 15.2 43.1009 15.2 43.2009C15.2 43.3009 15.1 43.4009 15 43.5009C14.9 43.6009 14.8 43.6009 14.7 43.7009C14.6 43.7009 14.5 43.7009 14.3 43.7009C14.2 43.7009 14.1 43.6009 14 43.5009C13.9 43.4009 13.9 43.3009 13.8 43.2009C13.8 43.1009 13.8 43.0009 13.7 42.9009L13.4 41.4009L13.8 41.3009Z" fill="#95979D"/>
<path d="M15.7 43.5009L15.4 41.0009H15.8L16.9 42.7009L16.7 40.9009L17 40.8009L17.3 43.3009L17 43.4009L15.8 41.6009L16 43.5009H15.7Z" fill="#95979D"/>
<path d="M17.7 43.4009V40.8009H18V43.4009H17.7Z" fill="#95979D"/>
<path d="M18.9 43.4009L18.4 40.8009L18.7 40.9009L19.1 42.7009L19.8 41.0009H20.1L19.1 43.4009H18.9Z" fill="#95979D"/>
<path d="M20 43.5009L20.5 41.1009L21.6 41.3009L21.5 41.6009L20.8 41.5009L20.6 42.2009L21.4 42.3009L21.3 42.7009L20.6 42.5009L20.4 43.2009L21.2 43.4009L21.1 43.7009L20 43.5009Z" fill="#95979D"/>
<path d="M22.8 42.9009C22.7 43.0009 22.5 43.1009 22.3 43.1009L22.6 44.3009L22.2 44.2009L21.9 43.1009H21.8L21.5 44.0009L21.2 43.9009L21.9 41.5009L22.4 41.6009C22.5 41.6009 22.6 41.7009 22.7 41.7009C22.8 41.7009 22.8 41.8009 22.9 41.8009C23 41.9009 23 42.0009 23 42.1009C23 42.2009 23 42.4009 23 42.5009C23 42.6009 22.9 42.8009 22.8 42.9009ZM22.7 42.1009C22.7 42.0009 22.6 42.0009 22.4 41.9009L22.2 41.8009L22 42.5009L22.2 42.6009C22.3 42.6009 22.4 42.6009 22.5 42.6009C22.6 42.6009 22.6 42.5009 22.7 42.3009C22.8 42.3009 22.8 42.2009 22.7 42.1009Z" fill="#95979D"/>
<path d="M23.3 43.7009C23.3 43.8009 23.2 43.9009 23.3 44.0009C23.3 44.1009 23.4 44.1009 23.5 44.2009C23.6 44.2009 23.7 44.2009 23.8 44.2009C23.9 44.2009 23.9 44.1009 24 44.0009C24.1 43.9009 24.1 43.8009 24 43.7009C24 43.6009 23.9 43.6009 23.8 43.5009C23.7 43.4009 23.7 43.4009 23.6 43.3009C23.5 43.2009 23.5 43.1009 23.5 43.1009C23.5 43.0009 23.5 43.0009 23.5 42.9009C23.5 42.8009 23.5 42.8009 23.6 42.7009C23.7 42.5009 23.8 42.4009 24 42.3009C24.1 42.2009 24.3 42.2009 24.5 42.3009C24.6 42.4009 24.7 42.5009 24.8 42.6009C24.8 42.8009 24.8 42.9009 24.7 43.1009L24.4 43.0009C24.4 42.9009 24.4 42.8009 24.4 42.7009C24.4 42.6009 24.3 42.6009 24.3 42.6009C24.2 42.6009 24.2 42.6009 24.1 42.6009C24 42.6009 24 42.7009 23.9 42.8009V42.9009V43.0009C23.9 43.0009 23.9 43.1009 24 43.1009L24.1 43.2009L24.2 43.3009C24.3 43.4009 24.4 43.5009 24.4 43.7009C24.4 43.8009 24.4 44.0009 24.3 44.1009C24.2 44.3009 24.1 44.5009 23.9 44.6009C23.7 44.7009 23.6 44.7009 23.4 44.6009C23.2 44.5009 23.1 44.4009 23.1 44.2009C23.1 44.0009 23.1 43.8009 23.2 43.6009L23.3 43.7009Z" fill="#95979D"/>
<path d="M24.1 44.8009L25.2 42.6009L25.5 42.8009L24.3 45.0009L24.1 44.8009Z" fill="#95979D"/>
<path d="M24.9 45.3009L26 43.5009L25.7 43.3009L25.9 42.9009L26.9 43.5009L26.7 43.9009L26.3 43.6009L25.2 45.5009L24.9 45.3009Z" fill="#95979D"/>
<path d="M26.4 46.3009L26.1 46.1009L26.7 45.3009L27.1 43.7009L27.4 43.9009L27 45.1009L28.1 44.4009L28.4 44.6009L26.9 45.6009L26.4 46.3009Z" fill="#95979D"/>
<path d="M29 46.1009C29.2 46.0009 29.3 46.0009 29.5 46.0009C29.7 46.0009 29.8 46.0009 29.9 46.1009C30 46.1009 30.1 46.2009 30.2 46.3009C30.3 46.4009 30.4 46.5009 30.4 46.7009C30.4 46.8009 30.4 47.0009 30.4 47.1009C30.4 47.3009 30.3 47.4009 30.2 47.6009C30.1 47.7009 30 47.9009 29.9 48.0009C29.8 48.1009 29.6 48.2009 29.5 48.3009C29.4 48.4009 29.2 48.4009 29.1 48.4009C28.9 48.4009 28.8 48.4009 28.6 48.3009C28.5 48.2009 28.3 48.2009 28.2 48.1009C28.1 48.0009 28 47.9009 28 47.7009C28 47.6009 28 47.4009 28 47.2009C28 47.1009 28.1 46.9009 28.2 46.8009C28.3 46.7009 28.4 46.5009 28.5 46.4009C28.7 46.3009 28.8 46.2009 29 46.1009ZM28.5 46.9009C28.4 47.0009 28.4 47.1009 28.4 47.2009C28.4 47.3009 28.4 47.4009 28.4 47.5009C28.4 47.6009 28.5 47.7009 28.5 47.8009C28.6 48.0009 28.8 48.0009 29 48.0009C29.2 48.0009 29.4 47.9009 29.6 47.7009C29.7 47.6009 29.8 47.5009 29.8 47.4009C29.9 47.3009 29.9 47.2009 29.9 47.1009C29.9 47.0009 29.9 46.9009 29.9 46.8009C29.9 46.7009 29.8 46.6009 29.8 46.5009C29.7 46.4009 29.7 46.4009 29.6 46.3009C29.5 46.3009 29.4 46.2009 29.3 46.3009C29.2 46.3009 29.1 46.3009 29 46.4009C28.9 46.4009 28.8 46.5009 28.7 46.6009C28.7 46.8009 28.6 46.8009 28.5 46.9009Z" fill="#95979D"/>
<path d="M31.2 47.6009L31.8 48.5009L31.5 48.7009L31.1 48.1009L30.5 48.5009L30.9 49.1009L30.6 49.3009L30.2 48.7009L29.3 49.3009L29.1 49.1009L31.2 47.6009Z" fill="#95979D"/>
<path d="M30.3 50.9009L32.5 49.8009L33 50.7009L32.7 50.9009L32.3 50.2009L31.7 50.5009L32 51.2009L31.7 51.4009L31.4 50.7009L30.7 51.0009L31.1 51.7009L30.7 51.8009L30.3 50.9009Z" fill="#95979D"/>
<path d="M30.8 52.1009L33.2 51.3009L33.4 51.9009C33.5 52.2009 33.5 52.5009 33.3 52.7009C33.1 53.0009 32.9 53.1009 32.5 53.3009C32.4 53.3009 32.2 53.3009 32 53.3009C31.8 53.3009 31.6 53.2009 31.5 53.2009C31.4 53.1009 31.3 53.0009 31.2 52.9009C31.1 52.8009 31.1 52.7009 31 52.6009L30.8 52.1009ZM31.4 52.6009C31.5 52.8009 31.6 53.0009 31.8 53.0009C32 53.1009 32.2 53.1009 32.5 53.0009C32.8 52.9009 33 52.8009 33.1 52.6009C33.2 52.4009 33.2 52.2009 33.1 52.0009L33 51.7009L31.3 52.3009L31.4 52.6009Z" fill="#95979D"/>
<path d="M34 53.7009L32.4 54.0009C32.2 54.0009 32.1 54.1009 32 54.2009C31.9 54.3009 31.9 54.4009 31.9 54.5009C31.9 54.6009 32 54.7009 32.1 54.7009C32.2 54.7009 32.3 54.7009 32.5 54.7009L34.1 54.4009L34.2 54.7009L32.6 55.0009C32.5 55.0009 32.3 55.0009 32.3 55.1009C32.2 55.1009 32.1 55.1009 32 55.1009C31.9 55.1009 31.8 55.0009 31.7 54.9009C31.6 54.8009 31.6 54.7009 31.6 54.6009C31.6 54.5009 31.6 54.4009 31.6 54.3009C31.6 54.2009 31.7 54.1009 31.8 54.0009C31.9 53.9009 32 53.9009 32.1 53.8009C32.2 53.8009 32.3 53.8009 32.4 53.7009L34 53.4009V53.7009Z" fill="#95979D"/>
<path d="M32 57.0009C31.9 56.9009 31.8 56.7009 31.8 56.5009C31.8 56.3009 31.8 56.2009 31.9 56.1009C32 56.0009 32.1 55.8009 32.2 55.7009C32.3 55.6009 32.4 55.5009 32.6 55.5009C32.7 55.4009 32.9 55.4009 33.1 55.4009C33.3 55.4009 33.4 55.4009 33.6 55.4009C33.8 55.4009 33.9 55.5009 34 55.6009C34.1 55.7009 34.2 55.8009 34.3 55.9009C34.4 56.0009 34.4 56.2009 34.4 56.3009C34.4 56.5009 34.4 56.7009 34.3 56.9009C34.2 57.1009 34 57.2009 33.8 57.3009V56.9009C33.9 56.8009 34 56.7009 34 56.6009C34 56.5009 34.1 56.4009 34.1 56.3009C34.1 56.2009 34.1 56.1009 34 56.0009C33.9 55.9009 33.9 55.8009 33.8 55.8009C33.7 55.7009 33.6 55.7009 33.5 55.7009C33.4 55.7009 33.3 55.7009 33.2 55.7009C33.1 55.7009 33 55.7009 32.8 55.8009C32.7 55.8009 32.6 55.9009 32.5 56.0009C32.4 56.1009 32.4 56.2009 32.3 56.2009C32.3 56.3009 32.2 56.4009 32.2 56.5009C32.2 56.6009 32.2 56.7009 32.3 56.8009C32.4 56.9009 32.4 57.0009 32.5 57.0009V57.4009C32.4 57.3009 32.2 57.2009 32 57.0009Z" fill="#95979D"/>
<path d="M31.9 57.8009V57.5009L34.4 58.5009V58.8009L31.8 59.4009V59.0009L32.5 58.8009L32.6 58.0009L31.9 57.8009ZM33.9 58.6009L33 58.3009V58.8009L33.9 58.6009Z" fill="#95979D"/>
<path d="M31.7 59.8009L33.8 60.2009L33.9 59.8009H34.3L34.1 61.0009L33.7 60.9009L33.8 60.5009L31.7 60.1009V59.8009Z" fill="#95979D"/>
<path d="M31.5 60.8009L34 61.4009L33.9 61.7009L31.5 61.1009V60.8009Z" fill="#95979D"/>
<path d="M33.1 62.1009C33.2 62.2009 33.3 62.3009 33.4 62.5009C33.5 62.6009 33.5 62.8009 33.5 62.9009C33.5 63.0009 33.5 63.2009 33.5 63.3009C33.5 63.4009 33.4 63.6009 33.3 63.6009C33.2 63.7009 33.1 63.8009 32.9 63.8009C32.7 63.9009 32.6 63.9009 32.4 63.9009C32.2 63.9009 32.1 63.9009 31.9 63.8009C31.7 63.7009 31.6 63.7009 31.5 63.6009C31.4 63.5009 31.3 63.4009 31.2 63.3009C31.1 63.2009 31.1 63.0009 31 62.9009C31 62.8009 31 62.6009 31 62.5009C31.1 62.4009 31.1 62.2009 31.3 62.1009C31.4 62.0009 31.6 61.9009 31.7 61.9009C31.8 61.9009 32 61.8009 32.1 61.9009C32.3 61.9009 32.4 62.0009 32.6 62.0009C32.8 61.9009 32.9 62.0009 33.1 62.1009ZM32.1 62.1009C32 62.1009 31.9 62.1009 31.8 62.1009C31.7 62.1009 31.6 62.2009 31.5 62.3009C31.4 62.4009 31.4 62.4009 31.3 62.5009C31.2 62.7009 31.3 62.9009 31.4 63.1009C31.5 63.3009 31.7 63.4009 31.9 63.5009C32 63.5009 32.1 63.6009 32.2 63.6009C32.3 63.6009 32.4 63.6009 32.5 63.6009C32.6 63.6009 32.7 63.5009 32.8 63.4009C32.9 63.3009 32.9 63.3009 33 63.2009C33 63.1009 33 63.0009 33 62.9009C33 62.8009 33 62.7009 32.9 62.6009C32.8 62.5009 32.8 62.4009 32.7 62.3009C32.6 62.2009 32.5 62.2009 32.4 62.1009C32.4 62.1009 32.3 62.1009 32.1 62.1009Z" fill="#95979D"/>
<path d="M30.6 63.6009L32.8 64.8009L32.6 65.0009H30.6L32.2 65.9009L32 66.2009L29.8 65.0009L30 64.7009H32.1L30.4 63.8009L30.6 63.6009Z" fill="#95979D"/>
<path d="M9.19999 70.2009L8.99999 70.5009L8.49999 70.1009C8.49999 70.2009 8.49999 70.3009 8.49999 70.4009C8.49999 70.5009 8.39999 70.6009 8.39999 70.7009C8.19999 70.9009 7.99999 71.0009 7.69999 71.0009C7.39999 71.0009 7.19999 70.9009 6.99999 70.7009C6.79999 70.5009 6.59999 70.3009 6.59999 70.0009C6.49999 69.7009 6.59999 69.5009 6.79999 69.3009C6.89999 69.2009 6.99999 69.1009 7.09999 69.1009C7.19999 69.1009 7.29999 69.0009 7.39999 69.0009L6.79999 68.7009L6.99999 68.4009L7.79999 69.1009L8.09999 68.7009L8.39999 68.9009L8.09999 69.3009L8.79999 69.9009L9.29999 69.3009L7.59999 67.9009L7.79999 67.6009L9.79999 69.3009L9.09999 70.1009L9.19999 70.2009ZM7.39999 69.4009C7.19999 69.4009 7.09999 69.5009 6.99999 69.6009C6.89999 69.7009 6.89999 69.9009 6.89999 70.0009C6.89999 70.2009 6.99999 70.3009 7.09999 70.4009C7.19999 70.5009 7.39999 70.5009 7.49999 70.5009C7.69999 70.5009 7.79999 70.4009 7.89999 70.3009C7.99999 70.2009 7.99999 70.0009 7.99999 69.8009C7.99999 69.6009 7.89999 69.5009 7.79999 69.4009C7.69999 69.5009 7.59999 69.4009 7.39999 69.4009Z" fill="#95979D"/>
<path d="M11.5 70.6009C11.4 70.8009 11.5 70.9009 11.6 71.1009C11.7 71.2009 11.9 71.4009 12.2 71.5009L12 71.8009C11.7 71.7009 11.5 71.5009 11.4 71.4009C11.2 71.2009 11 71.0009 11 70.8009C10.8 70.9009 10.6 70.9009 10.3 70.8009C10.1 70.8009 9.89999 70.7009 9.59999 70.6009L9.8 70.3009C10.1 70.4009 10.3 70.5009 10.5 70.5009C10.7 70.5009 10.9 70.5009 11 70.3009L10.1 69.8009L10.3 69.5009L12.7 70.7009L12.5 71.0009L11.5 70.6009ZM10 72.7009L10.4 71.9009L9.39999 71.3009L9.59999 71.0009L12.1 72.3009L11.9 72.6009L10.8 72.0009L10.4 72.8009L10 72.7009Z" fill="#95979D"/>
<path d="M15.3 73.9009V74.2009L12.5 73.6009L12.6 73.2009L13 73.3009L13.3 72.2009L13.7 72.3009L13.4 73.4009L13.8 73.5009L14.1 72.4009L14.5 72.5009L14.2 73.6009L14.7 73.7009L15.2 71.8009L13.2 71.3009L13.3 71.0009L15.6 71.6009L15.1 73.8009L15.3 73.9009Z" fill="#95979D"/>
<path d="M17.3 71.9009C17.2 72.0009 17.1 72.1009 17.1 72.2009C17.1 72.3009 17.2 72.4009 17.3 72.5009C17.4 72.6009 17.5 72.6009 17.7 72.6009C17.8 72.6009 17.9 72.6009 18 72.5009C18.1 72.4009 18.2 72.3009 18.2 72.2009C18.2 72.1009 18.1 72.0009 18 71.9009C17.9 71.8009 17.8 71.8009 17.7 71.8009C17.6 71.8009 17.4 71.8009 17.3 71.9009ZM18.1 73.5009V73.1009H17.2V73.5009H18.1ZM19 73.5009V73.7009V74.5009H18.6V73.8009H16.4V73.5009H16.9V73.1009H16.3V72.8009H17C16.9 72.7009 16.9 72.6009 16.8 72.6009C16.8 72.5009 16.7 72.4009 16.7 72.3009C16.7 72.1009 16.8 71.9009 17 71.7009C17.2 71.6009 17.4 71.5009 17.6 71.5009C17.8 71.5009 18 71.6009 18.2 71.7009C18.4 71.8009 18.5 72.0009 18.5 72.3009C18.5 72.4009 18.5 72.5009 18.4 72.6009C18.4 72.7009 18.3 72.8009 18.2 72.8009H19V73.1009H18.4V73.5009H19Z" fill="#95979D"/>
<path d="M20.4 73.3009L21.6 73.0009L21.2 71.3009L21.6 71.2009L21.8 72.1009L22.1 72.0009L21.8 71.1009L22.2 71.0009L22.8 73.7009L22.4 73.8009L22.1 72.3009L21.8 72.4009L22.1 73.9009L21.8 74.0009L21.7 73.4009L20.4 73.7009C20.3 73.7009 20.3 73.7009 20.2 73.7009C20.1 73.7009 20.1 73.6009 20.1 73.5009L19.7 71.6009L20.9 71.3009L21 71.6009L20.1 71.8009L20.4 73.3009Z" fill="#95979D"/>
<path d="M24.2 70.6009C24.3 70.6009 24.3 70.7009 24.4 70.7009L24.5 70.8009C24.6 71.0009 24.6 71.2009 24.5 71.4009C24.4 71.6009 24.3 71.7009 24.1 71.8009C23.9 71.9009 23.7 71.9009 23.5 71.9009C23.3 71.9009 23.2 71.7009 23.1 71.6009C23.1 71.5009 23.1 71.5009 23 71.4009C23 71.3009 23 71.3009 23 71.2009L22.8 71.3009V70.9009L23.4 70.6009L23.3 70.4009L23.7 70.2009L23.8 70.4009L24.4 70.1009L24.5 70.4009L24.2 70.6009ZM23.5 71.1009C23.5 71.2009 23.5 71.3009 23.5 71.4009C23.5 71.5009 23.6 71.5009 23.7 71.6009C23.8 71.6009 23.9 71.6009 24 71.6009C24.1 71.6009 24.1 71.5009 24.2 71.4009C24.2 71.3009 24.2 71.2009 24.2 71.1009C24.2 71.0009 24.1 71.0009 24 70.9009C23.9 70.9009 23.8 70.9009 23.7 70.9009C23.6 70.9009 23.5 71.0009 23.5 71.1009ZM25.4 70.4009L25.6 70.9009L25.2 71.1009L24.6 69.9009L24.9 69.7009L25.1 70.1009L25.5 69.9009L25.7 70.2009L25.4 70.4009ZM26.3 72.2009L25.9 72.4009L25.5 71.7009L23.6 72.6009V72.3009L25.8 71.2009L26.3 72.2009Z" fill="#95979D"/>
<path d="M29.2 69.5009L29.4 69.7009L27.2 71.5009L27 71.2009L27.3 70.9009L26.6 70.0009L26.9 69.8009L27.6 70.7009L28 70.4009L27.2 69.5009L27.5 69.3009L28.3 70.2009L28.7 69.8009L27.5 68.3009L25.9 69.6009L25.7 69.3009L27.5 67.8009L29 69.6009L29.2 69.5009Z" fill="#95979D"/>
<path d="M8.7 55.1009L7.5 52.0009L12.5 49.9009L17.5 52.4009V64.7009L14.3 66.4009L12.6 63.0009C12.6 63.0009 14 63.4009 14.8 62.2009C14.8 62.2009 15.4 61.7009 15.4 60.3009C15.4 58.9009 15.4 56.2009 15.4 56.2009C15.4 56.2009 15.5 53.7009 12.3 53.7009C12.3 53.7009 10.2 53.7009 8.7 55.1009Z" fill="#30303C"/>
<path d="M26.9 55.1009L28.1 52.0009L23.1 49.9009L18.1 52.4009V64.7009L21.3 66.4009L23 63.0009C23 63.0009 21.6 63.4009 20.8 62.2009C20.8 62.2009 20.2 61.7009 20.2 60.3009C20.2 58.9009 20.2 56.2009 20.2 56.2009C20.2 56.2009 20.1 53.7009 23.3 53.7009C23.3 53.7009 25.4 53.7009 26.9 55.1009Z" fill="#30303C"/>
<rect x="60" y="100" width="30" height="30" rx="4" fill="#6D42E7"/>
<path d="M69 110H82" stroke="white" stroke-width="2" stroke-linecap="round" stroke-linejoin="round"/>
<path d="M69 115H82" stroke="white" stroke-width="2" stroke-linecap="round" stroke-linejoin="round"/>
<path d="M69 120H82" stroke="white" stroke-width="2" stroke-linecap="round" stroke-linejoin="round"/>
<path d="M10.0345 104.965H20.069C22.8621 104.965 25.0345 107.241 25.0345 109.931V119.966C25.0345 122.759 22.7586 124.931 20.069 124.931H10.0345C7.24141 124.931 5.06897 122.655 5.06897 119.966V109.931C4.96553 107.241 7.24141 104.965 10.0345 104.965Z" stroke="black" stroke-width="1.8125" stroke-linecap="round" stroke-linejoin="round"/>
<path d="M15 118.724C17.0568 118.724 18.7241 117.057 18.7241 115C18.7241 112.943 17.0568 111.276 15 111.276C12.9432 111.276 11.2758 112.943 11.2758 115C11.2758 117.057 12.9432 118.724 15 118.724Z" stroke="black" stroke-width="1.8125" stroke-linecap="round" stroke-linejoin="round"/>
<path d="M10.0345 134.966H20.069C22.8621 134.966 25.0345 137.241 25.0345 139.931V149.966C25.0345 152.759 22.7586 154.931 20.069 154.931H10.0345C7.24138 154.931 5.06897 152.655 5.06897 149.966V139.931C4.96553 137.241 7.24138 134.966 10.0345 134.966Z" stroke="#B02BE2" stroke-width="1.8125" stroke-linecap="round" stroke-linejoin="round"/>
<path d="M15 148.724C17.0568 148.724 18.7241 147.057 18.7241 145C18.7241 142.943 17.0568 141.276 15 141.276C12.9432 141.276 11.2759 142.943 11.2759 145C11.2759 147.057 12.9432 148.724 15 148.724Z" stroke="#B02BE2" stroke-width="1.8125" stroke-linecap="round" stroke-linejoin="round"/>
<path d="M38.2 141.9C37.7 141.9 37.3 142.3 37.3 142.8C37.3 143.3 37.7 143.7 38.2 143.7C38.7 143.7 39.1 143.3 39.1 142.8C39 142.3 38.6 141.9 38.2 141.9Z" fill="#2DB24A"/>
<path d="M46.8 141.8C46.3 141.8 45.9 142.2 45.9 142.7C45.9 143.2 46.3 143.6 46.8 143.6C47.3 143.6 47.7 143.2 47.7 142.7C47.7 142.2 47.3 141.8 46.8 141.8Z" fill="#2DB24A"/>
<path d="M54.6 133.2H36C34.1 133.2 32.6 134.7 32.6 136.6V147.6C32.6 149.5 34.1 151 36 151H42.6L44.8 156.3C44.8 156.3 45 156.8 45.3 156.8C45.7 156.8 45.8 156.3 45.8 156.3L48 151H54.5C56.4 151 57.9 149.5 57.9 147.6V136.6C58 134.7 56.5 133.2 54.6 133.2ZM40.6 142.9C40.6 144.9 38.5 145 38.5 145C37.7 145 37.2 144.5 37.2 144.5V144.9H35.7V138.6C35.8 138.6 37.2 138.6 37.2 138.6V141C37.6 140.4 38.6 140.4 38.6 140.4C40.9 140.6 40.6 142.9 40.6 142.9ZM43.3 140.6V144.9H41.8V140.7C41.8 140.1 41.1 140 41.1 140V138.5C43.4 138.5 43.3 140.6 43.3 140.6ZM46.8 145C45.4 145 44.3 144 44.3 142.7C44.3 141.4 45.4 140.4 46.8 140.4C48.2 140.4 49.3 141.4 49.3 142.7C49.3 144 48.2 145 46.8 145ZM54.9 145C54.9 145 54.9 147.2 52.7 147.2H52V145.8H52.4C52.4 145.8 53.3 145.9 53.3 144.5C53.3 144.5 53.1 145.1 51.8 145.1C51.8 145.1 50 145 50 143.2V142.5C50 142.5 50 140.6 52.1 140.5C52.1 140.5 52.9 140.4 53.4 141.1V140.6H54.9V145V145Z" fill="#2DB24A"/>
<path d="M52.6 141.8C52.1 141.8 51.7 142.2 51.7 142.7C51.7 143.2 52.1 143.6 52.6 143.6C53.1 143.6 53.5 143.2 53.5 142.7C53.5 142.2 53.1 141.8 52.6 141.8Z" fill="#2DB24A"/>
<path d="M38.1 111.9C37.6 111.9 37.2 112.3 37.2 112.8C37.2 113.3 37.6 113.7 38.1 113.7C38.6 113.7 39 113.3 39 112.8C39 112.3 38.6 111.9 38.1 111.9Z" fill="#1F1F1F"/>
<path d="M46.7 111.8C46.2 111.8 45.8 112.2 45.8 112.7C45.8 113.2 46.2 113.6 46.7 113.6C47.2 113.6 47.6 113.2 47.6 112.7C47.7 112.2 47.3 111.8 46.7 111.8Z" fill="#1F1F1F"/>
<path d="M54.5 103.2H36C34.1 103.2 32.6 104.7 32.6 106.6V117.6C32.6 119.5 34.1 121 36 121H42.6L44.8 126.3C44.8 126.3 45 126.8 45.3 126.8C45.7 126.8 45.8 126.3 45.8 126.3L48 121H54.5C56.4 121 57.9 119.5 57.9 117.6V106.6C57.9 104.7 56.4 103.2 54.5 103.2ZM40.5 112.9C40.5 114.9 38.4 115 38.4 115C37.6 115 37.1 114.5 37.1 114.5V114.9H35.6V108.6C35.7 108.6 37.1 108.6 37.1 108.6V111C37.5 110.4 38.5 110.4 38.5 110.4C40.8 110.6 40.5 112.9 40.5 112.9ZM43.2 110.6V114.9H41.7V110.7C41.7 110.1 41 110 41 110V108.5C43.4 108.5 43.2 110.6 43.2 110.6ZM46.7 115C45.3 115 44.2 114 44.2 112.7C44.2 111.4 45.3 110.4 46.7 110.4C48.1 110.4 49.2 111.4 49.2 112.7C49.2 114 48.1 115 46.7 115ZM54.9 115C54.9 115 54.9 117.2 52.7 117.2H52V115.8H52.4C52.4 115.8 53.3 115.9 53.3 114.5C53.3 114.5 53.1 115.1 51.8 115.1C51.8 115.1 50 115 50 113.2V112.5C50 112.5 50 110.6 52.1 110.5C52.1 110.5 52.9 110.4 53.4 111.1V110.6H54.9V115Z" fill="#1F1F1F"/>
<path d="M52.5 111.8C52 111.8 51.6 112.2 51.6 112.7C51.6 113.2 52 113.6 52.5 113.6C53 113.6 53.4 113.2 53.4 112.7C53.4 112.2 53 111.8 52.5 111.8Z" fill="#1F1F1F"/>
<path d="M7 214.7H23.4" stroke="#6A44CE" stroke-width="1.75" stroke-miterlimit="4.6667" stroke-linecap="round" stroke-linejoin="round"/>
<path d="M18.7 219.4L23.4 214.7" stroke="#6A44CE" stroke-width="1.75" stroke-miterlimit="4.6667" stroke-linecap="round" stroke-linejoin="round"/>
<path d="M18.7 210L23.4 214.7" stroke="#6A44CE" stroke-width="1.75" stroke-miterlimit="4.6667" stroke-linecap="round" stroke-linejoin="round"/>
<path d="M37 214.7H53.4" stroke="white" stroke-width="1.75" stroke-miterlimit="4.6667" stroke-linecap="round" stroke-linejoin="round"/>
<path d="M48.7 219.4L53.4 214.7" stroke="white" stroke-width="1.75" stroke-miterlimit="4.6667" stroke-linecap="round" stroke-linejoin="round"/>
<path d="M48.7 210L53.4 214.7" stroke="white" stroke-width="1.75" stroke-miterlimit="4.6667" stroke-linecap="round" stroke-linejoin="round"/>
<path d="M37 244.7H53.4" stroke="black" stroke-width="1.75" stroke-miterlimit="4.6667" stroke-linecap="round" stroke-linejoin="round"/>
<path d="M48.7 249.4L53.4 244.7" stroke="black" stroke-width="1.75" stroke-miterlimit="4.6667" stroke-linecap="round" stroke-linejoin="round"/>
<path d="M48.7 240L53.4 244.7" stroke="black" stroke-width="1.75" stroke-miterlimit="4.6667" stroke-linecap="round" stroke-linejoin="round"/>
<path d="M224.85 221.002V208.998" stroke="black" stroke-width="1.75" stroke-miterlimit="4.6667" stroke-linecap="round" stroke-linejoin="round"/>
<path d="M229.55 213.7L224.85 209" stroke="black" stroke-width="1.75" stroke-miterlimit="4.6667" stroke-linecap="round" stroke-linejoin="round"/>
<path d="M220.15 213.7L224.85 209" stroke="black" stroke-width="1.75" stroke-miterlimit="4.6667" stroke-linecap="round" stroke-linejoin="round"/>
<path d="M224.85 251.002V238.998" stroke="white" stroke-width="1.75" stroke-miterlimit="4.6667" stroke-linecap="round" stroke-linejoin="round"/>
<path d="M229.55 243.7L224.85 239" stroke="white" stroke-width="1.75" stroke-miterlimit="4.6667" stroke-linecap="round" stroke-linejoin="round"/>
<path d="M220.15 243.7L224.85 239" stroke="white" stroke-width="1.75" stroke-miterlimit="4.6667" stroke-linecap="round" stroke-linejoin="round"/>
<path d="M75 209.9V220.2" stroke="white" stroke-width="1.75" stroke-miterlimit="4.6667" stroke-linecap="round" stroke-linejoin="round"/>
<path d="M69.9 215.1H80.2" stroke="white" stroke-width="1.75" stroke-miterlimit="4.6667" stroke-linecap="round" stroke-linejoin="round"/>
<path d="M102 409L108 415L102 421" stroke="black" stroke-width="2" stroke-linecap="round" stroke-linejoin="round"/>
<path d="M78.6785 414.77C79.1072 415.166 79.1072 415.834 78.6785 416.23L72.7314 421.724C72.0768 422.329 71 421.875 71 420.994L71 410.006C71 409.125 72.0768 408.671 72.7314 409.276L78.6785 414.77Z" fill="black"/>
<path d="M18 421L12 415L18 409" stroke="black" stroke-width="2" stroke-linecap="round" stroke-linejoin="round"/>
<path d="M40 408H42C42.6 408 43 408.4 43 409V420C43 420.6 42.6 421 42 421H40C39.4 421 39 420.6 39 420V409C39 408.4 39.4 408 40 408Z" stroke="black" stroke-width="1.5" stroke-linecap="round" stroke-linejoin="round"/>
<path d="M48 408H50C50.6 408 51 408.4 51 409V420C51 420.6 50.6 421 50 421H48C47.4 421 47 420.6 47 420V409C47 408.4 47.4 408 48 408Z" stroke="black" stroke-width="1.5" stroke-linecap="round" stroke-linejoin="round"/>
<path d="M165.5 222.2C169.642 222.2 173 218.842 173 214.7C173 210.558 169.642 207.2 165.5 207.2C161.358 207.2 158 210.558 158 214.7C158 218.842 161.358 222.2 165.5 222.2Z" stroke="black" stroke-width="1.25" stroke-miterlimit="3.3333" stroke-linecap="round" stroke-linejoin="round"/>
<path d="M165.5 210.5V214.7L168 217.2" stroke="black" stroke-width="1.25" stroke-miterlimit="3.3333" stroke-linecap="round" stroke-linejoin="round"/>
<path d="M194.078 212.332C194.475 211.889 195.169 211.889 195.566 212.332L199.386 216.585C199.964 217.229 199.507 218.253 198.642 218.253H191.002C190.137 218.253 189.68 217.229 190.258 216.585L194.078 212.332Z" fill="white"/>
<path d="M10 304L16 308V316H12V311H8V316H4V308L10 304Z" fill="#898A92"/>
<path d="M20.6857 370.8H22.4C23.3143 370.8 24.1143 370 24.1143 369.086V365.771C24.1143 364.857 23.3143 364.057 22.4 364.057H10.6286C9.71428 364.057 8.91428 364.857 8.91428 365.771V369.086C8.91428 370 9.71428 370.8 10.6286 370.8H12.3428" stroke="black" stroke-linecap="round" stroke-linejoin="round"/>
<path d="M20.6857 364.057V360.743C20.6857 359.829 19.8857 359.029 18.9714 359.029H13.9429C13.0286 359.029 12.2286 359.829 12.2286 360.743V364.057" stroke="black" stroke-linecap="round" stroke-linejoin="round"/>
<path d="M13.9429 367.371H18.9714C19.8857 367.371 20.6857 368.171 20.6857 369.086V372.4C20.6857 373.314 19.8857 374.114 18.9714 374.114H13.9429C13.0286 374.114 12.2286 373.314 12.2286 372.4V369.086C12.2286 368.171 13.0286 367.371 13.9429 367.371Z" stroke="black" stroke-linecap="round" stroke-linejoin="round"/>
<path d="M43.5429 368.4C44.7421 368.4 45.7143 367.428 45.7143 366.229C45.7143 365.029 44.7421 364.057 43.5429 364.057C42.3436 364.057 41.3714 365.029 41.3714 366.229C41.3714 367.428 42.3436 368.4 43.5429 368.4Z" stroke="black" stroke-linecap="round" stroke-linejoin="round"/>
<path d="M52 364.171C53.1993 364.171 54.1714 363.199 54.1714 362C54.1714 360.801 53.1993 359.829 52 359.829C50.8008 359.829 49.8286 360.801 49.8286 362C49.8286 363.199 50.8008 364.171 52 364.171Z" stroke="black" stroke-linecap="round" stroke-linejoin="round"/>
<path d="M52 372.743C53.1993 372.743 54.1714 371.771 54.1714 370.571C54.1714 369.372 53.1993 368.4 52 368.4C50.8008 368.4 49.8286 369.372 49.8286 370.571C49.8286 371.771 50.8008 372.743 52 372.743Z" stroke="black" stroke-linecap="round" stroke-linejoin="round"/>
<path d="M45.3714 365.314L50.0572 362.914" stroke="black" stroke-linecap="round" stroke-linejoin="round"/>
<path d="M45.3714 367.143L50.0572 369.657" stroke="black" stroke-linecap="round" stroke-linejoin="round"/>
<rect x="180.681" y="359.939" width="1.14286" height="16" rx="0.571429" transform="rotate(45 180.681 359.939)" fill="black"/>
<rect x="169.368" y="360.747" width="1.14286" height="16" rx="0.571429" transform="rotate(-45 169.368 360.747)" fill="black"/>
<path d="M145.257 363.714C145.257 363.714 143.886 363.714 142.629 364.857V360.057H139.543V372.857H142.629V371.829C142.629 371.829 143.314 373.086 145.143 373.086C145.143 373.086 149.486 372.971 149.486 368.4C149.486 368.4 149.371 363.714 145.257 363.714ZM144.571 370.457C143.543 370.457 142.629 369.543 142.629 368.514C142.629 367.486 143.543 366.571 144.571 366.571C145.6 366.571 146.514 367.486 146.514 368.514C146.514 369.543 145.6 370.457 144.571 370.457Z" fill="#2DB24A"/>
<path d="M120 361.314C119.429 361.543 118.857 361.771 118.286 361.771C118.971 361.429 119.429 360.743 119.657 360.057C119.086 360.4 118.4 360.629 117.714 360.743C117.143 360.171 116.343 359.829 115.543 359.829C113.6 359.829 112.114 361.657 112.571 363.6C110.057 363.486 107.771 362.229 106.286 360.4C105.486 361.771 105.829 363.6 107.2 364.514C106.743 364.514 106.286 364.4 105.829 364.171C105.829 365.543 106.857 366.914 108.229 367.143C107.771 367.257 107.314 367.257 106.857 367.143C107.2 368.4 108.343 369.2 109.714 369.2C108.457 370.229 106.857 370.686 105.257 370.457C106.629 371.371 108.229 371.829 109.943 371.829C115.543 371.829 118.743 367.029 118.629 362.8C119.086 362.571 119.657 362 120 361.314Z" fill="#1DA1F2"/>
<path d="M78.1714 364.4H76.4571V366.686H78.1714V373.543H81.0286V366.686H83.0857L83.3143 364.4H81.0286V363.486C81.0286 362.914 81.1428 362.686 81.7143 362.686H83.3143V359.829H81.1428C79.0857 359.829 78.1714 360.743 78.1714 362.457V364.4Z" fill="#385599"/>
</svg>
