<svg width="17" height="17" viewBox="0 0 17 17" fill="none" xmlns="http://www.w3.org/2000/svg">
<path d="M10.5 5.93733V10.8625L6.27896 8.39993L10.5 5.93733ZM11.3736 3.80793L4.01796 8.09892C3.96524 8.12978 3.92152 8.1739 3.89114 8.22689C3.86076 8.27988 3.84478 8.33989 3.84478 8.40098C3.84478 8.46206 3.86076 8.52207 3.89114 8.57506C3.92152 8.62805 3.96524 8.67217 4.01796 8.70302L11.3736 12.994C11.4269 13.0252 11.4875 13.0416 11.5493 13.0417C11.6111 13.0419 11.6718 13.0256 11.7252 12.9947C11.7787 12.9638 11.823 12.9192 11.8537 12.8656C11.8844 12.8121 11.9003 12.7513 11.9 12.6895V4.10962C11.9 4.04804 11.8837 3.98754 11.8529 3.93424C11.8221 3.88093 11.7777 3.83671 11.7243 3.80603C11.6709 3.77536 11.6104 3.75931 11.5488 3.75952C11.4872 3.75973 11.4267 3.77619 11.3736 3.80723V3.80793Z" fill="#8B919C"/>
</svg>
