<svg width="100" height="55" viewBox="0 0 100 55" fill="none" xmlns="http://www.w3.org/2000/svg">
<path d="M90.6664 54.5304H9.3335V37.586L11.0279 35.8916L9.3335 34.1972V0.308472H70.3331L73.722 3.69734L77.1109 0.308472H90.6664V54.5304Z" fill="#1C1A54"/>
<path d="M90.6664 54.5304H50V0.308472H70.3332L73.7221 3.69734L77.1109 0.308472H90.6664V54.5304Z" fill="#1C1A54"/>
<path d="M11.593 48.8824V52.2713L13.2874 50.5769L11.593 48.8824Z" fill="#CCDDFF"/>
<path d="M18.3708 48.8824V52.2713L16.6764 50.5769L18.3708 48.8824Z" fill="#CCDDFF"/>
<path d="M18.9353 51.1415V50.0118L19.5001 50.5767L18.9353 51.1415Z" fill="#CCDDFF"/>
<path d="M50.0667 31.4392V46.8553L34.6506 31.4392L42.3587 23.7312L50.0667 31.4392Z" fill="#DD5F00"/>
<path d="M50.0664 46.8549V54.5298H38.5044V35.2928L50.0664 46.8549Z" fill="#FFBB33"/>
<path d="M65.4827 31.4392L50.0667 46.8553V31.4392L57.7747 23.7312L65.4827 31.4392Z" fill="#FFBB33"/>
<path d="M61.6287 35.2928V54.5298H50.0667V46.8549L61.6287 35.2928Z" fill="#DD5F00"/>
<path d="M57.7747 19.8771L50.0667 27.5851V12.1691L57.7747 19.8771Z" fill="#FEEF7E"/>
<path d="M69.3367 43.0009L61.6287 50.7089V35.2928L69.3367 43.0009Z" fill="#FEE94E"/>
<path d="M30.7964 43.0009L38.5044 50.7089V35.2928L30.7964 43.0009Z" fill="#FEEF7E"/>
<path d="M50.0667 12.1691V27.5851L42.3586 19.8771L50.0667 12.1691Z" fill="#FEE94E"/>
<path d="M22.8892 51.1412L24.5836 49.4468L26.278 51.1412L27.9725 49.4468L29.6669 51.1412H26.278H22.8892Z" fill="#CCDDFF"/>
<rect x="11.593" y="45.4934" width="76.2496" height="1.12963" fill="#1C1A54"/>
<rect x="83.324" y="48.8824" width="4.51849" height="3.38887" fill="#CCDDFF"/>
<rect x="11.593" y="45.4934" width="1.69443" height="1.12963" fill="#FFBB33"/>
<path d="M0.296631 8.21588L9.33362 17.2529V8.21588L4.81512 3.69739L0.296631 8.21588Z" fill="#DD5F00"/>
<path d="M18.3708 8.21588L9.33386 17.2529V8.21588L13.8524 3.69739L18.3708 8.21588Z" fill="#FFBB33"/>
<path d="M81.6294 30.2437L90.6664 39.2807V30.2437L86.1479 25.7252L81.6294 30.2437Z" fill="#CCDDFF"/>
<path d="M99.7034 30.2437L90.6664 39.2807V30.2437L95.1849 25.7252L99.7034 30.2437Z" fill="#6699FF"/>
<rect x="21.1946" y="7.08643" width="22.0277" height="1.69443" fill="#FFBB33"/>
<rect x="21.1946" y="10.4746" width="11.861" height="1.69443" fill="#F62D44"/>
</svg>
