<svg width="100" height="73" viewBox="0 0 100 73" fill="none" xmlns="http://www.w3.org/2000/svg">
<path d="M19.6597 62.3946V42.8491H79.9489V62.3946L67.3521 72.1673L32.6303 72.2189L19.6597 62.3946Z" fill="#1C1A54"/>
<path d="M79.9487 62.3946V42.8491H50.241V72.1674H67.352L79.9487 62.3946Z" fill="#1C1A54"/>
<path d="M32.3968 30.5269L19.6597 42.8491L32.6303 54.9271H67.3521L79.9489 42.8491L67.2117 30.5269H32.3968Z" fill="#FEEF7E"/>
<path d="M34.8517 32.2266L23.5913 42.6366L34.8517 53.0466H65.6301L76.8905 42.6366L65.6301 32.2266H34.8517Z" fill="white"/>
<path d="M34.6069 32.2266L23.5913 42.6366L34.6069 53.0466H50.2409V42.6366V32.2266H34.6069Z" fill="#FFF8C6"/>
<path d="M53.6799 43.8899L53.6694 47.0089L97.9976 3.19198L97.9976 1.03129e-06L53.6799 43.8899Z" fill="#1C1A54"/>
<path d="M55.369 8.79669L51.874 5.82236L55.369 2.84802V8.79669Z" fill="#FEE94E"/>
<path d="M25.7735 14.8055L22.7153 11.8312L25.7735 8.85693V14.8055Z" fill="#FEE94E"/>
<path d="M40.5783 27.9194L43.6365 24.9451L40.5783 21.9708V27.9194Z" fill="#FFBB33"/>
<path d="M72.7417 14.4666L75.7998 11.2798L72.7417 8.09302V14.4666Z" fill="#FFBB33"/>
<path d="M84.7542 32.2265L81.696 29.2522L84.7542 26.278V32.2265Z" fill="#FEE94E"/>
<path d="M94.805 43.6987L98.3 40.7243L94.805 37.75V43.6987Z" fill="#FFBB33"/>
<path d="M3.14188 44.9736L0.0837402 41.9992L3.14188 39.0249V44.9736Z" fill="#FEE94E"/>
<path d="M16.6015 32.2265L19.6597 29.2522L16.6015 26.278V32.2265Z" fill="#FFBB33"/>
<path d="M53.5176 47.3106V43.4865L61.5998 35.6257V39.4499L53.5176 47.3106Z" fill="#FFBB33"/>
<path d="M46.3206 43.8899L46.3311 47.0089L2.00293 3.192L2.00293 1.63536e-05L46.3206 43.8899Z" fill="#1C1A54"/>
<path d="M46.4834 47.3106V43.4865L38.4012 35.6257V39.4499L46.4834 47.3106Z" fill="#FFBB33"/>
<path d="M50.2002 72.2188V54.927H32.6301V72.2188H50.2002Z" fill="#EC1A5B"/>
<path d="M67.3522 72.2189V54.8876L50.2004 54.927V72.2189H67.3522Z" fill="#EC1A5B"/>
</svg>
