<svg width="40" height="40" viewBox="0 0 40 40" fill="none" xmlns="http://www.w3.org/2000/svg">
<mask id="mask0" mask-type="alpha" maskUnits="userSpaceOnUse" x="0" y="0" width="40" height="40">
<rect width="40" height="40" fill="#C4C4C4"/>
</mask>
<g mask="url(#mask0)">
<path d="M16.5842 22.9373C17.6591 23.3972 18.8876 23.7038 20.2696 23.7038C21.6517 23.7038 23.0337 23.3972 24.2621 22.784C27.4869 21.2509 29.6367 18.0314 29.6367 14.3519C29.6367 13.7387 29.6367 13.2787 29.4831 12.6655C28.7153 8.37282 24.8764 5 20.2696 5C15.6629 5 11.8239 8.21951 11.0561 12.6655C11.0561 13.1254 10.9026 13.7387 10.9026 14.3519C10.9026 18.1847 13.3595 21.5575 16.5842 22.9373Z" fill="white"/>
<path d="M33.015 35.9686C32.8615 35.2021 32.7079 34.4355 32.4008 33.8223C30.8652 29.8362 27.3334 26.9233 23.0338 26.0035L21.1911 29.0697L22.4195 33.0557L23.1873 35.5087L20.7304 39.4947L20.2697 40.2613V40.108L17.5057 35.5087L18.2735 32.7491L19.3484 29.0697L17.5057 26.0035C13.9738 26.77 10.9027 28.9163 9.05998 31.9826C7.83152 33.9756 7.21729 36.2752 7.21729 38.7282V39.6481V40.5679V46.547C7.21729 46.8536 7.37084 47.3136 7.37084 47.4669C7.67796 48.2334 8.59931 48.8467 9.52066 48.8467H30.7117C31.633 48.8467 32.5544 48.2334 32.8615 47.4669C33.015 47.1603 33.015 46.8536 33.015 46.547V40.5679V39.6481V38.7282C33.015 37.8083 32.8615 37.0418 32.7079 36.2752C33.015 36.1219 33.015 36.1219 33.015 35.9686Z" fill="white"/>
</g>
</svg>
