<svg width="120" height="120" viewBox="0 0 120 120" fill="none" xmlns="http://www.w3.org/2000/svg">
<path d="M36.3998 28.2H84.3998V3.79999H5.7998V92.8H36.3998V28.2Z" fill="white" fill-opacity="0.4"/>
<path d="M36.4 94.6H5.79999C4.79999 94.6 4 93.8 4 92.8V3.8C4 2.8 4.79999 2 5.79999 2H84.4C85.4 2 86.2 2.8 86.2 3.8V28.1C86.2 29.1 85.4 29.9 84.4 29.9H38.2V92.8C38.2 93.8 37.4 94.6 36.4 94.6ZM7.59998 91.1H34.7V28.2C34.7 27.2 35.5 26.4 36.5 26.4H82.7V5.60001H7.59998V91.1Z" fill="white" fill-opacity="0.4"/>
<path d="M98.4002 118.9H36.5002C35.5002 118.9 34.7002 118.1 34.7002 117.1V28.1C34.7002 27.1 35.5002 26.3 36.5002 26.3H115.1C116.1 26.3 116.9 27.1 116.9 28.1V100.4C116.9 100.9 116.7 101.3 116.4 101.6L99.7002 118.3C99.3002 118.8 98.8002 118.9 98.4002 118.9ZM38.2002 115.4H97.6002L113.3 99.7V29.8H38.2002V115.4Z" fill="white"/>
<path d="M98.4004 117.2L115.1 100.5H98.4004V117.2Z" fill="white" fill-opacity="0.4"/>
<path d="M98.4001 118.9C98.2001 118.9 97.9001 118.9 97.7001 118.8C97.0001 118.5 96.6001 117.9 96.6001 117.2V100.5C96.6001 99.5 97.4001 98.7 98.4001 98.7H115.1C115.8 98.7 116.4 99.1 116.7 99.8C117 100.5 116.8 101.2 116.3 101.7L99.6001 118.4C99.3001 118.8 98.8001 118.9 98.4001 118.9ZM100.1 102.2V112.9L110.8 102.2H100.1Z" fill="white"/>
<path d="M11.1 89C10.7 89 10.2 88.8 9.9 88.5C9.2 87.8 9.2 86.7 9.9 86L18.8 77.1C19.5 76.4 20.6 76.4 21.3 77.1L30.2 86C30.9 86.7 30.9 87.8 30.2 88.5C29.5 89.2 28.4 89.2 27.7 88.5L20.1 80.9L12.5 88.5C12 88.9 11.5 89 11.1 89Z" fill="white"/>
<path d="M46.0001 107.8H40.4001C28.4001 107.8 18.6001 98 18.6001 86V80.4C18.6001 79.4 19.4001 78.6 20.4001 78.6C21.4001 78.6 22.2001 79.4 22.2001 80.4V86C22.2001 96.1 30.4001 104.3 40.5001 104.3H46.1001C47.1001 104.3 47.9001 105.1 47.9001 106.1C47.8001 107 47.0001 107.8 46.0001 107.8Z" fill="white"/>
<path d="M98 45.1C97.6 45.1 97.1 44.9 96.8 44.6L87.9 35.7C87.2 35 87.2 33.9 87.9 33.2C88.6 32.5 89.7 32.5 90.4 33.2L98 40.8L105.6 33.2C106.3 32.5 107.4 32.5 108.1 33.2C108.8 33.9 108.8 35 108.1 35.7L99.2 44.6C98.9 45 98.5 45.1 98 45.1Z" fill="white"/>
<path d="M97.7002 43.2C96.7002 43.2 95.9002 42.4 95.9002 41.4V35.8C95.9002 25.7 87.7002 17.5 77.6002 17.5H72.0002C71.0002 17.5 70.2002 16.7 70.2002 15.7C70.2002 14.7 71.0002 13.9 72.0002 13.9H77.6002C89.6002 13.9 99.4002 23.7 99.4002 35.7V41.3C99.4002 42.4 98.6002 43.2 97.7002 43.2Z" fill="white"/>
<path d="M76.0998 37.8H44.7998V48.1H76.0998V37.8Z" fill="white" fill-opacity="0.4"/>
<path d="M103.8 62.6H47.0998C46.0998 62.6 45.2998 61.8 45.2998 60.8C45.2998 59.8 46.0998 59 47.0998 59H103.8C104.8 59 105.6 59.8 105.6 60.8C105.6 61.8 104.7 62.6 103.8 62.6Z" fill="white"/>
<path d="M103.8 73.2H47.0998C46.0998 73.2 45.2998 72.4 45.2998 71.4C45.2998 70.4 46.0998 69.6 47.0998 69.6H103.8C104.8 69.6 105.6 70.4 105.6 71.4C105.5 72.5 104.7 73.2 103.8 73.2Z" fill="white"/>
<path d="M103.8 83.9H47.0998C46.0998 83.9 45.2998 83.1 45.2998 82.1C45.2998 81.1 46.0998 80.3 47.0998 80.3H103.8C104.8 80.3 105.6 81.1 105.6 82.1C105.6 83.1 104.7 83.9 103.8 83.9Z" fill="white"/>
<path d="M83.7998 94.6H47.0998C46.0998 94.6 45.2998 93.8 45.2998 92.8C45.2998 91.8 46.0998 91 47.0998 91H83.7998C84.7998 91 85.5998 91.8 85.5998 92.8C85.5998 93.8 84.6998 94.6 83.7998 94.6Z" fill="white"/>
</svg>
