<svg width="120" height="120" viewBox="0 0 120 120" fill="none" xmlns="http://www.w3.org/2000/svg">
<path d="M41.7 78.6H3.79999C2.79999 78.6 2 77.8 2 76.8V13.6C2 12.6 2.79999 11.8 3.79999 11.8H10.7C11.7 11.8 12.5 12.6 12.5 13.6C12.5 14.6 11.7 15.4 10.7 15.4H5.5V75.2H41.7C42.7 75.2 43.5 76 43.5 77C43.5 78 42.6 78.6 41.7 78.6Z" fill="white"/>
<path d="M117.1 78.6H95.5998C94.5998 78.6 93.7998 77.8 93.7998 76.8C93.7998 75.8 94.5998 75 95.5998 75H115.3V15.3H111.1C110.1 15.3 109.3 14.5 109.3 13.5C109.3 12.5 110.1 11.7 111.1 11.7H117.1C118.1 11.7 118.9 12.5 118.9 13.5V76.8C118.9 77.8 118.1 78.6 117.1 78.6Z" fill="white"/>
<path d="M59.3998 71.2H12.0998C11.0998 71.2 10.2998 70.4 10.2998 69.4V5.8C10.2998 4.8 11.0998 4 12.0998 4H47.6998C55.6998 4 62.1998 10.4 62.1998 18.3C62.1998 19.3 61.3998 20 60.3998 20C59.3998 20 58.5998 19.2 58.5998 18.3C58.5998 12.3 53.6998 7.5 47.5998 7.5H13.6998V67.7H59.2998C60.2998 67.7 61.0998 68.5 61.0998 69.5C61.0998 70.5 60.3998 71.2 59.3998 71.2Z" fill="white"/>
<path d="M108.8 71.2H101.4C100.4 71.2 99.6 70.4 99.6 69.4C99.6 68.4 100.4 67.6 101.4 67.6H107V7.60001H73.1C67.1 7.60001 62.1 12.4 62.1 18.4V36.4C62.1 37.4 61.3 38.2 60.3 38.2C59.3 38.2 58.5 37.4 58.5 36.4V18.4C58.5 10.5 65 4.10001 73 4.10001H108.6C109.6 4.10001 110.4 4.90001 110.4 5.90001V69.5C110.5 70.4 109.7 71.2 108.8 71.2Z" fill="white"/>
<path d="M49.1997 22.9H22.4997C21.4997 22.9 20.6997 22.1 20.6997 21.1C20.6997 20.1 21.4997 19.3 22.4997 19.3H49.1997C50.1997 19.3 50.9997 20.1 50.9997 21.1C50.9997 22.1 50.1997 22.9 49.1997 22.9Z" fill="white"/>
<path d="M49.1997 32.4H22.4997C21.4997 32.4 20.6997 31.6 20.6997 30.6C20.6997 29.6 21.4997 28.8 22.4997 28.8H49.1997C50.1997 28.8 50.9997 29.6 50.9997 30.6C50.9997 31.6 50.1997 32.4 49.1997 32.4Z" fill="white"/>
<path d="M49.1997 41.9H22.4997C21.4997 41.9 20.6997 41.1 20.6997 40.1C20.6997 39.1 21.4997 38.3 22.4997 38.3H49.1997C50.1997 38.3 50.9997 39.1 50.9997 40.1C50.9997 41.1 50.1997 41.9 49.1997 41.9Z" fill="white"/>
<path d="M49.1997 51.5H22.4997C21.4997 51.5 20.6997 50.7 20.6997 49.7C20.6997 48.7 21.4997 47.9 22.4997 47.9H49.1997C50.1997 47.9 50.9997 48.7 50.9997 49.7C50.9997 50.7 50.1997 51.5 49.1997 51.5Z" fill="white"/>
<path d="M49.1997 61H22.4997C21.4997 61 20.6997 60.2 20.6997 59.2C20.6997 58.2 21.4997 57.4 22.4997 57.4H49.1997C50.1997 57.4 50.9997 58.2 50.9997 59.2C50.9997 60.2 50.1997 61 49.1997 61Z" fill="white"/>
<path d="M98.2998 22.9H71.5998C70.5998 22.9 69.7998 22.1 69.7998 21.1C69.7998 20.1 70.5998 19.3 71.5998 19.3H98.2998C99.2998 19.3 100.1 20.1 100.1 21.1C100.1 22.1 99.2998 22.9 98.2998 22.9Z" fill="white"/>
<path d="M98.2998 32.4H71.5998C70.5998 32.4 69.7998 31.6 69.7998 30.6C69.7998 29.6 70.5998 28.8 71.5998 28.8H98.2998C99.2998 28.8 100.1 29.6 100.1 30.6C100.1 31.6 99.2998 32.4 98.2998 32.4Z" fill="white"/>
<path d="M98.2998 41.9H71.5998C70.5998 41.9 69.7998 41.1 69.7998 40.1C69.7998 39.1 70.5998 38.3 71.5998 38.3H98.2998C99.2998 38.3 100.1 39.1 100.1 40.1C100.1 41.1 99.2998 41.9 98.2998 41.9Z" fill="white"/>
<path d="M98.2998 51.5H79.0998C78.0998 51.5 77.2998 50.7 77.2998 49.7C77.2998 48.7 78.0998 47.9 79.0998 47.9H98.2998C99.2998 47.9 100.1 48.7 100.1 49.7C100.1 50.7 99.2998 51.5 98.2998 51.5Z" fill="white"/>
<path d="M60.4004 113.9C79.4542 113.9 94.9004 98.4538 94.9004 79.4C94.9004 60.3462 79.4542 44.9 60.4004 44.9C41.3466 44.9 25.9004 60.3462 25.9004 79.4C25.9004 98.4538 41.3466 113.9 60.4004 113.9Z" fill="white" fill-opacity="0.4"/>
<path d="M60.4002 115.7C40.4002 115.7 24.2002 99.4 24.2002 79.5C24.2002 59.6 40.5002 43.3 60.4002 43.3C80.4002 43.3 96.6002 59.6 96.6002 79.5C96.6002 99.4 80.4002 115.7 60.4002 115.7ZM60.4002 46.7C42.3002 46.7 27.6002 61.4 27.6002 79.4C27.6002 97.4 42.3002 112.2 60.4002 112.2C78.5002 112.2 93.2002 97.5 93.2002 79.4C93.2002 61.3 78.5002 46.7 60.4002 46.7Z" fill="white"/>
<path d="M40 93.6C36.4 93.6 33.5 90.7 33.5 87.1C33.5 83.5 36.4 80.6 40 80.6C41.7 80.6 43.3 81.3 44.6 82.5C45.8 83.7 46.5 85.3 46.5 87.1C46.5 88.8 45.8 90.4 44.6 91.7C43.3 92.9 41.7 93.6 40 93.6ZM40 84.2C38.4 84.2 37 85.5 37 87.2C37 88.8 38.3 90.2 40 90.2C40.8 90.2 41.5 89.9 42.1 89.3C42.7 88.7 43 88 43 87.2C43 86.4 42.7 85.7 42.1 85.1C41.5 84.5 40.7 84.2 40 84.2Z" fill="white"/>
<path d="M53.1001 80.5C49.5001 80.5 46.6001 77.6 46.6001 74C46.6001 70.4 49.5001 67.5 53.0001 67.5C56.6001 67.5 59.5001 70.4 59.5001 74C59.5001 77.6 56.6001 80.5 53.1001 80.5ZM53.1001 71.1C51.5001 71.1 50.1001 72.4 50.1001 74.1C50.1001 75.7 51.4001 77.1 53.1001 77.1C54.7001 77.1 56.1001 75.8 56.1001 74.1C56.0001 72.4 54.7001 71.1 53.1001 71.1Z" fill="white"/>
<path d="M43.8998 84.9C43.4998 84.9 42.9998 84.7 42.6998 84.4C41.9998 83.7 41.9998 82.6 42.6998 81.9L47.8998 76.7C48.5998 76 49.6998 76 50.3998 76.7C51.0998 77.4 51.0998 78.5 50.3998 79.2L45.1998 84.4C44.7998 84.7 44.3998 84.9 43.8998 84.9Z" fill="white"/>
<path d="M67.7998 93.6C64.1998 93.6 61.2998 90.7 61.2998 87.1C61.2998 83.5 64.1998 80.6 67.7998 80.6C69.4998 80.6 71.0998 81.3 72.3998 82.5C73.5998 83.7 74.2998 85.3 74.2998 87.1C74.2998 88.8 73.5998 90.4 72.3998 91.7C71.1998 92.9 69.5998 93.6 67.7998 93.6ZM67.7998 84.2C66.1998 84.2 64.7998 85.5 64.7998 87.2C64.7998 88.8 66.0998 90.2 67.7998 90.2C68.5998 90.2 69.2998 89.9 69.8998 89.3C70.4998 88.7 70.7998 88 70.7998 87.2C70.7998 86.4 70.4998 85.7 69.8998 85.1C69.3998 84.5 68.5998 84.2 67.7998 84.2Z" fill="white"/>
<path d="M80.8999 80.5C77.2999 80.5 74.3999 77.6 74.3999 74C74.3999 70.4 77.2999 67.5 80.7999 67.5C82.4999 67.5 84.0999 68.2 85.3999 69.4C86.5999 70.6 87.2999 72.2 87.2999 74C87.2999 75.7 86.5999 77.3 85.3999 78.6C84.2999 79.8 82.6999 80.5 80.8999 80.5ZM80.8999 71.1C79.2999 71.1 77.8999 72.4 77.8999 74.1C77.8999 75.7 79.1999 77.1 80.8999 77.1C81.6999 77.1 82.3999 76.8 82.9999 76.2C83.5999 75.6 83.8999 74.9 83.8999 74.1C83.8999 73.3 83.5999 72.6 82.9999 72C82.4999 71.4 81.6999 71.1 80.8999 71.1Z" fill="white"/>
<path d="M71.7997 84.9C71.3997 84.9 70.8997 84.7 70.5997 84.4C69.8997 83.7 69.8997 82.6 70.5997 81.9L75.7997 76.7C76.4997 76 77.5997 76 78.2997 76.7C78.9997 77.4 78.9997 78.5 78.2997 79.2L73.0997 84.4C72.6997 84.7 72.1997 84.9 71.7997 84.9Z" fill="white"/>
<path d="M63.4999 85.3C63.0999 85.3 62.5999 85.1 62.2999 84.8L56.2999 78.8C55.5999 78.1 55.5999 77 56.2999 76.3C56.9999 75.6 58.0999 75.6 58.7999 76.3L64.7999 82.3C65.4999 83 65.4999 84.1 64.7999 84.8C64.3999 85.2 63.8999 85.3 63.4999 85.3Z" fill="white"/>
</svg>
