<svg width="120" height="120" viewBox="0 0 120 120" fill="none" xmlns="http://www.w3.org/2000/svg">
<path d="M116.2 6.79999H2.7998V18.1H116.2V6.79999Z" fill="white" fill-opacity="0.4"/>
<path d="M116.1 97.9H76.1C75.1 97.9 74.3 97.1 74.3 96.1C74.3 95.1 75.1 94.3 76.1 94.3H114.3V8.5H4.5V94.3H37.6C38.6 94.3 39.4 95.1 39.4 96.1C39.4 97.1 38.6 97.9 37.6 97.9H2.8C1.8 97.9 1 97.1 1 96.1V6.79999C1 5.79999 1.8 5 2.8 5H116.2C117.2 5 118 5.79999 118 6.79999V96.1C117.9 97.1 117.1 97.9 116.1 97.9Z" fill="white"/>
<path d="M9.7998 15.5C10.9044 15.5 11.7998 14.6046 11.7998 13.5C11.7998 12.3954 10.9044 11.5 9.7998 11.5C8.69524 11.5 7.7998 12.3954 7.7998 13.5C7.7998 14.6046 8.69524 15.5 9.7998 15.5Z" fill="white"/>
<path d="M16.3999 15.5C17.5045 15.5 18.3999 14.6046 18.3999 13.5C18.3999 12.3954 17.5045 11.5 16.3999 11.5C15.2953 11.5 14.3999 12.3954 14.3999 13.5C14.3999 14.6046 15.2953 15.5 16.3999 15.5Z" fill="white"/>
<path d="M23.0996 15.5C24.2042 15.5 25.0996 14.6046 25.0996 13.5C25.0996 12.3954 24.2042 11.5 23.0996 11.5C21.995 11.5 21.0996 12.3954 21.0996 13.5C21.0996 14.6046 21.995 15.5 23.0996 15.5Z" fill="white"/>
<path d="M70.2996 105.9C70.2996 110.1 66.8996 113.5 62.6996 113.5H56.1996C51.9996 113.5 48.5996 110.1 48.5996 105.9" fill="white" fill-opacity="0.4"/>
<path d="M62.6998 115.3H56.1998C50.9998 115.3 46.7998 111.1 46.7998 105.9C46.7998 104.9 47.5998 104.1 48.5998 104.1C49.5998 104.1 50.3998 104.9 50.3998 105.9C50.3998 109.1 52.9998 111.8 56.2998 111.8H62.7998C65.9998 111.8 68.6998 109.2 68.6998 105.9C68.6998 104.9 69.4998 104.1 70.4998 104.1C71.4998 104.1 72.2998 104.9 72.2998 105.9C72.0998 111.1 67.8998 115.3 62.6998 115.3Z" fill="white"/>
<path d="M75.0998 89.1V105.9H66.2998V89.1" fill="white" fill-opacity="0.4"/>
<path d="M81.5 57.3C81.5 45.1 71.6 35.3 59.5 35.3C47.3 35.3 37.5 45.2 37.5 57.3C37.5 69.5 47.4 79.3 59.5 79.3C71.6 79.3 81.5 69.5 81.5 57.3Z" fill="white" fill-opacity="0.4"/>
<path d="M75.1 90.8C74.1 90.8 73.3 90 73.3 89V83C73.3 82.4 73.6 81.8 74.1 81.5C82.6 76.3 87.7 67.3 87.7 57.3C87.7 41.7 75 29 59.4 29C43.8 29 31.1 41.7 31.1 57.3C31.1 67.2 36.2 76.3 44.7 81.5C45.2 81.8 45.5 82.4 45.5 83V89.1C45.5 90.1 44.7 90.9 43.7 90.9C42.7 90.9 41.9 90.1 41.9 89.1V84C32.9 78.1 27.5 68.2 27.5 57.3C27.5 39.7 41.8 25.5 59.3 25.5C76.9 25.5 91.1 39.8 91.1 57.3C91.1 68.1 85.7 78 76.7 84V89.1C76.9 90.1 76.1 90.8 75.1 90.8Z" fill="white"/>
<path d="M75.1 107.6H43.8C42.8 107.6 42 106.8 42 105.8V89C42 88 42.8 87.2 43.8 87.2H75.2C76.2 87.2 77 88 77 89V105.8C76.9 106.9 76.1 107.6 75.1 107.6ZM45.5 104.1H73.4V90.8H45.5V104.1Z" fill="white"/>
<path d="M79.8002 90.8H39.0002C38.0002 90.8 37.2002 90 37.2002 89C37.2002 88 38.0002 87.2 39.0002 87.2H79.8002C80.8002 87.2 81.6002 88 81.6002 89C81.6002 90 80.8002 90.8 79.8002 90.8Z" fill="white"/>
<path d="M69.0001 96.1H49.9001C48.9001 96.1 48.1001 95.3 48.1001 94.3C48.1001 93.3 48.9001 92.5 49.9001 92.5H69.0001C70.0001 92.5 70.8001 93.3 70.8001 94.3C70.8001 95.3 70.0001 96.1 69.0001 96.1Z" fill="white"/>
<path d="M69.0001 101.2H49.9001C48.9001 101.2 48.1001 100.4 48.1001 99.4C48.1001 98.4 48.9001 97.6 49.9001 97.6H69.0001C70.0001 97.6 70.8001 98.4 70.8001 99.4C70.8001 100.4 70.0001 101.2 69.0001 101.2Z" fill="white"/>
<path d="M23.4001 59.2H16.4001C15.4001 59.2 14.6001 58.4 14.6001 57.4C14.6001 56.4 15.4001 55.6 16.4001 55.6H23.4001C24.4001 55.6 25.2001 56.4 25.2001 57.4C25.2001 58.4 24.3001 59.2 23.4001 59.2Z" fill="white"/>
<path d="M102.5 59.2H95.5002C94.5002 59.2 93.7002 58.4 93.7002 57.4C93.7002 56.4 94.5002 55.6 95.5002 55.6H102.5C103.5 55.6 104.3 56.4 104.3 57.4C104.3 58.4 103.5 59.2 102.5 59.2Z" fill="white"/>
<path d="M22.0999 80.8C21.4999 80.8 20.8999 80.5 20.5999 79.9C20.0999 79.1 20.3999 78 21.1999 77.5L27.2999 74C28.0999 73.5 29.1999 73.8 29.6999 74.6C30.1999 75.4 29.8999 76.5 29.0999 77L22.9999 80.5C22.6999 80.7 22.3999 80.8 22.0999 80.8Z" fill="white"/>
<path d="M90.7 41.2C90.1 41.2 89.5 40.9 89.2 40.3C88.7 39.5 89 38.4 89.8 37.9L95.9 34.4C96.7 33.9 97.8 34.2 98.3 35C98.8 35.8 98.5 36.9 97.7 37.4L91.6 40.9C91.3 41.1 91 41.2 90.7 41.2Z" fill="white"/>
<path d="M96.6999 80.8C96.3999 80.8 96.0999 80.7 95.7999 80.6L89.6999 77.1C88.8999 76.6 88.5999 75.5 89.0999 74.7C89.5999 73.9 90.6999 73.6 91.4999 74.1L97.5999 77.6C98.3999 78.1 98.6999 79.2 98.1999 80C97.8999 80.4 97.3999 80.8 96.6999 80.8Z" fill="white"/>
<path d="M28.1999 41.2C27.8999 41.2 27.5999 41.1 27.2999 41L21.1999 37.5C20.3999 37 20.0999 35.9 20.5999 35.1C21.0999 34.3 22.1999 34 22.9999 34.5L29.0999 38C29.8999 38.5 30.1999 39.6 29.6999 40.4C29.3999 40.9 28.7999 41.2 28.1999 41.2Z" fill="white"/>
<path d="M67.6999 59.3H51.1999C50.1999 59.3 49.3999 58.5 49.3999 57.5C49.3999 56.5 50.1999 55.7 51.1999 55.7H67.6999C68.6999 55.7 69.4999 56.5 69.4999 57.5C69.4999 58.5 68.6999 59.3 67.6999 59.3Z" fill="white"/>
<path d="M59.4001 89.3C58.4001 89.3 57.6001 88.5 57.6001 87.5V58C57.6001 57 58.4001 56.2 59.4001 56.2C60.4001 56.2 61.2001 57 61.2001 58V87.5C61.2001 88.5 60.4001 89.3 59.4001 89.3Z" fill="white"/>
</svg>
