<svg width="120" height="120" viewBox="0 0 120 120" fill="none" xmlns="http://www.w3.org/2000/svg">
<path d="M38.281 43.3H35.481C27.781 43.3 21.5811 49.5 21.5811 57.2V77.2H34.8811V53.3C34.8811 49.6 36.181 46.1 38.281 43.3Z" fill="white" fill-opacity="0.4"/>
<path d="M83.381 43.3H80.5811C82.6811 46.1 83.981 49.6001 83.981 53.4001V77.3H97.281V57.3C97.281 49.6 91.081 43.3 83.381 43.3Z" fill="white" fill-opacity="0.4"/>
<path d="M51.7811 30.3C51.7811 30.1 51.7811 29.8 51.7811 29.6C49.8811 27.9 48.5811 25.5 48.2811 22.8C46.6811 21.5 44.5811 20.7 42.2811 20.7C36.9811 20.7 32.6812 25 32.6812 30.3C32.6812 35.5 36.7812 39.7 41.8812 39.8C43.9812 38.3 46.4812 37.3 49.0812 36.9C50.7812 35.2 51.7811 32.9 51.7811 30.3Z" fill="white" fill-opacity="0.4"/>
<path d="M76.6812 39.9001C76.7812 39.9001 76.8812 39.9001 77.0812 39.9001C82.1812 39.7001 86.2811 35.5001 86.2811 30.4001C86.2811 25.1001 81.9812 20.8 76.6812 20.8C74.3812 20.8 72.3812 21.6001 70.6812 22.9001C70.2812 25.6001 68.9812 27.9 67.1812 29.7C67.1812 29.9 67.1812 30.2001 67.1812 30.4001C67.1812 33.0001 68.1812 35.3 69.8812 37C71.5812 38.8 73.9812 39.9001 76.6812 39.9001Z" fill="white" fill-opacity="0.4"/>
<path d="M83.8811 71H35.0811V78.1H83.8811V71Z" fill="white" fill-opacity="0.4"/>
<path d="M23.6811 109.2V102.5H16.5811L23.6811 109.2Z" fill="white" fill-opacity="0.4"/>
<path d="M95.1812 109.2V102.5H102.381L95.1812 109.2Z" fill="white" fill-opacity="0.4"/>
<path d="M59.4813 34.4C52.1813 34.4 46.2812 28.5 46.2812 21.2C46.2812 13.9 52.1813 8 59.4813 8C66.7813 8 72.6813 13.9 72.6813 21.2C72.5813 28.5 66.6813 34.4 59.4813 34.4ZM59.4813 11.6C54.1813 11.6 49.7812 15.9 49.7812 21.3C49.7812 26.6 54.0813 31 59.4813 31C64.8813 31 69.1813 26.7 69.1813 21.3C69.0813 15.9 64.7813 11.6 59.4813 11.6Z" fill="white"/>
<path d="M83.9813 79C82.9813 79 82.1813 78.2 82.1813 77.2V53.3C82.1813 45.1 75.4813 38.4 67.2813 38.4H51.3813C43.1813 38.4 36.4813 45.1 36.4813 53.3V77.3C36.4813 78.3 35.6813 79.1 34.6813 79.1C33.6813 79.1 32.8813 78.3 32.8813 77.3V53.4C32.8813 43.3 41.0813 35 51.2813 35H67.1813C77.2813 35 85.5814 43.2 85.5814 53.4V77.3C85.7814 78.2 84.9813 79 83.9813 79Z" fill="white"/>
<path d="M44.5813 79C43.5813 79 42.7812 78.2 42.7812 77.2V54.3C42.7812 53.3 43.5813 52.5 44.5813 52.5C45.5813 52.5 46.3813 53.3 46.3813 54.3V77.3C46.3813 78.2 45.5813 79 44.5813 79Z" fill="white"/>
<path d="M74.381 79C73.381 79 72.5811 78.2 72.5811 77.2V54.3C72.5811 53.3 73.381 52.5 74.381 52.5C75.381 52.5 76.181 53.3 76.181 54.3V77.3C76.081 78.2 75.281 79 74.381 79Z" fill="white"/>
<path d="M101.481 102.9H17.3811C16.3811 102.9 15.5811 102.1 15.5811 101.1V77.5C15.5811 76.5 16.3811 75.7 17.3811 75.7H101.481C102.481 75.7 103.281 76.5 103.281 77.5V101.1C103.281 102.1 102.481 102.9 101.481 102.9ZM19.1811 99.4H99.781V79.3H19.1811V99.4Z" fill="white"/>
<path d="M25.2811 111.4H2.78114C2.18114 111.4 1.58114 111.1 1.28114 110.6C0.981143 110.1 0.981137 109.4 1.18114 108.9L6.78114 97.9L1.18114 86.9C0.881137 86.4 0.981143 85.7 1.28114 85.2C1.58114 84.7 2.18114 84.4 2.78114 84.4H16.8811C17.8811 84.4 18.6811 85.2 18.6811 86.2C18.6811 87.2 17.8811 88 16.8811 88H5.58113L10.2811 97.2C10.5811 97.7 10.5811 98.3 10.2811 98.8L5.58113 108H23.4811V102.5C23.4811 101.5 24.2811 100.7 25.2811 100.7C26.2811 100.7 27.0811 101.5 27.0811 102.5V109.8C27.0811 110.6 26.2811 111.4 25.2811 111.4Z" fill="white"/>
<path d="M116.181 111.4H93.6813C92.6813 111.4 91.8813 110.6 91.8813 109.6V102.3C91.8813 101.3 92.6813 100.5 93.6813 100.5C94.6813 100.5 95.4813 101.3 95.4813 102.3V107.8H113.381L108.681 98.6C108.381 98.1 108.381 97.5 108.681 97L113.381 87.8H102.081C101.081 87.8 100.281 87 100.281 86C100.281 85 101.081 84.2 102.081 84.2H116.181C116.781 84.2 117.381 84.5 117.681 85C117.981 85.5 117.981 86.2 117.781 86.7L112.181 97.7L117.781 108.7C118.081 109.2 117.981 109.9 117.681 110.4C117.281 111.1 116.781 111.4 116.181 111.4Z" fill="white"/>
</svg>
