<svg width="120" height="120" viewBox="0 0 120 120" fill="none" xmlns="http://www.w3.org/2000/svg">
<path d="M116 76.825H4.7998V87.225H116V76.825Z" fill="white" fill-opacity="0.4"/>
<path d="M116 118.925H4.8C3.8 118.925 3 118.125 3 117.125V76.725C3 75.725 3.8 74.925 4.8 74.925H116C117 74.925 117.8 75.725 117.8 76.725V117.125C117.8 118.125 117 118.925 116 118.925ZM6.5 115.425H114.3V78.525H6.5V115.425Z" fill="white"/>
<path d="M60.3999 46.725C49.0999 46.725 39.8999 37.525 39.8999 26.225V10.825C39.8999 8.32498 40.3999 5.82501 41.2999 3.42501C41.4999 2.92501 41.8999 2.62501 42.2999 2.42501C42.7999 2.22501 43.2999 2.32499 43.6999 2.52499C46.5999 4.12499 49.0999 6.12499 51.2999 8.52499C53.6999 5.92499 56.3999 3.825 59.4999 2.225C59.9999 1.925 60.5999 1.925 61.0999 2.225C64.1999 3.825 66.9999 6.02499 69.2999 8.52499C71.4999 6.12499 74.0999 4.12499 76.8999 2.52499C77.2999 2.32499 77.8999 2.22501 78.2999 2.42501C78.7999 2.62501 79.1999 2.92501 79.2999 3.42501C80.1999 5.82501 80.6999 8.22498 80.6999 10.825V26.225C80.9999 37.525 71.6999 46.725 60.3999 46.725ZM43.8999 6.725C43.5999 8.025 43.3999 9.42498 43.3999 10.825V26.225C43.3999 35.625 50.9999 43.225 60.3999 43.225C69.7999 43.225 77.3999 35.625 77.3999 26.225V10.825C77.3999 9.42498 77.1999 8.025 76.8999 6.725C74.5999 8.225 72.4999 10.125 70.7999 12.325C70.4999 12.725 69.9999 13.025 69.3999 13.025C68.8999 13.025 68.3999 12.825 67.9999 12.325C65.7999 9.62498 63.2999 7.425 60.2999 5.725C57.2999 7.425 54.7999 9.62498 52.5999 12.325C51.8999 13.125 50.4999 13.125 49.8999 12.325C48.1999 10.225 46.1999 8.325 43.8999 6.725Z" fill="white"/>
<path d="M59.9999 28.5249C59.1999 28.5249 58.3999 27.9249 58.2999 27.0249C57.1999 20.3249 50.1998 12.4249 50.0998 12.3249C49.4998 11.6249 49.4998 10.5249 50.1998 9.82492C50.8998 9.22492 51.9998 9.22496 52.6998 9.92496C52.9998 10.325 60.3999 18.6249 61.7999 26.3249C61.9999 27.3249 61.2999 28.2249 60.3999 28.3249C60.1999 28.5249 60.0999 28.5249 59.9999 28.5249Z" fill="white"/>
<path d="M54.8998 45.1249C54.7998 45.1249 54.6998 45.1249 54.6998 45.1249C53.6998 45.0249 53.0998 44.1249 53.1998 43.1249C55.3998 27.8249 67.8998 10.925 68.3998 10.225C68.9998 9.42498 70.0998 9.32496 70.7998 9.82496C71.5998 10.425 71.6998 11.525 71.1998 12.225C71.0998 12.425 58.6998 29.125 56.5998 43.525C56.4998 44.525 55.7998 45.1249 54.8998 45.1249Z" fill="white"/>
<path d="M60.4001 108.525C59.4001 108.525 58.6001 107.725 58.6001 106.725V45.425C58.6001 44.425 59.4001 43.6249 60.4001 43.6249C61.4001 43.6249 62.2001 44.425 62.2001 45.425V106.725C62.2001 107.725 61.4001 108.525 60.4001 108.525Z" fill="white"/>
<path d="M45.1999 103.625C44.1999 103.625 43.3999 102.825 43.3999 101.825C43.3999 97.025 44.8999 93.125 47.7999 90.425C52.6999 85.925 59.6999 86.325 59.9999 86.325C60.9999 86.425 61.6999 87.225 61.5999 88.225C61.4999 89.225 60.6999 89.925 59.6999 89.825C59.5999 89.825 53.7999 89.525 50.0999 93.025C47.9999 95.025 46.8999 98.025 46.8999 101.825C46.9999 102.825 46.1999 103.625 45.1999 103.625Z" fill="white"/>
<path d="M75.5998 109.525C74.5998 109.525 73.7998 108.725 73.7998 107.725C73.7998 103.925 72.6998 100.925 70.5998 98.925C66.8998 95.425 60.9998 95.725 60.9998 95.725C59.9998 95.825 59.1998 95.025 59.0998 94.125C58.9998 93.125 59.7998 92.325 60.6998 92.225C60.9998 92.225 68.0998 91.825 72.8998 96.325C75.7998 99.025 77.2998 102.825 77.2998 107.725C77.3998 108.725 76.5998 109.525 75.5998 109.525Z" fill="white"/>
<path d="M40.8001 66.6249C31.8001 66.6249 24.3001 60.225 22.9001 51.325C22.5001 49.125 22.6002 46.925 23.0002 44.725C23.1002 44.225 23.4001 43.825 23.8001 43.525C25.7001 42.425 27.8002 41.725 30.0002 41.325C31.0002 41.125 31.9001 41.1249 32.9001 41.1249C41.9001 41.1249 49.4001 47.525 50.8001 56.425C51.1001 58.625 51.1001 60.825 50.6001 63.025C50.5001 63.525 50.2001 63.925 49.8001 64.225C47.9001 65.325 45.8001 66.025 43.6001 66.425C42.7001 66.525 41.7001 66.6249 40.8001 66.6249ZM26.3001 46.225C26.1001 47.725 26.1001 49.225 26.3001 50.725C27.4001 57.925 33.5001 63.025 40.8001 63.025C41.6001 63.025 42.4001 62.925 43.1001 62.825C44.6001 62.625 46.0001 62.125 47.4001 61.425C47.6001 59.925 47.6001 58.425 47.4001 56.925C46.3001 49.725 40.2001 44.6249 32.9001 44.6249C32.1001 44.6249 31.3001 44.725 30.6001 44.825C29.1001 45.125 27.6001 45.625 26.3001 46.225Z" fill="white"/>
<path d="M59.2 71.825C58.8 71.825 58.5 71.725 58.2 71.525L24.7 47.225C23.9 46.625 23.7 45.525 24.3 44.825C24.9 44.025 26 43.825 26.7 44.425L60.2 68.725C61 69.325 61.2 70.4249 60.6 71.1249C60.2 71.6249 59.7 71.825 59.2 71.825Z" fill="white"/>
<path d="M80.1001 66.6249C79.1001 66.6249 78.2001 66.525 77.2001 66.425C75.0001 66.025 72.9001 65.325 71.0001 64.225C70.6001 64.025 70.3001 63.525 70.2001 63.025C69.8001 60.825 69.7001 58.625 70.0001 56.425C71.4001 47.525 78.9001 41.1249 87.9001 41.1249C88.9001 41.1249 89.8001 41.225 90.8001 41.325C93.0001 41.725 95.1001 42.425 97.0001 43.525C97.4001 43.725 97.7001 44.225 97.8001 44.725C98.2001 46.925 98.3001 49.125 97.9001 51.325C96.6001 60.225 89.0001 66.6249 80.1001 66.6249ZM73.4001 61.525C74.7001 62.225 76.2001 62.625 77.7001 62.925C78.5001 63.025 79.3001 63.1249 80.0001 63.1249C87.2001 63.1249 93.3001 57.925 94.5001 50.825C94.7001 49.325 94.7001 47.825 94.5001 46.325C93.2001 45.625 91.7001 45.225 90.2001 44.925C89.4001 44.825 88.6001 44.725 87.9001 44.725C80.7001 44.725 74.6001 49.925 73.4001 57.025C73.2001 58.525 73.2001 60.025 73.4001 61.525Z" fill="white"/>
<path d="M61.7 71.825C61.2 71.825 60.6 71.5249 60.3 71.1249C59.7 70.3249 59.9 69.225 60.7 68.725L94.2 44.425C95 43.825 96.1 44.025 96.6 44.825C97.2 45.625 97 46.725 96.2 47.225L62.7 71.525C62.4 71.725 62 71.825 61.7 71.825Z" fill="white"/>
</svg>
