<svg width="120" height="120" viewBox="0 0 120 120" fill="none" xmlns="http://www.w3.org/2000/svg">
<path d="M95.7 74.3C94.7 74.3 93.9 73.5 93.9 72.5C93.9 71.5 94.7 70.7 95.7 70.7C105.9 70.7 114.3 62.4 114.3 52.1C114.3 44.7 109.9 38 103.1 35.1C102.6 34.9 102.2 34.4 102.1 33.8C99.5 18.5 86.4 7.4 70.9 7.4C60.6 7.4 50.9 12.4 45 20.8C44.5 21.6 43.4 21.8 42.6 21.3C40.4 19.9 38 19.2 35.4 19.2C28.2 19.2 22.3 24.9 22.1 32.1C22.1 33 21.4 33.7 20.6 33.8C11.4 35 4.5 42.9 4.5 52.2C4.5 62.4 12.8 70.8 23.1 70.8C24.1 70.8 24.9 71.6 24.9 72.6C24.9 73.6 24.1 74.4 23.1 74.4C10.9 74.4 1 64.5 1 52.3C1 41.7 8.49999 32.7 18.8 30.7C19.8 22.3 26.8 15.8 35.5 15.8C38.2 15.8 40.8 16.4 43.1 17.6C49.7 9 60 4 70.9 4C87.8 4 102.2 15.9 105.4 32.4C113 36.1 117.9 43.8 117.9 52.3C117.7 64.4 107.8 74.3 95.7 74.3Z" fill="white"/>
<path d="M28.1999 110.2C27.1999 110.2 26.3999 109.4 26.3999 108.4V42.8C26.3999 38.8 29.5999 35.6 33.5999 35.6H71.7999C72.7999 35.6 73.5999 36.4 73.5999 37.4C73.5999 38.4 72.7999 39.2 71.7999 39.2H33.5999C31.5999 39.2 29.8999 40.9 29.8999 42.9V102.4C30.9999 101.7 32.2999 101.4 33.5999 101.4H92.4999V39.1H79.0999C78.0999 39.1 77.2999 38.3 77.2999 37.3C77.2999 36.3 78.0999 35.5 79.0999 35.5H94.1999C95.1999 35.5 95.9999 36.3 95.9999 37.3V103C95.9999 103.5 95.7999 103.9 95.4999 104.2C95.1999 104.5 94.6999 104.7 94.2999 104.7H33.6999C31.6999 104.7 29.9999 106.4 29.9999 108.4C29.9999 109.4 29.1999 110.2 28.1999 110.2Z" fill="white"/>
<path d="M94.3 115.7H33.7C29.7 115.7 26.5 112.5 26.5 108.5C26.5 104.5 29.7 101.2 33.7 101.2H94.3C95.3 101.2 96.1 102 96.1 103C96.1 103.9 95.4 104.7 94.4 104.8C92.4 104.9 90.8 106.5 90.8 108.5C90.8 110.6 92.4 112.2 94.4 112.3C95.3 112.3 96.1 113.1 96.1 114C96.1 114.9 95.3 115.7 94.3 115.7ZM33.7 104.8C31.7 104.8 30 106.5 30 108.5C30 110.6 31.7 112.3 33.7 112.3H88.3C87.7 111.2 87.3 110 87.3 108.6C87.3 107.2 87.7 105.9 88.3 104.8H33.7Z" fill="white"/>
<path d="M81.8999 110.1H37.1999C36.1999 110.1 35.3999 109.3 35.3999 108.3C35.3999 107.3 36.1999 106.5 37.1999 106.5H81.8999C82.8999 106.5 83.6999 107.3 83.6999 108.3C83.6999 109.3 82.7999 110.1 81.8999 110.1Z" fill="white"/>
<path d="M36.5001 102C35.5001 102 34.8 101.2 34.8 100.2V46.6C34.8 45.6 35.6001 44.8 36.5001 44.8C37.4001 44.8 38.3 45.6 38.3 46.6V100.3C38.3 101.2 37.5001 102 36.5001 102Z" fill="white"/>
<path d="M88.2 44.6H43.2V96.6H88.2V44.6Z" fill="white" fill-opacity="0.4"/>
<path d="M61.0999 86.3C60.6999 86.3 60.1999 86.1 59.8999 85.8L51.2999 77.2C50.5999 76.5 50.5999 75.4 51.2999 74.7C51.9999 74 53.0999 74 53.7999 74.7L61.1999 82.1L68.5999 74.7C69.2999 74 70.3999 74 71.0999 74.7C71.7999 75.4 71.7999 76.5 71.0999 77.2L62.4999 85.8C61.9999 86.1 61.5999 86.3 61.0999 86.3Z" fill="white"/>
<path d="M61.0998 85.4C60.0998 85.4 59.2998 84.6 59.2998 83.6V48C59.2998 47 60.0998 46.2 61.0998 46.2C62.0998 46.2 62.8998 47 62.8998 48V83.6C62.8998 84.6 62.0998 85.4 61.0998 85.4Z" fill="white"/>
<path d="M81.5001 30C81.1001 30 80.6001 29.8 80.3001 29.5L72.9001 22.1L65.5001 29.5C64.8001 30.2 63.7001 30.2 63.0001 29.5C62.3001 28.8 62.3001 27.7 63.0001 27L71.6001 18.4C72.3001 17.7 73.4001 17.7 74.1001 18.4L82.7001 27C83.4001 27.7 83.4001 28.8 82.7001 29.5C82.4001 29.8 82.0001 30 81.5001 30Z" fill="white"/>
<path d="M72.9001 57.9C71.9001 57.9 71.1001 57.1 71.1001 56.1V20.5C71.1001 19.5 71.9001 18.7 72.9001 18.7C73.9001 18.7 74.7001 19.5 74.7001 20.5V56.1C74.6001 57.1 73.8001 57.9 72.9001 57.9Z" fill="white"/>
</svg>
