<svg width="120" height="120" viewBox="0 0 120 120" fill="none" xmlns="http://www.w3.org/2000/svg">
<path d="M103.3 69.4H17.6C16.6 69.4 15.8 68.6 15.8 67.6C15.8 66.6 16.6 65.8 17.6 65.8H103.2C104.2 65.8 105 66.6 105 67.6C105 68.6 104.2 69.4 103.3 69.4Z" fill="white"/>
<path d="M73.4 113C73.1 113 72.8999 112.9 72.5999 112.8L60.4 106.7L48.2 112.8C47.7 113.1 47 113 46.5 112.7C46 112.4 45.7 111.8 45.7 111.2V87.7C45.7 86.7 46.5 85.9 47.5 85.9C48.5 85.9 49.2999 86.7 49.2999 87.7V108.4L59.7999 103.2C60.2999 103 60.9 103 61.4 103.2L71.9 108.4V87.7C71.9 86.7 72.6999 85.9 73.6999 85.9C74.6999 85.9 75.5 86.7 75.5 87.7V111.2C75.5 111.8 75.1999 112.4 74.6999 112.7C74.0999 113 73.8 113 73.4 113Z" fill="white"/>
<path d="M117.1 86H3.8C2.8 86 2 85.2 2 84.2V9.8C2 8.8 2.8 8 3.8 8H117.2C118.2 8 119 8.8 119 9.8V84.2C118.9 85.2 118.1 86 117.1 86ZM5.5 82.5H115.4V11.6H5.5V82.5Z" fill="white"/>
<path d="M76.8999 81.8C76.8999 72.7 69.4999 65.3 60.3999 65.3C51.2999 65.3 43.8999 72.7 43.8999 81.8C43.8999 90.9 51.2999 98.3 60.3999 98.3C69.5999 98.3 76.8999 90.9 76.8999 81.8Z" fill="white" fill-opacity="0.4"/>
<path d="M60.4 100C50.3 100 42.2 91.8 42.2 81.8C42.2 71.7 50.4 63.5 60.4 63.5C70.5 63.5 78.5999 71.7 78.5999 81.8C78.6999 91.9 70.5 100 60.4 100ZM60.4 67C52.3 67 45.5999 73.6 45.5999 81.8C45.5999 89.9 52.2 96.6 60.4 96.6C68.5 96.6 75.1999 90 75.1999 81.8C75.1999 73.7 68.6 67 60.4 67Z" fill="white"/>
<path d="M69.4998 81.8C69.4998 76.8 65.3998 72.7 60.3998 72.7C55.3998 72.7 51.2998 76.8 51.2998 81.8C51.2998 86.8 55.3998 90.9 60.3998 90.9C65.4998 90.9 69.4998 86.8 69.4998 81.8Z" fill="white" fill-opacity="0.4"/>
<path d="M60.3999 92.6C54.3999 92.6 49.5999 87.7 49.5999 81.8C49.5999 75.8 54.4999 71 60.3999 71C66.3999 71 71.1999 75.9 71.1999 81.8C71.2999 87.8 66.3999 92.6 60.3999 92.6ZM60.3999 74.5C56.3999 74.5 53.0999 77.8 53.0999 81.8C53.0999 85.8 56.3999 89.1 60.3999 89.1C64.3999 89.1 67.6999 85.8 67.6999 81.8C67.7999 77.8 64.4999 74.5 60.3999 74.5Z" fill="white"/>
<path d="M84.8001 30H36.1001V39.3H84.8001V30Z" fill="white" fill-opacity="0.4"/>
<path d="M94.8 23.7H26.1C25.1 23.7 24.3 22.9 24.3 21.9C24.3 20.9 25.1 20.1 26.1 20.1H94.8C95.8 20.1 96.6001 20.9 96.6001 21.9C96.5001 22.9 95.7 23.7 94.8 23.7Z" fill="white"/>
<path d="M103.3 50H17.6C16.6 50 15.8 49.2 15.8 48.2C15.8 47.2 16.6 46.4 17.6 46.4H103.2C104.2 46.4 105 47.2 105 48.2C105 49.3 104.2 50 103.3 50Z" fill="white"/>
<path d="M103.3 59.7H17.6C16.6 59.7 15.8 58.9 15.8 57.9C15.8 56.9 16.6 56.1 17.6 56.1H103.2C104.2 56.1 105 56.9 105 57.9C105 58.9 104.2 59.7 103.3 59.7Z" fill="white"/>
</svg>
