<svg width="120" height="120" viewBox="0 0 120 120" fill="none" xmlns="http://www.w3.org/2000/svg">
<path d="M66.3 110C65.3 110 64.5 109.2 64.5 108.2C64.5 107.2 65.3 106.4 66.3 106.4C89.6 106.4 99.3 87.6 99.4 87.4C99.8 86.5 100.9 86.2 101.7 86.6C102.6 87 102.9 88.1 102.5 88.9C102.1 89.9 91.8 110 66.3 110Z" fill="white"/>
<path d="M71.7001 106.9C71.7001 102.9 68.4001 99.6 64.4001 99.6C60.3001 99.6 57.1001 102.9 57.1001 106.9C57.1001 110.9 60.4001 114.2 64.4001 114.2C68.4001 114.3 71.7001 111 71.7001 106.9Z" fill="white" fill-opacity="0.4"/>
<path d="M64.3002 116C59.3002 116 55.2002 111.9 55.2002 106.9C55.2002 101.9 59.3002 97.8 64.3002 97.8C69.3002 97.8 73.4002 101.9 73.4002 106.9C73.4002 111.9 69.4002 116 64.3002 116ZM64.3002 101.3C61.2002 101.3 58.7002 103.8 58.7002 106.9C58.7002 110 61.2002 112.5 64.3002 112.5C67.4002 112.5 69.9002 110 69.9002 106.9C69.9002 103.8 67.4002 101.3 64.3002 101.3Z" fill="white"/>
<path d="M101.7 59.3C100.7 59.3 99.8998 58.5 99.8998 57.5V48.4C99.8998 28.4 83.6998 12.2 63.6998 12.2H57.0998C37.0998 12.2 20.8998 28.4 20.8998 48.4V57.5C20.8998 58.5 20.0998 59.3 19.0998 59.3C18.0998 59.3 17.2998 58.5 17.2998 57.5V48.4C17.2998 26.5 35.0998 8.70001 56.9998 8.70001H63.5998C85.4998 8.70001 103.3 26.5 103.3 48.4V57.5C103.5 58.6 102.7 59.3 101.7 59.3Z" fill="white"/>
<path d="M88.3 24.3C87.2 24.3 86.1 23.9 85.3 23.2C79.3 18.1 71.6 15.3 63.8 15.3H57.2C49.3 15.3 41.7 18.1 35.7 23.2C33.7 24.9 30.8 24.6 29.1 22.7C27.4 20.7 27.7 17.8 29.6 16.1C37.3 9.50002 47.1 5.90002 57.2 5.90002H63.8C73.9 5.90002 83.7 9.50002 91.4 16.1C93.4 17.8 93.6 20.7 91.9 22.7C91 23.7 89.7 24.3 88.3 24.3Z" fill="white" fill-opacity="0.4"/>
<path d="M88.2999 26C86.7999 26 85.2999 25.5 84.0999 24.5C78.3999 19.7 71.1999 17 63.6999 17H57.0999C49.5999 17 42.3999 19.7 36.6999 24.5C35.4999 25.5 34.0999 26 32.4999 26C30.5999 26 28.7999 25.2 27.5999 23.7C25.2999 21 25.5999 16.9 28.2999 14.6C36.2999 7.80001 46.4999 4 57.0999 4H63.6999C74.1999 4 84.3999 7.80001 92.4999 14.6C93.7999 15.7 94.5999 17.3 94.6999 19C94.7999 20.7 94.2999 22.4 93.1999 23.7C91.9999 25.2 90.1999 26 88.2999 26ZM57.0999 13.5H63.6999C71.9999 13.5 80.0999 16.5 86.3999 21.8C87.5999 22.8 89.4999 22.7 90.4999 21.5C90.9999 20.9 91.2999 20.1 91.1999 19.4C91.0999 18.6 90.7999 17.9 90.1999 17.4C82.7999 11.1 73.3999 7.70001 63.6999 7.70001H57.0999C47.3999 7.70001 37.9999 11.2 30.5999 17.4C29.3999 18.4 29.1999 20.3 30.2999 21.5C31.2999 22.7 33.2999 22.8 34.3999 21.8C40.7999 16.4 48.7999 13.5 57.0999 13.5Z" fill="white"/>
<path d="M12.9 87.8C6.90002 87.8 2 82.9 2 76.9V59.9C2 53.9 6.90002 49 12.9 49C18.9 49 23.8 53.9 23.8 59.9V76.9C23.8 82.9 18.9 87.8 12.9 87.8ZM12.9 52.6C8.80002 52.6 5.5 55.9 5.5 60V77C5.5 81.1 8.80002 84.4 12.9 84.4C17 84.4 20.3 81.1 20.3 77V60C20.3 55.9 17 52.6 12.9 52.6Z" fill="white"/>
<path d="M26.0996 82.7C26.0996 86.3 23.1996 89.2 19.5996 89.2C15.9996 89.2 13.0996 86.3 13.0996 82.7V54.1C13.0996 50.5 15.9996 47.6 19.5996 47.6C23.1996 47.6 26.0996 50.5 26.0996 54.1V82.7Z" fill="white" fill-opacity="0.4"/>
<path d="M19.5999 91C15.0999 91 11.3999 87.3 11.3999 82.8V54.2C11.3999 49.7 15.0999 46 19.5999 46C24.0999 46 27.7999 49.7 27.7999 54.2V82.8C27.7999 87.3 24.0999 91 19.5999 91ZM19.5999 49.4C16.9999 49.4 14.8999 51.5 14.8999 54.1V82.7C14.8999 85.3 16.9999 87.4 19.5999 87.4C22.1999 87.4 24.2999 85.3 24.2999 82.7V54.1C24.2999 51.6 22.1999 49.4 19.5999 49.4Z" fill="white"/>
<path d="M108 87.8C102 87.8 97.1001 82.9 97.1001 76.9V59.9C97.1001 53.9 102 49 108 49C114 49 118.9 53.9 118.9 59.9V76.9C118.9 82.9 114 87.8 108 87.8ZM108 52.6C103.9 52.6 100.6 55.9 100.6 60V77C100.6 81.1 103.9 84.4 108 84.4C112.1 84.4 115.4 81.1 115.4 77V60C115.4 55.9 112.1 52.6 108 52.6Z" fill="white"/>
<path d="M94.8003 54.2C94.8003 50.6 97.7003 47.7 101.3 47.7C104.9 47.7 107.8 50.6 107.8 54.2V82.8C107.8 86.4 104.9 89.3 101.3 89.3C97.7003 89.3 94.8003 86.4 94.8003 82.8V54.2Z" fill="white" fill-opacity="0.4"/>
<path d="M101.3 91C96.8001 91 93.1001 87.3 93.1001 82.8V54.2C93.1001 49.7 96.8001 46 101.3 46C105.8 46 109.5 49.7 109.5 54.2V82.8C109.5 87.3 105.8 91 101.3 91ZM101.3 49.4C98.7001 49.4 96.6001 51.5 96.6001 54.1V82.7C96.6001 85.3 98.7001 87.4 101.3 87.4C103.9 87.4 106 85.3 106 82.7V54.1C106 51.6 103.9 49.4 101.3 49.4Z" fill="white"/>
<path d="M88.9001 66C88.9001 50.3 76.2001 37.6 60.5001 37.6C44.8001 37.6 32.1001 50.3 32.1001 66C32.1001 81.7 44.8001 94.4 60.5001 94.4C76.1001 94.5 88.9001 81.7 88.9001 66Z" fill="white" fill-opacity="0.4"/>
<path d="M60.4002 75C59.0002 75 57.9002 73.9 57.9002 72.5V68.3C57.9002 66.9 59.0002 65.8 60.4002 65.8C64.1002 65.8 67.1002 62.8 67.1002 59.1C67.1002 55.4 64.1002 52.4 60.4002 52.4C56.7002 52.4 53.7002 55.4 53.7002 59.1C53.7002 60.5 52.6002 61.6 51.2002 61.6C49.8002 61.6 48.7002 60.5 48.7002 59.1C48.7002 52.7 53.9002 47.4 60.4002 47.4C66.8002 47.4 72.1002 52.6 72.1002 59.1C72.1002 64.7 68.2002 69.4 62.9002 70.5V72.5C62.9002 73.9 61.8002 75 60.4002 75Z" fill="white" fill-opacity="0.4"/>
<path d="M60.4002 47.4C66.8002 47.4 72.1002 52.6 72.1002 59.1C72.1002 64.7 68.2002 69.4 62.9002 70.5V72.5C62.9002 73.9 61.8002 75 60.4002 75C59.0002 75 57.9002 73.9 57.9002 72.5V68.3C57.9002 66.9 59.0002 65.8 60.4002 65.8C64.1002 65.8 67.1002 62.8 67.1002 59.1C67.1002 55.4 64.1002 52.4 60.4002 52.4C56.7002 52.4 53.7002 55.4 53.7002 59.1C53.7002 60.5 52.6002 61.6 51.2002 61.6C49.8002 61.6 48.7002 60.5 48.7002 59.1C48.8002 52.7 54.0002 47.4 60.4002 47.4ZM60.4002 43.9C52.0002 43.9 45.2002 50.7 45.2002 59.1C45.2002 62.4 47.9002 65.1 51.2002 65.1C54.5002 65.1 57.2002 62.4 57.2002 59.1C57.2002 57.3 58.6002 55.9 60.4002 55.9C62.2002 55.9 63.6002 57.3 63.6002 59.1C63.6002 60.9 62.2002 62.3 60.4002 62.3C57.1002 62.3 54.4002 65 54.4002 68.3V72.5C54.4002 75.8 57.1002 78.5 60.4002 78.5C63.5002 78.5 66.1002 76.1 66.4002 73C71.9002 70.6 75.6002 65.2 75.6002 59C75.6002 50.7 68.8002 43.9 60.4002 43.9Z" fill="white"/>
<path d="M63.6003 81.6C63.6003 79.9 62.2004 78.5 60.5004 78.5C58.8004 78.5 57.4004 79.9 57.4004 81.6C57.4004 83.3 58.8004 84.7 60.5004 84.7C62.2004 84.7 63.6003 83.3 63.6003 81.6Z" fill="white" fill-opacity="0.4"/>
<path d="M60.4003 78.4C62.1003 78.4 63.5003 79.8 63.5003 81.5C63.5003 83.2 62.1003 84.6 60.4003 84.6C58.7003 84.6 57.3003 83.2 57.3003 81.5C57.3003 79.8 58.7003 78.4 60.4003 78.4ZM60.4003 74.9C56.8003 74.9 53.8003 77.9 53.8003 81.5C53.8003 85.1 56.8003 88.1 60.4003 88.1C64.0003 88.1 67.0003 85.1 67.0003 81.5C67.1003 77.9 64.1003 74.9 60.4003 74.9Z" fill="white"/>
</svg>
