<svg width="120" height="120" viewBox="0 0 120 120" fill="none" xmlns="http://www.w3.org/2000/svg">
<path d="M78.7002 52.1H42.2002V60.3H78.7002V52.1Z" fill="white" fill-opacity="0.4"/>
<path d="M117.2 109.1H3.7998V117.1H117.2V109.1Z" fill="white" fill-opacity="0.4"/>
<path d="M117.1 118.9H3.8C2.8 118.9 2 118.1 2 117.1V92.7C2 91.7 2.8 90.9 3.8 90.9H117.2C118.2 90.9 119 91.7 119 92.7V117.2C118.9 118.1 118.1 118.9 117.1 118.9ZM5.5 115.4H115.4V94.4H5.5V115.4Z" fill="white"/>
<path d="M75.3 117.7C74.3 117.7 73.5 116.9 73.5 115.9V93.9C73.5 92.9 74.3 92.1 75.3 92.1C76.3 92.1 77.1 92.9 77.1 93.9V116C77.1 116.9 76.3 117.7 75.3 117.7Z" fill="white"/>
<path d="M42.8001 110.4H12.9001C11.9001 110.4 11.1001 109.6 11.1001 108.6V101.1C11.1001 100.1 11.9001 99.3 12.9001 99.3H42.8001C43.8001 99.3 44.6001 100.1 44.6001 101.1V108.6C44.6001 109.6 43.8001 110.4 42.8001 110.4ZM14.7001 106.9H41.1001V102.9H14.7001V106.9Z" fill="white"/>
<path d="M100 94.4H19C9.6 94.4 2 86.8 2 77.4C2 68 9.6 60.4 19 60.4H100C102.9 60.4 105.2 62.8 105.2 65.6C105.2 68.5 102.8 70.8 100 70.8H19C15.4 70.8 12.5 73.7 12.5 77.3C12.5 80.9 15.4 83.8 19 83.8H100C102.9 83.8 105.2 86.2 105.2 89C105.3 92 102.9 94.4 100 94.4ZM19 63.9C11.6 63.9 5.5 70 5.5 77.4C5.5 84.8 11.6 90.9 19 90.9H100C101 90.9 101.8 90.1 101.8 89.1C101.8 88.1 101 87.3 100 87.3H19C13.5 87.3 9 82.8 9 77.3C9 71.8 13.5 67.3 19 67.3H100C101 67.3 101.8 66.5 101.8 65.6C101.8 64.6 101 63.8 100 63.8H19V63.9Z" fill="white"/>
<path d="M97.8 86.6C96.8 86.6 96 85.8 96 84.8V69.8C96 68.8 96.8 68 97.8 68C98.8 68 99.6 68.8 99.6 69.8V84.8C99.5 85.8 98.7 86.6 97.8 86.6Z" fill="white"/>
<path d="M70.1001 76.3V104.3L78.8001 99.7L87.5001 104.3V76.3H70.1001Z" fill="white" fill-opacity="0.4"/>
<path d="M87.4999 106C87.1999 106 86.8999 105.9 86.6999 105.8L78.7999 101.7L70.8999 105.8C70.3999 106.1 69.6999 106.1 69.1999 105.7C68.6999 105.4 68.3999 104.8 68.3999 104.2V76.2C68.3999 75.2 69.1999 74.4 70.1999 74.4H87.5999C88.5999 74.4 89.3999 75.2 89.3999 76.2V104.2C89.3999 104.8 89.0999 105.4 88.5999 105.7C88.0999 105.9 87.7999 106 87.4999 106ZM78.7999 98C79.0999 98 79.3999 98.1 79.5999 98.2L85.6999 101.4V78H71.7999V101.4L77.8999 98.2C78.1999 98 78.4999 98 78.7999 98Z" fill="white"/>
<path d="M83.3999 24H37.3999C33.7999 24 30.8999 21.1 30.8999 17.5C30.8999 13.9 33.7999 11 37.3999 11H83.3999C86.9999 11 89.8999 13.9 89.8999 17.5C89.8999 21.1 86.9999 24 83.3999 24ZM37.3999 14.5C35.6999 14.5 34.3999 15.8 34.3999 17.5C34.3999 19.2 35.6999 20.5 37.3999 20.5H83.3999C85.0999 20.5 86.3999 19.2 86.3999 17.5C86.3999 15.8 85.0999 14.5 83.3999 14.5H37.3999Z" fill="white"/>
<path d="M82.1998 12C81.1998 12 80.3998 11.2 80.3998 10.2C80.3998 7.6 78.2998 5.4 75.5998 5.4H45.1998C42.5998 5.4 40.3998 7.5 40.3998 10.2C40.3998 11.2 39.5998 12 38.5998 12C37.5998 12 36.7998 11.2 36.7998 10.2C36.7998 5.7 40.4998 2 44.9998 2H75.4998C79.9998 2 83.6998 5.7 83.6998 10.2C83.8998 11.2 83.1998 12 82.1998 12Z" fill="white"/>
<path d="M60.3999 46.8C64.542 46.8 67.8999 43.4422 67.8999 39.3C67.8999 35.1579 64.542 31.8 60.3999 31.8C56.2578 31.8 52.8999 35.1579 52.8999 39.3C52.8999 43.4422 56.2578 46.8 60.3999 46.8Z" fill="white" fill-opacity="0.4"/>
<path d="M42.3001 63.5C41.4001 63.5 40.6001 62.8 40.6001 61.9L36.9001 22.4C36.8001 21.4 37.5001 20.6 38.5001 20.5C39.5001 20.4 40.3001 21.1 40.4001 22.1L44.0001 61.6C44.1001 62.6 43.4001 63.4 42.4001 63.5H42.3001Z" fill="white"/>
<path d="M78.6 63.5C78.5 63.5 78.5 63.5 78.4 63.5C77.4 63.4 76.7 62.6 76.8 61.6L80.5 22.1C80.6 21.1 81.4 20.4 82.4 20.5C83.4 20.6 84.1 21.4 84 22.4L80.3 61.9C80.3 62.8 79.5 63.5 78.6 63.5Z" fill="white"/>
</svg>
