<svg width="120" height="120" viewBox="0 0 120 120" fill="none" xmlns="http://www.w3.org/2000/svg">
<path d="M21.5001 82.2598C21.2001 82.2598 20.9001 82.1598 20.6001 82.0598C9.70009 75.4598 3.00009 49.4598 6.10009 39.9598C7.10009 37.0598 8.70009 35.2598 11.1001 34.3598C15.9001 32.6598 21.5001 36.1598 21.7001 36.3598C22.5001 36.8598 22.8001 37.9598 22.2001 38.7598C21.7001 39.5598 20.6001 39.8598 19.8001 39.2598C18.6001 38.4598 14.8001 36.6598 12.2001 37.6598C10.9001 38.1598 10.0001 39.2598 9.40009 41.0598C6.80009 49.1598 13.0001 73.4598 22.4001 79.0598C23.2001 79.5598 23.5001 80.6598 23.0001 81.4598C22.6001 81.9598 22.1001 82.2598 21.5001 82.2598Z" fill="white"/>
<path d="M97.4002 82.2598C96.8002 82.2598 96.2002 81.9598 95.9002 81.3598C95.4002 80.5598 95.7002 79.4598 96.5002 78.9598C105.9 73.3598 112.1 49.1598 109.4 41.0598C108.8 39.2598 107.9 38.1598 106.6 37.6598C104 36.7598 100.2 38.5598 99.0002 39.2598C98.2002 39.7598 97.1002 39.5598 96.6002 38.7598C96.1002 37.9598 96.3002 36.8598 97.1002 36.3598C97.3002 36.1598 103 32.6598 107.7 34.3598C110 35.1598 111.7 37.0598 112.7 39.9598C115.8 49.3598 109.2 75.4598 98.3002 82.0598C98.0002 82.2598 97.7002 82.2598 97.4002 82.2598Z" fill="white"/>
<path d="M29.6998 81.4598C29.0998 81.4598 28.4998 81.1598 28.1998 80.5598C27.4998 79.4598 12.0998 52.6598 22.3998 27.5598C21.7998 24.3598 19.1998 10.0598 22.1998 3.95981C22.3998 3.55981 22.7998 3.15981 23.2998 3.05981C23.7998 2.95981 24.2998 2.95981 24.6998 3.25981C24.7998 3.35981 37.5998 11.1598 59.7998 11.1598C60.7998 11.1598 61.5998 11.9598 61.5998 12.9598C61.5998 13.9598 60.7998 14.7598 59.7998 14.7598C41.2998 14.7598 29.2998 9.65981 24.7998 7.35981C23.5998 12.8598 25.1998 23.5598 25.9998 27.5598C26.0998 27.8598 25.9998 28.2598 25.8998 28.5598C15.8998 52.0598 31.0998 78.5598 31.2998 78.8598C31.7998 79.6598 31.4998 80.7598 30.6998 81.2598C30.2998 81.3598 29.9998 81.4598 29.6998 81.4598Z" fill="white"/>
<path d="M89.1999 81.4598C88.8999 81.4598 88.5999 81.3598 88.2999 81.2598C87.4999 80.7598 87.1999 79.6598 87.6999 78.8598C87.8999 78.5598 103.1 52.0598 93.0999 28.5598C92.9999 28.2598 92.8999 27.8598 92.9999 27.5598C93.7999 23.4598 95.4999 12.8598 94.1999 7.35981C89.6999 9.65981 77.5999 14.7598 59.1999 14.7598C58.1999 14.7598 57.3999 13.9598 57.3999 12.9598C57.3999 11.9598 58.1999 11.1598 59.1999 11.1598C81.3999 11.1598 94.0999 3.25981 94.2999 3.25981C94.6999 2.95981 95.1999 2.95981 95.6999 3.05981C96.1999 3.15981 96.5999 3.55981 96.7999 3.95981C99.7999 10.0598 97.1999 24.3598 96.4999 27.6598C106.8 52.6598 91.3999 79.4598 90.6999 80.6598C90.2999 81.1598 89.7999 81.4598 89.1999 81.4598Z" fill="white"/>
<path d="M53.3997 34.1598C53.3997 31.3598 51.0997 29.0598 48.2997 29.0598C45.4997 29.0598 43.1997 31.3598 43.1997 34.1598C43.1997 36.9598 45.4997 39.2598 48.2997 39.2598C51.0997 39.1598 53.3997 36.9598 53.3997 34.1598Z" fill="white"/>
<path d="M48.2996 46.7598C41.2996 46.7598 35.5996 41.0598 35.5996 34.0598C35.5996 27.0598 41.2996 21.3598 48.2996 21.3598C55.2996 21.3598 60.9996 27.0598 60.9996 34.0598C60.9996 41.0598 55.2996 46.7598 48.2996 46.7598ZM48.2996 24.9598C43.2996 24.9598 39.0996 29.0598 39.0996 34.1598C39.0996 39.2598 43.1996 43.3598 48.2996 43.3598C53.3996 43.3598 57.4996 39.2598 57.4996 34.1598C57.4996 29.0598 53.3996 24.9598 48.2996 24.9598Z" fill="white"/>
<path d="M75.6995 34.1598C75.6995 31.3598 73.3995 29.0598 70.5995 29.0598C67.7995 29.0598 65.4995 31.3598 65.4995 34.1598C65.4995 36.9598 67.7995 39.2598 70.5995 39.2598C73.3995 39.1598 75.6995 36.9598 75.6995 34.1598Z" fill="white"/>
<path d="M70.5994 46.7598C63.5994 46.7598 57.8994 41.0598 57.8994 34.0598C57.8994 27.0598 63.5994 21.3598 70.5994 21.3598C77.5994 21.3598 83.2994 27.0598 83.2994 34.0598C83.1994 41.0598 77.5994 46.7598 70.5994 46.7598ZM70.5994 24.9598C65.5994 24.9598 61.3994 29.0598 61.3994 34.1598C61.3994 39.2598 65.4994 43.3598 70.5994 43.3598C75.5994 43.3598 79.7994 39.2598 79.7994 34.1598C79.7994 29.0598 75.5994 24.9598 70.5994 24.9598Z" fill="white"/>
<path d="M59.3996 55.2598C58.7996 55.2598 58.2996 54.9598 57.9996 54.5598L52.2995 46.6598C51.6995 45.8598 51.8996 44.7598 52.6996 44.2598C53.4996 43.6598 54.5995 43.8598 55.0995 44.6598L59.3996 50.5598L63.6996 44.6598C64.2996 43.8598 65.3995 43.6598 66.0995 44.2598C66.8995 44.8598 67.0996 45.9598 66.4996 46.6598L60.7996 54.5598C60.4995 55.0598 59.9996 55.2598 59.3996 55.2598Z" fill="white"/>
<path d="M112.2 117.36H20.1C9.6 117.36 1 108.76 1 98.2598C1 87.7598 9.6 79.1598 20.1 79.1598H112.2C115.4 79.1598 117.9 81.7598 117.9 84.8598C117.9 88.0598 115.3 90.5598 112.2 90.5598H20.1C15.9 90.5598 12.5 93.9598 12.5 98.1598C12.5 102.36 15.9 105.76 20.1 105.76H112.2C115.4 105.76 117.9 108.36 117.9 111.46C117.9 114.76 115.3 117.36 112.2 117.36ZM20.1 82.6598C11.5 82.6598 4.5 89.6598 4.5 98.2598C4.5 106.86 11.5 113.86 20.1 113.86H112.2C113.4 113.86 114.4 112.86 114.4 111.66C114.4 110.46 113.4 109.46 112.2 109.46H20.1C14 109.46 9 104.46 9 98.3598C9 92.2598 14 87.2598 20.1 87.2598H112.2C113.4 87.2598 114.4 86.2598 114.4 85.0598C114.4 83.8598 113.4 82.8598 112.2 82.8598H20.1V82.6598Z" fill="white"/>
<path d="M109.6 108.56C108.6 108.56 107.8 107.76 107.8 106.76V89.7598C107.8 88.7598 108.6 87.9598 109.6 87.9598C110.6 87.9598 111.4 88.7598 111.4 89.7598V106.86C111.4 107.76 110.6 108.56 109.6 108.56Z" fill="white"/>
<path d="M78.1001 78.2598V100.56L88.0001 95.4598L97.9001 100.56V78.2598H78.1001Z" fill="white"/>
<path d="M97.8999 102.36C97.5999 102.36 97.2999 102.26 97.0999 102.16L87.9999 97.3598L78.8999 102.06C78.3999 102.36 77.6999 102.36 77.1999 101.96C76.6999 101.66 76.3999 101.06 76.3999 100.46V78.2598C76.3999 77.2598 77.1999 76.4598 78.1999 76.4598H97.9999C98.9999 76.4598 99.7999 77.2598 99.7999 78.2598V100.66C99.7999 101.26 99.4999 101.86 98.9999 102.16C98.4999 102.26 98.1999 102.36 97.8999 102.36ZM87.9999 93.6598C88.2999 93.6598 88.5999 93.7598 88.7999 93.8598L96.0999 97.6598V79.9598H79.8999V97.6598L87.1999 93.8598C87.3999 93.7598 87.6999 93.6598 87.9999 93.6598Z" fill="white"/>
<path d="M42.3999 68.8598C42.3999 72.5598 45.3999 75.5598 49.0999 75.5598C52.7999 75.5598 55.7999 72.5598 55.7999 68.8598H42.3999Z" fill="white" fill-opacity="0.4"/>
<path d="M63.1001 68.8598C63.1001 72.5598 66.1001 75.5598 69.8001 75.5598C73.5001 75.5598 76.5001 72.5598 76.5001 68.8598H63.1001Z" fill="white" fill-opacity="0.4"/>
<path d="M32.1001 59.2598C32.1001 62.9598 35.1001 65.9598 38.8001 65.9598C42.5001 65.9598 45.5001 62.9598 45.5001 59.2598H32.1001Z" fill="white" fill-opacity="0.4"/>
<path d="M52.8003 59.2598C52.8003 62.9598 55.8003 65.9598 59.5003 65.9598C63.2003 65.9598 66.2003 62.9598 66.2003 59.2598H52.8003Z" fill="white" fill-opacity="0.4"/>
<path d="M73.3999 59.2598C73.3999 62.9598 76.3999 65.9598 80.0999 65.9598C83.7999 65.9598 86.7999 62.9598 86.7999 59.2598H73.3999Z" fill="white" fill-opacity="0.4"/>
</svg>
