<svg width="120" height="120" viewBox="0 0 120 120" fill="none" xmlns="http://www.w3.org/2000/svg">
<path d="M99.8998 29C99.6998 23.7 95.3998 19.4 90.0998 19.4C88.0998 19.4 86.2998 20 84.7998 21C80.7998 15.4 74.2998 11.7 66.8998 11.7C56.0998 11.7 47.0998 19.6 45.2998 29.9C40.5998 31.9 37.2998 36.6 37.2998 42.1C37.2998 43.8 37.5998 45.4 38.1998 46.8C38.6998 47 39.0998 47.3 39.5998 47.6C44.9998 39.9 53.9998 34.9 64.0998 34.9C77.3998 34.9 88.5998 43.5 92.5998 55.4H98.1998C105.5 55.4 111.5 49.4 111.5 42.1C111.4 35.4 106.4 29.9 99.8998 29Z" fill="white" fill-opacity="0.4"/>
<path d="M98.0999 57.2H92.4999C91.6999 57.2 91.0999 56.7 90.7999 56C86.8999 44.4 76.1999 36.7 63.9999 36.7C54.7999 36.7 46.1999 41.2 40.8999 48.7C40.3999 49.5 39.2999 49.7 38.4999 49.2C38.0999 49 37.7999 48.8 37.2999 48.5C36.8999 48.3 36.5999 48 36.3999 47.6C35.6999 45.9 35.3999 44.1 35.3999 42.2C35.3999 36.5 38.5999 31.4 43.5999 28.8C45.8999 17.9 55.3999 10 66.6999 10C73.7999 10 80.5999 13.3 85.0999 18.8C86.5999 18.1 88.2999 17.7 89.8999 17.7C95.6999 17.7 100.5 21.9 101.4 27.5C108.2 29 113.1 35.1 113.1 42.2C113.2 50.5 106.4 57.2 98.0999 57.2ZM93.7999 53.7H98.1999C104.6 53.7 109.7 48.5 109.7 42.2C109.7 36.4 105.4 31.5 99.6999 30.8C98.7999 30.7 98.1999 30 98.1999 29.1C98.0999 24.7 94.4999 21.2 90.0999 21.2C88.5999 21.2 86.9999 21.6 85.6999 22.5C84.8999 23 83.8999 22.8 83.2999 22C79.4999 16.7 73.3999 13.5 66.8999 13.5C56.9999 13.5 48.6999 20.6 47.0999 30.3C46.9999 30.9 46.5999 31.4 46.0999 31.6C41.8999 33.4 39.0999 37.6 39.0999 42.2C39.0999 43.1 39.1999 44.1 39.4999 45C45.4999 37.6 54.5999 33.2 64.1999 33.2C77.2999 33.2 89.0999 41.4 93.7999 53.7Z" fill="white" fill-opacity="0.4"/>
<path d="M9.39999 92.6C8.99999 92.6 8.59999 92.5 8.29999 92.2C3.69999 88.4 1 82.8 1 76.8C1 67.3 7.8 59.1 17 57.2C17.9 49.6 24.3 43.8 32.2 43.8C34.6 43.8 36.9 44.4 39 45.4C45 37.7 54.2 33.2 64 33.2C79.3 33.2 92.2 43.9 95.2 58.8C102 62.1 106.4 69.1 106.4 76.8C106.4 79.4 105.9 82 104.9 84.4C104.5 85.3 103.5 85.7 102.6 85.3C101.7 84.9 101.3 83.9 101.7 83C102.5 81 103 78.9 103 76.7C103 70.1 99.1 64.2 93 61.6C92.5 61.4 92.1 60.9 92 60.3C89.7 46.6 78 36.7 64.1 36.7C54.9 36.7 46.3 41.2 41 48.7C40.5 49.5 39.4 49.7 38.6 49.2C36.7 48 34.5 47.3 32.2 47.3C25.8 47.3 20.6 52.3 20.4 58.7C20.4 59.6 19.7 60.3 18.9 60.4C10.7 61.5 4.59999 68.5 4.59999 76.7C4.59999 81.6 6.79999 86.3 10.6 89.4C11.3 90 11.4 91.1 10.8 91.9C10.4 92.3 9.89999 92.6 9.39999 92.6Z" fill="white"/>
<path d="M82.9998 61.7C82.1998 61.7 81.3998 61.1 81.2998 60.2C79.8998 51.7 72.5998 45.6 64.0998 45.6C63.0998 45.6 62.2998 44.8 62.2998 43.8C62.2998 42.8 63.0998 42 64.0998 42C74.3998 42 83.0998 49.4 84.7998 59.5C84.9998 60.5 84.2998 61.4 83.3998 61.5C83.1998 61.7 83.0998 61.7 82.9998 61.7Z" fill="white" fill-opacity="0.4"/>
<path d="M70.5998 110H53.2998C52.2998 110 51.4998 109.2 51.4998 108.2V106.4H7.59981C6.59981 106.4 5.7998 105.6 5.7998 104.6C5.7998 103.6 6.59981 102.8 7.59981 102.8H53.1998C54.1998 102.8 54.9998 103.6 54.9998 104.6V106.4H68.7998V104.6C68.7998 103.6 69.5998 102.8 70.5998 102.8H116.2C117.2 102.8 118 103.6 118 104.6C118 105.6 117.2 106.4 116.2 106.4H72.2998V108.2C72.2998 109.2 71.4998 110 70.5998 110Z" fill="white"/>
<path d="M110.9 105.5C109.9 105.5 109.1 104.7 109.1 103.7V97C102 93 93.4998 90.8 84.6998 90.8C77.1998 90.8 70.0998 94.1 63.7998 97L63.4998 97.1C62.9998 97.3 62.4998 97.3 61.9998 97.1L61.6998 97C55.3998 94.1 48.2998 90.8 40.7998 90.8C31.1998 90.8 21.8998 93.4 14.3998 98.1V103.6C14.3998 104.6 13.5998 105.4 12.5998 105.4C11.5998 105.4 10.7998 104.6 10.7998 103.6V97.1C10.7998 96.5 11.0998 96 11.5998 95.6C19.6998 90.2 30.0998 87.2 40.6998 87.2C48.7998 87.2 56.0998 90.5 62.5998 93.5C69.0998 90.5 76.3998 87.2 84.4998 87.2C94.2998 87.2 103.7 89.7 111.5 94.3C112 94.6 112.4 95.2 112.4 95.8V103.5C112.7 104.7 111.9 105.5 110.9 105.5Z" fill="white"/>
</svg>
