<svg width="120" height="120" viewBox="0 0 120 120" fill="none" xmlns="http://www.w3.org/2000/svg">
<path d="M7.79999 109.9C6.79999 109.9 6 109.1 6 108.1V10.9C6 5.49998 10.4 1.09998 15.8 1.09998H105.5C106.5 1.09998 107.3 1.89998 107.3 2.89998V41C107.3 42 106.5 42.8 105.5 42.8C104.5 42.8 103.7 42 103.7 41V4.59998H15.9C12.4 4.59998 9.60001 7.39998 9.60001 10.9V100.5C11.3 99.1 13.5 98.2 15.9 98.2H105.6C106.6 98.2 107.4 99 107.4 100C107.4 101 106.6 101.8 105.6 101.8H15.9C12.4 101.8 9.60001 104.6 9.60001 108.1C9.60001 109.1 8.79999 109.9 7.79999 109.9Z" fill="white"/>
<path d="M105.6 118H15.9001C10.5001 118 6.1001 113.6 6.1001 108.2C6.1001 102.7 10.5001 98.3 15.9001 98.3H105.6C106.6 98.3 107.3 99.1 107.4 100C107.4 101 106.7 101.7 105.7 101.8C102.3 101.9 99.6001 104.7 99.6001 108.1C99.6001 111.6 102.3 114.4 105.7 114.5C106.6 114.5 107.4 115.3 107.4 116.2C107.3 117.2 106.5 118 105.6 118ZM15.9001 101.8C12.4001 101.8 9.6001 104.6 9.6001 108.1C9.6001 111.7 12.4001 114.5 15.9001 114.5H98.3001C96.9001 112.8 96.0001 110.6 96.0001 108.2C96.0001 105.8 96.9001 103.5 98.3001 101.8H15.9001Z" fill="white"/>
<path d="M87.2 109.7H21.1001C20.1001 109.7 19.3 108.9 19.3 107.9C19.3 106.9 20.1001 106.1 21.1001 106.1H87.2C88.2 106.1 89 106.9 89 107.9C89 108.9 88.1 109.7 87.2 109.7Z" fill="white"/>
<path d="M15.4001 93.1C14.4001 93.1 13.6001 92.3 13.6001 91.3V2.8C13.6001 1.8 14.4001 1 15.4001 1C16.4001 1 17.2001 1.8 17.2001 2.8V91.3C17.1001 92.4 16.4001 93.1 15.4001 93.1Z" fill="white"/>
<path d="M69.5001 51.1C69.5001 45.5 65.0001 40.9 59.3001 40.9C53.7001 40.9 49.1001 45.4 49.1001 51.1C49.1001 56.7 53.6001 61.3 59.3001 61.3C65.0001 61.2 69.5001 56.7 69.5001 51.1Z" fill="white" fill-opacity="0.4"/>
<path d="M59.4001 84.9C40.7001 84.9 25.6001 69.7 25.6001 51.1C25.6001 32.5 40.8001 17.3 59.4001 17.3C78.1001 17.3 93.2001 32.5 93.2001 51.1C93.2001 69.7 78.0001 84.9 59.4001 84.9ZM59.4001 28.8C47.1001 28.8 37.2001 38.8 37.2001 51C37.2001 63.3 47.2001 73.2 59.4001 73.2C71.7001 73.2 81.6001 63.2 81.6001 51C81.6001 38.8 71.6001 28.8 59.4001 28.8Z" fill="white" fill-opacity="0.4"/>
<path d="M96.6001 52.8H59.4001C58.4001 52.8 57.6001 52 57.6001 51C57.6001 50 58.4001 49.2 59.4001 49.2H96.6001C97.6001 49.2 98.4001 50 98.4001 51C98.4001 52 97.6001 52.8 96.6001 52.8Z" fill="white"/>
<path d="M113.5 61.6H101.5C100.9 61.6 100.3 61.3 100 60.7L95.1 51.9C94.8 51.4 94.8 50.7 95.1 50.2L100 41.4C100.3 40.8 100.9 40.5 101.5 40.5H113.5C114.1 40.5 114.7 40.8 115 41.4C115.3 41.9 115.3 42.6 115 43.1L110.5 51.1L115 59.1C115.3 59.6 115.3 60.3 115 60.8C114.7 61.3 114.2 61.6 113.5 61.6ZM102.6 58.1H110.6L107.1 51.9C106.8 51.4 106.8 50.7 107.1 50.2L110.6 44H102.6L98.6 51.1L102.6 58.1Z" fill="white"/>
<path d="M105.6 101.8C104.6 101.8 103.8 101 103.8 100V65.2C103.8 64.2 104.6 63.4 105.6 63.4C106.6 63.4 107.4 64.2 107.4 65.2V100C107.3 101 106.5 101.8 105.6 101.8Z" fill="white"/>
</svg>
