<svg width="120" height="120" viewBox="0 0 120 120" fill="none" xmlns="http://www.w3.org/2000/svg">
<path d="M44.2998 24.5V28.3H76.5998V5.8H74.3998C67.8998 23 52.4998 24.8 44.2998 24.5Z" fill="white" fill-opacity="0.4"/>
<path d="M76.6 30H44.3C43.3 30 42.5 29.2 42.5 28.2V5.8C42.5 4.8 43.3 4 44.3 4H76.6C77.6 4 78.4 4.8 78.4 5.8V28.3C78.4 29.2 77.6 30 76.6 30ZM46 26.5H74.8V7.5H46V26.5Z" fill="white"/>
<path d="M44.2998 68.2V71.9H76.5998V49.5H74.3998C67.8998 66.6 52.4998 68.5 44.2998 68.2Z" fill="white" fill-opacity="0.4"/>
<path d="M76.6 73.7H44.3C43.3 73.7 42.5 72.9 42.5 71.9V49.5C42.5 48.5 43.3 47.7 44.3 47.7H76.6C77.6 47.7 78.4 48.5 78.4 49.5V72C78.4 72.9 77.6 73.7 76.6 73.7ZM46 70.2H74.8V51.2H46V70.2Z" fill="white"/>
<path d="M3.7998 68.2V71.9H36.0998V49.5H33.8998C27.2998 66.6 11.9998 68.5 3.7998 68.2Z" fill="white" fill-opacity="0.4"/>
<path d="M36.1 73.7H3.79999C2.79999 73.7 2 72.9 2 71.9V49.5C2 48.5 2.79999 47.7 3.79999 47.7H36.1C37.1 47.7 37.9 48.5 37.9 49.5V72C37.8 72.9 37 73.7 36.1 73.7ZM5.5 70.2H34.3V51.2H5.5V70.2Z" fill="white"/>
<path d="M84.7998 68.2V71.9H117.1V49.5H115C108.4 66.6 93.0998 68.5 84.7998 68.2Z" fill="white" fill-opacity="0.4"/>
<path d="M117.1 73.7H84.8C83.8 73.7 83 72.9 83 71.9V49.5C83 48.5 83.8 47.7 84.8 47.7H117.1C118.1 47.7 118.9 48.5 118.9 49.5V72C118.9 72.9 118.1 73.7 117.1 73.7ZM86.6 70.2H115.4V51.2H86.6V70.2Z" fill="white"/>
<path d="M44.2998 111.9V115.6H76.5998V93.1H74.3998C67.8998 110.3 52.4998 112.2 44.2998 111.9Z" fill="white" fill-opacity="0.4"/>
<path d="M76.6 117.3H44.3C43.3 117.3 42.5 116.5 42.5 115.5V93.1C42.5 92.1 43.3 91.3 44.3 91.3H76.6C77.6 91.3 78.4 92.1 78.4 93.1V115.6C78.4 116.6 77.6 117.3 76.6 117.3ZM46 113.8H74.8V94.8H46V113.8Z" fill="white"/>
<path d="M60.4001 50.4C59.4001 50.4 58.6001 49.6 58.6001 48.6V30C58.6001 29 59.4001 28.2 60.4001 28.2C61.4001 28.2 62.2001 29 62.2001 30V48.7C62.2001 49.7 61.4001 50.4 60.4001 50.4Z" fill="white"/>
<path d="M60.4001 93.1C59.4001 93.1 58.6001 92.3 58.6001 91.3V72.7C58.6001 71.7 59.4001 70.9 60.4001 70.9C61.4001 70.9 62.2001 71.7 62.2001 72.7V91.4C62.2001 92.3 61.4001 93.1 60.4001 93.1Z" fill="white"/>
<path d="M100.6 49.6C99.5999 49.6 98.7999 48.8 98.7999 47.8V40.6H21.9999V47.8C21.9999 48.8 21.1999 49.6 20.1999 49.6C19.1999 49.6 18.3999 48.8 18.3999 47.8V38.8C18.3999 37.8 19.1999 37 20.1999 37H100.5C101.5 37 102.3 37.8 102.3 38.8V47.8C102.4 48.8 101.6 49.6 100.6 49.6Z" fill="white"/>
</svg>
