<svg width="120" height="120" viewBox="0 0 120 120" fill="none" xmlns="http://www.w3.org/2000/svg">
<path d="M91.7745 83.45H29.0745V88.65H91.7745V83.45Z" fill="white" fill-opacity="0.4"/>
<path d="M81.0744 97.65H39.7744V115.75H81.0744V97.65Z" fill="white" fill-opacity="0.4"/>
<path d="M48.4744 15.15V18.65L60.3744 23.65L72.2744 18.65V15.15L60.3744 20.25L48.4744 15.15Z" fill="white" fill-opacity="0.4"/>
<path d="M60.3745 21.05C60.1745 21.05 59.8745 21.05 59.6745 20.95L40.1745 12.65C39.5745 12.35 39.0745 11.75 39.0745 11.05C39.0745 10.35 39.4745 9.75 40.1745 9.45L59.6745 1.15C60.0745 0.95 60.5745 0.95 61.0745 1.15L80.5745 9.45C81.1745 9.75 81.6745 10.35 81.6745 11.05C81.6745 11.75 81.2745 12.35 80.5745 12.65L61.0745 20.95C60.8745 20.95 60.6745 21.05 60.3745 21.05ZM45.3745 10.95L60.3745 17.35L75.3745 10.95L60.3745 4.55L45.3745 10.95Z" fill="white"/>
<path d="M60.3746 28.65C55.7746 28.65 51.4746 27.85 47.7746 26.25C47.1746 25.95 46.6746 25.35 46.6746 24.65V14.85C46.6746 13.85 47.4746 13.05 48.4746 13.05C49.4746 13.05 50.2746 13.85 50.2746 14.85V23.45C53.2746 24.55 56.7746 25.15 60.4746 25.15C64.1746 25.15 67.5746 24.55 70.6746 23.45V14.85C70.6746 13.85 71.4746 13.05 72.4746 13.05C73.4746 13.05 74.2746 13.85 74.2746 14.85V24.65C74.2746 25.35 73.8746 25.95 73.1746 26.25C69.3746 27.85 64.9746 28.65 60.3746 28.65Z" fill="white"/>
<path d="M77.9746 27.05C76.9746 27.05 76.1746 26.25 76.1746 25.25V13.35C76.1746 12.35 76.9746 11.55 77.9746 11.55C78.9746 11.55 79.7746 12.35 79.7746 13.35V25.25C79.7746 26.25 78.9746 27.05 77.9746 27.05Z" fill="white"/>
<path d="M60.3744 43.35C52.6744 43.35 46.4744 36.75 46.4744 28.65C46.4744 27.55 46.5744 26.35 46.8744 25.15C47.0744 24.25 48.0744 23.65 48.9744 23.85C49.8744 24.05 50.4744 25.05 50.2744 25.95C50.0744 26.85 49.9744 27.75 49.9744 28.65C49.9744 34.85 54.6744 39.85 60.3744 39.85C66.0744 39.85 70.7744 34.85 70.7744 28.65C70.7744 27.75 70.6744 26.85 70.4744 25.95C70.2744 25.05 70.8744 24.05 71.7744 23.85C72.6744 23.65 73.6744 24.25 73.8744 25.15C74.1744 26.25 74.2744 27.45 74.2744 28.65C74.2744 36.75 68.0744 43.35 60.3744 43.35Z" fill="white"/>
<path d="M92.4744 69.25C91.4744 69.25 90.6744 68.45 90.6744 67.45V59.95C90.6744 52.05 84.1744 45.55 76.2744 45.55H71.0744L61.8744 59.25C61.5744 59.75 60.9744 60.05 60.3744 60.05C59.7744 60.05 59.2744 59.75 58.8744 59.25L49.6744 45.55H44.4744C36.5744 45.55 30.0744 52.05 30.0744 59.95V67.45C30.0744 68.45 29.2744 69.25 28.2744 69.25C27.2744 69.25 26.4744 68.45 26.4744 67.45V59.95C26.4744 50.05 34.4744 42.05 44.3744 42.05H50.4744C51.0744 42.05 51.5744 42.35 51.9744 42.85L60.2744 55.15L68.5744 42.85C68.8744 42.35 69.4744 42.05 70.0744 42.05H76.1744C86.0744 42.05 94.0744 50.05 94.0744 59.95V67.45C94.1744 68.45 93.4744 69.25 92.4744 69.25Z" fill="white"/>
<path d="M91.7745 117.75C90.7745 117.75 89.9745 116.95 89.9745 115.95V85.25H30.8745V115.95C30.8745 116.95 30.0745 117.75 29.0745 117.75C28.0745 117.75 27.3745 116.95 27.3745 115.95V83.45C27.3745 82.45 28.1745 81.65 29.0745 81.65H91.7745C92.7745 81.65 93.5745 82.45 93.5745 83.45V115.95C93.4745 116.95 92.6745 117.75 91.7745 117.75Z" fill="white"/>
<path d="M98.5744 94.05H93.9744C92.9744 94.05 92.1744 93.25 92.1744 92.25C92.1744 91.25 92.9744 90.45 93.9744 90.45H97.6744L113.474 70.55H7.37443L23.1744 90.45H27.3744C28.3744 90.45 29.1744 91.25 29.1744 92.25C29.1744 93.25 28.3744 94.05 27.3744 94.05H22.2744C21.7744 94.05 21.2744 93.85 20.8744 93.35L2.37443 69.95C1.97443 69.45 1.87443 68.75 2.17443 68.15C2.47443 67.55 3.07443 67.15 3.77443 67.15H117.174C117.874 67.15 118.474 67.55 118.774 68.15C119.074 68.75 118.974 69.45 118.574 69.95L99.9744 93.45C99.5744 93.85 99.0744 94.05 98.5744 94.05Z" fill="white"/>
</svg>
