<svg width="120" height="120" viewBox="0 0 120 120" fill="none" xmlns="http://www.w3.org/2000/svg">
<path d="M37.6 12.225C37.2 12.225 36.7 12.025 36.4 11.725L29.7 5.025C29 4.325 29 3.225 29.7 2.525C30.4 1.825 31.5 1.825 32.2 2.525L38.9 9.225C39.6 9.925 39.6 11.025 38.9 11.725C38.5 12.025 38.1 12.225 37.6 12.225Z" fill="white"/>
<path d="M95.9999 70.625C95.5999 70.625 95.0999 70.425 94.7999 70.125L88.1 63.425C87.4 62.725 87.4 61.625 88.1 60.925C88.8 60.225 89.9 60.225 90.6 60.925L97.2999 67.625C97.9999 68.325 97.9999 69.425 97.2999 70.125C96.8999 70.425 96.4999 70.625 95.9999 70.625Z" fill="white"/>
<path d="M85.7002 14.125C73.5002 1.92498 53.6002 1.92498 41.4002 14.125C29.2002 26.325 29.2002 46.225 41.4002 58.425C53.6002 70.625 73.5002 70.625 85.7002 58.425C97.9002 46.225 97.9002 26.425 85.7002 14.125Z" fill="white" fill-opacity="0.4"/>
<path d="M63.5001 69.425C54.7001 69.425 46.3001 66.025 40.1001 59.725C33.8001 53.425 30.4001 45.125 30.4001 36.325C30.4001 27.525 33.8001 19.125 40.1001 12.925C46.4001 6.62498 54.7001 3.22498 63.5001 3.22498C72.3001 3.22498 80.7001 6.62498 86.9001 12.925C99.8001 25.825 99.8001 46.825 86.9001 59.725C80.7001 66.025 72.3001 69.425 63.5001 69.425ZM63.5001 6.72498C55.6001 6.72498 48.2001 9.82498 42.6001 15.425C37.0001 21.025 33.9001 28.425 33.9001 36.325C33.9001 44.225 37.0001 51.625 42.6001 57.225C48.2001 62.825 55.6001 65.925 63.5001 65.925C71.4001 65.925 78.8001 62.825 84.4001 57.225C95.9001 45.725 95.9001 26.925 84.4001 15.325C78.8001 9.82498 71.4001 6.72498 63.5001 6.72498Z" fill="white"/>
<path d="M32.7001 38.625C31.7001 38.625 30.9001 37.825 30.9001 36.825C30.9001 35.825 31.7001 35.025 32.7001 35.025C49.0001 35.025 62.3001 21.725 62.3001 5.425C62.3001 4.425 63.1001 3.625 64.1001 3.625C65.1001 3.625 65.8001 4.425 65.8001 5.425C65.8001 23.825 51.0001 38.625 32.7001 38.625Z" fill="white"/>
<path d="M62.9001 68.825C61.9001 68.825 61.1001 68.025 61.1001 67.025C61.2001 48.825 76.0001 34.025 94.3001 34.025C95.3001 34.025 96.1001 34.825 96.1001 35.825C96.1001 36.825 95.3001 37.625 94.3001 37.625C78.0001 37.625 64.7001 50.925 64.7001 67.225C64.7001 68.125 63.9001 68.825 62.9001 68.825Z" fill="white"/>
<path d="M85.1002 59.725C84.7002 59.725 84.2002 59.525 83.9002 59.225L40.6002 15.925C39.9002 15.225 39.9002 14.125 40.6002 13.425C41.3002 12.725 42.4002 12.725 43.1002 13.425L86.4002 56.725C87.1002 57.425 87.1002 58.525 86.4002 59.225C86.0002 59.525 85.6002 59.725 85.1002 59.725Z" fill="white"/>
<path d="M41.9 59.725C41.5 59.725 41 59.525 40.7 59.225C40 58.525 40 57.425 40.7 56.725L84 13.425C84.7 12.725 85.8 12.725 86.5 13.425C87.2 14.125 87.2 15.225 86.5 15.925L43.1 59.225C42.8 59.525 42.3 59.725 41.9 59.725Z" fill="white"/>
<path d="M77.8001 63.1249C69.7001 63.1249 59.3001 57.8249 50.7001 49.2249C44.5001 43.0249 40.0001 36.0249 38.0001 29.3249C35.8001 22.3249 36.6001 16.4249 40.1001 12.8249C42.3001 10.6249 45.5001 9.42493 49.2001 9.42493C57.3001 9.42493 67.7001 14.7249 76.3001 23.3249C89.4001 36.4249 94.1001 52.3249 86.9001 59.5249C84.7001 61.9249 81.5001 63.1249 77.8001 63.1249ZM49.2001 13.0249C46.3001 13.0249 44.1001 13.8249 42.6001 15.3249C40.0001 17.9249 39.5001 22.5249 41.3001 28.2249C43.2001 34.3249 47.4001 40.8249 53.1001 46.6249C61.1001 54.6249 70.5001 59.5249 77.7001 59.5249C80.6001 59.5249 82.8001 58.7249 84.3001 57.2249C89.9001 51.6249 85.1001 37.3249 73.7001 25.9249C65.9001 18.0249 56.5001 13.0249 49.2001 13.0249Z" fill="white"/>
<path d="M63.5 79.125C52.5 79.125 41.6 74.925 33.2 66.625C16.5 49.925 16.5 22.725 33.2 6.025C33.9 5.325 35 5.325 35.7 6.025C36.4 6.725 36.4 7.825 35.7 8.525C20.4 23.825 20.4 48.825 35.7 64.125C43.1 71.525 53 75.625 63.5 75.625C74 75.625 83.9 71.525 91.3 64.125C92 63.425 93.1 63.425 93.8 64.125C94.5 64.825 94.5 65.925 93.8 66.625C85.4 74.925 74.5 79.125 63.5 79.125Z" fill="white"/>
<path d="M51.9001 84.525C50.9001 84.525 50.1001 83.725 50.1001 82.725V76.225C50.1001 75.225 50.9001 74.425 51.9001 74.425C52.9001 74.425 53.7001 75.225 53.7001 76.225V82.725C53.7001 83.725 52.9001 84.525 51.9001 84.525Z" fill="white"/>
<path d="M66.6001 84.5251C65.6001 84.5251 64.8 83.7251 64.8 82.7251V78.0251C64.8 77.0251 65.6001 76.2251 66.6001 76.2251C67.6001 76.2251 68.4 77.0251 68.4 78.0251V82.7251C68.3 83.7251 67.6001 84.5251 66.6001 84.5251Z" fill="white"/>
<path d="M111.8 118.925H20C9.5 118.925 1 110.425 1 99.925C1 89.425 9.5 80.925 20 80.925H111.8C115 80.925 117.5 83.525 117.5 86.625C117.5 89.825 114.9 92.3251 111.8 92.3251H20C15.8 92.3251 12.4 95.725 12.4 99.925C12.4 104.125 15.8 107.525 20 107.525H111.8C115 107.525 117.5 110.125 117.5 113.225C117.6 116.325 115 118.925 111.8 118.925ZM20 84.3251C11.4 84.3251 4.5 91.3251 4.5 99.8251C4.5 108.425 11.5 115.325 20 115.325H111.8C113 115.325 114 114.325 114 113.125C114 111.925 113 110.925 111.8 110.925H20C13.9 110.925 8.9 105.925 8.9 99.8251C8.9 93.7251 13.9 88.725 20 88.725H111.8C113 88.725 114 87.725 114 86.525C114 85.325 113 84.3251 111.8 84.3251H20Z" fill="white"/>
<path d="M109.3 110.125C108.3 110.125 107.5 109.325 107.5 108.325V91.325C107.5 90.325 108.3 89.525 109.3 89.525C110.3 89.525 111.1 90.325 111.1 91.325V108.325C111 109.325 110.3 110.125 109.3 110.125Z" fill="white"/>
<path d="M77.9001 79.8251V102.225L87.7001 97.0251L97.6002 102.225V79.8251H77.9001Z" fill="white" fill-opacity="0.4"/>
<path d="M97.6001 103.925C97.3001 103.925 97.0001 103.825 96.8001 103.725L87.7001 99.025L78.6001 103.725C78.1001 104.025 77.4001 104.025 76.9001 103.625C76.4001 103.325 76.1001 102.725 76.1001 102.125V79.825C76.1001 78.825 76.9001 78.025 77.9001 78.025H97.6001C98.6001 78.025 99.4001 78.825 99.4001 79.825V102.125C99.4001 102.725 99.1001 103.325 98.6001 103.625C98.2001 103.825 97.9001 103.925 97.6001 103.925ZM87.7001 95.325C88.0001 95.325 88.3001 95.425 88.5001 95.525L95.8001 99.325V81.625H79.6001V99.325L86.9001 95.525C87.2001 95.325 87.5001 95.325 87.7001 95.325Z" fill="white"/>
</svg>
