<svg width="120" height="120" viewBox="0 0 120 120" fill="none" xmlns="http://www.w3.org/2000/svg">
<path d="M83.6002 36.941H26.0002C25.0002 36.941 24.2002 36.141 24.2002 35.141C24.2002 34.141 25.0002 33.341 26.0002 33.341H83.7002C84.7002 33.341 85.5002 34.141 85.5002 35.141C85.5002 36.141 84.6002 36.941 83.6002 36.941Z" fill="white"/>
<path d="M83.6002 46.641H26.0002C25.0002 46.641 24.2002 45.841 24.2002 44.841C24.2002 43.841 25.0002 43.041 26.0002 43.041H83.7002C84.7002 43.041 85.5002 43.841 85.5002 44.841C85.5002 45.841 84.6002 46.641 83.6002 46.641Z" fill="white"/>
<path d="M83.6002 91.641H26.0002C25.0002 91.641 24.2002 90.841 24.2002 89.841C24.2002 88.841 25.0002 88.041 26.0002 88.041H83.7002C84.7002 88.041 85.5002 88.841 85.5002 89.841C85.5002 90.841 84.6002 91.641 83.6002 91.641Z" fill="white"/>
<path d="M83.6002 101.341H26.0002C25.0002 101.341 24.2002 100.541 24.2002 99.541C24.2002 98.541 25.0002 97.741 26.0002 97.741H83.7002C84.7002 97.741 85.5002 98.541 85.5002 99.541C85.5002 100.541 84.6002 101.341 83.6002 101.341Z" fill="white"/>
<path d="M78.8999 23.141H97.0999L78.8999 4.841V23.141Z" fill="white" fill-opacity="0.4"/>
<path d="M97.1 24.841H78.8C77.8 24.841 77 24.0409 77 23.0409V4.74094C77 4.04094 77.4 3.44096 78.1 3.14096C78.8 2.84096 79.5 3.04093 80 3.54093L98.3 21.841C98.8 22.341 99 23.1409 98.7 23.7409C98.5 24.4409 97.8 24.841 97.1 24.841ZM80.6 21.341H92.9L80.6 9.04093V21.341Z" fill="white"/>
<path d="M97.1001 117.241H12.4001C11.4001 117.241 10.6001 116.441 10.6001 115.441V4.841C10.6001 3.841 11.4001 3.04095 12.4001 3.04095H78.8001C79.3001 3.04095 79.7001 3.24095 80.0001 3.54095L98.3001 21.841C98.6001 22.141 98.8001 22.641 98.8001 23.041V115.441C98.9001 116.441 98.1001 117.241 97.1001 117.241ZM14.2001 113.741H95.4001V23.841L78.2001 6.64099H14.3001V113.741H14.2001Z" fill="white"/>
<path d="M21.2 77.941H3.79999C2.79999 77.941 2 77.141 2 76.141V58.041C2 57.541 2.2 57.141 2.5 56.841C2.8 56.541 3.30001 56.341 3.70001 56.341H21.1C21.6 56.341 22 56.541 22.3 56.841C22.6 57.141 22.8 57.641 22.8 58.041V76.141C22.9 77.141 22.1 77.941 21.2 77.941ZM5.5 74.441H19.4V59.841H5.5V74.441Z" fill="white"/>
<path d="M97.3997 56.341H12.5996V77.941H97.3997V56.341Z" fill="white" fill-opacity="0.4"/>
<path d="M97.3998 79.741H12.5998C11.5998 79.741 10.7998 78.941 10.7998 77.941V56.341C10.7998 55.841 10.9998 55.441 11.2998 55.141C11.5998 54.841 12.0998 54.641 12.4998 54.641H97.2998C98.2998 54.641 99.0998 55.441 99.0998 56.441V77.941C99.1998 78.941 98.3998 79.741 97.3998 79.741ZM14.3998 76.241H95.6998V58.141H14.3998V76.241Z" fill="white"/>
<path d="M97.4001 79.741C96.8001 79.741 96.2001 79.441 95.9001 78.841C95.4001 78.041 95.7 76.941 96.6 76.441L113.5 67.141L96.6 57.841C95.8 57.341 95.4001 56.341 95.9001 55.441C96.4001 54.641 97.4 54.241 98.3 54.741L118 65.541C118.6 65.841 118.9 66.441 118.9 67.041C118.9 67.641 118.6 68.241 118 68.541L98.3 79.341C98 79.641 97.7001 79.741 97.4001 79.741Z" fill="white"/>
<path d="M106.3 61.241V73.141L117.1 67.141L106.3 61.241Z" fill="white"/>
<path d="M95.7999 68.941H22.1999C21.1999 68.941 20.3999 68.141 20.3999 67.141C20.3999 66.141 21.1999 65.341 22.1999 65.341H95.7999C96.7999 65.341 97.5999 66.141 97.5999 67.141C97.5999 68.141 96.6999 68.941 95.7999 68.941Z" fill="white"/>
<path d="M21.8 77.641C20.8 77.641 20 76.841 20 75.841V58.441C20 57.441 20.8 56.641 21.8 56.641C22.8 56.641 23.6 57.441 23.6 58.441V75.841C23.6 76.841 22.8 77.641 21.8 77.641Z" fill="white"/>
<path d="M53.3002 23.341H26.0002C25.0002 23.341 24.2002 22.541 24.2002 21.541C24.2002 20.541 25.0002 19.741 26.0002 19.741H53.3002C54.3002 19.741 55.1002 20.541 55.1002 21.541C55.1002 22.541 54.3002 23.341 53.3002 23.341Z" fill="white"/>
</svg>
