<svg width="120" height="120" viewBox="0 0 120 120" fill="none" xmlns="http://www.w3.org/2000/svg">
<path d="M100.9 114.4C104.6 118.1 110.7 118.1 114.4 114.4C118.1 110.7 118.1 104.6 114.4 100.9L100.9 114.4Z" fill="white" fill-opacity="0.4"/>
<path d="M53.5 48.6H67.5C67.3 44.4 66.8 40.3 65.9 36.5C62 38.1 57.8 39.1 53.5 39.3V48.6Z" fill="white" fill-opacity="0.4"/>
<path d="M53.5 17.8V34.5C57.3 34.2 61 33.3 64.5 31.8C63.9 30 63.1 28.3 62.3 26.7C59.8 21.9 56.8 18.8 53.5 17.8Z" fill="white" fill-opacity="0.4"/>
<path d="M39.9002 26.7C39.1002 28.3 38.3002 30 37.7002 31.8C41.2002 33.3 44.9002 34.2 48.7002 34.5V17.8C45.5002 18.8 42.4002 21.9 39.9002 26.7Z" fill="white" fill-opacity="0.4"/>
<path d="M72.3999 48.6H84.6999C84.1999 41.5 81.4999 34.9 76.9999 29.5C74.9999 31.3 72.6999 33 70.3999 34.3C71.4999 38.8 72.1999 43.6 72.3999 48.6Z" fill="white" fill-opacity="0.4"/>
<path d="M72.3999 53.5C72.1999 58.6 71.4999 63.5 70.3999 67.8C72.6999 69.1 74.8999 70.7 76.9999 72.6C81.3999 67.3 84.1999 60.7 84.6999 53.5H72.3999Z" fill="white" fill-opacity="0.4"/>
<path d="M29.9001 48.6C30.1001 43.6 30.8001 38.7 31.9001 34.3C29.6001 32.9 27.3001 31.3 25.3001 29.5C20.8001 34.9 18.1001 41.6 17.6001 48.6H29.9001V48.6Z" fill="white" fill-opacity="0.4"/>
<path d="M48.7002 48.6V39.3C44.4002 39 40.2002 38.1 36.3002 36.5C35.4002 40.3 34.8002 44.4 34.7002 48.6H48.7002Z" fill="white" fill-opacity="0.4"/>
<path d="M29.9001 53.5H17.6001C18.1001 60.7 20.9001 67.4 25.3001 72.6C27.3001 70.7 29.6001 69.2 31.9001 67.8C30.7001 63.5 30.0001 58.6 29.9001 53.5Z" fill="white" fill-opacity="0.4"/>
<path d="M53.5 53.5V62.8C57.7 63.1 61.9 64 65.8 65.6C66.7 61.9 67.3 57.8 67.4 53.5H53.5Z" fill="white" fill-opacity="0.4"/>
<path d="M68.8002 29.5C70.5002 28.5 72.0002 27.3 73.5002 26C70.6002 23.4 67.2002 21.3 63.7002 19.9C64.7002 21.3 65.7002 22.8 66.6002 24.5C67.4002 26 68.2002 27.7 68.8002 29.5Z" fill="white" fill-opacity="0.4"/>
<path d="M33.4002 29.5C34.1002 27.7 34.8002 26 35.6002 24.4C36.5002 22.7 37.5002 21.2 38.5002 19.8C34.9002 21.2 31.6002 23.3 28.7002 25.9C30.1002 27.3 31.7002 28.5 33.4002 29.5Z" fill="white" fill-opacity="0.4"/>
<path d="M28.7002 76.1C31.6002 78.7 34.9002 80.7 38.5002 82.2C36.5002 79.6 34.8002 76.3 33.4002 72.6C31.7002 73.6 30.2002 74.8 28.7002 76.1Z" fill="white" fill-opacity="0.4"/>
<path d="M68.9003 72.6C67.5003 76.3 65.8003 79.6 63.8003 82.2C67.4003 80.7 70.7003 78.6 73.6003 76.1C72.1003 74.8 70.5003 73.6 68.9003 72.6Z" fill="white" fill-opacity="0.4"/>
<path d="M48.7002 84.3V67.6C45.0002 67.9 41.2002 68.8 37.7002 70.3C40.3002 77.6 44.2002 82.9 48.7002 84.3Z" fill="white" fill-opacity="0.4"/>
<path d="M64.5 70.3C61 68.8 57.3 67.9 53.5 67.6V84.3C58 82.9 61.9 77.6 64.5 70.3Z" fill="white" fill-opacity="0.4"/>
<path d="M48.7002 53.5H34.7002C34.9002 57.8 35.4002 61.9 36.3002 65.6C40.3002 64 44.4002 63 48.6002 62.8L48.7002 53.5Z" fill="white" fill-opacity="0.4"/>
<path d="M51.1 100.1C38 100.1 25.7 95 16.4 85.7C7.09996 76.4 2 64.1 2 51C2 24 24 2 51 2C78 2 100 24 100 51C100.1 78.1 78.1 100.1 51.1 100.1ZM51.1 5.5C26 5.5 5.59998 25.9 5.59998 51C5.59998 63.2 10.3 74.6 18.9 83.2C27.5 91.8 38.9 96.5 51.1 96.5C76.2 96.5 96.6 76.1 96.6 51C96.6 26 76.2 5.5 51.1 5.5Z" fill="white"/>
<path d="M51.0998 92.4C28.2998 92.4 9.7998 73.9 9.7998 51.1C9.7998 28.3 28.2998 9.8 51.0998 9.8C73.8998 9.8 92.3998 28.3 92.3998 51.1C92.3998 73.8 73.8998 92.4 51.0998 92.4ZM51.0998 13.2C30.1998 13.2 13.2998 30.2 13.2998 51C13.2998 71.9 30.2998 88.8 51.0998 88.8C71.9998 88.8 88.8998 71.8 88.8998 51C88.8998 30.2 71.9998 13.2 51.0998 13.2Z" fill="white"/>
<path d="M107.7 118.9C104.7 118.9 101.8 117.7 99.7001 115.6L82.1001 98C81.8001 97.7 81.6001 97.2 81.6001 96.8C81.6001 96.3 81.8001 95.9 82.1001 95.6L95.6001 82.1C96.3001 81.4 97.4001 81.4 98.1001 82.1L115.7 99.7C120.1 104.1 120.1 111.3 115.7 115.7C113.5 117.8 110.7 118.9 107.7 118.9ZM85.7001 96.7L102.1 113.1C103.6 114.6 105.5 115.4 107.6 115.4C109.7 115.4 111.7 114.6 113.1 113.1C116.1 110.1 116.1 105.1 113.1 102L96.7001 85.6L85.7001 96.7Z" fill="white"/>
<path d="M89.8 91.5C89.4 91.5 88.9 91.3 88.6 91L83.9 86.3C83.2 85.6 83.2 84.5 83.9 83.8C84.6 83.1 85.7 83.1 86.4 83.8L91.1 88.5C91.8 89.2 91.8 90.3 91.1 91C90.7 91.3 90.3 91.5 89.8 91.5Z" fill="white"/>
<path d="M84.8998 106.5C84.4998 106.5 83.9998 106.3 83.6998 106C82.9998 105.3 82.9998 104.2 83.6998 103.5L103.6 83.6C104.3 82.9 105.4 82.9 106.1 83.6C106.8 84.3 106.8 85.4 106.1 86.1L86.1998 106C85.7998 106.4 85.3998 106.5 84.8998 106.5Z" fill="white"/>
</svg>
