<svg width="120" height="120" viewBox="0 0 120 120" fill="none" xmlns="http://www.w3.org/2000/svg">
<path d="M94.6 119H25.6C18.6 119 13 113.3 13 106.4V14.8C13 7.79999 18.7 2.19995 25.6 2.19995H94.6C101.6 2.19995 107.2 7.89999 107.2 14.8V106.4C107.2 113.3 101.5 119 94.6 119ZM25.6 5.59998C20.6 5.59998 16.5 9.69995 16.5 14.7V106.3C16.5 111.3 20.6 115.4 25.6 115.4H94.6C99.6 115.4 103.7 111.3 103.7 106.3V14.7C103.7 9.69995 99.6 5.59998 94.6 5.59998H25.6Z" fill="white"/>
<path d="M23.5 15V100.1H29.3V94.5V20.8V15H23.5Z" fill="white" fill-opacity="0.4"/>
<path d="M96.7001 101.9H23.6001C22.6001 101.9 21.8 101.1 21.8 100.1V15C21.8 14 22.6001 13.2 23.6001 13.2H96.7001C97.7001 13.2 98.5001 14 98.5001 15V100.1C98.4001 101.1 97.6001 101.9 96.7001 101.9ZM25.3 98.4H94.9001V16.8H25.3V98.4V98.4Z" fill="white"/>
<path d="M60.1001 113.3C57.3001 113.3 55.1001 111 55.1001 108.3C55.1001 105.5 57.4001 103.3 60.1001 103.3C62.9001 103.3 65.1001 105.6 65.1001 108.3C65.1001 111.1 62.9001 113.3 60.1001 113.3ZM60.1001 106.8C59.3001 106.8 58.6001 107.5 58.6001 108.3C58.6001 109.1 59.3001 109.8 60.1001 109.8C60.9001 109.8 61.6001 109.1 61.6001 108.3C61.6001 107.5 61.0001 106.8 60.1001 106.8Z" fill="white"/>
<path d="M69.7 3.89996V31.2L79.5999 26L89.4999 31.2V3.89996H69.7Z" fill="white" fill-opacity="0.4"/>
<path d="M89.5 32.9C89.2 32.9 88.9 32.8 88.7 32.7L79.6 28L70.5 32.7C70 33 69.3 33 68.8 32.6C68.3 32.3 68 31.7 68 31.1V3.79999C68 2.79999 68.8 2 69.8 2H89.5C90.5 2 91.3 2.79999 91.3 3.79999V31.1C91.3 31.7 91 32.3 90.5 32.6C90.1 32.8 89.8 32.9 89.5 32.9ZM79.6 24.3C79.9 24.3 80.2 24.4 80.4 24.5L87.7 28.3V5.59998H71.5V28.3L78.8 24.5C79 24.3 79.3 24.3 79.6 24.3Z" fill="white"/>
<path d="M71.8999 45H48.1999C47.1999 45 46.3999 44.2 46.3999 43.2C46.3999 42.2 47.1999 41.4 48.1999 41.4H71.8999C72.8999 41.4 73.6999 42.2 73.6999 43.2C73.6999 44.2 72.8999 45 71.8999 45Z" fill="white"/>
<path d="M85.2999 57.6H34.9999C33.9999 57.6 33.2 56.8 33.2 55.8C33.2 54.8 33.9999 54 34.9999 54H85.2999C86.2999 54 87.0999 54.8 87.0999 55.8C87.0999 56.8 86.1999 57.6 85.2999 57.6Z" fill="white"/>
<path d="M85.2999 67H34.9999C33.9999 67 33.2 66.2 33.2 65.2C33.2 64.2 33.9999 63.4 34.9999 63.4H85.2999C86.2999 63.4 87.0999 64.2 87.0999 65.2C87.0999 66.2 86.1999 67 85.2999 67Z" fill="white"/>
<path d="M85.2999 76.3H34.9999C33.9999 76.3 33.2 75.5 33.2 74.5C33.2 73.5 33.9999 72.7 34.9999 72.7H85.2999C86.2999 72.7 87.0999 73.5 87.0999 74.5C86.9999 75.5 86.1999 76.3 85.2999 76.3Z" fill="white"/>
<path d="M51.0999 85.6H34.9999C33.9999 85.6 33.2 84.8 33.2 83.8C33.2 82.8 33.9999 82 34.9999 82H51.0999C52.0999 82 52.8999 82.8 52.8999 83.8C52.8999 84.8 51.9999 85.6 51.0999 85.6Z" fill="white"/>
</svg>
