<svg width="120" height="120" viewBox="0 0 120 120" fill="none" xmlns="http://www.w3.org/2000/svg">
<path d="M56.9 112.8C42 112.8 27.9 107 17.4 96.4C6.80001 85.8 1 71.8 1 56.9C1 42 6.80001 27.9 17.4 17.4C28 6.79999 42 1 56.9 1C71.8 1 85.9 6.79999 96.4 17.4C118.2 39.2 118.2 74.7 96.4 96.4C85.8 107 71.8 112.8 56.9 112.8ZM56.9 4.5C42.9 4.5 29.7 9.99999 19.9 19.8C10 29.7 4.60001 42.9 4.60001 56.8C4.60001 70.8 10.1 84 19.9 93.8C29.8 103.7 43 109.1 56.9 109.1C70.9 109.1 84.1 103.6 93.9 93.8C114.3 73.4 114.3 40.1 93.9 19.7C84 10 70.9 4.5 56.9 4.5Z" fill="white"/>
<path d="M85.6 85.6C69.8 101.4 44 101.4 28.1 85.6C12.3 69.8 12.3 44 28.1 28.1C43.9 12.3 69.7 12.3 85.6 28.1C101.4 44 101.4 69.8 85.6 85.6ZM37.2 37.2C26.3 48.1 26.3 65.7 37.2 76.6C48.1 87.5 65.7 87.5 76.6 76.6C87.5 65.7 87.5 48.1 76.6 37.2C65.7 26.3 48 26.3 37.2 37.2Z" fill="white" fill-opacity="0.4"/>
<path d="M47.5001 47.5C42.3001 52.7 42.3001 61.1 47.5001 66.3C50.7001 69.5 55.0001 70.7 59.1001 70L54.6001 54.7L69.9001 59.2C70.6001 55.1 69.4001 50.8 66.2001 47.6C61.1001 42.3 52.7001 42.3 47.5001 47.5Z" fill="white" fill-opacity="0.4"/>
<path d="M105.2 117.9C104.8 117.9 104.3 117.7 104 117.4L93.5001 106.9C92.8001 106.2 92.8001 105.1 93.5001 104.4L104.4 93.5C104.7 93.2 105.2 93 105.6 93C106.1 93 106.5 93.2 106.8 93.5L117.3 104C118 104.7 118 105.8 117.3 106.5L106.4 117.4C106.1 117.7 105.7 117.9 105.2 117.9ZM97.2001 105.7L105.2 113.7L113.6 105.3L105.6 97.3L97.2001 105.7Z" fill="white"/>
<path d="M72.9989 60.0458L59.9883 73.0565L98.8081 111.876L111.819 98.8656L72.9989 60.0458Z" fill="white" fill-opacity="0.4"/>
<path d="M98.8004 113.6C98.3004 113.6 97.9004 113.4 97.6004 113.1L58.8004 74.3C58.1004 73.6 58.1004 72.5 58.8004 71.8L71.8004 58.8C72.5004 58.1 73.6004 58.1 74.3004 58.8L113.1 97.6C113.8 98.3 113.8 99.4 113.1 100.1L100.1 113.1C99.7004 113.4 99.3004 113.6 98.8004 113.6ZM62.5004 73L98.9004 109.4L109.4 98.9L73.0004 62.5L62.5004 73Z" fill="white"/>
<path d="M60.0002 74.8C59.2002 74.8 58.5002 74.3 58.3002 73.5L52.9002 55.1C52.7002 54.5 52.9002 53.8 53.3002 53.4C53.8002 52.9 54.4002 52.8 55.0002 53L73.4002 58.4C74.3002 58.7 74.9002 59.6 74.6002 60.6C74.3002 61.5 73.4002 62.1 72.4002 61.8L57.1002 57.3L61.6002 72.6C61.9002 73.5 61.3002 74.5 60.4002 74.8C60.3002 74.8 60.2002 74.8 60.0002 74.8Z" fill="white"/>
<path d="M57.6001 64.8L64.7001 57.6001L54.6001 54.7001L57.6001 64.8Z" fill="white"/>
<path d="M99.6004 101.4C99.2004 101.4 98.7004 101.2 98.4004 100.9L66.3004 68.8C65.6004 68.1 65.6004 67 66.3004 66.3C67.0004 65.6 68.1004 65.6 68.8004 66.3L100.9 98.4C101.6 99.1 101.6 100.2 100.9 100.9C100.5 101.2 100 101.4 99.6004 101.4Z" fill="white"/>
<path d="M94.6 106.8C94.2 106.8 93.7 106.6 93.4 106.3C92.7 105.6 92.7 104.5 93.4 103.8L103.9 93.3C104.6 92.6 105.7 92.6 106.4 93.3C107.1 94 107.1 95.1 106.4 95.8L95.9 106.3C95.5 106.6 95 106.8 94.6 106.8Z" fill="white"/>
</svg>
