<svg width="120" height="120" viewBox="0 0 120 120" fill="none" xmlns="http://www.w3.org/2000/svg">
<path d="M98.2998 6.80005H2.7998V17.7H98.2998V6.80005Z" fill="white" fill-opacity="0.4"/>
<path d="M98.3 85.7H2.79999C1.79999 85.7 1 84.9 1 83.9V6.8C1 5.8 1.79999 5 2.79999 5H98.3C99.3 5 100.1 5.8 100.1 6.8V84C100 84.9 99.2 85.7 98.3 85.7ZM4.59999 82.2H96.6V8.5H4.59999V82.2Z" fill="white"/>
<path d="M11.5998 13.2C11.5998 12.1 10.6998 11.3 9.69981 11.3C8.59981 11.3 7.7998 12.2 7.7998 13.2C7.7998 14.3 8.69981 15.1 9.69981 15.1C10.6998 15.2 11.5998 14.3 11.5998 13.2Z" fill="white"/>
<path d="M18.0998 13.2C18.0998 12.1 17.1998 11.3 16.1998 11.3C15.0998 11.3 14.2998 12.2 14.2998 13.2C14.2998 14.3 15.1998 15.1 16.1998 15.1C17.1998 15.2 18.0998 14.3 18.0998 13.2Z" fill="white"/>
<path d="M24.4997 13.2C24.4997 12.1 23.5997 11.3 22.5997 11.3C21.4997 11.3 20.6997 12.2 20.6997 13.2C20.6997 14.3 21.5997 15.1 22.5997 15.1C23.6997 15.2 24.4997 14.3 24.4997 13.2Z" fill="white"/>
<path d="M46.4002 27.8H12.7002V51.4H46.4002V27.8Z" fill="white" fill-opacity="0.4"/>
<path d="M45.2 61.6H13.8C12.8 61.6 12 60.8 12 59.8C12 58.8 12.8 58 13.8 58H45.2C46.2 58 47 58.8 47 59.8C47 60.8 46.2 61.6 45.2 61.6Z" fill="white"/>
<path d="M45.2 70H13.8C12.8 70 12 69.2 12 68.2C12 67.2 12.8 66.4 13.8 66.4H45.2C46.2 66.4 47 67.2 47 68.2C47 69.2 46.2 70 45.2 70Z" fill="white"/>
<path d="M88.4998 27.8H54.7998V51.4H88.4998V27.8Z" fill="white" fill-opacity="0.4"/>
<path d="M108.9 115.1C106.5 115.1 104.2 114.2 102.5 112.5L87.3998 97.3C85.6998 95.6 84.7998 93.3 84.7998 90.9C84.7998 88.5 85.6998 86.2 87.3998 84.5C89.0998 82.8 91.3998 81.9 93.7998 81.9C96.1998 81.9 98.4998 82.8 100.2 84.5L115.3 99.6C117 101.3 117.9 103.6 117.9 106C117.9 108.4 117 110.7 115.3 112.4C113.6 114.1 111.3 115.1 108.9 115.1ZM93.7998 85.4C92.2998 85.4 90.8998 86 89.8998 87C88.8998 88 88.2998 89.4 88.2998 90.9C88.2998 92.4 88.8998 93.8 89.8998 94.8L105 109.9C106 110.9 107.4 111.5 108.9 111.5C110.4 111.5 111.8 110.9 112.8 109.9C113.8 108.9 114.4 107.5 114.4 106C114.4 104.5 113.8 103.1 112.8 102.1L97.6998 87C96.6998 86 95.2998 85.4 93.7998 85.4Z" fill="white"/>
<path d="M100.2 58.4C89.4999 47.7 71.9999 47.7 61.2999 58.4C50.5999 69.1 50.5999 86.6 61.2999 97.3C71.9999 108 89.4999 108 100.2 97.3C110.9 86.6 110.9 69.1 100.2 58.4Z" fill="white" fill-opacity="0.4"/>
<path d="M80.6999 107.1C72.8999 107.1 65.4999 104.1 59.9999 98.5C54.4999 93 51.3999 85.6 51.3999 77.8C51.3999 70 54.3999 62.6 59.9999 57.1C65.4999 51.6 72.8999 48.5 80.6999 48.5C88.4999 48.5 95.8999 51.5 101.4 57.1C112.8 68.5 112.8 87.1 101.4 98.5C95.8999 104.1 88.4999 107.1 80.6999 107.1ZM80.6999 52.1C73.7999 52.1 67.3999 54.8 62.4999 59.6C57.5999 64.5 54.9999 70.9 54.9999 77.8C54.9999 84.7 57.6999 91.1 62.4999 96C67.3999 100.9 73.7999 103.5 80.6999 103.5C87.5999 103.5 93.9999 100.8 98.8999 96C108.9 86 108.9 69.6 98.8999 59.6C94.0999 54.8 87.5999 52.1 80.6999 52.1Z" fill="white"/>
<path d="M94.5999 64.0001C86.8999 56.3001 74.4999 56.3001 66.7999 64.0001C59.0999 71.7001 59.0999 84.1001 66.7999 91.8001C74.4999 99.5001 86.8999 99.5001 94.5999 91.8001C102.3 84.1001 102.3 71.6001 94.5999 64.0001Z" fill="white" fill-opacity="0.4"/>
<path d="M80.7 99.2C75 99.2 69.6 97.0001 65.6 92.9001C57.3 84.6001 57.3 71 65.6 62.6C69.6 58.6 75 56.3 80.7 56.3C86.4 56.3 91.8 58.5 95.8 62.6C104.1 70.9 104.1 84.5001 95.8 92.9001C91.8 97.0001 86.4 99.2 80.7 99.2ZM80.7 60C75.9 60 71.4 61.9 68 65.2C61 72.2 61 83.5 68 90.5C71.4 93.9 75.9 95.7 80.7 95.7C85.5 95.7 90 93.8 93.4 90.5C100.4 83.5 100.4 72.2 93.4 65.2C90 61.8 85.5 60 80.7 60Z" fill="white"/>
<path d="M71.1997 89.1C70.7997 89.1 70.2997 88.9 69.9997 88.6C64.0997 82.7 64.0997 73 69.9997 67.1C70.6997 66.4 71.7997 66.4 72.4997 67.1C73.1997 67.8 73.1997 68.9 72.4997 69.6C70.2997 71.8 69.0997 74.8 69.0997 77.9C69.0997 81 70.2997 83.9999 72.4997 86.1999C73.1997 86.8999 73.1997 87.9999 72.4997 88.6999C72.0997 88.8999 71.6997 89.1 71.1997 89.1Z" fill="white"/>
</svg>
