<svg width="120" height="120" viewBox="0 0 120 120" fill="none" xmlns="http://www.w3.org/2000/svg">
<path d="M79.9282 44H67.9282V112.9H79.9282V44Z" fill="white" fill-opacity="0.4"/>
<path d="M40.2282 29.8C39.2282 29.8 38.4282 29 38.4282 28V11.6C38.4282 8.00004 41.4282 5 45.0282 5C48.6282 5 51.6282 8.00004 51.6282 11.6V15.1C51.6282 16.1 50.8282 16.9 49.8282 16.9C48.8282 16.9 48.0282 16.1 48.0282 15.1V11.6C48.0282 9.90004 46.6282 8.5 44.9282 8.5C43.2282 8.5 41.8282 9.90004 41.8282 11.6V28C42.0282 29.1 41.2282 29.8 40.2282 29.8Z" fill="white"/>
<path d="M59.5282 16.9C58.5282 16.9 57.7282 16.1 57.7282 15.1V12.7C57.7282 11 56.3282 9.60004 54.6282 9.60004C52.9282 9.60004 51.5282 11 51.5282 12.7V15.1C51.5282 16.1 50.7282 16.9 49.7282 16.9C48.7282 16.9 47.9282 16.1 47.9282 15.1V12.7C47.9282 9.10001 50.9282 6.10004 54.5282 6.10004C58.1282 6.10004 61.1282 9.10001 61.1282 12.7V15.1C61.3282 16.1 60.5282 16.9 59.5282 16.9Z" fill="white"/>
<path d="M69.1283 16.9C68.1283 16.9 67.3283 16.1 67.3283 15.1V12.7C67.3283 11 65.9283 9.60004 64.2283 9.60004C62.5283 9.60004 61.1283 11 61.1283 12.7V15.1C61.1283 16.1 60.3283 16.9 59.3283 16.9C58.3283 16.9 57.5283 16.1 57.5283 15.1V12.7C57.5283 9.10001 60.5283 6.10004 64.1283 6.10004C67.7283 6.10004 70.7283 9.10001 70.7283 12.7V15.1C70.8283 16.1 70.1283 16.9 69.1283 16.9Z" fill="white"/>
<path d="M78.7284 44.7C77.7284 44.7 76.9284 43.9 76.9284 42.9V12.6C76.9284 10.9 75.5284 9.5 73.8284 9.5C72.1284 9.5 70.7284 10.9 70.7284 12.6V15C70.7284 16 69.9284 16.8 68.9284 16.8C67.9284 16.8 67.1284 16 67.1284 15V12.6C67.1284 9.00004 70.1284 6 73.7284 6C77.3284 6 80.3284 9.00004 80.3284 12.6V42.9C80.4284 43.9 79.6284 44.7 78.7284 44.7Z" fill="white"/>
<path d="M79.9281 114.6C78.9281 114.6 78.1281 113.8 78.1281 112.8V45.6H40.4281V112.8C40.4281 113.8 39.6281 114.6 38.6281 114.6C37.6281 114.6 36.8281 113.8 36.8281 112.8V43.9C36.8281 42.9 37.6281 42.1 38.6281 42.1H79.9281C80.9281 42.1 81.7281 42.9 81.7281 43.9V112.8C81.6281 113.8 80.8281 114.6 79.9281 114.6Z" fill="white"/>
<path d="M38.9281 45.3C38.7281 45.3 38.6281 45.3 38.4281 45.2C32.5281 43.5 31.4281 37.5 31.6281 34.6V20.7C31.6281 14.7 36.5281 12.1 39.1281 11.5C40.0281 11.3 41.0281 11.9 41.2281 12.9C41.4281 13.8 40.8281 14.8 39.9281 15C39.4281 15.1 35.1281 16.2 35.1281 20.7V34.6C35.1281 34.7 35.1281 34.7 35.1281 34.8C35.1281 35 34.7281 40.4 39.4281 41.8C40.3281 42.1 40.9281 43 40.6281 44C40.3281 44.8 39.6281 45.3 38.9281 45.3Z" fill="white"/>
<path d="M78.6282 55.4H40.7282C39.7282 55.4 38.9282 54.6 38.9282 53.6C38.9282 52.6 39.7282 51.8 40.7282 51.8H78.6282C79.6282 51.8 80.4282 52.6 80.4282 53.6C80.4282 54.6 79.6282 55.4 78.6282 55.4Z" fill="white"/>
<path d="M7.02803 60.7C6.02803 60.7 5.22803 59.9 5.22803 58.9V48.5C5.22803 45.8 7.42803 43.7 10.028 43.7C12.628 43.7 14.828 45.9 14.828 48.5V50.7C14.828 51.7 14.028 52.5 13.028 52.5C12.028 52.5 11.228 51.7 11.228 50.7V48.5C11.228 47.8 10.628 47.2 9.92803 47.2C9.22803 47.2 8.62803 47.8 8.62803 48.5V58.9C8.82803 60 8.02803 60.7 7.02803 60.7Z" fill="white"/>
<path d="M19.3281 52.5C18.3281 52.5 17.5281 51.7 17.5281 50.7V49.2C17.5281 48.5 16.9281 47.9 16.2281 47.9C15.5281 47.9 14.9281 48.5 14.9281 49.2V50.7C14.9281 51.7 14.1281 52.5 13.1281 52.5C12.1281 52.5 11.3281 51.7 11.3281 50.7V49.2C11.3281 46.5 13.5281 44.4 16.1281 44.4C18.8281 44.4 20.9281 46.6 20.9281 49.2V50.7C21.0281 51.7 20.2281 52.5 19.3281 52.5Z" fill="white"/>
<path d="M25.3281 52.5C24.3281 52.5 23.5281 51.7 23.5281 50.7V49.2C23.5281 48.5 22.9281 47.9 22.2281 47.9C21.5281 47.9 20.9281 48.5 20.9281 49.2V50.7C20.9281 51.7 20.1281 52.5 19.1281 52.5C18.1281 52.5 17.3281 51.7 17.3281 50.7V49.2C17.3281 46.5 19.5281 44.4 22.1281 44.4C24.8281 44.4 26.9281 46.6 26.9281 49.2V50.7C27.1281 51.7 26.3281 52.5 25.3281 52.5Z" fill="white"/>
<path d="M31.4282 70.2C30.4282 70.2 29.6282 69.4 29.6282 68.4V49.2C29.6282 48.5 29.0282 47.9 28.3282 47.9C27.6282 47.9 27.0282 48.5 27.0282 49.2V50.7C27.0282 51.7 26.2282 52.5 25.2282 52.5C24.2282 52.5 23.4282 51.7 23.4282 50.7V49.2C23.4282 46.5 25.6282 44.4 28.2282 44.4C30.9282 44.4 33.0282 46.6 33.0282 49.2V68.4C33.2282 69.4 32.4282 70.2 31.4282 70.2Z" fill="white"/>
<path d="M32.228 114.6C31.228 114.6 30.428 113.8 30.428 112.8V70.7H7.82803V112.8C7.82803 113.8 7.02803 114.6 6.02803 114.6C5.02803 114.6 4.22803 113.8 4.22803 112.8V69C4.22803 68 5.02803 67.2 6.02803 67.2H32.228C33.228 67.2 34.028 68 34.028 69V112.8C33.928 113.8 33.228 114.6 32.228 114.6Z" fill="white"/>
<path d="M6.22802 70.6C6.02802 70.6 5.92802 70.6 5.72802 70.5C1.62802 69.3 0.828024 65.2 1.02802 63.1V54.3C1.02802 50.1 4.52802 48.2 6.32802 47.9C7.22802 47.7 8.22802 48.3 8.42802 49.3C8.62802 50.2 8.02802 51.2 7.12802 51.4C6.82802 51.5 4.62802 52.1 4.62802 54.4V63.2C4.62802 63.3 4.62802 63.3 4.62802 63.4C4.62802 63.7 4.42802 66.5 6.82802 67.2C7.72802 67.5 8.32802 68.4 8.02802 69.4C7.62802 70.1 6.92802 70.6 6.22802 70.6Z" fill="white"/>
<path d="M89.9279 83.6C88.9279 83.6 88.1279 82.8 88.1279 81.8V71C88.1279 68.3 90.3279 66 93.1279 66C95.8279 66 98.1279 68.2 98.1279 71V73.3C98.1279 74.3 97.3279 75.1 96.3279 75.1C95.3279 75.1 94.5279 74.3 94.5279 73.3V71C94.5279 70.2 93.8279 69.5 93.0279 69.5C92.2279 69.5 91.5279 70.2 91.5279 71V81.8C91.6279 82.8 90.8279 83.6 89.9279 83.6Z" fill="white"/>
<path d="M102.628 75C101.628 75 100.828 74.2 100.828 73.2V71.6C100.828 70.8 100.128 70.1 99.328 70.1C98.528 70.1 97.828 70.8 97.828 71.6V73.2C97.828 74.2 97.028 75 96.028 75C95.028 75 94.228 74.2 94.228 73.2V71.6C94.228 68.9 96.428 66.6 99.228 66.6C101.928 66.6 104.228 68.8 104.228 71.6V73.2C104.328 74.2 103.628 75 102.628 75Z" fill="white"/>
<path d="M108.928 75C107.928 75 107.128 74.2 107.128 73.2V71.6C107.128 70.8 106.428 70.1 105.628 70.1C104.828 70.1 104.128 70.8 104.128 71.6V73.2C104.128 74.2 103.328 75 102.328 75C101.328 75 100.528 74.2 100.528 73.2V71.6C100.528 68.9 102.728 66.6 105.528 66.6C108.228 66.6 110.528 68.8 110.528 71.6V73.2C110.728 74.2 109.928 75 108.928 75Z" fill="white"/>
<path d="M115.328 93.4C114.328 93.4 113.528 92.6 113.528 91.6V71.6C113.528 70.8 112.828 70.1 112.028 70.1C111.228 70.1 110.528 70.8 110.528 71.6V73.2C110.528 74.2 109.728 75 108.728 75C107.728 75 106.928 74.2 106.928 73.2V71.6C106.928 68.9 109.128 66.6 111.928 66.6C114.628 66.6 116.928 68.8 116.928 71.6V91.6C117.028 92.6 116.228 93.4 115.328 93.4Z" fill="white"/>
<path d="M116.028 114.6C115.028 114.6 114.228 113.8 114.228 112.8V94H90.6278V112.8C90.6278 113.8 89.8278 114.6 88.8278 114.6C87.8278 114.6 87.0278 113.8 87.0278 112.8V92.2C87.0278 91.2 87.8278 90.4 88.8278 90.4H116.028C117.028 90.4 117.828 91.2 117.828 92.2V112.8C117.828 113.8 117.028 114.6 116.028 114.6Z" fill="white"/>
<path d="M89.0281 93.8C88.8281 93.8 88.7281 93.8 88.5281 93.7C84.3281 92.4 83.5281 88.2 83.6281 86.1V77C83.6281 72.7 87.2281 70.8 89.1281 70.4C90.0281 70.2 91.0281 70.8 91.2281 71.8C91.4281 72.7 90.8281 73.7 89.9281 73.9C89.6281 74 87.2281 74.6 87.2281 77.1V86.3C87.2281 86.4 87.2281 86.4 87.2281 86.5C87.2281 86.8 87.0281 89.7 89.6281 90.5C90.5281 90.8 91.1281 91.7 90.8281 92.7C90.4281 93.3 89.7281 93.8 89.0281 93.8Z" fill="white"/>
</svg>
