<svg width="120" height="120" viewBox="0 0 120 120" fill="none" xmlns="http://www.w3.org/2000/svg">
<path d="M88.9998 107.3H4.7998V117.1H88.9998V107.3Z" fill="white" fill-opacity="0.4"/>
<path d="M65.5999 17.3H56.8999V63.6H65.5999V17.3Z" fill="white" fill-opacity="0.4"/>
<path d="M68.7999 18H25.8999C21.4999 18 17.8999 14.4 17.8999 10C17.8999 5.6 21.4999 2 25.8999 2H68.7999C73.1999 2 76.7999 5.6 76.7999 10C76.7999 14.4 73.1999 18 68.7999 18ZM25.8999 5.39999C23.3999 5.39999 21.3999 7.39999 21.3999 9.89999C21.3999 12.4 23.3999 14.4 25.8999 14.4H68.7999C71.2999 14.4 73.2999 12.4 73.2999 9.89999C73.2999 7.39999 71.2999 5.39999 68.7999 5.39999H25.8999Z" fill="white"/>
<path d="M68.7999 79H25.8999C21.4999 79 17.8999 75.4 17.8999 71C17.8999 66.6 21.4999 63 25.8999 63H68.7999C73.1999 63 76.7999 66.6 76.7999 71C76.7999 75.4 73.1999 79 68.7999 79ZM25.8999 66.4C23.3999 66.4 21.3999 68.4 21.3999 70.9C21.3999 73.4 23.3999 75.4 25.8999 75.4H68.7999C71.2999 75.4 73.2999 73.4 73.2999 70.9C73.2999 68.4 71.2999 66.4 68.7999 66.4H25.8999Z" fill="white"/>
<path d="M28.8 64.7C27.8 64.7 27 63.9 27 62.9V18C27 17 27.8 16.2 28.8 16.2C29.8 16.2 30.6 17 30.6 18V62.9C30.5 63.9 29.8 64.7 28.8 64.7Z" fill="white"/>
<path d="M65.9001 64.7C64.9001 64.7 64.1001 63.9 64.1001 62.9V18C64.1001 17 64.9001 16.2 65.9001 16.2C66.9001 16.2 67.7001 17 67.7001 18V62.9C67.7001 63.9 66.9001 64.7 65.9001 64.7Z" fill="white"/>
<path d="M70.3001 23.9H24.4001C23.4001 23.9 22.6001 23.1 22.6001 22.1C22.6001 21.1 23.4001 20.3 24.4001 20.3H70.3001C71.3001 20.3 72.1001 21.1 72.1001 22.1C72.0001 23.1 71.3001 23.9 70.3001 23.9Z" fill="white"/>
<path d="M70.3001 60.5H24.4001C23.4001 60.5 22.6001 59.7 22.6001 58.7C22.6001 57.7 23.4001 56.9 24.4001 56.9H70.3001C71.3001 56.9 72.1001 57.7 72.1001 58.7C72.0001 59.8 71.3001 60.5 70.3001 60.5Z" fill="white"/>
<path d="M109.2 48.6H67.4001C66.4001 48.6 65.6001 47.8 65.6001 46.8C65.6001 45.8 66.4001 45 67.4001 45H109.2C111.8 45 113.9 42.9 113.9 40.3C113.9 37.7 111.8 35.6 109.2 35.6H67.4001C66.4001 35.6 65.6001 34.8 65.6001 33.8C65.6001 32.8 66.4001 32 67.4001 32H109.2C113.7 32 117.4 35.7 117.4 40.2C117.4 44.9 113.7 48.6 109.2 48.6Z" fill="white"/>
<path d="M89 118.8H4.8C3.8 118.8 3 118 3 117V97.2C3 89.7 9.10001 83.6 16.6 83.6H77.2C84.7 83.6 90.8 89.7 90.8 97.2V117.1C90.8 118 90 118.8 89 118.8ZM6.5 115.3H87.2V97.2C87.2 91.6 82.7 87.1 77.1 87.1H16.5C10.9 87.1 6.40001 91.6 6.40001 97.2V115.3H6.5Z" fill="white"/>
<path d="M79.7998 98.5C79.7998 99.4 79.0998 100.1 78.1998 100.1H14.8998C13.9998 100.1 13.2998 99.4 13.2998 98.5C13.2998 97.6 13.9998 96.9 14.8998 96.9H78.1998C79.0998 96.9 79.7998 97.6 79.7998 98.5Z" fill="white" fill-opacity="0.4"/>
</svg>
