<svg width="120" height="120" viewBox="0 0 120 120" fill="none" xmlns="http://www.w3.org/2000/svg">
<path d="M24.4999 20.8409H13.7V74.2409H24.4999V20.8409Z" fill="white" fill-opacity="0.4"/>
<path d="M105.1 74.2409H94.3V26.0409L89.2 20.8409H105.1V74.2409Z" fill="white" fill-opacity="0.4"/>
<path d="M77.1 108.741H41.7V117.141H77.1V108.741Z" fill="white" fill-opacity="0.4"/>
<path d="M98.5 118.641H20.3C19.3 118.641 18.5 117.841 18.5 116.841C18.5 115.841 19.3 115.041 20.3 115.041H98.5C99.5 115.041 100.3 115.841 100.3 116.841C100.3 117.841 99.4 118.641 98.5 118.641Z" fill="white"/>
<path d="M113 100.841H5.80002C4.80002 100.841 4 100.041 4 99.0409V12.6409C4 11.6409 4.80002 10.8409 5.80002 10.8409H24.5C25.5 10.8409 26.3 11.6409 26.3 12.6409C26.3 13.6409 25.5 14.4409 24.5 14.4409H7.60001V97.4409H111.3V14.4409H91.9C90.9 14.4409 90.1 13.6409 90.1 12.6409C90.1 11.6409 90.9 10.8409 91.9 10.8409H113.1C114.1 10.8409 114.9 11.6409 114.9 12.6409V99.1409C114.7 100.141 114 100.841 113 100.841Z" fill="white"/>
<path d="M113 82.641H5.80005V99.141H113V82.641Z" fill="white" fill-opacity="0.4"/>
<path d="M113 100.841H5.80002C4.80002 100.841 4 100.041 4 99.0409V82.6409C4 81.6409 4.80002 80.8409 5.80002 80.8409H113C114 80.8409 114.8 81.6409 114.8 82.6409V99.1409C114.7 100.141 114 100.841 113 100.841ZM7.5 97.3409H111.2V84.3409H7.5V97.3409Z" fill="white"/>
<path d="M41.3 117.241C40.3 117.241 39.5 116.441 39.5 115.441V101.141C39.5 100.141 40.3 99.3409 41.3 99.3409C42.3 99.3409 43.1 100.141 43.1 101.141V115.441C43 116.441 42.2 117.241 41.3 117.241Z" fill="white"/>
<path d="M77.5 117.241C76.5 117.241 75.7 116.441 75.7 115.441V101.141C75.7 100.141 76.5 99.3409 77.5 99.3409C78.5 99.3409 79.3 100.141 79.3 101.141V115.441C79.2 116.441 78.4 117.241 77.5 117.241Z" fill="white"/>
<path d="M93.0999 84.3409H25.6999C24.6999 84.3409 23.8999 83.5409 23.8999 82.5409V3.84089C23.8999 2.84089 24.6999 2.04089 25.6999 2.04089H71.0999C71.5999 2.04089 71.9999 2.24089 72.2999 2.54089L94.2999 24.5409C94.5999 24.8409 94.7999 25.3409 94.7999 25.7409V82.6409C94.7999 83.5409 93.9999 84.3409 93.0999 84.3409ZM27.3999 80.8409H91.2999V26.4409L70.3999 5.54089H27.3999V80.8409V80.8409Z" fill="white"/>
<path d="M71.0999 25.7409H93.0999L71.0999 3.84094V25.7409Z" fill="white" fill-opacity="0.4"/>
<path d="M93.0998 27.541H71.0998C70.0998 27.541 69.2998 26.741 69.2998 25.741V3.74095C69.2998 3.04095 69.6998 2.44095 70.3998 2.14095C71.0998 1.84095 71.7998 2.04095 72.2998 2.54095L94.2998 24.541C94.7998 25.041 94.9998 25.841 94.6998 26.441C94.3998 27.041 93.7998 27.541 93.0998 27.541ZM72.8998 24.041H88.8998L72.8998 8.04095V24.041Z" fill="white"/>
<path d="M79.2 70.241H39.5C38.5 70.241 37.7 69.441 37.7 68.441C37.7 67.441 38.5 66.641 39.5 66.641H79.2C80.2 66.641 81 67.441 81 68.441C81 69.441 80.2 70.241 79.2 70.241Z" fill="white"/>
<path d="M79.2 59.9409H39.5C38.5 59.9409 37.7 59.1409 37.7 58.1409C37.7 57.1409 38.5 56.3409 39.5 56.3409H79.2C80.2 56.3409 81 57.1409 81 58.1409C81 59.1409 80.2 59.9409 79.2 59.9409Z" fill="white"/>
<path d="M79.2 49.641H39.5C38.5 49.641 37.7 48.841 37.7 47.841C37.7 46.841 38.5 46.041 39.5 46.041H79.2C80.2 46.041 81 46.841 81 47.841C81 48.841 80.2 49.641 79.2 49.641Z" fill="white"/>
<path d="M79.2 39.4409H39.5C38.5 39.4409 37.7 38.6409 37.7 37.6409C37.7 36.6409 38.5 35.8409 39.5 35.8409H79.2C80.2 35.8409 81 36.6409 81 37.6409C81 38.6409 80.2 39.4409 79.2 39.4409Z" fill="white"/>
<path d="M54.9 22.641H39.5C38.5 22.641 37.7 21.841 37.7 20.841C37.7 19.841 38.5 19.041 39.5 19.041H54.9C55.9 19.041 56.7 19.841 56.7 20.841C56.7 21.841 55.9 22.641 54.9 22.641Z" fill="white"/>
</svg>
