<svg width="120" height="120" viewBox="0 0 120 120" fill="none" xmlns="http://www.w3.org/2000/svg">
<path d="M10.8 109.8C9.8 109.8 9 109 9 108V10.8C9 5.39999 13.4 1 18.8 1H108.6C109.6 1 110.4 1.79999 110.4 2.79999V100C110.4 101 109.6 101.8 108.6 101.8H18.9C15.4 101.8 12.6 104.6 12.6 108.1C12.6 109 11.8 109.8 10.8 109.8ZM18.9 4.59998C15.4 4.59998 12.6 7.39999 12.6 10.9V100.5C14.3 99.1 16.5 98.2 18.9 98.2H106.8V4.5H18.9V4.59998Z" fill="white"/>
<path d="M108.6 118H18.9001C13.5001 118 9.1001 113.6 9.1001 108.2C9.1001 102.7 13.5001 98.3 18.9001 98.3H108.6C109.6 98.3 110.4 99.1 110.4 100.1C110.4 101 109.7 101.8 108.7 101.9C105.3 102 102.6 104.8 102.6 108.2C102.6 111.7 105.3 114.5 108.7 114.6C109.6 114.6 110.4 115.4 110.4 116.3C110.3 117.2 109.5 118 108.6 118ZM18.9001 101.7C15.4001 101.7 12.6001 104.5 12.6001 108C12.6001 111.6 15.4001 114.4 18.9001 114.4H101.3C99.9001 112.7 99.0001 110.5 99.0001 108.1C99.0001 105.6 99.9001 103.4 101.3 101.7H18.9001Z" fill="white"/>
<path d="M90.2 109.7H24.1C23.1 109.7 22.3 108.9 22.3 107.9C22.3 106.9 23.1 106.1 24.1 106.1H90.2C91.2 106.1 92 106.9 92 107.9C92 108.9 91.2 109.7 90.2 109.7Z" fill="white"/>
<path d="M23.8 95.4C22.8 95.4 22 94.6 22 93.6V4.09998C22 3.09998 22.8 2.29999 23.8 2.29999C24.8 2.29999 25.6 3.09998 25.6 4.09998V93.6C25.5 94.7 24.7 95.4 23.8 95.4Z" fill="white"/>
<path d="M95.3 16.7H37.3V36.2H95.3V16.7Z" fill="white" fill-opacity="0.4"/>
<path d="M95.3 37.9H37.3C36.3 37.9 35.5 37.1 35.5 36.1V16.6C35.5 15.6 36.3 14.8 37.3 14.8H95.3C96.3 14.8 97.1 15.6 97.1 16.6V36.1C97 37.2 96.2 37.9 95.3 37.9ZM39 34.4H93.5V18.4H39V34.4Z" fill="white"/>
<path d="M87.3 68.4H45.3C44.3 68.4 43.5 67.6 43.5 66.6C43.5 65.6 44.3 64.8 45.3 64.8H87.3C88.3 64.8 89.1 65.6 89.1 66.6C89 67.7 88.2 68.4 87.3 68.4Z" fill="white"/>
<path d="M92.8 78.4H39.8C38.8 78.4 38 77.6 38 76.6C38 75.6 38.8 74.8 39.8 74.8H92.8C93.8 74.8 94.6 75.6 94.6 76.6C94.5 77.7 93.7 78.4 92.8 78.4Z" fill="white"/>
<path d="M87.3 88.4H45.3C44.3 88.4 43.5 87.6 43.5 86.6C43.5 85.6 44.3 84.8 45.3 84.8H87.3C88.3 84.8 89.1 85.6 89.1 86.6C89 87.7 88.2 88.4 87.3 88.4Z" fill="white"/>
</svg>
