<svg width="120" height="120" viewBox="0 0 120 120" fill="none" xmlns="http://www.w3.org/2000/svg">
<path d="M80.1 90.1H38.8C37.8 90.1 37 89.3 37 88.3C37 87.3 37.8 86.5 38.8 86.5H80.1C81.1 86.5 81.9 87.3 81.9 88.3C81.9 89.3 81.1 90.1 80.1 90.1Z" fill="white"/>
<path d="M70.0999 36.7H48.7998C41.5998 36.7 35.7998 42.5 35.7998 49.7V55.4H83.0999V49.7C83.0999 42.5 77.2999 36.7 70.0999 36.7Z" fill="white" fill-opacity="0.4"/>
<path d="M45.2998 81.7V103.4C45.2998 106.7 47.9998 109.4 51.2998 109.4C54.5998 109.4 57.2998 106.7 57.2998 103.4V81.7H45.2998Z" fill="white" fill-opacity="0.4"/>
<path d="M61.5996 81.7V103.4C61.5996 106.7 64.2996 109.4 67.5996 109.4C70.8996 109.4 73.5996 106.7 73.5996 103.4V81.7H61.5996Z" fill="white" fill-opacity="0.4"/>
<path d="M110 57.4H9V64.6H110V57.4Z" fill="white" fill-opacity="0.4"/>
<path d="M110 81.9H9.00018C8.00018 81.9 7.2002 81.1 7.2002 80.1V57.4C7.2002 56.4 8.00018 55.6 9.00018 55.6C10.0002 55.6 10.8002 56.4 10.8002 57.4V78.3H108.3V57.4C108.3 56.4 109.1 55.6 110.1 55.6C111.1 55.6 111.9 56.4 111.9 57.4V80.1C111.7 81.1 111 81.9 110 81.9Z" fill="white"/>
<path d="M116.2 58.5H2.80002C1.80002 58.5 1 57.7 1 56.7C1 55.7 1.80002 54.9 2.80002 54.9H116.2C117.2 54.9 118 55.7 118 56.7C117.9 57.7 117.1 58.5 116.2 58.5Z" fill="white"/>
<path d="M14.5998 116.4C13.5998 116.4 12.7998 115.6 12.7998 114.6V81.1C12.7998 80.1 13.5998 79.3 14.5998 79.3C15.5998 79.3 16.3998 80.1 16.3998 81.1V114.6C16.3998 115.6 15.5998 116.4 14.5998 116.4Z" fill="white"/>
<path d="M104.3 116.4C103.3 116.4 102.5 115.6 102.5 114.6V81.1C102.5 80.1 103.3 79.3 104.3 79.3C105.3 79.3 106.1 80.1 106.1 81.1V114.6C106.1 115.6 105.3 116.4 104.3 116.4Z" fill="white"/>
<path d="M104.3 58.1C103.3 58.1 102.5 57.3 102.5 56.3V20.2C102.5 13.2 96.7995 7.5 89.7995 7.5C86.6995 7.5 83.5995 8.7 81.2995 10.8C80.5995 11.4 79.4995 11.4 78.7995 10.7C78.1995 10 78.1996 8.9 78.8996 8.2C81.8996 5.5 85.6996 4 89.6996 4C98.5996 4 105.9 11.3 105.9 20.2V56.4C106.1 57.4 105.3 58.1 104.3 58.1Z" fill="white"/>
<path d="M80.0999 25C79.5999 25 79.1998 24.8 78.8998 24.5L65.7998 11.4C65.4998 11.1 65.2998 10.6 65.2998 10.2C65.2998 9.69999 65.4998 9.29999 65.7998 8.99999C67.8998 6.89999 70.6999 5.79999 73.5999 5.79999C76.4999 5.79999 79.2998 6.89999 81.3998 8.99999C85.6998 13.3 85.6998 20.3 81.3998 24.6C80.9998 24.9 80.5999 25 80.0999 25ZM69.5999 10.3L79.9998 20.7C81.7998 17.8 81.3998 13.9 78.8998 11.4C77.4998 9.99999 75.5999 9.19999 73.5999 9.19999C72.0999 9.19999 70.7999 9.59999 69.5999 10.3Z" fill="white"/>
<path d="M59.5002 34.3C64.6364 34.3 68.8002 30.1363 68.8002 25C68.8002 19.8638 64.6364 15.7 59.5002 15.7C54.3639 15.7 50.2002 19.8638 50.2002 25C50.2002 30.1363 54.3639 34.3 59.5002 34.3Z" fill="white" fill-opacity="0.4"/>
<path d="M45.0002 57.8C44.0002 57.8 43.2002 57 43.2002 56V49.7C43.2002 48.7 44.0002 47.9 45.0002 47.9C46.0002 47.9 46.8002 48.7 46.8002 49.7V56C46.7002 57 45.9002 57.8 45.0002 57.8Z" fill="white"/>
<path d="M74.0002 57.8C73.0002 57.8 72.2002 57 72.2002 56V49.7C72.2002 48.7 73.0002 47.9 74.0002 47.9C75.0002 47.9 75.8002 48.7 75.8002 49.7V56C75.7002 57 74.9002 57.8 74.0002 57.8Z" fill="white"/>
<path d="M37.5999 116.4C36.5999 116.4 35.7998 115.6 35.7998 114.6V82.3C35.7998 81.3 36.5999 80.5 37.5999 80.5C38.5999 80.5 39.3998 81.3 39.3998 82.3V114.6C39.3998 115.6 38.5999 116.4 37.5999 116.4Z" fill="white"/>
<path d="M81.3 116.4C80.3 116.4 79.5 115.6 79.5 114.6V82.3C79.5 81.3 80.3 80.5 81.3 80.5C82.3 80.5 83.1 81.3 83.1 82.3V114.6C83.1 115.6 82.3 116.4 81.3 116.4Z" fill="white"/>
</svg>
