<svg width="120" height="120" viewBox="0 0 120 120" fill="none" xmlns="http://www.w3.org/2000/svg">
<path d="M117.2 9.79999H3.80005V21.1H117.2V9.79999Z" fill="white" fill-opacity="0.4"/>
<path d="M117.1 100.9H3.8C2.8 100.9 2 100.1 2 99.1V9.8C2 8.8 2.8 8 3.8 8H117.2C118.2 8 119 8.8 119 9.8V99.1C118.9 100.1 118.1 100.9 117.1 100.9ZM5.5 97.4H115.4V11.6H5.5V97.4Z" fill="white"/>
<path d="M10.8 18.5C11.9046 18.5 12.8 17.6046 12.8 16.5C12.8 15.3954 11.9046 14.5 10.8 14.5C9.69548 14.5 8.80005 15.3954 8.80005 16.5C8.80005 17.6046 9.69548 18.5 10.8 18.5Z" fill="white"/>
<path d="M17.4001 18.5C18.5047 18.5 19.4001 17.6046 19.4001 16.5C19.4001 15.3954 18.5047 14.5 17.4001 14.5C16.2956 14.5 15.4001 15.3954 15.4001 16.5C15.4001 17.6046 16.2956 18.5 17.4001 18.5Z" fill="white"/>
<path d="M24.1001 18.5C25.2047 18.5 26.1001 17.6046 26.1001 16.5C26.1001 15.3954 25.2047 14.5 24.1001 14.5C22.9955 14.5 22.1001 15.3954 22.1001 16.5C22.1001 17.6046 22.9955 18.5 24.1001 18.5Z" fill="white"/>
<path d="M105.5 30.5H68.7V71.7H105.5V30.5Z" fill="white" fill-opacity="0.4"/>
<path d="M98.4999 42.2H75.6999C74.6999 42.2 73.8999 41.4 73.8999 40.4C73.8999 39.4 74.6999 38.6 75.6999 38.6H98.4999C99.4999 38.6 100.3 39.4 100.3 40.4C100.3 41.4 99.4999 42.2 98.4999 42.2Z" fill="white"/>
<path d="M98.4999 52.9H75.6999C74.6999 52.9 73.8999 52.1 73.8999 51.1C73.8999 50.1 74.6999 49.3 75.6999 49.3H98.4999C99.4999 49.3 100.3 50.1 100.3 51.1C100.3 52.1 99.4999 52.9 98.4999 52.9Z" fill="white"/>
<path d="M98.4999 63.6H75.6999C74.6999 63.6 73.8999 62.8 73.8999 61.8C73.8999 60.8 74.6999 60 75.6999 60H98.4999C99.4999 60 100.3 60.8 100.3 61.8C100.3 62.8 99.4999 63.6 98.4999 63.6Z" fill="white"/>
<path d="M38.2 56.8C38 56.8 37.7 56.8 37.5 56.7L14.8 47C14.2 46.7 13.7 46.1 13.7 45.4C13.7 44.7 14.1 44.1 14.8 43.8L37.5 34.2C37.9 34 38.4 34 38.9 34.2L61.5999 43.8C62.1999 44.1 62.7 44.7 62.7 45.4C62.7 46.1 62.2999 46.7 61.5999 47L38.9 56.6C38.7 56.7 38.4 56.8 38.2 56.8ZM20 45.4L38.2 53.1L56.4 45.4L38.2 37.7L20 45.4Z" fill="white"/>
<path d="M38.2 68.8999C32.9 68.8999 27.9 67.9 23.6 66.1C23 65.8 22.5 65.2 22.5 64.5V50C22.5 49 23.3 48.2 24.3 48.2C25.3 48.2 26.1 49 26.1 50V63.3999C29.7 64.7999 33.9 65.5 38.2 65.5C42.6 65.5 46.7 64.7999 50.3 63.3999V50C50.3 49 51.1 48.2 52.1 48.2C53.1 48.2 53.9 49 53.9 50V64.5C53.9 65.2 53.5 65.8 52.8 66.1C48.5 67.9 43.5 68.8999 38.2 68.8999Z" fill="white"/>
<path d="M58.6 66.2C57.6 66.2 56.8 65.4 56.8 64.4V47.4C56.8 46.4 57.6 45.6 58.6 45.6C59.6 45.6 60.4001 46.4 60.4001 47.4V64.4C60.4001 65.4 59.6 66.2 58.6 66.2Z" fill="white"/>
<path d="M90.4 104.9L79 93.4L86.2 86.2L58 78.6L65.6 106.8L72.8 99.6L84.3 111L90.4 104.9Z" fill="white" fill-opacity="0.4"/>
<path d="M84.3 112.8C83.9 112.8 83.4 112.6 83.1 112.3L72.8 102L66.8 108C66.4 108.4 65.7 108.6 65.1 108.5C64.5 108.3 64 107.9 63.9 107.3L56.3 79C56.1 78.4 56.3 77.7 56.8 77.3C57.2 76.9 57.9 76.7 58.5 76.8L86.7 84.4C87.3 84.6 87.8 85 87.9 85.6C88.1 86.2 87.9 86.8 87.4 87.3L81.4 93.3L91.6 103.5C91.9 103.8 92.1 104.3 92.1 104.7C92.1 105.2 91.9 105.6 91.6 105.9L85.4 112.1C85.2 112.6 84.7 112.8 84.3 112.8ZM72.8 97.8C73.2 97.8 73.7 98 74 98.3L84.2 108.5L87.9 104.8L77.7 94.6C77.4 94.3 77.2 93.8 77.2 93.4C77.2 92.9 77.4 92.5 77.7 92.2L82.8 87.1L60.4 81.1L66.4 103.5L71.5 98.4C71.9 98 72.3 97.8 72.8 97.8Z" fill="white"/>
</svg>
