<svg width="120" height="120" viewBox="0 0 120 120" fill="none" xmlns="http://www.w3.org/2000/svg">
<path d="M103.6 46.25H18V104.45H103.6V46.25Z" fill="white" fill-opacity="0.4"/>
<path d="M110.7 106.15C109.7 106.15 108.9 105.35 108.9 104.35V43.05C108.9 39.15 105.8 36.05 101.9 36.05H19.4999C15.5999 36.05 12.4999 39.15 12.4999 43.05V104.35C12.4999 105.35 11.6999 106.15 10.6999 106.15C9.69992 106.15 8.8999 105.35 8.8999 104.35V43.05C8.8999 37.25 13.5999 32.55 19.3999 32.55H102C107.8 32.55 112.5 37.25 112.5 43.05V104.35C112.5 105.35 111.7 106.15 110.7 106.15Z" fill="white"/>
<path d="M106.2 118.75H15.5C9.7 118.75 5 114.05 5 108.25V104.65C5 103.65 5.79999 102.85 6.79999 102.85H115C116 102.85 116.8 103.65 116.8 104.65V108.25C116.6 114.05 111.9 118.75 106.2 118.75ZM8.39999 106.45V108.25C8.39999 112.15 11.5 115.25 15.4 115.25H106.1C110 115.25 113.1 112.15 113.1 108.25V106.45H8.39999Z" fill="white"/>
<path d="M60.8001 31.65C60.6001 31.65 60.3001 31.65 60.1001 31.55L29.2001 18.45C28.6001 18.15 28.1001 17.55 28.1001 16.85C28.1001 16.15 28.5001 15.55 29.2001 15.25L60.1001 2.15C60.5001 1.95 61.0001 1.95 61.5001 2.15L92.4001 15.25C93.0001 15.55 93.5001 16.15 93.5001 16.85C93.5001 17.55 93.1001 18.15 92.4001 18.45L61.5001 31.55C61.2001 31.55 61.0001 31.65 60.8001 31.65ZM34.4001 16.75L60.8001 27.95L87.2001 16.75L60.8001 5.55002L34.4001 16.75Z" fill="white"/>
<path d="M60.8004 29.85L41.9004 21.85V38.45C47.2004 40.75 53.7004 42.05 60.8004 42.05C67.9004 42.05 74.4004 40.75 79.7004 38.45V21.85L60.8004 29.85Z" fill="white" fill-opacity="0.4"/>
<path d="M60.8001 43.85C53.7001 43.85 46.9001 42.55 41.2001 40.05C40.6001 39.75 40.1001 39.15 40.1001 38.45V21.85C40.1001 21.25 40.4001 20.75 40.9001 20.35C41.4001 20.05 42.0001 19.95 42.6001 20.15L60.8001 27.85L79.0001 20.15C79.5001 19.95 80.2001 19.95 80.7001 20.35C81.2001 20.65 81.5001 21.25 81.5001 21.85V38.45C81.5001 39.15 81.1001 39.75 80.4001 40.05C74.7001 42.55 67.9001 43.85 60.8001 43.85ZM43.6001 37.25C48.7001 39.25 54.6001 40.25 60.7001 40.25C66.9001 40.25 72.8001 39.15 77.8001 37.25V24.45L61.3001 31.45C60.9001 31.65 60.4001 31.65 59.9001 31.45L43.4001 24.45V37.25H43.6001Z" fill="white"/>
<path d="M85.5002 35.15C84.5002 35.15 83.7002 34.35 83.7002 33.35V20.45C83.7002 19.45 84.5002 18.65 85.5002 18.65C86.5002 18.65 87.3002 19.45 87.3002 20.45V33.35C87.3002 34.35 86.5002 35.15 85.5002 35.15Z" fill="white"/>
<path d="M26.4999 92.05C25.9999 92.05 25.5999 91.85 25.2999 91.55C24.5999 90.85 24.5999 89.75 25.2999 89.05L33.7999 80.65C34.4999 79.95 35.5999 79.95 36.2999 80.65L44.7999 89.05C45.4999 89.75 45.4999 90.85 44.7999 91.55C44.0999 92.25 42.9999 92.25 42.2999 91.55L34.9999 84.35L27.6999 91.55C27.3999 91.85 26.8999 92.05 26.4999 92.05Z" fill="white"/>
<path d="M34.9997 104.85C33.9997 104.85 33.1997 104.05 33.1997 103.05V83.55C33.1997 82.55 33.9997 81.75 34.9997 81.75C35.9997 81.75 36.7997 82.55 36.7997 83.55V103.05C36.7997 104.05 35.9997 104.85 34.9997 104.85Z" fill="white"/>
<path d="M69.3001 76.45C68.9001 76.45 68.4001 76.25 68.1001 75.95L60.8001 68.65L53.5001 75.95C52.8001 76.65 51.7001 76.65 51.0001 75.95C50.3001 75.25 50.3001 74.15 51.0001 73.45L59.5001 64.95C60.2001 64.25 61.3001 64.25 62.0001 64.95L70.5001 73.45C71.2001 74.15 71.2001 75.25 70.5001 75.95C70.2001 76.35 69.8001 76.45 69.3001 76.45Z" fill="white"/>
<path d="M60.8 104.85C59.8 104.85 59 104.05 59 103.05V67.85C59 66.85 59.8 66.05 60.8 66.05C61.8 66.05 62.6 66.85 62.6 67.85V103.05C62.5 104.05 61.7 104.85 60.8 104.85Z" fill="white"/>
<path d="M77.9999 63.15C77.5999 63.15 77.0999 62.95 76.7999 62.65C76.0999 61.95 76.0999 60.85 76.7999 60.15L85.2999 51.65C85.5999 51.35 86.0999 51.15 86.4999 51.15C86.9999 51.15 87.3999 51.35 87.6999 51.65L96.1999 60.15C96.8999 60.85 96.8999 61.95 96.1999 62.65C95.4999 63.35 94.3999 63.35 93.6999 62.65L86.3999 55.35L79.0999 62.65C78.8999 62.95 78.4999 63.15 77.9999 63.15Z" fill="white"/>
<path d="M86.5998 104.85C85.5998 104.85 84.7998 104.05 84.7998 103.05V54.45C84.7998 53.45 85.5998 52.65 86.5998 52.65C87.5998 52.65 88.3998 53.45 88.3998 54.45V103.05C88.2998 104.05 87.4998 104.85 86.5998 104.85Z" fill="white"/>
</svg>
