<svg width="120" height="120" viewBox="0 0 120 120" fill="none" xmlns="http://www.w3.org/2000/svg">
<path d="M65.3 110C64.3 110 63.5 109.2 63.5 108.2C63.5 107.2 64.3 106.4 65.3 106.4C88.5 106.4 98 88.1 98.4 87.4C98.8 86.5 99.9 86.2 100.7 86.6C101.6 87 101.9 88.1 101.5 88.9C101.2 89.9 90.8 110 65.3 110Z" fill="white"/>
<path d="M63.3 114.2C67.3317 114.2 70.6 110.932 70.6 106.9C70.6 102.868 67.3317 99.6 63.3 99.6C59.2683 99.6 56 102.868 56 106.9C56 110.932 59.2683 114.2 63.3 114.2Z" fill="white" fill-opacity="0.4"/>
<path d="M63.3002 116C58.3002 116 54.2002 111.9 54.2002 106.9C54.2002 101.9 58.3002 97.8 63.3002 97.8C68.3002 97.8 72.4002 101.9 72.4002 106.9C72.4002 111.9 68.4002 116 63.3002 116ZM63.3002 101.3C60.2002 101.3 57.7002 103.8 57.7002 106.9C57.7002 110 60.2002 112.5 63.3002 112.5C66.4002 112.5 68.9002 110 68.9002 106.9C68.9002 103.8 66.4002 101.3 63.3002 101.3Z" fill="white"/>
<path d="M100.7 59.3C99.6999 59.3 98.8999 58.5 98.8999 57.5V48.4C98.8999 28.4 82.6999 12.2 62.6999 12.2H56.0999C36.0999 12.2 19.8999 28.4 19.8999 48.4V57.5C19.8999 58.5 19.0999 59.3 18.0999 59.3C17.0999 59.3 16.3999 58.5 16.3999 57.5V48.4C16.3999 26.5 34.1999 8.70001 56.0999 8.70001H62.6999C84.5999 8.70001 102.4 26.5 102.4 48.4V57.5C102.5 58.6 101.7 59.3 100.7 59.3Z" fill="white"/>
<path d="M87.3 24.3C86.2 24.3 85.1 23.9 84.3 23.2C78.3 18.1 70.6 15.3 62.8 15.3H56.2C48.3 15.3 40.7 18.1 34.7 23.2C32.7 24.9 29.8 24.6 28.1 22.7C26.4 20.7 26.7 17.8 28.6 16.1C36.3 9.50004 46.1 5.90002 56.2 5.90002H62.8C72.9 5.90002 82.7 9.50004 90.4 16.1C92.4 17.8 92.6 20.7 90.9 22.7C90 23.7 88.7 24.3 87.3 24.3Z" fill="white" fill-opacity="0.4"/>
<path d="M87.2999 26C85.7999 26 84.2999 25.5 83.0999 24.5C77.3999 19.7 70.1999 17 62.6999 17H56.0999C48.5999 17 41.3999 19.7 35.6999 24.5C34.4999 25.5 33.0999 26 31.4999 26C29.5999 26 27.7999 25.2 26.5999 23.7C24.2999 21 24.5999 16.9 27.2999 14.6C35.2999 7.80001 45.4999 4 56.0999 4H62.6999C73.1999 4 83.3999 7.80001 91.4999 14.6C92.7999 15.7 93.5999 17.3 93.6999 19C93.7999 20.7 93.2999 22.4 92.1999 23.7C90.9999 25.2 89.1999 26 87.2999 26ZM56.0999 13.5H62.6999C70.9999 13.5 79.0999 16.5 85.3999 21.8C86.5999 22.8 88.4999 22.7 89.4999 21.5C89.9999 20.9 90.2999 20.1 90.1999 19.4C90.0999 18.6 89.7999 17.9 89.1999 17.4C81.7999 11.1 72.3999 7.70001 62.6999 7.70001H56.0999C46.3999 7.70001 36.9999 11.2 29.5999 17.4C28.3999 18.4 28.1999 20.3 29.2999 21.5C30.2999 22.7 32.2999 22.8 33.3999 21.8C39.7999 16.4 47.7999 13.5 56.0999 13.5Z" fill="white"/>
<path d="M11.9 87.8C5.9 87.8 1 82.9 1 76.9V59.9C1 53.9 5.9 49 11.9 49C17.9 49 22.8 53.9 22.8 59.9V76.9C22.8 82.9 17.9 87.8 11.9 87.8ZM11.9 52.6C7.8 52.6 4.5 55.9 4.5 60V77C4.5 81.1 7.8 84.4 11.9 84.4C16 84.4 19.3 81.1 19.3 77V60C19.3 55.9 16 52.6 11.9 52.6Z" fill="white"/>
<path d="M25.1001 82.7C25.1001 86.3 22.2001 89.2 18.6001 89.2C15.0001 89.2 12.1001 86.3 12.1001 82.7V54.1C12.1001 50.5 15.0001 47.6 18.6001 47.6C22.2001 47.6 25.1001 50.5 25.1001 54.1V82.7Z" fill="white" fill-opacity="0.4"/>
<path d="M18.5999 91C14.0999 91 10.3999 87.3 10.3999 82.8V54.2C10.3999 49.7 14.0999 46 18.5999 46C23.0999 46 26.7999 49.7 26.7999 54.2V82.8C26.7999 87.3 23.0999 91 18.5999 91ZM18.5999 49.4C15.9999 49.4 13.8999 51.5 13.8999 54.1V82.7C13.8999 85.3 15.9999 87.4 18.5999 87.4C21.1999 87.4 23.2999 85.3 23.2999 82.7V54.1C23.2999 51.6 21.1999 49.4 18.5999 49.4Z" fill="white"/>
<path d="M107 87.8C101 87.8 96.1001 82.9 96.1001 76.9V59.9C96.1001 53.9 101 49 107 49C113 49 117.9 53.9 117.9 59.9V76.9C117.9 82.9 113 87.8 107 87.8ZM107 52.6C102.9 52.6 99.6001 55.9 99.6001 60V77C99.6001 81.1 102.9 84.4 107 84.4C111.1 84.4 114.4 81.1 114.4 77V60C114.4 55.9 111.1 52.6 107 52.6Z" fill="white"/>
<path d="M93.8003 54.2C93.8003 50.6 96.7003 47.7 100.3 47.7C103.9 47.7 106.8 50.6 106.8 54.2V82.8C106.8 86.4 103.9 89.3 100.3 89.3C96.7003 89.3 93.8003 86.4 93.8003 82.8V54.2Z" fill="white" fill-opacity="0.4"/>
<path d="M100.3 91C95.8001 91 92.1001 87.3 92.1001 82.8V54.2C92.1001 49.7 95.8001 46 100.3 46C104.8 46 108.5 49.7 108.5 54.2V82.8C108.5 87.3 104.8 91 100.3 91ZM100.3 49.4C97.7001 49.4 95.6001 51.5 95.6001 54.1V82.7C95.6001 85.3 97.7001 87.4 100.3 87.4C102.9 87.4 105 85.3 105 82.7V54.1C105 51.6 102.9 49.4 100.3 49.4Z" fill="white"/>
<path d="M52.8 50.4H34V84.3H59.4V57.1C59.4 53.4 56.5 50.4 52.8 50.4Z" fill="white" fill-opacity="0.4"/>
<path d="M59.4002 86H34.0002C33.0002 86 32.2002 85.2 32.2002 84.2V50.3C32.2002 49.3 33.0002 48.5 34.0002 48.5H52.7002C57.4002 48.5 61.1002 52.3 61.1002 56.9V84.1C61.2002 85.2 60.4002 86 59.4002 86ZM35.8002 82.5H57.7002V57.1C57.7002 54.4 55.5002 52.2 52.8002 52.2H35.8002V82.5Z" fill="white"/>
<path d="M66.0999 50.4H84.7999V84.3H59.3999V57.1C59.3999 53.4 62.3999 50.4 66.0999 50.4Z" fill="white" fill-opacity="0.4"/>
<path d="M84.9001 86H59.4001C58.4001 86 57.6001 85.2 57.6001 84.2V57C57.6001 52.3 61.4001 48.6 66.0001 48.6H84.7001C85.7001 48.6 86.5001 49.4 86.5001 50.4V84.3C86.6001 85.2 85.9001 86 84.9001 86ZM61.2001 82.5H83.1001V52.1H66.1001C63.4001 52.1 61.2001 54.3 61.2001 57V82.5V82.5Z" fill="white"/>
</svg>
