<svg width="120" height="120" viewBox="0 0 120 120" fill="none" xmlns="http://www.w3.org/2000/svg">
<path d="M60.2783 108.4C86.788 108.4 108.278 86.9097 108.278 60.4C108.278 33.8904 86.788 12.4 60.2783 12.4C33.7687 12.4 12.2783 33.8904 12.2783 60.4C12.2783 86.9097 33.7687 108.4 60.2783 108.4Z" fill="white" fill-opacity="0.4"/>
<path d="M60.2788 76.9C57.7788 76.9 55.6788 74.9 55.6788 72.3V64.5C55.6788 62 57.6788 59.9 60.2788 59.9C67.0788 59.9 72.5788 54.4 72.5788 47.6C72.5788 40.8 67.0788 35.3 60.2788 35.3C53.4788 35.3 47.9788 40.8 47.9788 47.6C47.9788 50.1 45.9788 52.2 43.3788 52.2C40.8788 52.2 38.7788 50.2 38.7788 47.6C38.7788 35.8 48.3788 26.2 60.1788 26.2C71.9788 26.2 81.5788 35.8 81.5788 47.6C81.5788 57.8 74.3788 66.4 64.6788 68.5V72.2C64.8788 74.9 62.8788 76.9 60.2788 76.9Z" fill="white" fill-opacity="0.4"/>
<path d="M60.2787 78.6C56.7787 78.6 53.9787 75.8 53.9787 72.3V64.5C53.9787 61 56.7787 58.2 60.2787 58.2C66.0787 58.2 70.7787 53.5 70.7787 47.7C70.7787 41.9 66.0787 37.2 60.2787 37.2C54.4787 37.2 49.7787 41.9 49.7787 47.7C49.7787 51.2 46.9787 54 43.4787 54C39.9787 54 37.1787 51.2 37.1787 47.7C37.1787 34.9 47.5787 24.5 60.3787 24.5C73.1787 24.5 83.5787 34.9 83.5787 47.7C83.5787 58 76.5787 67.2 66.6787 70V72.3C66.6787 75.8 63.7787 78.6 60.2787 78.6ZM60.2787 33.6C67.9787 33.6 74.2787 39.9 74.2787 47.6C74.2787 55.3 67.9787 61.6 60.2787 61.6C58.6787 61.6 57.4787 62.9 57.4787 64.4V72.2C57.4787 73.8 58.7787 75 60.2787 75C61.7787 75 63.0787 73.7 63.0787 72.2V68.5C63.0787 67.7 63.6787 67 64.4787 66.8C73.4787 64.8 79.9787 56.8 79.9787 47.6C79.9787 36.7 71.1787 27.9 60.2787 27.9C49.4787 27.9 40.5787 36.7 40.5787 47.6C40.5787 49.2 41.8787 50.4 43.3787 50.4C44.8787 50.4 46.1787 49.1 46.1787 47.6C46.2787 39.9 52.5787 33.6 60.2787 33.6Z" fill="white"/>
<path d="M66.0787 88.9C66.0787 85.7 63.4787 83.2 60.3787 83.2C57.2787 83.2 54.6787 85.8 54.6787 88.9C54.6787 92.1 57.2787 94.6 60.3787 94.6C63.4787 94.6 66.0787 92 66.0787 88.9Z" fill="white" fill-opacity="0.4"/>
<path d="M60.2788 96.4C56.1788 96.4 52.7788 93.1 52.7788 88.9C52.7788 84.8 56.0788 81.4 60.2788 81.4C64.3788 81.4 67.7788 84.7 67.7788 88.9C67.7788 93 64.4788 96.4 60.2788 96.4ZM60.2788 84.9C58.0788 84.9 56.2788 86.7 56.2788 88.9C56.2788 91.1 58.0788 92.9 60.2788 92.9C62.4788 92.9 64.2788 91.1 64.2788 88.9C64.2788 86.7 62.4788 84.9 60.2788 84.9Z" fill="white"/>
<path d="M3.67844 118.9C3.17844 118.9 2.77843 118.7 2.47843 118.4C2.07843 118 1.87847 117.3 2.07847 116.7L9.77848 89.5C4.67848 80.7 2.07847 70.6 2.07847 60.4C2.07847 28.2 28.2784 2 60.4784 2C92.6784 2 118.878 28.2 118.878 60.4C118.878 92.6 92.6784 118.8 60.4784 118.8C50.2784 118.8 40.2785 116.1 31.3785 111.1L4.17844 118.8C3.97844 118.9 3.77844 118.9 3.67844 118.9ZM31.4784 107.5C31.7784 107.5 32.0785 107.6 32.3785 107.7C40.7785 112.7 50.4785 115.3 60.2785 115.3C90.5785 115.3 115.178 90.7 115.178 60.4C115.178 30.1 90.5785 5.5 60.2785 5.5C29.9785 5.5 5.37846 30.1 5.37846 60.4C5.37846 70.2 7.97843 79.9 12.9784 88.3C13.1784 88.7 13.2784 89.2 13.1784 89.7L6.17844 114.6L31.0785 107.6C31.1785 107.5 31.3784 107.5 31.4784 107.5Z" fill="white"/>
<path d="M89.2787 91.1C88.8787 91.1 88.3787 90.9 88.0787 90.6C87.3787 89.9 87.3787 88.8 88.0787 88.1C95.4787 80.7 99.5787 70.9 99.5787 60.4C99.5787 49.9 95.4787 40.1 88.0787 32.7C87.3787 32 87.3787 30.9 88.0787 30.2C88.7787 29.5 89.8787 29.5 90.5787 30.2C98.6787 38.3 103.079 49 103.079 60.4C103.079 71.8 98.6787 82.5 90.5787 90.6C90.1787 90.9 89.6787 91.1 89.2787 91.1Z" fill="white"/>
<path d="M31.3787 91.1C30.9787 91.1 30.4787 90.9 30.1787 90.6C22.0787 82.5 17.6787 71.8 17.6787 60.4C17.6787 49 22.0787 38.3 30.1787 30.2C30.8787 29.5 31.9787 29.5 32.6787 30.2C33.3787 30.9 33.3787 32 32.6787 32.7C25.2787 40.1 21.1787 49.9 21.1787 60.4C21.1787 70.9 25.2787 80.7 32.6787 88.1C33.3787 88.8 33.3787 89.9 32.6787 90.6C32.2787 90.9 31.8787 91.1 31.3787 91.1Z" fill="white"/>
</svg>
