<svg width="120" height="120" viewBox="0 0 120 120" fill="none" xmlns="http://www.w3.org/2000/svg">
<path d="M58.6 118.9H13.7C7.19995 118.9 2 113.6 2 107.2V13.7C2 7.20001 7.29995 2 13.7 2H58.6C65.1 2 70.3 7.30001 70.3 13.7V22.2C70.3 23.2 69.5 24 68.5 24C67.5 24 66.7 23.2 66.7 22.2V13.7C66.7 9.20001 63 5.5 58.5 5.5H13.6C9.09998 5.5 5.39996 9.20001 5.39996 13.7V98.6H68.4C69.4 98.6 70.2 99.4 70.2 100.4V107.3C70.3 113.6 65.1 118.9 58.6 118.9ZM5.5 102.1V107.2C5.5 111.7 9.19995 115.4 13.7 115.4H58.6C63.1 115.4 66.8 111.7 66.8 107.2V102.1H5.5Z" fill="white"/>
<path d="M36.2001 114.1C33.4001 114.1 31.1001 111.8 31.1001 109C31.1001 106.2 33.4001 103.9 36.2001 103.9C39.0001 103.9 41.3001 106.2 41.3001 109C41.3001 111.8 39.0001 114.1 36.2001 114.1ZM36.2001 107.4C35.3001 107.4 34.6001 108.1 34.6001 109C34.6001 109.9 35.3001 110.6 36.2001 110.6C37.1001 110.6 37.8001 109.9 37.8001 109C37.8001 108.1 37.0001 107.4 36.2001 107.4Z" fill="white"/>
<path d="M41.5 12.4H30.8C29.8 12.4 29 11.6 29 10.6C29 9.60001 29.8 8.79999 30.8 8.79999H41.5C42.5 8.79999 43.3 9.60001 43.3 10.6C43.3 11.6 42.5 12.4 41.5 12.4Z" fill="white"/>
<path d="M116.3 92.1H15.9001C14.9001 92.1 14.1001 91.3 14.1001 90.3V33.6C14.1001 32.6 14.9001 31.8 15.9001 31.8C16.9001 31.8 17.7001 32.6 17.7001 33.6V88.5H114.6V33.6C114.6 32.6 115.4 31.8 116.4 31.8C117.4 31.8 118.2 32.6 118.2 33.6V90.3C118.1 91.3 117.3 92.1 116.3 92.1Z" fill="white"/>
<path d="M54.8999 26.7H23.3999V83.6H66.1999V38C66.0999 31.8 61.0999 26.7 54.8999 26.7Z" fill="white" fill-opacity="0.4"/>
<path d="M77.4001 26.7H108.9V83.6H66.1001V38C66.1001 31.8 71.2001 26.7 77.4001 26.7Z" fill="white" fill-opacity="0.4"/>
<path d="M56.1998 42.2H32.5998C31.5998 42.2 30.7998 41.4 30.7998 40.4C30.7998 39.4 31.5998 38.6 32.5998 38.6H56.1998C57.1998 38.6 57.9998 39.4 57.9998 40.4C57.9998 41.4 57.1998 42.2 56.1998 42.2Z" fill="white"/>
<path d="M56.1998 50.7H32.5998C31.5998 50.7 30.7998 49.9 30.7998 48.9C30.7998 47.9 31.5998 47.1 32.5998 47.1H56.1998C57.1998 47.1 57.9998 47.9 57.9998 48.9C57.9998 49.9 57.1998 50.7 56.1998 50.7Z" fill="white"/>
<path d="M56.1998 59.2H32.5998C31.5998 59.2 30.7998 58.4 30.7998 57.4C30.7998 56.4 31.5998 55.6 32.5998 55.6H56.1998C57.1998 55.6 57.9998 56.4 57.9998 57.4C57.9998 58.4 57.1998 59.2 56.1998 59.2Z" fill="white"/>
<path d="M56.1998 67.7999H32.5998C31.5998 67.7999 30.7998 66.9999 30.7998 65.9999C30.7998 64.9999 31.5998 64.2 32.5998 64.2H56.1998C57.1998 64.2 57.9998 64.9999 57.9998 65.9999C57.9998 66.9999 57.1998 67.7999 56.1998 67.7999Z" fill="white"/>
<path d="M56.1998 76.2999H32.5998C31.5998 76.2999 30.7998 75.4999 30.7998 74.4999C30.7998 73.4999 31.5998 72.7 32.5998 72.7H56.1998C57.1998 72.7 57.9998 73.4999 57.9998 74.4999C57.9998 75.4999 57.1998 76.2999 56.1998 76.2999Z" fill="white"/>
<path d="M99.6998 42.2H76.0998C75.0998 42.2 74.2998 41.4 74.2998 40.4C74.2998 39.4 75.0998 38.6 76.0998 38.6H99.6998C100.7 38.6 101.5 39.4 101.5 40.4C101.5 41.4 100.6 42.2 99.6998 42.2Z" fill="white"/>
<path d="M99.6998 50.7H76.0998C75.0998 50.7 74.2998 49.9 74.2998 48.9C74.2998 47.9 75.0998 47.1 76.0998 47.1H99.6998C100.7 47.1 101.5 47.9 101.5 48.9C101.5 49.9 100.6 50.7 99.6998 50.7Z" fill="white"/>
<path d="M99.6998 59.2H76.0998C75.0998 59.2 74.2998 58.4 74.2998 57.4C74.2998 56.4 75.0998 55.6 76.0998 55.6H99.6998C100.7 55.6 101.5 56.4 101.5 57.4C101.5 58.4 100.6 59.2 99.6998 59.2Z" fill="white"/>
<path d="M99.6998 67.7999H76.0998C75.0998 67.7999 74.2998 66.9999 74.2998 65.9999C74.2998 64.9999 75.0998 64.2 76.0998 64.2H99.6998C100.7 64.2 101.5 64.9999 101.5 65.9999C101.5 66.9999 100.6 67.7999 99.6998 67.7999Z" fill="white"/>
<path d="M99.6998 76.2999H76.0998C75.0998 76.2999 74.2998 75.4999 74.2998 74.4999C74.2998 73.4999 75.0998 72.7 76.0998 72.7H99.6998C100.7 72.7 101.5 73.4999 101.5 74.4999C101.5 75.4999 100.6 76.2999 99.6998 76.2999Z" fill="white"/>
<path d="M68.5998 101.1C67.5998 101.1 66.7998 100.3 66.7998 99.3V91.4C66.7998 90.4 67.5998 89.6 68.5998 89.6C69.5998 89.6 70.3998 90.4 70.3998 91.4V99.3C70.2998 100.3 69.4998 101.1 68.5998 101.1Z" fill="white"/>
</svg>
