<svg width="120" height="120" viewBox="0 0 120 120" fill="none" xmlns="http://www.w3.org/2000/svg">
<path d="M28.3998 15.025C27.9998 15.025 27.4998 14.825 27.1998 14.525L17.6998 5.025C16.9998 4.325 16.9998 3.225 17.6998 2.525C18.3998 1.825 19.4998 1.825 20.1998 2.525L29.6998 12.025C30.3998 12.725 30.3998 13.825 29.6998 14.525C29.2998 14.825 28.8998 15.025 28.3998 15.025Z" fill="white"/>
<path d="M111.5 98.025C111.1 98.025 110.6 97.825 110.3 97.525L100.8 88.025C100.1 87.325 100.1 86.225 100.8 85.525C101.5 84.825 102.6 84.825 103.3 85.525L112.8 95.025C113.5 95.725 113.5 96.825 112.8 97.525C112.4 97.925 111.9 98.025 111.5 98.025Z" fill="white"/>
<path d="M96.7003 18.525C79.3003 1.12501 51.1003 1.12501 33.6003 18.525C16.2003 35.925 16.2003 64.225 33.6003 81.625C51.0003 99.025 79.3003 99.025 96.7003 81.625C114.1 64.125 114.1 35.925 96.7003 18.525Z" fill="white" fill-opacity="0.4"/>
<path d="M65.2002 96.325C52.8002 96.325 41.2002 91.525 32.4002 82.725C14.3002 64.625 14.3002 35.225 32.4002 17.225C41.2002 8.42501 52.8002 3.625 65.2002 3.625C77.6002 3.625 89.2002 8.42501 98.0002 17.225C116.1 35.325 116.1 64.725 98.0002 82.725C89.2002 91.525 77.6002 96.325 65.2002 96.325ZM65.2002 7.125C53.8002 7.125 43.0002 11.625 34.9002 19.625C18.2002 36.325 18.2002 63.525 34.9002 80.225C43.0002 88.325 53.8002 92.725 65.2002 92.725C76.6002 92.725 87.4002 88.225 95.5002 80.225C112.2 63.525 112.2 36.325 95.5002 19.625C87.4002 11.625 76.6002 7.125 65.2002 7.125Z" fill="white"/>
<path d="M21.4001 52.525C20.4001 52.525 19.6001 51.725 19.6001 50.725C19.6001 49.725 20.4001 48.925 21.4001 48.925C32.8001 48.925 43.6001 44.425 51.7001 36.425C59.8001 28.325 64.2001 17.525 64.2001 6.125C64.2001 5.125 65.0001 4.32501 65.9001 4.32501C66.9001 4.32501 67.7001 5.125 67.7001 6.125C67.7001 18.525 62.9001 30.125 54.1001 38.925C45.4001 47.725 33.8001 52.525 21.4001 52.525Z" fill="white"/>
<path d="M64.4001 95.525C63.4001 95.525 62.6001 94.725 62.6001 93.725C62.6001 68.125 83.4001 47.425 108.9 47.425C109.9 47.425 110.7 48.225 110.7 49.225C110.7 50.225 109.9 51.025 108.9 51.025C85.3001 51.025 66.1001 70.225 66.1001 93.825C66.2001 94.825 65.4001 95.525 64.4001 95.525Z" fill="white"/>
<path d="M96.0003 82.525C95.6003 82.525 95.1003 82.325 94.8003 82.025L33.2003 20.425C32.5003 19.725 32.5003 18.625 33.2003 17.925C33.9003 17.225 35.0003 17.225 35.7003 17.925L97.3003 79.525C98.0003 80.225 98.0003 81.325 97.3003 82.025C96.9003 82.325 96.4003 82.525 96.0003 82.525Z" fill="white"/>
<path d="M34.4003 82.525C34.0003 82.525 33.5003 82.325 33.2003 82.025C32.5003 81.325 32.5003 80.225 33.2003 79.525L94.7003 18.025C95.4003 17.325 96.5003 17.325 97.2003 18.025C97.9003 18.725 97.9003 19.825 97.2003 20.525L35.7003 82.025C35.3003 82.325 34.9003 82.525 34.4003 82.525Z" fill="white"/>
<path d="M85.5004 87.325C74.1004 87.325 59.5004 79.825 47.4004 67.725C38.8004 59.125 32.4004 49.225 29.5004 39.925C26.5004 30.225 27.5004 22.125 32.4004 17.225C35.4004 14.225 39.7004 12.625 44.9004 12.625C56.3004 12.625 70.9004 20.125 83.0004 32.225C101.4 50.625 108 72.825 98.0004 82.725C95.0004 85.825 90.7004 87.325 85.5004 87.325ZM44.9004 16.125C40.6004 16.125 37.3004 17.325 34.9004 19.725C31.0004 23.625 30.3004 30.425 32.9004 38.825C35.7004 47.625 41.7004 57.025 49.9004 65.225C61.4004 76.725 75.0004 83.825 85.5004 83.825C89.8004 83.825 93.1004 82.625 95.5004 80.225C103.8 71.925 96.9004 51.125 80.5004 34.625C69.0004 23.325 55.4004 16.125 44.9004 16.125Z" fill="white"/>
<path d="M65.2 110.125C49.1 110.125 34 103.825 22.7 92.525C11.3 81.225 5 66.125 5 50.025C5 33.925 11.3 18.825 22.6 7.525C23.3 6.825 24.4 6.825 25.1 7.525C25.8 8.225 25.8 9.325 25.1 10.025C14.4 20.725 8.5 34.925 8.5 50.125C8.5 65.225 14.4 79.525 25.1 90.225C35.8 100.925 50 106.825 65.2 106.825C80.3 106.825 94.6 100.925 105.3 90.225C106 89.525 107.1 89.525 107.8 90.225C108.5 90.925 108.5 92.025 107.8 92.725C96.4 103.925 81.3 110.125 65.2 110.125Z" fill="white"/>
<path d="M48.6999 117.825C47.6999 117.825 46.8999 117.025 46.8999 116.025V106.825C46.8999 105.825 47.6999 105.025 48.6999 105.025C49.6999 105.025 50.4999 105.825 50.4999 106.825V116.025C50.4999 117.025 49.6999 117.825 48.6999 117.825Z" fill="white"/>
<path d="M69.5998 117.825C68.5998 117.825 67.7998 117.025 67.7998 116.025V109.325C67.7998 108.325 68.5998 107.525 69.5998 107.525C70.5998 107.525 71.3998 108.325 71.3998 109.325V116.025C71.2998 117.025 70.5998 117.825 69.5998 117.825Z" fill="white"/>
<path d="M91.9001 118.825H26.4001C25.4001 118.825 24.6001 118.025 24.6001 117.025C24.6001 116.025 25.4001 115.225 26.4001 115.225H91.9001C92.9001 115.225 93.7001 116.025 93.7001 117.025C93.6001 118.025 92.8001 118.825 91.9001 118.825Z" fill="white"/>
</svg>
