<svg width="28" height="28" viewBox="0 0 28 28" fill="none" xmlns="http://www.w3.org/2000/svg">
<path d="M18.6395 18.6414H20.6451C21.177 18.6414 21.6871 18.4301 22.0632 18.054C22.4393 17.6779 22.6506 17.1677 22.6506 16.6358V12.6247C22.6506 12.0928 22.4393 11.5827 22.0632 11.2066C21.6871 10.8304 21.177 10.6191 20.6451 10.6191H6.60615C6.07424 10.6191 5.56412 10.8304 5.188 11.2066C4.81189 11.5827 4.60059 12.0928 4.60059 12.6247V16.6358C4.60059 17.1677 4.81189 17.6779 5.188 18.054C5.56412 18.4301 6.07424 18.6414 6.60615 18.6414H8.61171" stroke="#101010" stroke-width="1.50417" stroke-linecap="round" stroke-linejoin="round"/>
<path d="M18.6382 10.6187V6.60761C18.6382 6.0757 18.4269 5.56558 18.0507 5.18947C17.6746 4.81335 17.1645 4.60205 16.6326 4.60205H10.6159C10.084 4.60205 9.57388 4.81335 9.19777 5.18947C8.82165 5.56558 8.61035 6.0757 8.61035 6.60761V10.6187" stroke="#101010" stroke-width="1.50417" stroke-linecap="round" stroke-linejoin="round"/>
<path d="M16.6326 14.6299H10.6159C9.50827 14.6299 8.61035 15.5278 8.61035 16.6354V20.6466C8.61035 21.7542 9.50827 22.6521 10.6159 22.6521H16.6326C17.7402 22.6521 18.6382 21.7542 18.6382 20.6466V16.6354C18.6382 15.5278 17.7402 14.6299 16.6326 14.6299Z" stroke="#101010" stroke-width="1.50417" stroke-linecap="round" stroke-linejoin="round"/>
</svg>
