<svg width="24" height="24" viewBox="0 0 24 24" fill="none" xmlns="http://www.w3.org/2000/svg">
<path d="M0 3.84C0 1.71923 1.71923 0 3.84 0H20.16C22.2808 0 24 1.71923 24 3.84V20.16C24 22.2808 22.2808 24 20.16 24H3.84C1.71923 24 0 22.2808 0 20.16V3.84Z" fill="#34AEE7"/>
<path fill-rule="evenodd" clip-rule="evenodd" d="M20.16 0.972973H3.84C2.25659 0.972973 0.972973 2.25659 0.972973 3.84V20.16C0.972973 21.7434 2.25659 23.027 3.84 23.027H20.16C21.7434 23.027 23.027 21.7434 23.027 20.16V3.84C23.027 2.25659 21.7434 0.972973 20.16 0.972973ZM3.84 0C1.71923 0 0 1.71923 0 3.84V20.16C0 22.2808 1.71923 24 3.84 24H20.16C22.2808 24 24 22.2808 24 20.16V3.84C24 1.71923 22.2808 0 20.16 0H3.84Z" fill="#018ECE"/>
<path fill-rule="evenodd" clip-rule="evenodd" d="M11.3061 5.95888H7.45564V7.59209H16.761V5.95888H12.9105V4.2168H11.3061V5.95888ZM8.73914 15.9736H7.13477V19.7844H17.1888V18.1512H8.73914V15.9736ZM13.2314 16.3002C13.2314 16.9617 12.7046 17.4979 12.0548 17.4979C11.4051 17.4979 10.8783 16.9617 10.8783 16.3002C10.8783 15.6387 11.4051 15.1025 12.0548 15.1025C12.7046 15.1025 13.2314 15.6387 13.2314 16.3002ZM13.4857 11.1851C13.4857 12.0497 12.7972 12.7506 11.9479 12.7506C11.0986 12.7506 10.4101 12.0497 10.4101 11.1851C10.4101 10.3206 11.0986 9.61968 11.9479 9.61968C12.7972 9.61968 13.4857 10.3206 13.4857 11.1851ZM15.0497 11.1851C15.0497 12.929 13.6609 14.3427 11.9479 14.3427C10.2348 14.3427 8.84609 12.929 8.84609 11.1851C8.84609 9.44128 10.2348 8.02761 11.9479 8.02761C13.6609 8.02761 15.0497 9.44128 15.0497 11.1851Z" fill="white"/>
</svg>
