<svg width="24" height="24" viewBox="0 0 24 24" fill="none" xmlns="http://www.w3.org/2000/svg">
<path d="M0 3.84C0 1.71923 1.71923 0 3.84 0H20.16C22.2808 0 24 1.71923 24 3.84V20.16C24 22.2808 22.2808 24 20.16 24H3.84C1.71923 24 0 22.2808 0 20.16V3.84Z" fill="#D25431"/>
<path d="M0 12C0 5.37258 5.30095 0 11.84 0H12.16C18.6991 0 24 5.37258 24 12V12C24 18.6274 18.6991 24 12.16 24H11.84C5.30095 24 0 18.6274 0 12V12Z" fill="#D25431"/>
<path d="M0.960938 12C0.960938 18.0901 5.90371 23.027 12.0009 23.027C18.0982 23.027 23.0409 18.0901 23.0409 12H0.960938Z" fill="#BD3419"/>
<path d="M23.0391 12C23.0391 5.90994 18.0963 0.972969 11.9991 0.97297C5.90184 0.97297 0.959062 5.90994 0.959063 12L23.0391 12Z" fill="#D25431"/>
<path d="M23.0391 12C23.0391 5.90994 18.0247 0.972972 11.8391 0.972972L11.8391 12L23.0391 12Z" fill="#ED6D49"/>
<path fill-rule="evenodd" clip-rule="evenodd" d="M20.16 0.972973H3.84C2.23723 0.972973 0.96 2.26886 0.96 3.84V20.16C0.96 21.7311 2.23723 23.027 3.84 23.027H20.16C21.7628 23.027 23.04 21.7311 23.04 20.16V3.84C23.04 2.26886 21.7628 0.972973 20.16 0.972973ZM3.84 0C1.71923 0 0 1.71923 0 3.84V20.16C0 22.2808 1.71923 24 3.84 24H20.16C22.2808 24 24 22.2808 24 20.16V3.84C24 1.71923 22.2808 0 20.16 0H3.84Z" fill="#BE2900"/>
<path fill-rule="evenodd" clip-rule="evenodd" d="M9.91937 7.45511H11.9994C13.2794 7.45511 14.7194 7.94252 14.7194 9.89216C14.7194 11.8418 13.4394 12.5033 11.9994 12.5033H9.91937V7.45511ZM9.91937 5.19214V5.18946H9.27937C8.21899 5.18946 7.35938 6.06069 7.35938 7.13541V7.45511V12.5033V14.5922V18.4868H9.91937V14.5922H12.4794C14.5594 14.5922 17.2794 13.7914 17.2794 9.89216C17.2794 5.99289 13.9727 5.13412 12.4794 5.19214H9.91937Z" fill="white"/>
</svg>
