<svg width="24" height="24" viewBox="0 0 24 24" fill="none" xmlns="http://www.w3.org/2000/svg">
<path d="M0 3.84C0 1.71923 1.71923 0 3.84 0H20.16C22.2808 0 24 1.71923 24 3.84V20.16C24 22.2808 22.2808 24 20.16 24H3.84C1.71923 24 0 22.2808 0 20.16V3.84Z" fill="#118449"/>
<path d="M20.16 0H3.84C1.71923 0 0 1.71923 0 3.84V8.32L24 8.31999V3.84C24 1.71923 22.2808 0 20.16 0Z" fill="#20A465"/>
<path d="M24 20.1596V16.6396H0V20.1596C0 22.2804 1.71923 23.9996 3.84 23.9996H20.16C22.2808 23.9996 24 22.2804 24 20.1596Z" fill="#185C37"/>
<path opacity="0.5" d="M20.1598 0H11.8398V24H20.1598C22.2806 24 23.9998 22.2808 23.9998 20.16V3.84C23.9998 1.71923 22.2806 0 20.1598 0Z" fill="#33C581"/>
<path fill-rule="evenodd" clip-rule="evenodd" d="M20.16 0.972972H3.84C2.25658 0.972972 0.972972 2.25658 0.972972 3.84V20.16C0.972972 21.7434 2.25658 23.027 3.84 23.027H20.16C21.7434 23.027 23.027 21.7434 23.027 20.16V3.84C23.027 2.25658 21.7434 0.972972 20.16 0.972972ZM3.84 0C1.71923 0 0 1.71923 0 3.84V20.16C0 22.2808 1.71923 24 3.84 24H20.16C22.2808 24 24 22.2808 24 20.16V3.84C24 1.71923 22.2808 0 20.16 0H3.84Z" fill="#295E3A"/>
<path d="M6.64193 5.67578H9.35648L12.1605 9.96486L15.1232 5.67578H17.8378L13.5186 12.0422L17.8378 18.6487H15.1232L12.1362 14.0799L9.0366 18.6487H6.16211L10.7659 11.9838L6.64193 5.67578Z" fill="white"/>
</svg>
