<svg width="24" height="24" viewBox="0 0 24 24" fill="none" xmlns="http://www.w3.org/2000/svg">
<path d="M0 24H24V5.67568L18.3243 0H0V24Z" fill="white"/>
<path fill-rule="evenodd" clip-rule="evenodd" d="M0.972973 23.027H23.027V6.07869L17.9213 0.972973H0.972973V23.027ZM18.3243 0L24 5.67568V24H0V0H18.3243Z" fill="#B2BAC7"/>
<path d="M4.2168 5.51367H11.3519V6.48664H4.2168V5.51367Z" fill="#73809A"/>
<path d="M4.2168 7.78418H11.3519V8.75715H4.2168V7.78418Z" fill="#73809A"/>
<path d="M4.2168 10.0537H11.3519V11.0267H4.2168V10.0537Z" fill="#73809A"/>
<path d="M4.2168 15.5674H11.3519V16.5404H4.2168V15.5674Z" fill="#73809A"/>
<path d="M12.6484 15.5674H19.7836V16.5404H12.6484V15.5674Z" fill="#73809A"/>
<path d="M4.2168 17.8379H11.3519V18.8109H4.2168V17.8379Z" fill="#73809A"/>
<path d="M12.6484 17.8379H19.7836V18.8109H12.6484V17.8379Z" fill="#73809A"/>
<path d="M20.8199 1.58227L17.1506 5.25159C16.7707 5.63156 16.7707 6.24761 17.1506 6.62758C17.5306 7.00755 18.1467 7.00755 18.5266 6.62758L19.897 5.2572C20.1525 5.0017 20.5675 5.00422 20.8199 5.2628C21.0679 5.51698 21.0655 5.92338 20.8143 6.17452L19.444 7.5449C18.5574 8.4315 17.1199 8.4315 16.2333 7.54491C15.3467 6.65831 15.3467 5.22085 16.2333 4.33426L19.9026 0.664947C20.7892 -0.221649 22.2267 -0.221649 23.1133 0.664947C23.9999 1.55154 23.9999 2.989 23.1133 3.87559L22.6567 4.33219L21.7305 3.40541L22.1959 2.95827C22.5759 2.5783 22.5759 1.96224 22.1959 1.58227C21.816 1.20231 21.1999 1.2023 20.8199 1.58227Z" fill="#73809A"/>
</svg>
