<svg width="20" height="20" viewBox="0 0 20 20" fill="none" xmlns="http://www.w3.org/2000/svg">
<path fill-rule="evenodd" clip-rule="evenodd" d="M1.3051 1.3051C1.71189 0.898301 2.37144 0.898301 2.77824 1.3051L10.375 8.90186L17.9718 1.3051C18.3786 0.898301 19.0381 0.898301 19.4449 1.3051C19.8517 1.71189 19.8517 2.37144 19.4449 2.77824L11.8481 10.375L19.4449 17.9718C19.8517 18.3786 19.8517 19.0381 19.4449 19.4449C19.0381 19.8517 18.3786 19.8517 17.9718 19.4449L10.375 11.8481L2.77824 19.4449C2.37144 19.8517 1.71189 19.8517 1.3051 19.4449C0.898301 19.0381 0.898301 18.3786 1.3051 17.9718L8.90186 10.375L1.3051 2.77824C0.898301 2.37144 0.898301 1.71189 1.3051 1.3051Z" fill="#4B4B4B"/>
</svg>
