<?xml version="1.0" encoding="utf-8"?>
<!-- Generator: Adobe Illustrator 25.0.1, SVG Export Plug-In . SVG Version: 6.00 Build 0)  -->
<svg version="1.1" id="Layer_1" xmlns="http://www.w3.org/2000/svg" xmlns:xlink="http://www.w3.org/1999/xlink" x="0px" y="0px"
	 viewBox="0 0 112 40" style="enable-background:new 0 0 112 40;" xml:space="preserve">
<style type="text/css">
	.st0{fill:#FFFFFF;}
</style>
<g>
	<g>
		<path class="st0" d="M60.9,38.5v-4.9h1.8c0.8,0,1.4,0.2,1.4,1.3c0,0.6-0.3,1-0.8,1.1v0c0.7,0.1,0.9,0.6,0.9,1.2
			c0,1.3-1.1,1.3-1.5,1.3H60.9z M61.9,35.6h0.7c0.2,0,0.5-0.2,0.5-0.6c0-0.4-0.2-0.6-0.6-0.6h-0.6V35.6z M61.9,37.8h0.6
			c0.2,0,0.7,0,0.7-0.7c0-0.4-0.2-0.7-0.7-0.7h-0.6V37.8z"/>
		<path class="st0" d="M67.7,36.1c0-1.3,0-2.5,1.7-2.5c1.7,0,1.7,1.2,1.7,2.5c0,1.3,0,2.5-1.7,2.5C67.7,38.6,67.7,37.4,67.7,36.1z
			 M70.1,36.1c0-1.3-0.1-1.8-0.7-1.8c-0.6,0-0.7,0.5-0.7,1.8c0,1.3,0.1,1.8,0.7,1.8C70,37.9,70.1,37.3,70.1,36.1z"/>
		<path class="st0" d="M75.7,38.5h-1v-4.9h1.9c0.7,0,1.2,0.5,1.2,1.3c0,0.6-0.2,1.1-0.9,1.2v0c0.2,0,0.9,0.1,0.9,1
			c0,0.3,0,1.2,0.1,1.4h-1c-0.1-0.3-0.1-0.6-0.1-1c0-0.6,0.1-1.1-0.7-1.1h-0.3V38.5z M75.7,35.7h0.5c0.4,0,0.5-0.4,0.5-0.7
			c0-0.5-0.2-0.6-0.5-0.6h-0.5V35.7z"/>
		<path class="st0" d="M82,36.8l-1.3-3.2h1.1l0.7,2.1l0.8-2.1h1.1l-1.4,3.2v1.7h-1V36.8z"/>
		<path class="st0" d="M87.6,38.5v-4.9h2.7v0.8h-1.7v1.2h1.5v0.8h-1.5v1.4h1.7v0.8H87.6z"/>
		<path class="st0" d="M93.8,36.1c0-1.3,0-2.5,1.7-2.5c1.7,0,1.7,1.2,1.7,2.5c0,1.3,0,2.5-1.7,2.5C93.8,38.6,93.8,37.4,93.8,36.1z
			 M96.1,36.1c0-1.3-0.1-1.8-0.7-1.8c-0.6,0-0.7,0.5-0.7,1.8c0,1.3,0.1,1.8,0.7,1.8C96,37.9,96.1,37.3,96.1,36.1z"/>
		<path class="st0" d="M100.7,38.5v-4.9h1.4l1.3,3.4h0v-3.4h1v4.9H103l-1.3-3.6h0v3.6H100.7z"/>
		<path class="st0" d="M110.3,35.1c0-0.5-0.1-0.9-0.6-0.9c-0.6,0-0.6,0.9-0.6,1.8c0,1.5,0.2,1.8,0.7,1.8c0.2,0,0.4,0,0.5-0.1v-1.1
			h-0.6v-0.8h1.6v2.5c-0.3,0.1-1,0.2-1.4,0.2c-1.7,0-1.9-0.7-1.9-2.6c0-1.2,0.1-2.5,1.7-2.5c1,0,1.6,0.6,1.6,1.6H110.3z"/>
	</g>
	<g>
		<path class="st0" d="M61.2,18.9v-7.4h2.1v3.2h8.4v-3.2h2.1v10.4h-5.2v3.6h7.9v1.8H59.1v-1.8h7.3v-3.6h-2.2
			C62,21.9,61.2,20.8,61.2,18.9z M64.4,20.1h7.2v-3.7h-8.4v2.4C63.3,19.7,63.7,20.1,64.4,20.1z"/>
		<polygon class="st0" points="88.1,13.3 91.2,13.3 91.2,11.1 93.3,11.1 93.3,21.6 91.2,21.6 91.2,18.8 88.1,18.8 88.1,17 91.2,17 
			91.2,15.1 88.1,15.1 		"/>
		<path class="st0" d="M88.6,21.7c-2.6,0-4.7,2-4.7,4.4c0,2.4,2.1,4.4,4.7,4.4c2.6,0,4.7-2,4.7-4.4C93.3,23.7,91.2,21.7,88.6,21.7z
			 M88.6,28.7c-1.4,0-2.6-1.2-2.6-2.6c0-1.4,1.2-2.6,2.6-2.6c1.4,0,2.6,1.2,2.6,2.6C91.2,27.5,90,28.7,88.6,28.7z"/>
		<rect x="109.1" y="11.1" class="st0" width="2.1" height="18"/>
		<path class="st0" d="M100.4,11.6v2.6c0,3-1.6,5.8-4.8,8l1.3,1.4c1.5-0.8,3.9-3.2,4.5-4.7c0.7,1.5,3.1,3.8,4.5,4.7l1.3-1.4
			c-3.2-2.2-4.8-4.9-4.8-8v-2.6H100.4z"/>
		<path class="st0" d="M87.1,11.6h-8.8v1.8H85v2h-6.7v3.1c0,1.8,0.8,2.9,3.1,2.9h6.2v-1.8h-6c-0.7,0-1.1-0.4-1.1-1.2v-1.2h6.7
			L87.1,11.6z"/>
	</g>
	<g>
		<g>
			<g>
				<g>
					<path class="st0" d="M18.3,37.1c-0.7,0.5-1,1.2-0.8,1.5c0.3,0.3,1.1,0.1,1.8-0.4c0.7-0.5,1-1.2,0.7-1.5
						C19.8,36.4,19,36.6,18.3,37.1z M21.8,37.1c-0.7,0.5-1,1.2-0.8,1.5c0.3,0.3,1.1,0.1,1.8-0.4c0.7-0.5,1-1.2,0.7-1.5
						C23.3,36.3,22.5,36.5,21.8,37.1z M25.3,37c-0.7,0.5-1,1.2-0.8,1.5c0.3,0.3,1.1,0.1,1.8-0.4c0.7-0.5,1-1.2,0.7-1.5
						C26.8,36.3,26,36.5,25.3,37z M28.8,37.2c-0.7,0.5-1,1.2-0.8,1.5c0.3,0.3,1.1,0.1,1.8-0.4c0.7-0.5,1-1.2,0.7-1.5
						C30.3,36.5,29.5,36.7,28.8,37.2z M30.9,30.9c-0.5-0.4-1.8,0-2.8,1c-1,0.9-1.4,2-0.9,2.4c0.5,0.4,1.8,0,2.8-1
						C31.1,32.4,31.5,31.3,30.9,30.9z M25.9,30.9c-0.6-0.4-1.8,0.2-2.7,1.2c-0.9,1-1.2,2.1-0.6,2.5c0.6,0.4,1.8-0.2,2.7-1.2
						C26.2,32.4,26.5,31.3,25.9,30.9z M35.2,9.4c0,0,3-1.4,4.5-3.7c2.1-3.1,0.8-4.8-0.6-5.2c-1.4-0.4-3.9,0.6-4.5,3.7
						C34.1,6.8,35.2,9.4,35.2,9.4z M43.3,9.4c0,0,3-1.5,4.5-3.8c2.1-3.1,0.9-4.8-0.5-5.2c-1.4-0.4-3.9,0.6-4.5,3.8
						C42.2,6.8,43.3,9.4,43.3,9.4z M51.8,9.4c0,0,3-1.5,4.6-3.8c2.2-3.1,1-4.8-0.3-5.2c-1.4-0.4-3.9,0.6-4.6,3.8
						C50.8,6.9,51.8,9.4,51.8,9.4z M30.6,23.1c-0.8-0.4-2.3,0.5-3.4,1.9c-1,1.5-1.2,3-0.4,3.4c0.8,0.4,2.4-0.5,3.4-1.9
						C31.2,25,31.4,23.5,30.6,23.1z M35.8,30.8c-0.6-0.4-1.8,0.1-2.8,1c-1,0.9-1.4,2-0.8,2.4c0.6,0.4,1.8-0.1,2.8-1
						C36,32.2,36.4,31.2,35.8,30.8z M35.3,17.2c1.9-2.2,1.3-3.9,0.2-4.4c-1.1-0.5-3.3,0.3-4.2,2.7c-0.8,2.1-0.2,4.4-0.2,4.4
						S33.8,18.9,35.3,17.2z M42,17.2c1.9-2.2,1.5-3.9,0.4-4.4c-1.1-0.5-3.3,0.3-4.3,2.6c-0.9,2.1-0.4,4.4-0.4,4.4S40.5,18.9,42,17.2
						z M49.1,17.2c2-2.1,1.5-3.9,0.5-4.4c-1.1-0.5-3.3,0.3-4.4,2.6c-1,2.1-0.5,4.4-0.5,4.4S47.5,18.9,49.1,17.2z M36.1,22.5
						c-0.8-0.4-2.3,0.5-3.3,2c-1,1.5-1.1,3-0.3,3.4c0.8,0.4,2.3-0.5,3.3-2C36.8,24.4,37,22.9,36.1,22.5z M42,22.3
						c-0.8-0.4-2.3,0.5-3.4,2.1c-1,1.5-1.2,3-0.3,3.4c0.8,0.4,2.3-0.5,3.4-2.1C42.7,24.2,42.8,22.7,42,22.3z"/>
					<g>
						<path class="st0" d="M2,13.1c-1.5,0-1.7,1.1-0.5,1.8c7.5,4.3,12.6,12.4,12.6,21.7c0,0.5,0,1,0,1.5c4.5-2.6,8.1-6.5,10.2-11.2
							C20.2,18.7,11.8,13.1,2,13.1z"/>
					</g>
				</g>
			</g>
		</g>
	</g>
</g>
</svg>
