<svg xmlns="http://www.w3.org/2000/svg" viewBox="0 0 135.64 41.96"><defs><style>.cls-1{fill:#fff;}</style></defs><g id="레이어_2" data-name="레이어 2"><g id="Layer_1" data-name="Layer 1"><path class="cls-1" d="M19.19,40.11c-.77.57-1.14,1.3-.82,1.61s1.2.1,2-.47,1.14-1.29.82-1.61S20,39.53,19.19,40.11Zm3.84,0c-.78.58-1.15,1.3-.83,1.61s1.21.1,2-.47,1.14-1.29.82-1.61S23.8,39.49,23,40.06Zm3.83,0c-.77.57-1.14,1.29-.83,1.6s1.21.11,2-.47,1.14-1.29.82-1.6S27.63,39.44,26.86,40Zm3.82.19c-.77.57-1.14,1.29-.83,1.6s1.21.11,2-.47,1.14-1.29.82-1.6S31.45,39.63,30.68,40.21Zm2.37-6.9c-.6-.44-2,0-3.12,1S28.38,36.53,29,37s2,0,3.11-1S33.64,33.75,33.05,33.31Zm-5.53.07c-.65-.4-2,.17-3,1.26s-1.31,2.29-.67,2.69,2-.17,3-1.27S28.16,33.77,27.52,33.38ZM37.68,9.79a14.27,14.27,0,0,0,4.91-4C44.85,2.39,43.5.54,42,.09s-4.21.64-4.92,4.05A10.78,10.78,0,0,0,37.68,9.79Zm8.87.05a14.81,14.81,0,0,0,5-4.12c2.3-3.38,1-5.21-.54-5.64s-4.22.7-5,4.12A10.72,10.72,0,0,0,46.55,9.84Zm9.26,0A15.61,15.61,0,0,0,60.9,5.73C63.29,2.33,62,.5,60.52.08s-4.24.71-5.08,4.14A10.66,10.66,0,0,0,55.81,9.87ZM32.66,24.78c-.9-.44-2.56.51-3.71,2.13s-1.33,3.28-.43,3.72,2.57-.51,3.72-2.12S33.57,25.23,32.66,24.78Zm5.73,8.4c-.61-.43-2,.06-3.09,1.09s-1.49,2.21-.89,2.64,2-.06,3.08-1.1S39,33.6,38.39,33.18Zm-.63-14.79c2-2.37,1.46-4.3.25-4.83s-3.6.32-4.64,2.91a8.65,8.65,0,0,0-.25,4.83A12.44,12.44,0,0,0,37.76,18.39Zm7.36,0c2.12-2.36,1.6-4.28.41-4.82s-3.62.29-4.75,2.86a8.65,8.65,0,0,0-.41,4.83A13,13,0,0,0,45.12,18.39Zm7.75,0c2.18-2.34,1.7-4.27.51-4.82s-3.62.28-4.8,2.85a8.62,8.62,0,0,0-.51,4.82A13.36,13.36,0,0,0,52.87,18.35ZM38.73,24.13c-.92-.42-2.55.58-3.65,2.23s-1.26,3.32-.34,3.73,2.55-.58,3.66-2.22S39.65,24.54,38.73,24.13ZM45.12,24c-.92-.41-2.56.6-3.68,2.25s-1.28,3.33-.37,3.74,2.56-.6,3.68-2.25S46,24.39,45.12,24Z"/><path class="cls-1" d="M1.41,13.87c-1.66,0-1.88,1.16-.52,1.94a27.33,27.33,0,0,1,13.8,23.75c0,.55,0,1.09,0,1.63A27.51,27.51,0,0,0,25.83,28.91,27.35,27.35,0,0,0,1.41,13.87Z"/><path class="cls-1" d="M69.35,12.62l0,.14a20.23,20.23,0,0,1-3,7.84,31.68,31.68,0,0,1-2.89,3.56l-.09.09L65,26.19l.09-.09a18.6,18.6,0,0,0,1.26-1.37,6.6,6.6,0,0,0,.61-.86V37.19h2.37v-17a23.89,23.89,0,0,0,1.13-2.91c.41-1.25.77-2.52,1.06-3.76l0-.1Z"/><path class="cls-1" d="M80.72,27.64H85.3V25.42H79.79V22.78h4.42V13.9H73v6.63h0a2.26,2.26,0,0,0,2.26,2.25h2.16v2.64H71.94v2.22h4.57c-.43,1.63-2,4.08-5.77,6.25l1.75,1.84a13.32,13.32,0,0,0,5-5.27v6.7h2.34v-6.7a13.32,13.32,0,0,0,5,5.27l1.75-1.84C82.77,31.72,81.16,29.27,80.72,27.64ZM82,20.48h-6a.7.7,0,0,1-.7-.67V16.12H82Z"/><path class="cls-1" d="M110.6,30.43H90.12v2.06h9v1.67a.7.7,0,0,1-.7.67H96.58l.63,2.31h2a2.26,2.26,0,0,0,2.25-2.26h0V32.49h9.11Z"/><path class="cls-1" d="M103.13,22.93h0a2.25,2.25,0,0,0,2.25-2.25h0V19.42l-2.27-.57v1.39a.7.7,0,0,1-.7.67H98.9a.71.71,0,0,1-.7-.67V18.09l-2.27-.45v3h0a2.26,2.26,0,0,0,2.26,2.25h4.94Z"/><path class="cls-1" d="M108.52,27.25V23.76H92.19v3.49H89.58v2.06h21.56V27.25Zm-2.2-1.43v1.43h-2.5V25.82Zm-4.71,0v1.43h-2.5V25.82Zm-7.21,0h2.5v1.43H94.4Z"/><path class="cls-1" d="M93.67,17.74a9.28,9.28,0,0,1-2.83,3.73L92.4,22.9a9.32,9.32,0,0,0,3-4.16Z"/><path class="cls-1" d="M100.54,17l-1.83.86a9.55,9.55,0,0,1,1.56,2.3l2-.91A7.5,7.5,0,0,0,100.54,17Z"/><path class="cls-1" d="M106.7,17.5l-1.78,1a11.72,11.72,0,0,1,2.39,3.59l1.88-1.12A9.29,9.29,0,0,0,106.7,17.5Z"/><path class="cls-1" d="M101.68,14.57a19.32,19.32,0,0,1,.18-2.37l-2.8-.43a24.54,24.54,0,0,1,.23,2.8H90.12v4.85h2.07V16.63h16.55v2.79h2.06V14.57Z"/><path class="cls-1" d="M126.13,22.46V18.81h9.51V16.59h-9.51V15.32a23.44,23.44,0,0,1,.19-3.12l-2.8-.43a25.12,25.12,0,0,1,.24,3.55v1.27H114.2v2.22h9.56v3.65h-7.41V36.28h2.37V24.68h5V37.19h2.37V24.68h5.26v8.63a.7.7,0,0,1-.7.67h-1.86l.62,2.3h2A2.26,2.26,0,0,0,133.73,34h0V22.46Z"/></g></g></svg>