<svg width="61" height="61" viewBox="0 0 61 61" fill="none" xmlns="http://www.w3.org/2000/svg">
<path d="M59.2593 15.6211H46.4912C45.9763 15.6211 45.5645 15.2092 45.5645 14.6944V1.92625C45.5645 1.56586 45.7704 1.25696 46.1308 1.1025C46.4912 0.948052 46.8516 0.999536 47.109 1.25696L59.9286 14.0765C60.186 14.334 60.289 14.7458 60.1345 15.0547C59.9801 15.3636 59.6197 15.6211 59.2593 15.6211ZM47.3664 13.8191H57.0969L47.3664 4.08859V13.8191Z" fill="white"/>
<path d="M59.2588 48.7774H43.2987C42.7838 48.7774 42.3719 48.3655 42.3719 47.8507C42.3719 47.3358 42.7838 46.924 43.2987 46.924H58.3836V15.0037L46.1303 2.80195H21.7782V10.6276C21.7782 11.1424 21.3664 11.5543 20.8515 11.5543C20.3367 11.5543 19.9248 11.1424 19.9248 10.6276V1.92672C19.9248 1.41187 20.3367 1 20.8515 1H46.4392C46.6966 1 46.9026 1.10297 47.057 1.25742L59.8766 14.077C60.0311 14.2315 60.134 14.4889 60.134 14.6948V47.9022C60.1855 48.3655 59.7736 48.7774 59.2588 48.7774Z" fill="white"/>
<path d="M50.9185 31.8887H43.2988V39.5083H50.9185V31.8887Z" fill="#5EA7EA"/>
<path d="M50.868 40.3845H43.2998C42.7849 40.3845 42.373 39.9726 42.373 39.4578V31.8896C42.373 31.3748 42.7849 30.9629 43.2998 30.9629H50.9194C51.4343 30.9629 51.8462 31.3748 51.8462 31.8896V39.5093C51.7947 39.9726 51.3828 40.3845 50.868 40.3845ZM44.175 38.5826H49.9927V32.7648H44.175V38.5826Z" fill="white"/>
<path d="M43.2981 27.4114H30.4785C29.9636 27.4114 29.5518 26.9996 29.5518 26.4847V13.7166C29.5518 13.3562 29.7577 13.0473 30.1181 12.8929C30.4785 12.7384 30.8389 12.8414 31.0963 13.0988L43.9159 25.9184C44.1733 26.1758 44.2763 26.5877 44.1218 26.8966C43.9674 27.154 43.6584 27.4114 43.2981 27.4114ZM31.4052 25.6095H41.1357L31.4052 15.879V25.6095Z" fill="white"/>
<path d="M43.2978 60.5665H4.89058C4.37574 60.5665 3.96387 60.1546 3.96387 59.6397V13.7158C3.96387 13.2009 4.37574 12.7891 4.89058 12.7891H30.4783C30.7357 12.7891 30.9416 12.892 31.0961 13.0465L43.9157 25.8661C44.0701 26.0205 44.1731 26.2779 44.1731 26.4839V59.6912C44.1731 60.1546 43.7612 60.5665 43.2978 60.5665ZM5.8173 58.7645H42.4226V26.8443L30.1179 14.591H5.8173V58.7645Z" fill="white"/>
<path d="M34.9054 43.6777H0.925781V51.2974H34.9054V43.6777Z" fill="#5EA7EA"/>
<path d="M34.9063 52.1736H0.926717C0.411874 52.1736 0 51.7617 0 51.2469V43.6787C0 43.1638 0.411874 42.752 0.926717 42.752H34.9063C35.4212 42.752 35.8331 43.1638 35.8331 43.6787V51.2983C35.7816 51.7617 35.3697 52.1736 34.9063 52.1736ZM1.80195 50.3716H33.9796V44.6054H1.80195V50.3716Z" fill="white"/>
</svg>
