<svg width="1078" height="50" viewBox="0 0 1078 50" fill="none" xmlns="http://www.w3.org/2000/svg">
<rect width="330.138" height="50" fill="#2377C5"/>
<path d="M129.473 25.404H125.459V21.066H129.311V19.554H123.605V26.898H129.473V25.404ZM122.741 24.954C121.391 25.242 120.203 25.332 118.871 25.368V21.084H122.597V19.572H117.017V26.898H117.971C119.735 26.898 121.193 26.844 122.903 26.484L122.741 24.954ZM124.055 30.876V27.654H122.201V30.876H115.811V32.406H130.535V30.876H124.055ZM134.115 25.782H138.399V19.806H132.297V21.318H136.617V24.288H132.333V30.624H133.431C135.429 30.624 137.229 30.57 139.407 30.192L139.245 28.68C137.391 28.986 135.807 29.076 134.115 29.094V25.782ZM143.925 18.132V24.414H141.999V18.456H140.253V33.576H141.999V25.926H143.925V34.368H145.689V18.132H143.925ZM157.298 25.566C154.886 24.774 153.5 22.794 153.5 20.706V18.96H151.628V20.562C151.628 22.902 150.242 25.116 147.686 25.998L148.676 27.474C150.548 26.79 151.88 25.386 152.6 23.622C153.284 25.152 154.58 26.394 156.326 27.024L157.298 25.566ZM155.3 32.928C153.032 32.928 151.718 32.37 151.718 31.326C151.718 30.318 153.032 29.742 155.3 29.742C157.568 29.742 158.882 30.318 158.882 31.326C158.882 32.37 157.568 32.928 155.3 32.928ZM155.3 28.284C151.952 28.284 149.882 29.418 149.882 31.326C149.882 33.252 151.952 34.386 155.3 34.386C158.666 34.386 160.718 33.252 160.718 31.326C160.718 29.418 158.666 28.284 155.3 28.284ZM160.538 22.146V18.114H158.684V27.888H160.538V23.676H162.842V22.146H160.538ZM173.172 24.504C171.21 24.918 169.464 25.008 166.386 25.026V20.67H171.732V19.176H164.532V26.538H165.846C169.338 26.538 171.246 26.448 173.352 25.998L173.172 24.504ZM168.006 29.562H174.738V32.694H168.006V29.562ZM166.17 34.188H176.556V28.104H166.17V34.188ZM178.86 21.966H176.556V18.114H174.702V27.294H176.556V23.496H178.86V21.966ZM196.78 18.15H194.926V30.03H196.78V18.15ZM193.234 25.998C190.732 25.134 189.31 22.956 189.31 20.652V19.032H187.42V20.652C187.42 23.028 185.998 25.35 183.442 26.286L184.396 27.78C186.304 27.06 187.654 25.584 188.392 23.766C189.094 25.458 190.426 26.79 192.28 27.474L193.234 25.998ZM188.032 32.568V28.914H186.16V34.08H197.248V32.568H188.032ZM208.083 22.614V24.144H211.017V27.96H212.871V18.114H211.017V22.614H208.083ZM209.091 25.908C206.607 25.206 205.131 23.442 205.131 21.588V21.444H208.551V19.968H205.149V18.06H203.277V19.968H199.857V21.444H203.277V21.588C203.277 23.622 201.873 25.548 199.371 26.322L200.271 27.762C202.179 27.168 203.547 25.89 204.267 24.27C205.005 25.692 206.373 26.826 208.227 27.348L209.091 25.908ZM207.453 32.946C205.149 32.946 203.835 32.37 203.835 31.344C203.835 30.318 205.149 29.76 207.453 29.76C209.775 29.76 211.089 30.318 211.089 31.344C211.089 32.37 209.775 32.946 207.453 32.946ZM207.453 28.32C204.051 28.32 201.981 29.436 201.981 31.344C201.981 33.252 204.051 34.386 207.453 34.386C210.855 34.386 212.943 33.252 212.943 31.344C212.943 29.436 210.855 28.32 207.453 28.32Z" fill="white"/>
<rect x="747.862" width="330.138" height="50" fill="#2377C5"/>
<path d="M876.835 25.404H872.821V21.066H876.673V19.554H870.967V26.898H876.835V25.404ZM870.103 24.954C868.753 25.242 867.565 25.332 866.233 25.368V21.084H869.959V19.572H864.379V26.898H865.333C867.097 26.898 868.555 26.844 870.265 26.484L870.103 24.954ZM871.417 30.876V27.654H869.563V30.876H863.173V32.406H877.897V30.876H871.417ZM881.477 25.782H885.761V19.806H879.659V21.318H883.979V24.288H879.695V30.624H880.793C882.791 30.624 884.591 30.57 886.769 30.192L886.607 28.68C884.753 28.986 883.169 29.076 881.477 29.094V25.782ZM891.287 18.132V24.414H889.361V18.456H887.615V33.576H889.361V25.926H891.287V34.368H893.051V18.132H891.287ZM904.66 25.566C902.248 24.774 900.862 22.794 900.862 20.706V18.96H898.99V20.562C898.99 22.902 897.604 25.116 895.048 25.998L896.038 27.474C897.91 26.79 899.242 25.386 899.962 23.622C900.646 25.152 901.942 26.394 903.688 27.024L904.66 25.566ZM902.662 32.928C900.394 32.928 899.08 32.37 899.08 31.326C899.08 30.318 900.394 29.742 902.662 29.742C904.93 29.742 906.244 30.318 906.244 31.326C906.244 32.37 904.93 32.928 902.662 32.928ZM902.662 28.284C899.314 28.284 897.244 29.418 897.244 31.326C897.244 33.252 899.314 34.386 902.662 34.386C906.028 34.386 908.08 33.252 908.08 31.326C908.08 29.418 906.028 28.284 902.662 28.284ZM907.9 22.146V18.114H906.046V27.888H907.9V23.676H910.204V22.146H907.9ZM920.535 24.504C918.573 24.918 916.827 25.008 913.749 25.026V20.67H919.095V19.176H911.895V26.538H913.209C916.701 26.538 918.609 26.448 920.715 25.998L920.535 24.504ZM915.369 29.562H922.101V32.694H915.369V29.562ZM913.533 34.188H923.919V28.104H913.533V34.188ZM926.223 21.966H923.919V18.114H922.065V27.294H923.919V23.496H926.223V21.966ZM944.142 18.132H942.27V26.466H944.142V18.132ZM940.632 24.648C938.13 23.874 936.672 21.894 936.672 19.788V18.564H934.782V19.788C934.782 21.984 933.324 24.09 930.75 24.936L931.668 26.412C933.63 25.746 935.016 24.396 935.754 22.65C936.492 24.252 937.86 25.494 939.732 26.106L940.632 24.648ZM935.34 32.784V31.362H944.142V27.24H933.486V28.68H942.306V30.012H933.522V34.242H944.628V32.784H935.34ZM952.763 19.482H950.909V22.146C950.909 25.278 949.217 28.392 946.625 29.562L947.723 31.11C949.685 30.156 951.125 28.23 951.863 25.872C952.601 28.068 954.023 29.868 955.895 30.75L956.975 29.274C954.419 28.122 952.763 25.134 952.763 22.146V19.482ZM958.271 18.114V34.422H960.143V18.114H958.271Z" fill="white"/>
<rect x="374" width="330.138" height="50" fill="#2377C5"/>
<path d="M460.453 25.404H456.439V21.066H460.291V19.554H454.585V26.898H460.453V25.404ZM453.721 24.954C452.371 25.242 451.183 25.332 449.851 25.368V21.084H453.577V19.572H447.997V26.898H448.951C450.715 26.898 452.173 26.844 453.883 26.484L453.721 24.954ZM455.035 30.876V27.654H453.181V30.876H446.791V32.406H461.515V30.876H455.035ZM465.096 25.782H469.38V19.806H463.278V21.318H467.598V24.288H463.314V30.624H464.412C466.41 30.624 468.21 30.57 470.388 30.192L470.226 28.68C468.372 28.986 466.788 29.076 465.096 29.094V25.782ZM474.906 18.132V24.414H472.98V18.456H471.234V33.576H472.98V25.926H474.906V34.368H476.67V18.132H474.906ZM488.278 25.566C485.866 24.774 484.48 22.794 484.48 20.706V18.96H482.608V20.562C482.608 22.902 481.222 25.116 478.666 25.998L479.656 27.474C481.528 26.79 482.86 25.386 483.58 23.622C484.264 25.152 485.56 26.394 487.306 27.024L488.278 25.566ZM486.28 32.928C484.012 32.928 482.698 32.37 482.698 31.326C482.698 30.318 484.012 29.742 486.28 29.742C488.548 29.742 489.862 30.318 489.862 31.326C489.862 32.37 488.548 32.928 486.28 32.928ZM486.28 28.284C482.932 28.284 480.862 29.418 480.862 31.326C480.862 33.252 482.932 34.386 486.28 34.386C489.646 34.386 491.698 33.252 491.698 31.326C491.698 29.418 489.646 28.284 486.28 28.284ZM491.518 22.146V18.114H489.664V27.888H491.518V23.676H493.822V22.146H491.518ZM504.153 24.504C502.191 24.918 500.445 25.008 497.367 25.026V20.67H502.713V19.176H495.513V26.538H496.827C500.319 26.538 502.227 26.448 504.333 25.998L504.153 24.504ZM498.987 29.562H505.719V32.694H498.987V29.562ZM497.151 34.188H507.537V28.104H497.151V34.188ZM509.841 21.966H507.537V18.114H505.683V27.294H507.537V23.496H509.841V21.966ZM516.554 21.282H519.992V19.752H511.154V21.282H514.7V22.848C514.7 25.548 513.044 28.626 510.56 29.814L511.622 31.29C513.494 30.372 514.934 28.428 515.654 26.16C516.392 28.212 517.778 30.012 519.596 30.876L520.622 29.418C518.156 28.248 516.554 25.368 516.554 22.848V21.282ZM525.986 24.54H523.448V18.132H521.594V34.386H523.448V26.07H525.986V24.54ZM541.997 30.228H543.851V18.132H541.997V21.786H538.703V23.316H541.997V30.228ZM539.981 26.232C537.551 25.35 536.183 23.244 536.183 21.048V19.122H534.293V21.012C534.293 23.424 532.889 25.71 530.351 26.61L531.341 28.05C533.213 27.33 534.563 25.89 535.283 24.072C535.967 25.71 537.245 27.024 538.991 27.672L539.981 26.232ZM535.139 32.568V28.95H533.267V34.08H544.229V32.568H535.139ZM553.858 25.35C552.256 25.656 550.87 25.728 548.818 25.746V23.928H553.174V22.488H548.818V20.778H553.354V19.284H547.018V27.258H548.116C550.636 27.258 552.184 27.204 554.056 26.862L553.858 25.35ZM549.124 30.3H558.304V34.404H560.158V28.806H549.124V30.3ZM558.394 18.132V22.254H556.594V18.438H554.866V27.906H556.594V23.766H558.394V28.014H560.158V18.132H558.394ZM579.589 25.404H575.575V21.066H579.427V19.554H573.721V26.898H579.589V25.404ZM572.857 24.954C571.507 25.242 570.319 25.332 568.987 25.368V21.084H572.713V19.572H567.133V26.898H568.087C569.851 26.898 571.309 26.844 573.019 26.484L572.857 24.954ZM574.171 30.876V27.654H572.317V30.876H565.927V32.406H580.651V30.876H574.171ZM594.996 22.794H585.69V18.708H583.836V24.306H594.996V22.794ZM585.582 29.238H583.728V34.026H595.086V32.532H585.582V29.238ZM581.928 26.25V27.744H596.688V26.25H581.928ZM603.448 23.262C603.448 21.786 604.51 20.778 605.932 20.778C607.318 20.778 608.38 21.786 608.38 23.262C608.38 24.774 607.318 25.782 605.932 25.782C604.51 25.782 603.448 24.774 603.448 23.262ZM613.078 22.056V24.468H609.964C610.09 24.09 610.144 23.694 610.144 23.262C610.144 22.83 610.09 22.434 609.964 22.056H613.078ZM613.078 25.98V30.102H614.932V18.15H613.078V20.544H609.172C608.416 19.68 607.264 19.14 605.932 19.14C603.52 19.14 601.684 20.868 601.684 23.262C601.684 25.656 603.52 27.384 605.932 27.384C607.264 27.402 608.416 26.862 609.172 25.98H613.078ZM606.256 32.568V28.896H604.402V34.08H615.346V32.568H606.256ZM629.096 21.786V23.46H625.118V24.9H629.096V26.376H630.95V18.132H629.096V20.346H625.73C625.82 19.878 625.856 19.374 625.856 18.852H618.584V20.346H623.804C623.552 22.614 621.554 24.396 617.702 25.224L618.35 26.736C621.932 25.926 624.326 24.27 625.334 21.786H629.096ZM622.256 32.748V31.254H630.95V27.042H620.366V28.518H629.096V29.868H620.402V34.242H631.4V32.748H622.256Z" fill="white"/>
<path d="M364.122 23.5L343.731 23.5" stroke="#2377C5" stroke-width="2" stroke-dasharray="4 4"/>
<path d="M343.731 26.5C342.166 26.5 340.847 25.1848 340.847 23.5C340.847 21.8152 342.166 20.5 343.731 20.5C345.296 20.5 346.615 21.8152 346.615 23.5C346.615 25.1848 345.296 26.5 343.731 26.5Z" fill="white" stroke="#2377C5" stroke-width="2"/>
<path d="M359.51 19L363.88 23.5L359.51 28" stroke="#2377C5" stroke-width="2"/>
<path d="M738.925 24.5L718.534 24.5" stroke="#2377C5" stroke-width="2" stroke-dasharray="4 4"/>
<path d="M718.534 27.5C716.969 27.5 715.65 26.1848 715.65 24.5C715.65 22.8152 716.969 21.5 718.534 21.5C720.099 21.5 721.418 22.8152 721.418 24.5C721.418 26.1848 720.099 27.5 718.534 27.5Z" fill="white" stroke="#2377C5" stroke-width="2"/>
<path d="M734.313 20L738.683 24.5L734.313 29" stroke="#2377C5" stroke-width="2"/>
</svg>
