<svg width="1110" height="157" viewBox="0 0 1110 157" fill="none" xmlns="http://www.w3.org/2000/svg">
<rect x="216" width="330" height="157" fill="#F3F7FB"/>
<rect x="780" width="330" height="157" fill="#F3F7FB"/>
<rect width="216" height="157" fill="#2377C5"/>
<rect x="564" width="216" height="157" fill="#2377C5"/>
<path d="M243.001 34.456C244.041 34.456 244.985 33.576 244.985 32.312C244.985 31.016 244.041 30.136 243.001 30.136C241.929 30.136 240.985 31.016 240.985 32.312C240.985 33.576 241.929 34.456 243.001 34.456ZM259.8 31.016V34.312H261.144V31.016H259.8ZM260.488 24.712C258.232 24.712 256.6 26.104 256.6 28.12C256.6 30.136 258.232 31.528 260.488 31.528C262.744 31.528 264.36 30.136 264.36 28.12C264.36 26.104 262.744 24.712 260.488 24.712ZM260.488 25.864C261.976 25.864 263.064 26.776 263.064 28.12C263.064 29.464 261.976 30.392 260.488 30.392C258.984 30.392 257.896 29.464 257.896 28.12C257.896 26.776 258.984 25.864 260.488 25.864ZM266.248 23.768V38.264H267.576V23.768H266.248ZM256.056 35.128C258.632 35.128 262.168 35.112 265.416 34.488L265.304 33.512C262.152 34.008 258.504 34.024 255.864 34.024L256.056 35.128ZM271.703 24.456V25.544H281.015V24.456H271.703ZM270.039 29.64V30.728H283.143V29.64H270.039ZM275.911 30.376V33.784H277.223V30.376H275.911ZM280.151 24.456V25.528C280.151 26.696 280.151 28.072 279.671 30.008L280.967 30.168C281.447 28.184 281.447 26.728 281.447 25.528V24.456H280.151ZM271.399 33.352V34.44H280.215V38.248H281.543V33.352H271.399ZM294.79 23.8V34.36H296.134V23.8H294.79ZM286.838 36.84V37.928H296.566V36.84H286.838ZM286.838 33.272V37.208H288.15V33.272H286.838ZM288.374 24.792C286.214 24.792 284.598 26.264 284.598 28.36C284.598 30.44 286.214 31.928 288.374 31.928C290.534 31.928 292.134 30.44 292.134 28.36C292.134 26.264 290.534 24.792 288.374 24.792ZM288.374 25.944C289.782 25.944 290.854 26.936 290.854 28.36C290.854 29.768 289.782 30.76 288.374 30.76C286.966 30.76 285.894 29.768 285.894 28.36C285.894 26.936 286.966 25.944 288.374 25.944ZM298.548 25.304V26.392H307.092V25.304H298.548ZM302.82 27.128C300.74 27.128 299.348 28.152 299.348 29.752C299.348 31.336 300.74 32.344 302.82 32.344C304.868 32.344 306.276 31.336 306.276 29.752C306.276 28.152 304.868 27.128 302.82 27.128ZM302.82 28.168C304.116 28.168 305.012 28.776 305.012 29.752C305.012 30.696 304.116 31.32 302.82 31.32C301.492 31.32 300.612 30.696 300.612 29.752C300.612 28.776 301.492 28.168 302.82 28.168ZM308.404 23.784V32.824H309.732V23.784H308.404ZM309.364 27.768V28.872H311.876V27.768H309.364ZM300.34 33.608V34.696H308.404V38.248H309.732V33.608H300.34ZM302.148 23.704V25.912H303.476V23.704H302.148ZM315.779 24.68V26.616C315.779 28.248 314.643 30.12 312.739 30.952L313.459 31.992C315.587 31.048 316.835 28.776 316.835 26.616V24.68H315.779ZM315.987 24.68V26.616C315.987 28.744 317.187 30.744 319.267 31.576L319.987 30.568C318.131 29.848 317.043 28.216 317.043 26.616V24.68H315.987ZM323.667 23.8V32.712H324.931V23.8H323.667ZM321.363 27.656V28.744H324.099V27.656H321.363ZM320.563 24.072V32.248H321.827V24.072H320.563ZM320.179 33.032C317.187 33.032 315.363 33.992 315.363 35.64C315.363 37.272 317.187 38.216 320.179 38.216C323.155 38.216 325.011 37.272 325.011 35.64C325.011 33.992 323.155 33.032 320.179 33.032ZM320.179 34.072C322.355 34.072 323.683 34.648 323.683 35.64C323.683 36.616 322.355 37.192 320.179 37.192C318.003 37.192 316.659 36.616 316.659 35.64C316.659 34.648 318.003 34.072 320.179 34.072ZM340.604 23.8V32.008H341.948V23.8H340.604ZM332.604 32.84V38.056H341.948V32.84H332.604ZM340.636 33.896V36.984H333.9V33.896H340.636ZM333.852 24.344V25.752C333.852 27.864 332.364 29.816 330.188 30.6L330.844 31.656C333.292 30.744 334.956 28.44 334.956 25.752V24.344H333.852ZM334.092 24.344V25.752C334.092 28.376 335.756 30.536 338.172 31.368L338.828 30.328C336.684 29.608 335.18 27.8 335.18 25.752V24.344H334.092ZM354.859 23.768V38.264H356.187V23.768H354.859ZM345.163 33.672V34.776H346.363C348.843 34.776 351.019 34.68 353.643 34.248L353.499 33.16C350.939 33.576 348.779 33.672 346.363 33.672H345.163ZM345.131 25.128V26.216H350.475V29.208H345.163V34.088H346.491V30.296H351.819V25.128H345.131ZM369.129 23.784V34.472H370.457V23.784H369.129ZM366.009 28.248V29.352H369.385V28.248H366.009ZM364.665 24.904V25.432C364.665 28.296 362.313 30.568 358.777 31.752L359.353 32.824C363.433 31.464 366.057 28.632 366.057 24.904H364.665ZM359.497 24.904V25.992H365.529V24.904H359.497ZM361.321 36.84V37.928H370.825V36.84H361.321ZM361.321 33.4V37.384H362.649V33.4H361.321ZM382.696 23.784V32.44H384.024V23.784H382.696ZM383.656 27.512V28.632H386.168V27.512H383.656ZM378.696 24.84V25.448C378.696 28.152 376.488 30.328 372.808 31.416L373.368 32.488C377.544 31.256 380.12 28.552 380.12 24.84H378.696ZM373.448 24.84V25.944H379.448V24.84H373.448ZM379.496 32.616C376.616 32.616 374.776 33.672 374.776 35.416C374.776 37.16 376.616 38.216 379.496 38.216C382.36 38.216 384.184 37.16 384.184 35.416C384.184 33.672 382.36 32.616 379.496 32.616ZM379.496 33.672C381.576 33.672 382.904 34.328 382.904 35.416C382.904 36.504 381.576 37.16 379.496 37.16C377.416 37.16 376.088 36.504 376.088 35.416C376.088 34.328 377.416 33.672 379.496 33.672ZM396.161 24.712V25.272C396.161 27.96 393.953 30.056 390.289 31.096L390.833 32.136C394.993 30.968 397.553 28.36 397.553 24.712H396.161ZM391.041 24.712V25.784H397.057V24.712H391.041ZM400.705 23.784V32.04H402.033V23.784H400.705ZM397.569 27.496V28.6H400.961V27.496H397.569ZM392.705 32.648V38.056H402.033V32.648H392.705ZM400.737 33.72V36.968H394.017V33.72H400.737ZM407.92 25.032V27.624C407.92 30.264 406.272 33.048 404.176 34.104L404.992 35.16C407.28 33.944 409.008 30.824 409.008 27.624V25.032H407.92ZM408.16 25.032V27.624C408.16 30.728 409.84 33.688 412.08 34.888L412.896 33.832C410.848 32.808 409.232 30.168 409.232 27.624V25.032H408.16ZM414.16 23.784V38.248H415.504V23.784H414.16ZM415.184 29.64V30.76H417.872V29.64H415.184ZM425.641 31.864V37.8H426.953V31.864H425.641ZM432.265 23.784V38.264H433.593V23.784H432.265ZM421.833 32.52C424.521 32.52 428.009 32.472 431.241 31.928L431.161 30.936C428.025 31.384 424.393 31.4 421.657 31.4L421.833 32.52ZM428.985 33.656V34.696H432.601V33.656H428.985ZM426.377 24.504C424.217 24.504 422.745 25.64 422.745 27.352C422.745 29.064 424.217 30.2 426.377 30.2C428.505 30.2 429.993 29.064 429.993 27.352C429.993 25.64 428.505 24.504 426.377 24.504ZM426.377 25.528C427.753 25.528 428.745 26.28 428.745 27.352C428.745 28.44 427.753 29.176 426.377 29.176C424.969 29.176 423.977 28.44 423.977 27.352C423.977 26.28 424.969 25.528 426.377 25.528ZM437.511 25.256V26.344H446.695V25.256H437.511ZM435.959 35.128V36.248H449.031V35.128H435.959ZM446.119 25.256V27.032C446.119 29.112 446.119 31.176 445.495 33.96L446.807 34.088C447.415 31.128 447.415 29.16 447.415 27.032V25.256H446.119ZM446.455 29.256L437.127 29.64L437.319 30.744L446.455 30.248V29.256ZM451.846 32.696V38.056H461.59V32.696H460.278V34.2H453.158V32.696H451.846ZM453.158 35.24H460.278V36.984H453.158V35.24ZM450.182 30.776V31.864H463.254V30.776H450.182ZM456.038 23.928V24.568C456.038 26.36 453.526 27.816 450.918 28.12L451.382 29.144C454.358 28.728 457.19 27.064 457.19 24.568V23.928H456.038ZM456.246 23.928V24.568C456.246 27.064 459.078 28.712 462.038 29.144L462.518 28.12C459.91 27.816 457.382 26.376 457.382 24.568V23.928H456.246ZM453.798 28.984V31.576H455.11V28.984H453.798ZM458.342 28.984V31.576H459.67V28.984H458.342ZM243.001 60.456C244.041 60.456 244.985 59.576 244.985 58.312C244.985 57.016 244.041 56.136 243.001 56.136C241.929 56.136 240.985 57.016 240.985 58.312C240.985 59.576 241.929 60.456 243.001 60.456ZM259.64 51.368V52.84C259.64 54.904 258.168 56.776 255.992 57.544L256.68 58.6C259.112 57.72 260.744 55.496 260.744 52.84V51.368H259.64ZM259.896 51.368V52.84C259.896 55.384 261.56 57.496 263.96 58.312L264.648 57.272C262.504 56.552 261 54.792 261 52.84V51.368H259.896ZM256.344 50.984V52.056H264.264V50.984H256.344ZM266.312 49.8V60.376H267.656V49.8H266.312ZM258.36 62.84V63.928H268.088V62.84H258.36ZM258.36 59.384V63.32H259.672V59.384H258.36ZM270.039 61.368V62.472H283.143V61.368H270.039ZM275.895 58.264V61.832H277.223V58.264H275.895ZM271.623 50.856V51.928H280.215V54.168H271.671V58.136H272.983V55.24H281.527V50.856H271.623ZM271.671 57.576V58.664H281.863V57.576H271.671ZM290.294 50.712V51.272C290.294 53.96 288.086 56.056 284.422 57.096L284.966 58.136C289.126 56.968 291.686 54.36 291.686 50.712H290.294ZM285.174 50.712V51.784H291.19V50.712H285.174ZM294.838 49.784V58.04H296.166V49.784H294.838ZM291.702 53.496V54.6H295.094V53.496H291.702ZM286.838 58.648V64.056H296.166V58.648H286.838ZM294.87 59.72V62.968H288.15V59.72H294.87ZM302.052 51.032V53.624C302.052 56.264 300.404 59.048 298.308 60.104L299.124 61.16C301.412 59.944 303.14 56.824 303.14 53.624V51.032H302.052ZM302.292 51.032V53.624C302.292 56.728 303.972 59.688 306.212 60.888L307.028 59.832C304.98 58.808 303.364 56.168 303.364 53.624V51.032H302.292ZM308.292 49.784V64.248H309.636V49.784H308.292ZM309.316 55.64V56.76H312.004V55.64H309.316ZM316.605 50.712V56.632H323.341V50.712H316.605ZM322.061 51.784V55.576H317.885V51.784H322.061ZM326.365 49.784V58.088H327.693V49.784H326.365ZM322.445 59.8V60.072C322.445 61.512 320.141 62.888 317.629 63.176L318.077 64.2C321.005 63.816 323.581 62.152 323.581 60.072V59.8H322.445ZM322.637 59.8V60.072C322.637 62.104 325.149 63.8 328.093 64.2L328.541 63.176C326.029 62.872 323.789 61.464 323.789 60.072V59.8H322.637ZM318.205 59.064V60.104H328.029V59.064H318.205ZM322.445 57.672V59.528H323.789V57.672H322.445ZM337.03 51.368V52.84C337.03 54.904 335.558 56.776 333.382 57.544L334.07 58.6C336.502 57.72 338.134 55.496 338.134 52.84V51.368H337.03ZM337.286 51.368V52.84C337.286 55.384 338.95 57.496 341.35 58.312L342.038 57.272C339.894 56.552 338.39 54.792 338.39 52.84V51.368H337.286ZM333.734 50.984V52.056H341.654V50.984H333.734ZM343.702 49.8V60.376H345.046V49.8H343.702ZM335.75 62.84V63.928H345.478V62.84H335.75ZM335.75 59.384V63.32H337.062V59.384H335.75ZM347.429 61.368V62.472H360.533V61.368H347.429ZM353.285 58.264V61.832H354.613V58.264H353.285ZM349.013 50.856V51.928H357.605V54.168H349.061V58.136H350.373V55.24H358.917V50.856H349.013ZM349.061 57.576V58.664H359.253V57.576H349.061ZM362.435 50.904V51.992H368.835V50.904H362.435ZM364.611 54.136V57.752H365.923V54.136H364.611ZM368.307 50.904V51.672C368.307 52.6 368.307 53.912 367.939 55.816L369.235 55.96C369.619 54.056 369.619 52.616 369.619 51.672V50.904H368.307ZM371.587 49.784V60.68H372.915V49.784H371.587ZM372.307 54.488V55.592H374.979V54.488H372.307ZM363.779 62.84V63.928H373.379V62.84H363.779ZM363.779 59.672V63.176H365.091V59.672H363.779ZM361.699 58.376C364.243 58.376 367.699 58.312 370.707 57.784L370.611 56.824C367.683 57.224 364.131 57.288 361.555 57.288L361.699 58.376ZM376.498 57.4V58.504H377.538C380.322 58.504 381.842 58.44 383.682 58.12L383.554 57.032C381.746 57.352 380.274 57.4 377.538 57.4H376.498ZM376.466 50.808V51.88H381.378V53.992H376.498V58.056H377.81V55.048H382.69V50.808H376.466ZM386.466 49.8V60.44H387.794V49.8H386.466ZM383.666 52.216V53.288H386.786V52.216H383.666ZM378.45 62.776V63.864H388.242V62.776H378.45ZM378.45 59.656V63.256H379.762V59.656H378.45ZM383.666 55.464V56.552H386.786V55.464H383.666ZM397.163 57.864V63.8H398.475V57.864H397.163ZM403.787 49.784V64.264H405.115V49.784H403.787ZM393.355 58.52C396.043 58.52 399.531 58.472 402.763 57.928L402.683 56.936C399.547 57.384 395.915 57.4 393.179 57.4L393.355 58.52ZM400.507 59.656V60.696H404.123V59.656H400.507ZM397.899 50.504C395.739 50.504 394.267 51.64 394.267 53.352C394.267 55.064 395.739 56.2 397.899 56.2C400.027 56.2 401.515 55.064 401.515 53.352C401.515 51.64 400.027 50.504 397.899 50.504ZM397.899 51.528C399.275 51.528 400.267 52.28 400.267 53.352C400.267 54.44 399.275 55.176 397.899 55.176C396.491 55.176 395.499 54.44 395.499 53.352C395.499 52.28 396.491 51.528 397.899 51.528ZM409.034 51.256V52.344H418.218V51.256H409.034ZM407.482 61.128V62.248H420.554V61.128H407.482ZM417.642 51.256V53.032C417.642 55.112 417.642 57.176 417.018 59.96L418.33 60.088C418.938 57.128 418.938 55.16 418.938 53.032V51.256H417.642ZM417.978 55.256L408.65 55.64L408.842 56.744L417.978 56.248V55.256ZM423.369 58.696V64.056H433.113V58.696H431.801V60.2H424.681V58.696H423.369ZM424.681 61.24H431.801V62.984H424.681V61.24ZM421.705 56.776V57.864H434.777V56.776H421.705ZM427.561 49.928V50.568C427.561 52.36 425.049 53.816 422.441 54.12L422.905 55.144C425.881 54.728 428.713 53.064 428.713 50.568V49.928H427.561ZM427.769 49.928V50.568C427.769 53.064 430.601 54.712 433.561 55.144L434.041 54.12C431.433 53.816 428.905 52.376 428.905 50.568V49.928H427.769ZM425.321 54.984V57.576H426.633V54.984H425.321ZM429.865 54.984V57.576H431.193V54.984H429.865Z" fill="#082B52"/>
<path d="M807.009 30.44C808.065 30.44 809.009 29.576 809.009 28.296C809.009 27 808.065 26.136 807.009 26.136C805.937 26.136 805.009 27 805.009 28.296C805.009 29.576 805.937 30.44 807.009 30.44ZM824.68 22.392H827.864V21.304H820.104V22.392H823.384V24.216C823.384 26.648 821.656 29.368 819.608 30.392L820.376 31.432C821.992 30.6 823.384 28.776 824.04 26.68C824.696 28.6 826.04 30.28 827.64 31.08L828.392 30.024C826.312 29.048 824.68 26.504 824.68 24.216V22.392ZM833.256 25.624H830.888V19.848H829.576V34.184H830.888V26.728H833.256V25.624ZM842.407 25.72C840.311 25.048 838.903 23.368 838.903 21.432V20.328H837.591V21.448C837.591 23.576 836.167 25.4 834.007 26.136L834.647 27.176C836.375 26.568 837.687 25.304 838.279 23.656C838.919 25.08 840.151 26.2 841.735 26.744L842.407 25.72ZM837.431 31.416H845.223V27.976H836.103V29.016H843.927V30.44H836.151V34.024H845.751V32.984H837.431V31.416ZM845.223 22.968V19.848H843.911V27.336H845.223V24.056H847.351V22.968H845.223ZM854.502 27.672C854.582 27.16 854.63 26.632 854.63 26.024C854.63 25.416 854.582 24.888 854.502 24.376H856.454V27.672H854.502ZM851.558 29.816C850.422 29.816 849.686 28.36 849.686 26.024C849.686 23.704 850.422 22.248 851.558 22.248C852.71 22.248 853.43 23.704 853.43 26.024C853.43 28.36 852.71 29.816 851.558 29.816ZM856.454 23.304H854.23C853.734 21.864 852.806 21.032 851.558 21.032C849.702 21.032 848.502 22.952 848.502 26.024C848.502 29.112 849.702 31.032 851.558 31.032C852.806 31.032 853.718 30.2 854.23 28.76H856.454V33.48H857.702V20.152H856.454V23.304ZM859.27 19.832V34.184H860.518V19.832H859.27ZM868.516 26.296H864.452V23.928H868.516V26.296ZM869.796 20.744H868.516V22.904H864.452V20.744H863.156V27.352H869.796V20.744ZM869.14 33.144C866.996 33.144 865.716 32.536 865.716 31.512C865.716 30.488 866.996 29.896 869.14 29.896C871.252 29.896 872.548 30.488 872.548 31.512C872.548 32.536 871.252 33.144 869.14 33.144ZM869.14 28.84C866.212 28.84 864.404 29.816 864.404 31.512C864.404 33.208 866.212 34.184 869.14 34.184C872.052 34.184 873.86 33.208 873.86 31.512C873.86 29.816 872.052 28.84 869.14 28.84ZM873.7 23.448V19.832H872.388V28.472H873.7V24.536H875.828V23.448H873.7ZM807.009 56.44C808.065 56.44 809.009 55.576 809.009 54.296C809.009 53 808.065 52.136 807.009 52.136C805.937 52.136 805.009 53 805.009 54.296C805.009 55.576 805.937 56.44 807.009 56.44ZM828.536 52.328C826.408 51.624 824.904 49.832 824.904 47.8V46.408H823.592V47.8C823.592 49.912 822.12 51.832 819.944 52.616L820.616 53.64C822.312 53.016 823.64 51.688 824.264 50.024C824.92 51.576 826.232 52.792 827.88 53.368L828.536 52.328ZM823.624 55.864H830.344V58.936H823.624V55.864ZM822.344 59.992H831.624V54.824H822.344V59.992ZM830.312 45.848V54.008H831.624V45.848H830.312ZM836.231 52.28H841.527V47.16H834.871V48.232H840.199V51.224H834.919V56.728H836.103C838.567 56.728 840.743 56.632 843.335 56.2L843.207 55.128C840.695 55.528 838.583 55.64 836.231 55.64V52.28ZM844.551 45.816V60.2H845.863V45.816H844.551ZM854.278 52.296H850.214V49.928H854.278V52.296ZM855.558 46.744H854.278V48.904H850.214V46.744H848.918V53.352H855.558V46.744ZM854.902 59.144C852.758 59.144 851.478 58.536 851.478 57.512C851.478 56.488 852.758 55.896 854.902 55.896C857.014 55.896 858.31 56.488 858.31 57.512C858.31 58.536 857.014 59.144 854.902 59.144ZM854.902 54.84C851.974 54.84 850.166 55.816 850.166 57.512C850.166 59.208 851.974 60.184 854.902 60.184C857.814 60.184 859.622 59.208 859.622 57.512C859.622 55.816 857.814 54.84 854.902 54.84ZM859.462 49.448V45.832H858.15V54.472H859.462V50.536H861.59V49.448H859.462ZM864.788 56.152H873.06V60.2H874.388V55.08H864.788V56.152ZM870.004 51.16C870.1 50.824 870.164 50.472 870.164 50.072C870.164 49.688 870.1 49.336 870.004 49H873.06V51.16H870.004ZM866.468 52.424C865.076 52.424 864.036 51.448 864.036 50.072C864.036 48.728 865.076 47.752 866.468 47.752C867.876 47.752 868.916 48.728 868.916 50.072C868.916 51.448 867.876 52.424 866.468 52.424ZM873.06 45.848V47.944H869.444C868.772 47.128 867.716 46.632 866.468 46.632C864.356 46.632 862.788 48.056 862.788 50.072C862.788 52.104 864.356 53.544 866.468 53.544C867.716 53.544 868.756 53.048 869.428 52.232H873.06V54.296H874.388V45.832L873.06 45.848ZM891.357 51.032H882.909V49.592H890.893V48.6H882.909V47.24H891.277V46.216H881.597V52.056H891.357V51.032ZM881.341 56.904H889.885V60.2H891.197V55.864H881.341V56.904ZM879.885 53.416V54.472H892.877V53.416H879.885ZM894.78 46.904V47.96H899.98C899.74 50.44 897.58 52.392 894.172 53.4L894.7 54.456C898.86 53.224 901.404 50.552 901.404 46.904H894.78ZM900.78 59.128C898.716 59.128 897.404 58.472 897.404 57.384C897.404 56.28 898.716 55.624 900.78 55.624C902.844 55.624 904.156 56.28 904.156 57.384C904.156 58.472 902.844 59.128 900.78 59.128ZM900.78 54.6C897.948 54.6 896.108 55.64 896.108 57.384C896.108 59.112 897.948 60.168 900.78 60.168C903.612 60.168 905.452 59.112 905.452 57.384C905.452 55.64 903.612 54.6 900.78 54.6ZM905.276 49.544V45.832H903.964V54.408H905.276V50.632H907.404V49.544H905.276ZM807.009 82.44C808.065 82.44 809.009 81.576 809.009 80.296C809.009 79 808.065 78.136 807.009 78.136C805.937 78.136 805.009 79 805.009 80.296C805.009 81.576 805.937 82.44 807.009 82.44ZM821.4 75.528C821.4 74.296 822.424 73.4 823.816 73.4C825.224 73.4 826.248 74.296 826.248 75.528C826.248 76.792 825.224 77.672 823.816 77.672C822.424 77.672 821.4 76.792 821.4 75.528ZM827.528 75.528C827.528 73.656 825.976 72.344 823.816 72.344C821.672 72.344 820.12 73.656 820.12 75.528C820.12 77.432 821.672 78.744 823.816 78.744C825.976 78.744 827.528 77.432 827.528 75.528ZM823.192 83.336H830.984V79.816H821.864V80.856H829.688V82.36H821.912V85.992H831.512V84.936H823.192V83.336ZM830.984 74.92V71.832H829.672V79.144H830.984V76.008H833.112V74.92H830.984ZM835.255 77.048L835.447 78.168L844.119 77.704C844.023 78.696 843.879 79.816 843.607 81.096L844.903 81.256C845.511 78.312 845.511 76.344 845.511 74.584V73.224H835.639V74.296H844.215V74.584C844.215 75.24 844.215 75.928 844.183 76.68L835.255 77.048ZM840.455 83.16V79.432H839.143V83.16H834.087V84.232H847.063V83.16H840.455ZM851.206 83.56H859.638V80.312H849.878V81.304H858.342V82.584H849.926V86.024H860.07V85H851.206V83.56ZM851.11 74.488C851.11 73.528 852.454 72.984 854.806 72.984C857.158 72.984 858.502 73.528 858.502 74.488C858.502 75.448 857.158 75.992 854.806 75.992C852.454 75.992 851.11 75.448 851.11 74.488ZM855.462 78.056V76.968C858.214 76.856 859.846 75.992 859.846 74.488C859.846 72.872 857.974 71.992 854.806 71.992C851.654 71.992 849.766 72.872 849.766 74.488C849.766 75.976 851.382 76.856 854.15 76.968V78.056H848.326V79.112H861.286V78.056H855.462ZM866.862 77.688C869.214 77.4 871.374 76.344 872.158 74.76C872.958 76.344 875.102 77.4 877.454 77.688L877.918 76.648C875.406 76.36 873.118 75.128 873.006 73.544H877.47V72.488H866.862V73.544H871.31C871.198 75.128 868.91 76.36 866.398 76.648L866.862 77.688ZM875.726 83.64C875.726 84.6 874.382 85.16 872.142 85.16C869.886 85.16 868.558 84.6 868.558 83.64C868.558 82.68 869.886 82.136 872.142 82.136C874.382 82.136 875.726 82.68 875.726 83.64ZM878.638 79.608V78.552H865.662V79.608H871.486V81.144C868.814 81.272 867.23 82.152 867.23 83.64C867.23 85.272 869.086 86.168 872.158 86.168C875.214 86.168 877.054 85.272 877.054 83.64C877.054 82.152 875.486 81.272 872.814 81.144V79.608H878.638ZM881.341 82.504H889.981V86.296H891.309V81.432H881.341V82.504ZM887.053 78.984V77.272H891.405V76.216H882.845V73.464H891.277V72.408H881.533V77.272H885.741V78.984H879.901V80.04H892.893V78.984H887.053ZM807.009 108.44C808.065 108.44 809.009 107.576 809.009 106.296C809.009 105 808.065 104.136 807.009 104.136C805.937 104.136 805.009 105 805.009 106.296C805.009 107.576 805.937 108.44 807.009 108.44ZM831.624 97.848H830.312V108.328H831.624V97.848ZM821.464 102.36C821.464 100.968 822.52 99.976 823.912 99.976C825.336 99.976 826.392 100.968 826.392 102.36C826.392 103.784 825.336 104.776 823.912 104.776C822.52 104.776 821.464 103.784 821.464 102.36ZM827.672 102.36C827.672 100.296 826.056 98.84 823.912 98.84C821.784 98.84 820.184 100.296 820.184 102.36C820.184 104.44 821.784 105.912 823.912 105.912C826.056 105.912 827.672 104.44 827.672 102.36ZM823.704 110.792V107.256H822.392V111.864H832.056V110.792H823.704ZM836.055 104.232H840.759V103.176H836.055V100.216H841.383V99.128H834.743V108.744H835.847C838.583 108.744 840.327 108.664 842.407 108.296L842.263 107.224C840.311 107.576 838.647 107.672 836.055 107.672V104.232ZM844.599 97.816V103.24H841.639V104.328H844.599V112.2H845.911V97.816H844.599ZM860.486 97.832H859.238V107.544H860.486V97.832ZM856.358 106.264H857.606V98.136H856.358V101.112H853.302V102.168H856.358V106.264ZM854.998 104.2C853.318 104.552 851.862 104.664 850.39 104.68V99.128H849.094V105.768H850.006C851.686 105.768 853.238 105.672 855.126 105.272L854.998 104.2ZM856.326 106.824H855.014V107.336C855.014 109.192 852.694 110.728 850.182 111.112L850.662 112.136C852.79 111.768 854.79 110.68 855.67 109.096C856.55 110.68 858.566 111.768 860.694 112.136L861.19 111.112C858.662 110.728 856.326 109.192 856.326 107.336V106.824ZM866.862 103.688C869.214 103.4 871.374 102.344 872.158 100.76C872.958 102.344 875.102 103.4 877.454 103.688L877.918 102.648C875.406 102.36 873.118 101.128 873.006 99.544H877.47V98.488H866.862V99.544H871.31C871.198 101.128 868.91 102.36 866.398 102.648L866.862 103.688ZM875.726 109.64C875.726 110.6 874.382 111.16 872.142 111.16C869.886 111.16 868.558 110.6 868.558 109.64C868.558 108.68 869.886 108.136 872.142 108.136C874.382 108.136 875.726 108.68 875.726 109.64ZM878.638 105.608V104.552H865.662V105.608H871.486V107.144C868.814 107.272 867.23 108.152 867.23 109.64C867.23 111.272 869.086 112.168 872.158 112.168C875.214 112.168 877.054 111.272 877.054 109.64C877.054 108.152 875.486 107.272 872.814 107.144V105.608H878.638ZM881.341 108.504H889.981V112.296H891.309V107.432H881.341V108.504ZM887.053 104.984V103.272H891.405V102.216H882.845V99.464H891.277V98.408H881.533V103.272H885.741V104.984H879.901V106.04H892.893V104.984H887.053ZM807.009 134.44C808.065 134.44 809.009 133.576 809.009 132.296C809.009 131 808.065 130.136 807.009 130.136C805.937 130.136 805.009 131 805.009 132.296C805.009 133.576 805.937 134.44 807.009 134.44ZM832.088 128.344C829.544 128.008 827.016 126.408 827.016 124.616V123.992H825.672V124.616C825.672 126.456 823.16 127.992 820.584 128.344L821.064 129.368C823.288 129.032 825.448 127.912 826.344 126.296C827.256 127.912 829.4 129.032 831.608 129.368L832.088 128.344ZM827.928 136.904H824.76V134.216H827.928V136.904ZM832.824 131.528V130.472H819.832V131.528H825.672V133.16H821.288V134.216H823.464V136.904H821.16V137.96H831.528V136.904H829.224V134.216H831.4V133.16H827V131.528H832.824ZM845.441 131.32H841.873V126.328H845.441V131.32ZM840.561 131.32H838.369V132.392H848.945V131.32H846.753V126.328H848.977V125.272H838.337V126.328H840.561V131.32ZM837.185 135.256V136.344H850.193V135.256H837.185ZM858.576 135.336V132.632H863.168V131.576H854.336V129.256H862.832V124.888H853.008V125.96H861.552V128.2H853.04V132.632H857.248V135.336H851.408V136.408H864.448V135.336H858.576ZM875.614 126.792C875.614 128.568 875.614 130.712 875.038 133.64L876.35 133.784C876.91 130.68 876.91 128.616 876.91 126.792V125.352H867.07V126.424H875.614V126.792ZM865.678 135V136.088H878.654V135H865.678ZM886.765 130.296C885.085 130.632 883.677 130.712 881.821 130.712V128.68H885.917V124.776H880.525V125.832H884.653V127.688H880.557V131.768H881.501C883.565 131.768 885.069 131.688 886.893 131.352L886.765 130.296ZM883.869 134.136H890.733V136.936H883.869V134.136ZM882.589 137.992H892.013V133.096H882.589V137.992ZM890.749 123.832V127.48H888.829V124.104H887.581V132.216H888.829V128.552H890.749V132.408H892.013V123.832H890.749Z" fill="#082B52"/>
<path d="M90.3401 108.292C91.7261 108.292 92.6981 109.012 92.6981 110.128C92.6981 111.262 91.7261 111.964 90.3401 111.964C88.9361 111.964 87.9641 111.262 87.9641 110.128C87.9641 109.012 88.9361 108.292 90.3401 108.292ZM90.3401 113.404C92.7341 113.404 94.4441 112.09 94.4441 110.128C94.4441 108.202 92.7341 106.888 90.3401 106.888C87.9281 106.888 86.2181 108.202 86.2181 110.128C86.2181 112.09 87.9281 113.404 90.3401 113.404ZM95.6501 114.034C92.1401 114.52 88.1081 114.556 85.0481 114.556L85.2821 116.086C86.5061 116.086 87.8741 116.068 89.3141 116.014V121.882H91.1681V115.924C92.6981 115.834 94.2461 115.672 95.7581 115.402L95.6501 114.034ZM96.7841 106.132V117.148H93.3101V118.57H96.7841V122.386H98.6561V106.132H96.7841ZM102.399 112.54L102.633 114.052L112.227 113.566C112.137 114.754 111.957 116.032 111.615 117.49L113.451 117.652C114.171 114.232 114.171 112 114.171 109.642V107.68H102.849V109.174H112.353V109.642C112.353 110.47 112.353 111.298 112.317 112.162L102.399 112.54ZM101.139 118.75V120.28H115.827V118.75H101.139ZM131.053 110.776C127.777 110.416 125.437 108.814 125.437 106.942V106.312H123.529V106.942C123.529 108.796 121.189 110.416 117.931 110.776L118.579 112.198C121.225 111.856 123.421 110.74 124.465 109.12C125.527 110.758 127.741 111.856 130.405 112.198L131.053 110.776ZM128.191 120.712H120.793V119.056H128.191V120.712ZM128.191 117.634H120.793V116.158H118.957V122.188H130.027V116.158H128.191V117.634ZM127.921 113.836V111.982H126.067V113.836H122.935V111.982H121.081V113.836H117.139V115.33H131.863V113.836H127.921Z" fill="white"/>
<path d="M670.179 111.928H660.837V110.614H669.675V109.228H660.837V107.968H670.071V106.546H658.983V113.35H670.179V111.928ZM658.749 118.966H668.109V122.404H669.963V117.472H658.749V118.966ZM657.093 114.646V116.14H671.817V114.646H657.093ZM673.814 107.266V108.778H679.394C679.07 111.298 676.856 113.35 673.094 114.43L673.85 115.906C678.602 114.538 681.41 111.514 681.41 107.266H673.814ZM680.654 120.928C678.494 120.928 677.126 120.28 677.126 119.164C677.126 118.03 678.494 117.382 680.654 117.382C682.832 117.382 684.182 118.03 684.182 119.164C684.182 120.28 682.832 120.928 680.654 120.928ZM680.654 115.906C677.414 115.906 675.29 117.148 675.29 119.164C675.29 121.162 677.414 122.386 680.654 122.386C683.912 122.386 686.018 121.162 686.018 119.164C686.018 117.148 683.912 115.906 680.654 115.906ZM685.838 110.146V106.132H683.984V115.69H685.838V111.676H688.142V110.146H685.838Z" fill="white"/>
<g clip-path="url(#clip0_101_671)">
<path d="M120.138 58.3301H107.524V61.4191H120.138V58.3301Z" fill="#5EA7EA"/>
<path d="M136.098 46.7461H123.484V49.8352H136.098V46.7461Z" fill="#5EA7EA"/>
<path d="M120.756 58.4844L124.102 61.8309V79.6959H120.756V58.4844Z" fill="#5EA7EA"/>
<path d="M136.716 47.6211H123.948C123.433 47.6211 123.021 47.2092 123.021 46.6944V33.9263C123.021 33.5659 123.227 33.257 123.588 33.1025C123.948 32.9481 124.309 32.9995 124.566 33.257L137.386 46.0765C137.643 46.334 137.746 46.7458 137.592 47.0547C137.437 47.3636 137.077 47.6211 136.716 47.6211ZM124.823 45.8191H134.554L124.823 36.0886V45.8191Z" fill="white"/>
<path d="M136.716 80.7774H120.756C120.241 80.7774 119.829 80.3655 119.829 79.8507C119.829 79.3358 120.241 78.924 120.756 78.924H135.841V47.0037L123.587 34.8019H99.2353V42.6276C99.2353 43.1424 98.8234 43.5543 98.3086 43.5543C97.7937 43.5543 97.3818 43.1424 97.3818 42.6276V33.9267C97.3818 33.4119 97.7937 33 98.3086 33H123.896C124.154 33 124.36 33.103 124.514 33.2574L137.334 46.077C137.488 46.2315 137.591 46.4889 137.591 46.6948V79.9022C137.643 80.3655 137.231 80.7774 136.716 80.7774Z" fill="white"/>
<path d="M128.376 63.8906H120.756V71.5103H128.376V63.8906Z" fill="#5EA7EA"/>
<path d="M128.325 72.3855H120.757C120.242 72.3855 119.83 71.9736 119.83 71.4588V63.8906C119.83 63.3757 120.242 62.9639 120.757 62.9639H128.376C128.891 62.9639 129.303 63.3757 129.303 63.8906V71.5103C129.252 71.9736 128.84 72.3855 128.325 72.3855ZM121.632 70.5835H127.45V64.7658H121.632V70.5835Z" fill="white"/>
<path d="M120.755 59.4114H107.936C107.421 59.4114 107.009 58.9996 107.009 58.4847V45.7166C107.009 45.3562 107.215 45.0473 107.575 44.8929C107.936 44.7384 108.296 44.8414 108.553 45.0988L121.373 57.9184C121.63 58.1758 121.733 58.5877 121.579 58.8966C121.424 59.154 121.115 59.4114 120.755 59.4114ZM108.862 57.6095H118.593L108.862 47.879V57.6095Z" fill="white"/>
<path d="M120.755 92.5674H82.3476C81.8328 92.5674 81.4209 92.1556 81.4209 91.6407V45.7168C81.4209 45.2019 81.8328 44.79 82.3476 44.79H107.935C108.193 44.79 108.399 44.893 108.553 45.0475L121.373 57.867C121.527 58.0215 121.63 58.2789 121.63 58.4849V91.6922C121.63 92.1556 121.218 92.5674 120.755 92.5674ZM83.2743 90.7655H119.88V58.8452L107.575 46.592H83.2743V90.7655Z" fill="white"/>
<path d="M112.362 75.6807H78.3828V83.3003H112.362V75.6807Z" fill="#5EA7EA"/>
<path d="M112.363 84.1755H78.3837C77.8689 84.1755 77.457 83.7637 77.457 83.2488V75.6806C77.457 75.1658 77.8689 74.7539 78.3837 74.7539H112.363C112.878 74.7539 113.29 75.1658 113.29 75.6806V83.3003C113.239 83.7637 112.827 84.1755 112.363 84.1755ZM79.259 82.3736H111.437V76.6073H79.259V82.3736Z" fill="white"/>
</g>
<g clip-path="url(#clip1_101_671)">
<path d="M685.349 75.3203H682.418V82.6471H685.349V75.3203Z" fill="#5EA7EA"/>
<path d="M672.405 47.7227C672.405 47.7227 683.884 51.8745 684.861 65.7954L690.478 74.099H687.596L682.272 66.2838C682.272 66.2838 683.151 53.0956 672.405 47.7227Z" fill="#5EA7EA"/>
<path d="M699.22 83.8683H681.978C681.49 83.8683 681.099 83.4775 681.099 82.989C681.099 82.5006 681.49 82.1098 681.978 82.1098H698.341V37.6607H671.086V43.5222C671.086 44.0106 670.695 44.4014 670.206 44.4014C669.718 44.4014 669.376 44.0595 669.376 43.571V36.8792C669.376 36.3908 669.767 36 670.255 36H699.269C699.758 36 700.148 36.3908 700.148 36.8792V83.0379C700.1 83.4775 699.709 83.8683 699.22 83.8683Z" fill="white"/>
<path d="M686.179 91.6348H668.937C668.888 91.6348 663.368 91.5859 663.368 85.4803V75.7601C663.368 75.2716 663.759 74.8809 664.247 74.8809C664.736 74.8809 665.127 75.2716 665.127 75.7601V85.4803C665.127 89.8763 668.839 89.9252 668.985 89.9252H686.228C691.259 89.9252 692.04 85.2849 692.04 85.0895C692.089 84.601 692.529 84.308 693.017 84.3568C693.506 84.4057 693.799 84.8453 693.75 85.3337C693.359 87.5318 691.356 91.6348 686.179 91.6348Z" fill="white"/>
<path d="M673.284 92.0739C672.796 92.0739 672.405 91.6831 672.405 91.1947V86.3102C672.405 85.8217 672.796 85.431 673.284 85.431H675.726C680.855 85.431 681.392 79.7649 681.392 79.3253V74.4408C681.392 73.9523 681.783 73.5616 682.272 73.5616H685.984L681.49 66.7233C681.392 66.5767 681.343 66.3814 681.343 66.2348C681.343 65.9906 681.343 65.6975 681.343 65.4533C681.343 55.3423 673.089 47.0875 662.978 47.0875C652.867 47.0875 644.71 55.3423 644.71 65.4533C644.71 69.6051 646.077 73.5127 648.617 76.7854C648.715 76.9319 648.813 77.1273 648.813 77.3227V91.2435C648.813 91.732 648.422 92.1227 647.933 92.1227C647.445 92.1227 647.054 91.732 647.054 91.2435V77.6157C644.417 74.0989 643 69.8982 643 65.4533C643 54.3654 651.988 45.3779 663.075 45.3779C674.163 45.3779 683.151 54.3654 683.151 65.4533C683.151 65.6487 683.151 65.8441 683.151 66.0394L688.328 73.9523C688.524 74.1966 688.524 74.5385 688.377 74.8316C688.231 75.1246 687.938 75.2712 687.644 75.2712H683.2V79.3253V79.3742C683.053 82.0607 681.295 87.1405 675.824 87.1405H674.212V91.1947C674.163 91.6831 673.772 92.0739 673.284 92.0739Z" fill="white"/>
<path d="M661.268 61.5948C660.779 61.5948 660.389 61.204 660.389 60.7156V45.4759C660.389 44.9874 660.779 44.5967 661.268 44.5967C661.756 44.5967 662.147 44.9874 662.147 45.4759V60.7644C662.147 61.2529 661.756 61.5948 661.268 61.5948Z" fill="white"/>
<path d="M665.175 61.5948C664.687 61.5948 664.296 61.204 664.296 60.7156V45.4759C664.296 44.9874 664.687 44.5967 665.175 44.5967C665.664 44.5967 666.054 44.9874 666.054 45.4759V60.7644C666.054 61.2529 665.664 61.5948 665.175 61.5948Z" fill="white"/>
<path d="M672.942 68.2866C672.942 62.9136 668.595 58.5664 663.222 58.5664C657.849 58.5664 653.502 62.9136 653.502 68.2866C653.502 73.6596 657.849 78.0068 663.222 78.0068C668.595 78.0068 672.942 73.6596 672.942 68.2866Z" fill="#5EA7EA"/>
<path d="M663.223 73.8545C660.145 73.8545 657.654 71.3634 657.654 68.2861C657.654 65.2089 660.145 62.7178 663.223 62.7178C666.3 62.7178 668.791 65.2089 668.791 68.2861C668.791 71.3634 666.3 73.8545 663.223 73.8545ZM663.223 64.3785C661.073 64.3785 659.364 66.1369 659.364 68.2373C659.364 70.3865 661.122 72.096 663.223 72.096C665.323 72.096 667.081 70.3376 667.081 68.2373C667.13 66.1369 665.372 64.3785 663.223 64.3785Z" fill="white"/>
<path d="M695.899 82.1583C695.899 80.4487 694.531 79.0811 692.821 79.0811C691.112 79.0811 689.744 80.4487 689.744 82.1583C689.744 83.8679 691.112 85.2355 692.821 85.2355C694.531 85.2355 695.899 83.8679 695.899 82.1583Z" fill="#5EA7EA"/>
<path d="M692.822 86.0662C690.672 86.0662 688.914 84.3078 688.914 82.1586C688.914 80.0094 690.672 78.251 692.822 78.251C694.971 78.251 696.729 80.0094 696.729 82.1586C696.778 84.3078 695.02 86.0662 692.822 86.0662ZM692.822 79.9606C691.601 79.9606 690.624 80.9375 690.624 82.1586C690.624 83.3797 691.601 84.3566 692.822 84.3566C694.043 84.3566 695.02 83.3797 695.02 82.1586C695.069 80.9375 694.043 79.9606 692.822 79.9606Z" fill="white"/>
<path d="M692.676 45.6715H676.801C676.313 45.6715 675.922 45.2808 675.922 44.7923C675.922 44.3038 676.313 43.9131 676.801 43.9131H692.676C693.164 43.9131 693.555 44.3038 693.555 44.7923C693.555 45.2808 693.164 45.6715 692.676 45.6715Z" fill="white"/>
<path d="M692.676 52.0211H682.174C681.686 52.0211 681.295 51.6303 681.295 51.1907C681.295 50.7023 681.686 50.3115 682.174 50.3115H692.676C693.164 50.3115 693.555 50.7023 693.555 51.1907C693.555 51.6303 693.164 52.0211 692.676 52.0211Z" fill="white"/>
<path d="M692.676 58.3707H686.815C686.326 58.3707 685.936 57.98 685.936 57.4915C685.936 57.0031 686.326 56.6123 686.815 56.6123H692.676C693.165 56.6123 693.555 57.0031 693.555 57.4915C693.555 57.98 693.165 58.3707 692.676 58.3707Z" fill="white"/>
<path d="M692.676 64.7213H686.815C686.326 64.7213 685.936 64.3306 685.936 63.8421C685.936 63.3537 686.326 62.9629 686.815 62.9629H692.676C693.165 62.9629 693.555 63.3537 693.555 63.8421C693.555 64.3306 693.165 64.7213 692.676 64.7213Z" fill="white"/>
<path d="M692.675 71.0709H689.256C688.768 71.0709 688.377 70.6802 688.377 70.1917C688.377 69.7033 688.768 69.3125 689.256 69.3125H692.675C693.164 69.3125 693.555 69.7033 693.555 70.1917C693.555 70.6802 693.164 71.0709 692.675 71.0709Z" fill="white"/>
</g>
<defs>
<clipPath id="clip0_101_671">
<rect width="60.1851" height="59.5673" fill="white" transform="translate(77.458 33)"/>
</clipPath>
<clipPath id="clip1_101_671">
<rect width="57.1" height="56.0742" fill="white" transform="translate(643 36)"/>
</clipPath>
</defs>
</svg>
