<svg width="1078" height="608" viewBox="0 0 1078 608" fill="none" xmlns="http://www.w3.org/2000/svg">
<path d="M735.34 302.666C735.34 412.181 647.647 500.95 539.486 500.95C431.325 500.95 343.633 412.181 343.633 302.666C343.633 193.152 431.325 104.383 539.486 104.383C647.647 104.383 735.34 193.152 735.34 302.666Z" stroke="#222222"/>
<path d="M368.491 399.371L538.514 104.883L708.537 399.371H368.491Z" stroke="#222222"/>
<path d="M346.534 283.712L661.477 148.111" stroke="#222222"/>
<path d="M732.923 283.712L417.98 148.111" stroke="#222222"/>
<path d="M345.562 282.74L471.929 488.328" stroke="#222222"/>
<path d="M733.896 282.74L607.529 488.328" stroke="#222222"/>
<path d="M418.952 147.141L471.443 487.843" stroke="#222222"/>
<path d="M660.992 147.141L608.502 487.843" stroke="#222222"/>
<rect x="483" y="53" width="111.184" height="37.659" rx="5.53456" fill="#082B52"/>
<rect x="372" y="515" width="111.184" height="37.659" rx="5.53456" fill="#082B52"/>
<rect x="602" y="515" width="111.184" height="37.659" rx="5.53456" fill="#082B52"/>
<rect x="662" y="97" width="111.184" height="37.659" rx="5.53456" fill="#082B52"/>
<rect x="729" y="386" width="111.184" height="37.659" rx="5.53456" fill="#082B52"/>
<rect x="310" y="97" width="111.184" height="37.659" rx="5.53456" fill="#082B52"/>
<rect x="237" y="386" width="111.184" height="37.659" rx="5.53456" fill="#082B52"/>
<rect x="221" y="263" width="111.184" height="37.659" rx="5.53456" fill="#082B52"/>
<rect x="746" y="263" width="111.184" height="37.659" rx="5.53456" fill="#082B52"/>
<path d="M512.854 77.054C512.525 77.054 512.157 77.0257 511.749 76.969C511.352 76.9123 511.024 76.8387 510.763 76.748C510.661 76.714 510.616 76.6403 510.627 76.527L510.678 75.167C510.701 75.0083 510.791 74.963 510.95 75.031C511.245 75.1443 511.556 75.218 511.885 75.252C512.225 75.286 512.593 75.303 512.99 75.303C513.579 75.303 514.078 75.2067 514.486 75.014C514.905 74.81 515.257 74.5323 515.54 74.181C515.823 73.8297 516.044 73.416 516.203 72.94C516.373 72.464 516.498 71.954 516.577 71.41C516.475 71.546 516.333 71.682 516.152 71.818C515.982 71.9427 515.789 72.056 515.574 72.158C515.37 72.2487 515.155 72.328 514.928 72.396C514.701 72.4527 514.48 72.481 514.265 72.481C513.653 72.481 513.092 72.3847 512.582 72.192C512.083 71.988 511.653 71.7047 511.29 71.342C510.927 70.968 510.644 70.526 510.44 70.016C510.247 69.4947 510.151 68.911 510.151 68.265C510.151 67.6417 510.247 67.0637 510.44 66.531C510.633 65.987 510.91 65.5167 511.273 65.12C511.647 64.7233 512.095 64.4117 512.616 64.185C513.137 63.9583 513.721 63.845 514.367 63.845C515.704 63.845 516.73 64.3493 517.444 65.358C518.169 66.3553 518.532 67.9137 518.532 70.033C518.532 70.985 518.436 71.8917 518.243 72.753C518.05 73.603 517.727 74.3453 517.274 74.98C516.832 75.6147 516.248 76.119 515.523 76.493C514.798 76.867 513.908 77.054 512.854 77.054ZM514.333 65.528C513.653 65.528 513.098 65.766 512.667 66.242C512.236 66.718 512.021 67.364 512.021 68.18C512.021 68.962 512.208 69.5797 512.582 70.033C512.967 70.4863 513.506 70.713 514.197 70.713C514.934 70.713 515.512 70.492 515.931 70.05C516.35 69.5967 516.56 69.0243 516.56 68.333C516.56 67.9477 516.503 67.585 516.39 67.245C516.277 66.905 516.118 66.6103 515.914 66.361C515.721 66.1003 515.489 65.8963 515.217 65.749C514.945 65.6017 514.65 65.528 514.333 65.528ZM535.884 75.779C535.884 76.7083 535.419 77.428 534.49 77.938C533.561 78.448 532.235 78.703 530.512 78.703C528.789 78.703 527.463 78.448 526.534 77.938C525.605 77.428 525.14 76.7083 525.14 75.779C525.14 74.9517 525.514 74.2943 526.262 73.807C527.021 73.3083 528.104 73.0023 529.509 72.889V71.291H523.117C523.049 71.291 522.992 71.2627 522.947 71.206C522.902 71.1493 522.879 71.087 522.879 71.019V69.948C522.879 69.8913 522.902 69.8347 522.947 69.778C522.992 69.7213 523.049 69.693 523.117 69.693H537.907C537.964 69.693 538.02 69.7213 538.077 69.778C538.134 69.8347 538.162 69.8913 538.162 69.948V71.019C538.162 71.0757 538.122 71.138 538.043 71.206C537.964 71.2627 537.896 71.291 537.839 71.291H531.464V72.889C532.881 72.991 533.969 73.2913 534.728 73.79C535.499 74.2887 535.884 74.9517 535.884 75.779ZM535.221 63.675C535.221 64.015 535.006 64.4173 534.575 64.882C534.36 65.1087 534.093 65.3353 533.776 65.562C533.47 65.7773 533.13 65.9983 532.756 66.225C533.039 66.3043 533.351 66.3893 533.691 66.48C534.042 66.5593 534.399 66.6443 534.762 66.735C535.136 66.8143 535.504 66.8937 535.867 66.973C536.23 67.041 536.564 67.0977 536.87 67.143C536.961 67.1543 537.029 67.1883 537.074 67.245C537.131 67.3017 537.136 67.381 537.091 67.483L536.7 68.418C536.677 68.486 536.632 68.5427 536.564 68.588C536.496 68.6333 536.417 68.6447 536.326 68.622C535.918 68.5767 535.476 68.5087 535 68.418C534.524 68.316 534.031 68.2027 533.521 68.078C533.022 67.9533 532.524 67.8173 532.025 67.67C531.538 67.5227 531.084 67.3753 530.665 67.228C529.77 67.5907 528.812 67.9193 527.792 68.214C526.783 68.4973 525.775 68.724 524.766 68.894C524.675 68.9167 524.596 68.9053 524.528 68.86C524.471 68.8147 524.432 68.7637 524.409 68.707L524.12 67.687C524.097 67.619 524.103 67.5567 524.137 67.5C524.182 67.432 524.233 67.3923 524.29 67.381C525.151 67.1997 525.95 67.0127 526.687 66.82C527.424 66.6273 528.098 66.4233 528.71 66.208C529.333 65.9927 529.906 65.766 530.427 65.528C530.948 65.29 531.424 65.0407 531.855 64.78C531.923 64.7347 531.985 64.695 532.042 64.661C532.099 64.627 532.133 64.5987 532.144 64.576C532.155 64.5533 532.138 64.5363 532.093 64.525C532.048 64.5023 531.963 64.491 531.838 64.491H525.633C525.486 64.491 525.412 64.4117 525.412 64.253V63.114C525.412 62.978 525.486 62.91 525.633 62.91H533.844C534.739 62.91 535.198 63.165 535.221 63.675ZM533.946 75.796C533.946 75.388 533.657 75.048 533.079 74.776C532.501 74.4927 531.645 74.351 530.512 74.351C529.379 74.351 528.523 74.4927 527.945 74.776C527.367 75.048 527.078 75.388 527.078 75.796C527.078 76.1927 527.367 76.527 527.945 76.799C528.523 77.0823 529.379 77.224 530.512 77.224C531.645 77.224 532.501 77.0823 533.079 76.799C533.657 76.527 533.946 76.1927 533.946 75.796ZM550.511 62.774C550.511 62.6267 550.591 62.553 550.749 62.553H552.211C552.359 62.553 552.432 62.6267 552.432 62.774V78.465C552.432 78.6123 552.359 78.686 552.211 78.686H550.732C550.585 78.686 550.511 78.6123 550.511 78.465V70.356H549.1V77.819C549.1 77.887 549.072 77.9437 549.015 77.989C548.97 78.0343 548.919 78.057 548.862 78.057H547.485C547.417 78.057 547.355 78.0343 547.298 77.989C547.253 77.9437 547.23 77.887 547.23 77.819V63.08C547.23 63.0233 547.253 62.9723 547.298 62.927C547.355 62.8817 547.417 62.859 547.485 62.859H548.862C548.919 62.859 548.97 62.8817 549.015 62.927C549.072 62.9723 549.1 63.0233 549.1 63.08V68.724H550.511V62.774ZM539.155 74.623C539.087 74.6797 539.002 74.708 538.9 74.708C538.798 74.708 538.713 74.6683 538.645 74.589L537.948 73.773C537.892 73.6937 537.869 73.6087 537.88 73.518C537.892 73.416 537.943 73.3367 538.033 73.28C538.713 72.804 539.337 72.2657 539.903 71.665C540.481 71.0643 540.986 70.441 541.416 69.795C541.847 69.1377 542.204 68.4803 542.487 67.823C542.771 67.1657 542.969 66.5423 543.082 65.953C543.105 65.7943 543.105 65.6867 543.082 65.63C543.06 65.562 542.975 65.528 542.827 65.528H539.138C539.082 65.528 539.036 65.5053 539.002 65.46C538.968 65.4033 538.951 65.341 538.951 65.273V64.185C538.951 64.015 539.019 63.93 539.155 63.93H543.796C544.295 63.93 544.646 64.0093 544.85 64.168C545.066 64.3267 545.173 64.5533 545.173 64.848C545.173 64.95 545.168 65.069 545.156 65.205C545.156 65.3297 545.145 65.443 545.122 65.545C544.998 66.2023 544.822 66.8483 544.595 67.483C544.369 68.1063 544.097 68.724 543.779 69.336C543.949 69.6307 544.148 69.9367 544.374 70.254C544.601 70.5713 544.839 70.8773 545.088 71.172C545.338 71.4667 545.576 71.733 545.802 71.971C546.04 72.209 546.256 72.396 546.448 72.532C546.573 72.6227 546.63 72.7133 546.618 72.804C546.618 72.8833 546.579 72.9683 546.499 73.059L545.853 73.858C545.695 74.0507 545.502 74.0563 545.275 73.875C545.105 73.7503 544.913 73.586 544.697 73.382C544.493 73.1667 544.278 72.9287 544.051 72.668C543.825 72.4073 543.604 72.1297 543.388 71.835C543.173 71.5403 542.975 71.2457 542.793 70.951C541.807 72.345 540.595 73.569 539.155 74.623ZM554.344 74.589C554.253 74.6457 554.157 74.6683 554.055 74.657C553.964 74.6457 553.89 74.5947 553.834 74.504L553.171 73.637C553.091 73.535 553.074 73.4387 553.12 73.348C553.176 73.2573 553.239 73.1893 553.307 73.144C554.021 72.702 554.701 72.192 555.347 71.614C555.993 71.036 556.576 70.4297 557.098 69.795C557.619 69.149 558.061 68.4973 558.424 67.84C558.786 67.1713 559.047 66.531 559.206 65.919C559.251 65.7263 559.257 65.6017 559.223 65.545C559.189 65.4883 559.075 65.46 558.883 65.46H554.497C554.417 65.46 554.355 65.4373 554.31 65.392C554.276 65.3353 554.259 65.273 554.259 65.205V64.066C554.259 63.998 554.281 63.9413 554.327 63.896C554.383 63.8507 554.446 63.828 554.514 63.828H560.056C560.498 63.828 560.843 63.913 561.093 64.083C561.342 64.253 561.467 64.474 561.467 64.746C561.467 64.8933 561.455 65.0463 561.433 65.205C561.41 65.3523 561.382 65.4883 561.348 65.613C561.189 66.225 560.979 66.8427 560.719 67.466C560.458 68.078 560.135 68.69 559.75 69.302C559.965 69.5967 560.214 69.9083 560.498 70.237C560.781 70.5543 561.07 70.866 561.365 71.172C561.659 71.4667 561.954 71.7443 562.249 72.005C562.543 72.2543 562.81 72.464 563.048 72.634C563.127 72.6907 563.178 72.7643 563.201 72.855C563.235 72.9457 563.218 73.0363 563.15 73.127L562.419 73.96C562.271 74.13 562.084 74.1413 561.858 73.994C561.654 73.858 561.416 73.671 561.144 73.433C560.872 73.195 560.588 72.9287 560.294 72.634C560.01 72.3393 559.721 72.0333 559.427 71.716C559.143 71.3873 558.888 71.0757 558.662 70.781C557.506 72.2203 556.066 73.4897 554.344 74.589ZM568.692 70.203C568.692 70.2597 568.663 70.3107 568.607 70.356C568.561 70.4013 568.51 70.424 568.454 70.424H566.142V78.465C566.142 78.6123 566.068 78.686 565.921 78.686H564.408C564.26 78.686 564.187 78.6123 564.187 78.465V62.774C564.187 62.6267 564.26 62.553 564.408 62.553H565.921C566.068 62.553 566.142 62.6267 566.142 62.774V68.792H568.454C568.51 68.792 568.561 68.8147 568.607 68.86C568.663 68.894 568.692 68.9393 568.692 68.996V70.203Z" fill="white"/>
<path d="M405.553 537.932C405.145 538.306 404.646 538.584 404.057 538.765C403.468 538.946 402.85 539.037 402.204 539.037C402.091 539.037 401.915 539.026 401.677 539.003C401.45 538.992 401.201 538.963 400.929 538.918C400.668 538.884 400.402 538.833 400.13 538.765C399.869 538.708 399.648 538.635 399.467 538.544C399.388 538.499 399.342 538.453 399.331 538.408C399.331 538.374 399.331 538.317 399.331 538.238V536.861C399.331 536.657 399.45 536.612 399.688 536.725C399.858 536.816 400.056 536.895 400.283 536.963C400.51 537.02 400.742 537.071 400.98 537.116C401.218 537.161 401.45 537.195 401.677 537.218C401.915 537.241 402.136 537.252 402.34 537.252C403.099 537.252 403.723 537.037 404.21 536.606C404.709 536.175 404.958 535.58 404.958 534.821C404.958 534.084 404.754 533.501 404.346 533.07C403.949 532.628 403.286 532.407 402.357 532.407C401.983 532.407 401.598 532.447 401.201 532.526C400.816 532.605 400.442 532.713 400.079 532.849C399.637 533.03 399.416 532.928 399.416 532.543L399.501 526.27C399.512 526.145 399.535 526.066 399.569 526.032C399.603 525.998 399.705 525.981 399.875 525.981H406.097C406.165 525.981 406.216 526.004 406.25 526.049C406.295 526.094 406.318 526.145 406.318 526.202V527.511C406.318 527.568 406.295 527.624 406.25 527.681C406.216 527.726 406.165 527.749 406.097 527.749H401.371L401.303 530.911C401.745 530.809 402.244 530.758 402.799 530.758C403.366 530.758 403.898 530.849 404.397 531.03C404.896 531.2 405.326 531.455 405.689 531.795C406.063 532.124 406.352 532.526 406.556 533.002C406.771 533.478 406.879 534.011 406.879 534.6C406.879 536.028 406.437 537.139 405.553 537.932ZM426.917 532.152C426.917 532.22 426.889 532.277 426.832 532.322C426.787 532.367 426.736 532.39 426.679 532.39H424.367V540.465C424.367 540.612 424.293 540.686 424.146 540.686H422.633C422.486 540.686 422.412 540.612 422.412 540.465V524.774C422.412 524.627 422.486 524.553 422.633 524.553H424.146C424.293 524.553 424.367 524.627 424.367 524.774V530.758H426.679C426.736 530.758 426.787 530.781 426.832 530.826C426.889 530.86 426.917 530.905 426.917 530.962V532.152ZM412.994 536.929C412.779 537.099 412.58 537.093 412.399 536.912L411.6 536.164C411.441 536.005 411.458 535.83 411.651 535.637C412.388 534.968 413.017 534.226 413.538 533.41C414.059 532.594 414.479 531.721 414.796 530.792C414.932 530.384 415.045 529.982 415.136 529.585C415.238 529.177 415.317 528.769 415.374 528.361C415.431 527.942 415.47 527.511 415.493 527.069C415.516 526.616 415.521 526.14 415.51 525.641C415.51 525.573 415.533 525.516 415.578 525.471C415.635 525.414 415.691 525.386 415.748 525.386L417.261 525.437C417.318 525.437 417.369 525.465 417.414 525.522C417.459 525.567 417.482 525.624 417.482 525.692C417.482 526.383 417.459 527.029 417.414 527.63C417.369 528.219 417.295 528.792 417.193 529.347C417.306 529.88 417.482 530.412 417.72 530.945C417.958 531.478 418.236 531.993 418.553 532.492C418.87 532.979 419.21 533.433 419.573 533.852C419.947 534.26 420.315 534.611 420.678 534.906C420.859 535.042 420.871 535.218 420.712 535.433L419.998 536.3C419.941 536.379 419.862 536.425 419.76 536.436C419.669 536.447 419.567 536.413 419.454 536.334C419.182 536.119 418.893 535.852 418.587 535.535C418.281 535.218 417.986 534.878 417.703 534.515C417.431 534.141 417.176 533.761 416.938 533.376C416.7 532.979 416.507 532.6 416.36 532.237C416.156 532.713 415.924 533.178 415.663 533.631C415.402 534.084 415.125 534.515 414.83 534.923C414.535 535.32 414.229 535.694 413.912 536.045C413.606 536.385 413.3 536.68 412.994 536.929ZM439.011 524.774C439.011 524.627 439.091 524.553 439.249 524.553H440.711C440.859 524.553 440.932 524.627 440.932 524.774V533.801C440.932 533.96 440.859 534.039 440.711 534.039H439.232C439.085 534.039 439.011 533.96 439.011 533.801V530.197H437.481V533.682C437.481 533.841 437.408 533.92 437.26 533.92H435.866C435.708 533.92 435.628 533.841 435.628 533.682V525.046C435.628 524.899 435.708 524.825 435.866 524.825H437.26C437.408 524.825 437.481 524.899 437.481 525.046V528.565H439.011V524.774ZM440.932 540.414C440.932 540.471 440.904 540.522 440.847 540.567C440.802 540.624 440.751 540.652 440.694 540.652H439.232C439.164 540.652 439.102 540.624 439.045 540.567C439 540.522 438.977 540.471 438.977 540.414V536.725C438.977 536.6 438.955 536.521 438.909 536.487C438.864 536.453 438.785 536.436 438.671 536.436H430.205C430.149 536.436 430.092 536.419 430.035 536.385C429.99 536.34 429.967 536.289 429.967 536.232V535.025C429.967 534.957 429.99 534.906 430.035 534.872C430.092 534.838 430.149 534.821 430.205 534.821H439.81C440.241 534.821 440.536 534.912 440.694 535.093C440.853 535.263 440.932 535.563 440.932 535.994V540.414ZM428.046 533.478C427.956 533.535 427.859 533.569 427.757 533.58C427.655 533.58 427.565 533.535 427.485 533.444L426.856 532.713C426.686 532.52 426.709 532.345 426.924 532.186C427.582 531.71 428.126 531.217 428.556 530.707C428.987 530.197 429.327 529.664 429.576 529.109C429.837 528.554 430.018 527.97 430.12 527.358C430.222 526.746 430.273 526.106 430.273 525.437C430.273 525.358 430.296 525.29 430.341 525.233C430.398 525.176 430.455 525.148 430.511 525.148L431.939 525.216C432.087 525.216 432.16 525.307 432.16 525.488C432.16 526.406 432.075 527.262 431.905 528.055C432.132 528.712 432.512 529.347 433.044 529.959C433.577 530.571 434.166 531.092 434.812 531.523C434.903 531.58 434.943 531.642 434.931 531.71C434.931 531.767 434.903 531.835 434.846 531.914L434.2 532.781C434.064 532.951 433.9 532.974 433.707 532.849C433.231 532.554 432.755 532.175 432.279 531.71C431.803 531.245 431.412 530.741 431.106 530.197C430.755 530.866 430.324 531.472 429.814 532.016C429.316 532.549 428.726 533.036 428.046 533.478ZM450.307 527.103C450.227 528.134 450.018 529.132 449.678 530.095C449.338 531.047 448.867 531.948 448.267 532.798C447.677 533.648 446.963 534.441 446.125 535.178C445.286 535.915 444.34 536.572 443.286 537.15C443.195 537.195 443.099 537.218 442.997 537.218C442.906 537.207 442.832 537.156 442.776 537.065L442.096 536.113C442.039 536.022 442.022 535.932 442.045 535.841C442.067 535.75 442.118 535.677 442.198 535.62C443.886 534.725 445.252 533.62 446.295 532.305C447.337 530.99 447.972 529.562 448.199 528.021C448.233 527.794 448.216 527.647 448.148 527.579C448.091 527.5 447.961 527.46 447.757 527.46H442.963C442.815 527.46 442.742 527.381 442.742 527.222V526.032C442.742 525.896 442.815 525.828 442.963 525.828H449.1C449.61 525.828 449.944 525.936 450.103 526.151C450.273 526.355 450.341 526.672 450.307 527.103ZM457.192 532.152C457.192 532.22 457.163 532.277 457.107 532.322C457.061 532.367 457.005 532.39 456.937 532.39H454.642V540.465C454.642 540.612 454.568 540.686 454.421 540.686H452.908C452.76 540.686 452.687 540.612 452.687 540.465V524.774C452.687 524.627 452.76 524.553 452.908 524.553H454.421C454.568 524.553 454.642 524.627 454.642 524.774V530.758H456.937C457.005 530.758 457.061 530.781 457.107 530.826C457.163 530.86 457.192 530.905 457.192 530.962V532.152Z" fill="white"/>
<path d="M635.672 536.028V538.612C635.672 538.737 635.655 538.816 635.621 538.85C635.587 538.895 635.508 538.918 635.383 538.918H634.159C634.034 538.918 633.949 538.895 633.904 538.85C633.87 538.805 633.853 538.725 633.853 538.612V536.028H628.413C628.3 536.028 628.226 536.017 628.192 535.994C628.158 535.971 628.141 535.915 628.141 535.824V534.566C628.141 534.487 628.164 534.407 628.209 534.328C628.254 534.249 628.3 534.181 628.345 534.124L633.598 526.219C633.666 526.128 633.711 526.072 633.734 526.049C633.768 526.015 633.842 525.998 633.955 525.998H635.502C635.593 525.998 635.644 526.015 635.655 526.049C635.666 526.083 635.672 526.151 635.672 526.253V534.277H637.253C637.355 534.277 637.423 534.294 637.457 534.328C637.491 534.351 637.508 534.419 637.508 534.532V535.773C637.508 535.886 637.491 535.96 637.457 535.994C637.423 536.017 637.355 536.028 637.253 536.028H635.672ZM630.198 534.277H633.853V528.735L630.198 534.277ZM652.531 539.904C652.531 540.063 652.457 540.142 652.31 540.142H650.916C650.757 540.142 650.678 540.063 650.678 539.904V534.311H648.553C648.236 535.025 647.816 535.546 647.295 535.875C646.774 536.204 646.173 536.368 645.493 536.368C644.96 536.368 644.473 536.26 644.031 536.045C643.589 535.818 643.204 535.484 642.875 535.042C642.558 534.6 642.308 534.045 642.127 533.376C641.957 532.696 641.872 531.903 641.872 530.996C641.872 530.089 641.957 529.302 642.127 528.633C642.308 527.964 642.558 527.409 642.875 526.967C643.204 526.525 643.589 526.196 644.031 525.981C644.473 525.754 644.96 525.641 645.493 525.641C646.207 525.641 646.836 525.834 647.38 526.219C647.935 526.604 648.366 527.194 648.672 527.987H650.678V525.046C650.678 524.899 650.757 524.825 650.916 524.825H652.31C652.457 524.825 652.531 524.899 652.531 525.046V539.904ZM655.795 540.499C655.795 540.646 655.721 540.72 655.574 540.72H654.095C653.948 540.72 653.874 540.646 653.874 540.499V524.774C653.874 524.627 653.953 524.553 654.112 524.553H655.574C655.721 524.553 655.795 524.627 655.795 524.774V540.499ZM647.261 530.996C647.261 530.577 647.227 530.152 647.159 529.721C647.091 529.29 646.983 528.899 646.836 528.548C646.7 528.197 646.519 527.908 646.292 527.681C646.077 527.454 645.816 527.341 645.51 527.341C645.215 527.341 644.955 527.454 644.728 527.681C644.513 527.908 644.331 528.197 644.184 528.548C644.048 528.899 643.946 529.29 643.878 529.721C643.81 530.152 643.776 530.577 643.776 530.996C643.776 531.415 643.81 531.846 643.878 532.288C643.946 532.719 644.048 533.11 644.184 533.461C644.331 533.812 644.513 534.101 644.728 534.328C644.955 534.555 645.215 534.668 645.51 534.668C645.816 534.668 646.077 534.555 646.292 534.328C646.519 534.101 646.7 533.812 646.836 533.461C646.983 533.11 647.091 532.719 647.159 532.288C647.227 531.846 647.261 531.415 647.261 530.996ZM649.131 530.996C649.131 531.325 649.12 531.631 649.097 531.914C649.074 532.186 649.04 532.452 648.995 532.713H650.678V529.568H649.046C649.069 529.795 649.086 530.027 649.097 530.265C649.12 530.503 649.131 530.747 649.131 530.996ZM671.816 532.39C671.816 532.447 671.788 532.503 671.731 532.56C671.675 532.605 671.618 532.628 671.561 532.628H665.135V534.022H668.314C668.779 534.022 669.085 534.096 669.232 534.243C669.391 534.379 669.47 534.64 669.47 535.025V537.014C669.47 537.411 669.391 537.677 669.232 537.813C669.085 537.949 668.779 538.017 668.314 538.017H661.055C660.965 538.017 660.908 538.028 660.885 538.051C660.863 538.085 660.851 538.153 660.851 538.255V538.85C660.851 538.963 660.863 539.026 660.885 539.037C660.908 539.06 660.97 539.071 661.072 539.071H669.623C669.68 539.071 669.737 539.088 669.793 539.122C669.85 539.167 669.878 539.224 669.878 539.292V540.397C669.878 540.454 669.85 540.505 669.793 540.55C669.737 540.607 669.686 540.635 669.64 540.635H660.069C659.627 540.635 659.327 540.556 659.168 540.397C659.01 540.238 658.93 539.978 658.93 539.615V537.609C658.93 537.246 659.004 536.986 659.151 536.827C659.31 536.668 659.61 536.589 660.052 536.589H667.345C667.436 536.589 667.493 536.578 667.515 536.555C667.549 536.532 667.566 536.47 667.566 536.368V535.807C667.566 535.716 667.555 535.66 667.532 535.637C667.51 535.614 667.447 535.603 667.345 535.603H659.134C659.078 535.603 659.021 535.58 658.964 535.535C658.919 535.49 658.896 535.439 658.896 535.382V534.243C658.896 534.186 658.919 534.135 658.964 534.09C659.021 534.045 659.078 534.022 659.134 534.022H663.18V532.628H656.754C656.596 532.628 656.516 532.549 656.516 532.39V531.336C656.516 531.155 656.596 531.064 656.754 531.064H671.561C671.618 531.064 671.675 531.092 671.731 531.149C671.788 531.206 671.816 531.268 671.816 531.336V532.39ZM658.811 530.163C658.562 530.22 658.409 530.186 658.352 530.061L657.893 529.007C657.871 528.95 657.871 528.888 657.893 528.82C657.916 528.752 657.967 528.707 658.046 528.684C658.772 528.525 659.44 528.333 660.052 528.106C660.664 527.879 661.191 527.607 661.633 527.29C662.087 526.973 662.444 526.604 662.704 526.185C662.976 525.766 663.135 525.273 663.18 524.706C663.203 524.525 663.311 524.434 663.503 524.434L664.812 524.485C664.971 524.485 665.05 524.564 665.05 524.723C665.039 524.825 665.033 524.927 665.033 525.029C665.033 525.12 665.022 525.216 664.999 525.318C665.169 525.749 665.43 526.134 665.781 526.474C666.144 526.814 666.563 527.12 667.039 527.392C667.515 527.653 668.031 527.879 668.586 528.072C669.153 528.265 669.725 528.423 670.303 528.548C670.371 528.571 670.417 528.616 670.439 528.684C670.473 528.752 670.479 528.814 670.456 528.871L669.946 529.874C669.89 530.021 669.759 530.078 669.555 530.044C669.091 529.999 668.598 529.897 668.076 529.738C667.566 529.568 667.062 529.358 666.563 529.109C666.076 528.86 665.623 528.576 665.203 528.259C664.784 527.942 664.444 527.596 664.183 527.222C663.651 527.97 662.92 528.593 661.99 529.092C661.072 529.579 660.013 529.936 658.811 530.163ZM680.307 527.103C680.227 528.134 680.018 529.132 679.678 530.095C679.338 531.047 678.867 531.948 678.267 532.798C677.677 533.648 676.963 534.441 676.125 535.178C675.286 535.915 674.34 536.572 673.286 537.15C673.195 537.195 673.099 537.218 672.997 537.218C672.906 537.207 672.832 537.156 672.776 537.065L672.096 536.113C672.039 536.022 672.022 535.932 672.045 535.841C672.067 535.75 672.118 535.677 672.198 535.62C673.886 534.725 675.252 533.62 676.295 532.305C677.337 530.99 677.972 529.562 678.199 528.021C678.233 527.794 678.216 527.647 678.148 527.579C678.091 527.5 677.961 527.46 677.757 527.46H672.963C672.815 527.46 672.742 527.381 672.742 527.222V526.032C672.742 525.896 672.815 525.828 672.963 525.828H679.1C679.61 525.828 679.944 525.936 680.103 526.151C680.273 526.355 680.341 526.672 680.307 527.103ZM687.192 532.152C687.192 532.22 687.163 532.277 687.107 532.322C687.061 532.367 687.005 532.39 686.937 532.39H684.642V540.465C684.642 540.612 684.568 540.686 684.421 540.686H682.908C682.76 540.686 682.687 540.612 682.687 540.465V524.774C682.687 524.627 682.76 524.553 682.908 524.553H684.421C684.568 524.553 684.642 524.627 684.642 524.774V530.758H686.937C687.005 530.758 687.061 530.781 687.107 530.826C687.163 530.86 687.192 530.905 687.192 530.962V532.152Z" fill="white"/>
<path d="M693.044 120.918C692.885 120.918 692.806 120.844 692.806 120.697V110.633L691.548 111.721C691.491 111.766 691.423 111.795 691.344 111.806C691.276 111.817 691.219 111.8 691.174 111.755L690.409 110.837C690.375 110.792 690.358 110.741 690.358 110.684C690.369 110.616 690.403 110.554 690.46 110.497L693.061 108.1C693.084 108.077 693.123 108.055 693.18 108.032C693.237 108.009 693.282 107.998 693.316 107.998H694.217C694.41 107.998 694.523 108.021 694.557 108.066C694.602 108.1 694.625 108.23 694.625 108.457V120.697C694.625 120.844 694.551 120.918 694.404 120.918H693.044ZM714.391 106.774C714.391 106.627 714.47 106.553 714.629 106.553H716.091C716.238 106.553 716.312 106.627 716.312 106.774V122.465C716.312 122.612 716.238 122.686 716.091 122.686H714.612C714.465 122.686 714.391 122.612 714.391 122.465V114.424H712.81V121.819C712.81 121.978 712.736 122.057 712.589 122.057H711.195C711.036 122.057 710.957 121.978 710.957 121.819V107.08C710.957 106.933 711.036 106.859 711.195 106.859H712.589C712.736 106.859 712.81 106.933 712.81 107.08V112.792H714.391V106.774ZM703.562 118.776C703.471 118.833 703.381 118.867 703.29 118.878C703.199 118.889 703.126 118.855 703.069 118.776L702.389 117.841C702.321 117.739 702.304 117.648 702.338 117.569C702.383 117.478 702.434 117.41 702.491 117.365C703.262 116.889 703.953 116.351 704.565 115.75C705.188 115.149 705.715 114.526 706.146 113.88C706.588 113.223 706.928 112.571 707.166 111.925C707.404 111.268 707.534 110.656 707.557 110.089C707.568 109.851 707.546 109.692 707.489 109.613C707.432 109.522 707.285 109.477 707.047 109.477H703.29C703.131 109.477 703.052 109.403 703.052 109.256V108.1C703.052 108.043 703.075 107.992 703.12 107.947C703.177 107.902 703.233 107.879 703.29 107.879H708.237C708.724 107.879 709.059 107.975 709.24 108.168C709.421 108.349 709.506 108.661 709.495 109.103C709.472 110.089 709.319 111.041 709.036 111.959C708.753 112.877 708.356 113.744 707.846 114.56C707.336 115.376 706.718 116.141 705.993 116.855C705.268 117.558 704.457 118.198 703.562 118.776ZM722.388 111.024C722.898 111.024 723.374 111.092 723.816 111.228C724.27 111.353 724.655 111.54 724.972 111.789C725.301 112.027 725.556 112.316 725.737 112.656C725.93 112.996 726.026 113.376 726.026 113.795C726.026 114.214 725.93 114.6 725.737 114.951C725.556 115.291 725.301 115.586 724.972 115.835C724.644 116.073 724.258 116.26 723.816 116.396C723.374 116.532 722.893 116.6 722.371 116.6C721.861 116.6 721.385 116.532 720.943 116.396C720.513 116.26 720.133 116.073 719.804 115.835C719.487 115.586 719.232 115.291 719.039 114.951C718.858 114.6 718.767 114.214 718.767 113.795C718.767 113.376 718.858 112.996 719.039 112.656C719.232 112.316 719.487 112.027 719.804 111.789C720.133 111.54 720.518 111.353 720.96 111.228C721.402 111.092 721.878 111.024 722.388 111.024ZM730.735 116.634C730.735 116.713 730.707 116.776 730.65 116.821C730.605 116.866 730.554 116.889 730.497 116.889H729.001C728.843 116.889 728.763 116.81 728.763 116.651V115.444H726.74C726.684 115.444 726.633 115.427 726.587 115.393C726.542 115.348 726.519 115.297 726.519 115.24V114.084C726.519 114.027 726.542 113.982 726.587 113.948C726.633 113.903 726.684 113.88 726.74 113.88H728.763V112.741H726.757C726.701 112.741 726.644 112.718 726.587 112.673C726.542 112.628 726.519 112.577 726.519 112.52V111.381C726.519 111.324 726.542 111.279 726.587 111.245C726.644 111.2 726.701 111.177 726.757 111.177H728.763V106.774C728.763 106.627 728.843 106.553 729.001 106.553H730.497C730.554 106.553 730.605 106.576 730.65 106.621C730.707 106.666 730.735 106.717 730.735 106.774V116.634ZM730.735 122.414C730.735 122.471 730.707 122.522 730.65 122.567C730.594 122.624 730.537 122.652 730.48 122.652H729.035C728.956 122.652 728.888 122.624 728.831 122.567C728.786 122.522 728.763 122.471 728.763 122.414V119.49C728.763 119.365 728.741 119.286 728.695 119.252C728.65 119.218 728.571 119.201 728.457 119.201H720.603C720.547 119.201 720.49 119.184 720.433 119.15C720.388 119.105 720.365 119.054 720.365 118.997V117.79C720.365 117.722 720.388 117.671 720.433 117.637C720.49 117.592 720.547 117.569 720.603 117.569H729.596C730.027 117.569 730.322 117.66 730.48 117.841C730.65 118.022 730.735 118.328 730.735 118.759V122.414ZM726.995 110.208C726.995 110.276 726.967 110.338 726.91 110.395C726.865 110.44 726.808 110.463 726.74 110.463H717.849C717.793 110.463 717.73 110.435 717.662 110.378C717.606 110.321 717.577 110.259 717.577 110.191V109.239C717.577 109.182 717.611 109.126 717.679 109.069C717.747 109.012 717.81 108.984 717.866 108.984H726.74C726.808 108.984 726.865 109.012 726.91 109.069C726.967 109.114 726.995 109.171 726.995 109.239V110.208ZM722.388 112.52C721.856 112.52 721.425 112.633 721.096 112.86C720.768 113.087 720.603 113.398 720.603 113.795C720.603 114.192 720.768 114.515 721.096 114.764C721.425 115.013 721.856 115.138 722.388 115.138C722.932 115.138 723.363 115.013 723.68 114.764C724.009 114.515 724.173 114.192 724.173 113.795C724.173 113.398 724.009 113.087 723.68 112.86C723.363 112.633 722.932 112.52 722.388 112.52ZM724.819 107.998C724.819 108.077 724.791 108.145 724.734 108.202C724.689 108.259 724.621 108.287 724.53 108.287H720.195C720.15 108.287 720.093 108.264 720.025 108.219C719.969 108.174 719.94 108.106 719.94 108.015V107.046C719.94 106.967 719.969 106.904 720.025 106.859C720.093 106.814 720.15 106.791 720.195 106.791H724.53C724.61 106.791 724.678 106.819 724.734 106.876C724.791 106.933 724.819 106.995 724.819 107.063V107.998ZM740.807 109.103C740.727 110.134 740.518 111.132 740.178 112.095C739.838 113.047 739.367 113.948 738.767 114.798C738.177 115.648 737.463 116.441 736.625 117.178C735.786 117.915 734.84 118.572 733.786 119.15C733.695 119.195 733.599 119.218 733.497 119.218C733.406 119.207 733.332 119.156 733.276 119.065L732.596 118.113C732.539 118.022 732.522 117.932 732.545 117.841C732.567 117.75 732.618 117.677 732.698 117.62C734.386 116.725 735.752 115.62 736.795 114.305C737.837 112.99 738.472 111.562 738.699 110.021C738.733 109.794 738.716 109.647 738.648 109.579C738.591 109.5 738.461 109.46 738.257 109.46H733.463C733.315 109.46 733.242 109.381 733.242 109.222V108.032C733.242 107.896 733.315 107.828 733.463 107.828H739.6C740.11 107.828 740.444 107.936 740.603 108.151C740.773 108.355 740.841 108.672 740.807 109.103ZM747.692 114.152C747.692 114.22 747.663 114.277 747.607 114.322C747.561 114.367 747.505 114.39 747.437 114.39H745.142V122.465C745.142 122.612 745.068 122.686 744.921 122.686H743.408C743.26 122.686 743.187 122.612 743.187 122.465V106.774C743.187 106.627 743.26 106.553 743.408 106.553H744.921C745.068 106.553 745.142 106.627 745.142 106.774V112.758H747.437C747.505 112.758 747.561 112.781 747.607 112.826C747.663 112.86 747.692 112.905 747.692 112.962V114.152Z" fill="white"/>
<path d="M762.264 409.034C761.833 409.385 761.312 409.64 760.7 409.799C760.099 409.969 759.47 410.054 758.813 410.054C758.326 410.054 757.833 410.009 757.334 409.918C756.847 409.839 756.393 409.725 755.974 409.578C755.861 409.544 755.781 409.499 755.736 409.442C755.691 409.397 755.674 409.323 755.685 409.221L755.838 407.946C755.849 407.844 755.883 407.776 755.94 407.742C755.997 407.708 756.104 407.719 756.263 407.776C756.558 407.867 756.852 407.957 757.147 408.048C757.442 408.127 757.742 408.178 758.048 408.201C758.286 408.224 758.53 408.241 758.779 408.252C759.028 408.263 759.272 408.258 759.51 408.235C759.759 408.201 759.992 408.15 760.207 408.082C760.434 408.003 760.643 407.895 760.836 407.759C761.38 407.385 761.652 406.818 761.652 406.059C761.652 405.798 761.59 405.549 761.465 405.311C761.352 405.062 761.17 404.846 760.921 404.665C760.672 404.472 760.349 404.325 759.952 404.223C759.567 404.11 759.102 404.053 758.558 404.053H757.708C757.617 404.053 757.555 404.042 757.521 404.019C757.498 403.985 757.487 403.923 757.487 403.832V402.574C757.487 402.472 757.498 402.41 757.521 402.387C757.555 402.364 757.617 402.353 757.708 402.353H758.524C758.773 402.353 759.074 402.319 759.425 402.251C759.776 402.172 760.116 402.047 760.445 401.877C760.774 401.707 761.051 401.492 761.278 401.231C761.516 400.97 761.635 400.653 761.635 400.279C761.635 399.984 761.561 399.729 761.414 399.514C761.267 399.299 761.074 399.123 760.836 398.987C760.609 398.851 760.36 398.755 760.088 398.698C759.816 398.63 759.561 398.596 759.323 398.596C759.164 398.596 758.977 398.613 758.762 398.647C758.558 398.681 758.343 398.726 758.116 398.783C757.901 398.828 757.68 398.885 757.453 398.953C757.226 399.021 757.022 399.089 756.841 399.157C756.705 399.214 756.609 399.231 756.552 399.208C756.495 399.174 756.456 399.106 756.433 399.004L756.28 397.763C756.257 397.695 756.263 397.633 756.297 397.576C756.331 397.519 756.41 397.468 756.535 397.423C757.034 397.242 757.521 397.1 757.997 396.998C758.473 396.896 758.949 396.845 759.425 396.845C759.935 396.845 760.434 396.907 760.921 397.032C761.42 397.157 761.856 397.349 762.23 397.61C762.615 397.871 762.927 398.211 763.165 398.63C763.403 399.049 763.522 399.548 763.522 400.126C763.522 400.432 763.465 400.738 763.352 401.044C763.25 401.35 763.103 401.639 762.91 401.911C762.717 402.183 762.485 402.427 762.213 402.642C761.941 402.857 761.646 403.033 761.329 403.169C762.077 403.498 762.644 403.917 763.029 404.427C763.414 404.926 763.607 405.487 763.607 406.11C763.607 406.711 763.488 407.26 763.25 407.759C763.023 408.258 762.695 408.683 762.264 409.034ZM782.217 408.473C782.217 408.949 782.087 409.385 781.826 409.782C781.577 410.179 781.22 410.519 780.755 410.802C780.302 411.085 779.763 411.301 779.14 411.448C778.517 411.607 777.842 411.686 777.117 411.686C776.335 411.686 775.632 411.607 775.009 411.448C774.386 411.301 773.853 411.085 773.411 410.802C772.98 410.53 772.646 410.196 772.408 409.799C772.181 409.402 772.068 408.96 772.068 408.473C772.068 407.997 772.181 407.566 772.408 407.181C772.646 406.784 772.98 406.444 773.411 406.161C773.853 405.878 774.386 405.662 775.009 405.515C775.632 405.356 776.335 405.277 777.117 405.277C777.842 405.277 778.517 405.356 779.14 405.515C779.763 405.662 780.302 405.878 780.755 406.161C781.22 406.433 781.577 406.767 781.826 407.164C782.087 407.549 782.217 407.986 782.217 408.473ZM770.266 404.869C770.13 404.971 770.017 405.011 769.926 404.988C769.847 404.965 769.773 404.909 769.705 404.818L769.025 404.019C768.9 403.894 768.849 403.792 768.872 403.713C768.906 403.634 768.98 403.56 769.093 403.492C769.728 403.061 770.277 402.608 770.742 402.132C771.218 401.656 771.615 401.129 771.932 400.551C772.249 399.973 772.482 399.327 772.629 398.613C772.788 397.899 772.867 397.089 772.867 396.182C772.867 396.103 772.895 396.035 772.952 395.978C773.009 395.921 773.065 395.893 773.122 395.893L774.618 395.961C774.765 395.961 774.839 396.046 774.839 396.216C774.839 396.76 774.811 397.264 774.754 397.729C774.709 398.194 774.641 398.641 774.55 399.072C774.731 399.503 774.964 399.911 775.247 400.296C775.542 400.67 775.853 401.016 776.182 401.333C776.511 401.639 776.845 401.917 777.185 402.166C777.536 402.404 777.865 402.591 778.171 402.727C778.364 402.806 778.398 402.942 778.273 403.135L777.695 404.087C777.57 404.257 777.412 404.302 777.219 404.223C776.528 403.906 775.882 403.486 775.281 402.965C774.692 402.444 774.187 401.854 773.768 401.197C773.383 401.922 772.895 402.58 772.306 403.169C771.728 403.758 771.048 404.325 770.266 404.869ZM776.896 400.313V399.106C776.896 399.049 776.919 399.004 776.964 398.97C777.021 398.925 777.077 398.902 777.134 398.902H780.126V395.774C780.126 395.627 780.205 395.553 780.364 395.553H781.86C781.917 395.553 781.968 395.576 782.013 395.621C782.07 395.666 782.098 395.717 782.098 395.774V404.801C782.098 404.869 782.07 404.926 782.013 404.971C781.968 405.016 781.917 405.039 781.86 405.039H780.364C780.205 405.039 780.126 404.96 780.126 404.801V400.517H777.134C777.077 400.517 777.021 400.5 776.964 400.466C776.919 400.421 776.896 400.37 776.896 400.313ZM780.194 408.524C780.194 408.241 780.109 407.997 779.939 407.793C779.78 407.578 779.559 407.402 779.276 407.266C778.993 407.119 778.664 407.011 778.29 406.943C777.927 406.864 777.536 406.824 777.117 406.824C776.21 406.824 775.474 406.966 774.907 407.249C774.352 407.532 774.074 407.957 774.074 408.524C774.074 408.796 774.148 409.028 774.295 409.221C774.454 409.425 774.663 409.595 774.924 409.731C775.196 409.867 775.519 409.969 775.893 410.037C776.267 410.105 776.675 410.139 777.117 410.139C777.536 410.139 777.927 410.105 778.29 410.037C778.664 409.969 778.993 409.867 779.276 409.731C779.559 409.595 779.78 409.425 779.939 409.221C780.109 409.028 780.194 408.796 780.194 408.524ZM797.218 411.465C797.218 411.612 797.139 411.686 796.98 411.686H795.484C795.428 411.686 795.371 411.663 795.314 411.618C795.269 411.584 795.246 411.533 795.246 411.465V395.774C795.246 395.717 795.269 395.666 795.314 395.621C795.371 395.576 795.428 395.553 795.484 395.553H796.98C797.139 395.553 797.218 395.627 797.218 395.774V411.465ZM785.386 404.342C785.307 404.365 785.222 404.365 785.131 404.342C785.052 404.319 785.001 404.28 784.978 404.223L784.604 403.288C784.582 403.197 784.593 403.112 784.638 403.033C784.684 402.942 784.74 402.886 784.808 402.863C785.953 402.512 786.979 402.115 787.885 401.673C788.792 401.231 789.551 400.772 790.163 400.296C790.265 400.205 790.294 400.143 790.248 400.109C790.214 400.064 790.146 400.041 790.044 400.041H785.488C785.341 400.041 785.267 399.967 785.267 399.82V398.749C785.267 398.613 785.341 398.545 785.488 398.545H791.421C791.795 398.545 792.113 398.619 792.373 398.766C792.634 398.913 792.764 399.095 792.764 399.31C792.764 399.457 792.736 399.605 792.679 399.752C792.634 399.899 792.532 400.086 792.373 400.313C792.215 400.562 792.005 400.806 791.744 401.044C791.495 401.282 791.212 401.526 790.894 401.775C791.336 401.956 791.79 402.132 792.254 402.302C792.73 402.461 793.127 402.585 793.444 402.676C793.626 402.721 793.688 402.84 793.631 403.033L793.274 403.9C793.252 403.968 793.201 404.025 793.121 404.07C793.042 404.104 792.957 404.11 792.866 404.087C792.368 403.962 791.801 403.775 791.166 403.526C790.543 403.277 789.954 403.016 789.398 402.744C788.752 403.107 788.084 403.424 787.392 403.696C786.701 403.968 786.032 404.183 785.386 404.342ZM783.754 405.396C783.754 405.237 783.839 405.158 784.009 405.158C784.814 405.181 785.664 405.192 786.559 405.192C787.455 405.181 788.344 405.158 789.228 405.124C790.124 405.09 790.991 405.045 791.829 404.988C792.668 404.92 793.439 404.835 794.141 404.733C794.198 404.722 794.26 404.727 794.328 404.75C794.408 404.761 794.453 404.812 794.464 404.903L794.566 406.008C794.578 406.099 794.555 406.167 794.498 406.212C794.453 406.257 794.402 406.286 794.345 406.297C793.79 406.388 793.15 406.461 792.424 406.518C791.699 406.575 790.94 406.631 790.146 406.688V410.887C790.146 410.966 790.118 411.029 790.061 411.074C790.005 411.131 789.942 411.159 789.874 411.159H788.48C788.412 411.159 788.35 411.131 788.293 411.074C788.237 411.029 788.208 410.966 788.208 410.887V406.773C787.472 406.796 786.746 406.813 786.032 406.824C785.318 406.835 784.644 406.835 784.009 406.824C783.839 406.824 783.754 406.733 783.754 406.552V405.396ZM791.183 397.355C791.183 397.423 791.155 397.485 791.098 397.542C791.053 397.599 790.985 397.627 790.894 397.627H786.899C786.854 397.627 786.797 397.604 786.729 397.559C786.673 397.514 786.644 397.451 786.644 397.372V396.386C786.644 396.295 786.673 396.227 786.729 396.182C786.797 396.137 786.854 396.114 786.899 396.114H790.894C790.974 396.114 791.042 396.148 791.098 396.216C791.155 396.273 791.183 396.335 791.183 396.403V397.355ZM799.844 407.589C799.753 407.646 799.657 407.668 799.555 407.657C799.464 407.646 799.39 407.595 799.334 407.504L798.671 406.637C798.591 406.535 798.574 406.439 798.62 406.348C798.676 406.257 798.739 406.189 798.807 406.144C799.521 405.702 800.201 405.192 800.847 404.614C801.493 404.036 802.076 403.43 802.598 402.795C803.119 402.149 803.561 401.497 803.924 400.84C804.286 400.171 804.547 399.531 804.706 398.919C804.751 398.726 804.757 398.602 804.723 398.545C804.689 398.488 804.575 398.46 804.383 398.46H799.997C799.917 398.46 799.855 398.437 799.81 398.392C799.776 398.335 799.759 398.273 799.759 398.205V397.066C799.759 396.998 799.781 396.941 799.827 396.896C799.883 396.851 799.946 396.828 800.014 396.828H805.556C805.998 396.828 806.343 396.913 806.593 397.083C806.842 397.253 806.967 397.474 806.967 397.746C806.967 397.893 806.955 398.046 806.933 398.205C806.91 398.352 806.882 398.488 806.848 398.613C806.689 399.225 806.479 399.843 806.219 400.466C805.958 401.078 805.635 401.69 805.25 402.302C805.465 402.597 805.714 402.908 805.998 403.237C806.281 403.554 806.57 403.866 806.865 404.172C807.159 404.467 807.454 404.744 807.749 405.005C808.043 405.254 808.31 405.464 808.548 405.634C808.627 405.691 808.678 405.764 808.701 405.855C808.735 405.946 808.718 406.036 808.65 406.127L807.919 406.96C807.771 407.13 807.584 407.141 807.358 406.994C807.154 406.858 806.916 406.671 806.644 406.433C806.372 406.195 806.088 405.929 805.794 405.634C805.51 405.339 805.221 405.033 804.927 404.716C804.643 404.387 804.388 404.076 804.162 403.781C803.006 405.22 801.566 406.49 799.844 407.589ZM814.192 403.203C814.192 403.26 814.163 403.311 814.107 403.356C814.061 403.401 814.01 403.424 813.954 403.424H811.642V411.465C811.642 411.612 811.568 411.686 811.421 411.686H809.908C809.76 411.686 809.687 411.612 809.687 411.465V395.774C809.687 395.627 809.76 395.553 809.908 395.553H811.421C811.568 395.553 811.642 395.627 811.642 395.774V401.792H813.954C814.01 401.792 814.061 401.815 814.107 401.86C814.163 401.894 814.192 401.939 814.192 401.996V403.203Z" fill="white"/>
<path d="M341.401 121.054C340.891 121.054 340.375 120.975 339.854 120.816C339.344 120.669 338.885 120.442 338.477 120.136C338.069 119.841 337.735 119.467 337.474 119.014C337.213 118.549 337.083 118.011 337.083 117.399C337.083 116.98 337.151 116.611 337.287 116.294C337.434 115.965 337.621 115.676 337.848 115.427C338.086 115.166 338.358 114.934 338.664 114.73C338.981 114.526 339.31 114.339 339.65 114.169C338.97 113.784 338.432 113.336 338.035 112.826C337.638 112.305 337.44 111.721 337.44 111.075C337.44 110.599 337.542 110.163 337.746 109.766C337.961 109.369 338.245 109.029 338.596 108.746C338.959 108.463 339.378 108.242 339.854 108.083C340.341 107.924 340.857 107.845 341.401 107.845C341.968 107.845 342.489 107.919 342.965 108.066C343.452 108.213 343.866 108.423 344.206 108.695C344.557 108.967 344.829 109.301 345.022 109.698C345.226 110.083 345.328 110.525 345.328 111.024C345.328 111.602 345.147 112.14 344.784 112.639C344.433 113.138 343.889 113.642 343.152 114.152C343.549 114.39 343.906 114.622 344.223 114.849C344.54 115.064 344.812 115.302 345.039 115.563C345.266 115.812 345.436 116.084 345.549 116.379C345.674 116.674 345.736 117.014 345.736 117.399C345.736 118.011 345.611 118.549 345.362 119.014C345.124 119.467 344.801 119.841 344.393 120.136C343.996 120.442 343.537 120.669 343.016 120.816C342.495 120.975 341.956 121.054 341.401 121.054ZM341.401 109.511C341.163 109.511 340.925 109.551 340.687 109.63C340.449 109.709 340.234 109.823 340.041 109.97C339.848 110.106 339.69 110.282 339.565 110.497C339.44 110.701 339.378 110.939 339.378 111.211C339.378 111.449 339.457 111.681 339.616 111.908C339.775 112.135 339.962 112.344 340.177 112.537C340.404 112.73 340.63 112.894 340.857 113.03C341.084 113.166 341.271 113.262 341.418 113.319C341.588 113.251 341.786 113.143 342.013 112.996C342.24 112.837 342.455 112.656 342.659 112.452C342.874 112.248 343.05 112.033 343.186 111.806C343.333 111.579 343.407 111.364 343.407 111.16C343.407 110.933 343.35 110.724 343.237 110.531C343.135 110.327 342.993 110.151 342.812 110.004C342.631 109.845 342.415 109.726 342.166 109.647C341.928 109.556 341.673 109.511 341.401 109.511ZM341.418 115.104C341.191 115.172 340.936 115.268 340.653 115.393C340.37 115.506 340.103 115.654 339.854 115.835C339.616 116.016 339.412 116.237 339.242 116.498C339.072 116.747 338.987 117.048 338.987 117.399C338.987 117.694 339.061 117.96 339.208 118.198C339.355 118.436 339.542 118.64 339.769 118.81C340.007 118.98 340.268 119.11 340.551 119.201C340.846 119.292 341.129 119.337 341.401 119.337C341.696 119.337 341.985 119.297 342.268 119.218C342.563 119.127 342.823 118.997 343.05 118.827C343.277 118.657 343.458 118.453 343.594 118.215C343.741 117.977 343.815 117.705 343.815 117.399C343.815 117.184 343.741 116.963 343.594 116.736C343.458 116.498 343.271 116.277 343.033 116.073C342.806 115.869 342.551 115.682 342.268 115.512C341.985 115.342 341.701 115.206 341.418 115.104ZM351.46 118.589C351.369 118.646 351.273 118.668 351.171 118.657C351.069 118.646 350.99 118.595 350.933 118.504L350.27 117.62C350.191 117.518 350.174 117.422 350.219 117.331C350.276 117.24 350.344 117.172 350.423 117.127C351.137 116.685 351.817 116.175 352.463 115.597C353.109 115.019 353.687 114.413 354.197 113.778C354.718 113.143 355.16 112.497 355.523 111.84C355.886 111.171 356.146 110.531 356.305 109.919C356.35 109.726 356.356 109.602 356.322 109.545C356.288 109.488 356.175 109.46 355.982 109.46H351.596C351.528 109.46 351.471 109.437 351.426 109.392C351.392 109.335 351.375 109.273 351.375 109.205V108.066C351.375 107.907 351.454 107.828 351.613 107.828H357.155C357.597 107.828 357.943 107.913 358.192 108.083C358.441 108.253 358.566 108.474 358.566 108.746C358.566 108.893 358.555 109.046 358.532 109.205C358.509 109.352 358.481 109.488 358.447 109.613C358.288 110.214 358.073 110.82 357.801 111.432C357.54 112.033 357.217 112.639 356.832 113.251C357.047 113.546 357.297 113.857 357.58 114.186C357.863 114.503 358.158 114.815 358.464 115.121C358.77 115.427 359.07 115.716 359.365 115.988C359.66 116.249 359.926 116.464 360.164 116.634C360.243 116.691 360.294 116.764 360.317 116.855C360.351 116.946 360.334 117.036 360.266 117.127L359.535 117.96C359.388 118.119 359.201 118.13 358.974 117.994C358.77 117.858 358.526 117.671 358.243 117.433C357.971 117.184 357.688 116.912 357.393 116.617C357.098 116.322 356.809 116.011 356.526 115.682C356.243 115.353 355.988 115.042 355.761 114.747C355.183 115.461 354.537 116.147 353.823 116.804C353.109 117.45 352.321 118.045 351.46 118.589ZM363.581 122.465C363.581 122.612 363.502 122.686 363.343 122.686H361.847C361.79 122.686 361.734 122.663 361.677 122.618C361.632 122.584 361.609 122.533 361.609 122.465V106.774C361.609 106.717 361.632 106.666 361.677 106.621C361.734 106.576 361.79 106.553 361.847 106.553H363.343C363.502 106.553 363.581 106.627 363.581 106.774V122.465ZM378.157 114.764C378.157 114.855 378.135 114.923 378.089 114.968C378.055 115.002 378.01 115.019 377.953 115.019H373.652V118.3H380.061C380.118 118.3 380.175 118.328 380.231 118.385C380.288 118.442 380.316 118.498 380.316 118.555V119.677C380.316 119.734 380.288 119.79 380.231 119.847C380.175 119.904 380.118 119.932 380.061 119.932H365.254C365.186 119.932 365.13 119.904 365.084 119.847C365.039 119.79 365.016 119.734 365.016 119.677V118.555C365.016 118.487 365.039 118.43 365.084 118.385C365.13 118.328 365.186 118.3 365.254 118.3H371.697V115.019H368.535C368.082 115.019 367.753 114.906 367.549 114.679C367.345 114.452 367.243 114.141 367.243 113.744V108.78C367.243 108.349 367.34 108.06 367.532 107.913C367.725 107.754 368.037 107.675 368.467 107.675H377.8C377.959 107.675 378.038 107.749 378.038 107.896V109.086C378.038 109.233 377.959 109.307 377.8 109.307H369.504C369.3 109.307 369.198 109.403 369.198 109.596V113.098C369.198 113.2 369.215 113.279 369.249 113.336C369.295 113.381 369.38 113.404 369.504 113.404H377.885C377.976 113.404 378.044 113.415 378.089 113.438C378.135 113.461 378.157 113.517 378.157 113.608V114.764ZM381.344 118.589C381.253 118.646 381.157 118.668 381.055 118.657C380.964 118.646 380.89 118.595 380.834 118.504L380.171 117.637C380.091 117.535 380.074 117.439 380.12 117.348C380.176 117.257 380.239 117.189 380.307 117.144C381.021 116.702 381.701 116.192 382.347 115.614C382.993 115.036 383.576 114.43 384.098 113.795C384.619 113.149 385.061 112.497 385.424 111.84C385.786 111.171 386.047 110.531 386.206 109.919C386.251 109.726 386.257 109.602 386.223 109.545C386.189 109.488 386.075 109.46 385.883 109.46H381.497C381.417 109.46 381.355 109.437 381.31 109.392C381.276 109.335 381.259 109.273 381.259 109.205V108.066C381.259 107.998 381.281 107.941 381.327 107.896C381.383 107.851 381.446 107.828 381.514 107.828H387.056C387.498 107.828 387.843 107.913 388.093 108.083C388.342 108.253 388.467 108.474 388.467 108.746C388.467 108.893 388.455 109.046 388.433 109.205C388.41 109.352 388.382 109.488 388.348 109.613C388.189 110.225 387.979 110.843 387.719 111.466C387.458 112.078 387.135 112.69 386.75 113.302C386.965 113.597 387.214 113.908 387.498 114.237C387.781 114.554 388.07 114.866 388.365 115.172C388.659 115.467 388.954 115.744 389.249 116.005C389.543 116.254 389.81 116.464 390.048 116.634C390.127 116.691 390.178 116.764 390.201 116.855C390.235 116.946 390.218 117.036 390.15 117.127L389.419 117.96C389.271 118.13 389.084 118.141 388.858 117.994C388.654 117.858 388.416 117.671 388.144 117.433C387.872 117.195 387.588 116.929 387.294 116.634C387.01 116.339 386.721 116.033 386.427 115.716C386.143 115.387 385.888 115.076 385.662 114.781C384.506 116.22 383.066 117.49 381.344 118.589ZM395.692 114.203C395.692 114.26 395.663 114.311 395.607 114.356C395.561 114.401 395.51 114.424 395.454 114.424H393.142V122.465C393.142 122.612 393.068 122.686 392.921 122.686H391.408C391.26 122.686 391.187 122.612 391.187 122.465V106.774C391.187 106.627 391.26 106.553 391.408 106.553H392.921C393.068 106.553 393.142 106.627 393.142 106.774V112.792H395.454C395.51 112.792 395.561 112.815 395.607 112.86C395.663 112.894 395.692 112.939 395.692 112.996V114.203Z" fill="white"/>
<path d="M267.918 410.054C266.581 410.054 265.549 409.555 264.824 408.558C264.11 407.549 263.753 405.985 263.753 403.866C263.753 402.914 263.849 402.013 264.042 401.163C264.235 400.302 264.552 399.554 264.994 398.919C265.447 398.284 266.037 397.78 266.762 397.406C267.487 397.032 268.377 396.845 269.431 396.845C269.76 396.845 270.122 396.873 270.519 396.93C270.927 396.987 271.261 397.06 271.522 397.151C271.624 397.185 271.669 397.259 271.658 397.372L271.607 398.732C271.584 398.891 271.494 398.936 271.335 398.868C271.04 398.755 270.723 398.681 270.383 398.647C270.054 398.613 269.692 398.596 269.295 398.596C268.706 398.596 268.201 398.698 267.782 398.902C267.374 399.095 267.028 399.367 266.745 399.718C266.462 400.069 266.235 400.483 266.065 400.959C265.906 401.435 265.787 401.945 265.708 402.489C265.81 402.353 265.946 402.223 266.116 402.098C266.297 401.962 266.49 401.849 266.694 401.758C266.909 401.656 267.13 401.577 267.357 401.52C267.584 401.452 267.805 401.418 268.02 401.418C268.632 401.418 269.187 401.52 269.686 401.724C270.196 401.917 270.632 402.2 270.995 402.574C271.358 402.937 271.635 403.379 271.828 403.9C272.032 404.41 272.134 404.988 272.134 405.634C272.134 406.257 272.038 406.841 271.845 407.385C271.652 407.918 271.369 408.382 270.995 408.779C270.632 409.176 270.19 409.487 269.669 409.714C269.148 409.941 268.564 410.054 267.918 410.054ZM268.088 403.186C267.351 403.186 266.773 403.413 266.354 403.866C265.935 404.308 265.725 404.875 265.725 405.566C265.725 405.951 265.782 406.314 265.895 406.654C266.008 406.994 266.161 407.294 266.354 407.555C266.558 407.804 266.796 408.003 267.068 408.15C267.34 408.297 267.635 408.371 267.952 408.371C268.632 408.371 269.187 408.133 269.618 407.657C270.049 407.181 270.264 406.535 270.264 405.719C270.264 404.937 270.071 404.319 269.686 403.866C269.312 403.413 268.779 403.186 268.088 403.186ZM289.418 409.034C289.418 409.431 289.293 409.799 289.044 410.139C288.806 410.479 288.455 410.768 287.99 411.006C287.537 411.255 286.97 411.448 286.29 411.584C285.621 411.731 284.862 411.805 284.012 411.805C283.162 411.805 282.397 411.731 281.717 411.584C281.048 411.448 280.482 411.255 280.017 411.006C279.564 410.768 279.212 410.479 278.963 410.139C278.725 409.799 278.606 409.431 278.606 409.034C278.606 408.343 278.991 407.748 279.762 407.249C280.533 406.739 281.626 406.433 283.043 406.331V405.209H276.617C276.458 405.209 276.379 405.124 276.379 404.954V403.866C276.379 403.798 276.402 403.741 276.447 403.696C276.492 403.639 276.549 403.611 276.617 403.611H291.407C291.464 403.611 291.52 403.639 291.577 403.696C291.634 403.753 291.662 403.809 291.662 403.866V404.954C291.662 405.022 291.634 405.084 291.577 405.141C291.52 405.186 291.464 405.209 291.407 405.209H284.998V406.331C286.403 406.433 287.491 406.739 288.262 407.249C289.033 407.748 289.418 408.343 289.418 409.034ZM288.466 398.545C288.466 398.738 288.404 398.925 288.279 399.106C288.166 399.287 288.024 399.452 287.854 399.599C287.673 399.78 287.446 399.956 287.174 400.126C286.902 400.296 286.602 400.46 286.273 400.619C286.817 400.766 287.418 400.902 288.075 401.027C288.732 401.152 289.356 401.254 289.945 401.333C290.036 401.356 290.098 401.407 290.132 401.486C290.166 401.554 290.172 401.622 290.149 401.69L289.877 402.574C289.854 402.631 289.803 402.687 289.724 402.744C289.656 402.789 289.571 402.801 289.469 402.778C288.642 402.653 287.746 402.489 286.783 402.285C285.831 402.07 284.913 401.832 284.029 401.571C283.202 401.854 282.329 402.115 281.411 402.353C280.493 402.591 279.575 402.789 278.657 402.948C278.578 402.971 278.493 402.971 278.402 402.948C278.311 402.914 278.255 402.863 278.232 402.795L277.909 401.826C277.886 401.758 277.898 401.69 277.943 401.622C277.988 401.543 278.051 401.492 278.13 401.469C279.49 401.22 280.759 400.931 281.938 400.602C283.128 400.262 284.199 399.871 285.151 399.429C285.253 399.384 285.315 399.35 285.338 399.327C285.372 399.293 285.378 399.27 285.355 399.259C285.344 399.236 285.315 399.225 285.27 399.225C285.225 399.214 285.185 399.208 285.151 399.208H279.286C279.127 399.208 279.048 399.134 279.048 398.987V397.95C279.048 397.814 279.127 397.746 279.286 397.746H287.004C287.503 397.746 287.871 397.831 288.109 398.001C288.347 398.16 288.466 398.341 288.466 398.545ZM284.012 407.742C282.879 407.742 282.017 407.878 281.428 408.15C280.839 408.411 280.544 408.711 280.544 409.051C280.544 409.391 280.839 409.697 281.428 409.969C282.017 410.241 282.879 410.377 284.012 410.377C285.145 410.377 286.007 410.241 286.596 409.969C287.185 409.697 287.48 409.391 287.48 409.051C287.48 408.711 287.185 408.411 286.596 408.15C286.007 407.878 285.145 407.742 284.012 407.742ZM286.307 396.794C286.307 396.862 286.279 396.924 286.222 396.981C286.165 397.038 286.097 397.066 286.018 397.066H281.666C281.621 397.066 281.564 397.043 281.496 396.998C281.439 396.953 281.411 396.89 281.411 396.811V395.876C281.411 395.797 281.439 395.734 281.496 395.689C281.564 395.644 281.621 395.621 281.666 395.621H286.018C286.086 395.621 286.148 395.649 286.205 395.706C286.273 395.763 286.307 395.825 286.307 395.893V396.794ZM305.354 408.473C305.354 408.949 305.224 409.385 304.963 409.782C304.714 410.179 304.357 410.519 303.892 410.802C303.439 411.085 302.901 411.301 302.277 411.448C301.654 411.607 300.98 411.686 300.254 411.686C299.472 411.686 298.77 411.607 298.146 411.448C297.523 411.301 296.99 411.085 296.548 410.802C296.118 410.53 295.783 410.196 295.545 409.799C295.319 409.402 295.205 408.96 295.205 408.473C295.205 407.997 295.319 407.566 295.545 407.181C295.783 406.784 296.118 406.444 296.548 406.161C296.99 405.878 297.523 405.662 298.146 405.515C298.77 405.356 299.472 405.277 300.254 405.277C300.98 405.277 301.654 405.356 302.277 405.515C302.901 405.662 303.439 405.878 303.892 406.161C304.357 406.433 304.714 406.767 304.963 407.164C305.224 407.549 305.354 407.986 305.354 408.473ZM293.403 404.869C293.267 404.971 293.154 405.011 293.063 404.988C292.984 404.965 292.91 404.909 292.842 404.818L292.162 404.019C292.038 403.894 291.987 403.792 292.009 403.713C292.043 403.634 292.117 403.56 292.23 403.492C292.865 403.061 293.415 402.608 293.879 402.132C294.355 401.656 294.752 401.129 295.069 400.551C295.387 399.973 295.619 399.327 295.766 398.613C295.925 397.899 296.004 397.089 296.004 396.182C296.004 396.103 296.033 396.035 296.089 395.978C296.146 395.921 296.203 395.893 296.259 395.893L297.755 395.961C297.903 395.961 297.976 396.046 297.976 396.216C297.976 396.76 297.948 397.264 297.891 397.729C297.846 398.194 297.778 398.641 297.687 399.072C297.869 399.503 298.101 399.911 298.384 400.296C298.679 400.67 298.991 401.016 299.319 401.333C299.648 401.639 299.982 401.917 300.322 402.166C300.674 402.404 301.002 402.591 301.308 402.727C301.501 402.806 301.535 402.942 301.41 403.135L300.832 404.087C300.708 404.257 300.549 404.302 300.356 404.223C299.665 403.906 299.019 403.486 298.418 402.965C297.829 402.444 297.325 401.854 296.905 401.197C296.52 401.922 296.033 402.58 295.443 403.169C294.865 403.758 294.185 404.325 293.403 404.869ZM300.033 400.313V399.106C300.033 399.049 300.056 399.004 300.101 398.97C300.158 398.925 300.215 398.902 300.271 398.902H303.263V395.774C303.263 395.627 303.343 395.553 303.501 395.553H304.997C305.054 395.553 305.105 395.576 305.15 395.621C305.207 395.666 305.235 395.717 305.235 395.774V404.801C305.235 404.869 305.207 404.926 305.15 404.971C305.105 405.016 305.054 405.039 304.997 405.039H303.501C303.343 405.039 303.263 404.96 303.263 404.801V400.517H300.271C300.215 400.517 300.158 400.5 300.101 400.466C300.056 400.421 300.033 400.37 300.033 400.313ZM303.331 408.524C303.331 408.241 303.246 407.997 303.076 407.793C302.918 407.578 302.697 407.402 302.413 407.266C302.13 407.119 301.801 407.011 301.427 406.943C301.065 406.864 300.674 406.824 300.254 406.824C299.348 406.824 298.611 406.966 298.044 407.249C297.489 407.532 297.211 407.957 297.211 408.524C297.211 408.796 297.285 409.028 297.432 409.221C297.591 409.425 297.801 409.595 298.061 409.731C298.333 409.867 298.656 409.969 299.03 410.037C299.404 410.105 299.812 410.139 300.254 410.139C300.674 410.139 301.065 410.105 301.427 410.037C301.801 409.969 302.13 409.867 302.413 409.731C302.697 409.595 302.918 409.425 303.076 409.221C303.246 409.028 303.331 408.796 303.331 408.524ZM315.307 398.103C315.227 399.134 315.018 400.132 314.678 401.095C314.338 402.047 313.867 402.948 313.267 403.798C312.677 404.648 311.963 405.441 311.125 406.178C310.286 406.915 309.34 407.572 308.286 408.15C308.195 408.195 308.099 408.218 307.997 408.218C307.906 408.207 307.832 408.156 307.776 408.065L307.096 407.113C307.039 407.022 307.022 406.932 307.045 406.841C307.067 406.75 307.118 406.677 307.198 406.62C308.886 405.725 310.252 404.62 311.295 403.305C312.337 401.99 312.972 400.562 313.199 399.021C313.233 398.794 313.216 398.647 313.148 398.579C313.091 398.5 312.961 398.46 312.757 398.46H307.963C307.815 398.46 307.742 398.381 307.742 398.222V397.032C307.742 396.896 307.815 396.828 307.963 396.828H314.1C314.61 396.828 314.944 396.936 315.103 397.151C315.273 397.355 315.341 397.672 315.307 398.103ZM322.192 403.152C322.192 403.22 322.163 403.277 322.107 403.322C322.061 403.367 322.005 403.39 321.937 403.39H319.642V411.465C319.642 411.612 319.568 411.686 319.421 411.686H317.908C317.76 411.686 317.687 411.612 317.687 411.465V395.774C317.687 395.627 317.76 395.553 317.908 395.553H319.421C319.568 395.553 319.642 395.627 319.642 395.774V401.758H321.937C322.005 401.758 322.061 401.781 322.107 401.826C322.163 401.86 322.192 401.905 322.192 401.962V403.152Z" fill="white"/>
<path d="M251.136 286.68C251.091 286.771 251.045 286.833 251 286.867C250.955 286.901 250.875 286.918 250.762 286.918H249.385C249.215 286.918 249.107 286.895 249.062 286.85C249.017 286.816 249.017 286.737 249.062 286.612L253.499 275.749H248.076C247.997 275.749 247.929 275.726 247.872 275.681C247.815 275.624 247.787 275.551 247.787 275.46V274.27C247.787 274.089 247.883 273.998 248.076 273.998H255.318C255.511 273.998 255.624 274.021 255.658 274.066C255.703 274.1 255.726 274.179 255.726 274.304V275.341C255.726 275.432 255.698 275.522 255.641 275.613L251.136 286.68ZM275.9 278.01C275.9 278.067 275.872 278.118 275.815 278.163C275.77 278.208 275.719 278.231 275.662 278.231H273.35V281.444C273.35 281.591 273.276 281.665 273.129 281.665H271.616C271.469 281.665 271.395 281.586 271.395 281.427V272.774C271.395 272.627 271.469 272.553 271.616 272.553H273.129C273.276 272.553 273.35 272.627 273.35 272.774V276.599H275.662C275.719 276.599 275.77 276.622 275.815 276.667C275.872 276.701 275.9 276.752 275.9 276.82V278.01ZM270.596 279.795C270.607 279.863 270.59 279.92 270.545 279.965C270.511 279.999 270.466 280.022 270.409 280.033C269.899 280.169 269.321 280.282 268.675 280.373C268.029 280.464 267.372 280.537 266.703 280.594C266.046 280.639 265.4 280.673 264.765 280.696C264.13 280.707 263.564 280.702 263.065 280.679C262.578 280.656 262.249 280.549 262.079 280.356C261.92 280.152 261.841 279.852 261.841 279.455V273.454C261.841 273.397 261.864 273.341 261.909 273.284C261.966 273.227 262.022 273.199 262.079 273.199H263.541C263.609 273.199 263.666 273.227 263.711 273.284C263.768 273.341 263.796 273.397 263.796 273.454V278.758C263.796 278.871 263.819 278.945 263.864 278.979C263.909 279.002 263.994 279.019 264.119 279.03C264.482 279.053 264.901 279.058 265.377 279.047C265.853 279.036 266.352 279.013 266.873 278.979C267.406 278.934 267.944 278.877 268.488 278.809C269.043 278.741 269.587 278.65 270.12 278.537C270.177 278.526 270.239 278.537 270.307 278.571C270.375 278.594 270.415 278.633 270.426 278.69L270.596 279.795ZM273.333 288.414C273.333 288.471 273.305 288.522 273.248 288.567C273.203 288.624 273.152 288.652 273.095 288.652H271.633C271.565 288.652 271.503 288.624 271.446 288.567C271.401 288.522 271.378 288.471 271.378 288.414V284.419C271.378 284.306 271.355 284.232 271.31 284.198C271.265 284.164 271.185 284.147 271.072 284.147H263.388C263.331 284.147 263.275 284.13 263.218 284.096C263.161 284.051 263.133 284 263.133 283.943V282.719C263.133 282.651 263.161 282.6 263.218 282.566C263.275 282.532 263.331 282.515 263.388 282.515H272.211C272.642 282.515 272.936 282.606 273.095 282.787C273.254 282.968 273.333 283.274 273.333 283.705V288.414ZM277.454 282.906C277.386 282.929 277.284 282.946 277.148 282.957C277.024 282.968 276.933 282.923 276.876 282.821L276.383 281.903C276.327 281.801 276.321 281.71 276.366 281.631C276.412 281.552 276.48 281.495 276.57 281.461C277.194 281.189 277.789 280.872 278.355 280.509C278.933 280.146 279.455 279.772 279.919 279.387C280.395 278.99 280.803 278.605 281.143 278.231C281.495 277.846 281.75 277.5 281.908 277.194C281.954 277.115 281.976 277.052 281.976 277.007C281.988 276.962 281.903 276.939 281.721 276.939H277.335C277.267 276.939 277.211 276.916 277.165 276.871C277.131 276.814 277.114 276.752 277.114 276.684V275.562C277.114 275.426 277.194 275.358 277.352 275.358H283.064C283.518 275.358 283.863 275.426 284.101 275.562C284.351 275.687 284.475 275.902 284.475 276.208C284.475 276.321 284.447 276.463 284.39 276.633C284.334 276.803 284.271 276.95 284.203 277.075C284.045 277.404 283.835 277.755 283.574 278.129C283.325 278.492 283.036 278.86 282.707 279.234C282.9 279.404 283.115 279.58 283.353 279.761C283.603 279.931 283.858 280.101 284.118 280.271C284.379 280.43 284.634 280.577 284.883 280.713C285.144 280.849 285.382 280.957 285.597 281.036C285.722 281.081 285.79 281.149 285.801 281.24C285.824 281.319 285.807 281.41 285.75 281.512L285.274 282.328C285.15 282.521 284.974 282.566 284.747 282.464C284.532 282.385 284.277 282.271 283.982 282.124C283.699 281.965 283.41 281.79 283.115 281.597C282.821 281.404 282.532 281.2 282.248 280.985C281.965 280.77 281.721 280.566 281.517 280.373C280.951 280.86 280.327 281.325 279.647 281.767C278.967 282.198 278.236 282.577 277.454 282.906ZM284.696 279.285V278.112C284.696 278.055 284.719 278.01 284.764 277.976C284.821 277.931 284.878 277.908 284.934 277.908H287.263V272.774C287.263 272.627 287.337 272.553 287.484 272.553H288.997C289.145 272.553 289.218 272.627 289.218 272.774V284.13C289.218 284.289 289.145 284.368 288.997 284.368H287.484C287.337 284.368 287.263 284.294 287.263 284.147V279.506H284.934C284.878 279.506 284.821 279.483 284.764 279.438C284.719 279.393 284.696 279.342 284.696 279.285ZM289.728 288.227C289.728 288.295 289.7 288.346 289.643 288.38C289.598 288.414 289.541 288.431 289.473 288.431H280.565C280.055 288.431 279.71 288.34 279.528 288.159C279.358 287.978 279.273 287.666 279.273 287.224V283.892C279.273 283.835 279.296 283.784 279.341 283.739C279.398 283.682 279.455 283.654 279.511 283.654H280.973C281.041 283.654 281.098 283.682 281.143 283.739C281.2 283.784 281.228 283.835 281.228 283.892V286.527C281.228 286.64 281.251 286.714 281.296 286.748C281.342 286.782 281.421 286.799 281.534 286.799H289.473C289.53 286.799 289.587 286.822 289.643 286.867C289.7 286.912 289.728 286.963 289.728 287.02V288.227ZM283.03 274.134C283.03 274.202 283.002 274.264 282.945 274.321C282.9 274.378 282.838 274.406 282.758 274.406H278.78C278.735 274.406 278.678 274.383 278.61 274.338C278.554 274.293 278.525 274.23 278.525 274.151V273.182C278.525 273.091 278.554 273.023 278.61 272.978C278.678 272.933 278.735 272.91 278.78 272.91H282.758C282.826 272.91 282.889 272.938 282.945 272.995C283.002 273.052 283.03 273.12 283.03 273.199V274.134ZM299.307 275.103C299.227 276.134 299.018 277.132 298.678 278.095C298.338 279.047 297.867 279.948 297.267 280.798C296.677 281.648 295.963 282.441 295.125 283.178C294.286 283.915 293.34 284.572 292.286 285.15C292.195 285.195 292.099 285.218 291.997 285.218C291.906 285.207 291.832 285.156 291.776 285.065L291.096 284.113C291.039 284.022 291.022 283.932 291.045 283.841C291.067 283.75 291.118 283.677 291.198 283.62C292.886 282.725 294.252 281.62 295.295 280.305C296.337 278.99 296.972 277.562 297.199 276.021C297.233 275.794 297.216 275.647 297.148 275.579C297.091 275.5 296.961 275.46 296.757 275.46H291.963C291.815 275.46 291.742 275.381 291.742 275.222V274.032C291.742 273.896 291.815 273.828 291.963 273.828H298.1C298.61 273.828 298.944 273.936 299.103 274.151C299.273 274.355 299.341 274.672 299.307 275.103ZM306.192 280.152C306.192 280.22 306.163 280.277 306.107 280.322C306.061 280.367 306.005 280.39 305.937 280.39H303.642V288.465C303.642 288.612 303.568 288.686 303.421 288.686H301.908C301.76 288.686 301.687 288.612 301.687 288.465V272.774C301.687 272.627 301.76 272.553 301.908 272.553H303.421C303.568 272.553 303.642 272.627 303.642 272.774V278.758H305.937C306.005 278.758 306.061 278.781 306.107 278.826C306.163 278.86 306.192 278.905 306.192 278.962V280.152Z" fill="white"/>
<path d="M772.974 286.935C772.759 286.935 772.651 286.861 772.651 286.714V285.745C772.651 285.654 772.674 285.564 772.719 285.473C772.776 285.382 772.838 285.292 772.906 285.201L775.49 282.141C776.431 281.019 777.128 280.084 777.581 279.336C778.034 278.588 778.261 277.976 778.261 277.5C778.261 276.956 778.091 276.508 777.751 276.157C777.422 275.806 777.014 275.63 776.527 275.63C776.062 275.63 775.609 275.698 775.167 275.834C774.736 275.959 774.266 276.168 773.756 276.463C773.665 276.52 773.575 276.548 773.484 276.548C773.393 276.537 773.337 276.48 773.314 276.378L773.076 275.086C773.053 275.029 773.059 274.973 773.093 274.916C773.127 274.859 773.201 274.797 773.314 274.729C773.745 274.502 774.238 274.298 774.793 274.117C775.348 273.936 775.892 273.845 776.425 273.845C776.969 273.845 777.468 273.924 777.921 274.083C778.386 274.23 778.782 274.457 779.111 274.763C779.451 275.058 779.717 275.432 779.91 275.885C780.103 276.338 780.199 276.86 780.199 277.449C780.199 277.959 780.086 278.48 779.859 279.013C779.632 279.534 779.349 280.05 779.009 280.56C778.669 281.059 778.306 281.54 777.921 282.005C777.536 282.458 777.184 282.872 776.867 283.246C776.618 283.552 776.351 283.875 776.068 284.215C775.796 284.544 775.518 284.867 775.235 285.184H780.216C780.375 285.184 780.454 285.275 780.454 285.456V286.646C780.454 286.839 780.375 286.935 780.216 286.935H772.974ZM787.708 281.444C787.629 281.467 787.538 281.467 787.436 281.444C787.345 281.421 787.289 281.382 787.266 281.325L786.858 280.288C786.835 280.197 786.847 280.107 786.892 280.016C786.949 279.925 787.011 279.869 787.079 279.846C788.824 279.313 790.337 278.696 791.618 277.993C792.899 277.29 793.93 276.531 794.712 275.715C794.837 275.59 794.899 275.5 794.899 275.443C794.899 275.386 794.814 275.358 794.644 275.358H788.15C788.003 275.358 787.929 275.284 787.929 275.137V273.947C787.929 273.811 788.003 273.743 788.15 273.743H796.344C796.809 273.743 797.149 273.817 797.364 273.964C797.579 274.1 797.687 274.298 797.687 274.559C797.687 274.967 797.415 275.488 796.871 276.123C796.338 276.735 795.732 277.319 795.052 277.874C795.335 278.01 795.658 278.163 796.021 278.333C796.395 278.503 796.769 278.667 797.143 278.826C797.528 278.985 797.897 279.132 798.248 279.268C798.599 279.393 798.905 279.495 799.166 279.574C799.347 279.631 799.398 279.75 799.319 279.931L798.86 281.036C798.837 281.104 798.781 281.149 798.69 281.172C798.599 281.195 798.509 281.195 798.418 281.172C798.078 281.059 797.704 280.923 797.296 280.764C796.899 280.605 796.486 280.43 796.055 280.237C795.624 280.044 795.188 279.84 794.746 279.625C794.315 279.41 793.896 279.189 793.488 278.962C792.627 279.495 791.703 279.971 790.717 280.39C789.742 280.809 788.739 281.161 787.708 281.444ZM800.679 285.677C800.679 285.734 800.651 285.79 800.594 285.847C800.537 285.904 800.481 285.932 800.424 285.932H785.617C785.549 285.932 785.492 285.909 785.447 285.864C785.402 285.807 785.379 285.745 785.379 285.677V284.538C785.379 284.379 785.458 284.3 785.617 284.3H792.026V281.121C792.026 280.962 792.105 280.883 792.264 280.883H793.743C793.811 280.883 793.868 280.906 793.913 280.951C793.97 280.996 793.998 281.053 793.998 281.121V284.3H800.424C800.481 284.3 800.537 284.328 800.594 284.385C800.651 284.43 800.679 284.481 800.679 284.538V285.677ZM809.866 280.951C809.878 281.019 809.855 281.087 809.798 281.155C809.742 281.212 809.685 281.246 809.628 281.257C809.198 281.359 808.71 281.444 808.166 281.512C807.622 281.58 807.061 281.637 806.483 281.682C805.905 281.716 805.322 281.739 804.732 281.75C804.154 281.761 803.61 281.756 803.1 281.733C802.658 281.71 802.358 281.62 802.199 281.461C802.041 281.291 801.961 281.025 801.961 280.662V277.721C801.961 277.37 802.035 277.126 802.182 276.99C802.341 276.843 802.602 276.769 802.964 276.769H806.194C806.308 276.769 806.376 276.758 806.398 276.735C806.421 276.701 806.432 276.622 806.432 276.497V275.052C806.432 274.927 806.421 274.854 806.398 274.831C806.376 274.808 806.308 274.797 806.194 274.797H802.267C802.211 274.797 802.154 274.774 802.097 274.729C802.052 274.684 802.029 274.633 802.029 274.576V273.488C802.029 273.431 802.052 273.386 802.097 273.352C802.154 273.307 802.211 273.284 802.267 273.284H807.197C807.639 273.284 807.94 273.375 808.098 273.556C808.257 273.726 808.336 274.009 808.336 274.406V277.075C808.336 277.494 808.246 277.783 808.064 277.942C807.894 278.101 807.628 278.18 807.265 278.18H804.103C804.013 278.18 803.95 278.197 803.916 278.231C803.882 278.254 803.865 278.316 803.865 278.418V279.897C803.865 280.09 803.967 280.192 804.171 280.203C804.523 280.226 804.908 280.231 805.327 280.22C805.758 280.209 806.194 280.186 806.636 280.152C807.09 280.118 807.549 280.078 808.013 280.033C808.478 279.976 808.926 279.908 809.356 279.829C809.413 279.818 809.481 279.829 809.56 279.863C809.64 279.886 809.685 279.931 809.696 279.999L809.866 280.951ZM809.577 274.746H812.263V272.774C812.263 272.627 812.337 272.553 812.484 272.553H813.997C814.145 272.553 814.218 272.627 814.218 272.774V282.09C814.218 282.237 814.145 282.311 813.997 282.311H812.484C812.337 282.311 812.263 282.237 812.263 282.09V279.166H809.577C809.521 279.166 809.464 279.149 809.407 279.115C809.351 279.07 809.322 279.019 809.322 278.962V277.857C809.322 277.8 809.351 277.755 809.407 277.721C809.464 277.676 809.521 277.653 809.577 277.653H812.263V276.276H809.577C809.521 276.276 809.464 276.259 809.407 276.225C809.351 276.18 809.322 276.129 809.322 276.072V274.95C809.322 274.893 809.351 274.848 809.407 274.814C809.464 274.769 809.521 274.746 809.577 274.746ZM814.218 288.414C814.218 288.471 814.19 288.522 814.133 288.567C814.088 288.624 814.037 288.652 813.98 288.652H812.518C812.45 288.652 812.388 288.624 812.331 288.567C812.286 288.522 812.263 288.471 812.263 288.414V285.065C812.263 284.952 812.241 284.878 812.195 284.844C812.15 284.81 812.065 284.793 811.94 284.793H804.035C803.979 284.793 803.922 284.776 803.865 284.742C803.82 284.697 803.797 284.646 803.797 284.589V283.365C803.797 283.297 803.82 283.246 803.865 283.212C803.922 283.178 803.979 283.161 804.035 283.161H813.096C813.527 283.161 813.822 283.252 813.98 283.433C814.139 283.603 814.218 283.903 814.218 284.334V288.414ZM824.307 275.103C824.227 276.134 824.018 277.132 823.678 278.095C823.338 279.047 822.867 279.948 822.267 280.798C821.677 281.648 820.963 282.441 820.125 283.178C819.286 283.915 818.34 284.572 817.286 285.15C817.195 285.195 817.099 285.218 816.997 285.218C816.906 285.207 816.832 285.156 816.776 285.065L816.096 284.113C816.039 284.022 816.022 283.932 816.045 283.841C816.067 283.75 816.118 283.677 816.198 283.62C817.886 282.725 819.252 281.62 820.295 280.305C821.337 278.99 821.972 277.562 822.199 276.021C822.233 275.794 822.216 275.647 822.148 275.579C822.091 275.5 821.961 275.46 821.757 275.46H816.963C816.815 275.46 816.742 275.381 816.742 275.222V274.032C816.742 273.896 816.815 273.828 816.963 273.828H823.1C823.61 273.828 823.944 273.936 824.103 274.151C824.273 274.355 824.341 274.672 824.307 275.103ZM831.192 280.152C831.192 280.22 831.163 280.277 831.107 280.322C831.061 280.367 831.005 280.39 830.937 280.39H828.642V288.465C828.642 288.612 828.568 288.686 828.421 288.686H826.908C826.76 288.686 826.687 288.612 826.687 288.465V272.774C826.687 272.627 826.76 272.553 826.908 272.553H828.421C828.568 272.553 828.642 272.627 828.642 272.774V278.758H830.937C831.005 278.758 831.061 278.781 831.107 278.826C831.163 278.86 831.192 278.905 831.192 278.962V280.152Z" fill="white"/>
<rect x="0.5" y="0.5" width="1077" height="606.529" stroke="#C4C4C4"/>
</svg>
