<svg width="1078" height="608" viewBox="0 0 1078 608" fill="none" xmlns="http://www.w3.org/2000/svg">
<rect x="0.5" y="0.5" width="1077" height="606.529" stroke="#C4C4C4"/>
<path d="M357.61 304.445L460.993 125.346H667.844L771.227 304.445L667.844 483.544H460.993L357.61 304.445Z" stroke="#222222"/>
<path d="M357.713 304.25H770.833" stroke="#767676" stroke-dasharray="4 4"/>
<path d="M461.723 126.365L668.283 484.138" stroke="#767676" stroke-dasharray="4 4"/>
<path d="M668.282 126.365L461.722 484.138" stroke="#767676" stroke-dasharray="4 4"/>
<circle cx="447.142" cy="90.4013" r="20.413" fill="#082B52"/>
<path d="M443.131 96.8203H445.795V91.7803H447.649L450.385 96.8203H453.355L450.241 91.3663C451.771 90.7723 452.779 89.5303 452.779 87.5323C452.779 84.4723 450.565 83.4823 447.775 83.4823H443.131V96.8203ZM445.795 89.6743V85.6063H447.523C449.233 85.6063 450.187 86.0923 450.187 87.5323C450.187 88.9543 449.233 89.6743 447.523 89.6743H445.795Z" fill="white"/>
<circle cx="325.636" cy="304.251" r="20.413" fill="#082B52"/>
<path d="M326.795 310.922C328.523 310.922 329.945 310.238 331.043 308.96L329.639 307.304C328.919 308.078 328.037 308.618 326.885 308.618C324.779 308.618 323.411 306.872 323.411 303.974C323.411 301.112 324.923 299.384 326.939 299.384C327.947 299.384 328.721 299.852 329.405 300.5L330.791 298.808C329.927 297.908 328.577 297.098 326.885 297.098C323.519 297.098 320.693 299.672 320.693 304.064C320.693 308.51 323.429 310.922 326.795 310.922Z" fill="white"/>
<circle cx="803.883" cy="304.251" r="20.413" fill="#082B52"/>
<path d="M802.653 303.722C803.049 302.336 803.445 300.824 803.787 299.366H803.877C804.255 300.806 804.615 302.336 805.029 303.722L805.425 305.18H802.257L802.653 303.722ZM798.045 310.67H800.745L801.681 307.25H806.001L806.937 310.67H809.727L805.443 297.332H802.311L798.045 310.67Z" fill="white"/>
<circle cx="447.142" cy="518.1" r="20.413" fill="#082B52"/>
<path d="M443.243 524.52H451.613V522.288H445.907V518.724H450.587V516.492H445.907V513.414H451.415V511.182H443.243V524.52Z" fill="white"/>
<circle cx="678.489" cy="90.4013" r="20.413" fill="#082B52"/>
<path d="M677.156 96.8203H679.82V83.4823H677.156V96.8203Z" fill="white"/>
<circle cx="678.489" cy="518.1" r="20.413" fill="#082B52"/>
<path d="M678.488 524.772C681.566 524.772 683.384 522.918 683.384 520.74C683.384 518.814 682.322 517.788 680.702 517.122L678.956 516.384C677.822 515.934 676.886 515.592 676.886 514.638C676.886 513.756 677.624 513.234 678.794 513.234C679.892 513.234 680.774 513.63 681.62 514.332L682.97 512.658C681.89 511.56 680.342 510.948 678.794 510.948C676.094 510.948 674.186 512.622 674.186 514.8C674.186 516.744 675.536 517.824 676.886 518.382L678.668 519.138C679.856 519.642 680.666 519.948 680.666 520.938C680.666 521.874 679.928 522.468 678.542 522.468C677.372 522.468 676.112 521.874 675.158 520.992L673.628 522.828C674.924 524.07 676.706 524.772 678.488 524.772Z" fill="white"/>
</svg>
