<svg width="396" height="269" viewBox="0 0 396 269" fill="none" xmlns="http://www.w3.org/2000/svg">
<g opacity="0.6" clip-path="url(#clip0_372_3038)">
<path d="M272.079 217.495C332.406 192.007 371.047 147.053 358.386 117.087C345.726 87.1206 286.558 83.49 226.231 108.978C165.905 134.465 127.263 179.419 139.924 209.386C152.584 239.352 211.752 242.983 272.079 217.495Z" fill="#D3E6FC"/>
<path d="M139.02 118.512C161.891 110.598 177.286 95.0903 173.405 83.8752C169.525 72.6601 147.838 69.9842 124.966 77.8985C102.095 85.8127 86.6997 101.32 90.5805 112.535C94.4613 123.75 116.148 126.426 139.02 118.512Z" fill="#D3E6FC"/>
</g>
<g clip-path="url(#clip1_372_3038)">
<path d="M266.435 160.994H264.877V233.084H266.435V160.994Z" fill="#2C346B"/>
<path d="M267.067 182.705H100.497C98.7934 182.705 97.3818 181.293 97.3818 179.589V179.395C97.3818 177.691 98.7934 176.279 100.497 176.279H267.067C268.771 176.279 270.182 177.691 270.182 179.395V179.589C270.182 181.342 268.771 182.705 267.067 182.705Z" fill="#2C346B"/>
<path d="M152.386 161.773H150.828V232.938H152.386V161.773Z" fill="#2C346B"/>
<path d="M93.2443 232.938L105.219 161.773H103.661L91.7354 232.938H93.2443Z" fill="#2C346B"/>
<path d="M207.293 116.115H86.8191L82.0488 63.2527C81.7081 59.748 84.2879 56.9248 87.7439 56.9248H201.89L207.293 116.115Z" fill="white"/>
<path d="M238.932 115.531H118.41L113.64 62.6687C113.299 59.164 115.879 56.3408 119.335 56.3408H233.48L238.932 115.531Z" fill="#F9DDBB"/>
<path d="M273.2 175.549L267.7 118.841C267.408 115.823 264.73 113.39 261.712 113.39H234.648L241.074 179.443H269.695C271.837 179.443 273.395 177.691 273.2 175.549Z" fill="#F9DDBB"/>
<path d="M248.278 179.443L242.388 118.841C242.096 115.823 239.419 113.39 236.401 113.39H145.571L152.97 179.443H248.278V179.443Z" fill="#F9DDBB"/>
<path d="M240.635 179.443L238.542 157.733H159.2L161.293 179.443H240.635Z" fill="#F9DDBB"/>
<path d="M165.577 179.443L159.59 117.77C159.298 114.752 156.621 112.318 153.603 112.318H126.539L133.062 179.443H165.577Z" fill="#F9DDBB"/>
<path d="M140.314 179.443L134.327 117.77C134.035 114.752 131.358 112.318 128.34 112.318H86.8193L92.7578 173.31C93.0986 176.668 96.0678 179.443 99.4751 179.443H140.314Z" fill="white"/>
</g>
<g clip-path="url(#clip2_372_3038)">
<path d="M316.71 215.955H319.176C319.176 215.476 319.176 215.035 319.176 214.556C319.066 212.679 318.808 210.692 318.182 208.741C317.594 206.791 316.563 204.804 315.349 203.148C314.797 202.375 314.355 201.786 314.134 201.307C314.024 201.087 313.95 200.939 313.95 200.792C313.95 200.608 313.877 200.498 313.877 200.351C313.877 199.799 313.913 198.989 314.208 197.738C314.502 196.523 315.017 195.051 315.533 193.321C316.048 191.592 316.6 189.641 316.784 187.286L316.858 186.402V185.446C316.821 185.004 316.784 184.342 316.747 183.9L316.71 183.495C316.526 182.17 316.121 180.808 315.606 179.631C314.502 177.239 313.067 175.509 311.742 174.11C310.38 172.712 309.092 171.608 307.988 170.614C306.884 169.621 305.964 168.701 305.265 167.817C303.866 166.088 303.093 163.401 302.946 160.236C302.873 158.985 302.873 157.697 302.909 156.372C302.946 155.194 302.026 154.458 301.143 154.458C299.56 160.015 300.333 166.272 303.241 171.203C305.522 175.067 309.055 178.306 309.902 182.759C310.822 187.691 308.135 192.659 308.319 197.701C308.393 199.983 309.092 202.191 310.27 204.104C311.153 205.503 312.294 206.717 313.288 208.042C314.944 210.361 316.121 213.084 316.71 215.955Z" fill="#679E44"/>
<path d="M310.749 210.324C310.969 210.545 311.19 210.802 311.374 211.06C311.595 211.318 311.779 211.575 312 211.87C312.809 213.011 313.546 214.335 314.171 215.771C314.208 215.844 314.208 215.881 314.245 215.955H316.674C316.085 213.084 314.907 210.324 313.178 208.005C312.184 206.681 311.043 205.466 310.16 204.068C308.982 202.191 308.283 199.946 308.209 197.664C308.025 192.622 310.712 187.691 309.792 182.722C308.982 178.306 305.449 175.067 303.167 171.203C300.26 166.272 299.524 160.015 301.07 154.458C300.481 154.458 299.892 154.752 299.561 155.415C298.898 156.666 298.346 157.991 297.868 159.426C297.279 161.23 296.874 163.217 296.837 165.352C296.8 167.486 297.205 169.768 298.052 171.902C298.935 174.037 300.149 175.767 301.327 177.239C302.468 178.748 303.609 179.962 304.455 181.103C305.302 182.244 305.964 183.201 306.185 183.973C306.443 184.746 306.479 185.262 306.406 186.366C306.332 187.396 306.038 188.795 305.633 190.377C305.265 191.96 304.75 193.763 304.492 195.934L304.382 196.744L304.345 197.627C304.345 197.922 304.308 198.216 304.308 198.51L304.345 199.467C304.382 200.755 304.676 202.154 305.191 203.479C305.412 204.141 305.78 204.767 306.111 205.392C306.443 206.018 306.884 206.57 307.289 207.012C308.099 207.895 308.835 208.521 309.35 208.999C309.644 209.257 309.828 209.441 310.086 209.662C310.307 209.846 310.528 210.066 310.749 210.324Z" fill="#7AB756"/>
<path d="M345.379 158.322C346.042 157.365 345.71 156.224 344.974 155.672C340.668 159.279 337.872 164.872 337.54 170.65C337.283 175.177 338.424 179.961 336.694 184.12C334.78 188.72 329.849 191.186 327.272 195.418C326.095 197.332 325.469 199.577 325.396 201.859C325.359 203.552 325.653 205.208 325.727 206.901C325.874 209.992 325.285 213.12 324.107 215.991H326.978C327.015 215.954 327.015 215.917 327.052 215.881C328.008 214.261 328.818 212.495 329.407 210.507C329.996 208.557 330.217 206.312 330.143 204.214C330.106 203.221 330.069 202.484 330.143 201.969C330.18 201.712 330.217 201.564 330.253 201.417C330.327 201.27 330.327 201.123 330.437 201.012C330.732 200.534 331.21 199.908 332.13 199.099C333.05 198.289 334.265 197.369 335.627 196.265C336.988 195.161 338.497 193.873 339.969 192.069L340.521 191.37L341.037 190.561C341.257 190.192 341.589 189.604 341.809 189.236L341.993 188.868C342.582 187.653 342.95 186.328 343.208 185.04C343.613 182.427 343.392 180.145 343.024 178.195C342.656 176.244 342.214 174.551 341.846 173.079C341.515 171.607 341.221 170.319 341.147 169.178C340.963 166.897 341.773 164.284 343.355 161.56C343.907 160.456 344.606 159.389 345.379 158.322Z" fill="#679E44"/>
<path d="M343.208 155.562C341.993 156.187 340.779 156.96 339.638 157.807C338.166 158.947 336.731 160.309 335.553 162.039C334.338 163.769 333.418 165.866 332.977 168.148C332.535 170.43 332.572 172.601 332.719 174.478C332.829 176.392 333.087 178.085 333.161 179.52C333.234 180.955 333.234 182.133 333.013 182.906C332.793 183.679 332.535 184.157 331.909 185.003C331.284 185.813 330.29 186.77 329.076 187.837C327.898 188.905 326.499 190.082 325.101 191.701L324.586 192.327L324.071 193.026C323.887 193.284 323.739 193.468 323.555 193.726L323.077 194.535C322.414 195.603 321.899 196.927 321.568 198.326C321.384 199.025 321.347 199.724 321.31 200.424C321.274 201.123 321.31 201.859 321.384 202.448C321.568 203.662 321.826 204.619 322.01 205.318C322.12 205.686 322.157 205.981 322.23 206.275C322.304 206.57 322.378 206.901 322.414 207.232C322.488 207.563 322.525 207.895 322.525 208.226C322.562 208.557 322.598 208.925 322.598 209.256C322.635 210.655 322.525 212.2 322.267 213.783C322.157 214.482 322.01 215.181 321.862 215.881H324.034C325.211 213.047 325.8 209.919 325.653 206.79C325.579 205.098 325.285 203.441 325.322 201.749C325.359 199.467 326.021 197.222 327.199 195.308C329.775 191.076 334.706 188.61 336.62 184.01C338.35 179.851 337.209 175.067 337.467 170.54C337.798 164.762 340.558 159.168 344.901 155.562C344.496 155.341 343.833 155.23 343.208 155.562Z" fill="#7AB756"/>
<path d="M319.25 205.135C320.575 208.557 320.98 212.311 320.575 215.991H323.115C323.335 215.292 323.519 214.593 323.667 213.894C324.108 211.869 324.366 209.735 324.256 207.49C324.182 205.282 323.667 202.853 322.857 200.718C322.489 199.725 322.195 198.952 322.084 198.437C322.047 198.179 322.011 197.995 322.011 197.811C322.047 197.627 322.011 197.48 322.047 197.333C322.195 196.744 322.452 195.897 323.151 194.72C323.814 193.542 324.734 192.143 325.764 190.487C326.795 188.831 327.899 186.954 328.782 184.525L329.113 183.605L329.371 182.612C329.445 182.17 329.592 181.397 329.702 180.955L329.776 180.514C329.997 179.042 329.923 177.533 329.702 176.098C329.224 173.264 328.23 170.982 327.2 169.105C326.169 167.228 325.139 165.646 324.256 164.284C323.372 162.886 322.673 161.634 322.195 160.493C321.201 158.212 321.164 155.194 321.9 151.808C322.158 150.483 322.526 149.121 322.967 147.76C323.335 146.508 322.599 145.478 321.643 145.184C318.404 150.52 317.447 157.328 319.103 163.438C320.391 168.185 323.188 172.712 322.82 177.643C322.415 183.127 318.183 187.506 316.969 192.843C316.417 195.235 316.49 197.811 317.226 200.166C317.742 201.822 318.588 203.442 319.25 205.135Z" fill="#679E44"/>
<path d="M312.515 200.166C312.699 200.939 312.994 201.639 313.288 202.227C313.877 203.405 314.466 204.288 314.907 204.951C315.128 205.282 315.312 205.576 315.496 205.871C315.68 206.165 315.864 206.46 316.012 206.791C316.196 207.085 316.343 207.417 316.49 207.785C316.637 208.116 316.784 208.484 316.932 208.815C317.447 210.25 317.852 211.87 318.109 213.599C318.257 214.372 318.33 215.182 318.441 215.955H320.612C321.017 212.311 320.612 208.521 319.287 205.098C318.625 203.405 317.778 201.786 317.226 200.019C316.527 197.664 316.416 195.088 316.968 192.696C318.183 187.359 322.415 182.98 322.82 177.496C323.188 172.565 320.391 168.075 319.103 163.291C317.447 157.181 318.441 150.373 321.642 145.037C321.017 144.853 320.317 144.963 319.765 145.589C318.735 146.693 317.741 147.907 316.858 149.269C315.717 150.999 314.723 152.949 314.098 155.194C313.435 157.402 313.215 159.941 313.546 162.444C313.877 164.947 314.65 167.155 315.46 169.068C316.232 170.982 317.079 172.638 317.668 174.11C318.257 175.582 318.661 176.797 318.661 177.68C318.698 178.563 318.625 179.152 318.22 180.256C317.852 181.324 317.152 182.685 316.269 184.231C315.423 185.777 314.392 187.506 313.472 189.715L313.141 190.524L312.847 191.444C312.736 191.739 312.663 192.033 312.552 192.364L312.331 193.395C312.037 194.757 311.927 196.339 312.074 197.885C312.111 198.658 312.331 199.394 312.515 200.166Z" fill="#7AB756"/>
<path d="M339.933 213.195C340.375 212.753 340.043 211.98 339.418 211.98H303.499C302.873 211.98 302.542 212.717 302.983 213.195L303.904 214.152H339.013L339.933 213.195Z" fill="white"/>
<path d="M316.564 227.29C316.858 227.585 317.263 227.769 317.668 227.769H325.249C325.654 227.769 326.059 227.585 326.353 227.29L336.474 216.765H306.443L316.564 227.29Z" fill="white"/>
<path d="M303.903 214.151L306.443 216.764H336.51L339.05 214.151H303.903Z" fill="white"/>
<path d="M335.591 232.7H284.767C283.81 232.7 283 231.927 283 230.933V227.29C283 226.333 283.773 225.523 284.767 225.523H335.591C336.547 225.523 337.357 226.296 337.357 227.29V230.933C337.32 231.89 336.547 232.7 335.591 232.7Z" fill="#F9DDBB"/>
</g>
<g clip-path="url(#clip3_372_3038)">
<path d="M199.625 26.63C201.62 28.5066 203.698 30.8836 203.407 33.6359C203.241 35.3457 202.202 36.8886 202.077 38.5984C201.952 40.5584 203.116 42.3515 204.363 43.8528C205.609 45.3541 207.022 46.8136 207.604 48.6902C207.812 49.274 207.895 49.9412 207.687 50.5251C207.313 51.6093 206.067 52.1514 205.443 53.1105C204.487 54.5701 205.194 56.4884 206.067 57.9896C206.939 59.4909 208.061 61.0339 207.937 62.7436C207.854 63.8279 207.189 64.8704 206.274 65.4125C204.737 66.33 202.493 66.0797 201.454 67.5393C200.747 68.5818 200.996 70.0414 200.248 71.0422C199.542 72.0014 198.212 72.1682 197.007 72.2516C194.513 72.4184 192.02 72.4601 189.526 72.4184C187.656 72.3767 185.703 72.2516 183.999 71.4592C182.711 70.8337 181.63 69.8329 180.633 68.7486C179.137 67.1223 177.807 65.3708 176.685 63.4942C176.269 62.7853 175.853 62.0347 175.937 61.2424C176.02 60.3249 176.726 59.6577 177.225 58.8654C178.139 57.4892 178.43 55.696 178.056 54.1114C177.682 52.6101 176.768 51.3174 175.978 49.9829C175.23 48.6485 174.607 47.1055 174.898 45.5626C175.396 43.269 177.89 41.8094 178.388 39.5158C178.929 36.8886 176.56 34.0529 177.64 31.5925C178.43 29.7994 180.674 29.1738 182.586 28.9236C184.539 28.6317 186.742 28.3398 187.864 26.7551C188.196 26.2547 188.446 25.7126 188.778 25.2122C191.646 21.3756 197.09 24.253 199.625 26.63Z" fill="#000543"/>
<path d="M248.415 136.847L243.262 126.63C243.137 126.255 243.013 125.88 242.763 125.504C241.517 123.336 239.065 120.834 236.862 120.167C232.665 118.874 231.418 119.499 227.968 120.459C223.688 121.668 221.984 124.629 226.015 129.299C227.636 131.176 228.8 132.886 230.504 134.137C231.002 134.512 231.376 135.012 231.584 135.596L233.33 141.226C233.579 142.018 234.41 142.477 235.158 142.268C235.948 142.06 236.363 141.226 236.114 140.475L234.867 136.472C234.784 136.138 235.033 135.805 235.366 135.846C235.574 135.846 235.782 135.972 235.823 136.18L237.984 142.602C238.233 143.394 239.106 143.811 239.854 143.603C240.602 143.353 241.018 142.56 240.769 141.768L238.732 135.68C238.649 135.471 238.732 135.221 238.94 135.096C239.231 134.929 239.563 135.054 239.688 135.304L241.434 139.349H244.634L241.724 132.635C241.641 132.469 241.683 132.218 241.766 132.052C242.015 131.676 242.597 131.718 242.763 132.093L245.756 137.973C246.13 138.682 247.002 139.016 247.75 138.682C248.498 138.474 248.789 137.598 248.415 136.847Z" fill="#FD9783"/>
<path d="M234.909 121.96L235.491 120.459C235.657 120 236.156 119.792 236.571 119.958L247.127 123.92C247.958 124.254 248.416 125.213 248.083 126.047C247.751 126.881 246.795 127.34 245.964 127.006L235.408 123.044C234.992 122.878 234.743 122.377 234.909 121.96Z" fill="#FD9783"/>
<path d="M239.064 123.461C233.163 116.247 221.153 102.694 219.075 100.4C214.129 94.9374 213.464 100.609 209.516 104.487C205.568 108.365 206.275 112.661 209.059 115.663C211.802 118.582 220.405 122.961 228.633 130.342L239.064 123.461Z" fill="#FD9783"/>
<path d="M233.329 196.271L212.509 204.487L212.716 214.453L233.454 212.785L233.329 196.271Z" fill="#FD9783"/>
<path d="M233.122 211.534C234.369 212.493 235.657 213.369 237.029 214.12C238.442 214.87 239.979 215.496 241.517 215.913C241.766 215.996 242.016 215.913 242.224 215.788C242.307 215.704 242.39 215.663 242.473 215.579C242.681 215.413 238.525 213.87 238.442 213.619C236.904 212.493 233.87 209.032 232.707 209.032H232.665C231.917 209.032 231.127 210.2 231.668 210.659C232.166 210.992 232.707 211.201 233.122 211.534Z" fill="#96382F"/>
<path d="M220.655 210.408L224.27 218.373L233.039 218.332L228.551 210.45L220.655 210.408Z" fill="#FF632C"/>
<path d="M240.811 214.828L231.46 210.449H228.551L233.039 218.331L245.632 218.247C245.715 216.287 243.512 215.996 240.811 214.828Z" fill="#FF632C"/>
<path d="M213.507 210.366C212.676 210.366 212.011 210.908 211.969 211.617C212.717 211.659 213.465 211.742 214.13 212.034C215.709 212.66 216.748 214.244 217.122 215.871C217.33 216.705 217.372 217.539 217.372 218.415L224.271 218.373L220.655 210.408L213.507 210.366Z" fill="#FF632C"/>
<path d="M217.122 215.871C216.748 214.244 215.709 212.66 214.13 212.034C213.465 211.742 212.717 211.659 211.969 211.617C211.969 211.617 211.969 211.617 211.969 211.659L211.886 218.456L217.371 218.415C217.413 217.539 217.33 216.705 217.122 215.871Z" fill="#FF632C"/>
<path d="M228.758 218.33L228.762 219.873L216.169 219.905L216.166 218.362L228.758 218.33Z" fill="#000544"/>
<path d="M245.673 218.206L225.808 218.289V219.04C225.808 219.541 226.39 219.916 227.138 219.916L244.592 219.832C245.174 219.832 245.673 219.499 245.673 219.123V218.206Z" fill="#96382F"/>
<path d="M223.564 216.83C221.943 215.704 220.946 211.242 219.45 210.408L213.34 210.366C212.676 210.366 212.052 210.95 211.927 211.492C214.753 212.91 217.33 214.286 217.829 218.331C221.985 218.29 226.39 218.29 229.507 218.29C228.925 217.998 224.146 217.205 223.564 216.83Z" fill="#FF632C"/>
<path d="M240.311 219.833L214.046 219.875C212.883 219.875 211.885 219.291 211.885 218.582V217.123L236.696 217.081C240.478 217.081 242.93 219.083 242.93 219.792L240.311 219.833Z" fill="#96382F"/>
<path d="M233.787 213.244C233.87 213.244 233.995 213.202 234.036 213.119L235.74 210.992C235.865 210.867 235.823 210.659 235.657 210.575C235.491 210.492 235.324 210.492 235.2 210.659L233.496 212.785C233.371 212.911 233.413 213.119 233.579 213.202C233.621 213.202 233.704 213.244 233.787 213.244Z" fill="#000544"/>
<path d="M235.283 213.953C235.366 213.953 235.491 213.911 235.533 213.827L236.904 212.034C237.029 211.909 236.987 211.701 236.821 211.617C236.655 211.534 236.488 211.534 236.364 211.701L234.992 213.494C234.868 213.619 234.909 213.827 235.075 213.911C235.117 213.953 235.2 213.953 235.283 213.953Z" fill="#000544"/>
<path d="M236.863 214.537C236.987 214.537 237.07 214.495 237.154 214.37L238.068 212.994C238.151 212.869 238.109 212.66 237.943 212.577C237.777 212.493 237.569 212.535 237.486 212.66L236.572 214.036C236.489 214.161 236.53 214.37 236.696 214.453C236.738 214.537 236.821 214.537 236.863 214.537Z" fill="#000544"/>
<path d="M206.94 212.327L209.475 195.854L187.324 204.07L186.16 212.327H206.94Z" fill="#FD9783"/>
<path d="M159.687 141.517C159.771 148.065 160.477 153.444 166.96 153.611L227.137 154.862C233.662 155.029 234.826 150.108 234.701 143.561L239.48 143.06C244.841 142.477 247.169 135.804 243.179 132.176C239.646 128.965 234.618 128.173 230.711 128.048L167.791 128.173C161.308 128.006 159.604 134.97 159.687 141.517Z" fill="#8B8BB2"/>
<path d="M228.551 142.143C228.551 134.804 223.231 128.59 216.665 128.34L152.955 126.297C152.124 129.383 151.584 132.552 151.418 135.763C151.293 138.057 151.459 140.392 151.833 142.644C153.787 149.191 157.776 155.196 165.963 155.196L216.54 155.029C223.107 155.279 228.509 149.483 228.551 142.143Z" fill="#8B8BB2"/>
<path d="M208.893 205.905C211.054 205.905 212.052 203.987 212.26 202.861L223.854 136.931C224.977 130.634 219.117 127.756 210.888 130.55C202.659 133.344 194.971 140.767 193.891 147.064L185.246 206.03L208.893 205.905Z" fill="#8B8BB2"/>
<path d="M231.501 206.072C233.662 206.072 234.825 204.153 235.116 203.027L245.132 141.726C246.961 134.595 242.846 127.839 232.997 128.131L231.293 128.048C222.815 130.842 219.49 140.85 217.911 147.147L211.054 206.113L231.501 206.072Z" fill="#8B8BB2"/>
<path d="M205.776 211.618C206.982 212.577 208.228 213.453 209.558 214.204C210.93 214.954 212.384 215.58 213.88 215.997C214.13 216.08 214.379 215.997 214.545 215.872C214.628 215.788 214.712 215.747 214.795 215.663C214.961 215.497 211.013 213.954 210.888 213.703C209.434 212.577 206.441 209.116 205.361 209.116H205.319C204.613 209.116 203.823 210.284 204.363 210.743C204.821 211.118 205.361 211.285 205.776 211.618Z" fill="#96382F"/>
<path d="M193.766 210.492L197.215 218.457L205.693 218.416L201.33 210.534L193.766 210.492Z" fill="#FF632C"/>
<path d="M213.174 214.912L204.156 210.533H201.33L205.652 218.415L217.829 218.373C217.912 216.413 215.751 216.08 213.174 214.912Z" fill="#FF632C"/>
<path d="M186.826 210.45C186.036 210.45 185.371 210.992 185.371 211.701C186.078 211.743 186.784 211.826 187.449 212.118C188.987 212.744 189.984 214.328 190.358 215.955C190.566 216.789 190.607 217.623 190.607 218.499L197.257 218.457L193.807 210.492L186.826 210.45Z" fill="#FF632C"/>
<path d="M190.359 215.955C189.985 214.328 188.987 212.744 187.45 212.118C186.785 211.826 186.078 211.743 185.372 211.701C185.372 211.701 185.372 211.701 185.372 211.743L185.289 218.54L190.567 218.499C190.608 217.665 190.525 216.789 190.359 215.955Z" fill="#FF632C"/>
<path d="M201.581 218.403L201.585 219.946L189.408 219.976L189.405 218.433L201.581 218.403Z" fill="#000544"/>
<path d="M217.87 218.29L198.712 218.373V219.124C198.712 219.624 199.293 220 200 220L216.831 219.916C217.413 219.916 217.87 219.583 217.87 219.207V218.29Z" fill="#96382F"/>
<path d="M196.55 216.914C194.971 215.788 194.057 211.326 192.602 210.492L186.701 210.45C186.036 210.45 185.454 211.034 185.371 211.576C188.114 212.994 190.566 214.37 191.065 218.415C195.054 218.374 199.335 218.373 202.327 218.373C201.704 218.123 197.091 217.289 196.55 216.914Z" fill="#FF632C"/>
<path d="M212.716 219.917L187.366 219.959C186.244 219.959 185.288 219.375 185.288 218.666V217.207L209.226 217.165C212.883 217.165 215.21 219.167 215.21 219.876L212.716 219.917Z" fill="#96382F"/>
<path d="M206.399 213.328C206.483 213.328 206.607 213.286 206.649 213.203L208.27 211.076C208.353 210.951 208.353 210.743 208.187 210.659C208.062 210.576 207.854 210.576 207.729 210.743L206.109 212.869C206.025 212.995 206.025 213.203 206.192 213.286C206.275 213.328 206.316 213.328 206.399 213.328Z" fill="#000544"/>
<path d="M207.812 214.079C207.896 214.079 208.02 214.037 208.062 213.953L209.392 212.16C209.475 212.035 209.475 211.827 209.309 211.743C209.184 211.66 208.976 211.66 208.851 211.827L207.522 213.62C207.438 213.745 207.438 213.953 207.605 214.037C207.688 214.037 207.771 214.079 207.812 214.079Z" fill="#000544"/>
<path d="M209.35 214.621C209.475 214.621 209.558 214.579 209.641 214.454L210.514 213.078C210.597 212.952 210.556 212.744 210.389 212.661C210.223 212.577 210.057 212.619 209.932 212.744L209.06 214.12C208.976 214.245 209.018 214.454 209.184 214.537C209.267 214.621 209.309 214.621 209.35 214.621Z" fill="#000544"/>
<path d="M209.267 206.405C210.431 206.405 211.968 205.071 212.384 202.902L222.774 145.104C224.02 138.473 221.693 134.303 220.197 132.385C218.493 130.258 216.207 128.84 214.212 128.757C214.046 128.757 213.88 128.882 213.88 129.049C213.88 129.216 214.005 129.382 214.171 129.382C215.999 129.466 218.119 130.759 219.657 132.76C221.07 134.595 223.314 138.598 222.109 144.979L211.719 202.777C211.345 204.695 209.973 205.78 209.225 205.78C209.059 205.78 208.893 205.905 208.893 206.113C208.893 206.322 209.101 206.405 209.267 206.405Z" fill="#696993"/>
<path d="M220.904 102.943C220.571 102.109 219.449 96.8551 216.997 90.3496L198.961 96.8968C200.873 101.776 202.95 106.947 204.571 109.866C206.441 113.16 210.68 120.583 217.122 117.08C221.153 114.954 222.358 106.697 220.904 102.943Z" fill="#FD9783"/>
<path d="M208.976 67.2468C207.563 62.9098 202.535 56.4043 197.631 58.1558C192.436 59.9907 186.95 70.0825 188.82 74.5028C191.314 80.5079 194.597 89.7656 197.714 97.7306L217.205 90.3077C213.922 81.5504 210.099 70.708 208.976 67.2468Z" fill="#77CFF2"/>
<path d="M185.163 52.5264C183.542 52.6515 181.714 53.0268 179.719 53.5272C172.571 55.4038 173.319 57.5723 170.825 60.7833C170.95 60.7833 154.202 116.33 152.082 131.593L198.005 131.467C199.958 131.467 201.953 129.799 202.368 127.798C206.067 109.783 209.6 70.3747 209.6 70.3747C208.644 54.4864 189.818 52.1094 185.163 52.5264Z" fill="#77CFF2"/>
<path d="M193.35 60.1162C193.391 60.1579 193.35 60.1162 193.35 60.1162V60.1162Z" fill="white"/>
<path d="M207.938 125.754C199.584 121.626 174.774 109.241 171.948 108.031C165.215 105.112 157.527 107.948 155.532 113.119C153.537 118.248 159.771 123.502 163.594 125.087C167.293 126.63 189.195 133.511 199.709 136.805L207.938 125.754Z" fill="#FD9783"/>
<path d="M190.566 118.04C190.691 118.04 190.774 117.956 190.857 117.873C190.94 117.706 190.857 117.539 190.732 117.456L175.19 109.533C175.023 109.449 174.857 109.533 174.774 109.658C174.691 109.825 174.774 109.991 174.899 110.075L190.442 117.998C190.483 117.998 190.525 118.04 190.566 118.04Z" fill="#FF7664"/>
<path d="M212.384 142.852L208.768 137.556C208.644 137.348 208.644 137.097 208.81 136.931C209.018 136.68 209.392 136.722 209.599 136.931L214.753 143.227C215.251 143.853 216.207 143.978 216.831 143.478C217.454 142.977 217.579 142.06 217.038 141.434L210.805 133.803C210.68 133.636 210.638 133.428 210.722 133.261C210.888 132.844 211.428 132.719 211.719 133.052L216.166 137.931C216.706 138.515 217.662 138.599 218.285 138.056C218.909 137.514 218.95 136.597 218.41 136.013L210.722 127.589C210.514 127.256 210.264 126.922 209.932 126.63C208.186 124.879 205.111 123.169 202.825 123.127C198.462 123.044 197.381 123.961 194.347 125.838C190.524 128.173 189.734 131.468 194.846 134.887C196.882 136.263 198.462 137.556 200.457 138.348C201.038 138.557 201.537 138.974 201.87 139.474L205.07 144.395C205.527 145.062 206.441 145.313 207.106 144.896C207.812 144.479 207.979 143.603 207.563 142.894L205.277 139.391C205.111 139.099 205.236 138.724 205.568 138.64C205.776 138.599 205.984 138.682 206.108 138.849L209.932 144.437C210.389 145.104 211.303 145.313 212.01 144.896C212.675 144.437 212.841 143.519 212.384 142.852Z" fill="#FD9783"/>
<path d="M201.329 125.379L201.454 123.753C201.495 123.294 201.911 122.919 202.368 122.96L213.589 123.919C214.503 124.003 215.168 124.795 215.085 125.713C215.002 126.63 214.212 127.297 213.298 127.214L202.077 126.255C201.661 126.255 201.287 125.838 201.329 125.379Z" fill="#FD9783"/>
<path d="M179.926 77.3384C182.503 71.8755 184.124 58.0722 179.22 55.0697C174.565 52.234 162.389 65.3283 160.685 71.0414C159.272 75.712 155.573 86.5127 154.451 96.0207L175.396 98.5228C176.477 90.6412 177.516 82.5094 179.926 77.3384Z" fill="#77CFF2"/>
<path d="M154.451 95.9795C153.952 100.108 153.62 103.319 153.495 104.57C152.996 109.074 154.659 118.415 158.316 121.584C164.176 126.63 167.916 121.084 170.326 117.789C173.111 113.953 174.316 106.363 175.396 98.4816L154.451 95.9795Z" fill="#FD9783"/>
<path d="M202.452 90.4748C202.368 90.4748 202.244 90.4331 202.202 90.3497C202.036 90.2246 202.036 89.9744 202.202 89.8076C204.571 87.3055 204.862 83.8442 202.95 79.549C202.867 79.3405 202.95 79.132 203.158 79.0486C203.366 78.9652 203.574 79.0486 203.657 79.2571C205.652 83.8025 205.361 87.6391 202.742 90.3497C202.659 90.4331 202.576 90.4748 202.452 90.4748Z" fill="#61B4E2"/>
<path d="M200.082 29.674C200.165 29.8408 200.207 30.0493 200.29 30.2161C200.373 32.6348 199.791 35.0535 198.628 37.1386C195.386 42.8517 187.947 47.6474 181.921 45.9376C179.054 45.1036 178.222 43.0185 178.305 42.9768C181.422 41.0168 177.724 35.4288 177.391 32.4263C176.726 26.3796 181.963 20.2912 190.69 21.0835C193.765 21.3754 196.508 23.0018 197.838 25.0034C198.835 26.4213 198.919 27.7557 199.833 28.9651C199.874 29.1736 199.958 29.4238 200.082 29.674Z" fill="#000543"/>
<path d="M186.534 58.8653C188.82 59.0738 190.898 57.364 191.064 55.0287C191.147 53.8194 191.314 53.4024 191.314 53.319C191.314 53.319 191.646 47.9395 191.729 47.9395C194.181 48.0646 197.589 45.4374 198.42 39.3489L199.002 29.3406C198.919 28.9652 196.55 29.7159 196.384 29.3406C195.719 28.9652 192.934 27.6725 190.067 27.881C187.698 28.0478 185.246 29.2572 184.54 29.7993C182.836 31.0503 183.293 40.8502 183.833 41.1838H183.542L182.711 54.4866C182.628 56.7385 184.29 58.6985 186.534 58.8653Z" fill="#FD9783"/>
<path d="M196.758 33.719C196.674 33.719 196.633 33.6773 196.591 33.6356C196.55 33.5522 196.591 33.4271 196.674 33.3854C196.716 33.3854 197.506 32.9267 198.586 33.4271C198.669 33.4688 198.711 33.5939 198.669 33.6773C198.628 33.7607 198.503 33.8024 198.42 33.7607C197.547 33.3437 196.882 33.719 196.841 33.719C196.799 33.719 196.758 33.719 196.758 33.719Z" fill="#000543"/>
<path d="M189.817 33.511C189.734 33.511 189.692 33.4693 189.651 33.4276C189.609 33.3442 189.651 33.2191 189.734 33.1774C189.776 33.1774 190.565 32.7187 191.646 33.2191C191.729 33.2608 191.77 33.3859 191.729 33.4693C191.687 33.5527 191.563 33.5944 191.479 33.5527C190.565 33.1357 189.9 33.511 189.9 33.511C189.9 33.511 189.859 33.511 189.817 33.511Z" fill="#000543"/>
<path d="M191.896 48.1897C185.288 47.8144 182.337 41.7677 182.379 40.3081C182.379 40.183 182.462 40.0996 182.586 40.0996C182.711 40.0996 182.794 40.183 182.794 40.3081C182.753 41.6843 185.579 47.4391 191.937 47.7727C192.062 47.7727 192.145 47.8561 192.103 47.9812C192.062 48.1063 191.979 48.1897 191.896 48.1897Z" fill="#FF7664"/>
<path d="M193.724 40.3497C193.558 40.3497 193.433 40.2246 193.433 40.0995C193.433 39.9327 193.558 39.8076 193.682 39.7659C194.347 39.7242 194.597 39.599 194.804 39.4739L194.929 39.3905C194.971 39.3488 195.012 39.3071 195.012 39.3071C195.012 39.2654 195.012 39.182 195.012 39.1403C194.929 39.0152 195.012 38.8067 195.137 38.765C195.261 38.6816 195.469 38.765 195.511 38.8901C195.594 39.0986 195.635 39.3071 195.552 39.5156C195.469 39.7242 195.345 39.8493 195.137 39.9744L195.012 40.0161C194.846 40.0995 194.555 40.2663 193.724 40.3497C193.765 40.3497 193.765 40.3497 193.724 40.3497Z" fill="#FF7664"/>
<path d="M190.981 35.888C190.981 36.305 190.774 36.6387 190.524 36.6387C190.275 36.6387 190.109 36.2633 190.109 35.8463C190.109 35.4293 190.317 35.0957 190.566 35.0957C190.815 35.1374 190.981 35.471 190.981 35.888Z" fill="#000543"/>
<path d="M197.755 35.971C197.755 36.3881 197.548 36.7217 197.34 36.7217C197.132 36.7217 196.924 36.3464 196.966 35.9293C196.966 35.5123 197.174 35.1787 197.381 35.1787C197.589 35.1787 197.797 35.5123 197.755 35.971Z" fill="#000543"/>
<path d="M185.08 38.2644C185.412 40.8082 184.415 42.6848 182.877 42.4763C181.339 42.2678 179.802 40.0576 179.511 37.5138C179.178 34.97 180.176 33.0934 181.713 33.302C183.251 33.5105 184.747 35.7206 185.08 38.2644Z" fill="#FD9783"/>
<path d="M182.42 38.8065C182.337 38.8065 182.254 38.7648 182.171 38.6813C182.088 38.5562 182.129 38.3477 182.254 38.2643C182.337 38.2226 182.379 38.0975 182.42 38.0141C182.42 37.889 182.42 37.8056 182.337 37.7222C182.212 37.5971 182.254 37.4303 182.379 37.3052C182.503 37.2218 182.67 37.2218 182.794 37.3469C182.961 37.5554 183.044 37.8473 183.002 38.0975C182.961 38.3894 182.794 38.6396 182.587 38.7648C182.545 38.8065 182.503 38.8065 182.42 38.8065Z" fill="#FF7664"/>
<path d="M184.664 35.5121C184.789 35.1368 184.914 34.8032 185.08 34.4696C185.579 33.5104 186.659 32.8015 187.823 32.3845C189.028 32.0092 190.316 31.8841 191.605 31.9258C192.851 31.9675 195.511 30.7998 196.716 30.5079C198.171 30.1743 198.753 30.9249 199.584 29.8824C199.667 29.799 198.836 29.2986 198.836 29.1735C198.794 29.0901 198.67 29.0067 198.545 29.0067C196.384 28.256 193.558 26.0458 191.231 26.1293C188.405 26.2544 185.911 28.8399 183.709 30.2577C182.919 30.7581 182.212 31.4254 181.631 32.0926C181.34 32.3845 180.342 31.9258 180.135 32.2594C179.386 33.427 178.763 35.5538 178.68 36.8883C178.638 37.8474 178.638 38.8482 178.722 39.8074C178.805 40.8916 181.09 39.9325 181.589 39.5155C183.044 38.3895 184.083 37.0134 184.664 35.5121Z" fill="#000543"/>
<path d="M189.526 37.8472C189.526 38.1392 189.028 38.3477 188.404 38.306C187.781 38.306 187.324 38.0557 187.324 37.7638C187.324 37.4719 187.822 37.2634 188.446 37.3051C189.069 37.3468 189.526 37.597 189.526 37.8472Z" fill="#FF7664"/>
<path d="M198.545 37.5557C197.922 37.5557 197.423 37.7642 197.423 38.0144C197.423 38.3063 197.88 38.5148 198.503 38.5565L198.545 37.5557C198.545 37.5557 198.587 37.5557 198.545 37.5557Z" fill="#FF7664"/>
<path d="M187.283 62.41C183.014 62.41 179.553 60.1135 179.553 57.2807C179.553 54.4478 183.014 52.1514 187.283 52.1514C191.552 52.1514 195.013 54.4478 195.013 57.2807C195.013 60.1135 191.552 62.41 187.283 62.41Z" fill="#FD9783"/>
<path d="M192.062 42.6432H192.27C192.477 42.6432 192.644 42.4764 192.644 42.2679C192.644 42.0594 192.477 41.8926 192.27 41.8926H192.062C191.854 41.8926 191.688 42.0594 191.688 42.2679C191.688 42.4764 191.854 42.6432 192.062 42.6432Z" fill="white"/>
<path d="M175.355 98.8985C175.563 98.8985 175.729 98.7734 175.77 98.5648L178.472 85.0952C178.513 84.8867 178.388 84.6365 178.139 84.5948C177.931 84.5531 177.682 84.6782 177.64 84.9284L174.939 98.398C174.898 98.6066 175.022 98.8568 175.272 98.8985C175.313 98.8985 175.355 98.8985 175.355 98.8985Z" fill="#6CAADD"/>
</g>
<path d="M173.038 179.124L167.051 117.452C166.759 114.434 164.082 112 161.064 112H134L140.523 179.124H173.038Z" fill="#F9DDBB"/>
<defs>
<clipPath id="clip0_372_3038">
<rect width="305.42" height="161.2" fill="white" transform="translate(90 73.334)"/>
</clipPath>
<clipPath id="clip1_372_3038">
<rect width="191.2" height="177.133" fill="white" transform="translate(82 56)"/>
</clipPath>
<clipPath id="clip2_372_3038">
<rect width="62.748" height="87.7" fill="white" transform="translate(283 145)"/>
</clipPath>
<clipPath id="clip3_372_3038">
<rect width="97.1643" height="199" fill="white" transform="matrix(-1 0 0 1 248.582 21)"/>
</clipPath>
</defs>
</svg>
