<svg width="71" height="71" viewBox="0 0 71 71" fill="none" xmlns="http://www.w3.org/2000/svg">
<g clip-path="url(#clip0_39_280)">
<path d="M41.6647 6.83758C39.4175 6.71664 37.2918 7.3818 35.5304 8.53072C33.7084 7.32133 31.6434 6.71664 29.3961 6.83758C23.3226 7.13992 18.7067 12.8845 19.0711 19.5966C19.4355 26.3692 24.841 35.5 30.9145 35.1977H40.1464C46.2199 35.5 51.6254 26.3087 51.9898 19.5966C52.2935 12.8845 47.6776 7.13992 41.6647 6.83758Z" fill="#ED9C9C"/>
<path d="M69.9675 63.074H1.09326V67.9115H69.9675V63.074Z" fill="#ED9C9C"/>
<path d="M69.9068 69H1.09324C0.485885 69 0 68.5163 0 67.9116V53.157C0 52.5524 0.485885 52.0686 1.09324 52.0686H69.9675C70.5748 52.0686 71.0607 52.5524 71.0607 53.157V67.972C71 68.5163 70.5141 69 69.9068 69ZM2.12575 66.8836H68.8743V54.185H2.12575V66.8836Z" fill="#7E152E"/>
<path d="M44.5193 68.2745C43.9119 68.2745 43.426 67.7907 43.426 67.186V53.8828C43.426 53.2781 43.9119 52.7943 44.5193 52.7943C45.1266 52.7943 45.6125 53.2781 45.6125 53.8828V67.2465C45.6125 67.7907 45.1266 68.2745 44.5193 68.2745Z" fill="#7E152E"/>
<path d="M24.7801 63.8601H6.6201C6.01274 63.8601 5.52686 63.3763 5.52686 62.7716V58.2364C5.52686 57.6317 6.01274 57.1479 6.6201 57.1479H24.7801C25.3874 57.1479 25.8733 57.6317 25.8733 58.2364V62.7716C25.8733 63.3763 25.3874 63.8601 24.7801 63.8601ZM7.6526 61.7436H23.6868V59.3248H7.6526V61.7436Z" fill="#7E152E"/>
<path d="M59.521 54.1851H10.3251C4.61591 54.1851 0 49.5894 0 43.9053C0 38.2212 4.61591 33.6255 10.3251 33.6255H59.521C61.2823 33.6255 62.6792 35.0768 62.6792 36.7699C62.6792 38.5235 61.2216 39.9143 59.521 39.9143H10.3251C8.13858 39.9143 6.37725 41.6679 6.37725 43.8448C6.37725 46.0217 8.13858 47.7753 10.3251 47.7753H59.521C61.2823 47.7753 62.6792 49.2266 62.6792 50.9197C62.6792 52.7338 61.2823 54.1851 59.521 54.1851ZM10.3251 35.7419C5.83062 35.7419 2.12575 39.4305 2.12575 43.9053C2.12575 48.38 5.83062 52.0686 10.3251 52.0686H59.521C60.1283 52.0686 60.6142 51.5849 60.6142 50.9802C60.6142 50.3755 60.1283 49.8917 59.521 49.8917H10.3251C6.9846 49.8917 4.2515 47.1706 4.2515 43.8448C4.2515 40.519 6.9846 37.7979 10.3251 37.7979H59.521C60.1283 37.7979 60.6142 37.3141 60.6142 36.7094C60.6142 36.1047 60.1283 35.621 59.521 35.621H10.3251V35.7419Z" fill="#7E152E"/>
<path d="M58.1848 49.5289C57.5774 49.5289 57.0916 49.0452 57.0916 48.4405V39.3701C57.0916 38.7654 57.5774 38.2816 58.1848 38.2816C58.7922 38.2816 59.278 38.7654 59.278 39.3701V48.4405C59.2173 49.0452 58.7314 49.5289 58.1848 49.5289Z" fill="#7E152E"/>
<path d="M41.3002 43.2401V60.1715L46.6449 57.3899L51.9289 60.1715V43.2401H41.3002Z" fill="#ED9C9C"/>
<path d="M51.929 61.1995C51.7468 61.1995 51.5646 61.139 51.4431 61.0785L46.645 58.5993L41.8469 61.0785C41.5432 61.26 41.1181 61.26 40.8144 61.0181C40.5107 60.8367 40.3285 60.4739 40.3285 60.111V43.1796C40.3285 42.5749 40.8144 42.0912 41.4217 42.0912H51.9897C52.5971 42.0912 53.083 42.5749 53.083 43.1796V60.111C53.083 60.4739 52.9008 60.8367 52.5971 61.0181C52.2934 61.139 52.1112 61.1995 51.929 61.1995ZM46.645 56.3619C46.8272 56.3619 47.0094 56.4224 47.1309 56.4829L50.8358 58.4179V44.2681H42.3935V58.4179L46.0984 56.4829C46.2806 56.4224 46.4628 56.3619 46.645 56.3619Z" fill="#7E152E"/>
<path d="M35.4697 13.4287C33.6476 13.4287 31.8256 12.7636 30.4894 11.3728C30.0642 10.9495 30.0642 10.2843 30.4894 9.86104C30.9145 9.43776 31.5826 9.43776 32.0078 9.86104C33.9513 11.7961 37.0488 11.7961 38.9924 9.86104C39.4175 9.43776 40.0856 9.43776 40.5108 9.86104C40.9359 10.2843 40.9359 10.9495 40.5108 11.3728C39.1139 12.7636 37.2918 13.4287 35.4697 13.4287Z" fill="#7E152E"/>
<path d="M35.4697 12.5217C34.923 12.5217 34.4372 12.0984 34.4372 11.5542C34.4372 11.3123 33.8905 4.90253 38.0206 2.12094C38.5064 1.87906 39.1745 2 39.4782 2.48375C39.7819 2.96751 39.6604 3.63267 39.1745 3.93502C36.077 5.99097 36.5022 11.3727 36.5022 11.3727C36.5629 11.9774 36.1378 12.4612 35.5304 12.5217C35.5304 12.5217 35.5304 12.5217 35.4697 12.5217Z" fill="#7E152E"/>
</g>
<defs>
<clipPath id="clip0_39_280">
<rect width="71" height="67" fill="white" transform="translate(0 2)"/>
</clipPath>
</defs>
</svg>
