<svg width="349" height="200" viewBox="0 0 349 200" fill="none" xmlns="http://www.w3.org/2000/svg">
<path d="M174 100L174 144" stroke="#DBDBDB"/>
<path d="M165.186 67.832H163.874V78.36H165.186V67.832ZM162.05 74.984C159.938 74.216 158.466 72.248 158.466 70.088V68.632H157.154V70.088C157.154 72.328 155.73 74.424 153.554 75.24L154.242 76.312C155.922 75.608 157.202 74.216 157.826 72.472C158.466 74.136 159.698 75.4 161.362 76.024L162.05 74.984ZM157.266 80.792V77.384H155.954V81.864H165.618V80.792H157.266ZM174.865 75.656V76.696H177.985V78.68H179.297V67.848H177.985V75.656H174.865ZM171.425 77.752H172.737V74.44C174.097 74.36 175.489 74.216 176.785 73.976L176.689 73.032C176.177 73.112 175.633 73.16 175.073 73.208C175.377 71.4 175.377 70.072 175.377 69.256V68.712H168.689V69.768H174.097C174.081 70.584 174.049 71.72 173.745 73.32C171.489 73.496 169.249 73.496 167.377 73.512L167.553 74.584C168.705 74.584 170.017 74.568 171.425 74.504V77.752ZM170.801 80.792V77.496H169.505V81.864H179.649V80.792H170.801ZM191.951 67.848V82.184H193.263V67.848H191.951ZM190.671 69.768H186.975V67.992H185.663V69.768H181.951V70.824H190.671V69.768ZM182.895 74.312C182.895 75.928 184.303 77 186.319 77C188.335 77 189.743 75.928 189.743 74.312C189.743 72.696 188.335 71.624 186.319 71.624C184.303 71.624 182.895 72.696 182.895 74.312ZM188.511 74.312C188.511 75.336 187.615 75.992 186.319 75.992C185.039 75.992 184.143 75.336 184.143 74.312C184.143 73.288 185.039 72.648 186.319 72.648C187.615 72.648 188.511 73.288 188.511 74.312ZM181.839 79.368C184.495 79.368 187.935 79.368 191.135 78.808L191.039 77.832C187.919 78.264 184.383 78.264 181.647 78.264L181.839 79.368Z" fill="#333333"/>
<rect x="0.5" y="52.5" width="347" height="47" stroke="#DBDBDB"/>
<rect width="348" height="53" fill="#0080FF"/>
<path d="M138.988 23.862H142.516V22.368H138.988V19.956H137.134V22.368H133.534V23.862H137.134V24.798C137.134 27.48 135.586 30.234 133.03 31.386L134.056 32.808C135.946 31.944 137.368 30.18 138.088 28.02C138.826 30.054 140.248 31.728 142.102 32.538L143.092 31.098C140.572 30 138.988 27.354 138.988 24.798V23.862ZM144.37 19.614V35.868H146.242V19.614H144.37ZM157.149 32.448V29.388H161.955V27.912H152.577V25.788H161.451V24.33H152.577V22.368H161.811V20.856H150.687V29.388H155.277V32.448H148.869V33.978H163.593V32.448H157.149ZM178.981 27.57C175.777 26.994 173.167 24.492 173.167 21.9V20.676H171.205V21.9C171.205 24.474 168.595 26.976 165.391 27.57L166.183 29.1C168.829 28.56 171.115 26.868 172.177 24.636C173.239 26.868 175.525 28.56 178.171 29.1L178.981 27.57ZM164.887 32.268V33.798H179.611V32.268H164.887ZM194.651 21.522H190.673V19.668H188.819V21.522H184.823V23.016H194.651V21.522ZM187.541 26.832C187.541 25.842 188.441 25.23 189.755 25.23C191.051 25.23 191.951 25.842 191.951 26.832C191.951 27.84 191.051 28.452 189.755 28.452C188.441 28.452 187.541 27.84 187.541 26.832ZM190.673 29.802C192.509 29.514 193.715 28.416 193.715 26.832C193.715 25.014 192.095 23.808 189.755 23.808C187.397 23.808 185.777 25.014 185.777 26.832C185.777 28.398 186.983 29.514 188.819 29.802V31.386C187.289 31.44 185.795 31.44 184.499 31.44L184.733 32.97C187.685 32.97 191.537 32.916 195.119 32.304L194.993 30.954C193.607 31.152 192.131 31.242 190.673 31.332V29.802ZM195.911 19.614V35.886H197.783V19.614H195.911ZM209.967 27.282C207.483 26.49 206.133 24.6 206.133 22.584V22.278H209.535V20.784H200.805V22.278H204.261V22.602C204.261 24.816 202.839 26.904 200.283 27.786L201.219 29.244C203.163 28.578 204.531 27.192 205.251 25.464C205.953 26.976 207.249 28.146 209.067 28.722L209.967 27.282ZM207.879 34.428C205.611 34.428 204.297 33.852 204.297 32.808C204.297 31.746 205.611 31.188 207.879 31.188C210.147 31.188 211.461 31.746 211.461 32.808C211.461 33.852 210.147 34.428 207.879 34.428ZM207.879 29.73C204.531 29.73 202.461 30.864 202.461 32.808C202.461 34.734 204.531 35.886 207.879 35.886C211.227 35.886 213.297 34.734 213.297 32.808C213.297 30.864 211.227 29.73 207.879 29.73ZM213.117 23.592V19.632H211.263V29.352H213.117V25.122H215.421V23.592H213.117Z" fill="white"/>
<g clip-path="url(#clip0)">
<g opacity="0.2">
<path fill-rule="evenodd" clip-rule="evenodd" d="M329.493 9C333.538 11.3236 338.241 12.6626 343.247 12.6626C348.253 12.6626 352.956 11.3367 357 9V33.3514C357 51.9268 346.566 68.0736 331.206 76.2914C330.64 76.5933 330.073 76.8952 329.493 77.1709C328.914 76.8821 328.347 76.5933 327.781 76.2914C312.434 68.0736 302 51.9268 302 33.3514V9C306.044 11.3367 310.734 12.6626 315.74 12.6626C320.759 12.6626 325.449 11.3367 329.493 9ZM320.39 33.4039H304.872V34.441C304.872 40.4928 306.071 46.2689 308.257 51.533L320.39 39.4426V33.4039ZM318.046 66.1176C321.392 69.4388 325.251 72.235 329.493 74.3879C333.775 72.2218 337.648 69.3994 340.981 66.0651L329.559 54.6442L318.046 66.1176ZM338.728 39.4032L350.782 51.4411C352.943 46.1901 354.128 40.4534 354.141 34.441V33.4039H338.728V39.4032ZM338.636 22.4161C338.636 27.444 334.539 31.5266 329.494 31.5266C324.448 31.5266 320.351 27.444 320.351 22.4161C320.351 17.3883 324.448 13.3057 329.494 13.3057C334.552 13.3057 338.636 17.3883 338.636 22.4161ZM337.688 22.4157C337.688 17.9392 334.065 14.3029 329.586 14.2635H329.507C324.989 14.2635 321.326 17.913 321.326 22.4157C321.326 26.8528 324.87 30.4497 329.296 30.5679H329.534C334.026 30.5679 337.688 26.9184 337.688 22.4157ZM322.314 22.4157C322.314 18.6219 325.265 15.5238 329.007 15.2744V20.9979H329.981V15.3006C331.576 15.55 332.867 16.9547 332.867 18.6087C332.867 20.4203 331.299 21.9169 329.494 21.9169C327.083 21.9169 325.147 23.8335 325.147 26.2358C325.147 27.1022 325.397 27.903 325.832 28.5725C323.724 27.3122 322.314 25.0281 322.314 22.4157ZM329.981 29.557V23.8203H329.007V29.5308C327.413 29.2814 326.108 27.8767 326.108 26.2358C326.108 24.4242 327.689 22.9145 329.507 22.9145C331.905 22.9145 333.855 21.0111 333.855 18.6087C333.855 17.7555 333.604 16.9547 333.17 16.272C335.264 17.5192 336.674 19.8033 336.674 22.4157C336.674 26.2095 333.723 29.3076 329.981 29.557Z" fill="white"/>
</g>
</g>
<path d="M145.329 164.114V180.368H147.201V164.114H145.329ZM139.947 168.362H143.475V166.868H139.947V164.456H138.093V166.868H134.493V168.362H138.093V169.298C138.093 171.98 136.545 174.734 133.989 175.886L135.015 177.308C136.905 176.444 138.327 174.698 139.047 172.52C139.785 174.554 141.189 176.228 143.061 177.038L144.051 175.598C141.531 174.482 139.947 171.872 139.947 169.298V168.362ZM157.927 176.948V173.888H162.733V172.412H153.355V170.288H162.229V168.83H153.355V166.868H162.589V165.356H151.465V173.888H156.055V176.948H149.647V178.478H164.371V176.948H157.927ZM179.58 172.07C176.376 171.494 173.766 168.992 173.766 166.4V165.176H171.804V166.4C171.804 168.938 169.194 171.494 165.99 172.07L166.782 173.6C169.428 173.078 171.714 171.35 172.776 169.136C173.838 171.35 176.124 173.078 178.77 173.6L179.58 172.07ZM165.486 176.768V178.298H180.21V176.768H165.486ZM196.132 164.114V180.386H198.004V164.114H196.132ZM194.872 166.022H190.894V164.15H189.04V166.022H185.044V167.516H194.872V166.022ZM190.894 174.302C192.766 174.014 193.936 172.916 193.936 171.332C193.936 169.514 192.334 168.308 189.976 168.308C187.618 168.308 185.998 169.514 185.998 171.332C185.998 172.916 187.168 174.014 189.04 174.302V175.886C187.51 175.94 186.016 175.94 184.72 175.94L184.954 177.47C187.906 177.47 191.758 177.416 195.34 176.804L195.214 175.454C193.828 175.652 192.352 175.742 190.894 175.832V174.302ZM187.762 171.332C187.762 170.324 188.662 169.73 189.976 169.73C191.272 169.73 192.172 170.324 192.172 171.332C192.172 172.34 191.272 172.952 189.976 172.952C188.662 172.952 187.762 172.34 187.762 171.332ZM208.893 173.672V174.968H212.079V176.48H213.933V164.114H212.079V173.672H208.893ZM205.653 170.468C208.029 170.468 209.667 169.334 209.667 167.606C209.667 165.878 208.029 164.744 205.653 164.744C203.277 164.744 201.621 165.878 201.621 167.606C201.621 169.334 203.277 170.468 205.653 170.468ZM205.653 166.112C207.021 166.112 207.903 166.688 207.903 167.606C207.903 168.524 207.021 169.1 205.653 169.1C204.285 169.1 203.385 168.524 203.385 167.606C203.385 166.688 204.285 166.112 205.653 166.112ZM204.915 175.958H206.769V172.826C208.155 172.754 209.577 172.592 210.945 172.358L210.801 171.026C207.345 171.458 203.367 171.512 200.379 171.512L200.613 173.024C201.909 173.024 203.331 173.006 204.915 172.934V175.958ZM204.429 178.568V175.274H202.575V180.08H214.311V178.568H204.429Z" fill="#333333"/>
<rect x="0.5" y="144.5" width="348" height="55" stroke="#DBDBDB"/>
<defs>
<clipPath id="clip0">
<rect width="52" height="48" fill="white" transform="translate(296 5)"/>
</clipPath>
</defs>
</svg>
