<?xml version="1.0" encoding="utf-8"?>
<!-- Generator: Adobe Illustrator 24.1.2, SVG Export Plug-In . SVG Version: 6.00 Build 0)  -->
<svg version="1.1" id="레이어_1" xmlns="http://www.w3.org/2000/svg" xmlns:xlink="http://www.w3.org/1999/xlink" x="0px"
	 y="0px" viewBox="0 0 600 200" style="enable-background:new 0 0 600 200;" xml:space="preserve">
<style type="text/css">
	.st0{opacity:0.35;}
	.st1{fill:#FFBB88;}
	.st2{fill:#FFFFFF;}
	.st3{fill:#CB763C;}
	.st4{fill-rule:evenodd;clip-rule:evenodd;fill:#FFFFFF;}
	.st5{fill-rule:evenodd;clip-rule:evenodd;fill:#FFBB88;}
	.st6{fill:#0044CC;}
	.st7{opacity:0.1;}
	.st8{fill-rule:evenodd;clip-rule:evenodd;fill:#0055FF;}
	.st9{opacity:0.8;}
	.st10{fill:#FF6B00;}
	.st11{clip-path:url(#SVGID_2_);}
	.st12{opacity:0.2;}
	.st13{fill:#0055FF;}
	.st14{clip-path:url(#SVGID_4_);}
	.st15{opacity:0.6;}
	.st16{clip-path:url(#SVGID_6_);}
	.st17{opacity:0.15;}
	.st18{clip-path:url(#SVGID_8_);}
	.st19{clip-path:url(#SVGID_10_);}
	.st20{opacity:0.9;}
	.st21{clip-path:url(#SVGID_12_);}
	.st22{clip-path:url(#SVGID_14_);}
</style>
<g class="st0">
	<path class="st1" d="M132,37.6h-15.5c-0.6,0-1.1,0.5-1.1,1.1v10.9c0,0.6,0.5,1.1,1.1,1.1H132c0.6,0,1.1-0.5,1.1-1.1V38.7
		C133.1,38.1,132.7,37.6,132,37.6z"/>
</g>
<path class="st2" d="M133.7,57.3c5.2,0,9.4-4.2,9.4-9.3s-4.2-9.3-9.4-9.3s-9.4,4.2-9.4,9.3C124.3,53.2,128.5,57.3,133.7,57.3z"/>
<path class="st3" d="M123.2,50.9h-7.8c-2.1,0-3.9-1.7-3.9-3.8V30c0-0.3,0.2-0.5,0.6-0.5h9.8c0.8,0,1.6,0.4,2.1,1l2.1,2.5h12.6
	c0.3,0,0.6,0.2,0.6,0.5v3.6c0,0.3-0.2,0.5-0.6,0.5c-0.3,0-0.6-0.2-0.6-0.5V34h-12.3c-0.2,0-0.3-0.1-0.4-0.2l-2.2-2.7
	c-0.3-0.4-0.8-0.6-1.3-0.6h-9.2v16.6c0,1.5,1.2,2.7,2.8,2.7h7.8c0.3,0,0.6,0.2,0.6,0.5C123.7,50.7,123.5,50.9,123.2,50.9L123.2,50.9
	z"/>
<path class="st3" d="M120.4,33.6h-4.8c-0.3,0-0.6-0.2-0.6-0.5s0.2-0.5,0.6-0.5h4.8c0.3,0,0.6,0.2,0.6,0.5
	C121,33.4,120.7,33.6,120.4,33.6z"/>
<path class="st3" d="M126.5,71c-0.1,0-0.2,0-0.3-0.1l-24.9-14.2c-0.2-0.1-0.3-0.3-0.3-0.5V27.8c0-0.2,0.1-0.4,0.3-0.5l24.9-14.2
	c0.2-0.1,0.4-0.1,0.6,0l24.9,14.2c0.2,0.1,0.3,0.3,0.3,0.5v28.5c0,0.2-0.1,0.4-0.3,0.5L126.8,71C126.7,71,126.6,71,126.5,71
	L126.5,71z M102.1,55.9l24.4,13.9l24.4-13.9V28.1l-24.4-13.9l-24.4,13.9C102.1,28.1,102.1,55.9,102.1,55.9z"/>
<path class="st3" d="M133.2,55.1c-0.2,0-0.5,0-0.7,0c-2.1-0.2-4-1.1-5.5-2.5c-1.5-1.5-2.4-3.4-2.6-5.4s0.4-4.1,1.6-5.8s3-2.9,5-3.5
	c2-0.5,4.2-0.3,6.1,0.5c0.3,0.1,0.4,0.5,0.3,0.7c-0.1,0.3-0.5,0.4-0.7,0.3c-1.7-0.8-3.5-0.9-5.3-0.5c-1.8,0.5-3.3,1.5-4.4,3
	s-1.5,3.3-1.4,5.1c0.2,1.8,1,3.5,2.3,4.8s3,2.1,4.8,2.2c1.8,0.2,3.6-0.3,5.2-1.4c1.5-1,2.6-2.6,3-4.3c0.4-1.4,0.3-2.9-0.1-4.3
	c-0.1-0.3,0.1-0.6,0.4-0.7c0.3-0.1,0.6,0.1,0.7,0.4c0.5,1.6,0.5,3.3,0.1,4.9c-0.5,2-1.8,3.8-3.5,4.9C136.8,54.6,135,55.1,133.2,55.1
	L133.2,55.1z"/>
<path class="st3" d="M133.2,40.1c-0.3,0-0.6-0.2-0.6-0.5v-2.7c0-0.3,0.2-0.5,0.6-0.5c0.3,0,0.6,0.2,0.6,0.5v2.7
	C133.7,39.8,133.5,40.1,133.2,40.1z"/>
<path class="st3" d="M133.2,56.5c-0.3,0-0.6-0.2-0.6-0.5v-2.7c0-0.3,0.2-0.5,0.6-0.5c0.3,0,0.6,0.2,0.6,0.5V56
	C133.7,56.3,133.5,56.5,133.2,56.5z"/>
<path class="st3" d="M142.9,46.9h-2.8c-0.3,0-0.6-0.2-0.6-0.5s0.2-0.5,0.6-0.5h2.8c0.3,0,0.6,0.2,0.6,0.5
	C143.4,46.7,143.2,46.9,142.9,46.9L142.9,46.9z"/>
<path class="st3" d="M126.2,46.9h-2.8c-0.3,0-0.6-0.2-0.6-0.5s0.2-0.5,0.6-0.5h2.8c0.3,0,0.6,0.2,0.6,0.5
	C126.8,46.7,126.5,46.9,126.2,46.9z"/>
<g>
	<path class="st1" d="M133.1,50.6c-2.3,0-4.2-1.9-4.2-4.2s1.9-4.2,4.2-4.2s4.2,1.9,4.2,4.2C137.4,48.7,135.5,50.6,133.1,50.6z
		 M133.1,43.3c-1.7,0-3.1,1.4-3.1,3.1c0,1.7,1.4,3.1,3.1,3.1c1.7,0,3.1-1.4,3.1-3.1C136.3,44.7,134.9,43.3,133.1,43.3z"/>
</g>
<g class="st0">
	<path class="st1" d="M199.4,39.8c0-0.6,0.5-1.1,1.1-1.1H216c0.6,0,1.1,0.5,1.1,1.1v8.3c0,1.1-2.2,2.4-3.4,2.3
		c-2.9-0.2-7.5,0.5-13.1,1.3c-0.7,0.1-1.3-0.4-1.3-1.1L199.4,39.8L199.4,39.8z"/>
</g>
<path class="st2" d="M217.1,57.3c5.5,0,10-4.4,10-9.8s-4.5-9.9-10-9.9s-10,4.4-10,9.9C207.2,52.9,211.6,57.3,217.1,57.3z"/>
<path class="st3" d="M207.2,52h-7.8c-2.1,0-3.9-1.7-3.9-3.8V31.1c0-0.3,0.2-0.5,0.6-0.5h8.7c0.8,0,1.6,0.4,2.1,1L209,34h13.7
	c0.3,0,0.6,0.2,0.6,0.5v3.6c0,0.3-0.2,0.5-0.6,0.5c-0.3,0-0.6-0.2-0.6-0.5V35h-13.4c-0.2,0-0.3-0.1-0.4-0.2l-2.2-2.7
	c-0.3-0.4-0.8-0.6-1.3-0.6h-8.1v16.6c0,1.5,1.2,2.7,2.8,2.7h7.8c0.3,0,0.6,0.2,0.6,0.5C207.7,51.8,207.5,52,207.2,52L207.2,52z"/>
<path class="st3" d="M204.4,34.7h-4.8c-0.3,0-0.6-0.2-0.6-0.5s0.2-0.5,0.6-0.5h4.8c0.3,0,0.6,0.2,0.6,0.5S204.7,34.7,204.4,34.7z"/>
<path class="st3" d="M210.5,71c-0.1,0-0.2,0-0.3-0.1l-24.9-14.2c-0.2-0.1-0.3-0.3-0.3-0.5V27.8c0-0.2,0.1-0.4,0.3-0.5l24.9-14.2
	c0.2-0.1,0.4-0.1,0.6,0l24.9,14.2c0.2,0.1,0.3,0.3,0.3,0.5v28.5c0,0.2-0.1,0.4-0.3,0.5L210.8,71C210.7,71,210.6,71,210.5,71z
	 M186.1,55.9l24.4,13.9l24.4-13.9V28.1l-24.4-13.9l-24.4,13.9V55.9z"/>
<path class="st3" d="M208,47.6c0,0.3,0.3,0.5,0.6,0.5s0.5-0.3,0.5-0.6L208,47.6L208,47.6z M209.8,51.2c-0.3-0.1-0.6,0.1-0.7,0.4
	l-1.3,4.7c-0.1,0.3,0.1,0.6,0.4,0.7c0.3,0.1,0.6-0.1,0.7-0.4l1.2-4.2l4.3,1.1c0.3,0.1,0.6-0.1,0.7-0.4c0.1-0.3-0.1-0.6-0.4-0.7
	L209.8,51.2L209.8,51.2z M223,53c-3.1,3.2-8.2,3.3-11.4,0.3l-0.8,0.8c3.7,3.5,9.5,3.3,13-0.3L223,53L223,53z M211.3,42
	c3.1-3.2,8.2-3.3,11.4-0.3l0.8-0.8c-3.7-3.5-9.5-3.3-13,0.3L211.3,42L211.3,42z M222.7,41.7c3.2,3,3.3,8.1,0.3,11.3l0.8,0.8
	c3.5-3.6,3.3-9.4-0.3-12.8L222.7,41.7L222.7,41.7z M209.1,47.6c0-2,0.7-4,2.2-5.6l-0.8-0.8c-1.7,1.8-2.6,4.1-2.5,6.4L209.1,47.6z
	 M211.6,53.2c-0.6-0.5-1.1-1.1-1.4-1.8l-1,0.6c0.4,0.7,1,1.4,1.6,2L211.6,53.2L211.6,53.2z"/>
<path class="st3" d="M217.6,38.7h-1.1v2.2h1.1V38.7z"/>
<path class="st3" d="M217.6,54.3h-1.1v2.2h1.1V54.3z"/>
<path class="st3" d="M225.9,46.9h-2.2V48h2.2V46.9z"/>
<path class="st1" d="M217,49.2c-0.1,0-0.3-0.1-0.4-0.1l-3.4-3.2c-0.2-0.2-0.2-0.6,0-0.8s0.6-0.2,0.8,0l3,2.8l4.1-5.3
	c0.2-0.2,0.5-0.3,0.8-0.1c0.2,0.2,0.3,0.5,0.1,0.8l-4.4,5.8C217.4,49.1,217.2,49.1,217,49.2C217.1,49.1,217.1,49.1,217,49.2
	L217,49.2z"/>
<path class="st2" d="M217.1,49.2c0.6,0,1.1-0.5,1.1-1.1s-0.5-1.1-1.1-1.1s-1.1,0.5-1.1,1.1S216.5,49.2,217.1,49.2z"/>
<path class="st1" d="M217.1,49.8c-0.9,0-1.7-0.7-1.7-1.6c0-0.9,0.7-1.6,1.7-1.6c0.9,0,1.7,0.7,1.7,1.6
	C218.8,49,218.1,49.8,217.1,49.8z M217.1,47.6c-0.3,0-0.6,0.2-0.6,0.5s0.2,0.5,0.6,0.5c0.3,0,0.6-0.2,0.6-0.5
	C217.7,47.8,217.5,47.6,217.1,47.6z"/>
<path class="st3" d="M319.6,68h-50.9c-0.3,0-0.6-0.2-0.6-0.5v-50c0-0.3,0.2-0.5,0.6-0.5h50.9c0.3,0,0.6,0.2,0.6,0.5v49.9
	C320.1,67.8,319.9,68,319.6,68z M269.2,66.9H319V18.1h-49.8V66.9z"/>
<path class="st4" d="M293.6,40h14.9v14.6l-4.1-4.3H298c-2.4,0-4.4-1.9-4.4-4.3V40L293.6,40z"/>
<path class="st3" d="M308.5,40v-0.5c0.3,0,0.6,0.2,0.6,0.5H308.5z M293.6,40H293c0-0.3,0.2-0.5,0.6-0.5V40z M308.5,54.6h0.6
	c0,0.2-0.1,0.4-0.4,0.5c-0.2,0.1-0.5,0-0.6-0.1L308.5,54.6L308.5,54.6z M304.4,50.3v-0.5c0.2,0,0.3,0.1,0.4,0.2L304.4,50.3
	L304.4,50.3z M308.5,40.5h-14.9v-1.1h14.9V40.5z M307.9,49.5V40h1.1v9.5H307.9z M307.9,50.3v-0.8h1.1v0.8H307.9z M307.9,54.6v-4.3
	h1.1v4.3H307.9z M304.8,49.9l4.1,4.3l-0.8,0.7l-4.1-4.3L304.8,49.9L304.8,49.9z M298,49.7h6.4v1.1H298V49.7L298,49.7z M294.1,45.9
	c0,2.1,1.7,3.8,3.9,3.8v1.1c-2.8,0-5-2.2-5-4.9C293,45.9,294.1,45.9,294.1,45.9z M294.1,40v5.9H293V40H294.1z"/>
<g class="st0">
	<path class="st5" d="M293,40.3h14.9v14.6l-4.1-4.3h-6.4c-2.4,0-4.4-1.9-4.4-4.3V40.3L293,40.3z"/>
</g>
<path class="st4" d="M284.1,31.7c-2.4,0-4.4,1.9-4.4,4.3v16.6l5.9-6.2h11c2.4,0,4.4-1.9,4.4-4.3V31.7H284.1L284.1,31.7z"/>
<path class="st3" d="M279.7,52.5h-0.6c0,0.2,0.1,0.4,0.4,0.5c0.2,0.1,0.5,0,0.6-0.1L279.7,52.5L279.7,52.5z M285.6,46.3v-0.5
	c-0.2,0-0.3,0.1-0.4,0.2L285.6,46.3L285.6,46.3z M301,31.6h0.6c0-0.3-0.2-0.5-0.6-0.5V31.6z M280.3,36c0-2.1,1.7-3.8,3.9-3.8v-1.1
	c-2.8,0-5,2.2-5,4.9H280.3z M280.3,45.2V36h-1.1v9.2H280.3z M280.3,46.3v-1.1h-1.1v1.1H280.3z M280.3,52.5v-6.2h-1.1v6.2H280.3z
	 M285.2,46l-5.9,6.2l0.8,0.7l5.9-6.2L285.2,46L285.2,46z M296.6,45.8h-11v1.1h11V45.8L296.6,45.8z M300.5,42c0,2.1-1.7,3.8-3.9,3.8
	v1.1c2.7,0,5-2.2,5-4.9C301.6,42,300.5,42,300.5,42z M300.5,31.6V42h1.1V31.6H300.5z M284.1,32.2H301v-1.1h-16.9V32.2L284.1,32.2z"
	/>
<g class="st0">
	<path class="st1" d="M286.5,39.8c0.5,0,1-0.4,1-0.9s-0.4-0.9-1-0.9c-0.5,0-1,0.4-1,0.9C285.6,39.4,286,39.8,286.5,39.8z"/>
</g>
<g class="st0">
	<path class="st1" d="M290.8,39.8c0.5,0,1-0.4,1-0.9s-0.4-0.9-1-0.9c-0.5,0-1,0.4-1,0.9C289.8,39.4,290.3,39.8,290.8,39.8z"/>
</g>
<g class="st0">
	<path class="st1" d="M295.1,39.8c0.5,0,1-0.4,1-0.9s-0.4-0.9-1-0.9c-0.5,0-1,0.4-1,0.9C294.1,39.4,294.5,39.8,295.1,39.8z"/>
</g>
<path class="st6" d="M465.7,133.5h-30.3c-0.2,0-0.3-0.1-0.3-0.3v-30.3c0-0.2,0.1-0.3,0.3-0.3h30.3c0.2,0,0.3,0.1,0.3,0.3v30.3
	C466,133.4,465.9,133.5,465.7,133.5z M435.7,132.8h29.7v-29.7h-29.7V132.8z"/>
<path class="st4" d="M450.2,116.5h8.9v8.9l-2.4-2.6h-3.8c-1.5,0-2.6-1.2-2.6-2.6L450.2,116.5L450.2,116.5z"/>
<path class="st6" d="M459.1,116.5v-0.3c0.2,0,0.3,0.2,0.3,0.3H459.1z M450.2,116.5h-0.3c0-0.2,0.1-0.3,0.3-0.3V116.5z M459.1,125.4
	h0.3c0,0.1-0.1,0.3-0.2,0.3c-0.1,0.1-0.3,0-0.4-0.1L459.1,125.4L459.1,125.4z M456.6,122.7v-0.3c0.1,0,0.2,0,0.2,0.1L456.6,122.7
	L456.6,122.7z M459.1,116.8h-8.9v-0.7h8.9V116.8z M458.7,122.3v-5.8h0.7v5.8H458.7z M458.7,122.7v-0.5h0.7v0.5H458.7z M458.7,125.4
	v-2.6h0.7v2.6H458.7z M456.9,122.5l2.4,2.6l-0.5,0.4l-2.4-2.6L456.9,122.5L456.9,122.5z M452.8,122.4h3.8v0.7h-3.8V122.4
	L452.8,122.4z M450.5,120.1c0,1.3,1,2.3,2.3,2.3v0.7c-1.6,0-3-1.3-3-3H450.5z M450.5,116.5v3.6h-0.7v-3.6H450.5z"/>
<g class="st7">
	<path class="st8" d="M449.8,116.7h8.9v8.9l-2.4-2.6h-3.8c-1.5,0-2.6-1.2-2.6-2.6L449.8,116.7L449.8,116.7z"/>
</g>
<path class="st4" d="M444.6,111.4c-1.5,0-2.6,1.2-2.6,2.6v10.1l3.5-3.8h6.6c1.5,0,2.6-1.2,2.6-2.6v-6.3L444.6,111.4L444.6,111.4z"/>
<path class="st6" d="M441.9,124.1h-0.3c0,0.1,0.1,0.3,0.2,0.3c0.1,0.1,0.3,0,0.4-0.1L441.9,124.1L441.9,124.1z M445.4,120.3V120
	c-0.1,0-0.2,0-0.2,0.1L445.4,120.3L445.4,120.3z M454.6,111.4h0.3c0-0.2-0.1-0.3-0.3-0.3V111.4z M442.3,114c0-1.3,1-2.3,2.3-2.3V111
	c-1.6,0-3,1.3-3,3H442.3z M442.3,119.6V114h-0.7v5.6H442.3z M442.3,120.3v-0.7h-0.7v0.7H442.3z M442.3,124.1v-3.8h-0.7v3.8H442.3z
	 M445.2,120.1l-3.5,3.8l0.5,0.4l3.5-3.8L445.2,120.1L445.2,120.1z M452,120h-6.6v0.7h6.6V120L452,120z M454.3,117.7
	c0,1.3-1,2.3-2.3,2.3v0.7c1.6,0,3-1.3,3-3H454.3z M454.3,111.4v6.3h0.7v-6.3H454.3z M444.6,111.7h10.1V111h-10.1V111.7L444.6,111.7z
	"/>
<g class="st9">
	<path class="st10" d="M446,116.4c0.3,0,0.6-0.3,0.6-0.6c0-0.3-0.3-0.6-0.6-0.6c-0.3,0-0.6,0.3-0.6,0.6S445.7,116.4,446,116.4z"/>
</g>
<g class="st9">
	<path class="st10" d="M448.5,116.4c0.3,0,0.6-0.3,0.6-0.6c0-0.3-0.3-0.6-0.6-0.6c-0.3,0-0.6,0.3-0.6,0.6
		C448,116.1,448.2,116.4,448.5,116.4z"/>
</g>
<g class="st9">
	<path class="st10" d="M451.1,116.4c0.3,0,0.6-0.3,0.6-0.6c0-0.3-0.3-0.6-0.6-0.6c-0.3,0-0.6,0.3-0.6,0.6S450.8,116.4,451.1,116.4z"
		/>
</g>
<g>
	<g>
		<g>
			<defs>
				<rect id="SVGID_1_" x="288.7" y="100" width="36" height="36"/>
			</defs>
			<clipPath id="SVGID_2_">
				<use xlink:href="#SVGID_1_"  style="overflow:visible;"/>
			</clipPath>
			<g class="st11">
				<path class="st2" d="M297.3,110.5v10.6c0,1.1,0.9,2,2,2h14.1v-10.5h-7.8l-1.4-1.7c-0.3-0.3-0.6-0.5-1-0.5L297.3,110.5
					L297.3,110.5z"/>
				<path class="st6" d="M313.4,123.5h-14.1c-1.3,0-2.4-1.1-2.4-2.4v-10.6c0-0.2,0.1-0.3,0.3-0.3h5.9c0.5,0,1,0.2,1.3,0.6l1.3,1.5
					h7.7c0.2,0,0.3,0.2,0.3,0.3v10.5C313.8,123.4,313.6,123.5,313.4,123.5L313.4,123.5z M297.6,110.9v10.3c0,0.9,0.8,1.7,1.7,1.7
					h13.8V113h-7.5c-0.1,0-0.2,0-0.3-0.1l-1.4-1.7c-0.2-0.2-0.5-0.4-0.8-0.4L297.6,110.9L297.6,110.9z"/>
				<path class="st6" d="M302.3,112.8h-2.9c-0.2,0-0.3-0.2-0.3-0.3c0-0.2,0.1-0.3,0.3-0.3h2.9c0.2,0,0.3,0.2,0.3,0.3
					C302.7,112.6,302.5,112.8,302.3,112.8z"/>
				<g class="st12">
					<path class="st13" d="M309.4,115.3H300c-0.4,0-0.7,0.3-0.7,0.7v6.8c0,0.4,0.3,0.7,0.7,0.7h9.4c0.4,0,0.7-0.3,0.7-0.7V116
						C310.1,115.6,309.8,115.3,309.4,115.3z"/>
				</g>
				<path class="st6" d="M306.7,136c-0.1,0-0.1,0-0.2,0l-15.2-8.8c-0.1-0.1-0.2-0.2-0.2-0.3v-17.7c0-0.1,0.1-0.2,0.2-0.3l15.2-8.8
					c0.1-0.1,0.2-0.1,0.3,0l15.2,8.8c0.1,0.1,0.2,0.2,0.2,0.3v17.7c0,0.1-0.1,0.2-0.2,0.3L306.7,136C306.8,136,306.8,136,306.7,136
					L306.7,136z M291.9,126.6l14.8,8.6l14.8-8.6v-17.3l-14.8-8.6l-14.8,8.6V126.6z"/>
				<path class="st4" d="M309.6,114.7h2.2v0.8c0.7,0.1,1.4,0.4,2,0.7l0.9-0.8l1.5,1.6l-0.8,0.7c0.5,0.7,0.9,1.5,1.1,2.4h0.9v2.2
					h-0.9c-0.1,0.7-0.4,1.4-0.8,2.1l0.8,0.9l-1.6,1.5l-0.7-0.8c-0.8,0.5-1.7,0.9-2.6,1v0.9l-2.2-0.1v-1c-0.8-0.2-1.6-0.6-2.3-1.2
					l-0.6,0.6l-1.5-1.6l0.7-0.7c-0.3-0.6-0.5-1.3-0.6-2h-0.9v-2.2h0.9c0.2-0.8,0.6-1.5,1.1-2.2l-0.7-0.7l1.6-1.5l0.8,0.8
					c0.5-0.3,1.1-0.5,1.7-0.7V114.7L309.6,114.7z"/>
				<path class="st6" d="M311.8,114.8h0.3c0-0.2-0.1-0.3-0.3-0.3V114.8L311.8,114.8z M309.6,114.7v-0.3c-0.2,0-0.3,0.1-0.3,0.3
					H309.6L309.6,114.7z M311.8,115.6h-0.3c0,0.2,0.1,0.3,0.3,0.3V115.6z M313.7,116.4l-0.2,0.3c0.1,0.1,0.3,0.1,0.4,0L313.7,116.4z
					 M314.6,115.5l0.2-0.2c-0.1-0.1-0.3-0.1-0.5,0L314.6,115.5L314.6,115.5z M316.1,117.1l0.2,0.2c0.1-0.1,0.1-0.1,0.1-0.2
					s0-0.2-0.1-0.2L316.1,117.1L316.1,117.1z M315.4,117.9l-0.2-0.2c-0.1,0.1-0.1,0.3,0,0.5L315.4,117.9L315.4,117.9z M316.4,120.2
					l-0.3,0.1c0,0.2,0.2,0.3,0.3,0.3V120.2L316.4,120.2z M317.4,120.2h0.3c0-0.2-0.1-0.3-0.3-0.3V120.2z M317.3,122.4v0.3
					c0.2,0,0.3-0.2,0.3-0.3H317.3L317.3,122.4z M316.5,122.4v-0.3c-0.2,0-0.3,0.1-0.3,0.3H316.5z M315.6,124.5l-0.3-0.2
					c-0.1,0.1-0.1,0.3,0,0.4L315.6,124.5z M316.5,125.3l0.2,0.2c0.1-0.1,0.1-0.1,0.1-0.2s0-0.2-0.1-0.2L316.5,125.3z M314.9,126.9
					l-0.2,0.2c0.1,0.1,0.3,0.1,0.5,0L314.9,126.9z M314.1,126.1l0.2-0.2c-0.1-0.1-0.3-0.1-0.4,0L314.1,126.1z M311.5,127.1v-0.3
					c-0.2,0-0.3,0.2-0.3,0.3H311.5z M311.5,128.1v0.3c0.2,0,0.3-0.2,0.3-0.3H311.5z M309.3,128H309c0,0.1,0,0.2,0.1,0.2
					c0.1,0.1,0.1,0.1,0.2,0.1L309.3,128z M309.3,127h0.3c0-0.2-0.1-0.3-0.3-0.3V127L309.3,127z M307,125.8l0.2-0.3
					c-0.1-0.1-0.3-0.1-0.4,0L307,125.8z M306.4,126.4l-0.2,0.2c0.1,0.1,0.3,0.1,0.5,0L306.4,126.4z M304.9,124.8l-0.2-0.2
					c-0.1,0.1-0.1,0.2-0.1,0.2s0,0.2,0.1,0.2L304.9,124.8z M305.6,124.1l0.2,0.2c0.1-0.1,0.1-0.3,0.1-0.4L305.6,124.1z M305,122.1
					h0.3c0-0.2-0.2-0.3-0.3-0.3V122.1z M304.1,122.1h-0.3c0,0.1,0,0.2,0.1,0.2c0.1,0.1,0.1,0.1,0.2,0.1L304.1,122.1z M304.2,119.9
					v-0.3c-0.2,0-0.3,0.1-0.3,0.3H304.2L304.2,119.9z M305.1,119.9v0.3c0.2,0,0.3-0.1,0.3-0.3H305.1L305.1,119.9z M306.2,117.7
					l0.3,0.2c0.1-0.1,0.1-0.3,0-0.4L306.2,117.7L306.2,117.7z M305.5,117l-0.2-0.2c-0.1,0.1-0.1,0.1-0.1,0.2s0,0.2,0.1,0.2
					L305.5,117L305.5,117z M307.1,115.5l0.2-0.2c-0.1-0.1-0.3-0.1-0.5,0L307.1,115.5L307.1,115.5z M307.8,116.3l-0.2,0.2
					c0.1,0.1,0.3,0.1,0.4,0.1L307.8,116.3z M309.6,115.6l0.1,0.3c0.2,0,0.3-0.2,0.3-0.3H309.6z M311.8,114.4h-2.2v0.7l2.2,0.1V114.4
					z M312.1,115.6v-0.8h-0.7v0.8H312.1z M313.9,116.1c-0.6-0.4-1.3-0.7-2.1-0.8l-0.1,0.7c0.7,0.1,1.3,0.4,1.9,0.7L313.9,116.1
					L313.9,116.1z M314.4,115.3l-0.9,0.8l0.5,0.5l0.9-0.8L314.4,115.3L314.4,115.3z M316.4,116.9l-1.5-1.6l-0.5,0.5l1.5,1.6
					L316.4,116.9L316.4,116.9z M315.6,118.1l0.7-0.7l-0.5-0.5l-0.7,0.7L315.6,118.1L315.6,118.1z M316.8,120.1
					c-0.2-0.9-0.6-1.8-1.1-2.5l-0.5,0.4c0.5,0.6,0.8,1.4,1,2.2L316.8,120.1L316.8,120.1z M316.4,120.5h0.9v-0.7h-0.9V120.5z
					 M317,120.2v2.2h0.7v-2.2H317L317,120.2z M317.3,122.1h-0.9v0.7h0.9V122.1L317.3,122.1z M315.9,124.6c0.4-0.7,0.7-1.4,0.9-2.2
					l-0.7-0.1c-0.1,0.7-0.4,1.4-0.8,1.9L315.9,124.6L315.9,124.6z M316.7,125.1l-0.8-0.9l-0.5,0.5l0.8,0.9L316.7,125.1L316.7,125.1z
					 M315.1,127.1l1.6-1.5l-0.5-0.5l-1.6,1.5L315.1,127.1L315.1,127.1z M313.9,126.3l0.7,0.8l0.5-0.5l-0.7-0.8L313.9,126.3
					L313.9,126.3z M311.5,127.4c1-0.1,2-0.5,2.8-1.1l-0.4-0.6c-0.7,0.5-1.6,0.9-2.5,1L311.5,127.4z M311.8,128v-0.9H311v0.9H311.8z
					 M309.3,128.3l2.2,0.1v-0.7l-2.2-0.1V128.3z M309,127v1h0.7v-1H309z M306.8,126.1c0.7,0.6,1.5,1,2.4,1.2l0.2-0.7
					c-0.8-0.2-1.5-0.6-2.1-1.1L306.8,126.1L306.8,126.1z M306.6,126.7l0.6-0.6l-0.5-0.5l-0.6,0.6L306.6,126.7z M304.6,125.1l1.5,1.6
					l0.5-0.5l-1.5-1.6L304.6,125.1z M305.4,123.9l-0.7,0.7l0.5,0.5l0.7-0.7L305.4,123.9z M304.7,122.2c0.1,0.7,0.3,1.4,0.7,2.1
					l0.6-0.3c-0.3-0.6-0.5-1.2-0.6-1.9L304.7,122.2L304.7,122.2z M305,121.8h-0.9v0.7h0.9V121.8z M304.5,122.1v-2.2h-0.7v2.2H304.5
					L304.5,122.1z M304.2,120.2h0.9v-0.7h-0.9V120.2z M305.9,117.5c-0.5,0.7-0.9,1.5-1.1,2.3l0.7,0.2c0.2-0.8,0.5-1.5,1-2.1
					L305.9,117.5L305.9,117.5z M305.2,117.2l0.7,0.7l0.5-0.5l-0.7-0.7L305.2,117.2z M306.8,115.2l-1.6,1.5l0.5,0.5l1.6-1.5
					L306.8,115.2L306.8,115.2z M308.1,116.1l-0.8-0.8l-0.5,0.5l0.8,0.8L308.1,116.1z M309.5,115.3c-0.6,0.1-1.3,0.4-1.8,0.7l0.3,0.6
					c0.5-0.3,1-0.5,1.6-0.6L309.5,115.3L309.5,115.3z M309.2,114.7v0.9h0.7v-0.9H309.2z"/>
				<g class="st9">
					<path class="st10" d="M310.2,120.5l-0.7,2.3h-0.8l1.1-2.9h0.5L310.2,120.5L310.2,120.5z M310.7,122.8l-0.7-2.3l-0.1-0.6h0.5
						l1.1,2.9H310.7L310.7,122.8z M310.7,121.7v0.5h-1.5v-0.5H310.7z M312.4,119.9v2.9h-0.7v-2.9H312.4z"/>
				</g>
			</g>
		</g>
	</g>
</g>
<g>
	<g>
		<g>
			<defs>
				<rect id="SVGID_3_" x="144.7" y="100" width="36" height="36"/>
			</defs>
			<clipPath id="SVGID_4_">
				<use xlink:href="#SVGID_3_"  style="overflow:visible;"/>
			</clipPath>
			<g class="st14">
				<path class="st6" d="M162.7,136c-0.1,0-0.1,0-0.2,0l-15.2-8.8c-0.1-0.1-0.2-0.2-0.2-0.3v-17.7c0-0.1,0.1-0.2,0.2-0.3l15.2-8.8
					c0.1-0.1,0.2-0.1,0.3,0l15.2,8.8c0.1,0.1,0.2,0.2,0.2,0.3v17.7c0,0.1-0.1,0.2-0.2,0.3l-15.2,8.8C162.8,136,162.8,136,162.7,136
					L162.7,136z M147.9,126.6l14.8,8.6l14.8-8.6v-17.3l-14.8-8.6l-14.8,8.6V126.6z"/>
				<g class="st12">
					<path class="st8" d="M155.2,111.8c0-1.9,1.5-3.4,3.3-3.4c1.8,0,3.3,1.5,3.3,3.4v0.5c0.4,0.1,0.7,0.5,0.7,0.9c0,0.5-0.5,1-1,1
						l0,0c-0.5,1.1-1.7,1.9-3,1.9c-1.3,0-2.5-0.8-3-1.9l0,0c-0.6,0-1-0.4-1-1c0-0.4,0.3-0.8,0.7-0.9V111.8L155.2,111.8z"/>
				</g>
				<path class="st6" d="M158.5,116.5c-1.3,0-2.6-0.7-3.2-1.9c-0.7-0.1-1.2-0.6-1.2-1.3c0-0.5,0.3-0.9,0.7-1.1v-0.3
					c0-2,1.6-3.7,3.7-3.7c2,0,3.7,1.7,3.7,3.7v0.3c0.4,0.2,0.7,0.7,0.7,1.1c0,0.7-0.5,1.2-1.2,1.3
					C161.1,115.7,159.9,116.5,158.5,116.5L158.5,116.5z M158.5,108.8c-1.6,0-3,1.4-3,3v0.8l-0.2,0.1c-0.3,0.1-0.5,0.3-0.5,0.6
					c0,0.3,0.3,0.6,0.7,0.6h0.2l0.1,0.2c0.5,1,1.6,1.7,2.7,1.7c1.1,0,2.2-0.7,2.7-1.7l0.1-0.2h0.2c0.4,0,0.7-0.3,0.7-0.6
					c0-0.3-0.2-0.5-0.5-0.6l-0.2-0.1v-0.8C161.5,110.2,160.2,108.8,158.5,108.8L158.5,108.8z"/>
				<g class="st12">
					<path class="st13" d="M151.6,120.3v0.6l-0.3,5.2h14.8v-0.6l-0.3-4.6v-0.2c-0.2-2.9-3.1-4.9-5.8-3.9l-0.1,0.1
						c-0.9,0.3-1.9,0.3-2.8,0C154.5,115.9,151.8,117.6,151.6,120.3L151.6,120.3z"/>
				</g>
				<path class="st6" d="M166.1,126.4h-14.8c-0.1,0-0.2,0-0.2-0.1c-0.1-0.1-0.1-0.2-0.1-0.3l0.3-5.8c0.1-1.4,0.8-2.6,2-3.4
					c1.2-0.7,2.6-0.9,3.9-0.4c0.8,0.3,1.7,0.3,2.6,0l0.1-0.1c1.4-0.5,2.9-0.3,4.2,0.5c1.2,0.8,2,2.2,2.1,3.7l0.3,4.8v0.6
					C166.4,126.3,166.3,126.4,166.1,126.4L166.1,126.4z M151.6,125.8h14.1v-0.2l-0.3-4.7c-0.1-1.3-0.7-2.4-1.8-3.1s-2.4-0.9-3.6-0.4
					l-0.1,0.1c-1,0.4-2.1,0.3-3.1,0c-1.1-0.4-2.3-0.3-3.3,0.3c-1,0.6-1.6,1.7-1.7,2.8v0.6L151.6,125.8z"/>
				<path class="st4" d="M165.7,111.6c0-1.5,1.2-2.8,2.7-2.8s2.7,1.2,2.7,2.8v0.4c0.3,0.1,0.6,0.4,0.6,0.7c0,0.4-0.4,0.8-0.8,0.8
					l0,0c-0.4,0.9-1.4,1.6-2.5,1.6s-2-0.6-2.5-1.6l0,0c-0.5,0-0.8-0.4-0.8-0.8s0.2-0.7,0.6-0.7V111.6L165.7,111.6z"/>
				<path class="st6" d="M168.4,115.4c-1.1,0-2.1-0.6-2.7-1.6c-0.6-0.1-1-0.6-1-1.1c0-0.4,0.2-0.8,0.6-1v-0.2c0-1.7,1.4-3.1,3.1-3.1
					c1.7,0,3.1,1.4,3.1,3.1v0.2c0.4,0.2,0.6,0.6,0.6,1c0,0.6-0.4,1-1,1.1C170.6,114.8,169.5,115.4,168.4,115.4L168.4,115.4z
					 M168.4,109.2c-1.3,0-2.4,1.1-2.4,2.4v0.7l-0.2,0.1c-0.2,0.1-0.3,0.2-0.3,0.4c0,0.2,0.2,0.4,0.5,0.4h0.2l0.1,0.2
					c0.4,0.8,1.2,1.4,2.2,1.4s1.8-0.5,2.2-1.4l0.1-0.2h0.2c0.3,0,0.5-0.2,0.5-0.4c0-0.2-0.1-0.4-0.3-0.4l-0.2-0.1v-0.7
					C170.8,110.3,169.7,109.2,168.4,109.2L168.4,109.2z"/>
				<path class="st6" d="M174,122.8c-0.2,0-0.3-0.1-0.3-0.3l-0.2-3.5c-0.1-1-0.5-1.8-1.3-2.3c-0.8-0.5-1.7-0.6-2.6-0.3
					c-0.8,0.3-1.6,0.3-2.3,0l-0.6-0.2c-1.1-0.4-2.4,0.2-2.8,1.3c-0.1,0.2-0.3,0.3-0.4,0.2c-0.2-0.1-0.3-0.3-0.2-0.4
					c0.5-1.5,2.1-2.3,3.6-1.8l0.6,0.2c0.6,0.2,1.3,0.2,1.9,0c1.1-0.4,2.2-0.3,3.2,0.4c0.9,0.6,1.5,1.6,1.6,2.8l0.2,3.6
					C174.4,122.6,174.2,122.7,174,122.8L174,122.8L174,122.8z"/>
				<path class="st6" d="M165.7,122.1c0.2,0,0.3-0.2,0.3-0.3c0-0.2-0.2-0.3-0.3-0.3V122.1z M157.6,121.5c-0.1,0.1-0.1,0.3,0,0.5
					l2.1,2.2c0.1,0.1,0.3,0.1,0.5,0c0.1-0.1,0.1-0.4,0-0.5l-1.9-1.9l1.9-1.9c0.1-0.1,0.1-0.3,0-0.5c-0.1-0.1-0.3-0.1-0.5,0
					L157.6,121.5L157.6,121.5z M165.7,121.4h-7.9v0.7h7.9V121.4L165.7,121.4z"/>
				<g class="st9">
					<path class="st10" d="M168.1,118c-0.2,0-0.3,0.2-0.3,0.3c0,0.2,0.2,0.3,0.3,0.3V118z M166.4,121.4c-0.2,0-0.3,0.2-0.3,0.3
						c0,0.2,0.1,0.3,0.3,0.3V121.4z M168.1,118.7h2V118h-2V118.7z M170.1,121.4h-3.7v0.7h3.7V121.4z M171.5,120
						c0,0.7-0.6,1.4-1.3,1.4v0.7c1.1,0,2-0.9,2-2L171.5,120L171.5,120z M170.1,118.7c0.7,0,1.3,0.6,1.3,1.4h0.7c0-1.1-0.9-2-2-2
						V118.7L170.1,118.7z"/>
				</g>
			</g>
		</g>
	</g>
</g>
<g class="st12">
	<path class="st13" d="M224.1,116.5v-3.1l2.6-2.8l0.5-0.4c0.1-0.1,0.3-0.2,0.4-0.2h11v15.6c0,1.5-1.2,2.6-2.6,2.6h-11.9V116.5
		L224.1,116.5z"/>
</g>
<path class="st2" d="M226.8,115.3v-2.8l2.4-2.5l0.4-0.4c0.1-0.1,0.3-0.2,0.4-0.2h10v14c0,1.5-1.2,2.6-2.6,2.6h-10.5L226.8,115.3
	L226.8,115.3z"/>
<path class="st6" d="M249.9,133.5h-30.3c-0.2,0-0.3-0.1-0.3-0.3v-30.3c0-0.2,0.1-0.3,0.3-0.3h30.3c0.2,0,0.3,0.1,0.3,0.3v30.3
	C250.2,133.4,250.1,133.5,249.9,133.5z M219.9,132.8h29.7v-29.7h-29.7L219.9,132.8L219.9,132.8z"/>
<path class="st6" d="M230.6,109.4v-0.3h-0.3v0.3H230.6z M226.8,112.5l-0.2-0.2l-0.1,0.1v0.1H226.8L226.8,112.5z M240,109.4h0.3
	c0-0.2-0.1-0.3-0.3-0.3V109.4z M230.6,112.6v0.3c0.2,0,0.3-0.1,0.3-0.3H230.6z M228.4,112.3c-0.2,0-0.3,0.2-0.3,0.3
	c0,0.2,0.1,0.3,0.3,0.3V112.3L228.4,112.3z M229.4,110.2c0.1-0.1,0.1-0.3,0-0.5c-0.1-0.1-0.3-0.1-0.5,0L229.4,110.2z M226.8,126
	h-0.3c0,0.2,0.1,0.3,0.3,0.3V126z M226.5,112.5v2.8h0.7v-2.8H226.5L226.5,112.5z M240.3,113.1v-3.7h-0.7v3.7H240.3z M240,109.1h-9.4
	v0.7h9.4V109.1L240,109.1z M230.2,109.4v3.2h0.7v-3.2H230.2z M230.6,112.3h-2.2v0.7h2.2V112.3z M227,112.7l2.4-2.5l-0.5-0.4
	l-2.4,2.5L227,112.7z M239.6,113.1v10.3h0.7v-10.3H239.6z M237.3,125.7h-10.6v0.7h10.6V125.7L237.3,125.7z M227.1,126v-10.8h-0.7
	V126H227.1z M239.6,123.4c0,1.3-1,2.3-2.3,2.3v0.7c1.6,0,3-1.3,3-3H239.6L239.6,123.4z"/>
<g class="st15">
	<path class="st10" d="M234,115.7h-3.6c-0.2,0-0.3-0.1-0.3-0.3c0-0.2,0.1-0.3,0.3-0.3h3.6c0.2,0,0.3,0.1,0.3,0.3
		C234.4,115.5,234.2,115.7,234,115.7z"/>
</g>
<g class="st15">
	<path class="st10" d="M234,119.6h-3.6c-0.2,0-0.3-0.1-0.3-0.3c0-0.2,0.1-0.3,0.3-0.3h3.6c0.2,0,0.3,0.1,0.3,0.3
		C234.4,119.5,234.2,119.6,234,119.6z"/>
</g>
<g class="st15">
	<path class="st10" d="M235.7,117.7h-5.3c-0.2,0-0.3-0.1-0.3-0.3c0-0.2,0.1-0.3,0.3-0.3h5.3c0.2,0,0.3,0.1,0.3,0.3
		C236,117.5,235.9,117.7,235.7,117.7z"/>
</g>
<path class="st2" d="M243.1,112.6c0.7-0.7,1.8-0.7,2.4,0c0.7,0.7,0.7,1.8,0,2.4l-5.1,5.3c-0.9,0.9-2.1,1.6-3.3,1.9l-1.2,0.3l0.2-1.2
	c0.3-1.3,0.9-2.5,1.8-3.4L243.1,112.6L243.1,112.6z"/>
<path class="st6" d="M235.9,122.9c-0.1,0-0.2,0-0.2-0.1c-0.1-0.1-0.1-0.2-0.1-0.3l0.2-1.2c0.3-1.3,0.9-2.6,1.9-3.6l5.1-5.3
	c0.4-0.4,0.9-0.6,1.4-0.6s1.1,0.2,1.5,0.6s0.6,0.9,0.6,1.4c0,0.6-0.2,1.1-0.6,1.5l-5.1,5.3c-1,1-2.2,1.7-3.5,2L235.9,122.9
	C236,122.9,236,122.9,235.9,122.9L235.9,122.9z M244.3,112.4L244.3,112.4c-0.4,0-0.7,0.2-1,0.4l-5.1,5.3c-0.9,0.9-1.5,2-1.7,3.2
	l-0.1,0.7l0.7-0.2c1.2-0.3,2.3-0.9,3.2-1.8l5.1-5.3c0.3-0.3,0.4-0.6,0.4-1s-0.2-0.7-0.4-1C245.1,112.6,244.7,112.4,244.3,112.4
	L244.3,112.4z"/>
<g>
	<g>
		<g>
			<defs>
				<rect id="SVGID_5_" y="100" width="36" height="36"/>
			</defs>
			<clipPath id="SVGID_6_">
				<use xlink:href="#SVGID_5_"  style="overflow:visible;"/>
			</clipPath>
			<g class="st16">
				<g class="st12">
					<path class="st13" d="M20.9,115.3h-9.4c-0.4,0-0.7,0.3-0.7,0.7v6.8c0,0.4,0.3,0.7,0.7,0.7h9.4c0.4,0,0.7-0.3,0.7-0.7V116
						C21.5,115.6,21.2,115.3,20.9,115.3z"/>
				</g>
				<path class="st2" d="M21.9,127.5c3.2,0,5.7-2.6,5.7-5.8c0-3.2-2.6-5.8-5.7-5.8s-5.7,2.6-5.7,5.8
					C16.2,124.9,18.7,127.5,21.9,127.5z"/>
				<path class="st6" d="M15.5,123.5h-4.7c-1.3,0-2.4-1.1-2.4-2.4v-10.6c0-0.2,0.1-0.3,0.3-0.3h5.9c0.5,0,1,0.2,1.3,0.6l1.3,1.5h7.7
					c0.2,0,0.3,0.2,0.3,0.3v2.3c0,0.2-0.1,0.3-0.3,0.3c-0.2,0-0.3-0.2-0.3-0.3V113h-7.5c-0.1,0-0.2,0-0.3-0.1l-1.4-1.7
					c-0.2-0.2-0.5-0.4-0.8-0.4H9.1v10.3c0,0.9,0.8,1.7,1.7,1.7h4.7c0.2,0,0.3,0.2,0.3,0.3S15.7,123.5,15.5,123.5L15.5,123.5z"/>
				<path class="st6" d="M13.8,112.8h-2.9c-0.2,0-0.3-0.2-0.3-0.3c0-0.2,0.2-0.3,0.3-0.3h2.9c0.2,0,0.3,0.2,0.3,0.3
					C14.1,112.6,14,112.8,13.8,112.8z"/>
				<path class="st6" d="M18,136c-0.1,0-0.1,0-0.2,0l-15.2-8.8c-0.1-0.1-0.2-0.2-0.2-0.3v-17.7c0-0.1,0.1-0.2,0.2-0.3l15.2-8.8
					c0.1-0.1,0.2-0.1,0.3,0l15.2,8.8c0.1,0.1,0.2,0.2,0.2,0.3v17.7c0,0.1-0.1,0.2-0.2,0.3L18.2,136C18.1,136,18.1,136,18,136L18,136
					z M3.2,126.6l14.8,8.6l14.8-8.6v-17.3L18,100.7l-14.8,8.6C3.2,109.3,3.2,126.6,3.2,126.6z"/>
				<path class="st6" d="M21.5,126.1c-0.1,0-0.3,0-0.4,0c-1.3-0.1-2.5-0.7-3.4-1.6s-1.5-2.1-1.6-3.4s0.2-2.6,1-3.6
					c0.7-1.1,1.8-1.8,3-2.1c1.2-0.3,2.5-0.2,3.7,0.3c0.2,0.1,0.2,0.3,0.2,0.5c-0.1,0.2-0.3,0.2-0.4,0.2c-1-0.5-2.2-0.6-3.2-0.3
					c-1.1,0.3-2,1-2.7,1.9c-0.6,0.9-0.9,2-0.8,3.2c0.1,1.1,0.6,2.2,1.4,3s1.8,1.3,2.9,1.4s2.2-0.2,3.1-0.9c0.9-0.6,1.6-1.6,1.9-2.7
					c0.2-0.9,0.2-1.8-0.1-2.6c-0.1-0.2,0-0.4,0.2-0.4c0.2-0.1,0.4,0,0.4,0.2c0.3,1,0.3,2,0.1,3c-0.3,1.2-1.1,2.3-2.1,3.1
					C23.8,125.8,22.7,126.1,21.5,126.1L21.5,126.1z"/>
				<path class="st6" d="M21.5,116.8c-0.2,0-0.3-0.2-0.3-0.3v-1.7c0-0.2,0.1-0.3,0.3-0.3c0.2,0,0.3,0.2,0.3,0.3v1.7
					C21.9,116.7,21.7,116.8,21.5,116.8z"/>
				<path class="st6" d="M21.5,127c-0.2,0-0.3-0.2-0.3-0.3V125c0-0.2,0.1-0.3,0.3-0.3c0.2,0,0.3,0.2,0.3,0.3v1.7
					C21.9,126.9,21.7,127,21.5,127z"/>
				<path class="st6" d="M27.4,121.1h-1.7c-0.2,0-0.3-0.2-0.3-0.3c0-0.2,0.1-0.3,0.3-0.3h1.7c0.2,0,0.3,0.2,0.3,0.3
					C27.8,120.9,27.6,121.1,27.4,121.1L27.4,121.1z"/>
				<path class="st6" d="M17.3,121.1h-1.7c-0.2,0-0.3-0.2-0.3-0.3c0-0.2,0.1-0.3,0.3-0.3h1.7c0.2,0,0.3,0.2,0.3,0.3
					C17.7,120.9,17.5,121.1,17.3,121.1z"/>
				<g class="st9">
					<path class="st10" d="M21.5,123.3c-1.4,0-2.6-1.2-2.6-2.6s1.2-2.6,2.6-2.6s2.6,1.2,2.6,2.6C24.1,122.2,23,123.3,21.5,123.3z
						 M21.5,118.8c-1.1,0-1.9,0.9-1.9,1.9c0,1.1,0.9,1.9,1.9,1.9c1.1,0,1.9-0.9,1.9-1.9C23.5,119.7,22.6,118.8,21.5,118.8z"/>
				</g>
			</g>
		</g>
	</g>
</g>
<g class="st0">
	<path class="st1" d="M86.8,121.2c2.1,0,3.8-2.5,3.8-5.7c0-3.1-1.7-5.7-3.8-5.7c-2.1,0-3.8,2.5-3.8,5.7
		C83,118.6,84.7,121.2,86.8,121.2z"/>
</g>
<path class="st6" d="M90.3,122.1c-2.2,0-4.2-1.2-5.1-3.1c-1-0.1-1.8-0.9-1.8-1.9c0-0.8,0.5-1.4,1.2-1.7v-0.6c0-3.2,2.6-5.8,5.8-5.8
	c3.2,0,5.8,2.6,5.8,5.8v0.6c0.7,0.3,1.2,1,1.2,1.7c0,1-0.8,1.8-1.8,1.9C94.5,120.9,92.5,122.1,90.3,122.1L90.3,122.1z M90.3,109.6
	c-2.8,0-5.2,2.3-5.2,5.2v1.1l-0.2,0.1c-0.6,0.2-0.9,0.6-0.9,1.2c0,0.7,0.6,1.2,1.3,1.2h0.2l0.1,0.2c0.8,1.8,2.7,2.9,4.7,2.9
	s3.8-1.2,4.7-2.9l0.1-0.2h0.2c0.8,0,1.4-0.6,1.4-1.2c0-0.5-0.4-1-0.9-1.2l-0.2-0.1v-1.1C95.5,111.9,93.2,109.6,90.3,109.6
	L90.3,109.6z"/>
<g class="st17">
	<path class="st8" d="M103.1,125.9c-2.7,2.3-6.1,3.7-9.9,3.7c-8.4,0-15.2-6.8-15.2-15.2c0-2.8,0.8-5.4,2.1-7.7
		c-3.2,2.8-5.2,6.9-5.2,11.5c0,8.4,6.8,15.2,15.2,15.2C95.6,133.4,100.5,130.4,103.1,125.9L103.1,125.9z"/>
</g>
<path class="st6" d="M79.9,129.4L79.9,129.4c-0.2,0-0.3-0.2-0.3-0.4l0.3-2.4c0.2-1.3,0.9-2.4,2-3.1s2.3-0.9,3.6-0.7l3.3,0.8
	c0.9,0.2,1.8,0.2,2.7,0l3.4-0.8c1.3-0.3,2.5-0.1,3.6,0.7c1.1,0.7,1.8,1.8,2,3.1l0.3,2c0,0.2-0.1,0.3-0.3,0.4c-0.2,0-0.3-0.1-0.4-0.3
	l-0.3-2c-0.2-1.1-0.8-2-1.8-2.6s-2-0.8-3.1-0.6l-3.4,0.8c-1,0.2-2,0.2-2.9,0l-3.3-0.8c-1.1-0.2-2.2,0-3.1,0.6s-1.5,1.5-1.7,2.6
	l-0.3,2.4C80.2,129.3,80,129.4,79.9,129.4L79.9,129.4z"/>
<path class="st6" d="M90,133.5c-8.5,0-15.5-7-15.5-15.5s7-15.5,15.5-15.5s15.5,7,15.5,15.5S98.5,133.5,90,133.5z M90,103.1
	c-8.2,0-14.9,6.7-14.9,14.9s6.7,14.9,14.9,14.9s14.9-6.7,14.9-14.9S98.2,103.1,90,103.1z"/>
<g>
	<g>
		<g>
			<defs>
				<rect id="SVGID_7_" x="361" y="100" width="36" height="36"/>
			</defs>
			<clipPath id="SVGID_8_">
				<use xlink:href="#SVGID_7_"  style="overflow:visible;"/>
			</clipPath>
			<g class="st18">
				<g class="st12">
					<path class="st13" d="M387.1,116h-14.8c-0.4,0-0.7,0.3-0.7,0.7v8.2c0,0.4,0.3,0.7,0.7,0.7h14.8c0.4,0,0.7-0.3,0.7-0.7v-8.2
						C387.8,116.3,387.5,116,387.1,116z"/>
				</g>
				<path class="st2" d="M379.7,124.5c3,0,5.4-2.4,5.4-5.4s-2.4-5.4-5.4-5.4s-5.4,2.4-5.4,5.4C374.3,122,376.7,124.5,379.7,124.5z"
					/>
				<path class="st2" d="M379.7,124.8c-3.2,0-5.7-2.6-5.7-5.8c0-3.2,2.6-5.8,5.7-5.8c3.2,0,5.7,2.6,5.7,5.8
					C385.4,122.2,382.8,124.8,379.7,124.8z M379.7,113.9c-2.8,0-5.1,2.3-5.1,5.1c0,2.8,2.3,5.1,5.1,5.1c2.8,0,5.1-2.3,5.1-5.1
					C384.7,116.2,382.5,113.9,379.7,113.9z"/>
				<path class="st6" d="M379,135.9c-0.1,0-0.1,0-0.2,0l-15.2-8.8c-0.1-0.1-0.2-0.2-0.2-0.3v-17.7c0-0.1,0.1-0.2,0.2-0.3l15.2-8.8
					c0.1-0.1,0.2-0.1,0.3,0l15.2,8.8c0.1,0.1,0.2,0.2,0.2,0.3v17.7c0,0.1-0.1,0.2-0.2,0.3L379,135.9
					C379.1,135.9,379.1,135.9,379,135.9L379,135.9z M364.2,126.6l14.8,8.6l14.8-8.6v-17.3l-14.8-8.6l-14.8,8.6V126.6z"/>
				<path class="st6" d="M388.4,126.1h-16.2c-1.7,0-3-1.4-3-3.1v-12.5c0-0.2,0.1-0.3,0.3-0.3h6.2c0.5,0,1,0.2,1.3,0.6l0.9,1.1h7.7
					c1.7,0,3,1.4,3,3.1v10.8C388.8,125.9,388.6,126.1,388.4,126.1L388.4,126.1z M369.9,110.9V123c0,1.3,1.1,2.4,2.4,2.4H388V115
					c0-1.3-1.1-2.4-2.4-2.4h-7.9c-0.1,0-0.2,0-0.3-0.1l-1-1.3c-0.2-0.2-0.5-0.4-0.8-0.4h-5.8L369.9,110.9L369.9,110.9z"/>
				<g class="st9">
					<path class="st10" d="M379.7,120.9c-0.2,0-0.3-0.2-0.3-0.3v-3.4c0-0.2,0.1-0.3,0.3-0.3c0.2,0,0.3,0.2,0.3,0.3v3.4
						C380,120.8,379.9,120.9,379.7,120.9z"/>
				</g>
				<g class="st9">
					<path class="st10" d="M381.4,119.2H378c-0.2,0-0.3-0.2-0.3-0.3c0-0.2,0.2-0.3,0.3-0.3h3.3c0.2,0,0.3,0.2,0.3,0.3
						C381.7,119.1,381.6,119.2,381.4,119.2z"/>
				</g>
				<path class="st6" d="M379.7,123.7c-2.6,0-4.7-2.1-4.7-4.8c0-2.2,1.5-4.1,3.6-4.6c0.2,0,0.4,0.1,0.4,0.2c0,0.2-0.1,0.4-0.2,0.4
					c-1.8,0.5-3,2.1-3,4c0,2.3,1.8,4.1,4.1,4.1c2.3,0,4.1-1.8,4.1-4.1c0-1.9-1.3-3.5-3-4c-0.2,0-0.3-0.2-0.2-0.4
					c0-0.2,0.2-0.3,0.4-0.2c2.1,0.5,3.6,2.4,3.6,4.6C384.4,121.6,382.3,123.7,379.7,123.7L379.7,123.7z"/>
				<path class="st6" d="M374.5,112.9h-2.9c-0.2,0-0.3-0.2-0.3-0.3c0-0.2,0.1-0.3,0.3-0.3h2.9c0.2,0,0.3,0.2,0.3,0.3
					C374.8,112.8,374.7,112.9,374.5,112.9z"/>
			</g>
		</g>
	</g>
</g>
<g>
	<g>
		<g>
			<defs>
				<rect id="SVGID_9_" x="180.7" y="100" width="36" height="36"/>
			</defs>
			<clipPath id="SVGID_10_">
				<use xlink:href="#SVGID_9_"  style="overflow:visible;"/>
			</clipPath>
			<g class="st19">
				<g class="st12">
					<path class="st13" d="M198,115.3h-3.3c-0.4,0-0.7,0.3-0.7,0.7v8.8c0,0.4,0.3,0.7,0.7,0.7h3.4c0.4,0,0.7-0.3,0.7-0.7V116
						C198.7,115.6,198.4,115.3,198,115.3z"/>
				</g>
				<path class="st6" d="M198.7,136c-0.1,0-0.1,0-0.2,0l-15.2-8.8c-0.1-0.1-0.2-0.2-0.2-0.3v-17.7c0-0.1,0.1-0.2,0.2-0.3l15.2-8.8
					c0.1-0.1,0.2-0.1,0.3,0l15.2,8.8c0.1,0.1,0.2,0.2,0.2,0.3v17.7c0,0.1-0.1,0.2-0.2,0.3l-15.2,8.8C198.8,136,198.8,136,198.7,136z
					 M183.9,126.6l14.8,8.6l14.8-8.6v-17.3l-14.8-8.6l-14.8,8.6V126.6z"/>
				<g class="st20">
					<path class="st10" d="M201.4,112.3c-0.1,0-0.3-0.1-0.3-0.3l-0.2-0.8c-0.1-0.4-0.5-0.8-1-0.8h-2.3c-0.5,0-0.9,0.3-1,0.8
						l-0.2,0.8c0,0.2-0.2,0.3-0.4,0.2c-0.2,0-0.3-0.2-0.2-0.4l0.2-0.8c0.2-0.7,0.9-1.3,1.6-1.3h2.3c0.8,0,1.4,0.5,1.6,1.3l0.2,0.8
						C201.7,112.1,201.6,112.3,201.4,112.3L201.4,112.3L201.4,112.3z"/>
				</g>
				<path class="st6" d="M201.9,126h-6.3c-0.9,0-1.6-0.7-1.7-1.6l-0.8-10.3c0-0.1,0-0.2,0.1-0.3c0.1-0.1,0.2-0.1,0.2-0.1H204
					c0.1,0,0.2,0,0.2,0.1c0.1,0.1,0.1,0.2,0.1,0.3l-0.8,10.3C203.5,125.3,202.8,126,201.9,126L201.9,126z M193.8,114.4l0.8,9.9
					c0,0.5,0.5,0.9,1,0.9h6.3c0.5,0,1-0.4,1-0.9l0.8-9.9H193.8L193.8,114.4z"/>
				<path class="st6" d="M204.8,113.5c-0.2,0-0.3-0.2-0.3-0.3v-0.3c0-0.2-0.2-0.3-0.3-0.3h-10.8c-0.2,0-0.3,0.2-0.3,0.3v0.3
					c0,0.2-0.1,0.3-0.3,0.3c-0.2,0-0.3-0.2-0.3-0.3v-0.3c0-0.6,0.5-1,1-1h10.8c0.6,0,1,0.5,1,1v0.3
					C205.1,113.3,204.9,113.5,204.8,113.5L204.8,113.5z"/>
				<path class="st6" d="M198.6,121.6c-0.2,0-0.3-0.2-0.3-0.3v-3.8c0-0.2,0.2-0.3,0.3-0.3c0.2,0,0.3,0.2,0.3,0.3v3.8
					C198.9,121.5,198.8,121.6,198.6,121.6L198.6,121.6z"/>
				<path class="st6" d="M196.2,122.5c-0.2,0-0.3-0.2-0.3-0.3v-5.5c0-0.2,0.1-0.3,0.3-0.3c0.2,0,0.3,0.2,0.3,0.3v5.5
					C196.5,122.4,196.4,122.5,196.2,122.5L196.2,122.5z"/>
				<path class="st6" d="M201,122.5c-0.2,0-0.3-0.2-0.3-0.3v-5.5c0-0.2,0.2-0.3,0.3-0.3c0.2,0,0.3,0.2,0.3,0.3v5.5
					C201.4,122.4,201.2,122.5,201,122.5L201,122.5z"/>
			</g>
		</g>
	</g>
</g>
<path class="st2" d="M262.8,115.3v-2.8l2.4-2.5l0.4-0.4c0.1-0.1,0.3-0.2,0.4-0.2h10v14c0,1.5-1.2,2.6-2.6,2.6h-10.5L262.8,115.3
	L262.8,115.3z"/>
<g class="st12">
	<path class="st13" d="M260.1,116.5v-3.1l2.6-2.8l0.5-0.4c0.1-0.1,0.3-0.2,0.4-0.2h11v15.6c0,1.5-1.2,2.6-2.6,2.6h-11.9V116.5
		L260.1,116.5z"/>
</g>
<path class="st2" d="M262.8,115.3v-2.8l2.4-2.5l0.4-0.4c0.1-0.1,0.3-0.2,0.4-0.2h10v14c0,1.5-1.2,2.6-2.6,2.6h-10.5L262.8,115.3
	L262.8,115.3z"/>
<path class="st6" d="M285.9,133.5h-30.3c-0.2,0-0.3-0.1-0.3-0.3v-30.3c0-0.2,0.1-0.3,0.3-0.3h30.3c0.2,0,0.3,0.1,0.3,0.3v30.3
	C286.2,133.4,286.1,133.5,285.9,133.5z M255.9,132.8h29.7v-29.7h-29.7V132.8z"/>
<g class="st12">
	<path class="st13" d="M268.7,116.3l5.9-2.9l5.9,2.9v4.5c-0.4,2.2-1.8,4.1-3.8,5.2l-2.1,1.2l-2.5-1.3c-2-1-3.3-2.9-3.5-5.1
		L268.7,116.3L268.7,116.3z"/>
</g>
<path class="st6" d="M274.7,127.6c-0.1,0-0.1,0-0.1,0l-2.5-1.3c-2.1-1.1-3.4-3.1-3.7-5.4v-4.5c0-0.1,0.1-0.2,0.2-0.3l5.9-2.9
	c0.1,0,0.2,0,0.3,0l5.9,2.9c0.1,0.1,0.2,0.2,0.2,0.3v4.5c-0.4,2.4-1.9,4.4-4,5.5L274.7,127.6C274.8,127.6,274.7,127.6,274.7,127.6
	L274.7,127.6z M269,116.5v4.3c0.2,2.1,1.4,3.9,3.3,4.8l2.3,1.2l2-1.1c1.9-1.1,3.2-2.9,3.6-5v-4.2l-5.6-2.8L269,116.5L269,116.5z"/>
<path class="st6" d="M266.6,109.4v-0.3h-0.3v0.3H266.6z M262.8,112.5l-0.2-0.2l-0.1,0.1v0.1H262.8L262.8,112.5z M275.6,112.4
	c0,0.2,0.1,0.3,0.3,0.3c0.2,0,0.3-0.2,0.3-0.3H275.6z M276,109.4h0.3c0-0.2-0.1-0.3-0.3-0.3V109.4z M266.6,112.6v0.3
	c0.2,0,0.3-0.1,0.3-0.3H266.6z M264.4,112.3c-0.2,0-0.3,0.2-0.3,0.3c0,0.2,0.1,0.3,0.3,0.3V112.3L264.4,112.3z M265.4,110.2
	c0.1-0.1,0.1-0.3,0-0.5c-0.1-0.1-0.3-0.1-0.5,0L265.4,110.2z M262.8,126h-0.3c0,0.2,0.1,0.3,0.3,0.3V126z M269.7,126.4
	c0.2,0,0.3-0.2,0.3-0.3c0-0.2-0.1-0.3-0.3-0.3V126.4z M262.5,112.5v2.8h0.7v-2.8H262.5L262.5,112.5z M276.3,112.4v-3h-0.7v3H276.3z
	 M276,109.1h-9.4v0.7h9.4V109.1z M266.2,109.4v3.2h0.7v-3.2H266.2z M266.6,112.3h-2.2v0.7h2.2V112.3z M263,112.7l2.4-2.5l-0.5-0.4
	l-2.4,2.5L263,112.7z M263.1,126v-10.8h-0.7V126H263.1z M262.8,126.4h6.9v-0.7h-6.9V126.4L262.8,126.4z"/>
<path class="st2" d="M274.7,123.9c2,0,3.6-1.6,3.6-3.6s-1.6-3.6-3.6-3.6s-3.6,1.6-3.6,3.6C271,122.3,272.7,123.9,274.7,123.9z"/>
<path class="st6" d="M274.7,124.3c-2.2,0-4-1.8-4-4s1.8-4,4-4s4,1.8,4,4C278.6,122.5,276.8,124.3,274.7,124.3z M274.7,117
	c-1.8,0-3.3,1.5-3.3,3.3s1.5,3.3,3.3,3.3s3.3-1.5,3.3-3.3S276.5,117,274.7,117z"/>
<path class="st2" d="M267.1,119.3c1.5,0.4,2.4,0.4,4,0v2.3c-1.5,0.5-2.4,0.5-4,0V119.3z"/>
<path class="st6" d="M269,122.3c-0.6,0-1.3-0.1-2.1-0.4c-0.1,0-0.2-0.2-0.2-0.3v-2.3c0-0.1,0-0.2,0.1-0.3c0.1-0.1,0.2-0.1,0.3-0.1
	c1.5,0.4,2.3,0.4,3.8,0c0.1,0,0.2,0,0.3,0.1c0.1,0.1,0.1,0.2,0.1,0.3v2.3c0,0.1-0.1,0.3-0.2,0.3C270.3,122.2,269.7,122.3,269,122.3z
	 M267.4,121.3c1.3,0.4,2,0.4,3.3,0v-1.6c-1.2,0.3-2,0.3-3.3,0V121.3L267.4,121.3z"/>
<path class="st2" d="M282.2,119.3c-1.5,0.4-2.4,0.4-4,0v2.3c1.5,0.5,2.4,0.5,4,0V119.3z"/>
<path class="st6" d="M280.3,122.3c-0.6,0-1.3-0.1-2.1-0.4c-0.1,0-0.2-0.2-0.2-0.3v-2.3c0-0.1,0-0.2,0.1-0.3c0.1-0.1,0.2-0.1,0.3-0.1
	c1.5,0.4,2.3,0.4,3.8,0c0.1,0,0.2,0,0.3,0.1c0.1,0.1,0.1,0.2,0.1,0.3v2.3c0,0.1-0.1,0.3-0.2,0.3
	C281.5,122.1,280.9,122.3,280.3,122.3L280.3,122.3z M278.6,121.3c1.3,0.4,2,0.4,3.3,0v-1.6c-1.3,0.3-2.1,0.3-3.3,0V121.3
	L278.6,121.3z"/>
<g class="st9">
	<path class="st10" d="M274,119.3v1.5h0.7c0.1,0,0.2,0,0.3-0.1c0.1,0,0.2-0.1,0.2-0.2c0.1-0.1,0.1-0.1,0.2-0.2
		c0-0.1,0.1-0.2,0.1-0.3s0-0.2-0.1-0.3c0-0.1-0.1-0.2-0.2-0.2c-0.1-0.1-0.1-0.1-0.2-0.2c-0.1,0-0.2-0.1-0.3-0.1L274,119.3L274,119.3
		z M274,122.3h-0.7v-3.7h1.5c0.1,0,0.3,0,0.4,0.1c0.1,0,0.2,0.1,0.3,0.2c0.1,0.1,0.2,0.1,0.3,0.2c0.1,0.1,0.2,0.2,0.2,0.3
		c0.1,0.1,0.1,0.2,0.1,0.4c0,0.1,0.1,0.3,0.1,0.4c0,0.2,0,0.4-0.1,0.6s-0.2,0.3-0.3,0.5c-0.1,0.1-0.3,0.2-0.5,0.3
		c-0.2,0.1-0.4,0.1-0.6,0.1H274V122.3L274,122.3z"/>
</g>
<path class="st6" d="M430.2,133.5h-30.3c-0.2,0-0.3-0.1-0.3-0.3v-30.3c0-0.2,0.1-0.3,0.3-0.3h30.3c0.2,0,0.3,0.1,0.3,0.3v30.3
	C430.5,133.4,430.4,133.5,430.2,133.5z M400.2,132.8h29.7v-29.7h-29.7V132.8z"/>
<g class="st12">
	<path class="st13" d="M405.1,111.8l9.9-5l9.9,5v7.6c-0.7,3.8-3,7.1-6.4,9l-3.5,2l-4.1-2.2c-3.3-1.8-5.5-5.1-5.8-8.8V111.8z"/>
</g>
<path class="st6" d="M415,130.7c-0.1,0-0.1,0-0.2,0l-4.1-2.2c-3.4-1.8-5.6-5.2-6-9.1v-7.6c0-0.1,0.1-0.2,0.2-0.3l9.9-5
	c0.1,0,0.2,0,0.3,0l9.9,5c0.1,0.1,0.2,0.2,0.2,0.3v7.6c-0.7,3.9-3.1,7.3-6.5,9.3l-3.5,2C415.1,130.7,415.1,130.7,415,130.7
	L415,130.7z M405.4,112v7.4c0.3,3.6,2.4,6.8,5.6,8.5l3.9,2.1l3.4-1.9c3.3-1.9,5.5-5.1,6.2-8.8V112l-9.6-4.8L405.4,112z"/>
<path class="st2" d="M407.7,121l-1.3,2.6l0.7,1l2,2.3l4,2.3l2,1l1.3-0.7l4.6-3l2.3-2.3l-0.3-1.3l-1.3-2.3l-2-1.3h-2l-3,0.3L412,119
	l-2.6,0.7L407.7,121L407.7,121z"/>
<g class="st9">
	<path class="st10" d="M412.9,125.5c-0.2,0.1-0.4,0.3-0.6,0.3c-0.2,0.1-0.4,0.1-0.7,0.1c-0.2,0-0.3,0-0.5-0.1
		c-0.2,0-0.3-0.1-0.5-0.2c-0.1-0.1-0.3-0.2-0.4-0.3c-0.1-0.1-0.2-0.2-0.3-0.4c-0.1-0.1-0.1-0.3-0.2-0.5c0-0.2-0.1-0.3-0.1-0.5
		s0-0.3,0.1-0.5c0-0.2,0.1-0.3,0.2-0.5c0.1-0.1,0.2-0.3,0.3-0.4c0.1-0.1,0.2-0.2,0.4-0.3c0.1-0.1,0.3-0.2,0.5-0.2s0.3-0.1,0.5-0.1
		s0.4,0,0.7,0.1c0.2,0.1,0.4,0.2,0.6,0.3l-0.4,0.6c-0.1-0.1-0.2-0.2-0.4-0.3c-0.1-0.1-0.3-0.1-0.5-0.1s-0.3,0-0.5,0.1
		c-0.1,0.1-0.3,0.1-0.4,0.3c-0.1,0.1-0.2,0.2-0.3,0.4c-0.1,0.1-0.1,0.3-0.1,0.5s0,0.3,0.1,0.5c0.1,0.1,0.1,0.3,0.3,0.4
		c0.1,0.1,0.2,0.2,0.4,0.3c0.1,0.1,0.3,0.1,0.5,0.1s0.3,0,0.5-0.1c0.1-0.1,0.3-0.2,0.4-0.3L412.9,125.5L412.9,125.5z M414,123v1.5
		h0.7c0.1,0,0.2,0,0.3-0.1c0.1,0,0.2-0.1,0.2-0.2c0.1-0.1,0.1-0.1,0.2-0.2c0-0.1,0.1-0.2,0.1-0.3c0-0.1,0-0.2-0.1-0.3
		c0-0.1-0.1-0.2-0.2-0.2c-0.1-0.1-0.1-0.1-0.2-0.2c-0.1,0-0.2-0.1-0.3-0.1L414,123L414,123z M414,125.9h-0.7v-3.7h1.5
		c0.1,0,0.3,0,0.4,0.1c0.1,0,0.2,0.1,0.4,0.2c0.1,0.1,0.2,0.1,0.3,0.2c0.1,0.1,0.2,0.2,0.2,0.3c0.1,0.1,0.1,0.2,0.2,0.4
		c0,0.1,0.1,0.3,0.1,0.4c0,0.2,0,0.4-0.1,0.6s-0.2,0.3-0.3,0.5c-0.1,0.1-0.3,0.2-0.5,0.3c-0.2,0.1-0.4,0.1-0.6,0.1H414V125.9
		L414,125.9z M420.3,124.1c0,0.2,0,0.3-0.1,0.5c0,0.2-0.1,0.3-0.2,0.5c-0.1,0.1-0.2,0.3-0.3,0.4c-0.1,0.1-0.2,0.2-0.4,0.3
		c-0.1,0.1-0.3,0.1-0.5,0.2c-0.2,0-0.3,0.1-0.5,0.1s-0.3,0-0.5-0.1c-0.2,0-0.3-0.1-0.5-0.2c-0.1-0.1-0.3-0.2-0.4-0.3
		c-0.1-0.1-0.2-0.2-0.3-0.4c-0.1-0.1-0.1-0.3-0.2-0.5c0-0.2-0.1-0.3-0.1-0.5s0-0.3,0.1-0.5c0-0.2,0.1-0.3,0.2-0.5
		c0.1-0.1,0.2-0.3,0.3-0.4c0.1-0.1,0.2-0.2,0.4-0.3c0.1-0.1,0.3-0.1,0.5-0.2c0.2,0,0.3-0.1,0.5-0.1s0.3,0,0.5,0.1
		c0.2,0,0.3,0.1,0.5,0.2c0.1,0.1,0.3,0.2,0.4,0.3c0.1,0.1,0.2,0.2,0.3,0.4c0.1,0.1,0.1,0.3,0.2,0.5
		C420.3,123.7,420.3,123.9,420.3,124.1z M419.6,124.1c0-0.2,0-0.3-0.1-0.5c-0.1-0.1-0.1-0.3-0.3-0.4c-0.1-0.1-0.2-0.2-0.4-0.3
		c-0.1-0.1-0.3-0.1-0.5-0.1s-0.3,0-0.5,0.1c-0.1,0.1-0.3,0.1-0.4,0.3c-0.1,0.1-0.2,0.2-0.3,0.4c-0.1,0.1-0.1,0.3-0.1,0.5
		s0,0.3,0.1,0.5c0.1,0.1,0.1,0.3,0.3,0.4s0.2,0.2,0.4,0.3c0.1,0.1,0.3,0.1,0.5,0.1s0.3,0,0.5-0.1c0.1-0.1,0.3-0.1,0.4-0.3
		c0.1-0.1,0.2-0.2,0.3-0.4C419.5,124.4,419.6,124.2,419.6,124.1z"/>
</g>
<path class="st4" d="M411.7,114c0-1.8,1.5-3.3,3.3-3.3s3.3,1.5,3.3,3.3v0.5c0.4,0.1,0.7,0.5,0.7,0.9c0,0.5-0.4,0.9-1,0.9l0,0
	c-0.5,1.1-1.6,1.9-2.9,1.9s-2.4-0.8-2.9-1.9l0,0c-0.5,0-1-0.4-1-0.9c0-0.4,0.3-0.8,0.7-0.9L411.7,114L411.7,114z"/>
<path class="st6" d="M415,118.5c-1.3,0-2.5-0.7-3.2-1.9c-0.7-0.1-1.1-0.6-1.1-1.2c0-0.5,0.3-0.9,0.7-1.1V114c0-2,1.6-3.6,3.6-3.6
	s3.6,1.6,3.6,3.6v0.3c0.4,0.2,0.7,0.6,0.7,1.1c0,0.6-0.5,1.2-1.1,1.3C417.5,117.8,416.3,118.5,415,118.5L415,118.5z M415,111.1
	c-1.6,0-2.9,1.3-2.9,2.9v0.7l-0.2,0.1c-0.3,0.1-0.5,0.3-0.5,0.6c0,0.3,0.3,0.6,0.7,0.6h0.2l0.1,0.2c0.5,1,1.5,1.7,2.6,1.7
	s2.2-0.7,2.6-1.7l0.1-0.2h0.2c0.4,0,0.7-0.3,0.7-0.6c0-0.3-0.2-0.5-0.5-0.6l-0.2-0.1V114C417.9,112.4,416.6,111.1,415,111.1
	L415,111.1z"/>
<path class="st6" d="M423.2,123.9c-0.2,0-0.3-0.1-0.3-0.3v-0.1c-0.2-1.4-1-2.6-2.2-3.4c-1.2-0.7-2.7-0.9-4-0.5
	c-1.1,0.3-2.3,0.3-3.4,0c-1.4-0.5-2.9-0.3-4.1,0.5s-2,2-2.2,3.5c0,0.2-0.2,0.3-0.4,0.3c-0.2,0-0.3-0.2-0.3-0.4
	c0.2-1.6,1.1-3.1,2.5-3.9c1.4-0.9,3.1-1.1,4.7-0.6c1,0.3,2,0.3,3,0c1.5-0.5,3.2-0.3,4.5,0.6c1.4,0.8,2.3,2.2,2.5,3.8v0.1
	C423.6,123.7,423.5,123.9,423.2,123.9C423.3,123.9,423.3,123.9,423.2,123.9L423.2,123.9z"/>
<path class="st6" d="M415,130.7c-0.1,0-0.1,0-0.2,0l-4.1-2.2c-3.4-1.8-5.6-5.2-6-9.1v-7.6c0-0.1,0.1-0.2,0.2-0.3l9.9-5
	c0.1,0,0.2,0,0.3,0l9.9,5c0.1,0.1,0.2,0.2,0.2,0.3v7.6c-0.7,3.9-3.1,7.3-6.5,9.3l-3.5,2C415.1,130.7,415.1,130.7,415,130.7
	L415,130.7z M405.4,112v7.4c0.3,3.6,2.4,6.8,5.6,8.5l3.9,2.1l3.4-1.9c3.3-1.9,5.5-5.1,6.2-8.8V112l-9.6-4.8L405.4,112z"/>
<path class="st6" d="M501.2,133.7h-30.3c-0.2,0-0.3-0.1-0.3-0.3v-30.3c0-0.2,0.1-0.3,0.3-0.3h30.3c0.2,0,0.3,0.1,0.3,0.3v30.3
	C501.5,133.6,501.4,133.7,501.2,133.7z M471.2,133h29.7v-29.7h-29.7V133z"/>
<path class="st6" d="M486,129.4h-0.1l-3.8-1.9c-3.2-1.6-5.3-4.7-5.7-8.2v-7.1c0-0.1,0.1-0.2,0.2-0.3l9.2-4.6c0.1,0,0.2,0,0.3,0
	l9.2,4.6c0.1,0.1,0.2,0.2,0.2,0.3v7c-0.7,3.7-2.9,6.7-6.2,8.4l-3.2,1.7C486.1,129.4,486.1,129.4,486,129.4L486,129.4z M477.1,112.5
	v6.8c0.3,3.3,2.3,6.2,5.3,7.7l3.6,1.8l3.1-1.6c3.1-1.6,5.2-4.5,5.8-7.9v-6.8l-8.9-4.4L477.1,112.5L477.1,112.5z"/>
<g class="st7">
	<path class="st8" d="M492.6,118.5c0,0.2,0,0.4,0,0.6c-0.2-0.9-1.1-1.6-2.2-1.6s-2,0.7-2.2,1.7H488c-0.2-0.9-1.1-1.7-2.2-1.7
		s-2,0.7-2.2,1.7h-0.1c-0.2-0.9-1.1-1.7-2.2-1.7s-2,0.7-2.2,1.6c0-0.2,0-0.4,0-0.6c0-3.3,3-5.9,6.6-5.9
		C489.6,112.6,492.6,115.3,492.6,118.5L492.6,118.5z"/>
</g>
<path class="st6" d="M492.6,119.2l-0.3,0.1c0,0.2,0.2,0.3,0.3,0.3c0.2,0,0.3-0.1,0.3-0.3L492.6,119.2z M488.2,119.2v0.3
	c0.2,0,0.3-0.1,0.3-0.3H488.2z M488.2,119.2l-0.3,0.1c0,0.2,0.2,0.3,0.3,0.3V119.2z M483.8,119.2v0.3c0.2,0,0.3-0.1,0.3-0.3H483.8z
	 M483.8,119.2l-0.3,0.1c0,0.2,0.2,0.3,0.3,0.3V119.2z M479.4,119.2h-0.3c0,0.2,0.2,0.3,0.3,0.3c0.2,0,0.3-0.1,0.3-0.3H479.4
	L479.4,119.2z M492.9,119.2c0-0.2,0-0.4,0-0.7h-0.7c0,0.2,0,0.4,0,0.6L492.9,119.2L492.9,119.2z M490.4,117.9c0.9,0,1.7,0.6,1.8,1.4
	l0.6-0.1c-0.2-1.1-1.3-1.9-2.5-1.9v0.6H490.4z M488.6,119.2c0.1-0.8,0.9-1.4,1.8-1.4v-0.6c-1.2,0-2.3,0.8-2.5,1.9L488.6,119.2
	L488.6,119.2z M488.2,119.5L488.2,119.5l0.1-0.7h-0.1V119.5z M486,117.9c0.9,0,1.7,0.6,1.8,1.4l0.7-0.1c-0.2-1.1-1.3-1.9-2.5-1.9
	V117.9L486,117.9z M484.2,119.2c0.1-0.8,0.9-1.4,1.8-1.4v-0.6c-1.2,0-2.3,0.8-2.5,1.9L484.2,119.2L484.2,119.2z M483.8,119.5
	L483.8,119.5l0.1-0.7h-0.1V119.5z M481.6,117.9c1,0,1.7,0.6,1.8,1.4l0.6-0.1c-0.2-1.1-1.3-1.9-2.5-1.9v0.6H481.6z M479.8,119.2
	c0.2-0.7,0.9-1.4,1.8-1.4v-0.6c-1.2,0-2.3,0.8-2.5,1.9L479.8,119.2L479.8,119.2z M479.1,118.5c0,0.2,0,0.4,0,0.7l0.7-0.1
	c0-0.2,0-0.4,0-0.6L479.1,118.5L479.1,118.5z M486,112.3c-3.8,0-6.9,2.8-6.9,6.3h0.7c0-3.1,2.8-5.6,6.3-5.6v-0.7H486z M492.9,118.5
	c0-3.5-3.1-6.3-6.9-6.3v0.7c3.5,0,6.3,2.5,6.3,5.6H492.9L492.9,118.5z"/>
<path class="st6" d="M486,112.9c-0.2,0-0.3-0.1-0.3-0.3v-1c0-0.2,0.1-0.3,0.3-0.3c0.2,0,0.3,0.1,0.3,0.3v1
	C486.3,112.8,486.2,112.9,486,112.9L486,112.9z"/>
<g class="st9">
	<path class="st10" d="M486.6,125.1c-0.2,0-0.3-0.1-0.3-0.3v-2.7c0-0.2,0.1-0.3,0.3-0.3c0.2,0,0.3,0.1,0.3,0.3v2.7
		C486.9,125,486.8,125.1,486.6,125.1z"/>
</g>
<g class="st9">
	<path class="st10" d="M486.6,122.4h-1.1c-0.2,0-0.3-0.1-0.3-0.3s0.1-0.3,0.3-0.3h1.1c0.2,0,0.3,0.1,0.3,0.3
		S486.8,122.4,486.6,122.4z"/>
</g>
<g class="st9">
	<path class="st10" d="M487.7,125.1h-2.2c-0.2,0-0.3-0.1-0.3-0.3s0.1-0.3,0.3-0.3h2.2c0.2,0,0.3,0.1,0.3,0.3
		S487.9,125.1,487.7,125.1z"/>
</g>
<path class="st2" d="M486.1,121c0.4,0,0.7-0.3,0.7-0.7s-0.3-0.7-0.7-0.7c-0.4,0-0.7,0.3-0.7,0.7C485.3,120.7,485.7,121,486.1,121z"
	/>
<g class="st9">
	<path class="st10" d="M486.1,121.3c-0.6,0-1.1-0.5-1.1-1.1s0.5-1.1,1.1-1.1s1.1,0.5,1.1,1.1C487.2,120.9,486.7,121.3,486.1,121.3z
		 M486.1,119.9c-0.2,0-0.4,0.2-0.4,0.4s0.2,0.4,0.4,0.4c0.2,0,0.4-0.2,0.4-0.4C486.5,120,486.3,119.9,486.1,119.9z"/>
</g>
<g>
	<g>
		<g>
			<defs>
				<rect id="SVGID_11_" x="36" y="100" width="36" height="36"/>
			</defs>
			<clipPath id="SVGID_12_">
				<use xlink:href="#SVGID_11_"  style="overflow:visible;"/>
			</clipPath>
			<g class="st21">
				<g class="st12">
					<path class="st13" d="M46.8,116.6c0-0.4,0.3-0.7,0.7-0.7h9.4c0.4,0,0.7,0.3,0.7,0.7v5.1c0,0.7-1.4,1.5-2,1.4
						c-1.8-0.1-4.5,0.3-8,0.8c-0.4,0.1-0.8-0.3-0.8-0.7L46.8,116.6L46.8,116.6z"/>
				</g>
				<path class="st2" d="M57.5,127.5c3.3,0,6.1-2.7,6.1-6.1s-2.7-6.1-6.1-6.1s-6.1,2.7-6.1,6.1C51.5,124.8,54.2,127.5,57.5,127.5z"
					/>
				<path class="st6" d="M51.5,124.2h-4.7c-1.3,0-2.4-1.1-2.4-2.4v-10.6c0-0.2,0.1-0.3,0.3-0.3H50c0.5,0,1,0.2,1.3,0.6l1.3,1.5h8.3
					c0.2,0,0.3,0.2,0.3,0.3v2.3c0,0.2-0.1,0.3-0.3,0.3s-0.3-0.2-0.3-0.3v-1.9h-8.2c-0.1,0-0.2,0-0.3-0.1l-1.4-1.7
					c-0.2-0.2-0.5-0.4-0.8-0.4H45v10.3c0,0.9,0.8,1.7,1.7,1.7h4.7c0.2,0,0.3,0.2,0.3,0.3C51.8,124.1,51.7,124.2,51.5,124.2
					L51.5,124.2z"/>
				<path class="st6" d="M49.8,113.5h-2.9c-0.2,0-0.3-0.2-0.3-0.3c0-0.2,0.1-0.3,0.3-0.3h2.9c0.2,0,0.3,0.2,0.3,0.3
					S50,113.5,49.8,113.5z"/>
				<path class="st6" d="M54,136c-0.1,0-0.1,0-0.2,0l-15.2-8.8c-0.1-0.1-0.2-0.2-0.2-0.3v-17.7c0-0.1,0.1-0.2,0.2-0.3l15.2-8.8
					c0.1-0.1,0.2-0.1,0.3,0l15.2,8.8c0.1,0.1,0.2,0.2,0.2,0.3v17.7c0,0.1-0.1,0.2-0.2,0.3L54.2,136C54.1,136,54.1,136,54,136z
					 M39.2,126.6l14.8,8.6l14.8-8.6v-17.3L54,100.7l-14.8,8.6V126.6z"/>
				<path class="st6" d="M52,121.5c0,0.2,0.2,0.3,0.3,0.3c0.2,0,0.3-0.2,0.3-0.3H52L52,121.5z M53.1,123.7c-0.2,0-0.4,0.1-0.4,0.2
					l-0.8,2.9c0,0.2,0.1,0.4,0.2,0.4c0.2,0,0.4-0.1,0.4-0.2l0.7-2.6l2.6,0.7c0.2,0,0.4-0.1,0.4-0.2c0-0.2-0.1-0.4-0.2-0.4
					L53.1,123.7L53.1,123.7z M61.1,124.8c-1.9,2-5,2.1-6.9,0.2l-0.5,0.5c2.2,2.1,5.8,2.1,7.9-0.2L61.1,124.8L61.1,124.8z M54,118
					c1.9-2,5-2.1,6.9-0.2l0.5-0.5c-2.2-2.1-5.8-2.1-7.9,0.2L54,118L54,118z M60.9,117.8c2,1.9,2,5,0.2,7l0.5,0.5
					c2.1-2.2,2-5.8-0.2-7.9L60.9,117.8L60.9,117.8z M52.6,121.5c0-1.2,0.4-2.5,1.4-3.5l-0.5-0.5c-1,1.1-1.6,2.5-1.5,4H52.6z
					 M54.2,125c-0.3-0.3-0.6-0.7-0.9-1.1l-0.6,0.3c0.3,0.4,0.6,0.9,1,1.3L54.2,125L54.2,125z"/>
				<path class="st6" d="M57.8,115.9h-0.7v1.4h0.7V115.9z"/>
				<path class="st6" d="M57.8,125.6h-0.7v1.4h0.7V125.6z"/>
				<path class="st6" d="M62.9,121h-1.3v0.7h1.3V121z"/>
				<path class="st10" d="M57.5,122.4c-0.1,0-0.2,0-0.2-0.1l-2.1-2c-0.1-0.1-0.1-0.3,0-0.5c0.1-0.1,0.3-0.1,0.5,0l1.8,1.7l2.5-3.3
					c0.1-0.2,0.3-0.2,0.5-0.1c0.1,0.1,0.2,0.3,0.1,0.5l-2.7,3.6C57.7,122.4,57.6,122.4,57.5,122.4L57.5,122.4L57.5,122.4z"/>
				<path class="st2" d="M57.5,122.5c0.4,0,0.7-0.3,0.7-0.7c0-0.4-0.3-0.7-0.7-0.7s-0.7,0.3-0.7,0.7
					C56.9,122.2,57.2,122.5,57.5,122.5z"/>
				<path class="st10" d="M57.5,122.8c-0.6,0-1-0.5-1-1s0.5-1,1-1s1,0.5,1,1S58.1,122.8,57.5,122.8z M57.5,121.5
					c-0.2,0-0.3,0.2-0.3,0.3c0,0.2,0.1,0.3,0.3,0.3s0.3-0.2,0.3-0.3C57.9,121.6,57.7,121.5,57.5,121.5z"/>
			</g>
		</g>
	</g>
</g>
<g>
	<g>
		<g>
			<defs>
				<rect id="SVGID_13_" x="108.7" y="100" width="36" height="36"/>
			</defs>
			<clipPath id="SVGID_14_">
				<use xlink:href="#SVGID_13_"  style="overflow:visible;"/>
			</clipPath>
			<g class="st22">
				<path class="st6" d="M126.7,136c-0.1,0-0.1,0-0.2,0l-15.2-8.8c-0.1-0.1-0.2-0.2-0.2-0.3v-17.7c0-0.1,0.1-0.2,0.2-0.3l15.2-8.8
					c0.1-0.1,0.2-0.1,0.3,0l15.2,8.8c0.1,0.1,0.2,0.2,0.2,0.3v17.7c0,0.1-0.1,0.2-0.2,0.3l-15.2,8.8C126.8,136,126.8,136,126.7,136
					L126.7,136z M111.9,126.6l14.8,8.6l14.8-8.6v-17.3l-14.8-8.6l-14.8,8.6V126.6z"/>
				<g class="st12">
					<path class="st8" d="M117.7,112.6c0-1.5,1.2-2.8,2.7-2.8s2.7,1.2,2.7,2.8v0.4c0.3,0.1,0.6,0.4,0.6,0.7c0,0.4-0.4,0.8-0.8,0.8
						l0,0c-0.4,0.9-1.4,1.6-2.5,1.6s-2-0.6-2.5-1.6l0,0c-0.5,0-0.8-0.4-0.8-0.8s0.2-0.6,0.6-0.7V112.6L117.7,112.6z"/>
				</g>
				<path class="st6" d="M120.4,116.5c-1.1,0-2.1-0.6-2.7-1.6c-0.6-0.1-1-0.6-1-1.1c0-0.4,0.2-0.8,0.6-1v-0.2c0-1.7,1.4-3.1,3.1-3.1
					s3.1,1.4,3.1,3.1v0.2c0.4,0.2,0.6,0.6,0.6,1c0,0.6-0.4,1-1,1.1C122.6,115.8,121.5,116.5,120.4,116.5L120.4,116.5z M120.4,110.2
					c-1.3,0-2.4,1.1-2.4,2.4v0.7l-0.2,0.1c-0.2,0.1-0.3,0.2-0.3,0.4c0,0.2,0.2,0.4,0.5,0.4h0.2l0.1,0.2c0.4,0.8,1.2,1.4,2.2,1.4
					c0.9,0,1.8-0.5,2.2-1.4l0.1-0.2h0.2c0.3,0,0.5-0.2,0.5-0.4c0-0.2-0.1-0.4-0.3-0.4l-0.2-0.1v-0.7
					C122.8,111.3,121.8,110.2,120.4,110.2L120.4,110.2z"/>
				<g class="st12">
					<path class="st13" d="M115.5,119.4v0.4l-0.2,3.8h10.8v-0.4l-0.2-3.3v-0.1c-0.1-2.1-2.3-3.5-4.2-2.8h-0.1c-0.7,0.2-1.4,0.2-2,0
						C117.6,116.2,115.6,117.5,115.5,119.4L115.5,119.4z"/>
				</g>
				<path class="st6" d="M126,124h-10.8c-0.1,0-0.2,0-0.2-0.1c-0.1-0.1-0.1-0.2-0.1-0.3l0.2-4.2c0.1-1,0.6-2,1.5-2.5
					c0.9-0.6,1.9-0.6,2.9-0.3c0.6,0.2,1.2,0.2,1.8,0h0.1c1-0.4,2.2-0.3,3.1,0.4c0.9,0.6,1.5,1.6,1.6,2.7l0.2,3.9
					C126.4,123.8,126.2,124,126,124L126,124z M115.6,123.3h10.1v-0.1l-0.2-3.4c-0.1-0.9-0.5-1.7-1.3-2.2s-1.7-0.6-2.5-0.3h-0.1
					c-0.7,0.3-1.6,0.3-2.3,0c-0.8-0.3-1.6-0.2-2.3,0.2c-0.7,0.4-1.1,1.2-1.2,2v0.4L115.6,123.3L115.6,123.3z"/>
				<path class="st4" d="M129.8,112.6c0-1.5,1.2-2.8,2.7-2.8s2.7,1.2,2.7,2.8v0.4c0.3,0.1,0.6,0.4,0.6,0.7c0,0.4-0.4,0.8-0.8,0.8
					l0,0c-0.4,0.9-1.4,1.6-2.5,1.6s-2-0.6-2.5-1.6l0,0c-0.5,0-0.8-0.4-0.8-0.8s0.2-0.6,0.6-0.7V112.6L129.8,112.6z"/>
				<path class="st6" d="M132.6,116.5c-1.1,0-2.1-0.6-2.7-1.6c-0.6-0.1-1-0.6-1-1.1c0-0.4,0.2-0.8,0.6-1v-0.2c0-1.7,1.4-3.1,3.1-3.1
					c1.7,0,3.1,1.4,3.1,3.1v0.2c0.4,0.2,0.6,0.6,0.6,1c0,0.6-0.4,1-1,1.1C134.7,115.8,133.7,116.5,132.6,116.5L132.6,116.5z
					 M132.6,110.2c-1.3,0-2.4,1.1-2.4,2.4v0.7l-0.2,0.1c-0.2,0.1-0.3,0.2-0.3,0.4c0,0.2,0.2,0.4,0.5,0.4h0.2l0.1,0.2
					c0.4,0.8,1.2,1.4,2.2,1.4c0.9,0,1.8-0.5,2.2-1.4l0.1-0.2h0.2c0.3,0,0.5-0.2,0.5-0.4c0-0.2-0.1-0.4-0.3-0.4l-0.2-0.1v-0.7
					C134.9,111.3,133.9,110.2,132.6,110.2L132.6,110.2z"/>
				<path class="st6" d="M127.4,124L127.4,124c-0.2,0-0.3-0.2-0.3-0.4l0.2-4.2c0.1-1,0.6-2,1.5-2.5c0.9-0.6,1.9-0.6,2.9-0.3
					c0.6,0.2,1.2,0.2,1.8,0h0.1c1-0.4,2.2-0.3,3.1,0.4c0.9,0.6,1.5,1.6,1.6,2.7l0.2,3.7c0,0.2-0.1,0.3-0.3,0.4
					c-0.2,0-0.3-0.1-0.4-0.3l-0.2-3.7c-0.1-0.9-0.5-1.7-1.3-2.2c-0.8-0.5-1.7-0.6-2.5-0.3h-0.1c-0.7,0.3-1.6,0.3-2.3,0
					c-0.8-0.3-1.6-0.2-2.3,0.2c-0.7,0.4-1.1,1.2-1.2,2v0.4l-0.2,3.8C127.7,123.8,127.6,124,127.4,124L127.4,124z"/>
				<path class="st6" d="M134.1,121.3c0,0.2,0,0.3-0.1,0.4s-0.1,0.3-0.2,0.4c-0.1,0.1-0.2,0.2-0.4,0.2c-0.1,0.1-0.3,0.1-0.4,0.1
					h-1.5v-0.8h1.5c0.1,0,0.1,0,0.1,0s0.1,0,0.1-0.1l0.1-0.1c0,0,0-0.1,0-0.2s0-0.1,0-0.2c0,0,0-0.1-0.1-0.1l-0.1-0.1H133h-1V120h1
					c0.1,0,0.1,0,0.1,0s0.1,0,0.1-0.1l0.1-0.1c0,0,0-0.1,0-0.2s0-0.1,0-0.2c0,0,0-0.1-0.1-0.1l-0.1-0.1H133h-1.5v-0.8h1.5
					c0.2,0,0.3,0,0.4,0.1c0.1,0.1,0.3,0.1,0.4,0.2c0.1,0.1,0.2,0.2,0.2,0.4c0.1,0.1,0.1,0.3,0.1,0.4s0,0.3-0.1,0.4s-0.1,0.3-0.2,0.4
					c0.1,0.1,0.2,0.2,0.2,0.4C134.1,121,134.1,121.1,134.1,121.3L134.1,121.3z"/>
				<g class="st9">
					<path class="st10" d="M131.7,126c0.1-0.1,0.1-0.3,0-0.5l-2.1-2.2c-0.1-0.1-0.3-0.1-0.5,0c-0.1,0.1-0.1,0.4,0,0.5l1.9,1.9
						l-1.9,1.9c-0.1,0.1-0.1,0.3,0,0.5c0.1,0.1,0.3,0.1,0.5,0L131.7,126L131.7,126z M115.3,125.5c-0.2,0-0.3,0.2-0.3,0.3
						c0,0.2,0.1,0.3,0.3,0.3V125.5z M131.4,125.5h-16.2v0.7h16.2V125.5z"/>
				</g>
			</g>
		</g>
	</g>
</g>
<g class="st12">
	<path class="st13" d="M511.4,116.5v-3.1l2.6-2.8l0.5-0.4c0.1-0.1,0.3-0.2,0.4-0.2h11v15.6c0,1.5-1.2,2.6-2.6,2.6h-11.9V116.5
		L511.4,116.5z"/>
</g>
<path class="st2" d="M514,115.3v-2.8l2.4-2.5l0.4-0.4c0.1-0.1,0.3-0.2,0.4-0.2h10v14c0,1.5-1.2,2.6-2.6,2.6h-10.5v-10.7L514,115.3
	L514,115.3z"/>
<path class="st6" d="M537.2,133.5h-30.3c-0.2,0-0.3-0.1-0.3-0.3v-30.3c0-0.2,0.1-0.3,0.3-0.3h30.3c0.2,0,0.3,0.1,0.3,0.3v30.3
	C537.5,133.4,537.4,133.5,537.2,133.5z M507.2,132.8h29.7v-29.7h-29.7V132.8z"/>
<path class="st6" d="M517.9,109.4v-0.3h-0.3v0.3H517.9z M514,112.5l-0.2-0.2l-0.1,0.1v0.1L514,112.5L514,112.5z M527.3,109.4h0.3
	c0-0.2-0.1-0.3-0.3-0.3V109.4z M517.9,112.6v0.3c0.2,0,0.3-0.1,0.3-0.3H517.9z M515.7,112.3c-0.2,0-0.3,0.2-0.3,0.3
	c0,0.2,0.1,0.3,0.3,0.3V112.3L515.7,112.3z M516.7,110.2c0.1-0.1,0.1-0.3,0-0.5c-0.1-0.1-0.3-0.1-0.5,0L516.7,110.2z M514,126h-0.3
	c0,0.2,0.1,0.3,0.3,0.3V126z M520.7,126.4c0.2,0,0.3-0.2,0.3-0.3c0-0.2-0.1-0.3-0.3-0.3V126.4z M526.9,117c0,0.2,0.1,0.3,0.3,0.3
	s0.3-0.1,0.3-0.3H526.9z M513.8,112.5v2.8h0.7v-2.8H513.8L513.8,112.5z M527.3,109.1h-9.4v0.7h9.4V109.1z M517.5,109.4v3.2h0.7v-3.2
	H517.5z M517.9,112.3h-2.2v0.7h2.2V112.3z M514.3,112.7l2.4-2.5l-0.5-0.4l-2.4,2.5L514.3,112.7z M514.4,126v-10.8h-0.7V126H514.4z
	 M514,126.4h6.6v-0.7H514V126.4L514,126.4z M526.9,109.4v7.6h0.7v-7.6H526.9z"/>
<g class="st15">
	<path class="st10" d="M521.3,115.7h-3.6c-0.2,0-0.3-0.1-0.3-0.3s0.1-0.3,0.3-0.3h3.6c0.2,0,0.3,0.1,0.3,0.3
		C521.7,115.5,521.5,115.7,521.3,115.7z"/>
</g>
<g class="st15">
	<path class="st10" d="M521.3,119.6h-3.6c-0.2,0-0.3-0.1-0.3-0.3s0.1-0.3,0.3-0.3h3.6c0.2,0,0.3,0.1,0.3,0.3
		C521.7,119.5,521.5,119.6,521.3,119.6z"/>
</g>
<g class="st15">
	<path class="st10" d="M523,117.7h-5.3c-0.2,0-0.3-0.1-0.3-0.3s0.1-0.3,0.3-0.3h5.3c0.2,0,0.3,0.1,0.3,0.3
		C523.3,117.5,523.2,117.7,523,117.7z"/>
</g>
<path class="st6" d="M522.5,122.9L522.5,122.9c-0.2,0-0.4-0.2-0.3-0.4c0.2-1.1,0.7-2,1.4-2.8c0.9-0.9,2.2-1.5,3.5-1.5
	s2.6,0.5,3.5,1.5c0.3,0.3,0.6,0.7,0.9,1.1c0.1,0.2,0,0.4-0.1,0.4c-0.2,0.1-0.4,0-0.4-0.1c-0.2-0.4-0.4-0.7-0.7-1
	c-0.8-0.8-1.9-1.3-3.1-1.3c-1.2,0-2.3,0.5-3.1,1.3c-0.7,0.7-1.1,1.5-1.2,2.4C522.9,122.8,522.8,122.9,522.5,122.9L522.5,122.9z"/>
<path class="st6" d="M531.7,121.5h-2.4c-0.2,0-0.3-0.1-0.3-0.3s0.1-0.3,0.3-0.3h2.1v-2.1c0-0.2,0.1-0.3,0.3-0.3s0.3,0.1,0.3,0.3v2.4
	C532,121.4,531.9,121.5,531.7,121.5L531.7,121.5z"/>
<path class="st6" d="M527.3,128.1c-1.3,0-2.6-0.5-3.5-1.5c-0.3-0.4-0.6-0.7-0.9-1.1c-0.1-0.2,0-0.4,0.1-0.4c0.2-0.1,0.4,0,0.4,0.1
	c0.2,0.4,0.4,0.7,0.7,1c1.7,1.7,4.5,1.7,6.1,0c0.7-0.7,1.1-1.5,1.2-2.4c0-0.2,0.2-0.3,0.4-0.3s0.3,0.2,0.3,0.4
	c-0.2,1.1-0.7,2-1.4,2.8C529.9,127.6,528.5,128.1,527.3,128.1L527.3,128.1z"/>
<path class="st6" d="M522.9,128c-0.2,0-0.3-0.1-0.3-0.3v-2.4c0-0.2,0.1-0.3,0.3-0.3h2.4c0.2,0,0.3,0.1,0.3,0.3s-0.1,0.3-0.3,0.3
	h-2.1v2.1C523.2,127.8,523,128,522.9,128z"/>
<g>
	<g class="st0">
		<ellipse class="st1" cx="36" cy="37.3" rx="7.1" ry="10.7"/>
	</g>
	<g>
		<g>
			<path class="st3" d="M42.6,49.7c-4,0-7.8-2.3-9.6-5.9c-1.9-0.2-3.4-1.7-3.4-3.5c0-1.4,0.9-2.7,2.2-3.2v-1.2
				c0-6,4.9-10.9,10.9-10.9s10.7,5,10.7,10.9v1.2c1.3,0.6,2.2,1.8,2.2,3.2c0,1.8-1.5,3.4-3.4,3.5C50.4,47.4,46.6,49.7,42.6,49.7z
				 M42.6,26.3c-5.3,0-9.7,4.3-9.7,9.7v2l-0.4,0.1c-1.1,0.3-1.8,1.2-1.8,2.2c0,1.3,1.1,2.3,2.5,2.3h0.4l0.2,0.3
				c1.6,3.4,5,5.5,8.7,5.5s7.1-2.2,8.7-5.5l0.2-0.3h0.4l0,0c1.5,0,2.6-1,2.6-2.3c0-1-0.7-1.9-1.8-2.2L52.2,38v-2
				C52.2,30.6,47.9,26.3,42.6,26.3z"/>
		</g>
	</g>
	<g class="st0">
		<path class="st5" d="M66.5,56.8c-5,4.3-11.5,6.9-18.6,6.9c-15.7,0-28.5-12.8-28.5-28.5c0-5.3,1.4-10.2,3.9-14.4
			c-6,5.2-9.8,12.9-9.8,21.5C13.5,58,26.2,70.8,42,70.8C52.4,70.9,61.6,65.2,66.5,56.8z"/>
	</g>
	<g>
		<path class="st3" d="M23,63.4C23,63.4,22.9,63.4,23,63.4c-0.4,0-0.6-0.3-0.6-0.7l0.6-4.6c0.4-2.4,1.7-4.4,3.7-5.7s4.4-1.8,6.7-1.2
			l6.2,1.4c1.6,0.4,3.4,0.4,5,0l6.3-1.4c2.4-0.5,4.8-0.1,6.8,1.2s3.4,3.4,3.8,5.7l0.6,3.7c0.1,0.3-0.2,0.6-0.5,0.7
			c-0.3,0.1-0.6-0.2-0.7-0.5l-0.6-3.7c-0.4-2-1.6-3.8-3.3-4.9c-1.7-1.1-3.8-1.5-5.9-1.1l-6.3,1.4c-1.8,0.4-3.7,0.4-5.5,0l-6.2-1.4
			c-2-0.5-4.1-0.1-5.8,1.1c-1.7,1.1-2.8,2.9-3.2,4.9l-0.6,4.5C23.5,63.2,23.3,63.4,23,63.4z"/>
	</g>
	<g>
		<path class="st3" d="M42,71.1c-16,0-29.1-13-29.1-29.1s13-29,29.1-29s29,13,29,29.1S58,71.1,42,71.1z M42,14.2
			c-15.4,0-27.9,12.5-27.9,27.9S26.6,69.9,42,69.9S69.9,57.4,69.9,42S57.3,14.2,42,14.2z"/>
	</g>
</g>
<g>
	<g class="st12">
		<path class="st13" d="M335.9,115.2h9.5c0.4,0,0.7,0.3,0.7,0.7v6.8c0,0.4-0.3,0.7-0.7,0.7h-9.5c-0.4,0-0.7-0.3-0.7-0.7v-6.8
			C335.2,115.5,335.5,115.2,335.9,115.2z"/>
	</g>
	<g>
		<path class="st6" d="M338.3,123.5h-3.1c-1.3,0-2.4-1.1-2.4-2.4v-10.6c0-0.2,0.2-0.3,0.3-0.3h6c0.5,0,1,0.2,1.3,0.6l1.3,1.5h7.7
			c0.2,0,0.3,0.2,0.3,0.3v2.3c0,0.2-0.2,0.3-0.3,0.3c-0.2,0-0.3-0.2-0.3-0.3V113h-7.5c-0.1,0-0.2,0-0.3-0.1l-1.4-1.7
			c-0.2-0.2-0.5-0.4-0.8-0.4h-5.6v10.3c0,0.9,0.8,1.7,1.7,1.7h3.1c0.2,0,0.3,0.2,0.3,0.3S338.5,123.5,338.3,123.5z"/>
	</g>
	<g>
		<path class="st6" d="M338.3,112.8h-2.9c-0.2,0-0.3-0.2-0.3-0.3c0-0.2,0.2-0.3,0.3-0.3h2.9c0.2,0,0.3,0.2,0.3,0.3
			C338.6,112.6,338.5,112.8,338.3,112.8z"/>
	</g>
	<g>
		<path class="st6" d="M342.7,135.9c-0.1,0-0.1,0-0.2,0l-15.3-8.8c-0.1-0.1-0.2-0.2-0.2-0.3v-17.6c0-0.1,0.1-0.2,0.2-0.3l15.3-8.8
			c0.1-0.1,0.2-0.1,0.3,0l15.3,8.8c0.1,0.1,0.2,0.2,0.2,0.3v17.6c0,0.1-0.1,0.2-0.2,0.3L342.7,135.9L342.7,135.9z M327.8,126.6
			l14.9,8.6l14.9-8.6v-17.2l-14.9-8.6l-14.9,8.6V126.6z"/>
	</g>
	<g>
		<path class="st4" d="M341.8,120c0-2.6,2.1-4.8,4.8-4.8c2.6,0,4.8,2.1,4.8,4.8v1c0.8,0,1.5,0.7,1.5,1.5s-0.7,1.5-1.5,1.5
			c-0.1,0-0.2,0-0.3,0c-0.7,1.8-2.4,3-4.5,3c-2,0-3.8-1.3-4.5-3c-0.1,0-0.2,0-0.3,0c-0.8,0-1.5-0.7-1.5-1.5s0.7-1.4,1.5-1.5V120z"/>
		<path class="st6" d="M346.6,127.3c-2,0-3.8-1.2-4.7-3l0,0c-1,0-1.9-0.8-1.9-1.8c0-0.9,0.6-1.6,1.5-1.8V120c0-2.8,2.3-5.1,5.1-5.1
			s5.1,2.3,5.1,5.1v0.7c0.8,0.2,1.5,0.9,1.5,1.8c0,1-0.9,1.9-1.9,1.8C350.4,126.1,348.6,127.3,346.6,127.3z M342.4,123.6l0.1,0.3
			c0.7,1.7,2.3,2.8,4.1,2.8c1.8,0,3.5-1.1,4.1-2.8l0.1-0.3h0.3c0.7,0.1,1.4-0.4,1.4-1.1c0-0.6-0.5-1.1-1.1-1.1h-0.3V120
			c0-2.4-2-4.4-4.4-4.4s-4.4,2-4.4,4.4v1.3H342c-0.6,0-1.1,0.5-1.1,1.1s0.5,1.1,1.2,1.1C342.2,123.5,342.2,123.5,342.4,123.6
			L342.4,123.6z"/>
	</g>
	<g>
		<path class="st2" d="M339.3,117.8c0-0.1,0.2-0.2,0.3-0.2l0,0c2.2-0.3,4.2-0.5,6.4-0.2l2.2,0.3c0.1,0,0.2,0.1,0.2,0.3v2.7
			c0,3.2-2.2,6-5.2,6.8l0,0l0,0c-2.3-0.8-3.9-3-3.9-5.5V117.8z"/>
		<path class="st6" d="M343.1,127.8L343.1,127.8c-2.6-0.9-4.2-3.2-4.2-5.8v-4.1c0-0.4,0.4-0.5,0.6-0.5c2.5-0.4,4.6-0.5,6.5-0.2
			l2.2,0.3c0.3,0,0.5,0.3,0.5,0.6v2.7C348.7,124,346.5,126.9,343.1,127.8L343.1,127.8z M339.6,118v4c0,2.3,1.4,4.3,3.5,5.1
			c2.9-0.8,4.9-3.4,4.9-6.4V118l-2.1-0.2C344,117.5,342.1,117.6,339.6,118z"/>
	</g>
	<g>
		<ellipse class="st2" cx="345.4" cy="121.3" rx="2" ry="1"/>
	</g>
	<g class="st9">
		<path class="st10" d="M345.4,122.4c-0.5,0-1.1-0.1-1.4-0.3c-0.5-0.3-0.6-0.6-0.6-0.7s0.1-0.5,0.6-0.7c0.8-0.4,2.1-0.4,2.9,0
			c0.5,0.3,0.6,0.6,0.6,0.7s-0.1,0.5-0.6,0.7C346.4,122.2,345.9,122.4,345.4,122.4z M344.1,121.3c0,0,0.1,0.1,0.2,0.1
			c0.6,0.3,1.7,0.3,2.3,0c0.1,0,0.1-0.1,0.2-0.1c0,0-0.1-0.1-0.2-0.1c-0.6-0.3-1.7-0.3-2.3,0C344.2,121.3,344.1,121.3,344.1,121.3z"
			/>
	</g>
	<g>
		<path class="st2" d="M342,121.3c0,0.6-0.9,1-2,1s-1-0.5-1-1c0-0.6-0.1-1,1-1S342,120.8,342,121.3z"/>
	</g>
	<g class="st9">
		<path class="st10" d="M340,122.4c-0.5,0-0.8-0.1-0.9-0.3c-0.1-0.1-0.1-0.2-0.1-0.3c0-0.1,0-0.1,0-0.2v-0.2v-0.2c0-0.1,0-0.2,0-0.2
			c0-0.1,0-0.2,0.1-0.3c0.1-0.2,0.4-0.3,0.9-0.3s1.1,0.1,1.4,0.3c0.5,0.3,0.6,0.6,0.6,0.7s-0.1,0.5-0.6,0.7
			C341,122.2,340.5,122.4,340,122.4z M339.6,121.7c0.1,0,0.2,0,0.3,0c0.4,0,0.8-0.1,1.1-0.2c0.1,0,0.1-0.1,0.2-0.1
			c0,0-0.1-0.1-0.2-0.1c-0.3-0.1-0.7-0.2-1.1-0.2c-0.2,0-0.3,0-0.3,0v0.1v0.2V121.7C339.6,121.6,339.6,121.6,339.6,121.7z"/>
	</g>
</g>
<g>
	<g class="st12">
		<path class="st13" d="M547.7,116.5v-3.1l2.6-2.7l0.5-0.4c0.1-0.1,0.3-0.2,0.4-0.2h0.6h10.3v4v11.5c0,1.4-1.2,2.6-2.6,2.6h-11.8
			V116.5z"/>
	</g>
	<g>
		<path class="st2" d="M550.3,115.2v-2.8l2.4-2.5l0.4-0.4c0.1-0.1,0.3-0.2,0.4-0.2h0.6h9.4v3.6v10.3c0,1.4-1.2,2.6-2.6,2.6h-10.5
			V115.2z"/>
	</g>
	<g>
		<path class="st6" d="M573.3,133.3h-30.2c-0.2,0-0.3-0.1-0.3-0.3v-30.2c0-0.2,0.1-0.3,0.3-0.3h30.2c0.2,0,0.3,0.1,0.3,0.3V133
			C573.6,133.2,573.5,133.3,573.3,133.3z M543.4,132.7H573v-29.5h-29.5V132.7z"/>
	</g>
	<g>
		<path class="st6" d="M554.1,109.4v-0.3h-0.3v0.3H554.1z M550.3,112.4l-0.2-0.2l-0.1,0.1v0.1H550.3z M563.4,109.4h0.3
			c0-0.2-0.1-0.3-0.3-0.3V109.4z M554.1,112.6v0.3c0.2,0,0.3-0.1,0.3-0.3H554.1z M551.9,112.3c-0.2,0-0.3,0.2-0.3,0.3
			c0,0.2,0.1,0.3,0.3,0.3V112.3z M552.9,110.2c0.1-0.1,0.1-0.3,0-0.5c-0.1-0.1-0.3-0.1-0.5,0L552.9,110.2z M550.3,125.9H550
			c0,0.2,0.1,0.3,0.3,0.3V125.9z M556.9,126.3c0.2,0,0.3-0.2,0.3-0.3c0-0.2-0.1-0.3-0.3-0.3V126.3z M563.1,116.9
			c0,0.2,0.1,0.3,0.3,0.3s0.3-0.1,0.3-0.3H563.1z M550,112.4v2.8h0.7v-2.8H550z M563.4,109.1h-9.4v0.7h9.4V109.1z M553.8,109.4v3.2
			h0.7v-3.2H553.8z M554.1,112.3h-2.2v0.7h2.2V112.3z M550.6,112.6l2.4-2.5l-0.5-0.4l-2.4,2.5L550.6,112.6z M550.7,125.9v-10.7H550
			v10.7H550.7z M550.3,126.3h6.6v-0.7h-6.6V126.3z M563.1,109.4v7.5h0.7v-7.5H563.1z"/>
	</g>
	<g class="st15">
		<path class="st10" d="M557.5,115.6h-3.6c-0.2,0-0.3-0.1-0.3-0.3s0.1-0.3,0.3-0.3h3.6c0.2,0,0.3,0.1,0.3,0.3
			S557.7,115.6,557.5,115.6z"/>
	</g>
	<g class="st15">
		<path class="st10" d="M557.5,119.6h-3.6c-0.2,0-0.3-0.1-0.3-0.3c0-0.2,0.1-0.3,0.3-0.3h3.6c0.2,0,0.3,0.1,0.3,0.3
			C557.9,119.4,557.7,119.6,557.5,119.6z"/>
	</g>
	<g class="st15">
		<path class="st10" d="M559.2,117.6h-5.2c-0.2,0-0.3-0.1-0.3-0.3c0-0.2,0.1-0.3,0.3-0.3h5.2c0.2,0,0.3,0.1,0.3,0.3
			C559.5,117.5,559.4,117.6,559.2,117.6z"/>
	</g>
</g>
</svg>
