<svg width="16" height="16" viewBox="0 0 16 16" fill="none" xmlns="http://www.w3.org/2000/svg">
<path d="M2.857 1.94302C2.35209 1.94302 1.94272 2.35233 1.94272 2.85725V13.143C1.94272 13.648 2.35209 14.0572 2.857 14.0572H13.1427C13.6476 14.0572 14.057 13.648 14.057 13.143V10.5715H15.4284V13.143C15.4284 14.4054 14.4051 15.4287 13.1427 15.4287H2.857C1.59464 15.4287 0.571289 14.4054 0.571289 13.143V2.85725C0.571289 1.59494 1.59464 0.57159 2.857 0.57159L5.42843 0.571533V1.94302H2.857Z" fill="#3A3A3A"/>
<path fill-rule="evenodd" clip-rule="evenodd" d="M7.20007 0.571533H15.4286V8.8001H14.0572V2.91268L10.4001 6.56982L8.5715 8.39839L7.65733 9.31268L6.6875 8.34296L7.60179 7.42868L9.43036 5.6001L13.0875 1.94296H7.20007V0.571533Z" fill="#3A3A3A"/>
</svg>
