<svg width="52" height="48" viewBox="0 0 52 48" fill="none" xmlns="http://www.w3.org/2000/svg">
<path opacity="0.8" fill-rule="evenodd" clip-rule="evenodd" d="M0.0192304 31L25.9999 48L51.9807 31L52 31L52 3.8147e-06L3.21453e-06 -7.31287e-07L5.04426e-07 31L0.0192304 31Z" fill="black"/>
<path d="M24.4312 13.095H19.7512V11.58H18.2062V13.095H13.4662V14.325H24.4312V13.095ZM21.8812 17.28C21.8812 18.015 20.8762 18.42 18.9862 18.42C17.0962 18.42 16.0762 18.015 16.0762 17.28C16.0762 16.545 17.0962 16.155 18.9862 16.155C20.8762 16.155 21.8812 16.545 21.8812 17.28ZM14.4712 17.28C14.4712 18.75 16.1662 19.575 18.9862 19.575C21.8062 19.575 23.5012 18.75 23.5012 17.28C23.5012 15.81 21.8062 14.985 18.9862 14.985C16.1662 14.985 14.4712 15.81 14.4712 17.28ZM25.1362 20.385H12.8512V21.63H18.2062V25.17H19.7512V21.63H25.1362V20.385ZM35.03 15.87H28.925V13.44H35.03V15.87ZM36.545 12.21H27.41V17.1H36.545V12.21ZM28.895 20.985H27.35V24.9H36.77V23.64H28.895V20.985ZM25.85 18.435V19.68H31.34V22.215H32.885V19.68H38.135V18.435H25.85Z" fill="white"/>
</svg>
