<svg width="202" height="54" viewBox="0 0 202 54" fill="none" xmlns="http://www.w3.org/2000/svg">
<g clip-path="url(#clip0_2:14)">
<path d="M66.9063 21.8314H60.2881V15.0063H56.4619V31.1383C56.4619 32.0689 57.2892 32.8962 58.2199 32.8962H68.8711C69.8018 32.8962 70.629 32.0689 70.629 31.1383V15.0063H66.8029V21.8314H66.9063ZM66.9063 30.0008H60.2881V24.8303H66.9063V30.0008Z" fill="white"/>
<path d="M201.647 15.5256H180.138V18.6279H197.511V35.5871H193.788V27.3143H189.652V35.5871H186.756V27.3143H182.62V35.5871H178.587V38.6894H199.993C200.923 38.6894 201.647 37.8621 201.647 36.9314V15.5256Z" fill="white"/>
<path d="M172.798 15.0063H168.662V29.3803H150.875V32.4826H168.662V40.1349H171.247C172.074 40.0315 172.798 39.2042 172.798 38.3769V22.0382H176.107V18.9359H172.798V15.0063Z" fill="white"/>
<path d="M140.017 21.728H138.052V15.0063H134.226V30.7246H124.506V18.1086H132.055V15.0063H120.369V31.5519C120.369 32.3792 120.576 32.9996 120.886 33.3099C121.197 33.6201 121.714 33.7235 122.334 33.7235H134.226V40.0315H136.294C137.225 40.0315 138.052 39.2042 138.052 38.2735V24.8303H140.017V40.0315H142.189C143.223 40.0315 143.947 39.2042 143.947 38.2735V15.0063H140.017V21.728V21.728Z" fill="white"/>
<path d="M78.6952 21.728H76.7305V15.0063H72.9043V40.1349H74.9725C75.9032 40.1349 76.7305 39.3076 76.7305 38.3769V24.9337H78.6952V40.1349H80.8668C81.9009 40.1349 82.6248 39.3076 82.6248 38.3769V15.0063H78.6952V21.728Z" fill="white"/>
<path d="M157.183 28.3482C161.113 28.3482 164.422 25.6596 164.422 22.2471C164.422 21.0061 164.008 19.7652 163.181 18.8345H165.56V15.9391H159.355V13.6641H154.908V15.9391H148.807V18.8345H151.186C150.358 19.7652 149.945 21.0061 149.945 22.2471C149.945 25.5562 153.15 28.3482 157.183 28.3482ZM157.183 18.6277C159.045 18.6277 160.596 20.1789 160.596 22.1437C160.596 24.1084 159.045 25.6596 157.183 25.6596C155.322 25.6596 153.771 24.1084 153.771 22.1437C153.771 20.1789 155.322 18.6277 157.183 18.6277Z" fill="white"/>
<path d="M110.546 21.728H108.581V15.0063H104.755V40.1349H106.823C107.754 40.1349 108.581 39.3076 108.581 38.3769V24.9337H110.546V40.1349H112.717C113.751 40.1349 114.475 39.3076 114.475 38.3769V15.0063H110.546V21.728Z" fill="white"/>
<path d="M97.6181 18.212H102.789V15.0063H88.4147V18.212H93.5852C93.4818 28.4496 89.5522 29.6905 87.5874 30.4144V33.8269C89.3454 33.6201 90.8965 32.9996 92.2408 32.0689C93.792 31.0348 94.8261 29.7939 95.55 28.2428C96.2738 29.7939 97.4113 31.1383 98.8591 32.0689C100.203 32.9996 101.755 33.5167 103.512 33.8269V30.4144C101.548 29.5871 97.7216 28.4496 97.6181 18.212Z" fill="white"/>
<path d="M32.367 2.89669C28.4374 2.89669 24.7147 1.86259 21.6124 0.0012207C18.4067 1.86259 14.7873 2.89669 10.8578 2.89669C6.82479 2.89669 3.20546 1.86259 -0.000244141 0.0012207V19.2354C-0.000244141 33.8162 8.16912 46.5356 20.2681 53.0504C20.6817 53.2572 21.1987 53.5674 21.6124 53.7742C22.026 53.5674 22.5431 53.3606 22.9567 53.0504C34.9522 46.5356 43.1216 33.8162 43.1216 19.2354V0.0012207C40.0193 1.86259 36.2965 2.89669 32.367 2.89669ZM2.27477 19.2354H14.4771V23.9923L4.96342 33.506C3.20546 29.3696 2.27477 24.8195 2.27477 20.0627V19.2354V19.2354ZM21.6124 51.4992C18.3033 49.8447 15.201 47.5697 12.6157 44.9844L21.6124 35.9878L30.609 44.9844C28.0238 47.5697 24.9215 49.8447 21.6124 51.4992ZM38.2613 33.4025L28.7476 23.8889V19.132H40.8466V19.9593C40.95 24.8195 40.0193 29.2662 38.2613 33.4025Z" fill="white"/>
<path d="M28.8511 19.2327H40.95V20.0599C40.95 24.8168 40.0193 29.3668 38.3648 33.5032L28.8511 23.9895V19.2327V19.2327Z" fill="#004DA0"/>
<path d="M30.61 44.9913C28.0247 47.5765 24.9224 49.8515 21.6133 51.5061C18.3042 49.8515 15.2019 47.5765 12.6167 44.9913L21.6133 35.9946L30.61 44.9913Z" fill="#004DA0"/>
<path d="M14.4763 19.2327V23.9895L4.96258 33.5032C3.20461 29.3668 2.27393 24.8168 2.27393 20.0599V19.2327H14.4763V19.2327Z" fill="#004DA0"/>
<path d="M28.7466 10.5471C28.7466 14.4767 25.5409 17.6824 21.6113 17.6824C17.6818 17.6824 14.4761 14.4767 14.4761 10.5471C14.4761 6.61756 17.6818 3.41187 21.6113 3.41187C25.5409 3.41187 28.7466 6.61756 28.7466 10.5471Z" fill="white"/>
<path d="M28.0226 10.5452C28.0226 7.02926 25.2306 4.13379 21.6112 4.13379H21.5078C17.9919 4.13379 15.0964 7.02926 15.0964 10.5452C15.0964 14.0611 17.8885 16.8532 21.301 16.9566C21.4044 16.9566 21.5078 16.9566 21.5078 16.9566C25.1272 16.9566 28.0226 14.1645 28.0226 10.5452ZM15.9237 10.5452C15.9237 7.54631 18.1987 5.16789 21.1976 4.96107V9.51109H21.9215V4.96107C23.1624 5.16789 24.1965 6.30539 24.1965 7.54631C24.1965 8.99404 22.9556 10.1315 21.5078 10.1315C19.6465 10.1315 18.0953 11.6827 18.0953 13.5441C18.0953 14.2679 18.3021 14.8884 18.6124 15.4054C17.0612 14.4748 15.9237 12.6134 15.9237 10.5452ZM21.9215 16.2327V11.6827H21.1976V16.2327C19.9567 16.0259 18.9226 14.8884 18.9226 13.6475C18.9226 12.1997 20.1635 11.0622 21.6112 11.0622C23.4726 11.0622 25.0238 9.6145 25.0238 7.64972C25.0238 6.92585 24.8169 6.30539 24.5067 5.78834C26.1613 6.82244 27.2988 8.5804 27.2988 10.6486C27.1954 13.5441 24.9204 16.0259 21.9215 16.2327Z" fill="#004DA0"/>
</g>
<defs>
<clipPath id="clip0_2:14">
<rect width="201.649" height="53.6696" fill="white"/>
</clipPath>
</defs>
</svg>
