<svg width="1104" height="41" viewBox="0 0 1104 41" fill="none" xmlns="http://www.w3.org/2000/svg">
<path d="M169.952 7.99993V11.1499H187.562V7.99993H169.952ZM166.892 16.6699V19.8199H192.032V16.6699H166.892ZM185.162 7.99993V9.88993C185.162 11.8399 185.162 14.0899 184.442 17.2399L188.372 17.5999C189.092 14.3899 189.092 11.8699 189.092 9.88993V7.99993H185.162ZM169.682 21.7099V24.7999H185.042V26.5999H169.712V32.3599H173.702V29.5399H189.002V21.7099H169.682ZM169.712 31.3999V34.4899H189.722V31.3999H169.712Z" fill="black"/>
<path d="M194.49 28.3699V31.6099H219.63V28.3699H194.49ZM205.02 23.1199V29.6899H209.01V23.1199H205.02ZM197.31 8.68993V11.8399H212.85V14.8099H197.37V22.6099H201.33V17.9299H216.81V8.68993H197.31ZM197.37 21.0199V24.2299H217.44V21.0199H197.37Z" fill="black"/>
<path d="M235.407 12.4999V15.6499H242.547V12.4999H235.407ZM241.317 6.88993V21.0499H245.307V6.88993H241.317ZM226.947 22.0999V25.1899H241.347V26.7499H226.977V33.0499H230.937V29.5999H245.307V22.0999H226.947ZM226.977 31.2799V34.3699H246.087V31.2799H226.977ZM223.227 8.02993V20.2999H236.367V8.02993H232.467V11.2099H227.187V8.02993H223.227ZM227.187 14.2399H232.467V17.1799H227.187V14.2399Z" fill="black"/>
<path d="M264.348 20.7799V26.6299H268.368V20.7799H264.348ZM266.388 8.50993C262.038 8.50993 258.708 11.3599 258.708 15.3499C258.708 19.3399 262.038 22.1899 266.388 22.1899C270.768 22.1899 274.038 19.3399 274.038 15.3499C274.038 11.3599 270.768 8.50993 266.388 8.50993ZM266.388 11.9299C268.518 11.9299 270.138 13.1599 270.138 15.3499C270.138 17.5099 268.518 18.7999 266.388 18.7999C264.258 18.7999 262.638 17.5099 262.638 15.3499C262.638 13.1599 264.258 11.9299 266.388 11.9299ZM276.648 6.85993V34.7299H280.638V6.85993H276.648ZM258.048 29.1499C262.848 29.1499 269.388 29.0899 275.418 27.8899L275.118 25.0099C269.268 25.8799 262.458 25.9399 257.568 25.9399L258.048 29.1499Z" fill="black"/>
<path d="M291.556 8.14993V10.8199C291.556 14.3299 289.606 17.9299 284.926 19.4299L286.876 22.5799C292.306 20.8399 294.856 16.0699 294.856 10.8199V8.14993H291.556ZM292.366 8.14993V10.8199C292.366 15.9799 294.826 20.4199 300.136 22.0999L302.086 18.9799C297.556 17.5999 295.636 14.2399 295.636 10.8199V8.14993H292.366ZM289.186 24.6799V27.8599H304.126V34.6699H308.146V24.6799H289.186ZM304.126 6.88993V23.4499H308.146V6.88993H304.126Z" fill="black"/>
<path d="M312.643 20.5999V23.7799H337.783V20.5999H312.643ZM323.533 22.6099V28.4599H327.553V22.6099H323.533ZM315.733 8.05993V18.3799H334.603V8.05993H315.733ZM330.673 11.1799V15.2599H319.633V11.1799H330.673ZM315.553 31.0099V34.1899H335.023V31.0099H315.553ZM315.553 26.1199V32.0599H319.513V26.1199H315.553Z" fill="black"/>
<path d="M346.661 23.3299V27.8299H350.651V23.3299H346.661ZM358.331 6.88993V34.6699H362.351V6.88993H358.331ZM360.941 18.1699V21.4699H365.831V18.1699H360.941ZM340.421 30.0499C345.101 30.0499 351.401 30.0499 357.251 28.9099L356.951 26.0299C351.341 26.8099 344.741 26.8399 339.941 26.8399L340.421 30.0499ZM340.451 9.94993V13.0699H356.801V9.94993H340.451ZM348.671 14.1799C344.681 14.1799 341.891 16.2799 341.891 19.3699C341.891 22.4899 344.681 24.5899 348.671 24.5899C352.631 24.5899 355.451 22.4899 355.451 19.3699C355.451 16.2799 352.631 14.1799 348.671 14.1799ZM348.671 17.1799C350.471 17.1799 351.671 17.9599 351.671 19.3699C351.671 20.8099 350.471 21.5899 348.671 21.5899C346.841 21.5899 345.671 20.8099 345.671 19.3699C345.671 17.9599 346.841 17.1799 348.671 17.1799ZM346.661 7.03993V12.2899H350.651V7.03993H346.661Z" fill="black"/>
<path d="M367.839 19.3399V22.2499H393.009V19.3399H367.839ZM370.659 23.6299V26.3299H386.079V27.7099H370.719V32.5999H374.679V30.2299H390.009V23.6299H370.659ZM370.719 31.7599V34.4599H390.789V31.7599H370.719ZM370.929 7.36993V10.0399H386.019V11.4199H370.959V16.1899H374.919V13.9099H389.949V7.36993H370.929ZM370.959 15.3499V18.0499H390.459V15.3499H370.959Z" fill="black"/>
<path d="M421.109 6.88993V23.6299H425.099V6.88993H421.109ZM423.989 13.7299V16.9999H428.789V13.7299H423.989ZM407.039 24.8299V34.3699H425.099V24.8299H407.039ZM421.199 27.9799V31.2199H410.969V27.9799H421.199ZM403.229 9.37993V12.5299H419.579V9.37993H403.229ZM411.419 13.3399C407.369 13.3399 404.579 15.3799 404.579 18.3499C404.579 21.3499 407.369 23.3299 411.419 23.3299C415.439 23.3299 418.229 21.3499 418.229 18.3499C418.229 15.3799 415.439 13.3399 411.419 13.3399ZM411.419 16.3099C413.189 16.3099 414.419 16.9999 414.419 18.3499C414.419 19.6999 413.189 20.4199 411.419 20.4199C409.619 20.4199 408.419 19.6999 408.419 18.3499C408.419 16.9999 409.619 16.3099 411.419 16.3099ZM409.409 6.70993V11.0899H413.399V6.70993H409.409Z" fill="black"/>
<path d="M434.217 10.0399V10.3699C434.217 17.2399 433.647 22.0699 430.407 27.1699L433.467 28.8199C436.917 23.2999 437.577 17.0899 437.577 10.0399H434.217ZM431.307 10.0399V13.2499H436.347V10.0399H431.307ZM440.427 10.0399V10.3999C440.427 17.3299 440.127 22.9699 436.587 28.4899L439.647 30.1699C443.367 24.2299 443.787 17.2999 443.787 10.0399H440.427ZM438.417 10.0399V13.2499H442.677V10.0399H438.417ZM451.137 6.88993V34.6699H454.947V6.88993H451.137ZM442.437 17.2999V20.5099H446.367V17.2999H442.437ZM445.767 7.48993V33.4399H449.487V7.48993H445.767Z" fill="black"/>
<path d="M467.028 9.16993V22.5799H480.258V9.16993H467.028ZM476.328 12.3199V19.4299H470.958V12.3199H476.328ZM484.098 6.88993V27.1399H488.088V6.88993H484.098ZM486.948 14.8999V18.1699H491.778V14.8999H486.948ZM470.178 31.0099V34.1899H489.078V31.0099H470.178ZM470.178 25.1599V32.5999H474.168V25.1599H470.178Z" fill="black"/>
<path d="M493.845 17.6599V20.8099H518.985V17.6599H493.845ZM496.935 13.0399V16.1599H516.015V13.0399H496.935ZM496.935 7.39993V15.7399H500.895V10.5799H515.775V7.39993H496.935ZM496.695 22.3699V25.3699H511.965V26.8999H496.725V32.1199H500.655V29.7199H515.895V22.3699H496.695ZM496.725 31.3999V34.4599H516.615V31.3999H496.725Z" fill="black"/>
<path d="M529.033 8.80993C524.863 8.80993 521.863 12.6499 521.863 18.7099C521.863 24.8299 524.863 28.6699 529.033 28.6699C533.173 28.6699 536.203 24.8299 536.203 18.7099C536.203 12.6499 533.173 8.80993 529.033 8.80993ZM529.033 12.4399C531.073 12.4399 532.393 14.6299 532.393 18.7099C532.393 22.8499 531.073 25.0699 529.033 25.0699C527.023 25.0699 525.673 22.8499 525.673 18.7099C525.673 14.6299 527.023 12.4399 529.033 12.4399ZM540.763 6.85993V34.7299H544.723V6.85993H540.763ZM535.033 16.8799V20.0899H542.443V16.8799H535.033Z" fill="black"/>
<path d="M574.564 6.85993V34.6399H578.583V6.85993H574.564ZM577.534 17.4799V20.7499H582.424V17.4799H577.534ZM567.273 9.73993V10.4299C567.273 17.9599 563.824 23.0599 556.534 26.8399L558.754 29.8699C567.994 25.2199 571.174 18.0799 571.174 9.73993H567.273ZM558.064 9.73993V12.9499H569.314V9.73993H558.064Z" fill="black"/>
<path d="M603.481 6.88993V20.9299H607.501V6.88993H603.481ZM588.961 22.1599V25.1899H603.541V26.8099H589.021V32.4799H592.921V29.6899H607.501V22.1599H588.961ZM589.021 31.3999V34.4899H608.191V31.3999H589.021ZM590.911 7.51993V9.61993C590.911 13.0099 588.931 16.4899 584.281 17.8999L586.201 21.0499C591.631 19.3999 594.211 14.7499 594.211 9.61993V7.51993H590.911ZM591.721 7.51993V9.61993C591.721 14.6299 594.211 18.9799 599.551 20.5399L601.471 17.4499C596.941 16.1599 594.991 12.9199 594.991 9.61993V7.51993H591.721Z" fill="black"/>
<path d="M637.552 6.85993V34.6399H641.572V6.85993H637.552ZM640.522 17.4799V20.7499H645.412V17.4799H640.522ZM630.262 9.73993V10.4299C630.262 17.9599 626.812 23.0599 619.522 26.8399L621.742 29.8699C630.982 25.2199 634.162 18.0799 634.162 9.73993H630.262ZM621.052 9.73993V12.9499H632.302V9.73993H621.052Z" fill="black"/>
<path d="M667.279 6.91993V23.5699H671.059V6.91993H667.279ZM663.949 13.5199V16.7599H668.359V13.5199H663.949ZM661.399 7.42993V22.7299H665.119V7.42993H661.399ZM648.349 9.25993V21.5899H659.359V9.25993H648.349ZM655.639 12.2899V18.6199H652.069V12.2899H655.639ZM661.639 24.0499C655.819 24.0499 652.099 26.0599 652.099 29.3599C652.099 32.6599 655.819 34.6699 661.639 34.6699C667.459 34.6699 671.209 32.6599 671.209 29.3599C671.209 26.0599 667.459 24.0499 661.639 24.0499ZM661.639 27.0799C665.209 27.0799 667.189 27.8299 667.189 29.3599C667.189 30.8899 665.209 31.6399 661.639 31.6399C658.069 31.6399 656.059 30.8899 656.059 29.3599C656.059 27.8299 658.069 27.0799 661.639 27.0799Z" fill="black"/>
<path d="M690.017 13.2799V16.5199H695.297V13.2799H690.017ZM694.247 6.88993V22.9399H698.237V6.88993H694.247ZM679.727 24.0799V34.3699H698.237V24.0799H679.727ZM694.337 27.1999V31.2199H683.657V27.1999H694.337ZM681.407 9.46993V11.2099C681.407 14.7199 679.427 18.3499 674.837 19.8499L676.847 22.9999C682.187 21.2599 684.647 16.4599 684.647 11.2099V9.46993H681.407ZM682.247 9.46993V11.2099C682.247 16.1599 684.617 20.7799 689.777 22.4899L691.727 19.3399C687.347 17.8699 685.457 14.4499 685.457 11.2099V9.46993H682.247ZM675.917 8.29993V11.4499H690.857V8.29993H675.917Z" fill="black"/>
<path d="M712.875 9.97993V10.7899C712.875 13.6399 709.935 16.7599 703.815 17.5099L705.285 20.6299C712.335 19.6699 716.325 15.6799 716.325 10.7899V9.97993H712.875ZM714.015 9.97993V10.7899C714.015 15.6799 718.005 19.6699 725.085 20.6299L726.525 17.5099C720.405 16.7599 717.465 13.6399 717.465 10.7899V9.97993H714.015ZM713.085 24.4999V34.6999H717.045V24.4999H713.085ZM702.615 22.2199V25.3999H727.725V22.2199H702.615ZM704.835 8.29993V11.4499H725.445V8.29993H704.835Z" fill="black"/>
<path d="M749.262 6.88993V22.4599H753.282V6.88993H749.262ZM731.772 8.47993V19.9399H735.732V8.47993H731.772ZM731.772 17.8399V21.1399H734.172C739.152 21.1399 743.262 20.8399 747.492 19.9099L747.012 16.6999C742.932 17.5699 739.002 17.8399 734.172 17.8399H731.772ZM734.802 23.6299V34.3699H753.282V23.6299H734.802ZM749.352 26.7499V31.2199H738.702V26.7499H749.352Z" fill="black"/>
<path d="M770.35 7.27993C763.99 7.27993 760.3 8.95993 760.3 12.0199C760.3 15.0799 763.99 16.7599 770.35 16.7599C776.68 16.7599 780.4 15.0799 780.4 12.0199C780.4 8.95993 776.68 7.27993 770.35 7.27993ZM770.35 10.1899C774.37 10.1899 776.26 10.7899 776.26 12.0199C776.26 13.3099 774.37 13.8499 770.35 13.8499C766.33 13.8499 764.44 13.3099 764.44 12.0199C764.44 10.7899 766.33 10.1899 770.35 10.1899ZM757.78 18.0499V21.1999H782.89V18.0499H757.78ZM760.66 22.7599V25.7299H775.93V27.1399H760.69V32.3599H764.62V29.8999H779.86V22.7599H760.66ZM760.69 31.4899V34.4899H780.58V31.4899H760.69Z" fill="black"/>
<path d="M793.201 28.2199V31.4599H818.341V28.2199H793.201ZM803.731 22.0699V28.9699H807.721V22.0699H803.731ZM795.811 8.92993V22.5799H815.581V8.92993H795.811ZM811.681 12.1099V19.4299H799.741V12.1099H811.681Z" fill="black"/>
<path d="M827.518 9.28993V10.9999C827.518 14.2699 825.508 17.6299 820.858 18.9799L822.868 22.0999C828.208 20.4799 830.788 15.9799 830.788 10.9999V9.28993H827.518ZM828.328 9.28993V10.9999C828.328 15.7999 830.908 20.0899 836.158 21.6199L838.108 18.5299C833.608 17.2399 831.598 14.0899 831.598 10.9999V9.28993H828.328ZM821.938 8.38993V11.5399H837.058V8.38993H821.938ZM839.848 6.88993V21.9499H843.868V6.88993H839.848ZM825.388 23.1499V34.3699H843.868V23.1499H839.908V25.6699H829.318V23.1499H825.388ZM829.318 28.7599H839.908V31.1899H829.318V28.7599Z" fill="black"/>
<path d="M866.246 6.88993V23.1499H870.236V6.88993H866.246ZM868.646 13.5499V16.8499H873.926V13.5499H868.646ZM852.176 24.2299V34.3699H870.236V24.2299H866.276V26.3299H856.106V24.2299H852.176ZM856.106 29.3299H866.276V31.2499H856.106V29.3299ZM848.366 9.28993V12.4399H864.716V9.28993H848.366ZM856.556 13.1899C852.506 13.1899 849.716 15.1699 849.716 18.1099C849.716 21.0499 852.506 23.0299 856.556 23.0299C860.576 23.0299 863.366 21.0499 863.366 18.1099C863.366 15.1699 860.576 13.1899 856.556 13.1899ZM856.556 16.0999C858.326 16.0999 859.556 16.8199 859.556 18.1099C859.556 19.4299 858.326 20.1199 856.556 20.1199C854.756 20.1199 853.556 19.4299 853.556 18.1099C853.556 16.8199 854.756 16.0999 856.556 16.0999ZM854.546 6.67993V11.0599H858.536V6.67993H854.546Z" fill="black"/>
<path d="M895.194 6.88993V34.6699H899.184V6.88993H895.194ZM877.434 9.52993V26.7799H881.394V9.52993H877.434ZM877.434 24.4399V27.8299H879.894C884.124 27.8299 888.714 27.5299 893.484 26.5399L893.034 23.2399C888.444 24.1399 883.944 24.4399 879.894 24.4399H877.434Z" fill="black"/>
<path d="M921.321 6.85993V34.7299H925.341V6.85993H921.321ZM924.441 17.1499V20.4199H929.361V17.1499H924.441ZM904.641 24.7399V28.0399H906.981C911.811 28.0399 915.621 27.9199 919.821 27.1699L919.431 23.8699C915.351 24.5899 911.661 24.7399 906.981 24.7399H904.641ZM904.641 9.43993V26.3299H908.601V12.6499H917.601V9.43993H904.641Z" fill="black"/>
<path d="M931.849 30.0799C931.849 29.2399 932.069 28.6499 932.509 28.3099C932.949 27.9499 933.489 27.7699 934.129 27.7699C934.769 27.7699 935.309 27.9399 935.749 28.2799C936.209 28.6199 936.439 29.2199 936.439 30.0799C936.439 30.8999 936.209 31.4899 935.749 31.8499C935.309 32.2099 934.769 32.3899 934.129 32.3899C933.489 32.3899 932.949 32.2099 932.509 31.8499C932.069 31.4899 931.849 30.8999 931.849 30.0799Z" fill="black"/>
</svg>
