<svg width="174" height="174" viewBox="0 0 174 174" fill="none" xmlns="http://www.w3.org/2000/svg">
<path d="M86.7954 173.425C134.731 173.425 173.591 134.602 173.591 86.7122C173.591 38.8224 134.731 0 86.7954 0C38.8596 0 0 38.8224 0 86.7122C0 134.602 38.8596 173.425 86.7954 173.425Z" fill="white"/>
<path d="M66.9319 54.8867C66.8074 54.8867 66.683 54.8712 66.5585 54.8401L57.0235 52.1828C56.3547 52.2605 55.748 52.3071 55.1414 52.3071C46.8352 52.3071 40.0688 47.008 40.0688 40.5124C40.0688 34.0167 46.8352 28.7177 55.1414 28.7177C63.4476 28.7177 70.2139 34.0167 70.2139 40.5124C70.2139 43.6514 68.5962 46.6351 65.7341 48.8573L68.0985 52.8199C68.3785 53.3016 68.3474 53.9077 68.0052 54.3584C67.7407 54.7002 67.3363 54.9022 66.9163 54.9022L66.9319 54.8867ZM57.1168 49.4322C57.2568 49.4322 57.4124 49.4322 57.5213 49.4788L64.0076 51.2815L62.7476 49.1681C62.3743 48.5309 62.561 47.7073 63.1832 47.3188C65.9208 45.5784 67.4763 43.092 67.4763 40.5279C67.4763 35.5396 61.9388 31.4682 55.1414 31.4682C48.344 31.4682 42.8065 35.5241 42.8065 40.5279C42.8065 45.5317 48.344 49.5876 55.1414 49.5876C55.7325 49.5876 56.2924 49.5254 56.868 49.4633C56.9302 49.4633 57.0235 49.4633 57.1168 49.4633V49.4322Z" fill="#EB322A" stroke="#EB322A" stroke-miterlimit="10"/>
<path d="M51.0661 69.2299L34.0026 119.952C33.8004 120.496 33.8782 121.117 34.2204 121.599C34.5626 122.081 35.107 122.361 35.6981 122.361H44.9376C44.9376 122.609 44.922 122.858 44.922 123.107V133.938C44.922 134.932 45.7309 135.74 46.7264 135.74C47.7219 135.74 48.5307 134.932 48.5307 133.938V123.107C48.5307 117.838 52.8238 113.534 58.1124 113.534H68.8763C74.1494 113.534 78.458 117.823 78.458 123.107V133.938C78.458 134.932 79.2669 135.74 80.2624 135.74C81.2579 135.74 82.0667 134.932 82.0667 133.938V123.107C82.0667 122.858 82.0667 122.609 82.0512 122.361H90.1241C90.1241 122.609 90.1085 122.858 90.1085 123.107V133.938C90.1085 134.932 90.9174 135.74 91.9129 135.74C92.9084 135.74 93.7172 134.932 93.7172 133.938V123.107C93.7172 117.838 98.0103 113.534 103.299 113.534H114.063C119.336 113.534 123.645 117.823 123.645 123.107V133.938C123.645 134.932 124.453 135.74 125.449 135.74C126.444 135.74 127.253 134.932 127.253 133.938V123.107C127.253 122.858 127.253 122.609 127.238 122.361H138.033C138.624 122.361 139.168 122.081 139.51 121.599C139.853 121.117 139.93 120.511 139.728 119.952C139.728 119.952 121.762 69.9292 121.109 69.2299C120.456 68.5306 117.967 68.6549 105.212 68.6549V60.7918C105.212 55.6325 101.712 51.2659 96.9682 49.9294C98.8347 48.0336 99.9858 45.4229 99.9858 42.548C99.9858 36.7361 95.2416 31.9965 89.4241 31.9965C83.6066 31.9965 78.8624 36.7361 78.8624 42.548C78.8624 45.4229 80.0135 48.018 81.8801 49.9294C77.1359 51.2659 73.6361 55.6325 73.6361 60.7918L73.6049 69.5096L83.0778 68.6549C83.0778 68.6549 72.3761 68.8725 63.2766 68.8725C57.4125 68.8725 51.3772 68.5772 51.1595 69.2299H51.0661ZM89.3152 35.6173C93.1572 35.6173 96.2682 38.7408 96.2682 42.5636C96.2682 46.3864 93.1417 49.5098 89.3152 49.5098C85.4888 49.5098 82.3623 46.3864 82.3623 42.5636C82.3623 38.7408 85.4888 35.6173 89.3152 35.6173ZM77.1359 60.8073C77.1359 56.5649 80.589 53.1151 84.8355 53.1151H93.8105C98.057 53.1151 101.51 56.5649 101.51 60.8073V68.6705H77.1359V60.8073ZM108.603 109.96C103.812 109.96 99.908 106.059 99.908 101.273C99.908 96.4868 103.812 92.5863 108.603 92.5863C113.394 92.5863 117.298 96.4868 117.298 101.273C117.298 106.059 113.394 109.96 108.603 109.96ZM108.603 88.9966C101.821 88.9966 96.3149 94.5132 96.3149 101.273C96.3149 102.174 96.4237 103.06 96.6104 103.915H75.4871C75.6737 103.06 75.7826 102.174 75.7826 101.273C75.7826 94.4977 70.2607 88.9966 63.4944 88.9966C63.4477 88.9966 63.4166 88.9966 63.3699 88.9966L66.092 79.1132H106.037L108.759 88.9966C108.759 88.9966 108.681 88.9966 108.634 88.9966H108.603ZM61.27 92.8815C61.27 92.8815 61.3323 92.866 61.3789 92.8504C62.0478 92.6795 62.7477 92.5863 63.4788 92.5863C68.2697 92.5863 72.1739 96.4868 72.1739 101.273C72.1739 106.059 68.2697 109.96 63.4788 109.96C58.688 109.96 54.7837 106.059 54.7837 101.273C54.7837 97.2482 57.5525 93.845 61.27 92.866V92.8815ZM90.7929 118.786H81.289C79.8113 114.56 76.2337 111.327 71.8006 110.302C72.6717 109.494 73.4338 108.561 74.056 107.52H98.0259C98.6325 108.546 99.3947 109.494 100.281 110.302C95.8638 111.312 92.2862 114.56 90.7929 118.786V118.786ZM126.413 118.786C124.936 114.56 121.358 111.327 116.925 110.302C119.367 108.048 120.891 104.847 120.891 101.273C120.891 95.9118 117.438 91.3586 112.647 89.6803L109.116 76.8444C108.899 76.0674 108.199 75.5235 107.374 75.5235H64.6921C63.8832 75.5235 63.1677 76.0674 62.95 76.8444L59.419 89.6803C54.6282 91.3586 51.175 95.9118 51.175 101.273C51.175 104.832 52.6994 108.048 55.1415 110.302C50.7239 111.312 47.1463 114.56 45.6531 118.786H38.2646L54.0215 71.6541H118.045L135.357 118.786H126.413V118.786Z" fill="#EB322A" stroke="#EB322A" stroke-miterlimit="10"/>
</svg>
