<svg width="776" height="198" viewBox="0 0 776 198" fill="none" xmlns="http://www.w3.org/2000/svg">
<path d="M121.537 36.9501C119.77 36.9501 118.087 36.7501 116.487 36.3501C114.887 35.9168 113.487 35.2668 112.287 34.4001C111.087 33.5001 110.12 32.3834 109.387 31.0501C108.687 29.7168 108.337 28.1501 108.337 26.3501V23.4501C108.337 22.2168 108.67 21.0834 109.337 20.0501C108.103 20.0501 107.17 19.7001 106.537 19.0001C105.903 18.2668 105.587 17.4501 105.587 16.5501C105.587 15.6501 105.887 14.8168 106.487 14.0501C107.12 13.2501 108.053 12.8501 109.287 12.8501H116.537C116.57 11.4168 117.037 10.3168 117.937 9.5501C118.837 8.7501 120.037 8.3501 121.537 8.3501C123.037 8.3501 124.237 8.7501 125.137 9.5501C126.037 10.3501 126.52 11.4501 126.587 12.8501H133.787C135.053 12.8501 135.97 13.2501 136.537 14.0501C137.137 14.8168 137.437 15.6501 137.437 16.5501C137.437 17.4501 137.153 18.2668 136.587 19.0001C136.02 19.7001 135.103 20.0501 133.837 20.0501H133.687C134.387 21.1168 134.737 22.2501 134.737 23.4501V26.3501C134.737 28.1501 134.37 29.7168 133.637 31.0501C132.937 32.3834 131.987 33.5001 130.787 34.4001C129.587 35.2668 128.187 35.9168 126.587 36.3501C124.987 36.7501 123.303 36.9501 121.537 36.9501ZM135.237 42.2501C137.103 42.1834 138.987 42.3834 140.887 42.8501C142.82 43.3168 144.603 44.0834 146.237 45.1501C147.87 46.2168 149.253 47.6334 150.387 49.4001C151.52 51.1334 152.253 53.2668 152.587 55.8001H142.337C142.07 54.7334 141.603 53.7834 140.937 52.9501C140.303 52.1168 139.52 51.4334 138.587 50.9001C137.653 50.3334 136.603 49.9334 135.437 49.7001C134.27 49.4668 133.037 49.4168 131.737 49.5501C130.57 50.7168 129.203 51.7334 127.637 52.6001C126.103 53.5001 124.47 54.2334 122.737 54.8001C121.037 55.4001 119.303 55.8168 117.537 56.0501C115.803 56.3168 114.17 56.3668 112.637 56.2001C112.037 56.1334 111.47 55.9668 110.937 55.7001C110.437 55.4668 109.987 55.1501 109.587 54.7501C109.22 54.3501 108.92 53.8834 108.687 53.3501C108.487 52.8501 108.403 52.3001 108.437 51.7001C108.503 50.5334 108.887 49.6168 109.587 48.9501C110.32 48.2501 111.17 47.8834 112.137 47.8501C112.437 47.8501 112.77 47.8501 113.137 47.8501C113.537 47.8501 113.887 47.8334 114.187 47.8001C115.32 47.7001 116.437 47.5168 117.537 47.2501C118.67 46.9501 119.72 46.5668 120.687 46.1001C121.653 45.6001 122.52 45.0001 123.287 44.3001C124.053 43.6001 124.637 42.7668 125.037 41.8001C125.703 40.2001 126.487 39.1001 127.387 38.5001C128.287 37.9001 129.403 37.6501 130.737 37.7501C132.07 37.8168 133.153 38.2001 133.987 38.9001C134.82 39.5668 135.237 40.6501 135.237 42.1501V42.2501ZM140.487 13.8001C140.487 12.1668 140.97 10.9334 141.937 10.1001C142.937 9.26676 144.103 8.8501 145.437 8.8501C146.737 8.8501 147.887 9.28343 148.887 10.1501C149.887 10.9834 150.387 12.2001 150.387 13.8001V19.9501H151.937C152.703 19.9501 153.337 20.0834 153.837 20.3501C154.337 20.6168 154.737 20.9501 155.037 21.3501C155.337 21.7501 155.553 22.2168 155.687 22.7501C155.82 23.2501 155.887 23.7501 155.887 24.2501C155.887 24.7501 155.82 25.2668 155.687 25.8001C155.553 26.3001 155.337 26.7668 155.037 27.2001C154.737 27.6001 154.32 27.9334 153.787 28.2001C153.287 28.4334 152.67 28.5501 151.937 28.5501H150.387V39.7001H140.487V13.8001ZM121.537 29.8001C122.57 29.8001 123.503 29.4834 124.337 28.8501C125.203 28.2168 125.637 27.2834 125.637 26.0501V23.4501C125.637 22.2168 125.203 21.2834 124.337 20.6501C123.503 20.0168 122.57 19.7001 121.537 19.7001C120.503 19.7001 119.553 20.0168 118.687 20.6501C117.853 21.2834 117.437 22.2168 117.437 23.4501V26.0501C117.437 27.2834 117.853 28.2168 118.687 28.8501C119.553 29.4834 120.503 29.8001 121.537 29.8001Z" fill="#EB322A"/>
<path d="M193.837 10.4501C194.537 10.4501 195.137 10.5834 195.637 10.8501C196.137 11.1168 196.537 11.4501 196.837 11.8501C197.137 12.2501 197.353 12.7001 197.487 13.2001C197.62 13.7001 197.687 14.1834 197.687 14.6501C197.687 15.1168 197.62 15.6001 197.487 16.1001C197.353 16.6001 197.12 17.0501 196.787 17.4501C196.487 17.8501 196.087 18.1834 195.587 18.4501C195.12 18.6834 194.537 18.8001 193.837 18.8001H168.537C168.003 18.8001 167.637 18.9001 167.437 19.1001C167.237 19.2668 167.137 19.6168 167.137 20.1501V27.4001C167.137 27.9334 167.237 28.3001 167.437 28.5001C167.637 28.7001 168.003 28.8001 168.537 28.8001H194.637C195.337 28.8001 195.937 28.9334 196.437 29.2001C196.937 29.4668 197.337 29.8001 197.637 30.2001C197.937 30.6001 198.153 31.0501 198.287 31.5501C198.453 32.0168 198.537 32.4834 198.537 32.9501C198.537 33.4168 198.453 33.9001 198.287 34.4001C198.153 34.9001 197.92 35.3501 197.587 35.7501C197.287 36.1501 196.887 36.4834 196.387 36.7501C195.92 36.9834 195.337 37.1001 194.637 37.1001H182.787V46.7001H196.887C197.653 46.7001 198.303 46.8168 198.837 47.0501C199.37 47.2834 199.803 47.6001 200.137 48.0001C200.47 48.3668 200.703 48.8001 200.837 49.3001C201.003 49.7668 201.087 50.2501 201.087 50.7501C201.087 51.7834 200.753 52.7168 200.087 53.5501C199.453 54.3834 198.387 54.8001 196.887 54.8001H158.487C156.987 54.8001 155.903 54.3834 155.237 53.5501C154.603 52.7168 154.287 51.7834 154.287 50.7501C154.287 50.2501 154.353 49.7668 154.487 49.3001C154.653 48.8001 154.903 48.3668 155.237 48.0001C155.57 47.6001 156.003 47.2834 156.537 47.0501C157.07 46.8168 157.72 46.7001 158.487 46.7001H172.587V37.1001H164.987C163.487 37.1001 162.22 36.9668 161.187 36.7001C160.153 36.4001 159.32 35.9501 158.687 35.3501C158.087 34.7168 157.637 33.9001 157.337 32.9001C157.07 31.9001 156.937 30.6668 156.937 29.2001V18.3501C156.937 16.9168 157.07 15.7001 157.337 14.7001C157.637 13.7001 158.087 12.8834 158.687 12.2501C159.32 11.6168 160.153 11.1668 161.187 10.9001C162.22 10.6001 163.487 10.4501 164.987 10.4501H193.837Z" fill="#EB322A"/>
<path d="M234.337 38.0501C235.103 36.3501 235.687 34.3334 236.087 32.0001C236.52 29.6334 236.737 26.7501 236.737 23.3501V20.2001C236.737 19.8334 236.62 19.5334 236.387 19.3001C236.187 19.0668 235.887 18.9501 235.487 18.9501H208.337C207.57 18.9501 206.903 18.8334 206.337 18.6001C205.803 18.3334 205.353 18.0001 204.987 17.6001C204.653 17.1668 204.387 16.7001 204.187 16.2001C204.02 15.6668 203.937 15.1501 203.937 14.6501C203.937 14.1501 204.02 13.6501 204.187 13.1501C204.353 12.6168 204.62 12.1501 204.987 11.7501C205.353 11.3501 205.803 11.0168 206.337 10.7501C206.903 10.4834 207.57 10.3501 208.337 10.3501H238.887C240.353 10.3501 241.57 10.5001 242.537 10.8001C243.537 11.0668 244.337 11.5001 244.937 12.1001C245.537 12.6668 245.953 13.4001 246.187 14.3001C246.453 15.2001 246.587 16.2668 246.587 17.5001V23.4001C246.587 27.4668 246.32 30.9668 245.787 33.9001C245.253 36.8334 244.503 39.2501 243.537 41.1501C243.203 41.8168 242.753 42.3834 242.187 42.8501C241.653 43.3168 241.053 43.6668 240.387 43.9001C239.72 44.1334 239.02 44.2501 238.287 44.2501C237.553 44.2501 236.853 44.1001 236.187 43.8001C235.087 43.3334 234.37 42.5501 234.037 41.4501C233.703 40.3501 233.803 39.2168 234.337 38.0501ZM244.787 46.3501C245.553 46.3501 246.203 46.4834 246.737 46.7501C247.303 46.9834 247.753 47.3001 248.087 47.7001C248.453 48.1001 248.703 48.5668 248.837 49.1001C249.003 49.6001 249.087 50.1001 249.087 50.6001C249.087 51.1334 249.003 51.6501 248.837 52.1501C248.67 52.6501 248.403 53.1001 248.037 53.5001C247.703 53.9001 247.27 54.2168 246.737 54.4501C246.203 54.6834 245.553 54.8001 244.787 54.8001H206.587C205.82 54.8001 205.17 54.6834 204.637 54.4501C204.103 54.2168 203.653 53.9001 203.287 53.5001C202.953 53.1001 202.703 52.6501 202.537 52.1501C202.37 51.6501 202.287 51.1334 202.287 50.6001C202.287 50.1001 202.353 49.6001 202.487 49.1001C202.653 48.5668 202.903 48.1001 203.237 47.7001C203.603 47.3001 204.053 46.9834 204.587 46.7501C205.153 46.4834 205.82 46.3501 206.587 46.3501H244.787Z" fill="#EB322A"/>
<path d="M259.937 55.8001C258.537 55.8001 257.37 55.6668 256.437 55.4001C255.503 55.1668 254.77 54.7668 254.237 54.2001C253.703 53.6334 253.32 52.9001 253.087 52.0001C252.887 51.0668 252.787 49.9168 252.787 48.5501V45.0001C252.787 43.3001 253.303 42.0668 254.337 41.3001C255.37 40.5334 256.587 40.1501 257.987 40.1501C259.387 40.1501 260.57 40.5334 261.537 41.3001C262.537 42.0668 263.037 43.3001 263.037 45.0001V46.8001C263.037 47.3668 263.12 47.7168 263.287 47.8501C263.453 47.9834 263.82 48.0501 264.387 48.0501H291.337C292.87 48.0501 293.953 48.4501 294.587 49.2501C295.22 50.0168 295.537 50.9001 295.537 51.9001C295.537 52.9334 295.203 53.8334 294.537 54.6001C293.903 55.4001 292.837 55.8001 291.337 55.8001H259.937ZM259.487 26.8501C258.087 26.8501 256.92 26.7334 255.987 26.5001C255.053 26.2334 254.32 25.8168 253.787 25.2501C253.253 24.6834 252.87 23.9501 252.637 23.0501C252.437 22.1168 252.337 20.9668 252.337 19.6001V14.1501C252.337 12.4501 252.837 11.2168 253.837 10.4501C254.87 9.68343 256.087 9.3001 257.487 9.3001C258.887 9.3001 260.07 9.68343 261.037 10.4501C262.037 11.2168 262.537 12.4501 262.537 14.1501V17.8501C262.537 18.4168 262.62 18.7668 262.787 18.9001C262.953 19.0334 263.32 19.1001 263.887 19.1001H291.037C292.57 19.1001 293.653 19.5001 294.287 20.3001C294.92 21.0668 295.237 21.9501 295.237 22.9501C295.237 23.9834 294.903 24.9001 294.237 25.7001C293.603 26.4668 292.537 26.8501 291.037 26.8501H259.487ZM292.887 29.8501C293.653 29.8501 294.303 29.9834 294.837 30.2501C295.37 30.4834 295.803 30.8001 296.137 31.2001C296.47 31.5668 296.703 32.0001 296.837 32.5001C297.003 33.0001 297.087 33.5001 297.087 34.0001C297.087 35.0334 296.753 35.9834 296.087 36.8501C295.453 37.6834 294.387 38.1001 292.887 38.1001H254.487C252.987 38.1001 251.903 37.6834 251.237 36.8501C250.603 35.9834 250.287 35.0334 250.287 34.0001C250.287 33.5001 250.353 33.0001 250.487 32.5001C250.653 32.0001 250.903 31.5668 251.237 31.2001C251.57 30.8001 252.003 30.4834 252.537 30.2501C253.07 29.9834 253.72 29.8501 254.487 29.8501H292.887Z" fill="#EB322A"/>
<path d="M355.95 21.4001C355.95 22.9001 355.7 24.3168 355.2 25.6501C354.7 26.9834 353.967 28.1668 353 29.2001C352.034 30.2001 350.834 31.0001 349.4 31.6001C348 32.2001 346.384 32.5001 344.55 32.5001H322.9C321.067 32.5001 319.434 32.2001 318 31.6001C316.6 31.0001 315.417 30.1834 314.45 29.1501C313.484 28.1168 312.75 26.9334 312.25 25.6001C311.75 24.2668 311.5 22.8501 311.5 21.3501V20.9501C311.5 19.4501 311.75 18.0334 312.25 16.7001C312.75 15.3668 313.484 14.1834 314.45 13.1501C315.417 12.1168 316.6 11.3001 318 10.7001C319.434 10.1001 321.067 9.8001 322.9 9.8001H344.55C346.384 9.8001 348 10.1001 349.4 10.7001C350.834 11.3001 352.034 12.1168 353 13.1501C353.967 14.1834 354.7 15.3668 355.2 16.7001C355.7 18.0334 355.95 19.4501 355.95 20.9501V21.4001ZM317.9 49.9001C318.734 49.8334 319.434 49.4168 320 48.6501C320.6 47.8501 320.9 46.8168 320.9 45.5501V43.8501H314.5C313 43.8501 311.917 43.4334 311.25 42.6001C310.617 41.7668 310.3 40.8334 310.3 39.8001C310.3 39.3001 310.367 38.8168 310.5 38.3501C310.667 37.8501 310.917 37.4001 311.25 37.0001C311.584 36.6001 312.017 36.2834 312.55 36.0501C313.084 35.8168 313.734 35.7001 314.5 35.7001H352.9C353.667 35.7001 354.317 35.8168 354.85 36.0501C355.384 36.2834 355.817 36.6001 356.15 37.0001C356.484 37.4001 356.717 37.8501 356.85 38.3501C357.017 38.8168 357.1 39.3001 357.1 39.8001C357.1 40.8334 356.767 41.7668 356.1 42.6001C355.467 43.4334 354.4 43.8501 352.9 43.8501H348.8V56.0501H338.65V43.8501H330.65V45.5501C330.65 47.4501 330.35 49.1168 329.75 50.5501C329.184 51.9501 328.4 53.1168 327.4 54.0501C326.434 54.9834 325.3 55.6834 324 56.1501C322.734 56.6501 321.384 56.9168 319.95 56.9501C319.35 56.9501 318.717 56.8834 318.05 56.7501C317.417 56.6168 316.817 56.4001 316.25 56.1001C315.717 55.8001 315.284 55.4001 314.95 54.9001C314.617 54.4001 314.467 53.7834 314.5 53.0501C314.567 52.1168 314.9 51.3834 315.5 50.8501C316.1 50.2834 316.9 49.9668 317.9 49.9001ZM345.6 20.9001C345.6 20.0001 345.267 19.2668 344.6 18.7001C343.967 18.1001 342.984 17.8001 341.65 17.8001H325.8C324.434 17.8001 323.434 18.1001 322.8 18.7001C322.167 19.2668 321.85 20.0001 321.85 20.9001V21.4501C321.85 22.3501 322.167 23.0834 322.8 23.6501C323.434 24.2168 324.434 24.5001 325.8 24.5001H341.65C342.984 24.5001 343.967 24.2168 344.6 23.6501C345.267 23.0834 345.6 22.3501 345.6 21.4501V20.9001Z" fill="#EB322A"/>
<path d="M371.25 55.9501C369.517 55.9501 368 55.7168 366.7 55.2501C365.434 54.8168 364.384 54.2001 363.55 53.4001C362.717 52.6001 362.1 51.6501 361.7 50.5501C361.3 49.4168 361.1 48.1834 361.1 46.8501C361.1 45.5168 361.3 44.3001 361.7 43.2001C362.1 42.0668 362.717 41.1001 363.55 40.3001C364.384 39.4668 365.434 38.8168 366.7 38.3501C368 37.8834 369.517 37.6501 371.25 37.6501H394.65C396.35 37.6501 397.834 37.8834 399.1 38.3501C400.4 38.7834 401.467 39.4168 402.3 40.2501C403.134 41.0501 403.75 42.0168 404.15 43.1501C404.584 44.2834 404.8 45.5168 404.8 46.8501C404.8 49.5834 403.967 51.7834 402.3 53.4501C400.634 55.1168 398.084 55.9501 394.65 55.9501H371.25ZM370.65 35.8501C369.15 35.8501 367.717 35.6501 366.35 35.2501C364.984 34.8501 363.784 34.2334 362.75 33.4001C361.75 32.5668 360.95 31.5334 360.35 30.3001C359.75 29.0668 359.45 27.6001 359.45 25.9001V22.4001C359.45 21.3668 359.65 20.4168 360.05 19.5501C359.15 19.3834 358.467 19.0001 358 18.4001C357.567 17.8001 357.35 17.1168 357.35 16.3501C357.35 15.4501 357.634 14.6501 358.2 13.9501C358.8 13.2501 359.717 12.9001 360.95 12.9001H366.15C366.15 11.4001 366.567 10.3001 367.4 9.6001C368.234 8.86676 369.317 8.5001 370.65 8.5001C371.95 8.5001 373.017 8.86676 373.85 9.6001C374.684 10.3001 375.117 11.4001 375.15 12.9001H380.25C381.517 12.9001 382.417 13.2501 382.95 13.9501C383.517 14.6501 383.8 15.4501 383.8 16.3501C383.8 17.1168 383.6 17.8001 383.2 18.4001C382.8 19.0001 382.15 19.3834 381.25 19.5501C381.417 19.9834 381.55 20.4334 381.65 20.9001C381.784 21.3668 381.85 21.8668 381.85 22.4001V25.9001C381.85 27.6001 381.55 29.0668 380.95 30.3001C380.35 31.5334 379.534 32.5668 378.5 33.4001C377.5 34.2334 376.317 34.8501 374.95 35.2501C373.584 35.6501 372.15 35.8501 370.65 35.8501ZM395.8 26.3001H393.7V36.1001H385V13.1001C385 11.7001 385.434 10.6501 386.3 9.9501C387.167 9.21676 388.184 8.8501 389.35 8.8501C390.484 8.8501 391.484 9.21676 392.35 9.9501C393.25 10.6501 393.7 11.7001 393.7 13.1001V18.6001H395.8V13.1001C395.8 11.7001 396.234 10.6501 397.1 9.9501C397.967 9.21676 398.984 8.8501 400.15 8.8501C401.284 8.8501 402.3 9.21676 403.2 9.9501C404.1 10.6501 404.55 11.7001 404.55 13.1001V36.1001H395.8V26.3001ZM391.95 49.2001C392.984 49.2001 393.684 48.9834 394.05 48.5501C394.45 48.0834 394.65 47.5168 394.65 46.8501C394.65 46.1834 394.45 45.6501 394.05 45.2501C393.684 44.8168 392.984 44.6001 391.95 44.6001H373.95C372.917 44.6001 372.2 44.8168 371.8 45.2501C371.434 45.6501 371.25 46.1834 371.25 46.8501C371.25 47.5168 371.434 48.0834 371.8 48.5501C372.2 48.9834 372.917 49.2001 373.95 49.2001H391.95ZM370.65 28.9001C371.317 28.9001 371.917 28.6834 372.45 28.2501C373.017 27.8168 373.3 27.0501 373.3 25.9501V22.3501C373.3 21.2501 373.017 20.4834 372.45 20.0501C371.917 19.6168 371.317 19.4001 370.65 19.4001C369.984 19.4001 369.367 19.6168 368.8 20.0501C368.267 20.4834 368 21.2501 368 22.3501V25.9501C368 27.0501 368.267 27.8168 368.8 28.2501C369.367 28.6834 369.984 28.9001 370.65 28.9001Z" fill="#EB322A"/>
<path d="M407.6 23.2001C407.6 21.0001 407.95 19.0668 408.65 17.4001C409.35 15.7001 410.317 14.2834 411.55 13.1501C412.817 11.9834 414.317 11.1168 416.05 10.5501C417.784 9.9501 419.7 9.6501 421.8 9.6501C423.9 9.6501 425.817 9.9501 427.55 10.5501C429.284 11.1168 430.784 11.9668 432.05 13.1001C433.317 14.2334 434.3 15.6501 435 17.3501C435.7 19.0501 436.05 21.0001 436.05 23.2001V41.3001C436.05 43.5001 435.7 45.4501 435 47.1501C434.3 48.8501 433.317 50.2668 432.05 51.4001C430.817 52.5334 429.317 53.3834 427.55 53.9501C425.817 54.5501 423.917 54.8501 421.85 54.8501C419.75 54.8501 417.834 54.5501 416.1 53.9501C414.367 53.3834 412.867 52.5334 411.6 51.4001C410.334 50.2668 409.35 48.8501 408.65 47.1501C407.95 45.4501 407.6 43.5001 407.6 41.3001V23.2001ZM417.5 41.5001C417.5 43.2001 417.9 44.4834 418.7 45.3501C419.534 46.1834 420.567 46.6001 421.8 46.6001C423.034 46.6001 424.067 46.1834 424.9 45.3501C425.734 44.4834 426.15 43.2001 426.15 41.5001V23.0001C426.15 21.3001 425.734 20.0168 424.9 19.1501C424.067 18.2834 423.034 17.8668 421.8 17.9001C420.567 17.9334 419.534 18.3834 418.7 19.2501C417.9 20.0834 417.5 21.3334 417.5 23.0001V41.5001ZM441.75 55.8001V13.8001C441.75 12.1668 442.25 10.9334 443.25 10.1001C444.25 9.26676 445.417 8.8501 446.75 8.8501C448.084 8.8501 449.25 9.26676 450.25 10.1001C451.25 10.9334 451.75 12.1668 451.75 13.8001V55.8001H441.75Z" fill="#EB322A"/>
<path d="M467.614 23.1001C467.614 20.9001 467.947 18.9668 468.614 17.3001C469.314 15.6001 470.264 14.1834 471.464 13.0501C472.697 11.9168 474.164 11.0668 475.864 10.5001C477.564 9.93343 479.447 9.6501 481.514 9.6501C483.547 9.6501 485.414 9.93343 487.114 10.5001C488.814 11.0668 490.281 11.9168 491.514 13.0501C492.747 14.1834 493.697 15.6001 494.364 17.3001C495.031 18.9668 495.364 20.9001 495.364 23.1001V41.4001C495.364 43.6001 495.031 45.5501 494.364 47.2501C493.697 48.9168 492.747 50.3168 491.514 51.4501C490.281 52.5834 488.814 53.4334 487.114 54.0001C485.414 54.5668 483.547 54.8501 481.514 54.8501C479.447 54.8501 477.564 54.5668 475.864 54.0001C474.164 53.4334 472.697 52.5834 471.464 51.4501C470.264 50.3168 469.314 48.9168 468.614 47.2501C467.947 45.5501 467.614 43.6001 467.614 41.4001V23.1001ZM500.414 13.7001C500.414 12.1001 500.914 10.9001 501.914 10.1001C502.914 9.26676 504.064 8.8501 505.364 8.8501C505.997 8.8501 506.614 8.96676 507.214 9.2001C507.814 9.4001 508.331 9.7001 508.764 10.1001C509.231 10.5001 509.597 11.0001 509.864 11.6001C510.164 12.2001 510.314 12.9001 510.314 13.7001V26.3501H511.964C512.731 26.3501 513.364 26.4834 513.864 26.7501C514.364 27.0168 514.764 27.3668 515.064 27.8001C515.364 28.2001 515.581 28.6668 515.714 29.2001C515.847 29.7001 515.914 30.2001 515.914 30.7001C515.914 31.2001 515.847 31.7168 515.714 32.2501C515.581 32.7501 515.364 33.2168 515.064 33.6501C514.764 34.0501 514.347 34.3834 513.814 34.6501C513.314 34.9168 512.697 35.0501 511.964 35.0501H510.314V55.8001H500.414V13.7001ZM477.414 41.6501C477.414 43.3501 477.797 44.6168 478.564 45.4501C479.331 46.2501 480.314 46.6501 481.514 46.6501C482.714 46.6501 483.697 46.2501 484.464 45.4501C485.231 44.6168 485.614 43.3501 485.614 41.6501V22.8501C485.614 21.1501 485.231 19.9001 484.464 19.1001C483.697 18.2668 482.714 17.8501 481.514 17.8501C480.314 17.8501 479.331 18.2668 478.564 19.1001C477.797 19.9001 477.414 21.1501 477.414 22.8501V41.6501Z" fill="#EB322A"/>
<path d="M524.814 55.8001C523.414 55.8001 522.247 55.6668 521.314 55.4001C520.414 55.1334 519.697 54.7168 519.164 54.1501C518.631 53.5834 518.247 52.8334 518.014 51.9001C517.814 50.9668 517.714 49.8334 517.714 48.5001V40.0001C517.714 38.3001 518.197 37.0834 519.164 36.3501C520.164 35.5834 521.364 35.2001 522.764 35.2001C524.064 35.2001 525.164 35.5334 526.064 36.2001C526.997 36.8668 527.531 37.9334 527.664 39.4001H550.014C550.147 37.9001 550.681 36.8334 551.614 36.2001C552.581 35.5334 553.731 35.2001 555.064 35.2001C556.464 35.2001 557.631 35.5834 558.564 36.3501C559.531 37.0834 560.014 38.3001 560.014 40.0001V55.8001H524.814ZM522.914 32.5501C520.514 32.5501 518.731 32.0668 517.564 31.1001C516.397 30.1001 515.814 28.3834 515.814 25.9501V14.9501C515.814 13.2501 516.281 12.0168 517.214 11.2501C518.181 10.4834 519.364 10.1001 520.764 10.1001C522.164 10.1001 523.331 10.4834 524.264 11.2501C525.197 12.0168 525.664 13.2501 525.664 14.9501V23.4001C525.664 23.9668 525.747 24.3334 525.914 24.5001C526.081 24.6334 526.447 24.7001 527.014 24.7001H541.364C542.897 24.7001 543.964 25.1001 544.564 25.9001C545.197 26.6668 545.514 27.5834 545.514 28.6501C545.514 29.7168 545.197 30.6334 544.564 31.4001C543.931 32.1668 542.864 32.5501 541.364 32.5501H522.914ZM549.664 13.8001C549.664 12.1668 550.164 10.9334 551.164 10.1001C552.197 9.26676 553.381 8.8501 554.714 8.8501C555.347 8.8501 555.964 8.96676 556.564 9.2001C557.197 9.4001 557.747 9.71677 558.214 10.1501C558.681 10.5501 559.047 11.0668 559.314 11.7001C559.614 12.3001 559.764 13.0001 559.764 13.8001V33.7001H549.664V13.8001ZM550.014 49.1001V45.8501H527.714V47.8501C527.714 48.4168 527.797 48.7668 527.964 48.9001C528.131 49.0334 528.497 49.1001 529.064 49.1001H550.014Z" fill="#EB322A"/>
<path d="M590.764 44.8501C591.497 44.8501 592.097 44.9834 592.564 45.2501C593.064 45.4834 593.447 45.8001 593.714 46.2001C594.014 46.6001 594.214 47.0501 594.314 47.5501C594.447 48.0501 594.514 48.5334 594.514 49.0001C594.514 49.5001 594.447 50.0001 594.314 50.5001C594.214 51.0001 594.014 51.4668 593.714 51.9001C593.414 52.3001 593.014 52.6334 592.514 52.9001C592.047 53.1668 591.464 53.3001 590.764 53.3001H571.564C570.064 53.3001 568.814 53.1501 567.814 52.8501C566.847 52.5834 566.064 52.1501 565.464 51.5501C564.897 50.9168 564.497 50.1168 564.264 49.1501C564.031 48.1501 563.914 46.9334 563.914 45.5001V15.7001C563.914 14.8668 564.047 14.1501 564.314 13.5501C564.614 12.9168 564.997 12.4001 565.464 12.0001C565.931 11.6001 566.464 11.3168 567.064 11.1501C567.697 10.9501 568.347 10.8501 569.014 10.8501C570.414 10.8501 571.581 11.2501 572.514 12.0501C573.481 12.8168 573.964 14.0334 573.964 15.7001V43.4501C573.964 44.0168 574.064 44.4001 574.264 44.6001C574.464 44.7668 574.847 44.8501 575.414 44.8501H590.764ZM597.764 55.8001V13.8001C597.764 12.1668 598.264 10.9334 599.264 10.1001C600.264 9.26676 601.431 8.8501 602.764 8.8501C604.097 8.8501 605.264 9.26676 606.264 10.1001C607.264 10.9334 607.764 12.1668 607.764 13.8001V55.8001H597.764Z" fill="#EB322A"/>
<path d="M619.564 53.8001C617.931 53.8001 616.614 53.6834 615.614 53.4501C614.614 53.2168 613.831 52.8001 613.264 52.2001C612.731 51.6334 612.364 50.8501 612.164 49.8501C611.964 48.8501 611.864 47.5668 611.864 46.0001V18.3501C611.864 16.7834 611.964 15.5001 612.164 14.5001C612.364 13.5001 612.731 12.7168 613.264 12.1501C613.831 11.5501 614.614 11.1501 615.614 10.9501C616.614 10.7168 617.931 10.6001 619.564 10.6001H635.464C636.197 10.6001 636.797 10.7334 637.264 11.0001C637.764 11.2668 638.147 11.6001 638.414 12.0001C638.714 12.4001 638.914 12.8501 639.014 13.3501C639.147 13.8501 639.214 14.3334 639.214 14.8001C639.214 15.3001 639.147 15.8001 639.014 16.3001C638.914 16.8001 638.714 17.2501 638.414 17.6501C638.114 18.0501 637.714 18.3834 637.214 18.6501C636.747 18.9168 636.164 19.0501 635.464 19.0501H623.014C622.547 19.0501 622.214 19.1501 622.014 19.3501C621.814 19.5501 621.714 19.9334 621.714 20.5001V44.0001C621.714 44.5668 621.814 44.9501 622.014 45.1501C622.214 45.3501 622.547 45.4501 623.014 45.4501H637.764C638.497 45.4501 639.097 45.5834 639.564 45.8501C640.064 46.1168 640.447 46.4501 640.714 46.8501C641.014 47.2501 641.214 47.7001 641.314 48.2001C641.447 48.7001 641.514 49.1834 641.514 49.6501C641.514 50.1501 641.447 50.6501 641.314 51.1501C641.214 51.6168 641.014 52.0501 640.714 52.4501C640.414 52.8501 640.014 53.1668 639.514 53.4001C639.047 53.6668 638.464 53.8001 637.764 53.8001H619.564ZM644.414 13.7001C644.414 12.1001 644.914 10.9001 645.914 10.1001C646.914 9.26676 648.064 8.8501 649.364 8.8501C649.997 8.8501 650.614 8.96676 651.214 9.2001C651.814 9.4001 652.331 9.7001 652.764 10.1001C653.231 10.5001 653.597 11.0001 653.864 11.6001C654.164 12.2001 654.314 12.9001 654.314 13.7001V26.3501H655.964C656.731 26.3501 657.364 26.4834 657.864 26.7501C658.364 27.0168 658.764 27.3668 659.064 27.8001C659.364 28.2001 659.581 28.6668 659.714 29.2001C659.847 29.7001 659.914 30.2001 659.914 30.7001C659.914 31.2001 659.847 31.7168 659.714 32.2501C659.581 32.7501 659.364 33.2168 659.064 33.6501C658.764 34.0501 658.347 34.3834 657.814 34.6501C657.314 34.9168 656.697 35.0501 655.964 35.0501H654.314V55.8001H644.414V13.7001Z" fill="#EB322A"/>
<path d="M658.664 48.0001C658.664 46.4334 659.131 45.2001 660.064 44.3001C660.997 43.4001 662.314 42.9501 664.014 42.9501C665.714 42.9501 667.031 43.4168 667.964 44.3501C668.897 45.2501 669.364 46.4668 669.364 48.0001C669.364 49.5334 668.897 50.7668 667.964 51.7001C667.031 52.6001 665.714 53.0501 664.014 53.0501C662.314 53.0501 660.997 52.6001 660.064 51.7001C659.131 50.8001 658.664 49.5668 658.664 48.0001Z" fill="#EB322A"/>
<path d="M2.01449 111.7C3.31449 110.533 4.38115 109.233 5.21449 107.8C6.08115 106.333 6.76449 104.617 7.26449 102.65C7.76449 100.65 8.11449 98.3168 8.31449 95.6501C8.51449 92.9501 8.61449 89.7668 8.61449 86.1001V81.0501C8.61449 79.4501 9.06449 78.2668 9.96449 77.5001C10.8645 76.7334 11.9645 76.3501 13.2645 76.3501C14.5312 76.3501 15.6312 76.7501 16.5645 77.5501C17.4978 78.3501 17.9645 79.5168 17.9645 81.0501V86.0501C17.9645 90.0501 17.7645 93.7001 17.3645 97.0001C18.8978 97.7334 20.2478 98.6834 21.4145 99.8501C22.6145 100.983 23.5978 102.433 24.3645 104.2C25.1312 105.933 25.6645 108.017 25.9645 110.45C26.2645 112.85 26.3145 115.683 26.1145 118.95H17.0145C17.4145 115.983 17.4645 113.5 17.1645 111.5C16.8978 109.5 16.3145 107.883 15.4145 106.65C14.5478 109.583 13.4812 112.017 12.2145 113.95C10.9478 115.883 9.54782 117.383 8.01449 118.45C7.54782 118.783 6.99782 119.05 6.36449 119.25C5.76449 119.45 5.14782 119.55 4.51449 119.55C3.88115 119.583 3.26449 119.483 2.66449 119.25C2.06449 119.05 1.54782 118.683 1.11449 118.15C0.714486 117.683 0.447819 117.167 0.314486 116.6C0.181152 116.033 0.147819 115.467 0.214486 114.9C0.314486 114.3 0.514486 113.733 0.814486 113.2C1.11449 112.633 1.51449 112.133 2.01449 111.7ZM28.1145 97.4501H24.0145C23.2478 97.4501 22.5978 97.3334 22.0645 97.1001C21.5645 96.8334 21.1312 96.5001 20.7645 96.1001C20.4312 95.6668 20.1812 95.2001 20.0145 94.7001C19.8812 94.1668 19.8145 93.6501 19.8145 93.1501C19.8145 92.6501 19.8812 92.1501 20.0145 91.6501C20.1812 91.1168 20.4312 90.6501 20.7645 90.2501C21.0978 89.8501 21.5312 89.5168 22.0645 89.2501C22.5978 88.9834 23.2478 88.8501 24.0145 88.8501H28.1145V79.1001C28.1145 77.7001 28.5312 76.6501 29.3645 75.9501C30.1978 75.2168 31.1978 74.8501 32.3645 74.8501C33.4978 74.8501 34.4978 75.2168 35.3645 75.9501C36.2645 76.6501 36.7145 77.7001 36.7145 79.1001V121.8H28.1145V97.4501ZM39.0645 79.1001C39.0645 77.7001 39.5145 76.6501 40.4145 75.9501C41.3145 75.2168 42.3478 74.8501 43.5145 74.8501C44.0812 74.8501 44.6312 74.9501 45.1645 75.1501C45.6978 75.3168 46.1645 75.5834 46.5645 75.9501C46.9978 76.3168 47.3312 76.7668 47.5645 77.3001C47.8312 77.8001 47.9645 78.4001 47.9645 79.1001V121.8H39.0645V79.1001Z" fill="#EB322A"/>
<path d="M53.4145 112C54.8478 111.8 56.1478 111.45 57.3145 110.95C58.5145 110.45 59.5312 109.683 60.3645 108.65C61.2312 107.617 61.8812 106.25 62.3145 104.55C62.7812 102.85 63.0145 100.7 63.0145 98.1001V86.4001C63.0145 85.9334 62.9145 85.6168 62.7145 85.4501C62.5145 85.2501 62.1978 85.1501 61.7645 85.1501H54.3145C53.5478 85.1501 52.8978 85.0334 52.3645 84.8001C51.8645 84.5334 51.4312 84.2001 51.0645 83.8001C50.7312 83.4001 50.4812 82.9501 50.3145 82.4501C50.1812 81.9501 50.1145 81.4501 50.1145 80.9501C50.1145 80.4501 50.1812 79.9501 50.3145 79.4501C50.4812 78.9501 50.7312 78.5001 51.0645 78.1001C51.3978 77.7001 51.8312 77.3834 52.3645 77.1501C52.8978 76.8834 53.5478 76.7501 54.3145 76.7501H64.6645C66.0645 76.7501 67.2478 76.8668 68.2145 77.1001C69.1812 77.3334 69.9478 77.7168 70.5145 78.2501C71.0812 78.7834 71.4812 79.4834 71.7145 80.3501C71.9812 81.2168 72.1145 82.2834 72.1145 83.5501V85.5001H76.0645V79.1001C76.0645 77.7001 76.4812 76.6501 77.3145 75.9501C78.1478 75.2168 79.1478 74.8501 80.3145 74.8501C81.4478 74.8501 82.4645 75.2168 83.3645 75.9501C84.2645 76.6501 84.7145 77.7001 84.7145 79.1001V121.8H76.0645V110H72.7645C71.7645 110 70.9478 109.8 70.3145 109.4C69.6145 111.267 68.7145 112.867 67.6145 114.2C66.5478 115.5 65.3312 116.583 63.9645 117.45C62.6312 118.317 61.1812 118.967 59.6145 119.4C58.0478 119.833 56.4312 120.117 54.7645 120.25C53.4312 120.35 52.2478 120.083 51.2145 119.45C50.2145 118.85 49.6812 117.85 49.6145 116.45C49.5478 115.283 49.8145 114.3 50.4145 113.5C51.0478 112.7 52.0478 112.2 53.4145 112ZM87.1645 79.1001C87.1645 77.7001 87.5978 76.6501 88.4645 75.9501C89.3645 75.2168 90.3978 74.8501 91.5645 74.8501C92.6978 74.8501 93.7145 75.2168 94.6145 75.9501C95.5145 76.6501 95.9645 77.7001 95.9645 79.1001V121.8H87.1645V79.1001ZM72.1145 98.2001C72.1145 99.4668 72.0645 100.65 71.9645 101.75C72.0978 101.75 72.2145 101.75 72.3145 101.75C72.4478 101.717 72.5978 101.7 72.7645 101.7H76.0645V93.8001H72.1145V98.2001Z" fill="#EB322A"/>
<path d="M108.714 121.8C107.314 121.8 106.148 121.667 105.214 121.4C104.314 121.133 103.598 120.717 103.064 120.15C102.531 119.583 102.148 118.833 101.914 117.9C101.714 116.967 101.614 115.833 101.614 114.5V109.4C101.614 107.7 102.114 106.45 103.114 105.65C104.148 104.85 105.364 104.45 106.764 104.45C108.164 104.45 109.348 104.85 110.314 105.65C111.281 106.45 111.764 107.7 111.764 109.4V112.8C111.764 113.367 111.848 113.717 112.014 113.85C112.181 113.983 112.548 114.05 113.114 114.05H140.264C141.798 114.05 142.881 114.45 143.514 115.25C144.148 116.017 144.464 116.9 144.464 117.9C144.464 118.933 144.131 119.833 143.464 120.6C142.831 121.4 141.764 121.8 140.264 121.8H108.714ZM113.114 102.45C110.981 102.45 109.031 102.217 107.264 101.75C105.531 101.283 104.031 100.567 102.764 99.6001C101.531 98.6334 100.564 97.4168 99.8645 95.9501C99.1645 94.4834 98.8145 92.7334 98.8145 90.7001V87.3501C98.8145 85.3168 99.1645 83.5668 99.8645 82.1001C100.564 80.6001 101.531 79.3668 102.764 78.4001C104.031 77.4334 105.531 76.7168 107.264 76.2501C109.031 75.7834 110.981 75.5501 113.114 75.5501C115.248 75.5501 117.181 75.7834 118.914 76.2501C120.681 76.7168 122.181 77.4334 123.414 78.4001C124.681 79.3668 125.664 80.6001 126.364 82.1001C127.064 83.5668 127.414 85.3168 127.414 87.3501V90.7001C127.414 92.7334 127.064 94.4834 126.364 95.9501C125.664 97.4168 124.681 98.6334 123.414 99.6001C122.181 100.567 120.681 101.283 118.914 101.75C117.181 102.217 115.248 102.45 113.114 102.45ZM133.064 79.8001C133.064 78.1668 133.564 76.9334 134.564 76.1001C135.598 75.2668 136.781 74.8501 138.114 74.8501C138.748 74.8501 139.364 74.9668 139.964 75.2001C140.598 75.4001 141.148 75.7168 141.614 76.1501C142.081 76.5501 142.448 77.0668 142.714 77.7001C143.014 78.3001 143.164 79.0001 143.164 79.8001V110.2H133.064V79.8001ZM113.114 95.1001C114.448 95.1001 115.531 94.7834 116.364 94.1501C117.198 93.5168 117.614 92.5001 117.614 91.1001V86.9501C117.614 85.5501 117.198 84.5334 116.364 83.9001C115.531 83.2334 114.448 82.9001 113.114 82.9001C111.781 82.9001 110.698 83.2334 109.864 83.9001C109.031 84.5334 108.614 85.5501 108.614 86.9501V91.1001C108.614 92.5001 109.031 93.5168 109.864 94.1501C110.698 94.7834 111.781 95.1001 113.114 95.1001Z" fill="#EB322A"/>
<path d="M147.014 89.2001C147.014 87.0001 147.364 85.0668 148.064 83.4001C148.764 81.7001 149.731 80.2834 150.964 79.1501C152.231 77.9834 153.731 77.1168 155.464 76.5501C157.198 75.9501 159.114 75.6501 161.214 75.6501C163.314 75.6501 165.231 75.9501 166.964 76.5501C168.698 77.1168 170.198 77.9668 171.464 79.1001C172.731 80.2334 173.714 81.6501 174.414 83.3501C175.114 85.0501 175.464 87.0001 175.464 89.2001V107.3C175.464 109.5 175.114 111.45 174.414 113.15C173.714 114.85 172.731 116.267 171.464 117.4C170.231 118.533 168.731 119.383 166.964 119.95C165.231 120.55 163.331 120.85 161.264 120.85C159.164 120.85 157.248 120.55 155.514 119.95C153.781 119.383 152.281 118.533 151.014 117.4C149.748 116.267 148.764 114.85 148.064 113.15C147.364 111.45 147.014 109.5 147.014 107.3V89.2001ZM156.914 107.5C156.914 109.2 157.314 110.483 158.114 111.35C158.948 112.183 159.981 112.6 161.214 112.6C162.448 112.6 163.481 112.183 164.314 111.35C165.148 110.483 165.564 109.2 165.564 107.5V89.0001C165.564 87.3001 165.148 86.0168 164.314 85.1501C163.481 84.2834 162.448 83.8668 161.214 83.9001C159.981 83.9334 158.948 84.3834 158.114 85.2501C157.314 86.0834 156.914 87.3334 156.914 89.0001V107.5ZM181.164 121.8V79.8001C181.164 78.1668 181.664 76.9334 182.664 76.1001C183.664 75.2668 184.831 74.8501 186.164 74.8501C187.498 74.8501 188.664 75.2668 189.664 76.1001C190.664 76.9334 191.164 78.1668 191.164 79.8001V121.8H181.164Z" fill="#EB322A"/>
<path d="M213.428 121.8C212.361 121.8 211.428 121.617 210.628 121.25C209.828 120.917 209.161 120.467 208.628 119.9C208.128 119.333 207.745 118.667 207.478 117.9C207.245 117.133 207.128 116.317 207.128 115.45V115.3C207.128 113.533 207.628 112.117 208.628 111.05C209.628 109.983 211.228 109.45 213.428 109.45H240.178V108.6C240.178 108.067 239.828 107.8 239.128 107.8H210.478C209.545 107.8 208.828 107.517 208.328 106.95C207.861 106.35 207.628 105.717 207.628 105.05C207.628 104.383 207.845 103.75 208.278 103.15C208.745 102.55 209.478 102.25 210.478 102.25H244.878C247.011 102.25 248.478 102.65 249.278 103.45C250.078 104.217 250.478 105.367 250.478 106.9V114.5H218.828C218.461 114.5 218.211 114.567 218.078 114.7C217.945 114.833 217.878 115.033 217.878 115.3C217.878 115.567 217.945 115.783 218.078 115.95C218.211 116.117 218.461 116.2 218.828 116.2H249.178C250.145 116.2 250.828 116.5 251.228 117.1C251.661 117.667 251.878 118.3 251.878 119C251.878 119.6 251.678 120.217 251.278 120.85C250.878 121.483 250.178 121.8 249.178 121.8H213.428ZM246.628 75.5501C248.028 75.5501 249.028 75.9001 249.628 76.6001C250.228 77.2668 250.528 78.0668 250.528 79.0001C250.528 79.9334 250.228 80.7501 249.628 81.4501C249.028 82.1168 248.028 82.4501 246.628 82.4501H234.228C234.095 83.0501 233.895 83.6668 233.628 84.3001C234.461 84.2001 235.295 84.1334 236.128 84.1001C236.961 84.0668 237.761 84.0668 238.528 84.1001C240.195 84.1668 241.761 84.3501 243.228 84.6501C244.695 84.9501 246.011 85.4334 247.178 86.1001C248.345 86.7334 249.345 87.5834 250.178 88.6501C251.045 89.7168 251.711 91.0168 252.178 92.5501H242.028C241.261 91.4834 240.078 90.7168 238.478 90.2501C236.878 89.7501 235.128 89.4834 233.228 89.4501C232.395 89.4168 231.478 89.4501 230.478 89.5501C229.511 89.6168 228.545 89.7834 227.578 90.0501C225.245 91.2168 222.578 92.0001 219.578 92.4001C216.578 92.8001 213.528 92.8334 210.428 92.5001C209.095 92.3668 208.111 91.9001 207.478 91.1001C206.878 90.3001 206.678 89.3001 206.878 88.1001C207.045 87.1001 207.495 86.3834 208.228 85.9501C208.995 85.5168 209.961 85.3501 211.128 85.4501C214.295 85.7501 217.095 85.6668 219.528 85.2001C221.961 84.7334 223.661 83.8168 224.628 82.4501H211.628C210.228 82.4501 209.228 82.1168 208.628 81.4501C208.028 80.7501 207.728 79.9334 207.728 79.0001C207.728 78.0668 208.028 77.2668 208.628 76.6001C209.228 75.9001 210.228 75.5501 211.628 75.5501H246.628ZM248.928 93.9501C250.261 93.9501 251.195 94.2834 251.728 94.9501C252.261 95.6168 252.528 96.3834 252.528 97.2501C252.528 98.1501 252.245 98.9334 251.678 99.6001C251.145 100.233 250.228 100.55 248.928 100.55H209.328C208.028 100.55 207.095 100.233 206.528 99.6001C205.995 98.9334 205.728 98.1501 205.728 97.2501C205.728 96.3834 205.995 95.6168 206.528 94.9501C207.061 94.2834 207.995 93.9501 209.328 93.9501H248.928Z" fill="#EB322A"/>
<path d="M289.178 121.8V79.8001C289.178 78.1668 289.678 76.9334 290.678 76.1001C291.678 75.2668 292.845 74.8501 294.178 74.8501C295.511 74.8501 296.678 75.2668 297.678 76.1001C298.678 76.9334 299.178 78.1668 299.178 79.8001V121.8H289.178ZM258.278 111.5C260.378 111.3 262.278 110.9 263.978 110.3C265.711 109.667 267.178 108.717 268.378 107.45C269.578 106.183 270.495 104.517 271.128 102.45C271.795 100.383 272.128 97.8168 272.128 94.7501V86.6501C272.128 86.2834 272.011 85.9834 271.778 85.7501C271.578 85.5168 271.278 85.4001 270.878 85.4001H259.478C258.711 85.4001 258.045 85.2834 257.478 85.0501C256.945 84.7834 256.495 84.4501 256.128 84.0501C255.761 83.6501 255.478 83.2001 255.278 82.7001C255.111 82.1668 255.028 81.6334 255.028 81.1001C255.028 80.6001 255.111 80.1001 255.278 79.6001C255.478 79.0668 255.761 78.6001 256.128 78.2001C256.495 77.7668 256.945 77.4168 257.478 77.1501C258.045 76.8834 258.711 76.7501 259.478 76.7501H274.278C277.111 76.7501 279.128 77.3834 280.328 78.6501C281.528 79.9168 282.128 81.7168 282.128 84.0501V94.8001C282.128 99.2668 281.528 103.067 280.328 106.2C279.161 109.333 277.545 111.9 275.478 113.9C273.411 115.9 270.978 117.367 268.178 118.3C265.411 119.233 262.428 119.733 259.228 119.8C258.628 119.8 258.028 119.717 257.428 119.55C256.828 119.383 256.295 119.117 255.828 118.75C255.395 118.417 255.045 117.983 254.778 117.45C254.511 116.917 254.395 116.267 254.428 115.5C254.495 114.433 254.828 113.533 255.428 112.8C256.061 112.067 257.011 111.633 258.278 111.5Z" fill="#EB322A"/>
<path d="M311.378 121.8C309.978 121.8 308.811 121.667 307.878 121.4C306.945 121.167 306.211 120.767 305.678 120.2C305.145 119.633 304.761 118.9 304.528 118C304.328 117.067 304.228 115.917 304.228 114.55V111C304.228 109.3 304.745 108.067 305.778 107.3C306.811 106.533 308.028 106.15 309.428 106.15C310.828 106.15 312.011 106.533 312.978 107.3C313.978 108.067 314.478 109.3 314.478 111V112.8C314.478 113.367 314.561 113.717 314.728 113.85C314.895 113.983 315.261 114.05 315.828 114.05H342.778C344.311 114.05 345.395 114.45 346.028 115.25C346.661 116.017 346.978 116.9 346.978 117.9C346.978 118.933 346.645 119.833 345.978 120.6C345.345 121.4 344.278 121.8 342.778 121.8H311.378ZM310.928 92.8501C309.528 92.8501 308.361 92.7334 307.428 92.5001C306.495 92.2334 305.761 91.8168 305.228 91.2501C304.695 90.6834 304.311 89.9501 304.078 89.0501C303.878 88.1168 303.778 86.9668 303.778 85.6001V80.1501C303.778 78.4501 304.278 77.2168 305.278 76.4501C306.311 75.6834 307.528 75.3001 308.928 75.3001C310.328 75.3001 311.511 75.6834 312.478 76.4501C313.478 77.2168 313.978 78.4501 313.978 80.1501V83.8501C313.978 84.4168 314.061 84.7668 314.228 84.9001C314.395 85.0334 314.761 85.1001 315.328 85.1001H342.478C344.011 85.1001 345.095 85.5001 345.728 86.3001C346.361 87.0668 346.678 87.9501 346.678 88.9501C346.678 89.9834 346.345 90.9001 345.678 91.7001C345.045 92.4668 343.978 92.8501 342.478 92.8501H310.928ZM344.328 95.8501C345.095 95.8501 345.745 95.9834 346.278 96.2501C346.811 96.4834 347.245 96.8001 347.578 97.2001C347.911 97.5668 348.145 98.0001 348.278 98.5001C348.445 99.0001 348.528 99.5001 348.528 100C348.528 101.033 348.195 101.983 347.528 102.85C346.895 103.683 345.828 104.1 344.328 104.1H305.928C304.428 104.1 303.345 103.683 302.678 102.85C302.045 101.983 301.728 101.033 301.728 100C301.728 99.5001 301.795 99.0001 301.928 98.5001C302.095 98.0001 302.345 97.5668 302.678 97.2001C303.011 96.8001 303.445 96.4834 303.978 96.2501C304.511 95.9834 305.161 95.8501 305.928 95.8501H344.328Z" fill="#EB322A"/>
<path d="M367.292 94.8501C369.158 94.8834 370.892 94.7334 372.492 94.4001C374.092 94.0334 375.475 93.4834 376.642 92.7501C377.842 92.0168 378.775 91.1001 379.442 90.0001C380.142 88.8668 380.492 87.5668 380.492 86.1001V85.5501C380.492 84.8168 380.108 84.4501 379.342 84.4501H367.942C367.208 84.4501 366.575 84.3334 366.042 84.1001C365.542 83.8668 365.125 83.5668 364.792 83.2001C364.458 82.8001 364.208 82.3668 364.042 81.9001C363.908 81.4334 363.842 80.9501 363.842 80.4501C363.842 79.9501 363.908 79.4668 364.042 79.0001C364.208 78.5334 364.458 78.1168 364.792 77.7501C365.125 77.3501 365.542 77.0334 366.042 76.8001C366.575 76.5668 367.208 76.4501 367.942 76.4501H383.192C385.925 76.4501 387.825 77.0168 388.892 78.1501C389.958 79.2501 390.492 80.9334 390.492 83.2001V85.8501C390.492 88.8501 389.842 91.4834 388.542 93.7501C387.275 95.9834 385.558 97.8334 383.392 99.3001C381.258 100.733 378.758 101.767 375.892 102.4C373.058 103 370.075 103.183 366.942 102.95C365.808 102.883 364.842 102.45 364.042 101.65C363.275 100.817 362.925 99.7334 362.992 98.4001C363.058 97.2334 363.492 96.3501 364.292 95.7501C365.092 95.1168 366.092 94.8168 367.292 94.8501ZM372.742 121.8C371.342 121.8 370.175 121.667 369.242 121.4C368.342 121.133 367.625 120.717 367.092 120.15C366.558 119.583 366.175 118.833 365.942 117.9C365.742 116.967 365.642 115.833 365.642 114.5V109.9C365.642 108.2 366.142 106.95 367.142 106.15C368.175 105.35 369.392 104.95 370.792 104.95C372.192 104.95 373.375 105.35 374.342 106.15C375.308 106.95 375.792 108.2 375.792 109.9V112.8C375.792 113.367 375.875 113.717 376.042 113.85C376.208 113.983 376.575 114.05 377.142 114.05H403.342C404.875 114.05 405.958 114.45 406.592 115.25C407.225 116.017 407.542 116.9 407.542 117.9C407.542 118.933 407.208 119.833 406.542 120.6C405.908 121.4 404.842 121.8 403.342 121.8H372.742ZM396.042 79.8001C396.042 78.1668 396.525 76.9334 397.492 76.1001C398.458 75.2668 399.608 74.8501 400.942 74.8501C402.242 74.8501 403.375 75.2834 404.342 76.1501C405.342 76.9834 405.842 78.2001 405.842 79.8001V87.3501H407.392C408.158 87.3501 408.792 87.4834 409.292 87.7501C409.792 88.0168 410.192 88.3668 410.492 88.8001C410.792 89.2001 411.008 89.6668 411.142 90.2001C411.275 90.7001 411.342 91.2001 411.342 91.7001C411.342 92.2001 411.275 92.7168 411.142 93.2501C411.008 93.7501 410.792 94.2168 410.492 94.6501C410.192 95.0501 409.775 95.3834 409.242 95.6501C408.742 95.9168 408.125 96.0501 407.392 96.0501H405.842V110.2H396.042V79.8001Z" fill="#EB322A"/>
<path d="M412.142 93.4501C414.708 92.6834 416.675 91.2501 418.042 89.1501C419.442 87.0501 420.142 84.2168 420.142 80.6501V80.0001C420.142 79.2001 420.292 78.5168 420.592 77.9501C420.892 77.3501 421.275 76.8668 421.742 76.5001C422.242 76.1001 422.792 75.8168 423.392 75.6501C424.025 75.4501 424.675 75.3501 425.342 75.3501C426.642 75.3834 427.775 75.8001 428.742 76.6001C429.742 77.3668 430.242 78.5001 430.242 80.0001V80.6501C430.242 81.4168 430.208 82.1501 430.142 82.8501C430.075 83.5501 429.992 84.2334 429.892 84.9001C431.692 85.1334 433.325 85.6168 434.792 86.3501C436.258 87.0834 437.492 88.1001 438.492 89.4001C439.525 90.6668 440.292 92.2334 440.792 94.1001C441.292 95.9668 441.492 98.1501 441.392 100.65H431.642C431.808 98.3168 431.542 96.4668 430.842 95.1001C430.142 93.7334 428.975 92.8834 427.342 92.5501C425.842 95.1834 423.975 97.2501 421.742 98.7501C419.508 100.25 417.208 101.15 414.842 101.45C414.175 101.517 413.558 101.483 412.992 101.35C412.425 101.217 411.925 101.017 411.492 100.75C411.058 100.483 410.692 100.15 410.392 99.7501C410.092 99.3501 409.892 98.9334 409.792 98.5001C409.458 97.3668 409.508 96.3168 409.942 95.3501C410.408 94.3834 411.142 93.7501 412.142 93.4501ZM417.092 111.75C415.692 111.75 414.608 111.383 413.842 110.65C413.108 109.917 412.742 108.967 412.742 107.8C412.742 106.633 413.108 105.683 413.842 104.95C414.608 104.217 415.692 103.85 417.092 103.85H448.042C449.608 103.85 450.875 103.967 451.842 104.2C452.808 104.433 453.558 104.85 454.092 105.45C454.625 106.05 454.975 106.85 455.142 107.85C455.342 108.817 455.442 110.05 455.442 111.55V121.8H445.342V112.95C445.342 112.15 444.942 111.75 444.142 111.75H417.092ZM445.092 79.8001C445.092 78.1668 445.592 76.9334 446.592 76.1001C447.625 75.2668 448.808 74.8501 450.142 74.8501C450.775 74.8501 451.392 74.9668 451.992 75.2001C452.625 75.4001 453.175 75.7168 453.642 76.1501C454.108 76.5501 454.475 77.0668 454.742 77.7001C455.042 78.3001 455.192 79.0001 455.192 79.8001V101.9H445.092V79.8001Z" fill="#EB322A"/>
<path d="M471.055 89.2001C471.055 87.0001 471.405 85.0668 472.105 83.4001C472.805 81.7001 473.772 80.2834 475.005 79.1501C476.272 77.9834 477.772 77.1168 479.505 76.5501C481.239 75.9501 483.155 75.6501 485.255 75.6501C487.355 75.6501 489.272 75.9501 491.005 76.5501C492.739 77.1168 494.239 77.9668 495.505 79.1001C496.772 80.2334 497.755 81.6501 498.455 83.3501C499.155 85.0501 499.505 87.0001 499.505 89.2001V107.3C499.505 109.5 499.155 111.45 498.455 113.15C497.755 114.85 496.772 116.267 495.505 117.4C494.272 118.533 492.772 119.383 491.005 119.95C489.272 120.55 487.372 120.85 485.305 120.85C483.205 120.85 481.289 120.55 479.555 119.95C477.822 119.383 476.322 118.533 475.055 117.4C473.789 116.267 472.805 114.85 472.105 113.15C471.405 111.45 471.055 109.5 471.055 107.3V89.2001ZM480.955 107.5C480.955 109.2 481.355 110.483 482.155 111.35C482.989 112.183 484.022 112.6 485.255 112.6C486.489 112.6 487.522 112.183 488.355 111.35C489.189 110.483 489.605 109.2 489.605 107.5V89.0001C489.605 87.3001 489.189 86.0168 488.355 85.1501C487.522 84.2834 486.489 83.8668 485.255 83.9001C484.022 83.9334 482.989 84.3834 482.155 85.2501C481.355 86.0834 480.955 87.3334 480.955 89.0001V107.5ZM505.205 121.8V79.8001C505.205 78.1668 505.705 76.9334 506.705 76.1001C507.705 75.2668 508.872 74.8501 510.205 74.8501C511.539 74.8501 512.706 75.2668 513.706 76.1001C514.706 76.9334 515.206 78.1668 515.206 79.8001V121.8H505.205Z" fill="#EB322A"/>
<path d="M527.656 85.3001H521.255C520.489 85.3001 519.839 85.1834 519.306 84.9501C518.806 84.6834 518.372 84.3501 518.005 83.9501C517.672 83.5501 517.422 83.1001 517.255 82.6001C517.122 82.0668 517.056 81.5501 517.056 81.0501C517.056 80.5501 517.122 80.0501 517.255 79.5501C517.422 79.0168 517.672 78.5501 518.005 78.1501C518.339 77.7501 518.772 77.4168 519.306 77.1501C519.839 76.8834 520.489 76.7501 521.255 76.7501H543.856C544.622 76.7501 545.255 76.8834 545.755 77.1501C546.289 77.4168 546.722 77.7501 547.056 78.1501C547.389 78.5501 547.622 79.0168 547.755 79.5501C547.889 80.0501 547.956 80.5501 547.956 81.0501C547.956 81.5501 547.872 82.0668 547.706 82.6001C547.572 83.1001 547.339 83.5501 547.005 83.9501C546.705 84.3501 546.289 84.6834 545.755 84.9501C545.222 85.1834 544.589 85.3001 543.856 85.3001H537.356V90.7001C537.356 91.8668 537.322 92.9834 537.255 94.0501C537.189 95.1168 537.089 96.1501 536.956 97.1501C538.756 97.7834 540.372 98.6334 541.806 99.7001C543.239 100.767 544.439 102.167 545.406 103.9C546.372 105.6 547.072 107.683 547.505 110.15C547.972 112.617 548.139 115.567 548.005 119H538.656C538.956 115.667 538.772 112.95 538.106 110.85C537.472 108.75 536.406 107.15 534.906 106.05C533.739 109.217 532.189 111.883 530.255 114.05C528.322 116.217 526.056 117.833 523.456 118.9C522.922 119.133 522.339 119.25 521.706 119.25C521.106 119.283 520.506 119.217 519.906 119.05C519.339 118.917 518.806 118.683 518.306 118.35C517.839 118.05 517.489 117.65 517.255 117.15C516.755 116.217 516.622 115.233 516.856 114.2C517.122 113.167 517.755 112.333 518.755 111.7C520.322 110.733 521.655 109.6 522.755 108.3C523.889 107 524.822 105.5 525.556 103.8C526.289 102.067 526.822 100.1 527.156 97.9001C527.489 95.7001 527.656 93.2168 527.656 90.4501V85.3001ZM551.856 79.7001C551.856 78.1001 552.356 76.9001 553.356 76.1001C554.356 75.2668 555.506 74.8501 556.806 74.8501C557.439 74.8501 558.056 74.9668 558.656 75.2001C559.256 75.4001 559.772 75.7001 560.206 76.1001C560.672 76.5001 561.039 77.0001 561.306 77.6001C561.606 78.2001 561.755 78.9001 561.755 79.7001V92.3501H563.406C564.172 92.3501 564.806 92.4834 565.306 92.7501C565.806 93.0168 566.205 93.3668 566.505 93.8001C566.805 94.2001 567.022 94.6668 567.156 95.2001C567.289 95.7001 567.356 96.2001 567.356 96.7001C567.356 97.2001 567.289 97.7168 567.156 98.2501C567.022 98.7501 566.805 99.2168 566.505 99.6501C566.205 100.05 565.789 100.383 565.255 100.65C564.755 100.917 564.139 101.05 563.406 101.05H561.755V121.8H551.856V79.7001Z" fill="#EB322A"/>
<path d="M578.769 82.9001C578.769 82.0668 578.903 81.3501 579.169 80.7501C579.469 80.1168 579.853 79.5834 580.319 79.1501C580.786 78.7168 581.319 78.4001 581.919 78.2001C582.519 77.9668 583.153 77.8501 583.819 77.8501C584.486 77.8501 585.119 77.9668 585.719 78.2001C586.319 78.4001 586.853 78.7168 587.319 79.1501C587.786 79.5834 588.153 80.1168 588.419 80.7501C588.719 81.3501 588.869 82.0668 588.869 82.9001V94.4001L600.619 80.0001C601.119 79.4001 601.669 78.9334 602.269 78.6001C602.902 78.2668 603.536 78.0501 604.169 77.9501C604.836 77.8501 605.486 77.8668 606.119 78.0001C606.786 78.1334 607.369 78.3668 607.869 78.7001C608.436 79.0668 608.902 79.5334 609.269 80.1001C609.636 80.6668 609.869 81.2834 609.969 81.9501C610.069 82.5834 610.036 83.2334 609.869 83.9001C609.703 84.5668 609.369 85.1668 608.869 85.7001L599.419 96.2501L613.369 118.3H601.769L592.869 103.55L588.869 108V118.3H578.769V82.9001Z" fill="#EB322A"/>
<path d="M611.595 98.2501C611.595 97.7501 611.662 97.2501 611.795 96.7501C611.962 96.2168 612.195 95.7501 612.495 95.3501C612.828 94.9168 613.245 94.5834 613.745 94.3501C614.278 94.0834 614.912 93.9501 615.645 93.9501H633.645C634.378 93.9501 634.995 94.0834 635.495 94.3501C636.028 94.5834 636.445 94.9168 636.745 95.3501C637.078 95.7501 637.312 96.2168 637.445 96.7501C637.612 97.2501 637.695 97.7501 637.695 98.2501C637.695 98.7501 637.612 99.2668 637.445 99.8001C637.312 100.333 637.078 100.817 636.745 101.25C636.412 101.683 635.995 102.033 635.495 102.3C634.995 102.567 634.378 102.7 633.645 102.7H615.645C614.912 102.7 614.278 102.567 613.745 102.3C613.245 102.033 612.828 101.683 612.495 101.25C612.195 100.817 611.962 100.333 611.795 99.8001C611.662 99.2668 611.595 98.7501 611.595 98.2501Z" fill="#EB322A"/>
<path d="M639.371 118.3V85.9501C639.371 84.5168 639.488 83.3001 639.721 82.3001C639.988 81.3001 640.421 80.4834 641.021 79.8501C641.621 79.2168 642.421 78.7668 643.421 78.5001C644.421 78.2001 645.671 78.0501 647.171 78.0501H663.821C664.554 78.0501 665.171 78.1834 665.671 78.4501C666.171 78.7168 666.588 79.0668 666.921 79.5001C667.254 79.9334 667.488 80.4168 667.621 80.9501C667.788 81.4834 667.871 82.0001 667.871 82.5001C667.871 83.0001 667.788 83.5168 667.621 84.0501C667.488 84.5501 667.254 85.0168 666.921 85.4501C666.621 85.8501 666.204 86.1834 665.671 86.4501C665.171 86.6834 664.554 86.8001 663.821 86.8001H651.121C650.554 86.8001 650.171 86.9001 649.971 87.1001C649.771 87.2668 649.671 87.6501 649.671 88.2501V94.5501H662.521C663.254 94.5501 663.871 94.6834 664.371 94.9501C664.871 95.2168 665.288 95.5668 665.621 96.0001C665.954 96.4334 666.188 96.9168 666.321 97.4501C666.488 97.9834 666.571 98.5001 666.571 99.0001C666.571 99.5001 666.488 100.017 666.321 100.55C666.188 101.05 665.954 101.517 665.621 101.95C665.321 102.35 664.904 102.683 664.371 102.95C663.871 103.183 663.254 103.3 662.521 103.3H649.671V118.3H639.371Z" fill="#EB322A"/>
<path d="M668.949 93.0501C668.949 90.1834 669.466 87.7834 670.499 85.8501C671.532 83.8834 672.866 82.3168 674.499 81.1501C676.132 79.9501 677.932 79.1001 679.899 78.6001C681.899 78.0668 683.832 77.8001 685.699 77.8001C687.532 77.8001 689.432 78.0668 691.399 78.6001C693.399 79.1001 695.216 79.9501 696.849 81.1501C698.482 82.3168 699.816 83.8834 700.849 85.8501C701.916 87.7834 702.449 90.1834 702.449 93.0501V104C702.449 106.867 701.916 109.283 700.849 111.25C699.816 113.183 698.482 114.75 696.849 115.95C695.216 117.117 693.399 117.95 691.399 118.45C689.432 118.983 687.532 119.25 685.699 119.25C683.866 119.25 681.949 118.983 679.949 118.45C677.982 117.95 676.182 117.117 674.549 115.95C672.916 114.75 671.566 113.183 670.499 111.25C669.466 109.283 668.949 106.867 668.949 104V93.0501ZM692.249 92.7501C692.249 91.6501 692.049 90.7001 691.649 89.9001C691.282 89.1001 690.782 88.4334 690.149 87.9001C689.516 87.3668 688.816 86.9834 688.049 86.7501C687.282 86.4834 686.499 86.3501 685.699 86.3501C684.899 86.3501 684.116 86.4834 683.349 86.7501C682.582 86.9834 681.882 87.3668 681.249 87.9001C680.616 88.4334 680.099 89.1001 679.699 89.9001C679.332 90.7001 679.149 91.6501 679.149 92.7501V104.3C679.149 105.3 679.349 106.2 679.749 107C680.182 107.8 680.716 108.483 681.349 109.05C681.982 109.583 682.682 110 683.449 110.3C684.249 110.567 684.999 110.7 685.699 110.7C686.399 110.7 687.132 110.567 687.899 110.3C688.699 110 689.416 109.583 690.049 109.05C690.682 108.483 691.199 107.8 691.599 107C692.032 106.2 692.249 105.3 692.249 104.3V92.7501Z" fill="#EB322A"/>
<path d="M704.644 93.0501C704.644 90.1834 705.161 87.7834 706.194 85.8501C707.228 83.8834 708.561 82.3168 710.194 81.1501C711.828 79.9501 713.628 79.1001 715.594 78.6001C717.594 78.0668 719.527 77.8001 721.394 77.8001C723.227 77.8001 725.128 78.0668 727.094 78.6001C729.094 79.1001 730.911 79.9501 732.544 81.1501C734.178 82.3168 735.511 83.8834 736.544 85.8501C737.611 87.7834 738.144 90.1834 738.144 93.0501V104C738.144 106.867 737.611 109.283 736.544 111.25C735.511 113.183 734.178 114.75 732.544 115.95C730.911 117.117 729.094 117.95 727.094 118.45C725.128 118.983 723.227 119.25 721.394 119.25C719.561 119.25 717.644 118.983 715.644 118.45C713.677 117.95 711.878 117.117 710.244 115.95C708.611 114.75 707.261 113.183 706.194 111.25C705.161 109.283 704.644 106.867 704.644 104V93.0501ZM727.944 92.7501C727.944 91.6501 727.744 90.7001 727.344 89.9001C726.978 89.1001 726.478 88.4334 725.844 87.9001C725.211 87.3668 724.511 86.9834 723.744 86.7501C722.978 86.4834 722.194 86.3501 721.394 86.3501C720.594 86.3501 719.811 86.4834 719.044 86.7501C718.278 86.9834 717.578 87.3668 716.944 87.9001C716.311 88.4334 715.794 89.1001 715.394 89.9001C715.027 90.7001 714.844 91.6501 714.844 92.7501V104.3C714.844 105.3 715.044 106.2 715.444 107C715.878 107.8 716.411 108.483 717.044 109.05C717.678 109.583 718.377 110 719.144 110.3C719.944 110.567 720.694 110.7 721.394 110.7C722.094 110.7 722.828 110.567 723.594 110.3C724.394 110 725.111 109.583 725.744 109.05C726.378 108.483 726.894 107.8 727.294 107C727.728 106.2 727.944 105.3 727.944 104.3V92.7501Z" fill="#EB322A"/>
<path d="M756.19 78.0501C758.356 78.0501 760.489 78.3668 762.589 79.0001C764.723 79.6001 766.623 80.6334 768.289 82.1001C769.989 83.5334 771.356 85.4334 772.39 87.8001C773.423 90.1668 773.94 93.0834 773.94 96.5501V99.8001C773.94 103.267 773.423 106.183 772.39 108.55C771.356 110.917 769.989 112.833 768.289 114.3C766.623 115.733 764.723 116.767 762.589 117.4C760.489 118 758.356 118.3 756.19 118.3H748.74C747.24 118.3 745.99 118.167 744.99 117.9C743.99 117.6 743.189 117.133 742.589 116.5C741.989 115.867 741.556 115.05 741.289 114.05C741.056 113.05 740.94 111.833 740.94 110.4V85.9501C740.94 84.5168 741.056 83.3001 741.289 82.3001C741.556 81.3001 741.989 80.4834 742.589 79.8501C743.189 79.2168 743.99 78.7668 744.99 78.5001C745.99 78.2001 747.24 78.0501 748.74 78.0501H756.19ZM763.74 95.7501C763.74 92.8168 763.023 90.5834 761.589 89.0501C760.156 87.4834 758.256 86.7001 755.89 86.7001H752.589C752.023 86.7001 751.64 86.8001 751.44 87.0001C751.24 87.1668 751.14 87.5501 751.14 88.1501V108.2C751.14 108.8 751.24 109.2 751.44 109.4C751.64 109.567 752.023 109.65 752.589 109.65H755.89C758.256 109.65 760.156 108.883 761.589 107.35C763.023 105.783 763.74 103.533 763.74 100.6V95.7501Z" fill="#EB322A"/>
<path d="M216.7 160.2C219.234 159.4 221.167 157.967 222.5 155.9C223.834 153.833 224.5 150.917 224.5 147.15V146.25C224.5 145.45 224.634 144.767 224.9 144.2C225.2 143.6 225.584 143.117 226.05 142.75C226.55 142.35 227.1 142.067 227.7 141.9C228.334 141.7 228.984 141.6 229.65 141.6C230.95 141.633 232.067 142.05 233 142.85C233.967 143.617 234.45 144.75 234.45 146.25V147.15C234.45 148.017 234.417 148.85 234.35 149.65C234.284 150.417 234.184 151.183 234.05 151.95C235.784 152.15 237.35 152.6 238.75 153.3C240.184 154 241.4 155 242.4 156.3C243.4 157.567 244.15 159.15 244.65 161.05C245.15 162.95 245.367 165.2 245.3 167.8H235.7C235.967 162.933 234.567 160.167 231.5 159.5C230.034 162.1 228.217 164.133 226.05 165.6C223.917 167.033 221.7 167.9 219.4 168.2C218.734 168.3 218.117 168.283 217.55 168.15C216.984 168.017 216.484 167.817 216.05 167.55C215.617 167.25 215.25 166.9 214.95 166.5C214.65 166.1 214.45 165.683 214.35 165.25C214.017 164.117 214.067 163.083 214.5 162.15C214.967 161.183 215.7 160.533 216.7 160.2ZM225.3 187.8C223.9 187.8 222.734 187.667 221.8 187.4C220.9 187.133 220.184 186.717 219.65 186.15C219.117 185.583 218.734 184.833 218.5 183.9C218.3 182.967 218.2 181.833 218.2 180.5V175.4C218.2 173.7 218.7 172.45 219.7 171.65C220.734 170.85 221.95 170.45 223.35 170.45C224.75 170.45 225.934 170.85 226.9 171.65C227.867 172.45 228.35 173.7 228.35 175.4V178.8C228.35 179.367 228.434 179.717 228.6 179.85C228.767 179.983 229.134 180.05 229.7 180.05H256.85C258.384 180.05 259.467 180.45 260.1 181.25C260.734 182.017 261.05 182.9 261.05 183.9C261.05 184.933 260.717 185.833 260.05 186.6C259.417 187.4 258.35 187.8 256.85 187.8H225.3ZM249.8 155.5H245.6C244.367 155.5 243.4 155.083 242.7 154.25C242.034 153.383 241.7 152.417 241.7 151.35C241.7 150.283 242.017 149.333 242.65 148.5C243.284 147.633 244.267 147.2 245.6 147.2H249.8V145.7C249.8 144.1 250.3 142.9 251.3 142.1C252.3 141.267 253.45 140.85 254.75 140.85C255.384 140.85 256 140.967 256.6 141.2C257.2 141.4 257.734 141.7 258.2 142.1C258.667 142.5 259.034 143 259.3 143.6C259.6 144.2 259.75 144.9 259.75 145.7V176.2H249.8V155.5Z" fill="#EB322A"/>
<path d="M302.05 141.95C302.75 141.95 303.35 142.083 303.85 142.35C304.35 142.583 304.75 142.9 305.05 143.3C305.35 143.7 305.567 144.15 305.7 144.65C305.834 145.117 305.9 145.583 305.9 146.05C305.9 146.517 305.834 147 305.7 147.5C305.567 147.967 305.334 148.4 305 148.8C304.7 149.167 304.3 149.483 303.8 149.75C303.334 149.983 302.75 150.1 302.05 150.1H276.35C275.817 150.1 275.45 150.2 275.25 150.4C275.05 150.567 274.95 150.917 274.95 151.45V155.3C274.95 155.833 275.05 156.2 275.25 156.4C275.45 156.6 275.817 156.7 276.35 156.7H302.85C303.55 156.7 304.15 156.833 304.65 157.1C305.15 157.333 305.55 157.65 305.85 158.05C306.15 158.417 306.367 158.85 306.5 159.35C306.667 159.817 306.75 160.283 306.75 160.75C306.75 161.217 306.667 161.7 306.5 162.2C306.367 162.667 306.134 163.1 305.8 163.5C305.5 163.9 305.1 164.233 304.6 164.5C304.134 164.733 303.55 164.85 302.85 164.85H272.8C271.3 164.85 270.034 164.717 269 164.45C267.967 164.15 267.134 163.683 266.5 163.05C265.9 162.417 265.45 161.6 265.15 160.6C264.884 159.6 264.75 158.367 264.75 156.9V149.85C264.75 148.417 264.884 147.2 265.15 146.2C265.45 145.2 265.9 144.383 266.5 143.75C267.134 143.117 267.967 142.667 269 142.4C270.034 142.1 271.3 141.95 272.8 141.95H302.05ZM290.8 176.6V188.05H280.6V176.6H266.5C265 176.6 263.917 176.183 263.25 175.35C262.617 174.517 262.3 173.583 262.3 172.55C262.3 172.05 262.367 171.567 262.5 171.1C262.667 170.6 262.917 170.15 263.25 169.75C263.584 169.35 264.017 169.033 264.55 168.8C265.084 168.567 265.734 168.45 266.5 168.45H304.3C305.067 168.45 305.717 168.567 306.25 168.8C306.784 169.033 307.217 169.35 307.55 169.75C307.884 170.15 308.117 170.6 308.25 171.1C308.417 171.567 308.5 172.05 308.5 172.55C308.5 173.583 308.167 174.517 307.5 175.35C306.867 176.183 305.8 176.6 304.3 176.6H290.8Z" fill="#EB322A"/>
<path d="M338.7 150.15C338.6 151.05 338.45 151.867 338.25 152.6H338.75C340.817 152.567 342.85 152.833 344.85 153.4C346.85 153.967 348.65 154.867 350.25 156.1C351.85 157.3 353.167 158.833 354.2 160.7C355.234 162.567 355.834 164.8 356 167.4H346.15C345.917 166.133 345.467 165.017 344.8 164.05C344.167 163.083 343.35 162.3 342.35 161.7C341.384 161.067 340.267 160.6 339 160.3C337.734 160 336.4 159.867 335 159.9C334.834 159.9 334.667 159.917 334.5 159.95C334.334 159.95 334.15 159.967 333.95 160C332.85 161.133 331.6 162.15 330.2 163.05C328.834 163.917 327.4 164.667 325.9 165.3C324.4 165.9 322.85 166.383 321.25 166.75C319.684 167.083 318.134 167.3 316.6 167.4C315.2 167.5 314 167.217 313 166.55C312.034 165.85 311.467 164.917 311.3 163.75C311.134 162.65 311.35 161.667 311.95 160.8C312.55 159.9 313.467 159.367 314.7 159.2C316.434 159 318.067 158.667 319.6 158.2C321.134 157.733 322.5 157.133 323.7 156.4C324.934 155.667 325.95 154.783 326.75 153.75C327.55 152.717 328.084 151.517 328.35 150.15H316.4C314.9 150.15 313.817 149.733 313.15 148.9C312.517 148.033 312.2 147.083 312.2 146.05C312.2 145.55 312.267 145.067 312.4 144.6C312.567 144.1 312.817 143.65 313.15 143.25C313.484 142.85 313.917 142.533 314.45 142.3C314.984 142.067 315.634 141.95 316.4 141.95H351C351.767 141.95 352.417 142.067 352.95 142.3C353.484 142.533 353.917 142.85 354.25 143.25C354.584 143.65 354.817 144.1 354.95 144.6C355.117 145.067 355.2 145.55 355.2 146.05C355.2 147.083 354.867 148.033 354.2 148.9C353.567 149.733 352.5 150.15 351 150.15H338.7ZM338.8 177.35V188.05H328.6V177.35H314.5C313 177.35 311.917 176.933 311.25 176.1C310.617 175.267 310.3 174.333 310.3 173.3C310.3 172.8 310.367 172.317 310.5 171.85C310.667 171.35 310.917 170.9 311.25 170.5C311.584 170.1 312.017 169.783 312.55 169.55C313.084 169.317 313.734 169.2 314.5 169.2H352.9C353.667 169.2 354.317 169.317 354.85 169.55C355.384 169.783 355.817 170.1 356.15 170.5C356.484 170.9 356.717 171.35 356.85 171.85C357.017 172.317 357.1 172.8 357.1 173.3C357.1 174.333 356.767 175.267 356.1 176.1C355.467 176.933 354.4 177.35 352.9 177.35H338.8Z" fill="#EB322A"/>
<path d="M368.2 151.3H361.8C361.034 151.3 360.384 151.183 359.85 150.95C359.35 150.683 358.917 150.35 358.55 149.95C358.217 149.55 357.967 149.1 357.8 148.6C357.667 148.067 357.6 147.55 357.6 147.05C357.6 146.55 357.667 146.05 357.8 145.55C357.967 145.017 358.217 144.55 358.55 144.15C358.884 143.75 359.317 143.417 359.85 143.15C360.384 142.883 361.034 142.75 361.8 142.75H384.4C385.167 142.75 385.8 142.883 386.3 143.15C386.834 143.417 387.267 143.75 387.6 144.15C387.934 144.55 388.167 145.017 388.3 145.55C388.434 146.05 388.5 146.55 388.5 147.05C388.5 147.55 388.417 148.067 388.25 148.6C388.117 149.1 387.884 149.55 387.55 149.95C387.25 150.35 386.834 150.683 386.3 150.95C385.767 151.183 385.134 151.3 384.4 151.3H377.9V156.7C377.9 157.867 377.867 158.983 377.8 160.05C377.734 161.117 377.634 162.15 377.5 163.15C379.3 163.783 380.917 164.633 382.35 165.7C383.784 166.767 384.984 168.167 385.95 169.9C386.917 171.6 387.617 173.683 388.05 176.15C388.517 178.617 388.684 181.567 388.55 185H379.2C379.5 181.667 379.317 178.95 378.65 176.85C378.017 174.75 376.95 173.15 375.45 172.05C374.284 175.217 372.734 177.883 370.8 180.05C368.867 182.217 366.6 183.833 364 184.9C363.467 185.133 362.884 185.25 362.25 185.25C361.65 185.283 361.05 185.217 360.45 185.05C359.884 184.917 359.35 184.683 358.85 184.35C358.384 184.05 358.034 183.65 357.8 183.15C357.3 182.217 357.167 181.233 357.4 180.2C357.667 179.167 358.3 178.333 359.3 177.7C360.867 176.733 362.2 175.6 363.3 174.3C364.434 173 365.367 171.5 366.1 169.8C366.834 168.067 367.367 166.1 367.7 163.9C368.034 161.7 368.2 159.217 368.2 156.45V151.3ZM392.4 145.7C392.4 144.1 392.9 142.9 393.9 142.1C394.9 141.267 396.05 140.85 397.35 140.85C397.984 140.85 398.6 140.967 399.2 141.2C399.8 141.4 400.317 141.7 400.75 142.1C401.217 142.5 401.584 143 401.85 143.6C402.15 144.2 402.3 144.9 402.3 145.7V158.35H403.95C404.717 158.35 405.35 158.483 405.85 158.75C406.35 159.017 406.75 159.367 407.05 159.8C407.35 160.2 407.567 160.667 407.7 161.2C407.834 161.7 407.9 162.2 407.9 162.7C407.9 163.2 407.834 163.717 407.7 164.25C407.567 164.75 407.35 165.217 407.05 165.65C406.75 166.05 406.334 166.383 405.8 166.65C405.3 166.917 404.684 167.05 403.95 167.05H402.3V187.8H392.4V145.7Z" fill="#EB322A"/>
<path d="M416.8 187.8C415.4 187.8 414.234 187.667 413.3 187.4C412.4 187.133 411.684 186.717 411.15 186.15C410.617 185.583 410.234 184.833 410 183.9C409.8 182.967 409.7 181.833 409.7 180.5V172.55C409.7 170.85 410.184 169.633 411.15 168.9C412.15 168.133 413.35 167.75 414.75 167.75C416.017 167.75 417.1 168.067 418 168.7C418.934 169.333 419.484 170.35 419.65 171.75H442.05C442.217 170.35 442.767 169.333 443.7 168.7C444.634 168.067 445.75 167.75 447.05 167.75C448.45 167.75 449.617 168.133 450.55 168.9C451.517 169.633 452 170.85 452 172.55V187.8H416.8ZM407.4 152.9C407.4 150.867 407.75 149.133 408.45 147.7C409.15 146.267 410.117 145.1 411.35 144.2C412.617 143.267 414.117 142.6 415.85 142.2C417.617 141.767 419.567 141.55 421.7 141.55C423.834 141.55 425.767 141.767 427.5 142.2C429.267 142.6 430.767 143.267 432 144.2C433.267 145.1 434.25 146.267 434.95 147.7C435.65 149.133 436 150.867 436 152.9V154.45C436 156.483 435.65 158.217 434.95 159.65C434.25 161.083 433.267 162.267 432 163.2C430.767 164.1 429.267 164.767 427.5 165.2C425.767 165.6 423.834 165.8 421.7 165.8C419.567 165.8 417.617 165.6 415.85 165.2C414.117 164.767 412.617 164.1 411.35 163.2C410.117 162.267 409.15 161.083 408.45 159.65C407.75 158.217 407.4 156.483 407.4 154.45V152.9ZM441.65 145.8C441.65 144.167 442.15 142.933 443.15 142.1C444.184 141.267 445.367 140.85 446.7 140.85C447.334 140.85 447.95 140.967 448.55 141.2C449.184 141.4 449.734 141.717 450.2 142.15C450.667 142.55 451.034 143.067 451.3 143.7C451.6 144.3 451.75 145 451.75 145.8V166.2H441.65V145.8ZM417.2 154.9C417.2 156.167 417.617 157.117 418.45 157.75C419.284 158.35 420.367 158.65 421.7 158.65C423.034 158.65 424.117 158.35 424.95 157.75C425.784 157.117 426.2 156.167 426.2 154.9V152.45C426.2 151.183 425.784 150.25 424.95 149.65C424.117 149.017 423.034 148.7 421.7 148.7C420.367 148.7 419.284 149.017 418.45 149.65C417.617 150.25 417.2 151.183 417.2 152.45V154.9ZM442 181.15V178.15H419.7V179.9C419.7 180.467 419.784 180.817 419.95 180.95C420.117 181.083 420.484 181.15 421.05 181.15H442Z" fill="#EB322A"/>
<path d="M482.75 176.85C483.484 176.85 484.084 176.983 484.55 177.25C485.05 177.483 485.434 177.8 485.7 178.2C486 178.6 486.2 179.05 486.3 179.55C486.434 180.05 486.5 180.533 486.5 181C486.5 181.5 486.434 182 486.3 182.5C486.2 183 486 183.467 485.7 183.9C485.4 184.3 485 184.633 484.5 184.9C484.034 185.167 483.45 185.3 482.75 185.3H463.55C462.05 185.3 460.8 185.15 459.8 184.85C458.834 184.583 458.05 184.15 457.45 183.55C456.884 182.917 456.484 182.117 456.25 181.15C456.017 180.15 455.9 178.933 455.9 177.5V147.7C455.9 146.867 456.034 146.15 456.3 145.55C456.6 144.917 456.984 144.4 457.45 144C457.917 143.6 458.45 143.317 459.05 143.15C459.684 142.95 460.334 142.85 461 142.85C462.4 142.85 463.567 143.25 464.5 144.05C465.467 144.817 465.95 146.033 465.95 147.7V175.45C465.95 176.017 466.05 176.4 466.25 176.6C466.45 176.767 466.834 176.85 467.4 176.85H482.75ZM489.75 187.8V145.8C489.75 144.167 490.25 142.933 491.25 142.1C492.25 141.267 493.417 140.85 494.75 140.85C496.084 140.85 497.25 141.267 498.25 142.1C499.25 142.933 499.75 144.167 499.75 145.8V187.8H489.75Z" fill="#EB322A"/>
<path d="M511.55 185.8C509.917 185.8 508.6 185.683 507.6 185.45C506.6 185.217 505.817 184.8 505.25 184.2C504.717 183.633 504.35 182.85 504.15 181.85C503.95 180.85 503.85 179.567 503.85 178V150.35C503.85 148.783 503.95 147.5 504.15 146.5C504.35 145.5 504.717 144.717 505.25 144.15C505.817 143.55 506.6 143.15 507.6 142.95C508.6 142.717 509.917 142.6 511.55 142.6H527.45C528.184 142.6 528.784 142.733 529.25 143C529.75 143.267 530.134 143.6 530.4 144C530.7 144.4 530.9 144.85 531 145.35C531.134 145.85 531.2 146.333 531.2 146.8C531.2 147.3 531.134 147.8 531 148.3C530.9 148.8 530.7 149.25 530.4 149.65C530.1 150.05 529.7 150.383 529.2 150.65C528.734 150.917 528.15 151.05 527.45 151.05H515C514.534 151.05 514.2 151.15 514 151.35C513.8 151.55 513.7 151.933 513.7 152.5V176C513.7 176.567 513.8 176.95 514 177.15C514.2 177.35 514.534 177.45 515 177.45H529.75C530.484 177.45 531.084 177.583 531.55 177.85C532.05 178.117 532.434 178.45 532.7 178.85C533 179.25 533.2 179.7 533.3 180.2C533.434 180.7 533.5 181.183 533.5 181.65C533.5 182.15 533.434 182.65 533.3 183.15C533.2 183.617 533 184.05 532.7 184.45C532.4 184.85 532 185.167 531.5 185.4C531.034 185.667 530.45 185.8 529.75 185.8H511.55ZM536.4 145.7C536.4 144.1 536.9 142.9 537.9 142.1C538.9 141.267 540.05 140.85 541.35 140.85C541.984 140.85 542.6 140.967 543.2 141.2C543.8 141.4 544.317 141.7 544.75 142.1C545.217 142.5 545.584 143 545.85 143.6C546.15 144.2 546.3 144.9 546.3 145.7V158.35H547.95C548.717 158.35 549.35 158.483 549.85 158.75C550.35 159.017 550.75 159.367 551.05 159.8C551.35 160.2 551.567 160.667 551.7 161.2C551.834 161.7 551.9 162.2 551.9 162.7C551.9 163.2 551.834 163.717 551.7 164.25C551.567 164.75 551.35 165.217 551.05 165.65C550.75 166.05 550.334 166.383 549.8 166.65C549.3 166.917 548.684 167.05 547.95 167.05H546.3V187.8H536.4V145.7Z" fill="#EB322A"/>
<path d="M550.65 180C550.65 178.433 551.117 177.2 552.05 176.3C552.984 175.4 554.3 174.95 556 174.95C557.7 174.95 559.017 175.417 559.95 176.35C560.884 177.25 561.35 178.467 561.35 180C561.35 181.533 560.884 182.767 559.95 183.7C559.017 184.6 557.7 185.05 556 185.05C554.3 185.05 552.984 184.6 552.05 183.7C551.117 182.8 550.65 181.567 550.65 180Z" fill="#EB322A"/>
</svg>
