<svg width="483" height="92" viewBox="0 0 483 92" fill="none" xmlns="http://www.w3.org/2000/svg">
<path d="M21.6631 6.47998V10.68H29.0231V6.47998H21.6631ZM21.6631 13.44V17.68H29.0231V13.44H21.6631ZM1.22308 2.95998V7.19998H20.7831V2.95998H1.22308ZM0.82309 21.8C6.70309 21.8 14.6631 21.68 21.5431 20.52L21.2631 16.64C14.5831 17.4 6.2631 17.48 0.303101 17.48L0.82309 21.8ZM4.1431 6.51998V19.04H9.26309V6.51998H4.1431ZM12.7431 6.51998V19.04H17.8231V6.51998H12.7431ZM25.9831 0.519982V23.16H31.3031V0.519982H25.9831ZM18.7431 23.72C10.8631 23.72 6.06308 26.24 6.06308 30.68C6.06308 35.04 10.8631 37.56 18.7431 37.56C26.6231 37.56 31.4231 35.04 31.4231 30.68C31.4231 26.24 26.6231 23.72 18.7431 23.72ZM18.7431 27.76C23.6231 27.76 26.1431 28.68 26.1431 30.68C26.1431 32.6 23.6231 33.56 18.7431 33.56C13.9031 33.56 11.3831 32.6 11.3831 30.68C11.3831 28.68 13.9031 27.76 18.7431 27.76Z" fill="black"/>
<path d="M47.54 1.59998C41.9 1.59998 37.66 5.11998 37.66 10.08C37.66 15 41.9 18.52 47.54 18.52C53.18 18.52 57.42 15 57.42 10.08C57.42 5.11998 53.18 1.59998 47.54 1.59998ZM47.54 5.91998C50.26 5.91998 52.26 7.43998 52.26 10.08C52.26 12.72 50.26 14.24 47.54 14.24C44.82 14.24 42.78 12.72 42.78 10.08C42.78 7.43998 44.82 5.91998 47.54 5.91998ZM62.54 0.519982V19.04H67.9V0.519982H62.54ZM43.18 20.56V24.68H62.62V26.88H43.26V35.2H48.46V30.72H67.9V20.56H43.18ZM43.26 33.04V37.16H68.82V33.04H43.26Z" fill="black"/>
<path d="M98.3675 21.36V29.8H103.687V21.36H98.3675ZM101.047 2.39998C93.1275 2.39998 87.2075 6.43998 87.2075 12.6C87.2075 18.84 93.1275 22.84 101.047 22.84C108.967 22.84 114.887 18.84 114.887 12.6C114.887 6.43998 108.967 2.39998 101.047 2.39998ZM101.047 6.59998C106.127 6.59998 109.647 8.83998 109.647 12.6C109.647 16.44 106.127 18.64 101.047 18.64C95.9675 18.64 92.4475 16.44 92.4475 12.6C92.4475 8.83998 95.9675 6.59998 101.047 6.59998ZM84.3275 28.96V33.28H117.847V28.96H84.3275Z" fill="black"/>
<path d="M140.924 10.08V14.36H149.564V10.08H140.924ZM146.764 0.559982V27.56H152.084V0.559982H146.764ZM127.644 32.68V36.92H152.924V32.68H127.644ZM127.644 25.28V35.2H132.964V25.28H127.644ZM129.644 5.39998V7.71998C129.644 12.4 127.004 17.24 120.884 19.24L123.564 23.48C130.684 21.12 133.964 14.68 133.964 7.71998V5.39998H129.644ZM130.764 5.39998V7.71998C130.764 14.32 133.924 20.48 140.804 22.76L143.404 18.6C137.564 16.64 135.044 12.04 135.044 7.71998V5.39998H130.764ZM122.324 3.03998V7.23998H142.244V3.03998H122.324Z" fill="black"/>
<path d="M187.872 17.64C187.872 19.2666 187.752 20.8933 187.512 22.52C187.272 24.12 186.859 25.64 186.272 27.08C185.685 28.4933 184.872 29.76 183.832 30.88C182.792 31.9733 181.459 32.84 179.832 33.48C178.232 34.0933 176.285 34.4 173.992 34.4C173.459 34.4 172.819 34.3733 172.072 34.32C171.352 34.2667 170.752 34.1867 170.272 34.08V29.92C170.779 30.0533 171.325 30.16 171.912 30.24C172.525 30.32 173.125 30.36 173.712 30.36C175.525 30.36 177.019 30.12 178.192 29.64C179.392 29.1333 180.325 28.44 180.992 27.56C181.685 26.6533 182.192 25.6 182.512 24.4C182.832 23.1733 183.019 21.8666 183.072 20.48H182.832C182.432 21.0933 181.952 21.6533 181.392 22.16C180.859 22.6666 180.179 23.0666 179.352 23.36C178.552 23.6533 177.539 23.8 176.312 23.8C174.685 23.8 173.258 23.4533 172.032 22.76C170.832 22.0666 169.899 21.0666 169.232 19.76C168.565 18.4266 168.232 16.8133 168.232 14.92C168.232 12.8666 168.619 11.1066 169.392 9.63998C170.165 8.17332 171.259 7.05331 172.672 6.27998C174.112 5.47998 175.792 5.07998 177.712 5.07998C179.152 5.07998 180.485 5.34665 181.712 5.87998C182.939 6.38665 184.005 7.15998 184.912 8.19998C185.845 9.21331 186.565 10.5066 187.072 12.08C187.605 13.6533 187.872 15.5066 187.872 17.64ZM177.792 9.23998C176.432 9.23998 175.325 9.69332 174.472 10.6C173.618 11.5066 173.192 12.92 173.192 14.84C173.192 16.4133 173.552 17.6533 174.272 18.56C175.019 19.44 176.152 19.88 177.672 19.88C178.712 19.88 179.605 19.6533 180.352 19.2C181.125 18.7466 181.725 18.1866 182.152 17.52C182.579 16.8533 182.792 16.1466 182.792 15.4C182.792 14.68 182.685 13.96 182.472 13.24C182.258 12.4933 181.939 11.8133 181.512 11.2C181.112 10.5866 180.592 10.1066 179.952 9.75998C179.339 9.41332 178.619 9.23998 177.792 9.23998Z" fill="black"/>
<path d="M200.202 3.35998V8.75998C200.202 15.96 197.162 23.08 190.722 25.88L193.882 30.28C201.242 26.88 204.522 18.28 204.522 8.75998V3.35998H200.202ZM201.242 3.35998V8.75998C201.242 17.88 204.522 26.12 211.682 29.4L214.802 25.12C208.482 22.4 205.562 15.6 205.562 8.75998V3.35998H201.242ZM216.562 0.47998V37.64H221.922V0.47998H216.562Z" fill="black"/>
<path d="M247.51 21.68C246.523 21.2533 245.697 20.9733 245.03 20.84C244.363 20.68 243.737 20.6 243.15 20.6C242.403 20.6 241.617 20.8266 240.79 21.28C239.963 21.7333 239.23 22.2933 238.59 22.96V18.96C239.23 18.2666 239.963 17.7466 240.79 17.4C241.617 17.0266 242.523 16.84 243.51 16.84C244.283 16.84 245.057 16.92 245.83 17.08C246.603 17.24 247.617 17.5866 248.87 18.12C249.83 18.5466 250.643 18.84 251.31 19C251.977 19.1333 252.603 19.2 253.19 19.2C253.963 19.2 254.75 18.9733 255.55 18.52C256.377 18.0666 257.11 17.5066 257.75 16.84V20.8C257.11 21.4933 256.377 22.0266 255.55 22.4C254.723 22.7733 253.817 22.96 252.83 22.96C252.083 22.96 251.31 22.88 250.51 22.72C249.737 22.5333 248.737 22.1866 247.51 21.68Z" fill="black"/>
<path d="M285.711 21.36V29.8H291.031V21.36H285.711ZM288.391 2.39998C280.471 2.39998 274.551 6.43998 274.551 12.6C274.551 18.84 280.471 22.84 288.391 22.84C296.311 22.84 302.231 18.84 302.231 12.6C302.231 6.43998 296.311 2.39998 288.391 2.39998ZM288.391 6.59998C293.471 6.59998 296.991 8.83998 296.991 12.6C296.991 16.44 293.471 18.64 288.391 18.64C283.311 18.64 279.791 16.44 279.791 12.6C279.791 8.83998 283.311 6.59998 288.391 6.59998ZM271.671 28.96V33.28H305.191V28.96H271.671Z" fill="black"/>
<path d="M310.028 4.35998V8.55998H340.188V4.35998H310.028ZM308.468 24.48V28.76H341.988V24.48H308.468ZM322.508 28.24V37.6H327.828V28.24H322.508ZM325.188 9.99998C317.188 9.99998 312.468 12.24 312.468 16.36C312.468 20.44 317.188 22.72 325.188 22.72C333.148 22.72 337.868 20.44 337.868 16.36C337.868 12.24 333.148 9.99998 325.188 9.99998ZM325.188 13.96C330.028 13.96 332.388 14.68 332.388 16.36C332.388 18.04 330.028 18.76 325.188 18.76C320.348 18.76 317.988 18.04 317.988 16.36C317.988 14.68 320.348 13.96 325.188 13.96ZM322.508 0.47998V7.15998H327.828V0.47998H322.508Z" fill="black"/>
<path d="M365.656 16.04C367.469 16.04 369.069 16.3733 370.456 17.04C371.842 17.7066 372.922 18.68 373.696 19.96C374.496 21.2133 374.896 22.76 374.896 24.6C374.896 26.6266 374.469 28.3733 373.616 29.84C372.762 31.3066 371.509 32.44 369.856 33.24C368.202 34.0133 366.176 34.4 363.776 34.4C362.282 34.4 360.882 34.2667 359.576 34C358.269 33.7333 357.136 33.3466 356.176 32.84V28.36C357.162 28.8933 358.349 29.3333 359.736 29.68C361.122 30.0266 362.429 30.2 363.656 30.2C364.936 30.2 366.029 30.0266 366.936 29.68C367.842 29.3066 368.536 28.7466 369.016 28C369.496 27.2266 369.736 26.2533 369.736 25.08C369.736 23.48 369.229 22.2666 368.216 21.44C367.202 20.6133 365.629 20.2 363.496 20.2C362.749 20.2 361.936 20.2666 361.056 20.4C360.202 20.5333 359.496 20.6666 358.936 20.8L356.776 19.6L357.856 5.43998H372.896V9.83998H362.296L361.696 16.44C362.149 16.36 362.682 16.28 363.296 16.2C363.936 16.0933 364.722 16.04 365.656 16.04Z" fill="black"/>
<path d="M387.546 3.35998V8.75998C387.546 15.96 384.506 23.08 378.066 25.88L381.226 30.28C388.586 26.88 391.866 18.28 391.866 8.75998V3.35998H387.546ZM388.586 3.35998V8.75998C388.586 17.88 391.866 26.12 399.026 29.4L402.146 25.12C395.826 22.4 392.906 15.6 392.906 8.75998V3.35998H388.586ZM403.906 0.47998V37.64H409.266V0.47998H403.906Z" fill="black"/>
<path d="M439.423 0.519982V37.56H444.743V0.519982H439.423ZM443.103 15V19.4H449.543V15H443.103ZM421.263 4.27998V4.91998C421.263 14.32 420.263 20.48 414.543 26.8L418.703 29.8C425.263 22.44 426.223 14.56 426.223 4.27998H421.263ZM416.183 4.27998V8.59998H423.343V4.27998H416.183ZM431.463 4.27998V4.87998C431.463 15 430.543 22.12 424.943 29.2L429.103 32.16C435.543 24.12 436.423 15.04 436.423 4.27998H431.463ZM427.463 4.27998V8.59998H433.663V4.27998H427.463Z" fill="black"/>
<path d="M461.02 6.35998V10.52C461.02 16.8 458.02 23.64 451.82 26.4L454.82 30.6C461.78 27.44 465.26 19.08 465.26 10.52V6.35998H461.02ZM462.22 6.35998V10.52C462.22 18.76 465.66 26.64 472.7 29.68L475.58 25.48C469.38 22.92 466.42 16.52 466.42 10.52V6.35998H462.22ZM453.3 4.07998V8.43998H474.06V4.07998H453.3ZM477.5 0.519982V37.56H482.86V0.519982H477.5Z" fill="black"/>
<path d="M44.639 72.8V77.04H78.159V72.8H44.639ZM59.159 75.48V83.28H64.519V75.48H59.159ZM48.759 56.08V69.84H73.919V56.08H48.759ZM68.679 60.24V65.68H53.959V60.24H68.679ZM48.519 86.68V90.92H74.479V86.68H48.519ZM48.519 80.16V88.08H53.799V80.16H48.519Z" fill="black"/>
<path d="M93.3559 56.96C87.5559 56.96 83.1159 60.76 83.1159 66.08C83.1159 71.44 87.5559 75.24 93.3559 75.24C99.1959 75.24 103.556 71.44 103.556 66.08C103.556 60.76 99.1959 56.96 93.3559 56.96ZM93.3559 61.52C96.1959 61.52 98.3559 63.2 98.3559 66.08C98.3559 69 96.1959 70.68 93.3559 70.68C90.5159 70.68 88.3559 69 88.3559 66.08C88.3559 63.2 90.5159 61.52 93.3559 61.52ZM107.036 54.48V91.64H112.356V54.48H107.036ZM82.2359 84.12C88.6359 84.12 97.3559 84.04 105.396 82.44L104.996 78.6C97.1959 79.76 88.1159 79.84 81.5959 79.84L82.2359 84.12Z" fill="black"/>
<path d="M118.193 60.08V64.32H135.913V60.08H118.193ZM127.113 65.96C122.433 65.96 118.993 69.6 118.993 74.8C118.993 79.96 122.433 83.6 127.113 83.6C131.833 83.6 135.233 79.96 135.233 74.8C135.233 69.6 131.833 65.96 127.113 65.96ZM127.113 70.4C129.113 70.4 130.553 72 130.553 74.8C130.553 77.6 129.113 79.16 127.113 79.16C125.113 79.16 123.713 77.6 123.713 74.8C123.713 72 125.113 70.4 127.113 70.4ZM144.993 54.52V91.56H150.073V54.52H144.993ZM140.553 69.56V73.84H146.673V69.56H140.553ZM137.233 55.2V90H142.193V55.2H137.233ZM124.513 55.52V62.76H129.753V55.52H124.513Z" fill="black"/>
<path d="M179.14 58.64V59.72C179.14 63.52 175.22 67.68 167.06 68.68L169.02 72.84C178.42 71.56 183.74 66.24 183.74 59.72V58.64H179.14ZM180.66 58.64V59.72C180.66 66.24 185.98 71.56 195.42 72.84L197.34 68.68C189.18 67.68 185.26 63.52 185.26 59.72V58.64H180.66ZM179.42 78V91.6H184.7V78H179.42ZM165.46 74.96V79.2H198.94V74.96H165.46ZM168.42 56.4V60.6H195.9V56.4H168.42Z" fill="black"/>
<path d="M211.257 57.36V62.76C211.257 69.96 208.217 77.08 201.777 79.88L204.937 84.28C212.297 80.88 215.577 72.28 215.577 62.76V57.36H211.257ZM212.297 57.36V62.76C212.297 71.88 215.577 80.12 222.737 83.4L225.857 79.12C219.537 76.4 216.617 69.6 216.617 62.76V57.36H212.297ZM227.617 54.48V91.64H232.977V54.48H227.617Z" fill="black"/>
<path d="M264.534 54.52V91.56H269.894V54.52H264.534ZM253.614 58.36V59.32C253.614 69.24 249.774 75.96 239.134 81.08L241.894 85.32C255.054 78.96 258.894 69.68 258.894 58.36H253.614ZM241.094 58.36V62.56H256.134V58.36H241.094Z" fill="black"/>
<path d="M309.882 54.52V91.56H315.242V54.52H309.882ZM314.042 68.32V72.72H320.602V68.32H314.042ZM287.322 57.44V83H305.322V57.44H300.042V66.44H292.602V57.44H287.322ZM292.602 70.56H300.042V78.72H292.602V70.56Z" fill="black"/>
<path d="M346.838 54.56V75H352.158V54.56H346.838ZM350.638 62.64V67H357.078V62.64H350.638ZM328.078 76.52V91.16H352.158V76.52H346.878V79.8H333.318V76.52H328.078ZM333.318 83.88H346.878V86.92H333.318V83.88ZM324.318 70.24V74.52H327.438C334.918 74.52 339.598 74.32 344.798 73.36L344.318 69.08C339.198 70.08 334.718 70.24 327.438 70.24H324.318ZM324.278 56.16V60.4H335.958V63.24H324.318V73H329.598V67.2H341.198V56.16H324.278Z" fill="black"/>
<path d="M385.435 54.52V91.56H390.755V54.52H385.435ZM361.755 58.04V81.04H367.035V58.04H361.755ZM361.755 77.92V82.44H365.035C370.675 82.44 376.795 82.04 383.155 80.72L382.555 76.32C376.435 77.52 370.435 77.92 365.035 77.92H361.755Z" fill="black"/>
<path d="M420.272 54.48V91.64H425.632V54.48H420.272ZM424.432 68.2V72.56H430.992V68.2H424.432ZM398.032 78.32V82.72H401.152C407.592 82.72 412.672 82.56 418.272 81.56L417.752 77.16C412.312 78.12 407.392 78.32 401.152 78.32H398.032ZM398.032 57.92V80.44H403.312V62.2H415.312V57.92H398.032Z" fill="black"/>
<path d="M434.309 85.44C434.309 84.32 434.602 83.5333 435.189 83.08C435.776 82.6 436.496 82.36 437.349 82.36C438.202 82.36 438.922 82.5867 439.509 83.04C440.122 83.4933 440.429 84.2933 440.429 85.44C440.429 86.5333 440.122 87.32 439.509 87.8C438.922 88.28 438.202 88.52 437.349 88.52C436.496 88.52 435.776 88.28 435.189 87.8C434.602 87.32 434.309 86.5333 434.309 85.44Z" fill="black"/>
</svg>
