<svg width="842" height="501" viewBox="0 0 842 501" fill="none" xmlns="http://www.w3.org/2000/svg">
<g clip-path="url(#clip0_242_13052)">
<path d="M366.069 53V56.3913C371.422 56.3913 376.21 59.5854 378.289 64.5306L379.582 67.6013C380.948 70.8693 380.972 74.4703 379.631 77.7506C378.289 81.031 375.754 83.5961 372.493 84.9649L352.051 93.5604C350.414 94.251 348.691 94.5963 346.931 94.5963C341.578 94.5963 336.79 91.4023 334.71 86.4571L333.418 83.3864C330.588 76.6407 333.775 68.8468 340.507 66.0227L360.949 57.4272C362.586 56.7366 364.309 56.3913 366.069 56.3913V53ZM366.069 53C363.927 53 361.749 53.4193 359.644 54.3072L339.202 62.9027C330.735 66.4544 326.748 76.2214 330.304 84.7059L331.597 87.7766C334.267 94.1524 340.433 98 346.931 98C349.073 98 351.251 97.5807 353.356 96.6928L373.797 88.0973C382.265 84.5333 386.252 74.7662 382.695 66.2817L381.403 63.211C378.733 56.8353 372.567 53 366.069 53Z" fill="#EB322A"/>
<path d="M352.174 77.726C351.719 76.6284 351.128 76.1228 350.586 76.3448C350.008 76.5914 349.786 76.8874 349.934 77.245L350.143 77.763C350.426 78.4289 350.168 79.0085 349.54 79.2798L343.83 81.6846C342.808 82.1162 341.836 81.7216 341.393 80.6857L338.784 74.4703C338.353 73.4467 338.747 72.4725 339.781 72.0285L345.688 69.5497C346.205 69.3401 346.685 69.5374 346.907 70.043L347.091 70.487C347.202 70.7706 347.571 70.7953 348.15 70.5486C348.728 70.302 348.937 70.043 348.827 69.7594L348.642 69.3154C348.42 68.7975 348.63 68.3165 349.159 68.0822L349.626 67.8849C350.463 67.5396 351.189 67.8356 351.546 68.6742L355.583 78.3302C355.94 79.1688 355.632 79.8964 354.795 80.254C353.959 80.5993 353.232 80.3034 352.876 79.4648L352.149 77.726H352.174ZM345.393 78.3056C346.353 77.8986 346.525 76.6901 345.885 75.1485C345.233 73.607 344.261 72.8794 343.288 73.2864C342.328 73.6933 342.156 74.9019 342.796 76.4434C343.448 77.9849 344.421 78.7125 345.393 78.3056ZM347.768 83.4357L348.371 84.8786C348.753 85.8035 350.414 85.7295 352.752 84.7553L356.494 83.1768C357.183 82.8931 357.848 83.1644 358.131 83.8427C358.414 84.5333 358.143 85.1992 357.466 85.4829L348.974 89.0592C347.953 89.4908 346.968 89.0962 346.537 88.0603L345.073 84.5703C344.728 83.7317 345.024 83.0041 345.861 82.6465C346.697 82.2889 347.424 82.5972 347.78 83.4357H347.768ZM348.494 73.8167C348.654 74.199 349.036 74.273 349.614 74.0263C350.193 73.7797 350.39 73.4714 350.23 73.0891C350.07 72.7068 349.713 72.6205 349.134 72.8671C348.556 73.1137 348.334 73.4344 348.494 73.8167Z" fill="#EB322A"/>
<path d="M371.545 78.1083C371.853 78.8605 371.57 79.5635 370.807 79.8841C370.056 80.1924 369.355 79.9088 369.047 79.1565L367.829 76.2338C367.078 74.4333 366.45 73.4837 366.192 73.7673L365.761 74.2236C365.244 74.7416 364.567 74.7539 364.038 74.1866L362.007 72.0408C360.74 70.6843 360.001 70.9926 360.087 72.7931L360.198 75.7035C360.235 76.5174 359.731 77.06 358.906 77.0724C358.118 77.1094 357.577 76.6037 357.564 75.7898L357.417 71.5846C357.331 68.9701 357.072 67.4656 356.74 67.6136L356.161 67.8602C355.472 68.1439 354.832 67.8602 354.549 67.1943C354.254 66.4914 354.525 65.8131 355.214 65.5295L360.223 63.4207C360.912 63.137 361.577 63.4083 361.86 64.0989C362.143 64.7895 361.897 65.4431 361.207 65.7391L360.629 65.9858C360.272 66.1337 361.257 67.4903 363.263 69.5744C365.256 71.6832 366.081 72.0285 365.429 70.4747C364.789 68.9578 364.235 68.1069 363.976 68.2055L363.546 68.3905C363.016 68.6125 362.524 68.4152 362.303 67.8849L362.057 67.3053C361.847 66.7874 362.044 66.3064 362.573 66.0844L363.004 65.8994C363.287 65.7884 363.312 65.4185 363.053 64.8019L362.672 63.877C362.352 63.1247 362.647 62.4218 363.41 62.1011C364.161 61.7928 364.863 62.0765 365.17 62.8287L371.558 78.0836V78.1083H371.545ZM374.831 76.7271C375.151 77.4793 374.856 78.1823 374.093 78.5029C373.342 78.8112 372.641 78.5276 372.321 77.763L365.933 62.5081C365.613 61.7558 365.909 61.0529 366.672 60.7323C367.422 60.4116 368.124 60.7076 368.432 61.4599L374.819 76.7147V76.7394L374.831 76.7271Z" fill="#EB322A"/>
</g>
<g clip-path="url(#clip1_242_13052)">
<path d="M366.069 121V124.391C371.422 124.391 376.21 127.585 378.289 132.531L379.582 135.601C380.948 138.869 380.972 142.47 379.631 145.751C378.289 149.031 375.754 151.596 372.493 152.965L352.051 161.56C350.414 162.251 348.691 162.596 346.931 162.596C341.578 162.596 336.79 159.402 334.71 154.457L333.418 151.386C330.588 144.641 333.775 136.847 340.507 134.023L360.949 125.427C362.586 124.737 364.309 124.391 366.069 124.391V121ZM366.069 121C363.927 121 361.749 121.419 359.644 122.307L339.202 130.903C330.735 134.454 326.748 144.221 330.304 152.706L331.597 155.777C334.267 162.152 340.433 166 346.931 166C349.073 166 351.251 165.581 353.356 164.693L373.797 156.097C382.265 152.533 386.252 142.766 382.695 134.282L381.403 131.211C378.733 124.835 372.567 121 366.069 121Z" fill="#EB322A"/>
<path d="M352.174 145.726C351.719 144.628 351.128 144.123 350.586 144.345C350.008 144.591 349.786 144.887 349.934 145.245L350.143 145.763C350.426 146.429 350.168 147.009 349.54 147.28L343.83 149.685C342.808 150.116 341.836 149.722 341.393 148.686L338.784 142.47C338.353 141.447 338.747 140.472 339.781 140.029L345.688 137.55C346.205 137.34 346.685 137.537 346.907 138.043L347.091 138.487C347.202 138.771 347.571 138.795 348.15 138.549C348.728 138.302 348.937 138.043 348.827 137.759L348.642 137.315C348.42 136.797 348.63 136.317 349.159 136.082L349.626 135.885C350.463 135.54 351.189 135.836 351.546 136.674L355.583 146.33C355.94 147.169 355.632 147.896 354.795 148.254C353.959 148.599 353.232 148.303 352.876 147.465L352.149 145.726H352.174ZM345.393 146.306C346.353 145.899 346.525 144.69 345.885 143.149C345.233 141.607 344.261 140.879 343.288 141.286C342.328 141.693 342.156 142.902 342.796 144.443C343.448 145.985 344.421 146.713 345.393 146.306ZM347.768 151.436L348.371 152.879C348.753 153.804 350.414 153.73 352.752 152.755L356.494 151.177C357.183 150.893 357.848 151.164 358.131 151.843C358.414 152.533 358.143 153.199 357.466 153.483L348.974 157.059C347.953 157.491 346.968 157.096 346.537 156.06L345.073 152.57C344.728 151.732 345.024 151.004 345.861 150.646C346.697 150.289 347.424 150.597 347.78 151.436H347.768ZM348.494 141.817C348.654 142.199 349.036 142.273 349.614 142.026C350.193 141.78 350.39 141.471 350.23 141.089C350.07 140.707 349.713 140.62 349.134 140.867C348.556 141.114 348.334 141.434 348.494 141.817Z" fill="#EB322A"/>
<path d="M371.545 146.108C371.853 146.861 371.57 147.563 370.807 147.884C370.056 148.192 369.355 147.909 369.047 147.156L367.829 144.234C367.078 142.433 366.45 141.484 366.192 141.767L365.761 142.224C365.244 142.742 364.567 142.754 364.038 142.187L362.007 140.041C360.74 138.684 360.001 138.993 360.087 140.793L360.198 143.703C360.235 144.517 359.731 145.06 358.906 145.072C358.118 145.109 357.577 144.604 357.564 143.79L357.417 139.585C357.331 136.97 357.072 135.466 356.74 135.614L356.161 135.86C355.472 136.144 354.832 135.86 354.549 135.194C354.254 134.491 354.525 133.813 355.214 133.529L360.223 131.421C360.912 131.137 361.577 131.408 361.86 132.099C362.143 132.79 361.897 133.443 361.207 133.739L360.629 133.986C360.272 134.134 361.257 135.49 363.263 137.574C365.256 139.683 366.081 140.029 365.429 138.475C364.789 136.958 364.235 136.107 363.976 136.206L363.546 136.391C363.016 136.613 362.524 136.415 362.303 135.885L362.057 135.305C361.847 134.787 362.044 134.306 362.573 134.084L363.004 133.899C363.287 133.788 363.312 133.418 363.053 132.802L362.672 131.877C362.352 131.125 362.647 130.422 363.41 130.101C364.161 129.793 364.863 130.076 365.17 130.829L371.558 146.084V146.108H371.545ZM374.831 144.727C375.151 145.479 374.856 146.182 374.093 146.503C373.342 146.811 372.641 146.528 372.321 145.763L365.933 130.508C365.613 129.756 365.909 129.053 366.672 128.732C367.422 128.412 368.124 128.708 368.432 129.46L374.819 144.715V144.739L374.831 144.727Z" fill="#EB322A"/>
</g>
<defs>
<clipPath id="clip0_242_13052">
<rect width="55" height="45" fill="white" transform="translate(329 53)"/>
</clipPath>
<clipPath id="clip1_242_13052">
<rect width="55" height="45" fill="white" transform="translate(329 121)"/>
</clipPath>
</defs>
</svg>
