<svg width="655" height="139" viewBox="0 0 655 139" fill="none" xmlns="http://www.w3.org/2000/svg">
<path d="M18 3H608" stroke="#383638" stroke-width="4.31" stroke-miterlimit="10"/>
<path d="M33.173 91.5498C35.7297 91.2465 38.0914 90.7048 40.258 89.9248C42.468 89.1448 44.353 87.9531 45.913 86.3498C47.5164 84.7465 48.773 82.6448 49.683 80.0448C50.593 77.4015 51.048 74.0865 51.048 70.0998V59.2448C51.048 58.7681 50.8964 58.3781 50.593 58.0748C50.333 57.7715 49.943 57.6198 49.423 57.6198H34.603C33.6064 57.6198 32.7614 57.4465 32.068 57.0998C31.418 56.7531 30.8547 56.3198 30.378 55.7998C29.9447 55.2365 29.6197 54.6298 29.403 53.9798C29.2297 53.2865 29.143 52.6148 29.143 51.9648C29.143 51.3148 29.2297 50.6648 29.403 50.0148C29.6197 49.3215 29.9447 48.7148 30.378 48.1948C30.8114 47.6748 31.3747 47.2415 32.068 46.8948C32.7614 46.5481 33.6064 46.3748 34.603 46.3748H53.713C57.3964 46.3748 60.018 47.1981 61.578 48.8448C63.138 50.4915 63.918 52.8315 63.918 55.8648V70.1648C63.918 75.9281 63.1814 80.8031 61.708 84.7898C60.2347 88.7765 58.1764 92.0481 55.533 94.6048C52.933 97.1181 49.8347 98.9815 46.238 100.195C42.6847 101.408 38.8064 102.123 34.603 102.34C33.823 102.383 33.043 102.296 32.263 102.08C31.5264 101.863 30.8547 101.516 30.248 101.04C29.6847 100.563 29.2297 99.9781 28.883 99.2848C28.5364 98.5481 28.363 97.7031 28.363 96.7498C28.363 95.3631 28.753 94.2148 29.533 93.3048C30.313 92.3515 31.5264 91.7665 33.173 91.5498ZM71.783 50.2098C71.783 48.1298 72.433 46.5698 73.733 45.5298C75.033 44.4465 76.528 43.9048 78.218 43.9048C79.0414 43.9048 79.843 44.0565 80.623 44.3598C81.403 44.6198 82.0747 45.0098 82.638 45.5298C83.2447 46.0498 83.7214 46.6998 84.068 47.4798C84.458 48.2598 84.653 49.1698 84.653 50.2098V66.6548H86.798C87.7947 66.6548 88.618 66.8281 89.268 67.1748C89.918 67.5215 90.438 67.9765 90.828 68.5398C91.218 69.0598 91.4997 69.6665 91.673 70.3598C91.8464 71.0098 91.933 71.6598 91.933 72.3098C91.933 72.9598 91.8464 73.6315 91.673 74.3248C91.4997 74.9748 91.218 75.5814 90.828 76.1448C90.438 76.6648 89.8964 77.0981 89.203 77.4448C88.553 77.7915 87.7514 77.9648 86.798 77.9648H84.653V104.94H71.783V50.2098Z" fill="#383638"/>
<path d="M105.518 105.135C103.265 105.135 101.293 104.81 99.603 104.16C97.9564 103.553 96.5697 102.708 95.443 101.625C94.3597 100.541 93.5364 99.2631 92.973 97.7898C92.453 96.2731 92.193 94.6265 92.193 92.8498C92.193 91.1165 92.453 89.4915 92.973 87.9748C93.5364 86.4581 94.3597 85.1581 95.443 84.0748C96.5697 82.9481 97.9564 82.0598 99.603 81.4098C101.293 80.7598 103.265 80.4348 105.518 80.4348H135.678C137.888 80.4348 139.816 80.7598 141.463 81.4098C143.153 82.0164 144.54 82.8831 145.623 84.0098C146.75 85.0931 147.595 86.3931 148.158 87.9098C148.721 89.4264 149.003 91.0731 149.003 92.8498C149.003 94.6265 148.721 96.2731 148.158 97.7898C147.595 99.3065 146.75 100.606 145.623 101.69C144.54 102.773 143.153 103.618 141.463 104.225C139.816 104.831 137.888 105.135 135.678 105.135H105.518ZM100.058 77.0548C97.8914 77.0548 96.1364 76.9248 94.793 76.6648C93.493 76.3615 92.4747 75.8198 91.738 75.0398C91.0447 74.2598 90.568 73.2198 90.308 71.9198C90.0914 70.5765 89.983 68.8648 89.983 66.7848V56.0598C89.983 53.9798 90.0914 52.2898 90.308 50.9898C90.568 49.6465 91.0447 48.5848 91.738 47.8048C92.4747 47.0248 93.493 46.5048 94.793 46.2448C96.1364 45.9415 97.8914 45.7898 100.058 45.7898H109.548C111.715 45.7898 113.448 45.9415 114.748 46.2448C116.048 46.5048 117.045 47.0248 117.738 47.8048C118.475 48.5848 118.951 49.6465 119.168 50.9898C119.428 52.2898 119.558 53.9798 119.558 56.0598V77.0548H100.058ZM137.238 66.3298H134.183V78.1598H123.003V49.4298C123.003 47.6098 123.545 46.2448 124.628 45.3348C125.755 44.3815 127.076 43.9048 128.593 43.9048C130.066 43.9048 131.366 44.3815 132.493 45.3348C133.62 46.2448 134.183 47.6098 134.183 49.4298V56.3198H137.238V49.4298C137.238 47.6098 137.801 46.2448 138.928 45.3348C140.098 44.3815 141.441 43.9048 142.958 43.9048C144.431 43.9048 145.753 44.3815 146.923 45.3348C148.093 46.2448 148.678 47.6098 148.678 49.4298V78.4848H137.238V66.3298ZM132.233 96.0348C133.663 96.0348 134.616 95.6881 135.093 94.9948C135.57 94.3015 135.808 93.5865 135.808 92.8498C135.808 92.1131 135.57 91.4198 135.093 90.7698C134.616 90.1198 133.663 89.7948 132.233 89.7948H108.963C107.533 89.7948 106.58 90.1198 106.103 90.7698C105.626 91.4198 105.388 92.1131 105.388 92.8498C105.388 93.5865 105.626 94.3015 106.103 94.9948C106.58 95.6881 107.533 96.0348 108.963 96.0348H132.233ZM103.308 55.2148C102.528 55.2148 102.008 55.3448 101.748 55.6048C101.531 55.8648 101.423 56.3631 101.423 57.0998V65.7448C101.423 66.4815 101.531 66.9798 101.748 67.2398C102.008 67.4998 102.528 67.6298 103.308 67.6298H108.248V57.0998C108.248 56.3631 108.118 55.8648 107.858 55.6048C107.641 55.3448 107.143 55.2148 106.363 55.2148H103.308Z" fill="#383638"/>
<path d="M160.963 102.145C159.056 102.145 157.496 101.971 156.283 101.625C155.07 101.278 154.116 100.715 153.423 99.9348C152.73 99.1548 152.231 98.1581 151.928 96.9448C151.668 95.6881 151.538 94.1714 151.538 92.3948V52.4848C151.538 50.1881 152.145 48.5415 153.358 47.5448C154.571 46.5481 156.131 46.0498 158.038 46.0498C159.901 46.0498 161.396 46.5698 162.523 47.6098C163.693 48.6065 164.278 50.2315 164.278 52.4848V62.4298H175.978V52.4848C175.978 50.1881 176.563 48.5415 177.733 47.5448C178.903 46.5481 180.42 46.0498 182.283 46.0498C184.19 46.0498 185.706 46.5698 186.833 47.6098C188.003 48.6065 188.588 50.2315 188.588 52.4848V102.145H160.963ZM195.738 104.94V50.3398C195.738 48.2165 196.388 46.6131 197.688 45.5298C198.988 44.4465 200.505 43.9048 202.238 43.9048C203.971 43.9048 205.488 44.4465 206.788 45.5298C208.088 46.6131 208.738 48.2165 208.738 50.3398V104.94H195.738ZM175.978 91.4198V73.0248H164.278V89.7298C164.278 90.4664 164.386 90.9431 164.603 91.1598C164.863 91.3331 165.361 91.4198 166.098 91.4198H175.978Z" fill="#383638"/>
<path d="M224.291 74.3248C224.291 73.6748 224.377 73.0248 224.551 72.3748C224.767 71.7248 225.071 71.1398 225.461 70.6198C225.894 70.0998 226.436 69.6881 227.086 69.3848C227.779 69.0381 228.602 68.8648 229.556 68.8648H236.576V62.0398C236.576 59.9165 237.161 58.3565 238.331 57.3598C239.544 56.3631 240.952 55.8648 242.556 55.8648C244.159 55.8648 245.546 56.3631 246.716 57.3598C247.929 58.3565 248.536 59.9165 248.536 62.0398V68.8648H255.556C256.509 68.8648 257.311 69.0381 257.961 69.3848C258.654 69.6881 259.196 70.0998 259.586 70.6198C260.019 71.1398 260.322 71.7248 260.496 72.3748C260.712 73.0248 260.821 73.6748 260.821 74.3248C260.821 74.9748 260.712 75.6464 260.496 76.3398C260.322 76.9898 260.019 77.5964 259.586 78.1598C259.152 78.6798 258.611 79.1131 257.961 79.4598C257.311 79.8065 256.509 79.9798 255.556 79.9798H248.536V86.8048C248.536 88.9281 247.929 90.4881 246.716 91.4848C245.546 92.4815 244.159 92.9798 242.556 92.9798C240.952 92.9798 239.544 92.4815 238.331 91.4848C237.161 90.4881 236.576 88.9281 236.576 86.8048V79.9798H229.556C228.602 79.9798 227.779 79.8065 227.086 79.4598C226.436 79.1131 225.894 78.6798 225.461 78.1598C225.071 77.5964 224.767 76.9898 224.551 76.3398C224.377 75.6464 224.291 74.9748 224.291 74.3248Z" fill="#383638"/>
<path d="M284.21 93.2398V75.2348C284.21 73.0681 284.817 71.5731 286.03 70.7498C287.243 69.9265 288.717 69.5148 290.45 69.5148C292.14 69.5148 293.592 69.9481 294.805 70.8148C296.062 71.6381 296.69 73.1115 296.69 75.2348V93.2398H301.24V75.2348C301.24 73.0681 301.847 71.5731 303.06 70.7498C304.273 69.9265 305.747 69.5148 307.48 69.5148C309.17 69.5148 310.622 69.9481 311.835 70.8148C313.092 71.6381 313.72 73.1115 313.72 75.2348V93.2398H329.97C331.963 93.2398 333.372 93.7815 334.195 94.8648C335.018 95.9481 335.43 97.1398 335.43 98.4398C335.43 99.7831 334.997 100.975 334.13 102.015C333.307 103.098 331.92 103.64 329.97 103.64H280.05C278.1 103.64 276.692 103.098 275.825 102.015C275.002 100.975 274.59 99.7831 274.59 98.4398C274.59 97.1398 275.002 95.9481 275.825 94.8648C276.648 93.7815 278.057 93.2398 280.05 93.2398H284.21ZM317.23 81.7348C317.923 79.6115 318.509 76.8381 318.985 73.4148C319.462 69.9481 319.7 66.0048 319.7 61.5848V58.6598C319.7 58.1831 319.549 57.7931 319.245 57.4898C318.985 57.1431 318.595 56.9698 318.075 56.9698H283.04C282.043 56.9698 281.177 56.8181 280.44 56.5148C279.703 56.1681 279.097 55.7348 278.62 55.2148C278.143 54.6948 277.775 54.1098 277.515 53.4598C277.298 52.7665 277.19 52.0731 277.19 51.3798C277.19 50.7298 277.298 50.0798 277.515 49.4298C277.775 48.7365 278.143 48.1298 278.62 47.6098C279.097 47.0898 279.703 46.6781 280.44 46.3748C281.177 46.0281 282.043 45.8548 283.04 45.8548H322.3C326.07 45.8548 328.757 46.6998 330.36 48.3898C331.964 50.0798 332.765 52.4848 332.765 55.6048V61.6498C332.765 67.1965 332.44 71.8981 331.79 75.7548C331.14 79.6115 330.273 82.8831 329.19 85.5698C328.453 87.3898 327.219 88.6681 325.485 89.4048C323.752 90.1415 321.823 90.1198 319.7 89.3398C318.877 89.0364 318.227 88.6031 317.75 88.0398C317.317 87.4765 317.014 86.8698 316.84 86.2198C316.71 85.5265 316.667 84.7898 316.71 84.0098C316.797 83.2298 316.97 82.4715 317.23 81.7348Z" fill="#383638"/>
<path d="M391.46 71.3998C392.37 71.3998 393.15 71.5515 393.8 71.8548C394.45 72.1148 394.97 72.4831 395.36 72.9598C395.794 73.3931 396.097 73.9131 396.27 74.5198C396.444 75.0831 396.53 75.6681 396.53 76.2748C396.53 77.5315 396.14 78.6581 395.36 79.6548C394.58 80.6081 393.28 81.0848 391.46 81.0848H384.57V85.6348C386.52 85.6348 388.102 85.7864 389.315 86.0898C390.529 86.3931 391.46 86.9348 392.11 87.7148C392.76 88.4514 393.193 89.4481 393.41 90.7048C393.67 91.9181 393.8 93.4565 393.8 95.3198V104.94H380.8V96.6848C380.8 95.7315 380.324 95.2548 379.37 95.2548H343.685C341.909 95.2548 340.544 94.8215 339.59 93.9548C338.68 93.0448 338.225 91.8531 338.225 90.3798C338.225 88.9064 338.68 87.7581 339.59 86.9348C340.544 86.0681 341.909 85.6348 343.685 85.6348H347.65V81.0848H340.76C338.94 81.0848 337.64 80.6081 336.86 79.6548C336.08 78.6581 335.69 77.5315 335.69 76.2748C335.69 75.6681 335.777 75.0831 335.95 74.5198C336.123 73.9131 336.405 73.3931 336.795 72.9598C337.228 72.4831 337.77 72.1148 338.42 71.8548C339.07 71.5515 339.85 71.3998 340.76 71.3998H391.46ZM382.035 44.5548C384.115 44.5548 385.914 44.8798 387.43 45.5298C388.99 46.1364 390.29 46.9815 391.33 48.0648C392.37 49.1048 393.128 50.3615 393.605 51.8348C394.125 53.2648 394.385 54.7815 394.385 56.3848C394.385 57.9881 394.125 59.5048 393.605 60.9348C393.128 62.3648 392.37 63.6215 391.33 64.7048C390.29 65.7448 388.99 66.5681 387.43 67.1748C385.914 67.7815 384.115 68.0848 382.035 68.0848H350.185C348.105 68.0848 346.285 67.7815 344.725 67.1748C343.165 66.5681 341.865 65.7448 340.825 64.7048C339.828 63.6215 339.07 62.3648 338.55 60.9348C338.074 59.5048 337.835 57.9881 337.835 56.3848C337.835 54.7815 338.074 53.2648 338.55 51.8348C339.07 50.3615 339.828 49.1048 340.825 48.0648C341.865 46.9815 343.165 46.1364 344.725 45.5298C346.285 44.8798 348.105 44.5548 350.185 44.5548H382.035ZM378.395 58.7898C379.392 58.7898 380.107 58.5731 380.54 58.1398C380.973 57.6631 381.19 57.0781 381.19 56.3848C381.19 55.6481 380.973 55.0631 380.54 54.6298C380.107 54.1531 379.392 53.9148 378.395 53.9148H353.89C352.894 53.9148 352.157 54.1531 351.68 54.6298C351.247 55.0631 351.03 55.6481 351.03 56.3848C351.03 57.0781 351.247 57.6631 351.68 58.1398C352.157 58.5731 352.894 58.7898 353.89 58.7898H378.395ZM360.065 85.6348H372.155V81.0848H360.065V85.6348Z" fill="#383638"/>
<path d="M408.1 102.145C406.193 102.145 404.633 101.971 403.42 101.625C402.207 101.278 401.253 100.715 400.56 99.9348C399.867 99.1548 399.368 98.1581 399.065 96.9448C398.805 95.6881 398.675 94.1714 398.675 92.3948V52.4848C398.675 50.1881 399.282 48.5415 400.495 47.5448C401.708 46.5481 403.268 46.0498 405.175 46.0498C407.038 46.0498 408.533 46.5698 409.66 47.6098C410.83 48.6065 411.415 50.2315 411.415 52.4848V62.4298H423.115V52.4848C423.115 50.1881 423.7 48.5415 424.87 47.5448C426.04 46.5481 427.557 46.0498 429.42 46.0498C431.327 46.0498 432.843 46.5698 433.97 47.6098C435.14 48.6065 435.725 50.2315 435.725 52.4848V102.145H408.1ZM442.875 104.94V50.3398C442.875 48.2165 443.525 46.6131 444.825 45.5298C446.125 44.4465 447.642 43.9048 449.375 43.9048C451.108 43.9048 452.625 44.4465 453.925 45.5298C455.225 46.6131 455.875 48.2165 455.875 50.3398V104.94H442.875ZM423.115 91.4198V73.0248H411.415V89.7298C411.415 90.4664 411.523 90.9431 411.74 91.1598C412 91.3331 412.498 91.4198 413.235 91.4198H423.115Z" fill="#383638"/>
<path d="M471.428 82.9698C471.428 82.3198 471.515 81.6915 471.688 81.0848C471.861 80.4348 472.143 79.8714 472.533 79.3948C472.966 78.8748 473.486 78.4631 474.093 78.1598C474.743 77.8131 475.523 77.6398 476.433 77.6398H500.353C501.263 77.6398 502.021 77.8131 502.628 78.1598C503.278 78.4631 503.798 78.8748 504.188 79.3948C504.621 79.8714 504.925 80.4348 505.098 81.0848C505.271 81.6915 505.358 82.3198 505.358 82.9698C505.358 83.6198 505.25 84.2698 505.033 84.9198C504.86 85.5698 504.578 86.1548 504.188 86.6748C503.798 87.1948 503.278 87.6281 502.628 87.9748C502.021 88.3215 501.263 88.4948 500.353 88.4948H476.433C475.523 88.4948 474.743 88.3215 474.093 87.9748C473.486 87.6281 472.988 87.1948 472.598 86.6748C472.208 86.1548 471.905 85.5698 471.688 84.9198C471.515 84.2698 471.428 83.6198 471.428 82.9698ZM471.428 65.6798C471.428 65.0298 471.515 64.4015 471.688 63.7948C471.861 63.1448 472.143 62.5815 472.533 62.1048C472.966 61.5848 473.486 61.1731 474.093 60.8698C474.743 60.5231 475.523 60.3498 476.433 60.3498H500.353C501.263 60.3498 502.021 60.5231 502.628 60.8698C503.278 61.1731 503.798 61.5848 504.188 62.1048C504.621 62.5815 504.925 63.1448 505.098 63.7948C505.271 64.4015 505.358 65.0298 505.358 65.6798C505.358 66.3298 505.25 66.9798 505.033 67.6298C504.86 68.2798 504.578 68.8648 504.188 69.3848C503.798 69.9048 503.278 70.3381 502.628 70.6848C502.021 71.0315 501.263 71.2048 500.353 71.2048H476.433C475.523 71.2048 474.743 71.0315 474.093 70.6848C473.486 70.3381 472.988 69.9048 472.598 69.3848C472.208 68.8648 471.905 68.2798 471.688 67.6298C471.515 66.9798 471.428 66.3298 471.428 65.6798Z" fill="#383638"/>
<path d="M535.4 35.24V36.84C535.4 37.1333 535.387 37.4133 535.36 37.68C535.36 37.9466 535.347 38.2133 535.32 38.48C538.307 38.7466 540.52 39.8 541.96 41.64C543.4 43.48 544.093 46.2266 544.04 49.88H536.6C536.733 48.28 536.507 46.9866 535.92 46C535.333 44.9866 534.52 44.3866 533.48 44.2C532.92 45.1333 532.267 45.9733 531.52 46.72C530.773 47.44 529.96 48.0533 529.08 48.56C528.2 49.0666 527.28 49.4666 526.32 49.76C525.36 50.0266 524.4 50.1733 523.44 50.2C522.453 50.2533 521.6 50 520.88 49.44C520.187 48.88 519.813 48.1466 519.76 47.24C519.707 46.3066 519.893 45.56 520.32 45C520.773 44.4133 521.4 44.0533 522.2 43.92C524.013 43.6 525.4 42.7866 526.36 41.48C527.32 40.1733 527.8 38.6266 527.8 36.84V35.24H522.96C522.48 35.24 522.053 35.1466 521.68 34.96C521.333 34.7466 521.04 34.4933 520.8 34.2C520.56 33.88 520.373 33.5333 520.24 33.16C520.107 32.7866 520.04 32.4133 520.04 32.04C520.04 31.6933 520.093 31.3333 520.2 30.96C520.307 30.56 520.48 30.2 520.72 29.88C520.96 29.56 521.267 29.2933 521.64 29.08C522.013 28.8666 522.453 28.76 522.96 28.76H540.84C541.347 28.76 541.787 28.8666 542.16 29.08C542.533 29.2933 542.84 29.56 543.08 29.88C543.32 30.2 543.493 30.56 543.6 30.96C543.707 31.3333 543.76 31.6933 543.76 32.04C543.76 32.4133 543.693 32.7866 543.56 33.16C543.427 33.5333 543.24 33.88 543 34.2C542.76 34.4933 542.453 34.7466 542.08 34.96C541.733 35.1466 541.32 35.24 540.84 35.24H535.4ZM528.28 65.04C527.16 65.04 526.227 64.9333 525.48 64.72C524.76 64.5066 524.187 64.1733 523.76 63.72C523.333 63.2666 523.027 62.6666 522.84 61.92C522.68 61.1733 522.6 60.2666 522.6 59.2V55.32C522.6 53.96 523 52.96 523.8 52.32C524.627 51.68 525.6 51.36 526.72 51.36C527.84 51.36 528.787 51.68 529.56 52.32C530.333 52.96 530.72 53.96 530.72 55.32V57.84C530.72 58.2933 530.787 58.5733 530.92 58.68C531.053 58.7866 531.347 58.84 531.8 58.84H553.52C554.747 58.84 555.613 59.16 556.12 59.8C556.627 60.4133 556.88 61.12 556.88 61.92C556.88 62.7466 556.613 63.4666 556.08 64.08C555.573 64.72 554.72 65.04 553.52 65.04H528.28ZM547.88 41.92H545.6C544.987 41.92 544.48 41.8266 544.08 41.64C543.68 41.4533 543.347 41.2133 543.08 40.92C542.84 40.6266 542.667 40.28 542.56 39.88C542.453 39.48 542.4 39.08 542.4 38.68C542.4 38.28 542.453 37.8933 542.56 37.52C542.667 37.12 542.84 36.7733 543.08 36.48C543.32 36.16 543.64 35.9066 544.04 35.72C544.467 35.5333 544.987 35.44 545.6 35.44H547.88V31.36C547.88 30.08 548.28 29.12 549.08 28.48C549.88 27.8133 550.8 27.48 551.84 27.48C552.347 27.48 552.84 27.5733 553.32 27.76C553.8 27.92 554.227 28.16 554.6 28.48C554.973 28.8 555.267 29.2 555.48 29.68C555.72 30.16 555.84 30.72 555.84 31.36V55.76H547.88V41.92Z" fill="#EB322A"/>
<path d="M557.72 36.72C557.72 35.2266 557.947 33.9466 558.4 32.88C558.88 31.7866 559.533 30.8933 560.36 30.2C561.213 29.48 562.213 28.96 563.36 28.64C564.507 28.2933 565.747 28.12 567.08 28.12C568.413 28.12 569.653 28.2933 570.8 28.64C571.947 28.96 572.933 29.48 573.76 30.2C574.613 30.8933 575.267 31.7866 575.72 32.88C576.2 33.9466 576.44 35.2266 576.44 36.72V40.44C576.44 41.9333 576.2 43.2266 575.72 44.32C575.267 45.4133 574.613 46.3066 573.76 47C572.933 47.6933 571.947 48.2133 570.8 48.56C569.653 48.88 568.413 49.04 567.08 49.04C565.747 49.04 564.507 48.88 563.36 48.56C562.213 48.2133 561.213 47.6933 560.36 47C559.533 46.3066 558.88 45.4133 558.4 44.32C557.947 43.2266 557.72 41.9333 557.72 40.44V36.72ZM587.04 41.68H585.16V49.52H578.28V30.88C578.28 29.76 578.613 28.92 579.28 28.36C579.973 27.7733 580.787 27.48 581.72 27.48C582.627 27.48 583.427 27.7733 584.12 28.36C584.813 28.92 585.16 29.76 585.16 30.88V35.52H587.04V30.88C587.04 29.76 587.387 28.92 588.08 28.36C588.8 27.7733 589.627 27.48 590.56 27.48C591.467 27.48 592.28 27.7733 593 28.36C593.72 28.92 594.08 29.76 594.08 30.88V49.52H587.04V41.68ZM562.76 57.4C561.64 57.4 560.773 57.1066 560.16 56.52C559.573 55.9333 559.28 55.1733 559.28 54.24C559.28 53.3066 559.573 52.5466 560.16 51.96C560.773 51.3733 561.64 51.08 562.76 51.08H588.36C589.613 51.08 590.627 51.1733 591.4 51.36C592.173 51.5466 592.773 51.88 593.2 52.36C593.627 52.84 593.907 53.48 594.04 54.28C594.2 55.0533 594.28 56.04 594.28 57.24V65.04H586.2V58.36C586.2 57.72 585.88 57.4 585.24 57.4H562.76ZM564.92 40.84C564.92 41.7733 565.133 42.4133 565.56 42.76C566.013 43.1066 566.52 43.28 567.08 43.28C567.64 43.28 568.147 43.1066 568.6 42.76C569.053 42.4133 569.28 41.7733 569.28 40.84V36.28C569.28 35.3733 569.053 34.7466 568.6 34.4C568.147 34.0266 567.64 33.84 567.08 33.84C566.52 33.84 566.013 34.0266 565.56 34.4C565.133 34.7466 564.92 35.3733 564.92 36.28V40.84Z" fill="#EB322A"/>
<path d="M547.92 92.8H542.16V95.92H526.36C525.16 95.92 524.187 95.8267 523.44 95.64C522.693 95.4267 522.107 95.0933 521.68 94.64C521.28 94.16 521 93.5333 520.84 92.76C520.707 91.9867 520.64 91.0133 520.64 89.84V81.84C520.64 80.6933 520.707 79.7333 520.84 78.96C521 78.16 521.28 77.5333 521.68 77.08C522.107 76.6 522.693 76.2666 523.44 76.08C524.187 75.8666 525.16 75.76 526.36 75.76H536.44C538.227 75.76 539.52 75.9866 540.32 76.44C541.12 76.8933 541.653 77.6933 541.92 78.84H547.92V78.36C547.92 77.08 548.307 76.12 549.08 75.48C549.88 74.8133 550.8 74.48 551.84 74.48C552.347 74.48 552.84 74.5733 553.32 74.76C553.8 74.92 554.227 75.16 554.6 75.48C554.973 75.8 555.267 76.2 555.48 76.68C555.72 77.16 555.84 77.72 555.84 78.36V102.76H547.92V92.8ZM528.28 112.04C527.16 112.04 526.227 111.933 525.48 111.72C524.76 111.507 524.187 111.173 523.76 110.72C523.333 110.267 523.027 109.667 522.84 108.92C522.68 108.173 522.6 107.267 522.6 106.2V102.12C522.6 100.76 523 99.76 523.8 99.12C524.627 98.48 525.6 98.16 526.72 98.16C527.84 98.16 528.787 98.48 529.56 99.12C530.333 99.76 530.72 100.76 530.72 102.12V104.84C530.72 105.293 530.787 105.573 530.92 105.68C531.053 105.787 531.347 105.84 531.8 105.84H553.52C554.747 105.84 555.613 106.16 556.12 106.8C556.627 107.413 556.88 108.12 556.88 108.92C556.88 109.747 556.613 110.467 556.08 111.08C555.573 111.72 554.72 112.04 553.52 112.04H528.28ZM528.16 89C528.16 89.4266 528.213 89.7066 528.32 89.84C528.453 89.9733 528.72 90.04 529.12 90.04H534.8V82.64C534.8 82.2666 534.733 82.0133 534.6 81.88C534.467 81.72 534.2 81.64 533.8 81.64H529.12C528.72 81.64 528.453 81.72 528.32 81.88C528.213 82.0133 528.16 82.2666 528.16 82.64V89ZM542.16 87.16H547.92V84.48H542.16V87.16Z" fill="#EB322A"/>
<path d="M570.52 82.8V84.8C570.52 88.24 570.36 91.32 570.04 94.04C571.187 94.6 572.187 95.3066 573.04 96.16C573.92 97.0133 574.64 98.0667 575.2 99.32C575.76 100.547 576.16 102.013 576.4 103.72C576.64 105.427 576.693 107.413 576.56 109.68H569.48C569.773 107.813 569.827 106.227 569.64 104.92C569.453 103.587 569.053 102.493 568.44 101.64C567.213 105.213 565.32 107.827 562.76 109.48C562.307 109.773 561.813 109.987 561.28 110.12C560.747 110.253 560.213 110.307 559.68 110.28C559.173 110.253 558.693 110.133 558.24 109.92C557.787 109.707 557.427 109.4 557.16 109C556.68 108.28 556.493 107.467 556.6 106.56C556.707 105.653 557.147 104.893 557.92 104.28C558.987 103.48 559.867 102.56 560.56 101.52C561.253 100.453 561.8 99.1733 562.2 97.68C562.627 96.1867 562.92 94.4 563.08 92.32C563.24 90.2133 563.32 87.72 563.32 84.84V82.8H559.88C559.4 82.8 558.973 82.6933 558.6 82.48C558.227 82.2666 557.907 82 557.64 81.68C557.4 81.36 557.2 81.0133 557.04 80.64C556.907 80.24 556.84 79.8533 556.84 79.48C556.84 79.1333 556.893 78.76 557 78.36C557.107 77.96 557.28 77.6 557.52 77.28C557.76 76.96 558.067 76.6933 558.44 76.48C558.813 76.2666 559.253 76.16 559.76 76.16H573.72C574.227 76.16 574.667 76.2666 575.04 76.48C575.413 76.6933 575.72 76.96 575.96 77.28C576.2 77.6 576.373 77.96 576.48 78.36C576.587 78.76 576.64 79.1333 576.64 79.48C576.64 79.8533 576.573 80.24 576.44 80.64C576.307 81.0133 576.12 81.36 575.88 81.68C575.64 82 575.333 82.2666 574.96 82.48C574.613 82.6933 574.2 82.8 573.72 82.8H570.52ZM578.2 94.12H575.32C574.707 94.12 574.187 94.0266 573.76 93.84C573.36 93.6266 573.013 93.36 572.72 93.04C572.453 92.72 572.253 92.36 572.12 91.96C572.013 91.5333 571.96 91.12 571.96 90.72C571.96 90.32 572.013 89.92 572.12 89.52C572.253 89.12 572.453 88.76 572.72 88.44C572.987 88.0933 573.333 87.8266 573.76 87.64C574.187 87.4266 574.707 87.32 575.32 87.32H578.2V77.88C578.2 76.76 578.533 75.92 579.2 75.36C579.867 74.7733 580.667 74.48 581.6 74.48C582.507 74.48 583.307 74.7733 584 75.36C584.72 75.92 585.08 76.76 585.08 77.88V112.04H578.2V94.12ZM586.96 77.88C586.96 76.76 587.32 75.92 588.04 75.36C588.76 74.7733 589.587 74.48 590.52 74.48C590.973 74.48 591.413 74.56 591.84 74.72C592.267 74.8533 592.64 75.0666 592.96 75.36C593.307 75.6533 593.573 76.0133 593.76 76.44C593.973 76.84 594.08 77.32 594.08 77.88V112.04H586.96V77.88Z" fill="#EB322A"/>
</svg>
