<svg width="762" height="146" viewBox="0 0 762 146" fill="none" xmlns="http://www.w3.org/2000/svg">
<path d="M82 3H664" stroke="#383638" stroke-width="3" stroke-miterlimit="10"/>
<path d="M82 143H664" stroke="#383638" stroke-width="3" stroke-miterlimit="10"/>
<path d="M110.384 85.2C112.744 84.92 114.924 84.42 116.924 83.7C118.964 82.98 120.704 81.88 122.144 80.4C123.624 78.92 124.784 76.98 125.624 74.58C126.464 72.14 126.884 69.08 126.884 65.4V55.38C126.884 54.94 126.744 54.58 126.464 54.3C126.224 54.02 125.864 53.88 125.384 53.88H111.704C110.784 53.88 110.004 53.72 109.364 53.4C108.764 53.08 108.244 52.68 107.804 52.2C107.404 51.68 107.104 51.12 106.904 50.52C106.744 49.88 106.664 49.26 106.664 48.66C106.664 48.06 106.744 47.46 106.904 46.86C107.104 46.22 107.404 45.66 107.804 45.18C108.204 44.7 108.724 44.3 109.364 43.98C110.004 43.66 110.784 43.5 111.704 43.5H129.344C132.744 43.5 135.164 44.26 136.604 45.78C138.044 47.3 138.764 49.46 138.764 52.26V65.46C138.764 70.78 138.084 75.28 136.724 78.96C135.364 82.64 133.464 85.66 131.024 88.02C128.624 90.34 125.764 92.06 122.444 93.18C119.164 94.3 115.584 94.96 111.704 95.16C110.984 95.2 110.264 95.12 109.544 94.92C108.864 94.72 108.244 94.4 107.684 93.96C107.164 93.52 106.744 92.98 106.424 92.34C106.104 91.66 105.944 90.88 105.944 90C105.944 88.72 106.304 87.66 107.024 86.82C107.744 85.94 108.864 85.4 110.384 85.2ZM146.024 47.04C146.024 45.12 146.624 43.68 147.824 42.72C149.024 41.72 150.404 41.22 151.964 41.22C152.724 41.22 153.464 41.36 154.184 41.64C154.904 41.88 155.524 42.24 156.044 42.72C156.604 43.2 157.044 43.8 157.364 44.52C157.724 45.24 157.904 46.08 157.904 47.04V62.22H159.884C160.804 62.22 161.564 62.38 162.164 62.7C162.764 63.02 163.244 63.44 163.604 63.96C163.964 64.44 164.224 65 164.384 65.64C164.544 66.24 164.624 66.84 164.624 67.44C164.624 68.04 164.544 68.66 164.384 69.3C164.224 69.9 163.964 70.46 163.604 70.98C163.244 71.46 162.744 71.86 162.104 72.18C161.504 72.5 160.764 72.66 159.884 72.66H157.904V97.56H146.024V47.04ZM178.364 97.74C176.284 97.74 174.464 97.44 172.904 96.84C171.384 96.28 170.104 95.5 169.064 94.5C168.064 93.5 167.304 92.32 166.784 90.96C166.304 89.56 166.064 88.04 166.064 86.4C166.064 84.8 166.304 83.3 166.784 81.9C167.304 80.5 168.064 79.3 169.064 78.3C170.104 77.26 171.384 76.44 172.904 75.84C174.464 75.24 176.284 74.94 178.364 74.94H206.204C208.244 74.94 210.024 75.24 211.544 75.84C213.104 76.4 214.384 77.2 215.384 78.24C216.424 79.24 217.204 80.44 217.724 81.84C218.244 83.24 218.504 84.76 218.504 86.4C218.504 88.04 218.244 89.56 217.724 90.96C217.204 92.36 216.424 93.56 215.384 94.56C214.384 95.56 213.104 96.34 211.544 96.9C210.024 97.46 208.244 97.74 206.204 97.74H178.364ZM173.324 71.82C171.324 71.82 169.704 71.7 168.464 71.46C167.264 71.18 166.324 70.68 165.644 69.96C165.004 69.24 164.564 68.28 164.324 67.08C164.124 65.84 164.024 64.26 164.024 62.34V52.44C164.024 50.52 164.124 48.96 164.324 47.76C164.564 46.52 165.004 45.54 165.644 44.82C166.324 44.1 167.264 43.62 168.464 43.38C169.704 43.1 171.324 42.96 173.324 42.96H182.084C184.084 42.96 185.684 43.1 186.884 43.38C188.084 43.62 189.004 44.1 189.644 44.82C190.324 45.54 190.764 46.52 190.964 47.76C191.204 48.96 191.324 50.52 191.324 52.44V71.82H173.324ZM207.644 61.92H204.824V72.84H194.504V46.32C194.504 44.64 195.004 43.38 196.004 42.54C197.044 41.66 198.264 41.22 199.664 41.22C201.024 41.22 202.224 41.66 203.264 42.54C204.304 43.38 204.824 44.64 204.824 46.32V52.68H207.644V46.32C207.644 44.64 208.164 43.38 209.204 42.54C210.284 41.66 211.524 41.22 212.924 41.22C214.284 41.22 215.504 41.66 216.584 42.54C217.664 43.38 218.204 44.64 218.204 46.32V73.14H207.644V61.92ZM203.024 89.34C204.344 89.34 205.224 89.02 205.664 88.38C206.104 87.74 206.324 87.08 206.324 86.4C206.324 85.72 206.104 85.08 205.664 84.48C205.224 83.88 204.344 83.58 203.024 83.58H181.544C180.224 83.58 179.344 83.88 178.904 84.48C178.464 85.08 178.244 85.72 178.244 86.4C178.244 87.08 178.464 87.74 178.904 88.38C179.344 89.02 180.224 89.34 181.544 89.34H203.024ZM176.324 51.66C175.604 51.66 175.124 51.78 174.884 52.02C174.684 52.26 174.584 52.72 174.584 53.4V61.38C174.584 62.06 174.684 62.52 174.884 62.76C175.124 63 175.604 63.12 176.324 63.12H180.884V53.4C180.884 52.72 180.764 52.26 180.524 52.02C180.324 51.78 179.864 51.66 179.144 51.66H176.324ZM232.904 97.56C231.104 97.56 229.644 97.4 228.524 97.08C227.404 96.8 226.524 96.3 225.884 95.58C225.284 94.9 224.864 93.98 224.624 92.82C224.424 91.66 224.324 90.2 224.324 88.44V84.12C224.324 82.4 224.424 80.96 224.624 79.8C224.864 78.6 225.284 77.66 225.884 76.98C226.524 76.26 227.404 75.76 228.524 75.48C229.644 75.16 231.104 75 232.904 75H266.564C268.364 75 269.824 75.16 270.944 75.48C272.064 75.76 272.924 76.26 273.524 76.98C274.164 77.66 274.584 78.6 274.784 79.8C275.024 80.96 275.144 82.4 275.144 84.12V97.56H232.904ZM244.184 52.74V53.88C244.184 54.92 244.124 55.92 244.004 56.88C248.484 57.08 251.804 58.44 253.964 60.96C256.124 63.44 257.164 67.26 257.084 72.42H245.924C246.084 70.14 245.684 68.4 244.724 67.2C243.764 65.96 242.424 65.36 240.704 65.4C238.984 67.8 236.824 69.64 234.224 70.92C231.664 72.2 229.004 72.88 226.244 72.96C224.764 73.04 223.484 72.68 222.404 71.88C221.364 71.04 220.804 69.94 220.724 68.58C220.644 67.18 220.924 66.06 221.564 65.22C222.244 64.34 223.184 63.8 224.384 63.6C227.104 63.16 229.184 62.06 230.624 60.3C232.064 58.54 232.784 56.4 232.784 53.88V52.74H225.524C224.804 52.74 224.164 52.6 223.604 52.32C223.084 52 222.644 51.62 222.284 51.18C221.924 50.7 221.644 50.18 221.444 49.62C221.244 49.06 221.144 48.5 221.144 47.94C221.144 47.42 221.224 46.88 221.384 46.32C221.544 45.72 221.804 45.18 222.164 44.7C222.524 44.22 222.984 43.84 223.544 43.56C224.104 43.24 224.764 43.08 225.524 43.08H252.344C253.104 43.08 253.764 43.24 254.324 43.56C254.884 43.84 255.344 44.22 255.704 44.7C256.064 45.18 256.324 45.72 256.484 46.32C256.644 46.88 256.724 47.42 256.724 47.94C256.724 48.5 256.624 49.06 256.424 49.62C256.224 50.18 255.944 50.7 255.584 51.18C255.224 51.62 254.764 52 254.204 52.32C253.684 52.6 253.064 52.74 252.344 52.74H244.184ZM262.904 61.98H259.484C258.564 61.98 257.804 61.84 257.204 61.56C256.604 61.28 256.104 60.92 255.704 60.48C255.344 60.04 255.084 59.52 254.924 58.92C254.764 58.32 254.684 57.72 254.684 57.12C254.684 56.52 254.764 55.94 254.924 55.38C255.084 54.78 255.344 54.26 255.704 53.82C256.064 53.34 256.544 52.96 257.144 52.68C257.784 52.4 258.564 52.26 259.484 52.26H262.904V47.04C262.904 45.12 263.504 43.68 264.704 42.72C265.904 41.72 267.284 41.22 268.844 41.22C269.604 41.22 270.344 41.36 271.064 41.64C271.784 41.88 272.424 42.24 272.984 42.72C273.544 43.2 273.984 43.8 274.304 44.52C274.664 45.24 274.844 46.08 274.844 47.04V72.84H262.904V61.98ZM236.144 87.48C236.144 88.2 236.224 88.66 236.384 88.86C236.584 89.02 236.984 89.1 237.584 89.1H263.324V84.96C263.324 84.28 263.224 83.86 263.024 83.7C262.824 83.5 262.424 83.4 261.824 83.4H237.584C236.984 83.4 236.584 83.5 236.384 83.7C236.224 83.86 236.144 84.28 236.144 84.96V87.48ZM324.12 83.58H319.56C319.28 87.98 318.06 91.26 315.9 93.42C313.78 95.58 310.72 96.66 306.72 96.66C302.48 96.66 299.22 95.44 296.94 93C294.7 90.6 293.58 86.9 293.58 81.9V57.36C293.58 52.36 294.7 48.66 296.94 46.26C299.22 43.82 302.48 42.6 306.72 42.6C310.36 42.6 313.24 43.52 315.36 45.36C317.52 47.16 318.86 49.94 319.38 53.7H324.12V46.2C324.12 44.52 324.62 43.28 325.62 42.48C326.66 41.64 327.88 41.22 329.28 41.22C330.64 41.22 331.82 41.64 332.82 42.48C333.86 43.28 334.38 44.52 334.38 46.2V97.56H324.12V83.58ZM337.26 46.32C337.26 44.64 337.78 43.38 338.82 42.54C339.9 41.66 341.14 41.22 342.54 41.22C343.9 41.22 345.12 41.66 346.2 42.54C347.28 43.38 347.82 44.64 347.82 46.32V97.56H337.26V46.32ZM306.72 87.42C307.36 87.42 307.94 87.18 308.46 86.7C308.98 86.22 309.24 85.34 309.24 84.06V55.2C309.24 53.92 308.98 53.04 308.46 52.56C307.94 52.08 307.36 51.84 306.72 51.84C306.08 51.84 305.5 52.08 304.98 52.56C304.5 53.04 304.26 53.92 304.26 55.2V84.06C304.26 85.34 304.5 86.22 304.98 86.7C305.5 87.18 306.08 87.42 306.72 87.42ZM319.62 73.92H324.12V63.36H319.62V73.92ZM353.58 85.98C353.58 84.38 353.84 82.86 354.36 81.42C354.88 79.98 355.64 78.74 356.64 77.7C357.68 76.62 358.98 75.78 360.54 75.18C362.1 74.54 363.92 74.22 366 74.22H391.38C393.42 74.22 395.22 74.52 396.78 75.12C398.34 75.72 399.64 76.56 400.68 77.64C401.72 78.68 402.5 79.92 403.02 81.36C403.54 82.8 403.8 84.34 403.8 85.98C403.8 87.62 403.54 89.16 403.02 90.6C402.5 92.04 401.72 93.28 400.68 94.32C399.64 95.4 398.34 96.24 396.78 96.84C395.22 97.44 393.42 97.74 391.38 97.74H366C363.92 97.74 362.1 97.42 360.54 96.78C358.98 96.18 357.68 95.34 356.64 94.26C355.64 93.22 354.88 92 354.36 90.6C353.84 89.16 353.58 87.62 353.58 85.98ZM352.92 62.88C356.04 62 358.36 60.36 359.88 57.96C361.4 55.52 362.16 52.12 362.16 47.76V47.4C362.16 46.44 362.32 45.62 362.64 44.94C363 44.22 363.46 43.64 364.02 43.2C364.62 42.72 365.28 42.38 366 42.18C366.76 41.94 367.54 41.82 368.34 41.82C369.9 41.86 371.24 42.36 372.36 43.32C373.52 44.24 374.1 45.6 374.1 47.4V47.76C374.1 48.72 374.06 49.64 373.98 50.52C373.94 51.4 373.84 52.26 373.68 53.1C375.76 53.38 377.66 53.94 379.38 54.78C381.1 55.62 382.54 56.8 383.7 58.32C384.9 59.8 385.8 61.62 386.4 63.78C387.04 65.94 387.3 68.48 387.18 71.4H375.6C375.8 68.8 375.48 66.74 374.64 65.22C373.8 63.66 372.48 62.68 370.68 62.28C368.96 65.36 366.82 67.76 364.26 69.48C361.7 71.16 359 72.16 356.16 72.48C354.6 72.64 353.26 72.36 352.14 71.64C351.02 70.88 350.34 69.98 350.1 68.94C349.7 67.58 349.76 66.32 350.28 65.16C350.84 63.96 351.72 63.2 352.92 62.88ZM390.96 47.16C390.96 45.2 391.54 43.72 392.7 42.72C393.9 41.72 395.3 41.22 396.9 41.22C398.46 41.22 399.84 41.74 401.04 42.78C402.24 43.78 402.84 45.24 402.84 47.16V52.08H404.7C405.62 52.08 406.38 52.24 406.98 52.56C407.58 52.88 408.06 53.28 408.42 53.76C408.78 54.24 409.04 54.8 409.2 55.44C409.36 56.04 409.44 56.64 409.44 57.24C409.44 57.84 409.36 58.46 409.2 59.1C409.04 59.7 408.78 60.26 408.42 60.78C408.06 61.26 407.56 61.66 406.92 61.98C406.32 62.26 405.58 62.4 404.7 62.4H402.84V72.78H390.96V47.16ZM365.76 85.98C365.76 86.74 366 87.5 366.48 88.26C366.96 88.98 367.86 89.34 369.18 89.34H388.2C389.52 89.34 390.42 88.98 390.9 88.26C391.38 87.5 391.62 86.74 391.62 85.98C391.62 85.22 391.38 84.48 390.9 83.76C390.42 83 389.52 82.62 388.2 82.62H369.18C367.86 82.62 366.96 83 366.48 83.76C366 84.48 365.76 85.22 365.76 85.98ZM471.016 42.48C471.776 42.48 472.416 42.62 472.936 42.9C473.456 43.14 473.876 43.46 474.196 43.86C474.516 44.26 474.756 44.72 474.916 45.24C475.076 45.72 475.156 46.22 475.156 46.74C475.156 47.78 474.836 48.72 474.196 49.56C473.596 50.4 472.536 50.82 471.016 50.82H438.436C437.356 50.82 436.816 51.3 436.816 52.26V53.76H470.596C472.116 53.76 473.196 54.18 473.836 55.02C474.476 55.82 474.796 56.74 474.796 57.78C474.796 58.82 474.476 59.76 473.836 60.6C473.196 61.4 472.116 61.8 470.596 61.8H436.816V63.24C436.816 63.8 436.936 64.18 437.176 64.38C437.456 64.58 437.876 64.68 438.436 64.68H471.916C473.436 64.68 474.516 65.12 475.156 66C475.796 66.84 476.116 67.78 476.116 68.82C476.116 69.86 475.796 70.8 475.156 71.64C474.516 72.48 473.436 72.9 471.916 72.9H433.276C430.116 72.9 427.876 72.24 426.556 70.92C425.276 69.6 424.636 67.46 424.636 64.5V50.94C424.636 48.02 425.276 45.88 426.556 44.52C427.876 43.16 430.116 42.48 433.276 42.48H471.016ZM456.136 85.5V97.86H443.896V85.5H426.976C425.176 85.5 423.876 85 423.076 84C422.316 83 421.936 81.88 421.936 80.64C421.936 80.04 422.016 79.46 422.176 78.9C422.376 78.3 422.676 77.76 423.076 77.28C423.476 76.8 423.996 76.42 424.636 76.14C425.276 75.86 426.056 75.72 426.976 75.72H473.056C473.976 75.72 474.756 75.86 475.396 76.14C476.036 76.42 476.556 76.8 476.956 77.28C477.356 77.76 477.636 78.3 477.796 78.9C477.996 79.46 478.096 80.04 478.096 80.64C478.096 81.88 477.696 83 476.896 84C476.136 85 474.856 85.5 473.056 85.5H456.136ZM491.416 53.76H483.736C482.816 53.76 482.036 53.62 481.396 53.34C480.796 53.02 480.276 52.62 479.836 52.14C479.436 51.66 479.136 51.12 478.936 50.52C478.776 49.88 478.696 49.26 478.696 48.66C478.696 48.06 478.776 47.46 478.936 46.86C479.136 46.22 479.436 45.66 479.836 45.18C480.236 44.7 480.756 44.3 481.396 43.98C482.036 43.66 482.816 43.5 483.736 43.5H510.856C511.776 43.5 512.536 43.66 513.136 43.98C513.776 44.3 514.296 44.7 514.696 45.18C515.096 45.66 515.376 46.22 515.536 46.86C515.696 47.46 515.776 48.06 515.776 48.66C515.776 49.26 515.676 49.88 515.476 50.52C515.316 51.12 515.036 51.66 514.636 52.14C514.276 52.62 513.776 53.02 513.136 53.34C512.496 53.62 511.736 53.76 510.856 53.76H503.056V60.24C503.056 61.64 503.016 62.98 502.936 64.26C502.856 65.54 502.736 66.78 502.576 67.98C504.736 68.74 506.676 69.76 508.396 71.04C510.116 72.32 511.556 74 512.716 76.08C513.876 78.12 514.716 80.62 515.236 83.58C515.796 86.54 515.996 90.08 515.836 94.2H504.616C504.976 90.2 504.756 86.94 503.956 84.42C503.196 81.9 501.916 79.98 500.116 78.66C498.716 82.46 496.856 85.66 494.536 88.26C492.216 90.86 489.496 92.8 486.376 94.08C485.736 94.36 485.036 94.5 484.276 94.5C483.556 94.54 482.836 94.46 482.116 94.26C481.436 94.1 480.796 93.82 480.196 93.42C479.636 93.06 479.216 92.58 478.936 91.98C478.336 90.86 478.176 89.68 478.456 88.44C478.776 87.2 479.536 86.2 480.736 85.44C482.616 84.28 484.216 82.92 485.536 81.36C486.896 79.8 488.016 78 488.896 75.96C489.776 73.88 490.416 71.52 490.816 68.88C491.216 66.24 491.416 63.26 491.416 59.94V53.76ZM520.456 47.04C520.456 45.12 521.056 43.68 522.256 42.72C523.456 41.72 524.836 41.22 526.396 41.22C527.156 41.22 527.896 41.36 528.616 41.64C529.336 41.88 529.956 42.24 530.476 42.72C531.036 43.2 531.476 43.8 531.796 44.52C532.156 45.24 532.336 46.08 532.336 47.04V62.22H534.316C535.236 62.22 535.996 62.38 536.596 62.7C537.196 63.02 537.676 63.44 538.036 63.96C538.396 64.44 538.656 65 538.816 65.64C538.976 66.24 539.056 66.84 539.056 67.44C539.056 68.04 538.976 68.66 538.816 69.3C538.656 69.9 538.396 70.46 538.036 70.98C537.676 71.46 537.176 71.86 536.536 72.18C535.936 72.5 535.196 72.66 534.316 72.66H532.336V97.56H520.456V47.04ZM547.576 94.98C545.816 94.98 544.376 94.82 543.256 94.5C542.136 94.18 541.256 93.66 540.616 92.94C539.976 92.22 539.516 91.3 539.236 90.18C538.996 89.02 538.876 87.62 538.876 85.98V49.14C538.876 47.02 539.436 45.5 540.556 44.58C541.676 43.66 543.116 43.2 544.876 43.2C546.596 43.2 547.976 43.68 549.016 44.64C550.096 45.56 550.636 47.06 550.636 49.14V58.32H561.436V49.14C561.436 47.02 561.976 45.5 563.056 44.58C564.136 43.66 565.536 43.2 567.256 43.2C569.016 43.2 570.416 43.68 571.456 44.64C572.536 45.56 573.076 47.06 573.076 49.14V94.98H547.576ZM579.676 97.56V47.16C579.676 45.2 580.276 43.72 581.476 42.72C582.676 41.72 584.076 41.22 585.676 41.22C587.276 41.22 588.676 41.72 589.876 42.72C591.076 43.72 591.676 45.2 591.676 47.16V97.56H579.676ZM561.436 85.08V68.1H550.636V83.52C550.636 84.2 550.736 84.64 550.936 84.84C551.176 85 551.636 85.08 552.316 85.08H561.436ZM605.776 65.94V61.92C602.696 61.56 600.376 60.48 598.816 58.68C597.296 56.84 596.536 54.64 596.536 52.08V51.96C596.536 50.52 596.776 49.2 597.256 48C597.736 46.76 598.456 45.7 599.416 44.82C600.376 43.9 601.576 43.2 603.016 42.72C604.456 42.2 606.116 41.94 607.996 41.94H637.636C639.516 41.94 641.176 42.2 642.616 42.72C644.056 43.2 645.256 43.9 646.216 44.82C647.176 45.7 647.896 46.76 648.376 48C648.856 49.2 649.096 50.52 649.096 51.96V52.08C649.096 54.64 648.316 56.84 646.756 58.68C645.236 60.48 642.936 61.56 639.856 61.92V65.94H646.216C647.936 65.94 649.136 66.4 649.816 67.32C650.536 68.24 650.896 69.26 650.896 70.38C650.896 71.54 650.536 72.56 649.816 73.44C649.096 74.32 647.896 74.76 646.216 74.76H599.416C597.736 74.76 596.536 74.32 595.816 73.44C595.096 72.56 594.736 71.54 594.736 70.38C594.736 69.26 595.076 68.24 595.756 67.32C596.476 66.4 597.696 65.94 599.416 65.94H605.776ZM637.696 77.46C639.576 77.46 641.216 77.72 642.616 78.24C644.016 78.76 645.176 79.48 646.096 80.4C647.056 81.28 647.756 82.34 648.196 83.58C648.676 84.82 648.916 86.16 648.916 87.6C648.916 89.04 648.676 90.38 648.196 91.62C647.756 92.86 647.056 93.92 646.096 94.8C645.176 95.72 644.016 96.44 642.616 96.96C641.216 97.48 639.576 97.74 637.696 97.74H607.936C606.056 97.74 604.396 97.48 602.956 96.96C601.556 96.44 600.396 95.72 599.476 94.8C598.556 93.92 597.856 92.86 597.376 91.62C596.936 90.38 596.716 89.04 596.716 87.6C596.716 86.16 596.936 84.82 597.376 83.58C597.856 82.34 598.556 81.28 599.476 80.4C600.396 79.48 601.556 78.76 602.956 78.24C604.396 77.72 606.056 77.46 607.936 77.46H637.696ZM633.976 89.64C635.136 89.64 635.876 89.42 636.196 88.98C636.516 88.5 636.676 88.04 636.676 87.6C636.676 87.16 636.516 86.72 636.196 86.28C635.876 85.8 635.136 85.56 633.976 85.56H611.656C610.496 85.56 609.756 85.8 609.436 86.28C609.116 86.72 608.956 87.16 608.956 87.6C608.956 88.04 609.116 88.5 609.436 88.98C609.756 89.42 610.496 89.64 611.656 89.64H633.976ZM608.656 52.14C608.656 52.66 608.836 53.08 609.196 53.4C609.556 53.72 610.276 53.88 611.356 53.88H634.276C635.356 53.88 636.076 53.72 636.436 53.4C636.796 53.08 636.976 52.66 636.976 52.14V51.9C636.976 51.46 636.796 51.08 636.436 50.76C636.076 50.4 635.356 50.22 634.276 50.22H611.356C610.276 50.22 609.556 50.4 609.196 50.76C608.836 51.08 608.656 51.46 608.656 51.9V52.14ZM617.236 65.94H628.396V62.04H617.236V65.94Z" fill="#383638"/>
</svg>
