<svg width="714" height="759" viewBox="0 0 714 759" fill="none" xmlns="http://www.w3.org/2000/svg">
<path d="M3.2832 206.845V3.2843H337.514V254.68L3.2832 206.845Z" fill="white"/>
<path d="M334.231 6.56858V250.904L6.56642 204.004V6.56858H334.231ZM340.797 0H0V209.702L340.797 258.474V0Z" fill="#CD2C25"/>
<path d="M66.9281 78.9659C67.5441 78.9659 68.0281 79.0319 68.3801 79.1639C68.7321 79.2739 68.9961 79.4389 69.1721 79.6589C69.3701 79.8569 69.4911 80.0989 69.5351 80.3849C69.5791 80.6489 69.6011 80.9459 69.6011 81.2759V103.749C69.6011 104.079 69.5791 104.376 69.5351 104.64C69.4911 104.926 69.3701 105.168 69.1721 105.366C68.9961 105.586 68.7321 105.751 68.3801 105.861C68.0281 105.993 67.5441 106.059 66.9281 106.059H60.1961C59.5801 106.059 59.0961 105.993 58.7441 105.861C58.3921 105.751 58.1171 105.586 57.9191 105.366C57.7431 105.168 57.6331 104.926 57.5891 104.64C57.5451 104.376 57.5231 104.079 57.5231 103.749V81.2759C57.5231 80.9459 57.5451 80.6489 57.5891 80.3849C57.6331 80.0989 57.7431 79.8569 57.9191 79.6589C58.1171 79.4389 58.3921 79.2739 58.7441 79.1639C59.0961 79.0319 59.5801 78.9659 60.1961 78.9659H66.9281ZM72.2411 81.4409C72.2411 80.3409 72.4721 79.5929 72.9341 79.1969C73.4181 78.7789 73.9681 78.5699 74.5841 78.5699C75.1781 78.5699 75.7061 78.7789 76.1681 79.1969C76.6521 79.5929 76.8941 80.3409 76.8941 81.4409V89.0309H79.5341V81.4409C79.5341 80.3409 79.7651 79.5929 80.2271 79.1969C80.7111 78.7789 81.2611 78.5699 81.8771 78.5699C82.4711 78.5699 82.9991 78.7789 83.4611 79.1969C83.9451 79.5929 84.1871 80.3409 84.1871 81.4409V103.98C84.1871 104.552 84.1211 105.025 83.9891 105.399C83.8571 105.773 83.6811 106.07 83.4611 106.29C83.2631 106.51 83.0211 106.664 82.7351 106.752C82.4491 106.84 82.1631 106.884 81.8771 106.884C81.5691 106.884 81.2721 106.84 80.9861 106.752C80.7001 106.664 80.4471 106.51 80.2271 106.29C80.0291 106.07 79.8641 105.773 79.7321 105.399C79.6001 105.025 79.5341 104.552 79.5341 103.98V93.5849H76.8941V103.98C76.8941 104.552 76.8281 105.025 76.6961 105.399C76.5641 105.773 76.3881 106.07 76.1681 106.29C75.9701 106.51 75.7281 106.664 75.4421 106.752C75.1561 106.84 74.8701 106.884 74.5841 106.884C74.2761 106.884 73.9791 106.84 73.6931 106.752C73.4071 106.664 73.1541 106.51 72.9341 106.29C72.7361 106.07 72.5711 105.773 72.4391 105.399C72.3071 105.025 72.2411 104.552 72.2411 103.98V81.4409ZM62.4401 101.505H64.6841V83.5199H62.4401V101.505Z" fill="#EB322A"/>
<path d="M107.327 81.4409C107.327 80.3409 107.591 79.5929 108.119 79.1969C108.669 78.7789 109.296 78.5699 110 78.5699C110.352 78.5699 110.682 78.6139 110.99 78.7019C111.32 78.7899 111.606 78.9439 111.848 79.1639C112.09 79.3839 112.288 79.6809 112.442 80.0549C112.596 80.4289 112.673 80.8909 112.673 81.4409V89.2289C112.673 89.8009 112.596 90.2739 112.442 90.6479C112.288 91.0219 112.09 91.3189 111.848 91.5389C111.606 91.7589 111.32 91.9129 110.99 92.0009C110.682 92.0889 110.352 92.1329 110 92.1329C109.648 92.1329 109.307 92.0889 108.977 92.0009C108.669 91.9129 108.383 91.7589 108.119 91.5389C107.877 91.3189 107.679 91.0219 107.525 90.6479C107.393 90.2739 107.327 89.8009 107.327 89.2289V81.4409ZM93.1695 101.835V103.287H110.759C111.837 103.287 112.552 103.474 112.904 103.848C113.256 104.222 113.432 104.684 113.432 105.234C113.432 105.872 113.256 106.356 112.904 106.686C112.552 107.038 111.837 107.214 110.759 107.214H90.4965C89.8805 107.214 89.3965 107.159 89.0445 107.049C88.6925 106.939 88.4175 106.785 88.2195 106.587C88.0435 106.411 87.9335 106.191 87.8895 105.927C87.8455 105.663 87.8235 105.366 87.8235 105.036V100.119C87.8235 99.8989 87.8455 99.6789 87.8895 99.4589C87.9555 99.2389 88.0765 99.0409 88.2525 98.8649C88.4285 98.6889 88.6815 98.5569 89.0115 98.4689C89.3415 98.3589 89.7815 98.3039 90.3315 98.3039H107.327V96.9509H90.2325C89.6825 96.9509 89.2425 96.9069 88.9125 96.8189C88.5825 96.7309 88.3295 96.6099 88.1535 96.4559C87.9775 96.2799 87.8565 96.0819 87.7905 95.8619C87.7465 95.6199 87.7245 95.3559 87.7245 95.0699C87.7245 94.8499 87.7465 94.6189 87.7905 94.3769C87.8565 94.1349 87.9775 93.9259 88.1535 93.7499C88.3295 93.5739 88.5825 93.4309 88.9125 93.3209C89.2425 93.1889 89.6825 93.1229 90.2325 93.1229H110.165C110.693 93.1229 111.122 93.1889 111.452 93.3209C111.782 93.4309 112.035 93.5739 112.211 93.7499C112.409 93.9259 112.53 94.1349 112.574 94.3769C112.64 94.5969 112.673 94.8169 112.673 95.0369V100.053C112.673 100.317 112.64 100.559 112.574 100.779C112.508 100.999 112.376 101.186 112.178 101.34C112.002 101.494 111.749 101.615 111.419 101.703C111.111 101.791 110.693 101.835 110.165 101.835H93.1695ZM86.2725 85.1699C86.2725 83.9379 86.4155 82.9149 86.7015 82.1009C87.0095 81.2869 87.4605 80.6379 88.0545 80.1539C88.6705 79.6479 89.4405 79.2959 90.3645 79.0979C91.3105 78.8999 92.4325 78.8009 93.7305 78.8009C95.0065 78.8009 96.1175 78.8999 97.0635 79.0979C98.0095 79.2959 98.7795 79.6479 99.3735 80.1539C99.9895 80.6379 100.441 81.2869 100.727 82.1009C101.035 82.9149 101.189 83.9379 101.189 85.1699C101.189 86.4899 101.035 87.5679 100.727 88.4039C100.441 89.2179 99.9895 89.8559 99.3735 90.3179C98.7795 90.7799 98.0095 91.0989 97.0635 91.2749C96.1175 91.4289 95.0065 91.5059 93.7305 91.5059C92.4325 91.5059 91.3105 91.4069 90.3645 91.2089C89.4405 91.0109 88.6705 90.6699 88.0545 90.1859C87.4605 89.7019 87.0095 89.0529 86.7015 88.2389C86.4155 87.4249 86.2725 86.4019 86.2725 85.1699ZM91.6515 85.1699C91.6515 86.0939 91.7725 86.7319 92.0145 87.0839C92.2785 87.4139 92.8505 87.5789 93.7305 87.5789C94.6105 87.5789 95.1715 87.4139 95.4135 87.0839C95.6775 86.7319 95.8095 86.0939 95.8095 85.1699C95.8095 84.2459 95.6775 83.6189 95.4135 83.2889C95.1715 82.9369 94.6105 82.7609 93.7305 82.7609C92.8505 82.7609 92.2785 82.9369 92.0145 83.2889C91.7725 83.6189 91.6515 84.2459 91.6515 85.1699Z" fill="#EB322A"/>
<path d="M123.035 81.4079C123.035 81.0779 123.068 80.7809 123.134 80.5169C123.222 80.2309 123.376 79.9889 123.596 79.7909C123.816 79.5709 124.124 79.4059 124.52 79.2959C124.916 79.1639 125.422 79.0979 126.038 79.0979H136.004C136.62 79.0979 137.126 79.1639 137.522 79.2959C137.918 79.4059 138.226 79.5709 138.446 79.7909C138.666 79.9889 138.809 80.2309 138.875 80.5169C138.963 80.7809 139.007 81.0779 139.007 81.4079C139.007 81.6719 138.963 81.9469 138.875 82.2329C138.809 82.4969 138.666 82.7389 138.446 82.9589C138.226 83.1569 137.918 83.3219 137.522 83.4539C137.126 83.5859 136.62 83.6519 136.004 83.6519H133.925C133.969 84.4439 134.09 85.1369 134.288 85.7309C134.508 86.3029 134.794 86.8199 135.146 87.2819C135.498 87.7439 135.916 88.1729 136.4 88.5689C136.906 88.9429 137.478 89.3389 138.116 89.7569C138.82 90.2409 139.282 90.7799 139.502 91.3739C139.744 91.9679 139.645 92.6169 139.205 93.3209C138.963 93.6949 138.666 93.9809 138.314 94.1789C137.984 94.3549 137.621 94.4539 137.225 94.4759C136.983 94.4759 136.73 94.4539 136.466 94.4099C136.202 94.3439 135.949 94.2229 135.707 94.0469C134.937 93.4749 134.178 92.8479 133.43 92.1659C132.682 91.4619 131.989 90.7249 131.351 89.9549C130.779 90.7249 130.13 91.4509 129.404 92.1329C128.678 92.7929 127.908 93.3539 127.094 93.8159C126.808 93.9919 126.489 94.1349 126.137 94.2449C125.807 94.3549 125.466 94.4209 125.114 94.4429C124.74 94.4649 124.355 94.3989 123.959 94.2449C123.563 94.0909 123.233 93.7939 122.969 93.3539C122.529 92.6499 122.419 92.0009 122.639 91.4069C122.859 90.8129 123.332 90.2739 124.058 89.7899C124.762 89.3279 125.378 88.8989 125.906 88.5029C126.434 88.1069 126.874 87.6889 127.226 87.2489C127.6 86.7869 127.886 86.2809 128.084 85.7309C128.282 85.1589 128.403 84.4659 128.447 83.6519H126.038C125.422 83.6519 124.916 83.5859 124.52 83.4539C124.124 83.3219 123.816 83.1569 123.596 82.9589C123.376 82.7389 123.222 82.4969 123.134 82.2329C123.068 81.9469 123.035 81.6719 123.035 81.4079ZM144.056 100.548H127.523C126.907 100.548 126.401 100.482 126.005 100.35C125.609 100.218 125.301 100.053 125.081 99.8549C124.861 99.6349 124.707 99.3929 124.619 99.1289C124.553 98.8429 124.52 98.5679 124.52 98.3039C124.52 97.9739 124.553 97.6769 124.619 97.4129C124.707 97.1269 124.861 96.8849 125.081 96.6869C125.301 96.4669 125.609 96.3019 126.005 96.1919C126.401 96.0599 126.907 95.9939 127.523 95.9939H146.729C147.345 95.9939 147.829 96.0599 148.181 96.1919C148.533 96.3019 148.797 96.4669 148.973 96.6869C149.171 96.8849 149.292 97.1269 149.336 97.4129C149.38 97.6769 149.402 97.9739 149.402 98.3039V104.376C149.402 104.926 149.325 105.388 149.171 105.762C149.017 106.136 148.819 106.433 148.577 106.653C148.335 106.873 148.049 107.027 147.719 107.115C147.411 107.203 147.081 107.247 146.729 107.247C146.025 107.247 145.398 107.038 144.848 106.62C144.32 106.224 144.056 105.476 144.056 104.376V100.548ZM143.99 81.4409C143.99 80.3409 144.254 79.5929 144.782 79.1969C145.332 78.7789 145.959 78.5699 146.663 78.5699C147.015 78.5699 147.345 78.6139 147.653 78.7019C147.983 78.7899 148.269 78.9439 148.511 79.1639C148.753 79.3839 148.951 79.6809 149.105 80.0549C149.259 80.4289 149.336 80.8909 149.336 81.4409V91.8029C149.336 92.3749 149.259 92.8479 149.105 93.2219C148.951 93.5959 148.753 93.8929 148.511 94.1129C148.269 94.3329 147.983 94.4869 147.653 94.5749C147.345 94.6629 147.015 94.7069 146.663 94.7069C146.311 94.7069 145.97 94.6629 145.64 94.5749C145.332 94.4869 145.046 94.3329 144.782 94.1129C144.54 93.8929 144.342 93.5959 144.188 93.2219C144.056 92.8479 143.99 92.3749 143.99 91.8029V81.4409Z" fill="#EB322A"/>
<path d="M156.107 107.28C155.491 107.28 155.007 107.214 154.655 107.082C154.303 106.972 154.028 106.807 153.83 106.587C153.654 106.389 153.544 106.147 153.5 105.861C153.456 105.597 153.434 105.3 153.434 104.97V97.4789C153.434 96.3789 153.676 95.6309 154.16 95.2349C154.644 94.8169 155.238 94.6079 155.942 94.6079C156.58 94.6079 157.152 94.7839 157.658 95.1359C158.186 95.4659 158.494 96.0929 158.582 97.0169H173.168C173.256 96.0929 173.564 95.4659 174.092 95.1359C174.62 94.7839 175.203 94.6079 175.841 94.6079C176.193 94.6079 176.512 94.6519 176.798 94.7399C177.106 94.8279 177.37 94.9819 177.59 95.2019C177.832 95.4219 178.019 95.7189 178.151 96.0929C178.283 96.4669 178.349 96.9289 178.349 97.4789V104.97C178.349 105.3 178.327 105.597 178.283 105.861C178.239 106.147 178.118 106.389 177.92 106.587C177.744 106.807 177.48 106.972 177.128 107.082C176.776 107.214 176.292 107.28 175.676 107.28H156.107ZM152.114 81.2759C152.114 80.9459 152.147 80.6489 152.213 80.3849C152.301 80.1209 152.455 79.9009 152.675 79.7249C152.895 79.5269 153.203 79.3729 153.599 79.2629C153.995 79.1529 154.501 79.0979 155.117 79.0979H164.918C165.534 79.0979 166.04 79.1529 166.436 79.2629C166.832 79.3729 167.14 79.5269 167.36 79.7249C167.58 79.9009 167.723 80.1209 167.789 80.3849C167.877 80.6489 167.921 80.9459 167.921 81.2759C167.921 81.5399 167.877 81.8039 167.789 82.0679C167.723 82.3099 167.58 82.5299 167.36 82.7279C167.14 82.9259 166.832 83.0909 166.436 83.2229C166.04 83.3329 165.534 83.3879 164.918 83.3879H162.905C162.971 84.0259 163.081 84.5979 163.235 85.1039C163.411 85.6099 163.653 86.0939 163.961 86.5559C164.291 86.9959 164.687 87.4249 165.149 87.8429C165.611 88.2609 166.172 88.7009 166.832 89.1629C167.536 89.6689 167.998 90.2189 168.218 90.8129C168.438 91.3849 168.328 92.0229 167.888 92.7269C167.646 93.1009 167.349 93.3869 166.997 93.5849C166.667 93.7609 166.304 93.8599 165.908 93.8819C165.666 93.8819 165.413 93.8599 165.149 93.8159C164.885 93.7499 164.632 93.6289 164.39 93.4529C163.62 92.8809 162.872 92.2429 162.146 91.5389C161.442 90.8129 160.782 90.0319 160.166 89.1959C159.594 89.9879 158.945 90.7249 158.219 91.4069C157.515 92.0889 156.778 92.6499 156.008 93.0899C155.722 93.2659 155.403 93.4089 155.051 93.5189C154.721 93.6289 154.38 93.6949 154.028 93.7169C153.654 93.7389 153.269 93.6729 152.873 93.5189C152.477 93.3649 152.147 93.0679 151.883 92.6279C151.443 91.9239 151.333 91.2859 151.553 90.7139C151.795 90.1199 152.268 89.5699 152.972 89.0639C153.698 88.5359 154.314 88.0629 154.82 87.6449C155.348 87.2269 155.777 86.8089 156.107 86.3909C156.459 85.9729 156.723 85.5329 156.899 85.0709C157.097 84.5869 157.229 84.0259 157.295 83.3879H155.117C154.501 83.3879 153.995 83.3329 153.599 83.2229C153.203 83.0909 152.895 82.9259 152.675 82.7279C152.455 82.5299 152.301 82.3099 152.213 82.0679C152.147 81.8039 152.114 81.5399 152.114 81.2759ZM173.036 88.9979H169.934C169.318 88.9979 168.812 88.9429 168.416 88.8329C168.02 88.7009 167.701 88.5359 167.459 88.3379C167.239 88.1179 167.085 87.8759 166.997 87.6119C166.909 87.3259 166.865 87.0179 166.865 86.6879C166.865 86.4239 166.898 86.1599 166.964 85.8959C167.052 85.6099 167.206 85.3679 167.426 85.1699C167.646 84.9499 167.954 84.7739 168.35 84.6419C168.746 84.5099 169.252 84.4439 169.868 84.4439H173.036V81.4409C173.036 80.3409 173.3 79.5929 173.828 79.1969C174.378 78.7789 175.005 78.5699 175.709 78.5699C176.061 78.5699 176.391 78.6139 176.699 78.7019C177.029 78.7899 177.315 78.9439 177.557 79.1639C177.799 79.3839 177.997 79.6809 178.151 80.0549C178.305 80.4289 178.382 80.8909 178.382 81.4409V90.8789C178.382 91.4509 178.305 91.9239 178.151 92.2979C177.997 92.6719 177.799 92.9689 177.557 93.1889C177.315 93.4089 177.029 93.5629 176.699 93.6509C176.391 93.7389 176.061 93.7829 175.709 93.7829C175.357 93.7829 175.016 93.7389 174.686 93.6509C174.378 93.5629 174.092 93.4089 173.828 93.1889C173.586 92.9689 173.388 92.6719 173.234 92.2979C173.102 91.9239 173.036 91.4509 173.036 90.8789V88.9979ZM173.168 101.241H158.615V103.089H173.168V101.241Z" fill="#EB322A"/>
<path d="M189.338 81.4739C189.338 80.4619 189.602 79.7909 190.13 79.4609C190.658 79.1089 191.395 78.9329 192.341 78.9329H200.525C201.141 78.9329 201.625 78.9989 201.977 79.1309C202.329 79.2409 202.593 79.4059 202.769 79.6259C202.967 79.8239 203.088 80.0659 203.132 80.3519C203.176 80.6159 203.198 80.9129 203.198 81.2429V92.2979C203.198 92.8479 203.121 93.3099 202.967 93.6839C202.835 94.0359 202.637 94.3219 202.373 94.5419C202.109 94.7619 201.801 94.9269 201.449 95.0369C201.097 95.1249 200.712 95.1689 200.294 95.1689H192.011C191.395 95.1689 190.911 95.1139 190.559 95.0039C190.207 94.8719 189.932 94.7069 189.734 94.5089C189.558 94.2889 189.448 94.0469 189.404 93.7829C189.36 93.4969 189.338 93.1889 189.338 92.8589V81.4739ZM195.278 102.693H211.613C212.229 102.693 212.735 102.759 213.131 102.891C213.527 103.023 213.835 103.188 214.055 103.386C214.275 103.606 214.418 103.848 214.484 104.112C214.572 104.398 214.616 104.673 214.616 104.937C214.616 105.267 214.572 105.564 214.484 105.828C214.418 106.114 214.275 106.356 214.055 106.554C213.835 106.774 213.527 106.939 213.131 107.049C212.735 107.181 212.229 107.247 211.613 107.247H192.605C191.989 107.247 191.505 107.181 191.153 107.049C190.801 106.939 190.526 106.774 190.328 106.554C190.152 106.356 190.042 106.114 189.998 105.828C189.954 105.564 189.932 105.267 189.932 104.937V100.086C189.932 98.9859 190.196 98.2379 190.724 97.8419C191.274 97.4239 191.901 97.2149 192.605 97.2149C192.957 97.2149 193.287 97.2589 193.595 97.3469C193.925 97.4349 194.211 97.5889 194.453 97.8089C194.695 98.0289 194.893 98.3259 195.047 98.6999C195.201 99.0739 195.278 99.5359 195.278 100.086V102.693ZM208.214 81.4409C208.214 80.3409 208.478 79.5929 209.006 79.1969C209.556 78.7789 210.183 78.5699 210.887 78.5699C211.239 78.5699 211.569 78.6139 211.877 78.7019C212.207 78.7899 212.493 78.9439 212.735 79.1639C212.977 79.3839 213.175 79.6809 213.329 80.0549C213.483 80.4289 213.56 80.8909 213.56 81.4409V85.6649H215.969C216.585 85.6649 217.091 85.7309 217.487 85.8629C217.883 85.9949 218.191 86.1709 218.411 86.3909C218.631 86.5889 218.774 86.8309 218.84 87.1169C218.928 87.3809 218.972 87.6449 218.972 87.9089C218.972 88.2389 218.928 88.5469 218.84 88.8329C218.774 89.0969 218.631 89.3389 218.411 89.5589C218.191 89.7569 217.883 89.9219 217.487 90.0539C217.091 90.1639 216.585 90.2189 215.969 90.2189H213.56V94.6409C213.56 95.2129 213.483 95.6859 213.329 96.0599C213.175 96.4339 212.977 96.7309 212.735 96.9509C212.493 97.1709 212.207 97.3249 211.877 97.4129C211.569 97.5009 211.239 97.5449 210.887 97.5449C210.535 97.5449 210.194 97.5009 209.864 97.4129C209.556 97.3249 209.27 97.1709 209.006 96.9509C208.764 96.7309 208.566 96.4339 208.412 96.0599C208.28 95.6859 208.214 95.2129 208.214 94.6409V81.4409ZM194.684 83.3219V90.7799H197.852V83.3219H194.684Z" fill="#EB322A"/>
<path d="M217.394 104.244C217.394 103.914 217.427 103.606 217.493 103.32C217.581 103.056 217.735 102.814 217.955 102.594C218.175 102.396 218.483 102.231 218.879 102.099C219.275 101.989 219.781 101.934 220.397 101.934H243.332C243.948 101.934 244.454 101.989 244.85 102.099C245.246 102.231 245.554 102.396 245.774 102.594C245.994 102.814 246.137 103.056 246.203 103.32C246.291 103.606 246.335 103.914 246.335 104.244C246.335 104.508 246.291 104.772 246.203 105.036C246.137 105.322 245.994 105.564 245.774 105.762C245.554 105.982 245.246 106.158 244.85 106.29C244.454 106.422 243.948 106.488 243.332 106.488H220.397C219.781 106.488 219.275 106.422 218.879 106.29C218.483 106.158 218.175 105.982 217.955 105.762C217.735 105.564 217.581 105.322 217.493 105.036C217.427 104.772 217.394 104.508 217.394 104.244ZM222.773 95.2679C222.157 95.2679 221.673 95.2019 221.321 95.0699C220.969 94.9379 220.694 94.7619 220.496 94.5419C220.32 94.2999 220.21 94.0359 220.166 93.7499C220.122 93.4419 220.1 93.1229 220.1 92.7929V81.7709C220.1 80.6709 220.364 79.9229 220.892 79.5269C221.442 79.1089 222.069 78.8999 222.773 78.8999H240.824C241.374 78.8999 241.814 78.9659 242.144 79.0979C242.474 79.2299 242.727 79.4059 242.903 79.6259C243.079 79.8459 243.189 80.0989 243.233 80.3849C243.299 80.6489 243.332 80.9239 243.332 81.2099C243.332 81.4519 243.299 81.7049 243.233 81.9689C243.189 82.2329 243.079 82.4749 242.903 82.6949C242.727 82.9149 242.474 83.1019 242.144 83.2559C241.814 83.4099 241.374 83.4869 240.824 83.4869H225.446V90.6809H241.154C241.704 90.6809 242.144 90.7579 242.474 90.9119C242.804 91.0659 243.057 91.2529 243.233 91.4729C243.409 91.6929 243.519 91.9459 243.563 92.2319C243.629 92.4959 243.662 92.7379 243.662 92.9579C243.662 93.2439 243.629 93.5299 243.563 93.8159C243.519 94.0799 243.409 94.3219 243.233 94.5419C243.057 94.7619 242.804 94.9379 242.474 95.0699C242.144 95.2019 241.704 95.2679 241.154 95.2679H222.773Z" fill="#EB322A"/>
<path d="M248.916 95.7629C248.366 95.7629 247.926 95.7079 247.596 95.5979C247.266 95.4879 247.013 95.3449 246.837 95.1689C246.661 94.9709 246.54 94.7509 246.474 94.5089C246.43 94.2449 246.408 93.9589 246.408 93.6509C246.408 93.4089 246.43 93.1669 246.474 92.9249C246.54 92.6829 246.661 92.4629 246.837 92.2649C247.013 92.0669 247.266 91.9129 247.596 91.8029C247.926 91.6709 248.366 91.6049 248.916 91.6049H272.907C273.457 91.6049 273.897 91.6709 274.227 91.8029C274.557 91.9129 274.81 92.0669 274.986 92.2649C275.162 92.4629 275.272 92.6829 275.316 92.9249C275.382 93.1669 275.415 93.4089 275.415 93.6509C275.415 93.9589 275.382 94.2449 275.316 94.5089C275.272 94.7509 275.162 94.9709 274.986 95.1689C274.81 95.3449 274.557 95.4879 274.227 95.5979C273.897 95.7079 273.457 95.7629 272.907 95.7629H248.916ZM251.391 88.5689C250.775 88.5689 250.291 88.5139 249.939 88.4039C249.587 88.2719 249.312 88.1069 249.114 87.9089C248.938 87.6889 248.828 87.4469 248.784 87.1829C248.74 86.8969 248.718 86.5889 248.718 86.2589V81.4409C248.718 80.3409 248.982 79.5929 249.51 79.1969C250.06 78.7789 250.687 78.5699 251.391 78.5699C251.743 78.5699 252.073 78.6139 252.381 78.7019C252.711 78.7899 252.997 78.9439 253.239 79.1639C253.481 79.3839 253.679 79.6809 253.833 80.0549C253.987 80.4289 254.064 80.8909 254.064 81.4409V84.3449H270.531C271.081 84.3449 271.521 84.4109 271.851 84.5429C272.181 84.6749 272.434 84.8399 272.61 85.0379C272.786 85.2359 272.896 85.4669 272.94 85.7309C273.006 85.9729 273.039 86.2039 273.039 86.4239C273.039 86.7099 273.006 86.9849 272.94 87.2489C272.896 87.4909 272.786 87.7109 272.61 87.9089C272.434 88.1069 272.181 88.2719 271.851 88.4039C271.521 88.5139 271.081 88.5689 270.531 88.5689H251.391ZM251.391 107.214C250.775 107.214 250.291 107.148 249.939 107.016C249.587 106.906 249.312 106.741 249.114 106.521C248.938 106.323 248.828 106.081 248.784 105.795C248.74 105.531 248.718 105.234 248.718 104.904V100.647C248.718 99.5469 248.982 98.7989 249.51 98.4029C250.06 97.9849 250.687 97.7759 251.391 97.7759C251.743 97.7759 252.073 97.8199 252.381 97.9079C252.711 97.9959 252.997 98.1499 253.239 98.3699C253.481 98.5899 253.679 98.8869 253.833 99.2609C253.987 99.6349 254.064 100.097 254.064 100.647V102.99H270.531C271.081 102.99 271.521 103.056 271.851 103.188C272.181 103.32 272.434 103.485 272.61 103.683C272.786 103.881 272.896 104.101 272.94 104.343C273.006 104.607 273.039 104.849 273.039 105.069C273.039 105.355 273.006 105.619 272.94 105.861C272.896 106.125 272.786 106.356 272.61 106.554C272.434 106.752 272.181 106.906 271.851 107.016C271.521 107.148 271.081 107.214 270.531 107.214H251.391Z" fill="#EB322A"/>
<path d="M53.1606 144.693H70.8486C71.4646 144.693 71.9706 144.759 72.3666 144.891C72.7626 145.023 73.0706 145.188 73.2906 145.386C73.5107 145.606 73.6537 145.848 73.7197 146.112C73.8077 146.398 73.8517 146.673 73.8517 146.937C73.8517 147.267 73.8077 147.564 73.7197 147.828C73.6537 148.114 73.5107 148.356 73.2906 148.554C73.0706 148.774 72.7626 148.939 72.3666 149.049C71.9706 149.181 71.4646 149.247 70.8486 149.247H50.4876C49.8716 149.247 49.3876 149.181 49.0356 149.049C48.6836 148.939 48.4086 148.774 48.2106 148.554C48.0346 148.356 47.9246 148.114 47.8806 147.828C47.8366 147.564 47.8146 147.267 47.8146 146.937V141.525C47.8146 140.425 48.0786 139.677 48.6066 139.281C49.1566 138.863 49.7836 138.654 50.4876 138.654C50.8396 138.654 51.1696 138.698 51.4776 138.786C51.8076 138.874 52.0936 139.028 52.3356 139.248C52.5776 139.468 52.7756 139.765 52.9296 140.139C53.0836 140.513 53.1606 140.975 53.1606 141.525V144.693ZM58.9026 136.905C57.9566 136.179 57.1316 135.475 56.4276 134.793C55.7456 134.111 55.1516 133.44 54.6456 132.78C54.1176 133.484 53.5126 134.188 52.8306 134.892C52.1486 135.574 51.3566 136.234 50.4546 136.872C50.1906 137.07 49.8826 137.224 49.5306 137.334C49.1786 137.422 48.8266 137.477 48.4746 137.499C48.1006 137.521 47.7156 137.455 47.3196 137.301C46.9236 137.147 46.5936 136.85 46.3296 136.41C45.8896 135.706 45.7796 135.035 45.9996 134.397C46.2416 133.759 46.7146 133.187 47.4186 132.681C48.2546 132.087 48.9476 131.526 49.4976 130.998C50.0476 130.448 50.4876 129.887 50.8176 129.315C51.1476 128.721 51.3896 128.094 51.5436 127.434C51.6976 126.752 51.7856 125.993 51.8076 125.157V123.606C51.8076 123.056 51.8846 122.594 52.0386 122.22C52.1926 121.846 52.3906 121.549 52.6326 121.329C52.8966 121.109 53.1936 120.955 53.5236 120.867C53.8536 120.779 54.1946 120.735 54.5466 120.735C54.8986 120.735 55.2396 120.779 55.5696 120.867C55.8996 120.955 56.1856 121.109 56.4276 121.329C56.6916 121.549 56.9006 121.846 57.0546 122.22C57.2086 122.594 57.2856 123.056 57.2856 123.606V125.157C57.3076 125.993 57.3736 126.73 57.4836 127.368C57.5936 128.006 57.7916 128.611 58.0776 129.183C58.3636 129.733 58.7596 130.272 59.2656 130.8C59.7936 131.306 60.4756 131.856 61.3116 132.45C62.0156 132.956 62.4777 133.528 62.6977 134.166C62.9397 134.804 62.8406 135.475 62.4007 136.179C62.1586 136.553 61.8616 136.839 61.5096 137.037C61.1796 137.213 60.8166 137.312 60.4206 137.334C60.1786 137.334 59.9256 137.312 59.6616 137.268C59.3976 137.202 59.1446 137.081 58.9026 136.905ZM67.4496 123.441C67.4496 122.341 67.7136 121.593 68.2416 121.197C68.7917 120.779 69.4187 120.57 70.1227 120.57C70.4747 120.57 70.8046 120.614 71.1126 120.702C71.4426 120.79 71.7287 120.944 71.9707 121.164C72.2127 121.384 72.4107 121.681 72.5647 122.055C72.7187 122.429 72.7957 122.891 72.7957 123.441V136.641C72.7957 137.213 72.7187 137.686 72.5647 138.06C72.4107 138.434 72.2127 138.731 71.9707 138.951C71.7287 139.171 71.4426 139.325 71.1126 139.413C70.8046 139.501 70.4747 139.545 70.1227 139.545C69.7707 139.545 69.4297 139.501 69.0997 139.413C68.7917 139.325 68.5057 139.171 68.2416 138.951C67.9997 138.731 67.8017 138.434 67.6476 138.06C67.5157 137.686 67.4496 137.213 67.4496 136.641V123.441Z" fill="#EB322A"/>
<path d="M82.2071 144.693H99.8951C100.511 144.693 101.017 144.759 101.413 144.891C101.809 145.023 102.117 145.188 102.337 145.386C102.557 145.606 102.7 145.848 102.766 146.112C102.854 146.398 102.898 146.673 102.898 146.937C102.898 147.267 102.854 147.564 102.766 147.828C102.7 148.114 102.557 148.356 102.337 148.554C102.117 148.774 101.809 148.939 101.413 149.049C101.017 149.181 100.511 149.247 99.8951 149.247H79.5341C78.9181 149.247 78.4341 149.181 78.0821 149.049C77.7301 148.939 77.4551 148.774 77.2571 148.554C77.0811 148.356 76.9711 148.114 76.9271 147.828C76.8831 147.564 76.8611 147.267 76.8611 146.937V141.525C76.8611 140.425 77.1251 139.677 77.6531 139.281C78.2031 138.863 78.8301 138.654 79.5341 138.654C79.8861 138.654 80.2161 138.698 80.5241 138.786C80.8541 138.874 81.1401 139.028 81.3821 139.248C81.6241 139.468 81.8221 139.765 81.9761 140.139C82.1301 140.513 82.2071 140.975 82.2071 141.525V144.693ZM87.9491 136.905C87.0031 136.179 86.1781 135.475 85.4741 134.793C84.7921 134.111 84.1981 133.44 83.6921 132.78C83.1641 133.484 82.5591 134.188 81.8771 134.892C81.1951 135.574 80.4031 136.234 79.5011 136.872C79.2371 137.07 78.9291 137.224 78.5771 137.334C78.2251 137.422 77.8731 137.477 77.5211 137.499C77.1471 137.521 76.7621 137.455 76.3661 137.301C75.9701 137.147 75.6401 136.85 75.3761 136.41C74.9361 135.706 74.8261 135.035 75.0461 134.397C75.2881 133.759 75.7611 133.187 76.4651 132.681C77.3011 132.087 77.9941 131.515 78.5441 130.965C79.1161 130.393 79.5671 129.81 79.8971 129.216C80.2491 128.622 80.4911 127.984 80.6231 127.302C80.7771 126.62 80.8541 125.85 80.8541 124.992V123.606C80.8541 123.056 80.9311 122.594 81.0851 122.22C81.2391 121.846 81.4371 121.549 81.6791 121.329C81.9431 121.109 82.2401 120.955 82.5701 120.867C82.9001 120.779 83.2411 120.735 83.5931 120.735C83.9451 120.735 84.2861 120.779 84.6161 120.867C84.9461 120.955 85.2321 121.109 85.4741 121.329C85.7381 121.549 85.9471 121.846 86.1011 122.22C86.2551 122.594 86.3321 123.056 86.3321 123.606V125.025C86.3321 125.861 86.3761 126.609 86.4641 127.269C86.5741 127.907 86.7721 128.512 87.0581 129.084C87.3661 129.656 87.7841 130.217 88.3121 130.767C88.8401 131.295 89.5221 131.856 90.3581 132.45C91.0621 132.956 91.5241 133.528 91.7441 134.166C91.9861 134.804 91.8871 135.475 91.4471 136.179C91.2051 136.553 90.9081 136.839 90.5561 137.037C90.2261 137.213 89.8631 137.312 89.4671 137.334C89.2251 137.334 88.9721 137.312 88.7081 137.268C88.4441 137.202 88.1911 137.081 87.9491 136.905ZM96.8261 130.602H93.8231C93.2071 130.602 92.7011 130.547 92.3051 130.437C91.9091 130.305 91.6011 130.14 91.3811 129.942C91.1611 129.722 91.0071 129.48 90.9191 129.216C90.8531 128.93 90.8201 128.622 90.8201 128.292C90.8201 128.028 90.8531 127.764 90.9191 127.5C91.0071 127.214 91.1611 126.972 91.3811 126.774C91.6011 126.554 91.9091 126.378 92.3051 126.246C92.7011 126.114 93.2071 126.048 93.8231 126.048H96.8261V123.441C96.8261 122.341 97.0901 121.593 97.6181 121.197C98.1681 120.779 98.7951 120.57 99.4991 120.57C99.8511 120.57 100.181 120.614 100.489 120.702C100.819 120.79 101.105 120.944 101.347 121.164C101.589 121.384 101.787 121.681 101.941 122.055C102.095 122.429 102.172 122.891 102.172 123.441V136.641C102.172 137.213 102.095 137.686 101.941 138.06C101.787 138.434 101.589 138.731 101.347 138.951C101.105 139.171 100.819 139.325 100.489 139.413C100.181 139.501 99.8511 139.545 99.4991 139.545C99.1471 139.545 98.8061 139.501 98.4761 139.413C98.1681 139.325 97.8821 139.171 97.6181 138.951C97.3761 138.731 97.1781 138.434 97.0241 138.06C96.8921 137.686 96.8261 137.213 96.8261 136.641V130.602Z" fill="#EB322A"/>
<path d="M111.188 144.693H127.457C128.073 144.693 128.579 144.759 128.975 144.891C129.371 145.023 129.679 145.188 129.899 145.386C130.119 145.606 130.262 145.848 130.328 146.112C130.416 146.398 130.46 146.673 130.46 146.937C130.46 147.267 130.416 147.564 130.328 147.828C130.262 148.114 130.119 148.356 129.899 148.554C129.679 148.774 129.371 148.939 128.975 149.049C128.579 149.181 128.073 149.247 127.457 149.247H108.515C107.899 149.247 107.415 149.181 107.063 149.049C106.711 148.939 106.436 148.774 106.238 148.554C106.062 148.356 105.952 148.114 105.908 147.828C105.864 147.564 105.842 147.267 105.842 146.937V143.538C105.842 142.988 105.93 142.537 106.106 142.185C106.282 141.811 106.513 141.525 106.799 141.327C107.085 141.107 107.393 140.953 107.723 140.865C108.075 140.777 108.416 140.733 108.746 140.733C109.406 140.733 109.978 140.931 110.462 141.327C110.946 141.701 111.188 142.438 111.188 143.538V144.693ZM124.223 123.441C124.223 122.341 124.487 121.593 125.015 121.197C125.565 120.779 126.192 120.57 126.896 120.57C127.248 120.57 127.578 120.614 127.886 120.702C128.216 120.79 128.502 120.944 128.744 121.164C128.986 121.384 129.184 121.681 129.338 122.055C129.492 122.429 129.569 122.891 129.569 123.441V128.754H131.648C132.264 128.754 132.77 128.82 133.166 128.952C133.562 129.084 133.87 129.26 134.09 129.48C134.31 129.678 134.453 129.92 134.519 130.206C134.607 130.47 134.651 130.734 134.651 130.998C134.651 131.328 134.607 131.636 134.519 131.922C134.453 132.186 134.31 132.428 134.09 132.648C133.87 132.846 133.562 133.011 133.166 133.143C132.77 133.253 132.264 133.308 131.648 133.308H129.569V138.291C129.569 138.863 129.492 139.336 129.338 139.71C129.184 140.084 128.986 140.381 128.744 140.601C128.502 140.821 128.216 140.975 127.886 141.063C127.578 141.151 127.248 141.195 126.896 141.195C126.544 141.195 126.203 141.151 125.873 141.063C125.565 140.975 125.279 140.821 125.015 140.601C124.773 140.381 124.575 140.084 124.421 139.71C124.289 139.336 124.223 138.863 124.223 138.291V123.441ZM105.38 135.123C105.38 133.253 105.952 131.933 107.096 131.163C108.24 130.393 110.033 130.008 112.475 130.008C114.917 130.008 116.71 130.393 117.854 131.163C118.998 131.933 119.57 133.253 119.57 135.123C119.57 136.113 119.427 136.938 119.141 137.598C118.855 138.258 118.426 138.775 117.854 139.149C117.282 139.523 116.545 139.787 115.643 139.941C114.741 140.095 113.685 140.172 112.475 140.172C110.033 140.172 108.24 139.798 107.096 139.05C105.952 138.28 105.38 136.971 105.38 135.123ZM104.06 127.005C104.06 126.675 104.093 126.389 104.159 126.147C104.247 125.905 104.401 125.707 104.621 125.553C104.841 125.377 105.149 125.245 105.545 125.157C105.941 125.069 106.447 125.025 107.063 125.025H117.887C118.503 125.025 119.009 125.069 119.405 125.157C119.801 125.245 120.109 125.377 120.329 125.553C120.549 125.707 120.692 125.905 120.758 126.147C120.846 126.389 120.89 126.675 120.89 127.005C120.89 127.269 120.846 127.522 120.758 127.764C120.692 127.984 120.549 128.171 120.329 128.325C120.109 128.479 119.801 128.6 119.405 128.688C119.009 128.776 118.503 128.82 117.887 128.82H107.063C106.447 128.82 105.941 128.776 105.545 128.688C105.149 128.6 104.841 128.479 104.621 128.325C104.401 128.171 104.247 127.984 104.159 127.764C104.093 127.522 104.06 127.269 104.06 127.005ZM106.139 122.154C106.139 121.516 106.326 121.065 106.7 120.801C107.096 120.515 107.91 120.372 109.142 120.372H115.808C117.04 120.372 117.843 120.515 118.217 120.801C118.613 121.065 118.811 121.516 118.811 122.154C118.811 122.704 118.613 123.133 118.217 123.441C117.843 123.727 117.04 123.87 115.808 123.87H109.142C107.91 123.87 107.096 123.727 106.7 123.441C106.326 123.133 106.139 122.704 106.139 122.154ZM110.528 135.123C110.528 135.563 110.649 135.904 110.891 136.146C111.133 136.388 111.661 136.509 112.475 136.509C113.311 136.509 113.839 136.388 114.059 136.146C114.301 135.904 114.422 135.563 114.422 135.123C114.422 134.683 114.301 134.342 114.059 134.1C113.839 133.858 113.311 133.737 112.475 133.737C111.661 133.737 111.133 133.858 110.891 134.1C110.649 134.342 110.528 134.683 110.528 135.123Z" fill="#EB322A"/>
<path d="M152.9 122.946C152.9 122.396 152.977 121.956 153.131 121.626C153.285 121.296 153.483 121.043 153.725 120.867C153.989 120.669 154.286 120.548 154.616 120.504C154.946 120.438 155.287 120.405 155.639 120.405C155.991 120.405 156.332 120.438 156.662 120.504C156.992 120.548 157.278 120.669 157.52 120.867C157.784 121.043 157.993 121.296 158.147 121.626C158.301 121.956 158.378 122.396 158.378 122.946V123.804C158.378 124.64 158.598 125.399 159.038 126.081C159.5 126.741 160.094 127.324 160.82 127.83C161.568 128.336 162.404 128.776 163.328 129.15C164.274 129.524 165.231 129.821 166.199 130.041C167.057 130.239 167.695 130.613 168.113 131.163C168.531 131.713 168.652 132.395 168.476 133.209C168.278 134.067 167.772 134.639 166.958 134.925C166.716 135.013 166.463 135.068 166.199 135.09C165.935 135.112 165.671 135.09 165.407 135.024C163.273 134.562 161.37 133.858 159.698 132.912C158.048 131.966 156.662 130.91 155.54 129.744C154.418 130.866 153.054 131.889 151.448 132.813C149.864 133.715 148.181 134.375 146.399 134.793C146.091 134.859 145.75 134.914 145.376 134.958C145.024 135.002 144.672 134.991 144.32 134.925C143.946 134.837 143.594 134.672 143.264 134.43C142.934 134.188 142.692 133.814 142.538 133.308C142.296 132.516 142.351 131.823 142.703 131.229C143.077 130.635 143.682 130.217 144.518 129.975C145.464 129.689 146.432 129.37 147.422 129.018C148.434 128.644 149.336 128.215 150.128 127.731C150.942 127.225 151.602 126.653 152.108 126.015C152.636 125.355 152.9 124.607 152.9 123.771V122.946ZM140.987 139.512C140.987 139.182 141.02 138.885 141.086 138.621C141.174 138.335 141.328 138.093 141.548 137.895C141.768 137.675 142.076 137.51 142.472 137.4C142.868 137.268 143.374 137.202 143.99 137.202H166.925C167.541 137.202 168.047 137.268 168.443 137.4C168.839 137.51 169.147 137.675 169.367 137.895C169.587 138.093 169.73 138.335 169.796 138.621C169.884 138.885 169.928 139.182 169.928 139.512C169.928 139.776 169.884 140.051 169.796 140.337C169.73 140.601 169.587 140.843 169.367 141.063C169.147 141.261 168.839 141.426 168.443 141.558C168.047 141.69 167.541 141.756 166.925 141.756H158.147V145.98C158.147 146.552 158.07 147.025 157.916 147.399C157.762 147.773 157.564 148.07 157.322 148.29C157.08 148.51 156.794 148.664 156.464 148.752C156.156 148.84 155.826 148.884 155.474 148.884C155.122 148.884 154.781 148.84 154.451 148.752C154.143 148.664 153.857 148.51 153.593 148.29C153.351 148.07 153.153 147.773 152.999 147.399C152.867 147.025 152.801 146.552 152.801 145.98V141.756H143.99C143.374 141.756 142.868 141.69 142.472 141.558C142.076 141.426 141.768 141.261 141.548 141.063C141.328 140.843 141.174 140.601 141.086 140.337C141.02 140.051 140.987 139.776 140.987 139.512Z" fill="#EB322A"/>
<path d="M169.34 123.408C169.34 123.078 169.373 122.781 169.439 122.517C169.527 122.231 169.681 121.989 169.901 121.791C170.121 121.571 170.429 121.406 170.825 121.296C171.221 121.164 171.727 121.098 172.343 121.098H180.989C181.605 121.098 182.111 121.164 182.507 121.296C182.903 121.406 183.211 121.571 183.431 121.791C183.651 121.989 183.794 122.231 183.86 122.517C183.948 122.781 183.992 123.078 183.992 123.408C183.992 123.672 183.948 123.947 183.86 124.233C183.794 124.497 183.651 124.739 183.431 124.959C183.211 125.157 182.903 125.322 182.507 125.454C182.111 125.586 181.605 125.652 180.989 125.652H179.471V133.407C179.471 134.331 179.471 135.222 179.471 136.08C179.493 136.938 179.603 137.774 179.801 138.588C180.021 139.38 180.384 140.172 180.89 140.964C181.396 141.734 182.144 142.493 183.134 143.241C183.838 143.769 184.3 144.341 184.52 144.957C184.762 145.595 184.663 146.266 184.223 146.97C183.981 147.344 183.684 147.619 183.332 147.795C183.002 147.993 182.639 148.103 182.243 148.125C182.001 148.125 181.748 148.092 181.484 148.026C181.22 147.982 180.967 147.872 180.725 147.696C179.911 147.058 179.196 146.376 178.58 145.65C177.964 144.946 177.425 144.22 176.963 143.472C176.545 144.176 176.061 144.88 175.511 145.584C174.961 146.31 174.312 147.003 173.564 147.663C173.322 147.883 173.014 148.037 172.64 148.125C172.288 148.213 171.936 148.268 171.584 148.29C171.21 148.312 170.825 148.246 170.429 148.092C170.033 147.938 169.703 147.641 169.439 147.201C168.999 146.497 168.9 145.837 169.142 145.221C169.384 144.605 169.846 144.022 170.528 143.472C171.54 142.658 172.299 141.855 172.805 141.063C173.311 140.249 173.663 139.435 173.861 138.621C174.081 137.785 174.191 136.938 174.191 136.08C174.191 135.222 174.191 134.331 174.191 133.407V125.652H172.343C171.727 125.652 171.221 125.586 170.825 125.454C170.429 125.322 170.121 125.157 169.901 124.959C169.681 124.739 169.527 124.497 169.439 124.233C169.373 123.947 169.34 123.672 169.34 123.408ZM185.972 136.278H183.959C183.343 136.278 182.848 136.223 182.474 136.113C182.1 135.981 181.803 135.816 181.583 135.618C181.385 135.398 181.253 135.156 181.187 134.892C181.121 134.606 181.088 134.298 181.088 133.968C181.088 133.704 181.121 133.44 181.187 133.176C181.253 132.89 181.385 132.648 181.583 132.45C181.803 132.23 182.1 132.054 182.474 131.922C182.848 131.79 183.343 131.724 183.959 131.724H185.972V123.441C185.972 122.341 186.203 121.593 186.665 121.197C187.149 120.779 187.699 120.57 188.315 120.57C188.909 120.57 189.437 120.779 189.899 121.197C190.383 121.593 190.625 122.341 190.625 123.441V145.98C190.625 146.552 190.559 147.025 190.427 147.399C190.295 147.773 190.119 148.07 189.899 148.29C189.701 148.51 189.459 148.664 189.173 148.752C188.887 148.84 188.601 148.884 188.315 148.884C188.007 148.884 187.71 148.84 187.424 148.752C187.138 148.664 186.885 148.51 186.665 148.29C186.467 148.07 186.302 147.773 186.17 147.399C186.038 147.025 185.972 146.552 185.972 145.98V136.278ZM192.935 123.441C192.935 122.341 193.166 121.593 193.628 121.197C194.112 120.779 194.662 120.57 195.278 120.57C195.872 120.57 196.4 120.779 196.862 121.197C197.346 121.593 197.588 122.341 197.588 123.441V145.98C197.588 146.552 197.522 147.025 197.39 147.399C197.258 147.773 197.082 148.07 196.862 148.29C196.664 148.51 196.422 148.664 196.136 148.752C195.85 148.84 195.564 148.884 195.278 148.884C194.97 148.884 194.673 148.84 194.387 148.752C194.101 148.664 193.848 148.51 193.628 148.29C193.43 148.07 193.265 147.773 193.133 147.399C193.001 147.025 192.935 146.552 192.935 145.98V123.441Z" fill="#EB322A"/>
<path d="M206.036 127.434C206.036 127.104 206.069 126.829 206.135 126.609C206.223 126.367 206.377 126.169 206.597 126.015C206.817 125.839 207.125 125.718 207.521 125.652C207.917 125.564 208.423 125.52 209.039 125.52H220.523C221.139 125.52 221.645 125.564 222.041 125.652C222.437 125.718 222.745 125.839 222.965 126.015C223.185 126.169 223.328 126.367 223.394 126.609C223.482 126.829 223.526 127.104 223.526 127.434C223.526 127.94 223.372 128.347 223.064 128.655C222.778 128.941 222.151 129.117 221.183 129.183C221.403 129.535 221.568 129.92 221.678 130.338C221.81 130.734 221.876 131.152 221.876 131.592C221.876 133.594 221.304 135.101 220.16 136.113C219.038 137.103 217.245 137.598 214.781 137.598C212.339 137.598 210.546 137.059 209.402 135.981C208.258 134.903 207.686 133.44 207.686 131.592C207.686 130.712 207.895 129.909 208.313 129.183C207.367 129.117 206.751 128.941 206.465 128.655C206.179 128.347 206.036 127.94 206.036 127.434ZM223.196 140.271C223.196 140.953 223.427 141.547 223.889 142.053C224.373 142.559 224.978 142.988 225.704 143.34C226.452 143.692 227.288 143.967 228.212 144.165C229.136 144.385 230.06 144.528 230.984 144.594C231.842 144.66 232.48 144.924 232.898 145.386C233.316 145.87 233.47 146.53 233.36 147.366C233.294 147.806 233.162 148.158 232.964 148.422C232.788 148.686 232.568 148.895 232.304 149.049C232.04 149.203 231.743 149.302 231.413 149.346C231.083 149.39 230.753 149.401 230.423 149.379C228.575 149.225 226.804 148.84 225.11 148.224C223.416 147.63 221.942 146.794 220.688 145.716C220.072 146.244 219.357 146.717 218.543 147.135C217.751 147.575 216.904 147.938 216.002 148.224C215.122 148.532 214.209 148.785 213.263 148.983C212.317 149.181 211.382 149.313 210.458 149.379C210.128 149.401 209.798 149.39 209.468 149.346C209.138 149.302 208.841 149.203 208.577 149.049C208.313 148.895 208.082 148.686 207.884 148.422C207.708 148.158 207.587 147.806 207.521 147.366C207.411 146.53 207.565 145.87 207.983 145.386C208.401 144.924 209.039 144.66 209.897 144.594C210.843 144.528 211.778 144.396 212.702 144.198C213.648 144.022 214.484 143.769 215.21 143.439C215.958 143.109 216.563 142.691 217.025 142.185C217.487 141.657 217.718 141.008 217.718 140.238V140.172C217.718 139.556 217.96 139.072 218.444 138.72C218.928 138.346 219.599 138.159 220.457 138.159C221.315 138.159 221.986 138.346 222.47 138.72C222.954 139.072 223.196 139.556 223.196 140.172V140.271ZM226.529 123.441C226.529 122.341 226.793 121.593 227.321 121.197C227.871 120.779 228.498 120.57 229.202 120.57C229.554 120.57 229.884 120.614 230.192 120.702C230.522 120.79 230.808 120.944 231.05 121.164C231.292 121.384 231.49 121.681 231.644 122.055C231.798 122.429 231.875 122.891 231.875 123.441V127.302H233.954C234.57 127.302 235.076 127.379 235.472 127.533C235.868 127.665 236.176 127.841 236.396 128.061C236.616 128.281 236.759 128.534 236.825 128.82C236.913 129.084 236.957 129.348 236.957 129.612C236.957 129.942 236.913 130.25 236.825 130.536C236.759 130.822 236.616 131.075 236.396 131.295C236.176 131.493 235.868 131.658 235.472 131.79C235.076 131.922 234.57 131.988 233.954 131.988H231.875V136.08C231.875 136.652 231.798 137.125 231.644 137.499C231.49 137.873 231.292 138.17 231.05 138.39C230.808 138.61 230.522 138.764 230.192 138.852C229.884 138.94 229.554 138.984 229.202 138.984C228.85 138.984 228.509 138.94 228.179 138.852C227.871 138.764 227.585 138.61 227.321 138.39C227.079 138.17 226.881 137.873 226.727 137.499C226.595 137.125 226.529 136.652 226.529 136.08V123.441ZM208.445 122.088C208.445 121.45 208.632 120.988 209.006 120.702C209.402 120.394 210.216 120.24 211.448 120.24H218.114C219.346 120.24 220.149 120.394 220.523 120.702C220.919 120.988 221.117 121.45 221.117 122.088C221.117 122.638 220.919 123.078 220.523 123.408C220.149 123.716 219.346 123.87 218.114 123.87H211.448C210.216 123.87 209.402 123.716 209.006 123.408C208.632 123.078 208.445 122.638 208.445 122.088ZM212.834 131.592C212.834 131.812 212.856 132.065 212.9 132.351C212.966 132.615 213.065 132.868 213.197 133.11C213.351 133.352 213.549 133.561 213.791 133.737C214.055 133.891 214.385 133.968 214.781 133.968C215.199 133.968 215.529 133.891 215.771 133.737C216.035 133.561 216.233 133.352 216.365 133.11C216.519 132.868 216.618 132.615 216.662 132.351C216.706 132.065 216.728 131.812 216.728 131.592C216.728 131.372 216.706 131.13 216.662 130.866C216.618 130.58 216.519 130.316 216.365 130.074C216.233 129.832 216.035 129.634 215.771 129.48C215.529 129.304 215.199 129.216 214.781 129.216C214.385 129.216 214.055 129.304 213.791 129.48C213.549 129.634 213.351 129.832 213.197 130.074C213.065 130.316 212.966 130.58 212.9 130.866C212.856 131.13 212.834 131.372 212.834 131.592Z" fill="#EB322A"/>
<path d="M252.869 136.938V143.934H261.647C262.263 143.934 262.769 143.989 263.165 144.099C263.561 144.231 263.869 144.396 264.089 144.594C264.309 144.814 264.452 145.056 264.518 145.32C264.606 145.606 264.65 145.914 264.65 146.244C264.65 146.508 264.606 146.772 264.518 147.036C264.452 147.322 264.309 147.564 264.089 147.762C263.869 147.982 263.561 148.158 263.165 148.29C262.769 148.422 262.263 148.488 261.647 148.488H238.712C238.096 148.488 237.59 148.422 237.194 148.29C236.798 148.158 236.49 147.982 236.27 147.762C236.05 147.564 235.896 147.322 235.808 147.036C235.742 146.772 235.709 146.508 235.709 146.244C235.709 145.914 235.742 145.606 235.808 145.32C235.896 145.056 236.05 144.814 236.27 144.594C236.49 144.396 236.798 144.231 237.194 144.099C237.59 143.989 238.096 143.934 238.712 143.934H247.523V136.938H240.758C240.142 136.938 239.658 136.872 239.306 136.74C238.954 136.608 238.679 136.432 238.481 136.212C238.305 135.97 238.195 135.706 238.151 135.42C238.107 135.112 238.085 134.793 238.085 134.463V123.771C238.085 122.671 238.349 121.923 238.877 121.527C239.427 121.109 240.054 120.9 240.758 120.9H259.469C260.019 120.9 260.459 120.966 260.789 121.098C261.119 121.23 261.372 121.406 261.548 121.626C261.724 121.846 261.834 122.099 261.878 122.385C261.944 122.649 261.977 122.924 261.977 123.21C261.977 123.452 261.944 123.705 261.878 123.969C261.834 124.233 261.724 124.475 261.548 124.695C261.372 124.915 261.119 125.102 260.789 125.256C260.459 125.41 260.019 125.487 259.469 125.487H243.431V132.351H259.799C260.349 132.351 260.789 132.428 261.119 132.582C261.449 132.736 261.702 132.923 261.878 133.143C262.054 133.363 262.164 133.616 262.208 133.902C262.274 134.166 262.307 134.408 262.307 134.628C262.307 134.914 262.274 135.2 262.208 135.486C262.164 135.75 262.054 135.992 261.878 136.212C261.702 136.432 261.449 136.608 261.119 136.74C260.789 136.872 260.349 136.938 259.799 136.938H252.869Z" fill="#EB322A"/>
<path d="M288.549 121.296C289.143 121.296 289.605 121.362 289.935 121.494C290.265 121.604 290.518 121.769 290.694 121.989C290.87 122.187 290.98 122.44 291.024 122.748C291.068 123.056 291.09 123.408 291.09 123.804V128.094C291.09 129.15 291.068 130.173 291.024 131.163C291.002 132.131 290.925 133.044 290.793 133.902C290.683 134.738 290.507 135.519 290.265 136.245C290.045 136.971 289.726 137.609 289.308 138.159C289.088 138.467 288.835 138.698 288.549 138.852C288.263 138.984 287.966 139.072 287.658 139.116C287.35 139.16 287.042 139.16 286.734 139.116C286.448 139.05 286.184 138.962 285.942 138.852C285.414 138.61 285.018 138.269 284.754 137.829C284.512 137.367 284.501 136.806 284.721 136.146C284.941 135.398 285.117 134.705 285.249 134.067C285.381 133.429 285.469 132.813 285.513 132.219C285.557 131.625 285.579 131.02 285.579 130.404C285.601 129.788 285.612 129.117 285.612 128.391V125.85H269.97C269.354 125.85 268.848 125.795 268.452 125.685C268.056 125.553 267.748 125.388 267.528 125.19C267.308 124.97 267.154 124.728 267.066 124.464C267 124.178 266.967 123.87 266.967 123.54C266.967 123.276 267 123.012 267.066 122.748C267.154 122.462 267.308 122.22 267.528 122.022C267.748 121.802 268.056 121.626 268.452 121.494C268.848 121.362 269.354 121.296 269.97 121.296H288.549ZM264.756 146.244C264.756 145.914 264.789 145.606 264.855 145.32C264.943 145.056 265.097 144.814 265.317 144.594C265.537 144.396 265.845 144.231 266.241 144.099C266.637 143.989 267.143 143.934 267.759 143.934H290.694C291.31 143.934 291.816 143.989 292.212 144.099C292.608 144.231 292.916 144.396 293.136 144.594C293.356 144.814 293.499 145.056 293.565 145.32C293.653 145.606 293.697 145.914 293.697 146.244C293.697 146.508 293.653 146.772 293.565 147.036C293.499 147.322 293.356 147.564 293.136 147.762C292.916 147.982 292.608 148.158 292.212 148.29C291.816 148.422 291.31 148.488 290.694 148.488H267.759C267.143 148.488 266.637 148.422 266.241 148.29C265.845 148.158 265.537 147.982 265.317 147.762C265.097 147.564 264.943 147.322 264.855 147.036C264.789 146.772 264.756 146.508 264.756 146.244Z" fill="#EB322A"/>
</svg>
