<svg width="174" height="174" viewBox="0 0 174 174" fill="none" xmlns="http://www.w3.org/2000/svg">
<path d="M86.7954 173.425C134.731 173.425 173.591 134.602 173.591 86.7123C173.591 38.8224 134.731 0 86.7954 0C38.8596 0 0 38.8224 0 86.7123C0 134.602 38.8596 173.425 86.7954 173.425Z" fill="white"/>
<path d="M73.8694 87.3184C71.2095 87.3184 69.063 89.4784 69.063 92.1202C69.063 94.7619 71.2095 96.922 73.8694 96.922C76.5293 96.922 78.6758 94.7775 78.6758 92.1202C78.6758 89.4629 76.5293 87.3184 73.8694 87.3184Z" fill="#EB322A"/>
<path d="M103.89 92.1202C103.89 89.4629 101.743 87.3184 99.0835 87.3184C96.4237 87.3184 94.2771 89.4784 94.2771 92.1202C94.2771 94.7619 96.4237 96.922 99.0835 96.922C101.743 96.922 103.89 94.7775 103.89 92.1202Z" fill="#EB322A"/>
<path d="M125.091 77.9633V77.9944L120.3 75.5858C117.718 59.7351 104.201 47.1323 86.7954 47.1323C69.3896 47.1323 55.8726 59.7351 53.2905 75.5858L48.5152 77.9944V77.9633C44.0821 80.1855 44.4243 85.9042 45.6375 92.5552C46.8508 99.2063 48.5463 104.676 53.4616 105.205L59.5746 105.873C60.0412 105.919 60.4612 105.873 60.8501 105.749C65.5632 116.316 74.4138 123.666 83.2178 125.282C83.4978 123.246 84.4155 121.397 85.7532 119.967C75.0049 119.144 63.0277 106.122 63.0277 89.4162C63.0277 87.6136 63.1988 85.8576 63.5099 84.1637C63.6655 84.1637 73.3561 84.055 78.0069 71.0792C78.0069 71.0792 83.7777 83.2313 104.637 84.1637H110.112C110.423 85.8576 110.594 87.6291 110.594 89.4162C110.594 102.003 103.781 112.508 95.8171 117.279C97.7926 117.901 99.5036 119.128 100.717 120.744C105.617 117.264 109.941 112.073 112.772 105.749C113.161 105.873 113.581 105.919 114.047 105.873L115.105 105.764C114.405 107.209 113.627 108.732 112.741 110.364C109.925 115.554 103.672 121.351 96.8904 123.2C95.926 122.081 94.5105 121.351 92.9084 121.351C89.9841 121.351 87.6198 123.713 87.6198 126.634C87.6198 129.556 89.9841 131.918 92.9084 131.918C95.0705 131.918 96.9215 130.628 97.7303 128.763C106.363 126.65 114.109 119.61 117.687 113.037C119.336 110.006 120.674 107.24 121.747 104.816C125.464 103.387 126.911 98.4293 127.984 92.5552C129.198 85.9042 129.524 80.1855 125.107 77.9633H125.091Z" fill="#EB322A"/>
</svg>
