<svg width="174" height="174" viewBox="0 0 174 174" fill="none" xmlns="http://www.w3.org/2000/svg">
<path d="M86.7953 173.425C134.731 173.425 173.591 134.602 173.591 86.7123C173.591 38.8224 134.731 0 86.7953 0C38.8596 0 0 38.8224 0 86.7123C0 134.602 38.8596 173.425 86.7953 173.425Z" fill="white"/>
<path d="M124.018 63.853C123.878 62.6253 122.758 61.7706 121.545 61.8949C120.316 62.0348 119.445 63.1537 119.585 64.3658L119.911 67.1163C113.612 67.3494 108.899 66.0907 103.937 64.7543C98.6792 63.3401 93.2505 61.8794 85.4887 61.8794C81.9889 61.8794 78.2558 64.0084 74.4916 67.1163C74.336 67.0852 74.196 67.0231 74.0249 67.0231H53.6793L53.9904 64.3658C54.1304 63.1381 53.2594 62.0348 52.0305 61.8949C50.8173 61.7706 49.6973 62.6253 49.5573 63.853L45.1398 101.024C44.9998 102.252 45.8708 103.355 47.0997 103.495C47.193 103.495 47.2708 103.495 47.3641 103.495C48.4841 103.495 49.4484 102.656 49.5729 101.522L49.6662 100.713C55.9503 106.494 69.6385 119.004 74.2271 122.578C77.6025 125.22 80.5423 126.121 82.9689 126.121C85.6287 126.121 87.682 125.033 89.0508 123.992C90.2018 124.831 91.9595 125.437 93.8728 125.437C94.666 125.437 95.4904 125.329 96.2837 125.095C98.3836 124.474 99.9702 123.075 100.903 121.086C101.65 121.288 102.443 121.412 103.252 121.412C104.061 121.412 104.917 121.304 105.71 121.071C107.934 120.418 109.552 118.864 110.454 116.688C110.812 116.735 111.17 116.797 111.527 116.797C113.487 116.797 115.323 116.036 116.692 114.653C118.076 113.27 118.838 111.436 118.838 109.493C118.838 107.784 118.231 106.183 117.158 104.894L123.909 101.055L123.971 101.522C124.111 102.656 125.076 103.495 126.18 103.495C126.273 103.495 126.351 103.495 126.444 103.495C127.673 103.355 128.544 102.236 128.404 101.024L123.987 63.853H124.018ZM113.581 111.529C112.507 112.601 110.625 112.601 109.552 111.529L95.8171 97.8075C94.946 96.9373 93.5306 96.9373 92.6595 97.8075C91.7884 98.6777 91.7884 100.092 92.6595 100.962L106.394 114.684C106.394 114.684 106.457 114.73 106.488 114.761C106.114 115.834 105.477 116.517 104.512 116.813C103.034 117.263 101.432 116.704 101.09 116.393C99.4258 114.73 89.1908 104.427 89.1908 104.427L86.0176 107.567C86.0176 107.567 94.1216 115.709 97.077 118.693C96.7193 119.812 96.066 120.527 95.0705 120.838C93.5928 121.288 91.9906 120.729 91.6484 120.418C89.9841 118.755 79.749 108.452 79.749 108.452L76.5759 111.591C76.5759 111.591 82.2223 117.279 85.8154 120.884C84.2599 121.894 81.4601 122.594 76.9803 119.082C71.8628 115.088 54.286 98.9264 50.3195 95.259L53.1349 71.483H69.7163C68.1608 73.037 66.6053 74.6842 65.0654 76.3314L64.3499 77.0929C61.5967 80.061 60.2434 82.8892 60.3523 85.5155C60.4301 87.3647 61.2078 89.0119 62.6233 90.3018C63.7121 91.2963 65.0343 91.7314 66.5587 91.7314C71.7228 91.7314 79.1735 86.7276 87.0287 81.0089L113.549 107.504C114.094 108.048 114.389 108.763 114.389 109.509C114.389 110.255 114.094 110.985 113.549 111.514L113.581 111.529ZM113.985 101.599L88.8641 76.5024C88.8641 76.5024 88.7086 76.4091 88.6463 76.3625C88.5219 76.2693 88.3975 76.176 88.273 76.1139C88.1486 76.0517 88.0242 76.0051 87.8842 75.974C87.7442 75.9274 87.6042 75.8963 87.4642 75.8963C87.3242 75.8963 87.1842 75.8963 87.0442 75.8963C86.9042 75.8963 86.7642 75.9274 86.6242 75.974C86.4843 76.0206 86.3598 76.0828 86.2198 76.1605C86.142 76.2071 86.0487 76.2227 85.9709 76.2693L84.6799 77.2017C70.9917 87.1782 66.7764 88.0329 65.6409 87.0073C65.1121 86.5256 64.8476 85.9817 64.8165 85.329C64.7699 83.977 65.7654 82.1278 67.6319 80.1232L68.3474 79.3617C72.5783 74.8085 80.449 66.3238 85.4732 66.3238C92.6439 66.3238 97.777 67.7068 102.754 69.0433C107.919 70.4418 113.269 71.856 120.409 71.5296L123.333 96.238L113.954 101.584L113.985 101.599Z" fill="#EB322A" stroke="#EB322A" stroke-width="0.5" stroke-linecap="round" stroke-linejoin="round"/>
</svg>
