<svg width="655" height="236" viewBox="0 0 655 236" fill="none" xmlns="http://www.w3.org/2000/svg">
<path d="M18 3H608" stroke="#383638" stroke-width="4.31" stroke-miterlimit="10"/>
<path d="M234.17 41.72C235.397 38.4133 237.744 36.76 241.21 36.76C243.557 36.76 245.477 37.4533 246.97 38.84C248.464 40.1733 249.21 42.1733 249.21 44.84V101.48H233.21V61.56H225.69C223.45 61.56 221.504 61 219.85 59.88C218.25 58.76 217.45 57.08 217.45 54.84C217.45 52.9733 218.01 51.48 219.13 50.36C220.25 49.24 221.61 48.5733 223.21 48.36C225.77 48.04 228.037 47.4 230.01 46.44C232.037 45.4266 233.424 43.8533 234.17 41.72Z" fill="#EA332B"/>
<path d="M264.995 107.4C265.902 106.92 266.595 106.227 267.075 105.32C267.609 104.467 267.875 103.453 267.875 102.28V102.2C265.635 101.987 263.849 101.213 262.515 99.88C261.182 98.5466 260.515 96.7333 260.515 94.44C260.515 91.9866 261.289 90.0666 262.835 88.68C264.382 87.24 266.435 86.52 268.995 86.52C271.555 86.52 273.609 87.32 275.155 88.92C276.702 90.4666 277.475 92.44 277.475 94.84V95.56C277.475 100.253 276.595 104.013 274.835 106.84C273.075 109.72 270.782 111.693 267.955 112.76C267.262 113.027 266.569 113.213 265.875 113.32C265.182 113.48 264.515 113.507 263.875 113.4C263.182 113.293 262.515 113.027 261.875 112.6C261.235 112.173 260.969 111.427 261.075 110.36C261.182 109.08 261.929 108.28 263.315 107.96C263.582 107.853 263.849 107.773 264.115 107.72C264.382 107.667 264.675 107.56 264.995 107.4Z" fill="#EA332B"/>
<path d="M302.838 59.96C306.092 59.96 309.105 60.36 311.878 61.16C314.652 61.96 317.025 63.2133 318.998 64.92C321.025 66.5733 322.598 68.7333 323.718 71.4C324.892 74.0133 325.478 77.16 325.478 80.84C325.478 84.52 324.865 87.7466 323.638 90.52C322.412 93.2933 320.758 95.5866 318.678 97.4C316.598 99.2133 314.145 100.573 311.318 101.48C308.545 102.387 305.612 102.84 302.518 102.84C300.865 102.84 299.132 102.707 297.318 102.44C295.558 102.173 293.825 101.747 292.118 101.16C290.412 100.573 288.838 99.8266 287.398 98.92C285.958 98.0133 284.758 96.9466 283.798 95.72C282.678 94.2266 282.198 92.5466 282.358 90.68C282.518 88.8133 283.292 87.2666 284.678 86.04C285.798 85.0266 287.078 84.4666 288.518 84.36C289.958 84.2533 291.292 84.36 292.518 84.68C293.265 84.8933 293.932 85.24 294.518 85.72C295.158 86.2 295.692 86.5733 296.118 86.84C297.025 87.4266 297.932 87.8266 298.838 88.04C299.798 88.2 300.892 88.28 302.118 88.28C303.025 88.28 303.932 88.0933 304.838 87.72C305.798 87.3466 306.625 86.84 307.318 86.2C308.065 85.5066 308.652 84.7066 309.078 83.8C309.558 82.8933 309.798 81.9066 309.798 80.84C309.798 78.6533 308.998 76.8933 307.398 75.56C305.798 74.1733 303.718 73.48 301.158 73.48H295.478C293.132 73.48 291.158 73.2933 289.558 72.92C288.012 72.4933 286.758 71.8266 285.798 70.92C284.892 69.96 284.278 68.7066 283.958 67.16C283.638 65.6133 283.558 63.72 283.718 61.48L284.438 49.32C284.598 47.08 284.838 45.1866 285.158 43.64C285.532 42.0933 286.118 40.8666 286.918 39.96C287.772 39 288.918 38.3333 290.358 37.96C291.852 37.5333 293.772 37.32 296.118 37.32H317.158C318.278 37.32 319.238 37.5333 320.038 37.96C320.838 38.3866 321.478 38.9466 321.958 39.64C322.492 40.28 322.865 41.0266 323.078 41.88C323.345 42.68 323.478 43.48 323.478 44.28C323.478 45.08 323.372 45.88 323.158 46.68C322.945 47.48 322.572 48.2 322.038 48.84C321.558 49.48 320.918 50.0133 320.118 50.44C319.318 50.8133 318.332 51 317.158 51H301.398C300.652 51 300.145 51.1066 299.878 51.32C299.612 51.48 299.452 51.9333 299.398 52.68L299.078 58.28C299.025 59.0266 299.132 59.5066 299.398 59.72C299.718 59.88 300.252 59.96 300.998 59.96H302.838Z" fill="#EA332B"/>
<path d="M352.189 103C349.042 103 346.082 102.547 343.309 101.64C340.589 100.733 338.216 99.4 336.189 97.64C334.216 95.8266 332.642 93.5866 331.469 90.92C330.349 88.2 329.789 85.08 329.789 81.56V58.12C329.789 54.6 330.349 51.5066 331.469 48.84C332.642 46.1733 334.216 43.9333 336.189 42.12C338.216 40.3066 340.589 38.9466 343.309 38.04C346.082 37.1333 349.042 36.68 352.189 36.68C355.336 36.68 358.269 37.1333 360.989 38.04C363.762 38.9466 366.136 40.3066 368.109 42.12C370.136 43.9333 371.709 46.1733 372.829 48.84C374.002 51.5066 374.589 54.6 374.589 58.12V81.56C374.589 85.08 374.002 88.2 372.829 90.92C371.709 93.5866 370.136 95.8266 368.109 97.64C366.136 99.4 363.762 100.733 360.989 101.64C358.269 102.547 355.336 103 352.189 103ZM352.189 89.4C352.882 89.4 353.602 89.2933 354.349 89.08C355.096 88.8666 355.762 88.4933 356.349 87.96C356.989 87.4266 357.496 86.7333 357.869 85.88C358.296 85.0266 358.509 83.96 358.509 82.68V57C358.509 55.7733 358.296 54.7333 357.869 53.88C357.496 53.0266 356.989 52.3333 356.349 51.8C355.762 51.2666 355.096 50.8933 354.349 50.68C353.602 50.4133 352.882 50.28 352.189 50.28C351.496 50.28 350.776 50.4133 350.029 50.68C349.282 50.8933 348.589 51.2666 347.949 51.8C347.362 52.3333 346.856 53.0266 346.429 53.88C346.056 54.7333 345.869 55.7733 345.869 57V82.68C345.869 83.96 346.056 85.0266 346.429 85.88C346.856 86.7333 347.362 87.4266 347.949 87.96C348.589 88.4933 349.282 88.8666 350.029 89.08C350.776 89.2933 351.496 89.4 352.189 89.4Z" fill="#EA332B"/>
<path d="M401.82 103C398.674 103 395.714 102.547 392.94 101.64C390.22 100.733 387.847 99.4 385.82 97.64C383.847 95.8266 382.274 93.5866 381.1 90.92C379.98 88.2 379.42 85.08 379.42 81.56V58.12C379.42 54.6 379.98 51.5066 381.1 48.84C382.274 46.1733 383.847 43.9333 385.82 42.12C387.847 40.3066 390.22 38.9466 392.94 38.04C395.714 37.1333 398.674 36.68 401.82 36.68C404.967 36.68 407.9 37.1333 410.62 38.04C413.394 38.9466 415.767 40.3066 417.74 42.12C419.767 43.9333 421.34 46.1733 422.46 48.84C423.634 51.5066 424.22 54.6 424.22 58.12V81.56C424.22 85.08 423.634 88.2 422.46 90.92C421.34 93.5866 419.767 95.8266 417.74 97.64C415.767 99.4 413.394 100.733 410.62 101.64C407.9 102.547 404.967 103 401.82 103ZM401.82 89.4C402.514 89.4 403.234 89.2933 403.98 89.08C404.727 88.8666 405.394 88.4933 405.98 87.96C406.62 87.4266 407.127 86.7333 407.5 85.88C407.927 85.0266 408.14 83.96 408.14 82.68V57C408.14 55.7733 407.927 54.7333 407.5 53.88C407.127 53.0266 406.62 52.3333 405.98 51.8C405.394 51.2666 404.727 50.8933 403.98 50.68C403.234 50.4133 402.514 50.28 401.82 50.28C401.127 50.28 400.407 50.4133 399.66 50.68C398.914 50.8933 398.22 51.2666 397.58 51.8C396.994 52.3333 396.487 53.0266 396.06 53.88C395.687 54.7333 395.5 55.7733 395.5 57V82.68C395.5 83.96 395.687 85.0266 396.06 85.88C396.487 86.7333 396.994 87.4266 397.58 87.96C398.22 88.4933 398.914 88.8666 399.66 89.08C400.407 89.2933 401.127 89.4 401.82 89.4Z" fill="#EA332B"/>
<path d="M441.771 74.44C439.371 74.44 437.425 74.2533 435.931 73.88C434.438 73.4533 433.265 72.7866 432.411 71.88C431.611 70.92 431.051 69.6666 430.731 68.12C430.465 66.5733 430.331 64.6266 430.331 62.28V46.68C430.331 44.3866 430.465 42.4666 430.731 40.92C431.051 39.32 431.611 38.0666 432.411 37.16C433.265 36.2 434.438 35.5333 435.931 35.16C437.425 34.7333 439.371 34.52 441.771 34.52H463.371C465.771 34.52 467.718 34.7333 469.211 35.16C470.705 35.5333 471.851 36.2 472.651 37.16C473.505 38.0666 474.065 39.32 474.331 40.92C474.651 42.4666 474.811 44.3866 474.811 46.68V74.44H441.771ZM445.611 107.08C443.371 107.08 441.505 106.867 440.011 106.44C438.571 106.013 437.425 105.347 436.571 104.44C435.718 103.533 435.105 102.333 434.731 100.84C434.411 99.3466 434.251 97.5333 434.251 95.4V86.84C434.251 84.12 435.051 82.12 436.651 80.84C438.305 79.56 440.251 78.92 442.491 78.92C444.731 78.92 446.625 79.56 448.171 80.84C449.718 82.12 450.491 84.12 450.491 86.84V92.68C450.491 93.5866 450.625 94.1466 450.891 94.36C451.158 94.5733 451.745 94.68 452.651 94.68H494.571C497.025 94.68 498.758 95.32 499.771 96.6C500.785 97.8266 501.291 99.24 501.291 100.84C501.291 102.493 500.758 103.933 499.691 105.16C498.678 106.44 496.971 107.08 494.571 107.08H445.611ZM482.891 39.88C482.891 37.2666 483.665 35.2933 485.211 33.96C486.758 32.6266 488.598 31.96 490.731 31.96C492.811 31.96 494.625 32.6533 496.171 34.04C497.771 35.3733 498.571 37.32 498.571 39.88V51.96H501.051C502.278 51.96 503.291 52.1733 504.091 52.6C504.891 53.0266 505.531 53.5866 506.011 54.28C506.491 54.92 506.838 55.6666 507.051 56.52C507.265 57.32 507.371 58.12 507.371 58.92C507.371 59.72 507.265 60.5466 507.051 61.4C506.838 62.2 506.491 62.9466 506.011 63.64C505.531 64.28 504.865 64.8133 504.011 65.24C503.211 65.6666 502.225 65.88 501.051 65.88H498.571V88.52H482.891V39.88ZM445.531 60.6C445.531 61.4533 445.638 62.0133 445.851 62.28C446.118 62.5466 446.651 62.68 447.451 62.68H459.611V48.28C459.611 47.5333 459.478 47.0266 459.211 46.76C458.945 46.44 458.411 46.28 457.611 46.28H447.451C446.651 46.28 446.118 46.44 445.851 46.76C445.638 47.0266 445.531 47.5333 445.531 48.28V60.6Z" fill="#EA332B"/>
<path d="M527.531 88.2C527.851 89.1066 528.011 90.0933 528.011 91.16V93.08C528.011 93.9866 528.145 94.5733 528.411 94.84C528.678 95.0533 529.265 95.16 530.171 95.16H573.691C576.145 95.16 577.878 95.7733 578.891 97C579.905 98.1733 580.411 99.5333 580.411 101.08C580.411 102.627 579.878 104.013 578.811 105.24C577.798 106.467 576.091 107.08 573.691 107.08H523.211C520.971 107.08 519.105 106.867 517.611 106.44C516.171 106.013 515.025 105.347 514.171 104.44C513.318 103.533 512.705 102.333 512.331 100.84C512.011 99.3466 511.851 97.5333 511.851 95.4V91.16C511.851 88.44 512.651 86.4666 514.251 85.24C515.851 83.96 517.771 83.32 520.011 83.32C521.238 83.32 522.411 83.5333 523.531 83.96V75.72H512.651C510.251 75.72 508.545 75.1333 507.531 73.96C506.518 72.7866 506.011 71.4 506.011 69.8C506.011 68.2 506.518 66.7866 507.531 65.56C508.545 64.3333 510.251 63.72 512.651 63.72H553.131C555.531 63.72 557.238 64.3333 558.251 65.56C559.265 66.7866 559.771 68.2 559.771 69.8C559.771 71.4 559.265 72.7866 558.251 73.96C557.238 75.1333 555.531 75.72 553.131 75.72H539.051V88.2H527.531ZM522.891 60.12C520.331 60.12 518.091 59.8 516.171 59.16C514.305 58.4666 512.758 57.56 511.531 56.44C510.358 55.2666 509.478 53.88 508.891 52.28C508.305 50.6266 508.011 48.84 508.011 46.92C508.011 45 508.305 43.24 508.891 41.64C509.478 39.9866 510.358 38.5733 511.531 37.4C512.758 36.2266 514.305 35.32 516.171 34.68C518.091 33.9866 520.331 33.64 522.891 33.64H541.451C544.011 33.64 546.225 33.9866 548.091 34.68C549.958 35.32 551.478 36.2266 552.651 37.4C553.878 38.5733 554.785 39.9866 555.371 41.64C555.958 43.24 556.251 45 556.251 46.92C556.251 50.76 555.051 53.9333 552.651 56.44C550.305 58.8933 546.571 60.12 541.451 60.12H522.891ZM562.411 89.32H550.251C547.958 89.32 546.305 88.8133 545.291 87.8C544.331 86.7333 543.851 85.4266 543.851 83.88C543.851 82.3333 544.331 81.0266 545.291 79.96C546.251 78.8933 547.905 78.36 550.251 78.36H562.411V39.72C562.411 37.16 563.211 35.24 564.811 33.96C566.411 32.6266 568.251 31.96 570.331 31.96C571.345 31.96 572.331 32.1466 573.291 32.52C574.251 32.84 575.105 33.32 575.851 33.96C576.598 34.6 577.185 35.4 577.611 36.36C578.091 37.32 578.331 38.44 578.331 39.72V91.72H562.411V89.32ZM526.331 44.44C525.105 44.44 524.251 44.6533 523.771 45.08C523.291 45.4533 523.051 46.0666 523.051 46.92C523.051 47.72 523.291 48.36 523.771 48.84C524.251 49.2666 525.105 49.48 526.331 49.48H537.931C539.158 49.48 540.011 49.2666 540.491 48.84C540.971 48.36 541.211 47.72 541.211 46.92C541.211 46.0666 540.971 45.4533 540.491 45.08C540.011 44.6533 539.158 44.44 537.931 44.44H526.331Z" fill="#EA332B"/>
<path d="M74.7885 52.4399L74.6285 53.5599C74.6285 54.9466 74.5485 56.2265 74.3885 57.3999C80.6285 57.5065 85.2685 59.1865 88.3085 62.4399C91.3485 65.6399 92.8419 70.8666 92.7885 78.1199H77.8285C78.0419 74.7599 77.4019 72.2532 75.9085 70.5999C74.4152 68.9466 72.4419 68.2266 69.9885 68.4399C68.7619 70.1465 67.3485 71.6399 65.7485 72.9199C64.1485 74.1466 62.4419 75.1866 60.6285 76.0399C58.8152 76.8932 56.9219 77.5599 54.9485 78.0399C53.0285 78.4666 51.1085 78.6799 49.1885 78.6799C47.2152 78.7332 45.5352 78.2266 44.1485 77.1599C42.8152 76.0399 42.1485 74.5732 42.1485 72.7599C42.1485 70.8932 42.6019 69.4532 43.5085 68.4399C44.4685 67.4265 45.7485 66.7865 47.3485 66.5199C51.2419 65.9332 54.2285 64.5199 56.3085 62.2799C58.4419 60.0399 59.5085 57.1332 59.5085 53.5599L59.6685 52.4399H48.7885C47.8285 52.4399 46.9752 52.2532 46.2285 51.8799C45.5352 51.4532 44.9485 50.9466 44.4685 50.3599C43.9885 49.7732 43.6152 49.1065 43.3485 48.3599C43.0819 47.6132 42.9485 46.8665 42.9485 46.1199C42.9485 45.4265 43.0552 44.7065 43.2685 43.9599C43.4819 43.1599 43.8285 42.4399 44.3085 41.7999C44.7885 41.1599 45.4019 40.6532 46.1485 40.2799C46.8952 39.8532 47.7752 39.6399 48.7885 39.6399H59.7485V38.9199C59.7485 36.5199 60.4152 34.7599 61.7485 33.6399C63.0819 32.4666 65.0019 31.8799 67.5085 31.8799C70.0152 31.8799 71.9352 32.4666 73.2685 33.6399C74.6552 34.7599 75.3485 36.5199 75.3485 38.9199V39.6399H86.6285C87.6419 39.6399 88.5219 39.8532 89.2685 40.2799C90.0152 40.6532 90.6285 41.1599 91.1085 41.7999C91.5885 42.4399 91.9352 43.1599 92.1485 43.9599C92.3619 44.7065 92.4685 45.4265 92.4685 46.1199C92.4685 46.8665 92.3352 47.6132 92.0685 48.3599C91.8019 49.1065 91.4285 49.7732 90.9485 50.3599C90.4685 50.9466 89.8552 51.4532 89.1085 51.8799C88.4152 52.2532 87.5885 52.4399 86.6285 52.4399H74.7885ZM98.2285 107.08V39.8799C98.2285 37.2665 99.0285 35.2932 100.629 33.9599C102.229 32.6265 104.095 31.9599 106.229 31.9599C108.362 31.9599 110.229 32.6265 111.829 33.9599C113.429 35.2932 114.229 37.2665 114.229 39.8799V107.08H98.2285ZM59.9085 91.3999V83.8799C59.9085 82.5999 60.1219 81.5066 60.5485 80.5999C60.9752 79.6932 61.5352 78.9732 62.2285 78.4399C62.9752 77.8532 63.8019 77.4266 64.7085 77.1599C65.6685 76.8932 66.6819 76.7599 67.7485 76.7599C69.8285 76.7599 71.6419 77.3199 73.1885 78.4399C74.7885 79.5065 75.5885 81.3199 75.5885 83.8799V91.3999H88.6285C91.0819 91.3999 92.8152 92.0666 93.8285 93.3999C94.8419 94.6799 95.3485 96.1466 95.3485 97.7999C95.3485 99.5066 94.8152 101 93.7485 102.28C92.7352 103.613 91.0285 104.28 88.6285 104.28H48.3885C45.9885 104.28 44.2552 103.613 43.1885 102.28C42.1219 101 41.5885 99.5066 41.5885 97.7999C41.5885 96.1466 42.0952 94.6799 43.1085 93.3999C44.1752 92.0666 45.9352 91.3999 48.3885 91.3999H59.9085Z" fill="#383638"/>
<path d="M178.709 74.0399H174.309V107.08H160.229V38.7599C160.229 36.5199 160.922 34.8399 162.309 33.7199C163.749 32.5465 165.402 31.9599 167.269 31.9599C169.082 31.9599 170.709 32.5465 172.149 33.7199C173.589 34.8399 174.309 36.5199 174.309 38.7599V60.9199H178.709V38.7599C178.709 37.6399 178.895 36.6532 179.269 35.7999C179.695 34.9465 180.229 34.2532 180.869 33.7199C181.562 33.1332 182.335 32.7065 183.189 32.4399C184.095 32.1199 185.002 31.9599 185.909 31.9599C186.815 31.9599 187.695 32.1199 188.549 32.4399C189.402 32.7065 190.175 33.1332 190.869 33.7199C191.562 34.3065 192.095 35.0265 192.469 35.8799C192.895 36.6799 193.109 37.6399 193.109 38.7599V107.08H178.709V74.0399ZM132.949 103.88C130.335 103.88 128.229 103.72 126.629 103.4C125.082 103.08 123.882 102.467 123.029 101.56C122.229 100.707 121.695 99.5066 121.429 97.9599C121.162 96.3599 121.029 94.3066 121.029 91.7999V46.7599C121.029 44.2532 121.162 42.2266 121.429 40.6799C121.695 39.1332 122.229 37.9332 123.029 37.0799C123.882 36.1732 125.082 35.5599 126.629 35.2399C128.229 34.9199 130.335 34.7599 132.949 34.7599H149.989C151.162 34.7599 152.122 34.9465 152.869 35.3199C153.669 35.6932 154.309 36.1732 154.789 36.7599C155.269 37.3465 155.589 38.0399 155.749 38.8399C155.962 39.6399 156.069 40.4665 156.069 41.3199C156.069 43.0799 155.615 44.6265 154.709 45.9599C153.855 47.2399 152.282 47.8799 149.989 47.8799H138.709C137.642 47.8799 136.949 48.0399 136.629 48.3599C136.362 48.6265 136.229 49.2932 136.229 50.3599V88.2799C136.229 89.3466 136.362 90.0399 136.629 90.3599C136.949 90.6266 137.642 90.7599 138.709 90.7599H151.669C152.842 90.7599 153.802 90.9466 154.549 91.3199C155.349 91.6932 155.989 92.1732 156.469 92.7599C156.949 93.3466 157.269 94.0399 157.429 94.8399C157.642 95.6399 157.749 96.4666 157.749 97.3199C157.749 99.0799 157.295 100.6 156.389 101.88C155.535 103.213 153.962 103.88 151.669 103.88H132.949Z" fill="#383638"/>
<path d="M63.1278 220.11C60.0078 220.11 57.2778 219.69 54.9378 218.85C52.6578 218.07 50.7678 216.96 49.2678 215.52C47.7678 214.08 46.6578 212.37 45.9378 210.39C45.2178 208.41 44.8578 206.25 44.8578 203.91C44.8578 201.57 45.2178 199.41 45.9378 197.43C46.6578 195.39 47.7678 193.65 49.2678 192.21C50.7678 190.77 52.6578 189.63 54.9378 188.79C57.2778 187.95 60.0078 187.53 63.1278 187.53H101.918C104.978 187.53 107.648 187.95 109.928 188.79C112.268 189.57 114.188 190.68 115.688 192.12C117.188 193.56 118.298 195.3 119.018 197.34C119.798 199.32 120.188 201.51 120.188 203.91C120.188 208.71 118.688 212.61 115.688 215.61C112.688 218.61 108.098 220.11 101.918 220.11H63.1278ZM75.5478 156.93V157.47C75.5478 158.91 75.4578 160.29 75.2778 161.61C82.1178 161.55 87.1578 163.29 90.3978 166.83C93.6978 170.37 95.2878 176.01 95.1678 183.75H78.3378C78.6378 180.33 78.0378 177.78 76.5378 176.1C75.0978 174.36 73.0878 173.58 70.5078 173.76C67.8078 177.42 64.4478 180.15 60.4278 181.95C56.4078 183.75 52.2378 184.65 47.9178 184.65C45.6978 184.65 43.8078 184.08 42.2478 182.94C40.7478 181.74 39.9978 180.12 39.9978 178.08C39.9978 175.98 40.5078 174.36 41.5278 173.22C42.6078 172.02 44.0478 171.33 45.8478 171.15C49.9878 170.67 53.1678 169.2 55.3878 166.74C57.6078 164.28 58.7178 161.19 58.7178 157.47V156.93H47.0178C45.9378 156.93 44.9778 156.72 44.1378 156.3C43.3578 155.88 42.6978 155.34 42.1578 154.68C41.6178 154.02 41.1978 153.3 40.8978 152.52C40.5978 151.68 40.4478 150.84 40.4478 150C40.4478 149.22 40.5678 148.41 40.8078 147.57C41.0478 146.67 41.4378 145.89 41.9778 145.23C42.5178 144.57 43.2078 144.03 44.0478 143.61C44.8878 143.13 45.8778 142.89 47.0178 142.89H58.4478V142.62C58.4478 139.92 59.1978 137.94 60.6978 136.68C62.1978 135.42 64.3578 134.79 67.1778 134.79C69.9978 134.79 72.1578 135.42 73.6578 136.68C75.2178 137.94 75.9978 139.92 75.9978 142.62V142.89H87.7878C88.9278 142.89 89.9178 143.13 90.7578 143.61C91.5978 144.03 92.2878 144.57 92.8278 145.23C93.3678 145.89 93.7578 146.67 93.9978 147.57C94.2378 148.41 94.3578 149.22 94.3578 150C94.3578 150.84 94.2078 151.68 93.9078 152.52C93.6078 153.3 93.1878 154.02 92.6478 154.68C92.1078 155.34 91.4178 155.88 90.5778 156.3C89.7978 156.72 88.8678 156.93 87.7878 156.93H75.5478ZM100.928 144.24C100.928 141.3 101.798 139.08 103.538 137.58C105.338 136.08 107.438 135.33 109.838 135.33C112.178 135.33 114.248 136.11 116.048 137.67C117.848 139.17 118.748 141.36 118.748 144.24V151.89H121.538C122.918 151.89 124.058 152.13 124.958 152.61C125.858 153.09 126.578 153.69 127.118 154.41C127.658 155.13 128.048 155.97 128.288 156.93C128.528 157.83 128.648 158.73 128.648 159.63C128.648 160.53 128.528 161.46 128.288 162.42C128.048 163.32 127.658 164.16 127.118 164.94C126.578 165.66 125.828 166.26 124.868 166.74C123.968 167.16 122.858 167.37 121.538 167.37H118.748V184.65H100.928V144.24ZM97.0578 207.96C98.9178 207.96 100.178 207.57 100.838 206.79C101.558 206.01 101.918 205.05 101.918 203.91C101.918 202.77 101.558 201.84 100.838 201.12C100.178 200.4 98.9178 200.04 97.0578 200.04H67.9878C66.1278 200.04 64.8378 200.4 64.1178 201.12C63.4578 201.84 63.1278 202.77 63.1278 203.91C63.1278 205.05 63.4578 206.01 64.1178 206.79C64.8378 207.57 66.1278 207.96 67.9878 207.96H97.0578Z" fill="#383638"/>
<path d="M128.648 157.02C128.648 153.36 129.248 150.24 130.448 147.66C131.708 145.08 133.448 142.98 135.668 141.36C137.888 139.68 140.528 138.48 143.588 137.76C146.708 136.98 150.128 136.59 153.848 136.59C160.328 136.59 165.728 137.79 170.048 140.19C174.368 142.53 177.068 146.34 178.148 151.62H190.568V144.06C190.568 141.18 191.468 139.02 193.268 137.58C195.068 136.08 197.138 135.33 199.478 135.33C200.618 135.33 201.728 135.54 202.808 135.96C203.888 136.32 204.848 136.86 205.688 137.58C206.528 138.3 207.188 139.2 207.668 140.28C208.208 141.36 208.478 142.62 208.478 144.06V180.96H190.568V165.66H178.058C176.858 170.82 174.098 174.54 169.778 176.82C165.518 179.1 160.208 180.24 153.848 180.24C150.068 180.24 146.618 179.88 143.498 179.16C140.378 178.38 137.708 177.18 135.488 175.56C133.328 173.88 131.648 171.75 130.448 169.17C129.248 166.59 128.648 163.47 128.648 159.81V157.02ZM145.568 219.84C143.048 219.84 140.948 219.6 139.268 219.12C137.648 218.64 136.358 217.89 135.398 216.87C134.438 215.85 133.748 214.5 133.328 212.82C132.968 211.14 132.788 209.1 132.788 206.7V192.39C132.788 189.33 133.658 187.14 135.398 185.82C137.198 184.44 139.358 183.75 141.878 183.75C144.158 183.75 146.108 184.32 147.728 185.46C149.408 186.6 150.398 188.43 150.698 190.95H191.018C191.318 188.43 192.308 186.6 193.988 185.46C195.668 184.32 197.678 183.75 200.018 183.75C202.538 183.75 204.638 184.44 206.318 185.82C208.058 187.14 208.928 189.33 208.928 192.39V219.84H145.568ZM146.198 160.71C146.198 162.99 146.888 164.7 148.268 165.84C149.708 166.92 151.568 167.46 153.848 167.46C156.128 167.46 157.958 166.92 159.338 165.84C160.778 164.7 161.498 162.99 161.498 160.71V156.12C161.498 153.84 160.778 152.16 159.338 151.08C157.958 149.94 156.128 149.37 153.848 149.37C151.568 149.37 149.708 149.94 148.268 151.08C146.888 152.16 146.198 153.84 146.198 156.12V160.71ZM190.928 207.87V202.47H150.788V205.62C150.788 206.64 150.938 207.27 151.238 207.51C151.538 207.75 152.198 207.87 153.218 207.87H190.928Z" fill="#383638"/>
<path d="M235.568 218.22C232.868 218.22 230.348 217.8 228.008 216.96C225.668 216.18 223.628 214.92 221.888 213.18C220.148 211.5 218.768 209.34 217.748 206.7C216.788 204 216.308 200.82 216.308 197.16V166.11C216.308 163.29 216.668 160.8 217.388 158.64C215.828 158.34 214.658 157.56 213.878 156.3C213.098 155.04 212.708 153.6 212.708 151.98C212.708 150.06 213.188 148.47 214.148 147.21C215.168 145.89 216.788 145.23 219.008 145.23H227.378V144.06C227.378 141.36 228.038 139.26 229.358 137.76C230.738 136.2 232.808 135.42 235.568 135.42C238.388 135.42 240.488 136.2 241.868 137.76C243.248 139.26 243.938 141.36 243.938 144.06V145.23H251.858C254.078 145.23 255.698 145.89 256.718 147.21C257.738 148.47 258.248 150.06 258.248 151.98C258.248 153.66 257.828 155.13 256.988 156.39C256.208 157.59 255.008 158.37 253.388 158.73C254.108 160.83 254.468 163.29 254.468 166.11V197.16C254.468 200.82 253.988 204 253.028 206.7C252.068 209.34 250.748 211.5 249.068 213.18C247.388 214.92 245.378 216.18 243.038 216.96C240.758 217.8 238.268 218.22 235.568 218.22ZM264.188 199.05H262.478C261.098 199.05 259.988 198.81 259.148 198.33C258.368 197.85 257.738 197.25 257.258 196.53C256.838 195.75 256.538 194.91 256.358 194.01C256.238 193.05 256.178 192.12 256.178 191.22C256.178 190.32 256.238 189.42 256.358 188.52C256.538 187.56 256.838 186.72 257.258 186C257.738 185.22 258.368 184.59 259.148 184.11C259.988 183.63 261.098 183.39 262.478 183.39H264.188V176.55H262.478C261.098 176.55 259.988 176.31 259.148 175.83C258.368 175.35 257.738 174.75 257.258 174.03C256.838 173.25 256.538 172.41 256.358 171.51C256.238 170.55 256.178 169.62 256.178 168.72C256.178 167.82 256.238 166.92 256.358 166.02C256.538 165.06 256.838 164.22 257.258 163.5C257.738 162.72 258.368 162.09 259.148 161.61C259.988 161.13 261.098 160.89 262.478 160.89H264.188V142.53C264.188 140.13 264.908 138.33 266.348 137.13C267.788 135.93 269.498 135.33 271.478 135.33C273.398 135.33 275.078 135.96 276.518 137.22C278.018 138.42 278.768 140.19 278.768 142.53V219.84H264.188V199.05ZM282.548 142.44C282.548 140.04 283.298 138.27 284.798 137.13C286.298 135.93 288.038 135.33 290.018 135.33C291.938 135.33 293.648 135.93 295.148 137.13C296.708 138.33 297.488 140.1 297.488 142.44V219.84H282.548V142.44ZM235.568 204.72C236.348 204.72 237.158 204.42 237.998 203.82C238.838 203.16 239.258 201.99 239.258 200.31V162.69C239.258 161.07 238.838 159.93 237.998 159.27C237.158 158.61 236.348 158.28 235.568 158.28C234.788 158.28 233.978 158.61 233.138 159.27C232.358 159.93 231.968 161.07 231.968 162.69V200.31C231.968 201.99 232.358 203.16 233.138 203.82C233.978 204.42 234.788 204.72 235.568 204.72Z" fill="#383638"/>
<path d="M315.038 184.47C312.698 184.47 310.778 184.29 309.278 183.93C307.778 183.51 306.578 182.85 305.678 181.95C304.838 181.05 304.238 179.85 303.878 178.35C303.578 176.85 303.428 174.96 303.428 172.68V149.46C303.428 147.24 303.578 145.38 303.878 143.88C304.238 142.38 304.838 141.18 305.678 140.28C306.578 139.38 307.778 138.75 309.278 138.39C310.778 137.97 312.698 137.76 315.038 137.76H338.618C340.718 137.76 342.248 138.42 343.208 139.74C344.228 141 344.738 142.47 344.738 144.15C344.738 145.89 344.228 147.36 343.208 148.56C342.248 149.76 340.718 150.36 338.618 150.36H322.508C321.488 150.36 320.828 150.51 320.528 150.81C320.228 151.11 320.078 151.77 320.078 152.79V155.13H338.618C339.638 155.13 340.478 155.34 341.138 155.76C341.858 156.12 342.428 156.6 342.848 157.2C343.328 157.8 343.658 158.46 343.838 159.18C344.078 159.9 344.198 160.59 344.198 161.25C344.198 161.91 344.078 162.6 343.838 163.32C343.658 163.98 343.328 164.61 342.848 165.21C342.428 165.81 341.858 166.29 341.138 166.65C340.418 167.01 339.578 167.19 338.618 167.19H320.078V169.62C320.078 170.64 320.228 171.3 320.528 171.6C320.828 171.9 321.488 172.05 322.508 172.05H340.778C342.878 172.05 344.408 172.65 345.368 173.85C346.328 175.05 346.808 176.49 346.808 178.17C346.808 179.91 346.328 181.41 345.368 182.67C344.408 183.87 342.878 184.47 340.778 184.47H315.038ZM368.768 167.46H364.538V185.37H348.878V142.98C348.878 140.46 349.658 138.57 351.218 137.31C352.778 135.99 354.608 135.33 356.708 135.33C358.748 135.33 360.548 135.99 362.108 137.31C363.728 138.57 364.538 140.46 364.538 142.98V153.6H368.768V142.98C368.768 140.46 369.548 138.57 371.108 137.31C372.668 135.99 374.498 135.33 376.598 135.33C378.638 135.33 380.468 135.99 382.088 137.31C383.708 138.57 384.518 140.46 384.518 142.98V185.37H368.768V167.46ZM314.048 203.19C311.528 203.19 309.578 202.53 308.198 201.21C306.878 199.89 306.218 198.18 306.218 196.08C306.218 193.98 306.878 192.27 308.198 190.95C309.578 189.63 311.528 188.97 314.048 188.97H371.648C374.468 188.97 376.748 189.18 378.488 189.6C380.228 190.02 381.578 190.77 382.538 191.85C383.498 192.93 384.128 194.37 384.428 196.17C384.788 197.91 384.968 200.13 384.968 202.83V219.84H366.788V205.35C366.788 203.91 366.068 203.19 364.628 203.19H314.048Z" fill="#383638"/>
<path d="M429.542 154.14H417.482C416.102 154.14 414.932 153.93 413.972 153.51C413.012 153.03 412.232 152.43 411.632 151.71C411.032 150.99 410.582 150.18 410.282 149.28C409.982 148.32 409.832 147.39 409.832 146.49C409.832 145.59 409.952 144.69 410.192 143.79C410.492 142.83 410.942 141.99 411.542 141.27C412.202 140.55 413.012 139.95 413.972 139.47C414.932 138.99 416.102 138.75 417.482 138.75H459.152C460.532 138.75 461.702 138.99 462.662 139.47C463.622 139.95 464.372 140.55 464.912 141.27C465.512 141.99 465.932 142.83 466.172 143.79C466.472 144.69 466.622 145.59 466.622 146.49C466.622 147.39 466.472 148.32 466.172 149.28C465.932 150.18 465.512 150.99 464.912 151.71C464.312 152.43 463.532 153.03 462.572 153.51C461.612 153.93 460.472 154.14 459.152 154.14H447.092V163.86C447.092 165.96 447.032 167.97 446.912 169.89C446.792 171.81 446.612 173.67 446.372 175.47C449.612 176.61 452.522 178.14 455.102 180.06C457.742 181.98 459.932 184.5 461.672 187.62C463.412 190.68 464.702 194.43 465.542 198.87C466.382 203.31 466.682 208.62 466.442 214.8H449.522C450.122 208.74 449.792 203.82 448.532 200.04C447.332 196.2 445.322 193.32 442.502 191.4C440.282 197.16 437.372 201.99 433.772 205.89C430.172 209.73 426.032 212.64 421.352 214.62C420.392 215.04 419.342 215.25 418.202 215.25C417.122 215.31 416.042 215.19 414.962 214.89C413.942 214.65 412.982 214.23 412.082 213.63C411.242 213.09 410.612 212.37 410.192 211.47C409.352 209.79 409.142 208.02 409.562 206.16C409.982 204.3 411.092 202.8 412.892 201.66C415.772 199.86 418.232 197.82 420.272 195.54C422.372 193.2 424.112 190.5 425.492 187.44C426.872 184.32 427.892 180.81 428.552 176.91C429.212 172.95 429.542 168.45 429.542 163.41V154.14ZM474.902 219.84V144.24C474.902 141.3 475.802 139.08 477.602 137.58C479.402 136.08 481.502 135.33 483.902 135.33C486.302 135.33 488.402 136.08 490.202 137.58C492.002 139.08 492.902 141.3 492.902 144.24V219.84H474.902Z" fill="#383638"/>
<path d="M523.052 198.6C523.412 199.62 523.592 200.73 523.592 201.93V204.09C523.592 205.11 523.742 205.77 524.042 206.07C524.342 206.31 525.002 206.43 526.022 206.43H574.982C577.742 206.43 579.692 207.12 580.832 208.5C581.972 209.82 582.542 211.35 582.542 213.09C582.542 214.83 581.942 216.39 580.742 217.77C579.602 219.15 577.682 219.84 574.982 219.84H518.192C515.672 219.84 513.572 219.6 511.892 219.12C510.272 218.64 508.982 217.89 508.022 216.87C507.062 215.85 506.372 214.5 505.952 212.82C505.592 211.14 505.412 209.1 505.412 206.7V201.93C505.412 198.87 506.312 196.65 508.112 195.27C509.912 193.83 512.072 193.11 514.592 193.11C515.972 193.11 517.292 193.35 518.552 193.83V184.56H506.312C503.612 184.56 501.692 183.9 500.552 182.58C499.412 181.26 498.842 179.7 498.842 177.9C498.842 176.1 499.412 174.51 500.552 173.13C501.692 171.75 503.612 171.06 506.312 171.06H551.852C554.552 171.06 556.472 171.75 557.612 173.13C558.752 174.51 559.322 176.1 559.322 177.9C559.322 179.7 558.752 181.26 557.612 182.58C556.472 183.9 554.552 184.56 551.852 184.56H536.012V198.6H523.052ZM517.832 167.01C514.952 167.01 512.432 166.65 510.272 165.93C508.172 165.15 506.432 164.13 505.052 162.87C503.732 161.55 502.742 159.99 502.082 158.19C501.422 156.33 501.092 154.32 501.092 152.16C501.092 150 501.422 148.02 502.082 146.22C502.742 144.36 503.732 142.77 505.052 141.45C506.432 140.13 508.172 139.11 510.272 138.39C512.432 137.61 514.952 137.22 517.832 137.22H538.712C541.592 137.22 544.082 137.61 546.182 138.39C548.282 139.11 549.992 140.13 551.312 141.45C552.692 142.77 553.712 144.36 554.372 146.22C555.032 148.02 555.362 150 555.362 152.16C555.362 156.48 554.012 160.05 551.312 162.87C548.672 165.63 544.472 167.01 538.712 167.01H517.832ZM562.292 199.86H548.612C546.032 199.86 544.172 199.29 543.032 198.15C541.952 196.95 541.412 195.48 541.412 193.74C541.412 192 541.952 190.53 543.032 189.33C544.112 188.13 545.972 187.53 548.612 187.53H562.292V144.06C562.292 141.18 563.192 139.02 564.992 137.58C566.792 136.08 568.862 135.33 571.202 135.33C572.342 135.33 573.452 135.54 574.532 135.96C575.612 136.32 576.572 136.86 577.412 137.58C578.252 138.3 578.912 139.2 579.392 140.28C579.932 141.36 580.202 142.62 580.202 144.06V202.56H562.292V199.86ZM521.702 149.37C520.322 149.37 519.362 149.61 518.822 150.09C518.282 150.51 518.012 151.2 518.012 152.16C518.012 153.06 518.282 153.78 518.822 154.32C519.362 154.8 520.322 155.04 521.702 155.04H534.752C536.132 155.04 537.092 154.8 537.632 154.32C538.172 153.78 538.442 153.06 538.442 152.16C538.442 151.2 538.172 150.51 537.632 150.09C537.092 149.61 536.132 149.37 534.752 149.37H521.702Z" fill="#383638"/>
</svg>
