<svg width="714" height="759" viewBox="0 0 714 759" fill="none" xmlns="http://www.w3.org/2000/svg">
<g clip-path="url(#clip0_301_3007)">
<path d="M376.502 755.716V505.929L710.717 536.358V755.716H376.502Z" fill="white"/>
<path d="M379.786 509.525L707.45 539.363V752.415H379.786V509.509M373.219 502.316V758.984H714.017V533.353L373.219 502.316Z" fill="#CD2C25"/>
<path d="M442.613 630.165V631.485H459.773C460.301 631.485 460.73 631.529 461.06 631.617C461.412 631.727 461.676 631.859 461.852 632.013C462.05 632.189 462.182 632.398 462.248 632.64C462.314 632.882 462.347 633.135 462.347 633.399C462.347 633.729 462.314 634.004 462.248 634.224C462.182 634.444 462.05 634.631 461.852 634.785C461.676 634.939 461.412 635.049 461.06 635.115C460.73 635.181 460.301 635.214 459.773 635.214H439.841C439.225 635.214 438.741 635.159 438.389 635.049C438.037 634.939 437.773 634.785 437.597 634.587C437.443 634.411 437.344 634.191 437.3 633.927C437.278 633.663 437.267 633.366 437.267 633.036V628.647C437.267 628.427 437.289 628.207 437.333 627.987C437.399 627.767 437.52 627.569 437.696 627.393C437.872 627.217 438.125 627.085 438.455 626.997C438.785 626.887 439.225 626.832 439.775 626.832H456.242V625.71H439.676C439.126 625.71 438.686 625.666 438.356 625.578C438.026 625.49 437.773 625.369 437.597 625.215C437.421 625.061 437.3 624.874 437.234 624.654C437.19 624.434 437.168 624.181 437.168 623.895C437.168 623.675 437.19 623.455 437.234 623.235C437.3 622.993 437.421 622.784 437.597 622.608C437.773 622.41 438.026 622.256 438.356 622.146C438.686 622.036 439.126 621.981 439.676 621.981H459.08C459.608 621.981 460.037 622.047 460.367 622.179C460.697 622.289 460.95 622.432 461.126 622.608C461.324 622.784 461.445 622.993 461.489 623.235C461.555 623.455 461.588 623.675 461.588 623.895V628.383C461.588 628.647 461.555 628.889 461.489 629.109C461.445 629.329 461.335 629.516 461.159 629.67C461.005 629.824 460.763 629.945 460.433 630.033C460.125 630.121 459.707 630.165 459.179 630.165H442.613ZM435.65 612.774C435.65 612.488 435.683 612.235 435.749 612.015C435.837 611.795 435.991 611.608 436.211 611.454C436.431 611.3 436.739 611.179 437.135 611.091C437.531 611.003 438.037 610.959 438.653 610.959H448.454C449.07 610.959 449.576 611.003 449.972 611.091C450.368 611.179 450.676 611.3 450.896 611.454C451.116 611.608 451.259 611.795 451.325 612.015C451.413 612.235 451.457 612.488 451.457 612.774C451.457 613.016 451.413 613.247 451.325 613.467C451.259 613.665 451.116 613.852 450.896 614.028C450.676 614.182 450.368 614.303 449.972 614.391C449.576 614.479 449.07 614.523 448.454 614.523H446.507C446.639 614.985 446.837 615.348 447.101 615.612C447.387 615.876 447.706 616.096 448.058 616.272C448.432 616.448 448.828 616.613 449.246 616.767C449.686 616.899 450.137 617.064 450.599 617.262C451.127 617.504 451.512 617.823 451.754 618.219C451.996 618.615 452.029 619.132 451.853 619.77C451.655 620.474 451.259 620.881 450.665 620.991C450.071 621.079 449.411 621.013 448.685 620.793C448.377 620.705 448.014 620.584 447.596 620.43C447.2 620.276 446.771 620.089 446.309 619.869C445.869 619.649 445.429 619.418 444.989 619.176C444.549 618.912 444.153 618.637 443.801 618.351C443.119 618.945 442.316 619.44 441.392 619.836C440.49 620.232 439.643 620.529 438.851 620.727C438.499 620.815 438.136 620.892 437.762 620.958C437.388 621.024 437.025 621.046 436.673 621.024C436.343 620.98 436.046 620.87 435.782 620.694C435.518 620.518 435.32 620.232 435.188 619.836C434.968 619.176 434.99 618.626 435.254 618.186C435.518 617.724 436.068 617.35 436.904 617.064C437.454 616.866 437.938 616.69 438.356 616.536C438.796 616.382 439.17 616.217 439.478 616.041C439.786 615.843 440.028 615.623 440.204 615.381C440.402 615.139 440.556 614.853 440.666 614.523H438.653C438.037 614.523 437.531 614.479 437.135 614.391C436.739 614.303 436.431 614.182 436.211 614.028C435.991 613.852 435.837 613.665 435.749 613.467C435.683 613.247 435.65 613.016 435.65 612.774ZM456.242 617.559H454.394C453.778 617.559 453.283 617.493 452.909 617.361C452.535 617.229 452.238 617.064 452.018 616.866C451.82 616.646 451.688 616.393 451.622 616.107C451.556 615.821 451.523 615.513 451.523 615.183C451.523 614.919 451.556 614.655 451.622 614.391C451.688 614.105 451.82 613.852 452.018 613.632C452.238 613.412 452.535 613.236 452.909 613.104C453.283 612.95 453.778 612.873 454.394 612.873H456.242V609.441C456.242 608.341 456.506 607.593 457.034 607.197C457.584 606.779 458.211 606.57 458.915 606.57C459.267 606.57 459.597 606.614 459.905 606.702C460.235 606.79 460.521 606.944 460.763 607.164C461.005 607.384 461.203 607.681 461.357 608.055C461.511 608.429 461.588 608.891 461.588 609.441V618.285C461.588 618.857 461.511 619.33 461.357 619.704C461.203 620.078 461.005 620.375 460.763 620.595C460.521 620.815 460.235 620.969 459.905 621.057C459.597 621.145 459.267 621.189 458.915 621.189C458.563 621.189 458.222 621.145 457.892 621.057C457.584 620.969 457.298 620.815 457.034 620.595C456.792 620.375 456.594 620.078 456.44 619.704C456.308 619.33 456.242 618.857 456.242 618.285V617.559ZM437.597 607.989C437.597 607.527 437.751 607.131 438.059 606.801C438.389 606.449 439.071 606.273 440.105 606.273H447.167C448.201 606.273 448.872 606.449 449.18 606.801C449.51 607.131 449.675 607.527 449.675 607.989C449.675 608.187 449.642 608.385 449.576 608.583C449.51 608.781 449.378 608.968 449.18 609.144C449.004 609.298 448.751 609.43 448.421 609.54C448.113 609.628 447.695 609.672 447.167 609.672H440.105C439.577 609.672 439.148 609.628 438.818 609.54C438.51 609.43 438.257 609.298 438.059 609.144C437.883 608.968 437.762 608.781 437.696 608.583C437.63 608.385 437.597 608.187 437.597 607.989Z" fill="#EB322A"/>
<path d="M464.433 609.408C464.433 609.078 464.466 608.781 464.532 608.517C464.62 608.231 464.774 607.989 464.994 607.791C465.214 607.571 465.522 607.406 465.918 607.296C466.314 607.164 466.82 607.098 467.436 607.098H477.402C478.018 607.098 478.524 607.164 478.92 607.296C479.316 607.406 479.624 607.571 479.844 607.791C480.064 607.989 480.207 608.231 480.273 608.517C480.361 608.781 480.405 609.078 480.405 609.408C480.405 609.672 480.361 609.947 480.273 610.233C480.207 610.497 480.064 610.739 479.844 610.959C479.624 611.157 479.316 611.322 478.92 611.454C478.524 611.586 478.018 611.652 477.402 611.652H475.488V619.308V619.671V620.727C475.488 621.651 475.565 622.498 475.719 623.268C475.873 624.038 476.126 624.764 476.478 625.446C476.83 626.106 477.303 626.755 477.897 627.393C478.491 628.009 479.228 628.625 480.108 629.241C480.812 629.747 481.274 630.319 481.494 630.957C481.736 631.595 481.637 632.266 481.197 632.97C480.955 633.344 480.658 633.619 480.306 633.795C479.976 633.993 479.613 634.103 479.217 634.125C478.975 634.125 478.722 634.092 478.458 634.026C478.194 633.982 477.941 633.872 477.699 633.696C476.687 632.992 475.785 632.211 474.993 631.353C474.223 630.495 473.541 629.604 472.947 628.68C472.375 629.692 471.715 630.627 470.967 631.485C470.219 632.343 469.372 633.069 468.426 633.663C467.832 634.037 467.172 634.246 466.446 634.29C466.072 634.312 465.687 634.246 465.291 634.092C464.895 633.938 464.565 633.641 464.301 633.201C463.861 632.497 463.751 631.826 463.971 631.188C464.213 630.55 464.686 629.978 465.39 629.472C466.27 628.856 467.007 628.229 467.601 627.591C468.195 626.931 468.668 626.249 469.02 625.545C469.372 624.841 469.625 624.093 469.779 623.301C469.933 622.509 470.01 621.651 470.01 620.727V611.652H467.436C466.82 611.652 466.314 611.586 465.918 611.454C465.522 611.322 465.214 611.157 464.994 610.959C464.774 610.739 464.62 610.497 464.532 610.233C464.466 609.947 464.433 609.672 464.433 609.408ZM485.883 621.915H481.626C481.01 621.915 480.515 621.86 480.141 621.75C479.767 621.618 479.47 621.453 479.25 621.255C479.052 621.035 478.92 620.793 478.854 620.529C478.788 620.243 478.755 619.935 478.755 619.605C478.755 619.341 478.788 619.077 478.854 618.813C478.92 618.527 479.052 618.285 479.25 618.087C479.47 617.867 479.767 617.691 480.141 617.559C480.515 617.427 481.01 617.361 481.626 617.361H485.883V609.441C485.883 608.341 486.147 607.593 486.675 607.197C487.225 606.779 487.852 606.57 488.556 606.57C488.908 606.57 489.238 606.614 489.546 606.702C489.876 606.79 490.162 606.944 490.404 607.164C490.646 607.384 490.844 607.681 490.998 608.055C491.152 608.429 491.229 608.891 491.229 609.441V631.98C491.229 632.552 491.152 633.025 490.998 633.399C490.844 633.773 490.646 634.07 490.404 634.29C490.162 634.51 489.876 634.664 489.546 634.752C489.238 634.84 488.908 634.884 488.556 634.884C488.204 634.884 487.863 634.84 487.533 634.752C487.225 634.664 486.939 634.51 486.675 634.29C486.433 634.07 486.235 633.773 486.081 633.399C485.949 633.025 485.883 632.552 485.883 631.98V621.915Z" fill="#EB322A"/>
<path d="M500.211 630.693H516.48C517.096 630.693 517.602 630.759 517.998 630.891C518.394 631.023 518.702 631.188 518.922 631.386C519.142 631.606 519.285 631.848 519.351 632.112C519.439 632.398 519.483 632.673 519.483 632.937C519.483 633.267 519.439 633.564 519.351 633.828C519.285 634.114 519.142 634.356 518.922 634.554C518.702 634.774 518.394 634.939 517.998 635.049C517.602 635.181 517.096 635.247 516.48 635.247H497.538C496.922 635.247 496.438 635.181 496.086 635.049C495.734 634.939 495.459 634.774 495.261 634.554C495.085 634.356 494.975 634.114 494.931 633.828C494.887 633.564 494.865 633.267 494.865 632.937V629.538C494.865 628.988 494.953 628.537 495.129 628.185C495.305 627.811 495.536 627.525 495.822 627.327C496.108 627.107 496.416 626.953 496.746 626.865C497.098 626.777 497.439 626.733 497.769 626.733C498.429 626.733 499.001 626.931 499.485 627.327C499.969 627.701 500.211 628.438 500.211 629.538V630.693ZM513.246 609.441C513.246 608.341 513.51 607.593 514.038 607.197C514.588 606.779 515.215 606.57 515.919 606.57C516.271 606.57 516.601 606.614 516.909 606.702C517.239 606.79 517.525 606.944 517.767 607.164C518.009 607.384 518.207 607.681 518.361 608.055C518.515 608.429 518.592 608.891 518.592 609.441V614.754H520.671C521.287 614.754 521.793 614.82 522.189 614.952C522.585 615.084 522.893 615.26 523.113 615.48C523.333 615.678 523.476 615.92 523.542 616.206C523.63 616.47 523.674 616.734 523.674 616.998C523.674 617.328 523.63 617.636 523.542 617.922C523.476 618.186 523.333 618.428 523.113 618.648C522.893 618.846 522.585 619.011 522.189 619.143C521.793 619.253 521.287 619.308 520.671 619.308H518.592V624.291C518.592 624.863 518.515 625.336 518.361 625.71C518.207 626.084 518.009 626.381 517.767 626.601C517.525 626.821 517.239 626.975 516.909 627.063C516.601 627.151 516.271 627.195 515.919 627.195C515.567 627.195 515.226 627.151 514.896 627.063C514.588 626.975 514.302 626.821 514.038 626.601C513.796 626.381 513.598 626.084 513.444 625.71C513.312 625.336 513.246 624.863 513.246 624.291V609.441ZM494.403 621.123C494.403 619.253 494.975 617.933 496.119 617.163C497.263 616.393 499.056 616.008 501.498 616.008C503.94 616.008 505.733 616.393 506.877 617.163C508.021 617.933 508.593 619.253 508.593 621.123C508.593 622.113 508.45 622.938 508.164 623.598C507.878 624.258 507.449 624.775 506.877 625.149C506.305 625.523 505.568 625.787 504.666 625.941C503.764 626.095 502.708 626.172 501.498 626.172C499.056 626.172 497.263 625.798 496.119 625.05C494.975 624.28 494.403 622.971 494.403 621.123ZM493.083 613.005C493.083 612.675 493.116 612.389 493.182 612.147C493.27 611.905 493.424 611.707 493.644 611.553C493.864 611.377 494.172 611.245 494.568 611.157C494.964 611.069 495.47 611.025 496.086 611.025H506.91C507.526 611.025 508.032 611.069 508.428 611.157C508.824 611.245 509.132 611.377 509.352 611.553C509.572 611.707 509.715 611.905 509.781 612.147C509.869 612.389 509.913 612.675 509.913 613.005C509.913 613.269 509.869 613.522 509.781 613.764C509.715 613.984 509.572 614.171 509.352 614.325C509.132 614.479 508.824 614.6 508.428 614.688C508.032 614.776 507.526 614.82 506.91 614.82H496.086C495.47 614.82 494.964 614.776 494.568 614.688C494.172 614.6 493.864 614.479 493.644 614.325C493.424 614.171 493.27 613.984 493.182 613.764C493.116 613.522 493.083 613.269 493.083 613.005ZM495.162 608.154C495.162 607.516 495.349 607.065 495.723 606.801C496.119 606.515 496.933 606.372 498.165 606.372H504.831C506.063 606.372 506.866 606.515 507.24 606.801C507.636 607.065 507.834 607.516 507.834 608.154C507.834 608.704 507.636 609.133 507.24 609.441C506.866 609.727 506.063 609.87 504.831 609.87H498.165C496.933 609.87 496.119 609.727 495.723 609.441C495.349 609.133 495.162 608.704 495.162 608.154ZM499.551 621.123C499.551 621.563 499.672 621.904 499.914 622.146C500.156 622.388 500.684 622.509 501.498 622.509C502.334 622.509 502.862 622.388 503.082 622.146C503.324 621.904 503.445 621.563 503.445 621.123C503.445 620.683 503.324 620.342 503.082 620.1C502.862 619.858 502.334 619.737 501.498 619.737C500.684 619.737 500.156 619.858 499.914 620.1C499.672 620.342 499.551 620.683 499.551 621.123Z" fill="#EB322A"/>
<path d="M536.214 635.28C535.18 635.258 534.3 635.071 533.574 634.719C532.848 634.367 532.265 633.905 531.825 633.333C531.385 632.783 531.066 632.145 530.868 631.419C530.67 630.715 530.571 629.978 530.571 629.208C530.571 628.438 530.659 627.69 530.835 626.964C531.011 626.238 531.308 625.6 531.726 625.05C532.166 624.478 532.749 624.027 533.475 623.697C534.223 623.345 535.158 623.158 536.28 623.136H550.404C551.526 623.136 552.45 623.312 553.176 623.664C553.924 623.994 554.507 624.445 554.925 625.017C555.365 625.567 555.673 626.216 555.849 626.964C556.025 627.69 556.113 628.438 556.113 629.208C556.113 629.978 556.014 630.715 555.816 631.419C555.618 632.145 555.288 632.783 554.826 633.333C554.386 633.905 553.803 634.367 553.077 634.719C552.373 635.071 551.504 635.258 550.47 635.28H536.214ZM542.979 620.925C542.209 620.353 541.439 619.715 540.669 619.011C539.899 618.307 539.195 617.548 538.557 616.734C537.963 617.57 537.292 618.351 536.544 619.077C535.818 619.803 535.037 620.408 534.201 620.892C533.915 621.068 533.596 621.211 533.244 621.321C532.914 621.431 532.573 621.497 532.221 621.519C531.847 621.541 531.462 621.475 531.066 621.321C530.67 621.167 530.34 620.87 530.076 620.43C529.636 619.726 529.526 619.088 529.746 618.516C529.988 617.922 530.461 617.372 531.165 616.866C532.001 616.272 532.694 615.744 533.244 615.282C533.794 614.82 534.234 614.347 534.564 613.863C534.894 613.379 535.136 612.851 535.29 612.279C535.444 611.685 535.532 610.97 535.554 610.134V609.606C535.554 609.056 535.631 608.594 535.785 608.22C535.939 607.846 536.137 607.549 536.379 607.329C536.643 607.109 536.94 606.955 537.27 606.867C537.6 606.779 537.941 606.735 538.293 606.735C538.645 606.735 538.986 606.779 539.316 606.867C539.646 606.955 539.932 607.109 540.174 607.329C540.438 607.549 540.647 607.846 540.801 608.22C540.955 608.594 541.032 609.056 541.032 609.606V610.134C541.054 610.97 541.131 611.674 541.263 612.246C541.417 612.796 541.659 613.302 541.989 613.764C542.319 614.204 542.759 614.644 543.309 615.084C543.859 615.524 544.552 616.041 545.388 616.635C546.092 617.141 546.554 617.691 546.774 618.285C547.016 618.857 546.917 619.495 546.477 620.199C546.235 620.573 545.938 620.859 545.586 621.057C545.256 621.233 544.893 621.332 544.497 621.354C544.255 621.354 544.002 621.332 543.738 621.288C543.474 621.222 543.221 621.101 542.979 620.925ZM549.546 609.441C549.546 608.341 549.81 607.593 550.338 607.197C550.888 606.779 551.515 606.57 552.219 606.57C552.571 606.57 552.901 606.614 553.209 606.702C553.539 606.79 553.825 606.944 554.067 607.164C554.309 607.384 554.507 607.681 554.661 608.055C554.815 608.429 554.892 608.891 554.892 609.441V611.784H557.301C557.917 611.784 558.423 611.861 558.819 612.015C559.215 612.147 559.523 612.323 559.743 612.543C559.963 612.763 560.106 613.016 560.172 613.302C560.26 613.566 560.304 613.83 560.304 614.094C560.304 614.424 560.26 614.732 560.172 615.018C560.106 615.304 559.963 615.557 559.743 615.777C559.523 615.975 559.215 616.14 558.819 616.272C558.423 616.404 557.917 616.47 557.301 616.47H554.892V619.11C554.892 619.682 554.815 620.155 554.661 620.529C554.507 620.903 554.309 621.2 554.067 621.42C553.825 621.64 553.539 621.794 553.209 621.882C552.901 621.97 552.571 622.014 552.219 622.014C551.867 622.014 551.526 621.97 551.196 621.882C550.888 621.794 550.602 621.64 550.338 621.42C550.096 621.2 549.898 620.903 549.744 620.529C549.612 620.155 549.546 619.682 549.546 619.11V609.441ZM548.985 630.792C549.623 630.748 550.085 630.616 550.371 630.396C550.657 630.198 550.8 629.802 550.8 629.208C550.8 628.592 550.657 628.185 550.371 627.987C550.085 627.767 549.623 627.635 548.985 627.591H537.699C537.061 627.635 536.599 627.767 536.313 627.987C536.027 628.185 535.884 628.592 535.884 629.208C535.884 629.802 536.027 630.198 536.313 630.396C536.599 630.616 537.061 630.748 537.699 630.792H548.985Z" fill="#EB322A"/>
<path d="M566.613 630.693H583.872C584.488 630.693 584.994 630.759 585.39 630.891C585.786 631.023 586.094 631.188 586.314 631.386C586.534 631.606 586.677 631.848 586.743 632.112C586.831 632.398 586.875 632.673 586.875 632.937C586.875 633.267 586.831 633.564 586.743 633.828C586.677 634.114 586.534 634.356 586.314 634.554C586.094 634.774 585.786 634.939 585.39 635.049C584.994 635.181 584.488 635.247 583.872 635.247H563.94C563.324 635.247 562.84 635.181 562.488 635.049C562.136 634.917 561.861 634.741 561.663 634.521C561.487 634.323 561.377 634.081 561.333 633.795C561.289 633.509 561.267 633.201 561.267 632.871V628.845C561.267 628.295 561.333 627.855 561.465 627.525C561.619 627.173 561.817 626.898 562.059 626.7C562.323 626.502 562.609 626.37 562.917 626.304C563.247 626.238 563.588 626.205 563.94 626.205C564.292 626.205 564.622 626.238 564.93 626.304C565.26 626.37 565.546 626.502 565.788 626.7C566.03 626.898 566.228 627.173 566.382 627.525C566.536 627.855 566.613 628.295 566.613 628.845V630.693ZM581.001 615.711H579.219C578.603 615.711 578.108 615.656 577.734 615.546C577.36 615.414 577.063 615.249 576.843 615.051C576.645 614.831 576.513 614.589 576.447 614.325C576.381 614.039 576.348 613.731 576.348 613.401C576.348 613.137 576.381 612.873 576.447 612.609C576.513 612.323 576.645 612.081 576.843 611.883C577.063 611.663 577.36 611.487 577.734 611.355C578.108 611.223 578.603 611.157 579.219 611.157H581.001V609.441C581.001 608.341 581.265 607.593 581.793 607.197C582.343 606.779 582.97 606.57 583.674 606.57C584.026 606.57 584.356 606.614 584.664 606.702C584.994 606.79 585.28 606.944 585.522 607.164C585.764 607.384 585.962 607.681 586.116 608.055C586.27 608.429 586.347 608.891 586.347 609.441V623.73C586.347 624.302 586.27 624.775 586.116 625.149C585.962 625.523 585.764 625.82 585.522 626.04C585.28 626.26 584.994 626.414 584.664 626.502C584.356 626.59 584.026 626.634 583.674 626.634C583.322 626.634 582.981 626.59 582.651 626.502C582.343 626.414 582.057 626.26 581.793 626.04C581.551 625.82 581.353 625.523 581.199 625.149C581.067 624.775 581.001 624.302 581.001 623.73V615.711ZM570.738 622.575V624.555C570.738 625.105 570.661 625.556 570.507 625.908C570.353 626.238 570.155 626.502 569.913 626.7C569.671 626.876 569.385 626.997 569.055 627.063C568.747 627.129 568.417 627.162 568.065 627.162C567.713 627.162 567.372 627.129 567.042 627.063C566.734 626.997 566.448 626.876 566.184 626.7C565.942 626.502 565.744 626.238 565.59 625.908C565.458 625.556 565.392 625.105 565.392 624.555V622.575H561.531C560.981 622.575 560.541 622.52 560.211 622.41C559.881 622.3 559.628 622.157 559.452 621.981C559.276 621.805 559.155 621.596 559.089 621.354C559.045 621.09 559.023 620.804 559.023 620.496C559.023 620.254 559.045 620.012 559.089 619.77C559.155 619.528 559.276 619.308 559.452 619.11C559.628 618.912 559.881 618.758 560.211 618.648C560.541 618.516 560.981 618.45 561.531 618.45H575.952C576.502 618.45 576.942 618.516 577.272 618.648C577.602 618.758 577.855 618.912 578.031 619.11C578.207 619.308 578.317 619.528 578.361 619.77C578.427 620.012 578.46 620.254 578.46 620.496C578.46 620.804 578.427 621.09 578.361 621.354C578.317 621.596 578.207 621.805 578.031 621.981C577.855 622.157 577.602 622.3 577.272 622.41C576.942 622.52 576.502 622.575 575.952 622.575H570.738ZM573.048 606.9C573.642 606.9 574.104 606.966 574.434 607.098C574.764 607.208 575.017 607.373 575.193 607.593C575.369 607.791 575.479 608.044 575.523 608.352C575.567 608.66 575.589 609.012 575.589 609.408V611.949C575.589 612.763 575.556 613.522 575.49 614.226C575.424 614.908 575.281 615.579 575.061 616.239C574.907 616.679 574.643 616.998 574.269 617.196C573.895 617.372 573.51 617.471 573.114 617.493C572.762 617.515 572.388 617.493 571.992 617.427C571.596 617.361 571.233 617.251 570.903 617.097C570.595 616.921 570.342 616.679 570.144 616.371C569.946 616.063 569.88 615.678 569.946 615.216C569.968 614.93 569.99 614.699 570.012 614.523C570.034 614.325 570.056 614.16 570.078 614.028C570.1 613.874 570.111 613.72 570.111 613.566C570.111 613.39 570.111 613.17 570.111 612.906V611.124H562.95C562.334 611.124 561.828 611.08 561.432 610.992C561.036 610.882 560.728 610.739 560.508 610.563C560.288 610.365 560.134 610.134 560.046 609.87C559.98 609.606 559.947 609.309 559.947 608.979C559.947 608.715 559.98 608.462 560.046 608.22C560.134 607.956 560.288 607.725 560.508 607.527C560.728 607.329 561.036 607.175 561.432 607.065C561.828 606.955 562.334 606.9 562.95 606.9H573.048Z" fill="#EB322A"/>
<path d="M599.877 635.247C599.261 635.247 598.777 635.181 598.425 635.049C598.073 634.939 597.798 634.774 597.6 634.554C597.424 634.356 597.314 634.114 597.27 633.828C597.226 633.564 597.204 633.267 597.204 632.937V626.403C597.204 625.567 597.413 624.885 597.831 624.357C598.271 623.807 599.063 623.532 600.207 623.532H619.578C620.194 623.532 620.678 623.598 621.03 623.73C621.382 623.84 621.646 624.005 621.822 624.225C622.02 624.423 622.141 624.665 622.185 624.951C622.229 625.215 622.251 625.512 622.251 625.842V632.376C622.251 633.476 621.965 634.224 621.393 634.62C620.821 635.038 620.106 635.247 619.248 635.247H599.877ZM601.23 609.606C601.23 609.056 601.307 608.594 601.461 608.22C601.615 607.846 601.813 607.549 602.055 607.329C602.319 607.109 602.616 606.955 602.946 606.867C603.276 606.779 603.617 606.735 603.969 606.735C604.321 606.735 604.662 606.779 604.992 606.867C605.322 606.955 605.608 607.109 605.85 607.329C606.114 607.549 606.323 607.846 606.477 608.22C606.631 608.594 606.708 609.056 606.708 609.606V610.398C606.73 611.234 606.807 611.938 606.939 612.51C607.093 613.06 607.335 613.566 607.665 614.028C607.995 614.468 608.435 614.908 608.985 615.348C609.535 615.788 610.228 616.305 611.064 616.899C611.768 617.405 612.23 617.955 612.45 618.549C612.692 619.121 612.593 619.759 612.153 620.463C611.911 620.837 611.614 621.123 611.262 621.321C610.932 621.497 610.569 621.596 610.173 621.618C609.931 621.618 609.678 621.596 609.414 621.552C609.15 621.486 608.897 621.365 608.655 621.189C607.885 620.617 607.115 619.979 606.345 619.275C605.575 618.571 604.871 617.812 604.233 616.998C603.639 617.834 602.968 618.615 602.22 619.341C601.494 620.067 600.713 620.672 599.877 621.156C599.591 621.332 599.272 621.475 598.92 621.585C598.59 621.695 598.249 621.761 597.897 621.783C597.523 621.805 597.138 621.739 596.742 621.585C596.346 621.431 596.016 621.134 595.752 620.694C595.312 619.99 595.202 619.352 595.422 618.78C595.664 618.186 596.137 617.636 596.841 617.13C597.655 616.536 598.337 616.019 598.887 615.579C599.437 615.117 599.877 614.655 600.207 614.193C600.537 613.709 600.779 613.192 600.933 612.642C601.087 612.07 601.186 611.377 601.23 610.563V609.606ZM616.872 609.441C616.872 608.341 617.136 607.593 617.664 607.197C618.214 606.779 618.841 606.57 619.545 606.57C619.897 606.57 620.227 606.614 620.535 606.702C620.865 606.79 621.151 606.944 621.393 607.164C621.635 607.384 621.833 607.681 621.987 608.055C622.141 608.429 622.218 608.891 622.218 609.441V619.341C622.218 619.913 622.141 620.386 621.987 620.76C621.833 621.134 621.635 621.431 621.393 621.651C621.151 621.871 620.865 622.025 620.535 622.113C620.227 622.201 619.897 622.245 619.545 622.245C619.193 622.245 618.852 622.201 618.522 622.113C618.214 622.025 617.928 621.871 617.664 621.651C617.422 621.431 617.224 621.134 617.07 620.76C616.938 620.386 616.872 619.913 616.872 619.341V609.441ZM602.55 627.987V630.792H616.905V627.987H602.55Z" fill="#EB322A"/>
<path d="M630.442 609.441C630.442 608.891 630.519 608.429 630.673 608.055C630.827 607.681 631.025 607.384 631.267 607.164C631.531 606.944 631.828 606.79 632.158 606.702C632.488 606.614 632.829 606.57 633.181 606.57C633.533 606.57 633.874 606.614 634.204 606.702C634.534 606.79 634.82 606.944 635.062 607.164C635.326 607.384 635.535 607.681 635.689 608.055C635.843 608.429 635.92 608.891 635.92 609.441V620.727C635.92 621.651 635.986 622.498 636.118 623.268C636.272 624.038 636.525 624.764 636.877 625.446C637.229 626.106 637.691 626.755 638.263 627.393C638.857 628.009 639.594 628.625 640.474 629.241C641.178 629.747 641.64 630.319 641.86 630.957C642.102 631.595 642.003 632.266 641.563 632.97C641.321 633.344 641.024 633.619 640.672 633.795C640.342 633.993 639.979 634.103 639.583 634.125C639.341 634.125 639.088 634.092 638.824 634.026C638.56 633.982 638.307 633.872 638.065 633.696C637.075 632.992 636.184 632.222 635.392 631.386C634.622 630.572 633.951 629.703 633.379 628.779C632.807 629.769 632.147 630.682 631.399 631.518C630.673 632.354 629.848 633.069 628.924 633.663C628.33 634.037 627.67 634.246 626.944 634.29C626.57 634.312 626.185 634.246 625.789 634.092C625.393 633.938 625.063 633.641 624.799 633.201C624.359 632.497 624.249 631.826 624.469 631.188C624.711 630.55 625.184 629.978 625.888 629.472C626.768 628.856 627.494 628.229 628.066 627.591C628.66 626.931 629.133 626.249 629.485 625.545C629.837 624.841 630.079 624.093 630.211 623.301C630.365 622.509 630.442 621.651 630.442 620.727V609.441ZM644.269 609.441C644.269 608.341 644.533 607.593 645.061 607.197C645.611 606.779 646.238 606.57 646.942 606.57C647.294 606.57 647.624 606.614 647.932 606.702C648.262 606.79 648.548 606.944 648.79 607.164C649.032 607.384 649.23 607.681 649.384 608.055C649.538 608.429 649.615 608.891 649.615 609.441V617.361H651.694C652.31 617.361 652.816 617.438 653.212 617.592C653.608 617.724 653.916 617.9 654.136 618.12C654.356 618.34 654.499 618.593 654.565 618.879C654.653 619.143 654.697 619.407 654.697 619.671C654.697 620.001 654.653 620.309 654.565 620.595C654.499 620.881 654.356 621.134 654.136 621.354C653.916 621.552 653.608 621.717 653.212 621.849C652.816 621.981 652.31 622.047 651.694 622.047H649.615V631.98C649.615 632.552 649.538 633.025 649.384 633.399C649.23 633.773 649.032 634.07 648.79 634.29C648.548 634.51 648.262 634.664 647.932 634.752C647.624 634.84 647.294 634.884 646.942 634.884C646.59 634.884 646.249 634.84 645.919 634.752C645.611 634.664 645.325 634.51 645.061 634.29C644.819 634.07 644.621 633.773 644.467 633.399C644.335 633.025 644.269 632.552 644.269 631.98V609.441Z" fill="#EB322A"/>
<path d="M464.961 651.969C464.961 650.935 465.225 650.198 465.753 649.758C466.281 649.318 467.018 649.098 467.964 649.098H476.742C477.358 649.098 477.842 649.164 478.194 649.296C478.546 649.406 478.81 649.571 478.986 649.791C479.184 649.989 479.305 650.231 479.349 650.517C479.393 650.781 479.415 651.078 479.415 651.408V658.602C479.415 659.152 479.338 659.614 479.184 659.988C479.052 660.34 478.854 660.626 478.59 660.846C478.326 661.066 478.018 661.231 477.666 661.341C477.314 661.429 476.929 661.473 476.511 661.473H467.634C467.018 661.473 466.534 661.418 466.182 661.308C465.83 661.176 465.555 661.011 465.357 660.813C465.181 660.593 465.071 660.351 465.027 660.087C464.983 659.801 464.961 659.493 464.961 659.163V651.969ZM486.246 651.441C486.246 650.341 486.51 649.593 487.038 649.197C487.588 648.779 488.215 648.57 488.919 648.57C489.271 648.57 489.601 648.614 489.909 648.702C490.239 648.79 490.525 648.944 490.767 649.164C491.009 649.384 491.207 649.681 491.361 650.055C491.515 650.429 491.592 650.891 491.592 651.441V659.13C491.592 659.702 491.515 660.175 491.361 660.549C491.207 660.923 491.009 661.22 490.767 661.44C490.525 661.66 490.239 661.814 489.909 661.902C489.601 661.99 489.271 662.034 488.919 662.034C488.567 662.034 488.226 661.99 487.896 661.902C487.588 661.814 487.302 661.66 487.038 661.44C486.796 661.22 486.598 660.923 486.444 660.549C486.312 660.175 486.246 659.702 486.246 659.13V651.441ZM470.307 653.322V657.249H474.069V653.322H470.307ZM483.837 671.604C484.035 671.978 484.354 672.275 484.794 672.495C485.256 672.737 485.795 672.924 486.411 673.056C487.027 673.188 487.676 673.276 488.358 673.32C489.04 673.386 489.711 673.43 490.371 673.452C490.899 673.474 491.295 673.639 491.559 673.947C491.845 674.255 492.01 674.585 492.054 674.937C492.142 675.355 492.12 675.707 491.988 675.993C491.878 676.301 491.702 676.554 491.46 676.752C491.218 676.95 490.921 677.093 490.569 677.181C490.239 677.291 489.898 677.346 489.546 677.346C488.226 677.346 487.038 677.247 485.982 677.049C484.926 676.851 483.969 676.576 483.111 676.224C482.275 675.872 481.549 675.476 480.933 675.036C480.317 674.596 479.8 674.123 479.382 673.617C478.964 674.123 478.436 674.596 477.798 675.036C477.182 675.476 476.456 675.872 475.62 676.224C474.784 676.576 473.827 676.851 472.749 677.049C471.693 677.247 470.516 677.346 469.218 677.346C468.844 677.346 468.492 677.291 468.162 677.181C467.832 677.093 467.546 676.95 467.304 676.752C467.062 676.554 466.875 676.301 466.743 675.993C466.633 675.707 466.622 675.355 466.71 674.937C466.754 674.585 466.908 674.255 467.172 673.947C467.458 673.639 467.865 673.474 468.393 673.452C469.031 673.43 469.691 673.386 470.373 673.32C471.055 673.254 471.693 673.144 472.287 672.99C472.881 672.858 473.409 672.671 473.871 672.429C474.333 672.209 474.685 671.934 474.927 671.604H469.647C469.097 671.604 468.657 671.56 468.327 671.472C467.997 671.362 467.744 671.23 467.568 671.076C467.392 670.9 467.271 670.702 467.205 670.482C467.161 670.24 467.139 669.976 467.139 669.69C467.139 669.47 467.161 669.25 467.205 669.03C467.271 668.788 467.392 668.59 467.568 668.436C467.744 668.26 467.997 668.117 468.327 668.007C468.657 667.897 469.097 667.842 469.647 667.842H488.688C489.238 667.842 489.678 667.897 490.008 668.007C490.338 668.117 490.591 668.26 490.767 668.436C490.943 668.59 491.053 668.788 491.097 669.03C491.163 669.25 491.196 669.47 491.196 669.69C491.196 669.976 491.163 670.24 491.097 670.482C491.053 670.702 490.943 670.9 490.767 671.076C490.591 671.23 490.338 671.362 490.008 671.472C489.678 671.56 489.238 671.604 488.688 671.604H483.837ZM472.089 666.588C471.539 666.588 471.099 666.544 470.769 666.456C470.439 666.368 470.186 666.247 470.01 666.093C469.834 665.917 469.713 665.719 469.647 665.499C469.603 665.279 469.581 665.037 469.581 664.773C469.581 664.553 469.603 664.344 469.647 664.146C469.713 663.926 469.834 663.739 470.01 663.585C470.186 663.409 470.439 663.266 470.769 663.156C471.099 663.046 471.539 662.991 472.089 662.991H486.279C486.829 662.991 487.269 663.046 487.599 663.156C487.929 663.266 488.182 663.409 488.358 663.585C488.534 663.739 488.644 663.926 488.688 664.146C488.754 664.344 488.787 664.553 488.787 664.773C488.787 665.037 488.754 665.279 488.688 665.499C488.644 665.719 488.534 665.917 488.358 666.093C488.182 666.247 487.929 666.368 487.599 666.456C487.269 666.544 486.829 666.588 486.279 666.588H472.089Z" fill="#EB322A"/>
<path d="M507.168 677.28C506.134 677.258 505.254 677.071 504.528 676.719C503.802 676.367 503.219 675.905 502.779 675.333C502.339 674.783 502.02 674.145 501.822 673.419C501.624 672.715 501.525 671.978 501.525 671.208C501.525 670.438 501.613 669.69 501.789 668.964C501.965 668.238 502.262 667.6 502.68 667.05C503.12 666.478 503.703 666.027 504.429 665.697C505.177 665.345 506.112 665.158 507.234 665.136H521.358C522.48 665.136 523.404 665.312 524.13 665.664C524.878 665.994 525.461 666.445 525.879 667.017C526.319 667.567 526.627 668.216 526.803 668.964C526.979 669.69 527.067 670.438 527.067 671.208C527.067 671.978 526.968 672.715 526.77 673.419C526.572 674.145 526.242 674.783 525.78 675.333C525.34 675.905 524.757 676.367 524.031 676.719C523.327 677.071 522.458 677.258 521.424 677.28H507.168ZM513.933 662.925C513.163 662.353 512.393 661.715 511.623 661.011C510.853 660.307 510.149 659.548 509.511 658.734C508.917 659.57 508.246 660.351 507.498 661.077C506.772 661.803 505.991 662.408 505.155 662.892C504.869 663.068 504.55 663.211 504.198 663.321C503.868 663.431 503.527 663.497 503.175 663.519C502.801 663.541 502.416 663.475 502.02 663.321C501.624 663.167 501.294 662.87 501.03 662.43C500.59 661.726 500.48 661.088 500.7 660.516C500.942 659.922 501.415 659.372 502.119 658.866C502.955 658.272 503.648 657.744 504.198 657.282C504.748 656.82 505.188 656.347 505.518 655.863C505.848 655.379 506.09 654.851 506.244 654.279C506.398 653.685 506.486 652.97 506.508 652.134V651.606C506.508 651.056 506.585 650.594 506.739 650.22C506.893 649.846 507.091 649.549 507.333 649.329C507.597 649.109 507.894 648.955 508.224 648.867C508.554 648.779 508.895 648.735 509.247 648.735C509.599 648.735 509.94 648.779 510.27 648.867C510.6 648.955 510.886 649.109 511.128 649.329C511.392 649.549 511.601 649.846 511.755 650.22C511.909 650.594 511.986 651.056 511.986 651.606V652.134C512.008 652.97 512.085 653.674 512.217 654.246C512.371 654.796 512.613 655.302 512.943 655.764C513.273 656.204 513.713 656.644 514.263 657.084C514.813 657.524 515.506 658.041 516.342 658.635C517.046 659.141 517.508 659.691 517.728 660.285C517.97 660.857 517.871 661.495 517.431 662.199C517.189 662.573 516.892 662.859 516.54 663.057C516.21 663.233 515.847 663.332 515.451 663.354C515.209 663.354 514.956 663.332 514.692 663.288C514.428 663.222 514.175 663.101 513.933 662.925ZM520.5 651.441C520.5 650.341 520.764 649.593 521.292 649.197C521.842 648.779 522.469 648.57 523.173 648.57C523.525 648.57 523.855 648.614 524.163 648.702C524.493 648.79 524.779 648.944 525.021 649.164C525.263 649.384 525.461 649.681 525.615 650.055C525.769 650.429 525.846 650.891 525.846 651.441V653.784H528.255C528.871 653.784 529.377 653.861 529.773 654.015C530.169 654.147 530.477 654.323 530.697 654.543C530.917 654.763 531.06 655.016 531.126 655.302C531.214 655.566 531.258 655.83 531.258 656.094C531.258 656.424 531.214 656.732 531.126 657.018C531.06 657.304 530.917 657.557 530.697 657.777C530.477 657.975 530.169 658.14 529.773 658.272C529.377 658.404 528.871 658.47 528.255 658.47H525.846V661.11C525.846 661.682 525.769 662.155 525.615 662.529C525.461 662.903 525.263 663.2 525.021 663.42C524.779 663.64 524.493 663.794 524.163 663.882C523.855 663.97 523.525 664.014 523.173 664.014C522.821 664.014 522.48 663.97 522.15 663.882C521.842 663.794 521.556 663.64 521.292 663.42C521.05 663.2 520.852 662.903 520.698 662.529C520.566 662.155 520.5 661.682 520.5 661.11V651.441ZM519.939 672.792C520.577 672.748 521.039 672.616 521.325 672.396C521.611 672.198 521.754 671.802 521.754 671.208C521.754 670.592 521.611 670.185 521.325 669.987C521.039 669.767 520.577 669.635 519.939 669.591H508.653C508.015 669.635 507.553 669.767 507.267 669.987C506.981 670.185 506.838 670.592 506.838 671.208C506.838 671.802 506.981 672.198 507.267 672.396C507.553 672.616 508.015 672.748 508.653 672.792H519.939Z" fill="#EB322A"/>
<path d="M537.567 672.693H554.826C555.442 672.693 555.948 672.759 556.344 672.891C556.74 673.023 557.048 673.188 557.268 673.386C557.488 673.606 557.631 673.848 557.697 674.112C557.785 674.398 557.829 674.673 557.829 674.937C557.829 675.267 557.785 675.564 557.697 675.828C557.631 676.114 557.488 676.356 557.268 676.554C557.048 676.774 556.74 676.939 556.344 677.049C555.948 677.181 555.442 677.247 554.826 677.247H534.894C534.278 677.247 533.794 677.181 533.442 677.049C533.09 676.917 532.815 676.741 532.617 676.521C532.441 676.323 532.331 676.081 532.287 675.795C532.243 675.509 532.221 675.201 532.221 674.871V670.845C532.221 670.295 532.287 669.855 532.419 669.525C532.573 669.173 532.771 668.898 533.013 668.7C533.277 668.502 533.563 668.37 533.871 668.304C534.201 668.238 534.542 668.205 534.894 668.205C535.246 668.205 535.576 668.238 535.884 668.304C536.214 668.37 536.5 668.502 536.742 668.7C536.984 668.898 537.182 669.173 537.336 669.525C537.49 669.855 537.567 670.295 537.567 670.845V672.693ZM551.955 657.711H550.173C549.557 657.711 549.062 657.656 548.688 657.546C548.314 657.414 548.017 657.249 547.797 657.051C547.599 656.831 547.467 656.589 547.401 656.325C547.335 656.039 547.302 655.731 547.302 655.401C547.302 655.137 547.335 654.873 547.401 654.609C547.467 654.323 547.599 654.081 547.797 653.883C548.017 653.663 548.314 653.487 548.688 653.355C549.062 653.223 549.557 653.157 550.173 653.157H551.955V651.441C551.955 650.341 552.219 649.593 552.747 649.197C553.297 648.779 553.924 648.57 554.628 648.57C554.98 648.57 555.31 648.614 555.618 648.702C555.948 648.79 556.234 648.944 556.476 649.164C556.718 649.384 556.916 649.681 557.07 650.055C557.224 650.429 557.301 650.891 557.301 651.441V665.73C557.301 666.302 557.224 666.775 557.07 667.149C556.916 667.523 556.718 667.82 556.476 668.04C556.234 668.26 555.948 668.414 555.618 668.502C555.31 668.59 554.98 668.634 554.628 668.634C554.276 668.634 553.935 668.59 553.605 668.502C553.297 668.414 553.011 668.26 552.747 668.04C552.505 667.82 552.307 667.523 552.153 667.149C552.021 666.775 551.955 666.302 551.955 665.73V657.711ZM541.692 664.575V666.555C541.692 667.105 541.615 667.556 541.461 667.908C541.307 668.238 541.109 668.502 540.867 668.7C540.625 668.876 540.339 668.997 540.009 669.063C539.701 669.129 539.371 669.162 539.019 669.162C538.667 669.162 538.326 669.129 537.996 669.063C537.688 668.997 537.402 668.876 537.138 668.7C536.896 668.502 536.698 668.238 536.544 667.908C536.412 667.556 536.346 667.105 536.346 666.555V664.575H532.485C531.935 664.575 531.495 664.52 531.165 664.41C530.835 664.3 530.582 664.157 530.406 663.981C530.23 663.805 530.109 663.596 530.043 663.354C529.999 663.09 529.977 662.804 529.977 662.496C529.977 662.254 529.999 662.012 530.043 661.77C530.109 661.528 530.23 661.308 530.406 661.11C530.582 660.912 530.835 660.758 531.165 660.648C531.495 660.516 531.935 660.45 532.485 660.45H546.906C547.456 660.45 547.896 660.516 548.226 660.648C548.556 660.758 548.809 660.912 548.985 661.11C549.161 661.308 549.271 661.528 549.315 661.77C549.381 662.012 549.414 662.254 549.414 662.496C549.414 662.804 549.381 663.09 549.315 663.354C549.271 663.596 549.161 663.805 548.985 663.981C548.809 664.157 548.556 664.3 548.226 664.41C547.896 664.52 547.456 664.575 546.906 664.575H541.692ZM544.002 648.9C544.596 648.9 545.058 648.966 545.388 649.098C545.718 649.208 545.971 649.373 546.147 649.593C546.323 649.791 546.433 650.044 546.477 650.352C546.521 650.66 546.543 651.012 546.543 651.408V653.949C546.543 654.763 546.51 655.522 546.444 656.226C546.378 656.908 546.235 657.579 546.015 658.239C545.861 658.679 545.597 658.998 545.223 659.196C544.849 659.372 544.464 659.471 544.068 659.493C543.716 659.515 543.342 659.493 542.946 659.427C542.55 659.361 542.187 659.251 541.857 659.097C541.549 658.921 541.296 658.679 541.098 658.371C540.9 658.063 540.834 657.678 540.9 657.216C540.922 656.93 540.944 656.699 540.966 656.523C540.988 656.325 541.01 656.16 541.032 656.028C541.054 655.874 541.065 655.72 541.065 655.566C541.065 655.39 541.065 655.17 541.065 654.906V653.124H533.904C533.288 653.124 532.782 653.08 532.386 652.992C531.99 652.882 531.682 652.739 531.462 652.563C531.242 652.365 531.088 652.134 531 651.87C530.934 651.606 530.901 651.309 530.901 650.979C530.901 650.715 530.934 650.462 531 650.22C531.088 649.956 531.242 649.725 531.462 649.527C531.682 649.329 531.99 649.175 532.386 649.065C532.782 648.955 533.288 648.9 533.904 648.9H544.002Z" fill="#EB322A"/>
<path d="M566.64 674.244C566.64 673.914 566.673 673.606 566.739 673.32C566.827 673.056 566.981 672.814 567.201 672.594C567.421 672.396 567.729 672.231 568.125 672.099C568.521 671.989 569.027 671.934 569.643 671.934H578.454V665.796H571.59C570.974 665.796 570.49 665.741 570.138 665.631C569.786 665.499 569.511 665.334 569.313 665.136C569.137 664.916 569.027 664.674 568.983 664.41C568.939 664.124 568.917 663.816 568.917 663.486V651.771C568.917 650.671 569.17 649.923 569.676 649.527C570.204 649.109 570.82 648.9 571.524 648.9C571.876 648.9 572.217 648.944 572.547 649.032C572.877 649.12 573.174 649.274 573.438 649.494C573.702 649.714 573.911 650.011 574.065 650.385C574.219 650.759 574.296 651.221 574.296 651.771V653.784H587.892V651.771C587.892 651.221 587.969 650.759 588.123 650.385C588.277 650.011 588.486 649.714 588.75 649.494C589.014 649.274 589.311 649.12 589.641 649.032C589.971 648.944 590.312 648.9 590.664 648.9C591.016 648.9 591.346 648.944 591.654 649.032C591.962 649.12 592.237 649.274 592.479 649.494C592.721 649.714 592.908 650.011 593.04 650.385C593.194 650.759 593.271 651.221 593.271 651.771V663.486C593.271 663.816 593.249 664.124 593.205 664.41C593.161 664.674 593.04 664.916 592.842 665.136C592.666 665.334 592.402 665.499 592.05 665.631C591.698 665.741 591.214 665.796 590.598 665.796H583.8V671.934H592.578C593.194 671.934 593.7 671.989 594.096 672.099C594.492 672.231 594.8 672.396 595.02 672.594C595.24 672.814 595.383 673.056 595.449 673.32C595.537 673.606 595.581 673.914 595.581 674.244C595.581 674.508 595.537 674.772 595.449 675.036C595.383 675.322 595.24 675.564 595.02 675.762C594.8 675.982 594.492 676.158 594.096 676.29C593.7 676.422 593.194 676.488 592.578 676.488H569.643C569.027 676.488 568.521 676.422 568.125 676.29C567.729 676.158 567.421 675.982 567.201 675.762C566.981 675.564 566.827 675.322 566.739 675.036C566.673 674.772 566.64 674.508 566.64 674.244ZM587.892 658.14H574.296V661.44H587.892V658.14Z" fill="#EB322A"/>
<path d="M598.623 664.113C598.623 663.233 598.788 662.485 599.118 661.869C599.448 661.253 599.921 660.758 600.537 660.384C601.175 659.988 601.923 659.702 602.781 659.526C603.661 659.35 604.651 659.262 605.751 659.262H614.529C615.607 659.262 616.586 659.35 617.466 659.526C618.346 659.702 619.094 659.988 619.71 660.384C620.348 660.758 620.832 661.253 621.162 661.869C621.492 662.485 621.657 663.233 621.657 664.113V665.103C621.657 666.489 621.074 667.6 619.908 668.436C618.764 669.25 617.026 669.668 614.694 669.69H612.846V671.934H621.624C622.24 671.934 622.746 671.989 623.142 672.099C623.538 672.231 623.846 672.396 624.066 672.594C624.286 672.814 624.429 673.056 624.495 673.32C624.583 673.606 624.627 673.914 624.627 674.244C624.627 674.508 624.583 674.772 624.495 675.036C624.429 675.322 624.286 675.564 624.066 675.762C623.846 675.982 623.538 676.158 623.142 676.29C622.746 676.422 622.24 676.488 621.624 676.488H598.689C598.073 676.488 597.567 676.422 597.171 676.29C596.775 676.158 596.467 675.982 596.247 675.762C596.027 675.564 595.873 675.322 595.785 675.036C595.719 674.772 595.686 674.508 595.686 674.244C595.686 673.914 595.719 673.606 595.785 673.32C595.873 673.056 596.027 672.814 596.247 672.594C596.467 672.396 596.775 672.231 597.171 672.099C597.567 671.989 598.073 671.934 598.689 671.934H607.5V669.69H605.619C603.287 669.668 601.538 669.261 600.372 668.469C599.206 667.677 598.623 666.555 598.623 665.103V664.113ZM597.27 655.764C597.27 655.434 597.303 655.137 597.369 654.873C597.457 654.609 597.611 654.389 597.831 654.213C598.051 654.015 598.359 653.872 598.755 653.784C599.151 653.674 599.657 653.619 600.273 653.619H619.941C620.557 653.619 621.063 653.674 621.459 653.784C621.855 653.872 622.163 654.015 622.383 654.213C622.603 654.389 622.746 654.609 622.812 654.873C622.9 655.137 622.944 655.434 622.944 655.764C622.944 656.028 622.9 656.292 622.812 656.556C622.746 656.798 622.603 657.018 622.383 657.216C622.163 657.414 621.855 657.568 621.459 657.678C621.063 657.788 620.557 657.843 619.941 657.843H600.273C599.657 657.843 599.151 657.788 598.755 657.678C598.359 657.568 598.051 657.414 597.831 657.216C597.611 657.018 597.457 656.798 597.369 656.556C597.303 656.292 597.27 656.028 597.27 655.764ZM601.494 650.385C601.494 649.857 601.604 649.406 601.824 649.032C602.066 648.658 602.572 648.471 603.342 648.471H616.212C616.982 648.471 617.477 648.658 617.697 649.032C617.939 649.406 618.06 649.857 618.06 650.385C618.06 650.605 618.027 650.825 617.961 651.045C617.917 651.265 617.829 651.463 617.697 651.639C617.565 651.815 617.378 651.958 617.136 652.068C616.894 652.178 616.586 652.233 616.212 652.233H603.342C602.968 652.233 602.66 652.178 602.418 652.068C602.176 651.958 601.989 651.815 601.857 651.639C601.725 651.463 601.626 651.265 601.56 651.045C601.516 650.825 601.494 650.605 601.494 650.385ZM603.969 664.608C603.969 665.114 604.189 665.455 604.629 665.631C605.091 665.785 605.795 665.873 606.741 665.895H613.539C614.485 665.873 615.178 665.785 615.618 665.631C616.08 665.455 616.311 665.114 616.311 664.608V664.443C616.311 663.915 616.08 663.574 615.618 663.42C615.178 663.244 614.452 663.156 613.44 663.156H606.84C605.828 663.156 605.091 663.244 604.629 663.42C604.189 663.574 603.969 663.915 603.969 664.443V664.608Z" fill="#EB322A"/>
</g>
<defs>
<clipPath id="clip0_301_3007">
<rect width="714" height="759" fill="white"/>
</clipPath>
</defs>
</svg>
