<svg width="174" height="174" viewBox="0 0 174 174" fill="none" xmlns="http://www.w3.org/2000/svg">
<path d="M86.7954 173.425C134.731 173.425 173.591 134.602 173.591 86.7123C173.591 38.8224 134.731 0 86.7954 0C38.8596 0 0 38.8224 0 86.7123C0 134.602 38.8596 173.425 86.7954 173.425Z" fill="white"/>
<path d="M89.9686 70.2088L86.1888 66.4326L78.6759 74.1248L74.2895 70.2243L70.634 74.3113L78.7848 80.5117L89.9686 70.2088Z" fill="#EB322A"/>
<path d="M78.7848 98.8021L89.9686 88.4992L86.1888 84.723L78.6759 92.4308L74.2895 88.5147L70.634 92.6017L78.7848 98.8021Z" fill="#EB322A"/>
<path d="M111.387 72.8351H93.7173V78.0565H111.387V72.8351Z" fill="#EB322A"/>
<path d="M111.387 90.6282H93.7173V95.8496H111.387V90.6282Z" fill="#EB322A"/>
<path d="M118.683 47.2876H63.8367C60.3525 47.2876 57.5215 50.1314 57.5215 53.5968V103.029H64.8634V59.7816C64.8634 57.0311 67.181 54.7933 69.9964 54.7933H112.523C115.354 54.7933 117.656 57.0311 117.656 59.7816V110.519C117.656 116.735 114.607 118.988 110.408 118.988C103.19 118.988 102.132 107.924 102.132 107.924H48.562C48.562 124.458 60.6169 125.764 60.6169 125.764H111.621C119.18 125.764 125.013 123.091 125.013 109.649V53.6123C125.013 50.1314 122.167 47.3031 118.698 47.3031L118.683 47.2876Z" fill="#EB322A"/>
</svg>
