<svg width="531" height="89" viewBox="0 0 531 89" fill="none" xmlns="http://www.w3.org/2000/svg">
<path d="M489.68 23.04C491.16 21.04 492.9 19.3 494.9 17.82C496.9 16.34 499.01 15.08 501.23 14.05C503.46 13.02 505.69 12.21 507.95 11.61C510.2 11.01 512.33 10.6 514.33 10.37C517.24 10.08 519.42 10.27 520.88 10.93C522.34 11.59 523.19 12.57 523.45 13.88C523.71 15.19 523.39 16.73 522.51 18.5C521.62 20.27 520.3 22.12 518.53 24.06C516.82 25.94 514.92 27.83 512.84 29.71C510.76 31.59 508.73 33.49 506.76 35.4C504.79 37.31 503.01 39.29 501.41 41.35C499.81 43.4 498.64 45.57 497.9 47.85C497.22 49.9 497.19 51.19 497.82 51.7V51.87C497.53 52.21 497.18 52.31 496.75 52.17C496.32 52.03 495.89 51.78 495.47 51.44C495.04 51.1 494.66 50.73 494.31 50.33C493.97 49.93 493.74 49.59 493.63 49.3C493 48.1 493.06 46.69 493.8 45.06C494.54 43.43 495.71 41.69 497.31 39.84C498.91 37.99 500.79 36.09 502.96 34.15C505.13 32.21 507.3 30.28 509.46 28.37C511.63 26.46 513.65 24.65 515.54 22.93C517.43 21.21 518.91 19.66 519.99 18.27C521.07 16.87 521.59 15.7 521.53 14.76C521.47 13.82 520.59 13.21 518.88 12.92C517.85 12.75 516.44 12.83 514.64 13.18C512.84 13.52 510.89 14.06 508.78 14.81C506.67 15.55 504.54 16.45 502.4 17.51C500.26 18.57 498.35 19.71 496.66 20.93C494.98 22.16 493.65 23.41 492.68 24.7C491.71 25.98 491.37 27.23 491.65 28.42C489.71 27.68 488.65 26.95 488.48 26.24C488.31 25.53 488.71 24.46 489.68 23.03V23.04ZM492.33 56.76C492.39 56.65 492.59 56.63 492.93 56.72C493.27 56.81 493.66 56.93 494.09 57.1C494.52 57.27 494.9 57.46 495.25 57.66C495.59 57.86 495.82 57.99 495.93 58.04C495.47 58.95 495.07 59.78 494.73 60.52C494.44 61.15 494.19 61.78 493.96 62.4C493.73 63.03 493.67 63.48 493.79 63.77C492.65 63.71 491.85 63.43 491.39 62.91C490.93 62.4 490.71 61.8 490.71 61.11C490.71 60.42 490.87 59.7 491.18 58.93C491.49 58.16 491.88 57.43 492.34 56.75L492.33 56.76Z" fill="#5CB531"/>
<path d="M492 30.4999C492 30.4999 490.09 28.2452 489.5 26.4999C490.5 20.4997 504.5 14.4999 504.5 14.4999C504.5 14.4999 511.5 12 516.5 11.4999C518.5 11 520.838 11.101 522 12.9999C523.024 14.6737 522.156 16.1506 521.5 17.9999C520.572 20.6154 517 23.4999 517 23.4999C517 23.4999 505.173 32.8448 499.5 40.4999C497.09 43.7519 495.5 45.5 495.5 48.5C495.5 50 497.202 51.5012 498.5 53.4999C493 56 493.624 61.1184 490.5 65.9999" stroke="white" stroke-width="5"/>
</svg>
