<svg width="93" height="93" viewBox="0 0 93 93" fill="none" xmlns="http://www.w3.org/2000/svg">
<g clip-path="url(#clip0_181_9314)">
<path d="M38.8201 63.3799H54.5301" stroke="#888888" stroke-width="2" stroke-linecap="round" stroke-linejoin="round"/>
<path d="M46.6699 55.5298V63.3798" stroke="#888888" stroke-width="2" stroke-linecap="round" stroke-linejoin="round"/>
<path d="M36.8501 30H56.4901" stroke="#888888" stroke-width="2" stroke-linecap="round" stroke-linejoin="round"/>
<path d="M56.4901 30V45.71C56.4901 51.13 52.0901 55.53 46.6701 55.53C41.2501 55.53 36.8501 51.13 36.8501 45.71V30" stroke="#888888" stroke-width="2" stroke-linecap="round" stroke-linejoin="round"/>
<path d="M32.93 43.7501C35.1005 43.7501 36.86 41.9906 36.86 39.8201C36.86 37.6497 35.1005 35.8901 32.93 35.8901C30.7595 35.8901 29 37.6497 29 39.8201C29 41.9906 30.7595 43.7501 32.93 43.7501Z" stroke="#888888" stroke-width="2" stroke-linecap="round" stroke-linejoin="round"/>
<path d="M60.42 43.7501C62.5905 43.7501 64.35 41.9906 64.35 39.8201C64.35 37.6497 62.5905 35.8901 60.42 35.8901C58.2495 35.8901 56.49 37.6497 56.49 39.8201C56.49 41.9906 58.2495 43.7501 60.42 43.7501Z" stroke="#888888" stroke-width="2" stroke-linecap="round" stroke-linejoin="round"/>
</g>
<defs>
<clipPath id="clip0_181_9314">
<rect width="37.35" height="35.38" fill="white" transform="translate(28 29)"/>
</clipPath>
</defs>
</svg>
