<svg width="18" height="18" viewBox="0 0 18 18" fill="none" xmlns="http://www.w3.org/2000/svg">
<g clip-path="url(#clip0_61_2423)">
<path d="M10.5 7.5H7.5V10.5H10.5V7.5ZM12 7.5V10.5H14.25V7.5H12ZM10.5 14.25V12H7.5V14.25H10.5ZM12 14.25H14.25V12H12V14.25ZM10.5 3.75H7.5V6H10.5V3.75ZM12 3.75V6H14.25V3.75H12ZM6 7.5H3.75V10.5H6V7.5ZM6 14.25V12H3.75V14.25H6ZM6 3.75H3.75V6H6V3.75ZM3 2.25H15C15.1989 2.25 15.3897 2.32902 15.5303 2.46967C15.671 2.61032 15.75 2.80109 15.75 3V15C15.75 15.1989 15.671 15.3897 15.5303 15.5303C15.3897 15.671 15.1989 15.75 15 15.75H3C2.80109 15.75 2.61032 15.671 2.46967 15.5303C2.32902 15.3897 2.25 15.1989 2.25 15V3C2.25 2.80109 2.32902 2.61032 2.46967 2.46967C2.61032 2.32902 2.80109 2.25 3 2.25V2.25Z" fill="#222222"/>
</g>
<defs>
<clipPath id="clip0_61_2423">
<rect width="18" height="18" fill="white"/>
</clipPath>
</defs>
</svg>
