<svg width="73" height="28" viewBox="0 0 73 28" fill="none" xmlns="http://www.w3.org/2000/svg">
<g clip-path="url(#clip0_14_102)">
<path fill-rule="evenodd" clip-rule="evenodd" d="M0.529601 13.419L4.5137 9.44255C4.80162 9.15538 5.26905 9.15538 5.55696 9.44255C5.84538 9.73021 5.84538 10.1967 5.55696 10.4839L2.83244 13.2033H11.6937C12.1015 13.2033 12.4317 13.5331 12.4317 13.9401C12.4317 14.3462 12.1015 14.6759 11.6937 14.6759H2.83244L5.55696 17.3954C5.84538 17.683 5.84538 18.1491 5.55696 18.4367C5.41276 18.5803 5.22429 18.6523 5.03533 18.6523C4.84637 18.6523 4.65791 18.5803 4.5137 18.4367L0.529601 14.4608C0.241186 14.1731 0.241186 13.7066 0.529601 13.419Z" fill="white"/>
</g>
<g clip-path="url(#clip1_14_102)">
<path d="M32.9576 18.3682C32.3964 18.4715 32.093 18.7105 31.8308 19.0427C31.6667 19.2512 31.3131 19.8746 31.5823 21.1589C31.8266 22.3279 32.6489 23.8381 33.7813 25.1992C34.9376 26.5892 36.5373 26.5827 37.5944 26.5785L37.7574 26.5778H40.7234C43.6791 26.5778 45.0084 24.0711 45.0084 22.2919V16.7835C45.0084 16.3462 44.652 15.9899 44.2134 15.9899C43.7747 15.9899 43.4185 16.3462 43.4185 16.7835V17.5583C43.4185 17.9506 43.1 18.269 42.7071 18.269C42.3142 18.269 41.9957 17.9506 41.9957 17.5583V15.2889C41.9957 14.8515 41.6389 14.4959 41.2007 14.4959C40.7624 14.4959 40.4058 14.8515 40.4058 15.2889V16.9576C40.4058 17.3499 40.0873 17.6681 39.6944 17.6681C39.3015 17.6681 38.9826 17.3499 38.9826 16.9576V14.5769C38.9826 14.1396 38.6262 13.7833 38.1877 13.7833C37.7493 13.7833 37.3929 14.1396 37.3929 14.5769V16.3573C37.3929 16.7496 37.0739 17.0674 36.681 17.0674C36.2881 17.0674 35.9696 16.7496 35.9696 16.3573V8.73075C35.9696 8.29274 35.6132 7.93713 35.175 7.93713C34.7368 7.93713 34.3799 8.29274 34.3799 8.73075V19.6822C34.3799 20.0745 34.0614 20.393 33.6685 20.393C33.2757 20.393 32.9572 20.0745 32.9572 19.6822V18.3684L32.9576 18.3682Z" fill="black"/>
<path d="M37.4115 28C36.2142 28 34.1898 27.9148 32.6868 26.1078C31.4125 24.5765 30.4787 22.8358 30.1888 21.4498C29.8115 19.6464 30.3552 18.6168 30.7128 18.1634C31.2777 17.448 31.9858 17.0551 32.9576 16.9332V8.73075C32.9576 7.50956 33.9524 6.51585 35.1755 6.51585C36.3985 6.51585 37.3933 7.50933 37.3933 8.73075V12.5104C37.64 12.4154 37.9083 12.3632 38.1882 12.3632C38.9742 12.3632 39.666 12.7736 40.0601 13.391C40.3937 13.1905 40.7843 13.0751 41.2009 13.0751C42.2354 13.0751 43.1065 13.7856 43.3509 14.7438C43.6161 14.6315 43.9079 14.5697 44.2136 14.5697C45.4367 14.5697 46.4319 15.5628 46.4319 16.7839V22.2924C46.4319 25.0976 44.2968 27.9991 40.7236 27.9991L37.6002 27.9998C37.54 28.0002 37.477 28.0002 37.4117 28.0002L37.4115 28ZM32.9576 18.3684C32.3964 18.4717 32.093 18.7108 31.8308 19.0429C31.6667 19.2514 31.313 19.8749 31.5823 21.1592C31.8266 22.3281 32.6489 23.8383 33.7813 25.1995C34.9376 26.5894 36.5373 26.5829 37.5944 26.5787L37.7574 26.578H40.7234C43.6791 26.578 45.0084 24.0714 45.0084 22.2922V16.7837C45.0084 16.3464 44.652 15.9901 44.2134 15.9901C43.7747 15.9901 43.4185 16.3464 43.4185 16.7837V17.5585C43.4185 17.9508 43.1 18.2693 42.7071 18.2693C42.3142 18.2693 41.9957 17.9508 41.9957 17.5585V15.2891C41.9957 14.8518 41.6389 14.4962 41.2006 14.4962C40.7624 14.4962 40.4058 14.8518 40.4058 15.2891V16.9578C40.4058 17.3501 40.0873 17.6683 39.6944 17.6683C39.3015 17.6683 38.9826 17.3501 38.9826 16.9578V14.5772C38.9826 14.1399 38.6262 13.7835 38.1877 13.7835C37.7493 13.7835 37.3929 14.1399 37.3929 14.5772V16.3575C37.3929 16.7498 37.0739 17.0676 36.681 17.0676C36.2881 17.0676 35.9696 16.7498 35.9696 16.3575V8.73075C35.9696 8.29274 35.6132 7.93713 35.175 7.93713C34.7368 7.93713 34.3799 8.29274 34.3799 8.73075V19.6822C34.3799 20.0745 34.0614 20.3929 33.6685 20.3929C33.2756 20.3929 32.9571 20.0745 32.9571 19.6822V18.3684H32.9576ZM35.8869 4.22042V0.710753C35.8869 0.318469 35.5684 0 35.1755 0C34.7826 0 34.4636 0.318469 34.4636 0.710753V4.22042C34.4636 4.6134 34.7821 4.93117 35.1755 4.93117C35.5688 4.93117 35.8869 4.6134 35.8869 4.22042ZM38.8721 6.04419L41.3578 3.56212C41.6356 3.28474 41.6356 2.83466 41.3578 2.55704C41.0798 2.27966 40.6294 2.28012 40.3516 2.55704L37.8662 5.0391C37.5881 5.31672 37.5881 5.76657 37.8662 6.04419C38.0052 6.1823 38.1868 6.25193 38.369 6.25193C38.5513 6.25193 38.7333 6.1823 38.8721 6.04419ZM43.9188 8.73052C43.9188 8.33754 43.6003 8.01976 43.2069 8.01976H39.6916C39.2987 8.01976 38.9802 8.33754 38.9802 8.73052C38.9802 9.1235 39.2987 9.44057 39.6916 9.44057H43.2069C43.6001 9.44057 43.9188 9.1228 43.9188 8.73052ZM32.4847 6.04419C32.7623 5.76657 32.7623 5.31672 32.4847 5.0391L29.9988 2.55704C29.7208 2.27966 29.2705 2.28012 28.9927 2.55704C28.7146 2.83466 28.7146 3.28451 28.9927 3.56212L31.4786 6.04419C31.6176 6.1823 31.7992 6.25193 31.9814 6.25193C32.1637 6.25193 32.3457 6.1823 32.4847 6.04419ZM31.3702 8.73052C31.3702 8.33754 31.0517 8.01976 30.6586 8.01976H27.1435C26.7506 8.01976 26.4317 8.33754 26.4317 8.73052C26.4317 9.1235 26.7506 9.44057 27.1435 9.44057H30.6589C31.052 9.44057 31.3705 9.1228 31.3705 8.73052H31.3702Z" fill="white"/>
</g>
<g clip-path="url(#clip2_14_102)">
<path fill-rule="evenodd" clip-rule="evenodd" d="M72.3337 13.419L68.3496 9.44255C68.0617 9.15538 67.5943 9.15538 67.3064 9.44255C67.018 9.73021 67.018 10.1967 67.3064 10.4839L70.0309 13.2033H61.1696C60.7619 13.2033 60.4317 13.5331 60.4317 13.9401C60.4317 14.3462 60.7619 14.6759 61.1696 14.6759H70.0309L67.3064 17.3954C67.018 17.683 67.018 18.1491 67.3064 18.4367C67.4506 18.5803 67.639 18.6523 67.828 18.6523C68.017 18.6523 68.2054 18.5803 68.3496 18.4367L72.3337 14.4608C72.6222 14.1731 72.6222 13.7066 72.3337 13.419Z" fill="white"/>
</g>
<defs>
<clipPath id="clip0_14_102">
<rect width="12.4317" height="9.66907" fill="white" transform="matrix(-1 0 0 1 12.4317 9.16553)"/>
</clipPath>
<clipPath id="clip1_14_102">
<rect width="20" height="28" fill="white" transform="translate(26.4317)"/>
</clipPath>
<clipPath id="clip2_14_102">
<rect width="12.4317" height="9.66907" fill="white" transform="translate(60.4317 9.16553)"/>
</clipPath>
</defs>
</svg>
