<svg width="13" height="13" viewBox="0 0 13 13" fill="none" xmlns="http://www.w3.org/2000/svg">
<path fill-rule="evenodd" clip-rule="evenodd" d="M0.335966 0.335966C0.551081 0.120851 0.84284 0 1.14706 0H8.79412C9.09834 0 9.3901 0.120851 9.60521 0.335966C9.82033 0.551081 9.94118 0.84284 9.94118 1.14706V1.52941H11.8529C12.1572 1.52941 12.4489 1.65026 12.664 1.86538C12.8792 2.08049 13 2.37225 13 2.67647V11.0882C13 11.5953 12.7986 12.0815 12.4401 12.4401C12.0815 12.7986 11.5953 13 11.0882 13H2.67647C1.96663 13 1.28586 12.718 0.78392 12.2161C0.281985 11.7141 0 11.0334 0 10.3235V1.14706C0 0.84284 0.120851 0.551081 0.335966 0.335966ZM9.55882 12.2353H2.67647C2.16944 12.2353 1.68317 12.0339 1.32465 11.6754C0.966124 11.3168 0.764706 10.8306 0.764706 10.3235V1.14706C0.764706 1.04565 0.804989 0.9484 0.876695 0.876695C0.9484 0.804989 1.04565 0.764706 1.14706 0.764706H8.79412C8.89552 0.764706 8.99278 0.804989 9.06448 0.876695C9.13619 0.9484 9.17647 1.04565 9.17647 1.14706V11.0882C9.17647 11.5043 9.31208 11.9063 9.55882 12.2353ZM9.94118 2.29412V11.0882C9.94118 11.3925 10.062 11.6842 10.2771 11.8993C10.4923 12.1144 10.784 12.2353 11.0882 12.2353C11.3925 12.2353 11.6842 12.1144 11.8993 11.8993C12.1144 11.6842 12.2353 11.3925 12.2353 11.0882V2.67647C12.2353 2.57506 12.195 2.47781 12.1233 2.40611C12.0516 2.3344 11.9543 2.29412 11.8529 2.29412H9.94118Z" fill="#888888"/>
<path fill-rule="evenodd" clip-rule="evenodd" d="M3.05859 3.44095C3.05859 3.22978 3.22978 3.05859 3.44095 3.05859H6.49977C6.71094 3.05859 6.88212 3.22978 6.88212 3.44095C6.88212 3.65211 6.71094 3.8233 6.49977 3.8233H3.44095C3.22978 3.8233 3.05859 3.65211 3.05859 3.44095Z" fill="#888888"/>
<path fill-rule="evenodd" clip-rule="evenodd" d="M3.05859 6.49856C3.05859 6.2874 3.22978 6.11621 3.44095 6.11621H6.49977C6.71094 6.11621 6.88212 6.2874 6.88212 6.49856C6.88212 6.70973 6.71094 6.88092 6.49977 6.88092H3.44095C3.22978 6.88092 3.05859 6.70973 3.05859 6.49856Z" fill="#888888"/>
<path fill-rule="evenodd" clip-rule="evenodd" d="M3.05859 9.55911C3.05859 9.34794 3.22978 9.17676 3.44095 9.17676H6.49977C6.71094 9.17676 6.88212 9.34794 6.88212 9.55911C6.88212 9.77028 6.71094 9.94146 6.49977 9.94146H3.44095C3.22978 9.94146 3.05859 9.77028 3.05859 9.55911Z" fill="#888888"/>
</svg>
