<svg width="15" height="15" viewBox="0 0 15 15" fill="none" xmlns="http://www.w3.org/2000/svg">
<path d="M7.5 15C5.42188 15 3.65234 14.2695 2.19141 12.8086C0.730469 11.3477 0 9.57812 0 7.5C0 5.42188 0.730469 3.65234 2.19141 2.19141C3.65234 0.730469 5.42188 0 7.5 0C8.82812 0 9.99219 0.269531 10.9922 0.808594C11.9922 1.34766 12.8594 2.08594 13.5938 3.02344V0H15V5.95313H9.04688V4.54688H12.9844C12.3906 3.60938 11.6328 2.85156 10.7109 2.27344C9.78906 1.69531 8.71875 1.40625 7.5 1.40625C5.79688 1.40625 4.35547 1.99609 3.17578 3.17578C1.99609 4.35547 1.40625 5.79688 1.40625 7.5C1.40625 9.20312 1.99609 10.6445 3.17578 11.8242C4.35547 13.0039 5.79688 13.5938 7.5 13.5938C8.79688 13.5938 9.98438 13.2227 11.0625 12.4805C12.1406 11.7383 12.8906 10.7578 13.3125 9.53906H14.7656C14.3125 11.1797 13.4141 12.5 12.0703 13.5C10.7266 14.5 9.20312 15 7.5 15Z" fill="#4A55AC"/>
</svg>
