<svg width="12" height="15" viewBox="0 0 12 15" fill="none" xmlns="http://www.w3.org/2000/svg">
<path d="M11.3333 14.6667H0.666656V13.3333C0.666656 12.4493 1.01785 11.6014 1.64297 10.9763C2.26809 10.3512 3.11593 9.99999 3.99999 9.99999H7.99999C8.88404 9.99999 9.73189 10.3512 10.357 10.9763C10.9821 11.6014 11.3333 12.4493 11.3333 13.3333V14.6667ZM5.99999 8.66666C5.4747 8.66666 4.95456 8.56319 4.46926 8.36217C3.98395 8.16116 3.543 7.86652 3.17156 7.49508C2.80013 7.12365 2.50549 6.68269 2.30447 6.19739C2.10345 5.71209 1.99999 5.19194 1.99999 4.66666C1.99999 4.14137 2.10345 3.62123 2.30447 3.13592C2.50549 2.65062 2.80013 2.20966 3.17156 1.83823C3.543 1.4668 3.98395 1.17216 4.46926 0.971138C4.95456 0.77012 5.4747 0.666656 5.99999 0.666656C7.06086 0.666657 8.07827 1.08808 8.82842 1.83823C9.57856 2.58837 9.99999 3.60579 9.99999 4.66666C9.99999 5.72752 9.57856 6.74494 8.82842 7.49508C8.07827 8.24523 7.06086 8.66666 5.99999 8.66666Z" fill="#888888"/>
</svg>
