<svg width="90" height="100" viewBox="0 0 90 100" fill="none" xmlns="http://www.w3.org/2000/svg">
<path d="M65.7388 83.4086C65.1869 83.4086 64.6657 83.0829 64.474 82.5619L58.1194 65.411L51.757 82.5619C51.5117 83.2204 50.7529 83.575 50.0476 83.3362C49.3501 83.1046 48.9821 82.381 49.2274 81.7224L56.8546 61.1558C57.0462 60.6492 57.5521 60.3091 58.1194 60.3091C58.6866 60.3091 59.2002 60.6492 59.3842 61.1558L67.0113 81.7224C67.2566 82.381 66.8886 83.1046 66.1911 83.3362C66.0301 83.3869 65.8845 83.4086 65.7388 83.4086Z" fill="#666666"/>
<path d="M62.2972 76.6277H53.9342C53.1907 76.6277 52.5928 76.0632 52.5928 75.3612C52.5928 74.6592 53.1907 74.0948 53.9342 74.0948H62.2972C63.0408 74.0948 63.6387 74.6592 63.6387 75.3612C63.6387 76.0632 63.0331 76.6277 62.2972 76.6277Z" fill="#666666"/>
<path d="M51.5351 10.2666H41.4321C47.0125 10.2666 51.5275 14.5363 51.5275 19.7976V37.6002C51.5275 42.8686 47.0049 47.1311 41.4321 47.1311H51.5351C57.1156 47.1311 61.6305 42.8614 61.6305 37.6002V19.7976C61.6305 14.5363 57.1079 10.2666 51.5351 10.2666Z" fill="#BCE7FF" fill-opacity="0.56"/>
<path d="M11.3909 57.2406C11.2146 57.2406 11.0459 57.2116 10.8773 57.1465C10.379 56.9511 10.0494 56.4879 10.0494 55.9741V48.3176C4.39998 47.6663 0 43.0999 0 37.5999V19.7973C0 13.8414 5.13586 9 11.4369 9H51.5272C57.8359 9 62.9641 13.8414 62.9641 19.7973V37.5999C62.9641 43.5558 57.8283 48.3972 51.5272 48.3972H21.31L12.3414 56.8643C12.0808 57.1103 11.7358 57.2406 11.3909 57.2406ZM11.4369 11.5329C6.61529 11.5329 2.68291 15.2454 2.68291 19.7973V37.5999C2.68291 42.1374 6.5923 45.8426 11.3985 45.8643C12.1344 45.8643 12.7323 46.436 12.7323 47.1308V52.913L19.8076 46.2334C20.0605 45.9946 20.3978 45.8643 20.7581 45.8643H51.5349C56.3642 45.8643 60.2889 42.1591 60.2889 37.5999V19.7973C60.2889 15.2381 56.3565 11.5329 51.5349 11.5329H11.4369Z" fill="#666666"/>
<path d="M38.0666 90.356H48.1697C42.5893 90.356 38.0743 86.0862 38.0743 80.8251V63.0226C38.0743 57.7542 42.5969 53.4917 48.1697 53.4917H38.0666C32.4862 53.4917 27.9712 57.7614 27.9712 63.0226V80.8251C27.9712 86.0862 32.4862 90.356 38.0666 90.356Z" fill="#BCE7FF" fill-opacity="0.56"/>
<path d="M78.1572 91.6225H38.0668C31.7581 91.6225 26.6299 86.7811 26.6299 80.8252V63.0227C26.6299 57.0668 31.7658 52.2254 38.0668 52.2254H68.2918L77.2604 43.7583C77.6437 43.3965 78.2186 43.2879 78.7245 43.4833C79.2227 43.6787 79.5524 44.1419 79.5524 44.6557V52.3122C85.2018 52.9635 89.6018 57.53 89.6018 63.0299V80.8324C89.6018 86.7811 84.4659 91.6225 78.1572 91.6225ZM38.0668 54.7583C33.2375 54.7583 29.3128 58.4635 29.3128 63.0227V80.8252C29.3128 85.3844 33.2452 89.0896 38.0668 89.0896H78.1572C82.9865 89.0896 86.9112 85.3771 86.9112 80.8252V63.0227C86.9112 58.4852 83.0018 54.78 78.1956 54.7583C77.4597 54.7583 76.8618 54.1866 76.8618 53.4918V47.7096L69.7865 54.3892C69.5336 54.628 69.1963 54.7583 68.836 54.7583H38.0668Z" fill="#666666"/>
<path d="M30.3094 40.3281C25.9937 40.3281 22.4829 37.0137 22.4829 32.9394V24.6172C22.4829 20.5429 25.9937 17.2285 30.3094 17.2285C34.6252 17.2285 38.136 20.5429 38.136 24.6172V32.9394C38.136 37.0137 34.6252 40.3281 30.3094 40.3281ZM30.3094 19.7614C27.4732 19.7614 25.1659 21.9396 25.1659 24.6172V32.9394C25.1659 35.617 27.4732 37.7952 30.3094 37.7952C33.1457 37.7952 35.453 35.617 35.453 32.9394V24.6172C35.453 21.9396 33.1457 19.7614 30.3094 19.7614Z" fill="#666666"/>
<path d="M39.1477 40.3275C38.8027 40.3275 38.4578 40.2045 38.1972 39.9584L31.283 33.4311C30.7618 32.9391 30.7618 32.1358 31.283 31.6437C31.8043 31.1517 32.6551 31.1517 33.1764 31.6437L40.0905 38.171C40.6118 38.6631 40.6118 39.4663 40.0905 39.9584C39.8376 40.2045 39.4926 40.3275 39.1477 40.3275Z" fill="#666666"/>
</svg>
