<svg width="130" height="153" viewBox="0 0 130 153" fill="none" xmlns="http://www.w3.org/2000/svg">
<circle cx="65" cy="65" r="65" fill="#F2FAFF" fill-opacity="0.56"/>
<path d="M86.11 126.13H44.78C43.81 126.13 43.03 125.35 43.03 124.38C43.03 123.41 43.81 122.63 44.78 122.63H86.11C87.08 122.63 87.86 123.41 87.86 124.38C87.86 125.35 87.08 126.13 86.11 126.13Z" fill="#666666"/>
<path d="M76.1201 72.71H54.7701C47.6 72.71 41.8 78.52 41.8 85.68V91.35H89.09V85.68C89.09 78.52 83.2801 72.71 76.1201 72.71Z" fill="#FFBD49"/>
<path d="M51.28 117.71V139.38C51.28 142.69 53.97 145.38 57.28 145.38C60.59 145.38 63.28 142.69 63.28 139.38V117.71H51.28Z" fill="#FFBD49"/>
<path d="M67.6101 117.71V139.38C67.6101 142.69 70.3001 145.38 73.6101 145.38C76.9201 145.38 79.6101 142.69 79.6101 139.38V117.71H67.6101Z" fill="#FFBD49"/>
<path d="M115.95 93.45H14.9302V100.67H115.95V93.45Z" fill="#FFBD49"/>
<path d="M115.95 117.88H14.9302C13.9602 117.88 13.1802 117.1 13.1802 116.13V93.45C13.1802 92.48 13.9602 91.7 14.9302 91.7C15.9002 91.7 16.6802 92.48 16.6802 93.45V114.38H114.2V93.45C114.2 92.48 114.98 91.7 115.95 91.7C116.92 91.7 117.7 92.48 117.7 93.45V116.13C117.7 117.09 116.92 117.88 115.95 117.88Z" fill="#666666"/>
<path d="M122.14 94.51H8.75C7.78 94.51 7 93.73 7 92.76C7 91.79 7.78 91.01 8.75 91.01H122.14C123.11 91.01 123.89 91.79 123.89 92.76C123.89 93.73 123.1 94.51 122.14 94.51Z" fill="#666666"/>
<path d="M20.6001 152.42C19.6301 152.42 18.8501 151.64 18.8501 150.67V117.16C18.8501 116.19 19.6301 115.41 20.6001 115.41C21.5701 115.41 22.3501 116.19 22.3501 117.16V150.67C22.3501 151.63 21.5701 152.42 20.6001 152.42Z" fill="#666666"/>
<path d="M110.28 152.42C109.31 152.42 108.53 151.64 108.53 150.67V117.16C108.53 116.19 109.31 115.41 110.28 115.41C111.25 115.41 112.03 116.19 112.03 117.16V150.67C112.03 151.63 111.25 152.42 110.28 152.42Z" fill="#666666"/>
<path d="M110.28 94.17C109.31 94.17 108.53 93.39 108.53 92.42V56.18C108.53 49.19 102.84 43.5 95.8499 43.5C92.6999 43.5 89.6799 44.66 87.3499 46.77C86.6299 47.42 85.5299 47.36 84.8799 46.64C84.2299 45.92 84.2899 44.82 85.0099 44.17C87.9899 41.48 91.8399 40 95.8499 40C104.77 40 112.03 47.26 112.03 56.18V92.42C112.03 93.38 111.25 94.17 110.28 94.17Z" fill="#666666"/>
<path d="M86.08 61.07C85.62 61.07 85.17 60.89 84.84 60.56L71.72 47.44C71.39 47.11 71.21 46.67 71.21 46.2C71.21 45.74 71.39 45.29 71.72 44.96C73.8 42.88 76.57 41.73 79.52 41.73C82.47 41.73 85.23 42.88 87.32 44.96C91.62 49.26 91.62 56.25 87.32 60.55C86.98 60.89 86.54 61.07 86.08 61.07ZM75.57 46.34L85.93 56.7C87.71 53.8 87.35 49.95 84.84 47.44C83.42 46.02 81.53 45.24 79.52 45.24C78.1 45.23 76.75 45.62 75.57 46.34Z" fill="#666666"/>
<path d="M65.4401 70.37C70.5929 70.37 74.7701 66.1928 74.7701 61.04C74.7701 55.8871 70.5929 51.71 65.4401 51.71C60.2873 51.71 56.1101 55.8871 56.1101 61.04C56.1101 66.1928 60.2873 70.37 65.4401 70.37Z" fill="#FFBD49"/>
<path d="M50.9399 93.79C49.9699 93.79 49.1899 93.01 49.1899 92.04V85.71C49.1899 84.74 49.9699 83.96 50.9399 83.96C51.9099 83.96 52.6899 84.74 52.6899 85.71V92.04C52.6899 93.01 51.9099 93.79 50.9399 93.79Z" fill="#666666"/>
<path d="M79.9399 93.79C78.9699 93.79 78.1899 93.01 78.1899 92.04V85.71C78.1899 84.74 78.9699 83.96 79.9399 83.96C80.9099 83.96 81.6899 84.74 81.6899 85.71V92.04C81.6899 93.01 80.9099 93.79 79.9399 93.79Z" fill="#666666"/>
<path d="M43.6101 152.42C42.6401 152.42 41.8601 151.64 41.8601 150.67V118.33C41.8601 117.36 42.6401 116.58 43.6101 116.58C44.5801 116.58 45.3601 117.36 45.3601 118.33V150.66C45.3601 151.63 44.5801 152.42 43.6101 152.42Z" fill="#666666"/>
<path d="M87.28 152.42C86.31 152.42 85.53 151.64 85.53 150.67V118.33C85.53 117.36 86.31 116.58 87.28 116.58C88.25 116.58 89.03 117.36 89.03 118.33V150.66C89.03 151.63 88.24 152.42 87.28 152.42Z" fill="#666666"/>
</svg>
