<svg width="194" height="169" viewBox="0 0 194 169" fill="none" xmlns="http://www.w3.org/2000/svg">
<path d="M130.183 0C107.273 0 88.6995 18.5376 88.6995 41.4035C88.6995 64.2695 107.273 82.8071 130.183 82.8071C153.094 82.8071 171.667 64.2695 171.667 41.4035C171.667 18.5376 153.094 0 130.183 0ZM130.183 67.7248C115.618 67.7248 103.811 55.9408 103.811 41.4035C103.811 26.8662 115.618 15.0823 130.183 15.0823C144.749 15.0823 156.556 26.8662 156.556 41.4035C156.556 55.9408 144.749 67.7248 130.183 67.7248Z" fill="white"/>
<path d="M194 134.257C194 130.528 190.97 127.503 187.233 127.503H106.57C102.833 127.503 99.803 130.528 99.803 134.257C99.803 137.986 96.7727 141.01 93.0363 141.01H6.76674C3.03031 141.01 0 144.035 0 147.764C0 151.493 3.03031 154.518 6.76674 154.518H58.9481C62.6846 154.518 65.7149 157.542 65.7149 161.271C65.7149 165.001 68.7452 168.025 72.4816 168.025H153.145C156.882 168.025 159.912 165.001 159.912 161.271C159.912 157.542 156.882 154.518 153.145 154.518H127.936C124.2 154.518 121.17 151.493 121.17 147.764C121.17 144.035 124.2 141.01 127.936 141.01H187.23C190.97 141.01 194 137.986 194 134.257Z" fill="#FFF3C9"/>
<path d="M98.5709 161.34C98.3765 161.146 98.3765 160.835 98.5709 160.641L102.607 156.612C102.802 156.418 103.113 156.418 103.308 156.612C103.502 156.806 103.502 157.117 103.308 157.311L99.2713 161.34C99.0769 161.534 98.7624 161.534 98.5709 161.34Z" fill="#6D6E70"/>
<path d="M98.9196 161.628C98.7567 161.628 98.5937 161.565 98.4679 161.443C98.2192 161.195 98.2192 160.789 98.4679 160.544L102.505 156.515C102.745 156.276 103.165 156.276 103.405 156.515C103.525 156.635 103.591 156.795 103.591 156.966C103.591 157.137 103.525 157.297 103.405 157.417L99.3684 161.446C99.2455 161.565 99.0826 161.628 98.9196 161.628ZM98.6709 161.24C98.8081 161.377 99.0311 161.377 99.1683 161.24L103.205 157.211C103.271 157.146 103.308 157.057 103.308 156.963C103.308 156.869 103.271 156.781 103.205 156.715C103.071 156.584 102.842 156.584 102.707 156.715L98.6709 160.744C98.6051 160.809 98.568 160.898 98.568 160.992C98.568 161.086 98.6051 161.175 98.6709 161.24Z" fill="#6D6E70"/>
<path d="M103.305 161.34C103.111 161.534 102.799 161.534 102.605 161.34L98.5679 157.311C98.3735 157.117 98.3735 156.806 98.5679 156.612C98.7623 156.418 99.0739 156.418 99.2683 156.612L103.305 160.641C103.499 160.835 103.499 161.149 103.305 161.34Z" fill="#6D6E70"/>
<path d="M102.957 161.628C102.794 161.628 102.631 161.565 102.505 161.443L98.4687 157.414C98.3486 157.294 98.2829 157.134 98.2829 156.963C98.2829 156.792 98.3486 156.632 98.4687 156.512C98.7088 156.273 99.1291 156.273 99.3692 156.512L103.406 160.541C103.654 160.789 103.654 161.192 103.406 161.44C103.283 161.565 103.12 161.628 102.957 161.628ZM98.9204 156.612C98.826 156.612 98.7374 156.649 98.6717 156.715C98.6059 156.78 98.5687 156.869 98.5687 156.963C98.5687 157.057 98.6059 157.146 98.6717 157.211L102.708 161.24C102.845 161.377 103.068 161.377 103.206 161.24C103.343 161.103 103.343 160.881 103.206 160.744L99.1691 156.715C99.1033 156.649 99.0147 156.612 98.9204 156.612Z" fill="#6D6E70"/>
<path d="M111.072 36.8782H45.6406V128.419H111.072V36.8782Z" fill="white"/>
<path d="M45.6403 128.416V136.023C45.6403 138.725 47.8329 140.913 50.5402 140.913H106.169C108.877 140.913 111.069 138.725 111.069 136.023V128.416H64.4911" fill="#A6A8AA"/>
<path d="M106.172 141.769H50.5432C47.3671 141.769 44.7856 139.19 44.7856 136.023V128.416C44.7856 127.943 45.1687 127.56 45.6433 127.56C46.1178 127.56 46.5009 127.943 46.5009 128.416V136.023C46.5009 138.249 48.3134 140.058 50.5432 140.058H106.172C108.402 140.058 110.215 138.249 110.215 136.023V129.272H64.4912C64.0167 129.272 63.6336 128.89 63.6336 128.416C63.6336 127.943 64.0167 127.56 64.4912 127.56H111.072C111.547 127.56 111.93 127.943 111.93 128.416V136.023C111.93 139.193 109.346 141.769 106.172 141.769Z" fill="#6D6E70"/>
<path d="M111.072 29.5396C111.072 26.8376 108.88 24.6492 106.172 24.6492H50.5433C47.836 24.6492 45.6433 26.8376 45.6433 29.5396V36.8782H111.075V29.5396H111.072Z" fill="#A6A8AA"/>
<path d="M111.072 37.7342H45.6405C45.166 37.7342 44.7829 37.3519 44.7829 36.8782V29.5397C44.7829 26.3697 47.3673 23.7932 50.5405 23.7932H58.7138C59.1883 23.7932 59.5714 24.1755 59.5714 24.6492C59.5714 25.1228 59.1883 25.5052 58.7138 25.5052H50.5434C48.3135 25.5052 46.501 27.3141 46.501 29.5397V36.0223H110.218V29.5397C110.218 27.3141 108.405 25.5052 106.175 25.5052H66.8499C66.3753 25.5052 65.9922 25.1228 65.9922 24.6492C65.9922 24.1755 66.3753 23.7932 66.8499 23.7932H106.172C109.349 23.7932 111.93 26.3726 111.93 29.5397V36.8782C111.93 37.349 111.547 37.7342 111.072 37.7342Z" fill="#6D6E70"/>
<path d="M45.6406 129.272C45.166 129.272 44.7829 128.89 44.7829 128.416V54.2403C44.7829 53.7666 45.166 53.3843 45.6406 53.3843C46.1151 53.3843 46.4982 53.7666 46.4982 54.2403V128.416C46.4982 128.89 46.1151 129.272 45.6406 129.272Z" fill="#6D6E70"/>
<path d="M111.072 129.272C110.598 129.272 110.215 128.89 110.215 128.416V37.7342H46.4982V44.6162C46.4982 45.0898 46.1151 45.4722 45.6406 45.4722C45.166 45.4722 44.7829 45.0898 44.7829 44.6162V36.8782C44.7829 36.4046 45.166 36.0222 45.6406 36.0222H111.072C111.547 36.0222 111.93 36.4046 111.93 36.8782V128.416C111.93 128.89 111.547 129.272 111.072 129.272Z" fill="#6D6E70"/>
<path d="M78.4679 138.779C80.7446 138.779 82.5903 136.937 82.5903 134.665C82.5903 132.392 80.7446 130.55 78.4679 130.55C76.1912 130.55 74.3455 132.392 74.3455 134.665C74.3455 136.937 76.1912 138.779 78.4679 138.779Z" fill="white"/>
<path d="M78.4679 139.635C75.7235 139.635 73.4879 137.407 73.4879 134.665C73.4879 131.926 75.7206 129.697 78.4679 129.697C81.2124 129.697 83.4479 131.926 83.4479 134.665C83.4479 137.407 81.2124 139.635 78.4679 139.635ZM78.4679 131.409C76.6697 131.409 75.2032 132.87 75.2032 134.665C75.2032 136.459 76.6669 137.923 78.4679 137.923C80.2661 137.923 81.7327 136.462 81.7327 134.665C81.7327 132.87 80.269 131.409 78.4679 131.409Z" fill="#6D6E70"/>
<path d="M85.5205 32.1589H71.4153C70.5948 32.1589 69.9316 31.4941 69.9316 30.6781C69.9316 29.8592 70.5977 29.1973 71.4153 29.1973H85.5205C86.341 29.1973 87.0042 29.8621 87.0042 30.6781C87.0042 31.497 86.341 32.1589 85.5205 32.1589Z" fill="white"/>
<path d="M85.5205 33.0149H71.4153C70.1231 33.0149 69.0739 31.9649 69.0739 30.6781C69.0739 29.3885 70.126 28.3413 71.4153 28.3413H85.5205C86.8127 28.3413 87.8619 29.3913 87.8619 30.6781C87.8619 31.9678 86.8127 33.0149 85.5205 33.0149ZM71.4153 30.0533C71.0694 30.0533 70.7892 30.3329 70.7892 30.6781C70.7892 31.0234 71.0694 31.303 71.4153 31.303H85.5205C85.8665 31.303 86.1466 31.0234 86.1466 30.6781C86.1466 30.3329 85.8665 30.0533 85.5205 30.0533H71.4153Z" fill="#6D6E70"/>
<path d="M153.448 96.688V139.464C152.805 142.748 149.906 145.228 146.43 145.228H118.008H110.855V78.1904H153.448V82.242H157.187V94.0459L153.448 96.688Z" fill="#F5D953"/>
<path d="M129.297 146.083H110.852C110.378 146.083 109.995 145.701 109.995 145.227V78.1875C109.995 77.7139 110.378 77.3315 110.852 77.3315H136.847C137.322 77.3315 137.705 77.7139 137.705 78.1875C137.705 78.6612 137.322 79.0435 136.847 79.0435H111.71V144.369H129.297C129.772 144.369 130.155 144.751 130.155 145.225C130.155 145.698 129.769 146.083 129.297 146.083Z" fill="#6D6E70"/>
<path d="M146.427 146.084H136.847C136.373 146.084 135.99 145.701 135.99 145.228C135.99 144.754 136.373 144.372 136.847 144.372H146.427C149.406 144.372 151.982 142.277 152.588 139.378V103.188C152.588 102.714 152.971 102.332 153.445 102.332C153.92 102.332 154.303 102.714 154.303 103.188V139.464C154.303 139.518 154.297 139.575 154.286 139.63C153.557 143.367 150.249 146.084 146.427 146.084Z" fill="#6D6E70"/>
<path d="M153.448 97.544C153.179 97.544 152.914 97.4184 152.748 97.1816C152.473 96.7964 152.565 96.2629 152.951 95.989L156.327 93.6008V83.0951H153.445C152.971 83.0951 152.588 82.7128 152.588 82.2391V79.0435H144.775C144.3 79.0435 143.917 78.6612 143.917 78.1875C143.917 77.7139 144.3 77.3315 144.775 77.3315H153.445C153.92 77.3315 154.303 77.7139 154.303 78.1875V81.3832H157.185C157.659 81.3832 158.042 81.7655 158.042 82.2391V94.043C158.042 94.3198 157.908 94.5823 157.679 94.7421L153.94 97.3842C153.791 97.4926 153.62 97.544 153.448 97.544Z" fill="#6D6E70"/>
<path d="M144.778 83.8625V92.9473V137.912H104.938V83.8625H135.672" fill="white"/>
<path d="M144.778 138.768H104.938C104.463 138.768 104.08 138.385 104.08 137.912V83.8626C104.08 83.3889 104.463 83.0066 104.938 83.0066H135.672C136.147 83.0066 136.53 83.3889 136.53 83.8626C136.53 84.3362 136.147 84.7185 135.672 84.7185H105.795V137.059H143.92V83.8626C143.92 83.3889 144.303 83.0066 144.778 83.0066C145.252 83.0066 145.635 83.3889 145.635 83.8626V137.915C145.635 138.385 145.249 138.768 144.778 138.768Z" fill="#6D6E70"/>
<path d="M113.691 112.213H76.2581C73.7767 112.213 71.767 110.207 71.767 107.73V86.8445H113.694V112.213H113.691Z" fill="white"/>
<path d="M113.691 113.069H76.2581C73.3078 113.069 70.9093 110.675 70.9093 107.73V86.8445C70.9093 86.3709 71.2923 85.9885 71.7669 85.9885H113.694C114.168 85.9885 114.551 86.3709 114.551 86.8445V112.216C114.549 112.684 114.166 113.069 113.691 113.069ZM72.6245 87.6976V107.727C72.6245 109.728 74.2541 111.354 76.2581 111.354H112.836V87.6948H72.6245V87.6976Z" fill="#6D6E70"/>
<path d="M85.1348 78.1579L106.966 99.9473L139.611 67.3661L117.779 45.5768L85.1348 78.1579Z" fill="white"/>
<path d="M123.943 83.86C123.722 83.86 123.502 83.7772 123.336 83.6089C123.002 83.275 123.002 82.7329 123.336 82.3991L138.399 67.3653L132.716 61.6931C132.382 61.3592 132.382 60.8171 132.716 60.4833C133.051 60.1495 133.594 60.1495 133.928 60.4833L140.218 66.7604C140.378 66.9202 140.469 67.1399 140.469 67.3653C140.469 67.5936 140.378 67.8104 140.218 67.9702L124.549 83.6089C124.383 83.7772 124.163 83.86 123.943 83.86Z" fill="#6D6E70"/>
<path d="M106.967 100.803C106.747 100.803 106.527 100.72 106.361 100.551L84.5284 78.7612C84.3683 78.6014 84.2768 78.3817 84.2768 78.1563C84.2768 77.928 84.3683 77.7112 84.5284 77.5514L117.173 44.9701C117.507 44.6363 118.051 44.6363 118.385 44.9701L128.557 55.122C128.891 55.4558 128.891 55.9979 128.557 56.3317C128.222 56.6656 127.679 56.6656 127.344 56.3317L117.782 46.7848L86.3495 78.1563L106.967 98.7339L119.451 86.2738C119.786 85.9399 120.329 85.9399 120.663 86.2738C120.998 86.6076 120.998 87.1497 120.663 87.4835L107.573 100.549C107.407 100.72 107.187 100.803 106.967 100.803Z" fill="#6D6E70"/>
<path d="M57.5473 85.2781H46.5238V108.977H57.5473V85.2781Z" fill="#E7972A"/>
<path d="M54.9258 109.833H48.5793C48.1047 109.833 47.7216 109.451 47.7216 108.977C47.7216 108.504 48.1047 108.121 48.5793 108.121H54.9258C55.4003 108.121 55.7834 108.504 55.7834 108.977C55.7834 109.451 55.3975 109.833 54.9258 109.833Z" fill="#6D6E70"/>
<path d="M57.5472 86.1341H50.8577C50.3831 86.1341 50 85.7517 50 85.2781C50 84.8045 50.3831 84.4221 50.8577 84.4221H57.5444C58.0189 84.4221 58.402 84.8045 58.402 85.2781C58.4048 85.7517 58.0189 86.1341 57.5472 86.1341Z" fill="#6D6E70"/>
<path d="M59.8859 82.7815H69.094C70.3862 82.7815 71.4354 83.8286 71.4354 85.1183V109.585C71.4354 110.875 70.389 111.922 69.094 111.922H59.8859C58.5937 111.922 57.5445 110.877 57.5445 109.585V85.1183C57.5474 83.8286 58.5937 82.7815 59.8859 82.7815Z" fill="#F5D953"/>
<path d="M67.0128 112.775H59.8859C58.122 112.775 56.6869 111.342 56.6869 109.582C56.6869 109.108 57.07 108.726 57.5445 108.726C58.0191 108.726 58.4022 109.108 58.4022 109.582C58.4022 110.398 59.0683 111.063 59.8859 111.063H67.0128C67.4874 111.063 67.8705 111.445 67.8705 111.919C67.8705 112.392 67.4874 112.775 67.0128 112.775Z" fill="#6D6E70"/>
<path d="M69.094 112.775C68.6195 112.775 68.2364 112.392 68.2364 111.919C68.2364 111.445 68.6195 111.063 69.094 111.063C69.9117 111.063 70.5778 110.398 70.5778 109.582V85.1154C70.5778 84.2994 69.9117 83.6346 69.094 83.6346H62.2616C61.787 83.6346 61.4039 83.2522 61.4039 82.7786C61.4039 82.3049 61.787 81.9226 62.2616 81.9226H69.094C70.8579 81.9226 72.293 83.3549 72.293 85.1154V109.582C72.293 111.342 70.8579 112.775 69.094 112.775Z" fill="#6D6E70"/>
<path d="M57.5476 106.278C57.073 106.278 56.69 105.896 56.69 105.422V85.1154C56.69 83.3549 58.1251 81.9226 59.889 81.9226C60.3635 81.9226 60.7466 82.3049 60.7466 82.7786C60.7466 83.2522 60.3635 83.6346 59.889 83.6346C59.0713 83.6346 58.4052 84.2994 58.4052 85.1154V105.422C58.4052 105.896 58.0193 106.278 57.5476 106.278Z" fill="#6D6E70"/>
<path d="M114.36 112.82H102.067C100.14 112.82 98.5794 111.262 98.5794 109.339C98.5794 107.416 100.14 105.858 102.067 105.858H114.36C116.287 105.858 117.848 107.416 117.848 109.339C117.848 111.26 116.287 112.82 114.36 112.82Z" fill="#D5E7F9"/>
<path d="M79.3225 80.3305H82.4786H91.7325C92.8446 80.3305 93.9452 80.1194 94.9801 79.7114L106.264 75.246C108.288 74.4443 110.58 75.4344 111.384 77.4545C112.187 79.4746 111.195 81.7629 109.171 82.5646L94.9229 88.2027H89.6399C88.2305 88.2027 87.0241 89.2241 86.8097 90.6136C85.649 98.0464 79.2082 103.733 71.4352 103.733V88.2027C71.4352 83.8572 74.9658 80.3305 79.3225 80.3305Z" fill="#D5E7F9"/>
<path d="M114.36 105.856H102.067C100.14 105.856 98.5794 104.298 98.5794 102.375C98.5794 100.452 100.14 98.8938 102.067 98.8938H114.36C116.287 98.8938 117.848 100.452 117.848 102.375C117.848 104.295 116.287 105.856 114.36 105.856Z" fill="#D5E7F9"/>
<path d="M120.455 91.926H113.605C111.678 91.926 110.118 90.3682 110.118 88.4451C110.118 86.522 111.678 84.9641 113.605 84.9641H120.455C122.382 84.9641 123.943 86.522 123.943 88.4451C123.943 90.3682 122.382 91.926 120.455 91.926Z" fill="#EFD066"/>
<path d="M118.054 98.8909H108.359C106.433 98.8909 104.872 97.333 104.872 95.4099C104.872 93.4868 106.433 91.929 108.359 91.929H118.054C119.98 91.929 121.541 93.4868 121.541 95.4099C121.544 97.333 119.98 98.8909 118.054 98.8909Z" fill="#D5E7F9"/>
<path d="M114.36 113.677H102.067C99.6712 113.677 97.7215 111.731 97.7215 109.34C97.7215 106.949 99.6712 105.003 102.067 105.003C102.541 105.003 102.925 105.385 102.925 105.859C102.925 106.332 102.541 106.715 102.067 106.715C100.617 106.715 99.4368 107.893 99.4368 109.34C99.4368 110.789 100.617 111.965 102.067 111.965H114.36C115.812 111.965 116.99 110.786 116.99 109.34C116.99 107.893 115.809 106.715 114.36 106.715C113.885 106.715 113.502 106.332 113.502 105.859C113.502 105.385 113.885 105.003 114.36 105.003C116.755 105.003 118.705 106.949 118.705 109.34C118.705 111.731 116.755 113.677 114.36 113.677Z" fill="#6D6E70"/>
<path d="M96.9185 88.2684C96.5783 88.2684 96.2552 88.063 96.1209 87.7291C95.9465 87.2897 96.1609 86.7933 96.6011 86.6192L106.704 82.6218C107.144 82.4478 107.642 82.6617 107.816 83.1012C107.991 83.5406 107.776 84.037 107.336 84.2111L97.2329 88.2085C97.1329 88.2513 97.0242 88.2684 96.9185 88.2684Z" fill="#6D6E70"/>
<path d="M108.625 83.6374C108.285 83.6374 107.962 83.432 107.828 83.0953C107.653 82.6559 107.868 82.1594 108.308 81.9854L108.854 81.7685C109.62 81.4661 110.223 80.8812 110.549 80.1279C110.875 79.3718 110.889 78.5358 110.586 77.7711C110.283 77.0065 109.697 76.4044 108.942 76.0792C108.185 75.751 107.347 75.7396 106.581 76.0421L104.606 76.8239C104.165 76.9979 103.668 76.7839 103.494 76.3445C103.319 75.9051 103.534 75.4086 103.974 75.2346L105.949 74.4528C107.141 73.982 108.445 74.002 109.623 74.5099C110.801 75.0178 111.71 75.9536 112.181 77.1434C112.653 78.3332 112.633 79.6372 112.124 80.8098C111.615 81.9854 110.678 82.8927 109.486 83.3635L108.94 83.5804C108.837 83.6174 108.728 83.6374 108.625 83.6374Z" fill="#6D6E70"/>
<path d="M91.7324 81.1865H85.1429C84.6683 81.1865 84.2852 80.8042 84.2852 80.3306C84.2852 79.8569 84.6683 79.4746 85.1429 79.4746H91.7324C92.7387 79.4746 93.7249 79.2863 94.6626 78.9153L102.001 76.0107C102.441 75.8367 102.939 76.0507 103.113 76.4901C103.288 76.9295 103.073 77.4259 102.633 77.6L95.2944 80.5046C94.1566 80.9583 92.9559 81.1865 91.7324 81.1865Z" fill="#6D6E70"/>
<path d="M71.4352 104.589C70.9606 104.589 70.5775 104.207 70.5775 103.733V88.2027C70.5775 83.3893 74.4998 79.4746 79.3226 79.4746H82.4787C82.9532 79.4746 83.3363 79.8569 83.3363 80.3306C83.3363 80.8042 82.9532 81.1866 82.4787 81.1866H79.3226C75.4461 81.1866 72.2928 84.3337 72.2928 88.2027V102.851C72.5158 102.84 72.7359 102.82 72.9561 102.797C73.4306 102.749 73.848 103.091 73.8966 103.562C73.9452 104.033 73.6021 104.452 73.1304 104.5C72.5701 104.56 72.0012 104.589 71.4352 104.589Z" fill="#6D6E70"/>
<path d="M74.6055 104.266C74.2081 104.266 73.8507 103.99 73.7678 103.585C73.6706 103.122 73.9708 102.669 74.4339 102.572C78.9851 101.63 82.8616 98.5428 84.8056 94.3143C85.0029 93.8834 85.5117 93.6951 85.9434 93.892C86.3751 94.0889 86.5638 94.5968 86.3665 95.0276C84.1967 99.7497 79.8656 103.196 74.7827 104.246C74.7227 104.261 74.6655 104.266 74.6055 104.266Z" fill="#6D6E70"/>
<path d="M86.3095 93.6379C86.2266 93.6379 86.1408 93.6265 86.0579 93.6008C85.6062 93.461 85.3518 92.9817 85.4919 92.5309C85.6977 91.8632 85.8578 91.1756 85.9636 90.4851C86.2466 88.6676 87.7932 87.3494 89.6428 87.3494H93.4307C93.9053 87.3494 94.2884 87.7317 94.2884 88.2053C94.2884 88.679 93.9053 89.0613 93.4307 89.0613H89.6428C88.6451 89.0613 87.8104 89.7718 87.6588 90.7476C87.5388 91.5208 87.3615 92.2883 87.13 93.033C87.0156 93.4011 86.6754 93.6351 86.3095 93.6379Z" fill="#6D6E70"/>
<path d="M103.448 106.711H102.067C99.6712 106.711 97.7215 104.766 97.7215 102.375C97.7215 99.9835 99.6712 98.0376 102.067 98.0376H104.871C105.346 98.0376 105.729 98.4199 105.729 98.8936C105.729 99.3672 105.346 99.7495 104.871 99.7495H102.067C100.617 99.7495 99.4368 100.928 99.4368 102.375C99.4368 103.824 100.617 105 102.067 105H103.448C103.922 105 104.305 105.382 104.305 105.856C104.305 106.329 103.922 106.711 103.448 106.711Z" fill="#6D6E70"/>
<path d="M114.36 106.711H107.493C107.018 106.711 106.635 106.329 106.635 105.856C106.635 105.382 107.018 105 107.493 105H114.36C115.812 105 116.99 103.821 116.99 102.375C116.99 100.925 115.809 99.7495 114.36 99.7495H110.543C110.069 99.7495 109.685 99.3672 109.685 98.8936C109.685 98.4199 110.069 98.0376 110.543 98.0376H114.36C116.755 98.0376 118.705 99.9835 118.705 102.375C118.705 104.766 116.755 106.711 114.36 106.711Z" fill="#6D6E70"/>
<path d="M113.605 91.926C111.678 91.926 110.117 90.3682 110.117 88.4451C110.117 86.522 111.678 84.9641 113.605 84.9641H117.905H119.431H120.455C122.382 84.9641 123.942 86.522 123.942 88.4451C123.942 90.3682 122.382 91.926 120.455 91.926" fill="#D5E7F9"/>
<path d="M120.455 92.782C119.98 92.782 119.597 92.3997 119.597 91.9261C119.597 91.4524 119.98 91.0701 120.455 91.0701C121.907 91.0701 123.085 89.8917 123.085 88.4451C123.085 86.9985 121.904 85.8201 120.455 85.8201H113.605C112.153 85.8201 110.975 86.9985 110.975 88.4451C110.975 89.8917 112.156 91.0701 113.605 91.0701C114.08 91.0701 114.463 91.4524 114.463 91.9261C114.463 92.3997 114.08 92.782 113.605 92.782C111.209 92.782 109.26 90.8361 109.26 88.4451C109.26 86.0541 111.209 84.1082 113.605 84.1082H120.455C122.85 84.1082 124.8 86.0541 124.8 88.4451C124.8 90.8361 122.85 92.782 120.455 92.782Z" fill="#6D6E70"/>
<path d="M118.053 99.7469C117.579 99.7469 117.196 99.3645 117.196 98.8909C117.196 98.4173 117.579 98.0349 118.053 98.0349C119.505 98.0349 120.683 96.8565 120.683 95.4099C120.683 93.9605 119.503 92.7849 118.053 92.7849H115.517C115.043 92.7849 114.66 92.4026 114.66 91.929C114.66 91.4553 115.043 91.073 115.517 91.073H118.053C120.449 91.073 122.399 93.0189 122.399 95.4099C122.401 97.801 120.452 99.7469 118.053 99.7469Z" fill="#6D6E70"/>
<path d="M108.359 99.7469C105.963 99.7469 104.014 97.801 104.014 95.4099C104.014 93.0189 105.963 91.073 108.359 91.073H110.114C110.589 91.073 110.972 91.4553 110.972 91.929C110.972 92.4026 110.589 92.7849 110.114 92.7849H108.359C106.907 92.7849 105.729 93.9633 105.729 95.4099C105.729 96.8594 106.91 98.0349 108.359 98.0349C108.834 98.0349 109.217 98.4173 109.217 98.8909C109.217 99.3645 108.834 99.7469 108.359 99.7469Z" fill="#6D6E70"/>
<path d="M111.089 69.0317C110.586 69.0317 110.08 68.8405 109.697 68.4553C108.928 67.6878 108.928 66.4438 109.697 65.6734L118.076 57.3105C118.845 56.543 120.092 56.543 120.864 57.3105C121.633 58.078 121.633 59.322 120.864 60.0924L112.485 68.4553C112.099 68.8405 111.593 69.0317 111.089 69.0317Z" fill="#DE512B"/>
<path d="M117.602 75.5314C117.099 75.5314 116.593 75.3403 116.21 74.9551C115.441 74.1875 115.441 72.9435 116.21 72.1731L124.589 63.8103C125.358 63.0427 126.604 63.0427 127.376 63.8103C128.145 64.5778 128.145 65.8218 127.376 66.5922L118.997 74.9551C118.611 75.3403 118.108 75.5314 117.602 75.5314Z" fill="#DE512B"/>
<path d="M177.942 123.349H163.199V130.99H177.942V123.349Z" fill="#E7972A"/>
<path d="M163.199 123.874V130.445H159.532V123.874H163.199Z" fill="#D5E7F9"/>
<path d="M163.199 131.301H159.532C159.057 131.301 158.674 130.918 158.674 130.445V123.874C158.674 123.4 159.057 123.018 159.532 123.018H163.199C163.674 123.018 164.057 123.4 164.057 123.874V130.445C164.057 130.918 163.671 131.301 163.199 131.301ZM160.389 129.589H162.342V124.73H160.389V129.589Z" fill="#6D6E70"/>
<path d="M153.588 110.889C162.596 119.879 162.596 134.457 153.588 143.447C144.58 152.438 129.974 152.438 120.966 143.447C111.958 134.457 111.958 119.879 120.966 110.889C129.972 101.898 144.577 101.898 153.588 110.889Z" fill="#DE512B"/>
<path d="M151.37 113.103C159.154 120.872 159.154 133.466 151.37 141.233C143.588 149 130.967 149 123.185 141.233C115.403 133.466 115.403 120.869 123.185 113.103C130.967 105.336 143.585 105.336 151.37 113.103Z" fill="#F5D953"/>
<path d="M149.775 114.695C156.679 121.586 156.679 132.756 149.775 139.644C142.871 146.534 131.681 146.534 124.777 139.644C117.873 132.753 117.873 121.586 124.777 114.695C131.681 107.804 142.871 107.804 149.775 114.695Z" fill="white"/>
<path d="M188.857 130.99C190.973 130.99 192.685 129.278 192.685 127.169C192.685 125.058 190.97 123.349 188.857 123.349H184.557V130.99H188.857Z" fill="#E7972A"/>
<path d="M188.857 131.846H184.557C184.083 131.846 183.7 131.464 183.7 130.99V123.349C183.7 122.875 184.083 122.493 184.557 122.493H188.857C191.441 122.493 193.543 124.59 193.543 127.169C193.543 129.749 191.441 131.846 188.857 131.846ZM185.415 130.134H188.857C190.495 130.134 191.827 128.804 191.827 127.169C191.827 125.534 190.495 124.205 188.857 124.205H185.415V130.134Z" fill="#6D6E70"/>
<path d="M184.557 123.349H177.942V130.99H184.557V123.349Z" fill="#D5E7F9"/>
<path d="M184.557 131.846H177.942C177.468 131.846 177.085 131.464 177.085 130.99V123.349C177.085 122.875 177.468 122.493 177.942 122.493H184.557C185.032 122.493 185.415 122.875 185.415 123.349V130.99C185.415 131.464 185.032 131.846 184.557 131.846ZM178.8 130.134H183.7V124.205H178.8V130.134Z" fill="#6D6E70"/>
<path d="M137.296 151.045C132.736 151.045 128.231 149.747 124.394 147.296C123.994 147.042 123.88 146.512 124.134 146.115C124.389 145.716 124.92 145.601 125.318 145.855C129.514 148.535 134.569 149.73 139.554 149.219C144.612 148.703 149.377 146.437 152.979 142.842C157.173 138.657 159.483 133.09 159.483 127.167C159.483 121.246 157.173 115.679 152.976 111.491C150.964 109.482 148.628 107.901 146.038 106.791C145.604 106.606 145.401 106.101 145.589 105.667C145.775 105.234 146.281 105.031 146.716 105.219C149.509 106.415 152.024 108.118 154.191 110.281C158.711 114.792 161.198 120.787 161.198 127.167C161.198 133.544 158.708 139.541 154.191 144.052C150.312 147.924 145.175 150.363 139.729 150.92C138.92 151.005 138.105 151.045 137.296 151.045ZM120.964 144.303C120.744 144.303 120.523 144.22 120.358 144.052C111.029 134.742 111.029 119.594 120.358 110.284C125.844 104.808 133.691 102.323 141.347 103.636C141.813 103.716 142.127 104.158 142.047 104.623C141.967 105.088 141.524 105.402 141.058 105.322C133.948 104.104 126.664 106.409 121.57 111.494C112.911 120.136 112.911 134.2 121.57 142.842C121.904 143.176 121.904 143.718 121.57 144.052C121.404 144.22 121.184 144.303 120.964 144.303Z" fill="#6D6E70"/>
<path d="M177.942 131.846H166.53C166.055 131.846 165.672 131.463 165.672 130.99C165.672 130.516 166.055 130.134 166.53 130.134H177.942C178.417 130.134 178.8 130.516 178.8 130.99C178.8 131.463 178.414 131.846 177.942 131.846Z" fill="#6D6E70"/>
<path d="M163.199 131.846C162.725 131.846 162.342 131.464 162.342 130.99V123.349C162.342 122.875 162.725 122.493 163.199 122.493H174.54C175.015 122.493 175.398 122.875 175.398 123.349C175.398 123.823 175.015 124.205 174.54 124.205H164.057V130.99C164.057 131.464 163.671 131.846 163.199 131.846Z" fill="#6D6E70"/>
<path d="M150.115 135.72H124.44C123.966 135.72 123.582 135.338 123.582 134.865C123.582 134.391 123.966 134.009 124.44 134.009H150.115C150.589 134.009 150.972 134.391 150.972 134.865C150.972 135.338 150.586 135.72 150.115 135.72Z" fill="#6D6E70"/>
<path d="M128.216 128.251C129.303 128.251 130.183 129.13 130.183 130.214V134.867H126.25V130.214C126.25 129.13 127.13 128.251 128.216 128.251Z" fill="#E7972A"/>
<path d="M130.183 135.72H126.25C125.775 135.72 125.392 135.338 125.392 134.865V130.211C125.392 128.656 126.658 127.392 128.216 127.392C129.775 127.392 131.041 128.656 131.041 130.211V134.865C131.041 135.338 130.658 135.72 130.183 135.72ZM127.107 134.009H129.326V130.211C129.326 129.6 128.828 129.104 128.216 129.104C127.605 129.104 127.107 129.6 127.107 130.211V134.009Z" fill="#6D6E70"/>
<path d="M134.272 120.972C135.358 120.972 136.238 121.851 136.238 122.935V134.865H132.305V122.935C132.305 121.851 133.185 120.972 134.272 120.972Z" fill="#F5D953"/>
<path d="M136.238 135.721H132.305C131.83 135.721 131.447 135.338 131.447 134.865V122.935C131.447 121.38 132.713 120.116 134.272 120.116C135.83 120.116 137.096 121.38 137.096 122.935V134.865C137.096 135.338 136.71 135.721 136.238 135.721ZM133.162 134.009H135.381V122.935C135.381 122.325 134.883 121.828 134.272 121.828C133.66 121.828 133.162 122.325 133.162 122.935V134.009Z" fill="#6D6E70"/>
<path d="M140.323 125.911C141.41 125.911 142.29 126.79 142.29 127.874V134.864H138.357V127.874C138.359 126.79 139.24 125.911 140.323 125.911Z" fill="#DE512B"/>
<path d="M142.29 135.72H138.357C137.882 135.72 137.499 135.338 137.499 134.864V127.874C137.499 126.319 138.765 125.055 140.323 125.055C141.881 125.055 143.148 126.319 143.148 127.874V134.864C143.148 135.338 142.765 135.72 142.29 135.72ZM139.217 134.008H141.435V127.874C141.435 127.263 140.938 126.767 140.326 126.767C139.714 126.767 139.217 127.263 139.217 127.874V134.008Z" fill="#6D6E70"/>
<path d="M146.378 116.915C147.465 116.915 148.345 117.794 148.345 118.878V134.867H144.412V118.878C144.412 117.794 145.292 116.915 146.378 116.915Z" fill="#A6A8AA"/>
<path d="M148.345 135.721H144.412C143.937 135.721 143.554 135.338 143.554 134.865V118.875C143.554 117.32 144.82 116.056 146.378 116.056C147.936 116.056 149.203 117.32 149.203 118.875V134.865C149.203 135.338 148.82 135.721 148.345 135.721ZM145.269 134.009H147.488V118.875C147.488 118.264 146.99 117.768 146.378 117.768C145.767 117.768 145.269 118.264 145.269 118.875V134.009Z" fill="#6D6E70"/>
<path d="M169.364 35.4382C174.781 30.0319 174.781 21.2664 169.364 15.8601C163.948 10.4537 155.165 10.4537 149.748 15.8601C144.332 21.2664 144.332 30.0319 149.748 35.4382C155.165 40.8446 163.948 40.8446 169.364 35.4382Z" fill="#F5D953"/>
<path d="M159.557 40.3478C155.624 40.3478 151.925 38.8185 149.143 36.0423C143.4 30.3101 143.4 20.9857 149.143 15.2535C154.886 9.5213 164.229 9.5213 169.972 15.2535C175.715 20.9857 175.715 30.3101 169.972 36.0423C167.19 38.8185 163.491 40.3478 159.557 40.3478ZM159.557 12.6656C156.224 12.6656 152.894 13.9324 150.355 16.4633C145.281 21.5278 145.281 29.7651 150.355 34.8296C152.814 37.2834 156.081 38.633 159.555 38.633C163.031 38.633 166.298 37.2834 168.757 34.8296C173.831 29.7651 173.831 21.5278 168.757 16.4633C166.221 13.9324 162.891 12.6656 159.557 12.6656Z" fill="#6D6E70"/>
<path d="M151.541 40.2651L144.915 33.6512C144.209 32.9465 144.209 31.8052 144.915 31.1033C145.621 30.3985 146.764 30.3985 147.468 31.1033L154.094 37.7171C154.8 38.4219 154.8 39.5632 154.094 40.2651C153.388 40.967 152.245 40.967 151.541 40.2651Z" fill="#D5E7F9"/>
<path d="M152.816 41.6461C152.133 41.6461 151.453 41.3864 150.932 40.87L144.306 34.2561C143.268 33.2204 143.268 31.5341 144.306 30.4955C145.343 29.4598 147.036 29.4598 148.074 30.4955L154.7 37.1094C155.738 38.1451 155.738 39.8314 154.7 40.87C154.183 41.3864 153.5 41.6461 152.816 41.6461ZM152.147 39.6573C152.516 40.0254 153.119 40.0254 153.488 39.6573C153.857 39.2893 153.857 38.6872 153.488 38.3192L146.861 31.7053C146.493 31.3373 145.889 31.3373 145.521 31.7053C145.152 32.0734 145.152 32.6754 145.521 33.0435L152.147 39.6573Z" fill="#6D6E70"/>
<path d="M148.986 42.8131L142.359 36.1992C141.653 35.4945 141.653 34.3532 142.359 33.6484C143.065 32.9437 144.208 32.9437 144.912 33.6484L151.538 40.2623C152.245 40.967 152.245 42.1083 151.538 42.8131C150.835 43.5178 149.692 43.5178 148.986 42.8131Z" fill="#D5E7F9"/>
<path d="M150.263 44.1969C149.552 44.1969 148.883 43.9202 148.379 43.418L141.753 36.8042C141.25 36.302 140.972 35.6343 140.972 34.9239C140.972 34.2134 141.25 33.5458 141.753 33.0436C142.256 32.5414 142.925 32.2646 143.637 32.2646C144.349 32.2646 145.018 32.5414 145.521 33.0436L152.147 39.6603C152.651 40.1624 152.928 40.8301 152.928 41.5406C152.928 42.251 152.651 42.9187 152.147 43.4209C151.644 43.9202 150.975 44.1969 150.263 44.1969ZM143.637 33.9766C143.382 33.9766 143.145 34.0765 142.965 34.2534C142.785 34.4331 142.688 34.6699 142.688 34.9239C142.688 35.1778 142.785 35.4146 142.965 35.5944L149.592 42.2082C149.949 42.5649 150.575 42.5649 150.932 42.2082C151.112 42.0285 151.21 41.7917 151.21 41.5377C151.21 41.2838 151.112 41.047 150.932 40.8672L144.306 34.2534C144.128 34.0765 143.888 33.9766 143.637 33.9766Z" fill="#6D6E70"/>
<path d="M146.433 45.3639L139.806 38.7501C139.1 38.0454 139.1 36.904 139.806 36.2021C140.512 35.4974 141.656 35.4974 142.359 36.2021L148.986 42.816C149.692 43.5207 149.692 44.662 148.986 45.3639C148.28 46.0658 147.136 46.0658 146.433 45.3639Z" fill="#D5E7F9"/>
<path d="M147.708 46.7477C146.996 46.7477 146.327 46.471 145.824 45.9688L139.197 39.355C138.694 38.8528 138.417 38.1851 138.417 37.4747C138.417 36.7642 138.694 36.0965 139.197 35.5944C139.7 35.0922 140.369 34.8154 141.081 34.8154C141.793 34.8154 142.462 35.0922 142.965 35.5944L149.592 42.2082C150.629 43.2439 150.629 44.9302 149.592 45.9688C149.088 46.471 148.42 46.7477 147.708 46.7477ZM141.081 36.5274C140.827 36.5274 140.589 36.6272 140.409 36.8042C140.229 36.9839 140.132 37.2207 140.132 37.4747C140.132 37.7286 140.229 37.9654 140.409 38.1452L147.036 44.759C147.393 45.1157 148.019 45.1157 148.377 44.759C148.745 44.3909 148.745 43.7889 148.377 43.4208L141.75 36.807C141.573 36.6244 141.335 36.5274 141.081 36.5274Z" fill="#6D6E70"/>
<path d="M144.017 42.9501L142.222 41.1583L140.426 39.3665L137.813 41.9772C137.319 42.4708 137.319 43.2726 137.813 43.769C138.308 44.2626 138.308 45.0644 137.813 45.5609L135.672 47.6979C135.178 48.1916 135.178 48.9933 135.672 49.4898C136.167 49.9834 136.97 49.9834 137.467 49.4898L139.609 47.3527C140.103 46.8591 140.907 46.8591 141.404 47.3527C141.899 47.8463 142.702 47.8463 143.199 47.3527L145.812 44.742L144.017 42.9501Z" fill="#E7972A"/>
<path d="M136.57 50.7139C136.001 50.7139 135.466 50.4942 135.066 50.0918C134.237 49.2644 134.237 47.9177 135.066 47.0902L137.207 44.9531C137.367 44.7934 137.367 44.5337 137.207 44.3711C136.807 43.9716 136.584 43.4381 136.584 42.8703C136.584 42.3025 136.804 41.7689 137.207 41.3695L139.82 38.7616C140.143 38.4392 140.712 38.4392 141.032 38.7616L144.623 42.3453L146.418 44.1371C146.753 44.4709 146.753 45.0131 146.418 45.3469L143.805 47.9548C142.976 48.7822 141.627 48.7822 140.798 47.9548C140.692 47.8492 140.569 47.8349 140.506 47.8349C140.443 47.8349 140.321 47.8492 140.215 47.9548L138.074 50.0918C137.67 50.4942 137.136 50.7139 136.57 50.7139ZM140.426 40.5791L138.419 42.5821C138.314 42.6877 138.299 42.8103 138.299 42.8731C138.299 42.9359 138.314 43.0586 138.419 43.1642C139.248 43.9916 139.248 45.3383 138.419 46.1658L136.278 48.3029C136.118 48.4626 136.118 48.7223 136.278 48.8849C136.384 48.9905 136.504 49.0048 136.57 49.0048C136.633 49.0048 136.756 48.9905 136.861 48.8849L139.003 46.7478C139.403 46.3455 139.937 46.1258 140.506 46.1258C141.075 46.1258 141.61 46.3455 142.01 46.7478C142.17 46.9076 142.43 46.9076 142.593 46.7478L144.6 44.7449L140.426 40.5791Z" fill="#6D6E70"/>
<path d="M164.794 30.8751C165.157 30.5128 165.478 30.1219 165.749 29.7081L166.553 29.9221C166.844 29.9992 167.141 29.828 167.222 29.5369L168.145 26.1016C168.222 25.8106 168.051 25.5139 167.759 25.434L166.959 25.22C166.904 24.2213 166.647 23.2284 166.187 22.3125L166.764 21.7362C166.979 21.5222 166.979 21.1798 166.764 20.9658L164.246 18.4521C164.031 18.2381 163.688 18.2381 163.474 18.4521L162.905 19.0199C161.984 18.5519 160.984 18.2894 159.977 18.2324L159.772 17.462C159.694 17.1709 159.394 16.9998 159.103 17.0768L155.661 17.9984C155.369 18.0754 155.197 18.375 155.275 18.6661L155.48 19.4307C155.06 19.7046 154.663 20.0271 154.294 20.3951C153.925 20.7632 153.602 21.1598 153.328 21.5792L152.562 21.3738C152.27 21.2968 151.973 21.4679 151.893 21.759L150.969 25.1943C150.892 25.4853 151.064 25.7821 151.355 25.862L152.127 26.0674C152.184 27.0746 152.45 28.0704 152.916 28.9891L152.347 29.5569C152.133 29.7709 152.133 30.1133 152.347 30.3273L154.866 32.841C155.08 33.055 155.423 33.055 155.638 32.841L156.215 32.2646C157.133 32.724 158.125 32.9808 159.128 33.035L159.343 33.8339C159.42 34.125 159.72 34.2962 160.012 34.2191L163.454 33.2975C163.745 33.2205 163.917 32.9209 163.84 32.6299L163.625 31.8281C164.04 31.557 164.431 31.2375 164.794 30.8751Z" fill="white"/>
<path d="M159.875 35.0923C159.254 35.0923 158.685 34.6786 158.519 34.0537L158.459 33.8312C157.753 33.7399 157.064 33.5573 156.407 33.2891L156.25 33.4488C155.984 33.7142 155.632 33.8597 155.258 33.8597C154.883 33.8597 154.531 33.7142 154.266 33.4488L151.747 30.9351C151.481 30.6698 151.335 30.3188 151.335 29.945C151.335 29.5713 151.481 29.2203 151.747 28.955L151.893 28.8066C151.618 28.1446 151.43 27.4542 151.335 26.7408L151.138 26.6866C150.775 26.5896 150.472 26.3585 150.286 26.0332C150.097 25.7108 150.049 25.3313 150.146 24.9718L151.069 21.5365C151.167 21.1742 151.398 20.8746 151.724 20.6863C152.047 20.4979 152.427 20.4494 152.788 20.5464L152.976 20.5978C153.196 20.3125 153.434 20.0414 153.688 19.7875C153.943 19.5335 154.214 19.2967 154.497 19.077L154.446 18.8887C154.246 18.144 154.692 17.3736 155.438 17.1739L158.88 16.2523C159.626 16.0526 160.398 16.4948 160.598 17.2424L160.652 17.4393C161.367 17.5334 162.059 17.7189 162.722 17.9956L162.868 17.8473C163.134 17.5819 163.485 17.4364 163.86 17.4364C164.234 17.4364 164.586 17.5819 164.852 17.8473L167.37 20.361C167.916 20.906 167.916 21.7962 167.37 22.3411L167.21 22.5009C167.479 23.1572 167.662 23.8419 167.753 24.5496L167.976 24.6095C168.339 24.7065 168.642 24.9376 168.828 25.2629C169.017 25.5881 169.066 25.9648 168.968 26.3271L168.048 29.7624C167.848 30.5071 167.079 30.9522 166.33 30.7525L166.098 30.6897C165.884 30.9694 165.649 31.2319 165.398 31.4829C165.149 31.7312 164.883 31.9651 164.603 32.182L164.666 32.4131C164.866 33.1578 164.42 33.9282 163.674 34.1279L160.232 35.0495C160.115 35.0752 159.995 35.0923 159.875 35.0923ZM156.221 31.4088C156.353 31.4088 156.484 31.4373 156.604 31.5001C157.41 31.9024 158.276 32.1306 159.18 32.182C159.549 32.202 159.866 32.4588 159.96 32.8154L160.095 33.3119L162.933 32.5529L162.799 32.0507C162.702 31.6941 162.848 31.3175 163.156 31.1149C163.525 30.8724 163.874 30.587 164.191 30.2732C164.509 29.9593 164.792 29.6112 165.035 29.2403C165.238 28.9321 165.615 28.7895 165.972 28.8836L166.475 29.0177L167.236 26.1845L166.738 26.0504C166.381 25.9534 166.124 25.6395 166.104 25.2714C166.055 24.3698 165.824 23.5053 165.421 22.7006C165.255 22.3697 165.321 21.9731 165.581 21.7134L165.938 21.3568L163.86 19.2825L163.511 19.6305C163.248 19.893 162.848 19.9558 162.516 19.7875C161.707 19.3795 160.838 19.1426 159.926 19.0913C159.557 19.0685 159.243 18.8145 159.148 18.4579L159.023 17.9871L156.184 18.746L156.307 19.2083C156.404 19.5649 156.258 19.9444 155.949 20.147C155.572 20.3924 155.22 20.6805 154.9 21.0001C154.58 21.3197 154.291 21.6735 154.045 22.0473C153.842 22.3554 153.462 22.5009 153.105 22.4039L152.642 22.2812L151.881 25.1145L152.353 25.24C152.71 25.3342 152.965 25.6481 152.988 26.0161C153.039 26.9235 153.274 27.7937 153.685 28.6012C153.854 28.9321 153.788 29.3316 153.528 29.5941L153.179 29.9422L155.258 32.0165L155.615 31.6599C155.778 31.4944 155.998 31.4088 156.221 31.4088ZM163.013 32.8497H163.016H163.013Z" fill="#6D6E70"/>
<path d="M159.557 30.2389C162.098 30.2389 164.157 28.1835 164.157 25.648C164.157 23.1125 162.098 21.0571 159.557 21.0571C157.017 21.0571 154.958 23.1125 154.958 25.648C154.958 28.1835 157.017 30.2389 159.557 30.2389Z" fill="#F5D953"/>
<path d="M159.557 31.0949C158.099 31.0949 156.73 30.5271 155.698 29.4999C154.666 28.4727 154.1 27.1032 154.1 25.648C154.1 24.1929 154.669 22.8262 155.698 21.7961C156.727 20.7661 158.099 20.2012 159.557 20.2012C161.015 20.2012 162.385 20.769 163.417 21.7961C164.449 22.8262 165.015 24.1929 165.015 25.648C165.015 27.1032 164.446 28.4699 163.417 29.4999C162.385 30.5271 161.015 31.0949 159.557 31.0949ZM159.557 21.9131C158.557 21.9131 157.619 22.3012 156.913 23.0059C156.207 23.7107 155.818 24.6494 155.818 25.6452C155.818 26.6438 156.207 27.5797 156.913 28.2844C157.619 28.9892 158.56 29.3772 159.557 29.3772C160.558 29.3772 161.496 28.9892 162.202 28.2844C162.908 27.5797 163.297 26.641 163.297 25.6452C163.297 24.6465 162.908 23.7107 162.202 23.0059C161.496 22.3012 160.558 21.9131 159.557 21.9131Z" fill="#6D6E70"/>
<path d="M135.932 55.4557C135.712 55.4557 135.492 55.373 135.326 55.2046C134.992 54.8708 134.992 54.3287 135.326 53.9948L140.409 48.9218C140.744 48.5879 141.287 48.5879 141.621 48.9218C141.956 49.2556 141.956 49.7977 141.621 50.1315L136.538 55.2046C136.373 55.373 136.152 55.4557 135.932 55.4557Z" fill="#6D6E70"/>
<path d="M139.683 59.1992C139.563 59.1992 139.437 59.1735 139.32 59.1193C138.891 58.9196 138.705 58.4117 138.906 57.9808L142.136 51.0617C142.336 50.6337 142.845 50.4483 143.277 50.648C143.705 50.8477 143.891 51.3556 143.691 51.7864L140.461 58.7056C140.315 59.0166 140.006 59.1992 139.683 59.1992Z" fill="#6D6E70"/>
<path d="M130.549 50.0832C130.329 50.0832 130.109 50.0004 129.943 49.8321C129.609 49.4982 129.609 48.9561 129.943 48.6223L135.026 43.5492C135.361 43.2154 135.904 43.2154 136.238 43.5492C136.573 43.883 136.573 44.4251 136.238 44.759L131.155 49.8321C130.987 49.9976 130.769 50.0832 130.549 50.0832Z" fill="#6D6E70"/>
<path d="M126.798 46.3397C126.475 46.3397 126.167 46.1571 126.021 45.8461C125.821 45.4181 126.007 44.9073 126.435 44.7076L133.368 41.4834C133.797 41.2837 134.308 41.4692 134.509 41.8972C134.709 42.3251 134.523 42.8359 134.094 43.0356L127.162 46.2598C127.044 46.314 126.921 46.3397 126.798 46.3397Z" fill="#6D6E70"/>
<path d="M39.0338 63.3022C39.0338 71.9533 46.0607 78.9666 54.7285 78.9666V63.3022H39.0338Z" fill="#DE512B"/>
<path d="M54.7285 79.8226C45.6033 79.8226 38.1762 72.4127 38.1762 63.3023C38.1762 62.8286 38.5593 62.4463 39.0338 62.4463H54.7285C55.2031 62.4463 55.5862 62.8286 55.5862 63.3023V78.9666C55.5862 79.4374 55.2031 79.8226 54.7285 79.8226ZM39.9172 64.1582C40.346 71.6423 46.3723 77.657 53.8709 78.085V64.1582H39.9172Z" fill="#6D6E70"/>
<path d="M54.7285 47.6379C46.0607 47.6379 39.0338 54.6512 39.0338 63.3023H54.7285V47.6379Z" fill="#D5E7F9"/>
<path d="M54.7285 64.1583H39.0338C38.5593 64.1583 38.1762 63.776 38.1762 63.3023C38.1762 54.1947 45.6004 46.782 54.7285 46.782C55.2031 46.782 55.5862 47.1643 55.5862 47.638V63.3023C55.5862 63.7731 55.2031 64.1583 54.7285 64.1583ZM39.9172 62.4463H53.8709V48.5196C46.3723 48.9476 40.346 54.9594 39.9172 62.4463Z" fill="#6D6E70"/>
<path d="M54.7286 78.9666C63.3964 78.9666 70.4233 71.9533 70.4233 63.3022H54.7286V78.9666Z" fill="white"/>
<path d="M54.7286 79.8226C54.254 79.8226 53.871 79.4402 53.871 78.9666V63.3023C53.871 62.8286 54.254 62.4463 54.7286 62.4463H70.4233C70.8979 62.4463 71.281 62.8286 71.281 63.3023C71.281 72.4098 63.8567 79.8226 54.7286 79.8226ZM55.5862 64.1582V78.085C63.0848 77.657 69.1111 71.6423 69.54 64.1582H55.5862Z" fill="#6D6E70"/>
<path d="M59.1654 43.2097V58.8741H74.8601C74.8601 50.2202 67.8333 43.2097 59.1654 43.2097Z" fill="#F5D953"/>
<path d="M74.8602 59.7271H59.1655C58.6909 59.7271 58.3078 59.3448 58.3078 58.8712V43.2068C58.3078 42.7332 58.6909 42.3508 59.1655 42.3508C68.2907 42.3508 75.7178 49.7607 75.7178 58.8712C75.7178 59.3448 75.3347 59.7271 74.8602 59.7271ZM60.0231 58.0152H73.9768C73.548 50.5311 67.5217 44.5165 60.0231 44.0885V58.0152Z" fill="#6D6E70"/>
<path d="M51.6581 149.131H34.5226L43.0903 135.989L51.6581 122.849L60.2259 135.989L68.7937 149.131H57.5472" fill="#F5D953"/>
<path d="M68.7936 149.987H57.5471C57.0726 149.987 56.6895 149.604 56.6895 149.131C56.6895 148.657 57.0726 148.275 57.5471 148.275H67.2127L51.658 124.419L36.1034 148.275H51.658C52.1326 148.275 52.5157 148.657 52.5157 149.131C52.5157 149.604 52.1326 149.987 51.658 149.987H34.5225C34.208 149.987 33.9193 149.815 33.7677 149.539C33.6191 149.262 33.6305 148.928 33.802 148.663L50.9376 122.381C51.0948 122.139 51.3664 121.993 51.6552 121.993C51.9439 121.993 52.2155 122.139 52.3727 122.381L69.5083 148.663C69.6798 148.925 69.6941 149.262 69.5426 149.539C69.3968 149.815 69.108 149.987 68.7936 149.987Z" fill="#6D6E70"/>
<path d="M17.5016 132.599L6.72393 149.131H28.282H37.433L28.282 116.064L20.812 127.52" fill="#D5E7F9"/>
<path d="M37.4329 149.987H6.72379C6.40932 149.987 6.12058 149.816 5.96907 149.539C5.82041 149.262 5.83185 148.928 6.00337 148.663L16.7839 132.128C17.0411 131.732 17.5729 131.62 17.9703 131.877C18.3676 132.134 18.4791 132.665 18.2218 133.061L8.3047 148.272H36.3065L27.9617 118.125L21.5323 127.985C21.275 128.382 20.7433 128.493 20.3459 128.236C19.9485 127.98 19.837 127.449 20.0943 127.052L27.5615 115.597C27.7444 115.314 28.0789 115.166 28.4105 115.217C28.745 115.268 29.0166 115.511 29.1052 115.836L38.2562 148.903C38.3277 149.159 38.2733 149.436 38.1133 149.65C37.9532 149.861 37.7016 149.987 37.4329 149.987Z" fill="#6D6E70"/>
<path d="M39.0621 132.599L28.2817 116.064L37.4326 149.131H49.8398L39.0621 132.599Z" fill="white"/>
<path d="M49.8399 149.987H37.4327C37.0468 149.987 36.7095 149.73 36.6065 149.359L27.4556 116.293C27.3441 115.885 27.5442 115.457 27.9301 115.286C28.3161 115.112 28.7706 115.246 29.0022 115.599L39.7827 132.131L50.5631 148.666C50.7347 148.928 50.7489 149.265 50.5974 149.542C50.4431 149.816 50.1543 149.987 49.8399 149.987ZM38.0845 148.275H48.2589L30.5831 121.163L38.0845 148.275Z" fill="#6D6E70"/>
<path d="M28.2819 116.92C27.8073 116.92 27.4242 116.538 27.4242 116.064V102.648C27.4242 102.175 27.8073 101.792 28.2819 101.792C28.7564 101.792 29.1395 102.175 29.1395 102.648V116.064C29.1395 116.538 28.7564 116.92 28.2819 116.92Z" fill="#6D6E70"/>
<path d="M31.9126 104.226H40.5776L37.0498 107.947L40.5776 111.665H28.2819V104.226" fill="#DE512B"/>
<path d="M40.5775 112.521H28.2819C27.8073 112.521 27.4242 112.138 27.4242 111.665V104.226C27.4242 103.753 27.8073 103.37 28.2819 103.37C28.7564 103.37 29.1395 103.753 29.1395 104.226V110.809H38.5849L36.4265 108.535C36.1121 108.204 36.1121 107.687 36.4265 107.356L38.5849 105.082H31.9125C31.438 105.082 31.0549 104.7 31.0549 104.226C31.0549 103.753 31.438 103.37 31.9125 103.37H40.5803C40.9234 103.37 41.2322 103.573 41.3694 103.887C41.5037 104.201 41.4408 104.566 41.2036 104.814L38.2333 107.944L41.2036 111.074C41.438 111.322 41.5037 111.688 41.3694 112.001C41.2293 112.318 40.9205 112.521 40.5775 112.521Z" fill="#6D6E70"/>
<path d="M126.798 27.9903C126.524 27.9903 126.304 27.7706 126.304 27.4967V21.7988C126.304 21.5249 126.524 21.3052 126.798 21.3052C127.073 21.3052 127.293 21.5249 127.293 21.7988V27.4967C127.293 27.7706 127.073 27.9903 126.798 27.9903Z" fill="#6D6E70"/>
<path d="M126.799 28.1331C126.447 28.1331 126.161 27.8478 126.161 27.4968V21.7989C126.161 21.4479 126.447 21.1626 126.799 21.1626C127.15 21.1626 127.436 21.4479 127.436 21.7989V27.4968C127.436 27.8478 127.15 28.1331 126.799 28.1331ZM126.799 21.4479C126.604 21.4479 126.447 21.6049 126.447 21.7989V27.4968C126.447 27.6908 126.604 27.8478 126.799 27.8478C126.993 27.8478 127.15 27.6908 127.15 27.4968V21.7989C127.15 21.6049 126.993 21.4479 126.799 21.4479Z" fill="#6D6E70"/>
<path d="M130.149 24.6491C130.149 24.923 129.929 25.1427 129.654 25.1427H123.945C123.671 25.1427 123.451 24.923 123.451 24.6491C123.451 24.3752 123.671 24.1555 123.945 24.1555H129.654C129.926 24.1555 130.149 24.3752 130.149 24.6491Z" fill="#6D6E70"/>
<path d="M129.654 25.2855H123.945C123.594 25.2855 123.308 25.0002 123.308 24.6492C123.308 24.2983 123.594 24.0129 123.945 24.0129H129.654C130.006 24.0129 130.292 24.2983 130.292 24.6492C130.292 25.0002 130.006 25.2855 129.654 25.2855ZM123.945 24.2983C123.751 24.2983 123.594 24.4552 123.594 24.6492C123.594 24.8432 123.751 25.0002 123.945 25.0002H129.654C129.849 25.0002 130.006 24.8432 130.006 24.6492C130.006 24.4552 129.849 24.2983 129.654 24.2983H123.945Z" fill="#6D6E70"/>
<path d="M8.62769 84.2307C8.62769 83.9568 8.84782 83.7371 9.12226 83.7371H13.4276C13.702 83.7371 13.9222 83.9568 13.9222 84.2307C13.9222 84.5046 13.702 84.7243 13.4276 84.7243H9.12226C8.85068 84.7243 8.62769 84.5046 8.62769 84.2307Z" fill="#6D6E70"/>
<path d="M13.4305 84.867H9.12228C8.77065 84.867 8.48477 84.5817 8.48477 84.2308C8.48477 83.8798 8.77065 83.5945 9.12228 83.5945H13.4276C13.7792 83.5945 14.0651 83.8798 14.0651 84.2308C14.068 84.5817 13.7821 84.867 13.4305 84.867ZM9.12228 83.8798C8.92788 83.8798 8.77065 84.0367 8.77065 84.2308C8.77065 84.4248 8.92788 84.5817 9.12228 84.5817H13.4276C13.622 84.5817 13.7792 84.4248 13.7792 84.2308C13.7792 84.0367 13.622 83.8798 13.4276 83.8798H9.12228Z" fill="#6D6E70"/>
<path d="M8.62766 86.5959C8.62766 86.322 8.84779 86.1023 9.12223 86.1023H13.4276C13.702 86.1023 13.9221 86.322 13.9221 86.5959C13.9221 86.8698 13.702 87.0895 13.4276 87.0895H9.12223C8.85065 87.0895 8.62766 86.8698 8.62766 86.5959Z" fill="#6D6E70"/>
<path d="M13.4304 87.2323H9.12225C8.77062 87.2323 8.48474 86.9469 8.48474 86.596C8.48474 86.245 8.77062 85.9597 9.12225 85.9597H13.4276C13.7792 85.9597 14.0651 86.245 14.0651 86.596C14.0651 86.9469 13.7821 87.2323 13.4304 87.2323ZM9.12225 86.245C8.92785 86.245 8.77062 86.402 8.77062 86.596C8.77062 86.79 8.92785 86.9469 9.12225 86.9469H13.4276C13.622 86.9469 13.7792 86.79 13.7792 86.596C13.7792 86.402 13.622 86.245 13.4276 86.245H9.12225Z" fill="#6D6E70"/>
<path d="M28.2761 109.622H28.2218C28.0646 109.622 27.9359 109.493 27.9359 109.337C27.9359 109.18 28.0646 109.051 28.2218 109.051H28.2761C28.4334 109.051 28.562 109.18 28.562 109.337C28.562 109.493 28.4334 109.622 28.2761 109.622ZM27.0783 109.622H26.7924C26.6352 109.622 26.5065 109.493 26.5065 109.337C26.5065 109.18 26.6352 109.051 26.7924 109.051H27.0783C27.2355 109.051 27.3642 109.18 27.3642 109.337C27.3642 109.493 27.2355 109.622 27.0783 109.622ZM25.6489 109.622H25.363C25.2058 109.622 25.0772 109.493 25.0772 109.337C25.0772 109.18 25.2058 109.051 25.363 109.051H25.6489C25.8061 109.051 25.9348 109.18 25.9348 109.337C25.9348 109.493 25.8061 109.622 25.6489 109.622ZM24.2195 109.622H23.9336C23.7764 109.622 23.6478 109.493 23.6478 109.337C23.6478 109.18 23.7764 109.051 23.9336 109.051H24.2195C24.3768 109.051 24.5054 109.18 24.5054 109.337C24.5054 109.493 24.3768 109.622 24.2195 109.622ZM22.7901 109.622H22.5042C22.347 109.622 22.2184 109.493 22.2184 109.337C22.2184 109.18 22.347 109.051 22.5042 109.051H22.7901C22.9474 109.051 23.076 109.18 23.076 109.337C23.076 109.493 22.9474 109.622 22.7901 109.622ZM21.3607 109.622H21.0749C20.9176 109.622 20.789 109.493 20.789 109.337C20.789 109.18 20.9176 109.051 21.0749 109.051H21.3607C21.518 109.051 21.6466 109.18 21.6466 109.337C21.6466 109.493 21.518 109.622 21.3607 109.622ZM19.9313 109.622H19.6455C19.4882 109.622 19.3596 109.493 19.3596 109.337C19.3596 109.18 19.4882 109.051 19.6455 109.051H19.9313C20.0886 109.051 20.2172 109.18 20.2172 109.337C20.2172 109.493 20.0886 109.622 19.9313 109.622ZM18.5019 109.613C18.4962 109.613 18.4934 109.613 18.4877 109.613C18.3876 109.608 18.2904 109.602 18.1903 109.593C18.0331 109.579 17.9159 109.442 17.9302 109.285C17.9445 109.128 18.076 109.008 18.2389 109.026C18.3304 109.034 18.4219 109.04 18.5134 109.043C18.6706 109.048 18.7935 109.182 18.785 109.339C18.7792 109.496 18.6535 109.613 18.5019 109.613ZM17.0868 109.416C17.064 109.416 17.044 109.414 17.0211 109.408C16.9239 109.385 16.8296 109.359 16.7324 109.334C16.5808 109.291 16.4922 109.134 16.5351 108.983C16.578 108.831 16.7352 108.743 16.8867 108.786C16.9754 108.812 17.064 108.834 17.1526 108.854C17.307 108.891 17.4013 109.045 17.3642 109.197C17.3356 109.328 17.2184 109.416 17.0868 109.416ZM15.7375 108.957C15.6975 108.957 15.6575 108.948 15.6203 108.931C15.5317 108.891 15.4402 108.849 15.3544 108.806C15.2143 108.734 15.1543 108.563 15.2258 108.423C15.2972 108.281 15.4659 108.224 15.6089 108.295C15.6918 108.335 15.7747 108.375 15.8576 108.412C16.0005 108.478 16.0663 108.646 16.0005 108.789C15.9491 108.894 15.8461 108.957 15.7375 108.957ZM14.4996 108.252C14.4425 108.252 14.3853 108.235 14.3367 108.201C14.2567 108.144 14.1766 108.087 14.0966 108.027C13.9708 107.933 13.9479 107.753 14.0422 107.627C14.1366 107.502 14.3167 107.476 14.4425 107.573C14.5139 107.627 14.5883 107.682 14.6626 107.736C14.7912 107.827 14.8227 108.004 14.7312 108.132C14.6769 108.209 14.5883 108.252 14.4996 108.252ZM13.4133 107.328C13.339 107.328 13.2647 107.299 13.2075 107.242C13.1389 107.171 13.0703 107.1 13.0045 107.025C12.8987 106.908 12.9073 106.729 13.0245 106.623C13.1417 106.518 13.3218 106.526 13.4276 106.643C13.4905 106.712 13.5505 106.777 13.6163 106.843C13.7249 106.957 13.7249 107.137 13.6106 107.245C13.5563 107.299 13.4848 107.328 13.4133 107.328ZM12.5214 106.218C12.4299 106.218 12.3384 106.172 12.2812 106.09C12.2269 106.007 12.1726 105.924 12.1211 105.838C12.0382 105.704 12.084 105.527 12.2183 105.448C12.3527 105.365 12.5299 105.41 12.61 105.545C12.6586 105.622 12.7072 105.701 12.7558 105.776C12.8416 105.907 12.8072 106.084 12.6757 106.172C12.63 106.201 12.5757 106.218 12.5214 106.218ZM11.8524 104.957C11.7409 104.957 11.6351 104.891 11.5894 104.78C11.5522 104.689 11.5151 104.597 11.4808 104.503C11.4265 104.355 11.5008 104.192 11.6494 104.135C11.7981 104.081 11.961 104.155 12.0182 104.303C12.0497 104.389 12.084 104.475 12.1183 104.56C12.1783 104.706 12.1097 104.874 11.9639 104.934C11.9239 104.951 11.8867 104.957 11.8524 104.957ZM11.4322 103.596C11.3007 103.596 11.1806 103.502 11.152 103.368C11.132 103.271 11.1148 103.174 11.0977 103.076C11.072 102.922 11.1777 102.774 11.3321 102.748C11.4865 102.723 11.6351 102.828 11.6609 102.982C11.6752 103.074 11.6923 103.162 11.7123 103.253C11.7438 103.407 11.6437 103.559 11.4893 103.59C11.4693 103.593 11.4522 103.596 11.4322 103.596ZM11.2778 102.181C11.1206 102.181 10.9948 102.055 10.9919 101.898V101.61C10.9919 101.453 11.1206 101.325 11.2778 101.325C11.435 101.325 11.5637 101.453 11.5637 101.61V101.892C11.5665 102.049 11.4407 102.181 11.2807 102.181H11.2778ZM11.2778 100.754C11.1206 100.754 10.9919 100.626 10.9919 100.469V100.183C10.9919 100.026 11.1206 99.898 11.2778 99.898C11.435 99.898 11.5637 100.026 11.5637 100.183V100.469C11.5637 100.626 11.435 100.754 11.2778 100.754ZM11.2778 99.3273C11.1206 99.3273 10.9919 99.1989 10.9919 99.042V98.7567C10.9919 98.5997 11.1206 98.4713 11.2778 98.4713C11.435 98.4713 11.5637 98.5997 11.5637 98.7567V99.042C11.5637 99.1989 11.435 99.3273 11.2778 99.3273ZM11.2778 97.9007C11.1206 97.9007 10.9919 97.7723 10.9919 97.6154V97.33C10.9919 97.1731 11.1206 97.0447 11.2778 97.0447C11.435 97.0447 11.5637 97.1731 11.5637 97.33V97.6154C11.5637 97.7723 11.435 97.9007 11.2778 97.9007ZM11.2778 96.4741C11.1206 96.4741 10.9919 96.3457 10.9919 96.1887V95.9034C10.9919 95.7465 11.1206 95.6181 11.2778 95.6181C11.435 95.6181 11.5637 95.7465 11.5637 95.9034V96.1887C11.5637 96.3457 11.435 96.4741 11.2778 96.4741ZM11.2778 95.0474C11.1206 95.0474 10.9919 94.919 10.9919 94.7621V94.4768C10.9919 94.3199 11.1206 94.1915 11.2778 94.1915C11.435 94.1915 11.5637 94.3199 11.5637 94.4768V94.7621C11.5637 94.919 11.435 95.0474 11.2778 95.0474ZM11.2778 93.6208C11.1206 93.6208 10.9919 93.4924 10.9919 93.3355V93.0502C10.9919 92.8932 11.1206 92.7648 11.2778 92.7648C11.435 92.7648 11.5637 92.8932 11.5637 93.0502V93.3355C11.5637 93.4924 11.435 93.6208 11.2778 93.6208ZM11.2778 92.1942C11.1206 92.1942 10.9919 92.0658 10.9919 91.9089V91.6235C10.9919 91.4666 11.1206 91.3382 11.2778 91.3382C11.435 91.3382 11.5637 91.4666 11.5637 91.6235V91.9089C11.5637 92.0658 11.435 92.1942 11.2778 92.1942ZM11.2778 90.7676C11.1206 90.7676 10.9919 90.6392 10.9919 90.4822V90.1969C10.9919 90.04 11.1206 89.9116 11.2778 89.9116C11.435 89.9116 11.5637 90.04 11.5637 90.1969V90.4822C11.5637 90.6392 11.435 90.7676 11.2778 90.7676ZM11.2778 89.3409C11.1206 89.3409 10.9919 89.2125 10.9919 89.0556V88.7703C10.9919 88.6134 11.1206 88.485 11.2778 88.485C11.435 88.485 11.5637 88.6134 11.5637 88.7703V89.0556C11.5637 89.2125 11.435 89.3409 11.2778 89.3409ZM11.2778 87.9143C11.1206 87.9143 10.9919 87.7859 10.9919 87.629V87.3437C10.9919 87.1867 11.1206 87.0583 11.2778 87.0583C11.435 87.0583 11.5637 87.1867 11.5637 87.3437V87.629C11.5637 87.7859 11.435 87.9143 11.2778 87.9143ZM11.2778 86.4877C11.1206 86.4877 10.9919 86.3593 10.9919 86.2024V85.917C10.9919 85.7601 11.1206 85.6317 11.2778 85.6317C11.435 85.6317 11.5637 85.7601 11.5637 85.917V86.2024C11.5637 86.3593 11.435 86.4877 11.2778 86.4877ZM11.2778 85.0611C11.1206 85.0611 10.9919 84.9327 10.9919 84.7757V84.4904C10.9919 84.3335 11.1206 84.2051 11.2778 84.2051C11.435 84.2051 11.5637 84.3335 11.5637 84.4904V84.7757C11.5637 84.9327 11.435 85.0611 11.2778 85.0611ZM11.2778 83.6344C11.1206 83.6344 10.9919 83.506 10.9919 83.3491V83.0638C10.9919 82.9069 11.1206 82.7785 11.2778 82.7785C11.435 82.7785 11.5637 82.9069 11.5637 83.0638V83.3491C11.5637 83.506 11.435 83.6344 11.2778 83.6344ZM11.2778 82.2078C11.1206 82.2078 10.9919 82.0794 10.9919 81.9225V81.6372C10.9919 81.4802 11.1206 81.3518 11.2778 81.3518C11.435 81.3518 11.5637 81.4802 11.5637 81.6372V81.9225C11.5637 82.0794 11.435 82.2078 11.2778 82.2078ZM11.2778 80.7812C11.1206 80.7812 10.9919 80.6528 10.9919 80.4959V80.2105C10.9919 80.0536 11.1206 79.9252 11.2778 79.9252C11.435 79.9252 11.5637 80.0536 11.5637 80.2105V80.4959C11.5637 80.6528 11.435 80.7812 11.2778 80.7812ZM11.2778 79.3546C11.1206 79.3546 10.9919 79.2262 10.9919 79.0692V78.7839C10.9919 78.627 11.1206 78.4986 11.2778 78.4986C11.435 78.4986 11.5637 78.627 11.5637 78.7839V79.0692C11.5637 79.2262 11.435 79.3546 11.2778 79.3546ZM11.2778 77.9279C11.1206 77.9279 10.9919 77.7995 10.9919 77.6426V77.3573C10.9919 77.2004 11.1206 77.072 11.2778 77.072C11.435 77.072 11.5637 77.2004 11.5637 77.3573V77.6426C11.5637 77.7995 11.435 77.9279 11.2778 77.9279ZM11.2778 76.5013C11.1206 76.5013 10.9919 76.3729 10.9919 76.216V75.9307C10.9919 75.7737 11.1206 75.6453 11.2778 75.6453C11.435 75.6453 11.5637 75.7737 11.5637 75.9307V76.216C11.5637 76.3729 11.435 76.5013 11.2778 76.5013ZM11.2778 75.0747C11.1206 75.0747 10.9919 74.9463 10.9919 74.7894V74.504C10.9919 74.3471 11.1206 74.2187 11.2778 74.2187C11.435 74.2187 11.5637 74.3471 11.5637 74.504V74.7894C11.5637 74.9463 11.435 75.0747 11.2778 75.0747ZM11.2778 73.6481C11.1206 73.6481 10.9919 73.5197 10.9919 73.3627V73.0774C10.9919 72.9205 11.1206 72.7921 11.2778 72.7921C11.435 72.7921 11.5637 72.9205 11.5637 73.0774V73.3627C11.5637 73.5197 11.435 73.6481 11.2778 73.6481ZM11.2778 72.2214C11.1206 72.2214 10.9919 72.093 10.9919 71.9361V71.6508C10.9919 71.4939 11.1206 71.3655 11.2778 71.3655C11.435 71.3655 11.5637 71.4939 11.5637 71.6508V71.9361C11.5637 72.093 11.435 72.2214 11.2778 72.2214ZM11.2864 70.7948C11.2807 70.7948 11.2778 70.7948 11.2721 70.7948C11.1148 70.7862 10.9919 70.655 11.0005 70.4952C11.0062 70.3954 11.0119 70.2983 11.0205 70.2013C11.0348 70.0444 11.1663 69.9274 11.3293 69.9417C11.4865 69.956 11.6037 70.0929 11.5894 70.2498C11.5808 70.3411 11.5751 70.4324 11.5723 70.5237C11.5637 70.675 11.4379 70.7948 11.2864 70.7948ZM11.4836 69.3824C11.4608 69.3824 11.4379 69.3796 11.4179 69.3739C11.2635 69.3368 11.1692 69.1827 11.2063 69.0286C11.2292 68.9316 11.2549 68.8375 11.2807 68.7433C11.3235 68.5921 11.4808 68.5036 11.6323 68.5464C11.7838 68.5892 11.8724 68.7462 11.8295 68.8974C11.8038 68.9858 11.7809 69.0743 11.7609 69.1627C11.7295 69.2968 11.6123 69.3824 11.4836 69.3824ZM11.9439 68.0357C11.9039 68.0357 11.8638 68.0272 11.8267 68.01C11.6837 67.9444 11.618 67.7761 11.6837 67.6334C11.7238 67.545 11.7667 67.4537 11.8095 67.3681C11.881 67.2282 12.0525 67.1683 12.1926 67.2397C12.3327 67.311 12.3927 67.4822 12.3213 67.622C12.2812 67.7047 12.2412 67.7875 12.204 67.8702C12.1583 67.9729 12.0525 68.0357 11.9439 68.0357ZM12.6529 66.8003C12.5957 66.8003 12.5385 66.7831 12.4899 66.7489C12.3613 66.6576 12.3298 66.4807 12.4213 66.3523C12.4785 66.2724 12.5357 66.1925 12.5957 66.1126C12.69 65.9871 12.8701 65.9614 12.9959 66.0584C13.1217 66.1526 13.1446 66.3323 13.0502 66.4579C12.9959 66.5292 12.9416 66.6034 12.8873 66.6776C12.8301 66.7575 12.7415 66.8003 12.6529 66.8003ZM13.5791 65.7189C13.5048 65.7189 13.4305 65.6903 13.3733 65.6333C13.2647 65.5191 13.2647 65.3394 13.379 65.231C13.4505 65.1625 13.5219 65.094 13.5963 65.0284C13.7135 64.9228 13.8936 64.9314 13.9994 65.0484C14.1051 65.1653 14.0966 65.3451 13.9794 65.4507C13.9107 65.5106 13.845 65.5734 13.7792 65.639C13.7221 65.6903 13.6506 65.7189 13.5791 65.7189ZM14.6912 64.8258C14.5968 64.8258 14.5082 64.7802 14.451 64.6974C14.3653 64.5662 14.3996 64.3893 14.534 64.3008C14.6169 64.2466 14.6998 64.1924 14.7855 64.1439C14.9199 64.0611 15.0971 64.1039 15.1772 64.2409C15.2601 64.375 15.2143 64.5519 15.08 64.6318C15.0028 64.6803 14.9227 64.7288 14.8484 64.7773C14.7998 64.8115 14.7455 64.8258 14.6912 64.8258ZM15.9548 64.1581C15.8433 64.1581 15.7346 64.0925 15.6918 63.9812C15.6317 63.8357 15.7003 63.6674 15.8461 63.6075C15.9376 63.5704 16.0291 63.5333 16.1234 63.499C16.2721 63.4448 16.435 63.519 16.4922 63.6674C16.5465 63.8158 16.4722 63.9784 16.3236 64.0355C16.2378 64.0668 16.152 64.1011 16.0663 64.1353C16.0262 64.1524 15.9891 64.1581 15.9548 64.1581ZM17.3184 63.7416C17.184 63.7416 17.0668 63.6474 17.0382 63.5133C17.0068 63.3592 17.1069 63.208 17.2612 63.1766C17.3584 63.1567 17.4556 63.1395 17.5528 63.1224C17.7072 63.0967 17.8559 63.2023 17.8816 63.3564C17.9073 63.5105 17.8015 63.6588 17.6472 63.6845C17.5557 63.6988 17.4671 63.7159 17.3756 63.7359C17.3556 63.7387 17.3384 63.7416 17.3184 63.7416ZM18.7364 63.5875C18.582 63.5875 18.4533 63.462 18.4505 63.3079C18.4476 63.1509 18.5734 63.0197 18.7306 63.0168H19.0222C19.1795 63.0168 19.3081 63.1452 19.3081 63.3022C19.3081 63.4591 19.1795 63.5875 19.0222 63.5875H18.7421C18.7392 63.5875 18.7392 63.5875 18.7364 63.5875ZM39.0337 63.5875H38.7479C38.5906 63.5875 38.462 63.4591 38.462 63.3022C38.462 63.1452 38.5906 63.0168 38.7479 63.0168H39.0337C39.191 63.0168 39.3196 63.1452 39.3196 63.3022C39.3196 63.4591 39.1938 63.5875 39.0337 63.5875ZM37.6043 63.5875H37.3185C37.1612 63.5875 37.0326 63.4591 37.0326 63.3022C37.0326 63.1452 37.1612 63.0168 37.3185 63.0168H37.6043C37.7616 63.0168 37.8902 63.1452 37.8902 63.3022C37.8902 63.4591 37.7644 63.5875 37.6043 63.5875ZM36.175 63.5875H35.8891C35.7318 63.5875 35.6032 63.4591 35.6032 63.3022C35.6032 63.1452 35.7318 63.0168 35.8891 63.0168H36.175C36.3322 63.0168 36.4608 63.1452 36.4608 63.3022C36.4608 63.4591 36.335 63.5875 36.175 63.5875ZM34.7456 63.5875H34.4597C34.3025 63.5875 34.1738 63.4591 34.1738 63.3022C34.1738 63.1452 34.3025 63.0168 34.4597 63.0168H34.7456C34.9028 63.0168 35.0314 63.1452 35.0314 63.3022C35.0314 63.4591 34.9057 63.5875 34.7456 63.5875ZM33.3162 63.5875H33.0303C32.8731 63.5875 32.7444 63.4591 32.7444 63.3022C32.7444 63.1452 32.8731 63.0168 33.0303 63.0168H33.3162C33.4734 63.0168 33.602 63.1452 33.602 63.3022C33.602 63.4591 33.4763 63.5875 33.3162 63.5875ZM31.8868 63.5875H31.6009C31.4437 63.5875 31.315 63.4591 31.315 63.3022C31.315 63.1452 31.4437 63.0168 31.6009 63.0168H31.8868C32.044 63.0168 32.1727 63.1452 32.1727 63.3022C32.1727 63.4591 32.0469 63.5875 31.8868 63.5875ZM30.4574 63.5875H30.1715C30.0143 63.5875 29.8856 63.4591 29.8856 63.3022C29.8856 63.1452 30.0143 63.0168 30.1715 63.0168H30.4574C30.6146 63.0168 30.7433 63.1452 30.7433 63.3022C30.7433 63.4591 30.6175 63.5875 30.4574 63.5875ZM29.028 63.5875H28.7421C28.5849 63.5875 28.4562 63.4591 28.4562 63.3022C28.4562 63.1452 28.5849 63.0168 28.7421 63.0168H29.028C29.1852 63.0168 29.3139 63.1452 29.3139 63.3022C29.3139 63.4591 29.1881 63.5875 29.028 63.5875ZM27.5986 63.5875H27.3127C27.1555 63.5875 27.0268 63.4591 27.0268 63.3022C27.0268 63.1452 27.1555 63.0168 27.3127 63.0168H27.5986C27.7558 63.0168 27.8845 63.1452 27.8845 63.3022C27.8845 63.4591 27.7587 63.5875 27.5986 63.5875ZM26.1692 63.5875H25.8833C25.7261 63.5875 25.5975 63.4591 25.5975 63.3022C25.5975 63.1452 25.7261 63.0168 25.8833 63.0168H26.1692C26.3264 63.0168 26.4551 63.1452 26.4551 63.3022C26.4551 63.4591 26.3293 63.5875 26.1692 63.5875ZM24.7398 63.5875H24.4539C24.2967 63.5875 24.1681 63.4591 24.1681 63.3022C24.1681 63.1452 24.2967 63.0168 24.4539 63.0168H24.7398C24.897 63.0168 25.0257 63.1452 25.0257 63.3022C25.0257 63.4591 24.8999 63.5875 24.7398 63.5875ZM23.3104 63.5875H23.0245C22.8673 63.5875 22.7387 63.4591 22.7387 63.3022C22.7387 63.1452 22.8673 63.0168 23.0245 63.0168H23.3104C23.4677 63.0168 23.5963 63.1452 23.5963 63.3022C23.5963 63.4591 23.4705 63.5875 23.3104 63.5875ZM21.881 63.5875H21.5952C21.4379 63.5875 21.3093 63.4591 21.3093 63.3022C21.3093 63.1452 21.4379 63.0168 21.5952 63.0168H21.881C22.0383 63.0168 22.1669 63.1452 22.1669 63.3022C22.1669 63.4591 22.0411 63.5875 21.881 63.5875ZM20.4516 63.5875H20.1658C20.0085 63.5875 19.8799 63.4591 19.8799 63.3022C19.8799 63.1452 20.0085 63.0168 20.1658 63.0168H20.4516C20.6089 63.0168 20.7375 63.1452 20.7375 63.3022C20.7375 63.4591 20.6117 63.5875 20.4516 63.5875Z" fill="#6D6E70"/>
<path d="M118.285 32.4442H117.999C117.842 32.4442 117.713 32.3158 117.713 32.1589C117.713 32.002 117.842 31.8736 117.999 31.8736H118.285C118.442 31.8736 118.571 32.002 118.571 32.1589C118.571 32.3158 118.442 32.4442 118.285 32.4442ZM116.856 32.4442H116.57C116.413 32.4442 116.284 32.3158 116.284 32.1589C116.284 32.002 116.413 31.8736 116.57 31.8736H116.856C117.013 31.8736 117.142 32.002 117.142 32.1589C117.142 32.3158 117.013 32.4442 116.856 32.4442ZM115.426 32.4442H115.141C114.983 32.4442 114.855 32.3158 114.855 32.1589C114.855 32.002 114.983 31.8736 115.141 31.8736H115.426C115.584 31.8736 115.712 32.002 115.712 32.1589C115.712 32.3158 115.584 32.4442 115.426 32.4442ZM113.997 32.4442H113.711C113.554 32.4442 113.425 32.3158 113.425 32.1589C113.425 32.002 113.554 31.8736 113.711 31.8736H113.997C114.154 31.8736 114.283 32.002 114.283 32.1589C114.283 32.3158 114.154 32.4442 113.997 32.4442ZM112.568 32.4442H112.282C112.125 32.4442 111.996 32.3158 111.996 32.1589C111.996 32.002 112.125 31.8736 112.282 31.8736H112.568C112.725 31.8736 112.854 32.002 112.854 32.1589C112.854 32.3158 112.725 32.4442 112.568 32.4442ZM111.138 32.4442H110.852C110.695 32.4442 110.566 32.3158 110.566 32.1589C110.566 32.002 110.695 31.8736 110.852 31.8736H111.138C111.295 31.8736 111.424 32.002 111.424 32.1589C111.424 32.3158 111.295 32.4442 111.138 32.4442ZM119.429 32.4414C119.274 32.4414 119.149 32.3187 119.143 32.1646C119.137 32.0077 119.263 31.8764 119.42 31.8707C119.512 31.8679 119.606 31.8622 119.695 31.8565C119.852 31.8422 119.989 31.9649 119.998 32.1218C120.009 32.2787 119.889 32.4157 119.732 32.4243C119.635 32.43 119.535 32.4357 119.437 32.4385C119.434 32.4414 119.432 32.4414 119.429 32.4414ZM120.847 32.2787C120.712 32.2787 120.595 32.1846 120.567 32.0505C120.535 31.8964 120.635 31.7452 120.79 31.7138C120.881 31.6967 120.97 31.6767 121.058 31.6539C121.21 31.6196 121.367 31.7109 121.401 31.865C121.438 32.0191 121.341 32.1732 121.19 32.2074C121.095 32.2302 120.998 32.2502 120.901 32.2702C120.884 32.2759 120.867 32.2787 120.847 32.2787ZM122.219 31.8793C122.105 31.8793 121.996 31.8108 121.953 31.6967C121.896 31.5483 121.97 31.3857 122.116 31.3286C122.202 31.2944 122.288 31.2601 122.373 31.2259C122.519 31.166 122.688 31.2316 122.748 31.3771C122.811 31.5226 122.742 31.691 122.596 31.7509C122.505 31.788 122.413 31.8251 122.322 31.8622C122.288 31.8736 122.253 31.8793 122.219 31.8793ZM123.505 31.2573C123.408 31.2573 123.314 31.2088 123.26 31.1175C123.179 30.9834 123.222 30.8065 123.36 30.7266C123.44 30.6781 123.517 30.6324 123.594 30.5811C123.728 30.4955 123.903 30.5354 123.988 30.6667C124.074 30.8008 124.034 30.9748 123.903 31.0604C123.82 31.1146 123.737 31.166 123.651 31.2145C123.605 31.2459 123.554 31.2573 123.505 31.2573ZM124.669 30.4327C124.589 30.4327 124.506 30.3984 124.452 30.3328C124.349 30.213 124.366 30.0332 124.486 29.9305C124.557 29.8706 124.626 29.8107 124.695 29.7479C124.812 29.6423 124.992 29.6509 125.098 29.7679C125.203 29.8849 125.195 30.0646 125.078 30.1702C125.003 30.2358 124.929 30.3014 124.855 30.3642C124.798 30.4099 124.735 30.4327 124.669 30.4327ZM125.678 29.4255C125.612 29.4255 125.547 29.4027 125.492 29.357C125.372 29.2543 125.358 29.0745 125.458 28.9547C125.518 28.8834 125.575 28.8149 125.632 28.7407C125.729 28.618 125.91 28.5952 126.033 28.6951C126.155 28.7921 126.178 28.9718 126.078 29.0945C126.018 29.1716 125.955 29.2486 125.892 29.3228C125.841 29.3913 125.758 29.4255 125.678 29.4255ZM126.507 28.2671C126.458 28.2671 126.407 28.2528 126.361 28.2271C126.227 28.1472 126.181 27.9703 126.261 27.8362C126.307 27.7563 126.353 27.6793 126.398 27.5966C126.476 27.4596 126.647 27.4082 126.787 27.4853C126.924 27.5623 126.976 27.7335 126.899 27.8733C126.85 27.9589 126.802 28.0445 126.753 28.1301C126.699 28.2186 126.604 28.2671 126.507 28.2671ZM127.133 26.9888C127.099 26.9888 127.065 26.9831 127.03 26.9688C126.882 26.9118 126.81 26.7463 126.867 26.6008C126.902 26.5152 126.933 26.4296 126.962 26.3411C127.013 26.1928 127.176 26.1129 127.325 26.1671C127.473 26.2184 127.553 26.3811 127.499 26.5294C127.468 26.6236 127.433 26.7149 127.396 26.8062C127.353 26.9175 127.248 26.9888 127.133 26.9888ZM127.533 25.6221C127.513 25.6221 127.496 25.6193 127.476 25.6164C127.322 25.585 127.222 25.4338 127.253 25.2797C127.27 25.1913 127.288 25.1 127.305 25.0087C127.33 24.8546 127.479 24.7462 127.633 24.7747C127.788 24.8004 127.894 24.9487 127.868 25.1028C127.851 25.1998 127.834 25.2968 127.814 25.3938C127.785 25.528 127.668 25.6221 127.533 25.6221ZM127.702 24.2069C127.699 24.2069 127.696 24.2069 127.693 24.2069C127.536 24.2012 127.413 24.0699 127.416 23.913C127.419 23.8217 127.422 23.7304 127.422 23.6362C127.422 23.4793 127.548 23.3481 127.708 23.3509C127.865 23.3509 127.994 23.4793 127.994 23.6362C127.994 23.7333 127.991 23.8331 127.988 23.9301C127.982 24.0842 127.854 24.2069 127.702 24.2069ZM127.779 22.7831C127.768 22.7831 127.754 22.7831 127.742 22.7803C127.585 22.7603 127.476 22.6176 127.496 22.4607C127.508 22.3637 127.525 22.2667 127.539 22.1697C127.565 22.0156 127.711 21.9072 127.868 21.9357C128.022 21.9614 128.128 22.1098 128.102 22.2638C128.088 22.3551 128.074 22.4436 128.062 22.5349C128.045 22.6776 127.922 22.7831 127.779 22.7831ZM128.082 21.3907C128.054 21.3907 128.025 21.3879 127.999 21.3793C127.848 21.3337 127.765 21.1739 127.811 21.0227C127.839 20.9285 127.871 20.8344 127.902 20.743C127.954 20.5947 128.117 20.5148 128.265 20.5661C128.414 20.6175 128.494 20.7801 128.442 20.9285C128.411 21.017 128.382 21.1026 128.357 21.191C128.32 21.3137 128.205 21.3907 128.082 21.3907ZM128.617 20.0697C128.574 20.0697 128.531 20.0611 128.488 20.0383C128.348 19.967 128.291 19.7958 128.362 19.656C128.408 19.5675 128.454 19.4819 128.5 19.3935C128.577 19.2537 128.748 19.2051 128.888 19.2793C129.026 19.3564 129.077 19.5276 129.003 19.6674C128.96 19.7473 128.917 19.83 128.874 19.9128C128.823 20.0098 128.723 20.0697 128.617 20.0697ZM129.363 18.8542C129.303 18.8542 129.246 18.8371 129.194 18.8C129.069 18.7058 129.04 18.5289 129.134 18.4005C129.191 18.3206 129.252 18.2436 129.314 18.1666C129.412 18.0439 129.592 18.021 129.715 18.1181C129.838 18.2151 129.86 18.3948 129.763 18.5175C129.706 18.5888 129.652 18.663 129.595 18.7372C129.537 18.8143 129.452 18.8542 129.363 18.8542ZM130.304 17.7785C130.229 17.7785 130.155 17.75 130.098 17.6929C129.989 17.5788 129.989 17.399 130.103 17.2906C130.175 17.2221 130.246 17.1537 130.318 17.088C130.435 16.9825 130.615 16.991 130.721 17.108C130.827 17.225 130.818 17.4047 130.701 17.5103C130.632 17.5731 130.567 17.6359 130.498 17.6986C130.446 17.7528 130.375 17.7785 130.304 17.7785ZM131.404 16.8769C131.313 16.8769 131.224 16.8341 131.17 16.7542C131.081 16.6258 131.113 16.4461 131.241 16.3576C131.321 16.3005 131.404 16.2463 131.487 16.195C131.619 16.1094 131.796 16.1493 131.882 16.2806C131.967 16.4118 131.927 16.5887 131.796 16.6743C131.719 16.7228 131.641 16.7742 131.567 16.8284C131.519 16.8598 131.461 16.8769 131.404 16.8769ZM132.642 16.1664C132.533 16.1664 132.43 16.1065 132.382 16.0009C132.316 15.8583 132.376 15.6871 132.519 15.6215C132.608 15.5787 132.699 15.5387 132.788 15.5016C132.931 15.4389 133.099 15.5073 133.162 15.6529C133.225 15.7984 133.157 15.9667 133.011 16.0266C132.925 16.0637 132.842 16.1008 132.759 16.1379C132.725 16.1579 132.682 16.1664 132.642 16.1664ZM133.98 15.6757C133.854 15.6757 133.74 15.5929 133.706 15.4674C133.663 15.3162 133.754 15.1592 133.906 15.1164C134 15.0908 134.094 15.0651 134.191 15.0423C134.346 15.0052 134.5 15.0993 134.537 15.2534C134.575 15.4075 134.48 15.5615 134.326 15.5986C134.234 15.6215 134.146 15.6443 134.057 15.6671C134.031 15.67 134.006 15.6757 133.98 15.6757ZM135.384 15.4132C135.238 15.4132 135.115 15.3048 135.101 15.1564C135.083 14.9995 135.198 14.8596 135.355 14.8425C135.452 14.8311 135.549 14.8254 135.649 14.8168C135.804 14.8083 135.944 14.9253 135.955 15.0822C135.967 15.2391 135.847 15.3761 135.69 15.3875C135.598 15.3932 135.507 15.4018 135.415 15.4103C135.404 15.4132 135.392 15.4132 135.384 15.4132ZM149.752 15.3675H149.678C149.52 15.3675 149.392 15.2391 149.392 15.0822C149.392 14.9253 149.52 14.7969 149.678 14.7969H149.752C149.909 14.7969 150.038 14.9253 150.038 15.0822C150.038 15.2391 149.909 15.3675 149.752 15.3675ZM148.531 15.3675H148.245C148.088 15.3675 147.959 15.2391 147.959 15.0822C147.959 14.9253 148.088 14.7969 148.245 14.7969H148.531C148.688 14.7969 148.817 14.9253 148.817 15.0822C148.817 15.2391 148.691 15.3675 148.531 15.3675ZM147.102 15.3675H146.816C146.659 15.3675 146.53 15.2391 146.53 15.0822C146.53 14.9253 146.659 14.7969 146.816 14.7969H147.102C147.259 14.7969 147.388 14.9253 147.388 15.0822C147.388 15.2391 147.262 15.3675 147.102 15.3675ZM145.672 15.3675H145.386C145.229 15.3675 145.101 15.2391 145.101 15.0822C145.101 14.9253 145.229 14.7969 145.386 14.7969H145.672C145.83 14.7969 145.958 14.9253 145.958 15.0822C145.958 15.2391 145.832 15.3675 145.672 15.3675ZM144.243 15.3675H143.957C143.8 15.3675 143.671 15.2391 143.671 15.0822C143.671 14.9253 143.8 14.7969 143.957 14.7969H144.243C144.4 14.7969 144.529 14.9253 144.529 15.0822C144.529 15.2391 144.403 15.3675 144.243 15.3675ZM142.814 15.3675H142.528C142.37 15.3675 142.242 15.2391 142.242 15.0822C142.242 14.9253 142.37 14.7969 142.528 14.7969H142.814C142.971 14.7969 143.099 14.9253 143.099 15.0822C143.099 15.2391 142.974 15.3675 142.814 15.3675ZM141.384 15.3675H141.098C140.941 15.3675 140.812 15.2391 140.812 15.0822C140.812 14.9253 140.941 14.7969 141.098 14.7969H141.384C141.541 14.7969 141.67 14.9253 141.67 15.0822C141.67 15.2391 141.544 15.3675 141.384 15.3675ZM139.955 15.3675H139.669C139.512 15.3675 139.383 15.2391 139.383 15.0822C139.383 14.9253 139.512 14.7969 139.669 14.7969H139.955C140.112 14.7969 140.241 14.9253 140.241 15.0822C140.241 15.2391 140.115 15.3675 139.955 15.3675ZM138.525 15.3675H138.24C138.082 15.3675 137.954 15.2391 137.954 15.0822C137.954 14.9253 138.082 14.7969 138.24 14.7969H138.525C138.683 14.7969 138.811 14.9253 138.811 15.0822C138.811 15.2391 138.686 15.3675 138.525 15.3675ZM137.096 15.3675H136.81C136.653 15.3675 136.524 15.2391 136.524 15.0822C136.524 14.9253 136.653 14.7969 136.81 14.7969H137.096C137.253 14.7969 137.382 14.9253 137.382 15.0822C137.382 15.2391 137.256 15.3675 137.096 15.3675Z" fill="#6D6E70"/>
<path d="M132.39 159.263H132.322C132.164 159.263 132.036 159.134 132.036 158.977C132.036 158.821 132.164 158.692 132.322 158.692H132.39C132.459 158.692 132.53 158.692 132.599 158.689C132.756 158.689 132.888 158.809 132.893 158.966C132.899 159.123 132.773 159.254 132.616 159.26C132.542 159.263 132.467 159.263 132.39 159.263ZM131.178 159.263H130.892C130.735 159.263 130.606 159.134 130.606 158.977C130.606 158.821 130.735 158.692 130.892 158.692H131.178C131.335 158.692 131.464 158.821 131.464 158.977C131.464 159.134 131.338 159.263 131.178 159.263ZM129.749 159.263H129.463C129.306 159.263 129.177 159.134 129.177 158.977C129.177 158.821 129.306 158.692 129.463 158.692H129.749C129.906 158.692 130.035 158.821 130.035 158.977C130.035 159.134 129.909 159.263 129.749 159.263ZM128.319 159.263H128.033C127.876 159.263 127.748 159.134 127.748 158.977C127.748 158.821 127.876 158.692 128.033 158.692H128.319C128.477 158.692 128.605 158.821 128.605 158.977C128.605 159.134 128.479 159.263 128.319 159.263ZM126.89 159.263H126.604C126.447 159.263 126.318 159.134 126.318 158.977C126.318 158.821 126.447 158.692 126.604 158.692H126.89C127.047 158.692 127.176 158.821 127.176 158.977C127.176 159.134 127.05 159.263 126.89 159.263ZM125.461 159.263H125.175C125.017 159.263 124.889 159.134 124.889 158.977C124.889 158.821 125.017 158.692 125.175 158.692H125.461C125.618 158.692 125.746 158.821 125.746 158.977C125.746 159.134 125.621 159.263 125.461 159.263ZM124.031 159.263H123.745C123.588 159.263 123.459 159.134 123.459 158.977C123.459 158.821 123.588 158.692 123.745 158.692H124.031C124.188 158.692 124.317 158.821 124.317 158.977C124.317 159.134 124.191 159.263 124.031 159.263ZM122.602 159.263H122.316C122.159 159.263 122.03 159.134 122.03 158.977C122.03 158.821 122.159 158.692 122.316 158.692H122.602C122.759 158.692 122.888 158.821 122.888 158.977C122.888 159.134 122.762 159.263 122.602 159.263ZM121.172 159.263H120.887C120.729 159.263 120.601 159.134 120.601 158.977C120.601 158.821 120.729 158.692 120.887 158.692H121.172C121.33 158.692 121.458 158.821 121.458 158.977C121.458 159.134 121.332 159.263 121.172 159.263ZM119.743 159.263H119.457C119.3 159.263 119.171 159.134 119.171 158.977C119.171 158.821 119.3 158.692 119.457 158.692H119.743C119.9 158.692 120.029 158.821 120.029 158.977C120.029 159.134 119.903 159.263 119.743 159.263ZM118.314 159.263H118.028C117.87 159.263 117.742 159.134 117.742 158.977C117.742 158.821 117.87 158.692 118.028 158.692H118.314C118.471 158.692 118.599 158.821 118.599 158.977C118.599 159.134 118.474 159.263 118.314 159.263ZM116.884 159.263H116.598C116.441 159.263 116.312 159.134 116.312 158.977C116.312 158.821 116.441 158.692 116.598 158.692H116.884C117.041 158.692 117.17 158.821 117.17 158.977C117.17 159.134 117.044 159.263 116.884 159.263ZM115.455 159.263H115.169C115.012 159.263 114.883 159.134 114.883 158.977C114.883 158.821 115.012 158.692 115.169 158.692H115.455C115.612 158.692 115.741 158.821 115.741 158.977C115.741 159.134 115.615 159.263 115.455 159.263ZM114.025 159.263H113.74C113.582 159.263 113.454 159.134 113.454 158.977C113.454 158.821 113.582 158.692 113.74 158.692H114.025C114.183 158.692 114.311 158.821 114.311 158.977C114.311 159.134 114.186 159.263 114.025 159.263ZM112.596 159.263H112.31C112.153 159.263 112.024 159.134 112.024 158.977C112.024 158.821 112.153 158.692 112.31 158.692H112.596C112.753 158.692 112.882 158.821 112.882 158.977C112.882 159.134 112.756 159.263 112.596 159.263ZM111.167 159.263H110.881C110.724 159.263 110.595 159.134 110.595 158.977C110.595 158.821 110.724 158.692 110.881 158.692H111.167C111.324 158.692 111.453 158.821 111.453 158.977C111.453 159.134 111.327 159.263 111.167 159.263ZM109.737 159.263H109.451C109.294 159.263 109.165 159.134 109.165 158.977C109.165 158.821 109.294 158.692 109.451 158.692H109.737C109.894 158.692 110.023 158.821 110.023 158.977C110.023 159.134 109.897 159.263 109.737 159.263ZM108.308 159.263H108.022C107.865 159.263 107.736 159.134 107.736 158.977C107.736 158.821 107.865 158.692 108.022 158.692H108.308C108.465 158.692 108.594 158.821 108.594 158.977C108.594 159.134 108.468 159.263 108.308 159.263ZM106.878 159.263H106.593C106.435 159.263 106.307 159.134 106.307 158.977C106.307 158.821 106.435 158.692 106.593 158.692H106.878C107.036 158.692 107.164 158.821 107.164 158.977C107.164 159.134 107.039 159.263 106.878 159.263ZM105.449 159.263H105.163C105.006 159.263 104.877 159.134 104.877 158.977C104.877 158.821 105.006 158.692 105.163 158.692H105.449C105.606 158.692 105.735 158.821 105.735 158.977C105.735 159.134 105.609 159.263 105.449 159.263ZM104.02 159.263H103.734C103.577 159.263 103.448 159.134 103.448 158.977C103.448 158.821 103.577 158.692 103.734 158.692H104.02C104.177 158.692 104.306 158.821 104.306 158.977C104.306 159.134 104.18 159.263 104.02 159.263ZM102.59 159.263H102.304C102.147 159.263 102.019 159.134 102.019 158.977C102.019 158.821 102.147 158.692 102.304 158.692H102.59C102.748 158.692 102.876 158.821 102.876 158.977C102.876 159.134 102.75 159.263 102.59 159.263ZM101.161 159.263H100.875C100.718 159.263 100.589 159.134 100.589 158.977C100.589 158.821 100.718 158.692 100.875 158.692H101.161C101.318 158.692 101.447 158.821 101.447 158.977C101.447 159.134 101.321 159.263 101.161 159.263ZM99.7315 159.263H99.4456C99.2884 159.263 99.1598 159.134 99.1598 158.977C99.1598 158.821 99.2884 158.692 99.4456 158.692H99.7315C99.8887 158.692 100.017 158.821 100.017 158.977C100.017 159.134 99.8916 159.263 99.7315 159.263ZM98.3021 159.263H98.0162C97.859 159.263 97.7304 159.134 97.7304 158.977C97.7304 158.821 97.859 158.692 98.0162 158.692H98.3021C98.4594 158.692 98.588 158.821 98.588 158.977C98.588 159.134 98.4622 159.263 98.3021 159.263ZM96.8727 159.263H96.5868C96.4296 159.263 96.301 159.134 96.301 158.977C96.301 158.821 96.4296 158.692 96.5868 158.692H96.8727C97.03 158.692 97.1586 158.821 97.1586 158.977C97.1586 159.134 97.0328 159.263 96.8727 159.263ZM95.4433 159.263H95.1575C95.0002 159.263 94.8716 159.134 94.8716 158.977C94.8716 158.821 95.0002 158.692 95.1575 158.692H95.4433C95.6006 158.692 95.7292 158.821 95.7292 158.977C95.7292 159.134 95.6034 159.263 95.4433 159.263ZM94.0139 159.263H93.7281C93.5708 159.263 93.4422 159.134 93.4422 158.977C93.4422 158.821 93.5708 158.692 93.7281 158.692H94.0139C94.1712 158.692 94.2998 158.821 94.2998 158.977C94.2998 159.134 94.174 159.263 94.0139 159.263ZM92.5846 159.263H92.2987C92.1414 159.263 92.0128 159.134 92.0128 158.977C92.0128 158.821 92.1414 158.692 92.2987 158.692H92.5846C92.7418 158.692 92.8704 158.821 92.8704 158.977C92.8704 159.134 92.7446 159.263 92.5846 159.263ZM91.1552 159.263H90.8693C90.712 159.263 90.5834 159.134 90.5834 158.977C90.5834 158.821 90.712 158.692 90.8693 158.692H91.1552C91.3124 158.692 91.441 158.821 91.441 158.977C91.441 159.134 91.3153 159.263 91.1552 159.263ZM89.7258 159.263H89.4399C89.2827 159.263 89.154 159.134 89.154 158.977C89.154 158.821 89.2827 158.692 89.4399 158.692H89.7258C89.883 158.692 90.0116 158.821 90.0116 158.977C90.0116 159.134 89.8859 159.263 89.7258 159.263ZM88.2964 159.263H88.0105C87.8533 159.263 87.7246 159.134 87.7246 158.977C87.7246 158.821 87.8533 158.692 88.0105 158.692H88.2964C88.4536 158.692 88.5823 158.821 88.5823 158.977C88.5823 159.134 88.4565 159.263 88.2964 159.263ZM86.867 159.263H86.5811C86.4239 159.263 86.2952 159.134 86.2952 158.977C86.2952 158.821 86.4239 158.692 86.5811 158.692H86.867C87.0242 158.692 87.1529 158.821 87.1529 158.977C87.1529 159.134 87.0271 159.263 86.867 159.263ZM85.4376 159.263H85.1517C84.9945 159.263 84.8658 159.134 84.8658 158.977C84.8658 158.821 84.9945 158.692 85.1517 158.692H85.4376C85.5948 158.692 85.7235 158.821 85.7235 158.977C85.7235 159.134 85.5977 159.263 85.4376 159.263ZM84.0082 159.263H83.7223C83.5651 159.263 83.4364 159.134 83.4364 158.977C83.4364 158.821 83.5651 158.692 83.7223 158.692H84.0082C84.1654 158.692 84.2941 158.821 84.2941 158.977C84.2941 159.134 84.1683 159.263 84.0082 159.263ZM82.5788 159.263H82.2929C82.1357 159.263 82.007 159.134 82.007 158.977C82.007 158.821 82.1357 158.692 82.2929 158.692H82.5788C82.736 158.692 82.8647 158.821 82.8647 158.977C82.8647 159.134 82.7389 159.263 82.5788 159.263ZM81.1494 159.263H80.8635C80.7063 159.263 80.5777 159.134 80.5777 158.977C80.5777 158.821 80.7063 158.692 80.8635 158.692H81.1494C81.3066 158.692 81.4353 158.821 81.4353 158.977C81.4353 159.134 81.3095 159.263 81.1494 159.263ZM79.72 159.263H79.4341C79.2769 159.263 79.1483 159.134 79.1483 158.977C79.1483 158.821 79.2769 158.692 79.4341 158.692H79.72C79.8773 158.692 80.0059 158.821 80.0059 158.977C80.0059 159.134 79.8801 159.263 79.72 159.263ZM78.2906 159.263H78.0048C77.8475 159.263 77.7189 159.134 77.7189 158.977C77.7189 158.821 77.8475 158.692 78.0048 158.692H78.2906C78.4479 158.692 78.5765 158.821 78.5765 158.977C78.5765 159.134 78.4507 159.263 78.2906 159.263ZM76.8612 159.263H76.5754C76.4181 159.263 76.2895 159.134 76.2895 158.977C76.2895 158.821 76.4181 158.692 76.5754 158.692H76.8612C77.0185 158.692 77.1471 158.821 77.1471 158.977C77.1471 159.134 77.0213 159.263 76.8612 159.263ZM75.4318 159.263H75.146C74.9887 159.263 74.8601 159.134 74.8601 158.977C74.8601 158.821 74.9887 158.692 75.146 158.692H75.4318C75.5891 158.692 75.7177 158.821 75.7177 158.977C75.7177 159.134 75.5919 159.263 75.4318 159.263ZM74.0025 159.263H73.7166C73.5593 159.263 73.4307 159.134 73.4307 158.977C73.4307 158.821 73.5593 158.692 73.7166 158.692H74.0025C74.1597 158.692 74.2883 158.821 74.2883 158.977C74.2883 159.134 74.1625 159.263 74.0025 159.263ZM72.5731 159.263H72.2872C72.13 159.263 72.0013 159.134 72.0013 158.977C72.0013 158.821 72.13 158.692 72.2872 158.692H72.5731C72.7303 158.692 72.8589 158.821 72.8589 158.977C72.8589 159.134 72.7332 159.263 72.5731 159.263ZM71.1437 159.263H70.8578C70.7006 159.263 70.5719 159.134 70.5719 158.977C70.5719 158.821 70.7006 158.692 70.8578 158.692H71.1437C71.3009 158.692 71.4296 158.821 71.4296 158.977C71.4296 159.134 71.3038 159.263 71.1437 159.263ZM69.7143 159.263H69.4284C69.2712 159.263 69.1425 159.134 69.1425 158.977C69.1425 158.821 69.2712 158.692 69.4284 158.692H69.7143C69.8715 158.692 70.0002 158.821 70.0002 158.977C70.0002 159.134 69.8744 159.263 69.7143 159.263ZM68.2906 159.166C68.2735 159.166 68.2592 159.166 68.242 159.163C68.1448 159.146 68.0476 159.129 67.9504 159.109C67.796 159.077 67.696 158.926 67.7274 158.772C67.7589 158.618 67.9104 158.521 68.0648 158.549C68.1534 158.569 68.2449 158.584 68.3363 158.601C68.4907 158.627 68.5965 158.775 68.5708 158.929C68.5508 159.066 68.4278 159.166 68.2906 159.166ZM133.742 159.137C133.608 159.137 133.488 159.043 133.462 158.906C133.434 158.752 133.534 158.601 133.688 158.572C133.777 158.555 133.868 158.535 133.957 158.515C134.111 158.481 134.266 158.575 134.3 158.729C134.337 158.883 134.24 159.037 134.086 159.072C133.988 159.094 133.891 159.114 133.794 159.134C133.78 159.134 133.76 159.137 133.742 159.137ZM66.9155 158.792C66.8812 158.792 66.8469 158.786 66.8155 158.772C66.724 158.738 66.6297 158.701 66.541 158.661C66.3952 158.598 66.3295 158.43 66.3924 158.287C66.4553 158.141 66.6239 158.076 66.7669 158.139C66.8498 158.176 66.9355 158.21 67.0213 158.241C67.17 158.298 67.2443 158.461 67.1871 158.609C67.1385 158.724 67.0299 158.792 66.9155 158.792ZM135.112 158.732C135 158.732 134.892 158.664 134.846 158.555C134.786 158.41 134.857 158.244 135.003 158.184C135.089 158.15 135.172 158.113 135.255 158.076C135.398 158.01 135.569 158.076 135.632 158.218C135.698 158.361 135.632 158.532 135.489 158.595C135.398 158.635 135.309 158.675 135.215 158.712C135.186 158.726 135.149 158.732 135.112 158.732ZM65.6405 158.156C65.5891 158.156 65.5347 158.141 65.489 158.11C65.4061 158.056 65.3232 158.002 65.2431 157.947C65.1116 157.859 65.0802 157.679 65.1688 157.551C65.2574 157.42 65.4375 157.388 65.5662 157.477C65.6405 157.528 65.7177 157.579 65.7949 157.628C65.9292 157.713 65.9664 157.888 65.8835 158.022C65.8263 158.107 65.7349 158.156 65.6405 158.156ZM136.375 158.064C136.284 158.064 136.192 158.019 136.138 157.936C136.05 157.805 136.087 157.628 136.218 157.539C136.295 157.488 136.37 157.437 136.444 157.382C136.573 157.291 136.75 157.317 136.844 157.445C136.939 157.574 136.91 157.751 136.781 157.845C136.701 157.905 136.618 157.959 136.536 158.016C136.484 158.05 136.427 158.064 136.375 158.064ZM64.517 157.28C64.4455 157.28 64.3741 157.254 64.3198 157.2C64.2483 157.131 64.1768 157.063 64.1082 156.992C63.9996 156.877 63.9996 156.698 64.1139 156.589C64.2283 156.481 64.4084 156.481 64.517 156.595C64.5799 156.661 64.6457 156.726 64.7114 156.789C64.8258 156.897 64.8315 157.077 64.72 157.191C64.6657 157.251 64.5913 157.28 64.517 157.28ZM137.479 157.163C137.405 157.163 137.333 157.134 137.276 157.08C137.164 156.969 137.164 156.786 137.276 156.678C137.342 156.612 137.405 156.546 137.467 156.481C137.576 156.364 137.756 156.358 137.871 156.467C137.985 156.575 137.993 156.755 137.885 156.869C137.816 156.94 137.748 157.012 137.679 157.083C137.625 157.137 137.553 157.163 137.479 157.163ZM63.585 156.201C63.4936 156.201 63.4049 156.158 63.3506 156.079C63.2935 155.999 63.2391 155.916 63.1848 155.833C63.0991 155.702 63.1362 155.525 63.2706 155.439C63.4049 155.354 63.5793 155.391 63.6651 155.525C63.7137 155.602 63.7652 155.679 63.8195 155.753C63.911 155.882 63.8795 156.061 63.748 156.15C63.6994 156.184 63.6422 156.201 63.585 156.201ZM138.385 156.064C138.331 156.064 138.276 156.05 138.228 156.016C138.096 155.927 138.062 155.75 138.148 155.619C138.199 155.542 138.248 155.465 138.297 155.388C138.379 155.254 138.554 155.211 138.691 155.294C138.825 155.377 138.868 155.554 138.785 155.688C138.734 155.77 138.68 155.856 138.625 155.936C138.568 156.019 138.477 156.064 138.385 156.064ZM62.8846 154.96C62.776 154.96 62.6702 154.897 62.6216 154.789C62.5816 154.698 62.5444 154.606 62.5073 154.515C62.4501 154.369 62.5216 154.204 62.6702 154.144C62.816 154.087 62.9818 154.158 63.0419 154.307C63.0762 154.392 63.1105 154.478 63.1477 154.561C63.2105 154.706 63.1448 154.874 63.0019 154.937C62.9618 154.952 62.9218 154.96 62.8846 154.96ZM139.057 154.809C139.02 154.809 138.983 154.803 138.948 154.786C138.803 154.726 138.734 154.558 138.794 154.412C138.828 154.33 138.863 154.244 138.894 154.158C138.948 154.01 139.111 153.936 139.26 153.987C139.409 154.041 139.486 154.204 139.431 154.352C139.397 154.446 139.36 154.538 139.323 154.629C139.274 154.743 139.168 154.809 139.057 154.809ZM62.4444 153.602C62.3129 153.602 62.1957 153.511 62.1642 153.377C62.1442 153.28 62.1242 153.183 62.1071 153.086C62.0785 152.931 62.1842 152.783 62.3386 152.755C62.4958 152.729 62.6416 152.832 62.6702 152.986C62.6874 153.077 62.7045 153.165 62.7217 153.254C62.756 153.408 62.6588 153.559 62.5044 153.593C62.4844 153.602 62.4644 153.602 62.4444 153.602ZM139.466 153.445C139.449 153.445 139.429 153.442 139.411 153.439C139.257 153.408 139.154 153.26 139.186 153.105C139.203 153.017 139.22 152.926 139.231 152.834C139.254 152.677 139.4 152.572 139.557 152.595C139.714 152.618 139.82 152.763 139.797 152.92C139.783 153.017 139.766 153.117 139.746 153.214C139.72 153.351 139.6 153.445 139.466 153.445ZM62.2814 152.19C62.1271 152.19 61.9984 152.064 61.9956 151.91V151.619C61.9956 151.462 62.1242 151.334 62.2814 151.334C62.4387 151.334 62.5673 151.462 62.5673 151.619V151.899C62.5702 152.055 62.4444 152.187 62.2872 152.19C62.2843 152.19 62.2814 152.19 62.2814 152.19ZM139.597 152.027C139.44 152.027 139.311 151.899 139.311 151.742V151.456C139.311 151.299 139.44 151.171 139.597 151.171C139.754 151.171 139.883 151.299 139.883 151.456V151.742C139.883 151.899 139.754 152.027 139.597 152.027ZM62.2786 150.763C62.1214 150.763 61.9927 150.635 61.9927 150.478V150.192C61.9927 150.035 62.1214 149.907 62.2786 149.907C62.4358 149.907 62.5645 150.035 62.5645 150.192V150.478C62.5645 150.635 62.4387 150.763 62.2786 150.763ZM139.597 150.6C139.44 150.6 139.311 150.472 139.311 150.315V150.192C139.311 150.035 139.44 149.907 139.597 149.907C139.754 149.907 139.883 150.035 139.883 150.192V150.315C139.883 150.472 139.754 150.6 139.597 150.6Z" fill="#6D6E70"/>
</svg>
