<svg width="20" height="11" viewBox="0 0 20 11" fill="none" xmlns="http://www.w3.org/2000/svg">
<mask id="mask0" mask-type="alpha" maskUnits="userSpaceOnUse" x="0" y="0" width="20" height="11">
<rect x="20" width="10.2857" height="20" transform="rotate(90 20 0)" fill="#C4C4C4"/>
</mask>
<g mask="url(#mask0)">
<path d="M9.27799 1.06287C9.69702 0.7031 10.3764 0.703106 10.7954 1.06288C11.2144 1.42265 11.2144 2.00596 10.7954 2.36572L9.27799 1.06287ZM2.54611 9.44832C2.12708 9.80809 1.4477 9.80809 1.02868 9.44831C0.609658 9.08854 0.609664 8.50523 1.02869 8.14547L2.54611 9.44832ZM10.7954 2.36572L2.54611 9.44832L1.02869 8.14547L9.27799 1.06287L10.7954 2.36572Z" fill="white"/>
<path d="M10.7952 1.06296C10.3762 0.703191 9.69681 0.703196 9.27779 1.06297C8.85877 1.42274 8.85877 2.00605 9.2778 2.36581L10.7952 1.06296ZM17.5271 9.44841C17.9461 9.80818 18.6255 9.80818 19.0445 9.4484C19.4635 9.08863 19.4635 8.50533 19.0445 8.14556L17.5271 9.44841ZM9.2778 2.36581L17.5271 9.44841L19.0445 8.14556L10.7952 1.06296L9.2778 2.36581Z" fill="white"/>
</g>
</svg>
