<svg width="17" height="31" viewBox="0 0 17 31" fill="none" xmlns="http://www.w3.org/2000/svg">
<path d="M1.11937 16.2109C0.731039 15.8182 0.731044 15.1815 1.11938 14.7888C1.50772 14.3961 2.13734 14.3961 2.52568 14.7888L1.11937 16.2109ZM15.8759 28.2893C16.2643 28.682 16.2643 29.3187 15.8759 29.7114C15.4876 30.1041 14.858 30.1041 14.4696 29.7114L15.8759 28.2893ZM2.52568 14.7888L15.8759 28.2893L14.4696 29.7114L1.11937 16.2109L2.52568 14.7888Z" fill="white"/>
<path d="M1.11937 14.7891C0.731039 15.1818 0.731045 15.8185 1.11938 16.2112C1.50772 16.6039 2.13734 16.6039 2.52568 16.2112L1.11937 14.7891ZM15.876 2.71062C16.2643 2.31791 16.2643 1.68122 15.876 1.28852C15.4876 0.895825 14.858 0.895831 14.4697 1.28854L15.876 2.71062ZM2.52568 16.2112L15.876 2.71062L14.4697 1.28854L1.11937 14.7891L2.52568 16.2112Z" fill="white"/>
</svg>
