<svg width="66" height="77" viewBox="0 0 66 77" fill="none" xmlns="http://www.w3.org/2000/svg">
<path d="M30.0182 14.5227C30.0182 13.362 30.3267 12.2707 30.862 11.3244C30.1945 10.8261 29.3696 10.5233 28.4754 10.5233C26.2713 10.5233 24.4829 12.3148 24.4829 14.5227C24.4829 15.1346 24.6277 15.7149 24.8733 16.2322H30.2512C30.1 15.6897 30.0182 15.1156 30.0182 14.5227Z" fill="white"/>
<path d="M36.5296 10.5233C34.3255 10.5233 32.5371 12.3148 32.5371 14.5227C32.5371 15.1346 32.6819 15.7149 32.9275 16.2322H40.1316C40.3772 15.7149 40.522 15.1346 40.522 14.5227C40.522 12.3148 38.7273 10.5233 36.5296 10.5233Z" fill="white"/>
<path d="M61.7379 51.5766L52.9218 30.9175C52.7895 30.9301 52.6573 30.9364 52.5313 30.9364C50.8689 30.9364 49.3701 29.946 48.7152 28.4132C47.7139 26.0665 45.4218 24.5463 42.8714 24.5463H22.1346C19.5842 24.5463 17.292 26.0665 16.2908 28.4132C15.6359 29.946 14.1371 30.9364 12.4747 30.9364C12.3424 30.9364 12.2102 30.9301 12.0842 30.9175L3.2681 51.5766C2.04644 54.4468 2.33611 57.7145 4.05525 60.3197C5.7744 62.925 8.65853 64.4768 11.7694 64.4768H53.2366C56.3537 64.4768 59.2379 62.925 60.9507 60.3197C62.6636 57.7145 62.9595 54.4468 61.7379 51.5766ZM44.7605 47.4385L33.9482 58.2696C33.5578 58.6544 33.0477 58.8688 32.5061 58.8688C31.9583 58.8688 31.4482 58.6544 31.0641 58.2696L20.2454 47.4385C18.5641 45.7542 17.6384 43.5148 17.6384 41.1304C17.6384 38.7459 18.5641 36.5065 20.2454 34.8222C21.9268 33.1379 24.1623 32.2107 26.5427 32.2107C28.7656 32.2107 30.8626 33.0244 32.5061 34.5005C34.1434 33.0181 36.2404 32.2107 38.4696 32.2107C40.85 32.2107 43.0855 33.1379 44.7668 34.8222C46.4482 36.5065 47.3739 38.7459 47.3739 41.1304C47.3676 43.5148 46.4419 45.7542 44.7605 47.4385Z" fill="#FFC661"/>
<path d="M64.0551 50.5862L55.2389 29.9271C56.5677 28.779 57.0714 26.855 56.341 25.1518C54.0299 19.7394 48.7402 16.2384 42.8649 16.2384H42.8019C42.953 15.6896 43.0349 15.1219 43.0349 14.5289C43.0412 10.927 40.1193 8 36.5299 8C35.0122 8 33.6143 8.52988 32.4996 9.40671C31.3913 8.52988 29.9933 8 28.4757 8C24.8863 8 21.9644 10.927 21.9644 14.5226C21.9644 15.1156 22.0525 15.6896 22.1974 16.2321H22.1344C16.2591 16.2321 10.9694 19.7268 8.65834 25.1455C7.93416 26.8487 8.43164 28.7727 9.76035 29.9208L0.944232 50.5799C-0.604886 54.2386 -0.23335 58.3957 1.95179 61.7075C4.13693 65.0192 7.80821 67 11.7692 67H53.2364C57.2037 67 60.8687 65.0192 63.0538 61.7075C65.2326 58.3957 65.6105 54.2386 64.0551 50.5862ZM53.2364 64.4767H11.7692C8.65204 64.4767 5.76791 62.9249 4.05506 60.3197C2.33592 57.7144 2.04625 54.4468 3.26791 51.5766L12.084 30.9175C12.2163 30.9301 12.3422 30.9364 12.4745 30.9364C14.1369 30.9364 15.6357 29.946 16.2906 28.4131C17.2918 26.0665 19.584 24.5462 22.1344 24.5462H42.8649C45.4153 24.5462 47.7075 26.0665 48.7087 28.4131C49.3636 29.946 50.8624 30.9364 52.5248 30.9364C52.6571 30.9364 52.7893 30.9301 52.9153 30.9175L61.7314 51.5766C62.953 54.4468 62.6634 57.7144 60.9442 60.3197C59.2314 62.9249 56.3473 64.4767 53.2364 64.4767ZM10.9757 26.1359C12.8901 21.6508 17.2666 18.7554 22.1344 18.7554H42.8649C47.7326 18.7554 52.1092 21.6508 54.0236 26.1359C54.3762 26.9623 53.9921 27.9274 53.1672 28.2807C52.3611 28.6276 51.3724 28.2239 51.0261 27.4228C49.6281 24.1425 46.4228 22.023 42.8649 22.023H22.1344C18.5765 22.023 15.3712 24.1425 13.9732 27.4228C13.6269 28.2239 12.6445 28.6276 11.8321 28.2807C11.0072 27.9274 10.6231 26.9686 10.9757 26.1359ZM24.4833 14.5226C24.4833 12.3148 26.2717 10.5233 28.4757 10.5233C29.3699 10.5233 30.1949 10.826 30.8624 11.3244C30.3271 12.2706 30.0185 13.3619 30.0185 14.5226C30.0185 15.1156 30.1067 15.6896 30.2515 16.2321H24.8737C24.6218 15.7149 24.4833 15.1345 24.4833 14.5226ZM40.1319 16.2384H32.9279C32.6823 15.7212 32.5374 15.1408 32.5374 14.5289C32.5374 12.3211 34.3258 10.5296 36.5299 10.5296C38.7339 10.5296 40.5223 12.3211 40.5223 14.5289C40.5223 15.1345 40.3775 15.7149 40.1319 16.2384Z" fill="#666666"/>
<path d="M11.8316 28.2807C12.644 28.6276 13.6263 28.2239 13.9727 27.4227C15.3707 24.1425 18.576 22.023 22.1339 22.023H42.8644C46.4223 22.023 49.6276 24.1425 51.0256 27.4227C51.3719 28.2302 52.3543 28.6276 53.1666 28.2807C53.9916 27.9274 54.3757 26.9686 54.0231 26.1359C52.1087 21.6508 47.7321 18.7554 42.8644 18.7554H22.1339C17.2661 18.7554 12.8896 21.6508 10.9752 26.1359C10.6226 26.9686 11.0067 27.9274 11.8316 28.2807Z" fill="white"/>
<path d="M22.0207 45.6533L32.4993 56.15L42.9779 45.6533C44.1869 44.4421 44.8481 42.8398 44.8481 41.1303C44.8481 39.4208 44.1806 37.8186 42.9779 36.6074C41.7688 35.3962 40.1693 34.7339 38.4627 34.7339C36.7562 34.7339 35.1567 35.3962 33.9476 36.6074L33.3935 37.1625C32.9023 37.6546 32.1025 37.6546 31.6114 37.1625L31.0572 36.6074C29.8481 35.3962 28.2486 34.7339 26.5421 34.7339C24.8355 34.7339 23.2297 35.3962 22.027 36.6074C20.8179 37.8186 20.1504 39.4208 20.1504 41.1303C20.1504 42.8398 20.8179 44.4484 22.0207 45.6533Z" fill="white"/>
<path d="M38.4631 32.2106C36.2402 32.2106 34.1432 33.0243 32.4996 34.5004C30.8623 33.018 28.7653 32.2106 26.5361 32.2106C24.1558 32.2106 21.9202 33.1379 20.2389 34.8221C18.5575 36.5064 17.6318 38.7458 17.6318 41.1303C17.6318 43.5147 18.5575 45.7541 20.2389 47.4384L31.0575 58.2758C31.4417 58.6606 31.958 58.8751 32.4996 58.8751C33.0412 58.8751 33.5575 58.6606 33.9417 58.2758L44.754 47.4447C46.4354 45.7604 47.3611 43.5211 47.3611 41.1366C47.3611 38.7521 46.4354 36.5127 44.754 34.8284C43.0789 33.1379 40.8371 32.2106 38.4631 32.2106ZM26.5424 34.7338C28.249 34.7338 29.8548 35.3962 31.0575 36.6073L31.6117 37.1625C32.1029 37.6545 32.9026 37.6545 33.3938 37.1625L33.948 36.6073C35.157 35.3962 36.7565 34.7338 38.4631 34.7338C40.1696 34.7338 41.7754 35.3962 42.9782 36.6073C44.1873 37.8185 44.8485 39.4208 44.8485 41.1303C44.8485 42.8398 44.181 44.4484 42.9782 45.6532L32.4996 56.1499L22.021 45.6532C20.8182 44.4484 20.1507 42.8398 20.1507 41.1303C20.1507 39.4208 20.8119 37.8185 22.021 36.6073C23.2301 35.4025 24.8359 34.7338 26.5424 34.7338Z" fill="#666666"/>
</svg>
