<svg width="14" height="9" viewBox="0 0 14 9" fill="none" xmlns="http://www.w3.org/2000/svg">
<path d="M7.70706 7.70707C7.31653 8.09759 6.68336 8.09758 6.29284 7.70706C5.90232 7.31653 5.90233 6.68336 6.29286 6.29284L7.70706 7.70707ZM11.2929 1.29288C11.6834 0.902362 12.3166 0.902368 12.7071 1.2929C13.0976 1.68342 13.0976 2.31659 12.7071 2.70711L11.2929 1.29288ZM6.29286 6.29284L11.2929 1.29288L12.7071 2.70711L7.70706 7.70707L6.29286 6.29284Z" fill="white"/>
<path d="M6.29297 7.70709C6.68349 8.09761 7.31666 8.09761 7.70718 7.70708C8.0977 7.31655 8.09769 6.68339 7.70717 6.29287L6.29297 7.70709ZM2.70712 1.29291C2.31659 0.902385 1.68343 0.90239 1.2929 1.29292C0.902384 1.68345 0.902389 2.31661 1.29292 2.70713L2.70712 1.29291ZM7.70717 6.29287L2.70712 1.29291L1.29292 2.70713L6.29297 7.70709L7.70717 6.29287Z" fill="white"/>
</svg>
