<svg width="130" height="130" viewBox="0 0 130 130" fill="none" xmlns="http://www.w3.org/2000/svg">
<mask id="mask0" mask-type="alpha" maskUnits="userSpaceOnUse" x="30" y="20" width="70" height="70">
<circle cx="65" cy="55" r="35" fill="#C4C4C4"/>
</mask>
<g mask="url(#mask0)">
<path d="M71.7979 54.2073H58.3997C54.9348 54.2073 52.127 51.3911 52.127 47.9158V40.4096C52.127 34.6628 56.7704 30 62.5055 30H67.6921C73.4272 30 78.0706 34.6628 78.0706 40.4096V47.9158C78.0706 51.3911 75.2628 54.2073 71.7979 54.2073Z" fill="#58596B"/>
<path d="M53.7026 52.2354C55.4393 52.2354 56.8472 50.8233 56.8472 49.0815C56.8472 47.3396 55.4393 45.9276 53.7026 45.9276C51.966 45.9276 50.5581 47.3396 50.5581 49.0815C50.5581 50.8233 51.966 52.2354 53.7026 52.2354Z" fill="#FFE8E3"/>
<path d="M76.4958 52.2354C78.2325 52.2354 79.6404 50.8233 79.6404 49.0815C79.6404 47.3396 78.2325 45.9276 76.4958 45.9276C74.7592 45.9276 73.3513 47.3396 73.3513 49.0815C73.3513 50.8233 74.7592 52.2354 76.4958 52.2354Z" fill="#FFE8E3"/>
<path d="M87.3635 88.9821H42.8296V73.7409C42.8296 68.0922 47.397 63.5111 53.0289 63.5111H77.1695C82.8014 63.5111 87.3689 68.0922 87.3689 73.7409V88.9821H87.3635Z" fill="#CEF2EB"/>
<path d="M65.0965 68.8275C62.696 68.8275 60.7517 66.8774 60.7517 64.4698V59.5673H69.4412V64.4698C69.4412 66.8774 67.497 68.8275 65.0965 68.8275Z" fill="#FFE8E3"/>
<path d="M76.5017 45.9221V48.82C76.5017 55.2749 71.1739 60.4824 64.6839 60.2536C58.5035 60.0303 53.6917 54.752 53.6917 48.5476V45.9221H54.1316C55.6631 45.9221 56.9882 44.8653 57.325 43.3674L58.976 37.1902H71.2228L72.8684 43.3674C73.2105 44.8653 74.5357 45.9221 76.0618 45.9221H76.5017V45.9221Z" fill="#FFE8E3"/>
<path d="M49.716 91.3952C52.0225 91.3952 53.8924 89.5198 53.8924 87.2063C53.8924 84.8929 52.0225 83.0175 49.716 83.0175C47.4094 83.0175 45.5396 84.8929 45.5396 87.2063C45.5396 89.5198 47.4094 91.3952 49.716 91.3952Z" fill="#FFE8E3"/>
<path d="M80.4823 91.3952C82.7889 91.3952 84.6587 89.5198 84.6587 87.2063C84.6587 84.8929 82.7889 83.0175 80.4823 83.0175C78.1758 83.0175 76.3059 84.8929 76.3059 87.2063C76.3059 89.5198 78.1758 91.3952 80.4823 91.3952Z" fill="#FFE8E3"/>
<path d="M80.4825 71.8126H49.7161V91.3953H80.4825V71.8126Z" fill="#C2CACE"/>
<path d="M65.0958 84.4174C66.6435 84.4174 67.8982 83.159 67.8982 81.6066C67.8982 80.0543 66.6435 78.7959 65.0958 78.7959C63.5481 78.7959 62.2935 80.0543 62.2935 81.6066C62.2935 83.159 63.5481 84.4174 65.0958 84.4174Z" fill="white"/>
<path d="M92.8328 38.5085L85.5879 35.567L88.5206 42.8336L90.1445 41.2049L92.936 44.0047L94.0004 42.9371L91.2089 40.1372L92.8328 38.5085Z" fill="white"/>
</g>
<g filter="url(#filter0_d)">
<circle cx="65" cy="55" r="35" fill="white"/>
</g>
<rect x="58.5" y="37.5" width="14" height="17" rx="7" stroke="#666666"/>
<rect x="53.5" y="47.5" width="24" height="24" rx="1.5" fill="white" stroke="#666666"/>
<circle cx="65.5" cy="57.5" r="2" stroke="#3A66CF"/>
<line x1="65.5" y1="59.5" x2="65.5" y2="63.5" stroke="#3A66CF" stroke-linecap="round"/>
<defs>
<filter id="filter0_d" x="0" y="0" width="130" height="130" filterUnits="userSpaceOnUse" color-interpolation-filters="sRGB">
<feFlood flood-opacity="0" result="BackgroundImageFix"/>
<feColorMatrix in="SourceAlpha" type="matrix" values="0 0 0 0 0 0 0 0 0 0 0 0 0 0 0 0 0 0 127 0"/>
<feOffset dy="10"/>
<feGaussianBlur stdDeviation="15"/>
<feColorMatrix type="matrix" values="0 0 0 0 0.604167 0 0 0 0 0.793546 0 0 0 0 1 0 0 0 0.2 0"/>
<feBlend mode="normal" in2="BackgroundImageFix" result="effect1_dropShadow"/>
<feBlend mode="normal" in="SourceGraphic" in2="effect1_dropShadow" result="shape"/>
</filter>
</defs>
</svg>
