<svg width="7" height="12" viewBox="0 0 7 12" fill="none" xmlns="http://www.w3.org/2000/svg">
<path d="M6.19238 5.64649C6.38764 5.84176 6.38764 6.15834 6.19237 6.3536C5.99711 6.54886 5.68053 6.54886 5.48527 6.35359L6.19238 5.64649ZM0.485307 1.35355C0.290046 1.15828 0.290049 0.8417 0.485313 0.64644C0.680577 0.45118 0.997159 0.451182 1.19242 0.646446L0.485307 1.35355ZM5.48527 6.35359L0.485307 1.35355L1.19242 0.646446L6.19238 5.64649L5.48527 6.35359Z" fill="#3A66CF"/>
<path d="M6.1924 6.35348C6.38766 6.15822 6.38766 5.84164 6.1924 5.64638C5.99713 5.45112 5.68055 5.45112 5.48529 5.64638L6.1924 6.35348ZM0.485328 10.6464C0.290067 10.8417 0.29007 11.1583 0.485334 11.3535C0.680598 11.5488 0.997181 11.5488 1.19244 11.3535L0.485328 10.6464ZM5.48529 5.64638L0.485328 10.6464L1.19244 11.3535L6.1924 6.35348L5.48529 5.64638Z" fill="#3A66CF"/>
</svg>
