<svg width="55" height="55" viewBox="0 0 55 55" fill="none" xmlns="http://www.w3.org/2000/svg">
<path d="M20.5 32.5H19.5C18.9696 32.5 18.4609 32.2893 18.0858 31.9142C17.7107 31.5391 17.5 31.0304 17.5 30.5V20.5C17.5 19.9696 17.7107 19.4609 18.0858 19.0858C18.4609 18.7107 18.9696 18.5 19.5 18.5H35.5C36.0304 18.5 36.5391 18.7107 36.9142 19.0858C37.2893 19.4609 37.5 19.9696 37.5 20.5V30.5C37.5 31.0304 37.2893 31.5391 36.9142 31.9142C36.5391 32.2893 36.0304 32.5 35.5 32.5H34.5" stroke="white" stroke-width="2" stroke-linecap="round" stroke-linejoin="round"/>
<path d="M27.5 30.5L32.5 36.5H22.5L27.5 30.5Z" stroke="white" stroke-width="2" stroke-linecap="round" stroke-linejoin="round"/>
</svg>
