<svg width="30" height="30" viewBox="0 0 30 30" fill="none" xmlns="http://www.w3.org/2000/svg">
<rect width="30" height="30" fill="#FF0000" fill-opacity="0.01"/>
<path fill-rule="evenodd" clip-rule="evenodd" d="M15 5C9.48 5 5 9.48 5 15C5 20.52 9.48 25 15 25C20.52 25 25 20.52 25 15C25 9.48 20.52 5 15 5ZM10.07 21.28C10.5 20.38 13.12 19.5 15 19.5C16.88 19.5 19.51 20.38 19.93 21.28C18.57 22.36 16.86 23 15 23C13.14 23 11.43 22.36 10.07 21.28ZM15 17.5C16.46 17.5 19.93 18.09 21.36 19.83C22.38 18.49 23 16.82 23 15C23 10.59 19.41 7 15 7C10.59 7 7 10.59 7 15C7 16.82 7.62 18.49 8.64 19.83C10.07 18.09 13.54 17.5 15 17.5ZM15 9C13.06 9 11.5 10.56 11.5 12.5C11.5 14.44 13.06 16 15 16C16.94 16 18.5 14.44 18.5 12.5C18.5 10.56 16.94 9 15 9ZM13.5 12.5C13.5 13.33 14.17 14 15 14C15.83 14 16.5 13.33 16.5 12.5C16.5 11.67 15.83 11 15 11C14.17 11 13.5 11.67 13.5 12.5Z" fill="#495057"/>
</svg>
