<svg width="349" height="321" viewBox="0 0 349 321" fill="none" xmlns="http://www.w3.org/2000/svg">
<g filter="url(#filter0_d)">
<rect x="6" y="1" width="337" height="304" rx="7" stroke="white" stroke-opacity="0.1" stroke-width="2"/>
</g>
<path d="M342 189H7" stroke="white" stroke-opacity="0.1" stroke-width="2"/>
<path d="M175 83.3334C182.364 83.3334 188.333 77.3638 188.333 70C188.333 62.6362 182.364 56.6667 175 56.6667C167.636 56.6667 161.667 62.6362 161.667 70C161.667 77.3638 167.636 83.3334 175 83.3334Z" stroke="#A4A3BB" stroke-width="2" stroke-linecap="round" stroke-linejoin="round"/>
<path d="M175 64.6667V70" stroke="#A4A3BB" stroke-width="2" stroke-linecap="round" stroke-linejoin="round"/>
<path d="M175 75.3333H175.013" stroke="#A4A3BB" stroke-width="2" stroke-linecap="round" stroke-linejoin="round"/>
<path d="M148.993 101.026H141.979V99.878H144.821V98.408H146.263V99.878H148.993V101.026ZM150.981 105.548H149.049V104.386H150.981V102.874H149.049V101.698H150.981V98.436H152.423V108.082H150.981V105.548ZM148.447 104.064C148.447 104.428 148.377 104.759 148.237 105.058C148.097 105.357 147.897 105.618 147.635 105.842C147.383 106.057 147.08 106.225 146.725 106.346C146.371 106.458 145.974 106.514 145.535 106.514C145.106 106.514 144.714 106.458 144.359 106.346C144.005 106.225 143.697 106.057 143.435 105.842C143.183 105.618 142.987 105.357 142.847 105.058C142.707 104.759 142.637 104.428 142.637 104.064C142.637 103.7 142.707 103.369 142.847 103.07C142.987 102.762 143.183 102.501 143.435 102.286C143.697 102.071 144.005 101.908 144.359 101.796C144.714 101.675 145.106 101.614 145.535 101.614C145.974 101.614 146.371 101.675 146.725 101.796C147.08 101.908 147.383 102.071 147.635 102.286C147.897 102.501 148.097 102.762 148.237 103.07C148.377 103.369 148.447 103.7 148.447 104.064ZM143.995 104.064C143.995 104.484 144.135 104.811 144.415 105.044C144.705 105.268 145.078 105.38 145.535 105.38C146.011 105.38 146.389 105.268 146.669 105.044C146.949 104.811 147.089 104.484 147.089 104.064C147.089 103.644 146.949 103.317 146.669 103.084C146.389 102.851 146.011 102.734 145.535 102.734C145.078 102.734 144.705 102.851 144.415 103.084C144.135 103.317 143.995 103.644 143.995 104.064ZM152.717 109.664V110.84H144.191V107.27H145.647V109.664H152.717ZM165.68 98.422V111.078H164.308V104.61H162.922V110.49H161.564V98.66H162.922V103.42H164.308V98.422H165.68ZM158.68 101.712C158.68 102.281 158.732 102.837 158.834 103.378C158.937 103.91 159.096 104.405 159.31 104.862C159.525 105.319 159.796 105.735 160.122 106.108C160.458 106.472 160.855 106.775 161.312 107.018L160.472 108.124C159.856 107.797 159.352 107.359 158.96 106.808C158.568 106.248 158.256 105.618 158.022 104.918C157.808 105.739 157.495 106.458 157.084 107.074C156.674 107.69 156.156 108.185 155.53 108.558L154.648 107.48C155.106 107.209 155.498 106.873 155.824 106.472C156.16 106.071 156.436 105.623 156.65 105.128C156.865 104.633 157.024 104.097 157.126 103.518C157.229 102.939 157.28 102.337 157.28 101.712V101.012H154.998V99.822H160.794V101.012H158.68V101.712ZM180.962 103.294H172.268V98.87H180.878V100.032H173.696V102.132H180.962V103.294ZM182.278 104.344V105.534H170.854V104.344H182.278ZM176.524 106.472C177.887 106.472 178.951 106.673 179.716 107.074C180.491 107.475 180.878 108.04 180.878 108.768C180.878 109.505 180.5 110.075 179.744 110.476C178.997 110.877 177.924 111.078 176.524 111.078C175.852 111.078 175.245 111.027 174.704 110.924C174.163 110.821 173.705 110.672 173.332 110.476C172.959 110.28 172.669 110.037 172.464 109.748C172.268 109.459 172.17 109.132 172.17 108.768C172.17 108.404 172.268 108.082 172.464 107.802C172.669 107.513 172.959 107.27 173.332 107.074C173.705 106.878 174.163 106.729 174.704 106.626C175.245 106.523 175.852 106.472 176.524 106.472ZM176.524 109.958C177.457 109.958 178.171 109.86 178.666 109.664C179.17 109.459 179.422 109.16 179.422 108.768C179.422 108.376 179.17 108.082 178.666 107.886C178.171 107.681 177.457 107.578 176.524 107.578C175.591 107.578 174.877 107.681 174.382 107.886C173.887 108.082 173.64 108.376 173.64 108.768C173.64 109.16 173.887 109.459 174.382 109.664C174.877 109.86 175.591 109.958 176.524 109.958ZM195.171 105.31V106.472H183.705V105.31H188.717V104.162H185.175V100.9H192.301V99.836H185.147V98.73H193.729V101.936H186.589V103.056H193.981V104.162H190.159V105.31H195.171ZM184.993 107.326H193.799V111.008H192.357V108.488H184.993V107.326ZM207.014 107.928H205.572V98.422H207.014V107.928ZM204.774 105.954C204.111 106.047 203.434 106.127 202.744 106.192C202.053 106.248 201.367 106.295 200.686 106.332C200.014 106.36 199.351 106.379 198.698 106.388C198.044 106.397 197.424 106.402 196.836 106.402L196.64 105.24C197.172 105.24 197.722 105.235 198.292 105.226C198.861 105.217 199.454 105.203 200.07 105.184V103.63H197.732V99.22H203.808V100.396H199.174V102.454H203.878V103.63H201.512V105.128C202.072 105.109 202.613 105.081 203.136 105.044C203.658 105.007 204.172 104.96 204.676 104.904L204.774 105.954ZM207.406 109.664V110.84H198.684V107.27H200.126V109.664H207.406ZM132.218 124.54V125.716H120.794V124.54H125.778V123.28H122.208V118.996H130.818V120.144H123.636V122.118H130.902V123.28H127.22V124.54H132.218ZM126.464 126.486C127.827 126.486 128.891 126.687 129.656 127.088C130.431 127.489 130.818 128.054 130.818 128.782C130.818 129.519 130.44 130.089 129.684 130.49C128.938 130.891 127.864 131.092 126.464 131.092C125.792 131.092 125.186 131.041 124.644 130.938C124.103 130.835 123.646 130.686 123.272 130.49C122.899 130.294 122.61 130.051 122.404 129.762C122.208 129.473 122.11 129.146 122.11 128.782C122.11 128.418 122.208 128.096 122.404 127.816C122.61 127.527 122.899 127.284 123.272 127.088C123.646 126.892 124.103 126.743 124.644 126.64C125.186 126.537 125.792 126.486 126.464 126.486ZM126.464 129.972C127.398 129.972 128.112 129.874 128.606 129.678C129.11 129.473 129.362 129.174 129.362 128.782C129.362 128.39 129.11 128.096 128.606 127.9C128.112 127.695 127.398 127.592 126.464 127.592C125.531 127.592 124.817 127.695 124.322 127.9C123.828 128.096 123.58 128.39 123.58 128.782C123.58 129.174 123.828 129.473 124.322 129.678C124.817 129.874 125.531 129.972 126.464 129.972ZM139.637 124.218C139.339 124.545 138.975 124.797 138.545 124.974C138.116 125.151 137.645 125.24 137.131 125.24C136.655 125.24 136.217 125.165 135.815 125.016C135.414 124.867 135.064 124.657 134.765 124.386C134.476 124.115 134.247 123.798 134.079 123.434C133.911 123.061 133.827 122.65 133.827 122.202C133.827 121.754 133.911 121.343 134.079 120.97C134.247 120.597 134.476 120.275 134.765 120.004C135.064 119.733 135.414 119.523 135.815 119.374C136.217 119.225 136.655 119.15 137.131 119.15C137.663 119.15 138.139 119.243 138.559 119.43C138.979 119.607 139.339 119.855 139.637 120.172H142.689V118.422H144.131V125.884H142.689V124.218H139.637ZM135.199 122.202C135.199 122.743 135.381 123.182 135.745 123.518C136.109 123.854 136.571 124.022 137.131 124.022C137.691 124.022 138.149 123.859 138.503 123.532C138.858 123.205 139.035 122.762 139.035 122.202C139.035 121.642 138.858 121.199 138.503 120.872C138.149 120.536 137.691 120.368 137.131 120.368C136.571 120.368 136.109 120.536 135.745 120.872C135.381 121.199 135.199 121.642 135.199 122.202ZM140.295 121.348C140.333 121.507 140.361 121.656 140.379 121.796C140.398 121.936 140.407 122.071 140.407 122.202C140.407 122.501 140.365 122.785 140.281 123.056H142.689V121.348H140.295ZM139.917 126.164C140.58 126.164 141.173 126.22 141.695 126.332C142.218 126.444 142.666 126.607 143.039 126.822C143.413 127.027 143.697 127.284 143.893 127.592C144.089 127.891 144.187 128.231 144.187 128.614C144.187 129.006 144.089 129.356 143.893 129.664C143.697 129.963 143.413 130.215 143.039 130.42C142.666 130.635 142.218 130.798 141.695 130.91C141.173 131.022 140.58 131.078 139.917 131.078C139.264 131.078 138.671 131.022 138.139 130.91C137.617 130.798 137.169 130.635 136.795 130.42C136.431 130.215 136.151 129.963 135.955 129.664C135.759 129.356 135.661 129.006 135.661 128.614C135.661 128.231 135.759 127.891 135.955 127.592C136.151 127.284 136.431 127.027 136.795 126.822C137.169 126.607 137.617 126.444 138.139 126.332C138.671 126.22 139.264 126.164 139.917 126.164ZM139.917 129.944C140.823 129.944 141.523 129.837 142.017 129.622C142.512 129.398 142.759 129.062 142.759 128.614C142.759 128.194 142.512 127.872 142.017 127.648C141.523 127.415 140.823 127.298 139.917 127.298C139.012 127.298 138.312 127.415 137.817 127.648C137.323 127.872 137.075 128.194 137.075 128.614C137.075 129.062 137.323 129.398 137.817 129.622C138.312 129.837 139.012 129.944 139.917 129.944ZM158.2 121.558V122.748H156.408V126.024H154.966V118.422H156.408V121.558H158.2ZM153.132 125.352C152.451 125.109 151.863 124.759 151.368 124.302C150.883 123.835 150.505 123.303 150.234 122.706C149.954 123.406 149.558 124.013 149.044 124.526C148.531 125.039 147.91 125.431 147.182 125.702L146.412 124.554C146.907 124.386 147.346 124.157 147.728 123.868C148.111 123.579 148.433 123.247 148.694 122.874C148.956 122.501 149.152 122.099 149.282 121.67C149.413 121.231 149.478 120.783 149.478 120.326V119.08H150.934V120.438C150.934 120.849 151 121.245 151.13 121.628C151.261 122.011 151.452 122.37 151.704 122.706C151.956 123.033 152.264 123.327 152.628 123.588C153.002 123.849 153.422 124.059 153.888 124.218L153.132 125.352ZM152.334 126.332C153.66 126.332 154.691 126.537 155.428 126.948C156.175 127.359 156.548 127.942 156.548 128.698C156.548 129.445 156.175 130.028 155.428 130.448C154.682 130.868 153.65 131.078 152.334 131.078C151.681 131.078 151.093 131.022 150.57 130.91C150.057 130.807 149.618 130.653 149.254 130.448C148.89 130.243 148.61 129.995 148.414 129.706C148.218 129.407 148.12 129.071 148.12 128.698C148.12 128.325 148.218 127.993 148.414 127.704C148.61 127.405 148.89 127.158 149.254 126.962C149.618 126.757 150.057 126.603 150.57 126.5C151.093 126.388 151.681 126.332 152.334 126.332ZM152.334 129.944C153.24 129.944 153.93 129.841 154.406 129.636C154.882 129.431 155.12 129.118 155.12 128.698C155.12 128.306 154.882 128.003 154.406 127.788C153.93 127.573 153.24 127.466 152.334 127.466C151.429 127.466 150.738 127.573 150.262 127.788C149.786 128.003 149.548 128.306 149.548 128.698C149.548 129.118 149.786 129.431 150.262 129.636C150.738 129.841 151.429 129.944 152.334 129.944ZM169.819 118.422V131.106H168.363V118.422H169.819ZM163.085 119.36C163.561 119.36 163.995 119.467 164.387 119.682C164.788 119.887 165.134 120.186 165.423 120.578C165.712 120.961 165.936 121.427 166.095 121.978C166.263 122.519 166.347 123.131 166.347 123.812C166.347 124.493 166.263 125.114 166.095 125.674C165.936 126.225 165.712 126.691 165.423 127.074C165.134 127.457 164.788 127.755 164.387 127.97C163.995 128.175 163.561 128.278 163.085 128.278C162.618 128.278 162.184 128.175 161.783 127.97C161.391 127.755 161.05 127.457 160.761 127.074C160.472 126.691 160.243 126.225 160.075 125.674C159.916 125.114 159.837 124.493 159.837 123.812C159.837 123.131 159.916 122.519 160.075 121.978C160.243 121.427 160.472 120.961 160.761 120.578C161.05 120.186 161.391 119.887 161.783 119.682C162.184 119.467 162.618 119.36 163.085 119.36ZM163.085 120.662C162.525 120.662 162.072 120.942 161.727 121.502C161.391 122.053 161.223 122.823 161.223 123.812C161.223 124.829 161.391 125.613 161.727 126.164C162.072 126.715 162.525 126.99 163.085 126.99C163.645 126.99 164.098 126.715 164.443 126.164C164.788 125.613 164.961 124.829 164.961 123.812C164.961 122.823 164.788 122.053 164.443 121.502C164.098 120.942 163.645 120.662 163.085 120.662ZM182.119 122.468C182.054 122.823 181.923 123.149 181.727 123.448C181.54 123.737 181.307 123.989 181.027 124.204C180.747 124.409 180.425 124.568 180.061 124.68C179.697 124.792 179.305 124.848 178.885 124.848C178.409 124.848 177.97 124.778 177.569 124.638C177.168 124.489 176.818 124.288 176.519 124.036C176.23 123.775 176.001 123.462 175.833 123.098C175.674 122.734 175.595 122.333 175.595 121.894C175.595 121.465 175.674 121.073 175.833 120.718C176.001 120.354 176.23 120.046 176.519 119.794C176.818 119.533 177.168 119.332 177.569 119.192C177.97 119.043 178.409 118.968 178.885 118.968C179.296 118.968 179.683 119.024 180.047 119.136C180.411 119.248 180.733 119.407 181.013 119.612C181.293 119.808 181.526 120.051 181.713 120.34C181.909 120.62 182.04 120.933 182.105 121.278H184.457V118.45H185.899V125.128H184.457V122.468H182.119ZM176.981 121.894C176.981 122.426 177.158 122.855 177.513 123.182C177.868 123.499 178.325 123.658 178.885 123.658C179.445 123.658 179.902 123.499 180.257 123.182C180.621 122.855 180.803 122.426 180.803 121.894C180.803 121.362 180.621 120.942 180.257 120.634C179.902 120.317 179.445 120.158 178.885 120.158C178.325 120.158 177.868 120.317 177.513 120.634C177.158 120.942 176.981 121.362 176.981 121.894ZM184.989 126.766C184.989 127.102 185.031 127.433 185.115 127.76C185.208 128.077 185.344 128.376 185.521 128.656C185.708 128.936 185.941 129.188 186.221 129.412C186.501 129.636 186.832 129.818 187.215 129.958L186.501 131.05C185.941 130.835 185.474 130.532 185.101 130.14C184.737 129.757 184.457 129.323 184.261 128.838C184.046 129.314 183.757 129.743 183.393 130.126C183.038 130.518 182.59 130.826 182.049 131.05L181.321 129.958C181.704 129.799 182.035 129.603 182.315 129.37C182.595 129.137 182.828 128.88 183.015 128.6C183.202 128.311 183.337 128.012 183.421 127.704C183.514 127.387 183.561 127.074 183.561 126.766V125.758H184.989V126.766ZM181.321 125.856V130.924H176.841V125.856H178.185V127.284H179.991V125.856H181.321ZM179.991 128.348H178.185V129.818H179.991V128.348ZM198.61 123.336C197.564 123.196 196.64 122.907 195.838 122.468C195.044 122.02 194.438 121.46 194.018 120.788C193.598 121.46 192.991 122.02 192.198 122.468C191.404 122.907 190.485 123.196 189.44 123.336L188.908 122.216C189.542 122.132 190.126 121.992 190.658 121.796C191.19 121.591 191.647 121.348 192.03 121.068C192.422 120.779 192.725 120.461 192.94 120.116C193.164 119.771 193.276 119.416 193.276 119.052V118.562H194.76V119.052C194.76 119.416 194.867 119.771 195.082 120.116C195.306 120.461 195.614 120.779 196.006 121.068C196.398 121.348 196.86 121.591 197.392 121.796C197.924 121.992 198.502 122.132 199.128 122.216L198.61 123.336ZM199.744 124.092V125.24H188.292V124.092H199.744ZM196.832 126.024H198.274V130.924H189.706V126.024H191.134V127.312H196.832V126.024ZM196.832 128.418H191.134V129.776H196.832V128.418ZM211.629 118.436V131.078H210.187V118.436H211.629ZM203.355 126.654C204.26 126.645 205.175 126.598 206.099 126.514C207.032 126.43 208.007 126.285 209.025 126.08L209.179 127.284C208.077 127.508 207.018 127.667 206.001 127.76C204.993 127.844 203.994 127.886 203.005 127.886H201.927V119.668H203.355V126.654ZM225.824 124.484H223.85V131.092H222.408V118.422H223.85V123.294H225.824V124.484ZM216.01 126.78C217.018 126.78 217.942 126.752 218.782 126.696C219.622 126.631 220.48 126.523 221.358 126.374L221.512 127.564C221.036 127.648 220.564 127.718 220.098 127.774C219.64 127.83 219.174 127.872 218.698 127.9C218.222 127.928 217.727 127.951 217.214 127.97C216.71 127.979 216.173 127.984 215.604 127.984H214.568V119.626H220.448V120.802H216.01V126.78ZM228.497 130.182H226.845V128.446H228.497V130.182Z" fill="#A4A3BB"/>
<rect x="76" y="216" width="248" height="20" fill="white" fill-opacity="0.1"/>
<rect x="25" y="261" width="299" height="20" fill="white" fill-opacity="0.1"/>
<circle cx="45.5" cy="225.5" r="20.5" fill="white" fill-opacity="0.1"/>
<path d="M54 235V233C54 231.939 53.5786 230.922 52.8284 230.172C52.0783 229.421 51.0609 229 50 229H42C40.9391 229 39.9217 229.421 39.1716 230.172C38.4214 230.922 38 231.939 38 233V235" stroke="#A4A3BB" stroke-width="2" stroke-linecap="round" stroke-linejoin="round"/>
<path d="M46 225C48.2091 225 50 223.209 50 221C50 218.791 48.2091 217 46 217C43.7909 217 42 218.791 42 221C42 223.209 43.7909 225 46 225Z" stroke="#A4A3BB" stroke-width="2" stroke-linecap="round" stroke-linejoin="round"/>
<defs>
<filter id="filter0_d" x="0" y="0" width="349" height="321" filterUnits="userSpaceOnUse" color-interpolation-filters="sRGB">
<feFlood flood-opacity="0" result="BackgroundImageFix"/>
<feColorMatrix in="SourceAlpha" type="matrix" values="0 0 0 0 0 0 0 0 0 0 0 0 0 0 0 0 0 0 127 0"/>
<feMorphology radius="5" operator="erode" in="SourceAlpha" result="effect1_dropShadow"/>
<feOffset dy="10"/>
<feGaussianBlur stdDeviation="5"/>
<feColorMatrix type="matrix" values="0 0 0 0 0.101961 0 0 0 0 0.12549 0 0 0 0 0.172549 0 0 0 0.04 0"/>
<feBlend mode="normal" in2="BackgroundImageFix" result="effect1_dropShadow"/>
<feBlend mode="normal" in="SourceGraphic" in2="effect1_dropShadow" result="shape"/>
</filter>
</defs>
</svg>
