<svg width="185" height="187" viewBox="0 0 185 187" fill="none" xmlns="http://www.w3.org/2000/svg">
<path fill-rule="evenodd" clip-rule="evenodd" d="M69.4375 82.971L8.47763 63.6418L26.3707 113.011L69.4375 82.971ZM27.8956 108.201L13.4903 68.4557L62.5712 84.0149L27.8956 108.201Z" fill="#1C1A54"/>
<path fill-rule="evenodd" clip-rule="evenodd" d="M69.9818 70.5668L14.9618 53.1232L31.111 97.6787L69.9818 70.5668Z" fill="#F62D44"/>
<path opacity="0.2" fill-rule="evenodd" clip-rule="evenodd" d="M165.664 112.212L124.57 93.9655L133.233 129.852L165.664 112.212ZM127.698 97.716L160.785 112.406L134.673 126.608L127.698 97.716Z" fill="#1C1A54"/>
<path opacity="0.4" fill-rule="evenodd" clip-rule="evenodd" d="M127.64 28.1042L101.074 42.8588L123.968 52.7832L127.64 28.1042ZM122.804 50.6881L104.373 42.6983L125.761 30.8177L122.804 50.6881Z" fill="#1C1A54"/>
<path fill-rule="evenodd" clip-rule="evenodd" d="M123.877 23.9778L99.9007 37.2955L120.562 46.252L123.877 23.9778Z" fill="#F62D44"/>
</svg>
