<svg width="55" height="48" viewBox="0 0 55 48" fill="none" xmlns="http://www.w3.org/2000/svg">
<g clip-path="url(#clip0_40_2363)">
<path d="M28.2287 21.6372C28.2287 21.6372 29.4288 37.4671 19.2373 39.7083" stroke="white" stroke-width="1.32357" stroke-linecap="round" stroke-linejoin="round"/>
<path d="M35.0002 11.7193C35.0002 10.0295 33.3281 8.66187 31.2634 8.66187C29.7236 8.66187 28.4221 9.42071 27.8486 10.5104C27.275 9.42512 25.9382 8.66187 24.4029 8.66187C22.3381 8.66187 20.666 10.0295 20.666 11.7193C20.666 18.5798 27.8486 20.7548 27.8486 20.7548C27.8486 20.7548 35.0002 18.0371 35.0002 11.7193Z" stroke="white" stroke-width="1.32357" stroke-linejoin="round"/>
<path d="M34.5458 31.1182C36.1429 31.6609 37.965 30.5667 38.6092 28.6696C39.0901 27.2578 38.7768 25.8151 37.9297 24.9372C39.1386 24.7607 40.2769 23.7768 40.7578 22.365C41.4019 20.4679 40.6298 18.4914 39.0327 17.9443C32.5384 15.734 28.2324 21.6371 28.2324 21.6371C28.2324 21.6371 28.5677 29.0843 34.5502 31.1182H34.5458Z" stroke="white" stroke-width="1.32357" stroke-linejoin="round"/>
<path d="M22.3519 31.6435C20.8342 32.3847 18.893 31.5244 18.015 29.7243C17.3621 28.3831 17.49 26.914 18.218 25.9345C16.9959 25.9125 15.7429 25.0786 15.0899 23.7374C14.212 21.9374 14.7282 19.877 16.2458 19.1358C22.4093 16.1225 27.4256 21.4388 27.4256 21.4388C27.4256 21.4388 28.03 28.8684 22.3519 31.6435Z" stroke="white" stroke-width="1.32357" stroke-linejoin="round"/>
</g>
<defs>
<clipPath id="clip0_40_2363">
<rect width="27.6449" height="32.37" fill="white" transform="translate(14 8)"/>
</clipPath>
</defs>
</svg>
