<svg width="55" height="48" viewBox="0 0 55 48" fill="none" xmlns="http://www.w3.org/2000/svg">
<g clip-path="url(#clip0_40_2362)">
<path d="M27.7373 30.7599C27.3791 30.7599 27.0859 30.4668 27.0859 30.1085V18.5496C27.0859 18.1913 27.3791 17.8982 27.7373 17.8982C28.0956 17.8982 28.3887 18.1913 28.3887 18.5496V30.1085C28.3887 30.4668 28.0989 30.7599 27.7373 30.7599Z" fill="white"/>
<path d="M34.3003 33.0496H21.178C20.8653 33.0496 20.5983 32.8281 20.5396 32.522L18.9177 24.0864C18.8688 23.8291 18.9795 23.5653 19.1978 23.4187L27.3825 18.0057C27.6007 17.8624 27.8841 17.8624 28.1023 18.0057L36.2838 23.4187C36.502 23.5653 36.6127 23.8259 36.5639 24.0864L34.9419 32.522C34.8833 32.8281 34.6162 33.0496 34.3036 33.0496H34.3003ZM21.7154 31.7468H33.7596L35.1992 24.2656L27.7375 19.3313L20.2758 24.2656L21.7154 31.7468V31.7468Z" fill="white"/>
<path d="M33.6881 20.0283C33.3298 20.0283 33.0367 19.7351 33.0367 19.3769V15.5369H22.4385V19.3769C22.4385 19.7351 22.1454 20.0283 21.7871 20.0283C21.4289 20.0283 21.1357 19.7351 21.1357 19.3769V14.8855C21.1357 14.5273 21.4289 14.2341 21.7871 14.2341H33.6881C34.0463 14.2341 34.3395 14.5273 34.3395 14.8855V19.3769C34.3395 19.7351 34.0463 20.0283 33.6881 20.0283Z" fill="white"/>
<path d="M27.2813 15.1949C26.9231 15.1949 26.6299 14.9017 26.6299 14.5435V11.3028H25.4151V14.5435C25.4151 14.9017 25.122 15.1949 24.7637 15.1949C24.4054 15.1949 24.1123 14.9017 24.1123 14.5435V10.6514C24.1123 10.2931 24.4054 10 24.7637 10H27.2813C27.6396 10 27.9327 10.2931 27.9327 10.6514V14.5435C27.9327 14.9017 27.6396 15.1949 27.2813 15.1949Z" fill="white"/>
<path d="M38.9382 36.1373H16.5401C16.1818 36.1373 15.8887 35.8441 15.8887 35.4859C15.8887 35.1276 16.1818 34.8345 16.5401 34.8345H38.9382C39.2965 34.8345 39.5896 35.1276 39.5896 35.4859C39.5896 35.8441 39.2965 36.1373 38.9382 36.1373Z" fill="white"/>
<path d="M40.8243 38.9996H14.6514C14.2931 38.9996 14 38.7064 14 38.3482C14 37.9899 14.2931 37.6968 14.6514 37.6968H40.8243C41.1826 37.6968 41.4757 37.9899 41.4757 38.3482C41.4757 38.7064 41.1826 38.9996 40.8243 38.9996Z" fill="white"/>
</g>
<defs>
<clipPath id="clip0_40_2362">
<rect width="27.4757" height="29" fill="white" transform="translate(14 10)"/>
</clipPath>
</defs>
</svg>
