<svg width="60" height="60" viewBox="0 0 60 60" fill="none" xmlns="http://www.w3.org/2000/svg">
<g clip-path="url(#clip0_50_2354)">
<path d="M37.5979 14.9736C36.328 13.7037 34.254 13.7037 32.9841 14.9736L23.418 24.5397C22.1481 25.8095 22.1481 27.8836 23.418 29.1535L32.6878 38.4233L46.8677 24.2434L37.5979 14.9736Z" fill="#1074E4"/>
<path d="M32.6878 38.4233L32.9841 38.7196C34.254 39.9894 36.328 39.9894 37.5979 38.7196L40.7302 35.5873L46.3175 41.1746C46.8254 41.6826 47.672 41.6826 48.1799 41.1746L49.5767 39.7778C50.0847 39.2699 50.0847 38.4233 49.5767 37.9154L44.0318 32.2857L47.164 29.1535C48.4339 27.8836 48.4339 25.8095 47.164 24.5397L46.8677 24.2434L32.6878 38.4233Z" fill="#C89449"/>
<path d="M28.836 17.8518C28.1587 16.1587 26.254 15.3545 24.5609 16.0317L12.0317 21.1111C10.3386 21.7884 9.53439 23.6931 10.2116 25.3862L15.1217 37.5344L33.746 30.0423L28.836 17.8518Z" fill="#FF4E00"/>
<path d="M15.164 37.5344L15.3333 37.9153C16.0106 39.6084 17.9154 40.4127 19.6085 39.7354L23.7566 38.0846L26.7196 45.4074C26.9736 46.0846 27.7355 46.3809 28.4127 46.127L30.2751 45.365C30.9524 45.1111 31.2487 44.3492 30.9947 43.6719L28.0318 36.3492L32.1799 34.6984C33.873 34.0211 34.6773 32.1164 34 30.4232L33.8307 30.0423L15.164 37.5344Z" fill="#C89449"/>
<path d="M13.5132 41.2169C15.4535 41.2169 17.0265 39.644 17.0265 37.7037C17.0265 35.7634 15.4535 34.1905 13.5132 34.1905C11.5729 34.1905 10 35.7634 10 37.7037C10 39.644 11.5729 41.2169 13.5132 41.2169Z" fill="#DBDBDB"/>
</g>
<defs>
<clipPath id="clip0_50_2354">
<rect width="40" height="32.2116" fill="white" transform="translate(10 14)"/>
</clipPath>
</defs>
</svg>
