<svg width="60" height="60" viewBox="0 0 60 60" fill="none" xmlns="http://www.w3.org/2000/svg">
<g clip-path="url(#clip0_2_238)">
<path d="M26.6106 20.075H16.9284L11.632 27.3817V34.6268H26.6106V20.075Z" fill="#FFD655"/>
<path d="M11.632 34.6268V38.1592L26.6106 38.8894V34.6268H11.632Z" fill="#FFBE3B"/>
<path d="M48.368 16.6702C48.368 15.1965 47.1714 14 45.6978 14H27.7059C26.2323 14 25.0357 15.1965 25.0357 16.6702V34.5741H48.368V16.6702Z" fill="#1074E4"/>
<path d="M48.368 34.5741H25.0357V36.8352H48.368V34.5741Z" fill="#DCDDDD"/>
<path d="M50 38.7839C50 39.888 49.1026 40.7854 47.9985 40.7854H12.0015C10.8974 40.7854 10 39.888 10 38.7839C10 37.6797 10.8974 36.7823 12.0015 36.7823H47.9985C49.1026 36.7823 50 37.6797 50 38.7839V38.7839Z" fill="#566F9B"/>
<path d="M14.0823 27.3817L17.839 21.9929H21.2042V27.3817H14.0823Z" fill="#1074E4"/>
<path d="M27.0945 42.2239C27.0945 39.954 25.2557 38.1152 22.9858 38.1152C20.7159 38.1152 18.8772 39.954 18.8772 42.2239C18.8772 44.4938 20.7159 46.3325 22.9858 46.3325C25.2557 46.3325 27.0945 44.4938 27.0945 42.2239Z" fill="#466289"/>
<path d="M24.9961 42.2238C24.9961 41.1153 24.0987 40.2135 22.9858 40.2135C21.8729 40.2135 20.9755 41.1153 20.9755 42.2238C20.9755 43.3324 21.8773 44.2342 22.9858 44.2342C24.0943 44.2342 24.9961 43.3324 24.9961 42.2238Z" fill="#566F9B"/>
<path d="M44.6332 42.2239C44.6332 39.954 42.7944 38.1152 40.5246 38.1152C38.2547 38.1152 36.4159 39.954 36.4159 42.2239C36.4159 44.4938 38.2547 46.3325 40.5246 46.3325C42.7944 46.3325 44.6332 44.4938 44.6332 42.2239Z" fill="#466289"/>
<path d="M42.5305 42.2238C42.5305 41.1153 41.6331 40.2135 40.5202 40.2135C39.4072 40.2135 38.5098 41.1153 38.5098 42.2238C38.5098 43.3324 39.4072 44.2342 40.5202 44.2342C41.6331 44.2342 42.5305 43.3324 42.5305 42.2238V42.2238Z" fill="#566F9B"/>
</g>
<defs>
<clipPath id="clip0_2_238">
<rect width="40" height="32.3326" fill="white" transform="translate(10 14)"/>
</clipPath>
</defs>
</svg>
