<svg width="60" height="60" viewBox="0 0 60 60" fill="none" xmlns="http://www.w3.org/2000/svg">
<path d="M15.0511 27.8159L12.8621 18.0347L10.3198 22.2391L4.63868 18L5.44365 23.9764L0 24.7119L3.46888 28.7309L0.272182 32.5647L8.55348 33.9198" fill="#FFB32C"/>
<path d="M57.0541 36.8559H6.06909V33.2364C6.06909 33.2364 5.97064 28.2445 10.1808 26.7793H16.2499L23.7841 20.4207C23.7841 20.4207 25.7415 18.4633 27.8958 18.3648H41.4007C41.4007 18.3648 44.5337 18.1679 47.4698 20.5191L54.2106 25.7427L56.3012 26.733C56.3012 26.733 58.6524 27.3932 59.0172 29.5938V36.8385L57.0598 36.8617L57.0541 36.8559Z" fill="#FF4E00"/>
<path d="M30.1891 20.3222C30.1891 20.3222 27.3746 20.1948 25.4404 22.2622L19.7651 27.1673H33.6232V20.3222H30.1833H30.1891Z" fill="#DEE9FF"/>
<path opacity="0.5" d="M30.1891 20.3223C30.1891 20.3223 27.3746 20.1949 25.4404 22.2623L19.7651 27.1674H24.6875L32.1349 20.3165H30.1891V20.3223Z" fill="white"/>
<path d="M40.4857 20.3222C40.4857 20.3222 43.5897 20.1948 45.7208 22.2622L51.9753 27.1673H36.6983V20.3222H40.4857Z" fill="#DEE9FF"/>
<path d="M59.3995 36.6705C59.3995 37.4755 58.8725 38.1299 58.2239 38.1299H6.75244C6.10383 38.1299 5.57684 37.4755 5.57684 36.6705V36.1841C5.57684 35.3791 6.10383 34.7247 6.75244 34.7247H58.2297C58.8783 34.7247 59.4053 35.3791 59.4053 36.1841V36.6705H59.3995Z" fill="#C9C9C9"/>
<path d="M21.9889 37.1918C21.9889 39.7341 19.9272 41.7957 17.3849 41.7957C14.8426 41.7957 12.781 39.7341 12.781 37.1918C12.781 34.6495 14.8426 32.5878 17.3849 32.5878C19.9272 32.5878 21.9889 34.6495 21.9889 37.1918Z" fill="#515151"/>
<path d="M8.88357 32.5878C8.75616 33.2248 8.2118 33.6534 7.65585 33.5433L7.57478 33.526C7.02462 33.4159 6.68295 32.8137 6.80456 32.1766L6.99567 31.2153C7.12307 30.5783 7.66743 30.1555 8.22338 30.2656L8.30446 30.283C8.85461 30.393 9.19629 30.9953 9.07468 31.6323L8.88357 32.5936V32.5878Z" fill="#E8EAE8"/>
<path d="M19.6319 37.2497C19.6319 38.4716 18.6416 39.4619 17.4197 39.4619C16.1977 39.4619 15.2075 38.4716 15.2075 37.2497C15.2075 36.0277 16.1977 35.0317 17.4197 35.0317C18.6416 35.0317 19.6319 36.022 19.6319 37.2497Z" fill="#C9C9C9"/>
<path d="M43.5376 37.1918C43.5376 39.7341 45.5992 41.7957 48.1415 41.7957C50.6838 41.7957 52.7455 39.7341 52.7455 37.1918C52.7455 34.6495 50.6838 32.5878 48.1415 32.5878C45.5992 32.5878 43.5376 34.6495 43.5376 37.1918Z" fill="#515151"/>
<path d="M45.8946 37.2497C45.8946 38.4716 46.8849 39.4619 48.1068 39.4619C49.3287 39.4619 50.3248 38.4716 50.3248 37.2497C50.3248 36.0277 49.3345 35.0317 48.1068 35.0317C46.8791 35.0317 45.8946 36.022 45.8946 37.2497Z" fill="#C9C9C9"/>
</svg>
