<svg width="150" height="108" viewBox="0 0 150 108" fill="none" xmlns="http://www.w3.org/2000/svg">
<g clip-path="url(#clip0_62_843)">
<path d="M83.5498 65.0327C83.5498 65.0327 64.7025 68.5613 52.3695 78.2818C40.0365 88.0023 23.5981 108.851 23.2588 109.157C22.9195 109.479 19.5098 119.658 19.5098 119.658C19.5098 119.658 20.9008 119.403 38.374 129.225C55.7963 139.014 81.955 136.401 81.955 136.401C81.955 136.401 103.076 132.228 106.044 134.908V106.595L101.701 81.5898L95.1872 69.9354L83.5498 65.0327Z" fill="#6FB92C"/>
<path d="M73.9476 137.589C71.844 137.589 69.3504 137.521 66.6361 137.351C61.5298 137.012 56.7119 136.333 52.3351 135.316C46.8387 134.043 41.987 132.245 37.9495 129.972C31.4013 126.291 26.363 123.61 22.9701 121.982C20.3746 120.743 19.6111 120.54 19.4754 120.523C19.2379 120.506 19.0174 120.404 18.8477 120.217C18.6442 119.98 18.5763 119.658 18.6781 119.369C18.6781 119.352 19.5433 116.791 20.4255 114.229C20.9514 112.719 21.3755 111.515 21.6978 110.616C21.9014 110.073 22.0539 109.666 22.1726 109.36C22.3762 108.868 22.478 108.682 22.6137 108.529C22.6816 108.444 22.987 108.071 23.3433 107.647C25.0058 105.611 29.4504 100.183 34.7602 94.279C41.4441 86.8487 47.1781 81.2335 51.8263 77.5692C54.6933 75.313 58.1369 73.2094 62.0556 71.2925C65.194 69.7826 68.6378 68.3746 72.3021 67.1532C78.5449 65.0666 83.1932 64.1844 83.3798 64.1505C83.5494 64.1166 83.7189 64.1335 83.8716 64.2014L95.526 69.121C95.7126 69.1889 95.8484 69.3246 95.9501 69.4942L102.465 81.1487C102.515 81.2335 102.549 81.3353 102.566 81.4201L106.909 106.425C106.926 106.476 106.926 106.527 106.926 106.578V134.891C106.926 135.231 106.723 135.553 106.417 135.689C106.095 135.824 105.739 135.774 105.484 135.536C105.382 135.434 105.026 135.214 104.042 135.044C103.279 134.908 102.278 134.857 101.056 134.857C98.9698 134.874 96.2555 135.078 93.0154 135.485C87.4511 136.181 82.1923 137.216 82.1414 137.233C82.1075 137.233 82.0905 137.249 82.0565 137.249C81.9887 137.249 80.3601 137.419 77.6459 137.504C76.611 137.572 75.3726 137.589 73.9476 137.589ZM20.6291 119.064C21.104 119.233 21.7826 119.522 22.7496 119.963C26.1255 121.524 31.52 124.374 38.7977 128.462C47.653 133.449 58.8833 135.095 66.7547 135.621C74.9485 136.164 81.2762 135.604 81.836 135.553C82.3619 135.451 87.4341 134.467 92.7778 133.806C100.056 132.89 103.465 133.076 105.179 133.551V106.68L100.887 81.8951L94.5931 70.6478L83.4645 65.9487C82.4127 66.1693 78.1716 67.0684 72.8448 68.8496C67.2127 70.7326 59.1886 74.0237 52.9288 78.9773C48.0092 82.8621 39.1199 91.1746 24.7173 108.783C24.2423 109.377 24.0558 109.598 23.954 109.7C23.6147 110.361 22.071 114.789 20.6291 119.064Z" fill="#040000"/>
<path d="M40.1209 106.765C40.2906 107.155 44.5995 116.553 54.9477 119.878C62.7173 122.372 71.5216 120.811 81.1064 115.23C88.6724 110.819 95.102 109.869 100.259 112.397C104.449 114.449 107.706 118.674 110.166 123.424L117.223 115.874C115.459 112.974 113.389 110.242 110.913 107.935C109.047 106.188 106.943 104.678 104.619 103.524C96.3235 99.4531 86.7386 100.505 76.136 106.697C69.1297 110.785 63.0565 112.057 58.086 110.497C51.9449 108.58 49.1628 102.727 49.1458 102.71C48.0262 100.216 45.1084 99.0968 42.6146 100.216C40.1378 101.353 39.0182 104.271 40.1209 106.765Z" fill="white"/>
<path d="M45.0413 111.837C45.1431 111.532 45.2618 111.226 45.3805 110.938C45.635 110.361 45.9402 109.835 46.3304 109.326L46.3644 109.275L46.3983 109.224C46.4153 109.207 46.4153 109.19 46.4323 109.174C46.4493 109.157 46.4493 109.14 46.4663 109.123C46.4832 109.089 46.5002 109.072 46.5172 109.055C46.5511 109.004 46.585 108.97 46.6189 108.919L46.6359 108.902C46.7377 108.766 46.8563 108.648 46.9921 108.495C47.009 108.461 47.043 108.427 47.077 108.41C47.1109 108.376 47.1447 108.325 47.1786 108.291C47.1786 108.291 47.1787 108.291 47.1956 108.291C47.2295 108.257 47.2636 108.224 47.2975 108.173C47.3314 108.139 47.3483 108.122 47.3822 108.088L47.3992 108.071L47.4162 108.054C47.4501 108.02 47.4841 107.986 47.518 107.952C47.552 107.918 47.6028 107.867 47.6367 107.816C47.6537 107.782 47.6877 107.766 47.7046 107.749C47.7555 107.698 47.8234 107.63 47.8912 107.545C48.1117 107.291 48.1966 106.951 48.1118 106.68C48.0778 106.595 48.044 106.527 47.9931 106.476C47.8574 106.341 47.6707 106.256 47.4501 106.273C47.4162 106.273 47.3824 106.273 47.3654 106.273H47.3484C47.3484 106.273 47.3314 106.273 47.3145 106.273H47.2296C47.1956 106.273 47.1618 106.29 47.1449 106.29H47.1279C47.094 106.29 47.0599 106.307 47.009 106.307C46.9072 106.324 46.7716 106.357 46.6189 106.391C46.568 106.408 46.5002 106.425 46.4493 106.442C46.4493 106.442 46.4493 106.442 46.4323 106.442C46.3645 106.459 46.3136 106.476 46.2627 106.493C46.127 106.527 46.0251 106.578 45.9233 106.629L45.8895 106.646C45.8895 106.646 45.8726 106.646 45.8726 106.663C45.6011 106.782 45.3635 106.9 45.143 107.036C45.0412 107.104 44.9394 107.155 44.8545 107.223C44.8376 107.24 44.8208 107.24 44.8038 107.257L44.7698 107.274C44.7359 107.307 44.7019 107.324 44.651 107.358L44.6002 107.392L44.5833 107.409C44.5663 107.426 44.5323 107.443 44.4984 107.477C44.4984 107.477 44.4983 107.494 44.4814 107.494L44.4135 107.545C44.3965 107.562 44.3967 107.562 44.3797 107.579C44.3458 107.613 44.2947 107.647 44.2439 107.698L44.1082 107.816C44.0573 107.85 44.0233 107.884 44.0063 107.918L43.8707 108.054C43.8707 108.054 43.8707 108.054 43.8537 108.071C43.8367 108.105 43.8027 108.122 43.7858 108.139L43.769 108.156C43.5654 108.359 43.3787 108.58 43.1921 108.8C43.1073 108.919 43.0224 109.021 42.9376 109.14C42.9376 109.14 42.9378 109.157 42.9208 109.157C42.8869 109.207 42.8529 109.241 42.8359 109.292L42.8189 109.309C42.785 109.36 42.751 109.411 42.734 109.445C42.734 109.462 42.7172 109.479 42.7003 109.496C42.7003 109.496 42.7003 109.496 42.7003 109.513C42.5645 109.75 42.4287 110.005 42.3269 110.242C42.293 110.31 42.2592 110.378 42.2422 110.446C42.9038 111.311 43.701 112.261 44.634 113.228C44.6679 113.075 44.702 112.94 44.7359 112.804C44.8546 112.465 44.9565 112.142 45.0413 111.837Z" fill="#3E3A39"/>
<path d="M88.4526 110.887C88.0794 110.276 87.7909 109.632 87.5364 108.936V108.919L87.5195 108.868L87.5025 108.801C87.5025 108.784 87.4855 108.767 87.4855 108.733C87.4685 108.716 87.4685 108.682 87.4685 108.665C87.4516 108.631 87.4517 108.597 87.4348 108.563C87.4178 108.495 87.3838 108.427 87.3838 108.376C87.3838 108.359 87.3838 108.359 87.3838 108.359C87.3329 108.173 87.2651 107.969 87.2142 107.766V107.749C87.1973 107.698 87.1972 107.664 87.1803 107.613C87.1633 107.545 87.1463 107.494 87.1293 107.426C87.1293 107.426 87.1293 107.426 87.1293 107.409C87.1124 107.359 87.0953 107.291 87.0784 107.24C87.0784 107.189 87.0614 107.138 87.0444 107.104L87.0276 107.07V107.053C87.0107 107.002 87.0106 106.951 86.9937 106.901C86.9767 106.833 86.9597 106.765 86.9427 106.697C86.9258 106.663 86.9257 106.612 86.9088 106.578C86.8918 106.493 86.8578 106.375 86.8239 106.256C86.7221 105.866 86.4676 105.577 86.1962 105.492C86.1114 105.476 86.0267 105.459 85.9589 105.476C85.7723 105.509 85.6026 105.645 85.5008 105.866C85.4839 105.9 85.4669 105.934 85.4669 105.951V105.967C85.4669 105.984 85.4499 105.984 85.4499 106.001L85.4159 106.086C85.399 106.12 85.382 106.154 85.382 106.188V106.205C85.365 106.239 85.3482 106.273 85.3312 106.324C85.3312 106.324 85.3312 106.324 85.3312 106.341C85.2973 106.459 85.2463 106.612 85.2124 106.782C85.1954 106.85 85.1784 106.917 85.1614 106.985V107.002C85.1444 107.07 85.1274 107.138 85.1274 107.206V107.223C85.0935 107.376 85.0767 107.511 85.0597 107.647V107.681C85.0597 107.698 85.0597 107.698 85.0597 107.715C85.0258 108.054 85.0088 108.359 85.0088 108.665C85.0088 108.801 85.0088 108.936 85.0258 109.055C85.0258 109.089 85.0258 109.106 85.0258 109.14C85.0258 109.157 85.0258 109.157 85.0258 109.174C85.0258 109.225 85.0258 109.292 85.0428 109.343V109.411V109.428C85.0428 109.462 85.0428 109.496 85.0597 109.547C85.0597 109.564 85.0597 109.564 85.0597 109.564L85.0767 109.666C85.0767 109.666 85.0767 109.666 85.0767 109.683C85.0767 109.7 85.0767 109.717 85.0767 109.734C85.0767 109.784 85.0937 109.852 85.1107 109.937L85.1444 110.141C85.1614 110.209 85.1614 110.259 85.1784 110.31L85.2124 110.531V110.548C85.2124 110.599 85.2293 110.633 85.2293 110.667V110.684C85.2972 111.006 85.399 111.328 85.5008 111.651C85.5517 111.82 85.6195 111.956 85.6704 112.109C85.6704 112.109 85.6704 112.126 85.6874 112.126C85.7044 112.176 85.7384 112.244 85.7553 112.295L85.7721 112.329C85.806 112.397 85.8231 112.448 85.857 112.499C85.874 112.516 85.874 112.533 85.874 112.55V112.567C85.9418 112.719 86.0097 112.855 86.0775 112.991C87.1293 112.567 88.1473 112.21 89.1482 111.922C89.1312 111.888 89.0972 111.854 89.0803 111.82C88.8428 111.498 88.6392 111.192 88.4526 110.887Z" fill="#3E3A39"/>
<path d="M102.024 111.481C102.109 110.768 102.262 110.073 102.499 109.377L102.516 109.309L102.533 109.242C102.533 109.225 102.55 109.191 102.55 109.174C102.55 109.157 102.567 109.123 102.567 109.106C102.584 109.072 102.584 109.038 102.601 109.004C102.618 108.936 102.652 108.868 102.669 108.817C102.669 108.817 102.669 108.8 102.686 108.8C102.754 108.614 102.838 108.427 102.923 108.224V108.207C102.94 108.156 102.957 108.122 102.974 108.071C102.991 108.003 103.025 107.952 103.042 107.901C103.042 107.901 103.042 107.901 103.042 107.884C103.076 107.834 103.093 107.783 103.11 107.715L103.178 107.579L103.195 107.545C103.195 107.528 103.195 107.528 103.212 107.528C103.228 107.477 103.262 107.426 103.279 107.375C103.296 107.308 103.33 107.257 103.364 107.189C103.381 107.155 103.398 107.121 103.415 107.07C103.449 106.985 103.5 106.883 103.551 106.782C103.704 106.408 103.687 106.018 103.517 105.798C103.466 105.73 103.398 105.679 103.33 105.645C103.161 105.56 102.957 105.56 102.736 105.679C102.703 105.696 102.669 105.713 102.652 105.73H102.635C102.635 105.73 102.618 105.73 102.618 105.747L102.55 105.798C102.516 105.815 102.482 105.832 102.465 105.849L102.448 105.866C102.414 105.883 102.38 105.917 102.329 105.933C102.228 106.001 102.109 106.086 101.973 106.205C101.922 106.239 101.871 106.29 101.821 106.341C101.77 106.392 101.719 106.442 101.668 106.476H101.651C101.532 106.578 101.447 106.68 101.345 106.765L101.312 106.799L101.295 106.816C101.057 107.053 100.853 107.291 100.667 107.545C100.582 107.647 100.497 107.766 100.429 107.867C100.412 107.884 100.396 107.918 100.379 107.935C100.379 107.952 100.362 107.952 100.362 107.969C100.328 108.02 100.294 108.054 100.277 108.105L100.243 108.156L100.226 108.173C100.209 108.207 100.192 108.224 100.158 108.275C100.158 108.275 100.158 108.292 100.141 108.292L100.09 108.376C100.09 108.376 100.09 108.376 100.09 108.393C100.09 108.41 100.073 108.427 100.056 108.444C100.022 108.495 99.9884 108.546 99.9545 108.614L99.8526 108.8C99.8187 108.851 99.8017 108.902 99.7847 108.936L99.683 109.14V109.157C99.666 109.191 99.649 109.225 99.6321 109.259V109.275C99.4964 109.564 99.3607 109.886 99.2589 110.208C99.208 110.378 99.1572 110.531 99.1063 110.683C99.1063 110.7 99.1063 110.7 99.1063 110.717C99.0893 110.785 99.0723 110.836 99.0553 110.904L99.0384 110.938C99.0214 111.006 99.0044 111.074 98.9874 111.125C98.9874 111.142 98.9704 111.159 98.9704 111.175V111.192C98.9365 111.345 98.9027 111.481 98.8857 111.633C99.2759 111.786 99.649 111.939 100.022 112.125C100.684 112.448 101.328 112.838 101.956 113.262C101.956 113.025 101.956 112.804 101.973 112.584C101.956 112.193 101.973 111.837 102.024 111.481Z" fill="#3E3A39"/>
<path d="M44.6506 113.991C44.4471 113.991 44.2606 113.907 44.1079 113.771C43.2427 112.872 42.4283 111.922 41.6649 110.921C41.5122 110.717 41.4615 110.429 41.5632 110.192C41.5972 110.107 41.631 110.039 41.6649 109.971C41.7837 109.7 41.9363 109.411 42.089 109.157C42.089 109.14 42.089 109.14 42.106 109.14C42.106 109.123 42.123 109.123 42.123 109.106C42.1569 109.055 42.174 109.004 42.2249 108.936L42.2419 108.919C42.2758 108.868 42.3096 108.817 42.3265 108.783C42.3265 108.767 42.3435 108.767 42.3435 108.767C42.4284 108.631 42.5132 108.512 42.615 108.393C42.8186 108.139 43.0221 107.884 43.2427 107.664C43.2596 107.63 43.2937 107.613 43.3276 107.579L43.3446 107.562L43.4802 107.426C43.5141 107.392 43.548 107.358 43.6158 107.308L43.7517 107.189C43.8196 107.138 43.8704 107.087 43.9213 107.053C43.9213 107.053 43.9383 107.036 43.9553 107.036L44.023 106.985L44.04 106.968C44.0739 106.934 44.1079 106.917 44.1418 106.9L44.2096 106.85C44.2435 106.816 44.2945 106.782 44.3284 106.765C44.3454 106.748 44.3624 106.748 44.3794 106.731C44.3963 106.714 44.4131 106.697 44.4301 106.697C44.5149 106.646 44.6168 106.561 44.7525 106.493C45.007 106.341 45.2784 106.205 45.5668 106.069C45.5837 106.069 45.5838 106.052 45.6007 106.052L45.6347 106.035C45.7365 105.984 45.8722 105.933 46.0248 105.9H46.0418C46.0927 105.883 46.1606 105.866 46.2284 105.832H46.2454C46.3132 105.815 46.3811 105.798 46.432 105.781C46.6016 105.73 46.7713 105.696 46.89 105.679H46.907C46.9579 105.662 47.0087 105.662 47.0596 105.662H47.0766C47.1105 105.662 47.1444 105.645 47.1953 105.645H47.2632C47.2802 105.645 47.2972 105.645 47.3141 105.645H47.3311C47.3651 105.645 47.3989 105.645 47.4498 105.645C47.8909 105.628 48.2981 105.781 48.5865 106.086C48.7052 106.222 48.7901 106.375 48.8579 106.544C49.0446 107.07 48.9087 107.681 48.5016 108.139C48.4167 108.241 48.3489 108.308 48.298 108.376C48.281 108.393 48.264 108.41 48.2301 108.444C48.1792 108.495 48.1284 108.546 48.0944 108.58C48.0605 108.614 48.0267 108.648 48.0097 108.665C47.9928 108.682 47.9928 108.682 47.9928 108.682L47.9758 108.699C47.9418 108.733 47.9248 108.767 47.8909 108.783C47.8569 108.817 47.8231 108.851 47.7892 108.902L47.7722 108.919C47.7383 108.953 47.7212 108.987 47.6873 109.021C47.6534 109.055 47.6363 109.089 47.6024 109.106C47.4837 109.242 47.365 109.377 47.2802 109.479C47.2802 109.479 47.2632 109.496 47.2632 109.513C47.2462 109.547 47.2122 109.581 47.1783 109.615C47.1613 109.649 47.1445 109.666 47.1276 109.683C47.1106 109.7 47.1106 109.7 47.0936 109.717C47.0766 109.733 47.0766 109.75 47.0596 109.767L46.9917 109.852C46.6524 110.31 46.364 110.802 46.1265 111.328C46.0078 111.6 45.9061 111.871 45.8043 112.159C45.7025 112.448 45.6176 112.753 45.5158 113.092C45.4819 113.211 45.4481 113.347 45.4142 113.5C45.3463 113.771 45.1426 113.975 44.8712 114.042C44.7694 113.975 44.7185 113.991 44.6506 113.991ZM43.124 110.344C43.4972 110.819 43.8873 111.294 44.2945 111.752C44.3114 111.701 44.3284 111.65 44.3454 111.6C44.4642 111.277 44.5829 110.955 44.7186 110.65C44.99 110.022 45.3293 109.445 45.7534 108.885L45.7873 108.834L45.8043 108.817L45.8383 108.767C45.8552 108.75 45.8553 108.733 45.8722 108.716C45.8892 108.699 45.906 108.682 45.923 108.665C45.9399 108.648 45.9569 108.614 45.9739 108.597C46.0078 108.546 46.0588 108.495 46.0928 108.444C46.2115 108.308 46.3302 108.156 46.4659 108.02V108.003C46.4999 107.969 46.5167 107.952 46.5506 107.918C46.5846 107.884 46.6356 107.833 46.6695 107.783C46.7034 107.749 46.7372 107.715 46.7712 107.681C46.7712 107.681 46.7882 107.681 46.7882 107.664C46.8221 107.63 46.8391 107.613 46.8731 107.579L46.907 107.545C46.9409 107.511 46.9748 107.46 47.0087 107.426C47.0426 107.392 47.0936 107.342 47.1276 107.308C47.1445 107.274 47.1783 107.257 47.1953 107.223C47.2462 107.172 47.2972 107.104 47.3651 107.036L47.3819 107.019H47.3651C47.3312 107.019 47.3141 107.019 47.2972 107.019H47.2802C47.2632 107.019 47.2292 107.036 47.1953 107.036C47.0935 107.053 46.9748 107.07 46.8561 107.104C46.8052 107.121 46.7543 107.138 46.7035 107.155C46.6526 107.172 46.6015 107.189 46.5506 107.206H46.5336C46.4319 107.24 46.3302 107.274 46.2454 107.325L46.2114 107.341C45.9739 107.443 45.7534 107.545 45.5668 107.681C45.5668 107.681 45.5668 107.681 45.5498 107.681C45.465 107.732 45.3801 107.783 45.2953 107.833C45.2783 107.85 45.2615 107.85 45.2446 107.867C45.2446 107.867 45.2445 107.867 45.2276 107.867C45.1936 107.884 45.1596 107.918 45.1257 107.935L45.0917 107.969H45.0747C45.0578 107.986 45.024 108.003 45.007 108.02L44.9221 108.088C44.9052 108.105 44.8882 108.105 44.8882 108.122C44.8542 108.156 44.8204 108.173 44.7865 108.207L44.6506 108.325C44.6167 108.342 44.5999 108.376 44.5829 108.393L44.4471 108.529C44.4301 108.546 44.4133 108.563 44.3963 108.58L44.3794 108.597C44.2097 108.767 44.04 108.97 43.8704 109.174C43.7855 109.275 43.7177 109.377 43.6498 109.479C43.6159 109.53 43.5988 109.564 43.5649 109.615L43.5481 109.649C43.5142 109.683 43.4972 109.733 43.4802 109.767C43.4632 109.784 43.4632 109.801 43.4462 109.818C43.2936 110.039 43.2088 110.191 43.124 110.344Z" fill="#3E3A39"/>
<path d="M86.0434 113.703C85.772 113.703 85.5175 113.55 85.3818 113.296C85.2969 113.143 85.2291 112.991 85.1612 112.838C85.1612 112.838 85.1612 112.821 85.1442 112.821C85.1442 112.804 85.1272 112.804 85.1272 112.787C85.1103 112.736 85.0765 112.668 85.0425 112.583L85.0256 112.549C85.0086 112.482 84.9746 112.431 84.9407 112.363C84.9407 112.363 84.9406 112.346 84.9237 112.329C84.8558 112.176 84.805 112.007 84.7371 111.837C84.6184 111.481 84.5167 111.141 84.4488 110.785V110.768C84.4488 110.734 84.4318 110.683 84.4149 110.649C84.4149 110.633 84.4149 110.632 84.4149 110.632L84.3639 110.412C84.3639 110.361 84.3469 110.293 84.33 110.225L84.296 110.022C84.279 109.937 84.2792 109.852 84.2623 109.784C84.2623 109.767 84.2623 109.75 84.2623 109.733L84.2453 109.615C84.2453 109.615 84.2453 109.598 84.2453 109.581C84.2453 109.53 84.2283 109.496 84.2283 109.445V109.428L84.9746 109.36L84.2283 109.428V109.36C84.2283 109.292 84.2113 109.241 84.2113 109.191C84.2113 109.174 84.2113 109.157 84.2113 109.123C84.2113 109.106 84.2113 109.072 84.2113 109.055C84.2113 108.936 84.1943 108.783 84.1943 108.631C84.1943 108.291 84.2113 107.952 84.2453 107.596C84.2453 107.579 84.2453 107.562 84.2453 107.545V107.511C84.2622 107.375 84.2791 107.223 84.313 107.053V107.036C84.33 106.985 84.33 106.9 84.347 106.816V106.799C84.3639 106.714 84.3809 106.646 84.3979 106.578C84.4488 106.374 84.4996 106.205 84.5335 106.086V106.069C84.5505 106.018 84.5675 105.967 84.5845 105.916V105.899C84.5845 105.866 84.6015 105.832 84.6354 105.781L84.6694 105.696C84.6694 105.679 84.6864 105.662 84.6864 105.645V105.628C84.7033 105.611 84.7201 105.56 84.7371 105.526C84.9407 105.085 85.2971 104.78 85.7381 104.712C85.9417 104.678 86.1283 104.695 86.3149 104.746C86.8577 104.899 87.2819 105.374 87.4515 106.018C87.4855 106.154 87.5193 106.273 87.5362 106.358C87.5362 106.391 87.5532 106.425 87.5702 106.459C87.5872 106.544 87.6042 106.612 87.6211 106.68C87.6381 106.731 87.6381 106.782 87.6551 106.816C87.6551 106.833 87.6549 106.833 87.6719 106.849V106.883C87.6888 106.934 87.6889 106.985 87.7058 107.019C87.7228 107.07 87.7398 107.138 87.7568 107.189V107.206C87.7738 107.24 87.7738 107.308 87.7907 107.358C87.8077 107.409 87.8077 107.46 87.8247 107.494C87.8756 107.698 87.9265 107.884 87.9943 108.054C87.9943 108.071 87.9943 108.071 88.0113 108.088C88.0283 108.139 88.0453 108.19 88.0622 108.258C88.0792 108.291 88.079 108.325 88.096 108.359C88.096 108.376 88.113 108.393 88.113 108.41V108.427C88.113 108.444 88.13 108.478 88.13 108.495L88.1639 108.614C88.4014 109.258 88.6728 109.852 89.0121 110.446C89.1818 110.734 89.3685 111.023 89.5721 111.294C89.589 111.328 89.6228 111.345 89.6398 111.379C89.7755 111.583 89.8265 111.837 89.7417 112.057C89.6569 112.295 89.4702 112.465 89.2496 112.533C88.2827 112.821 87.2648 113.16 86.2469 113.567C86.23 113.686 86.1452 113.703 86.0434 113.703ZM86.0604 106.391C86.0604 106.408 86.0434 106.408 86.0434 106.425V106.442C86.0264 106.476 86.0264 106.493 86.0094 106.544C85.9755 106.646 85.9247 106.782 85.9077 106.917C85.8908 106.985 85.8738 107.036 85.8568 107.104C85.8398 107.172 85.8398 107.223 85.8228 107.291V107.308C85.8059 107.426 85.7889 107.562 85.7719 107.681L85.7551 107.732C85.7212 108.037 85.7042 108.325 85.7042 108.597V108.614C85.7042 108.732 85.7042 108.851 85.7212 108.97C85.7212 109.004 85.7212 109.021 85.7212 109.055V109.072C85.7212 109.123 85.7212 109.174 85.7381 109.224V109.309C85.7381 109.343 85.7381 109.377 85.7381 109.411L85.7551 109.53C85.7551 109.547 85.7551 109.564 85.7551 109.581C85.7551 109.632 85.7719 109.699 85.7719 109.75L85.8059 109.954C85.8059 110.005 85.8228 110.039 85.8228 110.09L85.8738 110.31C85.8738 110.344 85.8908 110.378 85.8908 110.412V110.429C85.9586 110.717 86.0435 111.023 86.1453 111.328C86.1962 111.481 86.247 111.616 86.2979 111.752V111.769C86.3149 111.82 86.3488 111.888 86.3658 111.939L86.3828 111.973C86.8917 111.786 87.4005 111.599 87.8924 111.447C87.8585 111.379 87.8077 111.311 87.7738 111.243C87.3836 110.582 87.0614 109.903 86.8069 109.157L86.7899 109.089C86.7899 109.089 86.7899 109.089 86.7899 109.072L86.7729 109.004C86.7729 108.987 86.756 108.97 86.756 108.936V108.919C86.756 108.902 86.739 108.868 86.739 108.851C86.722 108.817 86.722 108.783 86.705 108.749C86.688 108.682 86.671 108.614 86.6371 108.546V108.529C86.5692 108.342 86.5184 108.122 86.4675 107.918V107.901C86.4675 107.901 86.4675 107.901 86.4675 107.884C86.4505 107.833 86.4505 107.799 86.4335 107.749C86.4166 107.681 86.3998 107.613 86.3828 107.562V107.545C86.3658 107.494 86.3488 107.426 86.3318 107.375V107.358C86.3318 107.308 86.3149 107.274 86.2979 107.223L86.2809 107.172C86.2639 107.121 86.2469 107.053 86.23 107.002C86.213 106.951 86.1962 106.883 86.1792 106.816C86.1623 106.765 86.1622 106.731 86.1453 106.697C86.1283 106.612 86.0943 106.51 86.0773 106.408C86.0773 106.425 86.0773 106.408 86.0604 106.391Z" fill="#3E3A39"/>
<path d="M101.922 113.991C101.769 113.991 101.634 113.94 101.498 113.856C100.904 113.432 100.277 113.075 99.6659 112.77C99.3266 112.6 98.9703 112.448 98.5971 112.312C98.2578 112.176 98.0712 111.837 98.1221 111.481C98.156 111.328 98.19 111.158 98.2239 111.006V110.972C98.2239 110.955 98.224 110.938 98.2409 110.921C98.2579 110.87 98.2747 110.802 98.2917 110.717L98.3086 110.683C98.3256 110.615 98.3426 110.548 98.3596 110.497C98.3596 110.48 98.3596 110.48 98.3766 110.463C98.4275 110.293 98.4783 110.141 98.5292 109.954C98.6479 109.598 98.7836 109.258 98.9363 108.953V108.936C98.9533 108.902 98.9703 108.868 98.9872 108.817C98.9872 108.817 98.9873 108.8 99.0042 108.8L99.1061 108.597C99.1231 108.563 99.1569 108.495 99.1908 108.427L99.2927 108.257C99.3436 108.173 99.3774 108.105 99.4114 108.054C99.4283 108.037 99.4283 108.037 99.4283 108.02L99.4963 107.918C99.4963 107.901 99.5132 107.901 99.5132 107.884C99.5302 107.85 99.564 107.799 99.581 107.782L99.5979 107.765L99.6319 107.715C99.6658 107.664 99.6999 107.613 99.7338 107.562C99.7507 107.545 99.7506 107.528 99.7675 107.511L99.8185 107.443C99.8863 107.341 99.9712 107.223 100.073 107.104C100.277 106.832 100.497 106.578 100.752 106.324C100.769 106.307 100.769 106.307 100.786 106.29L100.819 106.256C100.904 106.171 101.023 106.052 101.159 105.933C101.21 105.882 101.26 105.849 101.328 105.781C101.328 105.781 101.328 105.764 101.345 105.764C101.413 105.713 101.464 105.662 101.515 105.628C101.668 105.509 101.82 105.391 101.922 105.323C101.922 105.323 101.922 105.323 101.939 105.323C101.99 105.289 102.024 105.255 102.075 105.238H102.092C102.126 105.221 102.16 105.204 102.194 105.17L102.261 105.136C102.278 105.136 102.295 105.119 102.295 105.119H102.312C102.346 105.102 102.38 105.085 102.414 105.068C102.838 104.848 103.313 104.831 103.703 105.034C103.873 105.119 104.026 105.255 104.144 105.407C104.467 105.865 104.518 106.493 104.263 107.121C104.212 107.257 104.161 107.358 104.127 107.443C104.111 107.477 104.094 107.511 104.094 107.545C104.06 107.613 104.026 107.698 103.992 107.749C103.975 107.799 103.958 107.833 103.941 107.884C103.941 107.901 103.924 107.901 103.924 107.918L103.907 107.952C103.89 108.003 103.873 108.037 103.839 108.088C103.822 108.139 103.788 108.19 103.771 108.257V108.274C103.754 108.308 103.737 108.376 103.703 108.427C103.686 108.478 103.669 108.512 103.652 108.563C103.568 108.766 103.5 108.936 103.432 109.106C103.432 109.123 103.432 109.123 103.415 109.14C103.398 109.191 103.381 109.241 103.347 109.292C103.33 109.326 103.33 109.36 103.313 109.394C103.296 109.411 103.296 109.428 103.296 109.445C103.296 109.462 103.279 109.496 103.279 109.513L103.245 109.632C103.025 110.293 102.889 110.921 102.804 111.599C102.77 111.939 102.736 112.278 102.72 112.617C102.72 112.821 102.703 113.041 102.703 113.279C102.703 113.55 102.55 113.805 102.295 113.94C102.143 113.957 102.041 113.991 101.922 113.991ZM99.7168 111.158C99.9204 111.243 100.124 111.345 100.311 111.43C100.616 111.582 100.921 111.735 101.21 111.922C101.227 111.752 101.243 111.565 101.26 111.396C101.345 110.632 101.515 109.886 101.769 109.14L101.786 109.072V109.055L101.803 108.987C101.803 108.97 101.82 108.953 101.82 108.919C101.82 108.902 101.837 108.868 101.854 108.851C101.871 108.817 101.871 108.783 101.888 108.749C101.922 108.682 101.939 108.614 101.956 108.546V108.529C102.024 108.342 102.109 108.139 102.194 107.935V107.918C102.21 107.884 102.227 107.833 102.244 107.799C102.278 107.732 102.295 107.664 102.329 107.613C102.346 107.562 102.38 107.511 102.397 107.46V107.443C102.414 107.409 102.431 107.358 102.448 107.324L102.465 107.274C102.482 107.223 102.516 107.172 102.533 107.121C102.567 107.07 102.584 107.002 102.618 106.934C102.635 106.9 102.652 106.849 102.669 106.815C102.702 106.731 102.753 106.646 102.787 106.544C102.804 106.527 102.804 106.51 102.804 106.476C102.787 106.493 102.787 106.493 102.77 106.493H102.753C102.736 106.51 102.702 106.527 102.669 106.544C102.584 106.612 102.465 106.68 102.346 106.782C102.295 106.815 102.261 106.849 102.21 106.9C102.16 106.951 102.109 106.985 102.075 107.019L102.058 107.036C101.956 107.121 101.871 107.206 101.786 107.29L101.752 107.324C101.752 107.324 101.752 107.324 101.735 107.341C101.532 107.562 101.328 107.782 101.176 108.003C101.091 108.105 101.023 108.207 100.972 108.291L100.921 108.359L100.904 108.376C100.87 108.41 100.836 108.461 100.819 108.512L100.769 108.58C100.752 108.597 100.735 108.631 100.718 108.665L100.65 108.766C100.633 108.783 100.633 108.8 100.616 108.817C100.582 108.868 100.565 108.919 100.531 108.97L100.429 109.157C100.395 109.191 100.378 109.241 100.361 109.275L100.26 109.479C100.243 109.513 100.226 109.547 100.226 109.564V109.581C100.09 109.852 99.9712 110.14 99.8694 110.446C99.8185 110.599 99.7677 110.734 99.7338 110.887V110.904C99.7168 110.972 99.6998 111.023 99.6828 111.074V111.107C99.7168 111.124 99.7168 111.141 99.7168 111.158Z" fill="#3E3A39"/>
<path d="M110.167 124.306C110.133 124.306 110.082 124.306 110.048 124.289C109.76 124.255 109.522 124.085 109.386 123.831C106.638 118.521 103.432 114.941 99.8694 113.177C95.0007 110.785 88.8426 111.735 81.5479 115.993C71.7426 121.71 62.7177 123.288 54.6936 120.709C52.2338 119.912 49.9268 118.741 47.7893 117.181C46.0759 115.942 44.4981 114.466 43.0731 112.787C40.6133 109.903 39.4596 107.392 39.3409 107.121C38.7132 105.696 38.6624 104.118 39.2222 102.676C39.7821 101.234 40.8678 100.081 42.2759 99.4362C43.6839 98.8085 45.2616 98.7576 46.7205 99.3174C48.1625 99.8772 49.3159 100.946 49.9435 102.354C50.0114 102.49 50.6901 103.83 52.0133 105.374C53.2687 106.833 55.3892 108.75 58.341 109.683C63.074 111.158 68.9097 109.903 75.6954 105.95C78.3757 104.39 81.0392 103.117 83.6008 102.201C86.1793 101.285 88.7069 100.675 91.1498 100.403C93.6096 100.132 96.0015 100.2 98.3086 100.59C100.616 100.98 102.872 101.709 105.01 102.761C107.3 103.898 109.488 105.425 111.524 107.308C113.865 109.496 116.036 112.227 117.97 115.416C118.174 115.756 118.123 116.18 117.868 116.468L110.811 124.034C110.642 124.204 110.404 124.306 110.167 124.306ZM94.1525 110.158C96.4935 110.158 98.6479 110.65 100.65 111.616C104.297 113.415 107.571 116.875 110.37 121.948L116.155 115.773C114.374 112.957 112.423 110.531 110.353 108.58C108.453 106.816 106.418 105.374 104.263 104.322C101.091 102.761 97.732 101.981 94.1695 101.981C88.7239 101.981 82.8543 103.813 76.5945 107.46C71.3865 110.497 66.6364 112.024 62.4462 112.024C60.8346 112.024 59.2909 111.803 57.8489 111.345C56.3731 110.887 54.9481 110.175 53.6418 109.225C52.5901 108.461 51.6062 107.562 50.724 106.527C49.2312 104.797 48.4678 103.287 48.3999 103.117C48.3999 103.1 48.3999 103.1 48.383 103.083C47.4669 101.031 45.0579 100.115 43.0052 101.031C40.9526 101.947 40.0365 104.356 40.9526 106.408C41.0035 106.51 42.0891 108.919 44.4132 111.667C47.4498 115.23 51.0971 117.724 55.2364 119.064C57.5435 119.81 59.9524 120.183 62.4462 120.183C68.0953 120.183 74.2024 118.283 80.6828 114.5C85.6194 111.6 90.132 110.158 94.1525 110.158Z" fill="#040000"/>
<path d="M33.115 136.707C29.6373 135.774 17.2025 132.262 9.34807 127.325C8.05879 126.511 7.97401 124.662 9.17847 123.746C12.9445 120.879 20.8837 113.245 33.5051 93.4817C43.1578 78.3496 63.9559 65.2193 76.4416 62.5898C78.4094 62.1657 79.8345 64.405 78.647 66.0166C75.8818 69.7487 70.3344 76.8059 59.2907 89.7835C53.2854 96.8237 48.9426 105.136 46.6185 114.093C44.481 122.304 40.7827 132.279 34.9301 136.401C34.3872 136.741 33.7257 136.859 33.115 136.707Z" fill="#097A69"/>
<path d="M34.0475 137.81C33.9797 137.81 33.9118 137.793 33.844 137.793C33.8101 137.776 29.6539 136.741 24.4289 134.976C21.3584 133.942 18.5252 132.856 16.0145 131.753C12.8592 130.362 10.1789 128.954 8.05841 127.546C7.3968 127.105 7.02363 126.376 7.04059 125.578C7.05756 124.781 7.48151 124.068 8.16008 123.661C9.92437 122.593 12.9102 120.353 17.0156 115.688C21.9352 110.107 27.2449 102.473 32.7752 93.0409C35.7949 87.9007 39.6119 83.0998 44.1414 78.7909C48.1789 74.957 52.6914 71.5641 57.5432 68.7481C61.8691 66.2204 66.4155 64.2016 70.6905 62.8954C74.7619 61.657 78.443 61.0802 81.3609 61.2668C81.6493 61.2838 81.9038 61.4365 82.0565 61.6909C82.2091 61.9454 82.2261 62.2508 82.0904 62.5052C82.0056 62.6749 79.919 66.9329 59.6128 90.7507C53.9128 97.4346 49.7226 105.51 47.5173 114.06C46.1432 119.352 44.5314 123.916 42.7163 127.631C41.5966 129.938 40.3754 131.923 39.1031 133.535C37.6611 135.367 36.1002 136.775 34.4886 137.708C34.336 137.776 34.2002 137.81 34.0475 137.81ZM79.7493 62.9632C73.9985 63.1159 66.0082 65.8132 58.4252 70.2409C51.3002 74.3972 41.3252 81.8784 34.2681 93.923C28.6869 103.457 23.3263 111.159 18.3219 116.842C14.0638 121.677 10.9423 124.035 9.05924 125.171C8.82174 125.307 8.78775 125.544 8.78775 125.629C8.78775 125.714 8.80474 125.952 9.02528 126.104C12.6726 128.53 18.186 131.041 24.9717 133.331C29.2467 134.79 32.8092 135.74 33.8949 136.011C36.5244 134.366 38.9673 131.295 41.1387 126.851C42.903 123.237 44.4807 118.793 45.8208 113.602C46.9574 109.191 48.586 104.916 50.6726 100.895C52.7592 96.8578 55.3207 93.0578 58.2556 89.5971C66.4493 79.9954 72.8619 72.1409 76.8485 66.9159C78.3074 65.0159 79.2065 63.7606 79.7493 62.9632Z" fill="#040000"/>
<path d="M56.6616 83.4898C56.6616 83.4898 55.9152 107.206 56.6616 115.552C56.6616 115.552 56.882 128.801 60.1901 142.695C60.1901 142.695 57.7303 151.347 62.5481 151.347H80.4962C80.4962 151.347 83.2784 152.415 81.3444 143.017L82.3625 121.829L88.9614 121.388L96.9517 147.191C96.9517 147.191 97.3757 151.466 100.904 151.466H118.106C118.106 151.466 123.026 147.089 114.035 140.574C114.035 140.574 111.575 121.439 108.793 113.754C108.793 113.754 110.387 95.6871 108.47 88.5282L109.437 72.7344L62.9553 64.2354L55.2534 81.0639L56.6616 83.4898Z" fill="white"/>
<path d="M65.7031 94.7371C66.6531 94.0924 66.263 92.6335 65.1264 92.5317C64.5326 92.4808 64.0237 92.4299 63.8031 92.413C63.0737 92.3451 62.3612 92.2772 61.7505 92.2094C61.6487 92.1924 61.5299 92.1924 61.4111 92.1755C61.3602 92.1755 61.2924 92.1585 61.2415 92.1585L60.987 92.1246C60.9361 92.1246 60.9023 92.1076 60.8514 92.1076C60.8174 92.1076 60.7666 92.0906 60.7327 92.0906L60.5459 92.0737C60.4441 92.0567 60.3255 92.0567 60.2237 92.0228L59.7147 91.9549C59.6977 91.9549 59.6809 91.9549 59.6639 91.9549C59.63 91.9549 59.613 91.9549 59.579 91.938C59.5451 91.938 59.5281 91.921 59.4941 91.921C59.4772 91.921 59.4604 91.921 59.4434 91.921C59.3586 91.904 59.2737 91.8871 59.2059 91.8701C59.138 91.8531 59.0532 91.8362 58.9514 91.8022C58.9005 91.7853 58.8496 91.7683 58.7818 91.7514C58.7478 91.7514 58.7308 91.7344 58.6969 91.7344C58.5951 91.7005 58.4764 91.6665 58.3747 91.6326C58.3238 91.6156 58.2557 91.5987 58.2048 91.5817L58.1541 91.5647C58.0014 91.5139 57.8487 91.463 57.696 91.429C57.2719 91.2933 56.8308 91.2255 56.4067 91.2085C56.3389 91.2085 56.2711 91.2424 56.2202 91.3103C56.1693 91.3781 56.1353 91.463 56.1353 91.5647C56.1522 92.413 56.1862 93.1594 56.2032 93.7531C56.2371 94.6183 56.3388 95.7549 56.5084 97.1799C56.5254 97.3495 56.6272 97.4683 56.7629 97.4683C56.8308 97.4683 56.8986 97.4683 56.9495 97.4513C57.0343 97.4513 57.1192 97.4344 57.238 97.4344C57.3398 97.4174 57.4247 97.4004 57.5264 97.3835C57.6961 97.3496 57.8826 97.3156 58.0522 97.2817H58.0862C58.154 97.2647 58.2219 97.2478 58.2897 97.2308C58.4085 97.1969 58.5102 97.1799 58.6289 97.146L58.9004 97.0781C59.0022 97.0442 59.0871 97.0272 59.1719 97.0103C59.2567 96.9933 59.3416 96.9763 59.4434 96.9594L60.2577 96.8067C60.3255 96.7897 60.3933 96.7897 60.4442 96.7728C60.4782 96.7728 60.512 96.7558 60.5289 96.7558L60.8004 96.7049C60.9022 96.6879 60.9871 96.671 61.0719 96.654L61.3604 96.5862C61.5131 96.5522 61.6656 96.5183 61.8182 96.4674C61.8352 96.4674 61.8692 96.4504 61.8862 96.4504C62.6495 96.2129 64.9906 95.2121 65.7031 94.7371Z" fill="#3E3A39"/>
<path d="M65.618 104.135C66.602 103.575 66.3306 102.082 65.2109 101.896C64.6172 101.794 64.1254 101.709 63.9048 101.675C63.1754 101.557 62.4628 101.421 61.869 101.319C61.7503 101.302 61.6486 101.285 61.5298 101.251C61.4789 101.234 61.4281 101.234 61.3602 101.217L61.1057 101.166C61.0548 101.166 61.0207 101.149 60.9698 101.132C60.9359 101.132 60.8851 101.115 60.8512 101.115C60.7833 101.099 60.7325 101.099 60.6646 101.082C60.5628 101.065 60.444 101.048 60.3422 101.014L59.8504 100.895C59.8334 100.895 59.8164 100.895 59.7994 100.895C59.7655 100.895 59.7485 100.878 59.7315 100.878C59.6976 100.878 59.6807 100.861 59.6468 100.861C59.6298 100.861 59.6128 100.861 59.5959 100.844C59.511 100.81 59.4262 100.793 59.3583 100.776C59.2905 100.759 59.2056 100.725 59.1208 100.708C59.0699 100.691 59.0191 100.674 58.9682 100.657C58.9343 100.657 58.9172 100.64 58.8833 100.624C58.7815 100.59 58.6628 100.539 58.5611 100.505C58.5102 100.488 58.4423 100.454 58.3915 100.437L58.3405 100.42C58.1878 100.369 58.0351 100.301 57.8994 100.25C57.4753 100.081 57.0512 99.9789 56.6271 99.928C56.5593 99.928 56.4914 99.9449 56.4235 100.013C56.3727 100.081 56.3386 100.165 56.3386 100.25C56.2877 101.115 56.2709 101.845 56.2539 102.439C56.237 103.304 56.2538 104.457 56.3047 105.865C56.3047 106.035 56.4065 106.171 56.5422 106.171C56.6101 106.171 56.6779 106.171 56.7288 106.171C56.8136 106.171 56.8985 106.171 57.0173 106.171C57.119 106.171 57.2039 106.154 57.3057 106.154C57.4754 106.137 57.6619 106.103 57.8315 106.086H57.8655C57.9333 106.069 58.0012 106.069 58.086 106.052C58.2048 106.035 58.3065 106.018 58.4252 106.001L58.6967 105.967C58.7985 105.95 58.8834 105.933 58.9682 105.933C59.053 105.916 59.1379 105.916 59.2397 105.899L60.0539 105.815C60.1218 105.815 60.1896 105.798 60.2405 105.798C60.2744 105.798 60.3082 105.798 60.3252 105.781L60.5967 105.747C60.6985 105.73 60.7833 105.73 60.8682 105.713L61.1566 105.662C61.3093 105.628 61.4618 105.611 61.6145 105.577C61.6315 105.577 61.6655 105.577 61.6824 105.56C62.4458 105.407 64.8716 104.576 65.618 104.135Z" fill="#3E3A39"/>
<path d="M118.106 152.314H100.904C99.9029 152.314 99.0207 152.025 98.2742 151.465C97.6974 151.024 97.2055 150.431 96.8323 149.701C96.3064 148.683 96.1369 147.682 96.103 147.36L87.9091 122.287L82.311 122.745L82.2261 143.967C82.735 146.206 82.9556 148.005 82.8877 149.311C82.8199 150.515 82.5145 151.33 81.9546 151.822C81.4287 152.28 80.8181 152.331 80.3771 152.229H62.5476C61.3432 152.229 60.3422 151.771 59.6975 150.889C58.8493 149.769 58.5441 147.971 58.7816 145.596C58.9173 144.289 59.1887 143.153 59.3074 142.695C57.611 135.536 56.7628 128.598 56.3387 124C55.8976 119.25 55.8129 115.976 55.8129 115.603C55.5075 112.108 55.4057 105.645 55.5414 96.3824C55.6262 89.478 55.8129 83.5235 55.8129 83.4557C55.8298 82.9807 56.2368 82.5905 56.7118 82.6075C57.1868 82.6244 57.577 83.0316 57.56 83.5066C57.56 83.7441 56.8136 107.273 57.56 115.467C57.56 115.484 57.56 115.518 57.56 115.535C57.56 115.569 57.611 118.894 58.086 123.848C58.5101 128.428 59.3753 135.366 61.0718 142.491C61.1057 142.644 61.1057 142.78 61.0718 142.932C61.0718 142.949 60.6984 144.239 60.5458 145.782C60.3592 147.648 60.5629 149.09 61.1227 149.82C61.462 150.261 61.92 150.464 62.5986 150.464H80.5467C80.6315 150.464 80.7333 150.481 80.8182 150.515C80.8351 150.515 80.8521 150.515 80.8691 150.481C80.9539 150.397 81.7342 149.413 80.5467 144.256C80.5297 144.188 80.5297 144.12 80.5297 144.052L80.6146 121.931C80.6146 121.473 80.9708 121.099 81.4119 121.065L88.486 120.489C88.8932 120.455 89.2662 120.709 89.385 121.099L97.8164 146.902C97.8333 146.97 97.8501 147.021 97.8501 147.089C97.8501 147.123 97.969 148.056 98.4271 148.955C99.0038 150.04 99.8181 150.583 100.938 150.583H117.766C117.868 150.447 118.004 150.261 118.14 150.023C118.496 149.379 118.648 148.683 118.615 147.937C118.564 147.038 118.207 146.088 117.546 145.104C116.698 143.848 115.357 142.542 113.576 141.236C113.389 141.1 113.254 140.88 113.22 140.642C113.22 140.591 112.592 135.807 111.642 130.141C110.387 122.677 109.148 117.096 108.029 114.008C107.978 113.89 107.961 113.754 107.978 113.635C107.978 113.584 108.385 109.072 108.538 103.745C108.741 96.7556 108.453 91.5646 107.689 88.7146C107.571 88.2566 107.842 87.7646 108.3 87.6459C108.758 87.5271 109.25 87.7985 109.369 88.2566C110.183 91.3101 110.489 96.5351 110.285 103.796C110.149 108.546 109.81 112.668 109.742 113.584C110.896 116.841 112.117 122.321 113.372 129.853C114.17 134.637 114.747 138.81 114.899 140.048C116.714 141.406 118.106 142.78 119.005 144.154C119.836 145.392 120.277 146.647 120.345 147.869C120.48 150.481 118.784 152.008 118.716 152.076C118.53 152.246 118.326 152.314 118.106 152.314Z" fill="#040000"/>
<path d="M106.095 99.4024C106.095 99.4024 124.942 121.015 134.12 120.726C143.298 120.438 148.658 118.623 148.115 115.62C147.573 112.618 141.415 114.568 135.087 106.799C131.474 102.337 116.341 79.7917 104.687 73.1248" fill="white"/>
<path d="M121.295 95.5512C121.346 95.5003 121.414 95.4325 121.482 95.3646C121.533 95.3137 121.601 95.2459 121.652 95.178L121.737 95.0762L121.906 94.8896L121.991 94.7878C122.466 94.228 122.873 93.6343 123.212 93.0405C123.263 92.9557 123.314 92.8709 123.365 92.7691C123.416 92.6843 123.416 92.5994 123.365 92.5146C122.483 90.8012 121.363 89.3084 120.074 88.07C119.989 87.9852 119.853 87.9682 119.752 88.0191C119.65 88.07 119.582 88.1887 119.599 88.3075C119.599 88.3075 119.599 88.3245 119.599 88.3414C119.599 88.3753 119.616 88.4093 119.616 88.4432C119.616 88.4602 119.616 88.4602 119.616 88.4771L119.633 88.528C119.65 88.5789 119.667 88.6298 119.667 88.6807V88.7146C119.684 88.7655 119.701 88.8164 119.718 88.9012C119.735 88.9521 119.752 89.003 119.769 89.0539C119.82 89.2405 119.887 89.4271 119.921 89.5968C119.972 89.8343 120.006 90.0718 120.006 90.3093C120.006 90.7843 119.972 91.2932 119.888 91.853C119.803 92.3959 119.684 92.9387 119.548 93.4477C119.497 93.6343 119.345 94.1432 119.158 94.7539C118.887 95.6869 119.921 96.4673 120.736 95.9244C121.041 95.7548 121.245 95.6021 121.295 95.5512Z" fill="#3E3A39"/>
<path d="M116.816 89.1218C116.867 89.0539 116.918 88.9861 116.969 88.9013C117.02 88.8334 117.071 88.7655 117.105 88.6807L117.173 88.5789L117.308 88.3584L117.376 88.2566C117.749 87.6289 118.055 86.9843 118.292 86.3396C118.326 86.2379 118.36 86.153 118.394 86.0343C118.428 85.9495 118.411 85.8477 118.36 85.7798C117.207 84.2361 115.866 82.9468 114.374 81.9459C114.272 81.8781 114.153 81.8781 114.051 81.9459C113.949 82.0138 113.915 82.1495 113.966 82.2513V82.2682V82.2852C113.983 82.3191 113.983 82.3531 114 82.37C114 82.37 114 82.387 114 82.4039C114 82.4209 114.017 82.4379 114.017 82.4548C114.034 82.5057 114.051 82.5566 114.085 82.6075L114.102 82.6414C114.136 82.6923 114.153 82.7432 114.187 82.8111C114.221 82.862 114.238 82.9129 114.255 82.9638C114.34 83.1334 114.424 83.3031 114.492 83.4727C114.577 83.6932 114.645 83.9307 114.696 84.1513C114.781 84.6263 114.814 85.1182 114.831 85.678C114.831 86.2379 114.815 86.7807 114.747 87.3236C114.73 87.5102 114.662 88.053 114.577 88.6638C114.458 89.6307 115.612 90.2245 116.324 89.5629C116.596 89.3593 116.765 89.1896 116.816 89.1218Z" fill="#3E3A39"/>
<path d="M133.95 121.609C132.779 121.609 131.439 121.303 129.963 120.709C128.589 120.15 127.063 119.335 125.4 118.25C122.652 116.468 119.513 113.958 116.087 110.819C110.251 105.476 105.501 100.03 105.45 99.9792C105.128 99.6059 105.162 99.0631 105.535 98.7408C105.891 98.4185 106.451 98.4694 106.773 98.8256C106.824 98.8765 111.523 104.271 117.291 109.547C120.65 112.634 123.721 115.077 126.367 116.791C129.59 118.894 132.203 119.912 134.103 119.861C137.597 119.743 140.515 119.42 142.754 118.877C145.401 118.233 146.487 117.452 146.928 116.909C147.216 116.553 147.318 116.197 147.25 115.79C147.131 115.128 146.503 114.874 144.739 114.314C142.195 113.5 138.344 112.261 134.391 107.376C133.746 106.561 132.729 105.187 131.456 103.457C125.688 95.6194 113.678 79.2997 104.229 73.9051C103.804 73.6676 103.669 73.1417 103.906 72.7176C104.144 72.2935 104.687 72.1578 105.094 72.3953C107.384 73.7015 109.962 75.7203 112.762 78.3497C115.12 80.5721 117.698 83.3203 120.429 86.5096C125.383 92.2944 129.878 98.3845 132.847 102.422C134.12 104.135 135.121 105.51 135.748 106.273C139.362 110.751 142.771 111.854 145.265 112.651C146.164 112.94 146.945 113.194 147.555 113.551C148.353 114.026 148.811 114.653 148.946 115.484C149.116 116.401 148.879 117.266 148.268 118.012C147.81 118.589 147.114 119.098 146.215 119.539C145.384 119.946 144.349 120.302 143.145 120.591C140.787 121.168 137.75 121.507 134.137 121.626C134.086 121.609 134.018 121.609 133.95 121.609Z" fill="#040000"/>
<path d="M60.8511 62.0979C60.8511 62.0979 61.9877 76.755 72.9636 76.6702C83.9394 76.5854 90.0295 71.7336 90.0295 71.7336L60.8511 62.0979Z" fill="#007F6C"/>
<path d="M72.8792 77.5522C70.1989 77.5522 67.8578 76.7209 65.89 75.1093C64.3293 73.8201 63.0232 72.0218 62.0053 69.7826C60.3089 66.0335 60.0034 62.3183 59.9865 62.1656C59.9695 61.8772 60.0882 61.5888 60.3257 61.4192C60.5632 61.2326 60.8517 61.1817 61.1401 61.2835L90.3355 70.9192C90.6409 71.0209 90.8614 71.2754 90.9123 71.5977C90.9631 71.9201 90.8445 72.2424 90.59 72.429C90.5222 72.4799 88.9443 73.7352 85.9756 74.9906C84.2452 75.72 82.3961 76.3138 80.4622 76.7379C78.0703 77.2638 75.5427 77.5522 72.9811 77.5691C72.9302 77.5522 72.9132 77.5522 72.8792 77.5522ZM61.8864 63.3531C62.107 64.7103 62.599 66.9156 63.5999 69.087C65.6356 73.5317 68.7569 75.8049 72.8792 75.8049H72.9641C78.4945 75.7709 82.7186 74.4647 85.2802 73.379C86.4338 72.887 87.3668 72.3951 88.0454 72.0049L61.8864 63.3531Z" fill="#040000"/>
<path d="M86.4673 69.562C86.4673 69.562 89.8602 80.0799 100.48 79.6557C111.099 79.2316 113.865 70.6477 113.865 70.6477L86.4673 69.562Z" fill="#007F6C"/>
<path d="M99.8695 80.538C97.5454 80.538 95.3739 80.0291 93.423 79.0282C91.7096 78.163 90.166 76.9077 88.8258 75.33C86.5695 72.6496 85.6704 69.9523 85.6365 69.8336C85.5517 69.5622 85.6025 69.2568 85.7721 69.0363C85.9418 68.8157 86.2133 68.68 86.5017 68.697L113.916 69.7657C114.187 69.7827 114.442 69.9184 114.595 70.1389C114.747 70.3595 114.798 70.6479 114.713 70.9023C114.679 71.0041 113.933 73.2604 111.812 75.5675C110.574 76.9246 109.098 78.0273 107.453 78.8416C105.4 79.8595 103.076 80.4193 100.531 80.5211C100.311 80.538 100.09 80.538 99.8695 80.538ZM87.791 70.4952C88.249 71.4622 89.0125 72.8702 90.2 74.2613C92.8973 77.4336 96.3579 78.9603 100.446 78.7907C104.586 78.6211 107.961 77.1621 110.472 74.4648C111.507 73.3621 112.169 72.2595 112.559 71.4791L87.791 70.4952Z" fill="#040000"/>
<path d="M87.4342 81.7593C85.1779 78.3495 84.4313 74.9905 85.7715 74.2441C87.1117 73.4977 90.0127 75.6691 92.2689 79.0789C94.5252 82.4887 93.9314 86.5941 93.9314 86.5941C93.9314 86.5941 89.6904 85.1691 87.4342 81.7593Z" fill="#007F6C"/>
<path d="M93.9151 87.4763C93.8302 87.4763 93.7284 87.4593 93.6436 87.4254C93.457 87.3575 89.0972 85.8647 86.7052 82.2513C85.8231 80.9111 85.1275 79.5201 84.7034 78.2477C84.398 77.3147 84.0758 75.9915 84.3472 74.9058C84.5508 74.0915 85.0088 73.6843 85.365 73.4977C86.0436 73.1245 87.265 72.9719 89.2159 74.4138C90.5222 75.3808 91.8623 76.8736 93.0159 78.604C95.4248 82.2513 94.8481 86.5433 94.8142 86.7129C94.7803 86.9674 94.6276 87.2049 94.4071 87.3406C94.2374 87.4254 94.0847 87.4763 93.9151 87.4763ZM86.366 74.9906C86.2812 74.9906 86.2304 75.0076 86.1795 75.0245C86.0946 75.0754 86.0436 75.2281 86.0097 75.3299C85.8909 75.8388 86.0098 76.704 86.3321 77.7049C86.7053 78.8415 87.3329 80.0799 88.1472 81.3013C89.5382 83.4049 91.7776 84.6941 93.1008 85.3218C93.1008 84.9825 93.0838 84.5924 93.0499 84.1513C92.9311 82.9468 92.5748 81.1656 91.523 79.5709C90.4882 78.0102 89.2838 76.6701 88.1472 75.8218C87.299 75.1942 86.6884 74.9906 86.366 74.9906Z" fill="#040000"/>
<path d="M79.9534 78.0271C82.549 74.8887 85.6873 73.1075 86.9427 74.0236C88.1981 74.9566 87.1122 78.2307 84.4997 81.3691C81.8872 84.4905 77.5105 85.3726 77.5105 85.3726C77.5105 85.3726 77.3579 81.1485 79.9534 78.0271Z" fill="#007F6C"/>
<path d="M77.5273 86.238C77.3237 86.238 77.1372 86.1701 76.9845 86.0514C76.781 85.8987 76.6621 85.6612 76.6451 85.4067C76.6282 85.2201 76.4925 80.8264 79.2916 77.4675C81.8872 74.3291 85.5344 71.9032 87.4683 73.3282C87.8076 73.5657 88.2147 74.0407 88.3165 74.8889C88.4183 75.771 88.181 76.9076 87.6042 78.18C87.0443 79.4014 86.213 80.6907 85.1952 81.9291C82.43 85.254 77.9007 86.1871 77.6971 86.221C77.6292 86.221 77.5782 86.238 77.5273 86.238ZM86.1113 74.6514C85.789 74.6514 85.2122 74.7871 84.3979 75.2621C83.1595 75.9746 81.8363 77.1451 80.6319 78.5871C79.4105 80.046 78.8675 81.7933 78.63 82.9978C78.5452 83.4558 78.4774 83.863 78.4434 84.2192C78.8166 84.1005 79.2577 83.9308 79.7327 83.7273C80.9372 83.2183 82.6167 82.2853 83.8382 80.8094C85.9078 78.3326 86.7051 76.1103 86.5864 75.1094C86.5694 74.9737 86.5353 74.8041 86.4335 74.7362C86.3826 74.6853 86.264 74.6514 86.1113 74.6514Z" fill="#040000"/>
<path d="M86.7731 87.188C81.2767 86.713 76.4079 90.5978 75.9159 95.8398C75.424 101.099 79.4784 105.747 84.9748 106.222C90.4712 106.697 95.34 102.829 95.8319 97.5532C96.3409 92.2942 92.2865 87.663 86.7731 87.188Z" fill="white"/>
<path d="M75.8307 95.8398C75.3387 101.133 79.4271 105.832 84.9574 106.307C90.4878 106.782 95.4075 102.863 95.8995 97.5702C96.3915 92.2773 92.3031 87.5952 86.7727 87.1032C81.2424 86.6282 76.3396 90.547 75.8307 95.8398ZM76.0005 95.8398C76.4924 90.6318 81.3272 86.7809 86.7727 87.2559C92.2182 87.7309 96.2556 92.3452 95.7636 97.5532C95.2717 102.761 90.4369 106.612 84.9914 106.137C79.5289 105.679 75.5085 101.048 76.0005 95.8398Z" fill="#231815"/>
<path d="M80.9878 91.1068C79.4271 92.3452 78.4602 94.1095 78.2736 96.0434C77.9004 100.047 81.0047 103.593 85.1779 103.966C89.3681 104.322 93.0833 101.37 93.4565 97.3666C93.8297 93.3631 90.7254 89.8175 86.5521 89.4443C84.5334 89.2577 82.5485 89.8515 80.9878 91.1068ZM78.4432 96.0604C78.6298 94.1604 79.5629 92.447 81.0897 91.2256C82.6165 90.0041 84.5504 89.4274 86.5521 89.597C90.6575 89.9533 93.6941 93.4309 93.3209 97.3497C92.9477 101.268 89.3173 104.169 85.2119 103.813C81.1066 103.457 78.07 99.9791 78.4432 96.0604Z" fill="#231815"/>
<path d="M76.4755 95.1953C76.4755 95.2123 76.3908 95.9078 76.3908 95.9078C76.3739 96.1114 76.4077 96.2641 76.5265 96.3998L76.5434 96.4167C76.6622 96.5525 76.8487 96.6373 77.0862 96.6542C77.3576 96.6882 77.5612 96.6373 77.7139 96.5016C77.8157 96.3998 77.8837 96.281 77.9007 96.1453C77.9007 96.1453 78.0023 95.3819 78.0023 95.365C77.9684 95.365 76.4925 95.1953 76.4755 95.1953ZM77.6971 95.9248C77.6801 96.0944 77.5953 96.2132 77.4596 96.2641C77.3578 96.315 77.2389 96.315 77.1032 96.298C76.9505 96.281 76.8148 96.2301 76.73 96.1623C76.6113 96.0775 76.5774 95.9417 76.5944 95.7721L76.6114 95.6873L76.6283 95.5855C76.6283 95.5685 76.6451 95.5685 76.6621 95.5685L77.6971 95.6873C77.7141 95.6873 77.7309 95.7042 77.7309 95.7212L77.6971 95.9248Z" fill="#231815"/>
<path d="M77.9005 97.2648C77.8836 97.2648 76.3567 96.8916 76.3228 96.8916C76.3228 96.9086 76.3397 97.0782 76.3397 97.0952C76.3567 97.0952 76.7469 97.197 76.7469 97.197V97.2139L76.8318 97.7907C76.8318 97.8077 76.8317 97.8077 76.8148 97.8246C76.8148 97.8246 76.4584 97.9943 76.4584 98.0112C76.4584 98.0282 76.4924 98.3336 76.5093 98.3505C76.5433 98.3336 77.9343 97.638 77.9513 97.6211C77.9343 97.6041 77.9005 97.2648 77.9005 97.2648ZM77.6121 97.4005C77.6121 97.4175 77.612 97.4175 77.5951 97.4345L77.0691 97.7059H77.0523L77.0353 97.6889L76.9844 97.2818C76.9844 97.2648 76.9844 97.2648 77.0014 97.2648H77.0183L77.6121 97.4005C77.5951 97.3836 77.5951 97.4005 77.6121 97.4005Z" fill="#231815"/>
<path d="M76.8652 98.9948V98.9779L76.8822 98.9609L77.2893 98.8422C77.3063 98.8422 77.3063 98.8422 77.3233 98.8422V98.8591C77.3233 98.8591 77.4591 99.3002 77.4761 99.3341C77.493 99.3341 77.6287 99.2832 77.6457 99.2832C77.6287 99.2323 77.4929 98.8252 77.4929 98.8252V98.8082L77.5098 98.7913L77.8832 98.6895C77.9002 98.6895 77.9 98.6895 77.917 98.6895V98.7065C77.917 98.7065 78.0868 99.2663 78.0868 99.2832C78.1037 99.2832 78.2734 99.2323 78.2903 99.2323C78.2903 99.2154 78.0019 98.3163 78.0019 98.2993C77.9849 98.2993 76.5769 98.7064 76.543 98.7234C76.543 98.7404 76.6956 99.2154 76.6956 99.2154C76.6956 99.2154 76.8484 99.6904 76.8484 99.7073C76.8654 99.7073 77.0181 99.6564 77.052 99.6564C77.052 99.5886 76.8652 98.9948 76.8652 98.9948Z" fill="#231815"/>
<path d="M78.0025 100.556C77.9856 100.556 77.5784 100.776 77.5784 100.776C77.5615 100.776 77.5614 100.776 77.5445 100.776C77.4597 100.624 77.4426 100.471 77.4935 100.335C77.5444 100.199 77.6463 100.098 77.816 100.013C77.9686 99.945 78.1043 99.9111 78.2231 99.9281C78.3079 99.945 78.3758 99.9789 78.4267 100.03C78.4775 100.081 78.5284 100.132 78.5623 100.199C78.5962 100.267 78.6302 100.335 78.6472 100.42C78.6472 100.42 78.6812 100.59 78.6812 100.624C78.6981 100.607 78.8847 100.522 78.9017 100.522C78.8508 100.369 78.783 100.216 78.6981 100.047C78.6303 99.9281 78.5454 99.8263 78.4606 99.7584C78.3928 99.7075 78.3079 99.6566 78.2231 99.6227C78.0365 99.5549 77.816 99.5888 77.5954 99.6906C77.3749 99.7923 77.2392 99.945 77.1713 100.132C77.1204 100.318 77.1545 100.522 77.2732 100.725C77.358 100.895 77.4767 101.031 77.5954 101.149C77.6124 101.149 78.1552 100.878 78.1722 100.861C78.1552 100.844 78.0025 100.573 78.0025 100.556Z" fill="#231815"/>
<path d="M79.0198 102.303C79.0198 102.303 79.7833 101.778 79.8003 101.761C79.7833 101.744 79.6304 101.54 79.6135 101.523C79.5626 101.557 78.8671 102.032 78.8671 102.032C78.7484 102.117 78.6465 102.151 78.5617 102.151C78.4938 102.151 78.443 102.134 78.3921 102.083L78.3412 102.015C78.2733 101.93 78.2565 101.845 78.2904 101.761C78.3243 101.693 78.4092 101.608 78.5449 101.523C78.5449 101.523 79.2403 101.048 79.2573 101.031C79.2403 101.014 79.0537 100.76 79.0367 100.743C78.9519 100.811 78.2565 101.286 78.2565 101.286C78.1038 101.387 78.0189 101.523 78.002 101.676C78.002 101.811 78.0528 101.964 78.1716 102.117C78.2224 102.185 78.2735 102.236 78.3244 102.269C78.4092 102.337 78.4939 102.371 78.5787 102.388C78.7144 102.456 78.8671 102.405 79.0198 102.303Z" fill="#231815"/>
<path d="M80.9372 103.847C80.9372 103.847 81.5141 103.117 81.5141 103.1C81.4971 103.083 81.2935 102.931 81.2766 102.914C81.2426 102.965 80.7166 103.609 80.7166 103.609C80.6148 103.728 80.5469 103.796 80.4621 103.813C80.3773 103.83 80.2926 103.813 80.2248 103.762C80.123 103.694 80.089 103.626 80.1059 103.541C80.1229 103.457 80.1737 103.355 80.2755 103.236C80.2755 103.236 80.8015 102.575 80.8015 102.558C80.7845 102.541 80.53 102.354 80.513 102.354C80.4452 102.439 79.9363 103.083 79.9363 103.1C79.8176 103.253 79.7837 103.406 79.8177 103.558C79.8516 103.694 79.9532 103.813 80.1059 103.932C80.2756 104.05 80.4283 104.101 80.581 104.084C80.6828 104.084 80.8184 104 80.9372 103.847Z" fill="#231815"/>
<path d="M82.6505 103.711C82.6165 103.762 82.2264 104.475 82.2264 104.475C82.2094 104.492 82.1924 104.509 82.1754 104.509C82.1585 104.509 82.1584 104.458 82.1584 104.458C82.1584 104.458 82.0058 103.389 82.0058 103.372C82.0058 103.372 81.7513 103.236 81.7343 103.236C81.7343 103.253 81.3782 103.881 81.3782 103.881C81.3782 103.881 81.0389 104.509 81.022 104.526C81.0389 104.543 81.2256 104.644 81.2425 104.644C81.2764 104.593 81.6666 103.864 81.6666 103.864C81.6666 103.847 81.6836 103.83 81.7006 103.83C81.7175 103.83 81.7176 103.864 81.7176 103.864C81.7176 103.864 81.8702 104.933 81.8702 104.95C81.8871 104.95 82.1247 105.085 82.1417 105.085C82.1586 105.068 82.8371 103.813 82.854 103.796C82.854 103.813 82.6674 103.728 82.6505 103.711Z" fill="#231815"/>
<path d="M83.1253 103.932C83.1253 103.949 82.8878 104.61 82.8878 104.61C82.8878 104.61 82.6503 105.272 82.6333 105.306C82.6503 105.306 82.9557 105.408 82.9727 105.425C82.9727 105.408 83.4645 104.067 83.4645 104.05C83.4476 104.033 83.1423 103.949 83.1253 103.932Z" fill="#231815"/>
<path d="M84.9235 104.322C84.8726 104.39 84.3298 105.323 84.3298 105.323C84.3298 105.34 84.3128 105.34 84.2959 105.34L84.2789 105.323C84.2789 105.323 84.0923 104.203 84.0753 104.186C84.0583 104.186 83.7361 104.118 83.7021 104.118C83.7021 104.152 83.9736 105.628 83.9736 105.645C83.9906 105.645 84.3298 105.713 84.3468 105.713C84.3468 105.696 85.1271 104.407 85.1441 104.373C85.1101 104.356 84.9235 104.322 84.9235 104.322Z" fill="#231815"/>
<path d="M86.2293 104.984C86.1615 104.984 85.7205 104.984 85.7205 104.984H85.7036V104.967V104.593C85.7036 104.576 85.7206 104.559 85.7375 104.559C85.7375 104.559 86.3482 104.559 86.3652 104.559C86.3652 104.542 86.3652 104.373 86.3652 104.373C86.3482 104.373 85.3641 104.373 85.3472 104.373C85.3472 104.39 85.3472 105.102 85.3472 105.102C85.3472 105.102 85.3472 105.815 85.3472 105.832C85.3641 105.832 86.399 105.832 86.4159 105.832C86.4159 105.815 86.4159 105.662 86.4159 105.645C86.365 105.645 85.7375 105.645 85.7375 105.645H85.7205V105.628V105.221C85.7205 105.204 85.7375 105.187 85.7545 105.187C85.7545 105.187 86.2463 105.187 86.2633 105.187C86.2294 105.136 86.2293 105 86.2293 104.984Z" fill="#231815"/>
<path d="M87.8076 104.729C87.8415 104.644 87.8585 104.559 87.8415 104.491C87.8246 104.373 87.7735 104.305 87.6717 104.237C87.5869 104.203 87.5022 104.186 87.3835 104.203C87.3835 104.203 86.6879 104.322 86.6709 104.322C86.6709 104.339 86.9254 105.73 86.9254 105.747C86.9424 105.747 87.2307 105.696 87.2476 105.696C87.2476 105.645 87.1459 105.136 87.1459 105.136V105.119L87.1629 105.102L87.3155 105.085H87.3325L87.7566 105.611C87.7736 105.611 88.1468 105.543 88.1807 105.543C88.1468 105.509 87.604 104.966 87.604 104.966V104.949C87.604 104.949 87.604 104.932 87.621 104.932C87.7058 104.882 87.7736 104.814 87.8076 104.729ZM87.2986 104.915L87.1629 104.932H87.1459L87.129 104.915L87.061 104.491V104.474L87.078 104.457L87.1969 104.44C87.2987 104.423 87.3665 104.44 87.4174 104.457C87.4514 104.474 87.4852 104.525 87.5021 104.593C87.5191 104.661 87.5021 104.729 87.4682 104.797C87.4173 104.848 87.3664 104.898 87.2986 104.915Z" fill="#231815"/>
<path d="M89.1644 104.491C89.1135 104.474 88.9778 104.457 88.7743 104.424C88.6895 104.424 88.6386 104.407 88.5877 104.373C88.5368 104.356 88.503 104.322 88.503 104.288C88.486 104.237 88.4859 104.186 88.5368 104.135C88.5707 104.101 88.6047 104.084 88.6556 104.067C88.7065 104.05 88.7744 104.033 88.8592 104.016C88.8592 104.016 89.0118 103.999 89.0458 103.999C89.0288 103.982 88.9609 103.813 88.9609 103.796C88.9269 103.796 88.7403 103.847 88.7403 103.847L88.5368 103.915C88.401 103.966 88.2994 104.033 88.2315 104.135C88.1637 104.237 88.1467 104.356 88.1975 104.474C88.2484 104.593 88.3503 104.678 88.486 104.712C88.5199 104.729 88.6556 104.746 88.8762 104.78C89.0288 104.797 89.1137 104.848 89.1476 104.916C89.1816 104.983 89.1646 105.051 89.1137 105.102C89.0798 105.136 89.0287 105.17 88.9609 105.204C88.893 105.221 88.8252 105.255 88.7573 105.255C88.7573 105.255 88.5877 105.255 88.5707 105.272C88.5877 105.289 88.6556 105.475 88.6556 105.492C88.7065 105.475 88.8762 105.441 88.8762 105.441L89.0967 105.374C89.3172 105.289 89.453 105.187 89.5208 105.051C89.5547 104.966 89.5547 104.865 89.5208 104.763C89.4699 104.661 89.402 104.576 89.2833 104.525C89.1985 104.508 89.1814 104.491 89.1644 104.491Z" fill="#231815"/>
<path d="M89.3345 103.643C89.3514 103.66 89.9961 104.932 89.9961 104.949C90.0131 104.949 90.3014 104.814 90.3183 104.797C90.3183 104.78 89.6567 103.507 89.6567 103.49C89.6397 103.507 89.3514 103.643 89.3345 103.643Z" fill="#231815"/>
<path d="M89.9788 103.474C89.9788 103.474 90.0295 103.541 90.0465 103.558C90.0974 103.524 90.4876 103.27 90.4876 103.27C90.4876 103.27 90.5046 103.27 90.5216 103.27H90.5385C90.5385 103.27 91.2511 104.271 91.2681 104.288C91.285 104.271 91.5564 104.101 91.5733 104.084C91.5564 104.067 90.844 103.066 90.844 103.066V103.049L90.8608 103.033C90.8608 103.033 91.2849 102.761 91.3018 102.744C91.2849 102.727 91.2001 102.591 91.1832 102.574C91.1662 102.591 89.9618 103.372 89.9448 103.389C89.9448 103.406 89.9788 103.474 89.9788 103.474Z" fill="#231815"/>
<path d="M92.2859 102.269C92.2859 102.269 92.2859 102.286 92.2859 102.303C92.2859 102.303 92.2689 102.32 92.2689 102.303L91.5903 102.15C91.5903 102.15 91.3528 102.388 91.3188 102.422C91.5055 102.473 92.2859 102.642 92.3029 102.642C92.3029 102.642 92.7438 103.05 92.7608 103.05C92.7777 103.033 92.9983 102.812 93.0153 102.795C92.8626 102.659 92.5574 102.371 92.5404 102.371C92.5404 102.371 92.2689 101.489 92.2689 101.438C92.252 101.455 92.1163 101.591 92.0993 101.608C92.0993 101.642 92.2859 102.269 92.2859 102.269Z" fill="#231815"/>
<path d="M92.8796 100.878C92.8966 100.861 92.9813 100.725 92.9813 100.725L92.9983 100.708H93.0152C93.0152 100.708 94.0331 101.319 94.067 101.336C94.084 101.319 94.2368 101.081 94.2368 101.064C94.2199 101.064 93.0152 100.335 92.9983 100.335C92.9983 100.352 92.7777 100.776 92.7607 100.793L92.8796 100.878Z" fill="#231815"/>
<path d="M93.3209 99.5212C93.2531 99.6908 93.2531 99.8266 93.3209 99.9623C93.3718 100.064 93.4567 100.149 93.5584 100.2C93.6772 100.251 93.7789 100.251 93.8976 100.217C93.9994 100.166 94.0843 100.098 94.1352 99.9962C94.1521 99.9453 94.1691 99.8775 94.1691 99.8266C94.1691 99.7587 94.1521 99.7078 94.1352 99.6739L94.0672 99.5721L94.1861 99.623C94.2879 99.6739 94.3728 99.7248 94.4406 99.8096C94.5424 99.9284 94.5592 100.047 94.4913 100.183C94.4574 100.234 94.4236 100.302 94.3897 100.352C94.3897 100.352 94.2878 100.454 94.2708 100.471C94.2878 100.471 94.4404 100.539 94.4574 100.556C94.5422 100.437 94.6103 100.335 94.6612 100.217C94.746 100.013 94.746 99.8435 94.6612 99.6739C94.5763 99.5212 94.4406 99.4025 94.237 99.3176C94.0335 99.2328 93.8467 99.2159 93.6771 99.2498C93.5075 99.2498 93.3888 99.3516 93.3209 99.5212ZM93.8637 99.4703C93.9315 99.5042 93.9826 99.5382 94.0165 99.606C94.0674 99.6739 94.0672 99.7418 94.0333 99.8096C93.9993 99.8775 93.9315 99.9283 93.8637 99.9283C93.7958 99.9283 93.728 99.9283 93.6601 99.8944C93.5923 99.8605 93.5244 99.8265 93.4905 99.7587C93.4566 99.7078 93.4566 99.6399 93.4905 99.5721C93.5244 99.5042 93.5753 99.4533 93.6601 99.4533C93.711 99.4364 93.7789 99.4533 93.8637 99.4703Z" fill="#231815"/>
<path d="M94.4577 98.2145C94.3559 98.2993 94.2883 98.4351 94.2374 98.5878L94.2204 98.6556L94.2034 98.6726H94.1864L93.9489 98.5708C93.9319 98.5708 93.9319 98.5538 93.9319 98.5369C93.9319 98.5369 94.1015 97.9601 94.1015 97.9431C94.0845 97.9431 93.881 97.8922 93.864 97.8752C93.864 97.8922 93.7623 98.2485 93.7623 98.2485C93.7623 98.2485 93.6434 98.6726 93.6265 98.6895C93.6434 98.6895 94.3051 98.8592 94.3221 98.8761L94.339 98.8083C94.373 98.6726 94.4238 98.5708 94.4747 98.5199C94.5595 98.4351 94.6614 98.4011 94.7801 98.4351C94.848 98.452 94.9158 98.486 94.9497 98.5538C94.9837 98.6047 94.9837 98.6726 94.9667 98.7404C94.9667 98.7744 94.9327 98.8422 94.8818 98.9101C94.8818 98.9101 94.8141 99.0118 94.7971 99.0288C94.8141 99.0288 94.9667 99.0797 94.9837 99.0797C95.0007 99.0627 95.0686 98.9101 95.0686 98.9101L95.1363 98.7404C95.1872 98.5708 95.1872 98.4181 95.1193 98.2994C95.0684 98.1976 94.9836 98.1467 94.8818 98.0958C94.8818 98.0958 94.865 98.0958 94.848 98.0958C94.7123 98.0618 94.5764 98.1127 94.4577 98.2145Z" fill="#231815"/>
<path d="M94.5931 96.7048C94.5082 96.7896 94.4742 96.8744 94.4742 96.9932C94.4742 97.0611 94.4912 97.1119 94.5081 97.1798C94.5251 97.2307 94.5761 97.2816 94.61 97.2985C94.644 97.3155 94.6778 97.3494 94.6778 97.3494C94.6608 97.3664 94.61 97.3664 94.61 97.3664C94.4913 97.3664 94.3894 97.3494 94.2876 97.2985C94.1519 97.2307 94.084 97.1119 94.084 96.9762C94.084 96.9084 94.101 96.8575 94.101 96.7896C94.101 96.7896 94.152 96.6709 94.152 96.6369C94.135 96.6369 93.9654 96.6369 93.9484 96.6369C93.9145 96.7727 93.8975 96.9084 93.8975 97.0271C93.8975 97.2477 93.9823 97.4173 94.135 97.5361C94.2707 97.6209 94.4572 97.6718 94.6778 97.6718C94.8983 97.6718 95.085 97.6209 95.2037 97.5191C95.3395 97.4173 95.3903 97.2816 95.3903 97.095C95.3903 96.9084 95.3395 96.7896 95.2037 96.6878C95.102 96.62 95.0001 96.5691 94.8813 96.5691C94.7795 96.5861 94.6779 96.6369 94.5931 96.7048ZM95.1528 96.9593C95.2207 96.9932 95.2377 97.061 95.2377 97.1289C95.2377 97.1968 95.2037 97.2646 95.1358 97.3155C95.0849 97.3494 95.0171 97.3664 94.9323 97.3664C94.8644 97.3664 94.7965 97.3494 94.7287 97.3155C94.6608 97.2816 94.627 97.2137 94.627 97.1459C94.627 97.061 94.6608 97.0102 94.7287 96.9593C94.7796 96.9253 94.8474 96.9084 94.9323 96.9084C95.034 96.9084 95.1019 96.9253 95.1528 96.9593Z" fill="#231815"/>
<path d="M77.4931 93.3123C77.4592 93.4819 77.578 93.6516 77.7646 93.6685C77.9512 93.7024 78.1208 93.5837 78.1377 93.4141C78.1717 93.2444 78.0531 93.0748 77.8665 93.0578C77.6968 93.0239 77.527 93.1426 77.4931 93.3123Z" fill="#231815"/>
<path d="M94.7627 94.8047C94.7627 94.9744 94.6101 95.1101 94.4235 95.1101C94.2369 95.1101 94.1011 94.9574 94.1011 94.7878C94.1011 94.6181 94.2539 94.4824 94.4405 94.4824C94.6101 94.4994 94.7627 94.6351 94.7627 94.8047Z" fill="#231815"/>
<path d="M79.3934 90.496L79.2575 90.6487L78.8674 90.3264L78.6638 90.5639L79.4101 91.1915C79.4101 91.2085 79.3933 91.2424 79.3594 91.2763C79.3424 91.3103 79.3084 91.3442 79.2745 91.3951L78.986 91.7174L78.3923 91.2255L78.7317 90.8522L78.5959 90.7335L78.0361 91.3442L78.7487 91.938C78.7996 91.9719 78.8504 91.9888 78.9013 91.9888C78.9522 91.9888 79.0031 91.9549 79.0539 91.904L79.3934 91.5308C79.4273 91.4969 79.4611 91.446 79.4781 91.4121C79.495 91.3781 79.512 91.3272 79.512 91.3103L80.0718 91.7853L80.2416 91.5987C80.2416 91.5987 80.1905 91.4969 80.0718 91.3951L79.3764 90.8183L79.512 90.6656L80.4112 91.429L80.5808 91.2424C80.5808 91.2424 80.5299 91.1406 80.4112 91.0388L79.2066 90.021L79.003 90.2585L79.3934 90.496Z" fill="#231815"/>
<path d="M83.2443 88.6977C83.2443 88.6638 83.2443 88.6299 83.2443 88.562C83.2443 88.4941 83.2275 88.4432 83.1936 88.3923L82.9731 87.8665L81.5142 88.4263L81.5819 88.579L82.7355 88.1379L82.8882 88.5111C82.9051 88.562 82.9221 88.6129 82.9391 88.6468C82.9561 88.6977 82.9561 88.7316 82.9561 88.7825L81.6838 89.2745L81.7515 89.4272L82.481 89.1388L82.7695 89.8343L83.0068 89.7325C83.0068 89.7325 83.007 89.6138 82.9561 89.4611L82.7695 89.0031L83.2953 88.7995L83.4309 88.7486C83.5157 88.7147 83.5668 88.6638 83.5668 88.6638L83.5158 88.5281L83.2443 88.6977Z" fill="#231815"/>
<path d="M87.3153 88.0531L87.1117 88.0361L87.1627 87.5442L86.8572 87.5103L86.7725 88.4602C86.7386 88.4602 86.7046 88.4772 86.6706 88.4772C86.6197 88.4772 86.5859 88.4772 86.518 88.4772L86.0769 88.4433L86.1449 87.6969L86.6706 87.7478L86.6876 87.5781L85.8564 87.5103L85.7715 88.4094C85.7715 88.4772 85.7885 88.5111 85.8224 88.562C85.8564 88.596 85.9072 88.6299 85.992 88.6299L86.501 88.6808C86.5689 88.6808 86.6197 88.6808 86.6537 88.6808C86.7046 88.6808 86.7386 88.6638 86.7725 88.6469L86.7046 89.3594L86.9761 89.3763C86.9761 89.3763 87.0268 89.2745 87.0438 89.1219L87.1287 88.2397L87.3323 88.2567L87.2306 89.4103L87.5019 89.4272C87.5019 89.4272 87.5698 89.3254 87.5698 89.1728L87.7224 87.646L87.4002 87.612L87.3153 88.0531Z" fill="#231815"/>
<path d="M90.5384 89.6481C90.6572 89.6141 90.776 89.5463 90.8269 89.4445C90.8947 89.3427 90.9116 89.224 90.8776 89.1052C90.8776 89.0882 90.8606 89.0713 90.8606 89.0543L91.0982 89.207L91.1831 89.0713L90.7929 88.8338L90.8776 88.715L90.6063 88.5454L90.5214 88.6811L90.1313 88.4436L90.0464 88.5793L90.2839 88.715C90.1312 88.732 89.9956 88.7999 89.9277 88.9186C89.8599 89.0204 89.8429 89.1391 89.8768 89.2579C89.9107 89.3936 89.9956 89.4954 90.1143 89.5802C90.267 89.665 90.4027 89.682 90.5384 89.6481ZM90.1483 89.3088C90.1483 89.2239 90.1651 89.1391 90.216 89.0713C90.2669 88.9865 90.3349 88.9356 90.4198 88.9016C90.4876 88.8847 90.5385 88.8847 90.5724 88.9016C90.6063 88.9356 90.6401 88.9695 90.6401 89.0373C90.6571 89.1052 90.6233 89.19 90.5724 89.2748C90.4706 89.4275 90.3178 89.4954 90.216 89.4275C90.1821 89.4106 90.1652 89.3766 90.1483 89.3088ZM91.3527 89.6481L91.6242 89.224L91.3527 89.0713L90.759 89.9873L91.0305 90.14L91.268 89.7838L91.3866 89.8516C91.4545 89.9025 91.5223 89.9025 91.5223 89.9025L91.6072 89.7838L91.3527 89.6481ZM89.6562 89.6311L90.5894 90.1909L90.3179 90.5981L90.5554 90.7507C90.5554 90.7507 90.6572 90.6829 90.742 90.5472L90.9455 90.2248L89.7242 89.4954L89.6562 89.6311Z" fill="#231815"/>
<path d="M93.7788 92.6844C93.6601 92.7523 93.5582 92.8032 93.4734 92.8371C93.3885 92.871 93.3037 92.888 93.2358 92.888L93.3887 93.1255C93.4565 93.1255 93.5412 93.1255 93.626 93.0916C93.7278 93.0576 93.8296 93.0237 93.9314 92.9558L94.5421 92.6166L93.7788 91.4121L93.626 91.4969L94.2199 92.4469L93.7788 92.6844Z" fill="#231815"/>
<path d="M93.3891 93.3802L93.2532 93.1596L93.1176 92.9391L93.0836 92.8712L93.7283 92.498L93.5587 92.2436L92.914 92.6168L92.8461 92.515L92.8121 92.4641L93.4568 92.0909L93.2872 91.8364L92.6425 92.2096L92.4729 91.9382L92.3203 92.023L92.6765 92.5998L93.1006 93.2614L93.1685 93.3802C93.2194 93.448 93.2702 93.4819 93.2702 93.4819L93.3891 93.4141V93.3802Z" fill="#231815"/>
<path d="M87.2985 103.168C87.3324 103.168 87.4004 103.151 87.4173 103.1C87.4682 102.71 87.8414 101.099 90.1146 99.487C91.4378 98.5539 92.3707 97.7227 92.7779 96.0262C92.7949 95.9245 92.778 95.8736 92.6592 95.8566C92.2521 95.8057 91.2173 95.5852 90.3691 94.8557C90.3012 95.8396 89.7414 96.9593 89.0628 97.7736C86.7387 100.233 82.9048 99.7753 82.9048 99.7753V99.7923C82.9557 99.8432 82.9895 99.8771 83.0234 99.9111C84.2279 101.251 85.636 102.812 87.2985 103.168Z" fill="#DFD900"/>
<path d="M90.3859 94.8558C89.8091 94.4147 89.3679 93.7531 88.9607 93.1593C88.0956 91.8192 86.8234 90.496 85.5002 90.1058C85.3814 90.0718 85.2966 90.1058 85.2626 90.1906C85.11 90.5299 84.652 91.429 83.8377 92.2772C83.5832 92.5317 82.9385 93.1763 82.4465 93.5326C80.6144 94.8727 79.6643 95.8058 79.0027 97.095C78.9518 97.1799 78.9689 97.2647 79.0537 97.2986C79.4439 97.4174 80.6314 97.8584 81.8189 98.8254C82.0903 99.0459 82.9216 99.7754 82.9216 99.7754C82.9216 99.7754 86.8572 100.708 89.3848 98.2317C90.0804 97.4343 90.5046 96.0772 90.3859 94.8558Z" fill="#6FB92C"/>
<path d="M83.8718 92.4468C83.8379 92.4468 83.7871 92.4637 83.7701 92.5146C83.7023 92.9557 83.0916 95.8566 81.8532 98.6557C81.8362 98.7066 81.8362 98.7405 81.9041 98.7575C82.9559 98.8593 88.3335 99.453 88.6558 95.8227C88.9103 93.1423 85.0084 92.5316 83.8718 92.4468Z" fill="#007A66"/>
<path d="M132.237 109.072C132.288 109.021 132.356 108.953 132.424 108.885C132.475 108.834 132.543 108.766 132.594 108.698L132.679 108.614L132.848 108.427L132.933 108.325C133.408 107.765 133.815 107.172 134.154 106.578C134.205 106.493 134.256 106.391 134.307 106.306C134.341 106.222 134.341 106.137 134.307 106.052C133.425 104.339 132.305 102.846 131.016 101.607C130.931 101.523 130.796 101.506 130.694 101.556C130.592 101.607 130.524 101.726 130.558 101.845C130.558 101.862 130.558 101.862 130.558 101.862C130.558 101.896 130.575 101.93 130.575 101.964C130.575 101.964 130.575 101.981 130.575 101.998C130.575 102.014 130.575 102.031 130.592 102.048C130.609 102.099 130.609 102.15 130.626 102.201V102.235C130.643 102.286 130.66 102.354 130.677 102.422C130.694 102.473 130.711 102.523 130.728 102.574C130.779 102.761 130.847 102.948 130.88 103.117C130.931 103.355 130.965 103.592 130.965 103.83C130.965 104.305 130.931 104.814 130.846 105.356C130.762 105.916 130.643 106.442 130.507 106.968C130.456 107.155 130.304 107.664 130.117 108.257C129.846 109.19 130.88 109.971 131.695 109.445C131.966 109.258 132.17 109.123 132.237 109.072Z" fill="#3E3A39"/>
<path d="M127.198 102.71C127.249 102.659 127.317 102.591 127.385 102.524C127.436 102.473 127.504 102.405 127.554 102.337L127.639 102.235L127.809 102.049L127.894 101.947C128.352 101.37 128.742 100.776 129.064 100.182C129.115 100.098 129.166 99.9958 129.2 99.894C129.234 99.8092 129.234 99.7244 129.2 99.6396C128.267 97.9432 127.13 96.4673 125.807 95.2628C125.722 95.178 125.587 95.161 125.485 95.2289C125.383 95.2798 125.315 95.3985 125.349 95.5173C125.349 95.5173 125.349 95.5342 125.349 95.5512C125.349 95.5851 125.366 95.6191 125.366 95.653C125.366 95.653 125.366 95.6699 125.366 95.6869C125.366 95.7039 125.383 95.7208 125.383 95.7378C125.4 95.7887 125.417 95.8396 125.417 95.8905L125.434 95.9244C125.451 95.9753 125.468 96.0262 125.485 96.111C125.502 96.1619 125.519 96.2128 125.536 96.2637C125.604 96.4503 125.654 96.62 125.705 96.8066C125.756 97.0441 125.79 97.2816 125.807 97.5021C125.824 97.9771 125.79 98.486 125.722 99.0458C125.654 99.6056 125.553 100.149 125.417 100.657C125.366 100.844 125.23 101.353 125.061 101.964C124.806 102.914 125.858 103.66 126.672 103.1C126.944 102.914 127.147 102.778 127.198 102.71Z" fill="#3E3A39"/>
</g>
<defs>
<clipPath id="clip0_62_843">
<rect width="150" height="108" fill="white"/>
</clipPath>
</defs>
</svg>
