<svg width="273" height="228" viewBox="0 0 273 228" fill="none" xmlns="http://www.w3.org/2000/svg">
<circle opacity="0.7" cx="166" cy="121" r="56" fill="white"/>
<g clip-path="url(#clip0_610_2109)">
<path d="M172.29 74.3848H95.4684C92.7201 74.3848 90.4922 76.6127 90.4922 79.361V82.64C90.4922 85.3883 92.7201 87.6162 95.4684 87.6162H172.29C175.039 87.6162 177.266 85.3883 177.266 82.64V79.361C177.266 76.6127 175.039 74.3848 172.29 74.3848Z" fill="#D3ECFE"/>
<path d="M172.29 123.016H95.4684C92.7201 123.016 90.4922 125.244 90.4922 127.992V131.271C90.4922 134.019 92.7201 136.247 95.4684 136.247H172.29C175.039 136.247 177.266 134.019 177.266 131.271V127.992C177.266 125.244 175.039 123.016 172.29 123.016Z" fill="#D3ECFE"/>
<path d="M171.127 74.3859H96.6309L110.449 67.0735L128.447 57.5506C131.841 55.7487 135.917 55.7487 139.321 57.5506L157.309 67.0735L171.127 74.3859Z" fill="url(#paint0_linear_610_2109)"/>
<path d="M120 70L131.412 63.6753C132.202 63.2378 133.101 63 134 63C134.899 63 135.798 63.2283 136.588 63.6753L148 70H120V70Z" fill="url(#paint1_linear_610_2109)"/>
<path d="M112.387 87.6172H101.01V123.016H112.387V87.6172Z" fill="url(#paint2_linear_610_2109)"/>
<path opacity="0.5" d="M112.387 87.6172H101.01V95.3905H112.387V87.6172Z" fill="url(#paint3_linear_610_2109)"/>
<path opacity="0.5" d="M101.01 123.016H112.387V115.242H101.01V123.016Z" fill="url(#paint4_linear_610_2109)"/>
<path d="M130.51 87.6172H119.133V123.016H130.51V87.6172Z" fill="url(#paint5_linear_610_2109)"/>
<path opacity="0.5" d="M130.51 87.6172H119.133V95.3905H130.51V87.6172Z" fill="url(#paint6_linear_610_2109)"/>
<path opacity="0.5" d="M119.123 123.016H130.5V115.242H119.123V123.016Z" fill="url(#paint7_linear_610_2109)"/>
<path d="M148.625 87.6172H137.248V123.016H148.625V87.6172Z" fill="url(#paint8_linear_610_2109)"/>
<path opacity="0.5" d="M148.625 87.6172H137.248V95.3905H148.625V87.6172Z" fill="url(#paint9_linear_610_2109)"/>
<path opacity="0.5" d="M137.258 123.016H148.635V115.242H137.258V123.016Z" fill="url(#paint10_linear_610_2109)"/>
<path d="M166.748 87.6172H155.371V123.016H166.748V87.6172Z" fill="url(#paint11_linear_610_2109)"/>
<path opacity="0.5" d="M166.748 87.6172H155.371V95.3905H166.748V87.6172Z" fill="url(#paint12_linear_610_2109)"/>
<path opacity="0.5" d="M155.371 123.016H166.748V115.242H155.371V123.016Z" fill="url(#paint13_linear_610_2109)"/>
</g>
<defs>
<linearGradient id="paint0_linear_610_2109" x1="133.876" y1="80.8047" x2="133.876" y2="47.2931" gradientUnits="userSpaceOnUse">
<stop stop-color="#74CBFC"/>
<stop offset="1" stop-color="#65AFFB"/>
</linearGradient>
<linearGradient id="paint1_linear_610_2109" x1="119.975" y1="69.6066" x2="124.367" y2="57.0536" gradientUnits="userSpaceOnUse">
<stop stop-color="#FABE2C"/>
<stop offset="0.59" stop-color="#FABE2C"/>
<stop offset="1" stop-color="#FF9100"/>
</linearGradient>
<linearGradient id="paint2_linear_610_2109" x1="106.698" y1="135.51" x2="106.698" y2="70.2821" gradientUnits="userSpaceOnUse">
<stop stop-color="#74CBFC"/>
<stop offset="1" stop-color="#65AFFB"/>
</linearGradient>
<linearGradient id="paint3_linear_610_2109" x1="106.698" y1="88.1096" x2="106.698" y2="94.4058" gradientUnits="userSpaceOnUse">
<stop stop-color="#AC9F9D" stop-opacity="0.5"/>
<stop offset="0.17" stop-color="#AC9F9D" stop-opacity="0.32"/>
<stop offset="0.35" stop-color="#AC9F9D" stop-opacity="0.18"/>
<stop offset="0.55" stop-color="#AC9F9D" stop-opacity="0.08"/>
<stop offset="0.75" stop-color="#AC9F9D" stop-opacity="0.02"/>
<stop offset="1" stop-color="#AC9F9D" stop-opacity="0"/>
</linearGradient>
<linearGradient id="paint4_linear_610_2109" x1="106.698" y1="122.523" x2="106.698" y2="116.227" gradientUnits="userSpaceOnUse">
<stop stop-color="#AC9F9D" stop-opacity="0.5"/>
<stop offset="0.17" stop-color="#AC9F9D" stop-opacity="0.32"/>
<stop offset="0.35" stop-color="#AC9F9D" stop-opacity="0.18"/>
<stop offset="0.55" stop-color="#AC9F9D" stop-opacity="0.08"/>
<stop offset="0.75" stop-color="#AC9F9D" stop-opacity="0.02"/>
<stop offset="1" stop-color="#AC9F9D" stop-opacity="0"/>
</linearGradient>
<linearGradient id="paint5_linear_610_2109" x1="124.821" y1="135.51" x2="124.821" y2="70.2821" gradientUnits="userSpaceOnUse">
<stop stop-color="#74CBFC"/>
<stop offset="1" stop-color="#65AFFB"/>
</linearGradient>
<linearGradient id="paint6_linear_610_2109" x1="124.821" y1="88.1096" x2="124.821" y2="94.4058" gradientUnits="userSpaceOnUse">
<stop stop-color="#AC9F9D" stop-opacity="0.5"/>
<stop offset="0.17" stop-color="#AC9F9D" stop-opacity="0.32"/>
<stop offset="0.35" stop-color="#AC9F9D" stop-opacity="0.18"/>
<stop offset="0.55" stop-color="#AC9F9D" stop-opacity="0.08"/>
<stop offset="0.75" stop-color="#AC9F9D" stop-opacity="0.02"/>
<stop offset="1" stop-color="#AC9F9D" stop-opacity="0"/>
</linearGradient>
<linearGradient id="paint7_linear_610_2109" x1="124.822" y1="122.523" x2="124.822" y2="116.227" gradientUnits="userSpaceOnUse">
<stop stop-color="#AC9F9D" stop-opacity="0.5"/>
<stop offset="0.17" stop-color="#AC9F9D" stop-opacity="0.32"/>
<stop offset="0.35" stop-color="#AC9F9D" stop-opacity="0.18"/>
<stop offset="0.55" stop-color="#AC9F9D" stop-opacity="0.08"/>
<stop offset="0.75" stop-color="#AC9F9D" stop-opacity="0.02"/>
<stop offset="1" stop-color="#AC9F9D" stop-opacity="0"/>
</linearGradient>
<linearGradient id="paint8_linear_610_2109" x1="142.936" y1="135.51" x2="142.936" y2="70.2821" gradientUnits="userSpaceOnUse">
<stop stop-color="#74CBFC"/>
<stop offset="1" stop-color="#65AFFB"/>
</linearGradient>
<linearGradient id="paint9_linear_610_2109" x1="142.937" y1="88.1096" x2="142.937" y2="94.4058" gradientUnits="userSpaceOnUse">
<stop stop-color="#AC9F9D" stop-opacity="0.5"/>
<stop offset="0.17" stop-color="#AC9F9D" stop-opacity="0.32"/>
<stop offset="0.35" stop-color="#AC9F9D" stop-opacity="0.18"/>
<stop offset="0.55" stop-color="#AC9F9D" stop-opacity="0.08"/>
<stop offset="0.75" stop-color="#AC9F9D" stop-opacity="0.02"/>
<stop offset="1" stop-color="#AC9F9D" stop-opacity="0"/>
</linearGradient>
<linearGradient id="paint10_linear_610_2109" x1="142.936" y1="122.523" x2="142.936" y2="116.227" gradientUnits="userSpaceOnUse">
<stop stop-color="#AC9F9D" stop-opacity="0.5"/>
<stop offset="0.17" stop-color="#AC9F9D" stop-opacity="0.32"/>
<stop offset="0.35" stop-color="#AC9F9D" stop-opacity="0.18"/>
<stop offset="0.55" stop-color="#AC9F9D" stop-opacity="0.08"/>
<stop offset="0.75" stop-color="#AC9F9D" stop-opacity="0.02"/>
<stop offset="1" stop-color="#AC9F9D" stop-opacity="0"/>
</linearGradient>
<linearGradient id="paint11_linear_610_2109" x1="161.059" y1="135.51" x2="161.059" y2="70.2821" gradientUnits="userSpaceOnUse">
<stop stop-color="#74CBFC"/>
<stop offset="1" stop-color="#65AFFB"/>
</linearGradient>
<linearGradient id="paint12_linear_610_2109" x1="161.06" y1="88.1096" x2="161.06" y2="94.4058" gradientUnits="userSpaceOnUse">
<stop stop-color="#AC9F9D" stop-opacity="0.5"/>
<stop offset="0.17" stop-color="#AC9F9D" stop-opacity="0.32"/>
<stop offset="0.35" stop-color="#AC9F9D" stop-opacity="0.18"/>
<stop offset="0.55" stop-color="#AC9F9D" stop-opacity="0.08"/>
<stop offset="0.75" stop-color="#AC9F9D" stop-opacity="0.02"/>
<stop offset="1" stop-color="#AC9F9D" stop-opacity="0"/>
</linearGradient>
<linearGradient id="paint13_linear_610_2109" x1="161.059" y1="122.523" x2="161.059" y2="116.227" gradientUnits="userSpaceOnUse">
<stop stop-color="#AC9F9D" stop-opacity="0.5"/>
<stop offset="0.17" stop-color="#AC9F9D" stop-opacity="0.32"/>
<stop offset="0.35" stop-color="#AC9F9D" stop-opacity="0.18"/>
<stop offset="0.55" stop-color="#AC9F9D" stop-opacity="0.08"/>
<stop offset="0.75" stop-color="#AC9F9D" stop-opacity="0.02"/>
<stop offset="1" stop-color="#AC9F9D" stop-opacity="0"/>
</linearGradient>
<clipPath id="clip0_610_2109">
<rect width="88" height="80.6667" fill="white" transform="translate(90 56)"/>
</clipPath>
</defs>
</svg>
