<svg width="1000" height="1000" viewBox="0 0 1000 1000" fill="none" xmlns="http://www.w3.org/2000/svg">
<rect x="20.5" y="400.5" width="15" height="15" rx="1.5" stroke="#D2D9DD"/>
<rect x="0.5" y="400.5" width="15" height="15" rx="1.5" fill="#2062D1" stroke="#2066D4"/>
<path d="M3.5 407.5L7 411L13 405" stroke="white" stroke-width="1.3"/>
<path d="M51.9576 404.707L48.0796 408.587L44.2016 404.707C43.8118 404.317 43.1821 404.317 42.7923 404.707C42.4026 405.097 42.4026 405.727 42.7923 406.117L47.38 410.707C47.7698 411.097 48.3994 411.097 48.7892 410.707L53.3768 406.117C53.7666 405.727 53.7666 405.097 53.3768 404.707C52.987 404.327 52.3474 404.317 51.9576 404.707Z" fill="white"/>
<path d="M67.9966 411L63.2335 405L72.7598 405L67.9966 411Z" fill="#D9D9D9"/>
<rect x="26" y="503" width="20" height="1.93596" fill="#3079EC"/>
<rect x="26" y="510.744" width="20" height="1.93596" fill="#3079EC"/>
<rect x="26" y="518.488" width="20" height="1.93596" fill="#3079EC"/>
<path d="M19 511.196C19 515.692 15.2253 519.392 10.5 519.392C5.77466 519.392 2 515.692 2 511.196C2 506.7 5.77466 503 10.5 503C15.2253 503 19 506.7 19 511.196Z" stroke="#3079EC" stroke-width="2"/>
<line y1="-1" x2="6.32391" y2="-1" transform="matrix(0.79065 0.612268 -0.637053 0.77082 17 517.488)" stroke="#3079EC" stroke-width="2"/>
<path d="M105.972 410.774L108.918 407.996L105.972 405.219C105.676 404.94 105.676 404.489 105.972 404.209C106.268 403.93 106.747 403.93 107.043 404.209L110.528 407.495C110.824 407.774 110.824 408.226 110.528 408.505L107.043 411.791C106.747 412.07 106.268 412.07 105.972 411.791C105.684 411.511 105.676 411.053 105.972 410.774Z" fill="#888888" fill-opacity="0.5"/>
<path d="M88.7778 413.729H93.4444V406.866L88 402.724L82.5556 406.866V413.729H87.2222V409.164H88.7778V413.729ZM95 414.489C95 414.691 94.9181 414.885 94.7722 415.027C94.6263 415.17 94.4285 415.25 94.2222 415.25H81.7778C81.5715 415.25 81.3737 415.17 81.2278 415.027C81.0819 414.885 81 414.691 81 414.489V406.494C80.9999 406.378 81.0269 406.264 81.079 406.16C81.131 406.056 81.2067 405.965 81.3002 405.893L87.5224 401.16C87.659 401.056 87.827 401 88 401C88.173 401 88.341 401.056 88.4776 401.16L94.6998 405.893C94.7933 405.965 94.869 406.056 94.921 406.16C94.9731 406.264 95.0001 406.378 95 406.494V414.489Z" fill="#2062D1"/>
<circle cx="55" cy="215" r="14.5" fill="#1BA5D4" stroke="#1BA5D4"/>
<path fill-rule="evenodd" clip-rule="evenodd" d="M51.7198 219.19C51.0559 219.177 50.4126 218.954 49.8791 218.553C49.3456 218.151 48.9483 217.591 48.7423 216.95C49.1965 217.05 49.6666 217.05 50.1208 216.95C49.3785 216.781 48.7188 216.352 48.2586 215.736C47.7984 215.121 47.5674 214.361 47.6065 213.589C48.0465 213.835 48.5382 213.969 49.0401 213.981C48.3706 213.516 47.898 212.811 47.7161 212.008C47.5343 211.205 47.6566 210.362 48.0586 209.646C48.8719 210.641 49.8801 211.454 51.0191 212.033C52.1582 212.611 53.4032 212.943 54.6751 213.007C54.6751 212.883 54.6751 212.76 54.6751 212.648C54.5802 211.904 54.7483 211.15 55.1493 210.52C55.3875 210.125 55.7088 209.789 56.0901 209.535C56.4714 209.281 56.9033 209.116 57.3548 209.052C57.8591 208.958 58.3785 208.992 58.8671 209.15C59.3556 209.308 59.7982 209.586 60.1558 209.96C60.1772 209.985 60.205 210.003 60.2362 210.013C60.2673 210.023 60.3006 210.024 60.3322 210.016C60.9856 209.868 61.6138 209.623 62.1959 209.287V209.287C61.9589 210.05 61.4624 210.701 60.7954 211.125C61.4104 211.045 62.0116 210.879 62.5818 210.632V210.632L62.2179 211.125C61.8753 211.546 61.4827 211.922 61.049 212.245C61.049 212.245 61.049 212.301 61.049 212.346C61.0696 212.828 61.0512 213.311 60.9939 213.791C60.8559 214.801 60.5658 215.783 60.1337 216.703C59.7007 217.65 59.1156 218.517 58.4024 219.269C57.2146 220.535 55.6766 221.406 53.9914 221.767C53.4046 221.899 52.806 221.971 52.205 221.979C50.3965 222.042 48.6108 221.555 47.0772 220.579H47C48.0935 220.694 49.1979 220.525 50.209 220.086C50.7514 219.861 51.2599 219.559 51.7198 219.19V219.19Z" fill="white"/>
<circle cx="15" cy="215" r="14.5" fill="#1E4FAD" stroke="#1E4FAD"/>
<path fill-rule="evenodd" clip-rule="evenodd" d="M17.2286 211.087H18.5876V209.061C18.3799 209.061 18.1635 209.009 17.9471 209C17.5489 209 17.1507 209 16.7525 209C16.1344 208.991 15.529 209.176 15.0211 209.528C14.7424 209.732 14.5086 209.991 14.3343 210.288C14.16 210.586 14.0491 210.917 14.0083 211.26C13.9595 211.546 13.9363 211.835 13.9391 212.125C13.9391 212.584 13.9391 212.991 13.9391 213.493V213.666H12V215.926H13.9218V221.526H16.2763V215.856H18.1981C18.2933 215.103 18.3885 214.359 18.4924 213.58H16.259C16.259 213.58 16.259 212.463 16.259 211.978C16.2937 211.312 16.6919 211.104 17.2286 211.087Z" fill="white"/>
<circle cx="95" cy="215" r="14.5" fill="#FBBC02" stroke="#FBBC02"/>
<path d="M95.5382 208C91.3756 208 88 210.669 88 213.96C88 216.102 89.4308 217.979 91.5761 219.03C91.4254 219.618 91.0062 221.162 90.9233 221.492C90.8208 221.902 91.0741 221.897 91.2384 221.786C91.3681 221.7 93.3039 220.384 94.1391 219.815C94.6023 219.884 95.07 219.918 95.5382 219.918C99.7023 219.918 103.076 217.251 103.076 213.96C103.076 210.669 99.7023 208 95.5382 208Z" fill="white"/>
<circle cx="135" cy="215" r="15" fill="#888888"/>
<path d="M140.75 211.167H130.25C129.005 211.167 128 212.283 128 213.667V217C128 217.917 128.675 218.667 129.5 218.667H131V220.333C131 221.25 131.675 222 132.5 222H138.5C139.325 222 140 221.25 140 220.333V218.667H141.5C142.325 218.667 143 217.917 143 217V213.667C143 212.283 141.995 211.167 140.75 211.167ZM137.75 220.333H133.25C132.837 220.333 132.5 219.958 132.5 219.5V216.167H138.5V219.5C138.5 219.958 138.162 220.333 137.75 220.333ZM140.75 214.5C140.337 214.5 140 214.125 140 213.667C140 213.208 140.337 212.833 140.75 212.833C141.162 212.833 141.5 213.208 141.5 213.667C141.5 214.125 141.162 214.5 140.75 214.5ZM139.25 207H131.75C131.337 207 131 207.375 131 207.833V209.5C131 209.958 131.337 210.333 131.75 210.333H139.25C139.662 210.333 140 209.958 140 209.5V207.833C140 207.375 139.662 207 139.25 207Z" fill="white"/>
<line x1="141" y1="408" x2="155" y2="408" stroke="#C9C9C9" stroke-width="2"/>
<line x1="148" y1="401" x2="148" y2="415" stroke="#C9C9C9" stroke-width="2"/>
<line x1="161" y1="408" x2="175" y2="408" stroke="#111C47" stroke-width="2"/>
<path d="M122 403.95H131.55C131.826 403.95 132.05 404.174 132.05 404.45V414C132.05 414.277 131.826 414.5 131.55 414.5H122C121.724 414.5 121.5 414.277 121.5 414V404.45C121.5 404.174 121.724 403.95 122 403.95Z" fill="white" stroke="#3079EC"/>
<rect x="123.95" y="401.5" width="10.55" height="10.55" rx="0.5" fill="white" stroke="#3079EC"/>
<line x1="126.601" y1="404.7" x2="131.851" y2="404.7" stroke="#3079EC"/>
<path d="M9.2925 450.334C8.9025 449.889 8.2725 449.889 7.8825 450.334L3.2925 455.579C2.9025 456.025 2.9025 456.745 3.2925 457.191L7.8825 462.436C8.2725 462.881 8.9025 462.881 9.2925 462.436C9.6825 461.99 9.6825 461.27 9.2925 460.824L5.4125 456.379L9.2925 451.945C9.6825 451.5 9.6725 450.768 9.2925 450.334V450.334Z" fill="#888888"/>
<path d="M63.2925 462.436C63.6825 462.881 64.3125 462.881 64.7025 462.436L69.2925 457.191C69.6825 456.745 69.6825 456.025 69.2925 455.579L64.7025 450.334C64.3125 449.889 63.6825 449.889 63.2925 450.334C62.9025 450.78 62.9025 451.5 63.2925 451.945L67.1725 456.391L63.2925 460.824C62.9025 461.27 62.9125 462.001 63.2925 462.436V462.436Z" fill="#888888"/>
<path d="M48.6141 455.411C48.9724 455.795 48.9724 456.391 48.6141 456.775L45.7315 459.866C45.1124 460.529 44.0002 460.091 44.0002 459.184L44.0002 453.002C44.0002 452.094 45.1124 451.656 45.7315 452.32L48.6141 455.411Z" fill="#888888"/>
<path d="M24.5 460.499C25.05 460.499 25.5 459.985 25.5 459.356V453.643C25.5 453.014 25.05 452.5 24.5 452.5C23.95 452.5 23.5 453.014 23.5 453.643V459.356C23.5 459.985 23.95 460.499 24.5 460.499ZM27.5 453.643V459.356C27.5 459.985 27.95 460.499 28.5 460.499C29.05 460.499 29.5 459.985 29.5 459.356V453.643C29.5 453.014 29.05 452.5 28.5 452.5C27.95 452.5 27.5 453.014 27.5 453.643Z" fill="#888888"/>
<path d="M574.368 62.5749C571.064 62.5749 570.464 62.8814 568.203 65.1053L567.804 65.497L570.437 68.0854C572.069 66.4642 573.114 66.2054 575.382 66.2054H650.41V62.5749H574.368Z" fill="#0068B7"/>
<path d="M567.406 65.1053C565.144 62.8814 564.545 62.5749 561.242 62.5749H500V66.2054H560.227C562.495 66.2054 563.551 66.4745 565.182 68.0956L567.808 65.5004L567.406 65.1053Z" fill="#F39800"/>
<path d="M565.183 68.0956L567.805 70.7043L570.441 68.0853L567.808 65.5004L565.183 68.0956Z" fill="#004098"/>
<path d="M582.32 75.9185V76.6201H575.236V75.9185H578.359V74.2599H579.187V75.9185H582.32ZM578.778 72.7206C578.734 72.8159 578.628 72.9351 578.465 73.0816C578.301 73.228 578.076 73.3881 577.79 73.5686C577.545 73.7252 577.286 73.8853 577.011 74.0488C576.738 74.2122 576.424 74.3927 576.074 74.5903L575.665 73.9364C575.999 73.7525 576.305 73.5788 576.585 73.4187C576.864 73.2553 577.143 73.0816 577.423 72.8909C577.613 72.7614 577.77 72.6388 577.893 72.523C578.015 72.4072 578.11 72.2846 578.182 72.1552C578.25 72.0258 578.298 71.8861 578.325 71.7329C578.349 71.5796 578.363 71.3991 578.363 71.1914V70.4387H579.201V71.1914C579.201 71.3991 579.211 71.5796 579.235 71.7329C579.258 71.8861 579.306 72.0292 579.377 72.1586C579.449 72.2914 579.554 72.4174 579.688 72.54C579.82 72.6627 580.004 72.7989 580.232 72.9487C580.495 73.1224 580.757 73.2825 581.019 73.4358C581.281 73.5856 581.577 73.7525 581.908 73.9296L581.506 74.5732C581.193 74.3961 580.889 74.219 580.593 74.0488C580.297 73.8785 580.024 73.7116 579.772 73.5516C579.5 73.3779 579.279 73.2212 579.112 73.0782C578.945 72.9351 578.839 72.8159 578.795 72.7239H578.778V72.7206Z" fill="#0068B7"/>
<path d="M585.099 72.5946C585.075 72.6661 585.011 72.7683 584.898 72.8977C584.786 73.0271 584.667 73.1498 584.538 73.2655C584.363 73.429 584.163 73.6061 583.934 73.7968C583.706 73.9909 583.478 74.1749 583.257 74.3554L582.763 73.7696C583.032 73.5618 583.287 73.3574 583.529 73.1498C583.771 72.942 583.965 72.7683 584.112 72.6219C584.217 72.5163 584.306 72.4141 584.373 72.3153C584.442 72.2166 584.5 72.1178 584.541 72.0122C584.582 71.91 584.612 71.7976 584.629 71.6819C584.646 71.566 584.653 71.4332 584.653 71.2868V70.2753H585.491V71.2561C585.491 71.3855 585.494 71.5014 585.505 71.6035C585.511 71.7057 585.532 71.8045 585.559 71.8931C585.586 71.9816 585.63 72.0701 585.688 72.1552C585.746 72.2404 585.828 72.3289 585.927 72.4175C586.121 72.5946 586.336 72.7819 586.567 72.9693C586.799 73.16 587.04 73.3439 587.293 73.521L586.806 74.0999C586.587 73.9364 586.38 73.7764 586.182 73.6095C585.985 73.446 585.783 73.2792 585.583 73.1123C585.454 73.0067 585.351 72.9079 585.269 72.8193C585.188 72.7308 585.133 72.6559 585.106 72.5946H585.099ZM584.306 76.0617C584.306 75.8607 584.36 75.67 584.466 75.4929C584.572 75.3158 584.724 75.1591 584.925 75.0229C585.126 74.8901 585.372 74.7845 585.658 74.7061C585.944 74.6279 586.271 74.5904 586.631 74.5904C586.993 74.5904 587.32 74.6312 587.606 74.7061C587.892 74.7845 588.137 74.8901 588.338 75.0229C588.539 75.1557 588.692 75.3124 588.798 75.4929C588.903 75.67 588.958 75.8607 588.958 76.0617V76.3954C588.958 76.5964 588.903 76.7871 588.798 76.9642C588.692 77.1413 588.539 77.2979 588.338 77.4341C588.137 77.5669 587.892 77.6726 587.606 77.7508C587.32 77.8292 586.993 77.8667 586.631 77.8667C586.271 77.8667 585.944 77.8292 585.658 77.7508C585.372 77.6726 585.126 77.5669 584.925 77.4341C584.724 77.3013 584.572 77.1447 584.466 76.9642C584.36 76.7871 584.306 76.5964 584.306 76.3954V76.0617ZM588.148 76.1127C588.148 76.0106 588.114 75.9117 588.042 75.8062C587.97 75.7041 587.871 75.6121 587.739 75.5338C587.606 75.4554 587.449 75.3907 587.262 75.3396C587.074 75.2885 586.864 75.2647 586.628 75.2647C586.394 75.2647 586.182 75.2885 585.995 75.3396C585.807 75.3907 585.647 75.4554 585.518 75.5338C585.385 75.6121 585.286 75.7041 585.218 75.8062C585.147 75.9083 585.113 76.0106 585.113 76.1127V76.3477C585.113 76.4499 585.147 76.5487 585.218 76.6542C585.286 76.7564 585.389 76.8483 585.518 76.9267C585.647 77.005 585.807 77.0697 585.995 77.1208C586.182 77.1719 586.394 77.1957 586.628 77.1957C586.864 77.1957 587.074 77.1719 587.262 77.1208C587.449 77.0697 587.609 77.005 587.739 76.9267C587.871 76.8483 587.97 76.7564 588.042 76.6542C588.11 76.5521 588.148 76.4499 588.148 76.3477V76.1127ZM590.024 72.5197H588.927V74.4882H588.107V69.9313H588.927V71.7976H590.024V72.5197Z" fill="#0068B7"/>
<path d="M597.558 73.4835V74.1885H590.473V73.4835H593.171V71.9679H594.009V73.4835H597.558ZM591.407 70.2412H596.505V71.2221C596.505 71.3106 596.502 71.4264 596.491 71.5695C596.484 71.7125 596.471 71.8624 596.454 72.0258C596.437 72.1893 596.416 72.3528 596.386 72.523C596.358 72.6933 596.328 72.8535 596.294 73.0033L595.473 72.9113C595.544 72.5946 595.596 72.2915 595.623 72.002C595.651 71.7159 595.664 71.4571 595.664 71.2289V70.9428H591.403V70.2412H591.407ZM594.019 74.7402C594.36 74.7402 594.676 74.7709 594.969 74.8356C595.262 74.9003 595.517 74.9922 595.736 75.1148C595.953 75.2375 596.124 75.3873 596.246 75.5576C596.369 75.7313 596.43 75.9288 596.43 76.1536V76.4567C596.43 76.6815 596.369 76.879 596.246 77.0561C596.124 77.2332 595.953 77.3797 595.736 77.4988C595.517 77.618 595.262 77.71 594.969 77.7747C594.676 77.8394 594.36 77.8701 594.019 77.8701C593.678 77.8701 593.362 77.8394 593.069 77.7747C592.776 77.71 592.521 77.618 592.302 77.4988C592.085 77.3797 591.914 77.2298 591.792 77.0561C591.669 76.879 591.608 76.6815 591.608 76.4567V76.1536C591.608 75.9288 591.669 75.7313 591.792 75.5576C591.914 75.3839 592.085 75.2375 592.302 75.1148C592.521 74.9922 592.776 74.9003 593.069 74.8356C593.362 74.7709 593.678 74.7402 594.019 74.7402ZM594.019 77.1924C594.243 77.1924 594.451 77.1719 594.642 77.131C594.836 77.0901 595.003 77.0323 595.146 76.9641C595.289 76.8926 595.402 76.8109 595.486 76.7155C595.572 76.6202 595.613 76.518 595.613 76.4056V76.2047C595.613 76.0991 595.572 75.9969 595.486 75.8982C595.402 75.7994 595.289 75.7177 595.146 75.6461C595.003 75.578 594.836 75.5201 594.642 75.4792C594.448 75.4384 594.24 75.418 594.019 75.418C593.794 75.418 593.586 75.4384 593.396 75.4792C593.201 75.5201 593.035 75.578 592.891 75.6461C592.748 75.7177 592.636 75.7994 592.551 75.8982C592.466 75.9969 592.425 76.0991 592.425 76.2047V76.4056C592.425 76.518 592.466 76.6202 592.551 76.7155C592.636 76.8109 592.748 76.8926 592.891 76.9641C593.035 77.0323 593.201 77.0901 593.396 77.131C593.586 77.1719 593.794 77.1924 594.019 77.1924Z" fill="#0068B7"/>
<path d="M598.422 72.0088C598.422 71.8181 598.46 71.6206 598.538 71.4094C598.616 71.2016 598.735 71.0075 598.899 70.8372C599.062 70.6635 599.263 70.5205 599.502 70.4115C599.74 70.2991 600.026 70.2447 600.357 70.2447C600.68 70.2447 600.963 70.2991 601.208 70.4115C601.45 70.5239 601.654 70.6669 601.814 70.8372C601.977 71.0109 602.097 71.2016 602.175 71.4094C602.253 71.6171 602.291 71.8181 602.291 72.0088V72.4447C602.291 72.6354 602.25 72.833 602.175 73.0441C602.097 73.2519 601.977 73.446 601.814 73.6163C601.651 73.79 601.45 73.933 601.208 74.0421C600.966 74.1544 600.68 74.2089 600.357 74.2089C600.026 74.2089 599.743 74.1544 599.502 74.0421C599.26 73.9296 599.059 73.7866 598.899 73.6163C598.735 73.4426 598.616 73.2519 598.538 73.0441C598.46 72.8364 598.422 72.6354 598.422 72.4447V72.0088ZM601.494 72.0429C601.494 71.9134 601.47 71.7874 601.426 71.658C601.382 71.5286 601.314 71.4128 601.222 71.3107C601.13 71.2084 601.014 71.1233 600.871 71.0586C600.728 70.9939 600.557 70.9633 600.357 70.9633C600.155 70.9633 599.982 70.9939 599.839 71.0586C599.692 71.1233 599.577 71.205 599.485 71.3107C599.393 71.4128 599.324 71.5286 599.283 71.658C599.243 71.7874 599.222 71.9134 599.222 72.0429V72.4107C599.222 72.5401 599.246 72.6661 599.29 72.7956C599.335 72.925 599.403 73.0407 599.495 73.1429C599.587 73.2451 599.702 73.3303 599.846 73.3949C599.989 73.4597 600.159 73.4903 600.36 73.4903C600.561 73.4903 600.731 73.4597 600.874 73.3949C601.017 73.3303 601.133 73.2485 601.225 73.1429C601.317 73.0407 601.385 72.925 601.429 72.7956C601.473 72.6661 601.497 72.5401 601.497 72.4107V72.0429H601.494ZM600.496 76.8483H604.647V77.5669H599.665V75.0058H600.493V76.8483H600.496ZM603.67 75.4418V69.9313H604.491V75.4418H603.67Z" fill="#0068B7"/>
<path d="M608.132 73.7934C608.095 73.8888 608.037 73.9841 607.962 74.0795C607.887 74.1749 607.782 74.294 607.648 74.4405C607.475 74.6312 607.278 74.8355 607.052 75.0569C606.828 75.2783 606.576 75.5201 606.289 75.7823L605.745 75.2204C606.252 74.7675 606.695 74.3349 607.066 73.9228C607.195 73.7764 607.302 73.6436 607.383 73.521C607.468 73.3983 607.533 73.2757 607.58 73.1566C607.628 73.0373 607.662 72.9147 607.679 72.7888C607.7 72.6627 607.71 72.5265 607.71 72.3732V70.4898H608.548V72.3732C608.548 72.5401 608.558 72.6899 608.582 72.8227C608.602 72.9556 608.64 73.0782 608.691 73.2008C608.742 73.32 608.81 73.4426 608.895 73.5618C608.98 73.681 609.09 73.8104 609.219 73.9501C609.395 74.1442 609.583 74.3383 609.78 74.5222C609.975 74.7095 610.199 74.9139 610.452 75.1387L609.917 75.7075C609.627 75.4384 609.382 75.2068 609.185 75.0092C608.987 74.8118 608.807 74.6244 608.643 74.4508C608.527 74.3213 608.422 74.2021 608.33 74.0897C608.238 73.9773 608.177 73.882 608.143 73.7968H608.132V73.7934ZM611.283 77.6521V69.9313H612.11V77.6521H611.283Z" fill="#0068B7"/>
<path d="M615.72 72.7376C615.693 72.8091 615.625 72.9079 615.519 73.0339C615.414 73.16 615.294 73.2792 615.158 73.3881C614.981 73.5448 614.78 73.7083 614.559 73.882C614.337 74.0557 614.113 74.2226 613.877 74.386L613.39 73.79C613.66 73.5993 613.908 73.4154 614.143 73.2349C614.378 73.0544 614.569 72.8909 614.722 72.7445C614.821 72.6457 614.909 72.5469 614.981 72.4515C615.053 72.3562 615.11 72.2574 615.151 72.1552C615.192 72.0531 615.223 71.9407 615.243 71.8215C615.263 71.7023 615.274 71.566 615.274 71.4162V71.1233H613.65V70.4115H617.644V71.1233H616.111V71.3821C616.111 71.515 616.118 71.6376 616.128 71.7431C616.139 71.8488 616.159 71.9475 616.19 72.0361C616.22 72.1246 616.265 72.2098 616.32 72.2915C616.374 72.3732 616.452 72.4549 616.544 72.5401C616.738 72.7172 616.946 72.8909 617.164 73.0544C617.382 73.2178 617.617 73.3813 617.869 73.5448L617.399 74.1476C617.181 73.9978 616.977 73.8479 616.79 73.7049C616.598 73.5584 616.405 73.4051 616.203 73.2349C616.074 73.1293 615.972 73.0339 615.891 72.9556C615.808 72.8739 615.754 72.8024 615.727 72.741H615.72V72.7376ZM614.807 76.0617C614.807 75.8607 614.861 75.67 614.967 75.4929C615.073 75.3158 615.226 75.1591 615.427 75.0229C615.628 74.8901 615.873 74.7845 616.159 74.7061C616.446 74.6279 616.773 74.5904 617.133 74.5904C617.494 74.5904 617.821 74.6312 618.108 74.7061C618.393 74.7845 618.639 74.8901 618.839 75.0229C619.041 75.1557 619.194 75.3124 619.299 75.4929C619.405 75.67 619.46 75.8607 619.46 76.0617V76.3954C619.46 76.5964 619.405 76.7871 619.299 76.9642C619.194 77.1413 619.041 77.2979 618.839 77.4341C618.639 77.5669 618.393 77.6726 618.108 77.7508C617.821 77.8292 617.494 77.8667 617.133 77.8667C616.773 77.8667 616.446 77.8292 616.159 77.7508C615.873 77.6726 615.628 77.5669 615.427 77.4341C615.226 77.3013 615.073 77.1447 614.967 76.9642C614.861 76.7871 614.807 76.5964 614.807 76.3954V76.0617ZM618.649 76.1127C618.649 76.0106 618.615 75.9117 618.543 75.8062C618.471 75.7041 618.373 75.6121 618.24 75.5338C618.108 75.4554 617.95 75.3907 617.764 75.3396C617.576 75.2885 617.365 75.2647 617.13 75.2647C616.895 75.2647 616.683 75.2885 616.496 75.3396C616.309 75.3907 616.149 75.4554 616.02 75.5338C615.887 75.6121 615.788 75.7041 615.72 75.8062C615.648 75.9083 615.614 76.0106 615.614 76.1127V76.3477C615.614 76.4499 615.648 76.5487 615.72 76.6542C615.788 76.7564 615.891 76.8483 616.02 76.9267C616.149 77.005 616.309 77.0697 616.496 77.1208C616.683 77.1719 616.895 77.1957 617.13 77.1957C617.365 77.1957 617.576 77.1719 617.764 77.1208C617.95 77.0697 618.111 77.005 618.24 76.9267C618.373 76.8483 618.471 76.7564 618.543 76.6542C618.612 76.5521 618.649 76.4499 618.649 76.3477V76.1127ZM618.608 74.4882V69.9313H619.429V71.7976H620.525V72.5163H619.429V74.4848H618.608V74.4882Z" fill="#0068B7"/>
<path d="M623.489 72.9386C623.462 73.0101 623.393 73.1089 623.284 73.2315C623.175 73.3541 623.056 73.4733 622.93 73.5925C622.753 73.7559 622.549 73.9228 622.324 74.0965C622.099 74.2702 621.867 74.4371 621.633 74.6006L621.146 74.0046C621.414 73.8138 621.67 73.6265 621.915 73.4392C622.161 73.2519 622.354 73.0884 622.501 72.9488C622.6 72.8534 622.685 72.7581 622.756 72.6627C622.824 72.5674 622.882 72.4686 622.923 72.3664C622.964 72.2642 622.995 72.1484 623.016 72.0259C623.036 71.9032 623.046 71.767 623.046 71.6171V71.1404H621.404V70.4286H625.43V71.1404H623.881V71.5831C623.881 71.8522 623.908 72.0736 623.966 72.2472C624.02 72.4243 624.139 72.5878 624.316 72.7445C624.517 72.9216 624.728 73.0952 624.953 73.2587C625.178 73.4222 625.41 73.5856 625.658 73.7491L625.188 74.352C624.97 74.2021 624.763 74.0523 624.568 73.9024C624.374 73.7559 624.173 73.5959 623.973 73.429C623.843 73.3234 623.74 73.228 623.659 73.1498C623.577 73.068 623.523 72.9964 623.496 72.9352H623.489V72.9386ZM623.356 76.8483H627.508V77.5669H622.525V74.9616H623.352V76.8483H623.356ZM626.527 75.435V69.9313H627.347V75.435H626.527Z" fill="#0068B7"/>
<path d="M635.654 74.185V74.873H628.57V74.185H635.654ZM629.299 70.5341H631.693V69.8155H632.521V70.5341H634.925V71.222H629.299V70.5341ZM632.112 77.8871C631.734 77.8871 631.393 77.8564 631.093 77.7951C630.794 77.7338 630.541 77.6487 630.338 77.5363C630.129 77.4239 629.973 77.2945 629.864 77.1412C629.755 76.9914 629.7 76.8244 629.7 76.6405V76.4329C629.7 76.0582 629.912 75.7585 630.338 75.5269C630.763 75.2987 631.352 75.1829 632.112 75.1829C632.871 75.1829 633.464 75.2987 633.886 75.5269C634.312 75.7551 634.523 76.0582 634.523 76.4329V76.6405C634.523 76.8244 634.469 76.9914 634.36 77.1412C634.251 77.2911 634.094 77.4239 633.886 77.5363C633.678 77.6487 633.427 77.7338 633.13 77.7951C632.83 77.8564 632.494 77.8871 632.112 77.8871ZM632.112 73.8854C631.764 73.8854 631.451 73.8615 631.165 73.8138C630.879 73.7661 630.633 73.6981 630.429 73.6095C630.222 73.521 630.065 73.4085 629.953 73.2757C629.84 73.1429 629.786 72.9863 629.786 72.8058V72.5707C629.786 72.397 629.84 72.2438 629.953 72.1075C630.065 71.9713 630.222 71.8589 630.429 71.767C630.637 71.6784 630.882 71.6103 631.165 71.5626C631.451 71.515 631.764 71.4911 632.112 71.4911C632.459 71.4911 632.772 71.515 633.059 71.5626C633.345 71.6103 633.59 71.6784 633.794 71.767C634.002 71.8555 634.158 71.9679 634.271 72.1075C634.384 72.2438 634.438 72.4005 634.438 72.5707V72.8058C634.438 72.9829 634.384 73.1395 634.271 73.2757C634.158 73.4085 633.999 73.521 633.794 73.6095C633.586 73.6981 633.341 73.7661 633.059 73.8138C632.772 73.8615 632.459 73.8854 632.112 73.8854ZM632.112 75.8607C631.622 75.8607 631.233 75.9219 630.947 76.0412C630.661 76.1604 630.521 76.3068 630.521 76.4805V76.5895C630.521 76.7632 630.664 76.9096 630.947 77.0288C631.233 77.1481 631.618 77.2093 632.112 77.2093C632.602 77.2093 632.991 77.1481 633.276 77.0288C633.563 76.9096 633.702 76.7632 633.702 76.5895V76.4805C633.702 76.3068 633.559 76.1604 633.276 76.0412C632.991 75.9219 632.602 75.8607 632.112 75.8607ZM632.112 72.1518C631.625 72.1518 631.254 72.1961 630.994 72.2812C630.736 72.3664 630.606 72.489 630.606 72.6456V72.7308C630.606 72.8875 630.736 73.01 630.994 73.0952C631.254 73.1803 631.628 73.2246 632.112 73.2246C632.599 73.2246 632.97 73.1803 633.229 73.0952C633.488 73.01 633.617 72.8875 633.617 72.7308V72.6456C633.617 72.489 633.488 72.3664 633.229 72.2812C632.97 72.1961 632.599 72.1518 632.112 72.1518Z" fill="#0068B7"/>
<path d="M643.273 73.4835V74.1885H636.189V73.4835H638.886V71.9679H639.724V73.4835H643.273ZM637.118 70.2412H642.217V71.2221C642.217 71.3106 642.214 71.4264 642.203 71.5695C642.196 71.7125 642.183 71.8624 642.165 72.0258C642.148 72.1893 642.128 72.3528 642.097 72.523C642.07 72.6933 642.04 72.8535 642.006 73.0033L641.185 72.9113C641.256 72.5946 641.307 72.2915 641.335 72.002C641.362 71.7159 641.376 71.4571 641.376 71.2289V70.9428H637.115V70.2412H637.118ZM639.731 74.7402C640.071 74.7402 640.388 74.7709 640.681 74.8356C640.974 74.9003 641.229 74.9922 641.447 75.1148C641.665 75.2375 641.836 75.3873 641.958 75.5576C642.08 75.7313 642.141 75.9288 642.141 76.1536V76.4567C642.141 76.6815 642.08 76.879 641.958 77.0561C641.836 77.2332 641.665 77.3797 641.447 77.4988C641.229 77.618 640.974 77.71 640.681 77.7747C640.388 77.8394 640.071 77.8701 639.731 77.8701C639.39 77.8701 639.073 77.8394 638.781 77.7747C638.487 77.71 638.232 77.618 638.014 77.4988C637.796 77.3797 637.626 77.2298 637.503 77.0561C637.381 76.879 637.32 76.6815 637.32 76.4567V76.1536C637.32 75.9288 637.381 75.7313 637.503 75.5576C637.626 75.3839 637.796 75.2375 638.014 75.1148C638.232 74.9922 638.487 74.9003 638.781 74.8356C639.073 74.7709 639.39 74.7402 639.731 74.7402ZM639.731 77.1924C639.955 77.1924 640.163 77.1719 640.353 77.131C640.548 77.0901 640.715 77.0323 640.858 76.9641C641.001 76.8926 641.113 76.8109 641.198 76.7155C641.283 76.6202 641.325 76.518 641.325 76.4056V76.2047C641.325 76.0991 641.283 75.9969 641.198 75.8982C641.113 75.7994 641.001 75.7177 640.858 75.6461C640.715 75.578 640.548 75.5201 640.353 75.4792C640.16 75.4384 639.952 75.418 639.731 75.418C639.506 75.418 639.298 75.4384 639.108 75.4792C638.913 75.5201 638.747 75.578 638.603 75.6461C638.46 75.7177 638.348 75.7994 638.263 75.8982C638.178 75.9969 638.136 76.0991 638.136 76.2047V76.4056C638.136 76.518 638.178 76.6202 638.263 76.7155C638.348 76.8109 638.46 76.8926 638.603 76.9641C638.747 77.0323 638.913 77.0901 639.108 77.131C639.301 77.1719 639.509 77.1924 639.731 77.1924Z" fill="#0068B7"/>
<path d="M648.463 73.9262C648.167 73.9637 647.89 73.9978 647.636 74.0182C647.38 74.0421 647.093 74.0591 646.781 74.0727C646.467 74.0863 646.106 74.0965 645.69 74.1033C645.278 74.1101 644.771 74.1101 644.168 74.1101V70.4354H647.744V71.1472H644.982V73.3983C645.412 73.3983 645.776 73.3949 646.075 73.3915C646.375 73.3847 646.647 73.3779 646.893 73.3677C647.138 73.3574 647.376 73.3405 647.605 73.3234C647.833 73.303 648.092 73.2757 648.384 73.2451L648.463 73.9262ZM646.017 76.8483H650.111V77.5669H645.186V75.0058H646.014V76.8483H646.017ZM651 72.6627H649.904V75.4418H649.083V69.9313H649.904V71.9407H651V72.6627Z" fill="#0068B7"/>
<path d="M582.651 44.2418H579.538V59.5335H582.651V44.2418Z" fill="#0068B7"/>
<path d="M598.575 44.2418H595.463V53.2601H598.575V44.2418Z" fill="#0068B7"/>
<path d="M616.758 59.5301V44.2418H614.102V50.1302H612.777V44.2418H610.121V59.5301H612.777V52.7016H614.102V59.5301H616.758Z" fill="#0068B7"/>
<path d="M644.079 44.4189H635.909V47.2526H644.079V44.4189Z" fill="#0068B7"/>
<path d="M646.651 56.4821L645.521 53.7268C645.521 53.7268 642.687 55.4399 639.176 55.4399V51.8502H644.077V49.0609H635.906V58.3756C642.979 58.379 646.651 56.4821 646.651 56.4821Z" fill="#0068B7"/>
<path d="M650.411 59.5301V44.2418H647.298V48.8735H645.514V52.2691C645.997 52.2555 646.491 52.2453 646.981 52.2453H647.298V59.5335H650.411V59.5301Z" fill="#0068B7"/>
<path d="M633.529 46.871C633.515 45.1307 632.453 44.1022 630.283 44.1022H622.303C620.134 44.1022 619.034 44.9843 619.034 46.7314V47.3853C619.034 49.1324 620.134 50.0179 622.303 50.0179H630.283C632.47 50.0179 633.535 49.1563 633.535 47.3853V46.6939L633.529 46.871ZM630.3 47.2354C630.3 47.9472 629.591 47.9472 629.326 47.9472H623.277C622.46 47.9472 622.337 47.5011 622.337 47.2354C622.337 47.2218 622.334 46.8948 622.334 46.8812C622.334 46.6156 622.46 46.1694 623.277 46.1694H629.323C629.595 46.1694 630.3 46.1694 630.3 46.8812C630.3 46.8948 630.3 47.2184 630.3 47.2354Z" fill="#0068B7"/>
<path d="M606.014 44.4258V48.8021H603.912V44.4258H600.994V55.1708C600.994 56.179 601.467 56.9963 602.683 56.9963H608.854V44.4258H606.014ZM606.014 54.3875H603.912V51.3394H606.014V54.3875Z" fill="#0068B7"/>
<path d="M633.964 53.0252V50.8047H618.509V53.0252H624.66V54.0844H619.109V57.7694C619.109 59.0091 619.96 59.5949 620.893 59.5949H633.481V54.0878H628.12V53.0252H633.964ZM630.167 56.0733V57.5071H622.419V56.0733H630.167Z" fill="#0068B7"/>
<path d="M590.858 45.9515V44.4394H589.244H587.599V45.9515C587.599 48.8464 587.061 49.3232 583.581 51.4892L585.494 53.577C588.385 52.276 589.244 50.2018 589.244 50.2018C589.244 50.2018 590.099 52.276 592.991 53.577L594.904 51.4892C591.423 49.3232 590.858 48.8464 590.858 45.9515Z" fill="#0068B7"/>
<path d="M584.646 54.3807V56.9248H595.337V59.5302H598.78V54.3807H584.646Z" fill="#0068B7"/>
<path d="M565.329 44.2384H562.213V54.6531H565.329V44.2384Z" fill="#F39800"/>
<path d="M534.612 56.9895C534.626 58.7128 535.689 59.7311 537.859 59.7311H545.749C547.919 59.7311 549.019 58.8593 549.019 57.1292V56.4821C549.019 54.7554 547.919 53.8767 545.749 53.8767H537.859C535.672 53.8767 534.605 54.7281 534.605 56.4821V57.17L534.612 56.9895ZM537.787 56.6455C537.787 56.0121 538.512 56.0121 538.59 56.0121H544.997C545.606 56.0121 545.77 56.4105 545.77 56.6455C545.77 56.6558 545.77 56.9521 545.77 56.9623C545.77 57.2007 545.606 57.5958 544.997 57.5958H538.594C538.512 57.5958 537.787 57.5958 537.787 56.9623C537.787 56.9521 537.787 56.6592 537.787 56.6455Z" fill="#F39800"/>
<path d="M517.771 56.9895C517.785 58.7128 518.847 59.7311 521.017 59.7311H528.84C531.009 59.7311 532.11 58.8593 532.11 57.1292V56.4821C532.11 54.7554 531.009 53.8767 528.84 53.8767H521.017C518.83 53.8767 517.765 54.7281 517.765 56.4821V57.17L517.771 56.9895ZM520.946 56.6455C520.946 56.0121 521.671 56.0121 521.749 56.0121H528.087C528.697 56.0121 528.86 56.4105 528.86 56.6455C528.86 56.6558 528.86 56.9521 528.86 56.9623C528.86 57.2007 528.697 57.5958 528.087 57.5958H521.753C521.671 57.5958 520.946 57.5958 520.946 56.9623C520.946 56.9521 520.946 56.6592 520.946 56.6455Z" fill="#F39800"/>
<path d="M523.932 46.1933V44.4394H522.318H520.673V46.1933C520.673 48.7612 519.985 49.1835 516.93 50.4232L518.296 52.9605C521.187 51.8059 522.318 49.9635 522.318 49.9635C522.318 49.9635 523.448 51.8025 526.34 52.9605L527.706 50.4232C524.861 49.1427 523.932 48.7612 523.932 46.1933Z" fill="#F39800"/>
<path d="M555.673 44C552.666 44 550.762 45.7131 550.762 48.2402V48.7272C550.762 51.5233 552.666 53.1274 555.673 53.1274C558.681 53.1274 560.533 51.5233 560.533 48.7272V48.2402C560.537 45.7131 558.701 44 555.673 44ZM557.928 48.8191C557.928 49.7591 557.189 50.4981 555.714 50.4981C554.175 50.4981 553.439 49.7591 553.439 48.8191V48.2163C553.439 47.2763 554.179 46.5611 555.714 46.5611C557.189 46.5611 557.928 47.2763 557.928 48.2163V48.8191Z" fill="#F39800"/>
<path d="M542.609 50.4027V48.3116H539.493V50.4027H534.142V52.8242H549.509V50.4027H542.609Z" fill="#F39800"/>
<path d="M546.512 44.4394H545.092H535.583V46.4181V46.9085H545.187V49.4186H548.293V46.2648C548.293 45.0252 547.442 44.4394 546.512 44.4394Z" fill="#F39800"/>
<path d="M533.148 46.7927H531.431V44.2384H528.455V52.9945H531.431V49.6126H533.148V46.7927Z" fill="#F39800"/>
<path d="M509.71 56.7136V53.6144H506.267V56.7136H500V59.2577H515.98V56.7136H509.71Z" fill="#F39800"/>
<path d="M509.634 46.2614V44.4394H507.99H506.345V46.2614C506.345 48.8294 504.304 50.7365 500.517 51.4483L501.883 54.1253C506.92 52.6983 507.99 50.2393 507.99 50.2393C507.99 50.2393 509.059 52.6983 514.096 54.1253L515.461 51.4483C511.671 50.7365 509.634 48.8294 509.634 46.2614Z" fill="#F39800"/>
<path d="M562.271 56.7954H555.459V55.7294V54.2853H552.077V57.5004C552.077 58.74 552.928 59.3258 553.862 59.3258H565.581V56.7988H562.271V56.7954Z" fill="#F39800"/>
<path d="M574.313 49.4015V47.5454H577.65V44.6982L572.825 44.6948L567.999 44.6982V47.5454H571.336V49.4015C571.336 50.9205 569.991 52.218 566.96 54.6701L568.851 57.0405C572.566 53.7541 572.825 52.8515 572.825 52.8515C572.825 52.8515 573.084 53.7541 576.799 57.0405L578.693 54.6701C575.743 52.2963 574.313 50.9205 574.313 49.4015Z" fill="#0068B7"/>
<path d="M574.368 18.5749C571.064 18.5749 570.464 18.8815 568.203 21.1053L567.804 21.497L570.437 24.0854C572.069 22.4643 573.114 22.2054 575.382 22.2054H650.41V18.5749H574.368Z" fill="#878B8E"/>
<path d="M567.406 21.1053C565.144 18.8815 564.545 18.5749 561.242 18.5749H500V22.2054H560.227C562.495 22.2054 563.551 22.4745 565.182 24.0956L567.808 21.5004L567.406 21.1053Z" fill="#878B8E"/>
<path d="M565.183 24.0956L567.805 26.7043L570.441 24.0853L567.808 21.5004L565.183 24.0956Z" fill="#71767B"/>
<path d="M582.32 31.9185V32.6201H575.236V31.9185H578.359V30.2599H579.187V31.9185H582.32ZM578.778 28.7206C578.734 28.8159 578.628 28.9351 578.465 29.0816C578.301 29.228 578.076 29.3881 577.79 29.5686C577.545 29.7252 577.286 29.8853 577.011 30.0488C576.738 30.2122 576.424 30.3927 576.074 30.5903L575.665 29.9364C575.999 29.7525 576.305 29.5788 576.585 29.4187C576.864 29.2553 577.143 29.0816 577.423 28.8909C577.613 28.7614 577.77 28.6388 577.893 28.523C578.015 28.4072 578.11 28.2846 578.182 28.1552C578.25 28.0258 578.298 27.8861 578.325 27.7329C578.349 27.5796 578.363 27.3991 578.363 27.1914V26.4387H579.201V27.1914C579.201 27.3991 579.211 27.5796 579.235 27.7329C579.258 27.8861 579.306 28.0292 579.377 28.1586C579.449 28.2914 579.554 28.4174 579.688 28.54C579.82 28.6627 580.004 28.7989 580.232 28.9487C580.495 29.1224 580.757 29.2825 581.019 29.4358C581.281 29.5856 581.577 29.7525 581.908 29.9296L581.506 30.5732C581.193 30.3961 580.889 30.219 580.593 30.0488C580.297 29.8785 580.024 29.7116 579.772 29.5516C579.5 29.3779 579.279 29.2212 579.112 29.0782C578.945 28.9351 578.839 28.8159 578.795 28.7239H578.778V28.7206Z" fill="#878B8E"/>
<path d="M585.099 28.5946C585.075 28.6661 585.011 28.7683 584.898 28.8977C584.786 29.0271 584.667 29.1498 584.538 29.2655C584.363 29.429 584.163 29.6061 583.934 29.7968C583.706 29.9909 583.478 30.1749 583.257 30.3554L582.763 29.7696C583.032 29.5618 583.287 29.3574 583.529 29.1498C583.771 28.942 583.965 28.7683 584.112 28.6219C584.217 28.5163 584.306 28.4141 584.373 28.3153C584.442 28.2166 584.5 28.1178 584.541 28.0122C584.582 27.91 584.612 27.7976 584.629 27.6819C584.646 27.566 584.653 27.4332 584.653 27.2868V26.2753H585.491V27.2561C585.491 27.3855 585.494 27.5014 585.505 27.6035C585.511 27.7057 585.532 27.8045 585.559 27.8931C585.586 27.9816 585.63 28.0701 585.688 28.1552C585.746 28.2404 585.828 28.3289 585.927 28.4175C586.121 28.5946 586.336 28.7819 586.567 28.9693C586.799 29.16 587.04 29.3439 587.293 29.521L586.806 30.0999C586.587 29.9364 586.38 29.7764 586.182 29.6095C585.985 29.446 585.783 29.2792 585.583 29.1123C585.454 29.0067 585.351 28.9079 585.269 28.8193C585.188 28.7308 585.133 28.6559 585.106 28.5946H585.099ZM584.306 32.0617C584.306 31.8607 584.36 31.67 584.466 31.4929C584.572 31.3158 584.724 31.1591 584.925 31.0229C585.126 30.8901 585.372 30.7845 585.658 30.7061C585.944 30.6279 586.271 30.5904 586.631 30.5904C586.993 30.5904 587.32 30.6312 587.606 30.7061C587.892 30.7845 588.137 30.8901 588.338 31.0229C588.539 31.1557 588.692 31.3124 588.798 31.4929C588.903 31.67 588.958 31.8607 588.958 32.0617V32.3954C588.958 32.5964 588.903 32.7871 588.798 32.9642C588.692 33.1413 588.539 33.2979 588.338 33.4341C588.137 33.5669 587.892 33.6726 587.606 33.7508C587.32 33.8292 586.993 33.8667 586.631 33.8667C586.271 33.8667 585.944 33.8292 585.658 33.7508C585.372 33.6726 585.126 33.5669 584.925 33.4341C584.724 33.3013 584.572 33.1447 584.466 32.9642C584.36 32.7871 584.306 32.5964 584.306 32.3954V32.0617ZM588.148 32.1127C588.148 32.0106 588.114 31.9117 588.042 31.8062C587.97 31.7041 587.871 31.6121 587.739 31.5338C587.606 31.4554 587.449 31.3907 587.262 31.3396C587.074 31.2885 586.864 31.2647 586.628 31.2647C586.394 31.2647 586.182 31.2885 585.995 31.3396C585.807 31.3907 585.647 31.4554 585.518 31.5338C585.385 31.6121 585.286 31.7041 585.218 31.8062C585.147 31.9083 585.113 32.0106 585.113 32.1127V32.3477C585.113 32.4499 585.147 32.5487 585.218 32.6542C585.286 32.7564 585.389 32.8483 585.518 32.9267C585.647 33.005 585.807 33.0697 585.995 33.1208C586.182 33.1719 586.394 33.1957 586.628 33.1957C586.864 33.1957 587.074 33.1719 587.262 33.1208C587.449 33.0697 587.609 33.005 587.739 32.9267C587.871 32.8483 587.97 32.7564 588.042 32.6542C588.11 32.5521 588.148 32.4499 588.148 32.3477V32.1127ZM590.024 28.5197H588.927V30.4882H588.107V25.9313H588.927V27.7976H590.024V28.5197Z" fill="#878B8E"/>
<path d="M597.558 29.4835V30.1885H590.473V29.4835H593.171V27.9679H594.009V29.4835H597.558ZM591.407 26.2412H596.505V27.2221C596.505 27.3106 596.502 27.4264 596.491 27.5695C596.484 27.7125 596.471 27.8624 596.454 28.0258C596.437 28.1893 596.416 28.3528 596.386 28.523C596.358 28.6933 596.328 28.8535 596.294 29.0033L595.473 28.9113C595.544 28.5946 595.596 28.2915 595.623 28.002C595.651 27.7159 595.664 27.4571 595.664 27.2289V26.9428H591.403V26.2412H591.407ZM594.019 30.7402C594.36 30.7402 594.676 30.7709 594.969 30.8356C595.262 30.9003 595.517 30.9922 595.736 31.1148C595.953 31.2375 596.124 31.3873 596.246 31.5576C596.369 31.7313 596.43 31.9288 596.43 32.1536V32.4567C596.43 32.6815 596.369 32.879 596.246 33.0561C596.124 33.2332 595.953 33.3797 595.736 33.4988C595.517 33.618 595.262 33.71 594.969 33.7747C594.676 33.8394 594.36 33.8701 594.019 33.8701C593.678 33.8701 593.362 33.8394 593.069 33.7747C592.776 33.71 592.521 33.618 592.302 33.4988C592.085 33.3797 591.914 33.2298 591.792 33.0561C591.669 32.879 591.608 32.6815 591.608 32.4567V32.1536C591.608 31.9288 591.669 31.7313 591.792 31.5576C591.914 31.3839 592.085 31.2375 592.302 31.1148C592.521 30.9922 592.776 30.9003 593.069 30.8356C593.362 30.7709 593.678 30.7402 594.019 30.7402ZM594.019 33.1924C594.243 33.1924 594.451 33.1719 594.642 33.131C594.836 33.0901 595.003 33.0323 595.146 32.9641C595.289 32.8926 595.402 32.8109 595.486 32.7155C595.572 32.6202 595.613 32.518 595.613 32.4056V32.2047C595.613 32.0991 595.572 31.9969 595.486 31.8982C595.402 31.7994 595.289 31.7177 595.146 31.6461C595.003 31.578 594.836 31.5201 594.642 31.4792C594.448 31.4384 594.24 31.418 594.019 31.418C593.794 31.418 593.586 31.4384 593.396 31.4792C593.201 31.5201 593.035 31.578 592.891 31.6461C592.748 31.7177 592.636 31.7994 592.551 31.8982C592.466 31.9969 592.425 32.0991 592.425 32.2047V32.4056C592.425 32.518 592.466 32.6202 592.551 32.7155C592.636 32.8109 592.748 32.8926 592.891 32.9641C593.035 33.0323 593.201 33.0901 593.396 33.131C593.586 33.1719 593.794 33.1924 594.019 33.1924Z" fill="#878B8E"/>
<path d="M598.422 28.0088C598.422 27.8181 598.46 27.6206 598.538 27.4094C598.616 27.2016 598.735 27.0075 598.899 26.8372C599.062 26.6635 599.263 26.5205 599.502 26.4115C599.74 26.2991 600.026 26.2447 600.357 26.2447C600.68 26.2447 600.963 26.2991 601.208 26.4115C601.45 26.5239 601.654 26.6669 601.814 26.8372C601.977 27.0109 602.097 27.2016 602.175 27.4094C602.253 27.6171 602.291 27.8181 602.291 28.0088V28.4447C602.291 28.6354 602.25 28.833 602.175 29.0441C602.097 29.2519 601.977 29.446 601.814 29.6163C601.651 29.79 601.45 29.933 601.208 30.0421C600.966 30.1544 600.68 30.2089 600.357 30.2089C600.026 30.2089 599.743 30.1544 599.502 30.0421C599.26 29.9296 599.059 29.7866 598.899 29.6163C598.735 29.4426 598.616 29.2519 598.538 29.0441C598.46 28.8364 598.422 28.6354 598.422 28.4447V28.0088ZM601.494 28.0429C601.494 27.9134 601.47 27.7874 601.426 27.658C601.382 27.5286 601.314 27.4128 601.222 27.3107C601.13 27.2084 601.014 27.1233 600.871 27.0586C600.728 26.9939 600.557 26.9633 600.357 26.9633C600.155 26.9633 599.982 26.9939 599.839 27.0586C599.692 27.1233 599.577 27.205 599.485 27.3107C599.393 27.4128 599.324 27.5286 599.283 27.658C599.243 27.7874 599.222 27.9134 599.222 28.0429V28.4107C599.222 28.5401 599.246 28.6661 599.29 28.7956C599.335 28.925 599.403 29.0407 599.495 29.1429C599.587 29.2451 599.702 29.3303 599.846 29.3949C599.989 29.4597 600.159 29.4903 600.36 29.4903C600.561 29.4903 600.731 29.4597 600.874 29.3949C601.017 29.3303 601.133 29.2485 601.225 29.1429C601.317 29.0407 601.385 28.925 601.429 28.7956C601.473 28.6661 601.497 28.5401 601.497 28.4107V28.0429H601.494ZM600.496 32.8483H604.647V33.5669H599.665V31.0058H600.493V32.8483H600.496ZM603.67 31.4418V25.9313H604.491V31.4418H603.67Z" fill="#878B8E"/>
<path d="M608.132 29.7934C608.095 29.8888 608.037 29.9841 607.962 30.0795C607.887 30.1749 607.782 30.294 607.648 30.4405C607.475 30.6312 607.278 30.8355 607.052 31.0569C606.828 31.2783 606.576 31.5201 606.289 31.7823L605.745 31.2204C606.252 30.7675 606.695 30.3349 607.066 29.9228C607.195 29.7764 607.302 29.6436 607.383 29.521C607.468 29.3983 607.533 29.2757 607.58 29.1566C607.628 29.0373 607.662 28.9147 607.679 28.7888C607.7 28.6627 607.71 28.5265 607.71 28.3732V26.4898H608.548V28.3732C608.548 28.5401 608.558 28.6899 608.582 28.8227C608.602 28.9556 608.64 29.0782 608.691 29.2008C608.742 29.32 608.81 29.4426 608.895 29.5618C608.98 29.681 609.09 29.8104 609.219 29.9501C609.395 30.1442 609.583 30.3383 609.78 30.5222C609.975 30.7095 610.199 30.9139 610.452 31.1387L609.917 31.7075C609.627 31.4384 609.382 31.2068 609.185 31.0092C608.987 30.8118 608.807 30.6244 608.643 30.4508C608.527 30.3213 608.422 30.2021 608.33 30.0897C608.238 29.9773 608.177 29.882 608.143 29.7968H608.132V29.7934ZM611.283 33.6521V25.9313H612.11V33.6521H611.283Z" fill="#878B8E"/>
<path d="M615.72 28.7376C615.693 28.8091 615.625 28.9079 615.519 29.0339C615.414 29.16 615.294 29.2792 615.158 29.3881C614.981 29.5448 614.78 29.7083 614.559 29.882C614.337 30.0557 614.113 30.2226 613.877 30.386L613.39 29.79C613.66 29.5993 613.908 29.4154 614.143 29.2349C614.378 29.0544 614.569 28.8909 614.722 28.7445C614.821 28.6457 614.909 28.5469 614.981 28.4515C615.053 28.3562 615.11 28.2574 615.151 28.1552C615.192 28.0531 615.223 27.9407 615.243 27.8215C615.263 27.7023 615.274 27.566 615.274 27.4162V27.1233H613.65V26.4115H617.644V27.1233H616.111V27.3821C616.111 27.515 616.118 27.6376 616.128 27.7431C616.139 27.8488 616.159 27.9475 616.19 28.0361C616.22 28.1246 616.265 28.2098 616.32 28.2915C616.374 28.3732 616.452 28.4549 616.544 28.5401C616.738 28.7172 616.946 28.8909 617.164 29.0544C617.382 29.2178 617.617 29.3813 617.869 29.5448L617.399 30.1476C617.181 29.9978 616.977 29.8479 616.79 29.7049C616.598 29.5584 616.405 29.4051 616.203 29.2349C616.074 29.1293 615.972 29.0339 615.891 28.9556C615.808 28.8739 615.754 28.8024 615.727 28.741H615.72V28.7376ZM614.807 32.0617C614.807 31.8607 614.861 31.67 614.967 31.4929C615.073 31.3158 615.226 31.1591 615.427 31.0229C615.628 30.8901 615.873 30.7845 616.159 30.7061C616.446 30.6279 616.773 30.5904 617.133 30.5904C617.494 30.5904 617.821 30.6312 618.108 30.7061C618.393 30.7845 618.639 30.8901 618.839 31.0229C619.041 31.1557 619.194 31.3124 619.299 31.4929C619.405 31.67 619.46 31.8607 619.46 32.0617V32.3954C619.46 32.5964 619.405 32.7871 619.299 32.9642C619.194 33.1413 619.041 33.2979 618.839 33.4341C618.639 33.5669 618.393 33.6726 618.108 33.7508C617.821 33.8292 617.494 33.8667 617.133 33.8667C616.773 33.8667 616.446 33.8292 616.159 33.7508C615.873 33.6726 615.628 33.5669 615.427 33.4341C615.226 33.3013 615.073 33.1447 614.967 32.9642C614.861 32.7871 614.807 32.5964 614.807 32.3954V32.0617ZM618.649 32.1127C618.649 32.0106 618.615 31.9117 618.543 31.8062C618.471 31.7041 618.373 31.6121 618.24 31.5338C618.108 31.4554 617.95 31.3907 617.764 31.3396C617.576 31.2885 617.365 31.2647 617.13 31.2647C616.895 31.2647 616.683 31.2885 616.496 31.3396C616.309 31.3907 616.149 31.4554 616.02 31.5338C615.887 31.6121 615.788 31.7041 615.72 31.8062C615.648 31.9083 615.614 32.0106 615.614 32.1127V32.3477C615.614 32.4499 615.648 32.5487 615.72 32.6542C615.788 32.7564 615.891 32.8483 616.02 32.9267C616.149 33.005 616.309 33.0697 616.496 33.1208C616.683 33.1719 616.895 33.1957 617.13 33.1957C617.365 33.1957 617.576 33.1719 617.764 33.1208C617.95 33.0697 618.111 33.005 618.24 32.9267C618.373 32.8483 618.471 32.7564 618.543 32.6542C618.612 32.5521 618.649 32.4499 618.649 32.3477V32.1127ZM618.608 30.4882V25.9313H619.429V27.7976H620.525V28.5163H619.429V30.4848H618.608V30.4882Z" fill="#878B8E"/>
<path d="M623.489 28.9386C623.462 29.0101 623.393 29.1089 623.284 29.2315C623.175 29.3541 623.056 29.4733 622.93 29.5925C622.753 29.7559 622.549 29.9228 622.324 30.0965C622.099 30.2702 621.867 30.4371 621.633 30.6006L621.146 30.0046C621.414 29.8138 621.67 29.6265 621.915 29.4392C622.161 29.2519 622.354 29.0884 622.501 28.9488C622.6 28.8534 622.685 28.7581 622.756 28.6627C622.824 28.5674 622.882 28.4686 622.923 28.3664C622.964 28.2642 622.995 28.1484 623.016 28.0259C623.036 27.9032 623.046 27.767 623.046 27.6171V27.1404H621.404V26.4286H625.43V27.1404H623.881V27.5831C623.881 27.8522 623.908 28.0736 623.966 28.2472C624.02 28.4243 624.139 28.5878 624.316 28.7445C624.517 28.9216 624.728 29.0952 624.953 29.2587C625.178 29.4222 625.41 29.5856 625.658 29.7491L625.188 30.352C624.97 30.2021 624.763 30.0523 624.568 29.9024C624.374 29.7559 624.173 29.5959 623.973 29.429C623.843 29.3234 623.74 29.228 623.659 29.1498C623.577 29.068 623.523 28.9964 623.496 28.9352H623.489V28.9386ZM623.356 32.8483H627.508V33.5669H622.525V30.9616H623.352V32.8483H623.356ZM626.527 31.435V25.9313H627.347V31.435H626.527Z" fill="#878B8E"/>
<path d="M635.654 30.185V30.873H628.57V30.185H635.654ZM629.299 26.5341H631.693V25.8155H632.521V26.5341H634.925V27.222H629.299V26.5341ZM632.112 33.8871C631.734 33.8871 631.393 33.8564 631.093 33.7951C630.794 33.7338 630.541 33.6487 630.338 33.5363C630.129 33.4239 629.973 33.2945 629.864 33.1412C629.755 32.9914 629.7 32.8244 629.7 32.6405V32.4329C629.7 32.0582 629.912 31.7585 630.338 31.5269C630.763 31.2987 631.352 31.1829 632.112 31.1829C632.871 31.1829 633.464 31.2987 633.886 31.5269C634.312 31.7551 634.523 32.0582 634.523 32.4329V32.6405C634.523 32.8244 634.469 32.9914 634.36 33.1412C634.251 33.2911 634.094 33.4239 633.886 33.5363C633.678 33.6487 633.427 33.7338 633.13 33.7951C632.83 33.8564 632.494 33.8871 632.112 33.8871ZM632.112 29.8854C631.764 29.8854 631.451 29.8615 631.165 29.8138C630.879 29.7661 630.633 29.6981 630.429 29.6095C630.222 29.521 630.065 29.4085 629.953 29.2757C629.84 29.1429 629.786 28.9863 629.786 28.8058V28.5707C629.786 28.397 629.84 28.2438 629.953 28.1075C630.065 27.9713 630.222 27.8589 630.429 27.767C630.637 27.6784 630.882 27.6103 631.165 27.5626C631.451 27.515 631.764 27.4911 632.112 27.4911C632.459 27.4911 632.772 27.515 633.059 27.5626C633.345 27.6103 633.59 27.6784 633.794 27.767C634.002 27.8555 634.158 27.9679 634.271 28.1075C634.384 28.2438 634.438 28.4005 634.438 28.5707V28.8058C634.438 28.9829 634.384 29.1395 634.271 29.2757C634.158 29.4085 633.999 29.521 633.794 29.6095C633.586 29.6981 633.341 29.7661 633.059 29.8138C632.772 29.8615 632.459 29.8854 632.112 29.8854ZM632.112 31.8607C631.622 31.8607 631.233 31.9219 630.947 32.0412C630.661 32.1604 630.521 32.3068 630.521 32.4805V32.5895C630.521 32.7632 630.664 32.9096 630.947 33.0288C631.233 33.1481 631.618 33.2093 632.112 33.2093C632.602 33.2093 632.991 33.1481 633.276 33.0288C633.563 32.9096 633.702 32.7632 633.702 32.5895V32.4805C633.702 32.3068 633.559 32.1604 633.276 32.0412C632.991 31.9219 632.602 31.8607 632.112 31.8607ZM632.112 28.1518C631.625 28.1518 631.254 28.1961 630.994 28.2812C630.736 28.3664 630.606 28.489 630.606 28.6456V28.7308C630.606 28.8875 630.736 29.01 630.994 29.0952C631.254 29.1803 631.628 29.2246 632.112 29.2246C632.599 29.2246 632.97 29.1803 633.229 29.0952C633.488 29.01 633.617 28.8875 633.617 28.7308V28.6456C633.617 28.489 633.488 28.3664 633.229 28.2812C632.97 28.1961 632.599 28.1518 632.112 28.1518Z" fill="#878B8E"/>
<path d="M643.273 29.4835V30.1885H636.189V29.4835H638.886V27.9679H639.724V29.4835H643.273ZM637.118 26.2412H642.217V27.2221C642.217 27.3106 642.214 27.4264 642.203 27.5695C642.196 27.7125 642.183 27.8624 642.165 28.0258C642.148 28.1893 642.128 28.3528 642.097 28.523C642.07 28.6933 642.04 28.8535 642.006 29.0033L641.185 28.9113C641.256 28.5946 641.307 28.2915 641.335 28.002C641.362 27.7159 641.376 27.4571 641.376 27.2289V26.9428H637.115V26.2412H637.118ZM639.731 30.7402C640.071 30.7402 640.388 30.7709 640.681 30.8356C640.974 30.9003 641.229 30.9922 641.447 31.1148C641.665 31.2375 641.836 31.3873 641.958 31.5576C642.08 31.7313 642.141 31.9288 642.141 32.1536V32.4567C642.141 32.6815 642.08 32.879 641.958 33.0561C641.836 33.2332 641.665 33.3797 641.447 33.4988C641.229 33.618 640.974 33.71 640.681 33.7747C640.388 33.8394 640.071 33.8701 639.731 33.8701C639.39 33.8701 639.073 33.8394 638.781 33.7747C638.487 33.71 638.232 33.618 638.014 33.4988C637.796 33.3797 637.626 33.2298 637.503 33.0561C637.381 32.879 637.32 32.6815 637.32 32.4567V32.1536C637.32 31.9288 637.381 31.7313 637.503 31.5576C637.626 31.3839 637.796 31.2375 638.014 31.1148C638.232 30.9922 638.487 30.9003 638.781 30.8356C639.073 30.7709 639.39 30.7402 639.731 30.7402ZM639.731 33.1924C639.955 33.1924 640.163 33.1719 640.353 33.131C640.548 33.0901 640.715 33.0323 640.858 32.9641C641.001 32.8926 641.113 32.8109 641.198 32.7155C641.283 32.6202 641.325 32.518 641.325 32.4056V32.2047C641.325 32.0991 641.283 31.9969 641.198 31.8982C641.113 31.7994 641.001 31.7177 640.858 31.6461C640.715 31.578 640.548 31.5201 640.353 31.4792C640.16 31.4384 639.952 31.418 639.731 31.418C639.506 31.418 639.298 31.4384 639.108 31.4792C638.913 31.5201 638.747 31.578 638.603 31.6461C638.46 31.7177 638.348 31.7994 638.263 31.8982C638.178 31.9969 638.136 32.0991 638.136 32.2047V32.4056C638.136 32.518 638.178 32.6202 638.263 32.7155C638.348 32.8109 638.46 32.8926 638.603 32.9641C638.747 33.0323 638.913 33.0901 639.108 33.131C639.301 33.1719 639.509 33.1924 639.731 33.1924Z" fill="#878B8E"/>
<path d="M648.463 29.9262C648.167 29.9637 647.89 29.9978 647.636 30.0182C647.38 30.0421 647.093 30.0591 646.781 30.0727C646.467 30.0863 646.106 30.0965 645.69 30.1033C645.278 30.1101 644.771 30.1101 644.168 30.1101V26.4354H647.744V27.1472H644.982V29.3983C645.412 29.3983 645.776 29.3949 646.075 29.3915C646.375 29.3847 646.647 29.3779 646.893 29.3677C647.138 29.3574 647.376 29.3405 647.605 29.3234C647.833 29.303 648.092 29.2757 648.384 29.2451L648.463 29.9262ZM646.017 32.8483H650.111V33.5669H645.186V31.0058H646.014V32.8483H646.017ZM651 28.6627H649.904V31.4418H649.083V25.9313H649.904V27.9407H651V28.6627Z" fill="#878B8E"/>
<path d="M582.651 0.241791H579.538V15.5335H582.651V0.241791Z" fill="#878B8E"/>
<path d="M598.575 0.241791H595.463V9.26013H598.575V0.241791Z" fill="#878B8E"/>
<path d="M616.758 15.5301V0.241791H614.102V6.13025H612.777V0.241791H610.121V15.5301H612.777V8.70159H614.102V15.5301H616.758Z" fill="#878B8E"/>
<path d="M644.079 0.418945H635.909V3.25256H644.079V0.418945Z" fill="#878B8E"/>
<path d="M646.651 12.4821L645.521 9.72684C645.521 9.72684 642.687 11.4399 639.176 11.4399V7.85026H644.077V5.06094H635.906V14.3756C642.979 14.379 646.651 12.4821 646.651 12.4821Z" fill="#878B8E"/>
<path d="M650.411 15.5301V0.241791H647.298V4.87354H645.514V8.26911C645.997 8.25548 646.491 8.24526 646.981 8.24526H647.298V15.5335H650.411V15.5301Z" fill="#878B8E"/>
<path d="M633.529 2.87097C633.515 1.13068 632.453 0.102173 630.283 0.102173H622.303C620.134 0.102173 619.034 0.984245 619.034 2.73135V3.3853C619.034 5.13241 620.134 6.01789 622.303 6.01789H630.283C632.47 6.01789 633.535 5.15626 633.535 3.3853V2.69387L633.529 2.87097ZM630.3 3.23538C630.3 3.94717 629.591 3.94718 629.326 3.94718H623.277C622.46 3.94718 622.337 3.50107 622.337 3.23538C622.337 3.22176 622.334 2.89482 622.334 2.88119C622.334 2.61559 622.46 2.1694 623.277 2.1694H629.323C629.595 2.1694 630.3 2.1694 630.3 2.88119C630.3 2.89482 630.3 3.21835 630.3 3.23538Z" fill="#878B8E"/>
<path d="M606.014 0.425751V4.80212H603.912V0.425751H600.994V11.1708C600.994 12.179 601.467 12.9963 602.683 12.9963H608.854V0.425751H606.014ZM606.014 10.3875H603.912V7.33938H606.014V10.3875Z" fill="#878B8E"/>
<path d="M633.964 9.02521V6.80466H618.509V9.02521H624.66V10.0844H619.109V13.7694C619.109 15.0091 619.96 15.5949 620.893 15.5949H633.481V10.0878H628.12V9.02521H633.964ZM630.167 12.0733V13.5071H622.419V12.0733H630.167Z" fill="#878B8E"/>
<path d="M590.858 1.95153V0.439362H589.244H587.599V1.95153C587.599 4.84639 587.061 5.32317 583.581 7.4892L585.494 9.57695C588.385 8.27595 589.244 6.20183 589.244 6.20183C589.244 6.20183 590.099 8.27595 592.991 9.57695L594.904 7.4892C591.423 5.32317 590.858 4.84639 590.858 1.95153Z" fill="#878B8E"/>
<path d="M584.646 10.3807V12.9248H595.337V15.5302H598.78V10.3807H584.646Z" fill="#878B8E"/>
<path d="M565.329 0.238403H562.213V10.6531H565.329V0.238403Z" fill="#878B8E"/>
<path d="M534.612 12.9895C534.626 14.7129 535.689 15.7311 537.859 15.7311H545.749C547.919 15.7311 549.019 14.8593 549.019 13.1292V12.4821C549.019 10.7554 547.919 9.87668 545.749 9.87668H537.859C535.672 9.87668 534.605 10.7282 534.605 12.4821V13.17L534.612 12.9895ZM537.787 12.6456C537.787 12.0121 538.512 12.0121 538.59 12.0121H544.997C545.606 12.0121 545.77 12.4105 545.77 12.6456C545.77 12.6558 545.77 12.9521 545.77 12.9623C545.77 13.2007 545.606 13.5958 544.997 13.5958H538.594C538.512 13.5958 537.787 13.5958 537.787 12.9623C537.787 12.9521 537.787 12.6592 537.787 12.6456Z" fill="#878B8E"/>
<path d="M517.771 12.9895C517.785 14.7129 518.847 15.7311 521.017 15.7311H528.84C531.009 15.7311 532.11 14.8593 532.11 13.1292V12.4821C532.11 10.7554 531.009 9.87668 528.84 9.87668H521.017C518.83 9.87668 517.765 10.7282 517.765 12.4821V13.17L517.771 12.9895ZM520.946 12.6456C520.946 12.0121 521.671 12.0121 521.749 12.0121H528.087C528.697 12.0121 528.86 12.4105 528.86 12.6456C528.86 12.6558 528.86 12.9521 528.86 12.9623C528.86 13.2007 528.697 13.5958 528.087 13.5958H521.753C521.671 13.5958 520.946 13.5958 520.946 12.9623C520.946 12.9521 520.946 12.6592 520.946 12.6456Z" fill="#878B8E"/>
<path d="M523.932 2.19328V0.439362H522.318H520.673V2.19328C520.673 4.76121 519.985 5.18355 516.93 6.42322L518.296 8.96049C521.187 7.80592 522.318 5.96348 522.318 5.96348C522.318 5.96348 523.448 7.80251 526.34 8.96049L527.706 6.42322C524.861 5.14266 523.932 4.76121 523.932 2.19328Z" fill="#878B8E"/>
<path d="M555.673 0C552.666 0 550.762 1.71311 550.762 4.24016V4.72715C550.762 7.52329 552.666 9.12737 555.673 9.12737C558.681 9.12737 560.533 7.52329 560.533 4.72715V4.24016C560.537 1.71311 558.701 0 555.673 0ZM557.928 4.81915C557.928 5.75906 557.189 6.49811 555.714 6.49811C554.175 6.49811 553.439 5.75906 553.439 4.81915V4.21631C553.439 3.27631 554.179 2.56111 555.714 2.56111C557.189 2.56111 557.928 3.27631 557.928 4.21631V4.81915Z" fill="#878B8E"/>
<path d="M542.609 6.40269V4.31161H539.493V6.40269H534.142V8.82419H549.509V6.40269H542.609Z" fill="#878B8E"/>
<path d="M546.512 0.439362H545.092H535.583V2.41808V2.90848H545.187V5.41857H548.293V2.26484C548.293 1.02516 547.442 0.439362 546.512 0.439362Z" fill="#878B8E"/>
<path d="M533.148 2.7927H531.431V0.238403H528.455V8.99454H531.431V5.61261H533.148V2.7927Z" fill="#878B8E"/>
<path d="M509.71 12.7136V9.61435H506.267V12.7136H500V15.2576H515.98V12.7136H509.71Z" fill="#878B8E"/>
<path d="M509.634 2.26143V0.439362H507.99H506.345V2.26143C506.345 4.82936 504.304 6.73653 500.517 7.44832L501.883 10.1253C506.92 8.69829 507.99 6.23931 507.99 6.23931C507.99 6.23931 509.059 8.69829 514.096 10.1253L515.461 7.44832C511.671 6.73653 509.634 4.82936 509.634 2.26143Z" fill="#878B8E"/>
<path d="M562.271 12.7954H555.459V11.7294V10.2853H552.077V13.5004C552.077 14.74 552.928 15.3258 553.862 15.3258H565.581V12.7988H562.271V12.7954Z" fill="#878B8E"/>
<path d="M574.313 5.40147V3.54541H577.65V0.698171L572.825 0.694763L567.999 0.698171V3.54541H571.336V5.40147C571.336 6.92046 569.991 8.21805 566.96 10.6701L568.851 13.0405C572.566 9.75407 572.825 8.85147 572.825 8.85147C572.825 8.85147 573.084 9.75407 576.799 13.0405L578.693 10.6701C575.743 8.29634 574.313 6.92046 574.313 5.40147Z" fill="#878B8E"/>
<circle cx="25" cy="325" r="25" fill="#2277F2"/>
<circle cx="24.4322" cy="323.295" r="9.79545" stroke="white" stroke-width="2"/>
<line x1="32.445" y1="329.901" x2="38.1268" y2="334.446" stroke="white" stroke-width="2"/>
<rect x="60.5" y="300.5" width="49" height="49" rx="24.5" fill="#F9FAFF" stroke="#D6E1FF"/>
<rect width="25.7109" height="2.57109" transform="matrix(0.707095 -0.707118 0.707095 0.707118 75 333.18)" fill="#2377F3"/>
<rect width="25.7109" height="2.57109" transform="matrix(-0.707095 -0.707118 0.707095 -0.707118 93.1816 335)" fill="#2377F3"/>
<circle cx="175" cy="215" r="15" fill="#888888"/>
<g clip-path="url(#clip0_558_2750)">
<path d="M179.25 217.728C178.648 217.728 178.11 217.966 177.698 218.338L172.054 215.052C172.093 214.87 172.125 214.688 172.125 214.498C172.125 214.308 172.093 214.126 172.054 213.944L177.635 210.69C178.063 211.086 178.625 211.332 179.25 211.332C180.564 211.332 181.625 210.271 181.625 208.957C181.625 207.642 180.564 206.582 179.25 206.582C177.936 206.582 176.875 207.642 176.875 208.957C176.875 209.147 176.907 209.329 176.946 209.511L171.365 212.764C170.938 212.369 170.375 212.123 169.75 212.123C168.436 212.123 167.375 213.184 167.375 214.498C167.375 215.812 168.436 216.873 169.75 216.873C170.375 216.873 170.938 216.628 171.365 216.232L177.002 219.525C176.962 219.692 176.938 219.866 176.938 220.04C176.938 221.314 177.975 222.352 179.25 222.352C180.525 222.352 181.562 221.314 181.562 220.04C181.562 218.765 180.525 217.728 179.25 217.728Z" fill="white"/>
</g>
<circle cx="215" cy="215" r="15" fill="#888888"/>
<path d="M218.958 209.792L215.08 213.672L211.202 209.792C210.812 209.402 210.182 209.402 209.792 209.792C209.403 210.182 209.403 210.812 209.792 211.202L214.38 215.792C214.77 216.182 215.399 216.182 215.789 215.792L220.377 211.202C220.767 210.812 220.767 210.182 220.377 209.792C219.987 209.412 219.347 209.402 218.958 209.792Z" fill="white"/>
<path d="M211.211 220.293L215.089 216.413L218.967 220.293C219.357 220.683 219.987 220.683 220.377 220.293C220.766 219.903 220.766 219.273 220.377 218.883L215.789 214.293C215.399 213.903 214.77 213.903 214.38 214.293L209.792 218.883C209.402 219.273 209.402 219.903 209.792 220.293C210.182 220.673 210.822 220.683 211.211 220.293Z" fill="white"/>
<rect y="566.363" width="23.1406" height="2.31406" transform="rotate(-45 0 566.363)" fill="white"/>
<rect x="16.3652" y="568" width="23.1406" height="2.31406" transform="rotate(-135 16.3652 568)" fill="white"/>
<path d="M187.417 405.084H184.501C184.191 405.084 183.894 405.207 183.676 405.426C183.457 405.644 183.334 405.941 183.334 406.251V411.501C183.334 411.81 183.457 412.107 183.676 412.326C183.894 412.544 184.191 412.667 184.501 412.667H189.751C190.06 412.667 190.357 412.544 190.576 412.326C190.794 412.107 190.917 411.81 190.917 411.501V408.584" stroke="#5389D2" stroke-linecap="round" stroke-linejoin="round"/>
<path d="M186.834 409.167L192.667 403.334" stroke="#5389D2" stroke-linecap="round" stroke-linejoin="round"/>
<path d="M189.75 403.334H192.667V406.251" stroke="#5389D2" stroke-linecap="round" stroke-linejoin="round"/>
<path d="M211.622 410.733L208.087 407.198L204.551 410.733C204.196 411.089 203.622 411.089 203.267 410.733C202.911 410.378 202.911 409.804 203.267 409.449L207.449 405.267C207.804 404.911 208.378 404.911 208.733 405.267L212.916 409.449C213.271 409.804 213.271 410.378 212.916 410.733C212.56 411.08 211.977 411.089 211.622 410.733Z" fill="#888888"/>
<circle cx="223.5" cy="23.5" r="23.5" fill="#1081DE"/>
<path d="M221.21 22.1418H223V32.4262C223 33.0547 223.45 33.569 224 33.569C224.55 33.569 225 33.0547 225 32.4262V22.1418H226.79C227.24 22.1418 227.46 21.5247 227.14 21.1705L224.35 17.9823C224.15 17.7537 223.84 17.7537 223.64 17.9823L220.85 21.1705C220.54 21.5247 220.76 22.1418 221.21 22.1418V22.1418ZM216 14.1427C216 14.7712 216.45 15.2854 217 15.2854H231C231.55 15.2854 232 14.7712 232 14.1427C232 13.5142 231.55 13 231 13H217C216.45 13 216 13.5142 216 14.1427Z" fill="white"/>
<path d="M12.2925 4.33425C11.9025 3.88858 11.2725 3.88858 10.8825 4.33425L6.2925 9.57933C5.9025 10.025 5.9025 10.7449 6.2925 11.1906L10.8825 16.4357C11.2725 16.8813 11.9025 16.8813 12.2925 16.4357C12.6825 15.99 12.6825 15.2701 12.2925 14.8244L8.4125 10.3792L12.2925 5.94548C12.6825 5.49982 12.6725 4.76848 12.2925 4.33425V4.33425Z" fill="white"/>
<path d="M28.2925 16.4357C28.6825 16.8813 29.3125 16.8813 29.7025 16.4357L34.2925 11.1906C34.6825 10.7449 34.6825 10.025 34.2925 9.57933L29.7025 4.33425C29.3125 3.88858 28.6825 3.88858 28.2925 4.33425C27.9025 4.77991 27.9025 5.49982 28.2925 5.94548L32.1725 10.3907L28.2925 14.8244C27.9025 15.2701 27.9125 16.0014 28.2925 16.4357V16.4357Z" fill="white"/>
<defs>
<clipPath id="clip0_558_2750">
<rect width="19" height="19" fill="white" transform="translate(165 205)"/>
</clipPath>
</defs>
</svg>
