<svg width="1920" height="172" viewBox="0 0 1920 172" fill="none" xmlns="http://www.w3.org/2000/svg">
<g clip-path="url(#clip0_566_2919)">
<path opacity="0.5" d="M864.05 25.9669V0.690674H833.249V25.9669C833.111 49.7238 821.301 72.8592 781.039 80.8702L796.025 105.594C821.854 99.8619 838.774 87.431 848.649 70.7874C858.456 87.431 875.445 99.8619 901.343 105.594L916.122 80.8702C875.79 72.8592 863.912 49.7238 864.05 25.9669Z" fill="white"/>
<path opacity="0.5" d="M1298.4 72.4834H1267.87V173.934H1384.1V72.4834H1352.75V98.4503H1298.4V72.4834ZM1298.4 146.724V125.66H1352.75V146.724H1298.4Z" fill="white"/>
<path opacity="0.5" d="M1492.23 -37.931C1460.46 -38 1433.74 -15.9006 1433.87 14.1408C1433.74 43.9751 1460.46 66.0055 1492.23 66.0055C1524.55 66.0055 1551.14 43.9751 1551.21 14.1408C1551.14 -15.9006 1524.55 -38 1492.23 -37.931ZM1463.43 14.1408C1463.36 -2.08846 1476.35 -11.1354 1492.23 -11.1354C1508.53 -11.1354 1520.96 -2.08846 1521.03 14.1408C1520.96 30.232 1508.53 40.0386 1492.23 39.9696C1476.35 40.0386 1463.36 30.232 1463.43 14.1408Z" fill="white"/>
<path opacity="0.5" d="M1742.99 71.0027H1626.9V171.072H1744.64V146.279H1657.97V132.95H1741.61V108.019H1657.97V95.8646H1742.99V71.0027Z" fill="white"/>
<mask id="mask0_566_2919" style="mask-type:alpha" maskUnits="userSpaceOnUse" x="563" y="91" width="131" height="105">
<path opacity="0.5" d="M644.078 116.898V116.829H688.277V91.6216H570.39V116.829H612.724V116.898C612.655 141 600.984 164.066 563.07 171.732L577.434 195.627C602.849 189.481 619.216 176.428 628.401 158.887C637.517 176.428 653.885 189.481 679.437 195.627L693.802 171.732C655.749 164.066 644.009 141 644.078 116.898Z" fill="#E1F4FF"/>
</mask>
<g mask="url(#mask0_566_2919)">
<path d="M562.116 72H730.654V172H562.116V72Z" fill="white"/>
</g>
</g>
<defs>
<clipPath id="clip0_566_2919">
<rect width="1920" height="172" fill="white"/>
</clipPath>
</defs>
</svg>
