<svg width="75" height="75" viewBox="0 0 75 75" fill="none" xmlns="http://www.w3.org/2000/svg">
<rect width="75" height="75" rx="37.5" fill="white"/>
<g clip-path="url(#clip0_592_1318)">
<path d="M37.9993 35.1667C42.0494 35.1667 45.3327 31.8834 45.3327 27.8333C45.3327 23.7832 42.0494 20.5 37.9993 20.5C33.9493 20.5 30.666 23.7832 30.666 27.8333C30.666 31.8834 33.9493 35.1667 37.9993 35.1667Z" stroke="#2277F2" stroke-width="4" stroke-linecap="round" stroke-linejoin="round"/>
<path d="M27 53.5V49.8333C27 47.8884 27.7726 46.0232 29.1479 44.6479C30.5232 43.2726 32.3884 42.5 34.3333 42.5H41.6667C43.6116 42.5 45.4768 43.2726 46.8521 44.6479C48.2274 46.0232 49 47.8884 49 49.8333V53.5" stroke="#2277F2" stroke-width="4" stroke-linecap="round" stroke-linejoin="round"/>
</g>
<defs>
<clipPath id="clip0_592_1318">
<rect width="44" height="44" fill="white" transform="translate(16 15)"/>
</clipPath>
</defs>
</svg>
