<svg width="26" height="24" viewBox="0 0 26 24" fill="none" xmlns="http://www.w3.org/2000/svg">
<path d="M0.5 0.5H19.5V23.5H4C2.067 23.5 0.5 21.933 0.5 20V0.5Z" fill="#F4F5F7" stroke="#E9E9E9"/>
<rect x="3" y="6" width="23" height="13" rx="2" fill="#EEB940"/>
<path d="M7.69091 15H12.0429V13.8H9.45091L12.0189 9.904V9.048H7.93891V10.232H10.2589L7.69091 14.136V15ZM13.02 15H14.452V9.048H13.02V15ZM15.8169 15H17.2489V13.024H17.9449C19.2009 13.024 20.2969 12.4 20.2969 10.984C20.2969 9.512 19.2169 9.048 17.9049 9.048H15.8169V15ZM17.2489 11.896V10.176H17.8329C18.5209 10.176 18.9049 10.384 18.9049 10.984C18.9049 11.568 18.5689 11.896 17.8729 11.896H17.2489Z" fill="white"/>
</svg>
