<svg width="26" height="24" viewBox="0 0 26 24" fill="none" xmlns="http://www.w3.org/2000/svg">
<path d="M0.5 0.5H19.5V23.5H4C2.067 23.5 0.5 21.933 0.5 20V0.5Z" fill="#F4F5F7" stroke="#E9E9E9"/>
<rect x="3" y="6" width="23" height="13" rx="2" fill="#2F80ED"/>
<path d="M5.10597 15H6.53797V12.552H8.49797V15H9.91397V9.048H8.49797V11.312H6.53797V9.048H5.10597V15ZM11.8133 15H13.5813L14.1013 12.408C14.1893 11.952 14.2613 11.472 14.3333 11.024H14.3733C14.4293 11.472 14.5093 11.952 14.6053 12.408L15.1413 15H16.9413L17.9733 9.048H16.6133L16.2293 11.76C16.1573 12.376 16.0773 13.008 16.0053 13.648H15.9653C15.8453 13.008 15.7413 12.368 15.6213 11.76L14.9973 9.048H13.7973L13.1893 11.76C13.0693 12.376 12.9493 13.016 12.8373 13.648H12.8053L12.5653 11.76L12.1893 9.048H10.7253L11.8133 15ZM18.7778 15H20.2098V13.024H20.9058C22.1618 13.024 23.2578 12.4 23.2578 10.984C23.2578 9.512 22.1778 9.048 20.8658 9.048H18.7778V15ZM20.2098 11.896V10.176H20.7938C21.4818 10.176 21.8658 10.384 21.8658 10.984C21.8658 11.568 21.5298 11.896 20.8338 11.896H20.2098Z" fill="white"/>
</svg>
