<svg width="100" height="100" viewBox="0 0 100 100" fill="none" xmlns="http://www.w3.org/2000/svg">
<path d="M50 90C72.0914 90 90 72.0914 90 50C90 27.9086 72.0914 10 50 10C27.9086 10 10 27.9086 10 50C10 72.0914 27.9086 90 50 90Z" fill="#FFBB15" fill-opacity="0.1"/>
<path d="M50 90C72.0914 90 90 72.0914 90 50C90 27.9086 72.0914 10 50 10C27.9086 10 10 27.9086 10 50C10 72.0914 27.9086 90 50 90Z" fill="url(#paint0_linear)" fill-opacity="0.3"/>
<path d="M50.1634 83.7961C68.7382 83.7961 83.7961 68.7382 83.7961 50.1634C83.7961 31.5886 68.7382 16.5308 50.1634 16.5308C31.5886 16.5308 16.5308 31.5886 16.5308 50.1634C16.5308 68.7382 31.5886 83.7961 50.1634 83.7961Z" fill="#FFC841"/>
<path d="M50.1634 83.7961C68.7382 83.7961 83.7961 68.7382 83.7961 50.1634C83.7961 31.5886 68.7382 16.5308 50.1634 16.5308C31.5886 16.5308 16.5308 31.5886 16.5308 50.1634C16.5308 68.7382 31.5886 83.7961 50.1634 83.7961Z" fill="url(#paint1_linear)"/>
<path d="M50.1634 83.7961C68.7382 83.7961 83.7961 68.7382 83.7961 50.1634C83.7961 31.5886 68.7382 16.5308 50.1634 16.5308C31.5886 16.5308 16.5308 31.5886 16.5308 50.1634C16.5308 68.7382 31.5886 83.7961 50.1634 83.7961Z" fill="url(#paint2_linear)" fill-opacity="0.6"/>
<defs>
<linearGradient id="paint0_linear" x1="21.4286" y1="23.0612" x2="78.5714" y2="81.0204" gradientUnits="userSpaceOnUse">
<stop stop-color="#FFDD60"/>
<stop offset="1" stop-color="white" stop-opacity="0"/>
</linearGradient>
<linearGradient id="paint1_linear" x1="29.592" y1="25.5104" x2="64.694" y2="83.4695" gradientUnits="userSpaceOnUse">
<stop stop-color="#FFD367"/>
<stop offset="1" stop-color="#FFC841" stop-opacity="0.63"/>
</linearGradient>
<linearGradient id="paint2_linear" x1="36.1226" y1="5.91852" x2="62.245" y2="41.8369" gradientUnits="userSpaceOnUse">
<stop offset="0.20473" stop-color="#FFE6B6"/>
<stop offset="0.878378" stop-color="#FFCD51" stop-opacity="0.22"/>
</linearGradient>
</defs>
</svg>
