<svg width="100" height="100" viewBox="0 0 100 100" fill="none" xmlns="http://www.w3.org/2000/svg">
<path d="M50.3478 12C30.2735 12 14 28.2735 14 48.3478H86.6957C86.6957 28.2735 70.4222 12 50.3478 12Z" fill="#FFBB15" fill-opacity="0.1"/>
<path d="M50.3478 12C30.2735 12 14 28.2735 14 48.3478H86.6957C86.6957 28.2735 70.4222 12 50.3478 12Z" fill="url(#paint0_linear)" fill-opacity="0.3"/>
<path d="M50.4962 17.9341C33.6173 17.9341 19.9343 31.6171 19.9343 48.4959H81.058C81.058 31.6171 67.375 17.9341 50.4962 17.9341Z" fill="#FFD367"/>
<path d="M50.4962 17.9341C33.6173 17.9341 19.9343 31.6171 19.9343 48.4959H81.058C81.058 31.6171 67.375 17.9341 50.4962 17.9341Z" fill="url(#paint1_linear)"/>
<path d="M50.4962 17.9341C33.6173 17.9341 19.9343 31.6171 19.9343 48.4959H81.058C81.058 31.6171 67.375 17.9341 50.4962 17.9341Z" fill="url(#paint2_linear)" fill-opacity="0.6"/>
<path d="M50.4962 17.9341C33.6173 17.9341 19.9343 31.6171 19.9343 48.4959H81.058C81.058 31.6171 67.375 17.9341 50.4962 17.9341Z" fill="url(#paint3_linear)"/>
<line x1="44.6362" y1="85" x2="64.1698" y2="85" stroke="white" stroke-width="6" stroke-linecap="round"/>
<line x1="44.6362" y1="85" x2="64.1698" y2="85" stroke="url(#paint4_linear)" stroke-width="6" stroke-linecap="round"/>
<line x1="32.6206" y1="60.9683" x2="83.6957" y2="60.9683" stroke="white" stroke-width="6" stroke-linecap="round"/>
<line x1="32.6206" y1="60.9683" x2="83.6957" y2="60.9683" stroke="url(#paint5_linear)" stroke-width="6" stroke-linecap="round"/>
<line x1="17" y1="48.6523" x2="83.6957" y2="48.6524" stroke="white" stroke-width="6" stroke-linecap="round"/>
<line x1="17" y1="48.6523" x2="83.6957" y2="48.6524" stroke="url(#paint6_linear)" stroke-width="6" stroke-linecap="round"/>
<line x1="23.6086" y1="72.9844" x2="74.6838" y2="72.9844" stroke="white" stroke-width="6" stroke-linecap="round"/>
<line x1="23.6086" y1="72.9844" x2="74.6838" y2="72.9844" stroke="url(#paint7_linear)" stroke-width="6" stroke-linecap="round"/>
<line x1="74.676" y1="85" x2="83.6958" y2="85" stroke="white" stroke-width="6" stroke-linecap="round"/>
<line x1="74.676" y1="85" x2="83.6958" y2="85" stroke="url(#paint8_linear)" stroke-width="6" stroke-linecap="round"/>
<defs>
<linearGradient id="paint0_linear" x1="24.3851" y1="23.8687" x2="76.3106" y2="76.536" gradientUnits="userSpaceOnUse">
<stop stop-color="#FFDD60"/>
<stop offset="1" stop-color="white" stop-opacity="0"/>
</linearGradient>
<linearGradient id="paint1_linear" x1="31.803" y1="26.0938" x2="63.7001" y2="78.7611" gradientUnits="userSpaceOnUse">
<stop stop-color="#FFD367"/>
<stop offset="1" stop-color="#EBC25F" stop-opacity="0.63"/>
</linearGradient>
<linearGradient id="paint2_linear" x1="37.7373" y1="8.29078" x2="61.4747" y2="40.9297" gradientUnits="userSpaceOnUse">
<stop offset="0.20473" stop-color="#FFE6B6"/>
<stop offset="0.878378" stop-color="#FFCD51" stop-opacity="0.22"/>
</linearGradient>
<linearGradient id="paint3_linear" x1="50.3477" y1="48.3476" x2="50.3477" y2="24.5563" gradientUnits="userSpaceOnUse">
<stop stop-color="white" stop-opacity="0.72"/>
<stop offset="1" stop-color="white" stop-opacity="0"/>
</linearGradient>
<linearGradient id="paint4_linear" x1="54.403" y1="88" x2="54.403" y2="89" gradientUnits="userSpaceOnUse">
<stop stop-color="#CFCFCF"/>
<stop offset="0.838542" stop-color="white"/>
</linearGradient>
<linearGradient id="paint5_linear" x1="58.1582" y1="63.9683" x2="58.1582" y2="64.9683" gradientUnits="userSpaceOnUse">
<stop stop-color="#CFCFCF"/>
<stop offset="0.838542" stop-color="white"/>
</linearGradient>
<linearGradient id="paint6_linear" x1="50.3478" y1="51.6523" x2="50.3478" y2="52.6523" gradientUnits="userSpaceOnUse">
<stop stop-color="#CFCFCF"/>
<stop offset="0.838542" stop-color="white"/>
</linearGradient>
<linearGradient id="paint7_linear" x1="49.1462" y1="75.9844" x2="49.1462" y2="76.9844" gradientUnits="userSpaceOnUse">
<stop stop-color="#CFCFCF"/>
<stop offset="0.838542" stop-color="white"/>
</linearGradient>
<linearGradient id="paint8_linear" x1="79.1859" y1="88" x2="79.1859" y2="89" gradientUnits="userSpaceOnUse">
<stop stop-color="#CFCFCF"/>
<stop offset="0.838542" stop-color="white"/>
</linearGradient>
</defs>
</svg>
