<?xml version="1.0" encoding="utf-8"?>
<!-- Generator: Adobe Illustrator 26.2.1, SVG Export Plug-In . SVG Version: 6.00 Build 0)  -->
<svg version="1.1" id="Layer_1" xmlns="http://www.w3.org/2000/svg" xmlns:xlink="http://www.w3.org/1999/xlink" x="0px" y="0px"
	 viewBox="0 0 344 56" style="enable-background:new 0 0 344 56;" xml:space="preserve">
<style type="text/css">
	.st0{fill:#FFFFFF;}
</style>
<g>
	<path class="st0" d="M169.7,14v0.2H168V4.5h-3.2h-1.4V5c1,0.1,1.4,0.9,1.4,1.5v13.1c-0.3,0.2-0.8,0.4-1.2,0.5
		c-0.5,0.1-1.1,0.2-1.8,0.4l-3.3,0.4c-0.3,0-0.5,0-0.7,0c-0.2-0.1-0.3-0.3-0.3-0.8V8.2h5.2v-2h-8.8h-1.4v0.5
		c0.9,0.1,1.4,0.9,1.4,1.5v1V21c0,1.5,0.5,2.3,1.4,2.4c0.9,0.1,1.8,0.1,2.7-0.1l4-0.8c0.5-0.2,1.1-0.3,1.6-0.6
		c0.5-0.2,1-0.5,1.3-0.8V31h3.2V16.3h1.7v0.2V31h3.3V4.5h-3.3V14z"/>
	<path class="st0" d="M288.7,14v0.2H287V4.5h-3.2h-1.4V5c0.9,0.1,1.4,0.9,1.4,1.5v13.1c-0.3,0.2-0.8,0.4-1.2,0.5
		c-0.5,0.1-1.1,0.2-1.8,0.4l-3.3,0.4c-0.3,0-0.5,0-0.7,0c-0.2-0.1-0.2-0.3-0.3-0.8V8.2h5.2v-2h-8.8h-1.4v0.5
		c0.9,0.1,1.4,0.9,1.4,1.5v1V21c0,1.5,0.5,2.3,1.4,2.4c0.9,0.1,1.8,0.1,2.7-0.1l4-0.8c0.5-0.2,1.1-0.3,1.6-0.6
		c0.5-0.2,1-0.5,1.3-0.8V31h3.2V16.3h1.7v0.2V31h3.3V4.5h-3.3V14z"/>
	<path class="st0" d="M198.9,20v-2h-5c0.5-0.9,1-2.4,1.5-3.9c0.5-1.5,0.9-4.3,1.1-6.4c0-0.3,0-0.7-0.1-0.9c-0.1-0.3-0.4-0.5-0.7-0.5
		h-17.9l1.2,2h13.6c0,1.5,0,4.1-0.2,5.7c-0.1,1.6-0.3,3.1-0.4,4h-16.6l1.2,2h8.5V31h3.6V20H198.9z"/>
	<path class="st0" d="M218.4,4.5h-3.6h-1.4V5c0.9,0.1,1.4,0.9,1.4,1.5V31h3.6V16.4h3.6v-2h-3.6V4.5z"/>
	<path class="st0" d="M211.1,6.2h-11.2l1.3,2h6.7c-1,7.3-6.6,14.4-9.2,16.2l0.9,1c2.5-1.4,5.1-3.4,7.6-6.8c3-4.1,4.3-7.6,4.8-11
		c0.1-0.3,0.1-0.6,0-1C211.9,6.4,211.6,6.2,211.1,6.2z"/>
	<path class="st0" d="M236.7,15.5h7.2v-2h-12.6c-0.5,0-0.8-0.1-1-0.2c-0.2-0.1-0.3-0.3-0.3-1v-0.8h13.6v-2H230v-2h13.9v-2h-17.5H225
		V6c0.9,0.1,1.4,0.9,1.4,1.5c0,0.3,0,0.7,0,1c0,1.7,0,3.1,0,4.3c0,1,0.3,1.7,0.9,2.1c0.6,0.4,1.1,0.6,1.7,0.6h4.2v2.1H223l1.2,2
		h22.9v-2h-10.4V15.5z"/>
	<path class="st0" d="M230.5,28.6c-0.1-0.1-0.1-0.2-0.1-0.4v-1.3h12.1c0.3,0,0.5-0.1,0.8-0.4c0.2-0.3,0.3-0.6,0.3-0.9v-3.7
		c0-0.2,0-0.4-0.1-0.5c-0.1-0.1-0.2-0.1-0.4-0.1h-17.5l1.2,2H240v1.6h-13.2h-1.4v0.5c0.9,0.1,1.4,0.6,1.4,1.2v1.3
		c0,0.8,0.2,1.5,0.5,2.1c0.3,0.6,1.2,0.8,2.5,0.8h14v-2h-13C230.7,28.7,230.6,28.7,230.5,28.6z"/>
	<path class="st0" d="M258,19c1.5,0,2.8-0.1,3.9-0.3c1.1-0.2,2-0.6,2.7-1.3v3.5h3.6V4.5h-3.6h-1.4V5c0.9,0.1,1.4,0.9,1.4,1.5v9
		c-0.8,0.8-1.8,1.2-3,1.3c-1.2,0.1-2.7,0.1-4.3,0.1h-3.4c-0.3,0-0.6-0.1-0.8-0.3c-0.2-0.2-0.3-0.5-0.3-0.9v-2.3h6.7
		c0.3,0,0.6-0.1,0.8-0.4c0.2-0.3,0.4-0.6,0.4-0.9V6.8c0-0.2,0-0.4-0.1-0.5c-0.1-0.1-0.2-0.1-0.4-0.1h-11.7l1.2,2h7.3v3.5h-7.8h-1.4
		v0.5c0.9,0.1,1.4,0.9,1.4,1.5v0.5v2c0,1,0.2,1.8,0.7,2.2c0.5,0.4,1.1,0.6,1.8,0.6H258z"/>
	<path class="st0" d="M267.8,22.3h-16.5l1.2,2h12.2V31h3.6v-8.1c0-0.2,0-0.4-0.1-0.5C268.1,22.4,267.9,22.3,267.8,22.3z"/>
	<path class="st0" d="M319.7,12.5v-2h-3.5V4.5h-3.6h-1.4V5c0.9,0.1,1.4,0.9,1.4,1.5v13.7h3.6v-7.8H319.7z"/>
	<path class="st0" d="M315.6,21.7h-16.5l1.2,2h12.2V31h3.6v-8.7c0-0.2,0-0.4-0.1-0.5C315.9,21.8,315.8,21.7,315.6,21.7z"/>
	<path class="st0" d="M309.1,13.3c0-1.5-0.6-2.9-1.6-3.9h3.4v-2h-6.1V4.3h-3.6h-1.4v0.5c0.9,0.1,1.4,0.9,1.4,1.5v1.1h-6.8l1.2,2h2.9
		c-1,1-1.6,2.4-1.6,3.9c0,3.2,2.7,5.8,6.1,5.8C306.3,19.1,309.1,16.5,309.1,13.3z M300.7,13.3c0-2,1-3.7,2.2-3.7
		c1.2,0,2.2,1.7,2.2,3.7c0,2-1,3.7-2.2,3.7C301.7,17,300.7,15.4,300.7,13.3z"/>
	<path class="st0" d="M333.7,25.8v-9.8h-3.2v9.8h-2.3v-9.8h-3.2h-1.4v0.5c0.9,0.1,1.4,0.9,1.4,1.5v7.8h-5.8l1.2,2H342v-2H333.7z"/>
	<path class="st0" d="M336,8.2c0,2.2,0,5-0.1,7.1c-0.1,2.1-0.4,5.3-0.7,7h1.8c0.9-2.1,1.3-3.9,1.9-6.5c0.6-2.5,0.9-5.8,1.1-8.2
		c0-0.3,0-0.7-0.1-1c-0.2-0.3-0.4-0.4-0.7-0.5h-17.4l1.3,2H336z"/>
</g>
<g>
	<path class="st0" d="M205.8,50c-0.4,0.1-1.5,0.5-2.9,0.5c-2.9,0-4-1.9-4-5c0-2.6,0.8-4.8,4-4.8c2.2,0,3.1,1,3.2,2.1h-1.7
		c-0.1-0.5-0.4-1.4-1.7-1.4c-1.9,0-2.3,2.3-2.3,3.8c0,1.6,0.2,4.7,2.9,4.7c1.2,0,2.1-0.5,2.5-0.8V50z"/>
	<path class="st0" d="M210.2,42.6l1.6,4.1h-3.1L210.2,42.6z M206.5,50.4h0.9l1.1-3h3.6l1.1,3h1.5l-3.5-9.6h-2.7v0.3
		c0.6,0.1,1.1,0.1,1.1,0.7c0,0.1-0.2,0.6-0.2,0.8L206.5,50.4z"/>
	<path class="st0" d="M216.9,41.5h-1c-1.1,0-1.5,0.4-1.5,1.4H214l0.1-2.1h7.3l0.1,2.1H221c0-1.1-0.4-1.4-1.5-1.4h-1v8.9h-1.6V41.5z"
		/>
	<path class="st0" d="M223.2,42.7c0-1.1-0.1-1.3-1.4-1.4V41l3-0.3V45h3.9v-4.3h1.6v9.6h-1.6v-4.7h-3.9v4.7h-1.6V42.7z"/>
	<path class="st0" d="M233.7,45.6c0-1.9,0.2-4.3,2.4-4.3c2.2,0,2.3,2.4,2.3,4.3c0,1.8-0.1,4.2-2.3,4.2
		C233.9,49.8,233.7,47.4,233.7,45.6z M236,50.5c3,0,3.9-1.9,3.9-4.9c0-3.1-0.9-5-3.9-5c-3.1,0-3.9,1.9-3.9,5
		C232.1,48.6,233.1,50.5,236,50.5z"/>
	<path class="st0" d="M242,42.7c0-1.2,0-1.2-1.4-1.4V41l3-0.3v8c0,1.1,0,1.1,1,1.1h1.2c0.9,0,1.7-0.1,1.7-1.4h0.4l0,2.1H242V42.7z"
		/>
	<path class="st0" d="M249.7,42.7c0-1.2,0-1.2-1.4-1.4V41l3-0.3v9.7h-1.6V42.7z"/>
	<path class="st0" d="M260.1,50c-0.4,0.1-1.5,0.5-2.9,0.5c-2.9,0-4-1.9-4-5c0-2.6,0.8-4.8,4-4.8c2.2,0,3.1,1,3.2,2.1h-1.7
		c-0.1-0.5-0.4-1.4-1.7-1.4c-2,0-2.3,2.3-2.3,3.8c0,1.6,0.2,4.7,2.9,4.7c1.2,0,2.1-0.5,2.5-0.8V50z"/>
	<path class="st0" d="M273.2,46.7c0,1.9-0.2,3.8-3.4,3.8c-2.5,0-3.4-1.2-3.4-3.3v-4.6c0-1.2,0-1.2-1.4-1.4V41l3-0.3v5.9
		c0,1.6,0,3.3,2,3.3c2.2,0,2.2-1.6,2.2-3v-6h1V46.7z"/>
	<path class="st0" d="M275.8,42.6c0-1.3-0.2-1.3-1.4-1.5v-0.3h3l4.5,7.7h0v-7.7h0.9v9.6h-1.4l-4.7-8.1h0v8.1h-0.9V42.6z"/>
	<path class="st0" d="M285.6,42.7c0-1.2,0-1.2-1.4-1.4V41l3-0.3v9.7h-1.6V42.7z"/>
	<path class="st0" d="M289.8,42.6c-0.5-1.3-0.6-1.3-1.7-1.5v-0.3h2.8l2.8,7.8h0l2.7-7.8h0.9l-3.5,9.6h-1.2L289.8,42.6z"/>
	<path class="st0" d="M299.3,42.7c0-1.4-0.1-1.4-1.4-1.6v-0.3h6.8l0,2.1h-0.4c0-1.1-0.6-1.4-1.5-1.4h-1.1c-0.7,0-0.9,0.1-0.9,0.7V45
		h1.7c1,0,1.1-0.6,1.2-1.1h0.4v3h-0.4c0-0.8-0.3-1.2-1.2-1.2h-1.7v3.2c0,0.8,0.2,0.8,0.9,0.8h1.6c0.8,0,1.2-0.3,1.3-1.4h0.4l0,2.1
		h-5.7V42.7z"/>
	<path class="st0" d="M308.8,42.7c0-1,0-1.3,1-1.3c1.2,0,2.1,0.4,2.1,2c0,1.6-1.3,1.9-2.2,1.9h-0.8V42.7z M307.3,50.4h1.6v-4.4h0.9
		l2.5,4.4h1.6l-2.6-4.7c1.1-0.2,2.2-0.7,2.2-2.4c0-2.5-2.9-2.5-4-2.5h-3.5v0.3c1.3,0.2,1.4,0.2,1.4,1.6V50.4z"/>
	<path class="st0" d="M320.4,41.9c-0.4-0.2-1.4-0.6-2.5-0.6c-0.8,0-1.4,0.4-1.4,1.4c0,2.2,4.6,2,4.6,5c0,2-1.6,2.8-3.6,2.8
		c-1.1,0-2.2-0.3-2.5-0.4V49c0.4,0.3,1.6,0.9,2.7,0.9c0.9,0,1.8-0.4,1.8-1.7c0-2.3-4.6-2.1-4.6-5.1c0-1.6,1.2-2.5,3.2-2.5
		c1,0,1.9,0.2,2.3,0.3V41.9z"/>
	<path class="st0" d="M323.2,42.7c0-1.2,0-1.2-1.4-1.4V41l3-0.3v9.7h-1.6V42.7z"/>
	<path class="st0" d="M329,41.5h-1c-1.1,0-1.4,0.4-1.5,1.4h-0.4l0-2.1h7.3l0.1,2.1h-0.4c0-1.1-0.5-1.4-1.5-1.4h-1v8.9H329V41.5z"/>
	<path class="st0" d="M337.4,45.9l-2.3-3.8c-0.5-0.8-0.9-0.8-1.6-1v-0.3h2.7l2.4,4.2l2.5-4.2h0.9l-3,5.1v4.5h-1.6V45.9z"/>
	<path class="st0" d="M155.4,42.3c0-0.7,0.3-0.8,1.2-0.8c2.7,0,3,1.6,3,4.1c0,2.9-0.6,4.1-3.2,4.1c-1,0-1-0.4-1-0.9V42.3z
		 M153.8,50.5h2.1c2.8,0,5.2-0.3,5.2-4.8c0-4-2-4.8-4.7-4.8h-3.9v0.3c1.3,0.2,1.3,0.2,1.3,1.6V50.5z"/>
	<path class="st0" d="M165.4,42.7l1.6,4.1h-3.1L165.4,42.7z M161.7,50.5h0.9l1.1-3h3.6l1.1,3h1.5l-3.5-9.6h-2.7v0.3
		c0.6,0.1,1.1,0.1,1.1,0.7c0,0.1-0.2,0.6-0.2,0.8L161.7,50.5z"/>
	<path class="st0" d="M171.2,42.8c0-1.4,0-1.4-1.4-1.6v-0.3h6.8l0,2.1h-0.4c0-1.1-0.6-1.4-1.5-1.4h-1.1c-0.7,0-0.9,0.1-0.9,0.7v2.8
		h1.7c1,0,1.1-0.6,1.2-1.1h0.4v3h-0.4c0-0.8-0.3-1.2-1.2-1.2h-1.7V49c0,0.8,0.2,0.8,0.9,0.8h1.6c0.8,0,1.2-0.3,1.3-1.4h0.4l0,2.1
		h-5.7V42.8z"/>
	<path class="st0" d="M185.6,50c-0.6,0.2-1.9,0.6-3.2,0.6c-3.1,0-4.1-2-4.1-5.1c0-2.8,0.9-4.8,4-4.8c2.1,0,3,1,3.2,2.1h-1.7
		c-0.1-0.5-0.4-1.4-1.6-1.4c-2,0-2.2,2.4-2.2,4.2c0,2.4,0.6,4.3,2.8,4.3c0.5,0,0.9-0.1,1.3-0.2v-2.9c0-1.3-0.2-1.3-1.4-1.5V45h3V50z
		"/>
	<path class="st0" d="M194.2,46.8c0,1.9-0.2,3.8-3.4,3.8c-2.5,0-3.4-1.2-3.4-3.3v-4.6c0-1.2,0-1.2-1.4-1.4v-0.3l3-0.3v5.9
		c0,1.6,0,3.3,2,3.3c2.2,0,2.2-1.6,2.2-3v-6h1V46.8z"/>
</g>
<g>
	<path class="st0" d="M80.9,35.1c-1.2,5.4-4.1,8.1-8.8,8.1c-3,0-5.3-1-7-3.1c-1.7-2.1-2.5-6.1-2.5-11.9c0-10.1,3.1-15.2,9.2-15.2
		c5.1,0,7.8,3,8.2,8.8h12.3c0-0.1,0-0.2-0.1-0.3h0V4.1h-9.7v2.1c-2.9-1.4-6.4-2.2-10.6-2.2c-7,0-12.5,2.2-16.5,6.7
		c-4,4.5-6,10.3-6,17.3c0,7.5,2.1,13.4,6.2,17.7C60,50,65.4,52.2,72,52.2c4.1,0,7.7-0.8,10.8-2.5v2.4h9.6v-17h0c0,0,0-0.1,0-0.1
		H80.9z"/>
	<path class="st0" d="M143.2,4.1h-17.3v9.6h2.3v20.5c0,2.5-0.2,4.3-0.7,5.4c-0.4,1.2-1.3,2.1-2.6,2.8c-0.6,0.3-1.3,0.5-2,0.7
		c-0.6,0.1-1.3,0.1-1.9,0.1c-1.9,0-3.6-0.3-4.9-1c-1.3-0.7-2.2-1.6-2.7-2.8c-0.4-1.2-0.7-3-0.7-5.4V13.7h2.5V4.1H97.7v9.7h2.7V34
		c0,4.6,0.7,8.1,2.1,10.5c1.4,2.4,3.5,4.2,6.3,5.5c1.8,0.8,4,1.4,6.5,1.7c1.8,0.3,3.7,0.5,5.9,0.5c4.7,0,8.4-0.7,11.2-1.9
		c2.8-1.3,4.8-3.1,6.2-5.5c1.4-2.4,2.1-5.9,2.1-10.5V13.7h2.6V4.1z"/>
	<path class="st0" d="M22.5,4c-0.4,0-0.8,0-1.2,0H1.6v9.9H5v7.2h0v13.3h0v7.9H1.5v9.9h21.1v0c6.7,0,12-2.3,15.9-6.8
		c3.9-4.5,5.9-10.3,5.9-17.3c0-7.5-2-13.5-6.1-17.7C34.2,6.1,29,4,22.5,4z M22.6,43.3c-0.1,0-0.2,0-0.3,0h-7.6V12.9h7.6c0,0,0,0,0,0
		s0,0,0,0h0.2v0c2.8,0.1,5,1.1,6.6,3.1c1.6,2.1,2.4,6.1,2.4,11.9C31.6,38.2,28.6,43.3,22.6,43.3z"/>
</g>
</svg>
