<svg width="30" height="30" viewBox="0 0 30 30" fill="none" xmlns="http://www.w3.org/2000/svg">
<path d="M15 25C9.477 25 5 20.523 5 15C5 9.477 9.477 5 15 5C20.523 5 25 9.477 25 15C25 20.523 20.523 25 15 25ZM13.622 11.415C13.5618 11.3748 13.4919 11.3518 13.4196 11.3482C13.3473 11.3447 13.2755 11.3608 13.2116 11.3949C13.1478 11.4289 13.0944 11.4797 13.0572 11.5417C13.0199 11.6037 13.0001 11.6747 13 11.747V18.253C13.0001 18.3253 13.0199 18.3963 13.0572 18.4583C13.0944 18.5203 13.1478 18.5711 13.2116 18.6051C13.2755 18.6392 13.3473 18.6553 13.4196 18.6518C13.4919 18.6482 13.5618 18.6252 13.622 18.585L18.501 15.333C18.5559 15.2965 18.6009 15.247 18.632 15.1889C18.6631 15.1308 18.6794 15.0659 18.6794 15C18.6794 14.9341 18.6631 14.8692 18.632 14.8111C18.6009 14.753 18.5559 14.7035 18.501 14.667L13.621 11.415H13.622Z" fill="#053863"/>
</svg>
