<svg width="242" height="242" viewBox="0 0 242 242" fill="none" xmlns="http://www.w3.org/2000/svg">
<g opacity="0.12" clip-path="url(#clip0)">
<path d="M171.103 201.352H167.619L161.891 169.211H162.691C165.301 169.211 167.417 167.095 167.417 164.484C167.417 161.876 165.301 159.76 162.691 159.76H160.207L155.152 131.4H155.346C157.957 131.4 160.073 129.283 160.073 126.674C160.073 124.063 157.957 121.947 155.346 121.947H153.468L149.087 97.369H149.517C152.128 97.369 154.244 95.2513 154.244 92.6425C154.244 90.0318 152.128 87.9159 149.517 87.9159H147.403L143.696 67.119H144.396C147.006 67.119 149.122 65.0013 149.122 62.3924C149.122 59.7817 147.006 57.6658 144.396 57.6658H142.012L139.651 44.4204C142.16 44.3059 144.161 42.2417 144.161 39.7049C144.161 37.0942 142.043 34.9783 139.435 34.9783H137.969L134.789 17.1337C134.33 14.5636 131.881 12.8521 129.306 13.3099C126.736 13.7678 125.024 16.2216 125.482 18.7917L128.366 34.9783H113.634L116.518 18.7917C116.976 16.2216 115.264 13.7678 112.694 13.3099C110.122 12.8539 107.671 14.5636 107.211 17.1337L104.031 34.9783H102.565C99.9548 34.9783 97.8389 37.0942 97.8389 39.7049C97.8389 42.2417 99.8385 44.3059 102.348 44.4204L99.988 57.6658H97.6026C94.9937 57.6658 92.876 59.7817 92.876 62.3924C92.876 65.0013 94.9937 67.119 97.6026 67.119H98.3023L94.5968 87.9159H92.4828C89.8721 87.9159 87.7562 90.0318 87.7562 92.6425C87.7562 95.2513 89.8721 97.369 92.4828 97.369H92.9111L88.5316 121.947H86.6521C84.0432 121.947 81.9255 124.063 81.9255 126.674C81.9255 129.283 84.0432 131.4 86.6521 131.4H86.8478L81.7926 159.76H79.3074C76.6986 159.76 74.5809 161.876 74.5809 164.484C74.5809 167.095 76.6986 169.211 79.3074 169.211H80.1087L74.3796 201.352H70.8975C68.2886 201.352 66.1709 203.469 66.1709 206.078C66.1709 208.689 68.2886 210.805 70.8975 210.805H72.6958L70.3159 224.156C69.858 226.726 71.5695 229.181 74.1396 229.639C74.4202 229.687 74.7009 229.713 74.976 229.713C77.2229 229.713 79.2151 228.105 79.6232 225.815L82.2985 210.805H100.675C103.286 210.805 105.401 208.689 105.401 206.078C105.401 203.469 103.286 201.352 100.675 201.352H83.9823L89.7096 169.211H152.289L158.016 201.352H141.323C138.713 201.352 136.597 203.469 136.597 206.078C136.597 208.689 138.713 210.805 141.323 210.805H159.7L162.375 225.815C162.783 228.105 164.775 229.713 167.022 229.713C167.297 229.713 167.578 229.687 167.859 229.639C170.429 229.181 172.14 226.726 171.682 224.156L169.302 210.805H171.101C173.71 210.805 175.827 208.689 175.827 206.078C175.827 203.469 173.711 201.352 171.103 201.352V201.352ZM111.95 44.4315H130.052L132.411 57.6658H109.591L111.95 44.4315ZM107.907 67.119H134.095L137.801 87.9159H104.199L107.907 67.119ZM102.516 97.369H139.486L143.866 121.947H98.1362L102.516 97.369ZM91.3971 159.76L96.4505 131.4H145.551L150.605 159.76H91.3971Z" fill="white"/>
<path d="M241.257 118.929L239.453 116.106C240.794 115.271 241.687 113.79 241.687 112.095C241.687 109.486 239.571 107.369 236.961 107.369H233.868L221.199 87.5485C222.349 86.6863 223.097 85.3182 223.097 83.7691C223.097 81.1584 220.979 79.0426 218.37 79.0426H215.761L204.862 61.9955C205.758 61.1351 206.317 59.9295 206.317 58.5891C206.317 55.9784 204.2 53.8625 201.591 53.8625H199.663L191.573 41.206C193.247 40.4785 194.422 38.8113 194.422 36.869C194.422 34.2583 192.306 32.1424 189.695 32.1424H185.779L175.087 15.4166C173.68 13.2177 170.757 12.5733 168.558 13.9802C166.359 15.3853 165.715 18.308 167.122 20.5088L174.559 32.1424H165.748L159.772 16.2955C158.85 13.8528 156.122 12.6176 153.681 13.5408C151.238 14.4602 150.005 17.1873 150.926 19.6299L155.693 32.2698C153.601 32.7554 152.041 34.6276 152.041 36.869C152.041 39.4797 154.157 41.5956 156.768 41.5956H159.21L163.898 54.0268C161.88 54.5659 160.39 56.4012 160.39 58.5891C160.39 61.1998 162.508 63.3156 165.117 63.3156H167.403L173.357 79.1053C171.099 79.4617 169.371 81.4114 169.371 83.7691C169.371 86.378 171.487 88.4957 174.097 88.4957H176.898L184.064 107.494C181.966 107.976 180.401 109.852 180.401 112.095C180.401 114.706 182.517 116.822 185.127 116.822H187.581L194.8 135.963C195.513 137.857 197.311 139.024 199.222 139.024C199.776 139.024 200.341 138.924 200.889 138.717C203.332 137.798 204.565 135.069 203.644 132.628L197.682 116.822H228.691L233.292 124.019C234.195 125.431 235.72 126.201 237.28 126.201C238.152 126.201 239.032 125.961 239.821 125.457C242.02 124.05 242.664 121.128 241.257 118.929V118.929ZM180.602 41.5956L188.443 53.8625H173.939L169.313 41.5956H180.602ZM194.486 63.3156L204.541 79.0426H183.436L177.504 63.3156H194.486ZM194.117 107.369L186.999 88.4957H210.584L222.65 107.369H194.117Z" fill="white"/>
<path d="M57.9389 107.494L65.1044 88.4956H67.9053C70.516 88.4956 72.6319 86.3797 72.6319 83.769C72.6319 81.4113 70.9037 79.4634 68.6457 79.1071L74.6001 63.3155H76.8858C79.4965 63.3155 81.6124 61.1996 81.6124 58.5889C81.6124 56.4011 80.1224 54.5658 78.1044 54.0267L82.7922 41.5954H85.2348C87.8455 41.5954 89.9614 39.4796 89.9614 36.8689C89.9614 34.6293 88.4013 32.7571 86.3094 32.2697L91.0766 19.6298C91.9979 17.189 90.7645 14.462 88.3219 13.5407C85.8792 12.6194 83.1522 13.8527 82.2309 16.2954L76.2543 32.1423H67.4437L74.8807 20.5087C76.2876 18.3097 75.6432 15.387 73.4443 13.9801C71.2453 12.5732 68.3226 13.2176 66.9157 15.4165L56.2237 32.1423H52.3076C49.6969 32.1423 47.5811 34.2582 47.5811 36.8689C47.5811 38.8112 48.7535 40.4784 50.4299 41.2059L42.3394 53.8624H40.4118C37.803 53.8624 35.6852 55.9801 35.6852 58.5889C35.6852 59.9294 36.2447 61.135 37.1401 61.9954L26.2413 79.0424H23.6325C21.0218 79.0424 18.9059 81.1583 18.9059 83.769C18.9059 85.3181 19.6537 86.6862 20.8039 87.5484L8.13267 107.369H5.04193C2.43124 107.369 0.315365 109.486 0.315365 112.095C0.315365 113.79 1.20898 115.271 2.54756 116.105L0.74371 118.928C-0.661337 121.127 -0.0188187 124.05 2.18199 125.457C2.97037 125.961 3.85106 126.201 4.72252 126.201C6.28081 126.201 7.80772 125.431 8.70872 124.019L13.3097 116.822H44.3186L38.3587 132.628C37.4374 135.069 38.6707 137.798 41.1134 138.717C41.6618 138.924 42.2267 139.024 42.7806 139.024C44.6897 139.024 46.4899 137.857 47.2026 135.963L54.4217 116.822H56.8754C59.4861 116.822 61.602 114.706 61.602 112.095C61.602 109.852 60.0363 107.978 57.9389 107.494ZM61.4007 41.5954H72.6891L68.0622 53.8624H53.5576L61.4007 41.5954ZM47.5146 63.3155H64.4989L58.5666 79.0424H37.4614L47.5146 63.3155ZM19.3527 107.369L31.4184 88.4956H55.0014L47.8839 107.369H19.3527Z" fill="white"/>
<path d="M121 201.352C119.756 201.352 118.538 201.858 117.659 202.736C116.78 203.617 116.274 204.836 116.274 206.078C116.274 207.323 116.778 208.541 117.659 209.42C118.538 210.299 119.756 210.805 121 210.805C122.243 210.805 123.463 210.299 124.34 209.42C125.221 208.541 125.727 207.323 125.727 206.078C125.727 204.836 125.221 203.617 124.34 202.736C123.463 201.858 122.243 201.352 121 201.352V201.352Z" fill="white"/>
</g>
<defs>
<clipPath id="clip0">
<rect width="242" height="242" fill="white"/>
</clipPath>
</defs>
</svg>
