<svg width="242" height="242" viewBox="0 0 242 242" fill="none" xmlns="http://www.w3.org/2000/svg">
<g opacity="0.12">
<path d="M191.169 140.337C183.595 140.337 176.151 142.023 169.373 145.241C165.766 137.82 163.837 129.481 163.884 121C163.884 120.983 163.884 121.018 163.884 121C163.837 112.52 165.766 104.181 169.373 96.7603C176.151 99.9772 183.595 101.663 191.169 101.663C219.197 101.663 242 78.8603 242 50.8318C242 22.8028 219.197 0 191.169 0C163.14 0 140.337 22.8028 140.337 50.8313C140.337 58.4071 142.024 65.8528 145.243 72.6326C137.821 76.2447 129.435 78.1769 120.954 78.1164C120.937 78.1164 120.971 78.1164 120.954 78.1164C120.853 78.1168 121.054 78.1173 120.954 78.1173C112.577 78.1173 104.094 76.1908 96.7603 72.626C99.9772 65.8481 101.663 58.4042 101.663 50.8313C101.663 22.8028 78.8599 0 50.8313 0C22.8028 0 0 22.8028 0 50.8313C0 78.8599 22.8028 101.663 50.8313 101.663C58.4047 101.663 65.849 99.9767 72.6269 96.7594C76.2338 104.18 78.1627 112.519 78.1164 121C78.1632 129.48 76.2338 137.819 72.6269 145.24C65.849 142.022 58.4047 140.336 50.8313 140.336C22.8028 140.337 0 163.14 0 191.169C0 219.197 22.8028 242 50.8313 242C78.8599 242 101.663 219.197 101.663 191.169C101.663 183.595 99.9767 176.151 96.7598 169.374C104.182 165.766 112.631 163.836 121.108 163.884C121.208 163.883 121.008 163.883 121.108 163.883C129.485 163.883 137.906 165.809 145.24 169.374C142.023 176.152 140.337 183.596 140.337 191.169C140.337 196.968 141.307 202.658 143.22 208.082C143.905 210.023 145.729 211.237 147.678 211.237C148.199 211.237 148.73 211.15 149.25 210.967C151.712 210.099 153.004 207.399 152.135 204.937C150.579 200.526 149.79 195.894 149.79 191.169C149.79 185.317 151.028 179.564 153.39 174.281C155.468 175.805 157.431 177.484 159.255 179.308L173.957 194.01C174.284 196.02 174.959 197.941 175.951 199.702L168.595 207.058C166.749 208.904 166.748 211.897 168.595 213.743C169.518 214.666 170.727 215.127 171.937 215.127C173.146 215.127 174.356 214.665 175.279 213.743L182.64 206.382C185.279 207.861 188.223 208.605 191.169 208.605C195.637 208.605 200.104 206.904 203.505 203.504C209.148 197.86 210.104 189.282 206.383 182.639L213.744 175.278C215.589 173.432 215.589 170.439 213.744 168.594C211.898 166.748 208.905 166.748 207.059 168.594L199.703 175.95C197.941 174.958 196.021 174.283 194.011 173.956L179.308 159.254C177.484 157.43 175.806 155.467 174.282 153.389C179.565 151.028 185.318 149.79 191.169 149.79C213.985 149.79 232.547 168.352 232.547 191.168C232.547 213.984 213.985 232.547 191.169 232.547C186.967 232.547 182.824 231.921 178.855 230.685C176.362 229.909 173.713 231.301 172.937 233.794C172.162 236.286 173.553 238.935 176.046 239.711C180.925 241.23 186.013 242 191.169 242C219.197 242 242 219.197 242 191.169C242 163.14 219.197 140.337 191.169 140.337V140.337ZM149.79 50.8313C149.79 28.0153 168.353 9.45312 191.169 9.45312C213.985 9.45312 232.547 28.0153 232.547 50.8313C232.547 73.6474 213.985 92.2096 191.169 92.2096C185.318 92.2096 179.565 90.9717 174.281 88.6103C175.806 86.5325 177.484 84.5695 179.308 82.7456L194.01 68.0436C196.02 67.716 197.94 67.0416 199.702 66.0499L207.058 73.4059C207.982 74.329 209.191 74.7903 210.401 74.7903C211.61 74.7903 212.82 74.3285 213.743 73.4059C215.588 71.5602 215.589 68.5673 213.743 66.7216L206.382 59.3609C210.103 52.7172 209.147 44.1395 203.504 38.4955C197.86 32.852 189.282 31.8967 182.639 35.6175L175.278 28.2568C173.432 26.4111 170.439 26.4111 168.594 28.2568C166.748 30.1025 166.748 33.0954 168.594 34.9411L175.95 42.2971C174.958 44.0591 174.283 45.98 173.956 47.9902L159.254 62.6922C157.43 64.5162 155.468 66.1946 153.39 67.7203C151.028 62.436 149.79 56.6828 149.79 50.8313V50.8313ZM196.82 56.4824C195.311 57.9921 193.303 58.8235 191.169 58.8235C189.034 58.8235 187.027 57.9921 185.518 56.4824C184.008 54.9732 183.177 52.9663 183.177 50.8313C183.177 48.6968 184.008 46.6895 185.518 45.1803C187.075 43.6219 189.122 42.843 191.169 42.843C193.215 42.843 195.262 43.6224 196.82 45.1798C199.936 48.2965 199.936 53.3667 196.82 56.4824V56.4824ZM50.8313 92.2096C28.0153 92.2096 9.45312 73.6474 9.45312 50.8313C9.45312 28.0153 28.0153 9.45312 50.8313 9.45312C73.6474 9.45312 92.2096 28.0153 92.2096 50.8313C92.2096 56.6828 90.9717 62.4355 88.6098 67.7194C86.532 66.1946 84.5691 64.5162 82.7451 62.6922L68.0431 47.9907C67.7156 45.9805 67.0411 44.0596 66.0495 42.2975L73.4054 34.9416C75.2511 33.0959 75.2516 30.103 73.4054 28.2573C71.5597 26.4111 68.5668 26.4116 66.7211 28.2573L59.3609 35.6175C52.7172 31.8967 44.1395 32.8529 38.4955 38.496C32.852 44.1395 31.8963 52.7172 35.6175 59.3609L28.2568 66.7216C26.4111 68.5673 26.4111 71.5602 28.2568 73.4059C29.1799 74.329 30.3894 74.7903 31.599 74.7903C32.8085 74.7903 34.0185 74.3285 34.9411 73.4059L42.2971 66.0499C44.0591 67.0416 45.98 67.716 47.9902 68.0436L62.6922 82.7456C64.5162 84.5695 66.1941 86.5325 67.7189 88.6103C62.4351 90.9717 56.6824 92.2096 50.8313 92.2096V92.2096ZM56.4824 45.1803C57.9921 46.6895 58.8235 48.6968 58.8235 50.8313C58.8235 52.9663 57.9921 54.9732 56.4824 56.4824C54.9732 57.9916 52.9663 58.8235 50.8313 58.8235C48.6968 58.8235 46.6895 57.9921 45.1803 56.4824C42.064 53.3667 42.064 48.2965 45.1803 45.1803C46.7386 43.6219 48.7847 42.843 50.8318 42.843C52.8779 42.843 54.925 43.6224 56.4824 45.1803ZM92.2096 191.169C92.2096 213.985 73.6474 232.547 50.8313 232.547C28.0153 232.547 9.45312 213.985 9.45312 191.169C9.45312 168.353 28.0153 149.79 50.8313 149.79C56.6824 149.79 62.4351 151.028 67.7189 153.39C66.1941 155.468 64.5162 157.431 62.6922 159.255L47.9907 173.957C45.9805 174.284 44.0596 174.959 42.2975 175.951L34.9416 168.595C33.0959 166.748 30.103 166.749 28.2573 168.595C26.4116 170.44 26.4111 173.433 28.2573 175.279L35.618 182.64C31.8967 189.283 32.8529 197.861 38.4964 203.505C41.8972 206.906 46.3647 208.606 50.8318 208.606C53.7774 208.606 56.7216 207.861 59.3614 206.383L66.722 213.744C67.6451 214.667 68.8547 215.128 70.0642 215.128C71.2737 215.128 72.4837 214.666 73.4064 213.744C75.2521 211.898 75.2521 208.905 73.4064 207.059L66.0504 199.703C67.042 197.941 67.7165 196.021 68.0441 194.011L82.746 179.309C84.57 177.485 86.5334 175.807 88.6112 174.283C90.9717 179.565 92.2096 185.318 92.2096 191.169ZM45.1803 185.518C46.6895 184.008 48.6968 183.177 50.8313 183.177C52.9663 183.177 54.9732 184.008 56.4824 185.518C57.9916 187.027 58.8235 189.034 58.8235 191.169C58.8235 193.303 57.9921 195.311 56.4824 196.82C53.3671 199.936 48.2965 199.936 45.1803 196.82C42.064 193.704 42.064 188.633 45.1803 185.518V185.518ZM196.82 196.82C193.704 199.936 188.633 199.936 185.518 196.82C184.008 195.311 183.177 193.303 183.177 191.169C183.177 189.034 184.008 187.027 185.518 185.518C187.027 184.008 189.034 183.177 191.169 183.177C193.303 183.177 195.311 184.008 196.82 185.518C199.936 188.633 199.936 193.704 196.82 196.82V196.82ZM182.635 175.95C181.26 176.724 179.979 177.687 178.833 178.833C177.687 179.979 176.724 181.259 175.951 182.634L165.939 172.623C154.365 161.049 137.906 154.429 121.109 154.429C121 154.429 121.217 154.429 121.109 154.43C104.19 154.327 87.7103 160.974 76.0617 172.623L66.0499 182.634C65.2762 181.259 64.3134 179.979 63.1672 178.833C62.021 177.687 60.7406 176.724 59.3656 175.95L69.3765 165.939C81.0256 154.29 87.6555 137.913 87.5695 121C87.6555 104.087 81.0256 87.7094 69.3765 76.0608L59.3652 66.0495C60.7401 65.2757 62.0205 64.3129 63.1667 63.1667C64.3129 62.0205 65.2757 60.7401 66.0499 59.3652L76.0613 69.376C87.6352 80.9504 104.156 87.57 120.954 87.57C121.062 87.57 120.845 87.57 120.954 87.569C121.063 87.5695 120.844 87.57 120.954 87.57C137.75 87.57 154.366 80.9495 165.939 69.376L175.951 59.3647C176.724 60.7396 177.687 62.0201 178.833 63.1663C179.979 64.3129 181.26 65.2752 182.635 66.0495L172.624 76.0608C160.975 87.7099 154.345 104.087 154.431 121C154.345 137.913 160.975 154.29 172.624 165.939L182.635 175.95Z" fill="white"/>
<path d="M121 101.148C110.054 101.148 101.148 110.054 101.148 121C101.148 131.946 110.054 140.852 121 140.852C131.946 140.852 140.852 131.946 140.852 121C140.852 110.054 131.946 101.148 121 101.148ZM121 131.398C115.266 131.398 110.602 126.734 110.602 121C110.602 115.266 115.266 110.602 121 110.602C126.734 110.602 131.398 115.266 131.398 121C131.398 126.734 126.734 131.398 121 131.398Z" fill="white"/>
<path d="M159.157 229.071C161.767 229.071 163.883 226.955 163.883 224.345C163.883 221.734 161.767 219.618 159.157 219.618C156.546 219.618 154.43 221.734 154.43 224.345C154.43 226.955 156.546 229.071 159.157 229.071Z" fill="white"/>
</g>
</svg>
