<svg width="24" height="24" viewBox="0 0 24 24" fill="none" xmlns="http://www.w3.org/2000/svg">
<g clip-path="url(#clip0_2_98)">
<path d="M18.2553 6.72574H4.80398C3.7427 6.72574 2.88235 7.58608 2.88235 8.64736V17.2947C2.88235 18.356 3.7427 19.2163 4.80398 19.2163H18.2553C19.3166 19.2163 20.177 18.356 20.177 17.2947V8.64736C20.177 7.58608 19.3166 6.72574 18.2553 6.72574Z" stroke="#F08300" stroke-width="1.7" stroke-linecap="round" stroke-linejoin="round"/>
<path d="M7.68637 6.72577V4.80415C7.68637 4.2945 7.88883 3.80573 8.2492 3.44535C8.60958 3.08498 9.09835 2.88252 9.608 2.88252H13.4512C13.9609 2.88252 14.4497 3.08498 14.81 3.44535C15.1704 3.80573 15.3729 4.2945 15.3729 4.80415V6.72577" stroke="#F08300" stroke-width="1.7" stroke-linecap="round" stroke-linejoin="round"/>
<path d="M11.5296 11.5298V11.5401" stroke="#F08300" stroke-width="1.7" stroke-linecap="round" stroke-linejoin="round"/>
<path d="M2.88235 12.4906C5.56454 13.8421 8.52619 14.5462 11.5297 14.5462C14.5331 14.5462 17.4948 13.8421 20.177 12.4906" stroke="#F08300" stroke-width="1.7" stroke-linecap="round" stroke-linejoin="round"/>
</g>
<defs>
<clipPath id="clip0_2_98">
<rect width="23.0595" height="23.0595" fill="white"/>
</clipPath>
</defs>
</svg>
