<svg width="24" height="24" viewBox="0 0 24 24" fill="none" xmlns="http://www.w3.org/2000/svg">
<g opacity="0.5" clip-path="url(#clip0_2_22)">
<path d="M8.6472 4.80403H6.72558C6.21593 4.80403 5.72716 5.00649 5.36679 5.36686C5.00641 5.72724 4.80396 6.21601 4.80396 6.72566V18.2554C4.80396 18.765 5.00641 19.2538 5.36679 19.6142C5.72716 19.9746 6.21593 20.177 6.72558 20.177H16.3337C16.8433 20.177 17.3321 19.9746 17.6925 19.6142C18.0529 19.2538 18.2553 18.765 18.2553 18.2554V6.72566C18.2553 6.21601 18.0529 5.72724 17.6925 5.36686C17.3321 5.00649 16.8433 4.80403 16.3337 4.80403H14.4121" stroke="white" stroke-width="1.7" stroke-linecap="round" stroke-linejoin="round"/>
<path d="M12.4904 2.88243H10.5688C9.50753 2.88243 8.64719 3.74277 8.64719 4.80406C8.64719 5.86534 9.50753 6.72568 10.5688 6.72568H12.4904C13.5517 6.72568 14.4121 5.86534 14.4121 4.80406C14.4121 3.74277 13.5517 2.88243 12.4904 2.88243Z" stroke="white" stroke-width="1.7" stroke-linecap="round" stroke-linejoin="round"/>
<path d="M8.64719 16.3337V11.5297" stroke="white" stroke-width="1.7" stroke-linecap="round" stroke-linejoin="round"/>
<path d="M11.5296 16.3337V15.3729" stroke="white" stroke-width="1.7" stroke-linecap="round" stroke-linejoin="round"/>
<path d="M14.412 16.3339V13.4515" stroke="white" stroke-width="1.7" stroke-linecap="round" stroke-linejoin="round"/>
</g>
<defs>
<clipPath id="clip0_2_22">
<rect width="23.0595" height="23.0595" fill="white"/>
</clipPath>
</defs>
</svg>
