<svg width="24" height="24" viewBox="0 0 24 24" fill="none" xmlns="http://www.w3.org/2000/svg">
<g opacity="0.5" clip-path="url(#clip0_2_11)">
<path d="M12.3899 8.64716H10.6701C10.0837 8.64716 9.60837 9.12249 9.60837 9.70885V19.1152C9.60837 19.7016 10.0837 20.1769 10.6701 20.1769H12.3899C12.9763 20.1769 13.4516 19.7016 13.4516 19.1152V9.70885C13.4516 9.12249 12.9763 8.64716 12.3899 8.64716Z" stroke="white" stroke-width="1.7" stroke-linecap="round" stroke-linejoin="round"/>
<path d="M19.1152 2.88234H17.3953C16.809 2.88234 16.3336 3.35768 16.3336 3.94404V19.1153C16.3336 19.7016 16.809 20.177 17.3953 20.177H19.1152C19.7015 20.177 20.1769 19.7016 20.1769 19.1153V3.94404C20.1769 3.35768 19.7015 2.88234 19.1152 2.88234Z" stroke="white" stroke-width="1.7" stroke-linecap="round" stroke-linejoin="round"/>
<path d="M4.80398 20.177C5.86526 20.177 6.7256 19.3167 6.7256 18.2554C6.7256 17.1941 5.86526 16.3338 4.80398 16.3338C3.7427 16.3338 2.88235 17.1941 2.88235 18.2554C2.88235 19.3167 3.7427 20.177 4.80398 20.177Z" stroke="white" stroke-width="1.7" stroke-linecap="round" stroke-linejoin="round"/>
</g>
<defs>
<clipPath id="clip0_2_11">
<rect width="23.0595" height="23.0595" fill="white"/>
</clipPath>
</defs>
</svg>
