<svg width="10" height="11" viewBox="0 0 10 11" fill="none" xmlns="http://www.w3.org/2000/svg">
<path d="M1.53846 1.42311C1.19859 1.42311 0.923074 1.69863 0.923074 2.03849V8.96154C0.923074 9.30141 1.19859 9.57693 1.53846 9.57693H8.46151C8.80138 9.57693 9.07689 9.30141 9.07689 8.96154V7.23078H9.99997V8.96154C9.99997 9.81121 9.31117 10.5 8.46151 10.5H1.53846C0.68879 10.5 0 9.81121 0 8.96154V2.03849C0 1.18883 0.68879 0.500035 1.53846 0.500035L3.26922 0.5V1.42311H1.53846Z" fill="#A7ADBC"/>
<path fill-rule="evenodd" clip-rule="evenodd" d="M4.46151 0.5H9.99996V6.03844H9.07688V2.07579L6.61535 4.53731L5.38459 5.76808L4.76926 6.38346L4.11646 5.73075L4.73188 5.11537L5.96264 3.8846L8.42417 1.42307H4.46151V0.5Z" fill="#A7ADBC"/>
</svg>
