<svg width="34" height="34" viewBox="0 0 34 34" fill="none" xmlns="http://www.w3.org/2000/svg">
<circle cx="17" cy="17" r="17" fill="white"/>
<path fill-rule="evenodd" clip-rule="evenodd" d="M15.362 22.8337C15.4124 22.8302 15.4253 22.8306 15.4752 22.822C15.5874 22.8027 15.6954 22.7601 15.7906 22.6976C15.8388 22.666 15.8809 22.6293 15.9229 22.5901L20.9231 17.5899C20.9576 17.5529 20.9672 17.5445 20.9978 17.5041C21.0322 17.4588 21.0619 17.4099 21.0864 17.3585C21.1932 17.1338 21.1932 16.8673 21.0864 16.6426C21.0619 16.5912 21.0322 16.5423 20.9978 16.497C20.9672 16.4567 20.9576 16.4482 20.9231 16.4113L15.9229 11.4111C15.8859 11.3766 15.8774 11.3669 15.8371 11.3363C15.7312 11.256 15.6062 11.2017 15.4752 11.1791C15.3816 11.163 15.2855 11.163 15.192 11.1791C15.1172 11.192 15.0442 11.2152 14.9757 11.2477C14.7153 11.3715 14.5341 11.6283 14.5046 11.9151C14.4929 12.0284 14.5048 12.1439 14.5393 12.2525C14.568 12.3429 14.6122 12.4283 14.6695 12.5039C14.7001 12.5443 14.7098 12.5527 14.7443 12.5896L19.1552 17.0006L14.7443 21.4115L14.7054 21.4531C14.6736 21.4923 14.6645 21.5014 14.6367 21.5437C14.5847 21.6231 14.5463 21.7113 14.5239 21.8034C14.5059 21.8772 14.4981 21.9534 14.5007 22.0292C14.5105 22.3173 14.6739 22.5859 14.9251 22.7272C15.0078 22.7737 15.0985 22.8059 15.192 22.822C15.2419 22.8306 15.2547 22.8302 15.3051 22.8337C15.3241 22.8337 15.343 22.8337 15.362 22.8337V22.8337Z" fill="#223257"/>
</svg>
