<svg width="111" height="59" viewBox="0 0 111 59" fill="none" xmlns="http://www.w3.org/2000/svg">
<path d="M16.8222 58.0277H0.95166V41.9277H4.9193V53.995H16.8222V58.0277Z" fill="#AAAAA6"/>
<path d="M94.2065 0H110.077V16.0999H106.109V4.03268H94.2065V0Z" fill="#F08300"/>
<path d="M82.7573 28.875C82.7573 24.8731 81.9092 21.4253 80.2434 18.5624C78.4262 15.4225 75.8215 13.2984 72.4293 12.1286C70.6423 11.5129 68.6131 11.2051 66.3113 11.2051H54.3175C54.0449 11.2051 53.6512 11.2051 53.0757 11.2051C51.2282 11.2051 49.835 12.498 49.835 14.3758V15.0223V46.8835H68.1285C72.8533 46.8835 76.5181 45.0981 79.1531 41.5271C81.5458 38.264 82.7573 34.0467 82.7573 28.875ZM72.0658 28.9058C72.0658 32.3228 71.4601 34.8163 70.2486 36.3555C69.0371 37.8946 66.6747 38.695 64.0094 38.695H60.1326V19.3936H63.5248C66.1901 19.3936 68.6434 20.2863 70.0366 22.1025C71.3692 23.7649 72.0658 26.0121 72.0658 28.9058Z" fill="white"/>
<path d="M99.0825 11.2359V43.7128C99.0825 45.5906 97.6893 46.8835 95.8418 46.8835C94.6 46.8835 94.5697 46.8835 94.5697 46.8835H88.3911V14.3758C88.3911 12.498 89.7843 11.2051 91.6319 11.2051L99.0825 11.2359Z" fill="white"/>
<path d="M46.4128 46.884L33.5104 27.9212L46.3522 11.2363H34.2373L22.6069 26.1973V11.2363H15.1563C13.3087 11.2363 11.9155 12.5292 11.9155 14.4071V46.9148H17.6701C17.6701 46.9148 18.1547 46.9148 19.3662 46.9148C21.2137 46.9148 22.6069 45.6218 22.6069 43.744V29.8913L34.0858 46.884H46.4128Z" fill="white"/>
</svg>
