<svg width="71" height="71" viewBox="0 0 71 71" fill="none" xmlns="http://www.w3.org/2000/svg">
<g clip-path="url(#clip0_20_142)">
<path d="M41.6646 6.83755C39.4174 6.71661 37.2917 7.38177 35.5303 8.53069C33.7083 7.3213 31.6432 6.71661 29.396 6.83755C23.3225 7.13989 18.7065 12.8845 19.071 19.5966C19.4354 26.3691 24.8408 35.5 30.9144 35.1977H40.1462C46.2198 35.5 51.6253 26.3087 51.9897 19.5966C52.2934 12.8845 47.6775 7.13989 41.6646 6.83755Z" fill="#C2DFFF"/>
<path d="M69.9675 63.074H1.09326V67.9115H69.9675V63.074Z" fill="#C2DFFF"/>
<path d="M69.9068 69H1.09324C0.485885 69 0 68.5162 0 67.9115V53.157C0 52.5523 0.485885 52.0686 1.09324 52.0686H69.9675C70.5748 52.0686 71.0607 52.5523 71.0607 53.157V67.972C71 68.5162 70.5141 69 69.9068 69ZM2.12575 66.8836H68.8743V54.185H2.12575V66.8836Z" fill="#004989"/>
<path d="M44.519 68.2744C43.9117 68.2744 43.4258 67.7906 43.4258 67.1859V53.8827C43.4258 53.278 43.9117 52.7942 44.519 52.7942C45.1264 52.7942 45.6123 53.278 45.6123 53.8827V67.2464C45.6123 67.7906 45.1264 68.2744 44.519 68.2744Z" fill="#004989"/>
<path d="M24.7801 63.8601H6.6201C6.01274 63.8601 5.52686 63.3763 5.52686 62.7716V58.2364C5.52686 57.6317 6.01274 57.148 6.6201 57.148H24.7801C25.3874 57.148 25.8733 57.6317 25.8733 58.2364V62.7716C25.8733 63.3763 25.3874 63.8601 24.7801 63.8601ZM7.6526 61.7437H23.6868V59.3249H7.6526V61.7437Z" fill="#004989"/>
<path d="M59.521 54.185H10.3251C4.61591 54.185 0 49.5893 0 43.9052C0 38.2211 4.61591 33.6254 10.3251 33.6254H59.521C61.2823 33.6254 62.6792 35.0767 62.6792 36.7698C62.6792 38.5234 61.2216 39.9142 59.521 39.9142H10.3251C8.13858 39.9142 6.37725 41.6678 6.37725 43.8447C6.37725 46.0216 8.13858 47.7752 10.3251 47.7752H59.521C61.2823 47.7752 62.6792 49.2265 62.6792 50.9197C62.6792 52.7337 61.2823 54.185 59.521 54.185ZM10.3251 35.7419C5.83062 35.7419 2.12575 39.4305 2.12575 43.9052C2.12575 48.3799 5.83062 52.0686 10.3251 52.0686H59.521C60.1283 52.0686 60.6142 51.5848 60.6142 50.9801C60.6142 50.3754 60.1283 49.8917 59.521 49.8917H10.3251C6.9846 49.8917 4.2515 47.1706 4.2515 43.8447C4.2515 40.5189 6.9846 37.7978 10.3251 37.7978H59.521C60.1283 37.7978 60.6142 37.3141 60.6142 36.7094C60.6142 36.1047 60.1283 35.6209 59.521 35.6209H10.3251V35.7419Z" fill="#004989"/>
<path d="M58.1846 49.5289C57.5772 49.5289 57.0913 49.0451 57.0913 48.4404V39.37C57.0913 38.7653 57.5772 38.2816 58.1846 38.2816C58.7919 38.2816 59.2778 38.7653 59.2778 39.37V48.4404C59.2171 49.0451 58.7312 49.5289 58.1846 49.5289Z" fill="#004989"/>
<path d="M41.3003 43.24V60.1714L46.645 57.3898L51.929 60.1714V43.24H41.3003Z" fill="#C2DFFF"/>
<path d="M51.9291 61.1994C51.7469 61.1994 51.5647 61.139 51.4432 61.0785L46.6451 58.5992L41.847 61.0785C41.5433 61.2599 41.1182 61.2599 40.8145 61.018C40.5108 60.8366 40.3286 60.4738 40.3286 60.111V43.1796C40.3286 42.5749 40.8145 42.0911 41.4219 42.0911H51.9899C52.5972 42.0911 53.0831 42.5749 53.0831 43.1796V60.111C53.0831 60.4738 52.9009 60.8366 52.5972 61.018C52.2935 61.139 52.1113 61.1994 51.9291 61.1994ZM46.6451 56.3619C46.8273 56.3619 47.0095 56.4223 47.131 56.4828L50.8359 58.4178V44.268H42.3936V58.4178L46.0985 56.4828C46.2807 56.4223 46.4629 56.3619 46.6451 56.3619Z" fill="#004989"/>
<path d="M35.4696 13.4287C33.6475 13.4287 31.8255 12.7635 30.4893 11.3727C30.0641 10.9495 30.0641 10.2843 30.4893 9.86101C30.9144 9.43773 31.5825 9.43773 32.0077 9.86101C33.9512 11.796 37.0487 11.796 38.9923 9.86101C39.4174 9.43773 40.0855 9.43773 40.5107 9.86101C40.9358 10.2843 40.9358 10.9495 40.5107 11.3727C39.1137 12.7635 37.2917 13.4287 35.4696 13.4287Z" fill="#004989"/>
<path d="M35.4695 12.5217C34.9229 12.5217 34.437 12.0984 34.437 11.5542C34.437 11.3123 33.8904 4.90253 38.0204 2.12094C38.5063 1.87906 39.1744 2 39.4781 2.48375C39.7818 2.96751 39.6603 3.63267 39.1744 3.93502C36.0769 5.99097 36.502 11.3727 36.502 11.3727C36.5628 11.9774 36.1376 12.4612 35.5303 12.5217C35.5303 12.5217 35.5303 12.5217 35.4695 12.5217Z" fill="#004989"/>
</g>
<defs>
<clipPath id="clip0_20_142">
<rect width="71" height="67" fill="white" transform="translate(0 2)"/>
</clipPath>
</defs>
</svg>
