<svg width="64" height="64" viewBox="0 0 64 64" fill="none" xmlns="http://www.w3.org/2000/svg">
<path d="M38.81 41.56C38.31 41.81 37.82 42.02 37.37 42.2C37.01 41.19 36.58 40.34 36.21 39.72C36.01 39.37 35.82 39.1 35.69 38.9C37.21 38.24 38.59 37.4 39.82 36.41L41.9 39.54C41.74 39.69 41.58 39.83 41.41 39.96C40.61 40.6 39.69 41.13 38.81 41.56Z" fill="white"/>
<path d="M35.01 39.23L36.5 41L36.93 43.22L37.61 42.91C37.61 42.91 39.74 41.99 40.83 41.28C41.64 40.76 42.4 40.16 43.01 39.45C43.36 39.05 43.65 38.61 43.87 38.14C44.12 37.61 44.23 37.13 44.23 36.7C44.23 36.41 44.18 36.14 44.08 35.9C43.99 35.66 43.86 35.46 43.7 35.28C43.4 34.93 43.02 34.71 42.68 34.55C42.45 34.45 42.2469 34.4132 41.96 34.4C41.309 34.3701 40.3773 34.9287 40.3773 34.9287L37.5 37L34.5 38.5L35.01 39.23ZM35.01 39.23C35.14 39.41 35.36 39.74 35.56 40.09C35.97 40.78 36.46 41.77 36.82 42.94L36.83 42.96L36.84 42.98V42.99C36.84 43 36.85 43.01 36.86 43.03C36.88 43.07 36.93 43.22 36.93 43.22L36.5 41L35.01 39.23ZM41.89 39.54C41.73 39.69 41.57 39.83 41.4 39.96C40.61 40.59 39.69 41.13 38.81 41.56C38.31 41.81 37.82 42.02 37.37 42.2C37.01 41.19 36.58 40.34 36.21 39.72C36.01 39.37 35.82 39.1 35.69 38.9C37.21 38.24 38.59 37.4 39.82 36.41L41.89 39.54Z" fill="black"/>
</svg>
