<svg width="64" height="64" viewBox="0 0 64 64" fill="none" xmlns="http://www.w3.org/2000/svg">
<path d="M56.2564 28.8913C56.4064 29.0313 56.6365 29.0113 56.7765 28.8613C56.7965 28.8413 57.1965 28.3813 57.5265 27.5813C57.6865 27.1813 57.8265 26.7013 57.8965 26.1413C57.9565 25.5813 57.9365 24.9614 57.7765 24.2814C57.7265 24.0814 57.5365 23.9613 57.3365 24.0113C57.1365 24.0613 57.0164 24.2513 57.0664 24.4513C57.1464 24.8013 57.1864 25.1213 57.1964 25.4313C57.2064 25.6513 57.1964 25.8613 57.1764 26.0613C57.1264 26.5413 56.9965 26.9613 56.8565 27.3013C56.8165 27.4013 56.7764 27.4913 56.7364 27.5713C56.6264 27.7913 56.5264 27.9714 56.4364 28.1014C56.3764 28.1914 56.3265 28.2613 56.2865 28.3013C56.2665 28.3213 56.2564 28.3414 56.2464 28.3514C56.2464 28.3614 56.2364 28.3613 56.2364 28.3613C56.0964 28.5313 56.1064 28.7613 56.2564 28.8913Z" fill="white"/>
<path d="M53.0664 29.0714C53.1864 29.2414 53.4065 29.2814 53.5765 29.1614C53.5965 29.1414 54.0965 28.7914 54.6065 28.0914C54.8565 27.7414 55.1065 27.3014 55.2965 26.7814C55.4865 26.2514 55.6164 25.6413 55.6164 24.9413C55.6164 24.7413 55.4564 24.5714 55.2464 24.5714C55.0464 24.5714 54.8764 24.7313 54.8764 24.9413C54.8764 25.3013 54.8365 25.6214 54.7765 25.9214C54.7265 26.1414 54.6765 26.3414 54.6065 26.5314C54.4465 26.9814 54.2264 27.3614 54.0064 27.6614C53.9464 27.7414 53.8865 27.8214 53.8265 27.8914C53.6765 28.0814 53.5265 28.2314 53.4065 28.3314C53.3265 28.4014 53.2565 28.4613 53.2165 28.4913C53.1965 28.5113 53.1765 28.5214 53.1665 28.5314C53.1565 28.5314 53.1565 28.5414 53.1565 28.5414C52.9965 28.6814 52.9464 28.9114 53.0664 29.0714Z" fill="white"/>
</svg>
