<svg width="60" height="60" viewBox="0 0 60 60" fill="none" xmlns="http://www.w3.org/2000/svg">
<g clip-path="url(#clip0_352_2825)">
<path d="M40.2485 51.7243C40.1619 51.7243 40.0753 51.7243 39.9887 51.681C39.599 51.5511 39.3825 51.1181 39.5124 50.7284L43.2798 40.0323C43.3664 39.7292 43.6695 39.5127 44.016 39.5127C44.3191 39.5127 44.6222 39.7292 44.7521 40.0323L48.5195 50.7284C48.6495 51.1181 48.4329 51.5511 48.0432 51.681C47.6535 51.811 47.2204 51.5944 47.0905 51.2047L44.0593 42.544L41.028 51.2047C40.8548 51.5511 40.5517 51.7243 40.2485 51.7243Z" fill="#00ABFB"/>
<path d="M46.0515 48.2171H41.9377C41.5046 48.2171 41.1582 47.8707 41.1582 47.4377C41.1582 47.0046 41.5046 46.6582 41.9377 46.6582H46.0515C46.4846 46.6582 46.831 47.0046 46.831 47.4377C46.7877 47.8707 46.4413 48.2171 46.0515 48.2171Z" fill="#00ABFB"/>
<path d="M16.0422 20.6325C13.877 20.6325 12.1016 18.8571 12.1016 16.6919V12.3615C12.1016 10.1964 13.877 8.4209 16.0422 8.4209C18.2074 8.4209 19.9828 10.1964 19.9828 12.3615V16.6919C19.9828 18.8571 18.2507 20.6325 16.0422 20.6325ZM16.0422 9.89322C14.6998 9.89322 13.6172 10.9758 13.6172 12.3182V16.6486C13.6172 17.991 14.6998 19.0736 16.0422 19.0736C17.3846 19.0736 18.4672 17.991 18.4672 16.6486V12.3182C18.4672 11.0191 17.3846 9.89322 16.0422 9.89322Z" fill="#00ABFB"/>
<path d="M20.4157 20.6327C20.2425 20.6327 20.026 20.5461 19.896 20.4161L16.5184 17.0385C16.2152 16.7353 16.2152 16.259 16.5184 15.9559C16.8215 15.6527 17.2978 15.6527 17.601 15.9559L20.9786 19.3335C21.2818 19.6367 21.2818 20.113 20.9786 20.4161C20.8054 20.5461 20.5889 20.6327 20.4157 20.6327Z" fill="#00ABFB"/>
<path d="M18.2069 27.4746C17.8172 27.4746 14.2663 27.388 12.0578 24.3135C8.03053 22.9277 5.3457 19.2036 5.3457 14.9165C5.3457 9.46028 9.80599 5 15.2623 5H18.0337C23.49 5 27.9502 9.46028 27.9502 14.9165C27.9502 20.2862 23.6632 24.6599 18.3368 24.8331C18.4667 25.2661 18.6399 25.8291 18.9431 26.392C19.073 26.6086 19.0297 26.9117 18.8998 27.1282C18.7699 27.3447 18.51 27.4746 18.2069 27.4746C18.2069 27.4746 18.2502 27.4746 18.2069 27.4746ZM15.2623 6.51563C10.6288 6.51563 6.86133 10.2831 6.86133 14.9165C6.86133 18.5974 9.24304 21.8451 12.7506 22.9277C12.9239 22.971 13.0538 23.1009 13.1404 23.2309C14.2663 24.963 15.9118 25.5693 17.0377 25.8291C16.8212 25.1795 16.6913 24.6166 16.648 24.1835C16.6047 23.967 16.6913 23.7505 16.8212 23.5773C16.9511 23.4041 17.1676 23.3175 17.3841 23.3175H17.9904C22.6239 23.3175 26.3913 19.55 26.3913 14.9165C26.3913 10.2831 22.6239 6.51563 17.9904 6.51563H15.2623V6.51563Z" fill="#00ABFB"/>
<path d="M45.3579 55.6221H42.5865C37.1302 55.6221 32.6699 51.1618 32.6699 45.7055C32.6699 40.3359 36.957 35.9622 42.2833 35.789C42.1534 35.3559 41.9802 34.793 41.6771 34.2301C41.5472 34.0135 41.5905 33.7104 41.7204 33.4939C41.8503 33.2774 42.1101 33.1475 42.37 33.1475C42.803 33.1475 46.3539 33.2341 48.5624 36.3086C52.5896 37.6944 55.2745 41.4185 55.2745 45.7055C55.2745 51.1618 50.8142 55.6221 45.3579 55.6221ZM42.5865 37.3046C37.953 37.3046 34.1856 41.072 34.1856 45.7055C34.1856 50.339 37.953 54.1065 42.5865 54.1065H45.3579C49.9914 54.1065 53.7588 50.339 53.7588 45.7055C53.7588 42.0247 51.3771 38.7769 47.8695 37.6944C47.6963 37.651 47.5664 37.5211 47.4798 37.3912C46.3539 35.6591 44.7084 35.0528 43.5825 34.793C43.799 35.4426 43.9289 36.0055 43.9722 36.4385C44.0155 36.6551 43.9289 36.8716 43.799 37.0448C43.6691 37.218 43.4525 37.3046 43.236 37.3046H42.5865Z" fill="#00ABFB"/>
<path d="M47.8706 20.7626C47.6541 20.7626 47.4809 20.676 47.351 20.5461L40.076 13.2711C39.7729 12.968 39.7729 12.4916 40.076 12.1885L47.0912 5.2166C47.3943 4.91348 47.8706 4.91348 48.1738 5.2166L55.4055 12.4483C55.7086 12.7514 55.7086 13.2278 55.4055 13.5309L48.4336 20.5028C48.2604 20.676 48.0872 20.7626 47.8706 20.7626ZM41.6782 12.7514L47.8706 18.9006L53.8033 12.968L47.6108 6.81884L41.6782 12.7514Z" fill="#00ABFB"/>
<path d="M43.3519 8.56706L9.33301 42.5859L17.9985 51.2514L52.0174 17.2325L43.3519 8.56706Z" fill="#BFDFFF"/>
<path d="M17.9907 52.0283C17.8174 52.0283 17.6009 51.9417 17.471 51.8117L8.81027 43.151C8.68036 43.0211 8.59375 42.8046 8.59375 42.6314C8.59375 42.4148 8.68036 42.2416 8.81027 42.1117L42.8037 8.075C43.1068 7.77187 43.5831 7.77187 43.8863 8.075L52.547 16.7357C52.6769 16.8657 52.7635 17.0822 52.7635 17.2554C52.7635 17.4719 52.6769 17.6451 52.547 17.775L18.5536 51.7684C18.3804 51.985 18.2072 52.0283 17.9907 52.0283ZM10.4125 42.5881L17.9907 50.2095L50.9448 17.2554L43.3233 9.67724L10.4125 42.5881Z" fill="#00ABFB"/>
<path d="M5.73566 55.6224C5.51914 55.6224 5.34592 55.5358 5.21601 55.4059C4.99949 55.1894 4.95619 54.9295 5.0428 54.6697L8.5937 42.4148C8.72361 42.025 9.11335 41.7652 9.54638 41.8951C9.93612 42.025 10.1959 42.4148 10.066 42.8478L6.86155 53.7603L17.7741 50.5559C18.1638 50.426 18.5969 50.6858 18.7268 51.0755C18.8567 51.4652 18.5969 51.8983 18.2071 52.0282L5.95217 55.5791C5.90887 55.6224 5.82226 55.6224 5.73566 55.6224Z" fill="#00ABFB"/>
<path d="M12.4907 52.8943L7.72732 48.1309L5.73535 54.8429L12.4907 52.8943Z" fill="#00ABFB"/>
<path d="M14.3095 47.0479C14.1363 47.0479 13.9198 46.9613 13.7898 46.8313C13.4867 46.5282 13.4867 46.0519 13.7898 45.7488L43.323 16.2156C43.6261 15.9125 44.1024 15.9125 44.4056 16.2156C44.7087 16.5188 44.7087 16.9951 44.4056 17.2982L14.8724 46.8313C14.6992 46.9613 14.526 47.0479 14.3095 47.0479Z" fill="#00ABFB"/>
<path d="M48.1733 21.5856C48.0001 21.5856 47.7836 21.499 47.6537 21.3691L39.2527 12.9681C38.9496 12.665 38.9496 12.1887 39.2527 11.8855C39.5559 11.5824 40.0322 11.5824 40.3353 11.8855L48.7362 20.2865C49.0394 20.5896 49.0394 21.0659 48.7362 21.3691C48.563 21.499 48.3898 21.5856 48.1733 21.5856Z" fill="#00ABFB"/>
</g>
<defs>
<clipPath id="clip0_352_2825">
<rect width="50.622" height="50.622" fill="white" transform="translate(5 5)"/>
</clipPath>
</defs>
</svg>
