<svg width="60" height="60" viewBox="0 0 60 60" fill="none" xmlns="http://www.w3.org/2000/svg">
<g clip-path="url(#clip0_353_3069)">
<rect x="9.73926" y="14.6523" width="40.782" height="18.449" fill="#286AC9"/>
<path d="M50.5671 50.1808H9.55114C9.05398 50.1808 8.65625 49.783 8.65625 49.2859V12.7444C8.65625 7.37503 13.0313 3 18.4006 3H41.7176C47.0869 3 51.462 7.37503 51.462 12.7444V49.2859C51.462 49.783 51.0643 50.1808 50.5671 50.1808ZM10.3963 48.4407H49.7219V12.7444C49.7219 8.31964 46.1423 4.74007 41.7176 4.74007H18.4006C13.9759 4.74007 10.3963 8.31964 10.3963 12.7444V48.4407Z" fill="white"/>
<path d="M49.8217 15.4792H10.2972C9.80007 15.4792 9.40234 15.0815 9.40234 14.5843C9.40234 14.0872 9.80007 13.6895 10.2972 13.6895H49.8217C50.3189 13.6895 50.7166 14.0872 50.7166 14.5843C50.6669 15.0815 50.3189 15.4792 49.8217 15.4792Z" fill="white"/>
<path d="M49.8217 33.6755H10.2972C9.80007 33.6755 9.40234 33.2778 9.40234 32.7806C9.40234 32.2835 9.80007 31.8857 10.2972 31.8857H49.8217C50.3189 31.8857 50.7166 32.2835 50.7166 32.7806C50.6669 33.3275 50.3189 33.6755 49.8217 33.6755Z" fill="white"/>
<path d="M30.0345 33.1281C29.5374 33.1281 29.1396 32.7303 29.1396 32.2332V15.4291C29.1396 14.9319 29.5374 14.5342 30.0345 14.5342C30.5317 14.5342 30.9294 14.9319 30.9294 15.4291V32.2829C30.9294 32.7303 30.5317 33.1281 30.0345 33.1281Z" fill="white"/>
<path d="M18.3017 43.3198C18.3017 41.9277 17.2079 40.834 15.8159 40.834C14.4238 40.834 13.3301 41.9277 13.3301 43.3198C13.3301 44.7119 14.4238 45.8056 15.8159 45.8056C17.2079 45.8056 18.3017 44.7119 18.3017 43.3198Z" fill="#286AC9"/>
<path d="M46.789 43.3198C46.789 41.9277 45.6953 40.834 44.3032 40.834C42.9111 40.834 41.8174 41.9277 41.8174 43.3198C41.8174 44.7119 42.9111 45.8056 44.3032 45.8056C45.6455 45.8056 46.789 44.7119 46.789 43.3198Z" fill="#286AC9"/>
<path d="M15.6664 33.1281C15.4178 33.1281 15.1692 33.0287 15.0201 32.8298C14.7218 32.4818 14.7715 31.9349 15.1195 31.5869L23.1238 24.6763C23.4719 24.378 24.0187 24.4278 24.3668 24.7758C24.665 25.1238 24.6153 25.6707 24.2673 26.0187L16.263 32.9292C16.1138 33.0784 15.8653 33.1281 15.6664 33.1281Z" fill="white"/>
<path d="M36.3978 33.1281C36.1493 33.1281 35.9007 33.0287 35.7515 32.8298C35.4532 32.4818 35.5029 31.9349 35.851 31.5869L43.8553 24.6763C44.2033 24.378 44.7502 24.4278 45.0982 24.7758C45.3965 25.1238 45.3468 25.6707 44.9988 26.0187L36.9944 32.9292C36.7956 33.0784 36.5967 33.1281 36.3978 33.1281Z" fill="white"/>
<path d="M19.3949 57.1907H13.3295C12.8323 57.1907 12.4346 56.7929 12.4346 56.2958V49.9818C12.4346 49.4846 12.8323 49.0869 13.3295 49.0869C13.8266 49.0869 14.2244 49.4846 14.2244 49.9818V55.4506H18.5497V49.9818C18.5497 49.4846 18.9474 49.0869 19.4446 49.0869C19.9417 49.0869 20.3395 49.4846 20.3395 49.9818V56.3455C20.2897 56.7929 19.892 57.1907 19.3949 57.1907Z" fill="white"/>
<path d="M46.7883 57.1907H40.6732C40.1761 57.1907 39.7783 56.7929 39.7783 56.2958V49.9818C39.7783 49.4846 40.1761 49.0869 40.6732 49.0869C41.1704 49.0869 41.5681 49.4846 41.5681 49.9818V55.4506H45.8934V49.9818C45.8934 49.4846 46.2912 49.0869 46.7883 49.0869C47.2855 49.0869 47.6832 49.4846 47.6832 49.9818V56.3455C47.6335 56.7929 47.2358 57.1907 46.7883 57.1907Z" fill="white"/>
<path d="M55.7372 28.7032C53.8479 28.7032 52.3564 27.162 52.3564 25.3225V22.787C52.3564 20.8977 53.8976 19.4062 55.7372 19.4062C57.6264 19.4062 59.1179 20.9475 59.1179 22.787V25.3225C59.1179 27.162 57.5767 28.7032 55.7372 28.7032ZM55.7372 21.1463C54.8423 21.1463 54.0965 21.8921 54.0965 22.787V25.3225C54.0965 26.2174 54.8423 26.9631 55.7372 26.9631C56.632 26.9631 57.3778 26.2174 57.3778 25.3225V22.787C57.3778 21.8921 56.632 21.1463 55.7372 21.1463Z" fill="white"/>
<path d="M50.7658 30.6425C50.5669 30.6425 50.3184 30.5431 50.1692 30.3939C49.8212 30.0459 49.8212 29.499 50.1692 29.151L52.7047 26.6155C53.0528 26.2675 53.5996 26.2675 53.9477 26.6155C54.2957 26.9635 54.2957 27.5104 53.9477 27.8584L51.4121 30.3939C51.2133 30.5928 51.0144 30.6425 50.7658 30.6425Z" fill="white"/>
<path d="M4.38071 28.7032C2.49149 28.7032 1 27.162 1 25.3225V22.787C1 20.8977 2.54121 19.4062 4.38071 19.4062C6.26993 19.4062 7.76142 20.9475 7.76142 22.787V25.3225C7.81113 27.162 6.26993 28.7032 4.38071 28.7032ZM4.38071 21.1463C3.48581 21.1463 2.74007 21.8921 2.74007 22.787V25.3225C2.74007 26.2174 3.48581 26.9631 4.38071 26.9631C5.2756 26.9631 6.02135 26.2174 6.02135 25.3225V22.787C6.07106 21.8921 5.32532 21.1463 4.38071 21.1463Z" fill="white"/>
<path d="M9.35212 30.6425C9.15326 30.6425 8.90468 30.5431 8.75553 30.3939L6.21999 27.8584C5.87198 27.5104 5.87198 26.9635 6.21999 26.6155C6.56801 26.2675 7.11489 26.2675 7.4629 26.6155L9.99843 29.151C10.3464 29.499 10.3464 30.0459 9.99843 30.3939C9.74985 30.5928 9.55099 30.6425 9.35212 30.6425Z" fill="white"/>
</g>
<defs>
<clipPath id="clip0_353_3069">
<rect width="58.1184" height="54.1908" fill="white" transform="translate(1 3)"/>
</clipPath>
</defs>
</svg>
