<svg width="60" height="60" viewBox="0 0 60 60" fill="none" xmlns="http://www.w3.org/2000/svg">
<g clip-path="url(#clip0_353_3071)">
<path d="M20.3305 22.3545H19.0295C15.4519 22.3545 12.5713 25.2351 12.5713 28.8127V38.1051H18.7507V27.0472C18.7507 25.2816 19.3547 23.6554 20.3305 22.3545Z" fill="#286AC9"/>
<path d="M41.2384 22.3545H39.9375C40.9597 23.6554 41.5637 25.2816 41.5637 27.0472V38.1516H47.7431V28.8592C47.7431 25.2351 44.816 22.3545 41.2384 22.3545Z" fill="#286AC9"/>
<path d="M26.6028 16.3148C26.6028 16.2219 26.6028 16.0825 26.6028 15.9896C25.72 15.1998 25.116 14.0847 24.9766 12.8302C24.2332 12.2262 23.2575 11.8545 22.1889 11.8545C19.7264 11.8545 17.7285 13.8524 17.7285 16.3148C17.7285 18.7309 19.6335 20.6823 22.003 20.7287C22.9787 20.0318 24.1403 19.5672 25.3483 19.3813C26.0917 18.5915 26.6028 17.5229 26.6028 16.3148Z" fill="#286AC9"/>
<path d="M38.1717 20.7756C38.2182 20.7756 38.2646 20.7756 38.3576 20.7756C40.7271 20.6827 42.6321 18.7313 42.6321 16.3617C42.6321 13.8992 40.6342 11.9014 38.1717 11.9014C37.1031 11.9014 36.1738 12.2731 35.384 12.8771C35.1981 14.1315 34.5941 15.2002 33.7578 16.0365C33.7578 16.1294 33.7578 16.2688 33.7578 16.3617C33.7578 17.5697 34.2224 18.6384 35.0123 19.4282C35.7557 20.2181 36.9172 20.7756 38.1717 20.7756Z" fill="#286AC9"/>
<path d="M41.4704 35.2246H18.7969V38.5234H41.4704V35.2246Z" fill="#286AC9"/>
<path d="M13.5464 52.9733V49.8604H10.2012L13.5464 52.9733Z" fill="#286AC9"/>
<path d="M46.7666 52.9733V49.8604H50.1119L46.7666 52.9733Z" fill="#286AC9"/>
<path d="M30.134 18.2195C26.7422 18.2195 24.001 15.4783 24.001 12.0865C24.0474 8.74126 26.7887 6 30.134 6C33.5257 6 36.267 8.74126 36.267 12.133C36.267 15.4783 33.5257 18.2195 30.134 18.2195ZM30.134 7.62617C27.6715 7.62617 25.6271 9.62404 25.6271 12.133C25.6271 14.5955 27.625 16.6398 30.134 16.6398C32.5965 16.6398 34.6408 14.6419 34.6408 12.133C34.6408 9.62404 32.6429 7.62617 30.134 7.62617Z" fill="white"/>
<path d="M41.5638 38.9414C41.0992 38.9414 40.7275 38.5697 40.7275 38.105V27.0471C40.7275 23.2372 37.6145 20.1242 33.8047 20.1242H26.4636C22.6538 20.1242 19.5408 23.2372 19.5408 27.0471V38.1515C19.5408 38.6161 19.1691 38.9878 18.7045 38.9878C18.2399 38.9878 17.8682 38.6161 17.8682 38.1515V27.0471C17.8682 22.3544 21.6781 18.498 26.4172 18.498H33.8047C38.4973 18.498 42.3537 22.3079 42.3537 27.0471V38.1515C42.3537 38.5697 42.0284 38.9414 41.5638 38.9414Z" fill="white"/>
<path d="M23.2582 38.9418C22.7936 38.9418 22.4219 38.5701 22.4219 38.1054V27.5121C22.4219 27.0475 22.7936 26.6758 23.2582 26.6758C23.7228 26.6758 24.0945 27.0475 24.0945 27.5121V38.1519C24.048 38.5701 23.6764 38.9418 23.2582 38.9418Z" fill="white"/>
<path d="M37.057 38.9418C36.5924 38.9418 36.2207 38.5701 36.2207 38.1054V27.5121C36.2207 27.0475 36.5924 26.6758 37.057 26.6758C37.5216 26.6758 37.8933 27.0475 37.8933 27.5121V38.1519C37.8933 38.5701 37.5216 38.9418 37.057 38.9418Z" fill="white"/>
<path d="M49.6941 50.0463H10.6195C10.1549 50.0463 9.7832 49.6746 9.7832 49.21V38.2914C9.7832 37.8268 10.1549 37.4551 10.6195 37.4551H49.6941C50.1587 37.4551 50.5304 37.8268 50.5304 38.2914V49.2564C50.5304 49.6746 50.1587 50.0463 49.6941 50.0463ZM11.4094 48.4201H48.8578V39.1277H11.4094V48.4201Z" fill="white"/>
<path d="M14.2903 53.995H3.83634C3.55757 53.995 3.2788 53.8556 3.13941 53.6233C3.00003 53.3909 3.00003 53.0657 3.09295 52.8334L5.69483 47.7226L3.09295 42.6117C2.95356 42.3794 3.00003 42.0542 3.13941 41.8219C3.2788 41.5896 3.55757 41.4502 3.83634 41.4502H10.3875C10.8521 41.4502 11.2238 41.8219 11.2238 42.2865C11.2238 42.7511 10.8521 43.1228 10.3875 43.1228H5.13728L7.321 47.3973C7.46038 47.6296 7.46038 47.9084 7.321 48.1407L5.13728 52.4152H13.454V49.8598C13.454 49.3952 13.8257 49.0235 14.2903 49.0235C14.7549 49.0235 15.1266 49.3952 15.1266 49.8598V53.2516C15.0802 53.6233 14.7085 53.995 14.2903 53.995Z" fill="white"/>
<path d="M56.4778 53.9951H46.0238C45.5592 53.9951 45.1875 53.6234 45.1875 53.1588V49.7671C45.1875 49.3024 45.5592 48.9307 46.0238 48.9307C46.4884 48.9307 46.8601 49.3024 46.8601 49.7671V52.3225H55.1768L52.9931 48.048C52.8537 47.8156 52.8537 47.5369 52.9931 47.3046L55.1768 43.0301H49.9266C49.462 43.0301 49.0903 42.6584 49.0903 42.1937C49.0903 41.7291 49.462 41.3574 49.9266 41.3574H56.4778C56.7565 41.3574 57.0353 41.4968 57.1747 41.7291C57.3141 41.9614 57.3141 42.2867 57.2212 42.519L54.6193 47.6298L57.2212 52.7406C57.3606 52.9729 57.3141 53.2982 57.1747 53.5305C57.0353 53.8093 56.7565 53.9951 56.4778 53.9951Z" fill="white"/>
</g>
<defs>
<clipPath id="clip0_353_3071">
<rect width="54.3141" height="47.9953" fill="white" transform="translate(3 6)"/>
</clipPath>
</defs>
</svg>
