<svg width="20" height="20" viewBox="0 0 20 20" fill="none" xmlns="http://www.w3.org/2000/svg">
<path fill-rule="evenodd" clip-rule="evenodd" d="M10.0001 12.0208L2.43874 19.5824C2.36674 19.6496 2.29467 19.7126 2.2121 19.7668C2.04881 19.8739 1.86374 19.9469 1.67131 19.9801C1.58581 19.9948 1.56381 19.9941 1.47738 20C1.44481 20 1.41231 20 1.37981 20C1.29338 19.9941 1.27138 19.9948 1.18588 19.9801C1.02552 19.9524 0.870238 19.8972 0.728452 19.8175C0.615023 19.7537 0.510451 19.6744 0.418451 19.5824C0.140593 19.3045 -0.0125508 18.9161 0.000806383 18.5234C0.0053064 18.3934 0.0275922 18.2641 0.0669495 18.14C0.116164 17.985 0.192021 17.8386 0.290307 17.709C0.342736 17.6398 0.359308 17.6253 0.418451 17.562L7.97969 10.0004L0.418451 2.43882C0.359308 2.37546 0.342736 2.36103 0.290307 2.29181C0.192021 2.16224 0.116164 2.01587 0.0669495 1.86079C0.00787784 1.67464 -0.0124794 1.47678 0.00752069 1.28248C0.0580209 0.790891 0.368736 0.350658 0.815024 0.138435C0.932524 0.082575 1.0576 0.042859 1.18588 0.0207152C1.34617 -0.00685744 1.51103 -0.00685744 1.67131 0.0207152C1.89588 0.0595026 2.11017 0.152507 2.29174 0.290298C2.36096 0.342729 2.37539 0.359301 2.43874 0.418446L10.0001 7.97999L17.5614 0.418446C17.6247 0.359301 17.6392 0.342729 17.7083 0.290298C17.8379 0.192008 17.9843 0.116148 18.1393 0.0669314C18.3254 0.00785748 18.5234 -0.0125005 18.7176 0.00750032C18.8794 0.0240725 19.0382 0.0685744 19.185 0.138435C19.3025 0.194294 19.4123 0.266297 19.5104 0.351801C19.8828 0.6766 20.0632 1.18434 19.9793 1.67136C19.9406 1.89594 19.8475 2.11023 19.7098 2.29181C19.6574 2.36103 19.6408 2.37546 19.5817 2.43882L12.0203 10.0004L19.5817 17.562C19.6408 17.6253 19.6574 17.6398 19.7098 17.709C19.8081 17.8386 19.8839 17.985 19.9332 18.14C19.9725 18.2641 19.9948 18.3934 19.9992 18.5234C20.0127 18.9161 19.8594 19.3045 19.5817 19.5824C19.4897 19.6744 19.3851 19.7537 19.2717 19.8175C19.1299 19.8972 18.9745 19.9524 18.8142 19.9801C18.7287 19.9948 18.7067 19.9941 18.6203 20C18.5877 20 18.5552 20 18.5227 20C18.4363 19.9941 18.4143 19.9948 18.3288 19.9801C18.1364 19.9469 17.9513 19.8739 17.788 19.7668C17.7054 19.7126 17.6333 19.6496 17.5614 19.5824L10.0001 12.0208Z" fill="#222222"/>
</svg>
