<svg width="38" height="38" viewBox="0 0 38 38" fill="none" xmlns="http://www.w3.org/2000/svg">
<circle cx="19" cy="19" r="19" fill="#F55B63"/>
<path d="M25.666 23.1665H27.3327V24.8332H10.666V23.1665H12.3327V17.3332C12.3327 15.5651 13.0351 13.8694 14.2853 12.6191C15.5355 11.3689 17.2312 10.6665 18.9993 10.6665C20.7675 10.6665 22.4632 11.3689 23.7134 12.6191C24.9636 13.8694 25.666 15.5651 25.666 17.3332V23.1665ZM23.9993 23.1665V17.3332C23.9993 16.0071 23.4726 14.7353 22.5349 13.7976C21.5972 12.86 20.3254 12.3332 18.9993 12.3332C17.6733 12.3332 16.4015 12.86 15.4638 13.7976C14.5261 14.7353 13.9993 16.0071 13.9993 17.3332V23.1665H23.9993ZM16.4993 26.4998H21.4993V28.1665H16.4993V26.4998Z" fill="white"/>
</svg>
