<svg width="592" height="203" viewBox="0 0 592 203" fill="none" xmlns="http://www.w3.org/2000/svg">
<g opacity="0.5">
<path d="M11.4171 117.947L53.8679 75.4965C53.2962 76.0682 52.3757 76.0682 51.8137 75.4965L94.2645 117.947C93.9932 117.676 93.8382 117.308 93.8382 116.92C93.8382 116.533 93.9932 116.164 94.2645 115.893L51.8137 158.344C52.3854 157.772 53.3059 157.772 53.8679 158.344L11.4171 115.893C11.9888 116.455 11.9888 117.376 11.4171 117.947ZM53.8679 160.388L96.3188 117.938C96.5901 117.666 96.7451 117.298 96.7451 116.911C96.7451 116.523 96.5901 116.155 96.3188 115.883L53.8679 73.4326C53.2962 72.8609 52.3757 72.8609 51.8137 73.4326L9.36285 115.883C8.79116 116.455 8.79116 117.376 9.36285 117.938L51.8137 160.388C52.3757 160.96 53.2962 160.96 53.8679 160.388Z" fill="white"/>
<path d="M8.19996 108.112L0.428772 115.883C-0.142924 116.454 -0.142924 117.375 0.428772 117.937L8.19996 125.708C8.77166 126.28 9.69218 126.28 10.2542 125.708C10.8259 125.137 10.8259 124.216 10.2542 123.654L2.483 115.883C3.0547 116.454 3.0547 117.375 2.483 117.937L10.2542 110.166C10.8259 109.594 10.8259 108.674 10.2542 108.112C9.69218 107.55 8.77166 107.55 8.19996 108.112Z" fill="white"/>
<path d="M44.0323 161.552L51.8035 169.323C52.3752 169.894 53.2958 169.894 53.8578 169.323L61.6289 161.552C62.2006 160.98 62.2006 160.059 61.6289 159.497C61.0573 158.926 60.1367 158.926 59.5747 159.497L51.8035 167.268C52.3752 166.697 53.2958 166.697 53.8578 167.268L46.0866 159.497C45.5149 158.926 44.5944 158.926 44.0323 159.497C43.4703 160.069 43.4703 160.98 44.0323 161.552Z" fill="white"/>
<path d="M14.731 105.689L19.7019 100.718C20.2736 100.146 20.2736 99.2258 19.7019 98.6638C19.1302 98.0921 18.2097 98.0921 17.6477 98.6638L12.6768 103.635C12.1051 104.206 12.1051 105.127 12.6768 105.689C13.2485 106.261 14.169 106.261 14.731 105.689Z" fill="white"/>
<path d="M70.4952 152.694L75.7277 147.462C76.2994 146.89 76.2994 145.969 75.7277 145.407C75.156 144.836 74.2355 144.836 73.6735 145.407L68.441 150.64C67.8693 151.212 67.8693 152.132 68.441 152.694C69.0127 153.256 69.9332 153.256 70.4952 152.694Z" fill="white"/>
<path d="M52.8408 119.091C54.0449 119.091 55.021 118.115 55.021 116.911C55.021 115.706 54.0449 114.73 52.8408 114.73C51.6368 114.73 50.6606 115.706 50.6606 116.911C50.6606 118.115 51.6368 119.091 52.8408 119.091Z" fill="white"/>
<path d="M52.8408 140.737C54.0449 140.737 55.021 139.761 55.021 138.557C55.021 137.353 54.0449 136.377 52.8408 136.377C51.6368 136.377 50.6606 137.353 50.6606 138.557C50.6606 139.761 51.6368 140.737 52.8408 140.737Z" fill="white"/>
<path d="M31.2036 119.091C32.4077 119.091 33.3838 118.115 33.3838 116.911C33.3838 115.706 32.4077 114.73 31.2036 114.73C29.9995 114.73 29.0234 115.706 29.0234 116.911C29.0234 118.115 29.9995 119.091 31.2036 119.091Z" fill="white"/>
<path d="M74.4776 119.091C75.6816 119.091 76.6578 118.115 76.6578 116.911C76.6578 115.706 75.6816 114.73 74.4776 114.73C73.2735 114.73 72.2974 115.706 72.2974 116.911C72.2974 118.115 73.2735 119.091 74.4776 119.091Z" fill="white"/>
<path d="M52.8408 97.4534C54.0449 97.4534 55.021 96.4773 55.021 95.2732C55.021 94.0691 54.0449 93.093 52.8408 93.093C51.6368 93.093 50.6606 94.0691 50.6606 95.2732C50.6606 96.4773 51.6368 97.4534 52.8408 97.4534Z" fill="white"/>
<path d="M65.2147 157.375C66.0174 157.375 66.6682 156.724 66.6682 155.921C66.6682 155.119 66.0174 154.468 65.2147 154.468C64.412 154.468 63.7612 155.119 63.7612 155.921C63.7612 156.724 64.412 157.375 65.2147 157.375Z" fill="white"/>
<path d="M65.9512 87.5782V43.7708H125.979V103.799H82.1718" stroke="white" stroke-width="3" stroke-linejoin="round"/>
<path d="M133.721 48.4798V37.4819C133.721 36.6777 133.072 36.0284 132.267 36.0284H121.269C120.465 36.0284 119.816 36.6777 119.816 37.4819C119.816 38.2862 120.465 38.9354 121.269 38.9354H132.267C131.463 38.9354 130.814 38.2862 130.814 37.4819V48.4798C130.814 49.284 131.463 49.9332 132.267 49.9332C133.072 49.9332 133.721 49.284 133.721 48.4798Z" fill="white"/>
<path d="M70.6502 36.0294H59.662C58.8577 36.0294 58.2085 36.6786 58.2085 37.4829V48.4807C58.2085 49.285 58.8577 49.9342 59.662 49.9342C60.4662 49.9342 61.1154 49.285 61.1154 48.4807V37.4829C61.1154 38.2871 60.4662 38.9363 59.662 38.9363H70.6598C71.4641 38.9363 72.1133 38.2871 72.1133 37.4829C72.1036 36.6786 71.4544 36.0294 70.6502 36.0294Z" fill="white"/>
<path d="M121.269 111.541H132.267C133.072 111.541 133.721 110.892 133.721 110.087V99.0895C133.721 98.2852 133.072 97.636 132.267 97.636C131.463 97.636 130.814 98.2852 130.814 99.0895V110.087C130.814 109.283 131.463 108.634 132.267 108.634H121.269C120.465 108.634 119.816 109.283 119.816 110.087C119.816 110.892 120.475 111.541 121.269 111.541Z" fill="white"/>
<path d="M97.5007 72.2494C98.3534 73.1021 98.3534 74.4781 97.5007 75.3308C96.648 76.1835 95.272 76.1835 94.4193 75.3308C93.5666 74.4781 93.5666 73.1021 94.4193 72.2494C95.272 71.3967 96.6576 71.3967 97.5007 72.2494Z" fill="white"/>
<path d="M112.8 87.5487C113.653 88.4014 113.653 89.7773 112.8 90.63C111.948 91.4827 110.572 91.4827 109.719 90.63C108.866 89.7773 108.866 88.4014 109.719 87.5487C110.572 86.696 111.957 86.696 112.8 87.5487Z" fill="white"/>
<path d="M82.2004 56.9483C83.0531 57.801 83.0531 59.177 82.2004 60.0297C81.3477 60.8824 79.9717 60.8824 79.119 60.0297C78.2663 59.177 78.2663 57.801 79.119 56.9483C79.9717 56.0956 81.3574 56.0956 82.2004 56.9483Z" fill="white"/>
<path d="M388.437 109.876H350.54C351.345 109.876 351.994 110.525 351.994 111.329V97.4439C351.994 98.2482 351.345 98.8974 350.54 98.8974H388.437C387.633 98.8974 386.984 98.2482 386.984 97.4439V111.329C386.984 110.525 387.633 109.876 388.437 109.876ZM388.437 95.9904H350.54C349.736 95.9904 349.087 96.6397 349.087 97.4439V111.329C349.087 112.134 349.736 112.783 350.54 112.783H388.437C389.241 112.783 389.89 112.134 389.89 111.329V97.4439C389.89 96.6397 389.232 95.9904 388.437 95.9904Z" fill="white"/>
<path d="M358.059 112.782H380.898C380.094 112.782 379.445 112.133 379.445 111.329V165.058C379.445 164.254 380.094 163.605 380.898 163.605H358.059C358.864 163.605 359.513 164.254 359.513 165.058V111.329C359.513 112.133 358.864 112.782 358.059 112.782ZM358.059 166.512H380.898C381.702 166.512 382.352 165.863 382.352 165.058V111.329C382.352 110.524 381.702 109.875 380.898 109.875H358.059C357.255 109.875 356.606 110.524 356.606 111.329V165.058C356.606 165.863 357.255 166.512 358.059 166.512Z" fill="white"/>
<path d="M380.898 139.652H420.229C419.425 139.652 418.776 139.003 418.776 138.199V165.069C418.776 164.264 419.425 163.615 420.229 163.615H380.898C381.703 163.615 382.352 164.264 382.352 165.069V138.199C382.352 138.994 381.703 139.652 380.898 139.652ZM380.898 166.512H420.229C421.033 166.512 421.682 165.863 421.682 165.059V138.189C421.682 137.385 421.033 136.736 420.229 136.736H380.898C380.094 136.736 379.445 137.385 379.445 138.189V165.059C379.445 165.863 380.104 166.512 380.898 166.512Z" fill="white"/>
<path d="M380.898 125.757H426.062C425.258 125.757 424.609 125.108 424.609 124.304V138.189C424.609 137.385 425.258 136.736 426.062 136.736H380.898C381.703 136.736 382.352 137.385 382.352 138.189V124.304C382.352 125.108 381.703 125.757 380.898 125.757ZM380.898 139.652H426.062C426.867 139.652 427.516 139.003 427.516 138.199V124.313C427.516 123.509 426.867 122.86 426.062 122.86H380.898C380.094 122.86 379.445 123.509 379.445 124.313V138.199C379.445 138.993 380.104 139.652 380.898 139.652Z" fill="white"/>
<path d="M389.832 124.304V128.974C389.832 129.778 390.481 130.428 391.285 130.428C392.09 130.428 392.739 129.778 392.739 128.974V124.304C392.739 123.5 392.09 122.85 391.285 122.85C390.481 122.85 389.832 123.509 389.832 124.304Z" fill="white"/>
<path d="M401.383 124.304V128.974C401.383 129.778 402.032 130.428 402.836 130.428C403.641 130.428 404.29 129.778 404.29 128.974V124.304C404.29 123.5 403.641 122.85 402.836 122.85C402.032 122.85 401.383 123.509 401.383 124.304Z" fill="white"/>
<path d="M412.933 124.304V128.974C412.933 129.778 413.582 130.428 414.386 130.428C415.19 130.428 415.84 129.778 415.84 128.974V124.304C415.84 123.5 415.19 122.85 414.386 122.85C413.582 122.85 412.933 123.509 412.933 124.304Z" fill="white"/>
<path d="M356.48 97.4431V104.449C356.48 105.253 357.129 105.902 357.933 105.902C358.738 105.902 359.387 105.253 359.387 104.449V97.4431C359.387 96.6388 358.738 95.9896 357.933 95.9896C357.129 95.9896 356.48 96.6388 356.48 97.4431Z" fill="white"/>
<path d="M368.03 97.4431V104.449C368.03 105.253 368.679 105.902 369.484 105.902C370.288 105.902 370.937 105.253 370.937 104.449V97.4431C370.937 96.6388 370.288 95.9896 369.484 95.9896C368.679 95.9896 368.03 96.6388 368.03 97.4431Z" fill="white"/>
<path d="M379.581 97.4431V104.449C379.581 105.253 380.23 105.902 381.034 105.902C381.838 105.902 382.487 105.253 382.487 104.449V97.4431C382.487 96.6388 381.838 95.9896 381.034 95.9896C380.23 95.9896 379.581 96.6388 379.581 97.4431Z" fill="white"/>
<path d="M370.937 126.318V120.087C370.937 119.283 370.288 118.634 369.484 118.634C368.679 118.634 368.03 119.283 368.03 120.087V126.318C368.03 127.122 368.679 127.771 369.484 127.771C370.288 127.771 370.937 127.122 370.937 126.318Z" fill="white"/>
<path d="M389.948 151.241V147.345C389.948 146.541 389.299 145.892 388.495 145.892C387.691 145.892 387.042 146.541 387.042 147.345V151.241C387.042 152.045 387.691 152.694 388.495 152.694C389.299 152.694 389.948 152.035 389.948 151.241Z" fill="white"/>
<path d="M397.933 151.241V147.345C397.933 146.541 397.284 145.892 396.48 145.892C395.676 145.892 395.026 146.541 395.026 147.345V151.241C395.026 152.045 395.676 152.694 396.48 152.694C397.284 152.694 397.933 152.035 397.933 151.241Z" fill="white"/>
<path d="M405.917 151.241V147.345C405.917 146.541 405.268 145.892 404.464 145.892C403.659 145.892 403.01 146.541 403.01 147.345V151.241C403.01 152.045 403.659 152.694 404.464 152.694C405.268 152.694 405.917 152.035 405.917 151.241Z" fill="white"/>
<path d="M413.892 151.241V147.345C413.892 146.541 413.243 145.892 412.438 145.892C411.634 145.892 410.985 146.541 410.985 147.345V151.241C410.985 152.045 411.634 152.694 412.438 152.694C413.243 152.694 413.892 152.035 413.892 151.241Z" fill="white"/>
<path d="M352.478 166.511H425.81C426.615 166.511 427.264 165.862 427.264 165.058C427.264 164.253 426.615 163.604 425.81 163.604H352.478C351.674 163.604 351.025 164.253 351.025 165.058C351.025 165.862 351.674 166.511 352.478 166.511Z" fill="white"/>
<path d="M547.536 138.629L566.367 148.38L547.536 158.14V138.629Z" stroke="white" stroke-width="2"/>
<path d="M546.741 136.583L546.744 136.585L547.499 136.976H546.989C546.989 137.137 546.905 137.282 546.777 137.359C546.636 137.443 546.469 137.449 546.322 137.374L546.082 137.84V136.986C546.082 136.825 546.166 136.68 546.294 136.603C546.438 136.517 546.611 136.515 546.741 136.583ZM546.082 157.25V139.502L546.989 139.972V156.78L546.082 157.25ZM546.082 159.786V158.904L546.327 159.375L546.329 159.374C546.33 159.373 546.331 159.373 546.332 159.372C546.463 159.306 546.634 159.307 546.777 159.393C546.905 159.47 546.989 159.615 546.989 159.776H547.537L546.749 160.184C546.749 160.184 546.748 160.184 546.747 160.185C546.6 160.259 546.435 160.253 546.294 160.168C546.166 160.092 546.082 159.946 546.082 159.786ZM566.376 150.02L548.989 159.024V157.997L565.384 149.506L566.376 150.02ZM568.748 148.792L568.174 149.089L568.334 148.782C568.179 148.702 568.087 148.549 568.087 148.381C568.087 148.213 568.179 148.06 568.334 147.979L568.188 147.699L568.748 147.989C568.748 147.989 568.748 147.989 568.749 147.989C568.903 148.07 568.994 148.223 568.994 148.39C568.994 148.558 568.903 148.711 568.748 148.792C568.748 148.792 568.748 148.792 568.748 148.792ZM548.989 137.748L566.358 146.75L565.385 147.254L548.989 138.756V137.748Z" stroke="white" stroke-width="2"/>
<path d="M568.542 146.207L558.79 127.375H578.301L568.542 146.207Z" stroke="white" stroke-width="2"/>
<path d="M568.941 148.172L569.236 148.02L568.942 148.588C568.942 148.588 568.942 148.588 568.942 148.588C568.861 148.743 568.708 148.834 568.541 148.834C568.373 148.834 568.22 148.743 568.139 148.588C568.139 148.588 568.139 148.588 568.139 148.588L567.846 148.021L568.139 148.173C568.22 148.018 568.373 147.927 568.541 147.927C568.707 147.927 568.864 148.025 568.936 148.16C568.937 148.162 568.938 148.164 568.939 148.166L568.941 148.172ZM579.183 128.828L570.176 146.207L569.667 145.224L578.165 128.828H579.183ZM576.949 126.828H560.141L559.672 125.922H577.419L576.949 126.828ZM580.344 126.589L579.946 127.357V126.828C579.785 126.828 579.64 126.744 579.563 126.616C579.478 126.475 579.472 126.309 579.547 126.161L579.082 125.922H579.946C580.094 125.922 580.247 126.005 580.331 126.138C580.413 126.277 580.418 126.441 580.345 126.587C580.344 126.588 580.344 126.588 580.344 126.589ZM557.146 125.922H558.017L557.546 126.166L557.548 126.169C557.548 126.17 557.549 126.171 557.549 126.172C557.616 126.303 557.614 126.474 557.528 126.616C557.452 126.744 557.306 126.828 557.146 126.828V127.358L556.747 126.589C556.747 126.588 556.747 126.588 556.746 126.587C556.672 126.44 556.679 126.274 556.763 126.134C556.84 126.006 556.985 125.922 557.146 125.922ZM566.906 146.206L557.907 128.828H558.925L567.415 145.224L566.906 146.206Z" stroke="white" stroke-width="2"/>
<path d="M570.715 148.38L589.546 138.629V158.14L570.715 148.38Z" stroke="white" stroke-width="2"/>
<path d="M568.748 148.792L568.9 149.085L568.334 148.792C568.333 148.792 568.333 148.792 568.333 148.792C568.178 148.711 568.087 148.558 568.087 148.39C568.087 148.223 568.178 148.07 568.333 147.989C568.333 147.989 568.334 147.989 568.334 147.989L568.901 147.695L568.748 147.989C568.903 148.07 568.994 148.223 568.994 148.39C568.994 148.552 568.9 148.713 568.748 148.792ZM588.093 159.024L570.715 150.025L571.697 149.516L588.093 158.006V159.024ZM590.333 160.184L589.564 159.786H590.093C590.093 159.625 590.177 159.48 590.305 159.403C590.446 159.318 590.613 159.312 590.76 159.387L591 158.921V159.786C591 159.946 590.916 160.092 590.788 160.168C590.647 160.253 590.481 160.259 590.334 160.185C590.334 160.184 590.333 160.184 590.333 160.184ZM591 139.512V157.259L590.093 156.79V139.982L591 139.512ZM591 136.986V137.85L590.76 137.384C590.613 137.459 590.446 137.453 590.305 137.368C590.177 137.292 590.093 137.146 590.093 136.986H589.564L590.333 136.587C590.333 136.587 590.334 136.587 590.335 136.586C590.482 136.512 590.647 136.519 590.788 136.603C590.916 136.68 591 136.825 591 136.986ZM570.715 146.755L588.093 137.748V138.766L571.697 147.264L570.715 146.755Z" stroke="white" stroke-width="2"/>
<path d="M558.79 169.397L568.542 150.556L578.302 169.397H558.79Z" stroke="white" stroke-width="2"/>
<path d="M556.743 170.19L556.745 170.188L557.146 169.414V169.933C557.306 169.933 557.452 170.017 557.528 170.145C557.613 170.286 557.619 170.453 557.544 170.6L558.029 170.85H557.146C556.991 170.85 556.846 170.769 556.76 170.633C556.676 170.49 556.676 170.32 556.743 170.19ZM577.424 170.85H559.667L560.141 169.933H576.949L577.424 170.85ZM579.946 170.85H579.063L579.547 170.6C579.472 170.453 579.478 170.286 579.563 170.145C579.64 170.017 579.785 169.933 579.946 169.933V169.414L580.344 170.182C580.344 170.183 580.344 170.184 580.345 170.184C580.419 170.331 580.413 170.497 580.328 170.638C580.251 170.766 580.106 170.85 579.946 170.85ZM570.174 150.56L579.178 167.933H578.165L569.667 151.537L570.174 150.56ZM568.942 148.184L569.229 148.737L568.942 148.588C568.862 148.743 568.708 148.835 568.541 148.835C568.373 148.835 568.22 148.743 568.139 148.588L567.852 148.737L568.139 148.184C568.139 148.183 568.139 148.183 568.139 148.183C568.22 148.028 568.373 147.937 568.541 147.937C568.708 147.937 568.861 148.028 568.942 148.183C568.942 148.183 568.942 148.183 568.942 148.184ZM557.912 167.933L566.908 150.56L567.415 151.538L558.925 167.933H557.912Z" stroke="white" stroke-width="2"/>
<path d="M450.799 141.657V181.666C450.799 182.47 451.449 183.12 452.253 183.12C453.057 183.12 453.706 182.47 453.706 181.666V141.657C453.706 140.853 453.057 140.204 452.253 140.204C451.458 140.204 450.799 140.863 450.799 141.657Z" fill="white"/>
<path d="M442.301 153.673L453.28 142.694C452.708 143.266 451.788 143.266 451.226 142.694L462.214 153.673C462.786 154.245 463.706 154.245 464.268 153.673C464.84 153.101 464.84 152.181 464.268 151.619L453.28 140.64C452.708 140.068 451.788 140.068 451.226 140.64L440.247 151.619C439.675 152.19 439.675 153.111 440.247 153.673C440.809 154.235 441.73 154.235 442.301 153.673Z" fill="white"/>
<path d="M442.301 164.07L453.28 153.092C452.708 153.664 451.788 153.664 451.226 153.092L462.214 164.07C462.786 164.642 463.706 164.642 464.268 164.07C464.84 163.499 464.84 162.578 464.268 162.016L453.28 151.038C452.708 150.466 451.788 150.466 451.226 151.038L440.247 162.016C439.675 162.588 439.675 163.508 440.247 164.07C440.809 164.632 441.73 164.632 442.301 164.07Z" fill="white"/>
<path d="M442.301 174.466L453.28 163.488C452.708 164.059 451.788 164.059 451.226 163.488L462.214 174.466C462.786 175.038 463.706 175.038 464.268 174.466C464.84 173.894 464.84 172.974 464.268 172.412L453.28 161.433C452.708 160.862 451.788 160.862 451.226 161.433L440.247 172.412C439.675 172.984 439.675 173.904 440.247 174.466C440.809 175.028 441.73 175.028 442.301 174.466Z" fill="white"/>
<path d="M479.627 111.464V151.473C479.627 152.277 480.277 152.926 481.081 152.926C481.885 152.926 482.534 152.277 482.534 151.473V111.464C482.534 110.66 481.885 110.01 481.081 110.01C480.277 110.01 479.627 110.669 479.627 111.464Z" fill="white"/>
<path d="M471.12 123.48L482.099 112.501C481.527 113.073 480.606 113.073 480.044 112.501L491.033 123.48C491.604 124.052 492.525 124.052 493.087 123.48C493.659 122.908 493.659 121.988 493.087 121.426L482.099 110.447C481.527 109.875 480.606 109.875 480.044 110.447L469.066 121.426C468.494 121.997 468.494 122.918 469.066 123.48C469.638 124.052 470.558 124.052 471.12 123.48Z" fill="white"/>
<path d="M471.12 133.875L482.108 122.887C481.536 123.459 480.616 123.459 480.054 122.887L491.042 133.866C491.614 134.437 492.534 134.437 493.096 133.866C493.668 133.294 493.668 132.373 493.096 131.811L482.108 120.833C481.536 120.261 480.616 120.261 480.054 120.833L469.075 131.811C468.504 132.383 468.504 133.304 469.075 133.866C469.637 134.437 470.558 134.437 471.12 133.875Z" fill="white"/>
<path d="M471.12 144.273L482.099 133.294C481.527 133.866 480.606 133.866 480.044 133.294L491.033 144.273C491.604 144.844 492.525 144.844 493.087 144.273C493.659 143.701 493.659 142.78 493.087 142.218L482.099 131.24C481.527 130.668 480.606 130.668 480.044 131.24L469.066 142.218C468.494 142.79 468.494 143.711 469.066 144.273C469.638 144.835 470.558 144.835 471.12 144.273Z" fill="white"/>
<path d="M492.853 201.327C492.853 194.564 487.349 189.06 480.586 189.06C479.782 189.06 479.132 189.709 479.132 190.513C479.132 191.318 479.782 191.967 480.586 191.967C485.75 191.967 489.946 196.162 489.946 201.327C489.946 202.131 490.595 202.781 491.4 202.781C492.204 202.781 492.853 202.131 492.853 201.327Z" fill="white"/>
<path d="M379.444 179.699C379.444 186.462 384.948 191.966 391.711 191.966C392.515 191.966 393.165 191.317 393.165 190.513C393.165 189.709 392.515 189.059 391.711 189.059C386.546 189.059 382.351 184.864 382.351 179.699C382.351 178.895 381.702 178.246 380.897 178.246C380.093 178.246 379.444 178.904 379.444 179.699Z" fill="white"/>
<path d="M400.054 191.967H407.825C408.63 191.967 409.279 191.318 409.279 190.513C409.279 189.709 408.63 189.06 407.825 189.06H400.054C399.25 189.06 398.601 189.709 398.601 190.513C398.601 191.318 399.25 191.967 400.054 191.967Z" fill="white"/>
<path d="M416.159 191.967H423.93C424.734 191.967 425.383 191.318 425.383 190.513C425.383 189.709 424.734 189.06 423.93 189.06H416.159C415.354 189.06 414.705 189.709 414.705 190.513C414.705 191.318 415.354 191.967 416.159 191.967Z" fill="white"/>
<path d="M432.263 191.967H440.034C440.838 191.967 441.487 191.318 441.487 190.513C441.487 189.709 440.838 189.06 440.034 189.06H432.263C431.458 189.06 430.809 189.709 430.809 190.513C430.809 191.318 431.468 191.967 432.263 191.967Z" fill="white"/>
<path d="M448.377 191.967H456.148C456.953 191.967 457.602 191.318 457.602 190.513C457.602 189.709 456.953 189.06 456.148 189.06H448.377C447.573 189.06 446.924 189.709 446.924 190.513C446.924 191.318 447.573 191.967 448.377 191.967Z" fill="white"/>
<path d="M464.481 191.967H472.252C473.057 191.967 473.706 191.318 473.706 190.513C473.706 189.709 473.057 189.06 472.252 189.06H464.481C463.677 189.06 463.028 189.709 463.028 190.513C463.028 191.318 463.677 191.967 464.481 191.967Z" fill="white"/>
<path d="M370.937 57.3377C370.937 50.5742 365.433 45.0705 358.67 45.0705C357.866 45.0705 357.216 45.7197 357.216 46.5239C357.216 47.3282 357.866 47.9774 358.67 47.9774C363.834 47.9774 368.03 52.1731 368.03 57.3377C368.03 58.1419 368.679 58.7912 369.484 58.7912C370.288 58.7912 370.937 58.1419 370.937 57.3377Z" fill="white"/>
<path d="M310.347 47.9769H318.118C318.922 47.9769 319.571 47.3277 319.571 46.5235C319.571 45.7192 318.922 45.07 318.118 45.07H310.347C309.542 45.07 308.893 45.7192 308.893 46.5235C308.893 47.3277 309.542 47.9769 310.347 47.9769Z" fill="white"/>
<path d="M326.451 47.9774H334.222C335.026 47.9774 335.676 47.3282 335.676 46.5239C335.676 45.7197 335.026 45.0705 334.222 45.0705H326.451C325.647 45.0705 324.998 45.7197 324.998 46.5239C324.998 47.3282 325.656 47.9774 326.451 47.9774Z" fill="white"/>
<path d="M342.565 47.9774H350.336C351.141 47.9774 351.79 47.3282 351.79 46.5239C351.79 45.7197 351.141 45.0705 350.336 45.0705H342.565C341.761 45.0705 341.112 45.7197 341.112 46.5239C341.112 47.3282 341.761 47.9774 342.565 47.9774Z" fill="white"/>
<path d="M368.03 65.6801V73.4513C368.03 74.2556 368.679 74.9048 369.483 74.9048C370.287 74.9048 370.937 74.2556 370.937 73.4513V65.6801C370.937 64.8759 370.287 64.2267 369.483 64.2267C368.679 64.2267 368.03 64.8759 368.03 65.6801Z" fill="white"/>
<path d="M368.03 81.7855V89.5567C368.03 90.361 368.679 91.0102 369.483 91.0102C370.287 91.0102 370.937 90.361 370.937 89.5567V81.7855C370.937 80.9813 370.287 80.3321 369.483 80.3321C368.679 80.3321 368.03 80.9813 368.03 81.7855Z" fill="white"/>
<path d="M462.419 112.151H451.073C450.268 112.151 449.619 112.8 449.619 113.604C449.619 114.408 450.268 115.058 451.073 115.058H462.419C463.224 115.058 463.873 114.408 463.873 113.604C463.873 112.8 463.224 112.151 462.419 112.151Z" fill="white"/>
<path d="M432.505 176.9H407.157C406.353 176.9 405.704 177.549 405.704 178.353C405.704 179.158 406.353 179.807 407.157 179.807H432.505C433.31 179.807 433.959 179.158 433.959 178.353C433.959 177.549 433.3 176.9 432.505 176.9Z" fill="white"/>
<path d="M520.974 131.396H503.068C502.263 131.396 501.614 132.045 501.614 132.849C501.614 133.654 502.263 134.303 503.068 134.303H520.974C521.779 134.303 522.428 133.654 522.428 132.849C522.428 132.045 521.779 131.396 520.974 131.396Z" fill="white"/>
<path d="M401.033 176.977C401.789 177.732 401.789 178.963 401.033 179.719C400.277 180.475 399.047 180.475 398.291 179.719C397.535 178.963 397.535 177.732 398.291 176.977C399.047 176.221 400.277 176.221 401.033 176.977Z" fill="white"/>
<path d="M445.162 112.229C445.918 112.985 445.918 114.216 445.162 114.972C444.406 115.727 443.176 115.727 442.42 114.972C441.664 114.216 441.664 112.985 442.42 112.229C443.176 111.474 444.406 111.474 445.162 112.229Z" fill="white"/>
<path d="M474.549 166.512H485.906C486.71 166.512 487.359 165.863 487.359 165.058C487.359 164.254 486.71 163.605 485.906 163.605H474.549C473.745 163.605 473.096 164.254 473.096 165.058C473.096 165.853 473.745 166.512 474.549 166.512Z" fill="white"/>
<path d="M491.807 166.424C491.051 165.668 491.051 164.437 491.807 163.682C492.562 162.926 493.793 162.926 494.549 163.682C495.305 164.437 495.305 165.668 494.549 166.424C493.793 167.189 492.562 167.189 491.807 166.424Z" fill="white"/>
<path d="M529.473 131.473C530.228 132.228 530.228 133.459 529.473 134.215C528.717 134.971 527.486 134.971 526.73 134.215C525.975 133.459 525.975 132.228 526.73 131.473C527.486 130.717 528.717 130.717 529.473 131.473Z" fill="white"/>
<path d="M487.749 2.91211C469.135 2.91211 454 18.0572 454 36.6712V82.5329C454 83.1239 454.359 83.6472 454.901 83.8797C455.444 84.1026 456.074 83.9766 456.481 83.56L464.552 75.4884C464.281 75.7597 463.913 75.9148 463.525 75.9148C463.137 75.9148 462.769 75.7597 462.498 75.4884L470.569 83.56C471.141 84.1317 472.062 84.1317 472.624 83.56L480.695 75.4884C480.124 76.0601 479.203 76.0601 478.641 75.4884L486.713 83.56C487.284 84.1317 488.205 84.1317 488.767 83.56L496.838 75.4884C496.267 76.0601 495.346 76.0601 494.784 75.4884L502.856 83.56C503.427 84.1317 504.348 84.1317 504.91 83.56L512.982 75.4884C512.41 76.0601 511.489 76.0601 510.927 75.4884L518.999 83.56C519.416 83.9766 520.036 84.1026 520.578 83.8797C521.121 83.6569 521.48 83.1239 521.48 82.5329V36.6712C521.499 18.0572 506.363 2.91211 487.749 2.91211ZM518.592 36.6712V82.5329C518.592 81.9418 518.95 81.4185 519.493 81.186C520.036 80.9631 520.666 81.0891 521.072 81.5058L513.001 73.4342C512.429 72.8625 511.509 72.8625 510.947 73.4342L502.875 81.5058C503.447 80.9341 504.367 80.9341 504.929 81.5058L496.858 73.4342C496.286 72.8625 495.366 72.8625 494.804 73.4342L486.732 81.5058C487.304 80.9341 488.224 80.9341 488.786 81.5058L480.715 73.4342C480.143 72.8625 479.222 72.8625 478.66 73.4342L470.589 81.5058C471.161 80.9341 472.081 80.9341 472.643 81.5058L464.572 73.4342C464.3 73.1629 463.932 73.0078 463.544 73.0078C463.157 73.0078 462.789 73.1629 462.517 73.4342L454.446 81.5058C454.862 81.0891 455.483 80.9631 456.025 81.186C456.568 81.4089 456.926 81.9418 456.926 82.5329V36.6712C456.897 19.656 470.734 5.81904 487.749 5.81904C504.755 5.81904 518.592 19.656 518.592 36.6712Z" fill="white"/>
<path d="M545.68 53.2988C535.523 53.2988 527.264 61.625 527.264 71.8583V97.0713C527.264 97.3963 527.46 97.6839 527.756 97.8118C528.052 97.9343 528.396 97.8651 528.618 97.636L533.022 93.1986C532.874 93.3477 532.673 93.4329 532.462 93.4329C532.25 93.4329 532.049 93.3477 531.901 93.1986L536.306 97.636C536.617 97.9503 537.12 97.9503 537.426 97.636L541.831 93.1986C541.519 93.5129 541.017 93.5129 540.71 93.1986L545.114 97.636C545.426 97.9503 545.928 97.9503 546.235 97.636L550.64 93.1986C550.328 93.5129 549.825 93.5129 549.519 93.1986L553.923 97.636C554.235 97.9503 554.737 97.9503 555.044 97.636L559.448 93.1986C559.136 93.5129 558.634 93.5129 558.327 93.1986L562.732 97.636C562.959 97.8651 563.297 97.9343 563.593 97.8118C563.89 97.6893 564.085 97.3963 564.085 97.0713V71.8583C564.096 61.625 555.837 53.2988 545.68 53.2988ZM562.51 71.8583V97.0713C562.51 96.7464 562.705 96.4587 563.001 96.3309C563.297 96.2084 563.641 96.2776 563.863 96.5067L559.459 92.0692C559.147 91.7549 558.645 91.7549 558.338 92.0692L553.934 96.5067C554.245 96.1924 554.748 96.1924 555.054 96.5067L550.65 92.0692C550.338 91.7549 549.836 91.7549 549.529 92.0692L545.125 96.5067C545.437 96.1924 545.939 96.1924 546.246 96.5067L541.841 92.0692C541.529 91.7549 541.027 91.7549 540.72 92.0692L536.316 96.5067C536.628 96.1924 537.13 96.1924 537.437 96.5067L533.033 92.0692C532.885 91.9201 532.684 91.8348 532.472 91.8348C532.261 91.8348 532.06 91.9201 531.912 92.0692L527.507 96.5067C527.735 96.2776 528.073 96.2084 528.369 96.3309C528.665 96.4534 528.861 96.7464 528.861 97.0713V71.8583C528.845 62.504 536.395 54.8969 545.68 54.8969C554.959 54.8969 562.51 62.504 562.51 71.8583Z" fill="white" stroke="white"/>
<path d="M479.222 65.2555C481.306 62.6393 484.406 61.1374 487.749 61.1374C490.482 61.1374 493.098 62.1548 495.104 64.0056C495.695 64.5482 496.615 64.5094 497.158 63.9184C497.701 63.3273 497.662 62.4068 497.071 61.8641C494.522 59.5192 491.208 58.2305 487.749 58.2305C483.515 58.2305 479.581 60.1297 476.945 63.4532C476.451 64.0831 476.548 64.9939 477.178 65.4978C477.807 65.9823 478.718 65.8854 479.222 65.2555Z" fill="white"/>
<path d="M541.182 87.8318C542.244 86.1582 543.824 85.1974 545.528 85.1974C546.921 85.1974 548.255 85.8483 549.277 87.0322C549.579 87.3793 550.048 87.3545 550.324 86.9764C550.601 86.5983 550.581 86.0094 550.28 85.6623C548.981 84.1623 547.292 83.3379 545.528 83.3379C543.37 83.3379 541.365 84.5528 540.021 86.6789C539.769 87.0818 539.819 87.6644 540.14 87.9868C540.461 88.2967 540.925 88.2347 541.182 87.8318Z" fill="white" stroke="white"/>
<path d="M472.991 51.0903C472.991 49.1426 474.571 47.5632 476.518 47.5632C478.466 47.5632 480.046 49.1426 480.046 51.0903C480.046 53.0379 478.466 54.6173 476.518 54.6173C474.571 54.6173 472.991 53.0379 472.991 51.0903ZM476.518 57.5243C480.065 57.5243 482.952 54.6367 482.952 51.0903C482.952 47.5438 480.065 44.6562 476.518 44.6562C472.972 44.6562 470.084 47.5438 470.084 51.0903C470.084 54.6367 472.972 57.5243 476.518 57.5243Z" fill="white"/>
<path d="M537.518 79.9461C537.518 78.9195 538.35 78.087 539.377 78.087C540.403 78.087 541.236 78.9195 541.236 79.9461C541.236 80.9727 540.403 81.8053 539.377 81.8053C538.35 81.8053 537.518 80.9727 537.518 79.9461ZM539.377 83.3375C541.246 83.3375 542.768 81.8155 542.768 79.9461C542.768 78.0767 541.246 76.5547 539.377 76.5547C537.507 76.5547 535.985 78.0767 535.985 79.9461C535.985 81.8155 537.507 83.3375 539.377 83.3375Z" fill="white" stroke="white"/>
<path d="M505.404 51.0903C505.404 47.5438 502.516 44.6562 498.97 44.6562C495.423 44.6562 492.536 47.5438 492.536 51.0903C492.536 54.6367 495.423 57.5243 498.97 57.5243C502.516 57.5243 505.404 54.6367 505.404 51.0903ZM498.97 54.6173C497.022 54.6173 495.443 53.0379 495.443 51.0903C495.443 49.1426 497.022 47.5632 498.97 47.5632C500.908 47.5632 502.497 49.1426 502.497 51.0903C502.497 53.0379 500.917 54.6173 498.97 54.6173Z" fill="white"/>
<path d="M555.365 79.9461C555.365 78.0767 553.843 76.5547 551.973 76.5547C550.104 76.5547 548.582 78.0767 548.582 79.9461C548.582 81.8155 550.104 83.3375 551.973 83.3375C553.843 83.3375 555.365 81.8155 555.365 79.9461ZM551.973 81.8053C550.947 81.8053 550.114 80.9727 550.114 79.9461C550.114 78.9195 550.947 78.087 551.973 78.087C552.995 78.087 553.833 78.9195 553.833 79.9461C553.833 80.9727 553 81.8053 551.973 81.8053Z" fill="white" stroke="white"/>
<path d="M245.92 105.311C250.029 101.202 250.029 94.5163 245.92 90.3982C242.945 87.4234 242.945 82.5786 245.92 79.5941C247.906 77.6077 249.001 74.9624 249.001 72.1427C249.001 69.323 247.906 66.6777 245.91 64.6913C242.936 61.7165 242.936 56.8716 245.91 53.8969C250.019 49.7884 250.019 43.1025 245.91 38.9843C242.936 36.0096 242.936 31.1647 245.91 28.1802C247.897 26.1938 248.992 23.5485 248.992 20.7288C248.992 17.9091 247.897 15.2638 245.901 13.2774C242.926 10.3026 242.926 5.45776 245.901 2.483C246.472 1.9113 246.472 0.990778 245.901 0.428772C245.329 -0.142924 244.408 -0.142924 243.846 0.428772C239.738 4.53723 239.738 11.2232 243.846 15.3413C245.29 16.7851 246.085 18.7037 246.085 20.7385C246.085 22.7734 245.29 24.6919 243.846 26.1357C239.738 30.2539 239.738 36.9398 243.846 41.0482C246.821 44.0327 246.821 48.8776 243.846 51.8523C239.738 55.9608 239.738 62.6467 243.846 66.7649C245.29 68.2086 246.085 70.1272 246.085 72.1621C246.085 74.1969 245.29 76.1155 243.846 77.5593C239.738 81.6774 239.738 88.3633 243.846 92.4718C246.821 95.4563 246.821 100.301 243.846 103.276C243.275 103.848 243.275 104.768 243.846 105.33C244.438 105.873 245.358 105.873 245.92 105.311Z" fill="white"/>
<path d="M224.176 132.936C224.176 129.767 226.753 127.2 229.912 127.2C233.081 127.2 235.649 129.777 235.649 132.936C235.649 136.105 233.071 138.672 229.912 138.672C226.753 138.682 224.176 136.105 224.176 132.936ZM229.912 141.589C234.68 141.589 238.556 137.713 238.556 132.946C238.556 128.178 234.68 124.302 229.912 124.302C225.145 124.302 221.269 128.178 221.269 132.946C221.269 137.703 225.145 141.589 229.912 141.589Z" fill="white"/>
<path d="M216.589 138.682C205.456 138.682 196.396 129.622 196.396 118.489C196.396 107.355 205.456 98.2952 216.589 98.2952C224.719 98.2952 232.025 103.14 235.194 110.63C235.504 111.367 236.356 111.716 237.102 111.405C237.839 111.095 238.188 110.243 237.878 109.497C234.254 100.931 225.901 95.3883 216.599 95.3883C203.867 95.3883 193.499 105.747 193.499 118.489C193.499 131.221 203.857 141.589 216.599 141.589C217.403 141.589 218.052 140.94 218.052 140.136C218.043 139.331 217.393 138.682 216.589 138.682Z" fill="white"/>
<path d="M254.214 132.936C254.214 129.767 256.792 127.2 259.95 127.2C263.119 127.2 265.687 129.777 265.687 132.936C265.687 136.105 263.109 138.672 259.95 138.672C256.792 138.682 254.214 136.105 254.214 132.936ZM259.95 141.589C264.718 141.589 268.594 137.713 268.594 132.946C268.594 128.178 264.718 124.302 259.95 124.302C255.183 124.302 251.307 128.178 251.307 132.946C251.307 137.703 255.183 141.589 259.95 141.589Z" fill="white"/>
<path d="M229.913 141.589H259.951C260.755 141.589 261.405 140.94 261.405 140.135C261.405 139.331 260.755 138.682 259.951 138.682H229.913C229.109 138.682 228.459 139.331 228.459 140.135C228.459 140.93 229.109 141.589 229.913 141.589Z" fill="white"/>
<path d="M197.374 130.204C197.287 130.437 188.799 153.121 186.396 160.078C184.923 164.361 186.483 169.351 190.049 171.686C191.88 172.888 196.871 174.991 203.779 168.653C214.593 158.721 230.833 141.299 230.988 141.125C231.531 140.534 231.502 139.623 230.911 139.071C230.32 138.528 229.399 138.557 228.856 139.148C228.692 139.323 212.539 156.657 201.803 166.512C198.004 170 194.293 170.998 191.638 169.254C189.196 167.655 188.101 164.041 189.148 161.028C191.541 154.099 200.02 131.445 200.097 131.222C200.378 130.466 200 129.633 199.244 129.352C198.489 129.071 197.655 129.449 197.374 130.204Z" fill="white"/>
<path d="M210.649 98.1402V90.0589C210.649 90.8632 210 91.5124 209.196 91.5124H224.583C223.779 91.5124 223.13 90.8632 223.13 90.0589V98.3727C223.13 99.177 223.779 99.8262 224.583 99.8262C225.387 99.8262 226.036 99.177 226.036 98.3727V90.0589C226.036 89.2547 225.387 88.6055 224.583 88.6055H209.196C208.391 88.6055 207.742 89.2547 207.742 90.0589V98.1402C207.742 98.9445 208.391 99.5937 209.196 99.5937C210 99.5937 210.649 98.9445 210.649 98.1402Z" fill="white"/>
<path d="M273.274 141.589C286.007 141.589 296.375 131.231 296.375 118.489C296.375 105.756 286.016 95.3883 273.274 95.3883C263.972 95.3883 255.619 100.921 251.995 109.497C251.685 110.233 252.025 111.086 252.771 111.405C253.507 111.716 254.36 111.376 254.68 110.63C257.848 103.14 265.154 98.2952 273.284 98.2952C284.417 98.2952 293.477 107.355 293.477 118.489C293.477 129.622 284.417 138.682 273.284 138.682C272.48 138.682 271.83 139.331 271.83 140.136C271.821 140.93 272.47 141.589 273.274 141.589Z" fill="white"/>
<path d="M289.776 131.222C289.863 131.454 298.342 154.099 300.725 161.028C301.762 164.041 300.667 167.655 298.235 169.254C295.57 170.998 291.869 170 288.07 166.512C277.334 156.657 261.181 139.323 261.017 139.148C260.474 138.557 259.553 138.528 258.962 139.071C258.371 139.613 258.342 140.534 258.885 141.125C259.05 141.299 275.28 158.721 286.094 168.653C292.993 174.991 297.993 172.888 299.824 171.686C303.38 169.351 304.95 164.361 303.477 160.078C301.074 153.111 292.586 130.427 292.499 130.204C292.218 129.449 291.384 129.071 290.629 129.352C289.873 129.633 289.495 130.466 289.776 131.222Z" fill="white"/>
<path d="M282.131 98.1402V90.0589C282.131 89.2547 281.481 88.6055 280.677 88.6055H265.29C264.486 88.6055 263.836 89.2547 263.836 90.0589V98.3727C263.836 99.177 264.486 99.8262 265.29 99.8262C266.094 99.8262 266.743 99.177 266.743 98.3727V90.0589C266.743 90.8632 266.094 91.5124 265.29 91.5124H280.677C279.873 91.5124 279.224 90.8632 279.224 90.0589V98.1402C279.224 98.9445 279.873 99.5937 280.677 99.5937C281.481 99.5937 282.131 98.9445 282.131 98.1402Z" fill="white"/>
<path d="M214.283 111.299V125.969C214.283 126.773 214.932 127.423 215.736 127.423C216.54 127.423 217.19 126.773 217.19 125.969V111.299C217.19 110.495 216.54 109.845 215.736 109.845C214.942 109.845 214.283 110.495 214.283 111.299Z" fill="white"/>
<path d="M223.072 117.181H208.401C207.597 117.181 206.948 117.83 206.948 118.634C206.948 119.439 207.597 120.088 208.401 120.088H223.072C223.876 120.088 224.525 119.439 224.525 118.634C224.525 117.83 223.876 117.181 223.072 117.181Z" fill="white"/>
<path d="M232.907 105.737H256.966C257.771 105.737 258.42 105.087 258.42 104.283C258.42 103.479 257.771 102.83 256.966 102.83H232.907C232.102 102.83 231.453 103.479 231.453 104.283C231.453 105.078 232.102 105.737 232.907 105.737Z" fill="white"/>
<path d="M273.274 107.743C274.311 107.743 275.145 108.576 275.145 109.613C275.145 110.65 274.311 111.483 273.274 111.483C272.247 111.483 271.404 110.65 271.404 109.613C271.404 108.586 272.247 107.743 273.274 107.743Z" fill="white"/>
<path d="M282.15 116.619C283.187 116.619 284.021 117.452 284.021 118.489C284.021 119.526 283.187 120.359 282.15 120.359C281.123 120.359 280.28 119.526 280.28 118.489C280.28 117.452 281.114 116.619 282.15 116.619Z" fill="white"/>
<path d="M273.274 125.485C274.311 125.485 275.145 126.319 275.145 127.355C275.145 128.392 274.311 129.225 273.274 129.225C272.247 129.225 271.404 128.392 271.404 127.355C271.404 126.328 272.247 125.485 273.274 125.485Z" fill="white"/>
<path d="M264.408 116.619C265.445 116.619 266.278 117.452 266.278 118.489C266.278 119.526 265.445 120.359 264.408 120.359C263.381 120.359 262.538 119.526 262.538 118.489C262.538 117.452 263.381 116.619 264.408 116.619Z" fill="white"/>
<path d="M238.74 125.417H242.616C243.42 125.417 244.069 124.768 244.069 123.964C244.069 123.159 243.42 122.51 242.616 122.51H238.74C237.936 122.51 237.287 123.159 237.287 123.964C237.287 124.768 237.936 125.417 238.74 125.417Z" fill="white"/>
<path d="M242.616 118.305H247.945C248.75 118.305 249.399 117.656 249.399 116.852C249.399 116.047 248.75 115.398 247.945 115.398H242.616C241.812 115.398 241.163 116.047 241.163 116.852C241.163 117.656 241.812 118.305 242.616 118.305Z" fill="white"/>
<path d="M247.945 125.417H251.821C252.625 125.417 253.275 124.768 253.275 123.964C253.275 123.159 252.625 122.51 251.821 122.51H247.945C247.141 122.51 246.492 123.159 246.492 123.964C246.492 124.768 247.141 125.417 247.945 125.417Z" fill="white"/>
<path d="M188.188 122.966C189.041 118.78 190.892 114.778 193.518 111.397C194.012 110.767 193.895 109.846 193.266 109.362C192.636 108.868 191.715 108.984 191.221 109.614C188.314 113.354 186.279 117.763 185.339 122.385C185.175 123.17 185.688 123.935 186.473 124.1C187.258 124.255 188.033 123.751 188.188 122.966Z" fill="white"/>
<path d="M181.425 136.92C180.775 134.226 180.446 131.435 180.446 128.625C180.446 120.35 183.363 112.308 188.673 105.971C189.186 105.36 189.109 104.44 188.488 103.926C187.868 103.413 186.958 103.49 186.444 104.11C180.698 110.961 177.539 119.672 177.539 128.625C177.539 131.658 177.898 134.681 178.595 137.598C178.779 138.373 179.564 138.858 180.349 138.674C181.134 138.489 181.609 137.705 181.425 136.92Z" fill="white"/>
<path d="M176.609 112.103C179.341 105.65 183.682 99.904 189.176 95.4952C189.806 94.9913 189.903 94.0805 189.399 93.4506C188.895 92.8208 187.985 92.7239 187.355 93.2278C181.492 97.937 176.841 104.071 173.925 110.97C173.615 111.706 173.954 112.559 174.7 112.879C175.436 113.189 176.289 112.84 176.609 112.103Z" fill="white"/>
<path d="M305.037 129.574C305.192 124.865 304.233 120.098 302.275 115.786C301.946 115.059 301.083 114.729 300.347 115.069C299.62 115.398 299.291 116.26 299.62 116.997C301.393 120.902 302.256 125.223 302.12 129.487C302.091 130.291 302.721 130.96 303.525 130.989C304.339 131.008 305.017 130.378 305.037 129.574Z" fill="white"/>
<path d="M308.07 145.95C309.436 143.266 310.482 140.417 311.18 137.471C313.254 128.76 312.198 119.555 308.205 111.561C307.847 110.844 306.975 110.553 306.258 110.911C305.541 111.27 305.25 112.142 305.609 112.859C309.3 120.252 310.279 128.75 308.36 136.802C307.711 139.525 306.742 142.171 305.483 144.641C305.114 145.359 305.405 146.231 306.122 146.599C306.829 146.948 307.711 146.667 308.07 145.95Z" fill="white"/>
<path d="M318.787 121.115C317.546 113.731 314.455 106.687 309.843 100.747C309.349 100.117 308.438 100.001 307.798 100.495C307.169 100.989 307.052 101.9 307.547 102.53C311.868 108.092 314.765 114.681 315.918 121.599C316.054 122.394 316.8 122.927 317.595 122.791C318.389 122.665 318.922 121.909 318.787 121.115Z" fill="white"/>
<path d="M437.825 62.415H398.698C397.893 62.415 397.244 63.0643 397.244 63.8685C397.244 64.6728 397.893 65.322 398.698 65.322H437.825C438.629 65.322 439.278 64.6728 439.278 63.8685C439.278 63.0739 438.629 62.415 437.825 62.415Z" fill="white"/>
<path d="M411.895 76.0962H381.092C380.287 76.0962 379.638 76.7454 379.638 77.5496C379.638 78.3539 380.287 79.0031 381.092 79.0031H411.895C412.7 79.0031 413.349 78.3539 413.349 77.5496C413.349 76.7454 412.69 76.0962 411.895 76.0962Z" fill="white"/>
<path d="M140.572 145.359V149.642C140.572 150.446 141.221 151.095 142.025 151.095C142.829 151.095 143.479 150.446 143.479 149.642V145.359C143.479 144.555 142.829 143.906 142.025 143.906C141.221 143.906 140.572 144.555 140.572 145.359Z" fill="white"/>
<path d="M137.82 152.384H133.537C132.733 152.384 132.083 153.033 132.083 153.838C132.083 154.642 132.733 155.291 133.537 155.291H137.82C138.624 155.291 139.273 154.642 139.273 153.838C139.273 153.033 138.624 152.384 137.82 152.384Z" fill="white"/>
<path d="M143.479 162.316V158.033C143.479 157.229 142.829 156.58 142.025 156.58C141.221 156.58 140.572 157.229 140.572 158.033V162.316C140.572 163.12 141.221 163.77 142.025 163.77C142.829 163.77 143.479 163.12 143.479 162.316Z" fill="white"/>
<path d="M146.221 155.291H150.503C151.308 155.291 151.957 154.642 151.957 153.838C151.957 153.033 151.308 152.384 150.503 152.384H146.221C145.416 152.384 144.767 153.033 144.767 153.838C144.767 154.642 145.416 155.291 146.221 155.291Z" fill="white"/>
<path d="M294.408 67.8894C295.813 69.2944 297.673 70.0696 299.659 70.0696C301.646 70.0696 303.506 69.2944 304.911 67.8894C306.675 66.1258 309.543 66.1258 311.306 67.8894C311.878 68.4514 312.799 68.4514 313.361 67.8894C313.932 67.3177 313.932 66.3972 313.361 65.8352C310.463 62.9379 305.754 62.9379 302.847 65.8352C301.995 66.6879 300.861 67.1627 299.65 67.1627C298.438 67.1627 297.305 66.6879 296.452 65.8352C295.88 65.2635 294.96 65.2635 294.398 65.8352C293.836 66.3972 293.836 67.3177 294.408 67.8894Z" fill="white"/>
</g>
</svg>
