<svg width="671" height="203" viewBox="0 0 671 203" fill="none" xmlns="http://www.w3.org/2000/svg">
<g opacity="0.5">
<path d="M608.245 182.557H649.373C650.039 182.557 650.628 182.081 650.761 181.435L656.373 155.735C656.468 155.316 656.354 154.879 656.088 154.536C655.821 154.194 655.403 154.004 654.984 154.004H602.634C602.196 154.004 601.797 154.194 601.53 154.536C601.264 154.879 601.15 155.316 601.245 155.735L606.857 181.435C606.99 182.081 607.579 182.557 608.245 182.557ZM648.212 179.704H609.387L604.384 156.857H653.196L648.212 179.704Z" fill="white"/>
<path d="M615.701 197.811H640.069C640.849 197.811 641.496 197.164 641.496 196.385C641.496 195.605 640.849 194.958 640.069 194.958H615.701C614.921 194.958 614.274 195.605 614.274 196.385C614.274 197.183 614.921 197.811 615.701 197.811Z" fill="white"/>
<path d="M646.822 192.717C647.468 192.717 648.058 192.279 648.21 191.613L657.551 151.095H668.793C669.573 151.095 670.22 150.448 670.22 149.668C670.22 148.888 669.573 148.241 668.793 148.241H656.428C655.762 148.241 655.192 148.698 655.039 149.345L645.433 190.967C645.262 191.727 645.737 192.507 646.498 192.679C646.612 192.698 646.727 192.717 646.822 192.717Z" fill="white"/>
<path d="M644.976 202.246C648.495 202.246 651.349 199.374 651.349 195.855C651.349 193.23 649.789 190.909 647.354 189.939C646.65 189.634 645.832 189.482 644.976 189.482C641.457 189.482 638.603 192.336 638.603 195.855C638.603 196.083 638.622 196.311 638.641 196.521C639.003 199.793 641.723 202.246 644.976 202.246ZM644.976 192.336C645.452 192.336 645.87 192.412 646.251 192.583C647.601 193.115 648.495 194.428 648.495 195.855C648.495 197.795 646.916 199.393 644.976 199.393C643.188 199.393 641.685 198.042 641.476 196.235C641.457 196.14 641.457 195.988 641.457 195.855C641.457 193.914 643.036 192.336 644.976 192.336Z" fill="white"/>
<path d="M610.375 202.246C613.895 202.246 616.748 199.374 616.748 195.855C616.748 193.23 615.188 190.909 612.753 189.939C612.049 189.634 611.231 189.482 610.375 189.482C606.856 189.482 604.003 192.336 604.003 195.855C604.003 196.083 604.022 196.311 604.041 196.521C604.402 199.793 607.122 202.246 610.375 202.246ZM610.375 192.336C610.851 192.336 611.269 192.412 611.65 192.583C613.001 193.115 613.895 194.428 613.895 195.855C613.895 197.795 612.316 199.393 610.375 199.393C608.587 199.393 607.084 198.042 606.875 196.235C606.856 196.14 606.856 195.988 606.856 195.855C606.856 193.914 608.435 192.336 610.375 192.336Z" fill="white"/>
<path d="M617.015 156.858H641.479C642.258 156.858 642.905 156.212 642.905 155.432V146.814C642.905 146.034 642.258 145.388 641.479 145.388H617.015C616.235 145.388 615.588 146.034 615.588 146.814V155.432C615.588 156.212 616.235 156.858 617.015 156.858ZM640.052 154.005H618.461V148.241H640.052V154.005Z" fill="white"/>
<path d="M611.973 148.239H646.537C647.317 148.239 647.964 147.592 647.964 146.812V139.926C647.964 139.146 647.317 138.499 646.537 138.499H611.973C611.193 138.499 610.546 139.146 610.546 139.926V146.812C610.527 147.592 611.174 148.239 611.973 148.239ZM645.11 145.366H613.399V141.333H645.11V145.366Z" fill="white"/>
<path d="M629.245 156.361C630.025 156.361 630.672 155.714 630.672 154.934V139.906C630.672 139.126 630.025 138.48 629.245 138.48C628.465 138.48 627.818 139.126 627.818 139.906V154.934C627.818 155.714 628.465 156.361 629.245 156.361Z" fill="white"/>
<path d="M629.244 141.335C629.625 141.335 629.986 141.182 630.253 140.916C630.557 140.612 630.709 140.212 630.671 139.794C630.614 138.995 629.91 131.956 626.315 129.16C625.078 128.209 623.614 127.847 622.073 128.095C619.714 128.494 617.812 130.396 617.412 132.755C617.146 134.296 617.526 135.761 618.477 136.997C621.274 140.593 628.331 141.277 629.111 141.354C629.168 141.335 629.206 141.335 629.244 141.335ZM623.043 130.853C623.595 130.853 624.089 131.024 624.565 131.405C626.239 132.717 627.171 135.951 627.57 138.234C625.288 137.815 622.035 136.902 620.741 135.228C620.266 134.619 620.113 133.992 620.246 133.212C620.437 132.07 621.407 131.081 622.567 130.891C622.719 130.872 622.891 130.853 623.043 130.853Z" fill="white"/>
<path d="M629.244 141.334C629.282 141.334 629.32 141.334 629.358 141.334C630.157 141.277 637.195 140.574 639.991 136.978C640.943 135.742 641.323 134.277 641.057 132.736C640.657 130.377 638.755 128.475 636.396 128.076C634.855 127.828 633.39 128.19 632.154 129.141C628.559 131.937 627.874 138.995 627.798 139.775C627.76 140.193 627.912 140.612 628.216 140.897C628.502 141.182 628.863 141.334 629.244 141.334ZM635.445 130.853C635.597 130.853 635.768 130.872 635.94 130.891C637.081 131.081 638.07 132.051 638.26 133.212C638.394 133.973 638.222 134.619 637.766 135.228C636.453 136.921 633.2 137.834 630.937 138.234C631.355 135.951 632.268 132.698 633.942 131.385C634.399 131.043 634.893 130.853 635.445 130.853Z" fill="white"/>
</g>
<g opacity="0.5">
<path d="M270.556 187.814H258.766C257.154 187.814 255.818 186.517 255.818 184.867C255.779 179.836 251.691 175.748 246.7 175.748C241.708 175.748 237.621 179.836 237.581 184.867C237.581 186.478 236.245 187.814 234.634 187.814H170.806C169.194 187.814 167.858 186.517 167.858 184.867C167.819 179.836 163.731 175.748 158.7 175.748C153.709 175.748 149.621 179.836 149.582 184.867C149.582 186.478 148.246 187.814 146.634 187.814H128.948C127.336 187.814 126 186.478 126 184.867V160.813C126 159.202 127.336 157.865 128.948 157.865H220.838V121.235C220.838 119.624 222.175 118.287 223.786 118.287H248.586C249.411 118.287 250.198 118.641 250.748 119.231L272.679 142.616C273.19 143.166 273.465 143.874 273.465 144.62V184.906C273.504 186.478 272.207 187.814 270.556 187.814ZM261.399 181.919H267.609V145.76L247.329 124.143H226.734V160.774C226.734 162.385 225.397 163.722 223.786 163.722H131.895V181.88H144.001C145.376 175.002 151.468 169.814 158.7 169.814C165.971 169.814 172.063 175.002 173.439 181.88H231.961C233.337 175.002 239.429 169.814 246.66 169.814C253.931 169.853 260.023 175.041 261.399 181.919Z" fill="white"/>
<path d="M158.738 199.879C150.603 199.879 143.882 193.276 143.725 185.14C143.764 176.612 150.485 169.852 158.738 169.852C166.992 169.852 173.752 176.572 173.791 184.865V185.062C173.634 193.237 166.874 199.879 158.738 199.879ZM158.738 175.747C153.747 175.747 149.659 179.835 149.62 184.865C149.699 189.935 153.786 193.984 158.738 193.984C163.691 193.984 167.778 189.975 167.896 185.023L170.844 184.865H167.896C167.857 179.835 163.769 175.747 158.738 175.747Z" fill="white"/>
<path d="M246.702 199.879C238.527 199.879 231.806 193.237 231.688 185.101C231.728 176.572 238.449 169.852 246.702 169.852C254.956 169.852 261.677 176.572 261.716 184.865V185.062C261.598 193.237 254.877 199.879 246.702 199.879ZM246.702 175.747C241.711 175.747 237.623 179.835 237.584 184.865C237.663 189.935 241.75 193.984 246.702 193.984C251.654 193.984 255.742 189.975 255.82 185.023L258.768 184.865H255.82C255.781 179.835 251.694 175.747 246.702 175.747Z" fill="white"/>
<path d="M252.279 149.492H239.742C238.13 149.492 236.794 148.155 236.794 146.544V136.718C236.794 135.107 238.13 133.77 239.742 133.77C241.353 133.77 242.689 135.107 242.689 136.718V143.596H252.279C253.891 143.596 255.227 144.932 255.227 146.544C255.227 148.195 253.891 149.492 252.279 149.492Z" fill="white"/>
<path d="M128.987 163.72C127.375 163.72 126.039 162.383 126.039 160.772V97.887C126.039 91.8736 130.913 87 136.926 87H215.925C221.938 87 226.812 91.8736 226.812 97.887V121.194C226.812 122.805 225.476 124.141 223.864 124.141C222.253 124.141 220.917 122.805 220.917 121.194V97.887C220.917 95.1357 218.676 92.8955 215.925 92.8955H136.926C134.175 92.8955 131.935 95.1357 131.935 97.887V160.811C131.935 162.422 130.598 163.72 128.987 163.72Z" fill="white"/>
<path d="M206.646 111.412H146.12C144.508 111.412 143.172 110.076 143.172 108.464C143.172 106.853 144.508 105.516 146.12 105.516H206.646C208.258 105.516 209.594 106.853 209.594 108.464C209.594 110.076 208.258 111.412 206.646 111.412Z" fill="white"/>
<path d="M206.646 128.308H146.12C144.508 128.308 143.172 126.971 143.172 125.36C143.172 123.748 144.508 122.412 146.12 122.412H206.646C208.258 122.412 209.594 123.748 209.594 125.36C209.594 127.011 208.258 128.308 206.646 128.308Z" fill="white"/>
<path d="M206.646 145.249H146.12C144.508 145.249 143.172 143.912 143.172 142.301C143.172 140.69 144.508 139.353 146.12 139.353H206.646C208.258 139.353 209.594 140.69 209.594 142.301C209.594 143.912 208.258 145.249 206.646 145.249Z" fill="white"/>
</g>
<g opacity="0.5">
<path d="M603.074 122.549L542.783 138.704C542.096 138.888 541.375 138.471 541.191 137.785L531.856 102.945C531.672 102.259 532.089 101.538 532.775 101.354L546.045 97.7985C546.731 97.6147 547.452 98.0312 547.636 98.7173C548.178 100.742 549.067 102.584 550.313 104.223C553.459 108.402 558.467 110.827 563.701 110.68C566.258 110.586 568.735 109.923 570.942 108.722C572.433 107.928 573.773 106.905 574.933 105.679C577.312 103.177 578.87 99.8896 579.291 96.4408C579.365 95.847 579.401 95.2455 579.392 94.6742C579.418 93.2323 579.242 91.7729 578.852 90.3171C578.668 89.631 579.085 88.9096 579.771 88.7258L593.041 85.1701C593.727 84.9863 594.448 85.4028 594.632 86.0889L603.967 120.928C604.181 121.66 603.76 122.365 603.074 122.549ZM543.365 135.857L601.146 120.375L592.484 88.0454L581.674 90.9419C581.922 92.2027 582.032 93.4825 582.006 94.7268C582.001 95.3741 581.97 96.0637 581.873 96.7714C581.385 100.776 579.588 104.576 576.817 107.488C575.458 108.91 573.894 110.101 572.17 111.029C569.634 112.408 566.76 113.196 563.774 113.297C557.684 113.458 551.875 110.656 548.226 105.805C547.052 104.236 546.141 102.508 545.5 100.653L534.69 103.549L543.348 135.862L543.365 135.857Z" fill="white"/>
<path d="M589.278 119.519L553.233 129.177C552.547 129.361 551.826 128.944 551.642 128.258C550.965 125.731 548.355 124.225 545.828 124.902C545.142 125.086 544.421 124.669 544.237 123.983L541.399 113.391C541.215 112.704 541.631 111.983 542.318 111.799C544.844 111.122 546.351 108.512 545.674 105.986C545.49 105.3 545.907 104.578 546.593 104.394L548.952 103.762C549.471 103.623 550.008 103.82 550.334 104.235C553.481 108.414 558.489 110.838 563.722 110.691C566.28 110.598 568.756 109.934 570.963 108.733C572.454 107.939 573.794 106.916 574.955 105.691C577.333 103.188 578.892 99.9008 579.313 96.4521C579.388 95.9297 579.754 95.4907 580.273 95.3517L582.649 94.715C583.335 94.5312 584.057 94.9477 584.241 95.6338C584.918 98.1606 587.527 99.6673 590.054 98.9903C590.74 98.8064 591.462 99.2229 591.646 99.909L594.484 110.501C594.668 111.188 594.251 111.909 593.565 112.093C591.038 112.77 589.532 115.38 590.209 117.906C590.38 118.614 589.964 119.335 589.278 119.519ZM553.699 126.362L587.45 117.318C587.189 114.268 588.884 111.356 591.64 110.062L589.411 101.745C586.361 102.007 583.45 100.312 582.155 97.5557L581.753 97.6633C581.126 101.347 579.398 104.805 576.822 107.504C575.463 108.926 573.899 110.117 572.175 111.045C569.639 112.424 566.765 113.212 563.779 113.312C557.991 113.464 552.456 110.948 548.793 106.513L548.408 106.616C548.669 109.667 546.974 112.578 544.218 113.873L546.447 122.189C549.476 121.916 552.4 123.589 553.699 126.362Z" fill="white"/>
<path d="M569.358 117.27C566.43 118.055 563.4 116.32 562.615 113.391C562.494 112.939 562.44 112.47 562.441 112.003C562.433 111.306 562.995 110.725 563.688 110.7C566.284 110.615 568.739 109.939 570.946 108.738C571.554 108.396 572.331 108.618 572.694 109.238C572.932 109.658 573.12 110.092 573.241 110.544C574.022 113.456 572.287 116.485 569.358 117.27ZM565.301 113.174C565.89 114.433 567.297 115.132 568.686 114.76C570.074 114.388 570.943 113.079 570.823 111.694C569.076 112.467 567.218 112.965 565.301 113.174Z" fill="white"/>
<path d="M583.579 109.103L579.312 110.246C578.626 110.43 577.905 110.013 577.721 109.327C577.537 108.641 577.954 107.92 578.64 107.736L582.907 106.593C583.593 106.409 584.314 106.825 584.498 107.511C584.682 108.197 584.282 108.914 583.579 109.103Z" fill="white"/>
<path d="M557.207 116.168L552.94 117.312C552.254 117.495 551.533 117.079 551.349 116.393C551.165 115.707 551.582 114.985 552.268 114.802L556.535 113.658C557.221 113.474 557.942 113.891 558.126 114.577C558.31 115.263 557.91 115.98 557.207 116.168Z" fill="white"/>
<path d="M565.468 102.746C563.594 103.248 561.609 102.937 560.204 101.843C559.638 101.402 559.527 100.589 559.967 100.023C560.407 99.4565 561.225 99.3629 561.787 99.7863C562.537 100.375 563.941 100.662 565.413 99.9984C566.535 99.5005 567.292 98.5086 567.259 97.5847C567.235 96.8917 566.85 96.4569 566.53 96.2018C565.827 95.6547 564.74 95.4797 563.694 95.7242C560.504 96.4712 557.532 95.1513 556.784 92.6257C556.441 91.48 556.592 90.2378 557.208 89.1223C557.971 87.7521 559.373 86.6947 561.03 86.2509C562.77 85.7845 564.632 86.039 565.988 86.9491C566.579 87.3468 566.744 88.1634 566.346 88.7542C565.948 89.345 565.132 89.51 564.541 89.1124C563.797 88.6122 562.74 88.4829 561.703 88.7609C560.732 89.021 559.889 89.6235 559.482 90.3783C559.286 90.7178 559.093 91.2715 559.267 91.8527C559.61 92.9984 561.326 93.5789 563.096 93.1583C564.917 92.7242 566.789 93.0835 568.117 94.0908C569.202 94.9298 569.823 96.1086 569.875 97.4398C569.938 99.4138 568.58 101.374 566.482 102.313C566.166 102.541 565.819 102.652 565.468 102.746Z" fill="white"/>
<path d="M568.115 112.635C566.726 113.007 565.259 113.221 563.785 113.275C557.694 113.437 551.886 110.635 548.237 105.784C546.809 103.87 545.769 101.728 545.141 99.3852C542.46 89.3784 548.418 79.0835 558.408 76.4066C558.525 76.3753 558.659 76.3394 558.797 76.3203C565.56 74.6517 572.644 76.8605 577.304 82.0686C579.232 84.2424 580.654 86.8743 581.403 89.6688L581.407 89.6856C581.856 91.3589 582.061 93.0616 582.043 94.7344C582.037 95.3816 582.007 96.0714 581.909 96.779C581.422 100.784 579.624 104.583 576.853 107.496C575.495 108.918 573.931 110.108 572.206 111.037C570.898 111.71 569.521 112.258 568.115 112.635ZM559.147 78.8988C559.131 78.9032 559.097 78.9122 559.08 78.9167C550.479 81.2214 545.342 90.0948 547.647 98.6959C548.189 100.721 549.082 102.58 550.328 104.219C553.475 108.398 558.482 110.822 563.716 110.675C566.274 110.582 568.75 109.918 570.957 108.717C572.448 107.923 573.788 106.9 574.949 105.675C577.327 103.172 578.885 99.8849 579.306 96.4361C579.381 95.8424 579.417 95.2408 579.407 94.6695C579.433 93.2277 579.257 91.7682 578.867 90.3124L578.872 90.3291C578.226 87.9195 577.011 85.6623 575.341 83.7784C571.319 79.2781 565.198 77.385 559.348 78.845C559.298 78.8584 559.264 78.8674 559.21 78.8641C559.197 78.8853 559.164 78.8943 559.147 78.8988Z" fill="white"/>
<path d="M561.73 88.8068C561.044 88.9906 560.323 88.5741 560.139 87.888L559.381 85.06C559.197 84.3739 559.614 83.6525 560.3 83.4687C560.986 83.2849 561.707 83.7014 561.891 84.3875L562.649 87.2155C562.837 87.9183 562.416 88.6229 561.73 88.8068Z" fill="white"/>
<path d="M566.223 105.574C565.537 105.758 564.816 105.341 564.632 104.655L563.874 101.827C563.691 101.141 564.107 100.42 564.793 100.236C565.479 100.052 566.201 100.468 566.384 101.154L567.142 103.982C567.331 104.685 566.91 105.39 566.223 105.574Z" fill="white"/>
</g>
<g opacity="0.5">
<path d="M22.3338 47.4564C23.3029 47.4564 24.1064 46.6528 24.1064 45.6838V31.0067C24.1064 30.0376 23.3029 29.2341 22.3338 29.2341C21.3648 29.2341 20.5612 30.0376 20.5612 31.0067V45.6838C20.5612 46.6528 21.3648 47.4564 22.3338 47.4564Z" fill="white"/>
<path d="M22.3356 32.7809C26.4244 32.7809 29.7568 29.4484 29.7568 25.3596C29.7568 21.2708 26.4244 17.9384 22.3356 17.9384C18.2468 17.9384 14.9143 21.2708 14.9143 25.3596C14.9143 29.4484 18.2468 32.7809 22.3356 32.7809ZM22.3356 21.4836C24.4627 21.4836 26.2116 23.2325 26.2116 25.3596C26.2116 27.4868 24.4627 29.2357 22.3356 29.2357C20.2085 29.2357 18.4595 27.4868 18.4595 25.3596C18.4595 23.2089 20.2085 21.4836 22.3356 21.4836Z" fill="white"/>
<path d="M90.4501 92.2461C90.9227 92.2461 91.3719 92.0571 91.7028 91.7262C92.1755 91.2535 92.3409 90.5445 92.1282 89.9063L85.5341 70.0532C89.9065 62.8446 92.2227 54.5725 92.2227 46.1113C92.2227 20.6804 71.5424 0 46.1115 0C20.6805 0 0.000182125 20.6804 0.000182125 46.1113C0.000182125 69.3205 17.3244 88.9846 40.3209 91.8443C40.8173 91.9153 41.3372 91.7498 41.7154 91.4189C42.0935 91.0881 42.3062 90.5917 42.3062 90.0954V72.5348C42.3062 71.5658 41.5027 70.7622 40.5336 70.7622H27.6764C25.7147 70.7622 24.1312 69.1787 24.1312 67.217V44.1969C24.1312 42.2352 25.7147 40.6517 27.6764 40.6517H64.5938C66.5555 40.6517 68.139 42.2352 68.139 44.1969V67.217C68.139 69.1787 66.5555 70.7622 64.5938 70.7622H50.2002C49.2312 70.7622 48.4276 71.5658 48.4276 72.5348V90.2845C48.4276 90.7808 48.6404 91.2535 48.9949 91.5844C49.3494 91.9152 49.8458 92.1043 50.3421 92.0334C57.267 91.4189 64.0738 89.1736 70.0534 85.5339L89.8828 92.1516C90.0719 92.1989 90.261 92.2461 90.4501 92.2461ZM69.817 81.7996C69.4861 81.7996 69.1553 81.8942 68.8717 82.0833C63.672 85.3921 57.9761 87.4719 51.9492 88.2755V74.2838H64.5465C68.4698 74.2838 71.6369 71.0931 71.6369 67.1934V44.1732C71.6369 40.2499 68.4462 37.0828 64.5465 37.0828H27.6291C23.7058 37.0828 20.5387 40.2735 20.5387 44.1732V67.1934C20.5387 71.1168 23.7294 74.2838 27.6291 74.2838H38.7138V88.0155C18.5061 84.5176 3.49814 66.8389 3.49814 46.0876C3.49814 22.6184 22.5949 3.52158 46.0641 3.52158C69.5334 3.52158 88.6302 22.6184 88.6302 46.0876C88.6302 54.1707 86.3613 62.041 82.0361 68.8478C81.7525 69.2969 81.6816 69.8641 81.8471 70.3604L87.5903 87.6374L70.3133 81.8705C70.1952 81.8232 70.0061 81.7996 69.817 81.7996Z" fill="white"/>
<path d="M57.3391 61.9946C60.8134 61.9946 63.626 59.182 63.626 55.7077C63.626 52.2334 60.8134 49.4209 57.3391 49.4209C53.8648 49.4209 51.0523 52.2334 51.0523 55.7077C51.0523 59.1584 53.8648 61.9946 57.3391 61.9946ZM57.3391 52.9425C58.8518 52.9425 60.0808 54.1715 60.0808 55.6841C60.0808 57.1967 58.8518 58.4257 57.3391 58.4257C55.8265 58.4257 54.5975 57.1967 54.5975 55.6841C54.5975 54.1951 55.8265 52.9425 57.3391 52.9425Z" fill="white"/>
<path d="M34.885 61.9941C38.3593 61.9941 41.1719 59.1815 41.1719 55.7072C41.1719 52.2329 38.3593 49.4204 34.885 49.4204C31.4107 49.4204 28.5982 52.2329 28.5982 55.7072C28.5982 59.1579 31.4107 61.9941 34.885 61.9941ZM34.885 52.942C36.3977 52.942 37.6267 54.171 37.6267 55.6836C37.6267 57.1962 36.3977 58.4252 34.885 58.4252C33.3724 58.4252 32.1434 57.1962 32.1434 55.6836C32.1434 54.1946 33.3724 52.942 34.885 52.942Z" fill="white"/>
<path d="M69.8895 47.4564C70.8585 47.4564 71.6621 46.6528 71.6621 45.6838V31.0067C71.6621 30.0376 70.8585 29.2341 69.8895 29.2341C68.9205 29.2341 68.1169 30.0376 68.1169 31.0067V45.6838C68.1169 46.6528 68.9205 47.4564 69.8895 47.4564Z" fill="white"/>
<path d="M69.8864 32.7809C73.9752 32.7809 77.3076 29.4484 77.3076 25.3596C77.3076 21.2708 73.9752 17.9384 69.8864 17.9384C65.7976 17.9384 62.465 21.2708 62.465 25.3596C62.465 29.4484 65.7976 32.7809 69.8864 32.7809ZM69.8864 21.4836C72.0135 21.4836 73.7624 23.2325 73.7624 25.3596C73.7624 27.4868 72.0135 29.2357 69.8864 29.2357C67.7592 29.2357 66.0102 27.4868 66.0102 25.3596C66.0102 23.2089 67.7592 21.4836 69.8864 21.4836Z" fill="white"/>
</g>
<g opacity="0.5">
<path d="M305.211 71.9489C305.211 72.4838 305.116 72.9707 304.927 73.4018C304.737 73.8328 304.468 74.2 304.129 74.5114C303.781 74.8227 303.363 75.0702 302.881 75.2617C302.391 75.4453 301.854 75.5651 301.262 75.621L301.064 77.6246C301.056 77.6725 301.04 77.7204 301.025 77.7523C301.001 77.7922 300.961 77.8242 300.906 77.8481C300.851 77.8721 300.764 77.896 300.669 77.912C300.566 77.9279 300.44 77.9359 300.282 77.9359C300.085 77.9359 299.927 77.9279 299.808 77.904C299.69 77.888 299.595 77.8561 299.524 77.8242C299.453 77.7922 299.413 77.7443 299.389 77.6885C299.366 77.6326 299.366 77.5687 299.374 77.5049L299.571 75.605C299.303 75.5651 299.058 75.5172 298.821 75.4613C298.584 75.4054 298.371 75.3336 298.181 75.2617C297.991 75.1899 297.826 75.118 297.683 75.0382C297.541 74.9664 297.438 74.8865 297.367 74.8147C297.296 74.7429 297.249 74.6391 297.217 74.4954C297.186 74.3517 297.17 74.1442 297.17 73.8728C297.17 73.6572 297.178 73.4896 297.186 73.3459C297.202 73.2102 297.217 73.0984 297.249 73.0266C297.281 72.9547 297.32 72.8989 297.367 72.8749C297.415 72.843 297.47 72.835 297.533 72.835C297.612 72.835 297.731 72.8829 297.889 72.9787C298.047 73.0745 298.244 73.1783 298.481 73.29C298.718 73.4018 299.01 73.5056 299.358 73.6013C299.698 73.6971 300.1 73.745 300.566 73.745C301.285 73.745 301.822 73.6093 302.178 73.3379C302.533 73.0665 302.707 72.7073 302.707 72.2603C302.707 71.9569 302.628 71.7174 302.478 71.5179C302.328 71.3263 302.122 71.1507 301.87 71.007C301.617 70.8633 301.333 70.7276 301.017 70.6158C300.701 70.5041 300.377 70.3764 300.037 70.2486C299.705 70.1209 299.382 69.9613 299.058 69.7936C298.742 69.618 298.457 69.4025 298.205 69.147C297.952 68.8916 297.747 68.5803 297.596 68.2131C297.446 67.8458 297.367 67.4068 297.367 66.8879C297.367 66.417 297.446 65.9939 297.596 65.6107C297.754 65.2275 297.976 64.8923 298.26 64.6049C298.552 64.3175 298.908 64.086 299.326 63.9104C299.753 63.7348 300.227 63.615 300.764 63.5512L300.946 61.6673C300.953 61.6194 300.969 61.5715 300.985 61.5396C301.009 61.5076 301.048 61.4757 301.104 61.4438C301.159 61.4118 301.238 61.3959 301.341 61.3799C301.443 61.3639 301.57 61.3639 301.728 61.3639C301.917 61.3639 302.075 61.3719 302.201 61.3959C302.328 61.4118 302.423 61.4438 302.494 61.4757C302.565 61.5076 302.604 61.5555 302.62 61.6114C302.636 61.6673 302.652 61.7311 302.652 61.795L302.47 63.5592C302.644 63.5831 302.825 63.623 303.015 63.6629C303.205 63.7029 303.386 63.7587 303.552 63.8146C303.718 63.8705 303.868 63.9344 304.002 63.9982C304.137 64.0621 304.231 64.1259 304.287 64.1738C304.342 64.2217 304.382 64.2776 304.405 64.3335C304.437 64.3894 304.453 64.4532 304.468 64.5331C304.484 64.6129 304.492 64.7007 304.5 64.8124C304.508 64.9242 304.508 65.0439 304.508 65.1876C304.508 65.3792 304.5 65.5389 304.492 65.6666C304.484 65.7943 304.468 65.8901 304.445 65.954C304.421 66.0178 304.389 66.0657 304.358 66.0817C304.326 66.1056 304.287 66.1136 304.247 66.1136C304.168 66.1136 304.05 66.0737 303.892 65.9939C303.734 65.914 303.544 65.8262 303.323 65.7304C303.094 65.6347 302.841 65.5468 302.549 65.467C302.257 65.3872 301.933 65.3473 301.585 65.3473C301.262 65.3473 300.993 65.3792 300.764 65.4431C300.535 65.5069 300.353 65.5947 300.211 65.7065C300.069 65.8183 299.966 65.954 299.895 66.1056C299.824 66.2653 299.792 66.4329 299.792 66.6165C299.792 66.9119 299.871 67.1593 300.021 67.3589C300.179 67.5585 300.385 67.7261 300.638 67.8698C300.89 68.0135 301.183 68.1412 301.506 68.2609C301.83 68.3807 302.162 68.5084 302.494 68.6361C302.833 68.7639 303.157 68.9155 303.481 69.0911C303.805 69.2588 304.097 69.4743 304.35 69.7298C304.603 69.9852 304.808 70.2885 304.958 70.6478C305.132 71.007 305.211 71.438 305.211 71.9489Z" fill="white" stroke="white"/>
<path d="M300.962 86.3421C291.934 86.3421 284.596 78.9182 284.596 69.802C284.596 60.6778 291.942 53.262 300.962 53.262C309.99 53.262 317.328 60.6858 317.328 69.802C317.328 73.043 316.396 76.1802 314.635 78.8863C314.319 79.3732 313.711 79.5568 313.182 79.3333L308.932 77.5133L310.772 81.8878C310.994 82.4066 310.82 83.0133 310.362 83.3326C307.597 85.2963 304.343 86.3421 300.962 86.3421ZM300.962 55.6488C293.245 55.6488 286.965 61.995 286.965 69.794C286.965 77.5931 293.245 83.9393 300.962 83.9393C303.529 83.9393 306.017 83.2368 308.205 81.8878L305.607 75.7092C305.417 75.2622 305.52 74.7433 305.859 74.392C306.199 74.0488 306.712 73.945 307.163 74.1366L313.166 76.715C314.343 74.5996 314.959 72.2287 314.959 69.794C314.967 61.995 308.687 55.6488 300.962 55.6488Z" fill="white" stroke="white"/>
<path d="M343.363 118.99C343.047 118.99 342.747 118.862 342.526 118.639L327.218 103.168L321.389 109.06C321.112 109.339 320.709 109.467 320.322 109.387C319.935 109.307 319.611 109.044 319.461 108.676L305.615 75.708C305.425 75.261 305.528 74.7421 305.867 74.3909C306.207 74.0476 306.721 73.9439 307.171 74.1354L339.793 88.129C340.156 88.2887 340.417 88.616 340.496 88.9991C340.567 89.3903 340.449 89.7894 340.172 90.0768L334.343 95.968L349.651 111.438C350.117 111.909 350.117 112.668 349.651 113.131L344.208 118.631C343.979 118.862 343.679 118.99 343.363 118.99ZM327.218 100.279C327.518 100.279 327.826 100.398 328.055 100.63L343.363 116.1L347.131 112.293L331.823 96.8221C331.602 96.5986 331.475 96.2953 331.475 95.976C331.475 95.6567 331.602 95.3533 331.823 95.1298L337.25 89.6457L308.94 77.5041L320.954 106.114L326.381 100.63C326.61 100.39 326.91 100.279 327.218 100.279Z" fill="white" stroke="white"/>
<path d="M300.961 50.6743C300.306 50.6743 299.776 50.1394 299.776 49.4769V38.1974C299.776 37.5348 300.306 37 300.961 37C301.617 37 302.146 37.5348 302.146 38.1974V49.4769C302.146 50.1394 301.617 50.6743 300.961 50.6743Z" fill="white" stroke="white"/>
<path d="M300.961 103.631C300.306 103.631 299.776 103.096 299.776 102.433V91.1538C299.776 90.4913 300.306 89.9564 300.961 89.9564C301.617 89.9564 302.146 90.4913 302.146 91.1538V102.433C302.146 103.096 301.617 103.631 300.961 103.631Z" fill="white" stroke="white"/>
<path d="M286.389 56.7801C286.089 56.7801 285.781 56.6603 285.552 56.4288L277.661 48.4542C277.195 47.9832 277.195 47.2248 277.661 46.7618C278.127 46.2909 278.877 46.2909 279.336 46.7618L287.227 54.7365C287.693 55.2075 287.693 55.9658 287.227 56.4288C286.99 56.6603 286.689 56.7801 286.389 56.7801Z" fill="white" stroke="white"/>
<path d="M280.346 71.5079H269.185C268.529 71.5079 268 70.9731 268 70.3105C268 69.648 268.529 69.1131 269.185 69.1131H280.346C281.001 69.1131 281.531 69.648 281.531 70.3105C281.531 70.9731 281.001 71.5079 280.346 71.5079Z" fill="white" stroke="white"/>
<path d="M332.747 71.5079H321.586C320.931 71.5079 320.401 70.9731 320.401 70.3105C320.401 69.648 320.931 69.1131 321.586 69.1131H332.747C333.403 69.1131 333.932 69.648 333.932 70.3105C333.932 70.9731 333.403 71.5079 332.747 71.5079Z" fill="white" stroke="white"/>
<path d="M278.498 94.2195C278.198 94.2195 277.89 94.0997 277.661 93.8682C277.195 93.3973 277.195 92.6389 277.661 92.1759L285.552 84.2013C286.018 83.7303 286.768 83.7303 287.227 84.2013C287.693 84.6722 287.693 85.4306 287.227 85.8936L279.336 93.8682C279.099 94.1077 278.798 94.2195 278.498 94.2195Z" fill="white" stroke="white"/>
<path d="M315.543 56.7801C315.243 56.7801 314.935 56.6603 314.706 56.4288C314.24 55.9579 314.24 55.1995 314.706 54.7365L322.597 46.7618C323.063 46.2909 323.813 46.2909 324.271 46.7618C324.737 47.2328 324.737 47.9912 324.271 48.4542L316.381 56.4288C316.151 56.6603 315.851 56.7801 315.543 56.7801Z" fill="white" stroke="white"/>
<path d="M339.738 67.5006C335.528 67.5006 331.681 64.8264 330.173 60.843C329.714 59.6456 329.485 58.3924 329.485 57.1391C329.485 51.4235 334.082 46.7776 339.738 46.7776C345.394 46.7776 349.991 51.4235 349.991 57.1391C349.991 58.4003 349.762 59.6456 349.304 60.843C347.795 64.8264 343.948 67.5006 339.738 67.5006ZM339.738 49.1644C335.394 49.1644 331.855 52.7406 331.855 57.1311C331.855 58.097 332.037 59.0549 332.384 59.9809C333.545 63.0463 336.5 65.0978 339.738 65.0978C342.977 65.0978 345.931 63.0383 347.092 59.9809C347.439 59.0549 347.621 58.097 347.621 57.1311C347.621 52.7406 344.082 49.1644 339.738 49.1644Z" fill="white" stroke="white"/>
<path d="M286.737 117.64C282.282 117.64 278.206 114.806 276.61 110.591C276.129 109.322 275.884 108.005 275.884 106.664C275.884 100.613 280.749 95.6958 286.737 95.6958C292.724 95.6958 297.59 100.621 297.59 106.664C297.59 107.997 297.345 109.314 296.863 110.591C295.268 114.806 291.2 117.64 286.737 117.64ZM286.737 98.0906C282.061 98.0906 278.253 101.938 278.253 106.664C278.253 107.702 278.443 108.731 278.822 109.729C280.07 113.026 283.253 115.237 286.737 115.237C290.22 115.237 293.403 113.026 294.651 109.729C295.031 108.731 295.22 107.702 295.22 106.664C295.228 101.938 291.421 98.0906 286.737 98.0906Z" fill="white" stroke="white"/>
</g>
<g opacity="0.5">
<path d="M416.556 202.132H388.478C388.082 202.132 387.7 201.97 387.428 201.684C387.156 201.397 387.013 201.011 387.032 200.61L388.626 170.361C388.669 169.592 389.299 168.991 390.072 168.991H415.281C416.055 168.991 416.694 169.602 416.728 170.375L418.002 200.624C418.021 201.02 417.873 201.402 417.601 201.688C417.324 201.97 416.947 202.132 416.556 202.132ZM390.001 199.235H415.048L413.893 171.878H391.442L390.001 199.235Z" fill="white"/>
<path d="M402.674 183.558C398.627 183.558 395.339 180.265 395.339 176.222V174.776H398.231V176.222C398.231 178.671 400.226 180.666 402.674 180.666C405.123 180.666 407.118 178.671 407.118 176.222V174.776H410.01V176.222C410.01 180.27 406.722 183.558 402.674 183.558Z" fill="white"/>
<path d="M391.822 202.134H356.447C356.051 202.134 355.674 201.972 355.402 201.69C355.13 201.409 354.987 201.022 355.001 200.631L357.173 147.225C357.206 146.451 357.841 145.836 358.619 145.836H402.675C403.458 145.836 404.097 146.456 404.121 147.234L404.861 170.386L401.974 170.482L401.277 148.728H360.008L357.955 199.237H391.827V202.134H391.822Z" fill="white"/>
<path d="M373.127 155.628H368.025V158.52H373.127V155.628Z" fill="white"/>
<path d="M393.511 155.628H387.894V158.52H393.511V155.628Z" fill="white"/>
<path d="M392.151 157.962H389.258V141.329C389.258 136.58 385.392 132.714 380.644 132.714C375.895 132.714 372.029 136.58 372.029 141.329V157.967H369.137V141.329C369.132 134.981 374.296 129.817 380.639 129.817C386.987 129.817 392.151 134.981 392.151 141.329V157.962Z" fill="white"/>
</g>
</svg>
