<svg width="415" height="364" viewBox="0 0 415 364" fill="none" xmlns="http://www.w3.org/2000/svg">
<mask id="path-1-inside-1" fill="white">
<path d="M102.306 226.524C97.6026 221.837 102.306 220.275 102.306 217.151L105.442 212.463V210.902L102.306 201.529L99.1707 190.592L102.306 185.905V181.218L96.0351 176.531V162.471L91.3316 157.786L86.6279 149.974L70.9496 145.287L58.4067 148.411V151.537L50.5675 157.786C50.0449 156.224 48.9996 152.473 48.9996 149.974C48.9996 147.474 50.0449 148.932 50.5675 149.974L52.1353 143.726L50.5675 134.353L42.7283 128.104L41.1605 123.417L45.8641 117.167V110.918L38.0248 114.044L31.7533 121.854L22.3464 128.104L12.9393 126.54L9.80362 121.854L16.0749 117.167H20.7784L28.6177 115.606V112.482L25.482 109.357C25.482 107.274 24.2277 102.796 19.2106 101.546C14.1935 100.296 11.894 101.025 11.3714 101.546L12.9393 110.918C10.3262 113.001 4.47284 117.48 1.96429 118.731C-0.54426 119.981 -0.126168 116.127 0.396447 114.044L6.66783 103.108L1.96429 95.2958L6.66783 92.1713L11.3714 84.3602L14.507 71.8624V73.4246C15.0297 75.5076 16.0749 80.2984 16.0749 82.798C16.0749 85.2975 18.1654 83.8394 19.2106 82.798L20.7784 76.5491L23.9141 71.8624L25.482 67.1757L20.7784 60.9268L25.482 56.2401L28.6177 53.1157L31.7533 54.6779L36.4569 49.9912L42.7283 54.6779H48.9996V37.4934C48.9996 36.2436 51.0901 31.7653 52.1353 29.6823L53.7032 37.4934L55.271 48.429L59.9745 56.2401L55.271 65.6135L52.1353 71.8624L50.5675 78.1113L47.4318 79.6735L48.9996 85.9224L58.4067 82.798L61.5424 79.6735L56.8389 73.4246L61.5424 67.1757L64.6781 73.4246L69.3816 78.1113V60.9268H75.653L78.7887 56.2401L85.0601 54.6779L83.4922 49.9912L86.6279 43.7423H78.7887L69.3816 37.4934L64.6781 31.2445H72.5173L78.7887 29.6823C77.7435 28.6408 75.0259 26.5578 72.5173 26.5578C70.0088 26.5578 63.1102 25.5164 59.9745 24.9956L61.5424 17.1845L72.5173 18.7467L78.7887 17.1845H86.6279L92.8993 20.3089H97.6028L99.1707 17.1845L97.6028 12.4978L107.01 0H110.146L114.849 6.2489L121.12 7.81113L124.256 12.4978L133.663 14.06L141.502 20.3089L157.181 21.8712H161.884L169.724 24.9956L180.699 29.6823L183.834 32.8067L186.97 43.7423L188.538 48.429L194.809 56.2401L199.513 60.9268H208.92L215.191 59.3646L218.327 54.6779L238.709 45.3045H251.252L259.091 40.6179H266.93L271.634 32.8067L276.337 31.2445L284.176 32.8067L292.016 37.4934L298.287 40.6179L299.855 43.7423L306.126 45.3045L312.398 49.9912L324.94 60.9268V67.1757L331.212 71.8624L332.78 78.1113L342.187 82.798L350.026 89.0469V93.7335L354.729 103.108C352.639 104.15 348.144 105.608 346.89 103.108C345.636 100.609 343.232 101.025 342.187 101.546L334.347 103.108V109.357L328.076 114.044L321.805 123.417L317.101 128.104L309.262 123.417L299.855 115.606L292.016 109.357L285.744 112.482L276.337 118.731L281.041 124.979L285.744 128.104V134.353L282.609 143.726V151.537L292.016 157.786L296.719 164.035L295.151 167.16L290.448 173.408C288.88 176.012 285.744 181.532 285.744 182.782C285.744 184.032 286.789 187.468 287.312 189.031L292.016 195.28L295.151 201.529V210.902L306.126 221.837H309.262L312.398 218.713H317.101V237.46L313.965 242.146L309.262 257.769L310.83 262.455L313.965 268.704L318.669 276.515L320.237 282.764H324.94L329.644 290.575L332.78 296.824L339.051 287.451L340.619 282.764L342.187 268.704L346.89 270.266V279.64L362.569 292.138L373.544 278.078H381.383L382.951 274.953L389.222 276.515L390.79 284.326L395.493 282.764L400.197 281.202L403.333 292.138V303.073L401.765 312.447L406.468 318.695L414.307 334.318L412.74 335.88L409.604 337.442C410.649 339.004 413.053 342.441 414.307 343.691C415.562 344.941 414.83 346.295 414.307 346.816L411.172 348.378V357.751C411.172 359.001 409.081 356.189 408.036 354.627L401.765 351.502C399.674 350.461 395.493 348.065 395.493 346.816C395.493 345.566 392.358 346.295 390.79 346.816L389.222 349.94L386.086 359.313L381.383 364L376.679 362.438L365.704 364L364.136 359.313L359.433 349.94L348.458 354.627L342.187 346.816L340.619 332.755L335.915 318.695L329.644 317.133C326.508 318.175 319.923 320.258 318.669 320.258C317.415 320.258 312.92 321.299 310.83 321.82L309.262 329.631C307.171 329.11 302.363 327.444 299.855 324.944C297.346 322.445 296.719 324.944 296.719 326.507C294.106 327.027 288.566 328.069 287.312 328.069C286.058 328.069 283.654 327.027 282.609 326.507L277.905 335.88C276.651 338.379 274.247 337.963 273.201 337.442L259.091 328.069V317.133L249.684 309.322L226.166 306.198L218.327 312.447L213.623 309.322C212.055 310.364 208.92 312.759 208.92 314.009C208.92 315.259 207.875 319.737 207.352 321.82L205.784 332.755L202.648 337.442C200.035 338.484 194.496 340.879 193.241 342.129L188.538 346.816C187.284 348.065 179.653 348.378 175.995 348.378L171.292 353.064L163.452 356.189H149.342L150.91 346.816L146.206 342.129L138.367 332.755C139.935 330.673 143.07 326.194 143.07 324.944C143.07 323.382 141.502 324.944 139.935 324.944C138.68 324.944 135.231 320.778 133.663 318.695L125.824 310.884L121.12 312.447C120.075 311.405 117.985 309.01 117.985 307.76C117.985 306.51 112.759 307.239 110.146 307.76C107.532 308.281 102.306 309.01 102.306 307.76C102.306 306.51 107.532 302.032 110.146 299.949L113.281 292.138L110.146 276.515L117.985 265.58L110.146 248.395L121.12 239.022C116.417 236.418 106.069 230.273 102.306 226.524Z"/>
</mask>
<path d="M102.306 226.524C97.6026 221.837 102.306 220.275 102.306 217.151L105.442 212.463V210.902L102.306 201.529L99.1707 190.592L102.306 185.905V181.218L96.0351 176.531V162.471L91.3316 157.786L86.6279 149.974L70.9496 145.287L58.4067 148.411V151.537L50.5675 157.786C50.0449 156.224 48.9996 152.473 48.9996 149.974C48.9996 147.474 50.0449 148.932 50.5675 149.974L52.1353 143.726L50.5675 134.353L42.7283 128.104L41.1605 123.417L45.8641 117.167V110.918L38.0248 114.044L31.7533 121.854L22.3464 128.104L12.9393 126.54L9.80362 121.854L16.0749 117.167H20.7784L28.6177 115.606V112.482L25.482 109.357C25.482 107.274 24.2277 102.796 19.2106 101.546C14.1935 100.296 11.894 101.025 11.3714 101.546L12.9393 110.918C10.3262 113.001 4.47284 117.48 1.96429 118.731C-0.54426 119.981 -0.126168 116.127 0.396447 114.044L6.66783 103.108L1.96429 95.2958L6.66783 92.1713L11.3714 84.3602L14.507 71.8624V73.4246C15.0297 75.5076 16.0749 80.2984 16.0749 82.798C16.0749 85.2975 18.1654 83.8394 19.2106 82.798L20.7784 76.5491L23.9141 71.8624L25.482 67.1757L20.7784 60.9268L25.482 56.2401L28.6177 53.1157L31.7533 54.6779L36.4569 49.9912L42.7283 54.6779H48.9996V37.4934C48.9996 36.2436 51.0901 31.7653 52.1353 29.6823L53.7032 37.4934L55.271 48.429L59.9745 56.2401L55.271 65.6135L52.1353 71.8624L50.5675 78.1113L47.4318 79.6735L48.9996 85.9224L58.4067 82.798L61.5424 79.6735L56.8389 73.4246L61.5424 67.1757L64.6781 73.4246L69.3816 78.1113V60.9268H75.653L78.7887 56.2401L85.0601 54.6779L83.4922 49.9912L86.6279 43.7423H78.7887L69.3816 37.4934L64.6781 31.2445H72.5173L78.7887 29.6823C77.7435 28.6408 75.0259 26.5578 72.5173 26.5578C70.0088 26.5578 63.1102 25.5164 59.9745 24.9956L61.5424 17.1845L72.5173 18.7467L78.7887 17.1845H86.6279L92.8993 20.3089H97.6028L99.1707 17.1845L97.6028 12.4978L107.01 0H110.146L114.849 6.2489L121.12 7.81113L124.256 12.4978L133.663 14.06L141.502 20.3089L157.181 21.8712H161.884L169.724 24.9956L180.699 29.6823L183.834 32.8067L186.97 43.7423L188.538 48.429L194.809 56.2401L199.513 60.9268H208.92L215.191 59.3646L218.327 54.6779L238.709 45.3045H251.252L259.091 40.6179H266.93L271.634 32.8067L276.337 31.2445L284.176 32.8067L292.016 37.4934L298.287 40.6179L299.855 43.7423L306.126 45.3045L312.398 49.9912L324.94 60.9268V67.1757L331.212 71.8624L332.78 78.1113L342.187 82.798L350.026 89.0469V93.7335L354.729 103.108C352.639 104.15 348.144 105.608 346.89 103.108C345.636 100.609 343.232 101.025 342.187 101.546L334.347 103.108V109.357L328.076 114.044L321.805 123.417L317.101 128.104L309.262 123.417L299.855 115.606L292.016 109.357L285.744 112.482L276.337 118.731L281.041 124.979L285.744 128.104V134.353L282.609 143.726V151.537L292.016 157.786L296.719 164.035L295.151 167.16L290.448 173.408C288.88 176.012 285.744 181.532 285.744 182.782C285.744 184.032 286.789 187.468 287.312 189.031L292.016 195.28L295.151 201.529V210.902L306.126 221.837H309.262L312.398 218.713H317.101V237.46L313.965 242.146L309.262 257.769L310.83 262.455L313.965 268.704L318.669 276.515L320.237 282.764H324.94L329.644 290.575L332.78 296.824L339.051 287.451L340.619 282.764L342.187 268.704L346.89 270.266V279.64L362.569 292.138L373.544 278.078H381.383L382.951 274.953L389.222 276.515L390.79 284.326L395.493 282.764L400.197 281.202L403.333 292.138V303.073L401.765 312.447L406.468 318.695L414.307 334.318L412.74 335.88L409.604 337.442C410.649 339.004 413.053 342.441 414.307 343.691C415.562 344.941 414.83 346.295 414.307 346.816L411.172 348.378V357.751C411.172 359.001 409.081 356.189 408.036 354.627L401.765 351.502C399.674 350.461 395.493 348.065 395.493 346.816C395.493 345.566 392.358 346.295 390.79 346.816L389.222 349.94L386.086 359.313L381.383 364L376.679 362.438L365.704 364L364.136 359.313L359.433 349.94L348.458 354.627L342.187 346.816L340.619 332.755L335.915 318.695L329.644 317.133C326.508 318.175 319.923 320.258 318.669 320.258C317.415 320.258 312.92 321.299 310.83 321.82L309.262 329.631C307.171 329.11 302.363 327.444 299.855 324.944C297.346 322.445 296.719 324.944 296.719 326.507C294.106 327.027 288.566 328.069 287.312 328.069C286.058 328.069 283.654 327.027 282.609 326.507L277.905 335.88C276.651 338.379 274.247 337.963 273.201 337.442L259.091 328.069V317.133L249.684 309.322L226.166 306.198L218.327 312.447L213.623 309.322C212.055 310.364 208.92 312.759 208.92 314.009C208.92 315.259 207.875 319.737 207.352 321.82L205.784 332.755L202.648 337.442C200.035 338.484 194.496 340.879 193.241 342.129L188.538 346.816C187.284 348.065 179.653 348.378 175.995 348.378L171.292 353.064L163.452 356.189H149.342L150.91 346.816L146.206 342.129L138.367 332.755C139.935 330.673 143.07 326.194 143.07 324.944C143.07 323.382 141.502 324.944 139.935 324.944C138.68 324.944 135.231 320.778 133.663 318.695L125.824 310.884L121.12 312.447C120.075 311.405 117.985 309.01 117.985 307.76C117.985 306.51 112.759 307.239 110.146 307.76C107.532 308.281 102.306 309.01 102.306 307.76C102.306 306.51 107.532 302.032 110.146 299.949L113.281 292.138L110.146 276.515L117.985 265.58L110.146 248.395L121.12 239.022C116.417 236.418 106.069 230.273 102.306 226.524Z" fill="#0082FF" fill-opacity="0.15" stroke="#005DB7" stroke-width="4" mask="url(#path-1-inside-1)"/>
<path d="M214 161.127C214 168.377 201 184 201 184C201 184 188 168.377 188 161.127C188 153.877 193.82 148 201 148C208.18 148 214 153.877 214 161.127Z" fill="#333333"/>
<ellipse cx="201" cy="160.49" rx="6.5" ry="6.61225" fill="white"/>
</svg>
