<svg width="348" height="46" viewBox="0 0 348 46" fill="none" xmlns="http://www.w3.org/2000/svg">
<rect opacity="0.7" width="348" height="46" rx="23" fill="#005DB7"/>
<path d="M38.8796 17.576H37.5676V26.456H38.4796C40.0316 26.456 41.6796 26.376 43.6156 26.008L43.4876 24.872C41.7756 25.208 40.2556 25.304 38.8796 25.32V17.576ZM47.7756 15.832V21.672H45.7436V16.152H44.5116V29.448H45.7436V22.76H47.7756V30.168H49.0396V15.832H47.7756ZM60.4426 17.592C61.8346 17.592 62.8266 18.344 62.8266 19.464C62.8266 20.584 61.8346 21.336 60.4426 21.336C59.0346 21.336 58.0426 20.584 58.0426 19.464C58.0426 18.344 59.0346 17.592 60.4426 17.592ZM60.4426 22.408C62.5706 22.408 64.0906 21.208 64.0906 19.464C64.0906 17.704 62.5706 16.504 60.4426 16.504C58.2986 16.504 56.7786 17.704 56.7786 19.464C56.7786 21.208 58.2986 22.408 60.4426 22.408ZM65.1626 23.112C62.0106 23.592 58.3786 23.624 55.7066 23.624L55.8826 24.728C57.0666 24.728 58.4266 24.712 59.8506 24.648V29.736H61.1626V24.568C62.5226 24.488 63.9146 24.328 65.2746 24.088L65.1626 23.112ZM66.2026 15.848V30.2H67.5146V15.848H66.2026ZM75.7374 19.368H79.0174V18.312H75.7534V16.088H74.4254V18.312H71.1134V19.368H74.4414V20.472C74.4414 22.984 72.8574 25.4 70.7294 26.408L71.4654 27.4C73.1134 26.6 74.4734 24.968 75.1134 22.968C75.7694 24.856 77.1294 26.408 78.7774 27.16L79.5134 26.136C77.3694 25.208 75.7374 22.872 75.7374 20.472V19.368ZM80.8894 15.816V30.168H82.2174V15.816H80.8894ZM90.1804 17.384V18.44H95.5724C95.3004 21.848 93.3804 24.6 89.5244 26.44L90.2284 27.512C94.9964 25.176 96.9004 21.528 96.9004 17.384H90.1804ZM99.7964 15.832V30.184H101.108V15.832H99.7964ZM105.331 22.184C107.651 21.832 109.763 20.68 110.547 19.016C111.315 20.68 113.427 21.832 115.763 22.184L116.243 21.128C113.715 20.792 111.395 19.368 111.395 17.624V17.608H115.859V16.552H105.235V17.608H109.699V17.624C109.699 19.368 107.379 20.792 104.835 21.128L105.331 22.184ZM106.995 25.8H105.683V29.864H115.603V28.792H106.995V25.8ZM104.019 23.224V24.28H109.987V27.192H111.299V24.28H117.043V23.224H104.019ZM126.478 21.992C127.651 21.992 128.585 22.2853 129.278 22.872C129.971 23.4587 130.318 24.2853 130.318 25.352C130.318 26.536 129.939 27.4693 129.182 28.152C128.435 28.824 127.39 29.16 126.046 29.16C125.459 29.16 124.905 29.1067 124.382 29C123.87 28.8933 123.438 28.7387 123.086 28.536V27.208C123.47 27.4427 123.934 27.6293 124.478 27.768C125.033 27.896 125.561 27.96 126.062 27.96C126.905 27.96 127.582 27.7627 128.094 27.368C128.617 26.9627 128.878 26.3387 128.878 25.496C128.878 24.7493 128.649 24.1787 128.19 23.784C127.731 23.3787 127.006 23.176 126.014 23.176C125.715 23.176 125.374 23.2027 124.99 23.256C124.606 23.3093 124.297 23.3627 124.062 23.416L123.358 22.968L123.79 17.576H129.518V18.856H124.99L124.718 22.168C124.899 22.136 125.145 22.0987 125.454 22.056C125.763 22.0133 126.105 21.992 126.478 21.992ZM139.602 23.272C139.602 24.4987 139.474 25.5547 139.218 26.44C138.962 27.3147 138.557 27.9867 138.002 28.456C137.448 28.9253 136.712 29.16 135.794 29.16C134.504 29.16 133.549 28.6427 132.93 27.608C132.322 26.5627 132.018 25.1173 132.018 23.272C132.018 22.0347 132.141 20.9787 132.386 20.104C132.642 19.2293 133.048 18.5627 133.602 18.104C134.157 17.6347 134.888 17.4 135.794 17.4C137.074 17.4 138.029 17.9173 138.658 18.952C139.288 19.976 139.602 21.416 139.602 23.272ZM133.426 23.272C133.426 24.84 133.602 26.0133 133.954 26.792C134.317 27.5707 134.93 27.96 135.794 27.96C136.648 27.96 137.256 27.576 137.618 26.808C137.992 26.0293 138.178 24.8507 138.178 23.272C138.178 21.7147 137.992 20.5467 137.618 19.768C137.256 18.9893 136.648 18.6 135.794 18.6C134.93 18.6 134.317 18.9893 133.954 19.768C133.602 20.5467 133.426 21.7147 133.426 23.272ZM143.143 23.192C143.143 23.3627 143.132 23.5867 143.111 23.864C143.1 24.1413 143.089 24.3813 143.079 24.584H143.143C143.207 24.4987 143.303 24.376 143.431 24.216C143.559 24.056 143.687 23.896 143.815 23.736C143.953 23.5653 144.071 23.4267 144.167 23.32L146.903 20.424H148.551L145.079 24.088L148.791 29H147.095L144.119 25L143.143 25.848V29H141.751V16.84H143.143V23.192ZM159.706 20.264C160.676 20.264 161.402 20.5147 161.882 21.016C162.362 21.5067 162.602 22.3067 162.602 23.416V29H161.21V23.48C161.21 22.1253 160.628 21.448 159.466 21.448C158.634 21.448 158.036 21.688 157.674 22.168C157.322 22.648 157.146 23.3467 157.146 24.264V29H155.754V23.48C155.754 22.1253 155.167 21.448 153.994 21.448C153.13 21.448 152.532 21.7147 152.202 22.248C151.871 22.7813 151.706 23.5493 151.706 24.552V29H150.298V20.424H151.434L151.642 21.592H151.722C151.988 21.144 152.346 20.8133 152.794 20.6C153.252 20.376 153.738 20.264 154.25 20.264C155.594 20.264 156.468 20.744 156.874 21.704H156.954C157.242 21.2133 157.631 20.8507 158.122 20.616C158.623 20.3813 159.151 20.264 159.706 20.264ZM179.327 15.832V30.216H180.639V15.832H179.327ZM173.071 16.936C170.943 16.936 169.423 18.888 169.423 21.944C169.423 25 170.943 26.952 173.071 26.952C175.199 26.952 176.719 25 176.719 21.944C176.719 18.888 175.199 16.936 173.071 16.936ZM173.071 18.12C174.463 18.12 175.455 19.624 175.455 21.944C175.455 24.28 174.463 25.784 173.071 25.784C171.663 25.784 170.671 24.28 170.671 21.944C170.671 19.624 171.663 18.12 173.071 18.12ZM185.63 17.576H184.318V26.456H185.23C186.782 26.456 188.43 26.376 190.366 26.008L190.238 24.872C188.526 25.208 187.006 25.304 185.63 25.32V17.576ZM194.526 15.832V21.672H192.494V16.152H191.262V29.448H192.494V22.76H194.526V30.168H195.79V15.832H194.526ZM203.113 17.384V18.44H208.345C208.105 21.8 206.329 24.536 202.473 26.424L203.193 27.448C207.961 25.096 209.657 21.464 209.657 17.384H203.113ZM212.985 15.848V21.592H209.625V22.664H212.985V30.184H214.297V15.848H212.985ZM219.351 22.296H224.647V17.16H217.991V18.232H223.319V21.224H218.039V26.728H219.223C221.687 26.728 223.863 26.632 226.455 26.2L226.327 25.128C223.815 25.528 221.703 25.64 219.351 25.64V22.296ZM227.671 15.816V30.2H228.983V15.816H227.671ZM244.118 20.872C241.622 20.488 239.094 18.776 239.094 16.904V16.2H237.75V16.904C237.75 18.824 235.238 20.52 232.694 20.904L233.206 21.928C235.414 21.56 237.542 20.344 238.422 18.664C239.334 20.312 241.446 21.528 243.622 21.896L244.118 20.872ZM234.87 25.736H233.558V29.864H243.494V28.792H234.87V25.736ZM231.894 23.144V24.2H237.846V27.096H239.174V24.2H244.918V23.144H231.894ZM258.465 19.56V20.632H261.297V24.392H262.625V15.848H261.297V19.56H258.465ZM259.265 22.824C257.185 22.088 255.777 20.28 255.777 18.44V17.944H258.929V16.888H251.265V17.944H254.465V18.44C254.465 20.504 252.993 22.44 250.849 23.224L251.537 24.264C253.217 23.624 254.545 22.28 255.153 20.616C255.777 22.088 257.009 23.272 258.609 23.848L259.265 22.824ZM257.889 29.16C255.729 29.16 254.417 28.552 254.417 27.512C254.417 26.472 255.729 25.848 257.889 25.848C260.049 25.848 261.361 26.472 261.361 27.512C261.361 28.552 260.049 29.16 257.889 29.16ZM257.889 24.84C254.945 24.84 253.105 25.816 253.105 27.512C253.105 29.208 254.945 30.184 257.889 30.184C260.833 30.184 262.657 29.208 262.657 27.512C262.657 25.816 260.833 24.84 257.889 24.84ZM268.352 20.488H275.68V23.128H268.352V20.488ZM272.672 27.272V24.184H276.96V16.856H275.68V19.416H268.352V16.856H267.056V24.184H271.344V27.272H265.52V28.344H278.528V27.272H272.672ZM288.603 18.584H291.163V17.512H284.619V18.584H287.339V19.88C287.339 22.52 286.219 25.128 284.219 26.328L285.019 27.304C286.443 26.408 287.483 24.728 287.979 22.76C288.475 24.584 289.467 26.12 290.859 26.952L291.659 25.992C289.675 24.872 288.603 22.376 288.603 19.88V18.584ZM292.443 20.984H290.075V22.056H292.443V29.432H293.691V16.152H292.443V20.984ZM295.323 15.816V30.168H296.587V15.816H295.323ZM309.146 17.784C309.146 18.904 309.146 19.96 308.762 21.432L310.042 21.576C310.442 20.104 310.442 18.936 310.442 17.784V16.568H300.666V17.624H309.146V17.784ZM305.546 29.144C303.306 29.144 301.866 28.536 301.866 27.544C301.866 26.52 303.306 25.912 305.546 25.912C307.802 25.912 309.242 26.52 309.242 27.544C309.242 28.536 307.802 29.144 305.546 29.144ZM305.546 24.904C302.49 24.904 300.554 25.88 300.554 27.544C300.554 29.176 302.49 30.168 305.546 30.168C308.602 30.168 310.554 29.176 310.554 27.544C310.554 25.88 308.602 24.904 305.546 24.904ZM305.754 22.52V19.768H304.442V22.52H299.146V23.592H312.058V22.52H305.754Z" fill="white"/>
</svg>
