<svg width="242" height="242" viewBox="0 0 242 242" fill="none" xmlns="http://www.w3.org/2000/svg">
<g opacity="0.12" clip-path="url(#clip0)">
<path d="M187.38 233.495L161.995 208.107C161.109 207.221 159.907 206.723 158.653 206.723C158.651 206.723 158.648 206.723 158.646 206.723L145.027 206.742C144.997 206.742 144.967 206.742 144.938 206.742C137.42 206.742 129.888 205.36 122.839 202.722L131.012 197.241C134.358 194.998 136.607 191.582 137.347 187.623C138.086 183.663 137.221 179.665 134.911 176.365C132.038 172.262 127.411 170.035 122.701 170.035C122.624 170.035 122.548 170.036 122.471 170.037L141.296 151.212C147.007 145.5 147.007 136.207 141.296 130.495C139.907 129.106 138.287 128.03 136.523 127.303C137.83 125.081 138.529 122.542 138.529 119.896C138.529 115.983 137.005 112.304 134.239 109.537C131.472 106.77 127.793 105.246 123.88 105.246C121.234 105.246 118.696 105.946 116.473 107.253C115.746 105.489 114.671 103.869 113.281 102.479C110.514 99.7124 106.835 98.1886 102.922 98.1886C99.0091 98.1886 95.3304 99.7124 92.5635 102.479L85.804 109.239C85.0851 107.655 84.0826 106.195 82.8159 104.928C80.049 102.161 76.3703 100.638 72.4572 100.638C68.544 100.638 64.8653 102.162 62.0984 104.928L59.1022 107.924L46.9214 95.8121C43.3831 92.2738 43.3831 86.5164 46.9214 82.978C50.2362 79.6633 55.4978 79.4544 59.0583 82.3494L70.8548 94.1464C71.7779 95.0695 72.9875 95.5309 74.197 95.5309C75.4065 95.5309 76.6165 95.0691 77.5392 94.1464C79.3849 92.3007 79.3849 89.3079 77.5392 87.4621L57.1885 67.1114C53.6502 63.5727 53.6502 57.8152 57.1885 54.2769C60.7268 50.7382 66.4847 50.7386 70.023 54.2769L105.679 90.0012C106.602 90.9243 107.811 91.3857 109.021 91.3857C110.23 91.3857 111.44 90.9239 112.363 90.0012C114.209 88.1555 114.209 85.1627 112.363 83.3169L85.2614 56.1463C82.3664 52.5853 82.5758 47.3242 85.89 44.0099C89.4288 40.4716 95.1867 40.4716 98.7246 44.0099L108.654 53.9399C110.5 55.7861 113.493 55.7861 115.338 53.9399C117.184 52.0942 117.185 49.1014 115.338 47.2556L105.409 37.3256C98.1843 30.1015 86.4298 30.102 79.2057 37.3256C76.8184 39.713 75.2255 42.5962 74.4158 45.6462C71.2864 43.3879 67.5411 42.1661 63.6057 42.1661C58.6565 42.1661 54.0037 44.0936 50.5042 47.5926C44.0014 54.0954 43.3557 64.2675 48.5597 71.5038C45.5091 72.313 42.625 73.9064 40.2371 76.2942C33.4195 83.1123 33.0395 93.9631 39.09 101.235C36.1071 102.059 33.2905 103.636 30.9504 105.976C23.7268 113.2 23.7268 124.955 30.9504 132.179L33.0598 134.289C25.0838 143.866 20.749 155.815 20.767 168.433L20.7783 176.262L1.38478 195.657C-0.460942 197.503 -0.460942 200.496 1.38478 202.342C2.30788 203.265 3.51741 203.727 4.72693 203.727C5.93646 203.727 7.14646 203.265 8.06908 202.342L28.8499 181.561C29.738 180.673 30.2362 179.468 30.2343 178.212L30.2201 168.421C30.2031 156.673 34.7694 145.628 43.0764 137.321L66.5324 113.864C66.5324 113.864 66.5324 113.864 66.5329 113.864L68.7827 111.614C69.764 110.632 71.0685 110.092 72.4567 110.092C73.8449 110.092 75.1494 110.632 76.1306 111.614C77.1123 112.595 77.6526 113.9 77.6526 115.288C77.6526 116.479 77.2518 117.609 76.5173 118.526L70.2692 124.774C68.4235 126.619 68.4235 129.612 70.2692 131.458C70.2735 131.463 70.2782 131.466 70.282 131.47C70.2862 131.474 70.2896 131.479 70.2938 131.483C71.2169 132.406 72.4264 132.867 73.636 132.867C74.8455 132.867 76.0555 132.406 76.9781 131.483L99.2468 109.165C100.228 108.183 101.533 107.643 102.921 107.643C104.309 107.643 105.614 108.183 106.595 109.165C108.481 111.051 108.609 114.037 106.983 116.075L84.301 138.806C82.4552 140.652 82.4552 143.645 84.301 145.491C85.2241 146.414 86.4336 146.875 87.6431 146.875C88.8527 146.875 90.0626 146.414 90.9853 145.491L120.204 116.222C121.186 115.241 122.49 114.7 123.878 114.7C125.267 114.7 126.571 115.241 127.552 116.222C129.578 118.248 129.578 121.544 127.552 123.57L98.284 152.789C96.4383 154.635 96.4378 157.627 98.284 159.474C100.13 161.319 103.123 161.319 104.968 159.474L127.7 136.792C129.738 135.165 132.724 135.294 134.61 137.18C136.636 139.206 136.636 142.502 134.61 144.528L102.699 176.44C100.451 178.688 100.243 182.134 102.205 184.636C104.166 187.137 107.564 187.756 110.282 186.108L119.923 180.264C122.354 178.79 125.535 179.459 127.165 181.788C128.007 182.99 128.321 184.446 128.052 185.889C127.783 187.33 126.963 188.574 125.745 189.391L103.441 204.348C96.1836 209.215 87.732 211.785 78.9945 211.785C78.9741 211.785 78.9529 211.785 78.9325 211.785L63.7834 211.764C63.7811 211.764 63.7792 211.764 63.7768 211.764C62.5233 211.764 61.3209 212.262 60.4347 213.148L39.6534 233.929C37.8077 235.775 37.8077 238.768 39.6534 240.614C40.5765 241.537 41.786 241.999 42.9955 241.999C44.2051 241.999 45.4151 241.537 46.3377 240.614L65.7317 221.22L78.9193 221.239C78.9444 221.239 78.9685 221.239 78.994 221.239C89.6122 221.239 99.8859 218.114 108.706 212.199L113.482 208.997C123.242 213.706 134.101 216.197 144.935 216.197C144.969 216.197 145.004 216.197 145.038 216.197L156.696 216.18L180.695 240.18C181.619 241.102 182.828 241.564 184.038 241.564C185.247 241.564 186.457 241.102 187.38 240.18C189.225 238.334 189.225 235.341 187.38 233.495ZM49.3244 117.704C49.3239 117.705 49.3239 117.705 49.3235 117.705L39.5839 127.445L37.6351 125.496C34.0968 121.957 34.0968 116.2 37.6351 112.661C40.9499 109.347 46.2115 109.138 49.772 112.033L52.3839 114.645L49.3244 117.704Z" fill="white"/>
<path d="M240.615 180.263C239.736 179.379 238.517 178.878 237.273 178.878C236.03 178.878 234.811 179.379 233.932 180.263C233.053 181.142 232.547 182.356 232.547 183.604C232.547 184.847 233.053 186.067 233.932 186.945C234.811 187.825 236.03 188.331 237.273 188.331C238.517 188.331 239.736 187.825 240.615 186.945C241.494 186.062 242 184.847 242 183.604C242 182.356 241.494 181.142 240.615 180.263Z" fill="white"/>
<path d="M227.906 167.551L216.616 156.261L216.643 137.151C216.664 122.712 212.424 108.742 204.382 96.7493L183.579 65.7251C180.737 61.4873 176.41 58.6376 171.394 57.7008C166.379 56.764 161.315 57.8601 157.136 60.7868C150.288 65.5819 147.565 74.2334 149.986 81.9027L137.634 69.5494C135.788 67.7041 132.795 67.7041 130.949 69.5494C129.103 71.3951 129.103 74.3879 130.949 76.2341L157.486 102.771C159.941 105.226 163.706 105.453 166.438 103.31C169.17 101.167 169.847 97.4559 168.047 94.4862L159.917 81.076C157.365 76.8656 158.524 71.3549 162.558 68.5308C164.639 67.0736 167.163 66.5277 169.659 66.9942C172.157 67.4607 174.312 68.8801 175.727 70.9905L196.531 102.015C203.522 112.441 207.208 124.585 207.19 137.137L207.16 158.209C207.158 159.465 207.656 160.67 208.544 161.559L221.221 174.236C222.144 175.158 223.354 175.62 224.564 175.62C225.773 175.62 226.983 175.158 227.906 174.236C229.751 172.39 229.751 169.397 227.906 167.551Z" fill="white"/>
<path d="M126.521 58.4401C125.646 57.5609 124.427 57.0552 123.184 57.0552C121.936 57.0552 120.721 57.5609 119.838 58.4401C118.958 59.3192 118.453 60.5387 118.453 61.7817C118.453 63.0296 118.958 64.2443 119.838 65.1234C120.721 66.0026 121.936 66.5083 123.184 66.5083C124.427 66.5083 125.642 66.0026 126.521 65.1234C127.405 64.2443 127.91 63.0248 127.91 61.7817C127.91 60.5387 127.405 59.3192 126.521 58.4401Z" fill="white"/>
<path d="M170.385 131.788C172.231 129.942 172.231 126.949 170.385 125.103C168.54 123.258 165.547 123.258 163.701 125.103L161.639 127.165C152.812 135.992 152.812 150.354 161.639 159.18C162.562 160.103 163.771 160.565 164.981 160.565C166.19 160.565 167.401 160.103 168.323 159.18C170.169 157.335 170.169 154.342 168.323 152.496C163.183 147.355 163.183 138.99 168.323 133.849L170.385 131.788Z" fill="white"/>
<path d="M225.599 25.5244C222.594 25.5244 219.657 26.3771 217.117 27.9364C214.578 26.3771 211.641 25.5244 208.636 25.5244C199.592 25.5244 192.234 33.017 192.234 42.2257C192.234 47.4448 195.987 53.7127 203.706 61.3886C208.904 66.5566 214.03 70.4901 214.246 70.655C215.093 71.3031 216.105 71.6268 217.117 71.6268C218.129 71.6268 219.141 71.3031 219.988 70.655C220.204 70.4901 225.331 66.5562 230.529 61.3886C238.248 53.7132 242 47.4448 242 42.2257C242 33.0165 234.643 25.5244 225.599 25.5244ZM217.116 60.8536C209.217 54.2931 201.688 45.9224 201.688 42.2257C201.688 38.2289 204.805 34.9775 208.636 34.9775C210.542 34.9775 212.32 35.7673 213.643 37.2023C214.539 38.1722 215.798 38.7238 217.117 38.7238C218.437 38.7238 219.697 38.1722 220.591 37.2023C221.915 35.7678 223.693 34.9775 225.599 34.9775C229.43 34.9775 232.547 38.2289 232.547 42.2257C232.547 45.9129 225.015 54.286 217.116 60.8536Z" fill="white"/>
<path d="M33.3643 0.00195315C30.3597 0.00195315 27.4226 0.854625 24.883 2.41392C22.3434 0.854625 19.4063 0.00195315 16.4016 0.00195315C7.35784 0.00148049 0 7.49356 0 16.7028C0 21.9219 3.75242 28.1898 11.4718 35.8657C16.6692 41.0337 21.7965 44.9676 22.0121 45.1326C22.8591 45.7806 23.871 46.1044 24.883 46.1044C25.8949 46.1044 26.9064 45.7806 27.7539 45.1326C27.9699 44.9676 33.0968 41.0337 38.2941 35.8662C46.0136 28.1902 49.766 21.9223 49.766 16.7033C49.766 7.49403 42.4081 0.00195315 33.3643 0.00195315ZM24.8816 35.3306C16.9821 28.7702 9.45312 20.3999 9.45312 16.7028C9.45312 12.706 12.5703 9.45461 16.4016 9.45461C18.3074 9.45461 20.0855 10.2444 21.409 11.6794C22.3042 12.6493 23.5633 13.2009 24.883 13.2009C26.2026 13.2009 27.4623 12.6493 28.357 11.6794C29.6804 10.2449 31.4586 9.45461 33.3643 9.45461C37.1957 9.45461 40.3128 12.706 40.3128 16.7028C40.3128 20.3895 32.7811 28.7631 24.8816 35.3306Z" fill="white"/>
</g>
<defs>
<clipPath id="clip0">
<rect width="242" height="242" fill="white"/>
</clipPath>
</defs>
</svg>
