<svg width="70" height="70" viewBox="0 0 70 70" fill="none" xmlns="http://www.w3.org/2000/svg">
<g clip-path="url(#clip0_27_1668)">
<path fill-rule="evenodd" clip-rule="evenodd" d="M1.14214 1.13896C2.66076 -0.379654 5.12292 -0.379654 6.64154 1.13896L35.0012 29.4986L63.3608 1.13896C64.8794 -0.379654 67.3415 -0.379654 68.8602 1.13896C70.3788 2.65758 70.3788 5.11975 68.8602 6.63836L40.5006 34.998L68.8602 63.3576C70.3788 64.8762 70.3788 67.3384 68.8602 68.857C67.3415 70.3756 64.8794 70.3756 63.3608 68.857L35.0012 40.4974L6.64154 68.857C5.12292 70.3756 2.66076 70.3756 1.14214 68.857C-0.376481 67.3384 -0.376481 64.8762 1.14214 63.3576L29.5017 34.998L1.14214 6.63836C-0.376481 5.11975 -0.376481 2.65758 1.14214 1.13896Z" fill="white"/>
</g>
<defs>
<clipPath id="clip0_27_1668">
<rect width="70" height="69.996" fill="white"/>
</clipPath>
</defs>
</svg>
