<svg width="453" height="167" viewBox="0 0 453 167" fill="none" xmlns="http://www.w3.org/2000/svg">
<mask id="mask0_14_2893" style="mask-type:alpha" maskUnits="userSpaceOnUse" x="0" y="0" width="453" height="167">
<rect width="453" height="167" fill="#C4C4C4"/>
</mask>
<g mask="url(#mask0_14_2893)">
<g clip-path="url(#clip0_14_2893)">
<path d="M80 39.571V-1H0V108.706C0.363782 112.96 2.65347 121 14.9044 121H80V80.4184H45.323V39.571H80Z" fill="url(#paint0_linear_14_2893)" fill-opacity="0.3"/>
</g>
<path opacity="0.3" d="M449.214 126C451.542 126.002 453.428 127.886 453.428 130.214C453.428 132.542 451.542 134.426 449.214 134.428C446.886 134.428 445 132.542 445 130.214C445 127.886 446.886 126.002 449.214 126ZM449.214 127.406C447.663 127.408 446.41 128.663 446.406 130.214C446.41 131.764 447.663 133.018 449.214 133.022C450.764 133.02 452.018 131.764 452.022 130.214C452.018 128.663 450.764 127.41 449.214 127.406Z" fill="#2F80ED"/>
<path opacity="0.3" d="M228.492 90.9189V90.2159L229.035 90.6638L228.492 90.2159V90.9189H227L238.477 77L249.955 90.9189H228.492ZM246.972 89.5129L238.477 79.2094L229.981 89.5129H246.972Z" fill="#2F80ED"/>
<circle opacity="0.4" cx="421" cy="119" r="9" fill="#2F80ED"/>
<g opacity="0.3">
<path d="M302.558 3.64063C302.558 3.38006 302.448 3.14614 302.276 2.97736C302.155 3.48665 302.036 3.99892 301.93 4.51414C302.294 4.38977 302.558 4.04925 302.558 3.64063Z" fill="#2F80ED"/>
<path d="M395.667 32.4898C395.596 32.5935 395.546 32.7149 395.522 32.8452C395.573 32.7267 395.623 32.6083 395.667 32.4898Z" fill="#2F80ED"/>
<path d="M302.558 10.9836C302.558 10.4714 302.143 10.0538 301.628 10.0538C301.432 10.0538 301.252 10.1131 301.104 10.2167C301.062 10.6964 301.027 11.179 301 11.6617C301.166 11.8157 301.385 11.9104 301.628 11.9104C302.14 11.9134 302.558 11.4959 302.558 10.9836Z" fill="#2F80ED"/>
<path d="M363.887 61.5586C364.411 61.4046 364.933 61.2417 365.451 61.07C365.282 60.9042 365.054 60.8005 364.799 60.8005C364.346 60.8005 363.967 61.1263 363.887 61.5586Z" fill="#2F80ED"/>
<path d="M377.454 53.4573C376.942 53.4573 376.524 53.8719 376.524 54.3871C376.524 54.8312 376.838 55.2043 377.256 55.2932C377.629 55.0415 377.999 54.7898 378.366 54.5292C378.372 54.4818 378.381 54.4345 378.381 54.3871C378.381 53.8748 377.966 53.4573 377.454 53.4573Z" fill="#2F80ED"/>
<path d="M334.193 10.9836C334.193 10.4714 333.779 10.0538 333.267 10.0538C332.754 10.0538 332.337 10.4684 332.337 10.9836C332.337 11.4959 332.751 11.9104 333.267 11.9104C333.776 11.9134 334.193 11.4959 334.193 10.9836Z" fill="#2F80ED"/>
<path d="M359.401 25.6708C359.401 25.1585 358.987 24.741 358.472 24.741C357.959 24.741 357.542 25.1585 357.542 25.6708C357.542 26.183 357.956 26.5976 358.472 26.5976C358.984 26.5976 359.401 26.183 359.401 25.6708Z" fill="#2F80ED"/>
<path d="M353.074 25.6708C353.074 25.1585 352.659 24.741 352.144 24.741C351.632 24.741 351.214 25.1585 351.214 25.6708C351.214 26.183 351.629 26.5976 352.144 26.5976C352.659 26.5976 353.074 26.183 353.074 25.6708Z" fill="#2F80ED"/>
<path d="M372.053 25.6708C372.053 25.1585 371.639 24.741 371.123 24.741C370.611 24.741 370.194 25.1585 370.194 25.6708C370.194 26.183 370.611 26.5976 371.123 26.5976C371.639 26.5976 372.053 26.183 372.053 25.6708Z" fill="#2F80ED"/>
<path d="M378.381 25.6708C378.381 25.1585 377.966 24.741 377.451 24.741C376.939 24.741 376.521 25.1585 376.521 25.6708C376.521 26.183 376.939 26.5976 377.451 26.5976C377.966 26.5976 378.381 26.183 378.381 25.6708Z" fill="#2F80ED"/>
<path d="M315.211 25.6708C315.211 25.1585 314.796 24.741 314.281 24.741C313.769 24.741 313.351 25.1585 313.351 25.6708C313.351 26.183 313.766 26.5976 314.281 26.5976C314.796 26.5976 315.211 26.183 315.211 25.6708Z" fill="#2F80ED"/>
<path d="M346.746 25.6708C346.746 25.1585 346.332 24.741 345.816 24.741C345.304 24.741 344.887 25.1585 344.887 25.6708C344.887 26.183 345.301 26.5976 345.816 26.5976C346.332 26.5976 346.746 26.183 346.746 25.6708Z" fill="#2F80ED"/>
<path d="M327.866 25.6708C327.866 25.1585 327.448 24.741 326.936 24.741C326.424 24.741 326.006 25.1585 326.006 25.6708C326.006 26.183 326.421 26.5976 326.936 26.5976C327.448 26.5976 327.866 26.183 327.866 25.6708Z" fill="#2F80ED"/>
<path d="M340.625 25.6708C340.625 25.1585 340.207 24.741 339.695 24.741C339.182 24.741 338.765 25.1585 338.765 25.6708C338.765 26.183 339.18 26.5976 339.695 26.5976C340.207 26.5976 340.625 26.183 340.625 25.6708Z" fill="#2F80ED"/>
<path d="M321.539 25.6708C321.539 25.1585 321.124 24.741 320.609 24.741C320.097 24.741 319.679 25.1585 319.679 25.6708C319.679 26.183 320.097 26.5976 320.609 26.5976C321.124 26.5976 321.539 26.183 321.539 25.6708Z" fill="#2F80ED"/>
<path d="M334.193 25.6708C334.193 25.1585 333.779 24.741 333.267 24.741C332.754 24.741 332.337 25.1585 332.337 25.6708C332.337 26.183 332.751 26.5976 333.267 26.5976C333.776 26.5976 334.193 26.183 334.193 25.6708Z" fill="#2F80ED"/>
<path d="M365.729 25.6708C365.729 25.1585 365.314 24.741 364.799 24.741C364.286 24.741 363.869 25.1585 363.869 25.6708C363.869 26.183 364.284 26.5976 364.799 26.5976C365.311 26.5976 365.729 26.183 365.729 25.6708Z" fill="#2F80ED"/>
<path d="M327.866 33.0114C327.866 32.4992 327.448 32.0817 326.936 32.0817C326.424 32.0817 326.006 32.4962 326.006 33.0114C326.006 33.5237 326.421 33.9412 326.936 33.9412C327.448 33.9412 327.866 33.5237 327.866 33.0114Z" fill="#2F80ED"/>
<path d="M334.193 33.0114C334.193 32.4992 333.779 32.0817 333.267 32.0817C332.754 32.0817 332.337 32.4962 332.337 33.0114C332.337 33.5237 332.751 33.9412 333.267 33.9412C333.776 33.9412 334.193 33.5237 334.193 33.0114Z" fill="#2F80ED"/>
<path d="M340.625 33.0114C340.625 32.4992 340.207 32.0817 339.695 32.0817C339.182 32.0817 338.765 32.4962 338.765 33.0114C338.765 33.5237 339.18 33.9412 339.695 33.9412C340.207 33.9412 340.625 33.5237 340.625 33.0114Z" fill="#2F80ED"/>
<path d="M321.539 33.0114C321.539 32.4992 321.124 32.0817 320.609 32.0817C320.097 32.0817 319.679 32.4962 319.679 33.0114C319.679 33.5237 320.097 33.9412 320.609 33.9412C321.124 33.9412 321.539 33.5237 321.539 33.0114Z" fill="#2F80ED"/>
<path d="M397.365 25.6708C397.365 25.1585 396.95 24.741 396.435 24.741C395.923 24.741 395.508 25.1585 395.508 25.6708C395.508 26.183 395.923 26.5976 396.435 26.5976C396.947 26.5976 397.365 26.183 397.365 25.6708Z" fill="#2F80ED"/>
<path d="M391.037 25.6708C391.037 25.1585 390.623 24.741 390.11 24.741C389.598 24.741 389.181 25.1585 389.181 25.6708C389.181 26.183 389.595 26.5976 390.11 26.5976C390.623 26.5976 391.037 26.183 391.037 25.6708Z" fill="#2F80ED"/>
<path d="M384.708 25.6708C384.708 25.1585 384.294 24.741 383.779 24.741C383.266 24.741 382.849 25.1585 382.849 25.6708C382.849 26.183 383.264 26.5976 383.779 26.5976C384.294 26.5976 384.708 26.183 384.708 25.6708Z" fill="#2F80ED"/>
<path d="M315.211 33.0114C315.211 32.4992 314.796 32.0817 314.281 32.0817C313.769 32.0817 313.351 32.4962 313.351 33.0114C313.351 33.5237 313.766 33.9412 314.281 33.9412C314.796 33.9412 315.211 33.5237 315.211 33.0114Z" fill="#2F80ED"/>
<path d="M308.883 33.0114C308.883 32.4992 308.469 32.0817 307.954 32.0817C307.441 32.0817 307.027 32.4962 307.027 33.0114C307.027 33.5237 307.441 33.9412 307.954 33.9412C308.469 33.9412 308.883 33.5237 308.883 33.0114Z" fill="#2F80ED"/>
<path d="M340.625 18.3272C340.625 17.8149 340.207 17.3974 339.695 17.3974C339.182 17.3974 338.765 17.812 338.765 18.3272C338.765 18.8424 339.18 19.2569 339.695 19.2569C340.207 19.2569 340.625 18.8394 340.625 18.3272Z" fill="#2F80ED"/>
<path d="M327.866 18.3272C327.866 17.8149 327.448 17.3974 326.936 17.3974C326.424 17.3974 326.006 17.812 326.006 18.3272C326.006 18.8424 326.421 19.2569 326.936 19.2569C327.448 19.2569 327.866 18.8394 327.866 18.3272Z" fill="#2F80ED"/>
<path d="M321.539 18.3272C321.539 17.8149 321.124 17.3974 320.609 17.3974C320.097 17.3974 319.679 17.812 319.679 18.3272C319.679 18.8424 320.097 19.2569 320.609 19.2569C321.124 19.2569 321.539 18.8394 321.539 18.3272Z" fill="#2F80ED"/>
<path d="M315.211 18.3272C315.211 17.8149 314.796 17.3974 314.281 17.3974C313.769 17.3974 313.351 17.812 313.351 18.3272C313.351 18.8424 313.766 19.2569 314.281 19.2569C314.796 19.2569 315.211 18.8394 315.211 18.3272Z" fill="#2F80ED"/>
<path d="M334.193 18.3272C334.193 17.8149 333.779 17.3974 333.267 17.3974C332.754 17.3974 332.337 17.812 332.337 18.3272C332.337 18.8424 332.751 19.2569 333.267 19.2569C333.776 19.2569 334.193 18.8394 334.193 18.3272Z" fill="#2F80ED"/>
<path d="M384.708 10.9836C384.708 10.4714 384.294 10.0538 383.779 10.0538C383.266 10.0538 382.849 10.4684 382.849 10.9836C382.849 11.4959 383.264 11.9104 383.779 11.9104C384.294 11.9134 384.708 11.4959 384.708 10.9836Z" fill="#2F80ED"/>
<path d="M346.746 33.0114C346.746 32.4992 346.332 32.0817 345.816 32.0817C345.304 32.0817 344.887 32.4962 344.887 33.0114C344.887 33.5237 345.301 33.9412 345.816 33.9412C346.332 33.9412 346.746 33.5237 346.746 33.0114Z" fill="#2F80ED"/>
<path d="M391.037 10.9836C391.037 10.4714 390.623 10.0538 390.11 10.0538C389.598 10.0538 389.181 10.4684 389.181 10.9836C389.181 11.4959 389.595 11.9104 390.11 11.9104C390.623 11.9134 391.037 11.4959 391.037 10.9836Z" fill="#2F80ED"/>
<path d="M308.883 18.3272C308.883 17.8149 308.469 17.3974 307.954 17.3974C307.441 17.3974 307.027 17.812 307.027 18.3272C307.027 18.8424 307.441 19.2569 307.954 19.2569C308.469 19.2569 308.883 18.8394 308.883 18.3272Z" fill="#2F80ED"/>
<path d="M397.365 10.9836C397.365 10.4714 396.95 10.0538 396.435 10.0538C395.923 10.0538 395.508 10.4684 395.508 10.9836C395.508 11.4959 395.923 11.9104 396.435 11.9104C396.947 11.9134 397.365 11.4959 397.365 10.9836Z" fill="#2F80ED"/>
<path d="M346.746 18.3272C346.746 17.8149 346.332 17.3974 345.816 17.3974C345.304 17.3974 344.887 17.812 344.887 18.3272C344.887 18.8424 345.301 19.2569 345.816 19.2569C346.332 19.2569 346.746 18.8394 346.746 18.3272Z" fill="#2F80ED"/>
<path d="M378.381 10.9836C378.381 10.4714 377.966 10.0538 377.451 10.0538C376.939 10.0538 376.521 10.4684 376.521 10.9836C376.521 11.4959 376.939 11.9104 377.451 11.9104C377.966 11.9134 378.381 11.4959 378.381 10.9836Z" fill="#2F80ED"/>
<path d="M391.037 18.3272C391.037 17.8149 390.623 17.3974 390.11 17.3974C389.598 17.3974 389.181 17.812 389.181 18.3272C389.181 18.8424 389.595 19.257 390.11 19.257C390.623 19.257 391.037 18.8395 391.037 18.3272Z" fill="#2F80ED"/>
<path d="M397.365 18.3272C397.365 17.8149 396.95 17.3974 396.435 17.3974C395.923 17.3974 395.508 17.812 395.508 18.3272C395.508 18.8424 395.923 19.257 396.435 19.257C396.947 19.257 397.365 18.8395 397.365 18.3272Z" fill="#2F80ED"/>
<path d="M378.381 18.3272C378.381 17.8149 377.966 17.3974 377.451 17.3974C376.939 17.3974 376.521 17.812 376.521 18.3272C376.521 18.8424 376.939 19.257 377.451 19.257C377.966 19.257 378.381 18.8395 378.381 18.3272Z" fill="#2F80ED"/>
<path d="M384.708 18.3272C384.708 17.8149 384.294 17.3974 383.779 17.3974C383.266 17.3974 382.849 17.812 382.849 18.3272C382.849 18.8424 383.264 19.257 383.779 19.257C384.294 19.257 384.708 18.8395 384.708 18.3272Z" fill="#2F80ED"/>
<path d="M359.401 18.3272C359.401 17.8149 358.987 17.3974 358.472 17.3974C357.959 17.3974 357.542 17.812 357.542 18.3272C357.542 18.8424 357.956 19.257 358.472 19.257C358.984 19.257 359.401 18.8395 359.401 18.3272Z" fill="#2F80ED"/>
<path d="M353.074 18.3272C353.074 17.8149 352.659 17.3974 352.144 17.3974C351.632 17.3974 351.214 17.812 351.214 18.3272C351.214 18.8424 351.629 19.2569 352.144 19.2569C352.659 19.2569 353.074 18.8394 353.074 18.3272Z" fill="#2F80ED"/>
<path d="M372.053 18.3272C372.053 17.8149 371.639 17.3974 371.123 17.3974C370.611 17.3974 370.194 17.812 370.194 18.3272C370.194 18.8424 370.611 19.257 371.123 19.257C371.639 19.257 372.053 18.8395 372.053 18.3272Z" fill="#2F80ED"/>
<path d="M365.729 18.3272C365.729 17.8149 365.314 17.3974 364.799 17.3974C364.286 17.3974 363.869 17.812 363.869 18.3272C363.869 18.8424 364.284 19.257 364.799 19.257C365.311 19.257 365.729 18.8395 365.729 18.3272Z" fill="#2F80ED"/>
<path d="M308.883 25.6708C308.883 25.1585 308.469 24.741 307.954 24.741C307.441 24.741 307.027 25.1585 307.027 25.6708C307.027 26.183 307.441 26.5976 307.954 26.5976C308.469 26.5976 308.883 26.183 308.883 25.6708Z" fill="#2F80ED"/>
<path d="M359.401 47.0434C359.401 46.5312 358.987 46.1166 358.472 46.1166C357.959 46.1166 357.542 46.5312 357.542 47.0434C357.542 47.5557 357.956 47.9732 358.472 47.9732C358.984 47.9732 359.401 47.5557 359.401 47.0434Z" fill="#2F80ED"/>
<path d="M353.074 47.0434C353.074 46.5312 352.659 46.1166 352.144 46.1166C351.632 46.1166 351.214 46.5312 351.214 47.0434C351.214 47.5557 351.629 47.9732 352.144 47.9732C352.659 47.9732 353.074 47.5557 353.074 47.0434Z" fill="#2F80ED"/>
<path d="M365.729 47.0434C365.729 46.5312 365.314 46.1166 364.799 46.1166C364.286 46.1166 363.869 46.5312 363.869 47.0434C363.869 47.5557 364.284 47.9732 364.799 47.9732C365.311 47.9732 365.729 47.5557 365.729 47.0434Z" fill="#2F80ED"/>
<path d="M372.053 47.0434C372.053 46.5312 371.639 46.1166 371.123 46.1166C370.611 46.1166 370.194 46.5312 370.194 47.0434C370.194 47.5557 370.611 47.9732 371.123 47.9732C371.639 47.9732 372.053 47.5557 372.053 47.0434Z" fill="#2F80ED"/>
<path d="M384.708 47.0434C384.708 46.5312 384.294 46.1166 383.779 46.1166C383.266 46.1166 382.849 46.5312 382.849 47.0434C382.849 47.5557 383.264 47.9732 383.779 47.9732C384.294 47.9732 384.708 47.5557 384.708 47.0434Z" fill="#2F80ED"/>
<path d="M378.381 47.0434C378.381 46.5312 377.966 46.1166 377.451 46.1166C376.939 46.1166 376.521 46.5312 376.521 47.0434C376.521 47.5557 376.939 47.9732 377.451 47.9732C377.966 47.9732 378.381 47.5557 378.381 47.0434Z" fill="#2F80ED"/>
<path d="M346.746 47.0434C346.746 46.5312 346.332 46.1166 345.816 46.1166C345.304 46.1166 344.887 46.5312 344.887 47.0434C344.887 47.5557 345.301 47.9732 345.816 47.9732C346.332 47.9732 346.746 47.5557 346.746 47.0434Z" fill="#2F80ED"/>
<path d="M321.539 47.0434C321.539 46.5312 321.124 46.1166 320.609 46.1166C320.097 46.1166 319.679 46.5312 319.679 47.0434C319.679 47.5557 320.097 47.9732 320.609 47.9732C321.124 47.9732 321.539 47.5557 321.539 47.0434Z" fill="#2F80ED"/>
<path d="M327.866 47.0434C327.866 46.5312 327.448 46.1166 326.936 46.1166C326.424 46.1166 326.006 46.5312 326.006 47.0434C326.006 47.5557 326.421 47.9732 326.936 47.9732C327.448 47.9732 327.866 47.5557 327.866 47.0434Z" fill="#2F80ED"/>
<path d="M340.625 47.0434C340.625 46.5312 340.207 46.1166 339.695 46.1166C339.182 46.1166 338.765 46.5312 338.765 47.0434C338.765 47.5557 339.18 47.9732 339.695 47.9732C340.207 47.9732 340.625 47.5557 340.625 47.0434Z" fill="#2F80ED"/>
<path d="M334.193 47.0434C334.193 46.5312 333.779 46.1166 333.267 46.1166C332.754 46.1166 332.337 46.5312 332.337 47.0434C332.337 47.5557 332.751 47.9732 333.267 47.9732C333.776 47.9732 334.193 47.5557 334.193 47.0434Z" fill="#2F80ED"/>
<path d="M365.729 54.3871C365.729 53.8748 365.314 53.4573 364.799 53.4573C364.286 53.4573 363.869 53.8719 363.869 54.3871C363.869 54.8994 364.284 55.3169 364.799 55.3169C365.311 55.3169 365.729 54.8994 365.729 54.3871Z" fill="#2F80ED"/>
<path d="M372.053 54.3871C372.053 53.8748 371.639 53.4573 371.123 53.4573C370.611 53.4573 370.194 53.8719 370.194 54.3871C370.194 54.8994 370.611 55.3169 371.123 55.3169C371.639 55.3169 372.053 54.8994 372.053 54.3871Z" fill="#2F80ED"/>
<path d="M359.401 54.3871C359.401 53.8748 358.987 53.4573 358.472 53.4573C357.959 53.4573 357.542 53.8719 357.542 54.3871C357.542 54.8994 357.956 55.3169 358.472 55.3169C358.984 55.3169 359.401 54.8994 359.401 54.3871Z" fill="#2F80ED"/>
<path d="M340.625 61.7303C340.625 61.218 340.207 60.8005 339.695 60.8005C339.182 60.8005 338.765 61.2151 338.765 61.7303C338.765 61.9524 338.845 62.1508 338.975 62.3107C339.351 62.3965 339.727 62.4794 340.109 62.5564C340.411 62.4054 340.625 62.0945 340.625 61.7303Z" fill="#2F80ED"/>
<path d="M340.625 54.3871C340.625 53.8748 340.207 53.4573 339.695 53.4573C339.182 53.4573 338.765 53.8719 338.765 54.3871C338.765 54.8994 339.18 55.3169 339.695 55.3169C340.207 55.3169 340.625 54.8994 340.625 54.3871Z" fill="#2F80ED"/>
<path d="M353.074 54.3871C353.074 53.8748 352.659 53.4573 352.144 53.4573C351.632 53.4573 351.214 53.8719 351.214 54.3871C351.214 54.8994 351.629 55.3169 352.144 55.3169C352.659 55.3169 353.074 54.8994 353.074 54.3871Z" fill="#2F80ED"/>
<path d="M327.866 54.3871C327.866 53.8748 327.448 53.4573 326.936 53.4573C326.424 53.4573 326.006 53.8719 326.006 54.3871C326.006 54.8994 326.421 55.3169 326.936 55.3169C327.448 55.3169 327.866 54.8994 327.866 54.3871Z" fill="#2F80ED"/>
<path d="M334.193 54.3871C334.193 53.8748 333.779 53.4573 333.267 53.4573C332.754 53.4573 332.337 53.8719 332.337 54.3871C332.337 54.8994 332.751 55.3169 333.267 55.3169C333.776 55.3169 334.193 54.8994 334.193 54.3871Z" fill="#2F80ED"/>
<path d="M302.558 18.3272C302.558 17.8149 302.143 17.3974 301.628 17.3974C301.394 17.3974 301.184 17.4862 301.021 17.6284C301.053 18.1258 301.092 18.6203 301.136 19.1119C301.278 19.2007 301.444 19.254 301.625 19.254C302.14 19.2569 302.558 18.8394 302.558 18.3272Z" fill="#2F80ED"/>
<path d="M365.729 39.7C365.729 39.1877 365.314 38.7702 364.799 38.7702C364.286 38.7702 363.869 39.1877 363.869 39.7C363.869 40.2122 364.284 40.6297 364.799 40.6297C365.311 40.6297 365.729 40.2152 365.729 39.7Z" fill="#2F80ED"/>
<path d="M315.211 39.7C315.211 39.1877 314.796 38.7702 314.281 38.7702C313.769 38.7702 313.351 39.1877 313.351 39.7C313.351 40.2122 313.766 40.6297 314.281 40.6297C314.796 40.6297 315.211 40.2152 315.211 39.7Z" fill="#2F80ED"/>
<path d="M391.037 33.0114C391.037 32.4992 390.623 32.0817 390.11 32.0817C389.598 32.0817 389.181 32.4962 389.181 33.0114C389.181 33.5237 389.595 33.9412 390.11 33.9412C390.623 33.9412 391.037 33.5237 391.037 33.0114Z" fill="#2F80ED"/>
<path d="M327.866 39.7C327.866 39.1877 327.448 38.7702 326.936 38.7702C326.424 38.7702 326.006 39.1877 326.006 39.7C326.006 40.2122 326.421 40.6297 326.936 40.6297C327.448 40.6297 327.866 40.2152 327.866 39.7Z" fill="#2F80ED"/>
<path d="M321.539 39.7C321.539 39.1877 321.124 38.7702 320.609 38.7702C320.097 38.7702 319.679 39.1877 319.679 39.7C319.679 40.2122 320.097 40.6297 320.609 40.6297C321.124 40.6297 321.539 40.2152 321.539 39.7Z" fill="#2F80ED"/>
<path d="M384.708 33.0114C384.708 32.4992 384.294 32.0817 383.779 32.0817C383.266 32.0817 382.849 32.4962 382.849 33.0114C382.849 33.5237 383.264 33.9412 383.779 33.9412C384.294 33.9412 384.708 33.5237 384.708 33.0114Z" fill="#2F80ED"/>
<path d="M365.729 33.0114C365.729 32.4992 365.314 32.0817 364.799 32.0817C364.286 32.0817 363.869 32.4962 363.869 33.0114C363.869 33.5237 364.284 33.9412 364.799 33.9412C365.311 33.9412 365.729 33.5237 365.729 33.0114Z" fill="#2F80ED"/>
<path d="M359.401 33.0114C359.401 32.4992 358.987 32.0817 358.472 32.0817C357.959 32.0817 357.542 32.4962 357.542 33.0114C357.542 33.5237 357.956 33.9412 358.472 33.9412C358.984 33.9412 359.401 33.5237 359.401 33.0114Z" fill="#2F80ED"/>
<path d="M372.053 33.0114C372.053 32.4992 371.639 32.0817 371.123 32.0817C370.611 32.0817 370.194 32.4962 370.194 33.0114C370.194 33.5237 370.611 33.9412 371.123 33.9412C371.639 33.9412 372.053 33.5237 372.053 33.0114Z" fill="#2F80ED"/>
<path d="M391.037 39.7C391.037 39.1877 390.623 38.7702 390.11 38.7702C389.598 38.7702 389.181 39.1877 389.181 39.7C389.181 40.2122 389.595 40.6297 390.11 40.6297C390.623 40.6297 391.037 40.2152 391.037 39.7Z" fill="#2F80ED"/>
<path d="M378.381 33.0114C378.381 32.4992 377.966 32.0817 377.451 32.0817C376.939 32.0817 376.521 32.4962 376.521 33.0114C376.521 33.5237 376.939 33.9412 377.451 33.9412C377.966 33.9412 378.381 33.5237 378.381 33.0114Z" fill="#2F80ED"/>
<path d="M372.053 39.7C372.053 39.1877 371.639 38.7702 371.123 38.7702C370.611 38.7702 370.194 39.1877 370.194 39.7C370.194 40.2122 370.611 40.6297 371.123 40.6297C371.639 40.6297 372.053 40.2152 372.053 39.7Z" fill="#2F80ED"/>
<path d="M378.381 39.7C378.381 39.1877 377.966 38.7702 377.451 38.7702C376.939 38.7702 376.521 39.1877 376.521 39.7C376.521 40.2122 376.939 40.6297 377.451 40.6297C377.966 40.6297 378.381 40.2152 378.381 39.7Z" fill="#2F80ED"/>
<path d="M384.708 39.7C384.708 39.1877 384.294 38.7702 383.779 38.7702C383.266 38.7702 382.849 39.1877 382.849 39.7C382.849 40.2122 383.264 40.6297 383.779 40.6297C384.294 40.6297 384.708 40.2152 384.708 39.7Z" fill="#2F80ED"/>
<path d="M353.074 33.0114C353.074 32.4992 352.659 32.0817 352.144 32.0817C351.632 32.0817 351.214 32.4962 351.214 33.0114C351.214 33.5237 351.629 33.9412 352.144 33.9412C352.659 33.9412 353.074 33.5237 353.074 33.0114Z" fill="#2F80ED"/>
<path d="M334.193 39.7C334.193 39.1877 333.779 38.7702 333.267 38.7702C332.754 38.7702 332.337 39.1877 332.337 39.7C332.337 40.2122 332.751 40.6297 333.267 40.6297C333.776 40.6297 334.193 40.2152 334.193 39.7Z" fill="#2F80ED"/>
<path d="M359.401 39.7C359.401 39.1877 358.987 38.7702 358.472 38.7702C357.959 38.7702 357.542 39.1877 357.542 39.7C357.542 40.2122 357.956 40.6297 358.472 40.6297C358.984 40.6297 359.401 40.2152 359.401 39.7Z" fill="#2F80ED"/>
<path d="M346.746 39.7C346.746 39.1877 346.332 38.7702 345.816 38.7702C345.304 38.7702 344.887 39.1877 344.887 39.7C344.887 40.2122 345.301 40.6297 345.816 40.6297C346.332 40.6297 346.746 40.2152 346.746 39.7Z" fill="#2F80ED"/>
<path d="M340.625 39.7C340.625 39.1877 340.207 38.7702 339.695 38.7702C339.182 38.7702 338.765 39.1877 338.765 39.7C338.765 40.2122 339.18 40.6297 339.695 40.6297C340.207 40.6297 340.625 40.2152 340.625 39.7Z" fill="#2F80ED"/>
<path d="M353.074 39.7C353.074 39.1877 352.659 38.7702 352.144 38.7702C351.632 38.7702 351.214 39.1877 351.214 39.7C351.214 40.2122 351.629 40.6297 352.144 40.6297C352.659 40.6297 353.074 40.2152 353.074 39.7Z" fill="#2F80ED"/>
<path d="M346.746 54.3871C346.746 53.8748 346.332 53.4573 345.816 53.4573C345.304 53.4573 344.887 53.8719 344.887 54.3871C344.887 54.8994 345.301 55.3169 345.816 55.3169C346.332 55.3169 346.746 54.8994 346.746 54.3871Z" fill="#2F80ED"/>
<path d="M372.053 10.9836C372.053 10.4714 371.639 10.0538 371.123 10.0538C370.611 10.0538 370.194 10.4684 370.194 10.9836C370.194 11.4959 370.611 11.9104 371.123 11.9104C371.639 11.9134 372.053 11.4959 372.053 10.9836Z" fill="#2F80ED"/>
<path d="M357.545 61.7303C357.545 62.2426 357.959 62.6571 358.475 62.6571C358.987 62.6571 359.404 62.2396 359.404 61.7303C359.404 61.218 358.99 60.8005 358.475 60.8005C357.959 60.8005 357.545 61.2151 357.545 61.7303Z" fill="#2F80ED"/>
<path d="M351.217 61.7303C351.217 62.2426 351.632 62.6571 352.147 62.6571C352.659 62.6571 353.077 62.2396 353.077 61.7303C353.077 61.218 352.662 60.8005 352.147 60.8005C351.632 60.8005 351.217 61.2151 351.217 61.7303Z" fill="#2F80ED"/>
<path d="M302.017 24.8295C302.121 25.3063 302.23 25.78 302.346 26.2538C302.476 26.0939 302.556 25.8925 302.556 25.6705C302.559 25.2974 302.337 24.9776 302.017 24.8295Z" fill="#2F80ED"/>
<path d="M308.883 39.7C308.883 39.1877 308.469 38.7702 307.954 38.7702C307.761 38.7702 307.583 38.8294 307.435 38.9271C307.743 39.4631 308.063 39.9901 308.392 40.5113C308.685 40.3573 308.883 40.0553 308.883 39.7Z" fill="#2F80ED"/>
<path d="M320.609 53.4573C320.487 53.4573 320.375 53.481 320.268 53.5225C320.683 53.8393 321.103 54.1502 321.53 54.4552C321.533 54.4315 321.536 54.4078 321.536 54.3841C321.539 53.8748 321.124 53.4573 320.609 53.4573Z" fill="#2F80ED"/>
<path d="M315.211 47.0434C315.211 46.5312 314.796 46.1166 314.281 46.1166C313.769 46.1166 313.351 46.5312 313.351 47.0434C313.351 47.0731 313.357 47.0997 313.36 47.1293C313.609 47.4076 313.861 47.683 314.115 47.9554C314.169 47.9643 314.222 47.9732 314.281 47.9732C314.796 47.9732 315.211 47.5557 315.211 47.0434Z" fill="#2F80ED"/>
<path d="M344.889 61.7303C344.889 62.2426 345.304 62.6571 345.819 62.6571C346.332 62.6571 346.749 62.2396 346.749 61.7303C346.749 61.218 346.334 60.8005 345.819 60.8005C345.304 60.8005 344.889 61.2151 344.889 61.7303Z" fill="#2F80ED"/>
<path d="M372.053 3.64076C372.053 3.1285 371.639 2.711 371.123 2.711C370.611 2.711 370.194 3.12554 370.194 3.64076C370.194 4.15302 370.611 4.56757 371.123 4.56757C371.639 4.57053 372.053 4.15598 372.053 3.64076Z" fill="#2F80ED"/>
<path d="M397.365 3.64076C397.365 3.1285 396.95 2.711 396.435 2.711C395.923 2.711 395.508 3.12554 395.508 3.64076C395.508 4.15302 395.923 4.56757 396.435 4.56757C396.947 4.57053 397.365 4.15598 397.365 3.64076Z" fill="#2F80ED"/>
<path d="M378.381 3.64076C378.381 3.1285 377.966 2.711 377.451 2.711C376.939 2.711 376.521 3.12554 376.521 3.64076C376.521 4.15302 376.939 4.56757 377.451 4.56757C377.966 4.57053 378.381 4.15598 378.381 3.64076Z" fill="#2F80ED"/>
<path d="M391.037 3.64078C391.037 3.12852 390.623 2.71101 390.11 2.71101C389.598 2.71101 389.181 3.12556 389.181 3.64078C389.181 4.15304 389.595 4.56758 390.11 4.56758C390.623 4.57054 391.037 4.156 391.037 3.64078Z" fill="#2F80ED"/>
<path d="M384.708 3.64078C384.708 3.12852 384.294 2.71101 383.779 2.71101C383.266 2.71101 382.849 3.12556 382.849 3.64078C382.849 4.15304 383.264 4.56758 383.779 4.56758C384.294 4.57054 384.708 4.156 384.708 3.64078Z" fill="#2F80ED"/>
<path d="M346.746 3.64076C346.746 3.1285 346.332 2.711 345.816 2.711C345.304 2.711 344.887 3.12554 344.887 3.64076C344.887 4.15302 345.301 4.56757 345.816 4.56757C346.332 4.57053 346.746 4.15598 346.746 3.64076Z" fill="#2F80ED"/>
<path d="M365.729 3.64076C365.729 3.1285 365.314 2.711 364.799 2.711C364.286 2.711 363.869 3.12554 363.869 3.64076C363.869 4.15302 364.284 4.56757 364.799 4.56757C365.311 4.57053 365.729 4.15598 365.729 3.64076Z" fill="#2F80ED"/>
<path d="M353.074 3.64076C353.074 3.1285 352.659 2.711 352.144 2.711C351.632 2.711 351.214 3.12554 351.214 3.64076C351.214 4.15302 351.629 4.56757 352.144 4.56757C352.659 4.57053 353.074 4.15598 353.074 3.64076Z" fill="#2F80ED"/>
<path d="M359.401 3.64076C359.401 3.1285 358.987 2.711 358.472 2.711C357.959 2.711 357.542 3.12554 357.542 3.64076C357.542 4.15302 357.956 4.56757 358.472 4.56757C358.984 4.57053 359.401 4.15598 359.401 3.64076Z" fill="#2F80ED"/>
<path d="M308.883 10.9836C308.883 10.4714 308.469 10.0538 307.954 10.0538C307.441 10.0538 307.027 10.4684 307.027 10.9836C307.027 11.4959 307.441 11.9104 307.954 11.9104C308.469 11.9134 308.883 11.4959 308.883 10.9836Z" fill="#2F80ED"/>
<path d="M353.074 10.9836C353.074 10.4714 352.659 10.0538 352.144 10.0538C351.632 10.0538 351.214 10.4684 351.214 10.9836C351.214 11.4959 351.629 11.9104 352.144 11.9104C352.659 11.9134 353.074 11.4959 353.074 10.9836Z" fill="#2F80ED"/>
<path d="M359.401 10.9836C359.401 10.4714 358.987 10.0538 358.472 10.0538C357.959 10.0538 357.542 10.4684 357.542 10.9836C357.542 11.4959 357.956 11.9104 358.472 11.9104C358.984 11.9134 359.401 11.4959 359.401 10.9836Z" fill="#2F80ED"/>
<path d="M365.729 10.9836C365.729 10.4714 365.314 10.0538 364.799 10.0538C364.286 10.0538 363.869 10.4684 363.869 10.9836C363.869 11.4959 364.284 11.9104 364.799 11.9104C365.311 11.9134 365.729 11.4959 365.729 10.9836Z" fill="#2F80ED"/>
<path d="M327.866 10.9836C327.866 10.4714 327.448 10.0538 326.936 10.0538C326.424 10.0538 326.006 10.4684 326.006 10.9836C326.006 11.4959 326.421 11.9104 326.936 11.9104C327.448 11.9134 327.866 11.4959 327.866 10.9836Z" fill="#2F80ED"/>
<path d="M315.211 10.9836C315.211 10.4714 314.796 10.0538 314.281 10.0538C313.769 10.0538 313.351 10.4684 313.351 10.9836C313.351 11.4959 313.766 11.9104 314.281 11.9104C314.796 11.9134 315.211 11.4959 315.211 10.9836Z" fill="#2F80ED"/>
<path d="M340.625 10.9836C340.625 10.4714 340.207 10.0538 339.695 10.0538C339.182 10.0538 338.765 10.4684 338.765 10.9836C338.765 11.4959 339.18 11.9104 339.695 11.9104C340.207 11.9134 340.625 11.4959 340.625 10.9836Z" fill="#2F80ED"/>
<path d="M321.539 10.9836C321.539 10.4714 321.124 10.0538 320.609 10.0538C320.097 10.0538 319.679 10.4684 319.679 10.9836C319.679 11.4959 320.097 11.9104 320.609 11.9104C321.124 11.9134 321.539 11.4959 321.539 10.9836Z" fill="#2F80ED"/>
<path d="M340.625 3.64076C340.625 3.1285 340.207 2.711 339.695 2.711C339.182 2.711 338.765 3.12554 338.765 3.64076C338.765 4.15302 339.18 4.56757 339.695 4.56757C340.207 4.57053 340.625 4.15598 340.625 3.64076Z" fill="#2F80ED"/>
<path d="M346.746 10.9836C346.746 10.4714 346.332 10.0538 345.816 10.0538C345.304 10.0538 344.887 10.4684 344.887 10.9836C344.887 11.4959 345.301 11.9104 345.816 11.9104C346.332 11.9134 346.746 11.4959 346.746 10.9836Z" fill="#2F80ED"/>
<path d="M334.193 3.64076C334.193 3.1285 333.779 2.711 333.267 2.711C332.754 2.711 332.337 3.12554 332.337 3.64076C332.337 4.15302 332.751 4.56757 333.267 4.56757C333.776 4.57053 334.193 4.15598 334.193 3.64076Z" fill="#2F80ED"/>
<path d="M321.539 3.64076C321.539 3.1285 321.124 2.711 320.609 2.711C320.097 2.711 319.679 3.12554 319.679 3.64076C319.679 4.15302 320.097 4.56757 320.609 4.56757C321.124 4.57053 321.539 4.15598 321.539 3.64076Z" fill="#2F80ED"/>
<path d="M315.211 3.64076C315.211 3.1285 314.796 2.711 314.281 2.711C313.769 2.711 313.351 3.12554 313.351 3.64076C313.351 4.15302 313.766 4.56757 314.281 4.56757C314.796 4.57053 315.211 4.15598 315.211 3.64076Z" fill="#2F80ED"/>
<path d="M308.883 3.64076C308.883 3.1285 308.469 2.711 307.954 2.711C307.441 2.711 307.027 3.12554 307.027 3.64076C307.027 4.15302 307.441 4.56757 307.954 4.56757C308.469 4.57053 308.883 4.15598 308.883 3.64076Z" fill="#2F80ED"/>
<path d="M327.866 3.64076C327.866 3.1285 327.448 2.711 326.936 2.711C326.424 2.711 326.006 3.12554 326.006 3.64076C326.006 4.15302 326.421 4.56757 326.936 4.56757C327.448 4.57053 327.866 4.15598 327.866 3.64076Z" fill="#2F80ED"/>
</g>
</g>
<defs>
<linearGradient id="paint0_linear_14_2893" x1="40" y1="16.1562" x2="40" y2="121" gradientUnits="userSpaceOnUse">
<stop stop-color="#CCE4FF"/>
<stop offset="1" stop-color="#9CCBFF"/>
</linearGradient>
<clipPath id="clip0_14_2893">
<rect width="80" height="122" fill="white" transform="translate(0 -1)"/>
</clipPath>
</defs>
</svg>
