<svg width="38" height="38" viewBox="0 0 38 38" fill="none" xmlns="http://www.w3.org/2000/svg">
<path fill-rule="evenodd" clip-rule="evenodd" d="M10.3051 10.3051C10.7119 9.8983 11.3714 9.8983 11.7782 10.3051L19.375 17.9019L26.9718 10.3051C27.3786 9.8983 28.0381 9.8983 28.4449 10.3051C28.8517 10.7119 28.8517 11.3714 28.4449 11.7782L20.8481 19.375L28.4449 26.9718C28.8517 27.3786 28.8517 28.0381 28.4449 28.4449C28.0381 28.8517 27.3786 28.8517 26.9718 28.4449L19.375 20.8481L11.7782 28.4449C11.3714 28.8517 10.7119 28.8517 10.3051 28.4449C9.8983 28.0381 9.8983 27.3786 10.3051 26.9718L17.9019 19.375L10.3051 11.7782C9.8983 11.3714 9.8983 10.7119 10.3051 10.3051Z" fill="#2E3A59"/>
</svg>
