<svg width="293" height="54" viewBox="0 0 293 54" fill="none" xmlns="http://www.w3.org/2000/svg">
<path d="M240.12 6L228.97 25.27L217.83 6H208.11L224.82 34.87V47.86H233.13V34.88L249.84 6H240.12Z" fill="white"/>
<path d="M171.78 6H170.75V47.86H171.78H179.05H203.17V39.82H179.05V30.95H202.32V22.91H179.05V14.03H203.17V6H179.05H171.78Z" fill="white"/>
<path d="M287.2 14.03V6H263.08H255.81H254.78V47.86H255.81H263.08H287.2V39.82H263.08V30.95H286.35V22.91H263.08V14.03H287.2Z" fill="white"/>
<path d="M148.12 16.12C142.16 16.12 137.32 20.97 137.32 26.92C137.32 32.87 142.17 37.72 148.12 37.72C154.07 37.72 158.92 32.88 158.92 26.92C158.92 20.96 154.08 16.12 148.12 16.12ZM148.12 30.67C146.06 30.67 144.38 28.99 144.38 26.93C144.38 24.87 146.06 23.19 148.12 23.19C150.18 23.19 151.86 24.87 151.86 26.93C151.86 28.99 150.19 30.67 148.12 30.67Z" fill="white"/>
<path d="M126.51 6L115.37 25.27L104.22 6H94.5L111.21 34.88V47.86H119.52V34.88L136.23 6H126.51Z" fill="white"/>
<path d="M43.94 6L29.64 30.71L15.35 6H14.31H6V47.86H14.31V20.36L27.59 43.32H27.76H31.62H31.7L44.98 20.36V47.86H53.29V6H44.98H43.94Z" fill="white"/>
<path d="M81.1401 6H79.0401H78.1101L55.8701 47.86H65.1501L70.3901 38H89.6801L94.8901 47.86H104.16L82.0501 6H81.1401V6ZM74.6601 29.97L80.0701 19.79L85.4501 29.97H74.6601Z" fill="white"/>
</svg>
