<svg width="153" height="88" viewBox="0 0 153 88" fill="none" xmlns="http://www.w3.org/2000/svg">
<g opacity="0.2" clip-path="url(#clip0_74_1739)">
<path d="M147.409 63.6598H8.76731C8.69991 63.6598 8.63528 63.6332 8.58762 63.5858C8.53996 63.5384 8.51318 63.4742 8.51318 63.4071C8.51318 63.3401 8.53996 63.2758 8.58762 63.2284C8.63528 63.181 8.69991 63.1544 8.76731 63.1544H147.409C147.476 63.1544 147.541 63.181 147.589 63.2284C147.636 63.2758 147.663 63.3401 147.663 63.4071C147.663 63.4742 147.636 63.5384 147.589 63.5858C147.541 63.6332 147.476 63.6598 147.409 63.6598Z" fill="white"/>
<path d="M147.409 51.1123H8.76731C8.69991 51.1123 8.63528 51.0856 8.58762 51.0382C8.53996 50.9908 8.51318 50.9266 8.51318 50.8595C8.51318 50.7925 8.53996 50.7282 8.58762 50.6808C8.63528 50.6334 8.69991 50.6068 8.76731 50.6068H147.409C147.476 50.6068 147.541 50.6334 147.589 50.6808C147.636 50.7282 147.663 50.7925 147.663 50.8595C147.663 50.9266 147.636 50.9908 147.589 51.0382C147.541 51.0856 147.476 51.1123 147.409 51.1123Z" fill="white"/>
<path d="M147.409 38.5657H8.76731C8.69991 38.5657 8.63528 38.5391 8.58762 38.4917C8.53996 38.4443 8.51318 38.38 8.51318 38.313C8.51318 38.246 8.53996 38.1817 8.58762 38.1343C8.63528 38.0869 8.69991 38.0603 8.76731 38.0603H147.409C147.476 38.0603 147.541 38.0869 147.589 38.1343C147.636 38.1817 147.663 38.246 147.663 38.313C147.663 38.38 147.636 38.4443 147.589 38.4917C147.541 38.5391 147.476 38.5657 147.409 38.5657V38.5657Z" fill="white"/>
<path d="M147.409 26.0547H8.76766C8.70026 26.0547 8.63563 26.0281 8.58797 25.9807C8.54031 25.9333 8.51354 25.869 8.51354 25.802C8.5117 25.7684 8.51702 25.7347 8.52914 25.7032C8.54127 25.6717 8.55992 25.6431 8.5839 25.6193C8.60787 25.5954 8.63661 25.5769 8.66828 25.5648C8.69994 25.5527 8.73381 25.5475 8.76766 25.5493H147.409C147.443 25.5475 147.477 25.5527 147.509 25.5648C147.54 25.5769 147.569 25.5954 147.593 25.6193C147.617 25.6431 147.636 25.6717 147.648 25.7032C147.66 25.7347 147.665 25.7684 147.663 25.802C147.663 25.869 147.637 25.9333 147.589 25.9807C147.541 26.0281 147.477 26.0547 147.409 26.0547V26.0547Z" fill="white"/>
<path d="M147.409 13.4194H8.76766C8.73381 13.4212 8.69994 13.4159 8.66828 13.4039C8.63661 13.3918 8.60787 13.3732 8.5839 13.3494C8.55992 13.3256 8.54127 13.297 8.52914 13.2655C8.51702 13.234 8.5117 13.2003 8.51354 13.1667C8.51354 13.0996 8.54031 13.0354 8.58797 12.988C8.63563 12.9406 8.70026 12.9139 8.76766 12.9139H147.409C147.477 12.9139 147.541 12.9406 147.589 12.988C147.637 13.0354 147.663 13.0996 147.663 13.1667C147.665 13.2003 147.66 13.234 147.648 13.2655C147.636 13.297 147.617 13.3256 147.593 13.3494C147.569 13.3732 147.54 13.3918 147.509 13.4039C147.477 13.4159 147.443 13.4212 147.409 13.4194V13.4194Z" fill="white"/>
<path d="M152.492 76.8769H0.508256C0.373456 76.8769 0.244184 76.8236 0.148867 76.7288C0.0535486 76.6341 0 76.5055 0 76.3714V0.555379C0 0.421328 0.0535486 0.292755 0.148867 0.197966C0.244184 0.103178 0.373456 0.0499268 0.508256 0.0499268C0.643056 0.0499268 0.772346 0.103178 0.867664 0.197966C0.962982 0.292755 1.01653 0.421328 1.01653 0.555379V75.9166H152.492C152.627 75.9166 152.756 75.9698 152.851 76.0646C152.946 76.1594 153 76.2879 153 76.422C153 76.556 152.946 76.6846 152.851 76.7794C152.756 76.8742 152.627 76.9274 152.492 76.9274V76.8769Z" fill="white"/>
<path d="M12.2111 82.59L13.6851 86.267L15.1591 82.59H15.9342V87.0884H15.3369V85.3446L15.4005 83.4492L13.9138 87.0884H13.4564L11.9824 83.4619L12.0332 85.3446V87.0884H11.4487V82.59H12.2111Z" fill="white"/>
<path d="M36.5695 83.0828H35.121V87.0884H34.5237V83.0828H33.0752V82.59H36.5695V83.0828Z" fill="white"/>
<path d="M54.4987 85.6732L54.5877 86.267L54.7147 85.7363L55.6042 82.59H56.1125L56.9765 85.7363L57.1036 86.2797L57.2052 85.6732L57.9041 82.59H58.5013L57.4085 87.0884H56.8621L55.9346 83.8157L55.8583 83.4745L55.7948 83.8157L54.8291 87.0884H54.2827L53.1899 82.59H53.7872L54.4987 85.6732Z" fill="white"/>
<path d="M78.6921 83.0828H77.2435V87.0884H76.6463V83.0828H75.1978V82.59H78.6921V83.0828Z" fill="white"/>
<path d="M99.2132 85.1045H97.3072V87.0884H96.71V82.59H99.5181V83.0828H97.3072V84.6244H99.2132V85.1045Z" fill="white"/>
<path d="M120.064 85.9626C120.086 85.8711 120.086 85.776 120.064 85.6846C120.029 85.5965 119.972 85.5184 119.899 85.4571L119.569 85.2676L119.035 85.0907C118.828 85.0307 118.624 84.959 118.425 84.8759C118.263 84.7995 118.11 84.7063 117.968 84.5979C117.846 84.4974 117.746 84.3726 117.675 84.2314C117.607 84.0849 117.573 83.9253 117.574 83.7639C117.574 83.5945 117.609 83.4269 117.675 83.2711C117.752 83.1229 117.86 82.9934 117.993 82.892C118.136 82.7744 118.3 82.6844 118.476 82.6266C118.681 82.5628 118.896 82.5329 119.111 82.5382C119.341 82.5346 119.569 82.5732 119.785 82.6519C119.972 82.7195 120.145 82.8225 120.293 82.9552C120.42 83.0789 120.523 83.2245 120.598 83.3848C120.663 83.5499 120.698 83.7255 120.7 83.9029H120.102C120.101 83.7823 120.079 83.6627 120.039 83.5491C119.999 83.4452 119.939 83.3506 119.861 83.2711C119.769 83.1903 119.661 83.13 119.543 83.0942C119.401 83.0659 119.254 83.0659 119.111 83.0942C118.972 83.0724 118.831 83.0724 118.692 83.0942C118.586 83.1264 118.487 83.1778 118.4 83.2458C118.323 83.3036 118.266 83.3828 118.235 83.4733C118.215 83.5692 118.215 83.6679 118.235 83.7639C118.214 83.8512 118.214 83.942 118.235 84.0292C118.279 84.1152 118.345 84.189 118.425 84.2441C118.522 84.3179 118.629 84.3775 118.743 84.421C118.9 84.4871 119.061 84.542 119.226 84.5852C119.452 84.6473 119.673 84.7275 119.886 84.8253C120.054 84.903 120.212 85.0006 120.357 85.1159C120.468 85.2249 120.559 85.3534 120.623 85.495C120.687 85.6426 120.717 85.8021 120.712 85.9626C120.714 86.1314 120.676 86.2984 120.601 86.4499C120.526 86.6014 120.416 86.7331 120.28 86.8345C120.135 86.9496 119.966 87.0315 119.785 87.0745C119.575 87.1384 119.356 87.1682 119.137 87.163H118.717C118.583 87.1385 118.451 87.1004 118.323 87.0492C118.199 86.9987 118.079 86.9352 117.968 86.8597C117.863 86.7846 117.769 86.6953 117.688 86.5944C117.61 86.4895 117.546 86.3748 117.498 86.2532C117.45 86.1195 117.428 85.9779 117.434 85.8362H118.031C118.025 85.9764 118.055 86.1159 118.12 86.2406C118.18 86.3458 118.262 86.4365 118.362 86.5059C118.468 86.5831 118.589 86.6389 118.717 86.6702C118.856 86.6895 118.998 86.6895 119.137 86.6702C119.392 86.6877 119.647 86.6211 119.861 86.4806C119.932 86.4154 119.988 86.3348 120.023 86.245C120.058 86.1552 120.072 86.0586 120.064 85.9626V85.9626Z" fill="white"/>
<path d="M139.785 86.2407C139.8 86.1487 139.8 86.0547 139.785 85.9627C139.745 85.8735 139.684 85.7954 139.607 85.7353C139.505 85.6585 139.394 85.5947 139.277 85.5457L138.756 85.3688C138.548 85.3109 138.344 85.2391 138.146 85.154C137.981 85.0822 137.828 84.9887 137.688 84.876C137.566 84.7756 137.467 84.6507 137.396 84.5095C137.323 84.3649 137.288 84.2039 137.295 84.042C137.289 83.8761 137.324 83.7113 137.396 83.5618C137.477 83.4048 137.59 83.2664 137.728 83.1554C137.866 83.0444 138.025 82.9633 138.197 82.9174C138.609 82.7824 139.055 82.7824 139.467 82.9174C139.646 82.9814 139.81 83.0804 139.95 83.2084C140.089 83.3364 140.202 83.491 140.281 83.6629C140.346 83.8236 140.38 83.9951 140.382 84.1684H139.785C139.804 84.0512 139.804 83.9317 139.785 83.8146C139.742 83.7093 139.677 83.6144 139.594 83.5366C139.509 83.4535 139.404 83.3927 139.289 83.3597C139.145 83.3165 138.995 83.2952 138.845 83.2965C138.71 83.2748 138.573 83.2748 138.438 83.2965C138.331 83.326 138.231 83.3777 138.146 83.4481C138.069 83.5135 138.008 83.5957 137.968 83.6882C137.949 83.7799 137.949 83.8745 137.968 83.9662C137.961 84.059 137.983 84.1516 138.031 84.2316C138.076 84.3143 138.136 84.3874 138.209 84.4464L138.54 84.6359L139.023 84.7875C139.249 84.8496 139.47 84.9299 139.683 85.0276C139.852 85.1015 140.007 85.2041 140.141 85.3309C140.262 85.4291 140.358 85.5547 140.42 85.6973C140.477 85.847 140.507 86.0051 140.509 86.1649C140.512 86.34 140.473 86.5133 140.395 86.6703C140.315 86.8162 140.207 86.945 140.077 87.0494C139.925 87.1542 139.758 87.2351 139.582 87.2895C139.37 87.3466 139.153 87.3763 138.934 87.3779C138.794 87.3965 138.653 87.3965 138.514 87.3779C138.379 87.3535 138.247 87.3154 138.12 87.2642C137.995 87.2136 137.876 87.1501 137.765 87.0747C137.657 87.003 137.562 86.9132 137.485 86.8093C137.397 86.7106 137.332 86.5942 137.295 86.4681C137.244 86.3393 137.218 86.2021 137.218 86.0638H137.815C137.814 86.2009 137.849 86.336 137.917 86.4555C137.972 86.5673 138.055 86.6631 138.159 86.7335C138.269 86.8018 138.389 86.853 138.514 86.8851C138.653 86.9052 138.795 86.9052 138.934 86.8851C139.189 86.9027 139.444 86.836 139.658 86.6956C139.758 86.566 139.803 86.4029 139.785 86.2407Z" fill="white"/>
</g>
<defs>
<clipPath id="clip0_74_1739">
<rect width="153" height="87.4286" fill="white"/>
</clipPath>
</defs>
</svg>
