<svg width="354" height="453" viewBox="0 0 354 453" fill="none" xmlns="http://www.w3.org/2000/svg">
<g opacity="0.2">
<g filter="url(#filter0_bi_37_1685)">
<mask id="path-1-inside-1_37_1685" fill="white">
<path d="M16.3284 327.832L4.28133 348.171L10.7682 362.963V367.585L13.5483 372.208L8.91483 383.302L4.28133 389.773L1.50122 395.32L3.35462 400.867L14.475 402.716L22.8154 396.244H27.4489L29.3023 395.32V386.999L36.7159 386.075L40.4227 383.302L50.6164 385.15C50.6164 385.15 53.3965 389.773 56.1766 391.622C58.9567 393.471 69.1504 392.546 69.1504 392.546H74.7106L78.4174 389.773L98.8049 390.697C98.8049 390.697 101.585 392.546 103.438 385.15L110.852 383.302C110.852 383.302 115.486 383.301 115.486 378.679C115.486 374.057 121.046 375.906 121.046 375.906L127.533 378.679C127.533 378.679 133.093 380.528 134.02 374.981L133.093 370.359L130.313 367.585C130.313 367.585 130.313 362.963 132.166 362.038C134.02 361.114 135.873 357.416 142.36 362.038C148.847 366.661 152.554 362.963 153.48 360.189C154.407 357.416 154.407 351.869 154.407 351.869C154.407 351.869 154.407 349.095 158.114 350.02C161.821 350.944 161.821 352.793 163.674 353.718C165.527 354.642 170.161 356.491 172.014 348.171C172.014 348.171 172.014 342.624 175.721 342.624L183.135 341.699C183.135 341.699 186.842 339.85 189.622 345.397C192.402 350.944 197.962 349.095 197.962 349.095C197.962 349.095 201.669 348.171 204.449 350.944C204.449 350.944 206.302 353.718 210.009 351.869C213.716 350.02 218.349 346.322 218.349 346.322C218.349 346.322 221.129 345.397 221.129 341.699L222.056 331.53L223.91 328.757L224.836 326.908C224.836 326.908 228.543 326.908 230.396 325.983C230.396 325.983 232.25 325.983 235.03 322.285C235.03 322.285 235.957 318.587 240.59 318.587C245.224 318.587 248.931 316.738 251.711 313.965L257.271 308.418L260.978 307.493C260.978 307.493 264.684 306.569 264.684 301.946V297.324C264.684 297.324 263.758 295.475 266.538 295.475C266.538 295.475 272.098 292.702 271.171 284.381V283.457C271.171 283.457 283.218 281.608 277.658 267.74C277.658 267.74 286.925 253.873 282.292 245.553C282.292 245.553 280.438 239.081 282.292 236.308C282.292 236.308 286.925 230.761 284.145 227.063L281.365 224.289C281.365 224.289 280.438 223.365 278.585 226.138L275.805 229.836L274.878 230.761C274.878 230.761 271.171 233.534 272.098 227.063L271.171 218.742C271.171 218.742 266.538 215.969 268.391 213.195C268.391 213.195 271.171 213.195 270.245 205.799L267.465 188.234V177.14C267.465 177.14 267.465 175.291 268.391 174.367C268.391 174.367 281.365 166.971 270.245 153.104C270.245 153.104 268.391 150.33 268.391 146.632C268.391 146.632 270.245 145.708 269.318 138.312C269.318 138.312 262.831 130.916 262.831 124.444C262.831 124.444 263.758 120.746 261.904 117.973C261.904 117.973 265.611 111.502 252.637 101.332L246.15 95.7852C246.15 95.7852 246.15 89.3138 243.37 87.4648C243.37 87.4648 245.224 81.9179 242.444 80.0689C242.444 80.0689 243.37 80.0689 237.81 77.2954L235.03 75.4465L231.323 70.824L218.349 51.4097L209.082 40.3158L207.229 36.6179V29.222C207.229 29.222 208.156 27.373 204.449 23.675L201.669 19.9771C201.669 19.9771 200.742 19.0526 201.669 15.3546C201.669 15.3546 203.522 11.6567 199.815 7.03422C199.815 7.03422 196.109 1.48728 192.402 2.41177H188.695C188.695 2.41177 186.842 2.41177 186.842 4.26075V7.95871V11.6567V15.3546C186.842 15.3546 187.768 19.9771 181.281 16.2791C181.281 16.2791 175.721 7.95871 172.014 17.2036L170.161 20.9016V22.7505C170.161 22.7505 172.014 28.2975 162.747 27.373L151.627 26.4485H146.993L138.653 23.675L134.946 21.8261C134.946 21.8261 133.093 19.0526 128.459 20.9016C128.459 20.9016 127.533 21.8261 126.606 23.675C126.606 23.675 124.753 27.373 117.339 26.4485C117.339 26.4485 113.632 20.9016 107.145 24.5995L100.658 27.373C100.658 27.373 94.1714 25.524 89.5379 28.2975L83.0509 31.0709L81.1975 33.8444L79.3441 34.7689C79.3441 34.7689 75.6373 33.8444 73.7839 36.6179L71.9305 38.4669C71.9305 38.4669 71.0038 41.2403 73.7839 41.2403H77.4907C77.4907 41.2403 79.3441 42.1648 78.4174 44.9383L72.8572 49.5607C72.8572 49.5607 66.3703 53.2587 68.2237 56.0322V60.6546L67.297 63.4281L64.5169 67.126L62.6635 69.8995C62.6635 69.8995 58.9567 71.7485 57.1033 69.8995C57.1033 69.8995 54.3232 63.4281 50.6164 65.2771H43.2028L39.496 67.126L35.7892 68.975C35.7892 68.975 32.0824 68.975 33.0091 74.522C33.0091 74.522 21.8887 78.2199 28.3756 83.7669L32.0824 86.5403H36.7159C36.7159 86.5403 38.5693 87.4648 37.6426 91.1628C37.6426 91.1628 34.8625 97.6342 37.6426 100.408C37.6426 100.408 38.5693 105.03 43.2028 105.955C43.2028 105.955 44.1295 107.804 46.9096 105.955L53.3965 103.181L56.1766 101.332L62.6635 102.257L63.5902 104.106L65.4436 106.879C65.4436 106.879 65.4436 109.653 67.297 112.426C67.297 112.426 70.0771 113.351 67.297 116.124C67.297 116.124 64.5169 117.048 64.5169 119.822C64.5169 119.822 67.297 120.746 62.6635 122.595C62.6635 122.595 58.9567 126.293 61.7368 129.991L67.297 133.689C67.297 133.689 71.9305 135.538 65.4436 142.01C65.4436 142.01 61.7368 147.557 59.8834 140.161C59.8834 140.161 60.8101 135.538 53.3965 135.538C53.3965 135.538 45.0562 134.614 43.2028 138.312L39.496 142.934L32.0824 149.406C32.0824 149.406 28.3756 148.481 27.4489 156.802L24.6688 163.273L23.7421 167.895C23.7421 167.895 22.8154 177.14 27.4489 175.291C27.4489 175.291 30.229 174.367 32.0824 172.518C32.0824 172.518 34.8625 168.82 35.7892 174.367L34.8625 179.914C34.8625 179.914 34.8625 184.536 38.5693 182.687L39.496 186.385L38.5693 189.159L37.6426 191.008C37.6426 191.008 33.9358 196.555 39.496 196.555L45.0562 200.253C45.0562 200.253 50.6164 200.253 51.5431 202.102C51.5431 202.102 56.1766 205.799 54.3232 210.422L52.4698 216.893C52.4698 216.893 49.6897 224.289 56.1766 227.063C56.1766 227.063 65.4436 229.836 64.5169 232.61C64.5169 232.61 50.6164 230.761 57.1033 240.006C57.1033 240.006 58.9567 240.93 60.8101 243.704L59.8834 252.024V254.797C59.8834 254.797 60.8101 253.873 58.03 259.42L55.2499 262.193L52.4698 263.118C52.4698 263.118 45.9829 264.967 48.763 269.589L47.8363 277.91L46.9096 283.457L45.0562 287.155C45.0562 287.155 41.3494 289.928 39.496 295.475L38.5693 301.022L37.6426 304.72C37.6426 304.72 34.8625 307.493 35.7892 310.267C35.7892 310.267 38.5693 310.267 32.0824 311.191H22.8154H20.962C20.962 311.191 11.6949 309.342 13.5483 316.738L16.3284 322.285V325.059V327.832Z"/>
</mask>
<path d="M16.3284 327.832L4.28133 348.171L10.7682 362.963V367.585L13.5483 372.208L8.91483 383.302L4.28133 389.773L1.50122 395.32L3.35462 400.867L14.475 402.716L22.8154 396.244H27.4489L29.3023 395.32V386.999L36.7159 386.075L40.4227 383.302L50.6164 385.15C50.6164 385.15 53.3965 389.773 56.1766 391.622C58.9567 393.471 69.1504 392.546 69.1504 392.546H74.7106L78.4174 389.773L98.8049 390.697C98.8049 390.697 101.585 392.546 103.438 385.15L110.852 383.302C110.852 383.302 115.486 383.301 115.486 378.679C115.486 374.057 121.046 375.906 121.046 375.906L127.533 378.679C127.533 378.679 133.093 380.528 134.02 374.981L133.093 370.359L130.313 367.585C130.313 367.585 130.313 362.963 132.166 362.038C134.02 361.114 135.873 357.416 142.36 362.038C148.847 366.661 152.554 362.963 153.48 360.189C154.407 357.416 154.407 351.869 154.407 351.869C154.407 351.869 154.407 349.095 158.114 350.02C161.821 350.944 161.821 352.793 163.674 353.718C165.527 354.642 170.161 356.491 172.014 348.171C172.014 348.171 172.014 342.624 175.721 342.624L183.135 341.699C183.135 341.699 186.842 339.85 189.622 345.397C192.402 350.944 197.962 349.095 197.962 349.095C197.962 349.095 201.669 348.171 204.449 350.944C204.449 350.944 206.302 353.718 210.009 351.869C213.716 350.02 218.349 346.322 218.349 346.322C218.349 346.322 221.129 345.397 221.129 341.699L222.056 331.53L223.91 328.757L224.836 326.908C224.836 326.908 228.543 326.908 230.396 325.983C230.396 325.983 232.25 325.983 235.03 322.285C235.03 322.285 235.957 318.587 240.59 318.587C245.224 318.587 248.931 316.738 251.711 313.965L257.271 308.418L260.978 307.493C260.978 307.493 264.684 306.569 264.684 301.946V297.324C264.684 297.324 263.758 295.475 266.538 295.475C266.538 295.475 272.098 292.702 271.171 284.381V283.457C271.171 283.457 283.218 281.608 277.658 267.74C277.658 267.74 286.925 253.873 282.292 245.553C282.292 245.553 280.438 239.081 282.292 236.308C282.292 236.308 286.925 230.761 284.145 227.063L281.365 224.289C281.365 224.289 280.438 223.365 278.585 226.138L275.805 229.836L274.878 230.761C274.878 230.761 271.171 233.534 272.098 227.063L271.171 218.742C271.171 218.742 266.538 215.969 268.391 213.195C268.391 213.195 271.171 213.195 270.245 205.799L267.465 188.234V177.14C267.465 177.14 267.465 175.291 268.391 174.367C268.391 174.367 281.365 166.971 270.245 153.104C270.245 153.104 268.391 150.33 268.391 146.632C268.391 146.632 270.245 145.708 269.318 138.312C269.318 138.312 262.831 130.916 262.831 124.444C262.831 124.444 263.758 120.746 261.904 117.973C261.904 117.973 265.611 111.502 252.637 101.332L246.15 95.7852C246.15 95.7852 246.15 89.3138 243.37 87.4648C243.37 87.4648 245.224 81.9179 242.444 80.0689C242.444 80.0689 243.37 80.0689 237.81 77.2954L235.03 75.4465L231.323 70.824L218.349 51.4097L209.082 40.3158L207.229 36.6179V29.222C207.229 29.222 208.156 27.373 204.449 23.675L201.669 19.9771C201.669 19.9771 200.742 19.0526 201.669 15.3546C201.669 15.3546 203.522 11.6567 199.815 7.03422C199.815 7.03422 196.109 1.48728 192.402 2.41177H188.695C188.695 2.41177 186.842 2.41177 186.842 4.26075V7.95871V11.6567V15.3546C186.842 15.3546 187.768 19.9771 181.281 16.2791C181.281 16.2791 175.721 7.95871 172.014 17.2036L170.161 20.9016V22.7505C170.161 22.7505 172.014 28.2975 162.747 27.373L151.627 26.4485H146.993L138.653 23.675L134.946 21.8261C134.946 21.8261 133.093 19.0526 128.459 20.9016C128.459 20.9016 127.533 21.8261 126.606 23.675C126.606 23.675 124.753 27.373 117.339 26.4485C117.339 26.4485 113.632 20.9016 107.145 24.5995L100.658 27.373C100.658 27.373 94.1714 25.524 89.5379 28.2975L83.0509 31.0709L81.1975 33.8444L79.3441 34.7689C79.3441 34.7689 75.6373 33.8444 73.7839 36.6179L71.9305 38.4669C71.9305 38.4669 71.0038 41.2403 73.7839 41.2403H77.4907C77.4907 41.2403 79.3441 42.1648 78.4174 44.9383L72.8572 49.5607C72.8572 49.5607 66.3703 53.2587 68.2237 56.0322V60.6546L67.297 63.4281L64.5169 67.126L62.6635 69.8995C62.6635 69.8995 58.9567 71.7485 57.1033 69.8995C57.1033 69.8995 54.3232 63.4281 50.6164 65.2771H43.2028L39.496 67.126L35.7892 68.975C35.7892 68.975 32.0824 68.975 33.0091 74.522C33.0091 74.522 21.8887 78.2199 28.3756 83.7669L32.0824 86.5403H36.7159C36.7159 86.5403 38.5693 87.4648 37.6426 91.1628C37.6426 91.1628 34.8625 97.6342 37.6426 100.408C37.6426 100.408 38.5693 105.03 43.2028 105.955C43.2028 105.955 44.1295 107.804 46.9096 105.955L53.3965 103.181L56.1766 101.332L62.6635 102.257L63.5902 104.106L65.4436 106.879C65.4436 106.879 65.4436 109.653 67.297 112.426C67.297 112.426 70.0771 113.351 67.297 116.124C67.297 116.124 64.5169 117.048 64.5169 119.822C64.5169 119.822 67.297 120.746 62.6635 122.595C62.6635 122.595 58.9567 126.293 61.7368 129.991L67.297 133.689C67.297 133.689 71.9305 135.538 65.4436 142.01C65.4436 142.01 61.7368 147.557 59.8834 140.161C59.8834 140.161 60.8101 135.538 53.3965 135.538C53.3965 135.538 45.0562 134.614 43.2028 138.312L39.496 142.934L32.0824 149.406C32.0824 149.406 28.3756 148.481 27.4489 156.802L24.6688 163.273L23.7421 167.895C23.7421 167.895 22.8154 177.14 27.4489 175.291C27.4489 175.291 30.229 174.367 32.0824 172.518C32.0824 172.518 34.8625 168.82 35.7892 174.367L34.8625 179.914C34.8625 179.914 34.8625 184.536 38.5693 182.687L39.496 186.385L38.5693 189.159L37.6426 191.008C37.6426 191.008 33.9358 196.555 39.496 196.555L45.0562 200.253C45.0562 200.253 50.6164 200.253 51.5431 202.102C51.5431 202.102 56.1766 205.799 54.3232 210.422L52.4698 216.893C52.4698 216.893 49.6897 224.289 56.1766 227.063C56.1766 227.063 65.4436 229.836 64.5169 232.61C64.5169 232.61 50.6164 230.761 57.1033 240.006C57.1033 240.006 58.9567 240.93 60.8101 243.704L59.8834 252.024V254.797C59.8834 254.797 60.8101 253.873 58.03 259.42L55.2499 262.193L52.4698 263.118C52.4698 263.118 45.9829 264.967 48.763 269.589L47.8363 277.91L46.9096 283.457L45.0562 287.155C45.0562 287.155 41.3494 289.928 39.496 295.475L38.5693 301.022L37.6426 304.72C37.6426 304.72 34.8625 307.493 35.7892 310.267C35.7892 310.267 38.5693 310.267 32.0824 311.191H22.8154H20.962C20.962 311.191 11.6949 309.342 13.5483 316.738L16.3284 322.285V325.059V327.832Z" fill="url(#paint0_radial_37_1685)"/>
<path d="M16.3284 327.832L4.28133 348.171L10.7682 362.963V367.585L13.5483 372.208L8.91483 383.302L4.28133 389.773L1.50122 395.32L3.35462 400.867L14.475 402.716L22.8154 396.244H27.4489L29.3023 395.32V386.999L36.7159 386.075L40.4227 383.302L50.6164 385.15C50.6164 385.15 53.3965 389.773 56.1766 391.622C58.9567 393.471 69.1504 392.546 69.1504 392.546H74.7106L78.4174 389.773L98.8049 390.697C98.8049 390.697 101.585 392.546 103.438 385.15L110.852 383.302C110.852 383.302 115.486 383.301 115.486 378.679C115.486 374.057 121.046 375.906 121.046 375.906L127.533 378.679C127.533 378.679 133.093 380.528 134.02 374.981L133.093 370.359L130.313 367.585C130.313 367.585 130.313 362.963 132.166 362.038C134.02 361.114 135.873 357.416 142.36 362.038C148.847 366.661 152.554 362.963 153.48 360.189C154.407 357.416 154.407 351.869 154.407 351.869C154.407 351.869 154.407 349.095 158.114 350.02C161.821 350.944 161.821 352.793 163.674 353.718C165.527 354.642 170.161 356.491 172.014 348.171C172.014 348.171 172.014 342.624 175.721 342.624L183.135 341.699C183.135 341.699 186.842 339.85 189.622 345.397C192.402 350.944 197.962 349.095 197.962 349.095C197.962 349.095 201.669 348.171 204.449 350.944C204.449 350.944 206.302 353.718 210.009 351.869C213.716 350.02 218.349 346.322 218.349 346.322C218.349 346.322 221.129 345.397 221.129 341.699L222.056 331.53L223.91 328.757L224.836 326.908C224.836 326.908 228.543 326.908 230.396 325.983C230.396 325.983 232.25 325.983 235.03 322.285C235.03 322.285 235.957 318.587 240.59 318.587C245.224 318.587 248.931 316.738 251.711 313.965L257.271 308.418L260.978 307.493C260.978 307.493 264.684 306.569 264.684 301.946V297.324C264.684 297.324 263.758 295.475 266.538 295.475C266.538 295.475 272.098 292.702 271.171 284.381V283.457C271.171 283.457 283.218 281.608 277.658 267.74C277.658 267.74 286.925 253.873 282.292 245.553C282.292 245.553 280.438 239.081 282.292 236.308C282.292 236.308 286.925 230.761 284.145 227.063L281.365 224.289C281.365 224.289 280.438 223.365 278.585 226.138L275.805 229.836L274.878 230.761C274.878 230.761 271.171 233.534 272.098 227.063L271.171 218.742C271.171 218.742 266.538 215.969 268.391 213.195C268.391 213.195 271.171 213.195 270.245 205.799L267.465 188.234V177.14C267.465 177.14 267.465 175.291 268.391 174.367C268.391 174.367 281.365 166.971 270.245 153.104C270.245 153.104 268.391 150.33 268.391 146.632C268.391 146.632 270.245 145.708 269.318 138.312C269.318 138.312 262.831 130.916 262.831 124.444C262.831 124.444 263.758 120.746 261.904 117.973C261.904 117.973 265.611 111.502 252.637 101.332L246.15 95.7852C246.15 95.7852 246.15 89.3138 243.37 87.4648C243.37 87.4648 245.224 81.9179 242.444 80.0689C242.444 80.0689 243.37 80.0689 237.81 77.2954L235.03 75.4465L231.323 70.824L218.349 51.4097L209.082 40.3158L207.229 36.6179V29.222C207.229 29.222 208.156 27.373 204.449 23.675L201.669 19.9771C201.669 19.9771 200.742 19.0526 201.669 15.3546C201.669 15.3546 203.522 11.6567 199.815 7.03422C199.815 7.03422 196.109 1.48728 192.402 2.41177H188.695C188.695 2.41177 186.842 2.41177 186.842 4.26075V7.95871V11.6567V15.3546C186.842 15.3546 187.768 19.9771 181.281 16.2791C181.281 16.2791 175.721 7.95871 172.014 17.2036L170.161 20.9016V22.7505C170.161 22.7505 172.014 28.2975 162.747 27.373L151.627 26.4485H146.993L138.653 23.675L134.946 21.8261C134.946 21.8261 133.093 19.0526 128.459 20.9016C128.459 20.9016 127.533 21.8261 126.606 23.675C126.606 23.675 124.753 27.373 117.339 26.4485C117.339 26.4485 113.632 20.9016 107.145 24.5995L100.658 27.373C100.658 27.373 94.1714 25.524 89.5379 28.2975L83.0509 31.0709L81.1975 33.8444L79.3441 34.7689C79.3441 34.7689 75.6373 33.8444 73.7839 36.6179L71.9305 38.4669C71.9305 38.4669 71.0038 41.2403 73.7839 41.2403H77.4907C77.4907 41.2403 79.3441 42.1648 78.4174 44.9383L72.8572 49.5607C72.8572 49.5607 66.3703 53.2587 68.2237 56.0322V60.6546L67.297 63.4281L64.5169 67.126L62.6635 69.8995C62.6635 69.8995 58.9567 71.7485 57.1033 69.8995C57.1033 69.8995 54.3232 63.4281 50.6164 65.2771H43.2028L39.496 67.126L35.7892 68.975C35.7892 68.975 32.0824 68.975 33.0091 74.522C33.0091 74.522 21.8887 78.2199 28.3756 83.7669L32.0824 86.5403H36.7159C36.7159 86.5403 38.5693 87.4648 37.6426 91.1628C37.6426 91.1628 34.8625 97.6342 37.6426 100.408C37.6426 100.408 38.5693 105.03 43.2028 105.955C43.2028 105.955 44.1295 107.804 46.9096 105.955L53.3965 103.181L56.1766 101.332L62.6635 102.257L63.5902 104.106L65.4436 106.879C65.4436 106.879 65.4436 109.653 67.297 112.426C67.297 112.426 70.0771 113.351 67.297 116.124C67.297 116.124 64.5169 117.048 64.5169 119.822C64.5169 119.822 67.297 120.746 62.6635 122.595C62.6635 122.595 58.9567 126.293 61.7368 129.991L67.297 133.689C67.297 133.689 71.9305 135.538 65.4436 142.01C65.4436 142.01 61.7368 147.557 59.8834 140.161C59.8834 140.161 60.8101 135.538 53.3965 135.538C53.3965 135.538 45.0562 134.614 43.2028 138.312L39.496 142.934L32.0824 149.406C32.0824 149.406 28.3756 148.481 27.4489 156.802L24.6688 163.273L23.7421 167.895C23.7421 167.895 22.8154 177.14 27.4489 175.291C27.4489 175.291 30.229 174.367 32.0824 172.518C32.0824 172.518 34.8625 168.82 35.7892 174.367L34.8625 179.914C34.8625 179.914 34.8625 184.536 38.5693 182.687L39.496 186.385L38.5693 189.159L37.6426 191.008C37.6426 191.008 33.9358 196.555 39.496 196.555L45.0562 200.253C45.0562 200.253 50.6164 200.253 51.5431 202.102C51.5431 202.102 56.1766 205.799 54.3232 210.422L52.4698 216.893C52.4698 216.893 49.6897 224.289 56.1766 227.063C56.1766 227.063 65.4436 229.836 64.5169 232.61C64.5169 232.61 50.6164 230.761 57.1033 240.006C57.1033 240.006 58.9567 240.93 60.8101 243.704L59.8834 252.024V254.797C59.8834 254.797 60.8101 253.873 58.03 259.42L55.2499 262.193L52.4698 263.118C52.4698 263.118 45.9829 264.967 48.763 269.589L47.8363 277.91L46.9096 283.457L45.0562 287.155C45.0562 287.155 41.3494 289.928 39.496 295.475L38.5693 301.022L37.6426 304.72C37.6426 304.72 34.8625 307.493 35.7892 310.267C35.7892 310.267 38.5693 310.267 32.0824 311.191H22.8154H20.962C20.962 311.191 11.6949 309.342 13.5483 316.738L16.3284 322.285V325.059V327.832Z" stroke="url(#paint1_linear_37_1685)" stroke-opacity="0.4" stroke-width="2.74257" mask="url(#path-1-inside-1_37_1685)"/>
</g>
<path d="M44.5928 287.617L51.0797 289.466L53.8598 295.013L57.5666 296.862L64.0535 292.24H70.5404L73.3205 287.617L76.1006 282.995H81.6608L89.0744 284.844L93.7079 289.466V294.089L98.3414 299.636L115.949 302.409L123.362 296.862L125.216 292.24L130.776 295.938L137.263 302.409L140.043 310.73L145.603 319.05L148.383 328.295V334.766L151.163 342.162L154.87 344.936V352.332" stroke="white" stroke-opacity="0.5" stroke-width="1.37129" stroke-miterlimit="10"/>
<g filter="url(#filter1_bi_37_1685)">
<path d="M19.1084 117.049L11.6948 122.596L15.4016 126.294H20.9618L23.7419 129.992L27.4487 133.69L32.0823 135.539L38.5692 131.841L45.0561 129.068L50.6163 123.521L56.1765 118.898L39.4959 112.427L33.9357 114.276L30.2289 117.974L26.522 120.747L19.1084 117.049Z" fill="url(#paint2_radial_37_1685)"/>
<path d="M21.5099 125.882L21.3042 125.608H20.9618H15.6852L12.7401 122.67L19.1807 117.851L26.216 121.361L26.5943 121.549L26.9328 121.296L30.6396 118.523L30.6786 118.493L30.7131 118.459L34.3054 114.875L39.478 113.155L54.8421 119.116L50.178 122.993L50.1541 123.013L50.132 123.035L44.6652 128.489L38.2996 131.211L38.2636 131.226L38.2296 131.245L32.0296 134.78L27.8335 133.105L24.2607 129.541L21.5099 125.882Z" stroke="url(#paint3_linear_37_1685)" stroke-opacity="0.4" stroke-width="1.37129"/>
</g>
<g filter="url(#filter2_bi_37_1685)">
<path d="M298.509 108.266V117.511L304.069 121.209L309.63 114.738L313.336 108.266L307.776 104.568L298.509 108.266Z" fill="url(#paint4_radial_37_1685)"/>
<path d="M303.944 120.302L299.195 117.144V108.731L307.696 105.338L312.423 108.482L309.067 114.34L303.944 120.302Z" stroke="url(#paint5_linear_37_1685)" stroke-opacity="0.4" stroke-width="1.37129"/>
</g>
<g filter="url(#filter3_bi_37_1685)">
<path d="M320.75 118.436L313.336 123.058V127.68H317.043L320.75 124.907L324.457 122.133L320.75 118.436Z" fill="url(#paint6_radial_37_1685)"/>
<path d="M314.022 126.995V123.438L320.651 119.305L323.411 122.059L320.339 124.358L316.815 126.995H314.022Z" stroke="url(#paint7_linear_37_1685)" stroke-opacity="0.4" stroke-width="1.37129"/>
</g>
<g filter="url(#filter4_bi_37_1685)">
<path d="M33.4727 423.518L26.9858 432.763L22.3523 437.385L25.1324 442.932L33.4727 451.253L41.813 447.555L49.2266 446.63L61.2738 445.706L74.2476 440.159L85.368 433.687V423.518L80.7345 415.198H62.2005H52.0067L44.5931 422.594L33.4727 423.518Z" fill="url(#paint8_radial_37_1685)"/>
<path d="M27.47 433.248L27.5126 433.206L27.5471 433.157L33.8495 424.175L44.6499 423.277L44.8998 423.256L45.0774 423.079L52.2903 415.883H62.2005H80.3315L84.6824 423.696V433.293L73.9392 439.545L61.1084 445.031L49.1742 445.947L49.1579 445.948L49.1418 445.95L41.7282 446.874L41.6277 446.887L41.5351 446.928L33.6243 450.435L25.6955 442.526L23.1872 437.521L27.47 433.248Z" stroke="url(#paint9_linear_37_1685)" stroke-opacity="0.4" stroke-width="1.37129"/>
</g>
<path d="M64.9802 233.073H76.1006L85.3677 217.357L100.195 219.206L96.4881 227.526L107.609 225.677L112.705 222.442L116.412 225.215L123.826 230.762L134.946 232.611L141.433 227.064L152.554 232.611L156.26 240.931V247.403L146.067 251.101L139.58 259.421L134.946 271.439L141.433 282.533L140.506 289.929L130.313 295.476" stroke="white" stroke-opacity="0.5" stroke-width="1.37129" stroke-miterlimit="10"/>
<path d="M264.221 297.787L254.954 287.617L245.687 295.938L229.933 307.031L224.373 317.201H207.693L198.426 320.899L203.059 329.219L210.473 327.37L216.033 320.899L224.373 327.37" stroke="white" stroke-opacity="0.5" stroke-width="1.37129" stroke-miterlimit="10"/>
<path d="M156.724 247.864L169.697 249.713L177.111 256.185L178.964 265.43L206.766 267.279L211.399 272.826L228.08 275.599L239.2 268.203H244.76L250.321 260.807L263.294 265.43H267.928L271.635 261.732L278.122 268.203" stroke="white" stroke-opacity="0.5" stroke-width="1.37129" stroke-miterlimit="10"/>
<path d="M100.195 27.836L108.998 39.3921L126.606 48.637L134.019 60.6554L128.459 68.9758V75.4472L130.313 82.8431L131.239 88.3901L143.286 91.1635L146.067 100.408V107.804V115.2L143.286 125.37V131.841L155.334 127.219H159.967L161.82 117.974L166.454 119.823L169.234 126.294L174.794 122.596H182.208L186.841 129.992L198.889 131.841L204.449 137.388L217.423 140.161L225.763 135.539L228.543 140.161L235.03 135.539H252.637L262.831 123.521" stroke="white" stroke-opacity="0.5" stroke-width="1.37129" stroke-miterlimit="10"/>
<path d="M64.9802 142.473L79.3441 151.255L87.6844 148.482L99.7315 146.633L110.852 151.255L117.339 161.425L110.852 170.67L113.632 178.99L119.192 190.084L127.533 194.707L128.459 202.102L130.313 212.272L136.8 222.441L141.433 227.064L152.554 232.611H158.114L164.601 221.517L170.161 216.894L157.187 209.498L154.407 202.102L156.26 190.084L155.334 177.141L172.014 164.198L178.501 155.878L184.988 154.953L192.402 158.651L204.449 137.388" stroke="white" stroke-opacity="0.5" stroke-width="1.37129" stroke-miterlimit="10"/>
<path d="M142.823 132.303L110.389 151.718" stroke="white" stroke-opacity="0.5" stroke-width="1.37129" stroke-miterlimit="10"/>
<path d="M119.656 190.546L112.242 199.791L110.389 207.187L112.242 213.658L119.656 216.431L127.07 213.658L129.813 209.535L127.07 195.168L119.656 190.546Z" stroke="white" stroke-opacity="0.5" stroke-width="1.37129" stroke-miterlimit="10"/>
<path d="M55.7133 70.361L53.8599 77.7569L55.7133 84.2284L57.5667 89.7753L63.1269 87.0018L72.3939 89.7753L76.1007 97.1712L74.2473 103.643L64.9803 106.416" stroke="white" stroke-opacity="0.5" stroke-width="1.37129" stroke-miterlimit="10"/>
<path d="M191.827 266.254L198.425 251.563L195.645 242.318L202.132 238.621L208.619 233.074L222.52 231.225L225.3 239.545L227.153 247.865L218.813 250.639L215.106 255.261L216.033 258.959L211.399 260.808L205.839 261.733L204.449 267.132L191.827 266.254Z" stroke="white" stroke-opacity="0.5" stroke-width="1.37129" stroke-miterlimit="10"/>
<path d="M72.394 89.7774H81.6611L85.3679 82.3815L90.9281 76.8346L97.415 79.6081L100.195 85.155L102.975 89.7774V96.2489L98.3417 103.645H90.9281H83.5145L80.7344 99.9468L75.2019 100.307L76.1009 97.1734L72.394 89.7774Z" stroke="white" stroke-opacity="0.5" stroke-width="1.37129" stroke-miterlimit="10"/>
<path d="M244.76 267.278L242.907 275.598L249.394 282.994L254.954 287.617" stroke="white" stroke-opacity="0.5" stroke-width="1.37129" stroke-miterlimit="10"/>
<g clip-path="url(#clip0_37_1685)">
<path d="M41.2569 322.084C45.8904 320.235 52.3773 322.084 52.3773 322.084L62.571 324.857V329.48L50.5239 336.875C50.5239 336.875 36.6234 323.933 41.2569 322.084Z" stroke="white" stroke-opacity="0.5" stroke-width="1.37129" stroke-miterlimit="10"/>
</g>
</g>
<defs>
<filter id="filter0_bi_37_1685" x="-56.0928" y="-55.2862" width="398.72" height="515.596" filterUnits="userSpaceOnUse" color-interpolation-filters="sRGB">
<feFlood flood-opacity="0" result="BackgroundImageFix"/>
<feGaussianBlur in="BackgroundImage" stdDeviation="28.797"/>
<feComposite in2="SourceAlpha" operator="in" result="effect1_backgroundBlur_37_1685"/>
<feBlend mode="normal" in="SourceGraphic" in2="effect1_backgroundBlur_37_1685" result="shape"/>
<feColorMatrix in="SourceAlpha" type="matrix" values="0 0 0 0 0 0 0 0 0 0 0 0 0 0 0 0 0 0 127 0" result="hardAlpha"/>
<feOffset dx="-6.85644" dy="-6.85644"/>
<feGaussianBlur stdDeviation="171.411"/>
<feComposite in2="hardAlpha" operator="arithmetic" k2="-1" k3="1"/>
<feColorMatrix type="matrix" values="0 0 0 0 1 0 0 0 0 1 0 0 0 0 1 0 0 0 0.02 0"/>
<feBlend mode="normal" in2="shape" result="effect2_innerShadow_37_1685"/>
</filter>
<filter id="filter1_bi_37_1685" x="-45.8992" y="54.8326" width="159.67" height="138.3" filterUnits="userSpaceOnUse" color-interpolation-filters="sRGB">
<feFlood flood-opacity="0" result="BackgroundImageFix"/>
<feGaussianBlur in="BackgroundImage" stdDeviation="28.797"/>
<feComposite in2="SourceAlpha" operator="in" result="effect1_backgroundBlur_37_1685"/>
<feBlend mode="normal" in="SourceGraphic" in2="effect1_backgroundBlur_37_1685" result="shape"/>
<feColorMatrix in="SourceAlpha" type="matrix" values="0 0 0 0 0 0 0 0 0 0 0 0 0 0 0 0 0 0 127 0" result="hardAlpha"/>
<feOffset dx="-6.85644" dy="-6.85644"/>
<feGaussianBlur stdDeviation="171.411"/>
<feComposite in2="hardAlpha" operator="arithmetic" k2="-1" k3="1"/>
<feColorMatrix type="matrix" values="0 0 0 0 1 0 0 0 0 1 0 0 0 0 1 0 0 0 0.02 0"/>
<feBlend mode="normal" in2="shape" result="effect2_innerShadow_37_1685"/>
</filter>
<filter id="filter2_bi_37_1685" x="240.915" y="46.9741" width="130.016" height="131.829" filterUnits="userSpaceOnUse" color-interpolation-filters="sRGB">
<feFlood flood-opacity="0" result="BackgroundImageFix"/>
<feGaussianBlur in="BackgroundImage" stdDeviation="28.797"/>
<feComposite in2="SourceAlpha" operator="in" result="effect1_backgroundBlur_37_1685"/>
<feBlend mode="normal" in="SourceGraphic" in2="effect1_backgroundBlur_37_1685" result="shape"/>
<feColorMatrix in="SourceAlpha" type="matrix" values="0 0 0 0 0 0 0 0 0 0 0 0 0 0 0 0 0 0 127 0" result="hardAlpha"/>
<feOffset dx="-6.85644" dy="-6.85644"/>
<feGaussianBlur stdDeviation="171.411"/>
<feComposite in2="hardAlpha" operator="arithmetic" k2="-1" k3="1"/>
<feColorMatrix type="matrix" values="0 0 0 0 1 0 0 0 0 1 0 0 0 0 1 0 0 0 0.02 0"/>
<feBlend mode="normal" in2="shape" result="effect2_innerShadow_37_1685"/>
</filter>
<filter id="filter3_bi_37_1685" x="255.742" y="60.8415" width="126.308" height="124.433" filterUnits="userSpaceOnUse" color-interpolation-filters="sRGB">
<feFlood flood-opacity="0" result="BackgroundImageFix"/>
<feGaussianBlur in="BackgroundImage" stdDeviation="28.797"/>
<feComposite in2="SourceAlpha" operator="in" result="effect1_backgroundBlur_37_1685"/>
<feBlend mode="normal" in="SourceGraphic" in2="effect1_backgroundBlur_37_1685" result="shape"/>
<feColorMatrix in="SourceAlpha" type="matrix" values="0 0 0 0 0 0 0 0 0 0 0 0 0 0 0 0 0 0 127 0" result="hardAlpha"/>
<feOffset dx="-6.85644" dy="-6.85644"/>
<feGaussianBlur stdDeviation="171.411"/>
<feComposite in2="hardAlpha" operator="arithmetic" k2="-1" k3="1"/>
<feColorMatrix type="matrix" values="0 0 0 0 1 0 0 0 0 1 0 0 0 0 1 0 0 0 0.02 0"/>
<feBlend mode="normal" in2="shape" result="effect2_innerShadow_37_1685"/>
</filter>
<filter id="filter4_bi_37_1685" x="-35.2418" y="357.604" width="178.204" height="151.243" filterUnits="userSpaceOnUse" color-interpolation-filters="sRGB">
<feFlood flood-opacity="0" result="BackgroundImageFix"/>
<feGaussianBlur in="BackgroundImage" stdDeviation="28.797"/>
<feComposite in2="SourceAlpha" operator="in" result="effect1_backgroundBlur_37_1685"/>
<feBlend mode="normal" in="SourceGraphic" in2="effect1_backgroundBlur_37_1685" result="shape"/>
<feColorMatrix in="SourceAlpha" type="matrix" values="0 0 0 0 0 0 0 0 0 0 0 0 0 0 0 0 0 0 127 0" result="hardAlpha"/>
<feOffset dx="-6.85644" dy="-6.85644"/>
<feGaussianBlur stdDeviation="171.411"/>
<feComposite in2="hardAlpha" operator="arithmetic" k2="-1" k3="1"/>
<feColorMatrix type="matrix" values="0 0 0 0 1 0 0 0 0 1 0 0 0 0 1 0 0 0 0.02 0"/>
<feBlend mode="normal" in2="shape" result="effect2_innerShadow_37_1685"/>
</filter>
<radialGradient id="paint0_radial_37_1685" cx="0" cy="0" r="1" gradientUnits="userSpaceOnUse" gradientTransform="translate(1.50122 2.30783) rotate(54.6974) scale(490.629 321.563)">
<stop stop-color="white" stop-opacity="0.4"/>
<stop offset="1" stop-color="white" stop-opacity="0"/>
</radialGradient>
<linearGradient id="paint1_linear_37_1685" x1="1.50122" y1="2.30783" x2="117.953" y2="432.631" gradientUnits="userSpaceOnUse">
<stop stop-color="white"/>
<stop offset="1" stop-color="#EEEDED" stop-opacity="0.5"/>
</linearGradient>
<radialGradient id="paint2_radial_37_1685" cx="0" cy="0" r="1" gradientUnits="userSpaceOnUse" gradientTransform="translate(11.6948 112.427) rotate(27.456) scale(50.1278 28.501)">
<stop stop-color="white" stop-opacity="0.4"/>
<stop offset="1" stop-color="white" stop-opacity="0"/>
</radialGradient>
<linearGradient id="paint3_linear_37_1685" x1="11.6948" y1="112.427" x2="14.323" y2="138.823" gradientUnits="userSpaceOnUse">
<stop stop-color="white"/>
<stop offset="1" stop-color="#EEEDED" stop-opacity="0.5"/>
</linearGradient>
<radialGradient id="paint4_radial_37_1685" cx="0" cy="0" r="1" gradientUnits="userSpaceOnUse" gradientTransform="translate(298.509 104.568) rotate(48.2982) scale(22.2883 15.3843)">
<stop stop-color="white" stop-opacity="0.4"/>
<stop offset="1" stop-color="white" stop-opacity="0"/>
</radialGradient>
<linearGradient id="paint5_linear_37_1685" x1="298.509" y1="104.568" x2="302.454" y2="122.913" gradientUnits="userSpaceOnUse">
<stop stop-color="white"/>
<stop offset="1" stop-color="#EEEDED" stop-opacity="0.5"/>
</linearGradient>
<radialGradient id="paint6_radial_37_1685" cx="0" cy="0" r="1" gradientUnits="userSpaceOnUse" gradientTransform="translate(313.336 118.436) rotate(39.7384) scale(14.4613 9.87928)">
<stop stop-color="white" stop-opacity="0.4"/>
<stop offset="1" stop-color="white" stop-opacity="0"/>
</radialGradient>
<linearGradient id="paint7_linear_37_1685" x1="313.336" y1="118.436" x2="314.993" y2="128.835" gradientUnits="userSpaceOnUse">
<stop stop-color="white"/>
<stop offset="1" stop-color="#EEEDED" stop-opacity="0.5"/>
</linearGradient>
<radialGradient id="paint8_radial_37_1685" cx="0" cy="0" r="1" gradientUnits="userSpaceOnUse" gradientTransform="translate(22.3523 415.198) rotate(29.7765) scale(72.6013 43.4896)">
<stop stop-color="white" stop-opacity="0.4"/>
<stop offset="1" stop-color="white" stop-opacity="0"/>
</radialGradient>
<linearGradient id="paint9_linear_37_1685" x1="22.3523" y1="415.198" x2="26.8577" y2="456.29" gradientUnits="userSpaceOnUse">
<stop stop-color="white"/>
<stop offset="1" stop-color="#EEEDED" stop-opacity="0.5"/>
</linearGradient>
<clipPath id="clip0_37_1685">
<rect width="25.0395" height="18.7393" fill="white" transform="translate(38.9216 319.873)"/>
</clipPath>
</defs>
</svg>
