<svg width="75" height="70" viewBox="0 0 75 70" fill="none" xmlns="http://www.w3.org/2000/svg">
<g clip-path="url(#clip0_42_1953)">
<path d="M5.7908 24.6802L22.1486 36.1364L38.495 24.6802L54.3133 36.1364L70.1201 24.6802V56.8219L54.3133 68.2781L38.2195 56.8219L22.0109 68.2781L5.72192 56.8219L5.7908 24.6802Z" stroke="#B0BAC6" stroke-width="2.5" stroke-linecap="round" stroke-linejoin="round"/>
<path d="M54.0493 35.4248V66.4186" stroke="#B0BAC6" stroke-width="2.5" stroke-linecap="round" stroke-linejoin="round"/>
<path d="M21.9075 35.4248V66.4186" stroke="#B0BAC6" stroke-width="2.5" stroke-linecap="round" stroke-linejoin="round"/>
<path d="M38.4375 25.2542L38.4375 56.2479" stroke="#B0BAC6" stroke-width="2.5" stroke-linecap="round" stroke-linejoin="round"/>
<path d="M43.9705 1.72192C39.8614 1.72496 35.9215 3.35865 33.0159 6.26422C30.1104 9.16979 28.4767 13.1097 28.4736 17.2188C28.4736 34.1506 44.2345 44.9525 44.2345 44.9525C44.2345 44.9525 59.4674 34.1506 59.4674 17.2188C59.4674 13.1088 57.8347 9.16708 54.9285 6.26085C52.0222 3.35462 48.0805 1.72192 43.9705 1.72192V1.72192Z" fill="white" stroke="#2F80ED" stroke-width="2.5" stroke-linecap="round" stroke-linejoin="round"/>
<path d="M43.9246 26.0348C48.7936 26.0348 52.7407 22.0878 52.7407 17.2188C52.7407 12.3499 48.7936 8.40283 43.9246 8.40283C39.0557 8.40283 35.1086 12.3499 35.1086 17.2188C35.1086 22.0878 39.0557 26.0348 43.9246 26.0348Z" fill="white" stroke="#2F80ED" stroke-width="2.5" stroke-linecap="round" stroke-linejoin="round"/>
</g>
<defs>
<clipPath id="clip0_42_1953">
<rect width="67.8419" height="70" fill="white" transform="translate(4)"/>
</clipPath>
</defs>
</svg>
