<svg width="75" height="70" viewBox="0 0 75 70" fill="none" xmlns="http://www.w3.org/2000/svg">
<g clip-path="url(#clip0_42_1961)">
<path d="M63.2049 46.232L47.7377 41.2751L40.5197 55.4092L39.3559 48.2575H34.76L33.5889 55.4092L26.3783 41.2751L10.9111 46.232C9.78267 46.5937 8.79818 47.3042 8.09932 48.2611C7.40047 49.2181 7.02335 50.3721 7.02222 51.5571V69.9704H67.0938V51.5571C67.0938 50.3719 66.7171 49.2173 66.0181 48.2601C65.319 47.3029 64.3339 46.5927 63.2049 46.232V46.232Z" fill="#2F80ED"/>
<path d="M34.7674 46.6815H39.3265L40.4755 41.4963H33.6184L34.7674 46.6815Z" fill="#2F80ED"/>
<path d="M26.5034 36.3112C29.6186 38.2628 33.2199 39.299 36.8959 39.3015V39.3015C41.9487 39.3152 46.8107 37.3725 50.4628 33.8806L59.3601 39.4341C60.1319 39.9197 61.0262 40.1752 61.938 40.1706C62.9989 40.1726 64.0315 39.8291 64.8798 39.192C65.728 38.5549 66.3458 37.6589 66.6395 36.6395C66.9333 35.6201 66.887 34.5328 66.5079 33.542C66.1287 32.5512 65.4372 31.7109 64.5379 31.1481L55.6406 25.5872C56.7541 22.0828 56.8621 18.3363 55.9521 14.7736C55.0421 11.2109 53.1508 7.97499 50.4932 5.43378C47.8355 2.89257 44.5182 1.14799 40.9183 0.398443C37.3184 -0.351107 33.5805 -0.075575 30.1294 1.19371C26.6784 2.46299 23.6527 4.6751 21.3964 7.57853C19.1401 10.482 17.7437 13.9602 17.3659 17.6178C16.9882 21.2754 17.6442 24.9656 19.2596 28.2689C20.8749 31.5722 23.3846 34.356 26.5034 36.3038V36.3112ZM63.3669 33.0262C63.9685 33.4022 64.3961 34.0019 64.5556 34.6932C64.7152 35.3845 64.5936 36.1109 64.2175 36.7126C63.8415 37.3142 63.2419 37.7418 62.5505 37.9014C61.8592 38.0609 61.1328 37.9393 60.5312 37.5632L52.0021 32.2307C52.5735 31.5298 53.0976 30.7916 53.571 30.0212C54.0453 29.2634 54.4662 28.4734 54.8304 27.6569L63.3669 33.0262ZM22.1211 10.4073C23.9483 7.47849 26.6032 5.15747 29.75 3.73797C32.8967 2.31846 36.3938 1.86427 39.7987 2.43285C43.2036 3.00144 46.3634 4.56725 48.8781 6.93215C51.3929 9.29706 53.1497 12.3548 53.9261 15.7184C54.7026 19.082 54.4639 22.6004 53.2401 25.8283C52.0164 29.0562 49.8627 31.8486 47.0515 33.8521C44.2403 35.8556 40.898 36.9802 37.4475 37.0836C33.9969 37.187 30.5933 36.2645 27.6671 34.433C25.7189 33.2274 24.0287 31.6478 22.6944 29.7853C21.36 27.9229 20.4079 25.8145 19.8929 23.582C19.3779 21.3495 19.3103 19.0371 19.694 16.7784C20.0777 14.5196 20.9051 12.3593 22.1284 10.422L22.1211 10.4073Z" fill="#B0BAC6"/>
<path d="M29.2949 31.8401C31.5711 33.2752 34.2051 34.0409 36.8959 34.0497C40.3663 34.0629 43.7246 32.8215 46.3522 30.5544C48.9798 28.2872 50.6996 25.147 51.1949 21.712C51.6903 18.2771 50.9277 14.7789 49.0477 11.8618C47.1678 8.94462 44.297 6.80505 40.9642 5.83716C37.6315 4.86927 34.0612 5.13827 30.9111 6.5946C27.761 8.05092 25.2432 10.5965 23.8216 13.7624C22.3999 16.9283 22.1701 20.5013 23.1745 23.8232C24.1789 27.1451 26.3499 29.9923 29.2875 31.8401H29.2949ZM26.5918 13.1985C27.7148 11.4029 29.2871 9.93156 31.153 8.92991C33.019 7.92825 35.1141 7.43099 37.2312 7.48728C39.3482 7.54356 41.414 8.15145 43.2241 9.25084C45.0342 10.3502 46.526 11.903 47.5521 13.7557C48.5781 15.6084 49.1028 17.6968 49.0742 19.8145C49.0457 21.9321 48.4649 24.0056 47.3893 25.83C46.3138 27.6543 44.7806 29.1664 42.9415 30.2166C41.1024 31.2668 39.0211 31.8188 36.9032 31.818C34.7313 31.8172 32.5993 31.2351 30.7283 30.132C28.8574 29.029 27.3157 27.4452 26.2635 25.5452C25.2113 23.6452 24.6868 21.4982 24.7446 19.3271C24.8023 17.156 25.4401 15.0399 26.5918 13.1985Z" fill="#B0BAC6"/>
</g>
<defs>
<clipPath id="clip0_42_1961">
<rect width="60.0936" height="70" fill="white" transform="translate(7)"/>
</clipPath>
</defs>
</svg>
