<svg width="75" height="71" viewBox="0 0 75 71" fill="none" xmlns="http://www.w3.org/2000/svg">
<path d="M57.4522 31.9334C57.4511 28.5039 56.5577 25.1338 54.8599 22.1541C53.1621 19.1745 50.7183 16.6879 47.7685 14.9386C44.8188 13.1893 41.4647 12.2376 38.0358 12.1769C34.6069 12.1163 31.2213 12.9488 28.2115 14.5927C25.2018 16.2366 22.6715 18.6353 20.8694 21.553C19.0673 24.4708 18.0554 27.8072 17.933 31.2345C17.8106 34.6617 18.5821 38.0618 20.1715 41.1006C21.7609 44.1395 24.1137 46.7125 26.9985 48.5669V52.04H25.164C24.8756 52.04 24.5989 52.1546 24.395 52.3586C24.191 52.5626 24.0764 52.8392 24.0764 53.1277C24.0764 53.4161 24.191 53.6928 24.395 53.8967C24.5989 54.1007 24.8756 54.2153 25.164 54.2153H26.9985V57.1157H25.164C24.8756 57.1157 24.5989 57.2302 24.395 57.4342C24.191 57.6382 24.0764 57.9148 24.0764 58.2033C24.0764 58.4917 24.191 58.7684 24.395 58.9724C24.5989 59.1763 24.8756 59.2909 25.164 59.2909H26.9985V59.3344C26.9985 62.1652 28.123 64.88 30.1246 66.8816C32.1263 68.8832 34.8411 70.0077 37.6718 70.0077C40.5025 70.0077 43.2173 68.8832 45.219 66.8816C47.2206 64.88 48.3451 62.1652 48.3451 59.3344V59.2909H50.1796C50.468 59.2909 50.7447 59.1763 50.9486 58.9724C51.1526 58.7684 51.2672 58.4917 51.2672 58.2033C51.2672 57.9148 51.1526 57.6382 50.9486 57.4342C50.7447 57.2302 50.468 57.1157 50.1796 57.1157H48.3451V54.2153H50.1796C50.468 54.2153 50.7447 54.1007 50.9486 53.8967C51.1526 53.6928 51.2672 53.4161 51.2672 53.1277C51.2672 52.8392 51.1526 52.5626 50.9486 52.3586C50.7447 52.1546 50.468 52.04 50.1796 52.04H48.3451V48.5669C51.1288 46.7726 53.4199 44.3112 55.0104 41.4063C56.6009 38.5014 57.4402 35.2451 57.4522 31.9334ZM46.1843 59.3344C46.1843 61.5882 45.289 63.7497 43.6953 65.3434C42.1016 66.9371 39.9401 67.8325 37.6863 67.8325C35.4325 67.8325 33.271 66.9371 31.6773 65.3434C30.0836 63.7497 29.1883 61.5882 29.1883 59.3344V59.2909H46.1843V59.3344ZM46.1843 57.1157H29.1883V54.2153H46.1843V57.1157ZM29.1883 52.04V47.965C29.1893 47.7765 29.141 47.591 29.0482 47.4269C28.9553 47.2628 28.8211 47.1259 28.659 47.0297C25.3552 45.0543 22.7907 42.0497 21.3585 38.4768C19.9264 34.9039 19.7057 30.9598 20.7304 27.2494C21.755 23.5391 23.9685 20.2672 27.0313 17.9356C30.094 15.604 33.837 14.3415 37.6863 14.3415C41.5356 14.3415 45.2786 15.604 48.3414 17.9356C51.4041 20.2672 53.6175 23.5391 54.6422 27.2494C55.6669 30.9598 55.4462 34.9039 54.0141 38.4768C52.5819 42.0497 50.0174 45.0543 46.7136 47.0297C46.5524 47.1269 46.419 47.2641 46.3263 47.428C46.2336 47.5918 46.1847 47.7768 46.1843 47.965V52.04H29.1883Z" fill="#B0BAC6"/>
<path d="M12.6201 30.5986H7.08763C6.79917 30.5986 6.52252 30.7132 6.31855 30.9172C6.11458 31.1212 6 31.3978 6 31.6863C6 31.9747 6.11458 32.2514 6.31855 32.4553C6.52252 32.6593 6.79917 32.7739 7.08763 32.7739H12.6201C12.9085 32.7739 13.1851 32.6593 13.3891 32.4553C13.5931 32.2514 13.7077 31.9747 13.7077 31.6863C13.7077 31.3978 13.5931 31.1212 13.3891 30.9172C13.1851 30.7132 12.9085 30.5986 12.6201 30.5986Z" fill="#B0BAC6"/>
<path d="M68.2851 30.5986H62.7527C62.4642 30.5986 62.1876 30.7132 61.9836 30.9172C61.7796 31.1212 61.665 31.3978 61.665 31.6863C61.665 31.9747 61.7796 32.2514 61.9836 32.4553C62.1876 32.6593 62.4642 32.7739 62.7527 32.7739H68.2851C68.5736 32.7739 68.8502 32.6593 69.0542 32.4553C69.2582 32.2514 69.3727 31.9747 69.3727 31.6863C69.3727 31.3978 69.2582 31.1212 69.0542 30.9172C68.8502 30.7132 68.5736 30.5986 68.2851 30.5986Z" fill="#B0BAC6"/>
<path d="M37.6863 7.70769C37.9747 7.70769 38.2514 7.59308 38.4553 7.38911C38.6593 7.18514 38.7739 6.90852 38.7739 6.62006V1.08763C38.7739 0.799174 38.6593 0.522524 38.4553 0.318554C38.2514 0.114583 37.9747 0 37.6863 0C37.3978 0 37.1212 0.114583 36.9172 0.318554C36.7132 0.522524 36.5986 0.799174 36.5986 1.08763V6.63455C36.6024 6.92049 36.7187 7.19342 36.9223 7.39427C37.1258 7.59511 37.4003 7.70772 37.6863 7.70769Z" fill="#B0BAC6"/>
<path d="M19.1966 14.7265C19.2963 14.8292 19.4159 14.9104 19.548 14.9653C19.6802 15.0201 19.8222 15.0474 19.9653 15.0455C20.1082 15.0462 20.2497 15.0183 20.3817 14.9635C20.5137 14.9087 20.6334 14.8282 20.7338 14.7265C20.9358 14.5216 21.0489 14.2455 21.0489 13.9579C21.0489 13.6702 20.9358 13.3942 20.7338 13.1893L16.8183 9.28106C16.7179 9.17934 16.5982 9.09857 16.4662 9.04345C16.3343 8.98833 16.1927 8.95996 16.0498 8.95996C15.9068 8.95996 15.7652 8.98833 15.6333 9.04345C15.5014 9.09857 15.3817 9.17934 15.2812 9.28106C15.0792 9.48592 14.9661 9.76201 14.9661 10.0497C14.9661 10.3373 15.0792 10.6134 15.2812 10.8182L19.1966 14.7265Z" fill="#B0BAC6"/>
<path d="M56.1835 48.6393C55.9786 48.4374 55.7026 48.3242 55.4149 48.3242C55.1273 48.3242 54.8512 48.4374 54.6463 48.6393C54.5446 48.7398 54.4638 48.8595 54.4087 48.9914C54.3536 49.1234 54.3252 49.2649 54.3252 49.4079C54.3252 49.5509 54.3536 49.6925 54.4087 49.8244C54.4638 49.9563 54.5446 50.076 54.6463 50.1765L58.5546 54.092C58.6556 54.1924 58.7755 54.2716 58.9075 54.3251C59.0394 54.3787 59.1808 54.4054 59.3231 54.4038C59.6105 54.4055 59.8868 54.2934 60.0917 54.092C60.2941 53.8859 60.4075 53.6086 60.4075 53.3198C60.4075 53.0309 60.2941 52.7536 60.0917 52.5476L56.1835 48.6393Z" fill="#B0BAC6"/>
<path d="M58.5545 9.28121L54.6463 13.1604C54.5446 13.2609 54.4638 13.3806 54.4087 13.5125C54.3536 13.6445 54.3252 13.786 54.3252 13.929C54.3252 14.072 54.3536 14.2136 54.4087 14.3455C54.4638 14.4775 54.5446 14.5971 54.6463 14.6976C54.746 14.8003 54.8655 14.8816 54.9977 14.9364C55.1299 14.9913 55.2718 15.0186 55.4149 15.0167C55.5578 15.0173 55.6994 14.9895 55.8314 14.9347C55.9634 14.8799 56.0831 14.7993 56.1835 14.6976L60.0917 10.7894C60.2937 10.5845 60.4068 10.3085 60.4068 10.0208C60.4068 9.73317 60.2937 9.45706 60.0917 9.2522C59.9893 9.15235 59.8681 9.07383 59.7351 9.02118C59.6022 8.96854 59.4601 8.94281 59.3171 8.9455C59.1741 8.9482 59.033 8.97927 58.9021 9.03689C58.7712 9.09452 58.6531 9.17757 58.5545 9.28121Z" fill="#B0BAC6"/>
<path d="M19.1964 48.6386L15.281 52.5468C15.129 52.6989 15.0256 52.8926 14.9837 53.1035C14.9418 53.3143 14.9634 53.5329 15.0456 53.7315C15.1279 53.9301 15.2671 54.0999 15.4458 54.2194C15.6245 54.339 15.8346 54.4029 16.0496 54.403C16.1919 54.4047 16.3332 54.3779 16.4652 54.3244C16.5972 54.2709 16.7171 54.1916 16.8181 54.0913L20.7336 50.1758C20.9258 49.9696 21.0303 49.6969 21.0254 49.4151C21.0204 49.1334 20.9062 48.8645 20.707 48.6652C20.5077 48.466 20.2389 48.3518 19.9571 48.3468C19.6753 48.3419 19.4026 48.4465 19.1964 48.6386V48.6386Z" fill="#B0BAC6"/>
<path d="M37.6865 37.342C38.2634 37.342 38.8167 37.1128 39.2247 36.7049C39.6326 36.2969 39.8618 35.7436 39.8618 35.1667V26.0669C39.8618 25.4899 39.6326 24.9367 39.2247 24.5287C38.8167 24.1208 38.2634 23.8916 37.6865 23.8916C37.1096 23.8916 36.5563 24.1208 36.1484 24.5287C35.7404 24.9367 35.5112 25.4899 35.5112 26.0669V35.174C35.5131 35.7496 35.7432 36.3011 36.1509 36.7074C36.5587 37.1138 37.1108 37.342 37.6865 37.342Z" fill="#2F80ED"/>
<path d="M37.6864 39.416C37.2361 39.416 36.7959 39.5495 36.4215 39.7997C36.0471 40.0499 35.7553 40.4055 35.583 40.8215C35.4107 41.2375 35.3656 41.6953 35.4534 42.137C35.5413 42.5786 35.7581 42.9843 36.0765 43.3027C36.3949 43.6211 36.8006 43.838 37.2423 43.9258C37.6839 44.0137 38.1417 43.9686 38.5577 43.7962C38.9737 43.6239 39.3293 43.3321 39.5795 42.9577C39.8297 42.5833 39.9632 42.1431 39.9632 41.6928C39.9632 41.0889 39.7234 40.5098 39.2964 40.0829C38.8694 39.6559 38.2903 39.416 37.6864 39.416Z" fill="#2F80ED"/>
</svg>
