<svg width="54" height="54" viewBox="0 0 54 54" fill="none" xmlns="http://www.w3.org/2000/svg">
<circle cx="27" cy="27" r="27" fill="black" fill-opacity="0.2"/>
<g opacity="0.8">
<path d="M18 33.5V20C18 19.2044 18.3161 18.4413 18.8787 17.8787C19.4413 17.3161 20.2044 17 21 17H35C35.2652 17 35.5196 17.1054 35.7071 17.2929C35.8946 17.4804 36 17.7348 36 18V36C36 36.2652 35.8946 36.5196 35.7071 36.7071C35.5196 36.8946 35.2652 37 35 37H21.5C20.5717 37 19.6815 36.6313 19.0251 35.9749C18.3687 35.3185 18 34.4283 18 33.5V33.5ZM34 35V32H21.5C21.1022 32 20.7206 32.158 20.4393 32.4393C20.158 32.7206 20 33.1022 20 33.5C20 33.8978 20.158 34.2794 20.4393 34.5607C20.7206 34.842 21.1022 35 21.5 35H34ZM25 19H21C20.7348 19 20.4804 19.1054 20.2929 19.2929C20.1054 19.4804 20 19.7348 20 20V30.337C20.4687 30.1144 20.9812 29.9993 21.5 30H34V19H32V27L28.5 25L25 27V19Z" fill="white"/>
</g>
</svg>
