<svg width="54" height="55" viewBox="0 0 54 55" fill="none" xmlns="http://www.w3.org/2000/svg">
<circle cx="27" cy="27.396" r="27" fill="white"/>
<path d="M19 17.396H35C35.2652 17.396 35.5196 17.5014 35.7071 17.6889C35.8946 17.8764 36 18.1308 36 18.396V36.396C36 36.6612 35.8946 36.9156 35.7071 37.1031C35.5196 37.2906 35.2652 37.396 35 37.396H19C18.7348 37.396 18.4804 37.2906 18.2929 37.1031C18.1054 36.9156 18 36.6612 18 36.396V18.396C18 18.1308 18.1054 17.8764 18.2929 17.6889C18.4804 17.5014 18.7348 17.396 19 17.396V17.396ZM20 19.396V35.396H34V19.396H20ZM22 21.396H32V25.396H22V21.396ZM22 27.396H24V29.396H22V27.396ZM22 31.396H24V33.396H22V31.396ZM26 27.396H28V29.396H26V27.396ZM26 31.396H28V33.396H26V31.396ZM30 27.396H32V33.396H30V27.396Z" fill="#1B1F3A"/>
</svg>
