<svg width="177" height="47" viewBox="0 0 177 47" fill="none" xmlns="http://www.w3.org/2000/svg">
<g clip-path="url(#clip0)">
<path d="M56.1364 37.3584C56.1364 36.2168 55.9027 35.4168 55.4353 34.9583C54.9679 34.4999 54.1229 34.2751 52.9004 34.2751H49.4306V44.5406H51.6779V40.4147H52.9094H53.0352C53.7544 40.4147 54.2667 40.3607 54.5813 40.2618C54.896 40.163 55.1656 39.9922 55.3993 39.7495C55.642 39.5068 55.8218 39.1832 55.9477 38.7697C56.0735 38.3652 56.1364 37.8977 56.1364 37.3584ZM53.6195 38.455C53.4128 38.6618 52.9993 38.7697 52.37 38.7697H51.6599V35.8932H52.5678C53.0982 35.8932 53.4577 35.9921 53.6465 36.1988C53.8442 36.4055 53.9341 36.7741 53.9341 37.3044C53.9251 37.8618 53.8263 38.2483 53.6195 38.455Z" fill="white"/>
<path d="M58.5995 34.2841L55.687 44.5406H57.8713L58.4107 42.2664H61.404L61.9613 44.5406H64.2356L61.3591 34.2751H58.5995V34.2841ZM58.8062 40.6843L59.9388 36.2437L61.0085 40.6843H58.8062Z" fill="white"/>
<path d="M67.7952 34.2842H65.6738V44.5496H67.7952V34.2842Z" fill="white"/>
<path d="M78.609 41.0258H76.4247C76.4247 41.0708 76.4247 41.1337 76.4337 41.2146C76.4337 41.2865 76.4427 41.3494 76.4427 41.3854C76.4427 41.9607 76.3528 42.3832 76.182 42.6708C76.0022 42.9495 75.7415 43.0933 75.391 43.0933C74.8966 43.0933 74.555 42.8596 74.3662 42.3922C74.1774 41.9247 74.0786 40.9899 74.0786 39.5876C74.0786 37.9156 74.1684 36.8459 74.3572 36.3875C74.546 35.929 74.8786 35.6953 75.364 35.6953C75.7146 35.6953 75.9752 35.8302 76.155 36.0908C76.3258 36.3515 76.4157 36.756 76.4157 37.3044V37.5021H78.5821V37.3044C78.5821 36.2616 78.3124 35.4706 77.782 34.9492C77.2517 34.4189 76.4606 34.1582 75.4179 34.1582C74.7797 34.1582 74.2224 34.2571 73.746 34.4638C73.2695 34.6616 72.901 34.9582 72.6493 35.3448C72.3886 35.7223 72.2088 36.1987 72.101 36.774C71.9661 37.3313 71.9122 38.1314 71.9122 39.1651C71.9122 40.6752 72.0021 41.7629 72.1819 42.4371C72.3617 43.1113 72.6583 43.6326 73.0898 43.9922C73.3415 44.2079 73.6651 44.3787 74.0786 44.5046C74.4921 44.6304 74.9415 44.6933 75.4179 44.6933C76.4517 44.6933 77.2517 44.4147 77.8 43.8574C78.3573 43.3 78.636 42.518 78.636 41.4932C78.636 41.3584 78.636 41.2685 78.636 41.1966C78.627 41.1427 78.618 41.0798 78.609 41.0258Z" fill="white"/>
<path d="M84.4698 38.2933H82.1147V34.2842H79.9484V44.5407H82.1147V40.0102H84.4698V44.5407H86.6272V34.2842H84.4698V38.2933Z" fill="white"/>
<path d="M90.8431 34.2841L87.9216 44.5406H90.106L90.6453 42.2664H93.6387L94.196 44.5406H96.4612L93.5847 34.2751H90.8431V34.2841ZM91.0408 40.6843L92.1734 36.2437L93.2431 40.6843H91.0408Z" fill="white"/>
<path d="M100.03 34.2842H97.9084V44.5496H100.03V34.2842Z" fill="white"/>
<path d="M109.387 40.5046C109.387 41.6012 109.289 42.3294 109.091 42.6799C108.893 43.0305 108.542 43.2103 108.03 43.2103C107.5 43.2103 107.14 43.0575 106.942 42.7339C106.745 42.4192 106.646 41.6732 106.646 40.5046V34.2842H104.488V41.0619C104.488 42.3294 104.776 43.2642 105.342 43.8665C105.909 44.4687 106.799 44.7744 108.012 44.7744C109.271 44.7744 110.169 44.4687 110.718 43.8485C111.266 43.2283 111.536 42.2035 111.536 40.7653V34.2842H109.396V40.5046H109.387Z" fill="white"/>
<path d="M125.19 34.2842H123.069V44.5496H125.19V34.2842Z" fill="white"/>
<path d="M130.152 41.6552L128.417 34.2842H126.296L128.876 44.5407H131.42L133.999 34.2842H131.878L130.152 41.6552Z" fill="white"/>
<path d="M118.943 41.4754L116.318 34.2842H115.509H114.493H113.397V44.5407H115.509V37.0708L118.242 44.5407H118.943H120.066H121.064V34.2842H118.943V41.4754Z" fill="white"/>
<path d="M135.231 44.5407H140.768V42.8957H137.415V39.9113H140.768V38.3203H137.415V35.8752H140.768V34.2842H135.231V44.5407Z" fill="white"/>
<path d="M148.966 41.6102C148.984 40.8192 148.912 39.7674 147.375 39.4618C148.813 39.1292 148.948 37.7 148.948 36.9089C148.948 35.9111 148.651 35.228 148.193 34.8415C147.735 34.4639 146.881 34.2751 145.613 34.2751H142.539V44.5406H144.705V40.3158H145.613C146.036 40.3158 146.332 40.4236 146.512 40.6304C146.692 40.8371 146.818 41.1967 146.8 41.7091C146.782 42.2934 146.746 43.8125 146.979 44.5496H149.227C148.885 43.6147 148.948 42.2304 148.966 41.6102ZM146.458 38.3831C146.233 38.5989 145.82 38.7067 145.236 38.7067H144.696V35.8932H145.272C145.874 35.8932 146.269 35.992 146.476 36.1808C146.683 36.3696 146.791 36.7292 146.791 37.2505C146.8 37.7809 146.683 38.1674 146.458 38.3831Z" fill="white"/>
<path d="M154.584 38.6528C153.389 37.9336 152.759 37.3583 152.759 36.7291C152.759 36.2796 152.975 35.7044 153.847 35.7044C154.782 35.7044 154.89 36.7561 154.89 37.2325H157.02V37.0167C157.02 35.956 156.67 34.1492 153.847 34.1133C151.007 34.0773 150.638 35.992 150.638 36.8549C150.638 38.6258 151.977 39.264 153.425 40.2708C154.467 40.9989 154.971 41.2236 154.971 41.8978C154.971 42.7967 154.225 43.1113 153.838 43.1113C152.409 43.1113 152.58 41.7989 152.58 41.3225H150.458C150.458 41.3225 150.458 41.4214 150.458 41.5113C150.458 44.4597 152.508 44.7203 153.838 44.7203C156.544 44.7203 157.092 42.9945 157.092 41.9068C157.11 41.1787 157.146 40.1899 154.584 38.6528Z" fill="white"/>
<path d="M160.751 34.2842H158.629V44.5496H160.751V34.2842Z" fill="white"/>
<path d="M161.533 35.9561H163.987V44.5407H166.216V35.9561H168.697V34.2842H161.533V35.9561Z" fill="white"/>
<path d="M174.432 34.2842L172.769 38.563L171.268 34.2842H168.868L171.564 40.6844V44.5407H173.776V40.6844L176.688 34.2842H174.432Z" fill="white"/>
<path d="M50.9857 22.8861H60.2534C61.0984 22.8681 61.7816 22.1759 61.7816 21.322V7.25415H58.4826V13.2049H52.7566V7.25415H49.4576V21.322C49.4486 22.1669 50.1318 22.8681 50.9857 22.8861ZM52.7566 15.7847H58.4826V20.2703H52.7566V15.7847V15.7847Z" fill="white"/>
<path d="M175.592 26.248V7.65869H156.894V10.3194H171.987V25.0884H168.76L168.751 17.8612H165.191V25.0884H162.629V17.8612H159.061V25.0884H155.537V27.7492H174.135C174.926 27.7132 175.574 27.057 175.592 26.248Z" fill="white"/>
<path d="M150.476 13.3307H153.389V10.6699H150.476V7.24512H146.872V19.7309H131.446V22.3916H146.872V29.0615H149.137C149.892 28.9446 150.467 28.2974 150.467 27.5154V13.3307H150.476Z" fill="white"/>
<path d="M122.017 13.124H120.318V7.25415H116.956V20.9085H108.515V9.9149H115.077V7.25415H104.884V21.6546C104.884 22.3647 105.028 22.8771 105.315 23.1917C105.585 23.4434 106.026 23.5692 106.619 23.5692H116.947V29.0705H118.781C119.626 29.0525 120.309 28.3514 120.309 27.5064V15.8387H122.008V29.0795H123.878V29.0705C124.741 29.0705 125.442 28.3694 125.442 27.5064V7.25415H121.999V13.124H122.017Z" fill="white"/>
<path d="M72.1729 7.25415H68.7391V13.133H67.0402V7.25415H63.6783V29.0705H65.503C66.348 29.0525 67.0312 28.3514 67.0312 27.5064V15.8387H68.7301V29.0795H70.5998V29.0705C71.4627 29.0705 72.1639 28.3694 72.1639 27.5064V7.25415H72.1729Z" fill="white"/>
<path d="M130.637 13.5016C130.637 16.432 133.442 18.8051 136.894 18.8051C140.355 18.8051 143.159 16.432 143.159 13.5016C143.159 12.3959 142.764 11.3622 142.072 10.5172H144.184V8.01827H138.826V6.02271H134.988V8.01827H129.64V10.5172H131.716C131.042 11.3622 130.637 12.3869 130.637 13.5016ZM136.903 10.3914C138.539 10.3914 139.869 11.7577 139.869 13.4386C139.869 15.1196 138.539 16.4859 136.903 16.4859C135.267 16.4859 133.936 15.1196 133.936 13.4386C133.936 11.7487 135.267 10.3914 136.903 10.3914Z" fill="white"/>
<path d="M94.6544 27.4974V15.8387H96.3533V29.0795H98.2231V29.0705C99.086 29.0705 99.7871 28.3694 99.7871 27.5064V7.25415H96.3444V13.133H94.6454V7.25415H91.2835V29.0705H93.1173C93.9712 29.0525 94.6544 28.3514 94.6544 27.4974Z" fill="white"/>
<path d="M83.3462 18.6792C83.9755 20.0545 84.9463 21.1692 86.2587 22.0231C87.4542 22.8142 88.8026 23.3085 90.2947 23.5153V20.5849C88.5868 19.9467 85.2429 18.9489 85.1171 10.0048H89.5756V7.25415H77.1258V10.0048H81.5754C81.4495 18.9489 78.1146 19.9377 76.3977 20.5849V23.5153C77.8899 23.3175 79.2382 22.8142 80.4338 22.0231C81.7462 21.1692 82.717 20.0545 83.3462 18.6792Z" fill="white"/>
<path d="M28.1446 2.50794C24.7288 2.50794 21.5197 1.59106 18.7601 0C16.0005 1.60005 12.8004 2.50794 9.37555 2.50794C5.95972 2.50794 2.75963 1.60005 0 0V16.6746C0 29.3941 7.11931 40.4506 17.5915 46.0777C17.978 46.2845 18.3646 46.4822 18.7601 46.68C19.1556 46.4912 19.5421 46.2845 19.9287 46.0777C30.4099 40.4506 37.5292 29.3941 37.5292 16.6746V0C34.7695 1.60005 31.5605 2.50794 28.1446 2.50794ZM1.95961 16.7106H12.5487V20.8455L4.26979 29.1244C2.77761 25.5198 1.95961 21.5647 1.95961 17.4207V16.7106V16.7106ZM18.7601 44.7743C15.8656 43.3001 13.2318 41.3855 10.9486 39.1112L18.805 31.2548L26.5985 39.0753C24.3243 41.3585 21.6815 43.2911 18.7601 44.7743ZM33.2864 29.0615L25.0614 20.8186V16.7106H35.5786V17.4207C35.5696 21.5377 34.7606 25.4659 33.2864 29.0615Z" fill="#004F9F"/>
<path d="M25.0524 16.7104H35.5696V17.4206C35.5696 21.5376 34.7516 25.4747 33.2774 29.0614L25.0524 20.8184V16.7104V16.7104Z" fill="white"/>
<path d="M26.6075 39.0753C24.3243 41.3675 21.6725 43.3002 18.7601 44.7744C15.8656 43.3002 13.2319 41.3855 10.9486 39.1113L18.805 31.2549L26.6075 39.0753Z" fill="white"/>
<path d="M12.5487 16.7104V20.8454L4.26977 29.1243C2.7776 25.5197 1.95959 21.5645 1.95959 17.4206V16.7104H12.5487Z" fill="white"/>
<path d="M24.9985 9.18687C24.9985 12.6297 22.2029 15.4253 18.7601 15.4253C15.3173 15.4253 12.5217 12.6297 12.5217 9.18687C12.5217 5.74407 15.3173 2.94849 18.7601 2.94849C22.2119 2.94849 24.9985 5.74407 24.9985 9.18687Z" fill="white"/>
<path d="M24.3513 9.18692C24.3513 6.12166 21.8793 3.6317 18.823 3.60474C18.805 3.60474 18.7691 3.60474 18.7691 3.60474C15.6858 3.60474 13.1869 6.10368 13.1869 9.18692C13.1869 12.2252 15.6049 14.6882 18.6252 14.7691C18.6792 14.7691 18.7871 14.7691 18.7871 14.7691C21.8523 14.7691 24.3513 12.2702 24.3513 9.18692ZM13.8611 9.18692C13.8611 6.58909 15.8746 4.46768 18.4275 4.29689V8.21611H19.0927V4.31487C20.1803 4.48566 21.0613 5.44749 21.0613 6.5801C21.0613 7.82059 19.9916 8.84534 18.7601 8.84534C17.1151 8.84534 15.7937 10.1577 15.7937 11.8027C15.7937 12.396 15.9645 12.9443 16.2611 13.4028C14.8229 12.5398 13.8611 10.9757 13.8611 9.18692ZM19.0927 14.0769V10.1487H18.4275V14.059C17.3398 13.8882 16.4499 12.9264 16.4499 11.8027C16.4499 10.5622 17.5286 9.5285 18.7691 9.5285C20.4051 9.5285 21.7355 8.22509 21.7355 6.5801C21.7355 5.99582 21.5647 5.44749 21.268 4.98006C22.6973 5.83401 23.6591 7.3981 23.6591 9.18692C23.6591 11.7847 21.6456 13.9062 19.0927 14.0769Z" fill="#E30613"/>
</g>
<defs>
<clipPath id="clip0">
<rect width="176.688" height="46.68" fill="white"/>
</clipPath>
</defs>
</svg>
