<svg width="356" height="208" viewBox="0 0 356 208" fill="none" xmlns="http://www.w3.org/2000/svg">
<g filter="url(#filter0_d)">
<path d="M198.322 100.649C196.367 100.787 191.521 104.633 189.699 104.863C188.655 105.001 187.629 105.23 186.543 105.469C186.291 105.529 186.03 105.584 185.769 105.643L185.815 105.437C185.971 104.753 186.117 104.115 186.237 103.468C186.314 103.068 186.392 102.673 186.47 102.274C186.69 101.168 186.91 100.025 187.024 98.8773L187.033 98.8176C187.038 98.7671 187.052 98.712 187.056 98.6615V98.6156L187.075 98.4917C187.075 98.4733 187.075 98.4595 187.075 98.4412L187.139 97.7572L187.084 97.7848C187.047 95.0995 185.586 92.988 184.112 91.2666C183.988 91.1243 183.873 90.9591 183.75 90.7938C183.214 90.0456 182.536 89.0725 181.016 89.3249L180.741 89.3708L180.631 89.6233C180.544 89.8299 180.461 90.041 180.379 90.2522C180.205 90.6928 180.04 91.1106 179.83 91.4961C179.252 92.5335 178.662 93.5618 178.071 94.59C177.37 95.8202 176.665 97.0503 175.987 98.2943C175.406 99.3547 174.847 100.433 174.293 101.507C173.922 102.224 173.56 102.94 173.18 103.651C173.015 103.959 172.841 104.262 172.667 104.569L172.374 105.083C172.268 105.267 172.168 105.455 172.062 105.639L171.916 105.891H171.92C171.604 106.456 171.293 107.034 171.027 107.626C170.491 108.82 170.011 110.055 169.534 111.239C169.195 112.106 168.857 112.974 168.495 113.823L168.334 114.218C168.101 114.792 167.84 115.443 167.473 115.678C166.603 116.224 166.425 116.834 166.425 117.578C166.429 117.821 166.448 118.065 166.471 118.317C166.489 118.528 166.503 118.744 166.503 118.96C166.507 119.134 166.498 119.354 166.438 119.52C166.223 120.089 166.095 120.676 166.049 121.31C165.857 121.434 165.669 121.562 165.49 121.7C165.303 121.847 165.129 122.003 164.955 122.168C164.721 122.398 164.497 122.609 164.263 122.724C162.285 123.669 160.192 124.629 157.847 125.652C157.357 125.863 157.165 125.294 157.119 125.115C156.936 124.413 156.78 123.683 156.881 123.05L157.187 121.177C157.439 119.662 157.737 118.065 158.213 116.564C158.731 114.92 159.459 113.295 160.16 111.725C160.402 111.184 160.65 110.637 160.911 110.027L160.998 109.82C161.726 108.136 162.33 106.731 163.022 105.317C163.869 103.591 164.602 102.201 165.339 100.952C166.168 99.552 167.006 98.1612 167.872 96.7749C168.408 95.9074 168.953 95.0352 169.525 94.186C170.716 92.4188 170.748 90.2338 169.548 88.9256C168.971 88.2967 168.93 88.159 169.2 87.8056L169.543 87.3603L167.881 86.736L166.278 86.4515C166.264 86.456 166.251 86.4652 166.237 86.4698C165.715 86.7406 165.174 87.0115 164.703 87.4062C164.455 87.6128 164.323 87.6266 164.3 87.6266C164.245 87.6266 164.176 87.5118 164.135 87.4154C163.865 86.7728 163.434 86.4515 162.848 86.4515C162.587 86.4515 162.33 86.5157 162.092 86.5846C162.014 86.6075 161.932 86.6259 161.845 86.6488C161.46 86.7315 160.764 86.8783 160.581 87.6862C160.54 87.7046 160.485 87.7321 160.398 87.7689C159.725 88.0351 159.051 88.283 158.374 88.5262C158.071 88.6364 157.76 88.7282 157.458 88.82C157.293 88.8659 157.119 88.9026 156.945 88.9348C156.514 89.022 156.061 89.1092 155.681 89.3754L155.516 89.4856C154.041 90.4817 152.516 91.5145 151.147 92.708C148.408 95.0903 145.5 97.6608 142.784 100.337C140.137 102.953 138.264 105.368 136.89 107.929L136.876 107.938L136.776 108.131C136.689 108.292 136.597 108.443 136.506 108.599C136.098 109.279 135.594 110.123 135.947 111.17C135.942 111.211 135.892 111.358 135.787 111.523C135.626 111.753 135.475 111.992 135.324 112.235C134.916 112.882 134.527 113.497 134.023 113.956C133.167 114.741 132.677 115.687 132.278 116.614H132.274L132.196 116.807C132.191 116.825 132.178 116.848 132.169 116.862L131.821 117.725L131.83 117.72L131.646 118.188C131.477 118.606 131.33 119.038 131.184 119.465C130.859 120.401 130.557 121.287 130.021 122.095C129.549 122.802 129.38 123.871 129.554 124.996L128.39 125.96L128.477 125.955C128.235 126.198 128.001 126.451 127.767 126.703C127.374 127.144 126.994 127.557 126.572 127.911C126.165 128.246 125.693 128.517 125.189 128.801C124.914 128.957 124.644 129.113 124.374 129.279C123.975 129.536 123.577 129.797 123.183 130.063C122.473 130.532 121.768 131 121.04 131.431C120.811 131.564 120.619 131.638 120.472 131.638C120.348 131.638 120.151 131.578 119.822 131.138C119.68 130.954 119.556 130.752 119.432 130.555C119.336 130.403 119.245 130.252 119.144 130.109C118.535 129.214 118.379 128.181 118.219 127.098C118.196 126.942 118.168 126.786 118.141 126.63H118.164L118.049 126.056C118.049 126.056 118.049 126.056 118.049 126.052L117.971 125.634H117.953C117.926 125.51 117.903 125.391 117.862 125.257C118.237 124.771 118.287 124.234 118.324 123.798C118.347 123.554 118.365 123.33 118.439 123.146L118.658 122.609L118.168 122.485C118.681 121.994 118.832 121.278 118.952 120.699L119.029 120.337L118.709 120.153C118.576 120.075 118.48 119.969 118.457 119.859C118.439 119.786 118.452 119.722 118.494 119.662L118.626 119.465C118.741 119.341 118.828 119.212 118.892 119.088L119.135 118.739L119.029 118.753C119.084 118.56 119.112 118.372 119.135 118.198C119.153 118.06 119.167 117.908 119.213 117.762L119.387 117.133L119.996 115.875L119.478 115.953L119.561 115.847L119.355 115.632C119.542 115.517 119.794 115.297 119.762 114.929L119.735 114.626L119.588 114.562C119.73 114.397 119.877 114.158 119.79 113.851L119.776 113.819C119.987 113.713 120.202 113.552 120.252 113.277C120.289 113.084 120.234 112.919 120.17 112.777L121.031 113.148L120.394 111.358L120.183 110.761C120.999 109.742 121.612 106.883 121.447 105.744L122.185 104.138L122.574 104.023L122.295 103.899L122.473 103.509H121.676C121.589 103.509 121.539 103.5 121.489 103.495C121.489 103.49 121.489 103.486 121.493 103.481C121.663 103.059 121.731 103.036 121.887 103.036C122.226 103.031 122.537 102.733 122.611 102.462C122.734 102.022 122.849 101.581 122.963 101.136L123.133 100.465C123.206 100.195 123.266 99.9238 123.325 99.653C123.458 99.0425 123.586 98.4641 123.829 97.9592C124.191 97.2156 124.662 96.4903 125.615 96.2011C126.673 95.8844 127.713 95.4759 128.72 95.0811C129.384 94.8241 130.057 94.5624 130.735 94.3237C131.152 94.1768 131.578 94.0713 132.013 93.9611C132.512 93.8326 133.007 93.7086 133.488 93.5296C134.541 93.144 135.576 92.708 136.611 92.2811L138.246 91.6155C138.608 91.4732 138.983 91.3263 139.34 91.1243C139.688 90.9269 140.041 90.2843 139.817 89.8574C139.652 89.5453 139.208 89.2194 138.708 89.2194C138.708 89.2194 138.704 89.2194 138.699 89.2194C136.634 89.4672 134.568 89.7381 132.503 90.0135L130.561 90.266C130.442 90.2843 130.328 90.2935 130.208 90.3027C129.979 90.3302 129.76 90.3532 129.54 90.3991C129.21 90.4679 128.885 90.546 128.555 90.624C128.079 90.7342 127.598 90.8397 127.117 90.9315C126.806 90.9866 126.581 91.0188 126.357 91.0233C126.316 90.9912 126.233 90.8535 126.142 90.6837L127.479 88.9807L126.801 89.1276L126.742 88.9807C126.989 88.8476 127.25 88.6685 127.273 88.3335C127.291 88.003 127.442 87.6725 127.607 87.3144C127.882 86.7131 128.225 85.9741 127.932 85.134C128.303 84.8036 128.29 84.3583 128.28 84.0967C128.28 84.0048 128.276 83.9039 128.285 83.8534C128.386 83.5275 128.248 82.1504 128.358 81.8291C128.482 81.4986 127.548 82.3569 127.644 82.0173C127.932 81.0395 127.026 87.2364 127.296 86.2541L127.516 85.4462C127.662 84.9045 127.827 84.3629 127.983 83.8258C128.367 82.5176 128.77 81.1635 129.018 79.7956C129.26 78.492 129.37 77.1562 129.48 75.8617C129.535 75.1732 129.595 74.4847 129.673 73.7961L129.709 73.5161C129.801 72.8092 129.915 71.9325 129.21 71.1935C128.688 70.638 128.17 70.1056 127.589 69.6144C126.797 68.9488 125.904 68.3154 124.745 68.2281L124.42 68.2052L124.259 68.4944C124.14 68.7285 124.021 68.9764 123.907 69.2242C123.655 69.7475 123.421 70.2433 123.105 70.6748C120.44 74.3056 118.594 77.2021 117.115 80.071C114.312 85.5426 113.909 86.9656 115.311 83.8855C115.082 84.3904 114.853 84.8954 114.619 85.4049C114.555 85.5472 114.541 85.6849 114.532 85.8409C114.418 86.1485 114.289 86.4606 114.115 86.7452C114.015 86.8233 113.854 86.9426 113.781 87.1583C113.676 87.4613 113.584 87.7689 113.488 88.0764C113.378 88.439 114.267 86.0016 114.129 86.3551C113.909 86.938 114.019 86.5157 113.781 87.0941C113.328 88.1866 113.987 85.8088 113.621 86.9564C113.493 87.3603 113.328 87.7551 113.163 88.1407C112.92 88.719 112.664 89.3158 112.517 89.9722C112.389 90.546 112.16 91.1014 111.908 91.6889C111.761 92.047 111.61 92.4004 111.482 92.7676C111.377 93.0752 111.294 93.3919 111.216 93.704C111.139 94.007 111.061 94.3146 110.919 94.7047C110.621 95.5493 110.433 95.9946 109.678 96.1323C108.533 96.3389 107.415 96.7703 106.577 97.1238C105.68 97.5002 104.796 97.9179 103.912 98.3356C103.239 98.6523 102.565 98.9691 101.883 99.272C101.292 99.5337 100.688 99.754 100.079 99.9789L98.8741 100.424L98.9291 100.819C99.0299 101.558 99.2588 102.398 100.55 102.32C103.426 102.123 105.918 101.714 108.176 101.062C108.514 100.966 108.885 100.915 109.224 100.874L109.22 100.883C109.178 101.356 109.146 101.792 109.105 102.219C109.05 102.292 108.977 102.393 108.954 102.536C108.895 102.894 108.734 103.247 108.56 103.633C108.212 104.386 107.823 105.235 108.194 106.286C108.194 106.291 108.189 106.3 108.189 106.313L107.983 107.016L107.956 107.098C107.951 107.098 107.951 107.103 107.951 107.103L107.782 107.686L107.786 107.681C107.644 108.159 107.498 108.632 107.379 109.109C107.305 109.403 107.42 109.669 107.502 109.866C107.521 109.926 107.553 109.986 107.589 110.142C107.594 110.16 107.598 110.188 107.608 110.201C107.177 110.633 107.191 111.175 107.191 111.546C107.191 111.666 107.195 111.79 107.186 111.904L107.154 112.198C107.113 112.552 107.072 112.91 107.017 113.259L107.012 113.263C106.934 113.768 106.829 114.163 106.683 114.498C106.463 115.012 106.334 115.485 106.417 116.045C106.257 116.164 106.092 116.334 106.023 116.573C105.959 116.802 105.982 117.041 106.096 117.293C106.069 117.367 106.041 117.459 106.032 117.55C106.009 117.706 105.996 117.867 105.982 118.019L105.968 118.207L106.018 118.56L105.808 120.048L104.585 120.135L105.941 120.915C105.597 121.328 105.359 121.92 105.877 122.673C105.359 123.265 105.487 123.908 105.579 124.372L105.611 124.537C105.666 124.785 105.831 124.941 106.014 125.097L106.939 126.107L106.934 126.033L108.748 130.33L108.308 130.738L108.794 131.252C108.867 131.326 108.931 131.39 108.991 131.463C109.059 131.541 109.137 131.656 109.22 131.762C109.494 132.152 109.687 132.409 110.012 132.409L110.195 132.377C110.195 132.377 110.195 132.377 110.195 132.382C110.236 132.528 110.278 132.717 110.41 132.873C110.768 133.323 111.12 133.786 111.473 134.245L112.1 135.067C112.224 135.237 112.407 135.296 112.517 135.328L113.241 135.581C113.685 135.737 114.129 135.888 114.573 136.058C114.738 136.123 114.899 136.21 115.054 136.292C115.306 136.426 115.563 136.563 115.86 136.65C116.085 136.715 116.314 136.761 116.543 136.797C117.042 136.894 117.481 136.972 117.807 137.298C118.109 137.601 118.402 137.752 118.668 137.752L118.773 137.743C119.084 137.692 119.341 137.504 119.542 137.357L119.661 137.27C119.89 137.1 119.9 136.839 119.904 136.664L119.945 136.389C119.968 136.412 120 136.435 120.028 136.467L120.422 136.816L120.756 136.412C120.779 136.375 120.815 136.347 120.848 136.311C120.976 136.191 121.141 136.031 121.196 135.797H121.255C121.548 135.797 121.91 135.664 121.956 135.301L121.974 135.177C122.015 135.149 122.167 135.126 122.258 135.117C122.464 135.09 122.716 135.062 122.94 134.92C122.995 134.888 123.11 134.865 123.22 134.842C123.408 134.801 123.646 134.755 123.856 134.617C125.148 133.763 126.407 132.914 127.612 132.028C127.731 131.941 127.85 131.854 127.978 131.776C128.619 131.344 129.416 130.816 129.503 129.701L129.604 129.581C129.773 129.352 129.943 129.127 130.117 128.902C130.415 128.517 130.708 128.131 130.982 127.732C131.042 127.777 131.097 127.814 131.156 127.846C131.802 128.214 132.457 128.572 133.112 128.92C134.385 129.609 135.7 130.32 136.913 131.119C137.683 131.633 138.498 131.89 139.331 131.89C140.632 131.89 141.804 131.257 142.679 130.706C143.806 129.999 144.754 129.008 145.66 128.048C145.88 127.819 146.091 127.594 146.315 127.369C146.975 126.69 147.52 125.895 148.019 125.143C148.175 124.913 148.582 124.293 148.697 124.229C148.843 124.271 149.292 124.766 149.585 125.097C150.295 125.891 151.202 126.483 152.077 127.052C152.306 127.204 152.53 127.351 152.754 127.497C153.079 127.727 153.432 127.888 153.771 128.048C154.096 128.209 154.403 128.351 154.673 128.535C156.533 129.825 159.193 129.816 161.868 128.562C163.782 127.663 165.129 126.189 166.388 124.711L166.448 125.014C166.585 125.726 166.727 126.46 166.814 127.181C166.956 128.365 167.986 129.228 169.269 129.228C169.603 129.228 169.924 129.164 170.24 129.044C170.881 128.797 171.407 128.397 171.925 128.012C172.639 127.475 173.313 126.97 174.201 126.947C174.49 126.937 174.741 126.731 174.851 126.543C175.012 126.29 175.199 126.042 175.383 125.794C175.859 125.152 176.354 124.495 176.459 123.715C176.569 122.871 177.086 122.283 177.631 121.663C178.08 121.163 178.533 120.644 178.813 119.96C178.95 119.607 179.298 119.308 179.655 118.996C180.283 118.446 181.066 117.766 180.956 116.527C181.222 116.228 181.478 115.916 181.735 115.6L182.284 114.948C182.651 114.516 183.077 114.039 183.571 113.658C186.612 111.28 186.598 109.545 189.374 108.884C189.671 108.815 191.837 107.709 192.034 107.599C192.25 107.479 196.207 105.024 196.449 104.923L196.463 104.991L197.425 105.024L197.141 104.955L198.093 102.664C198.176 102.664 198.455 103.004 198.57 103.045C198.68 103.087 198.515 103.041 198.57 103.045L198.322 100.649ZM141.9 115.251C142.587 114.021 143.343 112.721 144.222 111.487L145.051 110.302C146.306 108.512 147.611 106.662 149.072 104.996C149.686 104.303 150.176 103.784 150.666 103.321C151.898 102.155 153.07 100.906 154.211 99.6943C154.884 98.9828 155.557 98.2622 156.226 97.5782C156.253 97.5599 156.359 97.5186 156.409 97.5048C156.418 97.5094 156.432 97.5185 156.446 97.5323C156.368 97.5736 156.294 97.6195 156.226 97.6792C155.928 97.9408 155.488 98.3448 155.14 98.8222C154.801 99.2766 154.481 99.7448 154.16 100.218C153.844 100.681 153.524 101.149 153.194 101.595C152.901 101.994 152.585 102.384 152.237 102.816L152.15 102.921L150.982 104.381L151.037 104.358C150.996 104.413 150.95 104.464 150.913 104.514C149.146 106.947 147.378 109.38 145.615 111.808L144.012 114.016H144.007L141.076 118.055C140.604 118.703 140.064 119.382 139.423 120.126C139.643 119.515 139.862 118.932 140.151 118.404L141.9 115.251Z" fill="white"/>
<path d="M104.414 126.749L104.36 126.244L104.327 126.249C104.318 126.194 104.318 126.171 104.3 126.116L104.176 125.593L104.057 125.62C104.396 125.166 104.607 124.528 104.24 123.683C104.176 123.55 104.14 123.375 104.108 123.192C104.071 123.022 104.034 122.857 103.984 122.692C103.929 122.517 103.837 122.333 103.741 122.15C103.682 122.031 103.581 121.833 103.553 121.806L103.627 121.452C103.631 121.448 103.631 121.438 103.631 121.429L103.778 120.672L103.64 120.69C103.553 120.13 103.247 119.68 102.921 119.304C99.8531 115.723 96.9953 113.516 93.6522 112.148C90.1487 110.711 86.7277 110.009 83.1967 110.009H83.0502C81.5389 110.013 80.0321 110.05 78.5208 110.087C77.1881 110.114 75.8509 110.146 74.5136 110.156C74.3213 110.156 74.0923 110.096 73.8541 110.027C73.9457 109.834 74.019 109.669 74.0694 109.495C74.5182 107.906 74.967 106.309 75.3883 104.711C75.4112 104.629 75.4982 104.5 75.5852 104.376C75.8005 104.073 76.2127 103.49 75.8463 102.797C75.8509 102.793 75.8509 102.788 75.86 102.784L76.1119 102.375C76.3959 101.921 76.6752 101.471 76.9866 101.026C77.2614 100.612 77.6141 99.9927 77.4858 99.4052C77.4629 99.2812 77.408 99.1297 77.2981 98.9783C77.4126 98.7442 77.527 98.5146 77.637 98.2851C78.0125 97.5277 78.3697 96.8025 78.6765 96.0589C79.0796 95.0811 79.4414 94.0896 79.8032 93.1027L80.2657 91.8404L80.4489 91.0968L79.8581 91.106L80.4443 90.6148C80.4947 90.5689 80.5634 90.5276 80.6275 90.4817C80.8656 90.321 81.1587 90.1191 81.2687 89.761C81.6854 88.3564 82.1205 86.9977 82.8624 85.7905C83.0456 85.4829 83.2471 85.1845 83.444 84.8816C83.7096 84.4822 83.9753 84.0783 84.2134 83.6606C84.3371 83.4448 84.4241 83.2107 84.5065 82.9766C84.5844 82.7517 84.6622 82.5406 84.763 82.4029C84.9233 82.1917 85.1339 82.0035 85.3537 81.8015C85.624 81.5537 85.8987 81.3012 86.1323 80.9799C86.5811 80.3464 86.9979 79.69 87.41 79.0244C87.7031 78.5516 88.0054 78.0788 88.3718 77.528C89.9014 75.2467 91.431 72.9699 93.0018 70.7161C93.4644 70.0459 93.9773 69.4079 94.4811 68.7698C94.8108 68.3567 95.136 67.9436 95.4566 67.5213C95.681 67.2275 95.8825 66.9108 96.0977 66.5711L96.3496 66.1855C96.3954 66.1534 96.4458 66.1258 96.4962 66.0937C96.7709 65.9376 97.1053 65.7448 97.3571 65.4235C97.8151 64.8268 98.2044 64.1566 98.4837 63.491C98.7631 62.8346 99.2211 62.2884 99.7019 61.71C100.027 61.3198 100.361 60.9159 100.65 60.466C101.112 59.7454 101.525 58.988 101.914 58.249C102.225 57.6752 102.532 57.0968 102.871 56.5368C103.434 55.605 104.016 54.6961 104.611 53.7826C104.909 53.3282 105.202 52.8738 105.495 52.4147C105.678 52.1256 105.848 51.8318 106.022 51.5334C106.361 50.9413 106.686 50.3813 107.089 49.8901C109.095 47.416 109.315 44.4782 107.689 41.8204C107.579 41.6368 107.497 41.444 107.405 41.2467C107.295 40.9988 107.185 40.7555 107.043 40.5306C106.915 40.324 106.796 40.1129 106.672 39.9017C106.269 39.2132 105.852 38.5017 105.28 37.9233C104.795 37.4276 104.181 37.0833 103.535 36.7207C103.242 36.5554 102.935 36.3856 102.619 36.1882L102.326 36L102.028 36.2066C101.516 36.5692 100.989 36.9364 100.448 37.3128C99.0974 38.2492 97.7006 39.2178 96.345 40.2598C95.7726 40.6958 95.2825 41.2191 94.8154 41.724C94.4811 42.0867 94.1376 42.4493 93.7712 42.7752C93.4369 43.0736 93.0614 43.3352 92.6584 43.6106C92.324 43.8402 91.9852 44.0743 91.6737 44.3313C91.4448 44.5241 91.2707 44.7628 91.1196 44.9694C91.0097 45.1162 90.9043 45.2631 90.799 45.3641C90.2815 45.8369 89.7548 46.2959 89.2236 46.755C88.2893 47.572 87.323 48.4212 86.43 49.3301C85.482 50.2849 84.6027 51.3223 83.7463 52.3229C83.302 52.8416 82.8578 53.3695 82.3998 53.8836C82.2991 53.9938 82.1754 54.0856 82.0518 54.1774C81.9098 54.2876 81.7678 54.3931 81.6442 54.5217C81.2778 54.8843 80.9252 55.2607 80.5909 55.6555C80.2336 56.0824 79.881 56.5184 79.5284 56.9499C79.0841 57.4916 78.6399 58.0378 78.1865 58.5749C78.0079 58.786 77.8064 58.9834 77.6003 59.1854C77.2019 59.5755 76.7897 59.9749 76.5104 60.4844C76.1577 61.1179 75.7639 61.7054 75.3425 62.3297C74.7059 63.2753 74.0465 64.2484 73.5748 65.3914C73.0573 66.6308 72.1825 67.7141 71.2483 68.8662C70.8224 69.3895 70.401 69.9174 70.0118 70.4544C69.9018 70.6013 69.8377 70.7528 69.7828 70.8859L69.4622 71.5331C69.2882 71.8958 69.1096 72.2584 68.9035 72.5981C68.7707 72.8092 68.6058 73.002 68.4455 73.1948C68.102 73.6125 67.754 74.0348 67.612 74.5765C67.3464 75.6368 67.0533 76.0683 66.49 76.2382L66.1785 76.33L66.1144 76.6513C66.0778 76.8165 66.0503 76.968 66.0274 77.1195C65.9862 77.3628 65.9541 77.5785 65.8763 77.7805C65.3405 79.1713 64.7863 80.553 64.2139 81.9301L64.0536 82.3202C63.7147 83.1878 63.4811 83.6789 62.7071 83.7983C61.0768 84.0416 60.802 85.079 60.8066 85.7721C60.7882 85.7859 60.7653 85.8088 60.747 85.8226C60.6463 85.9144 60.5409 86.0154 60.4493 86.1439C60.3165 86.3321 60.1517 86.5295 59.9868 86.7223C59.5197 87.2823 59.0296 87.8561 59.0525 88.54C59.0892 89.5361 58.7274 90.3807 58.3473 91.2758L58.1183 91.8221C57.8801 92.4004 57.6282 92.9742 57.3718 93.548C56.5566 95.3611 55.7231 97.2386 55.5445 99.3501C55.4575 100.323 55.3247 101.255 55.1461 102.127C54.6469 104.588 54.7568 107.011 55.4666 109.127C56.1811 111.289 57.729 113.185 60.0692 114.773C60.5043 115.067 60.9623 115.324 61.4157 115.581C61.7775 115.788 62.1393 115.99 62.4919 116.215C62.6568 116.32 62.817 116.499 62.9819 116.692L63.188 116.922C63.3987 117.146 63.6048 117.371 63.82 117.61L63.9299 117.734C63.7467 118.528 64.0765 119.304 64.8275 119.781C65.1848 120.006 65.574 120.153 65.945 120.286C66.2793 120.41 66.5953 120.529 66.8563 120.69C68.5829 121.783 70.4331 122.035 72.3337 122.228C74.9578 122.48 77.6873 122.471 81.2091 122.187C82.986 122.049 84.7767 121.806 86.5033 121.567C87.1673 121.475 87.8359 121.383 88.5046 121.301C88.9442 121.246 89.3106 121.296 89.4022 121.434C89.4709 121.539 89.4846 121.815 89.2786 122.338L89.2328 122.462C88.7565 123.637 88.2985 124.629 87.8176 125.492C87.726 125.652 87.6299 125.813 87.5383 125.969L87.3688 126.258C87.0437 126.814 86.7048 127.369 86.375 127.915C85.4866 129.384 84.5706 130.894 83.8424 132.492C83.586 133.056 83.2746 133.653 82.8716 134.346L82.8532 134.374C82.2625 135.388 81.6121 136.348 80.8611 137.316C80.6183 137.633 80.3619 137.931 80.0321 138.317L80.0184 138.33C79.6841 138.721 79.3406 139.115 79.0017 139.506L78.4063 140.19C77.9301 140.74 77.4538 141.296 76.9821 141.851C75.8371 143.187 74.6602 144.564 73.4328 145.854C72.9015 146.409 72.2833 146.923 71.6788 147.415C70.8132 148.131 69.9156 148.87 69.2195 149.783C68.3264 150.954 67.209 151.785 66.0274 152.661C65.5465 153.015 65.0703 153.373 64.6031 153.749C64.3329 153.965 64.1497 154.249 63.9803 154.502C63.8933 154.626 63.8154 154.745 63.7238 154.86L63.5406 155.09C63.3575 155.328 63.1834 155.544 62.9957 155.677C62.153 156.251 61.3057 156.811 60.4493 157.371C59.6433 157.903 58.8373 158.44 58.0404 158.982C57.8252 159.129 57.674 159.326 57.5367 159.496C57.4496 159.611 57.3626 159.726 57.2848 159.772C56.4055 160.35 55.517 160.91 54.6194 161.47C54.0332 161.837 53.4424 162.209 52.8608 162.581C52.6501 162.714 52.4898 162.888 52.3524 163.04L51.7708 163.659C51.2029 164.256 50.635 164.858 50.0717 165.468L49.6779 165.886C48.8673 166.763 48.0292 167.667 47.2552 168.603C46.9072 169.012 46.898 169.783 47.1224 170.196C47.3514 170.623 47.9697 170.816 48.3406 170.816L48.6017 170.784C49.3848 170.582 50.1542 170.343 50.9236 170.095L51.9448 169.774C52.4211 169.627 52.9112 169.485 53.3966 169.356C53.7309 169.278 54.0744 169.2 54.4133 169.117C55.059 168.97 55.7002 168.824 56.3368 168.635C56.7306 168.511 57.0695 168.286 57.3718 168.085L57.6282 167.919C58.2236 167.543 58.9151 167.304 59.6342 167.061C60.944 166.611 62.3041 166.147 63.275 164.789C63.5086 164.458 63.9986 164.233 64.5161 163.99C64.8092 163.857 65.1023 163.719 65.3679 163.559L65.716 163.347C66.6777 162.764 67.6441 162.186 68.5921 161.576C68.8073 161.438 68.9813 161.25 69.1279 161.098C69.224 160.993 69.3202 160.887 69.4256 160.809C69.7828 160.552 70.1537 160.309 70.5155 160.061C70.9918 159.744 71.4681 159.427 71.9261 159.088L72.1917 158.895C72.7825 158.486 73.3916 158.055 73.3778 157.44C73.3778 157.348 73.3824 157.302 73.3778 157.284C73.4145 157.27 73.4648 157.256 73.5106 157.242C73.6114 157.21 73.7076 157.178 73.8083 157.132C74.5319 156.811 75.2372 156.471 75.9791 156.113L77.9026 155.19L77.0553 154.653L78.9559 154.048L79.0109 153.717C79.0383 153.538 79.1208 153.391 79.2399 153.331C79.5833 153.139 79.9451 152.978 80.3069 152.817L81.3282 152.354L80.7649 151.381C81.0168 151.179 81.2778 150.986 81.548 150.784L81.6579 150.706C81.9327 150.513 82.2762 150.274 82.1892 149.884C82.3128 149.88 82.4411 149.866 82.5693 149.82C82.7616 149.746 82.9906 149.701 83.215 149.65C83.8196 149.522 84.447 149.384 84.7126 148.87C84.9278 148.452 85.2851 148.287 85.743 148.08C86.0544 147.942 86.4162 147.777 86.7231 147.506C86.9658 147.295 87.236 147.116 87.5062 146.937C88.2252 146.455 89.0312 145.914 89.3747 144.835C90.3136 145.087 90.8356 144.454 91.2249 143.876L91.6325 143.283C92.2141 142.434 92.8141 141.557 93.4736 140.768C93.6338 140.58 93.8033 140.401 93.9819 140.235C94.1468 140.075 94.3162 139.91 94.4948 139.753C94.8933 139.391 95.3054 139.019 95.6627 138.583C95.942 138.243 96.0382 137.812 96.1252 137.445C96.1756 137.238 96.2168 137.041 96.2947 136.866C96.4183 136.6 96.629 136.315 96.9312 136.022C97.0091 135.948 97.1602 135.888 97.2564 135.852L97.8563 135.54L97.6548 135.081C97.5999 134.947 97.5312 134.819 97.4716 134.7L97.4075 134.58C97.4167 134.576 97.4304 134.571 97.435 134.562C97.5678 134.493 97.7006 134.415 97.8105 134.332L98.0166 134.172C98.2822 133.965 98.5845 133.731 98.8364 133.318C99.4546 132.285 100.096 131.225 100.6 130.109C101.007 129.21 101.845 128.893 102.78 128.567L99.473 134.158H99.4684L98.6853 135.485L98.5204 135.856L99.3081 136.811L99.7248 136.499C99.8256 136.426 99.9264 136.357 100.032 136.288C100.302 136.104 100.613 135.902 100.847 135.613C100.948 135.494 101.039 135.338 101.131 135.195H101.145L101.296 134.952C101.296 134.952 101.296 134.947 101.3 134.947L101.406 134.768C101.552 134.53 101.694 134.286 101.859 134.062C102.596 133.079 103.041 132.17 103.27 131.216C103.315 131 103.398 130.78 103.499 130.513L103.755 129.802L103.233 128.393C103.741 128.2 104.213 127.911 104.346 127.3H104.447L104.414 126.749Z" fill="white"/>
<path d="M115.104 84.2803C114.88 84.7347 114.349 85.7171 114.161 86.0935C113.969 86.4699 113.822 86.4377 113.634 87.1171C113.442 87.7964 113.332 88.0994 113.332 88.0994L117.101 87.4568L117.591 84.0921L115.104 84.2803Z" fill="white"/>
<path d="M128.001 81.6317H127.419V82.7104H128.001V81.6317Z" fill="white"/>
<path fill-rule="evenodd" clip-rule="evenodd" d="M222.668 99.0978C222.728 99.1253 222.782 99.1483 222.842 99.1758C223.112 98.5928 223.387 98.0053 223.657 97.4177C223.598 97.3902 223.534 97.358 223.465 97.3305C223.204 97.9227 222.934 98.5102 222.668 99.0978Z" fill="url(#paint0_linear)"/>
<path fill-rule="evenodd" clip-rule="evenodd" d="M219.398 108.264C219.778 108.448 220.035 108.567 220.378 108.728C220.47 107.498 221.184 106.603 221.926 105.717C222.086 105.529 222.105 105.221 222.187 104.964C222.109 104.927 222.036 104.895 221.958 104.858C220.818 105.795 220.003 106.97 219.398 108.264Z" fill="url(#paint1_linear)"/>
<path fill-rule="evenodd" clip-rule="evenodd" d="M220.809 109.178C220.685 109.646 220.319 110.041 220.094 110.491C219.852 110.991 219.645 111.51 219.421 112.024C219.513 112.079 219.604 112.129 219.696 112.184C220.506 111.023 221.312 109.866 222.187 108.609C221.312 108.315 220.983 108.498 220.809 109.178Z" fill="white"/>
<path fill-rule="evenodd" clip-rule="evenodd" d="M227.61 95.7422C228.228 94.9481 228.796 94.1081 229.084 93.135C228.997 93.0983 228.915 93.0523 228.832 93.0156C228.425 93.9245 228.017 94.8334 227.61 95.7422Z" fill="white"/>
<path fill-rule="evenodd" clip-rule="evenodd" d="M226.337 98.3633C226.396 98.3908 226.456 98.4183 226.515 98.4413C226.785 97.8583 227.06 97.2662 227.335 96.6832C227.271 96.6511 227.211 96.6281 227.143 96.596C226.877 97.1836 226.607 97.7757 226.337 98.3633Z" fill="white"/>
<path fill-rule="evenodd" clip-rule="evenodd" d="M216.536 61.4347C215.354 61.5862 214.168 61.7377 212.991 61.9029C210.839 62.2013 208.691 62.4951 206.547 62.8164C204.793 63.0826 203.094 63.5646 201.51 64.3817C201.285 64.4964 201.033 64.6571 200.919 64.8636C200.736 65.1941 200.488 65.2951 200.159 65.2951C199.43 65.3089 198.698 65.2905 197.974 65.3364C197.393 65.3686 196.719 65.3135 196.261 65.5843C195.744 65.8964 195.199 66.0204 194.741 65.8873C194.04 65.6853 193.724 66.0433 193.344 66.4473C193.133 66.6768 192.914 66.9017 192.689 67.1174C192.625 67.1817 192.524 67.2322 192.433 67.2552C192.03 67.3516 191.265 68.1503 191.251 68.5496C191.219 69.4126 191.233 70.2755 191.21 71.1385C191.205 71.3634 191.123 71.5838 191.082 71.8041C190.976 72.3412 190.715 72.9058 190.811 73.4061C190.921 74.0074 191.302 74.5766 191.636 75.1091C191.851 75.4579 192.268 75.6737 192.488 76.018C193.11 76.9911 194.146 77.4226 195.039 78.0285C195.432 78.2901 195.922 78.4095 196.38 78.5655C196.49 78.6023 196.66 78.5609 196.761 78.4921C197.104 78.258 197.443 78.0101 197.754 77.7347C197.873 77.6291 197.915 77.4363 197.997 77.2849C196.98 77.5695 196.98 77.5695 196.614 77.294C196.802 77.216 196.948 77.1426 197.099 77.1013C197.516 76.9957 197.97 76.9681 198.35 76.7983C198.803 76.5917 199.211 76.5871 199.646 76.7753C199.678 76.7891 199.696 76.858 199.737 76.9268C199.595 76.9498 199.472 76.9727 199.192 77.0232C199.518 77.2114 199.71 77.3583 199.925 77.4409C200.507 77.6613 200.699 78.2259 200.882 78.6895C201.033 79.0613 201.514 79.3551 201.299 79.8646C201.294 79.8784 201.427 79.9931 201.496 79.9977C202.261 80.039 202.609 80.599 202.952 81.1636C203.277 81.7053 203.781 81.9348 204.381 81.9853C204.519 81.999 204.775 81.9302 204.798 81.843C204.935 81.3518 205.402 81.3794 205.709 81.159C206.621 80.5026 207.683 80.4384 208.704 80.218C210.087 79.9197 211.489 79.6902 212.89 79.456C212.936 79.4515 212.982 79.4423 213.028 79.4331C212.977 79.5754 212.941 79.7223 212.886 79.8646C212.226 81.5722 211.544 83.266 210.857 84.9598C210.234 86.4929 209.588 88.0123 208.947 89.5362C208.54 90.514 208.118 91.4779 207.747 92.4694C207.39 93.4196 207.101 94.3973 206.776 95.3567C206.74 95.4623 206.644 95.5495 206.593 95.6505C206.163 96.5226 205.723 97.381 205.325 98.2669C205.013 98.9508 204.784 99.6715 204.482 100.355C204.239 100.888 203.923 101.375 203.676 101.907C203.245 102.807 202.879 103.738 202.426 104.62C201.739 105.942 200.978 107.218 200.291 108.535C199.518 110.023 198.803 111.542 198.029 113.029C197.429 114.186 196.779 115.315 196.165 116.463C195.574 117.569 194.997 118.689 194.434 119.781C194.512 119.836 194.599 119.882 194.796 120.006C194.365 120.217 193.944 120.594 193.72 120.502C193.138 120.25 193.042 120.608 192.849 120.957C192.561 121.48 192.337 122.067 191.947 122.508C191.109 123.463 190.55 124.564 190.001 125.68C189.657 126.378 189.534 127.231 188.618 127.502C188.535 127.53 188.48 127.681 188.425 127.787C188.077 128.462 187.716 129.141 187.386 129.829C187.171 130.279 186.992 130.757 186.8 131.216C186.832 131.229 186.864 131.243 186.9 131.252C187.093 131.032 187.29 130.807 187.482 130.587L187.587 130.674C187.487 130.899 187.395 131.115 187.276 131.409C187.798 131.381 188.096 131.298 188.233 130.757C188.371 130.229 188.732 129.761 188.993 129.26C189.085 129.283 189.181 129.302 189.273 129.32C189.218 129.499 189.172 129.678 189.122 129.852C189.575 129.559 189.863 129.439 190.083 130.027C190.399 129.751 190.702 129.49 191.008 129.228C190.816 129.637 190.647 130.059 190.477 130.486C190.505 130.5 190.541 130.509 190.573 130.518C190.766 130.298 190.958 130.077 191.155 129.857L191.256 129.944C191.16 130.169 191.063 130.385 190.944 130.679C191.466 130.651 191.759 130.564 191.901 130.022C192.043 129.494 192.401 129.026 192.662 128.526C192.753 128.544 192.845 128.563 192.941 128.581C192.891 128.765 192.84 128.939 192.795 129.118C193.243 128.824 193.532 128.7 193.761 129.288C194.503 128.645 195.181 128.058 195.922 127.401C195.909 127.337 195.863 127.158 195.808 126.915C195.982 126.933 196.096 126.91 196.188 126.951C196.692 127.163 197.077 127.222 197.36 126.566C197.493 126.263 197.947 126.07 198.286 125.9C199.023 125.538 199.87 125.34 200.351 124.61C200.406 124.642 200.465 124.67 200.52 124.698C200.612 124.578 200.713 124.445 200.804 124.326C200.763 124.578 200.722 124.812 200.685 125.028C200.749 125.074 200.818 125.12 200.882 125.17C201.496 124.647 201.972 123.949 202.554 123.334C202.508 123.472 202.458 123.623 202.407 123.761C202.494 123.807 202.577 123.848 202.664 123.894C203.007 123.444 203.351 123.004 203.69 122.549C203.52 122.967 203.397 123.275 203.3 123.522C203.671 123.711 203.928 123.835 204.193 123.968C204.656 123.362 205.151 122.71 205.631 122.063C205.883 121.723 206.172 121.608 206.52 121.778C206.364 122.219 206.222 122.627 206.08 123.022C206.167 123.063 206.25 123.114 206.337 123.155C207.001 122.283 207.651 121.397 208.329 120.534C208.452 120.374 208.677 120.305 208.856 120.185C208.842 120.387 208.837 120.585 208.814 120.791C208.796 120.915 208.755 121.03 208.7 121.237C208.906 121.195 209.084 121.2 209.139 121.126C209.804 120.213 210.44 119.281 211.095 118.368C211.379 117.977 211.489 117.399 212.222 117.271C211.919 117.899 211.677 118.4 211.388 119.006C211.622 118.964 211.759 118.978 211.787 118.928C212.309 118.023 212.876 117.137 213.33 116.201C213.71 115.421 213.797 114.461 214.837 114.2C214.91 114.181 214.965 114.067 215.015 113.989C215.331 113.433 215.647 112.873 215.963 112.318C215.899 112.469 215.83 112.616 215.762 112.768C215.853 112.823 215.945 112.873 216.036 112.924C216.229 112.648 216.43 112.364 216.627 112.079L215.862 113.644C215.94 113.676 216.014 113.718 216.091 113.754C216.755 112.501 217.415 111.253 218.074 110C218.226 109.779 218.372 109.573 218.528 109.352C218.175 109.233 217.932 109.215 217.731 109.251C218.317 108.255 218.903 107.259 219.49 106.259C219.531 106.199 219.577 106.135 219.632 106.112C220.085 105.942 220.117 105.607 220.035 105.194C220.012 105.074 220.067 104.923 220.122 104.803C220.575 103.904 221.037 103.013 221.495 102.114C221.468 102.1 221.445 102.086 221.422 102.072C220.978 102.742 220.538 103.408 220.099 104.083C220.057 104.055 220.016 104.032 219.975 104.009C220.099 103.716 220.213 103.426 220.332 103.133C220.282 103.096 220.227 103.059 220.177 103.018C219.929 103.197 219.682 103.371 219.462 103.532C219.448 103.004 220.79 102.742 219.741 101.889C219.961 101.806 220.277 101.719 220.406 101.829C220.749 102.15 220.918 101.902 221.056 101.677C221.184 101.471 221.23 101.205 221.308 100.961C221.5 100.365 221.573 99.6991 221.903 99.1941C222.604 98.1154 223.378 97.0826 224.152 96.0544C224.088 96.1967 224.023 96.3436 223.959 96.4859C224.285 96.0636 224.596 95.6275 224.857 95.1685C225.077 94.9573 225.329 94.7645 225.503 94.5258C226.02 93.8144 226.478 93.0616 226.968 92.3363C227.298 91.8497 227.706 91.4137 227.976 90.8995C228.319 90.2431 228.64 89.5776 228.96 88.9074C228.635 89.7428 228.301 90.5782 227.953 91.4045C228.571 90.4635 229.13 89.4995 229.661 88.5264C229.574 88.9211 229.487 89.3159 229.395 89.7107C229.441 89.7474 229.496 89.7841 229.533 89.8208C229.84 89.3389 230.348 89.0818 230.517 88.4346C230.733 87.6129 231.035 86.7959 231.415 86.0339C231.978 84.9047 232.652 83.8168 233.174 82.8941C233.073 82.4948 232.922 82.2515 232.986 82.0771C233.178 81.4849 233.462 80.9157 233.7 80.3374C234.245 79.0016 235.28 77.9413 235.564 76.4127C235.615 76.1419 235.688 75.8711 235.757 75.6048C236.467 75.4901 237.167 75.3753 237.877 75.2651C235.427 80.2502 233.764 85.5611 231.617 90.67C234.74 85.9145 236.7 80.6633 238.17 75.2147C238.482 75.1688 238.793 75.1137 239.109 75.0632C240.309 74.8796 241.513 74.7373 242.709 74.5537C244.948 74.2094 247.252 74.3425 249.413 73.5209C249.977 73.3051 250.677 73.4933 251.117 72.9012C251.186 72.814 251.405 72.8231 251.561 72.8094C252.335 72.7267 253.109 72.6808 253.883 72.5707C255.193 72.3779 256.498 72.1254 257.808 71.9372C258.806 71.7949 259.809 71.7077 260.808 71.5929C261.49 71.5149 262.177 71.4644 262.85 71.3451C263.762 71.189 264.664 70.9824 265.57 70.8034C265.845 70.7483 266.12 70.6978 266.399 70.6703C267.425 70.5601 268.405 70.0736 269.482 70.2251C269.628 70.248 269.793 70.17 269.944 70.147C270.883 70.0093 271.822 69.8073 272.765 69.7431C274.267 69.6421 275.779 69.6283 277.203 69.0499C277.244 69.0316 277.304 69.0316 277.354 69.0362C278.082 69.0821 278.81 69.1418 279.539 69.1831C279.731 69.1922 279.932 69.1922 280.111 69.128C281.755 68.5129 283.523 68.7103 285.217 68.3844C285.877 68.2512 286.587 68.3752 287.278 68.3568C287.402 68.3522 287.53 68.2053 287.649 68.1227C287.539 67.9942 287.443 67.7693 287.324 67.7509C286.981 67.7004 286.628 67.7417 286.284 67.7417C286.129 67.7417 285.941 67.7922 285.817 67.7234C285.46 67.5168 285.14 67.3975 284.782 67.7371C284.727 67.7922 284.508 67.7739 284.448 67.7142C284.123 67.3745 283.738 67.4663 283.372 67.5443C283.07 67.604 282.776 67.7555 282.451 67.8794C282.387 67.4801 282.19 67.4388 281.796 67.5214C281.494 67.5857 281.141 67.8703 280.775 67.5443C280.61 67.3975 280.326 67.3102 280.102 67.3102C279.369 67.3102 278.636 67.3653 277.954 67.3975C277.913 67.1358 277.931 66.8879 277.867 66.8604C277.505 66.7181 277.12 66.5299 276.754 66.5528C275.889 66.6125 275.037 66.8053 274.176 66.8925C274.015 66.9063 273.828 66.6584 273.663 66.5391C273.8 66.383 273.915 66.1719 274.089 66.0846C274.341 65.9653 274.634 65.9378 274.908 65.8689C275.032 66.2315 275.527 66.2407 276.095 65.8092C275.889 65.7404 275.724 65.6945 275.463 65.6073C275.673 65.5109 275.797 65.4145 275.944 65.4007C276.974 65.2768 278.014 65.162 279.049 65.0472C279.96 64.9463 280.871 64.8499 281.778 64.7351C282.044 64.6984 282.227 64.5469 282.172 64.2302C282.117 63.8676 281.874 63.9777 281.654 64.0007C281.329 64.042 280.999 64.1062 280.674 64.12C279.873 64.1613 279.071 64.1613 278.275 64.2072C276.782 64.2899 275.298 64.3954 273.805 64.4735C272.715 64.5285 271.62 64.5699 270.535 64.602C269.912 64.6158 269.289 64.6066 268.689 64.6066C268.895 64.299 269.624 64.6158 269.555 63.8538C269.198 63.8767 268.859 63.8721 268.529 63.918C268.094 63.9823 267.663 64.0925 267.228 64.1659C266.99 64.2072 266.747 64.2256 266.509 64.221C266.285 64.2164 266.07 64.1246 265.85 64.1338C265.525 64.1476 265.2 64.2348 264.87 64.2485C263.977 64.2853 263.079 64.2807 262.182 64.322C260.409 64.4046 258.637 64.5102 256.86 64.5974C256.782 64.602 256.7 64.5331 256.617 64.501C256.773 64.3541 256.933 64.3036 257.093 64.2715C257.496 64.1889 257.899 64.1017 258.312 64.042C258.733 63.9777 259.163 63.9318 259.589 63.8997C260.134 63.8492 260.675 63.8354 261.215 63.7803C261.879 63.7069 262.539 63.5921 263.198 63.5141C263.597 63.4682 263.995 63.4774 264.394 63.4361C265.461 63.3259 266.518 63.1561 267.586 63.0964C268.854 63.0229 270.132 63.0413 271.405 63.0184C271.497 63.0184 271.579 62.9816 271.661 62.9725C272.078 62.9174 272.486 62.8485 272.903 62.8164C273.883 62.7429 274.863 62.6879 275.843 62.619C275.925 62.6144 276.003 62.5685 276.09 62.5547C276.237 62.5318 276.388 62.5042 276.543 62.4951C277.235 62.44 277.936 62.3941 278.632 62.3344C278.65 62.3344 278.659 62.2472 278.71 62.1049C278.504 62.1049 278.343 62.1003 278.188 62.1049C276.754 62.1829 275.316 62.2747 273.883 62.3436C272.577 62.4078 271.281 62.4492 269.976 62.4951C269.537 62.5134 269.097 62.5088 268.657 62.541C267.874 62.5961 267.1 62.6924 266.322 62.72C265.387 62.7567 264.458 62.72 263.523 62.7429C263.162 62.7521 262.777 63.1102 262.424 62.5915C263.281 62.4951 264.105 62.3803 264.929 62.3069C265.909 62.2197 266.894 62.1829 267.879 62.0911C268.63 62.0177 269.376 61.8524 270.132 61.7882C271.057 61.7147 271.991 61.7239 272.921 61.6642C273.141 61.6505 273.374 61.4255 273.571 61.4577C274.414 61.5908 275.211 61.5265 276.063 61.375C276.759 61.2511 277.491 61.2786 278.233 61.1639C280.084 60.8885 281.966 60.8518 283.839 60.714C284.196 60.6865 284.549 60.6039 284.906 60.5672C285.46 60.5121 286.014 60.4157 286.559 60.4386C286.953 60.457 287.347 60.7508 287.635 60.2321C287.663 60.1862 287.832 60.2137 287.933 60.2137C288.121 60.2137 288.304 60.2321 288.492 60.2137C289.074 60.154 289.655 60.0255 290.237 60.0301C291.56 60.0347 292.879 60.1127 294.198 60.1494C295.297 60.177 296.392 60.1586 297.482 60.2183C298.572 60.278 299.657 59.9062 300.747 60.2321C300.921 60.2872 301.132 60.2091 301.329 60.1999C301.205 60.0714 301.077 60.0117 300.949 59.998C300.019 59.9108 299.085 59.8465 298.155 59.7455C297.894 59.718 297.642 59.5848 297.39 59.5022C297.409 59.4334 297.418 59.3691 297.431 59.3048C301.306 59.2084 305.162 59.493 309.023 59.8557C308.725 59.6812 308.382 59.6675 308.111 59.5252C307.25 59.0707 306.316 59.034 305.386 58.9422C304.915 58.8963 304.342 59.0661 304.072 58.4465C304.054 58.4052 303.948 58.3914 303.884 58.3822C303.119 58.2858 302.355 58.1481 301.59 58.1114C299.309 58.015 297.028 57.9645 294.748 57.891C294.317 57.8773 293.85 57.9783 293.543 57.5101C293.484 57.4228 293.291 57.3953 293.163 57.3815C292.385 57.3173 291.606 57.2392 290.828 57.2117C288.061 57.1199 285.3 56.9822 282.534 57.0051C281.467 57.0143 280.468 56.5874 279.342 56.8399C278.146 57.1153 276.869 57.0327 275.623 57.0464C274.922 57.0556 274.208 56.8582 273.512 56.8995C272.307 56.9638 271.107 57.0786 269.898 57.0051C269.514 56.9822 269.124 56.9868 268.74 57.0235C268.469 57.0464 268.208 57.1612 267.943 57.2163C267.824 57.2392 267.659 57.2714 267.567 57.2163C267.086 56.9271 265.96 56.9776 265.589 57.2851C265.406 57.2163 265.264 57.1061 265.126 57.1199C264.192 57.23 263.258 57.3632 262.319 57.4825C262.195 57.4963 262.067 57.5009 261.943 57.4871C261.714 57.4504 261.49 57.3586 261.266 57.3678C260.015 57.4045 258.765 57.4458 257.519 57.5192C257.011 57.5468 256.503 57.6386 256.008 57.7671C255.628 57.8635 255.298 57.9599 254.918 57.7258C254.73 57.6064 254.456 57.5973 254.217 57.6019C253.911 57.6064 253.599 57.6661 253.292 57.7074C252.816 57.7763 252.344 57.8497 251.863 57.9186C251.731 57.9415 251.557 57.8543 251.387 57.8635C250.004 57.9828 248.621 58.1068 247.243 58.2583C246.986 58.2904 246.739 58.4373 246.533 58.5107C246.382 58.4511 246.226 58.3271 246.079 58.3363C245.456 58.3822 244.829 58.4189 244.215 58.5429C243.973 58.5934 243.734 58.6209 243.492 58.6622C243.505 58.5933 243.515 58.5291 243.496 58.5107C243.116 58.1206 243.405 57.7992 243.588 57.5146C244.77 55.7336 244.756 53.7782 244.458 51.7814C244.44 51.6942 244.334 51.6162 244.147 51.3683C244.128 52.0568 244.124 52.548 244.115 53.1585C243.112 52.066 244.206 50.9506 243.799 49.9407C242.846 50.184 242.246 49.6286 242.397 48.7014C242.425 48.5453 242.438 48.3663 242.397 48.2194C242.237 47.6135 242.1 46.9984 241.861 46.4246C241.779 46.2272 241.44 46.0298 241.211 46.0206C240.781 45.9977 240.492 45.9564 240.437 45.4377C240.423 45.2816 240.162 45.1577 239.961 44.9695C239.846 45.2908 239.778 45.4928 239.732 45.6305C239.265 45.6029 238.857 45.5846 238.289 45.5479C238.294 45.0475 238.298 44.5013 238.308 43.7347C237.831 43.5236 237.163 43.2068 236.485 42.9222C236.379 42.8763 236.196 42.9176 236.091 42.9819C235.601 43.2849 235.193 43.2022 234.9 42.7248C234.717 42.4311 234.598 42.096 234.415 41.7104C234.282 41.715 234.076 41.715 233.879 41.7471C233.087 41.8711 232.304 42.0409 231.511 42.1189C231.333 42.1373 231.026 41.894 230.953 41.7058C230.737 41.1458 230.453 40.9943 229.908 41.2284C229.679 41.3248 229.373 41.4901 229.208 41.4074C228.791 41.2009 228.429 41.0632 227.967 41.2606C227.834 41.3156 227.623 41.1871 227.445 41.1274C226.982 40.953 226.533 40.7327 226.066 40.6133C225.095 40.37 224.124 40.1773 223.14 39.9845C222.97 39.9523 222.769 39.9845 222.599 40.0396C221.77 40.3058 220.941 40.5904 220.117 40.8566C219.897 40.8153 219.686 40.7602 219.471 40.7189C219.297 40.6868 219.1 40.7189 218.926 40.774C217.96 41.0815 217.003 41.4212 216.036 41.7242C215.821 41.793 215.574 41.7471 215.354 41.7838C215.029 41.8389 214.708 41.9216 214.383 41.9904C214.521 42.2566 214.635 42.5366 214.8 42.7891C215.331 43.6337 216.385 44.0973 216.513 45.2587C216.6 46.0252 216.705 46.8469 217.058 47.5171C217.653 48.66 217.534 49.826 217.502 51.0148C217.479 51.9283 217.42 52.8464 217.534 53.746C217.694 55.0589 217.896 56.3349 217.497 57.6523C217.186 58.676 216.939 59.7226 216.701 60.7691L216.536 61.4347ZM198.368 74.9484C197.571 75.1137 196.774 75.2606 195.973 75.3937C195.675 75.4396 195.332 75.5406 195.254 75.0265C195.813 74.852 196.358 74.673 196.935 74.494C197.507 75.1274 198.162 74.471 198.945 74.6087C198.693 74.7602 198.542 74.9071 198.368 74.9484ZM201.514 67.8565C201.505 67.806 201.501 67.7601 201.496 67.7096C202.407 67.5076 203.319 67.3516 204.253 67.3607C204.262 67.425 204.267 67.4847 204.276 67.5489C203.355 67.6499 202.435 67.7555 201.514 67.8565ZM213.261 105.217C213.316 105.253 213.362 105.29 213.412 105.322C213.513 105.249 213.628 105.184 213.705 105.093C213.531 105.386 213.371 105.685 213.197 105.979C213.014 106.291 212.808 106.594 212.615 106.901C212.501 106.965 212.373 107.043 212.194 107.149C212.341 106.511 212.451 106.02 212.565 105.533C212.524 105.519 212.487 105.506 212.451 105.487C212.002 106.162 211.553 106.832 211.104 107.507C210.912 107.562 210.724 107.617 210.536 107.668C210.532 107.663 210.532 107.663 210.527 107.654C210.536 107.64 210.541 107.617 210.55 107.603C211.026 106.832 211.544 106.089 212.048 105.331C212.089 105.272 212.121 105.203 212.176 105.166C213.028 104.661 213.687 103.963 214.186 103.11C214.218 103.05 214.342 103.045 214.543 103.114C214.113 103.817 213.687 104.514 213.261 105.217ZM214.415 101.205C214.008 101.778 213.476 102.27 213 102.793C212.95 102.77 212.904 102.747 212.854 102.724C212.982 102.398 213.115 102.054 213.238 101.723C213.669 101.182 214.095 100.631 214.479 100.043C214.96 99.3089 215.707 98.7443 216.43 98.1705C215.794 99.2033 215.116 100.213 214.415 101.205ZM220.744 97.5462C220.3 98.1476 219.815 98.7167 219.375 99.3273C219.247 99.5109 219.215 99.7771 219.164 100.011C219.155 100.039 219.403 100.167 219.425 100.144C219.577 99.9882 219.7 99.8092 219.828 99.6348C220.057 99.3318 220.286 99.0335 220.648 98.804C220.52 99.0564 220.419 99.3272 220.264 99.5659C219.81 100.232 219.306 100.874 218.867 101.544C218.665 101.847 218.578 102.228 218.404 102.554C217.905 103.458 217.392 104.358 216.87 105.249C216.705 105.519 216.531 105.781 216.362 106.052C216.352 106.011 216.352 105.969 216.348 105.928C216.32 105.809 216.375 105.657 216.439 105.538C216.888 104.638 217.355 103.748 217.813 102.848C217.786 102.834 217.758 102.82 217.74 102.807C217.296 103.477 216.852 104.142 216.412 104.817C216.371 104.79 216.334 104.767 216.288 104.744C216.412 104.455 216.531 104.161 216.646 103.867C216.595 103.83 216.545 103.794 216.494 103.757C216.243 103.931 216 104.11 215.78 104.266C215.766 103.738 217.104 103.477 216.055 102.628C216.275 102.545 216.591 102.453 216.714 102.573C217.062 102.894 217.227 102.646 217.369 102.421C217.497 102.215 217.543 101.948 217.621 101.71C217.813 101.117 217.882 100.443 218.212 99.9377C218.711 99.1758 219.242 98.4367 219.787 97.7023C220.14 97.4223 220.497 97.1423 220.827 96.8531C220.845 96.8347 220.914 96.8577 221.102 96.8669C220.973 97.1148 220.886 97.3534 220.744 97.5462ZM222.929 96.9449C223.204 95.297 224.275 93.4471 225.255 92.6806C225.324 92.7173 225.397 92.7586 225.466 92.7953C224.623 94.177 223.776 95.5587 222.929 96.9449ZM273.136 66.5437C273.013 67.2643 272.417 66.8742 272.11 67.223C272.023 67.0027 271.968 66.8558 271.881 66.6171C272.339 66.5896 272.729 66.5712 273.136 66.5437ZM278.719 66.8971C279.126 66.9843 279.429 67.122 279.722 67.0945C280.349 67.0394 280.963 66.8971 281.586 66.7824C281.673 66.7686 281.746 66.6997 281.851 66.6492C281.265 66.2223 279.502 66.3187 278.719 66.8971ZM285.153 66.2591H283.752C284.036 66.6768 284.805 66.6263 285.153 66.2591ZM278.911 62.2105C279.007 62.2885 279.113 62.44 279.195 62.4262C279.557 62.3895 279.919 62.3023 280.28 62.2334C280.276 62.1783 280.271 62.1278 280.271 62.0774C279.914 62.0498 279.557 62.0039 279.204 62.0039C279.103 62.0085 279.007 62.137 278.911 62.2105ZM286.298 66.2499C286.417 66.3142 286.527 66.4151 286.646 66.4289C286.788 66.4473 286.944 66.3876 287.09 66.3646C287.095 66.3142 287.109 66.2637 287.109 66.2132C286.962 66.1673 286.811 66.0755 286.66 66.0801C286.541 66.0846 286.422 66.1902 286.298 66.2499Z" fill="white"/>
<path fill-rule="evenodd" clip-rule="evenodd" d="M151.793 62.7611C151.587 62.8529 151.399 62.9585 151.188 63.0319C151.028 63.0916 150.854 63.0962 150.689 63.1375C150.497 63.1788 150.29 63.188 150.135 63.2798C149.736 63.5093 149.095 63.5231 148.697 63.2706C148.623 63.2247 148.532 63.1696 148.454 63.1742C147.822 63.2477 147.579 62.7565 147.268 62.3572C147.011 62.0221 146.727 61.7099 146.485 61.3657C146.114 60.8378 145.724 60.3099 145.431 59.7361C145.225 59.346 145.147 58.8869 145.074 58.4463C145.015 58.0882 145.047 57.7164 145.051 57.3492C145.056 56.8213 144.987 56.7203 144.493 56.5643C143.888 56.3761 143.393 55.7747 143.403 55.2331C143.403 55.1321 143.435 55.0403 143.467 54.9255C144.19 55.1459 144.873 55.1091 145.532 54.7924C145.656 54.7327 145.789 54.6226 145.844 54.5078C146.366 53.3052 147.034 52.1852 147.845 51.1569C148.518 50.2986 149.228 49.454 149.974 48.6598C150.556 48.0356 151.202 47.4664 151.87 46.9293C152.782 46.1995 153.702 45.4604 154.692 44.8499C155.456 44.3817 156.23 43.9135 157.078 43.5693C157.842 43.2571 158.626 43.1745 159.399 43.0047C159.537 42.9771 159.693 43.023 159.83 43.0689C160.247 43.2066 160.668 43.3581 161.085 43.5142C161.149 43.5371 161.213 43.583 161.25 43.6427C161.488 44.065 161.744 44.4919 161.95 44.928C162.248 45.5431 162.221 46.1719 161.946 46.787C161.698 47.3424 161.479 47.9162 161.176 48.4441C160.97 48.8159 160.645 49.128 160.37 49.4585C160.045 49.8487 159.752 50.2664 159.386 50.6107C158.786 51.1983 158.14 51.7307 157.485 52.2586C156.487 53.0619 155.369 53.6632 154.302 54.3426C153.382 54.9301 152.356 55.3019 151.321 55.6278C150.78 55.7931 150.231 55.917 149.691 56.0685C149.613 56.0915 149.503 56.1465 149.484 56.2108C149.288 56.8167 149.104 57.4226 148.917 58.0286C148.958 58.0607 148.994 58.0928 149.031 58.1295C149.274 58.0286 149.526 57.9413 149.764 57.8312C150.932 57.2803 152.09 56.702 153.272 56.1787C154.527 55.6233 155.8 55.1229 157.068 54.5996C157.536 54.4068 158.003 54.1957 158.484 54.0396C159.381 53.755 160.288 53.4888 161.199 53.2547C161.369 53.2088 161.717 53.2868 161.753 53.3878C161.822 53.5852 161.786 53.879 161.666 54.0488C161.502 54.3059 161.186 54.4482 161.071 54.7924C161.03 54.9255 160.819 55.0173 160.668 55.1137C160.155 55.4396 159.638 55.761 159.12 56.0915C159.079 56.1144 159.019 56.1695 159.019 56.1925C159.111 56.6652 158.69 56.7066 158.451 56.8993C158.103 57.1748 157.545 57.1702 157.412 57.7118C156.981 57.7256 156.867 58.3728 156.349 58.2397C156.304 58.2305 156.212 58.2948 156.162 58.3453C155.969 58.5564 155.782 58.7859 155.585 58.9971C155.461 59.1256 155.333 59.2541 155.186 59.3551C154.563 59.7774 154.05 60.2915 153.721 60.9847C153.702 61.026 153.675 61.0857 153.638 61.104C153.134 61.3381 152.864 61.8017 152.53 62.2057C152.475 62.2699 152.383 62.3021 152.31 62.348C152.127 62.4719 151.939 62.5959 151.756 62.7152C151.77 62.7382 151.783 62.7473 151.793 62.7611ZM150.79 52.6304C150.826 52.6717 150.854 52.7176 150.886 52.7589C151.22 52.5753 151.55 52.3871 151.893 52.2035C152.525 51.8593 153.185 51.5425 153.803 51.1661C154.325 50.8494 154.82 50.4776 155.314 50.1104C156.024 49.5825 156.775 49.0867 157.421 48.4854C158.016 47.9392 158.506 47.2782 159.029 46.6585C159.267 46.3831 159.134 46.0985 158.951 45.8827C158.868 45.7863 158.635 45.745 158.502 45.7863C158.076 45.9195 157.632 46.0526 157.261 46.2867C156.78 46.5942 156.363 47.0074 155.914 47.37C155.273 47.8887 154.577 48.3477 154 48.9307C153.139 49.7982 152.36 50.7438 151.559 51.6619C151.284 51.974 151.046 52.3091 150.79 52.6304Z" fill="white"/>
<path fill-rule="evenodd" clip-rule="evenodd" d="M177.842 47.4756C178.144 47.4527 178.442 47.4756 178.712 47.393C179.17 47.2599 179.953 47.8199 179.944 48.357C179.939 48.816 179.953 49.2704 179.692 49.7065C179.545 49.9498 179.564 50.2894 179.445 50.5557C179.188 51.1203 178.886 51.6619 178.616 52.2265C178.323 52.837 178.057 53.4567 177.755 54.0718C177.43 54.7466 177.063 55.403 176.743 56.0823C176.504 56.5827 176.312 57.106 176.092 57.6201C175.992 57.8404 175.882 58.0516 175.795 58.2765C175.763 58.3591 175.776 58.4601 175.776 58.5519C175.868 58.5427 175.982 58.5611 176.042 58.5106C176.285 58.3316 176.523 58.1434 176.743 57.9322C177.503 57.2161 178.277 56.5138 179.005 55.761C179.646 55.0954 180.228 54.384 180.837 53.6908C181.057 53.4338 181.299 53.1859 181.496 52.9151C181.597 52.7728 181.638 52.5892 181.698 52.4239C181.721 52.3642 181.735 52.3 181.762 52.2495C182.371 51.2534 182.98 50.2573 183.603 49.2658C183.965 48.6829 184.345 48.1045 184.711 47.5399C184.881 47.6592 185.027 47.7556 185.174 47.8612C185.215 47.8566 185.256 47.8566 185.298 47.8474C185.188 48.155 185.082 48.4625 184.972 48.7747C184.78 49.298 184.643 49.8488 184.395 50.3491C183.914 51.3406 183.347 52.2862 182.879 53.2823C182.605 53.879 182.344 54.4895 182.128 55.1138C181.831 55.9676 181.327 56.7617 180.837 57.5329C180.434 58.1663 179.916 58.7263 179.468 59.3322C179.344 59.4883 179.321 59.7178 179.197 59.8647C178.804 60.3146 178.396 60.7644 177.961 61.1729C177.521 61.5861 177.063 61.967 176.578 62.3343C176.381 62.4812 176.12 62.5546 175.877 62.6372C175.625 62.7336 175.378 62.8025 175.121 62.9494C174.81 63.1376 174.357 63.0825 173.963 63.1513C173.509 63.2294 173.216 62.9907 172.932 62.6923C172.735 62.4903 172.529 62.2975 172.296 62.1552C171.842 61.8936 171.774 61.4621 171.737 61.0215C171.71 60.7093 171.732 60.4018 171.728 60.0529C171.655 60.085 171.59 60.0896 171.558 60.1309C171.082 60.6726 170.615 61.2418 170.12 61.7788C169.704 62.2333 169.259 62.6694 168.82 63.0962C168.211 63.67 167.574 64.2117 166.979 64.8038C166.763 65.0104 166.667 65.3317 166.493 65.5796C166.383 65.7311 166.218 65.8458 166.04 66.0019C165.948 65.8137 165.912 65.5979 165.82 65.575C165.545 65.5015 165.238 65.497 164.95 65.4694C164.858 65.4648 164.73 65.5245 164.675 65.4832C164.487 65.3317 164.35 65.3133 164.153 65.4878C164.002 65.6255 163.512 65.2766 163.494 64.9828C163.466 64.5055 163.251 64.2163 162.843 63.9684C162.518 63.7664 162.335 63.3625 162.014 63.1651C161.41 62.7887 161.341 62.2241 161.272 61.609C161.14 60.4523 161.19 59.3093 161.479 58.1847C161.662 57.4824 161.891 56.7847 162.12 56.0961C162.481 55.0266 162.825 53.9479 163.246 52.9013C163.603 52.0016 164.066 51.1432 164.487 50.2665C164.845 49.5275 165.183 48.7838 165.564 48.0586C166.008 47.2094 166.498 46.3877 166.956 45.5477C167.066 45.3412 167.107 45.0887 167.244 44.8959C167.863 44.0329 168.508 43.1746 169.154 42.33C169.626 41.7194 170.116 41.1319 170.606 40.5443C170.986 40.0807 171.238 40.044 171.668 40.4801C171.993 40.8106 172.296 41.1732 172.548 41.5588C172.836 41.9949 172.767 42.486 172.566 42.945C172.158 43.8631 171.719 44.7628 171.325 45.6854C171.142 46.1215 171.05 46.5943 170.871 47.0304C170.702 47.4481 170.455 47.8291 170.29 48.2468C170.194 48.4671 170.175 48.715 170.125 48.9583C170.107 49.0639 170.107 49.1832 170.07 49.2796C169.676 50.3216 169.255 51.3636 168.888 52.4193C168.554 53.397 168.27 54.4023 167.977 55.3938C167.876 55.7473 167.798 56.1007 167.73 56.4587C167.711 56.5414 167.766 56.6469 167.785 56.7433C167.89 56.7158 168.023 56.725 168.092 56.6607C168.719 56.1282 169.333 55.5866 169.956 55.0449C170.381 54.6731 170.817 54.3059 171.224 53.9157C172.016 53.1721 172.786 52.4056 173.578 51.6619C174.673 50.6291 175.781 49.6193 176.871 48.5865C177.187 48.2927 177.338 47.8337 177.796 47.673C177.842 47.6684 177.833 47.5353 177.842 47.4756Z" fill="white"/>
<path fill-rule="evenodd" clip-rule="evenodd" d="M145.394 47.5216C145.358 47.1865 145.335 46.8422 145.248 46.5163C145.147 46.1399 145.005 45.7635 144.84 45.4101C144.616 44.9373 144.524 44.3864 144.085 44.0238C144.039 43.9825 143.993 43.9228 143.975 43.8631C143.81 43.3031 143.421 42.8992 143.018 42.5136C142.894 42.3943 142.647 42.3989 142.546 42.2703C142.17 41.8159 141.644 41.7792 141.131 41.6782C140.879 41.6323 140.618 41.6093 140.366 41.5726C140.105 41.5313 139.835 41.3936 139.597 41.4395C138.955 41.5772 138.333 41.8342 137.687 41.9628C136.963 42.1143 136.363 42.5136 135.823 42.9405C135.502 43.1884 135.159 43.3812 134.834 43.6153C134.522 43.8356 134.179 44.0238 133.909 44.2809C133.446 44.7215 133.043 45.2264 132.585 45.6763C132.049 46.2042 131.509 46.7183 131.101 47.3563C131.023 47.4803 130.9 47.5904 130.767 47.6593C130.721 47.6868 130.547 47.6042 130.52 47.5308C130.368 47.0993 130.254 46.654 130.089 46.2271C129.942 45.8461 129.741 45.4881 129.562 45.1209C129.407 44.8087 129.31 44.4461 129.086 44.1845C128.427 43.4041 127.808 42.5733 126.723 42.33C126.059 42.1785 125.473 41.77 124.767 41.7975C124.667 41.8021 124.561 41.7057 124.52 41.6874C124.305 41.7149 124.163 41.7333 124.003 41.7562C123.691 41.8021 123.361 41.7929 123.068 41.8985C122.922 41.949 122.775 41.9949 122.629 42.0408C122.473 42.0546 122.322 42.0821 122.166 42.0959C120.449 42.2474 118.782 42.532 117.307 43.5326C116.51 44.0697 115.654 44.5287 114.852 45.052C114.633 45.1943 114.477 45.4376 114.312 45.6533C114.271 45.713 114.271 45.8599 114.317 45.9242C114.536 46.2317 114.756 46.5484 115.017 46.8147C115.113 46.9202 115.32 46.9019 115.461 46.9662C115.654 47.0534 115.837 47.1681 116.02 47.2737C116.103 47.3242 116.162 47.4068 116.24 47.4481C116.822 47.7144 117.408 47.9806 117.999 48.2239C118.159 48.2881 118.351 48.3157 118.516 48.2927C118.873 48.2377 119.226 48.1504 119.579 48.0632C119.844 47.9944 119.812 47.7235 120.055 47.6088C120.426 47.4389 120.582 47.0534 120.943 46.8606C121.236 46.7045 121.301 46.2638 121.552 46.0527C122.006 45.6809 122.89 45.4743 123.613 45.3274C123.824 45.3642 124.03 45.4055 124.25 45.433C124.337 45.4422 124.442 45.6258 124.465 45.7497C124.52 46.0343 124.534 46.3373 124.571 46.6311C124.625 47.0855 124.694 47.5308 124.745 47.9852C124.795 48.4809 124.552 48.9813 124.777 49.477C124.795 49.5229 124.745 49.5964 124.722 49.656C124.68 49.78 124.616 49.8901 124.607 50.0095C124.571 50.3905 124.552 50.7715 124.52 51.1525C124.52 51.2489 124.488 51.3407 124.465 51.4325C124.36 51.8135 124.25 52.1944 124.145 52.5754C124.099 52.7361 124.048 52.8922 124.003 53.0528C123.934 53.2961 123.87 53.5486 123.806 53.801C123.778 53.8928 123.746 53.9892 123.714 54.0719C123.577 54.4069 123.426 54.7283 123.293 55.0634C123.206 55.2975 123.16 55.5499 123.059 55.7748C122.871 56.1788 122.656 56.569 122.45 56.9637C122.258 57.3263 122.07 57.6844 121.864 58.0378C121.754 58.2306 121.566 58.3959 121.511 58.5979C121.388 59.0982 121.058 59.4608 120.765 59.8464C120.664 59.9749 120.627 60.1494 120.559 60.3054C120.517 60.4064 120.426 60.4799 120.366 60.5762C120.165 60.8792 119.995 61.2005 119.776 61.4851C119.492 61.8569 119.171 62.1966 118.864 62.5546C118.837 62.5914 118.818 62.6648 118.828 62.7061C118.896 62.9173 118.828 63.0274 118.635 63.1147C118.525 63.1652 118.443 63.2891 118.374 63.3993C117.902 64.1521 117.44 64.914 116.973 65.6714C116.845 65.8826 116.817 66.3554 116.95 66.438C117.151 66.5803 117.367 66.6996 117.559 66.8511C117.728 66.9842 117.848 67.177 118.022 67.301C118.223 67.4524 118.452 67.5626 118.672 67.682C118.676 67.6452 118.69 67.6039 118.69 67.5672C118.814 67.5259 118.937 67.457 119.061 67.4524C119.258 67.4387 119.524 67.5534 119.634 67.4662C120.119 67.076 120.733 67.3377 121.264 67.0623C121.754 66.8098 122.217 66.516 122.633 66.1809C123.05 65.8367 123.394 65.4006 123.764 65.0058C123.888 64.8773 124.03 64.7717 124.126 64.634C124.474 64.175 124.804 63.6976 125.143 63.234C125.528 62.7107 125.944 62.2104 126.302 61.6641C126.673 61.0858 126.989 60.4615 127.337 59.8694C127.721 59.2175 128.129 58.5795 128.504 57.9139C128.711 57.5421 128.885 57.1382 129.04 56.7296C129.242 56.1788 129.599 55.7565 130.043 55.3847C130.149 55.2975 130.204 55.1506 130.281 55.0312C130.419 54.8293 130.538 54.6135 130.707 54.4391C131.019 54.1086 131.367 53.8102 131.687 53.4843C131.916 53.2548 132.081 52.961 132.342 52.7866C132.736 52.5112 133.08 52.222 133.373 51.8318C133.776 51.3039 134.252 50.8403 134.715 50.3583C134.87 50.1931 135.085 50.0829 135.237 49.9223C135.598 49.5367 135.942 49.1328 136.304 48.7426C136.395 48.637 136.533 48.5681 136.629 48.458C136.867 48.2055 137.073 47.9117 137.339 47.6868C137.888 47.2232 138.465 46.7917 139.033 46.3511C139.152 46.2547 139.308 46.2271 139.308 46.4337C139.308 46.7825 139.262 47.136 139.221 47.4848C139.175 47.8199 139.111 48.1504 139.042 48.4809C138.974 48.839 138.91 49.1924 138.813 49.5505C138.708 49.9498 138.58 50.3492 138.47 50.7531C138.387 51.0469 138.346 51.3636 138.241 51.6482C138.126 51.9512 137.861 52.2036 137.994 52.58C138.012 52.6305 137.929 52.7086 137.893 52.7774C137.852 52.8692 137.792 52.961 137.76 53.0574C137.623 53.4614 137.54 53.8928 137.352 54.2647C137.064 54.8247 136.67 55.3296 136.542 55.9676C136.505 56.1421 136.382 56.344 136.24 56.445C135.869 56.7067 135.859 57.1657 135.635 57.5054C135.374 57.9001 135.246 58.3821 135.021 58.809C134.769 59.2956 134.463 59.75 134.206 60.232C134.11 60.4064 134.083 60.6176 134.046 60.8195C134.014 61.0536 134.037 61.3015 133.996 61.531C133.968 61.733 133.876 61.912 134.069 62.0956C134.257 62.2701 134.417 62.4812 134.568 62.6878C134.829 63.0642 134.916 63.6196 135.521 63.6563C135.553 63.6563 135.58 63.7252 135.621 63.7343C135.717 63.7619 135.827 63.8032 135.924 63.794C136.349 63.7435 136.775 63.6104 137.206 63.6334C137.646 63.6563 138.044 63.5094 138.397 63.3442C138.873 63.1192 139.303 62.7428 139.684 62.3664C140.091 61.9533 140.471 61.4943 140.796 61.0031C141.259 60.2779 141.689 59.5251 142.102 58.7585C142.459 58.0883 142.775 57.3906 143.091 56.6975C143.283 56.2798 143.439 55.8391 143.613 55.4122C143.828 54.8797 144.053 54.3519 144.268 53.8148C144.332 53.6404 144.396 53.4659 144.437 53.2823C144.524 52.9564 144.598 52.6213 144.689 52.2954C144.785 51.9603 144.932 51.639 144.996 51.2993C145.101 50.7623 145.156 50.2252 145.239 49.679C145.266 49.477 145.312 49.275 145.335 49.0731C145.372 48.7885 145.408 48.5085 145.422 48.2239C145.436 47.999 145.417 47.7557 145.394 47.5216Z" fill="white"/>
<path d="M180.594 118.354C180.338 118.299 180.141 118.198 180.118 118.101C180.1 118.028 180.145 117.872 180.37 117.619L180.42 117.56C180.919 117 181.373 116.536 181.812 116.146C181.895 116.082 181.982 116.008 182.064 115.935L182.069 115.939L182.22 115.811C182.509 115.567 182.806 115.32 183.099 115.085C183.892 114.443 184.702 113.777 185.426 113.029C185.678 112.763 185.971 112.492 186.333 112.189L186.346 112.18C186.882 111.725 187.432 111.321 188.045 110.931C188.247 110.807 188.453 110.688 188.709 110.541L188.723 110.537C188.989 110.38 189.254 110.234 189.525 110.082L189.987 109.816C190.363 109.605 190.743 109.384 191.109 109.173C192.016 108.655 192.946 108.117 193.889 107.64C194.292 107.438 194.741 107.273 195.176 107.117C195.803 106.892 196.445 106.658 197.017 106.286C197.75 105.813 198.537 105.57 199.371 105.313C199.71 105.212 200.044 105.106 200.383 104.987C200.575 104.918 200.736 104.799 200.882 104.693C200.956 104.643 201.02 104.588 201.098 104.546L201.244 104.454C201.395 104.358 201.537 104.266 201.665 104.239C202.247 104.087 202.833 103.94 203.424 103.793C203.983 103.66 204.532 103.523 205.091 103.376C205.238 103.339 205.366 103.256 205.471 103.188C205.549 103.142 205.618 103.096 205.668 103.082C206.273 102.935 206.886 102.802 207.495 102.664C207.898 102.577 208.297 102.49 208.7 102.393C208.846 102.361 208.965 102.297 209.071 102.237L209.524 102.008C209.955 101.783 210.394 101.563 210.829 101.338L211.132 101.182C211.759 100.856 212.405 100.516 213.023 100.149C213.298 99.9882 213.454 99.5567 213.417 99.2858C213.371 99.0012 213.069 98.7717 212.858 98.6983L212.712 98.6616C212.235 98.6203 211.755 98.6019 211.278 98.5881L210.646 98.5606C210.349 98.5468 210.051 98.533 209.753 98.5055C209.547 98.4826 209.341 98.4596 209.135 98.4367C208.746 98.3862 208.361 98.3403 207.967 98.3219C207.724 98.3081 207.491 98.3678 207.28 98.4183L207.106 98.4642C206.699 98.556 206.268 98.5514 205.815 98.5422C204.995 98.533 204.143 98.5193 203.328 99.0839C203.131 99.2216 202.81 99.2537 202.476 99.2813C202.284 99.2996 202.091 99.318 201.917 99.3501L201.679 99.4006C201.024 99.5291 200.369 99.6668 199.719 99.8137C199.568 99.8505 199.44 99.9147 199.325 99.9744C199.252 100.016 199.179 100.052 199.101 100.075C198.849 100.144 198.597 100.208 198.345 100.273C198.015 100.355 197.69 100.438 197.365 100.539L197.182 100.589C196.77 100.704 196.344 100.819 196.225 101.168C196.206 101.218 196.197 101.246 196.197 101.255C196.179 101.255 196.142 101.255 196.11 101.25C196.055 101.25 195.991 101.246 195.927 101.25C195.465 101.283 194.997 101.333 194.512 101.384L193.257 101.512L193.623 101.985L192.442 101.944L192.346 102.118C192.291 102.21 192.218 102.274 192.14 102.288C191.911 102.329 191.677 102.343 191.444 102.361L190.779 102.416L190.903 103.073C190.72 103.132 190.541 103.192 190.349 103.247L190.271 103.27C190.079 103.325 189.841 103.39 189.813 103.624C189.744 103.605 189.667 103.587 189.589 103.587C189.465 103.587 189.328 103.569 189.195 103.55C188.829 103.5 188.448 103.454 188.201 103.688C188 103.881 187.766 103.899 187.468 103.922C187.262 103.94 187.033 103.963 186.809 104.046C186.626 104.115 186.443 104.165 186.259 104.211C185.76 104.335 185.206 104.477 184.798 105.01C184.322 104.684 183.905 104.932 183.571 105.175L183.223 105.428C182.728 105.786 182.22 106.157 181.698 106.465C181.57 106.543 181.441 106.603 181.309 106.662C181.185 106.722 181.057 106.773 180.924 106.828C180.631 106.952 180.324 107.076 180.04 107.25C179.816 107.388 179.678 107.603 179.555 107.796C179.491 107.902 179.422 108.003 179.344 108.085C179.225 108.214 179.042 108.329 178.822 108.43" fill="white"/>
<path d="M237.79 98.6937H228.205V88.7191H222.677V112.318C222.677 113.745 223.817 114.916 225.251 114.948H240.753C242.173 114.916 243.322 113.745 243.322 112.318V88.7191H237.79V98.6937ZM237.79 110.564H228.205V103.036H237.79V110.564Z" fill="white"/>
<path d="M254.959 98.5836H252.111V88.7237H246.478V125.326H249.546C250.961 125.299 252.111 124.128 252.111 122.696V103.137H254.959V125.345H258.092V125.326C259.544 125.326 260.716 124.156 260.716 122.696V88.7237H254.964V98.5836H254.959Z" fill="white"/>
<path d="M301.201 98.5836H298.357V88.7237H292.728V125.326H295.783C297.203 125.299 298.357 124.128 298.357 122.696V103.137H301.201V125.345H304.338V125.326C305.789 125.326 306.957 124.156 306.957 122.696V88.7237H301.201V98.5836Z" fill="white"/>
<path d="M282.392 93.3369H289.848V88.7191H269.005V93.3369H276.456C276.246 108.347 270.659 110.004 267.796 111.083V115.999C270.292 115.668 272.545 114.838 274.551 113.502C276.745 112.061 278.371 110.192 279.429 107.888C280.482 110.192 282.103 112.061 284.292 113.502C286.303 114.838 288.561 115.668 291.052 115.999V111.083C288.19 110.004 282.598 108.347 282.392 93.3369Z" fill="white"/>
<path d="M134.051 145.23C134.751 144.72 135.654 144.876 136.121 145.817C137.215 148.558 138.15 150.788 139.011 153.253C140.22 152.863 140.494 152.744 140.806 152.666C141.273 152.546 142.29 152.707 142.445 153.878C142.564 154.897 141.859 155.168 140.884 155.521L139.908 155.874C140.961 158.927 141.781 161.901 142.409 164.288C142.642 165.188 142.175 165.656 141.392 165.812C140.691 165.932 140.183 165.656 139.949 164.835C139.327 162.37 138.466 159.785 137.449 156.774C136.006 157.398 134.559 157.871 133.153 158.459C132.8 158.578 131.944 158.303 131.711 157.325C131.591 156.737 131.866 155.994 132.489 155.682L136.551 154.153L133.625 146.405C131.633 152.588 129.993 160.336 128.821 166.088C128.624 166.675 127.69 166.831 127.181 166.675C126.558 166.441 126.164 166.129 126.32 165.229C127.923 155.718 130.144 147.777 132.022 143.315C132.53 142.218 134.6 143.628 134.284 144.527L134.051 145.23Z" fill="white"/>
<path d="M150.02 165.739C149.901 166.524 149.278 166.951 148.655 166.951C147.991 166.951 147.369 166.675 147.291 165.697L146.196 148.204C146.196 147.304 147.016 146.873 147.717 146.873C148.339 146.873 149.045 147.263 149.081 147.97C149.397 152.234 149.901 160.804 150.02 165.739Z" fill="white"/>
<path d="M156.345 155.521C155.094 155.521 154.119 154.58 154.119 153.29C154.119 152.037 155.094 151.023 156.345 151.023C157.595 151.023 158.607 152.042 158.607 153.29C158.607 154.585 157.595 155.521 156.345 155.521Z" fill="white"/>
<path d="M169.346 144.803C167.666 144.371 165.948 145.588 165.522 147.231C165.248 148.915 166.342 151.027 167.514 153.295C169.429 156.893 171.416 160.965 168.568 164.642C166.617 166.831 163.961 167.814 161.538 168.713C160.993 168.869 160.132 168.755 159.821 167.772C159.546 166.675 160.443 166.285 161.304 165.895C163.764 164.954 166.654 163.783 167.121 161.552C167.51 159.363 166.26 156.976 165.051 154.667C163.842 152.358 162.55 149.852 162.628 147.387C162.706 144.647 165.051 142.26 168.252 142.067C169.539 141.989 170.908 142.301 171.806 143.595C172.781 145.041 172.429 146.216 171.572 146.492C170.986 146.689 170.519 146.294 170.207 145.67C170.01 145.349 169.736 144.917 169.346 144.803Z" fill="white"/>
<path d="M190.779 162.957C190.234 164.444 189.726 165.812 188.32 165.776C187.578 165.776 186.992 165.151 186.836 164.33C185.783 160.258 184.652 156.15 183.635 152.161C182.032 156.191 180.667 161.396 179.495 165.702C179.184 166.914 177.388 166.68 177.15 165.661C176.019 160.887 175.044 156.232 173.56 151.454C173.404 150.908 173.363 149.967 174.535 149.655C175.433 149.421 176.097 150.279 176.294 150.986C176.958 153.139 177.778 156.581 178.364 159.436C179.417 155.64 180.787 151.922 182.188 148.089C182.421 147.621 183.127 147.148 183.713 147.148C184.258 147.148 185.119 147.695 185.316 148.245C186.603 152.863 187.578 156.425 188.595 161.043C190.198 156.191 191.718 151.183 192.969 146.29C193.202 145.39 194.1 145.271 194.571 145.39C195.277 145.546 195.822 146.056 195.78 146.721L190.779 162.957Z" fill="white"/>
<path d="M198.629 150.398C200.19 147.112 202.494 143.706 205.851 139.519C204.211 139.795 201.399 140.694 199.252 141.631C197.612 142.296 196.637 140.222 197.887 139.4C201.244 137.637 204.72 136.857 207.568 136.701C209.249 136.582 210.417 138.147 209.327 139.831C207.802 141.594 206.556 143.081 205.306 144.761C206.749 144.881 208.232 144.881 209.757 144.881C211.36 144.881 212.922 144.839 214.401 144.761C215.107 144.761 215.766 145.152 215.766 145.973C215.766 146.639 215.143 147.107 214.479 147.226C212.409 147.46 209.794 147.616 207.216 147.616C205.81 147.616 204.445 147.616 203.231 147.502C202.412 148.599 201.748 149.691 201.006 150.986C200.497 151.651 199.874 151.849 199.366 151.807C198.588 151.729 198.354 150.986 198.629 150.398ZM207.023 162.998C207.454 161.823 208.626 159.827 209.68 157.912C209.835 157.678 209.991 157.366 211.631 154.47C210.147 154.667 205.031 155.838 201.166 156.898C200.58 156.976 199.407 156.742 199.174 156.035C198.94 155.291 199.329 154.548 199.952 154.35C202.293 153.648 209.789 151.766 213.343 151.454C214.552 151.376 215.569 152.078 215.139 153.331C214.278 155.365 211.782 159.592 210.884 161.355C212.056 161.589 213.229 162.842 213.385 164.605C213.462 167.933 210.962 170.201 208.974 171.376C208.274 171.807 207.61 172 207.023 172C205.695 172 204.953 170.944 204.995 169.145C204.995 167.029 205.97 164.798 207.023 162.998ZM209.441 164.091C208.425 165.537 207.839 167.263 207.646 168.943C208.777 168.511 210.417 166.593 210.458 165.027C210.499 164.132 209.638 163.935 209.441 164.091Z" fill="white"/>
<path d="M229.51 142.765C229.235 143.977 228.809 145.817 228.182 148.085C229.821 148.594 230.952 149.691 232.281 152.703C233.022 154.502 233.531 156.967 233.178 157.279C232.436 157.669 231.575 157.004 231.108 156.026C229.666 152.895 228.924 151.289 227.399 150.862C226.698 153.171 225.915 155.48 225.448 156.848C225.136 157.555 224.275 158.413 223.419 157.945C223.03 157.747 222.796 156.811 223.066 155.755C224.042 152.781 225.567 148.085 226.386 143.311C224.12 144.33 221.546 145.11 220.099 145.423C219.476 145.464 218.812 144.954 218.656 144.325C218.615 144.169 218.459 143.072 219.476 142.645C221.504 142.021 225.722 140.649 227.751 139.593C228.26 139.318 229.038 139.515 229.51 140.024C230.018 140.534 229.785 141.631 229.51 142.765ZM241.261 153.607C241.458 151.61 241.692 149.457 241.728 146.644C240.011 147.19 238.408 147.741 234.231 149.306C233.448 149.462 232.436 149.462 232.161 148.328C232.12 147.897 231.965 146.997 233.686 146.295C237.162 145.12 239.233 144.339 241.692 143.674C241.692 143.205 241.655 142.696 241.614 141.755C241.577 140.621 241.655 140.07 242.319 139.68C243.492 139.056 244.348 139.68 244.504 141.677C244.545 146.139 244.307 150.756 243.762 154.511C243.606 155.374 243.057 155.686 242.356 155.686C241.422 155.521 241.183 154.543 241.261 153.607ZM234.314 170.394C233.728 170.315 233.142 169.728 233.105 168.75C232.986 165.739 233.064 161.824 233.302 159.124C233.421 158.069 234.396 157.913 234.983 158.027C235.569 158.147 236.233 158.537 236.114 160.061C235.802 162.328 235.683 165.578 235.605 168.865C235.605 169.843 235.253 170.389 234.355 170.389H234.314V170.394ZM241.925 167.148L246.102 166.207C247.197 166.01 247.508 166.363 247.783 167.148C247.939 167.892 247.549 168.557 246.766 168.713L239.503 170.32C238.564 170.476 237.785 169.108 238.486 167.855C239.658 165.505 241.023 163.04 242.196 160.731L237.822 161.672C237.002 161.791 236.572 161.397 236.572 160.263C236.572 159.675 236.961 159.129 237.511 159.01C239.581 158.541 241.843 158.188 243.876 157.72C245.319 157.522 246.061 159.207 245.397 160.46L241.925 167.148Z" fill="white"/>
<path d="M250.164 147.148C252.976 146.795 257.272 145.505 258.87 144.798C259.612 144.564 260.001 144.917 260.043 145.817C260.079 146.207 259.887 147.07 258.989 147.424C256.961 148.245 255.513 148.677 253.837 149.067C253.718 151.922 253.562 154.548 253.485 157.44C257.469 155.64 261.174 152.546 263.363 149.655C263.322 148.636 263.793 148.126 264.458 148.089C265.589 148.048 266.097 149.067 266.097 149.499C266.056 151.417 266.056 152.239 265.978 153.96C268.24 151.573 271.208 148.245 272.577 146.212C272.733 145.624 273.36 145.427 273.942 145.468C274.803 145.546 275.385 146.093 275.426 146.836V148.126C275.426 153.919 275.114 157.908 274.217 162.76C273.983 163.738 273.594 164.247 272.811 164.169C271.872 164.05 271.524 163.347 271.602 162.37C272.188 157.554 272.619 154.507 272.619 150.944V150.32C270.823 152.551 268.442 155.25 265.355 158.656C264.458 159.478 263.052 158.615 263.171 157.288C263.248 155.879 263.326 155.255 263.368 153.726C260.633 156.737 256.613 159.712 253.333 160.575C251.575 160.928 250.641 159.634 250.677 158.385L251.108 149.618C250.874 149.655 250.599 149.696 250.444 149.696C249.427 149.696 248.493 149.499 248.374 148.484C248.291 147.502 249.074 147.268 250.164 147.148Z" fill="white"/>
<path d="M280.344 144.725C281.709 144.449 282.648 144.293 283.509 144.1C283.665 142.026 283.665 140.892 283.587 138.858C283.546 137.959 283.784 137.018 284.681 136.784C285.813 136.508 286.321 137.293 286.362 138.349C286.481 140.07 286.44 141.833 286.326 143.435C287.612 143.081 288.826 142.691 290.58 142.104C291.203 141.906 292.453 141.984 292.453 143.081C292.453 143.628 292.064 144.569 291.4 144.844C288.199 145.9 285.112 146.722 280.427 147.621C279.451 147.699 279.021 146.997 278.984 146.409C278.861 145.739 279.332 144.918 280.344 144.725ZM287.063 148.599C288.272 148.521 289.719 149.343 290.108 151.105C290.731 153.96 288.157 157.991 285.345 158.147C283.825 158.147 283.083 156.503 283.083 154.704C283.083 152.67 283.944 150.32 284.567 149.108C284.801 148.677 285.542 147.543 286.248 147.543C286.591 147.539 286.907 147.933 287.063 148.599ZM285.579 155.406C286.751 154.663 287.883 153.019 287.727 151.964C287.608 150.986 286.751 150.596 286.44 151.179C285.813 152.354 285.501 154.194 285.579 155.406ZM298.851 171.215C298.068 171.215 297.445 170.591 297.445 170.04C297.72 167.107 297.834 164.132 297.834 161.236C295.609 161.782 293.502 162.177 291.079 162.526C290.534 162.526 289.673 161.819 289.673 160.804C289.673 160.492 289.715 159.941 290.337 159.707C293.424 159.239 295.764 158.73 298.691 157.867C300.211 157.435 300.761 158.922 300.761 159.432C300.761 162.994 300.646 166.593 300.33 170.155C300.298 170.825 299.478 171.215 298.851 171.215ZM300.023 149.265C300.065 149.889 300.101 150.632 300.568 150.596C301.544 150.518 304.708 149.893 305.721 149.618C306.385 149.462 307.007 149.774 307.246 150.32C307.479 150.908 307.282 151.766 306.934 151.964C304.631 152.827 300.687 153.529 299.359 153.57C297.995 153.57 297.486 152.042 297.331 150.476C297.211 148.636 297.134 146.758 297.134 144.996C297.134 143.977 297.134 142.884 297.175 141.787C297.253 141.277 297.958 140.924 298.617 140.924C299.282 140.924 299.982 141.236 299.982 141.902C299.946 143.784 299.868 147.034 300.023 149.265Z" fill="white"/>
</g>
<defs>
<filter id="filter0_d" x="-10" y="-10" width="376" height="228" filterUnits="userSpaceOnUse" color-interpolation-filters="sRGB">
<feFlood flood-opacity="0" result="BackgroundImageFix"/>
<feColorMatrix in="SourceAlpha" type="matrix" values="0 0 0 0 0 0 0 0 0 0 0 0 0 0 0 0 0 0 127 0"/>
<feOffset/>
<feGaussianBlur stdDeviation="5"/>
<feColorMatrix type="matrix" values="0 0 0 0 0 0 0 0 0 0 0 0 0 0 0 0 0 0 0.14 0"/>
<feBlend mode="normal" in2="BackgroundImageFix" result="effect1_dropShadow"/>
<feBlend mode="normal" in="SourceGraphic" in2="effect1_dropShadow" result="shape"/>
</filter>
<linearGradient id="paint0_linear" x1="223.645" y1="97.4086" x2="222.668" y2="99.0975" gradientUnits="userSpaceOnUse">
<stop offset="0.087" stop-color="#0C318E"/>
<stop offset="0.2705" stop-color="#1E5293"/>
<stop offset="0.3021" stop-color="#235192"/>
<stop offset="0.3377" stop-color="#304F91"/>
<stop offset="0.3754" stop-color="#474B8E"/>
<stop offset="0.4145" stop-color="#67468B"/>
<stop offset="0.4547" stop-color="#8F3F86"/>
<stop offset="0.4952" stop-color="#C13781"/>
<stop offset="0.5217" stop-color="#E5317D"/>
</linearGradient>
<linearGradient id="paint1_linear" x1="221.97" y1="104.839" x2="219.84" y2="108.52" gradientUnits="userSpaceOnUse">
<stop offset="0.087" stop-color="#0C318E"/>
<stop offset="0.2705" stop-color="#1E5293"/>
<stop offset="0.3021" stop-color="#235192"/>
<stop offset="0.3377" stop-color="#304F91"/>
<stop offset="0.3754" stop-color="#474B8E"/>
<stop offset="0.4145" stop-color="#67468B"/>
<stop offset="0.4547" stop-color="#8F3F86"/>
<stop offset="0.4952" stop-color="#C13781"/>
<stop offset="0.5217" stop-color="#E5317D"/>
</linearGradient>
</defs>
</svg>
