<svg width="62" height="69" viewBox="0 0 62 69" fill="none" xmlns="http://www.w3.org/2000/svg">
<g opacity="0.5">
<line x1="0.355193" y1="16.7914" x2="22.886" y2="28.5932" stroke="white" stroke-width="0.925373"/>
<line y1="-0.462687" x2="25.4347" y2="-0.462687" transform="matrix(-0.885832 0.464007 0.464007 0.885832 61.8319 17.2012)" stroke="white" stroke-width="0.925373"/>
<line y1="-0.462687" x2="25.4347" y2="-0.462687" transform="matrix(0.885832 -0.464007 -0.464007 -0.885832 0.140503 50.8766)" stroke="white" stroke-width="0.925373"/>
<line x1="61.6172" y1="51.2864" x2="39.0864" y2="39.4846" stroke="white" stroke-width="0.925373"/>
<line x1="11.4056" y1="34.4413" x2="25.8897" y2="34.4413" stroke="white" stroke-width="0.925373"/>
<line y1="-0.462687" x2="14.4841" y2="-0.462687" transform="matrix(-1 8.74228e-08 8.74228e-08 1 50.5668 34.904)" stroke="white" stroke-width="0.925373"/>
<line x1="31.1805" y1="0.0348358" x2="31.1805" y2="23.1021" stroke="white" stroke-width="0.925373"/>
<line y1="-0.462687" x2="23.0673" y2="-0.462687" transform="matrix(4.37114e-08 -1 -1 -4.37114e-08 30.7178 68.043)" stroke="white" stroke-width="0.925373"/>
<line x1="21.4536" y1="18.0281" x2="29.1205" y2="30.2458" stroke="white" stroke-width="0.925373"/>
<line y1="-0.462687" x2="14.4241" y2="-0.462687" transform="matrix(-0.531539 0.847034 0.847034 0.531539 40.9108 18.2741)" stroke="white" stroke-width="0.925373"/>
<line y1="-0.462687" x2="14.4241" y2="-0.462687" transform="matrix(0.531539 -0.847034 -0.847034 -0.531539 21.0616 49.8038)" stroke="white" stroke-width="0.925373"/>
<line x1="40.5189" y1="50.0497" x2="32.8519" y2="37.832" stroke="white" stroke-width="0.925373"/>
</g>
</svg>
