<svg width="48" height="49" viewBox="0 0 48 49" fill="none" xmlns="http://www.w3.org/2000/svg">
<circle r="24" transform="matrix(1 0 0 -1 24 24.5034)" fill="#F2F3F5"/>
<circle r="24" transform="matrix(1 0 0 -1 24 24.5034)" fill="black" fill-opacity="0.1"/>
<path d="M14.8646 29.3927C15.1876 29.7157 15.6931 29.7451 16.0493 29.4808L16.1513 29.3927L23.9998 21.5447L31.8482 29.3927C32.1712 29.7157 32.6767 29.7451 33.0329 29.4808L33.1349 29.3927C33.458 29.0697 33.4873 28.5642 33.223 28.208L33.1349 28.106L24.6431 19.6142C24.3201 19.2912 23.8147 19.2618 23.4585 19.5261L23.3564 19.6142L14.8646 28.106C14.5093 28.4613 14.5093 29.0374 14.8646 29.3927Z" fill="#7A7D94"/>
</svg>
