<svg width="16" height="16" viewBox="0 0 16 16" fill="none" xmlns="http://www.w3.org/2000/svg">
<path d="M0.787334 8C1.414 4.58667 4.40533 2 8 2C11.5947 2 14.5853 4.58667 15.2127 8C14.586 11.4133 11.5947 14 8 14C4.40533 14 1.41467 11.4133 0.787334 8V8ZM8 11.3333C8.88406 11.3333 9.7319 10.9821 10.357 10.357C10.9821 9.7319 11.3333 8.88406 11.3333 8C11.3333 7.11595 10.9821 6.2681 10.357 5.64298C9.7319 5.01786 8.88406 4.66667 8 4.66667C7.11595 4.66667 6.2681 5.01786 5.64298 5.64298C5.01786 6.2681 4.66667 7.11595 4.66667 8C4.66667 8.88406 5.01786 9.7319 5.64298 10.357C6.2681 10.9821 7.11595 11.3333 8 11.3333ZM8 10C7.46957 10 6.96086 9.78929 6.58579 9.41421C6.21071 9.03914 6 8.53043 6 8C6 7.46957 6.21071 6.96086 6.58579 6.58579C6.96086 6.21071 7.46957 6 8 6C8.53043 6 9.03914 6.21071 9.41422 6.58579C9.78929 6.96086 10 7.46957 10 8C10 8.53043 9.78929 9.03914 9.41422 9.41421C9.03914 9.78929 8.53043 10 8 10Z" fill="#2B4381"/>
</svg>
