<svg width="120" height="120" viewBox="0 0 120 120" fill="none" xmlns="http://www.w3.org/2000/svg">
<g clip-path="url(#clip0)">
<path d="M71.0468 61.1672C71.3703 61.5047 71.8062 61.6875 72.2562 61.6875C72.2984 61.6875 72.3406 61.6875 72.3687 61.6875C72.875 61.6453 73.325 61.3922 73.6203 60.9985L79.7234 52.561C80.2718 51.8016 80.1031 50.7469 79.3437 50.1985C78.5843 49.65 77.5297 49.8188 76.9812 50.5782L72.0734 57.3844L69.725 54.9516C69.0781 54.2766 68.0093 54.2625 67.3343 54.9094C66.6593 55.5563 66.6453 56.625 67.2922 57.3L71.0468 61.1672Z" fill="#5078E7"/>
<path d="M76.25 78.225C75.3219 78.225 74.5625 78.9844 74.5625 79.9125C74.5625 81.9656 72.9031 83.625 70.85 83.625H45.0875C43.0344 83.625 41.375 81.9656 41.375 79.9125V78.5625H69.2187C70.1469 78.5625 70.9062 77.8031 70.9062 76.875C70.9062 75.9469 70.1469 75.1875 69.2187 75.1875H41.375V44.8125H52.3437C53.2719 44.8125 54.0312 44.0531 54.0312 43.125C54.0312 42.1969 53.2719 41.4375 52.3437 41.4375H41.375V40.0875C41.375 38.0344 43.0344 36.375 45.0875 36.375H70.85C72.2422 36.375 73.4937 37.1344 74.1406 38.3719C74.5625 39.2016 75.5891 39.525 76.4187 39.0891C77.2484 38.6672 77.5719 37.6406 77.1359 36.8109C75.9125 34.4625 73.5078 33 70.85 33H45.0875C41.1781 33 38 36.1781 38 40.0875V79.9125C38 83.8219 41.1781 87 45.0875 87H70.85C74.7594 87 77.9375 83.8219 77.9375 79.9125C77.9375 78.9844 77.1781 78.225 76.25 78.225Z" fill="#444E60"/>
<path d="M88.9062 41.4375H57.9687C57.0406 41.4375 56.2812 42.1969 56.2812 43.125V68.4375C56.2812 69.3656 57.0406 70.125 57.9687 70.125H71.4687L82.2687 78.225C82.5641 78.45 82.9156 78.5625 83.2812 78.5625C83.5344 78.5625 83.8016 78.5062 84.0406 78.3937C84.6172 78.0984 84.9688 77.5219 84.9688 76.8891V70.1391H88.9062C89.8344 70.1391 90.5938 69.3797 90.5938 68.4516V43.1391C90.5938 42.1969 89.8344 41.4375 88.9062 41.4375ZM87.2187 66.75H83.2812C82.3531 66.75 81.5937 67.5094 81.5937 68.4375V73.5L73.0437 67.0875C72.7484 66.8625 72.3969 66.75 72.0312 66.75H59.6562V44.8125H87.2187V66.75Z" fill="#5078E7"/>
</g>
<defs>
<clipPath id="clip0">
<rect width="52.5938" height="54" fill="white" transform="translate(38 33)"/>
</clipPath>
</defs>
</svg>
