<svg width="120" height="120" viewBox="0 0 120 120" fill="none" xmlns="http://www.w3.org/2000/svg">
<path d="M79.2234 33H40.7766C36.4875 33 33 36.4875 33 40.7766V79.2094C33 83.4984 36.4875 86.9859 40.7766 86.9859H79.2094C83.4984 86.9859 86.9859 83.4984 86.9859 79.2094V40.7766C87 36.4875 83.5125 33 79.2234 33ZM83.625 79.2234C83.625 81.6562 81.6422 83.625 79.2234 83.625H40.7766C38.3437 83.625 36.375 81.6422 36.375 79.2234V50.4375H83.625V79.2234ZM83.625 47.0625H36.375V40.7766C36.375 38.3438 38.3437 36.375 40.7766 36.375H79.2094C81.6422 36.375 83.625 38.3438 83.625 40.7766V47.0625Z" fill="#444E60"/>
<path d="M44.5171 40.3265C43.7859 39.5953 42.464 39.5953 41.7328 40.3265C41.3671 40.6921 41.1562 41.1984 41.1562 41.7187C41.1562 41.9859 41.2124 42.239 41.3109 42.4781C41.3953 42.7171 41.5499 42.9281 41.7328 43.1109C41.9156 43.2937 42.1265 43.4203 42.3656 43.5328C42.6046 43.6312 42.8578 43.6875 43.1249 43.6875C43.6453 43.6875 44.1515 43.4765 44.5171 43.1109C44.6999 42.9281 44.8265 42.7171 44.939 42.4781C45.0374 42.239 45.0937 41.9859 45.0937 41.7187C45.0937 41.4515 45.0374 41.1984 44.939 40.9593C44.8265 40.7203 44.6999 40.5093 44.5171 40.3265Z" fill="#444E60"/>
<path d="M50.9156 39.9045C50.4093 39.6936 49.8609 39.6936 49.3968 39.9045C49.1578 40.003 48.9468 40.1436 48.764 40.3264C48.3984 40.692 48.1874 41.1983 48.1874 41.7186C48.1874 41.9858 48.2437 42.2389 48.3421 42.478C48.4265 42.717 48.5812 42.928 48.764 43.1108C48.9468 43.2936 49.1578 43.4483 49.3968 43.5327C49.6359 43.6311 49.889 43.6874 50.1562 43.6874C50.6765 43.6874 51.1828 43.4764 51.5484 43.1108C51.7312 42.928 51.8859 42.717 51.9703 42.478C52.0687 42.2389 52.1249 41.9717 52.1249 41.7186C52.1249 41.1983 51.914 40.692 51.5484 40.3264C51.3656 40.1436 51.1546 40.017 50.9156 39.9045Z" fill="#444E60"/>
<path d="M56.4281 39.9047C56.189 40.0031 55.9781 40.1437 55.7952 40.3266C55.4296 40.6922 55.2187 41.1984 55.2187 41.7187C55.2187 41.9859 55.2749 42.2391 55.3734 42.4781C55.4578 42.7172 55.6124 42.9281 55.7952 43.1109C55.9781 43.2937 56.189 43.4203 56.4281 43.5328C56.6671 43.6312 56.9203 43.6875 57.1874 43.6875C57.7078 43.6875 58.214 43.4766 58.5796 43.1109C58.7624 42.9281 58.9171 42.7172 59.0015 42.4781C59.0999 42.2391 59.1562 41.9719 59.1562 41.7187C59.1562 41.1984 58.9453 40.6922 58.5796 40.3266C58.0171 39.7781 57.1593 39.5953 56.4281 39.9047Z" fill="#444E60"/>
<path d="M56.5125 74.9625C56.8219 75.2437 57.2297 75.3984 57.6516 75.3984C57.6938 75.3984 57.736 75.3984 57.7782 75.3984C58.2422 75.3703 58.6641 75.1453 58.9594 74.7937L71.1516 60.0281C71.7422 59.3109 71.6438 58.2422 70.9266 57.6515C70.2094 57.0609 69.1547 57.1593 68.55 57.8765L57.4829 71.2781L51.2954 65.6671C50.6063 65.0484 49.5375 65.0906 48.9047 65.7796C48.2719 66.4687 48.3282 67.5375 49.0172 68.1703L56.5125 74.9625Z" fill="#5078E7"/>
</svg>
