<svg width="28" height="18" viewBox="0 0 28 18" fill="none" xmlns="http://www.w3.org/2000/svg">
<path d="M0.5 5C0.5 3.067 2.067 1.5 4 1.5H24C25.933 1.5 27.5 3.067 27.5 5V13C27.5 14.933 25.933 16.5 24 16.5H4C2.067 16.5 0.5 14.933 0.5 13V5Z" fill="white" stroke="#EF5D66"/>
<path d="M4 12.1191H5.34687V9.26187C5.34687 8.44413 5.24104 7.54942 5.1737 6.77979H5.2218L5.94334 8.30944L8.00212 12.1191H9.44519V5H8.09832V7.83804C8.09832 8.64616 8.20415 9.58896 8.28111 10.3297H8.23301L7.52109 8.79047L5.45269 5H4V12.1191Z" fill="#EF5D66"/>
<path d="M10.8211 12.1191H15.2947V10.9262H12.245V9.02136H14.7463V7.82842H12.245V6.18332H15.1888V5H10.8211V12.1191Z" fill="#EF5D66"/>
<path d="M17.0286 12.1191H18.7699L19.5492 8.59806C19.6646 8.02083 19.7512 7.4917 19.857 6.95296H19.8955C19.9821 7.4917 20.0879 8.02083 20.2034 8.59806L21.0019 12.1191H22.772L24.09 5H22.7335L22.1756 8.47299C22.0697 9.21377 21.9639 9.97378 21.8581 10.7434H21.81C21.656 9.97378 21.5117 9.20415 21.3578 8.47299L20.5305 5H19.3183L18.4909 8.47299C18.337 9.21377 18.1831 9.97378 18.0387 10.7434H18.0003C17.8944 9.97378 17.779 9.24263 17.6732 8.47299L17.1056 5H15.6529L17.0286 12.1191Z" fill="#EF5D66"/>
</svg>
