<svg width="108" height="106" viewBox="0 0 108 106" fill="none" xmlns="http://www.w3.org/2000/svg">
<circle cx="45" cy="58" r="43" fill="#2B4381"/>
<g clip-path="url(#clip0)">
<path d="M56.9998 56.7998C51.3698 56.7998 46.7998 61.3698 46.7998 66.9998C46.7998 72.6298 51.3698 77.1998 56.9998 77.1998C62.6298 77.1998 67.1998 72.6298 67.1998 66.9998C67.1998 61.3698 62.6198 56.7998 56.9998 56.7998ZM56.9998 74.7998C52.6998 74.7998 49.1998 71.2998 49.1998 66.9998C49.1998 62.6998 52.6998 59.1998 56.9998 59.1998C61.2998 59.1998 64.7998 62.6998 64.7998 66.9998C64.7998 71.2998 61.2998 74.7998 56.9998 74.7998Z" fill="#43BCCD"/>
<path d="M59.4798 63.6398L55.8198 68.3198L54.0298 66.5998C53.5498 66.1398 52.7898 66.1598 52.3298 66.6298C51.8698 67.1098 51.8898 67.8698 52.3598 68.3298L55.1098 70.9698C55.3298 71.1798 55.6298 71.2998 55.9398 71.2998C55.9698 71.2998 55.9998 71.2998 56.0298 71.2998C56.3698 71.2698 56.6798 71.1098 56.8898 70.8398L61.3598 65.1098C61.7698 64.5898 61.6798 63.8298 61.1498 63.4298C60.6398 63.0198 59.8898 63.1098 59.4798 63.6398Z" fill="#43BCCD"/>
<path d="M46.9998 74.7998H32.2498C31.6698 74.7998 31.1998 74.3298 31.1998 73.7498V42.2498C31.1998 41.6698 31.6698 41.1998 32.2498 41.1998H48.7998V49.5798C48.7998 51.5698 50.4198 53.1998 52.4198 53.1998H60.7998V54.4998C60.7998 55.1598 61.3398 55.6998 61.9998 55.6998C62.6598 55.6998 63.1998 55.1598 63.1998 54.4998V51.0198C63.1998 50.0498 62.8198 49.1298 62.1298 48.4398L53.5598 39.8698C52.8898 39.1898 51.9498 38.7998 50.9898 38.7998H32.2498C30.3498 38.7998 28.7998 40.3498 28.7998 42.2498V73.7498C28.7998 75.6498 30.3498 77.1998 32.2498 77.1998H46.9998C47.6598 77.1998 48.1998 76.6598 48.1998 75.9998C48.1998 75.3398 47.6598 74.7998 46.9998 74.7998ZM51.1998 41.2398C51.4498 41.2798 51.6898 41.3798 51.8698 41.5598L60.4398 50.1298C60.6198 50.3098 60.7198 50.5498 60.7598 50.7998H52.4198C51.7498 50.7998 51.1998 50.2498 51.1998 49.5798V41.2398Z" fill="white"/>
<path d="M35.9998 51.1998H43.9998C44.6598 51.1998 45.1998 50.6598 45.1998 49.9998C45.1998 49.3398 44.6598 48.7998 43.9998 48.7998H35.9998C35.3398 48.7998 34.7998 49.3398 34.7998 49.9998C34.7998 50.6598 35.3398 51.1998 35.9998 51.1998Z" fill="white"/>
<path d="M49.1998 55.9998C49.1998 55.3398 48.6598 54.7998 47.9998 54.7998H35.9998C35.3398 54.7998 34.7998 55.3398 34.7998 55.9998C34.7998 56.6598 35.3398 57.1998 35.9998 57.1998H47.9998C48.6598 57.1998 49.1998 56.6598 49.1998 55.9998Z" fill="white"/>
<path d="M45.1998 61.9998C45.1998 61.3398 44.6598 60.7998 43.9998 60.7998H35.9998C35.3398 60.7998 34.7998 61.3398 34.7998 61.9998C34.7998 62.6598 35.3398 63.1998 35.9998 63.1998H43.9998C44.6598 63.1998 45.1998 62.6598 45.1998 61.9998Z" fill="white"/>
<path d="M35.9998 66.7998C35.3398 66.7998 34.7998 67.3398 34.7998 67.9998C34.7998 68.6598 35.3398 69.1998 35.9998 69.1998H41.9998C42.6598 69.1998 43.1998 68.6598 43.1998 67.9998C43.1998 67.3398 42.6598 66.7998 41.9998 66.7998H35.9998Z" fill="white"/>
</g>
<line x1="78.1717" y1="81.0835" x2="89.0171" y2="86.7644" stroke="#2B4381" stroke-width="0.445435"/>
<line y1="-0.222718" x2="12.2432" y2="-0.222718" transform="matrix(-0.885832 0.464007 0.464007 0.885832 107.763 81.2808)" stroke="#2B4381" stroke-width="0.445435"/>
<line y1="-0.222718" x2="12.2432" y2="-0.222718" transform="matrix(0.885832 -0.464007 -0.464007 -0.885832 78.0684 97.4897)" stroke="#2B4381" stroke-width="0.445435"/>
<line x1="107.66" y1="97.687" x2="96.8143" y2="92.0061" stroke="#2B4381" stroke-width="0.445435"/>
<line x1="83.4899" y1="89.579" x2="90.4619" y2="89.579" stroke="#2B4381" stroke-width="0.445435"/>
<line y1="-0.222718" x2="6.97203" y2="-0.222718" transform="matrix(-1 8.74228e-08 8.74228e-08 1 102.341 89.8018)" stroke="#2B4381" stroke-width="0.445435"/>
<line x1="93.0091" y1="73.0161" x2="93.0091" y2="84.1197" stroke="#2B4381" stroke-width="0.445435"/>
<line y1="-0.222718" x2="11.1036" y2="-0.222718" transform="matrix(4.37114e-08 -1 -1 -4.37114e-08 92.7864 105.752)" stroke="#2B4381" stroke-width="0.445435"/>
<line x1="88.3268" y1="81.6775" x2="92.0173" y2="87.5586" stroke="#2B4381" stroke-width="0.445435"/>
<line y1="-0.222718" x2="6.94314" y2="-0.222718" transform="matrix(-0.531539 0.847034 0.847034 0.531539 97.6919 81.7959)" stroke="#2B4381" stroke-width="0.445435"/>
<line y1="-0.222718" x2="6.94314" y2="-0.222718" transform="matrix(0.531539 -0.847034 -0.847034 -0.531539 88.1381 96.9731)" stroke="#2B4381" stroke-width="0.445435"/>
<line x1="97.5033" y1="97.0915" x2="93.8127" y2="91.2105" stroke="#2B4381" stroke-width="0.445435"/>
<g opacity="0.8">
<line y1="-0.17069" x2="7.3483" y2="-0.17069" transform="matrix(-4.37114e-08 -1 -1 4.37114e-08 10.1275 19.9309)" stroke="#5078E7" stroke-width="0.341379"/>
<line y1="-0.17069" x2="7.3483" y2="-0.17069" transform="matrix(-4.37114e-08 -1 -1 4.37114e-08 10.1275 7.98242)" stroke="#5078E7" stroke-width="0.341379"/>
<line y1="-0.17069" x2="7.3483" y2="-0.17069" transform="matrix(-0.707107 -0.707107 -0.707107 0.707107 8.49593 8.21973)" stroke="#5078E7" stroke-width="0.341379"/>
<line x1="11.6002" y1="8.09903" x2="16.7963" y2="2.903" stroke="#5078E7" stroke-width="0.341379"/>
<line x1="8.61662" y1="12.0208" x2="3.42059" y2="17.2169" stroke="#5078E7" stroke-width="0.341379"/>
<line y1="-0.17069" x2="7.3483" y2="-0.17069" transform="matrix(0.707107 0.707107 0.707107 -0.707107 11.7209 11.9001)" stroke="#5078E7" stroke-width="0.341379"/>
<line x1="7.80333" y1="10.364" x2="0.455026" y2="10.364" stroke="#5078E7" stroke-width="0.341379"/>
<line y1="-0.17069" x2="7.3483" y2="-0.17069" transform="matrix(1 -8.74228e-08 -8.74228e-08 -1 12.4135 10.1934)" stroke="#5078E7" stroke-width="0.341379"/>
<circle cx="10.0902" cy="10.1549" r="1.1" stroke="#5078E7" stroke-width="0.341379"/>
</g>
<defs>
<clipPath id="clip0">
<rect width="38.4" height="38.4" fill="white" transform="translate(28.7998 38.7998)"/>
</clipPath>
</defs>
</svg>
