<svg width="108" height="106" viewBox="0 0 108 106" fill="none" xmlns="http://www.w3.org/2000/svg">
<circle cx="45" cy="58" r="43" fill="#2B4381"/>
<g clip-path="url(#clip0)">
<path d="M62.9998 57.1998C63.6598 57.1998 64.1998 56.6598 64.1998 55.9998V42.9198C64.1998 40.6498 62.3498 38.7998 60.0798 38.7998H29.9198C27.6498 38.7998 25.7998 40.6498 25.7998 42.9198V65.0898C25.7998 67.3598 27.6498 69.2098 29.9198 69.2098H33.7998V76.0098C33.7998 76.4298 34.0198 76.8198 34.3798 77.0398C34.5698 77.1498 34.7798 77.2098 34.9998 77.2098C35.1898 77.2098 35.3898 77.1598 35.5598 77.0698L50.2998 69.1998H60.0798C62.3498 69.1998 64.1998 67.3498 64.1998 65.0798V61.9998C64.1998 61.3398 63.6598 60.7998 62.9998 60.7998C62.3398 60.7998 61.7998 61.3398 61.7998 61.9998V65.0798C61.7998 66.0298 61.0298 66.7998 60.0798 66.7998H49.9998C49.7998 66.7998 49.6098 66.8498 49.4398 66.9398L36.1998 73.9998V67.9998C36.1998 67.3398 35.6598 66.7998 34.9998 66.7998H29.9198C28.9698 66.7998 28.1998 66.0298 28.1998 65.0798V42.9198C28.1998 41.9698 28.9698 41.1998 29.9198 41.1998H60.0898C61.0298 41.1998 61.7998 41.9698 61.7998 42.9198V55.9998C61.7998 56.6598 62.3398 57.1998 62.9998 57.1998Z" fill="white"/>
<path d="M36.1498 55.1499C35.6798 55.6199 35.6798 56.3799 36.1498 56.8499L41.1498 61.8499C41.3798 62.0799 41.6898 62.1999 41.9998 62.1999C42.3098 62.1999 42.6098 62.0799 42.8498 61.8499C43.3198 61.3799 43.3198 60.6199 42.8498 60.1499L37.8498 55.1499C37.3798 54.6799 36.6198 54.6799 36.1498 55.1499Z" fill="#43BCCD"/>
<path d="M53.8498 52.8499C54.3198 52.3799 54.3198 51.6199 53.8498 51.1499L48.8498 46.1499C48.3798 45.6799 47.6198 45.6799 47.1498 46.1499C46.6798 46.6199 46.6798 47.3799 47.1498 47.8499L52.1498 52.8499C52.3798 53.0799 52.6898 53.1999 52.9998 53.1999C53.3098 53.1999 53.6098 53.0799 53.8498 52.8499Z" fill="#43BCCD"/>
<path d="M50.9998 61.1999C51.3098 61.1999 51.6098 61.0799 51.8498 60.8499C52.3198 60.3799 52.3198 59.6199 51.8498 59.1499L39.8498 47.1499C39.3798 46.6799 38.6198 46.6799 38.1498 47.1499C37.6798 47.6199 37.6798 48.3799 38.1498 48.8499L50.1498 60.8499C50.3898 61.0799 50.6898 61.1999 50.9998 61.1999Z" fill="#43BCCD"/>
</g>
<line x1="78.1717" y1="81.0835" x2="89.0171" y2="86.7644" stroke="#2B4381" stroke-width="0.445435"/>
<line y1="-0.222718" x2="12.2432" y2="-0.222718" transform="matrix(-0.885832 0.464007 0.464007 0.885832 107.763 81.2808)" stroke="#2B4381" stroke-width="0.445435"/>
<line y1="-0.222718" x2="12.2432" y2="-0.222718" transform="matrix(0.885832 -0.464007 -0.464007 -0.885832 78.0684 97.4897)" stroke="#2B4381" stroke-width="0.445435"/>
<line x1="107.66" y1="97.687" x2="96.8143" y2="92.0061" stroke="#2B4381" stroke-width="0.445435"/>
<line x1="83.4899" y1="89.579" x2="90.4619" y2="89.579" stroke="#2B4381" stroke-width="0.445435"/>
<line y1="-0.222718" x2="6.97203" y2="-0.222718" transform="matrix(-1 8.74228e-08 8.74228e-08 1 102.341 89.8018)" stroke="#2B4381" stroke-width="0.445435"/>
<line x1="93.0091" y1="73.0161" x2="93.0091" y2="84.1197" stroke="#2B4381" stroke-width="0.445435"/>
<line y1="-0.222718" x2="11.1036" y2="-0.222718" transform="matrix(4.37114e-08 -1 -1 -4.37114e-08 92.7864 105.752)" stroke="#2B4381" stroke-width="0.445435"/>
<line x1="88.3268" y1="81.6775" x2="92.0173" y2="87.5586" stroke="#2B4381" stroke-width="0.445435"/>
<line y1="-0.222718" x2="6.94314" y2="-0.222718" transform="matrix(-0.531539 0.847034 0.847034 0.531539 97.6919 81.7959)" stroke="#2B4381" stroke-width="0.445435"/>
<line y1="-0.222718" x2="6.94314" y2="-0.222718" transform="matrix(0.531539 -0.847034 -0.847034 -0.531539 88.1381 96.9731)" stroke="#2B4381" stroke-width="0.445435"/>
<line x1="97.5033" y1="97.0915" x2="93.8127" y2="91.2105" stroke="#2B4381" stroke-width="0.445435"/>
<g opacity="0.8">
<line y1="-0.17069" x2="7.3483" y2="-0.17069" transform="matrix(-4.37114e-08 -1 -1 4.37114e-08 10.1275 19.9309)" stroke="#5078E7" stroke-width="0.341379"/>
<line y1="-0.17069" x2="7.3483" y2="-0.17069" transform="matrix(-4.37114e-08 -1 -1 4.37114e-08 10.1275 7.98242)" stroke="#5078E7" stroke-width="0.341379"/>
<line y1="-0.17069" x2="7.3483" y2="-0.17069" transform="matrix(-0.707107 -0.707107 -0.707107 0.707107 8.49594 8.21973)" stroke="#5078E7" stroke-width="0.341379"/>
<line x1="11.6002" y1="8.09903" x2="16.7963" y2="2.903" stroke="#5078E7" stroke-width="0.341379"/>
<line x1="8.61664" y1="12.0208" x2="3.4206" y2="17.2169" stroke="#5078E7" stroke-width="0.341379"/>
<line y1="-0.17069" x2="7.3483" y2="-0.17069" transform="matrix(0.707107 0.707107 0.707107 -0.707107 11.7209 11.9001)" stroke="#5078E7" stroke-width="0.341379"/>
<line x1="7.80334" y1="10.364" x2="0.455041" y2="10.364" stroke="#5078E7" stroke-width="0.341379"/>
<line y1="-0.17069" x2="7.3483" y2="-0.17069" transform="matrix(1 -8.74228e-08 -8.74228e-08 -1 12.4135 10.1934)" stroke="#5078E7" stroke-width="0.341379"/>
<circle cx="10.0901" cy="10.1549" r="1.1" stroke="#5078E7" stroke-width="0.341379"/>
</g>
<defs>
<clipPath id="clip0">
<rect width="38.4" height="38.4" fill="white" transform="translate(25.7998 38.7998)"/>
</clipPath>
</defs>
</svg>
