<svg width="108" height="106" viewBox="0 0 108 106" fill="none" xmlns="http://www.w3.org/2000/svg">
<line x1="78.1717" y1="81.0835" x2="89.0171" y2="86.7644" stroke="#2B4381" stroke-width="0.445435"/>
<line y1="-0.222718" x2="12.2432" y2="-0.222718" transform="matrix(-0.885832 0.464007 0.464007 0.885832 107.763 81.2808)" stroke="#2B4381" stroke-width="0.445435"/>
<line y1="-0.222718" x2="12.2432" y2="-0.222718" transform="matrix(0.885832 -0.464007 -0.464007 -0.885832 78.0684 97.4897)" stroke="#2B4381" stroke-width="0.445435"/>
<line x1="107.66" y1="97.687" x2="96.8143" y2="92.0061" stroke="#2B4381" stroke-width="0.445435"/>
<line x1="83.4899" y1="89.579" x2="90.462" y2="89.579" stroke="#2B4381" stroke-width="0.445435"/>
<line y1="-0.222718" x2="6.97203" y2="-0.222718" transform="matrix(-1 8.74228e-08 8.74228e-08 1 102.341 89.8018)" stroke="#2B4381" stroke-width="0.445435"/>
<line x1="93.0091" y1="73.0161" x2="93.0091" y2="84.1197" stroke="#2B4381" stroke-width="0.445435"/>
<line y1="-0.222718" x2="11.1036" y2="-0.222718" transform="matrix(4.37114e-08 -1 -1 -4.37114e-08 92.7864 105.752)" stroke="#2B4381" stroke-width="0.445435"/>
<line x1="88.3268" y1="81.6775" x2="92.0173" y2="87.5586" stroke="#2B4381" stroke-width="0.445435"/>
<line y1="-0.222718" x2="6.94314" y2="-0.222718" transform="matrix(-0.531539 0.847034 0.847034 0.531539 97.692 81.7959)" stroke="#2B4381" stroke-width="0.445435"/>
<line y1="-0.222718" x2="6.94314" y2="-0.222718" transform="matrix(0.531539 -0.847034 -0.847034 -0.531539 88.1381 96.9731)" stroke="#2B4381" stroke-width="0.445435"/>
<line x1="97.5033" y1="97.0915" x2="93.8128" y2="91.2105" stroke="#2B4381" stroke-width="0.445435"/>
<g opacity="0.8">
<line y1="-0.17069" x2="7.3483" y2="-0.17069" transform="matrix(-4.37114e-08 -1 -1 4.37114e-08 10.1276 19.9309)" stroke="#5078E7" stroke-width="0.341379"/>
<line y1="-0.17069" x2="7.3483" y2="-0.17069" transform="matrix(-4.37114e-08 -1 -1 4.37114e-08 10.1276 7.98242)" stroke="#5078E7" stroke-width="0.341379"/>
<line y1="-0.17069" x2="7.3483" y2="-0.17069" transform="matrix(-0.707107 -0.707107 -0.707107 0.707107 8.49591 8.21973)" stroke="#5078E7" stroke-width="0.341379"/>
<line x1="11.6002" y1="8.09903" x2="16.7962" y2="2.903" stroke="#5078E7" stroke-width="0.341379"/>
<line x1="8.61661" y1="12.0208" x2="3.42057" y2="17.2169" stroke="#5078E7" stroke-width="0.341379"/>
<line y1="-0.17069" x2="7.3483" y2="-0.17069" transform="matrix(0.707107 0.707107 0.707107 -0.707107 11.7209 11.9001)" stroke="#5078E7" stroke-width="0.341379"/>
<line x1="7.80334" y1="10.364" x2="0.455041" y2="10.364" stroke="#5078E7" stroke-width="0.341379"/>
<line y1="-0.17069" x2="7.3483" y2="-0.17069" transform="matrix(1 -8.74228e-08 -8.74228e-08 -1 12.4135 10.1934)" stroke="#5078E7" stroke-width="0.341379"/>
<circle cx="10.0902" cy="10.1549" r="1.1" stroke="#5078E7" stroke-width="0.341379"/>
</g>
<circle cx="45" cy="58" r="43" fill="#2B4381"/>
<g clip-path="url(#clip0)">
<path d="M51.5 58.03C51.73 58.27 52.04 58.4 52.36 58.4C52.39 58.4 52.42 58.4 52.44 58.4C52.8 58.37 53.12 58.19 53.33 57.91L57.67 51.91C58.06 51.37 57.94 50.62 57.4 50.23C56.86 49.84 56.11 49.96 55.72 50.5L52.23 55.34L50.56 53.61C50.1 53.13 49.34 53.12 48.86 53.58C48.38 54.04 48.37 54.8 48.83 55.28L51.5 58.03Z" fill="#43BCCD"/>
<path d="M55.2 70.16C54.54 70.16 54 70.7 54 71.36C54 72.82 52.82 74 51.36 74H33.04C31.58 74 30.4 72.82 30.4 71.36V70.4H50.2C50.86 70.4 51.4 69.86 51.4 69.2C51.4 68.54 50.86 68 50.2 68H30.4V46.4H38.2C38.86 46.4 39.4 45.86 39.4 45.2C39.4 44.54 38.86 44 38.2 44H30.4V43.04C30.4 41.58 31.58 40.4 33.04 40.4H51.36C52.35 40.4 53.24 40.94 53.7 41.82C54 42.41 54.73 42.64 55.32 42.33C55.91 42.03 56.14 41.3 55.83 40.71C54.96 39.04 53.25 38 51.36 38H33.04C30.26 38 28 40.26 28 43.04V71.36C28 74.14 30.26 76.4 33.04 76.4H51.36C54.14 76.4 56.4 74.14 56.4 71.36C56.4 70.7 55.86 70.16 55.2 70.16Z" fill="white"/>
<path d="M64.2 44H42.2C41.54 44 41 44.54 41 45.2V63.2C41 63.86 41.54 64.4 42.2 64.4H51.8L59.48 70.16C59.69 70.32 59.94 70.4 60.2 70.4C60.38 70.4 60.57 70.36 60.74 70.28C61.15 70.07 61.4 69.66 61.4 69.21V64.41H64.2C64.86 64.41 65.4 63.87 65.4 63.21V45.21C65.4 44.54 64.86 44 64.2 44ZM63 62H60.2C59.54 62 59 62.54 59 63.2V66.8L52.92 62.24C52.71 62.08 52.46 62 52.2 62H43.4V46.4H63V62Z" fill="#43BCCD"/>
</g>
<defs>
<clipPath id="clip0">
<rect width="37.4" height="38.4" fill="white" transform="translate(28 38)"/>
</clipPath>
</defs>
</svg>
