<svg width="108" height="106" viewBox="0 0 108 106" fill="none" xmlns="http://www.w3.org/2000/svg">
<line x1="78.1717" y1="81.0835" x2="89.0171" y2="86.7644" stroke="#2B4381" stroke-width="0.445435"/>
<line y1="-0.222718" x2="12.2432" y2="-0.222718" transform="matrix(-0.885832 0.464007 0.464007 0.885832 107.763 81.2808)" stroke="#2B4381" stroke-width="0.445435"/>
<line y1="-0.222718" x2="12.2432" y2="-0.222718" transform="matrix(0.885832 -0.464007 -0.464007 -0.885832 78.0684 97.4897)" stroke="#2B4381" stroke-width="0.445435"/>
<line x1="107.66" y1="97.687" x2="96.8143" y2="92.0061" stroke="#2B4381" stroke-width="0.445435"/>
<line x1="83.4899" y1="89.579" x2="90.462" y2="89.579" stroke="#2B4381" stroke-width="0.445435"/>
<line y1="-0.222718" x2="6.97203" y2="-0.222718" transform="matrix(-1 8.74228e-08 8.74228e-08 1 102.341 89.8018)" stroke="#2B4381" stroke-width="0.445435"/>
<line x1="93.0091" y1="73.0161" x2="93.0091" y2="84.1197" stroke="#2B4381" stroke-width="0.445435"/>
<line y1="-0.222718" x2="11.1036" y2="-0.222718" transform="matrix(4.37114e-08 -1 -1 -4.37114e-08 92.7864 105.752)" stroke="#2B4381" stroke-width="0.445435"/>
<line x1="88.3268" y1="81.6775" x2="92.0173" y2="87.5586" stroke="#2B4381" stroke-width="0.445435"/>
<line y1="-0.222718" x2="6.94314" y2="-0.222718" transform="matrix(-0.531539 0.847034 0.847034 0.531539 97.692 81.7959)" stroke="#2B4381" stroke-width="0.445435"/>
<line y1="-0.222718" x2="6.94314" y2="-0.222718" transform="matrix(0.531539 -0.847034 -0.847034 -0.531539 88.1381 96.9731)" stroke="#2B4381" stroke-width="0.445435"/>
<line x1="97.5033" y1="97.0915" x2="93.8128" y2="91.2105" stroke="#2B4381" stroke-width="0.445435"/>
<g opacity="0.8">
<line y1="-0.17069" x2="7.3483" y2="-0.17069" transform="matrix(-4.37114e-08 -1 -1 4.37114e-08 10.1276 19.9309)" stroke="#5078E7" stroke-width="0.341379"/>
<line y1="-0.17069" x2="7.3483" y2="-0.17069" transform="matrix(-4.37114e-08 -1 -1 4.37114e-08 10.1276 7.98242)" stroke="#5078E7" stroke-width="0.341379"/>
<line y1="-0.17069" x2="7.3483" y2="-0.17069" transform="matrix(-0.707107 -0.707107 -0.707107 0.707107 8.49591 8.21973)" stroke="#5078E7" stroke-width="0.341379"/>
<line x1="11.6002" y1="8.09903" x2="16.7962" y2="2.903" stroke="#5078E7" stroke-width="0.341379"/>
<line x1="8.61661" y1="12.0208" x2="3.42057" y2="17.2169" stroke="#5078E7" stroke-width="0.341379"/>
<line y1="-0.17069" x2="7.3483" y2="-0.17069" transform="matrix(0.707107 0.707107 0.707107 -0.707107 11.7209 11.9001)" stroke="#5078E7" stroke-width="0.341379"/>
<line x1="7.80334" y1="10.364" x2="0.455041" y2="10.364" stroke="#5078E7" stroke-width="0.341379"/>
<line y1="-0.17069" x2="7.3483" y2="-0.17069" transform="matrix(1 -8.74228e-08 -8.74228e-08 -1 12.4135 10.1934)" stroke="#5078E7" stroke-width="0.341379"/>
<circle cx="10.0902" cy="10.1549" r="1.1" stroke="#5078E7" stroke-width="0.341379"/>
</g>
<circle cx="45" cy="58" r="43" fill="#2B4381"/>
<g clip-path="url(#clip0)">
<path d="M45 41C33.5776 41 24.3184 48.3199 24.3184 57.3498C24.3184 63.2276 28.2419 68.378 34.1293 71.2601C33.6965 72.8758 32.5629 77.1111 32.3358 78.0175C32.0561 79.1425 32.7483 79.1275 33.2015 78.8243C33.5572 78.5875 38.8693 74.9768 41.1611 73.4179C42.405 73.6022 43.6875 73.6997 45 73.6997C56.4223 73.6997 65.6815 66.3787 65.6815 57.3498C65.6815 48.3199 56.4223 41 45 41Z" fill="white"/>
<path d="M36.6776 52.5347H30.6305C30.0616 52.5347 29.6019 52.9954 29.6019 53.5632C29.6019 54.1311 30.0626 54.5918 30.6305 54.5918H32.5965V61.8367C32.5965 62.1003 32.7037 62.3596 32.8923 62.5471C33.0765 62.7335 33.3348 62.8406 33.5994 62.8406H33.819C34.0826 62.8406 34.3397 62.7335 34.5251 62.5471C34.7137 62.3596 34.8208 62.1014 34.8208 61.8367V54.5918H36.6776C37.2465 54.5918 37.7072 54.1311 37.7072 53.5632C37.7072 52.9954 37.2465 52.5347 36.6776 52.5347Z" fill="#2B4381"/>
<path d="M51.2123 60.9058H48.3999V53.5066C48.3999 52.8894 47.9006 52.3901 47.2845 52.3901C46.6684 52.3901 46.1681 52.8894 46.1681 53.5066V61.4822C46.1681 61.5443 46.1756 61.6022 46.1852 61.6611C46.1745 61.719 46.1681 61.779 46.1681 61.839C46.1681 62.3554 46.5849 62.7732 47.1013 62.7732H51.2113C51.7288 62.7732 52.1445 62.3554 52.1445 61.839C52.1455 61.3236 51.7298 60.9058 51.2123 60.9058Z" fill="#2B4381"/>
<path d="M60.1993 61.2454L57.0654 57.129L59.8972 54.2962C60.2807 53.9137 60.2807 53.2912 59.8972 52.9076C59.5136 52.5241 58.8922 52.5241 58.5075 52.9076L55.0018 56.4133V53.5066C55.0018 52.8894 54.5026 52.3901 53.8865 52.3901C53.2704 52.3901 52.7701 52.8894 52.7701 53.5066V61.7276C52.7701 62.3447 53.2694 62.844 53.8865 62.844C54.5026 62.844 55.0018 62.3458 55.0018 61.7276V59.1915L55.6393 58.5551L58.604 62.4443C58.934 62.8847 59.5607 62.9758 60.0011 62.6425C60.4414 62.3115 60.5304 61.6858 60.1993 61.2454Z" fill="#2B4381"/>
<path d="M45.3333 61.5123L42.3194 53.2667C42.3194 53.2667 42.3119 53.2602 42.3098 53.257C42.1169 52.7545 41.5609 52.3892 40.8977 52.3892C40.1616 52.3892 39.553 52.8392 39.432 53.4274C39.4116 53.4713 39.3912 53.5152 39.3741 53.5624L36.4106 61.5123C36.2273 62.0341 36.5016 62.6041 37.0213 62.7873C37.542 62.9705 38.113 62.6962 38.2963 62.1755L38.8095 60.7119H42.9344L43.4466 62.1755C43.6298 62.6962 44.2008 62.9705 44.7216 62.7873C45.2412 62.6051 45.5166 62.0341 45.3333 61.5123ZM39.4641 58.8434L40.8505 54.8877C40.8666 54.8877 40.8795 54.892 40.8955 54.892L42.2809 58.8434H39.4641Z" fill="#2B4381"/>
</g>
<defs>
<clipPath id="clip0">
<rect width="41.3632" height="38" fill="white" transform="translate(24.3184 41)"/>
</clipPath>
</defs>
</svg>
