<svg width="83" height="97" viewBox="0 0 83 97" fill="none" xmlns="http://www.w3.org/2000/svg">
<g clip-path="url(#clip0_922_2972)">
<path d="M40.8501 0.17554L25.4142 5.03687C25.4142 5.03687 24.1627 5.31742 24.2014 6.0648C24.2014 6.0648 24.1263 6.6259 25.396 7.00071L32.6771 9.31916L30.2698 14.7057C30.2698 14.7057 27.9375 11.9945 24.4494 12.275C24.4494 12.275 20.6564 12.3491 18.7429 15.287C18.7429 15.287 15.2548 19.87 19.4437 25.1802C19.4437 25.1802 18.0398 27.9116 18.2878 33.3902C18.2878 33.3902 14.3537 36.5413 15.7189 42.7986C15.7189 42.7986 16.7701 47.624 22.7725 51.9176L23.1138 52.647C23.1138 52.647 21.2662 52.2811 16.9613 54.0968L16.4493 54.2652L15.5392 53.7422C15.5392 53.7422 14.1558 51.5921 13.8145 51.1432C13.8145 51.1432 12.6381 49.1233 10.8565 49.2355C10.8565 49.2355 8.77004 49.0851 7.8417 52.4899C7.8417 52.4899 3.57543 51.1814 1.9076 53.2372C1.9076 53.2372 0.296655 55.1831 1.9076 56.9225C1.9076 56.9225 -0.122008 57.634 0.012237 59.8021C0.012237 59.8021 0.164685 61.3911 1.77563 62.4392C1.77563 62.4392 0.392219 65.5432 4.97931 67.2467C4.97931 67.2467 11.389 69.004 15.9578 66.6676C15.9578 66.6676 21.1729 67.323 25.1161 66.8741C25.1161 66.8741 25.6281 71.2327 28.4904 76.4307C28.4904 76.4307 26.8408 76.5048 26.2902 77.2544C26.2902 77.2544 22.9158 71.9532 18.0239 72.7095C18.0239 72.7095 13.9282 73.4098 14.554 78.3766C14.554 78.3766 16.0329 86.4272 24.7634 93.5531C24.7634 93.5531 26.6975 95.095 28.7453 94.8144C28.7453 94.8144 31.4757 94.5339 33.2664 91.1404C33.2664 91.1404 34.1196 89.6546 34.2607 85.9222C34.2607 85.9222 38.0059 83.7631 40.9821 83.8753C40.9821 83.8753 43.2187 83.8192 44.8502 84.6429C44.8502 84.6429 45.5146 85.0918 46.0629 85.7471C46.0629 85.7471 48.2427 88.0476 52.0357 88.8713C52.0357 88.8713 56.6433 90.2179 61.3464 88.6087C61.3464 88.6087 58.5022 93.378 60.3794 96.0331C60.3794 96.0331 61.442 97.9588 65.6696 96.3878C65.6696 96.3878 72.0314 94.2848 74.5616 88.5055C74.5616 88.5055 76.6663 83.7092 73.5377 79.8377C73.5377 79.8377 71.1213 76.3028 68.1338 78.0983C68.1338 78.0983 66.2293 79.2205 65.7446 80.2574C65.7446 80.2574 63.2145 80.621 61.6217 79.2474L61.7355 78.1252C61.7355 78.1252 66.1155 77.7055 68.5319 77.0591C68.5319 77.0591 70.2203 76.7135 70.2953 76.0581C70.2953 76.0581 70.4842 75.5711 69.6878 74.918C69.6878 74.918 67.5444 72.898 67.26 72.3931C67.26 72.3931 67.9995 71.9823 68.3408 71.5896C68.3408 71.5896 69.0621 72.9362 70.9575 72.9923C70.9575 72.9923 72.5115 73.1225 73.763 70.8601C73.763 70.8601 74.9393 72.9182 77.2715 72.3751C77.2715 72.3751 79.358 72.0003 80.0202 69.0467C80.0202 69.0467 80.5321 66.9325 79.3762 65.3255C79.3762 65.3255 82.903 64.3155 82.9986 61.2475C82.9986 61.2475 82.9986 59.6023 81.1032 59.021C81.1032 59.021 79.3398 58.534 76.325 59.0592C76.325 59.0592 75.5468 58.9088 75.1486 58.6485C75.1486 58.6485 71.2806 56.4602 69.0234 54.4021C69.0234 54.4021 69.1941 53.9353 68.5501 53.2799C68.5501 53.2799 64.1519 49.9313 61.4966 48.9595C61.4966 48.9595 68.6457 41.3285 64.8527 29.3211C64.8527 29.3211 69.5172 26.4775 68.9097 21.5039C68.9097 21.5039 68.4933 14.7326 62.0836 13.7226C62.0836 13.7226 58.1018 12.9371 54.6501 15.3678L51.0095 9.12165L58.3293 6.8032C58.3293 6.8032 58.9459 6.61692 59.0301 5.97054C59.0301 5.97054 59.0574 5.40944 58.0358 5.10196L42.452 0.17554C42.452 0.17554 41.7785 -0.217227 40.8501 0.17554Z" fill="#111111"/>
<path d="M41.4993 1.70801L28.0293 5.97234L41.4993 10.3489L55.3721 6.02845L41.7018 1.70801H41.4993Z" fill="#B1B0B2"/>
<path d="M42.8774 5.87166C42.8774 6.23974 42.3427 6.53824 41.6828 6.53824C41.023 6.53824 40.4883 6.23974 40.4883 5.87166C40.4883 5.50358 41.023 5.20508 41.6828 5.20508C42.3427 5.20508 42.8774 5.50358 42.8774 5.87166Z" fill="white"/>
<path d="M34.422 9.82615L32.2422 14.7818C32.2422 14.7818 37.4573 12.9683 42.2537 12.9122C42.2537 12.9122 47.4688 12.5576 52.0764 14.5955L49.1753 9.67578L41.8191 12.1064L34.4242 9.82391L34.422 9.82615Z" fill="#B1B0B2"/>
<path d="M20.494 23.5255C20.494 23.5255 22.94 18.8123 29.0539 16.0921C29.0539 16.0921 25.1289 11.8143 20.9764 15.4749C20.9764 15.4749 17.3086 19.1781 20.494 23.5255Z" fill="#C98020"/>
<path d="M20.1528 31.9421C20.1528 31.9421 19.4998 25.3212 24.7604 20.8885C24.7604 20.8885 27.1199 18.2424 34.1166 16.0362C34.1166 16.0362 42.0689 13.0175 50.5832 15.897C50.5832 15.897 52.829 16.7948 53.6823 17.3559C53.6823 17.3559 54.2784 17.8609 55.0179 17.2998C55.0179 17.2998 57.5208 14.9162 61.5026 15.4482C61.5026 15.4482 66.0533 15.897 66.9634 20.9738C66.9634 20.9738 67.7871 25.3773 64.0055 27.7339C64.0055 27.7339 63.6938 27.9494 63.2751 28.1738C63.2751 28.1738 62.5743 28.3601 62.9156 29.3903C62.9156 29.3903 64.5652 33.3179 64.1102 37.7124C64.1102 37.7124 63.332 45.5498 59.3706 48.3912C59.3706 48.3912 50.1873 48.2139 41.4978 52.1416C41.4978 52.1416 44.9791 50.0947 45.7481 45.3815C45.7481 45.3815 47.2021 39.3217 41.4978 34.6354C41.4978 34.6354 36.6741 30.1197 27.7729 29.8661C27.7729 29.8661 23.3929 29.7539 20.1505 31.9421" fill="#C98020"/>
<path d="M26.608 26.6116L28.7127 27.1166C28.7127 27.1166 28.1734 24.3672 29.9345 24.1428C29.9345 24.1428 31.2429 24.0867 31.1291 26.9752L33.1769 26.4702C33.1769 26.4702 33.0358 22.0577 29.8913 22.0196C29.8913 22.0196 27.0335 21.5617 26.6057 26.6116" fill="#111111"/>
<path d="M35.7949 25.9653L37.8427 26.5264C37.8427 26.5264 37.4241 23.272 39.324 23.694C39.324 23.694 40.7711 24.3112 40.0043 27.1166L42.0225 27.6777C42.0225 27.6777 43.3582 23.5548 40.0612 21.7032C40.0612 21.7032 38.0134 20.6932 36.5913 22.9937C36.5913 22.9937 36.0225 23.8062 35.7949 25.9675" fill="#111111"/>
<path d="M33.7557 32.6089C40.964 34.7725 45.476 40.4934 43.699 46.3154C42.3861 50.6179 34.9571 54.6196 27.7647 52.3954C20.5746 50.1712 15.7145 42.8007 17.7919 37.5443C17.7919 37.5443 20.5564 28.6453 33.7557 32.6089" fill="#E6CDB6"/>
<path d="M26.0647 45.8012C26.0647 45.8012 31.0181 47.1747 35.8259 45.2401C35.8259 45.2401 39.0387 43.8934 39.8351 40.4708L38.6701 40.2755C38.6701 40.2755 37.4755 39.8827 37.8737 38.8728C37.8737 38.8728 37.8737 37.9189 39.6371 38.2847C39.6371 38.2847 43.76 38.985 43.4483 41.1463C43.4483 41.1463 42.909 42.3807 41.8556 41.7074L41.76 41.6984C41.76 41.6984 41.2662 43.054 40.281 44.4097C40.281 44.4097 39.0478 46.654 34.4402 47.9064C34.4402 47.9064 30.7246 48.9725 24.5243 47.682L23.8417 47.5136C23.8417 47.5136 22.8928 47.3072 22.9497 46.2972C22.9497 46.2972 23.1386 45.3433 24.0692 45.4376C24.0692 45.4376 25.7143 45.7181 26.0647 45.8012" fill="#111111"/>
<path d="M25.7188 53.4053C25.7188 53.4053 28.8656 55.8 36.6791 54.1167C36.6791 54.1167 34.4788 55.0886 33.0385 56.2871C33.0385 56.2871 26.5538 55.2389 25.7188 53.4075" fill="#C98020"/>
<path d="M28.3717 57.0322C28.3717 57.0322 30.0395 57.7055 30.9497 57.7055C30.9497 57.7055 29.2045 58.7537 28.7494 59.6133C28.7494 59.6133 28.333 57.5933 28.3694 57.0322" fill="#B1B0B2"/>
<path d="M26.5505 56.5476C26.5505 56.5476 23.7814 54.7521 23.4037 54.4536C23.4037 54.4536 20.1432 54.7162 19.4219 55.5017C19.4219 55.5017 20.4458 62.6837 31.1968 66.5373C31.1968 66.5373 35.0831 63.3571 48.7351 58.682C48.7351 58.682 60.2643 54.9788 65.9891 53.6703C65.9891 53.6703 61.2495 50.3778 59.8456 50.1915C59.8456 50.1915 49.4678 50.1174 41.4973 54.007C41.4973 54.007 32.1615 57.6361 29.4698 61.3394C29.4698 61.3394 28.6734 62.163 27.9157 61.189C27.9157 61.189 26.6256 60.2912 26.5505 56.5498" fill="#FFE596"/>
<path d="M17.6015 55.7614C17.6015 55.7614 18.4365 60.4006 24.2387 65.1138C24.2387 65.1138 18.9667 65.5627 15.4786 64.8153C15.4786 64.8153 13.383 66.3123 9.40113 66.0878C9.40113 66.0878 3.88342 66.0878 3.34417 63.5921C3.34417 63.5921 3.03245 62.2455 6.07458 62.1624C6.07458 62.1624 1.86519 61.5452 1.83789 59.413C1.83789 59.413 2.00854 57.7028 6.61611 58.6006C6.61611 58.6006 2.20877 56.3293 3.11891 54.5607C3.11891 54.5607 4.227 52.653 9.91536 55.1218C9.91536 55.1218 9.06211 53.719 9.80159 52.3163C9.80159 52.3163 10.2567 50.9136 11.053 50.9989C11.053 50.9989 11.7356 51.1111 12.4751 52.3724C12.4751 52.3724 14.1247 55.0657 14.6071 55.317C14.6071 55.317 15.9427 56.1856 16.3978 56.1587L17.6015 55.7659V55.7614Z" fill="#B1B0B2"/>
<path d="M26.9228 66.7027C26.9228 66.7027 27.6009 70.6573 28.37 71.6112C28.37 71.6112 39.9765 74.0239 43.5033 74.7242C43.5033 74.7242 52.5182 76.4635 56.5569 76.4635C56.5569 76.4635 64.2931 76.6319 67.5923 75.3705C67.5923 75.3705 63.0417 71.7234 63.8949 66.7027C63.8949 66.7027 60.8528 66.1977 57.5808 62.3262C57.5808 62.3262 57.2122 61.5406 57.8357 61.1771C57.8357 61.1771 58.3476 60.7843 58.8869 61.3162C58.8869 61.3162 60.9051 63.785 63.3807 64.8219C63.3807 64.8219 64.4046 65.1586 64.8596 65.2977C64.8596 65.2977 66.0815 65.5783 65.5696 66.7835C65.5696 66.7835 65.0189 69.4296 66.1384 70.9065C66.1384 70.9065 67.0485 70.6439 67.1236 70.0087V69.7461C67.1236 69.7461 66.5935 68.2693 67.2192 67.5578C67.2192 67.5578 67.9405 66.5479 69.0781 67.688C69.0781 67.688 69.5514 68.175 69.6083 69.7461C69.6083 69.7461 69.7789 71.187 70.7642 71.2431C70.7642 71.2431 72.1863 71.169 72.5662 68.3075C72.5662 68.3075 72.5094 66.7745 73.5902 66.9047C73.5902 66.9047 74.4047 66.7184 74.6323 68.2895C74.6323 68.2895 75.0691 70.6843 76.5663 70.7202C76.5663 70.7202 78.2341 70.682 78.3297 67.6162C78.3297 67.6162 78.291 66.3077 77.192 65.5401C77.192 65.5401 76.7369 65.2977 76.812 64.6603C76.812 64.6603 76.812 64.0813 77.704 63.8928C77.704 63.8928 81.0783 63.3317 81.1352 61.2736C81.1352 61.2736 81.3058 60.6945 79.9224 60.5823C79.9224 60.5823 77.0396 60.6384 76.5094 60.8067C76.5094 60.8067 75.2967 60.901 74.4047 60.2838C74.4047 60.2838 71.7494 58.9192 68.3364 56.1496L67.2556 55.29C67.2556 55.29 62.8756 56.2259 60.6389 56.8993C60.6389 56.8993 50.93 59.817 48.1245 60.7888C48.1245 60.7888 37.2119 64.7905 34.4246 66.5299C34.4246 66.5299 32.4337 67.8204 31.9787 68.1571C31.9787 68.1571 31.3256 68.5768 30.4428 68.184L26.916 66.6982L26.9228 66.7027Z" fill="#B1B0B2"/>
<path d="M29.4346 78.2053C29.4346 78.2053 27.7099 78.019 26.9226 78.9526C26.9226 78.9526 26.8953 79.8122 26.0216 79.8122C26.0216 79.8122 25.2639 79.7606 25.1115 78.9998C25.1115 78.9998 23.2525 74.7242 18.7018 74.4639C18.7018 74.4639 15.7439 74.5379 16.4265 78.3534C16.4265 78.3534 18.6449 87.5554 26.9204 92.7556C26.9204 92.7556 28.7111 94.1022 30.9113 91.6716C30.9113 91.6716 32.5792 89.7638 32.429 85.201C32.429 85.201 32.9227 84.191 35.0843 83.4796C35.0843 83.4796 39.5599 81.4215 43.3506 82.2833C43.3506 82.2833 45.2847 82.62 46.9161 84.117C46.9161 84.117 51.8832 89.1287 59.8856 87.2591C59.8856 87.2591 62.1609 86.5858 63.8492 85.6701C63.8492 85.6701 64.7389 84.8082 65.2053 85.1943C65.2053 85.1943 66.1996 85.587 65.5739 86.5678C65.5739 86.5678 63.7263 88.3072 62.8435 89.6808C62.8435 89.6808 60.4362 93.7117 62.1609 95.2267C62.1609 95.2267 62.5773 95.4893 64.7957 94.7958C64.7957 94.7958 71.7924 92.5895 73.2145 86.698C73.2145 86.698 74.1065 82.5639 71.6218 80.3397C71.6218 80.3397 70.161 78.7125 68.8345 79.8167C68.8345 79.8167 67.5444 80.7526 66.9004 81.7245C66.9004 81.7245 66.616 82.1352 65.137 82.0993C65.137 82.0993 61.7422 82.0993 60.3975 80.5843C60.3975 80.5843 59.4487 79.7988 59.8856 78.2277C59.8856 78.2277 52.6613 78.5262 46.3086 77.0876C46.3086 77.0876 30.5131 73.9836 29.2048 73.5908C29.2048 73.5908 30.0399 75.9856 31.6326 78.0235C31.6326 78.0235 33.1867 79.8369 34.0399 80.1736C34.0399 80.1736 34.3425 80.3599 34.6838 80.3599C34.6838 80.3599 35.4802 80.5103 35.2709 81.3878C35.2709 81.3878 34.9865 82.5661 33.735 81.9489C33.735 81.9489 31.8761 81.0893 30.5313 79.4801C30.5313 79.4801 29.9238 78.7125 29.603 78.3018L29.4324 78.2075L29.4346 78.2053Z" fill="#C98020"/>
<path d="M30.1725 34.5146C30.7914 36.2742 29.3671 38.3592 26.9939 39.1717C24.6207 39.9819 22.1952 39.2143 21.5763 37.4525C20.9574 35.6929 22.3818 33.6078 24.7549 32.7954C27.1281 31.9851 29.5536 32.7527 30.1725 34.5146Z" fill="#111111"/>
<path d="M28.5359 34.1869C28.702 34.656 28.2901 35.2238 27.6166 35.4528C26.9454 35.6817 26.2651 35.4887 26.1013 35.0173C25.9352 34.5483 26.347 33.9804 27.0205 33.7515C27.694 33.5226 28.372 33.7156 28.5359 34.1869Z" fill="white"/>
<path d="M57.4033 21.1395C57.4033 21.1395 59.1485 23.2896 59.9813 24.8046C59.9813 24.8046 60.1338 25.1031 60.1906 25.2153C60.1906 25.2153 60.3863 25.7383 60.896 25.7944C60.896 25.7944 62.6184 25.8886 63.9268 23.4669C63.9268 23.4669 64.9507 21.0834 63.3397 19.3058C63.3397 19.3058 61.8039 17.4542 59.3761 18.6325C59.3761 18.6325 57.4238 19.5482 57.2327 20.446C57.2327 20.446 57.0052 20.8208 57.4033 21.1373" fill="#111111"/>
<path d="M59.3728 20.7202C59.3728 20.7202 60.9928 22.8793 61.3637 23.694C61.3637 23.694 62.9565 23.0297 62.217 20.8975C62.217 20.8975 61.5162 19.0638 59.3728 20.7202" fill="white"/>
</g>
<defs>
<clipPath id="clip0_922_2972">
<rect width="83" height="97" fill="white"/>
</clipPath>
</defs>
</svg>
