<?xml version="1.0" encoding="utf-8"?>
<!-- Generator: Adobe Illustrator 24.0.1, SVG Export Plug-In . SVG Version: 6.00 Build 0)  -->
<svg version="1.1" xmlns="http://www.w3.org/2000/svg" xmlns:xlink="http://www.w3.org/1999/xlink" x="0px" y="0px"
	 viewBox="0 0 11.66 9.39" style="enable-background:new 0 0 11.66 9.39;" xml:space="preserve">
<style type="text/css">
	.st0{clip-path:url(#SVGID_2_);}
	.st1{clip-path:url(#SVGID_4_);}
	.st2{opacity:0.15;clip-path:url(#SVGID_8_);}
	.st3{clip-path:url(#SVGID_10_);}
	.st4{clip-path:url(#SVGID_12_);}
	.st5{clip-path:url(#SVGID_16_);}
	.st6{opacity:0.4;clip-path:url(#SVGID_18_);}
	.st7{clip-path:url(#SVGID_20_);}
	.st8{clip-path:url(#SVGID_24_);fill:none;stroke:#6E7173;stroke-linecap:round;stroke-linejoin:round;stroke-miterlimit:10;}
	.st9{fill:#EAEFF0;stroke:#FF6793;stroke-width:6;stroke-miterlimit:10;}
	.st10{fill:none;stroke:#6E7173;stroke-width:2;stroke-miterlimit:10;}
	.st11{fill:#EAEFF0;stroke:#5889FF;stroke-width:6;stroke-linecap:square;stroke-miterlimit:10;}
	.st12{fill:none;stroke:#5889FF;stroke-width:6;stroke-miterlimit:10;}
	.st13{fill:none;stroke:#FF6793;stroke-width:6;stroke-linecap:square;stroke-miterlimit:10;}
	.st14{fill:#EAEFF0;stroke:#5889FF;stroke-width:6;stroke-miterlimit:10;}
	.st15{fill:#EAEFF0;stroke:#FF6793;stroke-width:6;stroke-linecap:square;stroke-miterlimit:10;}
	.st16{fill:#FFDD60;}
	.st17{fill:#6E7173;}
	.st18{fill:#515151;}
	.st19{fill:url(#SVGID_25_);}
	.st20{fill:none;stroke:#FFD400;stroke-width:4;}
	.st21{fill:none;}
	.st22{fill:#FFD400;}
	.st23{fill:#444444;}
	.st24{fill:#2FA783;}
	.st25{fill:#424242;}
	.st26{fill:none;stroke:#444444;stroke-miterlimit:10;}
	.st27{fill:none;stroke:#444444;stroke-width:0.5;stroke-miterlimit:10;}
</style>
<g id="Layer_1">
	<g>
		<defs>
			<rect id="SVGID_1_" x="97.81" y="-38.35" width="24" height="24"/>
		</defs>
		<clipPath id="SVGID_2_">
			<use xlink:href="#SVGID_1_"  style="overflow:visible;"/>
		</clipPath>
		<g class="st0">
			<defs>
				<rect id="SVGID_3_" x="97.81" y="-38.35" width="24" height="24"/>
			</defs>
			<clipPath id="SVGID_4_">
				<use xlink:href="#SVGID_3_"  style="overflow:visible;"/>
			</clipPath>
			<g class="st1">
				<defs>
					<rect id="SVGID_5_" x="97.81" y="-38.35" width="24" height="24"/>
				</defs>
				<clipPath id="SVGID_6_">
					<use xlink:href="#SVGID_5_"  style="overflow:visible;"/>
				</clipPath>
			</g>
		</g>
		<g class="st0">
			<defs>
				<rect id="SVGID_7_" x="97.81" y="-38.35" width="24" height="24"/>
			</defs>
			<clipPath id="SVGID_8_">
				<use xlink:href="#SVGID_7_"  style="overflow:visible;"/>
			</clipPath>
			<g class="st2">
				<g>
					<defs>
						<rect id="SVGID_9_" x="97.81" y="-38.35" width="24" height="24"/>
					</defs>
					<clipPath id="SVGID_10_">
						<use xlink:href="#SVGID_9_"  style="overflow:visible;"/>
					</clipPath>
					<g class="st3">
						<defs>
							<rect id="SVGID_11_" x="97.81" y="-38.35" width="24" height="24"/>
						</defs>
						<clipPath id="SVGID_12_">
							<use xlink:href="#SVGID_11_"  style="overflow:visible;"/>
						</clipPath>
						<g class="st4">
							<defs>
								<rect id="SVGID_13_" x="97.81" y="-38.35" width="24" height="24"/>
							</defs>
							<clipPath id="SVGID_14_">
								<use xlink:href="#SVGID_13_"  style="overflow:visible;"/>
							</clipPath>
						</g>
					</g>
				</g>
			</g>
		</g>
		<g class="st0">
			<defs>
				<rect id="SVGID_15_" x="97.81" y="-38.35" width="24" height="24"/>
			</defs>
			<clipPath id="SVGID_16_">
				<use xlink:href="#SVGID_15_"  style="overflow:visible;"/>
			</clipPath>
			<g class="st5">
				<defs>
					<rect id="SVGID_17_" x="97.81" y="-38.35" width="24" height="24"/>
				</defs>
				<clipPath id="SVGID_18_">
					<use xlink:href="#SVGID_17_"  style="overflow:visible;"/>
				</clipPath>
				<g class="st6">
					<g>
						<defs>
							<rect id="SVGID_19_" x="97.81" y="-38.35" width="24" height="24"/>
						</defs>
						<clipPath id="SVGID_20_">
							<use xlink:href="#SVGID_19_"  style="overflow:visible;"/>
						</clipPath>
						<g class="st7">
							<defs>
								<rect id="SVGID_21_" x="97.81" y="-38.35" width="24" height="24"/>
							</defs>
							<clipPath id="SVGID_22_">
								<use xlink:href="#SVGID_21_"  style="overflow:visible;"/>
							</clipPath>
						</g>
					</g>
				</g>
			</g>
		</g>
		<g class="st0">
			<defs>
				<rect id="SVGID_23_" x="97.81" y="-38.35" width="24" height="24"/>
			</defs>
			<clipPath id="SVGID_24_">
				<use xlink:href="#SVGID_23_"  style="overflow:visible;"/>
			</clipPath>
			<path class="st8" d="M109.84-34.39c-0.04,0-0.08,0-0.12,0c-4.98,0-9.02,4.04-9.02,9.03c0,4.98,4.04,9.02,9.02,9.02
				c4.99,0,9.03-4.04,9.03-9.02c0-0.02,0-0.04,0-0.06h-8.9V-34.39z"/>
			<path class="st8" d="M111.94-35.35v8.05h8C119.91-31.71,116.35-35.29,111.94-35.35z"/>
		</g>
	</g>
	<polyline class="st9" points="142.8,-57.21 117.93,-57.21 117.93,-82.69 203.11,-82.69 203.11,-57.21 179.8,-57.21 	"/>
	<path class="st10" d="M186.06-22.55c2.13,2.13,2.13,5.57,0,7.69c-2.13,2.12-5.57,2.12-7.69,0c-2.13-2.13-2.13-5.57,0-7.69
		C180.49-24.67,183.93-24.67,186.06-22.55z"/>
	<line class="st10" x1="186.06" y1="-14.85" x2="193" y2="-7.91"/>
	<line class="st11" x1="126.3" y1="-74.7" x2="126.3" y2="-65.2"/>
	<g>
		<path class="st12" d="M-61.81-175.95h-65.16c-10.99,0-19.9-8.91-19.9-19.9v-54.77h85.06V-175.95z"/>
		<line class="st9" x1="-132.17" y1="-259.45" x2="-132.17" y2="-242.21"/>
		<line class="st9" x1="-113.61" y1="-259.45" x2="-113.61" y2="-242.21"/>
		<line class="st9" x1="-95.06" y1="-259.45" x2="-95.06" y2="-242.21"/>
		<line class="st9" x1="-76.5" y1="-259.45" x2="-76.5" y2="-242.21"/>
		<rect x="-131.99" y="-225.7" class="st12" width="4.75" height="4.75"/>
		<rect x="-115.14" y="-225.7" class="st12" width="4.75" height="4.75"/>
		<rect x="-98.28" y="-225.7" class="st12" width="4.75" height="4.75"/>
		<rect x="-81.43" y="-225.7" class="st12" width="4.75" height="4.75"/>
		<rect x="-131.99" y="-204.45" class="st12" width="4.75" height="4.75"/>
		<rect x="-115.14" y="-204.45" class="st12" width="4.75" height="4.75"/>
		<rect x="-98.28" y="-204.45" class="st9" width="4.75" height="4.75"/>
		<rect x="-81.43" y="-204.45" class="st12" width="4.75" height="4.75"/>
	</g>
	
		<ellipse transform="matrix(0.0333 -0.9994 0.9994 0.0333 -79.601 -150.6158)" class="st12" cx="-117.66" cy="-34.16" rx="30.09" ry="30.09"/>
	<path class="st13" d="M-130.29-46.68c3.22-3.25,7.69-5.26,12.63-5.26c9.82,0,17.78,7.96,17.78,17.78"/>
	<polyline class="st14" points="-88.69,172.57 -62.62,172.5 -62.62,130.37 -126.06,130.37 -126.06,148.42 	"/>
	<line class="st12" x1="-90" y1="-8.79" x2="-60.93" y2="20.29"/>
	<polygon class="st15" points="-83.68,148.42 -147.12,148.42 -147.12,190.55 -132.33,190.55 -135.63,208.06 -112.56,190.55 
		-83.68,190.55 	"/>
	<path class="st14" d="M-130.01,169.85c0,1.5-1.22,2.72-2.72,2.72c-1.5,0-2.72-1.22-2.72-2.72c0-1.5,1.22-2.72,2.72-2.72
		C-131.23,167.13-130.01,168.35-130.01,169.85z"/>
	<path class="st14" d="M-112.68,169.85c0,1.5-1.22,2.72-2.72,2.72c-1.5,0-2.72-1.22-2.72-2.72c0-1.5,1.22-2.72,2.72-2.72
		C-113.9,167.13-112.68,168.35-112.68,169.85z"/>
	<path class="st14" d="M-95.35,169.85c0,1.5-1.22,2.72-2.72,2.72c-1.5,0-2.72-1.22-2.72-2.72c0-1.5,1.22-2.72,2.72-2.72
		C-96.56,167.13-95.35,168.35-95.35,169.85z"/>
	<path class="st16" d="M453.28,175.4v-15.61l-34.19,24.87l34.19,24.88v-13.83c20.47,4.45,35.34,22.52,35.34,44
		c0,24.84-20.21,45.05-45.05,45.05c-23.54,0-43.27-18.36-44.94-41.81c-0.08-1.07-0.11-2.16-0.11-3.24h-19.98
		c0,1.55,0.05,3.11,0.16,4.65c2.4,33.86,30.89,60.38,64.86,60.38c35.86,0,65.03-29.17,65.03-65.03
		C508.6,207.22,485.04,180.12,453.28,175.4z"/>
	<g>
		<path class="st17" d="M69.14-53.3c-3.21,0-5.82-2.75-5.82-6.13c0-0.01,0-0.02,0-0.03h2.06l-3.63-4.93l-3.63,4.93h1.68
			c0,0.01,0,0.02,0,0.03c0,5.42,4.19,9.82,9.33,9.82c2.12,0,4.12-0.73,5.78-2.11l-2.18-2.9C71.71-53.75,70.46-53.3,69.14-53.3z"/>
		<path class="st17" d="M78.54-59.15c0-0.01,0-0.02,0-0.03c0-5.42-4.19-9.82-9.33-9.82c-2.12,0-4.12,0.73-5.78,2.11l2.18,2.9
			c1.03-0.86,2.28-1.32,3.6-1.32c3.21,0,5.82,2.75,5.82,6.13c0,0.01,0,0.02,0,0.03h-2.06l3.63,4.93l3.63-4.93H78.54z"/>
	</g>
	<path class="st17" d="M142.66-25.23c2.22-1.7,3.6-4.38,3.6-7.26c0-5.03-4.09-9.12-9.12-9.12c-5.03,0-9.12,4.09-9.12,9.12
		c0,4.19,2.84,7.83,6.9,8.85c0.09,0.02,0.18,0.03,0.27,0.03c0.5,0,0.95-0.34,1.08-0.84c0.15-0.6-0.21-1.2-0.81-1.35
		c-3.07-0.77-5.21-3.52-5.21-6.69c0-3.8,3.09-6.9,6.9-6.9c3.8,0,6.9,3.09,6.9,6.9c0,2.28-1.15,4.39-2.97,5.67l-1.42-1.42
		c-0.16-0.16-0.4-0.21-0.61-0.12c-0.21,0.09-0.34,0.29-0.34,0.51v4.27c0,0.31,0.25,0.56,0.56,0.56h4.27c0.23,0,0.43-0.14,0.51-0.35
		c0.09-0.21,0.04-0.45-0.12-0.61L142.66-25.23z"/>
	<path class="st18" d="M367.02-12.34H348.8c-3.25,0-5.89-2.64-5.89-5.88v-38.01c0-3.25,2.64-5.88,5.89-5.88h18.23
		c3.24,0,5.88,2.64,5.88,5.88v38.01C372.91-14.98,370.27-12.34,367.02-12.34z M350.91-20.34h14v-33.78h-14V-20.34z"/>
	<path class="st18" d="M405.12-12.34h-17.64c-3.4,0-6.17-2.77-6.17-6.18v-68.35c0-3.41,2.77-6.18,6.17-6.18h17.64
		c3.41,0,6.18,2.77,6.18,6.18v68.35C411.3-15.11,408.52-12.34,405.12-12.34z M389.3-20.34h13.99v-64.7H389.3V-20.34z"/>
	<path class="st18" d="M443.44-12.34h-17.52c-3.44,0-6.24-2.8-6.24-6.24v-91.34c0-3.44,2.8-6.24,6.24-6.24h17.52
		c3.44,0,6.24,2.8,6.24,6.24v32.49h-8v-30.73h-13.99v87.82h13.99v-17.93h8v19.69C449.68-15.14,446.88-12.34,443.44-12.34z"/>
	<linearGradient id="SVGID_25_" gradientUnits="userSpaceOnUse" x1="130.3394" y1="14.1914" x2="180.5069" y2="14.1914">
		<stop  offset="0" style="stop-color:#F25838"/>
		<stop  offset="0.2126" style="stop-color:#ED4B30"/>
		<stop  offset="0.6063" style="stop-color:#DE291A"/>
		<stop  offset="1" style="stop-color:#CD0000"/>
	</linearGradient>
	<path class="st19" d="M179.52,34.32L172.05,26c3.3-4.05,5.29-9.21,5.29-14.83c0-12.96-10.54-23.5-23.5-23.5
		c-12.96,0-23.51,10.54-23.51,23.5c0,12.96,10.54,23.5,23.51,23.5c4.57,0,8.84-1.32,12.45-3.59l7.52,8.37
		c0.76,0.84,1.8,1.28,2.86,1.28c0.91,0,1.83-0.33,2.56-0.98C180.81,38.32,180.94,35.9,179.52,34.32z M139.03,11.16
		c0-8.17,6.65-14.81,14.82-14.81c8.17,0,14.81,6.64,14.81,14.81c0,8.04-6.85,14.81-14.81,14.81
		C145.67,25.97,139.03,19.33,139.03,11.16z"/>
	<g>
		<g>
			<path class="st17" d="M28.35-0.49H16.62c-0.23,0-0.41-0.18-0.41-0.41c0-0.23,0.18-0.41,0.41-0.41h11.73
				c0.23,0,0.41,0.18,0.41,0.41C28.76-0.68,28.58-0.49,28.35-0.49z"/>
		</g>
		<path class="st17" d="M19.52,1.77h-0.77c-0.17,0-0.31-0.14-0.31-0.31V0.69c0-0.17,0.14-0.31,0.31-0.31h0.77
			c0.17,0,0.31,0.14,0.31,0.31v0.77C19.83,1.63,19.7,1.77,19.52,1.77z"/>
		<path class="st17" d="M22.87,1.77H22.1c-0.17,0-0.31-0.14-0.31-0.31V0.69c0-0.17,0.14-0.31,0.31-0.31h0.77
			c0.17,0,0.31,0.14,0.31,0.31v0.77C23.18,1.63,23.04,1.77,22.87,1.77z"/>
		<path class="st17" d="M26.22,1.77h-0.77c-0.17,0-0.31-0.14-0.31-0.31V0.69c0-0.17,0.14-0.31,0.31-0.31h0.77
			c0.17,0,0.31,0.14,0.31,0.31v0.77C26.53,1.63,26.39,1.77,26.22,1.77z"/>
		<path class="st17" d="M19.52,3.95h-0.77c-0.17,0-0.31-0.14-0.31-0.31V2.88c0-0.17,0.14-0.31,0.31-0.31h0.77
			c0.17,0,0.31,0.14,0.31,0.31v0.77C19.83,3.81,19.7,3.95,19.52,3.95z"/>
		<path class="st17" d="M22.87,3.95H22.1c-0.17,0-0.31-0.14-0.31-0.31V2.88c0-0.17,0.14-0.31,0.31-0.31h0.77
			c0.17,0,0.31,0.14,0.31,0.31v0.77C23.18,3.81,23.04,3.95,22.87,3.95z"/>
		<path class="st17" d="M26.22,3.95h-0.77c-0.17,0-0.31-0.14-0.31-0.31V2.88c0-0.17,0.14-0.31,0.31-0.31h0.77
			c0.17,0,0.31,0.14,0.31,0.31v0.77C26.53,3.81,26.39,3.95,26.22,3.95z"/>
		<path class="st17" d="M27.64-3.57h-1.18v-1c0-0.23-0.18-0.41-0.41-0.41c-0.23,0-0.41,0.18-0.41,0.41v1h-6.32v-1
			c0-0.23-0.18-0.41-0.41-0.41c-0.23,0-0.41,0.18-0.41,0.41v1h-1.18c-0.62,0-1.12,0.5-1.12,1.12v7.41c0,0.62,0.5,1.12,1.12,1.12
			h10.31c0.62,0,1.12-0.5,1.12-1.12v-7.41C28.76-3.07,28.26-3.57,27.64-3.57z M27.94,4.96c0,0.17-0.14,0.3-0.3,0.3H17.33
			c-0.17,0-0.3-0.13-0.3-0.3v-7.41c0-0.16,0.13-0.3,0.3-0.3h1.18v0.69c0,0.22,0.18,0.41,0.41,0.41c0.23,0,0.41-0.18,0.41-0.41v-0.69
			h6.32v0.69c0,0.22,0.18,0.41,0.41,0.41c0.23,0,0.41-0.18,0.41-0.41v-0.69h1.18c0.16,0,0.3,0.14,0.3,0.3V4.96z"/>
	</g>
	<g>
		<path class="st17" d="M66.72-11.4h-1.57v-12.53c0-0.32-0.26-0.58-0.58-0.58h-3.42c-0.32,0-0.58,0.26-0.58,0.58v12.53h-0.96v-9.32
			c0-0.32-0.26-0.58-0.58-0.58h-3.41c-0.32,0-0.58,0.26-0.58,0.58v9.32h-0.96v-6.36c0-0.32-0.26-0.58-0.58-0.58h-3.42
			c-0.32,0-0.58,0.26-0.58,0.58v6.36h-1.57c-0.32,0-0.58,0.26-0.58,0.58c0,0.32,0.26,0.58,0.58,0.58h2.15h3.42h2.12h3.41h2.12h3.42
			h2.15c0.32,0,0.58-0.26,0.58-0.58C67.3-11.14,67.04-11.4,66.72-11.4z M50.67-11.4v-5.78h2.26v5.78H50.67z M56.2-11.4v-8.75h2.26
			v8.75H56.2z M61.74-11.4v-11.95H64v11.95H61.74z"/>
		<path class="st17" d="M49.48-20.14c0.09,0,0.19-0.02,0.28-0.07l12.75-6.98l0.69,0.95l0.74-2.34c0.07-0.22-0.09-0.44-0.32-0.44
			l-2.45-0.05l0.67,0.93L49.2-21.23c-0.28,0.15-0.38,0.5-0.23,0.79C49.08-20.25,49.28-20.14,49.48-20.14z"/>
	</g>
	<g>
		<g>
			<path class="st17" d="M33.19-14c-0.18-0.24-0.36-0.47-0.56-0.7c-0.2-0.23-0.41-0.46-0.63-0.68c-0.22-0.22-0.45-0.43-0.68-0.63
				c-0.23-0.2-0.46-0.39-0.7-0.56l-0.74,3.31L33.19-14z"/>
			<path class="st17" d="M40.35-23.74c-0.44-0.44-0.91-0.84-1.38-1.19L31-16.95c0.47,0.35,0.93,0.75,1.38,1.19
				c0.44,0.45,0.84,0.91,1.19,1.38l7.98-7.98C41.19-22.83,40.8-23.29,40.35-23.74z"/>
			<path class="st17" d="M41.92-25.31c-0.45-0.44-0.91-0.84-1.38-1.19l-1.13,1.13c0.47,0.35,0.93,0.75,1.38,1.19
				c0.45,0.44,0.84,0.91,1.19,1.38l1.13-1.13C42.77-24.4,42.37-24.86,41.92-25.31z"/>
		</g>
		<g>
			<path class="st17" d="M37.31-9.02h-4.4h-4.39c-0.72,0-1.37-0.29-1.84-0.77l0,0c-0.47-0.47-0.76-1.12-0.76-1.84l0,0l0-4.39l0-4.39
				c0-0.72,0.29-1.37,0.76-1.84l0,0c0.47-0.47,1.13-0.76,1.84-0.76l0,0h4.39c0.54,0,0.97,0.44,0.97,0.97l0,0
				c0,0.54-0.43,0.97-0.97,0.97l0,0h-4.39c-0.19,0-0.35,0.07-0.47,0.19l0,0c-0.12,0.12-0.19,0.28-0.19,0.47l0,0l0,4.39v4.39
				c0,0.19,0.07,0.35,0.19,0.47l0,0c0.12,0.12,0.28,0.19,0.47,0.19l0,0h4.39h4.4c0.19,0,0.34-0.07,0.47-0.19l0,0
				c0.12-0.12,0.19-0.28,0.19-0.47l0,0v-4.39c0-0.54,0.44-0.97,0.97-0.97l0,0c0.54,0,0.97,0.43,0.97,0.97l0,0v4.39
				c0,0.72-0.29,1.37-0.76,1.84l0,0C38.68-9.32,38.03-9.02,37.31-9.02L37.31-9.02C37.31-9.02,37.31-9.02,37.31-9.02L37.31-9.02z"/>
		</g>
	</g>
	<g>
		<g>
			<path class="st17" d="M43.98-38.4c-5.19,0-9.4-4.21-9.4-9.4l0,0c0-5.19,4.21-9.4,9.4-9.4l0,0c5.19,0,9.4,4.21,9.4,9.4l0,0
				C53.38-42.61,49.17-38.4,43.98-38.4L43.98-38.4z M43.98-40.81c3.86-0.01,6.98-3.13,6.99-6.99l0,0c-0.01-3.86-3.13-6.98-6.99-6.99
				l0,0c-3.86,0.01-6.98,3.13-6.99,6.99l0,0C36.99-43.94,40.11-40.82,43.98-40.81L43.98-40.81z"/>
		</g>
		<g>
			<path class="st17" d="M45.77-51.55l-0.7,4.37l-4.79,3.01c-0.34,0.22-0.8,0.11-1.01-0.23l0,0c-0.22-0.34-0.11-0.8,0.23-1.01l0,0
				l4.23-2.65l0.59-3.71c0.06-0.4,0.44-0.67,0.84-0.61l0,0c0.36,0.06,0.62,0.37,0.62,0.73l0,0C45.78-51.63,45.78-51.59,45.77-51.55
				L45.77-51.55z"/>
		</g>
	</g>
	<g>
		<polygon class="st20" points="63.87,202.83 47.1,211.49 33.99,211.49 33.99,237.45 48.39,237.45 63.87,246.11 		"/>
		<path class="st21" d="M78.98,224.47c0,7.12-5.31,12.99-12.19,13.9v2.66c8.33-0.93,14.81-7.97,14.82-16.55
			c-0.02-8.58-6.49-15.62-14.82-16.55v2.65C73.66,211.48,78.97,217.34,78.98,224.47z"/>
		<path class="st21" d="M71.63,224.47c0,3.05-2.05,5.62-4.84,6.42v2.98c4.41-0.86,7.73-4.73,7.74-9.39
			c-0.01-4.66-3.33-8.53-7.74-9.4v2.98C69.58,218.85,71.63,221.42,71.63,224.47z"/>
		<path class="st22" d="M78.98,224.47c0-7.13-5.31-13-12.19-13.9v4.5c4.41,0.86,7.73,4.74,7.74,9.4c-0.01,4.66-3.33,8.53-7.74,9.39
			v4.5C73.66,237.47,78.97,231.6,78.98,224.47z"/>
		<path class="st22" d="M86.06,224.47c0-11.04-8.48-20.1-19.28-21.03v4.48c8.33,0.93,14.81,7.97,14.82,16.55
			c-0.02,8.58-6.49,15.63-14.82,16.55v4.48C77.58,244.57,86.06,235.52,86.06,224.47z"/>
		<path class="st22" d="M71.63,224.47c0-3.05-2.05-5.62-4.84-6.42v12.84C69.58,230.09,71.63,227.52,71.63,224.47z"/>
	</g>
	<g>
		<polyline class="st22" points="264.29,-31.81 280.6,-15.5 264.29,0.81 		"/>
		<circle class="st20" cx="268.72" cy="-14.87" r="23.37"/>
	</g>
	<path class="st23" d="M24.27,18.61h-0.83v-0.93c0-0.37-0.26-0.67-0.57-0.67c-0.31,0-0.57,0.3-0.57,0.67v0.93h-7.7v-0.93
		c0-0.37-0.26-0.67-0.57-0.67c-0.31,0-0.57,0.3-0.57,0.67v0.93h-0.86c-0.72,0-1.31,0.69-1.31,1.54v9.32c0,0.85,0.59,1.54,1.31,1.54
		h11.68c0.72,0,1.31-0.69,1.31-1.54v-9.32C25.58,19.3,24.99,18.61,24.27,18.61z M12.59,19.8h0.86v0.95c0,0.37,0.26,0.67,0.57,0.67
		c0.31,0,0.57-0.3,0.57-0.67V19.8h7.7v0.95c0,0.37,0.26,0.67,0.57,0.67c0.31,0,0.57-0.3,0.57-0.67V19.8h0.83
		c0.16,0,0.3,0.16,0.3,0.35v1.81H12.3v-1.81C12.3,19.96,12.43,19.8,12.59,19.8z M24.27,29.81H12.59c-0.16,0-0.3-0.16-0.3-0.35v-6.32
		h12.27v6.32C24.57,29.66,24.43,29.81,24.27,29.81z"/>
	<g>
		<path class="st24" d="M80.11-28.14h-4.85c-0.28,0-0.51-0.23-0.51-0.51v-3.93c0-0.28,0.23-0.51,0.51-0.51h4.85
			c0.28,0,0.51,0.23,0.51,0.51v3.93C80.62-28.37,80.39-28.14,80.11-28.14z M75.27-32.75c-0.09,0-0.17,0.08-0.17,0.17v3.93
			c0,0.09,0.08,0.17,0.17,0.17h4.85c0.09,0,0.17-0.08,0.17-0.17v-3.93c0-0.09-0.08-0.17-0.17-0.17H75.27z"/>
		<path class="st24" d="M80.4-31.57h-5.41c-0.09,0-0.17-0.08-0.17-0.17c0-0.09,0.08-0.17,0.17-0.17h5.41c0.09,0,0.17,0.08,0.17,0.17
			C80.57-31.64,80.49-31.57,80.4-31.57z"/>
		<g>
			<path class="st24" d="M76.39-32.36c-0.09,0-0.17-0.08-0.17-0.17v-0.78c0-0.09,0.08-0.17,0.17-0.17s0.17,0.08,0.17,0.17v0.78
				C76.56-32.44,76.48-32.36,76.39-32.36z"/>
			<path class="st24" d="M78.99-32.36c-0.09,0-0.17-0.08-0.17-0.17v-0.78c0-0.09,0.08-0.17,0.17-0.17s0.17,0.08,0.17,0.17v0.78
				C79.16-32.44,79.08-32.36,78.99-32.36z"/>
		</g>
	</g>
	<g>
		<path class="st25" d="M-14.26,18.68h-18.62c-1.08,0-1.95-0.88-1.95-1.95V1.63c0-1.08,0.88-1.95,1.95-1.95h18.62
			c1.08,0,1.95,0.88,1.95,1.95v15.09C-12.3,17.8-13.18,18.68-14.26,18.68z M-32.88,0.98c-0.36,0-0.65,0.29-0.65,0.65v15.09
			c0,0.36,0.29,0.65,0.65,0.65h18.62c0.36,0,0.65-0.29,0.65-0.65V1.63c0-0.36-0.29-0.65-0.65-0.65H-32.88z"/>
		<path class="st25" d="M-13.17,5.54h-20.77c-0.36,0-0.65-0.29-0.65-0.65c0-0.36,0.29-0.65,0.65-0.65h20.77
			c0.36,0,0.65,0.29,0.65,0.65C-12.52,5.25-12.81,5.54-13.17,5.54z"/>
		<g>
			<path class="st25" d="M-28.56,2.47c-0.36,0-0.65-0.29-0.65-0.65v-2.99c0-0.36,0.29-0.65,0.65-0.65s0.65,0.29,0.65,0.65v2.99
				C-27.91,2.18-28.2,2.47-28.56,2.47z"/>
			<path class="st25" d="M-23.57,2.47c-0.36,0-0.65-0.29-0.65-0.65v-2.99c0-0.36,0.29-0.65,0.65-0.65c0.36,0,0.65,0.29,0.65,0.65
				v2.99C-22.92,2.18-23.21,2.47-23.57,2.47z"/>
			<path class="st25" d="M-18.57,2.47c-0.36,0-0.65-0.29-0.65-0.65v-2.99c0-0.36,0.29-0.65,0.65-0.65c0.36,0,0.65,0.29,0.65,0.65
				v2.99C-17.92,2.18-18.21,2.47-18.57,2.47z"/>
		</g>
		<g>
			<rect x="-31.35" y="7.71" class="st25" width="1.64" height="1.49"/>
		</g>
		<g>
			<rect x="-27.82" y="7.71" class="st25" width="1.64" height="1.49"/>
		</g>
		<g>
			<rect x="-24.28" y="7.71" class="st25" width="1.64" height="1.49"/>
		</g>
		<g>
			<rect x="-20.75" y="7.71" class="st25" width="1.64" height="1.49"/>
		</g>
		<g>
			<rect x="-17.21" y="7.71" class="st25" width="1.64" height="1.49"/>
		</g>
		<g>
			<rect x="-31.35" y="10.81" class="st25" width="1.64" height="1.49"/>
		</g>
		<g>
			<rect x="-27.82" y="10.81" class="st25" width="1.64" height="1.49"/>
		</g>
		<g>
			<rect x="-24.28" y="10.81" class="st25" width="1.64" height="1.49"/>
		</g>
		<g>
			<rect x="-20.75" y="10.81" class="st25" width="1.64" height="1.49"/>
		</g>
		<g>
			<rect x="-17.21" y="10.81" class="st25" width="1.64" height="1.49"/>
		</g>
		<g>
			<rect x="-31.35" y="13.9" class="st25" width="1.64" height="1.49"/>
		</g>
		<g>
			<rect x="-27.82" y="13.9" class="st25" width="1.64" height="1.49"/>
		</g>
		<g>
			<rect x="-24.28" y="13.9" class="st25" width="1.64" height="1.49"/>
		</g>
		<g>
			<rect x="-20.75" y="13.9" class="st25" width="1.64" height="1.49"/>
		</g>
		<g>
			<rect x="-17.21" y="13.9" class="st25" width="1.64" height="1.49"/>
		</g>
	</g>
	<rect x="89.33" y="9.43" class="st23" width="20.55" height="20.67"/>
	<g>
		<path class="st26" d="M-10.11,75.71c0,4.97,4.03,9,9,9h23.26c4.97,0,9-4.03,9-9V52.45c0-4.97-4.03-9-9-9H-1.11c-4.97,0-9,4.03-9,9
			V75.71z"/>
	</g>
	<g>
		<path class="st26" d="M87.81,97.75c0,4.42,3.58,8,8,8h14.85c4.42,0,8-3.58,8-8V82.89c0-4.42-3.58-8-8-8H95.81c-4.42,0-8,3.58-8,8
			V97.75z"/>
	</g>
	<rect x="35.91" y="13.15" class="st27" width="14.26" height="12.92"/>
	<polygon class="st17" points="-10.72,3.31 -5.87,-1.12 -4.77,0.09 -8.3,3.31 -4.77,6.54 -5.87,7.74 	"/>
	<polygon class="st17" points="5.39,4.59 10.24,0.16 11.34,1.37 7.81,4.59 11.34,7.81 10.24,9.02 	"/>
	<polygon class="st17" points="0.28,4.59 5.14,0.16 6.24,1.37 2.71,4.59 6.24,7.81 5.14,9.02 	"/>
</g>
<g id="Layer_2">
</g>
</svg>
