<?xml version="1.0" encoding="utf-8"?>
<!-- Generator: Adobe Illustrator 24.0.1, SVG Export Plug-In . SVG Version: 6.00 Build 0)  -->
<svg version="1.1" id="레이어_1" xmlns="http://www.w3.org/2000/svg" xmlns:xlink="http://www.w3.org/1999/xlink" x="0px"
	 y="0px" viewBox="0 0 1431 861" style="enable-background:new 0 0 1431 861;" xml:space="preserve">
<style type="text/css">
	.st0{fill:none;stroke:#FFBA7B;stroke-miterlimit:10;}
	.st1{fill:#FC5B14;}
	.st2{fill:#CBD8D8;}
	.st3{fill:#F7D36D;}
	.st4{fill:#DD4814;}
	.st5{fill:#EA5418;}
	.st6{fill:#B3B3B3;}
	.st7{fill:#F2F2F2;}
	.st8{fill:#96DAEA;}
	.st9{fill:#F2F3FA;}
	.st10{fill:#EDEDED;}
	.st11{fill:#DCDCDC;}
	.st12{fill:#9FA6CE;}
	.st13{fill:#CCEBED;}
	.st14{fill:#FFFFFF;}
	.st15{fill:#B1D2DD;}
	.st16{fill:#D3A87D;}
	.st17{fill:#F78C54;}
	.st18{fill:#808080;}
	.st19{fill:#999999;}
	.st20{fill:none;stroke:#394656;stroke-linecap:round;}
	.st21{fill:none;}
	.st22{fill:#754C24;}
	.st23{fill:#42210B;}
	.st24{fill:#56A5C1;}
	.st25{fill:#FCD472;}
	.st26{fill:#E5A376;}
	.st27{fill:#EA9C34;}
	.st28{fill:#F0B185;}
	.st29{fill:#F4C867;}
	.st30{fill:#CCCCCC;}
	.st31{fill:#FCE47E;}
	.st32{fill:#FFE08A;}
	.st33{fill:#666666;}
	.st34{fill:#FFF4C5;}
	.st35{fill:#F4D37D;}
	.st36{fill:#F2CA83;}
	.st37{enable-background:new    ;}
	.st38{fill:#ABABAB;}
	.st39{fill:#D4D4D4;}
	.st40{fill:#C9C9C9;}
	.st41{fill:#90D2DD;}
	.st42{fill:#E6E6E6;}
	.st43{fill:#082C44;}
	.st44{clip-path:url(#SVGID_2_);enable-background:new    ;}
	.st45{fill:#0B1B2C;}
	.st46{fill:#A3E5EF;}
	.st47{fill:#464746;}
	.st48{fill:#2E2F2E;}
</style>
<g>
	<polygon class="st0" points="1112,373.2 1075.6,393.6 1108.3,413.9 1144.8,393.5 	"/>
	<polygon class="st0" points="974,330.5 1006.7,350.9 1043.2,330.5 1010.4,310.1 	"/>
	<polygon class="st0" points="1007.8,351.5 1040.6,371.9 1077,351.5 1044.2,331.2 	"/>
	<polygon class="st0" points="1041.7,372.6 1074.5,392.9 1110.9,372.5 1078.1,352.2 	"/>
	<polygon class="st0" points="1036.9,415.2 1000.5,435.6 1033.2,456 1069.7,435.6 	"/>
	<polygon class="st0" points="811.6,541.4 775.2,561.8 808,582.1 844.4,561.7 	"/>
	<polygon class="st0" points="886.7,499.3 850.3,519.7 883.1,540.1 919.5,519.7 	"/>
	<polygon class="st0" points="849.2,520.3 812.7,540.7 845.5,561.1 881.9,540.7 	"/>
	<polygon class="st0" points="999.3,436.3 962.9,456.7 995.7,477 1032.1,456.6 	"/>
	<polygon class="st0" points="924.3,478.3 887.8,498.7 920.6,519 957,498.6 	"/>
	<polygon class="st0" points="961.8,457.3 925.4,477.7 958.2,498 994.6,477.6 	"/>
	<polygon class="st0" points="1074.4,394.2 1038,414.6 1070.8,435 1107.2,414.6 	"/>
	<polygon class="st0" points="732.1,224.7 768.6,204.4 735.8,184 699.4,204.4 	"/>
	<polygon class="st0" points="940.1,309.5 972.9,329.9 1009.3,309.5 976.5,289.1 	"/>
	<polygon class="st0" points="690.9,287.8 727.3,267.4 694.6,247.1 658.1,267.5 	"/>
	<polygon class="st0" points="657,266.8 693.5,246.4 660.7,226.1 624.3,246.4 	"/>
	<polygon class="st0" points="770.8,204.4 803.5,224.7 840,204.4 807.2,184 	"/>
	<polygon class="st0" points="736.9,183.4 769.7,203.7 806.1,183.3 773.3,163 	"/>
	<polygon class="st0" points="804.6,225.4 837.4,245.8 873.8,225.4 841.1,205 	"/>
	<polygon class="st0" points="774.4,162.4 807.2,182.7 843.6,162.3 810.9,142 	"/>
	<polygon class="st0" points="906.2,288.5 939,308.8 975.4,288.4 942.7,268.1 	"/>
	<polygon class="st0" points="838.5,246.4 871.3,266.8 907.7,246.4 874.9,226.1 	"/>
	<polygon class="st0" points="491,519.7 458.3,499.3 421.8,519.7 454.6,540.1 	"/>
	<polygon class="st0" points="465.7,413.9 502.1,393.5 469.3,373.2 432.9,393.6 	"/>
	<polygon class="st0" points="428.1,435 464.5,414.6 431.8,394.2 395.3,414.6 	"/>
	<polygon class="st0" points="390.6,456 427,435.6 394.2,415.2 357.8,435.6 	"/>
	<polygon class="st0" points="353,477 389.4,456.6 356.7,436.3 320.2,456.7 	"/>
	<polygon class="st0" points="423.3,477.6 390.5,457.3 354.1,477.7 386.9,498 	"/>
	<polygon class="st0" points="503.2,392.9 539.6,372.5 506.8,352.2 470.4,372.6 	"/>
	<polygon class="st0" points="615.8,329.9 652.2,309.5 619.5,289.1 583,309.5 	"/>
	<polygon class="st0" points="540.7,371.9 577.2,351.5 544.4,331.2 508,351.5 	"/>
	<polygon class="st0" points="653.4,308.8 689.8,288.4 657,268.1 620.6,288.5 	"/>
	<polygon class="st0" points="578.3,350.9 614.7,330.5 581.9,310.1 545.5,330.5 	"/>
	<polygon class="st0" points="626.5,603.7 593.7,583.4 557.3,603.8 590.1,624.1 	"/>
	<polygon class="st0" points="660.4,624.8 627.6,604.4 591.2,624.8 623.9,645.2 	"/>
	<polygon class="st0" points="665.1,583.4 628.7,603.8 661.5,624.1 697.9,603.7 	"/>
	<polygon class="st0" points="457.2,498.6 424.4,478.3 388,498.7 420.8,519 	"/>
	<polygon class="st0" points="702.7,562.4 666.3,582.8 699,603.1 735.5,582.7 	"/>
	<polygon class="st0" points="774.1,562.4 737.7,582.8 770.4,603.1 806.9,582.7 	"/>
	<polygon class="st0" points="769.3,603.7 736.5,583.4 700.1,603.8 732.9,624.1 	"/>
	<polygon class="st0" points="619.5,287.8 655.9,267.4 623.2,247.1 586.7,267.5 	"/>
	<polygon class="st0" points="524.9,540.7 492.1,520.3 455.7,540.7 488.5,561.1 	"/>
	<polygon class="st0" points="558.8,561.7 526,541.4 489.6,561.8 522.3,582.1 	"/>
	<polygon class="st0" points="592.6,582.7 559.9,562.4 523.4,582.8 556.2,603.1 	"/>
	<polygon class="st0" points="694.6,245.8 731,225.4 698.2,205 661.8,225.4 	"/>
	<polygon class="st0" points="582,308.8 618.4,288.4 585.6,268.1 549.2,288.5 	"/>
	<polygon class="st0" points="1070.8,436.3 1034.3,456.7 1067.1,477 1103.5,456.6 	"/>
	<polygon class="st0" points="1145.8,394.2 1109.4,414.6 1142.2,435 1178.6,414.6 	"/>
	<polygon class="st0" points="1108.3,415.2 1071.9,435.6 1104.6,456 1141.1,435.6 	"/>
	<polygon class="st0" points="995.7,478.3 959.2,498.7 992,519 1028.4,498.6 	"/>
	<polygon class="st0" points="920.6,520.3 884.2,540.7 916.9,561.1 953.4,540.7 	"/>
	<polygon class="st0" points="845.5,562.4 809.1,582.8 841.8,603.1 878.3,582.7 	"/>
	<polygon class="st0" points="808,583.4 771.5,603.8 804.3,624.1 840.7,603.7 	"/>
	<polygon class="st0" points="958.1,499.3 921.7,519.7 954.5,540.1 990.9,519.7 	"/>
	<polygon class="st0" points="883,541.4 846.6,561.8 879.4,582.1 915.8,561.7 	"/>
	<polygon class="st0" points="1183.4,373.2 1147,393.6 1179.7,413.9 1216.2,393.5 	"/>
	<polygon class="st0" points="808.3,183.4 841.1,203.7 877.5,183.3 844.7,163 	"/>
	<polygon class="st0" points="943.8,267.5 976.5,287.8 1013,267.4 980.2,247.1 	"/>
	<polygon class="st0" points="909.9,246.4 942.7,266.8 979.1,246.4 946.3,226.1 	"/>
	<polygon class="st0" points="876,225.4 908.8,245.8 945.2,225.4 912.5,205 	"/>
	<polygon class="st0" points="770.4,604.4 734,624.8 766.8,645.2 803.2,624.8 	"/>
	<polygon class="st0" points="842.2,204.4 874.9,224.7 911.4,204.4 878.6,184 	"/>
	<polygon class="st0" points="1045.4,330.5 1078.1,350.9 1114.6,330.5 1081.8,310.1 	"/>
	<polygon class="st0" points="977.6,288.5 1010.4,308.8 1046.8,288.4 1014.1,268.1 	"/>
	<polygon class="st0" points="1079.2,351.5 1112,371.9 1148.4,351.5 1115.7,331.2 	"/>
	<polygon class="st0" points="1113.1,372.6 1145.9,392.9 1182.3,372.5 1149.5,352.2 	"/>
	<polygon class="st0" points="1011.5,309.5 1044.3,329.9 1080.7,309.5 1047.9,289.1 	"/>
	<polygon class="st0" points="1033.2,457.3 996.8,477.7 1029.6,498 1066,477.6 	"/>
	<polygon class="st0" points="385.8,498.6 353,478.3 311,501.8 343.8,522.1 	"/>
	<polygon class="st0" points="319.2,456 355.6,435.6 322.8,415.2 286.4,435.6 	"/>
	<polygon class="st0" points="765.6,645.8 732.9,625.4 696.4,645.8 729.2,666.2 	"/>
	<polygon class="st0" points="394.2,413.9 430.7,393.5 397.9,373.2 361.5,393.6 	"/>
	<polygon class="st0" points="351.9,477.6 319.1,457.3 277.2,480.8 310,501.1 	"/>
	<polygon class="st0" points="356.7,435 393.1,414.6 360.3,394.2 323.9,414.6 	"/>
	<polygon class="st0" points="431.8,392.9 468.2,372.5 435.4,352.2 399,372.6 	"/>
	<polygon class="st0" points="544.4,329.9 580.8,309.5 548.1,289.1 511.6,309.5 	"/>
	<polygon class="st0" points="506.9,350.9 543.3,330.5 510.5,310.1 474.1,330.5 	"/>
	<polygon class="st0" points="469.3,371.9 505.8,351.5 473,331.2 436.6,351.5 	"/>
	<polygon class="st0" points="276.1,480.1 318,456.6 285.3,436.3 243.3,459.7 	"/>
	<polygon class="st0" points="622.8,645.8 590,625.4 548.1,648.9 580.9,669.3 	"/>
	<polygon class="st0" points="656.7,666.8 623.9,646.5 582,669.9 614.7,690.3 	"/>
	<polygon class="st0" points="661.5,625.4 625,645.8 657.8,666.2 694.2,645.8 	"/>
	<polygon class="st0" points="699,604.4 662.6,624.8 695.3,645.2 731.8,624.8 	"/>
	<polygon class="st0" points="589,624.8 556.2,604.4 514.2,627.9 547,648.2 	"/>
	<polygon class="st0" points="521.2,582.7 488.5,562.4 446.5,585.9 479.3,606.2 	"/>
	<polygon class="st0" points="453.5,540.7 420.7,520.3 378.8,543.8 411.5,564.2 	"/>
	<polygon class="st0" points="487.4,561.7 454.6,541.4 412.6,564.8 445.4,585.2 	"/>
	<polygon class="st0" points="555.1,603.7 522.3,583.4 480.4,606.9 513.1,627.2 	"/>
	<polygon class="st0" points="419.6,519.7 386.9,499.3 344.9,522.8 377.7,543.1 	"/>
	<polygon class="st0" points="872.4,267.5 905.1,287.8 941.6,267.4 908.8,247.1 	"/>
	<polygon class="st0" points="721.1,350.9 757.5,330.5 724.7,310.1 688.3,330.5 	"/>
	<polygon class="st0" points="725.9,309.5 758.6,329.9 795.1,309.5 762.3,289.1 	"/>
	<polygon class="st0" points="646,392.9 682.4,372.5 649.7,352.2 613.2,372.6 	"/>
	<polygon class="st0" points="759.7,330.5 792.5,350.9 828.9,330.5 796.2,310.1 	"/>
	<polygon class="st0" points="683.6,371.9 720,351.5 687.2,331.2 650.8,351.5 	"/>
	<polygon class="st0" points="608.5,413.9 644.9,393.5 612.1,373.2 575.7,393.6 	"/>
	<polygon class="st0" points="822.7,415.2 786.2,435.6 819,456 855.4,435.6 	"/>
	<polygon class="st0" points="793.6,351.5 826.4,371.9 862.8,351.5 830,331.2 	"/>
	<polygon class="st0" points="860.2,394.2 823.8,414.6 856.6,435 893,414.6 	"/>
	<polygon class="st0" points="897.8,373.2 861.3,393.6 894.1,413.9 930.5,393.5 	"/>
	<polygon class="st0" points="827.5,372.6 860.2,392.9 896.7,372.5 863.9,352.2 	"/>
	<polygon class="st0" points="533.4,456 569.8,435.6 537,415.2 500.6,435.6 	"/>
	<polygon class="st0" points="672.5,499.3 636.1,519.7 668.8,540.1 705.3,519.7 	"/>
	<polygon class="st0" points="667.7,540.7 634.9,520.3 598.5,540.7 631.3,561.1 	"/>
	<polygon class="st0" points="710,478.3 673.6,498.7 706.4,519 742.8,498.6 	"/>
	<polygon class="st0" points="781.4,478.3 745,498.7 777.8,519 814.2,498.6 	"/>
	<polygon class="st0" points="633.9,519.7 601.1,499.3 564.7,519.7 597.4,540.1 	"/>
	<polygon class="st0" points="785.1,436.3 748.7,456.7 781.5,477 817.9,456.6 	"/>
	<polygon class="st0" points="570.9,435 607.3,414.6 574.6,394.2 538.1,414.6 	"/>
	<polygon class="st0" points="495.8,477 532.3,456.6 499.5,436.3 463.1,456.7 	"/>
	<polygon class="st0" points="566.1,477.6 533.4,457.3 496.9,477.7 529.7,498 	"/>
	<polygon class="st0" points="600,498.6 567.2,478.3 530.8,498.7 563.6,519 	"/>
	<polygon class="st0" points="776.7,519.7 743.9,499.3 707.5,519.7 740.3,540.1 	"/>
	<polygon class="st0" points="787.7,393.5 754.9,373.2 718.5,393.6 751.3,413.9 	"/>
	<polygon class="st0" points="784,435.6 751.3,415.2 714.8,435.6 747.6,456 	"/>
	<polygon class="st0" points="788.8,394.2 752.4,414.6 785.2,435 821.6,414.6 	"/>
	<polygon class="st0" points="728.5,266.8 764.9,246.4 732.1,226.1 695.7,246.4 	"/>
	<polygon class="st0" points="826.3,373.2 789.9,393.6 822.7,413.9 859.1,393.5 	"/>
	<polygon class="st0" points="717.4,394.2 681,414.6 713.7,435 750.2,414.6 	"/>
	<polygon class="st0" points="679.8,415.2 643.4,435.6 676.2,456 712.6,435.6 	"/>
	<polygon class="st0" points="605.9,456.7 638.7,477 675.1,456.6 642.3,436.3 	"/>
	<polygon class="st0" points="756.1,372.6 788.8,392.9 825.3,372.5 792.5,352.2 	"/>
	<polygon class="st0" points="567.2,477 603.7,456.6 570.9,436.3 534.5,456.7 	"/>
	<polygon class="st0" points="637.5,477.6 604.8,457.3 568.3,477.7 601.1,498 	"/>
	<polygon class="st0" points="671.4,498.6 638.6,478.3 602.2,498.7 635,519 	"/>
	<polygon class="st0" points="722.2,351.5 755,371.9 791.4,351.5 758.6,331.2 	"/>
	<polygon class="st0" points="713.7,436.3 677.3,456.6 710.1,477 746.5,456.6 	"/>
	<polygon class="st0" points="676.2,457.3 639.7,477.7 672.5,498 708.9,477.6 	"/>
	<polygon class="st0" points="679.9,413.9 716.3,393.5 683.5,373.2 647.1,393.6 	"/>
	<polygon class="st0" points="717.4,392.9 753.8,372.5 721.1,352.2 684.6,372.6 	"/>
	<polygon class="st0" points="604.8,456 641.2,435.6 608.4,415.2 572,435.6 	"/>
	<polygon class="st0" points="642.3,435 678.8,414.6 646,394.2 609.6,414.6 	"/>
	<polygon class="st0" points="780.4,477.6 747.6,457.3 711.2,477.7 743.9,498 	"/>
	<polygon class="st0" points="777.8,520.3 741.3,540.7 774.1,561.1 810.5,540.7 	"/>
	<polygon class="st0" points="562.4,519.7 529.7,499.3 493.2,519.7 526,540.1 	"/>
	<polygon class="st0" points="890.4,457.3 854,477.7 886.7,498 923.2,477.6 	"/>
	<polygon class="st0" points="773,561.7 740.2,541.4 703.8,561.8 736.6,582.1 	"/>
	<polygon class="st0" points="852.9,478.3 816.4,498.7 849.2,519 885.6,498.6 	"/>
	<polygon class="st0" points="668.8,541.4 632.4,561.8 665.2,582.1 701.6,561.7 	"/>
	<polygon class="st0" points="596.3,540.7 563.5,520.3 527.1,540.7 559.9,561.1 	"/>
	<polygon class="st0" points="630.2,561.7 597.4,541.4 561,561.8 593.8,582.1 	"/>
	<polygon class="st0" points="664,582.7 631.3,562.4 594.8,582.8 627.6,603.1 	"/>
	<polygon class="st0" points="706.4,520.3 669.9,540.7 702.7,561.1 739.1,540.7 	"/>
	<polygon class="st0" points="927.9,436.3 891.5,456.6 924.3,477 960.7,456.6 	"/>
	<polygon class="st0" points="815.3,499.3 778.9,519.7 811.7,540.1 848.1,519.7 	"/>
	<polygon class="st0" points="801,267.5 833.7,287.8 870.2,267.4 837.4,247.1 	"/>
	<polygon class="st0" points="965.5,415.2 929.1,435.6 961.8,456 998.3,435.6 	"/>
	<polygon class="st0" points="819,457.3 782.6,477.7 815.3,498 851.8,477.6 	"/>
	<polygon class="st0" points="733.2,225.4 766,245.8 802.4,225.4 769.6,205 	"/>
	<polygon class="st0" points="767.1,246.4 799.9,266.8 836.3,246.4 803.5,226.1 	"/>
	<polygon class="st0" points="902.5,330.5 935.3,350.9 971.7,330.5 939,310.1 	"/>
	<polygon class="st0" points="1040.6,373.2 1004.1,393.6 1036.9,413.9 1073.3,393.5 	"/>
	<polygon class="st0" points="1003,394.2 966.6,414.6 999.4,435 1035.8,414.6 	"/>
	<polygon class="st0" points="936.4,351.5 969.2,371.9 1005.6,351.5 972.8,331.2 	"/>
	<polygon class="st0" points="970.3,372.6 1003.1,392.9 1039.5,372.5 1006.7,352.2 	"/>
	<polygon class="st0" points="868.7,309.5 901.5,329.9 937.9,309.5 905.1,289.1 	"/>
	<polygon class="st0" points="831.1,330.5 863.9,350.9 900.3,330.5 867.6,310.1 	"/>
	<polygon class="st0" points="865,351.5 897.8,371.9 934.2,351.5 901.4,331.2 	"/>
	<polygon class="st0" points="729.5,267.5 762.3,287.8 798.7,267.4 766,247.1 	"/>
	<polygon class="st0" points="898.9,372.6 931.6,392.9 968.1,372.5 935.3,352.2 	"/>
	<polygon class="st0" points="797.3,309.5 830,329.9 866.5,309.5 833.7,289.1 	"/>
	<polygon class="st0" points="763.4,288.5 796.2,308.8 832.6,288.4 799.8,268.1 	"/>
	<polygon class="st0" points="856.5,436.3 820.1,456.6 852.9,477 889.3,456.6 	"/>
	<polygon class="st0" points="894.1,415.2 857.6,435.6 890.4,456 926.8,435.6 	"/>
	<polygon class="st0" points="931.6,394.2 895.2,414.6 928,435 964.4,414.6 	"/>
	<polygon class="st0" points="969.2,373.2 932.7,393.6 965.5,413.9 1001.9,393.5 	"/>
	<polygon class="st0" points="462,456 498.4,435.6 465.6,415.2 429.2,435.6 	"/>
	<polygon class="st0" points="528.6,498.6 495.8,478.3 459.4,498.7 492.2,519 	"/>
	<polygon class="st0" points="499.5,435 535.9,414.6 503.2,394.2 466.7,414.6 	"/>
	<polygon class="st0" points="424.4,477 460.9,456.6 428.1,436.3 391.7,456.7 	"/>
	<polygon class="st0" points="494.7,477.6 461.9,457.3 425.5,477.7 458.3,498 	"/>
	<polygon class="st0" points="537.1,413.9 573.5,393.5 540.7,373.2 504.3,393.6 	"/>
	<polygon class="st0" points="574.6,392.9 611,372.5 578.3,352.2 541.8,372.6 	"/>
	<polygon class="st0" points="687.2,329.9 723.7,309.5 690.9,289.1 654.5,309.5 	"/>
	<polygon class="st0" points="649.7,350.9 686.1,330.5 653.3,310.1 616.9,330.5 	"/>
	<polygon class="st0" points="612.1,371.9 648.6,351.5 615.8,331.2 579.4,351.5 	"/>
	<polygon class="st0" points="724.8,308.8 761.2,288.4 728.4,268.1 692,288.5 	"/>
	<polygon class="st0" points="834.8,288.5 867.6,308.8 904,288.4 871.2,268.1 	"/>
	<polygon class="st0" points="950,182.7 986.5,162.3 953.7,142 917.3,162.4 	"/>
	<polygon class="st0" points="883.4,141.3 916.2,161.7 952.6,141.3 919.8,120.9 	"/>
	<polygon class="st0" points="848.4,119.6 884.9,99.3 852.1,78.9 815.7,99.3 	"/>
	<polygon class="st0" points="983.9,203.7 1020.3,183.3 987.6,163 951.1,183.4 	"/>
	<polygon class="st0" points="882.3,140.7 918.7,120.3 886,99.9 849.5,120.3 	"/>
	<polygon class="st0" points="779.9,77.1 814.6,98.6 851,78.2 816.3,56.7 	"/>
	<polygon class="st0" points="1120.5,288.5 1153.2,308.8 1189.7,288.4 1156.9,268.1 	"/>
	<polygon class="st0" points="439.8,266.2 407,245.9 370.6,266.3 403.4,286.6 	"/>
	<polygon class="st0" points="1017.8,224.8 1054.2,204.4 1021.4,184 985,204.4 	"/>
	<polygon class="st0" points="1052.7,246.4 1085.5,266.8 1121.9,246.4 1089.1,226 	"/>
	<polygon class="st0" points="1018.9,225.4 1051.6,245.8 1088.1,225.4 1055.3,205 	"/>
	<polygon class="st0" points="643.8,754 611,733.6 574.6,754 607.4,774.4 	"/>
	<polygon class="st0" points="815.2,56 782.4,35.7 746,56.1 778.8,76.4 	"/>
	<polygon class="st0" points="552.4,203.2 519.6,182.8 483.2,203.2 516,223.6 	"/>
	<polygon class="st0" points="627.5,161.1 594.7,140.8 558.3,161.2 591.1,181.5 	"/>
	<polygon class="st0" points="514.9,224.2 482.1,203.8 445.7,224.2 478.4,244.6 	"/>
	<polygon class="st0" points="477.3,245.2 444.6,224.9 408.1,245.3 440.9,265.6 	"/>
	<polygon class="st0" points="590,182.1 557.2,161.8 520.8,182.2 553.5,202.5 	"/>
	<polygon class="st0" points="1154.3,309.5 1187.1,329.9 1223.5,309.5 1190.7,289.1 	"/>
	<polygon class="st0" points="777.7,77 744.9,56.7 708.5,77.1 741.2,97.4 	"/>
	<polygon class="st0" points="665,140.1 632.3,119.8 595.8,140.2 628.6,160.5 	"/>
	<polygon class="st0" points="702.6,119.1 669.8,98.7 633.4,119.1 666.2,139.5 	"/>
	<polygon class="st0" points="1086.6,267.5 1119.4,287.8 1155.8,267.4 1123,247.1 	"/>
	<polygon class="st0" points="838.1,646.5 801.7,666.9 834.5,687.2 870.9,666.8 	"/>
	<polygon class="st0" points="763.1,688.5 726.6,708.9 759.4,729.2 795.8,708.8 	"/>
	<polygon class="st0" points="950.8,583.4 914.3,603.8 947.1,624.1 983.5,603.7 	"/>
	<polygon class="st0" points="913.2,604.4 876.8,624.8 909.6,645.2 946,624.8 	"/>
	<polygon class="st0" points="875.7,625.4 839.3,645.8 872,666.2 908.5,645.8 	"/>
	<polygon class="st0" points="800.6,667.5 764.2,687.9 796.9,708.2 833.4,687.8 	"/>
	<polygon class="st0" points="648.6,712.6 612.2,733 644.9,753.4 681.4,733 	"/>
	<polygon class="st0" points="691.6,688.5 649.7,712 682.5,732.3 724.4,708.8 	"/>
	<polygon class="st0" points="758.3,729.9 725.5,709.5 683.6,733 716.3,753.4 	"/>
	<polygon class="st0" points="1213.6,436.3 1177.1,456.7 1209.9,477 1246.3,456.6 	"/>
	<polygon class="st0" points="1288.7,394.2 1252.2,414.6 1285,435 1321.4,414.6 	"/>
	<polygon class="st0" points="1251.1,415.2 1214.7,435.6 1247.5,456 1283.9,435.6 	"/>
	<polygon class="st0" points="1188.2,330.5 1221,350.9 1257.4,330.5 1224.6,310.1 	"/>
	<polygon class="st0" points="988.3,562.4 951.9,582.8 984.7,603.1 1021.1,582.7 	"/>
	<polygon class="st0" points="1222,351.5 1254.8,371.9 1291.2,351.5 1258.5,331.2 	"/>
	<polygon class="st0" points="1255.9,372.6 1288.7,392.9 1325.1,372.5 1292.1,352 1292.2,352.2 	"/>
	<polygon class="st0" points="1289.9,393.6 1322.7,413.9 1359.1,393.5 1326.1,373 1326.2,373.2 	"/>
	<polygon class="st0" points="1322.7,415.2 1286.2,435.6 1319,456 1355.4,435.6 	"/>
	<polygon class="st0" points="1323.9,414.6 1356.7,434.9 1393.1,414.5 1360.1,394 1360.2,394.2 	"/>
	<polygon class="st0" points="1025.9,541.4 989.4,561.8 1022.2,582.1 1058.6,561.7 	"/>
	<polygon class="st0" points="1176,457.3 1139.6,477.7 1172.4,498 1208.8,477.6 	"/>
	<polygon class="st0" points="1063.4,520.3 1027,540.7 1059.8,561.1 1096.2,540.7 	"/>
	<polygon class="st0" points="1138.5,478.3 1102.1,498.7 1134.8,519 1171.3,498.6 	"/>
	<polygon class="st0" points="740.1,98.1 707.4,77.7 670.9,98.1 703.7,118.5 	"/>
	<polygon class="st0" points="798,708.9 830.8,729.2 867.2,708.8 834.5,688.5 	"/>
	<polygon class="st0" points="835.6,687.9 868.4,708.2 904.8,687.8 872,667.5 	"/>
	<polygon class="st0" points="910.7,645.8 943.4,666.2 979.9,645.8 947.1,625.4 	"/>
	<polygon class="st0" points="539.6,733.6 503.2,754 536,774.4 572.4,754 	"/>
	<polygon class="st0" points="760.5,729.9 793.3,750.3 829.7,729.9 796.9,709.5 	"/>
	<polygon class="st0" points="608.5,775 641.2,795.4 677.7,775 644.9,754.7 	"/>
	<polygon class="st0" points="573.5,754.7 537.1,775 569.8,795.4 606.3,775 	"/>
	<polygon class="st0" points="570.9,796.1 603.7,816.4 640.1,796 607.4,775.7 	"/>
	<polygon class="st0" points="646,754 678.8,774.4 715.2,754 682.4,733.6 	"/>
	<polygon class="st0" points="642.5,796 675.2,816.4 711.7,796 678.9,775.7 	"/>
	<polygon class="st0" points="604.9,817.1 637.7,837.4 674.1,817 641.4,796.7 	"/>
	<polygon class="st0" points="680,775 712.8,795.4 749.2,775 716.4,754.6 	"/>
	<polygon class="st0" points="948.2,624.8 981,645.2 1017.4,624.8 984.6,604.4 	"/>
	<polygon class="st0" points="717.4,754 750.2,774.4 792.1,750.9 759.4,730.5 	"/>
	<polygon class="st0" points="873.1,666.9 905.9,687.2 942.3,666.8 909.5,646.5 	"/>
	<polygon class="st0" points="1211,477.7 1243.8,498 1280.2,477.6 1247.4,457.3 	"/>
	<polygon class="st0" points="1248.6,456.7 1281.3,477 1317.8,456.6 1285,436.3 	"/>
	<polygon class="st0" points="740.6,141.3 773.4,161.7 809.8,141.3 777,121 	"/>
	<polygon class="st0" points="1173.5,498.7 1206.2,519 1242.7,498.6 1209.9,478.3 	"/>
	<polygon class="st0" points="985.8,603.8 1018.5,624.1 1055,603.7 1022.2,583.4 	"/>
	<polygon class="st0" points="1023.3,582.8 1056,603.1 1056,603.1 1092.5,582.7 1059.7,562.4 	"/>
	<polygon class="st0" points="1060.8,561.8 1093.6,582.1 1130,561.7 1097.3,541.4 	"/>
	<polygon class="st0" points="1135.9,519.7 1168.7,540.1 1205.1,519.7 1172.4,499.3 	"/>
	<polygon class="st0" points="1098.4,540.7 1131.2,561.1 1167.6,540.7 1134.8,520.3 	"/>
	<polygon class="st0" points="404.2,649.6 367.7,669.9 400.5,690.3 436.9,669.9 	"/>
	<polygon class="st0" points="133.9,437.5 101.1,417.1 64.7,437.5 97.5,457.9 	"/>
	<polygon class="st0" points="171.4,416.5 138.7,396.1 102.3,416.5 135,436.9 	"/>
	<polygon class="st0" points="214.5,392.3 181.7,372 139.8,395.5 172.6,415.8 	"/>
	<polygon class="st0" points="63.6,438.2 27.2,458.5 59.9,478.9 96.4,458.5 	"/>
	<polygon class="st0" points="97.5,459.2 61,479.6 95.7,501.1 132.1,480.7 	"/>
	<polygon class="st0" points="133.2,481.4 96.8,501.8 129.6,522.1 166,501.7 	"/>
	<polygon class="st0" points="364.7,308.3 331.9,287.9 295.5,308.3 328.3,328.7 	"/>
	<polygon class="st0" points="505.8,712.6 469.3,733 502.1,753.4 538.5,733 	"/>
	<polygon class="st0" points="252.1,371.3 219.3,351 182.9,371.4 215.6,391.7 	"/>
	<polygon class="st0" points="289.6,350.3 256.9,330 256.9,329.9 220.4,350.4 253.2,370.7 	"/>
	<polygon class="st0" points="327.1,329.3 294.4,308.9 257.9,329.3 290.7,349.7 	"/>
	<polygon class="st0" points="402.2,287.2 369.5,266.9 333,287.3 365.8,307.6 	"/>
	<polygon class="st0" points="370.3,628.5 333.9,648.9 366.6,669.3 403.1,648.9 	"/>
	<polygon class="st0" points="471.9,691.6 435.5,712 468.2,732.3 504.7,711.9 	"/>
	<polygon class="st0" points="336.4,607.5 300,627.9 332.8,648.2 369.2,627.9 	"/>
	<polygon class="st0" points="438,670.6 401.6,691 434.4,711.3 470.8,690.9 	"/>
	<polygon class="st0" points="167.1,502.4 130.7,522.8 163.5,543.1 199.9,522.8 	"/>
	<polygon class="st0" points="234.8,544.5 198.4,564.8 231.2,585.2 267.6,564.8 	"/>
	<polygon class="st0" points="201,523.4 164.5,543.8 197.3,564.2 233.7,543.8 	"/>
	<polygon class="st0" points="268.7,565.5 232.3,585.9 265.1,606.2 301.5,585.8 	"/>
	<polygon class="st0" points="302.6,586.5 266.1,606.9 298.9,627.2 335.3,606.8 	"/>
	<polygon class="st0" points="1100.9,499.3 1064.5,519.7 1097.3,540.1 1133.7,519.7 	"/>
	<polygon class="st0" points="695.3,646.5 658.9,666.9 691.7,687.2 728.1,666.8 	"/>
	<polygon class="st0" points="762,687.8 729.2,667.5 692.8,687.9 725.5,708.2 	"/>
	<polygon class="st0" points="766.7,646.5 730.3,666.9 763.1,687.2 799.5,666.8 	"/>
	<polygon class="st0" points="804.3,625.4 767.9,645.8 800.6,666.2 837.1,645.8 	"/>
	<polygon class="st0" points="657.8,667.5 615.8,691 648.6,711.3 690.6,687.8 	"/>
	<polygon class="st0" points="647.5,711.9 614.7,691.6 578.3,712 611.1,732.3 	"/>
	<polygon class="st0" points="512,627.9 479.2,607.5 442.8,627.9 475.6,648.2 	"/>
	<polygon class="st0" points="545.9,648.9 513.1,628.5 476.7,648.9 509.5,669.3 	"/>
	<polygon class="st0" points="841.8,604.4 805.4,624.8 838.2,645.2 874.6,624.8 	"/>
	<polygon class="st0" points="613.6,690.9 580.8,670.6 544.4,691 577.2,711.3 	"/>
	<polygon class="st0" points="579.8,669.9 547,649.6 510.6,669.9 543.3,690.3 	"/>
	<polygon class="st0" points="609.9,733 577.2,712.6 540.7,733 573.5,753.4 	"/>
	<polygon class="st0" points="1104.6,457.3 1068.2,477.7 1101,498 1137.4,477.6 	"/>
	<polygon class="st0" points="1142.2,436.3 1105.7,456.7 1138.5,477 1174.9,456.6 	"/>
	<polygon class="st0" points="1067.1,478.3 1030.7,498.7 1063.4,519 1099.9,498.6 	"/>
	<polygon class="st0" points="879.4,583.4 842.9,603.8 875.7,624.1 912.1,603.7 	"/>
	<polygon class="st0" points="1217.3,394.2 1180.8,414.6 1213.6,435 1250,414.6 	"/>
	<polygon class="st0" points="1179.7,415.2 1143.3,435.6 1176.1,456 1212.5,435.6 	"/>
	<polygon class="st0" points="1029.5,499.3 993.1,519.7 1025.9,540.1 1062.3,519.7 	"/>
	<polygon class="st0" points="954.4,541.4 918,561.8 950.8,582.1 987.2,561.7 	"/>
	<polygon class="st0" points="916.9,562.4 880.5,582.8 913.3,603.1 949.7,582.7 	"/>
	<polygon class="st0" points="992,520.3 955.6,540.7 988.3,561.1 1024.8,540.7 	"/>
	<polygon class="st0" points="473,329.9 509.4,309.5 476.7,289.1 440.2,309.5 	"/>
	<polygon class="st0" points="548.1,287.8 584.5,267.4 551.7,247.1 515.3,267.5 	"/>
	<polygon class="st0" points="510.6,308.8 547,288.4 514.2,268.1 477.8,288.5 	"/>
	<polygon class="st0" points="435.5,350.9 471.9,330.5 439.1,310.1 402.7,330.5 	"/>
	<polygon class="st0" points="397.9,371.9 434.3,351.5 401.6,331.2 365.1,351.5 	"/>
	<polygon class="st0" points="585.6,266.8 622.1,246.4 589.3,226.1 552.9,246.4 	"/>
	<polygon class="st0" points="1254.8,373.2 1218.4,393.6 1251.1,413.9 1287.6,393.5 	"/>
	<polygon class="st0" points="623.2,245.8 659.6,225.4 626.8,205 590.4,225.4 	"/>
	<polygon class="st0" points="698.3,203.7 734.7,183.3 701.9,163 665.5,183.4 	"/>
	<polygon class="st0" points="735.8,182.7 772.2,162.3 739.5,142 703,162.4 	"/>
	<polygon class="st0" points="660.7,224.7 697.1,204.4 664.4,184 627.9,204.4 	"/>
	<polygon class="st0" points="204.7,480.1 241.1,459.7 208.3,439.3 171.9,459.7 	"/>
	<polygon class="st0" points="275,480.7 242.2,460.4 205.8,480.8 238.5,501.1 	"/>
	<polygon class="st0" points="342.7,522.8 309.9,502.4 273.5,522.8 306.3,543.1 	"/>
	<polygon class="st0" points="308.8,501.7 276.1,481.4 239.6,501.8 272.4,522.1 	"/>
	<polygon class="st0" points="376.6,543.8 343.8,523.4 307.4,543.8 340.1,564.2 	"/>
	<polygon class="st0" points="410.4,564.8 377.7,544.5 341.2,564.8 374,585.2 	"/>
	<polygon class="st0" points="242.2,459.1 284.2,435.6 251.4,415.2 209.4,438.7 	"/>
	<polygon class="st0" points="444.3,585.8 411.5,565.5 375.1,585.9 407.9,606.2 	"/>
	<polygon class="st0" points="322.8,413.9 359.3,393.5 326.5,373.2 290.1,393.6 	"/>
	<polygon class="st0" points="285.3,435 321.7,414.6 288.9,394.2 252.5,414.6 	"/>
	<polygon class="st0" points="360.4,392.9 396.8,372.5 364,352.2 327.6,372.6 	"/>
	<polygon class="st0" points="478.2,606.8 445.4,586.5 409,606.9 441.7,627.2 	"/>
	<polygon class="st0" points="208.4,438 250.3,414.6 215.6,393 173.7,416.5 	"/>
	<polygon class="st0" points="203.6,480.7 170.8,460.4 134.4,480.8 167.1,501.1 	"/>
	<polygon class="st0" points="251.4,413.9 287.8,393.5 253.1,372 216.7,392.4 	"/>
	<polygon class="st0" points="133.3,480.1 169.7,459.7 135,438.2 98.6,458.6 	"/>
	<polygon class="st0" points="576.1,711.9 543.3,691.6 506.9,712 539.7,732.3 	"/>
	<polygon class="st0" points="170.8,459.1 207.2,438.7 172.5,417.1 136.1,437.5 	"/>
	<polygon class="st0" points="364.1,350.9 400.5,330.5 365.8,308.9 329.4,329.3 	"/>
	<polygon class="st0" points="401.6,329.9 438,309.5 403.3,287.9 366.9,308.3 	"/>
	<polygon class="st0" points="289,392.9 325.4,372.5 290.7,351 254.3,371.4 	"/>
	<polygon class="st0" points="326.5,371.9 362.9,351.5 328.2,330 291.8,350.4 	"/>
	<polygon class="st0" points="474.5,648.9 441.7,628.5 405.3,648.9 438.1,669.3 	"/>
	<polygon class="st0" points="406.7,606.8 374,586.5 337.6,606.9 370.3,627.2 	"/>
	<polygon class="st0" points="440.6,627.9 407.8,607.5 371.4,627.9 404.2,648.2 	"/>
	<polygon class="st0" points="439.1,308.8 475.6,288.4 440.9,266.9 404.4,287.3 	"/>
	<polygon class="st0" points="542.2,690.9 509.4,670.6 473,691 505.8,711.3 	"/>
	<polygon class="st0" points="508.3,669.9 475.6,649.6 439.1,669.9 471.9,690.3 	"/>
	<polygon class="st0" points="339,564.8 306.2,544.5 269.8,564.8 302.6,585.2 	"/>
	<polygon class="st0" points="271.3,522.8 238.5,502.4 202.1,522.8 234.9,543.1 	"/>
	<polygon class="st0" points="305.2,543.8 272.4,523.4 236,543.8 268.7,564.2 	"/>
	<polygon class="st0" points="372.9,585.8 340.1,565.5 303.7,585.9 336.5,606.2 	"/>
	<polygon class="st0" points="237.4,501.7 204.6,481.4 168.2,501.8 201,522.1 	"/>
	<polygon class="st0" points="1184.5,372.6 1217.3,392.9 1253.7,372.5 1220.9,352.2 	"/>
	<polygon class="st0" points="1015.2,267.5 1048,287.8 1084.4,267.4 1051.6,247.1 	"/>
	<polygon class="st0" points="947.4,225.4 980.2,245.8 1016.6,225.4 983.9,205 	"/>
	<polygon class="st0" points="981.3,246.4 1014.1,266.8 1050.5,246.4 1017.7,226.1 	"/>
	<polygon class="st0" points="879.7,183.4 912.5,203.7 948.9,183.3 916.1,163 	"/>
	<polygon class="st0" points="913.6,204.4 946.4,224.7 982.8,204.4 950,184 	"/>
	<polygon class="st0" points="1116.8,330.5 1149.5,350.9 1186,330.5 1153.2,310.1 	"/>
	<polygon class="st0" points="476.7,287.8 513.1,267.4 478.4,245.9 442,266.3 	"/>
	<polygon class="st0" points="1150.6,351.5 1183.4,371.9 1219.8,351.5 1187.1,331.2 	"/>
	<polygon class="st0" points="1082.9,309.5 1115.7,329.9 1152.1,309.5 1119.3,289.1 	"/>
	<polygon class="st0" points="1049,288.5 1081.8,308.8 1118.2,288.4 1085.5,268.1 	"/>
	<polygon class="st0" points="845.9,162.4 878.6,182.7 915.1,162.3 882.3,142 	"/>
	<polygon class="st0" points="742.3,98.1 777,119.6 813.5,99.3 778.8,77.7 	"/>
	<polygon class="st0" points="589.3,224.7 625.7,204.4 591,182.8 554.6,203.2 	"/>
	<polygon class="st0" points="626.9,203.7 663.3,183.3 628.6,161.8 592.2,182.2 	"/>
	<polygon class="st0" points="812,141.3 844.8,161.7 881.2,141.3 848.4,121 	"/>
	<polygon class="st0" points="514.2,266.8 550.6,246.4 516,224.9 479.5,245.3 	"/>
	<polygon class="st0" points="551.8,245.8 588.2,225.4 553.5,203.8 517.1,224.2 	"/>
	<polygon class="st0" points="664.4,182.7 700.8,162.3 666.1,140.8 629.7,161.2 	"/>
	<polygon class="st0" points="778.1,120.3 810.9,140.7 847.3,120.3 814.5,99.9 	"/>
	<polygon class="st0" points="739.5,140.7 775.9,120.3 741.2,98.7 704.8,119.1 	"/>
	<polygon class="st0" points="701.9,161.7 738.4,141.3 703.7,119.8 667.2,140.2 	"/>
	<g>
		<path class="st1" d="M378.5,355.9c-0.5,1.5-0.8,3-0.8,4.5c0,3.1,1.2,6.1,3.2,8.8c3.5,4.8,9.6,9.1,17,13.2
			c11,6.1,24.8,11.8,36.8,17.5c6,2.9,11.5,5.8,16,8.9c4.5,3,8,6.2,9.8,9.5c0.1,0.2,0.4,0.3,0.7,0.2c0.2-0.1,0.3-0.4,0.2-0.7
			c-3-5.3-9.7-10.1-18-14.6c-12.5-6.8-28.7-13.1-41.8-20c-6.5-3.4-12.3-7-16.4-10.8c-4.1-3.8-6.5-7.8-6.5-12.1
			c0-1.4,0.2-2.7,0.7-4.2c0.1-0.3,0-0.5-0.3-0.6C378.9,355.5,378.6,355.6,378.5,355.9L378.5,355.9z"/>
	</g>
	<g>
		<path class="st1" d="M307.1,557.4c-0.1,0.5-0.1,1.1-0.1,1.6c0,2.8,1.4,5.1,3.6,6.8c3.2,2.6,8,4.1,12.5,5c4.5,0.9,8.6,1.2,10.5,1.2
			h0.2c8.1,0,16.6-2.2,23.6-6.4c8.7-5.3,16.2-9.9,25.8-14c9.2-3.9,16.7-8.1,26.6-9.2c9.8-1.2,18.9-2.8,28.6-2.8
			c10.2,0,26.4,1.5,41,1.5c9.1,0,17.6-0.6,23.8-2.4c11.8-3.6,24-10.1,34.1-17.1c0.2-0.2,0.3-0.5,0.1-0.7c-0.2-0.2-0.5-0.3-0.7-0.1
			c-10.1,6.9-22.3,13.4-33.9,16.9c-6,1.8-14.5,2.4-23.5,2.4c-14.6,0-30.8-1.5-41-1.5c-9.9,0-19,1.6-28.8,2.8
			c-10.1,1.2-17.8,5.4-26.9,9.3c-9.6,4.1-17.2,8.8-25.9,14.1c-6.8,4.1-15.2,6.3-23.1,6.3h-0.2c-2.4,0-8.9-0.5-14.7-2.2
			c-2.9-0.9-5.6-2.1-7.6-3.7c-2-1.6-3.2-3.5-3.2-6c0-0.5,0-0.9,0.1-1.4c0-0.3-0.1-0.5-0.4-0.6C307.4,557,307.2,557.2,307.1,557.4z"
			/>
	</g>
	<path class="st2" d="M911.2,512c0,3.8-6,6.9-13.4,6.9c-7.4,0-13.4-3.1-13.4-6.9c0-3.8,6-6.9,13.4-6.9
		C905.2,505,911.2,508.1,911.2,512z"/>
	<g>
		<path class="st1" d="M465.5,523.7c-0.7,0.6-1,1.4-1.2,2.3c-0.2,0.8-0.3,1.7-0.3,2.4c0,1,0.1,1.7,0.1,1.7l0.5-0.1l-0.5,0.1l0,0.1
			c0.1,0.6,0.3,3.3,0.3,9c0,5.2-0.2,12.9-1,23.6c-0.4,5.9-2.7,10.3-5.9,13.8c-4.8,5.1-11.6,7.9-17.2,9.3c-2.8,0.7-5.4,1.1-7.2,1.4
			c-0.9,0.1-1.6,0.2-2.1,0.2c-0.3,0-0.4,0-0.6,0c-0.1,0-0.2,0-0.2,0l0,0l0,0c-6.4,0.6-15.7,3.9-24,8.7c-4.1,2.4-8,5.2-11,8.2
			c-3.1,3-5.3,6.3-6.3,9.7c-0.5,1.9-0.7,3.7-0.7,5.5c0,4.6,1.5,9.1,4,13.3c7.3,12.7,23,23.3,32.7,28.6
			c26.8,14.8,57.1,25.2,88.3,25.2c5.9,0,11.8-0.4,17.7-1.1c17.4-2.3,32.1-9.9,46.6-18.1c14.5-8.2,28.9-16.8,45.9-21.4
			c13.8-3.7,29.6-8.4,38.4-20.1c4.5-5.9,6.8-12.4,8.7-19.3c1.9-6.9,3.2-14.1,5.7-21.8c3.3-10.1,6.1-18.3,10.4-25.4
			c4.3-7.1,10.2-13.2,19.8-19c5.6-3.4,12.4-4.7,19.7-4.7c9.1,0,19,1.9,28.7,3.8c9.7,1.9,19.1,3.8,27.3,3.8v-0.5l0,0.5
			c0,0,0.3,0,0.7,0c0.7,0,1.7,0,2.5-0.5c0.2-0.1,0.3-0.4,0.2-0.7c-0.1-0.2-0.4-0.3-0.7-0.2c-0.4,0.3-1.4,0.4-2,0.4
			c-0.2,0-0.3,0-0.4,0c-0.1,0-0.2,0-0.2,0l0,0h0c-8,0-17.4-1.9-27.1-3.8c-9.7-1.9-19.7-3.8-28.9-3.8c-7.5,0-14.4,1.3-20.3,4.8
			c-9.7,5.9-15.7,12.1-20.1,19.3c-4.4,7.2-7.2,15.5-10.5,25.6c-2.5,7.7-3.9,15-5.7,21.8c-1.8,6.8-4.1,13.1-8.5,18.9
			c-8.5,11.4-24.1,16.1-37.9,19.7c-17.1,4.6-31.6,13.3-46.1,21.5c-14.5,8.1-29,15.7-46.3,18c-5.9,0.8-11.7,1.1-17.6,1.1
			c-31,0-61.2-10.3-87.8-25.1c-6.4-3.5-15.4-9.4-22.9-16.6c-3.7-3.6-7-7.5-9.4-11.7c-2.4-4.1-3.8-8.4-3.8-12.8
			c0-1.7,0.2-3.5,0.7-5.3c0.9-3.1,3-6.3,6-9.2c4.5-4.4,10.7-8.4,17.1-11.4c6.3-3,12.7-4.9,17.3-5.3l0-0.5l0,0.5
			c0,0,8.1-0.3,16.3-3.6c4.1-1.7,8.4-4.1,11.7-7.6c3.3-3.6,5.7-8.3,6.1-14.4c0.8-10.7,1-18.4,1-23.7c0-6.5-0.3-9.2-0.3-9.2v0l0,0
			l0-0.1c0-0.2-0.1-0.8-0.1-1.5c0-0.7,0.1-1.5,0.2-2.2c0.2-0.7,0.5-1.4,0.9-1.7c0.2-0.2,0.2-0.5,0-0.7
			C466,523.5,465.7,523.5,465.5,523.7z"/>
	</g>
	<path class="st3" d="M890.8,586c-0.6-0.3-2,0.8-1.8,1.5c0.1,0.5,1.5,1.3,1.9,1.7"/>
	<g>
		<polygon class="st4" points="1028.8,338.3 1004,322.9 1004,326.1 1028.8,341.5 1056.3,326.1 1056.3,322.8 		"/>
		<path class="st5" d="M1056.3,322.8l-14.4-9l2.5,8.6c0,0-4,7.1-15.3,7.1c-11.3,0-14.5-7.1-14.5-7.1l1.9-6.6l-12.5,7l24.8,15.4
			L1056.3,322.8z"/>
		<path class="st1" d="M1033.5,284.9l-2.8-9.6c-1-0.5-2-0.3-2.6-0.1l-2.8,9.8c1,0.4,2.3,0.8,3.9,0.8
			C1031,285.8,1032.4,285.4,1033.5,284.9z"/>
		<path class="st1" d="M1038.6,302.5l-3.3-11.6c-1.2,0.8-3.1,1.9-6,1.9c-2.7,0-4.6-0.9-5.6-1.8l-3.4,11.7c2.2,1.2,5.2,2.3,9,2.3
			C1033.3,305,1036.3,303.8,1038.6,302.5z"/>
		<path class="st1" d="M1014.6,322.5c0,0,3.2,7.1,14.5,7.1c11.3,0,15.3-7.1,15.3-7.1l-2.5-8.6l-1-3.6c-2.2,1.5-6.1,3.3-11.7,3.3
			c-5.4,0-9-1.7-11-3.1l-1.6,5.5L1014.6,322.5z"/>
		<path class="st6" d="M1035.2,290.9l-1.7-6c-1.1,0.5-2.5,0.9-4.3,0.9c-1.6,0-2.9-0.3-3.9-0.8l-1.7,6c1.1,0.8,2.9,1.8,5.6,1.8
			C1032.1,292.8,1034.1,291.8,1035.2,290.9z"/>
		<path class="st6" d="M1029.1,313.5c5.6,0,9.5-1.8,11.7-3.3l-2.2-7.7c-2.2,1.3-5.2,2.4-9.3,2.4c-3.8,0-6.9-1.1-9-2.3l-2.2,7.7
			C1020.1,311.8,1023.7,313.5,1029.1,313.5z"/>
	</g>
	<g>
		<polygon class="st4" points="538.5,626.5 513.8,611.2 513.8,614.4 538.5,629.8 566,614.4 566,611.1 		"/>
		<path class="st5" d="M566,611.1l-14.4-9l2.5,8.6c0,0-4,7.1-15.3,7.1c-11.3,0-14.5-7.1-14.5-7.1l1.9-6.6l-12.5,7l24.8,15.4
			L566,611.1z"/>
		<path class="st1" d="M543.3,573.2l-2.8-9.6c-1-0.5-2-0.3-2.6-0.1l-2.8,9.8c1,0.4,2.3,0.8,3.9,0.8
			C540.8,574.1,542.2,573.7,543.3,573.2z"/>
		<path class="st1" d="M548.3,590.8l-3.3-11.6c-1.2,0.8-3.1,1.9-6,1.9c-2.7,0-4.6-0.9-5.6-1.8L530,591c2.2,1.2,5.2,2.3,9,2.3
			C543.1,593.2,546.1,592.1,548.3,590.8z"/>
		<path class="st1" d="M524.3,610.8c0,0,3.2,7.1,14.5,7.1c11.3,0,15.3-7.1,15.3-7.1l-2.5-8.6l-1-3.6c-2.2,1.5-6.1,3.3-11.7,3.3
			c-5.4,0-9-1.7-11-3.1l-1.6,5.5L524.3,610.8z"/>
		<path class="st6" d="M545,579.2l-1.7-6c-1.1,0.5-2.5,0.9-4.3,0.9c-1.6,0-2.9-0.3-3.9-0.8l-1.7,6c1.1,0.8,2.9,1.8,5.6,1.8
			C541.9,581.1,543.8,580.1,545,579.2z"/>
		<path class="st6" d="M538.9,601.8c5.6,0,9.5-1.8,11.7-3.3l-2.2-7.7c-2.2,1.3-5.2,2.4-9.3,2.4c-3.8,0-6.9-1.1-9-2.3l-2.2,7.7
			C529.9,600.1,533.4,601.8,538.9,601.8z"/>
	</g>
	<g>
		<g>
			<path class="st6" d="M730.8,462.8c-2.3,1.3-4.2,4.2-4.2,6.5l-0.8,81.6c0,2.3,1.8,3.1,4.1,1.8l90.9-51.3c2.3-1.3,4.2-4.2,4.2-6.5
				l0.8-81.6c0-2.3-1.8-3.1-4.1-1.8L730.8,462.8z"/>
			<path class="st7" d="M726.2,550.6c0,2,1.6,2.7,3.6,1.6l90.9-51.3c2-1.1,3.7-3.7,3.7-5.7l0.8-81.6c0-2-1.6-2.7-3.6-1.6l-90.9,51.3
				c-2,1.1-3.7,3.7-3.7,5.7L726.2,550.6z"/>
			<polygon class="st8" points="730.4,467.1 729.6,544.5 821.1,493.2 821.9,415.8 			"/>
			<path class="st9" d="M797.1,593.4c33.3-18.6,66.3-37.4,99.3-56.1c0.3-0.2,0.3-0.5,0-0.7c-23.1-14-46.9-27.6-70.2-41.5
				c-0.3-0.2-0.8-0.2-1.1-0.1c-33.1,18.7-66.1,37.4-99.2,56.1c-0.3,0.2-0.3,0.4,0.1,0.6c23.2,14,46.4,27.8,70,41.6
				C796.3,593.6,796.8,593.6,797.1,593.4z"/>
			<path class="st10" d="M796,593.4c-23.6-13.8-46.8-27.6-70-41.6c-0.2-0.1-0.3-0.3-0.2-0.4l0,0l0,3.7l0,0c0,0.1,0.1,0.2,0.2,0.3
				c23.2,14,46.4,27.8,70,41.6c0.2,0.1,0.4,0.1,0.6,0.1l0-3.5C796.3,593.5,796.1,593.5,796,593.4z"/>
			<path class="st11" d="M896.4,537.3c-33,18.7-66,37.5-99.3,56.1c-0.1,0.1-0.3,0.1-0.5,0.1l0,3.5c0.2,0,0.4,0,0.5-0.1
				c33.3-18.6,66.3-37.4,99.3-56.1c0.2-0.1,0.2-0.2,0.2-0.4l0-3.5C896.6,537.1,896.5,537.2,896.4,537.3z"/>
			<path class="st12" d="M896,596.8L896,596.8L896,596.8C896,596.8,896,596.8,896,596.8z"/>
			<path class="st13" d="M831.8,569.3c7.1-4,14.2-8,21.3-12c0.3-0.2,0.2-0.4-0.1-0.6c-4-2.4-13-7.8-17-10.2c-0.3-0.2-0.8-0.2-1.1,0
				c-7.1,4.1-14.2,8.1-21.4,12.2c-0.3,0.2-0.2,0.4,0.1,0.6c4.1,2.4,13.1,7.7,17.1,10.1C831,569.4,831.5,569.4,831.8,569.3z"/>
			<path class="st13" d="M743.4,551c-1-0.6-2.5-0.7-3.4-0.2c-0.9,0.5-0.8,1.4,0.2,2c1,0.6,2.5,0.7,3.4,0.2
				C744.4,552.5,744.4,551.6,743.4,551z"/>
			<path class="st14" d="M741.6,551.9C741.6,551.9,741.6,551.9,741.6,551.9C741.6,551.9,741.6,551.9,741.6,551.9
				c0.1-0.1,0.1-0.1,0.1-0.1c0,0,0,0,0,0c0,0,0,0,0,0c0,0,0,0,0,0c-0.2-0.1-0.3-0.2-0.5-0.3c0,0,0,0,0,0c0,0,0,0,0,0c0,0,0,0,0,0
				c0,0,0,0-0.1,0c0,0,0,0,0,0c0,0,0,0,0,0s0,0,0,0c0,0,0,0,0,0C741.2,551.7,741.3,551.8,741.6,551.9
				C741.5,551.9,741.5,551.9,741.6,551.9C741.5,551.9,741.5,551.9,741.6,551.9z M741.4,551.5c0,0,0.1,0.1,0.2,0.1
				c0.1,0,0.2,0,0.3,0.1c0.2,0.1,0.2,0.2,0,0.3c-0.1,0.1-0.4,0.1-0.6,0c-0.1-0.1-0.1-0.1-0.1-0.2c0,0-0.2-0.1-0.3-0.1
				c-0.1,0.1,0,0.3,0.2,0.4c0.3,0.2,0.7,0.2,1,0c0.3-0.1,0.2-0.4,0-0.6C741.9,551.5,741.6,551.5,741.4,551.5z"/>
			<path class="st15" d="M833,506.9c-0.3-0.2-0.8-0.2-1.1,0c-28.7,16.2-57.4,32.4-86.1,48.5c-0.3,0.2-0.3,0.4,0.1,0.6
				c11.2,6.7,22.4,13.3,33.7,20c0.3,0.2,0.8,0.2,1.1,0c28.7-16.1,57.1-32.5,85.7-48.7c0.3-0.2,0.3-0.4,0-0.6
				C855.2,520.2,844.1,513.6,833,506.9z M854.6,526.5c0.2,0.1,0.2,0.3,0,0.3c-1.6,0.9-2.5,1.4-4.1,2.3c-0.2,0.1-0.4,0.1-0.6,0
				c-1.7-1-2.6-1.6-4.3-2.6c-0.2-0.1-0.2-0.3,0-0.3c1.6-0.9,2.5-1.4,4.1-2.3c0.2-0.1,0.4-0.1,0.6,0C852,525,852.9,525.5,854.6,526.5
				z M849,523.5c-4.7,2.7-9.5,5.4-14.2,8.1c-0.2,0.1-0.4,0.1-0.6,0c-1.7-1-2.6-1.6-4.3-2.6c-0.2-0.1-0.2-0.2,0-0.3
				c2.6-1.4,5.1-2.9,7.7-4.3c-2.1-1.3-3.2-1.9-5.3-3.2c-0.2-0.1-0.2-0.3,0-0.3c2.5-1.4,3.8-2.1,6.3-3.6c0.2-0.1,0.4-0.1,0.6,0
				c3.3,2,6.6,4,9.9,6C849.2,523.2,849.2,523.4,849,523.5z M774.2,560.4c-0.2-0.1-0.2-0.2,0-0.3c1.6-0.9,2.4-1.4,4-2.3
				c0.2-0.1,0.4-0.1,0.6,0c1.8,1,2.6,1.6,4.4,2.6c0.2,0.1,0.2,0.2,0,0.3c-1.6,0.9-2.4,1.4-4,2.3c-0.2,0.1-0.4,0.1-0.6,0
				C776.9,562,776,561.4,774.2,560.4z M771.2,560.9c-0.2,0.1-0.4,0.1-0.6,0c-1.8-1-2.6-1.6-4.4-2.6c-0.2-0.1-0.2-0.3,0-0.3
				c1.6-0.9,2.4-1.4,4-2.3c0.2-0.1,0.4-0.1,0.6,0c1.8,1,2.7,1.6,4.4,2.6c0.2,0.1,0.2,0.2,0,0.3C773.7,559.6,772.8,560,771.2,560.9z
				 M775.7,558.1c-1.8-1-2.7-1.6-4.4-2.6c-0.2-0.1-0.2-0.2,0-0.3c1.6-0.9,2.4-1.4,4-2.3c0.2-0.1,0.4-0.1,0.6,0
				c1.8,1,2.7,1.6,4.4,2.6c0.2,0.1,0.2,0.2,0,0.3c-1.6,0.9-2.4,1.4-4,2.3C776.2,558.2,775.9,558.2,775.7,558.1z M782.7,562.2
				c-0.2-0.1-0.2-0.2,0-0.3c1.6-0.9,2.4-1.4,4-2.3c0.2-0.1,0.4-0.1,0.6,0c1.8,1,2.7,1.6,4.4,2.6c0.2,0.1,0.2,0.2,0,0.3
				c-1.6,0.9-2.4,1.4-4,2.3c-0.2,0.1-0.4,0.1-0.6,0C785.4,563.7,784.5,563.2,782.7,562.2z M784.3,560.2c-0.2,0.1-0.4,0.1-0.6,0
				c-1.8-1-2.6-1.6-4.4-2.6c-0.2-0.1-0.2-0.2,0-0.3c1.6-0.9,2.4-1.4,4-2.3c0.2-0.1,0.4-0.1,0.6,0c1.8,1,2.6,1.6,4.4,2.6
				c0.2,0.1,0.2,0.2,0,0.3C786.7,558.8,785.9,559.3,784.3,560.2z M780.8,555.2c-1.8-1-2.6-1.6-4.4-2.6c-0.2-0.1-0.2-0.2,0-0.3
				c1.6-0.9,2.4-1.4,4-2.3c0.2-0.1,0.4-0.1,0.6,0c1.8,1,2.6,1.6,4.4,2.6c0.2,0.1,0.2,0.2,0,0.3c-1.6,0.9-2.4,1.4-4,2.3
				C781.2,555.3,781,555.3,780.8,555.2z M787.8,559.3c-0.2-0.1-0.2-0.2,0-0.3c1.6-0.9,2.4-1.4,4-2.3c0.2-0.1,0.4-0.1,0.6,0
				c1.8,1,2.6,1.6,4.4,2.6c0.2,0.1,0.2,0.2,0,0.3c-1.6,0.9-2.4,1.4-4,2.3c-0.2,0.1-0.4,0.1-0.6,0
				C790.4,560.9,789.6,560.4,787.8,559.3z M789.3,557.3c-0.2,0.1-0.4,0.1-0.6,0c-1.8-1-2.6-1.6-4.4-2.6c-0.2-0.1-0.2-0.2,0-0.3
				c1.6-0.9,2.4-1.4,4-2.3c0.2-0.1,0.4-0.1,0.6,0c1.8,1,2.6,1.6,4.4,2.6c0.2,0.1,0.2,0.2,0,0.3C791.7,556,790.9,556.4,789.3,557.3z
				 M785.9,552.4c-1.8-1-2.6-1.6-4.4-2.6c-0.2-0.1-0.2-0.2,0-0.3c1.6-0.9,2.4-1.4,4-2.3c0.2-0.1,0.4-0.1,0.6,0
				c1.8,1,2.6,1.6,4.4,2.6c0.2,0.1,0.2,0.2,0,0.3c-1.6,0.9-2.4,1.4-4,2.3C786.3,552.5,786,552.4,785.9,552.4z M792.8,556.5
				c-0.2-0.1-0.2-0.2,0-0.3c1.6-0.9,2.4-1.4,4-2.3c0.1-0.1,0.4-0.1,0.6,0c1.8,1,2.6,1.6,4.4,2.6c0.2,0.1,0.2,0.2,0,0.3
				c-1.6,0.9-2.4,1.4-4,2.3c-0.2,0.1-0.4,0.1-0.6,0C795.5,558,794.6,557.5,792.8,556.5z M794.4,554.5c-0.2,0.1-0.4,0.1-0.6,0
				c-1.8-1-2.6-1.6-4.4-2.6c-0.2-0.1-0.2-0.2,0-0.3c1.6-0.9,2.4-1.4,4-2.3c0.2-0.1,0.4-0.1,0.6,0c1.8,1,2.6,1.6,4.4,2.6
				c0.2,0.1,0.2,0.2,0,0.3C796.8,553.1,796,553.6,794.4,554.5z M790.9,549.5c-1.8-1-2.6-1.6-4.4-2.6c-0.2-0.1-0.2-0.3,0-0.3
				c1.6-0.9,2.4-1.4,4-2.3c0.2-0.1,0.4-0.1,0.6,0c1.8,1,2.6,1.6,4.4,2.6c0.2,0.1,0.2,0.2,0,0.3c-1.6,0.9-2.4,1.4-4,2.3
				C791.3,549.6,791.1,549.6,790.9,549.5z M797.9,553.6c-0.2-0.1-0.2-0.2,0-0.3c1.6-0.9,2.4-1.4,4-2.3c0.2-0.1,0.4-0.1,0.6,0
				c1.8,1,2.6,1.6,4.4,2.6c0.2,0.1,0.2,0.2,0,0.3c-1.6,0.9-2.4,1.4-4,2.3c-0.2,0.1-0.4,0.1-0.6,0
				C800.5,555.2,799.6,554.7,797.9,553.6z M799.4,551.6c-0.2,0.1-0.4,0.1-0.6,0c-1.8-1-2.6-1.6-4.4-2.6c-0.2-0.1-0.2-0.2,0-0.3
				c1.6-0.9,2.4-1.4,4-2.3c0.2-0.1,0.4-0.1,0.6,0c1.8,1,2.6,1.6,4.4,2.6c0.2,0.1,0.2,0.2,0,0.3C801.8,550.3,801,550.7,799.4,551.6z
				 M795.9,546.7c-1.8-1-2.6-1.6-4.4-2.6c-0.2-0.1-0.2-0.2,0-0.3c1.6-0.9,2.4-1.4,4-2.3c0.2-0.1,0.4-0.1,0.6,0
				c1.8,1,2.6,1.6,4.4,2.6c0.2,0.1,0.2,0.2,0,0.3c-1.6,0.9-2.4,1.4-4,2.3C796.4,546.8,796.1,546.8,795.9,546.7z M802.9,550.8
				c-0.2-0.1-0.2-0.2,0-0.3c1.6-0.9,2.4-1.4,4-2.3c0.1-0.1,0.4-0.1,0.6,0c1.7,1,2.6,1.6,4.4,2.6c0.2,0.1,0.2,0.2,0,0.3
				c-1.6,0.9-2.4,1.4-4,2.3c-0.2,0.1-0.4,0.1-0.6,0C805.5,552.3,804.6,551.8,802.9,550.8z M804.4,548.8c-0.2,0.1-0.4,0.1-0.6,0
				c-1.8-1-2.6-1.6-4.4-2.6c-0.2-0.1-0.2-0.3,0-0.3c1.6-0.9,2.4-1.4,4-2.3c0.2-0.1,0.4-0.1,0.6,0c1.7,1,2.6,1.6,4.4,2.6
				c0.2,0.1,0.2,0.2,0,0.3C806.8,547.4,806,547.9,804.4,548.8z M801,543.8c-1.8-1-2.6-1.6-4.4-2.6c-0.2-0.1-0.2-0.3,0-0.3
				c1.6-0.9,2.4-1.4,4-2.3c0.2-0.1,0.4-0.1,0.6,0c1.7,1.1,2.6,1.6,4.4,2.6c0.2,0.1,0.2,0.2,0,0.3c-1.6,0.9-2.4,1.4-4,2.3
				C801.4,543.9,801.1,543.9,801,543.8z M807.9,547.9c-0.2-0.1-0.2-0.2,0-0.3c1.6-0.9,2.4-1.4,4-2.3c0.1-0.1,0.4-0.1,0.6,0
				c1.7,1,2.6,1.6,4.4,2.6c0.2,0.1,0.2,0.2,0,0.3c-1.6,0.9-2.4,1.4-4,2.3c-0.2,0.1-0.4,0.1-0.6,0C810.5,549.5,809.6,549,807.9,547.9
				z M809.4,545.9c-0.2,0.1-0.4,0.1-0.6,0c-1.7-1-2.6-1.6-4.4-2.6c-0.2-0.1-0.2-0.3,0-0.3c1.6-0.9,2.4-1.4,4-2.3
				c0.2-0.1,0.4-0.1,0.6,0c1.7,1,2.6,1.6,4.4,2.6c0.2,0.1,0.2,0.3,0,0.3C811.8,544.6,811,545,809.4,545.9z M806,541
				c-1.7-1-2.6-1.6-4.4-2.6c-0.2-0.1-0.2-0.3,0-0.3c1.6-0.9,2.4-1.4,4-2.3c0.2-0.1,0.4-0.1,0.6,0c1.7,1.1,2.6,1.6,4.4,2.6
				c0.2,0.1,0.2,0.2,0,0.3c-1.6,0.9-2.4,1.4-4,2.3C806.4,541.1,806.2,541.1,806,541z M812.9,545.1c-0.2-0.1-0.2-0.3,0-0.3
				c1.6-0.9,2.4-1.4,4-2.3c0.2-0.1,0.4-0.1,0.6,0c1.7,1,2.6,1.6,4.3,2.6c0.2,0.1,0.2,0.2,0,0.3c-1.6,0.9-2.4,1.4-4,2.3
				c-0.1,0.1-0.4,0.1-0.6,0C815.5,546.7,814.7,546.1,812.9,545.1z M814.5,543.1c-0.2,0.1-0.4,0.1-0.6,0c-1.7-1-2.6-1.6-4.4-2.6
				c-0.2-0.1-0.2-0.3,0-0.3c1.6-0.9,2.4-1.4,4-2.3c0.2-0.1,0.4-0.1,0.6,0c1.7,1,2.6,1.6,4.3,2.6c0.2,0.1,0.2,0.2,0,0.3
				C816.9,541.7,816.1,542.2,814.5,543.1z M811.1,538.1c-1.7-1-2.6-1.6-4.4-2.6c-0.2-0.1-0.2-0.3,0-0.3c1.6-0.9,2.4-1.4,4-2.3
				c0.2-0.1,0.4-0.1,0.6,0c1.7,1.1,2.6,1.6,4.3,2.6c0.2,0.1,0.2,0.2,0,0.3c-1.6,0.9-2.4,1.4-4,2.3
				C811.5,538.2,811.2,538.2,811.1,538.1z M817.9,542.2c-0.2-0.1-0.2-0.2,0-0.3c1.6-0.9,2.4-1.4,4-2.3c0.2-0.1,0.4-0.1,0.6,0
				c1.7,1,2.6,1.6,4.3,2.6c0.2,0.1,0.2,0.3,0,0.3c-1.6,0.9-2.4,1.4-4,2.3c-0.2,0.1-0.4,0.1-0.6,0
				C820.5,543.8,819.7,543.3,817.9,542.2z M819.5,540.2c-0.1,0.1-0.4,0.1-0.6,0c-1.7-1-2.6-1.6-4.3-2.6c-0.2-0.1-0.2-0.2,0-0.3
				c1.6-0.9,2.4-1.4,4-2.3c0.2-0.1,0.4-0.1,0.6,0c1.7,1,2.6,1.6,4.3,2.6c0.2,0.1,0.2,0.3,0,0.3C821.9,538.9,821.1,539.3,819.5,540.2
				z M816.1,535.2c-1.7-1-2.6-1.6-4.3-2.6c-0.2-0.1-0.2-0.3,0-0.3c1.6-0.9,2.4-1.4,4-2.3c0.2-0.1,0.4-0.1,0.6,0
				c1.7,1.1,2.6,1.6,4.3,2.6c0.2,0.1,0.2,0.3,0,0.3c-1.6,0.9-2.4,1.4-4,2.3C816.5,535.4,816.3,535.3,816.1,535.2z M823,539.4
				c-0.2-0.1-0.2-0.3,0-0.3c1.6-0.9,2.4-1.4,4-2.3c0.2-0.1,0.4-0.1,0.6,0c1.7,1,2.6,1.6,4.3,2.6c0.2,0.1,0.2,0.3,0,0.3
				c-1.6,0.9-2.4,1.4-4,2.3c-0.2,0.1-0.4,0.1-0.6,0C825.6,541,824.7,540.4,823,539.4z M824.5,537.4c-0.2,0.1-0.4,0.1-0.6,0
				c-1.7-1-2.6-1.6-4.3-2.6c-0.2-0.1-0.2-0.2,0-0.3c1.6-0.9,2.4-1.4,4-2.3c0.2-0.1,0.4-0.1,0.6,0c1.7,1,2.6,1.6,4.3,2.6
				c0.2,0.1,0.2,0.3,0,0.3C826.9,536,826.1,536.5,824.5,537.4z M821.2,532.4c-1.7-1-2.6-1.6-4.3-2.6c-0.2-0.1-0.2-0.3,0-0.3
				c1.6-0.9,2.4-1.4,4-2.3c0.2-0.1,0.4-0.1,0.6,0c1.7,1.1,2.6,1.6,4.3,2.6c0.2,0.1,0.2,0.3,0,0.3c-1.6,0.9-2.4,1.4-4,2.3
				C821.6,532.5,821.3,532.5,821.2,532.4z M828,536.5c-0.2-0.1-0.2-0.2,0-0.3c1.6-0.9,2.4-1.4,4-2.3c0.2-0.1,0.4-0.1,0.6,0
				c1.7,1,2.6,1.6,4.3,2.6c0.2,0.1,0.2,0.2,0,0.3c-1.6,0.9-2.4,1.4-4,2.3c-0.2,0.1-0.4,0.1-0.6,0C830.6,538.1,829.7,537.6,828,536.5
				z M829.6,534.5c-0.2,0.1-0.4,0.1-0.6,0c-1.7-1-2.6-1.6-4.3-2.6c-0.2-0.1-0.2-0.3,0-0.3c1.6-0.9,2.4-1.4,4-2.3
				c0.2-0.1,0.4-0.1,0.6,0c1.7,1,2.6,1.6,4.3,2.6c0.2,0.1,0.2,0.2,0,0.3C832,533.1,831.2,533.6,829.6,534.5z M826.2,529.5
				c-1.7-1-2.6-1.6-4.3-2.6c-0.2-0.1-0.2-0.3,0-0.3c1.6-0.9,2.4-1.4,4-2.3c0.2-0.1,0.4-0.1,0.6,0c1.7,1,2.6,1.6,4.3,2.6
				c0.2,0.1,0.2,0.3,0,0.3c-1.6,0.9-2.4,1.4-4,2.3C826.7,529.6,826.4,529.6,826.2,529.5z M833.3,533.5c-0.2-0.1-0.2-0.2,0-0.3
				c3.7-2.1,7.4-4.2,11.1-6.3c0.2-0.1,0.4-0.1,0.6,0c1.7,1,2.6,1.6,4.3,2.6c0.2,0.1,0.2,0.3,0,0.3c-3.7,2.1-7.4,4.2-11.1,6.3
				c-0.2,0.1-0.4,0.1-0.6,0C835.9,535.1,835,534.6,833.3,533.5z M831.3,526.6c-1.7-1-2.6-1.6-4.3-2.6c-0.2-0.1-0.2-0.3,0-0.3
				c1.6-0.9,2.4-1.4,4.1-2.3c0.2-0.1,0.4-0.1,0.6,0c1.7,1,2.6,1.6,4.3,2.6c0.2,0.1,0.2,0.3,0,0.3c-1.6,0.9-2.4,1.4-4.1,2.3
				C831.8,526.7,831.5,526.7,831.3,526.6z M837.8,516.8c-4.7,2.7-9.4,5.3-14.2,8c-0.2,0.1-0.4,0.1-0.6,0c-1.7-1-2.6-1.6-4.4-2.6
				c-0.2-0.1-0.2-0.3,0-0.3c4.7-2.7,9.4-5.3,14.1-8c0.2-0.1,0.4-0.1,0.6,0c1.8,1.1,2.6,1.6,4.4,2.6
				C837.9,516.5,837.9,516.7,837.8,516.8z M823.1,513c-0.2-0.1-0.2-0.3,0-0.3c1.6-0.9,2.4-1.4,4.1-2.3c0.2-0.1,0.4-0.1,0.6,0
				c1.8,1.1,2.6,1.6,4.4,2.7c0.2,0.1,0.2,0.3,0,0.3c-1.6,0.9-2.4,1.4-4.1,2.3c-0.2,0.1-0.4,0.1-0.6,0
				C825.8,514.6,824.9,514.1,823.1,513z M818,515.9c-0.2-0.1-0.2-0.3,0-0.3c1.6-0.9,2.4-1.4,4-2.3c0.2-0.1,0.4-0.1,0.6,0
				c1.8,1.1,2.6,1.6,4.4,2.7c0.2,0.1,0.2,0.3,0,0.3c-1.6,0.9-2.4,1.4-4.1,2.3c-0.2,0.1-0.4,0.1-0.6,0
				C820.6,517.5,819.8,516.9,818,515.9z M812.9,518.7c-0.2-0.1-0.2-0.3,0-0.3c1.6-0.9,2.4-1.4,4-2.3c0.2-0.1,0.4-0.1,0.6,0
				c1.8,1.1,2.6,1.6,4.4,2.7c0.2,0.1,0.2,0.3,0,0.3c-1.6,0.9-2.4,1.4-4,2.3c-0.2,0.1-0.4,0.1-0.6,0
				C815.5,520.4,814.7,519.8,812.9,518.7z M807.8,521.6c-0.2-0.1-0.2-0.3,0-0.3c1.6-0.9,2.4-1.4,4-2.3c0.2-0.1,0.4-0.1,0.6,0
				c1.8,1.1,2.6,1.6,4.4,2.7c0.2,0.1,0.2,0.3,0,0.3c-1.6,0.9-2.4,1.4-4,2.3c-0.2,0.1-0.4,0.1-0.6,0
				C810.5,523.2,809.6,522.7,807.8,521.6z M813.5,525.1c-0.2-0.1-0.2-0.3,0-0.3c1.6-0.9,2.4-1.4,4-2.3c0.2-0.1,0.4-0.1,0.6,0
				c1.7,1.1,2.6,1.6,4.4,2.6c0.2,0.1,0.2,0.3,0,0.3c-1.6,0.9-2.4,1.4-4,2.3c-0.2,0.1-0.4,0.1-0.6,0
				C816.1,526.6,815.2,526.1,813.5,525.1z M802.7,524.5c-0.2-0.1-0.2-0.3,0-0.3c1.6-0.9,2.4-1.4,4-2.3c0.2-0.1,0.4-0.1,0.6,0
				c1.8,1.1,2.6,1.6,4.4,2.7c0.2,0.1,0.2,0.3,0,0.3c-1.6,0.9-2.4,1.4-4,2.3c-0.2,0.1-0.4,0.1-0.6,0
				C805.4,526.1,804.5,525.6,802.7,524.5z M808.4,527.9c-0.2-0.1-0.2-0.3,0-0.3c1.6-0.9,2.4-1.4,4-2.3c0.2-0.1,0.4-0.1,0.6,0
				c1.7,1.1,2.6,1.6,4.4,2.6c0.2,0.1,0.2,0.3,0,0.3c-1.6,0.9-2.4,1.4-4,2.3c-0.2,0.1-0.4,0.1-0.6,0C811,529.5,810.1,529,808.4,527.9
				z M797.7,527.4c-0.2-0.1-0.2-0.3,0-0.3c1.6-0.9,2.4-1.4,4-2.3c0.2-0.1,0.4-0.1,0.6,0c1.8,1.1,2.6,1.6,4.4,2.7
				c0.2,0.1,0.2,0.3,0,0.3c-1.6,0.9-2.4,1.4-4,2.3c-0.2,0.1-0.4,0.1-0.6,0C800.3,529,799.4,528.4,797.7,527.4z M803.3,530.8
				c-0.2-0.1-0.2-0.3,0-0.3c1.6-0.9,2.4-1.4,4-2.3c0.2-0.1,0.4-0.1,0.6,0c1.7,1.1,2.6,1.6,4.4,2.6c0.2,0.1,0.2,0.3,0,0.3
				c-1.6,0.9-2.4,1.4-4,2.3c-0.2,0.1-0.4,0.1-0.6,0C805.9,532.4,805.1,531.9,803.3,530.8z M792.6,530.2c-0.2-0.1-0.2-0.3,0-0.3
				c1.6-0.9,2.4-1.4,4-2.3c0.2-0.1,0.4-0.1,0.6,0c1.8,1.1,2.6,1.6,4.4,2.7c0.2,0.1,0.2,0.3,0,0.3c-1.6,0.9-2.4,1.4-4,2.3
				c-0.2,0.1-0.4,0.1-0.6,0C795.2,531.8,794.3,531.3,792.6,530.2z M798.3,533.6c-0.2-0.1-0.2-0.3,0-0.3c1.6-0.9,2.4-1.4,4-2.3
				c0.2-0.1,0.4-0.1,0.6,0c1.8,1.1,2.6,1.6,4.4,2.6c0.2,0.1,0.2,0.3,0,0.3c-1.6,0.9-2.4,1.4-4,2.3c-0.2,0.1-0.4,0.1-0.6,0
				C800.9,535.2,800,534.7,798.3,533.6z M787.5,533.1c-0.2-0.1-0.2-0.3,0-0.3c1.6-0.9,2.4-1.4,4-2.3c0.2-0.1,0.4-0.1,0.6,0
				c1.8,1.1,2.6,1.6,4.4,2.7c0.2,0.1,0.2,0.3,0,0.3c-1.6,0.9-2.4,1.4-4,2.3c-0.2,0.1-0.4,0.1-0.6,0
				C790.2,534.7,789.3,534.1,787.5,533.1z M793.2,536.2c1.6-0.9,2.4-1.4,4-2.3c0.2-0.1,0.4-0.1,0.6,0c1.8,1.1,2.6,1.6,4.4,2.6
				c0.2,0.1,0.2,0.3,0,0.3c-1.6,0.9-2.4,1.4-4,2.3c-0.2,0.1-0.4,0.1-0.6,0c-1.8-1.1-2.6-1.6-4.4-2.6
				C793,536.4,793,536.3,793.2,536.2z M782.4,535.9c-0.2-0.1-0.2-0.3,0-0.3c1.6-0.9,2.4-1.4,4-2.3c0.2-0.1,0.4-0.1,0.6,0
				c1.8,1.1,2.6,1.6,4.4,2.7c0.2,0.1,0.2,0.3,0,0.3c-1.6,0.9-2.4,1.4-4,2.3c-0.2,0.1-0.4,0.1-0.6,0
				C785.1,537.5,784.2,537,782.4,535.9z M788.1,539c1.6-0.9,2.4-1.4,4-2.3c0.2-0.1,0.4-0.1,0.6,0c1.8,1.1,2.6,1.6,4.4,2.6
				c0.2,0.1,0.2,0.3,0,0.3c-1.6,0.9-2.4,1.4-4,2.3c-0.2,0.1-0.4,0.1-0.6,0c-1.8-1-2.6-1.6-4.4-2.6C788,539.3,788,539.1,788.1,539z
				 M777.4,538.8c-0.2-0.1-0.2-0.3,0-0.3c1.6-0.9,2.4-1.4,4-2.3c0.2-0.1,0.4-0.1,0.6,0c1.8,1.1,2.7,1.6,4.4,2.7
				c0.2,0.1,0.2,0.3,0,0.3c-1.6,0.9-2.4,1.4-4,2.3c-0.2,0.1-0.4,0.1-0.6,0C780,540.4,779.1,539.9,777.4,538.8z M783,541.9
				c1.6-0.9,2.4-1.4,4-2.3c0.2-0.1,0.4-0.1,0.6,0c1.8,1.1,2.6,1.6,4.4,2.6c0.2,0.1,0.2,0.2,0,0.3c-1.6,0.9-2.4,1.4-4,2.3
				c-0.2,0.1-0.4,0.1-0.6,0c-1.8-1-2.6-1.6-4.4-2.6C782.9,542.1,782.9,542,783,541.9z M772.3,541.7c-0.2-0.1-0.2-0.3,0-0.3
				c1.6-0.9,2.4-1.4,4-2.3c0.2-0.1,0.4-0.1,0.6,0c1.8,1.1,2.7,1.6,4.4,2.7c0.2,0.1,0.2,0.3,0,0.3c-1.6,0.9-2.4,1.4-4,2.3
				c-0.2,0.1-0.4,0.1-0.6,0C775,543.3,774.1,542.7,772.3,541.7z M778,544.7c1.6-0.9,2.4-1.4,4-2.3c0.2-0.1,0.4-0.1,0.6,0
				c1.8,1.1,2.6,1.6,4.4,2.6c0.2,0.1,0.2,0.2,0,0.3c-1.6,0.9-2.4,1.4-4,2.3c-0.2,0.1-0.4,0.1-0.6,0c-1.8-1-2.6-1.6-4.4-2.6
				C777.8,545,777.8,544.8,778,544.7z M767.2,544.5c-0.2-0.1-0.2-0.3,0-0.3c1.6-0.9,2.4-1.4,4-2.3c0.2-0.1,0.4-0.1,0.6,0
				c1.8,1.1,2.7,1.6,4.4,2.6c0.2,0.1,0.2,0.3,0,0.3c-1.6,0.9-2.4,1.4-4,2.3c-0.2,0.1-0.4,0.1-0.6,0
				C769.9,546.1,769,545.6,767.2,544.5z M772.9,547.6c1.6-0.9,2.4-1.4,4-2.3c0.2-0.1,0.4-0.1,0.6,0c1.8,1.1,2.7,1.6,4.4,2.6
				c0.2,0.1,0.2,0.3,0,0.3c-1.6,0.9-2.4,1.4-4,2.3c-0.2,0.1-0.4,0.1-0.6,0c-1.8-1-2.7-1.6-4.4-2.6
				C772.8,547.8,772.8,547.7,772.9,547.6z M762.1,547.4c-0.2-0.1-0.2-0.3,0-0.3c1.6-0.9,2.4-1.4,4-2.3c0.2-0.1,0.4-0.1,0.6,0
				c1.8,1.1,2.7,1.6,4.4,2.6c0.2,0.1,0.2,0.3,0,0.3c-1.6,0.9-2.4,1.4-4,2.3c-0.2,0.1-0.4,0.1-0.6,0
				C764.8,549,763.9,548.4,762.1,547.4z M767.8,550.5c1.6-0.9,2.4-1.4,4-2.3c0.2-0.1,0.4-0.1,0.6,0c1.8,1.1,2.7,1.6,4.4,2.6
				c0.2,0.1,0.2,0.2,0,0.3c-1.6,0.9-2.4,1.4-4,2.3c-0.2,0.1-0.4,0.1-0.6,0c-1.8-1-2.7-1.6-4.4-2.6
				C767.7,550.7,767.7,550.5,767.8,550.5z M757,550.2c-0.2-0.1-0.2-0.3,0-0.3c1.6-0.9,2.4-1.4,4-2.3c0.2-0.1,0.4-0.1,0.6,0
				c1.8,1.1,2.7,1.6,4.4,2.6c0.2,0.1,0.2,0.3,0,0.3c-1.6,0.9-2.4,1.4-4,2.3c-0.2,0.1-0.4,0.1-0.6,0
				C759.7,551.8,758.8,551.3,757,550.2z M762.8,553.3c1.6-0.9,2.4-1.4,4-2.3c0.2-0.1,0.4-0.1,0.6,0c1.8,1.1,2.7,1.6,4.4,2.6
				c0.2,0.1,0.2,0.2,0,0.3c-1.6,0.9-2.4,1.4-4,2.3c-0.2,0.1-0.4,0.1-0.6,0c-1.8-1-2.7-1.6-4.4-2.6
				C762.6,553.5,762.6,553.4,762.8,553.3z M752,553.1c-0.2-0.1-0.2-0.3,0-0.3c1.6-0.9,2.4-1.4,4-2.3c0.2-0.1,0.4-0.1,0.6,0
				c1.8,1.1,2.7,1.6,4.4,2.6c0.2,0.1,0.2,0.3,0,0.3c-1.6,0.9-2.4,1.4-4,2.3c-0.2,0.1-0.4,0.1-0.6,0
				C754.6,554.7,753.7,554.2,752,553.1z M757.7,556.2c1.6-0.9,2.4-1.4,4-2.3c0.2-0.1,0.4-0.1,0.6,0c1.8,1.1,2.7,1.6,4.4,2.6
				c0.2,0.1,0.2,0.3,0,0.3c-1.6,0.9-2.4,1.4-4,2.3c-0.2,0.1-0.4,0.1-0.6,0c-1.8-1-2.7-1.6-4.4-2.6
				C757.5,556.4,757.5,556.3,757.7,556.2z M746.9,556c-0.2-0.1-0.2-0.3,0-0.3c1.6-0.9,2.4-1.4,4-2.3c0.2-0.1,0.4-0.1,0.6,0
				c1.8,1.1,2.7,1.6,4.4,2.6c0.2,0.1,0.2,0.3,0,0.3c-1.6,0.9-2.4,1.4-4,2.3c-0.2,0.1-0.4,0.1-0.6,0C749.5,557.6,748.6,557,746.9,556
				z M752.6,559.4c-0.2-0.1-0.2-0.3,0-0.3c1.6-0.9,2.4-1.4,4.1-2.3c0.2-0.1,0.4-0.1,0.6,0c1.8,1.1,2.7,1.6,4.4,2.6
				c0.2,0.1,0.2,0.3,0,0.3c-1.6,0.9-2.4,1.4-4.1,2.3c-0.2,0.1-0.4,0.1-0.6,0C755.2,561,754.4,560.4,752.6,559.4z M758.3,562.8
				c-0.2-0.1-0.2-0.2,0-0.3c2.3-1.3,4.6-2.6,6.8-3.8c0.2-0.1,0.4-0.1,0.6,0c1.8,1,2.7,1.6,4.4,2.6c0.2,0.1,0.2,0.2,0,0.3
				c-2.3,1.3-4.6,2.6-6.8,3.9c-0.2,0.1-0.4,0.1-0.6,0C761,564.3,760.1,563.8,758.3,562.8z M764,566.2c-0.2-0.1-0.2-0.3,0-0.3
				c3-1.7,6.1-3.4,9.1-5.1c0.2-0.1,0.4-0.1,0.6,0c1.8,1,2.7,1.6,4.4,2.6c0.2,0.1,0.2,0.2,0,0.3c-3,1.7-6.1,3.4-9.1,5.1
				c-0.2,0.1-0.4,0.1-0.6,0C766.6,567.7,765.8,567.2,764,566.2z M769.7,569.5c-0.2-0.1-0.2-0.2,0-0.3c4-2.2,7.9-4.5,11.9-6.7
				c0.2-0.1,0.4-0.1,0.6,0c1.8,1,2.7,1.6,4.4,2.6c0.2,0.1,0.2,0.3,0,0.3c-4,2.2-7.9,4.5-11.9,6.7c-0.2,0.1-0.4,0.1-0.6,0
				C772.3,571.1,771.5,570.6,769.7,569.5z M784.5,572.9c0.2,0.1,0.2,0.3,0,0.3c-1.6,0.9-2.4,1.4-4.1,2.3c-0.2,0.1-0.4,0.1-0.6,0
				c-1.8-1-2.7-1.6-4.4-2.6c-0.2-0.1-0.2-0.3,0-0.3c1.6-0.9,2.4-1.4,4.1-2.3c0.2-0.1,0.4-0.1,0.6,0
				C781.8,571.3,782.7,571.8,784.5,572.9z M789.6,570c0.2,0.1,0.2,0.3,0,0.3c-1.6,0.9-2.4,1.4-4,2.3c-0.2,0.1-0.4,0.1-0.6,0
				c-1.8-1-2.7-1.6-4.4-2.6c-0.2-0.1-0.2-0.2,0-0.3c1.6-0.9,2.4-1.4,4-2.3c0.2-0.1,0.4-0.1,0.6,0C786.9,568.4,787.8,568.9,789.6,570
				z M839.7,541.5c0.2,0.1,0.2,0.3,0,0.3c-16.3,9.3-32.6,18.6-49,27.8c-0.2,0.1-0.4,0.1-0.6,0c-1.8-1-2.7-1.6-4.4-2.6
				c-0.2-0.1-0.2-0.2,0-0.3c16.4-9.2,32.7-18.5,49.1-27.8c0.2-0.1,0.4-0.1,0.6,0C837.1,539.9,837.9,540.5,839.7,541.5z M844.8,538.6
				c0.2,0.1,0.2,0.3,0,0.3c-1.6,0.9-2.4,1.4-4,2.3c-0.2,0.1-0.4,0.1-0.6,0c-1.7-1-2.6-1.6-4.3-2.6c-0.2-0.1-0.2-0.2,0-0.3
				c1.6-0.9,2.4-1.4,4-2.3c0.2-0.1,0.4-0.1,0.6,0C842.2,537,843,537.6,844.8,538.6z M849.9,535.7c0.2,0.1,0.2,0.3,0,0.3
				c-1.6,0.9-2.4,1.4-4,2.3c-0.2,0.1-0.4,0.1-0.6,0c-1.7-1-2.6-1.6-4.3-2.6c-0.2-0.1-0.2-0.2,0-0.3c1.6-0.9,2.4-1.4,4-2.3
				c0.2-0.1,0.4-0.1,0.6,0C847.3,534.2,848.1,534.7,849.9,535.7z M855,532.8c0.2,0.1,0.2,0.3,0,0.3c-1.6,0.9-2.4,1.4-4.1,2.3
				c-0.2,0.1-0.4,0.1-0.6,0c-1.7-1-2.6-1.6-4.3-2.6c-0.2-0.1-0.2-0.3,0-0.3c1.6-0.9,2.4-1.4,4.1-2.3c0.2-0.1,0.4-0.1,0.6,0
				C852.4,531.2,853.3,531.8,855,532.8z M860.2,530.2c-1.7,0.9-2.5,1.4-4.1,2.3c-0.2,0.1-0.4,0.1-0.6,0c-1.7-1-2.6-1.6-4.3-2.6
				c-0.2-0.1-0.2-0.2,0-0.3c1.6-0.9,2.5-1.4,4.1-2.3c0.2-0.1,0.4-0.1,0.6,0c1.7,1,2.6,1.6,4.3,2.6
				C860.4,530,860.4,530.1,860.2,530.2z M828.2,510.1c-0.2-0.1-0.2-0.3,0-0.3c1.6-0.9,2.4-1.4,4.1-2.3c0.2-0.1,0.4-0.1,0.6,0
				c1.8,1.1,2.7,1.6,4.4,2.6c0.2,0.1,0.2,0.3,0,0.3c-1.6,0.9-2.5,1.4-4.1,2.3c-0.2,0.1-0.4,0.1-0.6,0
				C830.9,511.7,830,511.2,828.2,510.1z M833.9,513.5c-0.2-0.1-0.2-0.3,0-0.3c1.6-0.9,2.4-1.4,4.1-2.3c0.2-0.1,0.4-0.1,0.6,0
				c1.8,1,2.6,1.6,4.4,2.6c0.2,0.1,0.2,0.3,0,0.3c-1.6,0.9-2.5,1.4-4.1,2.3c-0.2,0.1-0.4,0.1-0.6,0
				C836.5,515.1,835.7,514.6,833.9,513.5z M839.5,516.9c-0.2-0.1-0.2-0.3,0-0.3c1.6-0.9,2.5-1.4,4.1-2.3c0.2-0.1,0.4-0.1,0.6,0
				c1.7,1,2.6,1.6,4.4,2.6c0.2,0.1,0.2,0.3,0,0.3c-1.6,0.9-2.5,1.4-4.1,2.3c-0.2,0.1-0.4,0.1-0.6,0
				C842.2,518.5,841.3,517.9,839.5,516.9z M845.2,520.3c-0.2-0.1-0.2-0.3,0-0.3c1.6-0.9,2.5-1.4,4.1-2.3c0.2-0.1,0.4-0.1,0.6,0
				c1.7,1,2.6,1.6,4.3,2.6c0.2,0.1,0.2,0.2,0,0.3c-1.7,0.9-2.5,1.4-4.1,2.3c-0.2,0.1-0.4,0.1-0.6,0
				C847.8,521.8,846.9,521.3,845.2,520.3z M850.7,523.3c1.6-0.9,2.5-1.4,4.1-2.3c0.2-0.1,0.4-0.1,0.6,0c1.7,1,2.6,1.5,4.3,2.6
				c0.2,0.1,0.2,0.3,0,0.3c-1.7,0.9-2.5,1.4-4.1,2.3c-0.2,0.1-0.4,0.1-0.6,0c-1.7-1-2.6-1.6-4.3-2.6
				C850.6,523.5,850.6,523.4,850.7,523.3z M865.4,527.2c-1.7,0.9-2.5,1.4-4.2,2.4c-0.2,0.1-0.4,0.1-0.6,0c-1.7-1-2.6-1.6-4.3-2.6
				c-0.2-0.1-0.2-0.3,0-0.3c1.6-0.9,2.5-1.4,4.1-2.4c0.2-0.1,0.4-0.1,0.6,0c1.7,1,2.6,1.6,4.3,2.6
				C865.6,527,865.6,527.1,865.4,527.2z"/>
		</g>
		<path class="st16" d="M771.8,490.1L771.8,490.1c-0.1,0-0.1-0.1-0.2-0.1L771.8,490.1z"/>
		<g>
			<path class="st16" d="M761.4,478.2c0,4.6,1.8,7.8,4.6,9.3l-0.1,0l4.8,2.4c-2.8-1.5-4.5-4.7-4.5-9.3c0-8.8,6.4-19.2,14.3-23.2
				c3.6-1.8,6.9-2,9.4-0.8l-4.7-2.4l0,0c-2.5-1.2-5.9-1.1-9.5,0.7C767.8,459,761.4,469.5,761.4,478.2z"/>
			<path class="st17" d="M780.6,457.5c-7.9,4-14.3,14.4-14.3,23.2c0,4.6,1.7,7.8,4.5,9.3c0.1,0.1,0.3,0.1,0.4,0.2c0,0,0.1,0,0.1,0.1
				c2.5,1.1,5.7,0.9,9.2-0.9c7.9-4,14.3-14.4,14.3-23.2c0-4.8-1.9-8.1-4.9-9.5C787.4,455.5,784.2,455.7,780.6,457.5z M793.5,466.1
				c0,8.2-6.2,18.2-13.6,22c-1.9,0.9-3.6,1.4-5.3,1.4c-4.4,0-7.1-3.4-7.1-8.9c0-8.2,6.2-18.2,13.6-22c1.9-0.9,3.6-1.4,5.3-1.4
				C790.8,457.3,793.5,460.7,793.5,466.1z"/>
			<path class="st14" d="M786.5,457.3c-1.6,0-3.4,0.5-5.3,1.4c-7.4,3.7-13.6,13.8-13.6,22c0,5.5,2.7,8.9,7.1,8.9
				c1.6,0,3.4-0.5,5.3-1.4c7.4-3.7,13.6-13.8,13.6-22C793.5,460.7,790.8,457.3,786.5,457.3z M785.9,478.2l-4.6-3.5l-4.5,8.5
				l-3.4,1.9l6.3-11.6l-5.9-4.4l3.4-1.9l4.2,3.2l4.2-7.8l3.4-1.9l-5.9,10.9l6.2,4.8L785.9,478.2z"/>
			<polygon class="st17" points="783,471.6 789,460.7 785.5,462.6 781.3,470.4 777.1,467.2 773.7,469 779.6,473.4 773.3,485 
				776.8,483.2 781.3,474.7 785.9,478.2 789.3,476.4 			"/>
		</g>
		<g>
			<polygon class="st14" points="758.8,517.9 765.6,514.2 765.5,512.6 760.4,515.5 760.3,512 765,509.4 765,507.9 760.2,510.5 
				760.1,507.2 765.3,504.3 765.2,502.8 758.5,506.6 			"/>
			<path class="st14" d="M772.9,505.4c0.2-0.3,0.4-0.7,0.6-1.1c0.2-0.4,0.3-0.8,0.4-1.2c0.1-0.4,0.1-0.8,0.1-1.3
				c0-0.6-0.1-1-0.3-1.4c-0.2-0.4-0.4-0.6-0.7-0.8c-0.3-0.2-0.6-0.2-1-0.2c-0.4,0-0.7,0.1-1.1,0.4l-4.2,2.3l0.3,11.3l1.6-0.9
				l-0.1-3.9l1.9-1.1l2.2,2.7l1.8-1l-2.3-2.9C772.5,506,772.7,505.7,772.9,505.4z M771.6,505.2c-0.2,0.2-0.3,0.3-0.5,0.4l-2.6,1.4
				l-0.1-4.4l2.6-1.4c0.1-0.1,0.3-0.1,0.5-0.1c0.2,0,0.3,0.1,0.4,0.2c0.1,0.1,0.2,0.3,0.3,0.5c0.1,0.2,0.1,0.5,0.1,0.9
				c0,0.4,0,0.7-0.1,1c-0.1,0.3-0.2,0.6-0.3,0.9C771.9,504.8,771.7,505,771.6,505.2z"/>
			<path class="st14" d="M781.4,500.7c0.2-0.3,0.4-0.7,0.6-1.1c0.2-0.4,0.3-0.8,0.4-1.2c0.1-0.4,0.1-0.8,0.1-1.3
				c0-0.6-0.1-1-0.3-1.4c-0.2-0.4-0.4-0.6-0.7-0.8c-0.3-0.2-0.6-0.2-1-0.2c-0.4,0-0.7,0.1-1.1,0.4l-4.2,2.3l0.3,11.3l1.6-0.9
				l-0.1-3.9l1.9-1.1l2.2,2.7l1.8-1l-2.3-2.9C781,501.3,781.2,501,781.4,500.7z M780.1,500.5c-0.2,0.2-0.3,0.3-0.5,0.4l-2.6,1.4
				l-0.1-4.4l2.6-1.4c0.1-0.1,0.3-0.1,0.5-0.1c0.2,0,0.3,0.1,0.4,0.2c0.1,0.1,0.2,0.3,0.3,0.5c0.1,0.2,0.1,0.5,0.1,0.9
				c0,0.4,0,0.7-0.1,1c-0.1,0.3-0.2,0.6-0.3,0.9C780.4,500.1,780.2,500.3,780.1,500.5z"/>
			<path class="st14" d="M791.7,489.8c-0.4-0.3-0.9-0.4-1.5-0.4c-0.6,0-1.2,0.2-1.8,0.6c-0.7,0.4-1.3,0.9-1.9,1.5
				c-0.6,0.6-1.1,1.3-1.4,2.1c-0.4,0.8-0.7,1.6-0.9,2.4c-0.2,0.8-0.3,1.6-0.3,2.4c0,0.8,0.2,1.5,0.4,2c0.2,0.6,0.6,1,1,1.3
				c0.4,0.3,0.9,0.5,1.5,0.4c0.6,0,1.2-0.2,1.9-0.6c0.7-0.4,1.3-0.9,1.9-1.5c0.6-0.6,1-1.3,1.4-2.1c0.4-0.8,0.7-1.5,0.9-2.4
				c0.2-0.8,0.3-1.6,0.3-2.3c0-0.8-0.2-1.5-0.4-2C792.5,490.5,792.2,490.1,791.7,489.8z M791.4,495.8c-0.2,0.6-0.4,1.2-0.6,1.7
				c-0.3,0.6-0.6,1-1,1.4c-0.4,0.4-0.8,0.8-1.2,1c-0.4,0.2-0.9,0.4-1.2,0.4c-0.4,0-0.7-0.1-1-0.4c-0.3-0.2-0.5-0.5-0.7-1
				c-0.2-0.4-0.3-0.9-0.3-1.6c0-0.6,0-1.2,0.2-1.8c0.1-0.6,0.3-1.2,0.6-1.7c0.3-0.5,0.6-1,1-1.4c0.4-0.4,0.8-0.8,1.2-1
				c0.4-0.2,0.8-0.3,1.2-0.3c0.4,0,0.7,0.1,1,0.3c0.3,0.2,0.5,0.6,0.7,1c0.2,0.5,0.3,1,0.3,1.6C791.6,494.6,791.6,495.2,791.4,495.8
				z"/>
			<path class="st14" d="M794.8,497.9l1.6-0.9l-0.1-3.9l1.9-1.1l2.2,2.7l1.8-1l-2.3-2.9c0.2-0.3,0.5-0.6,0.7-0.9
				c0.2-0.3,0.4-0.7,0.6-1.1c0.2-0.4,0.3-0.8,0.4-1.2c0.1-0.4,0.1-0.8,0.1-1.3c0-0.6-0.1-1-0.3-1.4c-0.2-0.4-0.4-0.6-0.7-0.8
				c-0.3-0.2-0.6-0.2-1-0.2c-0.4,0-0.7,0.1-1.1,0.4l-4.2,2.3L794.8,497.9z M796.2,487.2l2.6-1.4c0.1-0.1,0.3-0.1,0.5-0.1
				c0.2,0,0.3,0.1,0.4,0.2c0.1,0.1,0.2,0.3,0.3,0.5c0.1,0.2,0.1,0.5,0.1,0.9c0,0.4,0,0.7-0.1,1c-0.1,0.3-0.2,0.6-0.3,0.9
				c-0.1,0.3-0.3,0.5-0.4,0.7c-0.2,0.2-0.3,0.3-0.5,0.4l-2.6,1.4L796.2,487.2z"/>
		</g>
	</g>
	<g>
		<path class="st18" d="M1033.8,476.8c-6.7-4.2-8.6-10.1-5.8-15.5L974,427.1c-10.1,2.3-21.8,1.1-29.3-3.6c-4.8-3-7.1-6.8-7-10.8l0,0
			v7.5l0,0c0.2,3.7,2.5,7.3,7,10.1c7.6,4.7,19.2,5.9,29.3,3.6l52.8,33.4v5.5l0,0c-0.1,4,2.2,7.9,7,10.9c9.1,5.6,24,6.2,35.1,1.8
			v-6.8l-0.1,0C1057.7,483,1042.9,482.4,1033.8,476.8z"/>
		<path class="st18" d="M992.9,417.2c-0.1-0.9-0.2-1.8-0.6-2.8c-0.2,0.6-0.5,1.2-0.8,1.9L992.9,417.2z"/>
		<path class="st18" d="M1082.1,464c0.1,2.9-1.1,5.8-3.5,8.4l-12.8-7.9c-2.2-1.4-5.8-1.4-8.1-0.1l-1.9,1.2c-2.2,1.3-2.3,3.5-0.1,4.9
			l1.6,1l0.4-0.3c2.2-1.3,5.9-1.3,8.1,0.1l12.8,7.9c2.3-2.5,3.4-5.2,3.5-7.9l0,0L1082.1,464L1082.1,464z"/>
		<path class="st18" d="M964.9,403l-9.5-5.9v6.8h0l7.9,4.9l1.5-0.9C967,406.5,967.1,404.3,964.9,403z"/>
		<path class="st19" d="M1055.8,465.6l1.9-1.2c2.2-1.3,5.9-1.3,8.1,0.1l12.8,7.9c2.4-2.6,3.6-5.5,3.5-8.4c-0.1-3.7-2.5-7.4-7-10.3
			c-7.7-4.8-19.6-5.9-29.9-3.5l-52.3-33.1l-1.4-0.9c0.3-0.6,0.6-1.2,0.8-1.9c1.8-5-0.3-10.2-6.5-14c-7.8-4.9-20.1-6-30.5-3.3
			l9.5,5.9c2.2,1.4,2.2,3.6-0.1,4.9l-1.5,0.9l-0.4,0.3c-2.2,1.3-5.9,1.3-8.1-0.1l-10.9-6.7c-4.2,3.1-6.3,6.8-6.3,10.5
			c-0.1,3.9,2.2,7.8,7,10.8c7.6,4.7,19.2,5.9,29.3,3.6l54.1,34.2c-2.8,5.4-0.9,11.3,5.8,15.5c9,5.6,23.9,6.2,35,1.9c0,0,0,0,0.1,0
			l-11.6-7.2l-1.6-1C1053.6,469.1,1053.6,466.9,1055.8,465.6z"/>
	</g>
	<path class="st20" d="M922.9,278.1"/>
	<g>
		<path class="st21" d="M890.3,463.9c0-1.4,0-2.7-0.1-3.5c-0.4-2.4-2.7-11-4.1-16.6c-2.2,3.8-5.2,7.7-6.5,8.7c-0.9,0.7-3,2.4-5.1,4
			l2.9,2.9L890.3,463.9z"/>
		<path class="st22" d="M895.2,511.6c-0.3,0.1-0.7,0.2-0.8,0.2c-2.6,1.4-5,1.5-5.3,0.5c0,0,0,0,0,0c-0.3,1.3,2.4,1.4,5.3-0.2
			c0.1-0.1,0.5-0.2,0.8-0.2c2.2-0.6,2.3-1.8,2.2-1.9c0,0,0-0.1,0-0.1C897.3,510.5,896.8,511.2,895.2,511.6z"/>
		<path class="st23" d="M893,509.5c-0.1,0.1-0.2,0.1-0.3,0.2c-0.6,0.5-3.3,0.8-3.6,2.3c0,0.1,0,0.3,0,0.4c0.3,0.9,2.7,0.8,5.3-0.5
			c0.1-0.1,0.5-0.2,0.8-0.2c1.6-0.5,2.1-1.2,2.2-1.6c0,0,0,0,0,0C894.9,511.2,893.2,509.8,893,509.5z"/>
		<path class="st24" d="M891.9,490.4l1,19.1c0,0,0,0,0,0c0.3,0.3,1.9,1.7,4.4,0.5c0.2-0.1,0.4-0.2,0.5-0.3L897,491l1-16.1
			c-3.3-0.2-5.8-1.3-7.2-2L891.9,490.4z"/>
		<path class="st22" d="M901.2,517.1c-0.5,0.1-1.7,0.1-2-0.4c-0.2-0.3-0.3-0.6-0.3-0.8c-0.1,0.4-0.2,0.8,0.2,1.3
			c0.3,0.5,1.5,0.5,2,0.4c2.2-0.5,3.7-2.1,4.6-3.9c0.1-0.2,0.1-0.6,0-1c0,0.3,0,0.6-0.1,0.7C904.9,514.4,903.4,516.5,901.2,517.1z"
			/>
		<path class="st23" d="M901.9,511.5c-0.4,1.2-1.1,1.6-1.9,2.7c-0.3,0.4-1,1-1,1.7c0,0.2,0.1,0.5,0.3,0.8c0.3,0.5,1.5,0.5,2,0.4
			c2.2-0.5,3.7-2.7,4.3-3.8c0.1-0.1,0.1-0.4,0.1-0.7c0-0.3,0-0.6,0-0.9C904.8,512.3,903.2,513,901.9,511.5z"/>
		<path class="st24" d="M899.4,474.8l1.4,18.8l1,17.7c0,0,0.1,0.1,0.1,0.1c1.3,1.4,2.9,0.8,3.7,0.2c0.5-0.3,0.8-0.7,0.8-0.7
			l-0.6-18.1l1.1-20.8c-1.6,1.2-4.4,2.5-6.5,2.7C900,474.8,899.7,474.8,899.4,474.8z"/>
		<path class="st25" d="M908.1,460.2c-0.4-2.6-2-11.7-3.8-18.2c0-0.2,0-0.4-0.1-0.6c-0.3-4-1.8-5.3-2.5-5.7
			c-0.1-0.1-0.3-0.3-0.4-0.3c-0.9-0.5-1.9-0.8-3-1.1l-3.4-0.8l0,0c0.2,1.7-2.8,2.5-2.8,2.5s-1.6-0.4-1.7-1.7l-0.1-0.8
			c-0.4-0.1-0.8-0.2-0.8-0.2c-2.2,0.1-3.9,1-4.6,2.6c-0.4,0.6-0.7,1.2-0.9,1.5c-0.4,0.6-7,12.2-7,12.2l-4.8,4.5l2.3,2.4
			c2.1-1.6,4.2-3.2,5.1-4c1.3-1,4.3-4.9,6.5-8.7c1.5,5.6,3.7,14.2,4.1,16.6c0.1,0.9,0.2,2.1,0.1,3.5l0.7,0.2l0.5-0.3
			c0.1-0.1,0.3-0.2,0.5-0.3c0.2,0.7,0.8,1.2,1.3,1.4c-0.2,0.4-0.6,0.6-0.6,0.6l-2,1.1c-0.2,0.2-0.3,0.3-0.5,0.4
			c-0.2,2.7-0.4,5-0.4,5s0.4,0.3,1.2,0.7c1.4,0.7,3.9,1.8,7.2,2c0.4,0,0.9,0,1.3,0c0.3,0,0.7,0,1,0c2.1-0.2,4.9-1.5,6.5-2.7
			c0.9-0.7,1.5-1.4,1.3-1.9C908.2,470.2,908.6,464.2,908.1,460.2z M901.4,435.6c-0.1,0-0.2-0.1-0.2-0.1c0,0-0.1,0-0.1,0
			c0.1,0,0.1,0,0.1,0C901.3,435.5,901.4,435.6,901.4,435.6z M899.2,438.1c0,0.5,0,1.2,0,1.9c0,0.2,0.2,1.5,0.5,3.3
			c-0.3-0.7-0.5-1.4-0.7-2C898.6,440.1,898.8,439,899.2,438.1z M907.6,465.3c-0.4,1.1-1.4,1.8-2.4,2.4c0.8-3.4,0.1-7.6-1.1-11.9
			l0.7-0.7c0.1-0.3,0.1-0.5,0.1-0.7c0.7-2-0.3-8.1-0.7-12.1c1.8,6.4,3.3,15.3,3.7,17.9C908.5,464.2,907.6,465.3,907.6,465.3z"/>
		<path class="st26" d="M894,430.8c0,0.1,0,0.1-0.1,0.2L894,430.8L894,430.8z"/>
		<path class="st26" d="M892,436.1c0,0,3-0.9,2.8-2.5l0,0l-0.3-2.6l-0.2,0.1l-0.6,0.4c-0.6,0.9-1.5,1.4-2.3,1.5
			c-0.4,0.1-0.8,0.1-1.2,0l0.1,0.6l0.1,0.8C890.4,435.7,892,436.1,892,436.1z"/>
		<path class="st27" d="M895,428c0.1,0.1,0.2,0.4,0.1,0.7c-0.1,0.4-0.5,0.9-0.9,0.9c0,0.5-0.1,0.8-0.3,1.2l0,0l-0.1,0.1
			c-0.1,0.2-0.2,0.3-0.3,0.5l0.6-0.4l0.2-0.1l0.7-0.3c0.3-0.5,0.6-1.2,0.8-2.3l0-0.1c0.1-0.2,0.3-0.3,0.4-0.5c0.1-0.2,0-0.3,0-0.5
			c-0.1,0-0.1,0.1-0.2,0.1C895.9,427.6,895.5,427.8,895,428z"/>
		<path class="st28" d="M891.4,433c0.9-0.2,1.8-0.7,2.3-1.5c0.1-0.2,0.2-0.3,0.3-0.5c0,0,0-0.1,0.1-0.2c0.1-0.3,0.2-0.7,0.3-1.2
			c0.3,0,0.7-0.5,0.9-0.9c0.1-0.4,0-0.6-0.1-0.7c-0.9,0.4-2,0.6-2.7,0.9c-1.2,0.5-3.2,0.4-4.7-0.3c0,0.5,0,1.1,0.2,1.7
			c0.2,1,1.2,2.3,2.5,2.7C890.5,433,890.9,433,891.4,433z"/>
		<path class="st29" d="M901.2,435.5c0,0,0.1,0,0.2,0.1C901.4,435.6,901.3,435.5,901.2,435.5C901.2,435.5,901.2,435.5,901.2,435.5
			C901.2,435.5,901.2,435.5,901.2,435.5z"/>
		<path class="st29" d="M899.7,443.3c-0.3-1.8-0.5-3.1-0.5-3.3c0-0.7,0-1.3,0-1.9c-0.4,0.9-0.6,2-0.2,3.1
			C899.2,441.9,899.5,442.6,899.7,443.3z"/>
		<path class="st29" d="M904.3,442.3c0.4,4,1.4,10.1,0.7,12.1c0,0.2,0,0.5-0.1,0.7l-0.7,0.7c1.2,4.3,1.9,8.5,1.1,11.9
			c1-0.6,2-1.3,2.4-2.4c0,0,0.9-1.1,0.3-5.1C907.5,457.6,906,448.7,904.3,442.3z"/>
		<path class="st30" d="M889.6,466.3c-0.1-0.1-1.7,1.3-1.8,0.9c0-0.1,0.2-0.3,0.5-0.6l-10,5.7l-13.2-5.3l-9.6-9.2v0.8l9.6,9.2
			l13.2,5.3l10.1-5.7C888.7,467,889.6,466.3,889.6,466.3z"/>
		<path class="st14" d="M878.4,472.2l10-5.7c0.5-0.4,1.1-0.9,0.9-0.8c-0.2,0.1-1.4,1-1.6,0.9c-0.2-0.2,1.4-1.4,1.8-1.6l1.4-0.8
			l-0.7-0.2l-12.9-4.5l-2.9-2.9l-2.3-2.4l-3.6-3.6l-12.9,7.4l9.6,9.2L878.4,472.2z"/>
		<path class="st28" d="M892.6,465.6c0,0,0.4-0.2,0.6-0.6c-0.5-0.3-1.1-0.7-1.3-1.4c-0.2,0.1-0.4,0.2-0.5,0.3l-0.5,0.3l-1.4,0.8
			c-0.4,0.3-2,1.5-1.8,1.6c0.2,0.2,1.3-0.8,1.6-0.9c0.1,0-0.5,0.4-0.9,0.8c-0.3,0.3-0.6,0.5-0.5,0.6c0.2,0.4,1.7-1,1.8-0.9
			c0,0-0.9,0.7-1.2,1c-0.1,0.1-0.1,0.1-0.1,0.2c0.3,0.3,1.4-0.7,1.6-0.7c0,0-0.8,0.7-0.8,0.9c0,0.1,0.2,0.2,0.9-0.5
			c0.1-0.1,0.3-0.3,0.5-0.4L892.6,465.6z"/>
		<path class="st25" d="M892.3,428.9c0.7-0.3,1.8-0.6,2.7-0.9c0.4-0.2,0.9-0.4,1.2-0.6c0,0,0.1-0.1,0.2-0.1c0.1-0.1,0.3-0.1,0.5-0.3
			c0.6-0.3,0.1-1.1,0-1.3c-0.1-0.9-0.7-3.9-3.3-4.7c-0.1,0-0.2-0.1-0.4-0.1l0,0l0,0c-0.1,0-1.1,0.2-2.1,0.8c-0.5,0.3-1,0.8-1.4,1.3
			c-0.4,0.6-0.6,1.3-0.7,2.3c0,0.2-0.2,0.4-0.4,0.4c-0.2,0-0.4-0.2-0.4-0.4c0.1-1.1,0.4-2,0.9-2.7c0.7-1,1.6-1.6,2.3-1.9
			c-2,0.1-3.3,1.4-4.3,3.3l-0.3,0.7c0,0-1.9,1.6-0.4,3.2c0.3,0.3,0.7,0.6,1.2,0.8C889.1,429.3,891.1,429.4,892.3,428.9z"/>
		<path class="st31" d="M889,422.5c-0.5,0.7-0.8,1.6-0.9,2.7c0,0.2,0.1,0.4,0.4,0.4c0.2,0,0.4-0.1,0.4-0.4c0-0.9,0.3-1.7,0.7-2.3
			c0.4-0.6,0.9-1,1.4-1.3c1-0.6,2-0.8,2.1-0.8l0,0l0,0l0.1,0c-0.2-0.1-0.8-0.4-1.7-0.3l0,0c-0.1,0-0.1,0.1-0.2,0.1
			C890.6,421,889.7,421.6,889,422.5z"/>
	</g>
	<g>
		<path class="st32" d="M352.5,450.2c0-26.5-21.2-48.1-47.4-48.1c-26.2,0-47.4,21.5-47.4,48.1c0,19.6,11.5,36.4,28.1,43.9l-0.3,10.7
			l-0.2,7.7c0,0,0.1,0.5,0.4,1.2c-0.2-0.8-0.4-1.7-0.4-2.5c0-5.7,5.4-10.5,12.9-12.4l-1.6-18.7l25.6-17l-5.6,37.4
			c4.5,2.1,7.6,5.4,8.2,9.2l-0.2-5.5l-0.3-10C340.9,486.7,352.5,469.8,352.5,450.2z M273.2,427.5c0-6,4.8-10.8,10.8-10.8
			c6,0,10.8,4.8,10.8,10.8c0,6-4.8,10.8-10.8,10.8C278,438.3,273.2,433.5,273.2,427.5z"/>
		<path class="st33" d="M294.9,551.6c0,0.1,0,0.2,0,0.2c0,5,4.7,9.1,10.5,9.1c5.8,0,10.5-4.1,10.5-9.1c0-0.1,0-0.1,0-0.2
			c-3.2,0.9-6.7,1.5-10.4,1.5C301.7,553.1,298.1,552.5,294.9,551.6z"/>
		<path class="st18" d="M305.4,543c-11.7,0-21.5-5.1-24.7-12.2c-0.7,1.6-1.1,3.3-1.1,5c0,7,6.3,13.1,15.4,15.8
			c3.2,1,6.8,1.5,10.5,1.5c3.7,0,7.3-0.5,10.4-1.5c9.1-2.7,15.4-8.7,15.4-15.8c0-1.7-0.4-3.4-1.1-5C327,537.9,317.1,543,305.4,543z"
			/>
		<path class="st19" d="M305.4,533c-11.7,0-21.5-5.1-24.7-12.2c-0.7,1.6-1.1,3.3-1.1,5c0,1.7,0.4,3.4,1.1,5
			c3.2,7.1,13.1,12.2,24.7,12.2c11.7,0,21.5-5.1,24.7-12.2c0.7-1.6,1.1-3.3,1.1-5c0-1.7-0.4-3.4-1.1-5
			C327,527.8,317.1,533,305.4,533z"/>
		<path class="st6" d="M324.9,511.3c0,0.3,0,0.6-0.1,1l0,0.3c0,0,0,0.2-0.1,0.5c-0.6,2.9-2.7,5.6-5.7,7.6c-3,2.1-7.3,3.8-13.8,3.8
			c0,0,0,0-0.1,0c0,0,0,0,0,0c-0.1,0-0.1,0-0.2,0c-0.6,0-1.1,0-1.7-0.1c-0.1,0-0.2,0-0.3,0c-4.3-0.3-7.6-1.4-10.1-2.8
			c-3.7-1.9-6.3-4.7-7.2-7.8c-0.3-0.8-0.4-1.2-0.4-1.2l0.2-7.7c-3.6,3-5.8,6.8-5.8,10.9c0,1.7,0.4,3.4,1.1,5
			c3.2,7.1,13.1,12.2,24.7,12.2c11.7,0,21.5-5.1,24.7-12.2c0.7-1.6,1.1-3.3,1.1-5c0-4.5-2.5-8.5-6.7-11.6l0.2,5.5
			C324.8,510.2,324.9,510.7,324.9,511.3z"/>
		<path class="st32" d="M319.5,467.3l-20.9,13.9l1.5,17.3c1.6-0.3,3.3-0.4,5-0.4c3.5,0,6.7,0.6,9.5,1.6L319.5,467.3z"/>
		<path class="st32" d="M324.8,512.6l0-0.3c0,0.3-0.1,0.6-0.1,0.9C324.8,512.7,324.8,512.6,324.8,512.6z"/>
		<path class="st32" d="M302.9,524.4c-3.8-0.3-7.3-1.3-10.1-2.8C295.3,523,298.6,524.1,302.9,524.4z"/>
		<path class="st32" d="M305.1,524.5C305.1,524.5,305.2,524.5,305.1,524.5c6.5,0,10.9-1.7,13.9-3.8
			C315.4,523,310.5,524.5,305.1,524.5z"/>
		<path class="st32" d="M304.9,524.5c-0.6,0-1.1,0-1.7-0.1C303.7,524.4,304.3,524.5,304.9,524.5z"/>
		<path class="st34" d="M294.8,427.5c0-6-4.8-10.8-10.8-10.8c-6,0-10.8,4.8-10.8,10.8c0,6,4.8,10.8,10.8,10.8
			C289.9,438.3,294.8,433.5,294.8,427.5z"/>
		<path class="st35" d="M292.8,521.6c2.8,1.5,6.3,2.5,10.1,2.8c0.1,0,0.2,0,0.3,0c0.6,0,1.1,0.1,1.7,0.1c0.1,0,0.1,0,0.2,0
			c0,0,0,0,0,0c5.4,0,10.3-1.5,13.9-3.8c3-2,5.1-4.6,5.7-7.6c0.1-0.3,0.1-0.6,0.1-0.9c0-0.3,0.1-0.6,0.1-1c0-0.5-0.1-1-0.2-1.6
			c-0.7-3.8-3.8-7.1-8.2-9.2l-1.4,9.1c-0.1,0.5-0.6,0.9-1.1,0.8c-0.5-0.1-0.9-0.6-0.8-1.1l1.4-9.6c-2.8-1-6.1-1.6-9.5-1.6
			c-1.7,0-3.4,0.2-5,0.4l1.3,15.2c0,0.5-0.4,1-0.9,1.1c-0.6,0-1-0.4-1.1-0.9l-1.3-14.9c-7.5,1.9-12.9,6.7-12.9,12.4
			c0,0.9,0.1,1.7,0.4,2.5C286.5,517,289.1,519.7,292.8,521.6z"/>
		<path class="st36" d="M299.4,513.8c0,0.6,0.5,1,1.1,0.9c0.5,0,1-0.5,0.9-1.1l-1.3-15.2l-1.5-17.3l20.9-13.9l-4.8,32.4l-1.4,9.6
			c-0.1,0.5,0.3,1.1,0.8,1.1c0.5,0.1,1.1-0.3,1.1-0.8l1.4-9.1l5.6-37.4l-25.6,17l1.6,18.7L299.4,513.8z"/>
	</g>
	<g>
		<polygon class="st4" points="772,652 747.3,636.6 747.3,639.9 772,655.2 799.6,639.8 799.6,636.6 		"/>
		<path class="st5" d="M799.6,636.6l-14.4-9l2.5,8.6c0,0-4,7.1-15.3,7.1c-11.3,0-14.5-7.1-14.5-7.1l1.9-6.6l-12.5,7L772,652
			L799.6,636.6z"/>
		<path class="st1" d="M776.8,598.6L774,589c-1-0.5-2-0.3-2.6-0.1l-2.8,9.8c1,0.4,2.3,0.8,3.9,0.8
			C774.3,599.5,775.7,599.1,776.8,598.6z"/>
		<path class="st1" d="M781.8,616.2l-3.3-11.6c-1.2,0.8-3.1,1.9-6,1.9c-2.7,0-4.6-0.9-5.6-1.8l-3.4,11.7c2.2,1.2,5.2,2.3,9,2.3
			C776.6,618.7,779.6,617.5,781.8,616.2z"/>
		<path class="st1" d="M757.8,636.2c0,0,3.2,7.1,14.5,7.1c11.3,0,15.3-7.1,15.3-7.1l-2.5-8.6l-1-3.6c-2.2,1.5-6.1,3.3-11.7,3.3
			c-5.4,0-9-1.7-11-3.1l-1.6,5.5L757.8,636.2z"/>
		<path class="st6" d="M778.5,604.6l-1.7-6c-1.1,0.5-2.5,0.9-4.3,0.9c-1.6,0-2.9-0.3-3.9-0.8l-1.7,6c1.1,0.8,2.9,1.8,5.6,1.8
			C775.4,606.5,777.3,605.5,778.5,604.6z"/>
		<path class="st6" d="M772.4,627.2c5.6,0,9.5-1.8,11.7-3.3l-2.2-7.7c-2.2,1.3-5.2,2.4-9.3,2.4c-3.8,0-6.9-1.1-9-2.3l-2.2,7.7
			C763.4,625.6,766.9,627.2,772.4,627.2z"/>
	</g>
	<polygon class="st33" points="380.9,310.6 380.9,324.2 389,325.3 389,311.6 	"/>
	<polygon class="st33" points="396.1,318.5 389,321.1 389,334.7 396.1,332.1 	"/>
	<polygon class="st33" points="401.2,324.8 401.2,338.5 401,333.6 401,320 	"/>
	<polygon class="st33" points="409.5,320.5 409.5,334.1 407.7,338.8 407.7,325.2 	"/>
	<polygon class="st33" points="414.8,319.5 414.8,333.2 420.9,336.5 420.9,322.8 	"/>
	<polygon class="st33" points="424,313.6 424,327.2 432.3,327.1 432.3,313.4 	"/>
	<path class="st18" d="M389,321.1v13.7l-4.1-2.9v-13.7L389,321.1z M407.7,325.2l-6.4-0.4v13.7l6.4,0.4V325.2z M432.3,313.4v13.7
		l0.6-3.7v-13.7L432.3,313.4z M420.9,322.8v13.7l5-2.4v-13.7L420.9,322.8z"/>
	<path class="st33" d="M389.8,306.7l-1.8,0v-6.9l4.5,4.1C391.4,304.7,390.5,305.7,389.8,306.7z"/>
	<path class="st18" d="M424.8,308.7c-0.3-1.1-0.8-2.1-1.6-3.1l5.7-3.5v7.1L424.8,308.7z"/>
	<path class="st19" d="M389,315.7v-4.1c0.3,1.1,0.8,2.1,1.6,3.1L389,315.7z M401,320c-1.8-0.4-3.5-0.9-4.9-1.5v13.7
		c1.5,0.6,3.1,1.2,4.9,1.5V320z M414.8,319.5c-1.7,0.5-3.5,0.8-5.3,0.9v13.7c1.9-0.2,3.7-0.5,5.3-0.9V319.5z M421.4,316.4l2.6,2.4
		l0,0v-5.2C423.4,314.6,422.5,315.5,421.4,316.4z"/>
	<path class="st6" d="M389,311.6l-8.1-1.1l0.6-3.7l8.3-0.1c0.6-1,1.5-2,2.6-2.8l-4.5-4.1l5-2.4l6.1,3.3c1.7-0.5,3.5-0.8,5.3-0.9
		l1.8-4.7l6.4,0.4l0.2,4.8c1.8,0.4,3.5,0.9,4.9,1.5l7-2.6l4.1,2.9l-5.7,3.5c0.8,1,1.4,2,1.6,3.1l8.1,1.1l-0.6,3.7l-8.3,0.1
		c-0.6,1-1.5,2-2.6,2.8l4.5,4.1l-5,2.4l-6.1-3.3c-1.7,0.5-3.5,0.8-5.3,0.9l-1.8,4.7l-6.4-0.4L401,320c-1.8-0.4-3.5-0.9-4.9-1.5
		l-7,2.6l-4.1-2.9l5.7-3.5C389.9,313.7,389.3,312.7,389,311.6z"/>
	<path class="st18" d="M398,309.6c-0.5,2.9,3.1,5.4,8.1,5.7c4.9,0.3,9.3-1.8,9.8-4.7c0.5-2.9-3.1-5.4-8.1-5.7
		C402.9,304.7,398.5,306.8,398,309.6z"/>
	<g>
		<polygon class="st33" points="341.9,338.2 341.9,351.9 349.9,352.9 349.9,339.2 		"/>
		<polygon class="st33" points="403.6,342.2 403.6,355.9 411.7,355.7 411.7,342.1 		"/>
		<polygon class="st33" points="396.7,349.3 396.7,363 403.8,365.2 403.8,351.6 		"/>
		<polygon class="st33" points="388.8,371.1 384.5,367.1 384.5,353.5 388.8,357.5 		"/>
		<polygon class="st33" points="377,358.6 377,372.3 378.8,367.7 378.8,354 		"/>
		<polygon class="st33" points="354.3,347 354.3,360.6 346.6,362 346.6,348.4 		"/>
		<polygon class="st33" points="364.9,352.4 359.4,355.9 359.4,369.5 364.9,366 		"/>
		<polygon class="st33" points="370.6,358.3 370.6,371.9 370.3,367.2 370.3,353.6 		"/>
		<path class="st33" d="M400,329.6c-1.1-0.9-2.3-1.8-3.7-2.6l3.9-4.1v6.7L400,329.6z"/>
		<path class="st33" d="M359.7,326.2v-5.5l2.4,4.5C361.3,325.4,360.5,325.8,359.7,326.2z"/>
		<path class="st33" d="M350.7,334.4l-4,0.1V328l6,3.2C351.9,332.2,351.2,333.3,350.7,334.4z"/>
		<path class="st33" d="M404.4,337.4c-0.1-1.1-0.4-2.2-1-3.3l6.9-2.5v6.5L404.4,337.4z"/>
		<path class="st19" d="M349.9,342.9v-3.6c0.1,1.1,0.4,2.2,1,3.3L349.9,342.9z M403.6,346.4v-4.2c-0.5,1.1-1.2,2.1-2,3.1
			L403.6,346.4z M392.2,356.6v8.5c1.6-0.6,3.1-1.3,4.5-2.1v-13.7c-1.4,0.8-2.9,1.5-4.5,2.1l2.4,4.5L392.2,356.6z M358,349.6
			c-1.4-0.8-2.6-1.7-3.7-2.6v6.5L358,349.6z M370.3,353.6c-1.9-0.3-3.7-0.7-5.4-1.2V366c1.7,0.5,3.5,0.9,5.4,1.2V353.6z
			 M384.5,353.5c-1.8,0.3-3.8,0.5-5.7,0.6v13.7c2-0.1,3.9-0.3,5.7-0.6V353.5z"/>
		<path class="st18" d="M412.4,338.4V352l-0.6,3.7v-13.7L412.4,338.4z M403.8,351.6v13.7l3.7-3v-13.7L403.8,351.6z M388.8,357.5
			v13.7l5.9-1.5v-13.7L388.8,357.5z M343.9,345v13.7l2.7,3.4v-13.7L343.9,345z M354.2,353.7v13.7l5.2,2.2v-13.7L354.2,353.7z
			 M377,358.6l-6.4-0.4v13.7l6.4,0.4V358.6z"/>
		<path class="st6" d="M350.8,342.5l-6.9,2.5l2.7,3.4l7.8-1.4c1.1,0.9,2.3,1.8,3.7,2.6l-3.9,4.1l5.2,2.2l5.5-3.5
			c1.7,0.5,3.5,0.9,5.4,1.2l0.2,4.7l6.4,0.4l1.8-4.6c2-0.1,3.9-0.3,5.7-0.6l4.3,4l5.9-1.5l-2.4-4.5c1.6-0.6,3.1-1.3,4.5-2.1l7.2,2.2
			l3.7-3l-6-3.2c0.9-1,1.5-2,2-3.1l8.1-0.1l0.6-3.7l-7.9-1c-0.1-1.1-0.4-2.2-1-3.3l6.9-2.5l-2.7-3.4l-7.8,1.4
			c-1.1-0.9-2.3-1.8-3.7-2.6l3.9-4.1l-5.2-2.2l-5.5,3.5c-1.7-0.5-3.5-0.9-5.4-1.2l-0.2-4.7l-6.4-0.4l-1.8,4.6
			c-2,0.1-3.9,0.3-5.7,0.6l-4.3-4l-5.9,1.5l2.4,4.5c-1.6,0.6-3.1,1.3-4.5,2.1l-7.2-2.2l-3.7,3l6,3.2c-0.9,1-1.5,2-2,3.1l-8.1,0.1
			l-0.6,3.7l7.9,1C350,340.4,350.3,341.5,350.8,342.5z M360.6,337.4c0.9-5.3,9-9.1,18.1-8.6c9.1,0.5,15.8,5.2,14.9,10.5
			c-0.9,5.3-9,9.1-18.1,8.6C366.4,347.3,359.8,342.6,360.6,337.4z"/>
		<path class="st18" d="M388.8,345.1c-2.6-1.5-6.1-2.5-10-2.7c-5.1-0.3-9.8,0.8-13.2,2.7c-3.4-2-5.4-4.8-4.9-7.7
			c0.9-5.3,9-9.1,18.1-8.6c9.1,0.5,15.8,5.2,14.9,10.5C393.3,341.5,391.5,343.6,388.8,345.1z"/>
	</g>
	<g>
		<g class="st37">
			<g class="st37">
				<g class="st37">
					<path class="st14" d="M624.6,716.5l-1.7-1c0.1,0.1,0.3,0.3,0.5,0.3l1.7,1C624.9,716.8,624.7,716.6,624.6,716.5L624.6,716.5z"/>
				</g>
			</g>
			<g class="st37">
				<g class="st37">
					<path class="st14" d="M617.2,692.9l-1.7-1c-0.6-0.4-1.4-0.3-2.2,0l1.7,1C615.8,692.5,616.6,692.5,617.2,692.9L617.2,692.9z"/>
					<path class="st14" d="M615,692.9l-1.7-1c-0.2,0.1-0.4,0.2-0.5,0.3l1.7,1C614.7,693,614.9,693,615,692.9L615,692.9z"/>
				</g>
			</g>
			<g class="st37">
				<g class="st37">
					<path class="st14" d="M614.5,693.1l-1.7-1c-0.8,0.4-1.5,1.2-2.2,2.1c-0.7,1.1-1.2,2.2-1.4,3.3l1.7,1c0.2-1.1,0.6-2.2,1.4-3.3
						C613,694.3,613.7,693.6,614.5,693.1L614.5,693.1z"/>
					<path class="st38" d="M610.9,698.6l-1.7-1c-0.2,1.3,0,2.4,0.6,3.1c2,2.1,12.4,14.2,13,14.8l1.7,1c-0.6-0.6-11-12.8-13-14.8
						C610.9,701,610.7,699.8,610.9,698.6L610.9,698.6z"/>
				</g>
			</g>
			<g>
				<path class="st38" d="M614.5,693.1c-0.8,0.4-1.5,1.2-2.2,2.1c-1.6,2.4-1.9,5.2-0.7,6.4c2,2.1,12.4,14.2,13,14.8
					c1,0.9,2.5,0.9,4,0c1-0.6,2.1-1.6,3-2.8c2.2-3.1,2.6-7,1-8.6c-0.6-0.5-12.9-10.2-15-12C616.8,692.4,615.6,692.5,614.5,693.1z"/>
			</g>
		</g>
	</g>
	<g>
		<g class="st37">
			<g>
				<polygon class="st38" points="666.4,730.4 666.4,734.5 632.1,754.4 632.1,750.3 				"/>
			</g>
			<g>
				<polygon class="st11" points="632.1,750.3 632.1,754.4 597.6,734.5 597.6,730.4 				"/>
			</g>
			<g>
				<polygon class="st14" points="666.4,730.4 632.1,750.3 597.6,730.4 631.9,710.5 				"/>
			</g>
		</g>
	</g>
	<g>
		<g class="st37">
			<path class="st15" d="M648.4,734.4c-0.8,0.7-1.7,1.4-2.7,2c-5.2,3-12.8,4-19.4,2.8c-2.9-0.5-5.7-1.5-8-2.8
				c-3.8-2.2-5.7-5.1-5.7-8l0,2.2c0,2.9,1.9,5.8,5.7,8c2.3,1.3,5.1,2.3,8,2.8c6.7,1.2,14.2,0.3,19.4-2.8c1.1-0.6,2-1.3,2.7-2
				c1.9-1.8,2.9-3.8,2.9-5.9l0-2.2C651.3,730.6,650.3,732.6,648.4,734.4z"/>
			<g>
				<path class="st8" d="M645.6,720.5c7.6,4.4,7.6,11.5,0.1,15.9c-7.5,4.4-19.8,4.4-27.4,0c-7.6-4.4-7.6-11.5-0.1-15.9
					C625.7,716.1,638,716.1,645.6,720.5z"/>
			</g>
		</g>
	</g>
	<g>
		<g class="st37">
			<g>
				<polygon class="st39" points="630.5,736.8 621.6,731.7 621.6,714.9 630.5,720.1 				"/>
			</g>
			<g>
				<g>
					<path class="st11" d="M631.8,704.3l8.9,5.2c-1.1-0.6-2.6-0.5-4.2,0.4l-8.9-5.2C629.2,703.7,630.7,703.6,631.8,704.3z"/>
				</g>
			</g>
			<g>
				<path class="st39" d="M630.5,720.1l-8.9-5.2c0-3.8,2.6-8.4,5.9-10.2l8.9,5.2C633.2,711.7,630.5,716.3,630.5,720.1z"/>
			</g>
			<g>
				<path class="st7" d="M636.4,709.9c3.3-1.9,5.9-0.4,6,3.4l0,16.7l-11.9,6.9l0-16.7C630.5,716.3,633.2,711.7,636.4,709.9z"/>
			</g>
		</g>
	</g>
	<g>
		<g class="st37">
			<g class="st37">
				<g class="st37">
					<path class="st14" d="M633.1,721.4l-1.7-1c0.1,0.1,0.3,0.3,0.5,0.3l1.7,1C633.4,721.7,633.2,721.6,633.1,721.4L633.1,721.4z"/>
				</g>
			</g>
			<g class="st37">
				<g class="st37">
					<path class="st14" d="M625.7,697.8l-1.7-1c-0.6-0.4-1.4-0.3-2.2,0l1.7,1C624.3,697.5,625.1,697.5,625.7,697.8L625.7,697.8z"/>
					<path class="st14" d="M623.5,697.8l-1.7-1c-0.2,0.1-0.4,0.2-0.5,0.3l1.7,1C623.2,698,623.4,697.9,623.5,697.8L623.5,697.8z"/>
				</g>
			</g>
			<g class="st37">
				<g class="st37">
					<path class="st14" d="M623,698.1l-1.7-1c-0.8,0.4-1.5,1.2-2.2,2.1c-0.7,1.1-1.2,2.2-1.4,3.3l1.7,1c0.2-1.1,0.6-2.2,1.4-3.3
						C621.5,699.2,622.2,698.5,623,698.1L623,698.1z"/>
					<path class="st40" d="M619.4,703.5l-1.7-1c-0.2,1.3,0,2.4,0.6,3.1c2,2.1,12.4,14.2,13,14.8l1.7,1c-0.6-0.6-11-12.8-13-14.8
						C619.4,705.9,619.2,704.8,619.4,703.5L619.4,703.5z"/>
				</g>
			</g>
			<g>
				<path class="st7" d="M623,698.1c-0.8,0.4-1.5,1.2-2.2,2.1c-1.6,2.4-1.9,5.2-0.7,6.4c2,2.1,12.4,14.2,13,14.8c1,0.9,2.5,0.9,4,0
					c1-0.6,2.1-1.6,3-2.8c2.2-3.1,2.6-7,1-8.6c-0.6-0.5-12.9-10.2-15-12C625.3,697.4,624.1,697.4,623,698.1z"/>
			</g>
		</g>
	</g>
	<g>
		<g>
			<path class="st41" d="M628.2,693.1c0-0.9-0.1-2.1-0.2-3.1c-0.1-0.5-0.2-1.1-0.3-1.6c-0.5-2.3-1.2-4.3-1.3-4.3
				c-0.4-1-1-2.2-1.4-3.1c-0.4-0.7-0.9-1.6-1.3-2.2c-0.4-0.6-1-1.4-1.4-2c-0.5-0.6-1.1-1.3-1.6-1.9c1.9,2,3,5.1,3.1,9.1
				C626.7,686.8,628.2,690,628.2,693.1z"/>
		</g>
		<g>
			<g>
				
					<ellipse transform="matrix(0.5025 -0.8646 0.8646 0.5025 -298.4402 869.945)" class="st14" cx="606.6" cy="694.3" rx="24.1" ry="14"/>
				<path class="st39" d="M590.8,704.5c0.1,6.5,3.3,10.6,8.3,10.6c1.6,0,3.4-0.4,5.3-1.3c0.7-0.3,1.4-0.7,2-1.1
					c9.1-5.4,16.3-18.3,16.2-28.6c-0.1-6.5-3.3-10.6-8.3-10.6c-2.2,0-4.8,0.8-7.3,2.3c-3.1,1.9-6,4.6-8.5,7.8
					C593.7,689.8,590.6,697.7,590.8,704.5z"/>
				<path class="st42" d="M590.8,704.5c0.1,6.5,3.3,10.6,8.3,10.6c1.6,0,3.4-0.4,5.3-1.3c3.9-3.1,6.9-12.9,6.8-19.7
					c-0.1-6.5-6.8-15-12.7-10.4C593.7,689.8,590.6,697.7,590.8,704.5z"/>
			</g>
		</g>
		<g>
			<path class="st8" d="M617.1,713.1c0.7-0.4,1.6-1,2.3-1.5c0.1-0.1,1.4-1.1,2.2-1.9c1-1,1.4-1.5,2.1-2.4c0.9-1.2,1.6-2.4,1.6-2.4
				c1.1-1.9,1.7-3.6,2.2-5.8c0.2-1,0.4-2.2,0.5-2.7c0-0.4,0.1-0.9,0.1-1.4c0-0.6,0-1.3,0-1.9c-0.1-3.1-1.5-6.2-4.5-9
				c0.2,10.8-7.3,24.1-16.8,29.7c-3.8,2.3-7.4,3-10.2,2.3c0.5,0.1,1.2,0.3,1.8,0.4c1,0.1,2.2,0.3,3.2,0.4c1.9,0.1,3.3,0.1,5.9-0.3
				c0.7-0.1,1.7-0.3,2.5-0.5c0.8-0.2,1.9-0.5,2.7-0.8C614.5,714.6,616.2,713.7,617.1,713.1z"/>
		</g>
		<polygon class="st43" points="626.8,699.1 626.4,699.1 626.4,699.1 626.8,699.1 		"/>
		<g>
			<g class="st37">
				<g>
					<defs>
						<path id="SVGID_1_" d="M598.9,692l-9.2-5.4c0.2,0.1,0.4,0.1,0.7-0.1c0.6-0.3,1-1.1,1-1.7c0-0.3-0.1-0.5-0.3-0.6l19.7,11.6
							c0.2,0.1,0.3,0.3,0.3,0.6c0,0.6-0.4,1.4-1,1.7c-0.3,0.2-0.5,0.2-0.7,0.1L598.9,692L598.9,692z"/>
					</defs>
					<use xlink:href="#SVGID_1_"  style="overflow:visible;fill:#082C44;"/>
					<clipPath id="SVGID_2_">
						<use xlink:href="#SVGID_1_"  style="overflow:visible;"/>
					</clipPath>
					<g class="st44">
						<path class="st43" d="M591.2,684.2l19.7,11.6c0,0,0.1,0,0.1,0.1L591.2,684.2C591.2,684.2,591.2,684.2,591.2,684.2L591.2,684.2
							z"/>
						<path class="st43" d="M591.2,684.3l19.7,11.6c0.1,0.1,0.2,0.3,0.2,0.6c0,0.3-0.1,0.6-0.3,0.9l-19.7-11.6
							c0.2-0.3,0.3-0.6,0.3-0.9C591.5,684.6,591.4,684.4,591.2,684.3L591.2,684.3z"/>
						<path class="st43" d="M591.2,685.8l19.7,11.6c-0.2,0.3-0.4,0.6-0.7,0.8c-0.3,0.2-0.5,0.2-0.7,0.1l-19.7-11.6
							c0.2,0.1,0.4,0.1,0.7-0.1C590.7,686.4,591,686.1,591.2,685.8L591.2,685.8z"/>
					</g>
				</g>
				<g>
					<path class="st45" d="M590.4,684.3c0.6-0.3,1-0.1,1,0.6c0,0.6-0.4,1.4-1,1.7c-0.6,0.3-1,0.1-1-0.6
						C589.4,685.4,589.9,684.6,590.4,684.3z"/>
				</g>
			</g>
		</g>
		<g>
			<path class="st8" d="M587.6,686.2c0-2.1,1.7-3.9,3.9-3.9c2.1,0,3.9,1.7,3.9,3.9c0,2.1-1.7,3.9-3.9,3.9
				C589.3,690.1,587.6,688.4,587.6,686.2z"/>
			<path class="st46" d="M589.2,683c-0.5,0.9-0.6,2-0.3,3.1c0.4,1.4,3,3.1,4.9,3.1c-0.7,0.5-1.5,0.8-2.4,0.8c-2.1,0-3.9-1.7-3.9-3.9
				C587.6,684.9,588.2,683.7,589.2,683z"/>
			<path class="st14" d="M591,684.8c0-0.8,0.7-1.5,1.5-1.5c0.8,0,1.5,0.7,1.5,1.5c0,0.8-0.7,1.5-1.5,1.5
				C591.7,686.2,591,685.6,591,684.8z"/>
		</g>
	</g>
	<g>
		<path class="st47" d="M639.8,713.8c0-1.8-1.3-2.6-2.8-1.6c-1.6,0.9-2.8,3.1-2.8,4.9s1.3,2.6,2.8,1.6
			C638.5,717.8,639.8,715.6,639.8,713.8z"/>
		<path class="st48" d="M635.7,718.6c-1,0-1-1.2-1-1.5c0-1.6,1.2-3.7,2.6-4.5c0.4-0.2,0.7-0.3,1-0.3c1,0,1,1.2,1,1.5
			c0,1.6-1.2,3.7-2.6,4.5C636.3,718.5,636,718.6,635.7,718.6L635.7,718.6z"/>
	</g>
</g>
</svg>
