<svg width="32" height="33" viewBox="0 0 32 33" fill="none" xmlns="http://www.w3.org/2000/svg">
<g clip-path="url(#clip0_30_5911)">
<circle cx="16" cy="16.5183" r="16" fill="#F5F5F5"/>
<path d="M16 17.8169V19.3169C14.8065 19.3169 13.6619 19.791 12.818 20.6349C11.9741 21.4788 11.5 22.6234 11.5 23.8169H10C10 22.2256 10.6321 20.6995 11.7574 19.5743C12.8826 18.449 14.4087 17.8169 16 17.8169ZM16 17.0669C13.5138 17.0669 11.5 15.0531 11.5 12.5669C11.5 10.0806 13.5138 8.06689 16 8.06689C18.4862 8.06689 20.5 10.0806 20.5 12.5669C20.5 15.0531 18.4862 17.0669 16 17.0669ZM16 15.5669C17.6575 15.5669 19 14.2244 19 12.5669C19 10.9094 17.6575 9.56689 16 9.56689C14.3425 9.56689 13 10.9094 13 12.5669C13 14.2244 14.3425 15.5669 16 15.5669ZM23.0845 22.3409L24.2125 23.4689L23.152 24.5294L22.024 23.4014C21.395 23.7723 20.6523 23.901 19.9352 23.7635C19.2181 23.6259 18.5758 23.2316 18.1286 22.6543C17.6814 22.0771 17.4602 21.3565 17.5063 20.6278C17.5523 19.8991 17.8626 19.2122 18.3789 18.6958C18.8953 18.1795 19.5822 17.8692 20.3109 17.8231C21.0396 17.7771 21.7602 17.9983 22.3374 18.4455C22.9147 18.8927 23.309 19.535 23.4466 20.2521C23.5841 20.9692 23.4554 21.7119 23.0845 22.3409ZM20.5 22.3169C20.8978 22.3169 21.2794 22.1589 21.5607 21.8776C21.842 21.5963 22 21.2147 22 20.8169C22 20.4191 21.842 20.0375 21.5607 19.7562C21.2794 19.4749 20.8978 19.3169 20.5 19.3169C20.1022 19.3169 19.7206 19.4749 19.4393 19.7562C19.158 20.0375 19 20.4191 19 20.8169C19 21.2147 19.158 21.5963 19.4393 21.8776C19.7206 22.1589 20.1022 22.3169 20.5 22.3169Z" fill="#1E293B"/>
</g>
<defs>
<clipPath id="clip0_30_5911">
<rect width="32" height="32" fill="white" transform="translate(0 0.518311)"/>
</clipPath>
</defs>
</svg>
