<svg width="54" height="54" viewBox="0 0 54 54" fill="none" xmlns="http://www.w3.org/2000/svg">
<g clip-path="url(#clip0_83_779)">
<path d="M28.9914 7.07104C21.5852 11.1687 16.5703 19.0513 16.5703 28.1092C16.5703 37.1672 21.5852 45.0498 28.9914 49.1474C36.3976 45.0498 41.4124 37.1672 41.4124 28.1092C41.4124 19.0513 36.3976 11.1687 28.9914 7.07104Z" fill="#B5D7F9" stroke="#B5D7F9" stroke-width="2.15924" stroke-linecap="round" stroke-linejoin="round"/>
<path d="M28.9922 22.2917V52.9217" stroke="#3E3A39" stroke-width="2.15924" stroke-linecap="round" stroke-linejoin="round"/>
<path d="M22.5898 32.374L28.992 38.7685" stroke="#3E3A39" stroke-width="2.15924" stroke-linecap="round" stroke-linejoin="round"/>
<path d="M29.1855 30.0449L36.1707 23.0681" stroke="#3E3A39" stroke-width="2.15924" stroke-linecap="round" stroke-linejoin="round"/>
<path d="M20.2129 16.9218C20.2129 15.7356 19.252 14.7759 18.0645 14.7759C16.8769 14.7759 15.916 15.7356 15.916 16.9218C15.916 18.1079 16.8769 19.0676 18.0645 19.0676C19.252 19.0676 20.2129 18.1079 20.2129 16.9218Z" stroke="#3E3A39" stroke-width="2.15924" stroke-linecap="round" stroke-linejoin="round"/>
<path d="M41.4649 40.537C41.4649 39.3508 40.504 38.3911 39.3164 38.3911C38.1288 38.3911 37.168 39.3508 37.168 40.537C37.168 41.7232 38.1288 42.6829 39.3164 42.6829C40.504 42.6829 41.4649 41.7232 41.4649 40.537Z" stroke="#52A1F1" stroke-width="2.15924" stroke-linecap="round" stroke-linejoin="round"/>
<path d="M15.9168 15.0184L12.8129 11.9128H7.08008" stroke="#3E3A39" stroke-width="2.15924" stroke-linecap="round" stroke-linejoin="round"/>
<path d="M41.2285 42.6829L44.2137 45.6644H52.9208" stroke="#52A1F1" stroke-width="2.15924" stroke-linecap="round" stroke-linejoin="round"/>
<path d="M47.0801 41.8472H52.9208" stroke="#52A1F1" stroke-width="2.15924" stroke-linecap="round" stroke-linejoin="round"/>
<path d="M11.1395 15.8486H7.08008" stroke="#3E3A39" stroke-width="2.15924" stroke-linecap="round" stroke-linejoin="round"/>
</g>
<defs>
<clipPath id="clip0_83_779">
<rect width="48" height="48.0072" fill="white" transform="translate(6 5.99268)"/>
</clipPath>
</defs>
</svg>
