<svg id="Layer_1" data-name="Layer 1" xmlns="http://www.w3.org/2000/svg" viewBox="0 0 24 24"><defs><style>.cls-1{fill:#6e7173;}</style></defs><title>home</title><path class="cls-1" d="M19.91,13.43a.37.37,0,0,1-.22.12h0a.29.29,0,0,1-.22-.08L12.13,7,4.82,13.47a.35.35,0,0,1-.26.08.37.37,0,0,1-.22-.12l-.65-.83a.38.38,0,0,1,0-.51l7.59-6.7a1.25,1.25,0,0,1,1.61,0l2.58,2.29V5.5a.33.33,0,0,1,.33-.36h2a.34.34,0,0,1,.34.36v4.56l2.31,2a.4.4,0,0,1,.05.51Zm-1.7,5.31a.7.7,0,0,1-.67.71H13.48V15.16H10.77v4.29h-4A.7.7,0,0,1,6,18.74V13.37s0,0,0-.07L12.13,8l6.07,5.3a.17.17,0,0,1,0,.07Z"/></svg>