<?xml version="1.0" encoding="utf-8"?>
<!-- Generator: Adobe Illustrator 24.0.1, SVG Export Plug-In . SVG Version: 6.00 Build 0)  -->
<svg version="1.1" id="레이어_1" xmlns="http://www.w3.org/2000/svg" xmlns:xlink="http://www.w3.org/1999/xlink" x="0px"
	 y="0px" viewBox="0 0 247 393" style="enable-background:new 0 0 247 393;" xml:space="preserve">
<style type="text/css">
	.st0{enable-background:new    ;}
	.st1{clip-path:url(#SVGID_2_);enable-background:new    ;}
	.st2{fill:#A13A0D;}
	.st3{fill:#9C380C;}
	.st4{clip-path:url(#SVGID_4_);enable-background:new    ;}
	.st5{fill:#ED724C;}
	.st6{clip-path:url(#SVGID_6_);enable-background:new    ;}
	.st7{clip-path:url(#SVGID_8_);enable-background:new    ;}
	.st8{clip-path:url(#SVGID_10_);enable-background:new    ;}
	.st9{clip-path:url(#SVGID_12_);enable-background:new    ;}
	.st10{fill:#F78C54;}
	.st11{clip-path:url(#SVGID_14_);enable-background:new    ;}
	.st12{fill:#FF9961;}
	.st13{fill:#FC5B14;stroke:#FFC5AE;stroke-width:3;stroke-miterlimit:10;}
</style>
<g>
	<g class="st0">
		<defs>
			<path id="SVGID_1_" class="st0" d="M161.3,149.7l40.9,23.8c-0.4-0.2-0.7-0.4-1.1-0.6L160.3,149
				C160.6,149.2,161,149.4,161.3,149.7z"/>
		</defs>
		<clipPath id="SVGID_2_">
			<use xlink:href="#SVGID_1_"  style="overflow:visible;"/>
		</clipPath>
		<g class="st1">
			<path class="st2" d="M201.1,172.8L160.3,149c0.2,0.1,0.4,0.2,0.6,0.3l40.9,23.8C201.6,173,201.3,172.9,201.1,172.8"/>
			<path class="st3" d="M201.8,173.1l-40.9-23.8c0.2,0.1,0.3,0.2,0.5,0.3l40.9,23.8C202.1,173.3,201.9,173.2,201.8,173.1"/>
		</g>
	</g>
	<g>
		<defs>
			<path id="SVGID_3_" d="M129.8,200.4l40.9,23.8c5.6,3.3,8.5,9.1,8.5,17.5c0,9.9-3.5,20.3-10.6,31.2l-40.9-23.8
				c7.1-10.9,10.6-21.3,10.6-31.2C138.3,209.5,135.5,203.7,129.8,200.4z"/>
		</defs>
		<use xlink:href="#SVGID_3_"  style="overflow:visible;fill:#ED724C;"/>
		<clipPath id="SVGID_4_">
			<use xlink:href="#SVGID_3_"  style="overflow:visible;"/>
		</clipPath>
		<g class="st4">
			<path class="st5" d="M168.6,272.9l-40.9-23.8c0.1-0.2,0.3-0.5,0.4-0.7l40.9,23.8C168.9,272.4,168.7,272.6,168.6,272.9"/>
			<path class="st5" d="M169,272.2l-40.9-23.8c0.6-1,1.3-2,1.8-3l40.9,23.8C170.3,270.2,169.7,271.2,169,272.2"/>
			<path class="st5" d="M170.9,269.2L130,245.4c0.5-0.9,1-1.8,1.5-2.7l40.9,23.8C171.9,267.3,171.4,268.3,170.9,269.2"/>
			<path class="st5" d="M172.4,266.4l-40.9-23.8c0.5-0.9,0.9-1.7,1.3-2.5l40.9,23.8C173.3,264.7,172.9,265.6,172.4,266.4"/>
			<path class="st5" d="M173.7,263.9l-40.9-23.8c0.4-0.8,0.8-1.6,1.1-2.4l40.9,23.8C174.5,262.3,174.1,263.1,173.7,263.9"/>
			<path class="st5" d="M174.8,261.4l-40.9-23.8c0.4-0.8,0.7-1.6,1-2.4l40.9,23.8C175.5,259.8,175.2,260.6,174.8,261.4"/>
			<path class="st5" d="M175.8,259l-40.9-23.8c0.3-0.8,0.6-1.6,0.9-2.5l40.9,23.8C176.4,257.4,176.1,258.2,175.8,259"/>
			<path class="st5" d="M176.7,256.6l-40.9-23.8c0.3-0.9,0.6-1.7,0.8-2.6l40.9,23.8C177.2,254.8,177,255.7,176.7,256.6"/>
			<path class="st5" d="M177.5,253.9l-40.9-23.8c0.3-1,0.5-2,0.7-3l40.9,23.8C178,252,177.8,253,177.5,253.9"/>
			<path class="st5" d="M178.2,251l-40.9-23.8c0.3-1.3,0.5-2.5,0.6-3.7l40.9,23.8C178.7,248.5,178.5,249.7,178.2,251"/>
			<path class="st5" d="M178.9,247.2L138,223.5c0.2-1.9,0.4-3.8,0.4-5.6c0-8.4-2.9-14.2-8.5-17.5l40.9,23.8
				c5.6,3.3,8.5,9.1,8.5,17.5C179.2,243.5,179.1,245.4,178.9,247.2"/>
		</g>
	</g>
	<g class="st0">
		<defs>
			<path id="SVGID_5_" class="st0" d="M198.9,171.6L158,147.8c0.7,0.4,1.5,0.8,2.3,1.2l40.9,23.8C200.4,172.4,199.6,172,198.9,171.6
				z"/>
		</defs>
		<clipPath id="SVGID_6_">
			<use xlink:href="#SVGID_5_"  style="overflow:visible;"/>
		</clipPath>
		<g class="st6">
			<path class="st3" d="M198.9,171.6L158,147.8c0.1,0,0.1,0.1,0.2,0.1l40.9,23.8C199,171.7,198.9,171.6,198.9,171.6"/>
			<path class="st2" d="M199.1,171.7L158.2,148c0.7,0.4,1.4,0.7,2,1.1l40.9,23.8C200.5,172.4,199.8,172.1,199.1,171.7"/>
		</g>
	</g>
	<g>
		<defs>
			<path id="SVGID_7_" d="M119.1,300l-40.9-23.8c0.3,0.2,0.6,0.4,1,0.5c6.5,3.3,14.6,2.1,24.4-3.5c9-5.2,17.1-13.2,24.2-24.1
				l40.9,23.8c-7.1,10.9-15.2,19-24.2,24.1c-9.8,5.6-17.9,6.8-24.4,3.5C119.7,300.4,119.4,300.2,119.1,300z"/>
		</defs>
		<use xlink:href="#SVGID_7_"  style="overflow:visible;fill:#ED724C;"/>
		<clipPath id="SVGID_8_">
			<use xlink:href="#SVGID_7_"  style="overflow:visible;"/>
		</clipPath>
		<g class="st7">
			<path class="st5" d="M119.1,300l-40.9-23.8c0.1,0,0.1,0.1,0.2,0.1l40.9,23.8C119.2,300.1,119.2,300.1,119.1,300"/>
			<path class="st5" d="M119.3,300.1l-40.9-23.8c0.2,0.1,0.5,0.3,0.8,0.4c0.4,0.2,0.7,0.3,1.1,0.5l40.9,23.8
				c-0.4-0.2-0.7-0.3-1.1-0.5C119.8,300.4,119.6,300.3,119.3,300.1"/>
			<path class="st5" d="M121.1,301l-40.9-23.8c0.6,0.2,1.2,0.4,1.8,0.6l40.9,23.8C122.3,301.5,121.7,301.3,121.1,301"/>
			<path class="st5" d="M122.9,301.7L82,277.9c0.6,0.2,1.2,0.3,1.8,0.4l40.9,23.8C124.1,302,123.5,301.8,122.9,301.7"/>
			<path class="st5" d="M124.7,302.1l-40.9-23.8c0.6,0.1,1.3,0.2,1.9,0.2l40.9,23.8C126,302.3,125.4,302.2,124.7,302.1"/>
			<path class="st5" d="M126.7,302.3l-40.9-23.8c0.7,0,1.4,0,2.1,0l40.9,23.8C128.1,302.4,127.3,302.4,126.7,302.3"/>
			<path class="st5" d="M128.8,302.3l-40.9-23.8c0.8,0,1.6-0.1,2.4-0.2l40.9,23.8C130.4,302.2,129.6,302.3,128.8,302.3"/>
			<path class="st5" d="M131.2,302.1l-40.9-23.8c1-0.1,2-0.4,3-0.6l40.9,23.8C133.2,301.7,132.2,301.9,131.2,302.1"/>
			<path class="st5" d="M134.2,301.5l-40.9-23.8c1.4-0.4,2.8-0.9,4.3-1.5l40.9,23.8C137,300.6,135.6,301.1,134.2,301.5"/>
			<path class="st5" d="M138.5,300l-40.9-23.8c1.9-0.8,3.9-1.8,6-3c4.4-2.5,8.6-5.8,12.5-9.6l40.9,23.8c-3.9,3.9-8.1,7.1-12.5,9.6
				C142.4,298.2,140.4,299.2,138.5,300"/>
			<path class="st5" d="M156.9,287.4l-40.9-23.8c1.3-1.3,2.7-2.7,4-4.2l40.9,23.8C159.6,284.6,158.3,286,156.9,287.4"/>
			<path class="st5" d="M160.9,283.1L120,259.4c1-1.2,2-2.4,3-3.7l40.9,23.8C162.9,280.7,161.9,281.9,160.9,283.1"/>
			<path class="st5" d="M163.9,279.4l-40.9-23.8c0.9-1.2,1.8-2.4,2.7-3.6l40.9,23.8C165.7,277,164.8,278.2,163.9,279.4"/>
			<path class="st5" d="M166.6,275.8L125.7,252c0.7-0.9,1.3-1.9,2-2.9l40.9,23.8C167.9,273.9,167.3,274.8,166.6,275.8"/>
		</g>
	</g>
	<g>
		<defs>
			<path id="SVGID_9_" d="M121.8,183.6l-40.9-23.8c0.4,0.2,0.8,0.4,1.2,0.6c5.3,2.2,12.3,0.8,21.1-4.3c9-5.2,16.2-12,21.5-20.3
				c5.3-8.4,8-17.2,8-26.5c0-8.6-2.3-14.2-7-16.9l40.9,23.8c4.6,2.7,6.9,8.3,7,16.9c0,9.3-2.6,18.1-8,26.5
				c-5.3,8.4-12.5,15.1-21.5,20.3c-8.8,5.1-15.9,6.5-21.1,4.3C122.6,184.1,122.2,183.9,121.8,183.6z"/>
		</defs>
		<use xlink:href="#SVGID_9_"  style="overflow:visible;fill:#ED724C;"/>
		<clipPath id="SVGID_10_">
			<use xlink:href="#SVGID_9_"  style="overflow:visible;"/>
		</clipPath>
		<g class="st8">
			<path class="st5" d="M121.8,183.6l-40.9-23.8c0,0,0.1,0,0.1,0.1l40.9,23.8C121.8,183.7,121.8,183.7,121.8,183.6"/>
			<path class="st5" d="M121.9,183.7L81,160c0.4,0.2,0.7,0.4,1.1,0.5c0,0,0.1,0,0.1,0l40.9,23.8c0,0-0.1,0-0.1,0
				C122.6,184.1,122.2,183.9,121.9,183.7"/>
			<path class="st5" d="M123.1,184.3l-40.9-23.8c0.4,0.2,0.9,0.3,1.3,0.5l40.9,23.8C123.9,184.6,123.5,184.5,123.1,184.3"/>
			<path class="st5" d="M124.4,184.8L83.5,161c0.5,0.1,0.9,0.2,1.4,0.3l40.9,23.8C125.3,185,124.8,184.9,124.4,184.8"/>
			<path class="st5" d="M125.8,185.1l-40.9-23.8c0.5,0.1,1,0.1,1.5,0.2l40.9,23.8C126.8,185.2,126.3,185.2,125.8,185.1"/>
			<path class="st5" d="M127.3,185.3l-40.9-23.8c0.6,0,1.1,0,1.7,0l40.9,23.8C128.5,185.3,127.9,185.3,127.3,185.3"/>
			<path class="st5" d="M129.1,185.3l-40.9-23.8c0.7,0,1.4-0.1,2.1-0.2l40.9,23.8C130.4,185.2,129.7,185.2,129.1,185.3"/>
			<path class="st5" d="M131.1,185.1l-40.9-23.8c0.9-0.1,1.8-0.3,2.7-0.6l40.9,23.8C132.9,184.7,132,184.9,131.1,185.1"/>
			<path class="st5" d="M133.8,184.5L93,160.7c1.3-0.4,2.7-0.8,4.1-1.4l40.9,23.8C136.5,183.7,135.1,184.1,133.8,184.5"/>
			<path class="st5" d="M137.9,183.1L97,159.3c2-0.8,4-1.8,6.2-3.1c4.9-2.8,9.3-6.1,13.1-9.9l40.9,23.8c-3.8,3.8-8.2,7.1-13.1,9.9
				C141.9,181.2,139.9,182.3,137.9,183.1"/>
			<path class="st5" d="M157.2,170.1l-40.9-23.8c1.1-1.1,2.1-2.2,3.1-3.3l40.9,23.8C159.3,167.9,158.2,169,157.2,170.1"/>
			<path class="st5" d="M160.3,166.8L119.4,143c0.7-0.8,1.4-1.7,2.1-2.6l40.9,23.8C161.7,165.1,161,166,160.3,166.8"/>
			<path class="st5" d="M162.4,164.2l-40.9-23.8c0.6-0.8,1.1-1.5,1.7-2.3l40.9,23.8C163.5,162.7,163,163.5,162.4,164.2"/>
			<path class="st5" d="M164.1,161.9l-40.9-23.8c0.5-0.7,1-1.4,1.5-2.2l40.9,23.8C165.1,160.5,164.6,161.2,164.1,161.9"/>
			<path class="st5" d="M165.5,159.7L124.7,136c0,0,0-0.1,0-0.1c0.4-0.6,0.8-1.3,1.2-1.9l40.9,23.8C166.4,158.4,166,159,165.5,159.7
				C165.6,159.7,165.6,159.7,165.5,159.7"/>
			<path class="st5" d="M166.8,157.7L125.9,134c0.4-0.6,0.7-1.3,1.1-1.9l40.9,23.8C167.5,156.5,167.1,157.1,166.8,157.7"/>
			<path class="st5" d="M167.8,155.8l-40.9-23.8c0.3-0.6,0.6-1.2,0.9-1.9l40.9,23.8C168.5,154.6,168.2,155.2,167.8,155.8"/>
			<path class="st5" d="M168.8,154l-40.9-23.8c0.3-0.6,0.6-1.2,0.9-1.9l40.9,23.8C169.4,152.7,169.1,153.3,168.8,154"/>
			<path class="st5" d="M169.6,152.1l-40.9-23.8c0.3-0.6,0.5-1.3,0.8-1.9l40.9,23.8C170.2,150.8,169.9,151.5,169.6,152.1"/>
			<path class="st5" d="M170.4,150.2l-40.9-23.8c0.3-0.7,0.5-1.4,0.7-2.1l40.9,23.8C170.9,148.8,170.7,149.5,170.4,150.2"/>
			<path class="st5" d="M171.2,148.1l-40.9-23.8c0.3-0.8,0.5-1.5,0.7-2.3l40.9,23.8C171.7,146.6,171.4,147.3,171.2,148.1"/>
			<path class="st5" d="M171.9,145.8L131,122c0.3-0.9,0.5-1.8,0.7-2.7l40.9,23.8C172.3,144,172.1,144.9,171.9,145.8"/>
			<path class="st5" d="M172.5,143.1l-40.9-23.8c0.3-1.2,0.5-2.5,0.6-3.7l40.9,23.8C173,140.6,172.8,141.8,172.5,143.1"/>
			<path class="st5" d="M173.2,139.3l-40.9-23.8c0.3-2,0.4-4.1,0.4-6.1c0-8.6-2.3-14.2-7-16.9l40.9,23.8c4.6,2.7,6.9,8.3,7,16.9
				C173.6,135.3,173.4,137.3,173.2,139.3"/>
		</g>
	</g>
	<g>
		<defs>
			<path id="SVGID_11_" d="M85.6,348.4l-40.9-23.8c-12.4-7.2-18.6-21.2-18.7-42c-0.1-22.4,7-45.4,21.2-68.9c1-1.6,2-3.2,3-4.8
				l40.9,23.8c-1,1.6-2,3.1-3,4.8C74,261.1,66.9,284,67,306.4C67,327.2,73.3,341.2,85.6,348.4z"/>
		</defs>
		<use xlink:href="#SVGID_11_"  style="overflow:visible;fill:#F78C54;"/>
		<clipPath id="SVGID_12_">
			<use xlink:href="#SVGID_11_"  style="overflow:visible;"/>
		</clipPath>
		<g class="st9">
			<path class="st10" d="M85.6,348.4l-40.9-23.8c-12.4-7.2-18.6-21.2-18.7-42c0-4.7,0.3-9.4,0.9-14.2l40.9,23.8
				c-0.6,4.8-0.9,9.5-0.9,14.2C67,327.2,73.3,341.2,85.6,348.4"/>
			<path class="st10" d="M67.9,292.3L27,268.5c0.4-3.1,0.9-6.2,1.6-9.3L69.5,283C68.8,286.1,68.3,289.2,67.9,292.3"/>
			<path class="st10" d="M69.5,283l-40.9-23.8c0.5-2.4,1.1-4.8,1.8-7.2l40.9,23.8C70.6,278.2,70,280.6,69.5,283"/>
			<path class="st10" d="M71.2,275.8L30.4,252c0.6-2.1,1.2-4.2,1.9-6.3l40.9,23.8C72.5,271.6,71.8,273.7,71.2,275.8"/>
			<path class="st10" d="M73.2,269.5l-40.9-23.8c0.7-2,1.4-3.9,2.1-5.9l40.9,23.8C74.5,265.6,73.8,267.5,73.2,269.5"/>
			<path class="st10" d="M75.3,263.6l-40.9-23.8c0.7-1.9,1.5-3.8,2.3-5.7l40.9,23.8C76.8,259.8,76,261.7,75.3,263.6"/>
			<path class="st10" d="M77.6,257.9l-40.9-23.8c0.8-1.9,1.7-3.8,2.6-5.7l40.9,23.8C79.3,254.1,78.4,256,77.6,257.9"/>
			<path class="st10" d="M80.2,252.2l-40.9-23.8c0.9-2,1.9-3.9,3-5.9l40.9,23.8C82.2,248.2,81.2,250.2,80.2,252.2"/>
			<path class="st10" d="M83.2,246.3l-40.9-23.8c1.1-2.1,2.3-4.2,3.5-6.2L86.7,240C85.5,242.1,84.3,244.2,83.2,246.3"/>
			<path class="st10" d="M86.7,240l-40.9-23.8c0.5-0.8,1-1.7,1.5-2.5c0.8-1.3,1.5-2.5,2.3-3.7l40.9,23.8c-0.8,1.2-1.6,2.5-2.3,3.7
				C87.7,238.4,87.2,239.2,86.7,240"/>
			<path class="st10" d="M90.5,233.8L49.6,210c0.2-0.3,0.4-0.7,0.7-1l40.9,23.8C90.9,233.1,90.7,233.4,90.5,233.8"/>
		</g>
	</g>
	<g>
		<defs>
			<path id="SVGID_13_" d="M89,231.6l-40.9-23.8c-11.3-6.5-16.9-19.8-17-39.8c-0.1-21.3,6.5-42.9,19.8-64.7
				c13.3-21.8,30.6-38.9,52-51.2c22.5-13,40.2-16,53.2-9c0.4,0.2,0.7,0.4,1,0.6l40.9,23.8c-0.3-0.2-0.7-0.4-1-0.6
				c-13-7-30.7-4-53.2,9c-21.4,12.3-38.7,29.4-52,51.2c-13.3,21.8-19.9,43.4-19.8,64.7C72.1,211.8,77.7,225.1,89,231.6z"/>
		</defs>
		<use xlink:href="#SVGID_13_"  style="overflow:visible;fill:#FF9961;"/>
		<clipPath id="SVGID_14_">
			<use xlink:href="#SVGID_13_"  style="overflow:visible;"/>
		</clipPath>
		<g class="st11">
			<path class="st12" d="M89,231.6l-40.9-23.8c-11.3-6.5-16.9-19.8-17-39.8c0-4.5,0.3-9.1,0.9-13.6l40.9,23.8
				c-0.6,4.6-0.9,9.1-0.9,13.6C72.1,211.8,77.7,225.1,89,231.6"/>
			<path class="st12" d="M72.9,178.2L32,154.4c0.4-2.9,0.9-5.9,1.5-8.8l40.9,23.8C73.8,172.3,73.2,175.3,72.9,178.2"/>
			<path class="st12" d="M74.4,169.4l-40.9-23.8c0.5-2.2,1-4.5,1.7-6.8L76,162.6C75.4,164.9,74.9,167.1,74.4,169.4"/>
			<path class="st12" d="M76,162.6l-40.9-23.8c0.5-2,1.1-3.9,1.8-5.9l40.9,23.8C77.2,158.7,76.6,160.7,76,162.6"/>
			<path class="st12" d="M77.8,156.8L37,133c0.6-1.8,1.3-3.6,2-5.4l40.9,23.8C79.1,153.1,78.4,155,77.8,156.8"/>
			<path class="st12" d="M79.8,151.3l-40.9-23.8c0.7-1.7,1.4-3.5,2.1-5.2l40.9,23.8C81.2,147.8,80.5,149.6,79.8,151.3"/>
			<path class="st12" d="M81.9,146.1l-40.9-23.8c0.8-1.7,1.5-3.5,2.4-5.2l40.9,23.8C83.5,142.6,82.7,144.4,81.9,146.1"/>
			<path class="st12" d="M84.3,140.9l-40.9-23.8c0.9-1.8,1.8-3.6,2.7-5.3L87,135.5C86.1,137.3,85.2,139.1,84.3,140.9"/>
			<path class="st12" d="M87,135.5l-40.9-23.8c1-1.9,2-3.7,3.1-5.6l40.9,23.8C89.1,131.8,88,133.7,87,135.5"/>
			<path class="st12" d="M90.2,129.9l-40.9-23.8c0.5-0.9,1.1-1.9,1.7-2.8c0.6-1,1.2-2,1.9-3l40.9,23.8c-0.6,1-1.3,2-1.9,3
				C91.3,128.1,90.7,129,90.2,129.9"/>
			<path class="st12" d="M93.7,124.1l-40.9-23.8c1.2-1.9,2.5-3.8,3.8-5.7l40.9,23.8C96.2,120.3,94.9,122.2,93.7,124.1"/>
			<path class="st12" d="M97.5,118.4L56.6,94.7c1.4-2,2.9-4,4.3-5.9l40.9,23.8C100.4,114.5,98.9,116.4,97.5,118.4"/>
			<path class="st12" d="M101.9,112.5L61,88.8c1.7-2.2,3.5-4.3,5.3-6.4l40.9,23.8C105.3,108.2,103.6,110.3,101.9,112.5"/>
			<path class="st12" d="M107.1,106.1L66.3,82.4c2.4-2.8,4.9-5.4,7.5-8l40.9,23.8C112,100.7,109.5,103.3,107.1,106.1"/>
			<path class="st12" d="M114.6,98.1L73.7,74.4c8.7-8.6,18.4-16,29.2-22.2c5.2-3,10.1-5.4,14.7-7.4l40.9,23.8
				c-4.7,1.9-9.6,4.4-14.7,7.4C133.1,82.1,123.3,89.5,114.6,98.1"/>
			<path class="st12" d="M158.5,68.5l-40.9-23.8c3.4-1.4,6.7-2.5,9.8-3.4l40.9,23.8C165.2,66,162,67.1,158.5,68.5"/>
			<path class="st12" d="M168.4,65.1l-40.9-23.8c2.2-0.6,4.4-1.1,6.5-1.4l40.9,23.8C172.7,64.1,170.6,64.5,168.4,65.1"/>
			<path class="st12" d="M174.8,63.8L133.9,40c1.7-0.3,3.4-0.4,5-0.5l40.9,23.8C178.2,63.3,176.6,63.5,174.8,63.8"/>
			<path class="st12" d="M179.9,63.3L139,39.5c1.5-0.1,2.9-0.1,4.2,0l40.9,23.8C182.7,63.2,181.3,63.2,179.9,63.3"/>
			<path class="st12" d="M184.1,63.3l-40.9-23.8c1.3,0.1,2.5,0.2,3.7,0.4l40.9,23.8C186.6,63.5,185.4,63.4,184.1,63.3"/>
			<path class="st12" d="M187.9,63.7L147,40c1.2,0.2,2.3,0.5,3.4,0.8l40.9,23.8C190.2,64.2,189,63.9,187.9,63.7"/>
			<path class="st12" d="M191.3,64.5l-40.9-23.8c1.1,0.3,2.2,0.7,3.2,1.1l40.9,23.8C193.4,65.2,192.4,64.8,191.3,64.5"/>
			<path class="st12" d="M194.5,65.7l-40.9-23.8c0.9,0.4,1.7,0.8,2.6,1.2c0.2,0.1,0.4,0.2,0.6,0.4l40.9,23.8
				c-0.2-0.1-0.4-0.2-0.6-0.4C196.2,66.4,195.4,66,194.5,65.7"/>
			<path class="st12" d="M197.7,67.2l-40.9-23.8c0.1,0.1,0.3,0.2,0.4,0.2l40.9,23.8C197.9,67.4,197.8,67.3,197.7,67.2"/>
		</g>
	</g>
	<g>
		<path class="st13" d="M201.1,172.8c14,7.6,21.1,22.2,21.1,44c0.1,22.2-7,45-21.2,68.4c-14.2,23.4-33,41.9-56.5,55.4
			c-22.3,12.9-40.8,16.1-55.5,9.5c-14.7-6.5-22-21.1-22.1-43.7c-0.1-22.4,7-45.4,21.2-68.9c1-1.6,2-3.2,3-4.8
			c-12.7-6.1-19.1-19.7-19.2-40.9c-0.1-21.3,6.5-42.9,19.8-64.7c13.3-21.8,30.6-38.9,52-51.2c22.5-13,40.2-16,53.2-9
			c13,7,19.5,20.8,19.6,41.5c0.1,19.6-6.2,40.5-18.8,62.5C198.8,171.6,200,172.2,201.1,172.8z M168.6,272.9
			c7.1-10.9,10.6-21.3,10.6-31.2c0-9.5-3.7-15.7-10.9-18.6c-7.2-2.9-15.3-1.9-24.1,3.2c-8.4,4.9-16.2,12.7-23.3,23.5
			c-7.1,10.8-10.6,21.4-10.6,31.7c0,9.5,3.3,15.9,9.8,19.1c6.5,3.3,14.6,2.1,24.4-3.5C153.4,291.8,161.5,283.8,168.6,272.9
			 M122.9,140.3c-5.2,8.5-7.8,17.4-7.8,26.7c0,9.3,2.7,15,7.9,17.3c5.3,2.2,12.3,0.8,21.1-4.3c9-5.2,16.2-12,21.5-20.3
			c5.3-8.4,8-17.2,8-26.5c0-9.3-2.7-15.1-8.1-17.5c-5.4-2.4-12.5-1-21.5,4.2C135.1,125,128.1,131.8,122.9,140.3"/>
	</g>
</g>
</svg>
