<svg xmlns="http://www.w3.org/2000/svg" viewBox="0 0 24 24"><defs><style>.cls-1,.cls-3{fill:#db4645;}.cls-2,.cls-4{fill:none;}.cls-2,.cls-3{stroke:#fff;}.cls-3{stroke-width:0.3px;}.cls-4{stroke:#db4645;stroke-linecap:round;stroke-linejoin:round;}</style></defs><title>singo</title><g id="ico"><path class="cls-1" d="M16.67,18.23V11.94a4.67,4.67,0,0,0-9.34,0v6.29"/><path class="cls-2" d="M11.31,9.25a2,2,0,0,0-2,2"/><path class="cls-3" d="M19.05,20.93a2.59,2.59,0,0,0-2.58-2.58H7.53A2.59,2.59,0,0,0,5,20.93v.62h14.1Z"/><line class="cls-4" x1="12" y1="3.15" x2="12" y2="5.09"/><line class="cls-4" x1="7.54" y1="4.25" x2="8.6" y2="5.93"/><line class="cls-4" x1="4.28" y1="7.25" x2="6.1" y2="8.22"/><line class="cls-4" x1="3.09" y1="11.36" x2="5.19" y2="11.36"/><line class="cls-4" x1="18.81" y1="11.36" x2="20.91" y2="11.36"/><line class="cls-4" x1="17.9" y1="8.22" x2="19.72" y2="7.25"/><line class="cls-4" x1="15.4" y1="5.93" x2="16.46" y2="4.25"/></g></svg>