<svg width="22" height="21" viewBox="0 0 22 21" fill="none" xmlns="http://www.w3.org/2000/svg">
<rect x="10" y="11.6001" width="3" height="12" rx="1.5" transform="rotate(-90 10 11.6001)" fill="#19B394"/>
<path d="M16.1383 5.76728C16.7235 6.35366 17.6732 6.35462 18.2596 5.76942C18.846 5.18423 18.8469 4.23448 18.2617 3.64811L16.1383 5.76728ZM18.2617 17.1519C18.8469 16.5655 18.846 15.6158 18.2596 15.0306C17.6732 14.4454 16.7235 14.4463 16.1383 15.0327L18.2617 17.1519ZM10.7822 17.3C6.56796 17.3 3.5 14.6516 3.5 10.8L0.5 10.8C0.5 16.6687 5.29591 20.3 10.7822 20.3L10.7822 17.3ZM3.5 10.8C3.5 6.76546 6.76322 3.5 10.7822 3.5L10.7822 0.5C5.10065 0.5 0.5 5.11433 0.5 10.8L3.5 10.8ZM10.7822 3.5C12.7273 3.5 14.7191 4.34523 16.1383 5.76728L18.2617 3.64811C16.3031 1.68554 13.5565 0.5 10.7822 0.5L10.7822 3.5ZM16.1383 15.0327C15.6324 15.5396 14.7518 16.1226 13.7068 16.5795C12.6614 17.0365 11.6055 17.3 10.7822 17.3L10.7822 20.3C12.1544 20.3 13.6317 19.8865 14.9086 19.3282C16.1859 18.7697 17.4165 17.9988 18.2617 17.1519L16.1383 15.0327Z" fill="#19B394"/>
</svg>
