<svg width="34" height="34" viewBox="0 0 34 34" fill="none" xmlns="http://www.w3.org/2000/svg">
<g clip-path="url(#clip0_339_4839)">
<path d="M23.6667 26.3333H26.3333V19.6667H14.3333V7.66667H7.66667V10.3333H10.3333V13H7.66667V15.6667H11.6667V18.3333H7.66667V21H10.3333V23.6667H7.66667V26.3333H10.3333V23.6667H13V26.3333H15.6667V22.3333H18.3333V26.3333H21V23.6667H23.6667V26.3333ZM17 17H27.6667C28.0203 17 28.3594 17.1405 28.6095 17.3905C28.8595 17.6406 29 17.9797 29 18.3333V27.6667C29 28.0203 28.8595 28.3594 28.6095 28.6095C28.3594 28.8595 28.0203 29 27.6667 29H6.33333C5.97971 29 5.64057 28.8595 5.39052 28.6095C5.14048 28.3594 5 28.0203 5 27.6667V6.33333C5 5.97971 5.14048 5.64057 5.39052 5.39052C5.64057 5.14048 5.97971 5 6.33333 5H15.6667C16.0203 5 16.3594 5.14048 16.6095 5.39052C16.8595 5.64057 17 5.97971 17 6.33333V17Z" fill="#1098AD"/>
</g>
<defs>
<clipPath id="clip0_339_4839">
<rect width="32" height="32" fill="white" transform="translate(1 1)"/>
</clipPath>
</defs>
</svg>
