<svg width="20" height="20" viewBox="0 0 20 20" fill="none" xmlns="http://www.w3.org/2000/svg">
<g opacity="0.8">
<path d="M3.33203 3.33311V7.49978H3.81703M16.6137 9.16644C16.4294 7.70216 15.7645 6.34041 14.7232 5.29459C13.6819 4.24877 12.323 3.578 10.8595 3.38739C9.39603 3.19679 7.91068 3.49712 6.63622 4.24133C5.36177 4.98553 4.37024 6.13155 3.81703 7.49978M3.81703 7.49978H7.4987M16.6654 16.6664V12.4998H16.1812M16.1812 12.4998C15.6272 13.8672 14.6354 15.0123 13.3611 15.7559C12.0867 16.4994 10.6018 16.7994 9.13878 16.6088C7.67575 16.4183 6.3172 15.748 5.27581 14.7029C4.23442 13.6578 3.56899 12.2968 3.3837 10.8331M16.1812 12.4998H12.4987" stroke="white" stroke-width="2" stroke-linecap="round" stroke-linejoin="round"/>
</g>
</svg>
