<svg width="86" height="29" viewBox="0 0 86 29" fill="none" xmlns="http://www.w3.org/2000/svg">
<g clip-path="url(#clip0_15_74)">
<path d="M31.92 12.02C31.92 12.02 32.16 10.04 32.8 9.74001C33.24 9.53001 33.72 10.12 33.73 10.71C33.73 11.51 32.96 11.72 32.48 11.87C32.29 11.93 32.1 11.98 31.92 12.02Z" fill="#3E6EB3"/>
<path d="M29.35 12.02C29.35 12.02 29.11 10.04 28.47 9.74001C28.03 9.53001 27.55 10.12 27.54 10.71C27.54 11.51 28.31 11.72 28.79 11.87C28.98 11.93 29.17 11.98 29.35 12.02Z" fill="#3E6EB3"/>
<path d="M36.4499 0C32.2499 0 31.7699 4.96 31.7699 4.96H29.4999C29.4999 4.96 29.0199 0 24.8199 0C20.6199 0 18.6699 4.25 19.9799 8.1H22.3299C21.5599 6.6 21.6299 4.81 22.4999 3.37C23.0299 2.63 23.8999 2.2 24.8099 2.25C26.8599 2.25 27.2099 4.89 27.2399 5.18L27.3299 6.09C27.3899 6.73 27.9299 7.22 28.5699 7.22H32.6599C33.2999 7.22 33.8399 6.73 33.8999 6.09L33.9899 5.18C34.0199 4.9 34.3799 2.25 36.4299 2.25C37.3399 2.21 38.2099 2.63 38.7399 3.37C39.6199 4.81 39.6799 6.6 38.9099 8.1H41.2599C42.5699 4.25 40.6099 0 36.4199 0" fill="#3E6EB3"/>
<path d="M39.12 9.46002H38.03C37.69 9.46002 37.37 9.59002 37.13 9.83002L31.43 15.44C31.55 15.6 31.62 15.8 31.62 16C31.6 16.55 31.14 16.98 30.6 16.96C30.08 16.94 29.66 16.52 29.64 16C29.64 15.8 29.71 15.6 29.83 15.44L24.13 9.83002C23.89 9.59002 23.57 9.46002 23.23 9.46002H22.15C20.97 9.46002 20.02 10.41 20.02 11.59V28.35H23.97V15.12L30.64 21.68L37.31 15.12V28.35H41.26V11.59C41.26 10.41 40.31 9.46002 39.13 9.46002" fill="#4C4A4A"/>
<path d="M49.77 20.92L52.89 17.85H58.73C59.74 17.85 60.56 17.03 60.56 16.02V14.36C60.56 13.35 59.74 12.53 58.73 12.53H47.98V28.35H44.03V11.56C44.03 10.4 44.97 9.46002 46.13 9.46002H59.46C62.12 9.46002 64.27 11.61 64.27 14.27V16.12C64.27 18.78 62.12 20.93 59.46 20.93H49.77V20.92Z" fill="#4C4A4A"/>
<path d="M18.39 9.46002H13.43C12.9 9.46002 12.38 9.64002 11.97 9.98002L3.95 16.54V9.46002H0V28.35H3.95V21.27L11.97 27.83C12.38 28.17 12.9 28.35 13.43 28.35H18.39L6.84 18.9L18.39 9.46002Z" fill="#4C4A4A"/>
<path d="M85.2801 9.46002H69.1601C68.0001 9.46002 67.0601 10.4 67.0601 11.56V26.25C67.0601 27.41 68.0001 28.35 69.1601 28.35H85.2801V25.28H69.0401L71.0001 23.35V12.53H85.2701V9.46002H85.2801Z" fill="#4C4A4A"/>
</g>
<defs>
<clipPath id="clip0_15_74">
<rect width="85.28" height="28.35" fill="white"/>
</clipPath>
</defs>
</svg>
