<svg width="24" height="24" viewBox="0 0 24 24" fill="none" xmlns="http://www.w3.org/2000/svg">
<path d="M22 4.01004C21 4.50004 20.02 4.70004 19 5.00004C17.88 3.74004 16.22 3.66004 14.62 4.26004C13.02 4.86004 11.98 6.32004 12 8.00004V9.00004C8.76 9.08004 5.86 7.61004 4 5.00004C4 5.00004 -0.18 12.43 8 16C6.13 17.25 4.26 18.09 2 18C5.31 19.8 8.91 20.42 12.03 19.52C15.61 18.48 18.55 15.8 19.68 11.78C20.02 10.56 20.18 9.29004 20.18 8.03004C20.18 7.78004 21.69 5.26004 22 4.02004V4.01004Z" stroke="black" stroke-width="1.5" stroke-linecap="round" stroke-linejoin="round"/>
</svg>
