<svg width="17" height="17" viewBox="0 0 17 17" fill="none" xmlns="http://www.w3.org/2000/svg">
<path d="M1.5 11.5L0.792893 10.7929L0.5 11.0858V11.5H1.5ZM11.5 1.5L12.2071 0.792893C11.8166 0.402369 11.1834 0.402369 10.7929 0.792893L11.5 1.5ZM15.5 5.5L16.2071 6.20711C16.3946 6.01957 16.5 5.76522 16.5 5.5C16.5 5.23478 16.3946 4.98043 16.2071 4.79289L15.5 5.5ZM5.5 15.5V16.5H5.91421L6.20711 16.2071L5.5 15.5ZM1.5 15.5H0.5C0.5 16.0523 0.947715 16.5 1.5 16.5L1.5 15.5ZM2.20711 12.2071L12.2071 2.20711L10.7929 0.792893L0.792893 10.7929L2.20711 12.2071ZM10.7929 2.20711L14.7929 6.20711L16.2071 4.79289L12.2071 0.792893L10.7929 2.20711ZM14.7929 4.79289L4.79289 14.7929L6.20711 16.2071L16.2071 6.20711L14.7929 4.79289ZM5.5 14.5H1.5V16.5H5.5V14.5ZM2.5 15.5V11.5H0.5V15.5H2.5Z" fill="white"/>
</svg>
