<svg width="14" height="15" viewBox="0 0 14 15" fill="none" xmlns="http://www.w3.org/2000/svg">
<path d="M8.57597 3.82843L4.24264 8.16176C3.97742 8.42698 3.82843 8.78669 3.82843 9.16176C3.82843 9.53683 3.97742 9.89654 4.24264 10.1618C4.50786 10.427 4.86757 10.576 5.24264 10.576C5.61771 10.576 5.97742 10.427 6.24264 10.1618L10.576 5.82843C11.1064 5.29799 11.4044 4.57857 11.4044 3.82843C11.4044 3.07828 11.1064 2.35886 10.576 1.82843C10.0455 1.29799 9.32612 1 8.57597 1C7.82583 1 7.10641 1.29799 6.57597 1.82843L2.24264 6.16176C1.44699 6.95741 1 8.03654 1 9.16176C1 10.287 1.44699 11.3661 2.24264 12.1618C3.03829 12.9574 4.11742 13.4044 5.24264 13.4044C6.36786 13.4044 7.44699 12.9574 8.24264 12.1618L12.576 7.82843" stroke="black" stroke-width="1.33333" stroke-linecap="round" stroke-linejoin="round"/>
</svg>
