<svg width="26" height="24" viewBox="0 0 26 24" fill="none" xmlns="http://www.w3.org/2000/svg">
<path d="M0.5 0.5H19.5V23.5H4C2.067 23.5 0.5 21.933 0.5 20V0.5Z" fill="#F4F5F7" stroke="#E9E9E9"/>
<rect x="3" y="6" width="23" height="13" rx="2" fill="#35ADB5"/>
<path d="M9.48847 12.528L9.61647 12.024C9.76847 11.432 9.92847 10.736 10.0725 10.112H10.1045C10.2645 10.72 10.4165 11.432 10.5765 12.024L10.7045 12.528H9.48847ZM11.3205 15H12.8245L10.9765 9.048H9.26447L7.41647 15H8.87247L9.21647 13.632H10.9765L11.3205 15ZM14.294 15H16.006L17.798 9.048H16.342L15.67 11.76C15.502 12.4 15.374 13.016 15.206 13.664H15.166C14.99 13.016 14.878 12.4 14.702 11.76L14.022 9.048H12.51L14.294 15ZM18.4107 15H19.8427V9.048H18.4107V15Z" fill="white"/>
</svg>
