<svg width="13" height="13" viewBox="0 0 13 13" fill="none" xmlns="http://www.w3.org/2000/svg">
<path opacity="0.8" d="M2 1.20001C1.55817 1.20001 1.2 1.558 1.2 2V11C1.2 11.442 1.55817 11.8 2 11.8H11C11.4418 11.8 11.8 11.442 11.8 11V8.75H13V11C13 12.105 12.1046 13 11 13H2C0.89543 13 0 12.105 0 11V2C0 0.895 0.89543 0 2 0H4.25V1.20001H2Z" fill="#909090"/>
<path opacity="0.8" fill-rule="evenodd" clip-rule="evenodd" d="M5.80016 0H13.0002V7.20001H11.8002V2.04901L8.60016 5.24899L7.00016 6.849L6.20026 7.64899L5.35156 6.79999L6.15166 6L7.75166 4.39999L10.9517 1.20001H5.80016V0Z" fill="#909090"/>
</svg>
