<svg width="18" height="19" viewBox="0 0 18 19" fill="none" xmlns="http://www.w3.org/2000/svg">
<path d="M10 17.0003H16V7.97827L9 2.53427L2 7.97827V17.0003H8V11.0003H10V17.0003ZM18 18.0003C18 18.2655 17.8946 18.5198 17.7071 18.7074C17.5196 18.8949 17.2652 19.0003 17 19.0003H1C0.734784 19.0003 0.48043 18.8949 0.292893 18.7074C0.105357 18.5198 2.4071e-07 18.2655 2.4071e-07 18.0003V7.49027C-0.000105484 7.33789 0.0346172 7.18749 0.101516 7.05057C0.168415 6.91366 0.26572 6.79384 0.386 6.70027L8.386 0.478272C8.56154 0.341717 8.7776 0.267578 9 0.267578C9.2224 0.267578 9.43846 0.341717 9.614 0.478272L17.614 6.70027C17.7343 6.79384 17.8316 6.91366 17.8985 7.05057C17.9654 7.18749 18.0001 7.33789 18 7.49027V18.0003Z" fill="#5D6064"/>
</svg>
