<svg width="19" height="19" viewBox="0 0 19 19" fill="none" xmlns="http://www.w3.org/2000/svg">
<path fill-rule="evenodd" clip-rule="evenodd" d="M10.5789 3.97177C11.1689 3.38176 11.9692 3.05029 12.8036 3.05029C13.638 3.05029 14.4382 3.38176 15.0282 3.97177C15.6182 4.56179 15.9497 5.36201 15.9497 6.19642C15.9497 7.03082 15.6182 7.83105 15.0282 8.42107L12.0936 11.3557C11.8035 11.6512 11.4575 11.886 11.0757 12.0464C10.6931 12.2072 10.2821 12.29 9.86705 12.29C9.45196 12.29 9.04105 12.2072 8.65837 12.0464C8.2757 11.8856 7.92895 11.6501 7.63845 11.3536C7.42564 11.1364 7.4292 10.7878 7.6464 10.575C7.8636 10.3621 8.2122 10.3657 8.42502 10.5829C8.61299 10.7748 8.83735 10.9272 9.08497 11.0312C9.33258 11.1353 9.59847 11.1889 9.86705 11.1889C10.1356 11.1889 10.4015 11.1353 10.6491 11.0312C10.8968 10.9272 11.1211 10.7748 11.3091 10.5829L11.313 10.5789L14.2495 7.64241C14.633 7.25891 14.8485 6.73877 14.8485 6.19642C14.8485 5.65407 14.633 5.13393 14.2495 4.75043C13.866 4.36693 13.3459 4.15148 12.8036 4.15148C12.2612 4.15148 11.7411 4.36693 11.3576 4.75043L10.9905 5.11749C10.7755 5.33252 10.4269 5.33252 10.2119 5.11749C9.99683 4.90247 9.99683 4.55386 10.2119 4.33884L10.5789 3.97177Z" fill="white"/>
<path fill-rule="evenodd" clip-rule="evenodd" d="M7.92425 6.95359C8.30692 6.79279 8.71784 6.70996 9.13293 6.70996C9.54802 6.70996 9.95893 6.79279 10.3416 6.95359C10.7243 7.11439 11.071 7.34994 11.3615 7.64643C11.5743 7.86363 11.5708 8.21223 11.3536 8.42505C11.1364 8.63786 10.7878 8.6343 10.575 8.4171C10.387 8.22525 10.1626 8.07284 9.91501 7.96879C9.6674 7.86475 9.40151 7.81115 9.13293 7.81115C8.86434 7.81115 8.59845 7.86475 8.35084 7.96879C8.10323 8.07284 7.87886 8.22525 7.69089 8.4171L7.68694 8.42109L4.75043 11.3576C4.36693 11.7411 4.15148 12.2612 4.15148 12.8036C4.15148 13.3459 4.36693 13.8661 4.75043 14.2496C5.13393 14.6331 5.65407 14.8485 6.19642 14.8485C6.73877 14.8485 7.25891 14.6331 7.64241 14.2496L8.00947 13.8825C8.22449 13.6675 8.57311 13.6675 8.78813 13.8825C9.00315 14.0975 9.00315 14.4462 8.78813 14.6612L8.42107 15.0282C7.83105 15.6182 7.03082 15.9497 6.19642 15.9497C5.36201 15.9497 4.56178 15.6182 3.97177 15.0282C3.38176 14.4382 3.05029 13.638 3.05029 12.8036C3.05029 11.9692 3.38176 11.169 3.97177 10.5789L6.90639 7.64432C7.19647 7.34882 7.54248 7.11401 7.92425 6.95359Z" fill="white"/>
</svg>
