<svg width="33" height="32" viewBox="0 0 33 32" fill="none" xmlns="http://www.w3.org/2000/svg">
<circle cx="16.6665" cy="16" r="16" fill="#5F3DC4"/>
<path d="M14.5928 18.6667H12.0002C11.8234 18.6667 11.6538 18.5964 11.5288 18.4714C11.4037 18.3464 11.3335 18.1768 11.3335 18V14C11.3335 13.8232 11.4037 13.6536 11.5288 13.5286C11.6538 13.4036 11.8234 13.3333 12.0002 13.3333H14.5928L18.1222 10.4453C18.171 10.4053 18.2302 10.38 18.2929 10.3723C18.3556 10.3646 18.4191 10.3748 18.4762 10.4019C18.5333 10.4289 18.5815 10.4716 18.6152 10.525C18.649 10.5783 18.6669 10.6402 18.6668 10.7033V21.2967C18.6669 21.3598 18.649 21.4217 18.6152 21.475C18.5815 21.5284 18.5333 21.5711 18.4762 21.5981C18.4191 21.6252 18.3556 21.6354 18.2929 21.6277C18.2302 21.62 18.171 21.5947 18.1222 21.5547L14.5935 18.6667H14.5928ZM21.2422 19.0607L20.2942 18.1127C20.6178 17.8638 20.8799 17.5438 21.0601 17.1775C21.2403 16.8112 21.3339 16.4083 21.3335 16C21.3335 15.0467 20.8335 14.21 20.0802 13.7387L21.0395 12.7793C21.5445 13.1508 21.9549 13.6359 22.2376 14.1954C22.5203 14.7549 22.6674 15.3731 22.6668 16C22.6668 17.228 22.1135 18.3267 21.2422 19.0607Z" fill="white"/>
</svg>
