<svg width="120" height="120" viewBox="0 0 120 120" fill="none" xmlns="http://www.w3.org/2000/svg">
<g clip-path="url(#clip0_71_2330)">
<path d="M73.9264 31.2653H48.1357V37.217H73.9264V31.2653Z" fill="white" fill-opacity="0.4"/>
<path d="M114.549 112.605H7.51299C6.56827 112.605 5.8125 111.849 5.8125 110.904V26.258C5.8125 25.3133 6.56827 24.5575 7.51299 24.5575H46.1518C47.0965 24.5575 47.8523 25.3133 47.8523 26.258C47.8523 27.2027 47.0965 27.9585 46.1518 27.9585H9.119V109.393H112.943V27.864H82.0509C81.1062 27.864 80.3504 27.1083 80.3504 26.1636C80.3504 25.2188 81.1062 24.4631 82.0509 24.4631H114.549C115.494 24.4631 116.25 25.2188 116.25 26.1636V110.904C116.25 111.849 115.494 112.605 114.549 112.605Z" fill="white"/>
<path d="M74.9655 39.8621H47.0965C46.1518 39.8621 45.396 39.1063 45.396 38.1616V18.5116C45.396 17.5669 46.1518 16.8111 47.0965 16.8111H74.8711C75.8158 16.8111 76.5716 17.5669 76.5716 18.5116V38.1616C76.5716 39.1063 75.8158 39.8621 74.9655 39.8621ZM48.797 36.5556H73.2651V20.1176H48.797V36.5556Z" fill="white"/>
<path d="M69.6755 19.6453C68.7308 19.6453 67.975 18.8895 67.975 17.9448C67.975 14.0715 64.8575 10.9539 60.9841 10.9539C57.1108 10.9539 53.9933 14.0715 53.9933 17.9448C53.9933 18.8895 53.2375 19.6453 52.2928 19.6453C51.3481 19.6453 50.5923 18.8895 50.5923 17.9448C50.5923 12.2765 55.2214 7.6474 60.8897 7.6474C66.558 7.6474 71.187 12.2765 71.187 17.9448C71.2815 18.984 70.5258 19.6453 69.6755 19.6453Z" fill="white"/>
<path d="M56.4492 93.4273H18.1883C17.2436 93.4273 16.4878 92.6716 16.4878 91.7269V53.5604C16.4878 52.6157 17.2436 51.8599 18.1883 51.8599H56.4492C57.3939 51.8599 58.1497 52.6157 58.1497 53.5604V91.8213C58.0552 92.6716 57.2994 93.4273 56.4492 93.4273ZM19.7943 90.1208H54.7487V55.1664H19.7943V90.1208V90.1208Z" fill="white"/>
<path d="M43.2225 66.1252C43.2225 62.8187 40.5773 60.2679 37.3653 60.2679C34.0588 60.2679 31.4136 62.9131 31.4136 66.1252C31.4136 69.4317 34.0588 71.9824 37.3653 71.9824C40.5773 72.0769 43.2225 69.4317 43.2225 66.1252Z" fill="white" fill-opacity="0.4"/>
<path d="M42.0889 73.9661C40.6719 74.8163 39.0659 75.3831 37.2709 75.3831C35.4759 75.3831 33.8699 74.9108 32.4529 73.9661C27.4459 75.95 23.856 80.8625 23.856 86.6252H50.7803C50.7803 80.8625 47.1904 75.95 42.0889 73.9661Z" fill="white" fill-opacity="0.4"/>
<path d="M103.874 61.874H71.2811C70.3363 61.874 69.5806 61.1182 69.5806 60.1735C69.5806 59.2288 70.3363 58.473 71.2811 58.473H103.874C104.818 58.473 105.574 59.2288 105.574 60.1735C105.574 61.1182 104.818 61.874 103.874 61.874Z" fill="white"/>
<path d="M103.874 74.3442H71.2815C70.3368 74.3442 69.5811 73.5884 69.5811 72.6437C69.5811 71.699 70.3368 70.9432 71.2815 70.9432H103.874C104.819 70.9432 105.575 71.699 105.575 72.6437C105.575 73.5884 104.819 74.3442 103.874 74.3442Z" fill="white"/>
<path d="M103.874 86.7203H71.2815C70.3368 86.7203 69.5811 85.9645 69.5811 85.0198C69.5811 84.0751 70.3368 83.3193 71.2815 83.3193H103.874C104.819 83.3193 105.575 84.0751 105.575 85.0198C105.575 85.9645 104.819 86.7203 103.874 86.7203Z" fill="white"/>
</g>
<defs>
<clipPath id="clip0_71_2330">
<rect width="110.437" height="104.863" fill="white" transform="translate(5.81299 7.74237)"/>
</clipPath>
</defs>
</svg>
