<svg width="120" height="120" viewBox="0 0 120 120" fill="none" xmlns="http://www.w3.org/2000/svg">
<g clip-path="url(#clip0_73_2551)">
<path d="M100.913 20.6125C100.06 15.399 95.5099 11.3229 89.9171 11.3229C86.1254 11.3229 82.8077 13.2187 80.8171 16.0625C80.0587 15.5885 79.1108 15.3042 78.1629 15.3042C75.4139 15.3042 73.2336 17.4844 73.1389 20.1386C69.8211 20.6125 67.2617 23.3615 67.2617 26.8689C67.2617 30.5658 70.2951 33.5991 73.992 33.5991H98.1641C101.861 33.5991 104.894 30.5658 104.894 26.8689C104.989 24.1199 103.283 21.6553 100.913 20.6125Z" fill="white" fill-opacity="0.4"/>
<path d="M62.9011 64.4067H51.4312V109.718H62.9011V64.4067Z" fill="white" fill-opacity="0.4"/>
<path d="M23.2776 50.9461C22.3296 50.9461 21.5713 50.1877 21.5713 49.2398V15.2093C21.5713 11.7019 24.4151 8.85815 27.9224 8.85815C31.4297 8.85815 34.2735 11.7019 34.2735 15.2093V36.6324C34.2735 37.5803 33.5152 38.3386 32.5672 38.3386C31.6193 38.3386 30.861 37.5803 30.861 36.6324V15.2093C30.861 13.503 29.4391 12.1759 27.8276 12.1759C26.1213 12.1759 24.7942 13.5978 24.7942 15.2093V49.2398C24.9838 50.1877 24.2255 50.9461 23.2776 50.9461Z" fill="white"/>
<path d="M42.1415 38.2441C41.1936 38.2441 40.4352 37.4857 40.4352 36.5378V34.168C40.4352 32.4617 39.0134 31.1346 37.4019 31.1346C35.6956 31.1346 34.3685 32.5565 34.3685 34.168V36.5378C34.3685 37.4857 33.6102 38.2441 32.757 38.2441C31.8091 38.2441 31.0508 37.4857 31.0508 36.5378V34.168C31.0508 30.6607 33.8946 27.8169 37.4019 27.8169C40.9092 27.8169 43.753 30.6607 43.753 34.168V36.5378C43.753 37.5805 42.9946 38.2441 42.1415 38.2441Z" fill="white"/>
<path d="M51.4316 38.2438C50.4837 38.2438 49.7253 37.4854 49.7253 36.5375V34.1677C49.7253 32.4614 48.3035 31.1343 46.692 31.1343C44.9857 31.1343 43.6586 32.5562 43.6586 34.1677V36.5375C43.6586 37.4854 42.9003 38.2438 41.9524 38.2438C41.0044 38.2438 40.2461 37.4854 40.2461 36.5375V34.1677C40.2461 30.6604 43.0899 27.8166 46.5972 27.8166C50.1045 27.8166 52.9483 30.6604 52.9483 34.1677V36.5375C53.1379 37.5802 52.3795 38.2438 51.4316 38.2438Z" fill="white"/>
<path d="M60.8159 65.4493C59.868 65.4493 59.1096 64.691 59.1096 63.7431V34.2626C59.1096 32.5563 57.6877 31.2292 56.0763 31.2292C54.37 31.2292 53.0429 32.6511 53.0429 34.2626V36.6324C53.0429 37.5803 52.2846 38.3387 51.3366 38.3387C50.3887 38.3387 49.6304 37.5803 49.6304 36.6324V34.2626C49.6304 30.7553 52.4741 27.9115 55.9815 27.9115C59.4888 27.9115 62.3326 30.7553 62.3326 34.2626V63.8379C62.4274 64.691 61.7638 65.4493 60.8159 65.4493Z" fill="white"/>
<path d="M23.7517 65.4492C23.3725 65.4492 22.9933 65.2597 22.6141 64.9753L5.93065 49.7137C4.69835 48.5762 3.84522 46.9647 3.75043 45.1636C3.65563 43.3626 4.22439 41.6563 5.3619 40.3292C6.5942 39.0021 8.20568 38.2438 10.0067 38.149C11.8078 38.0542 13.5141 38.6229 14.8412 39.7605L24.036 47.9126C24.6996 48.4814 24.7944 49.5241 24.1308 50.2824C23.5621 50.946 22.5194 51.0408 21.761 50.3772L12.5661 42.2251C11.239 40.9928 9.05881 41.1823 7.9213 42.5094C6.689 43.8365 6.87858 46.0168 8.20568 47.1543L24.8892 62.5107C25.5527 63.1742 25.6475 64.2169 24.984 64.8805C24.6048 65.2597 24.2256 65.4492 23.7517 65.4492Z" fill="white"/>
<path d="M62.9008 111.329C61.9529 111.329 61.1945 110.571 61.1945 109.623V66.0181H23.6567V109.717C23.6567 110.665 22.8983 111.424 21.9504 111.424C21.0025 111.424 20.2441 110.665 20.2441 109.717V64.4066C20.2441 63.4587 21.0025 62.7004 21.9504 62.7004H62.9008C63.8487 62.7004 64.5123 63.4587 64.5123 64.4066V109.717C64.5123 110.665 63.8487 111.329 62.9008 111.329Z" fill="white"/>
<path d="M61.6687 75.3077H22.9934C22.0454 75.3077 21.2871 74.5494 21.2871 73.6015C21.2871 72.6535 22.0454 71.8952 22.9934 71.8952H61.6687C62.6167 71.8952 63.375 72.6535 63.375 73.6015C63.375 74.5494 62.6167 75.3077 61.6687 75.3077Z" fill="white"/>
<path d="M97.8795 111.329C97.3107 111.329 96.742 111.045 96.3628 110.381L67.8303 54.4535L63.0906 62.3213C62.6167 63.0796 61.5739 63.364 60.8156 62.89C60.0573 62.4161 59.7729 61.3733 60.2469 60.615L66.5032 50.1878C66.7875 49.7139 67.3563 49.3347 68.0198 49.4295C68.5886 49.4295 69.1574 49.8086 69.4417 50.3774L99.3962 109.054C99.7753 109.907 99.491 110.855 98.6378 111.329C98.4482 111.329 98.1639 111.329 97.8795 111.329Z" fill="white"/>
<path d="M64.7971 96.9204C64.1336 96.9204 63.5648 96.9204 63.0908 96.8256C62.1429 96.7309 61.5742 95.8777 61.669 94.9298C61.7637 93.9819 62.6169 93.4131 63.5648 93.5079C63.944 93.6027 72.9493 94.7402 75.8878 83.9339C76.0774 83.3651 76.5514 82.8911 77.1201 82.7963C77.6889 82.6068 78.3524 82.7963 78.7316 83.2703C79.2056 83.7443 80.6275 84.9766 82.1441 85.0714C82.9025 85.0714 83.566 84.787 84.3244 84.1234C84.9879 83.4599 86.0306 83.4599 86.6942 84.1234C87.3577 84.787 87.3577 85.8297 86.6942 86.4933C85.3671 87.8204 83.7556 88.4839 82.1441 88.4839C80.7223 88.4839 79.49 87.9151 78.4472 87.3464C75.3191 94.835 68.968 96.9204 64.7971 96.9204Z" fill="white"/>
<path d="M112.857 111.329C112.288 111.329 111.719 111.044 111.435 110.476L87.0732 67.6295L81.2908 75.3077C80.7221 76.066 79.6793 76.1608 78.921 75.592C78.1627 75.0233 78.0679 73.9806 78.6366 73.2222L85.9356 63.4586C86.3148 62.9846 86.7888 62.795 87.3575 62.795C87.9263 62.795 88.4003 63.1742 88.6846 63.6482L114.279 108.769C114.753 109.528 114.468 110.57 113.615 111.044C113.425 111.329 113.141 111.329 112.857 111.329Z" fill="white"/>
</g>
<defs>
<clipPath id="clip0_73_2551">
<rect width="110.812" height="102.471" fill="white" transform="translate(3.75 8.85864)"/>
</clipPath>
</defs>
</svg>
