<svg width="58" height="58" viewBox="0 0 58 58" fill="none" xmlns="http://www.w3.org/2000/svg">
<g clip-path="url(#clip0)">
<path d="M23.5758 24.4705H22.0376C21.5703 24.4705 21.1915 24.8492 21.1915 25.3165C21.1915 25.7838 21.5703 26.1625 22.0376 26.1625H23.5758C24.0431 26.1625 24.4219 25.7838 24.4219 25.3165C24.4219 24.8492 24.0431 24.4705 23.5758 24.4705Z" fill="white"/>
<path d="M35.5744 24.4705H34.0361C33.5688 24.4705 33.1901 24.8492 33.1901 25.3165C33.1901 25.7838 33.5688 26.1625 34.0361 26.1625H35.5744C36.0416 26.1625 36.4204 25.7838 36.4204 25.3165C36.4204 24.8492 36.0416 24.4705 35.5744 24.4705Z" fill="white"/>
<path d="M28.8059 28.3161C27.1507 28.3161 25.8063 26.9716 25.8063 25.3165C25.8063 23.6613 27.1507 22.3169 28.8059 22.3169C30.461 22.3169 31.8055 23.6613 31.8055 25.3165C31.8055 26.9716 30.461 28.3161 28.8059 28.3161ZM28.8059 24.009C28.086 24.009 27.4984 24.5966 27.4984 25.3165C27.4984 26.0364 28.086 26.624 28.8059 26.624C29.5258 26.624 30.1134 26.0364 30.1134 25.3165C30.1134 24.5966 29.5288 24.009 28.8059 24.009Z" fill="white"/>
<path d="M40.5551 30.4487C40.5551 31.2352 39.9175 31.8727 39.1311 31.8727H18.4838C17.6973 31.8727 17.0598 31.2352 17.0598 30.4487V20.1846C17.0598 19.3981 17.6973 18.7606 18.4838 18.7606H39.1311C39.9175 18.7606 40.5551 19.3981 40.5551 20.1846V30.4487ZM18.7519 28.7566C18.7519 29.5431 19.3894 30.1806 20.1758 30.1806H37.439C38.2255 30.1806 38.863 29.5431 38.863 28.7566V21.8767C38.863 21.0902 38.2255 20.4527 37.439 20.4527H20.1758C19.3894 20.4527 18.7519 21.0902 18.7519 21.8767V28.7566Z" fill="white"/>
<path d="M40.5551 33.9585H17.0598V35.6506H40.5551V33.9585Z" fill="white"/>
<path d="M40.5551 37.7363H17.0598V39.4284H40.5551V37.7363Z" fill="white"/>
</g>
<defs>
<clipPath id="clip0">
<rect width="23.4953" height="20.6679" fill="white" transform="translate(17.0598 18.7606)"/>
</clipPath>
</defs>
</svg>
