<svg width="194" height="182" viewBox="0 0 194 182" fill="none" xmlns="http://www.w3.org/2000/svg">
<g clip-path="url(#clip0)">
<path d="M127.863 93.1546C127.863 100.962 121.534 107.292 113.726 107.292C105.919 107.292 99.5895 100.962 99.5895 93.1546C99.5895 85.347 105.919 79.0177 113.726 79.0177C121.534 79.0177 127.863 85.347 127.863 93.1546Z" fill="#E0DFF4" stroke="#8B919C" stroke-width="1.4881"/>
<path d="M100.333 41.8154C102.381 41.8154 104.054 40.143 104.054 38.0951V34.3749H107.774H113.726C114.952 34.3749 115.958 35.3811 115.958 36.607V42.5594C115.958 43.7854 114.952 44.7916 113.726 44.7916H54.2025C52.9765 44.7916 51.9704 43.7854 51.9704 42.5594V36.607C51.9704 35.3811 52.9765 34.3749 54.2025 34.3749H63.8751V38.0951C63.8751 40.143 65.5475 41.8154 67.5954 41.8154C69.6432 41.8154 71.3156 40.143 71.3156 38.0951V34.3749H75.0358H96.6132V38.0951C96.6132 40.143 98.2856 41.8154 100.333 41.8154Z" fill="#E0DFF4" stroke="#8B919C" stroke-width="1.4881"/>
<path d="M113.726 108.036C121.945 108.036 128.607 101.373 128.607 93.1546C128.607 84.9361 121.945 78.2737 113.726 78.2737C105.508 78.2737 98.8455 84.9361 98.8455 93.1546C98.8455 101.373 105.508 108.036 113.726 108.036Z" stroke="#8B919C" stroke-width="2.97619" stroke-miterlimit="10" stroke-linejoin="round"/>
<path d="M97.3571 33.6309H71.5" stroke="#8B919C" stroke-width="2.97619" stroke-miterlimit="10" stroke-linejoin="round"/>
<path d="M104.5 33.6309H113.726C115.363 33.6309 116.703 34.9701 116.703 36.607V42.5594C116.703 44.1963 115.363 45.5356 113.726 45.5356H54.2025C52.5656 45.5356 51.2263 44.1963 51.2263 42.5594V36.607C51.2263 34.9701 52.5656 33.6309 54.2025 33.6309H64.6192" stroke="#8B919C" stroke-width="2.97619" stroke-miterlimit="10" stroke-linejoin="round"/>
<path d="M113.726 73.8093V45.5355" stroke="#8B919C" stroke-width="2.97619" stroke-miterlimit="10" stroke-linejoin="round"/>
<path d="M54.2024 45.9999V90.1784C54.2024 93.4671 56.8661 96.1308 60.1548 96.1308H94.381" stroke="#8B919C" stroke-width="2.97619" stroke-miterlimit="10" stroke-linejoin="round"/>
<path d="M103.309 33.6308V38.0951C103.309 39.732 101.97 41.0713 100.333 41.0713C98.6963 41.0713 97.3571 39.732 97.3571 38.0951V33.6308V30.6547C97.3571 29.0178 98.6963 27.6785 100.333 27.6785C101.97 27.6785 103.309 29.0178 103.309 30.6547V33.6308Z" stroke="#8B919C" stroke-width="2.97619" stroke-miterlimit="10" stroke-linejoin="round"/>
<path d="M70.5716 33.6308V38.0951C70.5716 39.732 69.2324 41.0713 67.5955 41.0713C65.9585 41.0713 64.6193 39.732 64.6193 38.0951V33.6308V30.6547C64.6193 29.0178 65.9585 27.6785 67.5955 27.6785C69.2324 27.6785 70.5716 29.0178 70.5716 30.6547V33.6308Z" stroke="#8B919C" stroke-width="2.97619" stroke-miterlimit="10" stroke-linejoin="round"/>
<path d="M106.286 61.9046H97.3575H88.4289H79.5003H70.5718H61.6432V52.9761H70.5718H79.5003H88.4289H97.3575H106.286V61.9046Z" stroke="#8B919C" stroke-width="2.97619" stroke-miterlimit="10" stroke-linejoin="round"/>
<path d="M106.286 61.9047V70.8332H97.3575H88.4289H79.5003H70.5718H61.6432V61.9047" stroke="#8B919C" stroke-width="2.97619" stroke-miterlimit="10" stroke-linejoin="round"/>
<path d="M97.3575 79.7618H88.4289H79.5003H70.5718H61.6432V70.8333" stroke="#8B919C" stroke-width="2.97619" stroke-miterlimit="10" stroke-linejoin="round"/>
<path d="M106.286 75.2975V70.8333" stroke="#8B919C" stroke-width="2.97619" stroke-miterlimit="10" stroke-linejoin="round"/>
<path d="M95.8694 88.6904H88.4289H79.5003H70.5718H61.6432V79.7618" stroke="#8B919C" stroke-width="2.97619" stroke-miterlimit="10" stroke-linejoin="round"/>
<path d="M70.5717 52.9761V61.9046V70.8332V79.7618V88.6904" stroke="#8B919C" stroke-width="2.97619" stroke-miterlimit="10" stroke-linejoin="round"/>
<path d="M79.5001 52.9761V61.9046V70.8332V79.7618V88.6904" stroke="#8B919C" stroke-width="2.97619" stroke-miterlimit="10" stroke-linejoin="round"/>
<path d="M88.4286 88.6904V79.7618V70.8332V61.9046V52.9761" stroke="#8B919C" stroke-width="2.97619" stroke-miterlimit="10" stroke-linejoin="round"/>
<path d="M97.3571 81.2499V79.7618V78.2737V70.8332V61.9046V52.9761" stroke="#8B919C" stroke-width="2.97619" stroke-miterlimit="10" stroke-linejoin="round"/>
<path fill-rule="evenodd" clip-rule="evenodd" d="M119.52 88.7769C119.969 88.3278 119.969 87.5997 119.52 87.1505C119.071 86.7014 118.343 86.7014 117.894 87.1505L113.622 91.423L109.349 87.1505C108.9 86.7014 108.172 86.7014 107.723 87.1505C107.274 87.5997 107.274 88.3278 107.723 88.7769L111.995 93.0493L107.723 97.3217C107.274 97.7708 107.274 98.499 107.723 98.9481C108.172 99.3972 108.9 99.3972 109.349 98.9481L113.622 94.6757L117.894 98.9481C118.343 99.3972 119.071 99.3972 119.52 98.9481C119.969 98.499 119.969 97.7708 119.52 97.3217L115.248 93.0493L119.52 88.7769Z" fill="#8B919C"/>
</g>
<path d="M116.896 2.42773L118.462 4.0035" stroke="#8B919C" stroke-width="2.23214" stroke-miterlimit="10" stroke-linecap="round" stroke-linejoin="round"/>
<path d="M3 9L5 11" stroke="#8B919C" stroke-width="4.33075" stroke-miterlimit="10" stroke-linecap="round" stroke-linejoin="round"/>
<path d="M125.295 10.8796L126.861 12.4554" stroke="#8B919C" stroke-width="2.23214" stroke-miterlimit="10" stroke-linecap="round" stroke-linejoin="round"/>
<path d="M15 21L17 23" stroke="#8B919C" stroke-width="4.33075" stroke-miterlimit="10" stroke-linecap="round" stroke-linejoin="round"/>
<path d="M116.896 12.4554L118.462 10.8796" stroke="#8B919C" stroke-width="2.23214" stroke-miterlimit="10" stroke-linecap="round" stroke-linejoin="round"/>
<path d="M3 23L5 21" stroke="#8B919C" stroke-width="4.33075" stroke-miterlimit="10" stroke-linecap="round" stroke-linejoin="round"/>
<path d="M125.295 4.0035L126.861 2.42773" stroke="#8B919C" stroke-width="2.23214" stroke-miterlimit="10" stroke-linecap="round" stroke-linejoin="round"/>
<path d="M15 11L17 9" stroke="#8B919C" stroke-width="4.33075" stroke-miterlimit="10" stroke-linecap="round" stroke-linejoin="round"/>
<path d="M144.047 36.7875L144.474 36.3578" stroke="#8B919C" stroke-width="2.23214" stroke-miterlimit="10" stroke-linecap="round" stroke-linejoin="round"/>
<path d="M137.926 42.9473L138.353 42.5176" stroke="#8B919C" stroke-width="2.23214" stroke-miterlimit="10" stroke-linecap="round" stroke-linejoin="round"/>
<path d="M138.353 36.7875L137.926 36.3578" stroke="#8B919C" stroke-width="2.23214" stroke-miterlimit="10" stroke-linecap="round" stroke-linejoin="round"/>
<path d="M144.474 42.9473L144.047 42.5176" stroke="#8B919C" stroke-width="2.23214" stroke-miterlimit="10" stroke-linecap="round" stroke-linejoin="round"/>
<path d="M62.6937 113.734L63.1208 113.304" stroke="#8B919C" stroke-width="2.23214" stroke-miterlimit="10" stroke-linecap="round" stroke-linejoin="round"/>
<path d="M56.5718 119.894L56.9989 119.464" stroke="#8B919C" stroke-width="2.23214" stroke-miterlimit="10" stroke-linecap="round" stroke-linejoin="round"/>
<path d="M56.9989 113.734L56.5718 113.304" stroke="#8B919C" stroke-width="2.23214" stroke-miterlimit="10" stroke-linecap="round" stroke-linejoin="round"/>
<path d="M63.1208 119.894L62.6937 119.464" stroke="#8B919C" stroke-width="2.23214" stroke-miterlimit="10" stroke-linecap="round" stroke-linejoin="round"/>
<path d="M22.5253 97.3828L24.0913 98.9586" stroke="#8B919C" stroke-width="2.23214" stroke-miterlimit="10" stroke-linecap="round" stroke-linejoin="round"/>
<path d="M30.9247 105.835L32.4907 107.41" stroke="#8B919C" stroke-width="2.23214" stroke-miterlimit="10" stroke-linecap="round" stroke-linejoin="round"/>
<path d="M22.5253 107.41L24.0913 105.835" stroke="#8B919C" stroke-width="2.23214" stroke-miterlimit="10" stroke-linecap="round" stroke-linejoin="round"/>
<path d="M30.9247 98.9586L32.4907 97.3828" stroke="#8B919C" stroke-width="2.23214" stroke-miterlimit="10" stroke-linecap="round" stroke-linejoin="round"/>
<path d="M160 61L161.571 62.5714" stroke="#8B919C" stroke-width="3.40274" stroke-miterlimit="10" stroke-linecap="round" stroke-linejoin="round"/>
<path d="M169.429 70.4286L171 72" stroke="#8B919C" stroke-width="3.40274" stroke-miterlimit="10" stroke-linecap="round" stroke-linejoin="round"/>
<path d="M160 72L161.571 70.4286" stroke="#8B919C" stroke-width="3.40274" stroke-miterlimit="10" stroke-linecap="round" stroke-linejoin="round"/>
<path d="M169.429 62.5714L171 61" stroke="#8B919C" stroke-width="3.40274" stroke-miterlimit="10" stroke-linecap="round" stroke-linejoin="round"/>
<path d="M51.0538 145.878H48.3238V144.408H46.8818V145.878H44.0398V147.026H51.0538V145.878ZM53.0418 154.082H54.4838V144.436H53.0418V147.698H51.1098V148.874H53.0418V150.386H51.1098V151.548H53.0418V154.082ZM50.5078 150.064C50.5078 148.594 49.3318 147.614 47.5958 147.614C45.8738 147.614 44.6978 148.594 44.6978 150.064C44.6978 151.52 45.8738 152.514 47.5958 152.514C49.3318 152.514 50.5078 151.52 50.5078 150.064ZM46.0558 150.064C46.0558 149.224 46.6858 148.734 47.5958 148.734C48.5478 148.734 49.1498 149.224 49.1498 150.064C49.1498 150.904 48.5478 151.38 47.5958 151.38C46.6858 151.38 46.0558 150.904 46.0558 150.064ZM47.7078 155.664V153.27H46.2518V156.84H54.7778V155.664H47.7078Z" fill="#ADADAD"/>
<path d="M66.3687 144.422V149.42H64.9827V144.66H63.6247V156.49H64.9827V150.61H66.3687V157.078H67.7407V144.422H66.3687ZM60.7407 147.012H62.8547V145.822H57.0587V147.012H59.3407V147.712C59.3407 150.218 58.5427 152.402 56.7087 153.48L57.5907 154.558C58.8367 153.816 59.6487 152.556 60.0827 150.918C60.5447 152.318 61.3007 153.466 62.5327 154.124L63.3727 153.018C61.5387 152.052 60.7407 150.008 60.7407 147.712V147.012Z" fill="#ADADAD"/>
<path d="M79.3265 154.348V151.492H83.0225V145.444H74.1745V151.492H77.8845V154.348H72.9005V155.524H84.3525V154.348H79.3265ZM75.5885 146.592H81.6085V150.344H75.5885V146.592Z" fill="#ADADAD"/>
<path d="M94.7534 144.422V151.296H96.1954V144.422H94.7534ZM93.5774 149.994C91.6314 149.392 90.4834 147.922 90.4834 146.41V146.354H93.1854V145.192H86.2694V146.354H89.0134V146.41C89.0134 148.062 87.8654 149.56 85.8774 150.204L86.6054 151.338C88.1174 150.848 89.1954 149.826 89.7694 148.538C90.3434 149.728 91.4214 150.666 92.8774 151.114L93.5774 149.994ZM94.7674 153.228H89.3634V151.87H87.9354V156.924H96.1954V151.87H94.7674V153.228ZM94.7674 155.762H89.3634V154.362H94.7674V155.762Z" fill="#ADADAD"/>
<path d="M99.7363 149.63C101.99 149.392 103.684 148.482 104.37 147.18C105.042 148.454 106.792 149.406 109.004 149.63L109.508 148.496C107.17 148.272 105.532 147.25 105.35 146.144H109.046V144.982H99.7083V146.144H103.376C103.194 147.25 101.556 148.272 99.2183 148.496L99.7363 149.63ZM110.082 151.422V150.274H98.6443V151.422H103.642V152.584C101.276 152.738 99.9883 153.494 99.9883 154.838C99.9883 156.294 101.556 157.078 104.342 157.078C107.142 157.078 108.696 156.294 108.696 154.838C108.696 153.494 107.436 152.752 105.084 152.598V151.422H110.082ZM107.24 154.838C107.24 155.566 106.204 155.972 104.342 155.972C102.48 155.972 101.458 155.566 101.458 154.838C101.458 154.054 102.48 153.69 104.342 153.69C106.204 153.69 107.24 154.054 107.24 154.838Z" fill="#ADADAD"/>
<path d="M121.953 144.436H120.511V153.62H121.953V144.436ZM118.481 148.44C118.481 146.578 117.039 145.276 115.135 145.276C113.231 145.276 111.775 146.578 111.775 148.44C111.775 150.274 113.231 151.604 115.135 151.604C117.039 151.604 118.481 150.274 118.481 148.44ZM113.189 148.44C113.189 147.264 114.015 146.522 115.135 146.522C116.241 146.522 117.081 147.264 117.081 148.44C117.081 149.588 116.241 150.358 115.135 150.358C114.015 150.358 113.189 149.588 113.189 148.44ZM115.149 155.664V152.696H113.693V156.84H122.317V155.664H115.149Z" fill="#ADADAD"/>
<path d="M29.8829 165.878H27.1529V164.408H25.7109V165.878H22.8689V167.026H29.8829V165.878ZM31.8709 174.082H33.3129V164.436H31.8709V167.698H29.9389V168.874H31.8709V170.386H29.9389V171.548H31.8709V174.082ZM29.3369 170.064C29.3369 168.594 28.1609 167.614 26.4249 167.614C24.7029 167.614 23.5269 168.594 23.5269 170.064C23.5269 171.52 24.7029 172.514 26.4249 172.514C28.1609 172.514 29.3369 171.52 29.3369 170.064ZM24.8849 170.064C24.8849 169.224 25.5149 168.734 26.4249 168.734C27.3769 168.734 27.9789 169.224 27.9789 170.064C27.9789 170.904 27.3769 171.38 26.4249 171.38C25.5149 171.38 24.8849 170.904 24.8849 170.064ZM26.5369 175.664V173.27H25.0809V176.84H33.6069V175.664H26.5369Z" fill="#ADADAD"/>
<path d="M45.5898 167.516V164.436H44.1478V171.996H45.5898V168.706H47.3818V167.516H45.5898ZM43.1398 170.386C41.2078 169.756 40.1578 168.314 40.1578 166.732V166.494H42.8038V165.332H36.0138V166.494H38.7018V166.746C38.7018 168.468 37.5958 170.106 35.6078 170.778L36.3358 171.912C37.8478 171.394 38.9118 170.316 39.4718 168.972C40.0178 170.148 41.0258 171.058 42.4398 171.506L43.1398 170.386ZM41.5158 172.29C38.9118 172.29 37.3018 173.172 37.3018 174.684C37.3018 176.196 38.9118 177.078 41.5158 177.078C44.1198 177.078 45.7298 176.196 45.7298 174.684C45.7298 173.172 44.1198 172.29 41.5158 172.29ZM41.5158 175.944C39.7098 175.944 38.7298 175.524 38.7298 174.684C38.7298 173.844 39.7098 173.424 41.5158 173.424C43.3218 173.424 44.3018 173.844 44.3018 174.684C44.3018 175.524 43.3218 175.944 41.5158 175.944Z" fill="#ADADAD"/>
<path d="M57.3907 166.942C57.3907 168.468 57.3907 170.204 56.9427 172.5L58.3847 172.668C58.8327 170.218 58.8327 168.524 58.8327 166.942V165.612H49.7327V166.788H57.3907V166.942ZM55.7807 174.236V170.148H54.3527V174.236H52.6587V170.148H51.2307V174.236H48.5987V175.426H60.0227V174.236H55.7807Z" fill="#ADADAD"/>
<path d="M67.1896 169.616C69.9476 169.616 71.6976 168.692 71.6976 167.166C71.6976 165.64 69.9476 164.716 67.1896 164.716C64.4316 164.716 62.6816 165.64 62.6816 167.166C62.6816 168.692 64.4316 169.616 67.1896 169.616ZM67.1896 165.836C69.1076 165.836 70.1996 166.312 70.1996 167.166C70.1996 168.006 69.1076 168.482 67.1896 168.482C65.2716 168.482 64.1656 168.006 64.1656 167.166C64.1656 166.312 65.2716 165.836 67.1896 165.836ZM72.9016 171.604V170.442H61.4496V171.604H64.3336V172.99H62.7376V174.138H70.0596V177.078H71.5016V172.99H70.0176V171.604H72.9016ZM68.5756 172.99H65.7756V171.604H68.5756V172.99Z" fill="#ADADAD"/>
<path d="M83.3025 164.422V177.106H84.7585V164.422H83.3025ZM78.0245 165.36C76.1625 165.36 74.7765 167.096 74.7765 169.812C74.7765 172.556 76.1625 174.278 78.0245 174.278C79.9145 174.278 81.2865 172.556 81.2865 169.812C81.2865 167.096 79.9145 165.36 78.0245 165.36ZM78.0245 166.662C79.1445 166.662 79.9005 167.838 79.9005 169.812C79.9005 171.842 79.1445 172.99 78.0245 172.99C76.9045 172.99 76.1625 171.842 76.1625 169.812C76.1625 167.838 76.9045 166.662 78.0245 166.662Z" fill="#ADADAD"/>
<path d="M99.3963 168.468V171.128H100.838V164.45H99.3963V167.278H97.0443C96.7783 165.892 95.4763 164.968 93.8243 164.968C91.9203 164.968 90.5343 166.172 90.5343 167.894C90.5343 169.644 91.9203 170.848 93.8243 170.848C95.4903 170.848 96.7923 169.896 97.0583 168.468H99.3963ZM91.9203 167.894C91.9203 166.83 92.7043 166.158 93.8243 166.158C94.9443 166.158 95.7423 166.83 95.7423 167.894C95.7423 168.958 94.9303 169.658 93.8243 169.658C92.7043 169.658 91.9203 168.958 91.9203 167.894ZM99.9283 171.758H98.5003V172.766C98.5003 174.012 97.7863 175.328 96.2603 175.958L96.9883 177.05C98.0663 176.602 98.7663 175.79 99.2003 174.838C99.5923 175.804 100.32 176.616 101.44 177.05L102.154 175.958C100.628 175.398 99.9283 174.11 99.9283 172.766V171.758ZM94.9303 171.856V173.284H93.1243V171.856H91.7803V176.924H96.2603V171.856H94.9303ZM94.9303 175.818H93.1243V174.348H94.9303V175.818Z" fill="#ADADAD"/>
<path d="M114.067 168.216C111.561 167.88 109.699 166.522 109.699 165.052V164.562H108.215V165.052C108.215 166.522 106.367 167.88 103.847 168.216L104.379 169.336C106.465 169.056 108.117 168.132 108.957 166.788C109.797 168.132 111.463 169.056 113.549 169.336L114.067 168.216ZM103.231 170.092V171.24H114.683V170.092H103.231ZM111.771 173.312H106.073V172.024H104.645V176.924H113.213V172.024H111.771V173.312ZM111.771 175.776H106.073V174.418H111.771V175.776Z" fill="#ADADAD"/>
<path d="M125.126 164.436V177.078H126.568V164.436H125.126ZM118.294 165.668H116.866V173.886H117.944C119.918 173.886 121.92 173.732 124.118 173.284L123.964 172.08C121.934 172.486 120.1 172.64 118.294 172.654V165.668Z" fill="#ADADAD"/>
<path d="M140.763 169.294H138.789V164.422H137.347V177.092H138.789V170.484H140.763V169.294ZM130.949 166.802H135.387V165.626H129.507V173.984H130.543C132.825 173.984 134.547 173.9 136.451 173.564L136.297 172.374C134.547 172.668 132.965 172.78 130.949 172.78V166.802Z" fill="#ADADAD"/>
<path d="M143.436 174.446H141.784V176.182H143.436V174.446Z" fill="#ADADAD"/>
<defs>
<clipPath id="clip0">
<rect width="80.3571" height="83.3333" fill="white" transform="translate(49.7383 26.1904)"/>
</clipPath>
</defs>
</svg>
