<svg width="88" height="34" viewBox="0 0 88 34" fill="none" xmlns="http://www.w3.org/2000/svg">
<rect width="88" height="34" rx="4" fill="#818898"/>
<g clip-path="url(#clip0)">
<path d="M9.78729 17C10.414 13.5867 13.4053 11 17 11C20.5946 11 23.5853 13.5867 24.2126 17C23.586 20.4133 20.5946 23 17 23C13.4053 23 10.4146 20.4133 9.78729 17V17ZM17 20.3333C17.884 20.3333 18.7319 19.9821 19.357 19.357C19.9821 18.7319 20.3333 17.8841 20.3333 17C20.3333 16.1159 19.9821 15.2681 19.357 14.643C18.7319 14.0179 17.884 13.6667 17 13.6667C16.1159 13.6667 15.2681 14.0179 14.6429 14.643C14.0178 15.2681 13.6666 16.1159 13.6666 17C13.6666 17.8841 14.0178 18.7319 14.6429 19.357C15.2681 19.9821 16.1159 20.3333 17 20.3333ZM17 19C16.4695 19 15.9608 18.7893 15.5857 18.4142C15.2107 18.0391 15 17.5304 15 17C15 16.4696 15.2107 15.9609 15.5857 15.5858C15.9608 15.2107 16.4695 15 17 15C17.5304 15 18.0391 15.2107 18.4142 15.5858C18.7892 15.9609 19 16.4696 19 17C19 17.5304 18.7892 18.0391 18.4142 18.4142C18.0391 18.7893 17.5304 19 17 19Z" fill="white"/>
<path d="M39.1402 10.08H40.3442V22.862H39.1402V10.08ZM36.2282 19.348H30.5162V11.172H36.2282V19.348ZM35.0382 18.326V12.18H31.7482V18.326H35.0382ZM51.3726 10.08H52.5766V22.862H51.3726V10.08ZM43.9246 18.802H45.8706C46.3559 18.802 46.8226 18.788 47.2706 18.76C47.7279 18.7227 48.1526 18.6807 48.5446 18.634C48.9459 18.578 49.3146 18.522 49.6506 18.466C49.9866 18.4007 50.2806 18.34 50.5326 18.284V19.278C50.2526 19.3527 49.9259 19.4227 49.5526 19.488C49.1792 19.5533 48.7779 19.6093 48.3486 19.656C47.9192 19.7027 47.4759 19.7447 47.0186 19.782C46.5706 19.81 46.1319 19.824 45.7026 19.824H42.6926V14.756H47.0466V12.138H42.6646V11.102H48.2786V15.778H43.9246V18.802ZM63.003 14H57.249V16.338H63.003V14ZM56.045 17.332V10.794H57.263V12.978H62.989V10.794H64.207V17.332H60.749V19.936H66.069V20.958H54.169V19.936H59.489V17.332H56.045ZM75.8374 10.08H77.0414V22.862H75.8374V10.08ZM66.6254 19.236C67.4468 18.8253 68.1701 18.3587 68.7954 17.836C69.4301 17.3133 69.9668 16.7487 70.4054 16.142C70.8441 15.5353 71.1941 14.9007 71.4554 14.238C71.7261 13.566 71.9081 12.88 72.0014 12.18C71.4321 12.1987 70.8674 12.2127 70.3074 12.222C69.7474 12.222 69.1874 12.222 68.6274 12.222H67.1434V11.186H69.3834C70.0368 11.186 70.6901 11.186 71.3434 11.186C71.9968 11.186 72.6548 11.1767 73.3174 11.158C73.1868 13.0807 72.6454 14.8027 71.6934 16.324C70.7508 17.836 69.3321 19.1007 67.4374 20.118L66.6254 19.236Z" fill="white"/>
</g>
<defs>
<clipPath id="clip0">
<rect width="70" height="16" fill="white" transform="translate(9 9)"/>
</clipPath>
</defs>
</svg>
