<?xml version="1.0" encoding="utf-8"?>
<!-- Generator: Adobe Illustrator 16.0.0, SVG Export Plug-In . SVG Version: 6.00 Build 0)  -->
<!DOCTYPE svg PUBLIC "-//W3C//DTD SVG 1.1//EN" "http://www.w3.org/Graphics/SVG/1.1/DTD/svg11.dtd">
<svg version="1.1" id="Layer_1" xmlns="http://www.w3.org/2000/svg" xmlns:xlink="http://www.w3.org/1999/xlink" x="0px" y="0px"
	 width="174px" height="47px" viewBox="0 0 174 47" enable-background="new 0 0 174 47" xml:space="preserve">
<g>
	<g>
		<linearGradient id="SVGID_1_" gradientUnits="userSpaceOnUse" x1="15.332" y1="22.2441" x2="7.3415" y2="17.7388">
			<stop  offset="0" style="stop-color:#00B5DE"/>
			<stop  offset="0.2088" style="stop-color:#00B1DB"/>
			<stop  offset="0.3681" style="stop-color:#009ACA"/>
			<stop  offset="0.7363" style="stop-color:#346DA8"/>
			<stop  offset="1" style="stop-color:#3C65A3"/>
		</linearGradient>
		<path fill="url(#SVGID_1_)" d="M13.744,4.511c0,0-13.124,19.57-12.663,26.535c-0.008-0.118,3.743-2.257,6.66-2.943
			c2.914-0.687,3.838-0.695,5.313-0.832c1.536-0.144,4.114-0.274,4.663-0.652c-0.026,0.008-1.604-0.346-2.51-1.426
			c-0.739-0.881-1.719-1.234-2.786-1.457c0,0,0.773-1.741,2.792-2.202c0,0-1.5-4.671,1.123-8.332c0,0,0.719,2.504,2.245,3.368
			c0,0,0.82,0.575,2.936,0.791C21.514,17.361,15.902,7.31,13.744,4.511z"/>
		<linearGradient id="SVGID_2_" gradientUnits="userSpaceOnUse" x1="2.8228" y1="26.7344" x2="24.6104" y2="26.7344">
			<stop  offset="0" style="stop-color:#7CAD42"/>
			<stop  offset="0.2088" style="stop-color:#76B843"/>
			<stop  offset="0.3681" style="stop-color:#63B146"/>
			<stop  offset="0.7692" style="stop-color:#77BF43"/>
			<stop  offset="1" style="stop-color:#41A649"/>
		</linearGradient>
		<path fill="url(#SVGID_2_)" d="M2.823,31.212c5.854-2.19,9.755-2.507,10.656-2.593c0.799-0.076,2.653-0.231,5.249-1.219
			c2.548-0.86,5.104-2.787,5.152-5.144c0,0,0.625,1.521,0.731,1.966c0,0-0.526,4.188-8.728,5.335
			C11.811,30.21,9.336,29.254,2.823,31.212z"/>
		<linearGradient id="SVGID_3_" gradientUnits="userSpaceOnUse" x1="1.4844" y1="31.4775" x2="14.3389" y2="31.4775">
			<stop  offset="0" style="stop-color:#7CAD42"/>
			<stop  offset="0.2088" style="stop-color:#76B843"/>
			<stop  offset="0.3681" style="stop-color:#63B146"/>
			<stop  offset="0.7692" style="stop-color:#77BF43"/>
			<stop  offset="1" style="stop-color:#41A649"/>
		</linearGradient>
		<path fill="url(#SVGID_3_)" d="M1.484,32.71c0,0,1.551-1.254,4.505-1.593c0.386-0.051,0.776-0.085,1.165-0.112
			c0.388-0.029,0.778-0.051,1.167-0.061c0.902-0.025,1.782-0.01,2.683-0.095c0.555-0.052,1.108-0.12,1.657-0.214
			c0.294-0.051,0.586-0.107,0.876-0.175c0.2-0.045,0.647-0.079,0.801-0.216c-0.001,0.002-0.938,0.829-4.271,1.403
			c0,0-1.764,0.212-3.06,0.212C5.244,31.86,1.81,32.461,1.484,32.71z"/>
		<linearGradient id="SVGID_4_" gradientUnits="userSpaceOnUse" x1="1.8071" y1="34.3926" x2="26.4478" y2="34.3926">
			<stop  offset="0" style="stop-color:#EC1C24"/>
			<stop  offset="0.2088" style="stop-color:#F16A22"/>
			<stop  offset="0.3681" style="stop-color:#F37A4E"/>
			<stop  offset="0.7363" style="stop-color:#F7941D"/>
			<stop  offset="1" style="stop-color:#F7A01B"/>
		</linearGradient>
		<path fill="url(#SVGID_4_)" d="M1.807,34.953c0,0,2.245-1.533,6.238-1.986c0,0,1.598-0.259,4.533-0.496
			c0,0,2.159-0.108,4.576-0.584c0,0,5.439-0.754,8.094-6.366c0,0,1.338,2.158,1.187,5.914c-0.065,1.611-0.614,3.307-1.3,4.747
			c-0.499,1.046-1.202,2.045-1.938,2.929c-0.516,0.619-1.118,1.168-1.761,1.652c-1.256,0.946-2.657,1.567-4.153,2.025
			c0,0-4.014,1.23-8.007-0.259C9.276,42.529,3.317,40.37,1.807,34.953z"/>
		<linearGradient id="SVGID_5_" gradientUnits="userSpaceOnUse" x1="15.9492" y1="17.9604" x2="20.5982" y2="21.2187">
			<stop  offset="0" style="stop-color:#7CAD42"/>
			<stop  offset="0.2088" style="stop-color:#74BF44"/>
			<stop  offset="0.5659" style="stop-color:#63B146"/>
			<stop  offset="0.7692" style="stop-color:#00AF4C"/>
			<stop  offset="1" style="stop-color:#41A649"/>
		</linearGradient>
		<path fill="url(#SVGID_5_)" d="M22.371,23.357c0,0,1.073-2.258-0.083-3.801c-0.646-0.861-2.089-1.345-3.112-1.652
			c-1.653-0.496-2.588-1.625-2.864-2.836c0.004,0.059-1.239,2.781-0.138,6.196c0,0.001,3.773-0.688,4.678,3.141
			c0,0,0.581-0.14,0.94-0.497c0,0-0.799-3.662-4.135-4.925C17.658,18.983,21.021,19.089,22.371,23.357z"/>
		<linearGradient id="SVGID_6_" gradientUnits="userSpaceOnUse" x1="13.6992" y1="23.9019" x2="20.0571" y2="23.9019">
			<stop  offset="0" style="stop-color:#7CAD42"/>
			<stop  offset="0.2088" style="stop-color:#76B843"/>
			<stop  offset="0.3681" style="stop-color:#63B146"/>
			<stop  offset="0.7692" style="stop-color:#77BF43"/>
			<stop  offset="1" style="stop-color:#41A649"/>
		</linearGradient>
		<path fill="url(#SVGID_6_)" d="M19.842,25.191c0,0-1.604,0.024-3.094-1.884c0,0,1.908,1.25,3.31,1.454
			c0,0,0.051-2.328-2.423-2.698c0,0-2.347-0.462-3.935,1.167c0,0,1.249,0.193,1.875,0.903
			C16.712,25.424,18.413,26.534,19.842,25.191z"/>
	</g>
	<g>
		<g>
			<path fill="#231F20" d="M33.893,23.678h4.915v-2.783h-7.106v-2.093h11.488c0.145-0.618,0.243-1.239,0.296-1.865
				c0.053-0.625,0.079-1.168,0.079-1.629v-0.868h-9.672v-2.112h12.159v2.843c0,0.223-0.01,0.479-0.029,0.769
				c-0.02,0.29-0.046,0.599-0.079,0.928c-0.033,0.329-0.072,0.658-0.119,0.986c-0.046,0.33-0.095,0.645-0.148,0.948h2.842v2.093
				h-7.224v2.783h4.954v6.554h-2.487v-4.461h-9.869V23.678z"/>
			<path fill="#231F20" d="M50.019,24.251c0.987-0.592,1.829-1.119,2.526-1.58c0.697-0.459,1.28-0.885,1.747-1.273
				c0.467-0.388,0.832-0.756,1.095-1.104c0.264-0.349,0.464-0.701,0.602-1.056c0.138-0.356,0.224-0.731,0.257-1.125
				c0.033-0.395,0.049-0.835,0.049-1.323v-1.322h-5.941v-2.152h8.448v3.593c0,0.67-0.033,1.273-0.099,1.806
				c-0.066,0.533-0.194,1.033-0.385,1.5c-0.19,0.466-0.454,0.917-0.789,1.352c-0.336,0.434-0.78,0.885-1.333,1.352
				c-0.552,0.466-1.228,0.967-2.023,1.5c-0.796,0.533-1.74,1.135-2.833,1.807L50.019,24.251z M64.171,18.349h2.526v2.171h-2.526
				v9.495h-2.506V11.658h2.506V18.349z"/>
			<path fill="#231F20" d="M67.921,24.251c0.986-0.592,1.829-1.119,2.526-1.58c0.697-0.459,1.279-0.885,1.747-1.273
				c0.467-0.388,0.832-0.756,1.095-1.104c0.263-0.349,0.464-0.701,0.602-1.056c0.138-0.356,0.224-0.731,0.257-1.125
				c0.033-0.395,0.049-0.835,0.049-1.323v-1.322h-5.941v-2.152h8.448v3.593c0,0.67-0.033,1.273-0.099,1.806
				c-0.066,0.533-0.194,1.033-0.385,1.5c-0.19,0.466-0.454,0.917-0.789,1.352c-0.336,0.434-0.78,0.885-1.333,1.352
				c-0.553,0.466-1.227,0.967-2.023,1.5c-0.796,0.533-1.74,1.135-2.833,1.807L67.921,24.251z M82.073,18.349H84.6v2.171h-2.526
				v9.495h-2.507V11.658h2.507V18.349z"/>
			<path fill="#231F20" d="M92.574,23.599V22h-7.166v-2.014h16.817V22h-7.165v1.598h4.816v6.416H87.758v-6.416H92.574z
				 M99.857,12.23v6.513h-12.08V12.23H99.857z M90.225,28.021h7.186v-2.428h-7.186V28.021z M90.245,16.75h7.145v-2.527h-7.145V16.75
				z"/>
			<path fill="#231F20" d="M104.181,12.763h9.474v2.112h-3.414v1.204c0,0.237,0.016,0.454,0.048,0.652
				c0.034,0.197,0.1,0.388,0.198,0.572c0.099,0.184,0.229,0.365,0.395,0.542c0.165,0.179,0.378,0.366,0.641,0.563
				c0.423,0.316,0.869,0.638,1.344,0.968c0.473,0.329,0.959,0.651,1.46,0.967l-1.322,1.756c-0.882-0.579-1.691-1.138-2.428-1.679
				c-0.422-0.302-0.757-0.558-1.007-0.769c-0.25-0.21-0.395-0.369-0.435-0.473h-0.019c-0.04,0.118-0.191,0.306-0.455,0.562
				s-0.625,0.563-1.086,0.918c-0.421,0.342-0.852,0.682-1.293,1.017c-0.44,0.335-0.911,0.675-1.41,1.017l-1.461-1.816
				c0.631-0.421,1.227-0.849,1.786-1.283c0.559-0.434,1.049-0.835,1.47-1.204c0.344-0.303,0.609-0.641,0.8-1.017
				c0.19-0.375,0.286-0.806,0.286-1.293v-1.204h-3.571V12.763z M112.865,30.566c-0.816,0-1.573-0.079-2.271-0.236
				c-0.698-0.158-1.303-0.389-1.816-0.69c-0.513-0.304-0.918-0.672-1.214-1.106c-0.296-0.434-0.443-0.928-0.443-1.48v-0.868
				c0-0.553,0.147-1.047,0.443-1.48s0.701-0.802,1.214-1.105c0.514-0.302,1.118-0.532,1.816-0.69
				c0.697-0.158,1.454-0.238,2.271-0.238c0.815,0,1.571,0.08,2.27,0.238c0.697,0.158,1.303,0.388,1.815,0.69
				c0.513,0.304,0.918,0.672,1.214,1.105s0.445,0.928,0.445,1.48v0.868c0,0.553-0.149,1.047-0.445,1.48
				c-0.296,0.435-0.701,0.803-1.214,1.106c-0.513,0.302-1.118,0.532-1.815,0.69C114.437,30.487,113.681,30.566,112.865,30.566z
				 M112.865,24.704c-0.436,0-0.85,0.044-1.244,0.128c-0.396,0.086-0.744,0.204-1.046,0.356c-0.304,0.15-0.546,0.328-0.73,0.532
				s-0.276,0.424-0.276,0.662v0.473c0,0.238,0.092,0.458,0.276,0.662s0.427,0.382,0.73,0.532c0.302,0.152,0.65,0.27,1.046,0.356
				c0.395,0.085,0.809,0.127,1.244,0.127c0.434,0,0.849-0.042,1.243-0.127c0.395-0.087,0.743-0.204,1.045-0.356
				c0.304-0.15,0.547-0.328,0.731-0.532c0.184-0.204,0.275-0.424,0.275-0.662v-0.473c0-0.238-0.092-0.458-0.275-0.662
				c-0.185-0.204-0.428-0.382-0.731-0.532c-0.302-0.152-0.65-0.271-1.045-0.356C113.714,24.748,113.299,24.704,112.865,24.704z
				 M116.063,18.29h-2.941v-2.112h2.941v-4.519h2.486v10.915h-2.486V18.29z"/>
			<path fill="#231F20" d="M130.866,22.592v3.001h7.164v2.112h-16.817v-2.112h7.165v-3.001h-4.895V12.92h2.487v2.941h7.304V12.92
				h2.487v9.671H130.866z M133.274,20.5v-2.525h-7.304V20.5H133.274z"/>
			<path fill="#231F20" d="M146.281,25.612v-3.119h-5.447V20.42h2.348v-5.23h-2.229v-2.072h13.105v2.072h-2.15v5.23h2.309v2.073
				h-5.448v3.119h7.165v2.093h-16.816v-2.093H146.281z M145.669,20.42h3.751v-5.23h-3.751V20.42z"/>
			<path fill="#231F20" d="M166.336,12.23v1.974h-6.12v1.243h5.705v1.974h-5.705v1.263c1.343,0,2.603-0.016,3.779-0.049
				c1.179-0.033,2.373-0.108,3.584-0.227l0.217,1.955c-0.566,0.066-1.175,0.118-1.826,0.158s-1.379,0.069-2.181,0.089
				c-0.804,0.02-1.695,0.033-2.675,0.04c-0.98,0.007-2.089,0.01-3.326,0.01V12.23H166.336z M172.256,21.783v5.132h-9.099v1.322
				h9.652v1.975h-12.061V25.04h9.1v-1.302h-9.198v-1.955H172.256z M172.256,20.954h-2.485v-3.73h-2.863v-1.994h2.863v-3.571h2.485
				V20.954z"/>
		</g>
		<g>
			<path fill="#58595B" d="M32.798,33.633l2.512,4.361c0.066,0.107,0.14,0.243,0.22,0.408c0.081,0.163,0.16,0.342,0.238,0.533
				v-5.303h0.825v6.469H35.57l-2.512-4.342c-0.066-0.12-0.139-0.261-0.22-0.423c-0.08-0.16-0.16-0.338-0.237-0.528v5.293h-0.825
				v-6.469H32.798z"/>
			<path fill="#58595B" d="M39.105,40.173c-0.497,0-0.89-0.122-1.18-0.367s-0.435-0.583-0.435-1.014V38.55
				c0-0.419,0.141-0.76,0.421-1.023c0.281-0.263,0.736-0.395,1.364-0.395h1.247v-0.287c0-0.328-0.079-0.572-0.238-0.731
				c-0.158-0.157-0.417-0.237-0.776-0.237c-0.287,0-0.537,0.045-0.749,0.135c-0.212,0.089-0.432,0.209-0.66,0.359l-0.431-0.647
				c0.239-0.166,0.508-0.312,0.808-0.435c0.299-0.122,0.646-0.184,1.041-0.184c0.275,0,0.526,0.034,0.753,0.103
				c0.227,0.069,0.423,0.171,0.588,0.306c0.164,0.135,0.292,0.299,0.386,0.493c0.093,0.194,0.139,0.414,0.139,0.66v3.436h-0.835
				V39.51h-0.009c-0.048,0.09-0.112,0.172-0.193,0.246c-0.081,0.075-0.169,0.141-0.265,0.193c-0.132,0.072-0.273,0.127-0.426,0.166
				S39.32,40.173,39.105,40.173z M40.522,37.868h-1.229c-0.341,0-0.585,0.065-0.731,0.196c-0.147,0.133-0.22,0.314-0.22,0.548v0.126
				c0,0.238,0.083,0.412,0.251,0.521c0.167,0.106,0.368,0.161,0.601,0.161c0.216,0,0.402-0.025,0.562-0.076
				c0.158-0.051,0.303-0.127,0.435-0.229c0.12-0.09,0.205-0.193,0.256-0.31s0.076-0.269,0.076-0.454V37.868z"/>
			<path fill="#58595B" d="M42.711,35.938h-0.808v-0.744h0.808v-1.238h0.871v1.238h1.292v0.744h-1.292v2.79
				c0,0.15,0.015,0.271,0.044,0.364c0.03,0.093,0.074,0.162,0.13,0.211c0.057,0.047,0.124,0.081,0.202,0.099
				c0.077,0.018,0.161,0.026,0.251,0.026c0.215,0,0.431-0.038,0.646-0.116l0.134,0.7c-0.102,0.041-0.236,0.079-0.404,0.111
				c-0.167,0.032-0.337,0.049-0.511,0.049c-0.466,0-0.811-0.116-1.032-0.349c-0.222-0.233-0.332-0.599-0.332-1.096V35.938z"/>
			<path fill="#58595B" d="M46.534,33.436v0.951H45.61v-0.951H46.534z M46.507,35.194v4.907h-0.87v-4.907H46.507z"/>
			<path fill="#58595B" d="M49.584,35.104c0.676,0,1.209,0.194,1.602,0.583c0.392,0.389,0.587,0.938,0.587,1.65v0.602
				c0,0.712-0.196,1.263-0.587,1.651c-0.392,0.388-0.926,0.582-1.602,0.582s-1.21-0.194-1.601-0.582
				c-0.392-0.389-0.588-0.939-0.588-1.651v-0.602c0-0.718,0.196-1.27,0.588-1.654C48.374,35.298,48.908,35.104,49.584,35.104z
				 M49.584,39.411c0.389,0,0.704-0.127,0.947-0.382c0.242-0.253,0.363-0.641,0.363-1.161V37.41c0-0.521-0.121-0.907-0.363-1.162
				c-0.243-0.254-0.558-0.381-0.947-0.381s-0.705,0.127-0.946,0.381c-0.242,0.255-0.364,0.642-0.364,1.162v0.458
				c0,0.521,0.122,0.908,0.364,1.161C48.879,39.284,49.195,39.411,49.584,39.411z"/>
			<path fill="#58595B" d="M56.681,40.102h-0.87v-3.051c0-0.413-0.087-0.712-0.26-0.896c-0.174-0.187-0.443-0.279-0.808-0.279
				c-0.149,0-0.298,0.025-0.444,0.076s-0.278,0.126-0.395,0.225c-0.117,0.099-0.212,0.223-0.288,0.371
				c-0.075,0.15-0.112,0.321-0.112,0.513v3.041h-0.87v-4.907h0.843v0.618h0.009c0.149-0.227,0.347-0.401,0.592-0.524
				c0.245-0.122,0.538-0.184,0.879-0.184c0.239,0,0.463,0.036,0.673,0.107c0.209,0.071,0.392,0.18,0.547,0.322
				c0.156,0.145,0.279,0.327,0.368,0.549c0.09,0.221,0.135,0.479,0.135,0.771V40.102z"/>
			<path fill="#58595B" d="M59.085,40.173c-0.497,0-0.89-0.122-1.18-0.367s-0.435-0.583-0.435-1.014V38.55
				c0-0.419,0.14-0.76,0.421-1.023c0.281-0.263,0.736-0.395,1.364-0.395h1.247v-0.287c0-0.328-0.08-0.572-0.238-0.731
				c-0.159-0.157-0.417-0.237-0.776-0.237c-0.288,0-0.537,0.045-0.75,0.135c-0.212,0.089-0.432,0.209-0.659,0.359l-0.431-0.647
				c0.24-0.166,0.509-0.312,0.808-0.435c0.299-0.122,0.646-0.184,1.041-0.184c0.275,0,0.526,0.034,0.754,0.103
				c0.227,0.069,0.423,0.171,0.587,0.306c0.165,0.135,0.293,0.299,0.386,0.493s0.139,0.414,0.139,0.66v3.436h-0.835V39.51h-0.009
				c-0.048,0.09-0.112,0.172-0.193,0.246c-0.081,0.075-0.169,0.141-0.265,0.193c-0.132,0.072-0.273,0.127-0.426,0.166
				S59.301,40.173,59.085,40.173z M60.503,37.868h-1.229c-0.341,0-0.584,0.065-0.731,0.196c-0.146,0.133-0.22,0.314-0.22,0.548
				v0.126c0,0.238,0.084,0.412,0.252,0.521c0.167,0.106,0.368,0.161,0.601,0.161c0.215,0,0.402-0.025,0.561-0.076
				c0.159-0.051,0.304-0.127,0.436-0.229c0.119-0.09,0.205-0.193,0.255-0.31s0.077-0.269,0.077-0.454V37.868z"/>
			<path fill="#58595B" d="M63.257,33.318v6.783h-0.87v-6.783H63.257z"/>
			<path fill="#58595B" d="M68.505,33.633c0.892,0,1.567,0.238,2.028,0.714c0.461,0.475,0.691,1.161,0.691,2.059v0.924
				c0,0.897-0.224,1.584-0.673,2.06s-1.13,0.713-2.046,0.713h-2.144v-6.469H68.505z M67.25,39.313h1.175
				c0.287,0,0.547-0.038,0.78-0.112c0.233-0.075,0.432-0.192,0.597-0.354c0.164-0.161,0.292-0.37,0.381-0.628
				c0.089-0.258,0.134-0.569,0.134-0.933v-0.836c0-0.364-0.045-0.675-0.134-0.933c-0.09-0.257-0.217-0.467-0.381-0.632
				c-0.165-0.165-0.363-0.284-0.597-0.359c-0.233-0.074-0.494-0.112-0.78-0.112H67.25V39.313z"/>
			<path fill="#58595B" d="M74.885,36.046c-0.084-0.035-0.175-0.063-0.274-0.084c-0.099-0.021-0.208-0.032-0.327-0.032
				c-0.162,0-0.315,0.032-0.462,0.094c-0.146,0.063-0.273,0.153-0.381,0.27c-0.107,0.117-0.194,0.255-0.26,0.417
				c-0.066,0.162-0.099,0.338-0.099,0.529v2.862h-0.87v-4.907h0.844v0.78h0.009c0.144-0.275,0.33-0.488,0.561-0.642
				c0.23-0.152,0.525-0.229,0.884-0.229c0.215,0,0.428,0.032,0.637,0.099L74.885,36.046z"/>
			<path fill="#58595B" d="M77.576,35.104c0.676,0,1.21,0.194,1.602,0.583c0.392,0.389,0.588,0.938,0.588,1.65v0.602
				c0,0.712-0.196,1.263-0.588,1.651c-0.392,0.388-0.926,0.582-1.602,0.582s-1.21-0.194-1.602-0.582
				c-0.392-0.389-0.587-0.939-0.587-1.651v-0.602c0-0.718,0.196-1.27,0.587-1.654C76.366,35.298,76.9,35.104,77.576,35.104z
				 M77.576,39.411c0.389,0,0.705-0.127,0.947-0.382c0.242-0.253,0.363-0.641,0.363-1.161V37.41c0-0.521-0.121-0.907-0.363-1.162
				c-0.242-0.254-0.558-0.381-0.947-0.381c-0.389,0-0.704,0.127-0.947,0.381c-0.242,0.255-0.363,0.642-0.363,1.162v0.458
				c0,0.521,0.122,0.908,0.363,1.161C76.872,39.284,77.187,39.411,77.576,39.411z"/>
			<path fill="#58595B" d="M80.555,35.194h0.87v3.05c0,0.413,0.084,0.712,0.251,0.897s0.434,0.278,0.799,0.278
				c0.149,0,0.296-0.025,0.439-0.076s0.273-0.126,0.391-0.225c0.116-0.099,0.21-0.222,0.282-0.372
				c0.072-0.149,0.107-0.32,0.107-0.512v-3.041h0.871v4.907h-0.843v-0.618h-0.009c-0.15,0.227-0.344,0.401-0.583,0.524
				c-0.24,0.122-0.529,0.185-0.87,0.185c-0.24,0-0.462-0.037-0.668-0.108c-0.206-0.071-0.386-0.18-0.539-0.323
				c-0.152-0.144-0.273-0.324-0.363-0.543C80.6,39,80.555,38.74,80.555,38.441V35.194z"/>
			<path fill="#58595B" d="M89.625,40.039c0,1.376-0.729,2.064-2.188,2.064c-0.335,0-0.64-0.049-0.916-0.145
				c-0.275-0.096-0.515-0.222-0.718-0.377l0.395-0.682c0.162,0.119,0.351,0.219,0.57,0.297c0.217,0.076,0.45,0.116,0.696,0.116
				c0.424,0,0.745-0.104,0.964-0.31s0.327-0.528,0.327-0.965v-0.602c-0.138,0.233-0.331,0.399-0.583,0.498
				c-0.251,0.099-0.526,0.148-0.825,0.148c-0.623,0-1.096-0.181-1.422-0.543c-0.326-0.361-0.489-0.878-0.489-1.547v-0.781
				c0-0.329,0.048-0.625,0.144-0.889c0.096-0.263,0.229-0.484,0.399-0.663c0.17-0.18,0.375-0.316,0.615-0.413
				c0.239-0.096,0.502-0.144,0.789-0.144c0.378,0,0.675,0.064,0.894,0.193c0.218,0.128,0.378,0.265,0.479,0.408v-0.512h0.87V40.039z
				 M88.765,36.908c0-0.126-0.031-0.251-0.095-0.377s-0.152-0.238-0.27-0.337c-0.116-0.099-0.254-0.178-0.412-0.237
				c-0.158-0.061-0.331-0.09-0.516-0.09c-0.372,0-0.66,0.129-0.866,0.386c-0.207,0.257-0.31,0.619-0.31,1.085v0.512
				c0,0.467,0.104,0.829,0.314,1.086c0.209,0.258,0.496,0.386,0.862,0.386c0.18,0,0.347-0.028,0.502-0.086
				c0.156-0.056,0.291-0.139,0.408-0.246c0.116-0.107,0.209-0.238,0.278-0.39c0.069-0.153,0.104-0.324,0.104-0.517V36.908z"/>
			<path fill="#58595B" d="M94.785,40.102h-0.871v-3.051c0-0.413-0.087-0.712-0.261-0.896c-0.173-0.187-0.442-0.279-0.808-0.279
				c-0.148,0-0.297,0.025-0.443,0.076s-0.278,0.126-0.396,0.225c-0.116,0.099-0.212,0.223-0.287,0.371
				c-0.074,0.15-0.111,0.321-0.111,0.513v3.041h-0.871v-6.783h0.871v2.468c0.149-0.221,0.345-0.391,0.587-0.507
				c0.243-0.116,0.531-0.175,0.867-0.175c0.238,0,0.462,0.036,0.672,0.107c0.209,0.071,0.392,0.18,0.548,0.322
				c0.155,0.145,0.277,0.327,0.367,0.549c0.09,0.221,0.136,0.479,0.136,0.771V40.102z"/>
			<path fill="#58595B" d="M96.13,35.938h-0.807v-0.744h0.807v-1.238H97v1.238h1.292v0.744H97v2.79c0,0.15,0.016,0.271,0.045,0.364
				c0.03,0.093,0.074,0.162,0.13,0.211c0.058,0.047,0.124,0.081,0.202,0.099s0.162,0.026,0.252,0.026
				c0.215,0,0.43-0.038,0.646-0.116l0.134,0.7c-0.102,0.041-0.236,0.079-0.403,0.111s-0.338,0.049-0.512,0.049
				c-0.466,0-0.811-0.116-1.031-0.349c-0.222-0.233-0.332-0.599-0.332-1.096V35.938z"/>
			<path fill="#58595B" d="M101.908,33.633v6.469h-0.889v-6.469H101.908z"/>
			<path fill="#58595B" d="M107.104,40.102h-0.871v-3.051c0-0.413-0.087-0.712-0.261-0.896c-0.173-0.187-0.442-0.279-0.808-0.279
				c-0.149,0-0.298,0.025-0.443,0.076c-0.146,0.051-0.278,0.126-0.395,0.225c-0.117,0.099-0.213,0.223-0.287,0.371
				c-0.076,0.15-0.112,0.321-0.112,0.513v3.041h-0.87v-4.907h0.843v0.618h0.009c0.149-0.227,0.347-0.401,0.593-0.524
				c0.245-0.122,0.538-0.184,0.88-0.184c0.238,0,0.462,0.036,0.672,0.107c0.209,0.071,0.392,0.18,0.548,0.322
				c0.155,0.145,0.277,0.327,0.367,0.549c0.09,0.221,0.136,0.479,0.136,0.771V40.102z"/>
			<path fill="#58595B" d="M108.483,35.938h-0.807v-0.744h0.807v-0.485c0-0.496,0.122-0.86,0.364-1.094s0.597-0.351,1.063-0.351
				c0.156,0,0.316,0.013,0.48,0.036c0.164,0.025,0.297,0.055,0.399,0.09l-0.134,0.709c-0.216-0.06-0.438-0.091-0.665-0.091
				c-0.084,0-0.164,0.01-0.242,0.028c-0.077,0.018-0.146,0.052-0.201,0.104c-0.058,0.05-0.104,0.124-0.141,0.22
				c-0.035,0.096-0.053,0.224-0.053,0.386v0.448h1.292v0.744h-1.292v4.163h-0.871V35.938z"/>
			<path fill="#58595B" d="M113.186,35.104c0.677,0,1.21,0.194,1.602,0.583s0.588,0.938,0.588,1.65v0.602
				c0,0.712-0.196,1.263-0.588,1.651c-0.392,0.388-0.925,0.582-1.602,0.582c-0.676,0-1.21-0.194-1.602-0.582
				c-0.393-0.389-0.588-0.939-0.588-1.651v-0.602c0-0.718,0.195-1.27,0.588-1.654C111.976,35.298,112.51,35.104,113.186,35.104z
				 M113.186,39.411c0.389,0,0.704-0.127,0.946-0.382c0.242-0.253,0.363-0.641,0.363-1.161V37.41c0-0.521-0.121-0.907-0.363-1.162
				c-0.242-0.254-0.558-0.381-0.946-0.381s-0.704,0.127-0.947,0.381c-0.242,0.255-0.363,0.642-0.363,1.162v0.458
				c0,0.521,0.121,0.908,0.363,1.161C112.481,39.284,112.797,39.411,113.186,39.411z"/>
			<path fill="#58595B" d="M118.91,36.046c-0.084-0.035-0.175-0.063-0.274-0.084c-0.099-0.021-0.207-0.032-0.327-0.032
				c-0.162,0-0.316,0.032-0.462,0.094c-0.146,0.063-0.274,0.153-0.382,0.27c-0.107,0.117-0.194,0.255-0.26,0.417
				s-0.099,0.338-0.099,0.529v2.862h-0.87v-4.907h0.843v0.78h0.01c0.143-0.275,0.33-0.488,0.561-0.642
				c0.229-0.152,0.524-0.229,0.884-0.229c0.215,0,0.427,0.032,0.637,0.099L118.91,36.046z"/>
			<path fill="#58595B" d="M126.428,40.102h-0.871v-2.943c0-0.843-0.308-1.264-0.923-1.264c-0.138,0-0.273,0.021-0.409,0.067
				c-0.134,0.044-0.255,0.113-0.362,0.206s-0.196,0.212-0.265,0.358c-0.069,0.147-0.104,0.318-0.104,0.516v3.06h-0.87v-2.943
				c0-0.843-0.309-1.264-0.925-1.264c-0.137,0-0.273,0.021-0.408,0.063c-0.134,0.041-0.255,0.107-0.362,0.198
				c-0.108,0.088-0.196,0.204-0.266,0.345c-0.068,0.14-0.103,0.307-0.103,0.497v3.104h-0.871v-4.907h0.861v0.664h0.01
				c0.096-0.216,0.252-0.395,0.471-0.539c0.219-0.143,0.498-0.215,0.839-0.215c0.329,0,0.614,0.07,0.856,0.21
				c0.243,0.142,0.427,0.344,0.552,0.606c0.156-0.239,0.352-0.435,0.589-0.588c0.235-0.152,0.548-0.229,0.937-0.229
				c0.509,0,0.906,0.154,1.193,0.462c0.287,0.309,0.431,0.746,0.431,1.314V40.102z"/>
			<path fill="#58595B" d="M128.833,40.173c-0.497,0-0.891-0.122-1.181-0.367s-0.435-0.583-0.435-1.014V38.55
				c0-0.419,0.14-0.76,0.422-1.023c0.28-0.263,0.734-0.395,1.363-0.395h1.247v-0.287c0-0.328-0.08-0.572-0.237-0.731
				c-0.159-0.157-0.418-0.237-0.776-0.237c-0.287,0-0.536,0.045-0.75,0.135c-0.212,0.089-0.432,0.209-0.658,0.359l-0.432-0.647
				c0.239-0.166,0.509-0.312,0.809-0.435c0.299-0.122,0.645-0.184,1.04-0.184c0.275,0,0.526,0.034,0.753,0.103
				c0.228,0.069,0.424,0.171,0.588,0.306c0.165,0.135,0.293,0.299,0.386,0.493c0.094,0.194,0.14,0.414,0.14,0.66v3.436h-0.835V39.51
				h-0.009c-0.047,0.09-0.112,0.172-0.192,0.246c-0.081,0.075-0.169,0.141-0.265,0.193c-0.132,0.072-0.273,0.127-0.427,0.166
				C129.231,40.154,129.048,40.173,128.833,40.173z M130.25,37.868h-1.229c-0.342,0-0.585,0.065-0.731,0.196
				c-0.147,0.133-0.221,0.314-0.221,0.548v0.126c0,0.238,0.084,0.412,0.252,0.521c0.167,0.106,0.368,0.161,0.601,0.161
				c0.216,0,0.402-0.025,0.561-0.076c0.159-0.051,0.304-0.127,0.437-0.229c0.118-0.09,0.204-0.193,0.255-0.31
				s0.076-0.269,0.076-0.454V37.868z"/>
			<path fill="#58595B" d="M132.439,35.938h-0.808v-0.744h0.808v-1.238h0.869v1.238h1.293v0.744h-1.293v2.79
				c0,0.15,0.015,0.271,0.045,0.364s0.073,0.162,0.131,0.211c0.058,0.047,0.124,0.081,0.201,0.099
				c0.078,0.018,0.162,0.026,0.252,0.026c0.216,0,0.431-0.038,0.646-0.116l0.135,0.7c-0.102,0.041-0.236,0.079-0.404,0.111
				c-0.166,0.032-0.338,0.049-0.512,0.049c-0.465,0-0.811-0.116-1.03-0.349c-0.222-0.233-0.332-0.599-0.332-1.096V35.938z"/>
			<path fill="#58595B" d="M136.262,33.436v0.951h-0.925v-0.951H136.262z M136.233,35.194v4.907h-0.869v-4.907H136.233z"/>
			<path fill="#58595B" d="M139.312,35.104c0.675,0,1.21,0.194,1.602,0.583s0.587,0.938,0.587,1.65v0.602
				c0,0.712-0.195,1.263-0.587,1.651c-0.392,0.388-0.927,0.582-1.602,0.582c-0.677,0-1.21-0.194-1.602-0.582
				c-0.392-0.389-0.588-0.939-0.588-1.651v-0.602c0-0.718,0.196-1.27,0.588-1.654C138.102,35.298,138.635,35.104,139.312,35.104z
				 M139.312,39.411c0.389,0,0.704-0.127,0.946-0.382c0.242-0.253,0.363-0.641,0.363-1.161V37.41c0-0.521-0.121-0.907-0.363-1.162
				c-0.242-0.254-0.558-0.381-0.946-0.381s-0.704,0.127-0.947,0.381c-0.241,0.255-0.362,0.642-0.362,1.162v0.458
				c0,0.521,0.121,0.908,0.362,1.161C138.607,39.284,138.923,39.411,139.312,39.411z"/>
			<path fill="#58595B" d="M146.408,40.102h-0.871v-3.051c0-0.413-0.086-0.712-0.26-0.896c-0.174-0.187-0.441-0.279-0.808-0.279
				c-0.149,0-0.297,0.025-0.444,0.076c-0.146,0.051-0.277,0.126-0.394,0.225c-0.117,0.099-0.213,0.223-0.287,0.371
				c-0.075,0.15-0.112,0.321-0.112,0.513v3.041h-0.871v-4.907h0.844v0.618h0.009c0.149-0.227,0.348-0.401,0.592-0.524
				c0.246-0.122,0.539-0.184,0.88-0.184c0.238,0,0.464,0.036,0.673,0.107s0.393,0.18,0.547,0.322
				c0.156,0.145,0.278,0.327,0.368,0.549c0.09,0.221,0.135,0.479,0.135,0.771V40.102z"/>
			<path fill="#58595B" d="M149.44,33.633h2.314c0.366,0,0.683,0.047,0.951,0.14c0.27,0.093,0.491,0.221,0.669,0.386
				c0.176,0.164,0.308,0.359,0.395,0.588c0.087,0.227,0.13,0.472,0.13,0.735v0.188c0,0.263-0.046,0.51-0.139,0.74
				c-0.093,0.229-0.229,0.432-0.408,0.605s-0.402,0.311-0.669,0.412c-0.266,0.103-0.575,0.153-0.929,0.153h-1.426v2.521h-0.889
				V33.633z M150.329,34.404v2.404h1.272c0.935,0,1.4-0.386,1.4-1.156V35.49c0-0.371-0.111-0.645-0.336-0.82
				c-0.224-0.177-0.545-0.266-0.965-0.266H150.329z"/>
			<path fill="#58595B" d="M156.591,35.104c0.677,0,1.21,0.194,1.602,0.583c0.393,0.389,0.588,0.938,0.588,1.65v0.602
				c0,0.712-0.195,1.263-0.588,1.651c-0.392,0.388-0.925,0.582-1.602,0.582c-0.676,0-1.209-0.194-1.602-0.582
				c-0.392-0.389-0.588-0.939-0.588-1.651v-0.602c0-0.718,0.196-1.27,0.588-1.654C155.382,35.298,155.915,35.104,156.591,35.104z
				 M156.591,39.411c0.389,0,0.705-0.127,0.946-0.382c0.242-0.253,0.364-0.641,0.364-1.161V37.41c0-0.521-0.122-0.907-0.364-1.162
				c-0.241-0.254-0.558-0.381-0.946-0.381s-0.704,0.127-0.946,0.381c-0.242,0.255-0.363,0.642-0.363,1.162v0.458
				c0,0.521,0.121,0.908,0.363,1.161C155.887,39.284,156.202,39.411,156.591,39.411z"/>
			<path fill="#58595B" d="M162.315,36.046c-0.084-0.035-0.175-0.063-0.273-0.084c-0.099-0.021-0.208-0.032-0.327-0.032
				c-0.163,0-0.316,0.032-0.463,0.094c-0.146,0.063-0.274,0.153-0.382,0.27c-0.107,0.117-0.194,0.255-0.26,0.417
				s-0.099,0.338-0.099,0.529v2.862h-0.87v-4.907h0.844v0.78h0.009c0.144-0.275,0.33-0.488,0.561-0.642
				c0.229-0.152,0.524-0.229,0.884-0.229c0.215,0,0.428,0.032,0.637,0.099L162.315,36.046z"/>
			<path fill="#58595B" d="M163.49,35.938h-0.808v-0.744h0.808v-1.238h0.871v1.238h1.292v0.744h-1.292v2.79
				c0,0.15,0.014,0.271,0.044,0.364c0.031,0.093,0.073,0.162,0.131,0.211c0.057,0.047,0.124,0.081,0.202,0.099
				c0.076,0.018,0.161,0.026,0.25,0.026c0.216,0,0.431-0.038,0.646-0.116l0.135,0.7c-0.102,0.041-0.236,0.079-0.404,0.111
				s-0.337,0.049-0.511,0.049c-0.467,0-0.811-0.116-1.031-0.349c-0.223-0.233-0.333-0.599-0.333-1.096V35.938z"/>
			<path fill="#58595B" d="M167.753,40.173c-0.497,0-0.891-0.122-1.181-0.367s-0.435-0.583-0.435-1.014V38.55
				c0-0.419,0.14-0.76,0.421-1.023c0.281-0.263,0.736-0.395,1.363-0.395h1.248v-0.287c0-0.328-0.08-0.572-0.238-0.731
				c-0.158-0.157-0.417-0.237-0.775-0.237c-0.287,0-0.538,0.045-0.75,0.135c-0.212,0.089-0.432,0.209-0.659,0.359l-0.431-0.647
				c0.239-0.166,0.508-0.312,0.807-0.435c0.3-0.122,0.647-0.184,1.042-0.184c0.274,0,0.526,0.034,0.753,0.103
				c0.228,0.069,0.423,0.171,0.588,0.306s0.293,0.299,0.386,0.493s0.14,0.414,0.14,0.66v3.436h-0.835V39.51h-0.009
				c-0.048,0.09-0.112,0.172-0.193,0.246c-0.08,0.075-0.169,0.141-0.265,0.193c-0.131,0.072-0.272,0.127-0.426,0.166
				C168.152,40.154,167.968,40.173,167.753,40.173z M169.17,37.868h-1.229c-0.341,0-0.584,0.065-0.731,0.196
				c-0.146,0.133-0.22,0.314-0.22,0.548v0.126c0,0.238,0.084,0.412,0.251,0.521c0.167,0.106,0.368,0.161,0.601,0.161
				c0.217,0,0.402-0.025,0.562-0.076s0.304-0.127,0.435-0.229c0.12-0.09,0.205-0.193,0.257-0.31c0.05-0.116,0.076-0.269,0.076-0.454
				V37.868z"/>
			<path fill="#58595B" d="M171.924,33.318v6.783h-0.871v-6.783H171.924z"/>
		</g>
	</g>
</g>
</svg>
