<svg width="237" height="238" viewBox="0 0 237 238" fill="none" xmlns="http://www.w3.org/2000/svg">
<g opacity="0.12" clip-path="url(#clip0)">
<path d="M233.178 153.551H229.355V111.326C229.355 109.202 227.644 107.487 225.533 107.487H204.181L127.731 30.7147L140.318 18.0742C141.813 16.5729 141.813 14.1456 140.318 12.6462L128.851 1.13028C127.355 -0.371062 124.94 -0.371062 123.445 1.13028L17.5351 107.487H11.4729C9.36378 107.487 7.65037 109.202 7.65037 111.326V153.551H3.82787C1.71878 153.551 0.00537109 155.266 0.00537109 157.389V180.421C0.00537109 182.543 1.71878 184.26 3.82787 184.26H7.91541L11.4841 234.434C11.6259 236.445 13.2927 238.001 15.2954 238.001H30.5854C32.5881 238.001 34.2548 236.445 34.4004 234.434L37.9672 184.26H199.04L202.609 234.434C202.751 236.445 204.418 238.001 206.42 238.001H221.71C223.713 238.001 225.38 236.445 225.525 234.434L229.092 184.26H233.178C235.289 184.26 237 182.543 237 180.421V157.389C237 155.266 235.289 153.551 233.178 153.551ZM193.37 107.487H152.905V99.81C152.905 98.7885 152.504 97.8139 151.786 97.096L140.318 85.5801C139.603 84.8585 138.629 84.4555 137.615 84.4555H87.9229C85.8138 84.4555 84.1004 86.1705 84.1004 88.2942V107.487H51.2806L122.325 36.1428L193.37 107.487ZM91.7454 122.842V92.1328H114.68V122.842H91.7454ZM122.325 92.1328H136.033L145.26 101.399V122.842H122.325V92.1328ZM126.148 9.27237L132.21 15.3602L40.4701 107.487H28.3456L126.148 9.27237ZM15.2954 115.165H84.1004V126.68C84.1004 128.802 85.8138 130.519 87.9229 130.519H149.083C151.194 130.519 152.905 128.802 152.905 126.68V115.165H221.71V153.551H214.065V142.035C214.065 139.911 212.354 138.196 210.243 138.196H26.7629C24.6538 138.196 22.9404 139.911 22.9404 142.035V153.551H15.2954V115.165ZM30.5854 153.551V145.874H45.8754V153.551H30.5854ZM53.5204 145.874H61.1654V153.551H53.5204V145.874ZM68.8104 145.874H76.4554V153.551H68.8104V145.874ZM84.1004 145.874H91.7454V153.551H84.1004V145.874ZM99.3904 145.874H107.035V153.551H99.3904V145.874ZM114.68 145.874H122.325V153.551H114.68V145.874ZM129.97 145.874H137.615V153.551H129.97V145.874ZM145.26 145.874H152.905V153.551H145.26V145.874ZM160.55 145.874H168.195V153.551H160.55V145.874ZM175.84 145.874H183.485V153.551H175.84V145.874ZM191.13 145.874H206.42V153.551H191.13V145.874ZM18.8547 230.323L18.3078 222.646H27.5692L27.0242 230.323H18.8547ZM28.1161 214.969H17.7647L15.5828 184.26H30.3073L28.1161 214.969ZM209.98 230.323L209.433 222.646H218.694L218.149 230.323H209.98ZM219.245 214.969H208.89L206.708 184.26H221.432L219.245 214.969ZM229.355 176.583H7.65037V161.228H229.355V176.583Z" fill="white"/>
<path d="M175.841 57.5851C182.164 57.5851 187.308 52.4176 187.308 46.0692V18.0198L210.243 9.38293V27.5808C209.043 27.1516 207.767 26.8761 206.421 26.8761C200.099 26.8761 194.953 32.0417 194.953 38.3919C194.953 44.7403 200.099 49.9078 206.421 49.9078C212.744 49.9078 217.888 44.7403 217.888 38.3919V3.84428C217.888 2.58473 217.274 1.40577 216.246 0.687905C215.21 -0.0299638 213.902 -0.194905 212.724 0.251186L182.144 11.7671C180.654 12.3275 179.663 13.7595 179.663 15.3602V35.2581C178.463 34.8288 177.187 34.5533 175.841 34.5533C169.519 34.5533 164.373 39.719 164.373 46.0692C164.373 52.4176 169.519 57.5851 175.841 57.5851ZM206.421 42.2306C204.315 42.2306 202.598 40.5099 202.598 38.3919C202.598 36.2721 204.315 34.5533 206.421 34.5533C208.528 34.5533 210.243 36.2721 210.243 38.3919C210.243 40.5099 208.528 42.2306 206.421 42.2306ZM175.841 42.2306C177.948 42.2306 179.663 43.9493 179.663 46.0692C179.663 48.1872 177.948 49.9078 175.841 49.9078C173.735 49.9078 172.018 48.1872 172.018 46.0692C172.018 43.9493 173.735 42.2306 175.841 42.2306Z" fill="white"/>
<path d="M19.1185 57.5851C25.4421 57.5851 30.586 52.4176 30.586 46.0692V13.111L43.1734 25.7515L48.5786 20.3234L29.4661 1.13028C28.3687 0.0281771 26.7262 -0.305454 25.3002 0.296207C23.8742 0.888495 22.941 2.29237 22.941 3.84431V35.2581C21.7409 34.8289 20.4642 34.5533 19.1185 34.5533C12.7968 34.5533 7.651 39.719 7.651 46.0692C7.651 52.4176 12.7968 57.5851 19.1185 57.5851ZM19.1185 42.2306C21.2257 42.2306 22.941 43.9494 22.941 46.0692C22.941 48.1872 21.2257 49.9079 19.1185 49.9079C17.0131 49.9079 15.296 48.1872 15.296 46.0692C15.296 43.9494 17.0131 42.2306 19.1185 42.2306Z" fill="white"/>
<path d="M3.82825 65.2623H19.1186V72.9398H3.82825V65.2623Z" fill="white"/>
<path d="M42.0507 38.392H49.6958V53.7468H42.0507V38.392Z" fill="white"/>
<path d="M53.5188 7.68286H68.8091V15.3603H53.5188V7.68286Z" fill="white"/>
<path d="M156.725 3.84424H164.37V19.1991H156.725V3.84424Z" fill="white"/>
<path d="M202.597 57.5851H217.888V65.2625H202.597V57.5851Z" fill="white"/>
<path d="M229.353 34.5533H236.998V49.9082H229.353V34.5533Z" fill="white"/>
<path d="M188.427 75.6556L193.833 70.2256L205.3 81.7436L199.895 87.1718L188.427 75.6556Z" fill="white"/>
</g>
<defs>
<clipPath id="clip0">
<rect width="237" height="238" fill="white"/>
</clipPath>
</defs>
</svg>
