<svg width="13" height="13" viewBox="0 0 13 13" fill="none" xmlns="http://www.w3.org/2000/svg">
<path d="M6.49462 1.08331C3.50462 1.08331 1.08337 3.50998 1.08337 6.49998C1.08337 9.48998 3.50462 11.9166 6.49462 11.9166C9.49004 11.9166 11.9167 9.48998 11.9167 6.49998C11.9167 3.50998 9.49004 1.08331 6.49462 1.08331ZM6.50004 10.8333C4.10587 10.8333 2.16671 8.89415 2.16671 6.49998C2.16671 4.10581 4.10587 2.16665 6.50004 2.16665C8.89421 2.16665 10.8334 4.10581 10.8334 6.49998C10.8334 8.89415 8.89421 10.8333 6.50004 10.8333Z" fill="#9B9A9A"/>
<path d="M6.77087 3.79169H5.95837V7.04169L8.80212 8.74794L9.20837 8.08169L6.77087 6.63544V3.79169Z" fill="#9B9A9A"/>
</svg>
