<svg width="78" height="75" viewBox="0 0 78 75" fill="none" xmlns="http://www.w3.org/2000/svg">
<rect width="78" height="75" fill="#0A5766"/>
<path d="M51 23.6667L39 12V39" stroke="white" stroke-width="2"/>
<path d="M26.428 47.498H22.54V45.752H32.422V47.498H28.516V59H26.428V47.498Z" fill="white"/>
<path d="M38.7226 59.234C37.8706 59.234 37.0906 59.078 36.3826 58.766C35.6746 58.442 35.0686 57.98 34.5646 57.38C34.0606 56.78 33.6646 56.054 33.3766 55.202C33.1006 54.35 32.9626 53.39 32.9626 52.322C32.9626 51.254 33.1006 50.3 33.3766 49.46C33.6646 48.608 34.0606 47.894 34.5646 47.318C35.0686 46.73 35.6746 46.28 36.3826 45.968C37.0906 45.656 37.8706 45.5 38.7226 45.5C39.5746 45.5 40.3546 45.656 41.0626 45.968C41.7706 46.28 42.3766 46.73 42.8806 47.318C43.3966 47.894 43.7926 48.608 44.0686 49.46C44.3566 50.3 44.5006 51.254 44.5006 52.322C44.5006 53.39 44.3566 54.35 44.0686 55.202C43.7926 56.054 43.3966 56.78 42.8806 57.38C42.3766 57.98 41.7706 58.442 41.0626 58.766C40.3546 59.078 39.5746 59.234 38.7226 59.234ZM38.7226 57.416C39.2746 57.416 39.7726 57.296 40.2166 57.056C40.6606 56.816 41.0386 56.48 41.3506 56.048C41.6746 55.604 41.9206 55.07 42.0886 54.446C42.2686 53.81 42.3586 53.102 42.3586 52.322C42.3586 51.542 42.2686 50.846 42.0886 50.234C41.9206 49.61 41.6746 49.082 41.3506 48.65C41.0386 48.218 40.6606 47.888 40.2166 47.66C39.7726 47.432 39.2746 47.318 38.7226 47.318C38.1706 47.318 37.6726 47.432 37.2286 47.66C36.7846 47.888 36.4066 48.218 36.0946 48.65C35.7826 49.082 35.5366 49.61 35.3566 50.234C35.1886 50.846 35.1046 51.542 35.1046 52.322C35.1046 53.102 35.1886 53.81 35.3566 54.446C35.5366 55.07 35.7826 55.604 36.0946 56.048C36.4066 56.48 36.7846 56.816 37.2286 57.056C37.6726 57.296 38.1706 57.416 38.7226 57.416Z" fill="white"/>
<path d="M46.6949 45.752H50.7089C51.4529 45.752 52.1309 45.824 52.7429 45.968C53.3669 46.1 53.9009 46.322 54.3449 46.634C54.7889 46.946 55.1369 47.36 55.3889 47.876C55.6409 48.38 55.7669 49.004 55.7669 49.748C55.7669 50.468 55.6409 51.098 55.3889 51.638C55.1369 52.166 54.7889 52.604 54.3449 52.952C53.9129 53.3 53.3909 53.558 52.7789 53.726C52.1669 53.894 51.5009 53.978 50.7809 53.978H48.7829V59H46.6949V45.752ZM50.5829 52.304C51.6749 52.304 52.4669 52.1 52.9589 51.692C53.4629 51.272 53.7149 50.624 53.7149 49.748C53.7149 48.872 53.4449 48.266 52.9049 47.93C52.3649 47.594 51.5669 47.426 50.5109 47.426H48.7829V52.304H50.5829Z" fill="white"/>
</svg>
