<svg width="221" height="223" viewBox="0 0 221 223" fill="none" xmlns="http://www.w3.org/2000/svg">
<g clip-path="url(#clip0_27_1622)">
<path d="M60.8555 45.1636C60.8555 45.1636 60.1781 43.4963 59.0823 42.4004C57.9865 41.3046 56.5197 40.8274 56.5197 40.8274C56.5197 40.8274 58.3695 39.9554 59.4004 38.9244C60.4314 37.8934 60.8496 36.4912 60.8496 36.4912C60.8496 36.4912 61.6921 38.4177 62.4285 39.1542C63.1649 39.8906 65.1855 40.8274 65.1855 40.8274C65.1855 40.8274 63.807 41.4283 62.5168 42.5713C61.5978 43.3843 60.8496 45.1636 60.8496 45.1636H60.8555Z" fill="url(#paint0_linear_27_1622)"/>
<path d="M66.7997 52.2868C66.7997 52.2868 66.3991 51.3029 65.7511 50.6548C65.1031 50.0067 64.2371 49.724 64.2371 49.724C64.2371 49.724 65.3328 49.2114 65.9455 48.5987C66.5582 47.9859 66.8056 47.1611 66.8056 47.1611C66.8056 47.1611 67.3064 48.3041 67.7364 48.7342C68.1724 49.1701 69.3683 49.724 69.3683 49.724C69.3683 49.724 68.5553 50.0774 67.7894 50.755C67.2474 51.2381 66.7997 52.2868 66.7997 52.2868V52.2868Z" fill="url(#paint1_linear_27_1622)"/>
<path d="M90.0108 106.229H17.6321C15.7941 106.229 14.3036 104.733 14.3036 102.901C14.3036 101.068 15.7999 99.5719 17.6321 99.5719H34.6045C36.0832 99.5719 37.285 98.37 37.285 96.8912C37.285 95.4125 36.0832 94.2106 34.6045 94.2106H3.63472C1.63173 94.2106 -0.00012207 92.5786 -0.00012207 90.5755C-0.00012207 88.5724 1.63173 86.9404 3.63472 86.9404H16.6188V88.1187H3.63472C2.27975 88.1187 1.17811 89.2205 1.17811 90.5755C1.17811 91.9306 2.27975 93.0323 3.63472 93.0323H34.6045C36.7312 93.0323 38.4632 94.7644 38.4632 96.8912C38.4632 99.0181 36.7312 100.75 34.6045 100.75H17.6321C16.448 100.75 15.4818 101.716 15.4818 102.901C15.4818 104.085 16.448 105.051 17.6321 105.051H90.0049V106.229H90.0108Z" fill="url(#paint2_linear_27_1622)"/>
<path d="M33.0374 88.1129H22.0917C21.7677 88.1129 21.5026 87.8478 21.5026 87.5237C21.5026 87.1997 21.7677 86.9346 22.0917 86.9346H33.0374C33.3615 86.9346 33.6266 87.1997 33.6266 87.5237C33.6266 87.8478 33.3615 88.1129 33.0374 88.1129Z" fill="url(#paint3_linear_27_1622)"/>
</g>
<g clip-path="url(#clip1_27_1622)">
<path d="M160.937 65.684C146.837 65.684 135.365 54.2245 135.365 40.1403C135.365 26.0562 146.833 14.5967 160.937 14.5967C175.042 14.5967 186.509 26.0562 186.509 40.1403C186.509 54.2245 175.037 65.684 160.937 65.684ZM160.937 15.5528C147.364 15.5528 136.322 26.5821 136.322 40.1403C136.322 53.6986 147.364 64.7278 160.937 64.7278C174.51 64.7278 185.552 53.6986 185.552 40.1403C185.552 26.5821 174.51 15.5528 160.937 15.5528Z" fill="url(#paint4_linear_27_1622)"/>
</g>
<g clip-path="url(#clip2_27_1622)">
<path d="M100.823 8.24354H86.4965C86.1994 8.24354 85.9563 8.00044 85.9563 7.70331C85.9563 7.40619 86.1994 7.16309 86.4965 7.16309H100.823C101.12 7.16309 101.364 7.40619 101.364 7.70331C101.364 8.00044 101.12 8.24354 100.823 8.24354Z" fill="url(#paint5_linear_27_1622)"/>
<path d="M93.66 15.4073C93.3629 15.4073 93.1198 15.1642 93.1198 14.867V0.540227C93.1198 0.243102 93.3629 0 93.66 0C93.9571 0 94.2002 0.243102 94.2002 0.540227V14.867C94.2002 15.1642 93.9571 15.4073 93.66 15.4073Z" fill="url(#paint6_linear_27_1622)"/>
<path d="M89.8568 12.0467C89.7163 12.0467 89.5812 11.9927 89.4732 11.8901C89.2625 11.6794 89.2625 11.339 89.4732 11.1283L96.5934 4.00274C96.8041 3.79205 97.1444 3.79205 97.3551 4.00274C97.5658 4.21343 97.5658 4.55377 97.3551 4.76446L90.2403 11.8901C90.1323 11.9981 89.9972 12.0467 89.8568 12.0467Z" fill="url(#paint7_linear_27_1622)"/>
<path d="M96.9769 12.0472C96.8365 12.0472 96.7014 11.9932 96.5934 11.8905L89.4786 4.77032C89.2679 4.55963 89.2679 4.21929 89.4786 4.0086C89.6893 3.79791 90.0296 3.79791 90.2403 4.0086L97.3605 11.1288C97.5712 11.3395 97.5712 11.6798 97.3605 11.8905C97.2524 11.9986 97.1174 12.0472 96.9769 12.0472Z" fill="url(#paint8_linear_27_1622)"/>
</g>
<g clip-path="url(#clip3_27_1622)">
<g clip-path="url(#clip4_27_1622)">
<path d="M151.78 152.089H134.251V166.764H151.78V152.089Z" fill="#3C479E"/>
<path d="M151.78 167.236H134.251C133.992 167.236 133.78 167.024 133.78 166.765V152.09C133.78 151.83 133.992 151.618 134.251 151.618H151.78C152.04 151.618 152.252 151.83 152.252 152.09V166.765C152.252 167.024 152.04 167.236 151.78 167.236ZM134.722 166.293H151.309V152.561H134.722V166.293Z" fill="url(#paint9_linear_27_1622)"/>
<path d="M152.068 169.169H133.751V175.967H152.068V169.169Z" fill="#3C479E"/>
<path d="M152.068 176.443H133.751C133.492 176.443 133.28 176.231 133.28 175.971V169.174C133.28 168.914 133.492 168.702 133.751 168.702H152.068C152.327 168.702 152.539 168.914 152.539 169.174V175.971C152.539 176.231 152.327 176.443 152.068 176.443ZM134.223 175.5H151.597V169.645H134.223V175.5Z" fill="url(#paint10_linear_27_1622)"/>
<path d="M139.888 140.771H147.512L158.949 144.669H127.952L139.888 140.771Z" fill="#3C479E"/>
<path d="M158.949 145.14H127.947C127.716 145.14 127.518 144.971 127.48 144.744C127.443 144.513 127.579 144.296 127.801 144.221L139.737 140.322C139.784 140.308 139.836 140.299 139.883 140.299H147.507C147.559 140.299 147.611 140.308 147.658 140.322L159.095 144.221C159.311 144.296 159.443 144.518 159.406 144.744C159.368 144.971 159.17 145.14 158.939 145.14H158.949ZM130.911 144.197H156.102L147.432 141.242H139.958L130.911 144.197V144.197Z" fill="url(#paint11_linear_27_1622)"/>
<path d="M159.56 179.248H127.15V181.237H159.56V179.248Z" fill="#3C479E"/>
<path d="M159.556 181.709H127.145C126.886 181.709 126.674 181.496 126.674 181.237V179.248C126.674 178.989 126.886 178.776 127.145 178.776H159.556C159.815 178.776 160.027 178.989 160.027 179.248V181.237C160.027 181.496 159.815 181.709 159.556 181.709ZM127.616 180.766H159.085V179.719H127.616V180.766Z" fill="url(#paint12_linear_27_1622)"/>
<path d="M127.272 181.237L119.068 184.306H167.637L159.683 181.237H127.272Z" fill="#3C479E"/>
<path d="M167.638 184.778H119.064C118.838 184.778 118.64 184.613 118.602 184.391C118.56 184.165 118.687 183.943 118.899 183.868L127.103 180.799C127.155 180.78 127.211 180.771 127.268 180.771H159.679C159.735 180.771 159.797 180.78 159.848 180.804L167.807 183.872C168.019 183.953 168.142 184.174 168.099 184.4C168.057 184.622 167.864 184.787 167.638 184.787V184.778ZM121.675 183.835H165.107L159.594 181.709H127.358L121.675 183.835Z" fill="url(#paint13_linear_27_1622)"/>
<path d="M167.651 184.306H119.068V187.29H167.651V184.306Z" fill="#3C479E"/>
<path d="M167.652 187.761H119.069C118.809 187.761 118.597 187.549 118.597 187.289V184.305C118.597 184.046 118.809 183.834 119.069 183.834H167.652C167.911 183.834 168.123 184.046 168.123 184.305V187.289C168.123 187.549 167.911 187.761 167.652 187.761ZM119.54 186.818H167.18V184.777H119.54V186.818Z" fill="url(#paint14_linear_27_1622)"/>
<path d="M158.661 187.261H127.994V208.767H158.661V187.261Z" fill="#3C479E"/>
<path d="M158.661 209.239H127.993C127.734 209.239 127.522 209.027 127.522 208.767V187.261C127.522 187.002 127.734 186.79 127.993 186.79H158.661C158.92 186.79 159.132 187.002 159.132 187.261V208.767C159.132 209.027 158.92 209.239 158.661 209.239ZM128.465 208.296H158.189V187.733H128.465V208.296Z" fill="url(#paint15_linear_27_1622)"/>
<path d="M152.008 187.261H148.196V208.767H152.008V187.261Z" fill="#3C479E"/>
<path d="M152.008 209.239H148.195C147.936 209.239 147.724 209.027 147.724 208.767V187.261C147.724 187.002 147.936 186.79 148.195 186.79H152.008C152.267 186.79 152.479 187.002 152.479 187.261V208.767C152.479 209.027 152.267 209.239 152.008 209.239ZM148.667 208.296H151.536V187.733H148.667V208.296Z" fill="url(#paint16_linear_27_1622)"/>
<path d="M138.412 187.261H134.6V208.767H138.412V187.261Z" fill="#3C479E"/>
<path d="M138.418 209.239H134.606C134.346 209.239 134.134 209.027 134.134 208.767V187.261C134.134 187.002 134.346 186.79 134.606 186.79H138.418C138.677 186.79 138.889 187.002 138.889 187.261V208.767C138.889 209.027 138.677 209.239 138.418 209.239ZM135.077 208.296H137.947V187.733H135.077V208.296Z" fill="url(#paint17_linear_27_1622)"/>
<path d="M158.953 144.669H127.951V146.408H158.953V144.669Z" fill="#3C479E"/>
<path d="M158.948 146.88H127.946C127.687 146.88 127.475 146.667 127.475 146.408V144.669C127.475 144.409 127.687 144.197 127.946 144.197H158.948C159.207 144.197 159.419 144.409 159.419 144.669V146.408C159.419 146.667 159.207 146.88 158.948 146.88ZM128.418 145.937H158.477V145.14H128.418V145.937Z" fill="url(#paint18_linear_27_1622)"/>
<path d="M123.932 187.291H142.004V187.734C142.004 189.412 140.642 190.775 138.964 190.775H126.976C125.299 190.775 123.937 189.412 123.937 187.734V187.291H123.932Z" fill="#3C479E"/>
<path d="M138.96 191.246H126.972C125.035 191.246 123.461 189.671 123.461 187.734V187.291C123.461 187.031 123.673 186.819 123.932 186.819H142.004C142.263 186.819 142.475 187.031 142.475 187.291V187.734C142.475 189.671 140.901 191.246 138.964 191.246H138.96ZM124.404 187.762C124.422 189.167 125.567 190.303 126.972 190.303H138.96C140.364 190.303 141.514 189.167 141.528 187.762H124.399H124.404Z" fill="url(#paint19_linear_27_1622)"/>
<path d="M144.651 187.291H162.723V187.734C162.723 189.412 161.361 190.775 159.683 190.775H147.695C146.018 190.775 144.656 189.412 144.656 187.734V187.291H144.651Z" fill="#3C479E"/>
<path d="M159.684 191.246H147.696C145.759 191.246 144.185 189.671 144.185 187.734V187.291C144.185 187.031 144.397 186.819 144.657 186.819H162.723C162.982 186.819 163.195 187.031 163.195 187.291V187.734C163.195 189.671 161.621 191.246 159.684 191.246ZM145.128 187.762C145.147 189.167 146.292 190.303 147.696 190.303H159.684C161.088 190.303 162.238 189.167 162.252 187.762H145.128Z" fill="url(#paint20_linear_27_1622)"/>
<path d="M160.027 208.546H126.542V211.502H160.027V208.546Z" fill="#3C479E"/>
<path d="M160.027 211.973H126.542C126.283 211.973 126.071 211.761 126.071 211.501V208.546C126.071 208.286 126.283 208.074 126.542 208.074H160.027C160.287 208.074 160.499 208.286 160.499 208.546V211.501C160.499 211.761 160.287 211.973 160.027 211.973ZM127.013 211.03H159.556V209.017H127.013V211.03Z" fill="url(#paint21_linear_27_1622)"/>
<path d="M165.168 211.402H121.279V214.358H165.168V211.402Z" fill="#3C479E"/>
<path d="M165.169 214.834H121.279C121.02 214.834 120.808 214.622 120.808 214.363V211.407C120.808 211.148 121.02 210.936 121.279 210.936H165.169C165.428 210.936 165.64 211.148 165.64 211.407V214.363C165.64 214.622 165.428 214.834 165.169 214.834ZM121.75 213.891H164.697V211.878H121.75V213.891Z" fill="url(#paint22_linear_27_1622)"/>
<path d="M142.97 135.091H144.096C145.707 135.091 147.013 136.401 147.013 138.009V138.758H140.048V138.009C140.048 136.397 141.358 135.091 142.965 135.091H142.97Z" fill="#3C479E"/>
<path d="M147.013 139.234H140.048C139.789 139.234 139.577 139.022 139.577 138.763V138.013C139.577 136.142 141.099 134.624 142.965 134.624H144.091C145.962 134.624 147.479 136.147 147.479 138.013V138.763C147.479 139.022 147.267 139.234 147.008 139.234H147.013ZM140.519 138.292H146.542V138.013C146.542 136.665 145.444 135.567 144.096 135.567H142.97C141.622 135.567 140.524 136.665 140.524 138.013V138.292H140.519Z" fill="url(#paint23_linear_27_1622)"/>
<path d="M147.262 138.757H139.742V140.77H147.262V138.757Z" fill="#3C479E"/>
<path d="M147.262 141.242H139.741C139.482 141.242 139.27 141.03 139.27 140.771V138.762C139.27 138.503 139.482 138.291 139.741 138.291H147.262C147.521 138.291 147.733 138.503 147.733 138.762V140.771C147.733 141.03 147.521 141.242 147.262 141.242ZM140.213 140.299H146.791V139.234H140.213V140.299Z" fill="url(#paint24_linear_27_1622)"/>
<path d="M148.256 137.641H138.808V138.758H148.256V137.641Z" fill="#3C479E"/>
<path d="M148.256 139.234H138.808C138.549 139.234 138.337 139.022 138.337 138.762V137.64C138.337 137.381 138.549 137.169 138.808 137.169H148.256C148.515 137.169 148.727 137.381 148.727 137.64V138.762C148.727 139.022 148.515 139.234 148.256 139.234ZM139.279 138.291H147.785V138.112H139.279V138.291Z" fill="url(#paint25_linear_27_1622)"/>
<path d="M141.532 135.162L141.919 117.121C141.919 117.121 141.876 115.442 143.45 115.504C145.024 115.565 144.774 117.121 144.774 117.121L145.533 135.162H141.527H141.532Z" fill="#3C479E"/>
<path d="M145.537 135.632H141.532C141.404 135.632 141.282 135.58 141.197 135.491C141.108 135.401 141.06 135.279 141.06 135.151L141.447 117.11C141.447 117.03 141.442 116.135 142.055 115.531C142.408 115.182 142.893 115.008 143.473 115.036C144.227 115.064 144.646 115.39 144.863 115.654C145.32 116.21 145.278 116.931 145.254 117.143L146.013 135.142C146.018 135.269 145.971 135.397 145.881 135.486C145.792 135.58 145.669 135.632 145.542 135.632H145.537ZM142.012 134.689H145.047L144.307 117.139C144.307 117.106 144.307 117.077 144.312 117.044C144.331 116.908 144.335 116.498 144.128 116.243C143.987 116.073 143.761 115.984 143.431 115.97C143.115 115.96 142.884 116.031 142.714 116.191C142.441 116.46 142.385 116.941 142.385 117.106L142.008 134.685L142.012 134.689Z" fill="url(#paint26_linear_27_1622)"/>
<path d="M151.489 211.501H132.697V234.482H151.489V211.501Z" fill="#3C479E"/>
<path d="M151.489 234.955H132.697C132.437 234.955 132.225 234.742 132.225 234.483V211.502C132.225 211.242 132.437 211.03 132.697 211.03H151.489C151.748 211.03 151.96 211.242 151.96 211.502V234.483C151.96 234.742 151.748 234.955 151.489 234.955ZM133.168 234.012H151.018V211.973H133.168V234.012Z" fill="url(#paint27_linear_27_1622)"/>
<path d="M136.509 211.501H132.697V233.007H136.509V211.501Z" fill="#3C479E"/>
<path d="M136.509 233.479H132.697C132.437 233.479 132.225 233.267 132.225 233.008V211.502C132.225 211.242 132.437 211.03 132.697 211.03H136.509C136.768 211.03 136.98 211.242 136.98 211.502V233.008C136.98 233.267 136.768 233.479 136.509 233.479ZM133.168 232.536H136.038V211.973H133.168V232.536Z" fill="url(#paint28_linear_27_1622)"/>
<path d="M153.915 211.501H150.103V233.007H153.915V211.501Z" fill="#3C479E"/>
<path d="M153.915 233.479H150.102C149.843 233.479 149.631 233.267 149.631 233.008V211.502C149.631 211.242 149.843 211.03 150.102 211.03H153.915C154.174 211.03 154.386 211.242 154.386 211.502V233.008C154.386 233.267 154.174 233.479 153.915 233.479ZM150.574 232.536H153.443V211.973H150.574V232.536Z" fill="url(#paint29_linear_27_1622)"/>
<path d="M125.878 214.362H121.279V231.527H125.878V214.362Z" fill="#3C479E"/>
<path d="M125.878 231.999H121.279C121.02 231.999 120.808 231.787 120.808 231.527V214.363C120.808 214.104 121.02 213.892 121.279 213.892H125.878C126.137 213.892 126.349 214.104 126.349 214.363V231.527C126.349 231.787 126.137 231.999 125.878 231.999ZM121.75 231.056H125.407V214.834H121.75V231.056Z" fill="url(#paint30_linear_27_1622)"/>
<path d="M165.163 214.362H160.564V231.527H165.163V214.362Z" fill="#3C479E"/>
<path d="M165.169 231.999H160.569C160.31 231.999 160.098 231.787 160.098 231.527V214.363C160.098 214.104 160.31 213.892 160.569 213.892H165.169C165.428 213.892 165.64 214.104 165.64 214.363V231.527C165.64 231.787 165.428 231.999 165.169 231.999ZM161.041 231.056H164.697V214.834H161.041V231.056Z" fill="url(#paint31_linear_27_1622)"/>
<path d="M170.575 219.359H167.653V231.527H170.575V219.359Z" fill="#3C479E"/>
<path d="M170.575 231.999H167.653C167.394 231.999 167.182 231.787 167.182 231.527V219.36C167.182 219.101 167.394 218.889 167.653 218.889H170.575C170.834 218.889 171.046 219.101 171.046 219.36V231.527C171.046 231.787 170.834 231.999 170.575 231.999ZM168.125 231.056H170.104V219.832H168.125V231.056Z" fill="url(#paint32_linear_27_1622)"/>
<path d="M119.352 231.528H116.431V219.361L119.352 217.183V231.528Z" fill="#3C479E"/>
<path d="M119.353 231.999H116.431C116.172 231.999 115.96 231.787 115.96 231.528V219.36C115.96 219.21 116.03 219.073 116.148 218.983L119.07 216.805C119.216 216.697 119.404 216.683 119.565 216.763C119.725 216.843 119.824 217.008 119.824 217.183V231.528C119.824 231.787 119.612 231.999 119.353 231.999V231.999ZM116.902 231.056H118.881V218.121L116.902 219.596V231.056Z" fill="url(#paint33_linear_27_1622)"/>
<path d="M179.837 231.527L165.168 211.402V215.815L176.355 231.527H179.837Z" fill="#3C479E"/>
<path d="M179.837 231.998H176.355C176.204 231.998 176.058 231.923 175.973 231.8L164.782 216.088C164.725 216.008 164.692 215.914 164.692 215.815V211.407C164.692 211.204 164.824 211.02 165.017 210.959C165.211 210.898 165.423 210.964 165.545 211.129L180.214 231.253C180.318 231.395 180.332 231.588 180.252 231.744C180.172 231.904 180.007 232.003 179.833 232.003L179.837 231.998ZM176.6 231.055H178.914L165.639 212.849V215.659L176.6 231.051V231.055Z" fill="url(#paint34_linear_27_1622)"/>
<path d="M106.61 231.528L121.279 211.403V215.816L110.088 231.528H106.61Z" fill="#3C479E"/>
<path d="M110.087 231.999H106.605C106.426 231.999 106.266 231.9 106.186 231.74C106.105 231.58 106.12 231.391 106.223 231.25L120.892 211.125C121.01 210.96 121.227 210.889 121.42 210.955C121.613 211.016 121.745 211.2 121.745 211.403V215.811C121.745 215.91 121.717 216.004 121.656 216.084L110.464 231.796C110.375 231.919 110.233 231.994 110.083 231.994L110.087 231.999ZM107.533 231.056H109.847L120.808 215.665V212.855L107.533 231.061V231.056Z" fill="url(#paint35_linear_27_1622)"/>
<path d="M103.067 231.528L103.378 216.438C103.378 216.438 103.439 215.693 104.871 215.693C106.304 215.693 106.61 216.499 106.61 216.499V232.047L103.067 231.528V231.528Z" fill="#3C479E"/>
<path d="M106.605 232.518C106.605 232.518 106.558 232.518 106.54 232.513L102.996 231.995C102.76 231.962 102.586 231.754 102.591 231.518L102.902 216.429C102.906 216.348 103.024 215.222 104.867 215.222C106.601 215.222 107.03 216.287 107.048 216.334C107.067 216.386 107.081 216.447 107.081 216.504V232.051C107.081 232.188 107.02 232.32 106.916 232.409C106.832 232.485 106.719 232.523 106.61 232.523L106.605 232.518ZM103.543 231.123L106.134 231.5V216.617C106.04 216.49 105.72 216.16 104.867 216.16C104.155 216.16 103.891 216.367 103.844 216.49L103.543 231.123Z" fill="url(#paint36_linear_27_1622)"/>
<path d="M180.333 231.527L180.644 216.437C180.644 216.437 180.705 215.692 182.137 215.692C183.57 215.692 183.876 216.499 183.876 216.499V232.046L180.333 231.527Z" fill="#3C479E"/>
<path d="M183.876 232.518C183.876 232.518 183.829 232.518 183.81 232.513L180.267 231.995C180.031 231.962 179.857 231.754 179.861 231.518L180.172 216.429C180.177 216.348 180.295 215.222 182.137 215.222C183.871 215.222 184.3 216.287 184.319 216.334C184.338 216.386 184.352 216.447 184.352 216.504V232.051C184.352 232.188 184.291 232.32 184.187 232.409C184.102 232.485 183.989 232.523 183.881 232.523L183.876 232.518ZM180.813 231.123L183.405 231.5V216.617C183.311 216.49 182.99 216.16 182.137 216.16C181.426 216.16 181.162 216.367 181.115 216.49L180.813 231.123Z" fill="url(#paint37_linear_27_1622)"/>
<path d="M150.104 215.975H136.51C136.25 215.975 136.038 215.763 136.038 215.504C136.038 215.244 136.25 215.032 136.51 215.032H150.104C150.364 215.032 150.576 215.244 150.576 215.504C150.576 215.763 150.364 215.975 150.104 215.975Z" fill="url(#paint38_linear_27_1622)"/>
<path d="M150.104 219.832H136.51C136.25 219.832 136.038 219.619 136.038 219.36C136.038 219.101 136.25 218.889 136.51 218.889H150.104C150.364 218.889 150.576 219.101 150.576 219.36C150.576 219.619 150.364 219.832 150.104 219.832Z" fill="url(#paint39_linear_27_1622)"/>
<path d="M150.104 223.688H136.51C136.25 223.688 136.038 223.476 136.038 223.217C136.038 222.957 136.25 222.745 136.51 222.745H150.104C150.364 222.745 150.576 222.957 150.576 223.217C150.576 223.476 150.364 223.688 150.104 223.688Z" fill="url(#paint40_linear_27_1622)"/>
<path d="M131.697 161.084H130.354V166.557H131.697V161.084Z" fill="#3C479E"/>
<path d="M131.697 167.028H130.354C130.094 167.028 129.882 166.816 129.882 166.557V161.084C129.882 160.824 130.094 160.612 130.354 160.612H131.697C131.956 160.612 132.168 160.824 132.168 161.084V166.557C132.168 166.816 131.956 167.028 131.697 167.028ZM130.825 166.085H131.225V161.555H130.825V166.085Z" fill="url(#paint41_linear_27_1622)"/>
<path d="M137.609 161.084H136.266V166.557H137.609V161.084Z" fill="#3C479E"/>
<path d="M137.605 167.028H136.262C136.003 167.028 135.791 166.816 135.791 166.557V161.084C135.791 160.824 136.003 160.612 136.262 160.612H137.605C137.864 160.612 138.076 160.824 138.076 161.084V166.557C138.076 166.816 137.864 167.028 137.605 167.028ZM136.733 166.085H137.134V161.555H136.733V166.085Z" fill="url(#paint42_linear_27_1622)"/>
<path d="M143.52 161.084H142.177V166.557H143.52V161.084Z" fill="#3C479E"/>
<path d="M143.52 167.028H142.177C141.918 167.028 141.706 166.816 141.706 166.557V161.084C141.706 160.824 141.918 160.612 142.177 160.612H143.52C143.779 160.612 143.991 160.824 143.991 161.084V166.557C143.991 166.816 143.779 167.028 143.52 167.028ZM142.648 166.085H143.049V161.555H142.648V166.085Z" fill="url(#paint43_linear_27_1622)"/>
<path d="M149.435 161.084H148.092V166.557H149.435V161.084Z" fill="#3C479E"/>
<path d="M149.435 167.028H148.092C147.832 167.028 147.62 166.816 147.62 166.557V161.084C147.62 160.824 147.832 160.612 148.092 160.612H149.435C149.694 160.612 149.906 160.824 149.906 161.084V166.557C149.906 166.816 149.694 167.028 149.435 167.028ZM148.563 166.085H148.963V161.555H148.563V166.085Z" fill="url(#paint44_linear_27_1622)"/>
<path d="M155.343 161.084H154V166.557H155.343V161.084Z" fill="#3C479E"/>
<path d="M155.343 167.028H154C153.741 167.028 153.529 166.816 153.529 166.557V161.084C153.529 160.824 153.741 160.612 154 160.612H155.343C155.602 160.612 155.814 160.824 155.814 161.084V166.557C155.814 166.816 155.602 167.028 155.343 167.028ZM154.471 166.085H154.872V161.555H154.471V166.085Z" fill="url(#paint45_linear_27_1622)"/>
<path d="M158.953 172.029H127.15V173.896H158.953V172.029Z" fill="#3C479E"/>
<path d="M158.948 174.368H127.145C126.886 174.368 126.674 174.156 126.674 173.897V172.03C126.674 171.771 126.886 171.559 127.145 171.559H158.948C159.207 171.559 159.419 171.771 159.419 172.03V173.897C159.419 174.156 159.207 174.368 158.948 174.368ZM127.616 173.425H158.477V172.501H127.616V173.425Z" fill="url(#paint46_linear_27_1622)"/>
<path d="M155.343 166.062H130.354V169.173H155.343V166.062Z" fill="#3C479E"/>
<path d="M155.343 169.645H130.354C130.095 169.645 129.883 169.433 129.883 169.174V166.062C129.883 165.803 130.095 165.591 130.354 165.591H155.343C155.602 165.591 155.814 165.803 155.814 166.062V169.174C155.814 169.433 155.602 169.645 155.343 169.645ZM130.825 168.702H154.872V166.534H130.825V168.702Z" fill="url(#paint47_linear_27_1622)"/>
<path d="M155.343 161.085H130.354V162.952H155.343V161.085Z" fill="#3C479E"/>
<path d="M155.343 163.423H130.354C130.095 163.423 129.883 163.211 129.883 162.951V161.085C129.883 160.825 130.095 160.613 130.354 160.613H155.343C155.602 160.613 155.814 160.825 155.814 161.085V162.951C155.814 163.211 155.602 163.423 155.343 163.423ZM130.825 162.48H154.872V161.556H130.825V162.48Z" fill="url(#paint48_linear_27_1622)"/>
<path d="M131.029 173.897H128.767V175.807H131.029V173.897Z" fill="#3C479E"/>
<path d="M131.024 176.278H128.763C128.503 176.278 128.291 176.066 128.291 175.806V173.897C128.291 173.638 128.503 173.426 128.763 173.426H131.024C131.284 173.426 131.496 173.638 131.496 173.897V175.806C131.496 176.066 131.284 176.278 131.024 176.278ZM129.234 175.335H130.553V174.369H129.234V175.335Z" fill="url(#paint49_linear_27_1622)"/>
<path d="M137.546 173.897H135.284V175.807H137.546V173.897Z" fill="#3C479E"/>
<path d="M137.546 176.278H135.284C135.025 176.278 134.813 176.066 134.813 175.806V173.897C134.813 173.638 135.025 173.426 135.284 173.426H137.546C137.805 173.426 138.017 173.638 138.017 173.897V175.806C138.017 176.066 137.805 176.278 137.546 176.278ZM135.755 175.335H137.075V174.369H135.755V175.335Z" fill="url(#paint50_linear_27_1622)"/>
<path d="M144.062 173.897H141.8V175.807H144.062V173.897Z" fill="#3C479E"/>
<path d="M144.062 176.278H141.8C141.541 176.278 141.329 176.066 141.329 175.806V173.897C141.329 173.638 141.541 173.426 141.8 173.426H144.062C144.321 173.426 144.533 173.638 144.533 173.897V175.806C144.533 176.066 144.321 176.278 144.062 176.278ZM142.272 175.335H143.591V174.369H142.272V175.335Z" fill="url(#paint51_linear_27_1622)"/>
<path d="M150.584 173.897H148.322V175.807H150.584V173.897Z" fill="#3C479E"/>
<path d="M150.579 176.278H148.317C148.058 176.278 147.846 176.066 147.846 175.806V173.897C147.846 173.638 148.058 173.426 148.317 173.426H150.579C150.838 173.426 151.05 173.638 151.05 173.897V175.806C151.05 176.066 150.838 176.278 150.579 176.278ZM148.789 175.335H150.108V174.369H148.789V175.335Z" fill="url(#paint52_linear_27_1622)"/>
<path d="M157.1 173.897H154.839V175.807H157.1V173.897Z" fill="#3C479E"/>
<path d="M157.096 176.278H154.834C154.575 176.278 154.363 176.066 154.363 175.806V173.897C154.363 173.638 154.575 173.426 154.834 173.426H157.096C157.355 173.426 157.567 173.638 157.567 173.897V175.806C157.567 176.066 157.355 176.278 157.096 176.278ZM155.305 175.335H156.625V174.369H155.305V175.335Z" fill="url(#paint53_linear_27_1622)"/>
<path d="M140.303 152.09H136.27C136.256 149.893 135.332 149.106 134.13 148.691C132.929 148.276 133.094 147.489 133.094 147.489V146.409H153.276V147.489C153.276 147.489 153.441 148.276 152.239 148.691C151.038 149.106 150.114 149.893 150.1 152.09H140.303Z" fill="#3C479E"/>
<path d="M150.095 152.561H136.264C136.005 152.561 135.793 152.353 135.793 152.094C135.779 150.157 135.053 149.511 133.969 149.138C132.763 148.724 132.556 147.884 132.617 147.451V146.409C132.617 146.15 132.829 145.938 133.088 145.938H153.271C153.53 145.938 153.742 146.15 153.742 146.409V147.451C153.803 147.884 153.591 148.724 152.39 149.138C151.306 149.511 150.58 150.157 150.566 152.094C150.566 152.353 150.354 152.561 150.095 152.561V152.561ZM136.721 151.618H149.642C149.765 149.831 150.528 148.78 152.083 148.243C152.837 147.983 152.814 147.606 152.809 147.564C152.809 147.545 152.804 147.503 152.804 147.484V146.876H133.564V147.484C133.564 147.517 133.564 147.55 133.555 147.583C133.555 147.606 133.531 147.983 134.285 148.243C135.84 148.78 136.604 149.827 136.726 151.618H136.721Z" fill="url(#paint54_linear_27_1622)"/>
<path d="M132.717 154.329H153.606V155.484C153.606 157.181 152.23 158.558 150.533 158.558H135.789C134.093 158.558 132.717 157.181 132.717 155.484V154.329Z" fill="#3C479E"/>
<path d="M150.533 159.029H135.789C133.838 159.029 132.245 157.44 132.245 155.484V154.329C132.245 154.07 132.457 153.857 132.716 153.857H153.606C153.865 153.857 154.077 154.07 154.077 154.329V155.484C154.077 157.435 152.489 159.029 150.533 159.029ZM133.188 154.8V155.484C133.188 156.917 134.351 158.086 135.789 158.086H150.533C151.966 158.086 153.134 156.922 153.134 155.484V154.8H133.188Z" fill="url(#paint55_linear_27_1622)"/>
<path d="M146.259 133.845H140.807C140.237 133.845 139.77 133.378 139.77 132.808C139.77 132.237 140.237 131.771 140.807 131.771H146.259C146.829 131.771 147.296 132.237 147.296 132.808C147.296 133.378 146.829 133.845 146.259 133.845Z" fill="#3C479E"/>
<path d="M146.259 134.317H140.811C139.982 134.317 139.303 133.638 139.303 132.808C139.303 131.979 139.982 131.3 140.811 131.3H146.259C147.088 131.3 147.766 131.974 147.766 132.808C147.766 133.643 147.088 134.317 146.259 134.317ZM140.811 132.243C140.5 132.243 140.246 132.497 140.246 132.808C140.246 133.119 140.5 133.374 140.811 133.374H146.259C146.57 133.374 146.824 133.119 146.824 132.808C146.824 132.497 146.57 132.243 146.259 132.243H140.811V132.243Z" fill="url(#paint56_linear_27_1622)"/>
<path d="M145.938 130.238H141.131C140.651 130.238 140.259 129.847 140.259 129.366C140.259 128.885 140.651 128.494 141.131 128.494H145.938C146.418 128.494 146.809 128.885 146.809 129.366C146.809 129.847 146.418 130.238 145.938 130.238Z" fill="#3C479E"/>
<path d="M145.938 130.711H141.131C140.391 130.711 139.788 130.107 139.788 129.367C139.788 128.627 140.391 128.023 141.131 128.023H145.938C146.677 128.023 147.281 128.627 147.281 129.367C147.281 130.107 146.677 130.711 145.938 130.711ZM141.131 128.971C140.91 128.971 140.731 129.15 140.731 129.372C140.731 129.593 140.91 129.772 141.131 129.772H145.938C146.159 129.772 146.338 129.593 146.338 129.372C146.338 129.15 146.159 128.971 145.938 128.971H141.131Z" fill="url(#paint57_linear_27_1622)"/>
<path d="M145.938 126.84H141.131C140.651 126.84 140.259 126.449 140.259 125.968C140.259 125.487 140.651 125.096 141.131 125.096H145.938C146.418 125.096 146.809 125.487 146.809 125.968C146.809 126.449 146.418 126.84 145.938 126.84Z" fill="#3C479E"/>
<path d="M145.938 127.312H141.131C140.391 127.312 139.788 126.709 139.788 125.969C139.788 125.228 140.391 124.625 141.131 124.625H145.938C146.677 124.625 147.281 125.228 147.281 125.969C147.281 126.709 146.677 127.312 145.938 127.312ZM141.131 125.573C140.91 125.573 140.731 125.752 140.731 125.973C140.731 126.195 140.91 126.374 141.131 126.374H145.938C146.159 126.374 146.338 126.195 146.338 125.973C146.338 125.752 146.159 125.573 145.938 125.573H141.131Z" fill="url(#paint58_linear_27_1622)"/>
<path d="M145.938 123.441H141.131C140.651 123.441 140.259 123.049 140.259 122.568C140.259 122.088 140.651 121.696 141.131 121.696H145.938C146.418 121.696 146.809 122.088 146.809 122.568C146.809 123.049 146.418 123.441 145.938 123.441Z" fill="#3C479E"/>
<path d="M145.938 123.913H141.131C140.391 123.913 139.788 123.309 139.788 122.569C139.788 121.829 140.391 121.226 141.131 121.226H145.938C146.677 121.226 147.281 121.829 147.281 122.569C147.281 123.309 146.677 123.913 145.938 123.913ZM141.131 122.173C140.91 122.173 140.731 122.352 140.731 122.574C140.731 122.795 140.91 122.975 141.131 122.975H145.938C146.159 122.975 146.338 122.795 146.338 122.574C146.338 122.352 146.159 122.173 145.938 122.173H141.131Z" fill="url(#paint59_linear_27_1622)"/>
<path d="M139.802 117.969H147.262V119.298C147.262 119.92 146.758 120.425 146.136 120.425H140.924C140.302 120.425 139.798 119.92 139.798 119.298V117.969H139.802Z" fill="#3C479E"/>
<path d="M146.141 120.891H140.929C140.048 120.891 139.332 120.175 139.332 119.293V117.964C139.332 117.704 139.544 117.492 139.803 117.492H147.262C147.522 117.492 147.734 117.704 147.734 117.964V119.293C147.734 120.175 147.017 120.891 146.136 120.891H146.141ZM140.279 118.44V119.298C140.279 119.661 140.571 119.953 140.934 119.953H146.146C146.504 119.953 146.801 119.661 146.801 119.298V118.44H140.284H140.279Z" fill="url(#paint60_linear_27_1622)"/>
<path d="M157.337 175.806H128.767V179.247H157.337V175.806Z" fill="#3C479E"/>
<path d="M157.333 179.719H128.763C128.503 179.719 128.291 179.507 128.291 179.248V175.806C128.291 175.547 128.503 175.335 128.763 175.335H157.333C157.592 175.335 157.804 175.547 157.804 175.806V179.248C157.804 179.507 157.592 179.719 157.333 179.719ZM129.234 178.776H156.862V176.278H129.234V178.776Z" fill="url(#paint61_linear_27_1622)"/>
<path d="M76.1431 160.669H68.8105V164.259H76.1431V160.669Z" fill="#3C479E"/>
<path d="M76.1422 164.647H68.8097C68.5965 164.647 68.4221 164.472 68.4221 164.259V160.669C68.4221 160.456 68.5965 160.281 68.8097 160.281H76.1422C76.3554 160.281 76.5298 160.456 76.5298 160.669V164.259C76.5298 164.472 76.3554 164.647 76.1422 164.647ZM69.1972 163.871H75.7547V161.057H69.1972V163.871Z" fill="url(#paint62_linear_27_1622)"/>
<path d="M70.1321 160.401H68.8105V164.259H70.1321V160.401Z" fill="#3C479E"/>
<path d="M70.1283 164.647H68.8067C68.5936 164.647 68.4192 164.472 68.4192 164.259V160.401C68.4192 160.188 68.5936 160.014 68.8067 160.014H70.1283C70.3415 160.014 70.5159 160.188 70.5159 160.401V164.259C70.5159 164.472 70.3415 164.647 70.1283 164.647V164.647ZM69.1943 163.871H69.7408V160.789H69.1943V163.871Z" fill="url(#paint63_linear_27_1622)"/>
<path d="M76.1438 160.401H74.8223V164.259H76.1438V160.401Z" fill="#3C479E"/>
<path d="M76.1425 164.647H74.8209C74.6077 164.647 74.4333 164.472 74.4333 164.259V160.401C74.4333 160.188 74.6077 160.014 74.8209 160.014H76.1425C76.3556 160.014 76.53 160.188 76.53 160.401V164.259C76.53 164.472 76.3556 164.647 76.1425 164.647ZM75.2085 163.871H75.7549V160.789H75.2085V163.871Z" fill="url(#paint64_linear_27_1622)"/>
<path d="M68.2708 171.393H66.5345V175.824H68.2708V171.393Z" fill="#3C479E"/>
<path d="M68.2704 176.212H66.5342C66.321 176.212 66.1466 176.037 66.1466 175.824V171.393C66.1466 171.179 66.321 171.005 66.5342 171.005H68.2704C68.4836 171.005 68.658 171.179 68.658 171.393V175.824C68.658 176.037 68.4836 176.212 68.2704 176.212V176.212ZM66.9217 175.436H67.8829V171.78H66.9217V175.436V175.436Z" fill="url(#paint65_linear_27_1622)"/>
<path d="M79.0022 171.393H66.5345V175.824H79.0022V171.393Z" fill="#3C479E"/>
<path d="M79.0018 176.212H66.5342C66.321 176.212 66.1466 176.037 66.1466 175.824V171.393C66.1466 171.179 66.321 171.005 66.5342 171.005H79.0018C79.215 171.005 79.3894 171.179 79.3894 171.393V175.824C79.3894 176.037 79.215 176.212 79.0018 176.212V176.212ZM66.9217 175.436H78.6143V171.78H66.9217V175.436V175.436Z" fill="url(#paint66_linear_27_1622)"/>
<path d="M68.2708 171.393H66.5345V175.824H68.2708V171.393Z" fill="#3C479E"/>
<path d="M68.2704 176.212H66.5342C66.321 176.212 66.1466 176.037 66.1466 175.824V171.393C66.1466 171.179 66.321 171.005 66.5342 171.005H68.2704C68.4836 171.005 68.658 171.179 68.658 171.393V175.824C68.658 176.037 68.4836 176.212 68.2704 176.212V176.212ZM66.9217 175.436H67.8829V171.78H66.9217V175.436V175.436Z" fill="url(#paint67_linear_27_1622)"/>
<path d="M79.0031 171.393H77.2668V175.824H79.0031V171.393Z" fill="#3C479E"/>
<path d="M79.0028 176.212H77.2666C77.0534 176.212 76.879 176.037 76.879 175.824V171.393C76.879 171.179 77.0534 171.005 77.2666 171.005H79.0028C79.216 171.005 79.3904 171.179 79.3904 171.393V175.824C79.3904 176.037 79.216 176.212 79.0028 176.212V176.212ZM77.6541 175.436H78.6153V171.78H77.6541V175.436V175.436Z" fill="url(#paint68_linear_27_1622)"/>
<path d="M80.1997 183.762H65.2633V188.814H80.1997V183.762Z" fill="#3C479E"/>
<path d="M80.1997 189.201H65.2633C65.0501 189.201 64.8757 189.027 64.8757 188.814V183.762C64.8757 183.548 65.0501 183.374 65.2633 183.374H80.1997C80.4128 183.374 80.5872 183.548 80.5872 183.762V188.814C80.5872 189.027 80.4128 189.201 80.1997 189.201ZM65.6508 188.426H79.8121V184.149H65.6508V188.426V188.426Z" fill="url(#paint69_linear_27_1622)"/>
<path d="M67.1468 183.761H65.2633V188.239H67.1468V183.761Z" fill="#3C479E"/>
<path d="M67.1468 188.623H65.2633C65.0501 188.623 64.8757 188.448 64.8757 188.235V183.757C64.8757 183.544 65.0501 183.369 65.2633 183.369H67.1468C67.36 183.369 67.5344 183.544 67.5344 183.757V188.235C67.5344 188.448 67.36 188.623 67.1468 188.623ZM65.6508 187.847H66.7593V184.145H65.6508V187.847Z" fill="url(#paint70_linear_27_1622)"/>
<path d="M67.1468 183.762H65.2633V188.814H67.1468V183.762Z" fill="#3C479E"/>
<path d="M67.1468 189.201H65.2633C65.0501 189.201 64.8757 189.027 64.8757 188.814V183.762C64.8757 183.548 65.0501 183.374 65.2633 183.374H67.1468C67.36 183.374 67.5344 183.548 67.5344 183.762V188.814C67.5344 189.027 67.36 189.201 67.1468 189.201ZM65.6508 188.426H66.7593V184.149H65.6508V188.426Z" fill="url(#paint71_linear_27_1622)"/>
<path d="M80.2002 183.762H78.3167V188.814H80.2002V183.762Z" fill="#3C479E"/>
<path d="M80.1998 189.201H78.3163C78.1031 189.201 77.9287 189.027 77.9287 188.814V183.762C77.9287 183.548 78.1031 183.374 78.3163 183.374H80.1998C80.4129 183.374 80.5873 183.548 80.5873 183.762V188.814C80.5873 189.027 80.4129 189.201 80.1998 189.201ZM78.7038 188.426H79.8122V184.149H78.7038V188.426Z" fill="url(#paint72_linear_27_1622)"/>
<path d="M81.568 197.056H64.0195V210.219H81.568V197.056Z" fill="#3C479E"/>
<path d="M81.5678 210.606H64.0193C63.8061 210.606 63.6317 210.432 63.6317 210.219V197.056C63.6317 196.842 63.8061 196.668 64.0193 196.668H81.5678C81.7809 196.668 81.9553 196.842 81.9553 197.056V210.219C81.9553 210.432 81.7809 210.606 81.5678 210.606V210.606ZM64.4068 209.831H81.1802V197.443H64.4068V209.831Z" fill="url(#paint73_linear_27_1622)"/>
<path d="M66.2053 197.056H64.0195V210.219H66.2053V197.056Z" fill="#3C479E"/>
<path d="M66.2051 210.606H64.0193C63.8061 210.606 63.6317 210.432 63.6317 210.219V197.056C63.6317 196.842 63.8061 196.668 64.0193 196.668H66.2051C66.4182 196.668 66.5926 196.842 66.5926 197.056V210.219C66.5926 210.432 66.4182 210.606 66.2051 210.606V210.606ZM64.4068 209.831H65.8175V197.443H64.4068V209.831Z" fill="url(#paint74_linear_27_1622)"/>
<path d="M81.5686 197.056H79.2588V210.219H81.5686V197.056Z" fill="#3C479E"/>
<path d="M81.5685 210.606H79.2586C79.0455 210.606 78.8711 210.432 78.8711 210.219V197.056C78.8711 196.842 79.0455 196.668 79.2586 196.668H81.5685C81.7816 196.668 81.956 196.842 81.956 197.056V210.219C81.956 210.432 81.7816 210.606 81.5685 210.606V210.606ZM79.6462 209.831H81.1809V197.443H79.6462V209.831Z" fill="url(#paint75_linear_27_1622)"/>
<path d="M88.9001 213.456H56.4889V226.619H88.9001V213.456Z" fill="#3C479E"/>
<path d="M88.9 227.007H56.4888C56.2756 227.007 56.1012 226.832 56.1012 226.619V213.456C56.1012 213.243 56.2756 213.068 56.4888 213.068H88.9C89.1131 213.068 89.2875 213.243 89.2875 213.456V226.619C89.2875 226.832 89.1131 227.007 88.9 227.007V227.007ZM56.8763 226.231H88.5124V213.844H56.8763V226.231V226.231Z" fill="url(#paint76_linear_27_1622)"/>
<path d="M59.0816 213.456H56.4889V226.619H59.0816V213.456Z" fill="#3C479E"/>
<path d="M59.0815 227.007H56.4888C56.2756 227.007 56.1012 226.832 56.1012 226.619V213.456C56.1012 213.243 56.2756 213.068 56.4888 213.068H59.0815C59.2946 213.068 59.469 213.243 59.469 213.456V226.619C59.469 226.832 59.2946 227.007 59.0815 227.007V227.007ZM56.8763 226.231H58.6939V213.844H56.8763V226.231Z" fill="url(#paint77_linear_27_1622)"/>
<path d="M67.38 213.456H64.7872V226.619H67.38V213.456Z" fill="#3C479E"/>
<path d="M67.3798 227.007H64.7871C64.5739 227.007 64.3995 226.832 64.3995 226.619V213.456C64.3995 213.243 64.5739 213.068 64.7871 213.068H67.3798C67.593 213.068 67.7674 213.243 67.7674 213.456V226.619C67.7674 226.832 67.593 227.007 67.3798 227.007V227.007ZM65.1746 226.231H66.9923V213.844H65.1746V226.231Z" fill="url(#paint78_linear_27_1622)"/>
<path d="M79.6157 213.456H77.0229V226.619H79.6157V213.456Z" fill="#3C479E"/>
<path d="M79.6153 227.007H77.0226C76.8094 227.007 76.635 226.832 76.635 226.619V213.456C76.635 213.243 76.8094 213.068 77.0226 213.068H79.6153C79.8285 213.068 80.0029 213.243 80.0029 213.456V226.619C80.0029 226.832 79.8285 227.007 79.6153 227.007V227.007ZM77.4101 226.231H79.2278V213.844H77.4101V226.231Z" fill="url(#paint79_linear_27_1622)"/>
<path d="M88.9039 213.456H86.3112V226.619H88.9039V213.456Z" fill="#3C479E"/>
<path d="M88.9003 227.007H86.3076C86.0944 227.007 85.92 226.832 85.92 226.619V213.456C85.92 213.243 86.0944 213.068 86.3076 213.068H88.9003C89.1135 213.068 89.2879 213.243 89.2879 213.456V226.619C89.2879 226.832 89.1135 227.007 88.9003 227.007V227.007ZM86.6952 226.231H88.5128V213.844H86.6952V226.231Z" fill="url(#paint80_linear_27_1622)"/>
<path d="M77.3175 164.17H67.6364V165.321H77.3175V164.17Z" fill="#3C479E"/>
<path d="M77.3173 165.709H67.6362C67.4231 165.709 67.2487 165.535 67.2487 165.321V164.17C67.2487 163.957 67.4231 163.782 67.6362 163.782H77.3173C77.5305 163.782 77.7049 163.957 77.7049 164.17V165.321C77.7049 165.535 77.5305 165.709 77.3173 165.709ZM68.0238 164.934H76.9298V164.558H68.0238V164.934Z" fill="url(#paint81_linear_27_1622)"/>
<path d="M79.662 175.359H65.9735V176.511H79.662V175.359Z" fill="#3C479E"/>
<path d="M79.6617 176.903H65.9732C65.7601 176.903 65.5857 176.728 65.5857 176.515V175.363C65.5857 175.15 65.7601 174.976 65.9732 174.976H79.6617C79.8748 174.976 80.0492 175.15 80.0492 175.363V176.515C80.0492 176.728 79.8748 176.903 79.6617 176.903ZM66.3608 176.127H79.2741V175.751H66.3608V176.127Z" fill="url(#paint82_linear_27_1622)"/>
<path d="M80.9333 188.813H64.6289V189.965H80.9333V188.813Z" fill="#3C479E"/>
<path d="M80.9332 190.353H64.6288C64.4156 190.353 64.2412 190.178 64.2412 189.965V188.813C64.2412 188.6 64.4156 188.426 64.6288 188.426H80.9332C81.1464 188.426 81.3208 188.6 81.3208 188.813V189.965C81.3208 190.178 81.1464 190.353 80.9332 190.353V190.353ZM65.0163 189.577H80.5457V189.201H65.0163V189.577V189.577Z" fill="url(#paint83_linear_27_1622)"/>
<path d="M81.4717 189.785H64.1674V190.937H81.4717V189.785Z" fill="#3C479E"/>
<path d="M81.4717 191.329H64.1673C63.9542 191.329 63.7798 191.155 63.7798 190.942V189.79C63.7798 189.577 63.9542 189.402 64.1673 189.402H81.4717C81.6848 189.402 81.8592 189.577 81.8592 189.79V190.942C81.8592 191.155 81.6848 191.329 81.4717 191.329ZM64.5549 190.554H81.0841V190.178H64.5549V190.554V190.554Z" fill="url(#paint84_linear_27_1622)"/>
<path d="M82.4438 210.021H63.101V211.172H82.4438V210.021Z" fill="#3C479E"/>
<path d="M82.4473 211.56H63.1006C62.8874 211.56 62.713 211.385 62.713 211.172V210.021C62.713 209.807 62.8874 209.633 63.1006 209.633H82.4434C82.6566 209.633 82.831 209.807 82.831 210.021V211.172C82.831 211.385 82.6566 211.56 82.4434 211.56H82.4473ZM63.492 210.784H82.0598V210.408H63.4881V210.784H63.492Z" fill="url(#paint85_linear_27_1622)"/>
<path d="M83.0822 210.998H62.5496V212.15H83.0822V210.998Z" fill="#3C479E"/>
<path d="M83.0829 212.537H62.5503C62.3371 212.537 62.1627 212.363 62.1627 212.15V210.998C62.1627 210.785 62.3371 210.61 62.5503 210.61H83.0829C83.2961 210.61 83.4705 210.785 83.4705 210.998V212.15C83.4705 212.363 83.2961 212.537 83.0829 212.537ZM62.9378 211.762H82.6954V211.386H62.9378V211.762V211.762Z" fill="url(#paint86_linear_27_1622)"/>
<path d="M90.7113 211.963H54.9283V213.766H90.7113V211.963Z" fill="#3C479E"/>
<path d="M90.7116 214.153H54.9248C54.7116 214.153 54.5372 213.979 54.5372 213.766V211.963C54.5372 211.75 54.7116 211.575 54.9248 211.575H90.7116C90.9248 211.575 91.0992 211.75 91.0992 211.963V213.766C91.0992 213.979 90.9248 214.153 90.7116 214.153ZM55.3162 213.378H90.3241V212.351H55.3123V213.378H55.3162Z" fill="url(#paint87_linear_27_1622)"/>
<path d="M85.6535 179.307H60.0361V180.66H85.6535V179.307Z" fill="#3C479E"/>
<path d="M85.6494 181.044H60.0359C59.8227 181.044 59.6483 180.869 59.6483 180.656V179.303C59.6483 179.09 59.8227 178.915 60.0359 178.915H85.6494C85.8625 178.915 86.0369 179.09 86.0369 179.303V180.656C86.0369 180.869 85.8625 181.044 85.6494 181.044ZM60.4195 180.268H85.2618V179.69H60.4234V180.268H60.4195Z" fill="url(#paint88_linear_27_1622)"/>
<path d="M83.7197 167.403H61.4779V168.555H83.7197V167.403Z" fill="#3C479E"/>
<path d="M83.7194 168.943H61.4776C61.2645 168.943 61.0901 168.768 61.0901 168.555V167.403C61.0901 167.19 61.2645 167.016 61.4776 167.016H83.7194C83.9326 167.016 84.107 167.19 84.107 167.403V168.555C84.107 168.768 83.9326 168.943 83.7194 168.943ZM61.8652 168.167H83.3319V167.791H61.8652V168.167Z" fill="url(#paint89_linear_27_1622)"/>
<path d="M61.4761 168.555L66.4639 171.482H79.2222C79.2222 171.482 83.9155 168.555 83.7179 168.555H61.4761Z" fill="#3C479E"/>
<path d="M79.2223 171.87H66.4601C66.3903 171.87 66.3245 171.85 66.2625 171.815L61.2746 168.892C61.1235 168.803 61.0498 168.625 61.0963 168.458C61.1429 168.287 61.294 168.171 61.4684 168.171H83.7102C83.8846 168.171 84.0396 168.287 84.09 168.454C84.1946 168.818 84.1985 168.834 79.4199 171.812C79.3579 171.85 79.2882 171.87 79.2145 171.87H79.2223ZM66.5686 171.094H79.1099C80.1447 170.447 81.567 169.551 82.4971 168.946H62.9024L66.5686 171.094V171.094Z" fill="url(#paint90_linear_27_1622)"/>
<path d="M61.4778 167.45L67.636 165.321H77.3172L83.7196 167.45H61.4778Z" fill="#3C479E"/>
<path d="M83.7187 167.838H61.477C61.2871 167.838 61.1243 167.702 61.0933 167.516C61.0623 167.33 61.1708 167.147 61.3491 167.085L67.5073 164.957C67.5461 164.941 67.5926 164.938 67.6352 164.938H77.3163C77.359 164.938 77.3977 164.945 77.4365 164.957L83.8389 167.085C84.021 167.147 84.1296 167.326 84.0985 167.516C84.0675 167.702 83.9048 167.841 83.7149 167.841L83.7187 167.838ZM63.7868 167.062H81.3237L77.2543 165.709H67.7011L63.7868 167.062V167.062Z" fill="url(#paint91_linear_27_1622)"/>
<path d="M65.9726 176.867L59.9344 179.283H85.796L79.661 176.867H65.9726Z" fill="#3C479E"/>
<path d="M85.7958 179.67H59.9343C59.7483 179.67 59.5894 179.539 59.5545 179.356C59.5196 179.174 59.6204 178.992 59.7909 178.922L65.829 176.507C65.8755 176.487 65.922 176.479 65.9724 176.479H79.6608C79.7112 176.479 79.7577 176.487 79.8042 176.507L85.9392 178.922C86.1136 178.992 86.2144 179.174 86.1795 179.356C86.1446 179.539 85.9857 179.67 85.7997 179.67H85.7958ZM61.9496 178.895H83.7534L79.5872 177.255H66.0499L61.9496 178.895Z" fill="url(#paint92_linear_27_1622)"/>
<path d="M64.166 190.941L57.6395 193.776H87.8998L81.354 190.941H64.166Z" fill="#3C479E"/>
<path d="M87.9007 194.163H57.6404C57.4582 194.163 57.2993 194.035 57.2606 193.853C57.2218 193.675 57.3187 193.493 57.4854 193.419L64.0118 190.581C64.0622 190.561 64.1126 190.55 64.1668 190.55H81.3549C81.4091 190.55 81.4595 190.561 81.5099 190.581L88.0557 193.419C88.2224 193.493 88.3192 193.675 88.2805 193.853C88.2417 194.031 88.0867 194.163 87.9007 194.163ZM59.5045 193.388H86.0288L81.2735 191.325H64.2443L59.5007 193.388H59.5045Z" fill="url(#paint93_linear_27_1622)"/>
<path d="M60.0359 180.655L65.1671 183.761H80.3942L85.6494 180.655H60.0359Z" fill="#3C479E"/>
<path d="M80.3938 184.149H65.1668C65.097 184.149 65.0272 184.129 64.9652 184.094L59.834 180.993C59.6867 180.903 59.6131 180.725 59.6596 180.558C59.7061 180.392 59.8573 180.275 60.0317 180.275H85.6491C85.8235 180.275 85.9785 180.392 86.0211 180.562C86.0676 180.733 85.994 180.911 85.8428 180.997L80.5876 184.098C80.5294 184.133 80.4597 184.153 80.3899 184.153L80.3938 184.149ZM65.2753 183.373H80.2892L84.2306 181.047H61.4269L65.2753 183.373V183.373Z" fill="url(#paint94_linear_27_1622)"/>
<path d="M80.5175 176.271H65.2633V177.201H80.5175V176.271Z" fill="#3C479E"/>
<path d="M80.5175 177.589H65.2633C65.0501 177.589 64.8757 177.414 64.8757 177.201V176.271C64.8757 176.057 65.0501 175.883 65.2633 175.883H80.5175C80.7306 175.883 80.905 176.057 80.905 176.271V177.201C80.905 177.414 80.7306 177.589 80.5175 177.589ZM65.6508 176.813H80.1299V176.658H65.6508V176.813Z" fill="url(#paint95_linear_27_1622)"/>
<path d="M57.6395 195.105L63.7745 197.788H81.7377L87.8998 195.105H57.6395Z" fill="#3C479E"/>
<path d="M81.7386 198.176H63.7754C63.7211 198.176 63.6707 198.165 63.6204 198.145L57.4854 195.462C57.3187 195.389 57.2218 195.206 57.2606 195.028C57.2993 194.85 57.4582 194.718 57.6404 194.718H87.9007C88.0828 194.718 88.2417 194.846 88.2805 195.028C88.3192 195.206 88.2224 195.389 88.0557 195.462L81.8975 198.145C81.8471 198.165 81.7967 198.176 81.7424 198.176H81.7386ZM63.8529 197.401H81.6572L86.0365 195.493H59.4929L63.8529 197.401V197.401Z" fill="url(#paint96_linear_27_1622)"/>
<path d="M87.8998 193.756H57.6395V195.109H87.8998V193.756Z" fill="#3C479E"/>
<path d="M87.8999 195.493H57.6396C57.4265 195.493 57.2521 195.318 57.2521 195.105V193.752C57.2521 193.539 57.4265 193.364 57.6396 193.364H87.8999C88.1131 193.364 88.2875 193.539 88.2875 193.752V195.105C88.2875 195.318 88.1131 195.493 87.8999 195.493ZM58.0272 194.717H87.5124V194.14H58.0272V194.717V194.717Z" fill="url(#paint97_linear_27_1622)"/>
<path d="M74.2363 138.709C74.2363 137.635 73.5503 136.747 72.6473 136.572V130.749H72.0117V136.572C71.1087 136.743 70.4227 137.635 70.4227 138.709C70.4227 139.403 70.7095 140.019 71.1552 140.415V160.553H73.4999V140.415C73.9456 140.019 74.2324 139.403 74.2324 138.709H74.2363Z" fill="#3C479E"/>
<path d="M73.5032 160.94H71.1585C70.9453 160.94 70.7709 160.766 70.7709 160.553V140.578C70.302 140.093 70.0385 139.422 70.0385 138.705C70.0385 137.581 70.6895 136.611 71.6274 136.274V130.749C71.6274 130.536 71.8018 130.361 72.015 130.361H72.6506C72.8637 130.361 73.0381 130.536 73.0381 130.749V136.278C73.976 136.611 74.6271 137.584 74.6271 138.709C74.6271 139.426 74.3636 140.097 73.8946 140.581V160.556C73.8946 160.77 73.7202 160.944 73.5071 160.944L73.5032 160.94ZM71.546 160.165H73.1156V140.415C73.1156 140.302 73.1621 140.198 73.2474 140.124C73.6311 139.783 73.852 139.267 73.852 138.709C73.852 137.833 73.3172 137.096 72.5769 136.956C72.4762 136.937 72.387 136.879 72.3328 136.797C72.2785 136.879 72.1894 136.937 72.0886 136.956C71.3523 137.096 70.8136 137.836 70.8136 138.709C70.8136 139.267 71.0345 139.783 71.4181 140.124C71.4995 140.198 71.546 140.302 71.546 140.415V160.165Z" fill="url(#paint98_linear_27_1622)"/>
<path d="M75.453 143.904H69.5002C69.1203 143.904 68.8103 143.594 68.8103 143.214C68.8103 142.834 69.1203 142.523 69.5002 142.523H75.453C75.8328 142.523 76.1428 142.834 76.1428 143.214C76.1428 143.594 75.8328 143.904 75.453 143.904Z" fill="#3C479E"/>
<path d="M75.4519 144.291H69.499C68.9061 144.291 68.4216 143.807 68.4216 143.214C68.4216 142.62 68.9061 142.136 69.499 142.136H75.4519C76.0448 142.136 76.5293 142.62 76.5293 143.214C76.5293 143.807 76.0448 144.291 75.4519 144.291ZM69.499 142.911C69.3324 142.911 69.1967 143.047 69.1967 143.214C69.1967 143.38 69.3324 143.516 69.499 143.516H75.4519C75.6185 143.516 75.7542 143.38 75.7542 143.214C75.7542 143.047 75.6185 142.911 75.4519 142.911H69.499Z" fill="url(#paint99_linear_27_1622)"/>
<path d="M69.8171 146.013H74.8514C74.8514 146.013 75.2428 144.939 74.2158 144.784H71.0883C71.0883 144.784 69.3288 144.707 69.8171 146.013V146.013Z" fill="#3C479E"/>
<path d="M74.8512 146.401H69.8168C69.6541 146.401 69.5107 146.301 69.4525 146.149C69.2355 145.572 69.3789 145.196 69.5378 144.975C69.9796 144.366 70.9911 144.389 71.1035 144.397H74.2156C74.2156 144.397 74.2543 144.397 74.2737 144.397C74.7814 144.474 75.0294 144.73 75.1535 144.936C75.4558 145.448 75.2426 146.072 75.2193 146.142C75.1651 146.293 75.0178 146.398 74.855 146.398L74.8512 146.401ZM70.1191 145.626H74.5373C74.545 145.525 74.5373 145.417 74.4869 145.335C74.4675 145.304 74.4132 145.215 74.1885 145.172H71.0919C70.7935 145.161 70.309 145.234 70.1695 145.432C70.1346 145.479 70.1191 145.545 70.123 145.626H70.1191Z" fill="url(#paint100_linear_27_1622)"/>
<path d="M69.8171 148.356H74.8514C74.8514 148.356 75.2428 147.282 74.2158 147.127H71.0883C71.0883 147.127 69.3288 147.049 69.8171 148.356V148.356Z" fill="#3C479E"/>
<path d="M74.8512 148.743H69.8168C69.6541 148.743 69.5107 148.642 69.4525 148.491C69.2355 147.913 69.3789 147.537 69.5378 147.32C69.9796 146.711 70.9911 146.739 71.1035 146.742H74.2156C74.2156 146.742 74.2543 146.742 74.2737 146.742C74.7814 146.82 75.0294 147.076 75.1535 147.281C75.4558 147.793 75.2426 148.417 75.2193 148.487C75.1651 148.638 75.0178 148.743 74.855 148.743H74.8512ZM70.1191 147.968H74.5373C74.545 147.867 74.5373 147.758 74.4869 147.677C74.4675 147.646 74.4132 147.557 74.1885 147.514H71.0919C70.7935 147.502 70.309 147.576 70.1695 147.774C70.1346 147.82 70.1191 147.886 70.123 147.968H70.1191Z" fill="url(#paint101_linear_27_1622)"/>
<path d="M69.5394 150.694H75.1319C75.1319 150.694 75.5659 149.62 74.4265 149.465H70.9501C70.9501 149.465 68.9969 149.387 69.5394 150.694Z" fill="#3C479E"/>
<path d="M75.131 151.081H69.5385C69.3835 151.081 69.2401 150.988 69.182 150.841C68.9533 150.286 69.0812 149.914 69.2324 149.697C69.6858 149.045 70.8368 149.069 70.9647 149.077H74.4256C74.4256 149.077 74.4605 149.077 74.476 149.077C75.0496 149.154 75.3209 149.429 75.4487 149.65C75.7472 150.162 75.5185 150.767 75.4914 150.833C75.4332 150.98 75.2899 151.073 75.131 151.073V151.081ZM69.8331 150.306H74.8248C74.8325 150.213 74.8248 150.116 74.7783 150.042C74.7201 149.945 74.5923 149.883 74.3985 149.852H70.9531C70.5966 149.84 70.023 149.922 69.8718 150.139C69.8447 150.181 69.8292 150.236 69.837 150.302L69.8331 150.306Z" fill="url(#paint102_linear_27_1622)"/>
<path d="M69.5394 153.57H75.1319C75.1319 153.57 75.5659 152.496 74.4265 152.341H70.9501C70.9501 152.341 68.9969 152.263 69.5394 153.57Z" fill="#3C479E"/>
<path d="M75.131 153.958H69.5385C69.3835 153.958 69.2401 153.865 69.182 153.717C68.9533 153.163 69.0812 152.791 69.2324 152.574C69.6858 151.922 70.8368 151.949 70.9647 151.953H74.4256C74.4256 151.953 74.4605 151.953 74.476 151.953C75.0496 152.031 75.3209 152.31 75.4487 152.527C75.7472 153.039 75.5185 153.644 75.4914 153.71C75.4332 153.857 75.2899 153.95 75.131 153.95V153.958ZM69.8331 153.182H74.8248C74.8325 153.089 74.8248 152.992 74.7783 152.919C74.7201 152.822 74.5923 152.76 74.3985 152.729H70.9531C70.5966 152.717 70.023 152.799 69.8718 153.016C69.8447 153.058 69.8292 153.113 69.837 153.179L69.8331 153.182Z" fill="url(#paint103_linear_27_1622)"/>
<path d="M69.5394 156.446H75.1319C75.1319 156.446 75.5659 155.372 74.4265 155.217H70.9501C70.9501 155.217 68.9969 155.139 69.5394 156.446Z" fill="#3C479E"/>
<path d="M75.131 156.834H69.5385C69.3835 156.834 69.2401 156.741 69.182 156.594C68.9533 156.039 69.0812 155.667 69.2324 155.45C69.6858 154.798 70.8368 154.822 70.9647 154.829H74.4256C74.4256 154.829 74.4605 154.829 74.476 154.829C75.0496 154.907 75.3209 155.182 75.4487 155.403C75.7472 155.915 75.5185 156.52 75.4914 156.586C75.4332 156.733 75.2899 156.826 75.131 156.826V156.834ZM69.8331 156.058H74.8248C74.8325 155.965 74.8248 155.869 74.7783 155.795C74.7201 155.698 74.5923 155.636 74.3985 155.605H70.9492C70.5927 155.593 70.0191 155.675 69.868 155.892C69.8408 155.934 69.8253 155.989 69.8331 156.055V156.058Z" fill="url(#paint104_linear_27_1622)"/>
<path d="M74.1203 160.668H70.8299C70.0819 160.668 69.4696 160.055 69.4696 159.307C69.4696 158.559 70.0819 157.946 70.8299 157.946H74.1203C74.8682 157.946 75.4806 158.559 75.4806 159.307C75.4806 160.055 74.8682 160.668 74.1203 160.668Z" fill="#3C479E"/>
<path d="M74.1201 161.053H70.8298C69.8648 161.053 69.0819 160.27 69.0819 159.304C69.0819 158.339 69.8648 157.556 70.8298 157.556H74.1201C75.0851 157.556 75.868 158.339 75.868 159.304C75.868 160.27 75.0851 161.053 74.1201 161.053ZM70.8298 158.331C70.295 158.331 69.857 158.769 69.857 159.304C69.857 159.839 70.295 160.277 70.8298 160.277H74.1201C74.6588 160.277 75.0929 159.839 75.0929 159.304C75.0929 158.769 74.6549 158.331 74.1201 158.331H70.8298Z" fill="url(#paint105_linear_27_1622)"/>
<path d="M77.3175 160.091H67.6364V161.242H77.3175V160.091Z" fill="#3C479E"/>
<path d="M77.3173 161.63H67.6362C67.4231 161.63 67.2487 161.456 67.2487 161.242V160.091C67.2487 159.878 67.4231 159.703 67.6362 159.703H77.3173C77.5305 159.703 77.7049 159.878 77.7049 160.091V161.242C77.7049 161.456 77.5305 161.63 77.3173 161.63ZM68.0238 160.855H76.9298V160.479H68.0238V160.855Z" fill="url(#paint106_linear_27_1622)"/>
</g>
</g>
<g clip-path="url(#clip5_27_1622)">
<g clip-path="url(#clip6_27_1622)">
<path d="M188.277 98.9584V104.502C188.277 107.26 190.202 109.504 192.569 109.504H206.623C205.518 108.233 204.837 106.505 204.837 104.603V100.55H202.821C200.251 100.55 198.163 98.4634 198.163 95.9016V87.999H199.895V95.9016C199.895 97.5139 201.208 98.8223 202.821 98.8223H204.837V91.5595H207V104.603C207 107.307 208.885 109.504 211.202 109.504H220.825V111.663H192.569C189.007 111.663 186.113 108.45 186.113 104.499V98.9555H188.277V98.9584Z" fill="#3C479E"/>
<path d="M192.569 111.955H221.115V109.217H211.203C209.045 109.217 207.29 107.147 207.29 104.605V91.2724H204.547V98.5352H202.821C201.368 98.5352 200.185 97.3542 200.185 95.9039V87.7119H197.873V95.9039C197.873 98.6279 200.095 100.842 202.821 100.842H204.547V104.605C204.547 106.299 205.066 107.911 206.023 109.217H192.572C190.365 109.217 188.57 107.104 188.57 104.504V98.6713H185.826V104.504C185.826 108.615 188.854 111.958 192.572 111.958L192.569 111.955ZM220.535 111.376H192.569C189.17 111.376 186.403 108.293 186.403 104.501V99.2473H187.987V104.501C187.987 107.419 190.043 109.793 192.569 109.793H207.258L206.841 109.312C205.733 108.041 205.124 106.368 205.124 104.603V100.26H202.818C200.408 100.26 198.451 98.3037 198.451 95.901V88.288H199.602V95.901C199.602 97.6726 201.046 99.1113 202.818 99.1113H205.124V91.8485H206.707V104.603C206.707 107.465 208.723 109.793 211.2 109.793H220.535V111.373V111.376Z" fill="url(#paint107_linear_27_1622)"/>
<path d="M214.378 92.5723H197.47C197.47 92.5723 186.864 93.2323 187.232 87.7352C187.519 83.4308 193.175 84.1776 193.175 84.1776C193.175 84.1776 192.351 81.3205 195.759 80.0469C199.117 78.7935 200.489 81.7113 200.489 81.7113C202.223 79.2508 203.986 77.3432 208.348 77.8816C213.429 78.5069 213.832 83.3555 213.832 83.3555C213.832 83.3555 217.231 83.3034 218.354 86.3052C219.476 89.307 217.356 92.5694 214.375 92.5694L214.378 92.5723Z" fill="#3C479E"/>
<path d="M196.385 92.8878C197.012 92.8878 197.421 92.8646 197.488 92.8588H214.378C215.834 92.8588 217.168 92.138 218.044 90.8788C218.992 89.5125 219.213 87.767 218.627 86.2039C217.632 83.5436 214.935 83.1384 214.088 83.0747C213.911 82.0355 212.954 78.1537 208.383 77.5921C204.053 77.0595 202.192 78.86 200.507 81.1874C199.953 80.3826 198.421 78.7442 195.658 79.7776C192.821 80.8371 192.728 82.9676 192.827 83.8563C191.939 83.7984 189.73 83.7984 188.274 84.9881C187.47 85.6452 187.021 86.5657 186.945 87.7178C186.87 88.8554 187.23 89.8281 188.013 90.6154C190.028 92.6359 194.35 92.8907 196.391 92.8907L196.385 92.8878ZM213.853 83.645C214.123 83.645 217.072 83.7086 218.082 86.4065C218.598 87.7902 218.406 89.3389 217.565 90.5488C216.8 91.6488 215.637 92.2799 214.375 92.2799H197.467C197.383 92.2857 190.866 92.6591 188.416 90.2015C187.746 89.5299 187.453 88.7281 187.517 87.7526C187.583 86.7684 187.958 85.9868 188.633 85.4339C190.257 84.1023 193.105 84.4555 193.131 84.4613L193.569 84.5192L193.448 84.0936C193.419 83.9894 192.749 81.4768 195.855 80.316C198.911 79.1726 200.167 81.7258 200.219 81.8329L200.431 82.2816L200.718 81.8763C202.432 79.4563 204.077 77.6442 208.314 78.1682C213.093 78.7558 213.528 83.1905 213.546 83.3786L213.569 83.6479H213.839C213.839 83.6479 213.847 83.645 213.853 83.645V83.645Z" fill="url(#paint108_linear_27_1622)"/>
<path d="M209.72 139.823H220.825V137.663H209.72C205.982 137.663 202.94 134.627 202.94 130.896V121.042H200.776V130.896C200.776 135.819 204.79 139.823 209.72 139.823V139.823Z" fill="#3C479E"/>
<path d="M209.721 140.112H221.115V137.373H209.721C206.142 137.373 203.23 134.467 203.23 130.895V120.752H200.486V130.895C200.486 135.978 204.628 140.112 209.721 140.112V140.112ZM220.535 139.533H209.721C204.95 139.533 201.066 135.657 201.066 130.895V121.331H202.65V130.895C202.65 134.786 205.823 137.952 209.721 137.952H220.535V139.533Z" fill="url(#paint109_linear_27_1622)"/>
<path d="M189.28 126.607H212.157C212.87 126.607 213.578 126.431 214.198 126.08C215.921 125.105 218.926 122.659 217.908 117.828C216.542 111.349 209.721 112.281 209.721 112.281C209.445 112.281 208.868 106.153 202.041 106.075C194.982 105.994 194.454 111.459 194.454 111.459C194.454 111.459 191.89 110.663 190.295 112.736C188.813 114.658 189.701 116.296 189.701 116.296C189.701 116.296 184.228 116.583 184.228 121.284C184.228 125.635 187.407 126.607 189.28 126.607V126.607Z" fill="#3C479E"/>
<path d="M189.28 126.897H212.157C212.934 126.897 213.688 126.7 214.34 126.333C216.228 125.265 219.236 122.729 218.192 117.77C216.922 111.746 211.055 111.888 209.886 111.978C209.863 111.908 209.834 111.822 209.807 111.741C209.346 110.285 207.94 105.859 202.047 105.789C201.994 105.789 201.942 105.789 201.89 105.789C195.791 105.789 194.477 109.917 194.222 111.115C193.445 110.971 191.423 110.806 190.066 112.566C188.906 114.074 189.094 115.42 189.292 116.057C187.995 116.236 183.938 117.136 183.938 121.29C183.938 125.444 186.815 126.903 189.28 126.903V126.897ZM210.663 112.516C212.51 112.516 216.608 113.075 217.621 117.886C218.589 122.486 215.802 124.836 214.05 125.826C213.485 126.148 212.829 126.315 212.154 126.315H189.28C188.485 126.315 184.518 126.072 184.518 121.282C184.518 116.908 189.503 116.595 189.715 116.583C189.814 116.578 189.904 116.523 189.953 116.436C190.002 116.349 190.002 116.245 189.953 116.158C189.921 116.097 189.181 114.653 190.521 112.913C191.971 111.031 194.268 111.706 194.364 111.738C194.448 111.764 194.538 111.749 194.611 111.703C194.683 111.654 194.73 111.576 194.738 111.492C194.759 111.28 195.33 106.293 202.035 106.368C207.511 106.432 208.819 110.56 209.251 111.914C209.396 112.366 209.459 112.574 209.718 112.574C209.729 112.574 209.744 112.574 209.755 112.574C209.813 112.566 210.153 112.525 210.66 112.525L210.663 112.516Z" fill="url(#paint110_linear_27_1622)"/>
<path d="M190.991 102.791C193.396 102.791 194.834 100.064 193.416 98.1247C193.396 98.0987 193.378 98.0726 193.358 98.0466C191.348 95.4008 188.239 96.77 188.239 96.77C188.239 96.77 187.415 93.3021 182.207 93.4845C176.995 93.6669 175.623 96.9523 175.623 96.9523C175.623 96.9523 171.618 95.9103 170.522 98.6515C170.11 99.6792 170.249 100.519 170.583 101.167C171.114 102.192 172.219 102.794 173.376 102.794H190.991V102.791Z" fill="#3C479E"/>
<path d="M173.372 103.08H190.988C192.224 103.08 193.343 102.394 193.906 101.288C194.465 100.188 194.37 98.9434 193.648 97.9534L193.584 97.8695C191.829 95.5624 189.271 96.1211 188.41 96.3961C188.053 95.5161 186.649 93.0353 182.189 93.1916C177.581 93.3537 175.875 95.849 175.458 96.619C174.55 96.4424 171.264 95.9995 170.246 98.5411C169.855 99.5166 169.881 100.446 170.319 101.297C170.878 102.379 172.076 103.08 173.37 103.08H173.372ZM190.092 96.6971C191.04 96.6971 192.203 97.0069 193.126 98.2197L193.181 98.295C193.772 99.1026 193.851 100.124 193.389 101.025C192.925 101.934 192.006 102.501 190.988 102.501H173.372C172.294 102.501 171.299 101.925 170.838 101.031C170.478 100.336 170.461 99.5687 170.788 98.7553C171.777 96.2803 175.51 97.2182 175.548 97.2298L175.791 97.2934L175.887 97.0619C175.942 96.9345 177.267 93.9443 182.212 93.7735C187.111 93.594 187.923 96.7058 187.955 96.8361L188.036 97.1719L188.352 97.0358C188.41 97.0098 189.144 96.7 190.092 96.7V96.6971Z" fill="url(#paint111_linear_27_1622)"/>
<path d="M210.634 90.9714C210.712 90.9714 210.791 90.9395 210.849 90.8759L212.812 88.7135C212.919 88.5948 212.911 88.4125 212.792 88.3054C212.673 88.1983 212.49 88.2069 212.383 88.3256L210.42 90.488C210.312 90.6066 210.321 90.789 210.44 90.8961C210.495 90.9453 210.565 90.9714 210.634 90.9714V90.9714Z" fill="url(#paint112_linear_27_1622)"/>
<path d="M207.957 90.3643C208.091 90.3643 208.212 90.2688 208.241 90.1327L208.94 86.7488C208.972 86.5925 208.871 86.4391 208.714 86.4072C208.558 86.3754 208.404 86.4767 208.372 86.633L207.673 90.0169C207.641 90.1732 207.743 90.3267 207.899 90.3585C207.92 90.3614 207.94 90.3643 207.957 90.3643V90.3643Z" fill="url(#paint113_linear_27_1622)"/>
<path d="M198.442 90.9714C198.512 90.9714 198.581 90.9453 198.636 90.8961C198.755 90.789 198.764 90.6066 198.657 90.488L196.693 88.3256C196.586 88.2069 196.403 88.1983 196.284 88.3054C196.165 88.4125 196.157 88.5948 196.264 88.7135L198.227 90.8759C198.285 90.9395 198.364 90.9714 198.442 90.9714Z" fill="url(#paint114_linear_27_1622)"/>
<path d="M201.119 90.3643C201.139 90.3643 201.156 90.3643 201.177 90.3585C201.333 90.3267 201.435 90.1732 201.403 90.0169L200.704 86.633C200.672 86.4767 200.518 86.3754 200.362 86.4072C200.205 86.4391 200.104 86.5925 200.136 86.7488L200.835 90.1327C200.864 90.2688 200.982 90.3643 201.119 90.3643V90.3643Z" fill="url(#paint115_linear_27_1622)"/>
<path d="M204.538 89.8927C204.698 89.8927 204.828 89.7624 204.828 89.6032V86.309C204.828 86.1498 204.698 86.0195 204.538 86.0195C204.379 86.0195 204.248 86.1498 204.248 86.309V89.6032C204.248 89.7624 204.379 89.8927 204.538 89.8927Z" fill="url(#paint116_linear_27_1622)"/>
<path d="M208.135 124.565C208.213 124.565 208.292 124.533 208.35 124.469L210.505 122.098C210.612 121.98 210.603 121.797 210.484 121.69C210.365 121.583 210.183 121.592 210.075 121.71L207.921 124.081C207.813 124.2 207.822 124.382 207.941 124.489C207.996 124.539 208.066 124.565 208.135 124.565V124.565Z" fill="url(#paint117_linear_27_1622)"/>
<path d="M205.203 123.897C205.336 123.897 205.458 123.801 205.487 123.665L206.253 119.957C206.285 119.8 206.183 119.647 206.027 119.615C205.87 119.583 205.716 119.685 205.684 119.841L204.919 123.549C204.887 123.705 204.988 123.859 205.145 123.891C205.165 123.894 205.186 123.897 205.203 123.897Z" fill="url(#paint118_linear_27_1622)"/>
<path d="M194.771 124.565C194.84 124.565 194.91 124.539 194.965 124.489C195.084 124.382 195.093 124.2 194.985 124.081L192.833 121.71C192.726 121.592 192.543 121.583 192.425 121.69C192.306 121.797 192.297 121.98 192.404 122.098L194.556 124.469C194.614 124.533 194.692 124.565 194.771 124.565V124.565Z" fill="url(#paint119_linear_27_1622)"/>
<path d="M197.703 123.897C197.723 123.897 197.741 123.896 197.761 123.891C197.918 123.859 198.019 123.705 197.987 123.549L197.222 119.841C197.19 119.685 197.036 119.583 196.879 119.615C196.723 119.647 196.621 119.8 196.653 119.957L197.419 123.665C197.448 123.801 197.567 123.897 197.703 123.897Z" fill="url(#paint120_linear_27_1622)"/>
<path d="M201.452 123.378C201.612 123.378 201.742 123.248 201.742 123.089V119.476C201.742 119.317 201.612 119.187 201.452 119.187C201.293 119.187 201.162 119.317 201.162 119.476V123.089C201.162 123.248 201.293 123.378 201.452 123.378Z" fill="url(#paint121_linear_27_1622)"/>
<path d="M185.414 101.584C185.545 101.584 185.661 101.497 185.695 101.367L186.368 98.7443C186.409 98.5909 186.313 98.4317 186.159 98.3912C186.003 98.3506 185.846 98.4462 185.806 98.5996L185.133 101.222C185.092 101.376 185.188 101.535 185.342 101.575C185.365 101.581 185.391 101.584 185.414 101.584Z" fill="url(#paint122_linear_27_1622)"/>
<path d="M178.828 101.584C178.851 101.584 178.877 101.584 178.9 101.576C179.057 101.535 179.15 101.379 179.109 101.222L178.436 98.5998C178.396 98.4435 178.239 98.3508 178.083 98.3913C177.926 98.4319 177.833 98.5882 177.874 98.7445L178.547 101.367C178.581 101.497 178.697 101.584 178.828 101.584Z" fill="url(#paint123_linear_27_1622)"/>
<path d="M182.12 101.216C182.279 101.216 182.41 101.086 182.41 100.927V98.3735C182.41 98.2142 182.279 98.084 182.12 98.084C181.96 98.084 181.83 98.2142 181.83 98.3735V100.927C181.83 101.086 181.96 101.216 182.12 101.216Z" fill="url(#paint124_linear_27_1622)"/>
</g>
</g>
<defs>
<linearGradient id="paint0_linear_27_1622" x1="60.8526" y1="37.2094" x2="60.8526" y2="44.5663" gradientUnits="userSpaceOnUse">
<stop stop-color="#5D71C2"/>
<stop offset="0.51" stop-color="#BD9EC9"/>
<stop offset="1" stop-color="#DDB29A"/>
</linearGradient>
<linearGradient id="paint1_linear_27_1622" x1="66.8027" y1="47.5856" x2="66.8027" y2="51.9337" gradientUnits="userSpaceOnUse">
<stop stop-color="#5D71C2"/>
<stop offset="0.51" stop-color="#BD9EC9"/>
<stop offset="1" stop-color="#DDB29A"/>
</linearGradient>
<linearGradient id="paint2_linear_27_1622" x1="45.0053" y1="88.5379" x2="45.0053" y2="104.901" gradientUnits="userSpaceOnUse">
<stop stop-color="#5D71C2"/>
<stop offset="0.51" stop-color="#BD9EC9"/>
<stop offset="1" stop-color="#DDB29A"/>
</linearGradient>
<linearGradient id="paint3_linear_27_1622" x1="27.5646" y1="87.0322" x2="27.5646" y2="88.0317" gradientUnits="userSpaceOnUse">
<stop stop-color="#5D71C2"/>
<stop offset="0.51" stop-color="#BD9EC9"/>
<stop offset="1" stop-color="#DDB29A"/>
</linearGradient>
<linearGradient id="paint4_linear_27_1622" x1="160.937" y1="18.8277" x2="160.937" y2="62.1653" gradientUnits="userSpaceOnUse">
<stop stop-color="#5D71C2"/>
<stop offset="0.51" stop-color="#BD9EC9"/>
<stop offset="1" stop-color="#DDB29A"/>
</linearGradient>
<linearGradient id="paint5_linear_27_1622" x1="93.6599" y1="7.25257" x2="93.6599" y2="8.16912" gradientUnits="userSpaceOnUse">
<stop stop-color="#5D71C2"/>
<stop offset="0.51" stop-color="#BD9EC9"/>
<stop offset="1" stop-color="#DDB29A"/>
</linearGradient>
<linearGradient id="paint6_linear_27_1622" x1="93.66" y1="1.27601" x2="93.66" y2="14.3461" gradientUnits="userSpaceOnUse">
<stop stop-color="#5D71C2"/>
<stop offset="0.51" stop-color="#BD9EC9"/>
<stop offset="1" stop-color="#DDB29A"/>
</linearGradient>
<linearGradient id="paint7_linear_27_1622" x1="93.4142" y1="4.524" x2="93.4142" y2="11.4818" gradientUnits="userSpaceOnUse">
<stop stop-color="#5D71C2"/>
<stop offset="0.51" stop-color="#BD9EC9"/>
<stop offset="1" stop-color="#DDB29A"/>
</linearGradient>
<linearGradient id="paint8_linear_27_1622" x1="93.4195" y1="4.52942" x2="93.4195" y2="11.4826" gradientUnits="userSpaceOnUse">
<stop stop-color="#5D71C2"/>
<stop offset="0.51" stop-color="#BD9EC9"/>
<stop offset="1" stop-color="#DDB29A"/>
</linearGradient>
<linearGradient id="paint9_linear_27_1622" x1="143.016" y1="152.912" x2="143.016" y2="166.16" gradientUnits="userSpaceOnUse">
<stop stop-color="#5D71C2"/>
<stop offset="0.51" stop-color="#BD9EC9"/>
<stop offset="1" stop-color="#DDB29A"/>
</linearGradient>
<linearGradient id="paint10_linear_27_1622" x1="142.91" y1="169.343" x2="142.91" y2="175.91" gradientUnits="userSpaceOnUse">
<stop stop-color="#5D71C2"/>
<stop offset="0.51" stop-color="#BD9EC9"/>
<stop offset="1" stop-color="#DDB29A"/>
</linearGradient>
<linearGradient id="paint11_linear_27_1622" x1="143.443" y1="140.7" x2="143.443" y2="144.807" gradientUnits="userSpaceOnUse">
<stop stop-color="#5D71C2"/>
<stop offset="0.51" stop-color="#BD9EC9"/>
<stop offset="1" stop-color="#DDB29A"/>
</linearGradient>
<linearGradient id="paint12_linear_27_1622" x1="143.351" y1="179.019" x2="143.351" y2="181.507" gradientUnits="userSpaceOnUse">
<stop stop-color="#5D71C2"/>
<stop offset="0.51" stop-color="#BD9EC9"/>
<stop offset="1" stop-color="#DDB29A"/>
</linearGradient>
<linearGradient id="paint13_linear_27_1622" x1="143.351" y1="181.103" x2="143.351" y2="184.51" gradientUnits="userSpaceOnUse">
<stop stop-color="#5D71C2"/>
<stop offset="0.51" stop-color="#BD9EC9"/>
<stop offset="1" stop-color="#DDB29A"/>
</linearGradient>
<linearGradient id="paint14_linear_27_1622" x1="143.36" y1="184.159" x2="143.36" y2="187.49" gradientUnits="userSpaceOnUse">
<stop stop-color="#5D71C2"/>
<stop offset="0.51" stop-color="#BD9EC9"/>
<stop offset="1" stop-color="#DDB29A"/>
</linearGradient>
<linearGradient id="paint15_linear_27_1622" x1="143.327" y1="188.649" x2="143.327" y2="207.693" gradientUnits="userSpaceOnUse">
<stop stop-color="#5D71C2"/>
<stop offset="0.51" stop-color="#BD9EC9"/>
<stop offset="1" stop-color="#DDB29A"/>
</linearGradient>
<linearGradient id="paint16_linear_27_1622" x1="150.102" y1="188.649" x2="150.102" y2="207.693" gradientUnits="userSpaceOnUse">
<stop stop-color="#5D71C2"/>
<stop offset="0.51" stop-color="#BD9EC9"/>
<stop offset="1" stop-color="#DDB29A"/>
</linearGradient>
<linearGradient id="paint17_linear_27_1622" x1="136.512" y1="188.649" x2="136.512" y2="207.693" gradientUnits="userSpaceOnUse">
<stop stop-color="#5D71C2"/>
<stop offset="0.51" stop-color="#BD9EC9"/>
<stop offset="1" stop-color="#DDB29A"/>
</linearGradient>
<linearGradient id="paint18_linear_27_1622" x1="143.447" y1="144.419" x2="143.447" y2="146.695" gradientUnits="userSpaceOnUse">
<stop stop-color="#5D71C2"/>
<stop offset="0.51" stop-color="#BD9EC9"/>
<stop offset="1" stop-color="#DDB29A"/>
</linearGradient>
<linearGradient id="paint19_linear_27_1622" x1="132.968" y1="187.186" x2="132.968" y2="190.941" gradientUnits="userSpaceOnUse">
<stop stop-color="#5D71C2"/>
<stop offset="0.51" stop-color="#BD9EC9"/>
<stop offset="1" stop-color="#DDB29A"/>
</linearGradient>
<linearGradient id="paint20_linear_27_1622" x1="153.69" y1="187.186" x2="153.69" y2="190.941" gradientUnits="userSpaceOnUse">
<stop stop-color="#5D71C2"/>
<stop offset="0.51" stop-color="#BD9EC9"/>
<stop offset="1" stop-color="#DDB29A"/>
</linearGradient>
<linearGradient id="paint21_linear_27_1622" x1="143.285" y1="208.397" x2="143.285" y2="211.704" gradientUnits="userSpaceOnUse">
<stop stop-color="#5D71C2"/>
<stop offset="0.51" stop-color="#BD9EC9"/>
<stop offset="1" stop-color="#DDB29A"/>
</linearGradient>
<linearGradient id="paint22_linear_27_1622" x1="143.224" y1="211.258" x2="143.224" y2="214.566" gradientUnits="userSpaceOnUse">
<stop stop-color="#5D71C2"/>
<stop offset="0.51" stop-color="#BD9EC9"/>
<stop offset="1" stop-color="#DDB29A"/>
</linearGradient>
<linearGradient id="paint23_linear_27_1622" x1="143.528" y1="135.006" x2="143.528" y2="138.917" gradientUnits="userSpaceOnUse">
<stop stop-color="#5D71C2"/>
<stop offset="0.51" stop-color="#BD9EC9"/>
<stop offset="1" stop-color="#DDB29A"/>
</linearGradient>
<linearGradient id="paint24_linear_27_1622" x1="143.502" y1="138.535" x2="143.502" y2="141.039" gradientUnits="userSpaceOnUse">
<stop stop-color="#5D71C2"/>
<stop offset="0.51" stop-color="#BD9EC9"/>
<stop offset="1" stop-color="#DDB29A"/>
</linearGradient>
<linearGradient id="paint25_linear_27_1622" x1="143.532" y1="137.34" x2="143.532" y2="139.092" gradientUnits="userSpaceOnUse">
<stop stop-color="#5D71C2"/>
<stop offset="0.51" stop-color="#BD9EC9"/>
<stop offset="1" stop-color="#DDB29A"/>
</linearGradient>
<linearGradient id="paint26_linear_27_1622" x1="143.537" y1="116.739" x2="143.537" y2="134.214" gradientUnits="userSpaceOnUse">
<stop stop-color="#5D71C2"/>
<stop offset="0.51" stop-color="#BD9EC9"/>
<stop offset="1" stop-color="#DDB29A"/>
</linearGradient>
<linearGradient id="paint27_linear_27_1622" x1="142.093" y1="213.012" x2="142.093" y2="233.307" gradientUnits="userSpaceOnUse">
<stop stop-color="#5D71C2"/>
<stop offset="0.51" stop-color="#BD9EC9"/>
<stop offset="1" stop-color="#DDB29A"/>
</linearGradient>
<linearGradient id="paint28_linear_27_1622" x1="134.603" y1="212.889" x2="134.603" y2="231.933" gradientUnits="userSpaceOnUse">
<stop stop-color="#5D71C2"/>
<stop offset="0.51" stop-color="#BD9EC9"/>
<stop offset="1" stop-color="#DDB29A"/>
</linearGradient>
<linearGradient id="paint29_linear_27_1622" x1="152.009" y1="212.889" x2="152.009" y2="231.933" gradientUnits="userSpaceOnUse">
<stop stop-color="#5D71C2"/>
<stop offset="0.51" stop-color="#BD9EC9"/>
<stop offset="1" stop-color="#DDB29A"/>
</linearGradient>
<linearGradient id="paint30_linear_27_1622" x1="123.578" y1="215.391" x2="123.578" y2="230.752" gradientUnits="userSpaceOnUse">
<stop stop-color="#5D71C2"/>
<stop offset="0.51" stop-color="#BD9EC9"/>
<stop offset="1" stop-color="#DDB29A"/>
</linearGradient>
<linearGradient id="paint31_linear_27_1622" x1="162.869" y1="215.391" x2="162.869" y2="230.752" gradientUnits="userSpaceOnUse">
<stop stop-color="#5D71C2"/>
<stop offset="0.51" stop-color="#BD9EC9"/>
<stop offset="1" stop-color="#DDB29A"/>
</linearGradient>
<linearGradient id="paint32_linear_27_1622" x1="169.114" y1="219.974" x2="169.114" y2="231.096" gradientUnits="userSpaceOnUse">
<stop stop-color="#5D71C2"/>
<stop offset="0.51" stop-color="#BD9EC9"/>
<stop offset="1" stop-color="#DDB29A"/>
</linearGradient>
<linearGradient id="paint33_linear_27_1622" x1="117.892" y1="217.978" x2="117.892" y2="230.946" gradientUnits="userSpaceOnUse">
<stop stop-color="#5D71C2"/>
<stop offset="0.51" stop-color="#BD9EC9"/>
<stop offset="1" stop-color="#DDB29A"/>
</linearGradient>
<linearGradient id="paint34_linear_27_1622" x1="172.498" y1="212.681" x2="172.498" y2="230.552" gradientUnits="userSpaceOnUse">
<stop stop-color="#5D71C2"/>
<stop offset="0.51" stop-color="#BD9EC9"/>
<stop offset="1" stop-color="#DDB29A"/>
</linearGradient>
<linearGradient id="paint35_linear_27_1622" x1="113.94" y1="212.676" x2="113.94" y2="230.548" gradientUnits="userSpaceOnUse">
<stop stop-color="#5D71C2"/>
<stop offset="0.51" stop-color="#BD9EC9"/>
<stop offset="1" stop-color="#DDB29A"/>
</linearGradient>
<linearGradient id="paint36_linear_27_1622" x1="104.836" y1="216.655" x2="104.836" y2="231.331" gradientUnits="userSpaceOnUse">
<stop stop-color="#5D71C2"/>
<stop offset="0.51" stop-color="#BD9EC9"/>
<stop offset="1" stop-color="#DDB29A"/>
</linearGradient>
<linearGradient id="paint37_linear_27_1622" x1="182.107" y1="216.655" x2="182.107" y2="231.331" gradientUnits="userSpaceOnUse">
<stop stop-color="#5D71C2"/>
<stop offset="0.51" stop-color="#BD9EC9"/>
<stop offset="1" stop-color="#DDB29A"/>
</linearGradient>
<linearGradient id="paint38_linear_27_1622" x1="143.307" y1="215.11" x2="143.307" y2="215.91" gradientUnits="userSpaceOnUse">
<stop stop-color="#5D71C2"/>
<stop offset="0.51" stop-color="#BD9EC9"/>
<stop offset="1" stop-color="#DDB29A"/>
</linearGradient>
<linearGradient id="paint39_linear_27_1622" x1="143.307" y1="218.967" x2="143.307" y2="219.767" gradientUnits="userSpaceOnUse">
<stop stop-color="#5D71C2"/>
<stop offset="0.51" stop-color="#BD9EC9"/>
<stop offset="1" stop-color="#DDB29A"/>
</linearGradient>
<linearGradient id="paint40_linear_27_1622" x1="143.307" y1="222.823" x2="143.307" y2="223.623" gradientUnits="userSpaceOnUse">
<stop stop-color="#5D71C2"/>
<stop offset="0.51" stop-color="#BD9EC9"/>
<stop offset="1" stop-color="#DDB29A"/>
</linearGradient>
<linearGradient id="paint41_linear_27_1622" x1="131.025" y1="161.144" x2="131.025" y2="166.586" gradientUnits="userSpaceOnUse">
<stop stop-color="#5D71C2"/>
<stop offset="0.51" stop-color="#BD9EC9"/>
<stop offset="1" stop-color="#DDB29A"/>
</linearGradient>
<linearGradient id="paint42_linear_27_1622" x1="136.933" y1="161.144" x2="136.933" y2="166.586" gradientUnits="userSpaceOnUse">
<stop stop-color="#5D71C2"/>
<stop offset="0.51" stop-color="#BD9EC9"/>
<stop offset="1" stop-color="#DDB29A"/>
</linearGradient>
<linearGradient id="paint43_linear_27_1622" x1="142.848" y1="161.144" x2="142.848" y2="166.586" gradientUnits="userSpaceOnUse">
<stop stop-color="#5D71C2"/>
<stop offset="0.51" stop-color="#BD9EC9"/>
<stop offset="1" stop-color="#DDB29A"/>
</linearGradient>
<linearGradient id="paint44_linear_27_1622" x1="148.763" y1="161.144" x2="148.763" y2="166.586" gradientUnits="userSpaceOnUse">
<stop stop-color="#5D71C2"/>
<stop offset="0.51" stop-color="#BD9EC9"/>
<stop offset="1" stop-color="#DDB29A"/>
</linearGradient>
<linearGradient id="paint45_linear_27_1622" x1="154.672" y1="161.144" x2="154.672" y2="166.586" gradientUnits="userSpaceOnUse">
<stop stop-color="#5D71C2"/>
<stop offset="0.51" stop-color="#BD9EC9"/>
<stop offset="1" stop-color="#DDB29A"/>
</linearGradient>
<linearGradient id="paint46_linear_27_1622" x1="143.047" y1="171.791" x2="143.047" y2="174.175" gradientUnits="userSpaceOnUse">
<stop stop-color="#5D71C2"/>
<stop offset="0.51" stop-color="#BD9EC9"/>
<stop offset="1" stop-color="#DDB29A"/>
</linearGradient>
<linearGradient id="paint47_linear_27_1622" x1="142.849" y1="165.927" x2="142.849" y2="169.366" gradientUnits="userSpaceOnUse">
<stop stop-color="#5D71C2"/>
<stop offset="0.51" stop-color="#BD9EC9"/>
<stop offset="1" stop-color="#DDB29A"/>
</linearGradient>
<linearGradient id="paint48_linear_27_1622" x1="142.849" y1="160.846" x2="142.849" y2="163.229" gradientUnits="userSpaceOnUse">
<stop stop-color="#5D71C2"/>
<stop offset="0.51" stop-color="#BD9EC9"/>
<stop offset="1" stop-color="#DDB29A"/>
</linearGradient>
<linearGradient id="paint49_linear_27_1622" x1="129.894" y1="173.662" x2="129.894" y2="176.081" gradientUnits="userSpaceOnUse">
<stop stop-color="#5D71C2"/>
<stop offset="0.51" stop-color="#BD9EC9"/>
<stop offset="1" stop-color="#DDB29A"/>
</linearGradient>
<linearGradient id="paint50_linear_27_1622" x1="136.415" y1="173.662" x2="136.415" y2="176.081" gradientUnits="userSpaceOnUse">
<stop stop-color="#5D71C2"/>
<stop offset="0.51" stop-color="#BD9EC9"/>
<stop offset="1" stop-color="#DDB29A"/>
</linearGradient>
<linearGradient id="paint51_linear_27_1622" x1="142.931" y1="173.662" x2="142.931" y2="176.081" gradientUnits="userSpaceOnUse">
<stop stop-color="#5D71C2"/>
<stop offset="0.51" stop-color="#BD9EC9"/>
<stop offset="1" stop-color="#DDB29A"/>
</linearGradient>
<linearGradient id="paint52_linear_27_1622" x1="149.448" y1="173.662" x2="149.448" y2="176.081" gradientUnits="userSpaceOnUse">
<stop stop-color="#5D71C2"/>
<stop offset="0.51" stop-color="#BD9EC9"/>
<stop offset="1" stop-color="#DDB29A"/>
</linearGradient>
<linearGradient id="paint53_linear_27_1622" x1="155.965" y1="173.662" x2="155.965" y2="176.081" gradientUnits="userSpaceOnUse">
<stop stop-color="#5D71C2"/>
<stop offset="0.51" stop-color="#BD9EC9"/>
<stop offset="1" stop-color="#DDB29A"/>
</linearGradient>
<linearGradient id="paint54_linear_27_1622" x1="143.179" y1="146.486" x2="143.179" y2="152.105" gradientUnits="userSpaceOnUse">
<stop stop-color="#5D71C2"/>
<stop offset="0.51" stop-color="#BD9EC9"/>
<stop offset="1" stop-color="#DDB29A"/>
</linearGradient>
<linearGradient id="paint55_linear_27_1622" x1="143.161" y1="154.286" x2="143.161" y2="158.673" gradientUnits="userSpaceOnUse">
<stop stop-color="#5D71C2"/>
<stop offset="0.51" stop-color="#BD9EC9"/>
<stop offset="1" stop-color="#DDB29A"/>
</linearGradient>
<linearGradient id="paint56_linear_27_1622" x1="143.535" y1="131.55" x2="143.535" y2="134.109" gradientUnits="userSpaceOnUse">
<stop stop-color="#5D71C2"/>
<stop offset="0.51" stop-color="#BD9EC9"/>
<stop offset="1" stop-color="#DDB29A"/>
</linearGradient>
<linearGradient id="paint57_linear_27_1622" x1="143.534" y1="128.246" x2="143.534" y2="130.525" gradientUnits="userSpaceOnUse">
<stop stop-color="#5D71C2"/>
<stop offset="0.51" stop-color="#BD9EC9"/>
<stop offset="1" stop-color="#DDB29A"/>
</linearGradient>
<linearGradient id="paint58_linear_27_1622" x1="143.534" y1="124.848" x2="143.534" y2="127.127" gradientUnits="userSpaceOnUse">
<stop stop-color="#5D71C2"/>
<stop offset="0.51" stop-color="#BD9EC9"/>
<stop offset="1" stop-color="#DDB29A"/>
</linearGradient>
<linearGradient id="paint59_linear_27_1622" x1="143.534" y1="121.448" x2="143.534" y2="123.728" gradientUnits="userSpaceOnUse">
<stop stop-color="#5D71C2"/>
<stop offset="0.51" stop-color="#BD9EC9"/>
<stop offset="1" stop-color="#DDB29A"/>
</linearGradient>
<linearGradient id="paint60_linear_27_1622" x1="143.533" y1="117.774" x2="143.533" y2="120.657" gradientUnits="userSpaceOnUse">
<stop stop-color="#5D71C2"/>
<stop offset="0.51" stop-color="#BD9EC9"/>
<stop offset="1" stop-color="#DDB29A"/>
</linearGradient>
<linearGradient id="paint61_linear_27_1622" x1="143.048" y1="175.698" x2="143.048" y2="179.417" gradientUnits="userSpaceOnUse">
<stop stop-color="#5D71C2"/>
<stop offset="0.51" stop-color="#BD9EC9"/>
<stop offset="1" stop-color="#DDB29A"/>
</linearGradient>
<linearGradient id="paint62_linear_27_1622" x1="72.4759" y1="160.643" x2="72.4759" y2="164.346" gradientUnits="userSpaceOnUse">
<stop stop-color="#5D71C2"/>
<stop offset="0.51" stop-color="#BD9EC9"/>
<stop offset="1" stop-color="#DDB29A"/>
</linearGradient>
<linearGradient id="paint63_linear_27_1622" x1="69.4675" y1="160.397" x2="69.4675" y2="164.328" gradientUnits="userSpaceOnUse">
<stop stop-color="#5D71C2"/>
<stop offset="0.51" stop-color="#BD9EC9"/>
<stop offset="1" stop-color="#DDB29A"/>
</linearGradient>
<linearGradient id="paint64_linear_27_1622" x1="75.4817" y1="160.397" x2="75.4817" y2="164.328" gradientUnits="userSpaceOnUse">
<stop stop-color="#5D71C2"/>
<stop offset="0.51" stop-color="#BD9EC9"/>
<stop offset="1" stop-color="#DDB29A"/>
</linearGradient>
<linearGradient id="paint65_linear_27_1622" x1="67.4023" y1="171.436" x2="67.4023" y2="175.853" gradientUnits="userSpaceOnUse">
<stop stop-color="#5D71C2"/>
<stop offset="0.51" stop-color="#BD9EC9"/>
<stop offset="1" stop-color="#DDB29A"/>
</linearGradient>
<linearGradient id="paint66_linear_27_1622" x1="72.768" y1="171.436" x2="72.768" y2="175.853" gradientUnits="userSpaceOnUse">
<stop stop-color="#5D71C2"/>
<stop offset="0.51" stop-color="#BD9EC9"/>
<stop offset="1" stop-color="#DDB29A"/>
</linearGradient>
<linearGradient id="paint67_linear_27_1622" x1="67.4023" y1="171.436" x2="67.4023" y2="175.853" gradientUnits="userSpaceOnUse">
<stop stop-color="#5D71C2"/>
<stop offset="0.51" stop-color="#BD9EC9"/>
<stop offset="1" stop-color="#DDB29A"/>
</linearGradient>
<linearGradient id="paint68_linear_27_1622" x1="78.1347" y1="171.436" x2="78.1347" y2="175.853" gradientUnits="userSpaceOnUse">
<stop stop-color="#5D71C2"/>
<stop offset="0.51" stop-color="#BD9EC9"/>
<stop offset="1" stop-color="#DDB29A"/>
</linearGradient>
<linearGradient id="paint69_linear_27_1622" x1="72.7315" y1="183.857" x2="72.7315" y2="188.8" gradientUnits="userSpaceOnUse">
<stop stop-color="#5D71C2"/>
<stop offset="0.51" stop-color="#BD9EC9"/>
<stop offset="1" stop-color="#DDB29A"/>
</linearGradient>
<linearGradient id="paint70_linear_27_1622" x1="66.205" y1="183.804" x2="66.205" y2="188.261" gradientUnits="userSpaceOnUse">
<stop stop-color="#5D71C2"/>
<stop offset="0.51" stop-color="#BD9EC9"/>
<stop offset="1" stop-color="#DDB29A"/>
</linearGradient>
<linearGradient id="paint71_linear_27_1622" x1="66.205" y1="183.857" x2="66.205" y2="188.8" gradientUnits="userSpaceOnUse">
<stop stop-color="#5D71C2"/>
<stop offset="0.51" stop-color="#BD9EC9"/>
<stop offset="1" stop-color="#DDB29A"/>
</linearGradient>
<linearGradient id="paint72_linear_27_1622" x1="79.258" y1="183.857" x2="79.258" y2="188.8" gradientUnits="userSpaceOnUse">
<stop stop-color="#5D71C2"/>
<stop offset="0.51" stop-color="#BD9EC9"/>
<stop offset="1" stop-color="#DDB29A"/>
</linearGradient>
<linearGradient id="paint73_linear_27_1622" x1="72.7935" y1="197.822" x2="72.7935" y2="209.646" gradientUnits="userSpaceOnUse">
<stop stop-color="#5D71C2"/>
<stop offset="0.51" stop-color="#BD9EC9"/>
<stop offset="1" stop-color="#DDB29A"/>
</linearGradient>
<linearGradient id="paint74_linear_27_1622" x1="65.1122" y1="197.822" x2="65.1122" y2="209.646" gradientUnits="userSpaceOnUse">
<stop stop-color="#5D71C2"/>
<stop offset="0.51" stop-color="#BD9EC9"/>
<stop offset="1" stop-color="#DDB29A"/>
</linearGradient>
<linearGradient id="paint75_linear_27_1622" x1="80.4136" y1="197.822" x2="80.4136" y2="209.646" gradientUnits="userSpaceOnUse">
<stop stop-color="#5D71C2"/>
<stop offset="0.51" stop-color="#BD9EC9"/>
<stop offset="1" stop-color="#DDB29A"/>
</linearGradient>
<linearGradient id="paint76_linear_27_1622" x1="72.6944" y1="214.223" x2="72.6944" y2="226.047" gradientUnits="userSpaceOnUse">
<stop stop-color="#5D71C2"/>
<stop offset="0.51" stop-color="#BD9EC9"/>
<stop offset="1" stop-color="#DDB29A"/>
</linearGradient>
<linearGradient id="paint77_linear_27_1622" x1="57.7851" y1="214.223" x2="57.7851" y2="226.047" gradientUnits="userSpaceOnUse">
<stop stop-color="#5D71C2"/>
<stop offset="0.51" stop-color="#BD9EC9"/>
<stop offset="1" stop-color="#DDB29A"/>
</linearGradient>
<linearGradient id="paint78_linear_27_1622" x1="66.0835" y1="214.223" x2="66.0835" y2="226.047" gradientUnits="userSpaceOnUse">
<stop stop-color="#5D71C2"/>
<stop offset="0.51" stop-color="#BD9EC9"/>
<stop offset="1" stop-color="#DDB29A"/>
</linearGradient>
<linearGradient id="paint79_linear_27_1622" x1="78.3189" y1="214.223" x2="78.3189" y2="226.047" gradientUnits="userSpaceOnUse">
<stop stop-color="#5D71C2"/>
<stop offset="0.51" stop-color="#BD9EC9"/>
<stop offset="1" stop-color="#DDB29A"/>
</linearGradient>
<linearGradient id="paint80_linear_27_1622" x1="87.604" y1="214.223" x2="87.604" y2="226.047" gradientUnits="userSpaceOnUse">
<stop stop-color="#5D71C2"/>
<stop offset="0.51" stop-color="#BD9EC9"/>
<stop offset="1" stop-color="#DDB29A"/>
</linearGradient>
<linearGradient id="paint81_linear_27_1622" x1="72.4768" y1="163.942" x2="72.4768" y2="165.576" gradientUnits="userSpaceOnUse">
<stop stop-color="#5D71C2"/>
<stop offset="0.51" stop-color="#BD9EC9"/>
<stop offset="1" stop-color="#DDB29A"/>
</linearGradient>
<linearGradient id="paint82_linear_27_1622" x1="72.8175" y1="175.135" x2="72.8175" y2="176.77" gradientUnits="userSpaceOnUse">
<stop stop-color="#5D71C2"/>
<stop offset="0.51" stop-color="#BD9EC9"/>
<stop offset="1" stop-color="#DDB29A"/>
</linearGradient>
<linearGradient id="paint83_linear_27_1622" x1="72.781" y1="188.585" x2="72.781" y2="190.22" gradientUnits="userSpaceOnUse">
<stop stop-color="#5D71C2"/>
<stop offset="0.51" stop-color="#BD9EC9"/>
<stop offset="1" stop-color="#DDB29A"/>
</linearGradient>
<linearGradient id="paint84_linear_27_1622" x1="72.8195" y1="189.562" x2="72.8195" y2="191.197" gradientUnits="userSpaceOnUse">
<stop stop-color="#5D71C2"/>
<stop offset="0.51" stop-color="#BD9EC9"/>
<stop offset="1" stop-color="#DDB29A"/>
</linearGradient>
<linearGradient id="paint85_linear_27_1622" x1="72.772" y1="209.792" x2="72.772" y2="211.427" gradientUnits="userSpaceOnUse">
<stop stop-color="#5D71C2"/>
<stop offset="0.51" stop-color="#BD9EC9"/>
<stop offset="1" stop-color="#DDB29A"/>
</linearGradient>
<linearGradient id="paint86_linear_27_1622" x1="72.8166" y1="210.77" x2="72.8166" y2="212.405" gradientUnits="userSpaceOnUse">
<stop stop-color="#5D71C2"/>
<stop offset="0.51" stop-color="#BD9EC9"/>
<stop offset="1" stop-color="#DDB29A"/>
</linearGradient>
<linearGradient id="paint87_linear_27_1622" x1="72.8182" y1="211.789" x2="72.8182" y2="213.976" gradientUnits="userSpaceOnUse">
<stop stop-color="#5D71C2"/>
<stop offset="0.51" stop-color="#BD9EC9"/>
<stop offset="1" stop-color="#DDB29A"/>
</linearGradient>
<linearGradient id="paint88_linear_27_1622" x1="72.8426" y1="179.091" x2="72.8426" y2="180.897" gradientUnits="userSpaceOnUse">
<stop stop-color="#5D71C2"/>
<stop offset="0.51" stop-color="#BD9EC9"/>
<stop offset="1" stop-color="#DDB29A"/>
</linearGradient>
<linearGradient id="paint89_linear_27_1622" x1="72.5985" y1="167.175" x2="72.5985" y2="168.81" gradientUnits="userSpaceOnUse">
<stop stop-color="#5D71C2"/>
<stop offset="0.51" stop-color="#BD9EC9"/>
<stop offset="1" stop-color="#DDB29A"/>
</linearGradient>
<linearGradient id="paint90_linear_27_1622" x1="72.599" y1="168.477" x2="72.599" y2="171.615" gradientUnits="userSpaceOnUse">
<stop stop-color="#5D71C2"/>
<stop offset="0.51" stop-color="#BD9EC9"/>
<stop offset="1" stop-color="#DDB29A"/>
</linearGradient>
<linearGradient id="paint91_linear_27_1622" x1="72.5959" y1="165.178" x2="72.5959" y2="167.641" gradientUnits="userSpaceOnUse">
<stop stop-color="#5D71C2"/>
<stop offset="0.51" stop-color="#BD9EC9"/>
<stop offset="1" stop-color="#DDB29A"/>
</linearGradient>
<linearGradient id="paint92_linear_27_1622" x1="72.867" y1="176.744" x2="72.867" y2="179.451" gradientUnits="userSpaceOnUse">
<stop stop-color="#5D71C2"/>
<stop offset="0.51" stop-color="#BD9EC9"/>
<stop offset="1" stop-color="#DDB29A"/>
</linearGradient>
<linearGradient id="paint93_linear_27_1622" x1="72.7705" y1="190.849" x2="72.7705" y2="193.914" gradientUnits="userSpaceOnUse">
<stop stop-color="#5D71C2"/>
<stop offset="0.51" stop-color="#BD9EC9"/>
<stop offset="1" stop-color="#DDB29A"/>
</linearGradient>
<linearGradient id="paint94_linear_27_1622" x1="72.8403" y1="180.596" x2="72.8403" y2="183.885" gradientUnits="userSpaceOnUse">
<stop stop-color="#5D71C2"/>
<stop offset="0.51" stop-color="#BD9EC9"/>
<stop offset="1" stop-color="#DDB29A"/>
</linearGradient>
<linearGradient id="paint95_linear_27_1622" x1="72.8904" y1="176.024" x2="72.8904" y2="177.471" gradientUnits="userSpaceOnUse">
<stop stop-color="#5D71C2"/>
<stop offset="0.51" stop-color="#BD9EC9"/>
<stop offset="1" stop-color="#DDB29A"/>
</linearGradient>
<linearGradient id="paint96_linear_27_1622" x1="72.7705" y1="195.004" x2="72.7705" y2="197.938" gradientUnits="userSpaceOnUse">
<stop stop-color="#5D71C2"/>
<stop offset="0.51" stop-color="#BD9EC9"/>
<stop offset="1" stop-color="#DDB29A"/>
</linearGradient>
<linearGradient id="paint97_linear_27_1622" x1="72.7698" y1="193.541" x2="72.7698" y2="195.346" gradientUnits="userSpaceOnUse">
<stop stop-color="#5D71C2"/>
<stop offset="0.51" stop-color="#BD9EC9"/>
<stop offset="1" stop-color="#DDB29A"/>
</linearGradient>
<linearGradient id="paint98_linear_27_1622" x1="72.3328" y1="132.894" x2="72.3328" y2="158.838" gradientUnits="userSpaceOnUse">
<stop stop-color="#5D71C2"/>
<stop offset="0.51" stop-color="#BD9EC9"/>
<stop offset="1" stop-color="#DDB29A"/>
</linearGradient>
<linearGradient id="paint99_linear_27_1622" x1="72.4755" y1="142.314" x2="72.4755" y2="144.143" gradientUnits="userSpaceOnUse">
<stop stop-color="#5D71C2"/>
<stop offset="0.51" stop-color="#BD9EC9"/>
<stop offset="1" stop-color="#DDB29A"/>
</linearGradient>
<linearGradient id="paint100_linear_27_1622" x1="72.3281" y1="144.561" x2="72.3281" y2="146.263" gradientUnits="userSpaceOnUse">
<stop stop-color="#5D71C2"/>
<stop offset="0.51" stop-color="#BD9EC9"/>
<stop offset="1" stop-color="#DDB29A"/>
</linearGradient>
<linearGradient id="paint101_linear_27_1622" x1="72.3281" y1="146.907" x2="72.3281" y2="148.605" gradientUnits="userSpaceOnUse">
<stop stop-color="#5D71C2"/>
<stop offset="0.51" stop-color="#BD9EC9"/>
<stop offset="1" stop-color="#DDB29A"/>
</linearGradient>
<linearGradient id="paint102_linear_27_1622" x1="72.329" y1="149.24" x2="72.329" y2="150.943" gradientUnits="userSpaceOnUse">
<stop stop-color="#5D71C2"/>
<stop offset="0.51" stop-color="#BD9EC9"/>
<stop offset="1" stop-color="#DDB29A"/>
</linearGradient>
<linearGradient id="paint103_linear_27_1622" x1="72.329" y1="152.118" x2="72.329" y2="153.82" gradientUnits="userSpaceOnUse">
<stop stop-color="#5D71C2"/>
<stop offset="0.51" stop-color="#BD9EC9"/>
<stop offset="1" stop-color="#DDB29A"/>
</linearGradient>
<linearGradient id="paint104_linear_27_1622" x1="72.329" y1="154.993" x2="72.329" y2="156.696" gradientUnits="userSpaceOnUse">
<stop stop-color="#5D71C2"/>
<stop offset="0.51" stop-color="#BD9EC9"/>
<stop offset="1" stop-color="#DDB29A"/>
</linearGradient>
<linearGradient id="paint105_linear_27_1622" x1="72.475" y1="157.845" x2="72.475" y2="160.812" gradientUnits="userSpaceOnUse">
<stop stop-color="#5D71C2"/>
<stop offset="0.51" stop-color="#BD9EC9"/>
<stop offset="1" stop-color="#DDB29A"/>
</linearGradient>
<linearGradient id="paint106_linear_27_1622" x1="72.4768" y1="159.863" x2="72.4768" y2="161.497" gradientUnits="userSpaceOnUse">
<stop stop-color="#5D71C2"/>
<stop offset="0.51" stop-color="#BD9EC9"/>
<stop offset="1" stop-color="#DDB29A"/>
</linearGradient>
<linearGradient id="paint107_linear_27_1622" x1="203.471" y1="89.7199" x2="203.471" y2="110.288" gradientUnits="userSpaceOnUse">
<stop stop-color="#5D71C2"/>
<stop offset="0.51" stop-color="#BD9EC9"/>
<stop offset="1" stop-color="#DDB29A"/>
</linearGradient>
<linearGradient id="paint108_linear_27_1622" x1="202.943" y1="78.7728" x2="202.943" y2="91.8305" gradientUnits="userSpaceOnUse">
<stop stop-color="#5D71C2"/>
<stop offset="0.51" stop-color="#BD9EC9"/>
<stop offset="1" stop-color="#DDB29A"/>
</linearGradient>
<linearGradient id="paint109_linear_27_1622" x1="210.801" y1="122.355" x2="210.801" y2="138.778" gradientUnits="userSpaceOnUse">
<stop stop-color="#5D71C2"/>
<stop offset="0.51" stop-color="#BD9EC9"/>
<stop offset="1" stop-color="#DDB29A"/>
</linearGradient>
<linearGradient id="paint110_linear_27_1622" x1="201.172" y1="107.538" x2="201.172" y2="125.449" gradientUnits="userSpaceOnUse">
<stop stop-color="#5D71C2"/>
<stop offset="0.51" stop-color="#BD9EC9"/>
<stop offset="1" stop-color="#DDB29A"/>
</linearGradient>
<linearGradient id="paint111_linear_27_1622" x1="182.118" y1="94.0041" x2="182.118" y2="102.398" gradientUnits="userSpaceOnUse">
<stop stop-color="#5D71C2"/>
<stop offset="0.51" stop-color="#BD9EC9"/>
<stop offset="1" stop-color="#DDB29A"/>
</linearGradient>
<linearGradient id="paint112_linear_27_1622" x1="211.616" y1="88.4575" x2="211.616" y2="90.7826" gradientUnits="userSpaceOnUse">
<stop stop-color="#5D71C2"/>
<stop offset="0.51" stop-color="#BD9EC9"/>
<stop offset="1" stop-color="#DDB29A"/>
</linearGradient>
<linearGradient id="paint113_linear_27_1622" x1="208.307" y1="86.7296" x2="208.307" y2="90.0913" gradientUnits="userSpaceOnUse">
<stop stop-color="#5D71C2"/>
<stop offset="0.51" stop-color="#BD9EC9"/>
<stop offset="1" stop-color="#DDB29A"/>
</linearGradient>
<linearGradient id="paint114_linear_27_1622" x1="197.46" y1="88.4575" x2="197.46" y2="90.7826" gradientUnits="userSpaceOnUse">
<stop stop-color="#5D71C2"/>
<stop offset="0.51" stop-color="#BD9EC9"/>
<stop offset="1" stop-color="#DDB29A"/>
</linearGradient>
<linearGradient id="paint115_linear_27_1622" x1="200.769" y1="86.7296" x2="200.769" y2="90.0913" gradientUnits="userSpaceOnUse">
<stop stop-color="#5D71C2"/>
<stop offset="0.51" stop-color="#BD9EC9"/>
<stop offset="1" stop-color="#DDB29A"/>
</linearGradient>
<linearGradient id="paint116_linear_27_1622" x1="204.538" y1="86.3403" x2="204.538" y2="89.6259" gradientUnits="userSpaceOnUse">
<stop stop-color="#5D71C2"/>
<stop offset="0.51" stop-color="#BD9EC9"/>
<stop offset="1" stop-color="#DDB29A"/>
</linearGradient>
<linearGradient id="paint117_linear_27_1622" x1="209.213" y1="121.859" x2="209.213" y2="124.361" gradientUnits="userSpaceOnUse">
<stop stop-color="#5D71C2"/>
<stop offset="0.51" stop-color="#BD9EC9"/>
<stop offset="1" stop-color="#DDB29A"/>
</linearGradient>
<linearGradient id="paint118_linear_27_1622" x1="205.586" y1="119.964" x2="205.586" y2="123.601" gradientUnits="userSpaceOnUse">
<stop stop-color="#5D71C2"/>
<stop offset="0.51" stop-color="#BD9EC9"/>
<stop offset="1" stop-color="#DDB29A"/>
</linearGradient>
<linearGradient id="paint119_linear_27_1622" x1="193.695" y1="121.859" x2="193.695" y2="124.361" gradientUnits="userSpaceOnUse">
<stop stop-color="#5D71C2"/>
<stop offset="0.51" stop-color="#BD9EC9"/>
<stop offset="1" stop-color="#DDB29A"/>
</linearGradient>
<linearGradient id="paint120_linear_27_1622" x1="197.32" y1="119.964" x2="197.32" y2="123.601" gradientUnits="userSpaceOnUse">
<stop stop-color="#5D71C2"/>
<stop offset="0.51" stop-color="#BD9EC9"/>
<stop offset="1" stop-color="#DDB29A"/>
</linearGradient>
<linearGradient id="paint121_linear_27_1622" x1="201.452" y1="119.534" x2="201.452" y2="123.089" gradientUnits="userSpaceOnUse">
<stop stop-color="#5D71C2"/>
<stop offset="0.51" stop-color="#BD9EC9"/>
<stop offset="1" stop-color="#DDB29A"/>
</linearGradient>
<linearGradient id="paint122_linear_27_1622" x1="185.75" y1="98.647" x2="185.75" y2="101.363" gradientUnits="userSpaceOnUse">
<stop stop-color="#5D71C2"/>
<stop offset="0.51" stop-color="#BD9EC9"/>
<stop offset="1" stop-color="#DDB29A"/>
</linearGradient>
<linearGradient id="paint123_linear_27_1622" x1="178.492" y1="98.6471" x2="178.492" y2="101.364" gradientUnits="userSpaceOnUse">
<stop stop-color="#5D71C2"/>
<stop offset="0.51" stop-color="#BD9EC9"/>
<stop offset="1" stop-color="#DDB29A"/>
</linearGradient>
<linearGradient id="paint124_linear_27_1622" x1="182.12" y1="98.3434" x2="182.12" y2="101" gradientUnits="userSpaceOnUse">
<stop stop-color="#5D71C2"/>
<stop offset="0.51" stop-color="#BD9EC9"/>
<stop offset="1" stop-color="#DDB29A"/>
</linearGradient>
<clipPath id="clip0_27_1622">
<rect width="90.0109" height="69.7382" fill="white" transform="translate(-0.00012207 36.4912)"/>
</clipPath>
<clipPath id="clip1_27_1622">
<rect width="77.0364" height="51.0873" fill="white" transform="translate(109.473 14.5967)"/>
</clipPath>
<clipPath id="clip2_27_1622">
<rect width="15.4073" height="15.4073" fill="white" transform="translate(85.9563)"/>
</clipPath>
<clipPath id="clip3_27_1622">
<rect width="136.87" height="108.356" fill="white" transform="translate(49.1602 114.645)"/>
</clipPath>
<clipPath id="clip4_27_1622">
<rect width="136.87" height="120.576" fill="white" transform="translate(49.1602 114.645)"/>
</clipPath>
<clipPath id="clip5_27_1622">
<rect width="50.1856" height="62.6126" fill="white" transform="translate(169.974 77.5)"/>
</clipPath>
<clipPath id="clip6_27_1622">
<rect width="51.1416" height="62.6126" fill="white" transform="matrix(-1 0 0 1 221.116 77.5)"/>
</clipPath>
</defs>
</svg>
