<svg width="380" height="222" viewBox="0 0 380 222" fill="none" xmlns="http://www.w3.org/2000/svg">
<g style="mix-blend-mode:multiply" opacity="0.2">
<path d="M63.0602 31.35C63.0602 31.35 87.9672 32.9336 100.434 44.4215C100.434 44.4215 114.809 -11.5684 168.599 8.58907C225.184 29.7933 201.97 77.9456 190.739 85.7563C190.739 85.7563 197.94 85.9978 204.657 102.102C211.374 118.207 207.344 122.233 207.344 122.233C261.08 83.3138 312.399 88.0914 363.583 132.942C363.583 132.942 285.235 113.778 240.069 162.601C182.813 224.469 73.0284 258.208 52.8502 134.311C50.4858 134.633 48.0676 134.768 45.5957 134.687C37.8039 135.251 24.5309 132.754 11.0429 114.234C-12.4938 81.918 16.2017 29.6054 63.0602 31.35Z" fill="#E0E7FF"/>
<path d="M364.979 132.781C364.979 132.781 286.631 113.617 241.465 162.44C184.02 224.523 73.6715 258.289 54.0307 132.889C54.0307 132.889 33.4763 142.954 12.4384 114.047C-11.0984 81.7303 17.624 29.3908 64.4556 31.1623C64.4556 31.1623 89.3627 32.7459 101.83 44.2069C101.83 44.2069 116.204 -11.7561 169.968 8.37446C226.553 29.5787 199.308 82.0792 192.107 85.5417C192.107 85.5417 212.823 113.376 199.335 130.688C199.335 130.688 264.625 44.7705 364.979 132.755V132.781Z" stroke="#6787EF" stroke-width="1.06657" stroke-miterlimit="10"/>
<path d="M192.11 85.5684C192.11 85.5684 164.838 66.9409 139.931 81.9449C139.931 81.9449 83.0509 102.773 124.536 156.777C161.883 205.412 228.946 137.935 245.175 129.238C261.403 120.542 302.781 105.055 365.008 132.754" stroke="#6787EF" stroke-width="1.06657" stroke-miterlimit="10"/>
<path d="M101.832 44.2332C101.832 44.2332 128.378 64.2833 118.248 95.9554" stroke="#6787EF" stroke-width="1.06657" stroke-miterlimit="10"/>
<path d="M42.5599 134.15C64.8875 137.156 84.3402 122.421 89.8214 107.309C96.1623 89.8897 80.0144 68.9271 66.0966 66.2161C52.1787 63.5052 45.2198 75.2078 45.2198 75.2078C45.2198 75.2078 37.9116 85.8367 48.8202 97.7809" stroke="#6787EF" stroke-width="1.06657" stroke-miterlimit="10"/>
<path d="M199.338 130.714C199.338 130.714 179.751 154.79 158.605 151.918C135.042 148.724 130.071 105.242 160.996 110.852C160.996 110.852 170.803 113.67 169.756 123.494" stroke="#6787EF" stroke-width="1.06657" stroke-miterlimit="10"/>
<path d="M172.603 50.2728C172.603 50.2728 166.746 35.5372 151.699 36.7451C136.868 37.9261 124.294 51.3464 143.585 78.4556" stroke="#6787EF" stroke-width="1.06657" stroke-miterlimit="10"/>
<path d="M78.8859 121.454C78.8859 121.454 95.0875 213.545 172.979 171.083" stroke="#6787EF" stroke-width="1.06657" stroke-miterlimit="10"/>
</g>
</svg>
