<svg width="105" height="62" viewBox="0 0 105 62" fill="none" xmlns="http://www.w3.org/2000/svg">
<g clip-path="url(#clip0_9_11)">
<path d="M87.5755 8.67168C87.5755 8.67168 80.6932 9.1097 77.2484 12.2872C77.2484 12.2872 73.2765 -3.19957 58.4133 2.37598C42.778 8.24108 49.1925 21.56 52.2958 23.7205C52.2958 23.7205 50.3061 23.7873 48.4501 28.2418C46.594 32.6963 47.7077 33.8099 47.7077 33.8099C32.8593 23.0449 18.6792 24.3664 4.53613 36.7721C4.53613 36.7721 26.185 31.4713 38.665 44.9759C54.4859 62.0886 84.8211 71.4207 90.3966 37.1508C91.05 37.2399 91.7181 37.277 92.4012 37.2547C94.5542 37.4106 98.2217 36.7202 101.949 31.5975C108.452 22.6588 100.523 8.18911 87.5755 8.67168V8.67168Z" fill="#E0E7FF"/>
<path d="M4.1499 36.7274C4.1499 36.7274 25.7988 31.4266 38.2788 44.9311C54.1517 62.1032 84.6427 71.4428 90.0698 36.7571C90.0698 36.7571 95.7493 39.5412 101.562 31.5454C108.066 22.6067 100.13 8.12954 87.1892 8.61953C87.1892 8.61953 80.307 9.05756 76.8622 12.2277C76.8622 12.2277 72.8903 -3.25171 58.0345 2.31641C42.3992 8.18151 49.9273 22.7032 51.917 23.6609C51.917 23.6609 46.193 31.3598 49.9199 36.1483C49.9199 36.1483 31.8792 12.3836 4.1499 36.72V36.7274Z" stroke="#6787EF" stroke-width="2.22725" stroke-miterlimit="10"/>
<path d="M51.9171 23.6683C51.9171 23.6683 59.4526 18.5159 66.3348 22.6661C66.3348 22.6661 82.0518 28.4272 70.5889 43.3646C60.2693 56.8172 41.7386 38.1529 37.2544 35.7474C32.7702 33.342 21.3369 29.0583 4.14258 36.72" stroke="#6787EF" stroke-width="2.22725" stroke-miterlimit="10"/>
<path d="M76.8624 12.2354C76.8624 12.2354 69.5273 17.7812 72.3262 26.5417" stroke="#6787EF" stroke-width="2.22725" stroke-miterlimit="10"/>
<path d="M93.24 37.1059C87.0705 37.9374 81.6954 33.8616 80.1809 29.6818C78.4288 24.8635 82.8907 19.0652 86.7364 18.3154C90.5821 17.5655 92.505 20.8024 92.505 20.8024C92.505 20.8024 94.5244 23.7424 91.5102 27.0462" stroke="#6787EF" stroke-width="2.22725" stroke-miterlimit="10"/>
<path d="M49.9199 36.1558C49.9199 36.1558 55.3321 42.8153 61.175 42.0209C67.686 41.1374 69.0594 29.1103 60.5142 30.6619C60.5142 30.6619 57.8044 31.4415 58.0939 34.1587" stroke="#6787EF" stroke-width="2.22725" stroke-miterlimit="10"/>
<path d="M57.3071 13.9058C57.3071 13.9058 58.9256 9.82991 63.0831 10.164C67.1813 10.4907 70.6558 14.2027 65.3252 21.7012" stroke="#6787EF" stroke-width="2.22725" stroke-miterlimit="10"/>
<path d="M83.2026 33.5942C83.2026 33.5942 78.7258 59.0666 57.2031 47.3215" stroke="#6787EF" stroke-width="2.22725" stroke-miterlimit="10"/>
</g>
<defs>
<clipPath id="clip0_9_11">
<rect width="105" height="61.4053" fill="white"/>
</clipPath>
</defs>
</svg>
