<svg width="105" height="20" viewBox="0 0 105 20" fill="none" xmlns="http://www.w3.org/2000/svg">
<g clip-path="url(#clip0_377_6925)">
<path d="M99.5547 12.9103C99.332 13.6527 99.0152 14.3032 98.6042 14.8606C98.2199 15.376 97.7618 15.7561 97.2311 15.9997C96.7017 16.2447 96.1533 16.3671 95.5883 16.3671C95.0233 16.3671 94.4926 16.2536 93.9709 16.0265C93.4479 15.7995 92.9809 15.4194 92.5711 14.8874C92.169 14.3644 91.8534 13.7139 91.6218 12.937C91.3902 12.1602 91.2744 11.1844 91.2744 10.0083C91.2744 8.8322 91.3966 7.88316 91.6409 7.05912C91.8852 6.23509 92.2034 5.57434 92.5978 5.07685C93.0432 4.536 93.5039 4.16098 93.9836 3.95051C94.4634 3.74003 94.9991 3.63416 95.5895 3.63416C96.1456 3.63416 96.6826 3.74896 97.2006 3.97474C97.7185 4.2018 98.183 4.5781 98.5927 5.10109C98.9859 5.61643 99.3002 6.27591 99.5356 7.07698C99.7711 7.87933 99.8894 8.85133 99.8894 9.99298C99.8894 11.1946 99.7787 12.1666 99.5547 12.909V12.9103ZM102.37 2.67619C100.717 0.891638 98.4515 0 95.5755 0C92.6996 0 90.4256 0.896741 88.7815 2.68895C87.1374 4.48115 86.3167 6.92008 86.3167 10.007C86.3167 13.0939 87.1374 15.4984 88.7815 17.2983C90.4256 19.0994 92.6895 20 95.5755 20C98.4616 20 100.717 19.1109 102.37 17.3315C104.023 15.552 104.848 13.1105 104.848 10.007C104.848 6.9035 104.023 4.46074 102.37 2.67619Z" fill="#2581C4"/>
<path d="M16.7922 19.5931H10.9679L5.74927 11.8069L4.81269 13.1105V19.5931H0V0.406921H4.81396V8.94828L10.9424 0.406921H16.5021L9.67374 9.31055L16.7922 19.5931Z" fill="#2581C4"/>
<path d="M29.2032 12.9103C28.9805 13.6527 28.6636 14.3032 28.2539 14.8606C27.8683 15.376 27.4089 15.7561 26.8795 15.9997C26.3489 16.2447 25.8017 16.3671 25.2367 16.3671C24.6717 16.3671 24.1411 16.2536 23.6193 16.0265C23.0963 15.7995 22.6306 15.4194 22.2196 14.8874C21.8174 14.3644 21.5006 13.7139 21.2702 12.937C21.0399 12.1602 20.9241 11.1844 20.9241 10.0083C20.9241 8.8322 21.0463 7.88316 21.2893 7.05912C21.5337 6.23509 21.8518 5.57434 22.2463 5.07685C22.6917 4.536 23.1523 4.16098 23.6321 3.95051C24.1118 3.74003 24.6463 3.63416 25.2367 3.63416C25.7928 3.63416 26.3298 3.74896 26.8477 3.97474C27.3656 4.2018 27.8301 4.5781 28.2411 5.10109C28.6344 5.61643 28.9487 6.27591 29.1841 7.07698C29.4195 7.87933 29.5366 8.85133 29.5366 9.99298C29.5366 11.1946 29.4246 12.1666 29.2032 12.909V12.9103ZM32.018 2.67619C30.365 0.891638 28.0999 0 25.224 0C22.3481 0 20.0741 0.896741 18.4312 2.68895C16.7871 4.48115 15.9651 6.92008 15.9651 10.007C15.9651 13.0939 16.7871 15.4984 18.4312 17.2983C20.0741 19.0994 22.3392 20 25.224 20C28.1088 20 30.3663 19.1109 32.0193 17.3315C33.671 15.552 34.4982 13.1105 34.4982 10.007C34.4982 6.9035 33.671 4.46074 32.0193 2.67619H32.018Z" fill="#2581C4"/>
<path d="M64.475 12.3911L62.1578 11.8503C61.3535 11.6832 60.5926 11.4331 59.8939 11.1895C58.3376 10.6423 57.2064 9.90243 56.5243 8.99293C56.5128 8.97762 56.4988 8.96359 56.4887 8.94828C55.8129 8.01965 55.4681 7.0974 55.4681 5.69042C55.4681 4.42248 55.818 3.33313 56.5243 2.39557V0.413299H50.9519L46.7258 9.88074L42.4858 0.406921H36.9478V19.5931H41.4716V6.87672L44.9532 15.0864H48.2287L51.7103 6.87672V19.5931H56.5256V15.2625C57.312 15.7944 58.1455 16.2294 59.0146 16.5559C60.3113 17.0445 61.5902 17.2907 62.8144 17.2907C63.13 17.2907 63.5435 17.2575 64.0436 17.1899C64.5679 17.121 64.9815 17.0126 65.3136 16.8582C65.7056 16.6886 66.0453 16.4449 66.3215 16.1337C66.6141 15.8046 66.7363 15.3709 66.763 14.8453C66.8025 14.0774 66.52 12.9638 64.4763 12.3898L64.475 12.3911Z" fill="#2581C4"/>
<path d="M75.3309 5.09855C75.854 4.55897 76.4037 4.18012 76.9827 3.96199C77.5604 3.74387 78.1979 3.63417 78.8927 3.63417C79.4756 3.63417 80.0342 3.72984 80.5699 3.91862C81.1057 4.10869 81.5969 4.33829 82.0435 4.60872C82.4889 4.87787 82.8872 5.15467 83.2397 5.43658C83.5909 5.71976 83.8823 5.96212 84.1139 6.16367H84.6026V1.59577C84.2857 1.4325 83.8696 1.23988 83.3542 1.01665C82.8401 0.793424 82.3655 0.618668 81.9277 0.489833C81.3704 0.335487 80.7875 0.215581 80.1793 0.130116C79.571 0.0446519 78.8851 0.00128174 78.1216 0.00128174C75.2508 0.00128174 72.9679 0.906952 71.2754 2.71829C71.1291 2.87391 70.9929 3.03719 70.8593 3.20302C70.5259 3.61503 70.2319 4.05511 69.9774 4.52581C69.3399 4.09466 68.6222 3.7158 67.8345 3.39691C66.6803 2.93132 65.4791 2.69406 64.2625 2.69406C63.7904 2.69406 63.3565 2.7285 62.9722 2.7961C62.5866 2.86498 62.1756 2.99765 61.7506 3.19154C61.3892 3.35354 61.0723 3.59973 60.8089 3.9199C60.5327 4.25538 60.394 4.63678 60.394 5.0539C60.394 5.66236 60.6155 6.15474 61.0519 6.517C61.4681 6.86014 62.2239 7.15608 63.3679 7.4214L65.4193 7.88954C66.0644 8.03878 66.7643 8.24543 67.5024 8.50693C67.963 8.67275 68.3817 8.86027 68.7673 9.06436C69.5677 9.48786 70.2065 9.98916 70.6671 10.5657C71.3441 11.414 71.6877 12.5544 71.6877 13.9575C71.6877 15.1056 71.4408 16.1146 70.9382 16.9973C71.0451 17.121 71.1532 17.2422 71.2678 17.3595C72.9577 19.102 75.2368 19.9732 78.1076 19.9732C79.0238 19.9732 79.7453 19.926 80.2671 19.8316C80.7901 19.7372 81.3513 19.5995 81.9506 19.4183C82.438 19.2729 82.9139 19.0943 83.3771 18.8839C83.8403 18.6734 84.2475 18.4872 84.5988 18.3226V13.8108H84.1623C83.9218 14.0226 83.6393 14.2637 83.3135 14.5354C82.9877 14.8058 82.6098 15.0737 82.1822 15.3364C81.7877 15.5916 81.3029 15.8212 80.729 16.0291C80.1538 16.237 79.5506 16.3403 78.9157 16.3403C78.2807 16.3403 77.6953 16.2332 77.0832 16.0202C76.4699 15.8059 75.915 15.4589 75.4188 14.9793C74.9047 14.4831 74.4885 13.83 74.1717 13.0212C73.8535 12.2112 73.6958 11.2112 73.6958 10.0223C73.6958 8.83348 73.8472 7.91123 74.1526 7.08082C74.4567 6.25041 74.8487 5.59092 75.3297 5.10237L75.3309 5.09855Z" fill="#2581C4"/>
</g>
<defs>
<clipPath id="clip0_377_6925">
<rect width="104.848" height="20" fill="white"/>
</clipPath>
</defs>
</svg>
