<?xml version="1.0" encoding="UTF-8"?><svg id="Layer_2" xmlns="http://www.w3.org/2000/svg" viewBox="0 0 103.71 103"><defs><style>.cls-1{fill:#fff;}.cls-2{fill:#595757;}.cls-3{fill:#668aff;}.cls-4{fill:#efefef;}</style></defs><g id="icons"><g><g><g><g><polygon class="cls-1" points="23.25 2.25 2.25 23.25 2.25 95.4 80.89 95.4 80.89 2.25 23.25 2.25"/><path class="cls-2" d="M80.89,97.65H2.25C1.01,97.65,0,96.64,0,95.4V23.25C0,22.65,.24,22.08,.66,21.66L21.66,.66C22.08,.24,22.65,0,23.25,0h57.65c1.24,0,2.25,1.01,2.25,2.25V95.4c0,1.24-1.01,2.25-2.25,2.25ZM4.5,93.15H78.64V4.5H24.18L4.5,24.18V93.15Z"/></g><path class="cls-4" d="M76,52.08c0-19.01-15.41-34.42-34.42-34.42S7.15,33.07,7.15,52.08s15.41,34.42,34.42,34.42,34.42-15.41,34.42-34.42Z"/><g><polygon class="cls-4" points="23.25 23.25 23.25 2.25 2.25 23.25 23.25 23.25"/><path class="cls-2" d="M23.25,25.5H2.25c-.91,0-1.73-.55-2.08-1.39-.35-.84-.16-1.81,.49-2.45L21.66,.66c.64-.64,1.61-.84,2.45-.49,.84,.35,1.39,1.17,1.39,2.08V23.25c0,1.24-1.01,2.25-2.25,2.25Zm-15.57-4.5h13.32V7.68L7.68,21Z"/></g></g><g><path class="cls-2" d="M61.33,42.01H21.82c-1.24,0-2.25-1.01-2.25-2.25s1.01-2.25,2.25-2.25H61.33c1.24,0,2.25,1.01,2.25,2.25s-1.01,2.25-2.25,2.25Z"/><path class="cls-2" d="M61.33,59.05H21.82c-1.24,0-2.25-1.01-2.25-2.25s1.01-2.25,2.25-2.25H61.33c1.24,0,2.25,1.01,2.25,2.25s-1.01,2.25-2.25,2.25Z"/><path class="cls-2" d="M61.33,76.08H21.82c-1.24,0-2.25-1.01-2.25-2.25s1.01-2.25,2.25-2.25H61.33c1.24,0,2.25,1.01,2.25,2.25s-1.01,2.25-2.25,2.25Z"/></g></g><g><g><path class="cls-3" d="M101.46,74.02c0-14.76-11.96-26.72-26.72-26.72s-26.72,11.96-26.72,26.72,11.96,26.72,26.72,26.72,26.72-11.96,26.72-26.72Z"/><path class="cls-2" d="M74.74,103c-15.98,0-28.97-13-28.97-28.97s13-28.97,28.97-28.97,28.97,13,28.97,28.97-13,28.97-28.97,28.97Zm0-53.45c-13.49,0-24.47,10.98-24.47,24.47s10.98,24.47,24.47,24.47,24.47-10.98,24.47-24.47-10.98-24.47-24.47-24.47Z"/></g><path class="cls-1" d="M71.97,87.29c-1.22,0-2.44-.46-3.37-1.4l-8.59-8.59c-1.86-1.86-1.86-4.89,0-6.75,1.86-1.86,4.88-1.86,6.75,0l5.21,5.22,9.99-9.99c1.86-1.86,4.88-1.86,6.75,0,1.86,1.86,1.86,4.88,0,6.75l-13.36,13.36c-.93,.93-2.15,1.4-3.37,1.4Z"/></g></g></g></svg>