<svg width="24" height="24" viewBox="0 0 24 24" fill="none" xmlns="http://www.w3.org/2000/svg">
<path d="M10.5141 16.1406C10.5141 17.4948 10.0193 18.6667 9.02974 19.6562C8.04015 20.6458 6.84224 21.1406 5.43599 21.1406C4.1339 21.1406 2.96203 20.6458 1.92036 19.6562C0.93078 18.6667 0.331821 17.5208 0.123488 16.2188C-0.241095 13.6146 0.201613 11.0365 1.45161 8.48438C2.7537 5.88021 4.6287 3.84896 7.07661 2.39062C7.85786 1.86979 8.5089 1.86979 9.02974 2.39062C9.60265 2.85938 9.52453 3.35417 8.79536 3.875C7.90995 4.60417 7.07661 5.48958 6.29536 6.53125C5.5662 7.57292 5.0714 8.79688 4.81099 10.2031C4.65474 10.9844 4.91515 11.375 5.59224 11.375C6.99849 11.375 8.17036 11.8438 9.10786 12.7812C10.0454 13.7188 10.5141 14.8385 10.5141 16.1406ZM23.561 16.1406C23.561 17.4948 23.0662 18.6667 22.0766 19.6562C21.087 20.6458 19.8891 21.1406 18.4829 21.1406C17.1808 21.1406 16.0089 20.6458 14.9672 19.6562C13.9777 18.6667 13.3787 17.5208 13.1704 16.2188C12.8058 13.6146 13.2485 11.0365 14.4985 8.48438C15.8006 5.88021 17.6756 3.84896 20.1235 2.39062C20.9047 1.86979 21.5558 1.86979 22.0766 2.39062C22.6495 2.85938 22.5714 3.35417 21.8422 3.875C20.9568 4.60417 20.1235 5.48958 19.3422 6.53125C18.6131 7.57292 18.1183 8.79688 17.8579 10.2031C17.7016 10.9844 17.962 11.375 18.6391 11.375C20.0454 11.375 21.2172 11.8438 22.1547 12.7812C23.0922 13.7188 23.561 14.8385 23.561 16.1406Z" fill="#633205"/>
</svg>
