<svg width="70" height="70" viewBox="0 0 70 70" fill="none" xmlns="http://www.w3.org/2000/svg">
<circle cx="35" cy="35" r="35" fill="white"/>
<path d="M48.7587 14.9648H23.1133V45.9012H24.0951V52.0194H42.4042V45.9012H48.7587V14.9648Z" fill="white"/>
<path d="M43.6484 49.1835C47.8056 49.1835 51.1756 45.8134 51.1756 41.6562C51.1756 37.499 47.8056 34.1289 43.6484 34.1289C39.4912 34.1289 36.1211 37.499 36.1211 41.6562C36.1211 45.8134 39.4912 49.1835 43.6484 49.1835Z" fill="white"/>
<path d="M34.7311 46.0911L27.4402 40.7911L27.3311 41.0911L18.5129 34.0002C16.8129 32.7547 16.4766 36.1092 16.4766 38.2183V50.7638C16.4766 51.4456 16.7493 52.1002 17.2311 52.582L17.2947 52.6456C17.7857 53.1365 18.4675 53.4092 19.1584 53.4002L31.4038 53.182C31.5766 53.182 31.7493 53.1911 31.9129 53.2274L32.5947 53.3547C32.8584 53.4002 33.1311 53.4092 33.3947 53.3729L34.9766 53.1638C35.0857 53.1547 35.1947 53.1456 35.3129 53.1456H41.5675C42.4129 53.1365 42.7675 52.0547 42.0857 51.5547L34.7311 46.0911Z" fill="#FFF6F4"/>
<path d="M22.7061 28.1445L17.3516 32.7263L23.1152 37.29L22.7061 28.1445Z" fill="#FFF6F4"/>
<path d="M19.2961 54C17.4779 54 15.9961 52.5182 15.9961 50.7V32.7545C16.0052 32.7091 16.0143 32.6727 16.0234 32.6364C16.0325 32.5545 16.0415 32.5091 16.0597 32.4636C16.0779 32.4182 16.0961 32.3727 16.1325 32.3091C16.1506 32.2818 16.1597 32.2545 16.1779 32.2273C16.1961 32.2182 16.2052 32.2 16.2234 32.1818C16.2506 32.1545 16.2779 32.1273 16.3325 32.0818C16.3688 32.0545 16.3961 32.0182 16.4234 31.9818L22.2234 27.3364C22.3234 27.2545 22.3779 27.1364 22.3779 27.0091V16.3727C22.3779 15.0636 23.4325 14 24.7234 14H47.2688C48.5597 14 49.6143 15.0636 49.6143 16.3727V31.4455C49.6143 31.9182 49.2325 32.3 48.7597 32.3C48.287 32.3 47.9052 31.9182 47.9052 31.4455V16.3727C47.9052 16.0182 47.6143 15.7182 47.2779 15.7182H24.7234C24.3779 15.7182 24.0961 16.0182 24.0961 16.3727V36.5545C24.0961 36.5727 24.0325 37.0364 24.2052 37.1636L32.687 43.5182C32.8688 43.6545 32.987 43.8545 33.0234 44.0818C33.0597 44.3091 32.9961 44.5364 32.8597 44.7182C32.6961 44.9364 32.4415 45.0636 32.1688 45.0636C31.987 45.0636 31.8052 45 31.6597 44.8909L18.3779 34.9364C18.3052 34.8818 18.2143 34.8545 18.1234 34.8545C18.0597 34.8545 17.9961 34.8727 17.9325 34.9C17.787 34.9727 17.7052 35.1182 17.7052 35.2727V50.7C17.7052 51.5727 18.4143 52.2909 19.2961 52.2909H40.9052C41.3779 52.2909 41.7597 52.6727 41.7597 53.1455C41.7597 53.6182 41.3779 54 40.9052 54H19.2961ZM21.9597 29.8545C21.8688 29.8545 21.7779 29.8818 21.6961 29.9455L18.6779 32.3636C18.5779 32.4455 18.5143 32.5636 18.5234 32.7C18.5234 32.8273 18.587 32.9545 18.687 33.0273L21.7052 35.2909C21.7779 35.3455 21.8688 35.3727 21.9597 35.3727C22.0234 35.3727 22.087 35.3545 22.1506 35.3273C22.2961 35.2545 22.3779 35.1091 22.3779 34.9545V30.2727C22.3779 30.1091 22.287 29.9636 22.1415 29.8909C22.0779 29.8727 22.0234 29.8545 21.9597 29.8545Z" fill="#303030"/>
<path d="M33.4405 23.3732C32.9678 23.3732 32.5859 22.9913 32.5859 22.5186C32.5859 22.0459 32.9678 21.6641 33.4405 21.6641H38.5496C39.0223 21.6641 39.4041 22.0459 39.4041 22.5186C39.4041 22.9913 39.0223 23.3732 38.5496 23.3732H33.4405Z" fill="#303030"/>
<path d="M29.6163 28.4708C29.1435 28.4708 28.7617 28.089 28.7617 27.6163C28.7617 27.1435 29.1435 26.7617 29.6163 26.7617H42.3799C42.8526 26.7617 43.2344 27.1435 43.2344 27.6163C43.2344 28.089 42.8526 28.4708 42.3799 28.4708H29.6163Z" fill="#303030"/>
<path d="M29.6163 33.5802C29.1435 33.5802 28.7617 33.1984 28.7617 32.7256C28.7617 32.2529 29.1435 31.8711 29.6163 31.8711H34.7254C35.1981 31.8711 35.5799 32.2529 35.5799 32.7256C35.5799 33.1984 35.1981 33.5802 34.7254 33.5802H29.6163Z" fill="#303030"/>
<path d="M55.1406 54.0016C54.9134 54.0016 54.6952 53.9107 54.5315 53.7471L49.4406 48.6562C49.4406 48.6471 49.4315 48.6471 49.4315 48.638C49.4134 48.6016 49.3861 48.5653 49.3679 48.5289C49.3043 48.438 49.2043 48.3744 49.0952 48.3653C49.077 48.3653 49.0588 48.3562 49.0315 48.3562C48.9406 48.3562 48.8497 48.3835 48.777 48.438C47.2861 49.5653 45.5134 50.1653 43.6588 50.1653C38.9679 50.1653 35.1406 46.3471 35.1406 41.6471C35.1406 36.9471 38.9588 33.1289 43.6588 33.1289C48.3497 33.1289 52.177 36.9471 52.177 41.6471C52.177 43.5016 51.577 45.2744 50.4497 46.7653C50.3861 46.8562 50.3497 46.9653 50.3679 47.0835C50.3861 47.1925 50.4406 47.2925 50.5315 47.3653C50.5679 47.3925 50.6043 47.4107 50.6406 47.4289C50.6497 47.4289 50.6497 47.438 50.6588 47.438L55.7497 52.5289C56.0861 52.8653 56.0861 53.4107 55.7497 53.738C55.5861 53.9107 55.3679 54.0016 55.1406 54.0016ZM43.6497 34.8562C39.9043 34.8562 36.8497 37.9107 36.8497 41.6562C36.8497 45.4016 39.9043 48.4562 43.6497 48.4562C47.3952 48.4562 50.4497 45.4016 50.4497 41.6562C50.4497 37.9107 47.4043 34.8562 43.6497 34.8562Z" fill="#303030"/>
<path d="M47.7678 42.2004C47.295 42.2004 46.9132 41.8186 46.9132 41.3459C46.9132 39.7095 45.5768 38.3732 43.9405 38.3732C43.4678 38.3732 43.0859 37.9913 43.0859 37.5186C43.0859 37.0459 43.4678 36.6641 43.9405 36.6641C46.5223 36.6641 48.6223 38.7641 48.6223 41.3459C48.6314 41.8186 48.2405 42.2004 47.7678 42.2004Z" fill="#303030"/>
</svg>
