<svg width="70" height="70" viewBox="0 0 70 70" fill="none" xmlns="http://www.w3.org/2000/svg">
<circle cx="35" cy="35" r="35" fill="white"/>
<path d="M38.7506 49.2168H22.396C22.2018 49.2168 22.0386 49.0537 22.0386 48.8594V22.6844C22.0386 22.4902 22.2018 22.327 22.396 22.327H24.5792C24.7735 22.327 24.9366 22.4902 24.9366 22.6844V23.7721C24.9366 24.1761 25.2629 24.5025 25.6669 24.5025H40.9338C41.3378 24.5025 41.6641 24.1761 41.6641 23.7721V22.6844C41.6641 22.4902 41.8272 22.327 42.0215 22.327H44.2047C44.3989 22.327 44.562 22.4902 44.562 22.6844V31.4094C44.562 31.8134 44.8884 32.1397 45.2924 32.1397C45.6964 32.1397 46.0227 31.8134 46.0227 31.4094V22.6844C46.0227 21.6822 45.2069 20.8586 44.1969 20.8586H42.0137C41.8195 20.8586 41.6563 20.6955 41.6563 20.5012V19.4135C41.6563 19.0095 41.33 18.6832 40.926 18.6832H37.0568C36.9325 18.6832 36.8082 18.6133 36.7461 18.5045C36.0313 17.2692 34.7105 16.5 33.2887 16.5C31.8747 16.5 30.5461 17.2692 29.8313 18.5045C29.7692 18.6133 29.6526 18.6832 29.5205 18.6832H25.6514C25.2474 18.6832 24.9211 19.0095 24.9211 19.4135V20.5012C24.9211 20.6955 24.7579 20.8586 24.5637 20.8586H22.3805C21.3782 20.8586 20.5547 21.6744 20.5547 22.6844V48.8594C20.5547 49.8617 21.3705 50.6852 22.3805 50.6852H38.7428C39.1468 50.6852 39.4731 50.3589 39.4731 49.9549C39.4886 49.5431 39.1546 49.2168 38.7506 49.2168ZM26.3973 20.5012C26.3973 20.307 26.5604 20.1438 26.7546 20.1438H30.2276C30.5383 20.1438 30.8103 19.9496 30.919 19.6544C31.2764 18.6443 32.2398 17.9606 33.2965 17.9606C34.3609 17.9606 35.3165 18.6443 35.6739 19.6544C35.7749 19.9496 36.0546 20.1438 36.3654 20.1438H39.8383C40.0325 20.1438 40.1957 20.307 40.1957 20.5012V22.6844C40.1957 22.8786 40.0325 23.0418 39.8383 23.0418H26.7546C26.5604 23.0418 26.3973 22.8786 26.3973 22.6844V20.5012Z" fill="#303030"/>
<path d="M41.6626 30.3124C41.6626 29.9083 41.3363 29.582 40.9323 29.582H34.3905C33.9865 29.582 33.6602 29.9083 33.6602 30.3124C33.6602 30.7164 33.9865 31.0427 34.3905 31.0427H40.9323C41.3363 31.0504 41.6626 30.7164 41.6626 30.3124Z" fill="#303030"/>
<path d="M37.304 36.8631C37.304 36.4591 36.9777 36.1328 36.5737 36.1328H34.3905C33.9865 36.1328 33.6602 36.4591 33.6602 36.8631C33.6602 37.2671 33.9865 37.5934 34.3905 37.5934H36.5737C36.9699 37.5934 37.304 37.2594 37.304 36.8631Z" fill="#303030"/>
<path d="M34.3905 42.668C33.9865 42.668 33.6602 42.9943 33.6602 43.3983C33.6602 43.8023 33.9865 44.1286 34.3905 44.1286H35.4782C35.8822 44.1286 36.2085 43.8023 36.2085 43.3983C36.2085 42.9943 35.8822 42.668 35.4782 42.668H34.3905Z" fill="#303030"/>
<path d="M31.555 27.5461C31.4307 27.4528 31.2753 27.3984 31.1199 27.3984C30.8868 27.3984 30.6693 27.5072 30.5294 27.6937L28.0121 31.05C27.95 31.1355 27.8568 31.1821 27.748 31.1899C27.7402 31.1899 27.7324 31.1899 27.7247 31.1899C27.6314 31.1899 27.5382 31.151 27.4683 31.0811L26.1786 29.7914C26.0387 29.6516 25.8523 29.5739 25.658 29.5739C25.4638 29.5739 25.2773 29.6516 25.1375 29.7914C24.85 30.0789 24.85 30.545 25.1375 30.8247L27.2974 32.9768C27.3129 32.9846 27.344 33.0079 27.3751 33.0312C27.3984 33.0468 27.4139 33.0701 27.4217 33.0856C27.4294 33.0856 27.4372 33.0934 27.445 33.0934C27.4683 33.1012 27.4916 33.1167 27.5149 33.1245C27.5304 33.1322 27.5537 33.1478 27.5693 33.1555C27.5771 33.1633 27.5848 33.1633 27.5848 33.1633C27.6781 33.1944 27.7635 33.2177 27.8334 33.2177C27.9267 33.2177 28.0277 33.1944 28.1209 33.1555C28.1287 33.1478 28.1364 33.1478 28.1442 33.14C28.1675 33.1245 28.1908 33.1089 28.2141 33.0934C28.2375 33.0778 28.2608 33.0623 28.2918 33.0468C28.3074 33.039 28.3229 33.0312 28.3385 33.0157C28.354 33.0002 28.3695 32.9691 28.3928 32.9458C28.4162 32.9225 28.4317 32.9069 28.455 32.8914L31.7026 28.5638C31.8191 28.4085 31.8657 28.2142 31.8424 28.02C31.8114 27.8335 31.7104 27.6626 31.555 27.5461Z" fill="#303030"/>
<path d="M31.555 34.089C31.4307 33.9958 31.2753 33.9414 31.1199 33.9414C30.8868 33.9414 30.6693 34.0502 30.5294 34.2366L28.0121 37.593C27.95 37.6785 27.8568 37.7251 27.748 37.7329C27.7402 37.7329 27.7324 37.7329 27.7247 37.7329C27.6314 37.7329 27.5382 37.694 27.4683 37.6241L26.1786 36.3344C26.0387 36.1945 25.8523 36.1168 25.658 36.1168C25.4638 36.1168 25.2773 36.1945 25.1375 36.3344C24.85 36.6218 24.85 37.088 25.1375 37.3677L27.2974 39.5276C27.3129 39.5354 27.344 39.5587 27.3751 39.582C27.3984 39.5975 27.4139 39.6208 27.4217 39.6364C27.4294 39.6364 27.4372 39.6441 27.445 39.6441C27.4683 39.6519 27.4916 39.6674 27.5149 39.6752C27.5304 39.683 27.5537 39.6985 27.5693 39.7063C27.5771 39.714 27.5848 39.7141 27.5848 39.7141C27.6781 39.7451 27.7635 39.7684 27.8334 39.7684C27.9267 39.7684 28.0277 39.7451 28.1209 39.6985C28.1287 39.6907 28.1364 39.6907 28.1442 39.683C28.1675 39.6674 28.1908 39.6519 28.2141 39.6364C28.2375 39.6208 28.2608 39.6053 28.2918 39.5897C28.3074 39.582 28.3229 39.5742 28.3385 39.5587C28.354 39.5354 28.3695 39.512 28.3928 39.4887C28.4162 39.4654 28.4317 39.4499 28.455 39.4344L31.7026 35.1068C31.8191 34.9514 31.8657 34.7572 31.8424 34.563C31.8114 34.3843 31.7104 34.2056 31.555 34.089Z" fill="#303030"/>
<path d="M31.1199 40.4922C30.8868 40.4922 30.6693 40.601 30.5294 40.7874L28.0121 44.1438C27.95 44.2292 27.8568 44.2759 27.748 44.2836C27.7402 44.2836 27.7324 44.2836 27.7247 44.2836C27.6314 44.2836 27.5382 44.2448 27.4683 44.1749L26.1786 42.8851C26.0387 42.7453 25.8523 42.6676 25.658 42.6676C25.4638 42.6676 25.2773 42.7453 25.1375 42.8851C24.85 43.1726 24.85 43.6388 25.1375 43.9185L27.2974 46.0784C27.3129 46.0861 27.344 46.1094 27.3751 46.1327C27.3984 46.1483 27.4139 46.1716 27.4217 46.1871C27.4294 46.1871 27.4372 46.1949 27.445 46.1949C27.4683 46.2027 27.4916 46.2182 27.5149 46.226C27.5304 46.2338 27.5537 46.2493 27.5693 46.257C27.5771 46.2648 27.5848 46.2648 27.5848 46.2648C27.6781 46.2959 27.7635 46.3192 27.8334 46.3192C27.9267 46.3192 28.0277 46.2959 28.1209 46.257C28.1287 46.2493 28.1364 46.2493 28.1442 46.2415C28.1675 46.226 28.1908 46.2104 28.2141 46.1949C28.2375 46.1794 28.2608 46.1638 28.2918 46.1483C28.3074 46.1405 28.3229 46.1327 28.3385 46.1172C28.354 46.1017 28.3695 46.0706 28.3928 46.0473C28.4162 46.024 28.4317 46.0084 28.455 45.9929L31.7026 41.6654C31.8191 41.51 31.8657 41.3157 31.8424 41.1215C31.8114 40.9273 31.7104 40.7563 31.555 40.6398C31.4307 40.5388 31.2753 40.4922 31.1199 40.4922Z" fill="#303030"/>
<path d="M46.3871 33.9414C41.7721 33.9414 38.0195 37.694 38.0195 42.309C38.0195 46.924 41.7721 50.6766 46.3871 50.6766C51.0021 50.6766 54.7548 46.924 54.7548 42.309C54.7548 37.7018 51.0021 33.9414 46.3871 33.9414ZM46.3871 49.216C42.5801 49.216 39.4879 46.116 39.4879 42.3168C39.4879 38.5098 42.5879 35.4176 46.3871 35.4176C50.1941 35.4176 53.2863 38.5098 53.2863 42.3168C53.2863 46.116 50.1941 49.216 46.3871 49.216Z" fill="#303030"/>
<path d="M50.7452 41.5813H47.4743C47.2801 41.5813 47.1169 41.4181 47.1169 41.2239V37.953C47.1169 37.549 46.7906 37.2227 46.3866 37.2227C45.9826 37.2227 45.6562 37.549 45.6562 37.953V42.3116C45.6562 42.7156 45.9826 43.0419 46.3866 43.0419H50.753C51.157 43.0419 51.4833 42.7156 51.4833 42.3116C51.4833 41.9076 51.1492 41.5813 50.7452 41.5813Z" fill="#303030"/>
<path d="M33.2967 20.8903C33.7007 20.8903 34.0271 20.564 34.0271 20.16C34.0271 19.756 33.7007 19.4297 33.2967 19.4297C32.8927 19.4297 32.5664 19.756 32.5664 20.16C32.5664 20.564 32.8927 20.8903 33.2967 20.8903Z" fill="#303030"/>
<path d="M45.2905 21.6211H21.6172V49.9482H45.2905V21.6211Z" fill="#F8F8FF"/>
<path d="M53.6892 44.2043C54.6583 40.1741 52.1768 36.1214 48.1466 35.1523C44.1164 34.1832 40.0637 36.6647 39.0946 40.6949C38.1255 44.7251 40.607 48.7778 44.6372 49.7469C48.6674 50.716 52.7201 48.2345 53.6892 44.2043Z" fill="white"/>
<path d="M36.2974 19.7399C36.0488 18.3104 34.8135 17.2227 33.314 17.2227C31.8145 17.2227 30.5714 18.3104 30.3305 19.7399H25.8398V23.5625H40.7959V19.7399H36.2974Z" fill="white"/>
<path d="M33.2967 20.8903C33.7007 20.8903 34.0271 20.564 34.0271 20.16C34.0271 19.756 33.7007 19.4297 33.2967 19.4297C32.8927 19.4297 32.5664 19.756 32.5664 20.16C32.5664 20.564 32.8927 20.8903 33.2967 20.8903Z" fill="#303030"/>
<path d="M38.7506 49.2168H22.396C22.2018 49.2168 22.0386 49.0537 22.0386 48.8594V22.6844C22.0386 22.4902 22.2018 22.327 22.396 22.327H24.5792C24.7735 22.327 24.9366 22.4902 24.9366 22.6844V23.7721C24.9366 24.1761 25.2629 24.5025 25.6669 24.5025H40.9338C41.3378 24.5025 41.6641 24.1761 41.6641 23.7721V22.6844C41.6641 22.4902 41.8272 22.327 42.0215 22.327H44.2047C44.3989 22.327 44.562 22.4902 44.562 22.6844V31.4094C44.562 31.8134 44.8884 32.1397 45.2924 32.1397C45.6964 32.1397 46.0227 31.8134 46.0227 31.4094V22.6844C46.0227 21.6822 45.2069 20.8586 44.1969 20.8586H42.0137C41.8195 20.8586 41.6563 20.6955 41.6563 20.5012V19.4135C41.6563 19.0095 41.33 18.6832 40.926 18.6832H37.0568C36.9325 18.6832 36.8082 18.6133 36.7461 18.5045C36.0313 17.2692 34.7105 16.5 33.2887 16.5C31.8747 16.5 30.5461 17.2692 29.8313 18.5045C29.7692 18.6133 29.6526 18.6832 29.5205 18.6832H25.6514C25.2474 18.6832 24.9211 19.0095 24.9211 19.4135V20.5012C24.9211 20.6955 24.7579 20.8586 24.5637 20.8586H22.3805C21.3782 20.8586 20.5547 21.6744 20.5547 22.6844V48.8594C20.5547 49.8617 21.3705 50.6852 22.3805 50.6852H38.7428C39.1468 50.6852 39.4731 50.3589 39.4731 49.9549C39.4886 49.5431 39.1546 49.2168 38.7506 49.2168ZM26.3973 20.5012C26.3973 20.307 26.5604 20.1438 26.7546 20.1438H30.2276C30.5383 20.1438 30.818 19.9496 30.919 19.6544C31.2764 18.6443 32.2321 17.9606 33.3042 17.9606C34.3686 17.9606 35.3243 18.6443 35.6817 19.6544C35.7827 19.9496 36.0624 20.1438 36.3731 20.1438H39.846C40.0403 20.1438 40.2034 20.307 40.2034 20.5012V22.6844C40.2034 22.8786 40.0403 23.0418 39.846 23.0418H26.7546C26.5604 23.0418 26.3973 22.8786 26.3973 22.6844V20.5012Z" fill="#303030"/>
<path d="M41.6626 30.3124C41.6626 29.9083 41.3363 29.582 40.9323 29.582H34.3905C33.9865 29.582 33.6602 29.9083 33.6602 30.3124C33.6602 30.7164 33.9865 31.0427 34.3905 31.0427H40.9323C41.3363 31.0504 41.6626 30.7164 41.6626 30.3124Z" fill="#303030"/>
<path d="M37.304 36.8631C37.304 36.4591 36.9777 36.1328 36.5737 36.1328H34.3905C33.9865 36.1328 33.6602 36.4591 33.6602 36.8631C33.6602 37.2671 33.9865 37.5934 34.3905 37.5934H36.5737C36.9699 37.5934 37.304 37.2594 37.304 36.8631Z" fill="#303030"/>
<path d="M34.3905 42.668C33.9865 42.668 33.6602 42.9943 33.6602 43.3983C33.6602 43.8023 33.9865 44.1286 34.3905 44.1286H35.4782C35.8822 44.1286 36.2085 43.8023 36.2085 43.3983C36.2085 42.9943 35.8822 42.668 35.4782 42.668H34.3905Z" fill="#303030"/>
<path d="M31.555 27.5461C31.4307 27.4528 31.2753 27.3984 31.1199 27.3984C30.8868 27.3984 30.6693 27.5072 30.5294 27.6937L28.0121 31.05C27.95 31.1355 27.8568 31.1821 27.748 31.1899C27.7402 31.1899 27.7324 31.1899 27.7247 31.1899C27.6314 31.1899 27.5382 31.151 27.4683 31.0811L26.1786 29.7914C26.0387 29.6516 25.8523 29.5739 25.658 29.5739C25.4638 29.5739 25.2773 29.6516 25.1375 29.7914C24.85 30.0789 24.85 30.545 25.1375 30.8247L27.2974 32.9768C27.3129 32.9846 27.344 33.0079 27.3751 33.0312C27.3984 33.0468 27.4139 33.0701 27.4217 33.0856C27.4294 33.0934 27.4372 33.0934 27.445 33.1012C27.4683 33.1089 27.4916 33.1245 27.5149 33.1322C27.5382 33.14 27.5537 33.1555 27.5693 33.1633C27.5771 33.1633 27.5848 33.1711 27.5848 33.1711C27.6781 33.2022 27.7635 33.2255 27.8334 33.2255C27.9267 33.2255 28.0277 33.2022 28.1209 33.1633C28.1287 33.1555 28.1364 33.1555 28.1442 33.1478C28.1675 33.1322 28.1908 33.1167 28.2141 33.1012C28.2375 33.0856 28.2608 33.0701 28.2918 33.0545C28.3074 33.0468 28.3229 33.039 28.3385 33.0312C28.3462 33.0157 28.3695 32.9846 28.3928 32.9613C28.4162 32.938 28.4395 32.9147 28.455 32.9069L31.7026 28.5794C31.8191 28.424 31.8657 28.2298 31.8424 28.0355C31.8114 27.8335 31.7104 27.6626 31.555 27.5461Z" fill="#303030"/>
<path d="M31.555 34.089C31.4307 33.9958 31.2753 33.9414 31.1199 33.9414C30.8868 33.9414 30.6693 34.0502 30.5294 34.2366L28.0121 37.593C27.95 37.6785 27.8568 37.7251 27.748 37.7329C27.7402 37.7329 27.7324 37.7329 27.7247 37.7329C27.6314 37.7329 27.5382 37.694 27.4683 37.6241L26.1786 36.3344C26.0387 36.1945 25.8523 36.1168 25.658 36.1168C25.4638 36.1168 25.2773 36.1945 25.1375 36.3344C24.85 36.6218 24.85 37.088 25.1375 37.3677L27.2974 39.5198C27.3129 39.5276 27.344 39.5509 27.3751 39.5742C27.3984 39.5897 27.4139 39.6131 27.4217 39.6286C27.4294 39.6364 27.4372 39.6364 27.445 39.6364C27.4683 39.6441 27.4916 39.6597 27.5149 39.6674C27.5382 39.6752 27.5537 39.6907 27.5693 39.6985C27.5771 39.7063 27.5848 39.7063 27.5848 39.7063C27.6781 39.7374 27.7635 39.7607 27.8334 39.7607C27.9267 39.7607 28.0277 39.7374 28.1209 39.6907C28.1287 39.683 28.1364 39.683 28.1442 39.6752C28.1675 39.6597 28.1908 39.6441 28.2141 39.6286C28.2375 39.6131 28.2608 39.5975 28.2918 39.582C28.3074 39.5742 28.3229 39.5664 28.3385 39.5509C28.3462 39.5354 28.3695 39.5043 28.3851 39.481C28.4084 39.4577 28.4317 39.4344 28.4472 39.4266L31.6948 35.099C31.8114 34.9437 31.858 34.7494 31.8347 34.5552C31.8114 34.3843 31.7104 34.2056 31.555 34.089Z" fill="#303030"/>
<path d="M31.1199 40.4922C30.8868 40.4922 30.6693 40.601 30.5294 40.7874L28.0121 44.1438C27.95 44.2292 27.8568 44.2759 27.748 44.2836C27.7402 44.2836 27.7324 44.2836 27.7247 44.2836C27.6314 44.2836 27.5382 44.2448 27.4683 44.1749L26.1786 42.8851C26.0387 42.7453 25.8523 42.6676 25.658 42.6676C25.4638 42.6676 25.2773 42.7453 25.1375 42.8851C24.85 43.1726 24.85 43.6388 25.1375 43.9185L27.2974 46.0706C27.3129 46.0784 27.344 46.1017 27.3751 46.125C27.3984 46.1405 27.4139 46.1638 27.4217 46.1794C27.4294 46.1794 27.4372 46.1871 27.445 46.1871C27.4683 46.1949 27.4916 46.2104 27.5149 46.2182C27.5382 46.226 27.5537 46.2415 27.5693 46.2493C27.5771 46.2571 27.5848 46.257 27.5848 46.257C27.6781 46.2881 27.7635 46.3114 27.8334 46.3114C27.9267 46.3114 28.0277 46.2881 28.1209 46.2493C28.1287 46.2415 28.1364 46.2415 28.1442 46.2337C28.1675 46.2182 28.1908 46.2027 28.2141 46.1871C28.2375 46.1716 28.2608 46.1561 28.2918 46.1405C28.3074 46.1327 28.3229 46.125 28.3385 46.1094C28.3462 46.0939 28.3695 46.0628 28.3851 46.0395C28.4084 46.0162 28.4317 45.9929 28.4472 45.9851L31.6948 41.6576C31.8114 41.5022 31.858 41.308 31.8347 41.1137C31.8036 40.9195 31.7026 40.7486 31.5472 40.632C31.4307 40.5388 31.2753 40.4922 31.1199 40.4922Z" fill="#303030"/>
<path d="M46.3871 33.9414C41.7721 33.9414 38.0195 37.694 38.0195 42.309C38.0195 46.924 41.7721 50.6766 46.3871 50.6766C51.0021 50.6766 54.7548 46.924 54.7548 42.309C54.7548 37.7018 51.0021 33.9414 46.3871 33.9414ZM46.3871 49.216C42.5801 49.216 39.4879 46.116 39.4879 42.3168C39.4879 38.5098 42.5879 35.4176 46.3871 35.4176C50.1941 35.4176 53.2863 38.5098 53.2863 42.3168C53.2863 46.116 50.1941 49.216 46.3871 49.216Z" fill="#303030"/>
<path d="M50.7452 41.5813H47.4743C47.2801 41.5813 47.1169 41.4181 47.1169 41.2239V37.953C47.1169 37.549 46.7906 37.2227 46.3866 37.2227C45.9826 37.2227 45.6562 37.549 45.6562 37.953V42.3116C45.6562 42.7156 45.9826 43.0419 46.3866 43.0419H50.753C51.157 43.0419 51.4833 42.7156 51.4833 42.3116C51.4833 41.9076 51.1492 41.5813 50.7452 41.5813Z" fill="#303030"/>
</svg>
