<svg width="100" height="100" viewBox="0 0 100 100" fill="none" xmlns="http://www.w3.org/2000/svg">
<path d="M25.8982 12.0879H14.8848V61.9755C14.8848 64.3014 16.7726 66.1846 19.0989 66.1846H25.0265L25.8982 12.0879Z" fill="white"/>
<path d="M19.0998 65.9351C16.9131 65.9351 15.1348 64.1589 15.1348 61.9747V12.3359H25.6451L24.7833 65.9351H19.0998Z" fill="white"/>
<path d="M19.0999 66.9747C16.3403 66.9747 14.0938 64.7308 14.0938 61.9745V12.0894C14.0938 11.654 14.4474 11.3008 14.8833 11.3008H25.6476V12.8804H15.6753V61.9769C15.6753 63.8626 17.212 65.3975 19.0999 65.3975H24.7784V66.9771H19.0999V66.9747Z" fill="#053863"/>
<path d="M61.5406 53.4285V12.2129C61.5406 9.81733 59.5979 7.87695 57.1995 7.87695H19.1008C16.7721 7.87695 14.8867 9.7626 14.8867 12.0861C14.8867 14.4096 16.7746 16.2952 19.1008 16.2952L61.5406 53.4285Z" fill="white"/>
<path d="M19.1925 16.0496H19.0978C16.9111 16.0496 15.1328 14.2734 15.1328 12.0893C15.1328 9.9051 16.9111 8.12891 19.0978 8.12891H57.199C59.4555 8.12891 61.2911 9.96231 61.2911 12.2161V52.8844L19.1925 16.0496Z" fill="white"/>
<path d="M60.7501 53.1793V12.2125C60.7501 10.2572 59.1586 8.66756 57.201 8.66756H19.0999C17.212 8.66756 15.6753 10.2024 15.6753 12.0881C15.6753 13.8892 17.0775 15.3718 18.8508 15.4987V17.0808C16.2058 16.9515 14.0938 14.7598 14.0938 12.0881C14.0938 9.33176 16.3403 7.08789 19.0999 7.08789H57.201C60.0304 7.08789 62.3317 9.38649 62.3317 12.2125V53.1793H60.7501Z" fill="#053863"/>
<path d="M60.9745 58.7813C60.7578 58.7788 60.5561 58.6918 60.4067 58.5425C60.2597 58.3933 60.1775 58.1918 60.1825 57.9828L60.7504 16.2C60.7504 14.2497 59.1589 12.6651 57.2013 12.6651H19.1001C18.6642 12.6651 18.3105 12.3118 18.3105 11.8765C18.3105 11.4411 18.6642 11.0879 19.1001 11.0879H57.2013C60.0306 11.0879 62.3319 13.3865 62.3319 16.2125L61.764 58.0077C61.7566 58.4331 61.4029 58.7813 60.9745 58.7813Z" fill="#053863"/>
<path d="M31.0201 4.79102L26.7786 6.37814L22.5371 4.79102V11.8759H31.0201V4.79102Z" fill="white"/>
<path d="M25.0605 12.032V5.00391L28.0726 6.62599L31.0847 5.00391V12.032H25.0605Z" fill="#80B0E8"/>
<path d="M22.5376 12.6645C22.1017 12.6645 21.748 12.3113 21.748 11.8759V4.79108C21.748 4.53236 21.8751 4.28857 22.0893 4.1418C22.2188 4.04975 22.3757 4 22.5376 4C22.6322 4 22.7269 4.01741 22.814 4.04975L26.7791 5.53489L30.7441 4.04975C30.8338 4.01741 30.9259 4 31.0205 4C31.1824 4 31.3393 4.04975 31.4713 4.1418C31.6855 4.28857 31.8126 4.53236 31.8126 4.79108V11.8759C31.8126 12.3113 31.4589 12.6645 31.0205 12.6645H22.5376ZM23.3271 11.0849H30.231V5.93043L27.058 7.11953C26.9683 7.15436 26.8762 7.16928 26.7791 7.16928C26.6819 7.16928 26.5898 7.15187 26.5026 7.11953L23.3271 5.93043V11.0849Z" fill="#053863"/>
<path d="M57.2027 16.2988H19.1016V66.1864H57.2027C59.5987 66.1864 61.5439 64.246 61.5439 61.8504V20.6348C61.5414 18.2392 59.5987 16.2988 57.2027 16.2988Z" fill="white"/>
<path d="M19.3496 65.933V16.543H57.2017C59.4582 16.543 61.2938 18.3764 61.2938 20.6302V61.8458C61.2938 64.0996 59.4582 65.933 57.2017 65.933H19.3496V65.933Z" fill="white"/>
<path d="M19.1001 66.9706C18.6642 66.9706 18.3105 66.6174 18.3105 66.182V16.2944C18.3105 15.8591 18.6642 15.5059 19.1001 15.5059H57.2013C60.0306 15.5059 62.3319 17.8045 62.3319 20.6304V61.846C62.3319 64.672 60.0306 66.9706 57.2013 66.9706H19.1001V66.9706ZM19.8896 65.3909H57.2013C59.1589 65.3909 60.7504 63.8013 60.7504 61.846V20.6304C60.7504 18.6751 59.1589 17.0855 57.2013 17.0855H19.8896V65.3909Z" fill="#053863"/>
<path d="M49.892 24.5566H30.7492C29.4466 24.5566 28.3906 25.0641 28.3906 25.6885V31.2435C28.3906 31.8679 29.4466 32.3754 30.7492 32.3754H49.892C51.1945 32.3754 52.2506 31.8679 52.2506 31.2435V25.691C52.2506 25.0641 51.1945 24.5566 49.892 24.5566Z" fill="white"/>
<path d="M30.7502 32.1278C29.5422 32.1278 28.6406 31.6601 28.6406 31.2447V25.6898C28.6406 25.2718 29.5422 24.8066 30.7502 24.8066H49.8929C51.1008 24.8066 52.0024 25.2743 52.0024 25.6898V31.2447C52.0024 31.6626 51.1008 32.1278 49.8929 32.1278H30.7502Z" fill="white"/>
<path d="M49.8915 33.4218H30.7487C28.7812 33.4218 27.3516 32.5089 27.3516 31.2501V25.6952C27.3516 24.4364 28.7812 23.5234 30.7487 23.5234H49.8915C51.8591 23.5234 53.2887 24.4364 53.2887 25.6952V31.2501C53.2887 32.5064 51.8591 33.4218 49.8915 33.4218ZM29.4312 31.0611C29.6105 31.1705 30.0613 31.3446 30.7487 31.3446H49.8915C50.5789 31.3446 51.0297 31.1705 51.209 31.0611V25.8842C51.0297 25.7748 50.5789 25.6006 49.8915 25.6006H30.7487C30.0613 25.6006 29.6105 25.7748 29.4312 25.8842V31.0611Z" fill="#053863"/>
<path d="M30.7497 33.1679C28.9266 33.1679 27.6016 32.3594 27.6016 31.245V25.6925C27.6016 24.578 28.9266 23.7695 30.7497 23.7695H49.8924C51.7155 23.7695 53.0405 24.578 53.0405 25.6925V31.2474C53.0405 32.3619 51.7155 33.1704 49.8924 33.1704H30.7497V33.1679ZM30.7497 25.3492C30.0648 25.3492 29.5517 25.5159 29.3002 25.6701L29.1806 25.7422V31.1952L29.3002 31.2673C29.5517 31.4216 30.0648 31.5883 30.7497 31.5883H49.8924C50.5773 31.5883 51.0904 31.4216 51.3419 31.2673L51.4615 31.1952V25.7422L51.3419 25.6701C51.0904 25.5159 50.5773 25.3492 49.8949 25.3492H30.7497Z" fill="#053863"/>
<path d="M10.793 60.0664V74.7834C10.793 76.6889 12.3396 78.2338 14.2474 78.2338H58.5925C60.5003 78.2338 62.047 76.6889 62.047 74.7834V44.5433V39.8914C62.047 38.7794 61.1454 37.8789 60.0321 37.8789H45.0611L10.793 60.0664Z" fill="white"/>
<path d="M17.0593 78.2971C15.3802 78.2971 14.0156 76.9593 14.0156 75.313V61.7214L46.387 41.1484H60.5317C61.4564 41.1484 62.2085 41.8858 62.2085 42.7923V75.313C62.2085 76.9569 60.8439 78.2971 59.1648 78.2971H17.0593V78.2971Z" fill="#80B0E8"/>
<path d="M14.244 79.0258C11.9028 79.0258 10 77.1252 10 74.7868V60.0698C10 59.8011 10.1345 59.5524 10.3611 59.4081L44.6293 37.2206C44.7588 37.1385 44.9057 37.0938 45.0602 37.0938H60.0312C61.5778 37.0938 62.8381 38.35 62.8381 39.8973V74.7893C62.8381 77.1277 60.9352 79.0283 58.5941 79.0283H14.244V79.0258ZM11.5815 60.4977V74.7868C11.5815 76.2545 12.777 77.4461 14.244 77.4461H58.5916C60.061 77.4461 61.254 76.252 61.254 74.7868V39.8949C61.254 39.2207 60.7036 38.6709 60.0287 38.6709H45.2918L11.5815 60.4977Z" fill="#053863"/>
<path d="M38.8039 20.5898H27.793V70.4774C27.793 72.8034 29.6808 74.6866 32.0071 74.6866H37.9347L38.8039 20.5898Z" fill="white"/>
<path d="M32.006 74.4371C29.8193 74.4371 28.041 72.6609 28.041 70.4767V20.8379H38.5513L37.6896 74.4371H32.006Z" fill="white"/>
<path d="M32.0061 75.4747C29.2465 75.4747 27 73.2308 27 70.4745V20.5894C27 20.154 27.3537 19.8008 27.7895 19.8008H38.5539V21.3804H28.5815V70.4769C28.5815 72.3626 30.1182 73.8975 32.0061 73.8975H37.6847V75.4771H32.0061V75.4747Z" fill="#053863"/>
<path d="M74.4494 61.9285V20.7129C74.4494 18.3198 72.5067 16.377 70.1082 16.377H32.0071C29.6784 16.377 27.793 18.2626 27.793 20.5861C27.793 22.9096 29.6784 24.7977 32.0071 24.7977L74.4494 61.9285Z" fill="white"/>
<path d="M32.1007 24.5457H32.006C29.8193 24.5457 28.041 22.7695 28.041 20.5854C28.041 18.4012 29.8193 16.625 32.006 16.625H70.1072C72.3637 16.625 74.1993 18.4584 74.1993 20.7122V61.3805L32.1007 24.5457Z" fill="white"/>
<path d="M73.6564 61.6779V20.7111C73.6564 18.7558 72.0649 17.1661 70.1073 17.1661H32.0061C30.1182 17.1661 28.5815 18.701 28.5815 20.5867C28.5815 22.3902 29.9837 23.8704 31.757 23.9973V25.5794C29.112 25.4501 27 23.2584 27 20.5842C27 17.8279 29.2465 15.584 32.0061 15.584H70.1073C72.9366 15.584 75.2379 17.8826 75.2379 20.7086V61.6754H73.6564V61.6779Z" fill="#053863"/>
<path d="M73.8827 67.2872C73.666 67.2847 73.4643 67.1976 73.3149 67.0484C73.1679 66.8991 73.0857 66.6976 73.0907 66.4887L73.6586 24.7059C73.6586 22.7556 72.0671 21.1709 70.1095 21.1709H32.0083C31.5724 21.1709 31.2188 20.8177 31.2188 20.3823C31.2188 19.947 31.5724 19.5938 32.0083 19.5938H70.1095C72.9388 19.5938 75.2401 21.8923 75.2401 24.7183L74.6722 66.5135C74.6673 66.9364 74.3136 67.2847 73.8827 67.2872Z" fill="#053863"/>
<path d="M70.109 24.7969H32.0078V74.6844H70.109C72.505 74.6844 74.4501 72.7441 74.4501 70.3484V29.1329C74.4501 26.7397 72.5074 24.7969 70.109 24.7969Z" fill="white"/>
<path d="M32.2559 74.435V25.0449H70.108C72.3645 25.0449 74.2 26.8783 74.2 29.1322V70.3477C74.2 72.6016 72.3645 74.435 70.108 74.435H32.2559V74.435Z" fill="white"/>
<path d="M32.0083 75.4726C31.5724 75.4726 31.2188 75.1193 31.2188 74.684V24.7964C31.2188 24.3611 31.5724 24.0078 32.0083 24.0078H70.1095C72.9388 24.0078 75.2401 26.3064 75.2401 29.1324V70.348C75.2401 73.174 72.9388 75.4726 70.1095 75.4726H32.0083V75.4726ZM32.8003 73.8954H70.1119C72.0696 73.8954 73.6611 72.3058 73.6611 70.3505V29.1324C73.6611 27.1771 72.0696 25.5875 70.1119 25.5875H32.8003V73.8954Z" fill="#053863"/>
<path d="M62.7982 33.0605H43.6555C42.3529 33.0605 41.2969 33.568 41.2969 34.1924V39.7474C41.2969 40.3718 42.3529 40.8793 43.6555 40.8793H62.7982C64.1008 40.8793 65.1568 40.3718 65.1568 39.7474V34.1924C65.1568 33.568 64.1008 33.0605 62.7982 33.0605Z" fill="white"/>
<path d="M43.6545 40.6298C42.4465 40.6298 41.5449 40.1621 41.5449 39.7467V34.1917C41.5449 33.7738 42.4465 33.3086 43.6545 33.3086H62.7972C64.0051 33.3086 64.9067 33.7763 64.9067 34.1917V39.7467C64.9067 40.1646 64.0051 40.6298 62.7972 40.6298H43.6545Z" fill="white"/>
<path d="M62.7977 41.9179H43.655C41.6874 41.9179 40.2578 41.005 40.2578 39.7462V34.1913C40.2578 32.9325 41.6874 32.0195 43.655 32.0195H62.7977C64.7653 32.0195 66.1949 32.9325 66.1949 34.1913V39.7462C66.1949 41.005 64.7678 41.9179 62.7977 41.9179ZM42.3375 39.5571C42.5168 39.6666 42.9676 39.8407 43.655 39.8407H62.7977C63.4851 39.8407 63.9359 39.6666 64.1153 39.5571V34.3803C63.9359 34.2709 63.4851 34.0967 62.7977 34.0967H43.655C42.9676 34.0967 42.5168 34.2709 42.3375 34.3803V39.5571Z" fill="#053863"/>
<path d="M43.6559 41.6724C41.8328 41.6724 40.5078 40.8639 40.5078 39.7494V34.1944C40.5078 33.08 41.8328 32.2715 43.6559 32.2715H62.7987C64.6218 32.2715 65.9468 33.08 65.9468 34.1944V39.7494C65.9468 40.8639 64.6218 41.6724 62.7987 41.6724H43.6559ZM43.6559 33.8511C42.971 33.8511 42.4604 34.0178 42.2089 34.1721L42.0893 34.2442V39.6972L42.2089 39.7693C42.4604 39.9235 42.9735 40.0902 43.6584 40.0902H62.8012C63.4836 40.0902 63.9966 39.9235 64.2482 39.7693L64.3677 39.6972V34.2417L64.2482 34.1696C63.9966 34.0153 63.4836 33.8487 62.8012 33.8487H43.6559V33.8511Z" fill="#053863"/>
<path d="M23.9277 69.5527V84.2697C23.9277 86.1752 25.4744 87.7201 27.3822 87.7201H71.7298C73.6376 87.7201 75.1843 86.1752 75.1843 84.2697V54.0297V49.3778C75.1843 48.2658 74.2827 47.3652 73.1694 47.3652H58.1934L23.9277 69.5527Z" fill="white"/>
<path d="M27.3792 87.4706C25.6109 87.4706 24.1738 86.0352 24.1738 84.269V69.6863L58.2651 47.6133H73.1614C74.1352 47.6133 74.9272 48.4044 74.9272 49.377V84.269C74.9272 86.0327 73.4902 87.4706 71.7218 87.4706H27.3792V87.4706Z" fill="white"/>
<path d="M27.3787 88.5101C25.0376 88.5101 23.1348 86.6096 23.1348 84.2712V69.5542C23.1348 69.2855 23.2693 69.0367 23.4959 68.8924L57.7641 46.705C57.8936 46.6229 58.0405 46.5781 58.1949 46.5781H73.1659C74.7126 46.5781 75.9728 47.8344 75.9728 49.3817V84.2737C75.9728 86.6121 74.07 88.5126 71.7288 88.5126H27.3787V88.5101ZM24.7163 69.982V84.2712C24.7163 85.7389 25.9118 86.9305 27.3787 86.9305H71.7264C73.1958 86.9305 74.3888 85.7364 74.3888 84.2712V49.3767C74.3888 48.7026 73.8384 48.1528 73.1634 48.1528H58.4266L24.7163 69.982Z" fill="#053863"/>
<path d="M51.7615 29.1875H40.748V79.0751C40.748 81.401 42.6359 83.2842 44.9621 83.2842H50.8898L51.7615 29.1875Z" fill="white"/>
<path d="M44.9631 83.0367C42.7763 83.0367 40.998 81.2605 40.998 79.0763V29.4375H51.5084L50.6466 83.0367H44.9631V83.0367Z" fill="white"/>
<path d="M44.9631 84.0723C42.2036 84.0723 39.957 81.8284 39.957 79.0721V29.187C39.957 28.7517 40.3107 28.3984 40.7466 28.3984H51.5109V29.9781H41.5386V79.0746C41.5386 80.9603 43.0753 82.4951 44.9631 82.4951H50.6417V84.0748H44.9631V84.0723Z" fill="#053863"/>
<path d="M87.4044 70.5262V29.3106C87.4044 26.9175 85.4618 24.9746 83.0633 24.9746H44.9621C42.6334 24.9746 40.748 26.8603 40.748 29.1837C40.748 31.5072 42.6359 33.3929 44.9621 33.3929L87.4044 70.5262Z" fill="white"/>
<path d="M45.0577 33.1492H44.9631C42.7763 33.1492 40.998 31.373 40.998 29.1889C40.998 27.0047 42.7763 25.2285 44.9631 25.2285H83.0643C85.3207 25.2285 87.1563 27.0619 87.1563 29.3157V69.984L45.0577 33.1492Z" fill="white"/>
<path d="M86.6134 70.2789V29.3121C86.6134 27.3568 85.0219 25.7672 83.0643 25.7672H44.9631C43.0753 25.7672 41.5386 27.3021 41.5386 29.1877C41.5386 30.9913 42.9408 32.4714 44.7141 32.5983V34.1804C42.0691 34.0511 39.957 31.8594 39.957 29.1877C39.957 26.4314 42.2036 24.1875 44.9631 24.1875H83.0643C85.8936 24.1875 88.1949 26.4861 88.1949 29.3121V70.2789H86.6134Z" fill="#053863"/>
<path d="M86.8403 75.8888C86.6236 75.8863 86.4219 75.7992 86.2724 75.6499C86.1255 75.5007 86.0433 75.2992 86.0483 75.0902L86.6161 33.3075C86.6161 31.3571 85.0246 29.7725 83.067 29.7725H44.9633C44.5275 29.7725 44.1738 29.4192 44.1738 28.9839C44.1738 28.5486 44.5275 28.1953 44.9633 28.1953H83.0645C85.8938 28.1953 88.1952 30.4939 88.1952 33.3199L87.6273 75.1151C87.6223 75.538 87.2687 75.8863 86.8403 75.8888Z" fill="#053863"/>
<path d="M83.0641 33.3984H44.9629V83.286H83.0641C85.46 83.286 87.4052 81.3456 87.4052 78.95V37.7344C87.4052 35.3388 85.4625 33.3984 83.0641 33.3984Z" fill="white"/>
<path d="M45.2129 83.0346V33.6445H83.065C85.3215 33.6445 87.1571 35.4779 87.1571 37.7318V78.9473C87.1571 81.2012 85.3215 83.0346 83.065 83.0346H45.2129Z" fill="white"/>
<path d="M44.9633 84.0702C44.5275 84.0702 44.1738 83.717 44.1738 83.2816V33.3941C44.1738 32.9587 44.5275 32.6055 44.9633 32.6055H83.0645C85.8938 32.6055 88.1952 34.9041 88.1952 37.7301V78.9456C88.1952 81.7716 85.8938 84.0702 83.0645 84.0702H44.9633ZM45.7554 82.4906H83.067C85.0246 82.4906 86.6161 80.9009 86.6161 78.9456V37.7301C86.6161 35.7748 85.0246 34.1851 83.067 34.1851H45.7554V82.4906Z" fill="#053863"/>
<path d="M75.7572 41.6602H56.6145C55.3119 41.6602 54.2559 42.1676 54.2559 42.792V48.347C54.2559 48.9714 55.3119 49.4789 56.6145 49.4789H75.7572C77.0598 49.4789 78.1158 48.9714 78.1158 48.347V42.792C78.1133 42.1652 77.0573 41.6602 75.7572 41.6602Z" fill="#80B0E8"/>
<path d="M56.6134 49.2313C55.4055 49.2313 54.5039 48.7637 54.5039 48.3482V42.7933C54.5039 42.3753 55.4055 41.9102 56.6134 41.9102H75.7562C76.9641 41.9102 77.8657 42.3778 77.8657 42.7933V48.3482C77.8657 48.7662 76.9641 49.2313 75.7562 49.2313H56.6134Z" fill="#80B0E8"/>
<path d="M56.613 50.27C54.7898 50.27 53.4648 49.4615 53.4648 48.3471V42.7921C53.4648 41.6776 54.7898 40.8691 56.613 40.8691H75.7557C77.5788 40.8691 78.9038 41.6776 78.9038 42.7921V48.3471C78.9038 49.4615 77.5788 50.27 75.7557 50.27H56.613V50.27ZM56.613 42.4488C55.9305 42.4488 55.4175 42.6155 55.1659 42.7697L55.0464 42.8419V48.2948L55.1634 48.367C55.415 48.5212 55.928 48.6879 56.613 48.6879H75.7557C76.4406 48.6879 76.9512 48.5212 77.2052 48.367L77.3248 48.2948V42.8394L77.2052 42.7672C76.9537 42.613 76.4406 42.4463 75.7582 42.4463H56.613V42.4488Z" fill="#053863"/>
<path d="M38.2754 75.6054V90.3224C38.2754 92.228 39.8221 93.7728 41.7299 93.7728H86.0775C87.9853 93.7728 89.5319 92.228 89.5319 90.3224V60.0824V55.4305C89.5319 54.3185 88.6303 53.418 87.517 53.418H72.546L38.2754 75.6054Z" fill="white"/>
<path d="M46.1131 93.3552C44.469 93.3552 43.1328 92.0535 43.1328 90.4518V77.2297L73.8258 58.2168H87.6758C88.5812 58.2168 89.3176 58.9342 89.3176 59.8163V90.454C89.3176 92.0535 87.9815 93.3574 86.3374 93.3574H45.1091L46.1131 93.3552Z" fill="#80B0E8"/>
<path d="M41.7264 94.5673C39.3852 94.5673 37.4824 92.6667 37.4824 90.3283V75.6113C37.4824 75.3427 37.6169 75.0939 37.8436 74.9471L72.1117 52.7597C72.2412 52.6776 72.3882 52.6328 72.5426 52.6328H87.5136C89.0602 52.6328 90.3205 53.8891 90.3205 55.4364V90.3283C90.3205 92.6667 88.4177 94.5673 86.0765 94.5673H41.7264ZM39.064 76.0392V90.3283C39.064 91.7961 40.2594 92.9877 41.7264 92.9877H86.0715C87.541 92.9877 88.734 91.7936 88.734 90.3283V55.4339C88.734 54.7598 88.1835 54.21 87.5086 54.21H72.7717L39.064 76.0392Z" fill="#053863"/>
</svg>
