<svg width="100" height="100" viewBox="0 0 100 100" fill="none" xmlns="http://www.w3.org/2000/svg">
<path d="M55.0906 18.8105L55.0586 73.3006L93.444 73.9986C94.6232 74.0767 95.6197 73.0778 95.6197 71.8217V20.9921C95.6197 19.7865 94.7032 18.8105 93.5697 18.8105H55.0906Z" fill="#80B0E8"/>
<path d="M93.5719 73.7689C93.5331 73.7689 93.4965 73.7666 93.4577 73.7643L55.2871 73.0685L55.3191 19.0332H93.5696C94.5729 19.0332 95.3911 19.9081 95.3911 20.9851V71.817C95.3911 72.3429 95.1991 72.8343 94.8518 73.204C94.5089 73.5691 94.0541 73.7689 93.5719 73.7689Z" fill="#80B0E8"/>
<path d="M93.576 74.8245C93.5143 74.8245 93.4526 74.8222 93.3909 74.8176L55.0444 74.1218C54.6033 74.1126 54.2422 73.7452 54.2422 73.302L54.2742 18.812C54.2742 18.3596 54.6398 17.9922 55.0901 17.9922H93.5692C95.1484 17.9922 96.435 19.3378 96.435 20.9935V71.8208C96.435 72.6728 96.0877 73.4857 95.4843 74.0552C94.9587 74.5512 94.2799 74.8245 93.576 74.8245ZM55.874 72.496L93.4572 73.1803C93.4777 73.1803 93.5052 73.1826 93.5326 73.1826C93.8594 73.1826 94.1405 73.0746 94.369 72.8588C94.6456 72.5993 94.8033 72.2204 94.8033 71.8231V20.9935C94.8033 20.2426 94.2502 19.6318 93.5692 19.6318H55.906L55.874 72.496Z" fill="#053863"/>
<path d="M15.0391 20.9921V71.8194C15.0391 73.0778 16.0355 74.0744 17.2148 73.9963L55.0585 73.2983V18.8105H17.0868C15.9555 18.8105 15.0391 19.7865 15.0391 20.9921Z" fill="#80B0E8"/>
<path d="M17.05 74.8245C16.3667 74.8245 15.6993 74.5512 15.1714 74.0552C14.5681 73.4857 14.2207 72.6728 14.2207 71.8208V20.9935C14.2207 19.3378 15.5051 17.9922 17.0866 17.9922H55.0583C55.5085 17.9922 55.8742 18.3596 55.8742 18.812V73.302C55.8742 73.7452 55.5154 74.1149 55.072 74.1218L17.2283 74.8199C17.162 74.8222 17.1071 74.8245 17.05 74.8245ZM17.0866 19.6318C16.4055 19.6318 15.8525 20.2426 15.8525 20.9935V71.8208C15.8525 72.2204 16.0102 72.597 16.2867 72.8565C16.5107 73.0655 16.7963 73.1826 17.0912 73.1826C17.114 73.1826 17.1346 73.1826 17.1574 73.1803L54.2401 72.4937V19.6318H17.0866Z" fill="#053863"/>
<path d="M19.375 16.8823C19.375 36.1877 19.375 51.4055 19.375 70.7086C31.1882 65.3168 47.0533 67.7417 55.0591 73.2966C55.0591 53.9912 55.1231 36.1854 55.1231 16.88C43.3099 11.4927 31.1905 11.4927 19.375 16.8823Z" fill="white"/>
<path d="M54.8305 72.8672C49.7935 69.526 42.0049 67.4616 34.3648 67.4616C28.9896 67.4616 23.8955 68.4628 19.6035 70.3573V17.0315C25.4107 14.4022 31.3458 13.0703 37.249 13.0703C43.1522 13.0703 49.0873 14.4022 54.8945 17.0315C54.8945 26.6325 54.8785 36.0154 54.8625 45.0906C54.8465 54.0762 54.8305 63.3649 54.8305 72.8672Z" fill="white"/>
<path d="M55.0592 74.1185C54.8924 74.1185 54.7324 74.0679 54.5953 73.9738C49.732 70.5982 41.9799 68.5016 34.365 68.5016C29.0172 68.5016 23.9482 69.5235 19.7111 71.457C19.6037 71.5052 19.4917 71.5305 19.3729 71.5305C19.2152 71.5305 19.062 71.4846 18.9295 71.3996C18.6964 71.248 18.5547 70.9908 18.5547 70.7107V16.8843C18.5547 16.5628 18.7421 16.2712 19.0323 16.138C25.0543 13.3916 31.1815 12 37.2492 12C43.3192 12 49.4463 13.3916 55.4614 16.1357C55.7517 16.2689 55.9391 16.5605 55.9391 16.882C55.9391 26.6668 55.9231 36.0336 55.9071 45.0904C55.8911 53.6672 55.8751 63.3899 55.8751 73.2964C55.8751 73.6018 55.7082 73.8796 55.4386 74.022C55.322 74.0863 55.1917 74.1185 55.0592 74.1185ZM34.3079 66.8896C41.4383 66.8896 48.763 68.6509 53.9005 71.604L54.2433 71.8015V71.4065C54.2456 62.29 54.2616 53.5478 54.2753 45.0926V44.7183C54.2913 35.9302 54.305 26.8459 54.3073 17.5663V17.4171L54.1702 17.3574C48.5824 14.898 42.8895 13.6511 37.2492 13.6511C31.6088 13.6511 25.9159 14.898 20.3281 17.3574L20.191 17.4171V69.4684L20.5018 69.3444C24.579 67.7369 29.3531 66.8896 34.3079 66.8896Z" fill="#053863"/>
<path d="M55.1226 16.8817C55.1226 36.1871 55.0586 53.993 55.0586 73.2983C63.9282 67.9065 79.5671 65.3185 91.3803 70.7104C91.3803 51.405 91.3803 36.1871 91.3803 16.884C79.5671 11.4922 66.938 11.4922 55.1226 16.8817Z" fill="white"/>
<path d="M55.2871 72.8947C55.2871 63.3833 55.3031 54.0854 55.3191 45.0906C55.3351 36.0154 55.3511 26.6302 55.3511 17.0315C61.1606 14.4022 67.1803 13.0703 73.2503 13.0703C79.3202 13.0703 85.3422 14.4022 91.1494 17.0315V70.3573C86.9214 68.4926 81.8982 67.5075 76.5892 67.5075C68.9537 67.5075 61.0257 69.5168 55.2871 72.8947Z" fill="white"/>
<path d="M55.0584 74.1185C54.919 74.1185 54.7796 74.0817 54.6562 74.0128C54.4002 73.8682 54.2402 73.5949 54.2402 73.2987C54.2402 63.3945 54.2562 53.6695 54.2722 45.0881C54.2882 35.9693 54.3042 26.5382 54.3042 16.882C54.3042 16.5605 54.4916 16.2689 54.7819 16.1357C60.7993 13.3916 67.011 12 73.2524 12C79.4938 12 85.7055 13.3916 91.7183 16.1357C92.0086 16.2689 92.196 16.5605 92.196 16.882V70.7084C92.196 70.9885 92.0566 71.2457 91.8212 71.3973C91.6886 71.4823 91.5355 71.5282 91.3801 71.5282C91.2635 71.5282 91.1493 71.5029 91.0418 71.4547C86.8779 69.5556 81.8866 68.5521 76.6028 68.5521C68.9878 68.5521 61.0918 70.589 55.4812 73.9991C55.3532 74.0794 55.207 74.1185 55.0584 74.1185ZM73.2524 13.6465C67.4543 13.6465 61.6746 14.8934 56.0754 17.3528L55.9383 17.4125V17.5618C55.9383 26.9699 55.9223 36.1828 55.9063 45.0904C55.8926 53.5754 55.8766 62.3497 55.8743 71.5029V71.8818L56.208 71.705C61.9694 68.6715 69.4152 66.9309 76.637 66.9309C81.6055 66.9309 86.1854 67.7415 90.2488 69.3398L90.5596 69.4615V17.4148L90.4225 17.3551C84.8279 14.8934 79.0504 13.6465 73.2524 13.6465Z" fill="#053863"/>
<path d="M85.8566 57.6595C77.4304 55.0692 69.0727 55.0692 60.6465 57.6595H85.8566Z" fill="white"/>
<path d="M62.2734 57.4327C65.9346 56.4475 69.621 55.9492 73.2524 55.9492C76.8839 55.9492 80.5703 56.4475 84.2314 57.4327H62.2734Z" fill="white"/>
<path d="M86.1274 58.4787C86.0474 58.4787 85.9674 58.4672 85.8874 58.4419C81.7463 57.1698 77.5869 56.5245 73.5212 56.5245C69.4555 56.5245 65.2961 57.1698 61.155 58.4419C61.0773 58.4649 60.9973 58.4787 60.9173 58.4787C60.5562 58.4787 60.2431 58.2445 60.1357 57.8977C60.0031 57.466 60.2477 57.0067 60.6773 56.8735C64.919 55.5692 69.2407 54.9102 73.5212 54.9102C77.8017 54.9102 82.1234 55.5715 86.3651 56.8735C86.7947 57.0067 87.0393 57.466 86.9067 57.8977C86.8039 58.2467 86.4885 58.4787 86.1274 58.4787Z" fill="#053863"/>
<path d="M85.8566 47.1712C77.4304 44.5809 69.0727 44.5809 60.6465 47.1712H85.8566Z" fill="white"/>
<path d="M62.2734 46.9424C65.9346 45.9573 69.621 45.459 73.2524 45.459C76.8839 45.459 80.5703 45.9573 84.2314 46.9424H62.2734Z" fill="white"/>
<path d="M86.1251 47.9924C86.0451 47.9924 85.9651 47.9809 85.8874 47.9556C81.7463 46.6834 77.5869 46.0382 73.5212 46.0382C69.4555 46.0382 65.2961 46.6834 61.155 47.9556C61.0773 47.9786 60.9973 47.9924 60.9173 47.9924C60.5562 47.9924 60.2431 47.7581 60.1357 47.4114C60.0031 46.9797 60.2477 46.5204 60.6773 46.3872C64.919 45.0829 69.2407 44.4238 73.5212 44.4238C77.8017 44.4238 82.1234 45.0852 86.3651 46.3872C86.7947 46.5204 87.0393 46.9797 86.9067 47.4114C86.8016 47.7581 86.4862 47.9924 86.1251 47.9924Z" fill="#053863"/>
<path d="M85.8566 36.6829C77.4304 34.0927 69.0727 34.0927 60.6465 36.6829H85.8566Z" fill="white"/>
<path d="M62.2734 36.4541C65.9346 35.469 69.621 34.9707 73.2524 34.9707C76.8839 34.9707 80.5703 35.469 84.2314 36.4541H62.2734Z" fill="white"/>
<path d="M60.9173 37.5025C60.5562 37.5025 60.2431 37.2682 60.1357 36.9215C60.0031 36.4898 60.2477 36.0305 60.6773 35.8973C64.919 34.593 69.2407 33.9316 73.5212 33.9316C77.8017 33.9316 82.1234 34.593 86.3651 35.8973C86.7947 36.0305 87.0393 36.4898 86.9067 36.9215C86.8016 37.2682 86.4862 37.5025 86.1251 37.5025C86.0451 37.5025 85.9651 37.491 85.8874 37.4657C81.7486 36.1935 77.5869 35.5483 73.5212 35.5483C69.4555 35.5483 65.2938 36.1935 61.1527 37.4657C61.0773 37.491 60.9973 37.5025 60.9173 37.5025Z" fill="#053863"/>
<path d="M82.1474 25.2182C74.9736 23.6589 67.834 23.9827 60.6465 26.1918L82.1474 25.2182Z" fill="white"/>
<path d="M62.6094 25.8744C66.1609 24.9489 69.7306 24.4805 73.2524 24.4805C75.5561 24.4805 77.8895 24.6803 80.2091 25.0775L62.6094 25.8744Z" fill="white"/>
<path d="M60.9173 27.0129C60.5562 27.0129 60.2431 26.7787 60.1357 26.4319C60.0031 26.0002 60.2477 25.541 60.6773 25.4078C64.9304 24.1011 69.2589 23.4375 73.5441 23.4375C76.5608 23.4375 79.6026 23.7659 82.5873 24.4157C83.0261 24.5122 83.3072 24.9485 83.2113 25.3917C83.1313 25.766 82.7953 26.0393 82.4136 26.0393C82.3565 26.0393 82.2971 26.0324 82.24 26.0209C79.3147 25.3848 76.3711 25.061 73.4938 25.061C69.3824 25.061 65.3441 25.6879 61.1504 26.9762C61.0773 27.0014 60.9973 27.0129 60.9173 27.0129Z" fill="#053863"/>
<path d="M8.52888 78.573H48.9597V29.1947C48.9597 27.2129 47.3485 25.6055 45.3602 25.6055H7.41589C5.4276 25.6055 3.81641 27.2129 3.81641 29.1947V83.2047L8.52888 78.573Z" fill="white"/>
<path d="M8.19141 32.7788C8.19141 31.0542 9.56215 29.6484 11.2456 29.6484H45.6261C47.3095 29.6484 48.6802 31.0521 48.6802 32.7788V78.577H12.1691L8.19141 82.5953V32.7788Z" fill="#80B0E8"/>
<path d="M3 82.9742V29.1961C3 26.7643 4.98143 24.7871 7.41537 24.7871H45.3619C47.7959 24.7871 49.7773 26.7643 49.7773 29.1961V78.5767C49.7773 79.0291 49.4117 79.3965 48.9614 79.3965H8.75689V77.7569H48.1433V29.1961C48.1433 27.669 46.8954 26.429 45.3597 26.429H7.41537C5.88187 26.429 4.63405 27.6713 4.63405 29.1961V82.9765H3V82.9742Z" fill="#053863"/>
<path d="M40.3848 41.8633H12.1191V64.4295H40.3848V41.8633Z" fill="#80B0E8"/>
<path d="M40.1563 42.0898H12.3477V64.1968H40.1563V42.0898Z" fill="white"/>
<path d="M12.1186 65.2468C11.6684 65.2468 11.3027 64.8794 11.3027 64.427V41.8608C11.3027 41.4084 11.6684 41.041 12.1186 41.041H40.382C40.8322 41.041 41.1979 41.4084 41.1979 41.8608V64.427C41.1979 64.8794 40.8322 65.2468 40.382 65.2468H12.1186ZM12.9345 63.6049H39.5661V42.6783H12.9345V63.6049Z" fill="#053863"/>
<path d="M48.7354 78.5723H7.68752C5.55068 78.5723 3.81836 80.2991 3.81836 82.4324V83.1259C3.81836 85.2317 5.53011 86.9379 7.64181 86.9379H47.3481C48.2212 86.9379 48.8131 86.0469 48.4657 85.25C46.3723 80.4461 48.9639 78.7973 48.9639 78.7973C48.9593 78.6733 48.8588 78.5723 48.7354 78.5723Z" fill="white"/>
<path d="M7.63934 87.7591C5.08199 87.7591 3 85.6809 3 83.1274V82.4339C3 79.8528 5.10256 77.7539 7.68733 77.7539H48.7375C49.3111 77.7539 49.7773 78.2224 49.7773 78.7987C49.7773 79.0812 49.6356 79.3407 49.3979 79.4922C49.3088 79.5565 47.4736 80.9343 49.2105 84.9231C49.4825 85.5477 49.4231 86.2619 49.0506 86.8337C48.6735 87.4123 48.0359 87.7591 47.3457 87.7591H7.63934V87.7591ZM7.68733 79.3958C6.003 79.3958 4.63405 80.7598 4.63405 82.4339V83.1274C4.63405 84.7784 5.98243 86.1195 7.64162 86.1195H47.348C47.4874 86.1195 47.6108 86.0529 47.6862 85.9381C47.7273 85.8738 47.789 85.7406 47.7159 85.5799C46.4612 82.7002 46.7697 80.8035 47.252 79.7196L47.3959 79.3958H7.68733V79.3958Z" fill="#053863"/>
<path d="M9.17331 83.831C8.72308 83.831 8.35742 83.4636 8.35742 83.0112C8.35742 82.5588 8.72308 82.1914 9.17331 82.1914H42.7022C43.1525 82.1914 43.5181 82.5588 43.5181 83.0112C43.5181 83.4636 43.1525 83.831 42.7022 83.831H9.17331Z" fill="#053863"/>
<path d="M16.5669 57.9692C16.4755 57.9692 16.3841 57.9532 16.2972 57.9233C16.0915 57.8498 15.927 57.7029 15.831 57.5054C15.7373 57.3079 15.7236 57.0851 15.7967 56.8785L18.7746 48.3613C18.8888 48.0329 19.1997 47.8125 19.5447 47.8125C19.8921 47.8125 20.2007 48.0329 20.3149 48.3613L23.2699 56.8555C23.3408 57.0622 23.3294 57.2849 23.2357 57.4824C23.142 57.6799 22.9751 57.8292 22.7694 57.9004C22.6826 57.9302 22.5912 57.9463 22.4998 57.9463C22.1524 57.9463 21.8438 57.7258 21.7296 57.3952L19.5447 51.1124L17.3394 57.4204C17.2205 57.7488 16.912 57.9692 16.5669 57.9692Z" fill="#053863"/>
<path d="M17.7241 56.0537C17.2739 56.0537 16.9082 55.6862 16.9082 55.2339C16.9082 54.7815 17.2739 54.4141 17.7241 54.4141H21.3601C21.8104 54.4141 22.176 54.7815 22.176 55.2339C22.176 55.6862 21.8104 56.0537 21.3601 56.0537H17.7241Z" fill="#053863"/>
<path d="M30.7222 57.3741C30.4182 57.3741 30.1417 57.2064 30 56.9378C29.8583 56.6691 29.8766 56.3453 30.0457 56.0927L34.2462 49.8857H30.4936C30.0434 49.8857 29.6777 49.5183 29.6777 49.0659C29.6777 48.6135 30.0434 48.2461 30.4936 48.2461H35.7889C36.0928 48.2461 36.3694 48.4137 36.5111 48.6824C36.6527 48.9511 36.6345 49.2749 36.4653 49.5275L32.2648 55.7345H36.4265C36.8767 55.7345 37.2424 56.1019 37.2424 56.5543C37.2424 57.0066 36.8767 57.3741 36.4265 57.3741H30.7222Z" fill="#053863"/>
<path d="M24.3042 53.499C23.8539 53.499 23.4883 53.1315 23.4883 52.6792C23.4883 52.2268 23.8539 51.8594 24.3042 51.8594H28.6898C29.14 51.8594 29.5057 52.2268 29.5057 52.6792C29.5057 53.1315 29.14 53.499 28.6898 53.499H24.3042Z" fill="#053863"/>
</svg>
