<svg width="26" height="26" viewBox="0 0 26 26" fill="none" xmlns="http://www.w3.org/2000/svg">
<path d="M17.422 12.484C17.422 10.944 17.24 9.446 16.428 8.312C15.728 7.346 14.65 6.758 13.04 6.758C11.416 6.758 10.338 7.346 9.638 8.312C8.826 9.446 8.644 10.944 8.644 12.484C8.644 14.038 8.826 15.55 9.638 16.684C10.338 17.65 11.416 18.224 13.04 18.224C14.118 18.224 14.986 17.958 15.63 17.482L16.876 18.546L17.94 17.314L16.694 16.264C17.282 15.186 17.422 13.856 17.422 12.484ZM15.378 12.484C15.378 13.618 15.294 14.36 15.126 14.92L13.894 13.87L12.83 15.088L14.146 16.222C13.852 16.39 13.46 16.474 13.04 16.474C12.228 16.474 11.654 16.166 11.29 15.634C10.884 15.018 10.688 14.178 10.688 12.484C10.688 10.818 10.884 9.964 11.29 9.362C11.654 8.83 12.228 8.522 13.04 8.522C13.838 8.522 14.412 8.83 14.776 9.362C15.196 9.964 15.378 10.818 15.378 12.484Z" fill="#2E62C5"/>
<circle cx="13" cy="13" r="12.5357" stroke="#2E63C5" stroke-width="0.928571"/>
</svg>
