<svg width="26" height="27" viewBox="0 0 26 27" fill="none" xmlns="http://www.w3.org/2000/svg">
<circle cx="13" cy="13.1523" r="13" fill="#2E63C5"/>
<path d="M17.422 12.6363C17.422 11.0963 17.24 9.59834 16.428 8.46434C15.728 7.49834 14.65 6.91034 13.04 6.91034C11.416 6.91034 10.338 7.49834 9.638 8.46434C8.826 9.59834 8.644 11.0963 8.644 12.6363C8.644 14.1903 8.826 15.7023 9.638 16.8363C10.338 17.8023 11.416 18.3763 13.04 18.3763C14.118 18.3763 14.986 18.1103 15.63 17.6343L16.876 18.6983L17.94 17.4663L16.694 16.4163C17.282 15.3383 17.422 14.0083 17.422 12.6363ZM15.378 12.6363C15.378 13.7703 15.294 14.5123 15.126 15.0723L13.894 14.0223L12.83 15.2403L14.146 16.3743C13.852 16.5423 13.46 16.6263 13.04 16.6263C12.228 16.6263 11.654 16.3183 11.29 15.7863C10.884 15.1703 10.688 14.3303 10.688 12.6363C10.688 10.9703 10.884 10.1163 11.29 9.51434C11.654 8.98234 12.228 8.67434 13.04 8.67434C13.838 8.67434 14.412 8.98234 14.776 9.51434C15.196 10.1163 15.378 10.9703 15.378 12.6363Z" fill="white"/>
</svg>
