<svg width="64" height="64" viewBox="0 0 64 64" fill="none" xmlns="http://www.w3.org/2000/svg">
<path d="M2.92773 57.5674V30.2129L30.2005 48.2674H33.7187L60.0914 30.8538L60.6505 57.5674L57.4732 60.8538H6.90957L2.92773 58.4674V57.5674Z" fill="white"/>
<path d="M8.25 57.7139V30.3594L33.0085 48.4139H36.2024L60.1439 31.0003L60.6515 57.7139L57.7671 61.0003H11.8648L8.25 58.6139V57.7139Z" fill="#80B0E8"/>
<path d="M51.5678 35.755V5.18225L48.4996 3.16406H14.1496L12.3633 4.95043V36.5459L30.6497 48.4777H33.7178L51.5678 35.755Z" fill="white"/>
<path d="M4.57812 29.746L12.0781 23.7188V35.4733L4.57812 29.746Z" fill="white"/>
<path d="M59.2461 29.746L51.7461 23.7188V35.4733L59.2461 29.746Z" fill="white"/>
<path d="M6.95001 62C4.22273 62 2 59.7773 2 57.05V30.1318C2.01364 30.0636 2.02727 30.0091 2.04091 29.9545C2.05454 29.8727 2.06819 29.7909 2.09546 29.7091C2.12274 29.6273 2.14998 29.5455 2.19089 29.4773C2.21816 29.4364 2.23181 29.4091 2.24544 29.3682C2.27272 29.3409 2.29999 29.3136 2.32726 29.2864C2.3818 29.2182 2.43637 29.1636 2.51819 29.1091C2.57273 29.0682 2.61365 29.0136 2.65456 28.9727L11.3545 22.0046C11.5045 21.8818 11.5864 21.7046 11.5864 21.5136V5.55909C11.5864 3.59546 13.1682 2 15.1045 2H48.9227C50.8591 2 52.4409 3.59546 52.4409 5.55909V21.5136C52.4409 21.7046 52.5227 21.8818 52.6727 22.0046L61.3864 28.9727C61.4136 29.0273 61.4545 29.0682 61.5091 29.1091C61.5909 29.1636 61.6455 29.2318 61.7 29.2864C61.7273 29.3136 61.7545 29.3409 61.7818 29.3682C61.7955 29.4091 61.8091 29.4364 61.8364 29.4773C61.8773 29.5591 61.9182 29.6409 61.9454 29.7227C61.9727 29.8045 61.9864 29.8864 62 29.9682C62 30.0364 62.0136 30.0909 62.0409 30.1455V57.05C62.0409 59.7773 59.8182 62 57.0909 62H6.95001ZM51.1455 53.6818C51.4864 53.6818 51.8136 53.8182 52.0591 54.0636C52.5636 54.5682 52.5636 55.3864 52.0591 55.8773L49.5909 58.3591C49.4136 58.5364 49.3591 58.8091 49.4545 59.0409C49.55 59.2727 49.7818 59.4227 50.0409 59.4227H57.0636C58.3727 59.4227 59.45 58.3591 59.45 57.0364V33.7318C59.45 33.5 59.3136 33.2818 59.1091 33.1727C59.0136 33.1182 58.9182 33.1046 58.8227 33.1046C58.7 33.1046 58.5773 33.1455 58.4682 33.2136L36.5818 48.3636C36.5409 48.3909 36.5 48.4182 36.4591 48.4318C34.7136 49.3727 33.35 49.7818 32.0137 49.7818C30.6909 49.7818 29.3137 49.3591 27.5818 48.4318C27.5409 48.4045 27.5 48.3773 27.4591 48.35L5.58637 33.2C5.47728 33.1318 5.35454 33.0909 5.23181 33.0909C5.13636 33.0909 5.02728 33.1182 4.94546 33.1591C4.74091 33.2682 4.60455 33.4864 4.60455 33.7182V57.0227C4.60455 58.3318 5.66819 59.4091 6.99091 59.4091H10.1955C10.3591 59.4091 10.5227 59.3409 10.6455 59.2318L15.8273 54.05C16.0727 53.8046 16.4 53.6682 16.7409 53.6682C17.0818 53.6682 17.4091 53.8046 17.6546 54.05C18.1591 54.5546 18.1591 55.3727 17.6546 55.8636L15.1727 58.3455C14.9955 58.5227 14.9409 58.7955 15.0364 59.0273C15.1318 59.2591 15.3636 59.4091 15.6227 59.4091H21.6909C21.8546 59.4091 22.0182 59.3409 22.1409 59.2318L27.3227 54.05C27.5682 53.8046 27.8954 53.6682 28.2364 53.6682C28.5773 53.6682 28.9046 53.8046 29.15 54.05C29.6546 54.5546 29.6546 55.3727 29.15 55.8636L26.6682 58.3455C26.4909 58.5227 26.4364 58.7955 26.5318 59.0273C26.6273 59.2591 26.8591 59.4091 27.1182 59.4091H33.1864C33.35 59.4091 33.5137 59.3409 33.6364 59.2318L38.8182 54.05C39.0636 53.8046 39.3909 53.6682 39.7318 53.6682C40.0727 53.6682 40.4 53.8046 40.6455 54.05C41.15 54.5546 41.15 55.3727 40.6455 55.8636L38.1636 58.3455C37.9864 58.5227 37.9318 58.7955 38.0273 59.0273C38.1227 59.2591 38.3546 59.4091 38.6136 59.4091H44.6818C44.8454 59.4091 45.0091 59.3409 45.1318 59.2318L50.3136 54.05C50.4773 53.8182 50.8046 53.6818 51.1455 53.6818ZM15.0909 4.56364C14.5727 4.56364 14.15 5.01363 14.15 5.54545V35.6955C14.15 35.9 14.2454 36.0909 14.4227 36.2136L28.8227 46.1818C28.8363 46.1955 28.8636 46.2091 28.8909 46.2227C30.2136 46.9318 31.1273 47.2182 32.0137 47.2182C32.9 47.2182 33.8136 46.9318 35.1363 46.2227C35.1636 46.2091 35.1773 46.1955 35.2046 46.1818L49.6046 36.2136C49.7682 36.0909 49.8773 35.9 49.8773 35.6955V5.55909C49.8773 5.02727 49.4409 4.57727 48.9363 4.57727H15.0909V4.56364ZM53.0546 25.7818C52.9591 25.7818 52.8636 25.7955 52.7818 25.85C52.5636 25.9591 52.4273 26.1773 52.4273 26.4227V33.0636C52.4273 33.2955 52.5637 33.5136 52.7682 33.6227C52.8637 33.6773 52.9591 33.6909 53.0546 33.6909C53.1773 33.6909 53.3 33.65 53.4091 33.5818L57.8682 30.5C58.0318 30.3909 58.1273 30.2 58.1409 30.0091C58.1545 29.8045 58.0591 29.6273 57.9091 29.4909L53.45 25.9318C53.3409 25.8227 53.2046 25.7818 53.0546 25.7818ZM10.9455 25.7818C10.8091 25.7818 10.6727 25.8227 10.55 25.9182L6.09091 29.4773C5.94091 29.6 5.84544 29.7909 5.85907 29.9955C5.87271 30.2 5.96818 30.3773 6.13182 30.4864L10.5909 33.5682C10.7 33.6364 10.8227 33.6773 10.9455 33.6773C11.0409 33.6773 11.15 33.65 11.2318 33.6091C11.4363 33.5 11.5727 33.2818 11.5727 33.05V26.4091C11.5727 26.1636 11.4364 25.9455 11.2182 25.8364C11.1364 25.8091 11.0409 25.7818 10.9455 25.7818Z" fill="#053863"/>
<path d="M28.1685 16.0539C27.4594 16.0539 26.8867 15.4811 26.8867 14.7721C26.8867 14.063 27.4594 13.4902 28.1685 13.4902H35.8322C36.5413 13.4902 37.114 14.063 37.114 14.7721C37.114 15.4811 36.5413 16.0539 35.8322 16.0539H28.1685Z" fill="#053863"/>
<path d="M22.4283 23.7121C21.7192 23.7121 21.1465 23.1393 21.1465 22.4303C21.1465 21.7212 21.7192 21.1484 22.4283 21.1484H41.5737C42.2828 21.1484 42.8556 21.7212 42.8556 22.4303C42.8556 23.1393 42.2828 23.7121 41.5737 23.7121H22.4283Z" fill="#053863"/>
<path d="M22.4244 31.3586C21.7153 31.3586 21.1426 30.7858 21.1426 30.0767C21.1426 29.3676 21.7153 28.7949 22.4244 28.7949H41.5698C42.2789 28.7949 42.8516 29.3676 42.8516 30.0767C42.8516 30.7858 42.2789 31.3586 41.5698 31.3586H22.4244Z" fill="#053863"/>
</svg>
