<svg width="64" height="64" viewBox="0 0 64 64" fill="none" xmlns="http://www.w3.org/2000/svg">
<path d="M40.1705 16.6957V3.40625H7.79883V21.807V60.3122H53.2009V21.807V16.6957H40.1705Z" fill="#FAFCFF"/>
<path d="M35.9463 41.3887L31.8164 45.5323V53.0425L38.4679 51.0388L42.0254 47.4677L35.9463 41.3887Z" fill="white"/>
<path d="M36.9277 40.9286L42.5161 46.5306L45.8282 43.2185L40.6215 38.0117L36.9277 40.9286Z" fill="#80B0E8"/>
<path d="M40.7695 37.1105L51.2375 26.6289L56.8804 32.2718L46.2216 42.9306L40.7695 37.1105Z" fill="white"/>
<path d="M42.0234 3.625V16.6918H53.6959V13.6659L42.0234 3.625Z" fill="#80B0E8"/>
<path d="M9.2031 61.9864C7.44481 61.9864 6 60.5552 6 58.7833V5.2031C6 3.44481 7.43118 2 9.2031 2H39.7247C40.0654 2 40.3926 2.1363 40.6379 2.38164L54.1145 13.8582C54.3598 14.1036 54.4961 14.4307 54.4961 14.7715V20.5098C54.4961 21.2185 53.9237 21.791 53.2149 21.791C52.5061 21.791 51.9337 21.2185 51.9337 20.5098V18.6015C51.9337 18.2608 51.6474 17.9746 51.3067 17.9746H39.4248C37.8437 17.9746 36.5488 16.6797 36.5488 15.0986V5.21672C36.5488 4.87597 36.2626 4.58972 35.9219 4.58972H9.2031C8.86234 4.58972 8.57612 4.87597 8.57612 5.21672V58.7969C8.57612 59.1377 8.86234 59.4239 9.2031 59.4239H51.2931C51.6338 59.4239 51.92 59.1377 51.92 58.7969V45.3984C51.92 44.6897 52.4925 44.1172 53.2013 44.1172C53.91 44.1172 54.4825 44.6897 54.4825 45.3984V58.7969C54.4825 60.5552 53.0513 62 51.2794 62H9.2031V61.9864ZM39.7247 5.36665C39.6429 5.36665 39.5611 5.38027 39.4793 5.42116C39.2476 5.51658 39.0977 5.7483 39.0977 6.00727V14.7851C39.0977 15.1259 39.3839 15.4121 39.7247 15.4121H50.5025C50.7615 15.4121 50.9795 15.2621 51.0886 15.0304C51.184 14.7987 51.1295 14.5261 50.9523 14.3489L40.1745 5.5711C40.0518 5.4348 39.8882 5.36665 39.7247 5.36665Z" fill="#053863"/>
<path d="M16.709 30.3945C16.0002 30.3945 15.4277 29.822 15.4277 29.1133C15.4277 28.4045 16.0002 27.832 16.709 27.832H37.754C38.4627 27.832 39.0352 28.4045 39.0352 29.1133C39.0352 29.822 38.4627 30.3945 37.754 30.3945H16.709Z" fill="#053863"/>
<path d="M16.709 38.0351C16.0002 38.0351 15.4277 37.4626 15.4277 36.7539C15.4277 36.0451 16.0002 35.4727 16.709 35.4727H30.1075C30.8162 35.4727 31.3887 36.0451 31.3887 36.7539C31.3887 37.4626 30.8162 38.0351 30.1075 38.0351H16.709Z" fill="#053863"/>
<path d="M16.709 22.7539C16.0002 22.7539 15.4277 22.1814 15.4277 21.4726C15.4277 20.7639 16.0002 20.1914 16.709 20.1914H30.1075C30.8162 20.1914 31.3887 20.7639 31.3887 21.4726C31.3887 22.1814 30.8162 22.7539 30.1075 22.7539H16.709Z" fill="#053863"/>
<path d="M16.709 15.1132C16.0002 15.1132 15.4277 14.5408 15.4277 13.832C15.4277 13.1232 16.0002 12.5508 16.709 12.5508H30.1075C30.8162 12.5508 31.3887 13.1232 31.3887 13.832C31.3887 14.5408 30.8162 15.1132 30.1075 15.1132H16.709Z" fill="#053863"/>
<path d="M16.709 45.6757C16.0002 45.6757 15.4277 45.1033 15.4277 44.3945C15.4277 43.6857 16.0002 43.1133 16.709 43.1133H24.3691C25.0779 43.1133 25.6504 43.6857 25.6504 44.3945C25.6504 45.1033 25.0779 45.6757 24.3691 45.6757H16.709Z" fill="#053863"/>
<path d="M16.709 53.3164C16.0002 53.3164 15.4277 52.7439 15.4277 52.0351C15.4277 51.3264 16.0002 50.7539 16.709 50.7539H22.4473C23.156 50.7539 23.7285 51.3264 23.7285 52.0351C23.7285 52.7439 23.156 53.3164 22.4473 53.3164H16.709Z" fill="#053863"/>
<path d="M30.2482 54.3242C29.9074 54.3242 29.5803 54.1879 29.3349 53.9425C29.0214 53.629 28.8851 53.152 28.9942 52.7295L30.9024 45.0693C30.9569 44.8376 31.0796 44.6331 31.2431 44.4696L50.3799 25.3328C50.6252 25.0875 50.9524 24.9512 51.2931 24.9512C51.6339 24.9512 51.961 25.0875 52.2063 25.3328L57.9446 31.0711C58.4489 31.5754 58.4489 32.3933 57.9446 32.8839L38.8079 52.0207C38.6443 52.1842 38.4399 52.3069 38.2082 52.3614L30.548 54.2697C30.4526 54.3106 30.3572 54.3242 30.2482 54.3242ZM35.9864 43.6381C35.8229 43.6381 35.6593 43.7063 35.5367 43.8153L33.4376 45.9144C33.3558 45.9962 33.3013 46.0916 33.2741 46.2006L32.2654 50.2488C32.2109 50.4668 32.2791 50.6849 32.429 50.8485C32.5517 50.9712 32.7152 51.0257 32.8788 51.0257C32.9333 51.0257 32.9742 51.0257 33.0287 51.012L37.0768 50.0034C37.1859 49.9762 37.2813 49.9216 37.3631 49.8399L39.4621 47.7408C39.5848 47.6181 39.6393 47.4682 39.6393 47.291C39.6393 47.1275 39.5712 46.9639 39.4621 46.8412L36.4226 43.8017C36.3136 43.7063 36.15 43.6381 35.9864 43.6381ZM39.8165 39.8081C39.653 39.8081 39.4894 39.8626 39.3667 39.9852L38.2491 41.1029C38.0037 41.3483 38.0037 41.7435 38.2491 41.9889L41.2886 45.0284C41.4113 45.1511 41.5748 45.2056 41.7384 45.2056C41.9019 45.2056 42.0655 45.1511 42.1882 45.0284L43.3058 43.9107C43.5512 43.6654 43.5512 43.2701 43.3058 43.0248L40.2663 39.9852C40.13 39.8762 39.9801 39.8081 39.8165 39.8081ZM51.2931 28.3314C51.1296 28.3314 50.966 28.3996 50.8433 28.5223L42.0655 37.3001C41.8201 37.5454 41.8201 37.9407 42.0655 38.1861L45.105 41.2256C45.2277 41.3483 45.3912 41.4028 45.5548 41.4028C45.7184 41.4028 45.882 41.3483 46.0046 41.2256L54.7825 32.4478C55.0278 32.2024 55.0278 31.8072 54.7825 31.5618L51.7429 28.5223C51.6202 28.386 51.4567 28.3314 51.2931 28.3314Z" fill="#053863"/>
</svg>
