<svg width="52" height="43" viewBox="0 0 52 43" fill="none" xmlns="http://www.w3.org/2000/svg">
<path d="M52 4.96154C50.0942 5.78846 47.9162 6.33975 45.7382 6.61539C47.9162 5.23718 49.5497 3.03205 50.3665 0.551282C48.1885 1.65385 46.0105 2.75641 43.5602 3.30769C41.6544 1.10256 38.9319 0 35.6649 0C29.6754 0 25.0471 4.96154 25.0471 10.75C25.0471 11.5769 25.0471 12.4038 25.3194 13.2308C16.3351 12.6795 8.43982 8.54487 3.26705 1.92949C2.45029 3.58333 1.90579 5.51282 1.90579 7.44231C1.90579 11.3013 3.81154 14.609 6.53405 16.5385C4.90055 16.5385 3.26703 15.9872 1.63352 15.1603V15.4359C1.63352 20.6731 5.44503 25.0833 10.3456 26.1859C9.5288 26.4615 8.4398 26.4615 7.62304 26.4615C6.80629 26.4615 6.26179 26.4615 5.71729 26.1859C7.07855 30.5962 11.1623 33.6282 15.7906 33.6282C12.2513 36.6603 7.62306 38.3141 2.45029 38.3141C1.63353 38.3141 0.816754 38.3141 0 38.0385C4.62827 41.0705 10.3455 43 16.3351 43C35.9372 43 46.8272 26.4615 46.8272 12.1282C46.8272 11.5769 46.8272 11.3013 46.8272 10.75C48.733 9.09616 50.6387 7.16667 52 4.96154Z" fill="white"/>
</svg>
