<svg width="16" height="16" viewBox="0 0 16 16" fill="none" xmlns="http://www.w3.org/2000/svg">
<path d="M8.00065 12.666C8.13251 12.666 8.2614 12.6269 8.37103 12.5537C8.48066 12.4804 8.56611 12.3763 8.61657 12.2545C8.66703 12.1327 8.68023 11.9986 8.65451 11.8693C8.62878 11.74 8.56529 11.6212 8.47206 11.5279C8.37882 11.4347 8.26003 11.3712 8.13071 11.3455C8.00139 11.3198 7.86735 11.333 7.74553 11.3834C7.62371 11.4339 7.51959 11.5193 7.44634 11.629C7.37308 11.7386 7.33398 11.8675 7.33398 11.9993C7.33398 12.1762 7.40422 12.3457 7.52925 12.4708C7.65427 12.5958 7.82384 12.666 8.00065 12.666ZM11.334 12.666C11.4658 12.666 11.5947 12.6269 11.7044 12.5537C11.814 12.4804 11.8994 12.3763 11.9499 12.2545C12.0004 12.1327 12.0136 11.9986 11.9878 11.8693C11.9621 11.74 11.8986 11.6212 11.8054 11.5279C11.7122 11.4347 11.5934 11.3712 11.464 11.3455C11.3347 11.3198 11.2007 11.333 11.0789 11.3834C10.957 11.4339 10.8529 11.5193 10.7797 11.629C10.7064 11.7386 10.6673 11.8675 10.6673 11.9993C10.6673 12.1762 10.7376 12.3457 10.8626 12.4708C10.9876 12.5958 11.1572 12.666 11.334 12.666ZM11.334 9.99935C11.4658 9.99935 11.5947 9.96025 11.7044 9.88699C11.814 9.81374 11.8994 9.70962 11.9499 9.5878C12.0004 9.46599 12.0136 9.33194 11.9878 9.20262C11.9621 9.0733 11.8986 8.95451 11.8054 8.86128C11.7122 8.76804 11.5934 8.70455 11.464 8.67882C11.3347 8.6531 11.2007 8.6663 11.0789 8.71676C10.957 8.76722 10.8529 8.85267 10.7797 8.9623C10.7064 9.07193 10.6673 9.20083 10.6673 9.33268C10.6673 9.50949 10.7376 9.67906 10.8626 9.80409C10.9876 9.92911 11.1572 9.99935 11.334 9.99935ZM8.00065 9.99935C8.13251 9.99935 8.2614 9.96025 8.37103 9.88699C8.48066 9.81374 8.56611 9.70962 8.61657 9.5878C8.66703 9.46599 8.68023 9.33194 8.65451 9.20262C8.62878 9.0733 8.56529 8.95451 8.47206 8.86128C8.37882 8.76804 8.26003 8.70455 8.13071 8.67882C8.00139 8.6531 7.86735 8.6663 7.74553 8.71676C7.62371 8.76722 7.51959 8.85267 7.44634 8.9623C7.37308 9.07193 7.33398 9.20083 7.33398 9.33268C7.33398 9.50949 7.40422 9.67906 7.52925 9.80409C7.65427 9.92911 7.82384 9.99935 8.00065 9.99935ZM12.6673 1.99935H12.0007V1.33268C12.0007 1.15587 11.9304 0.986302 11.8054 0.861278C11.6804 0.736253 11.5108 0.666016 11.334 0.666016C11.1572 0.666016 10.9876 0.736253 10.8626 0.861278C10.7376 0.986302 10.6673 1.15587 10.6673 1.33268V1.99935H5.33398V1.33268C5.33398 1.15587 5.26375 0.986302 5.13872 0.861278C5.0137 0.736253 4.84413 0.666016 4.66732 0.666016C4.49051 0.666016 4.32094 0.736253 4.19591 0.861278C4.07089 0.986302 4.00065 1.15587 4.00065 1.33268V1.99935H3.33398C2.80355 1.99935 2.29484 2.21006 1.91977 2.58514C1.5447 2.96021 1.33398 3.46892 1.33398 3.99935V13.3327C1.33398 13.8631 1.5447 14.3718 1.91977 14.7469C2.29484 15.122 2.80355 15.3327 3.33398 15.3327H12.6673C13.1978 15.3327 13.7065 15.122 14.0815 14.7469C14.4566 14.3718 14.6673 13.8631 14.6673 13.3327V3.99935C14.6673 3.46892 14.4566 2.96021 14.0815 2.58514C13.7065 2.21006 13.1978 1.99935 12.6673 1.99935ZM13.334 13.3327C13.334 13.5095 13.2637 13.6791 13.1387 13.8041C13.0137 13.9291 12.8441 13.9993 12.6673 13.9993H3.33398C3.15717 13.9993 2.9876 13.9291 2.86258 13.8041C2.73756 13.6791 2.66732 13.5095 2.66732 13.3327V7.33268H13.334V13.3327ZM13.334 5.99935H2.66732V3.99935C2.66732 3.82254 2.73756 3.65297 2.86258 3.52794C2.9876 3.40292 3.15717 3.33268 3.33398 3.33268H4.00065V3.99935C4.00065 4.17616 4.07089 4.34573 4.19591 4.47075C4.32094 4.59578 4.49051 4.66602 4.66732 4.66602C4.84413 4.66602 5.0137 4.59578 5.13872 4.47075C5.26375 4.34573 5.33398 4.17616 5.33398 3.99935V3.33268H10.6673V3.99935C10.6673 4.17616 10.7376 4.34573 10.8626 4.47075C10.9876 4.59578 11.1572 4.66602 11.334 4.66602C11.5108 4.66602 11.6804 4.59578 11.8054 4.47075C11.9304 4.34573 12.0007 4.17616 12.0007 3.99935V3.33268H12.6673C12.8441 3.33268 13.0137 3.40292 13.1387 3.52794C13.2637 3.65297 13.334 3.82254 13.334 3.99935V5.99935ZM4.66732 9.99935C4.79917 9.99935 4.92807 9.96025 5.0377 9.88699C5.14733 9.81374 5.23278 9.70962 5.28324 9.5878C5.3337 9.46599 5.3469 9.33194 5.32117 9.20262C5.29545 9.0733 5.23196 8.95451 5.13872 8.86128C5.04549 8.76804 4.9267 8.70455 4.79738 8.67882C4.66806 8.6531 4.53401 8.6663 4.4122 8.71676C4.29038 8.76722 4.18626 8.85267 4.113 8.9623C4.03975 9.07193 4.00065 9.20083 4.00065 9.33268C4.00065 9.50949 4.07089 9.67906 4.19591 9.80409C4.32094 9.92911 4.49051 9.99935 4.66732 9.99935ZM4.66732 12.666C4.79917 12.666 4.92807 12.6269 5.0377 12.5537C5.14733 12.4804 5.23278 12.3763 5.28324 12.2545C5.3337 12.1327 5.3469 11.9986 5.32117 11.8693C5.29545 11.74 5.23196 11.6212 5.13872 11.5279C5.04549 11.4347 4.9267 11.3712 4.79738 11.3455C4.66806 11.3198 4.53401 11.333 4.4122 11.3834C4.29038 11.4339 4.18626 11.5193 4.113 11.629C4.03975 11.7386 4.00065 11.8675 4.00065 11.9993C4.00065 12.1762 4.07089 12.3457 4.19591 12.4708C4.32094 12.5958 4.49051 12.666 4.66732 12.666Z" fill="#333333"/>
</svg>
