<svg width="18" height="18" viewBox="0 0 18 18" fill="none" xmlns="http://www.w3.org/2000/svg">
<path d="M9 1C6.86212 1 5.12903 2.71693 5.12903 4.83488C5.12903 6.95282 6.86212 8.66976 9 8.66976C11.1379 8.66976 12.871 6.95282 12.871 4.83488C12.871 2.71693 11.1379 1 9 1Z" fill="#333333"/>
<path d="M4.87097 10.715C2.73309 10.715 1 12.432 1 14.5499V15.7651C1 16.5354 1.56349 17.1921 2.33086 17.3163C6.74771 18.0307 11.2523 18.0307 15.6691 17.3163C16.4365 17.1921 17 16.5354 17 15.7651V14.5499C17 12.432 15.2669 10.715 13.129 10.715H12.7772C12.5867 10.715 12.3975 10.7449 12.2164 10.8034L11.323 11.0924C9.81355 11.5807 8.18645 11.5807 6.67699 11.0924L5.78356 10.8034C5.60252 10.7449 5.41328 10.715 5.22283 10.715H4.87097Z" fill="#333333"/>
</svg>
