<svg width="70" height="70" viewBox="0 0 70 70" fill="none" xmlns="http://www.w3.org/2000/svg">
<circle cx="35" cy="35" r="35" fill="white"/>
<path d="M28.4601 18.5586H24.0898V51.3636H28.4601V18.5586Z" fill="white"/>
<path d="M23.8898 18.5586H19.5195V51.3636H23.8898V18.5586Z" fill="#FDF8F0"/>
<path d="M44.7852 18.5586L51.8966 26.1137H44.934L44.7852 18.5586Z" fill="white"/>
<path d="M52.4348 42.9577L52.1215 25.6923H44.775V18.5508H28.4609V51.3558H44.8455L44.9943 51.2524L46.3179 51.7375H51.6359C52.1058 51.7375 52.4896 51.3479 52.4896 50.8707V42.7828L52.4348 42.9577Z" fill="#FDF8F0"/>
<path d="M40.398 46.1928C44.637 46.1928 48.0734 42.7035 48.0734 38.3992C48.0734 34.0948 44.637 30.6055 40.398 30.6055C36.159 30.6055 32.7227 34.0948 32.7227 38.3992C32.7227 42.7035 36.159 46.1928 40.398 46.1928Z" fill="white"/>
<path d="M19.5018 52.4841C19.0946 52.4841 18.7656 52.1501 18.7656 51.7365V18.2476C18.7656 17.834 19.0946 17.5 19.5018 17.5H44.7915C44.9873 17.5 45.1752 17.5795 45.3162 17.7227L53.0151 25.5323C53.1561 25.6754 53.2344 25.8583 53.2344 26.0651V45.0483C53.2344 45.4618 52.9054 45.7958 52.4982 45.7958C52.0909 45.7958 51.762 45.4618 51.762 45.0483V27.1864C51.762 26.9876 51.5975 26.8206 51.4017 26.8206H44.8071C44.3998 26.8206 44.0709 26.4866 44.0709 26.073V19.3768C44.0709 19.178 43.9064 19.011 43.7106 19.011H29.4172C29.2214 19.011 29.0569 19.178 29.0569 19.3768V50.6391C29.0569 50.8379 29.2214 51.0049 29.4172 51.0049H48.1044C48.5117 51.0049 48.8406 51.3389 48.8406 51.7524C48.8406 52.166 48.5117 52.5 48.1044 52.5H19.5018V52.4841ZM24.9999 18.9951C24.8041 18.9951 24.6396 19.1621 24.6396 19.3609V50.6231C24.6396 50.822 24.8041 50.989 24.9999 50.989H27.2007C27.3965 50.989 27.561 50.822 27.561 50.6231V19.3609C27.561 19.1621 27.3965 18.9951 27.2007 18.9951H24.9999ZM20.6062 18.9951C20.4104 18.9951 20.2459 19.1621 20.2459 19.3609V50.6231C20.2459 50.822 20.4104 50.989 20.6062 50.989H22.807C23.0028 50.989 23.1672 50.822 23.1672 50.6231V19.3609C23.1672 19.1621 23.0028 18.9951 22.807 18.9951H20.6062ZM45.8957 20.5698C45.8488 20.5698 45.8018 20.5777 45.7548 20.6016C45.6216 20.6572 45.5355 20.7924 45.5355 20.9435V24.9517C45.5355 25.1505 45.6999 25.3175 45.8957 25.3175H49.8431C49.9919 25.3175 50.1172 25.2301 50.1799 25.0949C50.2347 24.9597 50.2034 24.8006 50.1016 24.6972L46.1542 20.689C46.0759 20.6095 45.9897 20.5698 45.8957 20.5698Z" fill="#303030"/>
<path d="M51.3844 50.2556C51.1886 50.2556 51.0006 50.1761 50.8596 50.033L46.0273 45.1261C45.9568 45.0546 45.8628 45.0227 45.7688 45.0227C45.6905 45.0227 45.6122 45.0466 45.5495 45.1023C44.0536 46.2872 42.2679 46.9075 40.3882 46.9075C35.736 46.9075 31.9531 43.0664 31.9531 38.3424C31.9531 33.6185 35.736 29.7773 40.3882 29.7773C45.0404 29.7773 48.8233 33.6185 48.8233 38.3424C48.8233 40.2511 48.2046 42.0643 47.0454 43.5833C46.9358 43.7264 46.9436 43.9332 47.0768 44.0684L51.9091 48.9752C52.1989 49.2695 52.1989 49.7467 51.9091 50.033C51.7682 50.1761 51.588 50.2556 51.3844 50.2556ZM40.396 31.2725C36.5584 31.2725 33.4412 34.4456 33.4412 38.3345C33.4412 42.2313 36.5584 45.3965 40.396 45.3965C44.2337 45.3965 47.3509 42.2234 47.3509 38.3345C47.3509 34.4456 44.2337 31.2725 40.396 31.2725Z" fill="#303030"/>
<path d="M44.2796 38.4956C43.8723 38.4956 43.5434 38.1615 43.5434 37.748C43.5434 36.3165 42.3921 35.1475 40.9823 35.1475C40.575 35.1475 40.2461 34.8134 40.2461 34.3999C40.2461 33.9864 40.575 33.6523 40.9823 33.6523C43.2066 33.6523 45.0158 35.4894 45.0158 37.748C45.0158 38.1615 44.6868 38.4956 44.2796 38.4956Z" fill="#303030"/>
</svg>
