<svg width="70" height="70" viewBox="0 0 70 70" fill="none" xmlns="http://www.w3.org/2000/svg">
<circle cx="35" cy="35" r="35" fill="white"/>
<g clip-path="url(#clip0)">
<path d="M18.9648 18.7695H32.2392L35.56 22.0903L38.5819 19.0683H52.1722V41.0927H38.8551L35.4575 44.4817L32.1539 41.1781H18.9648V18.7695Z" fill="#F6FBFF"/>
<path d="M41.638 46.3415H52.249C52.4482 46.3415 52.6393 46.2624 52.7802 46.1215C52.9211 45.9806 53.0002 45.7895 53.0002 45.5903V18.7427C53.0002 18.6445 52.9807 18.5472 52.9429 18.4565C52.905 18.3659 52.8496 18.2836 52.7797 18.2145C52.7098 18.1455 52.6269 18.0909 52.5358 18.0541C52.4447 18.0173 52.3472 17.9989 52.249 18H39.9649C39.1463 18.0155 38.3426 18.2219 37.6179 18.6028C36.8932 18.9837 36.2674 19.5285 35.7905 20.194C35.7555 20.2405 35.7105 20.2786 35.6588 20.3052C35.607 20.3318 35.5499 20.3463 35.4917 20.3476C35.4345 20.347 35.3784 20.3327 35.3279 20.306C35.2774 20.2792 35.2341 20.2408 35.2014 20.194C34.723 19.53 34.097 18.9862 33.3726 18.6055C32.6481 18.2248 31.8452 18.0175 31.027 18H18.7173C18.619 17.9989 18.5215 18.0173 18.4305 18.0541C18.3394 18.0909 18.2565 18.1455 18.1866 18.2145C18.1167 18.2836 18.0613 18.3659 18.0234 18.4565C17.9855 18.5472 17.9661 18.6445 17.9661 18.7427V45.5476C17.9602 45.6498 17.9754 45.7521 18.0105 45.8482C18.0456 45.9443 18.1001 46.0323 18.1704 46.1066C18.2408 46.181 18.3255 46.2401 18.4196 46.2805C18.5136 46.3209 18.6149 46.3417 18.7173 46.3415H31.0014C31.2007 46.3415 31.3918 46.2624 31.5326 46.1215C31.6735 45.9806 31.7526 45.7895 31.7526 45.5903C31.7526 45.3911 31.6735 45.2 31.5326 45.0591C31.3918 44.9182 31.2007 44.8391 31.0014 44.8391H19.8697C19.7724 44.8391 19.679 44.8004 19.6101 44.7316C19.5413 44.6627 19.5027 44.5694 19.5027 44.472V42.1927C19.5027 42.0954 19.5413 42.002 19.6101 41.9332C19.679 41.8643 19.7724 41.8257 19.8697 41.8257H31.0356C32.0058 41.8753 32.923 42.2836 33.6092 42.9714C34.2954 43.6591 34.7016 44.5773 34.749 45.5476C34.749 45.7468 34.8281 45.9379 34.969 46.0788C35.1099 46.2197 35.301 46.2988 35.5002 46.2988C35.6994 46.2988 35.8905 46.2197 36.0314 46.0788C36.1723 45.9379 36.2514 45.7468 36.2514 45.5476C36.2988 44.5773 36.705 43.6591 37.3912 42.9714C38.0774 42.2836 38.9946 41.8753 39.9649 41.8257H51.1563C51.2537 41.8257 51.347 41.8643 51.4159 41.9332C51.4847 42.002 51.5234 42.0954 51.5234 42.1927V44.4293C51.5234 44.5267 51.4847 44.62 51.4159 44.6889C51.347 44.7577 51.2537 44.7964 51.1563 44.7964H41.638C40.995 44.7964 40.3784 45.0518 39.9237 45.5065C39.4691 45.9611 39.2136 46.5778 39.2136 47.2208C39.2136 47.8638 39.4691 48.4804 39.9237 48.9351C40.3784 49.3897 40.995 49.6452 41.638 49.6452H50.5758C50.8061 49.6673 51.0199 49.7745 51.1755 49.9457C51.3311 50.117 51.4173 50.34 51.4173 50.5714C51.4173 50.8028 51.3311 51.0258 51.1755 51.1971C51.0199 51.3683 50.8061 51.4755 50.5758 51.4976H29.3624C29.1632 51.4976 28.9721 51.5768 28.8312 51.7176C28.6903 51.8585 28.6112 52.0496 28.6112 52.2488C28.6112 52.4481 28.6903 52.6391 28.8312 52.78C28.9721 52.9209 29.1632 53.0001 29.3624 53.0001H50.5758C51.1951 52.9633 51.7769 52.6915 52.2023 52.24C52.6278 51.7886 52.8647 51.1917 52.8647 50.5714C52.8647 49.9511 52.6278 49.3542 52.2023 48.9028C51.7769 48.4513 51.1951 48.1795 50.5758 48.1427H41.638C41.3935 48.1427 41.159 48.0456 40.9861 47.8727C40.8132 47.6998 40.7161 47.4653 40.7161 47.2208C40.7161 46.9763 40.8132 46.7418 40.9861 46.5689C41.159 46.396 41.3935 46.2988 41.638 46.2988V46.3415ZM34.749 41.2196C34.7491 41.2875 34.7299 41.354 34.6936 41.4115C34.6573 41.4689 34.6055 41.5148 34.5441 41.544C34.4871 41.5814 34.4203 41.6014 34.352 41.6014C34.2838 41.6014 34.217 41.5814 34.16 41.544C33.2817 40.8092 32.1803 40.3939 31.0356 40.3659H19.8697C19.8215 40.3659 19.7738 40.3564 19.7293 40.338C19.6847 40.3195 19.6442 40.2925 19.6101 40.2584C19.5761 40.2243 19.549 40.1838 19.5306 40.1393C19.5121 40.0948 19.5027 40.047 19.5027 39.9988V19.8781C19.5027 19.7807 19.5413 19.6874 19.6101 19.6185C19.679 19.5497 19.7724 19.511 19.8697 19.511H31.0356C32.0058 19.5607 32.923 19.969 33.6092 20.6567C34.2954 21.3445 34.7016 22.2626 34.749 23.233V41.2196ZM51.1563 40.3659H39.9649C38.8253 40.3819 37.7244 40.7819 36.8405 41.5013C36.7834 41.5387 36.7166 41.5587 36.6484 41.5587C36.5801 41.5587 36.5134 41.5387 36.4563 41.5013C36.3949 41.4722 36.3431 41.4262 36.3068 41.3688C36.2705 41.3114 36.2514 41.2448 36.2514 41.1769V23.25C36.2988 22.2797 36.705 21.3616 37.3912 20.6738C38.0774 19.9861 38.9946 19.5777 39.9649 19.5281H51.1563C51.2537 19.5281 51.347 19.5668 51.4159 19.6356C51.4847 19.7044 51.5234 19.7978 51.5234 19.8952V39.9647C51.5281 40.0157 51.5222 40.0671 51.5059 40.1157C51.4896 40.1642 51.4633 40.2088 51.4287 40.2466C51.3942 40.2844 51.3521 40.3145 51.3051 40.3351C51.2582 40.3556 51.2075 40.3661 51.1563 40.3659Z" fill="#303030"/>
<path d="M25.4543 23.9673H28.8007C28.9999 23.9673 29.191 23.8881 29.3319 23.7473C29.4727 23.6064 29.5519 23.4153 29.5519 23.2161C29.5519 23.0168 29.4727 22.8258 29.3319 22.6849C29.191 22.544 28.9999 22.4648 28.8007 22.4648H25.4543C25.2551 22.4648 25.064 22.544 24.9232 22.6849C24.7823 22.8258 24.7031 23.0168 24.7031 23.2161C24.7031 23.4153 24.7823 23.6064 24.9232 23.7473C25.064 23.8881 25.2551 23.9673 25.4543 23.9673Z" fill="#303030"/>
<path d="M31.0356 26.9297H23.216C23.0168 26.9297 22.8257 27.0088 22.6848 27.1497C22.544 27.2906 22.4648 27.4817 22.4648 27.6809C22.4648 27.8801 22.544 28.0712 22.6848 28.2121C22.8257 28.353 23.0168 28.4321 23.216 28.4321H31.0356C31.2348 28.4321 31.4259 28.353 31.5667 28.2121C31.7076 28.0712 31.7868 27.8801 31.7868 27.6809C31.7868 27.4817 31.7076 27.2906 31.5667 27.1497C31.4259 27.0088 31.2348 26.9297 31.0356 26.9297Z" fill="#303030"/>
<path d="M31.0356 31.3945H23.216C23.0168 31.3945 22.8257 31.4737 22.6848 31.6146C22.544 31.7554 22.4648 31.9465 22.4648 32.1458C22.4648 32.345 22.544 32.5361 22.6848 32.6769C22.8257 32.8178 23.0168 32.897 23.216 32.897H31.0356C31.2348 32.897 31.4259 32.8178 31.5667 32.6769C31.7076 32.5361 31.7868 32.345 31.7868 32.1458C31.7868 31.9465 31.7076 31.7554 31.5667 31.6146C31.4259 31.4737 31.2348 31.3945 31.0356 31.3945Z" fill="#303030"/>
<path d="M31.0356 35.8594H23.216C23.0168 35.8594 22.8257 35.9385 22.6848 36.0794C22.544 36.2203 22.4648 36.4114 22.4648 36.6106C22.4648 36.8098 22.544 37.0009 22.6848 37.1418C22.8257 37.2827 23.0168 37.3618 23.216 37.3618H31.0356C31.2348 37.3618 31.4259 37.2827 31.5667 37.1418C31.7076 37.0009 31.7868 36.8098 31.7868 36.6106C31.7868 36.4114 31.7076 36.2203 31.5667 36.0794C31.4259 35.9385 31.2348 35.8594 31.0356 35.8594Z" fill="#303030"/>
<path d="M47.7856 26.9297H39.9661C39.7668 26.9297 39.5758 27.0088 39.4349 27.1497C39.294 27.2906 39.2148 27.4817 39.2148 27.6809C39.2148 27.8801 39.294 28.0712 39.4349 28.2121C39.5758 28.353 39.7668 28.4321 39.9661 28.4321H47.7856C47.9848 28.4321 48.1759 28.353 48.3167 28.2121C48.4576 28.0712 48.5368 27.8801 48.5368 27.6809C48.5368 27.4817 48.4576 27.2906 48.3167 27.1497C48.1759 27.0088 47.9848 26.9297 47.7856 26.9297Z" fill="#303030"/>
<path d="M47.7856 31.3945H39.9661C39.7668 31.3945 39.5758 31.4737 39.4349 31.6146C39.294 31.7554 39.2148 31.9465 39.2148 32.1458C39.2148 32.345 39.294 32.5361 39.4349 32.6769C39.5758 32.8178 39.7668 32.897 39.9661 32.897H47.7856C47.9848 32.897 48.1759 32.8178 48.3167 32.6769C48.4576 32.5361 48.5368 32.345 48.5368 32.1458C48.5368 31.9465 48.4576 31.7554 48.3167 31.6146C48.1759 31.4737 47.9848 31.3945 47.7856 31.3945Z" fill="#303030"/>
<path d="M44.4307 35.8594H39.9661C39.7668 35.8594 39.5758 35.9385 39.4349 36.0794C39.294 36.2203 39.2148 36.4114 39.2148 36.6106C39.2148 36.8098 39.294 37.0009 39.4349 37.1418C39.5758 37.2827 39.7668 37.3618 39.9661 37.3618H44.4307C44.6299 37.3618 44.821 37.2827 44.9619 37.1418C45.1028 37.0009 45.1819 36.8098 45.1819 36.6106C45.1819 36.4114 45.1028 36.2203 44.9619 36.0794C44.821 35.9385 44.6299 35.8594 44.4307 35.8594Z" fill="#303030"/>
<path d="M42.2004 23.9673H45.5468C45.746 23.9673 45.9371 23.8881 46.078 23.7473C46.2188 23.6064 46.298 23.4153 46.298 23.2161C46.298 23.0168 46.2188 22.8258 46.078 22.6849C45.9371 22.544 45.746 22.4648 45.5468 22.4648H42.2004C42.0012 22.4648 41.8101 22.544 41.6693 22.6849C41.5284 22.8258 41.4492 23.0168 41.4492 23.2161C41.4492 23.4153 41.5284 23.6064 41.6693 23.7473C41.8101 23.8881 42.0012 23.9673 42.2004 23.9673Z" fill="#303030"/>
</g>
<defs>
<clipPath id="clip0">
<rect width="35" height="35" fill="white" transform="translate(18 18)"/>
</clipPath>
</defs>
</svg>
