<svg width="70" height="70" viewBox="0 0 70 70" fill="none" xmlns="http://www.w3.org/2000/svg">
<circle cx="35" cy="35" r="35" fill="white"/>
<path d="M47.9604 30.5312H22.2041C21.8093 30.5312 21.4922 30.8654 21.4922 31.2814V48.6104C21.4922 49.0264 21.8093 49.3605 22.2041 49.3605H47.9604C48.3552 49.3605 48.6723 49.0264 48.6723 48.6104V31.2814C48.6723 30.8654 48.3552 30.5312 47.9604 30.5312Z" fill="white"/>
<path d="M46.7295 38.1875H39.4297V40.7449H41.1576V43.3023H45.0404V40.7449H46.7295V38.1875Z" fill="#F0F8FF"/>
<path d="M46.198 43.6172H40.3672V46.1746H46.198V43.6172Z" fill="white"/>
<path d="M48.3541 46.5508H37.9609V49.2037H48.3541V46.5508Z" fill="#F0F8FF"/>
<path d="M48.6723 20.6953H21.4922V34.9349H48.6723V20.6953Z" fill="#F0F8FF"/>
<path d="M30.3697 38.8281H24.7266V45.566H30.3697V38.8281Z" fill="#F0F8FF"/>
<path d="M39.0871 50.0009C37.9999 50.0009 37.1133 49.0666 37.1133 47.9209V46.4819C37.1133 46.1273 37.3851 45.8409 37.7216 45.8409C38.9835 45.8409 39.8378 45.0566 39.8378 44.3269V43.6108C39.8378 43.2562 40.1096 42.9698 40.4461 42.9698C40.6079 42.9698 40.7438 42.8266 40.7438 42.6561V41.7013C40.7438 41.5308 40.6079 41.3876 40.4461 41.3876H39.5401C39.2036 41.3876 38.9318 41.1012 38.9318 40.7465V37.8754C38.9318 37.5208 39.2036 37.2344 39.5401 37.2344H46.8075C47.144 37.2344 47.4158 37.5208 47.4158 37.8754V40.7465C47.4158 41.1012 47.144 41.3876 46.8075 41.3876H45.9015C45.7397 41.3876 45.6038 41.5308 45.6038 41.7013V42.6561C45.6038 42.8266 45.7397 42.9698 45.9015 42.9698C46.238 42.9698 46.5098 43.2562 46.5098 43.6108V44.3269C46.5098 45.0566 47.3576 45.8409 48.626 45.8409C48.9625 45.8409 49.2343 46.1273 49.2343 46.4819V47.9209C49.2343 49.0666 48.3477 50.0009 47.2605 50.0009H39.0871ZM38.6341 47.1298C38.4723 47.1298 38.3364 47.273 38.3364 47.4435V47.9209C38.3364 48.3574 38.6729 48.712 39.0871 48.712H47.2605C47.6747 48.712 48.0112 48.3574 48.0112 47.9209V47.4435C48.0112 47.273 47.8753 47.1298 47.7135 47.1298H38.6341ZM41.3586 44.2587C41.2032 44.2587 41.0673 44.3814 41.0479 44.5451C41.022 44.8384 40.9444 45.118 40.8085 45.3908C40.7632 45.4863 40.7632 45.6022 40.8214 45.6977C40.8732 45.7931 40.9703 45.8477 41.0738 45.8477H45.2673C45.3708 45.8477 45.4679 45.7931 45.5197 45.6977C45.5715 45.6022 45.5779 45.4863 45.5326 45.3908C45.4032 45.1248 45.3191 44.8384 45.2932 44.5451C45.2802 44.3814 45.1508 44.2587 44.9955 44.2587H41.3586ZM40.4525 38.5165C40.2908 38.5165 40.1549 38.6597 40.1549 38.8302V39.7849C40.1549 39.9554 40.2908 40.0987 40.4525 40.0987H41.3586C41.6951 40.0987 41.9669 40.3851 41.9669 40.7397V42.6561C41.9669 42.8266 42.1028 42.9698 42.2646 42.9698H44.083C44.2448 42.9698 44.3807 42.8266 44.3807 42.6561V40.7397C44.3807 40.3851 44.6525 40.0987 44.989 40.0987H45.895C46.0568 40.0987 46.1927 39.9554 46.1927 39.7849V38.8302C46.1927 38.6597 46.0568 38.5165 45.895 38.5165H40.4525Z" fill="#303030"/>
<path d="M21.3739 50C21.0374 50 20.7656 49.7136 20.7656 49.3589V20.6411C20.7656 20.2864 21.0374 20 21.3739 20H48.6252C48.9617 20 49.2335 20.2864 49.2335 20.6411V35.0034C49.2335 35.358 48.9617 35.6445 48.6252 35.6445H22.2799C22.1182 35.6445 21.9823 35.7877 21.9823 35.9582V48.4042C21.9823 48.5747 22.1182 48.7179 22.2799 48.7179H34.9963C35.3329 48.7179 35.6047 49.0043 35.6047 49.3589C35.6047 49.7136 35.3329 50 34.9963 50H21.3739ZM22.2799 21.2821C22.1182 21.2821 21.9823 21.4253 21.9823 21.5958V34.0418C21.9823 34.2123 22.1182 34.3555 22.2799 34.3555H47.7192C47.881 34.3555 48.0169 34.2123 48.0169 34.0418V21.5958C48.0169 21.4253 47.881 21.2821 47.7192 21.2821H22.2799Z" fill="#303030"/>
<path d="M25.0107 46.1734C24.6741 46.1734 24.4023 45.887 24.4023 45.5324V38.8286C24.4023 38.4739 24.6741 38.1875 25.0107 38.1875H30.4596C30.7961 38.1875 31.0679 38.4739 31.0679 38.8286V45.5324C31.0679 45.887 30.7961 46.1734 30.4596 46.1734H25.0107ZM25.9167 39.4696C25.7549 39.4696 25.619 39.6128 25.619 39.7833V44.5708C25.619 44.7413 25.7549 44.8845 25.9167 44.8845H29.5536C29.7154 44.8845 29.8513 44.7413 29.8513 44.5708V39.7833C29.8513 39.6128 29.7154 39.4696 29.5536 39.4696H25.9167Z" fill="#303030"/>
<path d="M34.0888 39.4696C33.7523 39.4696 33.4805 39.1832 33.4805 38.8286C33.4805 38.4739 33.7523 38.1875 34.0888 38.1875H35.9073C36.2438 38.1875 36.5156 38.4739 36.5156 38.8286C36.5156 39.1832 36.2438 39.4696 35.9073 39.4696H34.0888Z" fill="#303030"/>
<path d="M34.0888 43.3016C33.7523 43.3016 33.4805 43.0152 33.4805 42.6606C33.4805 42.306 33.7523 42.0195 34.0888 42.0195H35.9073C36.2438 42.0195 36.5156 42.306 36.5156 42.6606C36.5156 43.0152 36.2438 43.3016 35.9073 43.3016H34.0888Z" fill="#303030"/>
<path d="M25.0107 27.9852C24.6741 27.9852 24.4023 27.6988 24.4023 27.3442C24.4023 26.9896 24.6741 26.7031 25.0107 26.7031H44.9945C45.331 26.7031 45.6028 26.9896 45.6028 27.3442C45.6028 27.6988 45.331 27.9852 44.9945 27.9852H25.0107Z" fill="#303030"/>
<path d="M25.0107 25.1141C24.6741 25.1141 24.4023 24.8277 24.4023 24.4731C24.4023 24.1185 24.6741 23.832 25.0107 23.832H36.8211C37.1576 23.832 37.4294 24.1185 37.4294 24.4731C37.4294 24.8277 37.1576 25.1141 36.8211 25.1141H25.0107Z" fill="#303030"/>
<path d="M25.0107 31.8134C24.6741 31.8134 24.4023 31.5269 24.4023 31.1723C24.4023 30.8177 24.6741 30.5312 25.0107 30.5312H44.9945C45.331 30.5312 45.6028 30.8177 45.6028 31.1723C45.6028 31.5269 45.331 31.8134 44.9945 31.8134H25.0107Z" fill="#303030"/>
</svg>
