<svg width="120" height="96" viewBox="0 0 120 96" fill="none" xmlns="http://www.w3.org/2000/svg">
<rect width="119.999" height="95.2252" rx="16" fill="#E7EFFD"/>
<path d="M61.9026 21.6758C26.2899 36.8499 17.3867 77.0303 17.3867 95.2237H103.612C112.448 95.2237 119.612 88.0603 119.612 79.2237V21.6758H61.9026Z" fill="#E0EAFA"/>
<path d="M99.4837 95.2252C52.413 73.2382 53.2905 22.5805 59.613 0H104C112.836 0 120 7.16346 120 16V79.2252C120 88.0618 112.836 95.2252 104 95.2252H99.4837Z" fill="#D9E4F8"/>
<g clip-path="url(#clip0)">
<path d="M51.0909 41.1836V61.4563L41 67.1836V45.4563L51.0909 41.1836Z" fill="#73D7FF"/>
<path d="M68.9082 41.1836V61.4563L78.9991 67.1836V45.4563L68.9082 41.1836Z" fill="#73D7FF"/>
<path d="M60.0009 58.6381V54.1836L51.0918 41.1836V61.82L60.0009 66.9109V58.6381Z" fill="#73D7FF"/>
<path d="M60 58.6381V54.1836L68.9091 41.1836V61.82L60 66.9109V58.6381Z" fill="#73D7FF"/>
<path d="M60.2731 55.6346L68.8185 44.18L69.5458 35.8164L65.364 30.271L60.2731 28.8164L54.6367 30.271L51.0913 34.4528L50.6367 41.8164L56.0913 51.7255L60.2731 55.6346Z" fill="white"/>
<path d="M64.4538 38.3636C64.4538 40.7273 62.5447 42.7273 60.0902 42.7273C57.7266 42.7273 55.7266 40.8182 55.7266 38.3636C55.7266 35.9091 57.6357 34 60.0902 34C62.4538 34.0909 64.4538 36 64.4538 38.3636Z" fill="#73D7FF"/>
<path d="M79.1818 68.0011C79 68.0011 78.9091 68.0011 78.7273 67.9102L70.3636 63.1829C70.2727 63.1829 70.2727 63.092 70.1818 63.092C70.0909 63.092 70.0909 63.092 70 63.092L60.3636 67.9102C60.3636 67.9102 60.3636 67.9102 60.2727 67.9102H60.1818C60.1818 67.9102 60.1818 67.9102 60.0909 67.9102C60 67.9102 60 67.9102 60 67.9102H59.9091C59.9091 67.9102 59.9091 67.9102 59.8182 67.9102C59.8182 67.9102 59.8182 67.9102 59.7273 67.9102H59.6364L50 63.092C49.9091 63.092 49.9091 63.092 49.8182 63.092C49.7273 63.092 49.6364 63.092 49.6364 63.1829L41.2727 67.9102C41.1818 68.0011 41 68.0011 40.8182 68.0011C40.6364 68.0011 40.5455 68.0011 40.3636 67.9102C40.1818 67.7283 40 67.4556 40 67.1829V45.4556C40 45.092 40.1818 44.8192 40.5455 44.6374L46.5455 42.092C46.6364 42.0011 46.7273 42.0011 46.9091 42.0011C47.2727 42.0011 47.5455 42.1829 47.7273 42.5465C47.8182 42.7283 47.8182 43.0011 47.7273 43.1829C47.6364 43.3647 47.4545 43.5465 47.2727 43.6374L42.0909 45.8192C41.9091 45.9102 41.8182 46.0011 41.8182 46.1829V64.8192C41.7273 65.092 41.8182 65.2738 41.9091 65.2738C42 65.2738 42.0909 65.3647 42.0909 65.3647C42.1818 65.3647 42.2727 65.3647 42.2727 65.2738L48.6364 61.6374C48.7273 61.5465 48.8182 61.4556 48.8182 61.2738V50.5465C48.8182 50.092 49.1818 49.7283 49.6364 49.7283C50.0909 49.7283 50.4545 50.092 50.4545 50.5465V61.2738C50.4545 61.4556 50.5455 61.5465 50.7273 61.6374L58.3636 65.4556C58.4545 65.4556 58.4545 65.4556 58.5455 65.4556C58.6364 65.4556 58.7273 65.4556 58.7273 65.3647C58.8182 65.2738 58.9091 65.1829 58.9091 65.0011V60.7283C58.9091 60.2738 59.2727 59.9102 59.7273 59.9102C60.1818 59.9102 60.5455 60.2738 60.5455 60.7283V65.0011C60.5455 65.1829 60.6364 65.2738 60.7273 65.3647C60.8182 65.3647 60.9091 65.4556 60.9091 65.4556C61 65.4556 61 65.4556 61.0909 65.4556L69.0909 61.6374C69.2727 61.5465 69.3636 61.4556 69.3636 61.2738V50.5465C69.3636 50.092 69.7273 49.7283 70.1818 49.7283C70.6364 49.7283 71 50.092 71 50.5465V61.2738C71 61.4556 71.0909 61.5465 71.1818 61.6374L77.5455 65.2738C77.6364 65.2738 77.6364 65.3647 77.7273 65.3647C77.8182 65.3647 77.9091 65.3647 77.9091 65.2738C78 65.1829 78.0909 65.092 78.0909 64.9102V46.2738C78.0909 46.092 78 45.9102 77.8182 45.9102L72.1818 43.5465C72 43.4556 71.8182 43.2738 71.7273 43.092C71.6364 42.9102 71.6364 42.6374 71.7273 42.4556C71.8182 42.1829 72.1818 41.9102 72.5455 41.9102C72.6364 41.9102 72.8182 41.9102 72.9091 42.0011L79.2727 44.7283C79.5455 44.8192 79.8182 45.1829 79.8182 45.5465V67.2738C79.8182 67.5465 79.6364 67.8192 79.3636 68.0011C79.4545 68.0011 79.2727 68.0011 79.1818 68.0011Z" fill="#003575"/>
<path d="M60.0004 43.7273C57.0913 43.7273 54.6367 41.3636 54.6367 38.3636C54.6367 35.4545 57.0004 33 60.0004 33C62.9094 33 65.364 35.3636 65.364 38.3636C65.364 41.3636 62.9094 43.7273 60.0004 43.7273ZM60.0004 34.7273C58.0004 34.7273 56.364 36.3636 56.364 38.3636C56.364 40.3636 58.0004 42 60.0004 42C62.0004 42 63.6367 40.3636 63.6367 38.3636C63.6367 36.3636 62.0004 34.7273 60.0004 34.7273Z" fill="#003575"/>
<path d="M60.0008 56.5455C59.8189 56.5455 59.5462 56.4545 59.4553 56.2727C59.0917 55.9091 49.5462 46.9091 49.5462 38.1818C49.4553 32.5455 54.1826 28 60.0008 28C65.8189 28 70.5462 32.5455 70.5462 38.1818C70.5462 47 61.0008 55.9091 60.6371 56.2727C60.4553 56.4545 60.1826 56.5455 60.0008 56.5455ZM60.0008 29.7273C55.1826 29.7273 51.1826 33.5455 51.1826 38.1818C51.1826 44.6364 57.0917 51.5455 59.728 54.1818C59.8189 54.2727 59.9098 54.2727 60.0008 54.2727C60.0917 54.2727 60.1826 54.1818 60.2735 54.1818C62.8189 51.5455 68.8189 44.6364 68.8189 38.1818C68.8189 33.5455 64.8189 29.7273 60.0008 29.7273Z" fill="#003575"/>
</g>
<defs>
<clipPath id="clip0">
<rect width="40" height="40" fill="white" transform="translate(40 28)"/>
</clipPath>
</defs>
</svg>
