<svg width="28" height="28" viewBox="0 0 28 28" fill="none" xmlns="http://www.w3.org/2000/svg">
<circle r="14" transform="matrix(1 -8.74228e-08 -8.74228e-08 -1 14 14)" fill="#2E62C5"/>
<path d="M17.4426 14.5403L12.4959 19.4869C12.3875 19.5963 12.2584 19.6831 12.1163 19.7423C11.9741 19.8015 11.8216 19.832 11.6676 19.832C11.5136 19.832 11.3611 19.8015 11.2189 19.7423C11.0767 19.6831 10.9477 19.5963 10.8393 19.4869C10.622 19.2683 10.5 18.9726 10.5 18.6644C10.5 18.3562 10.622 18.0605 10.8393 17.8419L14.9693 13.7119L10.8393 9.58193C10.622 9.36334 10.5 9.06765 10.5 8.75943C10.5 8.45122 10.622 8.15552 10.8393 7.93693C10.9483 7.8288 11.0776 7.74326 11.2197 7.6852C11.3618 7.62714 11.514 7.59771 11.6676 7.5986C11.8211 7.59771 11.9733 7.62714 12.1155 7.6852C12.2576 7.74326 12.3869 7.8288 12.4959 7.93693L17.4426 12.8836C17.5519 12.9921 17.6387 13.1211 17.698 13.2633C17.7572 13.4054 17.7877 13.5579 17.7877 13.7119C17.7877 13.8659 17.7572 14.0184 17.698 14.1606C17.6387 14.3028 17.5519 14.4318 17.4426 14.5403Z" fill="white"/>
</svg>
