<svg width="57" height="48" viewBox="0 0 57 48" fill="none" xmlns="http://www.w3.org/2000/svg">
<path d="M47.3154 0H8.88456C3.92574 0 0 3.92574 0 8.88456V29.9596C0 34.9184 3.92574 38.8441 8.88456 38.8441H22.1081L26.6537 46.2824C26.6537 46.2824 26.6537 46.2824 26.8603 46.489C27.0669 46.9022 27.6868 47.3154 28.1 47.3154C28.7199 47.3154 29.1331 47.1088 29.3397 46.489C29.5463 46.2824 29.5463 46.2824 29.5463 46.2824L34.0919 38.8441H47.3154C52.2743 38.8441 56.2 34.9184 56.2 29.9596V8.88456C56.2 4.13236 52.2743 0 47.3154 0Z" fill="white"/>
<path d="M12.3973 15.4999C12.3973 15.4999 10.951 15.5 9.50469 16.9463V11.5742H5.99219V25.8308H9.50469V24.7977C9.50469 24.7977 10.3312 26.2441 12.3973 26.2441C12.3973 26.2441 17.1495 26.0375 17.1495 20.872C17.3562 20.872 17.1495 15.4999 12.3973 15.4999ZM11.7775 23.1448C10.5378 23.1448 9.50469 22.1117 9.50469 20.872C9.50469 19.6323 10.5378 18.5992 11.7775 18.5992C13.0172 18.5992 14.0503 19.6323 14.0503 20.872C13.8437 22.1117 13.0172 23.1448 11.7775 23.1448Z" fill="#59C451"/>
<path d="M18.3887 11.1543V14.4602C18.3887 14.4602 20.0416 14.4602 20.0416 17.3528V25.8241H23.3475V16.5264C23.3475 16.5264 23.5541 11.1543 18.3887 11.1543Z" fill="#59C451"/>
<path d="M31.4053 15.707C31.4053 15.707 25.62 15.707 25.62 21.0791C25.62 21.0791 25.4134 26.2445 31.4053 26.2445C31.4053 26.2445 37.1906 26.2445 37.1906 21.0791C37.1906 20.8725 37.3972 15.707 31.4053 15.707ZM31.4053 23.1453C30.1656 23.1453 29.1325 22.1122 29.1325 20.8725C29.1325 19.6328 30.1656 18.5997 31.4053 18.5997C32.645 18.5997 33.6781 19.6328 33.6781 20.8725C33.6781 22.1122 32.645 23.1453 31.4053 23.1453Z" fill="#59C451"/>
<path d="M46.6952 15.9049V16.938C46.6952 16.938 45.6621 15.6982 43.8026 15.6982C43.8026 15.6982 38.8438 15.4916 38.8438 21.0703C38.8438 21.0703 38.8437 26.2357 43.596 26.2357C43.596 26.2357 45.4555 26.2357 46.6952 24.996V25.4093C46.6952 25.4093 46.9018 27.8887 44.4224 27.8887H43.596V30.9879H44.8357C44.8357 30.9879 49.7945 30.9879 49.7945 25.6159V15.9049H46.6952ZM44.8357 23.1365C43.596 23.1365 42.5629 22.1034 42.5629 20.8637C42.5629 19.624 43.596 18.5909 44.8357 18.5909C46.0754 18.5909 47.1085 19.624 47.1085 20.8637C46.9018 22.1034 45.8687 23.1365 44.8357 23.1365Z" fill="#59C451"/>
</svg>
