<svg width="42" height="19" viewBox="0 0 42 19" fill="none" xmlns="http://www.w3.org/2000/svg">
<path d="M6.08955 4.21293C6.08955 4.21293 4.65672 4.21293 3.31343 5.46764V0.269531H0V13.9818H3.31343V12.9063C3.31343 12.9063 4.1194 14.3403 6.08955 14.3403C6.08955 14.3403 10.7463 14.161 10.7463 9.23179C10.7463 9.23179 10.5672 4.21293 6.08955 4.21293ZM5.37313 11.4724C4.20896 11.4724 3.22388 10.4865 3.22388 9.32142C3.22388 8.15632 4.20896 7.17047 5.37313 7.17047C6.53731 7.17047 7.52239 8.15632 7.52239 9.32142C7.43284 10.4865 6.53731 11.4724 5.37313 11.4724Z" fill="white"/>
<path d="M11.7305 0V3.13679C11.7305 3.13679 13.2529 3.04717 13.2529 5.82547V13.9811H16.3872V5.10849C16.4767 5.10849 16.5663 0 11.7305 0Z" fill="white"/>
<path d="M24.1782 4.30273C24.1782 4.30273 18.7155 4.30273 18.7155 9.41122C18.7155 9.41122 18.5364 14.4301 24.1782 14.4301C24.1782 14.4301 29.7304 14.4301 29.7304 9.41122C29.7304 9.3216 29.9095 4.30273 24.1782 4.30273ZM24.1782 11.4725C23.014 11.4725 22.0289 10.4867 22.0289 9.3216C22.0289 8.15651 23.014 7.17066 24.1782 7.17066C25.3423 7.17066 26.3274 8.15651 26.3274 9.3216C26.3274 10.4867 25.3423 11.4725 24.1782 11.4725Z" fill="white"/>
<path d="M38.7767 4.57017V5.4664C38.7767 5.4664 37.7916 4.21168 36.0006 4.21168C36.0006 4.21168 31.3439 4.03244 31.3439 9.23055C31.3439 9.23055 31.2543 14.0702 35.8215 14.0702C35.8215 14.0702 37.7021 14.1598 38.6872 12.8155V13.6221C38.6872 13.6221 38.9558 16.0419 36.6275 16.0419H35.8215V18.9994H37.0752C37.0752 18.9994 41.911 19.089 41.911 13.8909V4.57017H38.7767ZM36.8066 11.4711C35.6424 11.4711 34.6573 10.4853 34.6573 9.32017C34.6573 8.15508 35.6424 7.16923 36.8066 7.16923C37.9707 7.16923 38.9558 8.15508 38.9558 9.32017C38.9558 10.4853 37.9707 11.4711 36.8066 11.4711Z" fill="white"/>
</svg>
