<svg width="64" height="64" viewBox="0 0 64 64" fill="none" xmlns="http://www.w3.org/2000/svg">
<path d="M61.3822 22.7969H22.6113V46.8455H61.3822V22.7969Z" fill="white"/>
<path d="M41.898 18.4908V22.7877H22.6111V31.8887L10.0162 40.7925V31.1561H2.85938V3.86719H41.898V18.4908Z" fill="white"/>
<path d="M41.898 18.4908V22.7877H22.6111V31.8887L10.0162 40.7925V31.1561H6.85938V7.86719H41.898V18.4908Z" fill="#80B0E8"/>
<path d="M43.3722 46.8447C45.554 46.8447 47.3226 42.8583 47.3226 37.9409C47.3226 33.0235 45.554 29.0371 43.3722 29.0371C41.1905 29.0371 39.4219 33.0235 39.4219 37.9409C39.4219 42.8583 41.1905 46.8447 43.3722 46.8447Z" fill="#80B0E8"/>
<path d="M53.0003 52.9676L48.4498 50.6289H47.5763C45.9421 51.5165 44.0402 52.0237 41.9974 52.0237C39.5465 52.0237 36.7966 51.625 36.7966 51.625C36.7966 51.625 30.984 54.3125 31.7823 62.6744H54.9304V57.4335L53.0003 52.9676Z" fill="#80B0E8"/>
<path d="M55.747 48.1672C55.0144 48.1672 54.4227 47.5755 54.4227 46.8429C54.4227 46.1104 55.0144 45.5186 55.747 45.5186H59.7058C60.058 45.5186 60.3538 45.2228 60.3538 44.8706V24.9357C60.3538 24.7666 60.2834 24.5976 60.1566 24.4708C60.0298 24.344 59.8748 24.2876 59.6917 24.2876L24.0907 24.4285C23.7385 24.4285 23.4426 24.7244 23.4426 25.0766V44.9974C23.4426 45.1805 23.513 45.3355 23.6398 45.4623C23.7666 45.575 23.9216 45.6454 24.0907 45.6454C24.1048 45.6454 28.0635 45.5046 28.0635 45.5046C28.768 45.5046 29.3738 46.0963 29.3738 46.8288C29.3738 47.5614 28.7821 48.1531 28.0495 48.1531H24.0907C22.2733 48.1531 20.7799 46.7302 20.7799 44.9833V35.2201C20.7799 34.9665 20.639 34.7411 20.3995 34.6284C20.315 34.5862 20.2164 34.5721 20.1178 34.5721C19.9628 34.5721 19.8219 34.6284 19.7092 34.727L11.0872 41.912C10.8477 42.1093 10.5518 42.222 10.2419 42.222C10.0447 42.222 9.8615 42.1797 9.67835 42.0952C9.21344 41.8839 8.9176 41.4049 8.9176 40.8977V32.9942C8.9176 32.642 8.62173 32.3461 8.26953 32.3461H4.31073C2.49334 32.3461 1 30.8669 1 29.0354V5.31074C1 3.49335 2.47925 2 4.31073 2H39.9118C41.7292 2 43.2225 3.47927 43.2225 5.31074V17.1731C43.2225 17.9056 42.6308 18.4974 41.8982 18.4974C41.1656 18.4974 40.5739 17.9056 40.5739 17.1731V5.31074C40.5739 4.95853 40.2781 4.66268 39.9259 4.66268H4.32483C3.97262 4.66268 3.67676 4.95853 3.67676 5.31074V29.0495C3.67676 29.4017 3.97262 29.6975 4.32483 29.6975H10.256C10.9886 29.6975 11.5803 30.2892 11.5803 31.0218V36.6853C11.5803 36.9389 11.7212 37.1643 11.9607 37.277C12.0452 37.3193 12.1438 37.3334 12.2424 37.3334C12.3974 37.3334 12.5383 37.277 12.6651 37.1784L20.5827 30.5851C20.7376 30.4583 20.8222 30.2751 20.8222 30.092V24.9498C20.8222 23.2028 22.3015 21.7799 24.1329 21.7799H59.734C61.5513 21.7799 63.0447 23.2028 63.0447 24.9498V45.0115C63.0447 46.7584 61.5654 48.1813 59.734 48.1813H55.747V48.1672Z" fill="#003575"/>
<path d="M12.2286 12.5627C11.496 12.5627 10.9043 11.9709 10.9043 11.2384C10.9043 10.5058 11.496 9.91406 12.2286 9.91406H32.0085C32.7411 9.91406 33.3328 10.5058 33.3328 11.2384C33.3328 11.9709 32.7411 12.5627 32.0085 12.5627H12.2286Z" fill="#003575"/>
<path d="M12.2286 20.4767C11.496 20.4767 10.9043 19.885 10.9043 19.1524C10.9043 18.4198 11.496 17.8281 12.2286 17.8281H18.1597C18.8923 17.8281 19.484 18.4198 19.484 19.1524C19.484 19.885 18.8923 20.4767 18.1597 20.4767H12.2286Z" fill="#003575"/>
<path d="M41.898 48.1671C37.8265 48.1671 34.6426 43.1094 34.6426 36.6711C34.6426 28.5844 39.7144 27.7109 41.898 27.7109C44.0817 27.7109 49.1535 28.5844 49.1535 36.6711C49.1535 43.1094 45.9696 48.1671 41.898 48.1671ZM41.898 30.3736C40.7569 30.3736 37.2912 30.3736 37.2912 36.6711C37.2912 41.3766 39.4467 45.5185 41.898 45.5185C44.3494 45.5185 46.5049 41.3906 46.5049 36.6711C46.5049 30.3736 43.0392 30.3736 41.898 30.3736Z" fill="#003575"/>
<path d="M28.0489 63.9836C27.3163 63.9836 26.7246 63.3919 26.7246 62.6593C26.7246 57.6438 27.9503 53.9668 30.3735 51.6986C32.529 49.684 34.9099 49.4727 35.8397 49.4727C35.9524 49.4727 36.0229 49.4727 36.0651 49.4727C36.7836 49.529 37.3331 50.163 37.2908 50.8956C37.2485 51.5859 36.6568 52.1353 35.9665 52.1353C35.9383 52.1353 35.9242 52.1353 35.8961 52.1353C35.8679 52.1353 35.8256 52.1353 35.7693 52.1353C35.4312 52.1353 33.6842 52.2058 32.1204 53.7132C30.6271 55.1502 29.7254 57.4889 29.4577 60.6446C29.4436 60.8278 29.5 61.011 29.6268 61.1377C29.7536 61.2786 29.9226 61.3491 30.1058 61.3491H53.6755C53.8586 61.3491 54.0277 61.2786 54.1545 61.1377C54.2813 61.011 54.3376 60.8278 54.3235 60.6446C54.0558 57.4889 53.1542 55.1643 51.6608 53.7132C50.097 52.2058 48.336 52.1353 47.9979 52.1353C47.9415 52.1353 47.8993 52.1353 47.8852 52.1353C47.8429 52.1353 47.8147 52.1353 47.7866 52.1353C47.1244 52.1353 46.5609 51.5718 46.5186 50.8815C46.4764 50.1489 47.0117 49.529 47.7443 49.4867C47.7725 49.4867 47.857 49.4867 47.9556 49.4867C48.8855 49.4867 51.2664 49.6981 53.4219 51.7127C55.8451 53.9809 57.0707 57.672 57.0707 62.6734C57.0707 63.406 56.479 63.9977 55.7464 63.9977H28.0489V63.9836Z" fill="#003575"/>
</svg>
