<svg width="68" height="14" viewBox="0 0 68 14" fill="none" xmlns="http://www.w3.org/2000/svg">
<g clip-path="url(#clip0)">
<path fill-rule="evenodd" clip-rule="evenodd" d="M32.0079 0.743808C32.9756 0.594872 33.9061 0.408702 34.8738 0.259766V4.72785C35.246 4.65338 35.6182 4.54168 36.0276 4.50445C36.9581 4.39274 37.8886 4.39274 38.7819 4.69062C39.6379 4.98849 40.1218 5.58423 40.2706 6.47785C40.3451 6.96189 40.3823 7.44594 40.3823 7.92998C40.3823 8.89806 40.3823 9.86615 40.3451 10.8342C40.3079 11.7651 40.0473 12.6215 39.2657 13.2172C38.7446 13.6268 38.1491 13.813 37.5164 13.9247C36.2509 14.1481 34.9855 14.0736 33.72 13.9247C33.1989 13.8502 32.6779 13.7757 32.1568 13.7013C32.0079 13.7013 31.9707 13.6268 31.9707 13.4779C31.9707 13.4034 31.9707 13.2917 31.9707 13.2172C31.9707 9.1587 31.9707 5.13743 31.9707 1.07891C31.9707 0.929978 31.9707 0.85551 32.0079 0.743808ZM34.8738 11.5417C35.4321 11.6161 35.9904 11.6161 36.5115 11.5417C37.0698 11.43 37.3675 11.1321 37.4047 10.5364C37.442 9.64274 37.442 8.74913 37.442 7.85551C37.442 7.25977 37.1442 6.96189 36.5487 6.88743C35.9904 6.77572 35.4693 6.96189 34.9483 7.22253C34.911 7.25977 34.8366 7.33423 34.8366 7.4087C34.8366 8.22785 34.8366 9.00977 34.8366 9.82891V11.5417H34.8738Z" fill="white"/>
<path fill-rule="evenodd" clip-rule="evenodd" d="M68.0002 13.8503H67.4791C66.6975 13.8503 65.8786 13.8503 65.097 13.8503C64.9109 13.8503 64.8365 13.8131 64.7248 13.6641C63.9432 12.361 63.1616 11.0578 62.38 9.75457C62.3428 9.71734 62.3428 9.6801 62.2684 9.60564V13.8503C62.1939 13.8503 62.1195 13.8503 62.045 13.8503C61.2262 13.8503 60.4074 13.8503 59.6258 13.8503C59.4397 13.8503 59.3652 13.8131 59.3652 13.6269C59.3652 12.6961 59.3652 11.8024 59.3652 10.8716V1.00457C59.3652 0.706699 59.3652 0.706699 59.663 0.669465C60.4446 0.557763 61.2634 0.408826 62.045 0.25989C62.1195 0.25989 62.1939 0.25989 62.2684 0.222656V8.48861H62.3056C62.38 8.37691 62.4545 8.26521 62.5289 8.15351C63.2733 6.99925 63.9804 5.845 64.7248 4.69074C64.7993 4.54181 64.9109 4.46734 65.097 4.46734C65.9531 4.46734 66.8091 4.46734 67.6652 4.46734H68.0002C67.9629 4.57904 67.9257 4.61627 67.8885 4.69074C67.0324 6.0684 66.1392 7.44606 65.2831 8.78649C65.1715 8.93542 65.1715 9.04713 65.2831 9.19606C66.1764 10.6482 67.0324 12.1376 67.9257 13.5897C67.9257 13.7386 67.9629 13.7759 68.0002 13.8503Z" fill="white"/>
<path fill-rule="evenodd" clip-rule="evenodd" d="M30.8171 11.2821C30.8171 11.3566 30.8171 11.431 30.8171 11.4683C30.8171 12.1385 30.8171 12.7715 30.8171 13.4417C30.8171 13.5906 30.7799 13.6279 30.631 13.6651C29.3283 13.963 28.0257 14.0374 26.6858 13.963C26.053 13.9257 25.4575 13.814 24.862 13.5162C23.8199 13.0321 23.2243 12.1757 23.0382 11.0587C22.9638 10.6491 22.9638 10.2396 22.9638 9.82998C22.9638 9.12254 22.9266 8.41509 22.9638 7.67041C23.001 6.88849 23.2243 6.10658 23.7454 5.51083C24.2293 4.98956 24.8248 4.69168 25.4947 4.54275C26.6485 4.28211 27.8023 4.28211 28.9561 4.65445C30.1472 5.06403 30.8171 5.88317 30.966 7.1119C31.0777 8.04275 31.0404 9.01083 31.1149 10.0162H30.8171C29.2539 10.0162 27.6535 10.0162 26.0902 10.0162C25.9041 10.0162 25.8297 10.0534 25.8669 10.2396C25.8669 10.3885 25.8669 10.5374 25.9041 10.6864C25.9786 11.1704 26.2763 11.431 26.7602 11.4683C27.3557 11.5055 27.9512 11.5427 28.5467 11.5055C29.2539 11.4683 29.9611 11.3193 30.7055 11.2449C30.7427 11.2821 30.7799 11.2821 30.8171 11.2821ZM27.0207 8.07998H27.579C28.2118 8.07998 28.2118 8.07998 28.1373 7.447C28.1001 7.03743 27.8768 6.70232 27.4301 6.62785C27.1324 6.59062 26.8346 6.59062 26.5369 6.62785C26.2019 6.66509 25.9414 6.88849 25.8669 7.26083C25.8297 7.48424 25.8297 7.67041 25.7925 7.89381C25.7925 8.04275 25.8297 8.07998 25.9786 8.07998C26.3508 8.07998 26.6858 8.07998 27.0207 8.07998Z" fill="white"/>
<path fill-rule="evenodd" clip-rule="evenodd" d="M58.6572 9.15999C58.62 9.79296 58.62 10.4259 58.5456 11.0589C58.3223 12.511 57.4662 13.4047 56.0519 13.777C54.8609 14.0749 53.707 14.0376 52.516 13.7025C51.2506 13.293 50.5434 12.4366 50.3201 11.1334C50.2456 10.6493 50.2456 10.1653 50.2456 9.68126C50.2456 8.97382 50.2084 8.26637 50.2829 7.59616C50.4317 5.95786 51.3622 4.9153 52.9999 4.5802C54.1165 4.35679 55.2703 4.35679 56.3868 4.72913C57.6151 5.13871 58.3223 5.99509 58.5456 7.26105C58.62 7.85679 58.62 8.52701 58.6572 9.15999ZM55.7169 9.19722C55.7169 8.75041 55.7169 8.3036 55.7169 7.81956C55.7169 7.37275 55.4191 7.03765 55.0097 6.88871C54.6748 6.77701 54.3026 6.77701 53.9676 6.85147C53.4837 6.96318 53.186 7.29828 53.186 7.74509C53.186 8.67594 53.186 9.60679 53.186 10.5376C53.186 10.9845 53.4837 11.3196 53.8931 11.4313C54.1537 11.5057 54.4142 11.5057 54.6748 11.5057C55.3075 11.4685 55.6797 11.0589 55.7169 10.3887C55.7169 10.0164 55.7169 9.60679 55.7169 9.19722Z" fill="white"/>
<path fill-rule="evenodd" clip-rule="evenodd" d="M49.5394 9.27047C49.5022 9.86622 49.5022 10.5737 49.3533 11.2439C49.0927 12.6588 48.1995 13.4779 46.8596 13.7758C45.743 14.0364 44.6264 14.0364 43.547 13.7013C42.2443 13.329 41.4627 12.4726 41.2394 11.1322C41.165 10.7971 41.165 10.462 41.165 10.1641C41.165 9.38218 41.1278 8.6375 41.165 7.85558C41.2022 6.8875 41.5 5.95664 42.2816 5.28643C42.8026 4.83962 43.4354 4.61622 44.1053 4.50452C45.2219 4.31835 46.3385 4.31835 47.3806 4.72792C48.5717 5.17473 49.2416 6.03111 49.4277 7.25984C49.5022 7.89281 49.5022 8.52579 49.5394 9.27047ZM44.0309 9.19601C44.0309 9.60558 44.0309 10.0152 44.0309 10.4247C44.0309 10.4992 44.0309 10.5364 44.0309 10.6109C44.0681 11.0205 44.2914 11.3556 44.7008 11.4673C44.9614 11.5418 45.2591 11.579 45.5569 11.5418C46.1524 11.5045 46.5618 11.0949 46.5618 10.4992C46.5618 9.60558 46.5618 8.7492 46.5618 7.85558C46.5618 7.37154 46.2641 7.03643 45.8174 6.8875C45.4452 6.77579 45.1102 6.77579 44.7381 6.8875C44.2914 6.9992 44.0309 7.3343 44.0309 7.78111C44.0309 8.26515 44.0309 8.71196 44.0309 9.19601Z" fill="white"/>
<path fill-rule="evenodd" clip-rule="evenodd" d="M11.5745 13.3671C11.0162 13.5533 10.4951 13.7395 9.97406 13.8512C9.34133 14.0001 8.67138 14.0373 8.03865 13.8512C7.03372 13.5533 6.47543 12.8831 6.25211 11.8778C6.14045 11.3937 6.17767 10.8724 6.25211 10.3884C6.43821 9.45754 7.03372 8.93627 7.92699 8.71286C8.3364 8.6384 8.78304 8.60116 9.22967 8.56393C9.82518 8.52669 10.3835 8.56393 10.979 8.56393C11.1651 8.56393 11.2023 8.52669 11.2023 8.34052C11.2023 8.19159 11.2023 8.04265 11.2023 7.89371C11.2023 7.14903 10.8673 7.0001 10.2718 6.96286C9.34133 6.92563 8.41084 6.92563 7.48036 6.92563C7.40592 6.92563 7.33148 6.92563 7.21982 6.92563C7.21982 6.70223 7.25704 6.47882 7.25704 6.29265C7.29426 5.73414 7.3687 5.21286 7.44314 4.65435C7.44314 4.61712 7.55479 4.50542 7.59201 4.54265C8.78304 4.54265 10.0113 4.54265 11.2023 4.57988C11.5745 4.57988 11.9839 4.69159 12.3561 4.80329C13.3983 5.10116 13.9193 5.84584 14.0682 6.85116C14.1426 7.26074 14.1426 7.70754 14.1426 8.15435C14.1426 9.97882 14.1426 11.8033 14.1426 13.6278C14.1426 13.8139 14.1054 13.8884 13.8821 13.8884C13.2494 13.8884 12.5794 13.8884 11.9467 13.8884C11.7606 13.8884 11.6862 13.8139 11.6862 13.6278C11.6117 13.5533 11.5745 13.4416 11.5745 13.3671ZM10.309 10.5373C10.0857 10.5373 9.89962 10.5373 9.6763 10.5373C9.26689 10.5373 9.08079 10.7607 9.08079 11.1703C9.08079 11.6544 9.30411 11.8778 9.78796 11.915C10.2346 11.9522 10.6812 11.8033 11.0534 11.5799C11.0906 11.5427 11.1651 11.4682 11.1651 11.3937C11.1651 11.1703 11.1651 10.9469 11.1651 10.7235C11.1651 10.5746 11.1279 10.5373 10.979 10.5373C10.7557 10.5373 10.5324 10.5373 10.309 10.5373Z" fill="white"/>
<path fill-rule="evenodd" clip-rule="evenodd" d="M6.47558 0V1.60106C6.47558 1.82447 6.47558 2.04787 6.47558 2.27128C6.47558 2.42021 6.43836 2.45745 6.28948 2.45745C5.91729 2.45745 5.54509 2.45745 5.13568 2.45745C5.02402 2.45745 4.87514 2.49468 4.76348 2.49468C4.50295 2.56915 4.35407 2.71809 4.35407 2.97872C4.35407 3.5 4.35407 3.98404 4.35407 4.54255H6.47558C6.43836 4.91489 6.40114 5.28723 6.36392 5.65957C6.3267 6.03192 6.28948 6.36702 6.25226 6.73936C6.25226 6.8883 6.17782 6.96277 5.99172 6.96277C5.43343 6.96277 4.87514 6.96277 4.31685 6.96277V13.8511H1.45095C1.45095 13.7394 1.41373 13.6649 1.41373 13.5532C1.41373 11.4309 1.41373 9.30851 1.41373 7.2234C1.41373 7.03723 1.37651 6.96277 1.15319 6.96277C0.780997 7 0.371582 6.96277 -0.0378321 6.96277V6.70213C-0.0378321 6.06915 -0.0378321 5.4734 -0.0378321 4.84043C-0.0378321 4.50532 -0.0750516 4.54255 0.259924 4.54255C0.55768 4.54255 0.892655 4.54255 1.19041 4.54255C1.33929 4.54255 1.37651 4.50532 1.37651 4.35638C1.37651 3.79787 1.37651 3.20213 1.41373 2.64362C1.48817 1.89894 1.67426 1.26596 2.23256 0.744681C2.64197 0.37234 3.12582 0.148936 3.68412 0.111702C4.57738 0.037234 5.50787 0.037234 6.47558 0Z" fill="white"/>
<path fill-rule="evenodd" clip-rule="evenodd" d="M22.1456 7.14806C21.699 7.07359 21.2523 6.99913 20.8429 6.96189C20.0985 6.85019 19.3913 6.77572 18.647 6.92466C18.2003 7.03636 17.9026 7.33423 17.9026 7.78104C17.9026 8.74913 17.9026 9.67998 17.9026 10.6481C17.9026 11.0949 18.1631 11.43 18.6097 11.4672C19.1308 11.5417 19.6891 11.5789 20.2102 11.5417C20.8057 11.5044 21.4012 11.3927 21.9967 11.281C22.0339 11.281 22.0712 11.281 22.1456 11.281C22.1456 11.3183 22.1828 11.3927 22.1828 11.43C22.1828 12.1002 22.1828 12.7704 22.1828 13.4406C22.1828 13.5523 22.1456 13.6268 21.9967 13.664C20.9173 13.8874 19.838 14.0364 18.7586 13.9619C17.7909 13.8874 16.8604 13.664 16.116 12.9938C15.4833 12.4353 15.1111 11.6906 15.0739 10.8715C14.9994 9.86615 14.9622 8.82359 15.0367 7.81828C15.1111 6.66402 15.5577 5.6587 16.5999 5.06296C17.1582 4.72785 17.7909 4.54168 18.4609 4.46721C19.6519 4.35551 20.8429 4.50445 21.9967 4.76508C22.0712 4.76508 22.1456 4.87679 22.1456 4.91402C22.1456 5.62147 22.1456 6.36615 22.1456 7.14806Z" fill="white"/>
</g>
<defs>
<clipPath id="clip0">
<rect width="68" height="14" fill="white"/>
</clipPath>
</defs>
</svg>
