<svg width="69" height="13" viewBox="0 0 69 13" fill="none" xmlns="http://www.w3.org/2000/svg">
<path fill-rule="evenodd" clip-rule="evenodd" d="M10.0299 11.3926C10.0299 11.7947 9.88763 12.1968 9.53196 12.5318C9.17629 12.8669 8.82062 13.0009 8.32268 13.0009H5.05052C3.62783 13.0009 2.48969 12.5318 1.49381 11.5937C0.497938 10.6555 0 9.58336 0 8.24315V1.94419C0 1.47511 0.142268 1.14006 0.497938 0.80501C0.853608 0.469958 1.20928 0.335938 1.70722 0.335938C2.13402 0.335938 2.56082 0.469958 2.84536 0.80501C3.20103 1.14006 3.3433 1.47511 3.3433 1.94419V4.22254H8.10928C8.53608 4.22254 8.89175 4.35656 9.24742 4.6246C9.53196 4.89264 9.67423 5.22769 9.67423 5.62975C9.67423 6.03181 9.53196 6.36687 9.24742 6.63491C8.96289 6.90295 8.60722 7.03697 8.18041 7.03697H3.3433V8.17614C3.3433 8.71223 3.5567 9.04728 3.84124 9.38233C4.19691 9.71738 4.55258 9.8514 5.05052 9.8514H8.39381C8.89175 9.8514 9.24742 9.98542 9.60309 10.3205C9.88763 10.5885 10.0299 10.9906 10.0299 11.3926Z" fill="white"/>
<path fill-rule="evenodd" clip-rule="evenodd" d="M49.0113 11.3926C49.0113 11.7947 48.869 12.1968 48.5134 12.5318C48.1577 12.8669 47.802 13.0009 47.3041 13.0009H45.8103C44.4587 13.0009 43.2495 12.5318 42.2536 11.5937C41.2577 10.6555 40.7598 9.58336 40.7598 8.24315V1.94419C40.7598 1.47511 40.902 1.14006 41.2577 0.80501C41.6134 0.469958 41.969 0.335938 42.467 0.335938C42.8938 0.335938 43.3206 0.469958 43.6763 0.80501C44.0319 1.14006 44.1742 1.47511 44.1742 1.94419V4.22254H47.0907C47.5175 4.22254 47.8732 4.35656 48.2288 4.6246C48.5134 4.89264 48.6556 5.22769 48.6556 5.62975C48.6556 6.03181 48.5134 6.36687 48.2288 6.63491C47.9443 6.90295 47.5886 7.03697 47.1618 7.03697H44.2453V8.17614C44.2453 8.57821 44.3876 8.98027 44.7433 9.31532C45.0989 9.65037 45.4546 9.78439 45.9525 9.78439H47.4464C47.8732 9.78439 48.3 9.91841 48.6556 10.2535C48.869 10.5885 49.0113 10.9906 49.0113 11.3926Z" fill="white"/>
<path fill-rule="evenodd" clip-rule="evenodd" d="M40.191 11.3926C40.191 11.7947 40.0487 12.1968 39.6931 12.5318C39.3374 12.8669 38.9817 13.0009 38.4838 13.0009H36.99C35.6384 13.0009 34.4291 12.5318 33.4333 11.5937C32.4374 10.6555 31.9395 9.58336 31.9395 8.24315V1.94419C31.9395 1.47511 32.0817 1.14006 32.4374 0.80501C32.7931 0.469958 33.1487 0.335938 33.6467 0.335938C34.0735 0.335938 34.5003 0.469958 34.8559 0.80501C35.2116 1.14006 35.3539 1.47511 35.3539 1.94419V4.22254H38.2704C38.6972 4.22254 39.0529 4.35656 39.4085 4.6246C39.6931 4.95965 39.8353 5.2947 39.8353 5.69676C39.8353 6.09882 39.6931 6.43388 39.4085 6.70192C39.124 6.96996 38.7683 7.10398 38.3415 7.10398H35.425V8.24315C35.425 8.64522 35.5673 9.04728 35.923 9.38233C36.2786 9.71738 36.6343 9.8514 37.1322 9.8514H38.626C39.0529 9.8514 39.4797 9.98542 39.8353 10.3205C40.0487 10.5885 40.191 10.9906 40.191 11.3926Z" fill="white"/>
<path fill-rule="evenodd" clip-rule="evenodd" d="M26.2491 8.57684C26.2491 9.78302 25.8223 10.8552 24.8975 11.7263C23.9728 12.5975 22.8347 12.9995 21.5542 12.9995C20.345 12.9995 19.3491 12.5975 18.4244 11.8603C17.4996 12.5975 16.5037 12.9995 15.2945 12.9995C14.014 12.9995 12.8759 12.5975 11.9512 11.7263C11.0264 10.8552 10.5996 9.85003 10.5996 8.57684V5.49436C10.5996 5.0923 10.7419 4.75725 11.0975 4.4222C11.3821 4.15416 11.7378 4.02014 12.1646 4.02014C12.5914 4.02014 12.947 4.15416 13.3027 4.4222C13.5872 4.69024 13.7295 5.0923 13.7295 5.49436V8.57684C13.7295 8.9789 13.8718 9.31395 14.1563 9.58199C14.4408 9.85003 14.7965 9.98405 15.2945 9.98405C15.7213 9.98405 16.0769 9.85003 16.3615 9.58199C16.646 9.31395 16.7883 8.9789 16.7883 8.57684V5.49436C16.7883 5.0923 16.9305 4.75725 17.2862 4.4222C17.5707 4.15416 17.9975 3.95312 18.4244 3.95312C18.8512 3.95312 19.2068 4.08715 19.5625 4.35519C19.847 4.62323 20.0604 5.02529 20.0604 5.42735V8.50983C20.0604 8.91189 20.2027 9.24694 20.4872 9.51498C20.7718 9.78302 21.1274 9.91704 21.5542 9.91704C21.9811 9.91704 22.3367 9.78302 22.6213 9.51498C22.9058 9.24694 23.0481 8.91189 23.0481 8.50983V5.49436C23.0481 5.0923 23.1903 4.75725 23.546 4.4222C23.8305 4.15416 24.2573 4.02014 24.6841 4.02014C25.1109 4.02014 25.4666 4.15416 25.8223 4.4222C26.1068 4.69024 26.2491 5.0923 26.2491 5.49436V8.57684V8.57684Z" fill="white"/>
<path fill-rule="evenodd" clip-rule="evenodd" d="M30.8012 1.60825C30.8012 2.01031 30.6589 2.41237 30.3032 2.74742C29.9475 3.08247 29.5919 3.2165 29.0939 3.2165C28.596 3.2165 28.2403 3.08247 27.8847 2.74742C27.529 2.41237 27.3867 2.07732 27.3867 1.60825C27.3867 1.20619 27.529 0.804124 27.8847 0.469072C28.2403 0.134021 28.596 0 29.0939 0C29.5207 0 29.9475 0.134021 30.3032 0.469072C30.6589 0.804124 30.8012 1.13918 30.8012 1.60825Z" fill="white"/>
<path fill-rule="evenodd" clip-rule="evenodd" d="M30.8012 11.3913C30.8012 11.7933 30.6589 12.1954 30.3032 12.5304C29.9475 12.8655 29.5919 12.9995 29.0939 12.9995C28.596 12.9995 28.2403 12.8655 27.8847 12.5304C27.529 12.1954 27.3867 11.8603 27.3867 11.3913V5.56137C27.3867 5.15931 27.529 4.75725 27.8847 4.4222C28.2403 4.08715 28.596 3.95312 29.0939 3.95312C29.5207 3.95312 29.9475 4.08715 30.3032 4.4222C30.6589 4.75725 30.8012 5.0923 30.8012 5.56137V11.3913Z" fill="white"/>
<path fill-rule="evenodd" clip-rule="evenodd" d="M69.0004 5.69553C69.0004 6.0976 68.8581 6.43265 68.5736 6.70069C68.2891 6.96873 67.9334 7.10275 67.4355 7.10275H65.1592C64.7324 7.10275 64.3767 7.23677 64.0922 7.50481C63.8076 7.77285 63.6654 8.1079 63.6654 8.50997V11.4584C63.6654 11.8605 63.5231 12.1955 63.2386 12.4636C62.954 12.7316 62.5984 12.8656 62.1715 12.8656C61.7447 12.8656 61.3891 12.7316 61.1045 12.4636C60.82 12.1955 60.6777 11.8605 60.6777 11.4584V8.50997C60.6777 7.30378 61.1045 6.29863 62.0293 5.42749C62.954 4.55636 64.021 4.1543 65.3014 4.1543H67.5777C68.0045 4.1543 68.3602 4.28832 68.7159 4.55636C68.8581 4.95842 69.0004 5.29347 69.0004 5.69553Z" fill="white"/>
<path fill-rule="evenodd" clip-rule="evenodd" d="M52.8528 7.30499H56.1961C56.1961 6.29983 54.56 6.29983 54.56 6.29983C54.56 6.29983 52.8528 6.29983 52.8528 7.30499ZM54.2755 13.0009C52.9239 13.0009 51.7147 12.5318 50.7188 11.5936C49.7229 10.6555 49.3672 9.58334 49.3672 8.24313C49.3672 8.24313 49.2961 4.02148 54.3466 4.02148C58.3301 4.02148 59.5394 6.63489 59.5394 7.97509C59.5394 8.98025 59.0415 9.38231 57.9033 9.38231H52.7817C52.7817 9.38231 52.5683 10.4545 54.9157 10.4545H57.8322C58.5435 10.4545 59.1837 10.9906 59.1837 11.7277C59.1837 12.4648 58.6147 13.0009 57.8322 13.0009H54.2755V13.0009Z" fill="white"/>
</svg>
