<svg width="75" height="65" viewBox="0 0 75 65" fill="none" xmlns="http://www.w3.org/2000/svg">
<path d="M72.744 64.9998H25.256C24.0152 64.9998 23 63.9959 23 62.7689V15.8081C23 14.5811 24.0152 13.5771 25.256 13.5771H72.744C73.9848 13.5771 75 14.5811 75 15.8081V62.7689C75 63.9959 73.9848 64.9998 72.744 64.9998Z" fill="#6993E6"/>
<path d="M33.7155 19.1546C31.4596 19.1546 29.7676 17.3699 29.7676 15.1389V11.9041C29.7676 9.78474 31.4596 8 33.7155 8C35.8587 8 37.6635 9.78474 37.6635 11.9041V15.1389C37.6635 17.3699 35.8587 19.1546 33.7155 19.1546Z" fill="#EAD45B"/>
<path d="M49.0563 19.1546C46.9132 19.1546 45.1084 17.3699 45.1084 15.2505V11.9041C45.1084 9.78474 46.9132 8 49.0563 8C51.1995 8 53.0043 9.78474 53.0043 11.9041V15.1389C53.0043 17.3699 51.1995 19.1546 49.0563 19.1546Z" fill="#EAD45B"/>
<path d="M64.2839 19.1546C62.1407 19.1546 60.3359 17.3699 60.3359 15.2505V11.9041C60.3359 9.78474 62.1407 8 64.2839 8C66.427 8 68.2318 9.78474 68.2318 11.9041V15.1389C68.2318 17.3699 66.5398 19.1546 64.2839 19.1546Z" fill="#EAD45B"/>
<path d="M68.3446 28.6357H29.7676V31.8706H68.3446V28.6357Z" fill="white"/>
<path d="M68.3446 35.8867H29.7676V39.1216H68.3446V35.8867Z" fill="white"/>
<path d="M68.3446 43.0254H29.7676V46.2602H68.3446V43.0254Z" fill="white"/>
<path d="M68.3446 50.2754H29.7676V53.5102H68.3446V50.2754Z" fill="white"/>
</svg>
