<svg width="17" height="17" viewBox="0 0 17 17" fill="none" xmlns="http://www.w3.org/2000/svg">
<path d="M3.86818 16C3.39959 16 3.05973 15.6594 3.05973 15.1827V9.41949C3.05973 8.94272 3.39959 8.59693 3.86818 8.59693C4.33677 8.59693 4.67662 8.94272 4.67662 9.41949V14.3601H12.3285V6.86797L8.50257 2.9752L2.37487 9.20992C2.22039 9.3671 2.01957 9.45616 1.80844 9.45616C1.59732 9.45616 1.3965 9.3671 1.24202 9.21516C1.08754 9.05274 1 8.84841 1 8.6336C1 8.41879 1.08754 8.21446 1.24202 8.05728L7.93615 1.24625C8.09063 1.08907 8.29145 1 8.50257 1C8.7137 1 8.91452 1.08907 9.069 1.24625L15.7631 8.05728C16.0824 8.38212 16.0824 8.88509 15.7631 9.20992C15.5984 9.37758 15.4181 9.45616 15.1967 9.45616C15.001 9.45616 14.7745 9.36186 14.6303 9.20992L13.9454 8.5131V15.1827C13.9454 15.6594 13.6056 16.0052 13.137 16.0052H3.86818V16Z" fill="#313131"/>
</svg>
