<svg width="16" height="16" viewBox="0 0 16 16" fill="none" xmlns="http://www.w3.org/2000/svg">
<path d="M13.3333 12.0007H12.6667V11.334C12.6667 11.1572 12.5964 10.9876 12.4714 10.8626C12.3464 10.7376 12.1768 10.6673 12 10.6673C11.8232 10.6673 11.6536 10.7376 11.5286 10.8626C11.4036 10.9876 11.3333 11.1572 11.3333 11.334V12.0007H10.6667C10.4899 12.0007 10.3203 12.0709 10.1953 12.1959C10.0702 12.3209 10 12.4905 10 12.6673C10 12.8441 10.0702 13.0137 10.1953 13.1387C10.3203 13.2637 10.4899 13.334 10.6667 13.334H11.3333V14.0007C11.3333 14.1775 11.4036 14.347 11.5286 14.4721C11.6536 14.5971 11.8232 14.6673 12 14.6673C12.1768 14.6673 12.3464 14.5971 12.4714 14.4721C12.5964 14.347 12.6667 14.1775 12.6667 14.0007V13.334H13.3333C13.5101 13.334 13.6797 13.2637 13.8047 13.1387C13.9298 13.0137 14 12.8441 14 12.6673C14 12.4905 13.9298 12.3209 13.8047 12.1959C13.6797 12.0709 13.5101 12.0007 13.3333 12.0007ZM8.66667 13.334H4C3.82319 13.334 3.65362 13.2637 3.5286 13.1387C3.40357 13.0137 3.33333 12.8441 3.33333 12.6673V3.33398C3.33333 3.15717 3.40357 2.9876 3.5286 2.86258C3.65362 2.73756 3.82319 2.66732 4 2.66732H7.33333V4.66732C7.33333 5.19775 7.54405 5.70646 7.91912 6.08153C8.29419 6.4566 8.8029 6.66732 9.33333 6.66732H11.3333V8.66732C11.3333 8.84413 11.4036 9.0137 11.5286 9.13872C11.6536 9.26375 11.8232 9.33398 12 9.33398C12.1768 9.33398 12.3464 9.26375 12.4714 9.13872C12.5964 9.0137 12.6667 8.84413 12.6667 8.66732V6.00065C12.6667 6.00065 12.6667 6.00065 12.6667 5.96065C12.6597 5.89941 12.6463 5.83907 12.6267 5.78065V5.72065C12.5946 5.6521 12.5519 5.58909 12.5 5.53398L8.5 1.53398C8.44489 1.48213 8.38188 1.43937 8.31333 1.40732C8.29128 1.40346 8.26872 1.40346 8.24667 1.40732C8.18184 1.37265 8.11218 1.34793 8.04 1.33398H4C3.46957 1.33398 2.96086 1.5447 2.58579 1.91977C2.21071 2.29484 2 2.80355 2 3.33398V12.6673C2 13.1978 2.21071 13.7065 2.58579 14.0815C2.96086 14.4566 3.46957 14.6673 4 14.6673H8.66667C8.84348 14.6673 9.01305 14.5971 9.13807 14.4721C9.2631 14.347 9.33333 14.1775 9.33333 14.0007C9.33333 13.8238 9.2631 13.6543 9.13807 13.5292C9.01305 13.4042 8.84348 13.334 8.66667 13.334ZM8.66667 3.60732L10.3933 5.33398H9.33333C9.15652 5.33398 8.98695 5.26375 8.86193 5.13872C8.7369 5.0137 8.66667 4.84413 8.66667 4.66732V3.60732ZM5.33333 5.33398C5.15652 5.33398 4.98695 5.40422 4.86193 5.52925C4.7369 5.65427 4.66667 5.82384 4.66667 6.00065C4.66667 6.17746 4.7369 6.34703 4.86193 6.47206C4.98695 6.59708 5.15652 6.66732 5.33333 6.66732H6C6.17681 6.66732 6.34638 6.59708 6.4714 6.47206C6.59643 6.34703 6.66667 6.17746 6.66667 6.00065C6.66667 5.82384 6.59643 5.65427 6.4714 5.52925C6.34638 5.40422 6.17681 5.33398 6 5.33398H5.33333ZM8.66667 10.6673H5.33333C5.15652 10.6673 4.98695 10.7376 4.86193 10.8626C4.7369 10.9876 4.66667 11.1572 4.66667 11.334C4.66667 11.5108 4.7369 11.6804 4.86193 11.8054C4.98695 11.9304 5.15652 12.0007 5.33333 12.0007H8.66667C8.84348 12.0007 9.01305 11.9304 9.13807 11.8054C9.2631 11.6804 9.33333 11.5108 9.33333 11.334C9.33333 11.1572 9.2631 10.9876 9.13807 10.8626C9.01305 10.7376 8.84348 10.6673 8.66667 10.6673ZM9.33333 8.00065H5.33333C5.15652 8.00065 4.98695 8.07089 4.86193 8.19591C4.7369 8.32094 4.66667 8.49051 4.66667 8.66732C4.66667 8.84413 4.7369 9.0137 4.86193 9.13872C4.98695 9.26375 5.15652 9.33398 5.33333 9.33398H9.33333C9.51014 9.33398 9.67971 9.26375 9.80474 9.13872C9.92976 9.0137 10 8.84413 10 8.66732C10 8.49051 9.92976 8.32094 9.80474 8.19591C9.67971 8.07089 9.51014 8.00065 9.33333 8.00065Z" fill="white"/>
</svg>
