<svg width="16" height="16" viewBox="0 0 16 16" fill="none" xmlns="http://www.w3.org/2000/svg">
<path d="M5.63928 5.52587C5.51375 5.3968 5.34208 5.32288 5.16204 5.32038C4.98201 5.31788 4.80835 5.387 4.67928 5.51253C4.55021 5.63807 4.47629 5.80974 4.47379 5.98977C4.47129 6.16981 4.54041 6.34346 4.66595 6.47253L6.22595 7.9992L4.66595 9.52587C4.60346 9.58784 4.55387 9.66158 4.52002 9.74282C4.48618 9.82406 4.46875 9.91119 4.46875 9.9992C4.46875 10.0872 4.48618 10.1743 4.52002 10.2556C4.55387 10.3368 4.60346 10.4106 4.66595 10.4725C4.72792 10.535 4.80166 10.5846 4.8829 10.6185C4.96414 10.6523 5.05127 10.6697 5.13928 10.6697C5.22729 10.6697 5.31443 10.6523 5.39567 10.6185C5.47691 10.5846 5.55064 10.535 5.61262 10.4725L7.61262 8.47253C7.6751 8.41056 7.7247 8.33682 7.75854 8.25559C7.79239 8.17435 7.80982 8.08721 7.80982 7.9992C7.80982 7.91119 7.79239 7.82406 7.75854 7.74282C7.7247 7.66158 7.6751 7.58784 7.61262 7.52587L5.63928 5.52587ZM11.306 7.52587L9.30595 5.52587C9.18041 5.40033 9.01015 5.32981 8.83262 5.32981C8.65508 5.32981 8.48482 5.40033 8.35928 5.52587C8.23375 5.6514 8.16322 5.82167 8.16322 5.9992C8.16322 6.17674 8.23375 6.347 8.35928 6.47253L9.89262 7.9992L8.35928 9.52587C8.2968 9.58784 8.2472 9.66158 8.21336 9.74282C8.17951 9.82406 8.16208 9.91119 8.16208 9.9992C8.16208 10.0872 8.17951 10.1743 8.21336 10.2556C8.2472 10.3368 8.2968 10.4106 8.35928 10.4725C8.42126 10.535 8.49499 10.5846 8.57623 10.6185C8.65747 10.6523 8.74461 10.6697 8.83262 10.6697C8.92062 10.6697 9.00776 10.6523 9.089 10.6185C9.17024 10.5846 9.24397 10.535 9.30595 10.4725L11.306 8.47253C11.3702 8.41234 11.4219 8.34001 11.4581 8.25972C11.4942 8.17943 11.5141 8.09278 11.5166 8.00476C11.5191 7.91674 11.5041 7.8291 11.4725 7.74691C11.4409 7.66471 11.3934 7.58959 11.3326 7.52587H11.306Z" fill="#F7DE69"/>
</svg>
