<svg width="46" height="46" viewBox="0 0 46 46" fill="none" xmlns="http://www.w3.org/2000/svg">
<path d="M32.7364 7C31.1136 7 29.8 8.31364 29.8 9.93636V10.2455C29.8 10.4 29.7227 10.5545 29.5682 10.5545L18.1318 14.4955H18.0545C18.0545 14.4955 18.0545 14.4955 17.9773 14.4955C17.9 14.4955 17.9 14.5727 17.8227 14.5727C17.7455 14.5727 17.5909 14.4955 17.5909 14.4182C17.05 13.8 16.2773 13.4136 15.4273 13.4136H8.93636C7.31364 13.4909 6 14.8045 6 16.4273V25.0045C6 26.2409 6.77273 27.3227 7.93182 27.7864C8.08636 27.8636 8.16364 27.9409 8.16364 28.0955V35.3591C8.16364 37.2909 9.70909 38.8364 11.6409 38.8364C13.5727 38.8364 15.1182 37.2909 15.1182 35.3591V32.5C15.1182 32.4227 15.1955 32.2682 15.2727 32.1909C15.35 32.1136 15.4273 32.1136 15.5045 32.1136H15.5818C15.9682 32.1909 16.2773 32.1909 16.5864 32.1909C18.9045 32.1909 20.9136 30.6455 21.4545 28.4045C21.4545 28.3273 21.5318 28.25 21.6091 28.1727C21.6864 28.1727 21.6864 28.0955 21.7636 28.0955C21.8409 28.0955 21.8409 28.0955 21.8409 28.0955L29.6455 30.9545C29.8 31.0318 29.8773 31.1091 29.8773 31.2636V31.5727C29.8773 33.1955 31.1909 34.5091 32.8136 34.5091C34.4364 34.5091 35.75 33.1955 35.75 31.5727V9.93636C35.6727 8.31364 34.3591 7 32.7364 7ZM13.5727 35.3591C13.5727 36.4409 12.6455 37.3682 11.5636 37.3682C10.4818 37.3682 9.55455 36.4409 9.55455 35.3591V28.3273C9.55455 28.0955 9.70909 27.9409 9.94091 27.9409H13.1864C13.4182 27.9409 13.5727 28.0955 13.5727 28.3273V35.3591ZM8.93636 26.55C8.08636 26.55 7.46818 25.8545 7.46818 25.0818V16.4273C7.46818 15.5773 8.16364 14.9591 8.93636 14.9591H15.35C16.2 14.9591 16.8182 15.6545 16.8182 16.4273V25.0045C16.8182 25.8545 16.1227 26.4727 15.35 26.4727H8.93636V26.55ZM20.0636 28.0955C20.0636 28.0955 20.0636 28.1727 19.9864 28.1727C19.6 29.7955 18.1318 30.8773 16.5091 30.8773C16.1227 30.8773 15.7364 30.8 15.2727 30.6455C15.1182 30.5682 15.0409 30.4909 15.0409 30.3364V28.4045C15.0409 28.1727 15.1955 28.0182 15.4273 28.0182C16.2773 28.0182 16.9727 27.6318 17.5909 27.0136C17.6682 26.9364 17.7455 26.8591 17.8227 26.8591C17.9 26.8591 17.9 26.8591 17.9773 26.9364C17.9773 26.9364 17.9773 26.9364 18.0545 26.9364H18.1318L19.8318 27.5545C19.9091 27.5545 19.9864 27.6318 20.0636 27.7091C20.0636 27.8636 20.0636 27.9409 20.0636 28.0955ZM29.8773 29.0227C29.8773 29.1 29.8 29.2545 29.7227 29.3318C29.6455 29.4091 29.5682 29.4091 29.4909 29.4091H29.4136L18.6727 25.7C18.6727 25.7 18.5955 25.7 18.5955 25.6227C18.4409 25.4682 18.3636 25.3136 18.3636 25.0818V16.4273C18.3636 16.1955 18.4409 16.0409 18.5955 15.8864C18.5955 15.8864 18.6727 15.8864 18.6727 15.8091L29.4136 12.1H29.4909C29.5682 12.1 29.6455 12.1 29.7227 12.1773C29.8 12.2545 29.8773 12.3318 29.8773 12.4864V29.0227ZM34.2045 31.5727C34.2045 32.3455 33.5864 33.0409 32.7364 33.0409C31.9636 33.0409 31.2682 32.4227 31.2682 31.5727V9.93636C31.2682 9.16364 31.8864 8.46818 32.7364 8.46818C33.5091 8.46818 34.2045 9.08636 34.2045 9.93636V31.5727Z" fill="#053863"/>
<path d="M38.2229 12.7952H39.3047C39.6911 12.7952 40.0002 12.4861 40.0002 12.0998C40.0002 11.7134 39.6911 11.4043 39.3047 11.4043H38.2229C37.8366 11.4043 37.5275 11.7134 37.5275 12.0998C37.4502 12.4861 37.7593 12.7952 38.2229 12.7952Z" fill="#053863"/>
<path d="M39.3046 15.6543H38.2228C37.8364 15.6543 37.5273 15.9634 37.5273 16.3498C37.5273 16.7361 37.8364 17.0452 38.2228 17.0452H39.3046C39.691 17.0452 40.0001 16.7361 40.0001 16.3498C40.0001 16.0407 39.691 15.6543 39.3046 15.6543Z" fill="#053863"/>
<path d="M39.3046 19.9824H38.2228C37.8364 19.9824 37.5273 20.2915 37.5273 20.6779C37.5273 21.0642 37.8364 21.3733 38.2228 21.3733H39.3046C39.691 21.3733 40.0001 21.0642 40.0001 20.6779C40.0001 20.3688 39.691 19.9824 39.3046 19.9824Z" fill="#053863"/>
<path d="M39.3046 24.3867H38.2228C37.8364 24.3867 37.5273 24.6958 37.5273 25.0822C37.5273 25.4685 37.8364 25.7776 38.2228 25.7776H39.3046C39.691 25.7776 40.0001 25.4685 40.0001 25.0822C40.0001 24.6958 39.691 24.3867 39.3046 24.3867Z" fill="#053863"/>
<path d="M39.3046 28.7129H38.2228C37.8364 28.7129 37.5273 29.022 37.5273 29.4083C37.5273 29.7947 37.8364 30.1038 38.2228 30.1038H39.3046C39.691 30.1038 40.0001 29.7947 40.0001 29.4083C40.0001 29.022 39.691 28.7129 39.3046 28.7129Z" fill="#053863"/>
<path d="M13.2645 17.8184H11.1009C10.6372 17.8184 10.3281 18.2047 10.3281 18.5911C10.3281 18.9775 10.6372 19.2865 11.0236 19.2865H13.1872C13.5736 19.2865 13.8827 18.9775 13.8827 18.5911C13.9599 18.2047 13.6509 17.8184 13.2645 17.8184Z" fill="#053863"/>
<path d="M13.2634 22.2227H11.0998C10.7134 22.2227 10.4043 22.5317 10.4043 22.9181C10.4043 23.3045 10.7134 23.6136 11.0998 23.6136H13.2634C13.6498 23.6136 13.9588 23.3045 13.9588 22.9181C13.9588 22.5317 13.6498 22.2227 13.2634 22.2227Z" fill="#053863"/>
</svg>
