<svg width="34" height="34" viewBox="0 0 34 34" fill="none" xmlns="http://www.w3.org/2000/svg">
<g clip-path="url(#clip0)">
<path d="M17.0079 34C7.63136 34 0 26.3845 0 17.0079C0 7.63136 7.63136 0 17.0079 0C26.3845 0 34.0159 7.63136 34.0159 17.0079C34.0159 26.3845 26.3686 34 17.0079 34ZM17.0079 2.26878C8.88474 2.26878 2.28465 8.86888 2.28465 16.9921C2.28465 25.1153 8.88474 31.7312 17.0079 31.7312C25.1311 31.7312 31.7312 25.1311 31.7312 17.0079C31.7312 8.88474 25.1153 2.26878 17.0079 2.26878Z" fill="white"/>
<path d="M13.8357 24.4816C13.5342 24.4816 13.4708 24.4815 13.2487 24.3705C12.8837 24.1484 12.6934 23.7835 12.6934 23.3551V10.6626C12.6934 10.2025 12.8996 9.93279 13.3121 9.82173C13.6136 9.64721 13.804 9.59961 13.9943 9.59961C14.1847 9.59961 14.3751 9.66307 14.5338 9.75827L24.0531 16.1045C24.2277 16.2949 24.4815 16.6757 24.4815 16.993C24.4815 17.4055 24.3387 17.6911 24.0531 17.8815L14.5338 24.2277C14.2958 24.3546 14.0419 24.4816 13.8357 24.4816ZM14.9621 21.1656L21.3084 17.0088L14.9621 12.8521V21.1656Z" fill="white"/>
</g>
<defs>
<clipPath id="clip0">
<rect width="34" height="34" fill="white"/>
</clipPath>
</defs>
</svg>
