<svg width="39" height="39" viewBox="0 0 39 39" fill="none" xmlns="http://www.w3.org/2000/svg">
<path d="M26.6818 16.4091H25.9091V11.7727C25.9091 11.3091 25.6 11 25.1364 11H15.8636C15.4 11 15.0909 11.3091 15.0909 11.7727V16.4091H14.3182C13.0045 16.4091 12 17.4136 12 18.7273V22.5909C12 23.9045 13.0045 24.9091 14.3182 24.9091H15.0909V27.2273C15.0909 27.6909 15.4 28 15.8636 28H25.1364C25.6 28 25.9091 27.6909 25.9091 27.2273V24.9091H26.6818C27.9955 24.9091 29 23.9045 29 22.5909V18.7273C29 17.4136 27.9955 16.4091 26.6818 16.4091ZM16.6364 12.5455H24.3636V16.4091H16.6364V12.5455ZM24.3636 26.4545H16.6364V21.8182H24.3636V26.4545ZM27.4545 22.5909C27.4545 23.0545 27.1455 23.3636 26.6818 23.3636H25.9091V21.0455C25.9091 20.5818 25.6 20.2727 25.1364 20.2727H15.8636C15.4 20.2727 15.0909 20.5818 15.0909 21.0455V23.3636H14.3182C13.8545 23.3636 13.5455 23.0545 13.5455 22.5909V18.7273C13.5455 18.2636 13.8545 17.9545 14.3182 17.9545H26.6818C27.1455 17.9545 27.4545 18.2636 27.4545 18.7273V22.5909Z" fill="#1C1C1C"/>
</svg>
