<svg id="Layer_1" data-name="Layer 1" xmlns="http://www.w3.org/2000/svg" viewBox="0 0 24 24"><defs><style>.cls-1{fill:none;stroke:#6e7173;stroke-linecap:round;stroke-linejoin:round;stroke-width:0.7px;}</style></defs><title>calendar</title><rect class="cls-1" x="4.67" y="9.74" width="14.65" height="7.44"/><rect class="cls-1" x="4.67" y="7.04" width="14.65" height="2.7"/><line class="cls-1" x1="6.68" y1="8.04" x2="6.68" y2="6.03"/><line class="cls-1" x1="9.34" y1="8.04" x2="9.34" y2="6.03"/><line class="cls-1" x1="11.99" y1="8.04" x2="11.99" y2="6.03"/><line class="cls-1" x1="14.65" y1="8.04" x2="14.65" y2="6.03"/><line class="cls-1" x1="17.3" y1="8.04" x2="17.3" y2="6.03"/><line class="cls-1" x1="7.4" y1="12.32" x2="8.09" y2="12.32"/><line class="cls-1" x1="10.23" y1="12.32" x2="10.92" y2="12.32"/><line class="cls-1" x1="13.06" y1="12.32" x2="13.76" y2="12.32"/><line class="cls-1" x1="15.89" y1="12.32" x2="16.59" y2="12.32"/><line class="cls-1" x1="7.4" y1="14.59" x2="8.09" y2="14.59"/><line class="cls-1" x1="10.23" y1="14.59" x2="10.92" y2="14.59"/><line class="cls-1" x1="13.06" y1="14.59" x2="13.76" y2="14.59"/><line class="cls-1" x1="15.89" y1="14.59" x2="16.59" y2="14.59"/></svg>