<svg id="Layer_1" data-name="Layer 1" xmlns="http://www.w3.org/2000/svg" viewBox="0 0 24 24"><defs><style>.cls-1{fill:none;stroke:#6e7173;stroke-linecap:round;stroke-linejoin:round;stroke-width:0.8px;}.cls-2{fill:#6e7173;}</style></defs><title>caution</title><path class="cls-1" d="M19,12a7,7,0,1,1-7-7A7,7,0,0,1,19,12Z"/><path class="cls-2" d="M14.09,8A1.08,1.08,0,1,1,13,6.93,1.08,1.08,0,0,1,14.09,8Z"/><path class="cls-2" d="M10.64,10.27h2.81L12,15.67s-.22.72.4.13c.42-.4,1.27-1.28,1.27-1.28A4,4,0,0,1,13,15.76a2.12,2.12,0,0,1-1.17,1c-1.38.32-1.67-.17-1.22-1.8s1.22-4,1.22-4H10.64Z"/></svg>