<svg width="32" height="32" viewBox="0 0 32 32" fill="none" xmlns="http://www.w3.org/2000/svg">
<circle cx="16" cy="16" r="16" fill="#F5F5F5"/>
<path d="M16 23.2987C11.8578 23.2987 8.5 19.941 8.5 15.7987C8.5 11.6565 11.8578 8.29871 16 8.29871C20.1423 8.29871 23.5 11.6565 23.5 15.7987C23.5 19.941 20.1423 23.2987 16 23.2987ZM16 21.7987C17.5913 21.7987 19.1174 21.1666 20.2426 20.0413C21.3679 18.9161 22 17.39 22 15.7987C22 14.2074 21.3679 12.6813 20.2426 11.5561C19.1174 10.4308 17.5913 9.79871 16 9.79871C14.4087 9.79871 12.8826 10.4308 11.7574 11.5561C10.6321 12.6813 10 14.2074 10 15.7987C10 17.39 10.6321 18.9161 11.7574 20.0413C12.8826 21.1666 14.4087 21.7987 16 21.7987ZM16.75 15.7987H19.75V17.2987H15.25V12.0487H16.75V15.7987Z" fill="#1E293B"/>
</svg>
