<svg width="54" height="54" viewBox="0 0 54 54" fill="none" xmlns="http://www.w3.org/2000/svg">
<g clip-path="url(#clip0_83_780)">
<path d="M16.5684 51.981C21.2126 39.8191 38.1458 27.5976 52.5562 25.4434C52.6755 25.4272 52.7949 25.4488 52.9142 25.4543" stroke="#3E3A39" stroke-width="2.17023" stroke-linecap="round" stroke-linejoin="round"/>
<path d="M24.4902 51.9811C28.1199 41.6324 41.3638 31.2349 52.6272 29.4001C52.7195 29.3838 52.8171 29.4055 52.9094 29.4055" stroke="#3E3A39" stroke-width="2.17023" stroke-linecap="round" stroke-linejoin="round"/>
<path d="M31.6953 51.9811C34.4081 43.7703 44.2881 35.527 52.7031 34.071C52.7736 34.0602 52.8442 34.071 52.9147 34.0765" stroke="#3E3A39" stroke-width="2.17023" stroke-linecap="round" stroke-linejoin="round"/>
<path d="M7.08465 30.0117C6.98156 29.9954 6.87848 30.0171 6.77539 30.0171V52.9174H38.146C34.1365 42.4171 19.52 31.8736 7.08465 30.0117Z" fill="#B5D7F9"/>
<path d="M38.1454 52.9172C34.1359 42.417 19.5194 31.8734 7.08398 30.0115" stroke="#3E3A39" stroke-width="2.17023" stroke-linecap="round" stroke-linejoin="round"/>
<path d="M30.4031 52.9173C27.3919 44.6686 16.4214 36.3767 7.08398 34.9153" stroke="#3E3A39" stroke-width="2.17023" stroke-linecap="round" stroke-linejoin="round"/>
<path d="M23.2522 52.9172C21.1633 46.7037 13.5567 40.4576 7.08398 39.3589" stroke="#3E3A39" stroke-width="2.17023" stroke-linecap="round" stroke-linejoin="round"/>
<path d="M19.7914 20.7995L15.0278 17.0432L10.2695 20.7995" stroke="#3E3A39" stroke-width="2.17023" stroke-linecap="round" stroke-linejoin="round"/>
<path d="M15.0273 31.262V12.3994" stroke="#3E3A39" stroke-width="2.17023" stroke-linecap="round" stroke-linejoin="round"/>
<path d="M31.852 27.8032L27.0883 24.0469L22.3301 27.8032" stroke="#3E3A39" stroke-width="2.17023" stroke-linecap="round" stroke-linejoin="round"/>
<path d="M27.0879 38.2657V19.4031" stroke="#3E3A39" stroke-width="2.17023" stroke-linecap="round" stroke-linejoin="round"/>
<path d="M44.7159 9.88804C44.7159 8.32923 43.4518 7.06812 41.8892 7.06812C40.3267 7.06812 39.0625 8.32923 39.0625 9.88804C39.0625 11.4468 40.3267 12.708 41.8892 12.708C43.4518 12.708 44.7159 11.4468 44.7159 9.88804Z" fill="#52A1F1" stroke="#52A1F1" stroke-width="2.17023" stroke-linecap="round" stroke-linejoin="round"/>
<path d="M22.6937 11.8636C22.6937 10.3589 23.9145 9.14111 25.4228 9.14111C26.9311 9.14111 28.1518 10.3589 28.1518 11.8636C28.1518 13.3683 26.9311 14.5861 25.4228 14.5861H19.6934" fill="#52A1F1"/>
<path d="M22.6937 11.8636C22.6937 10.3589 23.9145 9.14111 25.4228 9.14111C26.9311 9.14111 28.1518 10.3589 28.1518 11.8636C28.1518 13.3683 26.9311 14.5861 25.4228 14.5861H19.6934" stroke="#52A1F1" stroke-width="2.17023" stroke-linecap="round" stroke-linejoin="round"/>
<path d="M31.3926 20.3015H38.4133" stroke="#52A1F1" stroke-width="2.17023" stroke-linecap="round" stroke-linejoin="round"/>
<path d="M37.332 24.2529H42.5569" stroke="#52A1F1" stroke-width="2.17023" stroke-linecap="round" stroke-linejoin="round"/>
</g>
<defs>
<clipPath id="clip0_83_780">
<rect width="48" height="48.0144" fill="white" transform="translate(6 5.9856)"/>
</clipPath>
</defs>
</svg>
