<svg xmlns="http://www.w3.org/2000/svg" viewBox="0 0 24 24"><defs><style>.cls-1,.cls-2{fill:#fff;}.cls-2,.cls-3{stroke:#fff;stroke-miterlimit:10;stroke-width:0.3px;}.cls-3{fill:none;}</style></defs><title>icon-06</title><g id="ico"><path class="cls-1" d="M5.7,8.05l-.6-.17a7.39,7.39,0,0,0-.2,1.7A7.81,7.81,0,0,0,7,14.92v5.66h8V19h2.26a1.3,1.3,0,0,0,.49-.21,1.15,1.15,0,0,0,.53-1c0-.37-.07-1.12-.13-1.79,0-.35-.07-.67-.09-.9H20l-1.24-3.75L17.68,8.06A6.16,6.16,0,0,0,16.33,5.6a6.9,6.9,0,0,0-5.41-2.17l-.72,0,0,.66c.24,0,.46,0,.68,0a6.23,6.23,0,0,1,4.92,2,5.59,5.59,0,0,1,1,1.5c.09.21.15.38.19.5a1.35,1.35,0,0,1,.05.18v0l1.1,3.33.95,2.89H17.33l0,.36.13,1.26c.06.66.12,1.43.12,1.73a.47.47,0,0,1-.23.4.88.88,0,0,1-.19.1H14.34v1.6H7.69V14.65l-.09-.09a7.13,7.13,0,0,1-2-5A7.71,7.71,0,0,1,5.7,8.05"/><rect class="cls-1" x="8.9" y="12.94" width="2.74" height="0.66"/><rect class="cls-1" x="13.69" y="5.87" width="1.37" height="0.66"/><polygon class="cls-1" points="13.5 10.56 12.7 10.56 12.7 11.22 13.5 11.22 13.5 12.02 14.15 12.02 14.15 11.22 14.95 11.22 14.95 10.56 14.15 10.56 14.15 9.76 13.5 9.76 13.5 10.56"/><path class="cls-1" d="M9,15.34v3.41h2V15.34Zm.65,2.75V16h.72v2.09Z"/><polygon class="cls-1" points="6.76 5.8 6.76 5.8 6.76 5.8 6.76 5.8"/><path class="cls-2" d="M9.45,10.43a.12.12,0,0,0,.12-.09L9.64,10l0-.29.2-.06.2-.08.22.2.28.26a.11.11,0,0,0,.15,0l.45-.39.45-.39a.12.12,0,0,0,0-.15l-.21-.31-.17-.25a1.62,1.62,0,0,0,.1-.18l.09-.19.29,0h.38A.13.13,0,0,0,12.25,8l0-.59,0-.59a.1.1,0,0,0-.09-.12l-.37-.07-.29-.06-.06-.2a1.67,1.67,0,0,0-.08-.2l.2-.22.26-.28a.11.11,0,0,0,0-.15l-.78-.89a.1.1,0,0,0-.15,0l-.31.21L10.41,5l-.18-.1L10,4.8l0-.3V4.13A.12.12,0,0,0,9.9,4L9.31,4l-.59,0A.12.12,0,0,0,8.6,4l-.07.36-.06.3-.2,0-.34.13.17.19L8.34,5,8.6,4.9a.13.13,0,0,0,.09-.1l.07-.36.05-.27.48,0,.49,0v.27l0,.37A.12.12,0,0,0,9.88,5a1.33,1.33,0,0,1,.24.1,1.71,1.71,0,0,1,.23.13.11.11,0,0,0,.13,0L10.79,5,11,4.86l.63.73-.18.2-.25.28a.13.13,0,0,0,0,.13,2.44,2.44,0,0,1,.1.24,2.5,2.5,0,0,1,.07.26.12.12,0,0,0,.09.09l.37.07.26,0,0,.48,0,.49h-.27l-.37,0a.1.1,0,0,0-.1.07,1.33,1.33,0,0,1-.11.24,1.71,1.71,0,0,1-.13.23.15.15,0,0,0,0,.13l.21.31.15.22-.73.64-.2-.18-.28-.25a.12.12,0,0,0-.13,0l-.24.1-.25.07a.11.11,0,0,0-.09.09l-.07.37-.05.26-.49,0-.48,0,0-.27V9.48a.15.15,0,0,0-.08-.11A1.22,1.22,0,0,1,8,9.27l-.23-.13a.11.11,0,0,0-.13,0l-.31.21-.22.15-.64-.73.18-.2L7,8.29a.12.12,0,0,0,0-.13,3,3,0,0,1-.16-.49.12.12,0,0,0-.09-.09l-.37-.07-.27,0,0-.49,0-.48.27,0h.37a.15.15,0,0,0,.11-.08A2.44,2.44,0,0,1,7,6.14a2.53,2.53,0,0,1,.18-.27L7,5.68,6.78,6a1.67,1.67,0,0,0-.08.2H6.4L6,6.26a.11.11,0,0,0-.11.11l0,.58,0,.59a.13.13,0,0,0,.1.13l.36.07.3,0a1.17,1.17,0,0,0,0,.2c0,.07.05.14.08.2l-.2.22-.25.28a.11.11,0,0,0,0,.15l.77.9a.12.12,0,0,0,.15,0l.31-.21.25-.17.19.1.19.09v.29l0,.38a.12.12,0,0,0,.11.11l.59,0Z"/><path class="cls-3" d="M8.54,6.43a1,1,0,0,0-.32.65,1,1,0,0,0,.23.7,1,1,0,0,0,.65.32,1,1,0,1,0-.56-1.67Z"/><path class="cls-3" d="M9.72,6.67a.75.75,0,0,1,.17.53.67.67,0,0,1-.25.49.74.74,0,0,1-.52.18.75.75,0,0,1-.49-.25.74.74,0,0,1-.18-.52.71.71,0,0,1,.25-.5.68.68,0,0,1,.52-.17A.7.7,0,0,1,9.72,6.67Z"/><rect class="cls-2" x="6.73" y="3.53" width="0.23" height="2.12" transform="translate(-1.33 5.61) rotate(-40.96)"/><rect class="cls-2" x="5.7" y="4.25" width="0.21" height="0.72" transform="translate(-1.6 4.94) rotate(-40.96)"/></g></svg>