<svg xmlns="http://www.w3.org/2000/svg" viewBox="0 0 24 24"><defs><style>.cls-1{fill:#fff;}</style></defs><title>icon-01</title><g id="ico"><path class="cls-1" d="M18.72,10.9a.28.28,0,0,0-.29.28v3H15.15a.29.29,0,1,0,0,.57h3.28v.76a1.45,1.45,0,0,1-.1.51,1.42,1.42,0,0,1-.71.71,1.45,1.45,0,0,1-.51.1H6.05a1.46,1.46,0,0,1-.52-.1,1.42,1.42,0,0,1-.71-.71,1.45,1.45,0,0,1-.1-.51v-.76H11.5a.29.29,0,0,0,0-.57H4.72V7.86A1.33,1.33,0,0,1,6.05,6.53h5.53a.29.29,0,0,0,0-.57H6.05a1.91,1.91,0,0,0-1.9,1.9v6.65h0v1a1.89,1.89,0,0,0,1.16,1.74,1.78,1.78,0,0,0,.74.15H9.49l-.74,2.67a.32.32,0,0,0,.05.25.28.28,0,0,0,.23.11h5.09a.28.28,0,0,0,.23-.11.32.32,0,0,0,.05-.25l-.74-2.67h3.45a1.77,1.77,0,0,0,.73-.15,1.8,1.8,0,0,0,.61-.4,1.9,1.9,0,0,0,.4-.61,1.77,1.77,0,0,0,.15-.73v-1h0V11.18A.28.28,0,0,0,18.72,10.9Zm-5,9H9.4l.68-2.46h3Zm2.06-9.31h1A.55.55,0,0,0,17.4,10V4.2a.55.55,0,0,0-.55-.55h-1a.55.55,0,0,0-.55.55V10A.55.55,0,0,0,15.81,10.59Zm0-6.37h1V10h-1Zm3.9,2.19h-1a.55.55,0,0,0-.55.55V10a.54.54,0,0,0,.55.55h1a.54.54,0,0,0,.55-.55V7A.54.54,0,0,0,19.73,6.41Zm0,3.61h-1V7h1Zm-6.78.57H14a.54.54,0,0,0,.54-.55V5.51A.54.54,0,0,0,14,5H12.93a.55.55,0,0,0-.55.55V10A.55.55,0,0,0,12.93,10.59Zm0-5.06h1V10H13ZM6.44,9.6H8.79a.29.29,0,1,0,0-.57H6.44a.29.29,0,0,0,0,.57Zm0,1.71h3.64a.29.29,0,0,0,0-.57H6.44a.29.29,0,0,0,0,.57Z"/></g></svg>