<svg width="293" height="228" viewBox="0 0 293 228" fill="none" xmlns="http://www.w3.org/2000/svg">
<path d="M10.4707 46L10.4707 61" stroke="#19B394" stroke-width="3" stroke-linejoin="bevel"/>
<path d="M18 53.5H3" stroke="#19B394" stroke-width="3"/>
<path d="M38.4707 46L38.4707 61" stroke="white" stroke-width="3" stroke-linejoin="bevel"/>
<path d="M46 53.5H31" stroke="white" stroke-width="3"/>
<path d="M66.4707 47L66.4707 62" stroke="#353535" stroke-width="3" stroke-linejoin="bevel"/>
<path d="M74 54.5H59" stroke="#353535" stroke-width="3"/>
<path d="M5.2832 5.32324L15.8898 15.9298" stroke="#19B394" stroke-width="3" stroke-linejoin="bevel"/>
<path d="M15.9102 5.30322L5.30356 15.9098" stroke="#19B394" stroke-width="3"/>
<path d="M33.2832 5.32324L43.8898 15.9298" stroke="white" stroke-width="3" stroke-linejoin="bevel"/>
<path d="M43.9102 5.30322L33.3036 15.9098" stroke="white" stroke-width="3"/>
<path d="M61.2832 5.32324L71.8898 15.9298" stroke="#353535" stroke-width="3" stroke-linejoin="bevel"/>
<path d="M71.9102 5.30322L61.3036 15.9098" stroke="#353535" stroke-width="3"/>
<circle cx="9.64783" cy="75.6478" r="5.64783" stroke="#19B394" stroke-width="2.5"/>
<path d="M13.5195 79.2944L17.9999 83.1784" stroke="#19B394" stroke-width="2.5"/>
<circle cx="37.6478" cy="75.6478" r="5.64783" stroke="white" stroke-width="2.5"/>
<path d="M41.5195 79.2944L45.9999 83.1784" stroke="white" stroke-width="2.5"/>
<circle cx="65.5" cy="75.5" r="5.5" stroke="#353535" stroke-width="2.5"/>
<path d="M69 78.6221L74.1204 83.0609" stroke="#353535" stroke-width="2.5"/>
<line x1="5.06066" y1="30.9393" x2="9.06066" y2="34.9393" stroke="#19B394" stroke-width="3"/>
<line x1="19.0607" y1="27.0607" x2="9.06066" y2="37.0607" stroke="#19B394" stroke-width="3"/>
<path fill-rule="evenodd" clip-rule="evenodd" d="M34.9998 36.0002L30.9998 32.0002L33.1211 29.8789L37.1211 33.8789L34.9998 36.0002Z" fill="white"/>
<path fill-rule="evenodd" clip-rule="evenodd" d="M34.9998 35.9998L44.9998 25.9998L47.1211 28.1211L37.1211 38.1211L34.9998 35.9998Z" fill="white"/>
<path fill-rule="evenodd" clip-rule="evenodd" d="M62.9998 36.0002L58.9998 32.0002L61.1211 29.8789L65.1211 33.8789L62.9998 36.0002Z" fill="#353535"/>
<path fill-rule="evenodd" clip-rule="evenodd" d="M62.9998 35.9998L72.9998 25.9998L75.1211 28.1211L65.1211 38.1211L62.9998 35.9998Z" fill="#353535"/>
<mask id="mask0" mask-type="alpha" maskUnits="userSpaceOnUse" x="192" y="52" width="6" height="30">
<path d="M197.093 78.6884C197.093 79.9951 195.995 81.0003 194.688 81.0003C193.329 81.0003 192.283 79.9449 192.283 78.6884V55.1669C192.283 53.8602 193.381 52.855 194.688 52.855C196.047 52.855 197.093 53.9104 197.093 55.1669V78.6884Z" fill="url(#paint0_linear)"/>
</mask>
<g mask="url(#mask0)">
<path d="M197.093 78.6884C197.093 79.9951 195.995 81.0003 194.688 81.0003C193.329 81.0003 192.283 79.9449 192.283 78.6884V55.1669C192.283 53.8602 193.381 52.855 194.688 52.855C196.047 52.855 197.093 53.9104 197.093 55.1669V78.6884Z" fill="url(#paint1_linear)" fill-opacity="0.8"/>
</g>
<mask id="mask1" mask-type="alpha" maskUnits="userSpaceOnUse" x="183" y="56" width="23" height="22">
<path d="M201.589 56.9759C202.53 56.0712 204.099 56.0712 205.04 56.9759C205.981 57.8806 205.981 59.3883 205.04 60.293L187.736 76.9291C186.795 77.8337 185.227 77.8337 184.286 76.9291C183.345 76.0244 183.345 74.5166 184.286 73.6119L201.589 56.9759Z" fill="url(#paint2_linear)"/>
</mask>
<g mask="url(#mask1)">
<path d="M201.589 56.9759C202.53 56.0712 204.099 56.0712 205.04 56.9759C205.981 57.8806 205.981 59.3883 205.04 60.293L187.736 76.9291C186.795 77.8337 185.227 77.8337 184.286 76.9291C183.345 76.0244 183.345 74.5166 184.286 73.6119L201.589 56.9759Z" fill="url(#paint3_linear)" fill-opacity="0.8"/>
</g>
<mask id="mask2" mask-type="alpha" maskUnits="userSpaceOnUse" x="180" y="64" width="30" height="6">
<path d="M206.922 64.6152C208.282 64.6152 209.327 65.6706 209.327 66.9271C209.327 68.2338 208.229 69.2389 206.922 69.2389H182.405C181.046 69.2389 180 68.1835 180 66.9271C180 65.6204 181.098 64.6152 182.405 64.6152H206.922Z" fill="url(#paint4_linear)"/>
</mask>
<g mask="url(#mask2)">
<path d="M206.922 64.6152C208.282 64.6152 209.327 65.6706 209.327 66.9271C209.327 68.2338 208.229 69.2389 206.922 69.2389H182.405C181.046 69.2389 180 68.1835 180 66.9271C180 65.6204 181.098 64.6152 182.405 64.6152H206.922Z" fill="url(#paint5_linear)" fill-opacity="0.8"/>
</g>
<mask id="mask3" mask-type="alpha" maskUnits="userSpaceOnUse" x="183" y="56" width="23" height="22">
<path d="M184.286 60.2424C183.345 59.3377 183.345 57.8299 184.286 56.9253C185.227 56.0206 186.795 56.0206 187.736 56.9755L205.04 73.6114C205.981 74.5161 205.981 76.0239 205.04 76.9285C204.099 77.8332 202.53 77.8332 201.589 76.9285L184.286 60.2424Z" fill="url(#paint6_linear)"/>
</mask>
<g mask="url(#mask3)">
<path d="M184.286 60.2424C183.345 59.3377 183.345 57.8299 184.286 56.9253C185.227 56.0206 186.795 56.0206 187.736 56.9755L205.04 73.6114C205.981 74.5161 205.981 76.0239 205.04 76.9285C204.099 77.8332 202.53 77.8332 201.589 76.9285L184.286 60.2424Z" fill="url(#paint7_linear)" fill-opacity="0.8"/>
</g>
<mask id="mask4" mask-type="alpha" maskUnits="userSpaceOnUse" x="206" y="52" width="6" height="5">
<path d="M211 54.0105C211 55.1162 210.06 56.0209 208.909 56.0209C207.759 56.0209 206.818 55.1162 206.818 54.0105C206.818 52.9047 207.759 52 208.909 52C210.112 52 211 52.9047 211 54.0105Z" fill="url(#paint8_linear)"/>
</mask>
<g mask="url(#mask4)">
<path d="M211 54.0105C211 55.1162 210.06 56.0209 208.909 56.0209C207.759 56.0209 206.818 55.1162 206.818 54.0105C206.818 52.9047 207.759 52 208.909 52C210.112 52 211 52.9047 211 54.0105Z" fill="url(#paint9_linear)" fill-opacity="0.8"/>
</g>
<path d="M97.9988 66C97.9988 58.2696 104.328 52 112.132 52C117.11 52 121.841 54.6783 124.361 58.9391C124.791 59.6696 124.545 60.5826 123.808 61.0087C123.07 61.4348 122.148 61.1913 121.718 60.4609C119.752 57.113 116.065 55.0435 112.132 55.0435C105.987 55.0435 101.071 59.9739 101.071 66C101.071 72.0261 106.049 76.9565 112.132 76.9565C116.065 76.9565 119.69 74.887 121.718 71.5391C122.148 70.8087 123.07 70.5652 123.808 70.9913C124.545 71.4174 124.791 72.3304 124.361 73.0609C121.841 77.3217 117.171 80 112.132 80C104.328 80 97.9988 73.7304 97.9988 66Z" fill="#19B394"/>
<path d="M97.9988 66C97.9988 58.2696 104.328 52 112.132 52C117.11 52 121.841 54.6783 124.361 58.9391C124.791 59.6696 124.545 60.5826 123.808 61.0087C123.07 61.4348 122.148 61.1913 121.718 60.4609C119.752 57.113 116.065 55.0435 112.132 55.0435C105.987 55.0435 101.071 59.9739 101.071 66C101.071 72.0261 106.049 76.9565 112.132 76.9565C116.065 76.9565 119.69 74.887 121.718 71.5391C122.148 70.8087 123.07 70.5652 123.808 70.9913C124.545 71.4174 124.791 72.3304 124.361 73.0609C121.841 77.3217 117.171 80 112.132 80C104.328 80 97.9988 73.7304 97.9988 66Z" fill="#37B7AF"/>
<path d="M97.9988 66C97.9988 58.2696 104.328 52 112.132 52C117.11 52 121.841 54.6783 124.361 58.9391C124.791 59.6696 124.545 60.5826 123.808 61.0087C123.07 61.4348 122.148 61.1913 121.718 60.4609C119.752 57.113 116.065 55.0435 112.132 55.0435C105.987 55.0435 101.071 59.9739 101.071 66C101.071 72.0261 106.049 76.9565 112.132 76.9565C116.065 76.9565 119.69 74.887 121.718 71.5391C122.148 70.8087 123.07 70.5652 123.808 70.9913C124.545 71.4174 124.791 72.3304 124.361 73.0609C121.841 77.3217 117.171 80 112.132 80C104.328 80 97.9988 73.7304 97.9988 66Z" fill="url(#paint10_linear)"/>
<path d="M97.9988 66C97.9988 58.2696 104.328 52 112.132 52C117.11 52 121.841 54.6783 124.361 58.9391C124.791 59.6696 124.545 60.5826 123.808 61.0087C123.07 61.4348 122.148 61.1913 121.718 60.4609C119.752 57.113 116.065 55.0435 112.132 55.0435C105.987 55.0435 101.071 59.9739 101.071 66C101.071 72.0261 106.049 76.9565 112.132 76.9565C116.065 76.9565 119.69 74.887 121.718 71.5391C122.148 70.8087 123.07 70.5652 123.808 70.9913C124.545 71.4174 124.791 72.3304 124.361 73.0609C121.841 77.3217 117.171 80 112.132 80C104.328 80 97.9988 73.7304 97.9988 66Z" stroke="#19B394" stroke-width="0.9"/>
<path d="M97.9988 66C97.9988 58.2696 104.328 52 112.132 52C117.11 52 121.841 54.6783 124.361 58.9391C124.791 59.6696 124.545 60.5826 123.808 61.0087C123.07 61.4348 122.148 61.1913 121.718 60.4609C119.752 57.113 116.065 55.0435 112.132 55.0435C105.987 55.0435 101.071 59.9739 101.071 66C101.071 72.0261 106.049 76.9565 112.132 76.9565C116.065 76.9565 119.69 74.887 121.718 71.5391C122.148 70.8087 123.07 70.5652 123.808 70.9913C124.545 71.4174 124.791 72.3304 124.361 73.0609C121.841 77.3217 117.171 80 112.132 80C104.328 80 97.9988 73.7304 97.9988 66Z" stroke="#37B7AF" stroke-width="0.9"/>
<path d="M97.9988 66C97.9988 58.2696 104.328 52 112.132 52C117.11 52 121.841 54.6783 124.361 58.9391C124.791 59.6696 124.545 60.5826 123.808 61.0087C123.07 61.4348 122.148 61.1913 121.718 60.4609C119.752 57.113 116.065 55.0435 112.132 55.0435C105.987 55.0435 101.071 59.9739 101.071 66C101.071 72.0261 106.049 76.9565 112.132 76.9565C116.065 76.9565 119.69 74.887 121.718 71.5391C122.148 70.8087 123.07 70.5652 123.808 70.9913C124.545 71.4174 124.791 72.3304 124.361 73.0609C121.841 77.3217 117.171 80 112.132 80C104.328 80 97.9988 73.7304 97.9988 66Z" stroke="url(#paint11_linear)" stroke-width="0.9"/>
<path d="M115.699 66C115.699 65.0838 116.222 64.7 116.536 64.7L127.474 64.7C127.787 64.7 128.31 65.0838 128.31 66C128.31 66.9162 127.787 67.3 127.474 67.3L116.536 67.3C116.222 67.3 115.699 66.9162 115.699 66Z" fill="#19B394"/>
<path d="M115.699 66C115.699 65.0838 116.222 64.7 116.536 64.7L127.474 64.7C127.787 64.7 128.31 65.0838 128.31 66C128.31 66.9162 127.787 67.3 127.474 67.3L116.536 67.3C116.222 67.3 115.699 66.9162 115.699 66Z" fill="#37B7AF"/>
<path d="M115.699 66C115.699 65.0838 116.222 64.7 116.536 64.7L127.474 64.7C127.787 64.7 128.31 65.0838 128.31 66C128.31 66.9162 127.787 67.3 127.474 67.3L116.536 67.3C116.222 67.3 115.699 66.9162 115.699 66Z" fill="url(#paint12_linear)"/>
<path d="M115.699 66C115.699 65.0838 116.222 64.7 116.536 64.7L127.474 64.7C127.787 64.7 128.31 65.0838 128.31 66C128.31 66.9162 127.787 67.3 127.474 67.3L116.536 67.3C116.222 67.3 115.699 66.9162 115.699 66Z" stroke="#19B394" stroke-width="1.4"/>
<path d="M115.699 66C115.699 65.0838 116.222 64.7 116.536 64.7L127.474 64.7C127.787 64.7 128.31 65.0838 128.31 66C128.31 66.9162 127.787 67.3 127.474 67.3L116.536 67.3C116.222 67.3 115.699 66.9162 115.699 66Z" stroke="#37B7AF" stroke-width="1.4"/>
<path d="M115.699 66C115.699 65.0838 116.222 64.7 116.536 64.7L127.474 64.7C127.787 64.7 128.31 65.0838 128.31 66C128.31 66.9162 127.787 67.3 127.474 67.3L116.536 67.3C116.222 67.3 115.699 66.9162 115.699 66Z" stroke="url(#paint13_linear)" stroke-width="1.4"/>
<path d="M238.428 57.5714L251.285 52V76.8571L238.428 82V57.5714Z" stroke="#19B394" stroke-width="2.8" stroke-linecap="round" stroke-linejoin="round"/>
<path d="M238.428 57.5714L251.285 52V76.8571L238.428 82V57.5714Z" stroke="#37B7AF" stroke-width="2.8" stroke-linecap="round" stroke-linejoin="round"/>
<path d="M238.428 57.5714L251.285 52V76.8571L238.428 82V57.5714Z" stroke="url(#paint14_linear)" stroke-width="2.8" stroke-linecap="round" stroke-linejoin="round"/>
<path d="M229.857 52V58.8571" stroke="#19B394" stroke-width="3" stroke-linecap="round" stroke-linejoin="round"/>
<path d="M229.857 52V58.8571" stroke="#37B7AF" stroke-width="3" stroke-linecap="round" stroke-linejoin="round"/>
<path d="M229.857 52V58.8571" stroke="url(#paint15_linear)" stroke-width="3" stroke-linecap="round" stroke-linejoin="round"/>
<path d="M229.857 72.5713V78.5713" stroke="#19B394" stroke-width="3" stroke-linecap="round" stroke-linejoin="round"/>
<path d="M229.857 72.5713V78.5713" stroke="#37B7AF" stroke-width="3" stroke-linecap="round" stroke-linejoin="round"/>
<path d="M229.857 72.5713V78.5713" stroke="url(#paint16_linear)" stroke-width="3" stroke-linecap="round" stroke-linejoin="round"/>
<line x1="230.4" y1="51.4569" x2="250.743" y2="51.4569" stroke="#19B394" stroke-width="2.8" stroke-linecap="round" stroke-linejoin="round"/>
<line x1="230.4" y1="51.4569" x2="250.743" y2="51.4569" stroke="#37B7AF" stroke-width="2.8" stroke-linecap="round" stroke-linejoin="round"/>
<line x1="230.4" y1="51.4569" x2="250.743" y2="51.4569" stroke="url(#paint17_linear)" stroke-width="2.8" stroke-linecap="round" stroke-linejoin="round"/>
<line x1="230.5" y1="78.7856" x2="236.929" y2="78.7856" stroke="#19B394" stroke-width="3" stroke-linecap="round" stroke-linejoin="round"/>
<line x1="230.5" y1="78.7856" x2="236.929" y2="78.7856" stroke="#37B7AF" stroke-width="3" stroke-linecap="round" stroke-linejoin="round"/>
<line x1="230.5" y1="78.7856" x2="236.929" y2="78.7856" stroke="url(#paint18_linear)" stroke-width="3" stroke-linecap="round" stroke-linejoin="round"/>
<path d="M223.811 67.0001H233.332C233.547 67.0001 233.753 66.8647 233.905 66.6236C234.057 66.3824 234.143 66.0554 234.143 65.7144C234.143 65.3734 234.057 65.0464 233.905 64.8053C233.753 64.5642 233.547 64.4287 233.332 64.4287H223.811C223.596 64.4287 223.39 64.5642 223.237 64.8053C223.085 65.0464 223 65.3734 223 65.7144C223 66.0554 223.085 66.3824 223.237 66.6236C223.39 66.8647 223.596 67.0001 223.811 67.0001Z" fill="#19B394"/>
<path d="M223.811 67.0001H233.332C233.547 67.0001 233.753 66.8647 233.905 66.6236C234.057 66.3824 234.143 66.0554 234.143 65.7144C234.143 65.3734 234.057 65.0464 233.905 64.8053C233.753 64.5642 233.547 64.4287 233.332 64.4287H223.811C223.596 64.4287 223.39 64.5642 223.237 64.8053C223.085 65.0464 223 65.3734 223 65.7144C223 66.0554 223.085 66.3824 223.237 66.6236C223.39 66.8647 223.596 67.0001 223.811 67.0001Z" fill="#37B7AF"/>
<path d="M223.811 67.0001H233.332C233.547 67.0001 233.753 66.8647 233.905 66.6236C234.057 66.3824 234.143 66.0554 234.143 65.7144C234.143 65.3734 234.057 65.0464 233.905 64.8053C233.753 64.5642 233.547 64.4287 233.332 64.4287H223.811C223.596 64.4287 223.39 64.5642 223.237 64.8053C223.085 65.0464 223 65.3734 223 65.7144C223 66.0554 223.085 66.3824 223.237 66.6236C223.39 66.8647 223.596 67.0001 223.811 67.0001Z" fill="url(#paint19_linear)"/>
<path d="M231.143 62.2856L235 65.7142L231.143 69.1428" stroke="#19B394" stroke-width="2.8" stroke-linecap="round" stroke-linejoin="round"/>
<path d="M231.143 62.2856L235 65.7142L231.143 69.1428" stroke="#37B7AF" stroke-width="2.8" stroke-linecap="round" stroke-linejoin="round"/>
<path d="M231.143 62.2856L235 65.7142L231.143 69.1428" stroke="url(#paint20_linear)" stroke-width="2.8" stroke-linecap="round" stroke-linejoin="round"/>
<circle cx="152" cy="65" r="12" stroke="#19B394" stroke-width="4"/>
<circle cx="152" cy="65" r="12" stroke="#37B7AF" stroke-width="4"/>
<circle cx="152" cy="65" r="12" stroke="url(#paint21_linear)" stroke-width="4"/>
<path d="M160.227 72.7476L169.746 80.9999" stroke="#19B394" stroke-width="4"/>
<path d="M160.227 72.7476L169.746 80.9999" stroke="#37B7AF" stroke-width="4"/>
<path d="M160.227 72.7476L169.746 80.9999" stroke="url(#paint22_linear)" stroke-width="4"/>
<path d="M110.48 196.018L112 195.448L111.24 193.548L109.719 194.118C109.339 193.484 108.769 192.914 108.136 192.471L108.769 190.95L106.932 190.127L106.235 191.647C105.538 191.457 104.778 191.457 104.018 191.584L103.448 190L101.548 190.76L102.118 192.344C101.484 192.724 100.914 193.294 100.534 193.864L98.9502 193.167L98.1267 195.005L99.6471 195.701C99.457 196.462 99.457 197.222 99.5837 197.982L98 198.615L98.7602 200.516L100.344 199.882C100.724 200.516 101.231 201.086 101.864 201.529L101.167 203.05L103.005 203.873L103.701 202.353C104.462 202.543 105.222 202.543 105.919 202.416L106.489 203.937L108.389 203.176L107.819 201.656C108.452 201.276 109.023 200.769 109.466 200.136L110.986 200.769L111.873 198.932L110.416 198.299C110.606 197.538 110.606 196.778 110.48 196.018ZM105.032 199.756C103.511 199.756 102.244 198.489 102.244 196.968C102.244 195.448 103.511 194.181 105.032 194.181C106.552 194.181 107.819 195.448 107.819 196.968C107.819 198.489 106.552 199.756 105.032 199.756Z" fill="white"/>
<path d="M133.48 196.018L135 195.448L134.24 193.548L132.719 194.118C132.339 193.484 131.769 192.914 131.136 192.471L131.769 190.95L129.932 190.127L129.235 191.647C128.538 191.457 127.778 191.457 127.018 191.584L126.448 190L124.548 190.76L125.118 192.344C124.484 192.724 123.914 193.294 123.534 193.864L121.95 193.167L121.127 195.005L122.647 195.701C122.457 196.462 122.457 197.222 122.584 197.982L121 198.615L121.76 200.516L123.344 199.882C123.724 200.516 124.231 201.086 124.864 201.529L124.167 203.05L126.005 203.873L126.701 202.353C127.462 202.543 128.222 202.543 128.919 202.416L129.489 203.937L131.389 203.176L130.819 201.656C131.452 201.276 132.023 200.769 132.466 200.136L133.986 200.769L134.873 198.932L133.416 198.299C133.606 197.538 133.606 196.778 133.48 196.018ZM128.032 199.756C126.511 199.756 125.244 198.489 125.244 196.968C125.244 195.448 126.511 194.181 128.032 194.181C129.552 194.181 130.819 195.448 130.819 196.968C130.819 198.489 129.552 199.756 128.032 199.756Z" fill="black"/>
<path d="M289.959 64.0362L293 62.8959L291.48 59.095L288.439 60.2353C287.679 58.9683 286.538 57.8281 285.271 56.9412L286.538 53.9005L282.864 52.2534L281.471 55.2941C280.077 54.914 278.557 54.914 277.036 55.1674L275.896 52L272.095 53.5204L273.235 56.6878C271.968 57.448 270.828 58.5882 270.068 59.7285L266.9 58.3348L265.253 62.009L268.294 63.4027C267.914 64.9231 267.914 66.4434 268.167 67.9638L265 69.2308L266.52 73.0317L269.688 71.7647C270.448 73.0317 271.462 74.1719 272.729 75.0588L271.335 78.0995L275.009 79.7466L276.403 76.7059C277.923 77.086 279.443 77.086 280.837 76.8326L281.977 79.8733L285.778 78.3529L284.638 75.3122C285.905 74.552 287.045 73.5385 287.932 72.2715L290.973 73.5385L292.747 69.8643L289.833 68.5973C290.213 67.0769 290.213 65.5566 289.959 64.0362ZM279.063 71.5113C276.023 71.5113 273.489 68.9774 273.489 65.9367C273.489 62.8959 276.023 60.362 279.063 60.362C282.104 60.362 284.638 62.8959 284.638 65.9367C284.638 68.9774 282.104 71.5113 279.063 71.5113Z" fill="#19B394"/>
<path d="M289.959 64.0362L293 62.8959L291.48 59.095L288.439 60.2353C287.679 58.9683 286.538 57.8281 285.271 56.9412L286.538 53.9005L282.864 52.2534L281.471 55.2941C280.077 54.914 278.557 54.914 277.036 55.1674L275.896 52L272.095 53.5204L273.235 56.6878C271.968 57.448 270.828 58.5882 270.068 59.7285L266.9 58.3348L265.253 62.009L268.294 63.4027C267.914 64.9231 267.914 66.4434 268.167 67.9638L265 69.2308L266.52 73.0317L269.688 71.7647C270.448 73.0317 271.462 74.1719 272.729 75.0588L271.335 78.0995L275.009 79.7466L276.403 76.7059C277.923 77.086 279.443 77.086 280.837 76.8326L281.977 79.8733L285.778 78.3529L284.638 75.3122C285.905 74.552 287.045 73.5385 287.932 72.2715L290.973 73.5385L292.747 69.8643L289.833 68.5973C290.213 67.0769 290.213 65.5566 289.959 64.0362ZM279.063 71.5113C276.023 71.5113 273.489 68.9774 273.489 65.9367C273.489 62.8959 276.023 60.362 279.063 60.362C282.104 60.362 284.638 62.8959 284.638 65.9367C284.638 68.9774 282.104 71.5113 279.063 71.5113Z" fill="#37B7AF"/>
<path d="M289.959 64.0362L293 62.8959L291.48 59.095L288.439 60.2353C287.679 58.9683 286.538 57.8281 285.271 56.9412L286.538 53.9005L282.864 52.2534L281.471 55.2941C280.077 54.914 278.557 54.914 277.036 55.1674L275.896 52L272.095 53.5204L273.235 56.6878C271.968 57.448 270.828 58.5882 270.068 59.7285L266.9 58.3348L265.253 62.009L268.294 63.4027C267.914 64.9231 267.914 66.4434 268.167 67.9638L265 69.2308L266.52 73.0317L269.688 71.7647C270.448 73.0317 271.462 74.1719 272.729 75.0588L271.335 78.0995L275.009 79.7466L276.403 76.7059C277.923 77.086 279.443 77.086 280.837 76.8326L281.977 79.8733L285.778 78.3529L284.638 75.3122C285.905 74.552 287.045 73.5385 287.932 72.2715L290.973 73.5385L292.747 69.8643L289.833 68.5973C290.213 67.0769 290.213 65.5566 289.959 64.0362ZM279.063 71.5113C276.023 71.5113 273.489 68.9774 273.489 65.9367C273.489 62.8959 276.023 60.362 279.063 60.362C282.104 60.362 284.638 62.8959 284.638 65.9367C284.638 68.9774 282.104 71.5113 279.063 71.5113Z" fill="url(#paint23_linear)"/>
<circle cx="191.75" cy="173.75" r="1.75" fill="white"/>
<circle cx="197.25" cy="173.75" r="1.75" fill="white"/>
<circle cx="202.75" cy="173.75" r="1.75" fill="white"/>
<circle cx="214.75" cy="173.75" r="1.75" fill="black"/>
<circle cx="220.25" cy="173.75" r="1.75" fill="black"/>
<circle cx="225.75" cy="173.75" r="1.75" fill="black"/>
<path d="M103.181 213H97.1C97.0448 213 97 213.045 97 213.1V224.956C97 225.011 97.0448 225.056 97.1 225.056H110.9C110.955 225.056 111 225.011 111 224.956V214.656C111 214.6 110.955 214.556 110.9 214.556H104.819C104.793 214.556 104.767 214.545 104.748 214.526L103.252 213.029C103.233 213.011 103.207 213 103.181 213Z" fill="white"/>
<path d="M127.181 213H121.1C121.045 213 121 213.045 121 213.1V224.956C121 225.011 121.045 225.056 121.1 225.056H134.9C134.955 225.056 135 225.011 135 224.956V214.656C135 214.6 134.955 214.556 134.9 214.556H128.819C128.793 214.556 128.767 214.545 128.748 214.526L127.252 213.029C127.233 213.011 127.207 213 127.181 213Z" fill="black"/>
<path fill-rule="evenodd" clip-rule="evenodd" d="M221 156.6C224.093 156.6 226.6 154.093 226.6 151C226.6 147.907 224.093 145.4 221 145.4C217.907 145.4 215.4 147.907 215.4 151C215.4 154.093 217.907 156.6 221 156.6ZM221 158C224.866 158 228 154.866 228 151C228 147.134 224.866 144 221 144C217.134 144 214 147.134 214 151C214 154.866 217.134 158 221 158Z" fill="black"/>
<path fill-rule="evenodd" clip-rule="evenodd" d="M224.5 151.7H217.5V150.3H224.5V151.7Z" fill="black"/>
<path fill-rule="evenodd" clip-rule="evenodd" d="M220.299 154.5L220.299 147.5L221.699 147.5L221.699 154.5L220.299 154.5Z" fill="black"/>
<path fill-rule="evenodd" clip-rule="evenodd" d="M197 156.6C200.093 156.6 202.6 154.093 202.6 151C202.6 147.907 200.093 145.4 197 145.4C193.907 145.4 191.4 147.907 191.4 151C191.4 154.093 193.907 156.6 197 156.6ZM197 158C200.866 158 204 154.866 204 151C204 147.134 200.866 144 197 144C193.134 144 190 147.134 190 151C190 154.866 193.134 158 197 158Z" fill="white"/>
<path fill-rule="evenodd" clip-rule="evenodd" d="M200.5 151.7H193.5V150.3H200.5V151.7Z" fill="white"/>
<path fill-rule="evenodd" clip-rule="evenodd" d="M196.299 154.5L196.299 147.5L197.699 147.5L197.699 154.5L196.299 154.5Z" fill="white"/>
<path fill-rule="evenodd" clip-rule="evenodd" d="M105.778 170.111H98V168.555H105.778V170.111Z" fill="white"/>
<path fill-rule="evenodd" clip-rule="evenodd" d="M111.998 174.778H104.221V173.222H111.998V174.778Z" fill="white"/>
<path fill-rule="evenodd" clip-rule="evenodd" d="M112.001 170.111H107.334V168.555H112.001V170.111Z" fill="white"/>
<path fill-rule="evenodd" clip-rule="evenodd" d="M102.667 174.778H98V173.222H102.667V174.778Z" fill="white"/>
<path fill-rule="evenodd" clip-rule="evenodd" d="M102.667 179.444H98V177.889H102.667V179.444Z" fill="white"/>
<path fill-rule="evenodd" clip-rule="evenodd" d="M111.998 179.444H104.221V177.889H111.998V179.444Z" fill="white"/>
<path fill-rule="evenodd" clip-rule="evenodd" d="M107.333 171.667V167H108.889V171.667H107.333Z" fill="white"/>
<path fill-rule="evenodd" clip-rule="evenodd" d="M101.11 176.333V171.667H102.666V176.333H101.11Z" fill="white"/>
<path fill-rule="evenodd" clip-rule="evenodd" d="M104.224 181V176.333H105.779V181H104.224Z" fill="white"/>
<path fill-rule="evenodd" clip-rule="evenodd" d="M128.778 170.111H121V168.555H128.778V170.111Z" fill="black"/>
<path fill-rule="evenodd" clip-rule="evenodd" d="M134.998 174.778H127.221V173.222H134.998V174.778Z" fill="black"/>
<path fill-rule="evenodd" clip-rule="evenodd" d="M135.001 170.111H130.334V168.555H135.001V170.111Z" fill="black"/>
<path fill-rule="evenodd" clip-rule="evenodd" d="M125.667 174.778H121V173.222H125.667V174.778Z" fill="black"/>
<path fill-rule="evenodd" clip-rule="evenodd" d="M125.667 179.444H121V177.889H125.667V179.444Z" fill="black"/>
<path fill-rule="evenodd" clip-rule="evenodd" d="M134.998 179.444H127.221V177.889H134.998V179.444Z" fill="black"/>
<path fill-rule="evenodd" clip-rule="evenodd" d="M130.333 171.667V167H131.889V171.667H130.333Z" fill="black"/>
<path fill-rule="evenodd" clip-rule="evenodd" d="M124.11 176.333V171.667H125.666V176.333H124.11Z" fill="black"/>
<path fill-rule="evenodd" clip-rule="evenodd" d="M127.224 181V176.333H128.779V181H127.224Z" fill="black"/>
<path fill-rule="evenodd" clip-rule="evenodd" d="M9.88453 154.742L5.99947 150.856L7.37305 149.483L11.2581 153.368L9.88453 154.742Z" fill="white"/>
<path fill-rule="evenodd" clip-rule="evenodd" d="M9.88505 154.741L18.6264 146L20 147.374L11.2586 156.115L9.88505 154.741Z" fill="white"/>
<path fill-rule="evenodd" clip-rule="evenodd" d="M32.8845 154.742L28.9995 150.856L30.373 149.483L34.2581 153.368L32.8845 154.742Z" fill="black"/>
<path fill-rule="evenodd" clip-rule="evenodd" d="M32.8851 154.741L41.6264 146L43 147.374L34.2586 156.115L32.8851 154.741Z" fill="black"/>
<path d="M59 144C62.85 144 66 147.15 66 151C66 154.85 62.85 158 59 158C55.15 158 52 154.85 52 151C52 147.15 55.15 144 59 144ZM64.18 148.48L63.2 147.5L57.88 152.82L55.08 150.02L54.1 151L56.9 153.8L57.88 154.78L64.18 148.48Z" fill="white"/>
<path d="M82 144C85.85 144 89 147.15 89 151C89 154.85 85.85 158 82 158C78.15 158 75 154.85 75 151C75 147.15 78.15 144 82 144ZM87.18 148.48L86.2 147.5L80.88 152.82L78.08 150.02L77.1 151L79.9 153.8L80.88 154.78L87.18 148.48Z" fill="black"/>
<line y1="-0.75" x2="4.71405" y2="-0.75" transform="matrix(0.707107 -0.707107 -0.707107 -0.707107 9 125)" stroke="white" stroke-width="1.5"/>
<line y1="-0.75" x2="5.65685" y2="-0.75" transform="matrix(0.707107 0.707107 0.707107 -0.707107 13 121)" stroke="white" stroke-width="1.5"/>
<line x1="9.53033" y1="130.47" x2="12.8637" y2="133.803" stroke="white" stroke-width="1.5"/>
<line x1="12.4697" y1="134.47" x2="16.4697" y2="130.47" stroke="white" stroke-width="1.5"/>
<line y1="-0.75" x2="4.71405" y2="-0.75" transform="matrix(0.707107 -0.707107 -0.707107 -0.707107 32 125)" stroke="black" stroke-width="1.5"/>
<line y1="-0.75" x2="5.65685" y2="-0.75" transform="matrix(0.707107 0.707107 0.707107 -0.707107 36 121)" stroke="black" stroke-width="1.5"/>
<line x1="32.5303" y1="130.47" x2="35.8637" y2="133.803" stroke="black" stroke-width="1.5"/>
<line x1="35.4697" y1="134.47" x2="39.4697" y2="130.47" stroke="black" stroke-width="1.5"/>
<rect x="52.0215" y="212" width="13.9781" height="11.475" rx="1.2" fill="white"/>
<path d="M55.311 223.488L52.0229 225.985L52.0229 220.965L55.311 223.488Z" fill="white"/>
<rect x="55.5176" y="217.021" width="1.39781" height="1.43437" fill="black"/>
<rect x="58.3125" y="217.021" width="1.39781" height="1.43437" fill="black"/>
<rect x="61.1074" y="217.021" width="1.39781" height="1.43437" fill="black"/>
<rect x="75.0215" y="212" width="13.9781" height="11.475" rx="1.2" fill="black"/>
<path d="M78.311 223.488L75.0229 225.985L75.0229 220.965L78.311 223.488Z" fill="black"/>
<rect x="78.5176" y="217.021" width="1.39781" height="1.43437" fill="white"/>
<rect x="81.3125" y="217.021" width="1.39781" height="1.43437" fill="white"/>
<rect x="84.1074" y="217.021" width="1.39781" height="1.43437" fill="white"/>
<path fill-rule="evenodd" clip-rule="evenodd" d="M82 201.6C85.0928 201.6 87.6 199.093 87.6 196C87.6 192.907 85.0928 190.4 82 190.4C78.9072 190.4 76.4 192.907 76.4 196C76.4 199.093 78.9072 201.6 82 201.6ZM82 203C85.866 203 89 199.866 89 196C89 192.134 85.866 189 82 189C78.134 189 75 192.134 75 196C75 199.866 78.134 203 82 203Z" fill="black"/>
<path d="M81.3335 191.8H82.6681V197.696H81.3335V191.8ZM81.3008 198.764H82.7008V200.2H81.3008V198.764Z" fill="black"/>
<path fill-rule="evenodd" clip-rule="evenodd" d="M59 201.6C62.0928 201.6 64.6 199.093 64.6 196C64.6 192.907 62.0928 190.4 59 190.4C55.9072 190.4 53.4 192.907 53.4 196C53.4 199.093 55.9072 201.6 59 201.6ZM59 203C62.866 203 66 199.866 66 196C66 192.134 62.866 189 59 189C55.134 189 52 192.134 52 196C52 199.866 55.134 203 59 203Z" fill="white"/>
<path d="M58.3335 191.8H59.6681V197.696H58.3335V191.8ZM58.3008 198.764H59.7008V200.2H58.3008V198.764Z" fill="white"/>
<path d="M13 189C9.15 189 6 192.15 6 196C6 199.85 9.15 203 13 203C16.85 203 20 199.85 20 196C20 192.15 16.85 189 13 189ZM12.3 191.8H13.7V197.68H12.3V191.8ZM13.7 200.2H12.3V198.73H13.7V200.2Z" fill="white"/>
<path d="M36 189C32.15 189 29 192.15 29 196C29 199.85 32.15 203 36 203C39.85 203 43 199.85 43 196C43 192.15 39.85 189 36 189ZM35.3 191.8H36.7V197.68H35.3V191.8ZM36.7 200.2H35.3V198.73H36.7V200.2Z" fill="black"/>
<path d="M150 144C146.15 144 143 147.15 143 151C143 154.85 146.15 158 150 158C153.85 158 157 154.85 157 151C157 147.15 153.85 144 150 144ZM153.5 151.7H150.7V154.5H149.3V151.7H146.5V150.3H149.3V147.5H150.7V150.3H153.5V151.7Z" fill="white"/>
<path d="M173 144C169.15 144 166 147.15 166 151C166 154.85 169.15 158 173 158C176.85 158 180 154.85 180 151C180 147.15 176.85 144 173 144ZM176.5 151.7H173.7V154.5H172.3V151.7H169.5V150.3H172.3V147.5H173.7V150.3H176.5V151.7Z" fill="black"/>
<path d="M59 167C55.15 167 52 170.15 52 174C52 177.85 55.15 181 59 181C62.85 181 66 177.85 66 174C66 170.15 62.85 167 59 167ZM60.96 176.94L59 174.98L57.04 176.94L56.06 175.96L58.02 174L56.06 172.04L57.04 171.06L59 173.02L60.96 171.06L61.94 172.04L59.98 174L61.94 175.96L60.96 176.94Z" fill="white"/>
<path d="M82 167C78.15 167 75 170.15 75 174C75 177.85 78.15 181 82 181C85.85 181 89 177.85 89 174C89 170.15 85.85 167 82 167ZM83.96 176.94L82 174.98L80.04 176.94L79.06 175.96L81.02 174L79.06 172.04L80.04 171.06L82 173.02L83.96 171.06L84.94 172.04L82.98 174L84.94 175.96L83.96 176.94Z" fill="black"/>
<path d="M197 120C193.15 120 190 123.15 190 127C190 130.85 193.15 134 197 134C200.85 134 204 130.85 204 127C204 123.15 200.85 120 197 120ZM200.5 127.7H193.5V126.3H200.5V127.7Z" fill="white"/>
<path d="M221 120C217.15 120 214 123.15 214 127C214 130.85 217.15 134 221 134C224.85 134 228 130.85 228 127C228 123.15 224.85 120 221 120ZM224.5 127.7H217.5V126.3H224.5V127.7Z" fill="black"/>
<path d="M53 125.325V130.24H55.8912L59.9388 133.709V122L55.8912 125.325H53Z" fill="white"/>
<path d="M62.832 124.892V130.529C63.9885 130.529 65.0004 129.228 65.0004 127.638C65.0004 126.048 63.9885 124.892 62.832 124.892Z" fill="white"/>
<path d="M76 125.325V130.24H78.8912L82.9388 133.709V122L78.8912 125.325H76Z" fill="black"/>
<path d="M85.832 124.892V130.529C86.9885 130.529 88.0004 129.228 88.0004 127.638C88.0004 126.048 86.9885 124.892 85.832 124.892Z" fill="black"/>
<path fill-rule="evenodd" clip-rule="evenodd" d="M112 150H106V144H104V150H98V152H104V158H106V152H112V150Z" fill="white"/>
<path fill-rule="evenodd" clip-rule="evenodd" d="M135 150H129V144H127V150H121V152H127V158H129V152H135V150Z" fill="black"/>
<path fill-rule="evenodd" clip-rule="evenodd" d="M108.4 123.4L107 122L102 127L101 128L107 134L108.4 132.6L103.8 128L108.4 123.4Z" fill="black"/>
<path fill-rule="evenodd" clip-rule="evenodd" d="M124 123.4L125.4 122L130.4 127L131.4 128L125.4 134L124 132.6L128.6 128L124 123.4Z" fill="black"/>
<path fill-rule="evenodd" clip-rule="evenodd" d="M145.4 124L144 125.4L149 130.4L150 131.4L156 125.4L154.6 124L150 128.6L145.4 124Z" fill="black"/>
<path fill-rule="evenodd" clip-rule="evenodd" d="M177.6 131.4L179 130L174 125L173 124L167 130L168.4 131.4L173 126.8L177.6 131.4Z" fill="black"/>
<path d="M20 179.297L14.3243 173.622L19.6216 168.324L18.2973 167L13 172.297L7.7027 167L6.37838 168.324L11.6757 173.622L6 179.297L7.32432 180.622L13 174.946L18.6757 180.622L20 179.297Z" fill="white"/>
<path d="M43 179.297L37.3243 173.622L42.6216 168.324L41.2973 167L36 172.297L30.7027 167L29.3784 168.324L34.6757 173.622L29 179.297L30.3243 180.622L36 174.946L41.6757 180.622L43 179.297Z" fill="black"/>
<g clip-path="url(#clip0)">
<path d="M42.3008 213.8H32.5008C32.1008 213.8 31.8008 214.1 31.8008 214.5V226.4C31.8008 226.8 32.1008 227.1 32.5008 227.1H42.2008C42.6008 227.1 42.9008 226.8 42.9008 226.4V214.5C43.0008 214.1 42.7008 213.8 42.3008 213.8ZM41.9008 226.1H32.9008V214.9H41.9008V226.1Z" fill="black"/>
<path d="M39.3 211H30.3C29.6 211 29 211.6 29 212.3V223.1H30.1V212.3C30.1 212.2 30.2 212.1 30.3 212.1H39.3V211Z" fill="black"/>
</g>
<g clip-path="url(#clip1)">
<path d="M19.3008 213.8H9.50078C9.10078 213.8 8.80078 214.1 8.80078 214.5V226.4C8.80078 226.8 9.10078 227.1 9.50078 227.1H19.2008C19.6008 227.1 19.9008 226.8 19.9008 226.4V214.5C20.0008 214.1 19.7008 213.8 19.3008 213.8ZM18.9008 226.1H9.90078V214.9H18.9008V226.1Z" fill="white"/>
<path d="M16.3 211H7.3C6.6 211 6 211.6 6 212.3V223.1H7.1V212.3C7.1 212.2 7.2 212.1 7.3 212.1H16.3V211Z" fill="white"/>
</g>
<path d="M179.146 172.37L176.55 169.682L167 178.861L167.278 181.086L169.596 181.364L179.146 172.37ZM180.629 171.072C181 170.702 181 170.145 180.722 169.774L179.331 168.291C178.96 167.92 178.404 167.92 178.033 168.198L177.106 169.033L179.702 171.814L180.629 171.072Z" fill="black"/>
<path d="M156.146 172.37L153.55 169.682L144 178.861L144.278 181.086L146.596 181.364L156.146 172.37ZM157.629 171.072C158 170.702 158 170.145 157.722 169.774L156.331 168.291C155.96 167.92 155.404 167.92 155.033 168.198L154.106 169.033L156.702 171.814L157.629 171.072Z" fill="white"/>
<path d="M151.4 192H143V193.4H151.4V192Z" fill="white"/>
<path d="M151.4 194.8H143V196.2H151.4V194.8Z" fill="white"/>
<path d="M157 197.6H154.2V194.8H152.8V197.6H150V199H152.8V201.8H154.2V199H157V197.6Z" fill="white"/>
<path d="M148.6 197.6H143V199H148.6V197.6Z" fill="white"/>
<path d="M174.4 192H166V193.4H174.4V192Z" fill="black"/>
<path d="M174.4 194.8H166V196.2H174.4V194.8Z" fill="black"/>
<path d="M180 197.6H177.2V194.8H175.8V197.6H173V199H175.8V201.8H177.2V199H180V197.6Z" fill="black"/>
<path d="M171.6 197.6H166V199H171.6V197.6Z" fill="black"/>
<path d="M192.471 190H190V192.471H192.471V190Z" fill="white"/>
<path d="M204 190H194.117V192.471H204V190Z" fill="white"/>
<path d="M204 194.941H194.117V197.412H204V194.941Z" fill="white"/>
<path d="M204 199.882H194.117V202.353H204V199.882Z" fill="white"/>
<path d="M192.471 194.941H190V197.412H192.471V194.941Z" fill="white"/>
<path d="M192.471 199.882H190V202.353H192.471V199.882Z" fill="white"/>
<path d="M216.471 190H214V192.471H216.471V190Z" fill="black"/>
<path d="M228 190H218.117V192.471H228V190Z" fill="black"/>
<path d="M228 194.941H218.117V197.412H228V194.941Z" fill="black"/>
<path d="M228 199.882H218.117V202.353H228V199.882Z" fill="black"/>
<path d="M216.471 194.941H214V197.412H216.471V194.941Z" fill="black"/>
<path d="M216.471 199.882H214V202.353H216.471V199.882Z" fill="black"/>
<defs>
<linearGradient id="paint0_linear" x1="195.233" y1="51.8033" x2="194.265" y2="80.0166" gradientUnits="userSpaceOnUse">
<stop offset="0.1011" stop-color="white"/>
<stop offset="0.9819" stop-color="#999999"/>
</linearGradient>
<linearGradient id="paint1_linear" x1="195.233" y1="51.8033" x2="194.265" y2="80.0166" gradientUnits="userSpaceOnUse">
<stop offset="0.1011" stop-color="#12A7A8"/>
<stop offset="0.9819" stop-color="#00B393"/>
</linearGradient>
<linearGradient id="paint2_linear" x1="183.147" y1="77.2476" x2="203.849" y2="57.2001" gradientUnits="userSpaceOnUse">
<stop offset="0.1011" stop-color="white"/>
<stop offset="0.9819" stop-color="#999999"/>
</linearGradient>
<linearGradient id="paint3_linear" x1="183.147" y1="77.2476" x2="203.849" y2="57.2001" gradientUnits="userSpaceOnUse">
<stop offset="0.1011" stop-color="#0FA8A6"/>
<stop offset="0.9819" stop-color="#00B393"/>
</linearGradient>
<linearGradient id="paint4_linear" x1="209.127" y1="67.2216" x2="180.42" y2="66.5995" gradientUnits="userSpaceOnUse">
<stop offset="0.1011" stop-color="white"/>
<stop offset="0.9819" stop-color="#999999"/>
</linearGradient>
<linearGradient id="paint5_linear" x1="209.127" y1="67.2216" x2="180.42" y2="66.5995" gradientUnits="userSpaceOnUse">
<stop offset="0.1011" stop-color="#11A8A6"/>
<stop offset="0.9819" stop-color="#00B393"/>
</linearGradient>
<linearGradient id="paint6_linear" x1="205.401" y1="78.0118" x2="186.235" y2="56.5998" gradientUnits="userSpaceOnUse">
<stop offset="0.1011" stop-color="white"/>
<stop offset="0.9819" stop-color="#999999"/>
</linearGradient>
<linearGradient id="paint7_linear" x1="205.401" y1="78.0118" x2="186.235" y2="56.5998" gradientUnits="userSpaceOnUse">
<stop offset="0.1011" stop-color="#19A2B1"/>
<stop offset="0.817708" stop-color="#00B393"/>
</linearGradient>
<linearGradient id="paint8_linear" x1="206.836" y1="54.0127" x2="211.022" y2="54.0127" gradientUnits="userSpaceOnUse">
<stop offset="0.0400989" stop-color="#4D4D4D"/>
<stop offset="0.981" stop-color="white"/>
</linearGradient>
<linearGradient id="paint9_linear" x1="206.836" y1="54.0127" x2="211.022" y2="54.0127" gradientUnits="userSpaceOnUse">
<stop offset="0.0400989" stop-color="#19A2B1"/>
<stop offset="0.981" stop-color="#00B393"/>
</linearGradient>
<linearGradient id="paint10_linear" x1="120.068" y1="52" x2="100.856" y2="79.9517" gradientUnits="userSpaceOnUse">
<stop offset="0.104167" stop-color="#42AFBB"/>
<stop offset="0.875" stop-color="#2EBDA3"/>
</linearGradient>
<linearGradient id="paint11_linear" x1="120.068" y1="52" x2="100.856" y2="79.9517" gradientUnits="userSpaceOnUse">
<stop offset="0.104167" stop-color="#42AFBB"/>
<stop offset="0.875" stop-color="#2EBDA3"/>
</linearGradient>
<linearGradient id="paint12_linear" x1="126.635" y1="64" x2="125.577" y2="69.6825" gradientUnits="userSpaceOnUse">
<stop offset="0.104167" stop-color="#42AFBB"/>
<stop offset="0.875" stop-color="#2EBDA3"/>
</linearGradient>
<linearGradient id="paint13_linear" x1="126.635" y1="64" x2="125.577" y2="69.6825" gradientUnits="userSpaceOnUse">
<stop offset="0.104167" stop-color="#42AFBB"/>
<stop offset="0.875" stop-color="#2EBDA3"/>
</linearGradient>
<linearGradient id="paint14_linear" x1="238.428" y1="57.0847" x2="255.956" y2="61.9851" gradientUnits="userSpaceOnUse">
<stop offset="0.104167" stop-color="#42AFBB"/>
<stop offset="0.875" stop-color="#2EBDA3"/>
</linearGradient>
<linearGradient id="paint15_linear" x1="228.857" y1="52" x2="226.816" y2="52.7151" gradientUnits="userSpaceOnUse">
<stop offset="0.104167" stop-color="#42AFBB"/>
<stop offset="1" stop-color="#2EBDA3"/>
</linearGradient>
<linearGradient id="paint16_linear" x1="229.688" y1="72.5713" x2="227.573" y2="73.1117" gradientUnits="userSpaceOnUse">
<stop offset="0.104167" stop-color="#42AFBB"/>
<stop offset="0.875" stop-color="#2EBDA3"/>
</linearGradient>
<linearGradient id="paint17_linear" x1="229" y1="53.0264" x2="229.149" y2="55.2699" gradientUnits="userSpaceOnUse">
<stop offset="0.104167" stop-color="#42AFBB"/>
<stop offset="0.875" stop-color="#2EBDA3"/>
</linearGradient>
<linearGradient id="paint18_linear" x1="229" y1="80.4551" x2="229.357" y2="82.6504" gradientUnits="userSpaceOnUse">
<stop offset="0.104167" stop-color="#42AFBB"/>
<stop offset="0.875" stop-color="#2EBDA3"/>
</linearGradient>
<linearGradient id="paint19_linear" x1="223" y1="64.8645" x2="224.822" y2="70.0143" gradientUnits="userSpaceOnUse">
<stop offset="0.104167" stop-color="#42AFBB"/>
<stop offset="0.875" stop-color="#2EBDA3"/>
</linearGradient>
<linearGradient id="paint20_linear" x1="231.143" y1="63.4479" x2="236.139" y2="65.2813" gradientUnits="userSpaceOnUse">
<stop offset="0.104167" stop-color="#42AFBB"/>
<stop offset="0.875" stop-color="#2EBDA3"/>
</linearGradient>
<linearGradient id="paint21_linear" x1="140" y1="57.0678" x2="164.747" y2="73.2107" gradientUnits="userSpaceOnUse">
<stop offset="0.104167" stop-color="#42AFBB"/>
<stop offset="0.875" stop-color="#2EBDA3"/>
</linearGradient>
<linearGradient id="paint22_linear" x1="160.116" y1="72.8756" x2="158.865" y2="74.7304" gradientUnits="userSpaceOnUse">
<stop offset="0.104167" stop-color="#42AFBB"/>
<stop offset="0.875" stop-color="#2EBDA3"/>
</linearGradient>
<linearGradient id="paint23_linear" x1="265" y1="56.7243" x2="293.793" y2="75.5919" gradientUnits="userSpaceOnUse">
<stop offset="0.104167" stop-color="#42AFBB"/>
<stop offset="0.875" stop-color="#2EBDA3"/>
</linearGradient>
<clipPath id="clip0">
<rect width="15.9194" height="16.1" fill="white" transform="translate(28 211)"/>
</clipPath>
<clipPath id="clip1">
<rect width="15.9194" height="16.1" fill="white" transform="translate(5 211)"/>
</clipPath>
</defs>
</svg>
