<?xml version="1.0" encoding="utf-8"?>
<!-- Generator: Adobe Illustrator 24.0.1, SVG Export Plug-In . SVG Version: 6.00 Build 0)  -->
<svg version="1.1" id="레이어_1" xmlns="http://www.w3.org/2000/svg" xmlns:xlink="http://www.w3.org/1999/xlink" x="0px"
	 y="0px" viewBox="0 0 247 393" style="enable-background:new 0 0 247 393;" xml:space="preserve">
<style type="text/css">
	.st0{enable-background:new    ;}
	.st1{clip-path:url(#SVGID_2_);enable-background:new    ;}
	.st2{fill:#F78C54;}
	.st3{fill:#ED724C;}
	.st4{clip-path:url(#SVGID_4_);enable-background:new    ;}
	.st5{fill:#EF8152;}
	.st6{clip-path:url(#SVGID_6_);enable-background:new    ;}
	.st7{clip-path:url(#SVGID_8_);enable-background:new    ;}
	.st8{clip-path:url(#SVGID_10_);enable-background:new    ;}
	.st9{fill:#FF9961;}
	.st10{clip-path:url(#SVGID_12_);enable-background:new    ;}
	.st11{clip-path:url(#SVGID_14_);enable-background:new    ;}
	.st12{fill:#FC5B14;stroke:#FFC5AE;stroke-width:3;stroke-miterlimit:10;}
</style>
<g>
	<g class="st0">
		<defs>
			<path id="SVGID_1_" class="st0" d="M171.6,229.7l38.5,22.4c-0.4-0.2-0.8-0.4-1.3-0.5c-2.6-0.7-8,1.4-16.3,6.2L154,235.4
				c8.3-4.8,13.7-6.9,16.3-6.2C170.8,229.3,171.2,229.5,171.6,229.7z"/>
		</defs>
		<use xlink:href="#SVGID_1_"  style="overflow:visible;fill:#F78C54;"/>
		<clipPath id="SVGID_2_">
			<use xlink:href="#SVGID_1_"  style="overflow:visible;"/>
		</clipPath>
		<g class="st1">
			<path class="st2" d="M192.5,257.8L154,235.4c3.7-2.1,6.8-3.7,9.3-4.8l38.5,22.4C199.3,254.1,196.1,255.7,192.5,257.8"/>
			<path class="st2" d="M201.8,253l-38.5-22.4c1.2-0.5,2.3-0.9,3.3-1.1l38.5,22.4C204.1,252.1,203,252.5,201.8,253"/>
			<path class="st2" d="M205.1,251.9l-38.5-22.4c0.5-0.1,1-0.2,1.5-0.3l38.5,22.4C206.1,251.6,205.6,251.7,205.1,251.9"/>
			<path class="st2" d="M206.6,251.6l-38.5-22.4c0.3,0,0.6-0.1,0.9-0.1l38.5,22.4C207.2,251.5,206.9,251.5,206.6,251.6"/>
			<path class="st2" d="M207.5,251.5L169,229.1c0.2,0,0.4,0,0.6,0l38.5,22.4C207.9,251.5,207.7,251.5,207.5,251.5"/>
			<path class="st2" d="M208.1,251.5l-38.5-22.4c0.2,0,0.3,0,0.5,0.1l38.5,22.4C208.4,251.5,208.2,251.5,208.1,251.5"/>
			<path class="st2" d="M208.5,251.5L170,229.2c0.1,0,0.2,0,0.3,0.1c0.1,0,0.1,0,0.2,0.1l38.5,22.4c-0.1,0-0.1,0-0.2-0.1
				C208.7,251.6,208.6,251.5,208.5,251.5"/>
			<path class="st2" d="M209,251.6l-38.5-22.4c0.2,0.1,0.4,0.1,0.6,0.2l38.5,22.4C209.4,251.8,209.2,251.7,209,251.6"/>
			<path class="st2" d="M209.5,251.8L171,229.5c0.2,0.1,0.3,0.2,0.5,0.2l38.5,22.4C209.9,252,209.7,251.9,209.5,251.8"/>
			<path class="st2" d="M210,252.1l-38.5-22.4c0,0,0,0,0.1,0L210,252.1C210.1,252.1,210.1,252.1,210,252.1"/>
		</g>
	</g>
	<g>
		<polygon class="st3" points="128.9,294.5 90.4,272.1 154,235.4 192.5,257.8 		"/>
	</g>
	<g>
		<defs>
			<path id="SVGID_3_" d="M78.9,356.5l-38.5-22.4c-1.7-1-3.1-2.7-4.1-5.1c-2.9-7-1.2-16.8,5.1-29.2l38.5,22.4
				c-6.3,12.4-8,22.1-5.1,29.2C75.8,353.8,77.2,355.5,78.9,356.5z"/>
		</defs>
		<use xlink:href="#SVGID_3_"  style="overflow:visible;fill:#EF8152;"/>
		<clipPath id="SVGID_4_">
			<use xlink:href="#SVGID_3_"  style="overflow:visible;"/>
		</clipPath>
		<g class="st4">
			<path class="st5" d="M78.9,356.5l-38.5-22.4c-1.7-1-3.1-2.7-4.1-5.1c-1.3-3.2-1.7-6.9-1.2-11.1l38.5,22.4
				c-0.6,4.2-0.2,7.9,1.2,11.1C75.8,353.8,77.2,355.5,78.9,356.5"/>
			<path class="st5" d="M73.6,340.2l-38.5-22.4c0.1-0.9,0.3-1.9,0.5-2.8l38.5,22.4C73.9,338.4,73.8,339.3,73.6,340.2"/>
			<path class="st5" d="M74.1,337.4L35.6,315c0.2-0.8,0.4-1.7,0.6-2.5l38.5,22.4C74.5,335.7,74.3,336.6,74.1,337.4"/>
			<path class="st5" d="M74.7,334.9l-38.5-22.4c0.2-0.8,0.5-1.6,0.8-2.5l38.5,22.4C75.2,333.3,75,334.1,74.7,334.9"/>
			<path class="st5" d="M75.5,332.4L37,310c0.3-0.8,0.6-1.7,0.9-2.5l38.5,22.4C76.1,330.7,75.8,331.6,75.5,332.4"/>
			<path class="st5" d="M76.4,329.9l-38.5-22.4c0.3-0.9,0.7-1.8,1.1-2.7l38.5,22.4C77.1,328.1,76.8,329,76.4,329.9"/>
			<path class="st5" d="M77.5,327.1L39,304.8c0.4-1,0.9-2,1.4-3l38.5,22.4C78.4,325.2,78,326.2,77.5,327.1"/>
			<path class="st5" d="M78.9,324.1l-38.5-22.4c0.3-0.6,0.6-1.3,1-2l38.5,22.4C79.5,322.8,79.2,323.5,78.9,324.1"/>
		</g>
	</g>
	<g>
		<polygon class="st2" points="79.9,322.2 41.4,299.8 116.3,148.6 154.8,171 		"/>
	</g>
	<g>
		<defs>
			<path id="SVGID_5_" d="M154.8,171l-38.5-22.4c3.7-7.6,6.5-14.9,8.4-21.9c1.9-7,2.8-13.1,2.6-18.3l38.5,22.4
				c0.2,5.2-0.7,11.3-2.6,18.3C161.3,156.1,158.5,163.4,154.8,171z"/>
		</defs>
		<use xlink:href="#SVGID_5_"  style="overflow:visible;fill:#F78C54;"/>
		<clipPath id="SVGID_6_">
			<use xlink:href="#SVGID_5_"  style="overflow:visible;"/>
		</clipPath>
		<g class="st6">
			<path class="st2" d="M154.8,171l-38.5-22.4c0-0.1,0.1-0.2,0.1-0.3l38.5,22.4C154.9,170.8,154.9,170.9,154.8,171"/>
			<path class="st2" d="M155,170.7l-38.5-22.4c0.9-1.9,1.8-3.7,2.6-5.6l38.5,22.4C156.7,167,155.9,168.8,155,170.7"/>
			<path class="st2" d="M157.5,165.1L119,142.7c0.8-1.8,1.5-3.5,2.2-5.3l38.5,22.4C159,161.6,158.3,163.3,157.5,165.1"/>
			<path class="st2" d="M159.7,159.8l-38.5-22.4c0.7-1.7,1.3-3.5,1.9-5.2l38.5,22.4C161,156.3,160.4,158.1,159.7,159.8"/>
			<path class="st2" d="M161.5,154.6L123,132.2c0.6-1.8,1.1-3.5,1.6-5.3l38.5,22.4C162.7,151.1,162.1,152.8,161.5,154.6"/>
			<path class="st2" d="M163.2,149.3L124.7,127c0-0.1,0.1-0.2,0.1-0.3c0.5-1.7,0.9-3.4,1.2-5l38.5,22.4c-0.3,1.6-0.8,3.3-1.2,5
				C163.2,149.1,163.2,149.2,163.2,149.3"/>
			<path class="st2" d="M164.5,144L126,121.6c0.4-1.9,0.7-3.8,1-5.5l38.5,22.4C165.2,140.2,164.9,142.1,164.5,144"/>
			<path class="st2" d="M165.4,138.5l-38.5-22.4c0.4-2.8,0.5-5.3,0.4-7.7l38.5,22.4C165.9,133.1,165.8,135.7,165.4,138.5"/>
		</g>
	</g>
	<g>
		<defs>
			<path id="SVGID_7_" d="M165.9,130.8l-38.5-22.4c0-7.1-2.1-11.8-6.3-14.2l38.5,22.4C163.7,118.9,165.8,123.7,165.9,130.8z"/>
		</defs>
		<use xlink:href="#SVGID_7_"  style="overflow:visible;fill:#F78C54;"/>
		<clipPath id="SVGID_8_">
			<use xlink:href="#SVGID_7_"  style="overflow:visible;"/>
		</clipPath>
		<g class="st7">
			<path class="st2" d="M165.9,130.8l-38.5-22.4c0-7.1-2.1-11.8-6.3-14.2l38.5,22.4C163.7,118.9,165.8,123.7,165.9,130.8"/>
		</g>
	</g>
	<g class="st0">
		<defs>
			<path id="SVGID_9_" class="st0" d="M152.9,46.8l38.5,22.4c-0.5-0.3-1.1-0.6-1.6-0.9c-11-5.3-27.1-1.9-48.3,10.3l-38.5-22.4
				c21.2-12.2,37.3-15.7,48.3-10.3C151.9,46.2,152.4,46.5,152.9,46.8z"/>
		</defs>
		<use xlink:href="#SVGID_9_"  style="overflow:visible;fill:#FF9961;"/>
		<clipPath id="SVGID_10_">
			<use xlink:href="#SVGID_9_"  style="overflow:visible;"/>
		</clipPath>
		<g class="st8">
			<path class="st2" d="M141.6,78.6l-38.5-22.4c5.5-3.2,10.7-5.8,15.5-7.7L157,70.9C152.2,72.9,147.1,75.4,141.6,78.6"/>
			<path class="st9" d="M157,70.9l-38.5-22.4c3.3-1.4,6.5-2.5,9.5-3.3l38.5,22.4C163.5,68.4,160.3,69.5,157,70.9"/>
			<path class="st9" d="M166.5,67.6L128,45.2c2-0.6,4-1,5.9-1.3l38.5,22.4C170.5,66.6,168.5,67,166.5,67.6"/>
			<path class="st9" d="M172.4,66.3L133.9,44c1.5-0.2,3-0.4,4.4-0.4l38.5,22.4C175.4,66,173.9,66.1,172.4,66.3"/>
			<path class="st9" d="M176.8,65.9l-38.5-22.4c1.2-0.1,2.4,0,3.6,0l38.5,22.4C179.2,65.8,178.1,65.8,176.8,65.9"/>
			<path class="st9" d="M180.4,65.9l-38.5-22.4c1,0.1,2.1,0.2,3.1,0.4l38.5,22.4C182.5,66.1,181.5,66,180.4,65.9"/>
			<path class="st9" d="M183.5,66.3L145,43.9c0.9,0.2,1.8,0.4,2.7,0.6l38.5,22.4C185.3,66.6,184.4,66.4,183.5,66.3"/>
			<path class="st9" d="M186.2,66.9l-38.5-22.4c0.9,0.2,1.7,0.5,2.5,0.9l38.5,22.4C187.9,67.4,187,67.1,186.2,66.9"/>
			<path class="st9" d="M188.7,67.8l-38.5-22.4c0.4,0.2,0.8,0.3,1.2,0.5c0.5,0.2,0.9,0.5,1.3,0.7L191.1,69c-0.4-0.2-0.9-0.5-1.3-0.7
				C189.4,68.1,189.1,67.9,188.7,67.8"/>
			<path class="st9" d="M191.1,69l-38.5-22.4c0.1,0.1,0.2,0.1,0.3,0.2l38.5,22.4C191.3,69.1,191.2,69,191.1,69"/>
		</g>
	</g>
	<g>
		<defs>
			<path id="SVGID_11_" d="M83.5,164.8L45,142.4c-4.3-2.5-4.4-8.9-0.4-19.2l38.5,22.4C79.1,155.9,79.2,162.3,83.5,164.8z"/>
		</defs>
		<use xlink:href="#SVGID_11_"  style="overflow:visible;fill:#EF8152;"/>
		<clipPath id="SVGID_12_">
			<use xlink:href="#SVGID_11_"  style="overflow:visible;"/>
		</clipPath>
		<g class="st10">
			<path class="st5" d="M83.5,164.8L45,142.4c-2.7-1.6-3.7-4.7-3.1-9.3l38.5,22.4C79.7,160.1,80.8,163.2,83.5,164.8"/>
			<path class="st5" d="M80.3,155.5l-38.5-22.4c0.1-0.7,0.2-1.4,0.4-2.2l38.5,22.4C80.5,154.1,80.4,154.8,80.3,155.5"/>
			<path class="st5" d="M80.7,153.3l-38.5-22.4c0.1-0.7,0.3-1.4,0.5-2.2l38.5,22.4C81,151.9,80.8,152.6,80.7,153.3"/>
			<path class="st5" d="M81.2,151.1l-38.5-22.4c0.2-0.8,0.4-1.5,0.7-2.3l38.5,22.4C81.7,149.6,81.4,150.4,81.2,151.1"/>
			<path class="st5" d="M81.9,148.8l-38.5-22.4c0.3-0.9,0.6-1.8,1-2.7l38.5,22.4C82.6,147,82.2,147.9,81.9,148.8"/>
			<path class="st5" d="M82.9,146.1l-38.5-22.4c0.1-0.2,0.1-0.3,0.2-0.5l38.5,22.4C83,145.8,83,145.9,82.9,146.1"/>
		</g>
	</g>
	<g class="st0">
		<defs>
			<path id="SVGID_13_" class="st0" d="M83.1,145.6l-38.5-22.4c6-14,14.2-26.9,24.6-38.7c10.4-11.8,21.7-21.2,33.9-28.3l38.5,22.4
				c-12.2,7-23.5,16.5-33.9,28.3C97.3,118.7,89.1,131.6,83.1,145.6z"/>
		</defs>
		<use xlink:href="#SVGID_13_"  style="overflow:visible;fill:#F78C54;"/>
		<clipPath id="SVGID_14_">
			<use xlink:href="#SVGID_13_"  style="overflow:visible;"/>
		</clipPath>
		<g class="st11">
			<path class="st2" d="M83.1,145.6l-38.5-22.4c0.1-0.3,0.2-0.6,0.4-0.8l38.5,22.4C83.3,145.1,83.2,145.3,83.1,145.6"/>
			<path class="st2" d="M83.5,144.8L45,122.4c0.7-1.7,1.5-3.4,2.3-5.1l38.5,22.4C85,141.3,84.2,143.1,83.5,144.8"/>
			<path class="st2" d="M85.8,139.7l-38.5-22.4c0.8-1.7,1.6-3.3,2.5-4.9l38.5,22.4C87.4,136.4,86.6,138,85.8,139.7"/>
			<path class="st2" d="M88.3,134.7l-38.5-22.4c0.9-1.6,1.8-3.2,2.7-4.8L91,129.9C90.1,131.5,89.2,133.1,88.3,134.7"/>
			<path class="st2" d="M91,129.9l-38.5-22.4c1-1.7,2-3.3,3-4.9L94,125C93,126.6,92,128.2,91,129.9"/>
			<path class="st2" d="M94,125l-38.5-22.4c1.1-1.7,2.3-3.4,3.4-5.1l38.5,22.4C96.2,121.6,95.1,123.3,94,125"/>
			<path class="st2" d="M97.4,119.9L58.9,97.5c1.3-1.9,2.7-3.8,4.1-5.6l38.5,22.4C100.1,116.1,98.8,118,97.4,119.9"/>
			<path class="st2" d="M101.6,114.3L63.1,91.9c1.7-2.2,3.5-4.4,5.4-6.6l38.5,22.4C105.1,109.9,103.3,112,101.6,114.3"/>
			<path class="st2" d="M106.9,107.7L68.4,85.3c0.2-0.3,0.5-0.5,0.7-0.8c2.4-2.7,4.9-5.4,7.4-7.9L115.1,99c-2.5,2.5-5,5.1-7.4,7.9
				C107.4,107.2,107.2,107.4,106.9,107.7"/>
			<path class="st2" d="M115.1,99L76.6,76.7c8.3-8.2,17.1-15,26.5-20.4l38.5,22.4C132.2,84,123.4,90.8,115.1,99"/>
		</g>
	</g>
	<g>
		<path class="st12" d="M141.6,78.6c21.2-12.2,37.3-15.7,48.3-10.3c11,5.3,16.5,17.9,16.6,37.5c0,10.2-1.7,21.5-5.2,34.1
			c-3.5,12.6-11.3,31.1-23.5,55.6l-48.8,98.9l63.6-36.7c8.3-4.8,13.7-6.9,16.3-6.2c2.6,0.6,3.9,2.8,3.9,6.5c0,6.9-2.2,14.4-6.7,22.5
			c-4.5,8.1-10.3,14.2-17.3,18.2l-96.2,55.5c-8.8,5.1-14.7,4.1-17.7-2.9c-2.9-7-1.2-16.8,5.1-29.2L154.8,171
			c3.7-7.6,6.5-14.9,8.4-21.9c1.9-7,2.8-13.1,2.6-18.3c0-7.1-2.1-11.8-6.3-14.2c-4.2-2.4-10-1.4-17.4,2.9c-6.4,3.7-11.5,8-15.4,12.8
			c-3.9,4.9-9.6,12.6-17.2,23c-2.4,3.3-5.1,5.8-8.2,7.6c-3.8,2.2-8.2,3.2-13,3.1c-8.8-0.2-10.6-7-5.4-20.4c6-14,14.2-26.9,24.6-38.7
			C118.1,95.1,129.4,85.7,141.6,78.6z"/>
	</g>
</g>
</svg>
