<svg width="32" height="33" viewBox="0 0 32 33" fill="none" xmlns="http://www.w3.org/2000/svg">
<g clip-path="url(#clip0_58_547)">
<circle cx="16" cy="16.9832" r="16" fill="#F5F5F5"/>
<path d="M22 24.9492H11.5C10.9033 24.9492 10.331 24.7121 9.90901 24.2902C9.48705 23.8682 9.25 23.2959 9.25 22.6992V12.1992C9.25 11.6025 9.48705 11.0302 9.90901 10.6082C10.331 10.1862 10.9033 9.94919 11.5 9.94919H22C22.1989 9.94919 22.3897 10.0282 22.5303 10.1689C22.671 10.3095 22.75 10.5003 22.75 10.6992V24.1992C22.75 24.3981 22.671 24.5889 22.5303 24.7295C22.3897 24.8702 22.1989 24.9492 22 24.9492ZM21.25 23.4492V21.9492H11.5C11.3011 21.9492 11.1103 22.0282 10.9697 22.1689C10.829 22.3095 10.75 22.5003 10.75 22.6992C10.75 22.8981 10.829 23.0889 10.9697 23.2295C11.1103 23.3702 11.3011 23.4492 11.5 23.4492H21.25ZM10.75 20.5767C10.9847 20.4942 11.2375 20.4492 11.5 20.4492H21.25V11.4492H11.5C11.3011 11.4492 11.1103 11.5282 10.9697 11.6689C10.829 11.8095 10.75 12.0003 10.75 12.1992V20.5767ZM16 15.9492C15.6022 15.9492 15.2206 15.7912 14.9393 15.5098C14.658 15.2285 14.5 14.847 14.5 14.4492C14.5 14.0514 14.658 13.6698 14.9393 13.3885C15.2206 13.1072 15.6022 12.9492 16 12.9492C16.3978 12.9492 16.7794 13.1072 17.0607 13.3885C17.342 13.6698 17.5 14.0514 17.5 14.4492C17.5 14.847 17.342 15.2285 17.0607 15.5098C16.7794 15.7912 16.3978 15.9492 16 15.9492ZM13.75 18.9492C13.75 18.3525 13.9871 17.7802 14.409 17.3582C14.831 16.9362 15.4033 16.6992 16 16.6992C16.5967 16.6992 17.169 16.9362 17.591 17.3582C18.0129 17.7802 18.25 18.3525 18.25 18.9492H13.75Z" fill="#1E293B"/>
</g>
<defs>
<clipPath id="clip0_58_547">
<rect width="32" height="32" fill="white" transform="translate(0 0.983177)"/>
</clipPath>
</defs>
</svg>
