<svg width="32" height="32" viewBox="0 0 32 32" fill="none" xmlns="http://www.w3.org/2000/svg">
<circle cx="16" cy="16" r="16" fill="#F5F5F5"/>
<path d="M10.3045 17.8923L12.856 15.3408L14.977 17.4625L17.3448 15.0948L16 13.75H19.75V17.5L18.4053 16.1552L14.977 19.5835L12.856 17.4625L10.9998 19.318C11.8423 20.5861 13.1355 21.4866 14.6172 21.8368C16.0989 22.187 17.6583 21.9608 18.9795 21.204C20.3006 20.4473 21.2847 19.2166 21.7322 17.7613C22.1797 16.306 22.0573 14.7351 21.3897 13.3667C20.7221 11.9983 19.5592 10.935 18.1368 10.3921C16.7143 9.84915 15.1387 9.8673 13.7291 10.4429C12.3196 11.0184 11.1816 12.1083 10.5457 13.4917C9.90975 14.875 9.82355 16.4484 10.3045 17.893V17.8923ZM9.15101 19.0607L9.14351 19.0532L9.14651 19.0502C8.71895 18.0903 8.49866 17.0509 8.50001 16C8.50001 11.8578 11.8578 8.5 16 8.5C20.1423 8.5 23.5 11.8578 23.5 16C23.5 20.1423 20.1423 23.5 16 23.5C12.9475 23.5 10.3225 21.6775 9.15101 19.0607Z" fill="#1E293B"/>
</svg>
