<svg width="32" height="32" viewBox="0 0 32 32" fill="none" xmlns="http://www.w3.org/2000/svg">
<circle cx="16" cy="16" r="16" fill="#F5F5F5"/>
<path d="M22.25 23.5H11.75C11.1533 23.5 10.581 23.2629 10.159 22.841C9.73705 22.419 9.5 21.8467 9.5 21.25V9.25C9.5 9.05109 9.57902 8.86032 9.71967 8.71967C9.86032 8.57902 10.0511 8.5 10.25 8.5H20.75C20.9489 8.5 21.1397 8.57902 21.2803 8.71967C21.421 8.86032 21.5 9.05109 21.5 9.25V18.25H24.5V21.25C24.5 21.8467 24.2629 22.419 23.841 22.841C23.419 23.2629 22.8467 23.5 22.25 23.5ZM21.5 19.75V21.25C21.5 21.4489 21.579 21.6397 21.7197 21.7803C21.8603 21.921 22.0511 22 22.25 22C22.4489 22 22.6397 21.921 22.7803 21.7803C22.921 21.6397 23 21.4489 23 21.25V19.75H21.5ZM20 22V10H11V21.25C11 21.4489 11.079 21.6397 11.2197 21.7803C11.3603 21.921 11.5511 22 11.75 22H20ZM12.5 12.25H18.5V13.75H12.5V12.25ZM12.5 15.25H18.5V16.75H12.5V15.25ZM12.5 18.25H16.25V19.75H12.5V18.25Z" fill="#1E293B"/>
</svg>
