<?xml version="1.0" encoding="utf-8"?>
<!-- Generator: Adobe Illustrator 24.0.1, SVG Export Plug-In . SVG Version: 6.00 Build 0)  -->
<svg version="1.1" id="레이어_1" xmlns="http://www.w3.org/2000/svg" xmlns:xlink="http://www.w3.org/1999/xlink" x="0px"
	 y="0px" viewBox="0 0 86 137" style="enable-background:new 0 0 86 137;" xml:space="preserve">
<style type="text/css">
	.st0{fill:#CBD8D8;}
	.st1{fill:#FFFFFF;}
	.st2{fill:#808285;}
	.st3{fill:#F0B185;}
	.st4{fill:#5C4733;}
	.st5{fill:#1A1A1A;}
	.st6{fill:#333333;}
	.st7{fill:#56A5C1;}
	.st8{fill:#F4C867;}
	.st9{fill:#F9C295;}
	.st10{fill:#FCD472;}
	.st11{fill:#FCE47E;}
</style>
<path class="st0" d="M53.6,113.8c0,3.8-6,6.9-13.4,6.9c-7.4,0-13.4-3.1-13.4-6.9c0-3.8,6-6.9,13.4-6.9
	C47.6,106.8,53.6,109.9,53.6,113.8z"/>
<g>
	<polygon class="st1" points="67.5,26.6 67.5,30.2 68,29.9 70.1,31.2 70.1,32.4 67.6,33.6 67.5,33.6 67.5,34.9 70.9,37.1 70.9,28.8 
			"/>
	<path class="st2" d="M70.1,32.4v-1.2l-2-1.3l-0.5,0.3l-1.7,1.1l0.1,0l-0.1,0l0,0.5c0,0,0,0,0,0l0.3-0.4c0.3-0.4,0.9-0.5,1-0.1
		c0,0,0.5-0.1,0.5,0.4c0,0,0.4,0,0.4,0.4c0,0,0.5,0.1-0.1,0.7l-0.5,0.7l0.1,0.1l0,0L70.1,32.4z"/>
	<path class="st3" d="M41.4,32.7l0.4-3.6c0.6,0.2,1.4,0,1.8-0.5c0.6-0.8,1.3-2.3,0.9-5.1c0-0.2-0.1-0.6-0.2-0.9
		c-0.2,0.1-0.3,0.2-0.3,0.2l0,0c-0.2,0.1-0.4,0.3-0.6,0.4c-0.2,0.1-0.4,0.2-0.6,0.3c0,0.1,0,0.2-0.1,0.3c0,0.1-0.2,0.5-0.3,0.3
		c0,0,0-0.1,0-0.1c0,0,0,0,0,0c0,0,0,0,0,0c0-0.1-0.1-0.1-0.1-0.2c-0.4,0.2-0.8,0.4-1.1,0.5c0,0.6,0.2,1.4,0.3,1.8
		c-0.4,1-1,1.9-1.7,2.2c-0.4,0.2-1.8-0.3-2.7-0.6l-0.3,3.6c0.2,0.1,0.4,0.2,0.6,0.3C38,31.9,39.2,32.2,41.4,32.7z"/>
	<path class="st4" d="M39.6,28.4c0.7-0.3,1.3-1.3,1.7-2.2C41.2,25.8,41,25,41,24.4c-1.9,0.7-3.3,0.7-4.8,0.3
		c-0.8-0.2-1.4-0.5-1.8-0.9c0.1,0.3,0.2,0.6,0.3,0.9c0.5,1.3,0.9,1.9,1.6,2.8c0.1,0.1,0.3,0.2,0.5,0.3
		C37.8,28.1,39.3,28.6,39.6,28.4z"/>
	<path class="st4" d="M42.3,24.1C42.3,24.1,42.3,24.1,42.3,24.1C42.3,24.1,42.3,24.1,42.3,24.1c0,0.1,0.1,0.1,0.1,0.2
		c0.1,0.2,0.3-0.2,0.3-0.3c0-0.1,0.1-0.2,0.1-0.3c-0.2,0.1-0.4,0.2-0.6,0.3C42.2,24,42.3,24.1,42.3,24.1z"/>
	<path class="st5" d="M50.5,114c-1.1,1-3.2,1.2-4.6,1.6c-1.2,0.4-2.9,0.8-3-0.7c0-0.2,0-0.3,0-0.5c0,0.4,0,0.7,0,1.1
		c0.1,1.5,1.8,1,3,0.7c1.4-0.4,3.8-0.7,4.9-1.8c0.9-0.9,1.8-2.3,0.7-2.9C52,112.1,51.3,113.2,50.5,114z"/>
	<path class="st6" d="M46.9,113c0,0-1.3,2.3-4.1,1.1c0,0.1,0,0.2,0,0.4c0,0.2,0,0.3,0,0.5c0.1,1.5,1.8,1,3,0.7
		c1.4-0.4,3.6-0.6,4.6-1.6c0.8-0.8,1.6-1.9,1-2.5c-0.2-0.2-0.4-0.3-0.8-0.4c-0.8-0.2-2.5,0-3.8,0.2L46.9,113z"/>
	<path class="st5" d="M37.3,113.8c-1.1,1-3.8,1.7-5.1,2.2c-1.2,0.4-2.8,0.8-3-0.7c0,0.1,0,0.3,0,0.4c0,1.7,1.8,1.3,3,0.9
		c1.4-0.5,4.1-1.2,5.2-2.2c1.3-1.2,0.9-2.2-0.3-2.5C37.8,112.2,38.2,112.9,37.3,113.8z"/>
	<path class="st6" d="M33.6,113.4c0,0-1.4,2.6-4.3,0.8c0,0.3,0,0.7,0,1c0,0,0,0.1,0,0.1c0.1,1.6,1.8,1.2,3,0.7
		c1.4-0.5,4.1-1.2,5.1-2.2c0.9-0.9,0.5-1.6-0.2-2c-0.5-0.2-1.2-0.3-1.8-0.2c-0.5,0.1-1,0.2-1.5,0.2C33.7,112.5,33.6,113,33.6,113.4z
		"/>
	<path class="st7" d="M40.5,75c-0.8,0.3-1.7,0.4-2.6,0.4c-3.5,0-6.3-1.7-8-2.3c-0.4-0.1-0.8-0.4-1-0.6C29,80.1,29.5,93,29.6,94
		c0.1,1.2-0.6,20.1-0.6,20.1c0.1,0,0.1,0.1,0.2,0.1c3,1.8,4.3-0.8,4.3-0.8c0.1-0.3,0.1-0.9,0.2-1.6c0.4-4.3,0.9-14.5,1.1-17.9
		c0.3-5.6,0.8-12,1.2-16.6c0.2,0,0.4,0.1,0.6,0.1c0.7,0.1,1.3,0.2,1.9,0.2l2.7,17.1l0.6,18.8c0.3,0.2,0.6,0.4,0.9,0.5
		c2.8,1.2,4.1-1.1,4.1-1.1l0-1.6l-0.3-17l-0.4-22.4C43.6,74.4,41.2,74.8,40.5,75z"/>
	<path class="st8" d="M41.5,74.4c1.1-0.2,2.8-0.9,4.8-3.4l-0.4-11l2.7-14.7c0.1-0.5,0.3-2,0.4-3.7c-2.1-0.6-4.1-1.4-5.2-2.3
		C43.2,46.1,41.5,74.4,41.5,74.4z"/>
	<path class="st9" d="M68,32.8c0.6-0.6,0.1-0.7,0.1-0.7c0.1-0.4-0.4-0.4-0.4-0.4c0-0.5-0.5-0.4-0.5-0.4c-0.1-0.4-0.7-0.3-1,0.1
		l-0.3,0.4c0,0,0,0,0,0c-0.7-0.2-0.9,0.9-1.1,1.2c-0.1,0.1-0.2,0.4-0.3,0.6l1.5,1.6c0.3-0.2,0.5-0.4,0.5-0.4l1-1.4L68,32.8z"/>
	<path class="st10" d="M64.4,33.6l-10.1,6c0,0-3.4-2.1-6.3-3.8c-0.5-0.6-1.1-1-2-1.3L45,34c-0.3-0.2-0.6-0.3-0.8-0.4
		c0,0-0.7-0.4-1.5-0.6l-0.1,0c0,0-0.1,0-0.1,0c-0.1,0-0.3-0.1-0.4-0.1c-0.3-0.1-0.6-0.1-0.8-0.2c-2.1-0.5-3.4-0.8-4.2-1.1
		c-0.2-0.1-0.4-0.2-0.6-0.3c-1.4-0.5-3.5-0.7-4.5-0.3c-1.7,0.8-2.2,4-2.2,4l-1.8,25.1L27.4,70c0.1,0.3,0.4,1.3,0.6,1.6
		c0.2,0.3,0.5,0.6,0.8,0.8c0.3,0.2,0.6,0.5,1,0.6c1.7,0.6,4.5,2.3,8,2.3c0.9,0,1.8-0.1,2.6-0.4c0.7-0.2,3.1-0.6,5.7-3.1
		c0.2-0.2,0.4-0.4,0.5-0.6L46.5,60l2.3-15.2c0.1-0.8,0.3-2,0.4-3.3c3.5,1.1,7.2,1.7,7.2,1.7c1.3-0.5,9.7-7.9,9.7-7.9L66,35.3
		l-1.5-1.6L64.4,33.6z M48.6,45.2L45.9,60l0.4,11c-1.9,2.6-3.7,3.2-4.8,3.4c0,0,1.7-28.3,2.3-35.1c1.2,0.9,3.1,1.6,5.2,2.3
		C48.9,43.2,48.7,44.8,48.6,45.2z"/>
	<path class="st10" d="M36.3,24.7c1.4,0.4,2.9,0.4,4.8-0.3c0.4-0.1,0.7-0.3,1.1-0.5c0.2-0.1,0.4-0.2,0.6-0.3
		c0.2-0.1,0.4-0.2,0.6-0.3c0.2-0.2,0.4-0.3,0.6-0.4l0,0c0,0,0.1-0.1,0.3-0.2c0.2-0.2,0.5-0.5,0.8-0.9c0.6-0.9-0.4-1.6-0.5-1.6
		c-0.5-1.1-1.8-3.6-4.5-3.8c-0.1,0-0.3,0-0.4,0l0,0l0,0c-0.1,0-1.1,0.5-2,1.4c-0.4,0.5-0.8,1-1.1,1.7c-0.2,0.7-0.3,1.5-0.2,2.5
		c0,0.2-0.1,0.4-0.3,0.5c-0.2,0-0.4-0.1-0.5-0.3c-0.2-1.2-0.1-2.2,0.2-3c0.4-1.2,1.2-2,1.9-2.6c-2,0.6-3.1,2.3-3.7,4.4l-0.1,0.4
		l-0.1,0.1c-0.1,0.4-0.2,1.4,0.7,2.3C34.9,24.2,35.5,24.5,36.3,24.7z"/>
	<path class="st11" d="M35.8,19.2c-0.3,0.8-0.4,1.8-0.2,3c0,0.2,0.2,0.4,0.5,0.3c0.2,0,0.4-0.2,0.3-0.5c-0.2-1-0.1-1.8,0.2-2.5
		c0.2-0.7,0.7-1.3,1.1-1.7c0.9-0.9,1.9-1.4,2-1.4l0,0l0,0l0.1-0.1c-0.3-0.1-0.9-0.2-1.8,0.1l0,0c-0.1,0-0.1,0.1-0.2,0.1
		C37,17.2,36.2,18,35.8,19.2z"/>
</g>
</svg>
