<svg width="87" height="87" viewBox="0 0 87 87" fill="none" xmlns="http://www.w3.org/2000/svg">
<g clip-path="url(#clip0)">
<circle cx="43.0357" cy="42.774" r="31.7525" fill="white"/>
<path d="M61.6681 51.3543C63.9774 49.911 65.3157 47.8379 65.3419 45.6861C65.3682 43.6917 64.3185 41.881 62.3504 40.5427C62.0355 40.3328 61.7206 40.1228 61.3794 39.9391C61.222 39.8342 61.0383 39.7554 60.8808 39.6767C60.2248 39.3356 59.5163 39.0469 58.8077 38.8107C58.7815 38.8107 58.7552 38.7845 58.7028 38.7845C55.8424 37.7873 52.5097 37.4462 49.3607 37.4199C49.7806 37.7611 50.1217 38.0497 50.3054 38.2334L51.4338 39.2831C53.3232 39.4143 55.1076 39.703 56.7346 40.1753C57.102 40.2803 57.4432 40.3852 57.7843 40.5164C58.4141 40.7526 59.0177 40.9888 59.5687 41.2775C59.6475 41.3299 59.7524 41.3824 59.8312 41.4349C60.0936 41.5661 60.3298 41.7236 60.5659 41.881C61.7468 42.6683 62.3766 43.6655 62.3766 44.6626C62.3504 45.8435 61.4319 47.0506 59.9361 48.0216C56.6034 50.1997 51.6437 49.5961 50.1742 49.4124C50.1742 49.4124 49.938 49.3599 49.8593 49.4911C49.7543 49.6223 49.8331 49.7273 49.8593 49.806C50.8565 52.2465 51.3026 55.8154 50.2792 57.7573C49.5182 59.1743 48.2061 60.0928 46.7103 60.4339C45.2145 60.7488 43.6925 60.4339 42.3804 59.5155C39.2839 57.3637 37.7094 53.7423 36.9221 50.1734C36.2661 50.5146 35.5838 50.8557 34.9277 51.1706C35.2951 53.3224 36.1611 55.6317 36.9221 57.1275C37.9718 59.2531 39.4676 61.195 41.4882 62.6382C43.4301 64.0028 45.7131 64.5014 47.9436 64.0028C50.1742 63.5042 52.0636 62.0872 53.2445 60.0141C54.1105 58.5183 54.5303 56.7863 54.4778 55.0544C54.4516 54.5033 54.3991 53.9522 54.2941 53.4274C56.9446 53.3487 59.6212 52.6664 61.6681 51.3543Z" fill="#F6AB00"/>
<path d="M40.2568 39.8612C41.9888 39.5987 45.2165 39.2051 48.313 39.1526C48.3918 39.0477 48.4705 38.9689 48.5492 38.864C48.0244 38.4179 47.447 37.9718 46.8435 37.5781C44.2193 37.6044 41.0703 38.0767 40.0469 38.2342C40.0469 38.3129 40.0731 38.4179 40.0731 38.4966C40.1256 38.9689 40.1781 39.415 40.2568 39.8612Z" fill="#F6AB00"/>
<path d="M36.2144 44.1905C36.162 42.6947 36.2144 41.4351 36.2669 40.5953C36.6081 40.5166 37.2641 40.3854 37.7102 40.3067C37.6315 39.7818 37.5528 39.2308 37.4741 38.6797C36.6343 38.8634 35.952 38.9946 35.5322 39.0996L34.5612 39.3357L34.4563 40.3329C34.3775 41.1464 34.2201 42.9833 34.2988 45.3189C34.325 46.1848 34.3775 47.1295 34.4825 48.1005C35.1123 47.8381 35.7421 47.5494 36.3457 47.2345C36.2669 46.2636 36.2144 44.8727 36.2144 44.1905Z" fill="#F6AB00"/>
<path d="M61.1971 55.3688C59.5439 54.529 57.7857 54.8177 57.2346 56.0248C56.6836 57.2319 57.602 58.8852 59.229 59.7249C60.8822 60.5647 62.6404 60.276 63.1915 59.0689C63.7426 57.8617 62.8504 56.2085 61.1971 55.3688Z" fill="#F6AB00"/>
<path d="M21.4947 43.0875C21.416 42.0641 19.7365 41.3555 17.7422 41.4605C15.7478 41.5917 14.1995 42.5102 14.2783 43.5073C14.357 44.5045 16.0365 45.2393 18.0308 45.1081C20.0252 45.0031 21.5735 44.0847 21.4947 43.0875Z" fill="#E62E8B"/>
<path d="M51.4378 39.2832L50.3094 38.2336C50.0994 38.0499 49.7845 37.7612 49.3647 37.4201C49.2072 37.2889 48.9973 37.1314 48.8136 36.974C47.0292 35.6094 43.9589 33.6675 39.9964 32.6178C39.9701 32.9852 39.9439 33.3789 39.9176 33.7462C39.9176 33.9562 39.9176 34.1924 39.8914 34.4023C42.0432 34.9271 44.6412 36.0555 46.8455 37.5513C47.449 37.9712 48.0263 38.391 48.5512 38.8371C48.4725 38.9159 48.3937 39.0208 48.315 39.1258C48.2888 39.152 48.2625 39.2045 48.2363 39.2308C46.7405 40.9365 44.2738 42.8259 41.2297 44.6366C40.495 45.0564 39.7602 45.4763 38.9992 45.8962C38.1332 46.3685 37.2672 46.8146 36.375 47.2345C35.7452 47.5232 35.1154 47.8118 34.5118 48.1005C29.1848 50.4098 24.3825 51.4594 23.7265 49.4651C23.2016 47.3657 26.5868 44.4266 32.36 42.0649C32.36 42.0649 32.5962 41.9862 32.5962 41.8025C32.5699 41.6188 32.3075 41.6188 32.3075 41.6188C32.3075 41.6188 30.6543 41.4613 28.9486 41.0152C27.1904 40.5429 26.0882 39.7556 25.9308 38.7322C25.6946 37.1314 27.9252 34.9009 31.8877 34.2448C33.7508 33.9299 35.5353 33.9037 37.1885 34.0611C37.1885 33.4051 37.1885 32.7491 37.241 32.093C35.1679 31.8044 32.9111 31.8044 30.4968 32.2242C25.6159 33.0902 22.0732 36.1342 22.0732 39.362C22.0732 39.5719 22.0995 39.8081 22.1257 40.018C22.3357 41.4351 23.2279 42.6422 24.5925 43.4819C22.5981 44.8203 20.9973 46.3685 20.0789 47.8905C19.4228 48.9665 19.2129 49.8849 19.2129 50.6197C19.2129 51.5119 19.5278 52.1417 19.7902 52.5353C21.6534 55.3432 27.8727 54.4772 34.9579 51.1445C35.614 50.8296 36.27 50.5147 36.9523 50.1473C37.897 49.6487 38.868 49.0977 39.8127 48.5203C40.495 48.1005 41.2035 47.6544 41.8858 47.2083C45.2185 44.9777 48.5249 42.3011 51.4378 39.2832Z" fill="#E62E8B"/>
<path d="M61.6437 32.1978C60.8827 30.4133 59.3869 29.1275 57.4713 28.5502C55.6081 27.9991 53.5088 28.1828 51.5406 29.0488C51.1995 26.687 50.3073 24.5089 48.9689 22.9607C47.4732 21.255 45.61 20.4677 43.7468 20.7301C41.7525 20.9925 39.9943 22.4621 38.9184 24.7451C37.8687 26.9757 37.3438 29.4949 37.2126 32.0403C37.1864 32.6964 37.1602 33.3524 37.1602 34.0085C37.1602 34.2971 37.1602 34.5858 37.1602 34.8744C37.1864 35.8454 37.2651 36.8426 37.3701 37.7873C37.3963 38.0759 37.4488 38.3646 37.4751 38.6532C37.5538 39.2043 37.6325 39.7292 37.7112 40.2802C37.7375 40.3852 37.7375 40.4902 37.7637 40.5689C38.0524 42.3009 38.6035 44.4789 38.9971 45.896C39.7581 45.5023 40.4929 45.0825 41.2276 44.6364C40.9652 43.5867 40.7028 42.4321 40.4929 41.2249C40.4141 40.7788 40.3354 40.3065 40.2829 39.8604C40.2304 39.4143 40.1517 38.9419 40.0992 38.4958C40.0992 38.4171 40.073 38.3121 40.073 38.2334C40.0205 37.7085 39.968 37.1837 39.9418 36.6589C39.9155 36.0553 39.8893 35.478 39.8893 34.8744C39.8893 34.717 39.8893 34.5858 39.8893 34.4283C39.8893 34.2184 39.8893 33.9822 39.9155 33.7723C39.9418 33.4049 39.968 33.0113 39.9943 32.6439C40.178 30.702 40.5978 28.8913 41.3851 27.2643C42.0411 25.8998 43.0383 25.0338 44.0617 24.9026C44.9802 24.7714 45.9511 25.2175 46.7909 26.1622C48.103 27.6317 48.8902 30.8332 48.759 34.8482C48.759 35.2418 48.9689 35.2418 49.2051 35.0581C49.4675 34.8482 50.0711 34.3234 51.042 33.6673C52.8527 32.434 54.9258 31.9091 56.6315 32.4077C57.7599 32.7489 58.5734 33.4574 59.0195 34.4546C59.2557 34.9794 59.3607 35.5567 59.3607 36.1603C59.3607 37 59.1245 37.9185 58.7046 38.7845C58.7309 38.7845 58.7834 38.8107 58.8096 38.8107C59.5181 39.0731 60.2267 39.3618 60.8827 39.6767C61.0139 39.4405 61.1451 39.2043 61.2763 38.9681C62.4047 36.7114 62.5359 34.2446 61.6437 32.1978Z" fill="#6FBA2C"/>
<path d="M57.787 40.5176C56.055 42.7481 53.1685 44.7163 51.4627 45.6085C48.0251 47.4454 44.4037 48.3639 42.4093 48.7575C42.2781 48.4426 42.0419 47.7865 41.8583 47.2355C41.176 47.6816 40.4674 48.1277 39.7852 48.5476C39.9688 49.0986 40.1263 49.571 40.2575 49.8859L40.6511 50.9618L41.8058 50.7781C43.1966 50.5682 47.7102 49.676 52.2237 47.4192C54.6905 46.1858 57.787 44.0602 59.8601 41.4623C59.7814 41.4098 59.6764 41.3573 59.5977 41.3048C59.0204 40.9899 58.4168 40.7275 57.787 40.5176Z" fill="#6FBA2C"/>
<path d="M53.1425 26.2675C54.3234 26.53 55.8454 25.454 56.5277 23.8533C57.21 22.2525 56.8164 20.7305 55.6355 20.4681C54.4546 20.2057 52.9326 21.2816 52.2503 22.8823C51.5418 24.5093 51.9354 26.0051 53.1425 26.2675Z" fill="#6FBA2C"/>
<path d="M86.1003 43.0365C86.1003 66.8115 66.8389 86.073 43.0639 86.073C19.2888 86.073 0.0273705 66.8115 0.0273705 43.0365C0.00112877 19.2615 19.2626 0 43.0376 0C66.8126 0 86.1003 19.2615 86.1003 43.0365ZM43.0376 12.0187C25.9017 12.0187 12.0199 25.9006 12.0199 43.0365C12.0199 60.1724 25.9017 74.0542 43.0376 74.0542C60.1735 74.0542 74.0554 60.1724 74.0554 43.0365C74.0816 25.9006 60.1735 12.0187 43.0376 12.0187Z" fill="#C09B30"/>
<path d="M3.70047 48.0475C3.56926 48.0475 3.51677 48.0475 3.49053 47.9426C3.41181 47.7851 3.33308 47.1291 3.30684 46.7879C3.2806 46.3418 3.2806 45.7645 3.49053 45.3446C3.70047 44.951 4.06785 44.7411 4.43524 44.7148C5.06504 44.6623 5.48491 45.1085 5.69484 45.4496C5.72108 45.5021 5.74732 45.5546 5.77357 45.607C5.77357 45.5546 5.77357 45.5021 5.79981 45.4234C5.93102 44.6099 6.45585 44.19 7.1119 44.1113C8.58143 43.9801 8.73888 45.7907 8.76513 46.3418C8.81761 46.8667 8.79137 47.339 8.76513 47.4702C8.73888 47.5752 8.71264 47.6014 8.52895 47.6014L3.70047 48.0475ZM5.74732 47.1291C5.74732 46.8929 5.72108 46.7092 5.69484 46.4993C5.53739 45.5283 4.88135 45.4496 4.61893 45.4758C3.64798 45.5546 3.72671 46.5255 3.72671 46.7617C3.75295 46.9716 3.77919 47.1553 3.80543 47.3128L5.74732 47.1291ZM8.31902 46.9191C8.31902 46.7617 8.31902 46.5518 8.29277 46.2893C8.21405 45.4758 7.87291 44.8723 7.13814 44.9248C6.74451 44.951 6.50833 45.1347 6.40337 45.2659C6.03598 45.6595 6.06223 46.1844 6.08847 46.6042C6.11471 46.8142 6.11471 46.9191 6.14095 47.1028L8.31902 46.9191Z" fill="white"/>
<path d="M6.45548 42.2233C7.53139 42.2233 8.05622 41.6985 8.08247 41.1211C8.10871 40.6488 7.87253 40.3076 7.45266 40.019C7.26897 39.914 7.24273 39.8878 7.24273 39.7828C7.24273 39.7303 7.26897 39.6254 7.42642 39.6516C7.63636 39.6516 8.73851 40.0452 8.68603 41.2523C8.65978 41.7247 8.44985 42.3283 7.71508 42.6432C7.32145 42.8269 6.87534 42.8531 6.5342 42.8269C5.98312 42.8006 5.5895 42.6694 5.32708 42.512C5.16963 42.4332 4.51359 41.9871 4.53983 41.0424C4.59231 39.8353 5.66822 39.6254 5.98312 39.6516C6.19306 39.6516 6.19306 39.7828 6.2193 39.8878L6.45548 42.2233ZM5.87816 40.3601C5.37956 40.3864 5.01218 40.7013 4.98594 41.1474C4.9597 41.7772 5.40581 42.0921 6.08809 42.2233L5.87816 40.3601Z" fill="white"/>
<path d="M6.87635 36.6596C7.13876 36.2922 7.47991 35.8199 8.18843 35.9249C8.50334 35.9773 8.79199 36.161 8.97569 36.4235C9.21186 36.7908 9.15938 37.2107 9.1069 37.3944C8.94945 38.4178 8.26716 38.6015 8.03098 38.549C7.82105 38.5228 7.74232 38.3391 7.76857 38.1817C7.79481 38.0242 7.95226 37.9455 8.00474 37.9192C8.05723 37.893 8.10971 37.893 8.18843 37.8405C8.37213 37.7618 8.6083 37.6306 8.66079 37.2632C8.73951 36.8696 8.45085 36.6334 8.18843 36.5809C7.71608 36.5022 7.47991 36.8696 7.26997 37.1845C6.87635 37.7618 6.5352 38.2341 5.85292 38.1292C5.32808 38.0504 4.85573 37.5781 5.01318 36.7646C5.14439 35.8986 5.72171 35.6624 5.98413 35.7149C6.16782 35.7412 6.24654 35.8986 6.2203 36.0298C6.19406 36.2135 6.03661 36.266 5.9054 36.3185C5.74795 36.371 5.45929 36.4759 5.40681 36.8433C5.32808 37.2632 5.64298 37.4731 5.85292 37.4994C6.27279 37.5781 6.50896 37.2369 6.66641 36.9745L6.87635 36.6596Z" fill="white"/>
<path d="M6.22064 33.1955L8.63488 33.8253C8.94978 33.9041 9.02851 33.9303 9.18596 33.8778C9.36965 33.8253 9.50086 33.7204 9.55334 33.5104C9.55334 33.4842 9.57959 33.353 9.60583 33.3267C9.63207 33.1955 9.73704 33.1955 9.78952 33.2218C9.97321 33.2743 9.92073 33.6941 9.89449 33.8516C9.78952 34.219 9.57959 34.4289 9.34341 34.5339C9.08099 34.6388 8.81858 34.5863 8.5824 34.5339L6.03695 33.8778L5.93198 34.2714C5.90574 34.3764 5.90574 34.3764 5.80077 34.3502C5.61708 34.2977 5.59084 34.2977 5.61708 34.1927L5.72205 33.7991L5.27594 33.6941C5.14473 33.6679 5.11849 33.6154 5.03976 33.5104L4.82983 33.0906C4.77734 33.0118 4.77734 32.9594 4.77734 32.9331C4.80359 32.8544 4.88231 32.8806 4.98728 32.9069L5.90574 33.143L6.06319 32.487C6.08943 32.4083 6.08943 32.382 6.1944 32.4083C6.40433 32.4608 6.40433 32.4608 6.37809 32.5657L6.22064 33.1955Z" fill="white"/>
<path d="M9.02861 28.2633L11.2592 29.2605C11.3904 29.3129 11.3641 29.3654 11.3379 29.4704L11.1542 29.864C11.1017 29.969 11.0755 30.0215 10.9705 29.9427L6.32571 27.8434C6.1945 27.7909 6.1945 27.7384 6.22074 27.6335L7.29666 25.2192C7.34914 25.1143 7.37538 25.088 7.45411 25.1405C7.55907 25.193 7.69028 25.2455 7.71652 25.2717C7.76901 25.298 7.82149 25.3242 7.74277 25.4292L6.90303 27.2923L8.5825 28.0533L9.29103 26.5051C9.34351 26.4001 9.36975 26.3739 9.47472 26.4263C9.55345 26.4526 9.7109 26.5313 9.7109 26.5313C9.78962 26.5576 9.76338 26.61 9.73714 26.6888L9.02861 28.2633Z" fill="white"/>
<path d="M13.304 24.0103C13.5927 24.1939 13.7501 24.3252 13.7239 24.6401C13.6976 24.9812 13.514 25.4011 13.3565 25.6635C13.2515 25.8472 12.6742 26.8181 11.782 26.2933C11.021 25.8472 11.2309 24.9812 11.5458 23.7478L11.2047 23.5379C10.9423 23.3804 10.4962 23.118 10.2075 23.6166C9.97132 24.0103 10.2075 24.2989 10.3125 24.4301C10.4174 24.5613 10.5486 24.6925 10.4174 24.9025C10.3649 25.0074 10.2075 25.1386 9.97132 25.0074C9.57769 24.7713 9.47272 24.0365 9.89259 23.3542C10.4699 22.3833 11.1784 22.8031 11.5196 22.9868L13.304 24.0103ZM11.887 23.9315C11.7033 24.7975 11.5721 25.3486 12.0707 25.6635C12.1231 25.6897 12.7005 26.0309 13.0941 25.3486C13.409 24.8237 13.0941 24.6401 12.9104 24.5351L11.887 23.9315Z" fill="white"/>
<path d="M12.2027 21.2035C11.9928 21.046 11.9141 20.9411 11.9141 20.7311C11.9403 20.4162 12.1765 19.9439 12.4389 19.6027C12.9375 18.9992 13.3311 18.9992 13.5148 18.9992C13.4886 18.763 13.4361 18.3694 13.9347 17.7658C14.7219 16.7949 15.3517 17.3197 15.6666 17.5821L17.7397 19.2878C17.8185 19.3666 17.8185 19.3928 17.766 19.4978L17.5036 19.8127C17.4511 19.8914 17.3986 19.9176 17.2936 19.8389L15.3517 18.2644C15.0368 18.002 14.5645 17.6609 14.1184 18.2119C13.9609 18.4219 13.9084 18.6056 13.9084 18.7368C13.9347 19.0254 14.0659 19.1566 14.2496 19.2878L16.3227 20.9936C16.4014 21.0723 16.4276 21.0985 16.3489 21.1772L16.0865 21.4922C16.0078 21.5709 15.9815 21.5971 15.8766 21.5184L13.8822 19.8914C13.6723 19.7077 13.1474 19.3141 12.6751 19.8652C12.2027 20.4425 12.6488 20.8099 12.8325 20.9673L14.9056 22.673C15.0106 22.7518 15.0106 22.778 14.9319 22.883L14.6957 23.1979C14.6432 23.2766 14.5907 23.3028 14.4858 23.2241L12.2027 21.2035Z" fill="white"/>
<path d="M15.954 14.7999C15.7703 14.9836 15.5342 14.9573 15.3767 14.7999C15.2193 14.6162 15.2193 14.38 15.403 14.2226C15.5604 14.0651 15.7966 14.0651 15.954 14.2226C16.1115 14.38 16.164 14.6162 15.954 14.7999ZM19.3392 17.8177C19.4179 17.9227 19.4179 17.9489 19.313 18.0276L19.0243 18.3163C18.9456 18.395 18.9194 18.3688 18.8406 18.2901L16.2952 15.6396C16.2165 15.5609 16.1902 15.5347 16.2952 15.4559L16.5838 15.1935C16.6626 15.1148 16.715 15.1148 16.7938 15.1935L19.3392 17.8177Z" fill="white"/>
<path d="M16.796 12.5697C16.7173 12.491 16.7698 12.4385 16.8222 12.386L17.1109 12.1499C17.1896 12.0711 17.2159 12.0711 17.2946 12.1499L20.916 16.4273C20.9947 16.5322 20.9684 16.5585 20.8897 16.6372L20.6011 16.8996C20.4961 16.9783 20.4961 16.9783 20.3911 16.8996L16.796 12.5697Z" fill="white"/>
<path d="M23.6437 15.2194C23.8012 15.823 23.9324 16.584 23.2763 17.0563C23.1976 17.1088 22.8302 17.3712 22.6203 17.0826C22.5153 16.9514 22.5416 16.7414 22.699 16.6102C22.7515 16.584 23.0139 16.479 23.0664 16.4265C23.3288 16.2428 23.3813 15.9017 23.0664 14.957L19.6812 12.7527C19.6025 12.7002 19.5762 12.7002 19.5762 12.674C19.5238 12.5952 19.6025 12.5428 19.6287 12.5165L19.9961 12.2541C20.1011 12.1754 20.1011 12.2016 20.2323 12.2541L22.804 14.0385L21.9118 11.047C21.8855 10.942 21.8855 10.9158 21.938 10.8633L22.2529 10.6533C22.3054 10.6271 22.3579 10.6009 22.3841 10.6533C22.4104 10.6796 22.4104 10.6796 22.4366 10.7846L23.6437 15.2194Z" fill="white"/>
<path d="M27.2662 9.49919L28.2896 11.7297C28.3421 11.861 28.3158 11.8872 28.2109 11.9134L27.8173 12.0971C27.7123 12.1496 27.6598 12.1759 27.6073 12.0446L25.4817 7.39985C25.4293 7.26864 25.4293 7.2424 25.5342 7.18992L27.9485 6.08777C28.0534 6.06152 28.0797 6.03528 28.1322 6.11401C28.1846 6.21897 28.2371 6.35018 28.2371 6.37642C28.2634 6.42891 28.2634 6.48139 28.1584 6.53388L26.3215 7.37361L27.0825 9.05308L28.6308 8.34456C28.7357 8.29207 28.762 8.29207 28.8144 8.39704C28.8407 8.47577 28.9194 8.63322 28.9194 8.63322C28.9457 8.71194 28.9194 8.73818 28.8407 8.76443L27.2662 9.49919Z" fill="white"/>
<path d="M31.7792 10.3121C31.8055 10.4433 31.7792 10.4433 31.7005 10.4695L31.3331 10.6007C31.2281 10.627 31.1757 10.6532 31.1494 10.522L30.126 7.47794C30.0473 7.21553 30.0473 7.1368 30.1785 6.97935C30.3622 6.76942 30.782 6.507 31.2544 6.32331C31.6218 6.1921 32.0154 6.13961 32.1466 6.48076C32.1991 6.63821 32.1466 6.8219 31.9629 6.90063C31.8317 6.95311 31.753 6.90063 31.5955 6.79566C31.4643 6.74317 31.3331 6.69069 31.1232 6.74318C30.7033 6.90063 30.8083 7.21553 30.8608 7.39922L31.7792 10.3121Z" fill="white"/>
<path d="M33.2757 5.14242C33.0133 5.19491 32.8296 5.0637 32.7771 4.85376C32.7246 4.61759 32.8558 4.40765 33.092 4.35517C33.3019 4.30269 33.5119 4.40765 33.5906 4.61759C33.6168 4.85376 33.5119 5.08994 33.2757 5.14242ZM34.719 9.44607C34.7452 9.57728 34.719 9.57728 34.614 9.62976L34.2204 9.73473C34.1154 9.76097 34.0892 9.73473 34.063 9.62976L33.1445 6.03464C33.1183 5.92968 33.1183 5.90343 33.2232 5.85095L33.6168 5.74598C33.7481 5.71974 33.7743 5.71974 33.8005 5.85095L34.719 9.44607Z" fill="white"/>
<path d="M36.1867 7.08452C36.4229 8.13419 37.0264 8.52782 37.6038 8.44909C38.0499 8.37037 38.3648 8.05547 38.5485 7.60936C38.6272 7.39942 38.6534 7.37318 38.7321 7.34694C38.7846 7.34694 38.8896 7.34694 38.9158 7.50439C38.9421 7.68808 38.7846 8.86896 37.6038 9.07889C37.1576 9.15762 36.5016 9.07889 36.0555 8.42285C35.7931 8.08171 35.6881 7.66184 35.6356 7.29445C35.5569 6.74338 35.5831 6.34975 35.6881 6.03485C35.7406 5.85116 36.0292 5.11639 36.9477 4.95894C38.1548 4.77525 38.5747 5.77243 38.6272 6.06109C38.6534 6.27103 38.5485 6.29727 38.4435 6.34975L36.1867 7.08452ZM37.8924 6.13982C37.7612 5.66747 37.3676 5.35256 36.9477 5.43129C36.3441 5.53626 36.108 6.06109 36.1342 6.71714L37.8924 6.13982Z" fill="white"/>
<path d="M43.3764 8.39609C43.3764 8.47482 43.3764 8.5273 43.2977 8.55354L42.8778 8.57979C42.7466 8.57979 42.7204 8.57978 42.6941 8.42233L42.6154 5.85064C42.6154 5.48326 42.5892 4.90594 41.697 4.95842C40.8835 4.98466 40.8835 5.48326 40.8835 5.66695L40.9884 8.50106C40.9884 8.63227 40.9359 8.65851 40.831 8.65851H40.4636C40.3586 8.65851 40.3061 8.65851 40.3061 8.5273L40.2012 5.43077C40.2012 5.14211 40.2274 5.01091 40.4898 4.85346C40.9884 4.5648 41.7232 4.53855 41.8019 4.53855C43.2452 4.48607 43.2977 5.29957 43.2977 5.74567L43.3764 8.39609Z" fill="white"/>
<path d="M47.9955 8.05575C47.9692 8.18695 47.9692 8.3444 47.838 8.47561C47.5494 8.81676 46.7883 8.843 46.3947 8.81676C45.3188 8.71179 44.6628 7.95078 44.794 6.69117C44.8989 5.6415 45.6075 4.56559 46.7883 4.67056C47.182 4.6968 47.4181 4.85425 47.6018 5.0117L47.7855 3.12229C47.7855 2.99109 47.8118 2.96484 47.943 2.96484L48.3366 2.99109C48.4416 2.99109 48.4941 3.01733 48.4678 3.14854L47.9955 8.05575ZM47.5493 5.45781C47.4181 5.3266 47.2344 5.14291 46.8408 5.11667C46.1323 5.03794 45.5812 5.69399 45.4763 6.61245C45.3713 7.66212 45.8436 8.31816 46.5784 8.39689C47.2344 8.44937 47.2869 8.08199 47.3132 7.84581L47.5493 5.45781Z" fill="white"/>
<path d="M50.413 3.48973C50.4392 3.38477 50.4917 3.38477 50.5967 3.38477L50.9641 3.46349C51.069 3.48973 51.0953 3.48973 51.0953 3.62094L50.0194 9.13171C49.9931 9.26292 49.9406 9.26292 49.8619 9.23668L49.4683 9.15795C49.3371 9.13171 49.3371 9.13171 49.3633 9.0005L50.413 3.48973Z" fill="white"/>
<path d="M52.6152 10.497C52.2479 10.9956 51.723 11.5729 50.9358 11.363C50.857 11.3367 50.4109 11.2055 50.5159 10.8644C50.5684 10.7069 50.7258 10.5757 50.9358 10.6282C50.9883 10.6545 51.2507 10.7857 51.3032 10.8119C51.6181 10.8906 51.9067 10.7332 52.4578 9.89344L52.0642 5.87845C52.0642 5.77349 52.0379 5.77349 52.0642 5.74724C52.0904 5.64228 52.1954 5.69476 52.2216 5.69476L52.6677 5.82597C52.7727 5.85221 52.7989 5.87845 52.7989 6.00966L53.0089 9.13243L54.7933 6.58698C54.872 6.48201 54.8983 6.48201 54.9508 6.48201L55.3181 6.58698C55.3706 6.61322 55.4231 6.63946 55.3969 6.69195C55.3969 6.71819 55.3969 6.71819 55.3181 6.82316L52.6152 10.497Z" fill="white"/>
<path d="M63.4013 9.99759L59.9111 12.8055C59.7799 12.9104 59.7537 12.9104 59.675 12.8842C59.5962 12.8317 59.5962 12.8055 59.6225 12.648L60.1211 8.18691L58.1267 11.8083C58.0742 11.9132 58.0217 11.9132 57.943 11.8608L57.6019 11.6771C57.5494 11.6246 57.5494 11.5983 57.6019 11.5196L60.0948 7.03227C60.1473 6.9273 60.1736 6.9273 60.2785 6.97979L60.7246 7.2422C60.8296 7.29469 60.8296 7.32093 60.8034 7.45214L60.3572 11.7558L63.6899 9.07913C63.8212 9.0004 63.8212 8.97416 63.9261 9.05289L64.3985 9.3153C64.5034 9.36779 64.5297 9.39403 64.4772 9.499L61.9842 14.0126C61.9318 14.1175 61.9055 14.1175 61.7743 14.0651L61.4069 13.8551C61.302 13.8026 61.302 13.7764 61.3544 13.6714L63.4013 9.99759Z" fill="white"/>
<path d="M65.6294 15.9019C65.4195 16.1643 65.262 16.2956 64.9471 16.2431C64.6322 16.1906 64.2386 15.9544 63.9762 15.7445C63.8187 15.6133 62.9265 14.931 63.5563 14.0912C64.0811 13.3827 64.9209 13.7239 66.128 14.1962L66.3642 13.8813C66.5479 13.6451 66.8628 13.2253 66.4166 12.8841C66.0755 12.6217 65.7344 12.8054 65.6032 12.8841C65.4719 12.9629 65.3145 13.0678 65.1308 12.9366C65.0521 12.8579 64.9471 12.7004 65.0783 12.4905C65.367 12.1231 66.1017 12.1231 66.7315 12.6217C67.6238 13.304 67.1252 13.96 66.889 14.3012L65.6294 15.9019ZM65.8918 14.4849C65.0783 14.1962 64.5272 13.9863 64.1599 14.4586C64.1336 14.5111 63.7137 15.036 64.3435 15.5083C64.8159 15.8757 65.0258 15.587 65.157 15.4296L65.8918 14.4849Z" fill="white"/>
<path d="M68.4914 19.4974C68.439 19.5499 68.3865 19.6024 68.3077 19.5499L68.0191 19.2612C67.9404 19.1825 67.9141 19.13 68.0191 19.0251L69.8298 17.1881C70.0922 16.9257 70.4858 16.5321 69.856 15.9023C69.2787 15.325 68.9113 15.6661 68.7801 15.7973L66.7857 17.818C66.6808 17.9229 66.6283 17.8967 66.5758 17.818L66.3134 17.5555C66.2346 17.4768 66.2084 17.4506 66.3134 17.3456L68.4914 15.1413C68.7014 14.9314 68.8326 14.8789 69.095 14.9576C69.6461 15.1151 70.1709 15.6399 70.2234 15.6924C71.2468 16.7158 70.6958 17.2931 70.3808 17.608L68.4914 19.4974Z" fill="white"/>
<path d="M71.511 22.1479C71.2486 22.3578 71.0649 22.4365 70.7762 22.3316C70.4876 22.2004 70.1464 21.8592 69.9365 21.623C69.8053 21.4656 69.0968 20.5734 69.9103 19.9173C70.5925 19.3663 71.3273 19.8911 72.377 20.6259L72.6919 20.3897C72.9281 20.206 73.3217 19.8911 72.9805 19.4187C72.6919 19.0776 72.3507 19.1826 72.1933 19.235C72.0358 19.2875 71.8521 19.34 71.7209 19.1563C71.6422 19.0776 71.5897 18.8677 71.7734 18.7102C72.1408 18.4215 72.8493 18.6052 73.3479 19.235C74.0565 20.1273 73.4004 20.6259 73.0855 20.8883L71.511 22.1479ZM72.0883 20.8358C71.3536 20.3372 70.8812 20.0223 70.4088 20.3897C70.3564 20.4159 69.8315 20.8358 70.3301 21.4656C70.6975 21.9379 70.9862 21.728 71.1436 21.5968L72.0883 20.8358Z" fill="white"/>
<path d="M75.9198 24.0112C75.8411 24.1949 75.7623 24.4311 75.3687 24.6673C74.5815 25.1659 73.8467 24.6935 73.5318 24.1687C73.4268 24.0112 73.4006 23.88 73.3481 23.7488C73.1119 23.6701 72.902 23.6701 72.7708 23.7488C72.5608 23.88 72.7183 24.1687 72.9282 24.5623L73.3218 25.2708C73.4793 25.5595 73.8992 26.373 73.1906 26.7928C72.7445 27.0553 71.6424 27.1077 70.7502 25.6645C70.5927 25.402 70.4877 25.1921 70.4615 25.0084C70.3303 24.5361 70.4353 24.1162 70.7502 23.9325C71.0913 23.7226 71.5899 23.8275 72.0622 24.0637C72.0098 23.8538 71.8786 23.4864 72.1935 23.3027C72.4821 23.119 73.0594 23.3289 73.3218 23.4077C73.3218 23.2502 73.3218 22.9878 73.5055 22.6729C73.6368 22.463 73.7942 22.3055 73.9779 22.2005C74.6339 21.7807 75.3949 21.9906 75.8148 22.6729C75.9723 22.9091 75.9985 23.0665 76.0248 23.2502C76.051 23.4339 76.0772 23.5389 76.1822 23.6963C76.2347 23.8013 76.6546 24.2474 76.6808 24.2736C76.7333 24.3524 76.5496 24.4836 76.5233 24.4836C76.4709 24.5098 76.4709 24.4836 76.4184 24.4573L75.9198 24.0112ZM71.275 24.4048C70.8551 24.6673 71.0126 25.2183 71.3012 25.6907C71.6161 26.1893 72.2722 26.6354 72.692 26.373C73.0594 26.1368 72.8495 25.6645 72.7183 25.4545C72.6396 25.2971 72.2197 24.5885 72.141 24.4048C71.8261 24.3261 71.5374 24.2474 71.275 24.4048ZM75.5786 23.3552C75.6049 23.224 75.5786 23.0665 75.4737 22.9091C75.29 22.6204 74.8963 22.3842 74.3453 22.6991C73.768 23.0665 73.6892 23.6176 73.8992 23.9587C74.0829 24.2474 74.4502 24.4573 74.9751 24.1162C75.0538 24.0637 75.1325 24.0112 75.185 23.9587C75.5262 23.6701 75.5786 23.4077 75.5786 23.3552Z" fill="white"/>
<path d="M75.8648 26.8186C74.9201 27.3172 74.6839 28.0257 74.9463 28.5506C75.13 28.9705 75.5236 29.1804 75.996 29.2329C76.2059 29.2591 76.2584 29.2591 76.2846 29.3378C76.3109 29.3903 76.3371 29.4953 76.1797 29.5478C75.996 29.6265 74.8151 29.8102 74.3165 28.708C74.1328 28.2882 74.0278 27.6584 74.5264 27.0548C74.7888 26.7137 75.1562 26.4775 75.4974 26.3463C75.996 26.1101 76.4158 26.0576 76.7307 26.0576C76.9144 26.0576 77.7017 26.1363 78.0953 26.9761C78.5939 28.0782 77.7542 28.7605 77.4655 28.8917C77.2818 28.9705 77.2031 28.8655 77.1506 28.7868L75.8648 26.8186ZM77.2293 28.2094C77.6492 27.9733 77.8591 27.5009 77.6754 27.1073C77.413 26.5562 76.8619 26.4512 76.2059 26.6612L77.2293 28.2094Z" fill="white"/>
<path d="M78.6214 30.3088C78.8838 30.23 78.9887 30.2038 79.1724 30.335C79.4086 30.5187 79.671 30.9911 79.8022 31.4109C80.0122 32.1719 79.776 32.4868 79.671 32.6443C79.881 32.7493 80.2221 32.9329 80.4583 33.694C80.7994 34.9011 80.0122 35.111 79.6185 35.216L77.0469 35.9507C76.9419 35.977 76.9156 35.9507 76.8632 35.8458L76.7582 35.4522C76.732 35.3472 76.7319 35.3209 76.8632 35.2685L79.2774 34.5862C79.671 34.455 80.2221 34.2975 80.0384 33.589C79.9597 33.3266 79.8285 33.1954 79.7235 33.1166C79.4873 32.9592 79.2774 33.0117 79.0675 33.0904L76.4958 33.8252C76.3908 33.8514 76.3383 33.8514 76.3121 33.7464L76.2071 33.3528C76.1809 33.2478 76.1809 33.1954 76.2858 33.1691L78.7526 32.4606C79.015 32.3819 79.6448 32.1982 79.4611 31.4896C79.2512 30.7811 78.7001 30.9123 78.4639 30.9911L75.8922 31.7258C75.7873 31.7521 75.7348 31.7258 75.7085 31.6209L75.6036 31.2535C75.5773 31.1485 75.5773 31.1223 75.7085 31.0698L78.6214 30.3088Z" fill="white"/>
<path d="M79.2254 37.5243C78.1758 37.708 77.7297 38.3116 77.8084 38.8889C77.8609 39.335 78.1758 39.6499 78.5956 39.8599C78.7793 39.9386 78.8318 39.9648 78.8318 40.0435C78.8318 40.096 78.8318 40.201 78.6744 40.2272C78.4644 40.2535 77.3098 40.0698 77.1523 38.8627C77.0998 38.4166 77.2048 37.7605 77.8609 37.3406C78.2282 37.1045 78.6481 36.9995 78.9893 36.947C79.5403 36.8683 79.934 36.947 80.2489 37.052C80.4063 37.1045 81.1411 37.4194 81.2723 38.3641C81.4297 39.5712 80.4063 39.9648 80.0914 39.9911C79.8815 40.0173 79.8552 39.8861 79.829 39.8074L79.2254 37.5243ZM80.1176 39.2825C80.59 39.1776 80.9311 38.8102 80.8787 38.3641C80.7999 37.7605 80.3013 37.4981 79.6191 37.4981L80.1176 39.2825Z" fill="white"/>
<path d="M77.6477 44.6893C77.569 44.6893 77.5165 44.6893 77.4902 44.5843V44.1644C77.4902 44.0332 77.5165 44.007 77.6477 44.007L80.2194 44.0595C80.5868 44.0595 81.1641 44.0857 81.1641 43.1673C81.1903 42.3538 80.6917 42.3275 80.508 42.3275L77.6739 42.275C77.5427 42.275 77.5165 42.2226 77.5165 42.1176V41.7502C77.5165 41.6452 77.5427 41.5928 77.6739 41.619L80.7705 41.6715C81.0591 41.6715 81.1903 41.724 81.3215 41.9864C81.584 42.5112 81.5577 43.2197 81.5577 43.2985C81.5315 44.768 80.718 44.7418 80.2719 44.7418L77.6477 44.6893Z" fill="white"/>
<path d="M80.9308 47.2618L78.464 46.9994C78.1491 46.9732 78.0704 46.9731 77.913 47.0256C77.7555 47.1044 77.6243 47.2356 77.5981 47.4455C77.5981 47.4717 77.5981 47.603 77.5718 47.6554C77.5456 47.7866 77.4406 47.7866 77.4144 47.7866C77.2044 47.7604 77.2044 47.3405 77.2307 47.1568C77.2569 46.7895 77.4406 46.527 77.6768 46.3958C77.9392 46.2384 78.1754 46.2646 78.4115 46.2909L81.0357 46.5533L81.0882 46.1597C81.0882 46.0547 81.1145 46.0547 81.2194 46.0547C81.4294 46.0809 81.4293 46.0809 81.4293 46.1859L81.3769 46.5795L81.823 46.632C81.9542 46.6582 82.0067 46.6845 82.0854 46.7632L82.3478 47.1568C82.4003 47.2356 82.4265 47.2618 82.4265 47.288C82.4265 47.3668 82.3216 47.3668 82.2166 47.3405L81.2981 47.2356L81.2194 47.8916C81.2194 47.9966 81.1932 48.0228 81.0882 47.9966C80.8783 47.9703 80.852 47.9703 80.8783 47.8654L80.9308 47.2618Z" fill="white"/>
<path d="M13.1222 62.8746C13.1222 63.6094 12.5449 64.1867 11.8101 64.1867C11.0754 64.1867 10.498 63.6094 10.498 62.8746C10.498 62.1398 11.0754 61.5625 11.8101 61.5625C12.5449 61.5625 13.1222 62.1661 13.1222 62.8746Z" fill="white"/>
<path d="M75.6046 62.8746C75.6046 63.6094 75.0273 64.1867 74.2926 64.1867C73.5578 64.1867 72.9805 63.6094 72.9805 62.8746C72.9805 62.1398 73.5578 61.5625 74.2926 61.5625C75.0011 61.5625 75.6046 62.1661 75.6046 62.8746Z" fill="white"/>
<path d="M16.6644 70.0662L16.1133 69.5152L18.3963 67.1272L16.6381 65.3952L17.1105 64.9229L19.4985 67.3109L16.6644 70.0662ZM18.9999 70.2762L16.9268 72.2968L16.3757 71.7457L20.102 67.8882L20.7581 68.5442L19.5247 69.7776L20.1283 70.3811L19.6297 70.906L18.9999 70.2762Z" fill="white"/>
<path d="M20.4941 73.321L20.8615 72.77L22.6722 73.9508L23.1183 73.1374L23.8793 73.6359L23.3283 74.397L25.1389 75.5778L24.7715 76.1289L20.4941 73.321ZM22.3573 77.8084L21.7275 77.3885L22.541 76.0502L20.5991 74.7906L20.9665 74.2395L23.6432 75.9715L22.3573 77.8084ZM24.9028 74.8431L23.8006 72.9012L21.5701 72.7175L21.5176 72.0877L23.7219 72.1402L23.9581 71.7465L22.7509 70.9593L23.1183 70.4082L26.3723 72.5075L26.0049 73.0586L24.7715 72.2714L24.5091 72.6388L25.4801 74.6331L24.9028 74.8431Z" fill="white"/>
<path d="M29.9681 77.9138L29.1284 76.1818L27.3702 77.0478L26.9766 76.4967L28.9709 75.3946L29.1284 74.896L27.9737 74.4499L28.2099 73.8201L29.3646 74.2662L29.5483 73.7676L30.4405 74.1087L30.2305 74.6073L31.3852 75.0534L31.149 75.6832L29.9944 75.2371L29.7844 75.7095L30.5979 77.7301L29.9681 77.9138ZM27.5539 80.3805L28.3411 78.1499L29.2071 78.4911L28.5248 80.0656L30.6242 80.8791L30.388 81.4827L27.5539 80.3805ZM31.5164 79.2783L30.8079 78.9897L32.2249 75.1584L33.0909 75.4995L31.5164 79.2783Z" fill="white"/>
<path d="M35.5849 77.0217L35.6636 76.3919L36.9495 76.5756L36.9757 76.0508L37.8942 76.182L37.7892 76.6806L39.075 76.8643L38.9963 77.4941L38.6289 77.4416C38.8126 77.7303 38.9176 78.0452 38.8651 78.3863C38.7601 79.0423 38.1303 79.5409 37.4218 79.6197L37.2381 80.3282L38.6552 80.5381L38.5502 81.1942L34.9551 80.6693L35.06 80.0133L36.4771 80.2232L36.5296 79.4885C35.8735 79.1998 35.4012 78.57 35.4799 77.8877C35.5324 77.5728 35.7161 77.2579 35.9523 77.048L35.5849 77.0217ZM37.2906 77.3629C36.8182 77.2841 36.3459 77.599 36.2934 78.0452C36.2409 78.4913 36.5821 78.9111 37.0544 78.9636C37.5268 79.0423 37.9991 78.7274 38.0778 78.2813C38.1566 77.8615 37.7892 77.4416 37.2906 77.3629ZM40.2034 79.226L39.7311 82.1651L38.9701 82.0602L39.6524 76.7331L40.5708 76.8643L40.3084 78.5175L41.1219 78.6225L41.0169 79.3572L40.2034 79.226Z" fill="white"/>
<path d="M49.2022 80.3014L49.3597 81.771L48.5987 81.876L48.31 80.4327L46.2632 80.7476L46.1582 80.0915L51.1966 79.3305L51.3016 79.9865L49.2022 80.3014ZM47.654 76.0765L48.5724 75.9453L48.5987 76.4177C49.4122 76.4702 50.0945 76.9425 50.2257 77.6773C50.3569 78.5432 49.6221 79.3305 48.6512 79.4617C47.6802 79.6192 46.7355 79.0943 46.6043 78.2283C46.4993 77.4936 47.0242 76.8113 47.759 76.5489L47.654 76.0765ZM48.2575 77.0999C47.7327 77.1787 47.2866 77.5985 47.3653 78.0971C47.4441 78.5957 47.9689 78.8582 48.52 78.7794C49.071 78.7007 49.4909 78.2808 49.4122 77.7822C49.3597 77.3099 48.8086 77.0212 48.2575 77.0999Z" fill="white"/>
<path d="M57.4685 76.6008L55.1854 75.866L53.9258 77.9129L53.3223 77.6505L54.5031 75.3937L54.2145 74.7639L55.1854 74.3965L55.3691 75.0788L57.7309 75.9972L57.4685 76.6008ZM56.5238 78.0966L57.0486 79.7236L56.3138 79.986L55.6578 78.4115L53.6897 79.1462L53.4535 78.5164L58.2295 76.732L58.4657 77.3618L56.5238 78.0966Z" fill="white"/>
<path d="M62.8478 75.2093L62.1917 75.6029L60.4335 72.795L58.3079 74.0546L57.9668 73.5036L60.8534 71.7716L62.8478 75.2093ZM65.2358 75.4192L64.5797 75.8128L61.7456 71.2468L62.5329 70.7744L65.2358 75.4192Z" fill="white"/>
<path d="M66.7077 72.3486L66.2616 71.8762L66.9439 71.2202L65.7105 70.0131L66.3666 69.4095L67.495 70.7216L68.8858 69.4357L69.3319 69.9081L66.7077 72.3486ZM68.4397 69.3308L67.8886 69.8556L66.4715 68.4123L64.8446 69.9081L64.3984 69.4357L66.6815 67.3102L68.4397 69.3308ZM69.8567 73.2933L68.256 71.6663L68.912 71.0627L69.9617 72.2699L71.6149 70.7216L72.061 71.1939L69.8567 73.2933ZM69.2269 67.7563L70.6965 69.4095L70.1454 69.9343L67.1801 66.8378L67.8624 66.208L68.7546 67.2052L69.3844 66.6279L69.883 67.1527L69.2269 67.7563Z" fill="white"/>
</g>
<defs>
<clipPath id="clip0">
<rect width="86.0992" height="86.0992" fill="white"/>
</clipPath>
</defs>
</svg>
