<svg width="30" height="30" viewBox="0 0 30 30" fill="none" xmlns="http://www.w3.org/2000/svg">
<path d="M8.79546 12.4841C8.54248 12.4841 8.32585 12.5708 8.14695 12.7416C7.96665 12.9137 7.8772 13.1226 7.8772 13.3669C7.8772 13.6113 7.96665 13.8201 8.14695 13.9922C8.32724 14.1643 8.54248 14.251 8.79546 14.251C9.05263 14.251 9.27206 14.1643 9.45515 13.9922C9.63825 13.8201 9.7291 13.6126 9.7291 13.3669C9.7291 13.1226 9.63825 12.9137 9.45515 12.7416C9.27206 12.5695 9.05263 12.4841 8.79546 12.4841Z" fill="white"/>
<path d="M16.6407 12.4763C16.3877 12.4763 16.1711 12.5617 15.9922 12.7338C15.8119 12.9059 15.7224 13.1148 15.7224 13.3591C15.7224 13.6048 15.8133 13.8123 15.9922 13.9844C16.1711 14.1565 16.3877 14.2419 16.6407 14.2419C16.8978 14.2419 17.1173 14.1552 17.3004 13.9844C17.4835 13.8123 17.5743 13.6034 17.5743 13.3591C17.5743 13.1148 17.4835 12.9059 17.3004 12.7338C17.1173 12.5617 16.8978 12.4763 16.6407 12.4763Z" fill="white"/>
<path d="M21.8721 12.4841C21.6191 12.4841 21.4024 12.5708 21.2221 12.7416C21.0432 12.9137 20.9524 13.1226 20.9524 13.3669C20.9524 13.6113 21.0432 13.8201 21.2221 13.9922C21.4024 14.1643 21.6191 14.251 21.8721 14.251C22.1278 14.251 22.3487 14.1643 22.5318 13.9922C22.7148 13.8201 22.8057 13.6126 22.8057 13.3669C22.8057 13.1226 22.7135 12.9137 22.5318 12.7416C22.3487 12.5695 22.1292 12.4841 21.8721 12.4841Z" fill="white"/>
<path d="M24.1976 6H6.47106C5.11254 6 4 7.04568 4 8.32257V17.7455C4 19.0224 5.11254 20.0681 6.47106 20.0681H13.4314C13.4314 20.0681 14.776 23.5178 15.2651 23.5178C15.7557 23.5178 17.2093 20.0681 17.2093 20.0681H24.1976C25.5575 20.0681 26.6687 19.0224 26.6687 17.7455V8.32257C26.6701 7.04568 25.5575 6 24.1976 6ZM10.5886 14.6991C10.2378 15.0709 9.69966 15.2272 9.11264 15.2272C8.58293 15.2272 8.19578 15.0774 7.90926 14.8725H7.89248V15.1379H6.56191V9.68221H7.89248V11.7683H7.90926C8.26985 11.4793 8.74785 11.3808 9.31111 11.3637C9.7933 11.3479 10.2951 11.6317 10.5956 11.9588C10.8947 12.2846 11.1141 12.7956 11.1141 13.3605C11.1141 13.9753 10.9408 14.3273 10.5886 14.6991ZM13.4454 15.1786H12.0883C12.0883 15.1786 12.0883 12.3122 12.0883 11.8025C12.0883 11.0235 11.4328 10.921 11.4328 10.921V9.56924C11.4328 9.56924 13.335 9.67827 13.4454 11.8445C13.4454 12.4698 13.4454 15.1786 13.4454 15.1786ZM18.7719 14.1434C18.6573 14.3878 18.4923 14.6058 18.2729 14.7976C18.0577 14.9868 17.8103 15.1326 17.5294 15.2338C17.2498 15.3349 16.9535 15.3862 16.6418 15.3862C16.3358 15.3862 16.045 15.3349 15.7683 15.2338C15.4902 15.1326 15.2428 14.9868 15.0247 14.7976C14.7997 14.598 14.6306 14.3773 14.5146 14.1355C14.4 13.8951 14.3427 13.6377 14.3427 13.3671C14.3427 13.0964 14.4 12.839 14.516 12.5972C14.632 12.3555 14.8011 12.1348 15.0261 11.9352C15.2456 11.7447 15.493 11.6002 15.7697 11.499C16.0464 11.3979 16.3371 11.3479 16.6432 11.3479C16.9549 11.3479 17.2498 11.3979 17.5308 11.499C17.8103 11.6002 18.0577 11.746 18.2743 11.9352C18.4937 12.1269 18.6587 12.345 18.7733 12.5894C18.8865 12.8337 18.9438 13.0925 18.9438 13.3671C18.941 13.6416 18.8851 13.9004 18.7719 14.1434ZM24.1081 14.686C24.1081 15.6436 23.9153 16.2282 23.4596 16.6341C22.9187 17.1163 22.1486 17.1504 21.5001 17.0637V16.0732C22.041 16.1244 22.786 15.7895 22.7846 15.13V14.8765H22.7678C22.4645 15.2706 22.0214 15.4137 21.4316 15.4137C20.8851 15.4137 20.4113 15.2246 20.0913 14.8712C19.7698 14.5178 19.6105 14.0449 19.6105 13.4511C19.6105 12.7864 19.7894 12.257 20.1472 11.8668C20.5036 11.4754 21.0137 11.2928 21.5965 11.2928C22.1193 11.2928 22.4477 11.411 22.7692 11.6869H22.786V11.386H24.1081V14.686V14.686Z" fill="white"/>
</svg>
