<svg width="352" height="58" viewBox="0 0 352 58" fill="none" xmlns="http://www.w3.org/2000/svg">
<g opacity="0.43" clip-path="url(#clip0)">
<path d="M68.4155 21.7684C68.4155 20.9014 68.5817 20.1223 68.9029 19.4529C69.2351 18.7725 69.6671 18.2018 70.2209 17.719C70.7747 17.2581 71.4171 16.9069 72.1592 16.6545C72.9013 16.4021 73.6766 16.2814 74.4851 16.2814C75.2936 16.2814 76.069 16.4021 76.8 16.6545C77.531 16.9069 78.1844 17.2581 78.7493 17.719C79.3031 18.2018 79.7461 18.7725 80.0673 19.4529C80.3996 20.1333 80.5547 20.9014 80.5547 21.7684C80.5547 22.6353 80.3885 23.4144 80.0673 24.0948C79.7351 24.7752 79.3031 25.3349 78.7493 25.7958C78.1844 26.2786 77.531 26.6408 76.8 26.8822C76.069 27.1346 75.2936 27.2553 74.4851 27.2553C73.6766 27.2553 72.9013 27.1346 72.1592 26.8822C71.4171 26.6298 70.7747 26.2677 70.2209 25.7958C69.6671 25.3349 69.2241 24.7642 68.9029 24.0948C68.5817 23.4144 68.4155 22.6353 68.4155 21.7684ZM71.5278 21.7464C71.5278 22.8219 71.8158 23.6339 72.3918 24.1716C72.9677 24.7094 73.6766 24.9837 74.4962 24.9837C75.3269 24.9837 76.0247 24.7094 76.5895 24.1607C77.1544 23.612 77.4424 22.8109 77.4424 21.7464C77.4424 20.6819 77.1544 19.8809 76.5895 19.3322C76.0247 18.7835 75.3158 18.5091 74.4962 18.5091C73.6655 18.5091 72.9677 18.7835 72.3918 19.3322C71.8158 19.8809 71.5278 20.6819 71.5278 21.7464ZM84.0214 32.7203V30.8986H72.4804V28.6929H87.3663V34.9261H75.6924V36.8794H87.8869V39.0852H73.8759C73.4218 39.0852 73.0563 38.9425 72.7794 38.6682C72.4914 38.3828 72.3475 38.0207 72.3475 37.5817V32.7313H84.0214V32.7203ZM87.3663 26.1031C87.3663 26.564 87.2113 26.959 86.8901 27.2882C86.5689 27.6175 86.1812 27.7711 85.716 27.7711H84.0325V15.9961H87.3663V26.1031Z" fill="white"/>
<path d="M90.2128 16.7643H100.303V18.97H97.0134V20.6161C97.0134 21.7464 97.1685 22.778 97.4675 23.7107C97.7666 24.6435 98.1431 25.4775 98.5973 26.2128C99.0514 26.948 99.5276 27.5736 100.037 28.1003C100.547 28.627 101.001 29.0331 101.399 29.3404L99.7713 31.2608C99.4058 31.0523 99.0071 30.745 98.553 30.328C98.0988 29.911 97.678 29.4391 97.2571 28.9343C96.8251 28.4405 96.4375 27.9247 96.1052 27.398C95.7729 26.8712 95.5403 26.3884 95.4185 25.9604C95.2856 26.4542 95.053 26.981 94.7318 27.5187C94.4106 28.0674 94.0451 28.5832 93.6353 29.088C93.2255 29.5818 92.7935 30.0427 92.3394 30.4707C91.8853 30.8986 91.4644 31.2498 91.0657 31.5242L89.4375 29.6037C89.9359 29.2416 90.4454 28.7917 90.966 28.2539C91.4865 27.7162 91.9628 27.0688 92.3948 26.3225C92.8046 25.5873 93.1479 24.7533 93.4137 23.8095C93.6796 22.8658 93.8125 21.8123 93.8125 20.6271V18.981H90.2128V16.7643ZM98.9628 23.5571H101.986V39.0742H103.437C103.903 39.0742 104.29 38.9096 104.611 38.5913C104.933 38.2621 105.088 37.878 105.088 37.4391V15.9961H101.986V21.3514H98.9628V23.5571ZM109.629 15.9961H106.55V39.0742H108.1C108.532 39.0742 108.898 38.9096 109.186 38.5913C109.485 38.2621 109.629 37.878 109.629 37.4062V15.9961Z" fill="white"/>
<path d="M112.188 26.0043C113.206 25.7848 114.192 25.4775 115.134 25.0935C116.086 24.7094 116.928 24.2375 117.67 23.6668C118.39 23.1182 118.977 22.4817 119.42 21.7574C119.863 21.0331 120.085 20.2101 120.085 19.3102V18.981H112.475V16.7752H123.341V19.3431C123.341 20.6381 123.031 21.7903 122.399 22.7889C121.768 23.7876 120.971 24.6435 120.007 25.3678C119.021 26.1031 117.947 26.6956 116.784 27.1456C115.621 27.5955 114.502 27.9357 113.428 28.1552L112.188 26.0043ZM117.05 33.8506C117.05 32.9837 117.227 32.1936 117.57 31.4912C117.914 30.7889 118.379 30.1853 118.966 29.6696C119.531 29.1757 120.206 28.7917 120.971 28.5173C121.735 28.243 122.555 28.1113 123.418 28.1113C124.282 28.1113 125.102 28.243 125.877 28.5173C126.653 28.7917 127.339 29.1757 127.926 29.6696C128.491 30.1853 128.956 30.7889 129.3 31.4912C129.643 32.1936 129.82 32.9837 129.82 33.8506C129.82 34.7176 129.643 35.5077 129.3 36.21C128.956 36.9123 128.502 37.5159 127.926 38.0317C127.339 38.5255 126.664 38.9096 125.877 39.1839C125.102 39.4583 124.282 39.59 123.418 39.59C122.555 39.59 121.735 39.4583 120.971 39.1839C120.206 38.9096 119.531 38.5255 118.966 38.0317C118.379 37.5159 117.914 36.9123 117.57 36.21C117.227 35.5077 117.05 34.7176 117.05 33.8506ZM120.284 33.8177C120.284 34.3445 120.361 34.8273 120.528 35.2553C120.694 35.6833 120.915 36.0454 121.214 36.3527C121.491 36.6599 121.812 36.8904 122.2 37.055C122.577 37.2196 122.986 37.2964 123.418 37.2964C123.85 37.2964 124.26 37.2196 124.648 37.055C125.036 36.8904 125.368 36.6599 125.645 36.3527C125.922 36.0454 126.143 35.6723 126.309 35.2553C126.475 34.8273 126.553 34.3445 126.553 33.8177C126.553 33.291 126.475 32.8081 126.309 32.3801C126.143 31.9521 125.922 31.59 125.645 31.2827C125.368 30.9755 125.036 30.745 124.648 30.5804C124.26 30.4158 123.85 30.339 123.418 30.339C122.986 30.339 122.577 30.4158 122.2 30.5804C121.824 30.745 121.491 30.9755 121.214 31.2827C120.915 31.59 120.694 31.9631 120.528 32.3801C120.373 32.8081 120.284 33.291 120.284 33.8177ZM130.33 27.0468C130.33 27.4967 130.175 27.8808 129.854 28.1991C129.532 28.5283 129.145 28.6819 128.679 28.6819H126.996V15.9961H130.33V20.6161H133.697V22.8219H130.33V27.0468Z" fill="white"/>
<path d="M133.697 16.7643H143.787V18.97H140.497V20.6161C140.497 21.7464 140.652 22.778 140.951 23.7107C141.25 24.6435 141.627 25.4775 142.081 26.2128C142.535 26.948 143.012 27.5736 143.521 28.1003C144.03 28.627 144.485 29.0331 144.883 29.3404L143.255 31.2608C142.89 31.0523 142.491 30.745 142.037 30.328C141.583 29.911 141.162 29.4391 140.741 28.9343C140.309 28.4405 139.921 27.9247 139.589 27.398C139.257 26.8712 139.024 26.3884 138.902 25.9604C138.769 26.4542 138.537 26.981 138.216 27.5187C137.894 28.0674 137.529 28.5832 137.119 29.088C136.709 29.5818 136.277 30.0427 135.823 30.4707C135.369 30.8986 134.948 31.2498 134.55 31.5242L132.921 29.6037C133.42 29.2416 133.929 28.7917 134.45 28.2539C134.97 27.7162 135.447 27.0688 135.879 26.3225C136.288 25.5873 136.632 24.7533 136.898 23.8095C137.163 22.8658 137.296 21.8123 137.296 20.6271V18.981H133.697V16.7643ZM142.447 23.5571H145.47V39.0742H146.921C147.386 39.0742 147.774 38.9096 148.095 38.5913C148.417 38.2621 148.572 37.878 148.572 37.4391V15.9961H145.47V21.3514H142.447V23.5571ZM153.102 15.9961H150.023V39.0742H151.573C152.005 39.0742 152.371 38.9096 152.659 38.5913C152.958 38.2621 153.102 37.878 153.102 37.4062V15.9961Z" fill="white"/>
<path d="M174.068 24.1058H167.7V25.9494H176.815V28.1552H155.284V25.9494H164.366V24.1058H159.703C159.238 24.1058 158.839 23.9412 158.507 23.623C158.174 23.2937 158.019 22.9097 158.019 22.4378V15.9961H173.803V18.2018H161.375V21.9001H174.057V24.1058H174.068ZM159.293 34.6408C159.293 33.9055 159.426 33.2251 159.703 32.5886C159.98 31.9521 160.401 31.4035 160.966 30.9206C161.519 30.4597 162.217 30.0866 163.059 29.8232C163.901 29.5489 164.898 29.4172 166.038 29.4172C167.179 29.4172 168.165 29.5489 169.007 29.8232C169.848 30.0976 170.546 30.4597 171.111 30.9206C171.665 31.4035 172.075 31.9521 172.352 32.5886C172.629 33.2251 172.761 33.9055 172.761 34.6408C172.761 35.3541 172.629 36.0344 172.352 36.6709C172.075 37.3074 171.665 37.8561 171.111 38.339C170.546 38.7999 169.837 39.162 169.007 39.4363C168.165 39.7107 167.179 39.8424 166.038 39.8424C164.898 39.8424 163.912 39.7107 163.059 39.4363C162.217 39.162 161.519 38.7999 160.966 38.339C160.401 37.8561 159.969 37.3074 159.703 36.6709C159.426 36.0344 159.293 35.3541 159.293 34.6408ZM162.583 34.6188C162.583 35.0687 162.66 35.4857 162.804 35.8918C162.948 36.2978 163.17 36.649 163.469 36.9562C163.768 37.2416 164.122 37.483 164.554 37.6586C164.986 37.8342 165.485 37.9329 166.061 37.9329C166.636 37.9329 167.124 37.8451 167.545 37.6586C167.966 37.483 168.32 37.2416 168.619 36.9562C168.896 36.649 169.106 36.2978 169.25 35.8918C169.394 35.4857 169.472 35.0687 169.472 34.6188C169.472 34.1689 169.394 33.7519 169.25 33.3458C169.106 32.9398 168.896 32.5886 168.619 32.2814C168.32 31.9741 167.966 31.7327 167.545 31.5461C167.124 31.3705 166.625 31.2718 166.061 31.2718C165.496 31.2718 164.986 31.3596 164.554 31.5461C164.122 31.7217 163.757 31.9741 163.469 32.2814C163.17 32.5886 162.959 32.9398 162.804 33.3458C162.649 33.7519 162.583 34.1689 162.583 34.6188Z" fill="white"/>
<path d="M177.181 28.4076V26.2018H191.313V28.4076H185.045V29.5598C185.045 30.0207 184.889 30.4158 184.568 30.745C184.247 31.0742 183.859 31.2279 183.394 31.2279H181.711V28.4076H177.181ZM177.646 21.0002C177.646 20.3198 177.812 19.7162 178.133 19.1895C178.465 18.6737 178.897 18.2238 179.451 17.8726C180.005 17.5105 180.647 17.2471 181.378 17.0606C182.109 16.885 182.885 16.7862 183.693 16.7862C184.524 16.7862 185.299 16.874 186.03 17.0606C186.761 17.2361 187.404 17.5105 187.958 17.8726C188.511 18.2348 188.954 18.6737 189.276 19.1895C189.608 19.7162 189.763 20.3198 189.763 21.0002C189.763 21.6806 189.597 22.2951 189.276 22.8219C188.943 23.3486 188.511 23.7985 187.958 24.1607C187.404 24.5228 186.761 24.7862 186.03 24.9727C185.299 25.1483 184.513 25.2471 183.693 25.2471C182.885 25.2471 182.109 25.1593 181.378 24.9727C180.647 24.7972 180.005 24.5228 179.451 24.1607C178.897 23.7985 178.454 23.3596 178.133 22.8219C177.801 22.2841 177.646 21.6806 177.646 21.0002ZM196.331 36.616V38.8218H182.22C181.755 38.8218 181.356 38.6572 181.024 38.3389C180.692 38.0097 180.537 37.6256 180.537 37.1867V32.2923H183.904V36.627H196.331V36.616ZM180.725 21.0002C180.725 21.3623 180.802 21.6586 180.958 21.911C181.113 22.1634 181.323 22.361 181.6 22.5146C181.877 22.6682 182.187 22.7889 182.541 22.8658C182.896 22.9426 183.283 22.9865 183.693 22.9865C184.524 22.9865 185.222 22.8328 185.787 22.5146C186.352 22.1963 186.639 21.7025 186.639 21.0112C186.639 20.3308 186.352 19.826 185.787 19.5077C185.222 19.1895 184.513 19.0359 183.693 19.0359C183.283 19.0359 182.896 19.0798 182.541 19.1566C182.187 19.2334 181.877 19.3431 181.6 19.5077C181.323 19.6833 181.113 19.8918 180.958 20.1333C180.802 20.3637 180.725 20.66 180.725 21.0002ZM187.526 29.8232H192.731V15.9961H196.065V31.4912C196.065 31.9521 195.91 32.3472 195.589 32.6764C195.268 33.0056 194.88 33.1593 194.415 33.1593H192.731V32.029H187.526V29.8232Z" fill="white"/>
<path d="M198.912 16.7643H211.771V18.97H209.699V29.077H212.025V31.2608H198.646V29.077H200.972V18.97H198.9V16.7643H198.912ZM204.073 29.077H206.631V18.97H204.073V29.077ZM217.807 37.4062C217.807 37.8671 217.652 38.2621 217.331 38.5913C217.01 38.9206 216.622 39.0742 216.157 39.0742H214.473V15.9961H217.807V37.4062Z" fill="white"/>
<path d="M220.399 20.8136V18.5859H224.563V15.9961H227.698V18.5859H231.663V20.8136H229.88C230.278 21.4172 230.588 22.0866 230.81 22.8219C231.032 23.5681 231.142 24.3692 231.142 25.2251C231.142 26.114 231.032 26.959 230.81 27.7491C230.588 28.5393 230.267 29.2306 229.857 29.8122C229.426 30.4158 228.894 30.8767 228.263 31.2279C227.631 31.5681 226.9 31.7436 226.081 31.7436C225.25 31.7436 224.519 31.5681 223.877 31.2279C223.234 30.8877 222.714 30.4158 222.293 29.8122C221.861 29.2306 221.528 28.5393 221.307 27.7491C221.085 26.959 220.975 26.114 220.975 25.2251C220.975 24.3692 221.085 23.5681 221.296 22.8219C221.506 22.0756 221.827 21.4062 222.237 20.8136H220.399ZM226.07 29.4391C226.357 29.4391 226.623 29.3404 226.856 29.1318C227.089 28.9233 227.288 28.649 227.465 28.2869C227.62 27.9247 227.742 27.5077 227.831 27.0358C227.919 26.553 227.964 26.0482 227.964 25.5214C227.964 24.9947 227.919 24.4899 227.831 24.007C227.742 23.5242 227.62 23.1072 227.465 22.756C227.288 22.3939 227.089 22.1086 226.856 21.9C226.623 21.6915 226.357 21.5818 226.07 21.5818C225.77 21.5818 225.516 21.6915 225.283 21.9C225.051 22.1195 224.851 22.4048 224.696 22.756C224.519 23.1182 224.397 23.5352 224.308 24.007C224.22 24.4899 224.176 24.9947 224.176 25.5214C224.176 26.0482 224.22 26.553 224.308 27.0358C224.397 27.5187 224.519 27.9357 224.696 28.2869C224.851 28.649 225.051 28.9233 225.283 29.1318C225.516 29.3294 225.77 29.4391 226.07 29.4391ZM240.069 37.4062C240.069 37.8671 239.925 38.2621 239.626 38.5913C239.338 38.9206 238.973 39.0742 238.541 39.0742H236.99V24.3582H235.539V37.4391C235.539 37.889 235.384 38.2731 235.063 38.5913C234.742 38.9206 234.354 39.0742 233.889 39.0742H232.438V15.9961H235.539V22.1525H236.99V15.9961H240.069V37.4062Z" fill="white"/>
<path d="M242.395 16.7643H254.302V18.97H250.082V20.6161C250.082 21.7135 250.226 22.7011 250.514 23.59C250.802 24.4789 251.179 25.28 251.644 26.0043C252.109 26.7176 252.641 27.3541 253.25 27.9028C253.848 28.4515 254.479 28.9343 255.144 29.3623L253.516 31.2608C253.205 31.0852 252.807 30.8109 252.308 30.4377C251.821 30.0646 251.322 29.6257 250.824 29.1318C250.304 28.649 249.827 28.1332 249.384 27.5845C248.941 27.0249 248.609 26.4871 248.387 25.9604C248.166 26.5749 247.834 27.1785 247.391 27.7711C246.948 28.3637 246.482 28.9014 245.984 29.3952C245.463 29.889 244.965 30.328 244.467 30.7011C243.979 31.0742 243.569 31.3486 243.259 31.5242L241.631 29.6257C242.285 29.1977 242.916 28.6929 243.525 28.1222C244.134 27.5516 244.666 26.8932 245.131 26.1579C245.596 25.4227 245.973 24.5996 246.261 23.6668C246.549 22.745 246.693 21.7245 246.693 20.6161V18.97H242.417V16.7643H242.395ZM260.77 24.6106H264.137V22.4048H260.77V15.9961H257.436V39.0742H259.12C259.585 39.0742 259.973 38.9096 260.294 38.5913C260.615 38.2621 260.77 37.878 260.77 37.4062V24.6106Z" fill="white"/>
<path d="M264.138 16.7643H276.044V18.97H271.824V20.6161C271.824 21.7135 271.968 22.7011 272.256 23.59C272.544 24.4789 272.921 25.28 273.386 26.0043C273.851 26.7176 274.383 27.3541 274.992 27.9028C275.59 28.4515 276.221 28.9343 276.886 29.3623L275.258 31.2608C274.948 31.0852 274.549 30.8109 274.05 30.4377C273.563 30.0646 273.065 29.6257 272.566 29.1318C272.046 28.649 271.569 28.1332 271.126 27.5845C270.683 27.0249 270.351 26.4871 270.13 25.9604C269.908 26.5749 269.576 27.1785 269.133 27.7711C268.69 28.3637 268.225 28.9014 267.726 29.3952C267.206 29.889 266.707 30.328 266.209 30.7011C265.721 31.0742 265.312 31.3486 265.001 31.5242L263.373 29.6257C264.027 29.1977 264.658 28.6929 265.267 28.1222C265.876 27.5516 266.408 26.8932 266.873 26.1579C267.338 25.4227 267.715 24.5996 268.003 23.6668C268.291 22.745 268.435 21.7245 268.435 20.6161V18.97H264.16V16.7643H264.138ZM283.033 15.9961H279.699V39.0742H281.383C281.848 39.0742 282.236 38.9096 282.557 38.5913C282.878 38.2621 283.033 37.878 283.033 37.4062V15.9961Z" fill="white"/>
<path d="M285.879 28.4076V26.2018H300.012V28.4076H293.743V29.5598C293.743 30.0207 293.588 30.4158 293.267 30.745C292.946 31.0742 292.558 31.2279 292.093 31.2279H290.409V28.4076H285.879ZM286.345 21.0002C286.345 20.3198 286.511 19.7162 286.832 19.1895C287.164 18.6737 287.596 18.2238 288.15 17.8726C288.704 17.5105 289.346 17.2471 290.077 17.0606C290.808 16.885 291.583 16.7862 292.392 16.7862C293.223 16.7862 293.998 16.874 294.729 17.0606C295.46 17.2361 296.102 17.5105 296.656 17.8726C297.21 18.2348 297.653 18.6737 297.974 19.1895C298.307 19.7162 298.462 20.3198 298.462 21.0002C298.462 21.6806 298.295 22.2951 297.974 22.8219C297.642 23.3486 297.21 23.7985 296.656 24.1607C296.102 24.5228 295.46 24.7862 294.729 24.9727C293.998 25.1483 293.212 25.2471 292.392 25.2471C291.583 25.2471 290.808 25.1593 290.077 24.9727C289.346 24.7972 288.704 24.5228 288.15 24.1607C287.596 23.7985 287.153 23.3596 286.832 22.8219C286.511 22.2841 286.345 21.6806 286.345 21.0002ZM305.03 36.616V38.8218H290.919C290.454 38.8218 290.055 38.6572 289.723 38.3389C289.39 38.0097 289.235 37.6256 289.235 37.1867V32.2923H292.602V36.627H305.03V36.616ZM289.424 21.0002C289.424 21.3623 289.501 21.6586 289.656 21.911C289.811 22.1634 290.022 22.361 290.299 22.5146C290.576 22.6682 290.886 22.7889 291.24 22.8658C291.595 22.9426 291.982 22.9865 292.392 22.9865C293.223 22.9865 293.921 22.8328 294.485 22.5146C295.05 22.1963 295.338 21.7025 295.338 21.0112C295.338 20.3308 295.05 19.826 294.485 19.5077C293.921 19.1895 293.212 19.0359 292.392 19.0359C291.982 19.0359 291.595 19.0798 291.24 19.1566C290.886 19.2334 290.576 19.3431 290.299 19.5077C290.022 19.6833 289.811 19.8918 289.656 20.1333C289.501 20.3637 289.424 20.66 289.424 21.0002ZM296.235 29.8232H301.441V15.9961H304.775V31.4912C304.775 31.9521 304.62 32.3472 304.299 32.6764C303.977 33.0056 303.59 33.1593 303.125 33.1593H301.441V32.029H296.235V29.8232Z" fill="white"/>
<path d="M307.621 16.7643H317.711V18.97H314.422V20.6161C314.422 21.7464 314.577 22.778 314.876 23.7107C315.175 24.6435 315.552 25.4775 316.006 26.2128C316.46 26.948 316.936 27.5736 317.446 28.1003C317.955 28.627 318.409 29.0331 318.808 29.3404L317.18 31.2608C316.814 31.0523 316.415 30.745 315.961 30.328C315.507 29.911 315.086 29.4391 314.666 28.9343C314.234 28.4405 313.846 27.9247 313.514 27.398C313.181 26.8712 312.949 26.3884 312.827 25.9604C312.694 26.4542 312.461 26.981 312.14 27.5187C311.819 28.0674 311.453 28.5832 311.044 29.088C310.634 29.5818 310.202 30.0427 309.748 30.4707C309.294 30.8986 308.873 31.2498 308.474 31.5242L306.846 29.6037C307.344 29.2416 307.854 28.7917 308.374 28.2539C308.895 27.7162 309.371 27.0688 309.803 26.3225C310.213 25.5873 310.556 24.7533 310.822 23.8095C311.088 22.8658 311.221 21.8123 311.221 20.6271V18.981H307.621V16.7643ZM327.037 15.9961H323.958V22.1525H322.252V15.9961H319.151V39.0742H320.602C321.067 39.0742 321.455 38.9096 321.776 38.5913C322.097 38.2621 322.252 37.878 322.252 37.4391V24.3582H323.958V39.0742H325.509C325.941 39.0742 326.306 38.9096 326.594 38.5913C326.893 38.2621 327.037 37.878 327.037 37.4062V15.9961Z" fill="white"/>
<path d="M347.738 31.4912C347.738 31.9521 347.583 32.3472 347.262 32.6764C346.941 33.0056 346.553 33.1593 346.088 33.1593H344.404V27.5736H331.545C331.091 27.5736 330.703 27.4089 330.382 27.0907C330.05 26.7615 329.895 26.3774 329.895 25.9055V17.0276H340.771V19.2334H333.262V25.3568H344.415V15.9961H347.749V21.6367H351.105V23.8424H347.738V31.4912ZM348.004 36.616V38.8218H334.414C333.949 38.8218 333.55 38.6572 333.218 38.3389C332.885 38.0097 332.73 37.6256 332.73 37.1867V30.745H336.097V36.616H348.004Z" fill="white"/>
<path d="M28.897 -0.00012207C12.9588 -0.00012207 0 12.8503 0 28.6308C0 44.4222 12.9588 57.2617 28.897 57.2617C44.8351 57.2617 57.7939 44.4222 57.7939 28.6308C57.7939 12.8503 44.8241 -0.00012207 28.897 -0.00012207Z" fill="white"/>
<path d="M28.897 55.1954C43.7063 55.1954 55.7117 43.3006 55.7117 28.6276C55.7117 13.9546 43.7063 2.05981 28.897 2.05981C14.0876 2.05981 2.08228 13.9546 2.08228 28.6276C2.08228 43.3006 14.0876 55.1954 28.897 55.1954Z" fill="#8B8B8B"/>
<path d="M9.07085 33.9961L7.5313 33.2499L9.54711 31.9879L9.07085 33.9961ZM12.4601 36.1031L9.81293 32.0538L9.22591 34.7863L12.4601 36.1031ZM9.23698 38.2211L12.4379 36.4762L9.83508 35.3898L9.23698 38.2211ZM8.98224 35.0606C8.92686 35.0387 8.88256 34.9399 8.89363 34.8741L9.00439 34.3034L7.46484 33.5352L8.87148 38.2211L9.52496 35.2911L8.98224 35.0606Z" fill="white"/>
<path d="M10.134 14.399C10.134 14.377 10.1451 14.3551 10.1673 14.3441C10.1673 14.3441 10.1783 14.3441 10.1894 14.3441C10.2005 14.3441 10.2116 14.3441 10.2226 14.3551C10.2448 14.3661 12.0502 16.2207 15.971 16.901C19.8808 17.5814 25.596 21.2796 26.039 26.2288C26.039 26.2618 26.0279 26.2837 25.9947 26.2837C25.9615 26.2837 25.9393 26.2618 25.9282 26.2508C25.8729 26.1081 24.6767 22.5087 21.9188 20.9833C19.6482 19.7213 16.6356 18.9751 15.4394 18.7556C15.1403 18.7008 14.9299 18.6569 14.8081 18.6239C14.7859 18.6239 13.4014 18.3496 12.5818 17.8448L12.471 17.7789L12.4932 17.8997C12.6261 18.602 13.5565 21.4113 14.7305 22.6953C15.3729 23.3976 15.8935 23.9353 16.4584 24.4291C17.2337 25.0985 17.8207 25.7679 18.308 26.5471L18.3634 26.6349C18.452 26.7775 18.5295 26.8983 18.5739 26.9751C18.4742 26.9202 18.308 26.7885 18.0976 26.6459C17.5438 26.2398 16.5027 25.4936 14.8745 24.473C11.3635 22.2782 10.1562 16.2316 10.134 14.399ZM26.6814 33.1973C27.0358 31.1342 27.9994 28.0395 29.9488 26.2179C32.8839 23.4744 36.5943 22.2453 40.205 21.6088C43.1844 21.0821 45.4218 20.1713 46.1085 19.7762C45.7873 20.8626 43.8822 26.3935 41.5009 29.0491C38.3221 32.5827 32.6181 35.0848 32.5627 35.1177C32.5073 35.1397 32.4852 35.2055 32.4962 35.2604C32.5073 35.3043 32.5405 35.3262 32.5848 35.3372C32.5959 35.3372 32.607 35.3372 32.6181 35.3372C35.0548 34.7007 42.0879 31.9682 45.2556 27.0958C47.936 22.9806 49.5309 16.934 49.9297 15.3098C49.9961 15.0574 49.7303 14.8928 49.4755 15.0574C48.523 15.6939 45.9866 17.2741 43.5389 17.9655C40.8142 18.7227 32.0532 20.9394 28.9298 25.2631C26.9251 28.0395 26.4377 31.4853 26.338 33.5265C26.2937 34.5471 26.5153 34.2069 26.6814 33.1973ZM51.3584 36.687C49.6417 35.6993 47.9692 35.0848 46.3743 34.8543C43.262 34.4044 40.9139 35.5128 39.2193 36.5224C36.6386 38.0697 32.6956 40.1876 28.1213 39.6938C27.9994 39.6828 27.8665 39.6609 27.7447 39.6499C23.8349 39.0903 20.6672 36.4456 18.7843 34.9421C18.5074 34.7226 18.2527 34.5141 18.0311 34.3495C16.5691 33.2412 14.4647 32.7912 13.7669 32.6596C14.2764 32.1877 15.3951 30.6952 17.6102 30.6074C19.5264 30.5306 22.6387 31.4415 23.3143 31.7268C23.3808 31.7487 23.4251 31.7707 23.4694 31.7816C23.4694 31.7816 23.4694 31.7816 23.4805 31.7816C23.5358 31.7926 23.5912 31.7487 23.6134 31.6939C23.6355 31.628 23.5912 31.5622 23.5358 31.5512C23.5358 31.5512 23.4805 31.5402 23.3919 31.5073C23.1482 31.4085 22.7716 31.211 22.2843 30.9476C21.0327 30.2782 19.5264 29.532 17.9868 29.3125C17.9093 29.3015 17.8428 29.2906 17.7764 29.2906C15.4726 29.0711 13.7337 30.794 12.8919 31.617L12.8698 31.639C12.0723 32.4181 11.0312 33.3948 11.0201 33.4058C10.9869 33.4387 10.9758 33.4936 10.9869 33.5375C10.998 33.5814 11.0423 33.6033 11.0866 33.6143H11.0976C11.0976 33.6143 11.5739 33.6362 12.2495 33.735C13.0691 33.8557 14.2543 34.0971 15.1957 34.558C16.2147 35.0628 17.1008 35.853 18.4299 37.0491C19.471 37.9819 20.7558 39.1342 22.5944 40.5827C24.0453 41.735 25.9061 42.0971 27.9551 42.3715C30.8902 42.7555 34.2905 41.8008 36.4946 40.3303C39.33 38.4538 42.1212 36.6102 44.5911 36.1383C45.3775 35.9846 46.4629 36.0066 47.8142 36.2041C49.5974 36.4565 51.2255 36.9284 51.2366 36.9284H51.2477C51.3031 36.9284 51.3584 36.9065 51.3806 36.8516C51.436 36.7857 51.4138 36.7199 51.3584 36.687ZM44.8901 38.4757C42.1655 38.0807 40.1607 39.2219 40.0832 39.2768C40.0278 39.3097 40.0057 39.3756 40.0389 39.4305C40.0611 39.4743 40.0943 39.4963 40.1275 39.5073C40.1386 39.5073 40.1607 39.5073 40.1829 39.5073C40.8585 39.3097 41.5341 39.2549 42.1655 39.3536C44.436 39.6719 45.7097 41.735 45.7208 41.7459C45.743 41.7789 45.7762 41.8008 45.8094 41.8008C45.8205 41.8008 45.8427 41.8008 45.8537 41.8008L49.3648 40.8132C49.4091 40.8022 49.4423 40.7693 49.4534 40.7254C49.4645 40.6815 49.4534 40.6376 49.4202 40.6047C48.0025 39.4195 46.4851 38.7062 44.8901 38.4757Z" fill="white"/>
</g>
<defs>
<clipPath id="clip0">
<rect width="351.105" height="57.2618" fill="white"/>
</clipPath>
</defs>
</svg>
