<svg width="30" height="30" viewBox="0 0 30 30" fill="none" xmlns="http://www.w3.org/2000/svg">
<path d="M23.5555 7.67308C22.6666 8.1219 21.7955 8.30418 20.8888 8.57988C19.8924 7.42119 18.415 7.35708 16.9955 7.90482C15.5759 8.45256 14.6462 9.7917 14.6666 11.3278V12.2437C11.7822 12.3198 9.21326 10.966 7.55549 8.57988C7.55549 8.57988 3.83816 15.3882 11.111 18.6555C9.44704 19.7977 7.78749 20.568 5.77771 20.4874C8.71815 22.1389 11.9226 22.7068 14.6968 21.8769C17.879 20.9243 20.4941 18.4668 21.4977 14.7855C21.7971 13.6659 21.9457 12.5092 21.9395 11.3479C21.9377 11.1198 23.2817 8.80887 23.5555 7.67217V7.67308Z" fill="white" stroke="white" stroke-width="0.48492" stroke-linecap="round" stroke-linejoin="round"/>
</svg>
