<svg width="32" height="32" viewBox="0 0 32 32" fill="none" xmlns="http://www.w3.org/2000/svg">
<path d="M16.3348 24.0857C20.6155 24.0857 24.0858 20.6155 24.0858 16.3347C24.0858 12.054 20.6155 8.58371 16.3348 8.58371C12.054 8.58371 8.58376 12.054 8.58376 16.3347C8.58376 20.6155 12.054 24.0857 16.3348 24.0857Z" stroke="#46644C" stroke-width="1.40927" stroke-linecap="round" stroke-linejoin="round"/>
<path d="M9.10054 13.751H23.5691" stroke="#46644C" stroke-width="1.40927" stroke-linecap="round" stroke-linejoin="round"/>
<path d="M9.10054 18.9184H23.5691" stroke="#46644C" stroke-width="1.40927" stroke-linecap="round" stroke-linejoin="round"/>
<path d="M15.9042 8.58371C14.4533 10.9087 13.6841 13.5942 13.6841 16.3347C13.6841 19.0752 14.4533 21.7608 15.9042 24.0857" stroke="#46644C" stroke-width="1.40927" stroke-linecap="round" stroke-linejoin="round"/>
<path d="M16.7655 8.58371C18.2164 10.9087 18.9856 13.5942 18.9856 16.3347C18.9856 19.0752 18.2164 21.7608 16.7655 24.0857" stroke="#46644C" stroke-width="1.40927" stroke-linecap="round" stroke-linejoin="round"/>
</svg>
