<svg width="34" height="34" viewBox="0 0 34 34" fill="none" xmlns="http://www.w3.org/2000/svg">
<path d="M23.3937 23.3947H25.9107C26.5782 23.3947 27.2184 23.1295 27.6905 22.6575C28.1625 22.1854 28.4277 21.5452 28.4277 20.8777V15.8437C28.4277 15.1761 28.1625 14.5359 27.6905 14.0639C27.2184 13.5918 26.5782 13.3266 25.9107 13.3266H8.29159C7.62404 13.3266 6.98383 13.5918 6.5118 14.0639C6.03977 14.5359 5.77458 15.1761 5.77458 15.8437V20.8777C5.77458 21.5452 6.03977 22.1854 6.5118 22.6575C6.98383 23.1295 7.62404 23.3947 8.29159 23.3947H10.8086" stroke="#666666" stroke-width="1.88776" stroke-linecap="round" stroke-linejoin="round"/>
<path d="M23.3928 13.3263V8.29231C23.3928 7.62476 23.1276 6.98455 22.6555 6.51251C22.1835 6.04048 21.5433 5.7753 20.8758 5.7753H13.3247C12.6572 5.7753 12.017 6.04048 11.5449 6.51251C11.0729 6.98455 10.8077 7.62476 10.8077 8.29231V13.3263" stroke="#666666" stroke-width="1.88776" stroke-linecap="round" stroke-linejoin="round"/>
<path d="M20.8758 18.3606H13.3247C11.9346 18.3606 10.8077 19.4875 10.8077 20.8776V25.9116C10.8077 27.3017 11.9346 28.4286 13.3247 28.4286H20.8758C22.2659 28.4286 23.3928 27.3017 23.3928 25.9116V20.8776C23.3928 19.4875 22.2659 18.3606 20.8758 18.3606Z" stroke="#666666" stroke-width="1.88776" stroke-linecap="round" stroke-linejoin="round"/>
</svg>
