<svg width="36" height="36" viewBox="0 0 36 36" fill="none" xmlns="http://www.w3.org/2000/svg" xmlns:xlink="http://www.w3.org/1999/xlink">
<path d="M17.395 25.5623C21.9057 25.5623 25.5624 21.9056 25.5624 17.3948C25.5624 12.8841 21.9057 9.22738 17.395 9.22738C12.8842 9.22738 9.22752 12.8841 9.22752 17.3948C9.22752 21.9056 12.8842 25.5623 17.395 25.5623Z" stroke="#46644C" stroke-width="2.33356" stroke-linecap="round" stroke-linejoin="round"/>
<path d="M17.395 25.5623C21.9057 25.5623 25.5624 21.9056 25.5624 17.3948C25.5624 12.8841 21.9057 9.22738 17.395 9.22738C12.8842 9.22738 9.22752 12.8841 9.22752 17.3948C9.22752 21.9056 12.8842 25.5623 17.395 25.5623Z" stroke="url(#pattern0)" stroke-width="2.33356" stroke-linecap="round" stroke-linejoin="round" style="mix-blend-mode:multiply"/>
<path d="M28.0019 28.002L23.2287 23.2288" stroke="#46644C" stroke-width="2.33356" stroke-linecap="round" stroke-linejoin="round"/>
<path d="M28.0019 28.002L23.2287 23.2288" stroke="url(#pattern1)" stroke-width="2.33356" stroke-linecap="round" stroke-linejoin="round" style="mix-blend-mode:multiply"/>
<defs>
<pattern id="pattern0" patternContentUnits="objectBoundingBox" width="1" height="1">
<use xlink:href="#image0" transform="translate(-0.249908) scale(0.000366166)"/>
</pattern>
<pattern id="pattern1" patternContentUnits="objectBoundingBox" width="1" height="1">
<use xlink:href="#image0" transform="translate(-0.249908) scale(0.000366166)"/>
</pattern>
</defs>
</svg>
