<svg width="30" height="30" viewBox="0 0 30 30" fill="none" xmlns="http://www.w3.org/2000/svg">
<circle cx="15" cy="15" r="15" fill="#2AA8E0"/>
<path d="M22.0072 10.2806C21.3554 10.6 20.7166 10.7297 20.0517 10.9259C19.321 10.1013 18.2376 10.0557 17.1966 10.4455C16.1556 10.8353 15.4737 11.7883 15.4887 12.8815V13.5333C13.3735 13.5874 11.4896 12.624 10.2739 10.9259C10.2739 10.9259 7.54787 15.7711 12.8813 18.0963C11.6611 18.9091 10.4441 19.4574 8.97021 19.4C11.1265 20.5753 13.4765 20.9794 15.5109 20.3889C17.8445 19.7109 19.7623 17.962 20.4982 15.3422C20.7177 14.5454 20.8268 13.7223 20.8222 12.8958C20.8209 12.7335 21.8065 11.0889 22.0072 10.2799V10.2806Z" fill="white" stroke="white" stroke-width="0.345098" stroke-linecap="round" stroke-linejoin="round"/>
</svg>
