<svg width="20" height="20" viewBox="0 0 20 20" fill="none" xmlns="http://www.w3.org/2000/svg">
<g opacity="0.8">
<path d="M7.61236 17.3112V14.7631C7.61236 14.1126 8.14352 13.5853 8.79874 13.5853H11.1939C11.5085 13.5853 11.8103 13.7094 12.0328 13.9303C12.2553 14.1512 12.3803 14.4507 12.3803 14.7631V17.3112C12.3783 17.5816 12.4851 17.8416 12.677 18.0336C12.8689 18.2255 13.1301 18.3334 13.4025 18.3334H15.0366C15.7997 18.3354 16.5323 18.0358 17.0727 17.5008C17.613 16.9657 17.9167 16.2392 17.9167 15.4816V8.22246C17.9167 7.61047 17.6434 7.02995 17.1706 6.63731L11.6117 2.22997C10.6448 1.45722 9.2593 1.48217 8.3212 2.28923L2.88922 6.63731C2.39399 7.01838 2.098 7.60061 2.08337 8.22246V15.4742C2.08337 17.0533 3.37286 18.3334 4.96352 18.3334H6.56028C7.12606 18.3334 7.58587 17.8803 7.58997 17.3186L7.61236 17.3112Z" fill="white"/>
</g>
</svg>
