<svg width="32" height="32" viewBox="0 0 32 32" fill="none" xmlns="http://www.w3.org/2000/svg">
<g clip-path="url(#clip0)">
<path d="M18.9964 15.7873C20.7184 14.3202 21.0479 12.6168 20.6749 10.9446C19.9973 7.96063 17.0692 5.07613 15.8384 3.87012C14.6199 5.0637 11.723 7.91089 11.0205 10.87" stroke="#C3A57A" stroke-width="1.24332" stroke-miterlimit="10"/>
<path d="M15.1354 13.9968C14.2713 11.908 12.7544 11.0688 11.0449 10.901C7.99873 10.6212 4.34959 12.5173 2.82031 13.313C3.57874 14.8423 5.39398 18.4728 7.98629 20.058" stroke="#C3A57A" stroke-width="1.24332" stroke-miterlimit="10"/>
<path d="M12.2444 17.1116C9.9878 17.2856 8.71962 18.473 8.04201 20.0458C6.836 22.8557 7.50739 26.9151 7.79335 28.6122C9.47804 28.3636 13.5002 27.7606 15.8065 25.7837" stroke="#C3A57A" stroke-width="1.24332" stroke-miterlimit="10"/>
<path d="M14.3148 20.8289C13.7864 23.0296 14.5199 24.6024 15.8005 25.7338C18.1007 27.748 22.1663 28.3634 23.8697 28.6121C24.1556 26.9274 24.8208 22.9239 23.6521 20.114" stroke="#C3A57A" stroke-width="1.24332" stroke-miterlimit="10"/>
<path d="M18.4863 20.0082C20.4135 21.1956 22.1355 20.978 23.6088 20.1077C26.2384 18.5411 28.0785 14.8671 28.8432 13.3192C27.3325 12.5297 23.7269 10.6523 20.6932 10.9009" stroke="#C3A57A" stroke-width="1.24332" stroke-miterlimit="10"/>
<path d="M15.1294 14.9853C15.434 15.4018 15.3408 15.9862 14.9243 16.2908C14.5078 16.5954 13.9234 16.5022 13.6188 16.0857C13.3142 15.6691 13.4074 15.0848 13.8239 14.7802C14.2405 14.4756 14.8248 14.5688 15.1294 14.9853Z" fill="#C3A57A"/>
<path d="M13.183 17.4285C13.6741 17.2669 14.1963 17.5342 14.3579 18.0253C14.5196 18.5164 14.246 19.0386 13.7611 19.2002C13.27 19.3619 12.7478 19.0945 12.5862 18.6034C12.4246 18.1123 12.6919 17.5901 13.183 17.4285Z" fill="#C3A57A"/>
<path d="M14.8994 20.0331C14.8994 19.5171 15.3159 19.1006 15.8319 19.1006C16.3479 19.1006 16.7644 19.5171 16.7644 20.0331C16.7644 20.549 16.3479 20.9656 15.8319 20.9656C15.3221 20.9656 14.9056 20.549 14.8994 20.0331Z" fill="#C3A57A"/>
<path d="M17.9145 19.2002C17.4233 19.0448 17.156 18.5164 17.3177 18.0253C17.4793 17.5342 18.0015 17.2669 18.4926 17.4285C18.9837 17.5901 19.251 18.1123 19.0894 18.6034C18.9278 19.0945 18.3993 19.3619 17.9145 19.2002Z" fill="#C3A57A"/>
<path d="M18.0513 16.0857C17.7467 16.5022 17.1623 16.5954 16.7458 16.2908C16.3293 15.9862 16.2361 15.4018 16.5407 14.9853C16.8453 14.5688 17.4296 14.4756 17.8462 14.7802C18.2627 15.0848 18.3559 15.6629 18.0513 16.0857Z" fill="#C3A57A"/>
<path d="M15.8378 18.479C16.3528 18.479 16.7702 18.0615 16.7702 17.5465C16.7702 17.0315 16.3528 16.614 15.8378 16.614C15.3228 16.614 14.9053 17.0315 14.9053 17.5465C14.9053 18.0615 15.3228 18.479 15.8378 18.479Z" fill="#C3A57A"/>
</g>
<defs>
<clipPath id="clip0">
<rect width="27.67" height="26.3148" fill="white" transform="translate(2 3)"/>
</clipPath>
</defs>
</svg>
