<svg width="40" height="40" viewBox="0 0 40 40" fill="none" xmlns="http://www.w3.org/2000/svg">
<circle cx="20" cy="20" r="20" fill="url(#paint0_linear_576:21996)"/>
<path d="M24.2291 10H15.771C12.5823 10 10 12.5373 10 15.6703V23.9808C10 27.1138 12.5823 29.6511 15.771 29.6511H24.2291C27.4178 29.6511 30.0001 27.1138 30.0001 23.9808V15.6703C30.0076 12.5373 27.4178 10 24.2291 10ZM28.1663 24.1279C28.1663 26.2092 26.4522 27.8934 24.3339 27.8934H15.6737C13.5554 27.8934 11.8413 26.2019 11.8413 24.1279V15.6262C11.8413 13.5449 13.5629 11.8607 15.6737 11.8607H24.3264C26.4447 11.8607 28.1588 13.5449 28.1588 15.6262V24.1279H28.1663Z" fill="white"/>
<path d="M20.0003 14.7734C17.1336 14.7734 14.8132 17.0606 14.8132 19.8772C14.8132 22.6938 17.1336 24.9736 20.0003 24.9736C22.8671 24.9736 25.1949 22.6865 25.1949 19.8772C25.1949 17.0606 22.8671 14.7734 20.0003 14.7734ZM20.0003 23.1792C18.1441 23.1792 16.6396 21.701 16.6396 19.8772C16.6396 18.0534 18.1441 16.5678 20.0003 16.5678C21.8566 16.5678 23.3686 18.046 23.3686 19.8772C23.3686 21.701 21.8641 23.1792 20.0003 23.1792Z" fill="white"/>
<path d="M25.3669 13.3906C24.7007 13.3906 24.1543 13.9201 24.1543 14.582C24.1543 15.2366 24.6932 15.7734 25.3669 15.7734C26.0331 15.7734 26.5795 15.2439 26.5795 14.582C26.5795 13.9275 26.0331 13.3906 25.3669 13.3906Z" fill="white"/>
<defs>
<linearGradient id="paint0_linear_576:21996" x1="20" y1="40" x2="25.1429" y2="-8.28571" gradientUnits="userSpaceOnUse">
<stop stop-color="#FFBA33"/>
<stop offset="0.2752" stop-color="#E63C28"/>
<stop offset="0.604142" stop-color="#DA2486"/>
<stop offset="1" stop-color="#004ED6"/>
</linearGradient>
</defs>
</svg>
