<svg width="40" height="40" viewBox="0 0 40 40" fill="none" xmlns="http://www.w3.org/2000/svg">
<circle cx="20" cy="20" r="20" fill="#1FBD01"/>
<path d="M21.708 16.32C21.708 16.32 20.0798 16.32 18.6253 17.7528V12H15V27.1092H18.6688V25.937C18.6688 25.937 19.5371 27.5 21.708 27.5C21.708 27.5 26.8095 27.3046 26.8095 21.8557C26.8095 21.834 26.6141 16.32 21.708 16.32ZM20.9048 24.2871C19.6239 24.2871 18.5819 23.2451 18.5819 21.9643C18.5819 20.6618 19.6239 19.6415 20.9048 19.6415C22.1856 19.6415 23.2276 20.6835 23.2276 21.9643C23.2276 23.2451 22.1856 24.2871 20.9048 24.2871Z" fill="white"/>
</svg>
