<svg width="92" height="92" viewBox="0 0 92 92" fill="none" xmlns="http://www.w3.org/2000/svg">
<path d="M17.9115 73.3301C17.6693 73.3301 17.4295 73.2816 17.2058 73.1873C16.9822 73.093 16.7791 72.9548 16.6083 72.7806C16.4375 72.6064 16.3023 72.3998 16.2105 72.1725C16.1188 71.9451 16.0722 71.7017 16.0735 71.456V49.0479L15.9046 48.8464L13.5797 48.514C13.1408 48.4487 12.7397 48.2254 12.4497 47.885C12.1597 47.5447 12.0001 47.1099 12 46.66V30.136C12 29.6417 12.1936 29.1676 12.5383 28.818C12.883 28.4685 13.3506 28.2721 13.838 28.2721H32.3178L32.5065 28.0706V21.8741C32.5065 21.3771 32.7013 20.9004 33.0478 20.5489C33.3944 20.1975 33.8644 20 34.3545 20H58.8054C59.0476 20 59.2874 20.0486 59.5111 20.1429C59.7348 20.2372 59.9378 20.3754 60.1086 20.5495C60.2794 20.7237 60.4146 20.9304 60.5064 21.1577C60.5982 21.385 60.6448 21.6285 60.6434 21.8741V28.0706L60.8422 28.2721H79.3119C79.7994 28.2721 80.2669 28.4685 80.6116 28.818C80.9563 29.1676 81.15 29.6417 81.15 30.136V46.66C81.1499 47.1099 80.9903 47.5447 80.7002 47.885C80.4102 48.2254 80.0091 48.4487 79.5703 48.514L77.2454 48.8464L77.0765 49.0479V71.456C77.0778 71.7017 77.0312 71.9451 76.9395 72.1725C76.8477 72.3998 76.7125 72.6064 76.5417 72.7806C76.3709 72.9548 76.1678 73.093 75.9441 73.1873C75.7205 73.2816 75.4807 73.3301 75.2385 73.3301H17.9115ZM19.7595 49.6222V69.3805L19.9483 69.582H73.2017L73.4004 69.3805V49.6222L73.1719 49.4207L52.6654 52.3829L52.4865 52.5845V59.053C52.4865 59.5473 52.2929 60.0215 51.9482 60.371C51.6035 60.7206 51.136 60.917 50.6485 60.917H42.5015C42.014 60.917 41.5465 60.7206 41.2018 60.371C40.8571 60.0215 40.6635 59.5473 40.6635 59.053V52.6449L40.4946 52.4434L19.9781 49.4812L19.7595 49.6222ZM44.3395 48.7255V56.9875L44.5383 57.189H48.6118L48.8104 56.9875V48.7255L48.6118 48.524H44.5383L44.3395 48.7255ZM15.6761 32.1915V44.8565L15.845 45.058L40.435 48.6147L40.6635 48.4132V46.66C40.6635 46.1657 40.8571 45.6915 41.2018 45.342C41.5465 44.9924 42.014 44.7961 42.5015 44.7961H50.6485C51.136 44.7961 51.6035 44.9924 51.9482 45.342C52.2929 45.6915 52.4865 46.1657 52.4865 46.66V48.4132L52.715 48.6147L77.305 45.0681L77.4739 44.8666V32.2016L77.2752 32.0001H15.8748L15.6761 32.1915ZM36.1926 23.9295V28.0605L36.3913 28.262H56.7587L56.9574 28.0605V23.9295L56.7587 23.728H36.3913L36.1926 23.9295Z" fill="#1EAEFF"/>
</svg>
