<svg width="92" height="92" viewBox="0 0 92 92" fill="none" xmlns="http://www.w3.org/2000/svg">
<path d="M24.76 81.8609C24.5578 81.8609 24.3575 81.8211 24.1707 81.7437C23.9838 81.6663 23.8141 81.5529 23.6711 81.4099C23.5281 81.2668 23.4146 81.0971 23.3372 80.9102C23.2598 80.7234 23.22 80.5231 23.22 80.3209C23.22 77.6687 24.2736 75.1252 26.1489 73.2498C28.0243 71.3745 30.5678 70.3209 33.22 70.3209H39.55L40.12 69.7509V65.1709L39.59 64.6009C32.0832 64.1197 25.0087 60.9202 19.69 55.6009C19.5434 55.4599 19.4271 55.2905 19.348 55.1031C19.2689 54.9158 19.2288 54.7143 19.23 54.5109C19.2282 54.3074 19.2681 54.1057 19.3472 53.9183C19.4263 53.7308 19.543 53.5615 19.69 53.4209L24.24 48.8709V48.1009C20.6106 43.7655 18.7365 38.228 18.9868 32.5795C19.2371 26.931 21.5937 21.5811 25.5924 17.5837C29.591 13.5863 34.9417 11.2314 40.5903 10.9828C46.2389 10.7343 51.7757 12.6102 56.11 16.2409H56.87L61.42 11.6909C61.7102 11.4039 62.1019 11.2429 62.51 11.2429C62.9182 11.2429 63.3098 11.4039 63.6 11.6909C67.8384 15.9067 70.7697 21.2565 72.0419 27.0976C73.3141 32.9388 72.873 39.023 70.7716 44.6196C68.6703 50.2162 64.998 55.0872 60.1958 58.6476C55.3936 62.208 49.6657 64.3064 43.7 64.6909L43.17 65.2609V69.8409L43.74 70.4109H50.07C52.7222 70.4109 55.2657 71.4644 57.1411 73.3398C59.0164 75.2152 60.07 77.7587 60.07 80.4109C60.07 80.6131 60.0302 80.8134 59.9528 81.0002C59.8754 81.1871 59.762 81.3568 59.619 81.4998C59.476 81.6428 59.3062 81.7563 59.1193 81.8337C58.9325 81.9111 58.7322 81.9509 58.53 81.9509L24.76 81.8609ZM33.2 73.4309C31.7753 73.4313 30.3856 73.8727 29.2217 74.6945C28.0579 75.5164 27.177 76.6784 26.7 78.0209L27.23 78.7809H56.03L56.57 78.0209C56.0918 76.6792 55.2106 75.518 54.047 74.6964C52.8835 73.8747 51.4944 73.4327 50.07 73.4309H33.2ZM26.4 51.0609L23.4 54.0609V54.8909C28.7613 59.4369 35.6362 61.8001 42.6595 61.5112C49.6827 61.2223 56.3403 58.3023 61.3101 53.3313C66.2798 48.3603 69.198 41.702 69.4852 34.6787C69.7723 27.6554 67.4073 20.781 62.86 15.4209H62.03L59.03 18.4209V19.1909C62.61 23.5327 64.4431 29.0531 64.1712 34.6739C63.8994 40.2947 61.5421 45.6124 57.5598 49.5884C53.5775 53.5645 48.2562 55.9134 42.6349 56.1764C37.0136 56.4394 31.4962 54.5977 27.16 51.0109L26.4 51.0609ZM33.2 35.1809C32.491 35.1809 31.8108 35.4619 31.3085 35.9623C30.8062 36.4627 30.5226 37.1418 30.52 37.8509V38.0109C30.5226 38.6855 30.7925 39.3315 31.2704 39.8076C31.7484 40.2836 32.3954 40.5509 33.07 40.5509H33.2C34.7277 40.5509 36.1927 41.1577 37.2729 42.2379C38.3531 43.3182 38.96 44.7832 38.96 46.3109V52.5209L39.47 53.0809C42.0476 53.382 44.6595 53.16 47.1493 52.428C49.639 51.696 51.9555 50.4691 53.96 48.8209L53.67 47.8209C52.1979 47.6703 50.8402 46.959 49.8785 45.8343C48.9168 44.7097 48.4248 43.258 48.5045 41.7804C48.5843 40.3028 49.2296 38.9126 50.3068 37.898C51.3839 36.8833 52.8103 36.3222 54.29 36.3309H60.5L61.07 35.8309C61.1497 35.107 61.1897 34.3792 61.19 33.6509C61.188 29.4583 59.8383 25.3775 57.34 22.0105C54.8417 18.6436 51.3272 16.169 47.3152 14.952C43.3031 13.7349 39.0061 13.8399 35.0583 15.2513C31.1105 16.6628 27.7209 19.306 25.39 22.7909L25.86 23.6709H41.64C43.1274 23.7329 44.5334 24.3673 45.5639 25.4417C46.5945 26.5161 47.1698 27.9472 47.1698 29.4359C47.1698 30.9246 46.5945 32.3557 45.5639 33.4301C44.5334 34.5045 43.1274 35.1389 41.64 35.2009L33.2 35.1809ZM23.2 27.1209C22.4536 29.2099 22.0746 31.4125 22.08 33.6309C22.0748 36.1955 22.5766 38.7358 23.5565 41.1058C24.5365 43.4759 25.9752 45.6288 27.79 47.4409C29.8625 49.5004 32.3611 51.0808 35.11 52.0709L35.87 51.5309V46.2909C35.87 45.5801 35.5877 44.8984 35.0851 44.3958C34.5825 43.8932 33.9008 43.6109 33.19 43.6109H33.03C31.5386 43.6109 30.1081 43.0191 29.0525 41.9655C27.997 40.9118 27.4027 39.4823 27.4 37.9909V37.8509C27.4026 36.3241 28.0104 34.8605 29.09 33.7809C30.1696 32.7012 31.6332 32.0935 33.16 32.0909H41.6C42.2812 32.0492 42.9208 31.7493 43.3884 31.2522C43.856 30.7551 44.1164 30.0983 44.1164 29.4159C44.1164 28.7334 43.856 28.0767 43.3884 27.5796C42.9208 27.0825 42.2812 26.7826 41.6 26.7409H23.7L23.2 27.1209ZM54.28 39.4009C53.5988 39.4426 52.9592 39.7425 52.4916 40.2396C52.024 40.7367 51.7636 41.3934 51.7636 42.0759C51.7636 42.7584 52.024 43.4151 52.4916 43.9122C52.9592 44.4093 53.5988 44.7092 54.28 44.7509H57.41L57.88 44.5009C58.7819 43.1455 59.514 41.6846 60.06 40.1509L59.53 39.4009H54.28Z" fill="#343535"/>
</svg>
