<svg width="92" height="92" viewBox="0 0 92 92" fill="none" xmlns="http://www.w3.org/2000/svg">
<path d="M53.8 79.01C52.3545 79.0143 50.9582 78.478 49.8788 77.5039C48.7993 76.5298 48.1125 75.1863 47.95 73.731L47.65 71.5018L47.21 71.1269C46.87 71.1269 45.85 71.1776 45.34 71.1776C44.83 71.1776 44.41 71.1776 43.94 71.1269L43.5 71.5018L43.2 73.7208C43.0353 75.178 42.3469 76.5227 41.266 77.4983C40.1851 78.4739 38.7875 79.012 37.34 79.01C36.7892 79.0107 36.2409 78.9357 35.71 78.7871C34.5277 78.486 33.3681 78.1 32.24 77.632L31.01 77.1557C30.7822 77.0671 30.5745 76.9324 30.3997 76.7599C30.2248 76.5873 30.0864 76.3806 29.9929 76.1522C29.8993 75.9238 29.8526 75.6785 29.8556 75.4312C29.8585 75.184 29.9111 74.9399 30.01 74.7138L31.77 70.6C32.067 69.9327 32.4614 69.3144 32.94 68.766L32.81 68.0973C31.6908 67.5295 30.6086 66.8899 29.57 66.1823L29 66.2735L27.54 68.1378C27.0003 68.8651 26.301 69.4551 25.4974 69.8613C24.6938 70.2676 23.808 70.4788 22.91 70.4784C22.0937 70.4739 21.2865 70.3039 20.536 69.9785C19.7855 69.6531 19.1069 69.1788 18.54 68.5837C17.3654 67.3535 16.2793 66.0397 15.29 64.6523C15.0213 64.262 14.9138 63.7808 14.9904 63.3113C15.067 62.8418 15.3217 62.4213 15.7 62.1394C16.7 61.4504 17.41 60.8728 18.03 60.3966C18.9701 59.5653 20.0508 58.9131 21.22 58.4715L21.44 57.8331C20.9363 57.0628 20.4756 56.2644 20.06 55.4418C19.92 55.1683 19.78 54.8947 19.65 54.6211L19.12 54.4083L16.99 55.2291C16.285 55.5192 15.5309 55.6672 14.77 55.6648C13.4053 55.6646 12.08 55.2016 11.0053 54.3496C9.93057 53.4975 9.1683 52.3054 8.83999 50.9633C8.52348 49.6284 8.28968 48.2748 8.13998 46.9103L8.01998 45.968C7.99363 45.7277 8.01444 45.4845 8.0812 45.2523C8.14796 45.0202 8.25936 44.8038 8.40899 44.6154C8.55862 44.4271 8.74354 44.2706 8.95309 44.1549C9.16263 44.0392 9.39268 43.9667 9.63 43.9415L14.11 43.5058H14.65C15.2462 43.5059 15.8403 43.5773 16.42 43.7186L16.94 43.2829C16.89 42.1075 16.94 40.9017 16.94 39.7162L16.58 39.1083L14.35 38.8448C13.5069 38.7668 12.6897 38.5089 11.9521 38.088C11.2144 37.6671 10.573 37.0929 10.07 36.4029C9.58495 35.7353 9.24502 34.9712 9.07265 34.1608C8.90029 33.3504 8.8994 32.5122 9.07 31.7014C9.37 30.1106 9.77998 28.6617 10.18 27.152C10.3204 26.6844 10.6364 26.2915 11.06 26.0576C11.3283 25.914 11.6266 25.8376 11.93 25.8347C12.1063 25.8361 12.2815 25.8634 12.45 25.9158L16.75 27.2229C17.4421 27.4626 18.0958 27.804 18.69 28.2361L19.33 28.0233C19.68 27.0101 20.07 25.9969 20.49 24.9836V24.6391C20.01 23.5549 19.6 22.5518 19.26 21.5994C18.9757 20.8241 18.8712 19.9929 18.9547 19.1702C19.0382 18.3475 19.3074 17.5553 19.7414 16.8549C20.1755 16.1545 20.7629 15.5646 21.458 15.1311C22.1531 14.6975 22.9373 14.4319 23.75 14.3546C25.1583 14.2015 26.5736 14.1237 27.99 14.1216C28.42 14.1118 28.8399 14.2542 29.1775 14.5241C29.5152 14.7941 29.7494 15.1749 29.84 15.6009C30.0758 16.8707 30.383 18.1258 30.76 19.3601C31.0116 20.0496 31.1032 20.7884 31.0279 21.5196C30.9526 22.2507 30.7123 22.9544 30.3256 23.5764C29.9389 24.1984 29.4163 24.7219 28.798 25.1065C28.1797 25.4911 27.4824 25.7264 26.76 25.7942C25.85 25.9361 24.97 26.1083 24.03 26.3312L23.74 26.5845C22.2759 29.9657 21.296 33.5414 20.83 37.2034C20.52 39.4731 19.83 47.0927 23.25 53.7193C25.3714 57.8181 28.5452 61.2608 32.4366 63.6844C36.328 66.1079 40.7927 67.4225 45.36 67.4894C50.2362 67.5485 55.0231 66.1613 59.1311 63.4986C63.239 60.8359 66.4887 57.0139 68.48 52.5034C70.3769 48.0742 71.0675 43.2107 70.48 38.4193C70.1215 34.2832 69.1086 30.2324 67.48 26.4224L67.19 26.1792C66.24 25.9563 65.35 25.7841 64.47 25.6422C63.7477 25.5531 63.053 25.3068 62.4333 24.9203C61.8137 24.5338 61.2839 24.0162 60.88 23.4029C60.5197 22.7779 60.2958 22.0819 60.2234 21.3618C60.1509 20.6417 60.2316 19.9142 60.46 19.2283C60.8321 17.9851 61.1425 16.7237 61.39 15.4489C61.4712 15.0544 61.6792 14.6982 61.9813 14.4361C62.2834 14.174 62.6627 14.0206 63.06 14C64.503 14.0002 65.9451 14.078 67.38 14.233C68.1932 14.3073 68.9785 14.5706 69.6749 15.0024C70.3713 15.4343 70.9601 16.023 71.3955 16.7229C71.8308 17.4228 72.101 18.215 72.185 19.0379C72.2691 19.8608 72.1647 20.6923 71.88 21.4676C71.52 22.4809 71.12 23.4941 70.65 24.5074V24.862C71.07 25.8753 71.47 26.8885 71.82 27.9018L72.46 28.1145C73.0492 27.6802 73.6999 27.3386 74.39 27.1013L78.68 25.7942C78.8487 25.7426 79.0238 25.7153 79.2 25.7131C79.5942 25.7137 79.9775 25.8446 80.2915 26.086C80.6056 26.3274 80.8333 26.6661 80.94 27.0506C81.35 28.5604 81.76 30.0904 82.05 31.59C82.224 32.4022 82.2248 33.2427 82.0524 34.0552C81.8799 34.8678 81.5381 35.6337 81.05 36.3016C80.5481 36.9903 79.9083 37.5639 79.1724 37.9847C78.4366 38.4055 77.6213 38.6641 76.78 38.7435L74.52 39.007L74.15 39.4629C74.2345 40.7005 74.2545 41.9418 74.21 43.1815L74.73 43.6172C75.3063 43.4761 75.8971 43.4046 76.49 43.4044H77.04L81.51 43.8402C81.7532 43.8646 81.9891 43.9382 82.2038 44.0565C82.4185 44.1748 82.6076 44.3356 82.76 44.5292C82.91 44.7218 83.0201 44.9432 83.0836 45.18C83.1472 45.4167 83.163 45.6641 83.13 45.9072L83 46.8698C82.8533 48.2106 82.6228 49.5406 82.31 50.8518C82.1181 51.7136 81.7431 52.5226 81.2112 53.2225C80.6793 53.9225 80.0032 54.4966 79.23 54.9048C78.353 55.3681 77.379 55.6113 76.39 55.6141V55.6141C75.6262 55.6126 74.8696 55.4647 74.16 55.1784L72.06 54.4286L71.52 54.6414C71.0113 55.7501 70.43 56.8232 69.78 57.8534L70 58.5019C70.6684 58.7266 71.3015 59.0473 71.88 59.4543L75.51 62.1495C75.8933 62.43 76.1516 62.8527 76.2284 63.3254C76.3052 63.7981 76.1943 64.2824 75.92 64.6725C74.9367 66.0465 73.8608 67.35 72.7 68.5735C72.1299 69.1742 71.4468 69.6531 70.6912 69.982C69.9355 70.3109 69.1224 70.4832 68.3 70.4886C67.4028 70.4902 66.5175 70.2804 65.714 69.876C64.9105 69.4716 64.2108 68.8835 63.67 68.1581L62.22 66.3039L61.65 66.2228C60.6115 66.9251 59.533 67.5646 58.42 68.1378L58.29 68.8066C58.7554 69.3535 59.1425 69.9641 59.44 70.6203L61.2 74.7341C61.2991 74.9642 61.3503 75.2125 61.3503 75.4636C61.3503 75.7147 61.2991 75.963 61.2 76.1932C61.1018 76.4253 60.9581 76.6348 60.7776 76.809C60.5971 76.9832 60.3836 77.1184 60.15 77.2064L58.91 77.6725C57.7895 78.1215 56.636 78.4807 55.46 78.7465C54.9216 78.9128 54.3628 79.0015 53.8 79.01V79.01ZM53.4 70.1035C52.78 70.2859 52.16 70.4379 51.55 70.5696L51.22 71.0459L51.52 73.3257C51.5907 73.8871 51.8615 74.403 52.2815 74.7762C52.7014 75.1494 53.2414 75.3542 53.8 75.3522C54.037 75.354 54.273 75.3199 54.5 75.2508H54.68C55.3593 75.0813 56.0274 74.8681 56.68 74.6125L56.92 74.0349L56.11 72.1402C55.8996 71.5908 55.5437 71.1109 55.0814 70.7534C54.6191 70.3958 54.0684 70.1745 53.49 70.1137L53.4 70.1035ZM37.63 70.1035C37.0537 70.1672 36.5056 70.3898 36.0454 70.7471C35.5852 71.1044 35.2305 71.5827 35.02 72.13L34.2 74.0349L34.44 74.6024C35.0904 74.8642 35.7589 75.0776 36.44 75.2407L36.63 75.2914C36.8572 75.3597 37.093 75.3938 37.33 75.3927C37.8885 75.3948 38.4286 75.1899 38.8485 74.8167C39.2684 74.4435 39.5392 73.9276 39.61 73.3662L39.92 71.0763L39.59 70.6C39.01 70.4683 38.43 70.3265 37.86 70.1643L37.63 70.1035ZM67.77 61.7746C67.4891 61.7621 67.2085 61.8057 66.9443 61.9031C66.68 62.0004 66.4373 62.1496 66.23 62.3421C65.86 62.7271 65.48 63.1121 65.08 63.487V64.0646L66.52 65.8986C66.728 66.1888 66.9999 66.426 67.314 66.5913C67.6282 66.7566 67.976 66.8455 68.33 66.851C68.6618 66.8439 68.9891 66.7704 69.2928 66.6348C69.5966 66.4991 69.8709 66.304 70.1 66.0607C70.61 65.5135 71.1 64.9461 71.62 64.3483L71.55 63.7302L69.83 62.4434C69.229 62.0057 68.51 61.7653 67.77 61.7544V61.7746ZM23.37 61.7746C22.6521 61.7887 21.9551 62.0218 21.37 62.4434L19.64 63.7302L19.57 64.3584C20.07 64.9461 20.57 65.5135 21.08 66.0505C21.3098 66.2965 21.5854 66.4939 21.8909 66.6313C22.1964 66.7687 22.5258 66.8433 22.86 66.851C23.2079 66.851 23.5509 66.7685 23.8617 66.6102C24.1726 66.4519 24.4425 66.222 24.65 65.9391C24.65 65.9391 24.83 65.6959 26.11 64.0646V63.487C25.71 63.1121 25.32 62.7271 24.95 62.3421C24.7412 62.1385 24.493 61.9811 24.221 61.8799C23.949 61.7788 23.6592 61.736 23.37 61.7544V61.7746ZM76.49 47.1535C74.94 47.1535 73.65 48.0654 73.49 48.8861C73.36 49.4637 73.22 49.9906 73.08 50.4972L73.33 51.014L75.53 51.8752C75.8573 52.0002 76.207 52.054 76.5562 52.033C76.9054 52.0119 77.2463 51.9165 77.5567 51.7531C77.8671 51.5896 78.1401 51.3617 78.3577 51.0842C78.5754 50.8067 78.7329 50.4859 78.82 50.1426C79.0086 49.3881 79.1555 48.6236 79.26 47.8526L78.88 47.3663L76.79 47.1636L76.49 47.1535ZM14.39 47.1535L12.28 47.3561L11.9 47.8526C12.001 48.6001 12.1446 49.341 12.33 50.0716C12.4548 50.63 12.7634 51.1288 13.2049 51.4861C13.6465 51.8433 14.1949 52.0377 14.76 52.0373C15.0615 52.0369 15.3601 51.9784 15.64 51.8651L17.83 51.014L18.08 50.4972C17.93 49.95 17.78 49.3927 17.66 48.8355C17.3751 48.2896 16.94 47.8392 16.4075 47.5388C15.875 47.2385 15.268 47.1011 14.66 47.1433L14.39 47.1535ZM75.5 30.6781C74.8952 30.8175 74.3535 31.1572 73.9605 31.6435C73.5675 32.1298 73.3456 32.7349 73.33 33.3632C73.51 34.2548 73.6 34.7614 73.65 35.1059L74.12 35.4707L76.43 35.2073C76.7707 35.1697 77.0998 35.0601 77.3961 34.8855C77.6924 34.711 77.9492 34.4754 78.15 34.194C78.3385 33.9333 78.4707 33.6352 78.5379 33.3192C78.6051 33.0032 78.6058 32.6763 78.54 32.3601C78.41 31.671 78.25 30.9922 78.08 30.3336L77.55 30.0296L75.5 30.6781ZM13.06 30.3336C12.89 31.0124 12.73 31.6812 12.6 32.3601C12.5331 32.6796 12.5333 33.0097 12.6005 33.3292C12.6677 33.6486 12.8004 33.9502 12.99 34.2143C13.1939 34.4972 13.4541 34.7335 13.7538 34.908C14.0536 35.0826 14.3861 35.1914 14.73 35.2275L17.02 35.491L17.48 35.1364C17.63 34.265 17.69 33.9813 17.76 33.6773V33.5152C17.7868 32.8657 17.587 32.2274 17.1956 31.7123C16.8043 31.1972 16.2465 30.8382 15.62 30.6983L13.56 30.0701L13.06 30.3336ZM64.46 18.0327C64.27 18.7927 64.07 19.5627 63.84 20.3125C63.7613 20.5018 63.7208 20.705 63.7208 20.9103C63.7208 21.1157 63.7613 21.3189 63.84 21.5082C64.1136 21.8323 64.5009 22.0358 64.92 22.0756C65.7 22.1972 66.44 22.339 67.22 22.5012L67.7 22.2478C67.99 21.5588 68.25 20.8901 68.48 20.2213C68.5808 19.9705 68.6208 19.6987 68.5964 19.4289C68.572 19.1592 68.4841 18.8993 68.34 18.6711C68.1975 18.4411 68.004 18.2481 67.7748 18.1073C67.5456 17.9666 67.2871 17.8821 67.02 17.8605C66.29 17.7794 65.57 17.7186 64.86 17.6882L64.46 18.0327ZM26.25 17.6983C25.54 17.6983 24.82 17.7895 24.11 17.8605C23.8389 17.8817 23.5765 17.967 23.3437 18.1095C23.111 18.252 22.9145 18.4478 22.77 18.6812C22.6314 18.9078 22.5466 19.164 22.5223 19.4295C22.498 19.695 22.5349 19.9626 22.63 20.2112L22.72 20.4544C22.88 20.9103 23.07 21.417 23.42 22.2478L23.9 22.5012C24.67 22.3289 25.41 22.187 26.18 22.0756C26.6026 22.0306 26.9924 21.8241 27.27 21.498C27.3515 21.3095 27.3936 21.106 27.3936 20.9002C27.3936 20.6944 27.3515 20.4909 27.27 20.3024C27.05 19.5627 26.84 18.7927 26.66 18.0226L26.25 17.6983ZM36.41 58.0965C36.0282 58.0973 35.6563 57.9729 35.35 57.7419C35.0794 57.5408 34.8689 57.2678 34.7418 56.9531C34.6148 56.6384 34.5761 56.2942 34.63 55.9586L36.19 46.8394L36.06 46.4645L29.49 39.9695C29.2495 39.7318 29.0795 39.4307 28.9991 39.1001C28.9188 38.7696 28.9314 38.4228 29.0355 38.0992C29.1395 37.7755 29.3309 37.4878 29.5879 37.2686C29.845 37.0494 30.1575 36.9075 30.49 36.8589L39.57 35.5214L39.89 35.2782L43.96 26.9392C44.106 26.633 44.3348 26.3752 44.6199 26.1958C44.9049 26.0164 45.2344 25.9228 45.57 25.9259C45.9065 25.9245 46.2367 26.0187 46.523 26.1978C46.8094 26.3769 47.0404 26.6337 47.19 26.9392L51.25 35.2782L51.57 35.5214L60.65 36.8589C60.9846 36.9038 61.2999 37.0437 61.5595 37.2625C61.819 37.4812 62.0122 37.7699 62.1168 38.0951C62.2213 38.4204 62.233 38.7689 62.1504 39.1006C62.0678 39.4323 61.8943 39.7335 61.65 39.9695L55.06 46.4138L54.94 46.7887L56.49 55.9079C56.5462 56.2437 56.5086 56.5886 56.3814 56.9038C56.2541 57.219 56.0423 57.4917 55.77 57.6913C55.4636 57.9222 55.0918 58.0466 54.71 58.0459C54.4176 58.0414 54.1301 57.9686 53.87 57.8331L45.75 53.5065H45.35L37.23 57.8331C36.9801 57.9833 36.6996 58.0734 36.41 58.0965V58.0965ZM45.57 49.565C45.8631 49.5644 46.1517 49.6375 46.41 49.7778L51.58 52.5237L52.19 52.0677L51.19 46.2415C51.1376 45.9512 51.1568 45.6523 51.2457 45.3712C51.3347 45.0902 51.4907 44.8358 51.7 44.6305L55.88 40.4964L55.65 39.7568L49.87 38.9056C49.5797 38.8633 49.3044 38.7485 49.0688 38.5716C48.8331 38.3948 48.6446 38.1614 48.52 37.8924L45.93 32.583H45.17L42.58 37.8924C42.4554 38.1614 42.2668 38.3948 42.0312 38.5716C41.7955 38.7485 41.5203 38.8633 41.23 38.9056L35.45 39.7568L35.21 40.4964L39.39 44.6305C39.6003 44.8353 39.7577 45.0893 39.8484 45.3703C39.9391 45.6512 39.9602 45.9504 39.91 46.2415L38.91 52.0677L39.52 52.5237L44.69 49.7778C44.9597 49.6295 45.2633 49.5561 45.57 49.565V49.565Z" fill="#1EAEFF"/>
</svg>
