<svg width="168" height="44" viewBox="0 0 168 44" fill="none" xmlns="http://www.w3.org/2000/svg">
<path d="M53.0997 34.4062C53.0997 33.3302 52.8786 32.5761 52.4365 32.1439C51.9944 31.7118 51.1951 31.5 50.0387 31.5H46.7567V41.1761H48.8823V37.287H50.0472H50.1663C50.8465 37.287 51.3311 37.2362 51.6287 37.143C51.9263 37.0498 52.1814 36.8888 52.4025 36.66C52.6321 36.4313 52.8021 36.1262 52.9212 35.7365C53.0402 35.3552 53.0997 34.9146 53.0997 34.4062ZM50.7189 35.4399C50.5234 35.6348 50.1323 35.7365 49.5371 35.7365H48.8653V33.0251H49.7241C50.2258 33.0251 50.5659 33.1183 50.7445 33.3132C50.9315 33.5081 51.0165 33.8555 51.0165 34.3554C51.008 34.8807 50.9145 35.245 50.7189 35.4399Z" fill="white"/>
<path d="M55.4292 31.5085L52.6743 41.1761H54.7405L55.2507 39.0324H58.0821L58.6092 41.1761H60.7604L58.0396 31.5H55.4292V31.5085ZM55.6248 37.5412L56.6961 33.3556L57.708 37.5412H55.6248Z" fill="white"/>
<path d="M64.1276 31.5117H62.121V41.1878H64.1276V31.5117Z" fill="white"/>
<path d="M74.3565 37.864H72.2904C72.2904 37.9063 72.2904 37.9656 72.2989 38.0419C72.2989 38.1097 72.3074 38.169 72.3074 38.2029C72.3074 38.7451 72.2223 39.1434 72.0608 39.4145C71.8907 39.6772 71.6442 39.8127 71.3125 39.8127C70.8449 39.8127 70.5218 39.5924 70.3432 39.1518C70.1647 38.7112 70.0711 37.8301 70.0711 36.5083C70.0711 34.9323 70.1562 33.924 70.3347 33.4919C70.5133 33.0598 70.8279 32.8395 71.287 32.8395C71.6186 32.8395 71.8652 32.9666 72.0353 33.2123C72.1968 33.458 72.2819 33.8393 72.2819 34.3562V34.5426H74.331V34.3562C74.331 33.3733 74.0759 32.6277 73.5743 32.1362C73.0726 31.6363 72.3244 31.3906 71.3381 31.3906C70.7344 31.3906 70.2072 31.4838 69.7565 31.6787C69.3059 31.8651 68.9573 32.1447 68.7192 32.5091C68.4726 32.8649 68.3026 33.314 68.2005 33.8563C68.073 34.3816 68.022 35.1357 68.022 36.1101C68.022 37.5335 68.107 38.5587 68.2771 39.1942C68.4471 39.8297 68.7277 40.3211 69.1358 40.66C69.3739 40.8634 69.68 41.0244 70.0711 41.143C70.4623 41.2616 70.8874 41.3209 71.3381 41.3209C72.3159 41.3209 73.0726 41.0583 73.5913 40.5329C74.1185 40.0076 74.382 39.2705 74.382 38.3045C74.382 38.1775 74.382 38.0927 74.382 38.0249C74.3735 37.9741 74.365 37.9148 74.3565 37.864Z" fill="white"/>
<path d="M79.9005 35.2907H77.6728V31.5117H75.6237V41.1793H77.6728V36.909H79.9005V41.1793H81.9412V31.5117H79.9005V35.2907Z" fill="white"/>
<path d="M85.9288 31.5085L83.1654 41.1761H85.2316L85.7417 39.0324H88.5732L89.1003 41.1761H91.243L88.5222 31.5H85.9288V31.5085ZM86.1159 37.5412L87.1872 33.3556L88.199 37.5412H86.1159Z" fill="white"/>
<path d="M94.6187 31.5117H92.6121V41.1878H94.6187V31.5117Z" fill="white"/>
<path d="M103.47 37.375C103.47 38.4087 103.376 39.095 103.189 39.4254C103.002 39.7559 102.671 39.9253 102.186 39.9253C101.684 39.9253 101.344 39.7813 101.157 39.4763C100.97 39.1797 100.876 38.4765 100.876 37.375V31.5117H98.8358V37.9003C98.8358 39.095 99.1079 39.9762 99.6436 40.5439C100.179 41.1116 101.021 41.3996 102.169 41.3996C103.359 41.3996 104.21 41.1116 104.728 40.5269C105.247 39.9423 105.502 38.9764 105.502 37.6207V31.5117H103.478V37.375H103.47Z" fill="white"/>
<path d="M118.418 31.5117H116.411V41.1878H118.418V31.5117Z" fill="white"/>
<path d="M123.111 38.4595L121.47 31.5117H119.464L121.904 41.1793H124.31L126.751 31.5117H124.744L123.111 38.4595Z" fill="white"/>
<path d="M112.508 38.2901L110.026 31.5117H109.26H108.299H107.262V41.1793H109.26V34.1383L111.845 41.1793H112.508H113.571H114.515V31.5117H112.508V38.2901Z" fill="white"/>
<path d="M127.915 41.1793H133.153V39.6288H129.982V36.8158H133.153V35.3161H129.982V33.0114H133.153V31.5117H127.915V41.1793Z" fill="white"/>
<path d="M140.908 38.4139C140.925 37.6683 140.857 36.677 139.403 36.3889C140.763 36.0754 140.891 34.7282 140.891 33.9826C140.891 33.0421 140.61 32.3981 140.176 32.0338C139.743 31.6779 138.935 31.5 137.736 31.5H134.828V41.1761H136.877V37.1938H137.736C138.136 37.1938 138.416 37.2955 138.586 37.4904C138.756 37.6852 138.875 38.0242 138.858 38.5071C138.841 39.0579 138.807 40.4898 139.028 41.1846H141.154C140.831 40.3034 140.891 38.9986 140.908 38.4139ZM138.535 35.3721C138.323 35.5755 137.932 35.6772 137.379 35.6772H136.869V33.0251H137.413C137.983 33.0251 138.357 33.1183 138.552 33.2963C138.748 33.4742 138.85 33.8131 138.85 34.3045C138.858 34.8044 138.748 35.1688 138.535 35.3721Z" fill="white"/>
<path d="M146.222 35.627C145.091 34.9491 144.496 34.4069 144.496 33.8138C144.496 33.3901 144.7 32.8478 145.524 32.8478C146.409 32.8478 146.511 33.8392 146.511 34.2882H148.526V34.0849C148.526 33.0851 148.194 31.382 145.524 31.3481C142.838 31.3142 142.489 33.119 142.489 33.9324C142.489 35.6015 143.756 36.2031 145.125 37.1521C146.111 37.8384 146.587 38.0502 146.587 38.6857C146.587 39.533 145.882 39.8295 145.516 39.8295C144.164 39.8295 144.326 38.5925 144.326 38.1434H142.319C142.319 38.1434 142.319 38.2366 142.319 38.3214C142.319 41.1005 144.258 41.3462 145.516 41.3462C148.075 41.3462 148.594 39.7194 148.594 38.6942C148.611 38.0079 148.645 37.0758 146.222 35.627Z" fill="white"/>
<path d="M152.055 31.5117H150.048V41.1878H152.055V31.5117Z" fill="white"/>
<path d="M152.795 33.0877H155.116V41.1793H157.224V33.0877H159.571V31.5117H152.795V33.0877Z" fill="white"/>
<path d="M164.996 31.5117L163.423 35.5448L162.003 31.5117H159.733L162.284 37.5445V41.1793H164.375V37.5445L167.13 31.5117H164.996Z" fill="white"/>
<path d="M48.2274 20.7657H56.9937C57.793 20.7488 58.4392 20.0963 58.4392 19.2914V6.03125H55.3187V11.6403H49.9025V6.03125H46.7819V19.2914C46.7734 20.0879 47.4197 20.7488 48.2274 20.7657ZM49.9025 14.0721H55.3187V18.3001H49.9025V14.0721V14.0721Z" fill="white"/>
<path d="M166.093 23.9361V6.41406H148.407V8.92205H162.683V22.8431H159.631L159.622 16.0309H156.255V22.8431H153.832V16.0309H150.456V22.8431H147.123V25.3511H164.715C165.464 25.3172 166.076 24.6987 166.093 23.9361Z" fill="white"/>
<path d="M142.336 11.7596H145.091V9.25163H142.336V6.02344H138.926V17.7924H124.336V20.3003H138.926V26.5873H141.069C141.783 26.4771 142.328 25.8671 142.328 25.1299V11.7596H142.336Z" fill="white"/>
<path d="M115.416 11.5641H113.809V6.03125H110.629V18.9017H102.645V8.53924H108.852V6.03125H99.21V19.6049C99.21 20.2743 99.3461 20.7572 99.6182 21.0538C99.8732 21.291 100.29 21.4096 100.851 21.4096H110.621V26.5951H112.355C113.155 26.5781 113.801 25.9172 113.801 25.1208V14.1229H115.408V26.6036H117.176V26.5951C117.993 26.5951 118.656 25.9342 118.656 25.1208V6.03125H115.399V11.5641H115.416Z" fill="white"/>
<path d="M68.2684 6.03125H65.0204V11.5726H63.4134V6.03125H60.2333V26.5951H61.9594C62.7587 26.5781 63.4049 25.9172 63.4049 25.1208V14.1229H65.0119V26.6036H66.7805V26.5951C67.5967 26.5951 68.2599 25.9342 68.2599 25.1208V6.03125H68.2684Z" fill="white"/>
<path d="M123.571 11.9206C123.571 14.6828 126.223 16.9196 129.488 16.9196C132.762 16.9196 135.415 14.6828 135.415 11.9206C135.415 10.8784 135.041 9.90402 134.386 9.10757H136.384V6.75209H131.317V4.87109H127.686V6.75209H122.627V9.10757H124.591C123.953 9.90402 123.571 10.8699 123.571 11.9206ZM129.497 8.98894C131.044 8.98894 132.303 10.2768 132.303 11.8613C132.303 13.4457 131.044 14.7336 129.497 14.7336C127.949 14.7336 126.691 13.4457 126.691 11.8613C126.691 10.2684 127.949 8.98894 129.497 8.98894Z" fill="white"/>
<path d="M89.5341 25.1123V14.1229H91.1411V26.6036H92.9097V26.5951C93.726 26.5951 94.3892 25.9342 94.3892 25.1208V6.03125H91.1326V11.5726H89.5256V6.03125H86.3456V26.5951H88.0801C88.8879 26.5781 89.5341 25.9172 89.5341 25.1123Z" fill="white"/>
<path d="M78.8375 16.8004C79.4327 18.0967 80.351 19.1474 81.5924 19.9523C82.7233 20.6979 83.9987 21.1639 85.4101 21.3588V18.5966C83.7946 17.995 80.6316 17.0545 80.5126 8.62397H84.7299V6.03125H72.9536V8.62397H77.1625C77.0434 17.0545 73.8889 17.9866 72.2649 18.5966V21.3588C73.6763 21.1724 74.9518 20.6979 76.0826 19.9523C77.324 19.1474 78.2423 18.0967 78.8375 16.8004Z" fill="white"/>
<path d="M26.6221 2.36395C23.3911 2.36395 20.3556 1.49971 17.7453 0C15.1349 1.50818 12.1079 2.36395 8.86838 2.36395C5.63733 2.36395 2.61035 1.50818 0 0V15.7173C0 27.7065 6.73418 38.1282 16.6399 43.4323C17.0055 43.6272 17.3711 43.8136 17.7453 44C18.1194 43.8221 18.485 43.6272 18.8506 43.4323C28.7648 38.1282 35.499 27.7065 35.499 15.7173V0C32.8887 1.50818 29.8532 2.36395 26.6221 2.36395ZM1.8536 15.7512H11.8699V19.6488L4.03881 27.4523C2.62735 24.0547 1.8536 20.3266 1.8536 16.4206V15.7512V15.7512ZM17.7453 42.2037C15.0074 40.8142 12.5161 39.0094 10.3564 36.8658L17.7878 29.4604L25.1597 36.8319C23.0085 38.984 20.5087 40.8057 17.7453 42.2037ZM31.4857 27.393L23.7057 19.6233V15.7512H33.6539V16.4206C33.6454 20.3012 32.8802 24.0039 31.4857 27.393Z" fill="#005BAA"/>
<path d="M23.6973 15.75H33.6455V16.4194C33.6455 20.3 32.8717 24.0111 31.4773 27.3918L23.6973 19.6221V15.75V15.75Z" fill="white"/>
<path d="M25.168 36.8324C23.0083 38.993 20.5 40.8147 17.7451 42.2042C15.0072 40.8147 12.5159 39.0099 10.3562 36.8663L17.7876 29.4609L25.168 36.8324Z" fill="white"/>
<path d="M11.8699 15.75V19.6476L4.03884 27.4511C2.62739 24.0535 1.85364 20.3254 1.85364 16.4194V15.75H11.8699Z" fill="white"/>
<path d="M23.6462 8.65757C23.6462 11.9027 21.0018 14.5378 17.7453 14.5378C14.4887 14.5378 11.8444 11.9027 11.8444 8.65757C11.8444 5.41243 14.4887 2.77734 17.7453 2.77734C21.0103 2.77734 23.6462 5.41243 23.6462 8.65757Z" fill="white"/>
<path d="M23.0341 8.66014C23.0341 5.77086 20.6959 3.42386 17.8049 3.39844C17.7879 3.39844 17.7539 3.39844 17.7539 3.39844C14.8375 3.39844 12.4737 5.75392 12.4737 8.66014C12.4737 11.524 14.7609 13.8456 17.6179 13.9218C17.6689 13.9218 17.7709 13.9218 17.7709 13.9218C20.6704 13.9218 23.0341 11.5664 23.0341 8.66014ZM13.1114 8.66014C13.1114 6.21145 15.016 4.21184 17.4308 4.05085V7.74506H18.06V4.0678C19.0888 4.22879 19.9221 5.13539 19.9221 6.20298C19.9221 7.37225 18.9103 8.33816 17.7454 8.33816C16.1894 8.33816 14.9395 9.57521 14.9395 11.1258C14.9395 11.685 15.101 12.2018 15.3816 12.6339C14.0212 11.8205 13.1114 10.3463 13.1114 8.66014ZM18.06 13.2694V9.56674H17.4308V13.2525C16.402 13.0915 15.5602 12.1849 15.5602 11.1258C15.5602 9.9565 16.5805 8.98211 17.7539 8.98211C19.3014 8.98211 20.5598 7.75353 20.5598 6.20298C20.5598 5.65224 20.3983 5.13539 20.1177 4.6948C21.4696 5.49973 22.3794 6.97402 22.3794 8.66014C22.3794 11.1088 20.4748 13.1084 18.06 13.2694Z" fill="#ED1C24"/>
</svg>
