<svg width="40" height="40" viewBox="0 0 40 40" fill="none" xmlns="http://www.w3.org/2000/svg">
<path d="M20.389 38.7008L19.706 38.3548C19.558 38.2798 19.414 38.2027 19.268 38.1227C11.017 33.6677 5.88702 25.0518 5.88702 15.6407V2.46875L7.99102 3.39375C9.68802 4.13975 11.501 4.51775 13.381 4.51775C15.614 4.51775 17.734 3.99275 19.68 2.95575L20.383 2.58175L21.087 2.95475C24.683 4.85675 29.107 5.00675 32.785 3.39275L34.888 2.47075V15.6407C34.888 25.0518 29.755 33.6678 21.492 38.1268C21.341 38.2088 21.204 38.2828 21.07 38.3528L20.389 38.7008ZM8.88702 6.89775V15.6407C8.88702 23.8267 13.282 31.3308 20.383 35.3118C27.496 31.3168 31.887 23.8188 31.887 15.6407V6.89675C28.158 7.95575 23.963 7.63475 20.386 5.95675C16.833 7.62875 12.624 7.95975 8.88702 6.89775Z" fill="#0080FF"/>
<path d="M28.344 16C28.295 18.156 27.945 20.261 27.297 22.281L23.504 17.718V15.999L28.344 16ZM17.324 16V17.737L13.488 22.338C12.828 20.3 12.473 18.177 12.428 16H17.324ZM20.412 23.796L23.995 27.717C22.874 29.57 21.802 30.696 20.385 31.517C18.767 30.556 17.478 29.07 16.756 27.783L20.412 23.796ZM29.35 14H22.504C21.951 14 21.504 14.448 21.504 15V18.08C21.504 18.313 21.584 18.54 21.733 18.719L26.871 24.902C27.061 25.131 27.346 25.26 27.639 25.26C27.69 25.26 27.743 25.256 27.791 25.248C28.139 25.192 28.434 24.963 28.565 24.638C29.711 21.825 30.339 18.751 30.348 15.534V15.532V14.999C30.35 14.448 29.904 14 29.35 14ZM18.324 14H11.424C10.871 14 10.424 14.448 10.424 15V15.533C10.424 18.772 11.061 21.866 12.223 24.69C12.358 25.012 12.651 25.245 12.996 25.296C13.046 25.305 13.096 25.309 13.146 25.309C13.44 25.309 13.724 25.178 13.916 24.95L19.092 18.742C19.242 18.562 19.324 18.336 19.324 18.102V15.001C19.324 14.448 18.875 14 18.324 14ZM20.415 21.315C20.134 21.315 19.866 21.43 19.677 21.637L14.816 26.936C14.546 27.231 14.476 27.658 14.64 28.022C15.56 30.078 17.554 32.333 19.925 33.544C20.068 33.617 20.224 33.652 20.38 33.652C20.536 33.652 20.692 33.617 20.835 33.545C23.255 32.311 24.7 30.555 26.1 28.076C26.313 27.699 26.259 27.23 25.968 26.91L21.154 21.639C20.963 21.433 20.697 21.315 20.415 21.315Z" fill="#0080FF"/>
<path d="M20.388 12.3555C21.4926 12.3555 22.388 11.46 22.388 10.3555C22.388 9.2509 21.4926 8.35547 20.388 8.35547C19.2834 8.35547 18.388 9.2509 18.388 10.3555C18.388 11.46 19.2834 12.3555 20.388 12.3555Z" stroke="#FF62A4" stroke-width="2"/>
</svg>
