<svg width="40" height="40" viewBox="0 0 40 40" fill="none" xmlns="http://www.w3.org/2000/svg">
<path d="M14.6432 19.0634C15.7778 21.3828 17.6579 23.2545 19.9826 24.3784C20.1526 24.459 20.3408 24.4939 20.5285 24.4797C20.7161 24.4655 20.8969 24.4027 21.0529 24.2975L24.4757 22.015C24.6271 21.9141 24.8013 21.8525 24.9825 21.8358C25.1637 21.8192 25.3462 21.848 25.5134 21.9197L31.9169 24.6641C32.1344 24.7565 32.316 24.917 32.4344 25.1216C32.5527 25.3262 32.6013 25.5637 32.5729 25.7984C32.3705 27.3821 31.5978 28.8378 30.3994 29.8928C29.201 30.9479 27.6591 31.5299 26.0625 31.53C21.1311 31.53 16.4017 29.571 12.9147 26.084C9.42773 22.597 7.46875 17.8676 7.46875 12.9363C7.46883 11.3396 8.05089 9.79778 9.10593 8.59939C10.161 7.401 11.6167 6.62826 13.2004 6.42587C13.435 6.39747 13.6725 6.4461 13.8771 6.56442C14.0817 6.68274 14.2423 6.86435 14.3347 7.08187L17.0815 13.491C17.1525 13.6567 17.1815 13.8375 17.1657 14.0172C17.15 14.1969 17.0901 14.3698 16.9913 14.5208L14.7168 17.9961C14.6133 18.1524 14.5521 18.333 14.5392 18.52C14.5263 18.7071 14.5622 18.8943 14.6432 19.0634V19.0634Z" stroke="#0080FF" stroke-width="2.5" stroke-linecap="round" stroke-linejoin="round"/>
</svg>
