<svg width="40" height="40" viewBox="0 0 40 40" fill="none" xmlns="http://www.w3.org/2000/svg">
<g clip-path="url(#clip0_144_11675)">
<path d="M20.0225 11.3475C24.7993 11.3475 28.6976 15.2458 28.6976 20.0225C28.6976 24.7993 24.7993 28.6976 20.0225 28.6976C15.2458 28.6976 11.3475 24.7993 11.3475 20.0225C11.3475 15.2458 15.2458 11.3475 20.0225 11.3475ZM20.0225 9.70033C14.3124 9.70033 9.70032 14.3124 9.70032 20.0225C9.70032 25.7327 14.3124 30.3447 20.0225 30.3447C25.7327 30.3447 30.3447 25.7327 30.3447 20.0225C30.3447 14.3124 25.7327 9.70033 20.0225 9.70033Z" fill="#0080FF" stroke="#0080FF" stroke-width="0.549053" stroke-miterlimit="10"/>
<path d="M20.0225 16.2889C22.1089 16.2889 23.7561 17.991 23.7561 20.0225C23.7561 22.054 22.054 23.7561 20.0225 23.7561C17.991 23.7561 16.2889 22.054 16.2889 20.0225C16.2889 17.991 17.991 16.2889 20.0225 16.2889ZM20.0225 14.6418C17.0576 14.6418 14.6418 17.0576 14.6418 20.0225C14.6418 22.9874 17.0576 25.4032 20.0225 25.4032C22.9874 25.4032 25.4032 22.9874 25.4032 20.0225C25.4032 17.0576 22.9874 14.6418 20.0225 14.6418Z" fill="#FF62A4" stroke="#FF62A4" stroke-width="0.549053" stroke-miterlimit="10"/>
<path d="M20.0228 10.524C19.5835 10.524 19.1992 10.1396 19.1992 9.70038V5.19814C19.1992 4.75889 19.5835 4.37456 20.0228 4.37456C20.462 4.37456 20.8463 4.75889 20.8463 5.19814V9.70038C20.8463 10.1945 20.5169 10.524 20.0228 10.524Z" fill="#0080FF" stroke="#0080FF" stroke-width="0.549053" stroke-miterlimit="10"/>
<path d="M21.7248 6.02172H18.3756C17.9363 6.02172 17.552 5.63738 17.552 5.19814C17.552 4.75889 17.9363 4.37456 18.3756 4.37456H21.7248C22.164 4.37456 22.5484 4.75889 22.5484 5.19814C22.5484 5.63738 22.164 6.02172 21.7248 6.02172Z" fill="#0080FF" stroke="#0080FF" stroke-width="0.549053" stroke-miterlimit="10"/>
<path d="M14.9713 12.0615C14.6968 12.0615 14.4222 11.8968 14.2575 11.6222L12.7202 9.04168C12.5006 8.65734 12.6104 8.16319 12.9947 7.94357C13.379 7.72395 13.8732 7.83376 14.0928 8.2181L15.6302 10.8536C15.8498 11.2379 15.74 11.732 15.3556 11.9517C15.2458 12.0615 15.0811 12.0615 14.9713 12.0615Z" fill="#0080FF" stroke="#0080FF" stroke-width="0.549053" stroke-miterlimit="10"/>
<path d="M12.0066 10.2496C11.7321 10.2496 11.4575 10.0848 11.2928 9.81031C11.0732 9.42597 11.183 8.93182 11.5673 8.7122L14.4773 7.06504C14.8617 6.84542 15.3558 6.95523 15.5754 7.33957C15.795 7.72391 15.6852 8.21806 15.3009 8.43768L12.3909 10.0848C12.2811 10.2496 12.1164 10.2496 12.0066 10.2496Z" fill="#0080FF" stroke="#0080FF" stroke-width="0.549053" stroke-miterlimit="10"/>
<path d="M11.2378 15.7947C11.0731 15.7947 10.9632 15.7398 10.8534 15.6849L8.21798 14.1476C7.83364 13.9279 7.66893 13.4338 7.94345 13.0495C8.16307 12.6651 8.65722 12.5004 9.04156 12.7749L11.677 14.3123C12.0614 14.5319 12.2261 15.0261 11.9515 15.4104C11.8417 15.63 11.5123 15.7947 11.2378 15.7947Z" fill="#0080FF" stroke="#0080FF" stroke-width="0.549053" stroke-miterlimit="10"/>
<path d="M7.77865 15.6852C7.61393 15.6852 7.50412 15.6303 7.39431 15.5754C7.00997 15.3557 6.84526 14.8616 7.11978 14.4773L8.76694 11.5673C8.98656 11.1829 9.48071 11.0182 9.86505 11.2927C10.2494 11.5124 10.4141 12.0065 10.1396 12.3908L8.49242 15.3008C8.3277 15.5754 8.05317 15.6852 7.77865 15.6852Z" fill="#0080FF" stroke="#0080FF" stroke-width="0.549053" stroke-miterlimit="10"/>
<path d="M9.70039 20.8464H5.19815C4.75891 20.8464 4.37457 20.462 4.37457 20.0228C4.37457 19.5835 4.75891 19.1992 5.19815 19.1992H9.70039C10.1396 19.1992 10.524 19.5835 10.524 20.0228C10.524 20.5169 10.1945 20.8464 9.70039 20.8464Z" fill="#0080FF" stroke="#0080FF" stroke-width="0.549053" stroke-miterlimit="10"/>
<path d="M5.19815 22.5484C4.75891 22.5484 4.37457 22.164 4.37457 21.7248V18.3756C4.37457 17.9363 4.75891 17.552 5.19815 17.552C5.6374 17.552 6.02173 17.9363 6.02173 18.3756V21.7248C6.02173 22.164 5.6374 22.5484 5.19815 22.5484Z" fill="#0080FF" stroke="#0080FF" stroke-width="0.549053" stroke-miterlimit="10"/>
<path d="M8.60201 27.4347C8.32748 27.4347 8.05296 27.27 7.88824 26.9955C7.66862 26.6111 7.77843 26.117 8.16277 25.8974L10.7982 24.36C11.1826 24.1404 11.6767 24.2502 11.8963 24.6345C12.116 25.0189 12.0061 25.513 11.6218 25.7326L9.04125 27.3249C8.87654 27.4347 8.76673 27.4347 8.60201 27.4347Z" fill="#0080FF" stroke="#0080FF" stroke-width="0.549053" stroke-miterlimit="10"/>
<path d="M9.42556 28.9169C9.15103 28.9169 8.87651 28.7522 8.71179 28.4777L7.06463 25.5677C6.84501 25.1834 6.95482 24.6892 7.33916 24.4696C7.7235 24.25 8.21764 24.3598 8.43727 24.7441L10.0844 27.6541C10.304 28.0384 10.1942 28.5326 9.8099 28.7522C9.75499 28.862 9.59028 28.9169 9.42556 28.9169Z" fill="#0080FF" stroke="#0080FF" stroke-width="0.549053" stroke-miterlimit="10"/>
<path d="M13.4338 32.2667C13.2691 32.2667 13.1593 32.2118 13.0495 32.1568C12.6651 31.9372 12.5004 31.4431 12.7749 31.0587L14.3123 28.4233C14.5319 28.0389 15.0261 27.8742 15.4104 28.1488C15.7947 28.3684 15.9594 28.8625 15.6849 29.2469L14.1476 31.8823C13.9829 32.1568 13.7083 32.2667 13.4338 32.2667Z" fill="#0080FF" stroke="#0080FF" stroke-width="0.549053" stroke-miterlimit="10"/>
<path d="M14.8615 33.145C14.6968 33.145 14.587 33.0901 14.4772 33.0352L11.5672 31.388C11.1829 31.1684 11.0181 30.6742 11.2927 30.2899C11.5123 29.9056 12.0064 29.7409 12.3908 30.0154L15.3008 31.6625C15.6851 31.8822 15.8498 32.3763 15.5753 32.7606C15.4655 32.9803 15.1909 33.145 14.8615 33.145Z" fill="#0080FF" stroke="#0080FF" stroke-width="0.549053" stroke-miterlimit="10"/>
<path d="M20.0228 35.7255C19.5835 35.7255 19.1992 35.3412 19.1992 34.9019V30.3997C19.1992 29.9605 19.5835 29.5761 20.0228 29.5761C20.462 29.5761 20.8463 29.9605 20.8463 30.3997V34.9019C20.8463 35.3412 20.5169 35.7255 20.0228 35.7255Z" fill="#0080FF" stroke="#0080FF" stroke-width="0.549053" stroke-miterlimit="10"/>
<path d="M21.7248 35.7252H18.3756C17.9363 35.7252 17.552 35.3409 17.552 34.9017C17.552 34.4624 17.9363 34.0781 18.3756 34.0781H21.7248C22.164 34.0781 22.5484 34.4624 22.5484 34.9017C22.5484 35.3409 22.164 35.7252 21.7248 35.7252Z" fill="#0080FF" stroke="#0080FF" stroke-width="0.549053" stroke-miterlimit="10"/>
<path d="M26.6111 32.2665C26.3366 32.2665 26.0621 32.1018 25.8974 31.8273L24.4149 29.2467C24.1953 28.8624 24.3051 28.3682 24.6894 28.1486C25.0738 27.929 25.5679 28.0388 25.7875 28.4231L27.3249 31.0586C27.5445 31.4429 27.4347 31.9371 27.0504 32.1567C26.9406 32.2665 26.7758 32.2665 26.6111 32.2665Z" fill="#0080FF" stroke="#0080FF" stroke-width="0.549053" stroke-miterlimit="10"/>
<path d="M25.1838 33.1451C24.9093 33.1451 24.6347 32.9804 24.47 32.7059C24.2504 32.3215 24.3602 31.8274 24.7446 31.6078L27.6545 29.9606C28.0389 29.741 28.533 29.8508 28.7526 30.2351C28.9723 30.6195 28.8625 31.1136 28.4781 31.3332L25.5681 32.9804C25.4583 33.0902 25.3485 33.1451 25.1838 33.1451Z" fill="#0080FF" stroke="#0080FF" stroke-width="0.549053" stroke-miterlimit="10"/>
<path d="M31.4431 27.4348C31.2783 27.4348 31.1685 27.3799 31.0587 27.325L28.4233 25.7876C28.0389 25.568 27.8742 25.0738 28.1487 24.6895C28.3684 24.3052 28.8625 24.1405 29.2469 24.415L31.8823 25.9523C32.2666 26.1719 32.4314 26.6661 32.1568 27.0504C32.047 27.325 31.7725 27.4348 31.4431 27.4348Z" fill="#0080FF" stroke="#0080FF" stroke-width="0.549053" stroke-miterlimit="10"/>
<path d="M30.6196 28.9175C30.4548 28.9175 30.345 28.8625 30.2352 28.8076C29.8509 28.588 29.6862 28.0939 29.9607 27.7095L31.6079 24.7996C31.8275 24.4152 32.3216 24.2505 32.706 24.525C33.0903 24.7446 33.255 25.2388 32.9805 25.6231L31.3333 28.5331C31.1686 28.7527 30.8941 28.9175 30.6196 28.9175Z" fill="#0080FF" stroke="#0080FF" stroke-width="0.549053" stroke-miterlimit="10"/>
<path d="M34.902 20.8464H30.1802C29.7409 20.8464 29.3566 20.462 29.3566 20.0228C29.3566 19.5835 29.7409 19.1992 30.1802 19.1992H34.902C35.3413 19.1992 35.7256 19.5835 35.7256 20.0228C35.7256 20.5169 35.3413 20.8464 34.902 20.8464Z" fill="#0080FF" stroke="#0080FF" stroke-width="0.549053" stroke-miterlimit="10"/>
<path d="M34.902 22.5484C34.4627 22.5484 34.0784 22.164 34.0784 21.7248V18.3756C34.0784 17.9363 34.4627 17.552 34.902 17.552C35.3412 17.552 35.7256 17.9363 35.7256 18.3756V21.7248C35.7256 22.164 35.3412 22.5484 34.902 22.5484Z" fill="#0080FF" stroke="#0080FF" stroke-width="0.549053" stroke-miterlimit="10"/>
<path d="M28.8075 15.7946C28.533 15.7946 28.2585 15.6299 28.0938 15.3554C27.8742 14.9711 27.984 14.4769 28.3683 14.2573L31.0038 12.7199C31.3881 12.5003 31.8822 12.6101 32.1019 12.9945C32.3215 13.3788 32.2117 13.8729 31.8273 14.0926L29.1919 15.6299C29.0821 15.7397 28.9723 15.7946 28.8075 15.7946Z" fill="#0080FF" stroke="#0080FF" stroke-width="0.549053" stroke-miterlimit="10"/>
<path d="M32.3216 15.685C32.047 15.685 31.7725 15.5203 31.6078 15.2458L29.9606 12.3358C29.741 11.9514 29.8508 11.4573 30.2352 11.2377C30.6195 11.018 31.1136 11.1279 31.3333 11.5122L32.9804 14.4222C33.2 14.8065 33.0902 15.3007 32.7059 15.5203C32.5961 15.685 32.4314 15.685 32.3216 15.685Z" fill="#0080FF" stroke="#0080FF" stroke-width="0.549053" stroke-miterlimit="10"/>
<path d="M25.1289 12.0613C24.9642 12.0613 24.8544 12.0064 24.7446 11.9515C24.3603 11.7319 24.1955 11.2377 24.4701 10.8534L26.0074 8.21795C26.227 7.83361 26.7212 7.66889 27.1055 7.94342C27.4899 8.16304 27.6546 8.65719 27.38 9.04153L25.8427 11.677C25.678 11.9515 25.4035 12.0613 25.1289 12.0613Z" fill="#0080FF" stroke="#0080FF" stroke-width="0.549053" stroke-miterlimit="10"/>
<path d="M28.0938 10.2494C27.9291 10.2494 27.8193 10.1945 27.7095 10.1396L24.7995 8.49245C24.4152 8.27283 24.2504 7.77868 24.525 7.39434C24.7446 7.01 25.2387 6.84529 25.6231 7.11981L28.5331 8.76697C28.9174 8.98659 29.0821 9.48074 28.8076 9.86508C28.6429 10.1396 28.3683 10.2494 28.0938 10.2494Z" fill="#0080FF" stroke="#0080FF" stroke-width="0.549053" stroke-miterlimit="10"/>
</g>
<defs>
<clipPath id="clip0_144_11675">
<rect width="31.9" height="31.9" fill="white" transform="translate(4.1001 4.1001)"/>
</clipPath>
</defs>
</svg>
