<svg width="40" height="40" viewBox="0 0 40 40" fill="none" xmlns="http://www.w3.org/2000/svg">
<path d="M12.4736 32.3404L7.57275 29.6036V24.1936L12.4736 26.9304V32.3404Z" stroke="#FF62A4" stroke-width="1.90941" stroke-miterlimit="10" stroke-linecap="round" stroke-linejoin="round"/>
<path d="M17.3108 29.6036L12.4736 32.3404V26.9304L17.3108 24.1936V29.6036Z" stroke="#FF62A4" stroke-width="1.90941" stroke-miterlimit="10" stroke-linecap="round" stroke-linejoin="round"/>
<path d="M17.2993 24.1934L12.4736 26.9939L7.57275 24.1934L12.4736 21.5203L17.2993 24.1934Z" stroke="#FF62A4" stroke-width="1.90941" stroke-miterlimit="10" stroke-linecap="round" stroke-linejoin="round"/>
<path d="M37.423 14.3281V32.2129C37.423 34.3132 29.5945 35.9681 19.9201 35.9681C10.2458 35.9681 2.41724 34.3132 2.41724 32.2765V14.3281C2.41724 16.4285 10.2458 18.0833 19.9201 18.0833C29.5945 18.0833 37.423 16.4285 37.423 14.3281Z" stroke="#0080FF" stroke-width="2.5" stroke-miterlimit="10" stroke-linecap="round" stroke-linejoin="round"/>
<path d="M2.41772 13.7554C2.41772 15.4102 6.23654 16.8105 11.8375 17.5106V10.0002C6.23654 10.7004 2.41772 12.1642 2.41772 13.7554Z" stroke="#0080FF" stroke-width="2.5" stroke-miterlimit="10" stroke-linecap="round" stroke-linejoin="round"/>
<path d="M37.4232 13.7552C37.4232 15.41 33.6043 16.8102 28.0034 17.5103V10C33.6043 10.7001 37.4232 12.164 37.4232 13.7552Z" stroke="#0080FF" stroke-width="2.5" stroke-miterlimit="10" stroke-linecap="round" stroke-linejoin="round"/>
<path d="M21.5112 22.7295C25.521 22.7295 29.1489 22.4113 31.8857 21.9021" stroke="#FF62A4" stroke-width="1.90941" stroke-miterlimit="10" stroke-linecap="round" stroke-linejoin="round"/>
<path d="M21.5112 26.8667C25.521 26.8667 29.1489 26.5485 31.8857 26.0393" stroke="#FF62A4" stroke-width="1.90941" stroke-miterlimit="10" stroke-linecap="round" stroke-linejoin="round"/>
<path d="M21.5112 30.94C25.521 30.94 29.1489 30.6217 31.8857 30.1125" stroke="#FF62A4" stroke-width="1.90941" stroke-miterlimit="10" stroke-linecap="round" stroke-linejoin="round"/>
</svg>
