<svg width="345" height="359" viewBox="0 0 345 359" fill="none" xmlns="http://www.w3.org/2000/svg">
<path d="M156.502 114.603C156.529 114.639 156.56 114.68 156.599 114.73C156.784 115.238 157.072 115.742 157.556 116.043C158.185 116.433 158.851 116.317 159.356 116.054C159.829 115.808 160.26 115.394 160.646 114.935C161.038 114.47 161.438 113.894 161.841 113.239C162.594 112.185 164.533 109.74 166.454 107.328C166.657 107.072 166.86 106.817 167.062 106.564C168.755 104.439 170.327 102.466 170.835 101.758L171.023 101.174V101.174V101.174V101.174V101.174V101.173V101.173V101.173V101.173V101.172V101.172V101.172V101.172V101.172V101.171V101.171V101.171V101.171V101.17V101.17V101.17V101.17V101.169V101.169V101.169V101.169V101.169V101.168V101.168V101.168V101.168V101.167V101.167V101.167V101.167V101.166V101.166V101.166V101.166V101.165V101.165V101.165V101.165V101.164V101.164V101.164V101.164V101.163V101.163V101.163V101.163V101.163V101.162V101.162V101.162V101.162V101.161V101.161V101.161V101.161V101.16V101.16V101.16V101.16V101.159V101.159V101.159V101.159V101.158V101.158V101.158V101.158V101.157V101.157V101.157V101.157V101.156V101.156V101.156V101.156V101.155V101.155V101.155V101.155V101.154V101.154V101.154V101.154V101.153V101.153V101.153V101.153V101.152V101.152V101.152V101.152V101.151V101.151V101.151V101.151V101.15V101.15V101.15V101.149V101.149V101.149V101.149V101.148V101.148V101.148V101.148V101.147V101.147V101.147V101.147V101.146V101.146V101.146V101.146V101.145V101.145V101.145V101.145V101.144V101.144V101.144V101.143V101.143V101.143V101.143V101.142V101.142V101.142V101.142V101.141V101.141V101.141V101.141V101.14V101.14V101.14V101.14V101.139V101.139V101.139V101.138V101.138V101.138V101.138V101.137V101.137V101.137V101.137V101.136V101.136V101.136V101.135V101.135V101.135V101.135V101.134V101.134V101.134V101.134V101.133V101.133V101.133V101.133V101.132V101.132V101.132V101.131V101.131V101.131V101.131V101.13V101.13V101.13V101.13V101.129V101.129V101.129V101.128V101.128V101.128V101.128V101.127V101.127V101.127V101.127V101.126V101.126V101.126V101.125V101.125V101.125V101.125V101.124V101.124V101.124V101.123V101.123V101.123V101.123V101.122V101.122V101.122V101.122V101.121V101.121V101.121V101.12V101.12V101.12V101.12V101.119V101.119V101.119V101.118V101.118V101.118V101.118V101.117V101.117V101.117V101.117V101.116V101.116V101.116V101.115V101.115V101.115V101.115V101.114V101.114V101.114V101.113V101.113V101.113V101.113V101.112V101.112V101.112V101.112V101.111V101.111V101.111V101.11V101.11V101.11V101.11V101.109V101.109V101.109V101.108V101.108V101.108V101.108V101.107V101.107V101.107V101.106V101.106V101.106V101.106V101.105V101.105V101.105V101.104V101.104V101.104V101.104V101.103V101.103V101.103V101.103V101.102V101.102V101.102V101.101V101.101V101.101V101.101V101.1V101.1V101.1V101.099V101.099V101.099V101.099V101.098V101.098V101.098V101.097V101.097V101.097V101.097V101.096V101.096V101.096V101.095V101.095V101.095V101.095V101.094V101.094V101.094V101.093V101.093V101.093V101.093V101.092V101.092V101.092V101.092V101.091V101.091V101.091V101.09V101.09V101.09V101.09V101.089V101.089V101.089V101.088V101.088V101.088V101.088V101.087V101.087V101.087V101.086V101.086V101.086V101.086V101.085V101.085V101.085V101.084V101.084V101.084V101.084V101.083V101.083V101.083V101.083V101.082V101.082V101.082V101.081V101.081V101.081V101.081V101.08V101.08V101.08V101.079V101.079V101.079V101.079V101.078V101.078V101.078V101.077V101.077V101.077V101.077V101.076V101.076V101.076V101.076V101.075V101.075V101.075V101.074V101.074V101.074V101.074V101.073V101.073V101.073V101.073V101.072V101.072V101.072V101.071V101.071V101.071V101.071V101.07V101.07V101.07V101.069V101.069V101.069V101.069V101.068V101.068V101.068V101.068V101.067V101.067V101.067V101.066V101.066V101.066V101.066V101.065V101.065V101.065V101.065V101.064V101.064V101.064V101.063V101.063V101.063V101.063V101.062V101.062V101.062V101.062V101.061V101.061V101.061V101.06V101.06V101.06V101.06V101.059V101.059V101.059V101.059V101.058V101.058V101.058V101.058V101.057V101.057V101.057V101.056V101.056V101.056V101.056V101.055V101.055V101.055V101.055V101.054V101.054V101.054V101.054V101.053V101.053V101.053V101.052V101.052V101.052V101.052V101.051V101.051V101.051V101.051V101.05V101.05V101.05V101.05V101.049V101.049V101.049V101.049V101.048V101.048V101.048V101.047V101.047V101.047V101.047V101.046V101.046V101.046V101.046V101.045V101.045V101.045V101.045V101.044V101.044V101.044V101.044V101.043V101.043V101.043V101.043V101.042V101.042V101.042V101.042V101.041V101.041V101.041V101.041V101.04V101.04V101.04V101.04V101.039V101.039V101.039V101.039V101.038V101.038L171.023 101.015C170.979 99.0791 170.654 97.1588 170.059 95.3101C169.851 93.6112 170.191 92.3583 171.086 90.2533C171.574 89.271 171.81 88.0986 171.918 87.0077C172.029 85.8926 172.015 84.7897 171.961 83.9226L171.931 83.7313C171.751 83.0431 171.39 82.1263 170.977 81.2745C170.637 80.5713 170.226 79.8374 169.805 79.2839C169.832 78.7882 170.043 78.4987 170.338 78.2656C170.764 77.9292 171.375 77.711 172.108 77.4743L172.331 77.3706C173.026 76.9369 173.747 76.2945 173.705 75.3728C173.684 74.9181 173.475 74.5595 173.255 74.3059C173.038 74.0568 172.77 73.8619 172.519 73.7093C172.02 73.4055 171.405 73.1616 170.886 72.9694C170.698 72.8999 170.525 72.838 170.368 72.7814C170.047 72.6664 169.789 72.5737 169.587 72.4837L169.088 72.4017C167.498 72.5497 166.455 72.5582 165.569 72.4777C164.681 72.397 163.919 72.2245 162.857 71.9725L162.782 71.9578C158.378 71.2592 157.442 70.7154 156.623 70.0152L156.288 69.8261C155.691 69.6284 155.54 69.4511 155.512 69.4081L155.512 69.4078C155.508 69.4039 155.461 69.3501 155.526 69.09C155.6 68.7964 155.77 68.4241 156.039 67.8947C156.081 67.8109 156.125 67.7238 156.171 67.6338C156.398 67.1905 156.661 66.6751 156.894 66.1258L156.94 65.9932C157.122 65.3078 157.827 63.6432 158.667 61.7727C159.278 60.4127 159.931 59.0075 160.442 57.9061C160.62 57.5229 160.781 57.1765 160.917 56.8815L160.983 56.69C161.313 55.2743 161.214 53.7037 161.025 52.3884C160.881 51.3898 160.67 50.4548 160.525 49.8129C160.479 49.611 160.44 49.4381 160.412 49.3014L160.055 48.722C159.707 48.4451 159.378 48.2109 159.094 48.0096C159.047 47.9758 159 47.9428 158.955 47.9108C158.632 47.68 158.388 47.4981 158.183 47.3058C157.832 46.9776 157.557 46.5871 157.385 45.7983C157.347 45.0486 157.305 44.4547 157.25 43.987C157.194 43.5165 157.119 43.1069 156.991 42.7743C156.851 42.4121 156.617 42.0674 156.214 41.8569C155.89 41.6871 155.546 41.6637 155.379 41.6523L155.36 41.651L155.27 41.6488C152.673 41.7005 151.331 41.6566 150.651 41.5233C150.606 41.5145 150.567 41.5059 150.533 41.4976C150.576 40.3452 150.496 37.2126 150.032 35.0776L149.984 34.9195C149.394 33.4388 148.422 32.7104 147.351 32.3461C146.851 32.1757 146.344 32.0897 145.901 32.0258C145.769 32.0068 145.646 31.99 145.528 31.9741C145.284 31.9409 145.065 31.9112 144.852 31.8724C143.541 31.1354 142.099 31.2475 140.916 31.457C140.505 31.5296 140.075 31.6249 139.679 31.7126C139.487 31.7552 139.302 31.796 139.133 31.8315C138.575 31.9481 138.116 32.0215 137.728 32.0215L137.626 32.0267C137.042 32.0864 136.652 32.088 136.393 32.0567C136.213 32.0349 136.135 32.0018 136.11 31.9888C136.103 31.9748 136.091 31.9456 136.077 31.8921C136.043 31.7579 136.021 31.5651 136.004 31.2577C136.217 29.8113 135.97 28.3382 135.299 27.0324C134.954 26.0022 133.963 25.5788 133.137 25.406C132.238 25.2182 131.148 25.2335 130.081 25.332C127.929 25.5307 125.555 26.1016 124.265 26.4494L123.832 26.694C123.372 27.137 123.099 27.6136 122.845 28.2131C122.693 28.5733 122.529 29.027 122.33 29.5777C122.223 29.8749 122.105 30.2003 121.974 30.5545L121.935 30.6872C121.375 33.2245 120.457 34.0161 120.312 34.13L120.206 34.2086L119.886 34.6061C119.443 35.6024 118.811 36.2007 117.88 37.0815C117.726 37.2272 117.564 37.3806 117.393 37.5448C117.111 37.8163 116.591 38.1933 115.881 38.6405C115.186 39.0779 114.36 39.5506 113.504 40.0154C111.792 40.9452 109.998 41.8229 108.969 42.2935L108.596 42.5881C108.129 43.1869 107.243 43.6934 105.93 44.3569C105.812 44.4163 105.692 44.4767 105.569 44.5382C104.408 45.1213 103.045 45.8053 101.824 46.7472L101.531 47.1124C100.745 48.7789 100.619 50.8891 100.716 52.7575C100.814 54.6549 101.151 56.4472 101.402 57.564L102.2 57.8671L102.046 58.2322C102.218 58.3046 102.419 58.484 102.634 58.9381C102.85 59.3963 103.017 59.9985 103.195 60.7377C103.231 60.8891 103.268 61.0466 103.306 61.2082C103.443 61.7974 103.594 62.4417 103.781 63.0483C104.007 63.782 104.31 64.5459 104.774 65.2034C105.849 67.9313 107.88 69.586 110.766 70.5532C110.799 70.5715 110.832 70.5896 110.863 70.6074C110.771 70.6083 110.675 70.607 110.576 70.6032L110.51 70.6028C108.522 70.6584 107.367 69.5831 105.149 67.5172C105.051 67.4262 104.951 67.3332 104.849 67.2383C104.45 66.6469 104.092 65.7655 103.721 64.7322C103.64 64.5051 103.557 64.2698 103.474 64.0312C103.184 63.2032 102.881 62.337 102.555 61.6465L102.555 61.6465L102.55 61.6371C102.248 61.0147 101.69 60.6883 101.137 60.5418C100.599 60.3994 99.9902 60.4014 99.3848 60.4753C98.1661 60.6242 96.6879 61.1003 95.1875 61.7644L95.0877 61.8154C94.5946 62.1036 94.1073 62.4661 93.8498 63.003C93.5642 63.5984 93.6629 64.1777 93.8201 64.6371C93.9533 65.0263 94.1794 65.4683 94.4081 65.9152C94.4322 65.9625 94.4565 66.0099 94.4806 66.0572C94.7308 66.5478 95.0184 67.1213 95.3157 67.828C95.4638 69.7477 96.0134 71.0038 96.608 71.8083C96.9113 72.2186 97.2164 72.4979 97.4639 72.6815C97.5872 72.7731 97.6953 72.8402 97.7807 72.8879C97.7858 72.8908 97.7909 72.8936 97.7959 72.8963C99.8324 74.5713 100.608 75.4856 101.031 76.2149C101.247 76.5869 101.388 76.9383 101.559 77.3933C101.576 77.4389 101.593 77.4854 101.611 77.533C101.769 77.9567 101.957 78.4596 102.241 79.0606L102.338 79.2236C103.058 80.207 103.275 80.8124 103.286 81.1765C103.293 81.4256 103.208 81.6919 102.719 82.0529C102.312 82.334 102.065 82.3909 101.72 82.4702C101.627 82.4915 101.527 82.5145 101.415 82.5439C101.125 82.6201 100.782 82.7414 100.431 83.0143C100.094 83.2765 99.8065 83.633 99.5316 84.0946L99.3973 84.492C99.2475 85.7939 99.6301 86.8678 100.395 87.6695C101.125 88.4339 102.132 88.8788 103.135 89.1318L103.334 89.161C104.539 89.2165 105.546 88.5213 106.33 87.8174C106.879 87.3243 107.449 86.6998 107.99 86.1067C108.207 85.8683 108.42 85.635 108.625 85.4173C108.905 85.2164 109.93 84.9887 110.967 86.2286C110.991 86.2715 111.015 86.313 111.037 86.3532C111.161 86.5734 111.264 86.7576 111.348 86.9391C111.356 86.9555 111.363 86.9713 111.37 86.9866C111.226 87.0051 111.017 87.0177 110.723 87.009L110.643 87.0099C109.698 87.0572 108.9 87.355 108.341 87.9542C107.788 88.5452 107.596 89.2934 107.575 89.9869C107.538 91.2459 108.054 92.6359 108.611 93.6666C108.661 94.1931 108.81 94.6997 109.144 95.0999C109.565 95.6044 110.138 95.7759 110.665 95.7759C111.158 95.7759 111.657 95.6299 112.098 95.4543C112.525 95.2843 112.965 95.059 113.392 94.8189C114.208 94.5373 114.533 94.6173 114.637 94.6714C114.711 94.71 114.901 94.8576 115.038 95.5018C115.038 95.7212 115.07 95.9228 115.111 96.0937C115.054 96.0912 114.992 96.0878 114.927 96.0836L114.812 96.0827C113.121 96.1674 111.866 96.6585 111.049 97.5505C110.481 98.1692 110.199 98.8998 110.08 99.6272C109.919 99.6349 109.787 99.6374 109.68 99.6357C109.586 99.6342 109.521 99.6295 109.478 99.6249C109.404 99.5334 109.262 99.3622 109.056 99.1892L108.316 98.9598C107.934 98.9971 107.717 99.0066 107.583 99.0034C107.468 99.0006 107.446 98.989 107.446 98.989C107.412 98.9775 107.399 98.9717 107.37 98.9578C107.337 98.9425 107.283 98.9171 107.156 98.8632C106.966 98.783 106.728 98.6956 106.383 98.607L106.134 98.5756C106.042 98.5756 105.97 98.5737 105.891 98.5716C105.84 98.5703 105.786 98.5688 105.722 98.5678C105.586 98.5655 105.402 98.5651 105.215 98.5924C105.018 98.6211 104.775 98.6855 104.539 98.8421C104.295 99.0031 104.122 99.219 104.003 99.454C103.79 99.8713 103.723 100.402 103.695 100.963C103.666 101.55 103.676 102.329 103.714 103.35C103.676 104.061 103.596 104.373 103.546 104.5C103.535 104.526 103.536 104.53 103.535 104.53C103.534 104.531 103.532 104.529 103.52 104.537C103.512 104.543 103.501 104.55 103.488 104.558C103.364 104.639 103.045 104.848 102.82 105.263C102.602 105.667 102.503 106.185 102.462 106.851L102.461 106.862C102.421 107.647 102.412 108.279 102.455 108.777C102.495 109.247 102.591 109.754 102.887 110.158C103.239 110.64 103.731 110.797 104.146 110.833C104.47 110.861 104.839 110.821 105.137 110.79C105.164 110.787 105.189 110.784 105.214 110.781L105.749 110.555C105.954 110.385 106.245 110.17 106.594 109.913C107.659 109.128 109.257 107.949 110.547 106.444C111.118 106.302 111.518 106.214 111.808 106.163C112.155 106.103 112.287 106.106 112.334 106.111C112.335 106.111 112.336 106.112 112.338 106.112C112.356 106.113 112.37 106.115 112.507 106.173L112.525 106.181C112.671 106.244 112.879 106.333 113.184 106.417L113.031 106.477C112.736 106.689 112.368 106.866 111.922 107.046C111.772 107.106 111.588 107.176 111.392 107.25C111.093 107.364 110.768 107.487 110.508 107.598C109.62 107.978 108.501 108.598 108.185 109.953C107.596 110.99 107.391 112.067 107.475 113.012C107.56 113.968 107.96 114.917 108.714 115.445L109.26 115.626C109.933 115.644 110.44 115.644 110.825 115.624C111.005 115.615 111.175 115.6 111.335 115.577C111.034 115.859 110.835 116.223 110.753 116.648C110.656 117.153 110.737 117.684 110.888 118.194C111.042 118.713 111.294 119.291 111.624 119.927L111.687 120.031C112.802 121.655 113.561 122.634 114.351 123.142C115.152 123.656 115.942 123.649 116.675 123.643C116.756 123.642 116.836 123.641 116.915 123.641C117.49 123.641 117.987 123.555 118.436 123.358C118.886 123.162 119.221 122.884 119.501 122.604C119.707 122.398 119.875 122.209 120.04 122.022C120.359 121.663 120.669 121.313 121.232 120.869L121.27 120.838C121.323 120.792 121.376 120.746 121.427 120.7C121.582 120.565 121.733 120.433 121.893 120.304C121.881 120.374 121.871 120.441 121.861 120.505C121.858 120.53 121.854 120.554 121.85 120.578C121.79 120.97 121.742 121.219 121.622 121.47L122.446 122.896C122.84 122.928 123.232 122.947 123.523 122.958C123.669 122.963 123.791 122.967 123.877 122.969L123.978 122.971L124.006 122.972L124.013 122.972L124.015 122.972L124.016 122.972L124.016 122.972H124.016L124.2 122.958C125.75 122.695 129.773 121.414 131.267 120.933L131.446 120.855C131.679 120.726 132.053 120.609 132.597 120.528C133.13 120.447 133.761 120.409 134.469 120.397C135.297 120.382 136.129 120.401 136.985 120.421C137.66 120.437 138.349 120.452 139.063 120.452L139.074 120.452C140.528 120.436 141.413 120.855 142.159 121.387C142.479 121.615 142.765 121.857 143.08 122.125C143.163 122.194 143.247 122.266 143.334 122.339C143.736 122.676 144.192 123.042 144.728 123.34L144.757 123.359L144.758 123.36C144.787 123.378 144.858 123.424 144.945 123.466L146.372 122.453C146.353 122.282 146.443 121.898 146.945 121.259C147.418 120.656 148.129 119.989 148.984 119.295C150.393 118.153 152.07 117.038 153.469 116.106C153.77 115.906 154.058 115.714 154.328 115.532L154.333 115.529C155.036 115.05 155.535 114.756 155.895 114.587C156.073 114.504 156.201 114.459 156.289 114.436C156.316 114.429 156.337 114.424 156.355 114.421C156.4 114.468 156.438 114.518 156.502 114.603ZM116.614 114.84C116.149 114.961 115.421 114.984 114.183 114.947C114.374 114.922 114.549 114.884 114.708 114.825C115.03 114.706 115.22 114.521 115.304 114.439C115.311 114.433 115.316 114.427 115.321 114.422L115.327 114.417C115.334 114.41 115.341 114.404 115.348 114.397C115.849 114.366 116.26 114.341 116.606 114.334C116.84 114.329 117.018 114.332 117.152 114.342C117.092 114.52 117.034 114.606 116.992 114.653C116.946 114.702 116.858 114.776 116.614 114.84ZM122.515 119.907C122.515 119.907 122.513 119.908 122.509 119.908C122.513 119.907 122.515 119.907 122.515 119.907ZM114.966 73.2305L115.036 72.976C115.036 72.976 115.036 72.976 115.036 72.9761L115.036 72.9754L115.039 72.9607C115.042 72.9439 115.046 72.9161 115.053 72.8787C115.068 72.8037 115.091 72.6915 115.127 72.5546C115.199 72.277 115.315 71.916 115.491 71.5608C115.854 70.8302 116.352 70.3339 117.075 70.2867C118.349 70.2596 119.132 69.8809 119.717 69.4731C119.846 69.3826 119.963 69.2928 120.057 69.2207L120.065 69.2144C120.167 69.1361 120.237 69.0828 120.302 69.0384C120.423 68.9562 120.458 68.9542 120.465 68.9534L120.771 68.8631C121.207 68.6544 121.542 68.4409 121.821 68.252C121.903 68.1966 121.976 68.1468 122.042 68.1013C122.216 67.982 122.347 67.892 122.498 67.8053C122.813 67.6245 123.207 67.4646 124.087 67.4528C124.627 67.5681 125.228 67.6453 125.776 67.7158C126.012 67.7461 126.238 67.7752 126.446 67.8055C127.185 67.9136 127.751 68.0425 128.157 68.2476C128.635 68.6892 129.171 68.961 129.562 69.1591C129.598 69.1773 129.632 69.1948 129.666 69.2118C130.143 69.4563 130.36 69.5981 130.495 69.7892L130.784 70.0604C131.12 70.2687 131.296 70.5105 131.405 70.8686C131.53 71.2798 131.568 71.856 131.531 72.724L131.531 72.7482C131.523 73.1452 131.499 73.497 131.475 73.8371C131.468 73.9402 131.461 74.0422 131.454 74.144C131.429 74.5403 131.405 75.0069 131.484 75.4199C131.574 75.8904 131.82 76.3977 132.387 76.699C132.838 76.9382 133.366 76.9739 133.876 76.9429C133.948 76.9519 134.014 76.9601 134.077 76.9678C134.325 76.9984 134.509 77.0212 134.671 77.052C134.715 77.0602 134.751 77.0681 134.78 77.0752C134.781 77.1763 134.77 77.3396 134.728 77.5916L134.715 77.7314C134.679 79.2659 134.409 80.1768 133.816 80.944C133.17 81.4754 132.668 81.8039 132.041 82.0522C131.373 82.317 130.51 82.5115 129.108 82.6948C127.636 82.8138 126.636 83.032 125.846 83.2097L125.828 83.2137C125.036 83.392 124.565 83.4981 124.007 83.483L123.98 83.4826C122.797 83.4826 122.163 83.328 121.651 83.1129C121.377 82.9983 121.117 82.8573 120.794 82.6741C120.74 82.6432 120.683 82.6109 120.625 82.5776C120.45 82.4778 120.258 82.3681 120.048 82.2532C119.791 81.3833 119.445 80.5403 119.015 79.7367C118.757 78.9902 118.438 78.3572 117.841 77.7588C117.283 77.1994 116.525 76.716 115.487 76.1572C114.932 75.5656 114.709 75.2859 114.618 74.9827C114.54 74.7201 114.524 74.268 114.966 73.2305ZM117.21 114.072C117.21 114.072 117.21 114.073 117.21 114.076L117.21 114.072ZM102.794 58.2444L102.726 58.0664L102.962 58.1561C102.962 58.1563 102.962 58.1563 102.962 58.1563L102.962 58.1564L102.962 58.1565L102.962 58.1568L102.961 58.1574L102.959 58.1586L102.956 58.1606L102.951 58.1643C102.948 58.1664 102.944 58.1694 102.938 58.1732C102.935 58.1748 102.931 58.1776 102.925 58.1812C102.919 58.1846 102.912 58.1886 102.904 58.1931C102.892 58.1997 102.852 58.2221 102.794 58.2444ZM136.101 31.9834C136.101 31.9834 136.101 31.9836 136.102 31.9841L136.101 31.9834ZM136.113 31.9948C136.116 31.9977 136.117 31.9996 136.117 31.9998C136.117 32.0001 136.116 31.9986 136.113 31.9948Z" fill="#423154" stroke="white" stroke-width="2" stroke-linejoin="bevel"/>
</svg>
