<svg width="1000" height="1000" viewBox="0 0 1000 1000" fill="none" xmlns="http://www.w3.org/2000/svg">
<path fill-rule="evenodd" clip-rule="evenodd" d="M47 17C46.4477 17 46 16.5523 46 16L46 4C46 3.44771 46.4477 3 47 3C47.5523 3 48 3.44771 48 4L48 16C48 16.5523 47.5523 17 47 17Z" fill="#222222"/>
<path fill-rule="evenodd" clip-rule="evenodd" d="M53 17C52.4477 17 52 16.5523 52 16L52 4C52 3.44771 52.4477 3 53 3C53.5523 3 54 3.44771 54 4L54 16C54 16.5523 53.5523 17 53 17Z" fill="#222222"/>
<path fill-rule="evenodd" clip-rule="evenodd" d="M47 37C46.4477 37 46 36.5523 46 36L46 24C46 23.4477 46.4477 23 47 23C47.5523 23 48 23.4477 48 24L48 36C48 36.5523 47.5523 37 47 37Z" fill="white"/>
<path fill-rule="evenodd" clip-rule="evenodd" d="M53 37C52.4477 37 52 36.5523 52 36L52 24C52 23.4477 52.4477 23 53 23C53.5523 23 54 23.4477 54 24L54 36C54 36.5523 53.5523 37 53 37Z" fill="white"/>
<path d="M13.125 15.8333L7 9.99996L13.125 4.16663" stroke="#222222" stroke-width="2" stroke-linecap="round" stroke-linejoin="round"/>
<path d="M13.125 35.8333L7 30L13.125 24.1666" stroke="white" stroke-width="2" stroke-linecap="round" stroke-linejoin="round"/>
<path d="M27.875 4.16671L34 10L27.875 15.8334" stroke="#222222" stroke-width="2" stroke-linecap="round" stroke-linejoin="round"/>
<path d="M27.875 24.1667L34 30L27.875 35.8334" stroke="white" stroke-width="2" stroke-linecap="round" stroke-linejoin="round"/>
<path d="M75.7258 10.4362L67.6706 15.8064C67.6134 15.8445 67.5469 15.8663 67.4782 15.8696C67.4096 15.8729 67.3413 15.8575 67.2807 15.8251C67.2201 15.7926 67.1695 15.7443 67.1341 15.6854C67.0988 15.6264 67.0801 15.559 67.0801 15.4902V4.74992C67.0801 4.68119 67.0988 4.61375 67.1341 4.55479C67.1695 4.49583 67.2201 4.44755 67.2807 4.41511C67.3413 4.38267 67.4096 4.36727 67.4782 4.37055C67.5469 4.37384 67.6134 4.39568 67.6706 4.43376L75.7258 9.80392C75.7779 9.83862 75.8206 9.88564 75.8501 9.94079C75.8796 9.99594 75.895 10.0575 75.895 10.1201C75.895 10.1826 75.8796 10.2442 75.8501 10.2994C75.8206 10.3545 75.7779 10.4015 75.7258 10.4362V10.4362Z" fill="#222222"/>
<path d="M75.7258 30.4362L67.6706 35.8064C67.6134 35.8445 67.5469 35.8663 67.4782 35.8696C67.4096 35.8729 67.3413 35.8575 67.2807 35.8251C67.2201 35.7926 67.1695 35.7443 67.1341 35.6854C67.0988 35.6264 67.0801 35.559 67.0801 35.4902V24.7499C67.0801 24.6812 67.0988 24.6137 67.1341 24.5548C67.1695 24.4958 67.2201 24.4476 67.2807 24.4151C67.3413 24.3827 67.4096 24.3673 67.4782 24.3706C67.5469 24.3738 67.6134 24.3957 67.6706 24.4338L75.7258 29.8039C75.7779 29.8386 75.8206 29.8856 75.8501 29.9408C75.8796 29.9959 75.895 30.0575 75.895 30.1201C75.895 30.1826 75.8796 30.2442 75.8501 30.2994C75.8206 30.3545 75.7779 30.4015 75.7258 30.4362V30.4362Z" fill="white"/>
<path fill-rule="evenodd" clip-rule="evenodd" d="M93.9986 2.29289C94.3891 2.68342 94.3891 3.31658 93.9986 3.70711L87.4141 10.2917L93.9986 16.8762C94.3891 17.2668 94.3891 17.8999 93.9986 18.2904C93.6081 18.681 92.9749 18.681 92.5844 18.2904L85.2927 10.9988C84.9022 10.6083 84.9022 9.97508 85.2927 9.58456L92.5844 2.29289C92.9749 1.90237 93.6081 1.90237 93.9986 2.29289Z" fill="#222222"/>
<path fill-rule="evenodd" clip-rule="evenodd" d="M93.9986 22.2929C94.3891 22.6834 94.3891 23.3166 93.9986 23.7071L87.4141 30.2917L93.9986 36.8762C94.3891 37.2668 94.3891 37.8999 93.9986 38.2904C93.6081 38.681 92.9749 38.681 92.5844 38.2904L85.2927 30.9988C84.9022 30.6083 84.9022 29.9751 85.2927 29.5846L92.5844 22.2929C92.9749 21.9024 93.6081 21.9024 93.9986 22.2929Z" fill="white"/>
<path fill-rule="evenodd" clip-rule="evenodd" d="M106.001 18.7071C105.611 18.3166 105.611 17.6834 106.001 17.2929L112.586 10.7083L106.001 4.12377C105.611 3.73325 105.611 3.10008 106.001 2.70956C106.392 2.31903 107.025 2.31903 107.416 2.70956L114.707 10.0012C115.098 10.3918 115.098 11.0249 114.707 11.4154L107.416 18.7071C107.025 19.0976 106.392 19.0976 106.001 18.7071Z" fill="#222222"/>
<path fill-rule="evenodd" clip-rule="evenodd" d="M106.001 38.7071C105.611 38.3166 105.611 37.6834 106.001 37.2929L112.586 30.7083L106.001 24.1238C105.611 23.7332 105.611 23.1001 106.001 22.7096C106.392 22.319 107.025 22.319 107.416 22.7096L114.707 30.0012C115.098 30.3918 115.098 31.0249 114.707 31.4154L107.416 38.7071C107.025 39.0976 106.392 39.0976 106.001 38.7071Z" fill="white"/>
<g clip-path="url(#clip0_406_1671)">
<path d="M130 1.83337V18.1667" stroke="#222222" stroke-width="1.75" stroke-linecap="round" stroke-linejoin="round"/>
<path d="M121.833 10H138.167" stroke="#222222" stroke-width="1.75" stroke-linecap="round" stroke-linejoin="round"/>
</g>
<g clip-path="url(#clip1_406_1671)">
<path d="M130 21.8334V38.1667" stroke="white" stroke-width="1.75" stroke-linecap="round" stroke-linejoin="round"/>
<path d="M121.833 30H138.167" stroke="white" stroke-width="1.75" stroke-linecap="round" stroke-linejoin="round"/>
</g>
<path d="M64.9771 110.005H114.014" stroke="black" stroke-miterlimit="10"/>
<path d="M107.023 102.286L114.013 110.005L107.023 117.714" stroke="black" stroke-miterlimit="10"/>
<path d="M64.9771 150.005H114.014" stroke="#ABABAB" stroke-miterlimit="10"/>
<path d="M107.023 142.286L114.013 150.005L107.023 157.714" stroke="#ABABAB" stroke-miterlimit="10"/>
<path d="M64.9771 130.005H114.014" stroke="#452F5D" stroke-miterlimit="10"/>
<path d="M107.023 122.286L114.013 130.005L107.023 137.714" stroke="#452F5D" stroke-miterlimit="10"/>
<path d="M64.9771 170.005H114.014" stroke="white" stroke-miterlimit="10"/>
<path d="M107.023 162.286L114.013 170.005L107.023 177.714" stroke="white" stroke-miterlimit="10"/>
<g clip-path="url(#clip2_406_1671)">
<path d="M1.8335 110H18.1668" stroke="black" stroke-width="1.75" stroke-linecap="round" stroke-linejoin="round"/>
<path d="M13.5 114.667L18.1667 110" stroke="black" stroke-width="1.75" stroke-linecap="round" stroke-linejoin="round"/>
<path d="M13.5 105.333L18.1667 110" stroke="black" stroke-width="1.75" stroke-linecap="round" stroke-linejoin="round"/>
</g>
<g clip-path="url(#clip3_406_1671)">
<path d="M1.8335 150H18.1668" stroke="#ABABAB" stroke-width="1.75" stroke-linecap="round" stroke-linejoin="round"/>
<path d="M13.5 154.667L18.1667 150" stroke="#ABABAB" stroke-width="1.75" stroke-linecap="round" stroke-linejoin="round"/>
<path d="M13.5 145.333L18.1667 150" stroke="#ABABAB" stroke-width="1.75" stroke-linecap="round" stroke-linejoin="round"/>
</g>
<g clip-path="url(#clip4_406_1671)">
<path d="M1.8335 130H18.1668" stroke="#452F5D" stroke-width="1.75" stroke-linecap="round" stroke-linejoin="round"/>
<path d="M13.5 134.667L18.1667 130" stroke="#452F5D" stroke-width="1.75" stroke-linecap="round" stroke-linejoin="round"/>
<path d="M13.5 125.333L18.1667 130" stroke="#452F5D" stroke-width="1.75" stroke-linecap="round" stroke-linejoin="round"/>
</g>
<g clip-path="url(#clip5_406_1671)">
<path d="M1.8335 170H18.1668" stroke="white" stroke-width="1.75" stroke-linecap="round" stroke-linejoin="round"/>
<path d="M13.5 174.667L18.1667 170" stroke="white" stroke-width="1.75" stroke-linecap="round" stroke-linejoin="round"/>
<path d="M13.5 165.333L18.1667 170" stroke="white" stroke-width="1.75" stroke-linecap="round" stroke-linejoin="round"/>
</g>
<path fill-rule="evenodd" clip-rule="evenodd" d="M204.948 3.94774C207.545 1.35075 211.755 1.35075 214.352 3.94774C216.949 6.54473 216.949 10.7553 214.352 13.3523L209.65 18.0545L204.948 13.3523C202.351 10.7553 202.351 6.54473 204.948 3.94774ZM209.65 10.55C210.699 10.55 211.55 9.69934 211.55 8.65C211.55 7.60066 210.699 6.75 209.65 6.75C208.601 6.75 207.75 7.60066 207.75 8.65C207.75 9.69934 208.601 10.55 209.65 10.55Z" fill="#EB4488"/>
<path fill-rule="evenodd" clip-rule="evenodd" d="M204.948 23.9477C207.545 21.3508 211.755 21.3508 214.352 23.9477C216.949 26.5447 216.949 30.7553 214.352 33.3523L209.65 38.0545L204.948 33.3523C202.351 30.7553 202.351 26.5447 204.948 23.9477ZM209.65 30.55C210.699 30.55 211.55 29.6993 211.55 28.65C211.55 27.6007 210.699 26.75 209.65 26.75C208.601 26.75 207.75 27.6007 207.75 28.65C207.75 29.6993 208.601 30.55 209.65 30.55Z" fill="#A297AE"/>
<path d="M230.495 4.60493C230.222 4.33156 229.778 4.33156 229.505 4.60493L224.605 9.50493C224.332 9.77829 224.332 10.2215 224.605 10.4949C224.878 10.7682 225.322 10.7682 225.595 10.4949L225.8 10.2899V14.8999C225.8 15.2865 226.113 15.5999 226.5 15.5999H227.9C228.287 15.5999 228.6 15.2865 228.6 14.8999V13.4999C228.6 13.1133 228.913 12.7999 229.3 12.7999H230.7C231.087 12.7999 231.4 13.1133 231.4 13.4999V14.8999C231.4 15.2865 231.713 15.5999 232.1 15.5999H233.5C233.887 15.5999 234.2 15.2865 234.2 14.8999V10.2899L234.405 10.4949C234.678 10.7682 235.122 10.7682 235.395 10.4949C235.668 10.2215 235.668 9.77829 235.395 9.50493L230.495 4.60493Z" fill="#34234D"/>
<path fill-rule="evenodd" clip-rule="evenodd" d="M250 15.5999C253.093 15.5999 255.6 13.0927 255.6 9.9999C255.6 6.90711 253.093 4.3999 250 4.3999C246.907 4.3999 244.4 6.90711 244.4 9.9999C244.4 13.0927 246.907 15.5999 250 15.5999ZM250.7 7.19988C250.7 6.81328 250.386 6.49988 250 6.49988C249.613 6.49988 249.3 6.81328 249.3 7.19988V9.99988C249.3 10.1855 249.374 10.3636 249.505 10.4949L251.485 12.4748C251.758 12.7481 252.201 12.7481 252.475 12.4748C252.748 12.2014 252.748 11.7582 252.475 11.4848L250.7 9.70993V7.19988Z" fill="#452F5D"/>
<g clip-path="url(#clip6_406_1671)">
<path d="M261.083 3.1242C261.083 2.54903 261.549 2.08276 262.124 2.08276H264.367C264.876 2.08276 265.31 2.45082 265.394 2.95299L266.164 7.57267C266.239 8.02365 266.011 8.47091 265.602 8.67537L263.99 9.48152C265.152 12.3704 267.458 14.6763 270.347 15.8388L271.153 14.2265C271.358 13.8176 271.805 13.5899 272.256 13.665L276.876 14.435C277.378 14.5187 277.746 14.9531 277.746 15.4622V17.7043C277.746 18.2795 277.28 18.7458 276.705 18.7458H274.622C267.144 18.7458 261.083 12.6843 261.083 5.20707V3.1242Z" fill="#2D3544"/>
<path fill-rule="evenodd" clip-rule="evenodd" d="M268.946 2.48716C268.932 2.056 269.27 1.69532 269.701 1.68155C272.269 1.59953 274.412 2.53448 275.735 4.20442C277.058 5.87436 277.478 8.17444 276.811 10.6556C276.699 11.0722 276.271 11.3191 275.854 11.2071C275.438 11.0951 275.191 10.6665 275.303 10.25C275.863 8.16723 275.479 6.3966 274.511 5.17451C273.543 3.95243 271.907 3.17406 269.751 3.24291C269.32 3.25668 268.959 2.91832 268.946 2.48716ZM267.958 6.16001C267.944 5.72885 268.282 5.36817 268.714 5.3544C270.232 5.30591 271.535 5.86012 272.349 6.88739C273.163 7.91465 273.404 9.31014 273.01 10.7771C272.898 11.1937 272.469 11.4406 272.053 11.3286C271.636 11.2165 271.389 10.788 271.501 10.3715C271.789 9.30292 271.584 8.43689 271.125 7.85748C270.666 7.27807 269.869 6.88044 268.764 6.91576C268.332 6.92953 267.972 6.59117 267.958 6.16001Z" fill="#2D3544"/>
</g>
<path d="M21.3818 110.017H60.611" stroke="black" stroke-miterlimit="10"/>
<path d="M55.0186 103.832L60.6109 110.018L55.0186 116.195" stroke="black" stroke-miterlimit="10"/>
<path d="M21.3818 150.018H60.611" stroke="#ABABAB" stroke-miterlimit="10"/>
<path d="M55.0186 143.832L60.6109 150.017L55.0186 156.195" stroke="#ABABAB" stroke-miterlimit="10"/>
<path d="M21.3818 130.018H60.611" stroke="#452F5D" stroke-miterlimit="10"/>
<path d="M55.0186 123.832L60.6109 130.017L55.0186 136.195" stroke="#452F5D" stroke-miterlimit="10"/>
<path d="M21.3818 170.018H60.611" stroke="white" stroke-miterlimit="10"/>
<path d="M55.0186 163.832L60.6109 170.017L55.0186 176.195" stroke="white" stroke-miterlimit="10"/>
<path d="M183.417 113.292L190.708 106L198 113.292" stroke="#222222" stroke-width="2" stroke-linecap="round" stroke-linejoin="round"/>
<mask id="mask0_406_1671" style="mask-type:alpha" maskUnits="userSpaceOnUse" x="0" y="300" width="131" height="92">
<rect y="300" width="131" height="92" fill="#D9D9D9"/>
</mask>
<g mask="url(#mask0_406_1671)">
<path d="M96.161 369.965C96.161 375.728 91.4896 380.4 85.7266 380.4C79.9643 380.4 75.2925 375.728 75.2925 369.965C75.2925 364.203 79.9643 359.531 85.7266 359.531C91.4896 359.531 96.161 364.203 96.161 369.965Z" fill="#E0DFF4" stroke="#8B919C" stroke-width="1.09836"/>
<path d="M75.8412 332.072C77.3529 332.072 78.5877 330.838 78.5877 329.326V326.58H81.3334H85.7266C86.6315 326.58 87.374 327.323 87.374 328.228V332.621C87.374 333.526 86.6315 334.269 85.7266 334.269H41.7925C40.8876 334.269 40.145 333.526 40.145 332.621V328.228C40.145 327.323 40.8876 326.58 41.7925 326.58H48.9318V329.326C48.9318 330.838 50.1662 332.072 51.6778 332.072C53.1892 332.072 54.4236 330.838 54.4236 329.326V326.58H57.1695H73.0957V329.326C73.0957 330.838 74.3301 332.072 75.8412 332.072Z" fill="#E0DFF4" stroke="#8B919C" stroke-width="1.09836"/>
<path d="M85.7264 380.949C91.7928 380.949 96.71 376.031 96.71 369.965C96.71 363.899 91.7928 358.982 85.7264 358.982C79.6607 358.982 74.7432 363.899 74.7432 369.965C74.7432 376.031 79.6607 380.949 85.7264 380.949Z" stroke="#8B919C" stroke-width="2.19671" stroke-miterlimit="10" stroke-linejoin="round"/>
<path d="M73.6446 326.031H54.5596" stroke="#8B919C" stroke-width="2.19671" stroke-miterlimit="10" stroke-linejoin="round"/>
<path d="M78.9168 326.031H85.7265C86.9347 326.031 87.9238 327.02 87.9238 328.228V332.621C87.9238 333.83 86.9347 334.818 85.7265 334.818H41.7924C40.5842 334.818 39.5957 333.83 39.5957 332.621V328.228C39.5957 327.02 40.5842 326.031 41.7924 326.031H49.4809" stroke="#8B919C" stroke-width="2.19671" stroke-miterlimit="10" stroke-linejoin="round"/>
<path d="M85.7266 355.687V334.818" stroke="#8B919C" stroke-width="2.19671" stroke-miterlimit="10" stroke-linejoin="round"/>
<path d="M41.792 335.161V367.769C41.792 370.196 43.7581 372.162 46.1854 372.162H71.4476" stroke="#8B919C" stroke-width="2.19671" stroke-miterlimit="10" stroke-linejoin="round"/>
<path d="M78.0376 326.031V329.326C78.0376 330.534 77.0493 331.523 75.841 331.523C74.633 331.523 73.6445 330.534 73.6445 329.326V326.031V323.834C73.6445 322.626 74.633 321.638 75.841 321.638C77.0493 321.638 78.0376 322.626 78.0376 323.834V326.031Z" stroke="#8B919C" stroke-width="2.19671" stroke-miterlimit="10" stroke-linejoin="round"/>
<path d="M53.8743 326.031V329.326C53.8743 330.534 52.8859 331.523 51.6777 331.523C50.4694 331.523 49.481 330.534 49.481 329.326V326.031V323.834C49.481 322.626 50.4694 321.638 51.6777 321.638C52.8859 321.638 53.8743 322.626 53.8743 323.834V326.031Z" stroke="#8B919C" stroke-width="2.19671" stroke-miterlimit="10" stroke-linejoin="round"/>
<path d="M80.2348 346.9H73.6447H67.0546H60.4644H53.8743H47.2842V340.31H53.8743H60.4644H67.0546H73.6447H80.2348V346.9Z" stroke="#8B919C" stroke-width="2.19671" stroke-miterlimit="10" stroke-linejoin="round"/>
<path d="M80.2348 346.9V353.49H73.6447H67.0546H60.4644H53.8743H47.2842V346.9" stroke="#8B919C" stroke-width="2.19671" stroke-miterlimit="10" stroke-linejoin="round"/>
<path d="M73.6447 360.08H67.0546H60.4644H53.8743H47.2842V353.49" stroke="#8B919C" stroke-width="2.19671" stroke-miterlimit="10" stroke-linejoin="round"/>
<path d="M80.2349 356.785V353.49" stroke="#8B919C" stroke-width="2.19671" stroke-miterlimit="10" stroke-linejoin="round"/>
<path d="M72.5464 366.67H67.0546H60.4644H53.8743H47.2842V360.08" stroke="#8B919C" stroke-width="2.19671" stroke-miterlimit="10" stroke-linejoin="round"/>
<path d="M53.8745 340.31V346.9V353.49V360.08V366.67" stroke="#8B919C" stroke-width="2.19671" stroke-miterlimit="10" stroke-linejoin="round"/>
<path d="M60.4644 340.31V346.9V353.49V360.08V366.67" stroke="#8B919C" stroke-width="2.19671" stroke-miterlimit="10" stroke-linejoin="round"/>
<path d="M67.0547 366.67V360.08V353.49V346.9V340.31" stroke="#8B919C" stroke-width="2.19671" stroke-miterlimit="10" stroke-linejoin="round"/>
<path d="M73.6445 361.178V360.08V358.982V353.49V346.9V340.31" stroke="#8B919C" stroke-width="2.19671" stroke-miterlimit="10" stroke-linejoin="round"/>
<path d="M88.0659 303L89.2218 304.163" stroke="#8B919C" stroke-width="1.64753" stroke-miterlimit="10" stroke-linecap="round" stroke-linejoin="round"/>
<path d="M4 307.851L5.47619 309.327" stroke="#8B919C" stroke-width="3.19651" stroke-miterlimit="10" stroke-linecap="round" stroke-linejoin="round"/>
<path d="M94.2651 309.238L95.421 310.401" stroke="#8B919C" stroke-width="1.64753" stroke-miterlimit="10" stroke-linecap="round" stroke-linejoin="round"/>
<path d="M12.8569 316.708L14.3331 318.184" stroke="#8B919C" stroke-width="3.19651" stroke-miterlimit="10" stroke-linecap="round" stroke-linejoin="round"/>
<path d="M88.0659 310.401L89.2218 309.238" stroke="#8B919C" stroke-width="1.64753" stroke-miterlimit="10" stroke-linecap="round" stroke-linejoin="round"/>
<path d="M4 318.184L5.47619 316.708" stroke="#8B919C" stroke-width="3.19651" stroke-miterlimit="10" stroke-linecap="round" stroke-linejoin="round"/>
<path d="M94.2651 304.163L95.421 303" stroke="#8B919C" stroke-width="1.64753" stroke-miterlimit="10" stroke-linecap="round" stroke-linejoin="round"/>
<path d="M12.8569 309.327L14.3331 307.851" stroke="#8B919C" stroke-width="3.19651" stroke-miterlimit="10" stroke-linecap="round" stroke-linejoin="round"/>
<path d="M108.106 328.361L108.421 328.044" stroke="#8B919C" stroke-width="1.64753" stroke-miterlimit="10" stroke-linecap="round" stroke-linejoin="round"/>
<path d="M103.588 332.907L103.904 332.59" stroke="#8B919C" stroke-width="1.64753" stroke-miterlimit="10" stroke-linecap="round" stroke-linejoin="round"/>
<path d="M103.904 328.361L103.588 328.044" stroke="#8B919C" stroke-width="1.64753" stroke-miterlimit="10" stroke-linecap="round" stroke-linejoin="round"/>
<path d="M108.421 332.907L108.106 332.59" stroke="#8B919C" stroke-width="1.64753" stroke-miterlimit="10" stroke-linecap="round" stroke-linejoin="round"/>
<path d="M48.0596 385.155L48.3748 384.838" stroke="#8B919C" stroke-width="1.64753" stroke-miterlimit="10" stroke-linecap="round" stroke-linejoin="round"/>
<path d="M43.541 389.701L43.8563 389.384" stroke="#8B919C" stroke-width="1.64753" stroke-miterlimit="10" stroke-linecap="round" stroke-linejoin="round"/>
<path d="M43.8563 385.155L43.541 384.838" stroke="#8B919C" stroke-width="1.64753" stroke-miterlimit="10" stroke-linecap="round" stroke-linejoin="round"/>
<path d="M48.3748 389.701L48.0596 389.384" stroke="#8B919C" stroke-width="1.64753" stroke-miterlimit="10" stroke-linecap="round" stroke-linejoin="round"/>
<path d="M18.4116 373.086L19.5675 374.249" stroke="#8B919C" stroke-width="1.64753" stroke-miterlimit="10" stroke-linecap="round" stroke-linejoin="round"/>
<path d="M24.6113 379.324L25.7672 380.487" stroke="#8B919C" stroke-width="1.64753" stroke-miterlimit="10" stroke-linecap="round" stroke-linejoin="round"/>
<path d="M18.4116 380.487L19.5675 379.324" stroke="#8B919C" stroke-width="1.64753" stroke-miterlimit="10" stroke-linecap="round" stroke-linejoin="round"/>
<path d="M24.6113 374.249L25.7672 373.086" stroke="#8B919C" stroke-width="1.64753" stroke-miterlimit="10" stroke-linecap="round" stroke-linejoin="round"/>
<path d="M119.881 346.232L121.04 347.392" stroke="#8B919C" stroke-width="2.51155" stroke-miterlimit="10" stroke-linecap="round" stroke-linejoin="round"/>
<path d="M126.84 353.191L128 354.351" stroke="#8B919C" stroke-width="2.51155" stroke-miterlimit="10" stroke-linecap="round" stroke-linejoin="round"/>
<path d="M119.881 354.351L121.04 353.191" stroke="#8B919C" stroke-width="2.51155" stroke-miterlimit="10" stroke-linecap="round" stroke-linejoin="round"/>
<path d="M126.84 347.392L128 346.232" stroke="#8B919C" stroke-width="2.51155" stroke-miterlimit="10" stroke-linecap="round" stroke-linejoin="round"/>
<path d="M80.5 367L85.5 372L96 361.5" stroke="#8B919C" stroke-width="2.19671" stroke-miterlimit="10" stroke-linecap="round" stroke-linejoin="round"/>
</g>
<defs>
<clipPath id="clip0_406_1671">
<rect width="20" height="20" fill="white" transform="translate(120)"/>
</clipPath>
<clipPath id="clip1_406_1671">
<rect width="20" height="20" fill="white" transform="translate(120 20)"/>
</clipPath>
<clipPath id="clip2_406_1671">
<rect width="20" height="20" fill="white" transform="translate(0 100)"/>
</clipPath>
<clipPath id="clip3_406_1671">
<rect width="20" height="20" fill="white" transform="translate(0 140)"/>
</clipPath>
<clipPath id="clip4_406_1671">
<rect width="20" height="20" fill="white" transform="translate(0 120)"/>
</clipPath>
<clipPath id="clip5_406_1671">
<rect width="20" height="20" fill="white" transform="translate(0 160)"/>
</clipPath>
<clipPath id="clip6_406_1671">
<rect width="17" height="18" fill="white" transform="translate(261 1)"/>
</clipPath>
</defs>
</svg>
