<svg width="281" height="188" viewBox="0 0 281 188" fill="none" xmlns="http://www.w3.org/2000/svg">
<rect width="281" height="188" fill="#E8E8E8"/>
<path d="M157 100.8V80.4C157 78.53 155.47 77 153.6 77H133.2C131.33 77 129.8 78.53 129.8 80.4V100.8C129.8 102.67 131.33 104.2 133.2 104.2H153.6C155.47 104.2 157 102.67 157 100.8ZM138.98 94.901L141.751 98.607L146.137 93.133C146.477 92.708 147.123 92.708 147.463 93.133L152.495 99.423C152.937 99.984 152.546 100.8 151.832 100.8H134.9C134.203 100.8 133.795 100.001 134.22 99.44L137.62 94.901C137.96 94.459 138.64 94.459 138.98 94.901V94.901ZM123 85.5V107.6C123 109.47 124.53 111 126.4 111H148.5C149.435 111 150.2 110.235 150.2 109.3C150.2 108.365 149.435 107.6 148.5 107.6H128.1C127.165 107.6 126.4 106.835 126.4 105.9V85.5C126.4 84.565 125.635 83.8 124.7 83.8C123.765 83.8 123 84.565 123 85.5Z" fill="#C7C7C7"/>
</svg>
