<svg width="76" height="90" viewBox="0 0 76 90" fill="none" xmlns="http://www.w3.org/2000/svg">
<g clip-path="url(#clip0_997_4229)">
<path d="M38.5956 0.162942L52.7297 4.67346C52.7297 4.67346 53.8756 4.93376 53.8401 5.62721C53.8401 5.62721 53.9089 6.14781 52.7463 6.49557L46.0793 8.64671L48.2836 13.6445C48.2836 13.6445 50.4191 11.129 53.6131 11.3893C53.6131 11.3893 57.0862 11.458 58.8383 14.1839C58.8383 14.1839 62.0323 18.4362 58.1966 23.3632C58.1966 23.3632 59.4821 25.8975 59.255 30.9806C59.255 30.9806 62.8573 33.9043 61.6072 39.7101C61.6072 39.7101 60.6447 44.1873 55.1486 48.171L54.836 48.8478C54.836 48.8478 56.5278 48.5083 60.4697 50.193L60.9385 50.3492L61.7718 49.864C61.7718 49.864 63.0386 47.869 63.3511 47.4526C63.3511 47.4526 64.4282 45.5784 66.0596 45.6825C66.0596 45.6825 67.9701 45.543 68.8201 48.702C68.8201 48.702 72.7266 47.488 74.2538 49.3955C74.2538 49.3955 75.7288 51.2009 74.2538 52.8148C74.2538 52.8148 76.1122 53.4749 75.9893 55.4865C75.9893 55.4865 75.8497 56.9609 74.3746 57.9334C74.3746 57.9334 75.6413 60.8133 71.4411 62.3939C71.4411 62.3939 65.572 64.0244 61.3885 61.8566C61.3885 61.8566 56.6132 62.4647 53.0026 62.0482C53.0026 62.0482 52.5338 66.0923 49.9128 70.9152C49.9128 70.9152 51.4233 70.9839 51.9275 71.6794C51.9275 71.6794 55.0173 66.7607 59.4967 67.4625C59.4967 67.4625 63.2469 68.1122 62.674 72.7206C62.674 72.7206 61.3197 80.1902 53.3255 86.8019C53.3255 86.8019 51.5546 88.2325 49.6795 87.9722C49.6795 87.9722 47.1794 87.7119 45.5397 84.5633C45.5397 84.5633 44.7584 83.1848 44.6292 79.7217C44.6292 79.7217 41.1999 77.7184 38.4747 77.8225C38.4747 77.8225 36.4267 77.7705 34.9329 78.5347C34.9329 78.5347 34.3245 78.9512 33.8224 79.5593C33.8224 79.5593 31.8264 81.6937 28.3533 82.458C28.3533 82.458 24.1344 83.7074 19.8279 82.2143C19.8279 82.2143 22.4322 86.6395 20.7133 89.103C20.7133 89.103 19.7404 90.8897 15.8693 89.432C15.8693 89.432 10.044 87.4808 7.7272 82.1186C7.7272 82.1186 5.80001 77.6684 8.66475 74.0763C8.66475 74.0763 10.8774 70.7965 13.6129 72.4624C13.6129 72.4624 15.3568 73.5036 15.8006 74.4657C15.8006 74.4657 18.1174 74.803 19.5758 73.5286L19.4716 72.4874C19.4716 72.4874 15.461 72.098 13.2483 71.4982C13.2483 71.4982 11.7024 71.1775 11.6337 70.5695C11.6337 70.5695 11.4607 70.1176 12.1899 69.5116C12.1899 69.5116 14.1526 67.6374 14.413 67.1689C14.413 67.1689 13.7359 66.7878 13.4233 66.4234C13.4233 66.4234 12.7629 67.6728 11.0274 67.7249C11.0274 67.7249 9.60439 67.8457 8.45849 65.7466C8.45849 65.7466 7.38135 67.6562 5.24581 67.1522C5.24581 67.1522 3.3353 66.8045 2.72901 64.064C2.72901 64.064 2.26023 62.1024 3.31863 60.6114C3.31863 60.6114 0.0892849 59.6743 0.00178015 56.8276C0.00178015 56.8276 0.00177737 55.3012 1.73729 54.7618C1.73729 54.7618 3.35196 54.31 6.11253 54.7972C6.11253 54.7972 6.82507 54.6577 7.18967 54.4162C7.18967 54.4162 10.7315 52.3858 12.7983 50.4762C12.7983 50.4762 12.6421 50.0431 13.2317 49.435C13.2317 49.435 17.259 46.3281 19.6904 45.4264C19.6904 45.4264 13.1442 38.3461 16.6173 27.2052C16.6173 27.2052 12.3462 24.5668 12.9025 19.9522C12.9025 19.9522 13.2838 13.6695 19.1528 12.7324C19.1528 12.7324 22.7989 12.0036 25.9595 14.2588L29.293 8.46346L22.5905 6.31232C22.5905 6.31232 22.0259 6.13948 21.9488 5.53974C21.9488 5.53974 21.9238 5.01914 22.8593 4.73385L37.1288 0.162942C37.1288 0.162942 37.7455 -0.201481 38.5956 0.162942Z" fill="#231F20"/>
<path d="M38 1.58496L50.334 5.54155L38 9.60227L25.2972 5.59361L37.8145 1.58496H38Z" fill="#A7A9AC"/>
<path d="M36.7396 5.44758C36.7396 5.7891 37.2292 6.06606 37.8334 6.06606C38.4376 6.06606 38.9272 5.7891 38.9272 5.44758C38.9272 5.10606 38.4376 4.8291 37.8334 4.8291C37.2292 4.8291 36.7396 5.10606 36.7396 5.44758Z" fill="white"/>
<path d="M44.4816 9.11706L46.4775 13.715C46.4775 13.715 41.7023 12.0324 37.3104 11.9804C37.3104 11.9804 32.5351 11.6514 28.3161 13.5422L30.9725 8.97754L37.7083 11.2328L44.4795 9.11498L44.4816 9.11706Z" fill="#A7A9AC"/>
<path d="M57.2343 21.8281C57.2343 21.8281 54.9946 17.4551 49.3964 14.9312C49.3964 14.9312 52.9903 10.9621 56.7926 14.3585C56.7926 14.3585 60.1511 17.7945 57.2343 21.8281Z" fill="#C4802F"/>
<path d="M57.5471 29.6368C57.5471 29.6368 58.1451 23.4937 53.3282 19.3809C53.3282 19.3809 51.1676 16.9257 44.761 14.8787C44.761 14.8787 37.4794 12.0779 29.6831 14.7496C29.6831 14.7496 27.6268 15.5826 26.8455 16.1032C26.8455 16.1032 26.2996 16.5717 25.6225 16.0511C25.6225 16.0511 23.3307 13.8396 19.6847 14.3331C19.6847 14.3331 15.5178 14.7496 14.6844 19.46C14.6844 19.46 13.9302 23.5457 17.3929 25.7323C17.3929 25.7323 17.6783 25.9322 18.0616 26.1404C18.0616 26.1404 18.7033 26.3133 18.3908 27.2691C18.3908 27.2691 16.8803 30.9133 17.297 34.9907C17.297 34.9907 18.0096 42.2625 21.6368 44.8988C21.6368 44.8988 30.0456 44.7343 38.0023 48.3786C38.0023 48.3786 34.8147 46.4794 34.1104 42.1063C34.1104 42.1063 32.7791 36.4838 38.0023 32.1357C38.0023 32.1357 42.4192 27.9459 50.5697 27.7106C50.5697 27.7106 54.5803 27.6064 57.5492 29.6368" fill="#C4802F"/>
<path d="M51.6361 24.6915L49.7089 25.1601C49.7089 25.1601 50.2027 22.6091 48.5901 22.4009C48.5901 22.4009 47.3921 22.3488 47.4963 25.0289L45.6212 24.5603C45.6212 24.5603 45.7504 20.4663 48.6297 20.4309C48.6297 20.4309 51.2465 20.0061 51.6382 24.6915" fill="#231F20"/>
<path d="M43.2231 24.092L41.348 24.6126C41.348 24.6126 41.7314 21.5931 39.9917 21.9846C39.9917 21.9846 38.6666 22.5572 39.3688 25.1602L37.5207 25.6808C37.5207 25.6808 36.2978 21.8554 39.3167 20.1375C39.3167 20.1375 41.1918 19.2004 42.4939 21.3348C42.4939 21.3348 43.0148 22.0887 43.2231 24.094" fill="#231F20"/>
<path d="M45.0919 30.2553C38.4915 32.2627 34.36 37.5708 35.9872 42.9726C37.1893 46.9646 43.9918 50.6775 50.5776 48.6138C57.1613 46.5502 61.6115 39.7115 59.7093 34.8345C59.7093 34.8345 57.1779 26.5777 45.0919 30.2553" fill="#E0C5AF"/>
<path d="M52.1343 42.4959C52.1343 42.4959 47.5986 43.7703 43.1963 41.9753C43.1963 41.9753 40.2545 40.7258 39.5253 37.5501L40.592 37.369C40.592 37.369 41.6858 37.0045 41.3212 36.0675C41.3212 36.0675 41.3212 35.1824 39.7065 35.5219C39.7065 35.5219 35.9313 36.1716 36.2167 38.177C36.2167 38.177 36.7105 39.3223 37.6752 38.6976L37.7627 38.6892C37.7627 38.6892 38.2148 39.947 39.1169 41.2048C39.1169 41.2048 40.2461 43.2872 44.4651 44.4492C44.4651 44.4492 47.8674 45.4383 53.5448 44.2409L54.1698 44.0848C54.1698 44.0848 55.0386 43.8932 54.9865 42.9561C54.9865 42.9561 54.8136 42.0711 53.9615 42.1585C53.9615 42.1585 52.4551 42.4188 52.1343 42.4959" fill="#231F20"/>
<path d="M52.4507 49.5508C52.4507 49.5508 49.5693 51.7727 42.4147 50.2109C42.4147 50.2109 44.4294 51.1126 45.7482 52.2246C45.7482 52.2246 51.6861 51.2521 52.4507 49.5529" fill="#C4802F"/>
<path d="M50.0217 52.916C50.0217 52.916 48.4946 53.5407 47.6612 53.5407C47.6612 53.5407 49.2592 54.5132 49.6759 55.3108C49.6759 55.3108 50.0571 53.4366 50.0238 52.916" fill="#A7A9AC"/>
<path d="M51.6884 52.4668C51.6884 52.4668 54.2239 50.8009 54.5698 50.5239C54.5698 50.5239 57.5554 50.7676 58.2158 51.4964C58.2158 51.4964 57.2783 58.1602 47.434 61.7357C47.434 61.7357 43.8755 58.7849 31.3748 54.4472C31.3748 54.4472 20.8179 51.0112 15.576 49.7972C15.576 49.7972 19.9158 46.7423 21.2013 46.5694C21.2013 46.5694 30.7039 46.5007 38.0022 50.1095C38.0022 50.1095 46.5506 53.4768 49.0153 56.9128C49.0153 56.9128 49.7445 57.677 50.4383 56.7733C50.4383 56.7733 51.6196 55.9403 51.6884 52.4689" fill="#FEE292"/>
<path d="M59.8823 51.7378C59.8823 51.7378 59.1177 56.0421 53.8049 60.4152C53.8049 60.4152 58.6322 60.8317 61.8261 60.1383C61.8261 60.1383 63.745 61.5272 67.391 61.319C67.391 61.319 72.4434 61.319 72.9372 59.0033C72.9372 59.0033 73.2226 57.7539 70.437 57.6768C70.437 57.6768 74.2914 57.1042 74.3164 55.1259C74.3164 55.1259 74.1601 53.5391 69.9412 54.372C69.9412 54.372 73.9768 52.2646 73.1434 50.6237C73.1434 50.6237 72.1288 48.8536 66.9202 51.1443C66.9202 51.1443 67.7015 49.8428 67.0243 48.5413C67.0243 48.5413 66.6077 47.2398 65.8784 47.3189C65.8784 47.3189 65.2534 47.423 64.5763 48.5933C64.5763 48.5933 63.0658 51.0922 62.6241 51.3255C62.6241 51.3255 61.4011 52.1314 60.9844 52.1064L59.8823 51.742V51.7378Z" fill="#A7A9AC"/>
<path d="M51.3487 61.8899C51.3487 61.8899 50.7279 65.5591 50.0237 66.4441C50.0237 66.4441 39.396 68.6827 36.1666 69.3324C36.1666 69.3324 27.912 70.9463 24.2139 70.9463C24.2139 70.9463 17.1302 71.1025 14.1092 69.9322C14.1092 69.9322 18.2761 66.5482 17.4948 61.8899C17.4948 61.8899 20.2804 61.4213 23.2764 57.8292C23.2764 57.8292 23.6139 57.1003 23.043 56.763C23.043 56.763 22.5742 56.3985 22.0805 56.8921C22.0805 56.8921 20.2324 59.1827 17.9657 60.1448C17.9657 60.1448 17.0281 60.4572 16.6114 60.5863C16.6114 60.5863 15.4926 60.8466 15.9614 61.9648C15.9614 61.9648 16.4656 64.42 15.4405 65.7902C15.4405 65.7902 14.6071 65.5466 14.5384 64.9573V64.7136C14.5384 64.7136 15.0238 63.3434 14.4509 62.6833C14.4509 62.6833 13.7904 61.7462 12.7487 62.8041C12.7487 62.8041 12.3153 63.2559 12.2633 64.7136C12.2633 64.7136 12.107 66.0505 11.2049 66.1026C11.2049 66.1026 9.90271 66.0339 9.55477 63.3788C9.55477 63.3788 9.60686 61.9565 8.61722 62.0773C8.61722 62.0773 7.87135 61.9044 7.663 63.3621C7.663 63.3621 7.26298 65.5841 5.89207 65.6174C5.89207 65.6174 4.36491 65.582 4.2774 62.7374C4.2774 62.7374 4.31282 61.5234 5.31912 60.8112C5.31912 60.8112 5.73582 60.5863 5.66706 59.9949C5.66706 59.9949 5.66706 59.4576 4.85035 59.2827C4.85035 59.2827 1.7606 58.7621 1.70851 56.8525C1.70851 56.8525 1.55225 56.3152 2.81899 56.2111C2.81899 56.2111 5.45872 56.2632 5.94416 56.4194C5.94416 56.4194 7.05464 56.5068 7.87135 55.9342C7.87135 55.9342 10.3027 54.668 13.4279 52.0983L14.4175 51.3008C14.4175 51.3008 18.4282 52.1691 20.4762 52.7939C20.4762 52.7939 29.3663 55.501 31.9352 56.4027C31.9352 56.4027 41.9274 60.1157 44.4796 61.7295C44.4796 61.7295 46.3026 62.9269 46.7193 63.2393C46.7193 63.2393 47.3173 63.6287 48.1256 63.2643L51.355 61.8857L51.3487 61.8899Z" fill="#A7A9AC"/>
<path d="M49.0485 72.5617C49.0485 72.5617 50.6278 72.3889 51.3486 73.2552C51.3486 73.2552 51.3736 74.0527 52.1737 74.0527C52.1737 74.0527 52.8675 74.0048 53.0071 73.2989C53.0071 73.2989 54.7092 69.3319 58.8761 69.0903C58.8761 69.0903 61.5846 69.159 60.9596 72.6992C60.9596 72.6992 58.9282 81.2371 51.3507 86.062C51.3507 86.062 49.711 87.3115 47.6964 85.0562C47.6964 85.0562 46.1692 83.2862 46.3067 79.0526C46.3067 79.0526 45.8546 78.1155 43.8753 77.4554C43.8753 77.4554 39.7772 75.5458 36.3061 76.3455C36.3061 76.3455 34.5352 76.6578 33.0414 78.0468C33.0414 78.0468 28.4932 82.6968 21.1657 80.9622C21.1657 80.9622 19.0823 80.3375 17.5364 79.4878C17.5364 79.4878 16.7217 78.6882 16.2946 79.0464C16.2946 79.0464 15.3842 79.4108 15.9571 80.3208C15.9571 80.3208 17.6489 81.9347 18.4573 83.2091C18.4573 83.2091 20.6615 86.9491 19.0823 88.3548C19.0823 88.3548 18.701 88.5984 16.6697 87.9549C16.6697 87.9549 10.2631 85.9079 8.9609 80.4416C8.9609 80.4416 8.14419 76.6058 10.4193 74.5421C10.4193 74.5421 11.7569 73.0323 12.9715 74.0569C12.9715 74.0569 14.1529 74.9253 14.7425 75.827C14.7425 75.827 15.0029 76.208 16.3571 76.1747C16.3571 76.1747 19.4656 76.1747 20.697 74.7691C20.697 74.7691 21.5658 74.0402 21.1657 72.5825C21.1657 72.5825 27.7807 72.8595 33.5977 71.5247C33.5977 71.5247 48.061 68.6447 49.2589 68.2803C49.2589 68.2803 48.4943 70.5022 47.0359 72.393C47.0359 72.393 45.6129 74.0756 44.8316 74.388C44.8316 74.388 44.5545 74.5608 44.242 74.5608C44.242 74.5608 43.5128 74.7004 43.7045 75.5146C43.7045 75.5146 43.9649 76.6079 45.1108 76.0352C45.1108 76.0352 46.813 75.2376 48.0443 73.7445C48.0443 73.7445 48.6006 73.0323 48.8943 72.6513L49.0506 72.5638L49.0485 72.5617Z" fill="#C4802F"/>
<path d="M48.3713 32.0235C47.8046 33.6561 49.1088 35.5906 51.2819 36.3445C53.4549 37.0962 55.6759 36.384 56.2426 34.7493C56.8092 33.1167 55.505 31.1822 53.332 30.4283C51.1589 29.6766 48.938 30.3888 48.3713 32.0235Z" fill="#231F20"/>
<path d="M49.8713 31.7198C49.7192 32.1551 50.0963 32.6819 50.713 32.8943C51.3276 33.1067 51.9506 32.9276 52.1006 32.4903C52.2527 32.0551 51.8756 31.5283 51.2589 31.3159C50.6422 31.1035 50.0213 31.2825 49.8713 31.7198Z" fill="white"/>
<path d="M23.4388 19.6139C23.4388 19.6139 21.8408 21.6088 21.0782 23.0145C21.0782 23.0145 20.9386 23.2914 20.8866 23.3955C20.8866 23.3955 20.7074 23.8808 20.2407 23.9328C20.2407 23.9328 18.6635 24.0203 17.4655 21.7733C17.4655 21.7733 16.528 19.5618 18.0031 17.9125C18.0031 17.9125 19.4094 16.1945 21.6324 17.2878C21.6324 17.2878 23.42 18.1374 23.595 18.9704C23.595 18.9704 23.8034 19.3182 23.4388 19.6118" fill="#231F20"/>
<path d="M21.6343 19.2249C21.6343 19.2249 20.1509 21.2282 19.8113 21.9841C19.8113 21.9841 18.3528 21.3677 19.03 19.3894C19.03 19.3894 19.6717 17.6881 21.6343 19.2249" fill="white"/>
</g>
<defs>
<clipPath id="clip0_997_4229">
<rect width="76" height="90" fill="white" transform="matrix(-1 0 0 1 76 0)"/>
</clipPath>
</defs>
</svg>
