<svg width="167" height="48" viewBox="0 0 167 48" fill="none" xmlns="http://www.w3.org/2000/svg">
<g clip-path="url(#clip0_350_4741)">
<path d="M37.0629 22.9089C32.8897 20.0746 27.5515 21.2309 24.7433 25.491C22.4046 29.0556 18.8748 29.499 17.5099 29.499C13.0411 29.499 9.99819 26.3604 9.094 23.1089C9.094 23.1089 9.07662 23.048 9.06792 23.0132C9.05923 22.9784 9.05053 22.9437 9.04184 22.9089C8.68538 21.5526 8.59844 20.9093 8.59844 19.466C8.58975 11.7022 16.5535 3.06032 28.021 3.06032C39.4885 3.06032 46.4959 12.0065 48.226 16.9708C48.1913 16.8752 48.1652 16.797 48.1304 16.71C44.8093 6.99004 35.5849 0 24.726 0C11.0763 0 0 11.0676 0 24.7347C0 36.9411 8.8071 47.4001 21.031 47.4001C30.7683 47.4001 37.3237 41.9402 40.3231 34.4112C41.975 30.2902 40.81 25.4563 37.0715 22.9089H37.0629Z" fill="#003863"/>
<path d="M48.3835 17.4579C46.9316 12.6066 40.1676 3.06055 28.022 3.06055C16.5545 3.06055 8.58203 11.7025 8.58203 19.4663C8.58203 20.9095 8.66897 21.5529 9.02543 22.9091C8.87763 22.3179 8.79938 21.7267 8.79938 21.1442C8.79938 13.0587 16.8936 7.45975 25.2138 7.45975C36.4813 7.45975 45.6101 16.5885 45.6101 27.8561C45.6101 36.6805 40.5328 44.3313 33.1515 48.0002C42.6715 44.5574 49.4616 35.446 49.4616 24.7436C49.4616 22.2136 49.1225 19.9792 48.3748 17.4666L48.3835 17.4579Z" fill="#E4032E"/>
<path d="M80.5781 15.4233H67.5544V19.6312H80.5781V15.4233ZM64.5115 22.2742V12.7455H83.6124V22.2655H64.5115V22.2742ZM85.4381 24.8042V27.508H75.7182V31.3421H72.6231V27.508H62.7031V24.8042H85.4468H85.4381ZM67.6153 29.499H64.5202V36.7759H83.9341V34.0721H67.6153V29.499ZM96.1145 14.9103V12.2673H99.4443V14.9103H105.269V17.5533H90.2547V14.9103H96.1145ZM100.861 23.5522C100.861 22.735 100.566 22.0395 99.9659 21.4483C99.366 20.8571 98.6444 20.5702 97.7924 20.5702C96.9404 20.5702 96.2188 20.8658 95.6276 21.4483C95.0364 22.0395 94.7495 22.735 94.7495 23.5522C94.7495 24.3695 95.0451 25.065 95.6276 25.6562C96.2188 26.2474 96.9317 26.5343 97.7924 26.5343C98.6531 26.5343 99.366 26.2387 99.9659 25.6562C100.566 25.065 100.861 24.3695 100.861 23.5522ZM103.843 23.5522C103.843 24.3086 103.687 25.0302 103.374 25.7171C103.061 26.3952 102.626 26.9951 102.079 27.508C101.322 28.2123 100.401 28.6904 99.3226 28.9599V32.0898H105.808V34.7937H89.7417V32.0898H96.2536V28.9599C95.132 28.673 94.2192 28.1949 93.4975 27.508C92.9498 26.9951 92.5151 26.3952 92.2021 25.7171C91.8891 25.0389 91.7326 24.3173 91.7326 23.5522C91.7326 22.7872 91.8891 22.0742 92.2021 21.3961C92.5151 20.7093 92.9498 20.1181 93.4975 19.6051C94.0453 19.0922 94.6886 18.6922 95.4276 18.414C96.1666 18.1271 96.9491 17.988 97.7837 17.988C98.6184 17.988 99.4008 18.1271 100.14 18.414C100.879 18.7009 101.522 19.0922 102.07 19.6051C102.618 20.1181 103.052 20.718 103.365 21.3961C103.678 22.0742 103.835 22.7958 103.835 23.5522H103.843ZM110.781 37.2019H107.712V12.4325H110.781V22.8393H113.963V25.7431H110.781V37.2019V37.2019ZM117.328 16.6752V13.9714H129.439V16.6752H124.431L129.978 33.2461L127.361 34.046L123.492 22.1612L119.597 34.2459L116.867 33.42L122.466 16.6752H117.319H117.328ZM136.829 12.4412H139.785V37.2019H136.829V25.578H133.986V37.0628H131.117V12.4586H133.986V22.7176H136.829V12.4325V12.4412ZM144.853 17.1621V14.5713H150.652V12.1543H153.921V14.5713H159.433V17.1621H153.461L159.659 23.474L157.616 25.378L152.27 19.8312L147.01 25.8301L144.906 23.8652L151.104 17.1534H144.853V17.1621ZM163.641 26.2909H166.71V12.4325H163.641V18.0054H159.32V20.6484H163.641V26.2735V26.2909ZM164.606 31.9507C164.606 32.7853 164.433 33.5678 164.093 34.2981C163.754 35.0284 163.294 35.6718 162.728 36.2195C162.137 36.7672 161.45 37.2019 160.668 37.5236C159.886 37.8453 159.051 38.0105 158.181 38.0105C157.312 38.0105 156.477 37.8453 155.678 37.5236C154.878 37.2019 154.191 36.7672 153.6 36.2195C153.035 35.6718 152.574 35.0284 152.235 34.2981C151.896 33.5678 151.722 32.7853 151.722 31.9507C151.722 31.1161 151.896 30.3336 152.235 29.5946C152.574 28.8556 153.035 28.2123 153.6 27.6645C154.191 27.1168 154.878 26.6821 155.678 26.3604C156.477 26.0387 157.303 25.8736 158.181 25.8736C159.06 25.8736 159.886 26.0387 160.668 26.3604C161.45 26.6821 162.137 27.1168 162.728 27.6645C163.294 28.2123 163.754 28.8556 164.093 29.5946C164.433 30.3336 164.606 31.1161 164.606 31.9507ZM161.59 31.9246C161.59 30.9944 161.25 30.1945 160.564 29.5251C159.886 28.8556 159.077 28.5165 158.147 28.5165C157.216 28.5165 156.417 28.8556 155.747 29.5251C155.078 30.1945 154.739 31.0031 154.739 31.9246C154.739 32.8462 155.078 33.6461 155.747 34.3155C156.417 34.9763 157.216 35.3066 158.147 35.3066C159.077 35.3066 159.886 34.9763 160.564 34.3155C161.242 33.6548 161.59 32.8549 161.59 31.9246Z" fill="#575756"/>
</g>
<defs>
<clipPath id="clip0_350_4741">
<rect width="166.718" height="48" fill="white"/>
</clipPath>
</defs>
</svg>
