<svg width="20" height="20" viewBox="0 0 20 20" fill="none" xmlns="http://www.w3.org/2000/svg">
<g clip-path="url(#clip0_575_261)">
<g clip-path="url(#clip1_575_261)">
<path d="M15.1118 8.51868C15.4044 9.0265 15.8859 9.39811 16.4513 9.55253C17.0167 9.70696 17.6202 9.63169 18.1303 9.34313C18.1903 9.87916 18.0816 10.4206 17.8194 10.8919C17.5572 11.3633 17.1545 11.7411 16.6674 11.9728L16.6666 16.6668H11.4814V15.1853C11.4816 14.8116 11.3404 14.4516 11.0863 14.1775C10.8321 13.9035 10.4838 13.7356 10.1111 13.7076L9.99996 13.7039C9.6262 13.7037 9.26621 13.8449 8.99215 14.099C8.71809 14.3532 8.55022 14.7015 8.52219 15.0742L8.51848 15.1853V16.6668H3.3333V11.9735C2.84526 11.7422 2.44165 11.3642 2.17884 10.8923C1.91603 10.4205 1.80714 9.87837 1.86737 9.34164C2.37747 9.6308 2.9812 9.70655 3.54693 9.55239C4.11266 9.39823 4.59449 9.02665 4.88737 8.51868H15.1118ZM14.3926 10.0002H5.60663L5.55033 10.0587C5.23108 10.3698 4.85774 10.6216 4.44959 10.8009L4.37848 10.8298L4.81478 11.0372L4.81404 15.1853L7.03774 15.1846V15.1313L7.04515 14.9661C7.15552 13.4728 8.36367 12.3002 9.89997 12.2268L10.054 12.2231L10.2192 12.2305C10.9393 12.2839 11.6151 12.5985 12.1197 13.115C12.6242 13.6316 12.9228 14.3146 12.9592 15.0357L12.9622 15.1846L15.1852 15.1853L15.1859 11.0372L15.6207 10.8298L15.5503 10.8002C15.1418 10.6213 14.7689 10.3701 14.4496 10.0587L14.3926 10.0002ZM13.7303 3.3335C13.7833 3.70098 13.9146 4.05279 14.1153 4.36514C14.3161 4.67748 14.5815 4.94307 14.8938 5.14394C15.206 5.3448 15.5578 5.47626 15.9253 5.52941C16.2927 5.58256 16.6673 5.55617 17.0237 5.45201C16.9602 6.06577 16.68 6.63679 16.2333 7.06245C15.7866 7.4881 15.2027 7.74048 14.5866 7.77424L14.4444 7.77794H5.55552C4.91402 7.77804 4.29526 7.54031 3.81886 7.1107C3.34245 6.68109 3.04224 6.09011 2.97626 5.45201C3.33263 5.55617 3.70722 5.58256 4.07468 5.52941C4.44214 5.47626 4.79389 5.3448 5.10614 5.14394C5.4184 4.94307 5.68387 4.67748 5.88459 4.36514C6.08532 4.05279 6.21661 3.70098 6.26959 3.3335H13.7303ZM12.6666 4.81498H7.33256C7.06568 5.33753 6.68922 5.79636 6.22885 6.16016L6.04515 6.29646H13.954L13.9452 6.29053C13.4687 5.95371 13.0699 5.51877 12.7755 5.01498L12.6666 4.81498Z" fill="white"/>
</g>
</g>
<defs>
<clipPath id="clip0_575_261">
<rect width="20" height="20" fill="white"/>
</clipPath>
<clipPath id="clip1_575_261">
<rect width="17.7778" height="17.7778" fill="white" transform="translate(1.11108 1.11133)"/>
</clipPath>
</defs>
</svg>
