<svg width="43" height="52" viewBox="0 0 43 52" fill="none" xmlns="http://www.w3.org/2000/svg">
<path opacity="0.5" fill-rule="evenodd" clip-rule="evenodd" d="M0.148777 6.19737e-05L1.24555 0.617918L1.6946 0.870894L1.76827 0.797399L2.03024 1.05997L34.436 19.3155L34.5894 19.4019L34.6548 19.5654L38.5123 29.2066L38.5327 29.2576L38.5415 29.3119L41.9471 50.2058L42.0794 51.0176L41.2978 50.7613L13.3043 41.5818L13.0592 41.5014L12.9826 41.2552L0.522705 1.20207L0.148777 6.19737e-05ZM13.8583 40.7035L1.9372 2.38254L29.8754 30.3842L27.694 39.6951L13.8583 40.7035ZM39.4993 49.1192L16.3411 41.5252L28.1333 40.6657L28.323 40.6519L39.4993 49.1192ZM37.7172 30.4707L40.8173 49.4904L28.5955 40.2311L30.8806 30.4773L37.7172 30.4707ZM37.6357 29.9708L37.5634 29.527L33.7918 20.1004L4.64516 3.68083L30.7795 29.8746L30.882 29.9773L37.6357 29.9708Z" fill="#4282F0"/>
</svg>
