<svg width="130" height="170" viewBox="0 0 130 170" fill="none" xmlns="http://www.w3.org/2000/svg">
<path fill-rule="evenodd" clip-rule="evenodd" d="M129.369 0L129.018 1.20879L128.633 2.53445L128.962 2.73956L128.231 3.91516L93.8618 122.146L93.8127 122.315L93.6684 122.416L65.5435 142.104L65.4985 142.135L65.4476 142.156L0.760258 168.875L0 169.189L0.0712578 168.369L8.50874 71.3383L8.53108 71.0814L8.75335 70.9506L128.284 0.638251L129.369 0ZM127.706 2.13843L127.309 3.50392L56.5414 117.288H23.4369L9.48409 72.6387L9.39707 72.6659L9.48264 71.6818L127.706 2.13843ZM1.32644 165.478L9.18979 75.0496L22.5358 117.757L1.32644 165.478ZM65.015 141.253L1.53408 167.473L23.3943 118.288H56.4233L61.9576 141.808L62.931 141.579L57.3536 117.875L126.276 7.05898L92.9507 121.698L65.015 141.253Z" fill="#4282F0"/>
</svg>
