<svg width="14" height="17" viewBox="0 0 14 17" fill="none" xmlns="http://www.w3.org/2000/svg">
<path d="M12.9994 5.18064L12.9986 5.49148H12.9997V13H1V5.49148H1.00141L1.00028 5.18064C1.00028 5.17589 1.00028 5.17114 1.00028 5.16639V5.16372C1.00028 2.3163 3.69179 0 7.00014 0C10.3085 0 13 2.3163 13 5.16313V5.16639C12.9997 5.17114 12.9997 5.17589 12.9997 5.18064H12.9994Z" fill="#CCCCCC"/>
<path d="M14 14.7601V16.3339C14 16.4577 13.9137 16.5586 13.8077 16.5586H0.192081C0.0860387 16.5586 0 16.4577 0 16.3339V14.7601C0 14.636 0.0860387 14.5352 0.192081 14.5352H13.8077C13.9137 14.5352 14 14.636 14 14.7601Z" fill="#CCCCCC"/>
</svg>
