<svg width="48" height="16" viewBox="0 0 48 16" fill="none" xmlns="http://www.w3.org/2000/svg">
<g clip-path="url(#clip0_10_21)">
<path d="M30.2898 10.4618C29.1659 11.5684 27.8374 11.7935 26.1894 11.7935H12.0558C10.9303 11.7935 9.93238 10.8853 9.46646 9.60397H5.79416C6.46314 12.6939 9.01628 15.0014 12.0558 15.0014H26.1894C28.1994 15.0014 30.7809 14.7307 32.9216 12.6262L35.2355 10.3501L32.8209 7.97324C31.4404 9.33166 30.2914 10.4618 30.2914 10.4618H30.2898Z" fill="#ED1B2F"/>
<path d="M12.0558 4.20649H21.2688C21.6749 4.20649 22.1283 4.6551 22.1283 5.30046C22.1283 5.94583 21.6749 6.39601 21.2688 6.39601H9.46487C9.28543 6.88712 9.18469 7.43175 9.18469 7.99999C9.18469 8.56823 9.28543 9.11443 9.46487 9.60397H21.2672C23.707 9.60397 25.6919 7.67258 25.6919 5.30046C25.6919 2.92834 23.707 0.998535 21.2672 0.998535H12.0542C9.01312 0.998535 6.45998 3.30612 5.79257 6.39601H9.46487C9.93237 5.11472 10.9303 4.20649 12.0542 4.20649H12.0558Z" fill="#ED1B2F"/>
<path d="M9.18468 8C9.18468 7.43019 9.28542 6.88556 9.46486 6.39603H5.79256C5.6808 6.91232 5.61942 7.4475 5.61942 8C5.61942 8.5525 5.6808 9.08926 5.79256 9.60398H9.46486C9.28699 9.11287 9.18468 8.56981 9.18468 8Z" fill="#853135"/>
<path d="M5.79257 6.39603H1.78185C0.798052 6.39603 0 7.1138 0 8C0 8.8862 0.798052 9.60398 1.78185 9.60398H5.79257C5.68081 9.08768 5.61942 8.5525 5.61942 8C5.61942 7.4475 5.68081 6.91075 5.79257 6.39603Z" fill="#ED1B2F"/>
<path d="M40.1214 5.53972C41.2453 4.43473 42.5738 4.20649 44.2219 4.20649H45.3961C46.3799 4.20649 47.178 3.48871 47.178 2.60251C47.178 1.71631 46.3799 0.998535 45.3961 0.998535H44.2219C42.2118 0.998535 39.6303 1.26927 37.4896 3.3738C37.4896 3.3738 36.4885 4.35917 35.2339 5.59481L37.6486 7.97166L40.1214 5.53815V5.53972Z" fill="#ED1B2F"/>
<path d="M32.6887 3.09678C31.6703 2.0941 30.4 1.32753 28.9943 1.04577C28.0357 0.853733 27.063 1.30864 26.8001 2.16178C26.5356 3.01493 27.0913 3.89955 28.0405 4.13724C28.8417 4.33715 29.4839 4.69446 30.0584 5.26112L32.8193 7.97167C33.6064 7.19723 34.4674 6.3488 35.2339 5.59483L32.6887 3.09678V3.09678Z" fill="#007DC3"/>
<path d="M45.4182 11.7667H44.2439C42.5943 11.7667 41.2658 11.5401 40.1434 10.4335L37.6501 7.97324L35.2355 10.3501L37.5132 12.5994C39.6523 14.7055 42.2354 14.9747 44.2455 14.9747H45.4197C46.4035 14.9747 47.2016 14.2569 47.2016 13.3707C47.2016 12.4845 46.4035 11.7667 45.4197 11.7667H45.4182Z" fill="#007DC3"/>
<path d="M35.2339 5.59482C34.4674 6.35037 33.6048 7.19722 32.8193 7.97166L35.2339 10.3485L37.6485 7.97166L35.2339 5.59482V5.59482Z" fill="#21368B"/>
</g>
<defs>
<clipPath id="clip0_10_21">
<rect width="47.2" height="14.0029" fill="white" transform="translate(0 0.998535)"/>
</clipPath>
</defs>
</svg>
