<svg width="16" height="14" viewBox="0 0 16 14" fill="none" xmlns="http://www.w3.org/2000/svg">
<path d="M4.53092 0.5C4.53092 0.223858 4.30707 0 4.03093 0H0.5C0.223858 0 0 0.223858 0 0.5V3.48222C0 3.75836 0.223857 3.98222 0.499999 3.98222H4.03092C4.30707 3.98222 4.53092 3.75836 4.53092 3.48222V0.5Z" fill="white"/>
<path d="M10.2654 0.5C10.2654 0.223858 10.0416 0 9.76543 0H6.2345C5.95836 0 5.7345 0.223858 5.7345 0.5V3.48222C5.7345 3.75836 5.95836 3.98222 6.2345 3.98222H9.76543C10.0416 3.98222 10.2654 3.75836 10.2654 3.48222V0.5Z" fill="white"/>
<path d="M4.53092 5.47778C4.53092 5.20164 4.30707 4.97778 4.03093 4.97778H0.5C0.223858 4.97778 0 5.20164 0 5.47778V8.46C0 8.73614 0.223857 8.96 0.499999 8.96H4.03092C4.30707 8.96 4.53092 8.73614 4.53092 8.46V5.47778Z" fill="white"/>
<path d="M10.2654 5.47778C10.2654 5.20164 10.0416 4.97778 9.76543 4.97778H6.2345C5.95836 4.97778 5.7345 5.20164 5.7345 5.47778V8.46C5.7345 8.73614 5.95836 8.96 6.2345 8.96H9.76543C10.0416 8.96 10.2654 8.73614 10.2654 8.46V5.47778Z" fill="white"/>
<path d="M15.9999 0.5C15.9999 0.223858 15.776 0 15.4999 0H11.969C11.6928 0 11.469 0.223858 11.469 0.5V3.48222C11.469 3.75836 11.6928 3.98222 11.969 3.98222H15.4999C15.776 3.98222 15.9999 3.75836 15.9999 3.48222V0.5Z" fill="white"/>
<path d="M15.9999 5.47778C15.9999 5.20164 15.776 4.97778 15.4999 4.97778H11.969C11.6928 4.97778 11.469 5.20164 11.469 5.47778V8.46C11.469 8.73614 11.6928 8.96 11.969 8.96H15.4999C15.776 8.96 15.9999 8.73614 15.9999 8.46V5.47778Z" fill="white"/>
<path d="M4.53091 10.5178C4.53091 10.2416 4.30705 10.0178 4.03091 10.0178H0.499983C0.22384 10.0178 -1.73179e-05 10.2416 -1.73179e-05 10.5178V13.5C-1.73179e-05 13.7761 0.22384 14 0.499982 14H4.03091C4.30705 14 4.53091 13.7761 4.53091 13.5V10.5178Z" fill="white"/>
<path d="M10.2654 10.5178C10.2654 10.2416 10.0416 10.0178 9.76541 10.0178H6.23449C5.95834 10.0178 5.73449 10.2416 5.73449 10.5178V13.5C5.73449 13.7761 5.95834 14 6.23448 14H9.76541C10.0416 14 10.2654 13.7761 10.2654 13.5V10.5178Z" fill="white"/>
<path d="M15.9999 10.5178C15.9999 10.2416 15.776 10.0178 15.4999 10.0178H11.9689C11.6928 10.0178 11.4689 10.2416 11.4689 10.5178V13.5C11.4689 13.7761 11.6928 14 11.9689 14H15.4999C15.776 14 15.9999 13.7761 15.9999 13.5V10.5178Z" fill="white"/>
</svg>
