<svg width="14" height="19" viewBox="0 0 14 19" fill="none" xmlns="http://www.w3.org/2000/svg">
<path d="M6.99998 0.574524C5.16179 0.576651 3.39948 1.32239 2.09968 2.64813C0.799879 3.97387 0.0687357 5.77135 0.0666504 7.64623C0.0666504 13.6974 6.36968 18.2699 6.63756 18.4627C6.74491 18.5356 6.87101 18.5745 6.99998 18.5745C7.12896 18.5745 7.25505 18.5356 7.36241 18.4627C7.63029 18.2699 13.9333 13.6974 13.9333 7.64623C13.9312 5.77135 13.2001 3.97387 11.9003 2.64813C10.6005 1.32239 8.83818 0.576651 6.99998 0.574524ZM6.99998 5.0747C7.49863 5.0747 7.98608 5.22552 8.40069 5.50808C8.81531 5.79064 9.13846 6.19226 9.32928 6.66215C9.52011 7.13203 9.57003 7.64908 9.47275 8.14791C9.37547 8.64674 9.13535 9.10494 8.78275 9.46457C8.43015 9.82421 7.98092 10.0691 7.49185 10.1683C7.00278 10.2676 6.49585 10.2166 6.03516 10.022C5.57447 9.82738 5.18071 9.49778 4.90367 9.07489C4.62664 8.65201 4.47877 8.15483 4.47877 7.64623C4.47877 6.96421 4.7444 6.31014 5.21722 5.82788C5.69004 5.34563 6.33132 5.0747 6.99998 5.0747Z" fill="#CCCCCC"/>
</svg>
