<svg width="16" height="16" viewBox="0 0 16 16" fill="none" xmlns="http://www.w3.org/2000/svg">
<g clip-path="url(#clip0_12_40)">
<g clip-path="url(#clip1_12_40)">
<path d="M8 10.6667C9.47276 10.6667 10.6667 9.47277 10.6667 8.00001C10.6667 6.52725 9.47276 5.33334 8 5.33334C6.52724 5.33334 5.33333 6.52725 5.33333 8.00001C5.33333 9.47277 6.52724 10.6667 8 10.6667Z" stroke="#6F7277" stroke-width="0.8" stroke-linecap="round" stroke-linejoin="round"/>
<path d="M8 1.33334V2.66668" stroke="#6F7277" stroke-width="0.8" stroke-linecap="round" stroke-linejoin="round"/>
<path d="M8 13.3333V14.6667" stroke="#6F7277" stroke-width="0.8" stroke-linecap="round" stroke-linejoin="round"/>
<path d="M3.33333 3.33334L4.33333 4.33334" stroke="#6F7277" stroke-width="0.8" stroke-linecap="round" stroke-linejoin="round"/>
<path d="M11.6667 11.6667L12.6667 12.6667" stroke="#6F7277" stroke-width="0.8" stroke-linecap="round" stroke-linejoin="round"/>
<path d="M1.33333 8H2.66667" stroke="#6F7277" stroke-width="0.8" stroke-linecap="round" stroke-linejoin="round"/>
<path d="M13.3333 8H14.6667" stroke="#6F7277" stroke-width="0.8" stroke-linecap="round" stroke-linejoin="round"/>
<path d="M3.33333 12.6667L4.33333 11.6667" stroke="#6F7277" stroke-width="0.8" stroke-linecap="round" stroke-linejoin="round"/>
<path d="M11.6667 4.33334L12.6667 3.33334" stroke="#6F7277" stroke-width="0.8" stroke-linecap="round" stroke-linejoin="round"/>
</g>
</g>
<defs>
<clipPath id="clip0_12_40">
<rect width="16" height="16" fill="white"/>
</clipPath>
<clipPath id="clip1_12_40">
<rect width="16" height="16" fill="white"/>
</clipPath>
</defs>
</svg>
