<svg id="bbe15c85-c6b2-4ac4-a2e6-2cdba83a44b7" data-name="레이어 1" xmlns="http://www.w3.org/2000/svg" viewBox="0 0 60 64"><rect width="60" height="64" style="fill:#333"/><path d="M15.66,48c0-2.88,1.76-4.61,4-4.61a3.42,3.42,0,0,1,2.52,1.12l-.76.89a2.34,2.34,0,0,0-1.73-.8c-1.53,0-2.59,1.28-2.59,3.35s1,3.38,2.55,3.38a2.59,2.59,0,0,0,2-.93l.74.87a3.49,3.49,0,0,1-2.76,1.28C17.37,52.54,15.66,50.88,15.66,48Z" style="fill:#fff"/><path d="M23.43,48c0-2.88,1.76-4.61,4-4.61a3.39,3.39,0,0,1,2.51,1.12l-.75.89a2.38,2.38,0,0,0-1.74-.8c-1.53,0-2.59,1.28-2.59,3.35s1,3.38,2.56,3.38a2.59,2.59,0,0,0,2-.93l.74.87a3.49,3.49,0,0,1-2.75,1.28C25.14,52.54,23.43,50.88,23.43,48Z" style="fill:#fff"/><path d="M33.49,44.71h-2.6V43.54H37.5v1.17H34.89v7.67h-1.4Z" style="fill:#fff"/><path d="M37.83,43.54h1.48l1.32,4.58c.3,1,.5,1.87.8,2.89h.06c.32-1,.52-1.88.81-2.89l1.31-4.58H45l-2.77,8.84H40.61Z" style="fill:#fff"/><polygon points="36.74 16.98 35.3 15.85 36.2 13.85 37.98 14.24 36.74 16.98" style="fill:#fff"/><polygon points="30.46 17.51 30.46 16.62 30.41 15.05 34.58 16.29 35.83 13.05 28.92 9.91 27.45 14.17 28.94 14.61 28.94 16.21 28.94 17.51 30.46 17.51" style="fill:#fff"/><rect x="28.94" y="17.98" width="1.53" height="1.53" rx="0.17" style="fill:#fff"/><rect x="24.7" y="17.33" width="0.68" height="2.95" rx="0.14" style="fill:#fff"/><rect x="23.75" y="16.72" width="0.69" height="4.18" rx="0.14" style="fill:#fff"/><rect x="24.7" y="17.98" width="3.65" height="1.53" style="fill:#fff"/><polygon points="25.54 32 24.1 30.88 25 28.87 26.78 29.26 25.54 32" style="fill:#fff"/><polygon points="19.26 32.53 19.26 31.65 19.22 30.08 23.38 31.32 24.63 28.08 17.72 24.94 16.25 29.2 17.74 29.64 17.74 31.23 17.74 32.53 19.26 32.53" style="fill:#fff"/><rect x="17.74" y="33.01" width="1.53" height="1.53" rx="0.17" style="fill:#fff"/><rect x="13.5" y="32.36" width="0.68" height="2.95" rx="0.14" style="fill:#fff"/><rect x="12.55" y="31.74" width="0.69" height="4.18" rx="0.14" style="fill:#fff"/><rect x="13.5" y="33.01" width="3.65" height="1.53" style="fill:#fff"/><polygon points="46.22 32 44.77 30.88 45.68 28.87 47.45 29.26 46.22 32" style="fill:#fff"/><polygon points="39.93 32.53 39.93 31.65 39.89 30.08 44.05 31.32 45.31 28.08 38.4 24.94 36.93 29.2 38.42 29.64 38.41 31.23 38.41 32.53 39.93 32.53" style="fill:#fff"/><rect x="38.41" y="33.01" width="1.53" height="1.53" rx="0.17" style="fill:#fff"/><rect x="34.17" y="32.36" width="0.68" height="2.95" rx="0.14" style="fill:#fff"/><rect x="33.22" y="31.74" width="0.69" height="4.18" rx="0.14" style="fill:#fff"/><rect x="34.17" y="33.01" width="3.65" height="1.53" style="fill:#fff"/><rect y="63.5" width="60" height="0.5" style="fill:#ccc"/></svg>