<svg id="ecaaaa35-a0ee-424f-a054-7995a5e29beb" data-name="레이어 1" xmlns="http://www.w3.org/2000/svg" viewBox="0 0 60 63.75"><rect width="60" height="63.75" style="fill:#fafafa"/><line y1="63.75" x2="60" y2="63.75" style="fill:none;stroke:#cbcbcb;stroke-miterlimit:10;stroke-width:0.5px"/><path d="M18.31,42.24v1H8.47v-1ZM9,40.88c2-.16,3.45-.91,3.67-1.8H9.38v-1h8v1H14.16c.22.89,1.62,1.64,3.66,1.8l-.39.93c-1.89-.15-3.39-.82-4-1.82-.64,1-2.13,1.67-4,1.82Zm1.93,6.64h6.5v.95H9.66v-2.7h6.2V45H9.63V44h7.44v2.61H10.89Z" style="fill:#b3b3b3"/><path d="M28.55,37.72V48.57H27.3v-4H24.49v-1H27.3V41.61H24.66a8.21,8.21,0,0,1-4.51,5l-.66-1c2.72-1.37,4.06-3.28,4.29-5.76H20v-1H25a9.88,9.88,0,0,1-.15,1.74H27.3V37.72Z" style="fill:#b3b3b3"/><path d="M36.47,43.72a4.08,4.08,0,0,1-2.62-2,4.14,4.14,0,0,1-2.69,2.2l-.58-1a3.23,3.23,0,0,0,2.62-3v-.09H30.92v-1H33.2V37.7h1.26v1.2h2.27v1H34.44V40A3.09,3.09,0,0,0,37,42.76Zm-.11,1.76c.23,1,1.52,1.86,3.33,2.13l-.44.93a5,5,0,0,1-3.57-2,5,5,0,0,1-3.58,2l-.47-1c1.85-.24,3.14-1.11,3.36-2.1H32.08v-1h7.18v1Zm4.28-5.18v1H39.1V44H37.86V37.74H39.1V40.3Z" style="fill:#b3b3b3"/><path d="M47.45,38.87c0,3.23-1.3,6-5,7.76l-.66-1c2.85-1.37,4.2-3.27,4.41-5.77H42.3v-1Zm3.2-1.13V48.57H49.41V37.74Z" style="fill:#b3b3b3"/><path d="M27.68,19.84l2.44-5.6a.21.21,0,0,1,.39,0l2.39,5.62a.23.23,0,0,0,.17.13l6.09.59a.21.21,0,0,1,.11.37l-4.6,4a.2.2,0,0,0-.07.2l1.32,6a.21.21,0,0,1-.31.22l-5.25-3.14a.2.2,0,0,0-.21,0l-5.27,3.1a.21.21,0,0,1-.31-.23l1.37-5.95a.22.22,0,0,0-.06-.21L21.3,20.87a.21.21,0,0,1,.12-.36L27.51,20A.21.21,0,0,0,27.68,19.84Z" style="fill:#b3b3b3"/></svg>