<svg width="104" height="104" viewBox="0 0 104 104" fill="none" xmlns="http://www.w3.org/2000/svg">
<circle cx="52" cy="52" r="52" fill="#1C1A54"/>
<mask id="mask0_818_18983" style="mask-type:alpha" maskUnits="userSpaceOnUse" x="0" y="0" width="104" height="104">
<circle cx="52" cy="52" r="52" fill="#1C1A54"/>
</mask>
<g mask="url(#mask0_818_18983)">
<g clip-path="url(#clip0_818_18983)">
<path d="M80.1962 65.0883L68.7137 53.6459L56.7566 69.3886L40.7012 53.3944L41.8571 64.354L21.7739 44.3411C19.5027 62.9507 35.9063 86.8415 35.9063 86.8415L39.6262 106.291C47.0605 108.324 54.8654 108.621 62.4336 107.158C70.0018 105.695 77.1292 102.512 83.2615 97.8564C89.3938 93.2007 94.3654 87.1979 97.7898 80.3151C101.214 73.4322 102.999 65.8549 103.005 58.1726C103.005 57.906 103.005 57.6394 103.005 57.3729L88.4081 42.8322L80.1962 65.0883Z" fill="#2E2C5D"/>
<path d="M71.3435 50.1236C70.6973 49.4803 69.9117 48.9934 69.047 48.7002L74.8766 42.8709C75.1865 42.5621 75.4324 42.1956 75.6002 41.7921C75.7679 41.3887 75.8543 40.9562 75.8543 40.5195C75.8543 40.0828 75.7679 39.6504 75.6002 39.2469C75.4324 38.8435 75.1865 38.4769 74.8766 38.1681L68.7946 32.1074C68.5651 33.1471 68.0591 34.1062 67.3297 34.884C66.6004 35.6619 65.6745 36.2299 64.6491 36.5286C63.6237 36.8273 62.5366 36.8457 61.5016 36.5818C60.4667 36.3179 59.522 35.7815 58.7666 35.0288C58.0112 34.276 57.4728 33.3346 57.208 32.3033C56.9432 31.2719 56.9617 30.1886 57.2614 29.1668C57.5612 28.145 58.1312 27.2224 58.9118 26.4956C59.6924 25.7688 60.6548 25.2646 61.6981 25.0358L55.6414 19.0002C55.0142 18.3774 54.1648 18.0276 53.2793 18.0276C52.3938 18.0276 51.5444 18.3774 50.9171 19.0002L45.0673 24.8296C44.7383 23.8779 44.1718 23.0252 43.421 22.3517C42.6702 21.6782 41.7599 21.2061 40.7756 20.9798C39.7914 20.7534 38.7655 20.7802 37.7945 21.0577C36.8235 21.3352 35.9392 21.8543 35.225 22.5661C34.5107 23.2778 33.9898 24.159 33.7113 25.1266C33.4329 26.0942 33.4059 27.1165 33.6331 28.0973C33.8602 29.0782 34.334 29.9853 35.0098 30.7334C35.6857 31.4816 36.5414 32.0461 37.4964 32.374L31.6365 38.1732C31.326 38.4816 31.0795 38.848 30.9114 39.2515C30.7433 39.655 30.6567 40.0876 30.6567 40.5245C30.6567 40.9614 30.7433 41.394 30.9114 41.7975C31.0795 42.201 31.326 42.5675 31.6365 42.8759L37.4459 48.665C36.6091 48.9696 35.8515 49.4574 35.2289 50.0925C34.6063 50.7277 34.1347 51.4939 33.8487 52.3347C33.5627 53.1756 33.4697 54.0696 33.5765 54.9511C33.6833 55.8325 33.9872 56.6788 34.4658 57.4277C34.9443 58.1766 35.5854 58.8089 36.3418 59.2781C37.0981 59.7473 37.9505 60.0414 38.8361 60.1388C39.7216 60.2362 40.6179 60.1344 41.4587 59.8408C42.2995 59.5472 43.0635 59.0694 43.6945 58.4426C44.3157 57.8329 44.7947 57.0946 45.0976 56.2798L50.907 62.074C51.5343 62.6968 52.3837 63.0466 53.2692 63.0466C54.1547 63.0466 55.0041 62.6968 55.6313 62.074L61.4811 56.2396C61.771 57.1033 62.2602 57.8872 62.9095 58.5281C63.4633 59.0799 64.1207 59.5177 64.8443 59.8163C65.5678 60.115 66.3433 60.2687 67.1265 60.2687C67.9097 60.2687 68.6852 60.115 69.4087 59.8163C70.1323 59.5177 70.7897 59.0799 71.3435 58.5281C71.8973 57.9762 72.3366 57.3211 72.6363 56.6001C72.936 55.879 73.0902 55.1063 73.0902 54.3258C73.0902 53.5454 72.936 52.7726 72.6363 52.0516C72.3366 51.3306 71.8973 50.6754 71.3435 50.1236V50.1236Z" fill="#6C84FF"/>
<path d="M48.4488 89.1001C48.4488 89.1001 53.163 78.9201 48.8425 69.1325L42.9473 55.8241C42.9473 55.8241 41.3776 52.1072 38.0413 53.0829C34.7051 54.0587 36.4666 58.3691 36.4666 58.3691L38.2331 67.9606C38.2331 67.9606 31.3587 66.3964 28.4162 63.4339C25.4736 60.4715 22.9146 55.3865 22.9146 52.082C22.9146 48.7776 22.5209 43.074 18.9828 42.6867C15.4447 42.2994 16.0402 48.164 16.0402 50.5128C16.0402 52.8616 16.0402 66.5674 24.0906 76.5512L29.789 86.53V92.2084H48.0551L48.4488 89.1001Z" fill="#FFD1CA"/>
<path d="M29.7891 90.2765V92.233H48.0552L48.3025 90.2765H29.7891Z" fill="#FFC1BB"/>
<path d="M49.6251 91.2505H29.1987V98.4931H49.6251V91.2505Z" fill="white"/>
<path d="M49.6251 93.2146H29.1987V96.5442H49.6251V93.2146Z" fill="#EDEDED"/>
<path d="M28.4414 101.689C35.1817 105.473 42.7151 107.638 50.4425 108.011V94.3862H28.4414V101.689Z" fill="#FBCB47"/>
<path d="M57.4078 89.1001C57.4078 89.1001 52.6936 78.9201 57.0141 69.1325L62.9043 55.8241C62.9043 55.8241 64.4791 52.1072 67.8153 53.0829C71.1516 54.0587 69.3901 58.3691 69.3901 58.3691L67.6185 67.9606C67.6185 67.9606 74.4979 66.3964 77.4405 63.4339C80.383 60.4715 82.942 55.3865 82.942 52.082C82.942 48.7776 83.3357 43.074 86.8739 42.6867C90.412 42.2994 89.8164 48.164 89.8164 50.5128C89.8164 52.8616 89.8164 66.5674 81.7408 76.5512L76.0424 86.53V92.2084H57.8015L57.4078 89.1001Z" fill="#FFD1CA"/>
<path d="M76.0676 90.2765V92.233H57.7965L57.5542 90.2765H76.0676Z" fill="#FFC1BB"/>
<path d="M76.6534 91.2505H56.2271V98.4931H76.6534V91.2505Z" fill="white"/>
<path d="M76.6534 93.2146H56.2271V96.5442H76.6534V93.2146Z" fill="#EDEDED"/>
<path d="M55.4395 108.011C63.1668 107.638 70.7002 105.473 77.4405 101.689V94.3862H55.4395V108.011Z" fill="#FBCB47"/>
</g>
</g>
<defs>
<clipPath id="clip0_818_18983">
<rect width="87" height="90.0706" fill="white" transform="translate(16 18)"/>
</clipPath>
</defs>
</svg>
