<svg width="104" height="104" viewBox="0 0 104 104" fill="none" xmlns="http://www.w3.org/2000/svg">
<circle cx="52" cy="52" r="52" fill="#1C1A54"/>
<mask id="mask0_818_18984" style="mask-type:alpha" maskUnits="userSpaceOnUse" x="0" y="0" width="104" height="104">
<circle cx="52" cy="52" r="52" fill="#1C1A54"/>
</mask>
<g mask="url(#mask0_818_18984)">
<g clip-path="url(#clip0_818_18984)">
<path d="M101.933 61.5086L64.7606 24.8097L31.6904 52.8396L47.2047 68.3538L42.3491 80.3152L54.3104 92.2765L60.2887 105.702C71.3347 104.448 81.5792 99.3213 89.2033 91.2307C96.8273 83.1401 101.338 72.6095 101.933 61.5086V61.5086Z" fill="#2E2C5E"/>
<path d="M49.3652 61.9112C61.4001 61.9112 71.1562 52.155 71.1562 40.1202C71.1562 28.0854 61.4001 18.3292 49.3652 18.3292C37.3304 18.3292 27.5742 28.0854 27.5742 40.1202C27.5742 52.155 37.3304 61.9112 49.3652 61.9112Z" fill="#FF5757"/>
<path d="M46.5795 48.8078L57.9487 42.2516C58.3249 42.0371 58.6376 41.7269 58.8551 41.3525C59.0726 40.9781 59.1872 40.5528 59.1872 40.1198C59.1872 39.6868 59.0726 39.2615 58.8551 38.8871C58.6376 38.5127 58.3249 38.2026 57.9487 37.9881L46.4469 31.3561C46.0737 31.1406 45.6504 31.0272 45.2195 31.0273C44.7886 31.0274 44.3653 31.141 43.9922 31.3566C43.6191 31.5721 43.3094 31.8822 43.0942 32.2555C42.8789 32.6288 42.7658 33.0521 42.7661 33.483V46.7756C42.7649 47.2219 42.8858 47.6601 43.1156 48.0428C43.3454 48.4255 43.6754 48.7381 44.0699 48.9468C44.4645 49.1556 44.9086 49.2525 45.3542 49.2272C45.7999 49.2018 46.2301 49.0552 46.5985 48.8031L46.5795 48.8078Z" fill="white"/>
<path d="M75.9261 63.8673V56.4583C75.9317 55.9397 75.835 55.4251 75.6415 54.9439C75.4481 54.4627 75.1616 54.0243 74.7986 53.6539V53.6539C74.371 53.2221 73.8496 52.8947 73.2748 52.6973C72.7 52.4998 72.0874 52.4376 71.4847 52.5156C70.882 52.5935 70.3054 52.8094 69.7997 53.1465C69.294 53.4836 68.873 53.9328 68.5692 54.4592C68.4401 53.5148 67.9739 52.6489 67.2565 52.0212C66.5392 51.3935 65.619 51.0464 64.6658 51.0437C63.9469 51.0435 63.2413 51.2381 62.624 51.6067C62.0068 51.9754 61.501 52.5044 61.1603 53.1376C60.9978 52.4544 60.6564 51.8267 60.1711 51.3192C59.6857 50.8116 59.074 50.4423 58.3988 50.2494C57.7235 50.0565 57.0091 50.0468 56.3289 50.2214C55.6487 50.396 55.0272 50.7485 54.5283 51.2427C54.302 51.4684 54.1046 51.7214 53.9409 51.9959L53.9788 39.8545C53.9823 39.3341 53.8823 38.8182 53.6847 38.3368C53.4871 37.8553 53.1958 37.418 52.8276 37.0501V37.0501C52.4622 36.6804 52.027 36.3869 51.5472 36.1869C51.0674 35.9868 50.5525 35.8841 50.0327 35.8848C48.9827 35.8823 47.9747 36.2963 47.2296 37.0361C46.4845 37.7758 46.0632 38.7809 46.0582 39.8308L45.973 67.008C43.3249 66.6859 40.3973 64.6394 40.3357 64.5968L36.4607 61.4845C36.3849 61.3945 34.5658 59.3101 32.3583 59.3054C31.8238 59.3141 31.298 59.4415 30.8187 59.6782C30.3395 59.915 29.9188 60.2553 29.5871 60.6744C29.2971 60.982 29.0734 61.346 28.93 61.7436C28.7866 62.1413 28.7264 62.5642 28.7533 62.9861C28.8812 64.8526 30.6198 66.3732 30.6482 66.4017L40.8426 78.7183C41.051 78.9409 41.2547 79.1541 41.4584 79.3578C44.3007 82.2001 46.8588 83.806 49.2795 84.6966V92.2998L70.7436 92.3708L70.7673 84.1518C73.2875 82.4654 75.8929 79.102 75.9119 72.3847L75.9403 63.8957L75.9261 63.8673Z" fill="#FFD1CA"/>
<path d="M46.2763 90.8817L46.2476 100.024L73.6662 100.111L73.6949 90.9678L46.2763 90.8817Z" fill="white"/>
<path d="M46.2631 96.3189L46.2515 100.023L73.6748 100.11L73.6864 96.4051L46.2631 96.3189Z" fill="#EDEDED"/>
<path d="M43.0596 104.46C54.4345 107.443 66.5139 106.06 76.9209 100.585V98.0741L43.0596 97.9651V104.46Z" fill="#FBCB47"/>
</g>
</g>
<defs>
<clipPath id="clip0_818_18984">
<rect width="93.995" height="93.9997" fill="white" transform="translate(8 12)"/>
</clipPath>
</defs>
</svg>
