<svg width="70" height="70" viewBox="0 0 70 70" fill="none" xmlns="http://www.w3.org/2000/svg">
<path d="M55.544 61.4761H14.8997C13.8549 61.4761 13 60.6212 13 59.5764V9.89892C13 8.85408 13.8549 7.99921 14.8997 7.99921H55.544C56.5889 7.99921 57.4437 8.85408 57.4437 9.89892V59.5764C57.4437 60.6212 56.5889 61.4761 55.544 61.4761ZM16.7994 57.6767H53.6443V11.7986H16.7994V57.6767Z" fill="#222222"/>
<path d="M34.4 30.8L34.8961 29.9317C34.5866 29.7549 34.2064 29.7562 33.8981 29.9351C33.5897 30.114 33.4 30.4435 33.4 30.8H34.4ZM34.4 37.2H33.4C33.4 37.5565 33.5897 37.886 33.8981 38.0649C34.2064 38.2438 34.5866 38.2451 34.8961 38.0682L34.4 37.2ZM40 34L40.4961 34.8682C40.8077 34.6902 41 34.3588 41 34C41 33.6411 40.8077 33.3098 40.4961 33.1317L40 34ZM36 44.2C30.3667 44.2 25.8 39.6333 25.8 34H23.8C23.8 40.7379 29.2621 46.2 36 46.2V44.2ZM46.2 34C46.2 39.6333 41.6333 44.2 36 44.2V46.2C42.7379 46.2 48.2 40.7379 48.2 34H46.2ZM36 23.8C41.6333 23.8 46.2 28.3667 46.2 34H48.2C48.2 27.2621 42.7379 21.8 36 21.8V23.8ZM36 21.8C29.2621 21.8 23.8 27.2621 23.8 34H25.8C25.8 28.3667 30.3667 23.8 36 23.8V21.8ZM33.4 30.8V37.2H35.4V30.8H33.4ZM34.8961 38.0682L40.4961 34.8682L39.5038 33.1317L33.9038 36.3317L34.8961 38.0682ZM40.4961 33.1317L34.8961 29.9317L33.9038 31.6682L39.5038 34.8682L40.4961 33.1317Z" fill="#F62D44"/>
</svg>
