<svg width="36" height="36" viewBox="0 0 36 36" fill="none" xmlns="http://www.w3.org/2000/svg">
<rect width="36" height="36" rx="18" fill="#F9E000"/>
<g clip-path="url(#clip0)">
<path d="M15.4746 16.8285H16.6826L16.1088 14.9551L15.4746 16.8285Z" fill="#381E1F"/>
<path d="M18.0038 8C12.4772 8 8 11.6611 8 16.173C8 19.1081 9.89505 21.6841 12.749 23.1282C12.5376 23.9322 11.994 26.0555 11.8807 26.5082C11.7448 27.0703 12.077 27.0624 12.296 26.9141C12.4696 26.797 15.0366 24.9938 16.1465 24.2132C16.7505 24.3069 17.3696 24.3537 18.0038 24.3537C23.5304 24.3537 28.0076 20.6927 28.0076 16.1808C28 11.6611 23.5228 8 18.0038 8ZM13.1189 14.6742L13.1114 18.3899C13.1114 18.8895 12.0317 18.8661 12.0317 18.3665C12.0393 17.6795 12.0317 14.682 12.0317 14.682H10.9898C10.3783 14.682 10.3783 13.5735 10.9898 13.5735H14.1608C14.8101 13.5735 14.8101 14.6742 14.1608 14.6742C13.4662 14.6742 13.1189 14.6742 13.1189 14.6742ZM17.2261 18.546C16.9694 17.8513 17.0374 17.8279 17.0374 17.8279H15.1272L14.9158 18.585C14.6969 19.1159 13.738 18.6865 13.957 18.1557C14.2665 17.4219 15.1876 14.6664 15.4443 14.0809C15.5425 13.8468 15.7841 13.7531 16.0257 13.7531C16.3201 13.7531 16.6297 13.8858 16.7127 14.0809C16.8939 14.4869 17.9132 17.3673 18.2001 18.1635C18.4266 18.7177 17.43 19.1002 17.2261 18.546ZM21.137 18.7958C20.6463 18.7958 19.544 18.8036 19.0457 18.8036C18.5474 18.8036 18.6304 18.2025 18.6304 18.2025C18.6304 18.2025 18.6304 15.1816 18.6229 14.2449C18.6229 13.917 18.9022 13.7531 19.1891 13.7531C19.4685 13.7531 19.7554 13.917 19.7554 14.2449C19.7554 14.924 19.7554 17.7186 19.7554 17.7186C19.7554 17.7186 20.6463 17.7264 21.137 17.7264C21.6278 17.7108 21.6278 18.7958 21.137 18.7958ZM24.5496 18.7099L23.1755 16.7662L22.8584 17.0238C22.8584 17.0238 22.8584 17.984 22.8584 18.4836C22.8584 18.9207 21.7863 18.9207 21.7863 18.4836C21.7863 18.2104 21.809 14.4947 21.8014 14.0809C21.7939 13.8546 22.0732 13.7375 22.3526 13.7375C22.6093 13.7375 22.8584 13.8389 22.866 14.0497C22.8811 14.6039 22.866 15.6187 22.866 15.6187C22.866 15.6187 24.4137 14.0107 24.6402 13.7843C24.8667 13.5501 25.5764 14.2839 25.3499 14.5181C24.9573 14.9162 23.9683 16.0247 23.9683 16.0247L25.4254 18.0074C25.6972 18.4055 24.829 19.0846 24.5496 18.7099Z" fill="#381E1F"/>
</g>
<defs>
<clipPath id="clip0">
<rect width="20" height="19" fill="white" transform="translate(8 8)"/>
</clipPath>
</defs>
</svg>
