<svg width="78" height="72" viewBox="0 0 78 72" fill="none" xmlns="http://www.w3.org/2000/svg">
<g clip-path="url(#clip0)">
<path d="M38.5258 71.4682L65.1615 55.9369L62.3902 54.3662L35.7559 69.8983L38.5258 71.4682Z" fill="url(#paint0_linear)"/>
<path d="M37.912 39.4209L35.291 44.3292L56.943 56.8284L62.4766 53.602L37.912 39.4209Z" fill="url(#paint1_linear)"/>
<path d="M77.4895 19.7597V13.8567C77.4895 13.0069 76.7997 12.3184 75.9505 12.3184C75.1013 12.3184 74.4121 13.0076 74.4121 13.8567V18.0442L77.4895 19.7597Z" fill="url(#paint2_linear)"/>
<path d="M76.301 12.3873L54.334 0C53.4841 0 52.7949 0.689216 52.7949 1.53838V10.3355L71.7463 21.1851V27.7437C71.7463 28.5935 72.4355 29.2821 73.2846 29.2821C74.1338 29.2821 74.823 28.5928 74.823 27.7437L74.8182 14.1385C74.8182 13.288 75.4518 12.3873 76.301 12.3873Z" fill="url(#paint3_linear)"/>
<path d="M71.7473 18.7708C71.7473 17.921 71.0574 17.2324 70.2083 17.2324C69.3591 17.2324 68.6699 17.921 68.6699 18.7708V26.845L72.2388 28.901C71.9375 28.588 71.7467 28.1885 71.7467 27.743V18.7708H71.7473Z" fill="url(#paint4_linear)"/>
<path d="M70.2073 17.2321L48.2402 4.84473C47.3904 4.84473 46.7012 5.53394 46.7012 6.3831V14.3434L65.6525 25.1931V32.541C65.6525 33.3909 66.3417 34.0794 67.1909 34.0794C68.0401 34.0794 68.7293 33.3902 68.7293 32.541L68.7245 18.9832C68.7245 18.1334 69.3581 17.2321 70.2073 17.2321Z" fill="url(#paint5_linear)"/>
<path d="M65.6536 22.7786C65.6536 21.9288 64.9637 21.2402 64.1145 21.2402C63.2654 21.2402 62.5762 21.9288 62.5762 22.7786V31.643L66.1451 33.699C65.8431 33.3859 65.6529 32.9864 65.6529 32.5409L65.6536 22.7786Z" fill="url(#paint6_linear)"/>
<path d="M42.1462 8.85254C41.2964 8.85254 40.6072 9.54175 40.6072 10.3902V30.0061C40.6072 30.6836 40.3292 31.3221 39.7402 31.6413L27.3535 39.0112L49.4249 51.623L61.8363 44.2394L61.8253 44.2332C62.3703 43.903 62.6305 43.2907 62.6305 42.6378V22.9897C62.6305 22.1405 63.2641 21.2392 64.1133 21.2392L42.1462 8.85254Z" fill="url(#paint7_linear)"/>
<path d="M38.3566 45.3158L39.4577 43.6045C40.0473 42.688 39.7515 41.464 38.8069 40.919L38.0888 40.4893L34.0586 42.8871L38.3566 45.3158Z" fill="url(#paint8_linear)"/>
<path d="M54.2159 48.832L49.3633 51.6369L51.3609 53.014L56.4071 50.0972L54.2159 48.832Z" fill="url(#paint9_linear)"/>
<path d="M56.9433 55.9958L35.8419 68.3001L0 47.6092L26.6343 32.0771L38.4773 38.9137C39.4212 39.4588 39.7178 40.6827 39.1281 41.5992L37.1991 44.597C37.1991 44.5977 56.9433 55.9958 56.9433 55.9958Z" fill="url(#paint10_linear)"/>
<path d="M39.4227 41.5387V41.536C39.435 41.411 39.435 41.2854 39.4227 41.1612V40.7568C39.3939 41.0479 39.2977 41.3369 39.1282 41.6005L37.1992 44.5983C37.1992 44.5983 37.3283 44.6731 37.5651 44.8097L39.1289 42.3803C39.2977 42.1167 39.3939 41.8284 39.4227 41.5387Z" fill="url(#paint11_linear)"/>
<path d="M35.8419 68.3011L0.671367 47.998L0 48.39L35.8419 69.0809L56.9433 56.7759L56.272 56.3881C55.013 57.1226 35.8419 68.3011 35.8419 68.3011Z" fill="url(#paint12_linear)"/>
<path d="M0 47.6094V49.2905L35.8419 69.9814V68.3003L0 47.6094Z" fill="url(#paint13_linear)"/>
<path d="M35.8418 68.3001V69.9806L56.9432 57.6756V55.9951C49.1394 60.5457 35.8418 68.3008 35.8418 68.3001Z" fill="url(#paint14_linear)"/>
<path d="M62.477 53.6016L56.9434 56.828V57.6765L62.477 54.4494V53.6016Z" fill="url(#paint15_linear)"/>
</g>
<defs>
<linearGradient id="paint0_linear" x1="49.7385" y1="61.6707" x2="51.178" y2="64.1638" gradientUnits="userSpaceOnUse">
<stop offset="0.0151" stop-color="#FEA972"/>
<stop offset="1" stop-color="#E8EFF9"/>
</linearGradient>
<linearGradient id="paint1_linear" x1="36.8827" y1="41.9677" x2="76.5699" y2="65.1086" gradientUnits="userSpaceOnUse">
<stop stop-color="#F3925F"/>
<stop offset="1" stop-color="#F9E8A0"/>
</linearGradient>
<linearGradient id="paint2_linear" x1="74.4125" y1="16.0393" x2="77.4895" y2="16.0393" gradientUnits="userSpaceOnUse">
<stop stop-color="#B6CBEA"/>
<stop offset="0.2038" stop-color="#C5D6EE"/>
<stop offset="0.7341" stop-color="#E8EFF9"/>
</linearGradient>
<linearGradient id="paint3_linear" x1="59.7349" y1="21.697" x2="67.9077" y2="7.54133" gradientUnits="userSpaceOnUse">
<stop stop-color="#B6CBEA"/>
<stop offset="0.0466" stop-color="#BCD0ED"/>
<stop offset="0.3539" stop-color="#DFEBFC"/>
<stop offset="0.7313" stop-color="#E1ECFC"/>
<stop offset="0.8671" stop-color="#E8F0FD"/>
<stop offset="0.9637" stop-color="#F3F8FE"/>
<stop offset="0.999" stop-color="#FAFCFF"/>
</linearGradient>
<linearGradient id="paint4_linear" x1="68.6705" y1="23.0667" x2="72.2395" y2="23.0667" gradientUnits="userSpaceOnUse">
<stop stop-color="#B6CBEA"/>
<stop offset="0.2038" stop-color="#C5D6EE"/>
<stop offset="0.7341" stop-color="#E8EFF9"/>
</linearGradient>
<linearGradient id="paint5_linear" x1="53.6514" y1="26.5006" x2="61.8037" y2="12.3805" gradientUnits="userSpaceOnUse">
<stop stop-color="#B6CBEA"/>
<stop offset="0.0466" stop-color="#BCD0ED"/>
<stop offset="0.3539" stop-color="#DFEBFC"/>
<stop offset="0.7313" stop-color="#E1ECFC"/>
<stop offset="0.8671" stop-color="#E8F0FD"/>
<stop offset="0.9637" stop-color="#F3F8FE"/>
<stop offset="0.999" stop-color="#FAFCFF"/>
</linearGradient>
<linearGradient id="paint6_linear" x1="62.5769" y1="27.4695" x2="66.1459" y2="27.4695" gradientUnits="userSpaceOnUse">
<stop stop-color="#B6CBEA"/>
<stop offset="0.2038" stop-color="#C5D6EE"/>
<stop offset="0.7341" stop-color="#E8EFF9"/>
</linearGradient>
<linearGradient id="paint7_linear" x1="40.1784" y1="46.4156" x2="57.0637" y2="17.1693" gradientUnits="userSpaceOnUse">
<stop offset="0.0005008" stop-color="#B6CBEA"/>
<stop offset="0.00570826" stop-color="#BDD0EC"/>
<stop offset="0.0256" stop-color="#D4E0F3"/>
<stop offset="0.0489" stop-color="#E5EDF8"/>
<stop offset="0.0772" stop-color="#F1F6FC"/>
<stop offset="0.1161" stop-color="#F8FBFE"/>
<stop offset="0.2139" stop-color="#FAFCFF"/>
<stop offset="0.3354" stop-color="#F8FBFF"/>
<stop offset="0.3791" stop-color="#F1F7FE"/>
<stop offset="0.4102" stop-color="#E6EFFD"/>
<stop offset="0.4216" stop-color="#DFEBFC"/>
<stop offset="0.7594" stop-color="#E1ECFC"/>
<stop offset="0.8809" stop-color="#E8F0FD"/>
<stop offset="0.9674" stop-color="#F3F8FE"/>
<stop offset="0.999" stop-color="#FAFCFF"/>
</linearGradient>
<linearGradient id="paint8_linear" x1="34.0593" y1="42.9023" x2="39.7621" y2="42.9023" gradientUnits="userSpaceOnUse">
<stop offset="0.0151" stop-color="#FEA972"/>
<stop offset="0.0374" stop-color="#FCB07F"/>
<stop offset="0.1016" stop-color="#F7C1A0"/>
<stop offset="0.1737" stop-color="#F2CFBC"/>
<stop offset="0.2544" stop-color="#EEDBD2"/>
<stop offset="0.3474" stop-color="#EBE4E4"/>
<stop offset="0.4607" stop-color="#E9EAF0"/>
<stop offset="0.6153" stop-color="#E8EEF7"/>
<stop offset="1" stop-color="#E8EFF9"/>
</linearGradient>
<linearGradient id="paint9_linear" x1="52.3369" y1="49.9172" x2="53.4337" y2="51.817" gradientUnits="userSpaceOnUse">
<stop offset="0.0151" stop-color="#FEA972"/>
<stop offset="0.0374" stop-color="#FCB07F"/>
<stop offset="0.1016" stop-color="#F7C1A0"/>
<stop offset="0.1737" stop-color="#F2CFBC"/>
<stop offset="0.2544" stop-color="#EEDBD2"/>
<stop offset="0.3474" stop-color="#EBE4E4"/>
<stop offset="0.4607" stop-color="#E9EAF0"/>
<stop offset="0.6153" stop-color="#E8EEF7"/>
<stop offset="1" stop-color="#E8EFF9"/>
</linearGradient>
<linearGradient id="paint10_linear" x1="6.8647e-06" y1="50.1889" x2="56.9434" y2="50.1889" gradientUnits="userSpaceOnUse">
<stop stop-color="#F9E8A0"/>
<stop offset="1" stop-color="#F3925F"/>
</linearGradient>
<linearGradient id="paint11_linear" x1="37.1992" y1="42.7829" x2="39.4321" y2="42.7829" gradientUnits="userSpaceOnUse">
<stop stop-color="#994868"/>
<stop offset="0.208" stop-color="#A65367"/>
<stop offset="0.5927" stop-color="#C86F63"/>
<stop offset="0.9995" stop-color="#F3925F"/>
</linearGradient>
<linearGradient id="paint12_linear" x1="0" y1="58.5395" x2="56.9434" y2="58.5395" gradientUnits="userSpaceOnUse">
<stop stop-color="#994868"/>
<stop offset="0.208" stop-color="#A65367"/>
<stop offset="0.5927" stop-color="#C86F63"/>
<stop offset="0.9995" stop-color="#F3925F"/>
</linearGradient>
<linearGradient id="paint13_linear" x1="0" y1="58.7954" x2="62.4774" y2="58.7954" gradientUnits="userSpaceOnUse">
<stop stop-color="#994868"/>
<stop offset="0.208" stop-color="#A65367"/>
<stop offset="0.5927" stop-color="#C86F63"/>
<stop offset="0.9995" stop-color="#F3925F"/>
</linearGradient>
<linearGradient id="paint14_linear" x1="36.4321" y1="68.7216" x2="62.9901" y2="53.4343" gradientUnits="userSpaceOnUse">
<stop stop-color="#994868"/>
<stop offset="0.208" stop-color="#A65367"/>
<stop offset="0.5927" stop-color="#C86F63"/>
<stop offset="0.9995" stop-color="#F3925F"/>
</linearGradient>
<linearGradient id="paint15_linear" x1="37.726" y1="68.2934" x2="62.7617" y2="53.8825" gradientUnits="userSpaceOnUse">
<stop stop-color="#994868"/>
<stop offset="0.208" stop-color="#A65367"/>
<stop offset="0.5927" stop-color="#C86F63"/>
<stop offset="0.9995" stop-color="#F3925F"/>
</linearGradient>
<clipPath id="clip0">
<rect width="77.49" height="71.4683" fill="white"/>
</clipPath>
</defs>
</svg>
