<svg width="14" height="13" viewBox="0 0 14 13" fill="none" xmlns="http://www.w3.org/2000/svg">
<path d="M4.72186 5.22186L8.9645 9.4645" stroke="#495057" stroke-linecap="round" stroke-linejoin="round"/>
<path d="M12.5003 12.4896H3.50465L1.18663 10.1715C1.09377 10.0787 1.02011 9.96845 0.969858 9.84712C0.919604 9.7258 0.893738 9.59576 0.893738 9.46444C0.893738 9.33312 0.919604 9.20308 0.969858 9.08176C1.02011 8.96043 1.09377 8.85019 1.18663 8.75733L8.2577 1.68626C8.44523 1.49873 8.69959 1.39337 8.96481 1.39337C9.23002 1.39337 9.48438 1.49873 9.67191 1.68626L12.5003 4.51469C12.5932 4.60755 12.6669 4.71779 12.7171 4.83912C12.7674 4.96044 12.7932 5.09048 12.7932 5.2218C12.7932 5.35312 12.7674 5.48316 12.7171 5.60448C12.6669 5.72581 12.5932 5.83605 12.5003 5.92891L5.93968 12.4896" stroke="#495057" stroke-linecap="round" stroke-linejoin="round"/>
</svg>
