<svg width="54" height="54" viewBox="0 0 54 54" fill="none" xmlns="http://www.w3.org/2000/svg">
<g clip-path="url(#clip0_83_781)">
<path d="M43.4309 19.2508C45.4638 19.2508 47.1118 17.6027 47.1118 15.5698C47.1118 13.5369 45.4638 11.8889 43.4309 11.8889C41.398 11.8889 39.75 13.5369 39.75 15.5698C39.75 17.6027 41.398 19.2508 43.4309 19.2508Z" fill="#52A1F1" stroke="#52A1F1" stroke-width="2.20085" stroke-linecap="round" stroke-linejoin="round"/>
<path d="M35.8925 15.5698H33.9668" stroke="#52A1F1" stroke-width="2.20085" stroke-linecap="round" stroke-linejoin="round"/>
<path d="M52.9 15.5698H50.9688" stroke="#52A1F1" stroke-width="2.20085" stroke-linecap="round" stroke-linejoin="round"/>
<path d="M43.4297 8.02633V6.10059" stroke="#52A1F1" stroke-width="2.20085" stroke-linecap="round" stroke-linejoin="round"/>
<path d="M43.4297 23.933V23.1077" stroke="#52A1F1" stroke-width="2.20085" stroke-linecap="round" stroke-linejoin="round"/>
<path d="M38.1048 10.2383L36.7402 8.87378" stroke="#52A1F1" stroke-width="2.20085" stroke-linecap="round" stroke-linejoin="round"/>
<path d="M50.1262 22.2603L48.7617 20.8958" stroke="#52A1F1" stroke-width="2.20085" stroke-linecap="round" stroke-linejoin="round"/>
<path d="M48.7617 10.2383L50.1262 8.87378" stroke="#52A1F1" stroke-width="2.20085" stroke-linecap="round" stroke-linejoin="round"/>
<path d="M36.7402 22.2603L38.1048 20.8958" stroke="#52A1F1" stroke-width="2.20085" stroke-linecap="round" stroke-linejoin="round"/>
<path d="M40.8592 31.6247L38.3338 24.6755H31.3516L33.8825 31.6247H40.8592Z" stroke="#5B5870" stroke-width="2.20085" stroke-linecap="round" stroke-linejoin="round"/>
<path d="M33.8827 31.6247L31.3517 24.6755H24.375L26.9005 31.6247H33.8827Z" stroke="#5B5870" stroke-width="2.20085" stroke-linecap="round" stroke-linejoin="round"/>
<path d="M26.9004 31.6245L29.4314 38.5737H36.4081L33.8826 31.6245H26.9004Z" stroke="#5B5870" stroke-width="2.20085" stroke-linecap="round" stroke-linejoin="round"/>
<path d="M36.4083 38.5737H43.3905L40.8595 31.6245H33.8828L36.4083 38.5737Z" stroke="#5B5870" stroke-width="2.20085" stroke-linecap="round" stroke-linejoin="round"/>
<path d="M47.8416 31.6247L45.3107 24.6755H38.334L40.8595 31.6247H47.8416Z" stroke="#5B5870" stroke-width="2.20085" stroke-linecap="round" stroke-linejoin="round"/>
<path d="M24.3748 24.6755H17.3926L19.9236 31.6247H26.9002L24.3748 24.6755Z" stroke="#5B5870" stroke-width="2.20085" stroke-linecap="round" stroke-linejoin="round"/>
<path d="M26.9005 31.6245H19.9238L22.4493 38.5737H29.4315L26.9005 31.6245Z" stroke="#5B5870" stroke-width="2.20085" stroke-linecap="round" stroke-linejoin="round"/>
<path d="M45.9161 45.5232H52.8983L50.3673 38.574H43.3906L45.9161 45.5232Z" stroke="#5B5870" stroke-width="2.20085" stroke-linecap="round" stroke-linejoin="round"/>
<path d="M40.8594 31.6245L43.3904 38.5737H50.367L47.8416 31.6245H40.8594Z" stroke="#5B5870" stroke-width="2.20085" stroke-linecap="round" stroke-linejoin="round"/>
<path d="M36.4082 38.574L38.9392 45.5232H45.9159L43.3904 38.574H36.4082Z" stroke="#5B5870" stroke-width="2.20085" stroke-linecap="round" stroke-linejoin="round"/>
<path d="M29.4316 38.574L31.9571 45.5232H38.9393L36.4083 38.574H29.4316Z" stroke="#5B5870" stroke-width="2.20085" stroke-linecap="round" stroke-linejoin="round"/>
<path d="M22.4492 38.574L24.9802 45.5232H31.9569L29.4314 38.574H22.4492Z" stroke="#5B5870" stroke-width="2.20085" stroke-linecap="round" stroke-linejoin="round"/>
<path d="M15.4844 27.4102L18.0154 34.3593L20.5408 41.3085L23.0718 48.2577H30.0485H37.0307H44.0074H52.8988" stroke="#5B5870" stroke-width="2.20085" stroke-linecap="round" stroke-linejoin="round"/>
<path d="M23.0723 48.2578V52.8411" stroke="#5B5870" stroke-width="2.20085" stroke-linecap="round" stroke-linejoin="round"/>
<path d="M52.8984 48.2578V52.8411" stroke="#5B5870" stroke-width="2.20085" stroke-linecap="round" stroke-linejoin="round"/>
<path d="M7.20508 21.9412H19.6454V26.684C19.6454 28.6097 18.0828 30.1723 16.157 30.1723H10.6934C8.76768 30.1723 7.20508 28.6097 7.20508 26.684V21.9412Z" fill="#B5D7F9" stroke="#B5D7F9" stroke-width="2.20085" stroke-linecap="round" stroke-linejoin="round"/>
<path d="M6.10938 21.9412H20.745" stroke="#5B5870" stroke-width="2.20085" stroke-linecap="round" stroke-linejoin="round"/>
<path d="M6.10938 19.0142H20.745" stroke="#5B5870" stroke-width="2.20085" stroke-linecap="round" stroke-linejoin="round"/>
<path d="M10.2246 33.1436H16.6291" stroke="#5B5870" stroke-width="2.20085" stroke-linecap="round" stroke-linejoin="round"/>
<path d="M10.7754 18.3263V14.3042" stroke="#5B5870" stroke-width="2.20085" stroke-linecap="round" stroke-linejoin="round"/>
<path d="M16.0801 18.3263V14.3042" stroke="#5B5870" stroke-width="2.20085" stroke-linecap="round" stroke-linejoin="round"/>
<path d="M13.4277 34.0623V45.8533C13.4277 47.5204 14.7813 48.8685 16.4429 48.8685C18.11 48.8685 19.4581 47.5149 19.4581 45.8533V39.1957" stroke="#5B5870" stroke-width="2.20085" stroke-linecap="round" stroke-linejoin="round"/>
</g>
<defs>
<clipPath id="clip0_83_781">
<rect width="48.9909" height="48.9414" fill="white" transform="translate(5.00977 5)"/>
</clipPath>
</defs>
</svg>
