<svg width="1106" height="708" viewBox="0 0 1106 708" fill="none" xmlns="http://www.w3.org/2000/svg">
<line x1="99.5" y1="429" x2="99.5" y2="598" stroke="#DBDBDB"/>
<line x1="554.5" y1="53" x2="554.5" y2="598" stroke="#DBDBDB"/>
<path d="M326 429L326 598" stroke="#DBDBDB"/>
<path d="M779 429L779 598" stroke="#DBDBDB"/>
<rect x="0.5" y="529.5" width="200" height="47" fill="white" stroke="#DBDBDB"/>
<rect x="226.5" y="529.5" width="200" height="47" fill="white" stroke="#DBDBDB"/>
<rect x="452.5" y="529.5" width="201" height="47" fill="white" stroke="#DBDBDB"/>
<rect x="679.5" y="529.5" width="200" height="47" fill="white" stroke="#DBDBDB"/>
<line x1="99" y1="428.5" x2="1005" y2="428.5" stroke="#DBDBDB"/>
<line x1="1004.5" y1="429" x2="1004.5" y2="466" stroke="#DBDBDB"/>
<rect width="340" height="53" transform="translate(382)" fill="#082B52"/>
<path d="M538.232 21.216H534.362V19.542H532.508V21.216H528.638V22.692H538.232V21.216ZM531.266 26.364C531.266 25.392 532.13 24.816 533.426 24.816C534.722 24.816 535.604 25.392 535.604 26.364C535.604 27.318 534.722 27.894 533.426 27.894C532.13 27.894 531.266 27.318 531.266 26.364ZM537.368 26.364C537.368 24.582 535.766 23.394 533.426 23.394C531.086 23.394 529.484 24.582 529.484 26.364C529.484 28.128 531.086 29.316 533.426 29.316C535.766 29.316 537.368 28.128 537.368 26.364ZM530.618 32.088H539.456V35.886H541.31V30.594H530.618V32.088ZM543.614 23.988H541.31V19.632H539.456V29.802H541.31V25.518H543.614V23.988ZM554.881 21.522H550.903V19.65H549.049V21.522H545.053V23.016H554.881V21.522ZM547.771 26.832C547.771 25.842 548.671 25.23 549.985 25.23C551.281 25.23 552.181 25.842 552.181 26.832C552.181 27.84 551.281 28.452 549.985 28.452C548.671 28.452 547.771 27.84 547.771 26.832ZM550.903 29.802C552.739 29.514 553.945 28.416 553.945 26.832C553.945 25.014 552.325 23.808 549.985 23.808C547.627 23.808 546.007 25.014 546.007 26.832C546.007 28.398 547.213 29.514 549.049 29.802V31.386C547.519 31.44 546.025 31.44 544.729 31.44L544.963 32.97C547.915 32.97 551.767 32.916 555.349 32.304L555.223 30.954C553.837 31.152 552.361 31.242 550.903 31.332V29.802ZM556.141 19.614V35.886H558.013V19.614H556.141ZM570.197 27.282C567.713 26.49 566.363 24.6 566.363 22.584V22.278H569.765V20.784H561.035V22.278H564.491V22.602C564.491 24.816 563.069 26.904 560.513 27.786L561.449 29.244C563.393 28.578 564.761 27.192 565.481 25.464C566.183 26.976 567.479 28.146 569.297 28.722L570.197 27.282ZM568.109 34.428C565.841 34.428 564.527 33.852 564.527 32.808C564.527 31.746 565.841 31.188 568.109 31.188C570.377 31.188 571.691 31.746 571.691 32.808C571.691 33.852 570.377 34.428 568.109 34.428ZM568.109 29.73C564.761 29.73 562.691 30.864 562.691 32.808C562.691 34.734 564.761 35.886 568.109 35.886C571.457 35.886 573.527 34.734 573.527 32.808C573.527 30.864 571.457 29.73 568.109 29.73ZM573.347 23.592V19.632H571.493V29.352H573.347V25.122H575.651V23.592H573.347Z" fill="white"/>
<rect x="382.5" y="63.5" width="339" height="47" fill="white"/>
<path d="M544.818 85.824H542.45V93.184H541.138V78.832H542.45V84.736H544.818V85.824ZM536.21 83.488C536.21 84.064 536.295 84.6347 536.466 85.2C536.637 85.7653 536.871 86.2987 537.17 86.8C537.479 87.3013 537.847 87.7547 538.274 88.16C538.711 88.5653 539.186 88.8907 539.698 89.136L538.962 90.16C538.162 89.776 537.474 89.2213 536.898 88.496C536.322 87.76 535.879 86.9227 535.57 85.984C535.261 86.9867 534.797 87.8773 534.178 88.656C533.57 89.424 532.85 90.0107 532.018 90.416L531.282 89.424C531.805 89.168 532.285 88.832 532.722 88.416C533.17 88 533.554 87.5307 533.874 87.008C534.205 86.4853 534.461 85.9253 534.642 85.328C534.823 84.72 534.914 84.1067 534.914 83.488V82.368H531.666V81.312H534.898V79.088H536.21V81.312H539.394V82.368H536.21V83.488ZM553.553 81.648H545.521V80.592H548.945V78.832H550.257V80.592H553.553V81.648ZM555.985 82.656V78.848H557.313V89.776H555.985V86.736H553.553V85.664H555.985V83.728H553.553V82.656H555.985ZM552.833 85.168C552.833 85.584 552.753 85.9627 552.593 86.304C552.433 86.6347 552.209 86.9227 551.921 87.168C551.633 87.4027 551.291 87.5893 550.897 87.728C550.502 87.856 550.065 87.92 549.585 87.92C549.105 87.92 548.667 87.856 548.273 87.728C547.878 87.5893 547.537 87.4027 547.249 87.168C546.961 86.9227 546.737 86.6347 546.577 86.304C546.417 85.9627 546.337 85.584 546.337 85.168C546.337 84.7627 546.417 84.3947 546.577 84.064C546.737 83.7227 546.961 83.4347 547.249 83.2C547.537 82.9547 547.878 82.768 548.273 82.64C548.667 82.512 549.105 82.448 549.585 82.448C550.065 82.448 550.502 82.512 550.897 82.64C551.291 82.768 551.633 82.9547 551.921 83.2C552.209 83.4347 552.433 83.7227 552.593 84.064C552.753 84.3947 552.833 84.7627 552.833 85.168ZM547.585 85.168C547.585 85.68 547.766 86.096 548.129 86.416C548.491 86.736 548.977 86.896 549.585 86.896C550.193 86.896 550.678 86.736 551.041 86.416C551.403 86.096 551.585 85.68 551.585 85.168C551.585 84.656 551.403 84.2453 551.041 83.936C550.678 83.6267 550.193 83.472 549.585 83.472C548.977 83.472 548.491 83.6267 548.129 83.936C547.766 84.2453 547.585 84.656 547.585 85.168ZM557.649 91.792V92.864H548.081V88.848H549.393V91.792H557.649ZM560.351 84.768C560.981 84.672 561.589 84.5067 562.175 84.272C562.773 84.0267 563.306 83.7333 563.775 83.392C564.245 83.04 564.618 82.6507 564.895 82.224C565.183 81.7867 565.327 81.3333 565.327 80.864V80.784H560.799V79.728H571.279V80.784H566.783V80.864C566.783 81.3333 566.922 81.7867 567.199 82.224C567.487 82.6507 567.866 83.04 568.335 83.392C568.805 83.7333 569.338 84.0267 569.935 84.272C570.543 84.5067 571.162 84.672 571.791 84.768L571.279 85.808C570.725 85.712 570.181 85.568 569.647 85.376C569.114 85.184 568.618 84.9493 568.159 84.672C567.701 84.384 567.29 84.064 566.927 83.712C566.565 83.3493 566.277 82.9547 566.063 82.528C565.839 82.9547 565.546 83.3493 565.183 83.712C564.821 84.064 564.41 84.384 563.951 84.672C563.503 84.9493 563.013 85.184 562.479 85.376C561.957 85.568 561.413 85.712 560.847 85.808L560.351 84.768ZM572.559 88.08H566.687V93.184H565.375V88.08H559.583V87.008H572.543L572.559 88.08Z" fill="#333333"/>
<rect x="382.5" y="63.5" width="339" height="47" stroke="#DBDBDB"/>
<g clip-path="url(#clip0)">
<rect width="52" height="48" transform="translate(670 5)" fill="#082B52"/>
<g opacity="0.2">
<path fill-rule="evenodd" clip-rule="evenodd" d="M703.493 9C707.538 11.3236 712.241 12.6626 717.247 12.6626C722.253 12.6626 726.956 11.3367 731 9V33.3514C731 51.9268 720.566 68.0736 705.206 76.2914C704.64 76.5933 704.073 76.8952 703.493 77.1709C702.914 76.8821 702.347 76.5933 701.781 76.2914C686.434 68.0736 676 51.9268 676 33.3514V9C680.044 11.3367 684.734 12.6626 689.74 12.6626C694.759 12.6626 699.449 11.3367 703.493 9ZM694.39 33.4039H678.872V34.441C678.872 40.4928 680.071 46.2689 682.257 51.533L694.39 39.4426V33.4039ZM692.046 66.1176C695.392 69.4388 699.251 72.235 703.493 74.3879C707.775 72.2218 711.648 69.3994 714.981 66.0651L703.559 54.6442L692.046 66.1176ZM712.728 39.4032L724.782 51.4411C726.943 46.1901 728.128 40.4534 728.141 34.441V33.4039H712.728V39.4032ZM712.636 22.4161C712.636 27.444 708.539 31.5266 703.494 31.5266C698.448 31.5266 694.351 27.444 694.351 22.4161C694.351 17.3883 698.448 13.3057 703.494 13.3057C708.552 13.3057 712.636 17.3883 712.636 22.4161ZM711.688 22.4157C711.688 17.9392 708.065 14.3029 703.586 14.2635H703.507C698.989 14.2635 695.326 17.913 695.326 22.4157C695.326 26.8528 698.87 30.4497 703.296 30.5679H703.534C708.026 30.5679 711.688 26.9184 711.688 22.4157ZM696.314 22.4157C696.314 18.6219 699.265 15.5238 703.007 15.2744V20.9979H703.981V15.3006C705.576 15.55 706.867 16.9547 706.867 18.6087C706.867 20.4203 705.299 21.9169 703.494 21.9169C701.083 21.9169 699.147 23.8335 699.147 26.2358C699.147 27.1022 699.397 27.903 699.832 28.5725C697.724 27.3122 696.314 25.0281 696.314 22.4157ZM703.981 29.557V23.8203H703.007V29.5308C701.413 29.2814 700.108 27.8767 700.108 26.2358C700.108 24.4242 701.689 22.9145 703.507 22.9145C705.905 22.9145 707.855 21.0111 707.855 18.6087C707.855 17.7555 707.604 16.9547 707.17 16.272C709.264 17.5192 710.674 19.8033 710.674 22.4157C710.674 26.2095 707.723 29.3076 703.981 29.557Z" fill="white"/>
</g>
</g>
<rect width="340" height="53" transform="translate(382 139)" fill="#082B52"/>
<path d="M531.663 164.878H524.229V162.808H531.663V164.878ZM533.517 159.262H531.663V161.314H524.229V159.262H522.375V166.372H533.517V159.262ZM535.335 168.136H520.593V169.63H526.983V174.904H528.837V169.63H535.335V168.136ZM546.241 160.216H542.371V158.542H540.517V160.216H536.647V161.692H546.241V160.216ZM539.275 165.364C539.275 164.392 540.139 163.816 541.435 163.816C542.731 163.816 543.613 164.392 543.613 165.364C543.613 166.318 542.731 166.894 541.435 166.894C540.139 166.894 539.275 166.318 539.275 165.364ZM545.377 165.364C545.377 163.582 543.775 162.394 541.435 162.394C539.095 162.394 537.493 163.582 537.493 165.364C537.493 167.128 539.095 168.316 541.435 168.316C543.775 168.316 545.377 167.128 545.377 165.364ZM538.627 171.088H547.465V174.886H549.319V169.594H538.627V171.088ZM551.623 162.988H549.319V158.632H547.465V168.802H549.319V164.518H551.623V162.988ZM562.89 160.522H558.912V158.65H557.058V160.522H553.062V162.016H562.89V160.522ZM555.78 165.832C555.78 164.842 556.68 164.23 557.994 164.23C559.29 164.23 560.19 164.842 560.19 165.832C560.19 166.84 559.29 167.452 557.994 167.452C556.68 167.452 555.78 166.84 555.78 165.832ZM558.912 168.802C560.748 168.514 561.954 167.416 561.954 165.832C561.954 164.014 560.334 162.808 557.994 162.808C555.636 162.808 554.016 164.014 554.016 165.832C554.016 167.398 555.222 168.514 557.058 168.802V170.386C555.528 170.44 554.034 170.44 552.738 170.44L552.972 171.97C555.924 171.97 559.776 171.916 563.358 171.304L563.232 169.954C561.846 170.152 560.37 170.242 558.912 170.332V168.802ZM564.15 158.614V174.886H566.022V158.614H564.15ZM578.207 166.282C575.723 165.49 574.373 163.6 574.373 161.584V161.278H577.775V159.784H569.045V161.278H572.501V161.602C572.501 163.816 571.079 165.904 568.523 166.786L569.459 168.244C571.403 167.578 572.771 166.192 573.491 164.464C574.193 165.976 575.489 167.146 577.307 167.722L578.207 166.282ZM576.119 173.428C573.851 173.428 572.537 172.852 572.537 171.808C572.537 170.746 573.851 170.188 576.119 170.188C578.387 170.188 579.701 170.746 579.701 171.808C579.701 172.852 578.387 173.428 576.119 173.428ZM576.119 168.73C572.771 168.73 570.701 169.864 570.701 171.808C570.701 173.734 572.771 174.886 576.119 174.886C579.467 174.886 581.537 173.734 581.537 171.808C581.537 169.864 579.467 168.73 576.119 168.73ZM581.357 162.592V158.632H579.503V168.352H581.357V164.122H583.661V162.592H581.357Z" fill="white"/>
<rect x="382.5" y="202.5" width="339" height="47" fill="white"/>
<path d="M543.01 224.04C542.466 223.933 541.933 223.779 541.41 223.576C540.898 223.373 540.418 223.133 539.97 222.856C539.522 222.568 539.117 222.243 538.754 221.88C538.402 221.517 538.114 221.123 537.89 220.696C537.666 221.123 537.373 221.523 537.01 221.896C536.658 222.259 536.258 222.584 535.81 222.872C535.362 223.16 534.877 223.405 534.354 223.608C533.842 223.8 533.314 223.944 532.77 224.04L532.242 223C532.882 222.904 533.501 222.728 534.098 222.472C534.695 222.216 535.223 221.907 535.682 221.544C536.151 221.171 536.525 220.755 536.802 220.296C537.079 219.837 537.218 219.357 537.218 218.856V218.216H538.562V218.856C538.562 219.357 538.701 219.837 538.978 220.296C539.266 220.755 539.639 221.171 540.098 221.544C540.567 221.907 541.101 222.216 541.698 222.472C542.295 222.728 542.903 222.904 543.522 223L543.01 224.04ZM544.434 225.544V226.6H531.394V225.544H537.234V223.112H538.546V225.544H544.434ZM534.386 230.792H542.962V231.864H533.074V227.768H534.386V230.792ZM557.297 224.36C556.742 224.264 556.193 224.12 555.649 223.928C555.115 223.725 554.614 223.48 554.145 223.192C553.686 222.904 553.27 222.579 552.897 222.216C552.523 221.843 552.219 221.437 551.985 221C551.761 221.437 551.462 221.843 551.089 222.216C550.715 222.579 550.294 222.904 549.825 223.192C549.366 223.48 548.865 223.725 548.321 223.928C547.787 224.12 547.243 224.264 546.689 224.36L546.161 223.304C546.822 223.208 547.457 223.037 548.065 222.792C548.683 222.536 549.233 222.227 549.713 221.864C550.193 221.491 550.577 221.075 550.865 220.616C551.153 220.147 551.297 219.656 551.297 219.144V218.344H552.673V219.144C552.673 219.645 552.817 220.125 553.105 220.584C553.403 221.043 553.793 221.459 554.273 221.832C554.763 222.205 555.318 222.52 555.937 222.776C556.555 223.032 557.19 223.208 557.841 223.304L557.297 224.36ZM558.481 227H552.609V232.2H551.297V227H545.505V225.912H558.465L558.481 227ZM567.631 220.648H559.599V219.592H563.023V217.832H564.335V219.592H567.631V220.648ZM570.063 221.656V217.848H571.391V228.776H570.063V225.736H567.631V224.664H570.063V222.728H567.631V221.656H570.063ZM566.911 224.168C566.911 224.584 566.831 224.963 566.671 225.304C566.511 225.635 566.287 225.923 565.999 226.168C565.711 226.403 565.37 226.589 564.975 226.728C564.581 226.856 564.143 226.92 563.663 226.92C563.183 226.92 562.746 226.856 562.351 226.728C561.957 226.589 561.615 226.403 561.327 226.168C561.039 225.923 560.815 225.635 560.655 225.304C560.495 224.963 560.415 224.584 560.415 224.168C560.415 223.763 560.495 223.395 560.655 223.064C560.815 222.723 561.039 222.435 561.327 222.2C561.615 221.955 561.957 221.768 562.351 221.64C562.746 221.512 563.183 221.448 563.663 221.448C564.143 221.448 564.581 221.512 564.975 221.64C565.37 221.768 565.711 221.955 565.999 222.2C566.287 222.435 566.511 222.723 566.671 223.064C566.831 223.395 566.911 223.763 566.911 224.168ZM561.663 224.168C561.663 224.68 561.845 225.096 562.207 225.416C562.57 225.736 563.055 225.896 563.663 225.896C564.271 225.896 564.757 225.736 565.119 225.416C565.482 225.096 565.663 224.68 565.663 224.168C565.663 223.656 565.482 223.245 565.119 222.936C564.757 222.627 564.271 222.472 563.663 222.472C563.055 222.472 562.57 222.627 562.207 222.936C561.845 223.245 561.663 223.656 561.663 224.168ZM571.727 230.792V231.864H562.159V227.848H563.471V230.792H571.727Z" fill="#333333"/>
<rect x="382.5" y="202.5" width="339" height="47" stroke="#DBDBDB"/>
<rect width="340" height="53" transform="translate(382 278)" fill="#082B52"/>
<path d="M537.925 304.886C540.769 304.652 542.947 303.734 543.955 302.294C544.981 303.734 547.159 304.652 549.985 304.886L550.561 303.482C547.267 303.248 545.233 302.078 545.017 300.62H549.841V299.162H544.891V297.614H543.037V299.162H538.087V300.62H542.911C542.695 302.078 540.661 303.248 537.367 303.482L537.925 304.886ZM543.937 312.482C541.543 312.482 540.229 312.032 540.229 311.15C540.229 310.268 541.543 309.8 543.937 309.8C546.349 309.8 547.663 310.268 547.663 311.15C547.663 312.032 546.349 312.482 543.937 312.482ZM543.937 308.432C540.427 308.432 538.339 309.386 538.339 311.15C538.339 312.914 540.427 313.886 543.937 313.886C547.465 313.886 549.535 312.914 549.535 311.15C549.535 309.386 547.465 308.432 543.937 308.432ZM544.891 305.93V304.148H543.037V305.93H536.611V307.406H551.317V305.93H544.891ZM563.7 303.428H556.266V299.972H563.7V303.428ZM565.536 298.496H554.43V304.922H565.536V298.496ZM567.372 306.92H552.63V308.414H559.02V313.886H560.874V308.414H567.372V306.92Z" fill="white"/>
<rect x="382.5" y="341.5" width="339" height="47" fill="white"/>
<path d="M537.874 363.664C537.127 363.664 536.445 363.595 535.826 363.456C535.218 363.307 534.69 363.099 534.242 362.832C533.805 362.555 533.463 362.224 533.218 361.84C532.983 361.445 532.866 361.008 532.866 360.528C532.866 360.048 532.983 359.616 533.218 359.232C533.463 358.848 533.805 358.523 534.242 358.256C534.69 357.979 535.218 357.771 535.826 357.632C536.445 357.483 537.127 357.408 537.874 357.408C538.621 357.408 539.303 357.483 539.922 357.632C540.541 357.771 541.069 357.979 541.506 358.256C541.943 358.523 542.285 358.848 542.53 359.232C542.775 359.616 542.898 360.048 542.898 360.528C542.898 361.008 542.775 361.445 542.53 361.84C542.285 362.224 541.943 362.555 541.506 362.832C541.069 363.099 540.541 363.307 539.922 363.456C539.303 363.595 538.621 363.664 537.874 363.664ZM537.874 358.464C537.33 358.464 536.834 358.512 536.386 358.608C535.938 358.704 535.549 358.843 535.218 359.024C534.898 359.205 534.647 359.424 534.466 359.68C534.295 359.925 534.21 360.208 534.21 360.528C534.21 360.848 534.295 361.136 534.466 361.392C534.647 361.648 534.898 361.867 535.218 362.048C535.549 362.229 535.938 362.368 536.386 362.464C536.834 362.56 537.33 362.608 537.874 362.608C538.418 362.608 538.914 362.56 539.362 362.464C539.821 362.368 540.21 362.229 540.53 362.048C540.861 361.867 541.111 361.648 541.282 361.392C541.463 361.136 541.554 360.848 541.554 360.528C541.554 360.208 541.463 359.925 541.282 359.68C541.111 359.424 540.861 359.205 540.53 359.024C540.21 358.843 539.821 358.704 539.362 358.608C538.914 358.512 538.418 358.464 537.874 358.464ZM544.402 366.08H541.01V371.184H539.682V366.08H536.082V371.184H534.754V366.08H531.41V365.008H544.402V366.08ZM557.777 360.016H546.129V358.944H551.329V357.056H552.641V358.944H557.777V360.016ZM558.497 368.464V369.536H545.489V368.464H548.913V365.808C547.814 365.349 547.265 364.629 547.265 363.648C547.265 363.211 547.371 362.827 547.585 362.496C547.809 362.165 548.123 361.888 548.529 361.664C548.945 361.429 549.441 361.253 550.017 361.136C550.603 361.019 551.259 360.96 551.985 360.96C552.699 360.96 553.345 361.019 553.921 361.136C554.497 361.253 554.987 361.429 555.393 361.664C555.798 361.888 556.107 362.165 556.321 362.496C556.545 362.827 556.657 363.211 556.657 363.648C556.657 364.139 556.513 364.565 556.225 364.928C555.947 365.291 555.547 365.584 555.025 365.808V368.464H558.497ZM551.985 361.984C550.918 361.984 550.086 362.133 549.489 362.432C548.891 362.72 548.593 363.125 548.593 363.648C548.593 364.16 548.891 364.565 549.489 364.864C550.086 365.152 550.918 365.296 551.985 365.296C553.019 365.296 553.835 365.152 554.433 364.864C555.03 364.565 555.329 364.16 555.329 363.648C555.329 363.125 555.03 362.72 554.433 362.432C553.835 362.133 553.019 361.984 551.985 361.984ZM550.209 368.464H553.729V366.176C553.217 366.272 552.635 366.32 551.985 366.32C551.334 366.32 550.742 366.272 550.209 366.176V368.464ZM571.343 367.344H570.031V356.848H571.343V367.344ZM567.695 365.296C566.863 365.008 566.133 364.587 565.503 364.032C564.885 363.467 564.41 362.8 564.079 362.032C563.77 362.864 563.301 363.584 562.671 364.192C562.053 364.8 561.311 365.259 560.447 365.568L559.759 364.544C560.303 364.352 560.799 364.101 561.247 363.792C561.695 363.472 562.074 363.109 562.383 362.704C562.703 362.288 562.949 361.84 563.119 361.36C563.301 360.88 563.391 360.384 563.391 359.872V359.088H560.111V358.032H567.983V359.088H564.735V359.872C564.735 360.352 564.821 360.821 564.991 361.28C565.173 361.728 565.423 362.144 565.743 362.528C566.063 362.912 566.442 363.253 566.879 363.552C567.327 363.851 567.813 364.085 568.335 364.256L567.695 365.296ZM571.775 369.792V370.864H562.111V366.352H563.423V369.792H571.775Z" fill="#333333"/>
<rect x="382.5" y="341.5" width="339" height="47" stroke="#DBDBDB"/>
<path d="M91.6859 544.832V552.944H90.3739V544.832H91.6859ZM87.4299 545.744C87.4299 546.651 87.2699 547.493 86.9499 548.272C86.6299 549.051 86.1712 549.749 85.5739 550.368C84.9872 550.987 84.2725 551.525 83.4299 551.984C82.5872 552.443 81.6432 552.811 80.5979 553.088L80.0699 552.048C80.9445 551.824 81.7339 551.541 82.4379 551.2C83.1419 550.848 83.7499 550.448 84.2619 550C84.7739 549.552 85.1792 549.061 85.4779 548.528C85.7765 547.995 85.9579 547.424 86.0219 546.816H80.8219V545.744H87.4299ZM82.4059 553.632H91.6859V558.976H82.4059V553.632ZM83.6859 557.92H90.3899V554.672H83.6859V557.92ZM106.277 548.016H94.6286V546.944H99.8286V545.056H101.141V546.944H106.277V548.016ZM106.997 556.464V557.536H93.9886V556.464H97.4126V553.808C96.314 553.349 95.7646 552.629 95.7646 551.648C95.7646 551.211 95.8713 550.827 96.0846 550.496C96.3086 550.165 96.6233 549.888 97.0286 549.664C97.4446 549.429 97.9406 549.253 98.5166 549.136C99.1033 549.019 99.7593 548.96 100.485 548.96C101.199 548.96 101.845 549.019 102.421 549.136C102.997 549.253 103.487 549.429 103.893 549.664C104.298 549.888 104.607 550.165 104.821 550.496C105.045 550.827 105.157 551.211 105.157 551.648C105.157 552.139 105.013 552.565 104.725 552.928C104.447 553.291 104.047 553.584 103.525 553.808V556.464H106.997ZM100.485 549.984C99.418 549.984 98.586 550.133 97.9886 550.432C97.3913 550.72 97.0926 551.125 97.0926 551.648C97.0926 552.16 97.3913 552.565 97.9886 552.864C98.586 553.152 99.418 553.296 100.485 553.296C101.519 553.296 102.335 553.152 102.933 552.864C103.53 552.565 103.829 552.16 103.829 551.648C103.829 551.125 103.53 550.72 102.933 550.432C102.335 550.133 101.519 549.984 100.485 549.984ZM98.7086 556.464H102.229V554.176C101.717 554.272 101.135 554.32 100.485 554.32C99.834 554.32 99.242 554.272 98.7086 554.176V556.464ZM119.843 555.344H118.531V544.848H119.843V555.344ZM116.195 553.296C115.363 553.008 114.633 552.587 114.003 552.032C113.385 551.467 112.91 550.8 112.579 550.032C112.27 550.864 111.801 551.584 111.171 552.192C110.553 552.8 109.811 553.259 108.947 553.568L108.259 552.544C108.803 552.352 109.299 552.101 109.747 551.792C110.195 551.472 110.574 551.109 110.883 550.704C111.203 550.288 111.449 549.84 111.619 549.36C111.801 548.88 111.891 548.384 111.891 547.872V547.088H108.611V546.032H116.483V547.088H113.235V547.872C113.235 548.352 113.321 548.821 113.491 549.28C113.673 549.728 113.923 550.144 114.243 550.528C114.563 550.912 114.942 551.253 115.379 551.552C115.827 551.851 116.313 552.085 116.835 552.256L116.195 553.296ZM120.275 557.792V558.864H110.611V554.352H111.923V557.792H120.275Z" fill="#333333"/>
<path d="M91.6859 675.832V683.944H90.3739V675.832H91.6859ZM87.4299 676.744C87.4299 677.651 87.2699 678.493 86.9499 679.272C86.6299 680.051 86.1712 680.749 85.5739 681.368C84.9872 681.987 84.2725 682.525 83.4299 682.984C82.5872 683.443 81.6432 683.811 80.5979 684.088L80.0699 683.048C80.9445 682.824 81.7339 682.541 82.4379 682.2C83.1419 681.848 83.7499 681.448 84.2619 681C84.7739 680.552 85.1792 680.061 85.4779 679.528C85.7765 678.995 85.9579 678.424 86.0219 677.816H80.8219V676.744H87.4299ZM82.4059 684.632H91.6859V689.976H82.4059V684.632ZM83.6859 688.92H90.3899V685.672H83.6859V688.92ZM105.733 675.848V690.184H104.421V675.848H105.733ZM99.1086 680.216C99.1086 680.824 99.21 681.427 99.4126 682.024C99.6153 682.621 99.8873 683.181 100.229 683.704C100.581 684.216 100.991 684.675 101.461 685.08C101.93 685.485 102.426 685.8 102.949 686.024L102.213 687.08C101.381 686.696 100.629 686.12 99.9566 685.352C99.2953 684.573 98.794 683.688 98.4526 682.696C98.2926 683.219 98.0846 683.72 97.8286 684.2C97.5726 684.68 97.2846 685.128 96.9646 685.544C96.6446 685.96 96.298 686.328 95.9246 686.648C95.5513 686.968 95.162 687.229 94.7566 687.432L93.9886 686.376C94.5006 686.131 94.986 685.789 95.4446 685.352C95.914 684.904 96.3193 684.408 96.6606 683.864C97.0126 683.309 97.29 682.717 97.4926 682.088C97.6953 681.459 97.7966 680.835 97.7966 680.216V678.392H94.4686V677.304H102.485V678.392H99.1086V680.216ZM114.931 682.584C114.59 683.011 114.169 683.347 113.667 683.592C113.166 683.827 112.606 683.944 111.987 683.944C111.465 683.944 110.974 683.859 110.515 683.688C110.067 683.507 109.678 683.256 109.347 682.936C109.017 682.616 108.755 682.237 108.563 681.8C108.382 681.352 108.291 680.867 108.291 680.344C108.291 679.811 108.382 679.325 108.563 678.888C108.755 678.451 109.017 678.072 109.347 677.752C109.678 677.432 110.067 677.187 110.515 677.016C110.974 676.835 111.465 676.744 111.987 676.744C112.606 676.744 113.161 676.867 113.651 677.112C114.153 677.347 114.574 677.672 114.915 678.088H118.563V675.848H119.891V686.44H118.563V682.584H114.931ZM109.539 680.344C109.539 680.696 109.598 681.027 109.715 681.336C109.843 681.635 110.014 681.891 110.227 682.104C110.451 682.317 110.713 682.488 111.011 682.616C111.31 682.733 111.635 682.792 111.987 682.792C112.339 682.792 112.659 682.733 112.947 682.616C113.246 682.488 113.502 682.317 113.715 682.104C113.939 681.891 114.11 681.635 114.227 681.336C114.355 681.027 114.419 680.696 114.419 680.344C114.419 679.992 114.355 679.667 114.227 679.368C114.11 679.059 113.939 678.797 113.715 678.584C113.502 678.371 113.246 678.205 112.947 678.088C112.659 677.96 112.339 677.896 111.987 677.896C111.635 677.896 111.31 677.96 111.011 678.088C110.713 678.205 110.451 678.371 110.227 678.584C110.014 678.797 109.843 679.059 109.715 679.368C109.598 679.667 109.539 679.992 109.539 680.344ZM115.475 679.144C115.603 679.507 115.667 679.907 115.667 680.344C115.667 680.76 115.603 681.155 115.475 681.528H118.563V679.144H115.475ZM120.291 688.792V689.864H110.707V685.352H112.035V688.792H120.291Z" fill="#333333"/>
<path d="M317.686 544.832V552.944H316.374V544.832H317.686ZM313.43 545.744C313.43 546.651 313.27 547.493 312.95 548.272C312.63 549.051 312.171 549.749 311.574 550.368C310.987 550.987 310.273 551.525 309.43 551.984C308.587 552.443 307.643 552.811 306.598 553.088L306.07 552.048C306.945 551.824 307.734 551.541 308.438 551.2C309.142 550.848 309.75 550.448 310.262 550C310.774 549.552 311.179 549.061 311.478 548.528C311.777 547.995 311.958 547.424 312.022 546.816H306.822V545.744H313.43ZM308.406 553.632H317.686V558.976H308.406V553.632ZM309.686 557.92H316.39V554.672H309.686V557.92ZM333.333 551.744H331.029V559.184H329.717V544.832H331.029V550.656H333.333V551.744ZM327.317 546.368C327.317 547.392 327.194 548.384 326.949 549.344C326.703 550.304 326.319 551.216 325.797 552.08C325.274 552.944 324.602 553.749 323.781 554.496C322.959 555.232 321.967 555.888 320.805 556.464L320.085 555.44C321.962 554.501 323.381 553.371 324.341 552.048C325.311 550.725 325.871 549.195 326.021 547.456H320.757V546.368H327.317ZM340.931 551.584C340.59 552.011 340.169 552.347 339.667 552.592C339.166 552.827 338.606 552.944 337.987 552.944C337.465 552.944 336.974 552.859 336.515 552.688C336.067 552.507 335.678 552.256 335.347 551.936C335.017 551.616 334.755 551.237 334.563 550.8C334.382 550.352 334.291 549.867 334.291 549.344C334.291 548.811 334.382 548.325 334.563 547.888C334.755 547.451 335.017 547.072 335.347 546.752C335.678 546.432 336.067 546.187 336.515 546.016C336.974 545.835 337.465 545.744 337.987 545.744C338.606 545.744 339.161 545.867 339.651 546.112C340.153 546.347 340.574 546.672 340.915 547.088H344.563V544.848H345.891V555.44H344.563V551.584H340.931ZM335.539 549.344C335.539 549.696 335.598 550.027 335.715 550.336C335.843 550.635 336.014 550.891 336.227 551.104C336.451 551.317 336.713 551.488 337.011 551.616C337.31 551.733 337.635 551.792 337.987 551.792C338.339 551.792 338.659 551.733 338.947 551.616C339.246 551.488 339.502 551.317 339.715 551.104C339.939 550.891 340.11 550.635 340.227 550.336C340.355 550.027 340.419 549.696 340.419 549.344C340.419 548.992 340.355 548.667 340.227 548.368C340.11 548.059 339.939 547.797 339.715 547.584C339.502 547.371 339.246 547.205 338.947 547.088C338.659 546.96 338.339 546.896 337.987 546.896C337.635 546.896 337.31 546.96 337.011 547.088C336.713 547.205 336.451 547.371 336.227 547.584C336.014 547.797 335.843 548.059 335.715 548.368C335.598 548.667 335.539 548.992 335.539 549.344ZM341.475 548.144C341.603 548.507 341.667 548.907 341.667 549.344C341.667 549.76 341.603 550.155 341.475 550.528H344.563V548.144H341.475ZM346.291 557.792V558.864H336.707V554.352H338.035V557.792H346.291Z" fill="#333333"/>
<path d="M317.686 675.832V683.944H316.374V675.832H317.686ZM313.43 676.744C313.43 677.651 313.27 678.493 312.95 679.272C312.63 680.051 312.171 680.749 311.574 681.368C310.987 681.987 310.273 682.525 309.43 682.984C308.587 683.443 307.643 683.811 306.598 684.088L306.07 683.048C306.945 682.824 307.734 682.541 308.438 682.2C309.142 681.848 309.75 681.448 310.262 681C310.774 680.552 311.179 680.061 311.478 679.528C311.777 678.995 311.958 678.424 312.022 677.816H306.822V676.744H313.43ZM308.406 684.632H317.686V689.976H308.406V684.632ZM309.686 688.92H316.39V685.672H309.686V688.92ZM331.797 682.36C331.242 682.264 330.693 682.12 330.149 681.928C329.615 681.725 329.114 681.48 328.645 681.192C328.186 680.904 327.77 680.579 327.397 680.216C327.023 679.843 326.719 679.437 326.485 679C326.261 679.437 325.962 679.843 325.589 680.216C325.215 680.579 324.794 680.904 324.325 681.192C323.866 681.48 323.365 681.725 322.821 681.928C322.287 682.12 321.743 682.264 321.189 682.36L320.661 681.304C321.322 681.208 321.957 681.037 322.565 680.792C323.183 680.536 323.733 680.227 324.213 679.864C324.693 679.491 325.077 679.075 325.365 678.616C325.653 678.147 325.797 677.656 325.797 677.144V676.344H327.173V677.144C327.173 677.645 327.317 678.125 327.605 678.584C327.903 679.043 328.293 679.459 328.773 679.832C329.263 680.205 329.818 680.52 330.437 680.776C331.055 681.032 331.69 681.208 332.341 681.304L331.797 682.36ZM332.981 685H327.109V690.2H325.797V685H320.005V683.912H332.965L332.981 685ZM345.843 686.152H344.531V675.848H345.843V686.152ZM341.523 683.752H334.819V677.08H341.523V683.752ZM340.243 678.136H336.099V682.696H340.243V678.136ZM346.275 688.648V689.704H336.611V685.176H337.923V688.648H346.275Z" fill="#333333"/>
<path d="M544.686 544.832V552.944H543.374V544.832H544.686ZM540.43 545.744C540.43 546.651 540.27 547.493 539.95 548.272C539.63 549.051 539.171 549.749 538.574 550.368C537.987 550.987 537.273 551.525 536.43 551.984C535.587 552.443 534.643 552.811 533.598 553.088L533.07 552.048C533.945 551.824 534.734 551.541 535.438 551.2C536.142 550.848 536.75 550.448 537.262 550C537.774 549.552 538.179 549.061 538.478 548.528C538.777 547.995 538.958 547.424 539.022 546.816H533.822V545.744H540.43ZM535.406 553.632H544.686V558.976H535.406V553.632ZM536.686 557.92H543.39V554.672H536.686V557.92ZM560.397 551.84H558.045V559.184H556.733V544.848H558.045V550.736H560.397V551.84ZM551.837 547.136H555.373V548.192H546.909V547.136H550.525V545.008H551.837V547.136ZM551.197 549.376C551.709 549.376 552.178 549.461 552.605 549.632C553.031 549.792 553.399 550.021 553.709 550.32C554.029 550.608 554.274 550.955 554.445 551.36C554.615 551.765 554.701 552.208 554.701 552.688C554.701 553.179 554.615 553.627 554.445 554.032C554.274 554.437 554.029 554.784 553.709 555.072C553.399 555.36 553.031 555.584 552.605 555.744C552.178 555.904 551.709 555.984 551.197 555.984C550.695 555.984 550.231 555.904 549.805 555.744C549.378 555.584 549.01 555.36 548.701 555.072C548.391 554.784 548.151 554.437 547.981 554.032C547.81 553.627 547.725 553.179 547.725 552.688C547.725 552.208 547.81 551.765 547.981 551.36C548.151 550.955 548.391 550.608 548.701 550.32C549.01 550.021 549.378 549.792 549.805 549.632C550.231 549.461 550.695 549.376 551.197 549.376ZM551.197 554.896C551.527 554.896 551.831 554.843 552.109 554.736C552.386 554.619 552.621 554.464 552.813 554.272C553.015 554.08 553.17 553.851 553.277 553.584C553.394 553.307 553.453 553.008 553.453 552.688C553.453 552.368 553.394 552.075 553.277 551.808C553.17 551.531 553.015 551.296 552.813 551.104C552.621 550.901 552.386 550.747 552.109 550.64C551.831 550.523 551.527 550.464 551.197 550.464C550.877 550.464 550.578 550.523 550.301 550.64C550.023 550.747 549.783 550.901 549.581 551.104C549.389 551.296 549.234 551.531 549.117 551.808C549.01 552.075 548.957 552.368 548.957 552.688C548.957 553.008 549.01 553.307 549.117 553.584C549.234 553.851 549.389 554.08 549.581 554.272C549.783 554.464 550.023 554.619 550.301 554.736C550.578 554.843 550.877 554.896 551.197 554.896ZM572.555 549.312H562.811V545.04H564.107V548.256H572.555V549.312ZM574.075 550.72V551.792H561.051V550.72H574.075ZM564.011 557.968H572.907V558.992H562.699V555.472H571.115V554.096H562.667V553.088H572.427V556.448H564.011V557.968Z" fill="#333333"/>
<path d="M545.934 687.256V688.328H532.894V687.256H538.75V683.416H534.494V677.064H535.806V682.36H544.446V683.416H540.062V687.256H545.934ZM547.773 681.768C548.402 681.672 549.01 681.507 549.597 681.272C550.194 681.027 550.727 680.733 551.197 680.392C551.666 680.04 552.039 679.651 552.317 679.224C552.605 678.787 552.749 678.333 552.749 677.864V677.784H548.221V676.728H558.701V677.784H554.205V677.864C554.205 678.333 554.343 678.787 554.621 679.224C554.909 679.651 555.287 680.04 555.757 680.392C556.226 680.733 556.759 681.027 557.357 681.272C557.965 681.507 558.583 681.672 559.213 681.768L558.701 682.808C558.146 682.712 557.602 682.568 557.069 682.376C556.535 682.184 556.039 681.949 555.581 681.672C555.122 681.384 554.711 681.064 554.349 680.712C553.986 680.349 553.698 679.955 553.485 679.528C553.261 679.955 552.967 680.349 552.605 680.712C552.242 681.064 551.831 681.384 551.373 681.672C550.925 681.949 550.434 682.184 549.901 682.376C549.378 682.568 548.834 682.712 548.269 682.808L547.773 681.768ZM559.981 685.08H554.109V690.184H552.797V685.08H547.005V684.008H559.965L559.981 685.08ZM572.763 675.848V690.184H571.451V675.848H572.763ZM570.171 678.824H561.451V677.768H565.163V675.992H566.475V677.768H570.171V678.824ZM562.395 682.312C562.395 681.907 562.475 681.539 562.635 681.208C562.806 680.877 563.041 680.595 563.339 680.36C563.649 680.125 564.011 679.944 564.427 679.816C564.854 679.688 565.318 679.624 565.819 679.624C566.321 679.624 566.779 679.688 567.195 679.816C567.622 679.944 567.985 680.125 568.283 680.36C568.593 680.595 568.827 680.877 568.987 681.208C569.158 681.539 569.243 681.907 569.243 682.312C569.243 682.717 569.158 683.085 568.987 683.416C568.827 683.747 568.593 684.029 568.283 684.264C567.985 684.499 567.622 684.68 567.195 684.808C566.779 684.936 566.321 685 565.819 685C565.318 685 564.854 684.936 564.427 684.808C564.011 684.68 563.649 684.499 563.339 684.264C563.041 684.029 562.806 683.747 562.635 683.416C562.475 683.085 562.395 682.717 562.395 682.312ZM568.011 682.312C568.011 681.8 567.809 681.395 567.403 681.096C566.998 680.797 566.47 680.648 565.819 680.648C565.179 680.648 564.657 680.797 564.251 681.096C563.846 681.395 563.643 681.8 563.643 682.312C563.643 682.824 563.846 683.235 564.251 683.544C564.657 683.843 565.179 683.992 565.819 683.992C566.47 683.992 566.998 683.843 567.403 683.544C567.809 683.235 568.011 682.824 568.011 682.312ZM561.147 686.264C561.83 686.264 562.555 686.264 563.323 686.264C564.102 686.253 564.891 686.237 565.691 686.216C566.502 686.184 567.318 686.141 568.139 686.088C568.961 686.024 569.761 685.939 570.539 685.832L570.635 686.808C569.835 686.947 569.025 687.053 568.203 687.128C567.382 687.203 566.571 687.261 565.771 687.304C564.982 687.336 564.209 687.357 563.451 687.368C562.705 687.368 562.001 687.368 561.339 687.368L561.147 686.264Z" fill="#333333"/>
<path d="M771.15 544.832V559.184H769.886V551.712H767.998V558.48H766.766V545.152H767.998V550.624H769.886V544.832H771.15ZM763.086 549.232C763.086 549.808 763.155 550.379 763.294 550.944C763.443 551.499 763.646 552.027 763.902 552.528C764.169 553.029 764.494 553.488 764.878 553.904C765.262 554.309 765.694 554.645 766.174 554.912L765.422 555.888C764.718 555.493 764.115 554.955 763.614 554.272C763.123 553.589 762.745 552.816 762.478 551.952C762.233 552.891 761.859 553.733 761.358 554.48C760.867 555.216 760.27 555.792 759.566 556.208L758.782 555.216C759.262 554.928 759.689 554.565 760.062 554.128C760.446 553.691 760.766 553.211 761.022 552.688C761.289 552.155 761.491 551.595 761.63 551.008C761.769 550.411 761.838 549.819 761.838 549.232V548.576H759.134V547.504H761.838V545.36H763.102V547.504H765.79V548.576H763.086V549.232ZM779.469 551.04C778.701 551.04 778.007 550.976 777.389 550.848C776.77 550.72 776.237 550.533 775.789 550.288C775.351 550.043 775.015 549.744 774.781 549.392C774.546 549.04 774.429 548.64 774.429 548.192C774.429 547.744 774.546 547.344 774.781 546.992C775.015 546.64 775.351 546.341 775.789 546.096C776.237 545.84 776.77 545.648 777.389 545.52C778.007 545.392 778.701 545.328 779.469 545.328C780.237 545.328 780.93 545.392 781.549 545.52C782.167 545.648 782.695 545.84 783.133 546.096C783.581 546.341 783.922 546.64 784.157 546.992C784.391 547.344 784.509 547.744 784.509 548.192C784.509 548.64 784.391 549.04 784.157 549.392C783.922 549.744 783.581 550.043 783.133 550.288C782.695 550.533 782.167 550.72 781.549 550.848C780.93 550.976 780.237 551.04 779.469 551.04ZM779.469 546.384C778.338 546.384 777.437 546.544 776.765 546.864C776.103 547.173 775.773 547.616 775.773 548.192C775.773 548.768 776.103 549.211 776.765 549.52C777.437 549.829 778.338 549.984 779.469 549.984C780.599 549.984 781.495 549.829 782.157 549.52C782.829 549.211 783.165 548.768 783.165 548.192C783.165 547.616 782.829 547.173 782.157 546.864C781.495 546.544 780.599 546.384 779.469 546.384ZM785.949 552.384V553.44H772.973V552.384H785.949ZM775.965 557.792H784.525V558.864H774.653V554.704H775.965V557.792ZM798.891 544.832V559.2H797.579V550.768H794.251V549.696H797.579V544.832H798.891ZM792.091 548.64C792.091 549.291 792.187 549.936 792.379 550.576C792.571 551.205 792.833 551.797 793.163 552.352C793.505 552.907 793.899 553.403 794.347 553.84C794.795 554.267 795.281 554.603 795.803 554.848L795.035 555.888C794.235 555.483 793.515 554.875 792.875 554.064C792.246 553.253 791.766 552.347 791.435 551.344C791.115 552.411 790.641 553.371 790.011 554.224C789.393 555.077 788.678 555.717 787.867 556.144L787.067 555.104C787.59 554.848 788.075 554.491 788.523 554.032C788.971 553.573 789.361 553.056 789.691 552.48C790.033 551.904 790.299 551.285 790.491 550.624C790.683 549.963 790.779 549.301 790.779 548.64V546.064H792.091V548.64Z" fill="#333333"/>
<path d="M770.686 675.832V683.944H769.374V675.832H770.686ZM766.43 676.744C766.43 677.651 766.27 678.493 765.95 679.272C765.63 680.051 765.171 680.749 764.574 681.368C763.987 681.987 763.273 682.525 762.43 682.984C761.587 683.443 760.643 683.811 759.598 684.088L759.07 683.048C759.945 682.824 760.734 682.541 761.438 682.2C762.142 681.848 762.75 681.448 763.262 681C763.774 680.552 764.179 680.061 764.478 679.528C764.777 678.995 764.958 678.424 765.022 677.816H759.822V676.744H766.43ZM761.406 684.632H770.686V689.976H761.406V684.632ZM762.686 688.92H769.39V685.672H762.686V688.92ZM784.813 675.832V690.2H783.501V681.768H780.173V680.696H783.501V675.832H784.813ZM778.013 679.64C778.013 680.291 778.109 680.936 778.301 681.576C778.493 682.205 778.754 682.797 779.085 683.352C779.426 683.907 779.821 684.403 780.269 684.84C780.717 685.267 781.202 685.603 781.725 685.848L780.957 686.888C780.157 686.483 779.437 685.875 778.797 685.064C778.167 684.253 777.687 683.347 777.357 682.344C777.037 683.411 776.562 684.371 775.933 685.224C775.314 686.077 774.599 686.717 773.789 687.144L772.989 686.104C773.511 685.848 773.997 685.491 774.445 685.032C774.893 684.573 775.282 684.056 775.613 683.48C775.954 682.904 776.221 682.285 776.413 681.624C776.605 680.963 776.701 680.301 776.701 679.64V677.064H778.013V679.64ZM798.811 675.832V690.216H797.499V675.832H798.811ZM791.243 676.936C791.777 676.936 792.267 677.053 792.715 677.288C793.163 677.523 793.547 677.859 793.867 678.296C794.187 678.733 794.438 679.261 794.619 679.88C794.801 680.488 794.891 681.176 794.891 681.944C794.891 682.712 794.801 683.405 794.619 684.024C794.438 684.632 794.187 685.155 793.867 685.592C793.547 686.029 793.163 686.365 792.715 686.6C792.267 686.835 791.777 686.952 791.243 686.952C790.71 686.952 790.219 686.835 789.771 686.6C789.323 686.365 788.939 686.029 788.619 685.592C788.299 685.155 788.049 684.632 787.867 684.024C787.686 683.405 787.595 682.712 787.595 681.944C787.595 681.176 787.686 680.488 787.867 679.88C788.049 679.261 788.299 678.733 788.619 678.296C788.939 677.859 789.323 677.523 789.771 677.288C790.219 677.053 790.71 676.936 791.243 676.936ZM791.243 678.12C790.891 678.12 790.566 678.211 790.267 678.392C789.979 678.573 789.729 678.829 789.515 679.16C789.302 679.491 789.137 679.896 789.019 680.376C788.902 680.845 788.843 681.368 788.843 681.944C788.843 682.531 788.902 683.059 789.019 683.528C789.137 683.997 789.302 684.403 789.515 684.744C789.729 685.075 789.979 685.331 790.267 685.512C790.566 685.693 790.891 685.784 791.243 685.784C791.595 685.784 791.915 685.693 792.203 685.512C792.491 685.331 792.742 685.075 792.955 684.744C793.169 684.403 793.334 683.997 793.451 683.528C793.569 683.059 793.627 682.531 793.627 681.944C793.627 681.368 793.569 680.845 793.451 680.376C793.334 679.896 793.169 679.491 792.955 679.16C792.742 678.829 792.491 678.573 792.203 678.392C791.915 678.211 791.595 678.12 791.243 678.12Z" fill="#333333"/>
<path d="M996.686 544.832V552.944H995.374V544.832H996.686ZM992.43 545.744C992.43 546.651 992.27 547.493 991.95 548.272C991.63 549.051 991.171 549.749 990.574 550.368C989.987 550.987 989.273 551.525 988.43 551.984C987.587 552.443 986.643 552.811 985.598 553.088L985.07 552.048C985.945 551.824 986.734 551.541 987.438 551.2C988.142 550.848 988.75 550.448 989.262 550C989.774 549.552 990.179 549.061 990.478 548.528C990.777 547.995 990.958 547.424 991.022 546.816H985.822V545.744H992.43ZM987.406 553.632H996.686V558.976H987.406V553.632ZM988.686 557.92H995.39V554.672H988.686V557.92ZM1010.73 544.832V559.216H1009.42V544.832H1010.73ZM1006.41 546.24V555.568H999.821V546.24H1006.41ZM1001.1 547.296V554.528H1005.13V547.296H1001.1ZM1024.88 551.36C1024.32 551.264 1023.77 551.12 1023.23 550.928C1022.69 550.725 1022.19 550.48 1021.72 550.192C1021.26 549.904 1020.85 549.579 1020.48 549.216C1020.1 548.843 1019.8 548.437 1019.56 548C1019.34 548.437 1019.04 548.843 1018.67 549.216C1018.29 549.579 1017.87 549.904 1017.4 550.192C1016.94 550.48 1016.44 550.725 1015.9 550.928C1015.37 551.12 1014.82 551.264 1014.27 551.36L1013.74 550.304C1014.4 550.208 1015.04 550.037 1015.64 549.792C1016.26 549.536 1016.81 549.227 1017.29 548.864C1017.77 548.491 1018.16 548.075 1018.44 547.616C1018.73 547.147 1018.88 546.656 1018.88 546.144V545.344H1020.25V546.144C1020.25 546.645 1020.4 547.125 1020.68 547.584C1020.98 548.043 1021.37 548.459 1021.85 548.832C1022.34 549.205 1022.9 549.52 1023.52 549.776C1024.13 550.032 1024.77 550.208 1025.42 550.304L1024.88 551.36ZM1026.06 554H1020.19V559.2H1018.88V554H1013.08V552.912H1026.04L1026.06 554Z" fill="#333333"/>
<rect y="466" width="201" height="53" fill="#082B52"/>
<rect y="597" width="201" height="53" fill="#082B52"/>
<rect x="0.5" y="660.5" width="200" height="47" stroke="#DBDBDB"/>
<rect x="226.5" y="660.5" width="200" height="47" stroke="#DBDBDB"/>
<rect x="452.5" y="660.5" width="201" height="47" stroke="#DBDBDB"/>
<rect x="679.5" y="660.5" width="200" height="47" stroke="#DBDBDB"/>
<rect x="905.5" y="529.5" width="200" height="47" stroke="#DBDBDB"/>
<rect x="226" y="466" width="201" height="53" fill="#082B52"/>
<rect x="226" y="597" width="201" height="53" fill="#082B52"/>
<rect x="452" y="466" width="202" height="53" fill="#082B52"/>
<rect x="452" y="597" width="202" height="53" fill="#082B52"/>
<rect x="679" y="466" width="201" height="53" fill="#082B52"/>
<rect x="679" y="597" width="201" height="53" fill="#082B52"/>
<rect x="905" y="466" width="201" height="53" fill="#082B52"/>
<path d="M68.962 486.716H65.092V485.042H63.238V486.716H59.368V488.192H68.962V486.716ZM61.996 491.864C61.996 490.892 62.86 490.316 64.156 490.316C65.452 490.316 66.334 490.892 66.334 491.864C66.334 492.818 65.452 493.394 64.156 493.394C62.86 493.394 61.996 492.818 61.996 491.864ZM68.098 491.864C68.098 490.082 66.496 488.894 64.156 488.894C61.816 488.894 60.214 490.082 60.214 491.864C60.214 493.628 61.816 494.816 64.156 494.816C66.496 494.816 68.098 493.628 68.098 491.864ZM61.348 497.588H70.186V501.386H72.04V496.094H61.348V497.588ZM74.344 489.488H72.04V485.132H70.186V495.302H72.04V491.018H74.344V489.488ZM89.3006 489.416C86.0426 489.092 83.6666 487.49 83.6666 485.672V485.204H81.7586V485.672C81.7586 487.49 79.3826 489.092 76.1246 489.416L76.7546 490.838C79.4546 490.514 81.6686 489.398 82.7126 487.778C83.7566 489.398 85.9706 490.514 88.6706 490.838L89.3006 489.416ZM90.0746 493.196V491.72H75.3506V493.196H81.7586V494.564H77.0966V495.968H86.4026V497.174H77.1326V501.242H88.6886V499.82H78.9686V498.488H88.2206V494.564H83.6306V493.196H90.0746ZM102.439 491.378H95.0052V489.308H102.439V491.378ZM104.293 485.762H102.439V487.814H95.0052V485.762H93.1512V492.872H104.293V485.762ZM106.111 494.636H91.3692V496.13H97.7592V501.404H99.6132V496.13H106.111V494.636ZM121.961 491.378H114.527V489.308H121.961V491.378ZM123.815 485.762H121.961V487.814H114.527V485.762H112.673V492.872H123.815V485.762ZM125.633 494.636H110.891V496.13H117.281V501.404H119.135V496.13H125.633V494.636ZM136.467 492.782C133.983 491.99 132.633 490.1 132.633 488.084V487.778H136.035V486.284H127.305V487.778H130.761V488.102C130.761 490.316 129.339 492.404 126.783 493.286L127.719 494.744C129.663 494.078 131.031 492.692 131.751 490.964C132.453 492.476 133.749 493.646 135.567 494.222L136.467 492.782ZM134.379 499.928C132.111 499.928 130.797 499.352 130.797 498.308C130.797 497.246 132.111 496.688 134.379 496.688C136.647 496.688 137.961 497.246 137.961 498.308C137.961 499.352 136.647 499.928 134.379 499.928ZM134.379 495.23C131.031 495.23 128.961 496.364 128.961 498.308C128.961 500.234 131.031 501.386 134.379 501.386C137.727 501.386 139.797 500.234 139.797 498.308C139.797 496.364 137.727 495.23 134.379 495.23ZM139.617 489.092V485.132H137.763V494.852H139.617V490.622H141.921V489.092H139.617Z" fill="white"/>
<path d="M68.962 617.716H65.092V616.042H63.238V617.716H59.368V619.192H68.962V617.716ZM61.996 622.864C61.996 621.892 62.86 621.316 64.156 621.316C65.452 621.316 66.334 621.892 66.334 622.864C66.334 623.818 65.452 624.394 64.156 624.394C62.86 624.394 61.996 623.818 61.996 622.864ZM68.098 622.864C68.098 621.082 66.496 619.894 64.156 619.894C61.816 619.894 60.214 621.082 60.214 622.864C60.214 624.628 61.816 625.816 64.156 625.816C66.496 625.816 68.098 624.628 68.098 622.864ZM61.348 628.588H70.186V632.386H72.04V627.094H61.348V628.588ZM74.344 620.488H72.04V616.132H70.186V626.302H72.04V622.018H74.344V620.488ZM89.3006 620.416C86.0426 620.092 83.6666 618.49 83.6666 616.672V616.204H81.7586V616.672C81.7586 618.49 79.3826 620.092 76.1246 620.416L76.7546 621.838C79.4546 621.514 81.6686 620.398 82.7126 618.778C83.7566 620.398 85.9706 621.514 88.6706 621.838L89.3006 620.416ZM90.0746 624.196V622.72H75.3506V624.196H81.7586V625.564H77.0966V626.968H86.4026V628.174H77.1326V632.242H88.6886V630.82H78.9686V629.488H88.2206V625.564H83.6306V624.196H90.0746ZM102.439 622.378H95.0052V620.308H102.439V622.378ZM104.293 616.762H102.439V618.814H95.0052V616.762H93.1512V623.872H104.293V616.762ZM106.111 625.636H91.3692V627.13H97.7592V632.404H99.6132V627.13H106.111V625.636ZM116.525 620.362H119.963V618.868H116.525V616.456H114.671V618.868H111.179V620.362H114.671V621.298C114.671 623.962 113.159 626.698 110.675 627.886L111.701 629.308C113.555 628.444 114.905 626.662 115.625 624.556C116.291 626.518 117.587 628.174 119.333 629.02L120.359 627.598C117.947 626.428 116.525 623.782 116.525 621.298V620.362ZM126.029 622.648H123.491V616.114H121.637V632.386H123.491V624.178H126.029V622.648ZM136.467 623.782C133.983 622.99 132.633 621.1 132.633 619.084V618.778H136.035V617.284H127.305V618.778H130.761V619.102C130.761 621.316 129.339 623.404 126.783 624.286L127.719 625.744C129.663 625.078 131.031 623.692 131.751 621.964C132.453 623.476 133.749 624.646 135.567 625.222L136.467 623.782ZM134.379 630.928C132.111 630.928 130.797 630.352 130.797 629.308C130.797 628.246 132.111 627.688 134.379 627.688C136.647 627.688 137.961 628.246 137.961 629.308C137.961 630.352 136.647 630.928 134.379 630.928ZM134.379 626.23C131.031 626.23 128.961 627.364 128.961 629.308C128.961 631.234 131.031 632.386 134.379 632.386C137.727 632.386 139.797 631.234 139.797 629.308C139.797 627.364 137.727 626.23 134.379 626.23ZM139.617 620.092V616.132H137.763V625.852H139.617V621.622H141.921V620.092H139.617Z" fill="white"/>
<path d="M286.268 486.842V488.354H292.064C291.74 492.098 289.724 494.96 285.458 497.012L286.448 498.488C292.028 495.788 293.972 491.684 293.972 486.842H286.268ZM296.906 485.132V501.386H298.76V485.132H296.906ZM311.467 486.5H307.651V485.006H305.779V486.5H301.963V487.85H311.467V486.5ZM304.555 490.766C304.555 490.046 305.401 489.614 306.715 489.614C308.047 489.614 308.893 490.046 308.893 490.766C308.893 491.522 308.047 491.954 306.715 491.954C305.401 491.954 304.555 491.522 304.555 490.766ZM311.755 493.736C310.441 493.916 309.055 494.024 307.651 494.096V493.16C309.487 492.944 310.657 492.062 310.657 490.766C310.657 489.29 309.091 488.354 306.715 488.354C304.357 488.354 302.791 489.29 302.791 490.766C302.791 492.062 303.943 492.944 305.779 493.16V494.168C304.249 494.222 302.755 494.222 301.459 494.222L301.693 495.662C304.591 495.662 308.389 495.608 311.899 495.014L311.755 493.736ZM303.745 498.254H312.907V501.404H314.761V496.778H303.745V498.254ZM312.907 485.15V496.094H314.761V485.15H312.907ZM328.439 491.378H321.005V489.308H328.439V491.378ZM330.293 485.762H328.439V487.814H321.005V485.762H319.151V492.872H330.293V485.762ZM332.111 494.636H317.369V496.13H323.759V501.404H325.613V496.13H332.111V494.636ZM347.961 491.378H340.527V489.308H347.961V491.378ZM349.815 485.762H347.961V487.814H340.527V485.762H338.673V492.872H349.815V485.762ZM351.633 494.636H336.891V496.13H343.281V501.404H345.135V496.13H351.633V494.636ZM362.467 492.782C359.983 491.99 358.633 490.1 358.633 488.084V487.778H362.035V486.284H353.305V487.778H356.761V488.102C356.761 490.316 355.339 492.404 352.783 493.286L353.719 494.744C355.663 494.078 357.031 492.692 357.751 490.964C358.453 492.476 359.749 493.646 361.567 494.222L362.467 492.782ZM360.379 499.928C358.111 499.928 356.797 499.352 356.797 498.308C356.797 497.246 358.111 496.688 360.379 496.688C362.647 496.688 363.961 497.246 363.961 498.308C363.961 499.352 362.647 499.928 360.379 499.928ZM360.379 495.23C357.031 495.23 354.961 496.364 354.961 498.308C354.961 500.234 357.031 501.386 360.379 501.386C363.727 501.386 365.797 500.234 365.797 498.308C365.797 496.364 363.727 495.23 360.379 495.23ZM365.617 489.092V485.132H363.763V494.852H365.617V490.622H367.921V489.092H365.617Z" fill="white"/>
<path d="M286.268 617.842V619.354H292.064C291.74 623.098 289.724 625.96 285.458 628.012L286.448 629.488C292.028 626.788 293.972 622.684 293.972 617.842H286.268ZM296.906 616.132V632.386H298.76V616.132H296.906ZM311.467 617.5H307.651V616.006H305.779V617.5H301.963V618.85H311.467V617.5ZM304.555 621.766C304.555 621.046 305.401 620.614 306.715 620.614C308.047 620.614 308.893 621.046 308.893 621.766C308.893 622.522 308.047 622.954 306.715 622.954C305.401 622.954 304.555 622.522 304.555 621.766ZM311.755 624.736C310.441 624.916 309.055 625.024 307.651 625.096V624.16C309.487 623.944 310.657 623.062 310.657 621.766C310.657 620.29 309.091 619.354 306.715 619.354C304.357 619.354 302.791 620.29 302.791 621.766C302.791 623.062 303.943 623.944 305.779 624.16V625.168C304.249 625.222 302.755 625.222 301.459 625.222L301.693 626.662C304.591 626.662 308.389 626.608 311.899 626.014L311.755 624.736ZM303.745 629.254H312.907V632.404H314.761V627.778H303.745V629.254ZM312.907 616.15V627.094H314.761V616.15H312.907ZM328.439 622.378H321.005V620.308H328.439V622.378ZM330.293 616.762H328.439V618.814H321.005V616.762H319.151V623.872H330.293V616.762ZM332.111 625.636H317.369V627.13H323.759V632.404H325.613V627.13H332.111V625.636ZM342.525 620.362H345.963V618.868H342.525V616.456H340.671V618.868H337.179V620.362H340.671V621.298C340.671 623.962 339.159 626.698 336.675 627.886L337.701 629.308C339.555 628.444 340.905 626.662 341.625 624.556C342.291 626.518 343.587 628.174 345.333 629.02L346.359 627.598C343.947 626.428 342.525 623.782 342.525 621.298V620.362ZM352.029 622.648H349.491V616.114H347.637V632.386H349.491V624.178H352.029V622.648ZM362.467 623.782C359.983 622.99 358.633 621.1 358.633 619.084V618.778H362.035V617.284H353.305V618.778H356.761V619.102C356.761 621.316 355.339 623.404 352.783 624.286L353.719 625.744C355.663 625.078 357.031 623.692 357.751 621.964C358.453 623.476 359.749 624.646 361.567 625.222L362.467 623.782ZM360.379 630.928C358.111 630.928 356.797 630.352 356.797 629.308C356.797 628.246 358.111 627.688 360.379 627.688C362.647 627.688 363.961 628.246 363.961 629.308C363.961 630.352 362.647 630.928 360.379 630.928ZM360.379 626.23C357.031 626.23 354.961 627.364 354.961 629.308C354.961 631.234 357.031 632.386 360.379 632.386C363.727 632.386 365.797 631.234 365.797 629.308C365.797 627.364 363.727 626.23 360.379 626.23ZM365.617 620.092V616.132H363.763V625.852H365.617V621.622H367.921V620.092H365.617Z" fill="white"/>
<path d="M526.228 486.41H520.63V484.934H518.758V486.41H513.07V487.832H526.228V486.41ZM519.658 500.036C517.228 500.036 515.968 499.658 515.968 498.884C515.968 498.11 517.228 497.732 519.658 497.732C522.106 497.732 523.366 498.11 523.366 498.884C523.366 499.658 522.106 500.036 519.658 500.036ZM519.658 496.382C516.112 496.382 514.06 497.246 514.06 498.884C514.06 500.522 516.112 501.386 519.658 501.386C523.222 501.386 525.256 500.522 525.256 498.884C525.256 497.246 523.222 496.382 519.658 496.382ZM516.328 490.712C516.328 489.992 517.48 489.668 519.694 489.668C521.89 489.668 523.06 489.992 523.06 490.712C523.06 491.414 521.89 491.774 519.694 491.774C517.48 491.774 516.328 491.414 516.328 490.712ZM520.63 494.078V493.016C523.456 492.872 525.022 492.098 525.022 490.712C525.022 489.164 523.114 488.372 519.694 488.372C516.256 488.372 514.348 489.164 514.348 490.712C514.348 492.098 515.914 492.872 518.758 493.016V494.078H512.332V495.536H527.038V494.078H520.63ZM531.861 490.442H539.565V493.106H531.861V490.442ZM536.631 497.876V494.6H541.401V486.212H539.565V488.948H531.861V486.212H530.025V494.6H534.777V497.876H528.369V499.406H543.093V497.876H536.631ZM555.439 491.378H548.005V489.308H555.439V491.378ZM557.293 485.762H555.439V487.814H548.005V485.762H546.151V492.872H557.293V485.762ZM559.111 494.636H544.369V496.13H550.759V501.404H552.613V496.13H559.111V494.636ZM574.961 491.378H567.527V489.308H574.961V491.378ZM576.815 485.762H574.961V487.814H567.527V485.762H565.673V492.872H576.815V485.762ZM578.633 494.636H563.891V496.13H570.281V501.404H572.135V496.13H578.633V494.636ZM589.467 492.782C586.983 491.99 585.633 490.1 585.633 488.084V487.778H589.035V486.284H580.305V487.778H583.761V488.102C583.761 490.316 582.339 492.404 579.783 493.286L580.719 494.744C582.663 494.078 584.031 492.692 584.751 490.964C585.453 492.476 586.749 493.646 588.567 494.222L589.467 492.782ZM587.379 499.928C585.111 499.928 583.797 499.352 583.797 498.308C583.797 497.246 585.111 496.688 587.379 496.688C589.647 496.688 590.961 497.246 590.961 498.308C590.961 499.352 589.647 499.928 587.379 499.928ZM587.379 495.23C584.031 495.23 581.961 496.364 581.961 498.308C581.961 500.234 584.031 501.386 587.379 501.386C590.727 501.386 592.797 500.234 592.797 498.308C592.797 496.364 590.727 495.23 587.379 495.23ZM592.617 489.092V485.132H590.763V494.852H592.617V490.622H594.921V489.092H592.617Z" fill="white"/>
<path d="M526.228 617.41H520.63V615.934H518.758V617.41H513.07V618.832H526.228V617.41ZM519.658 631.036C517.228 631.036 515.968 630.658 515.968 629.884C515.968 629.11 517.228 628.732 519.658 628.732C522.106 628.732 523.366 629.11 523.366 629.884C523.366 630.658 522.106 631.036 519.658 631.036ZM519.658 627.382C516.112 627.382 514.06 628.246 514.06 629.884C514.06 631.522 516.112 632.386 519.658 632.386C523.222 632.386 525.256 631.522 525.256 629.884C525.256 628.246 523.222 627.382 519.658 627.382ZM516.328 621.712C516.328 620.992 517.48 620.668 519.694 620.668C521.89 620.668 523.06 620.992 523.06 621.712C523.06 622.414 521.89 622.774 519.694 622.774C517.48 622.774 516.328 622.414 516.328 621.712ZM520.63 625.078V624.016C523.456 623.872 525.022 623.098 525.022 621.712C525.022 620.164 523.114 619.372 519.694 619.372C516.256 619.372 514.348 620.164 514.348 621.712C514.348 623.098 515.914 623.872 518.758 624.016V625.078H512.332V626.536H527.038V625.078H520.63ZM531.861 621.442H539.565V624.106H531.861V621.442ZM536.631 628.876V625.6H541.401V617.212H539.565V619.948H531.861V617.212H530.025V625.6H534.777V628.876H528.369V630.406H543.093V628.876H536.631ZM555.439 622.378H548.005V620.308H555.439V622.378ZM557.293 616.762H555.439V618.814H548.005V616.762H546.151V623.872H557.293V616.762ZM559.111 625.636H544.369V627.13H550.759V632.404H552.613V627.13H559.111V625.636ZM569.525 620.362H572.963V618.868H569.525V616.456H567.671V618.868H564.179V620.362H567.671V621.298C567.671 623.962 566.159 626.698 563.675 627.886L564.701 629.308C566.555 628.444 567.905 626.662 568.625 624.556C569.291 626.518 570.587 628.174 572.333 629.02L573.359 627.598C570.947 626.428 569.525 623.782 569.525 621.298V620.362ZM579.029 622.648H576.491V616.114H574.637V632.386H576.491V624.178H579.029V622.648ZM589.467 623.782C586.983 622.99 585.633 621.1 585.633 619.084V618.778H589.035V617.284H580.305V618.778H583.761V619.102C583.761 621.316 582.339 623.404 579.783 624.286L580.719 625.744C582.663 625.078 584.031 623.692 584.751 621.964C585.453 623.476 586.749 624.646 588.567 625.222L589.467 623.782ZM587.379 630.928C585.111 630.928 583.797 630.352 583.797 629.308C583.797 628.246 585.111 627.688 587.379 627.688C589.647 627.688 590.961 628.246 590.961 629.308C590.961 630.352 589.647 630.928 587.379 630.928ZM587.379 626.23C584.031 626.23 581.961 627.364 581.961 629.308C581.961 631.234 584.031 632.386 587.379 632.386C590.727 632.386 592.797 631.234 592.797 629.308C592.797 627.364 590.727 626.23 587.379 626.23ZM592.617 620.092V616.132H590.763V625.852H592.617V621.622H594.921V620.092H592.617Z" fill="white"/>
<path d="M733.329 490.244H726.003V487.328H733.329V490.244ZM735.147 485.852H724.185V491.72H735.147V485.852ZM725.967 496.382H724.113V501.08H735.417V499.568H725.967V496.382ZM722.313 493.322V494.816H728.901V497.858H730.755V494.816H737.055V493.322H722.313ZM748.106 487.004H744.218V485.168H742.364V487.004H738.44V488.498H748.106V487.004ZM741.14 492.35C741.14 491.342 742.022 490.73 743.3 490.73C744.578 490.73 745.442 491.342 745.442 492.35C745.442 493.34 744.578 493.952 743.3 493.952C742.022 493.952 741.14 493.34 741.14 492.35ZM744.218 495.302C746.018 495.014 747.188 493.898 747.188 492.35C747.188 490.514 745.604 489.308 743.3 489.308C740.978 489.308 739.394 490.514 739.394 492.35C739.394 493.898 740.564 494.996 742.364 495.302V496.886C740.852 496.94 739.394 496.94 738.152 496.94L738.404 498.47C741.194 498.47 744.956 498.434 748.43 497.822L748.286 496.454C746.99 496.652 745.604 496.742 744.218 496.814V495.302ZM753.38 491.918H751.058V485.114H749.204V501.386H751.058V493.448H753.38V491.918ZM759.247 489.524H762.037V487.994H759.247V485.69H757.483V487.994H754.675V489.524H757.483V490.1C757.483 492.692 756.403 495.464 754.171 496.778L755.233 498.182C756.781 497.282 757.807 495.644 758.383 493.736C758.977 495.5 760.021 496.994 761.551 497.822L762.577 496.436C760.345 495.23 759.247 492.638 759.247 490.1V489.524ZM763.189 491.432H760.993V492.944H763.189V500.594H764.935V485.456H763.189V491.432ZM766.465 485.132V501.386H768.229V485.132H766.465ZM777.731 486.932C780.143 486.932 781.601 487.544 781.601 488.642C781.601 489.722 780.143 490.334 777.731 490.334C775.301 490.334 773.843 489.722 773.843 488.642C773.843 487.544 775.301 486.932 777.731 486.932ZM777.731 491.792C781.259 491.792 783.527 490.604 783.527 488.642C783.527 486.68 781.259 485.492 777.731 485.492C774.185 485.492 771.935 486.68 771.935 488.642C771.935 490.604 774.185 491.792 777.731 491.792ZM779.513 496.13H775.913V494.348H779.513V496.13ZM785.075 494.348V492.854H770.351V494.348H774.059V496.13H772.007V497.606H781.421V501.386H783.275V496.13H781.367V494.348H785.075ZM797.458 491.378H790.024V489.308H797.458V491.378ZM799.312 485.762H797.458V487.814H790.024V485.762H788.17V492.872H799.312V485.762ZM801.13 494.636H786.388V496.13H792.778V501.404H794.632V496.13H801.13V494.636ZM816.979 491.378H809.545V489.308H816.979V491.378ZM818.833 485.762H816.979V487.814H809.545V485.762H807.691V492.872H818.833V485.762ZM820.651 494.636H805.909V496.13H812.299V501.404H814.153V496.13H820.651V494.636ZM831.486 492.782C829.002 491.99 827.652 490.1 827.652 488.084V487.778H831.054V486.284H822.324V487.778H825.78V488.102C825.78 490.316 824.358 492.404 821.802 493.286L822.738 494.744C824.682 494.078 826.05 492.692 826.77 490.964C827.472 492.476 828.768 493.646 830.586 494.222L831.486 492.782ZM829.398 499.928C827.13 499.928 825.816 499.352 825.816 498.308C825.816 497.246 827.13 496.688 829.398 496.688C831.666 496.688 832.98 497.246 832.98 498.308C832.98 499.352 831.666 499.928 829.398 499.928ZM829.398 495.23C826.05 495.23 823.98 496.364 823.98 498.308C823.98 500.234 826.05 501.386 829.398 501.386C832.746 501.386 834.816 500.234 834.816 498.308C834.816 496.364 832.746 495.23 829.398 495.23ZM834.636 489.092V485.132H832.782V494.852H834.636V490.622H836.94V489.092H834.636Z" fill="white"/>
<path d="M733.329 621.244H726.003V618.328H733.329V621.244ZM735.147 616.852H724.185V622.72H735.147V616.852ZM725.967 627.382H724.113V632.08H735.417V630.568H725.967V627.382ZM722.313 624.322V625.816H728.901V628.858H730.755V625.816H737.055V624.322H722.313ZM748.106 618.004H744.218V616.168H742.364V618.004H738.44V619.498H748.106V618.004ZM741.14 623.35C741.14 622.342 742.022 621.73 743.3 621.73C744.578 621.73 745.442 622.342 745.442 623.35C745.442 624.34 744.578 624.952 743.3 624.952C742.022 624.952 741.14 624.34 741.14 623.35ZM744.218 626.302C746.018 626.014 747.188 624.898 747.188 623.35C747.188 621.514 745.604 620.308 743.3 620.308C740.978 620.308 739.394 621.514 739.394 623.35C739.394 624.898 740.564 625.996 742.364 626.302V627.886C740.852 627.94 739.394 627.94 738.152 627.94L738.404 629.47C741.194 629.47 744.956 629.434 748.43 628.822L748.286 627.454C746.99 627.652 745.604 627.742 744.218 627.814V626.302ZM753.38 622.918H751.058V616.114H749.204V632.386H751.058V624.448H753.38V622.918ZM759.247 620.524H762.037V618.994H759.247V616.69H757.483V618.994H754.675V620.524H757.483V621.1C757.483 623.692 756.403 626.464 754.171 627.778L755.233 629.182C756.781 628.282 757.807 626.644 758.383 624.736C758.977 626.5 760.021 627.994 761.551 628.822L762.577 627.436C760.345 626.23 759.247 623.638 759.247 621.1V620.524ZM763.189 622.432H760.993V623.944H763.189V631.594H764.935V616.456H763.189V622.432ZM766.465 616.132V632.386H768.229V616.132H766.465ZM777.731 617.932C780.143 617.932 781.601 618.544 781.601 619.642C781.601 620.722 780.143 621.334 777.731 621.334C775.301 621.334 773.843 620.722 773.843 619.642C773.843 618.544 775.301 617.932 777.731 617.932ZM777.731 622.792C781.259 622.792 783.527 621.604 783.527 619.642C783.527 617.68 781.259 616.492 777.731 616.492C774.185 616.492 771.935 617.68 771.935 619.642C771.935 621.604 774.185 622.792 777.731 622.792ZM779.513 627.13H775.913V625.348H779.513V627.13ZM785.075 625.348V623.854H770.351V625.348H774.059V627.13H772.007V628.606H781.421V632.386H783.275V627.13H781.367V625.348H785.075ZM797.458 622.378H790.024V620.308H797.458V622.378ZM799.312 616.762H797.458V618.814H790.024V616.762H788.17V623.872H799.312V616.762ZM801.13 625.636H786.388V627.13H792.778V632.404H794.632V627.13H801.13V625.636ZM811.543 620.362H814.981V618.868H811.543V616.456H809.689V618.868H806.197V620.362H809.689V621.298C809.689 623.962 808.177 626.698 805.693 627.886L806.719 629.308C808.573 628.444 809.923 626.662 810.643 624.556C811.309 626.518 812.605 628.174 814.351 629.02L815.377 627.598C812.965 626.428 811.543 623.782 811.543 621.298V620.362ZM821.047 622.648H818.509V616.114H816.655V632.386H818.509V624.178H821.047V622.648ZM831.486 623.782C829.002 622.99 827.652 621.1 827.652 619.084V618.778H831.054V617.284H822.324V618.778H825.78V619.102C825.78 621.316 824.358 623.404 821.802 624.286L822.738 625.744C824.682 625.078 826.05 623.692 826.77 621.964C827.472 623.476 828.768 624.646 830.586 625.222L831.486 623.782ZM829.398 630.928C827.13 630.928 825.816 630.352 825.816 629.308C825.816 628.246 827.13 627.688 829.398 627.688C831.666 627.688 832.98 628.246 832.98 629.308C832.98 630.352 831.666 630.928 829.398 630.928ZM829.398 626.23C826.05 626.23 823.98 627.364 823.98 629.308C823.98 631.234 826.05 632.386 829.398 632.386C832.746 632.386 834.816 631.234 834.816 629.308C834.816 627.364 832.746 626.23 829.398 626.23ZM834.636 620.092V616.132H832.782V625.852H834.636V621.622H836.94V620.092H834.636Z" fill="white"/>
<path d="M996.015 486.446H994.143V489.128C994.143 492.17 992.559 495.302 990.021 496.544L991.191 498.02C993.045 497.066 994.377 495.176 995.097 492.872C995.799 495.05 997.113 496.832 998.949 497.75L1000.05 496.256C997.563 495.104 996.015 492.152 996.015 489.128V486.446ZM1001.76 485.096V490.442H998.283V491.954H1001.76V501.404H1003.63V485.096H1001.76ZM1007.07 486.842V488.354H1012.86C1012.54 492.098 1010.52 494.96 1006.26 497.012L1007.25 498.488C1012.83 495.788 1014.77 491.684 1014.77 486.842H1007.07ZM1017.7 485.132V501.386H1019.56V485.132H1017.7Z" fill="white"/>
<defs>
<clipPath id="clip0">
<rect width="52" height="48" fill="white" transform="translate(670 5)"/>
</clipPath>
</defs>
</svg>
