<svg width="141" height="107" viewBox="0 0 141 107" fill="none" xmlns="http://www.w3.org/2000/svg">
<g opacity="0.5" clip-path="url(#clip0_13_40)">
<path d="M60.9546 0.871338C65.2376 0.875019 68.7075 4.32799 68.7075 8.5945C68.7075 12.861 65.2376 16.314 60.9546 16.3177C56.6717 16.3177 53.2017 12.861 53.2017 8.5945C53.2017 4.32799 56.6717 0.875019 60.9546 0.871338ZM60.9546 3.44818C58.1018 3.45186 55.7959 5.75261 55.7885 8.5945C55.7959 11.4364 58.1018 13.7335 60.9546 13.7408C63.8074 13.7371 66.1134 11.4364 66.1208 8.5945C66.1134 5.75261 63.8074 3.45554 60.9546 3.44818Z" fill="white"/>
<path d="M2.46993 105.506L2.46993 104.592L3.17816 105.175L2.46993 104.592L2.46993 105.506L0.520996 105.506L15.5092 87.3984L30.5 105.506L2.46993 105.506ZM26.6047 103.677L15.5092 90.2727L4.41362 103.677L26.6047 103.677Z" fill="white"/>
<path d="M72.775 27.3631C72.4901 27.5648 72.2078 27.7717 71.9282 27.9786C71.9415 27.9786 71.9548 27.9839 71.9681 27.9839C72.3569 27.9839 72.6792 27.7186 72.775 27.3631Z" fill="white" fill-opacity="0.4"/>
<path d="M89.1341 21.4047C89.5948 21.4047 89.9703 21.0306 89.9703 20.5717C89.9703 20.3674 89.893 20.1817 89.7705 20.0385C89.2885 20.134 88.8118 20.2348 88.3352 20.3435C88.3139 20.4178 88.3005 20.4921 88.3005 20.5717C88.3005 21.0333 88.6734 21.4047 89.1341 21.4047Z" fill="white" fill-opacity="0.4"/>
<path d="M111.712 21.4049C111.829 21.4049 111.941 21.381 112.039 21.3385C111.696 21.2271 111.352 21.121 111.009 21.0202C111.158 21.251 111.416 21.4049 111.712 21.4049Z" fill="white" fill-opacity="0.4"/>
<path d="M105.187 20.5745C105.187 21.0334 105.56 21.4075 106.023 21.4075C106.484 21.4075 106.86 21.0334 106.86 20.5745C106.86 20.3251 106.748 20.1049 106.572 19.9511C106.29 19.898 106.005 19.8476 105.72 19.8025C105.406 19.9219 105.187 20.2217 105.187 20.5745Z" fill="white" fill-opacity="0.4"/>
<path d="M66.2798 34.5629C66.7405 34.5629 67.116 34.1915 67.116 33.7325C67.116 33.3054 66.7937 32.9579 66.3783 32.9102C66.0667 33.2365 65.7631 33.5681 65.4649 33.9023C65.5394 34.279 65.875 34.5629 66.2798 34.5629Z" fill="white" fill-opacity="0.4"/>
<path d="M61.4227 40.309C61.4227 40.041 61.2949 39.8049 61.0978 39.6537C60.8022 40.118 60.5173 40.5875 60.2377 41.0624C60.3442 41.1128 60.4614 41.142 60.5865 41.142C61.0499 41.142 61.4227 40.7679 61.4227 40.309Z" fill="white" fill-opacity="0.4"/>
<path d="M55.7341 53.4643C55.7341 53.2309 55.6356 53.0213 55.4811 52.8701C55.3719 53.3264 55.2654 53.7853 55.1696 54.2469C55.4971 54.1355 55.7341 53.8304 55.7341 53.4643Z" fill="white" fill-opacity="0.4"/>
<path d="M139.474 79.3111C139.41 79.404 139.365 79.5127 139.343 79.6295C139.389 79.5233 139.434 79.4172 139.474 79.3111Z" fill="white" fill-opacity="0.4"/>
<path d="M55.7341 60.0434C55.7341 59.5845 55.3613 59.2104 54.8979 59.2104C54.7222 59.2104 54.5597 59.2635 54.4266 59.3563C54.3893 59.7861 54.3573 60.2185 54.3333 60.6509C54.4825 60.7889 54.6795 60.8737 54.8979 60.8737C55.3586 60.8764 55.7341 60.5023 55.7341 60.0434Z" fill="white" fill-opacity="0.4"/>
<path d="M110.891 105.354C111.363 105.216 111.831 105.07 112.297 104.916C112.146 104.768 111.941 104.675 111.712 104.675C111.304 104.675 110.963 104.967 110.891 105.354Z" fill="white" fill-opacity="0.4"/>
<path d="M123.093 98.096C122.633 98.096 122.257 98.4674 122.257 98.929C122.257 99.3269 122.539 99.6611 122.915 99.7407C123.25 99.5152 123.583 99.2897 123.914 99.0563C123.919 99.0139 123.927 98.9714 123.927 98.929C123.927 98.47 123.554 98.096 123.093 98.096Z" fill="white" fill-opacity="0.4"/>
<path d="M139.679 47.5618C139.57 47.278 139.461 46.9968 139.346 46.7156C139.336 46.7713 139.328 46.827 139.328 46.8854C139.33 47.1666 139.469 47.4106 139.679 47.5618Z" fill="white" fill-opacity="0.4"/>
<path d="M122.258 27.1508C122.258 27.6097 122.633 27.9811 123.094 27.9811C123.512 27.9811 123.853 27.6761 123.917 27.2781C123.507 26.989 123.094 26.7078 122.673 26.4345C122.425 26.5804 122.258 26.8457 122.258 27.1508Z" fill="white" fill-opacity="0.4"/>
<path d="M84.1865 60.0434C84.1865 59.5845 83.8136 59.2104 83.3529 59.2104C82.8922 59.2104 82.5167 59.5818 82.5167 60.0434C82.5167 60.5023 82.8896 60.8737 83.3529 60.8737C83.811 60.8764 84.1865 60.5023 84.1865 60.0434Z" fill="white" fill-opacity="0.4"/>
<path d="M106.857 73.2016C106.857 72.7426 106.484 72.3686 106.021 72.3686C105.56 72.3686 105.184 72.7426 105.184 73.2016C105.184 73.6605 105.557 74.0319 106.021 74.0319C106.481 74.0319 106.857 73.6605 106.857 73.2016Z" fill="white" fill-opacity="0.4"/>
<path d="M101.166 73.2016C101.166 72.7426 100.793 72.3686 100.33 72.3686C99.8689 72.3686 99.4934 72.7426 99.4934 73.2016C99.4934 73.6605 99.8662 74.0319 100.33 74.0319C100.793 74.0319 101.166 73.6605 101.166 73.2016Z" fill="white" fill-opacity="0.4"/>
<path d="M118.236 73.2016C118.236 72.7426 117.863 72.3686 117.4 72.3686C116.939 72.3686 116.564 72.7426 116.564 73.2016C116.564 73.6605 116.939 74.0319 117.4 74.0319C117.863 74.0319 118.236 73.6605 118.236 73.2016Z" fill="white" fill-opacity="0.4"/>
<path d="M123.927 73.2016C123.927 72.7426 123.554 72.3686 123.091 72.3686C122.63 72.3686 122.254 72.7426 122.254 73.2016C122.254 73.6605 122.63 74.0319 123.091 74.0319C123.554 74.0319 123.927 73.6605 123.927 73.2016Z" fill="white" fill-opacity="0.4"/>
<path d="M67.1133 73.2016C67.1133 72.7426 66.7405 72.3686 66.2771 72.3686C65.8164 72.3686 65.4409 72.7426 65.4409 73.2016C65.4409 73.6605 65.8137 74.0319 66.2771 74.0319C66.7405 74.0319 67.1133 73.6605 67.1133 73.2016Z" fill="white" fill-opacity="0.4"/>
<path d="M95.475 73.2016C95.475 72.7426 95.1022 72.3686 94.6388 72.3686C94.1781 72.3686 93.8026 72.7426 93.8026 73.2016C93.8026 73.6605 94.1755 74.0319 94.6388 74.0319C95.1022 74.0319 95.475 73.6605 95.475 73.2016Z" fill="white" fill-opacity="0.4"/>
<path d="M78.4952 73.2016C78.4952 72.7426 78.1197 72.3686 77.659 72.3686C77.1983 72.3686 76.8228 72.7426 76.8228 73.2016C76.8228 73.6605 77.1956 74.0319 77.659 74.0319C78.1197 74.0319 78.4952 73.6605 78.4952 73.2016Z" fill="white" fill-opacity="0.4"/>
<path d="M89.9703 73.2016C89.9703 72.7426 89.5948 72.3686 89.1341 72.3686C88.6734 72.3686 88.2979 72.7426 88.2979 73.2016C88.2979 73.6605 88.6707 74.0319 89.1341 74.0319C89.5948 74.0319 89.9703 73.6605 89.9703 73.2016Z" fill="white" fill-opacity="0.4"/>
<path d="M72.8041 73.2016C72.8041 72.7426 72.4312 72.3686 71.9679 72.3686C71.5072 72.3686 71.1317 72.7426 71.1317 73.2016C71.1317 73.6605 71.5072 74.0319 71.9679 74.0319C72.4312 74.0319 72.8041 73.6605 72.8041 73.2016Z" fill="white" fill-opacity="0.4"/>
<path d="M84.1865 73.2016C84.1865 72.7426 83.8136 72.3686 83.3529 72.3686C82.8922 72.3686 82.5167 72.7426 82.5167 73.2016C82.5167 73.6605 82.8896 74.0319 83.3529 74.0319C83.811 74.0319 84.1865 73.6605 84.1865 73.2016Z" fill="white" fill-opacity="0.4"/>
<path d="M112.548 73.2016C112.548 72.7426 112.175 72.3686 111.711 72.3686C111.251 72.3686 110.875 72.7426 110.875 73.2016C110.875 73.6605 111.248 74.0319 111.711 74.0319C112.172 74.0319 112.548 73.6605 112.548 73.2016Z" fill="white" fill-opacity="0.4"/>
<path d="M78.4952 79.778C78.4952 79.319 78.1197 78.945 77.659 78.945C77.1983 78.945 76.8228 79.3164 76.8228 79.778C76.8228 80.2369 77.1956 80.611 77.659 80.611C78.1197 80.611 78.4952 80.2369 78.4952 79.778Z" fill="white" fill-opacity="0.4"/>
<path d="M84.1865 79.778C84.1865 79.319 83.8136 78.945 83.3529 78.945C82.8922 78.945 82.5167 79.3164 82.5167 79.778C82.5167 80.2369 82.8896 80.611 83.3529 80.611C83.811 80.611 84.1865 80.2369 84.1865 79.778Z" fill="white" fill-opacity="0.4"/>
<path d="M89.9703 79.778C89.9703 79.319 89.5948 78.945 89.1341 78.945C88.6734 78.945 88.2979 79.3164 88.2979 79.778C88.2979 80.2369 88.6707 80.611 89.1341 80.611C89.5948 80.611 89.9703 80.2369 89.9703 79.778Z" fill="white" fill-opacity="0.4"/>
<path d="M72.8041 79.778C72.8041 79.319 72.4312 78.945 71.9679 78.945C71.5072 78.945 71.1317 79.3164 71.1317 79.778C71.1317 80.2369 71.5072 80.611 71.9679 80.611C72.4312 80.611 72.8041 80.2369 72.8041 79.778Z" fill="white" fill-opacity="0.4"/>
<path d="M141 73.2016C141 72.7426 140.627 72.3686 140.164 72.3686C139.703 72.3686 139.33 72.7426 139.33 73.2016C139.33 73.6605 139.703 74.0319 140.164 74.0319C140.625 74.0319 141 73.6605 141 73.2016Z" fill="white" fill-opacity="0.4"/>
<path d="M135.309 73.2016C135.309 72.7426 134.936 72.3686 134.475 72.3686C134.014 72.3686 133.639 72.7426 133.639 73.2016C133.639 73.6605 134.012 74.0319 134.475 74.0319C134.936 74.0319 135.309 73.6605 135.309 73.2016Z" fill="white" fill-opacity="0.4"/>
<path d="M129.617 73.2016C129.617 72.7426 129.245 72.3686 128.781 72.3686C128.321 72.3686 127.945 72.7426 127.945 73.2016C127.945 73.6605 128.318 74.0319 128.781 74.0319C129.245 74.0319 129.617 73.6605 129.617 73.2016Z" fill="white" fill-opacity="0.4"/>
<path d="M67.1133 79.778C67.1133 79.319 66.7405 78.945 66.2771 78.945C65.8164 78.945 65.4409 79.3164 65.4409 79.778C65.4409 80.2369 65.8137 80.611 66.2771 80.611C66.7405 80.611 67.1133 80.2369 67.1133 79.778Z" fill="white" fill-opacity="0.4"/>
<path d="M61.4227 79.778C61.4227 79.319 61.0499 78.945 60.5865 78.945C60.1258 78.945 59.753 79.3164 59.753 79.778C59.753 80.2369 60.1258 80.611 60.5865 80.611C61.0499 80.611 61.4227 80.2369 61.4227 79.778Z" fill="white" fill-opacity="0.4"/>
<path d="M89.9703 66.6225C89.9703 66.1635 89.5948 65.7895 89.1341 65.7895C88.6734 65.7895 88.2979 66.1609 88.2979 66.6225C88.2979 67.0841 88.6707 67.4555 89.1341 67.4555C89.5948 67.4555 89.9703 67.0814 89.9703 66.6225Z" fill="white" fill-opacity="0.4"/>
<path d="M78.4952 66.6225C78.4952 66.1635 78.1197 65.7895 77.659 65.7895C77.1983 65.7895 76.8228 66.1609 76.8228 66.6225C76.8228 67.0841 77.1956 67.4555 77.659 67.4555C78.1197 67.4555 78.4952 67.0814 78.4952 66.6225Z" fill="white" fill-opacity="0.4"/>
<path d="M72.8041 66.6225C72.8041 66.1635 72.4312 65.7895 71.9679 65.7895C71.5072 65.7895 71.1317 66.1609 71.1317 66.6225C71.1317 67.0841 71.5072 67.4555 71.9679 67.4555C72.4312 67.4555 72.8041 67.0814 72.8041 66.6225Z" fill="white" fill-opacity="0.4"/>
<path d="M67.1133 66.6225C67.1133 66.1635 66.7405 65.7895 66.2771 65.7895C65.8164 65.7895 65.4409 66.1609 65.4409 66.6225C65.4409 67.0841 65.8137 67.4555 66.2771 67.4555C66.7405 67.4555 67.1133 67.0814 67.1133 66.6225Z" fill="white" fill-opacity="0.4"/>
<path d="M84.1865 66.6225C84.1865 66.1635 83.8136 65.7895 83.3529 65.7895C82.8922 65.7895 82.5167 66.1609 82.5167 66.6225C82.5167 67.0841 82.8896 67.4555 83.3529 67.4555C83.811 67.4555 84.1865 67.0814 84.1865 66.6225Z" fill="white" fill-opacity="0.4"/>
<path d="M129.617 60.0434C129.617 59.5845 129.245 59.2104 128.781 59.2104C128.321 59.2104 127.945 59.5818 127.945 60.0434C127.945 60.5023 128.318 60.8737 128.781 60.8737C129.245 60.8764 129.617 60.5023 129.617 60.0434Z" fill="white" fill-opacity="0.4"/>
<path d="M95.475 79.778C95.475 79.319 95.1022 78.945 94.6388 78.945C94.1781 78.945 93.8026 79.3164 93.8026 79.778C93.8026 80.2369 94.1755 80.611 94.6388 80.611C95.1022 80.611 95.475 80.2369 95.475 79.778Z" fill="white" fill-opacity="0.4"/>
<path d="M135.309 60.0434C135.309 59.5845 134.936 59.2104 134.475 59.2104C134.014 59.2104 133.639 59.5818 133.639 60.0434C133.639 60.5023 134.012 60.8737 134.475 60.8737C134.936 60.8764 135.309 60.5023 135.309 60.0434Z" fill="white" fill-opacity="0.4"/>
<path d="M61.4227 66.6225C61.4227 66.1635 61.0499 65.7895 60.5865 65.7895C60.1258 65.7895 59.753 66.1609 59.753 66.6225C59.753 67.0841 60.1258 67.4555 60.5865 67.4555C61.0499 67.4555 61.4227 67.0814 61.4227 66.6225Z" fill="white" fill-opacity="0.4"/>
<path d="M141 60.0434C141 59.5845 140.627 59.2104 140.164 59.2104C139.703 59.2104 139.33 59.5818 139.33 60.0434C139.33 60.5023 139.703 60.8737 140.164 60.8737C140.625 60.8764 141 60.5023 141 60.0434Z" fill="white" fill-opacity="0.4"/>
<path d="M95.475 66.6225C95.475 66.1635 95.1022 65.7895 94.6388 65.7895C94.1781 65.7895 93.8026 66.1609 93.8026 66.6225C93.8026 67.0841 94.1755 67.4555 94.6388 67.4555C95.1022 67.4555 95.475 67.0814 95.475 66.6225Z" fill="white" fill-opacity="0.4"/>
<path d="M123.927 60.0434C123.927 59.5845 123.554 59.2104 123.091 59.2104C122.63 59.2104 122.254 59.5818 122.254 60.0434C122.254 60.5023 122.63 60.8737 123.091 60.8737C123.554 60.8764 123.927 60.5023 123.927 60.0434Z" fill="white" fill-opacity="0.4"/>
<path d="M135.309 66.6225C135.309 66.1635 134.936 65.7895 134.475 65.7895C134.014 65.7895 133.639 66.1609 133.639 66.6225C133.639 67.0841 134.012 67.4555 134.475 67.4555C134.936 67.4555 135.309 67.0814 135.309 66.6225Z" fill="white" fill-opacity="0.4"/>
<path d="M141 66.6225C141 66.1635 140.627 65.7895 140.164 65.7895C139.703 65.7895 139.33 66.1609 139.33 66.6225C139.33 67.0841 139.703 67.4555 140.164 67.4555C140.625 67.4555 141 67.0814 141 66.6225Z" fill="white" fill-opacity="0.4"/>
<path d="M123.927 66.6225C123.927 66.1635 123.554 65.7895 123.091 65.7895C122.63 65.7895 122.254 66.1609 122.254 66.6225C122.254 67.0841 122.63 67.4555 123.091 67.4555C123.554 67.4555 123.927 67.0814 123.927 66.6225Z" fill="white" fill-opacity="0.4"/>
<path d="M129.617 66.6225C129.617 66.1635 129.245 65.7895 128.781 65.7895C128.321 65.7895 127.945 66.1609 127.945 66.6225C127.945 67.0841 128.318 67.4555 128.781 67.4555C129.245 67.4555 129.617 67.0814 129.617 66.6225Z" fill="white" fill-opacity="0.4"/>
<path d="M106.857 66.6225C106.857 66.1635 106.484 65.7895 106.021 65.7895C105.56 65.7895 105.184 66.1609 105.184 66.6225C105.184 67.0841 105.557 67.4555 106.021 67.4555C106.481 67.4555 106.857 67.0814 106.857 66.6225Z" fill="white" fill-opacity="0.4"/>
<path d="M101.166 66.6225C101.166 66.1635 100.793 65.7895 100.33 65.7895C99.8689 65.7895 99.4934 66.1609 99.4934 66.6225C99.4934 67.0841 99.8662 67.4555 100.33 67.4555C100.793 67.4555 101.166 67.0814 101.166 66.6225Z" fill="white" fill-opacity="0.4"/>
<path d="M118.236 66.6225C118.236 66.1635 117.863 65.7895 117.4 65.7895C116.939 65.7895 116.564 66.1609 116.564 66.6225C116.564 67.0841 116.939 67.4555 117.4 67.4555C117.863 67.4555 118.236 67.0814 118.236 66.6225Z" fill="white" fill-opacity="0.4"/>
<path d="M112.548 66.6225C112.548 66.1635 112.175 65.7895 111.711 65.7895C111.251 65.7895 110.875 66.1609 110.875 66.6225C110.875 67.0841 111.248 67.4555 111.711 67.4555C112.172 67.4555 112.548 67.0814 112.548 66.6225Z" fill="white" fill-opacity="0.4"/>
<path d="M61.4227 73.2016C61.4227 72.7426 61.0499 72.3686 60.5865 72.3686C60.1258 72.3686 59.753 72.7426 59.753 73.2016C59.753 73.6605 60.1258 74.0319 60.5865 74.0319C61.0499 74.0319 61.4227 73.6605 61.4227 73.2016Z" fill="white" fill-opacity="0.4"/>
<path d="M106.857 92.3499C106.857 91.8909 106.484 91.5195 106.021 91.5195C105.56 91.5195 105.184 91.8909 105.184 92.3499C105.184 92.8088 105.557 93.1829 106.021 93.1829C106.481 93.1829 106.857 92.8088 106.857 92.3499Z" fill="white" fill-opacity="0.4"/>
<path d="M101.166 92.3499C101.166 91.8909 100.793 91.5195 100.33 91.5195C99.8689 91.5195 99.4934 91.8909 99.4934 92.3499C99.4934 92.8088 99.8662 93.1829 100.33 93.1829C100.793 93.1829 101.166 92.8088 101.166 92.3499Z" fill="white" fill-opacity="0.4"/>
<path d="M112.548 92.3499C112.548 91.8909 112.175 91.5195 111.711 91.5195C111.251 91.5195 110.875 91.8909 110.875 92.3499C110.875 92.8088 111.248 93.1829 111.711 93.1829C112.172 93.1829 112.548 92.8088 112.548 92.3499Z" fill="white" fill-opacity="0.4"/>
<path d="M118.236 92.3499C118.236 91.8909 117.863 91.5195 117.4 91.5195C116.939 91.5195 116.564 91.8909 116.564 92.3499C116.564 92.8088 116.939 93.1829 117.4 93.1829C117.863 93.1829 118.236 92.8088 118.236 92.3499Z" fill="white" fill-opacity="0.4"/>
<path d="M129.617 92.3499C129.617 91.8909 129.245 91.5195 128.781 91.5195C128.321 91.5195 127.945 91.8909 127.945 92.3499C127.945 92.8088 128.318 93.1829 128.781 93.1829C129.245 93.1829 129.617 92.8088 129.617 92.3499Z" fill="white" fill-opacity="0.4"/>
<path d="M123.927 92.3499C123.927 91.8909 123.554 91.5195 123.091 91.5195C122.63 91.5195 122.254 91.8909 122.254 92.3499C122.254 92.8088 122.63 93.1829 123.091 93.1829C123.554 93.1829 123.927 92.8088 123.927 92.3499Z" fill="white" fill-opacity="0.4"/>
<path d="M95.475 92.3499C95.475 91.8909 95.1022 91.5195 94.6388 91.5195C94.1781 91.5195 93.8026 91.8909 93.8026 92.3499C93.8026 92.8088 94.1755 93.1829 94.6388 93.1829C95.1022 93.1829 95.475 92.8088 95.475 92.3499Z" fill="white" fill-opacity="0.4"/>
<path d="M72.8041 92.3499C72.8041 91.8909 72.4312 91.5195 71.9679 91.5195C71.5072 91.5195 71.1317 91.8909 71.1317 92.3499C71.1317 92.8088 71.5072 93.1829 71.9679 93.1829C72.4312 93.1829 72.8041 92.8088 72.8041 92.3499Z" fill="white" fill-opacity="0.4"/>
<path d="M78.4952 92.3499C78.4952 91.8909 78.1197 91.5195 77.659 91.5195C77.1983 91.5195 76.8228 91.8909 76.8228 92.3499C76.8228 92.8088 77.1956 93.1829 77.659 93.1829C78.1197 93.1829 78.4952 92.8088 78.4952 92.3499Z" fill="white" fill-opacity="0.4"/>
<path d="M89.9703 92.3499C89.9703 91.8909 89.5948 91.5195 89.1341 91.5195C88.6734 91.5195 88.2979 91.8909 88.2979 92.3499C88.2979 92.8088 88.6707 93.1829 89.1341 93.1829C89.5948 93.1829 89.9703 92.8088 89.9703 92.3499Z" fill="white" fill-opacity="0.4"/>
<path d="M84.1865 92.3499C84.1865 91.8909 83.8136 91.5195 83.3529 91.5195C82.8922 91.5195 82.5167 91.8909 82.5167 92.3499C82.5167 92.8088 82.8895 93.1829 83.3529 93.1829C83.811 93.1829 84.1865 92.8088 84.1865 92.3499Z" fill="white" fill-opacity="0.4"/>
<path d="M112.548 98.929C112.548 98.47 112.175 98.096 111.711 98.096C111.251 98.096 110.875 98.4674 110.875 98.929C110.875 99.3879 111.248 99.762 111.711 99.762C112.172 99.762 112.548 99.3879 112.548 98.929Z" fill="white" fill-opacity="0.4"/>
<path d="M118.236 98.929C118.236 98.47 117.863 98.096 117.4 98.096C116.939 98.096 116.564 98.4674 116.564 98.929C116.564 99.3879 116.939 99.762 117.4 99.762C117.863 99.762 118.236 99.3879 118.236 98.929Z" fill="white" fill-opacity="0.4"/>
<path d="M106.857 98.929C106.857 98.47 106.484 98.096 106.021 98.096C105.56 98.096 105.184 98.4674 105.184 98.929C105.184 99.3879 105.557 99.762 106.021 99.762C106.481 99.762 106.857 99.3879 106.857 98.929Z" fill="white" fill-opacity="0.4"/>
<path d="M89.9703 105.508C89.9703 105.049 89.5948 104.675 89.1341 104.675C88.6734 104.675 88.2979 105.046 88.2979 105.508C88.2979 105.707 88.3698 105.885 88.487 106.028C88.8252 106.105 89.1634 106.179 89.5069 106.248C89.7785 106.113 89.9703 105.834 89.9703 105.508Z" fill="white" fill-opacity="0.4"/>
<path d="M89.9703 98.929C89.9703 98.47 89.5948 98.096 89.1341 98.096C88.6734 98.096 88.2979 98.4674 88.2979 98.929C88.2979 99.3879 88.6707 99.762 89.1341 99.762C89.5948 99.762 89.9703 99.3879 89.9703 98.929Z" fill="white" fill-opacity="0.4"/>
<path d="M101.166 98.929C101.166 98.47 100.793 98.096 100.33 98.096C99.8689 98.096 99.4934 98.4674 99.4934 98.929C99.4934 99.3879 99.8662 99.762 100.33 99.762C100.793 99.762 101.166 99.3879 101.166 98.929Z" fill="white" fill-opacity="0.4"/>
<path d="M78.4952 98.929C78.4952 98.47 78.1197 98.096 77.659 98.096C77.1983 98.096 76.8228 98.4674 76.8228 98.929C76.8228 99.3879 77.1956 99.762 77.659 99.762C78.1197 99.762 78.4952 99.3879 78.4952 98.929Z" fill="white" fill-opacity="0.4"/>
<path d="M84.1865 98.929C84.1865 98.47 83.8136 98.096 83.3529 98.096C82.8922 98.096 82.5167 98.4674 82.5167 98.929C82.5167 99.3879 82.8895 99.762 83.3529 99.762C83.811 99.762 84.1865 99.3879 84.1865 98.929Z" fill="white" fill-opacity="0.4"/>
<path d="M55.7341 66.6225C55.7341 66.1635 55.3613 65.7895 54.8979 65.7895C54.6875 65.7895 54.4985 65.8691 54.352 65.9964C54.3813 66.4421 54.4159 66.8851 54.4559 67.3255C54.5837 67.4051 54.7328 67.4528 54.8953 67.4528C55.3586 67.4555 55.7341 67.0814 55.7341 66.6225Z" fill="white" fill-opacity="0.4"/>
<path d="M112.548 85.7707C112.548 85.3117 112.175 84.9377 111.711 84.9377C111.251 84.9377 110.875 85.3117 110.875 85.7707C110.875 86.2296 111.248 86.6037 111.711 86.6037C112.172 86.6037 112.548 86.2323 112.548 85.7707Z" fill="white" fill-opacity="0.4"/>
<path d="M67.1133 85.7707C67.1133 85.3117 66.7405 84.9377 66.2771 84.9377C65.8164 84.9377 65.4409 85.3117 65.4409 85.7707C65.4409 86.2296 65.8137 86.6037 66.2771 86.6037C66.7405 86.6037 67.1133 86.2323 67.1133 85.7707Z" fill="white" fill-opacity="0.4"/>
<path d="M135.309 79.778C135.309 79.319 134.936 78.945 134.475 78.945C134.014 78.945 133.639 79.3164 133.639 79.778C133.639 80.2369 134.012 80.611 134.475 80.611C134.936 80.611 135.309 80.2369 135.309 79.778Z" fill="white" fill-opacity="0.4"/>
<path d="M78.4952 85.7707C78.4952 85.3117 78.1197 84.9377 77.659 84.9377C77.1983 84.9377 76.8228 85.3117 76.8228 85.7707C76.8228 86.2296 77.1956 86.6037 77.659 86.6037C78.1197 86.6037 78.4952 86.2323 78.4952 85.7707Z" fill="white" fill-opacity="0.4"/>
<path d="M72.8041 85.7707C72.8041 85.3117 72.4312 84.9377 71.9679 84.9377C71.5072 84.9377 71.1317 85.3117 71.1317 85.7707C71.1317 86.2296 71.5072 86.6037 71.9679 86.6037C72.4312 86.6037 72.8041 86.2323 72.8041 85.7707Z" fill="white" fill-opacity="0.4"/>
<path d="M129.617 79.778C129.617 79.319 129.245 78.945 128.781 78.945C128.321 78.945 127.945 79.3164 127.945 79.778C127.945 80.2369 128.318 80.611 128.781 80.611C129.245 80.611 129.617 80.2369 129.617 79.778Z" fill="white" fill-opacity="0.4"/>
<path d="M112.548 79.778C112.548 79.319 112.175 78.945 111.711 78.945C111.251 78.945 110.875 79.3164 110.875 79.778C110.875 80.2369 111.248 80.611 111.711 80.611C112.172 80.611 112.548 80.2369 112.548 79.778Z" fill="white" fill-opacity="0.4"/>
<path d="M106.857 79.778C106.857 79.319 106.484 78.945 106.021 78.945C105.56 78.945 105.184 79.3164 105.184 79.778C105.184 80.2369 105.557 80.611 106.021 80.611C106.481 80.611 106.857 80.2369 106.857 79.778Z" fill="white" fill-opacity="0.4"/>
<path d="M118.236 79.778C118.236 79.319 117.863 78.945 117.4 78.945C116.939 78.945 116.564 79.3164 116.564 79.778C116.564 80.2369 116.939 80.611 117.4 80.611C117.863 80.611 118.236 80.2369 118.236 79.778Z" fill="white" fill-opacity="0.4"/>
<path d="M135.309 85.7707C135.309 85.3117 134.936 84.9377 134.475 84.9377C134.014 84.9377 133.639 85.3117 133.639 85.7707C133.639 86.2296 134.012 86.6037 134.475 86.6037C134.936 86.6037 135.309 86.2323 135.309 85.7707Z" fill="white" fill-opacity="0.4"/>
<path d="M123.927 79.778C123.927 79.319 123.554 78.945 123.091 78.945C122.63 78.945 122.254 79.3164 122.254 79.778C122.254 80.2369 122.63 80.611 123.091 80.611C123.554 80.611 123.927 80.2369 123.927 79.778Z" fill="white" fill-opacity="0.4"/>
<path d="M118.236 85.7707C118.236 85.3117 117.863 84.9377 117.4 84.9377C116.939 84.9377 116.564 85.3117 116.564 85.7707C116.564 86.2296 116.939 86.6037 117.4 86.6037C117.863 86.6037 118.236 86.2323 118.236 85.7707Z" fill="white" fill-opacity="0.4"/>
<path d="M123.927 85.7707C123.927 85.3117 123.554 84.9377 123.091 84.9377C122.63 84.9377 122.254 85.3117 122.254 85.7707C122.254 86.2296 122.63 86.6037 123.091 86.6037C123.554 86.6037 123.927 86.2323 123.927 85.7707Z" fill="white" fill-opacity="0.4"/>
<path d="M129.617 85.7707C129.617 85.3117 129.245 84.9377 128.781 84.9377C128.321 84.9377 127.945 85.3117 127.945 85.7707C127.945 86.2296 128.318 86.6037 128.781 86.6037C129.245 86.6037 129.617 86.2323 129.617 85.7707Z" fill="white" fill-opacity="0.4"/>
<path d="M101.166 79.778C101.166 79.319 100.793 78.945 100.33 78.945C99.8689 78.945 99.4934 79.3164 99.4934 79.778C99.4934 80.2369 99.8662 80.611 100.33 80.611C100.793 80.611 101.166 80.2369 101.166 79.778Z" fill="white" fill-opacity="0.4"/>
<path d="M84.1865 85.7707C84.1865 85.3117 83.8136 84.9377 83.3529 84.9377C82.8922 84.9377 82.5167 85.3117 82.5167 85.7707C82.5167 86.2296 82.8896 86.6037 83.3529 86.6037C83.811 86.6037 84.1865 86.2323 84.1865 85.7707Z" fill="white" fill-opacity="0.4"/>
<path d="M106.857 85.7707C106.857 85.3117 106.484 84.9377 106.021 84.9377C105.56 84.9377 105.184 85.3117 105.184 85.7707C105.184 86.2296 105.557 86.6037 106.021 86.6037C106.481 86.6037 106.857 86.2323 106.857 85.7707Z" fill="white" fill-opacity="0.4"/>
<path d="M95.475 85.7707C95.475 85.3117 95.1022 84.9377 94.6388 84.9377C94.1781 84.9377 93.8026 85.3117 93.8026 85.7707C93.8026 86.2296 94.1755 86.6037 94.6388 86.6037C95.1022 86.6037 95.475 86.2323 95.475 85.7707Z" fill="white" fill-opacity="0.4"/>
<path d="M89.9703 85.7707C89.9703 85.3117 89.5948 84.9377 89.1341 84.9377C88.6734 84.9377 88.2979 85.3117 88.2979 85.7707C88.2979 86.2296 88.6707 86.6037 89.1341 86.6037C89.5948 86.6037 89.9703 86.2323 89.9703 85.7707Z" fill="white" fill-opacity="0.4"/>
<path d="M101.166 85.7707C101.166 85.3117 100.793 84.9377 100.33 84.9377C99.8689 84.9377 99.4934 85.3117 99.4934 85.7707C99.4934 86.2296 99.8662 86.6037 100.33 86.6037C100.793 86.6037 101.166 86.2323 101.166 85.7707Z" fill="white" fill-opacity="0.4"/>
<path d="M95.475 98.929C95.475 98.47 95.1022 98.096 94.6388 98.096C94.1781 98.096 93.8026 98.4674 93.8026 98.929C93.8026 99.3879 94.1755 99.762 94.6388 99.762C95.1022 99.762 95.475 99.3879 95.475 98.929Z" fill="white" fill-opacity="0.4"/>
<path d="M72.8041 40.309C72.8041 39.8501 72.4312 39.476 71.9679 39.476C71.5072 39.476 71.1317 39.8501 71.1317 40.309C71.1317 40.768 71.5072 41.1394 71.9679 41.1394C72.4312 41.142 72.8041 40.768 72.8041 40.309Z" fill="white" fill-opacity="0.4"/>
<path d="M123.927 33.73C123.927 33.271 123.554 32.897 123.091 32.897C122.63 32.897 122.254 33.2684 122.254 33.73C122.254 34.1889 122.63 34.5603 123.091 34.5603C123.554 34.5629 123.927 34.1889 123.927 33.73Z" fill="white" fill-opacity="0.4"/>
<path d="M118.236 33.73C118.236 33.271 117.863 32.897 117.4 32.897C116.939 32.897 116.564 33.2684 116.564 33.73C116.564 34.1889 116.939 34.5603 117.4 34.5603C117.863 34.5629 118.236 34.1889 118.236 33.73Z" fill="white" fill-opacity="0.4"/>
<path d="M67.1133 40.309C67.1133 39.8501 66.7405 39.476 66.2771 39.476C65.8164 39.476 65.4409 39.8501 65.4409 40.309C65.4409 40.768 65.8137 41.1394 66.2771 41.1394C66.7405 41.142 67.1133 40.768 67.1133 40.309Z" fill="white" fill-opacity="0.4"/>
<path d="M129.617 33.73C129.617 33.271 129.245 32.897 128.781 32.897C128.321 32.897 127.945 33.2684 127.945 33.73C127.945 34.1889 128.318 34.5603 128.781 34.5603C129.245 34.5629 129.617 34.1889 129.617 33.73Z" fill="white" fill-opacity="0.4"/>
<path d="M112.548 33.73C112.548 33.271 112.175 32.897 111.711 32.897C111.251 32.897 110.875 33.2684 110.875 33.73C110.875 34.1889 111.248 34.5603 111.711 34.5603C112.172 34.5629 112.548 34.1889 112.548 33.73Z" fill="white" fill-opacity="0.4"/>
<path d="M106.857 33.73C106.857 33.271 106.484 32.897 106.021 32.897C105.56 32.897 105.184 33.2684 105.184 33.73C105.184 34.1889 105.557 34.5603 106.021 34.5603C106.481 34.5629 106.857 34.1889 106.857 33.73Z" fill="white" fill-opacity="0.4"/>
<path d="M89.9703 33.7299C89.9703 33.271 89.5948 32.897 89.1341 32.897C88.6734 32.897 88.2979 33.2684 88.2979 33.7299C88.2979 34.1889 88.6707 34.5603 89.1341 34.5603C89.5948 34.5629 89.9703 34.1889 89.9703 33.7299Z" fill="white" fill-opacity="0.4"/>
<path d="M95.475 33.7299C95.475 33.271 95.1022 32.897 94.6388 32.897C94.1781 32.897 93.8026 33.2684 93.8026 33.7299C93.8026 34.1889 94.1755 34.5603 94.6388 34.5603C95.1022 34.5629 95.475 34.1889 95.475 33.7299Z" fill="white" fill-opacity="0.4"/>
<path d="M101.166 33.73C101.166 33.271 100.793 32.897 100.33 32.897C99.8689 32.897 99.4934 33.2684 99.4934 33.73C99.4934 34.1889 99.8662 34.5603 100.33 34.5603C100.793 34.5629 101.166 34.1889 101.166 33.73Z" fill="white" fill-opacity="0.4"/>
<path d="M84.1865 40.309C84.1865 39.8501 83.8136 39.476 83.3529 39.476C82.8922 39.476 82.5167 39.8501 82.5167 40.309C82.5167 40.768 82.8896 41.1394 83.3529 41.1394C83.811 41.142 84.1865 40.768 84.1865 40.309Z" fill="white" fill-opacity="0.4"/>
<path d="M112.548 40.309C112.548 39.8501 112.175 39.476 111.711 39.476C111.251 39.476 110.875 39.8501 110.875 40.309C110.875 40.768 111.248 41.1394 111.711 41.1394C112.172 41.142 112.548 40.768 112.548 40.309Z" fill="white" fill-opacity="0.4"/>
<path d="M106.857 40.309C106.857 39.8501 106.484 39.476 106.021 39.476C105.56 39.476 105.184 39.8501 105.184 40.309C105.184 40.768 105.557 41.1394 106.021 41.1394C106.481 41.142 106.857 40.768 106.857 40.309Z" fill="white" fill-opacity="0.4"/>
<path d="M78.4952 40.309C78.4952 39.8501 78.1197 39.476 77.659 39.476C77.1983 39.476 76.8228 39.8501 76.8228 40.309C76.8228 40.768 77.1956 41.1394 77.659 41.1394C78.1197 41.142 78.4952 40.768 78.4952 40.309Z" fill="white" fill-opacity="0.4"/>
<path d="M123.927 40.309C123.927 39.8501 123.554 39.476 123.091 39.476C122.63 39.476 122.254 39.8501 122.254 40.309C122.254 40.768 122.63 41.1394 123.091 41.1394C123.554 41.142 123.927 40.768 123.927 40.309Z" fill="white" fill-opacity="0.4"/>
<path d="M118.236 40.309C118.236 39.8501 117.863 39.476 117.4 39.476C116.939 39.476 116.564 39.8501 116.564 40.309C116.564 40.768 116.939 41.1394 117.4 41.1394C117.863 41.142 118.236 40.768 118.236 40.309Z" fill="white" fill-opacity="0.4"/>
<path d="M101.166 40.309C101.166 39.8501 100.793 39.476 100.33 39.476C99.8689 39.476 99.4934 39.8501 99.4934 40.309C99.4934 40.768 99.8662 41.1394 100.33 41.1394C100.793 41.142 101.166 40.768 101.166 40.309Z" fill="white" fill-opacity="0.4"/>
<path d="M89.9703 40.309C89.9703 39.8501 89.5948 39.476 89.1341 39.476C88.6734 39.476 88.2979 39.8501 88.2979 40.309C88.2979 40.768 88.6707 41.1394 89.1341 41.1394C89.5948 41.142 89.9703 40.768 89.9703 40.309Z" fill="white" fill-opacity="0.4"/>
<path d="M84.1865 33.7299C84.1865 33.271 83.8136 32.897 83.3529 32.897C82.8922 32.897 82.5167 33.2684 82.5167 33.7299C82.5167 34.1889 82.8896 34.5603 83.3529 34.5603C83.811 34.5629 84.1865 34.1889 84.1865 33.7299Z" fill="white" fill-opacity="0.4"/>
<path d="M95.475 40.309C95.475 39.8501 95.1022 39.476 94.6388 39.476C94.1781 39.476 93.8026 39.8501 93.8026 40.309C93.8026 40.768 94.1755 41.1394 94.6388 41.1394C95.1022 41.142 95.475 40.768 95.475 40.309Z" fill="white" fill-opacity="0.4"/>
<path d="M118.236 60.0434C118.236 59.5845 117.863 59.2104 117.4 59.2104C116.939 59.2104 116.564 59.5818 116.564 60.0434C116.564 60.5023 116.939 60.8737 117.4 60.8737C117.863 60.8764 118.236 60.5023 118.236 60.0434Z" fill="white" fill-opacity="0.4"/>
<path d="M105.187 105.508C105.187 105.967 105.56 106.338 106.023 106.338C106.484 106.338 106.86 105.964 106.86 105.508C106.86 105.049 106.487 104.675 106.023 104.675C105.56 104.675 105.187 105.046 105.187 105.508Z" fill="white" fill-opacity="0.4"/>
<path d="M78.4952 33.7299C78.4952 33.271 78.1197 32.897 77.659 32.897C77.1983 32.897 76.8228 33.2684 76.8228 33.7299C76.8228 34.1889 77.1956 34.5603 77.659 34.5603C78.1197 34.5629 78.4952 34.1889 78.4952 33.7299Z" fill="white" fill-opacity="0.4"/>
<path d="M99.4959 105.508C99.4959 105.967 99.8687 106.338 100.332 106.338C100.793 106.338 101.168 105.964 101.168 105.508C101.168 105.049 100.795 104.675 100.332 104.675C99.8687 104.675 99.4959 105.046 99.4959 105.508Z" fill="white" fill-opacity="0.4"/>
<path d="M101.166 20.5745C101.166 20.1155 100.793 19.7415 100.33 19.7415C99.8689 19.7415 99.4934 20.1129 99.4934 20.5745C99.4934 21.0334 99.8662 21.4074 100.33 21.4074C100.793 21.4048 101.166 21.0334 101.166 20.5745Z" fill="white" fill-opacity="0.4"/>
<path d="M95.475 20.5745C95.475 20.1155 95.1022 19.7415 94.6388 19.7415C94.1781 19.7415 93.8026 20.1129 93.8026 20.5745C93.8026 21.0334 94.1755 21.4074 94.6388 21.4074C95.1022 21.4048 95.475 21.0334 95.475 20.5745Z" fill="white" fill-opacity="0.4"/>
<path d="M55.2467 72.4481C55.34 72.8752 55.4385 73.2996 55.5423 73.7241C55.6595 73.5808 55.7314 73.4004 55.7314 73.2015C55.7341 72.8672 55.5344 72.5807 55.2467 72.4481Z" fill="white" fill-opacity="0.4"/>
<path d="M61.4227 85.7706C61.4227 85.3117 61.0499 84.9377 60.5865 84.9377C60.4134 84.9377 60.2536 84.9907 60.1205 85.0783C60.3975 85.5584 60.6851 86.0306 60.9807 86.4975C61.2443 86.3596 61.4227 86.089 61.4227 85.7706Z" fill="white" fill-opacity="0.4"/>
<path d="M71.9684 98.096C71.8592 98.096 71.758 98.1172 71.6621 98.1543C72.035 98.4382 72.4131 98.7167 72.7966 98.99C72.7993 98.9688 72.8019 98.9475 72.8019 98.9263C72.8046 98.47 72.4318 98.096 71.9684 98.096Z" fill="white" fill-opacity="0.4"/>
<path d="M67.1133 92.3499C67.1133 91.8909 66.7405 91.5195 66.2771 91.5195C65.8164 91.5195 65.4409 91.8909 65.4409 92.3499C65.4409 92.3764 65.4462 92.4003 65.4489 92.4268C65.6726 92.6762 65.8989 92.9229 66.1279 93.167C66.1759 93.1749 66.2238 93.1829 66.2771 93.1829C66.7405 93.1829 67.1133 92.8088 67.1133 92.3499Z" fill="white" fill-opacity="0.4"/>
<path d="M93.8053 105.508C93.8053 105.967 94.1781 106.338 94.6415 106.338C95.1022 106.338 95.4777 105.964 95.4777 105.508C95.4777 105.049 95.1048 104.675 94.6415 104.675C94.1781 104.675 93.8053 105.046 93.8053 105.508Z" fill="white" fill-opacity="0.4"/>
<path d="M118.236 27.1507C118.236 26.6918 117.863 26.3177 117.4 26.3177C116.939 26.3177 116.564 26.6891 116.564 27.1507C116.564 27.6097 116.939 27.9811 117.4 27.9811C117.863 27.9837 118.236 27.6123 118.236 27.1507Z" fill="white" fill-opacity="0.4"/>
<path d="M112.548 27.1507C112.548 26.6918 112.175 26.3177 111.711 26.3177C111.251 26.3177 110.875 26.6891 110.875 27.1507C110.875 27.6097 111.248 27.9811 111.711 27.9811C112.172 27.9837 112.548 27.6123 112.548 27.1507Z" fill="white" fill-opacity="0.4"/>
<path d="M106.857 27.1507C106.857 26.6918 106.484 26.3177 106.021 26.3177C105.56 26.3177 105.184 26.6891 105.184 27.1507C105.184 27.6097 105.557 27.9811 106.021 27.9811C106.481 27.9837 106.857 27.6123 106.857 27.1507Z" fill="white" fill-opacity="0.4"/>
<path d="M72.8041 33.7299C72.8041 33.271 72.4312 32.897 71.9679 32.897C71.5072 32.897 71.1317 33.2684 71.1317 33.7299C71.1317 34.1889 71.5072 34.5603 71.9679 34.5603C72.4312 34.5629 72.8041 34.1889 72.8041 33.7299Z" fill="white" fill-opacity="0.4"/>
<path d="M89.9703 27.1507C89.9703 26.6918 89.5948 26.3177 89.1341 26.3177C88.6734 26.3177 88.2979 26.6891 88.2979 27.1507C88.2979 27.6097 88.6707 27.9811 89.1341 27.9811C89.5948 27.9837 89.9703 27.6123 89.9703 27.1507Z" fill="white" fill-opacity="0.4"/>
<path d="M129.617 40.309C129.617 39.8501 129.245 39.476 128.781 39.476C128.321 39.476 127.945 39.8501 127.945 40.309C127.945 40.768 128.318 41.1394 128.781 41.1394C129.245 41.142 129.617 40.768 129.617 40.309Z" fill="white" fill-opacity="0.4"/>
<path d="M84.1865 27.1507C84.1865 26.6918 83.8136 26.3177 83.3529 26.3177C82.8922 26.3177 82.5167 26.6891 82.5167 27.1507C82.5167 27.6097 82.8896 27.9811 83.3529 27.9811C83.811 27.9837 84.1865 27.6123 84.1865 27.1507Z" fill="white" fill-opacity="0.4"/>
<path d="M101.166 27.1507C101.166 26.6918 100.793 26.3177 100.33 26.3177C99.8689 26.3177 99.4934 26.6891 99.4934 27.1507C99.4934 27.6097 99.8662 27.9811 100.33 27.9811C100.793 27.9837 101.166 27.6123 101.166 27.1507Z" fill="white" fill-opacity="0.4"/>
<path d="M95.475 27.1507C95.475 26.6918 95.1022 26.3177 94.6388 26.3177C94.1781 26.3177 93.8026 26.6891 93.8026 27.1507C93.8026 27.6097 94.1755 27.9811 94.6388 27.9811C95.1022 27.9837 95.475 27.6123 95.475 27.1507Z" fill="white" fill-opacity="0.4"/>
<path d="M78.4952 27.1507C78.4952 26.6918 78.1197 26.3177 77.659 26.3177C77.1983 26.3177 76.8228 26.6891 76.8228 27.1507C76.8228 27.6097 77.1956 27.9811 77.659 27.9811C78.1197 27.9837 78.4952 27.6123 78.4952 27.1507Z" fill="white" fill-opacity="0.4"/>
<path d="M118.236 53.4645C118.236 53.0056 117.863 52.6315 117.4 52.6315C116.939 52.6315 116.564 53.0029 116.564 53.4645C116.564 53.9235 116.939 54.2949 117.4 54.2949C117.863 54.2975 118.236 53.9261 118.236 53.4645Z" fill="white" fill-opacity="0.4"/>
<path d="M141 53.4645C141 53.0056 140.627 52.6315 140.164 52.6315C139.703 52.6315 139.33 53.0029 139.33 53.4645C139.33 53.9235 139.703 54.2949 140.164 54.2949C140.625 54.2975 141 53.9261 141 53.4645Z" fill="white" fill-opacity="0.4"/>
<path d="M123.927 53.4645C123.927 53.0056 123.554 52.6315 123.091 52.6315C122.63 52.6315 122.254 53.0029 122.254 53.4645C122.254 53.9235 122.63 54.2949 123.091 54.2949C123.554 54.2975 123.927 53.9261 123.927 53.4645Z" fill="white" fill-opacity="0.4"/>
<path d="M135.309 53.4645C135.309 53.0056 134.936 52.6315 134.475 52.6315C134.014 52.6315 133.639 53.0029 133.639 53.4645C133.639 53.9235 134.012 54.2949 134.475 54.2949C134.936 54.2975 135.309 53.9261 135.309 53.4645Z" fill="white" fill-opacity="0.4"/>
<path d="M129.617 53.4645C129.617 53.0056 129.245 52.6315 128.781 52.6315C128.321 52.6315 127.945 53.0029 127.945 53.4645C127.945 53.9235 128.318 54.2949 128.781 54.2949C129.245 54.2975 129.617 53.9261 129.617 53.4645Z" fill="white" fill-opacity="0.4"/>
<path d="M95.475 53.4645C95.475 53.0056 95.1022 52.6315 94.6388 52.6315C94.1781 52.6315 93.8026 53.0029 93.8026 53.4645C93.8026 53.9235 94.1755 54.2949 94.6388 54.2949C95.1022 54.2975 95.475 53.9261 95.475 53.4645Z" fill="white" fill-opacity="0.4"/>
<path d="M112.548 53.4645C112.548 53.0056 112.175 52.6315 111.711 52.6315C111.251 52.6315 110.875 53.0029 110.875 53.4645C110.875 53.9235 111.248 54.2949 111.711 54.2949C112.172 54.2975 112.548 53.9261 112.548 53.4645Z" fill="white" fill-opacity="0.4"/>
<path d="M101.166 53.4645C101.166 53.0056 100.793 52.6315 100.33 52.6315C99.8689 52.6315 99.4934 53.0029 99.4934 53.4645C99.4934 53.9235 99.8662 54.2949 100.33 54.2949C100.793 54.2975 101.166 53.9261 101.166 53.4645Z" fill="white" fill-opacity="0.4"/>
<path d="M106.857 53.4645C106.857 53.0056 106.484 52.6315 106.021 52.6315C105.56 52.6315 105.184 53.0029 105.184 53.4645C105.184 53.9235 105.557 54.2949 106.021 54.2949C106.481 54.2975 106.857 53.9261 106.857 53.4645Z" fill="white" fill-opacity="0.4"/>
<path d="M61.4227 60.0434C61.4227 59.5845 61.0499 59.2104 60.5865 59.2104C60.1258 59.2104 59.753 59.5818 59.753 60.0434C59.753 60.5023 60.1258 60.8737 60.5865 60.8737C61.0499 60.8764 61.4227 60.5023 61.4227 60.0434Z" fill="white" fill-opacity="0.4"/>
<path d="M101.166 60.0434C101.166 59.5845 100.793 59.2104 100.33 59.2104C99.8689 59.2104 99.4934 59.5818 99.4934 60.0434C99.4934 60.5023 99.8662 60.8737 100.33 60.8737C100.793 60.8764 101.166 60.5023 101.166 60.0434Z" fill="white" fill-opacity="0.4"/>
<path d="M106.857 60.0434C106.857 59.5845 106.484 59.2104 106.021 59.2104C105.56 59.2104 105.184 59.5818 105.184 60.0434C105.184 60.5023 105.557 60.8737 106.021 60.8737C106.481 60.8764 106.857 60.5023 106.857 60.0434Z" fill="white" fill-opacity="0.4"/>
<path d="M135.309 40.309C135.309 39.8501 134.936 39.476 134.475 39.476C134.014 39.476 133.639 39.8501 133.639 40.309C133.639 40.768 134.012 41.1394 134.475 41.1394C134.936 41.142 135.309 40.768 135.309 40.309Z" fill="white" fill-opacity="0.4"/>
<path d="M112.548 60.0434C112.548 59.5845 112.175 59.2104 111.711 59.2104C111.251 59.2104 110.875 59.5818 110.875 60.0434C110.875 60.5023 111.248 60.8737 111.711 60.8737C112.172 60.8764 112.548 60.5023 112.548 60.0434Z" fill="white" fill-opacity="0.4"/>
<path d="M78.4952 60.0434C78.4952 59.5845 78.1197 59.2104 77.659 59.2104C77.1983 59.2104 76.8228 59.5818 76.8228 60.0434C76.8228 60.5023 77.1956 60.8737 77.659 60.8737C78.1197 60.8764 78.4952 60.5023 78.4952 60.0434Z" fill="white" fill-opacity="0.4"/>
<path d="M67.1133 60.0434C67.1133 59.5845 66.7405 59.2104 66.2771 59.2104C65.8164 59.2104 65.4409 59.5818 65.4409 60.0434C65.4409 60.5023 65.8137 60.8737 66.2771 60.8737C66.7405 60.8764 67.1133 60.5023 67.1133 60.0434Z" fill="white" fill-opacity="0.4"/>
<path d="M89.9703 60.0434C89.9703 59.5845 89.5948 59.2104 89.1341 59.2104C88.6734 59.2104 88.2979 59.5818 88.2979 60.0434C88.2979 60.5023 88.6707 60.8737 89.1341 60.8737C89.5948 60.8764 89.9703 60.5023 89.9703 60.0434Z" fill="white" fill-opacity="0.4"/>
<path d="M72.8041 60.0434C72.8041 59.5845 72.4312 59.2104 71.9679 59.2104C71.5072 59.2104 71.1317 59.5818 71.1317 60.0434C71.1317 60.5023 71.5072 60.8737 71.9679 60.8737C72.4312 60.8764 72.8041 60.5023 72.8041 60.0434Z" fill="white" fill-opacity="0.4"/>
<path d="M89.9703 53.4645C89.9703 53.0056 89.5948 52.6315 89.1341 52.6315C88.6734 52.6315 88.2979 53.0029 88.2979 53.4645C88.2979 53.9235 88.6707 54.2949 89.1341 54.2949C89.5948 54.2975 89.9703 53.9261 89.9703 53.4645Z" fill="white" fill-opacity="0.4"/>
<path d="M95.475 60.0434C95.475 59.5845 95.1022 59.2104 94.6388 59.2104C94.1781 59.2104 93.8026 59.5818 93.8026 60.0434C93.8026 60.5023 94.1755 60.8737 94.6388 60.8737C95.1022 60.8764 95.475 60.5023 95.475 60.0434Z" fill="white" fill-opacity="0.4"/>
<path d="M84.1865 46.8881C84.1865 46.4292 83.8136 46.0551 83.3529 46.0551C82.8922 46.0551 82.5167 46.4292 82.5167 46.8881C82.5167 47.347 82.8896 47.7211 83.3529 47.7211C83.811 47.7184 84.1865 47.347 84.1865 46.8881Z" fill="white" fill-opacity="0.4"/>
<path d="M95.475 46.8881C95.475 46.4292 95.1022 46.0551 94.6388 46.0551C94.1781 46.0551 93.8026 46.4292 93.8026 46.8881C93.8026 47.347 94.1755 47.7211 94.6388 47.7211C95.1022 47.7184 95.475 47.347 95.475 46.8881Z" fill="white" fill-opacity="0.4"/>
<path d="M89.9703 46.8881C89.9703 46.4292 89.5948 46.0551 89.1341 46.0551C88.6734 46.0551 88.2979 46.4292 88.2979 46.8881C88.2979 47.347 88.6707 47.7211 89.1341 47.7211C89.5948 47.7184 89.9703 47.347 89.9703 46.8881Z" fill="white" fill-opacity="0.4"/>
<path d="M101.166 46.8881C101.166 46.4292 100.793 46.0551 100.33 46.0551C99.8689 46.0551 99.4934 46.4292 99.4934 46.8881C99.4934 47.347 99.8662 47.7211 100.33 47.7211C100.793 47.7184 101.166 47.347 101.166 46.8881Z" fill="white" fill-opacity="0.4"/>
<path d="M78.4952 46.8881C78.4952 46.4292 78.1197 46.0551 77.659 46.0551C77.1983 46.0551 76.8228 46.4292 76.8228 46.8881C76.8228 47.347 77.1956 47.7211 77.659 47.7211C78.1197 47.7184 78.4952 47.347 78.4952 46.8881Z" fill="white" fill-opacity="0.4"/>
<path d="M61.4227 46.8881C61.4227 46.4292 61.0499 46.0551 60.5865 46.0551C60.1258 46.0551 59.753 46.4292 59.753 46.8881C59.753 47.347 60.1258 47.7211 60.5865 47.7211C61.0499 47.7184 61.4227 47.347 61.4227 46.8881Z" fill="white" fill-opacity="0.4"/>
<path d="M106.857 46.8881C106.857 46.4292 106.484 46.0551 106.021 46.0551C105.56 46.0551 105.184 46.4292 105.184 46.8881C105.184 47.347 105.557 47.7211 106.021 47.7211C106.481 47.7184 106.857 47.347 106.857 46.8881Z" fill="white" fill-opacity="0.4"/>
<path d="M84.1865 53.4645C84.1865 53.0056 83.8136 52.6315 83.3529 52.6315C82.8922 52.6315 82.5167 53.0029 82.5167 53.4645C82.5167 53.9235 82.8896 54.2949 83.3529 54.2949C83.811 54.2975 84.1865 53.9261 84.1865 53.4645Z" fill="white" fill-opacity="0.4"/>
<path d="M72.8041 46.8881C72.8041 46.4292 72.4312 46.0551 71.9679 46.0551C71.5072 46.0551 71.1317 46.4292 71.1317 46.8881C71.1317 47.347 71.5072 47.7211 71.9679 47.7211C72.4312 47.7184 72.8041 47.347 72.8041 46.8881Z" fill="white" fill-opacity="0.4"/>
<path d="M67.1133 46.8881C67.1133 46.4292 66.7405 46.0551 66.2771 46.0551C65.8164 46.0551 65.4409 46.4292 65.4409 46.8881C65.4409 47.347 65.8137 47.7211 66.2771 47.7211C66.7405 47.7184 67.1133 47.347 67.1133 46.8881Z" fill="white" fill-opacity="0.4"/>
<path d="M72.8041 53.4645C72.8041 53.0056 72.4312 52.6315 71.9679 52.6315C71.5072 52.6315 71.1317 53.0029 71.1317 53.4645C71.1317 53.9235 71.5072 54.2949 71.9679 54.2949C72.4312 54.2975 72.8041 53.9261 72.8041 53.4645Z" fill="white" fill-opacity="0.4"/>
<path d="M67.1133 53.4645C67.1133 53.0056 66.7405 52.6315 66.2771 52.6315C65.8164 52.6315 65.4409 53.0029 65.4409 53.4645C65.4409 53.9235 65.8137 54.2949 66.2771 54.2949C66.7405 54.2975 67.1133 53.9261 67.1133 53.4645Z" fill="white" fill-opacity="0.4"/>
<path d="M61.4227 53.4645C61.4227 53.0056 61.0499 52.6315 60.5865 52.6315C60.1258 52.6315 59.753 53.0029 59.753 53.4645C59.753 53.9235 60.1258 54.2949 60.5865 54.2949C61.0499 54.2975 61.4227 53.9261 61.4227 53.4645Z" fill="white" fill-opacity="0.4"/>
<path d="M78.4952 53.4645C78.4952 53.0056 78.1197 52.6315 77.659 52.6315C77.1983 52.6315 76.8228 53.0029 76.8228 53.4645C76.8228 53.9235 77.1956 54.2949 77.659 54.2949C78.1197 54.2975 78.4952 53.9261 78.4952 53.4645Z" fill="white" fill-opacity="0.4"/>
<path d="M118.236 46.8881C118.236 46.4292 117.863 46.0551 117.4 46.0551C116.939 46.0551 116.564 46.4292 116.564 46.8881C116.564 47.347 116.939 47.7211 117.4 47.7211C117.863 47.7184 118.236 47.347 118.236 46.8881Z" fill="white" fill-opacity="0.4"/>
<path d="M112.548 46.8881C112.548 46.4292 112.175 46.0551 111.711 46.0551C111.251 46.0551 110.875 46.4292 110.875 46.8881C110.875 47.347 111.248 47.7211 111.711 47.7211C112.172 47.7184 112.548 47.347 112.548 46.8881Z" fill="white" fill-opacity="0.4"/>
<path d="M135.309 46.8881C135.309 46.4292 134.936 46.0551 134.475 46.0551C134.014 46.0551 133.639 46.4292 133.639 46.8881C133.639 47.347 134.012 47.7211 134.475 47.7211C134.936 47.7184 135.309 47.347 135.309 46.8881Z" fill="white" fill-opacity="0.4"/>
<path d="M123.927 46.8881C123.927 46.4292 123.554 46.0551 123.091 46.0551C122.63 46.0551 122.254 46.4292 122.254 46.8881C122.254 47.347 122.63 47.7211 123.091 47.7211C123.554 47.7184 123.927 47.347 123.927 46.8881Z" fill="white" fill-opacity="0.4"/>
<path d="M129.617 46.8881C129.617 46.4292 129.245 46.0551 128.781 46.0551C128.321 46.0551 127.945 46.4292 127.945 46.8881C127.945 47.347 128.318 47.7211 128.781 47.7211C129.245 47.7184 129.617 47.347 129.617 46.8881Z" fill="white" fill-opacity="0.4"/>
</g>
<defs>
<clipPath id="clip0_13_40">
<rect width="107" height="141" fill="white" transform="translate(141) rotate(90)"/>
</clipPath>
</defs>
</svg>
