<svg width="60" height="60" viewBox="0 0 60 60" fill="none" xmlns="http://www.w3.org/2000/svg">
<g clip-path="url(#clip0_50_2336)">
<path d="M32.3793 20.414H30.042C33.845 15.113 39.8692 11.0839 46.4423 11.1033H46.6295C47.1719 11.1033 47.611 11.5488 47.611 12.0912L47.5916 18.1219L40.1146 18.096C37.2478 18.0896 34.8071 18.8838 32.3793 20.4076V20.414Z" fill="#B2C4CF"/>
<path d="M19.9822 18.0379L12.4278 18.0121L12.4471 11.9814C12.4471 11.4391 12.8862 11 13.435 11H13.6223C20.1889 11.0194 26.2647 15.0872 30.0355 20.4076H27.6981C25.2833 18.858 22.8491 18.0444 19.9822 18.0379Z" fill="#B2C4CF"/>
<path d="M40.1081 18.1025L47.5851 18.1283H49.0186C49.5609 18.1283 50 18.5739 50 19.1227L49.916 45.2212C49.916 45.7635 49.4705 46.2026 48.9282 46.2026L40.0177 46.1768C35.6206 46.1639 32.5214 48.3785 32.2825 48.4883L32.36 23.933L32.3729 20.427C34.7942 18.9032 37.2349 18.1025 40.1081 18.1154V18.1025Z" fill="#1074E4"/>
<path d="M12.4278 18.0121L19.9822 18.0379C22.8491 18.0444 25.2833 18.8644 27.6981 20.4011L27.6852 23.9072L27.6077 48.4625C27.3753 48.3462 24.3019 46.1122 19.8918 46.0993L10.9814 46.0734C10.4391 46.0734 10 45.6344 10 45.092L10.0839 18.9871C10.0839 18.4447 10.5295 18.0056 11.0718 18.0056H12.4278V18.0121Z" fill="#1074E4"/>
<path d="M30.0355 20.4076L32.3793 20.414L32.3664 23.9265L32.289 48.4818L27.6078 48.4689L27.6852 23.9072L27.6982 20.4011L30.0355 20.4076Z" fill="#03254A"/>
</g>
<defs>
<clipPath id="clip0_50_2336">
<rect width="40" height="37.4818" fill="white" transform="translate(10 11)"/>
</clipPath>
</defs>
</svg>
