<svg width="44" height="53" viewBox="0 0 44 53" fill="none" xmlns="http://www.w3.org/2000/svg">
<g opacity="0.4" clip-path="url(#clip0_0_5)">
<path d="M29.1385 15.7969H26.9421C26.9421 14.1367 25.585 12.7813 23.9141 12.7813C22.2432 12.7813 20.8861 14.1328 20.8861 15.7969H18.6896C18.6896 12.9297 21.0312 10.5938 23.9141 10.5938C26.7969 10.5938 29.1385 12.9258 29.1385 15.7969Z" fill="white"/>
<path d="M20.89 15.7969H18.6935C18.6935 14.1367 17.3364 12.7813 15.6655 12.7813C13.9946 12.7813 12.6375 14.1328 12.6375 15.7969H10.4411C10.4411 12.9297 12.7827 10.5938 15.6655 10.5938C18.5484 10.5938 20.89 12.9258 20.89 15.7969Z" fill="white"/>
<path d="M4.86752 4.55078H1.00409V6.73828H4.86752V4.55078Z" fill="white"/>
<path d="M12.3394 4.55078H8.47601V6.73828H12.3394V4.55078Z" fill="white"/>
<path d="M7.76999 0H5.57352V3.84766H7.76999V0Z" fill="white"/>
<path d="M7.76999 7.44141H5.57352V11.2891H7.76999V7.44141Z" fill="white"/>
<path d="M7.0287 33.3516C3.1535 33.3516 0 30.2109 0 26.3516C0 22.4922 3.1535 19.3555 7.02478 19.3555C10.8961 19.3555 14.0496 22.4961 14.0496 26.3516C14.0496 30.207 10.8961 33.3477 7.02478 33.3477L7.0287 33.3516ZM7.0287 21.543C4.36548 21.543 2.20039 23.6992 2.20039 26.3516C2.20039 29.0039 4.36548 31.1602 7.0287 31.1602C9.69192 31.1602 11.857 29.0039 11.857 26.3516C11.857 23.6992 9.69192 21.543 7.0287 21.543Z" fill="white"/>
<path d="M41.3093 29.0391H37.744L35.7397 24.5039H21.7019L19.6976 29.0391H16.1323V31.2266H19.1799V36.0312H21.3764V30.6758L22.5021 28.125L24.1337 31.2305H35.6456V33.7852H37.842V31.2305H41.3093V29.043V29.0391ZM24.2318 26.6914H34.3081L35.3436 29.0391H25.4634L24.2318 26.6914Z" fill="white"/>
<path d="M35.0931 11.2776L33.5399 12.8244L36.2718 15.5451L37.8249 13.9983L35.0931 11.2776Z" fill="white"/>
<path d="M40.3761 16.5393L38.823 18.0861L41.5549 20.8068L43.108 19.26L40.3761 16.5393Z" fill="white"/>
<path d="M41.5568 11.2798L38.8245 14L40.3773 15.5471L43.1097 12.8269L41.5568 11.2798Z" fill="white"/>
<path d="M36.2697 16.5384L33.5379 19.2591L35.091 20.8059L37.8229 18.0852L36.2697 16.5384Z" fill="white"/>
<path d="M24.118 43.5977H21.9215C21.9215 39.4219 20.1683 36.5078 18.5955 36.5078C17.0226 36.5078 15.2694 39.418 15.2694 43.5977H13.0729C13.0729 38.3984 15.4969 34.3242 18.5955 34.3242C21.6941 34.3242 24.118 38.3984 24.118 43.5977Z" fill="white"/>
<path d="M32.9627 43.5977H30.7663C30.7663 40.7969 29.2444 38.4297 27.4402 38.4297C25.6359 38.4297 24.1141 40.7969 24.1141 43.5977H21.9176C21.9176 39.4727 24.3416 36.2422 27.4402 36.2422C30.5388 36.2422 32.9627 39.4727 32.9627 43.5977Z" fill="white"/>
<path d="M37.3831 34.7852C39.76 34.7852 41.4819 38.6563 41.7604 42.5H43.9647C43.6431 36.8633 40.8661 32.5977 37.3792 32.5977C33.8923 32.5977 31.1154 36.8672 30.7937 42.5H32.998C33.2804 38.6563 34.9984 34.7852 37.3792 34.7852H37.3831Z" fill="white"/>
<path d="M43.9686 42.5039H0V44.6914H44V43.5352C44 43.1875 43.9882 42.8438 43.9686 42.5039Z" fill="white"/>
<path d="M39.5992 46.875H37.4027C37.4027 49.043 35.4298 50.8086 33.002 50.8086C30.5741 50.8086 28.6012 49.043 28.6012 46.875H26.4047C26.4047 49.043 24.4318 50.8086 22.0039 50.8086C19.576 50.8086 17.6031 49.043 17.6031 46.875H15.4067C15.4067 49.043 13.4338 50.8086 11.0059 50.8086C8.578 50.8086 6.6051 49.043 6.6051 46.875H4.40863C4.40078 49.0469 2.42788 50.8125 0 50.8125V53C2.29453 53 4.31842 51.9062 5.49902 50.2539C6.68354 51.9062 8.70351 53 10.998 53C13.2926 53 15.3165 51.9062 16.4971 50.2539C17.6816 51.9062 19.7016 53 21.9961 53C24.2906 53 26.3145 51.9062 27.4951 50.2539C28.6757 51.9062 30.6996 53 32.9941 53C35.2886 53 37.3125 51.9062 38.4931 50.2539C39.6777 51.9062 41.6976 53 43.9922 53V50.8125C41.5643 50.8125 39.5914 49.0469 39.5914 46.8789L39.5992 46.875Z" fill="white"/>
<path d="M43.4273 6.08984H41.2309C41.2309 4.42969 39.8738 3.07422 38.2029 3.07422C36.532 3.07422 35.1749 4.42578 35.1749 6.08984H32.9784C32.9784 3.22266 35.32 0.886719 38.2029 0.886719C41.0858 0.886719 43.4273 3.21875 43.4273 6.08984Z" fill="white"/>
<path d="M35.1788 6.08984H32.9823C32.9823 4.42969 31.6252 3.07422 29.9544 3.07422C28.2835 3.07422 26.9264 4.42578 26.9264 6.08984H24.7299C24.7299 3.22266 27.0715 0.886719 29.9544 0.886719C32.8372 0.886719 35.1788 3.21875 35.1788 6.08984Z" fill="white"/>
</g>
<defs>
<clipPath id="clip0_0_5">
<rect width="44" height="53" fill="white"/>
</clipPath>
</defs>
</svg>
