<svg width="230" height="305" viewBox="0 0 230 305" fill="none" xmlns="http://www.w3.org/2000/svg">
<path d="M136.306 102.692V110.576" stroke="#D6EAFF" stroke-width="3.34" stroke-linecap="round" stroke-linejoin="round"/>
<path d="M123.797 104.256L125.826 111.882" stroke="#D6EAFF" stroke-width="3.34" stroke-linecap="round" stroke-linejoin="round"/>
<path d="M112.11 109.028L116.038 115.847" stroke="#D6EAFF" stroke-width="3.34" stroke-linecap="round" stroke-linejoin="round"/>
<path d="M160.808 109.028L156.864 115.847" stroke="#D6EAFF" stroke-width="3.34" stroke-linecap="round" stroke-linejoin="round"/>
<path d="M102.048 116.653L107.618 122.231" stroke="#D6EAFF" stroke-width="3.34" stroke-linecap="round" stroke-linejoin="round"/>
<path d="M94.3047 126.616L101.13 130.566" stroke="#D6EAFF" stroke-width="3.34" stroke-linecap="round" stroke-linejoin="round"/>
<path d="M89.4111 138.256L97.0257 140.304" stroke="#D6EAFF" stroke-width="3.34" stroke-linecap="round" stroke-linejoin="round"/>
<path d="M87.6885 150.766H95.5606" stroke="#D6EAFF" stroke-width="3.34" stroke-linecap="round" stroke-linejoin="round"/>
<path d="M89.25 163.309L96.8646 161.261" stroke="#D6EAFF" stroke-width="3.34" stroke-linecap="round" stroke-linejoin="round"/>
<path d="M182.605 163.889L174.991 161.858" stroke="#D6EAFF" stroke-width="3.34" stroke-linecap="round" stroke-linejoin="round"/>
<path d="M184.328 151.379H176.439" stroke="#D6EAFF" stroke-width="3.34" stroke-linecap="round" stroke-linejoin="round"/>
<path d="M182.75 138.853L175.151 140.884" stroke="#D6EAFF" stroke-width="3.34" stroke-linecap="round" stroke-linejoin="round"/>
<path d="M178.001 127.148L171.175 131.082" stroke="#D6EAFF" stroke-width="3.34" stroke-linecap="round" stroke-linejoin="round"/>
<path d="M170.386 117.073L164.816 122.651" stroke="#D6EAFF" stroke-width="3.34" stroke-linecap="round" stroke-linejoin="round"/>
<path d="M148.798 104.417L146.77 112.043" stroke="#D6EAFF" stroke-width="3.34" stroke-linecap="round" stroke-linejoin="round"/>
<path d="M136 199.308V191.424" stroke="#D6EAFF" stroke-width="3.34" stroke-linecap="round" stroke-linejoin="round"/>
<path d="M148.524 197.744L146.48 190.119" stroke="#D6EAFF" stroke-width="3.34" stroke-linecap="round" stroke-linejoin="round"/>
<path d="M160.196 192.988L156.268 186.153" stroke="#D6EAFF" stroke-width="3.34" stroke-linecap="round" stroke-linejoin="round"/>
<path d="M111.498 192.988L115.442 186.153" stroke="#D6EAFF" stroke-width="3.34" stroke-linecap="round" stroke-linejoin="round"/>
<path d="M170.258 185.363L164.688 179.785" stroke="#D6EAFF" stroke-width="3.34" stroke-linecap="round" stroke-linejoin="round"/>
<path d="M178.001 175.384L171.175 171.434" stroke="#D6EAFF" stroke-width="3.34" stroke-linecap="round" stroke-linejoin="round"/>
<path d="M94.3047 174.852L101.13 170.918" stroke="#D6EAFF" stroke-width="3.34" stroke-linecap="round" stroke-linejoin="round"/>
<path d="M101.919 184.927L107.49 179.349" stroke="#D6EAFF" stroke-width="3.34" stroke-linecap="round" stroke-linejoin="round"/>
<path d="M123.508 197.583L125.552 189.973" stroke="#D6EAFF" stroke-width="3.34" stroke-linecap="round" stroke-linejoin="round"/>
<g opacity="0.6" clip-path="url(#clip0_1050_4926)">
<g style="mix-blend-mode:multiply">
<path d="M200.54 41C202.93 41 204.88 42.95 204.88 45.35V61.73C204.88 64.13 202.93 66.08 200.53 66.08C198.13 66.08 196.18 64.13 196.18 61.73V45.35C196.19 42.95 198.14 41 200.54 41Z" fill="#CFDFF9"/>
</g>
<g style="mix-blend-mode:multiply">
<path d="M188 53.5301C188 51.1301 189.95 49.1801 192.35 49.1801H208.73C211.13 49.1801 213.08 51.1301 213.08 53.5301C213.08 55.9301 211.13 57.8801 208.73 57.8801H192.35C189.95 57.8801 188 55.9301 188 53.5301Z" fill="#CFDFF9"/>
</g>
</g>
<defs>
<clipPath id="clip0_1050_4926">
<rect width="25.07" height="25.07" fill="white" transform="translate(188 41)"/>
</clipPath>
</defs>
</svg>
