<svg width="471" height="384" viewBox="0 0 471 384" fill="none" xmlns="http://www.w3.org/2000/svg">
<g clip-path="url(#clip0_1050_4958)">
<mask id="mask0_1050_4958" style="mask-type:alpha" maskUnits="userSpaceOnUse" x="0" y="0" width="629" height="289">
<rect width="629" height="289" fill="#D9D9D9"/>
</mask>
<g mask="url(#mask0_1050_4958)">
<path d="M1202.22 -128.224C1188.72 -138.424 1170.9 -142.394 1153.62 -145.264C1119.41 -150.944 1083.12 -153.324 1050.72 -141.884C956.135 -108.484 944.085 -4.6245 958.552 73.5355C965.415 110.636 983.105 146.946 1013.54 172.546C1023.84 181.206 1035.79 188.686 1049.41 191.766C1063.04 194.846 1078.54 192.955 1089.2 184.665C1100.62 175.775 1104.74 160.975 1103.1 147.415C1096.66 94.4955 1048.15 54.0355 993.378 39.4455C969.09 32.9755 942.142 32.7255 918.009 39.9355C888.512 48.7455 883.425 62.7755 866.188 82.8055C842.562 110.246 812.414 139.256 784.274 163.346C723.67 215.236 645.928 273.416 558.739 231.926C491.491 199.926 441.116 108.836 357.735 110.656C339.296 111.056 319.841 119.096 312.238 134.326C303.387 152.035 312.679 172.376 320.657 190.426C342.231 239.266 313.22 260.196 260.45 263.096C212.414 265.736 163.838 249.875 125.215 224.576C70.1166 188.465 31.825 135.456 -3.31075 82.7055" stroke="#E2EFFC" stroke-opacity="0.8" stroke-width="2.09" stroke-linecap="round" stroke-linejoin="round"/>
</g>
</g>
<defs>
<clipPath id="clip0_1050_4958">
<rect width="471" height="384" fill="white"/>
</clipPath>
</defs>
</svg>
