<svg width="22" height="22" viewBox="0 0 22 22" fill="none" xmlns="http://www.w3.org/2000/svg">
<path d="M19.5556 12.2222V18.3333C19.5556 19.0056 19.0056 19.5556 18.3333 19.5556H3.66667C2.99444 19.5556 2.44444 19.0056 2.44444 18.3333V12.2222C2.44444 11.55 1.89444 11 1.22222 11C0.55 11 0 11.55 0 12.2222V19.5556C0 20.9 1.1 22 2.44444 22H19.5556C20.9 22 22 20.9 22 19.5556V12.2222C22 11.55 21.45 11 20.7778 11C20.1056 11 19.5556 11.55 19.5556 12.2222ZM12.2222 11.8189L14.52 9.52111C14.9967 9.04444 15.7667 9.04444 16.2433 9.52111C16.72 9.99778 16.72 10.7678 16.2433 11.2444L11.8556 15.6322C11.3789 16.1089 10.6089 16.1089 10.1322 15.6322L5.74444 11.2444C5.26778 10.7678 5.26778 9.99778 5.74444 9.52111C6.22111 9.04444 6.99111 9.04444 7.46778 9.52111L9.77778 11.8189V1.22222C9.77778 0.55 10.3278 0 11 0C11.6722 0 12.2222 0.55 12.2222 1.22222V11.8189Z" fill="white"/>
</svg>
