<svg width="170" height="169" viewBox="0 0 170 169" fill="none" xmlns="http://www.w3.org/2000/svg">
<g clip-path="url(#clip0_1054_2352)">
<ellipse cx="121.49" cy="56.9999" rx="27.8273" ry="27.8214" fill="#466CE6"/>
<ellipse cx="121.49" cy="57" rx="22.3976" ry="22.3929" fill="white"/>
<path d="M65.145 0.273542L88.8654 7.85251C88.8813 7.85757 88.8892 7.86009 88.8982 7.86289C88.919 7.8693 88.8996 7.86343 88.9204 7.8696C88.9295 7.87229 88.9969 7.89159 89.1318 7.93019C89.5227 8.04208 90.6471 8.42811 90.844 9.21175C90.866 9.2995 90.8109 9.08012 90.8203 9.27945C90.8225 9.32557 90.793 9.71921 90.784 9.76449C90.745 9.96019 90.8614 9.68142 90.8149 9.79293C90.6863 10.101 90.2817 10.5963 89.026 10.9722L81.191 13.5017C79.9822 13.892 79.3777 14.0871 79.02 14.4792C78.7317 14.7951 78.5523 15.195 78.5081 15.6203C78.4532 16.1483 78.7093 16.7294 79.2217 17.8918L79.4062 18.3104C80.1078 19.9021 80.4586 20.698 80.8461 21.0055C81.2525 21.328 81.4193 21.3933 81.9366 21.4329C82.4298 21.4706 83.5125 21.002 85.6778 20.0647C87.0022 19.4914 88.595 19.1019 90.3884 19.2294C90.4296 19.2323 90.4502 19.2338 90.4565 19.2342C90.472 19.2352 90.4563 19.2342 90.4719 19.2351C90.4781 19.2355 90.5137 19.2373 90.5849 19.2409C91.3494 19.2797 96.4918 19.6933 99.2433 23.8569C99.2668 23.8925 99.2786 23.9103 99.282 23.9154C99.2923 23.9308 99.2801 23.9127 99.2905 23.928C99.294 23.9331 99.3211 23.9724 99.3753 24.0509C99.9309 24.8564 103.657 30.731 99.3945 37.7673C98.9229 38.5457 98.6871 38.9349 98.6138 39.1829C98.5323 39.4586 98.5245 39.5183 98.5325 39.8056C98.5397 40.0641 98.6688 40.5047 98.9269 41.3857C99.459 43.2016 100.093 46.3023 100.056 50.692C100.05 51.3363 100.047 51.6585 100.092 51.8713C100.141 52.1032 100.161 52.1594 100.269 52.3704C100.368 52.5639 100.626 52.8759 101.141 53.4999C102.788 55.4948 105.497 60.026 103.982 67.0674C103.982 67.0677 103.982 67.0679 103.982 67.0678C103.982 67.0678 103.982 67.0677 103.982 67.0678C103.982 67.0679 103.982 67.0679 103.982 67.0679C103.98 67.0784 102.365 74.5683 93.2014 81.2693C93.1234 81.3264 93.0593 81.4034 93.0188 81.4913V81.4913C92.8252 81.9107 93.1985 82.4416 93.6601 82.4615C95.0398 82.5212 97.7552 82.9306 102.062 84.7723L102.354 84.8698C102.545 84.9333 102.64 84.965 102.737 84.987C102.817 85.0049 102.897 85.018 102.979 85.0261C103.078 85.0361 103.178 85.0361 103.379 85.0361L104.658 85.0361C104.865 85.0361 104.969 85.0361 105.071 85.0255C105.155 85.0168 105.238 85.0029 105.32 84.9838C105.42 84.9604 105.518 84.9266 105.714 84.859L107.576 84.2166L112.434 82.1625C113.442 81.7362 114.573 81.7003 115.607 82.0618V82.0618C115.964 82.1867 116.348 82.1936 116.715 82.1025C118.358 81.6949 123.19 80.7759 125.317 83.4127C125.323 83.4195 125.326 83.4229 125.328 83.4256C125.329 83.4276 125.332 83.4304 125.333 83.4323C125.335 83.4351 125.336 83.4357 125.337 83.4368C125.398 83.5142 125.75 83.9756 126.039 84.6609C127.124 87.2307 127.666 88.5156 127.693 88.5986C127.848 89.079 127.645 88.3108 127.748 88.805C127.766 88.8904 127.922 90.2032 128.234 92.8288C128.265 93.0883 128.275 93.3643 128.26 93.6575C128.26 93.6586 128.26 93.6592 128.258 93.6856C128.257 93.694 128.253 93.7418 128.252 93.7502C128.249 93.7765 128.251 93.7569 128.25 93.7648C128.22 93.9878 128.063 94.8939 127.432 95.9076C126.784 96.9476 126.46 97.4676 126.413 97.5655C126.258 97.8874 126.425 97.4726 126.314 97.8122C126.28 97.9155 126.097 98.7884 125.731 100.534C125.407 102.078 124.215 103.972 120.718 105.325C120.675 105.342 120.654 105.35 120.62 105.362C120.598 105.37 120.556 105.383 120.535 105.389C120.5 105.4 120.482 105.405 120.445 105.414C119.291 105.711 110.999 107.688 104.527 104.903C104.102 104.72 103.889 104.629 103.735 104.59C103.586 104.552 103.505 104.54 103.352 104.532C103.194 104.523 102.999 104.543 102.61 104.584C100.772 104.777 96.6804 105.137 92.6884 105.017C91.41 104.978 90.7707 104.959 90.3748 105.123C90.0044 105.276 89.8067 105.426 89.5606 105.743C89.2974 106.081 89.144 106.71 88.8372 107.968C88.2462 110.392 87.1389 113.996 85.1364 118.047C84.7394 118.851 84.8395 119.778 85.709 119.995V119.995C86.5435 120.203 88.1652 120.284 88.7086 119.618C90.599 117.299 94.868 113.084 100.393 113.934C100.394 113.935 100.395 113.935 100.408 113.937C100.412 113.937 100.435 113.942 100.439 113.942C100.451 113.945 100.438 113.942 100.443 113.943C100.861 114.025 106.667 115.303 105.794 122.727C105.791 122.753 105.789 122.765 105.785 122.791C105.783 122.805 105.778 122.839 105.775 122.853C105.771 122.878 105.77 122.885 105.767 122.899C105.547 123.983 102.874 135.942 90.0182 146.589C90.0155 146.591 90.0142 146.592 90.0084 146.597C90.0062 146.598 89.9966 146.606 89.9943 146.608C89.9886 146.613 89.9917 146.61 89.9905 146.611C89.7744 146.782 86.9274 148.973 83.9048 148.585C83.8567 148.578 83.8327 148.575 83.8276 148.575C83.819 148.573 83.8237 148.574 83.8151 148.573C83.81 148.572 83.8053 148.572 83.7958 148.57C83.2992 148.498 79.4734 147.791 76.8893 142.872C76.8535 142.804 76.8355 142.769 76.834 142.767C76.8299 142.759 76.8345 142.768 76.8304 142.76C76.8289 142.757 76.8409 142.78 76.8361 142.771C76.6719 142.45 75.7781 140.544 75.432 136.422C75.3732 135.721 75.3438 135.371 75.2164 135.074C75.1159 134.839 74.9569 134.607 74.7742 134.429C74.5424 134.203 74.2786 134.075 73.7511 133.819C71.7351 132.841 68.1326 131.349 65.0401 131.432C64.9895 131.434 64.9642 131.434 64.9546 131.434C64.9384 131.435 64.9471 131.435 64.931 131.435C64.9214 131.435 64.8929 131.435 64.836 131.434C64.2637 131.432 61.3873 131.476 59.1447 132.547C59.1012 132.567 59.0795 132.578 59.0263 132.607C58.998 132.623 58.9257 132.667 58.8987 132.684C58.8479 132.718 58.8293 132.732 58.7923 132.759C58.4779 132.994 57.7738 133.554 57.1492 134.292C57.1206 134.326 57.1063 134.343 57.0901 134.361C57.0798 134.372 57.0606 134.393 57.0499 134.405C57.0332 134.422 57.0281 134.428 57.0177 134.438C56.5197 134.94 53.282 138.035 47.9679 139.239C47.9191 139.25 47.8946 139.255 47.8818 139.259C47.8642 139.263 47.8677 139.262 47.8502 139.266C47.8374 139.27 47.8072 139.278 47.7467 139.294C47.2517 139.429 45.0873 139.974 42.1364 140.075C39.0789 140.18 37.5501 140.232 37.1329 140.461C36.5817 140.763 36.6355 140.709 36.3359 141.262C36.1092 141.68 36.0546 143.521 35.9455 147.202C35.9123 148.325 35.658 149.408 35.0591 150.337C34.9849 150.453 34.9478 150.51 34.9338 150.531C34.918 150.554 34.9152 150.558 34.8987 150.581C34.8841 150.601 34.8758 150.612 34.8592 150.633C34.4221 151.206 32.44 153.156 26.8404 151.064C26.8164 151.055 26.8044 151.051 26.7989 151.049C26.7901 151.046 26.7943 151.047 26.7855 151.044C26.78 151.042 26.7641 151.036 26.7323 151.025C25.9702 150.757 16.7878 147.368 13.0407 138.692C13.0396 138.69 13.0391 138.689 13.0392 138.689C13.0392 138.689 13.0393 138.689 13.0392 138.689C13.0388 138.688 13.041 138.693 13.0401 138.691C13.0284 138.664 9.83252 131.249 14.5416 125.211C14.5749 125.168 14.5916 125.147 14.5979 125.139C14.6102 125.123 14.6012 125.135 14.6133 125.118C14.6195 125.11 14.6446 125.075 14.695 125.006C15.2345 124.264 18.7254 119.806 22.962 122.375C22.9657 122.378 22.9676 122.379 22.9679 122.379C22.9698 122.38 22.9667 122.378 22.9686 122.379C22.9689 122.379 22.9745 122.383 22.9856 122.39C23.1241 122.473 24.5281 123.332 25.6017 124.379C26.3365 125.096 26.7039 125.454 26.9271 125.581C27.1466 125.706 27.2631 125.75 27.5104 125.801C27.7619 125.854 27.9815 125.842 28.4209 125.82C29.6045 125.759 31.1843 125.488 32.4985 124.599C32.8529 124.36 33.0136 123.931 32.971 123.505V123.505C32.9082 122.877 32.4124 122.381 31.7854 122.311C29.7465 122.083 25.2761 121.531 22.4517 120.779C22.4159 120.77 22.398 120.765 22.3883 120.763C22.3736 120.759 22.3796 120.76 22.3648 120.757C22.3551 120.754 22.3252 120.747 22.2652 120.734C21.8659 120.641 20.3046 120.242 19.793 119.56C19.7163 119.458 19.9081 119.713 19.8113 119.479C19.7868 119.42 19.6718 118.945 19.6665 118.881C19.6454 118.629 19.6029 118.878 19.6199 118.778C19.6724 118.471 19.8703 118.01 20.487 117.472C20.5417 117.424 20.5691 117.401 20.5803 117.391C20.5933 117.379 20.5947 117.378 20.6074 117.366C20.6184 117.355 20.63 117.344 20.653 117.322C21.0555 116.935 22.8691 115.182 23.807 114.111C24.1157 113.759 24.2762 113.426 23.8822 113.173V113.173C23.3769 112.847 22.3032 112.74 21.8556 113.142C21.2313 113.702 20.2119 114.312 18.6971 114.378C18.6393 114.381 18.6104 114.382 18.6021 114.383C18.5863 114.384 18.5928 114.383 18.577 114.384C18.5688 114.385 18.6355 114.38 18.6088 114.382V114.382C18.3714 114.399 18.2527 114.408 18.203 114.409C17.576 114.424 18.6766 114.44 18.0503 114.407C18.0006 114.404 15.1799 114.113 9.5385 113.531C9.34333 113.511 9.14216 113.479 8.935 113.433C8.86488 113.418 8.82981 113.41 8.82059 113.408C8.80783 113.405 8.81076 113.406 8.79803 113.403C8.78883 113.401 8.78268 113.399 8.77038 113.396C8.26418 113.268 5.54254 112.394 4.60998 108.226C4.60123 108.187 4.59686 108.167 4.59663 108.166C4.5957 108.162 4.597 108.168 4.59607 108.164C4.59585 108.163 4.60009 108.182 4.59839 108.174C4.57153 108.052 4.45512 107.483 4.43299 106.692C4.36862 104.389 4.33643 103.238 4.27801 103.015C4.15401 102.543 4.31144 102.918 4.06157 102.499C3.94382 102.302 3.21124 101.541 1.74608 100.019C0.817187 99.0546 0.0690121 97.7497 0.00250146 96.028C0.00242908 96.0261 0.00261001 96.0308 0.00229929 96.0036C0.00221036 95.9958 0.00247729 95.9447 0.00264753 95.937C0.00324233 95.9098 0.00164917 95.9422 0.00228644 95.9293C0.0197207 95.5742 0.234686 93.3509 2.88523 92.5027C2.88931 92.5014 2.89135 92.5007 2.91021 92.4951C2.91711 92.493 2.94964 92.4837 2.95659 92.4819C2.97557 92.4767 2.97116 92.4778 2.97292 92.4774C3.31936 92.3903 5.74978 91.8404 9.7179 92.4498C9.96171 92.4872 10.0836 92.5059 10.2154 92.5087C10.3087 92.5106 10.4447 92.5024 10.5371 92.4894C10.6676 92.4709 10.7453 92.4492 10.9008 92.4058C11.2608 92.3054 11.7144 92.1542 12.0442 91.96C12.3569 91.7759 12.5132 91.6839 12.5147 91.683C12.5288 91.6747 12.5042 91.6891 12.5184 91.6809C12.5199 91.68 12.0208 91.9701 12.2204 91.8541C12.8728 91.4749 17.0393 89.0231 20.2452 86.4186C20.8148 85.9559 19.3908 87.1127 19.4196 87.0874C19.8057 86.7484 19.286 87.275 19.6199 86.8845C19.6448 86.8554 20.4543 85.8319 22.0733 83.785V83.785C22.116 83.731 22.1373 83.704 22.1661 83.6708C22.2069 83.6236 22.3513 83.4819 22.3992 83.442C22.433 83.4139 22.4495 83.4013 22.4827 83.3761C23.1604 82.8606 26.0058 80.7245 28.9378 78.935C30.6149 77.9113 31.4534 77.3995 31.7058 76.9841C31.9669 76.5545 32.0145 76.3709 31.9951 75.8685C31.9763 75.3828 31.4795 74.5057 30.4858 72.7515C27.8499 68.0983 24.6414 59.5774 27.3712 48.3762C27.6071 47.4082 27.725 46.9242 27.6958 46.595C27.6661 46.2604 27.6264 46.127 27.4683 45.8305C27.3128 45.5389 26.903 45.1546 26.0833 44.3859C24.0368 42.4668 21.1985 38.8349 21.764 33.7957C21.7687 33.7537 21.7711 33.7327 21.7719 33.725C21.7735 33.71 21.7724 33.7211 21.7738 33.7061C21.7745 33.6984 21.7771 33.6684 21.7823 33.6085C21.872 32.578 22.9506 23.0459 32.2612 21.5158C32.2799 21.5128 32.2893 21.5112 32.2929 21.5106C32.3026 21.509 32.2919 21.5108 32.3017 21.5091C32.3053 21.5085 32.3318 21.5038 32.3849 21.4945C32.8982 21.4039 36.6367 20.8256 40.6729 22.3921C42.125 22.9557 42.8511 23.2375 43.2972 23.2063C43.7226 23.1766 43.9523 23.0955 44.302 22.8515C44.6688 22.5957 44.9777 22.0584 45.5954 20.9837L47.4429 17.77C48.1408 16.5559 48.4897 15.9489 48.4724 15.3823C48.4584 14.9268 48.2893 14.4897 47.993 14.1434C47.6245 13.7127 46.9579 13.4986 45.6246 13.0704L38.1481 10.6694C38.1404 10.6669 38.1366 10.6657 38.1278 10.6627C38.1245 10.6617 38.1095 10.6566 38.1063 10.6555C38.0975 10.6525 38.1133 10.6581 38.107 10.6558C37.9749 10.609 37.2381 10.3132 37.0657 9.48578C37.0464 9.39361 37.0945 9.62402 37.0845 9.49682C37.0829 9.47667 37.0829 9.20492 37.0845 9.18477C37.0945 9.05757 37.0345 9.34506 37.0585 9.23006C37.113 8.96855 37.3711 8.36601 38.5809 7.99681L62.3228 0.384659C67.8858 -1.39895 53.9783 3.06007 53.9793 3.05976C54.0333 3.04239 53.9278 3.07641 53.9817 3.05898C53.9827 3.05866 56.9899 2.08341 63.0042 0.132911C63.4218 -0.00252554 64.1975 -0.13291 65.145 0.273542Z" fill="#231F20"/>
<path d="M99.7846 88.1601C99.7846 92.1542 93.8934 99.3935 90.9478 102.514C99.4447 102.826 102.993 100.866 104.543 101.577C107.942 103.138 109.641 104.074 116.439 103.762C116.665 98.1446 116.982 86.4123 116.439 85.6634C115.895 84.9145 106.242 86.9118 104.543 88.1601H99.7846Z" fill="#A7A9AC"/>
<path d="M64.138 2.67725L84.9561 9.35949L64.138 16.2176L42.6975 9.44742L63.825 2.67725H64.138Z" fill="#A7A9AC"/>
<path d="M62.0102 9.20055C62.0102 9.77733 62.8366 10.2451 63.8564 10.2451C64.8762 10.2451 65.7026 9.77733 65.7026 9.20055C65.7026 8.62376 64.8762 8.15601 63.8564 8.15601C62.8366 8.15601 62.0102 8.62376 62.0102 9.20055Z" fill="white"/>
<path d="M75.0784 15.3975L78.4473 23.163C78.4473 23.163 70.3873 20.3213 62.9744 20.2333C62.9744 20.2333 54.9144 19.6777 47.7934 22.8711L52.277 15.1619L63.6461 18.9707L75.0749 15.394L75.0784 15.3975Z" fill="#A7A9AC"/>
<path d="M96.6035 36.8651C96.6035 36.8651 92.8232 29.4794 83.3742 25.2169C83.3742 25.2169 89.4403 18.5135 95.858 24.2497C95.858 24.2497 101.527 30.0527 96.6035 36.8651Z" fill="#C4802F"/>
<path d="M97.1305 50.0535C97.1305 50.0535 98.1397 39.6784 90.0095 32.7324C90.0095 32.7324 86.3628 28.5859 75.5494 25.1287C75.5494 25.1287 63.259 20.3984 50.1 24.9106C50.1 24.9106 46.6292 26.3174 45.3104 27.1967C45.3104 27.1967 44.3891 27.988 43.2462 27.1088C43.2462 27.1088 39.378 23.3737 33.224 24.2073C33.224 24.2073 26.1909 24.9106 24.7843 32.866C24.7843 32.866 23.5113 39.7663 29.3558 43.4592C29.3558 43.4592 29.8376 43.7968 30.4846 44.1485C30.4846 44.1485 31.5677 44.4404 31.0402 46.0547C31.0402 46.0547 28.4907 52.2094 29.194 59.0956C29.194 59.0956 30.3967 71.3769 36.519 75.8294C36.519 75.8294 50.7119 75.5515 64.1416 81.7062C64.1416 81.7062 58.7613 78.4987 57.5727 71.1131C57.5727 71.1131 55.3256 61.6173 64.1416 54.2738C64.1416 54.2738 71.5967 47.1977 85.3535 46.8003C85.3535 46.8003 92.1229 46.6244 97.134 50.0535" fill="#C4802F"/>
<path d="M87.1542 41.7004L83.9014 42.4917C83.9014 42.4917 84.7348 38.1834 82.013 37.8318C82.013 37.8318 79.991 37.7438 80.1668 42.2702L77.0019 41.4789C77.0019 41.4789 77.2199 34.5645 82.0798 34.5047C82.0798 34.5047 86.4966 33.7872 87.1577 41.7004" fill="#231F20"/>
<path d="M72.9551 40.6882L69.7902 41.5675C69.7902 41.5675 70.4372 36.4679 67.5009 37.1291C67.5009 37.1291 65.2644 38.0962 66.4494 42.4925L63.3303 43.3717C63.3303 43.3717 61.266 36.911 66.3615 34.0095C66.3615 34.0095 69.5264 32.4269 71.7243 36.0318C71.7243 36.0318 72.6034 37.3049 72.9551 40.6918" fill="#231F20"/>
<path d="M76.1082 51.0978C64.9678 54.4881 57.9944 63.4529 60.7409 72.5759C62.7699 79.3179 74.2515 85.5887 85.3673 82.1034C96.4797 78.6181 103.991 67.0683 100.78 58.8316C100.78 58.8316 96.5078 44.8868 76.1082 51.0978" fill="#E0C5AF"/>
<path d="M87.995 71.7721C87.995 71.7721 80.3395 73.9245 72.909 70.8928C72.909 70.8928 67.9436 68.7827 66.7128 63.4193L68.5133 63.1133C68.5133 63.1133 70.3595 62.4978 69.7441 60.9152C69.7441 60.9152 69.7441 59.4205 67.0187 59.9937C67.0187 59.9937 60.6467 61.091 61.1285 64.4779C61.1285 64.4779 61.9619 66.4122 63.5901 65.3571L63.7378 65.343C63.7378 65.343 64.5009 67.4673 66.0235 69.5916C66.0235 69.5916 67.9295 73.1085 75.0506 75.071C75.0506 75.071 80.7931 76.7416 90.3757 74.7193L91.4307 74.4555C91.4307 74.4555 92.8971 74.132 92.8092 72.5493C92.8092 72.5493 92.5173 71.0546 91.079 71.2023C91.079 71.2023 88.5366 71.6419 87.995 71.7721" fill="#231F20"/>
<path d="M88.5298 83.687C88.5298 83.687 83.6664 87.4396 71.5905 84.8019C71.5905 84.8019 74.991 86.3247 77.217 88.2028C77.217 88.2028 87.2392 86.5604 88.5298 83.6905" fill="#C4802F"/>
<path d="M84.4295 89.3699C84.4295 89.3699 81.8519 90.425 80.4453 90.425C80.4453 90.425 83.1425 92.0674 83.8458 93.4144C83.8458 93.4144 84.4893 90.2491 84.433 89.3699" fill="#A7A9AC"/>
<path d="M87.2424 88.6109C87.2424 88.6109 91.522 85.7973 92.1058 85.3295C92.1058 85.3295 97.145 85.741 98.2598 86.9719C98.2598 86.9719 96.6773 98.2263 80.0616 104.265C80.0616 104.265 74.0553 99.2813 52.9559 91.9555C52.9559 91.9555 35.1375 86.1525 26.2898 84.1021C26.2898 84.1021 33.6148 78.9427 35.7845 78.6508C35.7845 78.6508 51.8236 78.5347 64.1421 84.6296C64.1421 84.6296 78.5705 90.3166 82.7306 96.1196C82.7306 96.1196 83.9614 97.4103 85.1324 95.884C85.1324 95.884 87.1263 94.4772 87.2424 88.6144" fill="#FEE292"/>
<path d="M86.6686 104.524C86.6686 104.524 85.6207 110.721 84.4321 112.215C84.4321 112.215 66.4941 115.996 61.0435 117.093C61.0435 117.093 47.1109 119.819 40.869 119.819C40.869 119.819 28.9127 120.083 23.8136 118.106C23.8136 118.106 30.8468 112.391 29.5281 104.524C29.5281 104.524 34.2297 103.732 39.2865 97.6656C39.2865 97.6656 39.8562 96.4347 38.8927 95.8649C38.8927 95.8649 38.1014 95.2494 37.268 96.083C37.268 96.083 34.1488 99.9516 30.3228 101.576C30.3228 101.576 28.7404 102.104 28.037 102.322C28.037 102.322 26.1486 102.762 26.9399 104.65C26.9399 104.65 27.7909 108.797 26.0607 111.111C26.0607 111.111 24.6541 110.699 24.5381 109.704V109.293C24.5381 109.293 25.3574 106.979 24.3904 105.864C24.3904 105.864 23.2756 104.281 21.5173 106.068C21.5173 106.068 20.7859 106.831 20.698 109.293C20.698 109.293 20.4342 111.551 18.9116 111.639C18.9116 111.639 16.7137 111.522 16.1264 107.038C16.1264 107.038 16.2144 104.636 14.544 104.84C14.544 104.84 13.2851 104.548 12.9334 107.01C12.9334 107.01 12.2582 110.763 9.94433 110.819C9.94433 110.819 7.36669 110.759 7.21899 105.955C7.21899 105.955 7.27878 103.905 8.97727 102.702C8.97727 102.702 9.68059 102.322 9.56455 101.323C9.56455 101.323 9.56454 100.416 8.18605 100.12C8.18605 100.12 2.97099 99.2412 2.88308 96.0161C2.88308 96.0161 2.61933 95.1088 4.7574 94.9329C4.7574 94.9329 9.21288 95.0208 10.0322 95.2846C10.0322 95.2846 11.9066 95.4323 13.2851 94.4652C13.2851 94.4652 17.3889 92.3268 22.6637 87.9869L24.3341 86.6399C24.3341 86.6399 31.1035 88.1065 34.5603 89.1616C34.5603 89.1616 49.5654 93.7336 53.9013 95.2565C53.9013 95.2565 70.7668 101.527 75.0746 104.253C75.0746 104.253 78.1515 106.275 78.8549 106.803C78.8549 106.803 79.8641 107.46 81.2285 106.845L86.6792 104.517L86.6686 104.524Z" fill="#A7A9AC"/>
<path d="M82.7871 122.548C82.7871 122.548 85.4526 122.256 86.6694 123.719C86.6694 123.719 86.7116 125.066 88.0619 125.066C88.0619 125.066 89.2329 124.986 89.4685 123.793C89.4685 123.793 92.3416 117.093 99.3747 116.685C99.3747 116.685 103.946 116.802 102.891 122.78C102.891 122.78 99.4626 137.2 86.6729 145.349C86.6729 145.349 83.9053 147.459 80.5048 143.65C80.5048 143.65 77.9272 140.661 78.1593 133.511C78.1593 133.511 77.3962 131.928 74.0555 130.813C74.0555 130.813 67.1384 127.588 61.2798 128.939C61.2798 128.939 58.2907 129.466 55.7693 131.812C55.7693 131.812 48.0927 139.665 35.7249 136.736C35.7249 136.736 32.2084 135.681 29.5991 134.246C29.5991 134.246 28.2241 132.895 27.5032 133.5C27.5032 133.5 25.9665 134.116 26.9335 135.653C26.9335 135.653 29.789 138.378 31.1534 140.531C31.1534 140.531 34.8739 146.847 32.2084 149.221C32.2084 149.221 31.5649 149.632 28.1362 148.546C28.1362 148.546 17.3228 145.089 15.1249 135.856C15.1249 135.856 13.7464 129.378 17.5865 125.893C17.5865 125.893 19.8442 123.343 21.8943 125.073C21.8943 125.073 23.8882 126.54 24.8834 128.063C24.8834 128.063 25.323 128.706 27.6087 128.65C27.6087 128.65 32.8554 128.65 34.9337 126.276C34.9337 126.276 36.4001 125.045 35.7249 122.583C35.7249 122.583 46.89 123.051 56.7083 120.797C56.7083 120.797 81.1202 115.933 83.1423 115.317C83.1423 115.317 81.8517 119.07 79.3901 122.263C79.3901 122.263 76.9883 125.105 75.6696 125.633C75.6696 125.633 75.2019 125.925 74.6744 125.925C74.6744 125.925 73.4436 126.16 73.7671 127.535C73.7671 127.535 74.2067 129.382 76.1408 128.415C76.1408 128.415 79.0138 127.068 81.0921 124.546C81.0921 124.546 82.031 123.343 82.5269 122.7L82.7906 122.552L82.7871 122.548Z" fill="#C4802F"/>
<path d="M81.6437 54.0847C80.6872 56.842 82.8886 60.1093 86.5563 61.3824C90.2241 62.652 93.9728 61.4492 94.9293 58.6884C95.8858 55.9311 93.6844 52.6638 90.0166 51.3907C86.3489 50.1211 82.6002 51.3239 81.6437 54.0847Z" fill="#231F20"/>
<path d="M84.176 53.5709C83.9193 54.3059 84.5558 55.1957 85.5967 55.5545C86.6341 55.9132 87.6855 55.6107 87.9387 54.8722C88.1954 54.1371 87.5589 53.2473 86.518 52.8886C85.4771 52.5299 84.4292 52.8323 84.176 53.5709Z" fill="white"/>
<path d="M39.561 33.1255C39.561 33.1255 36.8638 36.4947 35.5768 38.8687C35.5768 38.8687 35.3412 39.3364 35.2532 39.5123C35.2532 39.5123 34.9508 40.3317 34.1631 40.4197C34.1631 40.4197 31.5011 40.5674 29.4791 36.7726C29.4791 36.7726 27.8966 33.0375 30.3863 30.2521C30.3863 30.2521 32.76 27.3506 36.5122 29.197C36.5122 29.197 39.5294 30.6319 39.8248 32.0387C39.8248 32.0387 40.1764 32.6261 39.561 33.122" fill="#231F20"/>
<path d="M36.5156 32.4697C36.5156 32.4697 34.0118 35.8531 33.4386 37.1297C33.4386 37.1297 30.977 36.0887 32.1199 32.7476C32.1199 32.7476 33.203 29.8742 36.5156 32.4697" fill="white"/>
<path d="M116.06 86.4285C116.06 83.667 118.299 81.4285 121.06 81.4285H121.919C124.681 81.4285 126.919 83.667 126.919 86.4285V107.643C126.919 110.404 124.681 112.643 121.919 112.643H121.06C118.299 112.643 116.06 110.404 116.06 107.643V86.4285Z" fill="#466CE6"/>
<rect x="-1.43571" y="-1.52287" width="9.85049" height="7.00395" rx="3.50198" transform="matrix(0.99987 0.0161571 -0.042731 0.999087 122.749 97.7254)" fill="#A7A9AC" stroke="#231F20" stroke-width="3"/>
<path d="M127.982 91.2385L124.058 91.9263C122.089 92.2715 120.701 94.1698 120.95 96.1772C121.209 98.2664 123.133 99.6417 125.169 99.1931L128.839 98.3843C129.535 98.231 130.198 97.9331 130.786 97.5095C131.836 96.7531 132.323 95.4128 131.997 94.1781L131.883 93.7496C131.421 92.0032 129.752 90.9285 127.982 91.2385Z" fill="#A7A9AC" stroke="#231F20" stroke-width="3"/>
<rect x="-1.80346" y="-0.894649" width="11.659" height="6.30502" rx="3.15251" transform="matrix(0.930632 -0.365957 0.271672 0.96239 121.608 90.6882)" fill="#A7A9AC" stroke="#231F20" stroke-width="3"/>
<path d="M123.979 86.0393L118.885 82.797C117.153 81.6949 114.72 82.1092 113.451 83.7225L112.567 84.8461C111.786 85.8389 112.016 87.1934 113.082 87.8716L116.322 89.9338C118.899 91.5738 122.519 90.9572 124.408 88.5567C125.058 87.7307 124.866 86.6036 123.979 86.0393Z" fill="#A7A9AC" stroke="#231F20" stroke-width="3"/>
<path d="M101.612 90.8774C101.078 89.8551 101.577 88.5977 102.665 88.218L115.602 83.7066C117.006 83.2171 118.339 84.5958 117.803 85.9821V85.9821C117.623 86.4469 117.253 86.8125 116.786 86.9866L103.949 91.7745C103.055 92.1079 102.053 91.7232 101.612 90.8774V90.8774Z" fill="#A7A9AC"/>
<path d="M111.736 87.0054C112.201 86.3013 113.149 86.1071 113.853 86.5718L115.771 87.8376C116.475 88.3023 116.669 89.2498 116.205 89.9539V89.9539C115.74 90.658 114.792 90.8521 114.088 90.3875L112.17 89.1216C111.465 88.657 111.271 87.7095 111.736 87.0054V87.0054Z" fill="#231F20"/>
<g clip-path="url(#clip1_1054_2352)">
<path d="M110.678 60.1045C110.457 59.8955 110.29 59.7164 110.174 59.5671C110.058 59.4179 110 59.2739 110 59.1343C110 58.9552 110.097 58.7761 110.29 58.597C110.482 58.4179 110.73 58.2589 111.033 58.1193C111.336 57.9801 111.667 57.8682 112.025 57.7835C112.383 57.6991 112.728 57.6566 113.058 57.6566C113.411 57.6566 113.7 57.6991 113.926 57.7835C114.152 57.8682 114.369 58.0099 114.579 58.2089C115.427 59.0148 116.196 59.8384 116.885 60.679C117.573 61.52 118.248 62.388 118.909 63.2836C119.548 61.7413 120.209 60.2515 120.893 58.8135C121.576 57.3757 122.301 55.9679 123.067 54.5896C123.832 53.2116 124.653 51.8534 125.529 50.5149C126.405 49.1768 127.356 47.831 128.38 46.4777C128.755 45.9702 129.309 45.5971 130.042 45.3582C130.774 45.1195 131.714 45 132.86 45C133.201 45 133.477 45.0448 133.686 45.1343C133.895 45.2238 134 45.3432 134 45.4925C134 45.622 133.967 45.7514 133.901 45.8805C133.835 46.0101 133.736 46.1592 133.604 46.3282C131.102 49.4826 128.827 52.786 126.777 56.2386C124.727 59.6915 122.948 63.3333 121.438 67.1639C121.339 67.4426 121.097 67.6513 120.711 67.7907C120.325 67.9299 119.758 67.9996 119.009 67.9996C118.656 67.9996 118.358 67.9896 118.116 67.9698C117.874 67.9497 117.67 67.9125 117.504 67.8579C117.339 67.8031 117.201 67.736 117.091 67.6564C116.981 67.5768 116.887 67.4773 116.81 67.3579C116.336 66.6615 115.876 66.0124 115.43 65.4101C114.984 64.8082 114.521 64.2236 114.042 63.6564C113.562 63.0893 113.05 62.5172 112.504 61.94C111.959 61.363 111.35 60.7512 110.678 60.1041L110.678 60.1045Z" fill="#3B5BDB"/>
</g>
</g>
<g clip-path="url(#clip2_1054_2352)">
<path d="M143.891 31.9683C143.891 31.9683 144.014 32.1557 144.026 32.1911C144.036 32.1251 143.847 31.9279 143.891 31.9683Z" fill="#FFB664"/>
<path d="M143.914 31.2644L143.954 31.3378L143.871 31.106L143.914 31.2644Z" fill="#FFB664"/>
<path d="M144.24 30.9945C143.963 30.7172 144.152 31.1327 144.009 31.0775L143.951 31.0183L144.127 31.2972C144.175 31.2034 144.127 30.9608 144.24 30.9945V30.9945Z" fill="#FFB664"/>
<path d="M144.965 31.5249C144.864 31.4076 144.919 31.3819 144.899 31.5148C144.899 31.5148 144.915 31.5174 144.929 31.5365C144.929 31.5365 144.932 31.5199 144.968 31.5082L144.965 31.5249Z" fill="#FFB664"/>
<path d="M144.913 31.5349C144.913 31.5349 145.019 31.6189 144.913 31.5349V31.5349Z" fill="#FFB664"/>
<path d="M145.027 31.3314L145.073 31.4734C145.073 31.4734 145.2 31.5262 145.225 31.5807C145.24 31.4817 145.165 31.4198 145.03 31.3149L145.027 31.3314Z" fill="#FFB664"/>
<path d="M144.882 31.0745L144.872 31.141C144.872 31.141 144.936 31.1676 144.882 31.0745Z" fill="#FFB664"/>
<path d="M144.934 31.2846L144.904 31.1451C144.904 31.1451 144.776 30.9908 144.897 31.1946C144.827 31.0997 144.897 31.1946 144.917 31.2821L144.934 31.2846Z" fill="#FFB664"/>
<path d="M144.855 31.256C144.778 31.2106 144.712 31.2007 144.668 31.0423C144.618 31.1528 144.805 31.3665 144.855 31.256Z" fill="#FFB664"/>
<path d="M144.006 30.656L143.898 30.5891L143.946 30.7145C143.946 30.7145 144.078 30.7344 144.006 30.656V30.656Z" fill="#FFB664"/>
<path d="M145.441 31.259C145.441 31.259 145.281 31.1002 145.208 31.022L145.226 31.1256C145.226 31.1256 145.353 31.1783 145.422 31.273L145.441 31.259Z" fill="#FFB664"/>
<path d="M145.207 31.0236L145.164 30.8652C145.164 30.8652 145.152 30.9477 145.207 31.0236Z" fill="#FFB664"/>
<path d="M144.614 30.7309L144.72 31.0328L144.619 30.698L144.614 30.7309Z" fill="#FFB664"/>
<path d="M145.645 31.124L145.738 31.2899L145.611 31.0176L145.645 31.124Z" fill="#FFB664"/>
<path d="M145.75 30.9872C145.828 31.1337 145.955 31.1864 145.991 31.2761C145.999 31.2267 145.953 31.0852 145.902 30.9766C145.925 31.0474 145.89 31.0589 145.75 30.9872Z" fill="#FFB664"/>
<path d="M145.833 30.7793C145.833 30.7793 145.867 30.8857 145.906 30.9592C145.914 30.9097 145.872 30.8527 145.833 30.7793Z" fill="#FFB664"/>
<path d="M145.287 30.8327C145.287 30.8327 145.417 30.9705 145.483 30.9804L145.322 30.8211L145.289 30.8162L145.287 30.8327Z" fill="#FFB664"/>
<path d="M145.308 30.802C145.308 30.802 145.344 30.7904 145.363 30.7763C145.363 30.7763 145.346 30.7738 145.308 30.802Z" fill="#FFB664"/>
<path d="M145.288 30.833C145.288 30.833 145.272 30.8116 145.288 30.833V30.833Z" fill="#FFB664"/>
<path d="M144.894 30.7729C144.829 30.6454 144.818 30.4924 144.618 30.3779C144.696 30.5244 144.804 30.5911 144.894 30.7729Z" fill="#FFB664"/>
<path d="M145.068 30.6157L144.986 30.6033C144.986 30.6033 145.084 30.7361 145.109 30.7906L145.068 30.6157Z" fill="#FFB664"/>
<path d="M145.045 30.5444L145.069 30.6159L145.102 30.6209L145.045 30.5444Z" fill="#FFB664"/>
<path d="M145.593 30.694C145.542 30.585 145.561 30.571 145.585 30.524C145.519 30.5141 145.487 30.5091 145.446 30.5536C145.488 30.6106 145.555 30.722 145.593 30.694Z" fill="#FFB664"/>
<path d="M145.437 30.7388C145.437 30.7388 145.407 30.6975 145.437 30.7388V30.7388Z" fill="#FFB664"/>
<path d="M145.873 30.2814C145.873 30.2814 145.857 30.2789 145.843 30.26L145.871 30.2979L145.873 30.2814Z" fill="#FFB664"/>
<path d="M145.419 30.5169C145.419 30.5169 145.412 30.5667 145.421 30.6191C145.426 30.5859 145.431 30.5526 145.45 30.5385C145.438 30.5027 145.408 30.4811 145.405 30.4977L145.419 30.5169Z" fill="#FFB664"/>
<path d="M145.838 30.6299C145.838 30.6299 145.744 30.582 145.714 30.5605C145.775 30.6035 145.88 30.6869 145.838 30.6299Z" fill="#FFB664"/>
<path d="M145.483 30.7605C145.483 30.7605 145.516 30.7839 145.483 30.7605V30.7605Z" fill="#FFB664"/>
<path d="M145.483 30.7626C145.483 30.7626 145.446 30.6726 145.421 30.6182C145.416 30.6512 145.413 30.6677 145.439 30.7221C145.439 30.7221 145.469 30.7436 145.5 30.765L145.483 30.7626Z" fill="#FFB664"/>
<path d="M145.006 29.0242C145.148 29.197 145.2 29.4068 145.004 29.2594C145.062 29.4363 145.55 29.9811 145.859 30.2634C145.804 30.1877 145.732 30.1095 145.719 29.973C145.63 29.8923 145.417 29.8601 145.346 29.6643C145.352 29.5138 145.444 29.6792 145.552 29.7459C145.344 29.5631 145.391 29.3682 145.119 29.058L145.146 29.2134C145.146 29.2134 145.067 29.067 145.004 29.0406L145.006 29.0242Z" fill="#FFB664"/>
<path d="M145.732 30.3277L145.727 30.3606C145.727 30.3606 145.851 30.4297 145.986 30.5343C145.952 30.4281 145.913 30.3549 145.871 30.2981L145.744 30.363L145.749 30.3301L145.732 30.3277Z" fill="#FFB664"/>
<path d="M145.63 30.4473C145.493 30.2415 145.478 30.1214 145.287 29.9412C145.228 29.9996 145.358 30.137 145.392 30.2431C145.461 30.119 145.44 30.3682 145.599 30.4259C145.608 30.4777 145.589 30.4917 145.584 30.5246C145.617 30.5295 145.666 30.5369 145.711 30.5773C145.711 30.5773 145.666 30.5369 145.697 30.5583C145.697 30.5583 145.655 30.5016 145.641 30.4826C145.707 30.4925 145.685 30.523 145.697 30.5583L145.725 30.5962L145.752 30.4152C145.752 30.4152 145.681 30.4382 145.655 30.5016L145.63 30.4473Z" fill="#FFB664"/>
<path d="M144.35 29.9338C144.35 29.9338 144.38 29.9554 144.394 29.9745C144.399 29.9413 144.369 29.9196 144.35 29.9338Z" fill="#FFB664"/>
<path d="M144.474 30.0023C144.474 30.0023 144.541 30.1133 144.506 30.1248C144.429 30.0796 144.436 30.0302 144.378 29.9709C144.403 30.0253 144.435 30.1478 144.561 30.2005L144.566 30.1676C144.566 30.1676 144.886 30.3841 144.897 30.4195C144.753 30.2632 144.637 30.1446 144.474 30.0023V30.0023Z" fill="#FFB664"/>
<path d="M145.017 30.1696L145.042 30.0051L144.86 29.8767L144.93 29.9713C144.93 29.9713 144.962 30.0939 145.017 30.1696V30.1696Z" fill="#FFB664"/>
<path d="M145.959 30.3784L146.112 30.5866L145.944 30.2583L145.959 30.3784Z" fill="#FFB664"/>
<path d="M146.061 30.259L146.203 30.4323L146.138 30.3044L146.061 30.259Z" fill="#FFB664"/>
<path d="M150.612 23.1221L150.666 23.2152L150.612 23.1221Z" fill="#FFB664"/>
<path d="M148.818 27.9999C148.984 28.1259 149.235 28.3489 149.063 28.1547L148.905 27.9794C148.905 27.9794 148.865 28.0238 148.818 27.9999Z" fill="#FFB664"/>
<path d="M149.825 25.3271L149.765 25.2842C149.765 25.2842 149.843 25.4311 149.885 25.488C149.86 25.4335 149.851 25.3816 149.825 25.3271Z" fill="#FFB664"/>
<path d="M149.244 24.5149L149.398 24.6057C149.398 24.6057 149.307 24.5413 149.244 24.5149Z" fill="#FFB664"/>
<path d="M151.738 21.9974L151.62 21.7771C151.62 21.7771 151.668 21.9025 151.738 21.9974Z" fill="#FFB664"/>
<path d="M147.17 29.25C147.264 29.2979 147.313 29.3054 147.348 29.2938C147.224 29.2245 147.044 29.0792 147.17 29.25Z" fill="#FFB664"/>
<path d="M152.288 25.1266C152.288 25.1266 152.251 25.0366 152.226 24.9822C152.219 25.0317 152.247 25.0696 152.288 25.1266Z" fill="#FFB664"/>
<path d="M147.426 29.2222C147.426 29.2222 147.393 29.2173 147.362 29.1958C147.355 29.2453 147.347 29.2948 147.345 29.3113C147.436 29.3757 147.518 29.3881 147.44 29.2412L147.426 29.2222Z" fill="#FFB664"/>
<path d="M155.842 19.4721C155.842 19.4721 155.842 19.4721 155.875 19.4771C155.861 19.4578 155.861 19.4578 155.842 19.4721Z" fill="#FFB664"/>
<path d="M158.27 20.8307C158.27 20.8307 158.265 20.8639 158.23 20.8756C158.23 20.8756 158.263 20.8806 158.27 20.8307Z" fill="#FFB664"/>
<path d="M145.851 29.3217C145.851 29.3217 145.826 29.2668 145.784 29.2095C145.826 29.2668 145.84 29.286 145.851 29.3217Z" fill="#FFB664"/>
<path d="M146.711 27.8517C146.711 27.8517 146.678 27.8283 146.711 27.8517V27.8517Z" fill="#FFB664"/>
<path d="M146.481 29.9207L146.545 29.9473C146.545 29.9473 146.512 29.9423 146.481 29.9207Z" fill="#FFB664"/>
<path d="M146.556 29.9968C146.556 29.9968 146.539 29.9942 146.522 29.9917C146.534 30.0282 146.565 30.0503 146.556 29.9968Z" fill="#FFB664"/>
<path d="M146.613 29.9405C146.613 29.9405 146.577 29.9521 146.544 29.9471C146.561 29.9496 146.577 29.9521 146.575 29.9687C146.575 29.9687 146.577 29.9521 146.599 29.9213L146.613 29.9405Z" fill="#FFB664"/>
<path d="M154.024 21.4008C154.024 21.4008 154.024 21.4008 154.041 21.4033C154.006 21.2961 154.004 21.3127 154.024 21.4008Z" fill="#FFB664"/>
<path d="M147.885 25.5212L147.882 25.5381L147.899 25.5406L147.885 25.5212Z" fill="#FFB664"/>
<path d="M147.847 25.3147C148.007 25.5912 147.96 25.5673 147.881 25.5385L148.339 26.0619L147.831 25.3123L147.847 25.3147Z" fill="#FFB664"/>
<path d="M151.245 22.5961L151.063 22.4677C150.93 22.1279 151.056 22.1806 150.818 21.9765C151.261 22.5986 150.614 22.2149 151.055 22.8535L150.92 22.749C150.92 22.749 150.925 22.7161 150.927 22.6996C150.626 22.4691 151.188 23.1933 151.022 23.185C150.956 23.1751 150.851 23.0919 150.831 23.0047L150.867 23.212C150.867 23.212 150.764 23.1125 150.799 23.101L150.711 23.2391C150.765 23.3313 150.838 23.5106 150.861 23.5814C150.77 23.5172 150.822 23.5082 150.766 23.4325L150.802 23.6398C150.655 23.4998 150.601 23.3065 150.669 23.3C150.15 22.7338 150.723 23.4933 150.324 23.248L150.342 23.1328C150.037 22.8176 150.064 22.9731 149.835 22.8208C149.938 22.9204 150.39 23.2579 150.426 23.4652C150.365 23.4224 150.327 23.4503 150.373 23.5918C150.206 23.3647 150.21 23.4494 150.167 23.5103L149.959 23.2264C149.974 23.3465 150.085 23.4979 150.147 23.6419C150.077 23.6649 149.891 23.4517 149.735 23.26C149.597 23.2895 150.075 23.5637 150.004 23.7043C149.845 23.6467 149.872 23.8022 149.919 24.0449C149.776 23.9897 149.796 23.8581 149.705 23.7939L149.832 24.0654C149.832 24.0654 149.774 24.0061 149.748 23.9518C149.78 24.0744 149.957 24.2357 149.956 24.3533C150.174 24.6891 149.474 23.9944 149.676 24.4289C149.602 24.3671 149.554 24.2421 149.468 24.145C149.538 24.4584 149.515 24.3877 149.676 24.7653L149.461 24.6319C149.671 24.7982 149.809 25.1051 149.906 25.3552C150.01 25.4384 150.082 25.5166 150.143 25.5594L150.16 25.7806C150.16 25.7806 150.046 25.6457 149.965 25.5157C149.96 25.5486 149.991 25.57 150.004 25.5889C149.883 25.5033 149.774 25.3354 149.684 25.1536C149.745 25.1964 149.787 25.2532 149.864 25.2985C149.76 25.0977 149.623 24.892 149.495 24.7381C149.523 24.7759 149.518 24.8088 149.53 24.8442C149.504 24.7899 149.477 24.7521 149.449 24.7142C149.418 24.6928 149.458 24.766 149.497 24.8393L149.225 24.529L149.323 24.6615L149.035 24.5676C149.193 24.9617 149.482 25.4932 149.428 25.7375C149.283 25.48 149.134 25.3565 148.925 25.0726C149.188 25.331 148.941 24.8563 149.058 24.8571C148.993 24.8472 148.895 24.7147 148.886 24.6629L148.949 25.0257C148.782 24.7986 148.786 24.8833 148.678 24.8166C149.05 25.2429 148.807 25.1893 148.864 25.3662C148.753 25.2148 148.641 25.0634 148.728 25.0429C148.4 24.7745 149.04 25.6452 148.756 25.4172C148.758 25.4007 148.788 25.4221 148.752 25.3324C148.811 25.4929 148.647 25.4681 148.555 25.3027C148.402 25.3133 148.217 25.5378 148.51 25.9353C148.468 25.8785 148.178 25.4646 148.106 25.3864L148.915 26.8041C148.681 26.4659 148 25.7573 147.955 25.4982C147.889 25.4883 147.812 25.443 147.856 25.601C147.916 25.6438 148.26 26.0322 148.269 26.084C147.929 25.7803 148.076 25.9202 147.742 25.6848C147.819 25.7301 148.193 26.2576 148.138 26.283C148.085 26.1909 147.744 25.786 147.721 25.7152L148.002 26.2961C147.968 26.19 147.68 25.8773 147.547 25.7563C147.633 25.8534 147.452 25.8262 147.459 25.8944L147.597 25.9825C147.409 26.0046 148.031 26.7716 147.904 26.8365C147.837 26.7254 147.431 26.193 147.335 26.1617C147.511 26.4407 148.194 27.4692 148.236 27.7448L148.104 27.6238L148.153 27.8501C147.899 27.4247 147.397 26.5245 147.217 26.1608C147.08 26.0727 147.073 26.0045 147.014 26.0628C146.881 25.9418 146.882 25.8242 146.901 25.8102L146.678 25.8439C146.92 26.1327 146.804 26.233 147.001 26.4815L146.916 26.048C147.157 26.3368 147.483 26.9581 147.344 26.9876C147.225 26.8855 146.941 26.4387 146.852 26.3581C146.919 26.4691 146.894 26.6337 146.82 26.5719L146.732 26.3736C146.59 26.3184 146.947 26.8434 146.646 26.613C146.613 26.608 146.276 26.2878 146.398 26.4746C146.703 26.7898 147.539 27.8078 147.731 28.0892C147.699 28.0843 147.344 27.8793 147.181 27.7369C146.932 27.4974 146.745 27.0654 146.524 26.8638C146.58 26.9395 146.644 27.067 146.656 27.1024C146.579 27.0571 146.477 26.8399 146.449 26.9197C146.688 27.225 146.321 26.9846 146.625 27.1986C146.638 27.3352 146.526 27.1838 146.465 27.2586C146.639 27.4364 146.93 27.9515 146.943 28.088C146.888 28.0123 146.799 27.9317 146.755 27.8913C146.628 27.9562 146.455 27.8797 146.344 27.9471C146.286 27.8878 146.159 27.8351 146.081 27.6886C146.106 27.7429 146.173 27.854 146.15 27.9009C145.879 27.6918 146.197 27.8071 145.885 27.5413C146.027 27.7141 145.991 27.8432 146.036 27.9847C146.266 28.2382 146.191 27.9577 146.148 27.7997C146.445 28.1643 146.678 28.6201 146.707 28.8768C146.682 29.0413 146.486 28.6751 146.511 28.7294C146.299 28.7984 146.882 29.4922 146.536 29.339C146.296 29.1513 146.153 28.8773 146.009 28.7209C146.015 28.5704 146.236 28.7721 146.276 28.7277L146.134 28.6725C146.097 28.5828 146.095 28.4816 146.156 28.5244C145.946 28.3581 145.842 28.7126 145.571 28.6212C145.608 28.7109 145.64 28.8334 145.728 28.9141L145.738 28.8483C145.931 29.0121 145.874 29.1717 146 29.2244C146.041 29.3988 146.154 29.6514 146.009 29.6126L145.778 29.3592C145.778 29.3592 145.963 29.4711 145.91 29.379C145.972 29.5229 145.497 29.1147 145.759 29.4908L145.954 29.6381C146.012 29.815 146.178 30.1597 146.049 30.1235C146.281 30.3605 146.037 30.0881 146.333 30.3515C145.984 29.9959 146.519 30.2282 146.119 29.8817C146.456 30.2018 146.325 29.9632 146.639 30.2126C146.567 30.1344 146.476 30.0702 146.58 30.0522C146.549 30.0308 146.54 29.979 146.526 29.96C146.48 29.9361 146.435 29.8958 146.391 29.8555C146.257 29.6333 146.351 29.5635 146.303 29.4384C146.369 29.4483 146.37 29.5495 146.459 29.6301L146.371 29.4318C146.527 29.6236 146.719 29.6862 146.743 29.8581L146.819 29.8022C146.942 29.8714 147.043 29.8698 147.009 29.7637C147.075 29.7736 146.917 29.4807 147.007 29.6625L147.04 29.4486L147.068 29.4865C147.195 29.4216 147.027 28.9756 147.443 29.2235C147.455 29.1412 147.435 29.054 147.533 29.0689L147.694 29.2277C147.692 29.1265 147.973 29.2698 147.847 29.0994C148.271 29.5167 148.162 29.0124 148.294 29.0322L148.127 28.8051C148.127 28.8051 148.198 28.6645 148.202 28.5304L148.046 28.3387C147.977 28.1264 148.313 28.3454 148.394 28.2566C148.45 28.3323 148.414 28.3438 148.354 28.301C148.822 28.6409 148.349 27.7786 148.715 28.019C148.678 27.9293 148.727 27.9368 148.772 27.9771C148.772 27.9771 148.865 28.0248 148.895 28.0462C148.835 28.0034 148.804 27.982 148.774 27.9606C148.777 27.9442 148.784 27.8948 148.796 27.8126L148.968 28.0068C149.062 28.0546 148.92 27.8817 148.776 27.7254C148.767 27.6735 148.742 27.6192 148.716 27.5649C149.019 27.8966 148.711 27.379 149.027 27.7296C148.904 27.5428 149.064 27.4829 148.788 27.0879C148.833 27.1282 148.863 27.1496 148.844 27.1636C148.91 27.1735 148.992 27.1859 148.927 27.0583L149.157 27.3118L148.936 26.8913C149.117 27.0198 149.206 27.1004 149.321 27.3366C149.182 26.9285 149.316 27.1507 149.157 26.7566L149.299 26.9294C149.299 26.9294 149.193 26.6274 149.326 26.7484C149.655 27.0167 149.715 26.5043 150.143 26.6699C149.713 26.1843 150.405 26.8271 150.112 26.4296C150.212 26.5457 150.289 26.591 150.354 26.7185C150.351 26.5161 150.644 26.796 150.45 26.4134C150.55 26.5294 150.571 26.6166 150.629 26.6759C150.634 26.643 150.58 26.5508 150.639 26.6101C150.697 26.6693 150.706 26.7211 150.729 26.7919C150.812 26.6867 150.517 26.3056 150.269 25.9485C150.451 26.0769 150.458 26.0276 150.296 25.7676C150.399 25.8671 150.517 25.9692 150.505 26.0515C150.554 26.0589 150.84 26.0516 150.632 25.7677C150.706 25.8295 150.702 25.7447 150.674 25.7069C150.764 25.6699 150.794 25.6913 150.842 25.5976L150.776 25.5877C150.55 25.2001 150.799 25.4396 150.811 25.3573L150.839 25.3952C151.171 25.5294 150.812 25.2397 151.172 25.4118L151.002 25.2011C150.654 24.728 151.327 25.3848 151.28 25.1421L151.161 25.04C151.09 24.8442 151.752 25.5668 151.848 25.5981C151.892 25.6384 151.887 25.6713 151.896 25.7231C152.221 25.9067 151.69 25.4228 151.743 25.2961C151.873 25.4336 152.019 25.6911 152.087 25.6846C152.206 25.7866 151.878 25.0642 152.179 25.2947C152.077 25.1951 151.977 25.0791 151.943 24.9729C151.957 24.8742 152.447 25.3014 152.225 24.881C152.255 24.9024 152.286 24.9238 152.297 24.9591C152.265 24.8366 152.337 24.6959 152.205 24.4573C152.802 25.17 152.226 23.8716 152.741 24.5719L152.864 24.4223L152.904 24.4955C153.023 24.4799 152.936 24.2817 152.846 24.0998C152.909 24.1262 152.93 24.2134 152.957 24.2512C153.187 24.2859 153.192 24.253 153.055 23.8285L153.222 24.0556C153.162 23.8951 153.677 24.259 153.615 23.8962C153.629 23.9151 153.654 23.9694 153.682 24.0073C153.638 23.6305 154.481 24.3803 153.958 23.5106L153.916 23.235C153.745 23.2596 153.687 22.8639 153.535 22.7569C153.548 22.6746 153.832 22.9026 153.801 22.9988L153.756 22.9585C154.041 23.4053 154.019 22.9981 154.225 23.2985C154.457 23.0979 154.869 23.1433 155.124 23.0135L154.871 22.6893L154.96 22.6523C155.035 22.714 155.174 22.9033 155.103 22.9263C155.261 23.1016 155.086 22.705 155.05 22.6153C155.258 22.6804 155.271 23.0358 155.306 23.0243L155.349 22.9634L155.305 22.9231C155.245 22.7627 155.15 22.6137 155.24 22.5768C155.336 22.6081 155.412 22.771 155.428 22.7735C155.442 22.7924 155.456 22.8113 155.461 22.7784L155.586 22.7299L155.353 22.4929C155.31 22.335 155.462 22.442 155.217 22.1696C155.606 22.5983 155.734 22.0794 155.867 22.2003C155.803 21.9552 155.876 21.9157 155.963 21.8952C155.903 21.8524 155.697 21.5521 155.797 21.5505C156.186 22.198 156.106 21.7316 156.461 22.1554C156.217 21.883 156.608 21.9589 156.264 21.5704C156.346 21.5828 156.412 21.8115 156.561 21.935C156.545 21.5961 156.97 21.8957 157.082 21.7107C157.026 21.635 156.926 21.519 156.883 21.361L157.232 21.7165C157.232 21.7165 156.971 21.2228 157.203 21.4599C157.145 21.4006 157.062 21.2871 157.067 21.2542C157.659 21.4445 157.571 20.4721 158.375 21.0311C158.229 20.8912 158.25 20.8607 158.288 20.8328C158.241 20.8089 158.167 20.6295 158.084 20.516L158.417 20.7514C158.251 20.4067 158.552 20.6371 158.4 20.3113L158.388 20.3936C158.245 20.0019 157.831 19.6365 157.581 19.1782C157.749 19.6241 157.037 18.6753 157.27 19.35C157.182 19.2693 157.194 19.187 157.125 19.0924C157.21 19.3071 157.2 19.3729 157.09 19.3227L157.065 19.2684C156.906 19.4296 156.71 19.2822 156.424 19.2895L156.575 19.5141C156.575 19.5141 156.467 19.4474 156.407 19.4046C156.568 19.7823 156.55 19.3422 156.723 19.7552C156.384 19.3339 156.409 19.9434 156.047 19.4513C155.974 19.4908 156.228 19.6974 156.155 19.7368L156.041 19.6019L156.145 19.8026C156.145 19.8026 155.952 19.6388 155.868 19.5253C155.868 19.5253 155.876 19.4759 155.878 19.4595C155.715 19.3171 155.753 19.6256 155.692 19.5828L155.818 19.6355C155.713 19.8888 155.366 19.8532 155.372 20.2579L155.458 20.3551C155.448 20.6397 155.277 20.3278 155.185 20.4989L155.19 20.466C155.205 20.5861 155.209 20.6708 155.157 20.6798C155.112 20.5383 154.936 20.4782 154.893 20.3202C154.881 20.6213 154.929 20.5275 155.077 20.9874L154.95 20.8335C155.007 21.0104 155.076 21.1051 155.029 21.1988C154.99 21.008 154.812 20.9643 154.749 20.7191C154.338 20.4384 154.77 21.2439 154.326 20.7395C154.566 21.2636 154.634 20.9206 154.666 21.0432C154.796 21.1806 154.841 21.4397 154.759 21.4274C154.708 21.4364 154.257 20.8636 154.144 20.9475C154.16 20.95 154.151 20.8981 154.151 20.8981C154.03 20.8125 154.168 21.1194 153.972 20.9721C154.127 21.2814 153.885 20.9926 154.129 21.3826L154.186 21.2231C154.183 21.3571 154.413 21.8294 154.166 21.6911C154.127 21.6179 154.095 21.4953 154.072 21.4245C153.967 21.3414 154.055 21.5397 153.952 21.4401C153.707 21.0665 154.045 21.2691 153.926 20.9482C153.793 20.8272 153.972 21.3085 153.734 20.8856C154.023 21.4171 153.565 20.8937 153.749 21.3421L153.598 21.1175C153.598 21.1175 153.655 21.2944 153.623 21.2894L153.468 20.98C153.559 21.2631 153.185 20.8532 153.21 21.0251C153.342 20.9273 153.426 21.2597 153.591 21.3856C153.63 21.7953 153.098 20.8737 152.993 21.127C153 21.0777 153.168 21.1872 153.2 21.3098C153.135 21.2999 153.027 21.2332 152.925 21.1336C152.837 21.2717 153.094 21.3443 153.135 21.5187C152.902 21.2816 153.146 21.6717 153.161 21.7918L153.01 21.5671C152.764 21.53 153.288 22.0633 153.049 21.9768L152.883 21.6321L152.863 21.7637L152.718 21.5061C152.784 21.7348 152.721 21.7085 152.606 21.6911C152.736 21.8286 152.879 22.1026 152.823 22.1445C152.687 22.04 152.705 21.9248 152.641 22.0161C152.562 21.8696 152.475 21.6713 152.665 21.8516C152.626 21.7783 152.587 21.7051 152.531 21.6294C152.382 21.5059 152.39 21.6754 152.369 21.7058C152.385 21.7083 152.418 21.7133 152.451 21.7182L152.541 22.1189C152.467 22.0571 152.43 21.9674 152.407 21.8967C152.4 21.946 152.45 22.0546 152.426 22.1015C152.32 21.9172 152.181 21.7279 152.166 21.6078L152.172 21.8949C152.172 21.8949 151.963 21.7287 151.923 21.6554C151.781 21.6002 152.004 22.1219 151.815 22.0428C151.843 22.0807 151.854 22.116 151.846 22.1654C151.743 22.1834 151.498 22.0287 151.585 22.3446L151.291 22.0647C151.271 22.1964 151.659 22.4063 151.627 22.6202C151.602 22.7847 151.397 22.3667 151.289 22.3C151.36 22.4958 151.522 22.8735 151.249 22.6808C151.228 22.5936 151.289 22.6364 151.296 22.5871L151.245 22.5961ZM150.398 23.4273C150.398 23.4273 150.313 23.2126 150.415 23.3122C150.577 23.5722 150.475 23.4726 150.398 23.4273ZM149.385 25.0243C149.385 25.0243 149.395 24.9585 149.467 25.0367C149.462 25.0696 149.446 25.0671 149.385 25.0243ZM146.717 29.585C146.83 29.6188 146.783 29.5949 146.717 29.585V29.585ZM146.57 29.5627C146.57 29.5627 146.609 29.636 146.623 29.6549C146.597 29.6006 146.6 29.5841 146.635 29.5726C146.593 29.5159 146.547 29.492 146.57 29.5627ZM155.351 22.7282L155.291 22.6854C155.287 22.6006 155.296 22.6525 155.351 22.7282Z" fill="#FFB664"/>
<path d="M149.313 24.6104C149.313 24.6104 149.386 24.6894 149.414 24.7276C149.386 24.6894 149.36 24.6345 149.313 24.6104Z" fill="#FFB664"/>
<path d="M151.765 22.0361L151.737 21.9983L151.765 22.0361Z" fill="#FFB664"/>
<path d="M146.372 26.7567C146.372 26.7567 146.449 26.8021 146.494 26.8426C146.449 26.8021 146.407 26.7452 146.372 26.7567Z" fill="#FFB664"/>
<path d="M146.414 30.2642L146.429 30.1645C146.429 30.1645 146.363 30.1545 146.313 30.147C146.355 30.2043 146.431 30.2667 146.411 30.2808L146.414 30.2642Z" fill="#FFB664"/>
<path d="M144.911 29.3296C144.911 29.3296 144.908 29.3461 144.903 29.3791L144.989 29.4765C144.989 29.4765 144.976 29.3395 144.911 29.3296Z" fill="#FFB664"/>
<path d="M145.791 29.6127C145.649 29.4394 145.653 29.5244 145.643 29.5904C145.841 29.8396 145.807 29.7332 145.775 29.6102L145.791 29.6127Z" fill="#FFB664"/>
<path d="M145.659 29.5927C145.659 29.5927 145.654 29.6259 145.621 29.6209C145.689 29.7331 145.654 29.6259 145.659 29.5927Z" fill="#FFB664"/>
<path d="M146.539 29.7609C146.539 29.7609 146.707 29.9887 146.648 29.9293C146.813 30.1735 146.536 29.558 146.539 29.7609Z" fill="#FFB664"/>
<path d="M145.288 29.0498L145.491 29.266L145.37 29.0622L145.288 29.0498Z" fill="#FFB664"/>
<path d="M145.718 28.9788L145.603 28.9614C145.603 28.9614 145.645 29.0184 145.656 29.0538C145.694 29.0258 145.76 29.0358 145.718 28.9788V28.9788Z" fill="#FFB664"/>
<path d="M145.656 29.0542C145.656 29.0542 145.618 29.0825 145.644 29.1373C145.644 29.1373 145.682 29.1091 145.656 29.0542Z" fill="#FFB664"/>
<path d="M145.325 28.9194L145.372 28.9436L145.424 28.9344L145.325 28.9194Z" fill="#FFB664"/>
<path d="M146.377 28.5082L146.394 28.3927C146.394 28.3927 146.277 28.2739 146.286 28.3258C146.309 28.3968 146.321 28.4323 146.377 28.5082Z" fill="#FFB664"/>
<path d="M145.705 28.07C145.705 28.07 145.793 28.1509 145.868 28.2128L145.656 27.9446L145.705 28.07V28.07Z" fill="#FFB664"/>
<path d="M145.821 27.8517C145.821 27.8517 145.746 27.5704 145.668 27.6429C145.723 27.7188 145.706 27.8343 145.821 27.8517Z" fill="#FFB664"/>
<path d="M147.06 27.4151L147.041 27.429L147.411 27.8718L147.06 27.4151Z" fill="#FFB664"/>
<path d="M147.057 25.6659C146.896 25.6246 147.263 25.9662 147.093 25.8732C147.157 26.0007 147.233 25.9448 147.284 26.0534C147.24 25.8955 147.301 25.9383 147.057 25.6659V25.6659Z" fill="#FFB664"/>
<path d="M147.283 26.0532C147.283 26.0532 147.309 26.1081 147.32 26.1438C147.325 26.1106 147.297 26.0723 147.283 26.0532Z" fill="#FFB664"/>
<path d="M158.617 20.9845L158.724 21.0514L158.594 20.9136L158.617 20.9845Z" fill="#FFB664"/>
<path d="M158.514 20.5475L158.704 20.8454L158.566 20.5385C158.566 20.5385 158.556 20.6043 158.5 20.5286L158.514 20.5475Z" fill="#FFB664"/>
<path d="M149.815 22.9509L149.871 23.0269C149.871 23.0269 149.946 23.0888 149.979 23.0937L149.813 22.9674L149.815 22.9509Z" fill="#FFB664"/>
<path d="M150.665 22.6602L150.879 22.9119L150.665 22.6602Z" fill="#FFB664"/>
<path d="M150.999 21.887C150.999 21.887 150.986 21.9695 150.951 21.9811C150.963 21.8986 151.252 22.2122 150.999 21.887Z" fill="#FFB664"/>
<path d="M150.334 41.8411C150.334 41.8411 150.222 42.0267 150.201 42.0572C150.255 42.0316 150.361 41.7776 150.334 41.8411Z" fill="#FFB664"/>
<path d="M150.9 41.5384L150.852 41.6324L151.016 41.4378L150.9 41.5384Z" fill="#FFB664"/>
<path d="M151.194 41.7005C151.366 41.3394 151.06 41.6971 151.066 41.5466L151.112 41.4693L150.936 41.7456C151.023 41.7251 151.212 41.5853 151.192 41.7169L151.194 41.7005Z" fill="#FFB664"/>
<path d="M151.399 41.3449L151.416 41.2294L151.333 41.335C151.374 41.2904 151.33 41.4694 151.399 41.3449Z" fill="#FFB664"/>
<path d="M151.511 42.1536C151.594 42.0484 151.726 41.9506 151.759 41.7367C151.671 41.8749 151.653 41.99 151.511 42.1536Z" fill="#FFB664"/>
<path d="M152.884 41.4C152.786 41.604 152.646 41.7512 152.697 41.5233C152.577 41.6565 152.292 42.3202 152.15 42.7027C152.195 42.6253 152.241 42.548 152.34 42.4453C152.374 42.3326 152.352 42.1442 152.478 41.9781C152.589 41.9107 152.498 42.0653 152.478 42.1969C152.567 41.9411 152.727 41.8812 152.902 41.5037L152.786 41.604C152.786 41.604 152.874 41.4658 152.884 41.4Z" fill="#FFB664"/>
<path d="M152.042 41.3069C152.042 41.3069 152.037 41.3401 152.035 41.3568C152.057 41.326 152.076 41.3119 152.042 41.3069Z" fill="#FFB664"/>
<path d="M152.003 41.4527C152.003 41.4527 151.936 41.5605 151.925 41.5251C151.937 41.4428 151.975 41.4149 152.018 41.354C151.978 41.3984 151.897 41.4872 151.877 41.6188L151.882 41.5859C151.903 41.6731 151.823 41.9808 151.785 42.0087C151.864 41.8187 151.938 41.6616 152.001 41.4692L152.003 41.4527Z" fill="#FFB664"/>
<path d="M152.008 41.9753L152.135 41.9104L152.2 41.7015L152.15 41.8117C152.15 41.8117 152.072 41.884 152.027 41.9613L152.008 41.9753Z" fill="#FFB664"/>
<path d="M156.353 41.6379C156.227 41.9216 156.218 41.8698 156.211 41.8015L156.008 42.4776L156.353 41.6379Z" fill="#FFB664"/>
<path d="M155.126 33.9957L155.037 33.7963C155.025 33.4373 155.088 33.5406 154.972 33.245C155.126 33.9957 154.782 33.3671 154.932 34.1018L154.856 33.9504C154.856 33.9504 154.847 33.9183 154.879 33.9094C154.734 33.5702 154.944 34.4607 154.817 34.3752C154.768 34.32 154.721 34.2123 154.747 34.1188L154.715 34.3174C154.715 34.3174 154.676 34.1731 154.68 34.1892L154.582 34.2685C154.576 34.3736 154.576 34.5633 154.578 34.6318C154.531 34.5241 154.572 34.5472 154.55 34.4671L154.534 34.6613C154.482 34.4689 154.481 34.2792 154.538 34.2979C154.336 33.5605 154.522 34.492 154.324 34.0816L154.366 33.9836C154.251 33.5668 154.243 33.7245 154.141 33.4769C154.176 33.6051 154.385 34.1163 154.337 34.3193C154.32 34.2552 154.283 34.2481 154.275 34.4058C154.237 34.1404 154.222 34.2134 154.158 34.2312L154.093 33.8697C154.072 33.9792 154.104 34.16 154.096 34.3177C154.039 34.299 153.98 34.022 153.951 33.7887C153.869 33.7424 154.069 34.2215 153.987 34.2963C153.899 34.1654 153.875 34.3276 153.832 34.5467C153.764 34.4273 153.806 34.3294 153.78 34.2332L153.791 34.5235C153.791 34.5235 153.764 34.4273 153.756 34.3953C153.734 34.5048 153.8 34.7453 153.762 34.8593C153.804 35.2618 153.56 34.3117 153.547 34.7641C153.52 34.6679 153.538 34.5423 153.498 34.3981C153.441 34.6902 153.455 34.6172 153.428 35.0215L153.33 34.79C153.401 35.0465 153.388 35.3778 153.374 35.6405C153.409 35.7688 153.44 35.881 153.453 35.9291L153.385 36.1206C153.385 36.1206 153.369 35.9353 153.366 35.7982C153.375 35.8302 153.363 35.8507 153.372 35.8828C153.321 35.759 153.316 35.5533 153.311 35.3475C153.333 35.4277 153.351 35.4918 153.373 35.572C153.363 35.3502 153.35 35.1124 153.329 34.9111C153.342 34.9592 153.315 34.9842 153.303 35.0047C153.29 34.9566 153.288 34.888 153.295 34.8515C153.287 34.8194 153.304 34.8835 153.283 34.9931L153.209 34.5995L153.249 34.7437L153.082 34.514C153.04 34.9228 153.05 35.524 152.925 35.6968C152.93 35.402 152.882 35.2257 152.837 34.8757C152.934 35.2284 152.914 34.7163 153 34.7786C152.955 34.7394 152.943 34.5702 152.962 34.5132L152.885 34.8623C152.858 34.5765 152.828 34.654 152.797 34.5418C152.883 35.1046 152.746 34.9185 152.71 35.1011C152.693 34.9159 152.673 34.7146 152.754 34.7609C152.64 34.3441 152.729 35.4235 152.633 35.0709C152.633 35.0709 152.657 35.0985 152.663 34.9934C152.643 35.1715 152.539 35.0451 152.548 34.8874C152.446 34.8296 152.247 34.9196 152.274 35.3952C152.256 35.3311 152.236 34.819 152.226 34.7183L152.187 36.3339C152.162 35.9269 152.034 34.9616 152.105 34.7175C152.088 34.6534 152.038 34.5982 152.009 34.7443C152.027 34.8084 152.099 35.3231 152.08 35.3801C151.989 34.9224 152.014 35.1397 151.909 34.755C151.935 34.8512 151.97 35.4799 151.913 35.4612C151.919 35.3562 151.858 34.8209 151.877 34.7639L151.827 35.3989C151.849 35.2894 151.803 34.8708 151.75 34.6785C151.785 34.8067 151.661 34.6687 151.647 34.7417L151.687 34.886C151.576 34.7961 151.639 35.7793 151.525 35.742C151.527 35.6208 151.511 34.9351 151.457 34.8638C151.46 35.1907 151.437 36.4224 151.334 36.6754L151.318 36.4902L151.254 36.6977C151.275 36.2087 151.356 35.1854 151.398 34.7766C151.359 34.6323 151.373 34.5593 151.309 34.5771C151.265 34.4168 151.323 34.3144 151.339 34.3099L151.208 34.2085C151.225 34.5834 151.109 34.5986 151.14 34.9005L151.271 34.5014C151.288 34.8764 151.24 35.58 151.138 35.5221C151.099 35.3779 151.127 34.8524 151.123 34.7152C151.111 34.8569 151.037 34.9638 151.031 34.8792L151.062 34.6805C151.007 34.5407 150.993 35.1829 150.913 34.8258C150.888 34.7982 150.833 34.3476 150.842 34.5693C150.893 35.0039 150.948 36.3345 150.935 36.6658C150.927 36.6337 150.789 36.2579 150.764 36.0406C150.724 35.7067 150.797 35.2204 150.754 34.939C150.765 35.0396 150.732 35.1696 150.74 35.2017C150.718 35.1215 150.737 34.8748 150.686 34.9408C150.687 35.3202 150.577 34.9194 150.674 35.2721C150.632 35.3701 150.62 35.2009 150.556 35.2187C150.59 35.468 150.511 36.0594 150.473 36.1735C150.479 36.0684 150.464 35.9517 150.446 35.8876C150.337 35.8663 150.289 35.6899 150.184 35.6846C150.158 35.5885 150.127 35.4763 150.151 35.3142C150.137 35.3872 150.12 35.5128 150.088 35.5217C150.032 35.1922 150.159 35.4673 150.101 35.0693C150.095 35.2955 150.032 35.3819 149.983 35.5164C149.991 35.8593 150.089 35.5903 150.118 35.4442C150.129 35.9242 150.04 36.415 149.945 36.6315C149.855 36.7428 149.914 36.3296 149.879 36.391C149.716 36.2985 149.745 37.222 149.616 36.8783C149.569 36.5809 149.622 36.2727 149.613 36.0509C149.683 35.928 149.718 36.2459 149.766 36.2325L149.727 36.0883C149.737 35.9992 149.783 35.9173 149.81 36.0134C149.767 35.732 149.551 35.9476 149.432 35.7046C149.406 35.7981 149.369 35.9121 149.383 36.0288L149.423 35.9833C149.457 36.2327 149.342 36.3164 149.393 36.4402C149.337 36.6112 149.27 36.8713 149.199 36.736L149.191 36.3931C149.185 36.4982 149.248 36.6015 149.253 36.4964C149.209 36.6469 149.142 36.0271 149.112 36.484L149.178 36.7244C149.106 36.8999 149.034 37.2651 148.971 37.1618C148.995 37.5002 148.994 37.1208 149.02 37.5278C148.988 37.0362 149.197 37.5473 149.141 37.0281C149.18 37.4832 149.21 37.216 149.267 37.6141C149.269 37.493 149.258 37.3923 149.292 37.452C149.283 37.4199 149.306 37.379 149.318 37.3585C149.318 37.3585 149.313 37.3424 149.318 37.3585C149.305 37.3104 149.291 37.2623 149.29 37.1937C149.324 36.9426 149.413 36.9523 149.442 36.8062C149.475 36.8659 149.425 36.9318 149.444 37.0645L149.491 36.8614C149.489 37.1037 149.59 37.2827 149.492 37.4305L149.565 37.4448C149.605 37.589 149.67 37.6398 149.708 37.5257C149.726 37.5899 149.786 37.2452 149.754 37.4438L149.868 37.2914L149.885 37.3556C149.885 37.3556 150.081 36.9387 150.224 37.3991C150.259 37.3376 150.289 37.2601 150.359 37.3269L150.368 37.5486C150.368 37.5486 150.514 37.7668 150.537 37.5361C150.595 38.1239 150.777 37.6589 150.856 37.7577L150.845 37.4674C150.845 37.4674 150.965 37.3996 151.018 37.2812L151 37.0273C151.048 36.8243 151.169 37.2045 151.261 37.1617C151.255 37.2668 151.23 37.2392 151.213 37.1751C151.367 37.7361 151.44 36.7493 151.566 37.1455C151.592 37.052 151.617 37.0796 151.635 37.1437C151.648 37.1918 151.661 37.2399 151.674 37.288C151.657 37.2239 151.643 37.1758 151.635 37.1437C151.651 37.1393 151.694 37.1099 151.709 37.0368L151.731 37.3067C151.757 37.4029 151.744 37.1651 151.727 36.9798C151.719 36.9478 151.749 36.8703 151.752 36.8177C151.802 37.2523 151.813 36.6627 151.888 37.1249C151.894 36.8987 152.028 36.9476 152.001 36.4721C152.019 36.5362 152.028 36.5682 151.996 36.5772C152.045 36.6323 152.074 36.676 152.092 36.5504L152.136 36.9004L152.177 36.423C152.234 36.6314 152.265 36.7436 152.235 37.0108C152.31 36.5931 152.312 36.8513 152.371 36.4381L152.38 36.6598C152.38 36.6598 152.449 36.3472 152.481 36.528C152.596 36.9447 152.832 36.551 153.07 36.916C152.962 36.273 153.181 37.1956 153.129 36.6925C153.169 36.8367 153.195 36.9329 153.178 37.0585C153.255 36.899 153.344 37.2882 153.362 36.8518C153.386 37.0005 153.355 37.078 153.382 37.1742C153.373 37.1421 153.394 37.0326 153.421 37.1287C153.447 37.2249 153.424 37.2659 153.405 37.3229C153.501 37.2961 153.454 36.809 153.403 36.3744C153.46 36.5828 153.504 36.5534 153.505 36.2425C153.544 36.3868 153.584 36.5311 153.533 36.597C153.574 36.6201 153.759 36.7928 153.71 36.4268C153.737 36.523 153.751 36.4499 153.758 36.4134C153.831 36.4276 153.84 36.4597 153.911 36.4053L153.893 36.3412C153.843 35.9066 153.935 36.2432 153.97 36.1818L153.983 36.2299C154.147 36.5121 154.008 36.0678 154.2 36.3936L154.162 36.1283C154.088 35.5449 154.334 36.4426 154.373 36.2074L154.334 36.0632C154.329 35.8574 154.577 36.8236 154.626 36.8788C154.639 36.9269 154.616 36.9679 154.609 37.0044C154.781 37.3187 154.565 36.6544 154.643 36.5636C154.696 36.7559 154.707 37.0462 154.779 37.0605C154.819 37.2047 154.829 36.4254 154.974 36.7647C154.934 36.6204 154.895 36.4762 154.916 36.3666C154.967 36.3007 155.178 36.8804 155.139 36.4253C155.148 36.4574 155.161 36.5055 155.17 36.5375C155.187 36.4119 155.281 36.3166 155.247 36.0672C155.477 36.9693 155.437 35.5657 155.617 36.4126L155.736 36.3449L155.758 36.425C155.852 36.4508 155.831 36.2496 155.826 36.0438C155.839 36.0919 155.861 36.1721 155.874 36.2201C156.046 36.3448 156.054 36.3082 156.056 35.8763L156.13 36.1488C156.118 35.9796 156.425 36.5325 156.465 36.1763C156.474 36.2083 156.487 36.2564 156.48 36.2929C156.54 35.9482 157.022 36.9526 156.802 35.9615L156.832 35.6943C156.698 35.6454 156.713 35.2615 156.637 35.1101C156.668 35.0326 156.849 35.379 156.798 35.4449L156.785 35.3968C156.893 35.9187 156.977 35.533 157.074 35.8857C157.309 35.8027 157.612 36.0288 157.836 35.9664L157.678 35.579L157.758 35.5567C157.805 35.6645 157.883 35.8844 157.83 35.8818C157.924 36.0973 157.857 35.6671 157.835 35.587C157.987 35.7 157.947 36.0563 157.963 36.0518L158.002 36.0064L157.989 35.9583C157.961 35.7935 157.897 35.6217 157.981 35.6154C158.051 35.6822 158.079 35.8469 158.099 35.8585C158.108 35.8906 158.108 35.8906 158.115 35.854L158.22 35.8593L158.088 35.5682C158.076 35.399 158.168 35.5459 158.012 35.2271C158.258 35.7453 158.428 35.3008 158.52 35.4478C158.502 35.1939 158.566 35.1761 158.639 35.1903C158.589 35.1351 158.461 34.7914 158.538 34.8216C158.784 35.5296 158.765 35.0861 159.006 35.5883C158.834 35.2739 159.156 35.443 158.892 34.9818C158.973 35.0281 158.998 35.2454 159.106 35.3878C159.123 35.0725 159.45 35.4474 159.563 35.295C159.537 35.1988 159.449 35.068 159.425 34.9192L159.692 35.3279C159.692 35.3279 159.495 34.7963 159.695 35.0857C159.657 35.01 159.594 34.9067 159.597 34.8541C160.079 35.1683 160.029 34.2332 160.701 34.9258C160.573 34.7718 160.6 34.7468 160.628 34.7219C160.587 34.6988 160.53 34.4904 160.463 34.3711L160.747 34.6542C160.602 34.3149 160.862 34.5704 160.722 34.2472L160.707 34.3202C160.565 33.9284 160.23 33.5215 159.993 33.0353C160.153 33.4913 159.545 32.47 159.758 33.1183C159.699 33.031 159.714 32.958 159.631 32.8431C159.692 33.0675 159.705 33.1156 159.603 33.0578L159.586 32.9937C159.464 33.1139 159.311 32.9323 159.1 32.8531L159.218 33.0962C159.218 33.0962 159.128 33.0179 159.094 32.9582C159.2 33.3429 159.19 32.9315 159.341 33.3554C159.072 32.8781 159.094 33.4588 158.819 32.8969C158.771 32.9103 158.962 33.1676 158.898 33.1854L158.822 33.0341L158.879 33.2424C158.879 33.2424 158.754 33.0359 158.703 32.9121C158.703 32.9121 158.705 32.8595 158.721 32.8551C158.609 32.6966 158.631 32.9665 158.582 32.9113L158.672 32.9896C158.593 33.2016 158.352 33.0788 158.328 33.4306L158.359 33.5428C158.357 33.785 158.244 33.4369 158.167 33.5963L158.158 33.5643C158.194 33.6925 158.163 33.77 158.127 33.7629C158.103 33.6142 157.972 33.5127 157.96 33.3435C157.93 33.6107 157.965 33.5492 158.056 34.0069L157.971 33.8235C158.004 34.0043 158.046 34.096 158 34.178C157.983 33.9927 157.852 33.8912 157.823 33.6579C157.56 33.2653 157.786 34.1513 157.518 33.553C157.64 34.1229 157.73 33.8218 157.733 33.959C157.813 34.1264 157.815 34.3847 157.77 34.3455C157.722 34.3589 157.465 33.6714 157.373 33.7142C157.373 33.7142 157.36 33.6661 157.365 33.6822C157.277 33.5513 157.353 33.8923 157.228 33.6858C157.32 34.0224 157.164 33.7036 157.294 34.1159L157.348 33.9974C157.331 34.123 157.439 34.6449 157.277 34.4312C157.255 34.3511 157.252 34.2139 157.251 34.1453C157.183 34.026 157.225 34.2388 157.157 34.1195C157.039 33.6867 157.243 33.9921 157.199 33.6421C157.118 33.4747 157.191 33.9895 157.079 33.5202C157.242 34.1133 156.966 33.4828 157.025 33.9495L156.954 33.693C156.954 33.693 156.966 33.8622 156.95 33.8667L156.89 33.5212C156.921 33.8231 156.712 33.3119 156.708 33.4856C156.82 33.4544 156.824 33.7812 156.924 33.9602C156.893 34.3485 156.644 33.3137 156.535 33.4821C156.538 33.4296 156.654 33.6041 156.658 33.7412C156.613 33.7021 156.55 33.5988 156.499 33.475C156.416 33.5499 156.585 33.727 156.597 33.8962C156.481 33.6006 156.584 34.0378 156.563 34.1474L156.488 33.8749C156.327 33.7298 156.605 34.4288 156.452 34.2472L156.399 33.8651L156.361 33.9792L156.282 33.6906C156.296 33.9284 156.262 33.8688 156.192 33.802C156.241 33.9783 156.324 34.2829 156.26 34.3007C156.184 34.1493 156.21 34.0558 156.155 34.1057C156.111 33.9454 156.086 33.7281 156.184 33.9596C156.162 33.8795 156.14 33.7993 156.134 33.7147C156.054 33.5473 156.041 33.689 156.009 33.6979C156.009 33.6979 156.034 33.7255 156.058 33.7531L156.043 34.1369C156.017 34.0408 155.995 33.9606 155.973 33.8805C155.966 33.917 155.98 34.0336 155.957 34.0746C155.9 33.8662 155.839 33.6418 155.876 33.5278L155.842 33.779C155.815 33.6828 155.723 33.5359 155.717 33.4513C155.634 33.3364 155.683 33.8922 155.575 33.7497C155.584 33.7818 155.597 33.8299 155.574 33.8708C155.497 33.8406 155.374 33.5815 155.362 33.9128L155.224 33.537C155.182 33.635 155.388 34.009 155.316 34.1844C155.271 34.335 155.228 33.8639 155.165 33.7606C155.17 33.9663 155.196 34.3733 155.044 34.0706C155.058 33.9975 155.092 34.0572 155.099 34.0207L155.126 33.9957ZM154.353 34.3149C154.353 34.3149 154.356 34.0726 154.4 34.2329C154.435 34.5509 154.396 34.4066 154.353 34.3149ZM153.19 35.157C153.184 35.0724 153.213 35.116 153.255 35.2077C153.244 35.2282 153.223 35.2167 153.19 35.157ZM149.581 37.2506C149.607 37.3468 149.594 37.2987 149.581 37.2506V37.2506ZM149.498 37.1357C149.498 37.1357 149.483 37.2088 149.492 37.2408C149.506 37.1678 149.522 37.1633 149.547 37.1909C149.53 37.1268 149.516 37.0787 149.514 37.1313L149.498 37.1357ZM158.084 35.7418L158.067 35.6777C158.067 35.6777 158.067 35.6777 158.084 35.7418Z" fill="#FFB664"/>
<path d="M154.908 41.3206C154.908 41.3206 154.893 41.4195 154.885 41.469C154.895 41.403 154.919 41.356 154.908 41.3206Z" fill="#FFB664"/>
<path d="M152.62 41.4789C152.62 41.4789 152.62 41.4789 152.583 41.507L152.532 41.6175C152.532 41.6175 152.627 41.5474 152.62 41.4789Z" fill="#FFB664"/>
<path d="M152.945 41.664L152.839 41.9173L152.953 41.7158L152.945 41.664Z" fill="#FFB664"/>
<path d="M153.052 41.6123L153.042 41.6788L153.054 41.7145L153.052 41.6123Z" fill="#FFB664"/>
<path d="M153.777 41.4856C153.777 41.4856 153.76 41.6007 153.712 41.6945L153.844 41.3779L153.758 41.4996L153.777 41.4856Z" fill="#FFB664"/>
<path d="M153.962 41.4792C154.01 41.3852 154.161 41.2731 154.079 41.2606C154.034 41.3382 153.942 41.3917 153.962 41.4792Z" fill="#FFB664"/>
<path d="M155.859 41.2437C155.848 41.0907 155.725 41.5768 155.719 41.3909C155.65 41.5151 155.73 41.5439 155.666 41.6352C155.749 41.5299 155.753 41.6147 155.859 41.2437V41.2437Z" fill="#FFB664"/>
<path d="M155.667 41.6361C155.667 41.6361 155.643 41.6835 155.621 41.7142C155.643 41.6835 155.662 41.6694 155.667 41.6361Z" fill="#FFB664"/>
<path d="M159.578 41.7228C159.578 41.7228 159.521 41.7649 159.505 41.7624C159.564 41.7038 159.499 42.1328 159.578 41.7228Z" fill="#FFB664"/>
<path d="M138.191 26.84C138.191 26.84 138.4 26.9052 138.432 26.9102C138.388 26.8698 138.125 26.83 138.191 26.84Z" fill="#FFB664"/>
<path d="M137.755 26.389L137.838 26.4014L137.615 26.3171L137.755 26.389Z" fill="#FFB664"/>
<path d="M137.821 26.0626C137.428 26.0032 137.853 26.1852 137.712 26.2312L137.63 26.2188L137.934 26.3152C137.897 26.2255 137.716 26.0971 137.838 26.0651L137.821 26.0626Z" fill="#FFB664"/>
<path d="M138.71 26.0787C138.561 26.0561 138.585 26.0088 138.655 26.1044L138.688 26.1094C138.688 26.1094 138.688 26.1094 138.693 26.0762L138.71 26.0787Z" fill="#FFB664"/>
<path d="M138.63 25.9315L138.754 26.0006C138.852 26.0155 138.876 25.9686 138.937 26.0114C138.878 25.9522 138.78 25.9373 138.63 25.9315Z" fill="#FFB664"/>
<path d="M138.36 25.824L138.422 25.8672C138.422 25.8672 138.471 25.8747 138.36 25.824Z" fill="#FFB664"/>
<path d="M138.53 25.934L138.424 25.8506C138.424 25.8506 138.227 25.8208 138.469 25.8911C138.354 25.8737 138.469 25.8911 138.546 25.9365L138.53 25.934Z" fill="#FFB664"/>
<path d="M138.458 25.9549C138.374 25.959 138.303 25.982 138.18 25.9128C138.214 26.019 138.493 26.0611 138.458 25.9549Z" fill="#FFB664"/>
<path d="M137.418 25.9507L137.298 25.9663L137.425 26.0192C137.425 26.0192 137.533 25.9681 137.435 25.9532L137.418 25.9507Z" fill="#FFB664"/>
<path d="M138.902 25.6857C138.902 25.6857 138.673 25.651 138.574 25.6362L138.651 25.6815C138.651 25.6815 138.773 25.6494 138.886 25.6832L138.902 25.6857Z" fill="#FFB664"/>
<path d="M138.574 25.6379L138.436 25.5496C138.436 25.5496 138.477 25.6065 138.574 25.6379Z" fill="#FFB664"/>
<path d="M137.922 25.7237L138.203 25.867L137.925 25.7073L137.922 25.7237Z" fill="#FFB664"/>
<path d="M138.947 25.4908L139.136 25.5698L138.851 25.4595L138.947 25.4908Z" fill="#FFB664"/>
<path d="M138.949 25.3739C139.108 25.4316 139.228 25.416 139.326 25.4309C139.298 25.393 139.172 25.3403 139.065 25.2736C139.125 25.3165 139.104 25.3469 138.968 25.36L138.949 25.3739Z" fill="#FFB664"/>
<path d="M138.873 25.2107C138.873 25.2107 138.967 25.2586 139.046 25.2875C139.016 25.266 138.969 25.2421 138.873 25.2107Z" fill="#FFB664"/>
<path d="M138.498 25.4737C138.498 25.4737 138.679 25.501 138.75 25.4779L138.519 25.4432L138.514 25.4762L138.498 25.4737Z" fill="#FFB664"/>
<path d="M138.5 25.4574C138.5 25.4574 138.505 25.4242 138.508 25.4075C138.508 25.4075 138.505 25.4242 138.484 25.4549L138.5 25.4574Z" fill="#FFB664"/>
<path d="M138.17 25.6435C138.044 25.5908 137.925 25.4887 137.705 25.5059C137.864 25.5635 137.984 25.548 138.17 25.6435Z" fill="#FFB664"/>
<path d="M138.2 25.4459L138.127 25.4854C138.127 25.4854 138.291 25.5103 138.341 25.5177L138.186 25.4269L138.2 25.4459Z" fill="#FFB664"/>
<path d="M138.123 25.4004L138.2 25.4461L138.219 25.432L138.123 25.4004Z" fill="#FFB664"/>
<path d="M138.633 25.2419C138.539 25.194 138.542 25.1775 138.53 25.1421C138.476 25.1676 138.455 25.1981 138.436 25.2121C138.502 25.2221 138.628 25.2749 138.633 25.2419V25.2419Z" fill="#FFB664"/>
<path d="M138.59 24.8652L138.54 24.8577L138.587 24.8818L138.59 24.8652Z" fill="#FFB664"/>
<path d="M138.385 25.2219C138.385 25.2219 138.38 25.2551 138.46 25.2843C138.446 25.2651 138.432 25.246 138.437 25.2128C138.404 25.2078 138.371 25.2028 138.387 25.2053L138.385 25.2219Z" fill="#FFB664"/>
<path d="M138.787 25.1129C138.787 25.1129 138.686 25.1145 138.651 25.126C138.733 25.1384 138.853 25.1228 138.787 25.1129Z" fill="#FFB664"/>
<path d="M138.602 25.3393C138.602 25.3393 138.524 25.2939 138.458 25.2839C138.472 25.3029 138.503 25.3244 138.519 25.3269C138.536 25.3293 138.569 25.3343 138.585 25.3368L138.602 25.3393Z" fill="#FFB664"/>
<path d="M137.088 24.4711C137.299 24.5198 137.502 24.6178 137.249 24.63C137.403 24.7205 138.125 24.8295 138.537 24.8749C138.439 24.8601 138.357 24.8477 138.235 24.7621C138.121 24.7448 137.942 24.8187 137.752 24.7396C137.65 24.6401 137.842 24.7027 137.961 24.6871C137.683 24.645 137.585 24.5125 137.192 24.4531L137.313 24.5387C137.313 24.5387 137.17 24.4835 137.102 24.4901L137.088 24.4711Z" fill="#FFB664"/>
<path d="M138.489 24.9679L138.522 24.9728C138.522 24.9728 138.653 24.9926 138.822 24.9845C138.731 24.9203 138.649 24.9079 138.57 24.8791L138.506 24.9704L138.473 24.9654L138.489 24.9679Z" fill="#FFB664"/>
<path d="M138.505 25.0888C138.28 25.0212 138.175 24.9381 137.924 24.9339C137.914 24.9997 138.114 25.0129 138.204 25.0771C138.17 24.971 138.331 25.1299 138.488 25.0863C138.519 25.1077 138.533 25.1267 138.546 25.1456C138.582 25.1341 138.617 25.1226 138.669 25.1136L138.652 25.1111C138.652 25.1111 138.603 25.1037 138.619 25.1062C138.619 25.1062 138.554 25.0962 138.537 25.0938C138.592 25.0683 138.603 25.1037 138.619 25.1062L138.652 25.1111L138.555 24.9786C138.555 24.9786 138.515 25.023 138.54 25.0773L138.505 25.0888Z" fill="#FFB664"/>
<path d="M137.364 25.3185C137.364 25.3185 137.49 25.3712 137.455 25.3827C137.387 25.3892 137.34 25.3653 137.258 25.3529C137.324 25.3629 137.412 25.4435 137.534 25.4115L137.502 25.4065C137.591 25.3696 137.891 25.3812 137.921 25.4026C137.708 25.3705 137.561 25.3482 137.347 25.316L137.364 25.3185Z" fill="#FFB664"/>
<path d="M137.868 25.1939L137.768 25.0778L137.55 25.0786L137.681 25.0984C137.681 25.0984 137.772 25.1626 137.868 25.1939V25.1939Z" fill="#FFB664"/>
<path d="M138.704 24.8818L138.945 24.9519L138.613 24.8176L138.704 24.8818Z" fill="#FFB664"/>
<path d="M138.706 24.7663L138.914 24.8315L138.79 24.7622L138.706 24.7663Z" fill="#FFB664"/>
<path d="M137.223 18.0293L137.162 17.9861C137.162 17.9861 137.209 18.0102 137.223 18.0293Z" fill="#FFB664"/>
<path d="M139.233 22.0516C139.435 22.0485 139.765 22.0815 139.521 22.0279L139.275 21.9908C139.275 21.9908 139.268 22.0401 139.233 22.0516Z" fill="#FFB664"/>
<path d="M138.18 19.9062L138.114 19.8962C138.114 19.8962 138.274 19.9541 138.337 19.9805C138.288 19.9731 138.243 19.9326 138.18 19.9062V19.9062Z" fill="#FFB664"/>
<path d="M137.206 19.6939L137.376 19.6857C137.376 19.6857 137.258 19.6848 137.206 19.6939Z" fill="#FFB664"/>
<path d="M137.124 17.0234L136.882 16.9531C136.882 16.9531 137.008 17.006 137.124 17.0234Z" fill="#FFB664"/>
<path d="M138.844 23.6264C138.947 23.6083 138.983 23.5968 139.002 23.5827C138.849 23.5934 138.649 23.5801 138.844 23.6264Z" fill="#FFB664"/>
<path d="M139.745 18.5459C139.745 18.5459 139.649 18.5145 139.6 18.5071C139.633 18.512 139.679 18.536 139.745 18.5459Z" fill="#FFB664"/>
<path d="M139.033 23.4855C139.033 23.4855 139 23.4806 138.964 23.4921C139.011 23.516 139.023 23.5515 139.001 23.582C139.102 23.5804 139.173 23.5574 139.016 23.483L139.033 23.4855Z" fill="#FFB664"/>
<path d="M140.359 12.6973C140.359 12.6973 140.37 12.733 140.385 12.7521C140.385 12.7521 140.387 12.7355 140.359 12.6973Z" fill="#FFB664"/>
<path d="M137.926 24.2612C137.926 24.2612 137.86 24.2512 137.813 24.2271C137.863 24.2346 137.912 24.2421 137.926 24.2612Z" fill="#FFB664"/>
<path d="M138.784 24.3567C138.784 24.3567 138.85 24.3667 138.872 24.336C138.872 24.336 138.839 24.331 138.784 24.3567V24.3567Z" fill="#FFB664"/>
<path d="M138.899 24.3738C138.899 24.3738 138.899 24.3738 138.88 24.388C138.93 24.3955 138.946 24.398 138.899 24.3738Z" fill="#FFB664"/>
<path d="M138.89 24.3217C138.89 24.3217 138.885 24.3549 138.851 24.3499C138.868 24.3524 138.885 24.3549 138.901 24.3574C138.901 24.3574 138.904 24.3408 138.906 24.3242L138.89 24.3217Z" fill="#FFB664"/>
<path d="M138.226 15.5048C138.226 15.5048 138.226 15.5048 138.242 15.5073C138.145 15.4756 138.159 15.4948 138.226 15.5048Z" fill="#FFB664"/>
<path d="M136.715 20.8315C137.003 20.9255 136.967 20.937 136.897 20.96L137.586 21.064L136.715 20.8315V20.8315Z" fill="#FFB664"/>
<path d="M137.222 17.5919L137.001 17.6091C136.669 17.4749 136.791 17.4428 136.489 17.4476C137.24 17.578 136.519 17.6878 137.271 17.8182L137.119 17.8288C137.119 17.8288 137.086 17.8238 137.091 17.7909C136.72 17.8023 137.622 17.9385 137.492 18.0198C137.438 18.0453 137.321 18.0444 137.241 18.0156L137.409 18.1251C137.409 18.1251 137.262 18.1028 137.278 18.1053L137.326 18.2303L137.31 18.2279C137.425 18.2452 137.598 18.3218 137.675 18.3671C137.555 18.3826 137.593 18.3547 137.494 18.3398L137.665 18.4329C137.466 18.4196 137.293 18.343 137.317 18.2961C136.557 18.2151 137.506 18.3752 137.046 18.4235L136.957 18.3428C136.526 18.3114 136.666 18.383 136.396 18.3927C136.527 18.4125 137.086 18.3791 137.256 18.4721C137.188 18.4787 137.167 18.5091 137.31 18.5643C137.047 18.5247 137.108 18.5675 137.117 18.6193L136.772 18.5673C136.866 18.6151 137.046 18.6423 137.203 18.7164C137.163 18.7608 136.884 18.7187 136.652 18.7005C136.574 18.7729 137.102 18.718 137.153 18.8266C137.009 18.8891 137.133 18.9582 137.333 19.0727C137.211 19.1047 137.12 19.0405 137.022 19.0256L137.293 19.1171C137.293 19.1171 137.195 19.1022 137.146 19.0948C137.255 19.145 137.506 19.1493 137.592 19.2464C137.981 19.3387 137.004 19.2584 137.431 19.424C137.333 19.4091 137.221 19.3753 137.071 19.3695C137.332 19.5267 137.269 19.5004 137.631 19.656L137.392 19.6872C137.662 19.6774 137.961 19.8067 138.213 19.9122C138.344 19.932 138.464 19.9164 138.513 19.9238L138.679 20.0498C138.679 20.0498 138.498 20.0225 138.356 19.9674C138.389 19.9723 138.405 19.9748 138.435 19.9962C138.299 20.0093 138.107 19.9467 137.916 19.884C137.981 19.8939 138.066 19.8899 138.134 19.8833C137.925 19.8182 137.684 19.7482 137.488 19.7185C137.537 19.7259 137.565 19.7638 137.581 19.7662C137.515 19.7563 137.466 19.7489 137.433 19.744C137.401 19.739 137.483 19.7514 137.56 19.7967L137.166 19.7372L137.311 19.776L137.048 19.854C137.426 20.0121 137.986 20.1975 138.127 20.3703C137.856 20.2789 137.657 20.2656 137.312 20.2136C137.675 20.2516 137.182 20.0762 137.274 20.0227C137.236 20.0507 137.075 20.0095 137.012 19.9831L137.317 20.1807C137.038 20.1386 137.104 20.1485 136.982 20.1805C137.539 20.2647 137.325 20.3502 137.498 20.4267C137.301 20.397 137.123 20.3533 137.182 20.295C136.749 20.2799 137.821 20.5092 137.453 20.504C137.455 20.4876 137.472 20.4901 137.392 20.4612C137.549 20.5354 137.405 20.5978 137.246 20.5401C137.168 20.6125 137.185 20.8338 137.656 20.9385C137.59 20.9286 137.103 20.8214 137.007 20.7901L138.544 21.2745C138.139 21.1797 137.167 21.0666 136.971 20.9192C136.903 20.9258 136.849 20.9512 136.953 21.0344C137.019 21.0443 137.544 21.1235 137.577 21.1285C137.126 21.111 137.342 21.1267 136.939 21.1331C137.023 21.129 137.655 21.2749 137.631 21.3218C137.533 21.3069 137.013 21.1948 136.95 21.1684L137.553 21.3941C137.443 21.3439 137.033 21.282 136.848 21.2877C136.963 21.305 136.836 21.3699 136.88 21.4102L137.032 21.3996C136.917 21.4999 137.877 21.6954 137.829 21.7891C137.698 21.7693 137.052 21.6045 136.962 21.6414C137.283 21.7403 138.458 22.0691 138.686 22.2214L138.506 22.1942L138.688 22.3226C138.222 22.185 137.252 21.8365 136.87 21.6949C136.718 21.7055 136.657 21.6627 136.664 21.7309C136.483 21.7037 136.409 21.642 136.411 21.6255L136.274 21.7563C136.651 21.8132 136.615 21.9423 136.927 21.9894L136.577 21.7515C136.954 21.8084 137.604 22.058 137.524 22.1468C137.373 22.141 136.875 21.9984 136.746 21.9621C136.875 21.9984 136.975 22.1144 136.876 22.0996L136.687 22.0205C136.532 22.0476 137.162 22.21 136.791 22.2213C136.756 22.2328 136.292 22.1963 136.519 22.2475C136.945 22.3118 138.25 22.5593 138.573 22.6417C138.54 22.6368 138.148 22.6785 137.932 22.6628C137.599 22.6462 137.16 22.4452 136.862 22.4171C136.96 22.4319 137.087 22.4847 137.117 22.5061C137.016 22.5077 136.794 22.4236 136.833 22.4969C137.206 22.5867 136.767 22.6046 137.137 22.5933C137.226 22.6739 137.048 22.6302 137.054 22.6985C137.3 22.7357 137.876 22.9235 137.964 23.0042C137.866 22.9893 137.751 22.972 137.686 22.9621C137.619 23.0698 137.448 23.0944 137.416 23.1906C137.334 23.1782 137.212 23.2103 137.053 23.1526C137.116 23.1789 137.245 23.2152 137.24 23.2481C136.907 23.2315 137.203 23.1584 136.804 23.1319C137.018 23.1641 137.085 23.2752 137.209 23.3443C137.553 23.3963 137.289 23.2555 137.165 23.1864C137.636 23.2911 138.097 23.4616 138.292 23.6089C138.392 23.725 137.995 23.5808 138.058 23.6072C137.954 23.7428 138.834 23.9095 138.472 23.9726C138.172 23.9609 137.887 23.8506 137.674 23.8184C137.571 23.7188 137.885 23.7494 137.877 23.6976L137.721 23.7246C137.628 23.6769 137.57 23.6176 137.654 23.6135C137.387 23.6068 137.549 23.8669 137.269 23.9424C137.363 23.9901 137.456 24.0379 137.59 24.0413L137.546 24.0009C137.794 24.0216 137.859 24.1492 137.981 24.1171C138.135 24.2077 138.387 24.3131 138.246 24.3591L137.902 24.3071C138 24.322 138.123 24.29 138.01 24.2562C138.153 24.3114 137.539 24.2691 137.971 24.4018L138.206 24.4035C138.36 24.4941 138.709 24.6308 138.584 24.6793C138.928 24.7313 138.551 24.6743 138.95 24.7009C138.458 24.6266 139.007 24.5413 138.477 24.495C138.937 24.5643 138.684 24.4589 139.083 24.4854C138.968 24.4681 138.87 24.4532 138.943 24.4138C138.91 24.4088 138.879 24.3874 138.847 24.3825C138.797 24.375 138.729 24.3816 138.68 24.3741C138.442 24.2877 138.454 24.2054 138.328 24.1527C138.382 24.1272 138.457 24.1889 138.574 24.1898L138.384 24.1108C138.63 24.1479 138.804 24.1069 138.94 24.2114L138.95 24.1456C139.118 24.1375 139.178 24.0791 139.084 24.0313C139.138 24.0059 138.837 23.893 139.012 23.9531L138.882 23.8157L138.931 23.8231C138.995 23.7319 138.575 23.517 139.049 23.4876C138.988 23.4448 138.93 23.3855 139.003 23.3461L139.216 23.3783C139.216 23.3783 139.466 23.2813 139.241 23.2138C139.834 23.2864 139.421 23.0222 139.532 22.9548L139.253 22.9127C139.253 22.9127 139.224 22.7737 139.121 22.6741L138.875 22.6369C138.691 22.525 139.078 22.5161 139.077 22.4149C139.175 22.4298 139.137 22.4577 139.069 22.4643C139.656 22.4687 138.715 22.1416 139.138 22.1213C139.044 22.0735 139.08 22.062 139.148 22.0555C139.148 22.0555 139.148 22.0555 139.164 22.058C139.164 22.058 139.267 22.0399 139.3 22.0449C139.235 22.035 139.185 22.0275 139.167 22.0415C139.169 22.0251 139.141 21.9872 139.081 21.9444L139.343 21.984C139.444 21.9824 139.233 21.9338 139.017 21.9181C138.971 21.8942 138.924 21.8703 138.861 21.8439C139.287 21.9083 138.742 21.7419 139.204 21.7948C138.996 21.7297 139.065 21.6055 138.61 21.5033C138.676 21.5132 138.692 21.5156 138.692 21.5156C138.747 21.4902 138.817 21.4672 138.691 21.4145L139.035 21.4665L138.591 21.2984C138.793 21.2952 138.926 21.2986 139.181 21.3876C138.805 21.213 139.049 21.2666 138.67 21.1084L138.883 21.1406C138.883 21.1406 138.6 21.0138 138.783 21.0246C139.201 21.0372 138.901 20.689 139.336 20.5864C138.696 20.4899 139.641 20.5652 139.138 20.4555C139.302 20.4803 139.389 20.4598 139.515 20.5125C139.382 20.3915 139.781 20.418 139.383 20.2739C139.531 20.2962 139.608 20.3414 139.692 20.3374C139.659 20.3324 139.566 20.2847 139.667 20.2831C139.749 20.2955 139.796 20.3193 139.859 20.3457C139.874 20.247 139.387 20.1398 138.946 20.0565C139.167 20.0393 139.137 20.0179 138.865 19.9265C139.013 19.9488 139.165 19.9382 139.207 19.9949C139.229 19.9645 139.45 19.8297 139.108 19.7613C139.19 19.7736 139.148 19.7169 139.116 19.7119C139.145 19.6321 139.194 19.6396 139.171 19.5688L139.105 19.5589C138.684 19.4616 139.031 19.4972 138.975 19.4215L139.024 19.4289C139.353 19.3608 138.884 19.3573 139.248 19.2777L138.986 19.238C138.417 19.1185 139.348 19.1749 139.147 19.0604L138.994 19.0711C138.805 18.992 139.78 19.0887 139.867 19.0682C139.916 19.0756 139.949 19.0806 139.977 19.1184C140.336 19.0717 139.635 19.05 139.568 18.9389C139.748 18.9661 140.039 19.0436 140.081 18.9828C140.234 18.9721 139.502 18.7102 139.873 18.6989C139.725 18.6766 139.572 18.6872 139.479 18.6394C139.44 18.5662 140.042 18.5731 139.61 18.4404C139.659 18.4479 139.692 18.4528 139.724 18.4578C139.617 18.3911 139.55 18.28 139.309 18.21C140.23 18.3322 138.911 17.847 139.745 17.9897L139.715 17.8507L139.797 17.8631C139.859 17.7882 139.667 17.7256 139.475 17.663C139.543 17.6565 139.607 17.6828 139.656 17.6903C139.856 17.5859 139.809 17.562 139.417 17.385L139.696 17.427C139.536 17.3694 140.168 17.2965 139.86 17.1154C139.893 17.1203 139.942 17.1277 139.991 17.1352C139.686 16.9376 140.814 16.9061 139.821 16.7057L139.59 16.5699C139.488 16.6891 139.166 16.489 138.978 16.5111C138.937 16.4544 139.307 16.443 139.349 16.4998L139.3 16.4924C139.82 16.6045 139.503 16.3716 139.863 16.426C139.882 16.1933 140.214 15.9911 140.249 15.7608L139.834 15.7318L139.846 15.6495C139.964 15.6504 140.179 15.6661 140.17 15.7319C140.404 15.7337 139.988 15.6035 139.906 15.5911C140.087 15.5007 140.376 15.6958 140.381 15.6629L140.356 15.6086L140.307 15.6012C140.148 15.5435 139.967 15.5163 139.994 15.453C140.083 15.416 140.245 15.4572 140.261 15.4597C140.294 15.4646 140.31 15.4671 140.266 15.4268L140.314 15.333L139.995 15.3353C139.838 15.2612 140.009 15.2366 139.658 15.234C140.228 15.2359 139.912 14.8853 140.083 14.8608C139.863 14.7603 139.871 14.7109 139.916 14.6336C139.848 14.6402 139.482 14.6186 139.544 14.5438C140.282 14.6552 139.892 14.4617 140.426 14.4751C140.074 14.4725 140.355 14.2793 139.851 14.2873C139.924 14.2478 140.13 14.3294 140.32 14.2908C140.045 14.1146 140.545 14.0219 140.453 13.8566C140.354 13.8417 140.202 13.8523 140.075 13.7996L140.566 13.7727C140.566 13.7727 139.992 13.686 140.349 13.6558C140.267 13.6434 140.147 13.659 140.119 13.6211C140.631 13.345 139.804 12.9341 140.744 12.7059C140.556 12.728 140.528 12.6902 140.531 12.6737C140.479 12.6827 140.285 12.6366 140.148 12.6497L140.534 12.5396C140.173 12.4852 140.524 12.3866 140.177 12.3511L140.237 12.3939C139.832 12.2991 139.315 12.3893 138.769 12.3405C139.24 12.4452 138.051 12.4339 138.73 12.6037C138.61 12.6193 138.566 12.5789 138.434 12.5591C138.664 12.5938 138.708 12.6341 138.6 12.6851L138.534 12.6752C138.577 12.8331 138.335 12.8807 138.174 13.0583L138.442 13.065C138.442 13.065 138.32 13.097 138.251 13.1036C138.643 13.1795 138.285 12.9909 138.726 13.0742C138.188 13.0772 138.683 13.3539 138.069 13.3116C138.059 13.3774 138.369 13.3233 138.359 13.3891L138.195 13.3643L138.404 13.4294C138.366 13.4574 138.164 13.4605 138.016 13.4383C138.016 13.4383 137.97 13.4144 137.956 13.3955C137.749 13.4315 137.999 13.5534 137.931 13.56L138.039 13.509C138.178 13.6983 137.935 13.8635 138.258 14.0636L138.389 14.0834C138.603 14.2167 138.245 14.1458 138.34 14.2947L138.307 14.2898C138.436 14.3261 138.497 14.3689 138.473 14.4157C138.33 14.3605 138.184 14.4394 138.025 14.3818C138.254 14.5341 138.212 14.4773 138.661 14.6124L138.459 14.6156C138.637 14.6593 138.736 14.6742 138.791 14.7499C138.618 14.6733 138.472 14.7522 138.234 14.6657C137.769 14.7469 138.663 14.9324 137.995 14.9156C138.561 15.0516 138.326 14.8311 138.436 14.8813C138.638 14.8781 138.855 14.995 138.801 15.0205C138.796 15.0534 138.067 14.9938 138.066 15.1114C138.066 15.1114 138.017 15.104 138.035 15.09C137.88 15.1171 138.22 15.202 137.983 15.2167C138.322 15.3016 137.973 15.2825 138.399 15.3469L138.316 15.2333C138.421 15.3164 138.924 15.4261 138.68 15.4901C138.598 15.4778 138.488 15.4275 138.408 15.3987C138.272 15.4118 138.483 15.4604 138.347 15.4735C137.904 15.4067 138.266 15.3435 137.931 15.2257C137.746 15.2314 138.242 15.3904 137.755 15.2832C138.357 15.4077 137.672 15.3885 138.121 15.5236L137.859 15.484C137.859 15.484 138.018 15.5416 138.015 15.5581L137.676 15.4732C137.961 15.5836 137.412 15.5512 137.55 15.6393C137.567 15.5241 137.867 15.6534 138.071 15.6338C138.409 15.8363 137.367 15.6285 137.473 15.8128C137.446 15.775 137.65 15.7553 137.76 15.8055C137.705 15.831 137.6 15.8655 137.45 15.8597C137.481 15.9823 137.712 15.8993 137.887 15.9594C137.554 15.9428 138.011 16.0286 138.102 16.0928L137.84 16.0532C137.656 16.16 138.392 16.1703 138.162 16.2532L137.808 16.1494L137.897 16.2301L137.585 16.183C137.807 16.267 137.739 16.2736 137.647 16.327C137.844 16.3567 138.139 16.4013 138.129 16.4671C137.96 16.4752 137.888 16.3971 137.906 16.5007C137.745 16.4595 137.534 16.4109 137.785 16.4151C137.703 16.4027 137.624 16.3739 137.544 16.3451C137.342 16.3482 137.48 16.4363 137.475 16.4692C137.475 16.4692 137.513 16.4413 137.546 16.4462L137.889 16.6159C137.788 16.6175 137.709 16.5886 137.627 16.5763C137.654 16.6141 137.767 16.6479 137.795 16.6857C137.581 16.6536 137.352 16.6189 137.261 16.5547L137.489 16.707C137.391 16.6921 137.22 16.7167 137.14 16.6879C136.999 16.7339 137.528 16.8978 137.351 16.9553C137.4 16.9628 137.433 16.9677 137.461 17.0056C137.399 17.0804 137.13 17.0901 137.41 17.2334L137.009 17.2233C137.009 17.2233 137.511 17.2318 137.625 17.3668C137.743 17.4688 137.292 17.3501 137.174 17.3493C137.364 17.4283 137.747 17.5536 137.423 17.5888C137.363 17.546 137.431 17.5394 137.384 17.5155L137.222 17.5919ZM137.254 18.4886C137.254 18.4886 137.032 18.4046 137.198 18.4129C137.505 18.4928 137.357 18.4705 137.254 18.4886ZM137.657 19.9292C137.575 19.9168 137.629 19.8913 137.73 19.8897C137.744 19.9086 137.725 19.9226 137.657 19.9292ZM138.749 24.0312C138.852 24.0131 138.817 24.0246 138.749 24.0312V24.0312ZM138.622 24.0961C138.622 24.0961 138.687 24.106 138.736 24.1134C138.671 24.1035 138.676 24.0706 138.695 24.0566C138.629 24.0467 138.563 24.0368 138.624 24.0796L138.622 24.0961ZM140.073 15.4818L140.007 15.4719C140.007 15.4719 140.007 15.4719 140.073 15.4818Z" fill="#FFB664"/>
<path d="M136.611 22.412C136.611 22.412 136.712 22.4104 136.761 22.4179C136.696 22.4079 136.646 22.4005 136.611 22.412Z" fill="#FFB664"/>
<path d="M138.963 24.6182L138.905 24.5588C138.905 24.5588 138.85 24.5843 138.815 24.5959C138.881 24.6058 138.963 24.6182 138.963 24.6182Z" fill="#FFB664"/>
<path d="M137.237 24.7124C137.237 24.7124 137.237 24.7124 137.265 24.7503L137.397 24.7702C137.397 24.7702 137.289 24.7033 137.237 24.7124Z" fill="#FFB664"/>
<path d="M138.08 24.4682C137.849 24.4335 137.926 24.4789 137.954 24.5168C138.262 24.597 138.168 24.5491 138.077 24.4847L138.08 24.4682Z" fill="#FFB664"/>
<path d="M137.967 24.5361L137.962 24.5694C138.095 24.5894 137.995 24.5744 137.967 24.5361Z" fill="#FFB664"/>
<path d="M138.736 24.232C138.736 24.232 139.01 24.307 138.928 24.2946C139.202 24.3696 138.603 24.111 138.736 24.232Z" fill="#FFB664"/>
<path d="M137.327 24.3371L137.619 24.3981L137.397 24.3141L137.327 24.3371Z" fill="#FFB664"/>
<path d="M137.597 24.1094L137.507 24.1468C137.507 24.1468 137.573 24.1568 137.604 24.1784C137.609 24.1452 137.68 24.1219 137.614 24.1119L137.597 24.1094Z" fill="#FFB664"/>
<path d="M137.603 24.1782C137.603 24.1782 137.598 24.2115 137.645 24.2356C137.645 24.2356 137.65 24.2024 137.603 24.1782Z" fill="#FFB664"/>
<path d="M137.274 24.2474L137.323 24.2549L137.364 24.21L137.274 24.2474Z" fill="#FFB664"/>
<path d="M137.787 23.5151L137.715 23.4367C137.616 23.4218 137.55 23.4118 137.595 23.4523C137.658 23.4787 137.686 23.5167 137.787 23.5151V23.5151Z" fill="#FFB664"/>
<path d="M136.943 23.3372C136.844 23.3223 136.694 23.1985 136.701 23.267C136.8 23.2819 136.853 23.3743 136.943 23.3372Z" fill="#FFB664"/>
<path d="M137.57 22.5061L137.568 22.5226L138.137 22.6421L137.57 22.5061Z" fill="#FFB664"/>
<path d="M136.392 21.4195C136.251 21.4655 136.732 21.5044 136.558 21.5455C136.687 21.5817 136.696 21.5159 136.809 21.5497C136.685 21.4805 136.753 21.474 136.392 21.4195V21.4195Z" fill="#FFB664"/>
<path d="M136.809 21.5505C136.809 21.5505 136.859 21.558 136.887 21.5963C136.856 21.5747 136.826 21.553 136.809 21.5505Z" fill="#FFB664"/>
<path d="M140.698 12.564L140.823 12.5154L140.619 12.5351L140.698 12.564Z" fill="#FFB664"/>
<path d="M140.282 12.4333L140.647 12.4549L140.319 12.4053C140.319 12.4053 140.366 12.4292 140.282 12.4333Z" fill="#FFB664"/>
<path d="M136.499 18.4917L136.582 18.5042C136.68 18.5191 136.68 18.5191 136.702 18.4885L136.499 18.4917V18.4917Z" fill="#FFB664"/>
<path d="M136.872 17.9084L136.87 17.9249L137.2 17.958L136.872 17.9084Z" fill="#FFB664"/>
<path d="M136.558 17.3232C136.558 17.3232 136.616 17.3827 136.597 17.3967C136.539 17.3373 136.969 17.3853 136.558 17.3232V17.3232Z" fill="#FFB664"/>
</g>
<g filter="url(#filter0_f_1054_2352)">
<path d="M12.0059 148.602C12.8026 149.724 13.5095 150.842 14.6503 151.656C16.971 153.312 19.7327 154.552 22.334 155.698C23.3124 156.129 24.3552 156.339 25.3554 156.707C27.153 157.367 29.4691 157.556 31.365 157.339C32.2848 157.233 33.2147 157.071 34.1314 156.934C34.5388 156.873 35.0796 156.829 35.4563 156.64C35.8668 156.435 36.1344 155.926 36.554 155.786" stroke="#8B8E99" stroke-opacity="0.8" stroke-width="3" stroke-linecap="round"/>
</g>
<g filter="url(#filter1_f_1054_2352)">
<path d="M77.0684 148.902C77.9668 150.461 79.512 151.332 81.2041 151.896C82.899 152.461 84.8081 152.614 86.5705 152.816C87.7602 152.953 88.8532 152.985 90.0299 152.794C90.7305 152.68 91.4228 152.495 92.1365 152.495" stroke="#8B8E99" stroke-opacity="0.8" stroke-width="3" stroke-linecap="round"/>
</g>
<defs>
<filter id="filter0_f_1054_2352" x="0.505859" y="137.102" width="47.5483" height="31.8232" filterUnits="userSpaceOnUse" color-interpolation-filters="sRGB">
<feFlood flood-opacity="0" result="BackgroundImageFix"/>
<feBlend mode="normal" in="SourceGraphic" in2="BackgroundImageFix" result="shape"/>
<feGaussianBlur stdDeviation="5" result="effect1_foregroundBlur_1054_2352"/>
</filter>
<filter id="filter1_f_1054_2352" x="65.5679" y="137.402" width="38.0688" height="27.0261" filterUnits="userSpaceOnUse" color-interpolation-filters="sRGB">
<feFlood flood-opacity="0" result="BackgroundImageFix"/>
<feBlend mode="normal" in="SourceGraphic" in2="BackgroundImageFix" result="shape"/>
<feGaussianBlur stdDeviation="5" result="effect1_foregroundBlur_1054_2352"/>
</filter>
<clipPath id="clip0_1054_2352">
<rect width="169" height="152" fill="white" transform="matrix(-1 0 0 1 169 0)"/>
</clipPath>
<clipPath id="clip1_1054_2352">
<rect width="24" height="23" fill="white" transform="translate(110 45)"/>
</clipPath>
<clipPath id="clip2_1054_2352">
<rect width="39.409" height="27.228" fill="white" transform="translate(130.064 9) rotate(8.58573)"/>
</clipPath>
</defs>
</svg>
