<svg width="68" height="68" viewBox="0 0 68 68" fill="none" xmlns="http://www.w3.org/2000/svg">
<g clip-path="url(#clip0_1052_2373)">
<path fill-rule="evenodd" clip-rule="evenodd" d="M32.1211 36.4085V32.7941C31.4027 31.2837 30.0898 31.2166 30.0898 31.2166C24.3342 31.2166 24.544 25.4871 24.544 25.4871V17.0273H32.1211H36.8871H44.4642V25.4871C44.4642 25.4871 44.6815 31.2166 38.9184 31.2166C38.9184 31.2166 37.6055 31.2837 36.8871 32.7941V36.4085C37.6055 37.9188 38.9184 37.9859 38.9184 37.9859C44.6815 37.9859 44.4642 43.7155 44.4642 43.7155V52.1827H36.8871H32.1211H24.544V43.7155C24.544 43.7155 24.3267 37.9859 30.0898 37.9859C30.0898 37.9859 31.4027 37.9188 32.1211 36.4085Z" fill="#D5E7FF"/>
<path d="M36.7071 51.8308H23V54H36.7071V51.8308Z" fill="#6D6D6D"/>
<path d="M36.7071 15H23V17.1692H36.7071V15Z" fill="#6D6D6D"/>
<path d="M33.0797 29.9074H34.5486V26.332H27.0917C27.0917 26.332 26.3573 29.9074 33.0797 29.9074ZM32.8773 43.7152C27.991 43.7152 25.8252 50.4845 25.8252 50.4845H34.601V43.7152H32.8773Z" fill="#3B5BDB"/>
<path d="M46 51.8308H32.293V54H46V51.8308Z" fill="#6D6D6D"/>
<path d="M46 15H32.293V17.1692H46V15Z" fill="#6D6D6D"/>
<path d="M41.9157 26.332H34.4589V29.9074H35.9278C42.6501 29.9074 41.9157 26.332 41.9157 26.332ZM36.1226 43.7078H34.3989V50.477H43.1747C43.1747 50.477 41.0014 43.7078 36.1226 43.7078Z" fill="#2745BC"/>
</g>
<defs>
<clipPath id="clip0_1052_2373">
<rect width="23" height="39" fill="white" transform="translate(23 15)"/>
</clipPath>
</defs>
</svg>
