<svg width="81" height="33" viewBox="0 0 81 33" fill="none" xmlns="http://www.w3.org/2000/svg">
<mask id="path-1-inside-1_1057_2317" fill="white">
<path fill-rule="evenodd" clip-rule="evenodd" d="M13 0C5.8203 0 0 5.8203 0 13C0 20.1797 5.8203 26 13 26H35.2478L41.087 33L46.9261 26H68C75.1797 26 81 20.1797 81 13C81 5.8203 75.1797 0 68 0H13Z"/>
</mask>
<path fill-rule="evenodd" clip-rule="evenodd" d="M13 0C5.8203 0 0 5.8203 0 13C0 20.1797 5.8203 26 13 26H35.2478L41.087 33L46.9261 26H68C75.1797 26 81 20.1797 81 13C81 5.8203 75.1797 0 68 0H13Z" fill="white"/>
<path d="M35.2478 26L36.0157 25.3594L35.7159 25H35.2478V26ZM41.087 33L40.319 33.6406L41.087 34.5611L41.8549 33.6406L41.087 33ZM46.9261 26V25H46.458L46.1582 25.3594L46.9261 26ZM1 13C1 6.37258 6.37258 1 13 1V-1C5.26801 -1 -1 5.26801 -1 13H1ZM13 25C6.37259 25 1 19.6274 1 13H-1C-1 20.732 5.26802 27 13 27V25ZM35.2478 25H13V27H35.2478V25ZM41.8549 32.3594L36.0157 25.3594L34.4799 26.6406L40.319 33.6406L41.8549 32.3594ZM46.1582 25.3594L40.319 32.3594L41.8549 33.6406L47.694 26.6406L46.1582 25.3594ZM68 25H46.9261V27H68V25ZM80 13C80 19.6274 74.6274 25 68 25V27C75.732 27 82 20.732 82 13H80ZM68 1C74.6274 1 80 6.37258 80 13H82C82 5.26801 75.732 -1 68 -1V1ZM13 1H68V-1H13V1Z" fill="#339AF0" mask="url(#path-1-inside-1_1057_2317)"/>
</svg>
