<svg width="572" height="165" viewBox="0 0 572 165" fill="none" xmlns="http://www.w3.org/2000/svg">
<g opacity="0.5">
<path d="M279.743 86.1025L275.72 87.1803C275.113 87.3429 274.487 86.9814 274.325 86.3745L270.74 72.9955L265.946 74.2801C265.339 74.4427 264.713 74.0812 264.55 73.4743L263.472 69.4518C263.309 68.8449 263.671 68.2187 264.278 68.0561L269.072 66.7716L267.768 61.9055C267.605 61.2986 267.967 60.6725 268.574 60.5098L272.596 59.432C273.203 59.2694 273.829 59.6309 273.992 60.2378L275.296 65.1038L280.085 63.8207C280.692 63.658 281.318 64.0195 281.48 64.6265L282.558 68.6489C282.721 69.2559 282.359 69.882 281.752 70.0446L276.964 71.3278L280.55 84.7119C280.712 85.3189 280.35 85.9398 279.743 86.1025ZM276.232 84.689L278.053 84.201L274.467 70.8169C274.304 70.21 274.666 69.5839 275.273 69.4212L280.062 68.1381L279.574 66.3172L274.785 67.6003C274.178 67.763 273.552 67.4015 273.389 66.7945L272.085 61.9285L270.265 62.4164L271.568 67.2824C271.731 67.8894 271.37 68.5155 270.763 68.6781L265.969 69.9627L266.457 71.7836L271.251 70.499C271.857 70.3364 272.484 70.6979 272.646 71.3049L276.232 84.689Z" fill="white"/>
<path d="M294.351 52.7725C293.473 49.4959 290.102 47.5491 286.83 48.4257L250.901 58.0529C246.544 59.2203 243.812 63.1996 244.808 66.9186L255.013 105.003C256.011 108.727 260.365 110.802 264.722 109.635L304.725 98.9158C304.73 98.9145 304.736 98.9131 304.741 98.9117C305.348 98.7491 305.709 98.123 305.546 97.516C305.479 97.2639 305.328 97.0508 305.134 96.9042C299.744 91.2918 302.91 87.2019 303.041 87.0343C303.045 87.0278 303.049 87.0213 303.052 87.0148C303.114 86.9375 303.167 86.8462 303.208 86.7525C303.216 86.7395 303.222 86.7213 303.229 86.7082C303.264 86.6108 303.287 86.5109 303.298 86.4087C303.298 86.3867 303.297 86.3648 303.302 86.3414C303.303 86.242 303.299 86.1439 303.273 86.0461C303.271 86.041 303.268 86.0307 303.267 86.0256L303.266 86.0204L294.357 52.7711L294.351 52.7725ZM247.005 66.33C246.332 63.8199 248.341 61.0928 251.489 60.2493L287.413 50.6235C289.471 50.0721 291.597 51.2997 292.148 53.3572L300.763 85.5058L261.104 96.1322C260.826 96.2067 260.557 96.29 260.296 96.3874C260.211 96.4211 260.128 96.46 260.043 96.4937C259.869 96.5625 259.694 96.6313 259.533 96.7077C259.435 96.7558 259.339 96.8091 259.247 96.8559C259.101 96.9281 258.955 97.0003 258.812 97.0828C258.712 97.1426 258.619 97.2062 258.524 97.2646C258.393 97.3495 258.265 97.4278 258.14 97.5165C258.048 97.5852 257.956 97.6539 257.865 97.7278C257.752 97.8188 257.632 97.9061 257.519 97.9971C257.428 98.071 257.346 98.1538 257.262 98.2314C257.16 98.3248 257.053 98.4196 256.953 98.5182C256.87 98.6009 256.794 98.6875 256.718 98.774C256.624 98.8763 256.535 98.9773 256.447 99.0783C256.372 99.1699 256.309 99.264 256.234 99.3557C256.152 99.4604 256.076 99.5689 256.001 99.6774C255.984 99.6983 255.968 99.7193 255.953 99.7454L247 66.3314L247.005 66.33ZM264.134 107.438C260.991 108.28 257.882 106.925 257.209 104.415C256.537 101.904 258.546 99.1773 261.694 98.3338L300.087 88.0464C299.931 88.5735 299.81 89.1736 299.762 89.837L286.651 93.3502C286.044 93.5129 285.682 94.139 285.845 94.746C286.007 95.3529 286.634 95.7144 287.24 95.5518L299.904 92.1585C300.2 93.6726 300.916 95.3773 302.362 97.195L264.134 107.438V107.438Z" fill="white"/>
<path d="M284.17 96.3714L279.69 97.5719C279.083 97.7345 278.457 97.373 278.294 96.7661C278.132 96.1591 278.493 95.533 279.1 95.3703L283.58 94.1699C284.187 94.0072 284.813 94.3687 284.976 94.9757C285.139 95.5826 284.777 96.2088 284.17 96.3714Z" fill="white"/>
<path d="M290.795 98.4456L276.871 102.177C276.264 102.339 275.638 101.978 275.475 101.371C275.313 100.764 275.674 100.138 276.281 99.9751L290.2 96.2455C290.807 96.0828 291.433 96.4443 291.596 97.0513C291.764 97.6569 291.402 98.283 290.795 98.4456Z" fill="white"/>
</g>
<g opacity="0.5" clip-path="url(#clip0)">
<path d="M335.358 112.304C332.656 109.65 330.223 108.303 328.127 108.303C327.987 108.303 327.856 108.317 327.726 108.328C327.969 107.923 328.201 107.512 328.416 107.09C328.427 107.09 328.434 107.09 328.444 107.09C329.371 107.09 331.103 106.862 332.29 105.339C333.671 103.564 333.847 100.614 332.815 96.5702C332.755 96.3346 332.582 96.1412 332.354 96.0533C332.125 95.9654 331.868 95.9971 331.663 96.1342C328.37 98.3563 326.55 100.687 326.247 103.061C326.032 104.756 326.673 105.976 327.025 106.499C326.863 106.812 326.698 107.118 326.522 107.417C326.391 105.286 324.806 102.948 321.792 100.448C321.602 100.29 321.348 100.237 321.112 100.301C320.876 100.364 320.686 100.54 320.601 100.772C319.249 104.502 319.147 107.459 320.302 109.558C321.123 111.049 322.355 111.665 322.95 111.883C322.299 112.505 321.616 113.096 320.89 113.648C320.943 113.419 320.985 113.18 321.003 112.927C321.154 110.568 319.422 108.039 315.858 105.413C315.66 105.269 315.403 105.227 315.171 105.304C314.938 105.381 314.759 105.568 314.688 105.803C313.551 109.608 313.618 112.565 314.889 114.593C315.432 115.462 316.108 116 316.689 116.334C315.914 116.749 315.122 117.139 314.312 117.505C314.375 117.336 314.431 117.16 314.477 116.974C315.019 114.674 313.738 111.893 310.66 108.711C310.491 108.535 310.244 108.454 310.001 108.49C309.758 108.528 309.55 108.679 309.441 108.901C308.085 111.643 307.525 114.01 307.758 115.965C307.342 114.382 306.37 112.6 304.845 110.624C304.697 110.43 304.461 110.321 304.215 110.332C303.968 110.342 303.746 110.473 303.613 110.68C301.471 114.024 300.725 116.886 301.387 119.185C301.64 120.061 302.063 120.715 302.482 121.186C300.344 121.622 298.238 121.956 296.238 122.209C295.826 122.262 295.534 122.638 295.586 123.049C295.636 123.429 295.96 123.707 296.333 123.707C296.365 123.707 296.396 123.703 296.428 123.7C298.566 123.433 300.816 123.071 303.105 122.592C303.039 123.31 303.095 124.396 303.739 125.556C304.902 127.648 307.462 129.139 311.346 129.983C311.399 129.994 311.452 130.001 311.508 130.001C311.695 130.001 311.878 129.93 312.019 129.804C312.199 129.638 312.287 129.396 312.255 129.153C311.628 124.393 310.135 122.167 308.55 121.225C309.23 121.021 309.909 120.806 310.582 120.578C310.691 121.414 311.547 125.388 317.872 125.388C318.865 125.388 319.961 125.289 321.13 125.092C321.373 125.054 321.577 124.895 321.686 124.677C321.792 124.456 321.785 124.199 321.665 123.985C319.922 120.884 318.097 118.971 316.224 118.261C316.812 117.969 317.393 117.67 317.96 117.353C318.372 118.711 320.017 120.936 323.81 120.936C325.349 120.936 327.134 120.578 329.121 119.874C329.353 119.794 329.529 119.604 329.592 119.368C329.659 119.133 329.603 118.879 329.448 118.69C327.113 115.849 324.905 114.27 322.877 113.975C323.313 113.605 323.732 113.219 324.141 112.825C324.768 113.781 326.176 115.195 329.018 115.195C330.776 115.195 332.84 114.632 335.153 113.524C335.375 113.419 335.53 113.212 335.569 112.969C335.615 112.723 335.534 112.477 335.358 112.304ZM316.168 113.799C315.262 112.354 315.153 110.121 315.844 107.301C318.337 109.316 319.598 111.211 319.503 112.818C319.425 114.112 318.467 114.963 318.013 115.297C317.597 115.156 316.773 114.766 316.168 113.799ZM310.596 128.253C307.814 127.497 305.916 126.333 305.078 124.86C304.5 123.841 304.556 122.923 304.634 122.494C304.961 122.343 305.574 122.111 306.275 122.111C308.881 122.107 310.061 125.236 310.596 128.253ZM327.567 118.799C326.169 119.217 324.909 119.428 323.813 119.428C320.7 119.428 319.718 117.705 319.457 117.048C319.784 116.541 320.686 115.416 322.19 115.416C323.725 115.416 325.574 116.58 327.567 118.799ZM327.74 103.251C327.955 101.559 329.286 99.7628 331.607 98.0153C332.227 100.986 332.054 103.184 331.1 104.411C330.346 105.378 329.24 105.582 328.444 105.582C328.36 105.582 328.282 105.578 328.215 105.575C327.987 105.209 327.596 104.383 327.74 103.251ZM321.619 108.834C320.799 107.34 320.816 105.104 321.665 102.329C324.039 104.481 325.19 106.443 325.004 108.047C324.852 109.333 323.849 110.128 323.373 110.437C322.972 110.272 322.169 109.836 321.619 108.834ZM310.332 110.568C312.456 112.969 313.382 115.047 313.019 116.619C312.744 117.8 311.783 118.465 311.244 118.756C311.202 118.774 311.156 118.788 311.114 118.806C310.719 118.588 309.983 118.064 309.554 116.995C308.92 115.42 309.191 113.212 310.332 110.568ZM304.313 112.435C306.155 115.054 306.849 117.223 306.314 118.742C305.884 119.966 304.729 120.521 304.197 120.715C303.841 120.465 303.155 119.864 302.838 118.767C302.366 117.128 302.873 114.956 304.313 112.435ZM307.726 119.259C307.98 118.549 308.05 117.765 307.948 116.917C308.011 117.15 308.085 117.378 308.177 117.6C308.504 118.391 308.959 118.971 309.402 119.389C308.73 119.607 308.053 119.811 307.377 120.005C307.508 119.776 307.627 119.53 307.726 119.259ZM319.791 123.763C319.115 123.841 318.474 123.883 317.876 123.883C313.174 123.883 312.28 121.446 312.111 120.623C312.48 120.233 313.371 119.445 314.576 119.445C316.242 119.445 318.034 120.933 319.791 123.763ZM329.022 113.683C326.529 113.683 325.542 112.301 325.243 111.731C325.264 111.693 325.285 111.65 325.31 111.605C325.641 111.236 325.958 110.849 326.261 110.459C326.719 110.093 327.332 109.805 328.127 109.805C329.6 109.805 331.441 110.771 333.495 112.617C331.804 113.324 330.304 113.683 329.022 113.683Z" fill="white" stroke="white" stroke-width="0.5"/>
</g>
<g opacity="0.5" clip-path="url(#clip1)">
<path d="M560.478 46.4956L560.73 46.1724C560.878 45.9817 561.031 45.771 561.198 45.5245C562.922 42.9893 561.351 40.271 559.395 37.7138C559.208 37.4681 558.885 37.3692 558.593 37.4661L558.555 37.4798C558.285 37.5779 558.101 37.8457 558.098 38.1483C558.078 40.7377 554.749 44.0203 551.639 46.2307L550.193 47.2581L551.172 45.779C551.359 45.4948 551.488 45.2013 551.552 44.907C551.824 43.6693 551.485 42.4468 550.572 41.3743L550.201 40.9398L550.765 40.8354C552.032 40.6037 553.218 40.0482 554.053 39.3004C555.348 38.1358 555.8 36.5191 555.297 34.8627C554.817 33.2799 553.684 32.0713 552.03 31.3717L551.499 31.1473L551.961 30.8029C553.077 29.9712 553.787 28.8455 554.012 27.5458C554.376 25.4496 553.401 23.2791 551.587 22.1473C550.402 21.4084 549.005 21.1972 547.547 21.5347L546.901 21.684L547.168 21.0814C548.072 19.0418 548.73 15.6938 546.742 11.3058C545.563 8.69808 542.578 5.08966 540.354 3.57972C540.244 3.50396 540.117 3.46492 539.977 3.45793L539.843 3.45168L539.751 3.35732C539.534 3.13143 539.194 3.06931 538.913 3.20482C538.555 3.38052 538.406 3.81219 538.578 4.16973C539.439 5.9249 540.435 8.23972 540.516 10.5827C540.603 13.17 539.405 15.8065 538.247 18.3586C538.036 18.8219 537.841 19.2522 537.655 19.6758C536.235 22.92 533.869 26.1451 530.421 29.5442L530.074 29.8863C528.343 31.5838 526.55 33.34 525.663 35.6691C525.323 36.5598 524.877 37.8666 524.925 38.9332C524.975 40.1149 525.693 42.1412 526.331 43.292C526.52 43.6373 526.957 43.771 527.317 43.5736C527.485 43.4819 527.606 43.3282 527.662 43.1437C527.717 42.9592 527.695 42.7632 527.601 42.5965C527.004 41.5188 526.41 39.7064 526.372 38.8678C526.346 38.2652 526.558 37.3843 527.019 36.1786C527.794 34.1462 529.469 32.5055 531.087 30.9162L531.438 30.5695C535.02 27.0398 537.49 23.6642 538.983 20.2504C539.157 19.8552 539.34 19.4506 539.527 19.0387L539.566 18.9516C540.737 16.3765 542.064 13.4556 541.966 10.5279C541.929 9.49995 541.744 8.43441 541.398 7.27187L540.988 5.89824L541.958 6.9529C543.446 8.56568 544.772 10.4592 545.423 11.8977C547.957 17.4969 545.648 21.0547 545.159 21.7105C545.079 21.8187 544.937 21.9585 544.746 22.1468C544.235 22.6429 543.942 22.9717 544.065 23.4447C544.118 23.6597 544.262 23.836 544.465 23.9418L544.545 24.0012C544.789 24.2444 545.187 24.2795 545.473 24.075C547.403 22.6954 549.335 22.4444 550.821 23.3697C552.121 24.1824 552.849 25.7999 552.59 27.3008C552.301 28.971 550.868 30.21 548.643 30.7074C548.618 30.7136 548.587 30.7217 548.56 30.7315C548.249 30.8442 548.052 31.1505 548.077 31.4731C548.106 31.831 548.402 32.1136 548.763 32.1317C550.352 32.2063 553.133 32.7188 553.915 35.2851C554.26 36.4178 553.975 37.4347 553.087 38.232C552.671 38.6086 552.125 38.9254 551.512 39.148C550.154 39.6413 548.581 39.6523 547.381 39.1774L547.36 39.1789L547.284 39.1366C546.93 38.997 546.498 39.1783 546.35 39.5276C546.195 39.8942 546.367 40.3161 546.735 40.4716C547.662 40.8599 550.648 42.3061 550.144 44.6055C550.006 45.237 549.039 45.9812 548.005 46.2255L547.977 46.2326C547.104 46.4461 546.156 46.3674 545.137 46.0034L545.082 45.9777C544.808 45.8214 544.524 45.7052 544.236 45.6361C543.888 45.5525 543.504 45.7588 543.385 46.0946C543.257 46.4423 543.415 46.8265 543.748 46.9858C543.974 47.0954 544.206 47.1941 544.43 47.2803L544.498 47.3164C544.882 47.5821 545.219 47.9894 545.471 48.4978C545.836 49.2332 545.883 49.9438 545.742 50.263C545.407 51.0241 544.926 51.4577 544.253 51.9121C543.485 52.4316 542.865 52.6173 542.333 52.4907C541.65 52.3276 540.976 51.6252 540.269 50.3441C540.08 49.9988 539.647 49.8668 539.286 50.0616C538.938 50.2551 538.81 50.6943 539.001 51.0423C539.928 52.7214 540.877 53.6253 541.992 53.8933C542.949 54.1213 543.947 53.8627 545.063 53.1071C545.81 52.6045 546.565 51.9829 547.065 50.8422C547.139 50.6753 547.193 50.4881 547.225 50.288L547.259 50.0869L547.453 50.0253C548.192 49.7938 548.891 49.5153 549.528 49.2051C551.734 48.1267 557.177 44.4448 558.972 40.5136L559.234 39.9402L559.559 40.4801C560.648 42.3014 560.783 43.5649 560.001 44.7108C559.337 45.6857 558.923 46.0948 558.295 46.3931L558.266 46.4065L558.235 46.4146C557.907 46.5035 557.608 46.6821 557.289 46.8739C557.124 46.9736 556.953 47.0752 556.777 47.1634L556.577 47.4126C556.525 47.4712 556.477 47.525 556.429 47.5789C556.065 47.9821 556.036 48.0536 556.139 48.269C556.304 48.6141 556.712 48.7368 557.089 48.5606L557.352 48.4347C557.661 48.2857 557.926 48.1561 558.199 48.0506C558.306 48.0087 558.409 47.9624 558.506 47.918C558.574 47.8872 558.642 47.8563 558.711 47.8254L558.742 47.8109L558.774 47.8055C559.203 47.7166 559.586 47.745 560.011 47.8953C560.822 48.1853 561.587 48.9613 561.719 49.6288C561.848 50.2856 561.41 51.2606 560.915 51.8242C560.811 51.9412 560.667 52.033 560.483 52.0997C559.997 52.2763 559.287 52.257 558.658 52.2418L558.58 52.2395C558.398 52.2354 558.219 52.2304 558.049 52.2316C557.667 52.2331 557.346 52.5445 557.328 52.9164C557.308 53.2983 557.594 53.6301 557.974 53.6684C561.048 53.9836 561.316 54.1419 561.558 55.7747C561.681 56.5947 561.547 57.3285 561.194 57.7948C560.537 58.6546 559.223 59.0615 558.06 58.7776L557.996 58.7549C557.757 58.6438 557.511 58.5537 557.267 58.4898C556.916 58.3981 556.531 58.599 556.405 58.934C556.274 59.2827 556.427 59.6689 556.762 59.8335C556.989 59.9459 557.228 60.0389 557.471 60.1119L557.536 60.14C558.19 60.4996 558.685 61.1145 558.895 61.827C559.033 62.3005 559.16 63.2137 558.425 64.0167C557.976 64.5083 557.429 64.7681 556.791 64.7957C555.975 64.8301 554.987 64.4825 554.01 63.8139L553.936 63.7435C553.599 63.3117 553.21 63.0236 552.782 62.8896C552.469 62.7932 552.106 62.931 551.94 63.2137C551.768 63.5074 551.822 63.8746 552.07 64.1041C552.324 64.3381 552.609 64.5756 552.894 64.7888L552.948 64.8298L552.983 64.8905C553.456 65.7234 553.797 67.2592 553.701 68.1134C553.658 68.4914 553.574 68.8687 553.455 69.238L553.101 70.3348L552.803 69.1609C551.912 65.9492 547.412 62.967 543.577 61.9356C541.828 61.4651 540.039 61.9658 538.144 62.4984C534.257 63.5872 529.856 64.8198 522.833 59.9338C519.145 57.3693 518.347 51.712 517.707 47.1635C517.582 46.2711 517.463 45.4311 517.33 44.6784C516.885 42.1545 515.072 40.5226 512.715 40.5201C512.36 40.5208 511.104 40.5448 509.783 40.8813L509.231 41.0207L509.381 40.473C509.616 39.6051 509.69 38.7071 509.755 37.9164C509.894 36.2214 510.025 34.6208 511.518 33.3601C513.129 32.0048 515.102 31.4953 517.169 31.9018C518.381 32.1408 519.11 32.6741 520.029 33.5734C520.216 33.7585 520.452 34.0472 520.701 34.3555C521.439 35.2663 522.13 36.1176 522.948 36.1646C523.341 36.1864 523.691 35.8705 523.713 35.4849C523.733 35.112 523.473 34.7895 523.107 34.7336L523.042 34.7236L522.987 34.6889C522.735 34.5337 522.359 34.1039 521.837 33.459C521.559 33.1152 521.295 32.791 521.048 32.5488C519.982 31.5076 519.009 30.7982 517.455 30.4916C515.95 30.1946 514.482 30.3014 513.094 30.8055C512.192 31.1331 511.349 31.6247 510.589 32.2663C508.632 33.9148 508.463 35.983 508.313 37.8096C508.184 39.3911 508.061 40.8792 506.862 42.0973C506.618 42.3441 506.587 42.7299 506.784 43.0116L506.815 43.0551L506.83 43.1045C506.871 43.242 506.95 43.3593 507.059 43.4478C507.359 43.6922 507.829 43.6493 508.078 43.3489C508.351 43.0152 508.816 42.7306 509.456 42.4982C510.369 42.1667 511.584 41.969 512.706 41.9696C514.675 41.9703 515.647 43.5022 515.899 44.9364C516.03 45.6773 516.15 46.5382 516.266 47.3701C516.909 51.9448 517.791 58.2022 521.998 61.1264C529.579 66.3973 534.75 64.9522 538.52 63.8965C540.368 63.3779 541.828 62.9697 543.19 63.3368C546.988 64.3601 550.747 67.2034 551.401 69.5513C551.662 70.4979 551.44 71.3247 550.714 72.0785C550.495 72.3075 550.449 72.662 550.61 72.9356C550.768 73.2129 551.095 73.3533 551.403 73.2778C551.558 73.24 551.71 73.1968 551.859 73.1428C553.949 72.3838 554.93 70.0513 555.133 68.2874C555.173 67.9349 555.162 67.2721 555.014 66.461L554.919 65.9473L555.426 66.08C555.909 66.2061 556.385 66.2617 556.839 66.2428C557.86 66.2009 558.776 65.7679 559.485 64.9928C560.371 64.0225 560.659 62.721 560.279 61.4217C560.196 61.1414 560.085 60.8709 559.946 60.6139L559.751 60.2525L560.152 60.1526C560.251 60.1227 560.355 60.1062 560.452 60.0709C561.227 59.7894 561.878 59.3004 562.346 58.6859C562.934 57.9151 563.168 56.7763 562.988 55.572C562.829 54.494 562.504 53.7684 561.976 53.2993L561.727 53.0761L561.99 52.7826C562.706 51.9747 563.369 50.5523 563.131 49.3505C562.893 48.146 561.812 47.1406 560.841 46.6802L560.478 46.4956ZM547.683 48.4193C547.594 48.4516 547.501 48.4823 547.409 48.5156L547.105 48.6201L546.966 48.3295L546.932 48.2354L546.756 47.8027L547.225 47.7816C547.355 47.7771 547.488 47.7625 547.619 47.7453L550.214 47.4578L547.683 48.4193Z" fill="white"/>
<path d="M551.961 73.3989C551.807 73.4548 551.645 73.5045 551.476 73.5446C551.042 73.6472 550.586 73.4506 550.366 73.0645C550.145 72.682 550.207 72.1875 550.515 71.8682C551.172 71.1852 551.368 70.4687 551.13 69.6138C550.502 67.354 546.834 64.5997 543.12 63.6003C541.833 63.2546 540.407 63.6538 538.604 64.1594C534.774 65.2303 529.529 66.6964 521.838 61.3498C517.529 58.356 516.638 52.0228 515.986 47.3994C515.869 46.5621 515.749 45.7103 515.62 44.9774C515.386 43.6587 514.501 42.2476 512.709 42.2465C511.618 42.2469 510.44 42.4372 509.556 42.7579C508.968 42.9716 508.544 43.2289 508.302 43.5209C508.189 43.6563 508.043 43.7582 507.873 43.82C507.53 43.9445 507.149 43.8817 506.879 43.66C506.726 43.5329 506.614 43.3666 506.557 43.1771L506.555 43.1717L506.55 43.1673C506.272 42.7719 506.319 42.2344 506.658 41.8889C507.784 40.7463 507.9 39.3064 508.024 37.7812C508.178 35.8983 508.354 33.7638 510.4 32.0404C511.186 31.3772 512.059 30.8684 512.991 30.5301C514.43 30.0074 515.949 29.8973 517.507 30.2056C519.131 30.5265 520.14 31.2594 521.244 32.3384C521.505 32.5939 521.771 32.9234 522.053 33.2716C522.479 33.796 522.901 34.3007 523.131 34.4392L523.149 34.445C523.661 34.5242 524.026 34.976 523.995 35.4959C523.973 35.8905 523.703 36.2504 523.32 36.3896C523.193 36.4357 523.06 36.4566 522.928 36.4467C521.983 36.3941 521.251 35.4904 520.475 34.5328C520.243 34.2457 520.002 33.9526 519.825 33.7763C518.944 32.9176 518.252 32.4078 517.109 32.1831C515.134 31.7949 513.237 32.286 511.702 33.5804C510.3 34.7624 510.177 36.235 510.038 37.9391C509.972 38.7426 509.897 39.6559 509.653 40.5486L509.634 40.6225L509.707 40.6051C511.061 40.2595 512.348 40.2338 512.709 40.2338C515.213 40.235 517.135 41.9607 517.606 44.628C517.74 45.3861 517.857 46.2298 517.982 47.1221C518.616 51.6183 519.405 57.2088 522.99 59.701C529.902 64.5085 534.236 63.2941 538.06 62.2252C539.997 61.6832 541.823 61.1724 543.648 61.6608C547.561 62.7126 552.159 65.7782 553.076 69.087L553.13 69.302L553.177 69.154C553.29 68.8085 553.367 68.4485 553.409 68.0859C553.501 67.2944 553.168 65.8136 552.727 65.0359L552.713 65.0227C552.424 64.8079 552.131 64.5642 551.867 64.3188C551.521 63.9969 551.445 63.4854 551.685 63.0756C551.911 62.6889 552.434 62.4869 552.862 62.6209C553.341 62.7698 553.77 63.0858 554.142 63.5537L554.184 63.5933C555.101 64.2165 556.02 64.5433 556.77 64.5117C557.327 64.489 557.809 64.2591 558.203 63.827C558.845 63.128 558.733 62.3249 558.61 61.9098C558.422 61.2746 557.984 60.7243 557.402 60.3998L557.366 60.3854C557.111 60.3073 556.862 60.2092 556.627 60.0934C556.162 59.8663 555.945 59.327 556.128 58.8373C556.23 58.5627 556.452 58.3482 556.738 58.2443C556.932 58.1737 557.139 58.1625 557.335 58.2132C557.595 58.2803 557.856 58.3772 558.113 58.4942L558.126 58.4984C558.686 58.6332 559.299 58.5963 559.853 58.3952C560.317 58.2265 560.699 57.9569 560.959 57.6191C561.267 57.2147 561.378 56.5594 561.267 55.817C561.059 54.4187 561.039 54.2707 557.937 53.9537C557.403 53.8978 557.006 53.436 557.033 52.9026C557.054 52.5053 557.322 52.1428 557.706 52.0035C557.814 51.9643 557.926 51.9449 558.041 51.9426C558.203 51.9417 558.373 51.947 558.546 51.9512L558.661 51.9553C559.262 51.9712 559.944 51.9885 560.379 51.8307C560.517 51.7806 560.621 51.7152 560.693 51.6344C561.135 51.1357 561.541 50.2486 561.431 49.6855C561.319 49.117 560.62 48.4208 559.907 48.1652C559.531 48.0307 559.208 48.008 558.827 48.0856L558.824 48.0866L558.821 48.0875C558.755 48.1147 558.69 48.1473 558.622 48.1782C558.517 48.2255 558.413 48.2755 558.297 48.3204C558.036 48.4182 557.777 48.5458 557.475 48.6919L557.208 48.8225C557.171 48.8389 557.14 48.8534 557.105 48.8661C556.608 49.0466 556.09 48.8508 555.874 48.3993C555.684 48.0024 555.85 47.7931 556.21 47.3945C556.256 47.3443 556.303 47.2905 556.353 47.233L556.582 46.9458L556.638 46.9162C556.8 46.8329 556.964 46.7368 557.12 46.6437C557.476 46.4291 557.793 46.241 558.153 46.1468L558.156 46.1458L558.158 46.1448C558.735 45.8716 559.12 45.485 559.753 44.558C560.46 43.5184 560.324 42.3437 559.3 40.6357L559.259 40.5625L559.222 40.6396C557.398 44.6396 551.881 48.3787 549.642 49.4689C548.996 49.7858 548.28 50.0701 547.528 50.3065L547.504 50.3154L547.498 50.3418C547.46 50.5657 547.402 50.7756 547.317 50.9646C546.789 52.1704 545.994 52.8247 545.213 53.3518C544.014 54.165 542.957 54.4298 541.913 54.1815C540.715 53.895 539.704 52.9466 538.736 51.1907C538.468 50.7036 538.649 50.0899 539.135 49.8219C539.183 49.7952 539.231 49.7748 539.277 49.7582C539.75 49.5865 540.266 49.7796 540.508 50.2186C541.163 51.4088 541.795 52.0806 542.389 52.2245C542.84 52.3315 543.388 52.1569 544.081 51.6893C544.726 51.2538 545.159 50.8623 545.467 50.1626C545.563 49.9453 545.541 49.329 545.199 48.6401C544.971 48.1808 544.673 47.8141 544.333 47.578L544.295 47.5583C544.068 47.4704 543.835 47.369 543.609 47.2593C543.143 47.0359 542.924 46.5002 543.101 46.0125C543.266 45.5569 543.821 45.258 544.293 45.3726C544.609 45.4499 544.917 45.5754 545.214 45.7447L545.246 45.7574C546.187 46.0918 547.087 46.1638 547.896 45.9674L547.924 45.9603C548.045 45.9316 548.17 45.8955 548.291 45.8514C549.158 45.5366 549.764 44.9482 549.848 44.5582C550.303 42.4776 547.483 41.1173 546.61 40.7493C546.097 40.5335 545.855 39.9423 546.073 39.4309C546.18 39.1788 546.397 38.9753 546.664 38.8782C546.899 38.7929 547.153 38.7949 547.378 38.8838L547.475 38.9219C548.609 39.3687 550.115 39.3577 551.403 38.8899C551.981 38.6801 552.493 38.3814 552.886 38.0318C553.695 37.3055 553.943 36.4145 553.63 35.3833C552.9 32.9842 550.253 32.505 548.74 32.4301C548.236 32.406 547.827 32.0125 547.785 31.51C547.746 31.0582 548.023 30.632 548.455 30.4751C548.495 30.4604 548.537 30.4484 548.574 30.441C548.899 30.3686 549.215 30.2783 549.506 30.1724C551.084 29.5997 552.079 28.5684 552.303 27.266C552.543 25.8752 551.869 24.3785 550.663 23.6257C549.715 23.0351 548.56 22.9611 547.323 23.4103C546.767 23.6123 546.199 23.9188 545.636 24.3212C545.252 24.5946 544.697 24.5556 544.357 24.2317L544.308 24.1977C544.041 24.0539 543.857 23.8162 543.784 23.5293C543.612 22.8637 544.087 22.4022 544.545 21.9556C544.72 21.7823 544.862 21.6424 544.928 21.5546C545.401 20.9201 547.631 17.4822 545.162 12.0297C544.525 10.6198 543.215 8.75664 541.747 7.16146L541.617 7.02285L541.67 7.20433C542.024 8.3884 542.212 9.47742 542.249 10.5326C542.35 13.5289 541.009 16.4792 539.825 19.0837L539.742 19.2599C539.571 19.6324 539.405 20.0002 539.248 20.3588C537.74 23.8056 535.253 27.2116 531.641 30.7674L531.29 31.1141C529.69 32.6848 528.041 34.304 527.288 36.2732C526.842 37.4433 526.637 38.285 526.661 38.8487C526.695 39.6403 527.285 41.4238 527.853 42.4507C527.985 42.6862 528.013 42.9589 527.939 43.2173C527.865 43.4757 527.692 43.6907 527.457 43.8186C526.953 44.0961 526.35 43.9099 526.083 43.4255C525.431 42.2461 524.696 40.1622 524.643 38.939C524.594 37.8181 525.05 36.4739 525.4 35.5611C526.31 33.1753 528.122 31.3967 529.876 29.6787L530.226 29.3356C533.648 25.9644 535.993 22.7679 537.398 19.5568C537.577 19.1479 537.765 18.7323 537.968 18.2901L537.992 18.2387C539.138 15.7186 540.321 13.1114 540.237 10.5902C540.159 8.30423 539.178 6.02341 538.329 4.29148C538.087 3.79185 538.295 3.18643 538.794 2.94432C538.824 2.92717 538.856 2.91272 538.885 2.90193C539.261 2.76561 539.685 2.86436 539.961 3.15381L539.991 3.16748C540.186 3.17565 540.363 3.23325 540.517 3.33857C542.777 4.87197 545.81 8.53613 547.006 11.1806C549.038 15.6651 548.359 19.0998 547.431 21.1908L547.396 21.2706L547.481 21.2519C549.014 20.8959 550.49 21.1213 551.739 21.901C553.651 23.0917 554.678 25.3803 554.294 27.5903C554.057 28.9647 553.308 30.153 552.132 31.0308L552.07 31.0778L552.141 31.1066C553.876 31.8438 555.062 33.1126 555.569 34.7797C556.106 36.5457 555.623 38.2711 554.243 39.5123C553.376 40.29 552.123 40.8791 550.812 41.1174L550.738 41.1322L550.787 41.1906C551.762 42.3348 552.12 43.6419 551.83 44.9715C551.759 45.2987 551.617 45.6242 551.408 45.9407L551.278 46.1372L551.472 45.9996C554.525 43.8316 557.788 40.6305 557.811 38.1497C557.814 37.7284 558.072 37.3544 558.456 37.2152L558.502 37.1985C558.911 37.0621 559.361 37.2 559.623 37.5433C561.643 40.1839 563.259 43.0015 561.434 45.6862C561.261 45.941 561.103 46.1564 560.954 46.3508L560.92 46.3934L560.969 46.4183C562 46.9088 563.159 47.9863 563.415 49.2908C563.67 50.5899 562.968 52.1085 562.208 52.9693L562.134 53.0511L562.17 53.0836C562.754 53.5991 563.104 54.3765 563.274 55.5267C563.463 56.8132 563.21 58.0259 562.576 58.856C562.062 59.5296 561.361 60.04 560.551 60.3343C560.481 60.3598 560.407 60.3772 560.334 60.3946C560.301 60.4037 560.264 60.4111 560.23 60.4201L560.18 60.4324L560.199 60.4681C560.347 60.7403 560.468 61.0313 560.555 61.3314C560.968 62.7285 560.655 64.1331 559.699 65.1777C558.94 66.0077 557.942 66.4765 556.851 66.5194C556.366 66.5401 555.863 66.4825 555.352 66.3481L555.285 66.3301L555.297 66.3986C555.453 67.2403 555.462 67.9375 555.419 68.3092C555.209 70.1547 554.173 72.5957 551.961 73.3989ZM509.358 42.2208C510.301 41.8785 511.553 41.6735 512.706 41.675C514.852 41.6753 515.909 43.3317 516.184 44.8794C516.316 45.623 516.435 46.4811 516.553 47.3094C517.192 51.8398 518.061 58.0287 522.165 60.8806C529.637 66.0757 534.728 64.65 538.447 63.6103C540.337 63.0823 541.829 62.6623 543.269 63.05C547.154 64.0935 551.006 67.0312 551.681 69.4627C551.969 70.5 551.716 71.4446 550.925 72.2645C550.793 72.4041 550.765 72.615 550.862 72.7808C550.959 72.9466 551.156 73.0335 551.341 72.9876C551.487 72.9527 551.63 72.9098 551.763 72.8618C553.729 72.1478 554.655 69.9264 554.852 68.2443C554.888 67.9145 554.879 67.2843 554.736 66.502L554.559 65.5431L555.502 65.7914C555.958 65.9119 556.405 65.963 556.832 65.9448C557.772 65.9078 558.622 65.5047 559.277 64.7891C560.093 63.896 560.359 62.6938 560.005 61.4916C559.927 61.2275 559.824 60.9758 559.695 60.7393L559.323 60.0522L560.085 59.8607C560.119 59.8517 560.16 59.8396 560.203 59.8303C560.253 59.818 560.306 59.8048 560.355 59.7871C561.063 59.5302 561.671 59.084 562.119 58.4982C562.659 57.7902 562.874 56.7317 562.707 55.5986C562.557 54.5874 562.266 53.9197 561.789 53.499L561.324 53.0862L561.782 52.5789C562.452 51.8239 563.073 50.5023 562.857 49.3932C562.638 48.2852 561.627 47.3548 560.726 46.9269L560.038 46.5981L560.506 45.9928C560.648 45.8104 560.799 45.6033 560.963 45.3578C562.585 42.9722 561.06 40.3559 559.169 37.882C559.057 37.7338 558.861 37.674 558.683 37.7324L558.645 37.7461C558.494 37.8011 558.387 37.9616 558.387 38.1446C558.366 40.8409 554.973 44.2077 551.807 46.4568L550.919 47.0865L552.43 46.9187L549.692 47.9584L549.107 48.375L549.279 48.1175L547.786 48.6843L547.783 48.6853C547.688 48.7196 547.596 48.7503 547.504 48.7836L546.961 48.9717L546.705 48.4371L546.666 48.3295L546.343 47.5305L547.218 47.4926C547.339 47.4883 547.46 47.475 547.58 47.4617L549.887 47.2057L550.937 45.6186C551.105 45.3658 551.221 45.1044 551.276 44.8438C551.528 43.6955 551.21 42.5593 550.355 41.5577L549.662 40.7435L550.716 40.5494C551.922 40.3276 553.078 39.7892 553.864 39.0835C555.071 37.9965 555.495 36.4874 555.025 34.9407C554.569 33.4406 553.496 32.2955 551.921 31.6281L550.931 31.2081L551.795 30.5655C552.852 29.7798 553.522 28.7141 553.735 27.4889C554.079 25.5065 553.156 23.4542 551.44 22.3813C550.321 21.6822 548.998 21.4834 547.614 21.8035L546.41 22.0823L546.911 20.9534C547.789 18.9688 548.431 15.7028 546.486 11.4088C545.324 8.84037 542.383 5.28597 540.197 3.80218C540.131 3.756 540.056 3.73453 539.971 3.72872L539.723 3.7184L539.551 3.54018C539.42 3.40524 539.218 3.36283 539.046 3.44639C538.834 3.55102 538.742 3.81262 538.848 4.0271C539.721 5.80819 540.731 8.16067 540.813 10.5579C540.903 13.214 539.689 15.8809 538.517 18.4623L538.493 18.5137C538.292 18.955 538.103 19.3679 537.926 19.7731C536.49 23.0504 534.105 26.3068 530.629 29.7312L530.28 30.0832C528.569 31.7612 526.802 33.4932 525.935 35.7627C525.605 36.6288 525.17 37.8981 525.215 38.9141C525.266 40.0559 525.963 42.0257 526.585 43.1489C526.701 43.3595 526.962 43.4383 527.178 43.3172C527.28 43.2619 527.353 43.1684 527.385 43.056C527.418 42.9437 527.406 42.8263 527.348 42.7255C526.724 41.597 526.124 39.7594 526.086 38.8719C526.058 38.2304 526.274 37.3113 526.75 36.0699C527.547 33.9807 529.242 32.3177 530.883 30.7078L531.237 30.3602C534.792 26.8584 537.241 23.5114 538.719 20.1307C538.878 19.7685 539.046 19.397 539.216 19.0245L539.305 18.8309C540.465 16.2842 541.776 13.3963 541.679 10.5357C541.644 9.5312 541.461 8.48914 541.122 7.3518L540.356 4.78873L542.169 6.75844C543.676 8.39151 545.023 10.3171 545.684 11.7761C548.286 17.5184 545.896 21.1971 545.388 21.8779C545.296 22.0027 545.145 22.1518 544.945 22.3494C544.426 22.8575 544.264 23.0748 544.34 23.3698C544.374 23.5066 544.463 23.6146 544.594 23.6825L544.744 23.7925C544.888 23.9353 545.137 23.9573 545.302 23.8395C545.906 23.407 546.52 23.0775 547.128 22.8568C548.538 22.3449 549.868 22.4375 550.97 23.1244C552.369 23.9959 553.149 25.7316 552.87 27.3463C552.606 28.8581 551.482 30.0488 549.702 30.695C549.386 30.8098 549.052 30.9069 548.701 30.9855C548.687 30.9877 548.671 30.9936 548.654 30.9995C548.465 31.0681 548.345 31.2517 548.361 31.4469C548.379 31.6629 548.556 31.8328 548.774 31.8422C550.439 31.9228 553.352 32.4634 554.187 35.1994C554.566 36.4444 554.252 37.5663 553.276 38.4412C552.831 38.8404 552.254 39.1779 551.606 39.4133C550.215 39.9184 548.586 39.9373 547.336 39.4656L547.318 39.4661L547.161 39.3953C546.961 39.3247 546.692 39.4436 546.61 39.6379C546.515 39.8579 546.621 40.115 546.841 40.2085C547.819 40.618 550.968 42.1539 550.42 44.6673C550.278 45.3126 549.489 46.0166 548.497 46.3765C548.354 46.4285 548.208 46.4724 548.067 46.5053C547.121 46.7362 546.11 46.6555 545.037 46.275L544.96 46.2391C544.687 46.0854 544.428 45.9785 544.166 45.9151C543.969 45.868 543.721 46.0008 543.653 46.1929C543.576 46.4033 543.672 46.6335 543.873 46.7312C544.092 46.8374 544.313 46.9337 544.532 47.0154L544.661 47.0843C545.086 47.3778 545.452 47.8233 545.728 48.3718C546.087 49.1001 546.204 49.9257 546.007 50.3777C545.644 51.2039 545.13 51.6674 544.416 52.1492C543.566 52.7226 542.891 52.9162 542.265 52.7687C541.498 52.5843 540.765 51.8365 540.017 50.4822C539.902 50.2744 539.64 50.1929 539.423 50.3112C539.214 50.4266 539.136 50.6923 539.252 50.9029C540.137 52.5061 541.028 53.3673 542.062 53.6131C542.938 53.8216 543.851 53.5816 544.903 52.8676C545.612 52.3878 546.333 51.7971 546.803 50.7252C546.866 50.5803 546.914 50.4169 546.941 50.2395L547.003 49.8637L547.368 49.7494C548.092 49.52 548.782 49.2482 549.402 48.9439C551.581 47.8816 556.948 44.2517 558.711 40.3929L559.202 39.3195L559.807 40.3299C560.963 42.2581 561.092 43.6177 560.241 44.8678C559.544 45.8944 559.102 46.3261 558.421 46.6493L558.369 46.6743L558.313 46.6885C558.023 46.7663 557.745 46.9344 557.444 47.1139C557.281 47.2127 557.127 47.3021 556.965 47.3881L556.806 47.5891C556.746 47.6596 556.696 47.7144 556.648 47.7683C556.576 47.8491 556.41 48.0312 556.379 48.0973C556.383 48.099 556.389 48.1151 556.402 48.1437C556.499 48.3431 556.737 48.4089 556.969 48.3001L557.232 48.1742C557.549 48.0195 557.819 47.888 558.105 47.7813C558.206 47.7413 558.301 47.698 558.392 47.6556C558.466 47.6227 558.533 47.5892 558.605 47.56L558.661 47.5367L558.723 47.5232C559.207 47.4237 559.636 47.4535 560.114 47.6241C561.024 47.9486 561.854 48.8042 562.007 49.5708C562.159 50.3438 561.67 51.4044 561.135 52.0099C560.998 52.1631 560.815 52.2814 560.588 52.3638C560.051 52.559 559.313 52.5405 558.661 52.5214L558.544 52.5183C558.378 52.5148 558.214 52.5103 558.058 52.5092C557.835 52.5108 557.634 52.7057 557.624 52.9225C557.612 53.152 557.783 53.352 558.015 53.3772C561.114 53.6953 561.576 53.8654 561.855 55.7255C561.99 56.6203 561.836 57.4344 561.434 57.961C561.106 58.3876 560.635 58.7232 560.068 58.9291C559.406 59.1694 558.672 59.2106 558.002 59.0489L557.912 59.0179C557.661 58.9017 557.433 58.8201 557.206 58.7594C557.004 58.7079 556.758 58.837 556.686 59.0274C556.607 59.2389 556.7 59.47 556.902 59.5704C557.114 59.6759 557.338 59.7621 557.568 59.8309L557.687 59.8819C558.406 60.2787 558.951 60.9547 559.181 61.7391C559.337 62.2701 559.478 63.2971 558.646 64.2051C558.15 64.7506 557.522 65.0488 556.811 65.0785C555.931 65.1146 554.885 64.7487 553.856 64.0472L553.821 64.0173L553.72 63.9169C553.418 63.5303 553.078 63.2761 552.706 63.1614C552.527 63.1048 552.294 63.1955 552.2 63.3576C552.096 63.5353 552.127 63.7554 552.279 63.8952C552.528 64.1275 552.804 64.3562 553.076 64.5588L553.181 64.6366L553.245 64.7471C553.752 65.6379 554.103 67.2252 553.999 68.1429C553.952 68.5437 553.866 68.9401 553.741 69.3204L553.078 71.3669L552.537 69.2279C551.675 66.1213 547.27 63.2171 543.513 62.2062C541.842 61.7561 540.089 62.2468 538.232 62.7657C534.286 63.8697 529.813 65.1224 522.68 60.1607C518.89 57.5266 518.082 51.7997 517.432 47.1972C517.307 46.3048 517.189 45.4675 517.058 44.7202C516.637 42.3396 514.938 40.8006 512.725 40.8004C512.38 40.8009 511.156 40.8249 509.866 41.1532L508.839 41.4136L509.117 40.3932C509.345 39.549 509.419 38.6665 509.482 37.8884C509.626 36.1308 509.761 34.4739 511.348 33.1364C512.008 32.58 512.735 32.1577 513.505 31.8782C514.685 31.4496 515.943 31.3613 517.239 31.6152C518.523 31.8676 519.285 32.4253 520.246 33.3616C520.446 33.5598 520.699 33.8698 520.938 34.1667C521.632 35.0234 522.285 35.8304 522.978 35.8683C523.205 35.8801 523.426 35.681 523.437 35.4579C523.451 35.2338 523.294 35.038 523.074 35.0051L522.951 34.9859L522.845 34.9209C522.558 34.745 522.178 34.3135 521.623 33.6259C521.35 33.2893 521.092 32.9722 520.854 32.7387C519.825 31.7328 518.89 31.0495 517.408 30.759C515.957 30.4732 514.538 30.5741 513.201 31.0596C512.332 31.3754 511.52 31.8499 510.785 32.4699C508.921 34.0388 508.758 36.047 508.611 37.8147C508.477 39.4498 508.352 40.9905 507.081 42.2803C506.936 42.4274 506.916 42.6599 507.033 42.8305L507.09 42.9105L507.118 43.0039C507.141 43.0839 507.192 43.1568 507.257 43.2093C507.426 43.3486 507.728 43.3212 507.87 43.1479C508.166 42.7846 508.672 42.4699 509.358 42.2208ZM547.255 48.2679L547.315 48.2463C547.405 48.2166 547.497 48.1833 547.583 48.1519L548 47.9945L547.65 48.0332C547.503 48.0499 547.368 48.0654 547.236 48.0709L547.172 48.0727L547.196 48.1309L547.23 48.2224L547.255 48.2679Z" fill="white"/>
<path d="M530.516 47.0561C530.631 46.9017 530.681 46.7101 530.651 46.5197C530.625 46.3285 530.524 46.1609 530.37 46.0466C530.107 45.8528 529.81 45.5159 529.53 45.0997C529.344 44.8232 528.997 44.7087 528.684 44.8225C528.63 44.8421 528.578 44.8671 528.529 44.9001C528.196 45.1213 528.106 45.5713 528.327 45.9021C528.588 46.2916 529.002 46.8354 529.504 47.2074C529.81 47.4344 530.281 47.3697 530.516 47.0561Z" fill="white"/>
<path d="M530.286 47.5661C529.962 47.6838 529.595 47.6342 529.331 47.4377C528.8 47.043 528.36 46.4719 528.086 46.0628C527.777 45.5994 527.905 44.9745 528.369 44.6627C528.435 44.6174 528.508 44.5818 528.586 44.5534C529.024 44.3945 529.512 44.5522 529.77 44.9427C530.032 45.3349 530.307 45.6461 530.541 45.8199C530.758 45.9787 530.898 46.214 530.937 46.4801C530.975 46.7463 530.908 47.0145 530.747 47.2282C530.632 47.3826 530.472 47.4985 530.286 47.5661ZM528.782 45.0915C528.749 45.1032 528.718 45.1177 528.688 45.1375C528.487 45.2718 528.433 45.5441 528.566 45.7424C528.814 46.1151 529.209 46.6295 529.674 46.9753C529.787 47.0591 529.946 47.0773 530.089 47.0254C530.168 46.9969 530.235 46.9479 530.286 46.8841C530.356 46.7915 530.385 46.6775 530.367 46.562C530.35 46.4466 530.289 46.3468 530.197 46.2769C529.909 46.0648 529.588 45.7032 529.291 45.2567C529.18 45.0931 528.971 45.0228 528.782 45.0915Z" fill="white"/>
<path d="M507.317 39.756C506.904 39.906 506.425 39.8423 506.062 39.548C503.322 37.3332 499.892 36.4228 497.136 35.694C496.446 35.512 496.037 34.805 496.221 34.117C496.405 33.4289 497.115 33.0188 497.802 33.2017C500.796 33.9964 504.523 34.9819 507.691 37.5436C508.244 37.9911 508.328 38.8013 507.877 39.3545C507.726 39.5435 507.53 39.6785 507.317 39.756Z" fill="white"/>
<path d="M512.192 51.6741C512.024 51.7349 511.841 51.7617 511.653 51.7479C510.942 51.6925 510.409 51.0759 510.466 50.3641C510.628 48.3107 510.35 46.2649 509.663 44.4406C509.413 43.7763 509.751 43.0323 510.42 42.7801C511.09 42.5188 511.832 42.8641 512.084 43.5311C512.9 45.7041 513.233 48.1352 513.043 50.5581C513.001 51.0819 512.654 51.5064 512.192 51.6741Z" fill="white"/>
<path d="M507.107 36.9481C506.78 37.0668 506.419 37.0487 506.106 36.9007C504.185 35.9811 502.608 34.3156 501.992 32.5509C501.645 31.5623 501.619 30.5974 501.595 29.7476C501.579 29.1837 501.566 28.6496 501.461 28.1579C501.348 27.6203 501.588 27.0701 502.063 26.7852C502.534 26.5013 503.135 26.5481 503.557 26.9032C503.8 27.1075 504.054 27.3106 504.313 27.5181C506.531 29.2918 509.568 31.7212 507.875 36.1913C507.747 36.53 507.481 36.8001 507.145 36.9344C507.132 36.9393 507.121 36.9432 507.107 36.9481ZM504.244 30.8471C504.278 31.1424 504.335 31.4261 504.43 31.6962C504.663 32.3636 505.144 33.0324 505.771 33.5965C505.726 32.547 505.154 31.7132 504.244 30.8471Z" fill="white"/>
<path d="M500.099 33.8714C499.773 33.99 499.412 33.972 499.098 33.824C497.362 32.9925 495.938 31.4849 495.378 29.8854C495.064 28.9855 495.04 28.1202 495.019 27.3545C495.004 26.8603 494.99 26.3933 494.904 25.9709C494.792 25.4332 495.032 24.8831 495.506 24.5982C495.981 24.3133 496.579 24.361 497 24.7134C497.215 24.8914 497.439 25.0718 497.667 25.2538C499.554 26.764 502.409 29.0436 500.87 33.1072C500.743 33.4459 500.477 33.716 500.141 33.8503C500.126 33.8616 500.113 33.8665 500.099 33.8714ZM497.74 28.7628C497.76 28.8528 497.787 28.9435 497.819 29.0296C497.978 29.4863 498.275 29.9418 498.661 30.3559C498.536 29.7769 498.211 29.2678 497.74 28.7628Z" fill="white"/>
<path d="M495.528 41.7649C495.447 41.7944 495.365 41.8211 495.283 41.8478C494.368 42.1314 493.501 42.1264 492.733 42.1224C492.237 42.1198 491.77 42.1155 491.342 42.189C490.798 42.2829 490.254 42.0235 489.991 41.5435C489.725 41.0617 489.796 40.4664 490.167 40.0576C490.355 39.8495 490.544 39.6314 490.736 39.4096C491.761 38.2244 492.927 36.8814 494.585 36.2792C495.881 35.8085 497.276 35.8776 498.733 36.4812C499.068 36.6214 499.326 36.8932 499.449 37.2322C499.572 37.5712 499.544 37.9497 499.375 38.2669C498.515 39.8976 497.079 41.202 495.528 41.7649ZM494.247 39.4562C494.341 39.4373 494.43 39.414 494.521 39.387C494.988 39.2418 495.453 38.9635 495.882 38.5884C495.303 38.695 494.76 39.0172 494.247 39.4562Z" fill="white"/>
<path d="M494.883 35.2476C493.038 35.9174 491.073 35.9611 489.488 35.3673C488.504 34.997 487.746 34.4011 487.076 33.8771C486.631 33.5271 486.212 33.1981 485.768 32.9604C485.283 32.7013 485.015 32.1652 485.102 31.622C485.189 31.0788 485.611 30.6513 486.154 30.5548C486.467 30.499 486.786 30.4349 487.113 30.3678C489.906 29.8076 493.729 29.0403 496.076 33.1973C496.255 33.513 496.29 33.887 496.179 34.2289C496.065 34.5717 495.813 34.855 495.482 35.0027C495.288 35.0915 495.085 35.1741 494.883 35.2476ZM489.627 32.5518C489.879 32.7133 490.134 32.8521 490.4 32.9534C491.054 33.197 491.88 33.2593 492.721 33.1426C491.886 32.5082 490.878 32.4111 489.627 32.5518Z" fill="white"/>
<path d="M501.478 44.9247C500.622 45.2356 499.769 45.3199 499.021 45.3968C498.457 45.4523 497.923 45.5061 497.439 45.6454C496.907 45.796 496.342 45.5961 496.026 45.1474C495.71 44.6987 495.718 44.0962 496.043 43.6524C496.228 43.3963 496.416 43.1302 496.607 42.8568C497.716 41.2635 498.973 39.4578 501.045 38.7056C502.257 38.2652 503.606 38.2568 505.048 38.686C505.394 38.7888 505.685 39.0334 505.84 39.358C505.998 39.6842 506.012 40.0597 505.877 40.395C505.088 42.3716 503.524 44.06 501.803 44.8006C501.693 44.8435 501.586 44.8855 501.478 44.9247ZM499.936 42.6803C500.23 42.625 500.508 42.5484 500.778 42.4323C501.429 42.1533 502.066 41.6266 502.587 40.9654C501.538 41.0905 500.691 41.7789 499.936 42.6803Z" fill="white"/>
</g>
<g opacity="0.5" clip-path="url(#clip2)">
<path d="M169.955 149.488C167.133 149.488 164.836 147.206 164.836 144.403C164.836 141.6 167.133 139.318 169.955 139.318C172.777 139.318 175.074 141.6 175.074 144.403C175.071 147.209 172.777 149.488 169.955 149.488ZM169.955 141.689C168.448 141.689 167.223 142.906 167.223 144.403C167.223 145.899 168.448 147.117 169.955 147.117C171.461 147.117 172.687 145.899 172.687 144.403C172.684 142.906 171.461 141.689 169.955 141.689Z" fill="white"/>
<path d="M165.207 153.33C165.038 153.33 164.868 153.293 164.703 153.219C164.107 152.942 163.847 152.236 164.125 151.643C165.239 149.269 167.496 147.797 170.013 147.797C172.398 147.797 174.599 149.159 175.756 151.351C176.061 151.931 175.838 152.647 175.254 152.953C174.671 153.258 173.949 153.034 173.642 152.452C172.899 151.045 171.509 150.168 170.013 150.168C168.433 150.168 167.006 151.116 166.29 152.645C166.088 153.077 165.658 153.33 165.207 153.33Z" fill="white"/>
<path d="M181.14 149.488C178.318 149.488 176.021 147.206 176.021 144.403C176.021 141.6 178.318 139.318 181.14 139.318C183.962 139.318 186.259 141.6 186.259 144.403C186.259 147.209 183.962 149.488 181.14 149.488ZM181.14 141.689C179.633 141.689 178.408 142.906 178.408 144.403C178.408 145.899 179.633 147.117 181.14 147.117C182.646 147.117 183.872 145.899 183.872 144.403C183.872 142.906 182.646 141.689 181.14 141.689Z" fill="white"/>
<path d="M176.395 153.33C176.225 153.33 176.055 153.293 175.891 153.219C175.294 152.942 175.034 152.236 175.313 151.643C176.427 149.269 178.684 147.797 181.201 147.797C183.585 147.797 185.787 149.159 186.943 151.348C187.248 151.928 187.025 152.645 186.442 152.95C185.858 153.256 185.137 153.032 184.829 152.452C184.087 151.043 182.697 150.168 181.201 150.168C179.62 150.168 178.193 151.116 177.477 152.645C177.275 153.077 176.843 153.33 176.395 153.33Z" fill="white"/>
<path d="M192.094 149.488C189.272 149.488 186.975 147.206 186.975 144.403C186.975 141.6 189.272 139.318 192.094 139.318C194.916 139.318 197.213 141.6 197.213 144.403C197.213 147.209 194.916 149.488 192.094 149.488ZM192.094 141.689C190.587 141.689 189.362 142.906 189.362 144.403C189.362 145.899 190.587 147.117 192.094 147.117C193.6 147.117 194.826 145.899 194.826 144.403C194.826 142.906 193.6 141.689 192.094 141.689Z" fill="white"/>
<path d="M187.346 153.33C187.177 153.33 187.007 153.293 186.842 153.219C186.246 152.942 185.986 152.236 186.264 151.643C187.378 149.269 189.635 147.797 192.152 147.797C194.537 147.797 196.738 149.159 197.894 151.351C198.199 151.931 197.974 152.647 197.391 152.95C196.807 153.256 196.086 153.032 195.781 152.45C195.038 151.043 193.648 150.168 192.152 150.168C190.571 150.168 189.145 151.116 188.428 152.645C188.227 153.077 187.797 153.33 187.346 153.33Z" fill="white"/>
<path d="M202.814 149.488C199.992 149.488 197.696 147.206 197.696 144.403C197.696 141.6 199.992 139.318 202.814 139.318C205.637 139.318 207.933 141.6 207.933 144.403C207.931 147.209 205.637 149.488 202.814 149.488ZM202.814 141.689C201.308 141.689 200.083 142.906 200.083 144.403C200.083 145.899 201.308 147.117 202.814 147.117C204.321 147.117 205.546 145.899 205.546 144.403C205.544 142.906 204.318 141.689 202.814 141.689Z" fill="white"/>
<path d="M198.067 153.33C197.897 153.33 197.727 153.293 197.563 153.219C196.966 152.942 196.706 152.236 196.985 151.643C198.099 149.269 200.356 147.797 202.873 147.797C205.257 147.797 207.459 149.159 208.615 151.351C208.92 151.931 208.695 152.647 208.111 152.95C207.528 153.256 206.806 153.032 206.501 152.45C205.759 151.043 204.369 150.168 202.873 150.168C201.292 150.168 199.865 151.116 199.149 152.645C198.948 153.077 198.518 153.33 198.067 153.33Z" fill="white"/>
<path d="M214.232 149.488C211.41 149.488 209.113 147.206 209.113 144.403C209.113 141.6 211.41 139.318 214.232 139.318C217.054 139.318 219.351 141.6 219.351 144.403C219.351 147.209 217.054 149.488 214.232 149.488ZM214.232 141.689C212.726 141.689 211.5 142.906 211.5 144.403C211.5 145.899 212.726 147.117 214.232 147.117C215.739 147.117 216.964 145.899 216.964 144.403C216.964 142.906 215.739 141.689 214.232 141.689Z" fill="white"/>
<path d="M209.485 153.33C209.315 153.33 209.145 153.293 208.981 153.219C208.384 152.942 208.124 152.236 208.403 151.643C209.517 149.269 211.774 147.797 214.291 147.797C216.675 147.797 218.876 149.159 220.033 151.351C220.338 151.931 220.112 152.647 219.529 152.953C218.945 153.258 218.224 153.034 217.919 152.452C217.176 151.045 215.787 150.168 214.291 150.168C212.71 150.168 211.283 151.116 210.567 152.645C210.365 153.077 209.936 153.33 209.485 153.33Z" fill="white"/>
<path d="M220.776 161.001H162.404C161.786 161.001 161.271 160.534 161.216 159.923L160.417 151.281C160.356 150.63 160.842 150.053 161.497 149.993C162.152 149.932 162.733 150.412 162.794 151.065L163.491 158.629H219.762L221.038 150.978C221.147 150.333 221.762 149.895 222.409 150.003C223.059 150.111 223.5 150.72 223.393 151.365L221.951 160.007C221.858 160.579 221.359 161.001 220.776 161.001Z" fill="white"/>
<path d="M201.865 125.76C201.658 125.76 201.448 125.707 201.257 125.594L197.844 123.581H186.198L182.575 125.589C181.999 125.907 181.272 125.702 180.951 125.13C180.631 124.558 180.837 123.837 181.413 123.518L185.307 121.36C185.484 121.262 185.683 121.21 185.887 121.21H198.173C198.388 121.21 198.597 121.268 198.783 121.376L202.477 123.555C203.045 123.889 203.231 124.616 202.894 125.18C202.668 125.552 202.273 125.76 201.865 125.76Z" fill="white"/>
<path d="M191.767 137.706C191.107 137.706 190.574 137.177 190.574 136.521V126.857C190.574 126.2 191.107 125.671 191.767 125.671C192.425 125.671 192.961 126.2 192.961 126.857V136.521C192.961 137.174 192.425 137.706 191.767 137.706Z" fill="white"/>
<path d="M196.006 131.76H188.272C187.614 131.76 187.078 131.231 187.078 130.575C187.078 129.918 187.614 129.389 188.272 129.389H196.006C196.666 129.389 197.199 129.918 197.199 130.575C197.199 131.228 196.666 131.76 196.006 131.76Z" fill="white"/>
<path d="M183.535 137.707C182.874 137.707 182.341 137.177 182.341 136.521V124.625C182.341 123.969 182.874 123.44 183.535 123.44C184.192 123.44 184.728 123.969 184.728 124.625V136.519C184.728 137.175 184.192 137.707 183.535 137.707Z" fill="white"/>
<path d="M199.748 136.962C199.088 136.962 198.555 136.433 198.555 135.777V123.881C198.555 123.225 199.088 122.695 199.748 122.695C200.406 122.695 200.942 123.225 200.942 123.881V135.774C200.942 136.43 200.409 136.962 199.748 136.962Z" fill="white"/>
<path d="M192.112 117.253C189.462 117.253 186.956 113.975 186.956 110.51C186.956 108.397 186.956 104 192.112 104C197.268 104 197.268 108.234 197.268 110.51C197.268 114.038 194.81 117.253 192.112 117.253ZM192.112 106.371C189.887 106.371 189.343 107.183 189.343 110.51C189.343 113.079 191.139 114.881 192.112 114.881C193.202 114.881 194.881 113.006 194.881 110.51C194.881 107.146 194.364 106.371 192.112 106.371Z" fill="white"/>
<path d="M188.349 111.464C188.147 111.464 187.94 111.414 187.755 111.306C187.184 110.979 186.988 110.254 187.317 109.685C188.171 108.213 189.752 107.28 191.656 107.124C193.661 106.961 195.605 107.701 196.73 109.064C197.149 109.569 197.075 110.318 196.565 110.731C196.056 111.148 195.303 111.074 194.887 110.568C194.261 109.812 193.07 109.388 191.852 109.488C190.741 109.58 189.842 110.083 189.386 110.871C189.163 111.25 188.76 111.464 188.349 111.464Z" fill="white"/>
<path d="M182.988 123.735C182.986 123.735 182.986 123.735 182.983 123.735C182.325 123.732 181.792 123.2 181.795 122.544C181.8 121.053 181.811 118.276 184.198 116.908C184.85 116.534 185.59 116.294 186.309 116.065C187.049 115.826 187.815 115.58 188.173 115.259C188.664 114.822 189.42 114.864 189.858 115.354C190.298 115.841 190.256 116.592 189.762 117.027C189.028 117.68 188.02 118.004 187.044 118.318C186.444 118.513 185.824 118.713 185.389 118.961C184.391 119.533 184.184 120.758 184.179 122.552C184.179 123.205 183.646 123.735 182.988 123.735Z" fill="white"/>
<path d="M200.857 123.735C200.199 123.735 199.666 123.208 199.663 122.555C199.658 120.763 199.454 119.535 198.456 118.966C198.021 118.716 197.401 118.516 196.801 118.323C195.825 118.01 194.818 117.683 194.083 117.032C193.592 116.595 193.55 115.847 193.987 115.359C194.428 114.872 195.181 114.827 195.672 115.264C196.032 115.583 196.796 115.831 197.539 116.07C198.258 116.302 198.998 116.542 199.65 116.914C202.037 118.281 202.048 121.058 202.053 122.549C202.056 123.205 201.523 123.738 200.865 123.74C200.859 123.735 200.857 123.735 200.857 123.735Z" fill="white"/>
<path d="M218.208 154.555H165.324C164.663 154.555 164.13 154.025 164.13 153.369C164.13 152.713 164.663 152.183 165.324 152.183H218.208C218.866 152.183 219.402 152.713 219.402 153.369C219.402 154.025 218.868 154.555 218.208 154.555Z" fill="white"/>
</g>
<g opacity="0.5" clip-path="url(#clip3)">
<path d="M8.56365 160H1.22532C0.547311 160 0 159.457 0 158.785V156.965C0 156.293 0.547311 155.75 1.22532 155.75C1.90334 155.75 2.45065 156.293 2.45065 156.965V157.57H7.33833V156.185C7.33833 155.513 7.88564 154.97 8.56365 154.97C9.24166 154.97 9.78897 155.513 9.78897 156.185V158.785C9.78897 159.457 9.24166 160 8.56365 160Z" fill="white"/>
<path d="M1.22532 155.064C0.547311 155.064 0 154.522 0 153.85V129.489C0 128.947 0.362151 128.469 0.887679 128.32L8.226 126.241C8.59632 126.136 8.99387 126.209 9.30157 126.438C9.60926 126.668 9.78897 127.027 9.78897 127.408V152.767C9.78897 153.439 9.24166 153.982 8.56365 153.982C7.88564 153.982 7.33833 153.439 7.33833 152.767V129.019L2.45065 130.404V153.85C2.45065 154.519 1.90334 155.064 1.22532 155.064Z" fill="white"/>
<path d="M34.7746 153.918C34.0966 153.918 33.5493 153.375 33.5493 152.703V152.271C33.5493 151.599 34.0966 151.056 34.7746 151.056C35.4527 151.056 36 151.599 36 152.271V152.703C36 153.373 35.4527 153.918 34.7746 153.918Z" fill="white"/>
<path d="M27.4367 153.986C26.7587 153.986 26.2114 153.443 26.2114 152.771V129.283C26.2114 128.74 26.5736 128.262 27.0991 128.114L34.4374 126.035C34.8077 125.93 35.2053 126.005 35.513 126.232C35.8207 126.462 36.0004 126.821 36.0004 127.201V149.299C36.0004 149.972 35.4531 150.514 34.7751 150.514C34.0971 150.514 33.5497 149.972 33.5497 149.299V128.813L28.6621 130.198V152.771C28.6621 153.441 28.112 153.986 27.4367 153.986Z" fill="white"/>
<path d="M34.7751 159.742H27.4367C26.7587 159.742 26.2114 159.199 26.2114 158.527V156.189C26.2114 155.517 26.7587 154.974 27.4367 154.974C28.1148 154.974 28.6621 155.517 28.6621 156.189V157.312H33.5497V156.189C33.5497 155.517 34.0971 154.974 34.7751 154.974C35.4531 154.974 36.0004 155.517 36.0004 156.189V158.527C36.0004 159.199 35.4531 159.742 34.7751 159.742Z" fill="white"/>
<path d="M14.5925 131.932C13.9145 131.932 13.3672 131.39 13.3672 130.717V120.968C13.3672 120.426 13.7293 119.948 14.2549 119.799L21.5932 117.721C21.9635 117.615 22.3611 117.688 22.6687 117.918C22.9764 118.147 23.1562 118.506 23.1562 118.887V121.101C23.1562 121.773 22.6088 122.316 21.9308 122.316C21.2528 122.316 20.7055 121.773 20.7055 121.101V120.499L15.8178 121.884V130.717C15.8178 131.39 15.2705 131.932 14.5925 131.932Z" fill="white"/>
<path d="M14.5925 149.433C13.9145 149.433 13.3672 148.891 13.3672 148.219V139.814C13.3672 139.142 13.9145 138.599 14.5925 138.599C15.2705 138.599 15.8178 139.142 15.8178 139.814V148.219C15.8178 148.891 15.2705 149.433 14.5925 149.433Z" fill="white"/>
<path d="M14.5925 155.813C13.9145 155.813 13.3672 155.271 13.3672 154.598V151.189C13.3672 150.516 13.9145 149.974 14.5925 149.974C15.2705 149.974 15.8178 150.516 15.8178 151.189V154.598C15.8178 155.271 15.2705 155.813 14.5925 155.813Z" fill="white"/>
<path d="M21.9308 159.741H14.5925C13.9145 159.741 13.3672 159.199 13.3672 158.526V157.487C13.3672 156.815 13.9145 156.272 14.5925 156.272C15.2079 156.272 15.7198 156.723 15.8042 157.311H20.7055V132.797C20.7055 132.125 21.2528 131.582 21.9308 131.582C22.6088 131.582 23.1562 132.125 23.1562 132.797V158.526C23.1562 159.199 22.6088 159.741 21.9308 159.741Z" fill="white"/>
<path d="M4.75694 129.458C4.74605 129.458 4.73516 129.458 4.72699 129.458C4.04897 129.442 3.51528 128.883 3.53162 128.213L3.66776 122.789C3.6841 122.12 4.25864 121.585 4.92304 121.604C5.60105 121.62 6.13475 122.179 6.11841 122.849L5.98226 128.273C5.96592 128.931 5.42134 129.458 4.75694 129.458Z" fill="white"/>
<path d="M4.57731 127.216C2.95988 127.216 1.03476 126.26 0.482007 123.579C-0.00267679 121.22 1.23082 119.154 2.32271 117.335C3.24035 115.801 4.10896 114.352 3.83395 113.015C3.70052 112.356 4.12802 111.717 4.79242 111.584C5.4541 111.452 6.10216 111.876 6.23558 112.535C6.23558 112.535 6.23558 112.535 6.23558 112.537C6.4752 113.709 7.01434 115.045 7.58344 116.463C8.34586 118.361 9.13551 120.326 9.30978 122.173C9.42959 123.447 9.01298 124.673 8.13347 125.629C7.21856 126.622 5.88977 127.216 4.57731 127.216ZM5.23626 117.181C4.97758 117.662 4.69984 118.126 4.43299 118.574C3.48541 120.159 2.58956 121.655 2.88636 123.094C3.04429 123.866 3.46635 124.786 4.58003 124.786C5.20631 124.786 5.87343 124.481 6.32544 123.993C6.61407 123.679 6.94354 123.148 6.87275 122.4C6.73115 120.901 6.00958 119.1 5.30978 117.362C5.28255 117.3 5.25804 117.24 5.23626 117.181Z" fill="white"/>
<path d="M31.0582 129.457C31.0473 129.457 31.0364 129.457 31.0283 129.457C30.353 129.44 29.8165 128.881 29.8329 128.212L29.969 122.788C29.9854 122.116 30.5572 121.584 31.2243 121.603C31.8996 121.619 32.436 122.178 32.4197 122.847L32.2835 128.271C32.2672 128.93 31.7226 129.457 31.0582 129.457Z" fill="white"/>
<path d="M30.8784 127.216C29.261 127.216 27.3359 126.26 26.7831 123.579C26.2984 121.22 27.5346 119.154 28.6238 117.335C29.5415 115.801 30.4073 114.354 30.1351 113.02V113.018C30.0016 112.359 30.4291 111.719 31.0935 111.587C31.7552 111.454 32.4033 111.878 32.5367 112.537C32.7763 113.709 33.3154 115.048 33.8845 116.465C34.647 118.363 35.4366 120.329 35.6082 122.175C35.728 123.45 35.3114 124.678 34.4319 125.631C33.5224 126.622 32.1909 127.216 30.8784 127.216ZM31.5374 117.181C31.2787 117.661 31.0009 118.126 30.7314 118.574C29.7838 120.159 28.8879 121.654 29.1847 123.093C29.3427 123.865 29.7647 124.786 30.8784 124.786C31.5047 124.786 32.1718 124.481 32.6238 123.992C32.9125 123.679 33.2419 123.147 33.1711 122.399C33.0295 120.901 32.308 119.103 31.6109 117.364C31.5864 117.299 31.5619 117.24 31.5374 117.181Z" fill="white"/>
<path d="M18.1999 117.657C16.5824 117.657 14.6573 116.701 14.1046 114.02C13.6199 111.66 14.8534 109.595 15.9453 107.775C16.8629 106.242 17.7288 104.795 17.4565 103.458V103.456C17.3231 102.797 17.7506 102.157 18.415 102.025C19.0767 101.892 19.7247 102.316 19.8581 102.975C20.0978 104.147 20.6369 105.486 21.206 106.903C21.9684 108.801 22.7581 110.767 22.9296 112.613C23.0494 113.888 22.6328 115.113 21.756 116.069C20.8411 117.063 19.5123 117.657 18.1999 117.657ZM18.8561 107.624C18.5974 108.105 18.3197 108.569 18.0528 109.017C17.1052 110.602 16.2094 112.098 16.5062 113.537C16.6641 114.309 17.0862 115.227 18.1999 115.229C18.8261 115.229 19.4933 114.924 19.9453 114.436C20.2339 114.123 20.5607 113.591 20.4926 112.843C20.351 111.344 19.6294 109.546 18.9323 107.808C18.9051 107.743 18.8806 107.683 18.8561 107.624Z" fill="white"/>
<path d="M18.5241 116.083C17.8461 116.083 17.2988 115.54 17.2988 114.868V113.799C17.2988 113.127 17.8461 112.584 18.5241 112.584C19.2022 112.584 19.7495 113.127 19.7495 113.799V114.868C19.7495 115.538 19.2022 116.083 18.5241 116.083Z" fill="white"/>
<path d="M21.4241 132.079C20.2341 132.079 19.2185 131.474 18.693 130.443C18.0912 129.263 18.2518 127.754 19.0932 126.688C19.5098 126.158 20.2804 126.067 20.8141 126.48C21.3478 126.893 21.4404 127.657 21.0238 128.186C20.7297 128.559 20.727 129.053 20.8795 129.347C20.9911 129.566 21.1654 129.66 21.4567 129.649C21.6038 129.644 21.9496 129.636 22.1266 128.469C22.2518 127.635 21.9251 126.925 21.5085 126.032C20.9666 124.863 20.2913 123.41 20.5936 121.372C20.6916 120.708 21.3124 120.249 21.9823 120.346C22.6521 120.443 23.115 121.061 23.017 121.723C22.8209 123.051 23.243 123.961 23.7331 125.016C24.226 126.077 24.7814 127.279 24.5473 128.831C24.1307 131.593 22.4778 132.052 21.5275 132.082C21.4949 132.079 21.4595 132.079 21.4241 132.079Z" fill="white"/>
<path d="M17.1682 135.362C17.0784 135.362 16.9885 135.351 16.8987 135.332C16.2397 135.184 15.8231 134.533 15.9729 133.88L16.0246 133.656C16.1798 133.002 16.8415 132.6 17.4977 132.754C18.1567 132.908 18.5651 133.564 18.4072 134.217L18.3609 134.417C18.2329 134.979 17.7292 135.362 17.1682 135.362Z" fill="white"/>
<path d="M14.584 139.099C13.051 139.099 11.8964 137.69 11.763 136.302C11.6487 135.112 12.1905 134.026 12.667 133.068C12.9802 132.441 13.2743 131.853 13.3369 131.353C13.4213 130.687 14.0367 130.217 14.7065 130.303C15.3791 130.39 15.8529 130.997 15.7657 131.661C15.6487 132.563 15.2484 133.367 14.859 134.145C14.5105 134.844 14.1483 135.568 14.1973 136.067C14.2273 136.372 14.4723 136.669 14.584 136.667C14.5949 136.653 14.6085 136.632 14.6248 136.599C14.9352 136.003 15.6732 135.768 16.2749 136.075C16.8767 136.383 17.1136 137.115 16.8032 137.711C16.3757 138.535 15.6514 139.026 14.7637 139.091C14.7065 139.096 14.6439 139.099 14.584 139.099Z" fill="white"/>
</g>
<g opacity="0.5">
<path d="M102.115 31.7131L127.568 63.5656H76.6772L102.115 31.7131Z" stroke="white" stroke-width="3" stroke-miterlimit="10" stroke-linecap="round" stroke-linejoin="round"/>
<path d="M112.916 162.578V141.505C112.916 139.821 111.552 138.45 109.875 138.45H92.6369C90.9599 138.45 89.5957 139.821 89.5957 141.505V162.578H78.3403V63.623H125.891V103.299V103.314V162.578H112.916Z" stroke="white" stroke-width="3" stroke-miterlimit="10" stroke-linecap="round" stroke-linejoin="round"/>
<path d="M56 120.287L78.2548 108.194V162.576H56V120.287Z" stroke="white" stroke-width="3" stroke-miterlimit="10" stroke-linecap="round" stroke-linejoin="round"/>
<path d="M146.412 162.577H125.863V108.367L146.412 120.231V162.577Z" stroke="white" stroke-width="3" stroke-miterlimit="10" stroke-linecap="round" stroke-linejoin="round"/>
<path d="M102.116 31.7127V5" stroke="white" stroke-width="3" stroke-miterlimit="10" stroke-linecap="round" stroke-linejoin="round"/>
<path d="M93.7739 14.0225H110.458" stroke="white" stroke-width="3" stroke-miterlimit="10" stroke-linecap="round" stroke-linejoin="round"/>
<path d="M102.116 99.3304C107.586 99.3304 112.021 94.8751 112.021 89.3792C112.021 83.8833 107.586 79.428 102.116 79.428C96.6452 79.428 92.2104 83.8833 92.2104 89.3792C92.2104 94.8751 96.6452 99.3304 102.116 99.3304Z" stroke="white" stroke-width="3" stroke-miterlimit="10" stroke-linecap="round" stroke-linejoin="round"/>
<path d="M63.709 139.806C63.709 141.678 65.2195 143.234 67.1275 143.234C69.0062 143.234 70.5653 141.719 70.546 139.798V126.814C70.546 124.943 69.0355 123.387 67.1275 123.387C65.2481 123.387 63.709 124.914 63.709 126.814V139.806Z" stroke="white" stroke-width="3" stroke-miterlimit="10" stroke-linecap="round" stroke-linejoin="round"/>
<path d="M132.719 139.806C132.719 141.678 134.229 143.234 136.137 143.234C138.017 143.234 139.556 141.706 139.556 139.806V126.814C139.556 124.943 138.045 123.387 136.137 123.387C134.258 123.387 132.719 124.914 132.719 126.814V139.806Z" stroke="white" stroke-width="3" stroke-miterlimit="10" stroke-linecap="round" stroke-linejoin="round"/>
</g>
<g opacity="0.5" clip-path="url(#clip4)">
<path d="M338.704 82.9687C334.465 80.5213 331.555 76.7883 330.509 72.4595C329.375 67.7705 330.395 62.4867 333.457 57.1825C336.432 52.0292 341.165 48.0143 346.786 45.8785C351.958 43.9122 357.053 43.8957 360.411 45.8342C363.966 47.8871 366.425 52.1977 367.157 57.6611C367.921 63.3685 366.679 69.3904 363.66 74.62C360.597 79.9242 356.531 83.4494 351.904 84.8118C347.63 86.0714 342.943 85.416 338.704 82.9687ZM359.567 47.2959C356.706 45.6441 352.057 45.7079 347.434 47.4652C342.174 49.465 337.742 53.2231 334.957 58.0483C329.483 67.5297 331.285 76.7364 339.548 81.507C347.811 86.2776 356.687 83.2339 362.16 73.7541C368.247 63.2106 365.764 50.8736 359.567 47.2959Z" fill="white"/>
<path d="M363.122 59.6044C363.356 59.2 363.879 59.0669 364.294 59.3064C364.707 59.545 364.854 60.0648 364.62 60.4692C364.387 60.8736 363.863 61.0067 363.45 60.7681C363.035 60.5286 362.889 60.0088 363.122 59.6044ZM360.621 58.1604C360.855 57.756 361.38 57.6239 361.795 57.8634C362.208 58.102 362.356 58.6228 362.122 59.0272C361.889 59.4316 361.364 59.5637 360.951 59.3251C360.536 59.0856 360.388 58.5648 360.621 58.1604ZM358.123 56.7183C358.357 56.3139 358.88 56.1809 359.295 56.4204C359.708 56.659 359.855 57.1788 359.621 57.5832C359.388 57.9876 358.865 58.1206 358.451 57.8821C358.036 57.6425 357.89 57.1227 358.123 56.7183ZM355.622 55.2743C355.856 54.8699 356.381 54.7378 356.796 54.9774C357.209 55.216 357.357 55.7367 357.124 56.1411C356.89 56.5455 356.365 56.6776 355.952 56.439C355.537 56.1995 355.389 55.6787 355.622 55.2743ZM353.125 53.8323C353.358 53.4279 353.882 53.2948 354.296 53.5343C354.71 53.7729 354.856 54.2927 354.623 54.6971C354.389 55.1015 353.866 55.2346 353.453 54.996C353.038 54.7565 352.891 54.2367 353.125 53.8323ZM350.625 52.3893C350.859 51.9849 351.382 51.8518 351.797 52.0913C352.21 52.3299 352.358 52.8507 352.125 53.2551C351.891 53.6595 351.366 53.7916 350.953 53.553C350.538 53.3135 350.392 52.7936 350.625 52.3893ZM348.126 50.9462C348.359 50.5418 348.883 50.4088 349.298 50.6483C349.711 50.8869 349.859 51.4076 349.626 51.812C349.392 52.2164 348.867 52.3486 348.454 52.11C348.039 51.8704 347.892 51.3506 348.126 50.9462ZM345.627 49.5032C345.86 49.0988 346.383 48.9657 346.797 49.2043C347.212 49.4439 347.36 49.9646 347.126 50.369C346.893 50.7734 346.368 50.9055 345.953 50.666C345.539 50.4274 345.393 49.9076 345.627 49.5032ZM343.127 48.0602C343.361 47.6558 343.884 47.5227 344.299 47.7623C344.712 48.0008 344.86 48.5216 344.627 48.926C344.393 49.3304 343.868 49.4625 343.455 49.2239C343.04 48.9844 342.894 48.4646 343.127 48.0602Z" fill="white"/>
<path d="M364.699 56.2922L349.369 47.4417C348.956 47.2031 348.808 46.6824 349.041 46.278C349.275 45.8736 349.8 45.7414 350.213 45.98L365.543 54.8306C365.958 55.0701 366.104 55.5899 365.871 55.9943C365.637 56.3987 365.114 56.5318 364.699 56.2922Z" fill="white"/>
<path d="M341.036 57.4266C339.585 56.5887 339.068 54.7551 339.884 53.3422C340.701 51.9276 342.547 51.4582 343.998 52.2961C345.449 53.134 345.964 54.9666 345.148 56.3812C344.331 57.7958 342.487 58.2645 341.036 57.4266ZM343.154 53.7578C342.529 53.397 341.735 53.599 341.384 54.208C341.032 54.817 341.255 55.6042 341.88 55.9649C342.505 56.3257 343.297 56.1228 343.648 55.5154C344 54.9063 343.777 54.1176 343.154 53.7578Z" fill="white"/>
<path d="M347.116 60.9368C345.665 60.0989 345.148 58.2654 345.964 56.8524C346.781 55.4379 348.627 54.9684 350.078 55.8064C351.53 56.6443 352.044 58.4769 351.228 59.8914C350.413 61.307 348.567 61.7747 347.116 60.9368ZM349.234 57.268C348.61 56.9073 347.815 57.1092 347.464 57.7182C347.112 58.3273 347.335 59.1144 347.96 59.4752C348.585 59.8359 349.377 59.633 349.728 59.0256C350.081 58.4175 349.859 57.6288 349.234 57.268Z" fill="white"/>
<path d="M353.198 64.4483C351.747 63.6104 351.23 61.7769 352.046 60.3639C352.863 58.9493 354.709 58.4799 356.16 59.3178C357.611 60.1558 358.128 61.9893 357.311 63.4039C356.493 64.8175 354.649 65.2862 353.198 64.4483ZM355.316 60.7795C354.691 60.4188 353.897 60.6207 353.545 61.2297C353.194 61.8387 353.417 62.6259 354.042 62.9866C354.667 63.3474 355.461 63.1455 355.812 62.5381C356.162 61.9281 355.941 61.1403 355.316 60.7795Z" fill="white"/>
<path d="M359.28 67.9595C357.828 67.1216 357.312 65.2881 358.128 63.8751C358.944 62.4606 360.791 61.9912 362.242 62.8291C363.693 63.667 364.208 65.4996 363.391 66.9141C362.575 68.3287 360.731 68.7975 359.28 67.9595ZM361.398 64.2907C360.773 63.93 359.979 64.1319 359.627 64.7409C359.276 65.35 359.499 66.1371 360.124 66.4979C360.748 66.8586 361.541 66.6557 361.892 66.0483C362.243 65.4393 362.021 64.6505 361.398 64.2907Z" fill="white"/>
<path d="M334.282 69.3569C332.666 68.4237 332.091 66.3833 333 64.8079C333.91 63.2326 335.964 62.7102 337.581 63.6434C339.197 64.5765 339.772 66.6169 338.862 68.1923C337.953 69.7677 335.898 70.29 334.282 69.3569ZM336.738 65.1034C335.948 64.6474 334.945 64.9023 334.501 65.6721C334.056 66.4419 334.337 67.4376 335.127 67.8936C335.917 68.3496 336.919 68.0947 337.364 67.3249C337.807 66.5567 337.526 65.5584 336.738 65.1034Z" fill="white"/>
<path d="M340.403 72.8913C338.787 71.9581 338.212 69.9177 339.122 68.3424C340.031 66.767 342.086 66.2446 343.702 67.1778C345.318 68.1109 345.893 70.1514 344.984 71.7267C344.076 73.303 342.02 73.8244 340.403 72.8913ZM342.859 68.6378C342.069 68.1818 341.067 68.4367 340.622 69.2065C340.178 69.9764 340.459 70.972 341.248 71.428C342.038 71.884 343.041 71.6291 343.485 70.8593C343.93 70.0921 343.649 69.0938 342.859 68.6378Z" fill="white"/>
<path d="M346.527 76.4267C344.911 75.4935 344.336 73.4531 345.245 71.8778C346.155 70.3024 348.209 69.78 349.826 70.7132C351.442 71.6463 352.017 73.6868 351.107 75.2621C350.198 76.8375 348.143 77.3598 346.527 76.4267ZM348.983 72.1732C348.193 71.7172 347.19 71.9721 346.746 72.7419C346.302 73.5118 346.582 74.5074 347.372 74.9634C348.162 75.4194 349.164 75.1645 349.609 74.3947C350.052 73.6265 349.773 72.6292 348.983 72.1732Z" fill="white"/>
<path d="M352.651 79.9621C351.034 79.0289 350.459 76.9885 351.369 75.4132C352.278 73.8378 354.333 73.3154 355.949 74.2486C357.566 75.1817 358.14 77.2222 357.231 78.7975C356.321 80.3729 354.267 80.8952 352.651 79.9621ZM355.106 75.7086C354.316 75.2526 353.314 75.5075 352.87 76.2773C352.425 77.0472 352.706 78.0428 353.495 78.4988C354.285 78.9548 355.288 78.6999 355.732 77.9301C356.176 77.1619 355.896 76.1646 355.106 75.7086Z" fill="white"/>
<path d="M352.789 83.8469L330.461 70.9559C330.048 70.7173 329.9 70.1965 330.133 69.7921C330.367 69.3877 330.892 69.2556 331.305 69.4942L353.633 82.3852C354.048 82.6247 354.194 83.1445 353.961 83.5489C353.728 83.9533 353.204 84.0864 352.789 83.8469Z" fill="white"/>
<path d="M348.863 85.2611L331.534 75.2562C331.12 75.0176 330.972 74.4968 331.206 74.0924C331.439 73.688 331.964 73.5559 332.378 73.7945L349.707 83.7994C350.122 84.039 350.268 84.5588 350.034 84.9632C349.801 85.3676 349.278 85.5007 348.863 85.2611Z" fill="white"/>
<path d="M335.358 60.5389C335.169 60.4293 335.019 60.2498 334.954 60.028L334.008 56.7972C333.875 56.3434 334.137 55.8776 334.593 55.7576C335.05 55.6359 335.528 55.9052 335.659 56.358L336.4 58.8858L339.602 58.5497C340.015 58.5069 340.408 58.7618 340.532 59.1583L341.34 61.7035L343.967 61.2214C344.431 61.1365 344.887 61.4406 344.984 61.9021C345.081 62.3626 344.782 62.8072 344.317 62.892L340.929 63.5125C340.496 63.5919 340.066 63.3327 339.933 62.9135L339.108 60.3131L335.891 60.6516C335.702 60.672 335.515 60.6294 335.358 60.5389Z" fill="white"/>
<path d="M344.946 66.0744C344.756 65.9647 344.606 65.7852 344.541 65.5635L343.593 62.3334C343.46 61.8795 343.722 61.4138 344.178 61.2937C344.635 61.172 345.113 61.4413 345.244 61.8942L345.985 64.4219L349.187 64.0858C349.6 64.043 349.993 64.2979 350.117 64.6945L350.925 67.2397L353.552 66.7575C354.016 66.6727 354.473 66.9777 354.569 67.4382C354.666 67.8987 354.367 68.3433 353.902 68.4281L350.514 69.0486C350.081 69.1281 349.651 68.8689 349.518 68.4497L348.693 65.8492L345.476 66.1877C345.289 66.2075 345.103 66.1648 344.946 66.0744Z" fill="white"/>
<path d="M354.321 71.487C354.131 71.3774 353.981 71.1979 353.916 70.9761L352.97 67.7469C352.836 67.2931 353.098 66.8273 353.554 66.7073C354.011 66.5856 354.489 66.8549 354.621 67.3078L355.361 69.8355L358.563 69.4994C358.976 69.4566 359.369 69.7115 359.493 70.1081L360.3 72.6523L362.926 72.1701C363.391 72.0853 363.846 72.3893 363.944 72.8508C364.04 73.3113 363.741 73.7559 363.277 73.8407L359.888 74.4612C359.456 74.5407 359.026 74.2815 358.892 73.8623L358.067 71.2618L354.851 71.6003C354.664 71.6201 354.479 71.5784 354.321 71.487Z" fill="white"/>
</g>
<defs>
<clipPath id="clip0">
<rect width="40" height="34" fill="white" transform="translate(295.583 96)"/>
</clipPath>
<clipPath id="clip1">
<rect width="69.022" height="70.7263" fill="white" transform="translate(482 23.5586) rotate(-19.9574)"/>
</clipPath>
<clipPath id="clip2">
<rect width="63" height="57" fill="white" transform="translate(160.412 104)"/>
</clipPath>
<clipPath id="clip3">
<rect width="36" height="58" fill="white" transform="translate(0 102)"/>
</clipPath>
<clipPath id="clip4">
<rect width="34.875" height="43.0125" fill="white" transform="translate(345.109 37) rotate(30)"/>
</clipPath>
</defs>
</svg>
