<svg width="14" height="14" viewBox="0 0 14 14" fill="none" xmlns="http://www.w3.org/2000/svg">
<path fill-rule="evenodd" clip-rule="evenodd" d="M7.17094 10.9125C6.94313 10.6847 6.94313 10.3153 7.17094 10.0875L10.2585 6.99998L7.17094 3.91246C6.94313 3.68465 6.94313 3.31531 7.17094 3.0875C7.39874 2.85969 7.76809 2.85969 7.99589 3.0875L11.4959 6.5875C11.6053 6.6969 11.6667 6.84527 11.6667 6.99998C11.6667 7.15469 11.6053 7.30306 11.4959 7.41246L7.99589 10.9125C7.76809 11.1403 7.39874 11.1403 7.17094 10.9125Z" fill="#A0A0A0"/>
<path fill-rule="evenodd" clip-rule="evenodd" d="M3.08744 10.9125C2.85963 10.6847 2.85963 10.3153 3.08744 10.0875L6.17496 6.99998L3.08744 3.91246C2.85963 3.68465 2.85963 3.31531 3.08744 3.0875C3.31524 2.85969 3.68459 2.85969 3.9124 3.0875L7.4124 6.5875C7.52179 6.6969 7.58325 6.84527 7.58325 6.99998C7.58325 7.15469 7.52179 7.30306 7.4124 7.41246L3.9124 10.9125C3.68459 11.1403 3.31524 11.1403 3.08744 10.9125Z" fill="#A0A0A0"/>
</svg>
