<svg width="16" height="13" viewBox="0 0 16 13" fill="none" xmlns="http://www.w3.org/2000/svg">
<path fill-rule="evenodd" clip-rule="evenodd" d="M0.366211 6.50002C1.38541 3.25442 4.41741 0.900024 7.99981 0.900024C11.5822 0.900024 14.6142 3.25442 15.6334 6.50002C14.6142 9.74562 11.5822 12.1 7.99981 12.1C4.41741 12.1 1.38541 9.74562 0.366211 6.50002ZM11.1998 6.50002C11.1998 7.34872 10.8627 8.16265 10.2626 8.76277C9.66244 9.36288 8.8485 9.70002 7.99981 9.70002C7.15112 9.70002 6.33719 9.36288 5.73707 8.76277C5.13695 8.16265 4.79981 7.34872 4.79981 6.50002C4.79981 5.65133 5.13695 4.8374 5.73707 4.23728C6.33719 3.63717 7.15112 3.30002 7.99981 3.30002C8.8485 3.30002 9.66244 3.63717 10.2626 4.23728C10.8627 4.8374 11.1998 5.65133 11.1998 6.50002Z" fill="#3A3A3A"/>
</svg>
