<svg width="160" height="160" viewBox="0 0 160 160" fill="none" xmlns="http://www.w3.org/2000/svg">
<path d="M83.76 49.01C91.95 58.64 102.77 58.79 102.77 58.79V74.61C102.77 78.4 101.64 82.09 99.54 85.09C96.55 89.35 83.76 95.29 83.76 95.29C83.76 95.29 70.97 89.36 67.98 85.09C65.87 82.08 64.75 78.4 64.75 74.61V58.78C64.75 58.78 75.57 58.63 83.76 49V49.01Z" fill="white" stroke="#777777" stroke-width="3" stroke-linecap="round" stroke-linejoin="round"/>
<path d="M91.6 69.7402H75.9V84.0802H91.6V69.7402Z" fill="white" stroke="#777777" stroke-width="3" stroke-linecap="round" stroke-linejoin="round"/>
<path d="M88.33 69.7402V66.4302C88.33 66.4302 88.56 62.1602 83.76 62.1602C78.96 62.1602 79.19 66.4302 79.19 66.4302V69.7402" fill="white"/>
<path d="M88.33 69.7402V66.4302C88.33 66.4302 88.56 62.1602 83.76 62.1602C78.96 62.1602 79.19 66.4302 79.19 66.4302V69.7402" stroke="#777777" stroke-width="3" stroke-linecap="round" stroke-linejoin="round"/>
<path d="M83.76 78.5195C85.1628 78.5195 86.3 77.3823 86.3 75.9795C86.3 74.5766 85.1628 73.4395 83.76 73.4395C82.3572 73.4395 81.22 74.5766 81.22 75.9795C81.22 77.3823 82.3572 78.5195 83.76 78.5195Z" fill="#5CB531"/>
<path d="M84.88 77.4707H82.64V80.9307H84.88V77.4707Z" fill="#5CB531"/>
<path d="M56.8 93.9589C56.8 93.9589 62.85 89.9289 70.05 90.7889L80.42 84.7389C80.42 84.7389 84.45 82.1489 86.47 85.3189C88.49 88.4889 83.59 92.2289 83.59 92.2289L79.27 96.5489L86.76 99.4289L97.99 95.3989L104.04 88.7789C104.04 88.7789 106.92 84.1689 110.38 85.3189C113.84 86.4689 112.11 91.0789 110.38 93.6689C108.65 96.2589 105.77 100.009 105.77 100.009C105.77 100.009 101.16 103.749 98.57 104.909C98.57 104.909 92.23 108.939 80.43 109.809C68.62 110.669 56.53 109.809 56.53 109.809" fill="white"/>
<path d="M56.8 93.9589C56.8 93.9589 62.85 89.9289 70.05 90.7889L80.42 84.7389C80.42 84.7389 84.45 82.1489 86.47 85.3189C88.49 88.4889 83.59 92.2289 83.59 92.2289L79.27 96.5489L86.76 99.4289L97.99 95.3989L104.04 88.7789C104.04 88.7789 106.92 84.1689 110.38 85.3189C113.84 86.4689 112.11 91.0789 110.38 93.6689C108.65 96.2589 105.77 100.009 105.77 100.009C105.77 100.009 101.16 103.749 98.57 104.909C98.57 104.909 92.23 108.939 80.43 109.809C68.62 110.669 56.53 109.809 56.53 109.809" stroke="#777777" stroke-width="3" stroke-linecap="round" stroke-linejoin="round"/>
<path d="M56.79 91.0781H47V110.378H56.79V91.0781Z" fill="#5CB531" stroke="#777777" stroke-width="3" stroke-linecap="round" stroke-linejoin="round"/>
</svg>
