<svg width="160" height="160" viewBox="0 0 160 160" fill="none" xmlns="http://www.w3.org/2000/svg">
<path d="M96.42 55.59C96.42 59.78 93.02 63.18 88.83 63.18H54.59C50.4 63.18 47 59.78 47 55.59C47 51.4 50.4 48 54.59 48H88.83C93.02 48 96.42 51.4 96.42 55.59Z" fill="white" stroke="#777777" stroke-width="3" stroke-linecap="round" stroke-linejoin="round"/>
<path d="M90.29 55.5895C90.29 54.6795 89.55 53.9395 88.64 53.9395C87.73 53.9395 86.99 54.6795 86.99 55.5895C86.99 56.4995 87.73 57.2395 88.64 57.2395C89.55 57.2395 90.29 56.4995 90.29 55.5895Z" fill="#00FFA2"/>
<path d="M81.73 55.5895C81.73 54.6795 80.99 53.9395 80.07 53.9395C79.15 53.9395 78.42 54.6795 78.42 55.5895C78.42 56.4995 79.16 57.2395 80.07 57.2395C80.98 57.2395 81.73 56.4995 81.73 55.5895Z" fill="#00FFA2"/>
<path d="M96.42 71.1994C96.42 75.3894 93.02 78.7894 88.83 78.7894H54.59C50.4 78.7894 47 75.3894 47 71.1994C47 67.0094 50.4 63.6094 54.59 63.6094H88.83C93.02 63.6094 96.42 67.0094 96.42 71.1994Z" fill="white" stroke="#777777" stroke-width="3" stroke-linecap="round" stroke-linejoin="round"/>
<path d="M90.29 71.1988C90.29 70.2888 89.55 69.5488 88.64 69.5488C87.73 69.5488 86.99 70.2888 86.99 71.1988C86.99 72.1088 87.73 72.8488 88.64 72.8488C89.55 72.8488 90.29 72.1088 90.29 71.1988Z" fill="#00FFA2"/>
<path d="M81.73 71.1988C81.73 70.2888 80.99 69.5488 80.07 69.5488C79.15 69.5488 78.42 70.2888 78.42 71.1988C78.42 72.1088 79.16 72.8488 80.07 72.8488C80.98 72.8488 81.73 72.1088 81.73 71.1988Z" fill="#00FFA2"/>
<path d="M96.42 86.8107C96.42 91.0007 93.02 94.4007 88.83 94.4007H54.59C50.4 94.4007 47 91.0007 47 86.8107C47 82.6207 50.4 79.2207 54.59 79.2207H88.83C93.02 79.2207 96.42 82.6207 96.42 86.8107V86.8107Z" fill="white" stroke="#777777" stroke-width="3" stroke-linecap="round" stroke-linejoin="round"/>
<path d="M90.75 86.8114C90.75 85.6414 89.8 84.6914 88.63 84.6914C87.46 84.6914 86.51 85.6414 86.51 86.8114C86.51 87.9814 87.46 88.9314 88.63 88.9314C89.8 88.9314 90.75 87.9814 90.75 86.8114Z" fill="white"/>
<path d="M88.63 90.4314C86.64 90.4314 85.01 88.8114 85.01 86.8114C85.01 84.8114 86.63 83.1914 88.63 83.1914C90.63 83.1914 92.25 84.8114 92.25 86.8114C92.25 88.8114 90.63 90.4314 88.63 90.4314ZM88.63 86.1914C88.29 86.1914 88.01 86.4714 88.01 86.8114C88.01 87.1514 88.29 87.4314 88.63 87.4314C88.97 87.4314 89.25 87.1514 89.25 86.8114C89.25 86.4714 88.97 86.1914 88.63 86.1914Z" fill="#595656"/>
<path d="M82.19 86.8114C82.19 85.6414 81.24 84.6914 80.07 84.6914C78.9 84.6914 77.95 85.6414 77.95 86.8114C77.95 87.9814 78.9 88.9314 80.07 88.9314C81.24 88.9314 82.19 87.9814 82.19 86.8114Z" fill="white"/>
<path d="M80.07 86.1914C79.73 86.1914 79.45 86.4714 79.45 86.8114C79.45 87.1514 79.73 87.4314 80.07 87.4314C80.41 87.4314 80.69 87.1514 80.69 86.8114C80.69 86.4714 80.41 86.1914 80.07 86.1914Z" fill="#595656"/>
<path d="M53.18 55.5898H69.7" stroke="#777777" stroke-width="3" stroke-linecap="round" stroke-linejoin="round"/>
<path d="M80.07 58.1205C81.4673 58.1205 82.6 56.9878 82.6 55.5905C82.6 54.1933 81.4673 53.0605 80.07 53.0605C78.6727 53.0605 77.54 54.1933 77.54 55.5905C77.54 56.9878 78.6727 58.1205 80.07 58.1205Z" fill="#5CB531"/>
<path d="M88.63 58.1205C90.0273 58.1205 91.16 56.9878 91.16 55.5905C91.16 54.1933 90.0273 53.0605 88.63 53.0605C87.2327 53.0605 86.1 54.1933 86.1 55.5905C86.1 56.9878 87.2327 58.1205 88.63 58.1205Z" fill="#5CB531"/>
<path d="M53.18 71.1992H69.7" stroke="#777777" stroke-width="3" stroke-linecap="round" stroke-linejoin="round"/>
<path d="M53.18 86.8105H69.7" stroke="#777777" stroke-width="3" stroke-linecap="round" stroke-linejoin="round"/>
<path d="M80.07 73.7299C81.4673 73.7299 82.6 72.5972 82.6 71.1999C82.6 69.8026 81.4673 68.6699 80.07 68.6699C78.6727 68.6699 77.54 69.8026 77.54 71.1999C77.54 72.5972 78.6727 73.7299 80.07 73.7299Z" fill="#5CB531"/>
<path d="M88.63 73.7299C90.0273 73.7299 91.16 72.5972 91.16 71.1999C91.16 69.8026 90.0273 68.6699 88.63 68.6699C87.2327 68.6699 86.1 69.8026 86.1 71.1999C86.1 72.5972 87.2327 73.7299 88.63 73.7299Z" fill="#5CB531"/>
<path d="M109.89 88.4802C109.48 86.6902 108.77 85.0102 107.83 83.5002L109.7 80.8802L105.18 76.3602L102.56 78.2302C101.05 77.2902 99.37 76.5802 97.58 76.1702L97.05 72.9902H90.66L90.13 76.1702C88.34 76.5802 86.66 77.2902 85.15 78.2302L82.53 76.3602L78.01 80.8802L79.88 83.5002C78.94 85.0102 78.23 86.6902 77.82 88.4802L74.64 89.0102V95.4002L77.82 95.9302C78.23 97.7202 78.94 99.4002 79.88 100.91L78.01 103.53L82.53 108.05L85.15 106.18C86.66 107.12 88.34 107.83 90.13 108.24L90.66 111.42H97.05L97.58 108.24C99.37 107.83 101.05 107.12 102.56 106.18L105.18 108.05L109.7 103.53L107.83 100.91C108.77 99.4002 109.48 97.7202 109.89 95.9302L113.07 95.4002V89.0102L109.89 88.4802V88.4802Z" fill="white" stroke="#777777" stroke-width="3" stroke-linecap="round" stroke-linejoin="round"/>
<path d="M103.28 92.2093C103.28 86.9993 99.06 82.7793 93.85 82.7793C88.64 82.7793 84.42 86.9993 84.42 92.2093C84.42 97.4193 88.64 101.639 93.85 101.639C99.06 101.639 103.28 97.4193 103.28 92.2093Z" fill="white" stroke="#777777" stroke-width="3" stroke-linecap="round" stroke-linejoin="round"/>
<path d="M99.29 92.2093C99.29 89.2093 96.86 86.7793 93.86 86.7793C90.86 86.7793 88.42 89.2093 88.42 92.2093C88.42 95.2093 90.85 97.6493 93.86 97.6493C96.87 97.6493 99.29 95.2193 99.29 92.2093Z" fill="#5CB531"/>
</svg>
