<svg width="160" height="160" viewBox="0 0 160 160" fill="none" xmlns="http://www.w3.org/2000/svg">
<path d="M108.17 62.43V108.01H59.2V51H96.33L108.17 62.43Z" fill="white" stroke="#777777" stroke-width="3" stroke-linecap="round" stroke-linejoin="round"/>
<path d="M108.17 62.43H96.01V51" stroke="#777777" stroke-width="3" stroke-linecap="round" stroke-linejoin="round"/>
<path d="M96.01 69.6406H51V91.6906H96.01V69.6406Z" fill="#5CB531"/>
<path d="M56.95 76.1992H59.1V79.5892H62.04V76.1992H64.16V85.1192H62.04V81.4492H59.1V85.1192H56.95V76.1992V76.1992Z" fill="white"/>
<path d="M67.97 77.979H65.56V76.209H72.54V77.979H70.12V85.129H67.97V77.979Z" fill="white"/>
<path d="M73.92 76.1992H76.23L77.65 80.0492C77.83 80.5692 77.97 81.1292 78.14 81.6792H78.2C78.38 81.1292 78.52 80.5592 78.69 80.0492L80.06 76.1992H82.39V85.1192H80.43V82.0592C80.43 81.1692 80.6 79.8392 80.71 78.9692H80.66L79.92 81.0992L78.72 84.3592H77.54L76.33 81.0992L75.61 78.9692H75.56C75.67 79.8492 75.84 81.1792 75.84 82.0592V85.1192H73.92V76.1992V76.1992Z" fill="white"/>
<path d="M84.44 76.1992H86.59V83.3192H90.06V85.1192H84.45V76.1992H84.44Z" fill="white"/>
</svg>
