<svg width="160" height="160" viewBox="0 0 160 160" fill="none" xmlns="http://www.w3.org/2000/svg">
<path d="M92.74 51H57.36C54.952 51 53 52.952 53 55.36V99.29C53 101.698 54.952 103.65 57.36 103.65H92.74C95.148 103.65 97.1 101.698 97.1 99.29V55.36C97.1 52.952 95.148 51 92.74 51Z" fill="white" stroke="#777777" stroke-width="3" stroke-linecap="round" stroke-linejoin="round"/>
<path d="M71.07 58.0703H79.03" stroke="#777777" stroke-width="3" stroke-linecap="round" stroke-linejoin="round"/>
<path d="M91.36 63.0293H58.72V97.0893H91.36V63.0293Z" fill="#5CB531"/>
<path d="M103.2 72.3301H90C87.5921 72.3301 85.64 74.2821 85.64 76.6901V105.14C85.64 107.548 87.5921 109.5 90 109.5H103.2C105.608 109.5 107.56 107.548 107.56 105.14V76.6901C107.56 74.2821 105.608 72.3301 103.2 72.3301Z" fill="white" stroke="#777777" stroke-width="3" stroke-linecap="round" stroke-linejoin="round"/>
<path d="M94.62 77.3203H98.58" stroke="#777777" stroke-width="3" stroke-linecap="round" stroke-linejoin="round"/>
</svg>
