<svg width="160" height="160" viewBox="0 0 160 160" fill="none" xmlns="http://www.w3.org/2000/svg">
<path d="M63.78 60.3906H106.26C109.82 60.3906 112.7 63.2806 112.7 66.8306V96.9306C112.7 100.491 109.81 103.371 106.26 103.371H63.78C60.22 103.371 57.34 100.481 57.34 96.9306V66.8306C57.34 63.2706 60.23 60.3906 63.78 60.3906V60.3906Z" stroke="#777777" stroke-width="3" stroke-linecap="round" stroke-linejoin="round"/>
<path d="M82.02 103.381V113.401" stroke="#777777" stroke-width="3" stroke-linecap="round" stroke-linejoin="round"/>
<path d="M88.02 103.381V113.401" stroke="#777777" stroke-width="3" stroke-linecap="round" stroke-linejoin="round"/>
<path d="M68.31 113.4H101.73" stroke="#777777" stroke-width="3" stroke-linecap="round" stroke-linejoin="round"/>
<path d="M57.33 95.8203H111.68" stroke="#777777" stroke-width="3" stroke-linecap="round" stroke-linejoin="round"/>
<path d="M92.95 69.2598H104.54" stroke="#777777" stroke-width="3" stroke-linecap="round" stroke-linejoin="round"/>
<path d="M92.95 75.8496H104.54" stroke="#777777" stroke-width="3" stroke-linecap="round" stroke-linejoin="round"/>
<path d="M92.95 82.4395H100.75" stroke="#777777" stroke-width="3" stroke-linecap="round" stroke-linejoin="round"/>
<path d="M93.09 47H47V86.39H93.09V47Z" fill="white" stroke="#777777" stroke-width="3" stroke-linecap="round" stroke-linejoin="round"/>
<path d="M91.59 48.5H48.49V55.21H91.59V48.5Z" fill="#5CB531"/>
<path d="M53.07 53.1709C53.7714 53.1709 54.34 52.6023 54.34 51.9009C54.34 51.1995 53.7714 50.6309 53.07 50.6309C52.3686 50.6309 51.8 51.1995 51.8 51.9009C51.8 52.6023 52.3686 53.1709 53.07 53.1709Z" fill="white"/>
<path d="M58.08 53.1709C58.7814 53.1709 59.35 52.6023 59.35 51.9009C59.35 51.1995 58.7814 50.6309 58.08 50.6309C57.3786 50.6309 56.81 51.1995 56.81 51.9009C56.81 52.6023 57.3786 53.1709 58.08 53.1709Z" fill="white"/>
<path d="M63.09 53.1709C63.7914 53.1709 64.36 52.6023 64.36 51.9009C64.36 51.1995 63.7914 50.6309 63.09 50.6309C62.3886 50.6309 61.82 51.1995 61.82 51.9009C61.82 52.6023 62.3886 53.1709 63.09 53.1709Z" fill="white"/>
<path d="M74.45 83.1602H64.74V88.4402H74.45V83.1602Z" fill="white"/>
<path d="M64.74 89.3095V76.2195H57.89L69.6 64.5195" stroke="#5CB531" stroke-width="3" stroke-linecap="round" stroke-linejoin="round"/>
<path d="M74.45 89.3095V76.2195H81.3L69.6 64.5195" stroke="#5CB531" stroke-width="3" stroke-linecap="round" stroke-linejoin="round"/>
<path d="M69.6 89.4295V81.0195" stroke="#5CB531" stroke-width="3" stroke-linecap="round" stroke-linejoin="round"/>
</svg>
