<svg width="160" height="160" viewBox="0 0 160 160" fill="none" xmlns="http://www.w3.org/2000/svg">
<path d="M75.47 101.94C90.6413 101.94 102.94 89.6413 102.94 74.47C102.94 59.2987 90.6413 47 75.47 47C60.2987 47 48 59.2987 48 74.47C48 89.6413 60.2987 101.94 75.47 101.94Z" fill="white" stroke="#777777" stroke-width="3" stroke-linecap="round" stroke-linejoin="round"/>
<path d="M48 74.4707H102.94" stroke="#777777" stroke-width="3" stroke-linecap="round" stroke-linejoin="round"/>
<path d="M75.47 47V101.94" stroke="#777777" stroke-width="3" stroke-linecap="round" stroke-linejoin="round"/>
<path d="M73.88 47C73.88 47 60.65 50.54 60.65 74.47Z" fill="white"/>
<path d="M73.88 47C73.88 47 60.65 50.54 60.65 74.47" stroke="#777777" stroke-width="3" stroke-linecap="round" stroke-linejoin="round"/>
<path d="M73.88 101.941C73.88 101.941 60.65 98.4007 60.65 74.4707Z" fill="white"/>
<path d="M73.88 101.941C73.88 101.941 60.65 98.4007 60.65 74.4707" stroke="#777777" stroke-width="3" stroke-linecap="round" stroke-linejoin="round"/>
<path d="M77.06 47C77.06 47 90.29 50.54 90.29 74.47Z" fill="white"/>
<path d="M77.06 47C77.06 47 90.29 50.54 90.29 74.47" stroke="#777777" stroke-width="3" stroke-linecap="round" stroke-linejoin="round"/>
<path d="M77.06 101.941C77.06 101.941 90.29 98.4007 90.29 74.4707Z" fill="white"/>
<path d="M77.06 101.941C77.06 101.941 90.29 98.4007 90.29 74.4707" stroke="#777777" stroke-width="3" stroke-linecap="round" stroke-linejoin="round"/>
<path d="M80.62 85.0898V107.97C80.62 107.97 83.71 113.58 96.63 113.58C109.55 113.58 112.64 107.97 112.64 107.97V85.0898" fill="white"/>
<path d="M80.62 85.0898V107.97C80.62 107.97 83.71 113.58 96.63 113.58C109.55 113.58 112.64 107.97 112.64 107.97V85.0898" stroke="#5CB531" stroke-width="3" stroke-linecap="round" stroke-linejoin="round"/>
<path d="M96.62 91.1308C105.462 91.1308 112.63 88.4266 112.63 85.0908C112.63 81.755 105.462 79.0508 96.62 79.0508C87.7779 79.0508 80.61 81.755 80.61 85.0908C80.61 88.4266 87.7779 91.1308 96.62 91.1308Z" fill="white" stroke="#5CB531" stroke-width="3" stroke-linecap="round" stroke-linejoin="round"/>
<path d="M112.63 92.6406C112.63 95.9806 105.46 98.6806 96.62 98.6806C87.78 98.6806 80.61 95.9706 80.61 92.6406" stroke="#5CB531" stroke-width="3" stroke-linecap="round" stroke-linejoin="round"/>
<path d="M112.63 100.189C112.63 103.529 105.46 106.229 96.62 106.229C87.78 106.229 80.61 103.519 80.61 100.189" stroke="#5CB531" stroke-width="3" stroke-linecap="round" stroke-linejoin="round"/>
<path d="M96.62 87.2107C101.232 87.2107 104.97 86.2615 104.97 85.0907C104.97 83.9199 101.232 82.9707 96.62 82.9707C92.0084 82.9707 88.27 83.9199 88.27 85.0907C88.27 86.2615 92.0084 87.2107 96.62 87.2107Z" fill="#5CB531"/>
</svg>
