<svg width="160" height="160" viewBox="0 0 160 160" fill="none" xmlns="http://www.w3.org/2000/svg">
<path d="M71.89 78.3008H63.99V96.7408H71.89V78.3008Z" fill="#5CB531"/>
<path d="M87.7 63.1504H79.8V102.02H87.7V63.1504Z" fill="#5CB531"/>
<path d="M103.51 48H95.61V96.75H103.51V48Z" fill="#5CB531"/>
<path d="M56.79 95.8496C56.79 95.8496 62.84 91.8196 70.04 92.6796L80.41 86.6296C80.41 86.6296 84.44 84.0396 86.46 87.2096C88.48 90.3796 83.58 94.1196 83.58 94.1196L79.26 98.4396L86.75 101.32L97.98 97.2896L104.03 90.6696C104.03 90.6696 106.91 86.0596 110.37 87.2096C113.83 88.3596 112.1 92.9696 110.37 95.5596C108.64 98.1496 105.76 101.9 105.76 101.9C105.76 101.9 101.15 105.64 98.56 106.8C98.56 106.8 92.22 110.83 80.42 111.7C68.61 112.56 56.52 111.7 56.52 111.7" fill="white"/>
<path d="M56.79 95.8496C56.79 95.8496 62.84 91.8196 70.04 92.6796L80.41 86.6296C80.41 86.6296 84.44 84.0396 86.46 87.2096C88.48 90.3796 83.58 94.1196 83.58 94.1196L79.26 98.4396L86.75 101.32L97.98 97.2896L104.03 90.6696C104.03 90.6696 106.91 86.0596 110.37 87.2096C113.83 88.3596 112.1 92.9696 110.37 95.5596C108.64 98.1496 105.76 101.9 105.76 101.9C105.76 101.9 101.15 105.64 98.56 106.8C98.56 106.8 92.22 110.83 80.42 111.7C68.61 112.56 56.52 111.7 56.52 111.7" stroke="#777777" stroke-width="3" stroke-linecap="round" stroke-linejoin="round"/>
<path d="M56.79 92.9688H47V112.269H56.79V92.9688Z" fill="#5CB531" stroke="#777777" stroke-width="3" stroke-linecap="round" stroke-linejoin="round"/>
</svg>
