<svg width="160" height="160" viewBox="0 0 160 160" fill="none" xmlns="http://www.w3.org/2000/svg">
<path d="M113.73 47H47V56.23H113.73V47Z" fill="#5CB531"/>
<path d="M47 47H113.73V93.82C113.73 96.95 111.19 99.49 108.06 99.49H52.67C49.54 99.49 47 96.95 47 93.82V47Z" stroke="#777777" stroke-width="3" stroke-linecap="round" stroke-linejoin="round"/>
<path d="M53.07 53.5791C53.7714 53.5791 54.34 53.0105 54.34 52.3091C54.34 51.6077 53.7714 51.0391 53.07 51.0391C52.3686 51.0391 51.8 51.6077 51.8 52.3091C51.8 53.0105 52.3686 53.5791 53.07 53.5791Z" fill="white"/>
<path d="M58.08 53.5791C58.7814 53.5791 59.35 53.0105 59.35 52.3091C59.35 51.6077 58.7814 51.0391 58.08 51.0391C57.3786 51.0391 56.81 51.6077 56.81 52.3091C56.81 53.0105 57.3786 53.5791 58.08 53.5791Z" fill="white"/>
<path d="M63.09 53.5791C63.7914 53.5791 64.36 53.0105 64.36 52.3091C64.36 51.6077 63.7914 51.0391 63.09 51.0391C62.3886 51.0391 61.82 51.6077 61.82 52.3091C61.82 53.0105 62.3886 53.5791 63.09 53.5791Z" fill="white"/>
<path d="M80.88 112.159C91.887 112.159 100.81 103.236 100.81 92.2288C100.81 81.2218 91.887 72.2988 80.88 72.2988C69.873 72.2988 60.95 81.2218 60.95 92.2288C60.95 103.236 69.873 112.159 80.88 112.159Z" fill="white" stroke="#777777" stroke-width="3" stroke-linecap="round" stroke-linejoin="round"/>
<path d="M60.95 92.2285H100.82" stroke="#777777" stroke-width="3" stroke-linecap="round" stroke-linejoin="round"/>
<path d="M80.88 72.2891V112.159" stroke="#777777" stroke-width="3" stroke-linecap="round" stroke-linejoin="round"/>
<path d="M79.73 72.2891C79.73 72.2891 70.13 74.8591 70.13 92.2191" stroke="#777777" stroke-width="3" stroke-linecap="round" stroke-linejoin="round"/>
<path d="M79.73 112.159C79.73 112.159 70.13 109.589 70.13 92.2285" stroke="#777777" stroke-width="3" stroke-linecap="round" stroke-linejoin="round"/>
<path d="M82.04 72.2891C82.04 72.2891 91.64 74.8591 91.64 92.2191" stroke="#777777" stroke-width="3" stroke-linecap="round" stroke-linejoin="round"/>
<path d="M82.04 112.159C82.04 112.159 91.64 109.589 91.64 92.2285" stroke="#777777" stroke-width="3" stroke-linecap="round" stroke-linejoin="round"/>
</svg>
