<svg width="160" height="160" viewBox="0 0 160 160" fill="none" xmlns="http://www.w3.org/2000/svg">
<path d="M52.45 58.3789H94.93C98.49 58.3789 101.37 61.2689 101.37 64.8189V90.3189C101.37 93.8789 98.48 96.7589 94.93 96.7589H52.45C48.89 96.7589 46.01 93.8689 46.01 90.3189V64.8289C46.01 61.2689 48.9 58.3889 52.45 58.3889V58.3789Z" stroke="#777777" stroke-width="3" stroke-linecap="round" stroke-linejoin="round"/>
<path d="M70.69 96.7695V106.8" stroke="#777777" stroke-width="3" stroke-linecap="round" stroke-linejoin="round"/>
<path d="M76.69 96.7695V106.8" stroke="#777777" stroke-width="3" stroke-linecap="round" stroke-linejoin="round"/>
<path d="M56.98 106.799H90.4" stroke="#777777" stroke-width="3" stroke-linecap="round" stroke-linejoin="round"/>
<path d="M46 89.2188H100.35" stroke="#777777" stroke-width="3" stroke-linecap="round" stroke-linejoin="round"/>
<path d="M66.94 54.3593V79.9193C66.94 82.3272 68.892 84.2793 71.3 84.2793H103.5C105.908 84.2793 107.86 82.3272 107.86 79.9193V54.3593C107.86 51.9513 105.908 49.9993 103.5 49.9993H71.3C68.892 49.9993 66.94 51.9513 66.94 54.3593Z" fill="white" stroke="#777777" stroke-width="3" stroke-linecap="round" stroke-linejoin="round"/>
<path d="M72.43 70.2308V64.0508" stroke="#777777" stroke-width="3" stroke-linecap="round" stroke-linejoin="round"/>
<path d="M110.09 73.1504H96.89C94.482 73.1504 92.53 75.1024 92.53 77.5104V105.96C92.53 108.368 94.482 110.32 96.89 110.32H110.09C112.498 110.32 114.45 108.368 114.45 105.96V77.5104C114.45 75.1024 112.498 73.1504 110.09 73.1504Z" fill="white" stroke="#5CB531" stroke-width="3" stroke-linecap="round" stroke-linejoin="round"/>
<path d="M101.51 78.1406H105.47" stroke="#5CB531" stroke-width="3" stroke-linecap="round" stroke-linejoin="round"/>
</svg>
