<svg width="90" height="90" viewBox="0 0 90 90" fill="none" xmlns="http://www.w3.org/2000/svg">
<path d="M72.32 32.3203H35.32V73.9603H72.32V32.3203Z" fill="white" stroke="#777777" stroke-width="2" stroke-linecap="round" stroke-linejoin="round"/>
<path d="M64.16 24.1602H27.16V65.8002H64.16V24.1602Z" fill="white" stroke="#777777" stroke-width="2" stroke-linecap="round" stroke-linejoin="round"/>
<path d="M56 16H19V57.64H56V16Z" fill="white" stroke="#777777" stroke-width="2" stroke-linecap="round" stroke-linejoin="round"/>
<path d="M36.64 38.1107H38.37L38.76 36.7207H36.25L36.64 38.1107Z" fill="#5CB531"/>
<path d="M32.64 31.02C33.49 33.32 35.35 35.24 37.51 35.24C39.67 35.24 41.52 33.32 42.38 31.02C42.85 30.93 43.35 30.56 43.71 29.99C44.25 29.12 44.23 28.13 43.65 27.77C43.42 27.63 43.13 27.61 42.84 27.69C42.53 24.77 40.27 22.5 37.51 22.5C34.75 22.5 32.49 24.77 32.18 27.69C31.89 27.6 31.6 27.62 31.37 27.77C30.8 28.13 30.77 29.12 31.31 29.99C31.66 30.55 32.17 30.92 32.64 31.02Z" fill="#5CB531"/>
<path d="M49.83 41.5497C49.83 39.8197 48.76 38.2697 47.14 37.6697L41.19 35.4297L38.57 41.7097L38.37 38.6597H36.65L36.45 41.7097L33.83 35.4297L27.87 37.6697C26.25 38.2797 25.18 39.8197 25.18 41.5497V45.7197H49.83V41.5497V41.5497Z" fill="#5CB531"/>
<path d="M49.26 49.1992H25.75C25.06 49.1992 24.5 49.7592 24.5 50.4492C24.5 51.1392 25.06 51.6992 25.75 51.6992H49.26C49.95 51.6992 50.51 51.1392 50.51 50.4492C50.51 49.7592 49.95 49.1992 49.26 49.1992Z" fill="#5CB531"/>
</svg>
