<svg width="90" height="90" viewBox="0 0 90 90" fill="none" xmlns="http://www.w3.org/2000/svg">
<path d="M44.024 35.3605H46.274L46.784 33.5605H43.514L44.024 35.3605Z" fill="#5CB531"/>
<path d="M38.794 26.12C39.904 29.12 42.334 31.63 45.144 31.63C47.954 31.63 50.384 29.12 51.494 26.12C52.104 26 52.764 25.52 53.224 24.78C53.934 23.65 53.904 22.35 53.154 21.88C52.854 21.69 52.484 21.67 52.094 21.78C51.694 17.97 48.734 15 45.144 15C41.554 15 38.594 17.96 38.194 21.78C37.814 21.67 37.434 21.69 37.134 21.88C36.384 22.35 36.354 23.65 37.064 24.78C37.524 25.52 38.184 26 38.794 26.12V26.12Z" fill="#5CB531"/>
<path d="M75.104 27.9894C74.514 27.8594 74.224 28.0194 74.034 28.1594C73.164 28.8694 72.854 30.9694 72.844 31.8694C72.844 31.9094 72.844 31.9594 72.844 31.9994L72.064 39.3594C72.064 39.4694 71.754 42.7794 69.414 45.3194C68.944 46.2394 68.364 46.8594 68.264 46.9694L60.584 54.8594H60.574C60.054 55.3994 59.204 55.3994 58.674 54.8894C58.144 54.3694 58.124 53.5094 58.644 52.9694L66.324 45.0794C66.614 44.7694 67.374 43.7694 67.314 42.8794C67.304 42.7194 67.264 42.2294 66.544 41.6594C65.954 41.1994 65.404 41.0094 64.914 41.0794C64.234 41.1794 63.664 41.7894 63.504 42.0194C63.464 42.0794 63.414 42.1394 63.364 42.1894L52.644 53.2094C46.624 59.3994 49.214 67.5094 49.814 69.1094H61.004C61.104 67.6794 61.684 64.7594 64.504 61.8494L72.904 53.2094C72.904 53.2094 72.974 53.1394 73.014 53.1094C73.174 52.9794 76.894 49.7494 77.054 42.3094L77.264 30.7794C77.264 30.6994 77.264 30.6294 77.284 30.5594C77.354 30.0994 77.424 28.4894 75.114 27.9894H75.104Z" fill="white" stroke="#777777" stroke-width="2" stroke-linecap="round" stroke-linejoin="round"/>
<path d="M47.704 74.049H62.794L62.844 67.709H47.754L47.704 74.049Z" fill="white" stroke="#777777" stroke-width="2" stroke-linecap="round" stroke-linejoin="round"/>
<path d="M37.674 53.209L26.954 42.189C26.954 42.189 26.854 42.079 26.814 42.019C26.654 41.789 26.084 41.179 25.404 41.079C24.914 41.009 24.364 41.199 23.774 41.659C23.044 42.229 23.014 42.719 22.994 42.879C22.924 43.769 23.684 44.779 23.974 45.079L31.654 52.969C32.174 53.509 32.164 54.369 31.624 54.889C31.094 55.409 30.244 55.399 29.724 54.879H29.714L22.034 46.969C21.924 46.859 21.344 46.239 20.874 45.319C18.534 42.789 18.234 39.469 18.224 39.359L17.444 31.999C17.444 31.999 17.444 31.909 17.444 31.869C17.434 30.959 17.124 28.859 16.254 28.159C16.074 28.009 15.784 27.859 15.194 27.989C12.884 28.489 12.954 30.099 13.024 30.559C13.034 30.629 13.044 30.709 13.044 30.779L13.254 42.309C13.414 49.749 17.144 52.979 17.304 53.109C17.344 53.139 17.374 53.169 17.414 53.209L25.814 61.849C28.644 64.759 29.224 67.669 29.324 69.109H40.514C41.114 67.509 43.704 59.399 37.684 53.209H37.674Z" fill="white" stroke="#777777" stroke-width="2" stroke-linecap="round" stroke-linejoin="round"/>
<path d="M42.534 67.709H27.444L27.494 74.049H42.584L42.534 67.709Z" fill="white" stroke="#777777" stroke-width="2" stroke-linecap="round" stroke-linejoin="round"/>
<path d="M39.454 51.4809C44.604 56.7809 44.404 63.2009 43.654 67.0109H46.634C45.884 63.2009 45.684 56.7809 50.834 51.4809L61.224 40.8009V39.8609C61.224 37.6109 59.824 35.5909 57.714 34.8009L49.944 31.8809L46.534 40.0709L46.264 36.0909H44.014L43.744 40.0709L40.334 31.8809L32.564 34.8009C30.454 35.5909 29.054 37.6109 29.054 39.8609V40.8009L39.444 51.4809H39.454Z" fill="#5CB531"/>
</svg>
