<svg width="476" height="256" viewBox="0 0 476 256" fill="none" xmlns="http://www.w3.org/2000/svg">
<g clip-path="url(#clip0_210_1369)">
<g clip-path="url(#clip1_210_1369)">
<path d="M382.601 72.6044C380.835 64.3541 383.966 31.2102 383.966 31.2102C383.966 31.2102 379.652 26.7478 377.925 23.9977C375.508 20.1579 373.403 19.7298 377.184 13.3864C375.924 6.39444 375.521 4.77292 381.965 3.35895C385.369 2.60657 397.399 1.99688 398.1 3.63137C400.582 9.36507 400.712 12.7378 400.192 17.8878C399.828 21.4811 398.503 28.6936 398.503 28.6936C401.283 53.2369 405.207 58.5815 404.622 71.0737C404.206 79.9855 401.024 82.8264 395.554 83.5529C390.838 84.1756 383.524 76.9501 382.601 72.6044Z" fill="#FFD2BC"/>
<path d="M395.19 10.7265C394.995 10.6227 394.801 10.6746 394.645 10.7913C394.099 11.2194 393.54 11.7383 393.086 12.2572C392.527 12.9058 393.501 13.6841 394.021 12.9836C394.151 12.802 394.866 11.5697 395.112 11.5956C395.866 11.6734 395.879 13.6452 395.866 14.19C395.827 15.8505 393.242 16.7456 391.851 15.7856C391.787 15.6948 391.696 15.604 391.592 15.5392C390.864 14.696 390.773 12.8409 390.617 11.868C390.305 9.80545 390.344 7.75585 390.228 5.6803C390.202 5.23925 389.461 5.07061 389.396 5.56356C389.071 7.7818 388.604 13.3858 390.435 15.9672C389.981 16.5899 388.837 16.7066 388.188 16.8364C387.915 16.8883 387.642 16.9401 387.369 16.992C387.798 16.084 387.98 15.0462 387.473 14.3198C387.149 13.8398 386.564 13.6322 385.927 13.5285C385.953 12.8409 385.745 11.9977 385.719 11.401C385.616 9.62384 385.616 7.80774 386.057 6.08244C386.2 5.49869 385.317 5.25222 385.148 5.83597C384.68 7.58721 384.615 9.41629 384.641 11.2194C384.641 11.8291 384.55 12.7242 384.68 13.4506C384.264 13.4506 383.875 13.4506 383.55 13.4247C382.965 13.3728 382.394 13.3209 381.822 13.282C381.861 12.6593 381.744 11.9588 381.744 11.414C381.744 9.6887 381.822 7.96341 381.848 6.23811C381.848 5.74517 381.043 5.61544 380.965 6.12136C380.718 7.80774 380.705 9.52007 380.692 11.2194C380.692 11.7902 380.575 12.5426 380.627 13.2171C379.756 13.1782 378.873 13.1782 377.989 13.269C377.288 13.3469 377.262 14.3457 377.989 14.3846C379.847 14.4754 381.679 14.5403 383.537 14.683C384.836 14.7868 386.954 14.5922 385.914 16.6548C385.291 17.9001 383.654 18.6395 382.29 18.419C381.588 18.3022 381.263 19.1065 381.822 19.5346C382.783 20.261 384.29 19.82 385.382 19.1973C387.11 19.4178 389.396 19.1454 389.448 21.4026C389.487 23.517 388.318 25.1645 387.642 27.0584C387.486 27.4995 388.084 27.9924 388.487 27.707C390.228 26.4098 391.137 22.7517 390.708 20.6891C390.241 18.5098 388.331 18.419 386.512 18.3282C386.564 18.2633 386.616 18.2114 386.668 18.1466C387.447 18.1206 388.227 18.0687 389.006 17.9131C389.838 17.7444 390.929 17.6147 391.553 16.992C391.981 17.2255 392.488 17.3423 393.073 17.3293C394.619 17.2904 396.593 16.9142 396.905 15.2019C397.217 13.5544 396.736 11.5697 395.203 10.7394L395.19 10.7265Z" fill="#F0A49F"/>
<path d="M406.337 70.3742C405.83 67.4685 406.22 64.1995 403.531 62.3574C397.919 68.3765 383.537 63.1747 383.537 63.1747C380.705 62.7077 381.095 81.8935 382.186 91.4799C382.498 94.1911 382.29 95.6699 381.887 97.7974C381.523 99.6783 380.952 100.547 382.186 102.493C379.964 102.844 380.38 105.192 380.861 106.826C376.002 108.538 374.755 115.219 372.923 116.75C370.052 119.137 372.13 127.179 372.598 130.863C373.962 141.63 377.691 152.994 385.681 162.126C391.683 155.861 399.958 139.931 403.622 130.876C407.922 120.252 407.363 108.642 407.909 97.4471C408.273 90.0271 407.623 77.6776 406.337 70.3742V70.3742Z" fill="white"/>
<path d="M382.978 71.2023C382.186 74.0821 382.679 77.0009 382.978 79.9196C383.303 83.2664 383.199 86.6133 383.641 89.9471C384.277 94.7338 385.356 98.5477 383.524 103.218C382.692 105.345 382.614 106.772 383.55 108.861L384.031 108.017C380.484 107.797 379.094 112.402 377.951 114.97C375.378 120.717 370.117 124.764 367.025 130.213C366.674 130.835 367.622 131.393 367.986 130.783C370.805 126.101 374.91 122.39 377.756 117.746C379.198 115.398 380.575 108.938 384.018 109.146C384.485 109.172 384.654 108.666 384.498 108.303C383.056 105.06 385.473 102.543 385.784 99.4168C386.109 96.2256 385.083 92.9437 384.667 89.8174C384.251 86.6781 384.329 83.5518 384.031 80.4126C383.745 77.4419 383.121 74.4064 383.914 71.4747C384.083 70.878 383.147 70.6186 382.978 71.2153V71.2023Z" fill="#E3E3EB"/>
<path d="M386.889 74.5616C386.863 80.5936 387.175 86.496 388.058 92.4632C388.604 96.1213 389.344 100.324 388.305 103.969C388.006 105.033 387.395 105.967 387.175 107.07C386.941 108.25 387.213 109.301 387.213 110.482C387.188 113.919 384.641 115.865 382.64 118.317C380.978 120.353 379.535 122.572 378.21 124.855C375.573 129.408 373.338 134.26 371.533 139.202C371.338 139.721 372.221 140.097 372.442 139.591C374.833 134.091 377.002 128.513 380.198 123.415C381.874 120.743 383.875 118.433 385.927 116.047C387.058 114.736 388.032 113.426 388.279 111.662C388.435 110.546 388.058 109.444 388.136 108.328C388.253 106.486 389.201 104.942 389.552 103.165C390.085 100.428 389.734 97.4185 389.383 94.6814C388.526 87.9359 387.811 81.3979 387.759 74.5746C387.759 74.0038 386.876 74.0038 386.876 74.5746L386.889 74.5616Z" fill="#E3E3EB"/>
<path d="M392.072 74.0181C390.37 78.8178 392.072 84.318 392.436 89.2344C392.995 96.6415 392.488 103.685 391.033 110.963C390.396 114.141 390.137 117.462 389.136 120.549C387.954 124.181 385.888 127.684 384.096 131.044C380.614 137.543 376.534 143.653 372.819 149.996C372.429 150.671 373.403 151.202 373.845 150.593C378.093 144.639 381.757 138.127 385.161 131.666C386.733 128.683 388.357 125.66 389.604 122.521C390.903 119.252 391.111 115.814 391.722 112.377C392.904 105.748 393.891 99.6381 393.618 92.8666C393.384 87.0681 391.124 79.8945 392.93 74.2645C393.099 73.7197 392.267 73.4992 392.072 74.031V74.0181Z" fill="#E3E3EB"/>
<path d="M396.334 72.1887C396.191 88.2353 397.854 104.126 395.385 120.108C394.229 127.58 392.059 134.844 388.136 141.356C384.446 147.466 379.432 152.746 375.989 158.986C375.573 159.725 376.638 160.322 377.119 159.647C381.419 153.563 386.044 147.466 389.747 140.993C393.371 134.65 395.424 127.619 396.541 120.419C399.036 104.308 397.568 88.378 397.282 72.1887C397.282 71.592 396.347 71.5791 396.347 72.1887H396.334Z" fill="#E3E3EB"/>
<path d="M400.829 65.4689C402.076 81.6193 403.843 98.2107 401.27 114.309C399.932 122.702 397.971 131.108 394.528 138.917C391.163 146.558 386.252 153.368 382.095 160.581C381.692 161.281 382.744 161.891 383.173 161.204C387.707 153.978 392.696 147.064 396.126 139.203C399.516 131.419 401.478 123.091 402.816 114.724C405.428 98.3663 403.583 81.8139 401.842 65.4689C401.777 64.8333 400.764 64.8073 400.816 65.4689H400.829Z" fill="#E3E3EB"/>
<path d="M303.405 70.9052C306.185 62.9403 307.263 29.6667 307.263 29.6667C307.263 29.6667 312.109 25.775 314.162 23.2714C317.046 19.7559 319.19 19.6003 316.228 12.8418C318.358 6.05731 318.956 4.50065 312.746 2.29538C309.459 1.12789 297.598 -0.986578 296.701 0.544138C293.518 5.91461 292.973 9.24846 292.843 14.4244C292.752 18.0306 293.155 25.3599 293.155 25.3599C287.308 49.3584 282.735 54.1711 281.761 66.6373C281.059 75.5362 283.853 78.7404 289.179 80.1414C293.778 81.3607 301.937 75.0952 303.405 70.9052V70.9052Z" fill="#FFD2BC"/>
<path d="M315.5 12.6204C314.604 12.4128 313.694 12.2961 312.798 12.2183C312.902 11.6604 312.902 11.0508 312.954 10.5578C313.175 8.7936 313.408 6.9775 313.369 5.20031C313.369 4.61656 312.538 4.64251 312.473 5.20031C312.278 6.92561 312.148 8.6509 311.927 10.3632C311.862 10.8951 311.681 11.5437 311.629 12.1404C311.044 12.1145 310.446 12.0885 309.862 12.0626C309.55 12.0496 309.16 11.9977 308.757 11.9458C308.991 11.1935 309.004 10.2724 309.095 9.62382C309.342 7.84663 309.485 6.05647 309.238 4.27928C309.16 3.7604 308.251 3.87715 308.316 4.40901C308.537 6.25105 308.303 8.10607 307.965 9.90921C307.848 10.493 307.575 11.2194 307.523 11.881C306.848 11.8939 306.211 12.0496 305.834 12.5426C305.276 13.269 305.25 14.203 305.562 15.0981C305.367 15.0332 305.159 14.9684 304.964 14.9035C304.366 14.7089 303.041 14.4235 302.742 13.736C303.119 13.256 303.418 12.6334 303.665 11.9199C304.587 9.2606 305.172 6.41969 305.094 3.60473C305.094 3.15071 304.353 3.00801 304.262 3.48798C303.743 6.25105 303.665 9.90921 302.145 12.3999C301.053 14.203 297.754 13.5933 297.572 11.5178C297.507 10.7913 297.741 9.75354 298.39 9.40329C299.17 8.97521 299.209 9.70165 299.611 10.4021C299.988 11.0767 301.066 10.4411 300.651 9.79246C300.248 9.18276 299.728 8.54713 299.209 8.02824C299.105 7.92446 298.91 7.8596 298.767 7.91149C297.13 8.53416 296.545 10.1946 296.467 11.8421C296.377 13.723 298.091 14.3587 299.741 14.683C300.456 14.8257 301.053 14.7997 301.534 14.6311C302.093 15.3186 303.262 15.604 304.029 15.8505C304.743 16.084 305.471 16.2267 306.211 16.3304C306.25 16.3953 306.302 16.4601 306.354 16.525C304.535 16.3823 302.625 16.2656 301.911 18.3281C301.248 20.2351 301.599 24.1137 303.171 25.5407C303.6 25.9428 304.236 25.5407 304.119 24.9829C303.73 23.0889 302.872 21.5193 303.028 19.4956C303.223 17.005 305.497 17.5758 307.328 17.5628C308.446 18.4968 309.836 18.9508 310.927 18.3022C311.434 18.0038 311.239 17.1477 310.615 17.1736C309.381 17.2125 307.913 16.512 307.315 15.3705C306.783 14.3587 306.64 13.3728 307.835 13.1782C308.29 13.1004 308.835 13.2431 309.29 13.269C311.33 13.3987 313.343 13.5284 315.37 13.6971C315.994 13.749 316.124 12.7501 315.513 12.6074L315.5 12.6204Z" fill="#F0A49F"/>
<path d="M277.526 74.7443C278.032 71.8386 280.306 59.2815 282.995 57.4395C288.608 63.4585 304.834 62.6932 304.834 62.6932C307.666 62.2262 303.821 77.3128 302.729 86.9122C302.418 89.6234 301.534 92.2308 301.95 94.3582C302.314 96.2392 301.456 95.6036 300.222 97.5494C302.444 97.8996 302.028 100.248 301.547 101.882C306.406 103.594 310.784 115.205 312.616 116.722C315.487 119.109 313.408 127.152 312.941 130.836C311.577 141.603 311.304 155.366 303.314 164.499C298.533 162.709 285.581 139.904 281.917 130.849C277.617 120.225 275.382 111.04 274.849 99.8455C274.486 92.4254 276.253 82.0217 277.526 74.7314V74.7443Z" fill="white"/>
<path d="M299.611 73.8235C300.365 76.6125 299.365 80.4652 298.962 83.2672C298.546 86.134 298.117 89.0139 297.728 91.8807C297.455 93.9303 297.156 96.0188 297.234 98.0814C297.312 100.416 298.559 101 299.014 103.296C299.365 105.099 299.52 105.398 300.807 106.838C302.47 108.693 302.963 111.131 304.366 113.207C305.938 115.516 308.004 117.423 309.537 119.758C311.2 122.3 312.174 125.206 313.798 127.775C314.188 128.397 315.097 127.853 314.773 127.204C313.434 124.519 312.122 121.717 310.472 119.2C308.939 116.865 306.861 114.958 305.302 112.649C304.029 110.768 303.769 108.355 302.262 106.656C301.014 105.255 300.43 104.71 300.092 102.609C300.001 102.051 300.105 101.649 299.897 101.104C299.598 100.326 299.443 100.559 299.053 99.8845C298.403 98.7689 298.299 98.4706 298.312 97.1215C298.338 94.4362 298.819 91.764 299.17 89.1176C299.585 86.0043 300.04 82.904 300.391 79.7777C300.625 77.7021 301.105 75.6136 300.508 73.564C300.339 72.9803 299.43 73.2267 299.598 73.8105L299.611 73.8235Z" fill="#E3E3EB"/>
<path d="M294.207 72.8369C294.259 80.8796 294.077 88.9613 293.973 96.991C293.908 101.998 295.168 106.603 297.416 111.118C299.936 116.203 302.677 120.99 304.782 126.295C305.756 128.76 306.653 131.601 308.42 133.624C310.381 135.882 312.824 136.388 313.538 139.682C313.668 140.279 314.695 140.162 314.63 139.54C314.422 137.763 313.928 136.4 312.512 135.233C311.668 134.545 310.667 134.065 309.875 133.313C308.498 131.977 307.679 130.174 306.887 128.462C304.418 123.143 302.158 117.863 299.404 112.674C296.935 108.03 294.934 102.829 294.999 97.5618C295.103 89.3504 295.337 81.0612 295.155 72.8498C295.142 72.2402 294.207 72.2402 294.207 72.8498V72.8369Z" fill="#E3E3EB"/>
<path d="M287.477 70.6837C287.191 87.2751 288.439 104.359 292.167 120.575C293.596 126.775 295.571 132.431 299.144 137.737C301.248 140.863 303.405 144.43 306.276 146.908C309.043 149.295 311.525 150.372 313.305 153.835C313.629 154.471 314.721 154.03 314.487 153.342C313.616 150.813 312.174 149.191 309.979 147.725C306.341 145.3 303.769 142.251 301.222 138.71C297.26 133.21 294.986 127.307 293.453 120.743C289.634 104.346 288.88 87.4567 288.53 70.6837C288.517 70.0221 287.503 70.0221 287.49 70.6837H287.477Z" fill="#E3E3EB"/>
<path d="M284.749 61.7464C282.112 71.3717 283.073 81.8273 283.151 91.6991C283.203 98.3798 283.385 105.073 284.489 111.663C286.607 124.337 290.011 137.543 296.74 148.608C298.494 151.488 300.573 154.29 303.106 156.521C306.328 159.362 310.213 159.972 312.694 163.721C313.11 164.356 314.11 163.785 313.72 163.124C311.642 159.492 308.718 158.947 305.497 156.716C301.794 154.134 299.079 150.113 296.857 146.26C292.453 138.593 289.712 129.915 287.607 121.366C286.009 114.893 284.879 108.381 284.515 101.714C284.151 95.1756 284.242 88.6117 284.151 82.0608C284.061 75.3023 284.151 68.6475 285.632 62.0058C285.762 61.422 284.892 61.1756 284.723 61.7593L284.749 61.7464Z" fill="#E3E3EB"/>
<path d="M279.76 65.3147C279.617 71.1002 278.591 76.795 278.214 82.5676C277.838 88.3403 277.708 94.1907 277.578 99.9763C277.383 108.81 277.967 117.735 280.345 126.284C284.957 142.888 295.103 156.185 307.017 168.288C307.471 168.742 308.134 168.067 307.718 167.587C301.937 161.023 295.688 155.004 291.037 147.519C286.763 140.644 283.281 133.055 281.202 125.207C278.864 116.399 278.435 107.215 278.734 98.1472C278.916 92.5432 278.955 86.9003 279.397 81.3223C279.825 75.9778 280.878 70.6851 280.735 65.3147C280.722 64.692 279.786 64.692 279.773 65.3147H279.76Z" fill="#E3E3EB"/>
<path d="M383.238 148.66C384.836 158.96 361.126 166.328 351.993 170.648C343.9 174.474 335.468 171.478 328.894 166.068C323.841 161.904 302.807 161.58 307.095 156.054C312.148 149.529 320.645 139.683 323.958 134.001C329.31 124.843 330.271 115.892 330.155 113.855C332.636 116.437 339.508 118.629 342.769 120.16C346.719 122.028 355.956 121.405 361.386 120.16C361.698 122.586 363.387 128.306 366.661 132.263C375.079 142.42 382.576 144.366 383.225 148.647L383.238 148.66Z" fill="#FFD2BC"/>
<path d="M358.684 91.4521C359.645 95.8886 359.191 99.3522 359.36 103.581C359.593 109.6 360.087 114.218 361.399 120.173C354.267 122.469 346.407 122.962 342.003 121.392C338.612 120.185 332.636 117.124 330.155 113.868C329.869 108.939 329.817 99.4041 328.635 94.76C331.142 91.3094 338.482 90.1549 342.951 88.8577C348.356 87.2881 354.241 88.1832 358.684 91.4651V91.4521Z" fill="#F0A49F"/>
<path d="M357.982 89.7399C358.32 90.2458 358.541 90.8295 358.684 91.4522C354.241 88.1832 348.356 87.2881 342.951 88.8448C338.482 90.142 334.052 95.6811 331.545 99.1317C331.025 97.1081 330.531 92.0489 330.155 90.1161C332.259 87.3011 339.859 86.0039 343.523 86.0039C347.537 86.0039 355.683 86.3152 357.982 89.7529V89.7399Z" fill="#FFDBC6"/>
<path d="M329.83 123.08C326.166 119.603 318.501 119.344 313.655 118.475C312.148 122.911 309.485 127.153 307.796 131.641C301.898 147.325 303.145 174.475 304.184 191.171C305.769 216.739 306.627 223.225 309.849 256.589H377.665C377.665 256.589 380.861 231.981 383.316 199.81C384.966 178.095 393.125 140.177 372.923 116.736L358.684 123.975L349.057 122.042L346.94 130.059L343.471 122.301L329.83 123.093V123.08Z" fill="white"/>
<path d="M318.397 85.5758C318.397 82.3717 322.827 82.1252 324.594 84.1489C320.853 57.5689 344.445 60.7471 344.445 60.7471C363.985 57.8802 369.805 79.8421 365.323 85.2775C367.427 81.6452 371.87 81.6453 371.338 87.4179C370.987 91.1798 368.986 98.989 364.063 96.7578C362.737 104.58 350.694 114.711 345.446 114.711C340.743 114.711 327.92 106.863 324.815 97.6529C321.502 98.055 318.397 91.3614 318.397 85.5758V85.5758Z" fill="#FFD2BC"/>
<path d="M332.168 78.3906C333.337 78.8965 334.65 78.9354 335.884 79.1948C337.248 79.4802 338.599 79.9343 339.976 80.1288C341.574 80.3623 342.289 78.1571 340.665 77.6511C338.339 76.9377 334.481 75.6794 332.181 76.8988C331.649 77.1841 331.584 78.1311 332.181 78.3906H332.168Z" fill="#414956"/>
<path d="M358.645 76.8988C356.346 75.6794 352.487 76.9377 350.162 77.6511C348.538 78.1571 349.239 80.3623 350.85 80.1288C352.227 79.9343 353.578 79.4802 354.942 79.1948C356.177 78.9354 357.489 78.8965 358.658 78.3906C359.256 78.1311 359.191 77.1841 358.658 76.8988H358.645Z" fill="#414956"/>
<path d="M320.957 89.5079C320.827 88.8075 320.32 86.68 320.892 86.1352C322.126 84.9677 323.347 88.6258 323.555 89.3004C323.854 90.2992 324.165 93.205 323.672 92.6861C323.464 92.4786 323.334 92.0894 323.256 91.817C323.126 91.363 323.217 90.87 322.931 90.4809C322.645 90.0787 322.243 89.9879 321.801 90.1825L321.671 90.2344C321.359 90.3641 321.19 90.7662 321.177 91.0776C321.164 92.4526 322.814 96.0589 324.672 94.619C326.114 93.5034 324.867 90.2474 324.425 88.8593C323.997 87.5102 322.905 84.4488 320.918 85.0066C319.021 85.5385 320.034 88.4183 320.476 89.6247C320.58 89.9231 321.009 89.8063 320.944 89.495L320.957 89.5079Z" fill="#F0A49F"/>
<path d="M369.389 89.6374C369.831 88.431 370.818 85.7328 369.064 85.0712C367.051 84.3059 365.868 87.523 365.44 88.8721C364.998 90.2471 363.803 93.3734 365.102 94.5539C366.934 96.2143 368.714 92.4654 368.688 91.0903C368.688 90.779 368.506 90.3768 368.194 90.2471L368.064 90.1952C367.622 90.0006 367.22 90.0915 366.934 90.4936C366.674 90.8568 366.765 91.2589 366.661 91.6741C366.583 91.9724 366.05 92.9843 365.959 92.5821C365.738 91.5314 366.011 90.325 366.297 89.3261C366.531 88.5348 367.466 85.4734 368.74 86.0441C369.545 86.4074 369.025 88.7942 368.895 89.5207C368.83 89.832 369.259 89.9488 369.363 89.6504L369.389 89.6374Z" fill="#F0A49F"/>
<path d="M342.613 51.6424C339.21 48.2827 332.181 49.5928 328.401 51.4089C323.308 53.8607 319.333 58.9069 317.553 64.1736C316.656 66.8199 316.02 69.1678 316.306 71.9698C316.526 74.0713 317.54 76.6139 318.293 78.5337C319.359 81.206 319.099 82.4773 317.267 84.4101C317.981 84.7474 319.307 84.6436 320.437 84.5399C320.463 85.3571 319.67 85.876 319.151 86.3949C320.411 86.6803 321.502 87.1992 322.827 87.1213C324.139 87.0305 329.401 87.5494 332.441 82.9962C335.026 79.1175 336.715 63.5509 343.848 67.5334C345.004 65.3411 347.498 65.0427 350.071 66.0805C352.955 67.235 353.357 71.8012 354.566 74.4216C356.631 78.884 361.399 86.0836 367.921 84.3323C367.466 83.7615 367.18 83.074 366.895 82.4254C368.467 82.8535 369.558 83.1908 371.234 82.7367C370.195 82.0492 369.883 80.8687 369.961 79.6753C370.104 77.4441 370.844 75.0961 371.156 72.839C372.416 63.5509 367.856 53.9515 358.957 49.502C355.085 47.5692 345.978 47.4784 342.6 51.6554L342.613 51.6424Z" fill="#414956"/>
<path d="M352.786 97.9396C351.331 97.1093 349.694 98.2898 348.395 98.8865C347.472 99.3146 346.043 100.223 344.926 99.7557C344.926 99.7557 343.692 99.3016 343.081 98.9254C342.159 98.3547 341.08 97.6931 340.002 97.4855C338.235 97.1483 337.053 98.7179 337.716 100.391C338.755 103.064 342.665 104.465 345.329 104.594C347.563 104.698 351.318 103.699 352.929 101.844C353.916 100.703 354.358 98.8346 352.799 97.9525L352.786 97.9396Z" fill="white"/>
<path d="M362.737 84.59H361.802C361.464 80.9189 358.372 78.0391 354.605 78.0391C350.837 78.0391 348.07 80.6335 347.485 84.0452C346.16 83.2409 344.77 83.5782 343.822 84.11C343.263 80.6724 340.288 78.052 336.689 78.052C333.091 78.052 329.83 80.9319 329.492 84.603H328.609V85.9391H329.492C329.83 89.6102 332.922 92.4901 336.689 92.4901C340.678 92.4901 343.913 89.247 343.913 85.2775V85.2516C344.406 84.8884 345.926 83.9673 347.355 85.2256C347.355 85.2386 347.355 85.2646 347.355 85.2775C347.355 89.26 350.603 92.4901 354.579 92.4901C358.333 92.4901 361.438 89.6102 361.776 85.9391H362.711V84.603L362.737 84.59ZM336.715 91.4782C333.286 91.4782 330.492 88.6892 330.492 85.2646C330.492 81.8399 333.286 79.0509 336.715 79.0509C340.145 79.0509 342.938 81.8399 342.938 85.2646C342.938 88.6892 340.145 91.4782 336.715 91.4782ZM354.618 91.4782C351.188 91.4782 348.395 88.6892 348.395 85.2646C348.395 81.8399 351.188 79.0509 354.618 79.0509C358.047 79.0509 360.841 81.8399 360.841 85.2646C360.841 88.6892 358.047 91.4782 354.618 91.4782Z" fill="white"/>
<path d="M336.975 87.0554C336.949 86.2641 336.572 84.7852 337.495 84.3442C338.001 84.1107 338.833 84.1755 339.054 84.7333C339.314 85.4209 339.054 86.1862 339.262 86.8867C339.47 87.5613 340.522 87.6261 340.691 86.8867C340.899 85.9787 340.691 84.6555 340.119 83.8901C339.495 83.0599 338.326 82.8394 337.365 83.0988C335.611 83.5658 335.442 85.7322 335.897 87.1851C336.079 87.7559 336.988 87.678 336.975 87.0424V87.0554Z" fill="#2E3640"/>
<path d="M351.357 87.095C351.422 85.9924 351.084 84.0466 352.851 84.3968C354.176 84.6563 353.487 86.3556 353.799 87.2118C354.02 87.8085 354.761 87.9123 355.124 87.3804C355.67 86.6021 355.423 85.0844 355.046 84.2671C354.644 83.411 353.864 82.8532 352.916 82.8402C351.915 82.8272 351.071 83.1904 350.616 84.0985C350.149 85.0325 350.097 86.2129 350.317 87.2377C350.447 87.8474 351.331 87.6658 351.357 87.095V87.095Z" fill="#2E3640"/>
<path d="M352.89 99.4434C352.318 99.7288 351.76 99.9752 351.201 100.196C350.993 99.7418 350.785 99.3007 350.525 98.8856C350.395 98.678 350.032 98.8207 350.123 99.0542C350.291 99.5083 350.473 99.9493 350.668 100.39C348.681 101.117 346.719 101.467 344.783 101.324C344.822 101.078 344.848 100.844 344.848 100.611C344.848 100.429 344.614 100.39 344.523 100.533C344.367 100.754 344.263 101.013 344.185 101.272C343.341 101.169 342.51 100.974 341.665 100.689C341.847 100.248 342.029 99.8196 342.224 99.3915C342.367 99.0802 341.912 98.8078 341.756 99.1191C341.522 99.5601 341.327 100.027 341.119 100.481C340.21 100.118 339.301 99.625 338.391 99.0153C338.157 98.8596 337.885 99.2229 338.092 99.4174C338.885 100.17 339.807 100.754 340.795 101.195C340.6 101.584 340.405 102.012 340.392 102.401C340.392 102.609 340.678 102.725 340.808 102.57C341.067 102.284 341.236 101.856 341.379 101.441C342.211 101.765 343.094 101.973 343.991 102.09C343.939 102.336 343.887 102.583 343.822 102.816C343.718 103.14 344.224 103.27 344.341 102.946C344.432 102.699 344.51 102.427 344.601 102.155C346.771 102.336 348.992 101.973 350.954 101.104C351.058 101.363 351.162 101.61 351.331 101.83C351.461 101.999 351.798 101.96 351.773 101.701C351.747 101.402 351.643 101.117 351.526 100.844C352.11 100.559 352.656 100.222 353.176 99.8455C353.435 99.651 353.202 99.2748 352.916 99.4174L352.89 99.4434Z" fill="#E4DBD1"/>
<path d="M321.012 120.225C315.132 128.114 312.996 138.111 311.491 147.429C309.708 158.456 308.886 169.529 309.013 180.673C309.303 204.67 312.831 228.503 314.816 252.394C314.88 253.202 316.093 253.202 316.169 252.394C316.726 246.752 315.866 240.946 315.145 235.339C314.424 229.662 313.653 223.996 313.109 218.307C311.997 206.555 310.922 194.802 310.669 183.003C310.429 171.8 311.137 160.715 312.743 149.606C314.197 139.539 316.41 129.624 321.922 120.728C322.264 120.166 321.391 119.71 320.999 120.225H321.012Z" fill="#E3E3EB"/>
<path d="M327.092 121.218C324.716 125.158 324.012 129.5 323.346 133.877C322.589 138.906 321.558 143.898 320.814 148.938C319.13 160.308 318.439 171.831 318.112 183.295C317.786 194.842 318.191 206.354 319.052 217.877C319.94 229.684 320.122 241.48 320.54 253.299C320.579 254.234 322.106 254.234 322.145 253.299C322.863 230.737 319.274 208.259 319.692 185.685C319.887 174.6 320.436 163.455 321.845 152.44C322.511 147.199 323.542 142.017 324.338 136.788C325.108 131.748 325.33 126.27 327.94 121.668C328.227 121.159 327.405 120.721 327.105 121.218H327.092Z" fill="#E3E3EB"/>
<path d="M334.195 120.043C333 124.414 332.844 128.968 332.649 133.482C332.415 138.904 332.012 144.301 331.558 149.697C330.583 161.242 329.7 172.749 329.297 184.333C328.894 195.748 328.829 207.164 328.829 218.579C328.829 224.183 328.674 229.8 329.05 235.391C329.427 240.995 329.986 246.534 329.804 252.164C329.765 253.423 331.675 253.41 331.753 252.164C332.116 246.768 331.454 241.397 331.064 236.014C330.661 230.436 330.739 224.832 330.713 219.241C330.661 208.046 330.687 196.838 330.973 185.656C331.272 174.513 332.051 163.409 332.935 152.305C333.766 141.732 333.195 130.745 335.091 120.302C335.195 119.706 334.338 119.459 334.182 120.056L334.195 120.043Z" fill="#E3E3EB"/>
<path d="M341.535 124.039C341.029 134.248 339.158 144.224 339.119 154.472C339.08 165.239 339.418 175.993 339.041 186.759C338.274 209.292 338.326 231.877 338.833 254.422C338.859 255.668 340.743 255.668 340.769 254.422C341.249 231.877 340.262 209.331 340.899 186.759C341.197 176.006 340.86 165.239 340.782 154.472C340.704 144.276 342.873 134.196 342.613 124.039C342.6 123.339 341.561 123.339 341.535 124.039V124.039Z" fill="#E3E3EB"/>
<path d="M345.872 129.513C347.985 146.62 348.087 163.795 347.94 180.97C347.823 193.185 347.339 205.399 346.679 217.614C346.342 223.704 345.887 229.794 345.564 235.896C345.256 241.907 344.523 248.336 345.462 254.314C345.608 255.229 347.178 255.229 347.31 254.314C348.043 249.602 347.427 244.664 347.559 239.918C347.676 235.15 348.058 230.382 348.351 225.613C348.923 216.077 349.393 206.529 349.671 196.981C350.097 181.964 350.17 166.903 349.525 151.886C349.202 144.394 348.938 136.767 347.236 129.378C347.104 128.79 345.799 128.926 345.872 129.525V129.513Z" fill="#E3E3EB"/>
<path d="M355.995 122.003C356.982 132.822 357.956 143.498 358.008 154.382C358.047 164.747 358.008 175.163 357.632 185.528C357.216 196.684 355.982 207.775 355.527 218.931C355.059 230.256 355.306 241.814 355.904 253.139C355.969 254.332 357.71 254.332 357.762 253.139C358.294 241.762 357.047 230.334 357.515 218.931C357.982 207.568 359.256 196.256 359.645 184.892C360.009 174.346 360.048 163.735 359.944 153.188C359.853 142.837 359.762 131.953 357.242 121.861C357.073 121.199 355.943 121.316 356.008 122.029L355.995 122.003Z" fill="#E3E3EB"/>
<path d="M362.179 115.789C364.413 122.82 365.777 130.24 366.947 137.504C368.389 146.442 369.246 155.38 368.817 164.447C367.947 183.075 368.155 201.742 367.142 220.37C366.557 231.202 365.037 242.293 365.622 253.125C365.686 254.319 367.414 254.319 367.466 253.125C368.493 233.459 369.688 213.755 369.948 194.063C370.182 176.499 371.857 158.792 369.233 141.357C367.934 132.692 366.388 123.715 363.153 115.516C362.919 114.907 361.945 115.14 362.153 115.789H362.179Z" fill="#E3E3EB"/>
<path d="M368.029 119.772C369.492 123.957 371.797 127.813 373.053 132.072C374.257 136.16 375.112 140.358 375.889 144.544C377.728 154.47 378.091 164.628 377.922 174.689C377.637 192.154 375.488 209.546 374.75 226.999C374.348 236.411 373.286 245.738 372.535 255.125C372.457 256.116 374.245 256.361 374.387 255.358C376.666 240.45 376.433 225.335 377.637 210.342C379.295 189.462 381.652 168.104 378.298 147.261C377.508 142.377 376.433 137.531 375.073 132.757C373.714 127.996 371.227 123.823 369.207 119.307C368.922 118.67 367.808 119.123 368.029 119.772Z" fill="#E3E3EB"/>
<path d="M379.016 246.666H308.693V256H379.016V246.666Z" fill="#454654"/>
<path d="M313.889 248.754H308.394V254.514H313.928C313.915 252.594 313.889 250.674 313.889 248.754Z" fill="#765255"/>
<path d="M323.841 248.754H315.786C315.786 250.674 315.812 252.594 315.825 254.514H323.893C323.854 252.594 323.815 250.674 323.841 248.754V248.754Z" fill="#765255"/>
<path d="M362.594 248.754H325.75C325.737 250.674 325.763 252.594 325.802 254.514H362.543C362.569 252.594 362.594 250.674 362.594 248.754V248.754Z" fill="#765255"/>
<path d="M372.52 248.754H364.504C364.504 250.674 364.478 252.594 364.452 254.514H372.481C372.494 252.594 372.507 250.674 372.52 248.754Z" fill="#765255"/>
<path d="M374.43 248.754C374.43 250.674 374.417 252.594 374.391 254.514H379.276V248.754H374.43Z" fill="#765255"/>
<path d="M350.227 248.184H341.314C340.301 248.184 339.47 249.014 339.47 250.026V253.243C339.47 254.255 340.301 255.085 341.314 255.085H350.227C351.24 255.085 352.071 254.255 352.071 253.243V250.026C352.071 249.014 351.24 248.184 350.227 248.184ZM350.291 252.257C350.291 253.191 349.902 253.956 348.888 253.956H342.665C341.652 253.956 341.119 253.191 341.119 252.257V251.012C341.119 250.078 341.652 249.312 342.665 249.312H348.888C349.902 249.312 350.291 250.078 350.291 251.012V252.257Z" fill="#FDC074"/>
<path d="M351.188 250.947H348.525C348.187 250.947 347.901 251.233 347.901 251.57C347.901 251.907 348.187 252.193 348.525 252.193H351.188C351.526 252.193 351.812 251.907 351.812 251.57C351.812 251.233 351.526 250.947 351.188 250.947Z" fill="#FFD495"/>
<path d="M348.577 138.517C348.577 139.192 348.031 139.723 347.368 139.723C346.706 139.723 346.16 139.179 346.16 138.517C346.16 137.855 346.706 137.311 347.368 137.311C348.031 137.311 348.577 137.855 348.577 138.517Z" fill="#4B5C73"/>
<path d="M348.577 154.835C348.577 155.51 348.031 156.042 347.368 156.042C346.706 156.042 346.16 155.497 346.16 154.835C346.16 154.174 346.706 153.629 347.368 153.629C348.031 153.629 348.577 154.174 348.577 154.835Z" fill="#4B5C73"/>
<path d="M348.577 170.273C348.577 170.947 348.031 171.479 347.368 171.479C346.706 171.479 346.16 170.934 346.16 170.273C346.16 169.611 346.706 169.066 347.368 169.066C348.031 169.066 348.577 169.611 348.577 170.273Z" fill="#4B5C73"/>
<path d="M344.133 134.521C344.133 139.243 342.925 143.329 341.535 147.831C340.145 152.332 338.56 156.574 336.352 160.764C334.273 164.695 332.545 166.563 330.284 170.389C329.011 172.543 326.621 174.359 326.881 176.811C327.115 179.042 327.452 186.319 328.881 188.187C331.376 187.318 333.545 185.904 335.923 184.646C337.287 183.919 339.132 182.518 340.34 181.52C341.6 180.482 342.211 178.069 342.795 176.447C344.004 173.075 344.432 170.376 345.342 166.913C348.707 154.161 350.603 137.868 349.837 133.717C349.525 132.018 348.616 133.315 346.901 133.419C345.939 133.484 344.952 133.665 344.146 134.171C344.12 134.353 344.095 134.573 344.12 134.521H344.133Z" fill="#7F6492"/>
<path d="M325.75 120.705C325.789 122.015 323.633 148.388 338.378 158.662C338.404 158.688 338.69 158.779 338.755 158.791C338.794 158.791 338.937 158.389 338.911 158.376C336.936 157.144 334.247 152.915 331.688 146.844C326.673 134.962 329.05 119.875 329.037 119.875C329.037 119.875 325.75 120.679 325.75 120.705Z" fill="#19518A"/>
<path d="M331.669 159.725L327.795 175.592C327.714 175.926 327.919 176.263 328.254 176.345L339.626 179.113C339.961 179.194 340.298 178.989 340.38 178.655L344.253 162.788C344.335 162.454 344.13 162.117 343.795 162.036L332.423 159.268C332.088 159.186 331.751 159.391 331.669 159.725Z" fill="white"/>
<path d="M340.243 173.235L330.436 170.848L330.328 171.289L340.135 173.676L340.243 173.235Z" fill="#2568B1"/>
<path d="M338.745 174.075L331.374 172.281L330.844 174.449L338.216 176.243L338.745 174.075Z" fill="#352D30"/>
<path d="M341.94 163.046L333.622 161.021L331.41 170.083L339.728 172.108L341.94 163.046Z" fill="#A0C8EB"/>
<path opacity="0.5" d="M344.017 161.165L340.132 160.218C340.34 159.362 339.703 158.467 338.716 158.221C337.729 157.974 336.741 158.48 336.533 159.349L332.649 158.402C331.83 158.208 330.999 158.701 330.804 159.531L326.933 175.383C326.738 176.2 327.231 177.03 328.063 177.225L339.431 179.988C340.249 180.182 341.08 179.69 341.275 178.859L345.147 163.007C345.342 162.19 344.848 161.36 344.017 161.165V161.165ZM338.612 158.649C338.872 158.714 339.028 158.973 338.963 159.219C338.898 159.479 338.638 159.635 338.391 159.57C338.131 159.505 337.975 159.245 338.04 158.999C338.105 158.739 338.365 158.584 338.612 158.649ZM340.392 178.652C340.314 178.989 339.963 179.197 339.638 179.106L328.271 176.343C327.933 176.265 327.725 175.915 327.816 175.59L331.688 159.738C331.766 159.401 332.116 159.194 332.441 159.284L343.809 162.047C344.146 162.125 344.354 162.475 344.263 162.8L340.392 178.652Z" fill="white"/>
<path d="M363.608 119.551C363.608 119.551 361.386 129.254 350.214 146.974C347.602 151.112 343.211 155.613 338.703 158.506C338.69 158.506 338.638 158.558 338.534 158.61C338.482 158.636 338.339 158.636 338.352 158.649C338.69 158.882 339.132 158.882 339.34 158.805C339.755 158.636 341.249 157.871 341.548 157.663C344.211 155.899 356.021 148.57 366.284 120.096L363.595 119.551H363.608Z" fill="#2568B1"/>
<path opacity="0.5" d="M343.198 164.629L330.168 168.728L329.375 172.049L342.328 168.041L343.198 164.629Z" fill="white"/>
<path opacity="0.5" d="M342.289 168.586L329.258 172.698L329.063 173.632L342.016 169.637L342.289 168.586Z" fill="white"/>
<path d="M329.336 115.218L343.692 121.367L346.953 130.045L348.732 121.198L362.075 115.205L364.634 120.939L352.656 135.052L349.07 122.911L347.148 131.161L343.094 123.157L340.119 135.273L326.27 120.952L329.336 115.218Z" fill="#E3E3EB"/>
<path d="M350.707 127.374C348.486 126.271 343.705 126.517 341.886 128.58C340.574 130.059 342.354 132.809 343.029 134.495C343.211 134.975 343.419 136.169 343.913 136.415C344.536 136.739 349.343 136.117 350.123 136.078C351.396 136 351.175 132.874 351.526 130.941C352.045 128.087 351.747 127.892 350.707 127.374V127.374Z" fill="#A886BA"/>
<path d="M276.967 73.0325L305.393 77.4041L306.263 61.8505L281.969 57.0508L276.967 73.0325Z" fill="#CDCDDC"/>
<path d="M381.38 61.3319L380.497 76.5353L408 74.0706L404.622 59.918L381.38 61.3319Z" fill="#CDCDDC"/>
<path d="M350.707 90.3248C348.732 89.3908 347.251 88.6773 345.965 86.7445C345.705 86.3553 345.186 86.6926 345.368 87.0947C346.043 88.6644 347.511 89.8708 348.797 91.0772C347.901 91.8555 347.083 92.7246 346.173 93.477C344.9 94.5278 346.927 96.5385 347.966 95.2672C348.966 94.0348 350.149 92.9581 351.032 91.622C351.305 91.2199 351.136 90.5323 350.694 90.3248H350.707Z" fill="#F0A49F"/>
<path d="M262.702 114.104C264.3 124.468 240.461 131.876 231.276 136.221C223.13 140.061 214.647 137.051 208.047 131.616C202.954 127.426 181.817 127.102 186.117 121.537C191.21 114.973 198.979 104.543 203.084 99.3543C205.617 96.1502 209.437 81.1414 209.32 79.0918C211.827 81.6992 218.739 83.8915 222 85.4352C225.975 87.3032 235.264 86.6935 240.734 85.4352C241.045 87.874 242.747 93.6336 246.034 97.6161C254.505 107.838 262.04 109.784 262.702 114.104V114.104Z" fill="#FFCCCC"/>
<path d="M238.005 56.5589C238.967 61.0213 238.525 64.5108 238.681 68.7527C238.915 74.8107 239.409 79.4548 240.734 85.4479C233.549 87.757 225.65 88.2499 221.233 86.6673C217.83 85.4479 211.814 82.3735 209.32 79.0915C209.034 74.1362 208.982 64.5368 207.787 59.8668C210.307 56.4032 217.687 55.2357 222.182 53.9255C227.625 52.3429 233.536 53.251 238.005 56.5459V56.5589Z" fill="#F0A49F"/>
<path d="M237.304 54.8335C237.642 55.3524 237.876 55.9232 238.005 56.5458C233.536 53.2509 227.612 52.3558 222.182 53.9254C217.687 55.2227 213.231 60.8007 210.71 64.2643C210.191 62.2276 209.684 57.1296 209.32 55.1967C211.438 52.3688 219.077 51.0586 222.766 51.0586C226.807 51.0586 234.991 51.3699 237.317 54.8335H237.304Z" fill="#FFDBC6"/>
<path d="M249.88 50.3589C248.529 48.5558 246.255 47.4532 244.475 49.4898C249.386 42.2254 246.19 36.3101 242.332 30.9655C237.356 24.0903 225.183 24.6611 217.401 25.8675C211.308 26.8144 205.137 29.5126 202.733 34.8961C200.668 39.5401 198.732 45.0403 203.24 50.5016C200.07 48.0758 196.186 51.0854 196.51 55.6645C196.783 59.4524 201.876 66.6909 204.929 62.7344C205.449 68.3383 207.202 72.2559 209.983 74.552C216.79 80.156 220.025 81.9591 225.3 81.9591C230.042 81.9591 235.394 78.2361 240.552 73.0991C242.682 70.9717 243.176 66.2369 243.488 62.7863C247.294 64.8877 249.698 61.3334 250.646 58.3887C251.413 56.0018 251.374 52.3307 249.88 50.3459V50.3589Z" fill="#FFCCCC"/>
<path d="M198.719 56.3636C198.953 55.689 198.927 53.7821 199.823 53.6264C200.616 53.4837 201.382 54.7291 201.733 55.2739C202.149 55.9355 202.486 56.6619 202.681 57.4273C202.785 57.8165 202.889 58.5169 202.331 58.3743C201.941 58.2705 201.733 57.9073 201.291 57.8294C200.915 57.7646 200.564 57.9202 200.434 58.3094C199.849 60.1385 202.668 60.8909 203.734 59.6974C204.929 58.3483 203.734 56.2857 202.98 55.0404C202.331 53.9767 201.226 52.3681 199.797 52.5108C198.03 52.6795 197.745 55.0404 198.16 56.3765C198.251 56.6619 198.641 56.649 198.732 56.3765L198.719 56.3636Z" fill="#F0A49F"/>
<path d="M249.412 54.5222C249.789 53.2121 248.866 51.4478 247.346 51.7073C246.58 51.837 246.047 52.4078 245.644 53.0304C245.06 53.9255 244.449 54.9763 244.15 56.0011C243.774 57.3242 244.488 59.8927 246.307 59.4387C247.619 59.1144 248.464 57.2853 247.892 56.1048C247.632 55.573 246.749 55.8324 246.788 56.4032C246.814 56.8702 246.619 57.7912 246.138 58.0118C245.618 58.2582 245.411 57.4669 245.333 57.0259C245.203 56.3124 245.476 55.7027 245.774 55.0671C246.099 54.3536 246.45 53.3807 247.061 52.8618C248.321 51.7721 248.723 53.692 248.918 54.5222C248.983 54.7687 249.347 54.7557 249.412 54.5222Z" fill="#F0A49F"/>
<path d="M288.088 164.396C287.659 136.052 268.938 121.951 268.938 121.951C258.61 114.103 249.308 103.103 249.308 103.103C245.229 97.2391 243.358 91.6351 243.358 91.6351L224.533 91.3887L205.462 91.9984C205.462 91.9984 203.838 97.2262 199.758 103.103C199.758 103.103 190.456 114.09 180.128 121.951C180.128 121.951 169.397 131.602 168.968 159.934L187.199 255.999H271.5C285.414 183.044 288.088 164.383 288.088 164.383V164.396Z" fill="#F0F0F0"/>
<path d="M221.805 99.3281C220.558 105.633 218.609 142.928 218.778 144.536C219.077 147.364 223.585 154.94 226.729 157.833C228.716 155.796 233.77 146.689 233.575 144.536C233.341 141.916 228.6 103.92 227.911 99.8211C227.729 98.7703 222.61 98.6146 221.805 99.3281Z" fill="#853342"/>
<path d="M220.415 94.7498C220.22 95.6319 220.415 96.7864 220.558 97.5777C220.688 98.2782 220.61 99.9127 220.999 100.328C221.428 100.782 222.571 101.236 222.857 101.288C223.975 101.495 225.391 101.547 226.495 101.405C227.326 101.301 227.967 101.158 228.418 100.976C229.574 100.509 229.106 98.6025 229.327 97.3572C229.431 96.7994 229.483 94.3866 228.911 93.8288C228.08 93.0115 227.534 92.9207 225.209 92.9078C223.676 92.8948 220.883 92.6483 220.402 94.7498H220.415Z" fill="#A83342"/>
<path d="M298.078 129.839C296.506 125.598 294.986 121.265 293.038 117.166C291.258 113.417 289.504 109.279 285.892 106.931C281.228 103.895 274.759 104.232 269.471 103.117C260.455 101.21 251.608 97.7333 244.267 92.0904C243.592 91.5715 243.358 91.6624 243.358 91.6624C244.176 96.3713 244.787 96.4491 245.099 103.13C245.969 122.082 226.222 156.108 226.222 156.108C226.222 156.108 202.525 123.055 203.305 105.192C203.565 99.3289 203.955 97.902 204.825 93.7379C204.825 93.7379 204.266 93.4914 203.24 95.8524C201.759 99.277 196.354 105.102 191.158 109.966C179.686 120.72 160.433 130.722 157.159 136.805C157.159 136.805 150.157 147.365 149.585 181.067C149.364 194.324 148.324 204.346 151 256.001H171L176.737 207.413L186 256.001H272.5C277.242 235.596 282.735 210.41 285.191 195.907L298.065 129.852L298.078 129.839Z" fill="#575C73"/>
<path d="M198 103.502C196.064 113.802 193.652 118.554 190.651 128.582C190.56 128.893 190.768 129.166 191.041 129.269C193.029 130.035 195.042 130.787 196.991 131.63C198.485 132.279 199.875 133.109 201.33 133.836C201.798 134.069 202.37 134.316 202.863 134.497C203.357 134.666 204.045 135.327 203.682 134.666C203.24 133.9 203.318 135.82 203.279 136.041C203.188 136.664 203.032 137.247 202.85 137.857C202.357 139.517 201.59 141.074 200.876 142.644C200.07 144.408 199.304 146.185 198.498 147.936C198.368 148.222 198.42 148.52 198.693 148.689C207.293 154.059 215.478 160.208 224.403 164.969C224.871 165.215 225.456 164.567 225.001 164.19C217.83 158.223 209.333 153.8 201.317 149C200.928 148.767 199.109 147.417 199.356 148.092C199.602 148.754 199.68 147.807 199.914 147.392C200.213 146.86 200.408 146.25 200.642 145.679C202.253 141.852 203.903 138.155 205.695 134.432C206.085 133.628 205.734 132.863 204.929 132.538C201.057 131.008 196.887 130.255 192.951 128.789C192.444 128.608 191.898 128.439 191.405 128.219C191.937 128.465 191.496 129.166 191.82 128.426C192.327 127.22 192.587 125.819 192.938 124.56C195.419 115.934 197.188 111.4 198.5 102.501C198.565 102.047 198.091 103.035 198 103.502Z" fill="#454165"/>
<path d="M250.331 96.1773C254.891 106.724 255.453 109.966 259.844 120.59C260 120.98 260.143 121.719 260.429 122.017C261.104 122.705 260.078 122.407 260.884 121.693C259.883 122.588 258.753 123.354 257.701 124.197C254.245 126.96 250.724 129.684 247.411 132.616C247.009 132.966 247.048 133.511 247.242 133.952C249.347 138.842 253.543 142.526 256.739 146.677L257.077 145.406C251.737 149 246.203 152.307 240.812 155.849C237.356 158.119 233.913 160.415 230.509 162.75C228.21 164.32 225.689 165.85 223.78 167.9C223.208 168.523 223.949 169.573 224.702 169.106C230.639 165.422 236.265 161.154 242.137 157.341C247.437 153.903 252.725 150.478 257.999 147.028C258.376 146.781 258.649 146.172 258.337 145.756C255.986 142.63 253.037 139.88 250.932 136.572C250.789 136.339 249.269 133.887 249.269 133.926C249.347 133.64 250.01 133.329 250.205 133.122C250.997 132.278 252.036 131.565 252.933 130.813C256.038 128.205 259.143 125.585 262.287 123.042C262.521 122.848 262.65 122.394 262.534 122.108C257.753 110.719 256.326 107.644 251 96.501C250.818 96.1248 250.175 95.8011 250.331 96.1773Z" fill="#454165"/>
<path d="M224.949 168.613C226.391 163.527 227.093 158.468 229.028 153.474C231.133 148.039 234.238 142.577 235.355 136.831C235.563 135.767 234.082 135.002 233.523 136.052C230.652 141.41 228.574 147.585 226.482 153.305C224.767 157.975 222.779 163.592 223.715 168.613C223.832 169.261 224.793 169.196 224.962 168.613H224.949Z" fill="#454165"/>
<path d="M248.529 49.2167C249.75 44.0797 250.581 41.1739 250.711 37.3342C250.867 32.5474 250.36 26.3857 247.489 22.4681C244.761 18.7451 242.306 16.1376 236.265 16.3582C236.265 16.3582 231.497 8.54893 214.751 12.5054C206.969 14.3475 201.551 20.4833 197.875 27.5402C195.029 33.0015 196.341 44.2613 199.498 49.7096C199.498 49.7096 202.85 48.4383 205.085 54.3018C205.085 54.3018 198.745 30.8481 216.543 26.1522L217.401 26.8527L218.349 25.7889C220.051 25.4646 221.636 25.6462 223.754 25.6592C223.754 25.6592 247.476 23.3761 243.384 52.0576C243.384 52.0576 244.215 47.9454 247.048 48.4254L248.529 49.2167V49.2167Z" fill="#A96666"/>
<path d="M201.46 47.75C207.683 48.8656 209.58 41.2899 210.515 36.8275C211.529 31.9629 212.62 29.576 216.881 26.9167C216.232 25.9179 215.79 23.8034 214.673 23.4661C211.269 22.4154 208.45 23.8942 206.241 26.5016C202.396 31.0419 200.941 37.8652 201.824 43.6768C202.045 45.0778 202.538 46.8679 201.447 47.7371L201.46 47.75Z" fill="#A96666"/>
<path d="M219.103 24.401C218.622 25.2312 218.141 26.1652 217.739 27.0214C221.688 25.4907 227.287 27.5792 229.327 31.367C230.938 34.3636 229.977 36.9581 230.782 40.1362C231.224 41.8745 233.328 43.963 235.446 43.989C234.056 42.1599 233.173 40.694 233.147 38.5147C233.121 35.9203 232.861 34.208 232.432 33.1183C233.744 34.662 233.939 35.0122 234.459 36.7116C235.381 39.6822 235.537 41.8096 237.914 44.1965C239.954 46.2461 243.228 47.0634 246.06 46.5964C247.229 46.4018 247.035 46.5964 246.944 45.5586C246.853 44.43 246.281 43.1587 246.086 42.0042C245.813 40.4865 245.567 38.9687 245.32 37.451C244.787 34.0263 244.137 30.8482 242.189 27.8905C240.11 24.7253 236.875 19.9905 233.03 18.823C228.781 17.5387 224.429 18.5635 221.324 21.6249C220.428 22.5071 219.622 23.5448 219.116 24.414L219.103 24.401Z" fill="#A96666"/>
<path d="M232.406 50.307C232.003 49.6454 231.12 49.6973 230.704 50.307C230.457 50.6702 230.405 51.228 230.379 51.6561C230.353 51.9674 230.379 52.3177 230.496 52.629C230.561 53.096 230.977 53.5111 231.471 53.4982C232.354 53.4592 232.718 52.6939 232.744 51.9156C232.757 51.3967 232.692 50.774 232.419 50.32L232.406 50.307Z" fill="#2E3640"/>
<path d="M218.219 51.8118C218.219 51.6561 218.18 51.4875 218.154 51.3318C218.154 51.3188 218.154 51.3059 218.154 51.2929C218.154 51.254 218.128 51.2021 218.115 51.1632C218.024 50.8259 217.881 50.5016 217.622 50.281C217.011 49.7881 216.271 49.9957 215.972 50.7091C215.647 51.5134 215.725 52.7328 216.387 53.3425C216.816 53.7446 217.635 53.7316 217.92 53.1479V53.122C218.193 52.7717 218.258 52.2658 218.219 51.8118V51.8118Z" fill="#2E3640"/>
<path d="M211.451 44.6237C213.841 44.0529 216.504 43.7027 218.713 45.0907C219.804 45.7782 220.805 44.04 219.713 43.3784C217.089 41.7698 213.659 42.2239 211.048 43.6638C210.515 43.9621 210.879 44.7534 211.451 44.6237V44.6237Z" fill="#A96666"/>
<path d="M236.784 43.6641C234.173 42.2112 230.743 41.7702 228.119 43.3787C227.028 44.0403 228.041 45.7786 229.119 45.091C231.315 43.703 233.991 44.0533 236.381 44.624C236.94 44.7538 237.317 43.9625 236.784 43.6641V43.6641Z" fill="#A96666"/>
<path d="M225.936 47.0772C222.74 52.6682 227.664 57.909 225.637 63.487C225.378 64.2134 226.391 64.4858 226.794 63.967C228.223 62.086 228.301 60.1921 227.56 57.9998C226.326 54.3416 225.443 51.1894 226.586 47.3366C226.703 46.9475 226.131 46.714 225.936 47.0642V47.0772Z" fill="#F0A49F"/>
<path d="M219.531 67.2607C220.012 68.5968 222.623 69.6865 223.936 69.92C225.988 70.2962 229.08 69.2973 230.223 67.4812C230.548 66.9753 229.938 66.5342 229.47 66.7288C227.729 67.4812 225.806 68.947 223.819 68.493C222.532 68.1947 221.454 67.2347 220.298 66.6639C219.934 66.4823 219.376 66.7937 219.544 67.2477L219.531 67.2607Z" fill="#F5908B"/>
<path d="M276.006 185.048C271.887 173.97 274.226 159.13 274.161 147.403C274.044 122.587 275.382 113.066 275.382 113.066C286.724 104.53 299.754 109.654 299.754 109.654C299.754 109.654 305.614 132.226 307.9 155.277C309.29 169.235 313.759 186.67 299.222 195.504C297.013 196.84 294.454 197.683 291.881 197.553C287.321 197.32 283.047 195.556 280.488 191.988C278.708 189.524 277.006 187.747 276.006 185.061V185.048Z" fill="#61647C"/>
<path d="M277.006 109.719L276.616 117.788C276.616 117.788 280.761 122.237 288.841 121.757C288.841 121.757 295.025 121.679 299.572 115.738L297.884 107.228C297.884 107.228 293.155 104.089 286.204 105.542C286.204 105.542 278.149 106.878 277.006 109.732V109.719Z" fill="white"/>
<path d="M293.544 100.846C293.272 100.327 293.31 100.054 293.31 99.9375C293.739 95.5529 294.869 92.1412 295.311 87.7826C295.584 85.1492 297.546 79.8306 295.87 77.9626C293.323 75.1347 290.738 71.749 286.958 69.7512L286.165 69.5177C281.202 68.6486 269.939 71.0744 270.822 73.0073C271.225 73.9153 271.498 74.2007 272.407 75.3552C272.173 75.4979 272.316 75.4071 272.147 75.5757C270.575 77.0546 269.744 77.3529 273.303 81.4132C272.979 81.2057 270.03 84.2152 270.017 86.2389C269.991 89.3522 276.266 100.288 279.76 101.157L280.488 112.585C287.568 116.179 292.089 112.715 295.129 110.99C294.142 103.518 294.272 102.234 293.544 100.846V100.846Z" fill="#FFCCCC"/>
<path d="M282.761 88.0156C284.671 87.7691 287.971 86.7313 288.088 84.9022C288.27 82.0484 283.164 82.0484 281.657 83.0472C281.085 83.4234 281.631 84.3574 282.19 83.9682C283.008 83.2678 283.996 82.9564 285.139 83.0083C286.217 83.2418 286.815 83.8904 286.906 84.9541C286.763 85.4471 285.334 86.0438 284.918 86.2903C282.021 88.0285 279.448 87.9507 278.149 84.0201C276.967 80.4398 278.916 78.6626 281.774 77.08C283.346 76.2109 285.035 75.6012 286.62 74.745C286.945 74.5634 286.711 74.1094 286.373 74.1743C284.437 74.5634 282.463 75.6142 280.774 76.6001C279.474 77.3524 277.266 78.5848 276.694 80.1025C276.253 81.283 276.59 82.9434 277.123 84.3574C277.24 85.0838 277.331 85.8233 277.604 86.5367C277.967 87.5486 278.786 88.742 278.877 89.7927C279.111 92.4391 275.499 91.8683 274.252 90.7527C272.979 89.6111 272.94 88.1712 273.252 86.5886C273.355 86.0827 272.68 85.9141 272.485 86.3811C271.225 89.5852 274.512 93.8141 278.058 92.7115C279.604 92.2315 280.475 90.6619 279.929 89.1441C279.708 88.5344 279.423 87.9637 279.137 87.3799C279.916 87.8858 280.865 88.0545 281.943 88.0545C280.813 89.3906 280.345 91.5051 280.15 93.1655C279.942 95.0984 280.475 97.576 281.813 99.0289C282.398 99.6646 283.229 98.8603 282.93 98.1728C282.125 96.3826 281.241 95.254 281.215 93.1655C281.202 91.3364 281.592 89.5463 282.722 88.0674C282.748 88.0415 282.748 88.0156 282.761 87.9896V88.0156Z" fill="#F0A49F"/>
<path d="M275.369 81.6211C272.238 76.3544 281.137 73.9675 284.801 73.2929C285.139 73.2281 284.996 72.7351 284.658 72.787C281.02 73.2929 270.082 76.4192 274.927 81.9713C275.135 82.2178 275.525 81.9065 275.369 81.634V81.6211Z" fill="#F0A49F"/>
<path d="M203.305 105.594C206.488 116.724 214.4 140.593 226.196 149.855C226.222 149.881 226.521 149.894 226.599 149.894C226.638 149.894 226.69 149.466 226.651 149.453C224.442 148.726 220.064 140.865 217.531 134.781C212.009 121.498 205.358 101.599 204.045 97.668C204.045 97.668 203.708 99.3414 203.513 101.988C203.422 103.259 203.318 105.607 203.318 105.607L203.305 105.594Z" fill="#19518A"/>
<path d="M232.276 151.867H220.571C220.226 151.867 219.947 152.146 219.947 152.49V168.822C219.947 169.166 220.226 169.444 220.571 169.444H232.276C232.621 169.444 232.9 169.166 232.9 168.822V152.49C232.9 152.146 232.621 151.867 232.276 151.867Z" fill="white"/>
<path d="M231.471 163.594H221.376V164.048H231.471V163.594Z" fill="#2568B1"/>
<path d="M230.21 164.748H222.623V166.979H230.21V164.748Z" fill="#352D30"/>
<path d="M230.704 153.293H222.143V162.62H230.704V153.293Z" fill="#A0C8EB"/>
<path opacity="0.5" d="M232.263 150.958H228.262C228.262 150.076 227.43 149.35 226.404 149.35C225.378 149.35 224.546 150.063 224.546 150.958H220.545C219.7 150.958 219.012 151.646 219.012 152.489V168.808C219.012 169.651 219.7 170.339 220.545 170.339H232.237C233.082 170.339 233.77 169.651 233.77 168.808V152.489C233.77 151.646 233.082 150.958 232.237 150.958H232.263ZM226.417 149.791C226.677 149.791 226.898 149.998 226.898 150.271C226.898 150.543 226.69 150.751 226.417 150.751C226.144 150.751 225.936 150.543 225.936 150.271C225.936 149.998 226.144 149.791 226.417 149.791ZM232.9 168.808C232.9 169.158 232.614 169.431 232.276 169.431H220.584C220.233 169.431 219.96 169.145 219.96 168.808V152.489C219.96 152.139 220.246 151.866 220.584 151.866H232.276C232.627 151.866 232.9 152.152 232.9 152.489V168.808Z" fill="white"/>
<path d="M243.566 92.7903C243.566 92.7903 240.11 120.162 233.796 135.858C231.977 140.398 229.782 145.12 226.495 149.634C226.495 149.647 226.443 149.699 226.352 149.777C226.313 149.816 226.17 149.842 226.183 149.855C226.573 149.998 227.002 149.907 227.183 149.777C227.547 149.518 228.431 148.882 228.652 148.584C238.694 135.326 241.487 122.198 245.086 102.857C245.086 102.857 244.891 99.3023 244.605 97.6419C244.215 95.3718 243.566 92.7773 243.566 92.7773V92.7903Z" fill="#2568B1"/>
<path opacity="0.5" d="M232.289 154.512L220.61 161.582L220.623 164.993L232.263 158.04L232.289 154.512Z" fill="white"/>
<path opacity="0.5" d="M232.354 158.586L220.662 165.656L220.701 166.603L232.341 159.663L232.354 158.586Z" fill="white"/>
<path d="M208.138 84.1757L224.507 90.7656L240.734 83.8125L243.735 91.3104L230.756 103.115L224.533 92.413L219.83 103.089L204.435 93.4638L208.138 84.1757Z" fill="white"/>
<path d="M171.671 111.794C169.384 105.036 166.448 95.0081 166.448 95.0081C166.448 95.0081 161.563 92.6602 159.342 90.9349C156.237 88.535 154.34 88.7945 155.769 82.5808C152.768 77.3011 151.962 76.1077 157.003 73.0981C159.666 71.5026 169.644 67.5201 170.696 68.6357C174.386 72.5403 175.425 75.2256 176.425 79.5323C177.114 82.5289 178.01 88.7426 178.01 88.7426C179.92 92.6991 183.675 102.493 185.338 106.281C188.391 113.26 172.892 115.361 171.684 111.768L171.671 111.794Z" fill="#FFDBC6"/>
<path d="M172.944 78.17C172.619 76.782 171.774 75.381 170.254 75.1475C170.021 75.1086 169.865 75.1734 169.722 75.368C169.371 75.848 169.033 76.4447 168.799 76.9895C168.449 77.8197 169.657 78.3257 169.943 77.4695C170.021 77.249 170.254 76.0426 170.462 76.0036C170.969 75.8869 171.58 77.5084 171.684 77.8587C171.865 78.4554 171.891 78.8186 171.398 79.2596C170.891 79.7266 169.657 80.3104 168.994 80.1677C167.851 79.9342 167.084 78.0403 166.578 77.0544C165.811 75.5756 165.331 74.0059 164.655 72.5011C164.434 72.0082 163.785 72.3974 163.85 72.8384C164.2 75.1086 165.175 77.3527 166.357 79.3245C166.721 79.9212 167.097 80.4531 167.526 80.8552C167.513 80.8941 167.487 80.9201 167.461 80.959C167.357 81.1147 167.24 81.2703 167.097 81.3871C166.747 81.6984 166.292 81.9189 165.889 82.1524C165.785 82.2173 165.681 82.2692 165.564 82.3341C165.629 81.5168 165.396 80.7644 164.733 80.2715C164.317 79.9731 163.785 79.9472 163.226 80.038C163.044 79.5061 162.667 78.9483 162.498 78.5332C161.927 77.1452 161.407 75.6793 161.29 74.1746C161.238 73.5519 160.277 73.5389 160.316 74.1746C160.407 75.7701 160.875 77.3398 161.42 78.8316C161.563 79.2337 161.732 79.8693 161.979 80.3882C161.563 80.5309 161.173 80.6736 160.862 80.7514C160.472 80.8423 160.082 80.946 159.705 81.0498C159.549 80.5828 159.29 80.0899 159.16 79.7007C158.679 78.3127 158.276 76.8857 157.796 75.4977C157.601 74.9269 156.795 75.1604 156.899 75.7442C157.146 77.236 157.666 78.7148 158.159 80.1418C158.276 80.492 158.38 80.959 158.536 81.3741C157.77 81.6076 157.029 81.8671 156.289 82.2303C155.691 82.5157 156.12 83.4626 156.73 83.281C158.38 82.827 160.004 82.3211 161.654 81.88C162.706 81.5946 164.252 80.8941 163.915 82.7232C163.681 83.9815 162.537 84.8247 161.342 85.1101C160.693 85.2658 160.797 86.1349 161.342 86.3295C162.434 86.7316 163.616 86.0311 164.46 84.9804C165.941 84.6431 167.747 83.8907 168.293 85.7068C168.54 86.4981 168.579 87.3673 168.553 88.1975C168.54 88.9888 168.254 89.7801 168.306 90.5714C168.332 91.0513 168.955 91.4016 169.319 90.9865C170.553 89.5985 170.189 86.2127 169.371 84.682C168.488 83.0086 166.955 83.2291 165.461 83.6442C165.98 83.4497 166.487 83.2291 166.981 82.9567C167.604 82.6065 168.553 82.1914 168.955 81.5168C169.358 81.5557 169.8 81.4909 170.306 81.2963C171.658 80.7904 173.307 79.8175 172.931 78.2089L172.944 78.17Z" fill="#F0A49F"/>
<path d="M181.089 91.7786L164.824 98.4722C167.734 108.279 169.956 125.325 167.669 129.229C164.317 134.95 159.186 134.366 150.949 135.663C144.427 136.688 137.256 137.856 127.876 137.026L130.721 142.915C131.423 143.823 131.436 145.276 131.67 146.534C132.748 152.501 133.735 158.559 135.32 164.449C137.321 171.869 139.412 174.788 149.247 174.982C157.497 175.151 181.531 174.346 192.821 150.374C196.913 141.67 201.343 122.86 181.102 91.7656L181.089 91.7786Z" fill="white"/>
<path d="M101.412 60.8781C99.7622 56.5714 96.6053 56.3119 92.8377 55.806C86.9396 55.0147 79.7422 57.661 75.8708 61.6435C66.4259 71.3856 66.9196 84.5134 70.869 96.7202C72.9347 103.077 77.2868 109.965 73.987 116.49C72.454 119.512 69.1671 120.057 66.1011 120.122C70.0765 124.52 79.4954 124.584 84.0424 122.47C94.3318 117.709 97.4367 103.738 99.6973 93.0232C101.217 85.7847 98.554 78.9484 99.1127 71.5931C99.3725 68.1815 101.737 64.8606 101.425 60.8652L101.412 60.8781Z" fill="#232020"/>
<path d="M134.528 148.816C136.022 158.454 120.51 172.27 111.961 176.304C104.387 179.884 96.5013 177.082 90.3563 172.023C85.6274 168.132 77.9104 159.739 77.1829 153.253C76.3644 145.91 85.1337 143.511 88.9532 138.685C91.3177 135.714 94.5916 132.38 95.1892 128.657C95.488 126.725 95.553 124.805 95.449 122.885C97.7745 125.311 100.295 127.646 103.335 129.085C107.025 130.824 113.624 132.251 118.717 131.083C119.289 132.108 120.912 134.858 121.926 136.103C125.122 140.047 133.904 144.808 134.528 148.816V148.816Z" fill="#FFDBC6"/>
<path d="M118.21 105.114C119.107 109.265 115.625 115.751 115.768 119.695C115.989 125.325 116.664 127.413 118.704 131.072C113.611 132.239 106.817 131.409 103.127 129.671C100.087 128.231 97.7615 125.922 95.436 122.873C95.1762 118.255 93.929 113.728 92.8247 109.395C95.1632 106.178 99.3075 103.882 103.491 102.663C108.545 101.197 114.053 102.027 118.21 105.101V105.114Z" fill="#F0A49F"/>
<path d="M117.561 103.518C117.885 103.998 118.093 104.53 118.21 105.114C114.053 102.052 108.545 101.209 103.491 102.675C99.3205 103.881 95.1632 106.177 92.8247 109.407C92.344 107.514 91.8763 105.671 91.5256 103.868C93.4873 101.235 100.594 100.029 104.023 100.016C107.778 100.016 115.391 100.301 117.548 103.518H117.561Z" fill="#FFDBC6"/>
<path d="M129.5 92.5307C128.175 90.8183 125.979 89.8065 124.303 91.7912C124.927 83.3593 123.563 77.5348 119.769 72.4627C114.884 65.9377 105.803 64.7443 98.3592 66.0285C92.5259 67.0403 88.2777 71.7882 86.0561 77.003C84.1464 81.4913 84.731 84.916 84.5621 89.0022C84.5621 90.4421 84.6141 91.9339 84.718 93.4257C81.639 91.1556 77.9494 94.1003 78.3392 98.4979C78.6639 102.13 83.6787 107.604 86.5368 103.752C88.8753 111.457 93.6302 117.995 102.477 119.72C113.962 121.952 120.9 112.728 123.563 103.168C127.252 105.127 129.513 101.676 130.357 98.8351C131.046 96.5391 130.955 94.4116 129.487 92.5307H129.5Z" fill="#FFDBC6"/>
<path d="M80.4958 98.6797C80.7426 97.9922 80.6387 96.5263 81.3532 96.1501C82.0937 95.748 82.9642 97.0712 83.3019 97.5901C83.7307 98.2387 84.1334 99.004 84.2763 99.7564C84.3802 100.262 84.3802 100.639 83.8476 100.366C83.4708 100.172 83.237 99.964 82.7823 99.951C82.4445 99.938 82.2106 100.184 82.0937 100.483C81.3662 102.286 84.3413 103.012 85.3676 101.845C86.5498 100.483 85.3026 98.4462 84.5231 97.2268C83.8606 96.1891 82.6913 94.6194 81.2623 94.9308C79.6773 95.268 79.4434 97.4344 79.8852 98.6927C79.9891 98.9911 80.3788 98.9781 80.4828 98.6927L80.4958 98.6797Z" fill="#F0A49F"/>
<path d="M129.149 96.0717C129.526 94.8004 128.565 93.1011 127.096 93.3605C126.343 93.4902 125.836 94.061 125.447 94.6707C124.901 95.5398 124.329 96.5646 124.056 97.5505C123.693 98.8607 124.446 101.351 126.226 100.897C127.499 100.56 128.344 98.7439 127.733 97.6024C127.447 97.0705 126.551 97.304 126.577 97.9137C126.59 98.3029 126.447 99.2758 126.005 99.4315C125.55 99.6001 125.382 98.9645 125.304 98.5494C125.174 97.8748 125.395 97.304 125.667 96.6943C125.979 96.0068 126.278 95.0728 126.85 94.5539C128.006 93.4902 128.409 95.3323 128.629 96.0846C128.707 96.3441 129.071 96.3441 129.149 96.0846V96.0717Z" fill="#F0A49F"/>
<path d="M87.4462 63.8748C81.9378 67.6756 76.5463 73.6947 77.1309 80.8164C77.4817 85.0453 77.9234 88.2495 80.197 91.7779C81.9248 94.4501 85.7054 96.9019 89.1741 96.9667C86.4069 92.8157 88.4596 87.3025 90.6682 84.0465C94.1239 78.9484 96.1766 77.8977 100.918 74.1487C100.503 76.9118 100.672 78.1571 99.0997 80.5829C97.8915 82.4509 94.8255 85.3048 91.4866 87.1338C95.9297 87.4452 97.6966 87.056 101.295 84.1503C107.986 78.7409 106.492 73.552 106.492 73.552C107.661 74.1747 108.35 74.486 108.635 74.6417C112.182 76.5226 115.755 79.143 118.457 82.1266C121.406 85.3956 122.978 89.2094 122.42 93.581C128.513 91.0644 130.786 83.8649 129.864 77.8328C128.772 70.7111 124.966 63.6802 118.717 59.8404C110.324 54.6775 94.4877 55.352 87.4462 63.8748V63.8748Z" fill="#352D30"/>
<path d="M145.066 256C147.041 229.628 151.651 206.452 151.001 192.857C150.156 175.15 146.87 146.65 123.81 134.69C123.81 134.69 114.534 133.911 109.259 134.78L107.466 140.41L104.66 135.234L88.7714 137.725C84.2763 140.825 68.9722 149.984 63.7366 163.475C57.059 180.715 78.2337 237.515 79.0002 256H145.066Z" fill="#E3E0E3"/>
<path d="M142.271 195.139L137.23 195.84L135.164 192.869L125.901 194.257L123.121 197.889L83.0291 203.623L74.2988 244.628L127.473 243.681L142.271 195.139Z" fill="#FFA476"/>
<path d="M138.386 194.66L77.2479 203.39L75.8448 243.695L125.369 241.269L138.386 194.66Z" fill="#C4BDB8"/>
<path d="M73.1685 202.495L136.84 193.57L124.329 241.438L80.8205 243.111L73.1685 202.495Z" fill="#D9DAC8"/>
<path d="M69.6218 199.044L76.8581 240.412L125.122 239.724L129.916 188.848L69.6218 199.044Z" fill="#EEEED2"/>
<path d="M123.706 193.31L119.496 193.933L116.443 190.002L106.778 191.468L105.089 196.06L66.1011 201.82L74.2988 244.628L127.473 243.681L123.706 193.31Z" fill="#FDC074"/>
<path d="M127.642 194.089L125.122 194.374C125.2 193.35 125.239 192.39 125.265 191.521L127.876 191.105C127.798 192.999 127.642 194.089 127.642 194.089V194.089Z" fill="white"/>
<path d="M127.876 191.105L125.265 191.521C125.343 188.498 125.174 186.5 125.174 186.5L127.889 186.072C127.967 188.07 127.941 189.782 127.889 191.105H127.876Z" fill="#EE4A66"/>
<path d="M114.391 206.062L106.05 207.139L109.363 236.002L117.548 236.21L114.391 206.062Z" fill="white"/>
<path d="M106.362 228.907L104.556 214.17C104.543 214.041 104.413 213.924 104.257 213.924L98.8658 214.572C98.7229 214.572 98.619 214.689 98.632 214.819L100.399 229.257C100.412 229.387 100.542 229.503 100.698 229.503L106.128 229.153C106.271 229.153 106.375 229.036 106.362 228.907Z" fill="white"/>
<path d="M100.828 228.713L99.1386 215.273C99.1127 215.079 99.2685 214.923 99.4764 214.91L103.738 214.404C103.946 214.404 104.14 214.56 104.166 214.755L105.803 228.427C105.829 228.622 105.673 228.777 105.466 228.79L101.256 229.076C101.048 229.076 100.854 228.92 100.828 228.726V228.713ZM103.92 214.755C103.92 214.677 103.842 214.612 103.751 214.625L99.4894 215.131C99.4115 215.131 99.3465 215.196 99.3595 215.273L101.048 228.713C101.048 228.79 101.126 228.855 101.217 228.842L105.427 228.557C105.504 228.557 105.569 228.492 105.556 228.414L103.92 214.742V214.755Z" fill="#EE4A66"/>
<path d="M121.354 251.049C127.122 251.607 132.67 248.403 136.658 244.434C139.257 241.839 132.67 243.941 131.864 244.148C129.266 244.81 126.551 245.523 123.991 246.328C123.108 246.613 121.016 247.197 120.536 248.053C120.159 248.727 120.887 250.621 121.354 251.049V251.049Z" fill="#FFDBC6"/>
<path d="M120.51 245.55C122.562 245.134 124.55 243.552 126.304 242.514C127.759 241.658 129.318 240.918 130.734 239.984C132.306 238.947 133.293 237.04 134.969 236.171C137.607 234.796 134.216 240.426 133.852 241.022C132.748 242.838 131.267 244.434 129.63 245.796C128.409 246.808 125.667 248.909 123.953 248.741C122.653 248.611 122.303 247.171 121.497 246.393C121.172 246.068 120.77 245.939 120.523 245.562L120.51 245.55Z" fill="#FFDBC6"/>
<path d="M105.063 236.885C106.414 237.118 109.285 239.972 110.636 239.609C112.026 239.233 112.494 238.013 113.455 237.066C114.845 235.704 116.781 234.952 118.548 234.212C119.47 233.823 121.796 232.967 122.42 233.175C125.408 234.199 118.418 238.013 118.639 239.427C118.977 240.348 120.263 240.698 121.029 240.53C122.809 240.128 124.147 239.674 125.875 239.142C127.213 238.727 128.396 237.754 129.305 236.755C130.111 235.873 130.786 234.472 131.825 233.862C132.228 233.629 132.618 233.616 132.683 234.16C132.865 235.769 132.605 237.416 131.734 238.804C130.89 240.154 129.682 241.243 128.539 242.346C127.382 243.449 126.057 244.266 124.576 244.979C124.576 244.979 126.395 245.991 126.291 248.08C126.291 248.08 127.447 248.897 126.642 250.557C126.642 250.557 116.664 253.917 95.8388 246.73" fill="#FFDBC6"/>
<path d="M72.2851 207.062C67.738 198.422 76.6762 169.261 77.1699 158.182C77.2868 155.614 77.2349 145.885 77.2349 145.885C70.4013 149.66 58.4751 157.689 47.5751 174.968C41.7159 184.243 34.5836 200.926 37.8055 214.936C45.6784 249.195 100.386 252.775 100.386 252.775L111.169 235.471C111.169 235.471 77.1309 216.285 72.2851 207.062V207.062Z" fill="white"/>
<path d="M113.04 92.2065C112.611 91.5189 111.701 91.5838 111.273 92.2065C111.013 92.5827 110.961 93.1664 110.935 93.6075C110.909 93.9318 110.935 94.295 111.052 94.6193C111.117 95.1122 111.559 95.5403 112.065 95.5144C112.988 95.4754 113.351 94.6712 113.377 93.8669C113.39 93.335 113.325 92.6735 113.04 92.2065V92.2065Z" fill="#2E3640"/>
<path d="M100.178 93.7761C100.178 93.6204 100.139 93.4388 100.113 93.2702C100.113 93.2572 100.113 93.2443 100.113 93.2183C100.113 93.1794 100.087 93.1275 100.074 93.0756C99.9831 92.7254 99.8402 92.3881 99.5674 92.1676C98.9308 91.6487 98.1643 91.8692 97.8525 92.6216C97.5147 93.4518 97.6056 94.7231 98.2812 95.3587C98.7229 95.7738 99.5803 95.7609 99.8791 95.1512V95.1252C100.165 94.762 100.23 94.2431 100.191 93.7631L100.178 93.7761Z" fill="#2E3640"/>
<path d="M107.375 92.2959C107.063 93.8136 107.245 95.4351 108.064 96.7713C108.337 97.2123 109.532 98.1593 109.454 98.6782C109.376 99.3138 108.272 99.9884 107.986 100.65C107.843 100.974 108.168 101.48 108.545 101.208C109.376 100.598 110.961 99.3917 110.571 98.1723C110.311 97.355 109.233 96.7972 108.817 96.0448C108.168 94.8773 108.194 93.5801 107.921 92.3089C107.869 92.0494 107.427 92.0364 107.375 92.3089V92.2959Z" fill="#F0A49F"/>
<path d="M96.1246 85.823C96.982 85.9657 97.8135 86.1862 98.6449 86.4586C99.4115 86.7051 100.165 87.0424 100.97 87.0553C101.425 87.0553 101.776 86.3938 101.373 86.0824C100.022 85.0317 97.9694 84.6555 96.2935 84.5387C95.5789 84.4868 95.3971 85.6933 96.1246 85.81V85.823Z" fill="#352D30"/>
<path d="M109.857 87.0305C111.247 86.1484 112.793 85.5906 114.183 86.8359C114.599 87.2121 115.17 86.7451 114.936 86.2521C113.884 83.969 110.545 84.2933 109.103 86.0576C108.687 86.5635 109.22 87.4456 109.857 87.0305V87.0305Z" fill="#352D30"/>
<path d="M104.673 104.115C103.504 103.298 102.581 103.129 101.906 103.791C100.737 104.958 102.023 106.943 102.802 107.981C103.66 109.122 104.907 110.303 106.115 109.057C107.128 108.02 108.194 106.709 108.467 105.295C108.752 103.817 107.544 102.87 106.388 103.518C105.972 103.752 105.362 104.582 104.686 104.102L104.673 104.115Z" fill="#F5908B"/>
<path d="M107.466 149.413C108.184 149.413 108.765 148.832 108.765 148.116C108.765 147.399 108.184 146.818 107.466 146.818C106.749 146.818 106.167 147.399 106.167 148.116C106.167 148.832 106.749 149.413 107.466 149.413Z" fill="#4B5C73"/>
<path d="M109.246 154.952C109.246 155.665 108.661 156.249 107.947 156.249C107.232 156.249 106.648 155.665 106.648 154.952C106.648 154.238 107.232 153.654 107.947 153.654C108.661 153.654 109.246 154.238 109.246 154.952Z" fill="#4B5C73"/>
<path d="M109.662 162.164C109.662 162.878 109.077 163.462 108.363 163.462C107.648 163.462 107.063 162.878 107.063 162.164C107.063 161.451 107.648 160.867 108.363 160.867C109.077 160.867 109.662 161.451 109.662 162.164Z" fill="#4B5C73"/>
<path d="M89.0052 136.481C89.395 137.778 92.5519 157.988 110.026 164.267C110.065 164.28 110.363 164.293 110.441 164.293C110.48 164.293 110.818 163.437 110.779 163.424C108.48 162.723 103.946 159.856 99.7492 154.486C91.5386 143.978 91.0839 133.549 91.0839 133.549C91.0839 133.549 89.0052 136.455 89.0182 136.481H89.0052Z" fill="#19518A"/>
<path d="M116.734 164.666L104.966 167.617C104.618 167.705 104.407 168.057 104.494 168.404L108.624 184.823C108.712 185.171 109.065 185.381 109.413 185.294L121.181 182.343C121.529 182.255 121.74 181.903 121.653 181.555L117.523 165.137C117.435 164.789 117.082 164.578 116.734 164.666Z" fill="white"/>
<path d="M118.886 176.658L108.73 179.205L108.844 179.658L119 177.111L118.886 176.658Z" fill="#2568B1"/>
<path d="M117.915 178.153L110.292 180.064L110.855 182.304L118.479 180.392L117.915 178.153Z" fill="#352D30"/>
<path d="M115.511 166.504L106.905 168.662L109.266 178.048L117.872 175.889L115.511 166.504Z" fill="#A0C8EB"/>
<path opacity="0.5" d="M116.495 163.749L112.468 164.76C112.247 163.865 111.234 163.346 110.194 163.606C109.168 163.865 108.519 164.799 108.739 165.694L104.712 166.706C103.868 166.914 103.348 167.783 103.556 168.626L107.687 185.036C107.895 185.879 108.765 186.398 109.61 186.19L121.38 183.233C122.225 183.025 122.744 182.156 122.536 181.313L118.405 164.903C118.197 164.06 117.327 163.541 116.482 163.749H116.495ZM110.311 164.047C110.571 163.982 110.844 164.138 110.909 164.41C110.974 164.67 110.818 164.942 110.545 165.007C110.285 165.072 110.013 164.916 109.948 164.644C109.883 164.384 110.039 164.112 110.311 164.047ZM121.64 181.546C121.731 181.897 121.51 182.247 121.172 182.338L109.402 185.295C109.051 185.386 108.7 185.166 108.609 184.828L104.478 168.419C104.387 168.068 104.608 167.718 104.946 167.627L116.716 164.67C117.067 164.579 117.418 164.799 117.509 165.137L121.64 181.546V181.546Z" fill="white"/>
<path d="M121.146 131.992C121.146 131.992 120.77 140.178 116.69 152.047C115.053 156.821 113.858 159.143 110.35 164.033C110.35 164.046 110.298 164.098 110.207 164.189C110.168 164.228 110.026 164.267 110.039 164.267C110.441 164.41 110.883 164.293 111.065 164.163C111.442 163.878 112.299 163.19 112.546 162.905C114.729 160.427 119.743 155.913 123.303 133.951L121.146 132.005V131.992Z" fill="#2568B1"/>
<path opacity="0.5" d="M116.989 165.668L107.063 175.695L107.947 179.107L117.846 169.209L116.989 165.668Z" fill="white"/>
<path opacity="0.5" d="M118.067 169.729L108.142 179.756L108.428 180.703L118.327 170.805L118.067 169.729Z" fill="white"/>
<path d="M92.8377 130.397L104.881 133.951L107.414 139.97L108.791 133.834L118.925 129.242L123.914 134.288L113.936 146.508L109.805 136.74L107.57 140.736L104.348 136.753L100.944 146.275L87.9009 137.064L92.8377 130.397Z" fill="white"/>
</g>
<path d="M453.997 195C441.866 195 432 204.866 432 217C432 229.134 441.866 238.997 453.997 238.997C466.127 238.997 475.997 229.134 475.997 217C475.997 204.866 466.127 195 453.997 195ZM453.997 224.611C449.8 224.611 446.389 221.193 446.389 217.003C446.389 212.813 449.8 209.392 453.997 209.392C458.193 209.392 461.608 212.81 461.608 217.003C461.608 221.197 458.197 224.611 453.997 224.611Z" fill="#DBDBDB"/>
<path d="M13.9978 85C6.27827 85 0 91.2783 0 99C0 106.722 6.27827 112.998 13.9978 112.998C21.7174 112.998 27.9978 106.722 27.9978 99C27.9978 91.2783 21.7174 85 13.9978 85ZM13.9978 103.844C11.3271 103.844 9.15645 101.669 9.15645 99.0022C9.15645 96.3358 11.3271 94.1586 13.9978 94.1586C16.6685 94.1586 18.8414 96.3336 18.8414 99.0022C18.8414 101.671 16.6707 103.844 13.9978 103.844Z" fill="#E3E3E3"/>
</g>
<defs>
<clipPath id="clip0_210_1369">
<rect width="476" height="256" fill="white"/>
</clipPath>
<clipPath id="clip1_210_1369">
<rect width="371" height="261" fill="white" transform="translate(37)"/>
</clipPath>
</defs>
</svg>
