<svg width="1000" height="1000" viewBox="0 0 1000 1000" fill="none" xmlns="http://www.w3.org/2000/svg">
<path d="M60.2526 54.7574V112.622H105.154V39.4307L60.2526 54.7574Z" fill="white" stroke="#777777" stroke-width="4" stroke-linecap="round" stroke-linejoin="round"/>
<path d="M58.4858 20.7158H27.1474V99.8589H58.4858V20.7158Z" stroke="#777777" stroke-width="4" stroke-linecap="round" stroke-linejoin="round"/>
<path d="M66.9807 33.479H18.6882V112.622H66.9807V33.479Z" fill="white" stroke="#777777" stroke-width="4" stroke-linecap="round" stroke-linejoin="round"/>
<path d="M5 112.622H118.646" stroke="#777777" stroke-width="4" stroke-linecap="round" stroke-linejoin="round"/>
<path d="M69.1937 66.4629H92.162" stroke="#777777" stroke-width="4" stroke-linecap="round" stroke-linejoin="round"/>
<path d="M69.1937 81.1802H92.162" stroke="#777777" stroke-width="4" stroke-linecap="round" stroke-linejoin="round"/>
<path d="M69.1937 95.8794H92.162" stroke="#777777" stroke-width="4" stroke-linecap="round" stroke-linejoin="round"/>
<path d="M42.8345 11V19.4073" stroke="#777777" stroke-width="4" stroke-linecap="round" stroke-linejoin="round"/>
<path d="M54.3989 45.6147H31.2343V54.2013H54.3989V45.6147Z" fill="white" stroke="#5CB531" stroke-width="4" stroke-linecap="round" stroke-linejoin="round"/>
<path d="M54.3989 67.4487H31.2343V76.0353H54.3989V67.4487Z" fill="white" stroke="#5CB531" stroke-width="4" stroke-linecap="round" stroke-linejoin="round"/>
<path d="M54.3989 89.2646H31.2343V97.8512H54.3989V89.2646Z" fill="white" stroke="#5CB531" stroke-width="4" stroke-linecap="round" stroke-linejoin="round"/>
<path fill-rule="evenodd" clip-rule="evenodd" d="M44.9167 178.292C44.5409 178.292 44.1806 178.142 43.9149 177.877C43.6583 177.62 43.5103 177.275 43.5005 176.913C43.8357 171.61 46.0936 166.61 49.8519 162.852C53.6102 159.093 58.6099 156.836 63.9131 156.5C64.275 156.51 64.6201 156.658 64.8767 156.915C65.1424 157.18 65.2917 157.541 65.2917 157.917V162.734L60.129 164.799L58.5987 162.249C58.1971 161.58 57.3492 161.33 56.649 161.675C53.1861 163.383 50.3834 166.186 48.6755 169.649C48.3302 170.349 48.5797 171.197 49.2491 171.599L51.7995 173.129L49.7344 178.292H44.9167ZM41.7936 179.998C42.6219 180.826 43.7453 181.292 44.9167 181.292H50.75C51.3634 181.292 51.9149 180.918 52.1427 180.349L55.0594 173.057C55.3328 172.373 55.0697 171.592 54.4384 171.214L52.0333 169.771C53.222 167.844 54.8445 166.222 56.7707 165.033L58.2138 167.438C58.5925 168.07 59.3735 168.333 60.0571 168.059L67.3487 165.143C67.9182 164.915 68.2917 164.363 68.2917 163.75V157.917C68.2917 156.745 67.8263 155.622 66.9981 154.793C66.1698 153.965 65.0464 153.5 63.875 153.5C63.8446 153.5 63.8143 153.501 63.784 153.503C57.7297 153.871 52.0195 156.441 47.7305 160.73C43.4416 165.019 40.8707 170.73 40.5028 176.784C40.5009 176.814 40.5 176.844 40.5 176.875C40.5 178.046 40.9653 179.17 41.7936 179.998Z" fill="#62BB46"/>
<path fill-rule="evenodd" clip-rule="evenodd" d="M18.0054 162.278C20.31 162.278 21.9905 163.992 21.9905 165.882C21.9905 167.772 20.31 169.485 18.0054 169.485C15.7008 169.485 14.0203 167.772 14.0203 165.882C14.0203 163.992 15.7008 162.278 18.0054 162.278ZM24.9905 165.882C24.9905 162.135 21.7595 159.278 18.0054 159.278C14.2513 159.278 11.0203 162.135 11.0203 165.882C11.0203 169.629 14.2513 172.485 18.0054 172.485C21.7595 172.485 24.9905 169.629 24.9905 165.882Z" fill="#62BB46"/>
<path fill-rule="evenodd" clip-rule="evenodd" d="M8.67141 157.365C13.811 152.583 22.178 152.583 27.3176 157.365L27.3187 157.366C32.3945 162.08 32.396 169.684 27.3176 174.409L19.5617 181.626C18.7114 182.417 17.2886 182.417 16.4383 181.626L8.68238 174.409C8.6325 174.363 8.58026 174.32 8.52604 174.282C3.59405 169.548 3.64251 162.044 8.67141 157.365ZM29.3606 155.168C23.0693 149.315 12.919 149.315 6.62785 155.169C0.274764 161.08 0.274763 170.704 6.62785 176.616C6.68057 176.665 6.73593 176.709 6.79347 176.749L14.3947 183.822C16.3967 185.685 19.6033 185.685 21.6052 183.822L29.3612 176.605C35.7135 170.695 35.7152 161.07 29.3606 155.168Z" fill="#62BB46"/>
<path d="M262.07 31.0801H237.07C234.861 31.0801 233.07 32.8709 233.07 35.0801V61.9101C233.07 64.1192 234.861 65.9101 237.07 65.9101H262.07C264.279 65.9101 266.07 64.1192 266.07 61.9101V35.0801C266.07 32.8709 264.279 31.0801 262.07 31.0801Z" stroke="white" stroke-width="3" stroke-linecap="round" stroke-linejoin="round"/>
<path d="M260.66 35.7402H238.49V47.0702H260.66V35.7402Z" stroke="white" stroke-width="3" stroke-linecap="round" stroke-linejoin="round"/>
<path d="M243.62 57.2301C243.62 58.7001 242.43 59.9001 240.95 59.9001C239.47 59.9001 238.28 58.7101 238.28 57.2301C238.28 55.7501 239.47 54.5601 240.95 54.5601C242.43 54.5601 243.62 55.7501 243.62 57.2301Z" stroke="white" stroke-width="3" stroke-linecap="round" stroke-linejoin="round"/>
<path d="M261.62 57.2301C261.62 58.7001 260.43 59.9001 258.95 59.9001C257.47 59.9001 256.28 58.7101 256.28 57.2301C256.28 55.7501 257.47 54.5601 258.95 54.5601C260.43 54.5601 261.62 55.7501 261.62 57.2301V57.2301Z" stroke="white" stroke-width="3" stroke-linecap="round" stroke-linejoin="round"/>
<path d="M249.34 30.5V20.5" stroke="white" stroke-width="3" stroke-linecap="round" stroke-linejoin="round"/>
<path d="M245.84 20H252.84" stroke="white" stroke-width="3" stroke-linecap="round" stroke-linejoin="round"/>
<path d="M233 80.2402L240 65.9102H258.96L265.96 80.2402" stroke="white" stroke-width="3" stroke-linecap="round" stroke-linejoin="round"/>
<path d="M236.84 73H261.84" stroke="white" stroke-width="3" stroke-linecap="round" stroke-linejoin="round"/>
<path d="M370.33 50H329V68.17H370.33V50Z" stroke="white" stroke-width="3" stroke-linecap="round" stroke-linejoin="round"/>
<path d="M361.97 30.8301H337.36C334.89 30.8301 332.76 32.5501 332.24 34.9601L329 49.9901H370.33L367.09 34.9601C366.57 32.5501 364.44 30.8301 361.97 30.8301V30.8301Z" stroke="white" stroke-width="3" stroke-linecap="round" stroke-linejoin="round"/>
<path d="M354.3 25H345.05V30.83H354.3V25Z" stroke="white" stroke-width="3" stroke-linecap="round" stroke-linejoin="round"/>
<path d="M339.88 57.9C339.88 59.51 338.57 60.82 336.96 60.82C335.35 60.82 334.04 59.51 334.04 57.9C334.04 56.29 335.35 54.98 336.96 54.98C338.57 54.98 339.88 56.29 339.88 57.9Z" stroke="white" stroke-width="3" stroke-linecap="round" stroke-linejoin="round"/>
<path d="M365.35 58.1397C365.35 59.7497 364.04 61.0597 362.43 61.0597C360.82 61.0597 359.51 59.7497 359.51 58.1397C359.51 56.5297 360.82 55.2197 362.43 55.2197C364.04 55.2197 365.35 56.5297 365.35 58.1397Z" stroke="white" stroke-width="3" stroke-linecap="round" stroke-linejoin="round"/>
<path d="M334.75 75.1699C333.53 75.1699 332.54 74.1799 332.54 72.9599V68.1699H336.96V72.9599C336.96 74.1799 335.97 75.1699 334.75 75.1699V75.1699Z" stroke="white" stroke-width="3" stroke-linecap="round" stroke-linejoin="round"/>
<path d="M365.17 75.1699C363.95 75.1699 362.96 74.1799 362.96 72.9599V68.1699H367.38V72.9599C367.38 74.1799 366.39 75.1699 365.17 75.1699V75.1699Z" stroke="white" stroke-width="3" stroke-linecap="round" stroke-linejoin="round"/>
<path opacity="0.3" fill-rule="evenodd" clip-rule="evenodd" d="M115.759 205L111.977 201.36L112.671 200.64L117.721 205.5L112.671 210.36L111.977 209.64L115.759 206H62V205H115.759Z" fill="black"/>
<path fill-rule="evenodd" clip-rule="evenodd" d="M54.5187 204.5L51.6305 201.72L53.0173 200.279L58.4422 205.5L53.0173 210.72L51.6305 209.279L54.5187 206.5H2V204.5H54.5187Z" fill="#62BB46"/>
</svg>
