<svg width="24" height="25" viewBox="0 0 24 25" fill="none" xmlns="http://www.w3.org/2000/svg">
<path d="M16.9997 9.6697C16.8123 9.48345 16.5589 9.37891 16.2947 9.37891C16.0305 9.37891 15.7771 9.48345 15.5897 9.6697L11.9997 13.2097L8.4597 9.6697C8.27234 9.48345 8.01889 9.37891 7.7547 9.37891C7.49052 9.37891 7.23707 9.48345 7.0497 9.6697C6.95598 9.76266 6.88158 9.87326 6.83081 9.99512C6.78004 10.117 6.75391 10.2477 6.75391 10.3797C6.75391 10.5117 6.78004 10.6424 6.83081 10.7643C6.88158 10.8861 6.95598 10.9967 7.0497 11.0897L11.2897 15.3297C11.3827 15.4234 11.4933 15.4978 11.6151 15.5486C11.737 15.5994 11.8677 15.6255 11.9997 15.6255C12.1317 15.6255 12.2624 15.5994 12.3843 15.5486C12.5061 15.4978 12.6167 15.4234 12.7097 15.3297L16.9997 11.0897C17.0934 10.9967 17.1678 10.8861 17.2186 10.7643C17.2694 10.6424 17.2955 10.5117 17.2955 10.3797C17.2955 10.2477 17.2694 10.117 17.2186 9.99512C17.1678 9.87326 17.0934 9.76266 16.9997 9.6697Z" fill="#000"/>
</svg>
