<svg width="24" height="24" viewBox="0 0 24 24" fill="none" xmlns="http://www.w3.org/2000/svg">
<circle cx="12" cy="12" r="12" fill="#2E62C5"/>
<path d="M14.9508 11.5358L10.7108 7.2958C10.6178 7.20207 10.5072 7.12768 10.3854 7.07691C10.2635 7.02614 10.1328 7 10.0008 7C9.86878 7 9.73807 7.02614 9.61622 7.07691C9.49436 7.12768 9.38376 7.20207 9.29079 7.2958C9.10454 7.48316 9 7.73661 9 8.0008C9 8.26498 9.10454 8.51844 9.29079 8.7058L12.8308 12.2458L9.29079 15.7858C9.10454 15.9732 9 16.2266 9 16.4908C9 16.755 9.10454 17.0084 9.29079 17.1958C9.38423 17.2885 9.49505 17.3618 9.61689 17.4116C9.73872 17.4613 9.86919 17.4866 10.0008 17.4858C10.1324 17.4866 10.2629 17.4613 10.3847 17.4116C10.5065 17.3618 10.6174 17.2885 10.7108 17.1958L14.9508 12.9558C15.0445 12.8628 15.1189 12.7522 15.1697 12.6304C15.2205 12.5085 15.2466 12.3778 15.2466 12.2458C15.2466 12.1138 15.2205 11.9831 15.1697 11.8612C15.1189 11.7394 15.0445 11.6288 14.9508 11.5358Z" fill="white"/>
</svg>
