<svg width="20" height="20" viewBox="0 0 20 20" fill="none" xmlns="http://www.w3.org/2000/svg">
<path d="M9.37883 10.6207L14.809 16.0509C14.928 16.1709 15.0697 16.2662 15.2258 16.3312C15.3818 16.3962 15.5492 16.4297 15.7183 16.4297C15.8874 16.4297 16.0547 16.3962 16.2108 16.3312C16.3669 16.2662 16.5085 16.1709 16.6276 16.0509C16.8661 15.8109 17 15.4863 17 15.148C17 14.8096 16.8661 14.485 16.6276 14.2451L12.0939 9.7114L16.6276 5.17772C16.8661 4.93777 17 4.61317 17 4.27483C17 3.93649 16.8661 3.61189 16.6276 3.37194C16.5079 3.25324 16.366 3.15933 16.21 3.0956C16.0539 3.03187 15.8868 2.99956 15.7183 3.00054C15.5497 2.99956 15.3827 3.03187 15.2266 3.0956C15.0706 3.15933 14.9287 3.25324 14.809 3.37194L9.37883 8.8021C9.25879 8.92116 9.16351 9.06281 9.09849 9.21887C9.03348 9.37494 9 9.54233 9 9.7114C9 9.88047 9.03348 10.0479 9.09849 10.2039C9.16351 10.36 9.25879 10.5016 9.37883 10.6207Z" fill="black"/>
<path d="M11.6212 8.80899L6.19101 3.37883C6.07195 3.25879 5.93031 3.16351 5.77424 3.09849C5.61818 3.03347 5.45078 3 5.28171 3C5.11265 3 4.94525 3.03347 4.78919 3.09849C4.63312 3.16351 4.49148 3.25879 4.37242 3.37883C4.13389 3.61878 4 3.94338 4 4.28172C4 4.62006 4.13389 4.94466 4.37242 5.18461L8.90609 9.71829L4.37242 14.252C4.13389 14.4919 4 14.8165 4 15.1549C4 15.4932 4.13389 15.8178 4.37242 16.0577C4.49209 16.1764 4.63401 16.2704 4.79005 16.3341C4.94608 16.3978 5.11317 16.4301 5.28171 16.4292C5.45026 16.4301 5.61734 16.3978 5.77338 16.3341C5.92942 16.2704 6.07134 16.1764 6.19101 16.0577L11.6212 10.6276C11.7412 10.5085 11.8365 10.3669 11.9015 10.2108C11.9665 10.0548 12 9.88736 12 9.71829C12 9.54922 11.9665 9.38183 11.9015 9.22576C11.8365 9.0697 11.7412 8.92805 11.6212 8.80899Z" fill="black"/>
</svg>
