<svg width="250" height="250" viewBox="0 0 250 250" fill="none" xmlns="http://www.w3.org/2000/svg">
<g opacity="0.12">
<path d="M246.338 242.676H216.797V192.569C235.412 190.507 250 172.905 250 151.562C250 130.572 235.885 113.208 217.71 110.68C221.339 106.129 223.818 100.658 224.769 94.7144C225.087 92.7173 223.727 90.8394 221.73 90.52C219.726 90.2046 217.854 91.5615 217.536 93.5586C215.98 103.294 209.178 111.388 200.023 114.705C197.836 115.497 196.207 117.401 195.769 119.674C195.088 123.201 192.608 131.831 184.308 135.803C177.146 139.231 170.119 137.13 167.435 136.069C162.916 134.275 159.89 131.345 158.016 128.925V113.1L174.014 97.1021C175.444 95.6714 175.444 93.353 174.014 91.9228C172.584 90.4937 170.265 90.4927 168.835 91.9228L158.016 102.742V78.4951C158.016 76.4722 156.377 74.833 154.354 74.833C152.331 74.833 150.692 76.4722 150.692 78.4951V95.7134L139.873 84.8945C138.442 83.4648 136.124 83.4648 134.694 84.8945C133.264 86.3252 133.264 88.6436 134.694 90.0737L150.692 106.072V128.928C148.811 131.351 145.78 134.28 141.277 136.068C138.588 137.13 131.562 139.232 124.401 135.805C120.933 134.143 118.135 131.498 116.056 127.958C116.693 111.771 112.013 88.1157 105.055 65.4468C106.003 64.9336 106.982 64.4707 107.986 64.0732C111.248 62.791 113.231 59.4863 112.812 56.0469C112.734 55.3926 112.696 54.7598 112.696 54.1123C112.696 46.6807 117.729 40.2461 124.934 38.4629C128.4 37.605 130.821 34.4922 130.821 30.8555C130.821 17.8809 141.379 7.3252 154.356 7.3252C167.331 7.3252 177.886 17.8809 177.886 30.8945C177.886 34.4927 180.307 37.605 183.774 38.4634C191.674 40.4189 196.877 47.98 195.896 56.0381C195.478 59.4839 197.46 62.7871 200.72 64.0728C207.575 66.7705 213.102 72.2295 215.885 79.0488C216.658 80.9438 218.825 81.8047 220.659 81.0562C222.532 80.292 223.43 78.1548 222.666 76.2822C219.131 67.6191 212.11 60.6851 203.405 57.2583C203.258 57.2007 203.151 57.0503 203.168 56.916C204.637 45.0855 196.907 34.1748 185.534 31.3535C185.35 31.3076 185.211 31.1104 185.211 30.8555C185.21 13.8413 171.369 0 154.355 0C137.339 0 123.496 13.8413 123.496 30.8936C123.496 31.1094 123.357 31.3071 123.174 31.3525C112.692 33.9458 105.371 43.3047 105.371 54.1113C105.371 55.0381 105.427 55.9805 105.54 56.9229C105.616 57.5566 103.284 58.0835 102.774 58.3892C101.863 55.6914 100.921 53.0386 99.9492 50.4585C84.2456 8.75439 68.501 0 58.0581 0C39.834 0 25.897 25.6782 17.4141 47.2197C16.6729 49.1016 17.5977 51.228 19.4795 51.9692C21.3604 52.7109 23.4878 51.7856 24.229 49.9038C34.8848 22.8438 47.2148 7.32422 58.0581 7.32422C69.3848 7.32422 82.1553 23.9868 93.0947 53.0396C103.4 80.4082 108.792 109.968 108.792 125.023C108.792 155.146 87.9917 179.897 61.7202 182.018V152.299C61.7202 152.297 61.7202 152.295 61.7202 152.294V138.292L77.0039 123.008C78.4341 121.577 78.4341 119.259 77.0039 117.829C75.5732 116.399 73.2549 116.399 71.8247 117.829L61.7207 127.933V112.62C61.7207 110.597 60.0815 108.958 58.0586 108.958C56.0356 108.958 54.3965 110.597 54.3965 112.62V136.772V136.777V143.455L44.292 133.351C42.8613 131.921 40.543 131.921 39.1128 133.351C37.6826 134.781 37.6826 137.1 39.1128 138.53L54.3965 153.813V182.018C28.1245 179.897 7.32422 155.146 7.32422 125.023C7.32422 110.872 11.8755 87.0234 18.6499 65.6792C19.2617 63.752 18.1948 61.6929 16.2671 61.0811C14.3423 60.4707 12.2813 61.5366 11.6689 63.4639C4.58057 85.7979 0 109.961 0 125.023C0 159.206 24.0825 187.254 54.396 189.36V242.676H3.66211C1.63916 242.676 0 244.315 0 246.338C0 248.361 1.63916 250 3.66211 250H246.338C248.361 250 250 248.361 250 246.338C250 244.315 248.361 242.676 246.338 242.676V242.676ZM150.691 242.676H61.7202V189.36C88.0498 187.531 109.675 166.128 114.905 138.135C116.786 139.859 118.898 141.289 121.236 142.409C130.999 147.083 140.386 144.293 143.973 142.876C146.577 141.842 148.797 140.523 150.691 139.104V242.676ZM209.473 242.676H158.016V139.106C159.909 140.524 162.129 141.843 164.738 142.878C166.833 143.706 170.913 145.004 175.893 145.004C176.173 145.004 176.27 149.351 176.27 151.563C176.27 172.905 190.858 190.507 209.473 192.569V242.676ZM213.135 149.035C211.112 149.035 209.473 150.674 209.473 152.697V172.827V172.832V185.179C194.907 183.103 183.594 168.824 183.594 151.562C183.594 148.878 183.872 146.224 184.412 143.645C195.625 139.89 202.064 126.746 202.881 121.457C205.365 120.526 207.7 119.322 209.857 117.888C227.64 115.596 242.676 131.745 242.676 151.562C242.676 168.824 231.363 183.103 216.797 185.179V174.347L228.376 162.768C229.806 161.337 229.806 159.019 228.376 157.588C226.945 156.159 224.627 156.159 223.197 157.588L216.797 163.988V152.697C216.797 150.674 215.158 149.035 213.135 149.035V149.035Z" fill="white"/>
</g>
</svg>
