<svg width="345" height="359" viewBox="0 0 345 359" fill="none" xmlns="http://www.w3.org/2000/svg">
<path d="M202.55 131.112C202.525 131.114 202.503 131.117 202.483 131.119C201.82 131.123 201.356 131.18 200.957 131.294C200.688 131.371 200.413 131.494 200.224 131.579C200.162 131.606 200.11 131.63 200.069 131.646C199.649 131.819 198.849 132.076 196.185 132.179C194.648 132.106 192.422 132.059 190.908 134.002L190.705 134.751C190.8 135.45 190.71 136.148 190.541 136.954C190.496 137.17 190.443 137.403 190.386 137.647C190.267 138.166 190.136 138.737 190.045 139.316C189.812 139.505 189.434 139.585 188.811 139.458C188.06 139.304 187.246 138.887 186.698 138.492L186.142 138.303C184.592 138.259 183.377 138.867 182.793 140.094C182.275 141.182 182.369 142.53 182.769 143.817C182.907 145.233 182.766 145.826 182.555 146.148C182.341 146.473 181.914 146.747 180.775 147.129L180.554 147.235C179.792 147.722 179.011 148.379 178.772 149.42C178.537 150.443 178.894 151.54 179.601 152.741L179.782 152.967C180.808 153.92 181.191 154.805 181.287 155.639C181.389 156.514 181.188 157.442 180.842 158.503L180.799 158.708C180.72 159.45 180.673 160.247 180.63 160.984C180.606 161.384 180.584 161.766 180.558 162.112C180.477 163.192 180.362 163.905 180.184 164.273L180.088 164.619C179.928 166.38 179.879 167.767 179.951 168.874C180.024 169.979 180.221 170.868 180.601 171.592C181.345 173.011 182.671 173.524 183.965 174.025C184.037 174.053 184.108 174.081 184.18 174.109L184.418 174.169C185.964 174.364 186.674 174.934 187.135 175.711C187.646 176.573 187.893 177.742 188.236 179.364C188.249 179.427 188.263 179.49 188.276 179.554C188.387 180.342 188.4 180.83 188.362 181.127C188.349 181.232 188.332 181.293 188.32 181.327C188.277 181.339 188.176 181.36 187.975 181.367C187.739 181.374 187.483 181.363 187.151 181.348C186.997 181.341 186.827 181.334 186.636 181.327L186.574 181.327C184.833 181.374 183.545 182.158 182.51 183.175C181.712 183.959 181.011 184.942 180.36 185.855C180.25 186.01 180.141 186.162 180.034 186.311C178.563 187.041 176.935 187.433 175.279 187.456C175.212 187.381 175.144 187.307 175.073 187.236L173.36 187.937C173.366 188.041 173.393 188.192 173.407 188.24C173.416 188.267 173.433 188.312 173.44 188.329C173.454 188.361 173.466 188.386 173.471 188.395C173.481 188.415 173.491 188.432 173.494 188.438C173.502 188.452 173.511 188.466 173.516 188.475C173.527 188.494 173.543 188.52 173.56 188.547L173.567 188.558C173.601 188.615 173.648 188.691 173.706 188.788C173.83 188.994 174.005 189.291 174.211 189.656C174.623 190.387 175.152 191.385 175.627 192.468C176.106 193.558 176.514 194.698 176.706 195.72C176.905 196.775 176.84 197.529 176.588 197.987L176.561 198.041C176.515 198.137 176.479 198.214 176.44 198.288L176.604 199.44L177.327 198.75C176.604 199.44 176.604 199.44 176.604 199.44L176.604 199.44L176.605 199.441L176.607 199.443L176.615 199.452L176.646 199.484C176.673 199.512 176.712 199.553 176.763 199.605C176.864 199.708 177.01 199.857 177.192 200.04C177.555 200.404 178.063 200.905 178.642 201.446C179.768 202.5 181.237 203.784 182.438 204.494L182.456 204.506C182.486 204.527 182.53 204.556 182.586 204.593C182.698 204.668 182.859 204.775 183.061 204.905C183.462 205.166 184.024 205.521 184.663 205.901C185.915 206.646 187.551 207.537 188.875 207.956C190.702 208.559 192.17 209.079 193.307 209.572C194.463 210.073 195.18 210.506 195.579 210.895L195.635 210.946C196.145 211.374 196.332 211.739 196.376 212.045C196.422 212.356 196.349 212.795 195.953 213.427L195.847 213.658C195.627 214.358 195.423 215.024 195.298 215.612C195.178 216.182 195.101 216.807 195.24 217.383C195.398 218.04 195.813 218.551 196.465 218.843C197.044 219.103 197.763 219.171 198.562 219.144C200.355 219.091 201.571 218.907 202.528 218.745C202.626 218.728 202.719 218.712 202.81 218.697C203.619 218.558 204.144 218.468 204.738 218.487L204.788 218.488C205.551 218.474 206.093 218.414 206.527 218.316C206.944 218.222 207.232 218.099 207.453 218.004L207.496 217.986C207.7 217.899 207.861 217.835 208.131 217.783C208.416 217.728 208.851 217.683 209.579 217.682C210.018 217.697 210.31 217.655 210.602 217.588C210.68 217.57 210.749 217.554 210.815 217.537C210.983 217.496 211.138 217.458 211.395 217.418C212.101 217.307 213.5 217.203 216.875 217.327C217.079 217.346 217.598 217.477 218.364 217.749C219.11 218.014 219.995 218.379 220.856 218.794L220.929 218.825C222.168 219.306 223.066 219.667 223.73 220.001C224.398 220.336 224.726 220.596 224.905 220.826L225.143 221.047C225.392 221.211 225.679 221.301 225.912 221.357C226.161 221.417 226.438 221.458 226.719 221.487C227.281 221.545 227.939 221.564 228.585 221.564C229.574 221.563 230.609 221.517 231.318 221.486C231.533 221.477 231.719 221.468 231.864 221.463L232.312 221.339C232.374 221.305 232.429 221.274 232.48 221.245C232.773 221.081 232.914 221.002 233.158 220.939C233.453 220.863 233.939 220.808 234.922 220.857L235.705 220.539C235.949 220.276 236.129 220.206 236.462 220.115C236.508 220.103 236.559 220.09 236.612 220.076C236.993 219.977 237.54 219.836 238.182 219.456C239.954 218.557 241.064 217.706 241.706 217.051C242.6 216.956 243.176 217.145 243.481 217.462L244.037 217.754C244.205 217.782 244.331 217.831 244.486 217.911C244.515 217.926 244.56 217.95 244.614 217.979C244.766 218.062 244.996 218.188 245.198 218.276C245.894 218.579 246.762 218.732 248.245 218.567L248.798 218.322C249.605 217.606 250.562 216.815 251.521 216.022C251.726 215.853 251.932 215.683 252.136 215.514C253.246 214.593 254.331 213.68 255.076 212.946C255.912 212.348 256.545 211.986 257.217 211.837C257.88 211.689 258.694 211.726 259.909 212.162L260.15 212.216C260.579 212.258 261.328 212.412 262.132 212.726C262.937 213.042 263.727 213.491 264.301 214.083L264.501 214.242C264.975 214.529 265.424 214.755 266.087 214.848C266.685 214.93 267.419 214.898 268.461 214.809L268.917 214.654C269.173 214.489 269.427 214.291 269.644 214.122C269.699 214.079 269.751 214.038 269.801 214C270.067 213.796 270.306 213.626 270.568 213.492C271.046 213.246 271.696 213.069 272.799 213.281L272.953 213.299C274.185 213.341 275.417 213.319 276.646 213.233L277.569 212.348C277.71 211.115 277.714 209.871 277.581 208.637C277.655 207.872 277.762 207.395 277.874 207.07C277.985 206.75 278.11 206.548 278.266 206.333C278.301 206.285 278.344 206.23 278.391 206.167C278.544 205.966 278.751 205.694 278.937 205.384C279.193 204.953 279.434 204.42 279.65 203.67C280.553 201.282 280.883 198.976 281.213 196.67C281.323 195.898 281.434 195.126 281.566 194.351C282.356 191.597 283.091 187.865 282.918 184.92L282.884 184.715C282.469 183.195 281.726 182.098 280.467 182.014C279.922 181.978 279.44 182.16 279.08 182.35C278.715 182.543 278.39 182.791 278.144 182.992L277.936 183.225C277.218 184.335 276.927 184.719 276.613 185.007C276.379 185.221 276.141 185.381 275.704 185.674C275.532 185.79 275.328 185.927 275.082 186.096C275.081 186.091 275.08 186.086 275.079 186.081C275.049 185.941 275.03 185.754 275.028 185.519C275.02 184.549 275.303 183.222 275.568 182.305L275.583 182.243C275.877 180.913 275.622 179.879 275.145 178.976C274.919 178.549 274.646 178.156 274.389 177.798C274.336 177.724 274.284 177.651 274.232 177.58C274.024 177.292 273.829 177.021 273.639 176.726L273.539 176.595C273.186 176.204 273.069 175.836 273.069 175.471C273.069 175.075 273.208 174.6 273.515 174.041L273.637 173.601C273.713 171.728 274.406 166.883 275.735 161.238L275.744 161.198C276.413 157.739 276.604 155.948 276.616 154.666C276.622 154.026 276.583 153.526 276.545 153.048L276.545 153.042C276.507 152.565 276.472 152.103 276.472 151.484L276.408 151.133C276.281 150.794 276.164 150.506 276.054 150.238C275.825 149.674 275.631 149.198 275.457 148.519C275.212 147.57 275.022 146.246 274.979 143.941C275.029 143.708 275.079 143.479 275.127 143.255C275.979 139.317 276.568 136.595 276.939 131.12L276.941 131.036C276.864 126.559 276.375 123.622 275.192 117.848L275.151 117.705C274.061 114.732 273.68 112.882 273.583 111.467C273.509 110.39 273.594 109.562 273.694 108.59C273.727 108.263 273.762 107.92 273.794 107.546L273.794 107.546L273.795 107.535C273.862 106.607 273.751 105.851 273.456 105.223C273.157 104.586 272.713 104.179 272.3 103.881C272.111 103.745 271.917 103.624 271.753 103.521L271.726 103.504C271.547 103.392 271.4 103.3 271.265 103.201C271.009 103.013 270.833 102.83 270.711 102.572L269.62 102.021C266.546 102.608 263.923 104.395 261.88 105.787C261.684 105.92 261.493 106.05 261.308 106.175C260.377 106.682 259.832 107.429 259.431 108.063C259.314 108.249 259.214 108.415 259.122 108.566C258.936 108.874 258.789 109.116 258.623 109.322C256.814 109.541 255.986 109.452 255.518 109.272C255.097 109.11 254.892 108.866 254.369 108.244C254.319 108.186 254.267 108.124 254.212 108.058L254.159 108C253.444 107.277 252.381 106.978 251.442 106.956C250.641 106.937 249.739 107.115 249.027 107.596C246.333 107.527 244.631 107.492 243.495 107.703C242.858 107.821 242.322 108.026 241.854 108.388C241.428 108.718 241.121 109.132 240.849 109.566C240.394 110.051 239.864 110.206 239.19 110.22C238.822 110.228 238.434 110.192 237.999 110.144C237.941 110.137 237.882 110.131 237.821 110.124C237.489 110.086 237.125 110.045 236.77 110.028C235.859 109.791 234.902 109.767 233.979 109.959C233.015 110.159 232.116 110.589 231.363 111.212L231.203 111.379C231.016 111.626 230.675 111.797 230.193 111.815C229.705 111.833 229.217 111.684 228.908 111.467L228.851 111.429C228.005 110.917 227.127 110.728 226.205 110.651C225.613 110.602 224.937 110.596 224.218 110.591C223.874 110.588 223.521 110.585 223.161 110.577L223.157 110.773L222.483 110.763C220.604 112.251 218.501 114.549 216.88 116.319C216.785 116.422 216.693 116.524 216.602 116.623L216.562 116.669C215.705 117.727 215.054 118.685 214.481 119.54C214.444 119.595 214.407 119.65 214.371 119.704C213.839 120.497 213.384 121.176 212.867 121.806L212.865 121.809C211.672 123.274 211.068 124.393 210.839 125.646C210.664 126.601 210.722 127.614 210.788 128.786C210.803 129.046 210.818 129.315 210.832 129.593C210.861 130.305 210.698 130.605 210.456 130.869C210.302 131.037 210.093 131.211 209.788 131.438C209.689 131.511 209.573 131.596 209.445 131.688C209.263 131.82 209.06 131.968 208.857 132.12C207.765 132.469 207.233 133.069 206.735 133.631C206.731 133.636 206.726 133.641 206.722 133.645C206.475 133.657 206.298 133.652 206.137 133.627C206.022 133.609 205.9 133.577 205.756 133.518C205.658 133.018 205.477 132.591 205.218 132.235C204.864 131.747 204.413 131.459 203.987 131.298C203.571 131.141 203.177 131.102 202.9 131.098C202.758 131.096 202.638 131.103 202.55 131.112ZM188.304 181.36C188.304 181.359 188.305 181.356 188.31 181.35C188.306 181.357 188.304 181.36 188.304 181.36Z" fill="#423154" stroke="white" stroke-width="2" stroke-linejoin="bevel"/>
</svg>
