<svg width="345" height="359" viewBox="0 0 345 359" fill="none" xmlns="http://www.w3.org/2000/svg">
<mask id="path-1-outside-1_430_1933" maskUnits="userSpaceOnUse" x="69.9204" y="110.833" width="94" height="83" fill="black">
<rect fill="white" x="69.9204" y="110.833" width="94" height="83"/>
<path d="M161.863 185.311L161.899 185.277C160.954 183.763 160.125 179.129 160.125 175.897C159.681 174.383 157.814 174.486 156.577 173.173C156.262 171.361 156.262 168.636 156.994 166.722C160.351 160.975 158.462 160.574 156.785 159.047C153.849 157.636 152.59 157.636 150.177 155.21C148.607 153.505 147.348 147.651 146.718 144.125C146.82 141.2 148.08 138.48 149.862 135.858C150.914 134.046 150.177 131.019 149.446 129.207C146.825 127.996 146.82 126.38 146.82 126.38C145.547 125.156 145.299 123.238 145.25 122.458C143.445 121.46 142.487 119.401 139.09 119.439C136.052 119.456 132.504 119.128 130.961 119.98C129.426 120.471 125.493 121.72 123.998 121.984C123.998 121.984 123.24 121.984 122.49 121.912C123.5 125.5 121.707 123.036 121.129 123.421C119.949 124.7 118.468 124.176 117.275 124.406C115.78 125.839 115.23 126.747 115.545 129.245C114.76 130.524 114.131 130 113.501 126.371C113.581 124.027 111.217 123.042 109.953 120.245C108.693 118.428 108.622 117.525 106.405 117.687C104.831 117.687 104.36 117.763 102.076 122.074C101.189 123.963 100.347 123.434 99.7969 119.516C97.8323 116.642 98.0673 114.523 95.4729 112.86C93.6635 112.481 94.5859 116.113 95.4729 118.531C95.8632 119.742 96.5728 120.799 95.2334 120.722C92.7188 120.496 92.7987 121.178 92.8741 124.133C92.639 125.34 91.9294 125.868 91.3795 123.83C90.3595 121.562 90.4349 119.217 89.162 117.324C88.6875 116.646 85.6984 116.796 85.0731 119.52C84.9156 120.657 85.1071 121.814 85.6239 122.847C86.1407 123.881 86.9605 124.748 87.9824 125.34C89.0024 126.401 88.2174 127.471 85.6984 129.573C83.8136 130.784 82.8689 131.466 82.0041 128.367C81.8445 125.809 82.9488 126.171 82.7093 123.374C82.3988 121.106 79.5649 123.148 78.8598 125.19C77.9151 126.704 78.78 128.67 76.496 130.784C72.5667 132.75 72.9481 135.171 72.9481 135.171C72.7928 135.926 73.2629 137.516 75.0724 138.194C75.0724 138.194 77.1169 138.876 76.5669 140.616C76.2521 141.469 74.9172 141.673 75.7021 142.505C75.8618 142.961 77.7466 143.784 79.086 142.505C79.8709 141.899 81.3655 141.294 81.3655 143.187C81.3655 144.466 81.2103 148.103 83.0951 147.267C86.0044 143.716 83.7249 143.49 84.6695 142.125C85.1396 141.294 85.4545 139.934 86.8869 141.221C88.5412 142.884 87.4413 143.716 89.0113 143.865C90.3417 143.716 90.3417 141.899 92.6301 141.597C93.4949 141.294 94.9097 140.463 95.2911 142.356C95.2112 145.152 95.9208 145.984 93.0736 146.666C90.6389 148.632 91.0291 148.798 92.0536 150.669C91.9738 151.949 91.4238 154.225 93.5482 158.084C94.7278 161.409 95.9873 162.39 94.648 163.375C93.5482 164.432 92.1334 166.854 94.8077 167.988C96.0627 168.743 97.717 170.03 95.5926 171.825C94.4928 172.507 93.1535 174.383 95.3576 175.155C97.2424 176.515 96.8522 177.798 98.6616 177.496C99.1317 177.423 100.391 177.423 99.6018 178.557C97.2424 180.689 97.3222 178.707 93.628 181.278C90.7143 182.868 93.628 183.836 96.4574 183.699C97.952 183.546 98.3467 184.603 99.2115 184.603C99.9965 184.454 99.7614 183.925 101.966 184.228C103.536 183.699 103.221 185.814 102.276 186.871C103.695 189.144 104.795 189.596 109.815 189.673C113.275 189.596 114.614 186.799 116.738 185.588C117.084 185.209 117.204 185.277 117.692 185.277C118.716 184.364 120.574 183.571 122.716 182.868C124.393 182.868 125.337 184.177 127.222 184.177C128.996 185.029 129.44 185.989 130.158 187.805C131.209 187.805 132.784 188.108 134.668 187.102C136.442 185.989 138.66 185.396 140.962 184.97C143.179 183.861 143.481 183.861 145.365 183.861C147.255 185.776 147.583 186.078 147.778 188.398C148.514 191.22 150.191 190.917 151.552 191.523C152.347 191.326 153.121 191.056 153.863 190.717C154.594 189.105 154.909 189.012 156.169 188.398C160.014 188.398 160.564 186.517 161.797 185.307"/>
</mask>
<path d="M161.863 185.311L161.899 185.277C160.954 183.763 160.125 179.129 160.125 175.897C159.681 174.383 157.814 174.486 156.577 173.173C156.262 171.361 156.262 168.636 156.994 166.722C160.351 160.975 158.462 160.574 156.785 159.047C153.849 157.636 152.59 157.636 150.177 155.21C148.607 153.505 147.348 147.651 146.718 144.125C146.82 141.2 148.08 138.48 149.862 135.858C150.914 134.046 150.177 131.019 149.446 129.207C146.825 127.996 146.82 126.38 146.82 126.38C145.547 125.156 145.299 123.238 145.25 122.458C143.445 121.46 142.487 119.401 139.09 119.439C136.052 119.456 132.504 119.128 130.961 119.98C129.426 120.471 125.493 121.72 123.998 121.984C123.998 121.984 123.24 121.984 122.49 121.912C123.5 125.5 121.707 123.036 121.129 123.421C119.949 124.7 118.468 124.176 117.275 124.406C115.78 125.839 115.23 126.747 115.545 129.245C114.76 130.524 114.131 130 113.501 126.371C113.581 124.027 111.217 123.042 109.953 120.245C108.693 118.428 108.622 117.525 106.405 117.687C104.831 117.687 104.36 117.763 102.076 122.074C101.189 123.963 100.347 123.434 99.7969 119.516C97.8323 116.642 98.0673 114.523 95.4729 112.86C93.6635 112.481 94.5859 116.113 95.4729 118.531C95.8632 119.742 96.5728 120.799 95.2334 120.722C92.7188 120.496 92.7987 121.178 92.8741 124.133C92.639 125.34 91.9294 125.868 91.3795 123.83C90.3595 121.562 90.4349 119.217 89.162 117.324C88.6875 116.646 85.6984 116.796 85.0731 119.52C84.9156 120.657 85.1071 121.814 85.6239 122.847C86.1407 123.881 86.9605 124.748 87.9824 125.34C89.0024 126.401 88.2174 127.471 85.6984 129.573C83.8136 130.784 82.8689 131.466 82.0041 128.367C81.8445 125.809 82.9488 126.171 82.7093 123.374C82.3988 121.106 79.5649 123.148 78.8598 125.19C77.9151 126.704 78.78 128.67 76.496 130.784C72.5667 132.75 72.9481 135.171 72.9481 135.171C72.7928 135.926 73.2629 137.516 75.0724 138.194C75.0724 138.194 77.1169 138.876 76.5669 140.616C76.2521 141.469 74.9172 141.673 75.7021 142.505C75.8618 142.961 77.7466 143.784 79.086 142.505C79.8709 141.899 81.3655 141.294 81.3655 143.187C81.3655 144.466 81.2103 148.103 83.0951 147.267C86.0044 143.716 83.7249 143.49 84.6695 142.125C85.1396 141.294 85.4545 139.934 86.8869 141.221C88.5412 142.884 87.4413 143.716 89.0113 143.865C90.3417 143.716 90.3417 141.899 92.6301 141.597C93.4949 141.294 94.9097 140.463 95.2911 142.356C95.2112 145.152 95.9208 145.984 93.0736 146.666C90.6389 148.632 91.0291 148.798 92.0536 150.669C91.9738 151.949 91.4238 154.225 93.5482 158.084C94.7278 161.409 95.9873 162.39 94.648 163.375C93.5482 164.432 92.1334 166.854 94.8077 167.988C96.0627 168.743 97.717 170.03 95.5926 171.825C94.4928 172.507 93.1535 174.383 95.3576 175.155C97.2424 176.515 96.8522 177.798 98.6616 177.496C99.1317 177.423 100.391 177.423 99.6018 178.557C97.2424 180.689 97.3222 178.707 93.628 181.278C90.7143 182.868 93.628 183.836 96.4574 183.699C97.952 183.546 98.3467 184.603 99.2115 184.603C99.9965 184.454 99.7614 183.925 101.966 184.228C103.536 183.699 103.221 185.814 102.276 186.871C103.695 189.144 104.795 189.596 109.815 189.673C113.275 189.596 114.614 186.799 116.738 185.588C117.084 185.209 117.204 185.277 117.692 185.277C118.716 184.364 120.574 183.571 122.716 182.868C124.393 182.868 125.337 184.177 127.222 184.177C128.996 185.029 129.44 185.989 130.158 187.805C131.209 187.805 132.784 188.108 134.668 187.102C136.442 185.989 138.66 185.396 140.962 184.97C143.179 183.861 143.481 183.861 145.365 183.861C147.255 185.776 147.583 186.078 147.778 188.398C148.514 191.22 150.191 190.917 151.552 191.523C152.347 191.326 153.121 191.056 153.863 190.717C154.594 189.105 154.909 189.012 156.169 188.398C160.014 188.398 160.564 186.517 161.797 185.307" fill="#423154"/>
<path d="M161.899 185.277L163.285 186.718L163.595 184.218L161.899 185.277ZM160.125 175.897H162.125L162.044 175.335L160.125 175.897ZM156.577 173.173L154.606 173.515L155.121 174.544L156.577 173.173ZM156.994 166.722L155.267 165.713L155.126 166.008L156.994 166.722ZM156.785 159.047L158.132 157.569L157.652 157.245L156.785 159.047ZM150.177 155.21L148.706 156.565L148.759 156.62L150.177 155.21ZM146.718 144.125L144.719 144.055L144.749 144.477L146.718 144.125ZM149.862 135.858L151.516 136.982L151.592 136.861L149.862 135.858ZM149.446 129.207L151.3 128.458L150.284 127.391L149.446 129.207ZM146.82 126.38L148.82 126.375L148.206 124.938L146.82 126.38ZM145.25 122.458L147.246 122.333L146.218 120.707L145.25 122.458ZM139.09 119.439L139.101 121.439L139.113 121.439L139.09 119.439ZM130.961 119.98L131.57 121.886L131.928 121.731L130.961 119.98ZM123.998 121.984L123.998 123.984L124.346 123.954L123.998 121.984ZM122.49 121.912L122.683 119.921L120.565 122.454L122.49 121.912ZM121.129 123.421L120.021 121.756L119.659 122.065L121.129 123.421ZM117.275 124.406L116.896 122.442L115.891 122.962L117.275 124.406ZM115.545 129.245L117.25 130.291L117.53 128.995L115.545 129.245ZM113.501 126.371L111.502 126.303L111.53 126.713L113.501 126.371ZM109.953 120.245L111.775 119.421L111.596 119.105L109.953 120.245ZM106.405 117.687V119.687L106.551 119.681L106.405 117.687ZM102.076 122.074L100.309 121.137L100.266 121.224L102.076 122.074ZM99.7969 119.516L101.778 119.238L101.448 118.387L99.7969 119.516ZM95.4729 112.86L96.5521 111.176L95.8834 110.903L95.4729 112.86ZM95.4729 118.531L97.3765 117.917L97.3505 117.842L95.4729 118.531ZM95.2334 120.722L95.0544 122.714L95.119 122.719L95.2334 120.722ZM92.8741 124.133L94.8371 124.516L94.8734 124.082L92.8741 124.133ZM91.3795 123.83L93.3104 123.309L93.2035 123.01L91.3795 123.83ZM89.162 117.324L90.8218 116.208L90.8005 116.177L89.162 117.324ZM85.0731 119.52L83.1238 119.073L83.092 119.246L85.0731 119.52ZM87.9824 125.34L89.4245 123.954L88.9851 123.609L87.9824 125.34ZM85.6984 129.573L86.7794 131.256L86.9798 131.109L85.6984 129.573ZM82.0041 128.367L80.008 128.491L80.0777 128.904L82.0041 128.367ZM82.7093 123.374L84.702 123.204L84.6908 123.103L82.7093 123.374ZM78.8598 125.19L80.5565 126.249L80.7503 125.843L78.8598 125.19ZM76.496 130.784L77.3907 132.573L77.8548 132.252L76.496 130.784ZM72.9481 135.171L74.9071 135.574L74.9237 134.86L72.9481 135.171ZM75.0724 138.194L74.3707 140.067L74.4394 140.091L75.0724 138.194ZM76.5669 140.616L78.4431 141.309L78.4739 141.219L76.5669 140.616ZM75.7021 142.505L77.5899 141.844L77.1564 141.132L75.7021 142.505ZM79.086 142.505L77.8645 140.921L77.7047 141.058L79.086 142.505ZM83.0951 147.267L83.9057 149.096L84.6423 148.535L83.0951 147.267ZM84.6695 142.125L86.3138 143.264L86.4105 143.11L84.6695 142.125ZM86.8869 141.221L88.3048 139.811L88.2239 139.734L86.8869 141.221ZM89.0113 143.865L88.822 145.856L89.2342 145.852L89.0113 143.865ZM92.6301 141.597L92.8924 143.579L93.2909 143.484L92.6301 141.597ZM95.2911 142.356L97.2903 142.413L97.2517 141.961L95.2911 142.356ZM93.0736 146.666L92.6076 144.721L91.8173 145.11L93.0736 146.666ZM92.0536 150.669L94.0497 150.794L93.808 149.709L92.0536 150.669ZM93.5482 158.084L95.4331 157.415L95.3002 157.119L93.5482 158.084ZM94.648 163.375L93.4632 161.764L93.2619 161.933L94.648 163.375ZM94.8077 167.988L95.8383 166.274L95.5885 166.147L94.8077 167.988ZM95.5926 171.825L96.6468 173.525L96.8835 173.353L95.5926 171.825ZM95.3576 175.155L96.5279 173.533L96.0185 173.267L95.3576 175.155ZM98.6616 177.496L98.3568 175.519L98.3316 175.523L98.6616 177.496ZM99.6018 178.557L100.943 180.041L101.243 179.7L99.6018 178.557ZM93.628 181.278L94.5862 183.033L94.7704 182.919L93.628 181.278ZM96.4574 183.699L96.5538 185.697L96.6618 185.689L96.4574 183.699ZM99.2115 184.603V186.603L99.585 186.568L99.2115 184.603ZM101.966 184.228L101.693 186.209L102.604 186.123L101.966 184.228ZM102.276 186.871L100.785 185.539L100.58 187.931L102.276 186.871ZM109.815 189.673L109.785 191.672L109.86 191.672L109.815 189.673ZM116.738 185.588L117.729 187.326L118.216 186.935L116.738 185.588ZM117.692 185.277V187.277L119.022 186.77L117.692 185.277ZM122.716 182.868V180.868L122.092 180.968L122.716 182.868ZM127.222 184.177L128.089 182.374L127.222 182.177V184.177ZM130.158 187.805L128.298 188.541L130.158 189.805V187.805ZM134.668 187.102L135.61 188.866L135.731 188.796L134.668 187.102ZM140.962 184.97L141.326 186.936L141.856 186.759L140.962 184.97ZM145.365 183.861L146.789 182.456L145.365 181.861V183.861ZM147.778 188.398L145.785 188.565L145.843 188.902L147.778 188.398ZM151.552 191.523L150.74 193.35L152.033 193.464L151.552 191.523ZM153.863 190.717L154.695 192.536L155.684 191.544L153.863 190.717ZM156.169 188.398V186.398L155.293 186.6L156.169 188.398ZM163.25 186.752L163.285 186.718L160.512 183.835L160.477 183.87L163.25 186.752ZM163.595 184.218C163.5 184.066 163.332 183.693 163.138 183.049C162.953 182.438 162.777 181.69 162.624 180.866C162.316 179.209 162.125 177.367 162.125 175.897H158.125C158.125 177.659 158.348 179.75 158.691 181.596C158.864 182.524 159.072 183.42 159.308 184.205C159.535 184.957 159.825 185.731 160.202 186.336L163.595 184.218ZM162.044 175.335C161.561 173.686 160.241 173.009 159.52 172.66C158.659 172.243 158.332 172.119 158.032 171.801L155.121 174.544C156.059 175.54 157.284 176.021 157.777 176.26C158.089 176.411 158.199 176.486 158.243 176.525C158.255 176.536 158.245 176.529 158.229 176.505C158.222 176.493 158.216 176.482 158.211 176.472C158.206 176.463 158.205 176.458 158.205 176.459L162.044 175.335ZM158.547 172.83C158.268 171.221 158.305 168.894 158.862 167.436L155.126 166.008C154.219 168.378 154.256 171.5 154.606 173.515L158.547 172.83ZM158.721 167.731C159.596 166.232 160.191 164.98 160.524 163.903C160.859 162.819 160.969 161.783 160.713 160.799C160.451 159.792 159.877 159.109 159.374 158.631C159.133 158.403 158.879 158.195 158.68 158.032C158.464 157.856 158.295 157.717 158.132 157.569L155.439 160.526C155.695 160.759 155.951 160.967 156.146 161.127C156.358 161.301 156.501 161.42 156.62 161.533C156.838 161.74 156.841 161.802 156.841 161.805C156.848 161.83 156.905 162.067 156.702 162.722C156.498 163.385 156.07 164.338 155.267 165.713L158.721 167.731ZM157.652 157.245C154.33 155.648 153.685 155.901 151.595 153.8L148.759 156.62C151.494 159.371 153.368 159.624 155.919 160.85L157.652 157.245ZM151.649 153.856C151.501 153.695 151.236 153.276 150.911 152.491C150.605 151.748 150.305 150.83 150.022 149.814C149.456 147.783 148.997 145.508 148.687 143.773L144.749 144.477C145.069 146.267 145.554 148.682 146.169 150.887C146.475 151.988 146.824 153.073 147.215 154.018C147.587 154.92 148.069 155.872 148.706 156.565L151.649 153.856ZM148.717 144.195C148.8 141.807 149.832 139.459 151.516 136.982L148.209 134.733C146.327 137.501 144.84 140.593 144.719 144.055L148.717 144.195ZM151.592 136.861C152.44 135.4 152.472 133.668 152.309 132.296C152.139 130.869 151.715 129.484 151.3 128.458L147.591 129.956C147.908 130.741 148.218 131.776 148.337 132.769C148.461 133.817 148.336 134.504 148.132 134.854L151.592 136.861ZM150.284 127.391C149.297 126.935 148.969 126.486 148.871 126.32C148.816 126.227 148.804 126.174 148.805 126.18C148.806 126.181 148.809 126.197 148.813 126.228C148.815 126.244 148.816 126.264 148.818 126.288C148.818 126.3 148.819 126.313 148.819 126.328C148.82 126.335 148.82 126.342 148.82 126.35C148.82 126.354 148.82 126.358 148.82 126.362C148.82 126.364 148.82 126.366 148.82 126.368C148.82 126.369 148.82 126.371 148.82 126.371C148.82 126.373 148.82 126.375 146.82 126.38C144.82 126.385 144.82 126.387 144.82 126.389C144.82 126.389 144.82 126.391 144.82 126.392C144.82 126.394 144.82 126.396 144.82 126.399C144.82 126.403 144.82 126.408 144.82 126.412C144.821 126.422 144.821 126.431 144.821 126.442C144.822 126.462 144.823 126.485 144.824 126.509C144.827 126.558 144.831 126.613 144.838 126.676C144.852 126.8 144.876 126.951 144.918 127.123C145.002 127.469 145.155 127.896 145.429 128.358C145.988 129.303 146.974 130.268 148.607 131.022L150.284 127.391ZM148.206 124.938C147.894 124.638 147.653 124.194 147.486 123.658C147.322 123.131 147.265 122.626 147.246 122.333L143.254 122.582C143.307 123.423 143.575 126.034 145.434 127.822L148.206 124.938ZM146.218 120.707C145.945 120.557 145.67 120.347 145.289 120.027C144.945 119.739 144.457 119.309 143.929 118.932C142.752 118.092 141.257 117.414 139.067 117.439L139.113 121.439C140.321 121.425 141.003 121.758 141.606 122.188C141.967 122.446 142.269 122.715 142.719 123.092C143.131 123.438 143.652 123.86 144.283 124.208L146.218 120.707ZM139.079 117.439C138.35 117.443 137.588 117.426 136.794 117.411C136.012 117.396 135.201 117.383 134.429 117.397C133.66 117.411 132.879 117.453 132.159 117.561C131.46 117.665 130.68 117.85 129.994 118.23L131.928 121.731C132.013 121.684 132.255 121.591 132.751 121.516C133.225 121.445 133.81 121.409 134.502 121.396C135.189 121.383 135.93 121.395 136.717 121.41C137.49 121.425 138.311 121.443 139.101 121.439L139.079 117.439ZM130.352 118.075C128.737 118.591 124.975 119.78 123.65 120.015L124.346 123.954C126.01 123.659 130.116 122.35 131.57 121.886L130.352 118.075ZM123.998 121.984C123.998 119.984 123.998 119.984 123.998 119.984C123.998 119.984 123.998 119.984 123.998 119.984C123.999 119.984 123.999 119.984 123.999 119.984C123.999 119.984 123.999 119.984 123.999 119.984C123.999 119.984 123.999 119.984 123.999 119.984C123.999 119.984 123.997 119.984 123.996 119.984C123.992 119.984 123.986 119.984 123.977 119.984C123.959 119.984 123.932 119.984 123.895 119.983C123.823 119.982 123.717 119.98 123.589 119.976C123.33 119.968 122.999 119.952 122.683 119.921L122.298 123.903C122.731 123.944 123.154 123.964 123.461 123.974C123.617 123.979 123.748 123.982 123.841 123.983C123.887 123.984 123.925 123.984 123.951 123.984C123.965 123.984 123.975 123.984 123.983 123.984C123.987 123.984 123.99 123.984 123.993 123.984C123.994 123.984 123.995 123.984 123.996 123.984C123.997 123.984 123.997 123.984 123.997 123.984C123.997 123.984 123.998 123.984 123.998 123.984C123.998 123.984 123.998 123.984 123.998 123.984C123.998 123.984 123.998 123.984 123.998 121.984ZM120.565 122.454C120.681 122.864 120.743 123.142 120.773 123.322C120.788 123.411 120.792 123.458 120.793 123.473C120.794 123.492 120.789 123.446 120.8 123.358C120.811 123.275 120.844 123.084 120.962 122.855C121.092 122.605 121.317 122.326 121.665 122.128C122.003 121.935 122.329 121.89 122.554 121.891C122.766 121.893 122.92 121.934 122.985 121.953C123.022 121.965 123.049 121.975 123.065 121.981C123.081 121.987 123.089 121.991 123.09 121.992C123.09 121.992 123.086 121.99 123.075 121.984C123.065 121.979 123.051 121.972 123.032 121.961C122.988 121.938 122.948 121.915 122.877 121.876C122.816 121.842 122.734 121.796 122.646 121.751C122.559 121.706 122.447 121.651 122.322 121.599C122.2 121.548 122.035 121.488 121.842 121.444C121.492 121.363 120.749 121.272 120.021 121.756L122.236 125.086C121.653 125.474 121.093 125.376 120.947 125.342C120.795 125.307 120.725 125.26 120.809 125.304C120.923 125.363 120.915 125.364 121.129 125.48C121.253 125.547 121.517 125.689 121.826 125.782C122.079 125.858 122.848 126.057 123.647 125.602C124.514 125.107 124.719 124.258 124.769 123.856C124.823 123.43 124.776 123.006 124.718 122.66C124.655 122.286 124.552 121.857 124.416 121.37L120.565 122.454ZM119.659 122.065C119.518 122.218 119.397 122.283 119.035 122.314C118.8 122.334 118.58 122.331 118.195 122.335C117.862 122.338 117.387 122.347 116.896 122.442L117.654 126.37C117.759 126.349 117.916 126.338 118.234 126.335C118.499 126.332 118.946 126.337 119.379 126.299C120.351 126.216 121.56 125.904 122.599 124.777L119.659 122.065ZM115.891 122.962C115.111 123.709 114.326 124.545 113.872 125.688C113.41 126.855 113.384 128.093 113.561 129.495L117.53 128.995C117.391 127.899 117.483 127.434 117.591 127.163C117.707 126.87 117.944 126.535 118.659 125.85L115.891 122.962ZM113.841 128.199C113.784 128.291 113.766 128.306 113.791 128.278C113.806 128.261 113.945 128.111 114.22 127.997C114.549 127.861 114.984 127.819 115.416 127.98C115.791 128.119 115.984 128.345 116.036 128.412C116.115 128.511 116.038 128.452 115.893 127.963C115.764 127.528 115.622 126.899 115.471 126.029L111.53 126.713C111.694 127.658 111.867 128.455 112.058 129.099C112.233 129.689 112.48 130.361 112.893 130.885C113.113 131.164 113.475 131.526 114.023 131.73C114.628 131.954 115.238 131.904 115.746 131.695C116.565 131.356 117.036 130.64 117.25 130.291L113.841 128.199ZM115.5 126.44C115.567 124.472 114.546 123.135 113.769 122.199C112.932 121.192 112.266 120.507 111.775 119.421L108.13 121.068C108.904 122.779 110.052 123.985 110.693 124.756C111.393 125.598 111.515 125.926 111.502 126.303L115.5 126.44ZM111.596 119.105C111.305 118.684 111.116 118.368 110.858 117.97C110.633 117.622 110.33 117.17 109.921 116.779C108.899 115.801 107.664 115.589 106.259 115.692L106.551 119.681C106.987 119.649 107.161 119.684 107.201 119.695C107.214 119.698 107.201 119.696 107.177 119.682C107.154 119.669 107.145 119.659 107.156 119.669C107.199 119.71 107.288 119.815 107.5 120.142C107.679 120.419 107.971 120.897 108.309 121.384L111.596 119.105ZM106.405 115.687C106.045 115.687 105.48 115.682 104.905 115.825C104.246 115.988 103.671 116.31 103.145 116.799C102.252 117.629 101.415 119.05 100.309 121.137L103.844 123.01C105.022 120.787 105.562 120.014 105.869 119.728C105.943 119.66 105.923 119.693 105.866 119.707C105.864 119.708 105.894 119.7 105.986 119.694C106.084 119.688 106.206 119.687 106.405 119.687V115.687ZM100.266 121.224C100.186 121.395 100.127 121.491 100.098 121.534C100.06 121.589 100.102 121.51 100.245 121.406C100.403 121.291 100.759 121.096 101.259 121.133C101.76 121.17 102.081 121.416 102.216 121.55C102.339 121.671 102.362 121.747 102.325 121.671C102.295 121.608 102.242 121.48 102.177 121.263C102.047 120.825 101.908 120.167 101.778 119.238L97.8163 119.794C97.9609 120.824 98.1336 121.7 98.3437 122.405C98.5285 123.025 98.8271 123.824 99.4042 124.395C99.7346 124.721 100.257 125.069 100.962 125.122C101.667 125.175 102.232 124.908 102.602 124.638C103.248 124.167 103.642 123.444 103.887 122.924L100.266 121.224ZM101.448 118.387C100.589 117.13 100.282 116.173 99.6839 114.889C99.0826 113.599 98.2839 112.286 96.5521 111.176L94.3937 114.544C95.2563 115.097 95.6373 115.675 96.0582 116.579C96.4822 117.488 97.0402 119.027 98.1459 120.644L101.448 118.387ZM95.8834 110.903C95.3676 110.795 94.7201 110.783 94.0763 111.081C93.416 111.387 93.008 111.904 92.7777 112.389C92.3761 113.236 92.4077 114.2 92.4715 114.844C92.6123 116.264 93.136 117.968 93.5953 119.22L97.3505 117.842C96.9228 116.676 96.5418 115.355 96.452 114.449C96.4005 113.93 96.4853 113.906 96.3919 114.103C96.3157 114.264 96.1256 114.54 95.7577 114.711C95.4063 114.873 95.1259 114.831 95.0624 114.818L95.8834 110.903ZM93.5693 119.144C93.686 119.506 93.8363 119.885 93.9156 120.096C94.0228 120.383 94.0281 120.436 94.0224 120.396C94.0202 120.381 93.9144 119.687 94.5312 119.116C94.8004 118.866 95.0741 118.778 95.2116 118.747C95.3416 118.718 95.4033 118.729 95.3478 118.726L95.119 122.719C95.5753 122.745 96.5066 122.739 97.2503 122.049C98.0985 121.263 98.042 120.244 97.9811 119.823C97.9166 119.377 97.7551 118.943 97.6614 118.693C97.5396 118.368 97.4549 118.161 97.3765 117.917L93.5693 119.144ZM95.4124 118.73C94.7495 118.671 94.0189 118.642 93.3504 118.794C92.5622 118.973 91.8047 119.419 91.3352 120.262C90.9531 120.948 90.8829 121.703 90.8593 122.233C90.8341 122.798 90.8569 123.487 90.8747 124.184L94.8734 124.082C94.8535 123.302 94.8381 122.798 94.8553 122.411C94.8634 122.229 94.8772 122.13 94.886 122.086C94.8947 122.042 94.8889 122.102 94.8298 122.208C94.7617 122.33 94.6511 122.463 94.5007 122.567C94.361 122.664 94.2517 122.691 94.2363 122.695C94.2273 122.697 94.28 122.684 94.4305 122.683C94.5778 122.681 94.7791 122.689 95.0544 122.714L95.4124 118.73ZM90.911 123.751C90.8781 123.919 90.8482 123.948 90.8866 123.882C90.9068 123.846 90.9806 123.725 91.137 123.59C91.2998 123.45 91.604 123.254 92.0409 123.209C92.4985 123.162 92.8782 123.304 93.1246 123.465C93.3454 123.609 93.4487 123.757 93.4687 123.787C93.5016 123.835 93.4243 123.731 93.3104 123.309L89.4486 124.351C89.6097 124.949 89.8273 125.543 90.1552 126.027C90.4422 126.452 91.1951 127.317 92.4488 127.188C93.577 127.072 94.1531 126.224 94.3508 125.881C94.6056 125.44 94.7525 124.95 94.8371 124.516L90.911 123.751ZM93.2035 123.01C92.7894 122.089 92.5999 121.166 92.3094 119.966C92.0383 118.846 91.6745 117.476 90.8218 116.208L87.5023 118.44C87.9225 119.065 88.1573 119.815 88.4217 120.907C88.6667 121.92 88.9495 123.303 89.5554 124.651L93.2035 123.01ZM90.8005 116.177C90.4582 115.688 90.0034 115.421 89.6691 115.276C89.3172 115.124 88.956 115.046 88.627 115.01C87.969 114.938 87.2434 115.016 86.5451 115.248C85.095 115.728 83.6146 116.934 83.1238 119.073L87.0224 119.967C87.0984 119.636 87.2277 119.445 87.3434 119.326C87.4681 119.198 87.627 119.103 87.8031 119.045C87.9896 118.983 88.1393 118.98 88.1948 118.986C88.2225 118.989 88.1776 118.989 88.0824 118.948C88.0048 118.915 87.7473 118.791 87.5236 118.471L90.8005 116.177ZM83.092 119.246C82.8787 120.786 83.1389 122.349 83.835 123.742L87.4128 121.953C87.0752 121.278 86.9525 120.528 87.0542 119.794L83.092 119.246ZM83.835 123.742C84.5305 125.133 85.6274 126.287 86.9796 127.07L88.9851 123.609C88.2935 123.208 87.7509 122.629 87.4128 121.953L83.835 123.742ZM86.5402 126.725C86.5914 126.779 86.4524 126.653 86.4216 126.368C86.392 126.093 86.4951 125.963 86.4364 126.065C86.3702 126.179 86.2055 126.401 85.8462 126.761C85.4969 127.111 85.0287 127.527 84.417 128.038L86.9798 131.109C88.2014 130.09 89.3103 129.085 89.8986 128.068C90.2235 127.507 90.4891 126.778 90.3985 125.939C90.3067 125.089 89.8833 124.432 89.4245 123.954L86.5402 126.725ZM84.6174 127.891C84.3714 128.049 84.1713 128.178 83.9826 128.295C83.7955 128.411 83.6552 128.491 83.5445 128.547C83.4315 128.604 83.3895 128.615 83.4 128.612C83.4148 128.608 83.524 128.58 83.6934 128.599C83.8794 128.62 84.0544 128.689 84.1911 128.783C84.3132 128.867 84.354 128.937 84.3359 128.91C84.3168 128.882 84.263 128.793 84.1861 128.604C84.1104 128.418 84.0245 128.166 83.9305 127.829L80.0777 128.904C80.3127 129.747 80.6036 130.534 81.0264 131.157C81.4885 131.837 82.2108 132.457 83.2441 132.574C84.1325 132.674 84.8917 132.348 85.3507 132.116C85.8328 131.872 86.3515 131.531 86.7794 131.256L84.6174 127.891ZM84.0002 128.242C83.9694 127.748 84.0039 127.474 84.0382 127.311C84.0754 127.133 84.1246 127.007 84.2494 126.688C84.3742 126.369 84.5471 125.916 84.6498 125.307C84.7513 124.706 84.7728 124.03 84.702 123.204L80.7166 123.545C80.7655 124.117 80.7388 124.445 80.7055 124.642C80.6735 124.831 80.6253 124.973 80.5238 125.232C80.4225 125.491 80.2405 125.93 80.123 126.491C80.0027 127.066 79.959 127.706 80.008 128.491L84.0002 128.242ZM84.6908 123.103C84.5551 122.111 84.0105 120.904 82.6479 120.497C81.5328 120.165 80.5132 120.599 79.9326 120.934C78.6933 121.649 77.484 123.047 76.9693 124.538L80.7503 125.843C80.8315 125.608 81.0019 125.306 81.2509 125.007C81.5015 124.707 81.7573 124.499 81.9325 124.398C82.0181 124.349 82.0383 124.351 81.9917 124.362C81.9467 124.373 81.762 124.407 81.5041 124.33C81.2132 124.244 80.9791 124.058 80.8379 123.854C80.7174 123.679 80.7174 123.57 80.7277 123.645L84.6908 123.103ZM77.1631 124.132C76.7479 124.797 76.5633 125.466 76.4532 126.007C76.3991 126.273 76.3576 126.539 76.3233 126.757C76.2867 126.989 76.2562 127.182 76.2183 127.373C76.0883 128.029 75.8874 128.622 75.1372 129.317L77.8548 132.252C79.3885 130.832 79.8972 129.385 80.1419 128.151C80.1977 127.869 80.24 127.599 80.2746 127.379C80.3115 127.145 80.3397 126.968 80.373 126.804C80.4378 126.485 80.4994 126.341 80.5565 126.249L77.1631 124.132ZM75.6013 128.996C73.3041 130.145 72.0528 131.543 71.435 132.872C71.1331 133.521 71.0053 134.106 70.9597 134.564C70.937 134.792 70.9348 134.987 70.9409 135.142C70.9439 135.22 70.9491 135.287 70.9548 135.344C70.9577 135.373 70.9607 135.398 70.9637 135.422C70.9652 135.433 70.9667 135.444 70.9681 135.454C70.9689 135.459 70.9696 135.464 70.9703 135.469C70.9707 135.471 70.971 135.474 70.9714 135.476C70.9716 135.477 70.9718 135.479 70.9719 135.479C70.9722 135.481 70.9724 135.483 72.9481 135.171C74.9237 134.86 74.924 134.862 74.9242 134.864C74.9243 134.864 74.9246 134.866 74.9247 134.867C74.9251 134.869 74.9254 134.871 74.9257 134.873C74.9263 134.877 74.9269 134.881 74.9275 134.885C74.9286 134.893 74.9296 134.9 74.9305 134.907C74.9323 134.921 74.9337 134.933 74.9347 134.943C74.9367 134.964 74.9375 134.978 74.9378 134.985C74.9384 135 74.9371 134.99 74.94 134.96C74.9457 134.903 74.9681 134.76 75.062 134.558C75.2359 134.184 75.7585 133.389 77.3907 132.573L75.6013 128.996ZM70.9891 134.769C70.6301 136.514 71.664 139.053 74.3707 140.067L75.7741 136.321C75.3236 136.153 75.1167 135.909 75.0167 135.731C74.9613 135.633 74.9351 135.547 74.9249 135.493C74.9121 135.426 74.9316 135.455 74.9071 135.574L70.9891 134.769ZM75.0724 138.194C74.4394 140.091 74.4386 140.091 74.4378 140.091C74.4376 140.091 74.4368 140.091 74.4363 140.09C74.4353 140.09 74.4344 140.09 74.4334 140.09C74.4315 140.089 74.4298 140.088 74.4281 140.088C74.4248 140.087 74.4219 140.086 74.4194 140.085C74.4144 140.083 74.4109 140.082 74.409 140.081C74.4051 140.08 74.4067 140.08 74.4129 140.083C74.4259 140.088 74.4545 140.1 74.492 140.119C74.576 140.16 74.6548 140.211 74.7071 140.256C74.7603 140.303 74.7238 140.29 74.69 140.199C74.6434 140.073 74.6691 139.984 74.66 140.013L78.4739 141.219C78.7398 140.378 78.7161 139.552 78.4408 138.809C78.1783 138.1 77.7339 137.591 77.3446 137.249C76.9546 136.907 76.5567 136.678 76.2745 136.538C76.1289 136.465 76.002 136.41 75.9054 136.371C75.8568 136.352 75.815 136.336 75.7815 136.324C75.7646 136.318 75.7498 136.312 75.7371 136.308C75.7307 136.306 75.7249 136.304 75.7196 136.302C75.717 136.301 75.7145 136.3 75.7121 136.299C75.7109 136.299 75.7098 136.299 75.7086 136.298C75.7081 136.298 75.7073 136.298 75.707 136.298C75.7062 136.297 75.7054 136.297 75.0724 138.194ZM74.6908 139.923C74.7615 139.732 74.8597 139.657 74.7978 139.717C74.7685 139.745 74.7293 139.78 74.6481 139.849C74.584 139.904 74.4594 140.009 74.3433 140.12C74.165 140.289 73.5953 140.834 73.4789 141.718C73.3463 142.725 73.8617 143.469 74.2479 143.878L77.1564 141.132C77.1609 141.137 77.2515 141.231 77.3332 141.418C77.4248 141.627 77.4876 141.914 77.4447 142.24C77.404 142.549 77.2843 142.768 77.2076 142.882C77.1373 142.987 77.0808 143.036 77.1009 143.017C77.1222 142.997 77.1524 142.971 77.2479 142.889C77.3263 142.822 77.4515 142.715 77.5794 142.591C77.8318 142.347 78.2149 141.927 78.4431 141.309L74.6908 139.923ZM73.8144 143.165C73.9892 143.665 74.3031 143.994 74.4868 144.162C74.6994 144.357 74.9296 144.51 75.1444 144.629C75.5754 144.866 76.0911 145.045 76.643 145.132C77.7647 145.307 79.2468 145.117 80.4673 143.951L77.7047 141.058C77.627 141.133 77.5643 141.159 77.5112 141.173C77.4467 141.19 77.3607 141.195 77.2603 141.179C77.2117 141.172 77.1675 141.16 77.1313 141.148C77.0939 141.136 77.075 141.125 77.0753 141.126C77.0761 141.126 77.0858 141.131 77.1031 141.143C77.1196 141.155 77.1503 141.178 77.1901 141.214C77.2282 141.249 77.2891 141.31 77.3562 141.4C77.4206 141.487 77.5166 141.635 77.5899 141.844L73.8144 143.165ZM80.3074 144.088C80.3986 144.018 80.5052 143.953 80.5916 143.915C80.7002 143.866 80.6532 143.912 80.4794 143.909C80.3768 143.906 80.2108 143.886 80.0201 143.799C79.8198 143.707 79.6505 143.568 79.5289 143.409C79.3066 143.117 79.3655 142.929 79.3655 143.187H83.3655C83.3655 142.499 83.2376 141.676 82.7105 140.984C82.1174 140.206 81.2785 139.924 80.5608 139.909C79.9153 139.896 79.3474 140.089 78.955 140.265C78.5404 140.451 78.1659 140.689 77.8645 140.921L80.3074 144.088ZM79.3655 143.187C79.3655 143.702 79.3155 145.203 79.5639 146.42C79.6794 146.986 79.9325 147.913 80.6359 148.596C81.0359 148.985 81.5753 149.287 82.2321 149.369C82.862 149.447 83.4363 149.304 83.9057 149.096L82.2845 145.439C82.2856 145.438 82.3258 145.42 82.401 145.407C82.4785 145.392 82.5907 145.383 82.7271 145.4C83.0317 145.438 83.274 145.582 83.4235 145.728C83.5487 145.849 83.5772 145.938 83.5597 145.897C83.545 145.863 83.5149 145.776 83.4831 145.62C83.3379 144.908 83.3655 143.951 83.3655 143.187H79.3655ZM84.6423 148.535C86.2595 146.56 86.7932 145.071 86.602 143.616C86.5629 143.318 86.498 143.065 86.4612 142.921C86.4153 142.741 86.4158 142.735 86.4169 142.743C86.4229 142.789 86.4309 142.905 86.397 143.05C86.364 143.19 86.3129 143.265 86.3138 143.264L83.0252 140.987C82.4957 141.751 82.3534 142.524 82.4513 143.266C82.4878 143.544 82.5587 143.805 82.5854 143.91C82.6213 144.05 82.6311 144.099 82.6361 144.137C82.6369 144.142 82.6587 144.208 82.5709 144.434C82.4641 144.71 82.1983 145.206 81.5479 146L84.6423 148.535ZM86.4105 143.11C86.4993 142.953 86.5772 142.796 86.6344 142.68C86.6992 142.549 86.7394 142.466 86.7828 142.383C86.8241 142.305 86.8458 142.271 86.8524 142.261C86.8601 142.25 86.8285 142.3 86.7503 142.37C86.6667 142.445 86.517 142.553 86.2983 142.624C86.0703 142.698 85.8484 142.705 85.6666 142.674C85.4994 142.646 85.4074 142.593 85.4018 142.59C85.3965 142.587 85.445 142.615 85.5499 142.709L88.2239 139.734C87.7515 139.309 87.1214 138.864 86.3379 138.731C85.4035 138.572 84.619 138.91 84.0843 139.388C83.6414 139.784 83.3763 140.267 83.2429 140.521C83.0149 140.954 83.0549 140.917 82.9285 141.141L86.4105 143.11ZM85.4691 142.632C85.7386 142.903 85.8485 143.09 85.9003 143.196C85.9625 143.322 85.9797 143.396 86.0623 143.676C86.1213 143.876 86.307 144.583 86.9366 145.131C87.5586 145.673 88.2999 145.806 88.822 145.856L89.2005 141.874C88.9376 141.849 89.2277 141.823 89.5627 142.114C89.9053 142.412 89.9681 142.779 89.8991 142.545C89.8536 142.391 89.7375 141.936 89.4916 141.434C89.2354 140.912 88.8623 140.371 88.3048 139.811L85.4691 142.632ZM89.2342 145.852C90.075 145.758 90.693 145.382 91.137 144.992C91.4845 144.686 91.8469 144.24 91.9584 144.115C92.2409 143.796 92.4091 143.643 92.8924 143.579L92.3679 139.614C90.5627 139.853 89.5868 140.76 88.9645 141.462C88.6236 141.847 88.5935 141.902 88.4954 141.988C88.4936 141.99 88.6127 141.897 88.7883 141.877L89.2342 145.852ZM93.2909 143.484C93.4424 143.431 93.5986 143.369 93.7084 143.326C93.8329 143.277 93.9275 143.241 94.0169 143.209C94.1049 143.179 94.1625 143.162 94.1984 143.154C94.2354 143.146 94.2244 143.152 94.1774 143.152C94.1278 143.153 94.0215 143.149 93.8846 143.104C93.7395 143.056 93.5991 142.975 93.4829 142.869C93.2589 142.663 93.2823 142.512 93.3305 142.751L97.2517 141.961C97.1091 141.253 96.8127 140.496 96.1891 139.923C95.5218 139.31 94.7385 139.142 94.1063 139.153C93.528 139.163 93.0165 139.322 92.6973 139.433C92.5265 139.493 92.3657 139.556 92.2458 139.603C92.1113 139.656 92.0341 139.686 91.9694 139.709L93.2909 143.484ZM93.2919 142.298C93.27 143.066 93.3024 143.738 93.3118 144.158C93.3231 144.661 93.2967 144.755 93.3009 144.741C93.3129 144.7 93.3444 144.621 93.4081 144.536C93.47 144.454 93.5231 144.419 93.5209 144.421C93.4767 144.449 93.255 144.566 92.6076 144.721L93.5396 148.611C94.3158 148.425 95.0731 148.182 95.6991 147.775C96.4217 147.306 96.906 146.662 97.1393 145.867C97.332 145.21 97.3211 144.529 97.3108 144.068C97.2986 143.525 97.2722 143.044 97.2903 142.413L93.2919 142.298ZM91.8173 145.11C91.2017 145.607 90.662 146.07 90.258 146.518C89.8527 146.967 89.4127 147.584 89.2888 148.404C89.1632 149.236 89.4175 149.924 89.6219 150.368C89.8026 150.76 90.1017 151.269 90.2992 151.63L93.808 149.709C93.6809 149.477 93.5373 149.224 93.4526 149.071C93.3524 148.89 93.2932 148.777 93.2548 148.694C93.1741 148.518 93.2909 148.691 93.244 149.002C93.1989 149.3 93.0538 149.39 93.228 149.197C93.4036 149.003 93.7281 148.708 94.3299 148.222L91.8173 145.11ZM90.0575 150.545C90.0318 150.957 89.845 152.18 89.9838 153.603C90.1299 155.103 90.6119 156.897 91.7961 159.048L95.3002 157.119C94.3601 155.412 94.0549 154.139 93.9649 153.215C93.8675 152.216 93.9956 151.661 94.0497 150.794L90.0575 150.545ZM91.6632 158.752C91.9858 159.662 92.3124 160.406 92.5873 161.007C92.8839 161.655 93.0558 162.006 93.1708 162.311C93.288 162.623 93.1897 162.513 93.2399 162.239C93.31 161.858 93.5439 161.704 93.4632 161.764L95.8328 164.986C96.4218 164.553 97.0005 163.908 97.1742 162.961C97.3281 162.123 97.0924 161.375 96.9146 160.903C96.7347 160.425 96.4542 159.845 96.2247 159.343C95.9736 158.794 95.7003 158.169 95.4331 157.415L91.6632 158.752ZM93.2619 161.933C92.5568 162.611 91.6043 163.84 91.3436 165.301C91.2031 166.089 91.2543 167.023 91.7559 167.916C92.2534 168.803 93.0667 169.422 94.0268 169.829L95.5885 166.147C95.2115 165.987 95.1988 165.878 95.2439 165.958C95.2929 166.046 95.2651 166.096 95.2815 166.004C95.3019 165.89 95.3724 165.693 95.5296 165.441C95.6822 165.197 95.8702 164.974 96.0341 164.817L93.2619 161.933ZM93.7771 169.702C94.0515 169.867 94.283 170.024 94.4595 170.174C94.6469 170.334 94.6767 170.408 94.6615 170.376C94.6487 170.349 94.6241 170.286 94.6162 170.194C94.6079 170.098 94.6215 170.016 94.6391 169.961C94.6691 169.868 94.6642 169.991 94.3018 170.298L96.8835 173.353C97.5832 172.762 98.1682 172.051 98.4463 171.188C98.744 170.264 98.6196 169.385 98.2733 168.657C97.9533 167.985 97.4669 167.483 97.0575 167.133C96.6373 166.774 96.1913 166.486 95.8383 166.274L93.7771 169.702ZM94.5385 170.126C93.729 170.628 92.7043 171.613 92.3218 172.878C92.109 173.581 92.0661 174.503 92.5698 175.391C93.056 176.249 93.8703 176.753 94.6967 177.043L96.0185 173.267C95.7428 173.171 95.898 173.151 96.0498 173.419C96.1244 173.551 96.1618 173.693 96.1696 173.819C96.1768 173.938 96.157 174.014 96.1505 174.036C96.143 174.06 96.1671 173.98 96.2939 173.834C96.4133 173.696 96.5504 173.585 96.6468 173.525L94.5385 170.126ZM94.1873 176.777C94.8407 177.248 94.9523 177.547 95.4792 178.202C95.7392 178.526 96.1818 179.017 96.9038 179.306C97.6184 179.592 98.3416 179.577 98.9916 179.468L98.3316 175.523C98.0768 175.566 98.1703 175.504 98.3903 175.592C98.6177 175.683 98.7007 175.825 98.5966 175.696C98.395 175.445 97.7593 174.422 96.5279 173.533L94.1873 176.777ZM98.9664 179.472C98.9619 179.473 98.9716 179.472 98.9903 179.47C99.0087 179.469 99.0231 179.469 99.0303 179.47C99.0881 179.472 98.952 179.48 98.7347 179.375C98.6097 179.315 98.4047 179.191 98.2167 178.958C98.0139 178.705 97.8908 178.398 97.8623 178.084C97.8125 177.538 98.0655 177.264 97.9603 177.415L101.243 179.7C101.533 179.284 101.924 178.585 101.846 177.722C101.749 176.66 101.034 176.044 100.473 175.773C99.9811 175.535 99.4913 175.486 99.2054 175.474C98.8869 175.46 98.5879 175.484 98.3568 175.519L98.9664 179.472ZM98.261 177.073C97.7759 177.512 97.536 177.628 97.4444 177.665C97.3471 177.705 97.2902 177.715 96.8671 177.768C96.4359 177.822 95.8437 177.906 95.0765 178.199C94.3347 178.481 93.5018 178.929 92.4856 179.636L94.7704 182.919C95.6013 182.341 96.1438 182.072 96.4998 181.937C96.8303 181.811 97.0583 181.776 97.3638 181.737C97.6775 181.698 98.2739 181.644 98.9407 181.375C99.6131 181.104 100.248 180.669 100.943 180.041L98.261 177.073ZM92.6698 179.522C92.2189 179.768 91.7954 180.047 91.4419 180.373C91.1003 180.688 90.7113 181.149 90.5251 181.779C90.3158 182.486 90.4242 183.204 90.7761 183.798C91.0883 184.325 91.5303 184.656 91.8725 184.858C92.5505 185.259 93.3789 185.466 94.1073 185.579C94.8771 185.697 95.7247 185.737 96.5538 185.697L96.3611 181.702C95.7755 181.73 95.1978 181.7 94.7165 181.625C94.4772 181.589 94.2805 181.544 94.13 181.498C94.0557 181.476 93.9993 181.455 93.9591 181.438C93.9182 181.421 93.9023 181.412 93.9056 181.414C93.9077 181.415 93.9436 181.436 93.9967 181.484C94.0499 181.532 94.1355 181.621 94.2174 181.759C94.4129 182.089 94.4778 182.518 94.3608 182.913C94.267 183.231 94.1063 183.357 94.152 183.315C94.1858 183.284 94.3086 183.185 94.5862 183.033L92.6698 179.522ZM96.6618 185.689C96.7809 185.677 96.8224 185.692 96.8265 185.693C96.843 185.698 96.8867 185.712 97.0133 185.791C97.0938 185.841 97.1417 185.874 97.268 185.956C97.3713 186.023 97.519 186.117 97.6878 186.206C98.0426 186.395 98.5577 186.603 99.2115 186.603V182.603C99.4329 182.603 99.5744 182.679 99.5653 182.674C99.454 182.615 99.4889 182.621 99.128 182.396C98.5189 182.017 97.5991 181.571 96.2531 181.71L96.6618 185.689ZM99.585 186.568C100.048 186.48 100.379 186.325 100.608 186.202C100.849 186.072 100.757 186.119 100.732 186.129C100.583 186.182 100.683 186.071 101.693 186.209L102.238 182.247C101.044 182.083 100.159 182.084 99.3809 182.364C99.0405 182.486 98.7223 182.674 98.7182 182.676C98.7017 182.685 98.7671 182.652 98.838 182.638L99.585 186.568ZM102.604 186.123C102.692 186.094 102.148 186.299 101.564 185.834C101.305 185.628 101.177 185.387 101.119 185.225C101.065 185.072 101.064 184.97 101.064 184.953C101.064 184.929 101.062 185.017 100.994 185.184C100.93 185.342 100.847 185.469 100.785 185.539L103.768 188.204C104.525 187.356 105.063 186.102 105.064 184.957C105.064 184.398 104.927 183.399 104.055 182.704C103.118 181.959 102.025 182.098 101.327 182.333L102.604 186.123ZM100.58 187.931C101.398 189.241 102.325 190.34 103.99 190.967C105.444 191.514 107.316 191.635 109.785 191.672L109.846 187.673C107.295 187.634 106.106 187.49 105.4 187.224C104.906 187.038 104.573 186.774 103.972 185.812L100.58 187.931ZM109.86 191.672C112.212 191.62 113.835 190.61 115.057 189.592C115.613 189.13 116.193 188.568 116.59 188.208C117.042 187.798 117.393 187.517 117.729 187.326L115.748 183.85C115.021 184.265 114.408 184.787 113.903 185.245C113.344 185.752 112.975 186.121 112.497 186.519C111.654 187.221 110.878 187.648 109.771 187.673L109.86 191.672ZM118.216 186.935C118.254 186.895 118.212 186.948 118.107 187.021C118.049 187.061 117.973 187.107 117.88 187.148C117.786 187.191 117.692 187.221 117.603 187.241C117.442 187.277 117.329 187.272 117.375 187.272C117.396 187.272 117.418 187.273 117.48 187.274C117.535 187.275 117.608 187.277 117.692 187.277V183.277C117.653 183.277 117.616 183.276 117.569 183.275C117.53 183.274 117.461 183.272 117.396 183.272C117.272 183.271 117.016 183.273 116.72 183.339C115.995 183.504 115.537 183.937 115.26 184.241L118.216 186.935ZM119.022 186.77C119.702 186.165 121.187 185.475 123.34 184.768L122.092 180.968C119.962 181.668 117.731 182.564 116.362 183.783L119.022 186.77ZM122.716 184.868C123.027 184.868 123.278 184.966 124.025 185.325C124.716 185.657 125.785 186.177 127.222 186.177V182.177C126.775 182.177 126.429 182.042 125.757 181.719C125.142 181.424 124.082 180.868 122.716 180.868V184.868ZM126.356 185.979C127.012 186.295 127.285 186.557 127.476 186.816C127.72 187.148 127.926 187.599 128.298 188.541L132.018 187.069C131.672 186.194 131.297 185.258 130.696 184.443C130.042 183.555 129.207 182.912 128.089 182.374L126.356 185.979ZM130.158 189.805C130.871 189.805 133.159 190.175 135.61 188.866L133.727 185.337C132.409 186.041 131.548 185.805 130.158 185.805V189.805ZM135.731 188.796C137.172 187.892 139.08 187.352 141.326 186.936L140.597 183.003C138.24 183.44 135.712 184.086 133.606 185.407L135.731 188.796ZM141.856 186.759C142.978 186.198 143.415 186.025 143.747 185.947C144.065 185.872 144.363 185.861 145.365 185.861V181.861C144.483 181.861 143.688 181.851 142.83 182.053C141.986 182.252 141.163 182.633 140.067 183.181L141.856 186.759ZM143.942 185.266C144.972 186.31 145.287 186.646 145.467 186.963C145.583 187.169 145.692 187.454 145.785 188.565L149.771 188.23C149.669 187.022 149.516 185.996 148.947 184.992C148.442 184.1 147.648 183.327 146.789 182.456L143.942 185.266ZM145.843 188.902C146.329 190.765 147.243 191.911 148.511 192.568C149.053 192.848 149.593 193.001 149.952 193.102C150.368 193.219 150.563 193.272 150.74 193.35L152.365 189.695C151.86 189.471 151.335 189.335 151.031 189.25C150.67 189.149 150.489 189.088 150.35 189.016C150.246 188.962 150.17 188.903 150.09 188.796C149.998 188.672 149.849 188.414 149.713 187.893L145.843 188.902ZM152.033 193.464C152.948 193.238 153.839 192.927 154.695 192.536L153.031 188.898C152.403 189.185 151.747 189.414 151.072 189.581L152.033 193.464ZM155.684 191.544C156.033 190.776 156.159 190.667 156.173 190.655C156.179 190.648 156.212 190.618 156.346 190.544C156.506 190.455 156.693 190.367 157.045 190.195L155.293 186.6C154.792 186.844 154.06 187.162 153.463 187.712C152.822 188.303 152.425 189.047 152.042 189.89L155.684 191.544ZM156.169 190.398C158.46 190.398 160.026 189.822 161.216 188.864C161.767 188.421 162.177 187.942 162.483 187.571C162.824 187.156 162.989 186.939 163.198 186.734L160.395 183.88C159.988 184.28 159.622 184.752 159.393 185.03C159.129 185.352 158.93 185.57 158.709 185.748C158.355 186.033 157.723 186.398 156.169 186.398V190.398Z" fill="white" mask="url(#path-1-outside-1_430_1933)"/>
<path d="M160.194 112.108L160.156 112.166C159.777 112.78 159.429 113.276 159.118 113.644C158.873 113.934 158.681 114.111 158.544 114.209C158.515 114.147 158.48 114.061 158.443 113.945L158.273 113.628C158.251 113.6 158.223 113.563 158.19 113.52C158.072 113.365 157.894 113.132 157.725 112.968C157.443 112.694 157.051 112.451 156.508 112.423C156.026 112.398 155.538 112.551 155.048 112.78C154.547 113.015 153.946 113.376 153.209 113.879C152.956 114.049 152.681 114.232 152.389 114.426C150.991 115.356 149.215 116.538 147.726 117.746C146.824 118.476 145.981 119.252 145.373 120.027C144.84 120.706 144.357 121.546 144.37 122.446L144.226 122.537C144.273 123.303 144.507 125.367 145.853 126.862C145.856 126.875 145.859 126.889 145.862 126.903C145.925 127.161 146.042 127.495 146.261 127.865C146.666 128.55 147.385 129.306 148.627 129.95C148.92 130.742 149.189 131.713 149.303 132.668C149.436 133.781 149.338 134.718 148.986 135.346C147.176 138.029 145.803 140.925 145.692 144.107L145.707 144.318C146.025 146.097 146.503 148.477 147.105 150.637C147.406 151.717 147.743 152.76 148.112 153.654C148.473 154.527 148.9 155.345 149.415 155.905L149.442 155.933C151.353 157.851 152.709 158.415 154.404 159.12C154.956 159.35 155.545 159.594 156.2 159.906C156.379 160.062 156.555 160.205 156.712 160.333L156.754 160.368C156.962 160.537 157.132 160.677 157.28 160.818C157.566 161.089 157.71 161.305 157.776 161.559C157.844 161.825 157.859 162.263 157.623 163.029C157.387 163.797 156.919 164.828 156.102 166.237L156.033 166.382C155.214 168.524 155.233 171.447 155.565 173.361L155.827 173.881C156.504 174.589 157.347 174.978 157.942 175.252C158.038 175.297 158.128 175.338 158.209 175.377C158.789 175.657 159.003 175.834 159.099 176.071C159.112 177.727 159.326 179.685 159.651 181.428C159.978 183.179 160.446 184.885 161.021 185.819L161.447 185.556L161.691 186.317C163.295 186.554 167.258 187.1 169.629 187.1L169.723 187.095C170.445 187.027 171.172 187.13 171.841 187.395C172.509 187.66 173.095 188.077 173.549 188.606L173.575 188.635C173.703 188.772 173.833 188.925 173.972 189.097L174.725 189.47C176.95 189.528 179.153 189.021 181.113 187.996L181.458 187.699C181.642 187.447 181.818 187.2 181.989 186.96C182.629 186.065 183.199 185.267 183.859 184.618C184.645 183.845 185.471 183.381 186.546 183.344C186.671 183.349 186.8 183.354 186.929 183.36C187.304 183.376 187.683 183.393 188 183.383C188.435 183.368 189.005 183.305 189.486 182.952C190.013 182.564 190.231 181.985 190.303 181.392C190.373 180.818 190.324 180.107 190.198 179.252L190.187 179.19C190.162 179.07 190.137 178.95 190.111 178.829C189.802 177.354 189.49 175.867 188.802 174.708C188.001 173.358 186.74 172.499 184.742 172.219C183.274 171.645 182.684 171.375 182.319 170.68C182.119 170.298 181.957 169.718 181.895 168.76C181.834 167.835 181.869 166.616 182.012 164.98C182.321 164.227 182.429 163.217 182.499 162.278C182.53 161.864 182.555 161.451 182.579 161.038C182.618 160.373 182.657 159.707 182.725 159.036C183.074 157.932 183.362 156.703 183.215 155.426C183.062 154.106 182.457 152.833 181.204 151.626C180.644 150.638 180.612 150.138 180.67 149.884C180.723 149.653 180.906 149.383 181.479 149.002C182.565 148.633 183.577 148.188 184.185 147.261C184.813 146.303 184.862 145.061 184.695 143.523L184.652 143.322C184.295 142.223 184.331 141.423 184.546 140.972C184.692 140.665 184.995 140.361 185.754 140.322C186.451 140.778 187.394 141.237 188.357 141.434C189.438 141.656 190.852 141.588 191.746 140.367L191.93 139.905C192.006 139.32 192.128 138.788 192.259 138.217C192.321 137.95 192.384 137.673 192.446 137.378C192.601 136.637 192.73 135.83 192.68 134.971C193.496 134.173 194.621 134.125 196.079 134.196L196.168 134.197C198.966 134.082 200.045 133.81 200.783 133.508C200.955 133.437 201.062 133.389 201.144 133.351C201.26 133.299 201.325 133.269 201.455 133.232C201.622 133.185 201.9 133.136 202.5 133.136L202.674 133.121C202.674 133.121 202.674 133.121 202.674 133.121L202.673 133.121L202.671 133.121L202.667 133.122L202.663 133.123L202.661 133.123C202.664 133.122 202.672 133.121 202.686 133.12C202.714 133.117 202.762 133.114 202.821 133.115C202.946 133.117 203.092 133.135 203.226 133.186C203.35 133.233 203.459 133.305 203.547 133.427C203.636 133.55 203.752 133.789 203.782 134.244L204.268 135.037C204.793 135.35 205.267 135.538 205.782 135.619C206.272 135.697 206.747 135.667 207.216 135.631L207.87 135.317C208.005 135.173 208.12 135.045 208.222 134.933C208.714 134.39 208.898 134.187 209.536 134.006L209.872 133.838C210.111 133.654 210.317 133.505 210.522 133.357C210.655 133.261 210.788 133.165 210.929 133.06C211.255 132.817 211.591 132.552 211.879 132.237C212.52 131.537 212.827 130.701 212.777 129.523L212.777 129.517C212.761 129.176 212.744 128.867 212.728 128.584C212.665 127.439 212.625 126.723 212.753 126.023C212.898 125.236 213.276 124.426 214.362 123.09C214.943 122.382 215.45 121.626 215.967 120.854C216.008 120.793 216.049 120.732 216.089 120.671C216.652 119.831 217.256 118.945 218.043 117.971C218.182 117.82 218.325 117.666 218.469 117.509C220.1 115.744 222.011 113.676 223.676 112.345L223.691 110.796C222.184 109.542 220.574 108.409 218.876 107.407L218.862 107.399C216.722 106.185 213.373 105.163 211.113 104.746C210.682 104.565 210.426 104.416 210.282 104.302C210.243 104.271 210.216 104.247 210.199 104.229C210.206 104.208 210.216 104.179 210.233 104.141C210.3 103.986 210.426 103.78 210.635 103.483C210.839 103.217 211.037 102.883 211.108 102.484C211.188 102.038 211.095 101.604 210.856 101.222C210.634 100.869 210.308 100.592 209.957 100.363C209.599 100.13 209.157 99.9105 208.64 99.696L208.266 99.6197C202.742 99.5694 201.205 99.8585 199.303 100.425C199.182 100.425 199.051 100.425 198.911 100.425C198.018 100.423 196.771 100.42 195.533 100.451C194.154 100.486 192.677 100.564 191.707 100.763C191.321 100.68 190.86 100.413 190.345 99.9147C189.78 99.3687 189.242 98.6332 188.77 97.8517L188.619 97.6597C188.26 97.3017 187.967 96.9788 187.696 96.6796L187.68 96.6623C187.423 96.3785 187.163 96.0914 186.899 95.8481C186.309 95.3061 185.655 94.9446 184.689 94.9022C184.138 94.8402 183.587 94.921 183.097 95.2452C182.617 95.5629 182.317 96.0358 182.108 96.5112C181.735 97.3581 181.497 98.599 181.22 100.042C181.201 100.142 181.182 100.244 181.162 100.346L181.158 100.367C180.93 101.717 180.655 102.188 180.449 102.389C180.259 102.575 180.005 102.667 179.271 102.813H173.172C173.127 102.813 173.003 102.792 172.787 102.662C172.577 102.535 172.342 102.341 172.093 102.092C171.597 101.595 171.147 100.979 170.858 100.548L169.611 100.928L169.229 100.641C168.815 101.19 167.63 102.672 166.228 104.425C165.798 104.963 165.346 105.527 164.891 106.097C162.973 108.5 160.972 111.021 160.194 112.108ZM210.17 104.193C210.17 104.193 210.171 104.195 210.173 104.198C210.171 104.195 210.17 104.193 210.17 104.193ZM210.189 104.271C210.189 104.272 210.189 104.273 210.189 104.273L210.189 104.271Z" fill="#423154" stroke="white" stroke-width="2" stroke-linejoin="bevel"/>
</svg>
