<svg width="1323" height="564" viewBox="0 0 1323 564" fill="none" xmlns="http://www.w3.org/2000/svg">
<path d="M77.67 464.73C74.25 465.23 70.3999 465.34 67.4099 465.34L67.1899 464.12C68.5199 464.12 70.03 464.1 71.58 464.05V462.52C69.62 462.29 68.27 461.04 68.27 459.28C68.27 457.32 69.9399 456 72.3199 456C74.6999 456 76.37 457.31 76.37 459.28C76.37 461.04 75.0399 462.29 73.0599 462.52V464C74.6099 463.93 76.14 463.84 77.58 463.66L77.67 464.73ZM72.33 461.42C73.88 461.42 74.9999 460.56 74.9999 459.28C74.9999 458 73.88 457.16 72.33 457.16C70.75 457.16 69.67 458.01 69.67 459.28C69.67 460.55 70.74 461.42 72.33 461.42ZM80.86 469.96V471.17H69.8V466.62H71.2799V469.97H80.86V469.96ZM80.3399 467.45H78.86V455.37H80.3399V467.45Z" fill="white"/>
<path d="M98.3399 463.37V464.56H83.68V463.37H90.2299V461.75H91.7199V463.37H98.3399ZM84.17 460.68C86.04 460.07 87.14 458.59 87.14 457.51V457.15H84.64V455.94H90.65V457.15H88.62V457.42C88.62 458.3 89.4999 459.6 90.9999 460.25C92.4799 459.6 93.3399 458.36 93.3399 457.42V457.15H91.3099V455.94H97.3399V457.15H94.8V457.51C94.8 458.73 95.9199 460.12 97.8099 460.68L97.1599 461.78C95.5799 461.29 94.5099 460.25 94.0099 459.08C93.5099 460.11 92.4999 461.08 90.9999 461.55C89.4699 461.06 88.4599 460.05 87.9399 459.03C87.4399 460.16 86.3899 461.26 84.8099 461.78L84.17 460.68ZM85.2799 466.28H96.4399V471.54H94.96V467.47H85.27V466.28H85.2799Z" fill="white"/>
<path d="M104.92 456.99H112.32V467.41H104.92V456.99ZM106.36 466.23H110.88V458.18H106.36V466.23ZM119.36 463.06H116.69V471.52H115.21V455.39H116.69V461.82H119.36V463.06Z" fill="white"/>
<path d="M135.45 465.85H128.84V471.54H127.36V465.85H120.82V464.63H135.44V465.85H135.45ZM122.47 459.55C122.47 457.39 124.76 456.02 128.11 456.02C131.48 456.02 133.76 457.39 133.76 459.55C133.76 461.73 131.47 463.1 128.11 463.1C124.76 463.1 122.47 461.73 122.47 459.55ZM123.98 459.55C123.98 460.99 125.65 461.91 128.1 461.91C130.57 461.91 132.24 460.99 132.24 459.55C132.24 458.13 130.57 457.21 128.1 457.21C125.66 457.21 123.98 458.13 123.98 459.55Z" fill="white"/>
<path d="M152.03 468.14V469.36H137.39V468.14H152.03ZM150.65 464.72C148.2 464.16 145.68 462.43 144.65 460.06C143.62 462.42 141.1 464.15 138.67 464.72L138 463.5C140.83 462.94 143.87 460.51 143.87 457.76V456.52H145.42V457.76C145.42 460.51 148.48 462.96 151.31 463.5L150.65 464.72Z" fill="white"/>
<path d="M171.29 455.37V471.56H169.81V462.56H166.03V467.48H158.63V456.66H160.09V460.86H164.59V456.66H166.03V461.38H169.81V455.38H171.29V455.37ZM164.59 462.02H160.09V466.27H164.59V462.02Z" fill="white"/>
<path d="M189.13 464.32V465.51H174.53V464.32H189.13ZM177.89 469.96H187.61V471.17H176.41V466.69H177.89V469.96V469.96ZM187.42 462.81H176.45V455.97H187.33V457.12H177.93V458.81H186.9V459.93H177.93V461.66H187.42V462.81Z" fill="white"/>
<path d="M205.71 462.34V463.53H191.09V462.34H205.71ZM192.73 458.45C192.73 456.63 194.85 455.64 198.4 455.64C201.95 455.64 204.07 456.63 204.07 458.45C204.07 460.27 201.95 461.24 198.4 461.24C194.85 461.24 192.73 460.27 192.73 458.45ZM194.35 470.19H204.33V471.34H192.91V467.47H202.38V466.03H192.86V464.91H203.84V468.55H194.35V470.19V470.19ZM194.24 458.45C194.24 459.53 195.75 460.14 198.4 460.14C201.05 460.14 202.56 459.53 202.56 458.45C202.56 457.37 201.05 456.76 198.4 456.76C195.75 456.76 194.24 457.37 194.24 458.45Z" fill="white"/>
<path d="M226.35 465.64H219.71V471.53H218.23V465.64H211.68V464.43H226.35V465.64ZM224.66 462H213.57V456.2H215.06V460.79H224.66V462Z" fill="white"/>
<path d="M242.9 464.32V465.53H228.24V464.32H242.9ZM239.57 457.06H230.1V455.91H241.03V459.92H231.59V461.68H241.37V462.83H230.13V458.82H239.57V457.06V457.06ZM231.64 469.96H241.36V471.17H230.16V466.78H231.64V469.96Z" fill="white"/>
<path d="M257.4 464.12C255.65 463.47 254.27 462.14 253.55 460.48C252.88 462.37 251.44 463.85 249.55 464.57L248.78 463.4C251.23 462.52 252.8 460.32 252.8 457.85V456.19H254.28V457.97C254.28 460.15 255.86 462.17 258.19 462.96L257.4 464.12ZM261.56 468.57C261.56 470.44 259.53 471.51 256.25 471.51C252.96 471.51 250.92 470.45 250.92 468.57C250.92 466.68 252.95 465.62 256.25 465.62C259.53 465.62 261.56 466.68 261.56 468.57ZM260.08 468.57C260.08 467.44 258.62 466.77 256.25 466.77C253.86 466.77 252.4 467.44 252.4 468.57C252.4 469.69 253.86 470.35 256.25 470.35C258.63 470.35 260.08 469.69 260.08 468.57ZM263.78 459.55V460.77H261.38V465.16H259.9V455.38H261.38V459.54H263.78V459.55Z" fill="white"/>
<path d="M267.46 466.3C269.82 466.3 271.26 466.23 272.99 465.89L273.13 467.11C271.26 467.47 269.71 467.52 267.1 467.52H266.04V457.22H272.41V458.43H267.46V461.49H272.16V462.66H267.46V466.3ZM279.13 455.37V471.52H277.73V463.06H275.59V470.73H274.19V455.73H275.59V461.85H277.73V455.37H279.13V455.37Z" fill="white"/>
<path d="M296.63 468.32V469.53H281.96V468.32H288.53V465.27H283.79V460.28H293.37V457.76H283.76V456.55H294.82V461.47H285.26V464.08H295.2V465.27H290.03V468.31H296.63V468.32Z" fill="white"/>
<path d="M77.58 482.99H84.9799V493.41H77.58V482.99ZM79.02 492.23H83.5399V484.18H79.02V492.23ZM92.02 489.06H89.3499V497.52H87.87V481.39H89.3499V487.82H92.02V489.06Z" fill="white"/>
<path d="M108.11 491.85H101.5V497.54H100.02V491.85H93.4799V490.63H108.1V491.85H108.11ZM95.1299 485.55C95.1299 483.39 97.42 482.02 100.77 482.02C104.14 482.02 106.42 483.39 106.42 485.55C106.42 487.73 104.13 489.1 100.77 489.1C97.42 489.1 95.1299 487.73 95.1299 485.55ZM96.64 485.55C96.64 486.99 98.3099 487.91 100.76 487.91C103.23 487.91 104.9 486.99 104.9 485.55C104.9 484.13 103.23 483.21 100.76 483.21C98.3199 483.21 96.64 484.13 96.64 485.55Z" fill="white"/>
<path d="M124.69 494.14V495.36H110.05V494.14H124.69ZM123.3 490.72C120.85 490.16 118.33 488.43 117.3 486.06C116.27 488.42 113.75 490.15 111.32 490.72L110.65 489.5C113.48 488.94 116.52 486.51 116.52 483.76V482.52H118.07V483.76C118.07 486.51 121.13 488.96 123.96 489.5L123.3 490.72Z" fill="white"/>
<path d="M141.25 488.88V490H126.61V488.88H141.25ZM129.85 496.24H139.93V497.3H128.39V493.72H137.97V492.37H128.35V491.31H139.42V494.75H129.84V496.24H129.85ZM137.92 482.88H128.45V481.84H139.38V485.21H129.94V486.6H139.66V487.66H128.48V484.2H137.92V482.88Z" fill="white"/>
<path d="M155.25 490.16V492H160.02V497.31H149V492H153.77V490.16H147.2V488.97H161.8V490.16H155.25ZM148.82 484.72C148.82 482.79 151 481.68 154.51 481.68C157.98 481.68 160.16 482.8 160.16 484.72C160.16 486.63 157.98 487.73 154.51 487.73C151 487.73 148.82 486.63 148.82 484.72ZM150.34 484.72C150.34 485.89 151.94 486.59 154.52 486.59C157.06 486.59 158.66 485.89 158.66 484.72C158.66 483.53 157.06 482.83 154.52 482.83C151.94 482.83 150.34 483.53 150.34 484.72ZM158.58 493.17H150.44V496.12H158.58V493.17Z" fill="white"/>
<path d="M172.91 490.43C171.06 489.78 169.58 488.45 168.84 486.76C168.16 488.6 166.66 490.04 164.75 490.74L163.98 489.59C166.43 488.73 168.07 486.62 168.07 484.35V483.7H164.38V482.51H173.24V483.7H169.58V484.35C169.58 486.51 171.25 488.47 173.63 489.27L172.91 490.43ZM166.21 492H177.01V497.53H175.53V493.19H166.2V492H166.21ZM177.02 481.37V491.15H175.54V481.37H177.02Z" fill="white"/>
<path d="M193.63 481.37V497.56H192.15V491.29H188.12C187.45 492.93 186.19 493.88 184.64 493.88C182.28 493.88 180.61 491.68 180.61 488.24C180.61 484.8 182.28 482.6 184.64 482.6C186.13 482.6 187.32 483.46 188.01 484.98H192.15V481.36H193.63V481.37ZM187.27 488.25C187.27 485.64 186.17 483.95 184.64 483.95C183.09 483.95 182.01 485.64 182.01 488.25C182.01 490.88 183.09 492.57 184.64 492.57C186.18 492.57 187.27 490.88 187.27 488.25ZM192.15 490.09V486.2H188.42C188.56 486.83 188.65 487.51 188.65 488.25C188.65 488.92 188.58 489.53 188.47 490.09H192.15Z" fill="white"/>
<path d="M208.96 489.35V490.95H213.64V494.57H204.15V496.19H214.13V497.32H202.71V493.49H212.18V492.07H202.66V490.95H207.49V489.35H200.9V488.16H215.52V489.35H208.96ZM213.79 486.86H202.86V481.98H213.63V483.17H204.34V485.67H213.79V486.86V486.86Z" fill="white"/>
<path d="M219.53 492.43C222.28 492.43 224.25 492.32 226.57 491.91L226.71 493.13C224.28 493.56 222.23 493.65 219.31 493.65H218.07V487.33H223.81V484.07H218.03V482.86H225.25V488.51H219.52V492.43H219.53ZM230.76 481.35V497.54H229.28V488.79H226.2V487.58H229.28V481.35H230.76Z" fill="white"/>
<path d="M248.67 494.25V495.46H234.03V494.25H240.58V490.77H235.75V482.52H237.21V485.4H245.46V482.52H246.9V490.77H242.07V494.25H248.67ZM237.22 489.58H245.47V486.61H237.22V489.58Z" fill="white"/>
<path d="M255.38 485.93C255.38 488.52 256.59 491.26 258.71 492.56L257.86 493.71C256.33 492.77 255.25 491.06 254.67 489.1C254.09 491.24 252.92 493.08 251.32 494.07L250.4 492.95C252.61 491.65 253.95 488.75 253.95 485.98V482.9H255.37V485.93H255.38ZM259.63 481.73H261.02V496.73H259.63V488.39H256.96V487.17H259.63V481.73ZM264.32 481.37V497.52H262.92V481.37H264.32Z" fill="white"/>
<path d="M281.81 494.23V495.45H267.14V494.23H270.74V489.87C269.39 489.17 268.58 488 268.58 486.54C268.58 484.02 271.03 482.4 274.45 482.4C277.89 482.4 280.32 484.02 280.32 486.54C280.32 488 279.53 489.15 278.2 489.85V494.23H281.81V494.23ZM270 486.54C270 488.34 271.85 489.53 274.45 489.53C277.05 489.53 278.92 488.34 278.92 486.54C278.92 484.74 277.05 483.55 274.45 483.55C271.85 483.55 270 484.74 270 486.54ZM272.21 494.23H276.71V490.43C276.03 490.59 275.25 490.68 274.44 490.68C273.65 490.68 272.87 490.59 272.21 490.43V494.23Z" fill="white"/>
<path d="M284.08 495.18C284.08 494.44 284.62 493.9 285.27 493.9C285.92 493.9 286.46 494.44 286.46 495.18C286.46 495.92 285.92 496.42 285.27 496.42C284.62 496.42 284.08 495.92 284.08 495.18Z" fill="white"/>
<path d="M385.52 456.99H392.92V467.41H385.52V456.99ZM386.96 466.23H391.48V458.18H386.96V466.23ZM399.96 463.06H397.29V471.52H395.81V455.39H397.29V461.82H399.96V463.06Z" fill="white"/>
<path d="M416.06 465.85H409.45V471.54H407.97V465.85H401.43V464.63H416.05V465.85H416.06ZM403.07 459.55C403.07 457.39 405.36 456.02 408.71 456.02C412.08 456.02 414.36 457.39 414.36 459.55C414.36 461.73 412.07 463.1 408.71 463.1C405.36 463.1 403.07 461.73 403.07 459.55ZM404.59 459.55C404.59 460.99 406.26 461.91 408.71 461.91C411.18 461.91 412.85 460.99 412.85 459.55C412.85 458.13 411.18 457.21 408.71 457.21C406.26 457.21 404.59 458.13 404.59 459.55Z" fill="white"/>
<path d="M432.63 468.14V469.36H417.99V468.14H432.63ZM431.25 464.72C428.8 464.16 426.28 462.43 425.25 460.06C424.22 462.42 421.7 464.15 419.27 464.72L418.6 463.5C421.43 462.94 424.47 460.51 424.47 457.76V456.52H426.02V457.76C426.02 460.51 429.08 462.96 431.91 463.5L431.25 464.72Z" fill="white"/>
<path d="M452.27 470.28V471.34H441.11V467.94H450.27V466.68H441.07V465.64H443.23V464.33C441.66 464.4 440.15 464.4 438.84 464.4L438.66 463.3C441.7 463.3 445.66 463.28 449.12 462.87L449.21 463.82C447.73 464.04 446.19 464.18 444.71 464.27V465.64H451.73V468.93H442.57V470.28H452.27V470.28ZM448.64 457.68H439.3V456.62H443.22V455.18H444.7V456.62H448.64V457.68ZM443.95 458.2C446.25 458.2 447.75 459.01 447.75 460.38C447.75 461.75 446.26 462.56 443.95 462.56C441.66 462.56 440.17 461.75 440.17 460.38C440.17 459.01 441.67 458.2 443.95 458.2ZM443.95 459.19C442.49 459.19 441.57 459.64 441.57 460.38C441.57 461.12 442.49 461.57 443.95 461.57C445.44 461.57 446.36 461.12 446.36 460.38C446.36 459.64 445.45 459.19 443.95 459.19ZM451.73 464.95H450.25V455.39H451.73V464.95Z" fill="white"/>
<path d="M455.85 464.59C455.85 461.06 456.84 458.14 458.5 455.46L459.53 455.93C457.96 458.51 457.23 461.53 457.23 464.59C457.23 467.65 457.97 470.69 459.53 473.25L458.5 473.74C456.84 471.04 455.85 468.14 455.85 464.59Z" fill="white"/>
<path d="M475.87 468.14V469.36H461.23V468.14H475.87ZM474.48 464.72C472.03 464.16 469.51 462.43 468.48 460.06C467.45 462.42 464.93 464.15 462.5 464.72L461.83 463.5C464.66 462.94 467.7 460.51 467.7 457.76V456.52H469.25V457.76C469.25 460.51 472.31 462.96 475.14 463.5L474.48 464.72Z" fill="white"/>
<path d="M492.41 468.07V469.27H477.81V468.06H492.41V468.07ZM489.14 461.49C489.18 460.64 489.18 459.82 489.18 458.99V458.22H479.55V457.01H490.62V458.99C490.62 461.38 490.62 463.56 489.92 466.88L488.48 466.74C488.82 465.19 489 463.86 489.09 462.62L479.35 463.16L479.13 461.94L489.14 461.49Z" fill="white"/>
<path d="M508.99 462.97V464.09H494.33V462.97H500.92V461.66H496.22V458.19H505.66V456.88H496.19V455.84H507.12V459.21H497.68V460.62H507.4V461.68H502.41V462.99H508.99V462.97ZM497.59 470.26H507.67V471.34H496.13V467.74H505.71V466.39H496.09V465.33H507.16V468.77H497.58V470.26H497.59Z" fill="white"/>
<path d="M510.73 473.25C512.28 470.69 513.03 467.65 513.03 464.59C513.03 461.53 512.27 458.5 510.73 455.93L511.74 455.46C513.41 458.14 514.4 461.06 514.4 464.59C514.4 468.14 513.41 471.04 511.74 473.74L510.73 473.25Z" fill="white"/>
<path d="M531.65 468.32V469.53H516.98V468.32H523.55V465.27H518.81V460.28H528.39V457.76H518.78V456.55H529.84V461.47H520.28V464.08H530.22V465.27H525.05V468.31H531.65V468.32Z" fill="white"/>
<path d="M547.78 465.11C544.32 465.72 540.51 465.72 537.68 465.74L537.52 464.55C538.8 464.55 540.27 464.55 541.82 464.5V463.33C539.95 463.15 538.78 462.29 538.78 460.95C538.78 459.47 540.27 458.56 542.56 458.56C544.81 458.56 546.32 459.48 546.32 460.95C546.32 462.26 545.15 463.13 543.3 463.33V464.45C544.78 464.38 546.27 464.27 547.68 464.05L547.78 465.11ZM547.18 457.97H537.91V456.85H541.82V455.27H543.3V456.85H547.19V457.97H547.18ZM539.48 467.02H550.1V471.52H548.62V468.19H539.47V467.02H539.48ZM542.56 462.34C543.98 462.34 544.92 461.8 544.92 460.95C544.92 460.1 543.98 459.58 542.56 459.58C541.1 459.58 540.18 460.1 540.18 460.95C540.18 461.8 541.1 462.34 542.56 462.34ZM552.48 461.49H550.1V466.21H548.62V455.39H550.1V460.27H552.48V461.49Z" fill="white"/>
<path d="M556.18 466.32C558.34 466.3 559.87 466.21 561.64 465.83L561.77 467.05C559.84 467.46 558.2 467.54 555.79 467.54H554.73V457.33H560.74V458.54H556.18V466.32V466.32ZM567.87 455.37V471.52H566.45V463.06H564.16V470.71H562.77V455.73H564.16V461.85H566.45V455.37H567.87V455.37Z" fill="white"/>
<path d="M576.16 457.97H580.14V459.16H570.62V457.97H574.69V455.58H576.17V457.97H576.16ZM579.39 464.21C579.39 466.41 577.75 467.92 575.45 467.92C573.18 467.92 571.54 466.41 571.54 464.21C571.54 462.03 573.18 460.48 575.45 460.48C577.75 460.49 579.39 462.03 579.39 464.21ZM577.98 464.21C577.98 462.75 576.92 461.71 575.44 461.71C573.98 461.71 572.92 462.75 572.92 464.21C572.92 465.65 573.98 466.69 575.44 466.69C576.92 466.7 577.98 465.65 577.98 464.21ZM585.8 463.26H583.15V471.52H581.67V455.39H583.15V462.02H585.8V463.26Z" fill="white"/>
<path d="M595.33 457.12C595.33 461.71 593.42 465.8 588.06 468.45L587.25 467.3C591.59 465.18 593.59 462.1 593.86 458.32H587.97V457.13H595.33V457.12ZM600.56 455.39V471.52H599.08V463.06H595.3V461.85H599.08V455.39H600.56V455.39Z" fill="white"/>
<path d="M605.93 466.19C608.25 466.19 610.65 465.99 613.26 465.47L613.44 466.69C610.69 467.25 608.22 467.43 605.75 467.43H604.47V456.93H605.93V466.19ZM618.84 463.04H616.25V471.52H614.77V455.37H616.25V461.82H618.84V463.04Z" fill="white"/>
<path d="M437.91 490.68V492.53H442.66V497.46H441.18V493.7H431.47V492.53H436.42V490.68H429.85V489.49H444.45V490.68H437.91ZM430.74 487.48C433.78 487.17 436.23 485.93 436.36 484.13H431.37V482.96H436.43V481.29H437.91V482.96H442.97V484.13H437.96C438.09 485.93 440.53 487.17 443.6 487.48L443.13 488.6C440.48 488.33 438.14 487.36 437.17 485.74C436.2 487.36 433.84 488.33 431.19 488.6L430.74 487.48Z" fill="white"/>
<path d="M461.07 494.21V495.42H446.41V494.21H452.93V490.28H454.41V494.21H461.07ZM459.72 490.48C457.25 489.96 454.71 488.28 453.67 485.98C452.63 488.28 450.11 489.96 447.62 490.48L447.01 489.26C449.84 488.76 452.9 486.38 452.9 483.7V482.46H454.45V483.7C454.45 486.38 457.53 488.76 460.36 489.26L459.72 490.48Z" fill="white"/>
<path d="M472.56 483.98H463.04V482.85H467.06V481.21H468.54V482.85H472.57V483.98H472.56ZM467.79 490C465.47 490 463.94 488.99 463.94 487.35C463.94 485.71 465.47 484.7 467.79 484.7C470.13 484.7 471.66 485.71 471.66 487.35C471.66 488.99 470.13 490 467.79 490ZM466.74 496.21H476.1V497.34H465.3V493.58H474.05V492.18H465.25V491.08H475.51V494.66H466.74V496.21V496.21ZM467.79 488.9C469.28 488.9 470.26 488.32 470.26 487.35C470.26 486.38 469.29 485.8 467.79 485.8C466.29 485.8 465.34 486.38 465.34 487.35C465.34 488.32 466.29 488.9 467.79 488.9ZM477.9 485.21V486.43H475.5V490.25H474.02V481.32H475.5V485.21H477.9V485.21Z" fill="white"/>
<path d="M498.19 491.69H491.58V497.54H490.1V491.69H483.58V490.47H498.16L498.19 491.69ZM496.86 488.72C494.36 488.29 491.93 486.88 490.88 484.94C489.87 486.9 487.44 488.29 484.92 488.72L484.33 487.53C487.27 487.1 490.11 485.15 490.11 482.85V481.95H491.66V482.85C491.66 485.1 494.54 487.1 497.48 487.53L496.86 488.72Z" fill="white"/>
<path d="M504.54 486.09C504.54 483.86 506.3 482.33 508.74 482.33C511.19 482.33 512.97 483.86 512.97 486.09C512.97 488.32 511.19 489.85 508.74 489.85C506.3 489.85 504.54 488.32 504.54 486.09ZM515.61 492.18C515.61 493.85 516.8 495.51 518.85 496.2L518.11 497.32C516.53 496.74 515.41 495.63 514.87 494.28C514.37 495.59 513.38 496.82 511.88 497.47C510.33 496.86 509.36 495.69 508.87 494.34C508.29 495.64 507.2 496.75 505.68 497.33L504.94 496.21C506.97 495.49 508.18 493.74 508.18 492.19V491.33H509.6V492.19C509.6 493.61 510.34 495.14 511.83 496.02C513.38 495.07 514.15 493.45 514.15 492.19V491.33H515.59V492.18H515.61ZM505.98 486.09C505.98 487.59 507.13 488.63 508.73 488.63C510.33 488.63 511.52 487.59 511.52 486.09C511.52 484.61 510.33 483.55 508.73 483.55C507.13 483.55 505.98 484.61 505.98 486.09ZM517.41 490.61H515.93V481.39H517.41V490.61Z" fill="white"/>
<path d="M535.32 488.74V489.93H520.7V488.74H535.32ZM533.96 487.6C531.46 487.2 529.06 485.94 528.04 484.14C527.03 485.94 524.62 487.2 522.1 487.6L521.56 486.41C524.46 486.05 527.29 484.32 527.29 482.27V481.55H528.8V482.27C528.8 484.27 531.65 486.05 534.51 486.41L533.96 487.6ZM531.96 491.04H533.42V497.31H522.56V491.04H524.02V492.93H531.96V491.04V491.04ZM531.96 494.07H524.02V496.12H531.96V494.07Z" fill="white"/>
<path d="M539.77 492.09C542.2 492.09 544.7 491.87 547.39 491.33L547.55 492.59C544.74 493.17 542.2 493.35 539.63 493.35H538.3V482.94H539.78V492.09H539.77ZM550.52 481.37V497.5H549.04V481.37H550.52Z" fill="white"/>
<path d="M556 492.27C558.86 492.27 560.93 492.14 563.27 491.73L563.43 492.95C560.96 493.42 558.84 493.53 555.8 493.53H554.52V482.92H562.03V484.14H556V492.27ZM568.93 488.97H566.26V497.56H564.78V481.37H566.26V487.74H568.93V488.97Z" fill="white"/>
<path d="M570.76 495.18C570.76 494.44 571.3 493.9 571.95 493.9C572.6 493.9 573.14 494.44 573.14 495.18C573.14 495.92 572.6 496.42 571.95 496.42C571.3 496.42 570.76 495.92 570.76 495.18Z" fill="white"/>
<path d="M737.08 457.05C737.08 461.73 735.41 466.04 729.61 468.9L728.82 467.73C731.79 466.29 733.65 464.44 734.64 462.27L729.13 462.79L728.88 461.49L735.11 461.08C735.42 460.18 735.56 459.24 735.63 458.25H729.71V457.04H737.08V457.05ZM741.74 455.37V471.52H740.26V455.37H741.74Z" fill="white"/>
<path d="M759.69 468.25V469.46H745.05V468.25H751.6V464.77H746.77V456.52H748.23V459.4H756.48V456.52H757.92V464.77H753.09V468.25H759.69ZM748.23 463.58H756.48V460.61H748.23V463.58Z" fill="white"/>
<path d="M776.25 468.12V469.34H761.59V468.12H776.25ZM774.55 464.32H763.46V456.85H774.39V458.07H764.92V463.11H774.55V464.32V464.32Z" fill="white"/>
<path d="M790.34 463.83H782.87V456.39H784.33V458.82H788.9V456.39H790.34V463.83ZM794.91 468.52C794.91 470.43 792.88 471.53 789.6 471.53C786.31 471.53 784.27 470.43 784.27 468.52C784.27 466.61 786.3 465.51 789.6 465.51C792.88 465.51 794.91 466.61 794.91 468.52ZM788.9 459.98H784.33V462.64H788.9V459.98ZM793.43 468.52C793.43 467.37 791.97 466.7 789.6 466.7C787.19 466.7 785.75 467.37 785.75 468.52C785.75 469.67 787.19 470.36 789.6 470.36C791.98 470.35 793.43 469.67 793.43 468.52ZM797.13 459.44V460.66H794.74V465.09H793.26V455.37H794.74V459.44H797.13Z" fill="white"/>
<path d="M808.34 458.38H798.81V457.19H802.83V455.23H804.31V457.19H808.34V458.38ZM803.57 464.9C801.27 464.9 799.72 463.78 799.72 462.04C799.72 460.31 801.27 459.19 803.57 459.19C805.87 459.19 807.44 460.31 807.44 462.04C807.44 463.78 805.87 464.9 803.57 464.9ZM811.49 468.71C811.49 470.47 809.47 471.5 806.23 471.5C802.97 471.5 800.97 470.47 800.97 468.71C800.97 466.93 802.97 465.92 806.23 465.92C809.47 465.92 811.49 466.93 811.49 468.71ZM803.57 463.78C805.05 463.78 806.04 463.1 806.04 462.03C806.04 460.97 805.05 460.3 803.57 460.3C802.09 460.3 801.12 460.97 801.12 462.03C801.12 463.1 802.09 463.78 803.57 463.78ZM810.03 468.71C810.03 467.67 808.59 467.05 806.23 467.05C803.87 467.05 802.43 467.66 802.43 468.71C802.43 469.76 803.87 470.37 806.23 470.37C808.59 470.37 810.03 469.76 810.03 468.71ZM811.29 459.37V461.6H813.65V462.82H811.29V465.75H809.81V455.37H811.29V458.16H813.65V459.37H811.29Z" fill="white"/>
<path d="M823.91 457.05C823.91 461.73 822.24 466.04 816.44 468.9L815.65 467.73C818.62 466.29 820.48 464.44 821.47 462.27L815.96 462.79L815.71 461.49L821.94 461.08C822.25 460.18 822.39 459.24 822.46 458.25H816.54V457.04H823.91V457.05ZM828.57 455.37V471.52H827.09V455.37H828.57Z" fill="white"/>
<path d="M846.52 462.88V464H831.88V462.88H846.52ZM835.12 470.24H845.2V471.3H833.66V467.72H843.24V466.37H833.63V465.31H844.7V468.75H835.12V470.24ZM843.19 456.88H833.72V455.84H844.65V459.21H835.21V460.6H844.93V461.66H833.75V458.2H843.18V456.88H843.19Z" fill="white"/>
<path d="M857.89 459.68C857.89 462.52 859.73 465.46 861.99 466.59L861.07 467.76C859.36 466.84 857.9 464.95 857.16 462.74C856.46 465.1 854.96 467.12 853.15 468.09L852.27 466.9C854.59 465.71 856.43 462.61 856.43 459.68V456.78H857.89V459.68V459.68ZM867.56 463.15H864.89V471.52H863.41V455.39H864.89V461.93H867.56V463.15Z" fill="white"/>
<path d="M883.63 463.37V464.56H869.01V463.37H872.63V461.1C871.35 460.58 870.65 459.77 870.65 458.67C870.65 456.78 872.83 455.66 876.32 455.66C879.83 455.66 881.99 456.78 881.99 458.67C881.99 459.75 881.27 460.58 880.03 461.08V463.37H883.63ZM881.85 468.64C881.85 470.49 879.8 471.5 876.32 471.5C872.86 471.5 870.79 470.49 870.79 468.64C870.79 466.79 872.86 465.76 876.32 465.76C879.8 465.76 881.85 466.79 881.85 468.64ZM876.32 460.52C878.89 460.52 880.48 459.82 880.48 458.67C880.48 457.5 878.9 456.82 876.32 456.82C873.74 456.82 872.16 457.5 872.16 458.67C872.17 459.82 873.75 460.52 876.32 460.52ZM880.36 468.64C880.36 467.54 878.85 466.91 876.33 466.91C873.79 466.91 872.3 467.54 872.3 468.64C872.3 469.74 873.79 470.37 876.33 470.37C878.84 470.37 880.36 469.74 880.36 468.64ZM874.09 463.37H878.57V461.48C877.9 461.59 877.15 461.66 876.32 461.66C875.51 461.66 874.75 461.59 874.09 461.48V463.37Z" fill="white"/>
<path d="M891.05 457.97H895.03V459.16H885.5V457.97H889.57V455.58H891.05V457.97ZM894.27 464.21C894.27 466.41 892.63 467.92 890.33 467.92C888.06 467.92 886.42 466.41 886.42 464.21C886.42 462.03 888.06 460.48 890.33 460.48C892.63 460.49 894.27 462.03 894.27 464.21ZM892.87 464.21C892.87 462.75 891.81 461.71 890.33 461.71C888.87 461.71 887.81 462.75 887.81 464.21C887.81 465.65 888.87 466.69 890.33 466.69C891.8 466.7 892.87 465.65 892.87 464.21ZM900.68 463.26H898.03V471.52H896.55V455.39H898.03V462.02H900.68V463.26Z" fill="white"/>
<path d="M915.46 455.37V471.56H913.98V465.29H909.95C909.28 466.93 908.02 467.88 906.48 467.88C904.12 467.88 902.45 465.68 902.45 462.24C902.45 458.8 904.12 456.6 906.48 456.6C907.97 456.6 909.16 457.46 909.85 458.98H913.99V455.36H915.46V455.37ZM909.1 462.25C909.1 459.64 908 457.95 906.47 457.95C904.92 457.95 903.84 459.64 903.84 462.25C903.84 464.88 904.92 466.57 906.47 466.57C908 466.57 909.1 464.88 909.1 462.25ZM913.98 464.09V460.2H910.25C910.39 460.83 910.48 461.51 910.48 462.25C910.48 462.92 910.41 463.53 910.3 464.09H913.98Z" fill="white"/>
<path d="M700.27 494.62L701.1 493.54C701.87 494.35 702.88 495.05 704.38 495.05C705.95 495.05 707.06 494.11 707.06 492.6C707.06 491.02 706 489.95 702.96 489.95V488.69C705.68 488.69 706.61 487.59 706.61 486.17C706.61 484.89 705.75 484.08 704.38 484.05C703.32 484.09 702.38 484.63 701.64 485.36L700.76 484.32C701.75 483.4 702.92 482.74 704.45 482.74C706.66 482.74 708.28 483.93 708.28 486.05C708.28 487.65 707.33 488.72 705.92 489.24V489.31C707.49 489.67 708.73 490.86 708.73 492.66C708.73 495.02 706.84 496.42 704.5 496.42C702.43 496.42 701.14 495.56 700.27 494.62Z" fill="white"/>
<path d="M717.81 485.12C717.29 484.49 716.5 484.11 715.69 484.11C713.89 484.11 712.36 485.5 712.29 489.6C713.1 488.61 714.25 488 715.3 488C717.53 488 718.96 489.39 718.96 492.14C718.96 494.7 717.23 496.43 715.18 496.43C712.64 496.43 710.77 494.25 710.77 489.89C710.77 484.72 713.09 482.74 715.65 482.74C717.02 482.74 718.01 483.32 718.73 484.09L717.81 485.12ZM717.39 492.14C717.39 490.36 716.62 489.22 715.01 489.22C714.18 489.22 713.17 489.69 712.31 490.91C712.51 493.65 713.5 495.14 715.15 495.14C716.42 495.15 717.39 493.94 717.39 492.14Z" fill="white"/>
<path d="M720.61 489.55C720.61 484.96 722.21 482.74 724.73 482.74C727.23 482.74 728.84 484.97 728.84 489.55C728.84 494.14 727.24 496.43 724.73 496.43C722.22 496.42 720.61 494.14 720.61 489.55ZM727.24 489.55C727.24 485.7 726.23 484.08 724.74 484.08C723.23 484.08 722.22 485.7 722.22 489.55C722.22 493.44 723.23 495.11 724.74 495.11C726.23 495.11 727.24 493.44 727.24 489.55Z" fill="white"/>
<path d="M745.33 494.26V495.48H730.66V494.26H737.23V490.12H732.53V482.67H743.48V483.88H734.01V488.94H743.64V490.13H738.72V494.27H745.33V494.26Z" fill="white"/>
<path d="M761.89 494.32V495.53H747.22V494.32H753.79V491.27H749.05V486.28H758.63V483.76H749.02V482.55H760.07V487.47H750.51V490.08H760.45V491.27H755.28V494.31H761.89V494.32Z" fill="white"/>
<path d="M773.55 485.68C773.55 488.63 775.48 491.6 777.87 492.68L776.99 493.87C775.15 492.97 773.61 491.06 772.83 488.76C772.09 491.19 770.54 493.21 768.65 494.18L767.75 492.97C770.13 491.84 772.09 488.74 772.09 485.68V482.78H773.55V485.68V485.68ZM781.04 481.37V497.56H779.56V481.37H781.04Z" fill="white"/>
<path d="M793.17 490.3C791.37 489.65 789.98 488.3 789.28 486.64C788.58 488.49 787.1 489.97 785.21 490.65L784.44 489.5C786.83 488.64 788.51 486.49 788.51 484.21V483.6H784.91V482.39H793.53V483.6H789.98V484.19C789.98 486.3 791.56 488.31 793.9 489.14L793.17 490.3ZM787.2 491.62H797.7V497.31H787.2V491.62ZM788.64 496.12H796.26V492.79H788.64V496.12ZM797.69 481.37V490.82H796.2V486.64H793.01V485.42H796.2V481.37H797.69V481.37Z" fill="white"/>
<path d="M813.76 490.79C811.96 490.14 810.57 488.79 809.87 487.13C809.17 488.97 807.69 490.46 805.8 491.14L805.03 489.99C807.42 489.13 809.1 486.98 809.1 484.7V483.89H805.5V482.68H814.12V483.89H810.57V484.68C810.57 486.79 812.15 488.8 814.49 489.63L813.76 490.79ZM818.73 495.96V497.17H807.94V492.18H809.43V495.96H818.73ZM816.79 485.84V481.39H818.28V493.22H816.79V487.04H813.55V485.83H816.79V485.84Z" fill="white"/>
<path d="M831.73 491.46C828.31 492.09 824.44 492.14 821.63 492.16L821.47 490.97C822.73 490.97 824.22 490.95 825.77 490.9V489.68C823.92 489.5 822.73 488.6 822.73 487.21C822.73 485.68 824.24 484.74 826.51 484.74C828.76 484.74 830.27 485.68 830.27 487.21C830.27 488.6 829.1 489.48 827.24 489.68V490.83C828.72 490.76 830.23 490.63 831.62 490.4L831.73 491.46ZM831.14 484.06H821.87V482.96H825.78V481.32H827.26V482.96H831.15V484.06H831.14ZM825.32 495.96H834.63V497.17H823.84V493.19H825.32V495.96ZM826.51 488.65C827.93 488.65 828.87 488.11 828.87 487.21C828.87 486.35 827.93 485.79 826.51 485.79C825.05 485.79 824.13 486.35 824.13 487.21C824.13 488.11 825.05 488.65 826.51 488.65ZM836.43 487.01V488.23H834.05V494.01H832.57V481.37H834.05V487.01H836.43Z" fill="white"/>
<path d="M846.9 488.25C846.9 491.69 845.19 493.89 842.79 493.89C840.39 493.89 838.68 491.69 838.68 488.25C838.68 484.81 840.39 482.61 842.79 482.61C845.19 482.61 846.9 484.81 846.9 488.25ZM840.1 488.25C840.1 490.88 841.22 492.57 842.8 492.57C844.37 492.57 845.48 490.88 845.48 488.25C845.48 485.64 844.36 483.95 842.8 483.95C841.21 483.95 840.1 485.64 840.1 488.25ZM851.31 481.37V497.56H849.83V481.37H851.31Z" fill="white"/>
<path d="M866.94 483.1C866.94 487.69 864.83 491.85 859.61 494.46L858.8 493.31C862.92 491.24 865.14 488.14 865.48 484.32H859.56V483.1H866.94ZM873.71 489.15H871.12V497.52H869.64V481.37H871.12V487.92H873.71V489.15Z" fill="white"/>
<path d="M889.87 488.93V490.14H875.27V488.93H889.87ZM888.07 494.53C888.07 496.4 885.98 497.46 882.54 497.46C879.1 497.46 877.01 496.4 877.01 494.53C877.01 492.64 879.1 491.58 882.54 491.58C885.98 491.58 888.07 492.64 888.07 494.53ZM888.2 487.06H877.24V481.71H878.72V485.87H888.21V487.06H888.2ZM886.58 494.53C886.58 493.38 885.08 492.73 882.55 492.73C880.01 492.73 878.52 493.38 878.52 494.53C878.52 495.65 880.01 496.31 882.55 496.31C885.06 496.32 886.58 495.65 886.58 494.53Z" fill="white"/>
<path d="M901.39 484.22H891.86V483.03H895.88V481.21H897.36V483.03H901.39V484.22ZM896.62 490.63C894.32 490.63 892.77 489.53 892.77 487.8C892.77 486.09 894.32 484.99 896.62 484.99C898.92 484.99 900.49 486.09 900.49 487.8C900.49 489.53 898.92 490.63 896.62 490.63ZM896.62 489.51C898.1 489.51 899.09 488.86 899.09 487.8C899.09 486.76 898.1 486.09 896.62 486.09C895.14 486.09 894.17 486.76 894.17 487.8C894.17 488.86 895.14 489.51 896.62 489.51ZM902.88 491.47H904.34V497.3H894.19V491.47H895.65V493.18H902.89V491.47H902.88ZM902.88 494.34H895.64V496.12H902.88V494.34ZM906.74 486.72H904.34V490.75H902.86V481.37H904.34V485.47H906.74V486.72Z" fill="white"/>
<path d="M910.85 492.09C913.28 492.09 915.78 491.87 918.47 491.33L918.63 492.59C915.82 493.17 913.28 493.35 910.71 493.35H909.38V482.94H910.86V492.09H910.85ZM921.6 481.37V497.5H920.12V481.37H921.6Z" fill="white"/>
<path d="M927.09 492.27C929.95 492.27 932.02 492.14 934.36 491.73L934.52 492.95C932.05 493.42 929.93 493.53 926.89 493.53H925.61V482.92H933.12V484.14H927.09V492.27ZM940.02 488.97H937.35V497.56H935.87V481.37H937.35V487.74H940.02V488.97Z" fill="white"/>
<path d="M941.85 495.18C941.85 494.44 942.39 493.9 943.04 493.9C943.69 493.9 944.23 494.44 944.23 495.18C944.23 495.92 943.69 496.42 943.04 496.42C942.39 496.42 941.85 495.92 941.85 495.18Z" fill="white"/>
<path d="M1080.76 468.3V469.51H1066.12V468.3H1072.66V464.59H1067.46V463.4H1069.93V458.11H1067.43V456.92H1079.4V458.11H1076.9V463.4H1079.37V464.59H1074.17V468.3H1080.76ZM1071.4 463.4H1075.42V458.11H1071.4V463.4Z" fill="white"/>
<path d="M1087.26 464.47C1084.86 464.47 1083.06 462.81 1083.06 460.47C1083.06 458.15 1084.86 456.51 1087.26 456.51C1089.67 456.51 1091.49 458.15 1091.49 460.47C1091.49 462.81 1089.67 464.47 1087.26 464.47ZM1087.26 463.19C1088.86 463.19 1090.05 462.07 1090.05 460.47C1090.05 458.9 1088.86 457.79 1087.26 457.79C1085.69 457.79 1084.51 458.91 1084.51 460.47C1084.5 462.07 1085.69 463.19 1087.26 463.19ZM1096.42 469.96V471.17H1085.54V465.98H1087.02V469.96H1096.42ZM1095.93 467.18H1094.45V455.39H1095.93V467.18Z" fill="white"/>
<path d="M1113.88 468.23V469.44H1099.22V468.23H1113.88ZM1112.21 465.27H1101.12V456.77H1112.05V457.96H1102.62V460.35H1111.69V461.52H1102.62V464.08H1112.22V465.27H1112.21Z" fill="white"/>
<path d="M1130.44 462.88V464H1115.8V462.88H1130.44ZM1119.04 470.24H1129.12V471.3H1117.58V467.72H1127.16V466.37H1117.54V465.31H1128.61V468.75H1119.03V470.24H1119.04ZM1127.11 456.88H1117.64V455.84H1128.57V459.21H1119.14V460.6H1128.86V461.66H1117.68V458.2H1127.12V456.88H1127.11Z" fill="white"/>
<path d="M1150.98 461.98V463.17H1136.43V461.98H1147.29C1147.45 461.22 1147.54 460.54 1147.61 459.93L1138.05 460.36L1137.87 459.19L1147.68 458.88C1147.7 458.34 1147.7 457.84 1147.7 457.37V457.32H1138.27V456.15H1149.16V457.37C1149.16 458.63 1149.16 460.07 1148.78 461.98H1150.98V461.98ZM1139.62 470.15H1149.83V471.3H1138.16V467.36H1147.81V465.85H1138.12V464.7H1149.25V468.46H1139.62V470.15Z" fill="white"/>
<path d="M1162.93 463.82C1160.28 464.25 1158.09 464.34 1155.1 464.34H1153.8V459.68H1159.63V457.54H1153.74V456.33H1161.09V460.81H1155.24V463.13C1158.1 463.13 1160.21 463.04 1162.77 462.63L1162.93 463.82ZM1155.42 466.12H1166.21V471.52H1164.73V467.32H1155.42V466.12ZM1166.21 455.39V465.26H1164.73V455.39H1166.21Z" fill="white"/>
<path d="M1174.97 457.97H1178.95V459.16H1169.43V457.97H1173.5V455.58H1174.98V457.97H1174.97ZM1178.19 464.21C1178.19 466.41 1176.55 467.92 1174.25 467.92C1171.98 467.92 1170.34 466.41 1170.34 464.21C1170.34 462.03 1171.98 460.48 1174.25 460.48C1176.55 460.49 1178.19 462.03 1178.19 464.21ZM1176.79 464.21C1176.79 462.75 1175.73 461.71 1174.25 461.71C1172.79 461.71 1171.73 462.75 1171.73 464.21C1171.73 465.65 1172.79 466.69 1174.25 466.69C1175.73 466.7 1176.79 465.65 1176.79 464.21ZM1184.6 463.26H1181.95V471.52H1180.47V455.39H1181.95V462.02H1184.6V463.26Z" fill="white"/>
<path d="M1191.8 459.68C1191.8 462.63 1193.73 465.6 1196.12 466.68L1195.24 467.87C1193.4 466.97 1191.86 465.06 1191.08 462.76C1190.34 465.19 1188.79 467.21 1186.9 468.18L1186 466.97C1188.38 465.84 1190.34 462.74 1190.34 459.68V456.78H1191.8V459.68V459.68ZM1199.29 455.37V471.56H1197.81V455.37H1199.29Z" fill="white"/>
<path d="M1210.74 464.32H1203.38V456.79H1210.74V458.21H1214.45V455.38H1215.94V467.16H1214.45V462.87H1210.74V464.32ZM1209.3 457.97H1204.83V463.16H1209.3V457.97ZM1216.32 469.96V471.17H1205.55V466.13H1207.03V469.96H1216.32V469.96ZM1210.74 459.42V461.67H1214.45V459.42H1210.74Z" fill="white"/>
<path d="M1049.76 484.13H1053.04V485.34H1045.03V484.13H1048.31V481.84H1049.77V484.13H1049.76ZM1052.5 490.09C1052.5 492.29 1051.04 493.78 1049.04 493.78C1047.04 493.78 1045.58 492.29 1045.58 490.09C1045.58 487.93 1047.04 486.42 1049.04 486.42C1051.04 486.41 1052.5 487.93 1052.5 490.09ZM1051.18 490.09C1051.18 488.69 1050.28 487.66 1049.04 487.66C1047.78 487.66 1046.9 488.69 1046.9 490.09C1046.9 491.53 1047.78 492.56 1049.04 492.56C1050.28 492.55 1051.18 491.53 1051.18 490.09ZM1058.73 481.35V497.5H1057.31V489.38H1055.24V496.73H1053.85V481.73H1055.24V488.18H1057.31V481.36H1058.73V481.35Z" fill="white"/>
<path d="M1071.13 489.13C1068.92 489.58 1066.99 489.69 1063.59 489.69H1062.33V482.61H1069.46V483.8H1063.79V488.48C1067 488.48 1068.85 488.37 1070.97 487.92L1071.13 489.13ZM1074.32 494.41C1074.32 496.36 1072.27 497.51 1069.01 497.51C1065.73 497.51 1063.68 496.36 1063.68 494.41C1063.68 492.47 1065.73 491.31 1069.01 491.31C1072.26 491.31 1074.32 492.46 1074.32 494.41ZM1072.86 494.41C1072.86 493.22 1071.38 492.5 1069.01 492.5C1066.62 492.5 1065.14 493.22 1065.14 494.41C1065.14 495.6 1066.62 496.32 1069.01 496.32C1071.38 496.32 1072.86 495.6 1072.86 494.41ZM1076.53 485.57V486.79H1074.15V490.99H1072.66V481.38H1074.15V485.58H1076.53V485.57Z" fill="white"/>
<path d="M1096.76 488.9V490.11H1082.23V488.9H1088.19V485.8H1089.67V488.9H1096.76ZM1095.07 494.55C1095.07 496.39 1092.87 497.5 1089.43 497.5C1085.99 497.5 1083.81 496.38 1083.81 494.55C1083.81 492.68 1085.99 491.58 1089.43 491.58C1092.87 491.58 1095.07 492.68 1095.07 494.55ZM1093.49 483.39H1083.95V482.2H1094.95V483.57C1094.95 484.87 1094.95 486.18 1094.5 487.84L1093.06 487.68C1093.49 486.02 1093.49 484.84 1093.49 483.57V483.39ZM1093.59 494.55C1093.59 493.4 1091.97 492.71 1089.43 492.71C1086.91 492.71 1085.29 493.39 1085.29 494.55C1085.29 495.67 1086.91 496.35 1089.43 496.35C1091.97 496.35 1093.59 495.67 1093.59 494.55Z" fill="white"/>
<path d="M1106.97 482.63C1106.97 486.81 1104.04 489.87 1099.39 491.33L1098.8 490.16C1102.6 488.97 1105.08 486.69 1105.39 483.84H1099.45V482.63H1106.97ZM1102.7 495.96H1111.99V497.17H1101.22V491.98H1102.7V495.96ZM1113.68 486.29V487.51H1111.28V493.18H1109.8V481.39H1111.28V486.29H1113.68Z" fill="white"/>
<path d="M1129.97 494.16V495.38H1115.3V494.16H1129.97ZM1128.48 486.85C1128.48 489.55 1125.96 491.31 1122.61 491.31C1119.26 491.31 1116.74 489.55 1116.74 486.85C1116.74 484.17 1119.26 482.38 1122.61 482.38C1125.96 482.38 1128.48 484.16 1128.48 486.85ZM1118.14 486.85C1118.14 488.81 1120.07 490.11 1122.61 490.11C1125.17 490.11 1127.07 488.81 1127.07 486.85C1127.07 484.9 1125.16 483.59 1122.61 483.59C1120.07 483.59 1118.14 484.9 1118.14 486.85Z" fill="white"/>
<path d="M1146.53 494.32V495.53H1131.86V494.32H1138.43V491.27H1133.69V486.28H1143.27V483.76H1133.65V482.55H1144.71V487.47H1135.15V490.08H1145.09V491.27H1139.92V494.31H1146.53V494.32Z" fill="white"/>
<path d="M1161.27 488.25C1161.27 491.69 1159.56 493.89 1157.16 493.89C1154.76 493.89 1153.05 491.69 1153.05 488.25C1153.05 484.81 1154.76 482.61 1157.16 482.61C1159.56 482.61 1161.27 484.81 1161.27 488.25ZM1154.47 488.25C1154.47 490.88 1155.59 492.57 1157.17 492.57C1158.74 492.57 1159.85 490.88 1159.85 488.25C1159.85 485.64 1158.73 483.95 1157.17 483.95C1155.58 483.95 1154.47 485.64 1154.47 488.25ZM1165.68 481.37V497.56H1164.2V481.37H1165.68Z" fill="white"/>
<path d="M1183.65 489.35V490.54H1169.03V489.35H1175.6V487.48H1170.86V482.11H1181.83V483.3H1172.34V486.29H1181.94V487.48H1177.08V489.35H1183.65V489.35ZM1181.85 494.61C1181.85 496.48 1179.76 497.53 1176.34 497.53C1172.88 497.53 1170.79 496.49 1170.79 494.61C1170.79 492.74 1172.88 491.69 1176.34 491.69C1179.76 491.69 1181.85 492.73 1181.85 494.61ZM1180.35 494.61C1180.35 493.48 1178.85 492.85 1176.33 492.85C1173.77 492.85 1172.28 493.48 1172.28 494.61C1172.28 495.74 1173.77 496.37 1176.33 496.37C1178.86 496.37 1180.35 495.74 1180.35 494.61Z" fill="white"/>
<path d="M1195.17 484.22H1185.64V483.03H1189.66V481.21H1191.14V483.03H1195.17V484.22ZM1190.4 490.63C1188.1 490.63 1186.55 489.53 1186.55 487.8C1186.55 486.09 1188.1 484.99 1190.4 484.99C1192.7 484.99 1194.27 486.09 1194.27 487.8C1194.27 489.53 1192.7 490.63 1190.4 490.63ZM1190.4 489.51C1191.88 489.51 1192.87 488.86 1192.87 487.8C1192.87 486.76 1191.88 486.09 1190.4 486.09C1188.92 486.09 1187.95 486.76 1187.95 487.8C1187.95 488.86 1188.92 489.51 1190.4 489.51ZM1196.66 491.47H1198.12V497.3H1187.97V491.47H1189.43V493.18H1196.67V491.47H1196.66ZM1196.66 494.34H1189.42V496.12H1196.66V494.34ZM1200.52 486.72H1198.12V490.75H1196.64V481.37H1198.12V485.47H1200.52V486.72Z" fill="white"/>
<path d="M1204.63 492.09C1207.06 492.09 1209.56 491.87 1212.25 491.33L1212.41 492.59C1209.6 493.17 1207.06 493.35 1204.49 493.35H1203.16V482.94H1204.64V492.09H1204.63ZM1215.38 481.37V497.5H1213.9V481.37H1215.38Z" fill="white"/>
<path d="M1220.87 492.27C1223.73 492.27 1225.8 492.14 1228.14 491.73L1228.3 492.95C1225.83 493.42 1223.71 493.53 1220.67 493.53H1219.39V482.92H1226.9V484.14H1220.87V492.27ZM1233.8 488.97H1231.13V497.56H1229.65V481.37H1231.13V487.74H1233.8V488.97Z" fill="white"/>
<path d="M1235.63 495.18C1235.63 494.44 1236.17 493.9 1236.82 493.9C1237.47 493.9 1238.01 494.44 1238.01 495.18C1238.01 495.92 1237.47 496.42 1236.82 496.42C1236.17 496.42 1235.63 495.92 1235.63 495.18Z" fill="white"/>
<path d="M528.96 70.1499H536.71L541.61 88.1499C542.76 92.2499 543.51 95.9499 544.71 100.1H544.96C546.11 95.9499 546.96 92.2499 548.11 88.1499L552.91 70.1499H560.41L549.06 107.15H540.26L528.96 70.1499Z" fill="white"/>
<path d="M584.81 107.15L577.21 93.1499H572.06V107.15H564.66V70.1499H577.56C585.31 70.1499 591.46 72.8499 591.46 81.3499C591.46 86.8999 588.66 90.3499 584.41 91.9999L593.06 107.15H584.81ZM572.06 87.2999H576.86C581.61 87.2999 584.21 85.2999 584.21 81.3499C584.21 77.3499 581.61 75.9999 576.86 75.9999H572.06V87.2999Z" fill="white"/>
<path d="M632.51 85.1C632.51 94.65 627.76 100.75 621.11 100.75C614.46 100.75 609.71 94.65 609.71 85.1C609.71 75.55 614.46 69.45 621.11 69.45C627.76 69.45 632.51 75.55 632.51 85.1ZM613.61 85.1C613.61 92.4 616.71 97.1 621.11 97.1C625.46 97.1 628.56 92.4 628.56 85.1C628.56 77.85 625.46 73.15 621.11 73.15C616.71 73.15 613.61 77.85 613.61 85.1ZM644.76 66V110.95H640.66V66H644.76Z" fill="white"/>
<path d="M694.61 88.1998V91.4998H654.01V88.1998H664.06V81.8998C660.51 80.4498 658.56 78.1998 658.56 75.1498C658.56 69.8998 664.61 66.7998 674.31 66.7998C684.06 66.7998 690.06 69.8998 690.06 75.1498C690.06 78.1498 688.06 80.4498 684.61 81.8498V88.1998H694.61V88.1998ZM689.66 102.85C689.66 108 683.96 110.8 674.31 110.8C664.71 110.8 658.96 108 658.96 102.85C658.96 97.6998 664.71 94.8498 674.31 94.8498C683.96 94.8498 689.66 97.6998 689.66 102.85ZM674.31 80.2998C681.46 80.2998 685.86 78.3498 685.86 75.1498C685.86 71.8998 681.46 69.9998 674.31 69.9998C667.16 69.9998 662.76 71.8998 662.76 75.1498C662.76 78.3498 667.16 80.2998 674.31 80.2998ZM685.51 102.85C685.51 99.7998 681.31 98.0498 674.31 98.0498C667.26 98.0498 663.11 99.7998 663.11 102.85C663.11 105.9 667.26 107.65 674.31 107.65C681.31 107.65 685.51 105.9 685.51 102.85ZM668.11 88.1998H680.56V82.9498C678.71 83.2498 676.61 83.4498 674.31 83.4498C672.06 83.4498 669.96 83.2498 668.11 82.9498V88.1998Z" fill="white"/>
<path d="M723.81 91.25C717.11 91.25 712.11 86.7 712.11 80.2C712.11 73.7 717.11 69.15 723.81 69.15C730.51 69.15 735.51 73.7 735.51 80.2C735.51 86.7 730.51 91.25 723.81 91.25ZM723.81 87.7C728.21 87.7 731.51 84.6 731.51 80.2C731.51 75.8 728.21 72.7 723.81 72.7C719.41 72.7 716.11 75.8 716.11 80.2C716.11 84.6 719.41 87.7 723.81 87.7ZM722.26 106.5H748.06V109.85H718.16V95.65H722.26V106.5ZM752.71 79.65V83.05H746.06V99H741.96V66H746.06V79.65H752.71Z" fill="white"/>
<path d="M763.56 95.65C767.86 95.6 772.61 95.3 777.96 94.25L778.36 97.8C772.31 98.95 767.16 99.2 762.31 99.2H759.46V71.45H763.56V95.65V95.65ZM795.31 66V110.8H791.36V87.65H785.01V108.55H781.16V67H785.01V84.25H791.36V66H795.31Z" fill="white"/>
<path d="M1255.88 67.8604L1216.66 107.08" stroke="white" stroke-width="4" stroke-miterlimit="6.6667" stroke-linecap="round" stroke-linejoin="round"/>
<path d="M1216.66 67.8604L1255.88 107.08" stroke="white" stroke-width="4" stroke-miterlimit="6.6667" stroke-linecap="round" stroke-linejoin="round"/>
<path d="M67 151.52H1255.69" stroke="white" stroke-width="0.75" stroke-miterlimit="10"/>
<path d="M182.31 235.79V294.66H133.83V269.94C133.83 269.94 136.48 236.4 169.38 235.79H182.31Z" fill="#F19921"/>
<path d="M169.37 235.79H195.24C214.87 235.79 230.79 251.7 230.79 271.34V345.69C230.79 365.32 214.88 381.24 195.24 381.24H169.37C149.74 381.24 133.82 365.33 133.82 345.69V271.34C133.82 251.7 149.74 235.79 169.37 235.79Z" stroke="white" stroke-width="4" stroke-linecap="round" stroke-linejoin="round"/>
<path d="M182.31 268.11V300.43" stroke="white" stroke-width="4" stroke-linecap="round" stroke-linejoin="round"/>
<path d="M489.89 235.79H515.76C535.39 235.79 551.31 251.7 551.31 271.34V345.69C551.31 365.32 535.4 381.24 515.76 381.24H489.89C470.26 381.24 454.34 365.33 454.34 345.69V271.34C454.34 251.7 470.26 235.79 489.89 235.79Z" stroke="white" stroke-width="4" stroke-linecap="round" stroke-linejoin="round"/>
<path d="M502.82 268.11V300.43" stroke="#F19921" stroke-width="4" stroke-linecap="round" stroke-linejoin="round"/>
<path d="M830.18 283.77L822.78 273.44L815.39 283.77" stroke="#F19921" stroke-width="4" stroke-miterlimit="10" stroke-linecap="round" stroke-linejoin="round"/>
<path d="M847.51 304.75H798.06C797.28 304.75 796.64 304.12 796.64 303.33V253.88C796.64 253.1 797.27 252.46 798.06 252.46H847.51C848.29 252.46 848.93 253.09 848.93 253.88V303.33C848.93 304.11 848.29 304.75 847.51 304.75Z" stroke="white" stroke-width="4" stroke-linecap="round" stroke-linejoin="round"/>
<path d="M815.39 339.3L822.78 349.63L830.18 339.3" stroke="#F19921" stroke-width="4" stroke-miterlimit="10" stroke-linecap="round" stroke-linejoin="round"/>
<path d="M798.06 318.32H847.51C848.29 318.32 848.93 318.95 848.93 319.74V369.19C848.93 369.97 848.3 370.61 847.51 370.61H798.06C797.28 370.61 796.64 369.98 796.64 369.19V319.74C796.64 318.96 797.28 318.32 798.06 318.32Z" stroke="white" stroke-width="4" stroke-linecap="round" stroke-linejoin="round"/>
<path d="M883.48 351.86L893.81 344.47L883.48 337.07" stroke="#F19921" stroke-width="4" stroke-miterlimit="10" stroke-linecap="round" stroke-linejoin="round"/>
<path d="M862.5 369.19V319.74C862.5 318.96 863.13 318.32 863.92 318.32H913.37C914.15 318.32 914.79 318.95 914.79 319.74V369.19C914.79 369.97 914.16 370.61 913.37 370.61H863.92C863.14 370.61 862.5 369.97 862.5 369.19Z" stroke="white" stroke-width="4" stroke-linecap="round" stroke-linejoin="round"/>
<path d="M762.09 337.07L751.76 344.47L762.09 351.86" stroke="#F19921" stroke-width="4" stroke-miterlimit="10" stroke-linecap="round" stroke-linejoin="round"/>
<path d="M783.06 319.74V369.19C783.06 369.97 782.43 370.61 781.64 370.61H732.19C731.41 370.61 730.77 369.98 730.77 369.19V319.74C730.77 318.96 731.4 318.32 732.19 318.32H781.64C782.43 318.32 783.06 318.96 783.06 319.74Z" stroke="white" stroke-width="4" stroke-linecap="round" stroke-linejoin="round"/>
<path opacity="0.5" d="M1142.03 353.36C1165.79 353.36 1185.05 334.099 1185.05 310.34C1185.05 286.581 1165.79 267.32 1142.03 267.32C1118.27 267.32 1099.01 286.581 1099.01 310.34C1099.01 334.099 1118.27 353.36 1142.03 353.36Z" fill="white"/>
<path d="M1142.03 337.64C1157.11 337.64 1169.33 325.417 1169.33 310.34C1169.33 295.263 1157.11 283.04 1142.03 283.04C1126.95 283.04 1114.73 295.263 1114.73 310.34C1114.73 325.417 1126.95 337.64 1142.03 337.64Z" fill="white"/>
<path d="M1201.89 329.32C1203.92 323.13 1205.05 316.54 1205.05 309.68C1205.05 279.3 1183.55 253.95 1154.95 247.99" stroke="white" stroke-width="4" stroke-miterlimit="10" stroke-linecap="round" stroke-linejoin="round"/>
<path d="M1095.13 351.67C1106.67 364.55 1123.38 372.7 1142.03 372.7C1160.68 372.7 1177.39 364.55 1188.93 351.67" stroke="white" stroke-width="4" stroke-miterlimit="10" stroke-linecap="round" stroke-linejoin="round"/>
<path d="M1129.11 247.98C1100.5 253.94 1079.01 279.29 1079.01 309.67C1079.01 316.53 1080.14 323.13 1082.17 329.31" stroke="white" stroke-width="4" stroke-miterlimit="10" stroke-linecap="round" stroke-linejoin="round"/>
<path d="M342.21 275.95V407.76" stroke="white" stroke-miterlimit="10" stroke-linecap="round" stroke-linejoin="round"/>
<path d="M661.91 275.95V407.76" stroke="white" stroke-miterlimit="10" stroke-linecap="round" stroke-linejoin="round"/>
<path d="M982.4 275.95V407.76" stroke="white" stroke-miterlimit="10" stroke-linecap="round" stroke-linejoin="round"/>
</svg>
