<svg width="173" height="32" viewBox="0 0 173 32" fill="none" xmlns="http://www.w3.org/2000/svg">
<g clip-path="url(#clip0_1734_1009)">
<g filter="url(#filter0_d_1734_1009)">
<path d="M141.777 3.55566L135.194 14.9749L128.616 3.55566H122.877L132.744 20.6638V28.3616H137.65V20.6697L147.516 3.55566H141.777Z" fill="white"/>
</g>
<g filter="url(#filter1_d_1734_1009)">
<path d="M101.427 3.55566H100.818V28.3616H101.427H105.719H119.961V23.5971H105.719V18.3408H119.459V13.5764H105.719V8.31418H119.961V3.55566H105.719H101.427Z" fill="white"/>
</g>
<g filter="url(#filter2_d_1734_1009)">
<path d="M169.575 8.31418V3.55566H155.334H151.041H150.433V28.3616H151.041H155.334H169.575V23.5971H155.334V18.3408H169.074V13.5764H155.334V8.31418H169.575Z" fill="white"/>
</g>
<g filter="url(#filter3_d_1734_1009)">
<path d="M87.4566 9.55249C83.9376 9.55249 81.0798 12.4266 81.0798 15.9525C81.0798 19.4784 83.9435 22.3525 87.4566 22.3525C90.9698 22.3525 93.8334 19.4843 93.8334 15.9525C93.8334 12.4206 90.9757 9.55249 87.4566 9.55249ZM87.4566 18.1747C86.2403 18.1747 85.2484 17.1792 85.2484 15.9584C85.2484 14.7377 86.2403 13.7421 87.4566 13.7421C88.6729 13.7421 89.6649 14.7377 89.6649 15.9584C89.6649 17.1792 88.6788 18.1747 87.4566 18.1747Z" fill="white"/>
</g>
<g filter="url(#filter4_d_1734_1009)">
<path d="M74.697 3.55566L68.1194 14.9749L61.536 3.55566H55.7969L65.6632 20.6697V28.3616H70.5698V20.6697L80.4361 3.55566H74.697Z" fill="white"/>
</g>
<g filter="url(#filter5_d_1734_1009)">
<path d="M25.9442 3.55566L17.5008 18.1986L9.06337 3.55566H8.44931H3.54272V28.3616H8.44931V12.0653L16.2904 25.6712H16.3908H18.6699H18.7171L26.5582 12.0653V28.3616H31.4648V3.55566H26.5582H25.9442Z" fill="white"/>
</g>
<g filter="url(#filter6_d_1734_1009)">
<path d="M47.9085 3.55566H46.6686H46.1195L32.988 28.3616H38.4674L41.5613 22.5186H52.9509L56.0271 28.3616H61.5005L48.4459 3.55566H47.9085ZM44.0825 17.7601L47.2768 11.7275L50.4534 17.7601H44.0825Z" fill="white"/>
</g>
</g>
<defs>
<filter id="filter0_d_1734_1009" x="119.877" y="1.55566" width="32.6392" height="32.8059" filterUnits="userSpaceOnUse" color-interpolation-filters="sRGB">
<feFlood flood-opacity="0" result="BackgroundImageFix"/>
<feColorMatrix in="SourceAlpha" type="matrix" values="0 0 0 0 0 0 0 0 0 0 0 0 0 0 0 0 0 0 127 0" result="hardAlpha"/>
<feOffset dx="1" dy="2"/>
<feGaussianBlur stdDeviation="2"/>
<feComposite in2="hardAlpha" operator="out"/>
<feColorMatrix type="matrix" values="0 0 0 0 0 0 0 0 0 0 0 0 0 0 0 0 0 0 0.1 0"/>
<feBlend mode="normal" in2="BackgroundImageFix" result="effect1_dropShadow_1734_1009"/>
<feBlend mode="normal" in="SourceGraphic" in2="effect1_dropShadow_1734_1009" result="shape"/>
</filter>
<filter id="filter1_d_1734_1009" x="97.8184" y="1.55566" width="27.1421" height="32.8059" filterUnits="userSpaceOnUse" color-interpolation-filters="sRGB">
<feFlood flood-opacity="0" result="BackgroundImageFix"/>
<feColorMatrix in="SourceAlpha" type="matrix" values="0 0 0 0 0 0 0 0 0 0 0 0 0 0 0 0 0 0 127 0" result="hardAlpha"/>
<feOffset dx="1" dy="2"/>
<feGaussianBlur stdDeviation="2"/>
<feComposite in2="hardAlpha" operator="out"/>
<feColorMatrix type="matrix" values="0 0 0 0 0 0 0 0 0 0 0 0 0 0 0 0 0 0 0.1 0"/>
<feBlend mode="normal" in2="BackgroundImageFix" result="effect1_dropShadow_1734_1009"/>
<feBlend mode="normal" in="SourceGraphic" in2="effect1_dropShadow_1734_1009" result="shape"/>
</filter>
<filter id="filter2_d_1734_1009" x="147.433" y="1.55566" width="27.1422" height="32.8059" filterUnits="userSpaceOnUse" color-interpolation-filters="sRGB">
<feFlood flood-opacity="0" result="BackgroundImageFix"/>
<feColorMatrix in="SourceAlpha" type="matrix" values="0 0 0 0 0 0 0 0 0 0 0 0 0 0 0 0 0 0 127 0" result="hardAlpha"/>
<feOffset dx="1" dy="2"/>
<feGaussianBlur stdDeviation="2"/>
<feComposite in2="hardAlpha" operator="out"/>
<feColorMatrix type="matrix" values="0 0 0 0 0 0 0 0 0 0 0 0 0 0 0 0 0 0 0.1 0"/>
<feBlend mode="normal" in2="BackgroundImageFix" result="effect1_dropShadow_1734_1009"/>
<feBlend mode="normal" in="SourceGraphic" in2="effect1_dropShadow_1734_1009" result="shape"/>
</filter>
<filter id="filter3_d_1734_1009" x="78.0798" y="7.55249" width="20.7537" height="20.8" filterUnits="userSpaceOnUse" color-interpolation-filters="sRGB">
<feFlood flood-opacity="0" result="BackgroundImageFix"/>
<feColorMatrix in="SourceAlpha" type="matrix" values="0 0 0 0 0 0 0 0 0 0 0 0 0 0 0 0 0 0 127 0" result="hardAlpha"/>
<feOffset dx="1" dy="2"/>
<feGaussianBlur stdDeviation="2"/>
<feComposite in2="hardAlpha" operator="out"/>
<feColorMatrix type="matrix" values="0 0 0 0 0 0 0 0 0 0 0 0 0 0 0 0 0 0 0.1 0"/>
<feBlend mode="normal" in2="BackgroundImageFix" result="effect1_dropShadow_1734_1009"/>
<feBlend mode="normal" in="SourceGraphic" in2="effect1_dropShadow_1734_1009" result="shape"/>
</filter>
<filter id="filter4_d_1734_1009" x="52.7969" y="1.55566" width="32.6392" height="32.8059" filterUnits="userSpaceOnUse" color-interpolation-filters="sRGB">
<feFlood flood-opacity="0" result="BackgroundImageFix"/>
<feColorMatrix in="SourceAlpha" type="matrix" values="0 0 0 0 0 0 0 0 0 0 0 0 0 0 0 0 0 0 127 0" result="hardAlpha"/>
<feOffset dx="1" dy="2"/>
<feGaussianBlur stdDeviation="2"/>
<feComposite in2="hardAlpha" operator="out"/>
<feColorMatrix type="matrix" values="0 0 0 0 0 0 0 0 0 0 0 0 0 0 0 0 0 0 0.1 0"/>
<feBlend mode="normal" in2="BackgroundImageFix" result="effect1_dropShadow_1734_1009"/>
<feBlend mode="normal" in="SourceGraphic" in2="effect1_dropShadow_1734_1009" result="shape"/>
</filter>
<filter id="filter5_d_1734_1009" x="0.542725" y="1.55566" width="35.9221" height="32.8059" filterUnits="userSpaceOnUse" color-interpolation-filters="sRGB">
<feFlood flood-opacity="0" result="BackgroundImageFix"/>
<feColorMatrix in="SourceAlpha" type="matrix" values="0 0 0 0 0 0 0 0 0 0 0 0 0 0 0 0 0 0 127 0" result="hardAlpha"/>
<feOffset dx="1" dy="2"/>
<feGaussianBlur stdDeviation="2"/>
<feComposite in2="hardAlpha" operator="out"/>
<feColorMatrix type="matrix" values="0 0 0 0 0 0 0 0 0 0 0 0 0 0 0 0 0 0 0.1 0"/>
<feBlend mode="normal" in2="BackgroundImageFix" result="effect1_dropShadow_1734_1009"/>
<feBlend mode="normal" in="SourceGraphic" in2="effect1_dropShadow_1734_1009" result="shape"/>
</filter>
<filter id="filter6_d_1734_1009" x="29.988" y="1.55566" width="36.5125" height="32.8059" filterUnits="userSpaceOnUse" color-interpolation-filters="sRGB">
<feFlood flood-opacity="0" result="BackgroundImageFix"/>
<feColorMatrix in="SourceAlpha" type="matrix" values="0 0 0 0 0 0 0 0 0 0 0 0 0 0 0 0 0 0 127 0" result="hardAlpha"/>
<feOffset dx="1" dy="2"/>
<feGaussianBlur stdDeviation="2"/>
<feComposite in2="hardAlpha" operator="out"/>
<feColorMatrix type="matrix" values="0 0 0 0 0 0 0 0 0 0 0 0 0 0 0 0 0 0 0.1 0"/>
<feBlend mode="normal" in2="BackgroundImageFix" result="effect1_dropShadow_1734_1009"/>
<feBlend mode="normal" in="SourceGraphic" in2="effect1_dropShadow_1734_1009" result="shape"/>
</filter>
<clipPath id="clip0_1734_1009">
<rect width="173" height="32" fill="white"/>
</clipPath>
</defs>
</svg>
