<svg width="50" height="50" viewBox="0 0 50 50" fill="none" xmlns="http://www.w3.org/2000/svg">
<path opacity="0.5" d="M25.33 39.6801C33.3713 39.6801 39.89 33.1613 39.89 25.1201C39.89 17.0788 33.3713 10.5601 25.33 10.5601C17.2888 10.5601 10.77 17.0788 10.77 25.1201C10.77 33.1613 17.2888 39.6801 25.33 39.6801Z" fill="white"/>
<path d="M25.3301 34.3599C30.4332 34.3599 34.5701 30.223 34.5701 25.1199C34.5701 20.0168 30.4332 15.8799 25.3301 15.8799C20.227 15.8799 16.0901 20.0168 16.0901 25.1199C16.0901 30.223 20.227 34.3599 25.3301 34.3599Z" fill="white"/>
<path d="M45.6 31.54C46.29 29.45 46.6699 27.21 46.6699 24.89C46.6699 14.6 39.39 6.02 29.71 4" stroke="white" stroke-width="1.5" stroke-miterlimit="10" stroke-linecap="round" stroke-linejoin="round"/>
<path d="M9.45996 39.1099C13.37 43.4699 19.02 46.2299 25.34 46.2299C31.66 46.2299 37.31 43.4699 41.22 39.1099" stroke="white" stroke-width="1.5" stroke-miterlimit="10" stroke-linecap="round" stroke-linejoin="round"/>
<path d="M20.96 4.00977C11.27 6.02977 4 14.6098 4 24.8998C4 27.2198 4.38001 29.4598 5.07001 31.5498" stroke="white" stroke-width="1.5" stroke-miterlimit="10" stroke-linecap="round" stroke-linejoin="round"/>
</svg>
