<svg width="257" height="71" viewBox="0 0 257 71" fill="none" xmlns="http://www.w3.org/2000/svg">
<g clip-path="url(#clip0_363_4766)">
<path d="M0 38.5833H3.01739V44.863H3.06389L8.17899 38.5833H11.3617L5.66794 45.09L11.9611 53.0208H8.27199L3.06389 46.0291H3.01739V53.0208H0V38.5781V38.5833Z" fill="#005097"/>
<path d="M29.4461 43.1289C29.4202 43.2424 27.7979 50.4509 27.7979 50.4509C27.7979 50.4509 25.3488 43.2321 25.3127 43.1289H23.959C23.928 43.2321 21.6959 50.5747 21.6959 50.5747C21.6959 50.5747 19.8566 43.2373 19.8256 43.1289H17.4023C17.454 43.3095 20.1459 52.9173 20.1717 53.0205H22.4554C22.4864 52.9225 24.5531 46.6996 24.5531 46.6996C24.5531 46.6996 26.8472 52.9277 26.8834 53.0205H29.1877C29.2136 52.9122 31.5696 43.3043 31.6161 43.1289H29.4461V43.1289Z" fill="#005097"/>
<path d="M39.3818 51.4782V53.0262H42.0479V46.3079C42.0479 44.5381 41.5519 42.9023 37.9403 42.9023C35.0779 42.9023 33.5485 43.9653 33.5072 45.9828H36.3593C36.3593 45.9416 36.3644 45.8951 36.3644 45.8951C36.4058 45.1985 36.4884 43.7434 37.9145 43.7434C38.9426 43.7434 39.3818 44.3523 39.3818 45.7816V47.5411H39.3095C37.775 47.6031 33.1094 47.7888 33.1094 50.8229C33.1094 52.2109 34.4062 53.2584 36.1268 53.2584C38.3536 53.2584 39.3818 51.4782 39.3818 51.4782ZM37.217 51.9478C36.3799 51.9478 35.8633 51.375 35.8633 50.4617C35.8633 49.2852 37.0206 48.5835 39.2992 48.3822H39.3767V49.1923C39.3767 50.5597 38.6326 51.9478 37.2118 51.9478H37.217Z" fill="#005097"/>
<path d="M49.2303 53.2583C49.8555 53.2583 50.4703 53.2016 51.1213 53.1396H51.1317V51.8239C50.739 51.9322 50.2998 51.9529 49.9485 51.9529C48.817 51.9529 48.4346 51.5194 48.4346 50.2346V44.2129H51.5502V43.1396H48.4346V39.2852C48.2383 39.3935 45.8409 40.7041 45.7737 40.7454V43.1396H43.707V44.2129H45.7737V50.5545C45.7737 52.8146 47.0964 53.2635 49.2303 53.2635V53.2583Z" fill="#005097"/>
<path d="M57.8199 53.2587C59.4009 53.2587 60.0829 53.0626 61.323 52.5827V51.6797C60.734 51.881 59.9899 52.0925 59.2356 52.0925C55.9857 52.0925 54.9317 48.6457 54.9317 46.979V46.9067H61.5296V46.6023C61.5296 44.2133 59.9641 42.8975 57.1172 42.8975C53.8983 42.8975 52.2656 44.4816 52.2656 47.6137C52.2656 52.7065 56.1459 53.2587 57.8147 53.2587H57.8199ZM54.9368 45.916C55.035 45.2659 55.4328 43.7437 57.0294 43.7437C58.9101 43.7437 58.9618 45.7045 58.9618 45.9264V45.9986H54.9213L54.9368 45.9109V45.916Z" fill="#005097"/>
<path d="M70.1525 45.3892V42.9072C68.2046 43.0569 67.2488 44.3004 66.4634 45.6368L66.3653 45.7916V43.1239H63.6992V53.0156H66.3653V48.5935C66.3653 46.3025 67.4296 45.3943 70.1525 45.3788V45.3892Z" fill="#005097"/>
<path d="M17.4023 38.4802C25.0492 33.7485 34.0652 31.0137 43.7063 31.0137C53.3475 31.0137 62.4875 33.7898 70.1757 38.5834V31.9941C62.3842 27.7836 53.4767 25.3739 44.0215 25.3223C33.967 27.2727 24.8373 31.8599 17.4023 38.3357V38.4802V38.4802Z" fill="url(#paint0_linear_363_4766)"/>
<path d="M17.4023 31.9066V38.336C24.8373 31.8602 33.9618 27.2678 44.0215 25.3225C43.9182 25.3225 43.8148 25.3174 43.7063 25.3174C34.1995 25.3174 25.2455 27.7064 17.4023 31.9066V31.9066Z" fill="#005097"/>
<path d="M54.9131 18.5781C41.2108 18.5781 28.1854 22.928 17.4023 30.9723V31.9063C25.2455 27.7009 34.1995 25.317 43.7063 25.317C43.8097 25.317 43.9182 25.317 44.0215 25.3222C47.5504 24.6411 51.193 24.2799 54.9131 24.2799C62.6632 24.2799 70.062 25.833 76.8046 28.64V22.5152C69.9845 19.9765 62.6064 18.5833 54.9131 18.5833V18.5781Z" fill="url(#paint1_linear_363_4766)"/>
<path d="M101.06 43.6656C101.044 43.9597 101.034 44.2693 101.024 44.5995C101.013 44.9298 100.988 45.2548 100.951 45.5748C101.587 45.5954 102.233 45.6367 102.889 45.6986C103.54 45.7605 104.201 45.8431 104.868 45.9411C105.323 46.0237 105.726 46.2765 106.077 46.6996C106.428 47.1176 106.733 47.6233 106.986 48.2063C107.239 48.7894 107.436 49.4241 107.575 50.1052C107.715 50.7863 107.797 51.4313 107.828 52.0402C107.916 53.81 107.622 55.1568 106.95 56.0753C106.278 56.9937 105.147 57.4943 103.561 57.5717C102.636 57.6181 102 57.4685 101.649 57.1279C101.298 56.7873 101.112 56.3126 101.081 55.7038C101.06 55.2806 101.091 54.842 101.179 54.388C101.261 53.9339 101.36 53.4798 101.468 53.0206C101.577 52.5613 101.685 52.1073 101.778 51.6532C101.876 51.1991 101.912 50.745 101.892 50.2961C101.881 49.6098 101.726 49.1403 101.427 48.8874C101.122 48.6398 100.626 48.4901 99.9336 48.4437C99.1586 48.3766 98.2389 48.3611 97.1642 48.3973C96.0947 48.4334 95.0252 48.4798 93.966 48.5314C93.7283 48.5417 93.5423 48.4901 93.4028 48.3818C93.2633 48.2683 93.1548 48.1341 93.067 47.9793C92.9792 47.8245 92.9172 47.6697 92.8862 47.5097C92.8552 47.3498 92.8345 47.2363 92.8293 47.1537C92.8241 46.9937 92.912 46.777 93.098 46.5035C93.284 46.2301 93.718 46.0392 94.4052 45.9256C94.8547 45.8534 95.3765 45.7863 95.9862 45.7296C96.5907 45.6728 97.2521 45.6264 97.9702 45.5954H98.0478C98.0736 45.033 98.0684 44.3776 98.0323 43.6243C97.9961 42.8709 97.9444 42.1382 97.8876 41.4261C96.3479 41.4468 94.803 41.4261 93.2478 41.3539C91.6926 41.2817 90.2769 41.1733 88.9956 41.0237C86.7015 40.7657 85.0688 40.4096 84.0923 39.9659C83.1158 39.5221 82.6146 38.9855 82.5836 38.3508C82.563 37.9535 82.7438 37.6491 83.1158 37.4323C83.4878 37.2156 83.9632 37.0557 84.5418 36.9473C85.1205 36.8389 85.7612 36.777 86.4639 36.7564C87.1665 36.7357 87.8331 36.7357 88.4737 36.7564C89.5381 36.8131 90.7264 36.8235 92.0388 36.7822C93.3512 36.7461 94.71 36.6893 96.1257 36.6067C97.5414 36.5242 98.9519 36.4158 100.368 36.2817C101.778 36.1475 103.106 36.0134 104.346 35.874C104.873 35.8224 105.364 35.7141 105.824 35.5438C106.278 35.3787 106.738 35.2084 107.193 35.0433C107.648 34.8782 108.113 34.7388 108.588 34.6408C109.063 34.5376 109.564 34.5118 110.097 34.5686C111.213 34.646 111.952 34.9607 112.308 35.5128C112.665 36.065 112.768 36.6893 112.618 37.3859C112.566 37.9741 112.344 38.454 111.952 38.8307C111.559 39.2074 111.089 39.5221 110.546 39.775C110.004 40.0278 109.42 40.2239 108.805 40.3735C108.19 40.5232 107.642 40.647 107.172 40.7502C106.625 40.9102 105.793 41.0443 104.687 41.1475C103.581 41.2559 102.321 41.3281 100.92 41.3694C100.967 41.8183 101.003 42.2311 101.019 42.6181L101.07 43.6707L101.06 43.6656ZM90.1064 20.3168C91.6565 20.033 93.2995 19.8575 95.0355 19.8008C96.7716 19.744 98.3991 19.8111 99.9181 20.002C100.982 20.1362 101.866 20.3735 102.558 20.7089C103.251 21.0443 103.809 21.7203 104.227 22.7368C104.47 23.3353 104.661 23.9855 104.801 24.6976C104.94 25.4045 105.028 26.1165 105.064 26.8286C105.168 28.97 104.894 30.6006 104.248 31.7151C103.597 32.8348 102.481 33.4282 100.895 33.5056C99.9698 33.5521 99.2774 33.3508 98.8176 32.9122C98.3578 32.4736 98.2182 31.9009 98.3991 31.2043C98.5954 30.3735 98.7711 29.4034 98.9158 28.2992C99.0604 27.195 99.1379 26.1372 99.1431 25.131C99.1173 24.5789 99.0811 24.1351 99.0398 23.8049C98.9984 23.4747 98.9054 23.2167 98.7608 23.0257C98.6213 22.8348 98.4146 22.7007 98.1459 22.6181C97.8772 22.5407 97.5001 22.4685 97.0196 22.4169C96.5391 22.3601 95.9862 22.3291 95.3662 22.3188C94.741 22.3085 94.1003 22.3188 93.439 22.3498L91.455 22.4478L89.6673 22.5355C89.2178 22.5562 88.9232 22.4839 88.7837 22.3188C88.6442 22.1537 88.5667 21.9783 88.5616 21.7925C88.5564 21.6067 88.6391 21.3539 88.8251 21.0237C89.0059 20.6986 89.4399 20.4664 90.1219 20.3271L90.1064 20.3168Z" fill="#315CA2"/>
<path d="M115.731 29.6464C115.86 28.9756 116.046 28.537 116.289 28.3358C116.532 28.1294 116.945 28.083 117.524 28.1965C117.731 28.2378 118.113 28.3203 118.661 28.4493C119.214 28.5783 119.782 28.7125 120.366 28.8466C120.95 28.9808 121.471 29.1046 121.931 29.2182C122.391 29.3317 122.655 29.3936 122.722 29.4039C123.74 29.6 124.556 29.7135 125.176 29.7496C125.791 29.7858 126.287 29.8374 126.659 29.9096C127.005 29.9767 127.253 30.1212 127.403 30.3379C127.553 30.5598 127.63 30.8745 127.635 31.2821C127.641 31.6898 127.589 32.2006 127.486 32.8147C127.377 33.4287 127.243 34.1666 127.083 35.018C126.783 36.5917 126.328 37.8456 125.729 38.7847C125.129 39.7238 124.406 40.4308 123.559 40.9003C122.711 41.375 121.75 41.6691 120.671 41.7827C119.591 41.9013 118.413 41.9168 117.131 41.8394C116.94 41.8291 116.775 41.8136 116.635 41.7981C116.496 41.7827 116.356 41.762 116.217 41.7362C115.592 41.6175 115.142 41.4008 114.868 41.0809C114.594 40.7661 114.424 40.3534 114.367 39.8528C114.305 39.3523 114.336 38.7589 114.455 38.0727C114.574 37.3915 114.718 36.6072 114.889 35.73C115.085 34.7135 115.225 33.7022 115.307 32.7011C115.39 31.7001 115.535 30.6784 115.736 29.6361L115.731 29.6464ZM117.968 31.4782C117.865 32.0097 117.793 32.4844 117.746 32.9075C117.7 33.3307 117.643 33.7383 117.565 34.1304L117.462 34.6671C117.4 34.9767 117.328 35.343 117.235 35.7558C117.142 36.1686 117.059 36.5814 116.982 36.9839L116.801 37.9385C116.754 38.1707 116.92 38.3203 117.292 38.3926C117.638 38.4596 118.056 38.47 118.547 38.4184C119.038 38.3668 119.518 38.2429 119.989 38.0469C120.459 37.8508 120.872 37.5567 121.239 37.1697C121.601 36.7827 121.838 36.2925 121.957 35.6888C122.133 34.7651 122.262 34.0685 122.339 33.6041C122.417 33.1397 122.494 32.7115 122.567 32.3193L117.979 31.4782H117.968ZM125.817 44.9509C125.693 45.3327 125.569 45.7816 125.434 46.2976C125.3 46.8085 125.171 47.3812 125.052 48.0056C124.85 49.0479 124.747 49.9664 124.737 50.7662C124.726 51.5659 124.84 52.278 125.083 52.8972C125.403 53.7228 125.977 54.3988 126.798 54.9148C127.62 55.4308 128.762 55.8332 130.224 56.1119C132.099 56.4731 133.567 56.4369 134.636 56.0035C135.701 55.5752 136.367 54.6619 136.636 53.279C136.791 52.4689 136.698 51.8859 136.362 51.5195C136.026 51.1583 135.541 50.9158 134.921 50.7919C134.456 50.7042 133.959 50.6578 133.417 50.6475C132.88 50.6423 132.332 50.6475 131.774 50.6733C131.216 50.6991 130.668 50.7094 130.131 50.6991C129.594 50.6939 129.103 50.6475 128.664 50.5598C128.271 50.4824 127.945 50.374 127.682 50.2295C127.465 50.116 127.325 49.9096 127.263 49.6103C127.201 49.311 127.186 48.9292 127.212 48.47C127.243 48.0056 127.315 47.4689 127.434 46.8601L127.821 44.8322C127.899 44.44 127.868 44.1717 127.744 44.0272C127.615 43.8828 127.47 43.795 127.31 43.7641C127.15 43.7331 126.912 43.7796 126.602 43.8982C126.292 44.0169 126.034 44.3678 125.822 44.9509H125.817ZM139.746 30.1521C139.901 30.7094 140.015 31.2512 140.082 31.7775C140.149 32.3038 140.175 32.8869 140.16 33.5164C140.144 34.1511 140.082 34.8477 139.974 35.6165C139.86 36.3853 139.705 37.2883 139.503 38.3307C139.028 40.8023 138.403 42.7063 137.633 44.0479C136.858 45.3843 135.907 45.9467 134.771 45.73C134.306 45.6423 133.97 45.4462 133.753 45.1418C133.536 44.8374 133.407 44.471 133.37 44.0427C133.334 43.6144 133.345 43.1552 133.401 42.665C133.458 42.1748 133.525 41.6846 133.593 41.1944C133.696 40.3998 133.773 39.6516 133.825 38.955C133.877 38.2584 133.903 37.5567 133.908 36.8497C133.908 36.1428 133.887 35.405 133.83 34.6258C133.773 33.8466 133.717 32.9849 133.66 32.0407C133.618 31.6279 133.536 31.2151 133.412 30.8074C133.288 30.3998 133.169 29.987 133.055 29.569C132.942 29.1511 132.849 28.7331 132.776 28.31C132.699 27.8869 132.704 27.4689 132.781 27.0561C132.936 26.246 133.303 25.7197 133.877 25.4669C134.45 25.2192 135.076 25.1573 135.747 25.2863C136.233 25.3792 136.77 25.5856 137.359 25.9003C137.948 26.2151 138.418 26.5763 138.77 26.9787C138.966 27.2058 139.111 27.4535 139.204 27.7115C139.297 27.9695 139.369 28.2326 139.41 28.5061C139.452 28.7796 139.498 29.0582 139.54 29.3368C139.581 29.6206 139.648 29.889 139.741 30.147L139.746 30.1521Z" fill="#315CA2"/>
<path d="M154.4 43.6916C154.4 44.3366 154.333 44.9712 154.198 45.5904C154.772 45.5646 155.345 45.5285 155.908 45.4821C156.472 45.4356 157.055 45.3892 157.655 45.3376C158.115 45.2911 158.605 45.1983 159.122 45.0589C159.639 44.9196 160.166 44.7855 160.693 44.6565C161.225 44.5275 161.747 44.4243 162.263 44.3417C162.78 44.2592 163.271 44.254 163.731 44.3211C164.676 44.4552 165.302 44.8061 165.601 45.3685C165.901 45.931 165.973 46.5347 165.813 47.1797C165.746 47.7318 165.482 48.1807 165.023 48.5264C164.563 48.8722 164.02 49.1508 163.4 49.3572C162.78 49.5636 162.145 49.7287 161.499 49.8474C160.853 49.9661 160.326 50.0693 159.907 50.1621C159.329 50.3015 158.502 50.3892 157.417 50.4253C156.332 50.4614 155.123 50.4614 153.785 50.415C152.447 50.3737 151.052 50.2911 149.6 50.1673C148.148 50.0435 146.774 49.868 145.482 49.641C143.477 49.254 142.005 48.8257 141.069 48.3562C140.134 47.8866 139.664 47.3551 139.664 46.7514C139.664 46.3851 139.845 46.0961 140.217 45.8845C140.584 45.6781 141.044 45.5388 141.596 45.4666C142.149 45.3943 142.749 45.3685 143.394 45.3737C144.04 45.384 144.64 45.4253 145.193 45.4924C146.159 45.6059 147.177 45.673 148.236 45.6936C149.295 45.7143 150.39 45.7143 151.522 45.6833C151.403 45.3169 151.32 44.9145 151.258 44.4759C151.201 44.0373 151.155 43.5935 151.119 43.1446C151.083 42.6957 151.057 42.2519 151.046 41.8133C151.036 41.3747 151.026 40.9826 151.026 40.6369C151.026 39.6462 151.093 38.8206 151.227 38.1498C151.362 37.4841 151.594 37.1487 151.914 37.1487C152.261 37.1487 152.571 37.3706 152.85 37.8195C153.129 38.2684 153.361 38.8154 153.547 39.4604C153.78 40.1983 153.966 40.9619 154.105 41.7566C154.245 42.5512 154.338 43.191 154.384 43.6709L154.4 43.6916ZM152.002 24.5636C152.441 24.61 152.808 24.7132 153.108 24.8732C153.687 25.2395 153.873 25.7917 153.666 26.5295C153.526 26.9217 153.366 27.3242 153.185 27.737C152.999 28.1498 152.782 28.5884 152.529 29.0528C153.315 29.2334 154.178 29.5223 155.123 29.9093C156.069 30.2963 156.993 30.7504 157.892 31.2664C158.791 31.7824 159.623 32.3448 160.388 32.9537C161.153 33.5626 161.726 34.156 162.119 34.7287C162.305 35.028 162.408 35.3273 162.434 35.6265C162.455 35.9258 162.47 36.2148 162.47 36.4883C162.449 36.7669 162.429 37.0301 162.418 37.2829C162.408 37.5357 162.289 37.7782 162.057 38.0104C161.597 38.5419 161.034 38.8309 160.362 38.8773C159.577 38.9238 158.843 38.6606 158.166 38.0878C157.484 37.5151 156.792 36.8185 156.089 36.0032C155.381 35.1879 154.643 34.3366 153.873 33.4542C153.098 32.5718 152.224 31.8288 151.258 31.2303C150.798 31.9681 150.328 32.6854 149.848 33.3768C149.367 34.0682 148.882 34.7132 148.401 35.3118C147.921 35.9103 147.461 36.4418 147.022 36.9062C146.582 37.3706 146.205 37.7266 145.885 37.9795C145.539 38.2788 145.218 38.5264 144.919 38.7225C144.619 38.9186 144.319 38.996 144.02 38.9496C143.694 38.9031 143.477 38.7999 143.363 38.64C143.25 38.48 143.203 38.3407 143.224 38.2272C143.245 37.995 143.343 37.737 143.513 37.448C143.684 37.1591 143.896 36.8907 144.149 36.6327C144.655 36.1271 145.224 35.4408 145.854 34.5739C146.484 33.707 147.109 32.7628 147.729 31.7359C148.349 30.7091 148.918 29.6616 149.434 28.5884C149.951 27.5151 150.344 26.5192 150.623 25.5956C150.783 25.1363 150.953 24.8371 151.139 24.6977C151.325 24.5584 151.61 24.512 152.002 24.5584V24.5636Z" fill="#F39724"/>
<path d="M170.887 19.4805C171.311 19.5217 171.889 19.563 172.633 19.6095C173.372 19.6559 174.204 19.6972 175.113 19.7488C176.028 19.7952 176.984 19.8571 177.991 19.9242C178.994 19.9965 179.96 20.0739 180.885 20.1616C181.701 20.239 182.476 20.3267 183.215 20.4247C183.949 20.5228 184.589 20.6363 185.137 20.7705C185.685 20.9046 186.113 21.0543 186.429 21.2349C186.744 21.4103 186.894 21.6167 186.868 21.854C186.826 22.303 186.413 22.628 185.638 22.8344C184.858 23.0408 183.928 23.1647 182.848 23.206C181.768 23.2472 180.632 23.2421 179.438 23.1802C178.244 23.1182 177.227 23.046 176.384 22.9686L174.488 22.788C174.473 23.2369 174.442 23.7013 174.395 24.176C174.349 24.6507 174.318 25.1409 174.297 25.6415C174.514 25.5847 174.757 25.5434 175.026 25.5331C175.294 25.5228 175.547 25.5228 175.785 25.5434C177.165 25.5692 178.554 25.6053 179.95 25.6415C181.345 25.6827 182.786 25.6673 184.284 25.6002C185.137 25.5744 185.731 25.6931 186.067 25.9511C186.403 26.2091 186.589 26.5238 186.635 26.9005C186.656 27.2462 186.527 27.5403 186.253 27.7828C185.974 28.0202 185.628 28.2163 185.199 28.3608C184.77 28.5052 184.331 28.6188 183.871 28.691C183.411 28.7684 183.008 28.7994 182.662 28.7942C182.45 28.7994 182.006 28.7942 181.329 28.7684C180.652 28.7426 179.888 28.691 179.03 28.6084C178.172 28.5259 177.314 28.4124 176.446 28.2627C175.584 28.1131 174.871 27.917 174.307 27.6796C174.359 28.5362 174.514 29.2792 174.772 29.9191C175.031 30.5589 175.491 30.9201 176.147 31.0078C176.725 31.0904 177.433 31.1368 178.27 31.1523C179.107 31.1678 179.96 31.1678 180.823 31.1523C181.691 31.142 182.528 31.1317 183.339 31.1162C184.15 31.1007 184.837 31.1059 185.39 31.1317C185.788 31.142 186.196 31.1781 186.62 31.2297C187.038 31.2813 187.415 31.3948 187.746 31.5548C188.077 31.7199 188.34 31.9572 188.537 32.2668C188.733 32.5764 188.805 32.9841 188.759 33.4846C188.692 34.1709 188.314 34.723 187.622 35.1513C186.93 35.5795 186.015 35.884 184.879 36.0646C184.253 36.1936 183.602 36.2761 182.92 36.3174C182.238 36.3587 181.525 36.369 180.781 36.3535C180.812 36.8592 180.818 37.3649 180.797 37.8706C180.776 38.3711 180.73 38.8355 180.663 39.2534C181.587 39.3153 182.486 39.3618 183.365 39.3927C184.238 39.4237 185.09 39.4495 185.912 39.4753C186.444 39.5011 186.945 39.4598 187.421 39.3618C187.896 39.2637 188.371 39.1606 188.847 39.0574C189.322 38.9593 189.803 38.8871 190.283 38.8561C190.764 38.82 191.265 38.8716 191.787 39.0006C192.882 39.2379 193.564 39.6559 193.843 40.2545C194.117 40.853 194.132 41.4825 193.879 42.1533C193.745 42.7261 193.455 43.1698 193.011 43.4846C192.567 43.7994 192.06 44.047 191.482 44.2173C190.908 44.3876 190.304 44.5011 189.673 44.563C189.043 44.6198 188.485 44.6662 188.004 44.7023C187.333 44.7694 186.289 44.7643 184.873 44.6817C183.458 44.5991 181.887 44.4495 180.167 44.2328C178.446 44.0161 176.679 43.7478 174.876 43.4278C173.067 43.1079 171.44 42.7622 169.988 42.3804C167.756 41.7973 166.19 41.2142 165.286 40.6363C164.382 40.0584 163.964 39.4547 164.026 38.82C164.062 38.4227 164.284 38.144 164.687 37.9841C165.09 37.8241 165.581 37.7312 166.17 37.7054C166.759 37.6796 167.399 37.7054 168.097 37.788C168.794 37.8706 169.456 37.9634 170.086 38.077C171.104 38.2782 172.267 38.464 173.569 38.6291C174.871 38.7942 176.219 38.9284 177.619 39.0367C177.769 38.015 177.862 37.0398 177.898 36.111C176.322 35.8788 175.062 35.5021 174.116 34.9707C173.171 34.4392 172.458 33.7271 171.988 32.8344C171.605 32.1069 171.368 31.2607 171.274 30.2957C171.181 29.3308 171.197 28.1905 171.321 26.8695L171.419 25.8221C171.461 25.4144 171.507 24.9913 171.559 24.5579C171.616 24.1244 171.672 23.7065 171.74 23.2988C171.807 22.8912 171.864 22.5455 171.92 22.2617C171.274 22.0656 170.773 21.8128 170.417 21.498C170.06 21.1833 169.91 20.7653 169.957 20.239C170.003 19.7127 170.324 19.4392 170.908 19.4908L170.887 19.4805ZM182.316 47.2049C183.478 47.5816 184.305 48.3143 184.801 49.3979C185.297 50.4815 185.483 51.6322 185.369 52.8396C185.302 53.5259 185.142 54.1864 184.879 54.8262C184.615 55.466 184.269 56.0285 183.84 56.5187C183.406 57.0088 182.9 57.3907 182.311 57.6693C181.727 57.9428 181.06 58.046 180.327 57.9789C179.19 57.8706 178.182 57.5661 177.299 57.0708C176.415 56.5754 175.677 55.9923 175.093 55.3267C174.504 54.6559 174.075 53.9593 173.796 53.2266C173.522 52.4939 173.408 51.8386 173.465 51.2607C173.512 50.7601 173.698 50.2338 174.018 49.6765C174.338 49.1244 174.798 48.6239 175.398 48.175C175.997 47.7261 176.731 47.3804 177.593 47.1275C178.456 46.8798 179.469 46.8076 180.626 46.9211C180.916 46.9469 181.205 46.9882 181.494 47.045C181.784 47.1017 182.058 47.1533 182.316 47.2049V47.2049ZM179.376 50.3938L178.978 50.3577C178.374 50.3009 177.934 50.4041 177.671 50.6724C177.407 50.9407 177.263 51.2039 177.237 51.4671C177.211 51.756 177.33 52.1017 177.599 52.499C177.867 52.8964 178.291 53.1234 178.87 53.1802C179.236 53.2163 179.521 53.0976 179.722 52.8241C179.924 52.5506 180.037 52.2307 180.073 51.8592C180.135 51.1987 179.903 50.7137 179.376 50.3989V50.3938Z" fill="#F39724"/>
<path d="M201.742 20.9312C201.954 20.9725 202.202 21.0344 202.496 21.1325C202.791 21.2253 202.998 21.3285 203.111 21.4266C203.339 21.6588 203.457 21.9426 203.463 22.2831C203.463 22.6237 203.442 22.9384 203.39 23.2222C203.24 24.0323 202.956 24.9147 202.533 25.8641C202.114 26.8136 201.608 27.7785 201.024 28.7485C201.706 29.1717 202.388 29.6464 203.08 30.1624C203.767 30.6835 204.418 31.2408 205.023 31.8394C205.627 32.4379 206.165 33.052 206.635 33.6815C207.1 34.311 207.457 34.9147 207.699 35.5029C207.854 35.828 207.896 36.1531 207.823 36.4782C207.751 36.8032 207.684 37.1077 207.632 37.3966C207.581 37.6856 207.508 37.9642 207.415 38.2274C207.327 38.4957 207.141 38.7227 206.862 38.9188C206.578 39.1355 206.263 39.2955 205.922 39.3935C205.581 39.4916 205.235 39.5122 204.894 39.4451C204.16 39.311 203.556 38.9807 203.085 38.4596C202.615 37.9384 202.171 37.3192 201.763 36.5917C201.355 35.8693 200.946 35.0798 200.533 34.2336C200.12 33.3874 199.613 32.5566 199.004 31.7413C198.291 32.665 197.583 33.5215 196.88 34.311C196.177 35.1005 195.511 35.7506 194.875 36.2511C194.519 36.5659 194.157 36.8032 193.79 36.9632C193.424 37.1232 193.083 37.1748 192.767 37.118C192.426 37.0561 192.204 36.9322 192.106 36.7516C192.003 36.571 191.967 36.4162 191.992 36.2821C192.039 36.0189 192.178 35.7403 192.411 35.4462C192.643 35.1521 192.897 34.8734 193.176 34.6154C193.455 34.3574 193.708 34.1252 193.935 33.924C194.162 33.7227 194.307 33.5989 194.369 33.5576C194.813 33.0726 195.263 32.5308 195.728 31.9426C196.782 30.4875 197.681 28.893 198.425 27.1644C199.164 25.4359 199.763 23.7073 200.218 21.9787C200.295 21.6949 200.388 21.4627 200.492 21.2769C200.595 21.0912 200.729 20.9777 200.9 20.9261C201.019 20.8641 201.143 20.8435 201.277 20.8538C201.411 20.8641 201.566 20.8899 201.752 20.9209L201.742 20.9312ZM217.418 25.1675C217.335 27.6701 217.087 29.9044 216.684 31.8703C216.276 33.8363 215.718 35.6474 215.005 37.3038C214.488 38.4802 213.93 39.2749 213.321 39.6928C212.716 40.1108 212.22 40.2656 211.833 40.1675C211.445 40.0695 211.177 39.8321 211.032 39.4503C210.887 39.0736 210.815 38.6195 210.815 38.0932C210.815 37.5669 210.861 37.0148 210.939 36.4317C211.022 35.8538 211.094 35.312 211.161 34.8063C211.239 34.0891 211.326 33.377 211.414 32.6598C211.507 31.9477 211.569 31.215 211.6 30.4617C210.985 30.4049 210.381 30.3223 209.776 30.2243C209.172 30.1263 208.635 30.0334 208.159 29.9457C207.11 29.7496 206.247 29.5174 205.565 29.2439C204.883 28.9704 204.568 28.6866 204.625 28.4028C204.687 28.0623 204.992 27.8146 205.534 27.6598C206.077 27.505 206.713 27.3915 207.446 27.3244C208.175 27.2573 208.924 27.2315 209.694 27.2522C210.464 27.2728 211.115 27.3038 211.647 27.3502C211.636 27.1077 211.631 26.86 211.621 26.6175C211.611 26.3698 211.605 26.1118 211.6 25.8435C211.569 25.4307 211.533 24.9973 211.497 24.5432C211.461 24.0891 211.44 23.6402 211.44 23.1964C211.44 22.7475 211.476 22.3038 211.549 21.8548C211.616 21.4059 211.745 20.9828 211.926 20.5855C212.236 19.7754 212.623 19.3007 213.083 19.1562C213.543 19.0117 214.091 19.0633 214.721 19.3161C215.196 19.538 215.667 19.8786 216.137 20.3275C216.607 20.7764 216.979 21.2356 217.248 21.6897C217.516 22.2831 217.62 22.861 217.552 23.4286C217.485 24.0014 217.439 24.5793 217.413 25.1675H217.418ZM207.648 42.3554C207.513 42.7888 207.384 43.2326 207.26 43.6815C207.136 44.1304 207.007 44.7083 206.878 45.4152C206.661 46.5917 206.547 47.634 206.542 48.537C206.537 49.44 206.671 50.2449 206.95 50.9467C207.317 51.8806 207.973 52.6392 208.908 53.2171C209.844 53.795 211.135 54.2387 212.789 54.5432C214.912 54.9353 216.571 54.8837 217.775 54.3884C218.978 53.893 219.722 52.861 220.017 51.2924C220.187 50.3739 220.079 49.7135 219.697 49.3058C219.309 48.8982 218.767 48.6247 218.059 48.4957C217.537 48.3977 216.969 48.3461 216.359 48.3461C215.749 48.3461 215.129 48.3564 214.504 48.3874C213.874 48.4183 213.254 48.4338 212.649 48.4286C212.045 48.4235 211.487 48.377 210.991 48.2842C210.546 48.2016 210.174 48.0778 209.88 47.9178C209.379 47.6908 209.187 47.0922 209.296 46.1273C209.41 45.1624 209.616 43.8517 209.921 42.2057C210.004 41.762 209.973 41.4575 209.828 41.2924C209.683 41.1324 209.518 41.0292 209.332 40.9983C209.146 40.9673 208.883 41.0189 208.531 41.1531C208.18 41.2872 207.891 41.6897 207.658 42.3502L207.648 42.3554ZM227.028 24.6309C227.354 24.9353 227.504 25.5803 227.483 26.5607C227.462 27.5463 227.328 28.7176 227.075 30.0798C226.858 31.2563 226.444 32.5566 225.845 33.9704C225.241 35.3894 224.46 36.86 223.499 38.3874C222.921 39.311 222.321 40.0282 221.696 40.5494C221.071 41.0705 220.456 41.2718 219.857 41.1634C219.49 41.0963 219.211 40.9415 219.025 40.7042C218.839 40.4668 218.699 40.1779 218.617 39.8373C218.529 39.4967 218.503 39.1201 218.539 38.7073C218.575 38.2945 218.648 37.8662 218.756 37.4276C219.252 35.4875 219.593 33.5731 219.784 31.6691C219.976 29.7702 220.038 27.8817 219.981 26.0035C219.976 25.5958 219.924 25.1675 219.831 24.7186C219.738 24.2697 219.65 23.8208 219.573 23.3719C219.495 22.923 219.433 22.4792 219.392 22.0406C219.35 21.602 219.371 21.1582 219.454 20.7145C219.635 19.7444 220.027 19.1097 220.642 18.8053C221.252 18.5009 221.929 18.4132 222.662 18.5473C222.926 18.5938 223.231 18.6918 223.582 18.8414C223.933 18.9859 224.28 19.1717 224.615 19.3987C224.951 19.6257 225.272 19.8631 225.576 20.1263C225.881 20.3843 226.129 20.6526 226.32 20.9312C226.512 21.2098 226.641 21.4988 226.708 21.7929C226.775 22.087 226.816 22.4018 226.837 22.732C226.858 23.0623 226.873 23.3874 226.878 23.7124C226.884 24.0375 226.93 24.3471 227.013 24.6309H227.028Z" fill="#315CA2"/>
<path d="M228.801 31.4263C230.165 31.4779 231.452 31.6585 232.655 31.9733C233.859 32.2829 235.079 32.5151 236.313 32.6647C237.068 32.7421 237.791 32.835 238.468 32.9382C239.15 33.0414 239.739 33.1497 240.24 33.2736C240.741 33.3923 241.144 33.5367 241.439 33.6967C241.739 33.8618 241.868 34.0321 241.837 34.2075C241.795 34.5584 241.522 34.8267 241.01 35.0125C240.493 35.1931 239.868 35.3221 239.134 35.3943C238.421 35.4666 237.646 35.4975 236.815 35.4769C235.978 35.4562 235.172 35.4098 234.386 35.3272V35.5182C234.278 36.1735 234.19 36.8443 234.112 37.5357C234.035 38.2271 233.957 38.9134 233.88 39.5945C234.841 39.579 235.817 39.5429 236.809 39.481C237.801 39.4191 238.814 39.3159 239.863 39.1817C240.499 39.0785 240.953 39.1404 241.222 39.3675C241.491 39.5945 241.646 39.8938 241.682 40.2756C241.718 40.6059 241.63 40.8948 241.418 41.1373C241.206 41.385 240.943 41.5863 240.633 41.7514C240.323 41.9165 239.992 42.0507 239.646 42.1487C239.3 42.2467 239 42.3087 238.747 42.3241C238.618 42.3448 238.38 42.3603 238.024 42.3706C237.667 42.3809 237.249 42.3861 236.768 42.3809C236.288 42.3757 235.771 42.3551 235.213 42.319C234.655 42.2829 234.138 42.2209 233.663 42.1281L233.601 43.7947C233.58 44.3004 233.575 44.7287 233.591 45.0847C233.601 45.4924 233.637 45.802 233.704 46.0187C233.771 46.2354 233.88 46.4005 234.03 46.5037C234.18 46.6121 234.371 46.674 234.614 46.6946C234.851 46.7153 235.151 46.7359 235.502 46.7462C235.833 46.7565 236.288 46.7514 236.871 46.7256C237.455 46.6998 238.06 46.6585 238.68 46.6069C239.3 46.5553 239.879 46.4934 240.416 46.4263C240.953 46.3592 241.356 46.2921 241.64 46.2251C241.945 46.1631 242.214 46.1528 242.441 46.1993C242.669 46.2457 242.855 46.287 243.004 46.3179C243.283 46.3541 243.438 46.4005 243.475 46.4521C243.511 46.5037 243.537 46.5966 243.557 46.7204C243.547 46.9475 243.371 47.1693 243.02 47.3809C242.669 47.5976 242.312 47.7834 241.956 47.9485C241.62 48.0878 241.16 48.2426 240.571 48.4077C239.982 48.5728 239.357 48.738 238.69 48.9031C238.024 49.0682 237.362 49.223 236.696 49.3778C236.029 49.5274 235.471 49.6461 235.011 49.7287C234.397 49.8577 233.684 49.9557 232.872 50.028C232.056 50.1002 231.276 50.0692 230.522 49.9351C229.793 49.8061 229.147 49.5532 228.594 49.1766C228.041 48.7999 227.685 48.2323 227.54 47.4686C227.375 46.5501 227.328 45.5491 227.411 44.4655C227.489 43.3819 227.638 42.3345 227.855 41.3334C228.072 40.3324 228.326 39.4294 228.625 38.6296C228.925 37.8298 229.204 37.288 229.467 36.9939C229.788 36.6017 230.051 36.2302 230.268 35.8845C230.485 35.5388 230.697 35.2292 230.914 34.9609C229.757 34.7906 228.899 34.5532 228.336 34.254C227.778 33.9547 227.54 33.4129 227.618 32.6337C227.649 32.4325 227.742 32.1745 227.897 31.8649C228.047 31.5553 228.351 31.4057 228.806 31.4263H228.801ZM249.964 39.3004L250.383 39.3159C250.259 38.6554 250.109 38.0053 249.943 37.3654C249.778 36.7256 249.592 36.1012 249.391 35.4872C249.256 35.0796 249.081 34.6564 248.869 34.2333C248.657 33.8102 248.461 33.3819 248.274 32.9588C248.088 32.5357 247.933 32.1074 247.809 31.6688C247.685 31.2354 247.634 30.7916 247.654 30.3324C247.691 29.45 247.99 28.8257 248.564 28.4697C249.132 28.1136 249.788 27.9485 250.522 27.9743C251.054 27.9949 251.659 28.1239 252.33 28.3665C253.007 28.609 253.565 28.9134 254.004 29.2849C254.247 29.4965 254.444 29.7338 254.583 29.9918C254.723 30.2498 254.841 30.5182 254.929 30.802C255.017 31.0857 255.11 31.3747 255.198 31.6637C255.286 31.9578 255.405 32.2364 255.544 32.4944C255.818 32.6544 256.05 33.0259 256.242 33.6038C256.433 34.1817 256.593 34.899 256.712 35.7658C256.831 36.6327 256.913 37.6028 256.96 38.676C257.006 39.7545 257.006 40.8587 256.96 41.9991C256.908 43.3407 256.795 44.6616 256.619 45.9722C256.443 47.2829 256.195 48.449 255.875 49.4707C255.554 50.4975 255.162 51.3231 254.697 51.9475C254.232 52.577 253.679 52.8763 253.049 52.8505C252.542 52.8298 252.15 52.6389 251.876 52.2725C251.597 51.9062 251.4 51.4573 251.282 50.9206C251.163 50.384 251.096 49.8112 251.08 49.2075C251.065 48.5986 251.07 48.0311 251.09 47.4996C251.152 45.8329 251.07 44.0579 250.837 42.1797C250.15 42.2777 249.437 42.3241 248.703 42.3087C247.97 42.2932 247.324 42.2725 246.766 42.2519C245.753 42.2106 244.911 42.1126 244.229 41.9475C243.552 41.7823 243.216 41.5605 243.227 41.2818C243.237 40.9516 243.511 40.6678 244.038 40.4201C244.565 40.1724 245.19 39.9764 245.903 39.8267C246.616 39.6771 247.355 39.5584 248.12 39.4758C248.884 39.3933 249.494 39.3314 249.949 39.3004H249.964Z" fill="#315CA2"/>
<path d="M188.344 20.0591C188.344 20.0591 192.115 12.3036 195.944 13.0518C197.039 13.2634 197.82 14.2851 197.747 15.3945C197.634 17.1076 196.146 19.703 188.344 20.0591Z" fill="#F39724"/>
<path d="M186.916 19.7592C186.916 19.7592 188.652 15.9202 187.066 14.1503C186.591 13.6188 185.811 13.495 185.247 13.9284C184.462 14.5373 183.889 16.0492 186.916 19.754V19.7592Z" fill="#F39724"/>
</g>
<defs>
<linearGradient id="paint0_linear_363_4766" x1="17.273" y1="35.0291" x2="70.7718" y2="35.0291" gradientUnits="userSpaceOnUse">
<stop offset="0.4" stop-color="#00B9EF"/>
<stop offset="1" stop-color="#4694D1"/>
</linearGradient>
<linearGradient id="paint1_linear_363_4766" x1="17.273" y1="28.2264" x2="77.4982" y2="28.2264" gradientUnits="userSpaceOnUse">
<stop stop-color="#ED6C00"/>
<stop offset="1" stop-color="#FDD000"/>
</linearGradient>
<clipPath id="clip0_363_4766">
<rect width="257" height="45" fill="white" transform="translate(0 13)"/>
</clipPath>
</defs>
</svg>
