<svg width="62" height="62" viewBox="0 0 62 62" fill="none" xmlns="http://www.w3.org/2000/svg">
<g clip-path="url(#clip0_30_256)">
<path d="M51.0467 40.0804C45.0017 40.0804 40.0804 45.0017 40.0804 51.0338C40.0804 57.0659 45.0017 62 51.0467 62C57.0917 62 62 57.0788 62 51.0338C62 44.9888 57.0787 40.0804 51.0467 40.0804V40.0804ZM51.9896 60.0754V58.5642C51.9896 58.0475 51.5633 57.6213 51.0467 57.6213C50.53 57.6213 50.1037 58.0475 50.1037 58.5642V60.0754C45.8412 59.6363 42.4571 56.2392 42.0179 51.9767H43.5292C44.0458 51.9767 44.4721 51.5504 44.4721 51.0338C44.4721 50.5171 44.0458 50.0909 43.5292 50.0909H42.0179C42.4958 45.5184 46.3579 41.9534 51.0467 41.9534C55.7354 41.9534 59.6104 45.5313 60.0754 50.0909H58.5642C58.0475 50.0909 57.6212 50.5171 57.6212 51.0338C57.6212 51.5504 58.0475 51.9767 58.5642 51.9767H60.0754C59.6362 56.2392 56.2392 59.6234 51.9896 60.0754V60.0754Z" fill="url(#paint0_linear_30_256)"/>
<path d="M53.9012 50.1038H51.9767V45.5054C51.9767 44.9887 51.5504 44.5625 51.0337 44.5625C50.5171 44.5625 50.0908 44.9887 50.0908 45.5054V51.0467C50.0908 51.5633 50.5171 51.9896 51.0337 51.9896H53.9012C54.4179 51.9896 54.8442 51.5633 54.8442 51.0467C54.8442 50.53 54.4179 50.1038 53.9012 50.1038Z" fill="url(#paint1_linear_30_256)"/>
<path d="M14.2987 38.8146H7.8275C7.31083 38.8146 6.88458 39.2408 6.88458 39.7575C6.88458 40.2742 7.31083 40.7004 7.8275 40.7004H14.2987C14.8154 40.7004 15.2417 40.2742 15.2417 39.7575C15.2417 39.2408 14.8154 38.8146 14.2987 38.8146Z" fill="url(#paint2_linear_30_256)"/>
<path d="M27.4996 38.8146H21.0283C20.5117 38.8146 20.0854 39.2408 20.0854 39.7575C20.0854 40.2742 20.5117 40.7004 21.0283 40.7004H27.4996C28.0163 40.7004 28.4425 40.2742 28.4425 39.7575C28.4425 39.2408 28.0163 38.8146 27.4996 38.8146Z" fill="url(#paint3_linear_30_256)"/>
<path d="M40.8296 38.8146H34.3583C33.8417 38.8146 33.4154 39.2408 33.4154 39.7575C33.4154 40.2742 33.8417 40.7004 34.3583 40.7004H40.8296C41.3462 40.7004 41.7725 40.2742 41.7725 39.7575C41.7725 39.2408 41.3462 38.8146 40.8296 38.8146V38.8146Z" fill="url(#paint4_linear_30_256)"/>
<path d="M14.2987 46.3321H7.8275C7.31083 46.3321 6.88458 46.7583 6.88458 47.275C6.88458 47.7917 7.31083 48.2179 7.8275 48.2179H14.2987C14.8154 48.2179 15.2417 47.7917 15.2417 47.275C15.2417 46.7583 14.8154 46.3321 14.2987 46.3321Z" fill="url(#paint5_linear_30_256)"/>
<path d="M27.4996 46.3321H21.0283C20.5117 46.3321 20.0854 46.7583 20.0854 47.275C20.0854 47.7917 20.5117 48.2179 21.0283 48.2179H27.4996C28.0163 48.2179 28.4425 47.7917 28.4425 47.275C28.4425 46.7583 28.0163 46.3321 27.4996 46.3321Z" fill="url(#paint6_linear_30_256)"/>
<path d="M54.1725 16.275H47.7012C47.1846 16.275 46.7583 16.7013 46.7583 17.2179C46.7583 17.7346 47.1846 18.1609 47.7012 18.1609H54.1725C54.6892 18.1609 55.1154 17.7346 55.1154 17.2179C55.1154 16.7013 54.6892 16.275 54.1725 16.275Z" fill="url(#paint7_linear_30_256)"/>
<path d="M40.8296 16.275H34.3583C33.8417 16.275 33.4154 16.7013 33.4154 17.2179C33.4154 17.7346 33.8417 18.1609 34.3583 18.1609H40.8296C41.3462 18.1609 41.7725 17.7346 41.7725 17.2179C41.7725 16.7013 41.3462 16.275 40.8296 16.275V16.275Z" fill="url(#paint8_linear_30_256)"/>
<path d="M14.2987 23.7796H7.8275C7.31083 23.7796 6.88458 24.2059 6.88458 24.7225C6.88458 25.2392 7.31083 25.6654 7.8275 25.6654H14.2987C14.8154 25.6654 15.2417 25.2392 15.2417 24.7225C15.2417 24.2059 14.8154 23.7796 14.2987 23.7796Z" fill="url(#paint9_linear_30_256)"/>
<path d="M27.4996 23.7796H21.0283C20.5117 23.7796 20.0854 24.2059 20.0854 24.7225C20.0854 25.2392 20.5117 25.6654 21.0283 25.6654H27.4996C28.0163 25.6654 28.4425 25.2392 28.4425 24.7225C28.4425 24.2059 28.0163 23.7796 27.4996 23.7796Z" fill="url(#paint10_linear_30_256)"/>
<path d="M54.1725 23.7796H47.7012C47.1846 23.7796 46.7583 24.2059 46.7583 24.7225C46.7583 25.2392 47.1846 25.6654 47.7012 25.6654H54.1725C54.6892 25.6654 55.1154 25.2392 55.1154 24.7225C55.1154 24.2059 54.6892 23.7796 54.1725 23.7796Z" fill="url(#paint11_linear_30_256)"/>
<path d="M40.8296 23.7796H34.3583C33.8417 23.7796 33.4154 24.2059 33.4154 24.7225C33.4154 25.2392 33.8417 25.6654 34.3583 25.6654H40.8296C41.3462 25.6654 41.7725 25.2392 41.7725 24.7225C41.7725 24.2059 41.3462 23.7796 40.8296 23.7796V23.7796Z" fill="url(#paint12_linear_30_256)"/>
<path d="M14.2987 31.2971H7.8275C7.31083 31.2971 6.88458 31.7233 6.88458 32.24C6.88458 32.7566 7.31083 33.1829 7.8275 33.1829H14.2987C14.8154 33.1829 15.2417 32.7566 15.2417 32.24C15.2417 31.7233 14.8154 31.2971 14.2987 31.2971Z" fill="url(#paint13_linear_30_256)"/>
<path d="M27.4996 31.2971H21.0283C20.5117 31.2971 20.0854 31.7233 20.0854 32.24C20.0854 32.7566 20.5117 33.1829 21.0283 33.1829H27.4996C28.0163 33.1829 28.4425 32.7566 28.4425 32.24C28.4425 31.7233 28.0163 31.2971 27.4996 31.2971Z" fill="url(#paint14_linear_30_256)"/>
<path d="M54.1725 31.2971H47.7012C47.1846 31.2971 46.7583 31.7233 46.7583 32.24C46.7583 32.7566 47.1846 33.1829 47.7012 33.1829H54.1725C54.6892 33.1829 55.1154 32.7566 55.1154 32.24C55.1154 31.7233 54.6892 31.2971 54.1725 31.2971Z" fill="url(#paint15_linear_30_256)"/>
<path d="M40.8296 31.2971H34.3583C33.8417 31.2971 33.4154 31.7233 33.4154 32.24C33.4154 32.7566 33.8417 33.1829 34.3583 33.1829H40.8296C41.3462 33.1829 41.7725 32.7566 41.7725 32.24C41.7725 31.7233 41.3462 31.2971 40.8296 31.2971V31.2971Z" fill="url(#paint16_linear_30_256)"/>
<path d="M39.7704 60.1142H4.70167C3.15167 60.1142 1.88583 58.8483 1.88583 57.2983V54.7667C2.67375 55.3608 3.6425 55.7354 4.70167 55.7354H36.6833C37.2 55.7354 37.6262 55.3092 37.6262 54.7925C37.6262 54.2758 37.2 53.8496 36.6833 53.8496H4.70167C3.15167 53.8496 1.88583 52.5837 1.88583 51.0337V10.6433H60.1142V39.7704C60.1142 40.2871 60.5404 40.7133 61.0571 40.7133C61.5737 40.7133 62 40.2871 62 39.7704V7.2075C62 4.61125 59.8946 2.50583 57.2983 2.50583H54.4825V0.942917C54.4825 0.42625 54.0562 0 53.5396 0C53.0229 0 52.5967 0.42625 52.5967 0.942917V2.50583H43.2062V0.942917C43.2062 0.42625 42.78 0 42.2633 0C41.7467 0 41.3204 0.42625 41.3204 0.942917V2.50583H31.93V0.942917C31.93 0.42625 31.5037 0 30.9871 0C30.4704 0 30.0442 0.42625 30.0442 0.942917V2.50583H20.6537V0.942917C20.6537 0.42625 20.2275 0 19.7108 0C19.1942 0 18.7679 0.42625 18.7679 0.942917V2.50583H9.39042V0.942917C9.39042 0.42625 8.96417 0 8.4475 0C7.93083 0 7.50458 0.42625 7.50458 0.942917V2.50583H4.70167C2.10542 2.50583 0 4.61125 0 7.2075V57.2983C0 59.8817 2.10542 62 4.70167 62H39.7704C40.2871 62 40.7133 61.5737 40.7133 61.0571C40.7133 60.5404 40.2871 60.1142 39.7704 60.1142V60.1142ZM1.87292 7.2075C1.87292 5.6575 3.13875 4.39167 4.68875 4.39167H7.50458V4.70167C7.50458 5.21833 7.93083 5.64458 8.4475 5.64458C8.96417 5.64458 9.39042 5.21833 9.39042 4.70167V4.39167H18.7808V4.70167C18.7808 5.21833 19.2071 5.64458 19.7237 5.64458C20.2404 5.64458 20.6667 5.21833 20.6667 4.70167V4.39167H30.0571V4.70167C30.0571 5.21833 30.4833 5.64458 31 5.64458C31.5167 5.64458 31.9429 5.21833 31.9429 4.70167V4.39167H41.3333V4.70167C41.3333 5.21833 41.7596 5.64458 42.2762 5.64458C42.7929 5.64458 43.2192 5.21833 43.2192 4.70167V4.39167H52.6096V4.70167C52.6096 5.21833 53.0358 5.64458 53.5525 5.64458C54.0692 5.64458 54.4954 5.21833 54.4954 4.70167V4.39167H57.3112C58.8612 4.39167 60.1271 5.6575 60.1271 7.2075V8.77042H1.87292V7.2075Z" fill="url(#paint17_linear_30_256)"/>
</g>
<defs>
<linearGradient id="paint0_linear_30_256" x1="51.0402" y1="40.0804" x2="51.0402" y2="62" gradientUnits="userSpaceOnUse">
<stop stop-color="#3182F6"/>
<stop offset="1" stop-color="#2CB58E"/>
</linearGradient>
<linearGradient id="paint1_linear_30_256" x1="52.4675" y1="44.5625" x2="52.4675" y2="51.9896" gradientUnits="userSpaceOnUse">
<stop stop-color="#3182F6"/>
<stop offset="1" stop-color="#2CB58E"/>
</linearGradient>
<linearGradient id="paint2_linear_30_256" x1="11.0631" y1="38.8146" x2="11.0631" y2="40.7004" gradientUnits="userSpaceOnUse">
<stop stop-color="#3182F6"/>
<stop offset="1" stop-color="#2CB58E"/>
</linearGradient>
<linearGradient id="paint3_linear_30_256" x1="24.264" y1="38.8146" x2="24.264" y2="40.7004" gradientUnits="userSpaceOnUse">
<stop stop-color="#3182F6"/>
<stop offset="1" stop-color="#2CB58E"/>
</linearGradient>
<linearGradient id="paint4_linear_30_256" x1="37.5939" y1="38.8146" x2="37.5939" y2="40.7004" gradientUnits="userSpaceOnUse">
<stop stop-color="#3182F6"/>
<stop offset="1" stop-color="#2CB58E"/>
</linearGradient>
<linearGradient id="paint5_linear_30_256" x1="11.0631" y1="46.3321" x2="11.0631" y2="48.2179" gradientUnits="userSpaceOnUse">
<stop stop-color="#3182F6"/>
<stop offset="1" stop-color="#2CB58E"/>
</linearGradient>
<linearGradient id="paint6_linear_30_256" x1="24.264" y1="46.3321" x2="24.264" y2="48.2179" gradientUnits="userSpaceOnUse">
<stop stop-color="#3182F6"/>
<stop offset="1" stop-color="#2CB58E"/>
</linearGradient>
<linearGradient id="paint7_linear_30_256" x1="50.9369" y1="16.275" x2="50.9369" y2="18.1609" gradientUnits="userSpaceOnUse">
<stop stop-color="#3182F6"/>
<stop offset="1" stop-color="#2CB58E"/>
</linearGradient>
<linearGradient id="paint8_linear_30_256" x1="37.5939" y1="16.275" x2="37.5939" y2="18.1609" gradientUnits="userSpaceOnUse">
<stop stop-color="#3182F6"/>
<stop offset="1" stop-color="#2CB58E"/>
</linearGradient>
<linearGradient id="paint9_linear_30_256" x1="11.0631" y1="23.7796" x2="11.0631" y2="25.6654" gradientUnits="userSpaceOnUse">
<stop stop-color="#3182F6"/>
<stop offset="1" stop-color="#2CB58E"/>
</linearGradient>
<linearGradient id="paint10_linear_30_256" x1="24.264" y1="23.7796" x2="24.264" y2="25.6654" gradientUnits="userSpaceOnUse">
<stop stop-color="#3182F6"/>
<stop offset="1" stop-color="#2CB58E"/>
</linearGradient>
<linearGradient id="paint11_linear_30_256" x1="50.9369" y1="23.7796" x2="50.9369" y2="25.6654" gradientUnits="userSpaceOnUse">
<stop stop-color="#3182F6"/>
<stop offset="1" stop-color="#2CB58E"/>
</linearGradient>
<linearGradient id="paint12_linear_30_256" x1="37.5939" y1="23.7796" x2="37.5939" y2="25.6654" gradientUnits="userSpaceOnUse">
<stop stop-color="#3182F6"/>
<stop offset="1" stop-color="#2CB58E"/>
</linearGradient>
<linearGradient id="paint13_linear_30_256" x1="11.0631" y1="31.2971" x2="11.0631" y2="33.1829" gradientUnits="userSpaceOnUse">
<stop stop-color="#3182F6"/>
<stop offset="1" stop-color="#2CB58E"/>
</linearGradient>
<linearGradient id="paint14_linear_30_256" x1="24.264" y1="31.2971" x2="24.264" y2="33.1829" gradientUnits="userSpaceOnUse">
<stop stop-color="#3182F6"/>
<stop offset="1" stop-color="#2CB58E"/>
</linearGradient>
<linearGradient id="paint15_linear_30_256" x1="50.9369" y1="31.2971" x2="50.9369" y2="33.1829" gradientUnits="userSpaceOnUse">
<stop stop-color="#3182F6"/>
<stop offset="1" stop-color="#2CB58E"/>
</linearGradient>
<linearGradient id="paint16_linear_30_256" x1="37.5939" y1="31.2971" x2="37.5939" y2="33.1829" gradientUnits="userSpaceOnUse">
<stop stop-color="#3182F6"/>
<stop offset="1" stop-color="#2CB58E"/>
</linearGradient>
<linearGradient id="paint17_linear_30_256" x1="31" y1="0" x2="31" y2="62" gradientUnits="userSpaceOnUse">
<stop stop-color="#3182F6"/>
<stop offset="1" stop-color="#2CB58E"/>
</linearGradient>
<clipPath id="clip0_30_256">
<rect width="62" height="62" fill="white"/>
</clipPath>
</defs>
</svg>
