<svg width="120" height="120" viewBox="0 0 120 120" fill="none" xmlns="http://www.w3.org/2000/svg">
<g clip-path="url(#clip0)">
<path d="M72.9948 60.4545C81.1092 60.4545 87.7221 53.8561 87.7221 45.7273C87.7221 37.5984 81.1092 31 72.9948 31C64.8804 31 58.2675 37.5984 58.2675 45.7273C58.2675 53.8561 64.8659 60.4545 72.9948 60.4545ZM72.9948 34.4652C79.2034 34.4652 84.2568 39.5187 84.2568 45.7273C84.2568 51.9358 79.2034 56.9893 72.9948 56.9893C66.7862 56.9893 61.7328 51.9358 61.7328 45.7273C61.7328 39.5187 66.7862 34.4652 72.9948 34.4652Z" fill="#5078E7"/>
<path d="M70.2805 51.4593C70.5981 51.7625 71.0313 51.9358 71.4789 51.9358C71.5222 51.9358 71.5655 51.9358 71.6088 51.9358C72.0997 51.8924 72.5473 51.6614 72.8505 51.2716L79.3046 42.9983C79.8965 42.2475 79.7666 41.1502 79.0013 40.5727C78.2505 39.9807 77.1532 40.1106 76.5757 40.8759L71.2912 47.6331L68.7067 45.1497C68.0136 44.4855 66.9163 44.5144 66.2521 45.193C65.588 45.886 65.6169 46.9834 66.2955 47.6475L70.2805 51.4593Z" fill="#5078E7"/>
<path d="M83.7083 66.9374C82.2355 66.6775 80.9505 67.1251 79.9109 67.4716C79.6077 67.5727 79.3045 67.6738 79.0157 67.7604C78.1928 67.977 77.3842 68.2369 76.5756 68.4967L73.5724 69.4064C73.558 69.3197 73.558 69.2331 73.5291 69.1465C72.6917 65.9267 69.4286 62.4903 63.0323 63.4144C59.3072 63.9631 58.4264 62.7358 57.3869 61.3064C56.8671 60.5845 56.2607 59.7759 55.3366 59.2561C52.2179 57.5524 47.6842 58.7363 44.4067 60.339V54.3903C44.4067 53.4374 43.627 52.6577 42.674 52.6577H34.0109C33.058 52.6577 32.2783 53.4374 32.2783 54.3903V83.2673C32.2783 84.2203 33.058 85 34.0109 85H42.674C43.627 85 44.4067 84.2203 44.4067 83.2673V78.878C49.5035 80.8272 60.8521 85 64.8371 85C67.5805 85 70.2949 83.7727 72.6917 82.6898L73.6591 82.2566C77.2831 80.6684 80.6473 78.9358 83.6649 77.131L84.1847 76.8278C85.4553 76.1058 87.2024 75.1096 87.6355 72.7994C87.881 71.4711 87.5778 70.0705 86.7837 68.9443C86.0473 67.8615 84.95 67.154 83.7083 66.9374ZM40.9414 76.3802V81.5347H35.7436V56.123H40.9414V76.3802ZM82.481 73.8101L81.889 74.1566C78.9869 75.8893 75.7527 77.5497 72.273 79.0802L71.2623 79.5278C69.1831 80.4663 66.8297 81.5347 64.8227 81.5347C61.7762 81.5347 51.3371 77.8673 44.3922 75.1673V64.3096C47.3088 62.4615 51.6548 61.2197 53.6473 62.3171C53.9072 62.4615 54.2248 62.8946 54.5714 63.3711C55.8275 65.0893 57.7334 67.7026 63.5088 66.8508C66.05 66.4754 68.0136 66.9807 69.212 68.3091C69.9484 69.1176 70.1794 69.9839 70.2371 70.4893L70.1505 70.5326C68.9666 71.009 65.3569 72.4385 64.3029 72.1497C63.4944 71.9187 58.1088 70.3304 58.1088 70.3304C57.1847 70.0705 56.2318 70.6048 55.9719 71.5144C55.712 72.4385 56.2462 73.3914 57.1559 73.6513C57.1559 73.6513 62.3537 75.1962 63.3644 75.485C63.7398 75.5861 64.1585 75.6438 64.6061 75.6438C66.4976 75.6438 68.9232 74.7486 71.45 73.7524L72.1141 73.4925L77.6008 71.8176C78.366 71.5722 79.1313 71.3411 79.9109 71.1246C80.2863 71.0235 80.6473 70.8935 81.0227 70.778C81.8168 70.5037 82.5243 70.2727 83.1163 70.3738C83.5494 70.4459 83.8238 70.7636 83.9537 70.9369C84.2136 71.2978 84.3147 71.7599 84.2425 72.1786C84.1125 72.8283 83.6505 73.1459 82.481 73.8101Z" fill="#444E60"/>
</g>
<defs>
<clipPath id="clip0">
<rect width="55.4439" height="54" fill="white" transform="translate(32.2783 31)"/>
</clipPath>
</defs>
</svg>
