<svg width="86" height="87" viewBox="0 0 86 87" fill="none" xmlns="http://www.w3.org/2000/svg">
<g opacity="0.3">
<line y1="-0.734483" x2="31.62" y2="-0.734483" transform="matrix(-4.37114e-08 -1 -1 4.37114e-08 43.1972 85.1577)" stroke="#2B4381" stroke-width="1.46897"/>
<line y1="-0.734483" x2="31.62" y2="-0.734483" transform="matrix(-4.37114e-08 -1 -1 4.37114e-08 43.1972 33.7441)" stroke="#2B4381" stroke-width="1.46897"/>
<line y1="-0.734483" x2="31.62" y2="-0.734483" transform="matrix(-0.707107 -0.707107 -0.707107 0.707107 36.1766 34.7656)" stroke="#2B4381" stroke-width="1.46897"/>
<line x1="49.533" y1="34.2463" x2="71.8917" y2="11.8876" stroke="#2B4381" stroke-width="1.46897"/>
<line x1="36.696" y1="51.1195" x2="14.3373" y2="73.4781" stroke="#2B4381" stroke-width="1.46897"/>
<line y1="-0.734483" x2="31.62" y2="-0.734483" transform="matrix(0.707107 0.707107 0.707107 -0.707107 50.0524 50.6001)" stroke="#2B4381" stroke-width="1.46897"/>
<line x1="33.1966" y1="43.9899" x2="1.57662" y2="43.9899" stroke="#2B4381" stroke-width="1.46897"/>
<line y1="-0.734483" x2="31.62" y2="-0.734483" transform="matrix(1 -8.74228e-08 -8.74228e-08 -1 53.0324 43.2554)" stroke="#2B4381" stroke-width="1.46897"/>
<circle cx="43.0338" cy="43.0917" r="4.73333" stroke="#2B4381" stroke-width="1.46897"/>
</g>
</svg>
