<svg width="171" height="260" viewBox="0 0 171 260" fill="none" xmlns="http://www.w3.org/2000/svg">
<g opacity="0.12">
<path d="M163.677 210.122C159.76 210.122 156.683 207.045 156.683 203.128V56.7971H13.9895V196.133H132.061C135.978 196.133 139.056 199.211 139.056 203.128C139.056 207.045 135.978 210.122 132.061 210.122H6.99476C3.0777 210.122 0 207.045 0 203.128V49.8024C0 45.8853 3.0777 42.8076 6.99476 42.8076H163.677C167.595 42.8076 170.672 45.8853 170.672 49.8024V203.128C170.672 207.045 167.595 210.122 163.677 210.122Z" fill="white"/>
<path d="M102.683 35.2536H67.9893C65.1914 35.2536 62.9531 33.0153 62.9531 30.2174C62.9531 27.4195 65.1914 25.1812 67.9893 25.1812H102.683C105.481 25.1812 107.72 27.4195 107.72 30.2174C107.72 33.0153 105.481 35.2536 102.683 35.2536Z" fill="white"/>
<path d="M145.492 259.366H25.4615C9.79326 259.366 0.000488281 249.573 0.000488281 233.905V25.461C0.000488281 9.79269 9.79326 0 25.4615 0H145.492C161.16 0 170.953 9.79269 170.953 25.461V233.905C170.673 249.853 161.16 259.366 145.492 259.366ZM25.4615 14.2693C17.6274 14.2693 13.99 17.6268 13.99 25.7408V234.185C13.99 242.019 17.3476 245.656 25.4615 245.656H145.492C153.326 245.656 156.963 242.299 156.963 234.185V25.7408C156.963 17.9066 153.606 14.2693 145.492 14.2693H25.4615Z" fill="white"/>
</g>
</svg>
