<svg width="75" height="409" viewBox="0 0 75 409" fill="none" xmlns="http://www.w3.org/2000/svg">
<path opacity="0.4" fill-rule="evenodd" clip-rule="evenodd" d="M46.9824 363.13L46.9853 363.135C49.146 367.248 50.2 372.251 50.2 378.1L50.2 386.8L74 386.8L74 408.4L1.50005 408.4L1.50004 378.1C1.50004 372.321 2.51945 367.357 4.60729 363.25C6.68668 359.092 9.58466 355.937 13.3074 353.83C17.0101 351.734 21.2507 350.7 26 350.7C30.4293 350.7 34.4995 351.74 38.1902 353.829C41.846 355.868 44.7725 358.986 46.9824 363.13ZM5.50005 363.7C3.50004 367.634 2.50004 372.434 2.50004 378.1L2.50005 407.4L73 407.4L73 387.8L49.2 387.8L49.2 378.1C49.2 372.367 48.1667 367.534 46.1 363.6C43.9667 359.6 41.1667 356.634 37.7 354.7C34.1667 352.7 30.2667 351.7 26 351.7C21.4 351.7 17.3334 352.7 13.8 354.7C10.2667 356.7 7.50004 359.7 5.50005 363.7ZM30.9625 374.451C29.9449 373.339 28.3555 372.7 26 372.7C23.6076 372.7 21.9915 373.342 20.9582 374.456C19.9116 375.584 19.3 377.37 19.3 380L19.3 386.8L32.6 386.8L32.6 380C32.6 377.367 31.9954 375.579 30.9625 374.451ZM33.6 387.8L18.3 387.8L18.3 380C18.3 374.467 20.8667 371.7 26 371.7C31.0667 371.7 33.6 374.467 33.6 380L33.6 387.8ZM73 299.426L61.5 303.226L61.5 328.226L73 332.026L73 352.626L2.50004 326.926L2.50004 304.326L73 278.726L73 299.426ZM62.5 327.503L74 331.303L74 354.055L1.50004 327.626L1.50004 303.625L73.8934 277.338L1.50004 277.338L1.50004 255.738L74 255.738L74 300.149L62.5 303.949L62.5 327.503ZM23.7 315.726L46.5 323.226L46.5 308.126L23.7 315.726ZM26.8812 315.72L45.5 321.845L45.5 309.514L26.8812 315.72ZM18.6311 233.419L18.6272 233.417C12.9971 230.396 8.62509 226.129 5.53076 220.63C2.36785 215.127 0.80004 208.819 0.80004 201.736C0.800039 192.747 3.22133 185.12 8.11348 178.918C12.9369 172.718 19.5162 168.736 27.79 166.958L29 166.698L29 189.668L28.4291 189.939C25.917 191.132 24.0388 192.776 22.7508 194.861L22.7438 194.872C21.4582 196.893 20.8 199.268 20.8 202.036C20.8 206.294 22.3183 209.639 25.3416 212.168C28.3142 214.645 32.3643 215.936 37.6 215.936C42.9004 215.936 47.0188 214.646 50.059 212.168C53.0122 209.642 54.5 206.298 54.5 202.036C54.5 199.268 53.8419 196.893 52.5564 194.872L52.5492 194.861C51.2613 192.776 49.3831 191.132 46.871 189.939L46.3 189.668L46.3 166.698L47.5101 166.958C55.7849 168.736 62.3958 172.718 67.2851 178.916L67.2894 178.922C72.1135 185.124 74.5 192.75 74.5 201.736C74.5 208.817 72.9665 215.124 69.8716 220.626L69.867 220.634C66.7082 226.127 62.3401 230.393 56.7774 233.414L56.7709 233.418L56.7645 233.421C51.1363 236.373 44.7399 237.836 37.6 237.836C30.5254 237.836 24.1939 236.372 18.6311 233.419ZM24.7 212.936C21.4334 210.202 19.8 206.569 19.8 202.036C19.8 199.102 20.5 196.536 21.9 194.336C23.3 192.069 25.3334 190.302 28 189.036L28 167.936C27.6638 168.008 27.3304 168.084 27 168.163C19.4055 169.995 13.3722 173.786 8.90004 179.536C4.1667 185.536 1.80004 192.936 1.80004 201.736C1.80004 208.669 3.33337 214.802 6.40004 220.136C9.40004 225.469 13.6334 229.602 19.1 232.536C24.5 235.402 30.6667 236.836 37.6 236.836C44.6 236.836 50.8334 235.402 56.3 232.536C61.7 229.602 65.9334 225.469 69 220.136C72 214.802 73.5 208.669 73.5 201.736C73.5 192.936 71.1667 185.536 66.5 179.536C61.964 173.786 55.8973 169.995 48.3 168.163C47.9696 168.084 47.6363 168.008 47.3 167.936L47.3 189.036C49.9667 190.302 52 192.069 53.4 194.336C54.8 196.536 55.5 199.102 55.5 202.036C55.5 206.569 53.9 210.202 50.7 212.936C47.4334 215.602 43.0667 216.936 37.6 216.936C32.2 216.936 27.9 215.602 24.7 212.936ZM1.50003 98.5543L73.9657 98.5543L1.50003 72.1377L1.50003 48.1371L73.8934 21.8496L1.50003 21.8496L1.50003 0.249603L74 0.2496L74 44.6606L62.5 48.4606L62.5 72.0151L74 75.8152L74 120.154L45.7 120.154L45.7 142.054L74 142.054L74 163.654L1.50004 163.654L1.50003 142.054L28 142.054L28 120.154L1.50003 120.154L1.50003 98.5543ZM29 119.154L29 143.054L2.50003 143.054L2.50004 162.654L73 162.654L73 143.054L44.7 143.054L44.7 119.154L73 119.154L73 99.5543L2.50003 99.5543L2.50003 119.154L29 119.154ZM61.5 72.7379L61.5 47.7379L73 43.9379L73 23.2379L2.50003 48.8379L2.50003 71.4379L73 97.1379L73 76.5379L61.5 72.7379ZM23.7 60.2379L46.5 67.7379L46.5 52.6379L23.7 60.2379ZM26.8812 60.2316L45.5 66.3562L45.5 54.0253L26.8812 60.2316ZM2.50004 256.738L2.50004 276.338L73 276.338L73 256.738L2.50004 256.738ZM2.50003 1.2496L2.50003 20.8496L73 20.8496L73 1.2496L2.50003 1.2496Z" fill="#9F9F9F"/>
</svg>
