<svg width="64" height="64" viewBox="0 0 64 64" fill="none" xmlns="http://www.w3.org/2000/svg">
<path d="M57.5415 32.2041C57.5415 46.1724 46.1719 57.542 32.2036 57.542C18.2353 57.542 6.86572 46.1724 6.86572 32.2041C6.86572 18.2358 18.2353 6.86621 32.2036 6.86621C46.1719 6.86621 57.5415 18.1275 57.5415 32.2041Z" stroke="#AE486A" stroke-width="1.62422" stroke-miterlimit="10" stroke-linecap="round" stroke-linejoin="round"/>
<path d="M44.8731 32.0958C44.8731 46.0641 39.1341 57.3254 32.0958 57.3254C25.0575 57.3254 19.3186 46.0641 19.3186 32.0958C19.3186 18.1275 25.0575 6.86621 32.0958 6.86621C39.1341 6.86621 44.8731 18.1275 44.8731 32.0958Z" stroke="#AE486A" stroke-width="1.62422" stroke-miterlimit="10" stroke-linecap="round" stroke-linejoin="round"/>
<path d="M6.86572 32.2041H57.5415" stroke="#AE486A" stroke-width="1.62422" stroke-miterlimit="10" stroke-linecap="round" stroke-linejoin="round"/>
<path d="M32.2043 6.86621V57.3254" stroke="#AE486A" stroke-width="1.62422" stroke-miterlimit="10" stroke-linecap="round" stroke-linejoin="round"/>
<path d="M12.6045 15.9619C12.6045 15.9619 31.9869 26.1404 51.6941 15.9619" stroke="#AE486A" stroke-width="1.62422" stroke-miterlimit="10" stroke-linecap="round" stroke-linejoin="round"/>
<path d="M12.6045 48.3385C12.6045 48.3385 33.5028 38.8098 51.6941 48.3385" stroke="#AE486A" stroke-width="1.62422" stroke-miterlimit="10" stroke-linecap="round" stroke-linejoin="round"/>
</svg>
