<svg width="82" height="93" viewBox="0 0 82 93" fill="none" xmlns="http://www.w3.org/2000/svg">
<path d="M80.37 9.66135C77.97 5.92135 72.2 5.94135 67 7.78135C63.47 5.33135 59.2 3.60135 54.48 2.92135C49.88 2.26135 45.42 2.67135 41.43 3.94135C39.98 2.58135 34.74 -1.71865 29.69 1.97135C26.79 4.09135 26.97 11.9913 28.29 13.8513C26.95 16.0613 26.03 18.5213 25.65 21.1613C24.91 26.2813 25.88 31.8013 28.79 36.0313C32.76 41.8113 39.98 45.6213 48.16 46.8013C56.2 47.9613 64.28 46.4713 69.7 42.2113C73.84 38.9513 76.24 33.8013 76.99 28.5513C77.31 26.2913 77.28 23.1813 76.83 21.0313C77.76 20.4713 83.59 14.6613 80.37 9.65135" fill="white"/>
<path d="M72.6405 25.5315C71.8105 25.3915 70.6505 25.4015 69.6805 25.4415C69.2005 25.4615 69.0205 26.2415 69.4405 26.4715C70.6005 27.1215 71.7005 27.8015 72.7305 28.4915C73.9605 29.3215 75.1005 30.1815 76.1105 31.0415C76.3305 30.4315 76.5405 29.7915 76.7305 29.1415C76.8705 28.6315 77.0005 28.1215 77.1205 27.6015C77.1705 27.3615 77.0805 27.1215 76.9005 27.0115C75.5605 26.2715 74.1405 25.7715 72.6505 25.5215" fill="#323333"/>
<path d="M76.1099 31.2717C76.0599 31.2717 75.9999 31.2517 75.9599 31.2117C74.9599 30.3517 73.8299 29.5017 72.5999 28.6717C71.5799 27.9917 70.4799 27.3117 69.3299 26.6617C69.0499 26.5017 68.9199 26.1617 68.9999 25.8117C69.0799 25.4617 69.3499 25.2217 69.6699 25.2017C70.5399 25.1617 71.7799 25.1417 72.6799 25.2917C74.1899 25.5417 75.6399 26.0517 76.9999 26.8017C77.2699 26.9517 77.4098 27.2917 77.3398 27.6317C77.2298 28.1517 77.0998 28.6717 76.9498 29.1917C76.7598 29.8417 76.5499 30.4917 76.3299 31.1117C76.2999 31.1817 76.2499 31.2317 76.1699 31.2517C76.1499 31.2517 76.1299 31.2517 76.1099 31.2517M70.8398 25.6217C70.4298 25.6217 70.0299 25.6317 69.6899 25.6517C69.5499 25.6517 69.4698 25.7917 69.4498 25.9117C69.4198 26.0417 69.4498 26.2017 69.5598 26.2617C70.7298 26.9217 71.8399 27.6017 72.8599 28.2917C73.9999 29.0617 75.0599 29.8517 75.9999 30.6517C76.1799 30.1417 76.3499 29.6117 76.4999 29.0717C76.6399 28.5717 76.7698 28.0617 76.8798 27.5417C76.9098 27.4017 76.8598 27.2517 76.7698 27.2017C75.4598 26.4817 74.0498 25.9817 72.5898 25.7417C72.0798 25.6517 71.4399 25.6217 70.8299 25.6217" fill="#323333"/>
<path d="M74.7398 35.3517C74.8398 35.1317 74.8098 34.8617 74.6598 34.7017C73.5498 33.5617 72.3198 32.6317 70.9598 31.9317C70.1998 31.5317 69.1098 31.1817 68.1798 30.9317C67.7198 30.8017 67.3898 31.5117 67.7298 31.8817C68.6898 32.8817 69.5798 33.8817 70.3998 34.8817C71.3798 36.0717 72.2598 37.2517 73.0198 38.4117C73.0198 38.4217 73.0498 38.4217 73.0598 38.4117C73.3998 37.8817 73.7298 37.3317 74.0398 36.7517C74.2898 36.2917 74.5198 35.8217 74.7398 35.3517" fill="#323333"/>
<path d="M73.0501 38.6515C72.9701 38.6515 72.8901 38.6115 72.8401 38.5415C72.0801 37.3915 71.2101 36.2115 70.2301 35.0315C69.4201 34.0515 68.5201 33.0415 67.5701 32.0415C67.3301 31.7915 67.3001 31.3815 67.4901 31.0615C67.6601 30.7715 67.9501 30.6415 68.2401 30.7215C69.0801 30.9515 70.2501 31.3115 71.0701 31.7315C72.4401 32.4415 73.7001 33.3915 74.8201 34.5415C75.0401 34.7615 75.0901 35.1315 74.9501 35.4415C74.7301 35.9215 74.4901 36.4015 74.2401 36.8615C73.9301 37.4415 73.6001 38.0015 73.2601 38.5315C73.2101 38.6015 73.1301 38.6515 73.0501 38.6515V38.6515ZM68.0801 31.1515C67.9801 31.1515 67.9101 31.2415 67.8801 31.2915C67.8001 31.4215 67.7901 31.6115 67.9001 31.7315C68.8601 32.7315 69.7601 33.7515 70.5801 34.7415C71.4901 35.8415 72.3101 36.9415 73.0401 38.0215C73.3201 37.5815 73.5901 37.1215 73.8401 36.6415C74.0901 36.1915 74.3201 35.7215 74.5301 35.2515C74.5901 35.1115 74.5801 34.9415 74.4901 34.8615C73.4001 33.7415 72.1801 32.8215 70.8501 32.1315C70.0701 31.7215 68.9301 31.3715 68.1201 31.1515C68.1001 31.1515 68.0901 31.1515 68.0701 31.1515" fill="#323333"/>
<path d="M65.6802 37.1318C65.2802 36.8518 64.7902 37.4318 65.0302 37.9118C65.5702 38.9718 66.0602 40.0018 66.4902 41.0218C66.8202 41.7818 67.1202 42.5318 67.3902 43.2718C67.4902 43.5518 67.7802 43.6518 68.0202 43.4818C68.5602 43.1018 69.0702 42.6818 69.5702 42.2318C69.7702 42.0518 69.8302 41.7118 69.6902 41.4818C69.0802 40.4418 68.3702 39.5018 67.5702 38.6718C67.0802 38.1618 66.3502 37.6018 65.6802 37.1418" fill="#323333"/>
<path d="M67.7796 43.7812C67.7196 43.7812 67.6596 43.7812 67.5996 43.7512C67.4096 43.6912 67.2596 43.5412 67.1796 43.3412C66.9096 42.6112 66.6096 41.8612 66.2796 41.1012C65.8496 40.0912 65.3596 39.0512 64.8196 38.0012C64.6296 37.6212 64.7796 37.2012 65.0196 36.9912C65.2496 36.7912 65.5596 36.7712 65.7996 36.9412C66.6396 37.5312 67.2896 38.0512 67.7196 38.5012C68.5396 39.3412 69.2596 40.3012 69.8796 41.3612C70.0696 41.6812 69.9996 42.1312 69.7196 42.3912C69.2196 42.8412 68.6996 43.2712 68.1496 43.6612C68.0296 43.7412 67.8996 43.7812 67.7696 43.7812M65.4496 37.2812C65.4496 37.2812 65.3596 37.3012 65.3196 37.3412C65.2096 37.4412 65.1396 37.6312 65.2196 37.8012C65.7596 38.8612 66.2496 39.9112 66.6896 40.9212C67.0196 41.6812 67.3196 42.4412 67.5896 43.1812C67.6196 43.2512 67.6596 43.3012 67.7196 43.3212C67.7696 43.3412 67.8196 43.3212 67.8796 43.2912C68.4096 42.9112 68.9196 42.5012 69.4096 42.0612C69.5296 41.9512 69.5696 41.7312 69.4896 41.6012C68.8896 40.5812 68.1896 39.6412 67.3996 38.8312C66.9896 38.4112 66.3496 37.8912 65.5396 37.3312C65.5096 37.3112 65.4796 37.3012 65.4496 37.3012" fill="#323333"/>
<path d="M31.5199 16.9418C32.3399 17.1518 33.3999 17.6118 34.2699 18.0418C34.6999 18.2518 34.5499 19.0318 34.0699 19.0818C32.7399 19.2118 31.4599 19.3918 30.2499 19.6118C28.7899 19.8818 27.3999 20.2118 26.1299 20.6018C26.1699 19.9518 26.2399 19.2818 26.3299 18.6118C26.3999 18.0918 26.4899 17.5618 26.5999 17.0518C26.6499 16.8118 26.8299 16.6218 27.0399 16.6018C28.5599 16.4618 30.0699 16.5718 31.5299 16.9318" fill="#323333"/>
<path d="M26.1196 20.8311C26.0696 20.8311 26.0196 20.8111 25.9796 20.7811C25.9196 20.7311 25.8896 20.6611 25.8896 20.5811C25.9296 19.9211 25.9996 19.2511 26.0996 18.5811C26.1696 18.0511 26.2596 17.5211 26.3696 17.0011C26.4396 16.6611 26.6996 16.4011 27.0096 16.3711C28.5596 16.2311 30.0896 16.3411 31.5796 16.7111C32.4596 16.9311 33.5896 17.4411 34.3696 17.8311C34.6596 17.9711 34.7997 18.2911 34.7397 18.6511C34.6697 19.0111 34.4196 19.2711 34.0996 19.3011C32.7796 19.4311 31.4997 19.6111 30.2896 19.8311C28.8396 20.0911 27.4596 20.4211 26.1896 20.8111C26.1696 20.8111 26.1496 20.8211 26.1196 20.8211M28.2896 16.7611C27.8796 16.7611 27.4596 16.7811 27.0496 16.8211C26.9396 16.8211 26.8396 16.9411 26.8096 17.0911C26.6996 17.6011 26.6096 18.1211 26.5396 18.6411C26.4596 19.1911 26.4096 19.7411 26.3596 20.2811C27.5496 19.9311 28.8396 19.6311 30.1896 19.3811C31.4096 19.1611 32.6996 18.9811 34.0296 18.8511C34.1596 18.8411 34.2496 18.7011 34.2696 18.5711C34.2896 18.4511 34.2697 18.3011 34.1497 18.2411C33.3797 17.8611 32.2896 17.3611 31.4496 17.1511C30.4096 16.8911 29.3496 16.7611 28.2796 16.7611" fill="#323333"/>
<path d="M25.6299 25.0914C25.6299 24.8414 25.7599 24.6114 25.9699 24.5314C27.4399 23.9314 28.9499 23.5714 30.4699 23.4714C31.3299 23.4114 32.4699 23.5314 33.4199 23.6714C33.8899 23.7414 33.9099 24.5214 33.4499 24.7114C32.1699 25.2414 30.9499 25.8014 29.7899 26.3914C28.4199 27.0914 27.1299 27.8214 25.9699 28.5714C25.9599 28.5714 25.9399 28.5714 25.9399 28.5514C25.8399 27.9314 25.7699 27.2914 25.7099 26.6414C25.6699 26.1214 25.6399 25.6014 25.6399 25.0814" fill="#323333"/>
<path d="M25.9504 28.8117C25.9504 28.8117 25.8804 28.8117 25.8504 28.7917C25.7704 28.7617 25.7204 28.6817 25.7104 28.6017C25.6104 27.9717 25.5304 27.3317 25.4804 26.6817C25.4404 26.1617 25.4104 25.6317 25.4004 25.1017C25.4004 24.7617 25.5904 24.4417 25.8804 24.3317C27.3704 23.7217 28.9104 23.3617 30.4504 23.2517C31.3704 23.1917 32.5904 23.3317 33.4504 23.4517C33.7404 23.4917 33.9604 23.7317 34.0004 24.0617C34.0504 24.4417 33.8504 24.8017 33.5304 24.9317C32.2504 25.4617 31.0304 26.0217 29.8904 26.6017C28.5204 27.2917 27.2404 28.0217 26.0904 28.7717C26.0504 28.8017 26.0004 28.8117 25.9504 28.8117ZM25.8504 25.0917C25.8504 25.6117 25.8804 26.1317 25.9304 26.6417C25.9704 27.1717 26.0304 27.7017 26.1104 28.2217C27.2104 27.5217 28.4104 26.8417 29.6904 26.2017C30.8404 25.6217 32.0804 25.0517 33.3604 24.5217C33.5104 24.4617 33.5704 24.2717 33.5504 24.1317C33.5504 24.0717 33.5104 23.9317 33.3804 23.9117C32.5404 23.7917 31.3604 23.6517 30.4804 23.7117C28.9904 23.8117 27.5004 24.1617 26.0504 24.7517C25.9404 24.8017 25.8504 24.9417 25.8504 25.1017" fill="#323333"/>
<path d="M32.79 30.3716C33.27 30.2716 33.48 31.0016 33.07 31.3416C32.15 32.0916 31.29 32.8516 30.48 33.6016C29.87 34.1716 29.29 34.7316 28.75 35.3016C28.54 35.5216 28.24 35.4916 28.09 35.2416C27.75 34.6816 27.45 34.0916 27.18 33.4816C27.07 33.2316 27.16 32.9116 27.37 32.7516C28.35 32.0416 29.38 31.4616 30.45 31.0216C31.11 30.7516 32 30.5316 32.8 30.3716" fill="#323333"/>
<path d="M28.42 35.6714C28.42 35.6714 28.38 35.6714 28.35 35.6714C28.16 35.6514 27.99 35.5314 27.88 35.3614C27.54 34.7914 27.23 34.1914 26.96 33.5714C26.81 33.2314 26.92 32.7814 27.23 32.5614C28.22 31.8414 29.27 31.2514 30.36 30.8114C30.94 30.5714 31.74 30.3514 32.75 30.1514C33.04 30.0914 33.31 30.2314 33.44 30.5114C33.58 30.8014 33.55 31.2514 33.22 31.5214C32.31 32.2714 31.44 33.0214 30.64 33.7714C30.04 34.3314 29.46 34.9014 28.92 35.4614C28.79 35.6014 28.62 35.6714 28.44 35.6714M32.85 30.5914C31.89 30.7814 31.09 31.0014 30.54 31.2214C29.49 31.6514 28.47 32.2214 27.51 32.9214C27.38 33.0114 27.33 33.2214 27.39 33.3814C27.65 33.9814 27.96 34.5614 28.29 35.1214C28.33 35.1814 28.37 35.2114 28.42 35.2114C28.48 35.2114 28.54 35.1914 28.59 35.1314C29.14 34.5614 29.72 33.9914 30.33 33.4214C31.14 32.6714 32.02 31.9014 32.94 31.1514C33.09 31.0314 33.1 30.8214 33.04 30.6914C32.98 30.5514 32.88 30.5714 32.85 30.5814" fill="#323333"/>
<path d="M56.8796 4.42135C56.9296 4.06135 56.9596 3.69135 56.9896 3.33135C56.8896 3.30135 56.7896 3.26135 56.6996 3.23135C56.6996 3.21135 56.7196 3.19135 56.7196 3.16135C56.6496 3.14135 56.5796 3.13135 56.4996 3.12135C56.3496 3.09135 56.1996 3.07135 56.0496 3.04135C55.9096 3.00135 55.7596 2.96135 55.6096 2.93135C55.5396 2.91135 55.4596 2.90135 55.3896 2.88135V2.95135C55.2896 2.95135 55.1996 2.93135 55.0996 2.92135C54.9796 3.26135 54.8696 3.61135 54.7696 3.96135C54.3496 5.41135 54.0596 6.91135 53.9096 8.42135C53.8696 8.86135 53.8396 9.23135 53.8196 9.58135V9.72135C53.8196 9.72135 53.8196 9.78135 53.8096 9.82135V9.87135C53.8096 9.96135 53.8096 10.0613 53.8096 10.1613C53.8096 10.2013 53.8096 10.2513 53.8096 10.2913V10.3113C53.8096 10.3113 53.8096 10.4113 53.8096 10.4613V10.7513C53.8096 10.8413 53.8096 10.9413 53.8096 11.0413C53.8096 11.1313 53.8096 11.2313 53.8096 11.3313V11.4813C53.8096 11.4813 53.8096 11.5513 53.8196 11.5813V11.6313L53.8396 11.8913V11.9213C53.8396 11.9213 53.8396 11.9913 53.8396 12.0213C53.8596 12.2713 53.9696 12.3913 54.0796 12.3813C54.1796 12.4313 54.3296 12.3713 54.4496 12.1513C54.4696 12.1213 54.4796 12.0913 54.4996 12.0613L54.5196 12.0313C54.5596 11.9513 54.5996 11.8813 54.6396 11.8013C54.6396 11.7913 54.6596 11.7713 54.6596 11.7613C54.6796 11.7313 54.6896 11.7013 54.6996 11.6713L54.7596 11.5413C54.7996 11.4513 54.8496 11.3513 54.8896 11.2813C54.9296 11.1913 54.9796 11.1013 55.0096 11.0213L55.0396 10.9513L55.1296 10.7513L55.1896 10.6213V10.6013C55.1896 10.6013 55.2296 10.5213 55.2496 10.4813C55.2896 10.3913 55.3296 10.2913 55.3596 10.2113C55.3596 10.2013 55.3696 10.1813 55.3796 10.1613C55.3896 10.1313 55.4096 10.1013 55.4196 10.0713L55.4696 9.93135C55.5996 9.60135 55.7196 9.25135 55.8596 8.83135C56.3296 7.39135 56.6696 5.89135 56.8596 4.40135" fill="#323333"/>
<path d="M54.1702 12.4915C54.1702 12.4915 54.1102 12.4915 54.0802 12.4715C53.9402 12.4715 53.8002 12.3415 53.7802 12.0415C53.7802 12.0115 53.7802 11.9715 53.7802 11.9415V11.9115C53.7802 11.8215 53.7702 11.7415 53.7602 11.6515V11.3615C53.7402 11.2615 53.7402 11.1515 53.7402 11.0715C53.7402 10.9715 53.7402 10.8615 53.7402 10.7815V10.3215C53.7402 10.3215 53.7402 10.2315 53.7402 10.1915C53.7402 10.0915 53.7402 9.99153 53.7402 9.90153C53.7402 9.88153 53.7402 9.87152 53.7402 9.85152C53.7402 9.82152 53.7402 9.79153 53.7402 9.75153V9.60152C53.7602 9.25152 53.7902 8.88152 53.8302 8.43152C53.9802 6.91152 54.2702 5.41153 54.7002 3.95153C54.8002 3.60153 54.9102 3.25153 55.0302 2.91153C55.0402 2.88153 55.0702 2.86153 55.1102 2.86153C55.1702 2.86153 55.2402 2.87153 55.3202 2.88153C55.3202 2.86153 55.3302 2.84152 55.3502 2.83152C55.3702 2.82152 55.3902 2.81152 55.4102 2.82152C55.4902 2.84152 55.5702 2.85153 55.6402 2.87153C55.7802 2.90153 55.9302 2.94153 56.0802 2.98153C56.2302 3.00153 56.3802 3.03152 56.5202 3.06152C56.5902 3.07152 56.6602 3.09152 56.7402 3.10152C56.7602 3.10152 56.7802 3.12153 56.7902 3.14153C56.7902 3.16153 56.8002 3.18153 56.7902 3.20153C56.8702 3.22153 56.9402 3.25152 57.0102 3.27152C57.0402 3.28152 57.0602 3.31152 57.0602 3.35152C57.0302 3.71152 56.9902 4.07153 56.9502 4.44153C56.7602 5.94153 56.4202 7.44152 55.9402 8.89152C55.8002 9.31152 55.6802 9.66153 55.5502 9.99153L55.5002 10.1315C55.5002 10.1315 55.4702 10.1915 55.4602 10.2215L55.4402 10.2715C55.4002 10.3615 55.3702 10.4515 55.3302 10.5415C55.3102 10.5815 55.2902 10.6315 55.2802 10.6615V10.6815C55.2802 10.6815 55.2402 10.7715 55.2102 10.8115L55.1202 11.0115L55.0902 11.0815C55.0502 11.1615 55.0102 11.2515 54.9702 11.3515C54.9302 11.4315 54.8902 11.5215 54.8402 11.6115L54.7802 11.7415C54.7802 11.7415 54.7502 11.8015 54.7402 11.8315L54.7202 11.8715C54.6802 11.9515 54.6402 12.0315 54.6002 12.1015V12.1315C54.6002 12.1315 54.5502 12.1915 54.5402 12.2215C54.4302 12.4315 54.2902 12.5115 54.1702 12.5115M54.1002 12.3415C54.1002 12.3415 54.1202 12.3415 54.1402 12.3415C54.2002 12.3715 54.3102 12.3115 54.4102 12.1415C54.4302 12.1115 54.4402 12.0815 54.4602 12.0515V12.0215C54.5102 11.9415 54.5602 11.8715 54.5902 11.7915L54.6102 11.7515L54.6502 11.6615L54.7102 11.5315C54.7602 11.4415 54.8002 11.3515 54.8402 11.2715C54.8802 11.1815 54.9302 11.0815 54.9602 11.0115L54.9902 10.9415L55.0802 10.7415C55.0802 10.7415 55.1202 10.6515 55.1302 10.6115V10.5915C55.1302 10.5915 55.1702 10.5115 55.1902 10.4715C55.2302 10.3815 55.2602 10.2915 55.3002 10.2015L55.3202 10.1515C55.3202 10.1515 55.3402 10.0915 55.3602 10.0615L55.4102 9.92152C55.5402 9.59152 55.6602 9.24153 55.8002 8.83153C56.2702 7.39153 56.6102 5.90152 56.8002 4.41152C56.8402 4.07152 56.8802 3.73153 56.9102 3.39153C56.8402 3.36153 56.7602 3.34152 56.6802 3.31152C56.6602 3.31152 56.6402 3.29152 56.6402 3.27152C56.6402 3.26152 56.6402 3.24153 56.6402 3.23153C56.5902 3.22153 56.5502 3.21153 56.5002 3.20153C56.3602 3.17153 56.2102 3.15153 56.0602 3.12153C55.9102 3.08153 55.7602 3.04153 55.6202 3.01153C55.5802 3.01153 55.5302 2.99153 55.4802 2.98153C55.4802 2.99153 55.4702 3.01152 55.4502 3.02152C55.4302 3.03152 55.4102 3.04152 55.3902 3.04152C55.3102 3.04152 55.2402 3.03152 55.1702 3.02152C55.0602 3.34152 54.9602 3.67153 54.8602 4.00153C54.4402 5.45153 54.1502 6.94153 54.0002 8.45153C53.9602 8.89153 53.9302 9.26153 53.9202 9.61153V9.75153C53.9202 9.75153 53.9202 9.81152 53.9202 9.84152C53.9202 9.86152 53.9202 9.87152 53.9202 9.89152C53.9202 9.97152 53.9202 10.0815 53.9202 10.1815C53.9202 10.2215 53.9202 10.2715 53.9202 10.3115V10.3315C53.9202 10.3315 53.9202 10.4315 53.9202 10.4815V10.7715C53.9202 10.8615 53.9202 10.9615 53.9202 11.0615C53.9202 11.1515 53.9202 11.2515 53.9202 11.3515V11.5915L53.9402 11.6415C53.9402 11.7315 53.9402 11.8115 53.9602 11.9015V11.9315C53.9602 11.9315 53.9602 12.0015 53.9602 12.0315C53.9802 12.2315 54.0502 12.3315 54.1202 12.3215" fill="#323333"/>
<path d="M61.0204 8.69109C61.5004 8.78109 61.7604 8.19109 61.3604 7.92109C61.1504 7.78109 60.9903 7.67109 60.9403 7.65109L60.8903 7.62109C60.8903 7.62109 60.8003 7.57109 60.7603 7.55109L60.7103 7.52109C60.7103 7.52109 60.6704 7.50109 60.6504 7.49109L60.5303 7.43109C60.5303 7.43109 60.4603 7.39109 60.4203 7.38109C60.3303 7.34109 60.2503 7.29109 60.1603 7.25109C59.6303 6.98109 59.1403 6.75109 58.6603 6.54109C58.1803 6.33109 57.6804 6.13109 57.1104 5.91109C56.9704 5.86109 56.8404 5.81109 56.7204 5.76109C56.6804 5.74109 56.6403 5.73109 56.6003 5.71109C56.5703 5.71109 56.5503 5.69109 56.5203 5.68109C56.4803 5.66109 56.4303 5.64109 56.3903 5.63109L56.3304 5.61109C56.3304 5.61109 55.1603 5.39109 55.0103 5.35109C54.8803 5.32109 54.7403 5.27109 54.6703 5.27109L54.1603 5.18109L53.7803 5.14109C53.3603 5.12109 52.9804 5.12109 52.6104 5.12109C52.0804 5.12109 51.5404 5.14109 50.9504 5.17109C50.8504 5.17109 50.7503 5.18109 50.6603 5.19109C50.6203 5.19109 50.5804 5.19109 50.5404 5.19109C50.5004 5.19109 50.4503 5.19109 50.4103 5.19109H50.2904C50.2404 5.21109 50.1903 5.21109 50.1403 5.21109H50.0804C49.8304 5.24109 49.5804 5.26109 49.3304 5.29109C48.8704 5.37109 48.8704 6.00109 49.3304 6.10109C50.0304 6.24109 50.7303 6.39109 50.9803 6.43109C51.4403 6.51109 51.9303 6.61109 52.5303 6.74109C52.7103 6.78109 52.8903 6.82109 53.0903 6.86109H53.1104C53.3404 6.86109 53.8203 7.02109 53.8203 7.02109L53.8804 7.04109C54.0404 7.10109 54.8003 7.28109 55.6203 7.47109C56.4603 7.67109 57.4104 7.88109 57.5604 7.95109H57.5804C57.7804 7.99109 57.9603 8.03109 58.1403 8.07109C58.7303 8.19109 59.2204 8.30109 59.6804 8.41109C59.8904 8.46109 60.4603 8.57109 61.0703 8.69109" fill="#323333"/>
<path d="M61.1203 8.77125C61.1203 8.77125 61.0404 8.77125 61.0004 8.76125C60.2604 8.61125 59.7903 8.52125 59.6003 8.48125C59.1503 8.37125 58.6504 8.27125 58.0604 8.15125C57.8804 8.11125 57.7004 8.07125 57.5004 8.03125H57.4704C57.3204 7.96125 56.3404 7.73125 55.5404 7.55125C54.7204 7.36125 53.9504 7.18125 53.7904 7.12125L53.7304 7.10125C53.7304 7.10125 53.2504 6.95125 53.0504 6.94125H53.0204C52.8204 6.89125 52.6404 6.85125 52.4604 6.82125C51.8704 6.70125 51.3803 6.60125 50.9203 6.51125C50.7103 6.47125 50.1504 6.36125 49.2704 6.18125C48.9804 6.12125 48.8604 5.89125 48.8604 5.68125C48.8604 5.48125 48.9904 5.26125 49.2704 5.22125H49.2803C49.5303 5.19125 49.7803 5.16125 50.0303 5.14125H50.0904C50.0904 5.14125 50.1904 5.13125 50.2404 5.12125H50.3604C50.3604 5.12125 50.4504 5.10125 50.5004 5.10125C50.5404 5.10125 50.5704 5.10125 50.6104 5.10125H50.6203C50.7203 5.10125 50.8204 5.09125 50.9104 5.08125C51.5004 5.05125 52.0504 5.03125 52.5804 5.03125C52.9504 5.03125 53.3403 5.03125 53.7603 5.06125L54.1404 5.10125L54.6504 5.19125C54.6504 5.19125 54.7704 5.21125 54.8404 5.23125C54.8904 5.25125 54.9404 5.26125 54.9904 5.27125C55.0404 5.28125 55.2504 5.32125 55.4604 5.36125C55.6504 5.39125 55.8604 5.43125 56.0204 5.46125C56.1104 5.48125 56.1804 5.49125 56.2304 5.50125C56.2704 5.50125 56.3104 5.52125 56.3304 5.53125L56.3804 5.55125C56.3804 5.55125 56.4703 5.59125 56.5103 5.61125C56.5403 5.61125 56.5604 5.63125 56.5804 5.64125C56.5804 5.64125 56.6604 5.67125 56.7004 5.69125C56.8204 5.74125 56.9404 5.79125 57.0904 5.84125C57.6604 6.05125 58.1704 6.26125 58.6504 6.47125C59.1304 6.68125 59.6304 6.91125 60.1604 7.18125C60.2504 7.22125 60.3403 7.27125 60.4203 7.31125C60.4603 7.33125 60.4904 7.35125 60.5204 7.36125C60.5604 7.38125 60.6004 7.40125 60.6404 7.42125C60.6604 7.43125 60.6804 7.44125 60.7004 7.45125L60.7504 7.48125C60.7504 7.48125 60.8404 7.53125 60.8804 7.55125L60.9403 7.58125C60.9903 7.61125 61.1303 7.70125 61.3703 7.86125C61.6103 8.02125 61.6404 8.28125 61.5604 8.47125C61.4904 8.64125 61.3204 8.78125 61.0904 8.78125M61.0004 8.62125C61.2204 8.66125 61.3703 8.53125 61.4203 8.41125C61.4703 8.29125 61.4603 8.11125 61.2803 7.99125C61.0003 7.80125 60.9003 7.74125 60.8703 7.72125L60.8104 7.69125C60.8104 7.69125 60.7204 7.64125 60.6804 7.62125L60.6304 7.59125C60.6304 7.59125 60.5904 7.57125 60.5704 7.56125C60.5304 7.54125 60.4904 7.52125 60.4504 7.50125C60.4104 7.48125 60.3804 7.46125 60.3404 7.45125C60.2604 7.41125 60.1704 7.36125 60.0804 7.32125C59.5504 7.05125 59.0604 6.82125 58.5804 6.61125C58.1004 6.41125 57.6003 6.20125 57.0303 5.99125C56.8803 5.93125 56.7604 5.89125 56.6404 5.84125C56.6004 5.82125 56.5604 5.81125 56.5204 5.79125C56.5204 5.79125 56.4703 5.77125 56.4403 5.76125L56.3104 5.70125L56.2504 5.67125H56.2404C56.1704 5.64125 55.7203 5.56125 55.4203 5.51125C55.2003 5.47125 55.0003 5.43125 54.9403 5.42125C54.8803 5.41125 54.8303 5.39125 54.7803 5.38125C54.7103 5.36125 54.6504 5.34125 54.6104 5.34125L54.1003 5.25125L53.7304 5.21125C53.3204 5.19125 52.9304 5.19125 52.5604 5.19125C52.0304 5.19125 51.4904 5.21125 50.9004 5.24125C50.8004 5.24125 50.7004 5.25125 50.6104 5.26125C50.6104 5.26125 50.5404 5.26125 50.5004 5.26125C50.4604 5.26125 50.4103 5.26125 50.3703 5.27125C50.3703 5.27125 50.3304 5.27125 50.3004 5.27125H50.2504L50.1003 5.29125H50.0404C49.7904 5.32125 49.5404 5.34125 49.2904 5.38125C49.0904 5.42125 49.0103 5.57125 49.0103 5.69125C49.0103 5.83125 49.1004 5.99125 49.3004 6.04125C50.1804 6.22125 50.7404 6.33125 50.9504 6.37125C51.4104 6.45125 51.9004 6.55125 52.5004 6.68125C52.6804 6.72125 52.8604 6.76125 53.0604 6.80125C53.2904 6.80125 53.7704 6.96125 53.7904 6.97125L53.8503 6.99125C54.0003 7.05125 54.8004 7.23125 55.5804 7.41125C56.4604 7.61125 57.3703 7.83125 57.5303 7.89125C57.7303 7.93125 57.9104 7.97125 58.0904 8.01125C58.6904 8.13125 59.1804 8.24125 59.6304 8.35125C59.8204 8.39125 60.2804 8.49125 61.0204 8.63125" fill="#323333"/>
<path d="M59.9898 11.6317C60.4698 11.7517 60.7498 11.1617 60.3498 10.8817C60.0598 10.6817 59.8198 10.5217 59.7498 10.4817L59.6998 10.4517C59.6998 10.4517 59.6098 10.4017 59.5698 10.3817L59.5198 10.3517C59.5198 10.3517 59.4798 10.3317 59.4598 10.3217C59.4198 10.3017 59.3798 10.2817 59.3398 10.2617C59.2998 10.2417 59.2698 10.2217 59.2398 10.2117C59.1498 10.1617 59.0598 10.1217 58.9798 10.0717C58.4498 9.80172 58.1598 9.65172 57.6798 9.44172C57.6798 9.44172 56.0398 8.82172 55.2198 8.71172C54.4098 8.59172 53.4398 8.51172 52.9198 8.51172C52.3898 8.51172 51.8498 8.53172 51.2598 8.56172C51.1598 8.56172 51.0598 8.57172 50.9698 8.58172C50.9298 8.58172 50.8898 8.58172 50.8498 8.58172C50.8098 8.58172 50.7598 8.58172 50.7098 8.59172C50.6898 8.59172 50.6598 8.59172 50.6398 8.59172H50.5898C50.5398 8.59172 50.4898 8.60172 50.4398 8.61172H50.3798C50.1298 8.64172 49.8798 8.66172 49.6298 8.70172C49.5098 8.71172 49.3698 8.73172 49.2298 8.75172L49.0298 8.78172C49.0298 8.78172 48.9498 8.80172 48.8598 8.83172C48.5298 8.93172 48.5598 9.39172 48.9098 9.46172H48.9198C49.1498 9.49172 49.3998 9.53172 49.7098 9.58172C50.2098 9.66172 50.7198 9.74172 51.2798 9.84172C51.6198 9.90172 51.9798 9.97172 52.3798 10.0617C52.4298 10.0817 52.4798 10.0917 52.5198 10.1017H52.5498C52.5998 10.1317 52.6598 10.1417 52.7098 10.1617C52.8298 10.2017 52.9598 10.2317 53.0898 10.2617H53.1398C53.1398 10.2617 53.2298 10.2917 53.2798 10.3017C53.3098 10.3017 53.3398 10.3117 53.3798 10.3217C53.4198 10.3217 53.4498 10.3317 53.4798 10.3417C53.5998 10.3617 53.7098 10.3717 53.8298 10.3917H53.8698C53.9898 10.4117 54.1098 10.4217 54.2198 10.4317H54.2598C54.2598 10.4317 54.3498 10.4417 54.3898 10.4517H54.5098C54.5098 10.4517 54.5998 10.4717 54.6498 10.4817H54.7098C54.7098 10.4817 54.7998 10.5017 54.8498 10.5017C54.8698 10.5017 54.8998 10.5017 54.9198 10.5017H54.9398C54.9398 10.5017 54.9998 10.5117 55.0398 10.5217C55.1798 10.5417 55.3098 10.5617 55.4198 10.5917C55.9698 10.7017 56.5298 10.8117 56.9498 10.9017C57.5398 11.0217 58.0298 11.1317 58.4898 11.2417C59.0398 11.3717 59.5398 11.5017 60.0298 11.6317H60.0398" fill="#323333"/>
<path d="M60.1203 11.7214C60.1203 11.7214 60.0303 11.7214 59.9803 11.7014H59.9703C59.4803 11.5614 58.9803 11.4414 58.4303 11.3114C57.9703 11.2014 57.4903 11.0914 56.8903 10.9714C56.4703 10.8814 55.9203 10.7714 55.3603 10.6614C55.2503 10.6414 55.1203 10.6214 54.9803 10.5914C54.9503 10.5914 54.9203 10.5914 54.8903 10.5814H54.8603C54.8603 10.5814 54.8203 10.5814 54.7903 10.5714C54.7403 10.5714 54.7003 10.5614 54.6603 10.5514H54.6003C54.6003 10.5514 54.5103 10.5314 54.4703 10.5314H54.3503C54.3503 10.5314 54.2603 10.5114 54.2203 10.5014H54.1803C54.0603 10.4814 53.9503 10.4714 53.8303 10.4614H53.7903C53.6703 10.4414 53.5603 10.4214 53.4403 10.4114C53.4103 10.4114 53.3803 10.4114 53.3403 10.3914C53.3103 10.3914 53.2803 10.3814 53.2403 10.3714C53.2003 10.3714 53.1503 10.3514 53.1003 10.3414H53.0503C52.9203 10.3014 52.7903 10.2714 52.6703 10.2314C52.6203 10.2114 52.5603 10.2014 52.5103 10.1814H52.4803C52.4803 10.1814 52.4003 10.1414 52.3503 10.1314C51.9503 10.0514 51.5903 9.98141 51.2503 9.92141C50.7003 9.82141 50.1803 9.73141 49.6803 9.65141C49.3603 9.60141 49.1203 9.57141 48.8903 9.54141H48.8703C48.6803 9.50141 48.5403 9.35141 48.5303 9.16141C48.5303 8.98141 48.6303 8.82141 48.8103 8.76141C48.9703 8.71141 48.9903 8.71141 48.9903 8.71141L49.1903 8.68141C49.3403 8.66141 49.4703 8.64141 49.6003 8.63141C49.8503 8.60141 50.1003 8.57141 50.3503 8.55141H50.4103C50.4603 8.54141 50.5103 8.54141 50.5603 8.53141H50.6803C50.6803 8.53141 50.7703 8.51141 50.8203 8.51141C50.8603 8.51141 50.8903 8.51141 50.9303 8.51141C51.0303 8.51141 51.1303 8.50141 51.2303 8.49141C51.8203 8.46141 52.3703 8.44141 52.9003 8.44141C53.4403 8.44141 54.4103 8.52141 55.2103 8.64141C56.0203 8.76141 57.6203 9.35141 57.6803 9.38141C58.1803 9.60141 58.4803 9.76141 58.9903 10.0114C59.0803 10.0514 59.1703 10.1014 59.2503 10.1514L59.3603 10.2014C59.3603 10.2014 59.4403 10.2414 59.4803 10.2614L59.5303 10.2914L59.5803 10.3214C59.5803 10.3214 59.6703 10.3714 59.7103 10.3914L59.7703 10.4214C59.8303 10.4614 60.0303 10.5914 60.3703 10.8214C60.6103 10.9814 60.6303 11.2414 60.5503 11.4314C60.4803 11.5914 60.3203 11.7214 60.0903 11.7214M48.9903 8.86141C48.9903 8.86141 48.9603 8.86141 48.8303 8.91141C48.6903 8.95141 48.6503 9.06141 48.6503 9.15141C48.6503 9.24141 48.7103 9.36141 48.8703 9.39141C49.1003 9.42141 49.3403 9.46141 49.6603 9.50141C50.1603 9.58141 50.6703 9.66141 51.2303 9.77141C51.5703 9.83141 51.9303 9.90141 52.3303 9.99141C52.3803 10.0114 52.4203 10.0214 52.4603 10.0414H52.4903C52.5403 10.0714 52.6003 10.0814 52.6503 10.1014C52.7803 10.1414 52.9003 10.1714 53.0203 10.2014H53.0703C53.0703 10.2014 53.1603 10.2314 53.2103 10.2414C53.2403 10.2414 53.2703 10.2514 53.3103 10.2614C53.3503 10.2614 53.3803 10.2714 53.4003 10.2814C53.5103 10.3014 53.6303 10.3114 53.7403 10.3314H53.7803C53.9003 10.3514 54.0203 10.3614 54.1303 10.3714H54.1703C54.1703 10.3714 54.2603 10.3814 54.3003 10.3914C54.3203 10.3914 54.3403 10.3914 54.3603 10.3914H54.4203C54.4203 10.3914 54.5103 10.4114 54.5503 10.4114H54.6103C54.6103 10.4114 54.7003 10.4314 54.7403 10.4314H54.8403C54.8403 10.4314 54.9003 10.4514 54.9403 10.4614C55.0803 10.4814 55.2103 10.5014 55.3203 10.5214C55.8703 10.6314 56.4303 10.7414 56.8503 10.8314C57.4403 10.9614 57.9303 11.0714 58.3903 11.1714C58.9403 11.3014 59.4503 11.4314 59.9303 11.5614H59.9403C60.1503 11.6214 60.3003 11.5114 60.3603 11.3714C60.4103 11.2514 60.4103 11.0714 60.2303 10.9514C59.8203 10.6714 59.6803 10.5814 59.6403 10.5614L59.5803 10.5314C59.5803 10.5314 59.5003 10.4914 59.4503 10.4614L59.4003 10.4314C59.4003 10.4314 59.3603 10.4114 59.3503 10.4014L59.2303 10.3314L59.1203 10.2814C59.0303 10.2414 58.9503 10.1914 58.8603 10.1514C58.3103 9.87141 58.0303 9.73141 57.5603 9.52141C57.5003 9.50141 55.9103 8.90141 55.1203 8.79141C54.3303 8.68141 53.3703 8.59141 52.8303 8.59141C52.2903 8.59141 51.7703 8.61141 51.1703 8.64141C51.0703 8.64141 50.9703 8.65141 50.8803 8.66141C50.8803 8.66141 50.8103 8.66141 50.7703 8.66141C50.7303 8.66141 50.6803 8.66141 50.6403 8.66141C50.6403 8.66141 50.6003 8.66141 50.5703 8.66141H50.5203C50.4703 8.66141 50.4203 8.67141 50.3703 8.68141H50.3103C50.0703 8.71141 49.8103 8.73141 49.5603 8.76141C49.4403 8.77141 49.3003 8.79141 49.1603 8.81141L48.9603 8.84141L48.9903 8.86141Z" fill="#323333"/>
<path d="M57.81 19.3611L58.26 19.2211C58.41 19.1811 58.55 19.1311 58.69 19.0911C58.98 19.0111 59.26 18.9311 59.54 18.8511C59.82 18.7711 60.1 18.7011 60.38 18.6411C60.66 18.5811 60.94 18.5211 61.21 18.4711L61.42 18.4311L61.63 18.4011C61.7 18.3911 61.77 18.3811 61.84 18.3711C61.91 18.3711 61.98 18.3511 62.05 18.3411H62.16L62.27 18.3111L62.48 18.2911C62.48 18.2911 62.55 18.2911 62.59 18.2811H62.7C62.77 18.2711 62.84 18.2611 62.91 18.2511C62.98 18.2511 63.05 18.2411 63.13 18.2311H63.24L63.35 18.2111C63.35 18.2111 63.42 18.2111 63.46 18.2111C63.5 18.2111 63.53 18.2111 63.57 18.2111H63.79C63.94 18.1911 64.09 18.1911 64.24 18.1811C64.32 18.1811 64.39 18.1811 64.47 18.1711C64.55 18.1711 64.63 18.1711 64.71 18.1511C64.64 18.1011 64.58 18.0611 64.51 18.0211C64.44 17.9811 64.37 17.9411 64.3 17.9011C64.16 17.8311 64.01 17.7611 63.87 17.7111C63.8 17.6811 63.72 17.6611 63.65 17.6311C63.61 17.6211 63.57 17.6111 63.53 17.6011C63.49 17.5911 63.45 17.5811 63.41 17.5711C63.37 17.5611 63.33 17.5511 63.29 17.5411L63.17 17.5211C63.09 17.5011 63.01 17.4911 62.94 17.4711C62.86 17.4611 62.78 17.4511 62.7 17.4411C62.66 17.4411 62.62 17.4411 62.58 17.4311H62.46C62.38 17.4211 62.3 17.4111 62.22 17.4111H61.92C61.92 17.4111 61.88 17.4111 61.86 17.4111H61.74C61.66 17.4111 61.58 17.4211 61.5 17.4311L61.26 17.4611L61.02 17.5011C60.7 17.5611 60.4 17.6411 60.09 17.7411C59.79 17.8511 59.5 17.9811 59.22 18.1311C59.08 18.2111 58.95 18.2911 58.82 18.3811C58.79 18.4011 58.75 18.4311 58.72 18.4511C58.69 18.4711 58.66 18.5011 58.62 18.5211C58.59 18.5511 58.56 18.5711 58.53 18.6011C58.5 18.6211 58.47 18.6511 58.44 18.6711C58.32 18.7711 58.2 18.8811 58.09 19.0011C58.04 19.0611 57.98 19.1211 57.93 19.1811C57.88 19.2411 57.83 19.3111 57.79 19.3711" fill="#040000"/>
<path d="M57.8102 19.5215C57.8102 19.5215 57.7202 19.5015 57.6902 19.4615C57.6502 19.4115 57.6502 19.3415 57.6902 19.2915C57.7402 19.2115 57.7902 19.1415 57.8402 19.0815C57.8902 19.0215 57.9402 18.9615 58.0102 18.8915C58.1302 18.7715 58.2502 18.6615 58.3702 18.5515C58.3902 18.5315 58.4202 18.5115 58.4402 18.4915C58.4402 18.4915 58.4602 18.4815 58.4702 18.4715C58.5002 18.4415 58.5302 18.4215 58.5602 18.4015C58.5602 18.4015 58.6202 18.3515 58.6502 18.3315L58.6702 18.3115C58.6702 18.3115 58.7302 18.2715 58.7602 18.2515C58.8902 18.1615 59.0402 18.0715 59.1702 17.9915C59.4502 17.8315 59.7502 17.7015 60.0602 17.5915C60.3602 17.4815 60.6802 17.4015 61.0102 17.3415L61.2502 17.3015L61.4902 17.2715C61.5702 17.2715 61.6402 17.2615 61.7102 17.2515H61.8602C61.8602 17.2515 61.8702 17.2515 61.8802 17.2515C61.8902 17.2515 61.9102 17.2515 61.9302 17.2515H62.2302C62.2902 17.2515 62.3502 17.2515 62.4102 17.2615C62.4302 17.2615 62.4502 17.2615 62.4802 17.2615C62.5102 17.2615 62.5402 17.2615 62.5702 17.2615H62.6102C62.6102 17.2615 62.6902 17.2715 62.7302 17.2815H62.7702C62.8302 17.2915 62.9002 17.3015 62.9702 17.3115C63.0302 17.3215 63.1002 17.3415 63.1602 17.3515H63.2102L63.3302 17.3915C63.3302 17.3915 63.3902 17.4015 63.4102 17.4115C63.4202 17.4115 63.4302 17.4115 63.4502 17.4115C63.4902 17.4215 63.5302 17.4315 63.5702 17.4415H63.6002C63.6002 17.4415 63.6602 17.4715 63.6902 17.4715C63.7602 17.4915 63.8302 17.5215 63.8902 17.5415H63.9202C64.0702 17.6015 64.2102 17.6715 64.3702 17.7515C64.4402 17.7815 64.5102 17.8215 64.5702 17.8615H64.5902C64.6602 17.9115 64.7302 17.9615 64.7902 18.0115C64.8402 18.0515 64.8602 18.1115 64.8502 18.1715C64.8302 18.2315 64.7802 18.2715 64.7202 18.2815C64.6402 18.2815 64.5702 18.2915 64.5002 18.3015H64.4802C64.4802 18.3015 64.4102 18.3015 64.3802 18.3015C64.3402 18.3015 64.2902 18.3015 64.2502 18.3015C64.1802 18.3015 64.1002 18.3015 64.0302 18.3115C63.9502 18.3115 63.8702 18.3115 63.7902 18.3215H63.5702L63.4902 18.3415H63.4602C63.4602 18.3415 63.3902 18.3415 63.3502 18.3415H63.2402L63.1302 18.3615H63.0802C63.0202 18.3615 62.9702 18.3715 62.9102 18.3715C62.8502 18.3715 62.7902 18.3815 62.7402 18.3915H62.5902L62.5602 18.4115C62.5602 18.4115 62.5102 18.4115 62.4802 18.4115L62.2702 18.4315H62.1602L62.0502 18.4615C62.0502 18.4615 61.9502 18.4715 61.9002 18.4815H61.8402C61.8402 18.4815 61.7902 18.5015 61.7602 18.5015C61.7202 18.5015 61.6802 18.5115 61.6402 18.5215L61.4302 18.5515L61.2202 18.5915C60.9402 18.6415 60.6602 18.7015 60.3902 18.7615C60.1302 18.8215 59.8602 18.8915 59.5602 18.9715C59.2302 19.0615 58.9602 19.1415 58.7202 19.2115C58.6002 19.2415 58.4902 19.2815 58.3702 19.3115L58.2802 19.3415L57.8302 19.4815C57.8302 19.4815 57.8002 19.4815 57.7902 19.4815M58.7202 18.6015C58.7202 18.6015 58.6602 18.6515 58.6302 18.6715L58.6002 18.6915C58.6002 18.6915 58.5602 18.7215 58.5402 18.7415C58.4302 18.8315 58.3302 18.9315 58.2202 19.0415L58.2802 19.0215C58.3902 18.9815 58.5102 18.9515 58.6302 18.9215C58.8802 18.8515 59.1502 18.7715 59.4802 18.6815C59.7902 18.6015 60.0602 18.5315 60.3202 18.4715C60.5902 18.4115 60.8702 18.3515 61.1602 18.3015L61.3702 18.2615L61.5802 18.2315C61.5802 18.2315 61.6702 18.2215 61.7202 18.2115C61.7402 18.2115 61.7702 18.2115 61.7902 18.2015C61.8102 18.2015 61.8302 18.2015 61.8502 18.2015C61.9002 18.2015 61.9602 18.1915 62.0102 18.1815H62.1102L62.2202 18.1515L62.4302 18.1315C62.4302 18.1315 62.4802 18.1315 62.5102 18.1315H62.5502L62.7002 18.1115C62.7602 18.1115 62.8202 18.1015 62.8702 18.0915C62.9202 18.0915 62.9802 18.0915 63.0402 18.0815H63.2002L63.3102 18.0615C63.3102 18.0615 63.3802 18.0615 63.4202 18.0615H63.4502C63.4502 18.0615 63.5002 18.0615 63.5302 18.0615H63.7502C63.8302 18.0415 63.9202 18.0415 64.0002 18.0415C64.0602 18.0415 64.1202 18.0415 64.1902 18.0415C64.0502 17.9715 63.9202 17.9115 63.8002 17.8715H63.7702C63.7102 17.8315 63.6402 17.8115 63.5802 17.7915C63.5502 17.7915 63.5302 17.7815 63.5002 17.7715H63.4702C63.4702 17.7715 63.4002 17.7415 63.3602 17.7315H63.3202C63.3202 17.7315 63.2702 17.7115 63.2502 17.7015L63.0902 17.6715C63.0302 17.6615 62.9702 17.6515 62.9102 17.6315C62.8502 17.6315 62.7802 17.6115 62.7202 17.6015H62.6802C62.6802 17.6015 62.6002 17.5915 62.5702 17.5815H62.4602C62.4602 17.5815 62.4102 17.5715 62.3902 17.5715C62.3302 17.5715 62.2802 17.5715 62.2202 17.5615H61.7302C61.6602 17.5715 61.5902 17.5815 61.5202 17.5815L61.2902 17.6115L61.0602 17.6515C60.7502 17.7115 60.4502 17.7915 60.1602 17.8915C59.8602 17.9915 59.5802 18.1215 59.3102 18.2715C59.1802 18.3415 59.0502 18.4215 58.9202 18.5115C58.9202 18.5115 58.8702 18.5515 58.8402 18.5715L58.8202 18.5915C58.8202 18.5915 58.7702 18.6315 58.7402 18.6515" fill="#040000"/>
<path d="M46.7199 17.1715L46.3499 16.8915C46.2299 16.8015 46.1099 16.7115 45.9799 16.6215C45.7399 16.4415 45.4999 16.2715 45.2599 16.1115C45.0199 15.9415 44.7799 15.7815 44.5499 15.6315C44.3099 15.4815 44.0699 15.3315 43.8199 15.1915L43.6399 15.0815L43.4499 14.9815C43.3899 14.9415 43.3299 14.9115 43.2599 14.8815C43.1999 14.8515 43.1399 14.8115 43.0699 14.7815L42.9699 14.7315L42.8799 14.6815L42.6899 14.5915C42.6899 14.5915 42.6299 14.5615 42.5899 14.5415L42.4899 14.5015C42.4299 14.4715 42.3599 14.4415 42.2899 14.4115C42.2199 14.3815 42.1599 14.3515 42.0899 14.3215L41.9899 14.2715L41.8899 14.2315C41.8899 14.2315 41.8199 14.2015 41.7899 14.1915C41.7599 14.1815 41.7199 14.1615 41.6899 14.1515L41.4799 14.0715C41.3399 14.0115 41.1999 13.9515 41.0599 13.8915C40.9899 13.8615 40.9199 13.8315 40.8499 13.8015C40.7799 13.7715 40.7099 13.7415 40.6299 13.7015C40.7099 13.6815 40.7899 13.6615 40.8599 13.6515C40.9399 13.6415 41.0199 13.6215 41.0899 13.6115C41.2499 13.5915 41.4099 13.5815 41.5599 13.5815C41.6399 13.5815 41.7199 13.5815 41.7999 13.5815C41.8399 13.5815 41.8799 13.5815 41.9199 13.5815C41.9599 13.5815 41.9999 13.5815 42.0399 13.5815C42.0799 13.5815 42.1199 13.5815 42.1599 13.5815L42.2799 13.6015C42.3599 13.6115 42.4399 13.6215 42.5199 13.6415C42.5999 13.6515 42.6799 13.6715 42.7499 13.6915C42.7899 13.6915 42.8299 13.7115 42.8699 13.7215C42.9099 13.7315 42.9499 13.7415 42.9899 13.7515C43.0699 13.7715 43.1399 13.7915 43.2199 13.8215L43.3299 13.8615L43.4499 13.9015L43.4999 13.9215C43.4999 13.9215 43.5399 13.9315 43.5599 13.9415L43.6699 13.9915C43.7399 14.0215 43.8199 14.0515 43.8899 14.0915L44.1099 14.2015L44.3199 14.3215C44.5999 14.4815 44.8599 14.6615 45.1099 14.8715C45.3599 15.0715 45.5799 15.2915 45.7899 15.5415C45.8899 15.6615 45.9899 15.7815 46.0899 15.9115C46.1099 15.9415 46.1299 15.9715 46.1599 16.0115C46.1799 16.0415 46.1999 16.0815 46.2299 16.1115C46.2499 16.1415 46.2699 16.1815 46.2899 16.2115C46.3099 16.2415 46.3299 16.2815 46.3499 16.3115C46.4299 16.4515 46.4999 16.5915 46.5699 16.7315C46.5999 16.8015 46.6299 16.8815 46.6599 16.9515C46.6899 17.0315 46.7099 17.1015 46.7299 17.1815" fill="#040000"/>
<path d="M46.7201 17.3314C46.7201 17.3314 46.6601 17.3314 46.6301 17.3014L46.1801 16.9614C46.0801 16.8914 45.9901 16.8114 45.8901 16.7414C45.6901 16.5914 45.4601 16.4214 45.1801 16.2314C44.9201 16.0514 44.6901 15.9014 44.4701 15.7514C44.2401 15.6014 44.0001 15.4514 43.7501 15.3114L43.5701 15.2114L43.3801 15.1114C43.3801 15.1114 43.3101 15.0714 43.2701 15.0514C43.2501 15.0414 43.2201 15.0314 43.2001 15.0114C43.1801 15.0114 43.1601 14.9914 43.1501 14.9814C43.1001 14.9614 43.0601 14.9314 43.0201 14.9114L42.9201 14.8614L42.8301 14.8114L42.6401 14.7214C42.6401 14.7214 42.5901 14.7014 42.5701 14.6814H42.5501L42.4201 14.6114C42.3701 14.5914 42.3101 14.5614 42.2601 14.5314C42.2101 14.5114 42.1501 14.4914 42.1001 14.4614L42.0601 14.4414L41.9601 14.3914L41.8601 14.3514C41.8601 14.3514 41.7901 14.3214 41.7601 14.3014H41.7301C41.7301 14.3014 41.6801 14.2714 41.6601 14.2614L41.4601 14.1814C41.3901 14.1514 41.3201 14.1214 41.2401 14.0914C41.1701 14.0614 41.1101 14.0414 41.0401 14.0114C41.0401 14.0114 40.9601 13.9814 40.9201 13.9614C40.8901 13.9514 40.8601 13.9314 40.8301 13.9214H40.8101C40.7401 13.8814 40.6801 13.8514 40.6001 13.8214C40.5501 13.7914 40.5101 13.7314 40.5201 13.6714C40.5201 13.6114 40.5701 13.5514 40.6301 13.5414C40.7101 13.5214 40.7901 13.5014 40.8701 13.4914H40.9001C40.9701 13.4714 41.0501 13.4614 41.1301 13.4514C41.3001 13.4314 41.4601 13.4214 41.6201 13.4214H41.6501C41.7201 13.4214 41.7901 13.4214 41.8601 13.4214H41.9801C41.9801 13.4214 42.0601 13.4314 42.1001 13.4414C42.1101 13.4414 42.1301 13.4414 42.1401 13.4414C42.1701 13.4414 42.1901 13.4414 42.2301 13.4414L42.3501 13.4614H42.4001C42.4601 13.4814 42.5301 13.4914 42.5901 13.5014C42.6601 13.5114 42.7201 13.5314 42.7901 13.5414H42.8301C42.8301 13.5414 42.9101 13.5714 42.9501 13.5814H42.9801C42.9801 13.5814 43.0401 13.6114 43.0701 13.6214C43.0901 13.6214 43.1101 13.6314 43.1301 13.6414C43.1901 13.6514 43.2501 13.6714 43.3001 13.6914L43.4101 13.7314L43.5801 13.7914C43.5801 13.7914 43.6101 13.8014 43.6201 13.8114H43.6401L43.7701 13.8714C43.8401 13.9014 43.9101 13.9314 43.9801 13.9614L44.1901 14.0714L44.4001 14.1914C44.6901 14.3614 44.9601 14.5514 45.2101 14.7514C45.4701 14.9614 45.7001 15.1914 45.9101 15.4414C46.0101 15.5614 46.1201 15.6914 46.2101 15.8214C46.2301 15.8514 46.2501 15.8814 46.2701 15.9114L46.2901 15.9314C46.2901 15.9314 46.3301 15.9914 46.3501 16.0214C46.3501 16.0214 46.3901 16.0914 46.4101 16.1314L46.4301 16.1614C46.4301 16.1614 46.4601 16.2114 46.4801 16.2414C46.5601 16.3814 46.6401 16.5314 46.7001 16.6814C46.7401 16.7714 46.7701 16.8414 46.7901 16.9114C46.8201 17.0014 46.8401 17.0814 46.8601 17.1614C46.8701 17.2214 46.8501 17.2814 46.7901 17.3214C46.7601 17.3414 46.7401 17.3414 46.7101 17.3414M43.5201 14.8614L43.7001 14.9614L43.8901 15.0714C44.1401 15.2214 44.3901 15.3714 44.6201 15.5214C44.8401 15.6614 45.0801 15.8214 45.3401 16.0014C45.6201 16.2014 45.8501 16.3614 46.0601 16.5214C46.1601 16.5914 46.2601 16.6614 46.3501 16.7414L46.4001 16.7814C46.3401 16.6514 46.2801 16.5214 46.2001 16.4014C46.2001 16.4014 46.1801 16.3514 46.1601 16.3314C46.1601 16.3214 46.1501 16.3114 46.1401 16.3014C46.1201 16.2714 46.1001 16.2414 46.0801 16.2114C46.0801 16.2114 46.0401 16.1514 46.0201 16.1214L46.0001 16.1014C46.0001 16.1014 45.9601 16.0514 45.9501 16.0214C45.8601 15.8914 45.7601 15.7714 45.6601 15.6514C45.4601 15.4214 45.2401 15.2014 44.9901 15.0014C44.7601 14.8114 44.5001 14.6314 44.2201 14.4714L44.0101 14.3614L43.8001 14.2514C43.7401 14.2214 43.6801 14.1914 43.6101 14.1614L43.4801 14.1114H43.4601L43.4301 14.0914L43.2601 14.0314L43.1501 13.9914C43.1001 13.9714 43.0401 13.9614 42.9901 13.9414C42.9701 13.9414 42.9501 13.9314 42.9301 13.9214C42.9001 13.9214 42.8801 13.9014 42.8501 13.9014H42.8201C42.8201 13.9014 42.7501 13.8714 42.7101 13.8714H42.6701C42.6101 13.8514 42.5501 13.8314 42.4801 13.8214C42.4201 13.8114 42.3601 13.8014 42.3001 13.7914H42.2501L42.1301 13.7714C42.1301 13.7714 42.0801 13.7714 42.0501 13.7714C42.0401 13.7714 42.0201 13.7714 42.0101 13.7714C41.9701 13.7714 41.9301 13.7714 41.8901 13.7714H41.7701C41.7001 13.7714 41.6401 13.7714 41.5701 13.7714H41.5401C41.4001 13.7714 41.2601 13.7814 41.1101 13.8014C41.1701 13.8314 41.2301 13.8514 41.2801 13.8714C41.3501 13.9014 41.4301 13.9314 41.5001 13.9614L41.7101 14.0414C41.7101 14.0414 41.7601 14.0614 41.7801 14.0714H41.8101C41.8101 14.0714 41.8701 14.1114 41.9101 14.1314L42.0101 14.1714L42.1501 14.2414C42.2001 14.2614 42.2501 14.2914 42.3001 14.3114C42.3501 14.3414 42.4001 14.3614 42.4501 14.3914L42.4901 14.4114L42.5901 14.4514L42.6201 14.4714L42.6901 14.5014L42.8801 14.5914L42.9701 14.6414L43.0701 14.6914C43.0701 14.6914 43.1701 14.7414 43.2101 14.7614C43.2301 14.7614 43.2401 14.7814 43.2601 14.7914C43.2801 14.8014 43.3001 14.8114 43.3301 14.8314C43.3701 14.8514 43.4101 14.8714 43.4501 14.9014" fill="#040000"/>
<path d="M45.2304 22.2815C44.9804 23.8415 43.9604 24.9815 42.9504 24.8215C41.9404 24.6615 41.3304 23.2615 41.5804 21.7015C41.8304 20.1415 42.8504 19.0015 43.8504 19.1615C44.8504 19.3215 45.4704 20.7215 45.2204 22.2815" fill="#040000"/>
<path d="M44.9001 21.0914C44.8701 21.3114 44.6501 21.4714 44.4301 21.4314C44.2101 21.3914 44.0501 21.1814 44.0901 20.9614C44.1301 20.7414 44.3401 20.5814 44.5601 20.6214C44.7801 20.6614 44.9301 20.8714 44.9001 21.0914Z" fill="white"/>
<path d="M61.9796 24.9416C61.7296 26.5016 60.7096 27.6416 59.7096 27.4816C58.7096 27.3216 58.0896 25.9216 58.3396 24.3616C58.5896 22.8016 59.6096 21.6616 60.6196 21.8216C61.6296 21.9816 62.2396 23.3816 61.9796 24.9416Z" fill="#040000"/>
<path d="M61.6498 23.7515C61.6098 23.9715 61.3998 24.1315 61.1798 24.0915C60.9598 24.0515 60.8098 23.8415 60.8398 23.6215C60.8798 23.4015 61.0898 23.2415 61.3098 23.2815C61.5298 23.3215 61.6898 23.5315 61.6498 23.7515Z" fill="white"/>
<path d="M50.1803 33.8414C50.1803 33.8414 50.1203 33.8414 50.0903 33.8414C49.8003 33.7914 49.6103 33.5114 49.6603 33.2214L50.5003 28.4214C50.5503 28.1314 50.8303 27.9414 51.1203 27.9914C51.4103 28.0414 51.6003 28.3214 51.5503 28.6114L50.7003 33.4114C50.6603 33.6714 50.4303 33.8514 50.1803 33.8514" fill="#040000"/>
<path d="M35.6003 3.31148C35.6003 3.31148 35.9504 1.47148 39.6304 2.63148C39.6304 2.63148 37.7003 0.821479 34.9203 0.791479C32.1403 0.761479 31.8604 1.09148 31.8604 1.09148C31.8604 1.09148 33.5704 1.38148 35.6104 3.31148" fill="#323333"/>
<path d="M35.6003 3.39144C35.6003 3.39144 35.5603 3.39144 35.5503 3.37144C34.5103 2.38144 33.5503 1.84144 32.9303 1.55144C32.2703 1.24144 31.8503 1.17144 31.8403 1.17144C31.8103 1.17144 31.7903 1.15144 31.7803 1.12144C31.7803 1.09144 31.7803 1.06144 31.7903 1.04144C31.8103 1.02144 31.9103 0.931442 32.3203 0.851442C32.8803 0.741442 33.7503 0.701442 34.9103 0.711442C36.3603 0.721442 37.5803 1.23144 38.3403 1.65144C39.1703 2.11144 39.6503 2.55144 39.6703 2.57144C39.7003 2.59144 39.7003 2.63144 39.6803 2.66144C39.6603 2.69144 39.6303 2.70144 39.5903 2.69144C38.7503 2.42144 38.0203 2.30144 37.4203 2.31144C36.9503 2.31144 36.5503 2.42144 36.2503 2.60144C35.7603 2.89144 35.6703 3.31144 35.6703 3.31144C35.6703 3.34144 35.6503 3.36144 35.6203 3.37144H35.6003M32.0903 1.05144C32.2803 1.10144 32.6003 1.21144 33.0003 1.39144C33.6103 1.67144 34.5403 2.20144 35.5703 3.15144C35.6303 2.99144 35.7903 2.69144 36.1803 2.46144C36.5103 2.26144 36.9303 2.16144 37.4303 2.15144C37.9603 2.14144 38.5903 2.23144 39.3003 2.43144C39.0803 2.26144 38.7303 2.01144 38.2803 1.77144C37.5303 1.36144 36.3403 0.871442 34.9203 0.851442C33.1303 0.831442 32.3803 0.961442 32.0903 1.05144" fill="#323333"/>
<path d="M39.0202 7.36145C38.8202 7.36145 38.6302 7.24145 38.5402 7.05145C38.0102 5.88145 37.2702 4.88145 36.3502 4.09145C35.6202 3.46145 34.7602 2.95145 33.8102 2.59145C32.1702 1.96145 30.8002 1.98145 30.7802 1.98145C30.4902 1.98145 30.2402 1.75145 30.2402 1.46145C30.2402 1.17145 30.4702 0.921448 30.7602 0.921448C30.8202 0.921448 32.3202 0.901448 34.1402 1.58145C35.2102 1.98145 36.1802 2.55145 37.0202 3.27145C38.0602 4.16145 38.9002 5.29145 39.5002 6.61145C39.6202 6.88145 39.5002 7.19145 39.2402 7.31145C39.1702 7.34145 39.0902 7.36145 39.0202 7.36145" fill="#040000"/>
<path d="M80.3004 9.20147C77.9004 6.83147 75.2004 6.33147 71.9404 7.23147C72.7804 7.64147 73.6604 8.20147 74.4404 8.96147C75.8604 8.40147 77.7904 8.24147 80.3004 9.20147Z" fill="#3E3A39"/>
<path d="M69.4803 12.0216C69.3103 12.0216 69.1503 11.9416 69.0403 11.7916C68.8703 11.5516 68.9303 11.2216 69.1703 11.0516C69.2303 11.0116 70.7803 9.9316 72.9003 9.1116C74.1603 8.6216 75.3603 8.3216 76.4703 8.2116C77.8903 8.0816 79.1803 8.2616 80.2803 8.7716C80.5503 8.8916 80.6603 9.2116 80.5403 9.4816C80.4203 9.7516 80.1003 9.8616 79.8403 9.7416C78.9103 9.3116 77.8103 9.1616 76.5703 9.2716C75.5503 9.3616 74.4503 9.6516 73.2803 10.1016C71.2703 10.8816 69.7903 11.9116 69.7703 11.9216C69.6803 11.9916 69.5703 12.0216 69.4703 12.0216" fill="#040000"/>
<path d="M48.3304 25.4814C47.5704 25.5014 46.9704 25.8114 46.8104 26.2814C46.7304 26.5014 46.6804 26.7214 46.6404 26.9814C46.2204 29.4114 49.7204 30.0414 50.1404 30.1114C50.1704 30.1114 50.1904 30.1114 50.2204 30.1214C50.6804 30.2114 54.6004 31.3214 55.6604 28.5214C55.7004 28.4314 56.0504 27.4814 55.1404 26.9614C54.3404 26.5014 53.3504 26.2114 51.5404 25.8014C50.2804 25.5214 49.2104 25.4714 48.3404 25.4914" fill="#3E3A39"/>
<path d="M53.3905 47.7217C51.6405 47.7217 49.8605 47.5917 48.0805 47.3417C46.0105 47.0417 43.9905 46.5817 42.0705 45.9517C40.1405 45.3217 38.3205 44.5417 36.6305 43.6217C34.9205 42.6817 33.3605 41.6017 31.9805 40.4017C30.5705 39.1717 29.3405 37.8017 28.3405 36.3517C27.6105 35.2817 26.9805 34.1117 26.4705 32.8617C25.9805 31.6617 25.5905 30.3717 25.3305 29.0517C25.0705 27.7617 24.9205 26.4217 24.8905 25.0817C24.8605 23.7517 24.9305 22.4117 25.1205 21.1017C25.4905 18.5417 26.3405 16.1117 27.6605 13.8617C27.3105 13.2017 27.1105 12.2917 27.0105 11.6017C26.8405 10.5017 26.7905 9.22174 26.8705 7.99174C26.9505 6.62174 27.1905 5.35174 27.5505 4.30174C27.9905 3.04174 28.6005 2.12174 29.3705 1.56174C30.6205 0.651738 31.9705 0.131738 33.4005 0.0217381C34.5905 -0.0682619 35.8305 0.121738 37.0905 0.581738C39.0805 1.31174 40.6705 2.56174 41.5605 3.36174C43.5305 2.76174 45.5905 2.36174 47.6805 2.19174C49.9505 2.00174 52.2605 2.08174 54.5505 2.41174C56.9105 2.75174 59.2005 3.35174 61.3805 4.21174C63.4005 5.00174 65.3205 6.01174 67.0805 7.21174C68.3605 6.77174 69.6305 6.46174 70.8705 6.27174C72.2605 6.06174 73.5805 6.01174 74.7905 6.12174C76.1005 6.25174 77.2605 6.57174 78.2505 7.08174C79.3305 7.64174 80.2005 8.42174 80.8305 9.40174C81.8305 10.9617 82.1105 12.7317 81.6705 14.6517C81.2305 16.5317 80.1805 18.1817 79.3705 19.2317C78.6705 20.1417 77.9205 20.9017 77.4305 21.2917C77.8105 23.4117 77.8505 26.3817 77.5305 28.6617C77.3405 30.0117 77.0405 31.3517 76.6405 32.6317C76.2305 33.9517 75.7105 35.2217 75.1005 36.4017C73.7905 38.9417 72.0905 41.0417 70.0405 42.6617C68.6705 43.7317 67.1205 44.6617 65.4105 45.4117C63.7505 46.1417 61.9505 46.7017 60.0405 47.0917C58.1705 47.4717 56.2005 47.6917 54.1905 47.7317C53.9305 47.7317 53.6705 47.7317 53.4105 47.7317M33.9905 1.04174C32.5705 1.04174 31.2305 1.49174 29.9905 2.40174C29.4005 2.83174 28.9205 3.58174 28.5505 4.63174C28.2205 5.59174 28.0005 6.76174 27.9205 8.04174C27.8505 9.20174 27.9005 10.4017 28.0505 11.4317C28.2005 12.3917 28.4405 13.1717 28.7105 13.5417C28.8305 13.7117 28.8405 13.9417 28.7305 14.1317C27.3905 16.3317 26.5305 18.7217 26.1605 21.2417C25.9805 22.4917 25.9005 23.7717 25.9405 25.0417C25.9705 26.3217 26.1105 27.6017 26.3605 28.8317C26.6205 30.0917 26.9805 31.3117 27.4505 32.4517C27.9305 33.6317 28.5305 34.7317 29.2205 35.7417C30.1705 37.1217 31.3405 38.4217 32.6805 39.5917C34.0005 40.7417 35.5005 41.7817 37.1405 42.6817C38.7605 43.5717 40.5305 44.3317 42.4005 44.9317C44.2605 45.5417 46.2305 45.9917 48.2305 46.2817C50.2105 46.5617 52.1905 46.6917 54.1405 46.6517C56.0905 46.6117 58.0005 46.4017 59.8005 46.0317C61.6405 45.6517 63.3705 45.1117 64.9605 44.4117C66.5905 43.7017 68.0705 42.8217 69.3705 41.8017C71.3005 40.2817 72.9005 38.2917 74.1405 35.8917C74.7205 34.7617 75.2105 33.5517 75.6105 32.2917C75.9905 31.0617 76.2805 29.7817 76.4705 28.4817C76.8005 26.1917 76.7405 23.1717 76.3205 21.1417C76.2805 20.9217 76.3705 20.6917 76.5705 20.5817C76.8305 20.4317 77.6605 19.6717 78.5305 18.5517C79.2805 17.5817 80.2505 16.0717 80.6405 14.3817C80.8205 13.6117 80.8605 12.8617 80.7605 12.1617C80.6505 11.3817 80.3805 10.6317 79.9305 9.94174C79.4005 9.12174 78.6705 8.46174 77.7605 7.99174C76.8905 7.54174 75.8605 7.26174 74.6905 7.14174C73.5705 7.03174 72.3405 7.08174 71.0305 7.28174C69.7705 7.47174 68.4805 7.81174 67.1805 8.27174C67.0205 8.33174 66.8405 8.30174 66.7005 8.21174C64.9505 6.99174 63.0305 5.97174 61.0005 5.17174C58.9005 4.35174 56.6805 3.76174 54.4105 3.44174C52.2005 3.12174 49.9605 3.05174 47.7805 3.23174C45.6605 3.40174 43.5805 3.81174 41.6005 4.44174C41.4205 4.50174 41.2205 4.45174 41.0705 4.32174C40.7205 3.99174 40.1405 3.49174 39.4005 2.97174C38.5205 2.36174 37.6205 1.88174 36.7305 1.55174C35.7905 1.20174 34.8805 1.03174 34.0105 1.03174" fill="#040000"/>
<path d="M40.1003 29.5011C40.1103 29.6311 40.1403 29.7611 40.1703 29.8811V29.9311L40.2003 29.9711L40.2203 30.0111V30.0611C40.2203 30.0611 40.2503 30.1211 40.2603 30.1511C40.2703 30.1811 40.2803 30.2111 40.3003 30.2411C40.3503 30.3611 40.4103 30.4711 40.4703 30.5811C40.5303 30.6911 40.6003 30.7911 40.6803 30.9011L40.7103 30.9411L40.7403 30.9811L40.8003 31.0511L40.8303 31.0911L40.8603 31.1311L40.8903 31.1711C40.8903 31.1711 40.9103 31.1911 40.9203 31.2011C40.9403 31.2211 40.9603 31.2511 40.9903 31.2711L41.0503 31.3411C41.0503 31.3411 41.0903 31.3911 41.1203 31.4111C41.1403 31.4311 41.1603 31.4511 41.1903 31.4711C41.5503 31.8111 41.9703 32.1111 42.3903 32.3611C42.8103 32.6111 43.2603 32.8411 43.7203 33.0411C44.1803 33.2411 44.6403 33.4111 45.1103 33.5711C45.2303 33.6111 45.3403 33.6511 45.4703 33.6911L45.6503 33.7411L45.8303 33.7911C45.8903 33.8111 45.9503 33.8311 46.0103 33.8411L46.1903 33.8911L46.5503 33.9911C46.6103 34.0011 46.6703 34.0211 46.7303 34.0411L46.9103 34.0911C47.0303 34.1211 47.1503 34.1511 47.2703 34.1811C47.5103 34.2411 47.7503 34.2911 48.0003 34.3511C48.8103 34.5211 49.6303 34.6711 50.4503 34.7911H50.5403C50.6303 34.8211 50.7203 34.8311 50.8203 34.8411C50.8603 34.8411 50.9003 34.8511 50.9403 34.8611C50.9803 34.8611 51.0203 34.8611 51.0603 34.8811H51.1303C51.2103 34.9011 51.3003 34.9111 51.3803 34.9211C51.4603 34.9311 51.5403 34.9411 51.6303 34.9511C51.6703 34.9511 51.7103 34.9511 51.7403 34.9611C51.9603 34.9911 52.1903 35.0111 52.4203 35.0311C52.9103 35.0811 53.4103 35.1111 53.9003 35.1211C54.4003 35.1311 54.8903 35.1211 55.3903 35.0911C55.8903 35.0511 56.3803 35.0011 56.8703 34.9111C57.3603 34.8211 57.8403 34.6911 58.3003 34.5011C58.3603 34.4811 58.4103 34.4511 58.4703 34.4311C58.5303 34.4011 58.5803 34.3811 58.6403 34.3511H58.6603L58.6803 34.3311L58.7203 34.3111C58.7203 34.3111 58.7803 34.2811 58.8003 34.2711C58.8303 34.2511 58.8503 34.2411 58.8803 34.2211C58.9103 34.2111 58.9303 34.1911 58.9603 34.1711L59.0003 34.1511L59.0403 34.1311L59.1203 34.0811L59.1603 34.0511C59.1603 34.0511 59.1903 34.0311 59.2003 34.0211C59.2303 34.0011 59.2503 33.9811 59.2803 33.9711C59.3803 33.9011 59.4803 33.8211 59.5703 33.7411C59.7603 33.5711 59.9303 33.3911 60.0703 33.1811C60.2103 32.9711 60.3303 32.7411 60.3903 32.4911C60.4303 32.3711 60.4503 32.2411 60.4503 32.1111C60.4503 32.0911 60.4503 32.0811 60.4503 32.0611V32.0311V32.0011C60.4503 32.0011 60.4103 31.9211 60.3703 31.8911C60.3403 31.8611 60.2903 31.8411 60.2503 31.8411C60.2103 31.8411 60.1603 31.8411 60.1203 31.8711C60.0803 31.8911 60.0503 31.9211 60.0303 31.9611C60.0303 31.9811 60.0103 32.0011 60.0103 32.0211V32.0611C59.9903 32.1111 59.9703 32.1711 59.9503 32.2311C59.9303 32.2811 59.9103 32.3411 59.8803 32.3911C59.8503 32.4411 59.8203 32.4911 59.7903 32.5411C59.7303 32.6411 59.6503 32.7311 59.5703 32.8211C59.4903 32.9111 59.4003 32.9911 59.3003 33.0611C59.2503 33.1011 59.2003 33.1311 59.1503 33.1711C59.1003 33.2111 59.0503 33.2411 59.0003 33.2711C58.9503 33.3011 58.9003 33.3311 58.8403 33.3611L58.8003 33.3811C58.8003 33.3811 58.7703 33.3911 58.7603 33.4011C58.7303 33.4111 58.7103 33.4311 58.6803 33.4411C58.5703 33.4911 58.4603 33.5411 58.3503 33.5811C58.2903 33.6011 58.2303 33.6211 58.1803 33.6411C58.1203 33.6611 58.0603 33.6811 58.0003 33.7011C57.8803 33.7311 57.7703 33.7611 57.6503 33.7911C57.5303 33.8211 57.4103 33.8411 57.2903 33.8611C57.1703 33.8811 57.0503 33.9011 56.9303 33.9211C56.8103 33.9411 56.6903 33.9511 56.5603 33.9611C56.4403 33.9711 56.3203 33.9811 56.1903 33.9911C56.0703 33.9911 55.9503 34.0011 55.8203 34.0111C55.3303 34.0311 54.8403 34.0111 54.3403 33.9911C53.3603 33.9411 52.3703 33.8211 51.4003 33.6711L51.2203 33.6411L51.0403 33.6111L50.6703 33.5511C50.4303 33.5111 50.1803 33.4711 49.9403 33.4311C49.4503 33.3511 48.9703 33.2611 48.4803 33.1611C48.0003 33.0711 47.5103 32.9611 47.0303 32.8511C46.5503 32.7411 46.0703 32.6211 45.6003 32.4811L45.2503 32.3711L45.0703 32.3211C45.0103 32.3011 44.9503 32.2911 44.8903 32.2711L44.5403 32.1511L44.3603 32.0911L44.2703 32.0611L44.1803 32.0311C43.7203 31.8611 43.2603 31.6711 42.8303 31.4511C42.6103 31.3411 42.4003 31.2211 42.1903 31.0911C42.1403 31.0611 42.0903 31.0311 42.0403 30.9911L41.9703 30.9411C41.9703 30.9411 41.9203 30.9011 41.9003 30.8911C41.8003 30.8211 41.7003 30.7411 41.6103 30.6711C41.5203 30.5911 41.4303 30.5111 41.3503 30.4211L41.3203 30.3911L41.2903 30.3611C41.2903 30.3611 41.2503 30.3211 41.2303 30.2911C41.1903 30.2411 41.1503 30.2011 41.1203 30.1511C41.0803 30.1011 41.0503 30.0611 41.0203 30.0111C41.0003 29.9811 40.9903 29.9611 40.9703 29.9311C40.9703 29.9211 40.9603 29.9111 40.9503 29.8911V29.8711L40.9303 29.8511C40.9303 29.8511 40.9003 29.8011 40.8903 29.7711C40.8903 29.7611 40.8803 29.7411 40.8703 29.7311L40.8503 29.6911L40.8303 29.6611L40.8103 29.6211C40.8103 29.6211 40.7903 29.5611 40.7803 29.5411C40.7403 29.4311 40.7203 29.3111 40.7003 29.2011C40.6903 29.0811 40.6803 28.9711 40.7003 28.8511C40.7003 28.8211 40.7003 28.7911 40.7003 28.7611V28.7111C40.7003 28.7111 40.7003 28.6611 40.7003 28.6311C40.7003 28.5811 40.6703 28.5311 40.6303 28.5011C40.6103 28.4811 40.5903 28.4711 40.5703 28.4511C40.5503 28.4411 40.5303 28.4311 40.5003 28.4211C40.4503 28.4111 40.4003 28.4211 40.3503 28.4311C40.3003 28.4511 40.2603 28.4811 40.2303 28.5211C40.2203 28.5411 40.2003 28.5611 40.2003 28.5911V28.6411C40.2003 28.6411 40.1703 28.7011 40.1603 28.7311C40.1003 28.9811 40.0803 29.2411 40.1003 29.5011M50.7403 34.8211C50.7403 34.8211 50.7103 34.8211 50.7003 34.8211C50.7103 34.8211 50.7303 34.8211 50.7403 34.8211Z" fill="#040000"/>
</svg>
