<svg width="70" height="25" viewBox="0 0 70 25" fill="none" xmlns="http://www.w3.org/2000/svg">
<path d="M11.088 2.928C11.088 2.704 10.948 2.51733 10.668 2.368C10.388 2.2 10.1173 2.116 9.856 2.116L8.204 2.088C7.62533 2.088 7.14 2.06 6.748 2.004C6.356 1.948 6.02933 1.892 5.768 1.836C5.52533 1.78 5.32 1.724 5.152 1.668C5.00267 1.612 4.88133 1.584 4.788 1.584C4.71333 1.584 4.63867 1.612 4.564 1.668C4.48933 1.70533 4.452 1.77067 4.452 1.864C4.452 2.01333 4.54533 2.2 4.732 2.424C4.93733 2.62933 5.16133 2.83467 5.404 3.04C5.64667 3.22667 5.88 3.39467 6.104 3.544C6.328 3.67467 6.47733 3.74 6.552 3.74H9.436C10.5373 3.74 11.088 3.46933 11.088 2.928ZM15.232 4.58C15.232 4.15067 14.9987 3.88 14.532 3.768C14.0653 3.63733 13.2067 3.572 11.956 3.572C11.844 3.572 11.7413 3.61867 11.648 3.712C11.5547 3.78667 11.396 3.88 11.172 3.992C10.9667 4.104 10.668 4.216 10.276 4.328C9.884 4.42133 9.34267 4.47733 8.652 4.496L4.536 4.608C4.424 4.608 4.30267 4.61733 4.172 4.636C4.06 4.636 3.95733 4.636 3.864 4.636C2.65067 4.636 1.81067 4.57067 1.344 4.44C0.877333 4.30933 0.690667 4.244 0.784 4.244C0.746667 4.244 0.662667 4.26267 0.532 4.3C0.401333 4.31867 0.336 4.37467 0.336 4.468C0.336 4.59867 0.466667 4.75733 0.728 4.944C1.008 5.112 1.316 5.28 1.652 5.448C2.00667 5.59733 2.34267 5.728 2.66 5.84C2.97733 5.952 3.17333 6.008 3.248 6.008C3.304 6.008 3.37867 5.98 3.472 5.924C3.56533 5.868 3.71467 5.80267 3.92 5.728C4.12533 5.65333 4.40533 5.588 4.76 5.532C5.11467 5.45733 5.572 5.41067 6.132 5.392L10.724 5.224L13.692 5.196C14.7187 5.196 15.232 4.99067 15.232 4.58ZM17.22 11.972C17.3507 14.324 17.696 15.5 18.256 15.5C18.536 15.5 18.7787 15.36 18.984 15.08C19.208 14.7813 19.3947 14.408 19.544 13.96C19.712 13.512 19.8333 13.0267 19.908 12.504C20.0013 11.9813 20.0573 11.4867 20.076 11.02L20.132 9.368L23.016 9.34C24.1173 9.34 24.668 9.06 24.668 8.5C24.668 8.18267 24.5747 7.94 24.388 7.772C24.22 7.604 23.996 7.48267 23.716 7.408C23.436 7.33333 23.1187 7.296 22.764 7.296C22.428 7.27733 22.1013 7.268 21.784 7.268C21.7467 7.268 21.6813 7.31467 21.588 7.408C21.5133 7.48267 21.4013 7.576 21.252 7.688C21.1213 7.8 20.9533 7.912 20.748 8.024C20.5613 8.136 20.356 8.21067 20.132 8.248V3.208C20.132 3.04 20.1413 2.872 20.16 2.704C20.1973 2.51733 20.2347 2.35867 20.272 2.228C20.328 2.07867 20.3653 1.96667 20.384 1.892C20.4213 1.79867 20.44 1.752 20.44 1.752C20.44 1.56533 20.216 1.37867 19.768 1.192C19.32 1.00533 18.48 0.771999 17.248 0.492C16.9867 0.435999 16.7253 0.389333 16.464 0.352C16.2213 0.314666 15.9787 0.295999 15.736 0.295999C14.84 0.295999 14.392 0.426665 14.392 0.687999C15.1013 1.024 15.652 1.32267 16.044 1.584C16.436 1.82667 16.716 2.05067 16.884 2.256C17.0707 2.46133 17.1733 2.65733 17.192 2.844C17.2293 3.03067 17.248 3.21733 17.248 3.404V9.536C17.248 9.984 17.248 10.376 17.248 10.712C17.248 11.048 17.2573 11.3187 17.276 11.524L16.8 11.608C15.3813 11.9067 14.1027 12.1587 12.964 12.364C11.8253 12.5693 10.8267 12.7467 9.968 12.896V12.532C9.968 12.5133 9.97733 12.4107 9.996 12.224C10.0147 12.0373 10.0427 11.7573 10.08 11.384C10.92 11.1787 11.6013 10.8427 12.124 10.376C12.6653 9.89067 12.936 9.30267 12.936 8.612C12.936 8.14533 12.796 7.72533 12.516 7.352C12.236 6.97867 11.872 6.67067 11.424 6.428C10.976 6.16667 10.4627 5.97067 9.884 5.84C9.324 5.70933 8.764 5.644 8.204 5.644C7.62533 5.644 7.04667 5.70933 6.468 5.84C5.908 5.97067 5.404 6.16667 4.956 6.428C4.508 6.67067 4.144 6.97867 3.864 7.352C3.60267 7.72533 3.472 8.14533 3.472 8.612C3.472 9.396 3.79867 10.04 4.452 10.544C5.124 11.0293 5.936 11.356 6.888 11.524C7.14933 11.748 7.28 12.1773 7.28 12.812V13.26L3.752 13.596C3.60267 13.6147 3.45333 13.624 3.304 13.624C3.17333 13.624 3.03333 13.624 2.884 13.624C2.36133 13.624 1.92267 13.6053 1.568 13.568C1.232 13.512 0.961333 13.484 0.756 13.484C0.532 13.484 0.42 13.568 0.42 13.736C0.42 13.8853 0.541333 14.072 0.784 14.296C1.04533 14.52 1.53067 14.828 2.24 15.22C2.856 15.556 3.35067 15.7987 3.724 15.948C4.116 16.0973 4.424 16.172 4.648 16.172C4.816 16.1533 4.96533 16.06 5.096 15.892C5.22667 15.7053 5.35733 15.584 5.488 15.528C5.45067 15.5467 5.712 15.5187 6.272 15.444C6.85067 15.3507 7.66267 15.1733 8.708 14.912C9.772 14.632 11.0227 14.2587 12.46 13.792C13.916 13.3253 15.5027 12.7187 17.22 11.972ZM10.248 8.612C10.248 8.836 10.192 9.06 10.08 9.284C9.98667 9.508 9.856 9.71333 9.688 9.9C9.52 10.068 9.324 10.2173 9.1 10.348C8.89467 10.4787 8.68 10.5627 8.456 10.6C8.176 10.6 7.896 10.5533 7.616 10.46C7.336 10.348 7.084 10.208 6.86 10.04C6.636 9.85333 6.45867 9.63867 6.328 9.396C6.19733 9.15333 6.132 8.892 6.132 8.612C6.132 8.36933 6.19733 8.136 6.328 7.912C6.45867 7.66933 6.61733 7.45467 6.804 7.268C7.00933 7.08133 7.23333 6.932 7.476 6.82C7.73733 6.68933 7.98 6.624 8.204 6.624C8.44667 6.624 8.68933 6.68933 8.932 6.82C9.17467 6.932 9.38933 7.09067 9.576 7.296C9.78133 7.48267 9.94 7.69733 10.052 7.94C10.1827 8.164 10.248 8.388 10.248 8.612ZM19.936 19.644C19.936 18.9533 19.7587 18.3467 19.404 17.824C19.0493 17.2827 18.5733 16.8253 17.976 16.452C17.3973 16.0787 16.7253 15.7987 15.96 15.612C15.1947 15.4067 14.392 15.304 13.552 15.304C12.7307 15.304 11.9373 15.4067 11.172 15.612C10.4067 15.7987 9.72533 16.0787 9.128 16.452C8.54933 16.8067 8.07333 17.2547 7.7 17.796C7.34533 18.3373 7.168 18.9533 7.168 19.644C7.168 20.316 7.34533 20.9227 7.7 21.464C8.07333 21.9867 8.55867 22.4347 9.156 22.808C9.75333 23.1813 10.4347 23.4613 11.2 23.648C11.9653 23.8533 12.7493 23.956 13.552 23.956C14.3547 23.956 15.1387 23.8533 15.904 23.648C16.688 23.4613 17.3693 23.1813 17.948 22.808C18.5453 22.4533 19.0213 22.0147 19.376 21.492C19.7493 20.9507 19.936 20.3347 19.936 19.644ZM16.856 19.644C16.856 20.0547 16.7627 20.4467 16.576 20.82C16.408 21.1933 16.1653 21.5293 15.848 21.828C15.5493 22.108 15.204 22.332 14.812 22.5C14.42 22.668 14 22.752 13.552 22.752C13.104 22.752 12.6747 22.668 12.264 22.5C11.872 22.332 11.5267 22.108 11.228 21.828C10.9293 21.5293 10.6867 21.1933 10.5 20.82C10.332 20.4467 10.248 20.0547 10.248 19.644C10.248 19.2147 10.332 18.804 10.5 18.412C10.6867 18.0013 10.9293 17.6467 11.228 17.348C11.5267 17.0307 11.872 16.7787 12.264 16.592C12.6747 16.4053 13.104 16.312 13.552 16.312C14 16.312 14.42 16.4053 14.812 16.592C15.2227 16.7787 15.5773 17.0307 15.876 17.348C16.1747 17.6467 16.408 18.0013 16.576 18.412C16.7627 18.804 16.856 19.2147 16.856 19.644ZM45.0087 3.824C45.0087 3.33867 44.7101 3.04 44.1127 2.928C43.5341 2.79733 42.6101 2.732 41.3407 2.732C41.2287 2.732 41.1541 2.77867 41.1167 2.872C41.0981 2.94667 41.0514 3.04 40.9767 3.152C40.9021 3.24533 40.7714 3.33867 40.5847 3.432C40.3981 3.52533 40.0994 3.58133 39.6887 3.6L32.2687 3.908C32.1007 3.908 31.9327 3.91733 31.7647 3.936C31.5967 3.936 31.4381 3.936 31.2887 3.936C30.1501 3.936 29.3847 3.88933 28.9927 3.796C28.6007 3.684 28.4514 3.628 28.5447 3.628C28.5261 3.628 28.4421 3.64667 28.2927 3.684C28.1434 3.72133 28.0687 3.78667 28.0687 3.88C28.0687 4.02933 28.2274 4.216 28.5447 4.44C28.8621 4.64533 29.2167 4.86 29.6087 5.084C30.0194 5.28933 30.4021 5.46667 30.7567 5.616C31.1114 5.76533 31.3354 5.84 31.4287 5.84C31.4661 5.84 31.5407 5.79333 31.6527 5.7C31.7647 5.60667 31.9327 5.504 32.1567 5.392C32.3994 5.26133 32.7261 5.14933 33.1367 5.056C33.5661 4.944 34.1074 4.86933 34.7607 4.832L40.8927 4.608C40.8927 6.97867 40.4821 9.44267 39.6607 12C39.6234 12.0747 39.6047 12.1587 39.6047 12.252C39.6047 12.42 39.7261 12.504 39.9687 12.504C40.3047 12.4853 40.6501 12.2893 41.0047 11.916C41.3781 11.524 41.7234 11.076 42.0407 10.572C42.3581 10.068 42.6381 9.564 42.8807 9.06C43.1234 8.556 43.3007 8.17333 43.4127 7.912C43.6554 7.31467 43.8141 6.82933 43.8887 6.456C43.9821 6.064 44.0474 5.74667 44.0847 5.504C44.1407 5.26133 44.1967 5.06533 44.2527 4.916C44.3087 4.76667 44.4301 4.61733 44.6167 4.468C44.8781 4.26267 45.0087 4.048 45.0087 3.824ZM34.2847 17.824V14.408C35.5727 14.352 36.2634 14.324 36.3567 14.324L38.6527 14.24V18.384V20.736L38.7647 22.5C38.8021 23.172 38.9047 23.648 39.0727 23.928C39.2407 24.208 39.4367 24.348 39.6607 24.348C39.9407 24.348 40.1834 24.1893 40.3887 23.872C40.6127 23.5733 40.7994 23.1907 40.9487 22.724C41.1167 22.276 41.2381 21.7813 41.3127 21.24C41.4061 20.6987 41.4621 20.1853 41.4807 19.7L41.5367 18.132V14.156H46.8567H47.3327C47.4261 14.156 47.5381 14.1373 47.6687 14.1C47.8181 14.044 47.9487 13.9787 48.0607 13.904C48.1914 13.8107 48.3034 13.708 48.3967 13.596C48.4901 13.484 48.5367 13.3627 48.5367 13.232C48.5367 12.9333 48.4154 12.7 48.1727 12.532C47.9487 12.3453 47.6407 12.2053 47.2487 12.112C46.8567 12.0187 46.3994 11.9627 45.8767 11.944C45.3727 11.9253 44.8314 11.916 44.2527 11.916C44.1407 11.916 44.0381 11.9813 43.9447 12.112C43.8701 12.224 43.7021 12.3547 43.4407 12.504C43.1981 12.6533 42.8154 12.7933 42.2927 12.924C41.7887 13.0547 41.0701 13.1293 40.1367 13.148L28.5447 13.54C28.4327 13.54 28.3207 13.5493 28.2087 13.568C28.1154 13.568 28.0221 13.568 27.9287 13.568C26.8647 13.568 26.0621 13.5027 25.5207 13.372C24.9981 13.2227 24.6154 13.148 24.3727 13.148C24.2794 13.148 24.1861 13.1667 24.0927 13.204C24.0181 13.2413 23.9807 13.2973 23.9807 13.372C23.9807 13.484 24.1487 13.6613 24.4847 13.904C24.8207 14.1467 25.2034 14.3893 25.6327 14.632C26.0807 14.856 26.5007 15.0613 26.8927 15.248C27.3034 15.416 27.5647 15.5 27.6767 15.5C27.7327 15.5 27.8074 15.472 27.9007 15.416C28.0127 15.36 28.1994 15.2947 28.4607 15.22C28.7221 15.1267 29.0861 15.0333 29.5527 14.94C30.0194 14.828 30.6541 14.7253 31.4567 14.632V18.076V20.4C31.5314 21.6693 31.6154 22.584 31.7087 23.144C31.8207 23.704 32.0634 23.984 32.4367 23.984C32.7167 23.984 32.9594 23.8347 33.1647 23.536C33.3701 23.2373 33.5474 22.8547 33.6967 22.388C33.8647 21.9213 33.9861 21.4267 34.0607 20.904C34.1541 20.3627 34.2101 19.8493 34.2287 19.364L34.2847 17.824ZM61.3734 10.684C61.8774 11.02 62.2414 11.188 62.4654 11.188C62.5214 11.188 62.7081 11.1133 63.0254 10.964C63.3614 10.796 63.8561 10.6747 64.5094 10.6L65.7414 10.46C65.8161 13.148 66.1614 14.492 66.7774 14.492C67.0574 14.492 67.3001 14.352 67.5054 14.072C67.7294 13.7733 67.9161 13.4093 68.0654 12.98C68.2148 12.5507 68.3268 12.084 68.4014 11.58C68.4948 11.076 68.5508 10.6093 68.5694 10.18L68.6254 8.724V3.208C68.6254 2.85333 68.6721 2.51733 68.7654 2.2C68.8214 2.032 68.8774 1.87333 68.9334 1.724C68.9334 1.53733 68.7001 1.36 68.2334 1.192C67.7854 1.024 66.9548 0.790666 65.7414 0.492C65.4801 0.435999 65.2281 0.389333 64.9854 0.352C64.7428 0.314666 64.5001 0.295999 64.2574 0.295999C63.3241 0.295999 62.8574 0.426665 62.8574 0.687999C63.5854 1.04267 64.1361 1.35067 64.5094 1.612C64.9014 1.85467 65.1908 2.07867 65.3774 2.284C65.5641 2.48933 65.6668 2.68533 65.6854 2.872C65.7228 3.04 65.7414 3.21733 65.7414 3.404V5.448L62.4654 5.616C62.4281 5.616 62.3908 5.62533 62.3534 5.644C62.3348 5.644 62.3068 5.644 62.2694 5.644C62.1761 5.644 62.0828 5.644 61.9894 5.644C61.8961 5.62533 61.7934 5.60667 61.6814 5.588C61.4201 5.12133 61.0934 4.70133 60.7014 4.328C60.3094 3.95467 59.8708 3.63733 59.3854 3.376C58.9001 3.11467 58.3681 2.90933 57.7894 2.76C57.2294 2.61067 56.6601 2.536 56.0814 2.536C55.2788 2.536 54.5041 2.66666 53.7574 2.928C53.0108 3.18933 52.3481 3.55333 51.7694 4.02C51.2094 4.48667 50.7521 5.04667 50.3974 5.7C50.0614 6.35333 49.8934 7.08133 49.8934 7.884C49.8934 8.68667 50.0614 9.41467 50.3974 10.068C50.7334 10.7213 51.1814 11.2813 51.7414 11.748C52.3201 12.2147 52.9828 12.5787 53.7294 12.84C54.4948 13.1013 55.2881 13.232 56.1094 13.232C57.1921 13.232 58.2001 13.008 59.1334 12.56C60.0854 12.112 60.8321 11.4867 61.3734 10.684ZM62.2414 7.884C62.2414 7.56667 62.2134 7.268 62.1574 6.988C62.2881 7.044 62.3908 7.072 62.4654 7.072C62.5214 7.072 62.7081 6.988 63.0254 6.82C63.3614 6.652 63.8561 6.53067 64.5094 6.456L65.7414 6.316V9.592L62.4654 9.732C62.3908 9.75067 62.2881 9.76 62.1574 9.76C62.0268 9.76 61.9334 9.75067 61.8774 9.732C62.1201 9.228 62.2414 8.612 62.2414 7.884ZM59.1614 7.884C59.1428 8.36933 59.0588 8.85467 58.9094 9.34C58.7601 9.80667 58.5454 10.2267 58.2654 10.6C58.0041 10.9547 57.6774 11.244 57.2854 11.468C56.9121 11.692 56.5014 11.804 56.0534 11.804C55.5681 11.804 55.1388 11.7013 54.7654 11.496C54.3921 11.2907 54.0654 11.0107 53.7854 10.656C53.5241 10.2827 53.3188 9.86267 53.1694 9.396C53.0388 8.92933 52.9734 8.42533 52.9734 7.884C52.9734 7.36133 53.0388 6.848 53.1694 6.344C53.3001 5.84 53.4961 5.40133 53.7574 5.028C54.0188 4.65467 54.3361 4.356 54.7094 4.132C55.1014 3.88933 55.5401 3.768 56.0254 3.768C56.4921 3.768 56.9214 3.88933 57.3134 4.132C57.7054 4.356 58.0321 4.664 58.2934 5.056C58.5734 5.448 58.7881 5.896 58.9374 6.4C59.0868 6.88533 59.1614 7.38 59.1614 7.884ZM69.8574 21.688C69.8574 21.3707 69.7641 21.1187 69.5774 20.932C69.4094 20.7453 69.1574 20.6053 68.8214 20.512C68.4854 20.4187 68.0748 20.3627 67.5894 20.344C67.1041 20.3067 66.5628 20.288 65.9654 20.288H65.7414C65.6294 20.288 65.5174 20.3627 65.4054 20.512C65.3121 20.6427 65.1254 20.792 64.8454 20.96C64.5654 21.128 64.1454 21.2867 63.5854 21.436C63.0441 21.5853 62.2694 21.6693 61.2614 21.688L59.4134 21.716H59.3294C59.1054 21.716 58.9934 21.5853 58.9934 21.324V17.6C58.9934 17.4693 59.0028 17.3107 59.0214 17.124C59.0588 16.9373 59.0774 16.7507 59.0774 16.564C59.0774 16.4333 59.0494 16.312 58.9934 16.2C58.9561 16.088 58.7974 15.9947 58.5174 15.92C58.2374 15.8453 57.7988 15.7893 57.2014 15.752C56.6228 15.7147 55.7921 15.696 54.7094 15.696C53.5521 15.696 52.9734 15.836 52.9734 16.116C53.7014 16.34 54.2521 16.536 54.6254 16.704C55.0174 16.8533 55.2974 17.0027 55.4654 17.152C55.6521 17.3013 55.7641 17.46 55.8014 17.628C55.8388 17.7773 55.8574 17.964 55.8574 18.188V21.492C55.8574 21.716 55.9228 21.912 56.0534 22.08C56.2028 22.2293 56.3894 22.36 56.6134 22.472C56.8374 22.5653 57.0708 22.64 57.3134 22.696C57.5748 22.752 57.8174 22.78 58.0414 22.78L58.7414 22.808H64.0894L68.2054 22.584C69.3068 22.584 69.8574 22.2853 69.8574 21.688Z" fill="white"/>
</svg>
