<svg width="36" height="36" viewBox="0 0 36 36" fill="none" xmlns="http://www.w3.org/2000/svg">
<path d="M18 36C27.9411 36 36 27.9411 36 18C36 8.05887 27.9411 0 18 0C8.05887 0 0 8.05887 0 18C0 27.9411 8.05887 36 18 36Z" fill="#E9F3FD"/>
<path d="M25.938 13.9999H27C27.5304 13.9999 28.0391 14.2106 28.4142 14.5857C28.7893 14.9608 29 15.4695 29 15.9999V19.9999C29 20.5303 28.7893 21.039 28.4142 21.4141C28.0391 21.7892 27.5304 21.9999 27 21.9999H25.938C25.6942 23.9332 24.7533 25.7111 23.2917 26.9999C21.8302 28.2887 19.9486 28.9999 18 28.9999V26.9999C19.5913 26.9999 21.1174 26.3678 22.2426 25.2425C23.3679 24.1173 24 22.5912 24 20.9999V14.9999C24 13.4086 23.3679 11.8825 22.2426 10.7573C21.1174 9.63201 19.5913 8.9999 18 8.9999C16.4087 8.9999 14.8826 9.63201 13.7574 10.7573C12.6321 11.8825 12 13.4086 12 14.9999V21.9999H9C8.46957 21.9999 7.96086 21.7892 7.58579 21.4141C7.21071 21.039 7 20.5303 7 19.9999V15.9999C7 15.4695 7.21071 14.9608 7.58579 14.5857C7.96086 14.2106 8.46957 13.9999 9 13.9999H10.062C10.306 12.0668 11.2471 10.2892 12.7086 9.00058C14.1701 7.71198 16.0516 7.00098 18 7.00098C19.9484 7.00098 21.8299 7.71198 23.2914 9.00058C24.7529 10.2892 25.694 12.0668 25.938 13.9999ZM9 15.9999V19.9999H10V15.9999H9ZM26 15.9999V19.9999H27V15.9999H26ZM13.76 21.7849L14.82 20.0889C15.7731 20.6859 16.8754 21.0017 18 20.9999C19.1246 21.0017 20.2269 20.6859 21.18 20.0889L22.24 21.7849C20.9693 22.581 19.4995 23.0022 18 22.9999C16.5005 23.0022 15.0307 22.581 13.76 21.7849Z" fill="#3480CD"/>
</svg>
