<svg width="44" height="44" viewBox="0 0 44 44" fill="none" xmlns="http://www.w3.org/2000/svg">
<g clip-path="url(#clip0)">
<path d="M8.82237 9.04199C8.82119 8.02578 9.56176 6.9538 11.0118 6.11664C13.6606 4.58737 17.6675 4.42125 19.9615 5.74569C20.9896 6.33929 21.4975 7.1316 21.5083 7.96287H21.5087V9.2244V9.28067V10.5422L21.5071 10.5423C21.5074 10.5507 21.5065 10.5592 21.5066 10.5676L21.5087 10.5674V11.7885V11.8852V13.1063L21.5071 13.1064C21.5074 13.1148 21.5065 13.1233 21.5066 13.1317L21.5087 13.1315V14.4493L21.5071 14.4495C21.5077 14.4696 21.506 14.4901 21.5059 14.5103L21.5087 14.51V15.8278L21.5071 15.8279C21.5358 16.8603 20.7951 17.956 19.3189 18.8082C16.67 20.3375 12.6631 20.5036 10.3692 19.1792C9.30544 18.565 8.80389 17.7376 8.8285 16.8749L8.82942 15.5885C8.82892 15.5578 8.82766 15.5272 8.8285 15.4964L8.82909 14.2101C8.82909 14.1912 8.82799 14.1723 8.8285 14.1534L8.82808 12.8671L8.829 11.6459C8.829 11.627 8.82791 11.6082 8.82841 11.5892L8.8206 10.3284H8.82043V9.04207L8.82237 9.04199Z" fill="#DCA700"/>
<path d="M10.3692 13.8931C12.6631 15.2175 16.67 15.0514 19.3189 13.5221C20.7831 12.6768 21.5226 11.5921 21.5066 10.5671L21.5087 10.5669V11.8847L21.5071 11.8848C21.5358 12.9172 20.7951 14.0129 19.3189 14.8651C16.67 16.3943 12.6631 16.5604 10.3692 15.236C9.30545 14.6218 8.80389 13.7945 8.8285 12.9317L8.82909 11.6457C8.82774 12.4879 9.32888 13.2924 10.3692 13.8931Z" fill="#CC8200"/>
<path d="M10.3692 16.457C12.6631 17.7814 16.67 17.6153 19.3189 16.086C20.7831 15.2407 21.5226 14.156 21.5066 13.131L21.5087 13.1309V14.4487L21.5071 14.4488C21.5358 15.4812 20.7951 16.5769 19.3189 17.4292C16.67 18.9584 12.6631 19.1246 10.3692 17.8001C9.30545 17.186 8.80389 16.3586 8.8285 15.4959L8.82909 14.2099C8.82774 15.0518 9.32888 15.8564 10.3692 16.457Z" fill="#CC8200"/>
<path d="M11.0118 6.11664C8.36292 7.64592 8.07527 9.95935 10.3692 11.2838C12.6632 12.6082 16.6701 12.4421 19.3189 10.9128C21.9677 9.38355 22.2554 7.07012 19.9615 5.74569C17.6675 4.42125 13.6607 4.58737 11.0118 6.11664Z" fill="#DCA700"/>
<path d="M21.5083 7.96216C21.5217 8.98568 20.7806 10.0682 19.3189 10.9121C16.6701 12.4414 12.6632 12.6075 10.3692 11.2831C9.33101 10.6836 8.82341 9.88146 8.8224 9.04127L8.82056 9.04144V10.3277C8.82056 10.3277 8.85994 11.7391 10.3692 12.6313C12.6494 13.9793 16.6701 13.7896 19.3189 12.2603C20.795 11.408 21.5357 10.3124 21.5071 9.27996L21.5087 9.27987V7.96216H21.5083V7.96216Z" fill="#CC8200"/>
<path d="M11.7495 6.54239C9.57116 7.80006 9.33458 9.70264 11.2211 10.7918C13.1077 11.881 16.403 11.7444 18.5813 10.4867C20.7597 9.22905 20.9963 7.32656 19.1098 6.23728C17.2232 5.14809 13.9279 5.28465 11.7495 6.54239Z" fill="#FFD800"/>
<path d="M44 16.0913V21.6368L15.3334 38.149L1 29.8836V24.3666L29.6666 7.81592L44 16.0913Z" fill="#007A6E"/>
<path d="M44 16.0911V21.6366L15.3334 38.1487V32.6515L44 16.0911Z" fill="#009F5E"/>
<path d="M15.3332 33.7527L44.0004 17.1958V18.301L15.3332 34.8631L1.02063 26.5997V25.4945L15.3332 33.7527Z" fill="#00917F"/>
<path d="M15.3381 35.9535L44 19.4055V20.5107L15.3381 37.0636L1 28.7966V27.6926L15.3381 35.9535Z" fill="#00917F"/>
<path d="M44 17.1958V18.301L15.3328 34.8631V33.7527L44 17.1958Z" fill="#00AC65"/>
<path d="M44 19.4055V20.5107L15.3381 37.0636V35.9535L44 19.4055Z" fill="#00AC65"/>
<path d="M6.25028 27.4015L1 24.3666L29.6666 7.81592L44 16.0913L15.3334 32.6518L6.25028 27.4015Z" fill="#00C169"/>
<path d="M3.74219 24.3696L15.3487 31.0576L41.2702 16.0905L29.6682 9.39771L3.74219 24.3696Z" fill="#FFE6C6"/>
<path d="M38.5645 16.0907L29.6777 10.96L6.50073 24.3698L15.3638 29.4758L38.5645 16.0907Z" fill="#00AC65"/>
<path d="M20.1111 13.3323L34.4444 21.6109V27.1403L24.9087 32.63V27.1196L10.5636 18.8445L20.1111 13.3323Z" fill="#E5AC91"/>
<path d="M20.1111 13.3323L34.4444 21.6109L24.9087 27.1196L10.5636 18.8445L20.1111 13.3323Z" fill="#FFD6A0"/>
<path d="M24.9087 27.1193V32.6297L34.4444 27.14V21.6106L24.9087 27.1193Z" fill="#E5AC91"/>
<path d="M11.8446 18.1053L18.8422 14.0652L33.171 22.3431L26.1849 26.3808L11.8446 18.1053Z" fill="#FFE6C6"/>
<path d="M33.171 22.3428V27.8738L26.1844 31.8981L26.185 26.3804L33.171 22.3428Z" fill="#FFCBA1"/>
<path d="M28.5821 11.7401C29.4024 12.2136 30.6432 12.265 31.3536 11.8549C32.064 11.4449 31.9749 10.7284 31.1547 10.2548C30.3344 9.78121 29.0936 9.72981 28.3832 10.1399C27.6727 10.5501 27.7619 11.2665 28.5821 11.7401Z" fill="#FFE6C6"/>
<path d="M29.3912 15.8731C29.8663 16.1473 30.5849 16.1772 30.9964 15.9396C31.4078 15.7021 31.3562 15.2871 30.8811 15.0128C30.406 14.7385 29.6874 14.7087 29.2759 14.9463C28.8645 15.1838 28.9161 15.5987 29.3912 15.8731Z" fill="#FFE6C6"/>
<path d="M13.4809 25.04C13.956 25.3143 14.6747 25.3442 15.0861 25.1066C15.4976 24.8691 15.446 24.4541 14.9709 24.1798C14.4958 23.9055 13.7771 23.8757 13.3657 24.1133C12.9542 24.3508 13.0058 24.7658 13.4809 25.04Z" fill="#FFE6C6"/>
<path d="M5.31162 25.1933C6.1319 25.6669 7.37269 25.7183 8.08311 25.3082C8.79345 24.8981 8.70434 24.1817 7.88415 23.7082C7.06388 23.2346 5.82309 23.1832 5.11267 23.5933C4.40224 24.0034 4.49135 24.7198 5.31162 25.1933Z" fill="#FFE6C6"/>
<path d="M37.193 16.7219C38.0132 17.1955 39.254 17.2469 39.9645 16.8368C40.6748 16.4267 40.5858 15.7102 39.7655 15.2367C38.9452 14.7631 37.7044 14.7117 36.994 15.1218C36.2836 15.5319 36.3727 16.2483 37.193 16.7219Z" fill="#FFE6C6"/>
<path d="M13.8791 30.1794C14.6994 30.653 15.9402 30.7044 16.6506 30.2943C17.3609 29.8842 17.2719 29.1678 16.4516 28.6942C15.6313 28.2207 14.3906 28.1693 13.6801 28.5794C12.9698 28.9894 13.0588 29.7058 13.8791 30.1794Z" fill="#FFE6C6"/>
<path d="M30.1362 22.4966L18.5275 15.7993L17.2872 16.515L28.8959 23.2266L30.1362 22.4966Z" fill="#E6C190"/>
<path d="M26.2594 23.1592L17.3935 18.0388L16.1604 18.7547L25.0263 23.8662L26.2594 23.1592Z" fill="#E6C190"/>
</g>
<defs>
<clipPath id="clip0">
<rect width="43" height="43" fill="white" transform="translate(1)"/>
</clipPath>
</defs>
</svg>
