<svg width="44" height="44" viewBox="0 0 44 44" fill="none" xmlns="http://www.w3.org/2000/svg">
<path d="M8 8.40845H35.2886V39.7502H8V8.40845Z" fill="#FFCE00"/>
<path d="M21.6443 8.40845H35.2886V39.7502H21.6443V8.40845Z" fill="#FDBA12"/>
<path d="M11.1523 11.5029H32.1363V36.656H11.1523V11.5029Z" fill="white"/>
<path d="M24.7776 7.4885V4H18.5109V7.4885H14.1824V12.5608H29.1061V7.4885H24.7776Z" fill="#414952"/>
<path d="M29.1061 7.4885H24.7776V4H21.6443V12.5608H29.1061V7.4885Z" fill="#23272B"/>
<path d="M21.6444 14.5149C17.1277 14.5149 13.4531 17.972 13.4531 22.2212C13.4531 26.4705 17.1277 29.9275 21.6444 29.9275C26.1611 29.9275 29.8357 26.4704 29.8357 22.2212C29.8357 17.9721 26.1611 14.5149 21.6444 14.5149ZM21.6444 17.4835C22.4588 17.4835 23.2285 17.6664 23.9099 17.9907L17.1476 24.3526C16.8029 23.7116 16.6086 22.9873 16.6086 22.2212C16.6086 19.6089 18.8676 17.4835 21.6444 17.4835ZM21.6444 26.959C20.83 26.959 20.0602 26.7761 19.3788 26.4518L26.1411 20.0899C26.4858 20.7309 26.6802 21.4551 26.6802 22.2213C26.6803 24.8336 24.4212 26.959 21.6444 26.959Z" fill="#3480CD"/>
<path d="M21.6441 14.5149V17.4835C22.4586 17.4835 23.2283 17.6664 23.9097 17.9907L21.6441 20.1222V24.3204L26.1409 20.0899C26.4856 20.731 26.6799 21.4552 26.6799 22.2214C26.6799 24.8338 24.4208 26.9591 21.644 26.9591V29.9277C26.1608 29.9277 29.8354 26.4706 29.8354 22.2214C29.8354 17.9722 26.1609 14.5149 21.6441 14.5149Z" fill="#3480CD"/>
<path d="M15.0308 31.8967H28.2579V34.865H15.0308V31.8967Z" fill="#636978"/>
<path d="M21.6443 31.8967H28.2579V34.865H21.6443V31.8967Z" fill="#414952"/>
</svg>
