<svg width="44" height="44" viewBox="0 0 44 44" fill="none" xmlns="http://www.w3.org/2000/svg">
<path d="M33.3629 37.7855L30.9062 38.5544L28.7836 39.2186H17.6352L15.4688 32.297L8.34375 9.53113L15.4688 7.30086L23.0762 4.91992L30.9062 29.9368L33.3629 37.7855Z" fill="#379A6B"/>
<path d="M28.1549 35.0605L28.6869 36.7604L21.8872 38.8886L21.3551 37.1887L19.6552 37.7207L11.8518 12.7884L13.5517 12.2564L13.0197 10.5564L19.8194 8.42822L20.3515 10.1281L22.0514 9.59605L29.8548 34.5284L28.1549 35.0605Z" fill="#44C086"/>
<path d="M15.4688 4.78125H30.9062V39.2188H15.4688V4.78125Z" fill="#3BA673"/>
<path d="M26.75 35.0625V36.8438H19.625V35.0625H17.8438V8.9375H19.625V7.15625H26.75V8.9375H28.5312V35.0625H26.75Z" fill="#44C086"/>
<path d="M23.1875 24.9688C24.8271 24.9688 26.1562 23.6396 26.1562 22C26.1562 20.3604 24.8271 19.0312 23.1875 19.0312C21.5479 19.0312 20.2188 20.3604 20.2188 22C20.2188 23.6396 21.5479 24.9688 23.1875 24.9688Z" fill="#1A6943"/>
<path d="M35.6563 24.9688V39.2188H31.5001C29.9254 39.2188 28.4151 38.5932 27.3016 37.4797C26.1882 36.3662 25.5626 34.856 25.5626 33.2812H25.5745L20.7225 26.5809C20.3699 26.059 20.239 25.4183 20.3587 24.7999C20.4784 24.1815 20.8389 23.636 21.3608 23.2833C21.8827 22.9307 22.5234 22.7998 23.1418 22.9195C23.7602 23.0392 24.3057 23.3997 24.6583 23.9216L29.1251 29.7188H30.9063V15.4688L35.3769 23.8511C35.5604 24.1951 35.6563 24.5789 35.6563 24.9688Z" fill="#F5CBAA"/>
</svg>
