<svg width="44" height="44" viewBox="0 0 44 44" fill="none" xmlns="http://www.w3.org/2000/svg">
<g clip-path="url(#clip0)">
<path d="M20.9342 3C19.6997 3 18.6989 4.00082 18.6989 5.23529V7.47059L16.4636 5.23529C15.2291 5.23529 14.2283 6.23611 14.2283 7.47059V24.2353L13.2967 24.2351L11.2198 21.7428C9.93223 20.1977 7.52042 20.3265 6.40479 22C7.4018 23.912 9.06844 26.1951 9.98774 29.8049C10.3192 31.1062 10.9932 32.2707 11.9081 33.1967C13.3779 34.6843 14.2283 36.6735 14.2283 38.7647L17.5813 39.8824L20.9342 38.7647L21.8283 24.5085L20.9342 3Z" fill="#FFDDCE"/>
<path d="M29.8754 9.70588L27.6401 11.9412V7.47059C27.6401 6.23611 26.6393 5.23529 25.4048 5.23529L23.1695 7.47059V5.23529C23.1695 4.00082 22.1687 3 20.9342 3V38.7647L24.2871 39.8824L27.6401 38.7647C27.6416 38.7572 27.4428 35.7446 29.9603 33.1967C31.2899 31.8511 32.1107 30.0019 32.1107 27.9608C32.1107 27.1453 32.1107 12.5245 32.1107 11.9412C32.1107 10.7067 31.1098 9.70588 29.8754 9.70588Z" fill="#FFBDA9"/>
<path d="M18.6989 22V7.47064C18.6989 6.23617 17.6981 5.23535 16.4636 5.23535V22H18.6989Z" fill="#FFBDA9"/>
<path d="M23.1696 7.47065V21.5033H25.4049V5.23535C24.1702 5.23535 23.1696 6.23617 23.1696 7.47065Z" fill="#E19B85"/>
<path d="M27.6401 11.9411V21.9999H29.8754V9.70581C28.6408 9.70581 27.6401 10.7066 27.6401 11.9411Z" fill="#E19B85"/>
<path d="M14.2284 38.7646V41H20.9343L21.8284 39.8823L20.9343 38.7646H14.2284Z" fill="#FF3F5C"/>
<path d="M20.9342 38.7646H27.6402V41H20.9342V38.7646Z" fill="#CA2E43"/>
<path d="M7.74594 36.1409C7.3095 36.5774 7.3095 37.285 7.74594 37.7215V37.7215C8.18238 38.1579 8.89 38.1579 9.32644 37.7215L20.9342 26.1138L21.8283 23.7136L20.9342 22.9526L7.74594 36.1409Z" fill="#FF3F5C"/>
<path d="M36.8047 8.66279C36.3683 8.22635 35.6606 8.22636 35.2242 8.66281L20.9342 22.9528V26.114L36.8047 10.2433C37.2412 9.80689 37.2412 9.09924 36.8047 8.66279V8.66279Z" fill="#CA2E43"/>
</g>
<defs>
<clipPath id="clip0">
<rect width="38" height="38" fill="white" transform="translate(3 3)"/>
</clipPath>
</defs>
</svg>
