<svg width="44" height="44" viewBox="0 0 44 44" fill="none" xmlns="http://www.w3.org/2000/svg">
<g clip-path="url(#clip0)">
<path d="M29.8232 7.00819C29.3868 7.44465 29.3872 8.1518 29.8237 8.58825V8.58825C30.2602 9.02474 30.9674 9.02524 31.4038 8.58876C32.1204 7.87218 33.1382 6.85437 33.855 6.13752C34.2915 5.70103 34.2911 4.99376 33.8546 4.55726V4.55726C33.4181 4.12081 32.7111 4.12035 32.2746 4.55679C31.558 5.27339 30.5401 6.2913 29.8232 7.00819Z" fill="#DFE7F4"/>
<path d="M10.1447 6.13856C9.70827 5.70216 9.70827 4.99461 10.1447 4.55821V4.55821C10.5811 4.12181 11.2886 4.12181 11.725 4.55821L14.175 7.00818C14.6114 7.44458 14.6114 8.15213 14.175 8.58853V8.58853C13.7386 9.02494 13.031 9.02494 12.5946 8.58853L10.1447 6.13856Z" fill="#DFE7F4"/>
<path d="M29.2647 23.6763C28.8282 24.1128 28.8282 24.8204 29.2647 25.2568L32.2738 28.266C32.7103 28.7025 33.4179 28.7025 33.8544 28.266V28.266C34.2908 27.8295 34.292 27.123 33.8555 26.6866C33.0006 25.8317 31.6994 24.5304 30.8441 23.6752C30.4077 23.2387 29.7011 23.2399 29.2647 23.6763V23.6763Z" fill="#DFE7F4"/>
<path d="M32.0588 16.4118C32.0588 17.0291 32.5592 17.5295 33.1765 17.5295H37.6471C38.2643 17.5295 38.7647 17.0291 38.7647 16.4118V16.4118C38.7647 15.7946 38.2657 15.2942 37.6484 15.2942C36.388 15.2942 34.4361 15.2942 33.1752 15.2942C32.5579 15.2942 32.0588 15.7946 32.0588 16.4118V16.4118Z" fill="#DFE7F4"/>
<path d="M5.23535 16.4118C5.23535 15.7946 5.73574 15.2942 6.353 15.2942H9.70594C10.3232 15.2942 10.8236 15.7946 10.8236 16.4118V16.4118C10.8236 17.0291 10.3232 17.5295 9.70594 17.5295H6.353C5.73574 17.5295 5.23535 17.0291 5.23535 16.4118V16.4118Z" fill="#DFE7F4"/>
<path d="M10.1425 28.2645C9.70607 27.8281 9.70607 27.1206 10.1425 26.6842L13.1511 23.6755C13.5875 23.2391 14.2951 23.2391 14.7315 23.6755V23.6755C15.1679 24.1119 15.1679 24.8195 14.7315 25.2559L11.7228 28.2645C11.2864 28.7009 10.5789 28.7009 10.1425 28.2645V28.2645Z" fill="#DFE7F4"/>
<path d="M9.70581 15.2941C9.70581 20.0189 12.3828 24.188 16.4117 26.2477V30.9412L19.2058 32.0588L21.9999 30.9412L23.1176 19.2059L21.9999 3C15.2102 3 9.70581 8.50411 9.70581 15.2941V15.2941Z" fill="#FFD453"/>
<path d="M27.5882 26.2477C31.6141 24.1896 34.2941 20.0223 34.2941 15.2941C34.2941 8.50441 28.7901 3 22 3V30.9412L24.7941 32.0588L27.5882 30.9412V26.2477Z" fill="#FEBF01"/>
<path d="M18.647 35.4118V41.0001H21.9999L23.1176 38.206L21.9999 35.4118L20.3234 34.2942L18.647 35.4118Z" fill="#152659"/>
<path d="M25.3529 35.4118L23.6765 34.2942L22 35.4118V41.0001H25.3529C25.3529 39.4954 25.3529 36.2884 25.3529 35.4118Z" fill="#1F3259"/>
<path d="M22.7671 22.8863L21.9999 14.1765C20.1511 14.1765 18.647 15.6806 18.647 17.5295C18.647 18.9891 19.5822 20.229 20.8823 20.6902V30.9412L21.4411 31.6677L21.9999 30.9412L22.7671 22.8863Z" fill="white"/>
<path d="M25.3529 17.5295C25.3529 15.6806 23.849 14.1765 22 14.1765V30.9412L22.5588 31.6677L23.1176 30.9412C23.1176 29.6574 23.1176 21.7531 23.1176 20.6902C24.4167 20.2294 25.3529 18.9901 25.3529 17.5295Z" fill="white"/>
<path d="M16.4119 30.9412V35.4118H22.0001L23.1178 33.1765L22.0001 30.9412C20.4955 30.9412 17.2884 30.9412 16.4119 30.9412Z" fill="#334973"/>
<path d="M27.5882 30.9412C26.0836 30.9412 22.8765 30.9412 22 30.9412V35.4118H27.5882C27.5882 34.8708 27.5882 31.4856 27.5882 30.9412Z" fill="#152659"/>
</g>
<defs>
<clipPath id="clip0">
<rect width="38" height="38" fill="white" transform="translate(3 3)"/>
</clipPath>
</defs>
</svg>
