<svg width="24" height="24" viewBox="0 0 24 24" fill="none" xmlns="http://www.w3.org/2000/svg">
<path d="M14.828 7.75701L9.17201 13.414C9.0765 13.5063 9.00032 13.6166 8.94791 13.7386C8.8955 13.8606 8.86792 13.9918 8.86676 14.1246C8.86561 14.2574 8.89091 14.3891 8.94119 14.512C8.99147 14.6349 9.06572 14.7465 9.15962 14.8404C9.25351 14.9343 9.36516 15.0086 9.48806 15.0588C9.61095 15.1091 9.74263 15.1344 9.87541 15.1333C10.0082 15.1321 10.1394 15.1045 10.2614 15.0521C10.3834 14.9997 10.4938 14.9235 10.586 14.828L16.243 9.17201C16.8057 8.60935 17.1218 7.84623 17.1218 7.05051C17.1218 6.25479 16.8057 5.49167 16.243 4.92901C15.6804 4.36635 14.9172 4.05026 14.1215 4.05026C13.3258 4.05026 12.5627 4.36635 12 4.92901L6.34301 10.586C5.86909 11.0481 5.49164 11.5998 5.23257 12.2089C4.9735 12.818 4.83796 13.4726 4.83381 14.1345C4.82966 14.7964 4.95699 15.4526 5.20841 16.0649C5.45983 16.6773 5.83033 17.2336 6.29843 17.7016C6.76652 18.1696 7.3229 18.5401 7.93527 18.7914C8.54764 19.0427 9.20382 19.17 9.86575 19.1657C10.5277 19.1615 11.1822 19.0258 11.7913 18.7667C12.4004 18.5075 12.952 18.13 13.414 17.656L19.071 12L20.485 13.414L14.828 19.071C14.178 19.7211 13.4063 20.2367 12.5569 20.5885C11.7076 20.9403 10.7973 21.1214 9.87801 21.1214C8.95871 21.1214 8.04841 20.9403 7.19909 20.5885C6.34977 20.2367 5.57806 19.7211 4.92801 19.071C4.27797 18.421 3.76233 17.6493 3.41053 16.7999C3.05872 15.9506 2.87766 15.0403 2.87766 14.121C2.87766 13.2017 3.05872 12.2914 3.41053 11.4421C3.76233 10.5928 4.27797 9.82105 4.92801 9.17101L10.586 3.51501C11.529 2.60422 12.792 2.10025 14.103 2.11164C15.414 2.12303 16.6681 2.64888 17.5951 3.57592C18.5221 4.50296 19.048 5.75702 19.0594 7.068C19.0708 8.37899 18.5668 9.642 17.656 10.585L12 16.244C11.7213 16.5226 11.3905 16.7436 11.0265 16.8943C10.6624 17.0451 10.2722 17.1227 9.87816 17.1226C9.48411 17.1226 9.09394 17.0449 8.7299 16.8941C8.36587 16.7432 8.03511 16.5222 7.75651 16.2435C7.47791 15.9648 7.25693 15.634 7.10618 15.27C6.95542 14.9059 6.87786 14.5157 6.8779 14.1217C6.87795 13.7276 6.95561 13.3374 7.10645 12.9734C7.25728 12.6094 7.47835 12.2786 7.75701 12L13.414 6.34301L14.828 7.75701Z" fill="#444444"/>
</svg>
