<svg width="47" height="26" viewBox="0 0 47 26" fill="none" xmlns="http://www.w3.org/2000/svg">
<rect width="47" height="26" rx="13" fill="#FBCE01"/>
<path d="M15.944 14.48L16.28 15.512L16.268 14.48V8H17.696V17.276H15.704L12.752 10.796L12.416 9.764L12.428 10.796V17.276H11V8H12.992L15.944 14.48Z" fill="#222222"/>
<path d="M25.1495 17.276H19.2695V8H25.1495V9.26H20.7695V11.612H24.8495V12.86H20.7695V16.016H25.1495V17.276Z" fill="#222222"/>
<path d="M31.796 8L33.26 14.48L33.428 15.44L33.596 14.48L34.976 8H36.524L34.196 17.276H32.6L31.1 10.676L30.932 9.716L30.764 10.676L29.264 17.276H27.668L25.34 8H26.888L28.268 14.48L28.436 15.44L28.604 14.48L30.068 8H31.796Z" fill="#222222"/>
</svg>
