<svg width="16" height="16" viewBox="0 0 16 16" fill="none" xmlns="http://www.w3.org/2000/svg">
<path d="M0.787292 8C1.41396 4.58667 4.40529 2 7.99996 2C11.5946 2 14.5853 4.58667 15.2126 8C14.586 11.4133 11.5946 14 7.99996 14C4.40529 14 1.41463 11.4133 0.787292 8V8ZM7.99996 11.3333C8.88401 11.3333 9.73186 10.9821 10.357 10.357C10.9821 9.7319 11.3333 8.88406 11.3333 8C11.3333 7.11595 10.9821 6.2681 10.357 5.64298C9.73186 5.01786 8.88401 4.66667 7.99996 4.66667C7.1159 4.66667 6.26806 5.01786 5.64294 5.64298C5.01782 6.2681 4.66663 7.11595 4.66663 8C4.66663 8.88406 5.01782 9.7319 5.64294 10.357C6.26806 10.9821 7.1159 11.3333 7.99996 11.3333ZM7.99996 10C7.46953 10 6.96082 9.78929 6.58575 9.41421C6.21067 9.03914 5.99996 8.53043 5.99996 8C5.99996 7.46957 6.21067 6.96086 6.58575 6.58579C6.96082 6.21071 7.46953 6 7.99996 6C8.53039 6 9.0391 6.21071 9.41417 6.58579C9.78925 6.96086 9.99996 7.46957 9.99996 8C9.99996 8.53043 9.78925 9.03914 9.41417 9.41421C9.0391 9.78929 8.53039 10 7.99996 10Z" fill="white"/>
</svg>
