<svg width="72" height="72" viewBox="0 0 72 72" fill="none" xmlns="http://www.w3.org/2000/svg">
<path d="M36 66C19.431 66 6 52.569 6 36C6 19.431 19.431 6 36 6C52.569 6 66 19.431 66 36C66 52.569 52.569 66 36 66ZM36 60C42.3652 60 48.4697 57.4714 52.9706 52.9706C57.4714 48.4697 60 42.3652 60 36C60 29.6348 57.4714 23.5303 52.9706 19.0294C48.4697 14.5286 42.3652 12 36 12C29.6348 12 23.5303 14.5286 19.0294 19.0294C14.5286 23.5303 12 29.6348 12 36C12 42.3652 14.5286 48.4697 19.0294 52.9706C23.5303 57.4714 29.6348 60 36 60ZM39 36H51V42H33V21H39V36Z" fill="#3480CD"/>
</svg>
