<svg width="852" height="550" viewBox="0 0 852 550" fill="none" xmlns="http://www.w3.org/2000/svg">
<rect x="198" y="205" width="70" height="221" fill="#F36F7C"/>
<path d="M219.152 462.52C220.176 461.635 220.982 460.909 221.568 460.344C222.166 459.768 222.662 459.171 223.056 458.552C223.451 457.933 223.648 457.315 223.648 456.696C223.648 456.056 223.494 455.555 223.184 455.192C222.886 454.829 222.411 454.648 221.76 454.648C221.131 454.648 220.64 454.851 220.288 455.256C219.947 455.651 219.766 456.184 219.744 456.856H217.984C218.016 455.64 218.379 454.712 219.072 454.072C219.776 453.421 220.667 453.096 221.744 453.096C222.907 453.096 223.814 453.416 224.464 454.056C225.126 454.696 225.456 455.549 225.456 456.616C225.456 457.384 225.259 458.125 224.864 458.84C224.48 459.544 224.016 460.179 223.472 460.744C222.939 461.299 222.256 461.944 221.424 462.68L220.704 463.32H225.776V464.84H218V463.512L219.152 462.52ZM226.579 459.016C226.579 457.171 226.888 455.731 227.507 454.696C228.136 453.651 229.213 453.128 230.739 453.128C232.264 453.128 233.336 453.651 233.955 454.696C234.584 455.731 234.899 457.171 234.899 459.016C234.899 460.883 234.584 462.344 233.955 463.4C233.336 464.445 232.264 464.968 230.739 464.968C229.213 464.968 228.136 464.445 227.507 463.4C226.888 462.344 226.579 460.883 226.579 459.016ZM233.107 459.016C233.107 458.152 233.048 457.421 232.931 456.824C232.824 456.227 232.6 455.741 232.259 455.368C231.917 454.984 231.411 454.792 230.739 454.792C230.067 454.792 229.56 454.984 229.219 455.368C228.877 455.741 228.648 456.227 228.531 456.824C228.424 457.421 228.371 458.152 228.371 459.016C228.371 459.912 228.424 460.664 228.531 461.272C228.637 461.88 228.861 462.371 229.203 462.744C229.555 463.117 230.067 463.304 230.739 463.304C231.411 463.304 231.917 463.117 232.259 462.744C232.611 462.371 232.84 461.88 232.947 461.272C233.053 460.664 233.107 459.912 233.107 459.016ZM235.789 455V453.336H239.117V465H237.277V455H235.789ZM248.214 454.744L243.766 465H241.926L246.422 454.936H240.502V453.384H248.214V454.744Z" fill="#222222"/>
<path d="M84.81 42.75V40.878H88.554V54H86.484V42.75H84.81ZM90.473 47.268C90.473 45.192 90.821 43.572 91.517 42.408C92.225 41.232 93.437 40.644 95.153 40.644C96.869 40.644 98.075 41.232 98.771 42.408C99.479 43.572 99.833 45.192 99.833 47.268C99.833 49.368 99.479 51.012 98.771 52.2C98.075 53.376 96.869 53.964 95.153 53.964C93.437 53.964 92.225 53.376 91.517 52.2C90.821 51.012 90.473 49.368 90.473 47.268ZM97.817 47.268C97.817 46.296 97.751 45.474 97.619 44.802C97.499 44.13 97.247 43.584 96.863 43.164C96.479 42.732 95.909 42.516 95.153 42.516C94.397 42.516 93.827 42.732 93.443 43.164C93.059 43.584 92.801 44.13 92.669 44.802C92.549 45.474 92.489 46.296 92.489 47.268C92.489 48.276 92.549 49.122 92.669 49.806C92.789 50.49 93.041 51.042 93.425 51.462C93.821 51.882 94.397 52.092 95.153 52.092C95.909 52.092 96.479 51.882 96.863 51.462C97.259 51.042 97.517 50.49 97.637 49.806C97.757 49.122 97.817 48.276 97.817 47.268ZM103.624 51.534L101.446 56.502H100.114L101.392 51.534H103.624ZM104.247 47.268C104.247 45.192 104.595 43.572 105.291 42.408C105.999 41.232 107.211 40.644 108.927 40.644C110.643 40.644 111.849 41.232 112.545 42.408C113.253 43.572 113.607 45.192 113.607 47.268C113.607 49.368 113.253 51.012 112.545 52.2C111.849 53.376 110.643 53.964 108.927 53.964C107.211 53.964 105.999 53.376 105.291 52.2C104.595 51.012 104.247 49.368 104.247 47.268ZM111.591 47.268C111.591 46.296 111.525 45.474 111.393 44.802C111.273 44.13 111.021 43.584 110.637 43.164C110.253 42.732 109.683 42.516 108.927 42.516C108.171 42.516 107.601 42.732 107.217 43.164C106.833 43.584 106.575 44.13 106.443 44.802C106.323 45.474 106.263 46.296 106.263 47.268C106.263 48.276 106.323 49.122 106.443 49.806C106.563 50.49 106.815 51.042 107.199 51.462C107.595 51.882 108.171 52.092 108.927 52.092C109.683 52.092 110.253 51.882 110.637 51.462C111.033 51.042 111.291 50.49 111.411 49.806C111.531 49.122 111.591 48.276 111.591 47.268ZM114.878 47.268C114.878 45.192 115.226 43.572 115.922 42.408C116.63 41.232 117.842 40.644 119.558 40.644C121.274 40.644 122.48 41.232 123.176 42.408C123.884 43.572 124.238 45.192 124.238 47.268C124.238 49.368 123.884 51.012 123.176 52.2C122.48 53.376 121.274 53.964 119.558 53.964C117.842 53.964 116.63 53.376 115.922 52.2C115.226 51.012 114.878 49.368 114.878 47.268ZM122.222 47.268C122.222 46.296 122.156 45.474 122.024 44.802C121.904 44.13 121.652 43.584 121.268 43.164C120.884 42.732 120.314 42.516 119.558 42.516C118.802 42.516 118.232 42.732 117.848 43.164C117.464 43.584 117.206 44.13 117.074 44.802C116.954 45.474 116.894 46.296 116.894 47.268C116.894 48.276 116.954 49.122 117.074 49.806C117.194 50.49 117.446 51.042 117.83 51.462C118.226 51.882 118.802 52.092 119.558 52.092C120.314 52.092 120.884 51.882 121.268 51.462C121.664 51.042 121.922 50.49 122.042 49.806C122.162 49.122 122.222 48.276 122.222 47.268ZM125.51 47.268C125.51 45.192 125.858 43.572 126.554 42.408C127.262 41.232 128.474 40.644 130.19 40.644C131.906 40.644 133.112 41.232 133.808 42.408C134.516 43.572 134.87 45.192 134.87 47.268C134.87 49.368 134.516 51.012 133.808 52.2C133.112 53.376 131.906 53.964 130.19 53.964C128.474 53.964 127.262 53.376 126.554 52.2C125.858 51.012 125.51 49.368 125.51 47.268ZM132.854 47.268C132.854 46.296 132.788 45.474 132.656 44.802C132.536 44.13 132.284 43.584 131.9 43.164C131.516 42.732 130.946 42.516 130.19 42.516C129.434 42.516 128.864 42.732 128.48 43.164C128.096 43.584 127.838 44.13 127.706 44.802C127.586 45.474 127.526 46.296 127.526 47.268C127.526 48.276 127.586 49.122 127.706 49.806C127.826 50.49 128.078 51.042 128.462 51.462C128.858 51.882 129.434 52.092 130.19 52.092C130.946 52.092 131.516 51.882 131.9 51.462C132.296 51.042 132.554 50.49 132.674 49.806C132.794 49.122 132.854 48.276 132.854 47.268Z" fill="#222222"/>
<path d="M667.266 526.582L668.562 526.006C667.014 523.432 666.294 520.39 666.294 517.366C666.294 514.36 667.014 511.318 668.562 508.726L667.266 508.168C665.592 510.886 664.602 513.82 664.602 517.366C664.602 520.948 665.592 523.846 667.266 526.582ZM675.104 523.234C678.038 523.234 680.018 521.632 680.018 517.312V509.734H678.002V517.456C678.002 520.444 676.778 521.416 675.104 521.416C673.448 521.416 672.26 520.444 672.26 517.456V509.734H670.172V517.312C670.172 521.632 672.17 523.234 675.104 523.234ZM682.366 523H684.436V515.98C685.3 515.098 685.93 514.63 686.848 514.63C688.018 514.63 688.522 515.314 688.522 517.024V523H690.592V516.772C690.592 514.252 689.656 512.848 687.55 512.848C686.2 512.848 685.192 513.586 684.274 514.468H684.22L684.058 513.1H682.366V523ZM692.698 523H694.768V513.1H692.698V523ZM693.724 511.246C694.48 511.246 695.02 510.76 695.02 510.004C695.02 509.266 694.48 508.78 693.724 508.78C692.968 508.78 692.446 509.266 692.446 510.004C692.446 510.76 692.968 511.246 693.724 511.246ZM700.296 523.234C701.016 523.234 701.682 523.054 702.24 522.874L701.862 521.344C701.574 521.47 701.142 521.578 700.8 521.578C699.774 521.578 699.36 520.966 699.36 519.778V514.756H701.934V513.1H699.36V510.364H697.632L697.398 513.1L695.85 513.208V514.756H697.29V519.76C697.29 521.848 698.064 523.234 700.296 523.234ZM707.462 516.16C708.236 516.16 708.848 515.548 708.848 514.72C708.848 513.874 708.236 513.244 707.462 513.244C706.688 513.244 706.076 513.874 706.076 514.72C706.076 515.548 706.688 516.16 707.462 516.16ZM707.462 523.234C708.236 523.234 708.848 522.64 708.848 521.794C708.848 520.93 708.236 520.318 707.462 520.318C706.688 520.318 706.076 520.93 706.076 521.794C706.076 522.64 706.688 523.234 707.462 523.234ZM713.932 523H721.492V521.29H718.9V510.112H717.334C716.578 510.58 715.696 510.904 714.454 511.12V512.434H716.83V521.29H713.932V523ZM726.88 523.234C729.526 523.234 731.164 520.84 731.164 516.502C731.164 512.182 729.526 509.86 726.88 509.86C724.252 509.86 722.596 512.164 722.596 516.502C722.596 520.84 724.252 523.234 726.88 523.234ZM726.88 521.596C725.53 521.596 724.576 520.21 724.576 516.502C724.576 512.794 725.53 511.498 726.88 511.498C728.23 511.498 729.184 512.794 729.184 516.502C729.184 520.21 728.23 521.596 726.88 521.596ZM740.432 523.234C742.664 523.234 744.698 521.29 744.698 517.888C744.698 514.846 743.276 512.848 740.774 512.848C739.73 512.848 738.668 513.406 737.822 514.144L737.894 512.452V508.654H735.824V523H737.444L737.642 521.974H737.696C738.542 522.766 739.532 523.234 740.432 523.234ZM740.036 521.524C739.424 521.524 738.65 521.29 737.894 520.624V515.782C738.704 514.972 739.46 514.576 740.234 514.576C741.89 514.576 742.556 515.854 742.556 517.924C742.556 520.246 741.476 521.524 740.036 521.524ZM746.245 523H748.315V513.1H746.245V523ZM747.271 511.246C748.027 511.246 748.567 510.76 748.567 510.004C748.567 509.266 748.027 508.78 747.271 508.78C746.515 508.78 745.993 509.266 745.993 510.004C745.993 510.76 746.515 511.246 747.271 511.246ZM752.564 523.234C753.086 523.234 753.428 523.162 753.68 523.072L753.41 521.506C753.23 521.542 753.158 521.542 753.068 521.542C752.816 521.542 752.582 521.344 752.582 520.786V508.654H750.512V520.678C750.512 522.28 751.07 523.234 752.564 523.234ZM757.026 523.234C757.548 523.234 757.89 523.162 758.142 523.072L757.872 521.506C757.692 521.542 757.62 521.542 757.53 521.542C757.278 521.542 757.044 521.344 757.044 520.786V508.654H754.974V520.678C754.974 522.28 755.532 523.234 757.026 523.234ZM759.435 523H761.505V513.1H759.435V523ZM760.461 511.246C761.217 511.246 761.757 510.76 761.757 510.004C761.757 509.266 761.217 508.78 760.461 508.78C759.705 508.78 759.183 509.266 759.183 510.004C759.183 510.76 759.705 511.246 760.461 511.246ZM767.663 523.234C770.111 523.234 772.325 521.344 772.325 518.05C772.325 514.756 770.111 512.848 767.663 512.848C765.215 512.848 763.001 514.756 763.001 518.05C763.001 521.344 765.215 523.234 767.663 523.234ZM767.663 521.542C766.115 521.542 765.143 520.156 765.143 518.05C765.143 515.962 766.115 514.558 767.663 514.558C769.229 514.558 770.201 515.962 770.201 518.05C770.201 520.156 769.229 521.542 767.663 521.542ZM773.86 523H775.93V515.98C776.794 515.098 777.424 514.63 778.342 514.63C779.512 514.63 780.016 515.314 780.016 517.024V523H782.086V516.772C782.086 514.252 781.15 512.848 779.044 512.848C777.694 512.848 776.686 513.586 775.768 514.468H775.714L775.552 513.1H773.86V523ZM787.515 523H789.603V519.004L791.637 516.502L795.381 523H797.703L792.915 514.864L797.019 509.734H794.697L789.657 516.016H789.603V509.734H787.515V523ZM798.551 523H800.639V517.654H802.781L805.787 523H808.145L804.905 517.384C806.579 516.862 807.677 515.638 807.677 513.586C807.677 510.724 805.625 509.734 802.889 509.734H798.551V523ZM800.639 515.98V511.426H802.637C804.563 511.426 805.607 511.984 805.607 513.586C805.607 515.188 804.563 515.98 802.637 515.98H800.639ZM810.937 523H813.457L815.203 515.638C815.419 514.594 815.635 513.604 815.833 512.596H815.905C816.085 513.604 816.283 514.594 816.517 515.638L818.299 523H820.873L823.483 509.734H821.485L820.225 516.646C820.009 518.032 819.775 519.454 819.559 520.894H819.469C819.163 519.454 818.875 518.032 818.569 516.646L816.859 509.734H815.005L813.295 516.646C812.989 518.05 812.683 519.472 812.395 520.894H812.323C812.089 519.472 811.855 518.05 811.621 516.646L810.379 509.734H808.237L810.937 523ZM825.131 526.582C826.823 523.846 827.813 520.948 827.813 517.366C827.813 513.82 826.823 510.886 825.131 508.168L823.835 508.726C825.383 511.318 826.103 514.36 826.103 517.366C826.103 520.39 825.383 523.432 823.835 526.006L825.131 526.582Z" fill="#666666"/>
<path d="M99.396 137.462L94.392 149H92.322L97.38 137.678H90.72V135.932H99.396V137.462ZM102.772 146.534L100.594 151.502H99.2623L100.54 146.534H102.772ZM111.855 137.642H105.825V141.224C106.077 140.888 106.449 140.606 106.941 140.378C107.445 140.15 107.979 140.036 108.543 140.036C109.551 140.036 110.367 140.252 110.991 140.684C111.627 141.116 112.077 141.662 112.341 142.322C112.617 142.982 112.755 143.678 112.755 144.41C112.755 145.298 112.581 146.09 112.233 146.786C111.897 147.47 111.387 148.01 110.703 148.406C110.031 148.802 109.203 149 108.219 149C106.911 149 105.861 148.676 105.069 148.028C104.277 147.38 103.803 146.522 103.647 145.454H105.645C105.777 146.018 106.071 146.468 106.527 146.804C106.983 147.128 107.553 147.29 108.237 147.29C109.089 147.29 109.725 147.032 110.145 146.516C110.577 146 110.793 145.316 110.793 144.464C110.793 143.6 110.577 142.94 110.145 142.484C109.713 142.016 109.077 141.782 108.237 141.782C107.649 141.782 107.151 141.932 106.743 142.232C106.347 142.52 106.059 142.916 105.879 143.42H103.935V135.842H111.855V137.642ZM113.991 142.268C113.991 140.192 114.339 138.572 115.035 137.408C115.743 136.232 116.955 135.644 118.671 135.644C120.387 135.644 121.593 136.232 122.289 137.408C122.997 138.572 123.351 140.192 123.351 142.268C123.351 144.368 122.997 146.012 122.289 147.2C121.593 148.376 120.387 148.964 118.671 148.964C116.955 148.964 115.743 148.376 115.035 147.2C114.339 146.012 113.991 144.368 113.991 142.268ZM121.335 142.268C121.335 141.296 121.269 140.474 121.137 139.802C121.017 139.13 120.765 138.584 120.381 138.164C119.997 137.732 119.427 137.516 118.671 137.516C117.915 137.516 117.345 137.732 116.961 138.164C116.577 138.584 116.319 139.13 116.187 139.802C116.067 140.474 116.007 141.296 116.007 142.268C116.007 143.276 116.067 144.122 116.187 144.806C116.307 145.49 116.559 146.042 116.943 146.462C117.339 146.882 117.915 147.092 118.671 147.092C119.427 147.092 119.997 146.882 120.381 146.462C120.777 146.042 121.035 145.49 121.155 144.806C121.275 144.122 121.335 143.276 121.335 142.268ZM124.623 142.268C124.623 140.192 124.971 138.572 125.667 137.408C126.375 136.232 127.587 135.644 129.303 135.644C131.019 135.644 132.225 136.232 132.921 137.408C133.629 138.572 133.983 140.192 133.983 142.268C133.983 144.368 133.629 146.012 132.921 147.2C132.225 148.376 131.019 148.964 129.303 148.964C127.587 148.964 126.375 148.376 125.667 147.2C124.971 146.012 124.623 144.368 124.623 142.268ZM131.967 142.268C131.967 141.296 131.901 140.474 131.769 139.802C131.649 139.13 131.397 138.584 131.013 138.164C130.629 137.732 130.059 137.516 129.303 137.516C128.547 137.516 127.977 137.732 127.593 138.164C127.209 138.584 126.951 139.13 126.819 139.802C126.699 140.474 126.639 141.296 126.639 142.268C126.639 143.276 126.699 144.122 126.819 144.806C126.939 145.49 127.191 146.042 127.575 146.462C127.971 146.882 128.547 147.092 129.303 147.092C130.059 147.092 130.629 146.882 131.013 146.462C131.409 146.042 131.667 145.49 131.787 144.806C131.907 144.122 131.967 143.276 131.967 142.268Z" fill="#222222"/>
<path d="M98.54 232.642H92.51V236.224C92.762 235.888 93.134 235.606 93.626 235.378C94.13 235.15 94.664 235.036 95.228 235.036C96.236 235.036 97.052 235.252 97.676 235.684C98.312 236.116 98.762 236.662 99.026 237.322C99.302 237.982 99.44 238.678 99.44 239.41C99.44 240.298 99.266 241.09 98.918 241.786C98.582 242.47 98.072 243.01 97.388 243.406C96.716 243.802 95.888 244 94.904 244C93.596 244 92.546 243.676 91.754 243.028C90.962 242.38 90.488 241.522 90.332 240.454H92.33C92.462 241.018 92.756 241.468 93.212 241.804C93.668 242.128 94.238 242.29 94.922 242.29C95.774 242.29 96.41 242.032 96.83 241.516C97.262 241 97.478 240.316 97.478 239.464C97.478 238.6 97.262 237.94 96.83 237.484C96.398 237.016 95.762 236.782 94.922 236.782C94.334 236.782 93.836 236.932 93.428 237.232C93.032 237.52 92.744 237.916 92.564 238.42H90.62V230.842H98.54V232.642ZM103.196 241.534L101.018 246.502H99.6861L100.964 241.534H103.196ZM103.819 237.268C103.819 235.192 104.167 233.572 104.863 232.408C105.571 231.232 106.783 230.644 108.499 230.644C110.215 230.644 111.421 231.232 112.117 232.408C112.825 233.572 113.179 235.192 113.179 237.268C113.179 239.368 112.825 241.012 112.117 242.2C111.421 243.376 110.215 243.964 108.499 243.964C106.783 243.964 105.571 243.376 104.863 242.2C104.167 241.012 103.819 239.368 103.819 237.268ZM111.163 237.268C111.163 236.296 111.097 235.474 110.965 234.802C110.845 234.13 110.593 233.584 110.209 233.164C109.825 232.732 109.255 232.516 108.499 232.516C107.743 232.516 107.173 232.732 106.789 233.164C106.405 233.584 106.147 234.13 106.015 234.802C105.895 235.474 105.835 236.296 105.835 237.268C105.835 238.276 105.895 239.122 106.015 239.806C106.135 240.49 106.387 241.042 106.771 241.462C107.167 241.882 107.743 242.092 108.499 242.092C109.255 242.092 109.825 241.882 110.209 241.462C110.605 241.042 110.863 240.49 110.983 239.806C111.103 239.122 111.163 238.276 111.163 237.268ZM114.45 237.268C114.45 235.192 114.798 233.572 115.494 232.408C116.202 231.232 117.414 230.644 119.13 230.644C120.846 230.644 122.052 231.232 122.748 232.408C123.456 233.572 123.81 235.192 123.81 237.268C123.81 239.368 123.456 241.012 122.748 242.2C122.052 243.376 120.846 243.964 119.13 243.964C117.414 243.964 116.202 243.376 115.494 242.2C114.798 241.012 114.45 239.368 114.45 237.268ZM121.794 237.268C121.794 236.296 121.728 235.474 121.596 234.802C121.476 234.13 121.224 233.584 120.84 233.164C120.456 232.732 119.886 232.516 119.13 232.516C118.374 232.516 117.804 232.732 117.42 233.164C117.036 233.584 116.778 234.13 116.646 234.802C116.526 235.474 116.466 236.296 116.466 237.268C116.466 238.276 116.526 239.122 116.646 239.806C116.766 240.49 117.018 241.042 117.402 241.462C117.798 241.882 118.374 242.092 119.13 242.092C119.886 242.092 120.456 241.882 120.84 241.462C121.236 241.042 121.494 240.49 121.614 239.806C121.734 239.122 121.794 238.276 121.794 237.268ZM125.082 237.268C125.082 235.192 125.43 233.572 126.126 232.408C126.834 231.232 128.046 230.644 129.762 230.644C131.478 230.644 132.684 231.232 133.38 232.408C134.088 233.572 134.442 235.192 134.442 237.268C134.442 239.368 134.088 241.012 133.38 242.2C132.684 243.376 131.478 243.964 129.762 243.964C128.046 243.964 126.834 243.376 126.126 242.2C125.43 241.012 125.082 239.368 125.082 237.268ZM132.426 237.268C132.426 236.296 132.36 235.474 132.228 234.802C132.108 234.13 131.856 233.584 131.472 233.164C131.088 232.732 130.518 232.516 129.762 232.516C129.006 232.516 128.436 232.732 128.052 233.164C127.668 233.584 127.41 234.13 127.278 234.802C127.158 235.474 127.098 236.296 127.098 237.268C127.098 238.276 127.158 239.122 127.278 239.806C127.398 240.49 127.65 241.042 128.034 241.462C128.43 241.882 129.006 242.092 129.762 242.092C130.518 242.092 131.088 241.882 131.472 241.462C131.868 241.042 132.126 240.49 132.246 239.806C132.366 239.122 132.426 238.276 132.426 237.268Z" fill="#222222"/>
<path d="M92.214 336.21C93.366 335.214 94.272 334.398 94.932 333.762C95.604 333.114 96.162 332.442 96.606 331.746C97.05 331.05 97.272 330.354 97.272 329.658C97.272 328.938 97.098 328.374 96.75 327.966C96.414 327.558 95.88 327.354 95.148 327.354C94.44 327.354 93.888 327.582 93.492 328.038C93.108 328.482 92.904 329.082 92.88 329.838H90.9C90.936 328.47 91.344 327.426 92.124 326.706C92.916 325.974 93.918 325.608 95.13 325.608C96.438 325.608 97.458 325.968 98.19 326.688C98.934 327.408 99.306 328.368 99.306 329.568C99.306 330.432 99.084 331.266 98.64 332.07C98.208 332.862 97.686 333.576 97.074 334.212C96.474 334.836 95.706 335.562 94.77 336.39L93.96 337.11H99.666V338.82H90.918V337.326L92.214 336.21ZM103.089 336.534L100.911 341.502H99.5787L100.857 336.534H103.089ZM112.172 327.642H106.142V331.224C106.394 330.888 106.766 330.606 107.258 330.378C107.762 330.15 108.296 330.036 108.86 330.036C109.868 330.036 110.684 330.252 111.308 330.684C111.944 331.116 112.394 331.662 112.658 332.322C112.934 332.982 113.072 333.678 113.072 334.41C113.072 335.298 112.898 336.09 112.55 336.786C112.214 337.47 111.704 338.01 111.02 338.406C110.348 338.802 109.52 339 108.536 339C107.228 339 106.178 338.676 105.386 338.028C104.594 337.38 104.12 336.522 103.964 335.454H105.962C106.094 336.018 106.388 336.468 106.844 336.804C107.3 337.128 107.87 337.29 108.554 337.29C109.406 337.29 110.042 337.032 110.462 336.516C110.894 336 111.11 335.316 111.11 334.464C111.11 333.6 110.894 332.94 110.462 332.484C110.03 332.016 109.394 331.782 108.554 331.782C107.966 331.782 107.468 331.932 107.06 332.232C106.664 332.52 106.376 332.916 106.196 333.42H104.252V325.842H112.172V327.642ZM114.308 332.268C114.308 330.192 114.656 328.572 115.352 327.408C116.06 326.232 117.272 325.644 118.988 325.644C120.704 325.644 121.91 326.232 122.606 327.408C123.314 328.572 123.668 330.192 123.668 332.268C123.668 334.368 123.314 336.012 122.606 337.2C121.91 338.376 120.704 338.964 118.988 338.964C117.272 338.964 116.06 338.376 115.352 337.2C114.656 336.012 114.308 334.368 114.308 332.268ZM121.652 332.268C121.652 331.296 121.586 330.474 121.454 329.802C121.334 329.13 121.082 328.584 120.698 328.164C120.314 327.732 119.744 327.516 118.988 327.516C118.232 327.516 117.662 327.732 117.278 328.164C116.894 328.584 116.636 329.13 116.504 329.802C116.384 330.474 116.324 331.296 116.324 332.268C116.324 333.276 116.384 334.122 116.504 334.806C116.624 335.49 116.876 336.042 117.26 336.462C117.656 336.882 118.232 337.092 118.988 337.092C119.744 337.092 120.314 336.882 120.698 336.462C121.094 336.042 121.352 335.49 121.472 334.806C121.592 334.122 121.652 333.276 121.652 332.268ZM124.939 332.268C124.939 330.192 125.287 328.572 125.983 327.408C126.691 326.232 127.903 325.644 129.619 325.644C131.335 325.644 132.541 326.232 133.237 327.408C133.945 328.572 134.299 330.192 134.299 332.268C134.299 334.368 133.945 336.012 133.237 337.2C132.541 338.376 131.335 338.964 129.619 338.964C127.903 338.964 126.691 338.376 125.983 337.2C125.287 336.012 124.939 334.368 124.939 332.268ZM132.283 332.268C132.283 331.296 132.217 330.474 132.085 329.802C131.965 329.13 131.713 328.584 131.329 328.164C130.945 327.732 130.375 327.516 129.619 327.516C128.863 327.516 128.293 327.732 127.909 328.164C127.525 328.584 127.267 329.13 127.135 329.802C127.015 330.474 126.955 331.296 126.955 332.268C126.955 333.276 127.015 334.122 127.135 334.806C127.255 335.49 127.507 336.042 127.891 336.462C128.287 336.882 128.863 337.092 129.619 337.092C130.375 337.092 130.945 336.882 131.329 336.462C131.725 336.042 131.983 335.49 132.103 334.806C132.223 334.122 132.283 333.276 132.283 332.268Z" fill="#222222"/>
<path d="M125.08 427.268C125.08 425.192 125.428 423.572 126.124 422.408C126.832 421.232 128.044 420.644 129.76 420.644C131.476 420.644 132.682 421.232 133.378 422.408C134.086 423.572 134.44 425.192 134.44 427.268C134.44 429.368 134.086 431.012 133.378 432.2C132.682 433.376 131.476 433.964 129.76 433.964C128.044 433.964 126.832 433.376 126.124 432.2C125.428 431.012 125.08 429.368 125.08 427.268ZM132.424 427.268C132.424 426.296 132.358 425.474 132.226 424.802C132.106 424.13 131.854 423.584 131.47 423.164C131.086 422.732 130.516 422.516 129.76 422.516C129.004 422.516 128.434 422.732 128.05 423.164C127.666 423.584 127.408 424.13 127.276 424.802C127.156 425.474 127.096 426.296 127.096 427.268C127.096 428.276 127.156 429.122 127.276 429.806C127.396 430.49 127.648 431.042 128.032 431.462C128.428 431.882 129.004 432.092 129.76 432.092C130.516 432.092 131.086 431.882 131.47 431.462C131.866 431.042 132.124 430.49 132.244 429.806C132.364 429.122 132.424 428.276 132.424 427.268Z" fill="#222222"/>
<rect x="315" y="170" width="70" height="256" fill="#F36F7C"/>
<path d="M336.027 462.52C337.051 461.635 337.857 460.909 338.443 460.344C339.041 459.768 339.537 459.171 339.931 458.552C340.326 457.933 340.523 457.315 340.523 456.696C340.523 456.056 340.369 455.555 340.059 455.192C339.761 454.829 339.286 454.648 338.635 454.648C338.006 454.648 337.515 454.851 337.163 455.256C336.822 455.651 336.641 456.184 336.619 456.856H334.859C334.891 455.64 335.254 454.712 335.947 454.072C336.651 453.421 337.542 453.096 338.619 453.096C339.782 453.096 340.689 453.416 341.339 454.056C342.001 454.696 342.331 455.549 342.331 456.616C342.331 457.384 342.134 458.125 341.739 458.84C341.355 459.544 340.891 460.179 340.347 460.744C339.814 461.299 339.131 461.944 338.299 462.68L337.579 463.32H342.651V464.84H334.875V463.512L336.027 462.52ZM343.454 459.016C343.454 457.171 343.763 455.731 344.382 454.696C345.011 453.651 346.088 453.128 347.614 453.128C349.139 453.128 350.211 453.651 350.83 454.696C351.459 455.731 351.774 457.171 351.774 459.016C351.774 460.883 351.459 462.344 350.83 463.4C350.211 464.445 349.139 464.968 347.614 464.968C346.088 464.968 345.011 464.445 344.382 463.4C343.763 462.344 343.454 460.883 343.454 459.016ZM349.982 459.016C349.982 458.152 349.923 457.421 349.806 456.824C349.699 456.227 349.475 455.741 349.134 455.368C348.792 454.984 348.286 454.792 347.614 454.792C346.942 454.792 346.435 454.984 346.094 455.368C345.752 455.741 345.523 456.227 345.406 456.824C345.299 457.421 345.246 458.152 345.246 459.016C345.246 459.912 345.299 460.664 345.406 461.272C345.512 461.88 345.736 462.371 346.078 462.744C346.43 463.117 346.942 463.304 347.614 463.304C348.286 463.304 348.792 463.117 349.134 462.744C349.486 462.371 349.715 461.88 349.822 461.272C349.928 460.664 349.982 459.912 349.982 459.016ZM352.664 455V453.336H355.992V465H354.152V455H352.664ZM359.666 458.904C358.556 458.349 358.002 457.475 358.002 456.28C358.002 455.704 358.146 455.176 358.434 454.696C358.722 454.216 359.154 453.837 359.73 453.56C360.306 453.272 361.01 453.128 361.842 453.128C362.663 453.128 363.362 453.272 363.938 453.56C364.524 453.837 364.962 454.216 365.25 454.696C365.538 455.176 365.682 455.704 365.682 456.28C365.682 456.877 365.527 457.405 365.218 457.864C364.919 458.312 364.519 458.659 364.018 458.904C364.626 459.128 365.106 459.496 365.458 460.008C365.81 460.509 365.986 461.101 365.986 461.784C365.986 462.477 365.81 463.091 365.458 463.624C365.106 464.157 364.615 464.568 363.986 464.856C363.356 465.144 362.642 465.288 361.842 465.288C361.042 465.288 360.327 465.144 359.698 464.856C359.079 464.568 358.594 464.157 358.242 463.624C357.89 463.091 357.714 462.477 357.714 461.784C357.714 461.091 357.89 460.493 358.242 459.992C358.594 459.491 359.068 459.128 359.666 458.904ZM363.938 456.504C363.938 455.907 363.751 455.448 363.378 455.128C363.004 454.808 362.492 454.648 361.842 454.648C361.202 454.648 360.695 454.808 360.322 455.128C359.948 455.448 359.762 455.912 359.762 456.52C359.762 457.053 359.954 457.491 360.338 457.832C360.732 458.163 361.234 458.328 361.842 458.328C362.45 458.328 362.951 458.157 363.346 457.816C363.74 457.475 363.938 457.037 363.938 456.504ZM361.842 459.704C361.138 459.704 360.562 459.88 360.114 460.232C359.676 460.573 359.458 461.069 359.458 461.72C359.458 462.328 359.671 462.824 360.098 463.208C360.524 463.581 361.106 463.768 361.842 463.768C362.567 463.768 363.138 463.576 363.554 463.192C363.98 462.808 364.194 462.317 364.194 461.72C364.194 461.08 363.975 460.584 363.538 460.232C363.111 459.88 362.546 459.704 361.842 459.704Z" fill="#222222"/>
<rect x="432" y="143" width="70" height="283" fill="#F36F7C"/>
<path d="M453.051 462.52C454.075 461.635 454.88 460.909 455.467 460.344C456.064 459.768 456.56 459.171 456.955 458.552C457.349 457.933 457.547 457.315 457.547 456.696C457.547 456.056 457.392 455.555 457.083 455.192C456.784 454.829 456.309 454.648 455.659 454.648C455.029 454.648 454.539 454.851 454.187 455.256C453.845 455.651 453.664 456.184 453.643 456.856H451.883C451.915 455.64 452.277 454.712 452.971 454.072C453.675 453.421 454.565 453.096 455.643 453.096C456.805 453.096 457.712 453.416 458.363 454.056C459.024 454.696 459.355 455.549 459.355 456.616C459.355 457.384 459.157 458.125 458.763 458.84C458.379 459.544 457.915 460.179 457.371 460.744C456.837 461.299 456.155 461.944 455.323 462.68L454.603 463.32H459.675V464.84H451.899V463.512L453.051 462.52ZM460.477 459.016C460.477 457.171 460.787 455.731 461.405 454.696C462.035 453.651 463.112 453.128 464.637 453.128C466.163 453.128 467.235 453.651 467.853 454.696C468.483 455.731 468.797 457.171 468.797 459.016C468.797 460.883 468.483 462.344 467.853 463.4C467.235 464.445 466.163 464.968 464.637 464.968C463.112 464.968 462.035 464.445 461.405 463.4C460.787 462.344 460.477 460.883 460.477 459.016ZM467.005 459.016C467.005 458.152 466.947 457.421 466.829 456.824C466.723 456.227 466.499 455.741 466.157 455.368C465.816 454.984 465.309 454.792 464.637 454.792C463.965 454.792 463.459 454.984 463.117 455.368C462.776 455.741 462.547 456.227 462.429 456.824C462.323 457.421 462.269 458.152 462.269 459.016C462.269 459.912 462.323 460.664 462.429 461.272C462.536 461.88 462.76 462.371 463.101 462.744C463.453 463.117 463.965 463.304 464.637 463.304C465.309 463.304 465.816 463.117 466.157 462.744C466.509 462.371 466.739 461.88 466.845 461.272C466.952 460.664 467.005 459.912 467.005 459.016ZM469.687 455V453.336H473.015V465H471.175V455H469.687ZM476.993 461.832C477.1 462.365 477.329 462.771 477.681 463.048C478.033 463.325 478.508 463.464 479.105 463.464C479.862 463.464 480.417 463.165 480.769 462.568C481.121 461.971 481.297 460.952 481.297 459.512C481.041 459.875 480.678 460.157 480.209 460.36C479.75 460.552 479.249 460.648 478.705 460.648C478.012 460.648 477.382 460.509 476.817 460.232C476.252 459.944 475.804 459.523 475.473 458.968C475.153 458.403 474.993 457.72 474.993 456.92C474.993 455.747 475.334 454.813 476.017 454.12C476.71 453.416 477.66 453.064 478.865 453.064C480.316 453.064 481.345 453.549 481.953 454.52C482.572 455.48 482.881 456.957 482.881 458.952C482.881 460.328 482.764 461.453 482.529 462.328C482.305 463.203 481.91 463.864 481.345 464.312C480.78 464.76 479.996 464.984 478.993 464.984C477.852 464.984 476.972 464.685 476.353 464.088C475.734 463.491 475.388 462.739 475.313 461.832H476.993ZM479.025 459.112C479.665 459.112 480.166 458.915 480.529 458.52C480.902 458.115 481.089 457.581 481.089 456.92C481.089 456.184 480.892 455.613 480.497 455.208C480.113 454.792 479.585 454.584 478.913 454.584C478.241 454.584 477.708 454.797 477.313 455.224C476.929 455.64 476.737 456.189 476.737 456.872C476.737 457.523 476.924 458.061 477.297 458.488C477.681 458.904 478.257 459.112 479.025 459.112Z" fill="#222222"/>
<rect x="549" y="135" width="70" height="291" fill="#F36F7C"/>
<path d="M568.184 462.52C569.208 461.635 570.013 460.909 570.6 460.344C571.197 459.768 571.693 459.171 572.088 458.552C572.482 457.933 572.68 457.315 572.68 456.696C572.68 456.056 572.525 455.555 572.216 455.192C571.917 454.829 571.442 454.648 570.792 454.648C570.162 454.648 569.672 454.851 569.32 455.256C568.978 455.651 568.797 456.184 568.776 456.856H567.016C567.048 455.64 567.41 454.712 568.104 454.072C568.808 453.421 569.698 453.096 570.776 453.096C571.938 453.096 572.845 453.416 573.496 454.056C574.157 454.696 574.488 455.549 574.488 456.616C574.488 457.384 574.29 458.125 573.896 458.84C573.512 459.544 573.048 460.179 572.504 460.744C571.97 461.299 571.288 461.944 570.456 462.68L569.736 463.32H574.808V464.84H567.032V463.512L568.184 462.52ZM575.61 459.016C575.61 457.171 575.919 455.731 576.538 454.696C577.167 453.651 578.245 453.128 579.77 453.128C581.295 453.128 582.367 453.651 582.986 454.696C583.615 455.731 583.93 457.171 583.93 459.016C583.93 460.883 583.615 462.344 582.986 463.4C582.367 464.445 581.295 464.968 579.77 464.968C578.245 464.968 577.167 464.445 576.538 463.4C575.919 462.344 575.61 460.883 575.61 459.016ZM582.138 459.016C582.138 458.152 582.079 457.421 581.962 456.824C581.855 456.227 581.631 455.741 581.29 455.368C580.949 454.984 580.442 454.792 579.77 454.792C579.098 454.792 578.591 454.984 578.25 455.368C577.909 455.741 577.679 456.227 577.562 456.824C577.455 457.421 577.402 458.152 577.402 459.016C577.402 459.912 577.455 460.664 577.562 461.272C577.669 461.88 577.893 462.371 578.234 462.744C578.586 463.117 579.098 463.304 579.77 463.304C580.442 463.304 580.949 463.117 581.29 462.744C581.642 462.371 581.871 461.88 581.978 461.272C582.085 460.664 582.138 459.912 582.138 459.016ZM586.068 462.52C587.092 461.635 587.897 460.909 588.484 460.344C589.081 459.768 589.577 459.171 589.972 458.552C590.367 457.933 590.564 457.315 590.564 456.696C590.564 456.056 590.409 455.555 590.1 455.192C589.801 454.829 589.327 454.648 588.676 454.648C588.047 454.648 587.556 454.851 587.204 455.256C586.863 455.651 586.681 456.184 586.66 456.856H584.9C584.932 455.64 585.295 454.712 585.988 454.072C586.692 453.421 587.583 453.096 588.66 453.096C589.823 453.096 590.729 453.416 591.38 454.056C592.041 454.696 592.372 455.549 592.372 456.616C592.372 457.384 592.175 458.125 591.78 458.84C591.396 459.544 590.932 460.179 590.388 460.744C589.855 461.299 589.172 461.944 588.34 462.68L587.62 463.32H592.692V464.84H584.916V463.512L586.068 462.52ZM593.494 459.016C593.494 457.171 593.804 455.731 594.422 454.696C595.052 453.651 596.129 453.128 597.654 453.128C599.18 453.128 600.252 453.651 600.87 454.696C601.5 455.731 601.814 457.171 601.814 459.016C601.814 460.883 601.5 462.344 600.87 463.4C600.252 464.445 599.18 464.968 597.654 464.968C596.129 464.968 595.052 464.445 594.422 463.4C593.804 462.344 593.494 460.883 593.494 459.016ZM600.022 459.016C600.022 458.152 599.964 457.421 599.846 456.824C599.74 456.227 599.516 455.741 599.174 455.368C598.833 454.984 598.326 454.792 597.654 454.792C596.982 454.792 596.476 454.984 596.134 455.368C595.793 455.741 595.564 456.227 595.446 456.824C595.34 457.421 595.286 458.152 595.286 459.016C595.286 459.912 595.34 460.664 595.446 461.272C595.553 461.88 595.777 462.371 596.118 462.744C596.47 463.117 596.982 463.304 597.654 463.304C598.326 463.304 598.833 463.117 599.174 462.744C599.526 462.371 599.756 461.88 599.862 461.272C599.969 460.664 600.022 459.912 600.022 459.016Z" fill="#222222"/>
<rect x="666" y="140" width="70" height="286" fill="#F36F7C"/>
<path d="M687.012 462.52C688.036 461.635 688.841 460.909 689.428 460.344C690.025 459.768 690.521 459.171 690.916 458.552C691.31 457.933 691.508 457.315 691.508 456.696C691.508 456.056 691.353 455.555 691.044 455.192C690.745 454.829 690.27 454.648 689.62 454.648C688.99 454.648 688.5 454.851 688.148 455.256C687.806 455.651 687.625 456.184 687.604 456.856H685.844C685.876 455.64 686.238 454.712 686.932 454.072C687.636 453.421 688.526 453.096 689.604 453.096C690.766 453.096 691.673 453.416 692.324 454.056C692.985 454.696 693.316 455.549 693.316 456.616C693.316 457.384 693.118 458.125 692.724 458.84C692.34 459.544 691.876 460.179 691.332 460.744C690.798 461.299 690.116 461.944 689.284 462.68L688.564 463.32H693.636V464.84H685.86V463.512L687.012 462.52ZM694.438 459.016C694.438 457.171 694.747 455.731 695.366 454.696C695.995 453.651 697.073 453.128 698.598 453.128C700.123 453.128 701.195 453.651 701.814 454.696C702.443 455.731 702.758 457.171 702.758 459.016C702.758 460.883 702.443 462.344 701.814 463.4C701.195 464.445 700.123 464.968 698.598 464.968C697.073 464.968 695.995 464.445 695.366 463.4C694.747 462.344 694.438 460.883 694.438 459.016ZM700.966 459.016C700.966 458.152 700.907 457.421 700.79 456.824C700.683 456.227 700.459 455.741 700.118 455.368C699.777 454.984 699.27 454.792 698.598 454.792C697.926 454.792 697.419 454.984 697.078 455.368C696.737 455.741 696.507 456.227 696.39 456.824C696.283 457.421 696.23 458.152 696.23 459.016C696.23 459.912 696.283 460.664 696.39 461.272C696.497 461.88 696.721 462.371 697.062 462.744C697.414 463.117 697.926 463.304 698.598 463.304C699.27 463.304 699.777 463.117 700.118 462.744C700.47 462.371 700.699 461.88 700.806 461.272C700.913 460.664 700.966 459.912 700.966 459.016ZM704.896 462.52C705.92 461.635 706.725 460.909 707.312 460.344C707.909 459.768 708.405 459.171 708.8 458.552C709.195 457.933 709.392 457.315 709.392 456.696C709.392 456.056 709.237 455.555 708.928 455.192C708.629 454.829 708.155 454.648 707.504 454.648C706.875 454.648 706.384 454.851 706.032 455.256C705.691 455.651 705.509 456.184 705.488 456.856H703.728C703.76 455.64 704.123 454.712 704.816 454.072C705.52 453.421 706.411 453.096 707.488 453.096C708.651 453.096 709.557 453.416 710.208 454.056C710.869 454.696 711.2 455.549 711.2 456.616C711.2 457.384 711.003 458.125 710.608 458.84C710.224 459.544 709.76 460.179 709.216 460.744C708.683 461.299 708 461.944 707.168 462.68L706.448 463.32H711.52V464.84H703.744V463.512L704.896 462.52ZM712.082 455V453.336H715.41V465H713.57V455H712.082Z" fill="#222222"/>
<rect x="167" y="44" width="1" height="383" fill="#C4C4C4"/>
<rect x="769" y="426" width="1.00003" height="602" transform="rotate(90 769 426)" fill="#C4C4C4"/>
<rect x="0.5" y="0.5" width="851" height="549" stroke="#DEDEDE"/>
</svg>
