<svg width="852" height="529" viewBox="0 0 852 529" fill="none" xmlns="http://www.w3.org/2000/svg">
<rect x="0.5" y="0.5" width="851" height="528" stroke="#DEDEDE"/>
<path d="M167.004 492.52C168.028 491.635 168.833 490.909 169.42 490.344C170.017 489.768 170.513 489.171 170.908 488.552C171.303 487.933 171.5 487.315 171.5 486.696C171.5 486.056 171.345 485.555 171.036 485.192C170.737 484.829 170.263 484.648 169.612 484.648C168.983 484.648 168.492 484.851 168.14 485.256C167.799 485.651 167.617 486.184 167.596 486.856H165.836C165.868 485.64 166.231 484.712 166.924 484.072C167.628 483.421 168.519 483.096 169.596 483.096C170.759 483.096 171.665 483.416 172.316 484.056C172.977 484.696 173.308 485.549 173.308 486.616C173.308 487.384 173.111 488.125 172.716 488.84C172.332 489.544 171.868 490.179 171.324 490.744C170.791 491.299 170.108 491.944 169.276 492.68L168.556 493.32H173.628V494.84H165.852V493.512L167.004 492.52ZM174.43 489.016C174.43 487.171 174.74 485.731 175.358 484.696C175.988 483.651 177.065 483.128 178.59 483.128C180.116 483.128 181.188 483.651 181.806 484.696C182.436 485.731 182.75 487.171 182.75 489.016C182.75 490.883 182.436 492.344 181.806 493.4C181.188 494.445 180.116 494.968 178.59 494.968C177.065 494.968 175.988 494.445 175.358 493.4C174.74 492.344 174.43 490.883 174.43 489.016ZM180.958 489.016C180.958 488.152 180.9 487.421 180.782 486.824C180.676 486.227 180.452 485.741 180.11 485.368C179.769 484.984 179.262 484.792 178.59 484.792C177.918 484.792 177.412 484.984 177.07 485.368C176.729 485.741 176.5 486.227 176.382 486.824C176.276 487.421 176.222 488.152 176.222 489.016C176.222 489.912 176.276 490.664 176.382 491.272C176.489 491.88 176.713 492.371 177.054 492.744C177.406 493.117 177.918 493.304 178.59 493.304C179.262 493.304 179.769 493.117 180.11 492.744C180.462 492.371 180.692 491.88 180.798 491.272C180.905 490.664 180.958 489.912 180.958 489.016ZM183.64 485V483.336H186.968V495H185.128V485H183.64ZM188.674 489.016C188.674 487.171 188.983 485.731 189.602 484.696C190.231 483.651 191.309 483.128 192.834 483.128C194.359 483.128 195.431 483.651 196.05 484.696C196.679 485.731 196.994 487.171 196.994 489.016C196.994 490.883 196.679 492.344 196.05 493.4C195.431 494.445 194.359 494.968 192.834 494.968C191.309 494.968 190.231 494.445 189.602 493.4C188.983 492.344 188.674 490.883 188.674 489.016ZM195.202 489.016C195.202 488.152 195.143 487.421 195.026 486.824C194.919 486.227 194.695 485.741 194.354 485.368C194.013 484.984 193.506 484.792 192.834 484.792C192.162 484.792 191.655 484.984 191.314 485.368C190.973 485.741 190.743 486.227 190.626 486.824C190.519 487.421 190.466 488.152 190.466 489.016C190.466 489.912 190.519 490.664 190.626 491.272C190.733 491.88 190.957 492.371 191.298 492.744C191.65 493.117 192.162 493.304 192.834 493.304C193.506 493.304 194.013 493.117 194.354 492.744C194.706 492.371 194.935 491.88 195.042 491.272C195.149 490.664 195.202 489.912 195.202 489.016Z" fill="#222222"/>
<path d="M165.317 276.216C165.381 275.224 165.76 274.451 166.453 273.896C167.157 273.341 168.053 273.064 169.141 273.064C169.888 273.064 170.533 273.197 171.077 273.464C171.621 273.731 172.032 274.093 172.309 274.552C172.586 275.011 172.725 275.528 172.725 276.104C172.725 276.765 172.549 277.331 172.197 277.8C171.845 278.269 171.424 278.584 170.933 278.744V278.808C171.562 279 172.053 279.352 172.405 279.864C172.757 280.365 172.933 281.011 172.933 281.8C172.933 282.429 172.789 282.989 172.501 283.48C172.213 283.971 171.786 284.36 171.221 284.648C170.656 284.925 169.978 285.064 169.189 285.064C168.037 285.064 167.088 284.771 166.341 284.184C165.605 283.587 165.21 282.733 165.157 281.624H166.917C166.96 282.189 167.178 282.653 167.573 283.016C167.968 283.368 168.501 283.544 169.173 283.544C169.824 283.544 170.325 283.368 170.677 283.016C171.029 282.653 171.205 282.189 171.205 281.624C171.205 280.877 170.965 280.349 170.485 280.04C170.016 279.72 169.29 279.56 168.309 279.56H167.893V278.056H168.325C169.189 278.045 169.845 277.901 170.293 277.624C170.752 277.347 170.981 276.909 170.981 276.312C170.981 275.8 170.816 275.395 170.485 275.096C170.154 274.787 169.685 274.632 169.077 274.632C168.48 274.632 168.016 274.787 167.685 275.096C167.354 275.395 167.157 275.768 167.093 276.216H165.317ZM176.289 282.808L174.353 287.224H173.169L174.305 282.808H176.289ZM177.851 282.52C178.875 281.635 179.68 280.909 180.267 280.344C180.864 279.768 181.36 279.171 181.755 278.552C182.149 277.933 182.347 277.315 182.347 276.696C182.347 276.056 182.192 275.555 181.883 275.192C181.584 274.829 181.109 274.648 180.459 274.648C179.829 274.648 179.339 274.851 178.987 275.256C178.645 275.651 178.464 276.184 178.443 276.856H176.683C176.715 275.64 177.077 274.712 177.771 274.072C178.475 273.421 179.365 273.096 180.443 273.096C181.605 273.096 182.512 273.416 183.163 274.056C183.824 274.696 184.155 275.549 184.155 276.616C184.155 277.384 183.957 278.125 183.563 278.84C183.179 279.544 182.715 280.179 182.171 280.744C181.637 281.299 180.955 281.944 180.123 282.68L179.403 283.32H184.475V284.84H176.699V283.512L177.851 282.52ZM185.037 275V273.336H188.365V285H186.525V275H185.037ZM190.039 276.216C190.103 275.224 190.482 274.451 191.175 273.896C191.879 273.341 192.775 273.064 193.863 273.064C194.61 273.064 195.255 273.197 195.799 273.464C196.343 273.731 196.754 274.093 197.031 274.552C197.308 275.011 197.447 275.528 197.447 276.104C197.447 276.765 197.271 277.331 196.919 277.8C196.567 278.269 196.146 278.584 195.655 278.744V278.808C196.284 279 196.775 279.352 197.127 279.864C197.479 280.365 197.655 281.011 197.655 281.8C197.655 282.429 197.511 282.989 197.223 283.48C196.935 283.971 196.508 284.36 195.943 284.648C195.378 284.925 194.7 285.064 193.911 285.064C192.759 285.064 191.81 284.771 191.063 284.184C190.327 283.587 189.932 282.733 189.879 281.624H191.639C191.682 282.189 191.9 282.653 192.295 283.016C192.69 283.368 193.223 283.544 193.895 283.544C194.546 283.544 195.047 283.368 195.399 283.016C195.751 282.653 195.927 282.189 195.927 281.624C195.927 280.877 195.687 280.349 195.207 280.04C194.738 279.72 194.012 279.56 193.031 279.56H192.615V278.056H193.047C193.911 278.045 194.567 277.901 195.015 277.624C195.474 277.347 195.703 276.909 195.703 276.312C195.703 275.8 195.538 275.395 195.207 275.096C194.876 274.787 194.407 274.632 193.799 274.632C193.202 274.632 192.738 274.787 192.407 275.096C192.076 275.395 191.879 275.768 191.815 276.216H190.039Z" fill="#093660"/>
<path d="M100.54 75.642H94.51V79.224C94.762 78.888 95.134 78.606 95.626 78.378C96.13 78.15 96.664 78.036 97.228 78.036C98.236 78.036 99.052 78.252 99.676 78.684C100.312 79.116 100.762 79.662 101.026 80.322C101.302 80.982 101.44 81.678 101.44 82.41C101.44 83.298 101.266 84.09 100.918 84.786C100.582 85.47 100.072 86.01 99.388 86.406C98.716 86.802 97.888 87 96.904 87C95.596 87 94.546 86.676 93.754 86.028C92.962 85.38 92.488 84.522 92.332 83.454H94.33C94.462 84.018 94.756 84.468 95.212 84.804C95.668 85.128 96.238 85.29 96.922 85.29C97.774 85.29 98.41 85.032 98.83 84.516C99.262 84 99.478 83.316 99.478 82.464C99.478 81.6 99.262 80.94 98.83 80.484C98.398 80.016 97.762 79.782 96.922 79.782C96.334 79.782 95.836 79.932 95.428 80.232C95.032 80.52 94.744 80.916 94.564 81.42H92.62V73.842H100.54V75.642ZM105.196 84.534L103.018 89.502H101.686L102.964 84.534H105.196ZM105.819 80.268C105.819 78.192 106.167 76.572 106.863 75.408C107.571 74.232 108.783 73.644 110.499 73.644C112.215 73.644 113.421 74.232 114.117 75.408C114.825 76.572 115.179 78.192 115.179 80.268C115.179 82.368 114.825 84.012 114.117 85.2C113.421 86.376 112.215 86.964 110.499 86.964C108.783 86.964 107.571 86.376 106.863 85.2C106.167 84.012 105.819 82.368 105.819 80.268ZM113.163 80.268C113.163 79.296 113.097 78.474 112.965 77.802C112.845 77.13 112.593 76.584 112.209 76.164C111.825 75.732 111.255 75.516 110.499 75.516C109.743 75.516 109.173 75.732 108.789 76.164C108.405 76.584 108.147 77.13 108.015 77.802C107.895 78.474 107.835 79.296 107.835 80.268C107.835 81.276 107.895 82.122 108.015 82.806C108.135 83.49 108.387 84.042 108.771 84.462C109.167 84.882 109.743 85.092 110.499 85.092C111.255 85.092 111.825 84.882 112.209 84.462C112.605 84.042 112.863 83.49 112.983 82.806C113.103 82.122 113.163 81.276 113.163 80.268ZM116.45 80.268C116.45 78.192 116.798 76.572 117.494 75.408C118.202 74.232 119.414 73.644 121.13 73.644C122.846 73.644 124.052 74.232 124.748 75.408C125.456 76.572 125.81 78.192 125.81 80.268C125.81 82.368 125.456 84.012 124.748 85.2C124.052 86.376 122.846 86.964 121.13 86.964C119.414 86.964 118.202 86.376 117.494 85.2C116.798 84.012 116.45 82.368 116.45 80.268ZM123.794 80.268C123.794 79.296 123.728 78.474 123.596 77.802C123.476 77.13 123.224 76.584 122.84 76.164C122.456 75.732 121.886 75.516 121.13 75.516C120.374 75.516 119.804 75.732 119.42 76.164C119.036 76.584 118.778 77.13 118.646 77.802C118.526 78.474 118.466 79.296 118.466 80.268C118.466 81.276 118.526 82.122 118.646 82.806C118.766 83.49 119.018 84.042 119.402 84.462C119.798 84.882 120.374 85.092 121.13 85.092C121.886 85.092 122.456 84.882 122.84 84.462C123.236 84.042 123.494 83.49 123.614 82.806C123.734 82.122 123.794 81.276 123.794 80.268ZM127.082 80.268C127.082 78.192 127.43 76.572 128.126 75.408C128.834 74.232 130.046 73.644 131.762 73.644C133.478 73.644 134.684 74.232 135.38 75.408C136.088 76.572 136.442 78.192 136.442 80.268C136.442 82.368 136.088 84.012 135.38 85.2C134.684 86.376 133.478 86.964 131.762 86.964C130.046 86.964 128.834 86.376 128.126 85.2C127.43 84.012 127.082 82.368 127.082 80.268ZM134.426 80.268C134.426 79.296 134.36 78.474 134.228 77.802C134.108 77.13 133.856 76.584 133.472 76.164C133.088 75.732 132.518 75.516 131.762 75.516C131.006 75.516 130.436 75.732 130.052 76.164C129.668 76.584 129.41 77.13 129.278 77.802C129.158 78.474 129.098 79.296 129.098 80.268C129.098 81.276 129.158 82.122 129.278 82.806C129.398 83.49 129.65 84.042 130.034 84.462C130.43 84.882 131.006 85.092 131.762 85.092C132.518 85.092 133.088 84.882 133.472 84.462C133.868 84.042 134.126 83.49 134.246 82.806C134.366 82.122 134.426 81.276 134.426 80.268Z" fill="#222222"/>
<path d="M114.266 48.582L115.562 48.006C114.014 45.432 113.294 42.39 113.294 39.366C113.294 36.36 114.014 33.318 115.562 30.726L114.266 30.168C112.592 32.886 111.602 35.82 111.602 39.366C111.602 42.948 112.592 45.846 114.266 48.582ZM121.186 45.234C122.482 45.234 123.616 44.802 124.534 44.19L123.814 42.876C123.094 43.344 122.338 43.614 121.456 43.614C119.746 43.614 118.558 42.48 118.396 40.59H124.822C124.876 40.338 124.93 39.942 124.93 39.528C124.93 36.738 123.508 34.848 120.88 34.848C118.576 34.848 116.362 36.846 116.362 40.05C116.362 43.326 118.504 45.234 121.186 45.234ZM118.378 39.15C118.576 37.422 119.674 36.468 120.916 36.468C122.356 36.468 123.13 37.458 123.13 39.15H118.378ZM128.418 45.234C129.607 45.234 130.668 44.64 131.569 43.866H131.641L131.803 45H133.495V39.042C133.495 36.414 132.361 34.848 129.895 34.848C128.31 34.848 126.924 35.496 125.898 36.144L126.672 37.548C127.519 37.008 128.491 36.54 129.535 36.54C130.993 36.54 131.407 37.548 131.424 38.7C127.302 39.15 125.502 40.248 125.502 42.372C125.502 44.118 126.708 45.234 128.418 45.234ZM129.048 43.596C128.166 43.596 127.5 43.2 127.5 42.228C127.5 41.112 128.491 40.356 131.424 40.014V42.444C130.615 43.182 129.913 43.596 129.048 43.596ZM136.09 48.582C137.782 45.846 138.772 42.948 138.772 39.366C138.772 35.82 137.782 32.886 136.09 30.168L134.794 30.726C136.342 33.318 137.062 36.36 137.062 39.366C137.062 42.39 136.342 45.432 134.794 48.006L136.09 48.582Z" fill="#666666"/>
<path d="M91.828 147.264V145.716L97.876 137.04H100.36V145.482H102.034V147.264H100.36V150H98.344V147.264H91.828ZM98.434 139.128L94.186 145.482H98.434V139.128ZM105.354 147.534L103.176 152.502H101.844L103.122 147.534H105.354ZM114.437 138.642H108.407V142.224C108.659 141.888 109.031 141.606 109.523 141.378C110.027 141.15 110.561 141.036 111.125 141.036C112.133 141.036 112.949 141.252 113.573 141.684C114.209 142.116 114.659 142.662 114.923 143.322C115.199 143.982 115.337 144.678 115.337 145.41C115.337 146.298 115.163 147.09 114.815 147.786C114.479 148.47 113.969 149.01 113.285 149.406C112.613 149.802 111.785 150 110.801 150C109.493 150 108.443 149.676 107.651 149.028C106.859 148.38 106.385 147.522 106.229 146.454H108.227C108.359 147.018 108.653 147.468 109.109 147.804C109.565 148.128 110.135 148.29 110.819 148.29C111.671 148.29 112.307 148.032 112.727 147.516C113.159 147 113.375 146.316 113.375 145.464C113.375 144.6 113.159 143.94 112.727 143.484C112.295 143.016 111.659 142.782 110.819 142.782C110.231 142.782 109.733 142.932 109.325 143.232C108.929 143.52 108.641 143.916 108.461 144.42H106.517V136.842H114.437V138.642ZM116.573 143.268C116.573 141.192 116.921 139.572 117.617 138.408C118.325 137.232 119.537 136.644 121.253 136.644C122.969 136.644 124.175 137.232 124.871 138.408C125.579 139.572 125.933 141.192 125.933 143.268C125.933 145.368 125.579 147.012 124.871 148.2C124.175 149.376 122.969 149.964 121.253 149.964C119.537 149.964 118.325 149.376 117.617 148.2C116.921 147.012 116.573 145.368 116.573 143.268ZM123.917 143.268C123.917 142.296 123.851 141.474 123.719 140.802C123.599 140.13 123.347 139.584 122.963 139.164C122.579 138.732 122.009 138.516 121.253 138.516C120.497 138.516 119.927 138.732 119.543 139.164C119.159 139.584 118.901 140.13 118.769 140.802C118.649 141.474 118.589 142.296 118.589 143.268C118.589 144.276 118.649 145.122 118.769 145.806C118.889 146.49 119.141 147.042 119.525 147.462C119.921 147.882 120.497 148.092 121.253 148.092C122.009 148.092 122.579 147.882 122.963 147.462C123.359 147.042 123.617 146.49 123.737 145.806C123.857 145.122 123.917 144.276 123.917 143.268ZM127.205 143.268C127.205 141.192 127.553 139.572 128.249 138.408C128.957 137.232 130.169 136.644 131.885 136.644C133.601 136.644 134.807 137.232 135.503 138.408C136.211 139.572 136.565 141.192 136.565 143.268C136.565 145.368 136.211 147.012 135.503 148.2C134.807 149.376 133.601 149.964 131.885 149.964C130.169 149.964 128.957 149.376 128.249 148.2C127.553 147.012 127.205 145.368 127.205 143.268ZM134.549 143.268C134.549 142.296 134.483 141.474 134.351 140.802C134.231 140.13 133.979 139.584 133.595 139.164C133.211 138.732 132.641 138.516 131.885 138.516C131.129 138.516 130.559 138.732 130.175 139.164C129.791 139.584 129.533 140.13 129.401 140.802C129.281 141.474 129.221 142.296 129.221 143.268C129.221 144.276 129.281 145.122 129.401 145.806C129.521 146.49 129.773 147.042 130.157 147.462C130.553 147.882 131.129 148.092 131.885 148.092C132.641 148.092 133.211 147.882 133.595 147.462C133.991 147.042 134.249 146.49 134.369 145.806C134.489 145.122 134.549 144.276 134.549 143.268Z" fill="#222222"/>
<path d="M91.828 210.264V208.716L97.876 200.04H100.36V208.482H102.034V210.264H100.36V213H98.344V210.264H91.828ZM98.434 202.128L94.186 208.482H98.434V202.128ZM105.354 210.534L103.176 215.502H101.844L103.122 210.534H105.354ZM105.977 206.268C105.977 204.192 106.325 202.572 107.021 201.408C107.729 200.232 108.941 199.644 110.657 199.644C112.373 199.644 113.579 200.232 114.275 201.408C114.983 202.572 115.337 204.192 115.337 206.268C115.337 208.368 114.983 210.012 114.275 211.2C113.579 212.376 112.373 212.964 110.657 212.964C108.941 212.964 107.729 212.376 107.021 211.2C106.325 210.012 105.977 208.368 105.977 206.268ZM113.321 206.268C113.321 205.296 113.255 204.474 113.123 203.802C113.003 203.13 112.751 202.584 112.367 202.164C111.983 201.732 111.413 201.516 110.657 201.516C109.901 201.516 109.331 201.732 108.947 202.164C108.563 202.584 108.305 203.13 108.173 203.802C108.053 204.474 107.993 205.296 107.993 206.268C107.993 207.276 108.053 208.122 108.173 208.806C108.293 209.49 108.545 210.042 108.929 210.462C109.325 210.882 109.901 211.092 110.657 211.092C111.413 211.092 111.983 210.882 112.367 210.462C112.763 210.042 113.021 209.49 113.141 208.806C113.261 208.122 113.321 207.276 113.321 206.268ZM116.609 206.268C116.609 204.192 116.957 202.572 117.653 201.408C118.361 200.232 119.573 199.644 121.289 199.644C123.005 199.644 124.211 200.232 124.907 201.408C125.615 202.572 125.969 204.192 125.969 206.268C125.969 208.368 125.615 210.012 124.907 211.2C124.211 212.376 123.005 212.964 121.289 212.964C119.573 212.964 118.361 212.376 117.653 211.2C116.957 210.012 116.609 208.368 116.609 206.268ZM123.953 206.268C123.953 205.296 123.887 204.474 123.755 203.802C123.635 203.13 123.383 202.584 122.999 202.164C122.615 201.732 122.045 201.516 121.289 201.516C120.533 201.516 119.963 201.732 119.579 202.164C119.195 202.584 118.937 203.13 118.805 203.802C118.685 204.474 118.625 205.296 118.625 206.268C118.625 207.276 118.685 208.122 118.805 208.806C118.925 209.49 119.177 210.042 119.561 210.462C119.957 210.882 120.533 211.092 121.289 211.092C122.045 211.092 122.615 210.882 122.999 210.462C123.395 210.042 123.653 209.49 123.773 208.806C123.893 208.122 123.953 207.276 123.953 206.268ZM127.24 206.268C127.24 204.192 127.588 202.572 128.284 201.408C128.992 200.232 130.204 199.644 131.92 199.644C133.636 199.644 134.842 200.232 135.538 201.408C136.246 202.572 136.6 204.192 136.6 206.268C136.6 208.368 136.246 210.012 135.538 211.2C134.842 212.376 133.636 212.964 131.92 212.964C130.204 212.964 128.992 212.376 128.284 211.2C127.588 210.012 127.24 208.368 127.24 206.268ZM134.584 206.268C134.584 205.296 134.518 204.474 134.386 203.802C134.266 203.13 134.014 202.584 133.63 202.164C133.246 201.732 132.676 201.516 131.92 201.516C131.164 201.516 130.594 201.732 130.21 202.164C129.826 202.584 129.568 203.13 129.436 203.802C129.316 204.474 129.256 205.296 129.256 206.268C129.256 207.276 129.316 208.122 129.436 208.806C129.556 209.49 129.808 210.042 130.192 210.462C130.588 210.882 131.164 211.092 131.92 211.092C132.676 211.092 133.246 210.882 133.63 210.462C134.026 210.042 134.284 209.49 134.404 208.806C134.524 208.122 134.584 207.276 134.584 206.268Z" fill="#222222"/>
<path d="M93.044 266.118C93.116 265.002 93.542 264.132 94.322 263.508C95.114 262.884 96.122 262.572 97.346 262.572C98.186 262.572 98.912 262.722 99.524 263.022C100.136 263.322 100.598 263.73 100.91 264.246C101.222 264.762 101.378 265.344 101.378 265.992C101.378 266.736 101.18 267.372 100.784 267.9C100.388 268.428 99.914 268.782 99.362 268.962V269.034C100.07 269.25 100.622 269.646 101.018 270.222C101.414 270.786 101.612 271.512 101.612 272.4C101.612 273.108 101.45 273.738 101.126 274.29C100.802 274.842 100.322 275.28 99.686 275.604C99.05 275.916 98.288 276.072 97.4 276.072C96.104 276.072 95.036 275.742 94.196 275.082C93.368 274.41 92.924 273.45 92.864 272.202H94.844C94.892 272.838 95.138 273.36 95.582 273.768C96.026 274.164 96.626 274.362 97.382 274.362C98.114 274.362 98.678 274.164 99.074 273.768C99.47 273.36 99.668 272.838 99.668 272.202C99.668 271.362 99.398 270.768 98.858 270.42C98.33 270.06 97.514 269.88 96.41 269.88H95.942V268.188H96.428C97.4 268.176 98.138 268.014 98.642 267.702C99.158 267.39 99.416 266.898 99.416 266.226C99.416 265.65 99.23 265.194 98.858 264.858C98.486 264.51 97.958 264.336 97.274 264.336C96.602 264.336 96.08 264.51 95.708 264.858C95.336 265.194 95.114 265.614 95.042 266.118H93.044ZM105.388 273.534L103.21 278.502H101.878L103.156 273.534H105.388ZM114.47 264.642H108.44V268.224C108.692 267.888 109.064 267.606 109.556 267.378C110.06 267.15 110.594 267.036 111.158 267.036C112.166 267.036 112.982 267.252 113.606 267.684C114.242 268.116 114.692 268.662 114.956 269.322C115.232 269.982 115.37 270.678 115.37 271.41C115.37 272.298 115.196 273.09 114.848 273.786C114.512 274.47 114.002 275.01 113.318 275.406C112.646 275.802 111.818 276 110.834 276C109.526 276 108.476 275.676 107.684 275.028C106.892 274.38 106.418 273.522 106.262 272.454H108.26C108.392 273.018 108.686 273.468 109.142 273.804C109.598 274.128 110.168 274.29 110.852 274.29C111.704 274.29 112.34 274.032 112.76 273.516C113.192 273 113.408 272.316 113.408 271.464C113.408 270.6 113.192 269.94 112.76 269.484C112.328 269.016 111.692 268.782 110.852 268.782C110.264 268.782 109.766 268.932 109.358 269.232C108.962 269.52 108.674 269.916 108.494 270.42H106.55V262.842H114.47V264.642ZM116.607 269.268C116.607 267.192 116.955 265.572 117.651 264.408C118.359 263.232 119.571 262.644 121.287 262.644C123.003 262.644 124.209 263.232 124.905 264.408C125.613 265.572 125.967 267.192 125.967 269.268C125.967 271.368 125.613 273.012 124.905 274.2C124.209 275.376 123.003 275.964 121.287 275.964C119.571 275.964 118.359 275.376 117.651 274.2C116.955 273.012 116.607 271.368 116.607 269.268ZM123.951 269.268C123.951 268.296 123.885 267.474 123.753 266.802C123.633 266.13 123.381 265.584 122.997 265.164C122.613 264.732 122.043 264.516 121.287 264.516C120.531 264.516 119.961 264.732 119.577 265.164C119.193 265.584 118.935 266.13 118.803 266.802C118.683 267.474 118.623 268.296 118.623 269.268C118.623 270.276 118.683 271.122 118.803 271.806C118.923 272.49 119.175 273.042 119.559 273.462C119.955 273.882 120.531 274.092 121.287 274.092C122.043 274.092 122.613 273.882 122.997 273.462C123.393 273.042 123.651 272.49 123.771 271.806C123.891 271.122 123.951 270.276 123.951 269.268ZM127.238 269.268C127.238 267.192 127.586 265.572 128.282 264.408C128.99 263.232 130.202 262.644 131.918 262.644C133.634 262.644 134.84 263.232 135.536 264.408C136.244 265.572 136.598 267.192 136.598 269.268C136.598 271.368 136.244 273.012 135.536 274.2C134.84 275.376 133.634 275.964 131.918 275.964C130.202 275.964 128.99 275.376 128.282 274.2C127.586 273.012 127.238 271.368 127.238 269.268ZM134.582 269.268C134.582 268.296 134.516 267.474 134.384 266.802C134.264 266.13 134.012 265.584 133.628 265.164C133.244 264.732 132.674 264.516 131.918 264.516C131.162 264.516 130.592 264.732 130.208 265.164C129.824 265.584 129.566 266.13 129.434 266.802C129.314 267.474 129.254 268.296 129.254 269.268C129.254 270.276 129.314 271.122 129.434 271.806C129.554 272.49 129.806 273.042 130.19 273.462C130.586 273.882 131.162 274.092 131.918 274.092C132.674 274.092 133.244 273.882 133.628 273.462C134.024 273.042 134.282 272.49 134.402 271.806C134.522 271.122 134.582 270.276 134.582 269.268Z" fill="#222222"/>
<path d="M93.044 329.118C93.116 328.002 93.542 327.132 94.322 326.508C95.114 325.884 96.122 325.572 97.346 325.572C98.186 325.572 98.912 325.722 99.524 326.022C100.136 326.322 100.598 326.73 100.91 327.246C101.222 327.762 101.378 328.344 101.378 328.992C101.378 329.736 101.18 330.372 100.784 330.9C100.388 331.428 99.914 331.782 99.362 331.962V332.034C100.07 332.25 100.622 332.646 101.018 333.222C101.414 333.786 101.612 334.512 101.612 335.4C101.612 336.108 101.45 336.738 101.126 337.29C100.802 337.842 100.322 338.28 99.686 338.604C99.05 338.916 98.288 339.072 97.4 339.072C96.104 339.072 95.036 338.742 94.196 338.082C93.368 337.41 92.924 336.45 92.864 335.202H94.844C94.892 335.838 95.138 336.36 95.582 336.768C96.026 337.164 96.626 337.362 97.382 337.362C98.114 337.362 98.678 337.164 99.074 336.768C99.47 336.36 99.668 335.838 99.668 335.202C99.668 334.362 99.398 333.768 98.858 333.42C98.33 333.06 97.514 332.88 96.41 332.88H95.942V331.188H96.428C97.4 331.176 98.138 331.014 98.642 330.702C99.158 330.39 99.416 329.898 99.416 329.226C99.416 328.65 99.23 328.194 98.858 327.858C98.486 327.51 97.958 327.336 97.274 327.336C96.602 327.336 96.08 327.51 95.708 327.858C95.336 328.194 95.114 328.614 95.042 329.118H93.044ZM105.388 336.534L103.21 341.502H101.878L103.156 336.534H105.388ZM106.01 332.268C106.01 330.192 106.358 328.572 107.054 327.408C107.762 326.232 108.974 325.644 110.69 325.644C112.406 325.644 113.612 326.232 114.308 327.408C115.016 328.572 115.37 330.192 115.37 332.268C115.37 334.368 115.016 336.012 114.308 337.2C113.612 338.376 112.406 338.964 110.69 338.964C108.974 338.964 107.762 338.376 107.054 337.2C106.358 336.012 106.01 334.368 106.01 332.268ZM113.354 332.268C113.354 331.296 113.288 330.474 113.156 329.802C113.036 329.13 112.784 328.584 112.4 328.164C112.016 327.732 111.446 327.516 110.69 327.516C109.934 327.516 109.364 327.732 108.98 328.164C108.596 328.584 108.338 329.13 108.206 329.802C108.086 330.474 108.026 331.296 108.026 332.268C108.026 333.276 108.086 334.122 108.206 334.806C108.326 335.49 108.578 336.042 108.962 336.462C109.358 336.882 109.934 337.092 110.69 337.092C111.446 337.092 112.016 336.882 112.4 336.462C112.796 336.042 113.054 335.49 113.174 334.806C113.294 334.122 113.354 333.276 113.354 332.268ZM116.642 332.268C116.642 330.192 116.99 328.572 117.686 327.408C118.394 326.232 119.606 325.644 121.322 325.644C123.038 325.644 124.244 326.232 124.94 327.408C125.648 328.572 126.002 330.192 126.002 332.268C126.002 334.368 125.648 336.012 124.94 337.2C124.244 338.376 123.038 338.964 121.322 338.964C119.606 338.964 118.394 338.376 117.686 337.2C116.99 336.012 116.642 334.368 116.642 332.268ZM123.986 332.268C123.986 331.296 123.92 330.474 123.788 329.802C123.668 329.13 123.416 328.584 123.032 328.164C122.648 327.732 122.078 327.516 121.322 327.516C120.566 327.516 119.996 327.732 119.612 328.164C119.228 328.584 118.97 329.13 118.838 329.802C118.718 330.474 118.658 331.296 118.658 332.268C118.658 333.276 118.718 334.122 118.838 334.806C118.958 335.49 119.21 336.042 119.594 336.462C119.99 336.882 120.566 337.092 121.322 337.092C122.078 337.092 122.648 336.882 123.032 336.462C123.428 336.042 123.686 335.49 123.806 334.806C123.926 334.122 123.986 333.276 123.986 332.268ZM127.273 332.268C127.273 330.192 127.621 328.572 128.317 327.408C129.025 326.232 130.237 325.644 131.953 325.644C133.669 325.644 134.875 326.232 135.571 327.408C136.279 328.572 136.633 330.192 136.633 332.268C136.633 334.368 136.279 336.012 135.571 337.2C134.875 338.376 133.669 338.964 131.953 338.964C130.237 338.964 129.025 338.376 128.317 337.2C127.621 336.012 127.273 334.368 127.273 332.268ZM134.617 332.268C134.617 331.296 134.551 330.474 134.419 329.802C134.299 329.13 134.047 328.584 133.663 328.164C133.279 327.732 132.709 327.516 131.953 327.516C131.197 327.516 130.627 327.732 130.243 328.164C129.859 328.584 129.601 329.13 129.469 329.802C129.349 330.474 129.289 331.296 129.289 332.268C129.289 333.276 129.349 334.122 129.469 334.806C129.589 335.49 129.841 336.042 130.225 336.462C130.621 336.882 131.197 337.092 131.953 337.092C132.709 337.092 133.279 336.882 133.663 336.462C134.059 336.042 134.317 335.49 134.437 334.806C134.557 334.122 134.617 333.276 134.617 332.268Z" fill="#222222"/>
<path d="M94.214 399.21C95.366 398.214 96.272 397.398 96.932 396.762C97.604 396.114 98.162 395.442 98.606 394.746C99.05 394.05 99.272 393.354 99.272 392.658C99.272 391.938 99.098 391.374 98.75 390.966C98.414 390.558 97.88 390.354 97.148 390.354C96.44 390.354 95.888 390.582 95.492 391.038C95.108 391.482 94.904 392.082 94.88 392.838H92.9C92.936 391.47 93.344 390.426 94.124 389.706C94.916 388.974 95.918 388.608 97.13 388.608C98.438 388.608 99.458 388.968 100.19 389.688C100.934 390.408 101.306 391.368 101.306 392.568C101.306 393.432 101.084 394.266 100.64 395.07C100.208 395.862 99.686 396.576 99.074 397.212C98.474 397.836 97.706 398.562 96.77 399.39L95.96 400.11H101.666V401.82H92.918V400.326L94.214 399.21ZM105.089 399.534L102.911 404.502H101.579L102.857 399.534H105.089ZM114.172 390.642H108.142V394.224C108.394 393.888 108.766 393.606 109.258 393.378C109.762 393.15 110.296 393.036 110.86 393.036C111.868 393.036 112.684 393.252 113.308 393.684C113.944 394.116 114.394 394.662 114.658 395.322C114.934 395.982 115.072 396.678 115.072 397.41C115.072 398.298 114.898 399.09 114.55 399.786C114.214 400.47 113.704 401.01 113.02 401.406C112.348 401.802 111.52 402 110.536 402C109.228 402 108.178 401.676 107.386 401.028C106.594 400.38 106.12 399.522 105.964 398.454H107.962C108.094 399.018 108.388 399.468 108.844 399.804C109.3 400.128 109.87 400.29 110.554 400.29C111.406 400.29 112.042 400.032 112.462 399.516C112.894 399 113.11 398.316 113.11 397.464C113.11 396.6 112.894 395.94 112.462 395.484C112.03 395.016 111.394 394.782 110.554 394.782C109.966 394.782 109.468 394.932 109.06 395.232C108.664 395.52 108.376 395.916 108.196 396.42H106.252V388.842H114.172V390.642ZM116.308 395.268C116.308 393.192 116.656 391.572 117.352 390.408C118.06 389.232 119.272 388.644 120.988 388.644C122.704 388.644 123.91 389.232 124.606 390.408C125.314 391.572 125.668 393.192 125.668 395.268C125.668 397.368 125.314 399.012 124.606 400.2C123.91 401.376 122.704 401.964 120.988 401.964C119.272 401.964 118.06 401.376 117.352 400.2C116.656 399.012 116.308 397.368 116.308 395.268ZM123.652 395.268C123.652 394.296 123.586 393.474 123.454 392.802C123.334 392.13 123.082 391.584 122.698 391.164C122.314 390.732 121.744 390.516 120.988 390.516C120.232 390.516 119.662 390.732 119.278 391.164C118.894 391.584 118.636 392.13 118.504 392.802C118.384 393.474 118.324 394.296 118.324 395.268C118.324 396.276 118.384 397.122 118.504 397.806C118.624 398.49 118.876 399.042 119.26 399.462C119.656 399.882 120.232 400.092 120.988 400.092C121.744 400.092 122.314 399.882 122.698 399.462C123.094 399.042 123.352 398.49 123.472 397.806C123.592 397.122 123.652 396.276 123.652 395.268ZM126.939 395.268C126.939 393.192 127.287 391.572 127.983 390.408C128.691 389.232 129.903 388.644 131.619 388.644C133.335 388.644 134.541 389.232 135.237 390.408C135.945 391.572 136.299 393.192 136.299 395.268C136.299 397.368 135.945 399.012 135.237 400.2C134.541 401.376 133.335 401.964 131.619 401.964C129.903 401.964 128.691 401.376 127.983 400.2C127.287 399.012 126.939 397.368 126.939 395.268ZM134.283 395.268C134.283 394.296 134.217 393.474 134.085 392.802C133.965 392.13 133.713 391.584 133.329 391.164C132.945 390.732 132.375 390.516 131.619 390.516C130.863 390.516 130.293 390.732 129.909 391.164C129.525 391.584 129.267 392.13 129.135 392.802C129.015 393.474 128.955 394.296 128.955 395.268C128.955 396.276 129.015 397.122 129.135 397.806C129.255 398.49 129.507 399.042 129.891 399.462C130.287 399.882 130.863 400.092 131.619 400.092C132.375 400.092 132.945 399.882 133.329 399.462C133.725 399.042 133.983 398.49 134.103 397.806C134.223 397.122 134.283 396.276 134.283 395.268Z" fill="#222222"/>
<path d="M94.214 462.21C95.366 461.214 96.272 460.398 96.932 459.762C97.604 459.114 98.162 458.442 98.606 457.746C99.05 457.05 99.272 456.354 99.272 455.658C99.272 454.938 99.098 454.374 98.75 453.966C98.414 453.558 97.88 453.354 97.148 453.354C96.44 453.354 95.888 453.582 95.492 454.038C95.108 454.482 94.904 455.082 94.88 455.838H92.9C92.936 454.47 93.344 453.426 94.124 452.706C94.916 451.974 95.918 451.608 97.13 451.608C98.438 451.608 99.458 451.968 100.19 452.688C100.934 453.408 101.306 454.368 101.306 455.568C101.306 456.432 101.084 457.266 100.64 458.07C100.208 458.862 99.686 459.576 99.074 460.212C98.474 460.836 97.706 461.562 96.77 462.39L95.96 463.11H101.666V464.82H92.918V463.326L94.214 462.21ZM105.089 462.534L102.911 467.502H101.579L102.857 462.534H105.089ZM105.712 458.268C105.712 456.192 106.06 454.572 106.756 453.408C107.464 452.232 108.676 451.644 110.392 451.644C112.108 451.644 113.314 452.232 114.01 453.408C114.718 454.572 115.072 456.192 115.072 458.268C115.072 460.368 114.718 462.012 114.01 463.2C113.314 464.376 112.108 464.964 110.392 464.964C108.676 464.964 107.464 464.376 106.756 463.2C106.06 462.012 105.712 460.368 105.712 458.268ZM113.056 458.268C113.056 457.296 112.99 456.474 112.858 455.802C112.738 455.13 112.486 454.584 112.102 454.164C111.718 453.732 111.148 453.516 110.392 453.516C109.636 453.516 109.066 453.732 108.682 454.164C108.298 454.584 108.04 455.13 107.908 455.802C107.788 456.474 107.728 457.296 107.728 458.268C107.728 459.276 107.788 460.122 107.908 460.806C108.028 461.49 108.28 462.042 108.664 462.462C109.06 462.882 109.636 463.092 110.392 463.092C111.148 463.092 111.718 462.882 112.102 462.462C112.498 462.042 112.756 461.49 112.876 460.806C112.996 460.122 113.056 459.276 113.056 458.268ZM116.343 458.268C116.343 456.192 116.691 454.572 117.387 453.408C118.095 452.232 119.307 451.644 121.023 451.644C122.739 451.644 123.945 452.232 124.641 453.408C125.349 454.572 125.703 456.192 125.703 458.268C125.703 460.368 125.349 462.012 124.641 463.2C123.945 464.376 122.739 464.964 121.023 464.964C119.307 464.964 118.095 464.376 117.387 463.2C116.691 462.012 116.343 460.368 116.343 458.268ZM123.687 458.268C123.687 457.296 123.621 456.474 123.489 455.802C123.369 455.13 123.117 454.584 122.733 454.164C122.349 453.732 121.779 453.516 121.023 453.516C120.267 453.516 119.697 453.732 119.313 454.164C118.929 454.584 118.671 455.13 118.539 455.802C118.419 456.474 118.359 457.296 118.359 458.268C118.359 459.276 118.419 460.122 118.539 460.806C118.659 461.49 118.911 462.042 119.295 462.462C119.691 462.882 120.267 463.092 121.023 463.092C121.779 463.092 122.349 462.882 122.733 462.462C123.129 462.042 123.387 461.49 123.507 460.806C123.627 460.122 123.687 459.276 123.687 458.268ZM126.974 458.268C126.974 456.192 127.322 454.572 128.018 453.408C128.726 452.232 129.938 451.644 131.654 451.644C133.37 451.644 134.576 452.232 135.272 453.408C135.98 454.572 136.334 456.192 136.334 458.268C136.334 460.368 135.98 462.012 135.272 463.2C134.576 464.376 133.37 464.964 131.654 464.964C129.938 464.964 128.726 464.376 128.018 463.2C127.322 462.012 126.974 460.368 126.974 458.268ZM134.318 458.268C134.318 457.296 134.252 456.474 134.12 455.802C134 455.13 133.748 454.584 133.364 454.164C132.98 453.732 132.41 453.516 131.654 453.516C130.898 453.516 130.328 453.732 129.944 454.164C129.56 454.584 129.302 455.13 129.17 455.802C129.05 456.474 128.99 457.296 128.99 458.268C128.99 459.276 129.05 460.122 129.17 460.806C129.29 461.49 129.542 462.042 129.926 462.462C130.322 462.882 130.898 463.092 131.654 463.092C132.41 463.092 132.98 462.882 133.364 462.462C133.76 462.042 134.018 461.49 134.138 460.806C134.258 460.122 134.318 459.276 134.318 458.268Z" fill="#222222"/>
<path d="M225.332 492.52C226.356 491.635 227.161 490.909 227.748 490.344C228.345 489.768 228.841 489.171 229.236 488.552C229.631 487.933 229.828 487.315 229.828 486.696C229.828 486.056 229.673 485.555 229.364 485.192C229.065 484.829 228.591 484.648 227.94 484.648C227.311 484.648 226.82 484.851 226.468 485.256C226.127 485.651 225.945 486.184 225.924 486.856H224.164C224.196 485.64 224.559 484.712 225.252 484.072C225.956 483.421 226.847 483.096 227.924 483.096C229.087 483.096 229.993 483.416 230.644 484.056C231.305 484.696 231.636 485.549 231.636 486.616C231.636 487.384 231.439 488.125 231.044 488.84C230.66 489.544 230.196 490.179 229.652 490.744C229.119 491.299 228.436 491.944 227.604 492.68L226.884 493.32H231.956V494.84H224.18V493.512L225.332 492.52ZM232.758 489.016C232.758 487.171 233.068 485.731 233.686 484.696C234.316 483.651 235.393 483.128 236.918 483.128C238.444 483.128 239.516 483.651 240.134 484.696C240.764 485.731 241.078 487.171 241.078 489.016C241.078 490.883 240.764 492.344 240.134 493.4C239.516 494.445 238.444 494.968 236.918 494.968C235.393 494.968 234.316 494.445 233.686 493.4C233.068 492.344 232.758 490.883 232.758 489.016ZM239.286 489.016C239.286 488.152 239.228 487.421 239.11 486.824C239.004 486.227 238.78 485.741 238.438 485.368C238.097 484.984 237.59 484.792 236.918 484.792C236.246 484.792 235.74 484.984 235.398 485.368C235.057 485.741 234.828 486.227 234.71 486.824C234.604 487.421 234.55 488.152 234.55 489.016C234.55 489.912 234.604 490.664 234.71 491.272C234.817 491.88 235.041 492.371 235.382 492.744C235.734 493.117 236.246 493.304 236.918 493.304C237.59 493.304 238.097 493.117 238.438 492.744C238.79 492.371 239.02 491.88 239.126 491.272C239.233 490.664 239.286 489.912 239.286 489.016ZM241.968 485V483.336H245.296V495H243.456V485H241.968ZM246.762 485V483.336H250.09V495H248.25V485H246.762Z" fill="#222222"/>
<path d="M219.997 230.216C220.061 229.224 220.439 228.451 221.133 227.896C221.837 227.341 222.733 227.064 223.821 227.064C224.567 227.064 225.213 227.197 225.757 227.464C226.301 227.731 226.711 228.093 226.989 228.552C227.266 229.011 227.405 229.528 227.405 230.104C227.405 230.765 227.229 231.331 226.877 231.8C226.525 232.269 226.103 232.584 225.613 232.744V232.808C226.242 233 226.733 233.352 227.085 233.864C227.437 234.365 227.613 235.011 227.613 235.8C227.613 236.429 227.469 236.989 227.181 237.48C226.893 237.971 226.466 238.36 225.901 238.648C225.335 238.925 224.658 239.064 223.869 239.064C222.717 239.064 221.767 238.771 221.021 238.184C220.285 237.587 219.89 236.733 219.837 235.624H221.597C221.639 236.189 221.858 236.653 222.253 237.016C222.647 237.368 223.181 237.544 223.853 237.544C224.503 237.544 225.005 237.368 225.357 237.016C225.709 236.653 225.885 236.189 225.885 235.624C225.885 234.877 225.645 234.349 225.165 234.04C224.695 233.72 223.97 233.56 222.989 233.56H222.573V232.056H223.005C223.869 232.045 224.525 231.901 224.973 231.624C225.431 231.347 225.661 230.909 225.661 230.312C225.661 229.8 225.495 229.395 225.165 229.096C224.834 228.787 224.365 228.632 223.757 228.632C223.159 228.632 222.695 228.787 222.365 229.096C222.034 229.395 221.837 229.768 221.773 230.216H219.997ZM230.969 236.808L229.033 241.224H227.849L228.985 236.808H230.969ZM239.043 228.904H233.683V232.088C233.907 231.789 234.237 231.539 234.674 231.336C235.123 231.133 235.597 231.032 236.099 231.032C236.995 231.032 237.72 231.224 238.275 231.608C238.84 231.992 239.24 232.477 239.475 233.064C239.72 233.651 239.843 234.269 239.843 234.92C239.843 235.709 239.688 236.413 239.378 237.032C239.08 237.64 238.627 238.12 238.019 238.472C237.421 238.824 236.685 239 235.811 239C234.648 239 233.715 238.712 233.011 238.136C232.307 237.56 231.885 236.797 231.747 235.848H233.523C233.64 236.349 233.901 236.749 234.307 237.048C234.712 237.336 235.219 237.48 235.827 237.48C236.584 237.48 237.149 237.251 237.523 236.792C237.907 236.333 238.099 235.725 238.099 234.968C238.099 234.2 237.907 233.613 237.523 233.208C237.139 232.792 236.573 232.584 235.827 232.584C235.304 232.584 234.861 232.717 234.499 232.984C234.147 233.24 233.891 233.592 233.731 234.04H232.003V227.304H239.043V228.904ZM243.213 235.832C243.32 236.365 243.549 236.771 243.901 237.048C244.253 237.325 244.728 237.464 245.325 237.464C246.083 237.464 246.637 237.165 246.989 236.568C247.341 235.971 247.517 234.952 247.517 233.512C247.261 233.875 246.899 234.157 246.429 234.36C245.971 234.552 245.469 234.648 244.925 234.648C244.232 234.648 243.603 234.509 243.037 234.232C242.472 233.944 242.024 233.523 241.693 232.968C241.373 232.403 241.213 231.72 241.213 230.92C241.213 229.747 241.555 228.813 242.237 228.12C242.931 227.416 243.88 227.064 245.085 227.064C246.536 227.064 247.565 227.549 248.173 228.52C248.792 229.48 249.101 230.957 249.101 232.952C249.101 234.328 248.984 235.453 248.749 236.328C248.525 237.203 248.131 237.864 247.565 238.312C247 238.76 246.216 238.984 245.213 238.984C244.072 238.984 243.192 238.685 242.573 238.088C241.955 237.491 241.608 236.739 241.533 235.832H243.213ZM245.245 233.112C245.885 233.112 246.387 232.915 246.749 232.52C247.123 232.115 247.309 231.581 247.309 230.92C247.309 230.184 247.112 229.613 246.717 229.208C246.333 228.792 245.805 228.584 245.133 228.584C244.461 228.584 243.928 228.797 243.533 229.224C243.149 229.64 242.957 230.189 242.957 230.872C242.957 231.523 243.144 232.061 243.517 232.488C243.901 232.904 244.477 233.112 245.245 233.112ZM250.057 229V227.336H253.385V239H251.545V229H250.057Z" fill="#093660"/>
<path d="M279.012 492.52C280.036 491.635 280.841 490.909 281.428 490.344C282.025 489.768 282.521 489.171 282.916 488.552C283.31 487.933 283.508 487.315 283.508 486.696C283.508 486.056 283.353 485.555 283.044 485.192C282.745 484.829 282.27 484.648 281.62 484.648C280.99 484.648 280.5 484.851 280.148 485.256C279.806 485.651 279.625 486.184 279.604 486.856H277.844C277.876 485.64 278.238 484.712 278.932 484.072C279.636 483.421 280.526 483.096 281.604 483.096C282.766 483.096 283.673 483.416 284.324 484.056C284.985 484.696 285.316 485.549 285.316 486.616C285.316 487.384 285.118 488.125 284.724 488.84C284.34 489.544 283.876 490.179 283.332 490.744C282.798 491.299 282.116 491.944 281.284 492.68L280.564 493.32H285.636V494.84H277.86V493.512L279.012 492.52ZM286.438 489.016C286.438 487.171 286.747 485.731 287.366 484.696C287.995 483.651 289.073 483.128 290.598 483.128C292.123 483.128 293.195 483.651 293.814 484.696C294.443 485.731 294.758 487.171 294.758 489.016C294.758 490.883 294.443 492.344 293.814 493.4C293.195 494.445 292.123 494.968 290.598 494.968C289.073 494.968 287.995 494.445 287.366 493.4C286.747 492.344 286.438 490.883 286.438 489.016ZM292.966 489.016C292.966 488.152 292.907 487.421 292.79 486.824C292.683 486.227 292.459 485.741 292.118 485.368C291.777 484.984 291.27 484.792 290.598 484.792C289.926 484.792 289.419 484.984 289.078 485.368C288.737 485.741 288.507 486.227 288.39 486.824C288.283 487.421 288.23 488.152 288.23 489.016C288.23 489.912 288.283 490.664 288.39 491.272C288.497 491.88 288.721 492.371 289.062 492.744C289.414 493.117 289.926 493.304 290.598 493.304C291.27 493.304 291.777 493.117 292.118 492.744C292.47 492.371 292.699 491.88 292.806 491.272C292.913 490.664 292.966 489.912 292.966 489.016ZM295.648 485V483.336H298.976V495H297.136V485H295.648ZM301.69 492.52C302.714 491.635 303.519 490.909 304.106 490.344C304.703 489.768 305.199 489.171 305.594 488.552C305.989 487.933 306.186 487.315 306.186 486.696C306.186 486.056 306.031 485.555 305.722 485.192C305.423 484.829 304.949 484.648 304.298 484.648C303.669 484.648 303.178 484.851 302.826 485.256C302.485 485.651 302.303 486.184 302.282 486.856H300.522C300.554 485.64 300.917 484.712 301.61 484.072C302.314 483.421 303.205 483.096 304.282 483.096C305.445 483.096 306.351 483.416 307.002 484.056C307.663 484.696 307.994 485.549 307.994 486.616C307.994 487.384 307.797 488.125 307.402 488.84C307.018 489.544 306.554 490.179 306.01 490.744C305.477 491.299 304.794 491.944 303.962 492.68L303.242 493.32H308.314V494.84H300.538V493.512L301.69 492.52Z" fill="#222222"/>
<path d="M274.27 207.216C274.334 206.224 274.713 205.451 275.406 204.896C276.11 204.341 277.006 204.064 278.094 204.064C278.841 204.064 279.486 204.197 280.03 204.464C280.574 204.731 280.985 205.093 281.262 205.552C281.54 206.011 281.678 206.528 281.678 207.104C281.678 207.765 281.502 208.331 281.15 208.8C280.798 209.269 280.377 209.584 279.886 209.744V209.808C280.516 210 281.006 210.352 281.358 210.864C281.71 211.365 281.886 212.011 281.886 212.8C281.886 213.429 281.742 213.989 281.454 214.48C281.166 214.971 280.74 215.36 280.174 215.648C279.609 215.925 278.932 216.064 278.142 216.064C276.99 216.064 276.041 215.771 275.294 215.184C274.558 214.587 274.164 213.733 274.11 212.624H275.87C275.913 213.189 276.132 213.653 276.526 214.016C276.921 214.368 277.454 214.544 278.126 214.544C278.777 214.544 279.278 214.368 279.63 214.016C279.982 213.653 280.158 213.189 280.158 212.624C280.158 211.877 279.918 211.349 279.438 211.04C278.969 210.72 278.244 210.56 277.262 210.56H276.846V209.056H277.278C278.142 209.045 278.798 208.901 279.246 208.624C279.705 208.347 279.934 207.909 279.934 207.312C279.934 206.8 279.769 206.395 279.438 206.096C279.108 205.787 278.638 205.632 278.03 205.632C277.433 205.632 276.969 205.787 276.638 206.096C276.308 206.395 276.11 206.768 276.046 207.216H274.27ZM285.242 213.808L283.306 218.224H282.122L283.258 213.808H285.242ZM293.188 205.744L288.74 216H286.9L291.396 205.936H285.476V204.384H293.188V205.744ZM300.221 207.04C300.104 206.549 299.89 206.181 299.581 205.936C299.272 205.691 298.84 205.568 298.285 205.568C297.442 205.568 296.813 205.893 296.397 206.544C295.981 207.184 295.762 208.251 295.741 209.744C296.018 209.275 296.424 208.912 296.957 208.656C297.49 208.4 298.066 208.272 298.685 208.272C299.389 208.272 300.008 208.427 300.541 208.736C301.085 209.035 301.506 209.472 301.805 210.048C302.114 210.624 302.269 211.312 302.269 212.112C302.269 212.859 302.12 213.525 301.821 214.112C301.533 214.699 301.101 215.163 300.525 215.504C299.949 215.835 299.256 216 298.445 216C297.346 216 296.482 215.76 295.853 215.28C295.234 214.789 294.797 214.101 294.541 213.216C294.296 212.331 294.173 211.227 294.173 209.904C294.173 206 295.549 204.048 298.301 204.048C299.368 204.048 300.205 204.336 300.813 204.912C301.432 205.488 301.794 206.197 301.901 207.04H300.221ZM298.285 209.808C297.634 209.808 297.08 210.005 296.621 210.4C296.173 210.784 295.949 211.344 295.949 212.08C295.949 212.816 296.157 213.403 296.573 213.84C297 214.267 297.592 214.48 298.349 214.48C299.021 214.48 299.549 214.272 299.933 213.856C300.328 213.44 300.525 212.885 300.525 212.192C300.525 211.467 300.333 210.891 299.949 210.464C299.576 210.027 299.021 209.808 298.285 209.808ZM305.383 209.904C304.273 209.349 303.719 208.475 303.719 207.28C303.719 206.704 303.863 206.176 304.151 205.696C304.439 205.216 304.871 204.837 305.447 204.56C306.023 204.272 306.727 204.128 307.559 204.128C308.38 204.128 309.079 204.272 309.655 204.56C310.241 204.837 310.679 205.216 310.967 205.696C311.255 206.176 311.399 206.704 311.399 207.28C311.399 207.877 311.244 208.405 310.935 208.864C310.636 209.312 310.236 209.659 309.735 209.904C310.343 210.128 310.823 210.496 311.175 211.008C311.527 211.509 311.703 212.101 311.703 212.784C311.703 213.477 311.527 214.091 311.175 214.624C310.823 215.157 310.332 215.568 309.703 215.856C309.073 216.144 308.359 216.288 307.559 216.288C306.759 216.288 306.044 216.144 305.415 215.856C304.796 215.568 304.311 215.157 303.959 214.624C303.607 214.091 303.431 213.477 303.431 212.784C303.431 212.091 303.607 211.493 303.959 210.992C304.311 210.491 304.785 210.128 305.383 209.904ZM309.655 207.504C309.655 206.907 309.468 206.448 309.095 206.128C308.721 205.808 308.209 205.648 307.559 205.648C306.919 205.648 306.412 205.808 306.039 206.128C305.665 206.448 305.479 206.912 305.479 207.52C305.479 208.053 305.671 208.491 306.055 208.832C306.449 209.163 306.951 209.328 307.559 209.328C308.167 209.328 308.668 209.157 309.063 208.816C309.457 208.475 309.655 208.037 309.655 207.504ZM307.559 210.704C306.855 210.704 306.279 210.88 305.831 211.232C305.393 211.573 305.175 212.069 305.175 212.72C305.175 213.328 305.388 213.824 305.815 214.208C306.241 214.581 306.823 214.768 307.559 214.768C308.284 214.768 308.855 214.576 309.271 214.192C309.697 213.808 309.911 213.317 309.911 212.72C309.911 212.08 309.692 211.584 309.255 211.232C308.828 210.88 308.263 210.704 307.559 210.704Z" fill="#093660"/>
<path d="M335.379 492.52C336.403 491.635 337.208 490.909 337.795 490.344C338.392 489.768 338.888 489.171 339.283 488.552C339.678 487.933 339.875 487.315 339.875 486.696C339.875 486.056 339.72 485.555 339.411 485.192C339.112 484.829 338.638 484.648 337.987 484.648C337.358 484.648 336.867 484.851 336.515 485.256C336.174 485.651 335.992 486.184 335.971 486.856H334.211C334.243 485.64 334.606 484.712 335.299 484.072C336.003 483.421 336.894 483.096 337.971 483.096C339.134 483.096 340.04 483.416 340.691 484.056C341.352 484.696 341.683 485.549 341.683 486.616C341.683 487.384 341.486 488.125 341.091 488.84C340.707 489.544 340.243 490.179 339.699 490.744C339.166 491.299 338.483 491.944 337.651 492.68L336.931 493.32H342.003V494.84H334.227V493.512L335.379 492.52ZM342.805 489.016C342.805 487.171 343.115 485.731 343.733 484.696C344.363 483.651 345.44 483.128 346.965 483.128C348.491 483.128 349.563 483.651 350.181 484.696C350.811 485.731 351.125 487.171 351.125 489.016C351.125 490.883 350.811 492.344 350.181 493.4C349.563 494.445 348.491 494.968 346.965 494.968C345.44 494.968 344.363 494.445 343.733 493.4C343.115 492.344 342.805 490.883 342.805 489.016ZM349.333 489.016C349.333 488.152 349.275 487.421 349.157 486.824C349.051 486.227 348.827 485.741 348.485 485.368C348.144 484.984 347.637 484.792 346.965 484.792C346.293 484.792 345.787 484.984 345.445 485.368C345.104 485.741 344.875 486.227 344.757 486.824C344.651 487.421 344.597 488.152 344.597 489.016C344.597 489.912 344.651 490.664 344.757 491.272C344.864 491.88 345.088 492.371 345.429 492.744C345.781 493.117 346.293 493.304 346.965 493.304C347.637 493.304 348.144 493.117 348.485 492.744C348.837 492.371 349.067 491.88 349.173 491.272C349.28 490.664 349.333 489.912 349.333 489.016ZM352.015 485V483.336H355.343V495H353.503V485H352.015ZM357.017 486.216C357.081 485.224 357.46 484.451 358.153 483.896C358.857 483.341 359.753 483.064 360.841 483.064C361.588 483.064 362.233 483.197 362.777 483.464C363.321 483.731 363.732 484.093 364.009 484.552C364.286 485.011 364.425 485.528 364.425 486.104C364.425 486.765 364.249 487.331 363.897 487.8C363.545 488.269 363.124 488.584 362.633 488.744V488.808C363.262 489 363.753 489.352 364.105 489.864C364.457 490.365 364.633 491.011 364.633 491.8C364.633 492.429 364.489 492.989 364.201 493.48C363.913 493.971 363.486 494.36 362.921 494.648C362.356 494.925 361.678 495.064 360.889 495.064C359.737 495.064 358.788 494.771 358.041 494.184C357.305 493.587 356.91 492.733 356.857 491.624H358.617C358.66 492.189 358.878 492.653 359.273 493.016C359.668 493.368 360.201 493.544 360.873 493.544C361.524 493.544 362.025 493.368 362.377 493.016C362.729 492.653 362.905 492.189 362.905 491.624C362.905 490.877 362.665 490.349 362.185 490.04C361.716 489.72 360.99 489.56 360.009 489.56H359.593V488.056H360.025C360.889 488.045 361.545 487.901 361.993 487.624C362.452 487.347 362.681 486.909 362.681 486.312C362.681 485.8 362.516 485.395 362.185 485.096C361.854 484.787 361.385 484.632 360.777 484.632C360.18 484.632 359.716 484.787 359.385 485.096C359.054 485.395 358.857 485.768 358.793 486.216H357.017Z" fill="#222222"/>
<path d="M330.169 182.216C330.233 181.224 330.611 180.451 331.305 179.896C332.009 179.341 332.905 179.064 333.993 179.064C334.739 179.064 335.385 179.197 335.929 179.464C336.473 179.731 336.883 180.093 337.161 180.552C337.438 181.011 337.577 181.528 337.577 182.104C337.577 182.765 337.401 183.331 337.049 183.8C336.697 184.269 336.275 184.584 335.785 184.744V184.808C336.414 185 336.905 185.352 337.257 185.864C337.609 186.365 337.785 187.011 337.785 187.8C337.785 188.429 337.641 188.989 337.353 189.48C337.065 189.971 336.638 190.36 336.073 190.648C335.507 190.925 334.83 191.064 334.041 191.064C332.889 191.064 331.939 190.771 331.193 190.184C330.457 189.587 330.062 188.733 330.009 187.624H331.769C331.811 188.189 332.03 188.653 332.425 189.016C332.819 189.368 333.353 189.544 334.025 189.544C334.675 189.544 335.177 189.368 335.529 189.016C335.881 188.653 336.057 188.189 336.057 187.624C336.057 186.877 335.817 186.349 335.337 186.04C334.867 185.72 334.142 185.56 333.161 185.56H332.745V184.056H333.177C334.041 184.045 334.697 183.901 335.145 183.624C335.603 183.347 335.833 182.909 335.833 182.312C335.833 181.8 335.667 181.395 335.337 181.096C335.006 180.787 334.537 180.632 333.929 180.632C333.331 180.632 332.867 180.787 332.537 181.096C332.206 181.395 332.009 181.768 331.945 182.216H330.169ZM341.141 188.808L339.205 193.224H338.021L339.157 188.808H341.141ZM343.966 187.832C344.073 188.365 344.302 188.771 344.654 189.048C345.006 189.325 345.481 189.464 346.078 189.464C346.836 189.464 347.39 189.165 347.742 188.568C348.094 187.971 348.27 186.952 348.27 185.512C348.014 185.875 347.652 186.157 347.182 186.36C346.724 186.552 346.222 186.648 345.678 186.648C344.985 186.648 344.356 186.509 343.79 186.232C343.225 185.944 342.777 185.523 342.446 184.968C342.126 184.403 341.966 183.72 341.966 182.92C341.966 181.747 342.308 180.813 342.99 180.12C343.684 179.416 344.633 179.064 345.838 179.064C347.289 179.064 348.318 179.549 348.926 180.52C349.545 181.48 349.854 182.957 349.854 184.952C349.854 186.328 349.737 187.453 349.502 188.328C349.278 189.203 348.884 189.864 348.318 190.312C347.753 190.76 346.969 190.984 345.966 190.984C344.825 190.984 343.945 190.685 343.326 190.088C342.708 189.491 342.361 188.739 342.286 187.832H343.966ZM345.998 185.112C346.638 185.112 347.14 184.915 347.502 184.52C347.876 184.115 348.062 183.581 348.062 182.92C348.062 182.184 347.865 181.613 347.47 181.208C347.086 180.792 346.558 180.584 345.886 180.584C345.214 180.584 344.681 180.797 344.286 181.224C343.902 181.64 343.71 182.189 343.71 182.872C343.71 183.523 343.897 184.061 344.27 184.488C344.654 184.904 345.23 185.112 345.998 185.112ZM351.051 185.016C351.051 183.171 351.36 181.731 351.979 180.696C352.608 179.651 353.685 179.128 355.211 179.128C356.736 179.128 357.808 179.651 358.427 180.696C359.056 181.731 359.371 183.171 359.371 185.016C359.371 186.883 359.056 188.344 358.427 189.4C357.808 190.445 356.736 190.968 355.211 190.968C353.685 190.968 352.608 190.445 351.979 189.4C351.36 188.344 351.051 186.883 351.051 185.016ZM357.579 185.016C357.579 184.152 357.52 183.421 357.403 182.824C357.296 182.227 357.072 181.741 356.731 181.368C356.389 180.984 355.883 180.792 355.211 180.792C354.539 180.792 354.032 180.984 353.691 181.368C353.349 181.741 353.12 182.227 353.003 182.824C352.896 183.421 352.843 184.152 352.843 185.016C352.843 185.912 352.896 186.664 353.003 187.272C353.109 187.88 353.333 188.371 353.675 188.744C354.027 189.117 354.539 189.304 355.211 189.304C355.883 189.304 356.389 189.117 356.731 188.744C357.083 188.371 357.312 187.88 357.419 187.272C357.525 186.664 357.579 185.912 357.579 185.016ZM368.021 180.904H362.661V184.088C362.885 183.789 363.215 183.539 363.653 183.336C364.101 183.133 364.575 183.032 365.077 183.032C365.973 183.032 366.698 183.224 367.253 183.608C367.818 183.992 368.218 184.477 368.453 185.064C368.698 185.651 368.821 186.269 368.821 186.92C368.821 187.709 368.666 188.413 368.357 189.032C368.058 189.64 367.605 190.12 366.997 190.472C366.399 190.824 365.663 191 364.789 191C363.626 191 362.693 190.712 361.989 190.136C361.285 189.56 360.863 188.797 360.725 187.848H362.501C362.618 188.349 362.879 188.749 363.285 189.048C363.69 189.336 364.197 189.48 364.805 189.48C365.562 189.48 366.127 189.251 366.501 188.792C366.885 188.333 367.077 187.725 367.077 186.968C367.077 186.2 366.885 185.613 366.501 185.208C366.117 184.792 365.551 184.584 364.805 184.584C364.282 184.584 363.839 184.717 363.477 184.984C363.125 185.24 362.869 185.592 362.709 186.04H360.981V179.304H368.021V180.904Z" fill="#093660"/>
<path d="M390.449 492.52C391.473 491.635 392.279 490.909 392.865 490.344C393.463 489.768 393.959 489.171 394.353 488.552C394.748 487.933 394.945 487.315 394.945 486.696C394.945 486.056 394.791 485.555 394.481 485.192C394.183 484.829 393.708 484.648 393.057 484.648C392.428 484.648 391.937 484.851 391.585 485.256C391.244 485.651 391.063 486.184 391.041 486.856H389.281C389.313 485.64 389.676 484.712 390.369 484.072C391.073 483.421 391.964 483.096 393.041 483.096C394.204 483.096 395.111 483.416 395.761 484.056C396.423 484.696 396.753 485.549 396.753 486.616C396.753 487.384 396.556 488.125 396.161 488.84C395.777 489.544 395.313 490.179 394.769 490.744C394.236 491.299 393.553 491.944 392.721 492.68L392.001 493.32H397.073V494.84H389.297V493.512L390.449 492.52ZM397.876 489.016C397.876 487.171 398.185 485.731 398.804 484.696C399.433 483.651 400.51 483.128 402.036 483.128C403.561 483.128 404.633 483.651 405.252 484.696C405.881 485.731 406.196 487.171 406.196 489.016C406.196 490.883 405.881 492.344 405.252 493.4C404.633 494.445 403.561 494.968 402.036 494.968C400.51 494.968 399.433 494.445 398.804 493.4C398.185 492.344 397.876 490.883 397.876 489.016ZM404.404 489.016C404.404 488.152 404.345 487.421 404.228 486.824C404.121 486.227 403.897 485.741 403.556 485.368C403.214 484.984 402.708 484.792 402.036 484.792C401.364 484.792 400.857 484.984 400.516 485.368C400.174 485.741 399.945 486.227 399.828 486.824C399.721 487.421 399.668 488.152 399.668 489.016C399.668 489.912 399.721 490.664 399.828 491.272C399.934 491.88 400.158 492.371 400.5 492.744C400.852 493.117 401.364 493.304 402.036 493.304C402.708 493.304 403.214 493.117 403.556 492.744C403.908 492.371 404.137 491.88 404.244 491.272C404.35 490.664 404.404 489.912 404.404 489.016ZM407.086 485V483.336H410.414V495H408.574V485H407.086ZM411.895 492.568V491.192L417.271 483.48H419.479V490.984H420.967V492.568H419.479V495H417.687V492.568H411.895ZM417.767 485.336L413.991 490.984H417.767V485.336Z" fill="#222222"/>
<path d="M385.813 147.568V146.192L391.189 138.48H393.397V145.984H394.885V147.568H393.397V150H391.605V147.568H385.813ZM391.685 140.336L387.909 145.984H391.685V140.336ZM397.836 147.808L395.9 152.224H394.716L395.852 147.808H397.836ZM398.358 141.216C398.422 140.224 398.8 139.451 399.494 138.896C400.198 138.341 401.094 138.064 402.182 138.064C402.928 138.064 403.574 138.197 404.118 138.464C404.662 138.731 405.072 139.093 405.35 139.552C405.627 140.011 405.766 140.528 405.766 141.104C405.766 141.765 405.59 142.331 405.238 142.8C404.886 143.269 404.464 143.584 403.974 143.744V143.808C404.603 144 405.094 144.352 405.446 144.864C405.798 145.365 405.974 146.011 405.974 146.8C405.974 147.429 405.83 147.989 405.542 148.48C405.254 148.971 404.827 149.36 404.262 149.648C403.696 149.925 403.019 150.064 402.23 150.064C401.078 150.064 400.128 149.771 399.382 149.184C398.646 148.587 398.251 147.733 398.198 146.624H399.958C400 147.189 400.219 147.653 400.614 148.016C401.008 148.368 401.542 148.544 402.214 148.544C402.864 148.544 403.366 148.368 403.718 148.016C404.07 147.653 404.246 147.189 404.246 146.624C404.246 145.877 404.006 145.349 403.526 145.04C403.056 144.72 402.331 144.56 401.35 144.56H400.934V143.056H401.366C402.23 143.045 402.886 142.901 403.334 142.624C403.792 142.347 404.022 141.909 404.022 141.312C404.022 140.8 403.856 140.395 403.526 140.096C403.195 139.787 402.726 139.632 402.118 139.632C401.52 139.632 401.056 139.787 400.726 140.096C400.395 140.395 400.198 140.768 400.134 141.216H398.358ZM406.866 147.568V146.192L412.242 138.48H414.45V145.984H415.938V147.568H414.45V150H412.658V147.568H406.866ZM412.738 140.336L408.962 145.984H412.738V140.336ZM417.657 147.52C418.681 146.635 419.486 145.909 420.073 145.344C420.67 144.768 421.166 144.171 421.561 143.552C421.956 142.933 422.153 142.315 422.153 141.696C422.153 141.056 421.998 140.555 421.689 140.192C421.39 139.829 420.916 139.648 420.265 139.648C419.636 139.648 419.145 139.851 418.793 140.256C418.452 140.651 418.27 141.184 418.249 141.856H416.489C416.521 140.64 416.884 139.712 417.577 139.072C418.281 138.421 419.172 138.096 420.249 138.096C421.412 138.096 422.318 138.416 422.969 139.056C423.63 139.696 423.961 140.549 423.961 141.616C423.961 142.384 423.764 143.125 423.369 143.84C422.985 144.544 422.521 145.179 421.977 145.744C421.444 146.299 420.761 146.944 419.929 147.68L419.209 148.32H424.281V149.84H416.505V148.512L417.657 147.52Z" fill="#093660"/>
<path d="M447.02 492.52C448.044 491.635 448.849 490.909 449.436 490.344C450.033 489.768 450.529 489.171 450.924 488.552C451.318 487.933 451.516 487.315 451.516 486.696C451.516 486.056 451.361 485.555 451.052 485.192C450.753 484.829 450.278 484.648 449.628 484.648C448.998 484.648 448.508 484.851 448.156 485.256C447.814 485.651 447.633 486.184 447.612 486.856H445.852C445.884 485.64 446.246 484.712 446.94 484.072C447.644 483.421 448.534 483.096 449.612 483.096C450.774 483.096 451.681 483.416 452.332 484.056C452.993 484.696 453.324 485.549 453.324 486.616C453.324 487.384 453.126 488.125 452.732 488.84C452.348 489.544 451.884 490.179 451.34 490.744C450.806 491.299 450.124 491.944 449.292 492.68L448.572 493.32H453.644V494.84H445.868V493.512L447.02 492.52ZM454.446 489.016C454.446 487.171 454.755 485.731 455.374 484.696C456.003 483.651 457.081 483.128 458.606 483.128C460.131 483.128 461.203 483.651 461.822 484.696C462.451 485.731 462.766 487.171 462.766 489.016C462.766 490.883 462.451 492.344 461.822 493.4C461.203 494.445 460.131 494.968 458.606 494.968C457.081 494.968 456.003 494.445 455.374 493.4C454.755 492.344 454.446 490.883 454.446 489.016ZM460.974 489.016C460.974 488.152 460.915 487.421 460.798 486.824C460.691 486.227 460.467 485.741 460.126 485.368C459.785 484.984 459.278 484.792 458.606 484.792C457.934 484.792 457.427 484.984 457.086 485.368C456.745 485.741 456.515 486.227 456.398 486.824C456.291 487.421 456.238 488.152 456.238 489.016C456.238 489.912 456.291 490.664 456.398 491.272C456.505 491.88 456.729 492.371 457.07 492.744C457.422 493.117 457.934 493.304 458.606 493.304C459.278 493.304 459.785 493.117 460.126 492.744C460.478 492.371 460.707 491.88 460.814 491.272C460.921 490.664 460.974 489.912 460.974 489.016ZM463.656 485V483.336H466.984V495H465.144V485H463.656ZM476.21 484.904H470.85V488.088C471.074 487.789 471.404 487.539 471.842 487.336C472.29 487.133 472.764 487.032 473.266 487.032C474.162 487.032 474.887 487.224 475.442 487.608C476.007 487.992 476.407 488.477 476.642 489.064C476.887 489.651 477.01 490.269 477.01 490.92C477.01 491.709 476.855 492.413 476.546 493.032C476.247 493.64 475.794 494.12 475.186 494.472C474.588 494.824 473.852 495 472.978 495C471.815 495 470.882 494.712 470.178 494.136C469.474 493.56 469.052 492.797 468.914 491.848H470.69C470.807 492.349 471.068 492.749 471.474 493.048C471.879 493.336 472.386 493.48 472.994 493.48C473.751 493.48 474.316 493.251 474.69 492.792C475.074 492.333 475.266 491.725 475.266 490.968C475.266 490.2 475.074 489.613 474.69 489.208C474.306 488.792 473.74 488.584 472.994 488.584C472.471 488.584 472.028 488.717 471.666 488.984C471.314 489.24 471.058 489.592 470.898 490.04H469.17V483.304H476.21V484.904Z" fill="#222222"/>
<path d="M443.203 166.568V165.192L448.579 157.48H450.787V164.984H452.275V166.568H450.787V169H448.995V166.568H443.203ZM449.075 159.336L445.299 164.984H449.075V159.336ZM455.227 166.808L453.291 171.224H452.107L453.243 166.808H455.227ZM455.54 159V157.336H458.868V169H457.028V159H455.54ZM460.35 166.568V165.192L465.726 157.48H467.934V164.984H469.422V166.568H467.934V169H466.142V166.568H460.35ZM466.222 159.336L462.446 164.984H466.222V159.336ZM469.909 166.568V165.192L475.285 157.48H477.493V164.984H478.981V166.568H477.493V169H475.701V166.568H469.909ZM475.781 159.336L472.005 164.984H475.781V159.336Z" fill="#093660"/>
<path d="M502.996 492.52C504.02 491.635 504.825 490.909 505.412 490.344C506.009 489.768 506.505 489.171 506.9 488.552C507.295 487.933 507.492 487.315 507.492 486.696C507.492 486.056 507.337 485.555 507.028 485.192C506.729 484.829 506.255 484.648 505.604 484.648C504.975 484.648 504.484 484.851 504.132 485.256C503.791 485.651 503.609 486.184 503.588 486.856H501.828C501.86 485.64 502.223 484.712 502.916 484.072C503.62 483.421 504.511 483.096 505.588 483.096C506.751 483.096 507.657 483.416 508.308 484.056C508.969 484.696 509.3 485.549 509.3 486.616C509.3 487.384 509.103 488.125 508.708 488.84C508.324 489.544 507.86 490.179 507.316 490.744C506.783 491.299 506.1 491.944 505.268 492.68L504.548 493.32H509.62V494.84H501.844V493.512L502.996 492.52ZM510.423 489.016C510.423 487.171 510.732 485.731 511.351 484.696C511.98 483.651 513.057 483.128 514.583 483.128C516.108 483.128 517.18 483.651 517.799 484.696C518.428 485.731 518.743 487.171 518.743 489.016C518.743 490.883 518.428 492.344 517.799 493.4C517.18 494.445 516.108 494.968 514.583 494.968C513.057 494.968 511.98 494.445 511.351 493.4C510.732 492.344 510.423 490.883 510.423 489.016ZM516.951 489.016C516.951 488.152 516.892 487.421 516.775 486.824C516.668 486.227 516.444 485.741 516.103 485.368C515.761 484.984 515.255 484.792 514.583 484.792C513.911 484.792 513.404 484.984 513.063 485.368C512.721 485.741 512.492 486.227 512.375 486.824C512.268 487.421 512.215 488.152 512.215 489.016C512.215 489.912 512.268 490.664 512.375 491.272C512.481 491.88 512.705 492.371 513.047 492.744C513.399 493.117 513.911 493.304 514.583 493.304C515.255 493.304 515.761 493.117 516.103 492.744C516.455 492.371 516.684 491.88 516.791 491.272C516.897 490.664 516.951 489.912 516.951 489.016ZM519.633 485V483.336H522.961V495H521.121V485H519.633ZM530.938 486.04C530.821 485.549 530.608 485.181 530.298 484.936C529.989 484.691 529.557 484.568 529.002 484.568C528.16 484.568 527.53 484.893 527.114 485.544C526.698 486.184 526.48 487.251 526.458 488.744C526.736 488.275 527.141 487.912 527.674 487.656C528.208 487.4 528.784 487.272 529.402 487.272C530.106 487.272 530.725 487.427 531.258 487.736C531.802 488.035 532.224 488.472 532.522 489.048C532.832 489.624 532.986 490.312 532.986 491.112C532.986 491.859 532.837 492.525 532.538 493.112C532.25 493.699 531.818 494.163 531.242 494.504C530.666 494.835 529.973 495 529.162 495C528.064 495 527.2 494.76 526.57 494.28C525.952 493.789 525.514 493.101 525.258 492.216C525.013 491.331 524.89 490.227 524.89 488.904C524.89 485 526.266 483.048 529.018 483.048C530.085 483.048 530.922 483.336 531.53 483.912C532.149 484.488 532.512 485.197 532.618 486.04H530.938ZM529.002 488.808C528.352 488.808 527.797 489.005 527.338 489.4C526.89 489.784 526.666 490.344 526.666 491.08C526.666 491.816 526.874 492.403 527.29 492.84C527.717 493.267 528.309 493.48 529.066 493.48C529.738 493.48 530.266 493.272 530.65 492.856C531.045 492.44 531.242 491.885 531.242 491.192C531.242 490.467 531.05 489.891 530.666 489.464C530.293 489.027 529.738 488.808 529.002 488.808Z" fill="#222222"/>
<path d="M500.203 164.568V163.192L505.579 155.48H507.787V162.984H509.275V164.568H507.787V167H505.995V164.568H500.203ZM506.075 157.336L502.299 162.984H506.075V157.336ZM512.227 164.808L510.291 169.224H509.107L510.243 164.808H512.227ZM512.54 157V155.336H515.868V167H514.028V157H512.54ZM525.094 156.904H519.734V160.088C519.958 159.789 520.289 159.539 520.726 159.336C521.174 159.133 521.649 159.032 522.15 159.032C523.046 159.032 523.771 159.224 524.326 159.608C524.891 159.992 525.291 160.477 525.526 161.064C525.771 161.651 525.894 162.269 525.894 162.92C525.894 163.709 525.739 164.413 525.43 165.032C525.131 165.64 524.678 166.12 524.07 166.472C523.473 166.824 522.737 167 521.862 167C520.699 167 519.766 166.712 519.062 166.136C518.358 165.56 517.937 164.797 517.798 163.848H519.574C519.691 164.349 519.953 164.749 520.358 165.048C520.763 165.336 521.27 165.48 521.878 165.48C522.635 165.48 523.201 165.251 523.574 164.792C523.958 164.333 524.15 163.725 524.15 162.968C524.15 162.2 523.958 161.613 523.574 161.208C523.19 160.792 522.625 160.584 521.878 160.584C521.355 160.584 520.913 160.717 520.55 160.984C520.198 161.24 519.942 161.592 519.782 162.04H518.054V155.304H525.094V156.904ZM526.961 158.216C527.025 157.224 527.403 156.451 528.097 155.896C528.801 155.341 529.697 155.064 530.785 155.064C531.531 155.064 532.177 155.197 532.721 155.464C533.265 155.731 533.675 156.093 533.953 156.552C534.23 157.011 534.369 157.528 534.369 158.104C534.369 158.765 534.193 159.331 533.841 159.8C533.489 160.269 533.067 160.584 532.577 160.744V160.808C533.206 161 533.697 161.352 534.049 161.864C534.401 162.365 534.577 163.011 534.577 163.8C534.577 164.429 534.433 164.989 534.145 165.48C533.857 165.971 533.43 166.36 532.865 166.648C532.299 166.925 531.622 167.064 530.833 167.064C529.681 167.064 528.731 166.771 527.985 166.184C527.249 165.587 526.854 164.733 526.801 163.624H528.561C528.603 164.189 528.822 164.653 529.217 165.016C529.611 165.368 530.145 165.544 530.817 165.544C531.467 165.544 531.969 165.368 532.321 165.016C532.673 164.653 532.849 164.189 532.849 163.624C532.849 162.877 532.609 162.349 532.129 162.04C531.659 161.72 530.934 161.56 529.953 161.56H529.537V160.056H529.969C530.833 160.045 531.489 159.901 531.937 159.624C532.395 159.347 532.625 158.909 532.625 158.312C532.625 157.8 532.459 157.395 532.129 157.096C531.798 156.787 531.329 156.632 530.721 156.632C530.123 156.632 529.659 156.787 529.329 157.096C528.998 157.395 528.801 157.768 528.737 158.216H526.961Z" fill="#093660"/>
<path d="M559.152 492.52C560.176 491.635 560.982 490.909 561.568 490.344C562.166 489.768 562.662 489.171 563.056 488.552C563.451 487.933 563.648 487.315 563.648 486.696C563.648 486.056 563.494 485.555 563.184 485.192C562.886 484.829 562.411 484.648 561.76 484.648C561.131 484.648 560.64 484.851 560.288 485.256C559.947 485.651 559.766 486.184 559.744 486.856H557.984C558.016 485.64 558.379 484.712 559.072 484.072C559.776 483.421 560.667 483.096 561.744 483.096C562.907 483.096 563.814 483.416 564.464 484.056C565.126 484.696 565.456 485.549 565.456 486.616C565.456 487.384 565.259 488.125 564.864 488.84C564.48 489.544 564.016 490.179 563.472 490.744C562.939 491.299 562.256 491.944 561.424 492.68L560.704 493.32H565.776V494.84H558V493.512L559.152 492.52ZM566.579 489.016C566.579 487.171 566.888 485.731 567.507 484.696C568.136 483.651 569.213 483.128 570.739 483.128C572.264 483.128 573.336 483.651 573.955 484.696C574.584 485.731 574.899 487.171 574.899 489.016C574.899 490.883 574.584 492.344 573.955 493.4C573.336 494.445 572.264 494.968 570.739 494.968C569.213 494.968 568.136 494.445 567.507 493.4C566.888 492.344 566.579 490.883 566.579 489.016ZM573.107 489.016C573.107 488.152 573.048 487.421 572.931 486.824C572.824 486.227 572.6 485.741 572.259 485.368C571.917 484.984 571.411 484.792 570.739 484.792C570.067 484.792 569.56 484.984 569.219 485.368C568.877 485.741 568.648 486.227 568.531 486.824C568.424 487.421 568.371 488.152 568.371 489.016C568.371 489.912 568.424 490.664 568.531 491.272C568.637 491.88 568.861 492.371 569.203 492.744C569.555 493.117 570.067 493.304 570.739 493.304C571.411 493.304 571.917 493.117 572.259 492.744C572.611 492.371 572.84 491.88 572.947 491.272C573.053 490.664 573.107 489.912 573.107 489.016ZM575.789 485V483.336H579.117V495H577.277V485H575.789ZM588.214 484.744L583.766 495H581.926L586.422 484.936H580.502V483.384H588.214V484.744Z" fill="#222222"/>
<path d="M553.867 182.568V181.192L559.243 173.48H561.451V180.984H562.939V182.568H561.451V185H559.659V182.568H553.867ZM559.739 175.336L555.963 180.984H559.739V175.336ZM565.891 182.808L563.955 187.224H562.771L563.907 182.808H565.891ZM566.444 179.016C566.444 177.171 566.754 175.731 567.372 174.696C568.002 173.651 569.079 173.128 570.604 173.128C572.13 173.128 573.202 173.651 573.82 174.696C574.45 175.731 574.764 177.171 574.764 179.016C574.764 180.883 574.45 182.344 573.82 183.4C573.202 184.445 572.13 184.968 570.604 184.968C569.079 184.968 568.002 184.445 567.372 183.4C566.754 182.344 566.444 180.883 566.444 179.016ZM572.972 179.016C572.972 178.152 572.914 177.421 572.796 176.824C572.69 176.227 572.466 175.741 572.124 175.368C571.783 174.984 571.276 174.792 570.604 174.792C569.932 174.792 569.426 174.984 569.084 175.368C568.743 175.741 568.514 176.227 568.396 176.824C568.29 177.421 568.236 178.152 568.236 179.016C568.236 179.912 568.29 180.664 568.396 181.272C568.503 181.88 568.727 182.371 569.068 182.744C569.42 183.117 569.932 183.304 570.604 183.304C571.276 183.304 571.783 183.117 572.124 182.744C572.476 182.371 572.706 181.88 572.812 181.272C572.919 180.664 572.972 179.912 572.972 179.016ZM575.862 176.216C575.926 175.224 576.305 174.451 576.998 173.896C577.702 173.341 578.598 173.064 579.686 173.064C580.433 173.064 581.078 173.197 581.622 173.464C582.166 173.731 582.577 174.093 582.854 174.552C583.132 175.011 583.27 175.528 583.27 176.104C583.27 176.765 583.094 177.331 582.742 177.8C582.39 178.269 581.969 178.584 581.478 178.744V178.808C582.108 179 582.598 179.352 582.95 179.864C583.302 180.365 583.478 181.011 583.478 181.8C583.478 182.429 583.334 182.989 583.046 183.48C582.758 183.971 582.332 184.36 581.766 184.648C581.201 184.925 580.524 185.064 579.734 185.064C578.582 185.064 577.633 184.771 576.886 184.184C576.15 183.587 575.756 182.733 575.702 181.624H577.462C577.505 182.189 577.724 182.653 578.118 183.016C578.513 183.368 579.046 183.544 579.718 183.544C580.369 183.544 580.87 183.368 581.222 183.016C581.574 182.653 581.75 182.189 581.75 181.624C581.75 180.877 581.51 180.349 581.03 180.04C580.561 179.72 579.836 179.56 578.854 179.56H578.438V178.056H578.87C579.734 178.045 580.39 177.901 580.838 177.624C581.297 177.347 581.526 176.909 581.526 176.312C581.526 175.8 581.361 175.395 581.03 175.096C580.7 174.787 580.23 174.632 579.622 174.632C579.025 174.632 578.561 174.787 578.23 175.096C577.9 175.395 577.702 175.768 577.638 176.216H575.862ZM585.602 182.52C586.626 181.635 587.432 180.909 588.018 180.344C588.616 179.768 589.112 179.171 589.506 178.552C589.901 177.933 590.098 177.315 590.098 176.696C590.098 176.056 589.944 175.555 589.634 175.192C589.336 174.829 588.861 174.648 588.21 174.648C587.581 174.648 587.09 174.851 586.738 175.256C586.397 175.651 586.216 176.184 586.194 176.856H584.434C584.466 175.64 584.829 174.712 585.522 174.072C586.226 173.421 587.117 173.096 588.194 173.096C589.357 173.096 590.264 173.416 590.914 174.056C591.576 174.696 591.906 175.549 591.906 176.616C591.906 177.384 591.709 178.125 591.314 178.84C590.93 179.544 590.466 180.179 589.922 180.744C589.389 181.299 588.706 181.944 587.874 182.68L587.154 183.32H592.226V184.84H584.45V183.512L585.602 182.52Z" fill="#093660"/>
<path d="M615.027 492.52C616.051 491.635 616.857 490.909 617.443 490.344C618.041 489.768 618.537 489.171 618.931 488.552C619.326 487.933 619.523 487.315 619.523 486.696C619.523 486.056 619.369 485.555 619.059 485.192C618.761 484.829 618.286 484.648 617.635 484.648C617.006 484.648 616.515 484.851 616.163 485.256C615.822 485.651 615.641 486.184 615.619 486.856H613.859C613.891 485.64 614.254 484.712 614.947 484.072C615.651 483.421 616.542 483.096 617.619 483.096C618.782 483.096 619.689 483.416 620.339 484.056C621.001 484.696 621.331 485.549 621.331 486.616C621.331 487.384 621.134 488.125 620.739 488.84C620.355 489.544 619.891 490.179 619.347 490.744C618.814 491.299 618.131 491.944 617.299 492.68L616.579 493.32H621.651V494.84H613.875V493.512L615.027 492.52ZM622.454 489.016C622.454 487.171 622.763 485.731 623.382 484.696C624.011 483.651 625.088 483.128 626.614 483.128C628.139 483.128 629.211 483.651 629.83 484.696C630.459 485.731 630.774 487.171 630.774 489.016C630.774 490.883 630.459 492.344 629.83 493.4C629.211 494.445 628.139 494.968 626.614 494.968C625.088 494.968 624.011 494.445 623.382 493.4C622.763 492.344 622.454 490.883 622.454 489.016ZM628.982 489.016C628.982 488.152 628.923 487.421 628.806 486.824C628.699 486.227 628.475 485.741 628.134 485.368C627.792 484.984 627.286 484.792 626.614 484.792C625.942 484.792 625.435 484.984 625.094 485.368C624.752 485.741 624.523 486.227 624.406 486.824C624.299 487.421 624.246 488.152 624.246 489.016C624.246 489.912 624.299 490.664 624.406 491.272C624.512 491.88 624.736 492.371 625.078 492.744C625.43 493.117 625.942 493.304 626.614 493.304C627.286 493.304 627.792 493.117 628.134 492.744C628.486 492.371 628.715 491.88 628.822 491.272C628.928 490.664 628.982 489.912 628.982 489.016ZM631.664 485V483.336H634.992V495H633.152V485H631.664ZM638.666 488.904C637.556 488.349 637.002 487.475 637.002 486.28C637.002 485.704 637.146 485.176 637.434 484.696C637.722 484.216 638.154 483.837 638.73 483.56C639.306 483.272 640.01 483.128 640.842 483.128C641.663 483.128 642.362 483.272 642.938 483.56C643.524 483.837 643.962 484.216 644.25 484.696C644.538 485.176 644.682 485.704 644.682 486.28C644.682 486.877 644.527 487.405 644.218 487.864C643.919 488.312 643.519 488.659 643.018 488.904C643.626 489.128 644.106 489.496 644.458 490.008C644.81 490.509 644.986 491.101 644.986 491.784C644.986 492.477 644.81 493.091 644.458 493.624C644.106 494.157 643.615 494.568 642.986 494.856C642.356 495.144 641.642 495.288 640.842 495.288C640.042 495.288 639.327 495.144 638.698 494.856C638.079 494.568 637.594 494.157 637.242 493.624C636.89 493.091 636.714 492.477 636.714 491.784C636.714 491.091 636.89 490.493 637.242 489.992C637.594 489.491 638.068 489.128 638.666 488.904ZM642.938 486.504C642.938 485.907 642.751 485.448 642.378 485.128C642.004 484.808 641.492 484.648 640.842 484.648C640.202 484.648 639.695 484.808 639.322 485.128C638.948 485.448 638.762 485.912 638.762 486.52C638.762 487.053 638.954 487.491 639.338 487.832C639.732 488.163 640.234 488.328 640.842 488.328C641.45 488.328 641.951 488.157 642.346 487.816C642.74 487.475 642.938 487.037 642.938 486.504ZM640.842 489.704C640.138 489.704 639.562 489.88 639.114 490.232C638.676 490.573 638.458 491.069 638.458 491.72C638.458 492.328 638.671 492.824 639.098 493.208C639.524 493.581 640.106 493.768 640.842 493.768C641.567 493.768 642.138 493.576 642.554 493.192C642.98 492.808 643.194 492.317 643.194 491.72C643.194 491.08 642.975 490.584 642.538 490.232C642.111 489.88 641.546 489.704 640.842 489.704Z" fill="#222222"/>
<path d="M611.852 166.568V165.192L617.228 157.48H619.436V164.984H620.924V166.568H619.436V169H617.644V166.568H611.852ZM617.724 159.336L613.948 164.984H617.724V159.336ZM623.875 166.808L621.939 171.224H620.755L621.891 166.808H623.875ZM624.189 159V157.336H627.517V169H625.677V159H624.189ZM635.495 160.04C635.377 159.549 635.164 159.181 634.855 158.936C634.545 158.691 634.113 158.568 633.559 158.568C632.716 158.568 632.087 158.893 631.671 159.544C631.255 160.184 631.036 161.251 631.015 162.744C631.292 162.275 631.697 161.912 632.231 161.656C632.764 161.4 633.34 161.272 633.959 161.272C634.663 161.272 635.281 161.427 635.815 161.736C636.359 162.035 636.78 162.472 637.079 163.048C637.388 163.624 637.543 164.312 637.543 165.112C637.543 165.859 637.393 166.525 637.095 167.112C636.807 167.699 636.375 168.163 635.799 168.504C635.223 168.835 634.529 169 633.719 169C632.62 169 631.756 168.76 631.127 168.28C630.508 167.789 630.071 167.101 629.815 166.216C629.569 165.331 629.447 164.227 629.447 162.904C629.447 159 630.823 157.048 633.575 157.048C634.641 157.048 635.479 157.336 636.087 157.912C636.705 158.488 637.068 159.197 637.175 160.04H635.495ZM633.559 162.808C632.908 162.808 632.353 163.005 631.895 163.4C631.447 163.784 631.223 164.344 631.223 165.08C631.223 165.816 631.431 166.403 631.847 166.84C632.273 167.267 632.865 167.48 633.623 167.48C634.295 167.48 634.823 167.272 635.207 166.856C635.601 166.44 635.799 165.885 635.799 165.192C635.799 164.467 635.607 163.891 635.223 163.464C634.849 163.027 634.295 162.808 633.559 162.808ZM640.96 165.832C641.067 166.365 641.296 166.771 641.648 167.048C642 167.325 642.475 167.464 643.072 167.464C643.829 167.464 644.384 167.165 644.736 166.568C645.088 165.971 645.264 164.952 645.264 163.512C645.008 163.875 644.645 164.157 644.176 164.36C643.717 164.552 643.216 164.648 642.672 164.648C641.979 164.648 641.349 164.509 640.784 164.232C640.219 163.944 639.771 163.523 639.44 162.968C639.12 162.403 638.96 161.72 638.96 160.92C638.96 159.747 639.301 158.813 639.984 158.12C640.677 157.416 641.627 157.064 642.832 157.064C644.283 157.064 645.312 157.549 645.92 158.52C646.539 159.48 646.848 160.957 646.848 162.952C646.848 164.328 646.731 165.453 646.496 166.328C646.272 167.203 645.877 167.864 645.312 168.312C644.747 168.76 643.963 168.984 642.96 168.984C641.819 168.984 640.939 168.685 640.32 168.088C639.701 167.491 639.355 166.739 639.28 165.832H640.96ZM642.992 163.112C643.632 163.112 644.133 162.915 644.496 162.52C644.869 162.115 645.056 161.581 645.056 160.92C645.056 160.184 644.859 159.613 644.464 159.208C644.08 158.792 643.552 158.584 642.88 158.584C642.208 158.584 641.675 158.797 641.28 159.224C640.896 159.64 640.704 160.189 640.704 160.872C640.704 161.523 640.891 162.061 641.264 162.488C641.648 162.904 642.224 163.112 642.992 163.112Z" fill="#093660"/>
<path d="M671.051 492.52C672.075 491.635 672.88 490.909 673.467 490.344C674.064 489.768 674.56 489.171 674.955 488.552C675.349 487.933 675.547 487.315 675.547 486.696C675.547 486.056 675.392 485.555 675.083 485.192C674.784 484.829 674.309 484.648 673.659 484.648C673.029 484.648 672.539 484.851 672.187 485.256C671.845 485.651 671.664 486.184 671.643 486.856H669.883C669.915 485.64 670.277 484.712 670.971 484.072C671.675 483.421 672.565 483.096 673.643 483.096C674.805 483.096 675.712 483.416 676.363 484.056C677.024 484.696 677.355 485.549 677.355 486.616C677.355 487.384 677.157 488.125 676.763 488.84C676.379 489.544 675.915 490.179 675.371 490.744C674.837 491.299 674.155 491.944 673.323 492.68L672.603 493.32H677.675V494.84H669.899V493.512L671.051 492.52ZM678.477 489.016C678.477 487.171 678.787 485.731 679.405 484.696C680.035 483.651 681.112 483.128 682.637 483.128C684.163 483.128 685.235 483.651 685.853 484.696C686.483 485.731 686.797 487.171 686.797 489.016C686.797 490.883 686.483 492.344 685.853 493.4C685.235 494.445 684.163 494.968 682.637 494.968C681.112 494.968 680.035 494.445 679.405 493.4C678.787 492.344 678.477 490.883 678.477 489.016ZM685.005 489.016C685.005 488.152 684.947 487.421 684.829 486.824C684.723 486.227 684.499 485.741 684.157 485.368C683.816 484.984 683.309 484.792 682.637 484.792C681.965 484.792 681.459 484.984 681.117 485.368C680.776 485.741 680.547 486.227 680.429 486.824C680.323 487.421 680.269 488.152 680.269 489.016C680.269 489.912 680.323 490.664 680.429 491.272C680.536 491.88 680.76 492.371 681.101 492.744C681.453 493.117 681.965 493.304 682.637 493.304C683.309 493.304 683.816 493.117 684.157 492.744C684.509 492.371 684.739 491.88 684.845 491.272C684.952 490.664 685.005 489.912 685.005 489.016ZM687.687 485V483.336H691.015V495H689.175V485H687.687ZM694.993 491.832C695.1 492.365 695.329 492.771 695.681 493.048C696.033 493.325 696.508 493.464 697.105 493.464C697.862 493.464 698.417 493.165 698.769 492.568C699.121 491.971 699.297 490.952 699.297 489.512C699.041 489.875 698.678 490.157 698.209 490.36C697.75 490.552 697.249 490.648 696.705 490.648C696.012 490.648 695.382 490.509 694.817 490.232C694.252 489.944 693.804 489.523 693.473 488.968C693.153 488.403 692.993 487.72 692.993 486.92C692.993 485.747 693.334 484.813 694.017 484.12C694.71 483.416 695.66 483.064 696.865 483.064C698.316 483.064 699.345 483.549 699.953 484.52C700.572 485.48 700.881 486.957 700.881 488.952C700.881 490.328 700.764 491.453 700.529 492.328C700.305 493.203 699.91 493.864 699.345 494.312C698.78 494.76 697.996 494.984 696.993 494.984C695.852 494.984 694.972 494.685 694.353 494.088C693.734 493.491 693.388 492.739 693.313 491.832H694.993ZM697.025 489.112C697.665 489.112 698.166 488.915 698.529 488.52C698.902 488.115 699.089 487.581 699.089 486.92C699.089 486.184 698.892 485.613 698.497 485.208C698.113 484.792 697.585 484.584 696.913 484.584C696.241 484.584 695.708 484.797 695.313 485.224C694.929 485.64 694.737 486.189 694.737 486.872C694.737 487.523 694.924 488.061 695.297 488.488C695.681 488.904 696.257 489.112 697.025 489.112Z" fill="#222222"/>
<path d="M725.184 492.52C726.208 491.635 727.013 490.909 727.6 490.344C728.197 489.768 728.693 489.171 729.088 488.552C729.482 487.933 729.68 487.315 729.68 486.696C729.68 486.056 729.525 485.555 729.216 485.192C728.917 484.829 728.442 484.648 727.792 484.648C727.162 484.648 726.672 484.851 726.32 485.256C725.978 485.651 725.797 486.184 725.776 486.856H724.016C724.048 485.64 724.41 484.712 725.104 484.072C725.808 483.421 726.698 483.096 727.776 483.096C728.938 483.096 729.845 483.416 730.496 484.056C731.157 484.696 731.488 485.549 731.488 486.616C731.488 487.384 731.29 488.125 730.896 488.84C730.512 489.544 730.048 490.179 729.504 490.744C728.97 491.299 728.288 491.944 727.456 492.68L726.736 493.32H731.808V494.84H724.032V493.512L725.184 492.52ZM732.61 489.016C732.61 487.171 732.919 485.731 733.538 484.696C734.167 483.651 735.245 483.128 736.77 483.128C738.295 483.128 739.367 483.651 739.986 484.696C740.615 485.731 740.93 487.171 740.93 489.016C740.93 490.883 740.615 492.344 739.986 493.4C739.367 494.445 738.295 494.968 736.77 494.968C735.245 494.968 734.167 494.445 733.538 493.4C732.919 492.344 732.61 490.883 732.61 489.016ZM739.138 489.016C739.138 488.152 739.079 487.421 738.962 486.824C738.855 486.227 738.631 485.741 738.29 485.368C737.949 484.984 737.442 484.792 736.77 484.792C736.098 484.792 735.591 484.984 735.25 485.368C734.909 485.741 734.679 486.227 734.562 486.824C734.455 487.421 734.402 488.152 734.402 489.016C734.402 489.912 734.455 490.664 734.562 491.272C734.669 491.88 734.893 492.371 735.234 492.744C735.586 493.117 736.098 493.304 736.77 493.304C737.442 493.304 737.949 493.117 738.29 492.744C738.642 492.371 738.871 491.88 738.978 491.272C739.085 490.664 739.138 489.912 739.138 489.016ZM743.068 492.52C744.092 491.635 744.897 490.909 745.484 490.344C746.081 489.768 746.577 489.171 746.972 488.552C747.367 487.933 747.564 487.315 747.564 486.696C747.564 486.056 747.409 485.555 747.1 485.192C746.801 484.829 746.327 484.648 745.676 484.648C745.047 484.648 744.556 484.851 744.204 485.256C743.863 485.651 743.681 486.184 743.66 486.856H741.9C741.932 485.64 742.295 484.712 742.988 484.072C743.692 483.421 744.583 483.096 745.66 483.096C746.823 483.096 747.729 483.416 748.38 484.056C749.041 484.696 749.372 485.549 749.372 486.616C749.372 487.384 749.175 488.125 748.78 488.84C748.396 489.544 747.932 490.179 747.388 490.744C746.855 491.299 746.172 491.944 745.34 492.68L744.62 493.32H749.692V494.84H741.916V493.512L743.068 492.52ZM750.494 489.016C750.494 487.171 750.804 485.731 751.422 484.696C752.052 483.651 753.129 483.128 754.654 483.128C756.18 483.128 757.252 483.651 757.87 484.696C758.5 485.731 758.814 487.171 758.814 489.016C758.814 490.883 758.5 492.344 757.87 493.4C757.252 494.445 756.18 494.968 754.654 494.968C753.129 494.968 752.052 494.445 751.422 493.4C750.804 492.344 750.494 490.883 750.494 489.016ZM757.022 489.016C757.022 488.152 756.964 487.421 756.846 486.824C756.74 486.227 756.516 485.741 756.174 485.368C755.833 484.984 755.326 484.792 754.654 484.792C753.982 484.792 753.476 484.984 753.134 485.368C752.793 485.741 752.564 486.227 752.446 486.824C752.34 487.421 752.286 488.152 752.286 489.016C752.286 489.912 752.34 490.664 752.446 491.272C752.553 491.88 752.777 492.371 753.118 492.744C753.47 493.117 753.982 493.304 754.654 493.304C755.326 493.304 755.833 493.117 756.174 492.744C756.526 492.371 756.756 491.88 756.862 491.272C756.969 490.664 757.022 489.912 757.022 489.016Z" fill="#222222"/>
<path d="M723.774 123.568V122.192L729.15 114.48H731.358V121.984H732.846V123.568H731.358V126H729.566V123.568H723.774ZM729.646 116.336L725.87 121.984H729.646V116.336ZM735.797 123.808L733.861 128.224H732.677L733.813 123.808H735.797ZM743.871 115.904H738.511V119.088C738.735 118.789 739.065 118.539 739.503 118.336C739.951 118.133 740.425 118.032 740.927 118.032C741.823 118.032 742.548 118.224 743.103 118.608C743.668 118.992 744.068 119.477 744.303 120.064C744.548 120.651 744.671 121.269 744.671 121.92C744.671 122.709 744.516 123.413 744.207 124.032C743.908 124.64 743.455 125.12 742.847 125.472C742.249 125.824 741.513 126 740.639 126C739.476 126 738.543 125.712 737.839 125.136C737.135 124.56 736.713 123.797 736.575 122.848H738.351C738.468 123.349 738.729 123.749 739.135 124.048C739.54 124.336 740.047 124.48 740.655 124.48C741.412 124.48 741.977 124.251 742.351 123.792C742.735 123.333 742.927 122.725 742.927 121.968C742.927 121.2 742.735 120.613 742.351 120.208C741.967 119.792 741.401 119.584 740.655 119.584C740.132 119.584 739.689 119.717 739.327 119.984C738.975 120.24 738.719 120.592 738.559 121.04H736.831V114.304H743.871V115.904ZM745.545 123.568V122.192L750.921 114.48H753.129V121.984H754.617V123.568H753.129V126H751.337V123.568H745.545ZM751.417 116.336L747.641 121.984H751.417V116.336ZM755.089 116V114.336H758.417V126H756.577V116H755.089Z" fill="#093660"/>
<rect x="154" y="74" width="1" height="383" fill="#C4C4C4"/>
<rect x="756" y="456" width="1.00003" height="602" transform="rotate(90 756 456)" fill="#C4C4C4"/>
<circle cx="180" cy="307" r="5" fill="#2D6AA3"/>
<circle cx="236" cy="260" r="5" fill="#2D6AA3"/>
<circle cx="292" cy="235" r="5" fill="#2D6AA3"/>
<circle cx="348" cy="211" r="5" fill="#2D6AA3"/>
<circle cx="404" cy="164" r="5" fill="#2D6AA3"/>
<circle cx="461" cy="188" r="5" fill="#2D6AA3"/>
<circle cx="516" cy="185" r="5" fill="#2D6AA3"/>
<circle cx="572" cy="203" r="5" fill="#2D6AA3"/>
<circle cx="628" cy="188" r="5" fill="#2D6AA3"/>
<circle cx="684" cy="169" r="5" fill="#2D6AA3"/>
<circle cx="740" cy="141" r="5" fill="#2D6AA3"/>
<path d="M666.055 152.568V151.192L671.431 143.48H673.639V150.984H675.127V152.568H673.639V155H671.847V152.568H666.055ZM671.927 145.336L668.151 150.984H671.927V145.336ZM678.078 152.808L676.142 157.224H674.958L676.094 152.808H678.078ZM679.64 152.52C680.664 151.635 681.469 150.909 682.056 150.344C682.653 149.768 683.149 149.171 683.544 148.552C683.939 147.933 684.136 147.315 684.136 146.696C684.136 146.056 683.981 145.555 683.672 145.192C683.373 144.829 682.899 144.648 682.248 144.648C681.619 144.648 681.128 144.851 680.776 145.256C680.435 145.651 680.253 146.184 680.232 146.856H678.472C678.504 145.64 678.867 144.712 679.56 144.072C680.264 143.421 681.155 143.096 682.232 143.096C683.395 143.096 684.301 143.416 684.952 144.056C685.613 144.696 685.944 145.549 685.944 146.616C685.944 147.384 685.747 148.125 685.352 148.84C684.968 149.544 684.504 150.179 683.96 150.744C683.427 151.299 682.744 151.944 681.912 152.68L681.192 153.32H686.264V154.84H678.488V153.512L679.64 152.52ZM689.338 151.832C689.445 152.365 689.674 152.771 690.026 153.048C690.378 153.325 690.853 153.464 691.45 153.464C692.208 153.464 692.762 153.165 693.114 152.568C693.466 151.971 693.642 150.952 693.642 149.512C693.386 149.875 693.024 150.157 692.554 150.36C692.096 150.552 691.594 150.648 691.05 150.648C690.357 150.648 689.728 150.509 689.162 150.232C688.597 149.944 688.149 149.523 687.818 148.968C687.498 148.403 687.338 147.72 687.338 146.92C687.338 145.747 687.68 144.813 688.362 144.12C689.056 143.416 690.005 143.064 691.21 143.064C692.661 143.064 693.69 143.549 694.298 144.52C694.917 145.48 695.226 146.957 695.226 148.952C695.226 150.328 695.109 151.453 694.874 152.328C694.65 153.203 694.256 153.864 693.69 154.312C693.125 154.76 692.341 154.984 691.338 154.984C690.197 154.984 689.317 154.685 688.698 154.088C688.08 153.491 687.733 152.739 687.658 151.832H689.338ZM691.37 149.112C692.01 149.112 692.512 148.915 692.874 148.52C693.248 148.115 693.434 147.581 693.434 146.92C693.434 146.184 693.237 145.613 692.842 145.208C692.458 144.792 691.93 144.584 691.258 144.584C690.586 144.584 690.053 144.797 689.658 145.224C689.274 145.64 689.082 146.189 689.082 146.872C689.082 147.523 689.269 148.061 689.642 148.488C690.026 148.904 690.602 149.112 691.37 149.112ZM703.943 144.904H698.582V148.088C698.806 147.789 699.137 147.539 699.574 147.336C700.022 147.133 700.497 147.032 700.998 147.032C701.894 147.032 702.62 147.224 703.174 147.608C703.74 147.992 704.14 148.477 704.375 149.064C704.62 149.651 704.743 150.269 704.743 150.92C704.743 151.709 704.588 152.413 704.278 153.032C703.98 153.64 703.526 154.12 702.918 154.472C702.321 154.824 701.585 155 700.71 155C699.548 155 698.614 154.712 697.91 154.136C697.206 153.56 696.785 152.797 696.646 151.848H698.422C698.54 152.349 698.801 152.749 699.206 153.048C699.612 153.336 700.118 153.48 700.727 153.48C701.484 153.48 702.049 153.251 702.423 152.792C702.806 152.333 702.998 151.725 702.998 150.968C702.998 150.2 702.806 149.613 702.423 149.208C702.038 148.792 701.473 148.584 700.727 148.584C700.204 148.584 699.761 148.717 699.398 148.984C699.046 149.24 698.79 149.592 698.63 150.04H696.902V143.304H703.943V144.904Z" fill="#093660"/>
<path d="M179.5 306.5L235.5 259.5L293 234.5L347.5 210.5L404 164L461 188.5L516 185L572.5 203L628.5 187.5L684 169L740.5 140.5" stroke="#2D6AA3" stroke-width="2"/>
</svg>
