<svg width="90" height="151" viewBox="0 0 90 151" fill="none" xmlns="http://www.w3.org/2000/svg">
<g clip-path="url(#clip0_468_972)">
<path d="M74.0956 133.999C75.0056 136.279 73.0356 137.289 71.2256 137.679C70.9356 137.739 70.6356 137.799 70.3356 137.829C68.0756 138.169 65.6456 137.949 63.2956 137.439C61.1956 136.969 57.8056 135.899 55.9256 135.119L55.2656 134.979C55.6856 132.999 55.9756 130.989 56.1256 128.969L56.7256 129.019C58.4456 130.049 62.7556 131.679 64.0156 132.029C64.1856 132.079 64.3856 132.129 64.5856 132.169C65.5256 132.399 66.7056 132.619 67.5456 132.679C68.4456 132.739 69.3556 132.709 70.1956 132.679C72.0256 132.639 73.5656 132.669 74.0956 133.999Z" fill="#F9C03D"/>
<path d="M47.1455 126.609C55.1455 127.609 58.3355 130.459 64.0055 132.039C64.1755 132.089 64.3755 132.139 64.5755 132.179C65.5155 132.409 66.6955 132.629 67.5355 132.689C68.4355 132.749 69.3455 132.719 70.1855 132.689C72.0255 132.649 73.5555 132.679 74.0855 134.009C74.9955 136.289 73.0255 137.299 71.2155 137.689C70.9255 137.749 70.6255 137.809 70.3255 137.839C68.0655 138.179 65.6355 137.959 63.2855 137.449C61.1855 136.979 57.7955 135.909 55.9155 135.129C55.9155 135.129 50.4755 132.279 47.1455 132.109" stroke="#6A3907" stroke-width="2" stroke-miterlimit="10" stroke-linecap="round" stroke-linejoin="round"/>
<path d="M69.626 133.189C69.626 133.189 70.736 135.849 69.836 136.869L70.686 136.769L71.816 136.639L72.256 136.559C73.016 134.269 71.716 132.869 71.716 132.869" fill="#6A3907"/>
<path d="M67.6556 133.528L65.5756 132.918C65.5756 132.918 65.6856 135.548 64.2656 136.908L66.9056 137.598C68.4156 135.708 67.8556 133.748 67.8556 133.748" fill="#6A3907"/>
<path d="M62.3158 132.028L60.2358 131.418C60.2358 131.418 60.3458 134.048 58.9258 135.408L61.5658 136.098C63.0758 134.208 62.5158 132.248 62.5158 132.248" fill="#6A3907"/>
<path d="M57.186 130.229L55.196 129.379C55.196 129.379 54.986 132.009 53.416 133.179L55.956 134.179C57.686 132.489 57.366 130.469 57.366 130.469" fill="#6A3907"/>
<path d="M51.5258 128.089L49.4157 127.629C49.4157 127.629 49.7057 130.249 48.3857 131.699L51.0657 132.199C52.4457 130.219 51.7557 128.289 51.7557 128.289" fill="#6A3907"/>
<path d="M63.876 123.819C63.956 125.539 63.916 127.259 63.786 128.969C63.636 130.989 63.346 132.999 62.926 134.979C62.776 135.709 62.606 136.439 62.416 137.159C61.596 140.249 60.426 145.409 57.266 146.969C56.126 147.529 54.096 147.739 52.776 147.509C46.516 146.469 51.716 134.699 45.396 134.559C39.076 134.699 44.276 146.469 38.016 147.509C36.696 147.739 34.666 147.529 33.526 146.969C30.366 145.409 29.196 140.249 28.376 137.159C27.226 132.809 26.736 128.309 26.916 123.819H26.886C25.666 125.869 20.956 127.549 18.396 124.019C17.256 122.449 17.506 119.439 17.896 117.769C19.266 111.859 21.766 105.249 24.956 99.7789C26.266 97.5389 27.396 96.0189 29.396 95.2689L29.416 94.9289C35.926 96.2789 42.026 96.3689 45.396 96.2689C48.816 96.3689 55.036 96.2689 61.646 94.8789L61.756 95.4189C63.536 96.2089 64.606 97.6789 65.836 99.7789C69.026 105.249 71.526 111.859 72.896 117.769C73.286 119.439 73.536 122.449 72.396 124.019C69.836 127.549 65.126 125.869 63.906 123.819H63.876Z" fill="#F9C03D"/>
<path d="M49.6455 142.649C49.6455 142.649 55.5255 144.149 59.8955 142.269C63.6755 140.649 60.0155 144.649 60.0155 144.649L56.5155 147.029L52.7655 147.769L50.3855 146.149L49.6455 142.649Z" fill="white"/>
<path d="M73.276 118.768C73.276 118.768 68.156 119.648 64.156 121.648L63.876 123.818L67.396 125.768L71.146 125.388L73.526 122.388L73.276 118.768Z" fill="white"/>
<path d="M17.5256 118.768C17.5256 118.768 22.6456 119.648 26.6456 121.648L26.9156 123.818L23.3956 125.768L19.6456 125.388L17.2656 122.388L17.5256 118.768Z" fill="white"/>
<path d="M61.3955 95.2676C61.5255 95.3176 61.6455 95.3676 61.7555 95.4176C63.5355 96.2076 64.6055 97.6776 65.8355 99.7776C69.0255 105.248 71.5255 111.858 72.8955 117.768C73.2855 119.438 73.5355 122.448 72.3955 124.018C69.8355 127.548 65.1255 125.868 63.9055 123.818" stroke="#6A3907" stroke-width="2" stroke-miterlimit="10" stroke-linecap="round" stroke-linejoin="round"/>
<path d="M60.8962 105.768C62.6762 111.328 63.5162 117.128 63.8462 122.948C63.8662 123.238 63.8762 123.528 63.8762 123.818C63.9562 125.538 63.9162 127.258 63.7862 128.968C63.6362 130.988 63.3462 132.998 62.9262 134.978C62.7762 135.708 62.6062 136.438 62.4162 137.158C61.5962 140.248 60.5562 145.578 57.3962 147.138C56.2562 147.698 54.0962 147.738 52.7762 147.508C46.5162 146.468 51.7162 134.698 45.3962 134.558C45.3062 134.548 45.2162 134.548 45.1162 134.548" stroke="#6A3907" stroke-width="2" stroke-miterlimit="10" stroke-linecap="round" stroke-linejoin="round"/>
<path d="M41.1463 142.649C41.1463 142.649 35.2663 144.149 30.8963 142.269C27.1163 140.649 30.7762 144.649 30.7762 144.649L34.2763 147.029L38.0263 147.769L40.4062 146.149L41.1463 142.649Z" fill="white"/>
<path d="M29.8962 105.768C28.1162 111.328 27.2762 117.128 26.9462 122.948C26.9262 123.238 26.9162 123.528 26.9162 123.818C26.8362 125.538 26.8762 127.258 27.0062 128.968C27.1562 130.988 27.4462 132.998 27.8662 134.978C28.0162 135.708 28.1862 136.438 28.3762 137.158C29.1962 140.248 30.2362 145.578 33.3962 147.138C34.5362 147.698 36.6962 147.738 38.0162 147.508C44.2762 146.468 39.0762 134.698 45.3962 134.558C45.4862 134.548 45.5762 134.548 45.6762 134.548" stroke="#6A3907" stroke-width="2" stroke-miterlimit="10" stroke-linecap="round" stroke-linejoin="round"/>
<path d="M29.396 95.2676C27.396 96.0176 26.266 97.5376 24.956 99.7776C21.766 105.248 19.266 111.858 17.896 117.768C17.506 119.438 17.256 122.448 18.396 124.018C20.956 127.548 25.666 125.868 26.886 123.818" stroke="#6A3907" stroke-width="2" stroke-miterlimit="10" stroke-linecap="round" stroke-linejoin="round"/>
<path d="M68.7159 107.278C68.8659 107.638 69.0158 107.998 69.1658 108.368C67.4158 109.198 65.7858 109.578 64.9858 108.818C63.4558 107.338 66.3359 106.148 67.2459 105.508C67.4559 105.368 67.6458 105.238 67.8458 105.098C68.1458 105.838 68.4259 106.578 68.7159 107.278Z" fill="#6A3907"/>
<path d="M70.5254 111.609C70.9654 112.689 71.3754 113.759 71.7754 114.859C69.9854 115.539 68.3454 115.789 67.6154 114.969C66.2054 113.389 69.1654 112.419 70.1254 111.849C70.2654 111.769 70.4054 111.689 70.5254 111.609Z" fill="#6A3907"/>
<path d="M60.9356 137.049C59.8156 137.309 56.6257 137.339 57.4457 139.209C57.8657 140.179 59.5457 140.409 61.5257 140.289C61.6557 139.139 61.7257 137.999 61.7357 136.869C61.4657 136.939 61.2156 136.989 60.9356 137.049Z" fill="#6A3907"/>
<path d="M28.706 131.509C29.826 131.739 33.026 131.719 32.216 133.599C31.826 134.529 30.236 134.819 28.336 134.769C28.236 134.439 28.146 134.119 28.046 133.809C27.966 132.979 27.926 132.169 27.916 131.359C28.186 131.399 28.436 131.459 28.706 131.509Z" fill="#6A3907"/>
<path d="M29.8557 137.049C30.9757 137.309 34.1657 137.339 33.3457 139.209C32.9257 140.179 31.2457 140.409 29.2657 140.289C29.1357 139.139 29.0657 137.999 29.0557 136.869C29.3257 136.939 29.5857 136.989 29.8557 137.049Z" fill="#6A3907"/>
<path d="M22.076 107.278C21.926 107.638 21.776 107.998 21.626 108.368C23.376 109.198 25.006 109.578 25.806 108.818C27.336 107.338 24.456 106.148 23.546 105.508C23.336 105.368 23.146 105.238 22.946 105.098C22.656 105.838 22.366 106.578 22.076 107.278Z" fill="#6A3907"/>
<path d="M20.2656 111.609C19.8356 112.689 19.4156 113.759 19.0156 114.859C20.8056 115.539 22.4456 115.789 23.1756 114.969C24.5856 113.389 21.6256 112.419 20.6656 111.849C20.5256 111.769 20.3956 111.689 20.2656 111.609Z" fill="#6A3907"/>
<path d="M31.3185 114.293C31.5868 114.319 31.7891 114.328 31.8793 114.328C32.1344 114.319 33.0646 113.977 32.9964 115.56C32.9239 117.228 31.7561 116.937 31.4307 116.972C30.4718 117.092 30.1794 116.818 29.2337 116.398C29.1963 116.381 27.9956 115.637 28 115.543C28.0418 114.687 28.0726 112.821 28.1386 112C27.9582 112.95 29.8693 114.139 31.3185 114.293Z" fill="#6A3907"/>
<path d="M20.9058 117.388C20.9258 117.318 20.9458 117.238 20.9558 117.178C20.9058 117.248 20.8958 117.318 20.9058 117.388Z" fill="#6A3907"/>
<path d="M31.7944 121.074C31.6168 121.065 31.2109 121.028 30.6782 120.956C29.486 120.801 28.1415 120.437 27 120C27.0592 121.074 27.093 122.148 27.1142 123.203C28.5093 123.676 29.1604 123.94 30.8389 123.94C31.49 123.94 33.8068 124.432 33.9886 122.594C34.162 120.855 32.3017 121.101 31.7944 121.074Z" fill="#6A3907"/>
<path d="M59.1686 118.865C59.3494 118.826 59.7525 118.721 60.2899 118.568C61.4887 118.224 62.8322 117.641 63.9638 117C63.9535 118.138 63.969 119.266 64 120.375C62.61 121.083 61.9641 121.456 60.2692 121.714C59.6129 121.81 57.2928 122.69 57.0241 120.787C56.7658 118.999 58.657 118.97 59.1686 118.865Z" fill="#6A3907"/>
<path d="M58.5575 108.933C58.6862 108.887 58.9774 108.777 59.3606 108.62C60.219 108.252 61.1815 107.644 61.9939 107C61.9816 108.095 61.9847 109.182 62 110.258C61.0037 110.976 60.5408 111.363 59.33 111.667C58.861 111.786 57.1964 112.698 57.0155 110.875C56.8408 109.126 58.1896 109.053 58.5575 108.933Z" fill="#6A3907"/>
<path d="M56 116.019C56 121.527 51.0664 126 45 126C38.9187 126 34 121.527 34 116.019C34 110.512 38.9336 104 45 104C51.0664 104.015 56 110.512 56 116.019Z" fill="white"/>
<path d="M29.3912 107.068C29.3614 107.034 29.3147 107.025 29.2679 107C29.1871 107.931 29.1021 108.812 29 109.676C28.9915 109.743 30.233 110.59 31.33 110.869C31.6956 110.962 32.8095 111.301 32.9583 110.302C33.2432 108.397 31.9847 108.49 31.6828 108.397C30.0545 107.906 29.7738 107.559 29.3912 107.068Z" fill="#6A3907"/>
<path d="M84.231 32.7904C82.2013 28.9704 79.7013 25.6304 76.7413 22.8004C72.4813 18.7304 68.6313 15.8504 62.5013 13.9504L61.3113 13.2604C63.0913 4.62044 73.3913 6.22041 77.6913 6.64041C81.2313 6.98041 79.0713 5.52045 79.0713 5.52045L80.6913 6.64041C77.3713 3.62045 70.8113 0.620435 66.5713 0.760435C59.7613 1.00043 55.8213 6.01041 55.8213 12.2604L55.7713 12.5204C52.5013 11.8904 49.0213 11.5604 45.3213 11.5104C41.6213 11.5604 38.1413 11.8904 34.8713 12.5204L34.8213 12.2604C34.8213 6.01041 30.8813 1.00043 24.0713 0.760435C19.8213 0.610435 14.8613 2.46045 11.5413 5.48045L11.5713 5.51045C11.5713 5.51045 7.91131 9.2204 11.4513 8.8904C15.7513 8.4804 23.9213 5.75044 25.7013 14.3904L24.5813 15.3904C17.9813 17.4304 17.3613 19.2004 12.9313 23.7704C10.3913 26.3804 8.21132 29.4004 6.41132 32.8004C0.301316 44.3404 1.25132 62.2704 4.49132 74.7704C7.74132 87.3204 19.0613 92.5604 29.3513 94.6804C35.8613 96.03 41.9613 96.12 45.3313 96.02C48.7513 96.12 54.9713 96.02 61.5813 94.6304C71.7913 92.4704 82.9413 87.2104 86.171 74.7704C89.391 62.2604 90.351 44.3304 84.231 32.7904Z" fill="#F9C03D"/>
<path d="M63.6615 62.9297C66.2315 62.9297 68.3115 64.5697 68.3115 66.5897C68.3115 68.6197 66.2315 70.2597 63.6615 70.2597C61.1015 70.2597 59.0215 68.6197 59.0215 66.5897C59.0315 64.5697 61.1015 62.9297 63.6615 62.9297Z" fill="#6A3907"/>
<path d="M26.9713 62.9297C24.4013 62.9297 22.3213 64.5697 22.3213 66.5897C22.3213 68.6197 24.4013 70.2597 26.9713 70.2597C29.5313 70.2597 31.6113 68.6197 31.6113 66.5897C31.6113 64.5697 29.5313 62.9297 26.9713 62.9297Z" fill="#6A3907"/>
<path d="M81.9612 11.0395C83.7412 15.6595 80.5012 20.0995 77.5912 23.1995L76.5512 23.2395C76.3212 23.2495 75.5612 22.3395 75.3712 22.1795C74.9412 21.8195 74.5112 21.4595 74.0712 21.1195C73.1812 20.4295 72.2512 19.7795 71.3012 19.1695C69.3412 17.9195 67.2612 16.8695 65.1112 15.9895C64.3312 15.6695 63.5412 15.3795 62.7412 15.1095C59.9912 14.1695 62.2912 8.5795 63.4112 7.1595C65.9012 3.96947 69.4612 3.53947 72.6912 4.00947C76.5712 4.57947 80.5412 7.3695 81.9612 11.0395Z" fill="white" stroke="white" stroke-width="0.25" stroke-miterlimit="10"/>
<path d="M8.68129 11.0395C6.90129 15.6595 10.1413 20.0995 13.0513 23.1995L14.0913 23.2395C14.3113 23.2495 15.0813 22.3395 15.2713 22.1795C15.7013 21.8195 16.1313 21.4595 16.5713 21.1195C17.4613 20.4295 18.3913 19.7795 19.3513 19.1695C21.3113 17.9195 23.3913 16.8695 25.5413 15.9895C26.3213 15.6695 27.1113 15.3795 27.9113 15.1095C30.6613 14.1695 28.3613 8.5795 27.2413 7.1595C24.7513 3.96947 21.1913 3.53947 17.9613 4.00947C14.0613 4.57947 10.0913 7.3695 8.68129 11.0395Z" fill="white" stroke="white" stroke-width="0.25" stroke-miterlimit="10"/>
<path fill-rule="evenodd" clip-rule="evenodd" d="M46.3114 11.4963C46.3189 12.0485 45.8772 12.5022 45.325 12.5097C41.6756 12.559 38.2551 12.8843 35.0507 13.5017C34.5084 13.6062 33.9841 13.2513 33.8796 12.7089C33.7751 12.1666 34.13 11.6423 34.6723 11.5378C38.0079 10.8952 41.5473 10.5605 45.298 10.5099C45.8502 10.5024 46.3039 10.944 46.3114 11.4963Z" fill="#6A3907"/>
<path fill-rule="evenodd" clip-rule="evenodd" d="M44.3116 11.4963C44.3191 10.944 44.7728 10.5024 45.325 10.5099C49.0757 10.5605 52.6152 10.8952 55.9507 11.5378C56.493 11.6423 56.848 12.1666 56.7435 12.7089C56.639 13.2513 56.1147 13.6062 55.5724 13.5017C52.3679 12.8843 48.9474 12.559 45.298 12.5097C44.7458 12.5022 44.3042 12.0485 44.3116 11.4963Z" fill="#6A3907"/>
<path d="M10.8599 4.73955C14.3645 1.5523 19.5752 -0.398538 24.0968 -0.238948C27.754 -0.110058 30.7061 1.30903 32.7374 3.59195C34.7597 5.86483 35.8115 8.9276 35.8115 12.2604C35.8115 12.8127 35.3638 13.2604 34.8115 13.2604C34.2593 13.2604 33.8115 12.8127 33.8115 12.2604C33.8115 9.3433 32.8934 6.776 31.2432 4.92141C29.602 3.07683 27.1791 1.87092 24.0263 1.75981C20.0485 1.61942 15.3398 3.36809 12.2044 6.2202L12.2019 6.2225C10.8447 7.4486 9.81983 8.8515 9.24693 10.3641C7.62993 14.6415 9.98643 19.1433 12.9175 22.3225L13.6382 23.0629C14.016 23.4511 14.016 24.0696 13.6382 24.4579C11.1683 26.9959 9.04343 29.9375 7.28533 33.2583C4.33223 38.8359 3.05513 46.0281 2.93523 53.4316C2.81553 60.8227 3.85053 68.3404 5.44963 74.5095C8.55143 86.4873 19.3638 91.5938 29.5433 93.691L29.5446 93.6913C35.9465 95.0188 41.7096 95.0503 45.3105 95.0105C45.8628 95.0044 46.3154 95.4471 46.3215 95.9994C46.3276 96.552 45.8849 97.004 45.3326 97.01C41.6937 97.051 35.7573 97.022 29.1398 95.6499C18.7394 93.5071 6.91173 88.1332 3.51353 75.0111C1.87263 68.6803 0.812629 60.983 0.935429 53.3992C1.05803 45.8277 2.36093 38.2849 5.51783 32.3225C7.20013 29.1448 9.21053 26.2848 11.5349 23.7695L11.475 23.7079C11.4688 23.7016 11.4627 23.6952 11.4567 23.6887C8.39203 20.3686 5.33533 15.0544 7.37643 9.6563C8.08333 7.7896 9.31783 6.133 10.8599 4.73955Z" fill="#6A3907"/>
<path d="M78.4186 6.2202C75.2832 3.36809 70.5746 1.61941 66.5968 1.75981C63.444 1.87092 61.0211 3.07683 59.3799 4.92141C57.7297 6.776 56.8115 9.3433 56.8115 12.2604C56.8115 12.8127 56.3638 13.2604 55.8115 13.2604C55.2592 13.2604 54.8115 12.8127 54.8115 12.2604C54.8115 8.9276 55.8634 5.86483 57.8857 3.59195C59.9169 1.30904 62.8691 -0.11005 66.5263 -0.23895C71.0479 -0.39852 76.2586 1.55232 79.7632 4.73957C81.3053 6.1331 82.5398 7.7896 83.2467 9.6563C85.288 15.0544 82.231 20.3686 79.1663 23.6887L79.1529 23.7029L79.0937 23.7646C81.4201 26.2811 83.4319 29.1427 85.115 32.3225C88.272 38.2849 89.575 45.8277 89.698 53.3992C89.82 60.983 88.761 68.6803 87.12 75.0111C83.7214 88.1333 71.8938 93.5071 61.4933 95.6499C55.7541 96.84 50.6093 96.922 46.9249 96.981C46.3597 96.99 45.8289 96.998 45.3355 97.01C44.7834 97.023 44.3251 96.587 44.3118 96.034C44.2986 95.4823 44.7354 95.024 45.2875 95.0107C45.7961 94.9985 46.3375 94.9897 46.9091 94.9804H46.9106C50.5991 94.9205 55.5481 94.8402 61.0885 93.6913L61.0898 93.691C71.2693 91.5938 82.0816 86.4875 85.183 74.5097C86.783 68.3406 87.818 60.8227 87.698 53.4316C87.578 46.0281 86.301 38.836 83.3478 33.2584C81.5897 29.9376 79.4648 26.9959 76.9949 24.4579C76.619 24.0716 76.6169 23.4568 76.9902 23.0679L77.7033 22.325C80.6354 19.1456 82.9937 14.6431 81.3763 10.3646C80.8035 8.8518 79.7785 7.4487 78.4212 6.2225L78.4186 6.2202Z" fill="#6A3907"/>
<path d="M57.5615 80.0098C57.5615 86.6398 52.0815 92.0098 45.3115 92.0098C38.5415 92.0098 33.0615 86.6398 33.0615 80.0098C33.0615 73.3798 38.5415 68.0098 45.3115 68.0098C52.0815 68.0098 57.5615 73.3898 57.5615 80.0098Z" fill="white"/>
<path d="M40.6914 81.7198L45.3114 80.0098L50.4414 81.8398L51.1914 86.7198L49.3214 91.8398L44.4414 92.9698L40.3214 90.4698L38.9414 86.7198L40.6914 81.7198Z" fill="#FF7171"/>
<path d="M58.5417 23.1998C58.5417 21.8698 54.4716 20.7498 48.9316 20.4198C49.0716 17.5498 49.2116 14.6798 49.3416 11.8098C49.0516 11.7898 48.7617 11.7698 48.4617 11.7598C46.1617 12.0898 43.8917 12.3798 41.4917 12.2598C41.6217 14.9798 41.7517 17.6998 41.8817 20.4298C36.4217 20.7798 32.4316 21.8898 32.4316 23.1998C32.4316 24.5298 36.5517 25.6498 42.1417 25.9698C42.2517 28.1498 42.3517 30.3298 42.4617 32.5098C38.0917 32.8198 34.9117 33.7998 34.9117 34.9598C34.9117 36.1398 38.2117 37.1198 42.6917 37.4198C42.7417 38.5298 42.8017 39.6298 42.8517 40.7398C42.9017 41.6398 43.4916 44.0098 45.4016 44.0098C47.3216 44.0098 47.9117 41.6398 47.9617 40.7398C48.0117 39.6398 48.0616 38.5298 48.1216 37.4298C52.6916 37.1498 56.0616 36.1498 56.0616 34.9598C56.0616 33.7798 52.8017 32.7998 48.3517 32.4998C48.4617 30.3198 48.5617 28.1498 48.6617 25.9798C54.3417 25.6698 58.5417 24.5398 58.5417 23.1998Z" fill="#6A3907"/>
<path d="M45.432 74.5112C46.552 74.4312 48.112 73.9712 48.202 72.4212C48.282 70.9912 46.392 70.5312 45.382 70.5412C44.382 70.5312 42.482 70.9912 42.562 72.4212C42.652 73.9712 44.212 74.4312 45.332 74.5112H45.432Z" fill="#6A3907"/>
<path fill-rule="evenodd" clip-rule="evenodd" d="M53.023 77.8945C53.556 78.0391 53.8708 78.5885 53.7262 79.1215C53.2455 80.8933 51.8289 81.6441 50.7224 81.9467C50.1648 82.0992 49.6431 82.1532 49.2659 82.1705C49.0754 82.1792 48.9168 82.1787 48.8027 82.1759C48.7456 82.1744 48.6992 82.1724 48.6652 82.1706C48.6587 82.1702 48.6526 82.1699 48.647 82.1695C47.1407 82.1615 46.0964 81.6204 45.424 81.0323C45.0927 80.7426 44.8615 80.4504 44.71 80.2241C44.634 80.1105 44.5772 80.0123 44.5371 79.9372C44.517 79.8996 44.501 79.8677 44.4888 79.8423C44.4828 79.8296 44.4776 79.8186 44.4734 79.8093L44.4677 79.7966L44.4653 79.7913L44.4643 79.7889L44.4638 79.7877C44.4635 79.7872 44.4633 79.7866 45.3757 79.3919L44.4633 79.7866C44.244 79.2798 44.4772 78.6911 44.9841 78.4718C45.4863 78.2546 46.0688 78.4814 46.2928 78.9786C46.2941 78.9813 46.2969 78.9868 46.3012 78.995C46.3131 79.0173 46.3362 79.0581 46.3719 79.1114C46.4438 79.2188 46.5632 79.3717 46.7407 79.5269C47.0808 79.8244 47.6757 80.1696 48.6811 80.1696C48.7065 80.1696 48.7319 80.1706 48.7573 80.1725C48.7584 80.1726 48.7596 80.1727 48.7607 80.1728L48.6811 81.1696C48.7607 80.1728 48.7604 80.1728 48.76 80.1727H48.7594L48.7583 80.1726L48.7571 80.1725H48.7569C48.7569 80.1725 48.7571 80.1725 48.7573 80.1725C48.7575 80.1725 48.7577 80.1726 48.758 80.1726L48.7732 80.1735C48.7891 80.1743 48.8161 80.1756 48.8527 80.1765C48.9262 80.1783 49.0372 80.1788 49.1745 80.1725C49.4528 80.1598 49.8199 80.1201 50.1948 80.0175C50.9534 79.8101 51.5767 79.406 51.796 78.5978C51.9406 78.0648 52.49 77.7499 53.023 77.8945Z" fill="#6A3907"/>
<path fill-rule="evenodd" clip-rule="evenodd" d="M37.7386 77.8945C37.2056 78.0391 36.8908 78.5885 37.0354 79.1215C37.5161 80.8933 38.9328 81.6441 40.0392 81.9467C40.5968 82.0992 41.1185 82.1532 41.4957 82.1705C41.6862 82.1792 41.8448 82.1787 41.9589 82.1759C42.0161 82.1744 42.0624 82.1724 42.0964 82.1706C42.1029 82.1702 42.109 82.1699 42.1147 82.1695C43.6209 82.1615 44.6653 81.6204 45.3376 81.0323C45.6689 80.7426 45.9001 80.4504 46.0516 80.2241C46.1276 80.1105 46.1845 80.0123 46.2245 79.9372C46.2446 79.8996 46.2606 79.8677 46.2728 79.8423C46.2789 79.8296 46.284 79.8186 46.2883 79.8093L46.2939 79.7966L46.2963 79.7913L46.2973 79.7889L46.2978 79.7877C46.2981 79.7872 46.2983 79.7866 45.3859 79.3919L46.2983 79.7866C46.5176 79.2798 46.2844 78.6911 45.7775 78.4718C45.2753 78.2546 44.6928 78.4814 44.4689 78.9786C44.4676 78.9813 44.4648 78.9868 44.4604 78.995C44.4485 79.0173 44.4254 79.0581 44.3897 79.1114C44.3178 79.2188 44.1984 79.3717 44.0209 79.5269C43.6808 79.8244 43.0859 80.1696 42.0805 80.1696C42.0551 80.1696 42.0297 80.1706 42.0043 80.1725C42.0032 80.1726 42.002 80.1727 42.0009 80.1728L42.0805 81.1696C42.0009 80.1728 42.0013 80.1728 42.0016 80.1727H42.0022L42.0033 80.1726L42.0046 80.1725H42.0047C42.0047 80.1725 42.0045 80.1725 42.0043 80.1725C42.0041 80.1725 42.0039 80.1726 42.0036 80.1726L41.9884 80.1735C41.9725 80.1743 41.9456 80.1756 41.9089 80.1765C41.8354 80.1783 41.7245 80.1788 41.5872 80.1725C41.3088 80.1598 40.9417 80.1201 40.5668 80.0175C39.8082 79.8101 39.1849 79.406 38.9656 78.5978C38.821 78.0648 38.2717 77.7499 37.7386 77.8945Z" fill="#6A3907"/>
<path d="M68.3614 51.1011C68.3614 52.3411 67.3514 53.3511 66.1114 53.3511H61.2812C60.0412 53.3511 59.0312 52.3411 59.0312 51.1011C59.0312 47.4511 68.3614 47.7611 68.3614 51.1011Z" fill="white" stroke="white" stroke-width="0.25" stroke-miterlimit="10"/>
<path d="M22.2715 51.1011C22.2715 52.3411 23.2815 53.3511 24.5215 53.3511H29.3515C30.5915 53.3511 31.6015 52.3411 31.6015 51.1011C31.6115 47.4511 22.2715 47.7611 22.2715 51.1011Z" fill="white" stroke="white" stroke-width="0.25" stroke-miterlimit="10"/>
<path d="M75.9511 76.0914C74.4411 76.1714 72.4011 76.1914 70.9911 76.8014C70.4111 77.0514 70.2711 77.2514 70.0111 77.5114C68.9711 78.5614 69.9111 79.7014 71.7811 80.0514C74.3911 80.5414 77.3811 80.4914 80.0111 80.4514C80.8111 80.4414 82.3011 80.5314 83.2411 80.5114C84.001 79.0914 84.211 77.5914 85.141 76.2714C82.0811 76.1014 79.0011 75.9314 75.9511 76.0914Z" fill="#6A3907"/>
<path d="M76.4314 84.6195C75.0914 84.7095 73.6914 84.5795 72.4414 85.1295C71.9314 85.3595 71.4914 85.6395 71.2514 85.8795C70.3414 86.8195 71.1114 87.8795 72.7714 88.1695C74.2314 88.4295 76.0714 88.4895 77.8214 88.4895C78.8314 87.2795 79.6814 85.9395 80.4614 84.5395C79.1114 84.5295 77.7714 84.5295 76.4314 84.6195Z" fill="#6A3907"/>
<path d="M14.5213 76.0914C16.0313 76.1714 18.0713 76.1914 19.4813 76.8014C20.0613 77.0514 20.2013 77.2514 20.4613 77.5114C21.5013 78.5614 20.5613 79.7014 18.6913 80.0514C16.0813 80.5414 13.0913 80.4914 10.4613 80.4514C9.66129 80.4414 8.17129 80.5314 7.23129 80.5114C6.47129 79.0914 6.26129 77.5914 5.32129 76.2714C8.39129 76.1014 11.4613 75.9314 14.5213 76.0914Z" fill="#6A3907"/>
<path d="M14.0417 84.6195C15.3817 84.7095 16.7817 84.5795 18.0317 85.1295C18.5417 85.3595 18.9917 85.6395 19.2217 85.8795C20.1317 86.8195 19.3617 87.8795 17.7017 88.1695C16.2417 88.4295 14.4017 88.4895 12.6517 88.4895C11.6417 87.2795 10.8017 85.9395 10.0117 84.5395C11.3517 84.5295 12.7017 84.5295 14.0417 84.6195Z" fill="#6A3907"/>
<path fill-rule="evenodd" clip-rule="evenodd" d="M40.7165 80.3024C41.2239 80.5207 41.4582 81.1089 41.2399 81.6162L40.3214 81.221C41.2399 81.6162 41.24 81.6159 41.2401 81.6157L41.2402 81.6154C41.2402 81.6153 41.2402 81.6154 41.2401 81.6157L41.2399 81.6162L41.2385 81.6193L41.2304 81.6387C41.2228 81.6569 41.211 81.6856 41.1955 81.7241C41.1646 81.8011 41.1192 81.9171 41.0642 82.0663C40.954 82.3652 40.8058 82.7954 40.6575 83.3123C40.3581 84.3562 40.0713 85.7086 40.0713 87.031C40.0713 88.363 40.3611 89.5385 41.0793 90.373C41.7727 91.1788 43.0179 91.841 45.3213 91.841C45.8736 91.841 46.3213 92.2887 46.3213 92.841C46.3213 93.3932 45.8736 93.841 45.3213 93.841C42.6247 93.841 40.7449 93.0506 39.5633 91.6776C38.4065 90.3334 38.0713 88.6039 38.0713 87.031C38.0713 85.4483 38.4095 83.8957 38.7351 82.7608C38.8993 82.1884 39.0636 81.7108 39.1878 81.3742C39.2499 81.2057 39.3022 81.072 39.3396 80.9788C39.3583 80.9322 39.3734 80.8956 39.3841 80.8699L39.3969 80.8394L39.4007 80.8305L39.4019 80.8275L39.4024 80.8265C39.4026 80.8261 39.4027 80.8257 40.3109 81.2165L39.4027 80.8257C39.621 80.3184 40.2092 80.0841 40.7165 80.3024Z" fill="#6A3907"/>
<path fill-rule="evenodd" clip-rule="evenodd" d="M49.926 80.3024C50.4333 80.0841 51.0216 80.3184 51.2399 80.8257L50.3213 81.221C51.2399 80.8257 51.24 80.8261 51.2402 80.8265L51.2407 80.8275L51.2419 80.8305L51.2457 80.8394L51.2585 80.8699C51.2692 80.8956 51.2842 80.9322 51.303 80.9788C51.3404 81.072 51.3927 81.2057 51.4548 81.3742C51.579 81.7108 51.7433 82.1884 51.9075 82.7608C52.2331 83.8957 52.5713 85.4483 52.5713 87.031C52.5713 88.6039 52.2361 90.3334 51.0793 91.6776C49.8977 93.0506 48.0179 93.841 45.3213 93.841C44.769 93.841 44.3213 93.3932 44.3213 92.841C44.3213 92.2887 44.769 91.841 45.3213 91.841C47.6247 91.841 48.8699 91.1788 49.5633 90.373C50.2815 89.5385 50.5713 88.363 50.5713 87.031C50.5713 85.7086 50.2845 84.3562 49.9851 83.3123C49.8368 82.7954 49.6886 82.3652 49.5784 82.0663C49.5233 81.9171 49.478 81.8011 49.447 81.7241C49.4316 81.6856 49.4198 81.6569 49.4122 81.6387L49.404 81.6193L49.4027 81.6162L49.4025 81.6157C49.1846 81.1085 49.4189 80.5206 49.926 80.3024Z" fill="#6A3907"/>
<path d="M63.5113 73.2198C67.2061 73.2198 70.2013 70.2246 70.2013 66.5298C70.2013 62.8351 67.2061 59.8398 63.5113 59.8398C59.8165 59.8398 56.8213 62.8351 56.8213 66.5298C56.8213 70.2246 59.8165 73.2198 63.5113 73.2198Z" fill="#6A3907"/>
<path d="M68.6914 64.5898C67.0714 65.3498 66.4514 65.9698 65.6914 67.5898C64.9314 65.9698 64.3114 65.3498 62.6914 64.5898C64.3114 63.8298 64.9314 63.2098 65.6914 61.5898C66.4614 63.2098 67.0714 63.8298 68.6914 64.5898Z" fill="white"/>
<path d="M60.821 66.9696C60.211 67.2596 59.981 67.4896 59.701 68.0896C59.411 67.4796 59.1811 67.2496 58.5811 66.9696C59.1911 66.6796 59.421 66.4496 59.701 65.8496C59.981 66.4496 60.211 66.6796 60.821 66.9696Z" fill="white"/>
<path d="M67.4413 70.6498C67.0013 70.8598 66.8413 71.0198 66.6313 71.4598C66.4213 71.0198 66.2613 70.8598 65.8213 70.6498C66.2613 70.4398 66.4213 70.2798 66.6313 69.8398C66.8413 70.2798 67.0013 70.4498 67.4413 70.6498Z" fill="white"/>
<path d="M63.9514 71.589C63.6114 71.749 63.4814 71.879 63.3214 72.219C63.1614 71.879 63.0314 71.749 62.6914 71.589C63.0314 71.429 63.1614 71.299 63.3214 70.959C63.4814 71.299 63.6114 71.429 63.9514 71.589Z" fill="white"/>
<path d="M27.1314 73.2198C30.8262 73.2198 33.8214 70.2246 33.8214 66.5298C33.8214 62.8351 30.8262 59.8398 27.1314 59.8398C23.4366 59.8398 20.4414 62.8351 20.4414 66.5298C20.4414 70.2246 23.4366 73.2198 27.1314 73.2198Z" fill="#6A3907"/>
<path d="M32.3213 64.5898C30.7013 65.3498 30.0813 65.9698 29.3213 67.5898C28.5613 65.9698 27.9413 65.3498 26.3213 64.5898C27.9413 63.8298 28.5613 63.2098 29.3213 61.5898C30.0813 63.2098 30.7013 63.8298 32.3213 64.5898Z" fill="white"/>
<path d="M24.4412 66.9696C23.8312 67.2596 23.6012 67.4896 23.3212 68.0896C23.0312 67.4796 22.8012 67.2496 22.2012 66.9696C22.8112 66.6796 23.0412 66.4496 23.3212 65.8496C23.6012 66.4496 23.8312 66.6796 24.4412 66.9696Z" fill="white"/>
<path d="M31.0712 70.6498C30.6312 70.8598 30.4712 71.0198 30.2612 71.4598C30.0512 71.0198 29.8912 70.8598 29.4512 70.6498C29.8912 70.4398 30.0512 70.2798 30.2612 69.8398C30.4612 70.2798 30.6312 70.4498 31.0712 70.6498Z" fill="white"/>
<path d="M27.5813 71.589C27.2413 71.749 27.1113 71.879 26.9513 72.219C26.7913 71.879 26.6613 71.749 26.3213 71.589C26.6613 71.429 26.7913 71.299 26.9513 70.959C27.1013 71.299 27.2313 71.429 27.5813 71.589Z" fill="white"/>
</g>
<defs>
<clipPath id="clip0_468_972">
<rect width="90" height="151" fill="white"/>
</clipPath>
</defs>
</svg>
