<svg width="90" height="151" viewBox="0 0 90 151" fill="none" xmlns="http://www.w3.org/2000/svg">
<g clip-path="url(#clip0_468_857)">
<path d="M57.5385 130.7C59.0585 127.82 59.9385 126.27 59.9385 122.95C59.9385 119.06 59.9385 117.45 59.0785 113.92C59.0585 113.84 59.0385 113.75 59.0185 113.67C57.4885 107.98 54.3885 100.03 51.0585 97.8699V97.7299C50.6685 97.7199 50.2785 97.7099 49.8985 97.6999C47.6785 97.7399 41.6085 97.3199 35.9185 96.6699L35.8885 96.8699C34.1985 100.16 34.4985 102.5 34.1685 106.08C33.6485 111.76 34.1785 117.44 31.8985 122.84C31.2085 124.49 30.5385 126.4 30.3785 128.27C30.2085 130.13 30.5385 131.95 31.8285 133.45C32.0185 133.68 32.2485 133.91 32.4885 134.12C34.7985 136.14 36.2685 135.55 37.1785 138.94C37.5385 140.26 37.5085 142.04 37.6785 143.71L37.8085 143.7C44.8085 144.95 50.5585 143.7 50.5585 143.7L51.0885 143.67C51.0985 143.38 51.1185 143.09 51.1585 142.81C51.4785 140.2 51.7385 137.63 53.5685 135.58C55.1285 133.83 56.5185 132.39 57.5985 130.74L57.5385 130.7ZM38.1185 121.96L38.3085 121.94C43.0585 119.3 48.3085 121.94 48.3085 121.94L48.4885 121.95C48.4085 123.23 48.1485 124.45 47.4285 125.5C46.2185 127.26 43.3385 127.63 41.4385 127.14C38.9785 126.5 38.3685 124.21 38.1185 121.96Z" fill="#F9C03D"/>
<path d="M50.558 143.7C50.558 143.7 44.808 144.95 37.808 143.7L37.678 143.71C37.868 145.75 38.358 147.63 40.168 148.37C42.058 149.15 46.678 149.26 48.578 148.73C51.058 148.05 50.968 145.73 51.088 143.67L50.558 143.7Z" fill="white" stroke="white" stroke-width="0.25" stroke-miterlimit="10"/>
<path d="M53.9385 123.32C53.9385 119.77 56.1885 115.72 59.2985 114.27C60.1385 119.69 61.1485 125.56 58.4085 130.56C55.7685 129.29 53.9385 126.54 53.9385 123.32Z" fill="white" stroke="white" stroke-width="0.25" stroke-miterlimit="10"/>
<path d="M48.3084 121.941C48.3084 121.941 43.0584 119.301 38.3084 121.941L38.1184 121.961C38.3684 124.211 38.9784 126.501 41.4384 127.141C43.3384 127.631 46.2184 127.261 47.4284 125.501C48.1484 124.451 48.4084 123.231 48.4884 121.951L48.3084 121.941Z" fill="white" stroke="white" stroke-width="0.25" stroke-miterlimit="10"/>
<path d="M17.298 137.53C15.788 135.64 16.348 133.68 16.348 133.68L16.558 133.46L18.628 132.85C18.628 132.85 18.528 135.49 19.938 136.84L17.298 137.53ZM11.968 139.03C10.458 137.14 11.008 135.18 11.008 135.18L11.218 134.96L13.298 134.35C13.298 134.35 13.188 136.99 14.608 138.34L11.968 139.03ZM9.03803 138.31L8.18804 138.2L7.05803 138.07L6.61804 137.99C5.85804 135.7 7.15804 134.29 7.15804 134.29L9.24803 134.62C9.24803 134.62 8.13803 137.28 9.03803 138.31ZM26.838 133.69C25.298 131.83 25.828 129.85 25.828 129.85L26.038 129.64L28.108 129C28.108 129 28.038 131.63 29.468 132.97L26.838 133.69ZM22.088 135.77C20.358 134.08 20.678 132.06 20.678 132.06L20.858 131.82L22.848 130.97C22.848 130.97 23.058 133.6 24.618 134.77L22.088 135.77ZM30.218 128.25C23.298 129.4 20.168 131.99 14.858 133.46C14.688 133.51 14.488 133.56 14.288 133.6C13.348 133.83 12.168 134.05 11.328 134.11C10.428 134.17 9.51802 134.14 8.67802 134.11C6.83802 134.07 5.30803 134.1 4.77803 135.43C3.86803 137.71 5.83802 138.72 7.64802 139.11C7.93802 139.17 8.23803 139.23 8.53803 139.26C10.798 139.6 13.228 139.38 15.578 138.87C17.678 138.4 21.068 137.33 22.948 136.55C22.948 136.55 28.388 133.7 31.728 133.53L31.828 133.45C30.538 131.95 30.208 130.13 30.378 128.27L30.218 128.25Z" fill="#F9C03D"/>
<path d="M9.03805 138.311C8.13805 137.281 9.24805 134.621 9.24805 134.621L7.15805 134.291C7.15805 134.291 5.85805 135.701 6.61805 137.991L7.05805 138.071L8.18805 138.201L9.03805 138.311Z" fill="#6A3907"/>
<path d="M11.2183 134.96L11.0083 135.18C11.0083 135.18 10.4583 137.14 11.9683 139.03L14.6083 138.34C13.1883 136.99 13.2983 134.35 13.2983 134.35L11.2183 134.96Z" fill="#6A3907"/>
<path d="M16.5584 133.46L16.3484 133.68C16.3484 133.68 15.7884 135.64 17.2984 137.53L19.9384 136.84C18.5284 135.49 18.6284 132.85 18.6284 132.85L16.5584 133.46Z" fill="#6A3907"/>
<path d="M22.8481 130.971L20.8581 131.821L20.6781 132.061C20.6781 132.061 20.3581 134.081 22.0881 135.771L24.6181 134.771C23.0581 133.601 22.8481 130.971 22.8481 130.971Z" fill="#6A3907"/>
<path d="M26.0378 129.64L25.8278 129.85C25.8278 129.85 25.2978 131.83 26.8378 133.69L29.4678 132.97C28.0378 131.63 28.1078 129 28.1078 129L26.0378 129.64Z" fill="#6A3907"/>
<path fill-rule="evenodd" clip-rule="evenodd" d="M35.9529 95.883C35.5591 95.8571 35.1875 96.0675 35.0072 96.4185C33.592 99.1736 33.4667 101.4 33.3275 103.873C33.2891 104.554 33.2497 105.255 33.182 105.99L33.1819 105.991C33.0494 107.438 32.9843 108.88 32.9252 110.295C32.9202 110.415 32.9153 110.534 32.9103 110.653C32.8566 111.951 32.8038 113.225 32.7057 114.489C32.492 117.246 32.0665 119.896 30.9857 122.456L30.9844 122.459C30.2845 124.133 29.5655 126.157 29.3916 128.184C29.2066 130.214 29.5596 132.327 31.0709 134.089C31.3003 134.366 31.5672 134.631 31.8359 134.866H31.8361C32.4743 135.424 33.0542 135.801 33.5636 136.102C33.7572 136.216 33.9249 136.311 34.0764 136.397C34.3507 136.553 34.5719 136.678 34.7974 136.833C35.1028 137.043 35.3449 137.265 35.5621 137.591C35.7867 137.928 36.0125 138.418 36.2216 139.198L36.2227 139.201C36.3754 139.761 36.4533 140.454 36.5116 141.265C36.5298 141.52 36.5463 141.79 36.5633 142.069C36.5979 142.636 36.6345 143.237 36.6925 143.807C36.8819 145.837 37.397 148.307 39.7916 149.287C40.9086 149.747 42.6845 149.972 44.3334 150.031C45.9907 150.091 47.7417 149.991 48.8412 149.685C49.6066 149.475 50.2242 149.123 50.7026 148.64C51.1778 148.16 51.4717 147.597 51.6585 147.027C51.9598 146.108 52.0111 145.046 52.0533 144.171C52.0608 144.017 52.0679 143.869 52.0761 143.728L52.0772 143.705C52.0865 143.436 52.1046 143.184 52.1378 142.951L52.1404 142.931L52.1566 142.799C52.478 140.175 52.7458 137.988 54.3063 136.24H54.3068C54.577 135.937 54.8454 135.639 55.1105 135.346C56.3373 133.987 57.4932 132.708 58.4243 131.286C59.4858 129.687 60.2675 127.902 60.692 125.557L60.6929 125.552C61.3828 121.622 61.0161 117.533 60.0075 113.745L60.0069 113.743C59.2313 110.859 58.0486 107.313 56.6301 104.201C55.9209 102.645 55.1439 101.178 54.3179 99.9497C53.5011 98.7349 52.592 97.686 51.5965 97.0403C51.4547 96.9483 51.2916 96.8941 51.1229 96.883L35.9529 95.883ZM50.7192 98.8407C51.3333 99.2962 51.9944 100.043 52.6748 101.055C53.4207 102.164 54.1469 103.527 54.8285 105.022C56.1913 108.012 57.34 111.45 58.0945 114.256C59.0454 117.827 59.3726 121.619 58.7432 125.207C58.3678 127.279 57.6903 128.813 56.7732 130.193L56.7694 130.199C55.93 131.481 54.899 132.624 53.678 133.977C53.4044 134.28 53.1214 134.594 52.8288 134.922C50.8472 137.142 50.5134 139.899 50.2162 142.353C50.2028 142.463 50.1896 142.572 50.1763 142.681C50.1311 143.001 50.1095 143.321 50.0988 143.625C50.0886 143.801 50.0798 143.971 50.0713 144.137C50.0258 145.023 49.9876 145.768 49.7771 146.41C49.6614 146.763 49.5053 147.035 49.2961 147.246C49.0904 147.454 48.7898 147.646 48.316 147.776L48.3118 147.777C47.511 148.001 46.0036 148.11 44.4047 148.053C42.7968 147.995 41.3186 147.775 40.5455 147.456L40.5424 147.454C39.3201 146.955 38.8544 145.668 38.6635 143.619L38.6627 143.611C38.6083 143.077 38.5763 142.549 38.5434 142.006C38.5258 141.717 38.5081 141.424 38.4865 141.124C38.4273 140.299 38.3403 139.442 38.1334 138.682C37.8877 137.767 37.5886 137.061 37.2097 136.493C36.8231 135.913 36.3828 135.52 35.9182 135.201C35.6237 134.999 35.281 134.804 34.9613 134.622C34.8251 134.544 34.6931 134.469 34.5707 134.397C34.1264 134.135 33.6564 133.828 33.1397 133.376C32.9308 133.193 32.7402 133.001 32.591 132.82L32.5784 132.805C31.5157 131.57 31.2096 130.047 31.3637 128.361L31.3642 128.355C31.5107 126.643 32.1311 124.849 32.8106 123.224C34.0093 120.384 34.4587 117.495 34.6798 114.642C34.7808 113.34 34.835 112.032 34.8885 110.74C34.8935 110.619 34.8985 110.498 34.9035 110.378C34.9626 108.962 35.0262 107.564 35.1537 106.171C35.2342 105.297 35.2795 104.516 35.3213 103.795C35.4477 101.615 35.543 99.9715 36.4872 97.9025L50.7192 98.8407Z" fill="#6A3907"/>
<path fill-rule="evenodd" clip-rule="evenodd" d="M37.8874 106.201C37.3351 106.201 36.8874 106.649 36.8874 107.201C36.8874 108.488 36.8625 109.794 36.8374 111.11C36.7797 114.135 36.7209 117.218 36.9605 120.269L36.9613 120.28H36.9614C36.9757 120.441 36.9897 120.611 37.0042 120.789C37.0376 121.196 37.0738 121.638 37.1237 122.073C37.2521 123.228 37.4825 124.516 38.0637 125.621C38.6684 126.77 39.6488 127.709 41.1857 128.109H41.1877C42.2954 128.395 43.6518 128.426 44.9122 128.14C46.1649 127.856 47.4544 127.227 48.2515 126.068L48.2522 126.067C49.1169 124.806 49.3999 123.38 49.4854 122.015C49.5388 121.196 49.5194 120.369 49.4905 119.591C49.484 119.418 49.4771 119.248 49.4704 119.08C49.4462 118.483 49.4237 117.925 49.4274 117.389C49.4423 115.736 49.5017 114.082 49.5655 112.414C49.5712 112.263 49.5771 112.111 49.5829 111.96C49.6411 110.445 49.6998 108.918 49.7273 107.389C49.7372 106.837 49.2976 106.381 48.7454 106.371C48.1932 106.361 47.7375 106.801 47.7276 107.353C47.7005 108.861 47.6426 110.367 47.5843 111.885C47.5785 112.036 47.5727 112.187 47.5669 112.338C47.5032 114.005 47.4426 115.686 47.4275 117.372V117.374C47.4233 117.962 47.4485 118.584 47.4731 119.189C47.4796 119.349 47.486 119.509 47.4919 119.666C47.5204 120.433 47.536 121.175 47.4896 121.886L47.4894 121.889C47.4147 123.083 47.1777 124.097 46.6029 124.935C46.1898 125.536 45.4346 125.971 44.4702 126.19C43.5136 126.406 42.4806 126.377 41.6885 126.173C40.7658 125.933 40.2114 125.407 39.8337 124.689C39.4326 123.927 39.233 122.946 39.1113 121.851L39.1109 121.847C39.0647 121.444 39.033 121.057 39.001 120.666C38.9859 120.481 38.9708 120.296 38.954 120.108C38.7227 117.158 38.7787 114.238 38.8358 111.263C38.8615 109.923 38.8874 108.572 38.8874 107.201C38.8874 106.649 38.4397 106.201 37.8874 106.201Z" fill="#6A3907"/>
<path fill-rule="evenodd" clip-rule="evenodd" d="M31.2041 128.086C31.1135 127.541 30.5985 127.173 30.0537 127.264C26.487 127.856 23.8946 128.823 21.5452 129.814C21.0715 130.014 20.6116 130.213 20.1583 130.409C18.3514 131.19 16.6481 131.927 14.5908 132.496L14.5754 132.501C14.4336 132.543 14.2623 132.585 14.0915 132.62C14.0776 132.622 14.0637 132.625 14.0499 132.629C13.1382 132.852 12.0201 133.058 11.2586 133.113C10.4178 133.168 9.55766 133.141 8.71331 133.111L8.69935 133.11C7.80386 133.091 6.82543 133.08 5.9951 133.286C5.10178 133.508 4.2661 134.013 3.84886 135.059C3.56529 135.77 3.47624 136.46 3.60736 137.11C3.73903 137.763 4.07534 138.289 4.49672 138.697C5.30455 139.48 6.47278 139.88 7.43698 140.088L7.445 140.089C7.72589 140.148 8.06335 140.216 8.41261 140.253C10.8249 140.611 13.3753 140.371 15.7897 139.847L15.796 139.846C17.9504 139.364 21.3956 138.277 23.3308 137.474C23.3583 137.462 23.3852 137.45 23.4115 137.436C23.4116 137.436 23.4115 137.436 23.4115 137.436L23.414 137.435L23.4242 137.429L23.467 137.407C23.5053 137.388 23.5629 137.358 23.638 137.32C23.7881 137.245 24.0079 137.136 24.2825 137.004C24.8325 136.74 25.5994 136.386 26.4667 136.028C28.2401 135.296 30.2955 134.604 31.7784 134.529C32.33 134.501 32.7544 134.031 32.7263 133.479C32.6982 132.928 32.2284 132.503 31.6768 132.531C29.8197 132.626 27.4851 133.444 25.7035 134.18C24.7934 134.555 23.9915 134.925 23.4171 135.201C23.1296 135.339 22.8982 135.454 22.7378 135.534C22.6576 135.575 22.5951 135.607 22.5521 135.629L22.5256 135.643C20.6936 136.398 17.3938 137.439 15.3623 137.894C13.0857 138.387 10.7861 138.587 8.68638 138.271C8.67001 138.269 8.65359 138.267 8.63712 138.265C8.39657 138.241 8.14488 138.192 7.85435 138.132C7.01023 137.949 6.29006 137.65 5.88851 137.261C5.7049 137.083 5.6062 136.904 5.56788 136.714C5.52899 136.522 5.53495 136.23 5.70638 135.801C5.81921 135.518 6.0136 135.342 6.47764 135.227C7.00351 135.096 7.7079 135.089 8.64893 135.11C9.48211 135.14 10.4384 135.172 11.3941 135.108H11.3989C12.311 135.042 13.5407 134.811 14.5051 134.576C14.7241 134.532 14.9417 134.478 15.1318 134.422C17.3319 133.812 19.1856 133.01 21.0034 132.223C21.4438 132.032 21.882 131.842 22.3225 131.657C24.5956 130.698 27.0282 129.794 30.3815 129.237C30.9264 129.146 31.2946 128.631 31.2041 128.086Z" fill="#6A3907"/>
<path d="M46.6487 125.45C46.6787 124.23 47.4187 125.4 47.5687 124.21C48.8187 123.96 48.0487 122.13 48.3187 122.21C49.4087 122.58 51.9387 122.79 50.8687 124.68C50.3187 125.65 48.6087 125.75 46.6487 125.45Z" fill="#6A3907"/>
<path d="M34.2978 115.581C35.6478 115.721 37.0778 115.811 38.5078 115.871C38.2878 116.931 37.8678 118.021 37.5978 119.131C36.4178 119.061 35.1578 118.911 33.3978 118.631C33.2878 118.611 33.1578 118.591 33.0078 118.571C33.2678 117.561 33.5478 116.551 33.8478 115.541C34.0078 115.551 34.1378 115.561 34.2978 115.581Z" fill="#6A3907"/>
<path d="M34.828 108.27C35.848 108.37 36.948 108.42 38.038 108.43C37.838 109.49 37.488 110.59 37.248 111.7C36.348 111.66 35.388 111.56 34.048 111.33C33.968 111.32 33.858 111.3 33.748 111.29C33.978 110.27 34.218 109.26 34.488 108.24C34.598 108.25 34.708 108.26 34.828 108.27Z" fill="#6A3907"/>
<path d="M33.4883 121.72C35.0983 121.89 36.8083 122.02 38.5183 122.11C38.2783 123.17 38.7383 124.22 38.4383 125.32C37.0283 125.22 34.5983 125.07 32.4983 124.75C32.3683 124.73 32.2083 124.71 32.0283 124.68C32.3183 123.67 32.6183 122.66 32.9583 121.66C33.1383 121.69 33.2983 121.7 33.4883 121.72Z" fill="#6A3907"/>
<path d="M46.1286 133.35C44.4586 132.88 40.9686 132.98 40.6486 133.79C40.4386 134.34 40.6386 135.01 41.0986 135.31C41.2086 135.37 43.8186 137.1 46.5086 135.37C46.9786 135.08 47.1986 134.41 46.9886 133.86C46.9086 133.65 46.5886 133.48 46.1286 133.35Z" fill="#6A3907"/>
<path d="M45.2287 116.981C43.7487 117.451 40.6487 117.361 40.3787 116.541C40.1887 115.991 40.3687 115.321 40.7787 115.021C40.8787 114.961 43.1887 113.231 45.5687 114.951C45.9887 115.241 46.1787 115.901 45.9987 116.461C45.9287 116.681 45.6387 116.851 45.2287 116.981Z" fill="#6A3907"/>
<path d="M41.1384 110.861C42.6184 111.331 45.7184 111.231 45.9984 110.411C46.1884 109.861 46.0084 109.191 45.6084 108.891C45.5084 108.831 43.1984 107.111 40.8184 108.831C40.3984 109.121 40.2084 109.791 40.3884 110.351C40.4484 110.561 40.7384 110.731 41.1384 110.861Z" fill="#6A3907"/>
<path d="M46.1286 138.721C44.4586 138.251 40.9686 138.351 40.6486 139.161C40.4386 139.711 40.6386 140.381 41.0986 140.681C41.2086 140.741 43.8186 142.471 46.5086 140.741C46.9786 140.451 47.1986 139.781 46.9886 139.231C46.9086 139.021 46.5886 138.851 46.1286 138.721Z" fill="#6A3907"/>
<path d="M49.4185 108.899C50.2185 109.309 52.5585 109.789 51.8285 111.629C51.4385 112.569 50.1885 112.589 48.7385 112.199C48.7385 110.989 48.7785 109.789 48.8585 108.609C49.0385 108.709 49.2285 108.809 49.4185 108.899Z" fill="#6A3907"/>
<path d="M47.9385 115.89C49.0585 116.11 52.2585 116.06 51.4285 118.07C50.9985 119.1 50.3485 119.17 48.3585 119.11C48.2385 117.9 48.1585 117.13 48.1585 115.93C48.4185 115.98 47.6685 115.84 47.9385 115.89Z" fill="#6A3907"/>
<path d="M46.4784 7.10092C46.2184 6.07092 45.8684 5.12092 45.3884 4.37092C41.5284 -1.69908 33.3584 1.27092 31.8684 6.64092C31.1784 9.12092 31.0184 11.9009 31.2684 14.6309L30.7984 14.6709C26.9184 15.6209 18.8284 18.3409 12.0884 25.4509C9.64838 28.0609 7.56838 31.0809 5.83838 34.4809C-0.0116186 46.0209 -0.471622 64.4109 3.99838 76.4509C8.55838 88.7009 17.5384 93.2509 27.3884 95.3709C29.6084 95.8509 32.7084 96.3009 35.9184 96.6709C41.6084 97.3209 47.6784 97.7409 49.8984 97.7009C50.2784 97.7109 50.6684 97.7209 51.0584 97.7309C59.4684 97.8409 70.6284 96.6309 78.2884 93.0509L78.1484 92.7509C73.9384 90.9309 70.9884 86.6709 70.9884 81.7009C70.9884 75.0709 76.2484 69.7009 82.7284 69.7009L83.2984 69.6909C82.0884 67.4209 84.3984 56.1509 84.5184 54.0509C85.8384 31.0309 71.4884 17.9609 52.8184 14.2109C52.7684 14.2009 52.7184 14.1909 52.6684 14.1809C51.0184 13.8509 49.3084 13.6109 47.5384 13.4509L47.3884 13.3709C47.1784 11.6009 47.0084 9.19092 46.4784 7.10092ZM39.1784 81.5809C36.1184 80.8909 36.1084 78.3309 40.3684 78.1109C44.2884 77.9109 48.2484 77.5709 52.1784 77.7809C53.6884 77.8609 55.7284 77.8809 57.1384 78.4909C57.7184 78.7409 57.8584 78.9309 58.1184 79.2009C59.1584 80.2509 58.2184 81.3909 56.3584 81.7409C53.7484 82.2309 50.7584 82.1809 48.1184 82.1409C45.4784 82.1009 41.6984 82.1409 39.1784 81.5809ZM40.0584 89.6409C36.8184 88.7809 37.4484 86.6109 41.2284 86.4709C44.6984 86.3409 48.2184 86.0809 51.6984 86.3109C53.0284 86.4009 54.4384 86.2709 55.6784 86.8209C56.1984 87.0509 56.6384 87.3409 56.8684 87.5809C57.7784 88.5109 57.0084 89.5809 55.3484 89.8709C53.0384 90.2709 49.7684 90.2009 47.4384 90.1409C45.0984 90.0709 42.2684 90.2209 40.0584 89.6409ZM66.7784 59.0309C65.7584 59.0309 64.9184 58.0309 64.9184 56.7809C64.9184 53.4509 72.6284 53.1409 72.6284 56.7809C72.6284 58.0309 71.7984 59.0309 70.7684 59.0309H66.7784ZM65.2384 68.2809C65.2384 66.2609 67.6384 64.6209 69.6784 64.6209C71.7084 64.6209 72.6284 66.2609 72.6284 68.2809C72.6284 70.3109 71.7084 71.9509 69.6784 71.9509C67.6384 71.9509 65.2384 70.3109 65.2384 68.2809Z" fill="#F9C03D"/>
<path d="M46.7378 7.04114C47.1178 6.09114 47.6778 5.22114 48.5578 4.52114C50.7878 2.76114 54.2078 2.93114 54.8878 6.20114C54.9878 6.69114 55.0178 7.14114 55.0078 7.57114C54.0378 7.42114 53.5478 10.4411 52.9278 9.83113C52.3778 12.0411 51.8078 12.2111 50.1578 13.7611C49.2978 13.6411 48.4278 13.5411 47.5378 13.4611L47.3878 13.3811C47.1778 11.6111 47.0078 9.20114 46.4778 7.11114L46.7378 7.04114Z" fill="#F9C03D"/>
<path d="M64.918 56.7811C64.918 58.0311 65.758 59.0311 66.778 59.0311H70.768C71.798 59.0311 72.628 58.0311 72.628 56.7811C72.628 53.1411 64.918 53.4511 64.918 56.7811Z" fill="white" stroke="white" stroke-width="0.25" stroke-miterlimit="10"/>
<path d="M54.9185 7.59921C55.5585 9.39921 53.2885 12.4792 52.7285 13.8692L52.6685 14.1792C52.6485 14.2792 49.9685 13.3692 49.9285 13.1992C49.5485 11.5092 49.9585 9.50921 50.9485 8.09921C51.6785 7.05921 53.6585 5.79921 54.6885 7.16921C54.7885 7.30921 54.8685 7.44921 54.9185 7.59921Z" fill="white"/>
<path d="M37.3876 12.73C36.5976 17.35 38.0276 21.79 39.3176 24.89L39.7676 24.93C39.8676 24.93 40.2076 24.03 40.2876 23.87C40.4776 23.51 40.6676 23.15 40.8676 22.81C41.2576 22.12 41.6676 21.47 42.0876 20.86C42.9576 19.61 43.8776 18.55 44.8276 17.68C45.1676 17.36 45.5176 17.07 45.8676 16.79C47.0876 15.86 46.0676 10.27 45.5776 8.84004C44.4776 5.66004 42.9076 5.22004 41.4776 5.69004C39.7676 6.27004 38.0076 9.06004 37.3876 12.73Z" fill="white"/>
<path d="M86.4778 85.5294C87.5478 82.7894 88.2978 79.4295 87.8678 76.4095C87.7878 76.4095 87.6978 76.3895 87.5978 76.3695L85.6378 76.1994C84.5678 76.1194 83.0778 75.6595 82.9878 74.1095C82.9078 72.6895 84.7178 72.2195 85.6878 72.2295C85.8678 72.2295 86.0478 72.2494 86.2178 72.2694C85.5778 71.3994 84.7178 70.6394 83.6078 70.0294C83.4878 69.9594 83.3878 69.8495 83.2978 69.6895L82.7278 69.6994C76.2478 69.6994 70.9878 75.0694 70.9878 81.6994C70.9878 86.6694 73.9378 90.9295 78.1478 92.7495L78.2878 93.0495C82.2178 91.2095 85.2278 88.7494 86.4778 85.5294Z" fill="white" stroke="white" stroke-width="0.25" stroke-miterlimit="10"/>
<path d="M40.3684 78.1109C36.1084 78.3309 36.1184 80.8909 39.1784 81.5809C41.6984 82.1409 45.4784 82.1009 48.1184 82.1409C50.7584 82.1809 53.7484 82.2309 56.3584 81.7409C58.2184 81.3909 59.1584 80.2509 58.1184 79.2009C57.8584 78.9309 57.7184 78.7409 57.1384 78.4909C55.7284 77.8809 53.6884 77.8609 52.1784 77.7809C48.2484 77.5709 44.2884 77.9109 40.3684 78.1109Z" fill="#6A3907"/>
<path d="M41.2279 86.4704C37.4479 86.6104 36.8179 88.7804 40.0579 89.6404C42.2679 90.2204 45.0979 90.0704 47.4379 90.1404C49.7679 90.2004 53.0379 90.2704 55.3479 89.8704C57.0079 89.5804 57.7779 88.5104 56.8679 87.5804C56.6379 87.3404 56.1979 87.0503 55.6779 86.8203C54.4379 86.2703 53.0279 86.4004 51.6979 86.3104C48.2179 86.0804 44.6979 86.3404 41.2279 86.4704Z" fill="#6A3907"/>
<path d="M69.6778 64.6211C67.6378 64.6211 65.2378 66.2611 65.2378 68.2811C65.2378 70.3111 67.6378 71.9511 69.6778 71.9511C71.7078 71.9511 72.6278 70.3111 72.6278 68.2811C72.6278 66.2611 71.7078 64.6211 69.6778 64.6211Z" fill="#6A3907"/>
<path d="M87.8686 76.4106C87.6486 74.9006 88.4787 73.5806 87.5587 72.3706C87.3887 72.3506 85.8686 72.2306 85.6886 72.2306C84.7186 72.2206 82.9087 72.6906 82.9887 74.1106C83.0787 75.6606 84.5687 76.1206 85.6387 76.2006L87.5987 76.3706C87.6987 76.3906 87.7886 76.4106 87.8686 76.4106Z" fill="#6A3907"/>
<path d="M46.8559 12.7199C46.6477 12.9152 46.5329 13.1902 46.5404 13.4756L46.5507 14.5L48.5696 14.5582C49.9095 14.7081 51.2102 14.9071 52.4722 15.1595L52.4733 15.1597C61.6432 17.0017 69.7207 21.126 75.3387 27.5465C80.9437 33.952 84.1682 42.7178 83.5217 53.992C83.4952 54.4554 83.3396 55.4893 83.1204 56.9069L83.0784 57.1781C82.8725 58.5087 82.6279 60.0891 82.4198 61.6754C82.1979 63.3673 82.0139 65.092 81.9639 66.5489C81.939 67.2767 81.9466 67.9597 82.005 68.5501C82.061 69.116 82.1722 69.6993 82.4176 70.1596L82.4285 70.1795C82.5776 70.4447 82.7898 70.7084 83.1062 70.893C83.1135 70.8973 83.121 70.9015 83.1284 70.9056C84.1192 71.4501 84.8659 72.116 85.4145 72.8618C85.5836 73.0916 85.8426 73.238 86.1259 73.2648C86.1287 73.2652 86.1337 73.266 86.1405 73.2673C86.1646 73.2718 86.2087 73.2819 86.2643 73.3016C86.3765 73.3415 86.5188 73.4145 86.6472 73.5479C86.8588 73.7676 87.2794 74.4167 86.8928 76.197C86.8676 76.313 86.8633 76.4326 86.88 76.5502C87.2763 79.3332 86.586 82.5088 85.5486 85.1655L85.5478 85.1673C84.433 88.0391 81.6954 90.3506 77.8666 92.1433C70.4094 95.6285 59.4303 96.838 51.0793 96.7294L50.7346 96.7206L48.7341 96.7294L48.7604 97.7256C48.7747 98.2674 49.218 98.6992 49.76 98.6992H49.8862C50.2304 98.7083 50.5832 98.7173 50.9359 98.7264L51.0251 98.7287L51.047 98.7292C59.5152 98.84 70.8525 97.6291 78.7134 93.9552C82.7436 92.0683 86.026 89.4601 87.4115 85.893C88.4942 83.1207 89.2944 79.6532 88.884 76.4452C89.2983 74.3648 88.8938 72.9975 88.0879 72.1606C87.6963 71.7539 87.2648 71.5345 86.9333 71.4168C86.8829 71.3989 86.8344 71.3833 86.7883 71.3695C86.105 70.5269 85.2359 69.7943 84.1717 69.1973C84.1155 69.0782 84.0411 68.8159 83.9953 68.3531C83.9489 67.8844 83.9394 67.2982 83.9627 66.6174C84.0094 65.2571 84.1835 63.6074 84.4028 61.9355C84.6078 60.3731 84.849 58.8141 85.0555 57.4802L85.0969 57.2125C85.3068 55.8554 85.4849 54.6929 85.5184 54.1063C86.1919 42.3604 82.8264 33.0665 76.8439 26.2295C70.8775 19.4109 62.3461 15.1052 52.8517 13.1958C51.1675 12.8595 49.4266 12.6157 47.6301 12.4533C47.3458 12.4276 47.064 12.5246 46.8559 12.7199Z" fill="#6A3907"/>
<path d="M31.7699 14.4323C31.6386 13.8959 31.0972 13.5675 30.5608 13.6988C26.5827 14.6729 18.286 17.459 11.3629 24.7622L11.3581 24.7672C8.84831 27.4519 6.71594 30.5508 4.94736 34.0267L4.94668 34.028C1.93806 39.9629 0.34054 47.5975 0.049341 55.2396C-0.241957 62.8842 0.770399 70.6281 3.06114 76.7982C5.4068 83.0996 8.90998 87.4639 13.1228 90.5185C17.3216 93.5628 22.1757 95.271 27.1773 96.3476C29.4454 96.838 32.5836 97.2924 35.8041 97.6636L35.8051 97.6637C41.493 98.3135 47.6101 98.7401 49.9076 98.7002H50.058C50.6103 98.7002 51.0586 98.2524 51.0586 97.7002C51.0586 97.1479 50.6109 96.7002 50.0586 96.7002H49.8989L49.8806 96.7003C47.7311 96.7391 41.7174 96.326 36.0331 95.6767C32.8336 95.3079 29.7718 94.8623 27.5999 94.3927C22.7519 93.3493 18.1903 91.7223 14.2968 88.8993C10.4174 86.0865 7.15042 82.0503 4.93609 76.1021C2.75704 70.2324 1.7642 62.7607 2.04789 55.3157C2.33169 47.8678 3.88917 40.5374 6.73056 34.9323C8.42125 31.6098 10.4478 28.6701 12.8166 26.1357C19.373 19.2207 27.2549 16.5673 31.0364 15.6415C31.5729 15.5101 31.9012 14.9688 31.7699 14.4323Z" fill="#6A3907"/>
<path fill-rule="evenodd" clip-rule="evenodd" d="M37.505 0.243124C34.4908 0.971306 31.76 3.29125 30.905 6.37279C30.1762 8.99244 30.0144 11.8961 30.2724 14.7176C30.6433 19.1208 32.0324 23.4505 33.9867 26.2699C34.3014 26.7238 34.9244 26.8367 35.3783 26.522C35.8322 26.2074 35.9451 25.5844 35.6304 25.1305C33.9253 22.6706 32.6146 18.7019 32.2651 14.5463L32.2644 14.539C32.0229 11.9019 32.1812 9.24722 32.832 6.90821C33.467 4.61975 35.5663 2.76902 37.9747 2.1872C40.3196 1.62069 42.8703 2.27369 44.5447 4.90677L44.5463 4.90921C44.9454 5.53281 45.2624 6.36798 45.509 7.34491L45.5093 7.34597C45.7494 8.29293 45.9201 9.97402 46.0566 11.723C46.1028 12.3146 46.145 12.9142 46.185 13.4826C46.259 14.5332 46.3255 15.4772 46.3955 16.068C46.4606 16.6164 46.958 17.0083 47.5064 16.9432C48.0548 16.8781 48.4467 16.3808 48.3816 15.8323C48.3169 15.2869 48.2568 14.4312 48.1861 13.4253C48.1454 12.8456 48.1012 12.2161 48.0505 11.5674C47.917 9.8563 47.7378 7.99739 47.4479 6.85435C47.1746 5.77216 46.7919 4.70823 46.2316 3.83235C44.046 0.396417 40.5822 -0.500282 37.505 0.243124Z" fill="#6A3907"/>
<path d="M52.4912 2.4907C50.9427 2.19688 49.2426 2.70562 47.939 3.73445L47.936 3.73682C46.8919 4.56741 46.2398 5.59384 45.8101 6.66803C45.605 7.18082 45.8544 7.76279 46.3672 7.9679C46.88 8.17301 47.4619 7.9236 47.6671 7.41081C47.9971 6.58558 48.4646 5.87242 49.1796 5.30321C50.1057 4.57292 51.2299 4.28706 52.1184 4.45564C52.9309 4.6098 53.65 5.15515 53.9095 6.40287C54.1785 7.69774 53.9722 8.70203 53.5458 9.75188L52.7909 11.3579L52.7383 11.4631C52.4327 12.0744 52.0995 12.7483 51.7999 13.4986C51.5951 14.0115 51.8448 14.5933 52.3578 14.7981C52.8707 15.0029 53.4525 14.7532 53.6573 14.2402L54.5273 12.3573L54.589 12.234C54.8696 11.6732 55.1592 11.0944 55.3988 10.5045C55.9299 9.19686 56.2386 7.78088 55.8676 5.99583C55.4471 3.97366 54.1163 2.79904 52.4912 2.4907Z" fill="#6A3907"/>
<path fill-rule="evenodd" clip-rule="evenodd" d="M79.1619 82.5843C78.628 82.7256 78.3097 83.2729 78.451 83.8068C78.915 85.5607 80.2745 86.3211 81.3574 86.6311C81.8988 86.7862 82.4049 86.8419 82.7707 86.8602C82.9555 86.8695 83.1094 86.8695 83.2204 86.8669C83.276 86.8656 83.3212 86.8637 83.3545 86.8619C83.3607 86.8616 83.3664 86.8612 83.3718 86.8609C84.8273 86.8526 85.9089 86.3107 86.6223 85.7657C86.9791 85.4931 87.2448 85.2194 87.4246 85.0094C87.5149 84.9039 87.5844 84.8133 87.6339 84.7452C87.6587 84.7111 87.6786 84.6824 87.6936 84.6602C87.7011 84.6491 87.7073 84.6396 87.7124 84.6318L87.7191 84.6214L87.7218 84.6171L87.723 84.6153L87.7236 84.6144C87.7238 84.614 87.7241 84.6136 86.8777 84.081L87.7241 84.6136C88.0182 84.1461 87.8777 83.5288 87.4103 83.2346C86.9453 82.9421 86.3321 83.0795 86.0361 83.5409C86.0359 83.5411 86.0357 83.5415 86.0355 83.5418C86.0329 83.5457 86.0263 83.5553 86.0157 83.5698C85.9945 83.599 85.9577 83.6475 85.9051 83.7089C85.7993 83.8326 85.6338 84.0039 85.4081 84.1764C84.9621 84.5171 84.2849 84.861 83.3377 84.861C83.3123 84.861 83.2869 84.862 83.2616 84.8639C83.2606 84.864 83.2595 84.8641 83.2585 84.8642L83.2591 84.8641L83.2603 84.864L83.2617 84.8639H83.2621C83.262 84.8639 83.2619 84.8639 83.2616 84.8639C83.2615 84.8639 83.2614 84.8639 83.2613 84.8639L83.2478 84.8647C83.2333 84.8655 83.2082 84.8667 83.1739 84.8674C83.1051 84.869 83.0006 84.8693 82.871 84.8628C82.608 84.8496 82.2615 84.8096 81.908 84.7084C81.2009 84.506 80.6004 84.1114 80.3844 83.2952C80.2432 82.7613 79.6958 82.443 79.1619 82.5843Z" fill="#6A3907"/>
<path d="M73.4782 35.5303C73.5682 34.6503 76.2282 34.1703 79.9682 34.2203C79.8382 35.4603 81.5282 36.8903 81.3882 38.2104C75.1482 38.2004 73.3982 36.4003 73.4782 35.5303Z" fill="#6A3907"/>
<path d="M63.1084 24.891C63.1484 23.891 66.5784 23.191 71.3984 23.041C72.1484 24.081 76.0284 26.101 76.0184 27.581C65.2384 27.621 63.0684 25.911 63.1084 24.891Z" fill="#6A3907"/>
<path d="M15.6386 31.7507C15.6386 32.6907 13.7686 34.0807 8.54858 33.7807C8.55858 32.4207 8.58858 31.0607 8.62858 29.7207C12.7086 30.0107 15.6386 30.8107 15.6386 31.7507Z" fill="#6A3907"/>
<path d="M25.2079 21.5601C25.2079 22.5801 22.8979 23.9601 15.8879 23.7101C15.9879 22.3001 19.4679 21.5301 19.6479 20.0801C24.8179 20.3801 25.2079 20.5601 25.2079 21.5601Z" fill="#6A3907"/>
<path d="M84.1387 44.8302C84.0187 44.4202 83.3487 44.4602 83.0487 44.2102C82.3687 43.6502 82.3587 43.4402 82.1487 42.5802C81.4787 39.8702 81.2187 37.5802 79.9287 35.0902C77.8887 31.1702 74.5587 26.5302 71.0687 23.8302C62.8987 17.5002 53.0687 15.6602 48.0687 15.8302L47.8987 13.1602L61.8987 16.3302L74.8987 25.0002L79.7287 31.1702L82.3987 37.8302C82.9787 40.1502 83.5087 42.5602 84.1387 44.8302Z" fill="#6A3907"/>
<path d="M31.3887 16.3609C31.3787 16.2209 28.6387 16.7009 25.1387 18.3609C21.5187 20.0709 18.0887 22.2609 15.1387 24.9709C13.4187 26.5509 11.9087 28.3009 10.5987 30.2409C9.63862 31.6709 8.77862 33.1909 7.98862 34.7209C7.47862 35.7009 7.09862 36.7509 6.53862 37.7109C6.25862 38.1909 5.95862 38.6709 5.54862 39.0509C5.36862 39.2109 4.36862 39.7009 4.33862 39.8609C4.80862 37.7709 6.04862 35.4509 6.98862 33.5009C7.98862 31.4209 9.20862 29.4509 10.7987 27.7609C13.5487 24.8409 15.3887 21.8109 19.0687 19.9209C21.8587 18.4909 24.5087 16.7109 27.5587 15.8409C28.6887 15.5209 30.3087 15.3509 31.2587 14.6309C31.2587 15.4809 31.3387 15.5209 31.3887 16.3609Z" fill="#6A3907"/>
</g>
<defs>
<clipPath id="clip0_468_857">
<rect width="90" height="151" fill="white"/>
</clipPath>
</defs>
</svg>
