<svg width="90" height="151" viewBox="0 0 90 151" fill="none" xmlns="http://www.w3.org/2000/svg">
<path d="M84.3158 33.0485C82.3858 29.4085 80.0058 26.2185 77.2258 23.4785L77.6658 23.4585C80.5758 20.3585 83.8158 15.9085 82.0358 11.2985C81.3858 9.61848 80.7758 7.38848 79.3158 6.20848C81.4358 6.18848 79.1458 5.76848 79.1458 5.76848L80.7658 6.88848C77.4458 3.86848 70.8858 0.868484 66.6458 1.00848C59.8358 1.24848 55.8958 6.25848 55.8958 12.5085L55.8458 12.7685C52.5758 12.1385 49.0958 11.8085 45.3958 11.7585C41.6958 11.8085 38.2158 12.1385 34.9458 12.7685L34.8958 12.5085C34.8958 6.25848 30.9558 1.24848 24.1458 1.00848C19.8958 0.858484 14.9358 2.70848 11.6158 5.72848L11.6458 5.75848C11.6458 5.75848 8.80578 7.68848 9.56578 8.50848C8.98578 9.25848 9.09577 10.4285 8.75577 11.2885C6.97577 15.9085 10.2158 20.3485 13.1258 23.4485L13.5158 23.4585C13.3458 23.6385 13.1758 23.8085 12.9958 23.9985C10.4558 26.6085 8.27577 29.6285 6.47577 33.0285C0.365768 44.5685 1.31577 62.4985 4.55577 74.9985C7.80577 87.5485 19.1258 92.7885 29.4158 94.9085C35.9258 96.2585 42.0258 96.3485 45.3958 96.2485C48.8158 96.3485 55.0358 96.2485 61.6458 94.8585C71.8558 92.6985 83.0058 87.4385 86.2358 74.9985C89.4758 62.5185 90.4258 44.5885 84.3158 33.0485Z" fill="#F9C03D"/>
<path d="M63.876 123.819C63.956 125.539 63.916 127.259 63.786 128.969C63.636 130.989 63.346 132.999 62.926 134.979C62.776 135.709 62.606 136.439 62.416 137.159C61.596 140.249 60.426 145.409 57.266 146.969C56.126 147.529 54.096 147.739 52.776 147.509C46.516 146.469 51.716 134.699 45.396 134.559C39.076 134.699 44.276 146.469 38.016 147.509C36.696 147.739 34.666 147.529 33.526 146.969C30.366 145.409 29.196 140.249 28.376 137.159C27.226 132.809 26.736 128.309 26.916 123.819H26.886C25.666 125.869 20.956 127.549 18.396 124.019C17.256 122.449 17.506 119.439 17.896 117.769C19.266 111.859 21.766 105.249 24.956 99.7789C26.266 97.5389 27.396 96.0189 29.396 95.2689L29.416 94.9289C35.926 96.2789 42.026 96.3689 45.396 96.2689C48.816 96.3689 55.036 96.2689 61.646 94.8789L61.756 95.4189C63.536 96.2089 64.606 97.6789 65.836 99.7789C69.026 105.249 71.526 111.859 72.896 117.769C73.286 119.439 73.536 122.449 72.396 124.019C69.836 127.549 65.126 125.869 63.906 123.819H63.876Z" fill="#F9C03D"/>
<path d="M49.6455 142.649C49.6455 142.649 55.5255 144.149 59.8955 142.269C63.6755 140.649 60.0155 144.649 60.0155 144.649L56.5155 147.029L52.7655 147.769L50.3855 146.149L49.6455 142.649Z" fill="white"/>
<path d="M73.276 118.768C73.276 118.768 68.156 119.648 64.156 121.648L63.876 123.818L67.396 125.768L71.146 125.388L73.526 122.388L73.276 118.768Z" fill="white"/>
<path d="M17.5256 118.768C17.5256 118.768 22.6456 119.648 26.6456 121.648L26.9156 123.818L23.3956 125.768L19.6456 125.388L17.2656 122.388L17.5256 118.768Z" fill="white"/>
<path d="M61.3955 95.2676C61.5255 95.3176 61.6455 95.3676 61.7555 95.4176C63.5355 96.2076 64.6055 97.6776 65.8355 99.7776C69.0255 105.248 71.5255 111.858 72.8955 117.768C73.2855 119.438 73.5355 122.448 72.3955 124.018C69.8355 127.548 65.1255 125.868 63.9055 123.818" stroke="#6A3907" stroke-width="2" stroke-miterlimit="10" stroke-linecap="round" stroke-linejoin="round"/>
<path d="M60.8962 105.768C62.6762 111.328 63.5162 117.128 63.8462 122.948C63.8662 123.238 63.8762 123.528 63.8762 123.818C63.9562 125.538 63.9162 127.258 63.7862 128.968C63.6362 130.988 63.3462 132.998 62.9262 134.978C62.7762 135.708 62.6062 136.438 62.4162 137.158C61.5962 140.248 60.5562 145.578 57.3962 147.138C56.2562 147.698 54.0962 147.738 52.7762 147.508C46.5162 146.468 51.7162 134.698 45.3962 134.558C45.3062 134.548 45.2162 134.548 45.1162 134.548" stroke="#6A3907" stroke-width="2" stroke-miterlimit="10" stroke-linecap="round" stroke-linejoin="round"/>
<path d="M41.1463 142.649C41.1463 142.649 35.2663 144.149 30.8963 142.269C27.1163 140.649 30.7762 144.649 30.7762 144.649L34.2763 147.029L38.0263 147.769L40.4062 146.149L41.1463 142.649Z" fill="white"/>
<path d="M29.8962 105.768C28.1162 111.328 27.2762 117.128 26.9462 122.948C26.9262 123.238 26.9162 123.528 26.9162 123.818C26.8362 125.538 26.8762 127.258 27.0062 128.968C27.1562 130.988 27.4462 132.998 27.8662 134.978C28.0162 135.708 28.1862 136.438 28.3762 137.158C29.1962 140.248 30.2362 145.578 33.3962 147.138C34.5362 147.698 36.6962 147.738 38.0162 147.508C44.2762 146.468 39.0762 134.698 45.3962 134.558C45.4862 134.548 45.5762 134.548 45.6762 134.548" stroke="#6A3907" stroke-width="2" stroke-miterlimit="10" stroke-linecap="round" stroke-linejoin="round"/>
<path d="M29.396 95.2676C27.396 96.0176 26.266 97.5376 24.956 99.7776C21.766 105.248 19.266 111.858 17.896 117.768C17.506 119.438 17.256 122.448 18.396 124.018C20.956 127.548 25.666 125.868 26.886 123.818" stroke="#6A3907" stroke-width="2" stroke-miterlimit="10" stroke-linecap="round" stroke-linejoin="round"/>
<path d="M45.3953 11.7676C41.6953 11.8176 38.2153 12.1476 34.9453 12.7776" stroke="#6A3907" stroke-width="2" stroke-miterlimit="10" stroke-linecap="round" stroke-linejoin="round"/>
<path d="M45.3955 11.7676C49.0955 11.8176 52.5755 12.1476 55.8455 12.7776" stroke="#6A3907" stroke-width="2" stroke-miterlimit="10" stroke-linecap="round" stroke-linejoin="round"/>
<path d="M34.8955 12.5182C34.8955 6.26825 30.9555 1.25825 24.1455 1.01825C19.8955 0.868245 14.9355 2.71825 11.6155 5.73825C10.1655 7.04825 9.03554 8.57825 8.39554 10.2682C6.56554 15.1082 9.27553 20.0182 12.2755 23.2682L13.0055 24.0182C10.4655 26.6282 8.28553 29.6482 6.48553 33.0482C0.375532 44.5882 1.32554 62.5182 4.56554 75.0182C7.81554 87.5682 19.1355 92.8082 29.4255 94.9282C35.9355 96.2782 41.8655 96.2682 45.4055 96.2682" stroke="#6A3907" stroke-width="2" stroke-miterlimit="10" stroke-linecap="round" stroke-linejoin="round"/>
<path d="M55.8958 12.5182C55.8958 6.26825 59.8358 1.25825 66.6458 1.01825C70.8958 0.868245 75.8558 2.71825 79.1758 5.73825C80.6258 7.04825 81.7558 8.57825 82.3958 10.2682C84.2258 15.1082 81.5157 20.0182 78.5157 23.2682L77.7857 24.0182C80.3257 26.6282 82.5058 29.6482 84.3058 33.0482C90.4158 44.5882 89.4657 62.5182 86.2257 75.0182C82.9757 87.5682 71.6558 92.8082 61.3658 94.9282C54.8558 96.2782 49.0357 96.2682 45.3857 96.2682" stroke="#6A3907" stroke-width="2" stroke-miterlimit="10" stroke-linecap="round" stroke-linejoin="round"/>
<path d="M68.7159 107.278C68.8659 107.638 69.0158 107.998 69.1658 108.368C67.4158 109.198 65.7858 109.578 64.9858 108.818C63.4558 107.338 66.3359 106.148 67.2459 105.508C67.4559 105.368 67.6458 105.238 67.8458 105.098C68.1458 105.838 68.4259 106.578 68.7159 107.278Z" fill="#6A3907"/>
<path d="M70.5254 111.609C70.9654 112.689 71.3754 113.759 71.7754 114.859C69.9854 115.539 68.3454 115.789 67.6154 114.969C66.2054 113.389 69.1654 112.419 70.1254 111.849C70.2654 111.769 70.4054 111.689 70.5254 111.609Z" fill="#6A3907"/>
<path d="M60.9356 137.049C59.8156 137.309 56.6257 137.339 57.4457 139.209C57.8657 140.179 59.5457 140.409 61.5257 140.289C61.6557 139.139 61.7257 137.999 61.7357 136.869C61.4657 136.939 61.2156 136.989 60.9356 137.049Z" fill="#6A3907"/>
<path d="M28.706 131.509C29.826 131.739 33.026 131.719 32.216 133.599C31.826 134.529 30.236 134.819 28.336 134.769C28.236 134.439 28.146 134.119 28.046 133.809C27.966 132.979 27.926 132.169 27.916 131.359C28.186 131.399 28.436 131.459 28.706 131.509Z" fill="#6A3907"/>
<path d="M29.8557 137.049C30.9757 137.309 34.1657 137.339 33.3457 139.209C32.9257 140.179 31.2457 140.409 29.2657 140.289C29.1357 139.139 29.0657 137.999 29.0557 136.869C29.3257 136.939 29.5857 136.989 29.8557 137.049Z" fill="#6A3907"/>
<path d="M22.076 107.278C21.926 107.638 21.776 107.998 21.626 108.368C23.376 109.198 25.006 109.578 25.806 108.818C27.336 107.338 24.456 106.148 23.546 105.508C23.336 105.368 23.146 105.238 22.946 105.098C22.656 105.838 22.366 106.578 22.076 107.278Z" fill="#6A3907"/>
<path d="M20.2656 111.609C19.8356 112.689 19.4156 113.759 19.0156 114.859C20.8056 115.539 22.4456 115.789 23.1756 114.969C24.5856 113.389 21.6256 112.419 20.6656 111.849C20.5256 111.769 20.3956 111.689 20.2656 111.609Z" fill="#6A3907"/>
<path d="M43.0959 114.619C44.3159 114.649 45.2359 114.659 45.6459 114.659C46.8059 114.649 51.0359 114.249 50.7259 116.099C50.3959 118.049 45.0859 117.709 43.6059 117.749C39.2459 117.889 37.9159 117.569 33.6159 117.079C33.4459 117.059 27.9859 116.189 28.0059 116.079C28.1959 115.079 28.3359 112.899 28.6359 111.939C27.8159 113.049 36.5059 114.439 43.0959 114.619Z" fill="#6A3907"/>
<path d="M20.9058 117.388C20.9258 117.318 20.9458 117.238 20.9558 117.178C20.9058 117.248 20.8958 117.318 20.9058 117.388Z" fill="#6A3907"/>
<path d="M38.6359 121.098C38.2159 121.088 37.2559 121.048 35.9959 120.968C33.1759 120.798 29.9959 120.398 27.2959 119.918C27.4359 121.098 27.5159 122.278 27.5659 123.438C30.8659 123.958 32.4059 124.248 36.3759 124.248C37.9159 124.248 43.3959 124.788 43.8259 122.768C44.2359 120.858 39.8359 121.128 38.6359 121.098Z" fill="#6A3907"/>
<path d="M54.4857 118.698C54.8357 118.658 55.6157 118.548 56.6557 118.388C58.9757 118.028 61.5757 117.418 63.7657 116.748C63.7457 117.938 63.7757 119.118 63.8357 120.278C61.1457 121.018 59.8957 121.408 56.6157 121.678C55.3457 121.778 50.8557 122.698 50.3357 120.708C49.8357 118.838 53.4957 118.808 54.4857 118.698Z" fill="#6A3907"/>
<path d="M50.3961 109.028C50.8161 108.978 51.7661 108.858 53.0161 108.688C55.8161 108.288 58.9561 107.628 61.6061 106.928C61.5661 108.118 61.5761 109.298 61.6261 110.468C58.3761 111.248 56.8661 111.668 52.9161 111.998C51.3861 112.128 45.9561 113.118 45.3661 111.138C44.7961 109.238 49.1961 109.158 50.3961 109.028Z" fill="#6A3907"/>
<path d="M30.4162 106.779C30.3462 106.739 30.2362 106.729 30.1262 106.699C29.9362 107.799 29.7362 108.839 29.4962 109.859C29.4762 109.939 32.3962 110.939 34.9762 111.269C35.8362 111.379 38.4562 111.779 38.8062 110.599C39.4762 108.349 36.5162 108.459 35.8062 108.349C31.9762 107.769 31.3162 107.359 30.4162 106.779Z" fill="#6A3907"/>
<path d="M58.526 19.1586C58.526 17.8286 54.456 16.7086 48.916 16.3786C49.056 13.5086 49.186 14.3086 49.316 11.4386C49.026 11.4186 48.736 11.3986 48.436 11.3886C46.136 11.7186 43.966 11.1786 41.566 11.0586C41.696 13.7786 41.736 13.6586 41.866 16.3886C36.406 16.7386 32.416 17.8486 32.416 19.1586C32.416 20.4886 36.536 21.6086 42.126 21.9286C42.236 24.1086 42.426 25.9386 42.536 28.1186C38.166 28.4286 34.986 29.4086 34.986 30.5686C34.986 31.7486 38.286 32.7286 42.766 33.0286C42.816 34.1386 42.876 34.3986 42.926 35.5086C42.976 36.4086 43.566 38.7786 45.476 38.7786C47.396 38.7786 47.986 36.4086 48.036 35.5086C48.086 34.4086 48.136 34.1386 48.196 33.0386C52.766 32.7586 56.136 31.7586 56.136 30.5686C56.136 29.3886 52.876 28.4086 48.426 28.1086C48.536 25.9286 48.546 24.1086 48.646 21.9386C54.326 21.6286 58.526 20.4986 58.526 19.1586Z" fill="#6A3907"/>
<path d="M74.0956 133.999C75.0056 136.279 73.0356 137.289 71.2256 137.679C70.9356 137.739 70.6356 137.799 70.3356 137.829C68.0756 138.169 65.6456 137.949 63.2956 137.439C61.1956 136.969 57.8056 135.899 55.9256 135.119L55.2656 134.979C55.6856 132.999 55.9756 130.989 56.1256 128.969L56.7256 129.019C58.4456 130.049 62.7556 131.679 64.0156 132.029C64.1856 132.079 64.3856 132.129 64.5856 132.169C65.5256 132.399 66.7056 132.619 67.5456 132.679C68.4456 132.739 69.3556 132.709 70.1956 132.679C72.0256 132.639 73.5656 132.669 74.0956 133.999Z" fill="#F9C03D"/>
<path d="M47.1455 126.609C55.1455 127.609 58.3355 130.459 64.0055 132.039C64.1755 132.089 64.3755 132.139 64.5755 132.179C65.5155 132.409 66.6955 132.629 67.5355 132.689C68.4355 132.749 69.3455 132.719 70.1855 132.689C72.0255 132.649 73.5555 132.679 74.0855 134.009C74.9955 136.289 73.0255 137.299 71.2155 137.689C70.9255 137.749 70.6255 137.809 70.3255 137.839C68.0655 138.179 65.6355 137.959 63.2855 137.449C61.1855 136.979 57.7955 135.909 55.9155 135.129C55.9155 135.129 50.4755 132.279 47.1455 132.109" stroke="#6A3907" stroke-width="2" stroke-miterlimit="10" stroke-linecap="round" stroke-linejoin="round"/>
<path d="M69.626 133.189C69.626 133.189 70.736 135.849 69.836 136.869L70.686 136.769L71.816 136.639L72.256 136.559C73.016 134.269 71.716 132.869 71.716 132.869" fill="#6A3907"/>
<path d="M67.6556 133.528L65.5756 132.918C65.5756 132.918 65.6856 135.548 64.2656 136.908L66.9056 137.598C68.4156 135.708 67.8556 133.748 67.8556 133.748" fill="#6A3907"/>
<path d="M62.3158 132.028L60.2358 131.418C60.2358 131.418 60.3458 134.048 58.9258 135.408L61.5658 136.098C63.0758 134.208 62.5158 132.248 62.5158 132.248" fill="#6A3907"/>
<path d="M57.186 130.229L55.196 129.379C55.196 129.379 54.986 132.009 53.416 133.179L55.956 134.179C57.686 132.489 57.366 130.469 57.366 130.469" fill="#6A3907"/>
<path d="M51.5258 128.089L49.4157 127.629C49.4157 127.629 49.7057 130.249 48.3857 131.699L51.0657 132.199C52.4457 130.219 51.7557 128.289 51.7557 128.289" fill="#6A3907"/>
<path d="M78.996 76.3492C77.486 76.4292 75.446 76.4492 74.036 77.0592C73.456 77.3092 73.316 77.5092 73.056 77.7692C72.016 78.8192 72.956 79.9592 74.826 80.3092C77.436 80.7992 80.426 80.7492 83.056 80.7092C83.186 80.7092 83.336 80.7092 83.486 80.7092C84.286 79.3292 85.056 77.8892 85.786 76.3992C83.526 76.2892 81.256 76.2292 78.996 76.3492Z" fill="#6A3907"/>
<path d="M79.4753 84.8784C78.1353 84.9684 76.7353 84.8384 75.4853 85.3884C74.9753 85.6184 74.5253 85.8984 74.2953 86.1384C73.3853 87.0784 74.1553 88.1384 75.8153 88.4284C76.4053 88.5284 77.0753 88.5984 77.7653 88.6484C78.8553 87.4584 79.8753 86.1784 80.8453 84.8184C80.3853 84.8384 79.9353 84.8484 79.4753 84.8784Z" fill="#6A3907"/>
<path d="M11.6259 76.3492C13.1359 76.4292 15.1759 76.4492 16.5859 77.0592C17.1659 77.3092 17.3059 77.5092 17.5659 77.7692C18.6059 78.8192 17.6659 79.9592 15.7959 80.3092C13.1859 80.7992 10.1959 80.7492 7.56595 80.7092C7.43595 80.7092 7.28594 80.7092 7.13594 80.7092C6.33594 79.3292 5.56594 77.8892 4.83594 76.3992C7.10594 76.2892 9.37595 76.2292 11.6259 76.3492Z" fill="#6A3907"/>
<path d="M11.1454 84.8784C12.4854 84.9684 13.8854 84.8384 15.1354 85.3884C15.6454 85.6184 16.0954 85.8984 16.3254 86.1384C17.2354 87.0784 16.4654 88.1384 14.8054 88.4284C14.2154 88.5284 13.5454 88.5984 12.8554 88.6484C11.7654 87.4584 10.7454 86.1784 9.77539 84.8184C10.2354 84.8384 10.6954 84.8484 11.1454 84.8784Z" fill="#6A3907"/>
</svg>
