<svg width="51" height="42" viewBox="0 0 51 42" fill="none" xmlns="http://www.w3.org/2000/svg">
<path d="M35.4992 21.3546C35.4992 26.8783 31.022 31.3555 25.4983 31.3555C19.9745 31.3555 15.501 26.8783 15.501 21.3546C15.501 13.8248 25.5019 8.14478 25.5019 8.14478C25.5019 8.14478 35.4992 14.0719 35.4992 21.3546Z" stroke="white" stroke-width="1.5" stroke-miterlimit="10" stroke-linecap="round" stroke-linejoin="round"/>
<path d="M27.6924 15.7698C28.977 16.6877 31.5439 18.8328 31.5439 21.3253" stroke="white" stroke-width="1.5" stroke-miterlimit="10" stroke-linecap="round" stroke-linejoin="round"/>
<path d="M45.2341 24.2688C43.6715 33.761 35.4331 41 25.5012 41C15.5693 41 7.32729 33.761 5.76465 24.2688" stroke="white" stroke-width="1.5" stroke-miterlimit="10" stroke-linecap="round" stroke-linejoin="round"/>
<path d="M5.76465 17.7312C7.32729 8.23904 15.5657 1 25.4976 1C35.4294 1 43.6715 8.23904 45.2305 17.7312" stroke="white" stroke-width="1.5" stroke-miterlimit="10" stroke-linecap="round" stroke-linejoin="round"/>
<path d="M47.2118 16.8662L45.3076 18.7668L43.4033 16.8662" stroke="white" stroke-width="1.5" stroke-miterlimit="10" stroke-linecap="round" stroke-linejoin="round"/>
<path d="M3.78809 24.5561L5.69233 22.6519L7.59658 24.5561" stroke="white" stroke-width="1.5" stroke-miterlimit="10" stroke-linecap="round" stroke-linejoin="round"/>
</svg>
