<svg width="226" height="219" viewBox="0 0 226 219" fill="none" xmlns="http://www.w3.org/2000/svg">
<g opacity="0.3">
<path d="M217.87 16.2877C213.381 16.2877 209.742 12.6416 209.742 8.14385C209.742 3.64613 213.381 0 217.87 0C222.36 0 225.999 3.64613 225.999 8.14385C225.999 12.6416 222.36 16.2877 217.87 16.2877Z" fill="white"/>
<path d="M175.919 16.2877C171.429 16.2877 167.79 12.6416 167.79 8.14385C167.79 3.64613 171.429 0 175.919 0C180.408 0 184.047 3.64613 184.047 8.14385C184.047 12.6416 180.408 16.2877 175.919 16.2877Z" fill="white"/>
<path d="M133.969 16.2877C129.48 16.2877 125.841 12.6416 125.841 8.14385C125.841 3.64613 129.48 0 133.969 0C138.459 0 142.098 3.64613 142.098 8.14385C142.098 12.6416 138.459 16.2877 133.969 16.2877Z" fill="white"/>
<path d="M92.0223 16.2877C87.533 16.2877 83.8937 12.6416 83.8937 8.14385C83.8937 3.64613 87.533 0 92.0223 0C96.5116 0 100.151 3.64613 100.151 8.14385C100.151 12.6416 96.5116 16.2877 92.0223 16.2877Z" fill="white"/>
<path d="M50.0731 16.2877C45.5838 16.2877 41.9445 12.6416 41.9445 8.14385C41.9445 3.64613 45.5838 0 50.0731 0C54.5624 0 58.2017 3.64613 58.2017 8.14385C58.2017 12.6416 54.5624 16.2877 50.0731 16.2877Z" fill="white"/>
<path d="M8.12875 16.2877C3.63946 16.2877 0.000165939 12.6416 0.000165939 8.14385C0.000165939 3.64613 3.63946 0 8.12875 0C12.618 0 16.2573 3.64613 16.2573 8.14385C16.2573 12.6416 12.618 16.2877 8.12875 16.2877Z" fill="white"/>
<path d="M217.869 50.1848C213.827 50.1848 210.549 46.9015 210.549 42.8513C210.549 38.8011 213.827 35.5178 217.869 35.5178C221.912 35.5178 225.189 38.8011 225.189 42.8513C225.189 46.9015 221.912 50.1848 217.869 50.1848Z" fill="white"/>
<path d="M175.92 50.1848C171.877 50.1848 168.6 46.9015 168.6 42.8513C168.6 38.8011 171.877 35.5178 175.92 35.5178C179.962 35.5178 183.24 38.8011 183.24 42.8513C183.24 46.9015 179.962 50.1848 175.92 50.1848Z" fill="white"/>
<path d="M133.968 50.1848C129.926 50.1848 126.648 46.9015 126.648 42.8513C126.648 38.8011 129.926 35.5178 133.968 35.5178C138.011 35.5178 141.288 38.8011 141.288 42.8513C141.288 46.9015 138.011 50.1848 133.968 50.1848Z" fill="white"/>
<path d="M92.0238 50.1848C87.9812 50.1848 84.704 46.9015 84.704 42.8513C84.704 38.8011 87.9812 35.5178 92.0238 35.5178C96.0663 35.5178 99.3435 38.8011 99.3435 42.8513C99.3435 46.9015 96.0663 50.1848 92.0238 50.1848Z" fill="white"/>
<path d="M50.0743 50.1848C46.0317 50.1848 42.7546 46.9015 42.7546 42.8513C42.7546 38.8011 46.0317 35.5178 50.0743 35.5178C54.1169 35.5178 57.394 38.8011 57.394 42.8513C57.394 46.9015 54.1169 50.1848 50.0743 50.1848Z" fill="white"/>
<path d="M8.12998 50.1848C4.0874 50.1848 0.810238 46.9015 0.810238 42.8513C0.810238 38.8011 4.0874 35.5178 8.12998 35.5178C12.1726 35.5178 15.4497 38.8011 15.4497 42.8513C15.4497 46.9015 12.1726 50.1848 8.12998 50.1848Z" fill="white"/>
<path d="M217.871 84.0763C214.279 84.0763 211.366 81.1583 211.366 77.5589C211.366 73.9594 214.279 71.0415 217.871 71.0415C221.464 71.0415 224.376 73.9594 224.376 77.5589C224.376 81.1583 221.464 84.0763 217.871 84.0763Z" fill="white"/>
<path d="M175.919 84.0763C172.327 84.0763 169.414 81.1583 169.414 77.5589C169.414 73.9594 172.327 71.0415 175.919 71.0415C179.512 71.0415 182.425 73.9594 182.425 77.5589C182.425 81.1583 179.512 84.0763 175.919 84.0763Z" fill="white"/>
<path d="M133.97 84.0763C130.377 84.0763 127.465 81.1583 127.465 77.5589C127.465 73.9594 130.377 71.0415 133.97 71.0415C137.563 71.0415 140.475 73.9594 140.475 77.5589C140.475 81.1583 137.563 84.0763 133.97 84.0763Z" fill="white"/>
<path d="M92.0207 84.0763C88.428 84.0763 85.5156 81.1583 85.5156 77.5589C85.5156 73.9594 88.428 71.0415 92.0207 71.0415C95.6134 71.0415 98.5259 73.9594 98.5259 77.5589C98.5259 81.1583 95.6134 84.0763 92.0207 84.0763Z" fill="white"/>
<path d="M50.0739 84.0763C46.4812 84.0763 43.5688 81.1583 43.5688 77.5589C43.5688 73.9594 46.4812 71.0415 50.0739 71.0415C53.6666 71.0415 56.5791 73.9594 56.5791 77.5589C56.5791 81.1583 53.6666 84.0763 50.0739 84.0763Z" fill="white"/>
<path d="M8.12693 84.0763C4.53424 84.0763 1.62177 81.1583 1.62177 77.5589C1.62177 73.9594 4.53424 71.0415 8.12693 71.0415C11.7196 71.0415 14.6321 73.9594 14.6321 77.5589C14.6321 81.1583 11.7196 84.0763 8.12693 84.0763Z" fill="white"/>
<path d="M217.871 117.962C214.728 117.962 212.18 115.41 212.18 112.261C212.18 109.112 214.728 106.56 217.871 106.56C221.014 106.56 223.561 109.112 223.561 112.261C223.561 115.41 221.014 117.962 217.871 117.962Z" fill="white"/>
<path d="M175.917 117.962C172.774 117.962 170.226 115.41 170.226 112.261C170.226 109.112 172.774 106.56 175.917 106.56C179.059 106.56 181.607 109.112 181.607 112.261C181.607 115.41 179.059 117.962 175.917 117.962Z" fill="white"/>
<path d="M133.97 117.962C130.827 117.962 128.279 115.41 128.279 112.261C128.279 109.112 130.827 106.56 133.97 106.56C137.112 106.56 139.66 109.112 139.66 112.261C139.66 115.41 137.112 117.962 133.97 117.962Z" fill="white"/>
<path d="M92.0228 117.962C88.88 117.962 86.3322 115.41 86.3322 112.261C86.3322 109.112 88.88 106.56 92.0228 106.56C95.1656 106.56 97.7134 109.112 97.7134 112.261C97.7134 115.41 95.1656 117.962 92.0228 117.962Z" fill="white"/>
<path d="M50.0733 117.962C46.9305 117.962 44.3828 115.41 44.3828 112.261C44.3828 109.112 46.9305 106.56 50.0733 106.56C53.2162 106.56 55.7639 109.112 55.7639 112.261C55.7639 115.41 53.2162 117.962 50.0733 117.962Z" fill="white"/>
<path d="M8.12657 117.962C4.98375 117.962 2.43598 115.41 2.43598 112.261C2.43598 109.112 4.98375 106.56 8.12657 106.56C11.2694 106.56 13.8171 109.112 13.8171 112.261C13.8171 115.41 11.2694 117.962 8.12657 117.962Z" fill="white"/>
<path d="M217.871 151.641C215.296 151.641 213.208 149.549 213.208 146.969C213.208 144.388 215.296 142.296 217.871 142.296C220.447 142.296 222.535 144.388 222.535 146.969C222.535 149.549 220.447 151.641 217.871 151.641Z" fill="white"/>
<path d="M133.97 151.641C131.395 151.641 129.307 149.549 129.307 146.969C129.307 144.388 131.395 142.296 133.97 142.296C136.546 142.296 138.634 144.388 138.634 146.969C138.634 149.549 136.546 151.641 133.97 151.641Z" fill="white"/>
<path d="M92.0233 151.641C89.4475 151.641 87.3595 149.549 87.3595 146.969C87.3595 144.388 89.4475 142.296 92.0233 142.296C94.599 142.296 96.687 144.388 96.687 146.969C96.687 149.549 94.599 151.641 92.0233 151.641Z" fill="white"/>
<path d="M50.074 151.641C47.4983 151.641 45.4103 149.549 45.4103 146.969C45.4103 144.388 47.4983 142.296 50.074 142.296C52.6498 142.296 54.7378 144.388 54.7378 146.969C54.7378 149.549 52.6498 151.641 50.074 151.641Z" fill="white"/>
<path d="M217.871 184.935C216.075 184.935 214.619 183.476 214.619 181.676C214.619 179.877 216.075 178.418 217.871 178.418C219.668 178.418 221.124 179.877 221.124 181.676C221.124 183.476 219.668 184.935 217.871 184.935Z" fill="white"/>
<path d="M133.97 184.935C132.174 184.935 130.717 183.476 130.717 181.676C130.717 179.877 132.174 178.418 133.97 178.418C135.766 178.418 137.223 179.877 137.223 181.676C137.223 183.476 135.766 184.935 133.97 184.935Z" fill="white"/>
<path d="M92.0206 184.935C90.2243 184.935 88.768 183.476 88.768 181.676C88.768 179.877 90.2243 178.418 92.0206 178.418C93.817 178.418 95.2732 179.877 95.2732 181.676C95.2732 183.476 93.817 184.935 92.0206 184.935Z" fill="white"/>
<path d="M217.871 218.826C216.524 218.826 215.433 217.733 215.433 216.384C215.433 215.035 216.524 213.941 217.871 213.941C219.217 213.941 220.309 215.035 220.309 216.384C220.309 217.733 219.217 218.826 217.871 218.826Z" fill="white"/>
<path d="M92.0227 218.826C90.6762 218.826 89.5847 217.733 89.5847 216.384C89.5847 215.035 90.6762 213.941 92.0227 213.941C93.3692 213.941 94.4607 215.035 94.4607 216.384C94.4607 217.733 93.3692 218.826 92.0227 218.826Z" fill="white"/>
</g>
</svg>
