<svg width="51" height="42" viewBox="0 0 51 42" fill="none" xmlns="http://www.w3.org/2000/svg">
<path d="M30.8174 34.2872C38.1556 31.132 41.5468 22.6254 38.3916 15.2872C35.2365 7.94889 26.7299 4.55778 19.3916 7.71291C12.0533 10.868 8.66223 19.3746 11.8174 26.7129C14.9725 34.0512 23.4791 37.4423 30.8174 34.2872Z" stroke="white" stroke-width="1.5" stroke-miterlimit="10" stroke-linecap="round" stroke-linejoin="round"/>
<path d="M28.6964 27.3039C32.1777 25.319 33.3908 20.8878 31.4059 17.4065C29.421 13.9252 24.9898 12.7121 21.5085 14.697C18.0272 16.6819 16.8142 21.1132 18.799 24.5944C20.7839 28.0757 25.2151 29.2888 28.6964 27.3039Z" stroke="white" stroke-width="1.5" stroke-miterlimit="10" stroke-linecap="round" stroke-linejoin="round"/>
<path d="M26.2927 20.9991C26.2927 21.6539 25.7635 22.1831 25.1087 22.1831C24.454 22.1831 23.9248 21.6539 23.9248 20.9991C23.9248 20.3444 24.454 19.8152 25.1087 19.8152C25.759 19.8152 26.2927 20.3444 26.2927 20.9991Z" stroke="white" stroke-width="1.5" stroke-miterlimit="10" stroke-linecap="round" stroke-linejoin="round"/>
<path d="M25.1045 20.9992L40.859 6.6394" stroke="white" stroke-width="1.5" stroke-miterlimit="10" stroke-linecap="round" stroke-linejoin="round"/>
<path d="M37.1104 10.2137L36.5498 5.98473L40.8147 2.33423L40.8595 6.63948L37.1104 10.2137Z" stroke="white" stroke-width="1.5" stroke-miterlimit="10" stroke-linecap="round" stroke-linejoin="round"/>
<path d="M44.8957 7.60809L40.8595 6.6394L37.1104 10.0567L41.1331 10.8819L44.8957 7.60809Z" stroke="white" stroke-width="1.5" stroke-miterlimit="10" stroke-linecap="round" stroke-linejoin="round"/>
</svg>
