<svg width="51" height="42" viewBox="0 0 51 42" fill="none" xmlns="http://www.w3.org/2000/svg">
<path d="M39.9942 15.7656H10.7486L1 40.372H49.7428L39.9942 15.7656Z" stroke="white" stroke-width="1.5" stroke-miterlimit="10" stroke-linecap="round" stroke-linejoin="round"/>
<path d="M9.43359 19.0923C9.43359 19.0923 22.7463 29.9233 43.4874 24.5816" stroke="white" stroke-width="1.5" stroke-miterlimit="10" stroke-linecap="round" stroke-linejoin="round"/>
<path d="M6.67188 26.0581C6.67188 26.0581 20.9992 29.376 21.5903 40.372" stroke="white" stroke-width="1.5" stroke-miterlimit="10" stroke-linecap="round" stroke-linejoin="round"/>
<path d="M44.8644 28.0732C44.8644 28.0732 31.287 32.5637 29.2314 40.3808" stroke="white" stroke-width="1.5" stroke-miterlimit="10" stroke-linecap="round" stroke-linejoin="round"/>
<path d="M17.6559 11.4218C19.6049 11.4218 21.1848 9.86638 21.1848 7.94762C21.1848 6.02885 19.6049 4.47339 17.6559 4.47339C15.7069 4.47339 14.127 6.02885 14.127 7.94762C14.127 9.86638 15.7069 11.4218 17.6559 11.4218Z" stroke="white" stroke-width="1.5" stroke-miterlimit="10" stroke-linecap="round" stroke-linejoin="round"/>
<path d="M30.8892 7.94846C32.8382 7.94846 34.4181 6.39299 34.4181 4.47423C34.4181 2.55546 32.8382 1 30.8892 1C28.9403 1 27.3604 2.55546 27.3604 4.47423C27.3604 6.39299 28.9403 7.94846 30.8892 7.94846Z" stroke="white" stroke-width="1.5" stroke-miterlimit="10" stroke-linecap="round" stroke-linejoin="round"/>
<path d="M30.8545 8.2002V22.0972" stroke="white" stroke-width="1.5" stroke-miterlimit="10" stroke-linecap="round" stroke-linejoin="round"/>
<path d="M17.6211 11.6746V21.2288" stroke="white" stroke-width="1.5" stroke-miterlimit="10" stroke-linecap="round" stroke-linejoin="round"/>
</svg>
