<svg width="52" height="42" viewBox="0 0 52 42" fill="none" xmlns="http://www.w3.org/2000/svg">
<path d="M24.3018 20.6877C24.3018 20.6877 23.8366 16.6658 19.6273 14.483C15.418 12.3003 11.2165 14.483 11.2165 14.483C11.2165 14.483 10.0924 18.2379 14.1855 21.2296C18.2785 24.2213 24.3018 20.6877 24.3018 20.6877Z" stroke="white" stroke-width="1.5" stroke-linecap="round" stroke-linejoin="round"/>
<path d="M27.4258 20.6877C27.4258 20.6877 27.8909 16.6658 32.1002 14.483C36.3095 12.3003 40.5111 14.483 40.5111 14.483C40.5111 14.483 41.6351 18.2379 37.5421 21.2296C33.449 24.2213 27.4258 20.6877 27.4258 20.6877Z" stroke="white" stroke-width="1.5" stroke-linecap="round" stroke-linejoin="round"/>
<path d="M26.0752 31.5256L26.0752 18.0486" stroke="white" stroke-width="1.5" stroke-linecap="round" stroke-linejoin="round"/>
<path d="M16.333 38.2838C16.333 34.7197 20.6741 31.8271 26.0229 31.8271C31.3718 31.8271 35.7129 34.7197 35.7129 38.2838" stroke="white" stroke-width="1.5" stroke-linecap="round" stroke-linejoin="round"/>
<path d="M25.8749 3.71631C25.8749 3.71631 21.6113 4.97558 21.6113 10.3408C21.6113 15.7061 25.8749 16.9653 25.8749 16.9653C25.8749 16.9653 30.1384 15.7061 30.1384 10.3408C30.1384 4.97558 25.8749 3.71631 25.8749 3.71631Z" stroke="white" stroke-width="1.5" stroke-linecap="round" stroke-linejoin="round"/>
</svg>
