<svg width="52" height="42" viewBox="0 0 52 42" fill="none" xmlns="http://www.w3.org/2000/svg">
<path d="M35.2145 38.1563H16.5058C15.5229 38.1563 14.7256 37.3591 14.7256 36.3762V33.921C14.7256 32.9382 15.5229 32.1409 16.5058 32.1409H35.2187C36.2016 32.1409 36.9988 32.9382 36.9988 33.921V36.3762C36.9946 37.3591 36.1973 38.1563 35.2145 38.1563Z" stroke="white" stroke-width="1.5" stroke-miterlimit="10" stroke-linecap="round" stroke-linejoin="round"/>
<path d="M34.325 32.141H17.3965V20.6289C17.3965 16.2797 21.1846 12.7573 25.8586 12.7573C30.5326 12.7573 34.3208 16.2839 34.3208 20.6289V32.141H34.325Z" stroke="white" stroke-width="1.5" stroke-miterlimit="10" stroke-linecap="round" stroke-linejoin="round"/>
<path d="M7.34375 19.3337H12.1738" stroke="white" stroke-width="1.5" stroke-miterlimit="10" stroke-linecap="round" stroke-linejoin="round"/>
<path d="M12.7939 7.72046L16.2109 11.1374" stroke="white" stroke-width="1.5" stroke-miterlimit="10" stroke-linecap="round" stroke-linejoin="round"/>
<path d="M25.8623 3.84375V8.67384" stroke="white" stroke-width="1.5" stroke-miterlimit="10" stroke-linecap="round" stroke-linejoin="round"/>
<path d="M40.1171 7.72046L36.7002 11.1374" stroke="white" stroke-width="1.5" stroke-miterlimit="10" stroke-linecap="round" stroke-linejoin="round"/>
<path d="M44.6553 19.3337H39.8252" stroke="white" stroke-width="1.5" stroke-miterlimit="10" stroke-linecap="round" stroke-linejoin="round"/>
</svg>
