<svg width="51" height="42" viewBox="0 0 51 42" fill="none" xmlns="http://www.w3.org/2000/svg">
<path d="M17.2415 29.3678C13.1112 28.3606 10.0469 24.6321 10.0469 20.1964C10.0469 14.9785 14.2737 10.7517 19.4915 10.7517C23.9594 10.7517 27.704 13.8535 28.6844 18.0267" stroke="white" stroke-width="1.5" stroke-miterlimit="10" stroke-linecap="round" stroke-linejoin="round"/>
<path d="M19.4922 8.20175V3.26782" stroke="white" stroke-width="1.5" stroke-miterlimit="10" stroke-linecap="round" stroke-linejoin="round"/>
<path d="M13.4916 9.80893L11.0273 5.53394" stroke="white" stroke-width="1.5" stroke-miterlimit="10" stroke-linecap="round" stroke-linejoin="round"/>
<path d="M9.10508 14.1962L4.83008 11.7319" stroke="white" stroke-width="1.5" stroke-miterlimit="10" stroke-linecap="round" stroke-linejoin="round"/>
<path d="M7.49741 20.1963H2.56348" stroke="white" stroke-width="1.5" stroke-miterlimit="10" stroke-linecap="round" stroke-linejoin="round"/>
<path d="M9.10508 26.1909L4.83008 28.6606" stroke="white" stroke-width="1.5" stroke-miterlimit="10" stroke-linecap="round" stroke-linejoin="round"/>
<path d="M29.8789 14.1962L34.1485 11.7319" stroke="white" stroke-width="1.5" stroke-miterlimit="10" stroke-linecap="round" stroke-linejoin="round"/>
<path d="M25.4863 9.80893L27.956 5.53394" stroke="white" stroke-width="1.5" stroke-miterlimit="10" stroke-linecap="round" stroke-linejoin="round"/>
<path d="M44.3387 30.5409H44.2583C44.494 29.9409 44.628 29.2873 44.628 28.5963C44.628 25.6713 42.2547 23.3034 39.3351 23.3034C37.7547 23.3034 36.3351 23.9998 35.3655 25.098C34.1333 22.3177 31.3476 20.373 28.1119 20.373C23.7297 20.373 20.178 23.9248 20.178 28.307C20.178 29.0838 20.2905 29.8284 20.4994 30.5355H20.044C17.7833 30.5355 15.9512 32.3677 15.9512 34.6338C15.9512 36.8945 17.7833 38.732 20.044 38.732H44.344C46.6047 38.732 48.4369 36.8998 48.4369 34.6338C48.4315 32.3784 46.5994 30.5409 44.3387 30.5409Z" stroke="white" stroke-width="1.5" stroke-miterlimit="10" stroke-linecap="square" stroke-linejoin="round"/>
</svg>
