<svg width="51" height="42" viewBox="0 0 51 42" fill="none" xmlns="http://www.w3.org/2000/svg">
<path d="M14.3638 9.16345H12.0616L10 6.9646V36.0571C10 37.7215 11.3744 39.0746 13.065 39.0746H41L40.9244 9.16345H20.6792" stroke="white" stroke-width="1.5" stroke-linecap="round" stroke-linejoin="round"/>
<path d="M14.4119 8.96057H12.5633C11.1476 8.96057 10 7.83069 10 6.43695V5.44916C10 4.05541 11.1476 2.92554 12.5633 2.92554H41V8.96057H20.9472" stroke="white" stroke-width="1.5" stroke-linecap="round" stroke-linejoin="round"/>
<path d="M31.5371 29.3997H29.1319L27.9224 26.0237H23.7167L22.4865 29.3997H20.2188L24.8574 17.1133H26.8503L31.5371 29.3997ZM24.3489 24.2037H27.2764L26.4311 21.7004C26.1356 20.8818 25.9844 20.4082 25.8058 19.806C25.6134 20.4894 25.5103 20.8276 25.201 21.7004L24.3489 24.2037Z" fill="white"/>
<path d="M14.8105 6.4563V17.5453L17.5594 15.1232L20.3082 17.5453V6.4563H14.8105Z" stroke="white" stroke-width="1.5" stroke-linecap="round" stroke-linejoin="round"/>
</svg>
