<svg width="53" height="62" viewBox="0 0 53 62" fill="none" xmlns="http://www.w3.org/2000/svg">
<path d="M42.6112 15.5557H17.8632C12.2221 15.5557 8.16675 19.9158 8.16675 25.6089V29.923C8.16675 30.0281 8.50206 29.9953 8.50206 29.9953H17.4927C17.4992 29.9953 17.9152 30.0281 17.9152 29.923V25.6089C17.9152 25.4119 17.6682 25.4053 17.8632 25.4053H42.6112V15.5557Z" fill="#C4C4C4"/>
<path d="M45.9444 11.1111H41.5V28.8889H45.9444V11.1111Z" fill="#C4C4C4"/>
<path d="M37.4376 21.4814C38.1931 16.7714 35.0465 12.3312 30.4095 11.5639C25.7726 10.7965 21.4011 13.9927 20.6457 18.7026C19.8902 23.4125 23.0368 27.8528 27.6738 28.6201C32.3108 29.3874 36.6822 26.1913 37.4376 21.4814Z" fill="#C4C4C4"/>
<path d="M37.0556 2.22217H21.5V6.66661H37.0556V2.22217Z" fill="#C4C4C4"/>
<path d="M29.2778 6.66675V11.1112" stroke="#C4C4C4" stroke-width="3" stroke-linecap="round" stroke-linejoin="round"/>
<path d="M29.2779 0C28.047 0 27.0557 0.673401 27.0557 1.50954V2.22222H31.5001V1.50954C31.5001 0.673401 30.5088 0 29.2779 0Z" fill="#C4C4C4"/>
<path d="M19.2779 47.7996C19.2779 51.4683 16.5395 54.4446 13.1668 54.4446C9.79406 54.4446 7.05566 51.4683 7.05566 47.7996C7.05566 44.1308 13.1668 35.5557 13.1668 35.5557C13.1668 35.5557 19.2779 44.1308 19.2779 47.7996Z" fill="white" stroke="#68CCFF" stroke-width="2" stroke-linecap="round"/>
<path d="M29.278 56.0912C29.278 58.2493 27.7843 60 25.9447 60C24.105 60 22.6113 58.2493 22.6113 56.0912C22.6113 53.9331 25.9447 48.8889 25.9447 48.8889C25.9447 48.8889 29.278 53.9331 29.278 56.0912Z" fill="white" stroke="#68CCFF" stroke-width="2" stroke-linecap="round"/>
</svg>
