<svg width="53" height="62" viewBox="0 0 53 62" fill="none" xmlns="http://www.w3.org/2000/svg">
<path d="M5.15039 31.0871L20.982 32.2848L31.9542 40.7804C33.1307 41.6873 33.4547 43.33 32.7215 44.6219C31.8775 46.1105 29.9593 46.5725 28.527 45.6485L22.7553 41.9012" stroke="#666666" stroke-width="2" stroke-linecap="round" stroke-linejoin="round"/>
<path d="M36.9415 43.5783L46.0296 41.0801C47.4959 40.6523 49.0476 41.4308 49.5932 42.8682C50.1388 44.3055 49.4823 45.9225 48.0927 46.5813L29.4903 55.3164C27.5124 56.249 25.1935 56.1035 23.3435 54.9485L10.7601 47.0689L3.21509 44.9985" stroke="#666666" stroke-width="2" stroke-linecap="round" stroke-linejoin="round"/>
<path d="M23.7988 34.3107C23.7988 34.3107 34.7151 26.0951 45.83 40.5723" stroke="#4B6C4A" stroke-width="2" stroke-linecap="round" stroke-linejoin="round"/>
<path d="M27.6315 9.94906C32.0205 12.3379 32.3164 16.7978 30.4566 19.0471C28.5968 21.2965 24.2286 21.8076 20.8932 18.0996C17.412 14.2445 17.2158 8.30982 17.2158 8.30982C17.2158 8.30982 23.3629 7.62531 27.6315 9.94906Z" fill="#4B6C4A" stroke="#4B6C4A" stroke-width="2" stroke-linecap="round" stroke-linejoin="round"/>
<path d="M36.7985 9.94882C32.4095 12.3377 32.1136 16.7976 33.9734 19.0469C35.8332 21.2962 40.2014 21.8074 43.5367 18.0994C47.0179 14.2443 47.2141 8.30959 47.2141 8.30959C47.2141 8.30959 41.067 7.62508 36.7985 9.94882Z" fill="#4B6C4A" stroke="#4B6C4A" stroke-width="2" stroke-linecap="round" stroke-linejoin="round"/>
<path d="M32.3123 17.7663V30.5995" stroke="#4B6C4A" stroke-width="2" stroke-linecap="round" stroke-linejoin="round"/>
</svg>
