<svg width="53" height="62" viewBox="0 0 53 62" fill="none" xmlns="http://www.w3.org/2000/svg">
<path d="M46.6901 15.4409H46.438C46.4524 15.2258 46.4668 15.0108 46.4668 14.7957C46.4668 9.24014 41.9433 4.73118 36.361 4.73118C33.8615 4.73118 31.5709 5.64158 29.8062 7.13978C27.8974 2.93907 23.6548 0 18.7135 0C11.9931 0 6.54036 5.42652 6.54036 12.1147C6.54036 13.2688 6.71324 14.3871 7.01577 15.4409H6.30987C2.82359 15.4409 0 18.2509 0 21.7204C0 25.19 2.82359 28 6.30987 28H46.6901C50.1764 28 53 25.19 53 21.7204C53 18.2509 50.1764 15.4409 46.6901 15.4409Z" fill="#C4C4C4"/>
<path d="M24.2463 37.5192C24.2463 41.1214 22.0385 43.1588 19.3195 43.1588C16.5926 43.1588 14.3926 41.4235 14.3926 37.5192C14.3926 32.8325 19.3195 27.2478 19.3195 27.2478C19.3195 27.2478 24.2463 33.4677 24.2463 37.5192Z" stroke="#68CCFF" stroke-width="2" stroke-miterlimit="10"/>
<path d="M37.1383 44.8687C37.1383 47.5955 35.4728 49.1294 33.4122 49.1294C31.3516 49.1294 29.686 47.8202 29.686 44.8687C29.686 41.3285 33.4122 37.3396 33.4122 37.3396C33.4122 37.3396 37.1383 41.8087 37.1383 44.8687Z" stroke="#68CCFF" stroke-width="2" stroke-miterlimit="10"/>
<path d="M28.5001 56.6753C28.5001 59.4022 26.8269 60.936 24.774 60.936C22.7134 60.936 21.0479 59.6268 21.0479 56.6753C21.0479 53.1351 24.774 49.1462 24.774 49.1462C24.774 49.1462 28.5001 53.6154 28.5001 56.6753Z" stroke="#68CCFF" stroke-width="2" stroke-miterlimit="10"/>
</svg>
