<svg width="76" height="61" viewBox="0 0 76 61" fill="none" xmlns="http://www.w3.org/2000/svg">
<path d="M16.0469 27.8417C16.0469 27.8417 34.6398 42.9685 63.6072 35.5082" stroke="#4B6C4A" stroke-width="2" stroke-miterlimit="10" stroke-linecap="round" stroke-linejoin="round"/>
<path d="M12.1904 37.5703C12.1904 37.5703 32.2004 42.2042 33.0259 57.5614" stroke="#4B6C4A" stroke-width="2" stroke-miterlimit="10" stroke-linecap="round" stroke-linejoin="round"/>
<path d="M65.5306 40.3845C65.5306 40.3845 46.5681 46.656 43.6973 57.5735" stroke="#4B6C4A" stroke-width="2" stroke-miterlimit="10" stroke-linecap="round" stroke-linejoin="round"/>
<path d="M27.5301 17.1291C30.2521 17.1291 32.4587 14.9567 32.4587 12.2769C32.4587 9.59708 30.2521 7.42468 27.5301 7.42468C24.8082 7.42468 22.6016 9.59708 22.6016 12.2769C22.6016 14.9567 24.8082 17.1291 27.5301 17.1291Z" stroke="#666666" stroke-width="2" stroke-miterlimit="10" stroke-linecap="round" stroke-linejoin="round"/>
<path d="M46.0125 12.278C48.7344 12.278 50.941 10.1056 50.941 7.4258C50.941 4.74601 48.7344 2.57361 46.0125 2.57361C43.2906 2.57361 41.084 4.74601 41.084 7.4258C41.084 10.1056 43.2906 12.278 46.0125 12.278Z" stroke="#666666" stroke-width="2" stroke-miterlimit="10" stroke-linecap="round" stroke-linejoin="round"/>
<path d="M45.9639 12.6298V32.0387" stroke="#666666" stroke-width="2" stroke-miterlimit="10" stroke-linecap="round" stroke-linejoin="round"/>
<path d="M27.4824 17.4819V30.8256" stroke="#666666" stroke-width="2" stroke-miterlimit="10" stroke-linecap="round" stroke-linejoin="round"/>
<path d="M58.7288 23.1957H17.8836L4.26855 57.5615H72.3439L58.7288 23.1957Z" stroke="#666666" stroke-width="2" stroke-miterlimit="10" stroke-linecap="round" stroke-linejoin="round"/>
</svg>
