<svg width="76" height="60" viewBox="0 0 76 60" fill="none" xmlns="http://www.w3.org/2000/svg">
<path d="M11.6104 27.2117L31.1794 28.6923L44.7418 39.1935C46.1961 40.3144 46.5965 42.3449 45.6903 43.9417C44.647 45.7818 42.276 46.3529 40.5056 45.2108L33.3713 40.5788" stroke="#666666" stroke-width="2" stroke-linecap="round" stroke-linejoin="round"/>
<path d="M45.2183 44.5843L62.1401 39.5637C63.9527 39.0349 65.8706 39.9972 66.545 41.7739C67.2195 43.5505 66.408 45.5492 64.6903 46.3635L41.6964 57.1608C39.2516 58.3135 36.3853 58.1338 34.0985 56.7061L18.5444 46.9663L9.21826 44.4071" stroke="#666666" stroke-width="2" stroke-linecap="round" stroke-linejoin="round"/>
<path d="M33.7183 30.0843C33.7183 30.0843 50.7183 20.5843 61.2183 39.5843" stroke="#4B6C4A" stroke-width="2" stroke-linecap="round" stroke-linejoin="round"/>
<path d="M41.1893 5.48951C45.0251 8.58806 44.5509 13.0085 42.3696 14.8909C40.1882 16.7733 35.8782 16.5195 33.2858 12.3105C30.5775 7.93239 31.3995 2.08429 31.3995 2.08429C31.3995 2.08429 37.4589 2.47557 41.1893 5.48951Z" stroke="#4B6C4A" stroke-width="2" stroke-linecap="round" stroke-linejoin="round"/>
<path d="M49.1488 5.48951C45.313 8.58806 45.7872 13.0085 47.9686 14.8909C50.15 16.7733 54.46 16.5195 57.0524 12.3105C59.7606 7.93239 58.9387 2.08429 58.9387 2.08429C58.9387 2.08429 52.8793 2.47557 49.1488 5.48951Z" stroke="#4B6C4A" stroke-width="2" stroke-linecap="round" stroke-linejoin="round"/>
<path d="M45.1846 10.7462V26.609" stroke="#4B6C4A" stroke-width="2" stroke-linecap="round" stroke-linejoin="round"/>
</svg>
