<svg width="76" height="61" viewBox="0 0 76 61" fill="none" xmlns="http://www.w3.org/2000/svg">
<path d="M51.4429 30.8837C51.4429 38.4789 45.2868 44.635 37.6916 44.635C30.0964 44.635 23.9453 38.4789 23.9453 30.8837C23.9453 20.5303 37.6966 12.7202 37.6966 12.7202C37.6966 12.7202 51.4429 20.87 51.4429 30.8837Z" stroke="#4B6C4A" stroke-width="2" stroke-miterlimit="10" stroke-linecap="round" stroke-linejoin="round"/>
<path d="M40.708 23.2048C42.4744 24.467 46.0038 27.4164 46.0038 30.8437" stroke="#4B6C4A" stroke-width="2" stroke-miterlimit="10" stroke-linecap="round" stroke-linejoin="round"/>
<path d="M64.8282 34.891C62.6795 47.9427 51.3517 57.8964 37.6954 57.8964C24.0391 57.8964 12.7063 47.9427 10.5576 34.891" stroke="#666666" stroke-width="2" stroke-miterlimit="10" stroke-linecap="round" stroke-linejoin="round"/>
<path d="M10.5576 25.9018C12.7063 12.85 24.0341 2.89636 37.6904 2.89636C51.3467 2.89636 62.6795 12.85 64.8232 25.9018" stroke="#666666" stroke-width="2" stroke-miterlimit="10" stroke-linecap="round" stroke-linejoin="round"/>
<path d="M67.5472 24.7125L64.9289 27.3259L62.3105 24.7125" stroke="#666666" stroke-width="2" stroke-miterlimit="10" stroke-linecap="round" stroke-linejoin="round"/>
<path d="M7.83984 35.2861L10.4582 32.6677L13.0765 35.2861" stroke="#666666" stroke-width="2" stroke-miterlimit="10" stroke-linecap="round" stroke-linejoin="round"/>
</svg>
