<svg width="167" height="159" viewBox="0 0 167 159" fill="none" xmlns="http://www.w3.org/2000/svg">
<g opacity="0.2">
<path d="M161.672 32.4616C158.879 32.4616 156.615 30.1928 156.615 27.3941C156.615 24.5954 158.879 22.3266 161.672 22.3266C164.466 22.3266 166.73 24.5954 166.73 27.3941C166.73 30.1928 164.466 32.4616 161.672 32.4616Z" fill="#FAF5F0"/>
<path d="M161.672 10.135C158.879 10.135 156.615 7.86617 156.615 5.06748C156.615 2.26879 158.879 0 161.672 0C164.466 0 166.73 2.26879 166.73 5.06748C166.73 7.86617 164.466 10.135 161.672 10.135Z" fill="#FAF5F0"/>
<path d="M135.568 32.4616C132.775 32.4616 130.51 30.1928 130.51 27.3941C130.51 24.5954 132.775 22.3266 135.568 22.3266C138.361 22.3266 140.626 24.5954 140.626 27.3941C140.626 30.1928 138.361 32.4616 135.568 32.4616Z" fill="#FAF5F0"/>
<path d="M135.568 10.135C132.775 10.135 130.51 7.86617 130.51 5.06748C130.51 2.26879 132.775 0 135.568 0C138.361 0 140.626 2.26879 140.626 5.06748C140.626 7.86617 138.361 10.135 135.568 10.135Z" fill="#FAF5F0"/>
<path d="M109.464 32.4616C106.671 32.4616 104.406 30.1928 104.406 27.3941C104.406 24.5954 106.671 22.3266 109.464 22.3266C112.257 22.3266 114.522 24.5954 114.522 27.3941C114.522 30.1928 112.257 32.4616 109.464 32.4616Z" fill="#FAF5F0"/>
<path d="M109.464 10.135C106.671 10.135 104.406 7.86617 104.406 5.06748C104.406 2.26879 106.671 0 109.464 0C112.257 0 114.522 2.26879 114.522 5.06748C114.522 7.86617 112.257 10.135 109.464 10.135Z" fill="#FAF5F0"/>
<path d="M83.3639 32.4616C80.5704 32.4616 78.3059 30.1928 78.3059 27.3941C78.3059 24.5954 80.5704 22.3266 83.3639 22.3266C86.1573 22.3266 88.4219 24.5954 88.4219 27.3941C88.4219 30.1928 86.1573 32.4616 83.3639 32.4616Z" fill="#FAF5F0"/>
<path d="M83.3639 10.135C80.5704 10.135 78.3059 7.86617 78.3059 5.06748C78.3059 2.26879 80.5704 0 83.3639 0C86.1573 0 88.4219 2.26879 88.4219 5.06748C88.4219 7.86617 86.1573 10.135 83.3639 10.135Z" fill="#FAF5F0"/>
<path d="M57.2614 32.4616C54.4679 32.4616 52.2034 30.1928 52.2034 27.3941C52.2034 24.5954 54.4679 22.3266 57.2614 22.3266C60.0548 22.3266 62.3193 24.5954 62.3193 27.3941C62.3193 30.1928 60.0548 32.4616 57.2614 32.4616Z" fill="#FAF5F0"/>
<path d="M57.2614 10.135C54.4679 10.135 52.2034 7.86617 52.2034 5.06748C52.2034 2.26879 54.4679 0 57.2614 0C60.0548 0 62.3193 2.26879 62.3193 5.06748C62.3193 7.86617 60.0548 10.135 57.2614 10.135Z" fill="#FAF5F0"/>
<path d="M31.1613 32.4616C28.3678 32.4616 26.1033 30.1928 26.1033 27.3941C26.1033 24.5954 28.3678 22.3266 31.1613 22.3266C33.9547 22.3266 36.2192 24.5954 36.2192 27.3941C36.2192 30.1928 33.9547 32.4616 31.1613 32.4616Z" fill="#FAF5F0"/>
<path d="M31.1613 10.135C28.3678 10.135 26.1033 7.86617 26.1033 5.06748C26.1033 2.26879 28.3678 0 31.1613 0C33.9547 0 36.2192 2.26879 36.2192 5.06748C36.2192 7.86617 33.9547 10.135 31.1613 10.135Z" fill="#FAF5F0"/>
<path d="M5.05775 32.4616C2.26431 32.4616 -0.000225067 30.1928 -0.000225067 27.3941C-0.000225067 24.5954 2.26431 22.3266 5.05775 22.3266C7.8512 22.3266 10.1157 24.5954 10.1157 27.3941C10.1157 30.1928 7.8512 32.4616 5.05775 32.4616Z" fill="#FAF5F0"/>
<path d="M5.05775 10.135C2.26431 10.135 -0.000225067 7.86617 -0.000225067 5.06748C-0.000225067 2.26879 2.26431 0 5.05775 0C7.8512 0 10.1157 2.26879 10.1157 5.06748C10.1157 7.86617 7.8512 10.135 5.05775 10.135Z" fill="#FAF5F0"/>
<path d="M161.673 53.5542C159.157 53.5542 157.118 51.5111 157.118 48.9909C157.118 46.4707 159.157 44.4277 161.673 44.4277C164.188 44.4277 166.228 46.4707 166.228 48.9909C166.228 51.5111 164.188 53.5542 161.673 53.5542Z" fill="#FAF5F0"/>
<path d="M135.569 53.5542C133.053 53.5542 131.014 51.5111 131.014 48.9909C131.014 46.4707 133.053 44.4277 135.569 44.4277C138.084 44.4277 140.124 46.4707 140.124 48.9909C140.124 51.5111 138.084 53.5542 135.569 53.5542Z" fill="#FAF5F0"/>
<path d="M109.464 53.5542C106.949 53.5542 104.91 51.5111 104.91 48.9909C104.91 46.4707 106.949 44.4277 109.464 44.4277C111.98 44.4277 114.019 46.4707 114.019 48.9909C114.019 51.5111 111.98 53.5542 109.464 53.5542Z" fill="#FAF5F0"/>
<path d="M83.3657 53.5542C80.8502 53.5542 78.811 51.5111 78.811 48.9909C78.811 46.4707 80.8502 44.4277 83.3657 44.4277C85.8812 44.4277 87.9204 46.4707 87.9204 48.9909C87.9204 51.5111 85.8812 53.5542 83.3657 53.5542Z" fill="#FAF5F0"/>
<path d="M57.2608 53.5542C54.7453 53.5542 52.7061 51.5111 52.7061 48.9909C52.7061 46.4707 54.7453 44.4277 57.2608 44.4277C59.7762 44.4277 61.8154 46.4707 61.8154 48.9909C61.8154 51.5111 59.7762 53.5542 57.2608 53.5542Z" fill="#FAF5F0"/>
<path d="M31.1607 53.5542C28.6452 53.5542 26.606 51.5111 26.606 48.9909C26.606 46.4707 28.6452 44.4277 31.1607 44.4277C33.6761 44.4277 35.7153 46.4707 35.7153 48.9909C35.7153 51.5111 33.6761 53.5542 31.1607 53.5542Z" fill="#FAF5F0"/>
<path d="M5.05714 53.5542C2.54165 53.5542 0.502449 51.5111 0.502449 48.9909C0.502449 46.4707 2.54165 44.4277 5.05714 44.4277C7.57262 44.4277 9.61182 46.4707 9.61182 48.9909C9.61182 51.5111 7.57262 53.5542 5.05714 53.5542Z" fill="#FAF5F0"/>
<path d="M161.673 74.643C159.437 74.643 157.625 72.8273 157.625 70.5876C157.625 68.3478 159.437 66.5322 161.673 66.5322C163.908 66.5322 165.721 68.3478 165.721 70.5876C165.721 72.8273 163.908 74.643 161.673 74.643Z" fill="#FAF5F0"/>
<path d="M135.569 74.643C133.333 74.643 131.521 72.8273 131.521 70.5876C131.521 68.3478 133.333 66.5322 135.569 66.5322C137.804 66.5322 139.617 68.3478 139.617 70.5876C139.617 72.8273 137.804 74.643 135.569 74.643Z" fill="#FAF5F0"/>
<path d="M109.465 74.643C107.229 74.643 105.417 72.8273 105.417 70.5876C105.417 68.3478 107.229 66.5322 109.465 66.5322C111.7 66.5322 113.513 68.3478 113.513 70.5876C113.513 72.8273 111.7 74.643 109.465 74.643Z" fill="#FAF5F0"/>
<path d="M83.3643 74.643C81.1288 74.643 79.3165 72.8273 79.3165 70.5876C79.3165 68.3478 81.1288 66.5322 83.3643 66.5322C85.5998 66.5322 87.4121 68.3478 87.4121 70.5876C87.4121 72.8273 85.5998 74.643 83.3643 74.643Z" fill="#FAF5F0"/>
<path d="M57.2613 74.643C55.0257 74.643 53.2135 72.8273 53.2135 70.5876C53.2135 68.3478 55.0257 66.5322 57.2613 66.5322C59.4968 66.5322 61.3091 68.3478 61.3091 70.5876C61.3091 72.8273 59.4968 74.643 57.2613 74.643Z" fill="#FAF5F0"/>
<path d="M31.1597 74.643C28.9242 74.643 27.1119 72.8273 27.1119 70.5876C27.1119 68.3478 28.9242 66.5322 31.1597 66.5322C33.3953 66.5322 35.2075 68.3478 35.2075 70.5876C35.2075 72.8273 33.3953 74.643 31.1597 74.643Z" fill="#FAF5F0"/>
<path d="M5.05765 74.643C2.8221 74.643 1.00984 72.8273 1.00984 70.5876C1.00984 68.3478 2.8221 66.5322 5.05765 66.5322C7.2932 66.5322 9.10547 68.3478 9.10547 70.5876C9.10547 72.8273 7.2932 74.643 5.05765 74.643Z" fill="#FAF5F0"/>
<path d="M161.673 95.7284C159.717 95.7284 158.132 94.1401 158.132 92.1808C158.132 90.2215 159.717 88.6332 161.673 88.6332C163.629 88.6332 165.214 90.2215 165.214 92.1808C165.214 94.1401 163.629 95.7284 161.673 95.7284Z" fill="#FAF5F0"/>
<path d="M135.569 95.7284C133.613 95.7284 132.028 94.1401 132.028 92.1808C132.028 90.2215 133.613 88.6332 135.569 88.6332C137.525 88.6332 139.11 90.2215 139.11 92.1808C139.11 94.1401 137.525 95.7284 135.569 95.7284Z" fill="#FAF5F0"/>
<path d="M109.465 95.7284C107.509 95.7284 105.924 94.1401 105.924 92.1808C105.924 90.2215 107.509 88.6332 109.465 88.6332C111.421 88.6332 113.006 90.2215 113.006 92.1808C113.006 94.1401 111.421 95.7284 109.465 95.7284Z" fill="#FAF5F0"/>
<path d="M83.3648 95.7284C81.4092 95.7284 79.8239 94.1401 79.8239 92.1808C79.8239 90.2215 81.4092 88.6332 83.3648 88.6332C85.3204 88.6332 86.9058 90.2215 86.9058 92.1808C86.9058 94.1401 85.3204 95.7284 83.3648 95.7284Z" fill="#FAF5F0"/>
<path d="M57.2613 95.7284C55.3057 95.7284 53.7204 94.1401 53.7204 92.1808C53.7204 90.2215 55.3057 88.6332 57.2613 88.6332C59.2169 88.6332 60.8022 90.2215 60.8022 92.1808C60.8022 94.1401 59.2169 95.7284 57.2613 95.7284Z" fill="#FAF5F0"/>
<path d="M31.1602 95.7284C29.2046 95.7284 27.6193 94.1401 27.6193 92.1808C27.6193 90.2215 29.2046 88.6332 31.1602 88.6332C33.1158 88.6332 34.7012 90.2215 34.7012 92.1808C34.7012 94.1401 33.1158 95.7284 31.1602 95.7284Z" fill="#FAF5F0"/>
<path d="M5.05624 95.7284C3.10064 95.7284 1.51531 94.1401 1.51531 92.1808C1.51531 90.2215 3.10064 88.6332 5.05624 88.6332C7.01184 88.6332 8.59717 90.2215 8.59717 92.1808C8.59717 94.1401 7.01184 95.7284 5.05624 95.7284Z" fill="#FAF5F0"/>
<path d="M161.672 116.685C160.069 116.685 158.77 115.383 158.77 113.778C158.77 112.172 160.069 110.87 161.672 110.87C163.274 110.87 164.574 112.172 164.574 113.778C164.574 115.383 163.274 116.685 161.672 116.685Z" fill="#FAF5F0"/>
<path d="M135.569 116.685C133.966 116.685 132.667 115.383 132.667 113.778C132.667 112.172 133.966 110.87 135.569 110.87C137.171 110.87 138.471 112.172 138.471 113.778C138.471 115.383 137.171 116.685 135.569 116.685Z" fill="#FAF5F0"/>
<path d="M109.466 116.685C107.863 116.685 106.564 115.383 106.564 113.778C106.564 112.172 107.863 110.87 109.466 110.87C111.069 110.87 112.368 112.172 112.368 113.778C112.368 115.383 111.069 116.685 109.466 116.685Z" fill="#FAF5F0"/>
<path d="M83.3661 116.685C81.7633 116.685 80.4641 115.383 80.4641 113.778C80.4641 112.172 81.7633 110.87 83.3661 110.87C84.9688 110.87 86.2681 112.172 86.2681 113.778C86.2681 115.383 84.9688 116.685 83.3661 116.685Z" fill="#FAF5F0"/>
<path d="M57.2611 116.685C55.6583 116.685 54.3591 115.383 54.3591 113.778C54.3591 112.172 55.6583 110.87 57.2611 110.87C58.8638 110.87 60.1631 112.172 60.1631 113.778C60.1631 115.383 58.8638 116.685 57.2611 116.685Z" fill="#FAF5F0"/>
<path d="M31.161 116.685C29.5583 116.685 28.259 115.383 28.259 113.778C28.259 112.172 29.5583 110.87 31.161 110.87C32.7637 110.87 34.063 112.172 34.063 113.778C34.063 115.383 32.7637 116.685 31.161 116.685Z" fill="#FAF5F0"/>
<path d="M5.05747 116.685C3.45474 116.685 2.15547 115.383 2.15547 113.778C2.15547 112.172 3.45474 110.87 5.05747 110.87C6.6602 110.87 7.95947 112.172 7.95947 113.778C7.95947 115.383 6.6602 116.685 5.05747 116.685Z" fill="#FAF5F0"/>
<path d="M161.672 137.402C160.554 137.402 159.648 136.494 159.648 135.374C159.648 134.254 160.554 133.346 161.672 133.346C162.79 133.346 163.696 134.254 163.696 135.374C163.696 136.494 162.79 137.402 161.672 137.402Z" fill="#FAF5F0"/>
<path d="M135.569 137.402C134.451 137.402 133.545 136.494 133.545 135.374C133.545 134.254 134.451 133.346 135.569 133.346C136.687 133.346 137.593 134.254 137.593 135.374C137.593 136.494 136.687 137.402 135.569 137.402Z" fill="#FAF5F0"/>
<path d="M109.466 137.402C108.348 137.402 107.442 136.494 107.442 135.374C107.442 134.254 108.348 133.346 109.466 133.346C110.584 133.346 111.49 134.254 111.49 135.374C111.49 136.494 110.584 137.402 109.466 137.402Z" fill="#FAF5F0"/>
<path d="M83.3648 137.402C82.247 137.402 81.3409 136.494 81.3409 135.374C81.3409 134.254 82.247 133.346 83.3648 133.346C84.4825 133.346 85.3887 134.254 85.3887 135.374C85.3887 136.494 84.4825 137.402 83.3648 137.402Z" fill="#FAF5F0"/>
<path d="M31.1612 137.402C30.0434 137.402 29.1372 136.494 29.1372 135.374C29.1372 134.254 30.0434 133.346 31.1612 133.346C32.2789 133.346 33.1851 134.254 33.1851 135.374C33.1851 136.494 32.2789 137.402 31.1612 137.402Z" fill="#FAF5F0"/>
<path d="M5.05618 137.402C3.93841 137.402 3.03227 136.494 3.03227 135.374C3.03227 134.254 3.93841 133.346 5.05618 133.346C6.17395 133.346 7.08008 134.254 7.08008 135.374C7.08008 136.494 6.17395 137.402 5.05618 137.402Z" fill="#FAF5F0"/>
<path d="M161.672 158.491C160.835 158.491 160.155 157.81 160.155 156.971C160.155 156.131 160.835 155.451 161.672 155.451C162.51 155.451 163.189 156.131 163.189 156.971C163.189 157.81 162.51 158.491 161.672 158.491Z" fill="#FAF5F0"/>
<path d="M135.569 158.491C134.732 158.491 134.052 157.81 134.052 156.971C134.052 156.131 134.732 155.451 135.569 155.451C136.407 155.451 137.086 156.131 137.086 156.971C137.086 157.81 136.407 158.491 135.569 158.491Z" fill="#FAF5F0"/>
<path d="M83.3648 158.491C82.527 158.491 81.8478 157.81 81.8478 156.971C81.8478 156.131 82.527 155.451 83.3648 155.451C84.2026 155.451 84.8818 156.131 84.8818 156.971C84.8818 157.81 84.2026 158.491 83.3648 158.491Z" fill="#FAF5F0"/>
<path d="M5.0562 158.491C4.21836 158.491 3.53916 157.81 3.53916 156.971C3.53916 156.131 4.21836 155.451 5.0562 155.451C5.89404 155.451 6.57324 156.131 6.57324 156.971C6.57324 157.81 5.89404 158.491 5.0562 158.491Z" fill="#FAF5F0"/>
</g>
</svg>
