<svg width="130" height="13" viewBox="0 0 130 13" fill="none" xmlns="http://www.w3.org/2000/svg">
<path d="M8.60488 8.401C8.60488 9.06833 8.49221 9.62733 8.26688 10.078C8.05021 10.5373 7.75121 10.91 7.36988 11.196C6.98854 11.482 6.54654 11.6857 6.04388 11.807C5.54121 11.937 5.00388 12.002 4.43188 12.002C3.85988 12.002 3.31821 11.937 2.80688 11.807C2.30421 11.6857 1.86221 11.482 1.48088 11.196C1.09954 10.91 0.796208 10.5373 0.570875 10.078C0.354208 9.62733 0.245875 9.07267 0.245875 8.414V3.838C0.245875 3.17933 0.354208 2.62467 0.570875 2.174C0.796208 1.71467 1.09954 1.342 1.48088 1.056C1.86221 0.77 2.30421 0.566333 2.80688 0.445C3.31821 0.314999 3.85988 0.249999 4.43188 0.249999C5.00388 0.249999 5.54121 0.314999 6.04388 0.445C6.54654 0.566333 6.98854 0.77 7.36988 1.056C7.75121 1.342 8.05021 1.71467 8.26688 2.174C8.49221 2.63333 8.60488 3.19233 8.60488 3.851V8.401ZM2.22188 8.323C2.22188 8.70433 2.27388 9.025 2.37788 9.285C2.48188 9.545 2.62921 9.75733 2.81988 9.922C3.01921 10.078 3.25321 10.1907 3.52188 10.26C3.79921 10.3293 4.10254 10.364 4.43188 10.364C4.76121 10.364 5.06021 10.3293 5.32888 10.26C5.60621 10.1907 5.84021 10.078 6.03088 9.922C6.22154 9.75733 6.36888 9.545 6.47288 9.285C6.57688 9.025 6.62888 8.70433 6.62888 8.323V3.903C6.62888 3.52167 6.57688 3.201 6.47288 2.941C6.36888 2.681 6.22154 2.473 6.03088 2.317C5.84021 2.15233 5.60621 2.03533 5.32888 1.966C5.06021 1.89667 4.76121 1.862 4.43188 1.862C4.10254 1.862 3.79921 1.89667 3.52188 1.966C3.25321 2.03533 3.01921 2.15233 2.81988 2.317C2.62921 2.473 2.48188 2.681 2.37788 2.941C2.27388 3.201 2.22188 3.52167 2.22188 3.903V8.323ZM16.5094 11.846L12.4924 3.214V11.846H10.5944V0.366999H12.9084L16.9124 8.934V0.366999H18.8104V11.846H16.5094ZM22.8279 10.182H28.6779V11.846H20.8519V0.353999H28.4569V2.018H22.8279V5.086H28.2489V6.724H22.8279V10.182ZM42.3574 4.826L40.0824 11.846H38.3404L36.0654 4.813V11.846H34.2324V0.366999H36.1824L39.2114 9.727L42.2404 0.366999H44.1904V11.846H42.3574V4.826ZM48.2194 9.35L47.4134 11.846H45.4114L49.2594 0.366999H51.2484L55.0964 11.846H53.0944L52.2754 9.35H48.2194ZM51.7814 7.803L50.2474 3.084L48.7134 7.803H51.7814ZM60.326 0.366999C62.64 0.366999 63.797 1.563 63.797 3.955C63.797 5.151 63.5067 6.05667 62.926 6.672C62.354 7.28733 61.4873 7.595 60.326 7.595H58.324V11.846H56.348V0.366999H60.326ZM60.079 5.957C60.651 5.957 61.0843 5.814 61.379 5.528C61.6823 5.23333 61.834 4.71767 61.834 3.981C61.834 3.24433 61.6823 2.733 61.379 2.447C61.0843 2.161 60.651 2.018 60.079 2.018H58.324V5.957H60.079Z" fill="#D6D6D6"/>
<path d="M71.08 8.674C71.08 8.91667 71.1104 9.142 71.171 9.35C71.2404 9.54933 71.3487 9.727 71.496 9.883C71.652 10.0303 71.847 10.143 72.081 10.221C72.3237 10.3077 72.6184 10.351 72.965 10.351C73.615 10.351 74.1047 10.2383 74.434 10.013C74.7634 9.79633 74.9237 9.428 74.915 8.908C74.915 8.622 74.837 8.37933 74.681 8.18C74.5337 7.972 74.3517 7.79433 74.135 7.647C73.9184 7.49967 73.6844 7.374 73.433 7.27C73.1904 7.166 72.9737 7.075 72.783 6.997L71.652 6.529C70.872 6.20833 70.248 5.788 69.78 5.268C69.3207 4.748 69.091 4.09367 69.091 3.305C69.091 2.369 69.3944 1.628 70.001 1.082C70.6164 0.527333 71.5437 0.249999 72.783 0.249999C74.031 0.249999 74.9627 0.501333 75.578 1.004C76.202 1.498 76.514 2.213 76.514 3.149V3.682H74.59V3.292C74.59 2.356 73.992 1.888 72.796 1.888C72.2414 1.888 71.808 1.992 71.496 2.2C71.1927 2.408 71.041 2.759 71.041 3.253C71.041 3.52167 71.093 3.75133 71.197 3.942C71.301 4.13267 71.4397 4.30167 71.613 4.449C71.7864 4.58767 71.9857 4.71333 72.211 4.826C72.445 4.93 72.692 5.034 72.952 5.138L74.07 5.593C74.3907 5.723 74.7157 5.87467 75.045 6.048C75.3744 6.21267 75.669 6.42067 75.929 6.672C76.1977 6.91467 76.4144 7.205 76.579 7.543C76.7524 7.881 76.839 8.28833 76.839 8.765C76.839 9.753 76.5227 10.5373 75.89 11.118C75.2574 11.6987 74.278 11.989 72.952 11.989C72.2067 11.989 71.5827 11.898 71.08 11.716C70.586 11.5427 70.1874 11.3 69.884 10.988C69.5894 10.6847 69.377 10.3337 69.247 9.935C69.1257 9.52767 69.065 9.09867 69.065 8.648V8.102H71.08V8.674ZM80.5535 10.182H86.4035V11.846H78.5775V0.353999H86.1825V2.018H80.5535V5.086H85.9745V6.724H80.5535V10.182ZM92.0516 0.366999C94.3656 0.366999 95.5226 1.563 95.5226 3.955C95.5226 4.89967 95.3362 5.66667 94.9636 6.256C94.5996 6.84533 94.0492 7.23967 93.3126 7.439L96.1596 11.859H94.0016L91.2196 7.595H90.0496V11.846H88.0736V0.366999H92.0516ZM91.8046 5.957C92.3766 5.957 92.8099 5.814 93.1046 5.528C93.4079 5.23333 93.5596 4.71767 93.5596 3.981C93.5596 3.24433 93.4079 2.733 93.1046 2.447C92.8099 2.161 92.3766 2.018 91.8046 2.018H90.0496V5.957H91.8046ZM106.006 0.366999L102.158 11.846H100.169L96.3212 0.366999H98.3232L101.157 9.129L104.004 0.366999H106.006ZM107.268 11.846V0.366999H109.231V11.846H107.268ZM111.061 6.061C111.061 4.93433 111.148 3.99833 111.321 3.253C111.494 2.50767 111.763 1.914 112.127 1.472C112.491 1.02133 112.95 0.705 113.505 0.523C114.06 0.340999 114.718 0.249999 115.481 0.249999C116.226 0.249999 116.846 0.353999 117.34 0.562C117.834 0.77 118.233 1.056 118.536 1.42C118.839 1.77533 119.06 2.19133 119.199 2.668C119.338 3.14467 119.429 3.64733 119.472 4.176H117.509C117.431 3.344 117.21 2.75467 116.846 2.408C116.482 2.06133 116.018 1.888 115.455 1.888C115.091 1.888 114.757 1.94 114.454 2.044C114.159 2.148 113.904 2.35167 113.687 2.655C113.479 2.94967 113.319 3.37 113.206 3.916C113.093 4.462 113.037 5.177 113.037 6.061C113.037 6.93633 113.093 7.65133 113.206 8.206C113.319 8.76067 113.479 9.19833 113.687 9.519C113.904 9.831 114.159 10.0433 114.454 10.156C114.757 10.2773 115.091 10.338 115.455 10.338C115.741 10.338 116.005 10.2947 116.248 10.208C116.491 10.1213 116.703 9.97833 116.885 9.779C117.067 9.571 117.214 9.30233 117.327 8.973C117.448 8.64367 117.531 8.23633 117.574 7.751H119.537C119.494 8.36633 119.398 8.934 119.251 9.454C119.112 9.96533 118.891 10.4073 118.588 10.78C118.285 11.1613 117.882 11.456 117.379 11.664C116.876 11.8807 116.244 11.989 115.481 11.989C114.701 11.989 114.034 11.8937 113.479 11.703C112.924 11.521 112.465 11.2003 112.101 10.741C111.746 10.2903 111.481 9.68367 111.308 8.921C111.143 8.15833 111.061 7.205 111.061 6.061ZM123.197 10.182H129.047V11.846H121.221V0.353999H128.826V2.018H123.197V5.086H128.618V6.724H123.197V10.182Z" fill="#E8E8E8"/>
</svg>
