<svg width="55" height="55" viewBox="0 0 55 55" fill="none" xmlns="http://www.w3.org/2000/svg">
<path d="M42.0357 34.051C41.1285 34.5796 40.2685 35.1421 39.4366 35.6862C38.2945 36.4337 37.2157 37.1397 36.4192 37.4669C35.1331 37.995 32.0635 38.0755 30.0027 37.8194C29.2251 37.7226 27.4476 36.8526 27.34 36.4549C27.3424 35.9997 29.3715 35.7521 31.3562 35.57C34.9025 35.2452 36.1765 33.4551 36.1673 32.3317C36.1618 31.6469 35.7111 31.1529 35.0455 31.1023C33.2103 30.9638 31.0495 30.8358 29.143 30.7235C27.3036 30.6149 25.7153 30.5212 25.0316 30.4522C22.6785 30.2158 17.5646 32.4725 17.3482 32.5686C17.0835 32.6864 16.9641 32.9965 17.0816 33.2612C17.1992 33.5265 17.5093 33.6456 17.7742 33.5281C19.1789 32.9039 23.2006 31.3221 24.9264 31.4966C25.6316 31.5677 27.2301 31.662 29.0811 31.7714C30.9837 31.8837 33.14 32.0109 34.9663 32.1489C35.0402 32.1544 35.1166 32.1604 35.1182 32.3402C35.1226 32.9134 34.1577 34.2589 31.2605 34.525C27.8107 34.8414 26.298 35.1192 26.2909 36.4488C26.2833 37.759 29.1873 38.7755 29.8736 38.8605C32.105 39.1386 35.3128 39.0559 36.818 38.4373C37.7068 38.0721 38.7746 37.3734 40.0114 36.5643C40.8318 36.0272 41.6802 35.4721 42.5639 34.9576C43.2767 34.5428 43.7495 34.5596 43.9011 34.7606C44.0756 34.9912 44.0168 35.6384 43.3362 36.2956C42.9692 36.6503 42.5862 37.0281 42.1979 37.4114C40.8016 38.7893 39.2191 40.3512 38.2478 40.9071C36.9604 41.6443 31.7448 43.5236 30.2871 43.7017C28.6379 43.9071 20.5907 41.4949 17.6289 40.5493C17.3524 40.4612 17.0577 40.6136 16.9693 40.8896C16.8812 41.1658 17.0336 41.4609 17.3096 41.549C18.3764 41.8896 27.4482 44.7596 30.1092 44.7596C30.2231 44.7596 30.3254 44.7543 30.4146 44.7433C31.9922 44.5505 37.387 42.6091 38.7694 41.8176C39.859 41.1939 41.4229 39.6504 42.9351 38.1584C43.3208 37.7777 43.7009 37.4022 44.0656 37.0502C45.0311 36.1175 45.3139 34.8884 44.7383 34.1271C44.319 33.5738 43.3892 33.2629 42.0357 34.051Z" fill="#A7A7A7"/>
<path d="M16.6235 42.3295L16.4113 31.6959C16.3966 30.8826 15.7236 30.2209 14.9109 30.2209C14.9077 30.2209 14.8859 30.2212 14.8828 30.2212L10.4752 30.2991C9.64772 30.3143 8.98606 30.9999 9.00022 31.8292L9.21248 42.4617C9.22638 43.2755 9.89958 43.9374 10.7132 43.9374C10.7163 43.9374 10.7378 43.9372 10.741 43.9372L15.1481 43.859C15.9761 43.8443 16.6377 43.159 16.6235 42.3295ZM10.7134 42.888C10.4686 42.888 10.2661 42.6887 10.2619 42.4423L10.0497 31.8098C10.0455 31.5601 10.2449 31.353 10.4941 31.3485L14.9109 31.2704C15.1551 31.2704 15.3577 31.4697 15.3621 31.7158L15.5744 42.3489C15.5786 42.5984 15.3792 42.8051 15.1299 42.8096L10.7134 42.888Z" fill="#A7A7A7"/>
<path d="M12.9023 32.1254C12.6127 32.1309 12.382 32.3704 12.3875 32.6598L12.3946 33.0423C12.4001 33.3288 12.6339 33.5573 12.9191 33.5573C12.9225 33.5573 12.9259 33.5573 12.9293 33.5573C13.219 33.5518 13.4496 33.3124 13.4441 33.023L13.437 32.6405C13.4315 32.3508 13.1964 32.1238 12.9023 32.1254Z" fill="#A7A7A7"/>
<path d="M38.3376 33.4937C38.461 33.6128 38.6352 33.6637 38.8031 33.6311C39.4471 33.5055 40.0765 33.6395 40.5963 33.9861C40.6857 34.0459 40.7867 34.0743 40.8867 34.0743C41.0562 34.0743 41.2228 33.9921 41.3241 33.8405C41.4846 33.5991 41.4195 33.2735 41.1782 33.113C40.6115 32.7354 39.9509 32.5357 39.2677 32.5357C39.2672 32.5357 39.2664 32.5357 39.2659 32.5357C39.2053 30.6866 37.682 29.2009 35.8182 29.2009C35.7057 29.2009 35.5934 29.2064 35.4816 29.2174C35.3696 27.4161 33.8684 25.9847 32.0392 25.9847C30.5669 25.9847 29.2708 26.9357 28.791 28.2832C28.4402 28.1659 28.0716 28.1051 27.7006 28.1051C26.8107 28.1051 25.9657 28.443 25.3216 29.0567C25.1117 29.2566 25.1036 29.5888 25.3035 29.7987C25.5036 30.0083 25.8355 30.0164 26.0454 29.8165C26.4935 29.3896 27.0815 29.1545 27.7006 29.1545C28.1149 29.1545 28.5255 29.264 28.8878 29.4707C29.0389 29.5576 29.2226 29.5631 29.3784 29.4867C29.5345 29.4104 29.6426 29.2621 29.6675 29.09C29.8362 27.9178 30.8557 27.0342 32.0395 27.0342C33.3626 27.0342 34.439 28.1109 34.439 29.4339C34.439 29.5389 34.4296 29.6515 34.4096 29.7884C34.3831 29.9676 34.4511 30.1476 34.5891 30.2646C34.7271 30.3818 34.9165 30.4191 35.0883 30.3645C35.3253 30.2889 35.5708 30.2504 35.8185 30.2504C37.1418 30.2504 38.2185 31.3271 38.2185 32.6501C38.2185 32.7645 38.2075 32.8896 38.1844 33.0334C38.1571 33.2026 38.2143 33.3746 38.3376 33.4937Z" fill="#A7A7A7"/>
<path d="M30.1716 23.7247C31.9748 23.7247 35.344 23.3679 37.6514 20.9776C41.2297 17.271 41.4058 11.8906 41.4115 11.6634C41.4181 11.3976 41.2255 11.1691 40.9624 11.1308C40.678 11.0893 33.9572 10.162 30.3345 13.9145C28.6885 15.62 28.0397 17.4145 28.0956 20.1082C28.1016 20.3981 28.3509 20.6263 28.6311 20.6221C28.9207 20.6161 29.1508 20.376 29.1448 20.0866C29.0941 17.6399 29.6212 16.1646 31.0896 14.6432C33.8142 11.8203 38.768 11.9866 40.3283 12.1186C40.1997 13.4818 39.601 17.447 36.8961 20.2487C34.8578 22.3599 31.808 22.675 30.1714 22.675C29.8817 22.675 29.6467 22.9101 29.6467 23.1997C29.6467 23.4893 29.882 23.7247 30.1716 23.7247Z" fill="#A7A7A7"/>
<path d="M33.8465 17.3162C33.9173 17.2813 33.9798 17.2504 34.033 17.2228C34.2904 17.0893 34.3909 16.7726 34.2573 16.5154C34.124 16.2583 33.8071 16.1581 33.55 16.2914C33.5015 16.3163 33.4448 16.3445 33.3808 16.3762C32.0071 17.0562 27.8264 19.1257 27.8264 27.3399C27.8264 27.6295 28.0615 27.8646 28.3511 27.8646C28.6408 27.8646 28.8758 27.6295 28.8758 27.3399C28.8758 19.7772 32.6171 17.9249 33.8465 17.3162Z" fill="#A7A7A7"/>
<path d="M22.3605 18.464C19.9405 18.464 17.6708 20.0184 17.5753 20.0845C17.3778 20.2215 17.2985 20.4757 17.3833 20.7011C17.4371 20.843 18.7305 24.1899 21.8072 25.0029C22.3843 25.1556 22.9597 25.233 23.5167 25.233C25.2388 25.233 26.745 24.4985 27.6488 23.2182C27.7359 23.0951 27.7655 22.9406 27.7307 22.7939C27.2923 20.954 25.614 19.3956 24.1823 18.8072C23.6287 18.5795 23.0156 18.464 22.3605 18.464ZM26.6456 22.8052C25.9285 23.6843 24.8022 24.1836 23.5167 24.1836C23.0502 24.1836 22.5654 24.1178 22.0755 23.9885C20.0871 23.463 18.9493 21.5472 18.5403 20.7179C19.229 20.3128 20.7882 19.5137 22.3607 19.5137C22.8786 19.5137 23.3572 19.6023 23.7835 19.7776C24.8778 20.2278 26.2087 21.4218 26.6456 22.8052Z" fill="#A7A7A7"/>
</svg>
