<svg width="48" height="49" viewBox="0 0 48 49" fill="none" xmlns="http://www.w3.org/2000/svg">
<path d="M7.4 10.325C6.73333 10.325 6.075 10.2667 5.425 10.15C4.775 10.0167 4.19167 9.78333 3.675 9.45C3.15833 9.1 2.73333 8.625 2.4 8.025C2.08333 7.40833 1.925 6.60833 1.925 5.625C1.925 4.69167 2.08333 3.925 2.4 3.325C2.71667 2.70833 3.13333 2.225 3.65 1.875C4.16667 1.525 4.75 1.28333 5.4 1.15C6.05 1.01667 6.71667 0.949999 7.4 0.949999H10.85C11.5167 0.949999 12.175 1.01667 12.825 1.15C13.4917 1.28333 14.0833 1.525 14.6 1.875C15.1167 2.225 15.5333 2.70833 15.85 3.325C16.1667 3.925 16.325 4.69167 16.325 5.625C16.325 6.60833 16.1583 7.40833 15.825 8.025C15.5083 8.625 15.0917 9.1 14.575 9.45C14.0583 9.78333 13.475 10.0167 12.825 10.15C12.175 10.2667 11.5167 10.325 10.85 10.325H7.4ZM18.4 0.649999H22.275V19.55H18.4V18.425H14.125V15.4H18.4V0.649999ZM3 16.85H6.9V20.65H22.775V23.775H3V16.85ZM7.75 14.875C6.58333 14.9083 5.44167 14.9333 4.325 14.95C3.225 14.9667 2.16667 14.975 1.15 14.975L0.675 11.9C1.80833 11.9 3.075 11.8917 4.475 11.875C5.875 11.8417 7.3 11.8 8.75 11.75C10.2167 11.7 11.6667 11.6333 13.1 11.55C14.55 11.4667 15.8917 11.3583 17.125 11.225L17.625 14.25C16.675 14.3333 15.7 14.4167 14.7 14.5C13.7167 14.5667 12.7 14.625 11.65 14.675V18.4H7.75V14.875ZM5.8 5.625C5.8 5.79167 5.825 5.975 5.875 6.175C5.925 6.35833 6.00833 6.53333 6.125 6.7C6.24167 6.85 6.4 6.98333 6.6 7.1C6.81667 7.2 7.09167 7.25 7.425 7.25H10.825C11.1417 7.25 11.4083 7.2 11.625 7.1C11.8417 6.98333 12.0083 6.85 12.125 6.7C12.2417 6.53333 12.325 6.35833 12.375 6.175C12.425 5.975 12.45 5.79167 12.45 5.625C12.45 5.44167 12.4167 5.25833 12.35 5.075C12.3 4.875 12.2083 4.7 12.075 4.55C11.9583 4.4 11.7917 4.275 11.575 4.175C11.375 4.075 11.125 4.025 10.825 4.025H7.425C7.10833 4.025 6.84167 4.075 6.625 4.175C6.425 4.275 6.25833 4.4 6.125 4.55C6.00833 4.7 5.925 4.875 5.875 5.075C5.825 5.25833 5.8 5.44167 5.8 5.625ZM27.5117 14.05H31.4117V15.9H43.4117V14.05H47.2867V24.025H27.5117V14.05ZM26.3367 0.974999H37.2367V12.325H26.3367V0.974999ZM43.5617 4.825V0.649999H47.2867V13.075H43.5617V7.95H42.2617V12.825H38.5367V0.825H42.2617V4.825H43.5617ZM31.4117 18.975V20.95H43.4117V18.975H31.4117ZM30.1367 4.05V9.25H33.4617V4.05H30.1367ZM8.992 48.16C8.61867 47.9147 8.24533 47.632 7.872 47.312C7.49867 47.0027 7.14667 46.6613 6.816 46.288C6.496 45.9253 6.20267 45.5413 5.936 45.136C5.66933 44.72 5.456 44.2933 5.296 43.856C5.136 44.304 4.91733 44.7413 4.64 45.168C4.36267 45.5947 4.048 46 3.696 46.384C3.35467 46.768 2.98667 47.12 2.592 47.44C2.208 47.7707 1.82933 48.064 1.456 48.32L0.576 47.328C1.16267 46.9653 1.70133 46.544 2.192 46.064C2.68267 45.5947 3.104 45.0827 3.456 44.528C3.808 43.9627 4.08 43.3707 4.272 42.752C4.464 42.1227 4.56 41.472 4.56 40.8V33.888H6.048V40.8C6.048 42.176 6.38933 43.3973 7.072 44.464C7.76533 45.5307 8.69867 46.432 9.872 47.168L8.992 48.16ZM14.064 33.76V48.432H12.608V40.944H8.816V39.696H12.608V33.76H14.064ZM16.9995 48.144V33.968H18.4715V40.016H23.3515V33.968H24.8235V48.144H16.9995ZM18.4715 41.264V46.928H23.3515V41.264H18.4715ZM28.2955 33.76H29.7515V48.432H28.2955V33.76ZM45.375 43.248C44.767 43.1413 44.1483 42.9867 43.519 42.784C42.9003 42.5707 42.3137 42.304 41.759 41.984C41.2043 41.664 40.703 41.2853 40.255 40.848C39.8177 40.4107 39.471 39.904 39.215 39.328C38.959 39.904 38.607 40.4107 38.159 40.848C37.711 41.2853 37.2097 41.664 36.655 41.984C36.111 42.304 35.5243 42.5707 34.895 42.784C34.2763 42.9867 33.663 43.1413 33.055 43.248L32.575 42.08C33.3857 41.92 34.1483 41.696 34.863 41.408C35.5883 41.12 36.2177 40.752 36.751 40.304C37.2843 39.856 37.7057 39.3173 38.015 38.688C38.3243 38.048 38.479 37.296 38.479 36.432V33.888H39.951V36.432C39.951 37.072 40.0363 37.648 40.207 38.16C40.3883 38.6613 40.623 39.1093 40.911 39.504C41.2097 39.888 41.5563 40.224 41.951 40.512C42.3457 40.8 42.7617 41.0453 43.199 41.248C43.6363 41.4507 44.079 41.6213 44.527 41.76C44.9857 41.888 45.4283 41.9947 45.855 42.08L45.375 43.248ZM46.383 46.88V48.112H32.047V46.88H46.383Z" fill="white"/>
</svg>
