<svg width="84" height="42" viewBox="0 0 84 42" fill="none" xmlns="http://www.w3.org/2000/svg">
<path d="M11 23.1522H13.4349V28.2211H13.4711L17.5986 23.1522H20.1647L15.571 28.4066L20.6489 34.8106H17.6755L13.4711 29.167H13.4349V34.8106H11V23.1522Z" fill="white"/>
<path d="M34.7464 26.8274C34.7283 26.9179 33.4159 32.738 33.4159 32.738C33.4159 32.738 31.4381 26.9089 31.4109 26.8274C31.334 26.8274 30.3972 26.8274 30.3157 26.8274C30.2886 26.9089 28.4873 32.8376 28.4873 32.8376C28.4873 32.8376 27.0028 26.9134 26.9802 26.8274C26.8942 26.8274 25.1699 26.8274 25.0251 26.8274C25.0658 26.9722 27.2382 34.7294 27.2608 34.8154C27.3468 34.8154 29.0213 34.8154 29.1028 34.8154C29.13 34.7339 30.7954 29.7103 30.7954 29.7103C30.7954 29.7103 32.6465 34.7384 32.6736 34.8154C32.7506 34.8154 34.4477 34.8154 34.5337 34.8154C34.5518 34.7249 36.4527 26.9722 36.4889 26.8274C36.3621 26.8274 34.837 26.8274 34.7464 26.8274Z" fill="white"/>
<path d="M42.7619 33.566C42.7619 33.566 42.7619 34.7065 42.7619 34.8152C42.8705 34.8152 44.7985 34.8152 44.9116 34.8152C44.9116 34.6975 44.9116 29.3888 44.9116 29.3888C44.9116 27.9586 44.5088 26.6371 41.5942 26.6371C39.2816 26.6371 38.0506 27.497 38.0189 29.1217C38.1366 29.1217 40.2139 29.1217 40.3225 29.1217C40.3225 29.0855 40.3225 29.0493 40.3225 29.0493C40.3542 28.4881 40.4221 27.316 41.5761 27.316C42.4089 27.316 42.7619 27.8047 42.7619 28.9588V30.3754L42.7031 30.3799C41.4675 30.4342 37.7021 30.5836 37.7021 33.032C37.7021 34.1544 38.7475 35.0007 40.137 35.0007C41.9292 35.0007 42.7619 33.566 42.7619 33.566ZM41.0195 33.9417C40.3451 33.9417 39.9288 33.4846 39.9288 32.7424C39.9288 31.7919 40.8611 31.2262 42.7031 31.0678L42.7664 31.0633V31.7241C42.7619 32.8238 42.1645 33.9417 41.0195 33.9417Z" fill="white"/>
<path d="M50.7088 35.0013C51.2112 35.0013 51.7045 34.956 52.234 34.9062H52.2431C52.2431 34.8157 52.2431 33.9739 52.2431 33.8427C51.9263 33.9287 51.5732 33.9468 51.2926 33.9468C50.3784 33.9468 50.0707 33.5983 50.0707 32.5573V27.6921C50.0707 27.6921 52.4693 27.6921 52.5825 27.6921C52.5825 27.5926 52.5825 26.9228 52.5825 26.8232C52.4693 26.8232 50.0707 26.8232 50.0707 26.8232C50.0707 26.8232 50.0707 23.8995 50.0707 23.714C49.9078 23.8045 47.9798 24.859 47.9209 24.8907C47.9209 24.9586 47.9209 26.8232 47.9209 26.8232C47.9209 26.8232 46.3641 26.8232 46.2555 26.8232C46.2555 26.9228 46.2555 27.5926 46.2555 27.6921C46.3686 27.6921 47.9209 27.6921 47.9209 27.6921V32.8108C47.9164 34.6347 48.9845 35.0013 50.7088 35.0013Z" fill="white"/>
<path d="M57.6387 35.0007C58.915 35.0007 59.4671 34.8423 60.4673 34.4576C60.4673 34.3897 60.4673 33.8557 60.4673 33.729C59.9921 33.8919 59.3902 34.0639 58.7837 34.0639C56.1633 34.0639 55.3125 31.2805 55.3125 29.9318V29.873C55.3125 29.873 60.5171 29.873 60.6348 29.873C60.6348 29.7961 60.6348 29.6286 60.6348 29.6286C60.6348 27.7006 59.3721 26.6371 57.0775 26.6371C54.4797 26.6371 53.1627 27.9179 53.1627 30.4433C53.1627 34.5572 56.2946 35.0007 57.6387 35.0007ZM55.317 29.072C55.3939 28.547 55.7153 27.3205 57.0051 27.3205C58.5212 27.3205 58.5665 28.9045 58.5665 29.081V29.1398H55.3079L55.317 29.072Z" fill="white"/>
<path d="M67.5907 28.6469C67.5907 28.5383 67.5907 26.7687 67.5907 26.6465C66.0203 26.7642 65.2464 27.7734 64.6128 28.8505L64.5313 28.9773C64.5313 28.9773 64.5313 26.9361 64.5313 26.8275C64.4227 26.8275 62.4947 26.8275 62.3861 26.8275C62.3861 26.9452 62.3861 34.6978 62.3861 34.8155C62.4947 34.8155 64.4227 34.8155 64.5313 34.8155C64.5313 34.6978 64.5313 31.2447 64.5313 31.2447C64.5313 29.3936 65.3957 28.665 67.5907 28.6469Z" fill="white"/>
<path d="M25.0351 17.7669V22.958C31.0317 17.7262 38.3952 14.0196 46.5054 12.4446C46.4239 12.4446 46.3334 12.4401 46.2519 12.4401C38.5853 12.4401 31.3621 14.3726 25.0351 17.7669Z" fill="white"/>
<path d="M72.9533 15.1238V10.1771C67.4499 8.12239 61.4985 7 55.2937 7C44.7441 7 34.6879 10.2042 26.2337 16.1466C32.4431 13.1324 39.3223 11.5393 46.2512 11.5393L46.5092 11.5439C48.0253 11.5529 49.5369 11.6389 51.044 11.7973C52.4425 11.6661 53.859 11.5982 55.2892 11.5982C61.5438 11.6027 67.5088 12.8563 72.9533 15.1238Z" fill="white"/>
<path d="M29.1806 20.835C34.3671 18.4046 40.151 17.0424 46.2518 17.0424C54.0859 17.0424 61.3995 19.2871 67.5998 23.1567V17.8344C62.5808 15.1189 56.9869 13.3358 51.0582 12.7021C49.5873 12.8379 48.1255 13.0461 46.6772 13.3312C40.3819 14.5532 34.4124 17.1238 29.1806 20.835Z" fill="white"/>
</svg>
