<svg width="33" height="32" viewBox="0 0 33 32" fill="none" xmlns="http://www.w3.org/2000/svg">
<path d="M23.983 9.87658C23.3635 10.2439 22.6751 10.5098 21.9444 10.6556C21.3585 10.0302 20.5253 9.64024 19.6026 9.64024C17.828 9.64024 16.3902 11.079 16.3902 12.8526C16.3902 13.1047 16.4177 13.349 16.4729 13.5853C13.8041 13.4504 11.4406 12.1712 9.85407 10.2301C9.57932 10.7018 9.42076 11.2563 9.42076 11.8432C9.42076 12.959 9.98702 13.9399 10.8487 14.5169C10.3228 14.4992 9.82847 14.3545 9.39417 14.1152V14.1555C9.39417 15.7115 10.5021 17.0075 11.9694 17.3039C11.7016 17.3768 11.415 17.4152 11.1254 17.4152C10.9157 17.4152 10.7168 17.3955 10.5188 17.3571C10.9285 18.6344 12.1152 19.5611 13.5205 19.5877C12.4205 20.4494 11.0368 20.9625 9.53106 20.9625C9.27304 20.9625 9.01699 20.9467 8.76587 20.9181C10.1869 21.83 11.8739 22.3608 13.6879 22.3608C19.5937 22.3608 22.8209 17.4664 22.8209 13.2269C22.8209 13.088 22.8189 12.9482 22.812 12.8113C23.4394 12.3553 23.9839 11.792 24.4163 11.148C23.8392 11.404 23.2197 11.5773 22.5708 11.6561C23.2345 11.2553 23.7437 10.625 23.983 9.87658Z" fill="white"/>
</svg>
