<svg width="18" height="20" viewBox="0 0 18 20" fill="none" xmlns="http://www.w3.org/2000/svg">
<path d="M17.9598 11.2058V10.7058H16.9598V11.2058H17.9598ZM9.35296 3.95326H9.85296V2.95326H9.35296V3.95326ZM10.7041 3.45326L11.0497 3.81462L11.4275 3.45325L11.0497 3.0919L10.7041 3.45326ZM16.9598 11.2058C16.9598 15.1895 13.5745 18.4583 9.35296 18.4583V19.4583C14.0841 19.4583 17.9598 15.7834 17.9598 11.2058H16.9598ZM9.35296 18.4583C5.13147 18.4583 1.74609 15.1895 1.74609 11.2058H0.746094C0.746094 15.7834 4.62177 19.4583 9.35296 19.4583V18.4583ZM1.74609 11.2058C1.74609 7.22207 5.13147 3.95326 9.35296 3.95326V2.95326C4.62177 2.95326 0.746094 6.62814 0.746094 11.2058H1.74609ZM7.65625 1.23051L10.3585 3.81463L11.0497 3.0919L8.34738 0.507775L7.65625 1.23051ZM10.3585 3.09191L7.65624 5.67619L8.34739 6.3989L11.0497 3.81462L10.3585 3.09191Z" fill="#666666"/>
</svg>
