<svg width="600" height="200" viewBox="0 0 600 200" fill="none" xmlns="http://www.w3.org/2000/svg">
<path d="M55.0871 48.0518H24.6016V30.4244C24.919 26.5398 26.6734 22.9177 29.5165 20.2772C32.3595 17.6367 36.0833 16.1709 39.9484 16.1709C43.8135 16.1709 47.5372 17.6367 50.3803 20.2772C53.2233 22.9177 54.9778 26.5398 55.2952 30.4244L55.0871 48.0518ZM28.9715 43.54H50.9253V30.4244C50.6595 27.6745 49.3882 25.1228 47.3591 23.2663C45.3299 21.4098 42.6882 20.3814 39.9484 20.3814C37.2086 20.3814 34.5668 21.4098 32.5377 23.2663C30.5086 25.1228 29.2373 27.6745 28.9715 30.4244V43.54Z" fill="url(#paint0_linear_665_5937)"/>
<g opacity="0.3">
<path d="M51.1335 43.5397V30.1093C50.9636 27.688 50.0129 25.3892 48.4265 23.5636C46.84 21.7381 44.7049 20.4861 42.3469 19.9986C39.9889 19.5111 37.5375 19.815 35.3668 20.8638C33.196 21.9126 31.4251 23.6487 30.3242 25.8074C31.2537 23.836 32.733 22.1806 34.5809 21.0438C36.4288 19.9071 38.5653 19.3382 40.7288 19.4069C42.1401 19.4051 43.537 19.6929 44.8345 20.2527C46.132 20.8125 47.303 21.6326 48.2762 22.6632C49.2495 23.6938 50.0047 24.9133 50.4959 26.2475C50.9871 27.5816 51.204 29.0027 51.1335 30.4241V43.5397Z" fill="#FFEE8B"/>
<path d="M24.8097 47.6316V30.1091C24.7907 28.014 25.2164 25.939 26.0582 24.0234C25.0999 26.0187 24.6019 28.2069 24.6016 30.4239V48.0513H55.0871L24.8097 47.6316Z" fill="#FFEE8B"/>
</g>
<g style="mix-blend-mode:multiply" opacity="0.4">
<path d="M51.6537 42.49V29.3744C51.6602 26.9802 50.8932 24.6491 49.4687 22.7338C48.0442 20.8185 46.0397 19.4233 43.7588 18.7593C41.4778 18.0953 39.0444 18.1987 36.8269 19.0538C34.6094 19.9089 32.7284 21.4693 31.4688 23.4986C32.8851 21.7127 34.8174 20.4155 36.9977 19.7869C39.178 19.1583 41.4983 19.2295 43.6366 19.9906C45.775 20.7517 47.6256 22.165 48.9316 24.0345C50.2376 25.9039 50.9344 28.1369 50.9254 30.4237V42.49H51.6537Z" fill="url(#paint1_linear_665_5937)"/>
<path d="M25.4339 46.8969V29.3745C25.413 26.4024 26.244 23.4875 27.827 20.9805C25.75 23.6842 24.6162 27.0037 24.6016 30.4237V48.0511H55.0871V46.8969H25.4339Z" fill="url(#paint2_linear_665_5937)"/>
</g>
<g opacity="0.2">
<path d="M40.0004 15C36.9426 14.9999 33.9539 15.918 31.4153 17.6371C28.8767 19.3563 26.9031 21.7987 25.7461 24.6531C27.1561 21.3251 29.6817 18.6031 32.8809 16.9633C36.0801 15.3235 39.7492 14.8704 43.2462 15.6833C46.7433 16.4961 49.8455 18.5232 52.0102 21.4098C54.1748 24.2963 55.264 27.8586 55.0871 31.4732V48.0514V30.424C55.0875 26.3694 53.5047 22.4777 50.6812 19.5911C47.8577 16.7045 44.0207 15.0552 40.0004 15V15Z" fill="#F9FFA2"/>
<path d="M29.8044 26.332C28.9593 27.91 28.5295 29.6801 28.5558 31.4734V44.6939H50.4055V43.5397H28.972V30.4241C28.9747 29.0176 29.2578 27.626 29.8044 26.332Z" fill="#F9FFA2"/>
</g>
<path d="M54.6705 32.1025H25.3295C23.4907 32.1025 22 33.6058 22 35.4601V60.5372C22 62.3916 23.4907 63.8948 25.3295 63.8948H54.6705C56.5093 63.8948 58 62.3916 58 60.5372V35.4601C58 33.6058 56.5093 32.1025 54.6705 32.1025Z" fill="url(#paint3_linear_665_5937)"/>
<path opacity="0.1" d="M56.0226 61.5865H26.6816C25.9005 61.4409 25.1936 61.0267 24.6813 60.4145C24.1691 59.8023 23.8832 59.0299 23.8723 58.2289V33.0469C23.4155 33.3602 23.0432 33.7831 22.7889 34.2777C22.5346 34.7723 22.4064 35.3228 22.4157 35.8799V60.852C22.4017 61.3017 22.4776 61.7496 22.6386 62.1692C22.7997 62.5887 23.0427 62.9713 23.3533 63.2943C23.6639 63.6173 24.0356 63.874 24.4465 64.0493C24.8574 64.2246 25.299 64.3148 25.7452 64.3145H55.0862C55.9177 64.3182 56.7205 64.008 57.3367 63.4449C57.9528 62.8818 58.3377 62.1066 58.4157 61.2717C58.0623 61.4936 57.6658 61.6365 57.253 61.6908C56.8402 61.745 56.4207 61.7095 56.0226 61.5865Z" fill="#8B0000"/>
<path opacity="0.2" d="M55.0849 32.1025H25.3277C24.8295 32.1095 24.3388 32.2258 23.8896 32.4432C23.4404 32.6606 23.0436 32.974 22.7266 33.3616C23.3402 33.197 23.9858 33.197 24.5994 33.3616H53.9404C54.8235 33.3616 55.6703 33.7154 56.2947 34.3451C56.9191 34.9747 57.2699 35.8288 57.2699 36.7192V61.7963C57.2754 62.1842 57.2047 62.5694 57.0618 62.9295C56.919 63.2897 56.7068 63.6178 56.4375 63.8948C56.9071 63.5868 57.2948 63.1677 57.5668 62.6739C57.8389 62.1801 57.987 61.6266 57.9982 61.0619V35.5651C58.0078 34.7308 57.7183 33.9211 57.183 33.2849C56.6478 32.6488 55.9027 32.2289 55.0849 32.1025V32.1025Z" fill="#FFF4E0"/>
<path opacity="0.3" d="M55.0858 63.5801H25.5367C24.6619 63.5537 23.8302 63.1915 23.2113 62.5675C22.5925 61.9434 22.2333 61.1046 22.2072 60.2225V35.1454C22.1611 34.4084 22.3429 33.6752 22.7274 33.0469C22.2241 33.6659 21.9647 34.4505 21.9991 35.2503V60.2225C21.9852 60.6721 22.061 61.1201 22.2221 61.5396C22.3831 61.9592 22.6262 62.3418 22.9367 62.6648C23.2473 62.9878 23.6191 63.2445 24.03 63.4198C24.4409 63.595 24.8825 63.6852 25.3286 63.685H55.0858C55.6713 63.6702 56.2439 63.5091 56.7524 63.2161C57.2609 62.9231 57.6893 62.5073 57.9991 62.0062C57.684 62.4945 57.2519 62.8948 56.7426 63.1699C56.2334 63.445 55.6635 63.5861 55.0858 63.5801V63.5801Z" fill="#FFE1A2"/>
<path d="M42.2897 43H38.544C37.797 43 37.1914 43.6107 37.1914 44.364V51.2891C37.1914 52.0424 37.797 52.6531 38.544 52.6531H42.2897C43.0367 52.6531 43.6423 52.0424 43.6423 51.2891V44.364C43.6423 43.6107 43.0367 43 42.2897 43Z" fill="url(#paint4_linear_665_5937)"/>
<path d="M128.193 60.3094C127.964 59.9641 125.967 58.9857 124.302 57.7031C122.637 56.4163 122.85 48.3465 122.768 48.252C122.227 47.6271 117.306 48.0834 115.239 48.3013C114.931 48.2684 114.476 48.2314 113.935 48.1903V48.1492C113.828 48.1574 113.726 48.1615 113.623 48.1698C113.521 48.1615 113.422 48.1574 113.312 48.1492V48.1903C112.77 48.2273 112.315 48.2684 112.007 48.3013C109.945 48.0834 105.024 47.6312 104.478 48.252C104.396 48.3465 104.614 56.4122 102.945 57.7031C101.276 58.9857 99.2826 59.9641 99.053 60.3094C98.36 61.3495 99.7501 61.4893 99.7501 61.4893H127.496C127.496 61.4893 128.886 61.3495 128.193 60.3094Z" fill="url(#paint5_linear_665_5937)"/>
<path d="M96.0329 13H131.214C135.097 13 138.251 16.1613 138.251 20.0544V45.2093C138.251 49.1024 135.097 52.2637 131.214 52.2637H96.0329C92.1494 52.2637 89 49.1024 89 45.2134V20.0503C89 16.1572 92.1535 13 96.0329 13Z" fill="url(#paint6_linear_665_5937)"/>
<path d="M131.21 50.1487H96.0335C93.2859 50.1487 91.0469 47.9082 91.0469 45.1497V19.9989C91.0469 17.2405 93.2818 15 96.0335 15H131.21C133.958 15 136.193 17.2405 136.193 19.9989V45.1539C136.193 47.9082 133.958 50.1528 131.21 50.1528V50.1487Z" fill="white"/>
<path d="M120 25H98V27H120V25Z" fill="#6EBFFB" fill-opacity="0.5"/>
<path d="M112 32H98V34H112V32Z" fill="#6EBFFB" fill-opacity="0.5"/>
<path d="M112 39H98V41H112V39Z" fill="#6EBFFB" fill-opacity="0.5"/>
<path d="M136.456 49.2837L133.523 51.8271L137.053 55.8944L139.985 53.351L136.456 49.2837Z" fill="#0183EB"/>
<path d="M139.149 52.9567L136.779 55.0131C136.137 55.5695 136.068 56.5404 136.625 57.1817L144.132 65.833C144.689 66.4743 145.66 66.5431 146.301 65.9868L148.672 63.9304C149.313 63.374 149.382 62.4031 148.826 61.7618L141.318 53.1105C140.762 52.4692 139.791 52.4004 139.149 52.9567Z" fill="url(#paint7_linear_665_5937)"/>
<path d="M122.174 35.7862C120.604 37.1486 119.473 38.9461 118.924 40.9514C118.375 42.9567 118.433 45.0797 119.091 47.0519C119.749 49.0241 120.977 50.757 122.62 52.0314C124.263 53.3058 126.247 54.0644 128.321 54.2115C130.396 54.3585 132.467 53.8873 134.273 52.8574C136.079 51.8275 137.54 50.2852 138.469 48.4255C139.399 46.5658 139.756 44.4723 139.496 42.4096C139.235 40.347 138.369 38.4079 137.006 36.8375C135.178 34.7327 132.589 33.4396 129.808 33.2424C127.027 33.0453 124.281 33.9602 122.174 35.7862ZM133.7 49.0634C132.644 49.98 131.339 50.5628 129.952 50.7381C128.564 50.9134 127.156 50.6733 125.905 50.0483C124.654 49.4232 123.616 48.4412 122.923 47.2265C122.23 46.0118 121.913 44.619 122.012 43.2241C122.111 41.8293 122.621 40.495 123.478 39.3902C124.336 38.2854 125.502 37.4597 126.828 37.0173C128.155 36.575 129.583 36.5361 130.932 36.9053C132.281 37.2746 133.491 38.0356 134.407 39.092C135.016 39.7932 135.48 40.6075 135.774 41.4882C136.067 42.3689 136.184 43.2989 136.118 44.2249C136.052 45.1509 135.804 46.0549 135.389 46.885C134.973 47.7152 134.398 48.4553 133.696 49.0631L133.7 49.0634Z" fill="#0183EB"/>
<circle cx="129" cy="44" r="7" fill="white"/>
<path d="M207.193 61.3094C206.964 60.9641 204.967 59.9857 203.302 58.7031C201.637 57.4163 201.85 49.3465 201.768 49.252C201.227 48.6271 196.306 49.0834 194.239 49.3013C193.931 49.2684 193.476 49.2314 192.935 49.1903V49.1492C192.828 49.1574 192.726 49.1615 192.623 49.1698C192.521 49.1615 192.422 49.1574 192.312 49.1492V49.1903C191.77 49.2273 191.315 49.2684 191.007 49.3013C188.945 49.0834 184.024 48.6312 183.478 49.252C183.396 49.3465 183.614 57.4122 181.945 58.7031C180.276 59.9857 178.283 60.9641 178.053 61.3094C177.36 62.3495 178.75 62.4893 178.75 62.4893H206.496C206.496 62.4893 207.886 62.3495 207.193 61.3094Z" fill="url(#paint8_linear_665_5937)"/>
<path d="M175.033 14H210.214C214.097 14 217.251 17.1613 217.251 21.0544V46.2093C217.251 50.1024 214.097 53.2637 210.214 53.2637H175.033C171.149 53.2637 168 50.1024 168 46.2134V21.0503C168 17.1572 171.154 14 175.033 14Z" fill="url(#paint9_linear_665_5937)"/>
<path d="M210.21 51.1487H175.033C172.286 51.1487 170.047 48.9082 170.047 46.1497V20.9989C170.047 18.2405 172.282 16 175.033 16H210.21C212.958 16 215.193 18.2405 215.193 20.9989V46.1539C215.193 48.9082 212.958 51.1528 210.21 51.1528V51.1487Z" fill="white"/>
<g filter="url(#filter0_d_665_5937)">
<path d="M223.732 37.8648C221.926 32.969 216.554 30.4419 211.731 32.2203C206.909 33.9987 204.464 39.4092 206.269 44.3049L211.001 57.1358C212.807 62.0315 218.179 64.5586 223.002 62.7802C227.824 61.0018 230.269 55.5913 228.464 50.6956L223.732 37.8648Z" fill="white"/>
<path d="M211.904 32.6895C216.461 31.0091 221.55 33.3944 223.263 38.0378L227.995 50.8686C229.707 55.512 227.385 60.6307 222.829 62.3111C218.272 63.9915 213.183 61.6061 211.47 56.9628L206.738 44.1319C205.026 39.4886 207.348 34.3699 211.904 32.6895Z" stroke="#DBE2F0"/>
</g>
<path d="M216.172 37.5477C215.813 36.5722 214.706 36.0817 213.702 36.4522C212.697 36.8227 212.174 37.9139 212.534 38.8895L214.183 43.3604C214.543 44.336 215.649 44.8265 216.654 44.456C217.658 44.0855 218.181 42.9943 217.821 42.0187L216.172 37.5477Z" fill="url(#paint10_linear_665_5937)"/>
<path d="M190.193 36.1925L186.693 32.6925C186.303 32.3025 185.682 32.3025 185.292 32.6925C184.903 33.0825 184.903 33.7025 185.292 34.0925L189.483 38.2825C189.873 38.6725 190.502 38.6725 190.892 38.2825L201.492 27.6925C201.882 27.3025 201.882 26.6825 201.492 26.2925C201.102 25.9025 200.482 25.9025 200.092 26.2925L190.193 36.1925Z" fill="#008AF3"/>
<path d="M292.361 67.7284C292.113 67.3559 289.955 66.3005 288.155 64.9169C286.356 63.529 286.586 54.8242 286.497 54.7222C285.912 54.0482 280.594 54.5404 278.36 54.7754C278.027 54.7399 277.535 54.7 276.95 54.6557V54.6113C276.835 54.6202 276.724 54.6246 276.613 54.6335C276.503 54.6246 276.396 54.6202 276.277 54.6113V54.6557C275.692 54.6956 275.2 54.7399 274.867 54.7754C272.638 54.5404 267.319 54.0526 266.729 54.7222C266.641 54.8242 266.876 63.5245 265.072 64.9169C263.268 66.3005 261.114 67.3559 260.866 67.7284C260.116 68.8503 261.619 69.001 261.619 69.001H291.608C291.608 69.001 293.11 68.8503 292.361 67.7284Z" fill="url(#paint11_linear_665_5937)"/>
<path d="M257.601 16.6963H295.626C299.823 16.6963 303.232 20.1064 303.232 24.3058V51.44C303.232 55.6394 299.823 59.0495 295.626 59.0495H257.601C253.404 59.0495 250 55.6394 250 51.4444V24.3013C250 20.1019 253.408 16.6963 257.601 16.6963Z" fill="url(#paint12_linear_665_5937)"/>
<path d="M295.621 56.8274H257.601C254.631 56.8274 252.211 54.4106 252.211 51.4351V24.3053C252.211 21.3298 254.627 18.9131 257.601 18.9131H295.621C298.59 18.9131 301.006 21.3298 301.006 24.3053V51.4396C301.006 54.4106 298.59 56.8318 295.621 56.8318V56.8274Z" fill="white"/>
<g filter="url(#filter1_d_665_5937)">
<path d="M286.878 10H306.065C308.202 10 309.939 11.7383 309.939 13.8757V31.9282C309.939 34.07 308.202 35.8039 306.065 35.8039H286.878C284.741 35.8039 283.004 34.0656 283.004 31.9282V13.8757C283.004 11.7383 284.741 10 286.878 10Z" fill="white"/>
<path d="M286.878 10.25H306.065C308.063 10.25 309.689 11.8763 309.689 13.8757V31.9282C309.689 33.9319 308.064 35.5539 306.065 35.5539H286.878C284.88 35.5539 283.254 33.9277 283.254 31.9282V13.8757C283.254 11.8763 284.88 10.25 286.878 10.25Z" stroke="#DBE2F0" stroke-width="0.5"/>
</g>
<path d="M309.939 13.8757C309.939 11.7339 308.206 10 306.065 10H286.878C284.741 10 283.004 11.7339 283.004 13.8757V15.6938H309.939V13.8757Z" fill="url(#paint13_linear_665_5937)"/>
<path d="M307.22 12.9758C307.22 13.4725 306.817 13.8716 306.325 13.8716C305.833 13.8716 305.43 13.4725 305.43 12.9758C305.43 12.4792 305.833 12.0801 306.325 12.0801C306.817 12.0801 307.22 12.4836 307.22 12.9758V12.9758Z" fill="url(#paint14_radial_665_5937)"/>
<path d="M303.334 12.9758C303.334 13.4725 302.935 13.8716 302.438 13.8716C301.942 13.8716 301.543 13.4725 301.543 12.9758C301.543 12.4792 301.946 12.0801 302.438 12.0801C302.93 12.0801 303.334 12.4836 303.334 12.9758V12.9758Z" fill="url(#paint15_radial_665_5937)"/>
<path d="M268.73 49.5378C270.082 49.5378 271.434 49.2806 272.706 48.7618C273.978 48.2474 275.17 47.4714 276.199 46.4381C277.231 45.4094 278.002 44.2165 278.521 42.9438C279.035 41.6711 279.292 40.3186 279.297 38.9661H271.864C271.864 39.3652 271.788 39.7688 271.633 40.1457C271.478 40.5226 271.252 40.8774 270.946 41.1834C270.64 41.4893 270.286 41.7199 269.914 41.8707C269.537 42.0215 269.138 42.1013 268.735 42.1013C268.331 42.1013 267.932 42.0259 267.556 41.8707C267.179 41.7199 266.824 41.4893 266.518 41.1834C266.213 40.8774 265.982 40.5226 265.831 40.1457C265.681 39.7688 265.601 39.3652 265.601 38.9661C265.601 38.567 265.676 38.1635 265.831 37.7866C265.982 37.4097 266.213 37.0549 266.518 36.7534L263.89 34.1238L261.262 31.4941C260.229 32.5229 259.458 33.7158 258.944 34.9885C258.429 36.2611 258.168 37.6136 258.168 38.9661C258.168 40.3186 258.425 41.6711 258.944 42.9438C259.458 44.2165 260.233 45.4094 261.262 46.4381C262.294 47.4714 263.482 48.243 264.754 48.7618C266.026 49.2762 267.378 49.5378 268.73 49.5378V49.5378Z" fill="url(#paint16_linear_665_5937)"/>
<path d="M268.73 35.835C269.532 35.835 270.335 36.1409 270.942 36.7529C271.554 37.3648 271.859 38.163 271.859 38.9657H279.292C279.292 36.2607 278.26 33.5557 276.199 31.4937C274.138 29.4317 271.434 28.3984 268.73 28.3984C266.026 28.3984 263.323 29.4317 261.262 31.4937L266.518 36.7529C267.13 36.1409 267.932 35.835 268.73 35.835Z" fill="url(#paint17_linear_665_5937)"/>
<path d="M294 21.648V28.352C294 28.8632 294.6 29.1738 295.063 28.8956L300.679 25.5436C301.107 25.2912 301.107 24.7088 300.679 24.45L295.063 21.1044C294.6 20.8262 294 21.1368 294 21.648Z" fill="#0087F2"/>
<path d="M374.062 19.7412H346.942C345.058 19.7412 343.531 21.2662 343.531 23.1474V31.1531C343.531 33.0344 345.058 34.5594 346.942 34.5594H374.062C375.946 34.5594 377.473 33.0344 377.473 31.1531V23.1474C377.473 21.2662 375.946 19.7412 374.062 19.7412Z" fill="#6DC1FA"/>
<path d="M347.969 11.25H373.047V30.8197H347.969V11.25Z" fill="url(#paint18_linear_665_5937)" stroke="#DBE2F0" stroke-width="0.5"/>
<path d="M379.178 53.6371H341.822C340.013 53.6353 338.279 52.917 337 51.6398C335.721 50.3626 335.002 48.6309 335 46.8247V33.1963C335.002 31.39 335.721 29.6583 337 28.3811C338.279 27.104 340.013 26.3856 341.822 26.3838H379.178C380.987 26.3856 382.721 27.104 384 28.3811C385.279 29.6583 385.998 31.39 386 33.1963V46.8247C385.998 48.6309 385.279 50.3626 384 51.6398C382.721 52.917 380.987 53.6353 379.178 53.6371Z" fill="url(#paint19_linear_665_5937)"/>
<path d="M376.15 43.412C376.15 43.8269 375.985 44.2248 375.692 44.5182C375.398 44.8116 374.999 44.9764 374.584 44.9764H346.376C345.963 44.9737 345.567 44.8076 345.275 44.5145C344.984 44.2215 344.82 43.8251 344.82 43.412V43.412C344.82 43.2063 344.861 43.0026 344.94 42.8126C345.019 42.6226 345.135 42.4499 345.28 42.3046C345.426 42.1593 345.599 42.0442 345.79 41.9658C345.98 41.8873 346.184 41.8472 346.39 41.8477H374.598C375.011 41.8513 375.406 42.0178 375.697 42.3107C375.987 42.6037 376.15 42.9995 376.15 43.412V43.412Z" fill="#47417E"/>
<mask id="path-45-inside-1_665_5937" fill="white">
<path d="M373.297 41.833V63.7273H347.719V41.833"/>
</mask>
<path d="M373.297 41.833V63.7273H347.719V41.833" fill="url(#paint20_linear_665_5937)"/>
<path d="M373.297 63.7273V64.2273H373.797V63.7273H373.297ZM347.719 63.7273H347.219V64.2273H347.719V63.7273ZM372.797 41.833V63.7273H373.797V41.833H372.797ZM373.297 63.2273H347.719V64.2273H373.297V63.2273ZM348.219 63.7273V41.833H347.219V63.7273H348.219Z" fill="#DBE2F0" mask="url(#path-45-inside-1_665_5937)"/>
<path d="M379.946 32.6865C379.946 32.8095 379.922 32.9313 379.875 33.0449C379.827 33.1586 379.758 33.2618 379.671 33.3488C379.584 33.4357 379.481 33.5047 379.367 33.5518C379.253 33.5989 379.131 33.6231 379.008 33.6231C378.885 33.6231 378.763 33.5989 378.649 33.5518C378.535 33.5047 378.432 33.4357 378.345 33.3488C378.258 33.2618 378.189 33.1586 378.142 33.0449C378.095 32.9313 378.07 32.8095 378.07 32.6865C378.07 32.4382 378.169 32.1999 378.345 32.0243C378.521 31.8487 378.759 31.75 379.008 31.75C379.257 31.75 379.495 31.8487 379.671 32.0243C379.847 32.1999 379.946 32.4382 379.946 32.6865V32.6865Z" fill="url(#paint21_radial_665_5937)"/>
<path d="M375.852 32.6865C375.852 32.8095 375.828 32.9313 375.781 33.0449C375.734 33.1586 375.665 33.2618 375.578 33.3488C375.49 33.4357 375.387 33.5047 375.273 33.5518C375.159 33.5989 375.038 33.6231 374.914 33.6231C374.791 33.6231 374.669 33.5989 374.555 33.5518C374.442 33.5047 374.338 33.4357 374.251 33.3488C374.164 33.2618 374.095 33.1586 374.048 33.0449C374.001 32.9313 373.977 32.8095 373.977 32.6865C373.977 32.4382 374.075 32.1999 374.251 32.0243C374.427 31.8487 374.666 31.75 374.914 31.75C375.163 31.75 375.402 31.8487 375.578 32.0243C375.753 32.1999 375.852 32.4382 375.852 32.6865Z" fill="url(#paint22_radial_665_5937)"/>
<path d="M367.976 51.2166C367.976 51.5147 367.858 51.8005 367.647 52.0113C367.436 52.2221 367.15 52.3405 366.851 52.3405H354.149C354.001 52.3405 353.855 52.3114 353.718 52.2549C353.582 52.1984 353.458 52.1157 353.353 52.0113C353.249 51.9069 353.166 51.783 353.109 51.6467C353.053 51.5103 353.023 51.3642 353.023 51.2166V51.2166C353.023 51.069 353.053 50.9229 353.109 50.7866C353.166 50.6502 353.249 50.5263 353.353 50.4219C353.458 50.3176 353.582 50.2348 353.718 50.1783C353.855 50.1218 354.001 50.0928 354.149 50.0928H366.851C367.15 50.0928 367.436 50.2112 367.647 50.4219C367.858 50.6327 367.976 50.9186 367.976 51.2166V51.2166Z" fill="#6EBFFB"/>
<path d="M367.976 56.9984C367.976 57.2965 367.858 57.5823 367.647 57.7931C367.436 58.0039 367.15 58.1223 366.851 58.1223H354.149C354.001 58.1223 353.855 58.0932 353.718 58.0367C353.582 57.9802 353.458 57.8974 353.353 57.7931C353.249 57.6887 353.166 57.5649 353.109 57.4285C353.053 57.2922 353.023 57.146 353.023 56.9984V56.9984C353.023 56.7 353.142 56.4138 353.353 56.2025C353.564 55.9912 353.85 55.872 354.149 55.8711H366.851C367.15 55.872 367.436 55.9912 367.647 56.2025C367.858 56.4138 367.976 56.7 367.976 56.9984V56.9984Z" fill="#6EBFFB"/>
<path d="M456.011 70.5548C455.729 70.1318 453.283 68.9333 451.244 67.3622C449.204 65.786 449.465 55.9009 449.365 55.7851C448.702 55.0197 442.674 55.5786 440.142 55.8455C439.765 55.8052 439.208 55.7599 438.545 55.7095V55.6592C438.414 55.6693 438.289 55.6743 438.163 55.6844C438.037 55.6743 437.917 55.6693 437.781 55.6592V55.7095C437.118 55.7549 436.561 55.8052 436.184 55.8455C433.657 55.5786 427.629 55.0247 426.961 55.7851C426.861 55.9009 427.127 65.7809 425.082 67.3622C423.038 68.9333 420.597 70.1318 420.315 70.5548C419.466 71.8288 421.169 72 421.169 72H455.157C455.157 72 456.86 71.8288 456.011 70.5548Z" fill="url(#paint23_linear_665_5937)"/>
<path d="M416.615 12.6035H459.71C464.467 12.6035 468.329 16.476 468.329 21.2448V52.0582C468.329 56.827 464.467 60.6995 459.71 60.6995H416.615C411.858 60.6995 408 56.827 408 52.0633V21.2397C408 16.4709 411.863 12.6035 416.615 12.6035Z" fill="url(#paint24_linear_665_5937)"/>
<path d="M459.706 58.1763H416.616C413.251 58.1763 410.508 55.4319 410.508 52.0529V21.2445C410.508 17.8655 413.245 15.1211 416.616 15.1211H459.706C463.071 15.1211 465.809 17.8655 465.809 21.2445V52.058C465.809 55.4319 463.071 58.1814 459.706 58.1814V58.1763Z" fill="white"/>
<path d="M422.396 45.1172H434.53C435.966 45.1172 437.343 45.6861 438.359 46.6989C439.374 47.7116 439.945 49.0852 439.945 50.5174V57.8016H417V50.5054C417.003 49.0784 417.573 47.7106 418.584 46.701C419.595 45.6913 420.966 45.1219 422.396 45.1172V45.1172Z" fill="url(#paint25_linear_665_5937)"/>
<path d="M422.078 32.6777H434.856V34.6218C434.856 35.2711 434.597 35.8938 434.137 36.3529C433.677 36.812 433.052 37.0699 432.401 37.0699H424.533C424.21 37.0699 423.891 37.0066 423.593 36.8835C423.296 36.7605 423.025 36.5802 422.797 36.3529C422.569 36.1255 422.388 35.8557 422.265 35.5586C422.142 35.2616 422.078 34.9433 422.078 34.6218V32.6777V32.6777Z" fill="#7A6D6D"/>
<path d="M431.046 45.123L428.471 47.3011L425.891 45.123V39.7588H431.046V45.123Z" fill="url(#paint26_linear_665_5937)"/>
<path d="M422.299 34.5322H422.822V38.0784H422.299C421.94 38.0784 421.596 37.9361 421.342 37.6829C421.088 37.4297 420.945 37.0864 420.945 36.7283V35.8823C420.945 35.5242 421.088 35.1808 421.342 34.9276C421.596 34.6745 421.94 34.5322 422.299 34.5322V34.5322Z" fill="url(#paint27_linear_665_5937)"/>
<path d="M434.631 38.0907H434.107V34.5446H434.631C434.99 34.5446 435.334 34.6868 435.588 34.94C435.842 35.1932 435.984 35.5365 435.984 35.8946V36.7466C435.984 37.1047 435.842 37.4481 435.588 37.7013C435.334 37.9544 434.99 38.0967 434.631 38.0967V38.0907Z" fill="url(#paint28_linear_665_5937)"/>
<path d="M428.833 27.3867H428.099C425.119 27.3867 422.703 29.7964 422.703 32.7689V37.2631C422.703 40.2356 425.119 42.6453 428.099 42.6453H428.833C431.814 42.6453 434.23 40.2356 434.23 37.2631V32.7689C434.23 29.7964 431.814 27.3867 428.833 27.3867Z" fill="url(#paint29_linear_665_5937)"/>
<path d="M434.849 32.7688V33.5908C433.937 33.5907 433.037 33.3894 432.212 33.0015C431.387 32.6135 430.659 32.0484 430.079 31.3467C429.13 32.4859 427.803 33.2476 426.339 33.4931C424.875 33.7387 423.371 33.4518 422.102 32.6848C422.124 31.108 422.767 29.6033 423.893 28.4962C425.019 27.389 426.536 26.7684 428.117 26.7686H428.863C430.454 26.7765 431.976 27.4121 433.098 28.5365C434.22 29.6609 434.849 31.1826 434.849 32.7688Z" fill="#7A6D6D"/>
<path d="M426.986 34.7422H426.98C426.667 34.7422 426.414 34.9947 426.414 35.3062V36.3142C426.414 36.6257 426.667 36.8783 426.98 36.8783H426.986C427.298 36.8783 427.551 36.6257 427.551 36.3142V35.3062C427.551 34.9947 427.298 34.7422 426.986 34.7422Z" fill="#7A6D6D"/>
<path d="M429.954 34.7422H429.948C429.636 34.7422 429.383 34.9947 429.383 35.3062V36.3142C429.383 36.6257 429.636 36.8783 429.948 36.8783H429.954C430.267 36.8783 430.52 36.6257 430.52 36.3142V35.3062C430.52 34.9947 430.267 34.7422 429.954 34.7422Z" fill="#7A6D6D"/>
<path d="M426.162 37.8506H430.782C430.782 38.2612 430.619 38.6549 430.328 38.9452C430.037 39.2355 429.642 39.3986 429.23 39.3986H427.708C427.297 39.3986 426.902 39.2355 426.611 38.9452C426.32 38.6549 426.156 38.2612 426.156 37.8506V37.8506H426.162Z" fill="url(#paint30_linear_665_5937)"/>
<path d="M440 11.7511V40L445.416 33.9355H468.214C469.218 33.9355 470.181 33.5411 470.891 32.8392C471.601 32.1373 472 31.1853 472 30.1926V11.7511C472.001 11.2589 471.904 10.7713 471.714 10.3162C471.524 9.86118 471.246 9.4476 470.894 9.09917C470.542 8.75074 470.125 8.47431 469.665 8.28569C469.205 8.09708 468.712 8 468.214 8H443.786C443.288 8 442.795 8.09708 442.335 8.28569C441.875 8.47431 441.458 8.75074 441.106 9.09917C440.754 9.4476 440.476 9.86118 440.286 10.3162C440.096 10.7713 439.999 11.2589 440 11.7511V11.7511Z" fill="#008AF3"/>
<path d="M444.822 44.3193H439.938V57.8018H444.822V44.3193Z" fill="url(#paint31_linear_665_5937)"/>
<path d="M442.371 42.5068H448.46C448.698 42.5068 448.928 42.6006 449.098 42.768C449.268 42.9353 449.365 43.1627 449.368 43.4009V43.4009C449.368 43.6412 449.272 43.8716 449.102 44.0415C448.932 44.2114 448.701 44.3069 448.46 44.3069H440.555C440.555 43.8295 440.745 43.3716 441.083 43.0341C441.422 42.6965 441.881 42.5068 442.359 42.5068H442.371Z" fill="url(#paint32_linear_665_5937)"/>
<path d="M452.234 17.4654H460.766V18.9098C460.766 19.2729 461.227 19.4504 461.491 19.1922L463.872 16.9409C464.043 16.7795 464.043 16.5294 463.872 16.368L461.491 14.1167C461.227 13.8666 460.766 14.0441 460.766 14.4072V15.8516H451.381C450.911 15.8516 450.527 16.2147 450.527 16.6585V19.8862C450.527 20.33 450.911 20.6931 451.381 20.6931C451.85 20.6931 452.234 20.33 452.234 19.8862V17.4654ZM460.766 25.5346H452.234V24.0902C452.234 23.7271 451.773 23.5496 451.509 23.8078L449.128 26.0591C448.957 26.2205 448.957 26.4706 449.128 26.632L451.509 28.8833C451.773 29.1334 452.234 28.9559 452.234 28.5928V27.1484H461.619C462.089 27.1484 462.473 26.7853 462.473 26.3415V23.1138C462.473 22.67 462.089 22.3069 461.619 22.3069C461.15 22.3069 460.766 22.67 460.766 23.1138V25.5346Z" fill="white"/>
<circle cx="12" cy="100" r="2" fill="#D9D9D9"/>
<circle cx="20" cy="100" r="2" fill="#D9D9D9"/>
<circle cx="28" cy="100" r="2" fill="#D9D9D9"/>
<path d="M59.5362 102.781L61.6481 105.554C61.2911 105.653 60.9036 105.698 60.4934 105.698C57.9561 105.698 56.1709 103.776 56.1709 100.221C56.1709 96.666 57.9561 94.744 60.4934 94.744C63.0383 94.744 64.8235 96.666 64.8235 100.221C64.8235 102.143 64.2994 103.594 63.4181 104.513L62.0811 102.781H59.5362ZM53.3525 100.221C53.3525 105.235 56.4064 108.213 60.4934 108.213C61.481 108.213 62.4078 108.038 63.2434 107.704L64.5349 109.345H67.2621L65.1046 106.572C66.6695 105.212 67.6343 103.04 67.6343 100.221C67.6343 95.1922 64.5728 92.2295 60.4934 92.2295C56.4064 92.2295 53.3525 95.1922 53.3525 100.221Z" fill="white"/>
<g clip-path="url(#clip0_665_5937)">
<path d="M90 95L100 105L110 95" stroke="#888888" stroke-width="1.83333" stroke-linecap="round" stroke-linejoin="round"/>
</g>
<defs>
<filter id="filter0_d_665_5937" x="203.675" y="31.6509" width="27.3838" height="35.6987" filterUnits="userSpaceOnUse" color-interpolation-filters="sRGB">
<feFlood flood-opacity="0" result="BackgroundImageFix"/>
<feColorMatrix in="SourceAlpha" type="matrix" values="0 0 0 0 0 0 0 0 0 0 0 0 0 0 0 0 0 0 127 0" result="hardAlpha"/>
<feOffset dy="2"/>
<feGaussianBlur stdDeviation="1"/>
<feComposite in2="hardAlpha" operator="out"/>
<feColorMatrix type="matrix" values="0 0 0 0 0.133333 0 0 0 0 0.466667 0 0 0 0 0.94902 0 0 0 0.2 0"/>
<feBlend mode="normal" in2="BackgroundImageFix" result="effect1_dropShadow_665_5937"/>
<feBlend mode="normal" in="SourceGraphic" in2="effect1_dropShadow_665_5937" result="shape"/>
</filter>
<filter id="filter1_d_665_5937" x="281.004" y="10" width="30.9351" height="29.8037" filterUnits="userSpaceOnUse" color-interpolation-filters="sRGB">
<feFlood flood-opacity="0" result="BackgroundImageFix"/>
<feColorMatrix in="SourceAlpha" type="matrix" values="0 0 0 0 0 0 0 0 0 0 0 0 0 0 0 0 0 0 127 0" result="hardAlpha"/>
<feOffset dy="2"/>
<feGaussianBlur stdDeviation="1"/>
<feComposite in2="hardAlpha" operator="out"/>
<feColorMatrix type="matrix" values="0 0 0 0 0 0 0 0 0 0 0 0 0 0 0 0 0 0 0.1 0"/>
<feBlend mode="normal" in2="BackgroundImageFix" result="effect1_dropShadow_665_5937"/>
<feBlend mode="normal" in="SourceGraphic" in2="effect1_dropShadow_665_5937" result="shape"/>
</filter>
<linearGradient id="paint0_linear_665_5937" x1="24.6016" y1="31.4737" x2="55.2952" y2="31.4737" gradientUnits="userSpaceOnUse">
<stop stop-color="#FF9D00"/>
<stop offset="1" stop-color="#FFC500"/>
</linearGradient>
<linearGradient id="paint1_linear_665_5937" x1="31.4687" y1="30.4236" x2="51.6537" y2="30.4236" gradientUnits="userSpaceOnUse">
<stop stop-color="#FF9D00"/>
<stop offset="1" stop-color="#FFC500"/>
</linearGradient>
<linearGradient id="paint2_linear_665_5937" x1="24.6016" y1="34.5158" x2="55.2952" y2="34.5158" gradientUnits="userSpaceOnUse">
<stop stop-color="#FF9D00"/>
<stop offset="1" stop-color="#FFC500"/>
</linearGradient>
<linearGradient id="paint3_linear_665_5937" x1="22" y1="48.0511" x2="58" y2="48.0511" gradientUnits="userSpaceOnUse">
<stop stop-color="#FF9D00"/>
<stop offset="1" stop-color="#FFC500"/>
</linearGradient>
<linearGradient id="paint4_linear_665_5937" x1="41.9775" y1="46.2527" x2="29.4955" y2="58.2141" gradientUnits="userSpaceOnUse">
<stop offset="0.02" stop-color="#F77D00"/>
<stop offset="1" stop-color="#FFC500"/>
</linearGradient>
<linearGradient id="paint5_linear_665_5937" x1="113.622" y1="66.2729" x2="113.622" y2="41.2982" gradientUnits="userSpaceOnUse">
<stop stop-color="#74CBFC"/>
<stop offset="1" stop-color="#65AFFB"/>
</linearGradient>
<linearGradient id="paint6_linear_665_5937" x1="113.624" y1="66.1215" x2="113.624" y2="-6.22768" gradientUnits="userSpaceOnUse">
<stop stop-color="#74CBFC"/>
<stop offset="1" stop-color="#65AFFB"/>
</linearGradient>
<linearGradient id="paint7_linear_665_5937" x1="137.964" y1="53.9849" x2="147.484" y2="64.9605" gradientUnits="userSpaceOnUse">
<stop stop-color="#F5CA19"/>
<stop offset="1" stop-color="#FD9E0A"/>
</linearGradient>
<linearGradient id="paint8_linear_665_5937" x1="192.622" y1="67.2729" x2="192.622" y2="42.2982" gradientUnits="userSpaceOnUse">
<stop stop-color="#74CBFC"/>
<stop offset="1" stop-color="#65AFFB"/>
</linearGradient>
<linearGradient id="paint9_linear_665_5937" x1="192.624" y1="67.1215" x2="192.624" y2="-5.22768" gradientUnits="userSpaceOnUse">
<stop stop-color="#74CBFC"/>
<stop offset="1" stop-color="#65AFFB"/>
</linearGradient>
<linearGradient id="paint10_linear_665_5937" x1="216.616" y1="44.3545" x2="214.06" y2="37.4241" gradientUnits="userSpaceOnUse">
<stop stop-color="#2277F2"/>
<stop offset="0.07" stop-color="#2277F2"/>
<stop offset="0.31" stop-color="#2277F2"/>
<stop offset="0.54" stop-color="#2277F2"/>
<stop offset="0.77" stop-color="#76AEFF"/>
<stop offset="1" stop-color="#76AEFF"/>
</linearGradient>
<linearGradient id="paint11_linear_665_5937" x1="276.612" y1="74.1611" x2="276.612" y2="47.2213" gradientUnits="userSpaceOnUse">
<stop stop-color="#74CBFC"/>
<stop offset="1" stop-color="#65AFFB"/>
</linearGradient>
<linearGradient id="paint12_linear_665_5937" x1="276.614" y1="73.9976" x2="276.614" y2="-4.04431" gradientUnits="userSpaceOnUse">
<stop stop-color="#74CBFC"/>
<stop offset="1" stop-color="#65AFFB"/>
</linearGradient>
<linearGradient id="paint13_linear_665_5937" x1="296.47" y1="17.7034" x2="296.47" y2="7.21171" gradientUnits="userSpaceOnUse">
<stop stop-color="#74CBFC"/>
<stop offset="1" stop-color="#65AFFB"/>
</linearGradient>
<radialGradient id="paint14_radial_665_5937" cx="0" cy="0" r="1" gradientUnits="userSpaceOnUse" gradientTransform="translate(306.417 12.5483) scale(1.34044 1.34108)">
<stop stop-color="#EEE663"/>
<stop offset="1" stop-color="#E4BD5F"/>
</radialGradient>
<radialGradient id="paint15_radial_665_5937" cx="0" cy="0" r="1" gradientUnits="userSpaceOnUse" gradientTransform="translate(302.541 12.5483) scale(1.33854 1.34108)">
<stop stop-color="#91FFE1"/>
<stop offset="1" stop-color="#76C5D4"/>
</radialGradient>
<linearGradient id="paint16_linear_665_5937" x1="268.505" y1="41.3933" x2="267.215" y2="18.5523" gradientUnits="userSpaceOnUse">
<stop stop-color="#008BF3"/>
<stop offset="0.854167" stop-color="#0750DE"/>
</linearGradient>
<linearGradient id="paint17_linear_665_5937" x1="265.328" y1="35.5667" x2="272.612" y2="28.204" gradientUnits="userSpaceOnUse">
<stop stop-color="#FABE2C"/>
<stop offset="0.59" stop-color="#FABE2C"/>
<stop offset="1" stop-color="#FF9100"/>
</linearGradient>
<linearGradient id="paint18_linear_665_5937" x1="360.508" y1="26.0436" x2="360.508" y2="20.9308" gradientUnits="userSpaceOnUse">
<stop stop-color="#DFE9FC"/>
<stop offset="0.416667" stop-color="white"/>
</linearGradient>
<linearGradient id="paint19_linear_665_5937" x1="360.498" y1="-10.0685" x2="360.498" y2="42.9051" gradientUnits="userSpaceOnUse">
<stop offset="0.708333" stop-color="#70C4FB"/>
<stop offset="1" stop-color="#2277F2"/>
</linearGradient>
<linearGradient id="paint20_linear_665_5937" x1="360.508" y1="42.7349" x2="360.508" y2="49.5508" gradientUnits="userSpaceOnUse">
<stop offset="0.17" stop-color="#D2CFF6"/>
<stop offset="0.29" stop-color="white"/>
</linearGradient>
<radialGradient id="paint21_radial_665_5937" cx="0" cy="0" r="1" gradientUnits="userSpaceOnUse" gradientTransform="translate(379.435 32.7733) scale(2.53559 2.53214)">
<stop stop-color="#F7E471"/>
<stop offset="1" stop-color="#E8A32B"/>
</radialGradient>
<radialGradient id="paint22_radial_665_5937" cx="0" cy="0" r="1" gradientUnits="userSpaceOnUse" gradientTransform="translate(375.338 32.7733) scale(2.53559 2.53214)">
<stop stop-color="#F7E471"/>
<stop offset="1" stop-color="#E8A32B"/>
</radialGradient>
<linearGradient id="paint23_linear_665_5937" x1="438.162" y1="77.8598" x2="438.162" y2="47.2671" gradientUnits="userSpaceOnUse">
<stop stop-color="#74CBFC"/>
<stop offset="1" stop-color="#65AFFB"/>
</linearGradient>
<linearGradient id="paint24_linear_665_5937" x1="438.163" y1="77.6745" x2="438.163" y2="-10.9494" gradientUnits="userSpaceOnUse">
<stop stop-color="#74CBFC"/>
<stop offset="1" stop-color="#65AFFB"/>
</linearGradient>
<linearGradient id="paint25_linear_665_5937" x1="428.466" y1="45.7772" x2="428.466" y2="56.1096" gradientUnits="userSpaceOnUse">
<stop stop-color="#FE9908"/>
<stop offset="1" stop-color="#F3DC1F"/>
</linearGradient>
<linearGradient id="paint26_linear_665_5937" x1="428.471" y1="43.6889" x2="428.471" y2="47.037" gradientUnits="userSpaceOnUse">
<stop stop-color="#F4B8B3"/>
<stop offset="0.05" stop-color="#F5BAB5"/>
<stop offset="0.59" stop-color="#FCCAC5"/>
<stop offset="1" stop-color="#FFD0CA"/>
</linearGradient>
<linearGradient id="paint27_linear_665_5937" x1="422.66" y1="36.3023" x2="420.975" y2="36.3023" gradientUnits="userSpaceOnUse">
<stop stop-color="#F4B8B3"/>
<stop offset="0.05" stop-color="#F5BAB5"/>
<stop offset="0.59" stop-color="#FCCAC5"/>
<stop offset="1" stop-color="#FFD0CA"/>
</linearGradient>
<linearGradient id="paint28_linear_665_5937" x1="434.276" y1="36.3026" x2="435.954" y2="36.3026" gradientUnits="userSpaceOnUse">
<stop stop-color="#F4B8B3"/>
<stop offset="0.05" stop-color="#F5BAB5"/>
<stop offset="0.59" stop-color="#FCCAC5"/>
<stop offset="1" stop-color="#FFD0CA"/>
</linearGradient>
<linearGradient id="paint29_linear_665_5937" x1="428.472" y1="28.0707" x2="428.472" y2="44.8773" gradientUnits="userSpaceOnUse">
<stop stop-color="#F4B8B3"/>
<stop offset="0.05" stop-color="#F5BAB5"/>
<stop offset="0.59" stop-color="#FCCAC5"/>
<stop offset="1" stop-color="#FFD0CA"/>
</linearGradient>
<linearGradient id="paint30_linear_665_5937" x1="426.162" y1="38.6246" x2="430.776" y2="38.6246" gradientUnits="userSpaceOnUse">
<stop stop-color="#D04337"/>
<stop offset="0.07" stop-color="#D24E3F"/>
<stop offset="0.31" stop-color="#D96A54"/>
<stop offset="0.54" stop-color="#DD7F64"/>
<stop offset="0.77" stop-color="#E08B6D"/>
<stop offset="1" stop-color="#E18F70"/>
</linearGradient>
<linearGradient id="paint31_linear_665_5937" x1="442.374" y1="45.0154" x2="442.374" y2="56.0018" gradientUnits="userSpaceOnUse">
<stop stop-color="#FF9201"/>
<stop offset="1" stop-color="#F3DC1F"/>
</linearGradient>
<linearGradient id="paint32_linear_665_5937" x1="444.958" y1="42.6028" x2="444.958" y2="44.0729" gradientUnits="userSpaceOnUse">
<stop stop-color="#F4B8B3"/>
<stop offset="0.05" stop-color="#F5BAB5"/>
<stop offset="0.59" stop-color="#FCCAC5"/>
<stop offset="1" stop-color="#FFD0CA"/>
</linearGradient>
<clipPath id="clip0_665_5937">
<rect width="40" height="40" fill="white" transform="translate(80 80)"/>
</clipPath>
</defs>
</svg>
