<svg width="100" height="100" viewBox="0 0 100 100" fill="none" xmlns="http://www.w3.org/2000/svg">
<g clip-path="url(#clip0_739_7359)">
<path d="M66.558 23.2523L53.2206 30.6536V24.4376C53.2206 23.1742 52.318 22.6413 51.2184 23.2523L37.8809 30.6536V24.4376C37.8809 23.1742 36.9783 22.6413 35.8787 23.2523L21.6157 31.1682C20.5115 31.7792 19.6089 33.3137 19.6089 34.5771V63.7781C19.6089 65.0415 20.6398 66.0752 21.8998 66.0752H66.2786C67.5385 66.0752 68.5694 65.0415 68.5694 63.7781V24.4376C68.5694 23.1742 67.6668 22.6413 66.5672 23.2523H66.558Z" fill="#D3ECFE"/>
<path d="M30.6784 41.3901C30.6784 42.6076 29.6933 43.5907 28.4837 43.5907C27.2741 43.5907 26.2891 42.603 26.2891 41.3901C26.2891 40.1772 27.2741 39.1895 28.4837 39.1895C29.6933 39.1895 30.6784 40.1772 30.6784 41.3901Z" fill="url(#paint0_linear_739_7359)"/>
<path d="M30.6784 49.5913C30.6784 50.8087 29.6933 51.7965 28.4837 51.7965C27.2741 51.7965 26.2891 50.8087 26.2891 49.5913C26.2891 48.3738 27.2741 47.3906 28.4837 47.3906C29.6933 47.3906 30.6784 48.3784 30.6784 49.5913Z" fill="url(#paint1_linear_739_7359)"/>
<path d="M30.6784 57.7963C30.6784 59.0138 29.6933 59.997 28.4837 59.997C27.2741 59.997 26.2891 59.0092 26.2891 57.7963C26.2891 56.5835 27.2741 55.5957 28.4837 55.5957C29.6933 55.5957 30.6784 56.5835 30.6784 57.7963Z" fill="url(#paint2_linear_739_7359)"/>
<path d="M46.2792 41.3901C46.2792 42.6076 45.2941 43.5907 44.0845 43.5907C42.875 43.5907 41.8899 42.603 41.8899 41.3901C41.8899 40.1772 42.875 39.1895 44.0845 39.1895C45.2941 39.1895 46.2792 40.1772 46.2792 41.3901Z" fill="url(#paint3_linear_739_7359)"/>
<path d="M46.2792 49.5913C46.2792 50.8087 45.2941 51.7965 44.0845 51.7965C42.875 51.7965 41.8899 50.8087 41.8899 49.5913C41.8899 48.3738 42.875 47.3906 44.0845 47.3906C45.2941 47.3906 46.2792 48.3784 46.2792 49.5913Z" fill="url(#paint4_linear_739_7359)"/>
<path d="M46.2792 57.7963C46.2792 59.0138 45.2941 59.997 44.0845 59.997C42.875 59.997 41.8899 59.0092 41.8899 57.7963C41.8899 56.5835 42.875 55.5957 44.0845 55.5957C45.2941 55.5957 46.2792 56.5835 46.2792 57.7963Z" fill="url(#paint5_linear_739_7359)"/>
<path d="M61.8847 41.3901C61.8847 42.6076 60.8996 43.5907 59.69 43.5907C58.4804 43.5907 57.4954 42.603 57.4954 41.3901C57.4954 40.1772 58.4804 39.1895 59.69 39.1895C60.8996 39.1895 61.8847 40.1772 61.8847 41.3901Z" fill="url(#paint6_linear_739_7359)"/>
<path d="M61.8847 49.5913C61.8847 50.8087 60.8996 51.7965 59.69 51.7965C58.4804 51.7965 57.4954 50.8087 57.4954 49.5913C57.4954 48.3738 58.4804 47.3906 59.69 47.3906C60.8996 47.3906 61.8847 48.3784 61.8847 49.5913Z" fill="url(#paint7_linear_739_7359)"/>
<path d="M61.8847 57.7963C61.8847 59.0138 60.8996 59.997 59.69 59.997C58.4804 59.997 57.4954 59.0092 57.4954 57.7963C57.4954 56.5835 58.4804 55.5957 59.69 55.5957C60.8996 55.5957 61.8847 56.5835 61.8847 57.7963Z" fill="url(#paint8_linear_739_7359)"/>
</g>
<path d="M81.4703 74.1057H56.8882V51.8862L69.1793 41.29L81.4703 51.8862V74.1057Z" fill="url(#paint9_linear_739_7359)"/>
<path d="M82.3588 54.7916C81.8653 54.7916 81.3662 54.6214 80.9635 54.2695L69.1829 44.116L57.4023 54.2695C56.3984 55.1378 54.8102 54.9051 54.1239 53.6735C53.6248 52.7825 53.8743 51.6474 54.6514 50.9834L67.3565 40.0297C68.4058 39.1216 69.9599 39.1216 71.0093 40.0297L83.6747 50.9436C84.5652 51.7098 84.7694 53.0719 84.0263 53.9857C83.6009 54.5135 82.9827 54.7859 82.3588 54.7859V54.7916Z" fill="url(#paint10_linear_739_7359)"/>
<path d="M66.9724 63.3789H71.3966C72.5139 63.3789 73.4214 64.287 73.4214 65.4051V74.0999H64.9419V65.4051C64.9419 64.287 65.8494 63.3789 66.9668 63.3789H66.9724Z" fill="white"/>
<path d="M69.1738 58.2871C71.1035 58.2871 72.6678 56.7219 72.6678 54.791C72.6678 52.8602 71.1035 51.2949 69.1738 51.2949C67.2442 51.2949 65.6799 52.8602 65.6799 54.791C65.6799 56.7219 67.2442 58.2871 69.1738 58.2871Z" fill="white"/>
<defs>
<linearGradient id="paint0_linear_739_7359" x1="26.2845" y1="41.3901" x2="30.6784" y2="41.3901" gradientUnits="userSpaceOnUse">
<stop stop-color="#3E6EF8"/>
<stop offset="1" stop-color="#8CDAFB"/>
</linearGradient>
<linearGradient id="paint1_linear_739_7359" x1="26.2845" y1="49.5936" x2="30.6784" y2="49.5936" gradientUnits="userSpaceOnUse">
<stop stop-color="#3E6EF8"/>
<stop offset="1" stop-color="#8CDAFB"/>
</linearGradient>
<linearGradient id="paint2_linear_739_7359" x1="26.2845" y1="57.7963" x2="30.6784" y2="57.7963" gradientUnits="userSpaceOnUse">
<stop stop-color="#3E6EF8"/>
<stop offset="1" stop-color="#8CDAFB"/>
</linearGradient>
<linearGradient id="paint3_linear_739_7359" x1="41.8853" y1="22.9994" x2="46.2792" y2="22.9994" gradientUnits="userSpaceOnUse">
<stop stop-color="#3E6EF8"/>
<stop offset="1" stop-color="#8CDAFB"/>
</linearGradient>
<linearGradient id="paint4_linear_739_7359" x1="41.8853" y1="49.5913" x2="46.2792" y2="49.5913" gradientUnits="userSpaceOnUse">
<stop stop-color="#3E6EF8"/>
<stop offset="1" stop-color="#8CDAFB"/>
</linearGradient>
<linearGradient id="paint5_linear_739_7359" x1="41.8853" y1="57.7963" x2="46.2792" y2="57.7963" gradientUnits="userSpaceOnUse">
<stop stop-color="#3E6EF8"/>
<stop offset="1" stop-color="#8CDAFB"/>
</linearGradient>
<linearGradient id="paint6_linear_739_7359" x1="57.4908" y1="22.9994" x2="61.8847" y2="22.9994" gradientUnits="userSpaceOnUse">
<stop stop-color="#3E6EF8"/>
<stop offset="1" stop-color="#8CDAFB"/>
</linearGradient>
<linearGradient id="paint7_linear_739_7359" x1="57.4908" y1="49.5913" x2="61.8847" y2="49.5913" gradientUnits="userSpaceOnUse">
<stop stop-color="#3E6EF8"/>
<stop offset="1" stop-color="#8CDAFB"/>
</linearGradient>
<linearGradient id="paint8_linear_739_7359" x1="57.4908" y1="57.7963" x2="61.8847" y2="57.7963" gradientUnits="userSpaceOnUse">
<stop stop-color="#3E6EF8"/>
<stop offset="1" stop-color="#8CDAFB"/>
</linearGradient>
<linearGradient id="paint9_linear_739_7359" x1="56.8882" y1="57.6979" x2="81.4703" y2="57.6979" gradientUnits="userSpaceOnUse">
<stop stop-color="#5FABEC"/>
<stop offset="0.29" stop-color="#67BBF4"/>
<stop offset="0.65" stop-color="#6DC7FA"/>
<stop offset="1" stop-color="#6FCBFC"/>
</linearGradient>
<linearGradient id="paint10_linear_739_7359" x1="68.8435" y1="47.821" x2="68.1899" y2="28.2316" gradientUnits="userSpaceOnUse">
<stop stop-color="#008BF3"/>
<stop offset="0.854167" stop-color="#0750DE"/>
</linearGradient>
<clipPath id="clip0_739_7359">
<rect width="69.9358" height="53.5872" fill="white" transform="translate(3 23)"/>
</clipPath>
</defs>
</svg>
