<svg width="100" height="100" viewBox="0 0 100 100" fill="none" xmlns="http://www.w3.org/2000/svg">
<circle cx="50" cy="50" r="50" fill="#F8FAFF"/>
<path d="M26.3993 28H54.092C55.9739 28 57.4913 29.517 57.4913 31.3783V68.6217C57.4913 70.483 55.9739 72 54.092 72H26.3993C24.5174 72 23 70.483 23 68.6217V31.3783C23 29.517 24.5174 28 26.3993 28Z" fill="white" stroke="#D3ECFE" stroke-width="2"/>
<path opacity="0.5" d="M51.4547 35.3789H29.0423C28.701 35.3789 28.4243 35.6543 28.4243 35.9939V36C28.4243 36.3397 28.701 36.6151 29.0423 36.6151H51.4547C51.796 36.6151 52.0727 36.3397 52.0727 36V35.9939C52.0727 35.6543 51.796 35.3789 51.4547 35.3789Z" fill="#A89F9D"/>
<path opacity="0.5" d="M51.4547 42.5098H29.0423C28.701 42.5098 28.4243 42.7851 28.4243 43.1248V43.1309C28.4243 43.4706 28.701 43.7459 29.0423 43.7459H51.4547C51.796 43.7459 52.0727 43.4706 52.0727 43.1309V43.1248C52.0727 42.7851 51.796 42.5098 51.4547 42.5098Z" fill="#A89F9D"/>
<path opacity="0.5" d="M51.4547 49.6406H29.0423C28.701 49.6406 28.4243 49.916 28.4243 50.2557V50.2618C28.4243 50.6014 28.701 50.8768 29.0423 50.8768H51.4547C51.796 50.8768 52.0727 50.6014 52.0727 50.2618V50.2557C52.0727 49.916 51.796 49.6406 51.4547 49.6406Z" fill="#A89F9D"/>
<path opacity="0.5" d="M51.4547 56.7715H29.0423C28.701 56.7715 28.4243 57.0468 28.4243 57.3865V57.3926C28.4243 57.7323 28.701 58.0076 29.0423 58.0076H51.4547C51.796 58.0076 52.0727 57.7323 52.0727 57.3926V57.3865C52.0727 57.0468 51.796 56.7715 51.4547 56.7715Z" fill="#A89F9D"/>
<path opacity="0.5" d="M51.4547 63.9023H29.0423C28.701 63.9023 28.4243 64.1777 28.4243 64.5174V64.5235C28.4243 64.8631 28.701 65.1385 29.0423 65.1385H51.4547C51.796 65.1385 52.0727 64.8631 52.0727 64.5235V64.5174C52.0727 64.1777 51.796 63.9023 51.4547 63.9023Z" fill="#A89F9D"/>
<path opacity="0.5" d="M58.491 54.5605V66.4107L53.5962 67.9635L46.9758 68.1036L43.1395 68.1827C42.5302 68.1949 41.9333 68.0109 41.4377 67.6579C40.9421 67.305 40.5744 66.8021 40.3893 66.2243C40.2043 65.6464 40.2118 65.0245 40.4108 64.4513C40.6098 63.878 40.9896 63.3841 41.4936 63.0432L44.6753 60.8997L50.182 57.2034L58.491 54.5605Z" fill="#A89F9D"/>
<path d="M72.491 44.0793L64.4653 36.0918L45.5888 54.8785L53.6145 62.866L72.491 44.0793Z" fill="#007BD8"/>
<path d="M72.2861 32.4671L76.1323 36.295C76.6865 36.8466 76.9979 37.5947 76.9979 38.3748C76.9979 39.1548 76.6865 39.903 76.1323 40.4545L74.4407 42.1382L66.4193 34.155L68.111 32.4714C68.6645 31.9205 69.4149 31.6107 70.1976 31.6099C70.9804 31.6091 71.7314 31.9174 72.2861 32.4671V32.4671Z" fill="#FABE2C"/>
<path d="M74.4422 42.1369L66.4165 34.1494L64.4696 36.0871L72.4952 44.0746L74.4422 42.1369Z" fill="#F1F1F1"/>
<path d="M53.6148 62.8673L47.7961 66.0156L44.4247 67.8424C43.8892 68.1325 43.2738 68.2425 42.6703 68.156C42.0668 68.0695 41.5076 67.791 41.0761 67.3623C40.6447 66.9336 40.364 66.3775 40.2761 65.777C40.1882 65.1765 40.2977 64.5639 40.5884 64.0304L42.4239 60.669L45.5811 54.8779L53.6148 62.8673Z" fill="#FFC9C9"/>
<path d="M47.7961 66.0155L44.4247 67.8424C43.8892 68.1324 43.2738 68.2424 42.6703 68.1559C42.0668 68.0694 41.5076 67.791 41.0761 67.3622C40.6447 66.9335 40.364 66.3774 40.2761 65.7769C40.1882 65.1765 40.2977 64.5638 40.5884 64.0303L42.4239 60.6689L47.7961 66.0155Z" fill="#875B52"/>
<circle cx="50" cy="50" r="50" fill="#F8FAFF"/>
<path d="M26.3993 28H54.092C55.9739 28 57.4913 29.517 57.4913 31.3783V68.6217C57.4913 70.483 55.9739 72 54.092 72H26.3993C24.5174 72 23 70.483 23 68.6217V31.3783C23 29.517 24.5174 28 26.3993 28Z" fill="white" stroke="#D3ECFE" stroke-width="2"/>
<path opacity="0.5" d="M51.4547 35.3789H29.0423C28.701 35.3789 28.4243 35.6543 28.4243 35.9939V36C28.4243 36.3397 28.701 36.6151 29.0423 36.6151H51.4547C51.796 36.6151 52.0727 36.3397 52.0727 36V35.9939C52.0727 35.6543 51.796 35.3789 51.4547 35.3789Z" fill="#A89F9D"/>
<path opacity="0.5" d="M51.4547 42.5098H29.0423C28.701 42.5098 28.4243 42.7851 28.4243 43.1248V43.1309C28.4243 43.4706 28.701 43.7459 29.0423 43.7459H51.4547C51.796 43.7459 52.0727 43.4706 52.0727 43.1309V43.1248C52.0727 42.7851 51.796 42.5098 51.4547 42.5098Z" fill="#A89F9D"/>
<path opacity="0.5" d="M51.4547 49.6406H29.0423C28.701 49.6406 28.4243 49.916 28.4243 50.2557V50.2618C28.4243 50.6014 28.701 50.8768 29.0423 50.8768H51.4547C51.796 50.8768 52.0727 50.6014 52.0727 50.2618V50.2557C52.0727 49.916 51.796 49.6406 51.4547 49.6406Z" fill="#A89F9D"/>
<path opacity="0.5" d="M51.4547 56.7715H29.0423C28.701 56.7715 28.4243 57.0468 28.4243 57.3865V57.3926C28.4243 57.7323 28.701 58.0076 29.0423 58.0076H51.4547C51.796 58.0076 52.0727 57.7323 52.0727 57.3926V57.3865C52.0727 57.0468 51.796 56.7715 51.4547 56.7715Z" fill="#A89F9D"/>
<path opacity="0.5" d="M51.4547 63.9023H29.0423C28.701 63.9023 28.4243 64.1777 28.4243 64.5174V64.5235C28.4243 64.8631 28.701 65.1385 29.0423 65.1385H51.4547C51.796 65.1385 52.0727 64.8631 52.0727 64.5235V64.5174C52.0727 64.1777 51.796 63.9023 51.4547 63.9023Z" fill="#A89F9D"/>
<path opacity="0.5" d="M58.491 54.5605V66.4107L53.5962 67.9635L46.9758 68.1036L43.1395 68.1827C42.5302 68.1949 41.9333 68.0109 41.4377 67.6579C40.9421 67.305 40.5744 66.8021 40.3893 66.2243C40.2043 65.6464 40.2118 65.0245 40.4108 64.4513C40.6098 63.878 40.9896 63.3841 41.4936 63.0432L44.6753 60.8997L50.182 57.2034L58.491 54.5605Z" fill="#A89F9D"/>
<path d="M72.491 44.0793L64.4653 36.0918L45.5888 54.8785L53.6145 62.866L72.491 44.0793Z" fill="#007BD8"/>
<path d="M72.2861 32.4671L76.1323 36.295C76.6865 36.8466 76.9979 37.5947 76.9979 38.3748C76.9979 39.1548 76.6865 39.903 76.1323 40.4545L74.4407 42.1382L66.4193 34.155L68.111 32.4714C68.6645 31.9205 69.4149 31.6107 70.1976 31.6099C70.9804 31.6091 71.7314 31.9174 72.2861 32.4671V32.4671Z" fill="#FABE2C"/>
<path d="M74.4422 42.1369L66.4165 34.1494L64.4696 36.0871L72.4952 44.0746L74.4422 42.1369Z" fill="#F1F1F1"/>
<path d="M53.6148 62.8673L47.7961 66.0156L44.4247 67.8424C43.8892 68.1325 43.2738 68.2425 42.6703 68.156C42.0668 68.0695 41.5076 67.791 41.0761 67.3623C40.6447 66.9336 40.364 66.3775 40.2761 65.777C40.1882 65.1765 40.2977 64.5639 40.5884 64.0304L42.4239 60.669L45.5811 54.8779L53.6148 62.8673Z" fill="#FFC9C9"/>
<path d="M47.7961 66.0155L44.4247 67.8424C43.8892 68.1324 43.2738 68.2424 42.6703 68.1559C42.0668 68.0694 41.5076 67.791 41.0761 67.3622C40.6447 66.9335 40.364 66.3774 40.2761 65.7769C40.1882 65.1765 40.2977 64.5638 40.5884 64.0303L42.4239 60.6689L47.7961 66.0155Z" fill="#875B52"/>
</svg>
