<svg width="100" height="100" viewBox="0 0 100 100" fill="none" xmlns="http://www.w3.org/2000/svg">
<circle cx="50" cy="50" r="50" fill="#F8FAFF"/>
<g clip-path="url(#clip0_803_1286)">
<path d="M75 76.5911V26.3497C75 24.4668 73.4768 22.9404 71.5978 22.9404L31.8834 22.9404C30.0044 22.9404 28.4812 24.4668 28.4812 26.3497V76.5911C28.4812 78.474 30.0044 80.0004 31.8834 80.0004H71.5978C73.4768 80.0004 75 78.474 75 76.5911Z" fill="#BAE2FF"/>
<path d="M75 74.637V24.3956C75 22.5127 73.4768 20.9863 71.5978 20.9863L31.8834 20.9863C30.0044 20.9863 28.4812 22.5127 28.4812 24.3956V74.637C28.4812 76.5199 30.0044 78.0463 31.8834 78.0463H71.5978C73.4768 78.0463 75 76.5199 75 74.637Z" fill="#D3ECFE"/>
<path d="M70.1059 25.8965H33.375V73.1416H59.8796L70.1059 62.9005V25.8965Z" fill="white"/>
<g style="mix-blend-mode:multiply" opacity="0.4">
<path d="M70.1062 62.9014L59.8799 73.1424V62.9014H70.1062Z" fill="#A6A6A6"/>
</g>
<path d="M57.8907 31.8174H45.5839C45.0888 31.8174 44.6875 32.2195 44.6875 32.7156V32.7222C44.6875 33.2182 45.0888 33.6204 45.5839 33.6204H57.8907C58.3858 33.6204 58.7871 33.2182 58.7871 32.7222V32.7156C58.7871 32.2195 58.3858 31.8174 57.8907 31.8174Z" fill="#E6E2E2"/>
<g style="mix-blend-mode:multiply" opacity="0.2">
<path d="M64.9832 37.4688H38.4917C38.1123 37.4688 37.8047 37.777 37.8047 38.1572C37.8047 38.5374 38.1123 38.8456 38.4917 38.8456H64.9832C65.3626 38.8456 65.6702 38.5374 65.6702 38.1572C65.6702 37.777 65.3626 37.4688 64.9832 37.4688Z" fill="#806D6D"/>
</g>
<g style="mix-blend-mode:multiply" opacity="0.2">
<path d="M64.9832 42.7012H38.4917C38.1123 42.7012 37.8047 43.0094 37.8047 43.3896C37.8047 43.7698 38.1123 44.078 38.4917 44.078H64.9832C65.3626 44.078 65.6702 43.7698 65.6702 43.3896C65.6702 43.0094 65.3626 42.7012 64.9832 42.7012Z" fill="#806D6D"/>
</g>
<g style="mix-blend-mode:multiply" opacity="0.2">
<path d="M64.9832 47.9395H38.4917C38.1123 47.9395 37.8047 48.2477 37.8047 48.6279C37.8047 49.0081 38.1123 49.3163 38.4917 49.3163H64.9832C65.3626 49.3163 65.6702 49.0081 65.6702 48.6279C65.6702 48.2477 65.3626 47.9395 64.9832 47.9395Z" fill="#806D6D"/>
</g>
<g style="mix-blend-mode:multiply" opacity="0.2">
<path d="M64.9832 53.1719H38.4917C38.1123 53.1719 37.8047 53.4801 37.8047 53.8603C37.8047 54.2405 38.1123 54.5487 38.4917 54.5487H64.9832C65.3626 54.5487 65.6702 54.2405 65.6702 53.8603C65.6702 53.4801 65.3626 53.1719 64.9832 53.1719Z" fill="#806D6D"/>
</g>
<g style="mix-blend-mode:multiply" opacity="0.2">
<path d="M64.9832 58.4033H38.4917C38.1123 58.4033 37.8047 58.7115 37.8047 59.0917C37.8047 59.4719 38.1123 59.7802 38.4917 59.7802H64.9832C65.3626 59.7802 65.6702 59.4719 65.6702 59.0917C65.6702 58.7115 65.3626 58.4033 64.9832 58.4033Z" fill="#806D6D"/>
</g>
<g style="mix-blend-mode:multiply" opacity="0.2">
<path d="M53.2194 63.6357H38.4917C38.1123 63.6357 37.8047 63.944 37.8047 64.3242C37.8047 64.7044 38.1123 65.0126 38.4917 65.0126H53.2194C53.5988 65.0126 53.9064 64.7044 53.9064 64.3242C53.9064 63.944 53.5988 63.6357 53.2194 63.6357Z" fill="#806D6D"/>
</g>
<path d="M62.1499 19.5766H59.0552C57.8644 18.0621 55.0379 17 51.7404 17C48.4429 17 45.6164 18.0621 44.4256 19.5766H41.3309C40.6047 19.5766 40.0093 20.1667 40.0093 20.901V27.0706C40.0093 27.7983 40.5981 28.3949 41.3309 28.3949H62.1564C62.8827 28.3949 63.4781 27.8049 63.4781 27.0706V20.8945C63.4781 20.1667 62.8892 19.5701 62.1564 19.5701L62.1499 19.5766ZM51.7404 20.0094C51.289 20.0094 50.916 19.6422 50.916 19.1833C50.916 18.7243 51.2824 18.3572 51.7404 18.3572C52.1984 18.3572 52.5648 18.7243 52.5648 19.1833C52.5648 19.6422 52.1984 20.0094 51.7404 20.0094Z" fill="url(#paint0_linear_803_1286)"/>
<path d="M23.7378 48.7256C23.1948 49.2698 22.305 49.2698 21.7619 48.7256L12.9227 39.8746C12.0394 38.9895 12.0394 37.5471 12.9227 36.662L14.7547 34.8262L15.7426 35.8162L13.9107 37.652C13.5704 37.9929 13.5704 38.5436 13.9107 38.8846L23.7378 48.7322V48.7256Z" fill="url(#paint1_linear_803_1286)"/>
<path d="M12.3559 34.2258L14.1602 32.4178C14.6413 31.9356 15.4185 31.9356 15.8997 32.4178L24.5141 41.0501L20.9749 44.5967L12.3605 35.9643C11.8793 35.4822 11.8793 34.7033 12.3605 34.2212L12.3559 34.2258Z" fill="url(#paint2_linear_803_1286)"/>
<path d="M24.6045 40.9696L20.8941 44.6877C20.6999 44.8823 20.6999 45.1978 20.8941 45.3924L21.4308 45.9302C21.6249 46.1247 21.9398 46.1248 22.134 45.9302L25.8443 42.2121C26.0385 42.0175 26.0385 41.702 25.8443 41.5074L25.3077 40.9696C25.1135 40.775 24.7987 40.775 24.6045 40.9696Z" fill="url(#paint3_linear_803_1286)"/>
<path d="M25.7616 42.2886L22.2178 45.8398L38.5074 62.1633L42.0512 58.6121L25.7616 42.2886Z" fill="url(#paint4_linear_803_1286)"/>
<path d="M42.0442 58.6133L43.2873 59.859L44.851 63.2945L46.2643 66.3957L43.1761 64.9795L39.7412 63.406L38.498 62.1668L42.0442 58.6133Z" fill="url(#paint5_linear_803_1286)"/>
<path d="M44.8512 63.2939L46.2644 66.3951L43.1763 64.9789L44.8512 63.2939Z" fill="url(#paint6_linear_803_1286)"/>
</g>
<defs>
<linearGradient id="paint0_linear_803_1286" x1="51.7428" y1="32.4167" x2="51.7428" y2="11.4198" gradientUnits="userSpaceOnUse">
<stop stop-color="#74CBFC"/>
<stop offset="1" stop-color="#65AFFB"/>
</linearGradient>
<linearGradient id="paint1_linear_803_1286" x1="12.25" y1="48.3298" x2="24.6746" y2="41.2087" gradientUnits="userSpaceOnUse">
<stop stop-color="#FABE2C"/>
<stop offset="0.59" stop-color="#FABE2C"/>
<stop offset="1" stop-color="#FF9100"/>
</linearGradient>
<linearGradient id="paint2_linear_803_1286" x1="18.4254" y1="38.5717" x2="4.65977" y2="28.9712" gradientUnits="userSpaceOnUse">
<stop stop-color="#008BF3"/>
<stop offset="0.854167" stop-color="#0750DE"/>
</linearGradient>
<linearGradient id="paint3_linear_803_1286" x1="21.7087" y1="46.2166" x2="20.3925" y2="43.2009" gradientUnits="userSpaceOnUse">
<stop stop-color="#FABE2C"/>
<stop offset="0.59" stop-color="#FABE2C"/>
<stop offset="1" stop-color="#FF9100"/>
</linearGradient>
<linearGradient id="paint4_linear_803_1286" x1="32.8884" y1="53.0579" x2="8.17247" y2="39.8946" gradientUnits="userSpaceOnUse">
<stop stop-color="#008BF3"/>
<stop offset="0.854167" stop-color="#0750DE"/>
</linearGradient>
<linearGradient id="paint5_linear_803_1286" x1="38.4911" y1="65.9583" x2="45.8957" y2="60.679" gradientUnits="userSpaceOnUse">
<stop stop-color="#FABE2C"/>
<stop offset="0.59" stop-color="#FABE2C"/>
<stop offset="1" stop-color="#FF9100"/>
</linearGradient>
<linearGradient id="paint6_linear_803_1286" x1="44.6871" y1="64.9953" x2="44.4267" y2="61.0744" gradientUnits="userSpaceOnUse">
<stop stop-color="#008BF3"/>
<stop offset="0.854167" stop-color="#0750DE"/>
</linearGradient>
<clipPath id="clip0_803_1286">
<rect width="63" height="63" fill="white" transform="translate(12 17)"/>
</clipPath>
</defs>
</svg>
