<svg width="80" height="80" viewBox="0 0 80 80" fill="none" xmlns="http://www.w3.org/2000/svg">
<circle cx="40" cy="40" r="40" fill="#F8FAFF"/>
<g clip-path="url(#clip0_799_1126)">
<path d="M28.3333 26.6665H35L38.3333 34.9998L34.1667 37.4998C35.9516 41.1191 38.8808 44.0482 42.5 45.8332L45 41.6665L53.3333 44.9998V51.6665C53.3333 52.5506 52.9821 53.3984 52.357 54.0235C51.7319 54.6486 50.8841 54.9998 50 54.9998C43.4988 54.6048 37.3669 51.844 32.7614 47.2385C28.1558 42.6329 25.3951 36.5011 25 29.9998C25 29.1158 25.3512 28.2679 25.9763 27.6428C26.6014 27.0177 27.4493 26.6665 28.3333 26.6665" stroke="#2062D1" stroke-width="2.5" stroke-linecap="round" stroke-linejoin="round"/>
</g>
<defs>
<clipPath id="clip0_799_1126">
<rect width="40" height="40" fill="white" transform="translate(20 20)"/>
</clipPath>
</defs>
</svg>
