<svg width="58" height="58" viewBox="0 0 58 58" fill="none" xmlns="http://www.w3.org/2000/svg">
<circle cx="29" cy="29" r="28.5" stroke="#DDDDDD"/>
<path d="M29 37H38" stroke="#EC1A5B" stroke-width="2" stroke-linecap="round" stroke-linejoin="round"/>
<path d="M29 37H38" stroke="url(#paint0_linear)" stroke-width="2" stroke-linecap="round" stroke-linejoin="round"/>
<path d="M33.5 20.5C33.8978 20.1022 34.4374 19.8787 35 19.8787C35.2786 19.8787 35.5544 19.9336 35.8118 20.0402C36.0692 20.1468 36.303 20.303 36.5 20.5C36.697 20.697 36.8532 20.9308 36.9598 21.1882C37.0665 21.4456 37.1213 21.7214 37.1213 22C37.1213 22.2786 37.0665 22.5544 36.9598 22.8118C36.8532 23.0692 36.697 23.303 36.5 23.5L24 36L20 37L21 33L33.5 20.5Z" stroke="#EC1A5B" stroke-width="2" stroke-linecap="round" stroke-linejoin="round"/>
<path d="M33.5 20.5C33.8978 20.1022 34.4374 19.8787 35 19.8787C35.2786 19.8787 35.5544 19.9336 35.8118 20.0402C36.0692 20.1468 36.303 20.303 36.5 20.5C36.697 20.697 36.8532 20.9308 36.9598 21.1882C37.0665 21.4456 37.1213 21.7214 37.1213 22C37.1213 22.2786 37.0665 22.5544 36.9598 22.8118C36.8532 23.0692 36.697 23.303 36.5 23.5L24 36L20 37L21 33L33.5 20.5Z" stroke="url(#paint1_linear)" stroke-width="2" stroke-linecap="round" stroke-linejoin="round"/>
<defs>
<linearGradient id="paint0_linear" x1="29" y1="38" x2="38" y2="38" gradientUnits="userSpaceOnUse">
<stop stop-color="#D9676C"/>
<stop offset="1" stop-color="#EC1A5B"/>
</linearGradient>
<linearGradient id="paint1_linear" x1="20" y1="37" x2="37.1213" y2="37" gradientUnits="userSpaceOnUse">
<stop stop-color="#D9676C"/>
<stop offset="1" stop-color="#EC1A5B"/>
</linearGradient>
</defs>
</svg>
