<svg width="240" height="191" viewBox="0 0 240 191" fill="none" xmlns="http://www.w3.org/2000/svg">
<g clip-path="url(#clip0_814_1747)">
<path opacity="0.3" d="M224.901 130.378L145.847 84.8398C143.389 83.431 139.365 83.431 136.897 84.8398L104.402 103.572C101.938 104.986 101.938 107.309 104.402 108.727L110 111.944L110.641 112.305L92.9258 122.518C91.8477 123.134 91.8477 124.15 92.9258 124.78L113.939 136.88C115.008 137.502 116.78 137.502 117.856 136.88L135.575 126.669L151.701 135.953L133.979 146.164C132.901 146.78 132.901 147.803 133.979 148.423L154.988 160.519C156.071 161.148 157.84 161.148 158.916 160.519L176.637 150.315L183.447 154.235C185.912 155.658 189.941 155.658 192.401 154.235L224.901 135.533C227.366 134.115 227.366 131.794 224.901 130.378Z" fill="#C9D1E7"/>
<path d="M106.234 109.776L104.398 108.717V65.2355L145.848 41.3574L147.688 42.4123L106.234 109.776Z" fill="#E8E8E8"/>
<path d="M147.688 85.8982L106.234 109.776V66.297L147.688 42.4121V85.8982Z" fill="#B7B7B7"/>
<path d="M129.385 104.917L123.691 109.677C123.691 109.677 122.186 113.473 122.689 114.519C123.191 115.565 124.704 115.987 126.029 115.751C126.685 115.631 127.607 114.172 129.024 112.713C130.44 111.253 132.359 109.769 133.564 108.792C134.702 107.845 135.073 105.574 133.629 104.745C132.184 103.915 129.385 104.917 129.385 104.917Z" fill="#F5F6F6"/>
<path d="M126.742 91.6834C126.742 91.6834 124.874 94.2252 124.542 96.9692C124.21 99.7132 123.821 107.18 123.688 109.667C128.525 112.751 129.87 107.968 129.87 107.968C129.87 107.968 129.896 99.1731 132.738 91.6742C132.448 90.8331 126.742 91.6834 126.742 91.6834Z" fill="#0D8175"/>
<path d="M145.808 109.721C144.587 109.512 141.949 110.344 139.252 110.594C136.554 110.845 131.005 113.377 131.005 113.377C131.005 113.377 130.063 115.905 130.155 117.399C130.247 118.893 131.187 119.773 132.905 120.198C134.624 120.623 137.766 118.279 137.766 118.279C138.849 118.279 150.028 114.866 148.471 112.173C148.077 111.474 147.008 109.921 145.808 109.721Z" fill="#F5F6F6"/>
<path d="M95.3139 123.589C95.5332 123.588 95.744 123.505 95.9045 123.356C96.0649 123.207 96.1633 123.003 96.1801 122.785L98.1336 97.0456C98.3409 94.9588 99.9765 92.3343 101.706 91.3392L114.335 84.0792C115.056 83.6656 115.759 83.5668 116.252 83.8196C116.687 84.0494 116.966 84.532 117.039 85.1985L120.47 107.877C120.485 107.99 120.523 108.098 120.582 108.196C120.64 108.294 120.717 108.379 120.808 108.447C120.9 108.515 121.004 108.565 121.115 108.592C121.225 108.62 121.34 108.625 121.453 108.608C121.68 108.571 121.884 108.447 122.02 108.262C122.157 108.078 122.214 107.847 122.181 107.619L118.765 84.9847C118.624 83.7391 118.009 82.767 117.035 82.2775C116.007 81.7581 114.706 81.8707 113.473 82.5831L100.836 89.8477C98.615 91.1186 96.6685 94.2257 96.4058 96.8938L94.4478 122.666C94.4306 122.894 94.5047 123.12 94.654 123.295C94.8033 123.469 95.0157 123.578 95.2448 123.596L95.3139 123.589Z" fill="#010101"/>
<path d="M116.885 135.867C117.103 135.867 117.313 135.785 117.473 135.637C117.633 135.489 117.73 135.286 117.746 135.069L119.7 109.329C119.907 107.243 121.543 104.618 123.277 103.628L135.903 96.3678C136.629 95.9472 137.329 95.8461 137.825 96.1058C138.26 96.3195 138.536 96.8136 138.617 97.4847L142.033 120.161C142.046 120.277 142.082 120.389 142.139 120.491C142.197 120.593 142.274 120.682 142.367 120.753C142.459 120.825 142.565 120.876 142.679 120.906C142.792 120.935 142.91 120.941 143.026 120.924C143.142 120.906 143.253 120.866 143.352 120.805C143.452 120.743 143.538 120.663 143.606 120.567C143.673 120.472 143.721 120.364 143.746 120.25C143.77 120.136 143.772 120.018 143.75 119.903L140.336 97.2572C140.197 96.0231 139.578 95.0509 138.61 94.5614C137.578 94.0443 136.281 94.1501 135.039 94.8625L122.406 102.127C120.183 103.402 118.237 106.507 117.972 109.182L116.018 134.947C116.009 135.06 116.023 135.173 116.058 135.28C116.093 135.388 116.149 135.487 116.223 135.573C116.297 135.658 116.387 135.728 116.489 135.779C116.59 135.829 116.7 135.859 116.813 135.867C116.837 135.869 116.861 135.869 116.885 135.867V135.867Z" fill="#010101"/>
<path d="M111.499 78.4568L91.5312 89.9982V92.5423C91.5312 92.5423 112.513 109.592 116.641 108.037C117.486 107.738 131.654 99.6436 131.654 99.6436L144.245 93.3421L117.537 77.8891C115.998 76.9837 113.856 77.0986 111.499 78.4568Z" fill="#2B3B79"/>
<path d="M118.196 118.574C118.386 118.572 118.569 118.509 118.719 118.393C118.868 118.277 118.976 118.116 119.025 117.933C119.073 117.751 119.061 117.557 118.989 117.382C118.918 117.208 118.79 117.061 118.627 116.965L97.1781 104.608C96.9775 104.497 96.7412 104.469 96.5198 104.529C96.2985 104.59 96.1098 104.734 95.9941 104.932C95.9361 105.031 95.8983 105.14 95.8829 105.253C95.8675 105.366 95.8747 105.481 95.9043 105.591C95.9339 105.702 95.9852 105.805 96.0552 105.896C96.1251 105.986 96.2124 106.062 96.312 106.118L117.759 118.466C117.893 118.538 118.044 118.575 118.196 118.574Z" fill="#010101"/>
<path d="M113.454 105.994C114.813 106.654 116.608 106.541 118.437 105.489L138.405 93.9494C141.038 92.4372 143.357 92.513 144.917 93.7954C144.917 93.7954 145.958 94.7698 144.24 96.0729C143.597 96.5578 141.595 95.6983 141.595 95.6983C140.674 95.5903 139.575 95.8155 138.405 96.498L118.437 108.039C116.216 109.315 114.081 109.554 112.383 108.924L113.454 105.994Z" fill="#14204F"/>
<path d="M220.765 115.004L218.908 116.072L142.414 56.6276L144.264 55.5566L220.765 99.6195V115.004Z" fill="#D6C995"/>
<path d="M218.908 116.07L142.414 72.0067V56.625L218.908 100.688V116.07Z" fill="#E8E8E8"/>
<path d="M136.372 147.238C136.591 147.24 136.801 147.158 136.962 147.01C137.122 146.862 137.219 146.658 137.234 146.441L139.192 120.701C139.394 118.617 141.035 115.986 142.765 114.997L155.389 107.735C156.112 107.317 156.815 107.223 157.31 107.475C157.75 107.705 158.022 108.186 158.1 108.854L161.525 131.53C161.538 131.646 161.573 131.759 161.63 131.861C161.687 131.963 161.764 132.053 161.856 132.124C161.949 132.196 162.055 132.248 162.168 132.277C162.281 132.307 162.399 132.313 162.515 132.296C162.631 132.278 162.742 132.238 162.841 132.177C162.941 132.116 163.027 132.035 163.095 131.939C163.162 131.844 163.21 131.736 163.234 131.622C163.258 131.508 163.26 131.39 163.237 131.275L159.821 108.629C159.687 107.383 159.072 106.409 158.095 105.922C157.063 105.402 155.759 105.515 154.525 106.23L141.899 113.494C139.673 114.765 137.724 117.861 137.462 120.543L135.517 146.303C135.503 146.529 135.577 146.751 135.724 146.923C135.871 147.094 136.08 147.202 136.305 147.222L136.372 147.238Z" fill="#010101"/>
<path d="M157.933 159.514C158.151 159.516 158.362 159.435 158.522 159.287C158.682 159.139 158.779 158.936 158.794 158.719L160.759 132.979C160.955 130.89 162.602 128.268 164.325 127.277L176.956 120.015C177.686 119.594 178.375 119.496 178.877 119.751C179.306 119.981 179.584 120.461 179.66 121.13L183.081 143.803C183.116 144.03 183.239 144.233 183.423 144.37C183.607 144.507 183.838 144.566 184.065 144.534C184.178 144.518 184.287 144.479 184.385 144.421C184.483 144.362 184.569 144.285 184.636 144.193C184.704 144.102 184.753 143.997 184.781 143.887C184.808 143.776 184.813 143.661 184.795 143.548L181.384 120.904C181.248 119.668 180.626 118.694 179.658 118.206C178.624 117.689 177.336 117.793 176.087 118.512L163.457 125.772C161.241 127.047 159.292 130.152 159.022 132.827L157.064 158.59C157.05 158.818 157.127 159.043 157.278 159.215C157.429 159.387 157.642 159.493 157.87 159.509L157.933 159.514Z" fill="#010101"/>
<path d="M152.565 102.105L132.602 113.644V116.193C132.602 116.193 153.576 133.243 157.69 131.685C158.538 131.386 172.708 123.294 172.708 123.294L185.306 116.995L158.598 101.54C157.057 100.63 154.919 100.749 152.565 102.105Z" fill="#2B3B79"/>
<path d="M159.239 142.222C159.391 142.224 159.54 142.185 159.672 142.11C159.804 142.034 159.913 141.925 159.987 141.793C160.102 141.594 160.134 141.358 160.075 141.136C160.017 140.914 159.874 140.724 159.676 140.607L138.218 128.252C138.018 128.137 137.78 128.107 137.557 128.167C137.334 128.227 137.144 128.374 137.029 128.574C136.915 128.773 136.884 129.011 136.944 129.233C137.005 129.455 137.151 129.645 137.352 129.759L158.808 142.107C158.94 142.181 159.088 142.221 159.239 142.222V142.222Z" fill="#010101"/>
<path d="M167.57 99.9199L174.951 100.131L168.084 102.014L167.57 99.9199Z" fill="#303133"/>
<path d="M154.233 129.491C155.615 130.311 157.534 130.265 159.479 129.137L179.453 117.595C182.084 116.083 184.406 116.161 185.968 117.439C185.968 117.439 187.014 118.42 185.298 119.719C184.643 120.206 182.651 119.346 182.651 119.346C181.713 119.238 180.621 119.466 179.453 120.146L159.469 131.685C157.011 133.106 154.632 133.248 152.867 132.322L154.233 129.491Z" fill="#14204F"/>
<path d="M183.443 154.246L181.609 153.193L181.612 109.707L223.068 85.834L224.902 86.8865L183.443 154.246Z" fill="#E8E8E8"/>
<path d="M224.904 130.38L183.445 154.246V110.765L224.904 86.8867V130.38Z" fill="#B7B7B7"/>
<path d="M225.904 87.6532C225.606 87.3537 225.269 87.0955 224.902 86.8856L145.848 41.3564C143.39 39.9385 139.366 39.9385 136.899 41.3564L104.399 60.0728C104.034 60.2833 103.696 60.5389 103.395 60.8335H102.547L102.563 62.7662C102.609 63.6671 103.22 64.5519 104.406 65.2345L183.453 110.764C185.918 112.186 189.947 112.186 192.407 110.764L224.897 92.045C226.111 91.3441 226.729 90.4248 226.74 89.5009V87.6624L225.904 87.6532Z" fill="#AEADAE"/>
<path d="M192.397 108.965C189.936 110.381 185.907 110.381 183.442 108.965L104.396 63.4316C101.931 62.009 101.931 59.6901 104.396 58.2721L136.895 39.5535C139.362 38.1332 143.387 38.1332 145.845 39.5535L224.894 85.0849C227.354 86.5052 227.354 88.8218 224.894 90.242L192.397 108.965Z" fill="#E8E8E8"/>
<path d="M151.331 46.1644L138.617 53.4932V53.1094L151.331 45.7852V46.1644Z" fill="#3C78B6"/>
<path d="M138.619 53.4937L128.914 47.9046V47.5254L138.619 53.11V53.4937Z" fill="#2B65A0"/>
<path d="M151.333 45.7864L138.619 53.1107L128.914 47.5261L141.644 40.1973L151.333 45.7864Z" fill="#F2F9FD"/>
<path d="M138.62 52.7059L129.562 47.5166V44.4531L138.62 49.6378V52.7059Z" fill="#EEEEEE"/>
<path d="M150.642 45.7765L138.617 52.7055V49.6374L150.642 42.6992V45.7765Z" fill="white"/>
<path d="M151.331 43.2451L138.617 50.5717V50.1902L151.331 42.8613V43.2451Z" fill="#3C78B6"/>
<path d="M138.619 50.5735L128.914 44.9912V44.6074L138.619 50.192V50.5735Z" fill="#2B65A0"/>
<path d="M151.333 42.8619L138.619 50.1908L128.914 44.6062L141.644 37.2773L151.333 42.8619Z" fill="#568CC4"/>
<path d="M145.027 42.8821L143.935 43.5095L140.086 41.2941L141.178 40.6621L145.027 42.8821Z" fill="white"/>
<path d="M129.234 47.712L128.914 47.5258V44.9863L129.234 45.1633V47.712Z" fill="#3C78B6"/>
<path d="M129.561 47.5174L129.234 47.7127V45.1641L129.561 45.3571V47.5174Z" fill="#CEDDE6"/>
<path d="M134.346 49.0607L131.89 50.4787L131.664 49.7892L130.469 49.6582L132.936 48.2402L134.346 49.0607Z" fill="#111C47"/>
<path d="M134.346 49.2375L131.891 50.6578V50.4785L134.346 49.0605V49.2375Z" fill="#050B22"/>
<path d="M131.89 50.6578L131.664 49.9637V49.7891L131.89 50.4785V50.6578Z" fill="#111C47"/>
<path d="M131.664 49.9639L130.469 49.8398V49.6582L131.664 49.7892V49.9639Z" fill="#050B22"/>
<path opacity="0.3" d="M154.218 68.1975L141.027 75.8688L118.102 62.6612L131.292 54.9922L154.218 68.1975Z" fill="#010101"/>
<path d="M140.703 60.8696L128.422 67.9893V67.5572L140.703 60.4375V60.8696Z" fill="#515150"/>
<path d="M143.674 62.6033L131.398 69.7185V69.2818L142.986 61.7461L143.674 62.6033Z" fill="#515150"/>
<path d="M143.666 62.1657L131.39 69.2901C130.061 69.6394 128.414 67.5618 128.414 67.5618L140.697 60.4375L143.666 62.1657Z" fill="#221510"/>
<path d="M131.39 69.2849V69.7192C129.709 69.6732 128.414 67.991 128.414 67.991V67.5566C128.414 67.5566 130.105 69.6089 131.39 69.2849Z" fill="#2D2D2D"/>
<path d="M140.702 60.4358L128.422 67.5555L118.898 62.0904L131.172 54.9707L140.702 60.4358Z" fill="#5E5F5F"/>
<path d="M128.422 67.987L118.898 62.515V62.0898L128.422 67.5549V67.987Z" fill="#2D2D2D"/>
<path d="M153.196 68.0642L140.922 75.1885V74.7542L153.196 67.6367V68.0642Z" fill="#515150"/>
<path d="M153.202 67.6376L140.929 74.7551L131.398 69.2831L143.674 62.168L153.202 67.6376Z" fill="#5E5F5F"/>
<path d="M129.682 66.8024L128.862 67.2644L128.586 66.6094H129.199L129.682 66.8024Z" fill="#2B2416"/>
<path d="M141.755 61.5164L130.988 67.7076C130.933 67.6805 130.88 67.6498 130.829 67.6157L129.845 67.0527C129.324 66.7493 128.894 66.7149 128.864 67.2825L119.734 62.0335L131.167 55.4492L141.755 61.5164Z" fill="#B0B1B1"/>
<path d="M120.849 60.2668C120.603 60.1818 122.347 60.7265 122.347 60.7265L121.347 62.018H119.734C119.734 62.018 120.67 61.3102 120.849 60.2668Z" fill="#B0B1B1"/>
<path d="M152.196 67.5228L140.752 74.1071L131.8 68.9569C131.779 68.4168 131.434 68.0054 130.984 67.6952L141.752 61.5039L152.196 67.5228Z" fill="#B0B1B1"/>
<path d="M141.755 59.1166L130.313 65.7054C130.061 64.4782 120.852 60.2657 120.852 60.2657L132.294 53.6699C132.294 53.6699 141.345 57.2666 141.755 59.1166Z" fill="white"/>
<path d="M130.212 63.5623L129.864 63.7669C128.15 62.6913 125.522 61.3837 123.812 60.5632L124.158 60.3633C125.858 61.1837 128.484 62.4914 130.212 63.5623Z" fill="#BBBBBB"/>
<path d="M131.019 63.0887L130.671 63.2932C128.955 62.2222 126.326 60.9146 124.617 60.0965L124.97 59.8965C126.674 60.7169 129.305 62.0223 131.019 63.0887Z" fill="#BBBBBB"/>
<path d="M131.803 62.6352L131.455 62.8374C129.734 61.7688 127.115 60.4634 125.398 59.643L125.749 59.4453C127.453 60.2681 130.086 61.5689 131.803 62.6352Z" fill="#BBBBBB"/>
<path d="M132.576 62.1659L132.224 62.3681C130.51 61.2949 127.881 59.9872 126.172 59.1714L126.522 58.9668C128.231 59.7895 130.86 61.0995 132.576 62.1659Z" fill="#BBBBBB"/>
<path d="M133.381 61.731L133.042 61.931C131.317 60.8623 128.7 59.5546 126.977 58.7365L127.329 58.5273C129.036 59.3547 131.664 60.66 133.381 61.731Z" fill="#BBBBBB"/>
<path d="M139.346 58.3694L134.156 61.3868C132.442 60.3136 129.811 59.0082 128.102 58.1878L133.294 55.168C135.003 55.9999 137.62 57.2961 139.346 58.3694Z" fill="#E2E2E2"/>
<path d="M151.207 64.5586L139.765 71.1543C139.765 71.1543 132.995 65.8938 130.32 65.7054L141.762 59.1165C143.808 58.2179 151.207 64.5586 151.207 64.5586Z" fill="white"/>
<path d="M139.044 68.7001L138.696 68.9C136.983 67.8245 134.907 66.3422 132.977 65.5011L133.329 65.2988C135.255 66.1354 137.33 67.6338 139.044 68.7001Z" fill="#BBBBBB"/>
<path d="M139.894 68.2157L139.548 68.4111C137.832 67.3378 135.759 65.8532 133.828 65.0121L134.174 64.8145C136.102 65.6533 138.177 67.1425 139.894 68.2157Z" fill="#BBBBBB"/>
<path d="M140.722 67.722L140.378 67.9196C138.662 66.8464 136.584 65.3595 134.656 64.5206L135.004 64.3184C136.932 65.1664 139.008 66.6556 140.722 67.722Z" fill="#BBBBBB"/>
<path d="M141.522 67.2763L141.172 67.4716C139.458 66.4076 137.378 64.9114 135.445 64.0749L135.795 63.875C137.724 64.7184 139.797 66.2077 141.522 67.2763Z" fill="#BBBBBB"/>
<path d="M145.983 64.6776L145.633 64.8798C143.908 63.8112 141.837 62.322 139.906 61.4809L140.256 61.2832C142.18 62.1197 144.267 63.609 145.983 64.6776Z" fill="#BBBBBB"/>
<path d="M145.226 65.1373L142.045 66.9758C140.326 65.898 138.251 64.4157 136.32 63.5768L139.506 61.7383C141.439 62.5794 143.51 64.0617 145.226 65.1373Z" fill="#E2E2E2"/>
<path d="M146.701 64.2916L146.357 64.4915C144.637 63.4228 142.561 61.9336 140.633 61.0994L140.981 60.8926C142.906 61.7452 144.982 63.216 146.701 64.2916Z" fill="#BBBBBB"/>
<path d="M147.406 63.8743L147.056 64.0674C145.342 62.9964 143.266 61.5095 141.336 60.6707L141.686 60.4707C143.612 61.3095 145.69 62.7988 147.406 63.8743Z" fill="#BBBBBB"/>
<path d="M148.138 63.4592L147.799 63.6615C146.074 62.5905 143.998 61.1059 142.07 60.2671L142.42 60.0625C144.346 60.9013 146.424 62.3883 148.138 63.4592Z" fill="#BBBBBB"/>
<path d="M141.749 59.1161L130.307 65.7026L130.266 65.6015L141.666 58.9023L141.749 59.1161Z" fill="#BBBBBB"/>
<path d="M152.198 67.5232L140.754 74.1075C140.21 73.2081 139.872 72.1995 139.766 71.1543L151.208 64.5586C151.341 65.8938 152.198 67.5232 152.198 67.5232Z" fill="white"/>
<path d="M140.929 75.1876L131.398 69.7179V69.2812L140.929 74.7532V75.1876Z" fill="#2D2D2D"/>
<path d="M136.023 69.9757L133.57 71.3982L133.344 70.7042L132.148 70.5755L134.613 69.1621L136.023 69.9757Z" fill="#F89836"/>
<path d="M136.024 70.1627L133.57 71.5715V71.3991L136.024 69.9766V70.1627Z" fill="#FBB264"/>
<path d="M133.57 71.5715L133.344 70.8843V70.7051L133.57 71.3991V71.5715Z" fill="#AD6828"/>
<path d="M133.344 70.8841L132.148 70.76V70.5762L133.344 70.7049V70.8841Z" fill="#FBB264"/>
<path opacity="0.3" d="M197.751 91.0419L184.561 98.7086L161.633 85.5033L174.826 77.832L197.751 91.0419Z" fill="#010101"/>
<path d="M184.236 83.7094L171.953 90.8268V90.3948L184.236 83.2773V83.7094Z" fill="#515150"/>
<path d="M187.211 85.4455L174.938 92.5583V92.1285L186.522 84.5859L187.211 85.4455Z" fill="#515150"/>
<path d="M187.203 85.0141L174.929 92.1384C173.598 92.4923 171.953 90.4056 171.953 90.4056L184.234 83.2812L187.203 85.0141Z" fill="#221510"/>
<path d="M174.929 92.1274V92.5594C173.246 92.5112 171.953 90.8266 171.953 90.8266V90.3945C171.953 90.3945 173.642 92.4491 174.929 92.1274Z" fill="#2D2D2D"/>
<path d="M184.241 83.2795L171.958 90.397L162.438 84.9319L174.711 77.8145L184.241 83.2795Z" fill="#5E5F5F"/>
<path d="M171.958 90.8268L162.438 85.364V84.9297L171.958 90.3947V90.8268Z" fill="#2D2D2D"/>
<path d="M196.735 90.909L184.461 98.0287V97.5921L196.735 90.4746V90.909Z" fill="#515150"/>
<path d="M196.741 90.4764L184.468 97.5939L174.938 92.1288L187.211 85.0137L196.741 90.4764Z" fill="#5E5F5F"/>
<path d="M173.224 89.6432L172.404 90.1051L172.125 89.457H172.738L173.224 89.6432Z" fill="#2B2416"/>
<path d="M185.291 84.3449L174.517 90.55C174.469 90.5149 174.419 90.4827 174.367 90.4534L173.383 89.8835C172.863 89.5916 172.432 89.5456 172.404 90.1133L163.266 84.8643L174.708 78.2754L185.291 84.3449Z" fill="#B0B1B1"/>
<path d="M164.388 83.1028C164.144 83.0177 165.886 83.5624 165.886 83.5624L164.886 84.8517H163.273C163.273 84.8517 164.209 84.1553 164.388 83.1028Z" fill="#B0B1B1"/>
<path d="M195.737 90.3657L184.292 96.9568L175.343 91.7951C175.315 91.536 175.225 91.2873 175.081 91.0697C174.938 90.8522 174.744 90.6723 174.516 90.5449L185.29 84.3398L195.737 90.3657Z" fill="#B0B1B1"/>
<path d="M185.294 81.9701L173.856 88.552C173.603 87.3271 164.391 83.1123 164.391 83.1123L175.835 76.5234C175.835 76.5234 184.886 80.1063 185.294 81.9701Z" fill="white"/>
<path d="M173.757 86.4035L173.409 86.6057C171.695 85.5301 169.064 84.2225 167.359 83.4044L167.703 83.209C169.403 84.0386 172.029 85.3302 173.757 86.4035Z" fill="#BBBBBB"/>
<path d="M174.558 85.9331L174.21 86.1353C172.494 85.0621 169.868 83.7544 168.156 82.9454L168.506 82.7363C170.216 83.5637 172.833 84.869 174.558 85.9331Z" fill="#BBBBBB"/>
<path d="M175.342 85.4816L174.991 85.6769C173.271 84.6106 170.647 83.3121 168.938 82.4848L169.285 82.2871C170.99 83.119 173.621 84.413 175.342 85.4816Z" fill="#BBBBBB"/>
<path d="M176.117 85.0142L175.765 85.2119C174.049 84.1386 171.423 82.8355 169.711 82.0128L170.066 81.8105C171.775 82.631 174.394 83.9409 176.117 85.0142Z" fill="#BBBBBB"/>
<path d="M176.915 84.5695L176.57 84.774C174.853 83.7008 172.234 82.3954 170.516 81.575L170.863 81.375C172.575 82.2 175.204 83.4985 176.915 84.5695Z" fill="#BBBBBB"/>
<path d="M182.882 81.2081L177.697 84.2256C175.981 83.1547 173.352 81.8539 171.641 81.0334L176.831 78.0137C178.542 78.8387 181.162 80.1303 182.882 81.2081Z" fill="#E2E2E2"/>
<path d="M194.746 87.4069L183.304 93.9935C183.304 93.9935 176.534 88.7422 173.859 88.5423L185.297 81.9603C187.347 81.0502 194.746 87.4069 194.746 87.4069Z" fill="white"/>
<path d="M182.583 91.5405L182.236 91.7451C180.517 90.6742 178.446 89.1849 176.516 88.3438L176.866 88.1484C178.792 88.985 180.867 90.4742 182.583 91.5405Z" fill="#BBBBBB"/>
<path d="M183.427 91.0572L183.082 91.2548C181.368 90.1839 179.294 88.6901 177.359 87.8513L177.707 87.6582C179.635 88.4947 181.709 89.9817 183.427 91.0572Z" fill="#BBBBBB"/>
<path d="M184.261 90.5705L183.918 90.7682C182.199 89.7019 180.123 88.208 178.195 87.3692L178.543 87.1738C180.471 88.0127 182.547 89.495 184.261 90.5705Z" fill="#BBBBBB"/>
<path d="M185.057 90.1139L184.707 90.3161C182.99 89.2475 180.91 87.7536 178.984 86.9171L179.332 86.7148C181.258 87.556 183.331 89.0452 185.057 90.1139Z" fill="#BBBBBB"/>
<path d="M189.518 87.5197L189.174 87.7197C187.447 86.651 185.373 85.1595 183.445 84.3184L183.798 84.123C185.719 84.9573 187.806 86.4533 189.518 87.5197Z" fill="#BBBBBB"/>
<path d="M188.763 87.9794L185.579 89.8179C183.865 88.7424 181.788 87.2509 179.859 86.4167L183.043 84.5781C184.973 85.417 187.047 86.9061 188.763 87.9794Z" fill="#E2E2E2"/>
<path d="M190.237 87.136L189.899 87.3337C188.178 86.2628 186.102 84.7781 184.172 83.9393L184.522 83.7324C186.45 84.5713 188.521 86.0628 190.237 87.136Z" fill="#BBBBBB"/>
<path d="M190.945 86.7131L190.593 86.9107C188.881 85.8421 186.803 84.3483 184.875 83.5094L185.225 83.3164C187.151 84.1552 189.227 85.6467 190.945 86.7131Z" fill="#BBBBBB"/>
<path d="M191.679 86.2997L191.334 86.4997C189.613 85.4287 187.54 83.9418 185.609 83.103L185.96 82.8984C187.885 83.7396 189.966 85.2357 191.679 86.2997Z" fill="#BBBBBB"/>
<path d="M185.291 81.9618L173.854 88.5438L173.812 88.4403L185.211 81.748L185.291 81.9618Z" fill="#BBBBBB"/>
<path d="M195.737 90.366L184.293 96.9571C183.75 96.054 183.412 95.0426 183.305 93.9948L194.747 87.4082C194.878 88.7434 195.737 90.366 195.737 90.366Z" fill="white"/>
<path d="M184.468 98.0287L174.938 92.5567V92.127L184.468 97.592V98.0287Z" fill="#2D2D2D"/>
<path d="M179.565 92.8171L177.109 94.2374L176.885 93.5502L175.688 93.4215L178.145 92.0059L179.565 92.8171Z" fill="#F89836"/>
<path d="M179.557 93.0026L177.102 94.4136V94.2367L179.557 92.8164V93.0026Z" fill="#FBB264"/>
<path d="M177.106 94.4149L176.883 93.7254V93.5508L177.106 94.2379V94.4149Z" fill="#AD6828"/>
<path d="M176.885 93.7272L175.688 93.6008V93.4238L176.885 93.5525V93.7272Z" fill="#FBB264"/>
<path d="M224.177 86.683L211.461 94.005V93.6258L224.177 86.2969V86.683Z" fill="#FFBE92"/>
<path d="M211.462 94.0044L201.766 88.4222V88.043L211.462 93.6252V94.0044Z" fill="#FFBE92"/>
<path d="M224.178 86.2955L211.462 93.6244L201.766 88.0421L214.489 80.7109L224.178 86.2955Z" fill="#DDDDDD"/>
<path d="M211.456 93.2206L202.398 88.029V84.9609L211.456 90.1479V93.2206Z" fill="#EEEEEE"/>
<path d="M223.484 86.2833L211.461 93.2214V90.1488L223.484 83.2129V86.2833Z" fill="white"/>
<path d="M224.177 83.7539L211.461 91.0873V90.7058L224.177 83.377V83.7539Z" fill="#FFBE92"/>
<path d="M211.462 91.0868L201.766 85.5045V85.123L211.462 90.7053V91.0868Z" fill="#FFBE92"/>
<path d="M224.178 83.3779L211.462 90.7068L201.766 85.1245L214.489 77.791L224.178 83.3779Z" fill="#FFD55F"/>
<path d="M217.866 83.3948L216.779 84.0245L212.93 81.8044L214.017 81.1816L217.866 83.3948Z" fill="white"/>
<path d="M202.079 88.2207L201.766 88.0414V85.502L202.079 85.6743V88.2207Z" fill="#FFBE92"/>
<path d="M202.403 88.0295L202.078 88.2202V85.6738L202.403 85.8692V88.0295Z" fill="#DDDDDD"/>
<path d="M207.2 89.574L204.732 90.9897L204.511 90.3048L203.32 90.1738L205.778 88.7559L207.2 89.574Z" fill="#F89836"/>
<path d="M207.202 89.7515L204.734 91.1695V90.9879L207.202 89.5723V89.7515Z" fill="#FBB264"/>
<path d="M204.737 91.1691L204.516 90.4797V90.3027L204.737 90.9876V91.1691Z" fill="#AD6828"/>
<path d="M204.511 90.4818L203.32 90.3554V90.1738L204.511 90.3048V90.4818Z" fill="#FBB264"/>
<path d="M148.22 99.5032L121.318 84.0089V84.025C121.17 83.9839 121.014 83.9814 120.865 84.0176C120.716 84.0538 120.578 84.1276 120.466 84.2319C119.864 84.6915 119.436 85.5671 119.528 86.2152L123.071 112.185C123.38 114.434 124.467 116.018 125.985 116.811L152.882 132.307L149.798 118.518L148.22 99.5032Z" fill="#1C2B66"/>
<path d="M152.88 132.319C151.345 131.52 150.265 129.929 149.954 127.684L146.418 101.696C146.33 101.057 146.743 100.161 147.355 99.7197C147.968 99.2784 148.507 99.4209 148.609 100.064L152.154 126.05C152.368 127.659 153.145 128.844 154.227 129.497L152.88 132.319Z" fill="#14204F"/>
<path d="M107.163 75.8587L80.2565 60.369V60.3897C80.1085 60.3491 79.9526 60.3467 79.8034 60.3829C79.6543 60.4191 79.5169 60.4926 79.4042 60.5965C78.8029 61.0562 78.386 61.9318 78.4827 62.5799L82.0303 88.5493C82.3297 90.7992 83.4125 92.3803 84.9444 93.1778L111.832 108.672L108.762 94.883L107.163 75.8587Z" fill="#1C2B66"/>
<path d="M112.381 108.924C110.559 108.235 109.246 106.548 108.898 104.038L105.364 78.048C105.274 77.416 105.684 76.5174 106.285 76.0716C106.887 75.6257 107.453 75.7774 107.545 76.4232L111.082 102.393C111.312 104.139 112.201 105.38 113.443 105.985L112.381 108.924Z" fill="#14204F"/>
<g clip-path="url(#clip1_814_1747)">
<g opacity="0.4">
<path d="M210.359 58.9456L207.241 51.5151L202.262 39.6802L201.132 36.9836L200.282 38.0487L208.32 39.0716L221.064 40.7031L223.979 41.0751L223.248 39.807L218.413 46.2232L210.605 56.4181L208.821 58.7428C208.719 58.936 208.697 59.1608 208.758 59.3702C208.819 59.5796 208.959 59.7573 209.149 59.8665C209.338 59.9756 209.563 60.0075 209.776 59.9557C209.989 59.9038 210.173 59.7721 210.291 59.5881L215.202 53.1804L223.01 42.9855L224.786 40.6608C225.228 40.086 224.607 39.4604 224.055 39.3844L216.009 38.3615L203.264 36.73L200.35 36.358C200.216 36.353 200.083 36.3796 199.962 36.4355C199.84 36.4914 199.734 36.5752 199.651 36.6798C199.568 36.7845 199.511 36.9071 199.485 37.0378C199.459 37.1684 199.464 37.3034 199.5 37.4316L202.627 44.8622L207.598 56.697L208.728 59.3937C208.757 59.5009 208.808 59.6012 208.876 59.6889C208.945 59.7767 209.03 59.8501 209.127 59.9051C209.224 59.9601 209.331 59.9954 209.442 60.0092C209.552 60.023 209.665 60.0149 209.773 59.9854C209.989 59.9244 210.172 59.7807 210.281 59.5859C210.391 59.3911 210.419 59.1608 210.359 58.9456Z" fill="#D8E3FF"/>
</g>
</g>
</g>
<g clip-path="url(#clip2_814_1747)">
<path d="M106.503 154.631C104.807 154.631 103.942 153.128 103.366 152.022C102.79 150.916 102.425 150.424 101.849 150.424C101.273 150.424 100.952 150.909 100.344 152.015C99.736 153.12 98.8973 154.624 97.2007 154.624C95.5041 154.624 94.6398 153.12 94.0636 152.015C93.4874 150.909 93.1225 150.424 92.5527 150.424C91.9828 150.424 91.6563 150.909 91.0417 152.015C90.4271 153.12 89.6012 154.624 87.9046 154.624C86.208 154.624 85.3436 153.113 84.7674 152.015C84.1912 150.916 83.8583 150.424 83.2565 150.424C82.6547 150.424 82.3602 150.909 81.7456 152.015C81.1309 153.12 80.305 154.624 78.6084 154.624C76.9118 154.624 76.0795 153.113 75.4713 152.015C74.8631 150.916 74.5301 150.424 73.9603 150.424C73.7056 150.424 73.4614 150.31 73.2813 150.107C73.1012 149.903 73 149.628 73 149.34C73 149.053 73.1012 148.777 73.2813 148.573C73.4614 148.37 73.7056 148.256 73.9603 148.256C75.657 148.256 76.5213 149.767 77.0975 150.865C77.6737 151.964 78.0386 152.455 78.6084 152.455C79.1782 152.455 79.5047 151.971 80.1194 150.865C80.734 149.759 81.5599 148.256 83.2565 148.256C84.9531 148.256 85.8174 149.767 86.3936 150.865C86.9698 151.964 87.3348 152.455 87.9046 152.455C88.4744 152.455 88.8009 151.971 89.4155 150.865C90.0301 149.759 90.856 148.256 92.5527 148.256C94.2493 148.256 95.0815 149.767 95.6898 150.865C96.298 151.964 96.6309 152.455 97.2007 152.455C97.7705 152.455 98.1034 151.971 98.7117 150.865C99.3199 149.759 100.159 148.256 101.849 148.256C103.539 148.256 104.41 149.767 104.992 150.865C105.575 151.964 105.933 152.455 106.503 152.455C107.073 152.455 107.406 151.971 108.014 150.865C108.622 149.759 109.468 148.256 111.158 148.256C111.412 148.256 111.657 148.37 111.837 148.573C112.017 148.777 112.118 149.053 112.118 149.34C112.118 149.628 112.017 149.903 111.837 150.107C111.657 150.31 111.412 150.424 111.158 150.424C110.588 150.424 110.255 150.909 109.647 152.015C109.039 153.12 108.187 154.631 106.503 154.631Z" fill="#DAE4FF"/>
</g>
<defs>
<clipPath id="clip0_814_1747">
<rect width="148.285" height="131" fill="white" transform="translate(78.4609 30)"/>
</clipPath>
<clipPath id="clip1_814_1747">
<rect width="25.4722" height="23.6528" fill="white" transform="translate(199.453 36.3672)"/>
</clipPath>
<clipPath id="clip2_814_1747">
<rect width="39.1181" height="6.36806" fill="white" transform="translate(73 148.264)"/>
</clipPath>
</defs>
</svg>
