<svg width="240" height="191" viewBox="0 0 240 191" fill="none" xmlns="http://www.w3.org/2000/svg">
<g clip-path="url(#clip0_801_1205)">
<g opacity="0.4">
<path d="M205.906 166.578L202.788 159.148L197.809 147.313L196.679 144.616L195.829 145.682L203.867 146.704L216.611 148.336L219.525 148.708L218.795 147.44L213.96 153.856L206.152 164.051L204.368 166.376C204.266 166.569 204.244 166.794 204.305 167.003C204.366 167.212 204.506 167.39 204.696 167.499C204.885 167.608 205.11 167.64 205.323 167.588C205.536 167.537 205.72 167.405 205.838 167.221L210.749 160.813L218.557 150.618L220.333 148.294C220.774 147.719 220.154 147.093 219.602 147.017L211.556 145.994L198.811 144.363L195.897 143.991C195.763 143.986 195.63 144.012 195.509 144.068C195.387 144.124 195.281 144.208 195.198 144.313C195.115 144.417 195.058 144.54 195.032 144.671C195.006 144.801 195.011 144.936 195.047 145.064L198.174 152.495L203.144 164.33L204.274 167.027C204.304 167.134 204.354 167.234 204.423 167.322C204.491 167.409 204.577 167.483 204.674 167.538C204.771 167.593 204.878 167.628 204.989 167.642C205.099 167.656 205.212 167.648 205.32 167.618C205.535 167.557 205.718 167.414 205.828 167.219C205.938 167.024 205.966 166.794 205.906 166.578Z" fill="#D8E3FF"/>
</g>
</g>
<path d="M111.521 113.066L66.6773 55.3119L70.3709 40.791L137.259 46.1322L111.521 113.066Z" fill="#F8FAFF"/>
<path d="M111.521 113.066L66.6773 55.3119L70.3709 40.791L137.259 46.1322L111.521 113.066Z" fill="url(#paint0_linear_801_1205)"/>
<path d="M74.7207 63.9141L67.9396 65L65.7833 51.3718L64.5708 50.7305L66.3859 52.2682L73.6317 52.4431L74.256 58.9876L74.4013 60.6273L74.7207 63.9141Z" fill="#505E86"/>
<path d="M86.0613 44.3093L74.6989 45.9418L72.833 38.909L86.3517 38.8799L86.0613 44.3093Z" fill="#505E86"/>
<path d="M77.7117 40.5326L62.3516 32.3828L54.0018 48.2393L69.3619 56.3891L77.7117 40.5326Z" fill="#6D7DA8"/>
<path d="M69.995 55.1664L80.9326 60.9697L87.9965 47.5552L77.0589 41.7519L69.995 55.1664Z" fill="#6D7DA8"/>
<path d="M70.0036 55.1718L71.2168 55.8154L78.2807 42.4009L77.0675 41.7572L70.0036 55.1718Z" fill="#1C2B66"/>
<path d="M78.2565 32.2484L73.1234 41.9995L71.9037 41.3581L76.4051 32.8241L67.896 28.3057L65.0064 33.7934L63.7939 33.1521L67.3225 26.4473L78.2565 32.2484Z" fill="#1C2B66"/>
<g clip-path="url(#clip1_801_1205)">
<path d="M69.0003 26.1246C69.0003 24.9535 69.9447 24.357 70.6394 23.9592C71.3341 23.5615 71.6428 23.3097 71.6428 22.9119C71.6428 22.5142 71.3386 22.2933 70.6439 21.8735C69.9493 21.4537 69.0049 20.8748 69.0049 19.7038C69.0049 18.5328 69.9493 17.9362 70.6439 17.5385C71.3386 17.1408 71.6428 16.8889 71.6428 16.4956C71.6428 16.1023 71.3386 15.8769 70.6439 15.4527C69.9493 15.0285 69.0049 14.4584 69.0049 13.2874C69.0049 12.1164 69.9538 11.5198 70.6439 11.1221C71.334 10.7244 71.6428 10.4946 71.6428 10.0792C71.6428 9.66384 71.3386 9.46057 70.6439 9.03635C69.9493 8.61213 69.0049 8.04207 69.0049 6.87104C69.0049 5.7 69.9538 5.12555 70.6439 4.70575C71.334 4.28595 71.6428 4.05614 71.6428 3.66285C71.6428 3.48705 71.7145 3.31847 71.8423 3.19417C71.97 3.06986 72.1432 3 72.3238 3C72.5045 3 72.6777 3.06986 72.8054 3.19417C72.9331 3.31847 73.0049 3.48705 73.0049 3.66285C73.0049 4.83388 72.056 5.43045 71.3658 5.82816C70.6757 6.22587 70.367 6.47775 70.367 6.87104C70.367 7.26432 70.6712 7.48969 71.3658 7.91391C72.0605 8.33813 73.0049 8.90819 73.0049 10.0792C73.0049 11.2503 72.056 11.8468 71.3658 12.2445C70.6757 12.6422 70.367 12.8941 70.367 13.2874C70.367 13.6807 70.6712 13.9061 71.3658 14.3303C72.0605 14.7545 73.0049 15.3246 73.0049 16.4956C73.0049 17.6666 72.056 18.2411 71.3658 18.6609C70.6757 19.0807 70.367 19.3105 70.367 19.7038C70.367 20.0971 70.6712 20.3269 71.3658 20.7467C72.0605 21.1665 73.0049 21.7453 73.0049 22.9119C73.0049 24.0786 72.056 24.6796 71.3658 25.0817C70.6757 25.4838 70.367 25.7313 70.367 26.1246C70.367 26.5178 70.6712 26.7476 71.3658 27.1674C72.0605 27.5872 73.0049 28.1706 73.0049 29.3372C73.0049 29.513 72.9331 29.6816 72.8054 29.8059C72.6777 29.9302 72.5045 30 72.3238 30C72.1432 30 71.97 29.9302 71.8423 29.8059C71.7145 29.6816 71.6428 29.513 71.6428 29.3372C71.6428 28.9439 71.3386 28.7141 70.6439 28.2943C69.9493 27.8745 69.0003 27.2868 69.0003 26.1246Z" fill="#1C2B66"/>
</g>
<g clip-path="url(#clip2_801_1205)">
<path d="M168.196 127.112H137.288V134.451H168.196V127.112Z" fill="#111C47"/>
<path d="M167.5 145.894H146.9V153H167.5V145.894Z" fill="#111C47"/>
<path d="M192 98H182V113H192V98Z" fill="#6D7DA8"/>
<path d="M174.153 86.7803H118.042C115.265 86.7803 113.013 89.0342 113.013 91.8145V123.917C113.013 126.698 115.265 128.952 118.042 128.952H174.153C176.931 128.952 179.182 126.698 179.182 123.917V91.8145C179.182 89.0342 176.931 86.7803 174.153 86.7803Z" fill="#1C2B66"/>
<path d="M211 124.866L189.26 112.668V97.5459L211 85.5605V124.866Z" fill="#111C47"/>
<path d="M138.897 81.3891C145.159 75.1207 145.159 64.9575 138.897 58.689C132.635 52.4205 122.483 52.4205 116.221 58.689C109.959 64.9575 109.959 75.1207 116.221 81.3891C122.483 87.6576 132.635 87.6576 138.897 81.3891Z" fill="#1C2B66"/>
<path d="M127.558 73.7106C125.547 73.7106 123.903 72.0648 123.903 70.0511C123.903 68.0374 125.547 66.3916 127.558 66.3916C129.57 66.3916 131.214 68.0374 131.214 70.0511C131.214 72.0648 129.57 73.7106 127.558 73.7106Z" fill="#14204F"/>
<path d="M127.559 72.3361C126.301 72.3361 125.276 71.3099 125.276 70.0514C125.276 68.7928 126.301 67.7666 127.559 67.7666C128.816 67.7666 129.841 68.7928 129.841 70.0514C129.841 71.3099 128.816 72.3361 127.559 72.3361Z" fill="#6D7DA8"/>
<path d="M132.239 80.2362C130.731 80.2362 129.493 78.997 129.493 77.4868C129.493 75.9765 130.731 74.7373 132.239 74.7373C133.748 74.7373 134.986 75.9765 134.986 77.4868C134.986 78.997 133.748 80.2362 132.239 80.2362V80.2362Z" fill="#14204F"/>
<path d="M132.24 79.2102C131.292 79.2102 130.518 78.4357 130.518 77.4869C130.518 76.5382 131.292 75.7637 132.24 75.7637C133.187 75.7637 133.961 76.5382 133.961 77.4869C133.961 78.4357 133.187 79.2102 132.24 79.2102Z" fill="#6D7DA8"/>
<path d="M172.915 73.0772C174.337 64.3273 168.404 56.0801 159.663 54.6567C150.923 53.2332 142.684 59.1725 141.262 67.9225C139.84 76.6724 145.773 84.9196 154.514 86.343C163.255 87.7665 171.493 81.8272 172.915 73.0772Z" fill="#1C2B66"/>
<path d="M157.094 74.1764C155.083 74.1764 153.438 72.5306 153.438 70.5169C153.438 68.5032 155.083 66.8574 157.094 66.8574C159.106 66.8574 160.75 68.5032 160.75 70.5169C160.75 72.5306 159.106 74.1764 157.094 74.1764Z" fill="#14204F"/>
<path d="M157.094 72.801C155.837 72.801 154.812 71.7748 154.812 70.5162C154.812 69.2577 155.837 68.2314 157.094 68.2314C158.351 68.2314 159.376 69.2577 159.376 70.5162C159.376 71.7748 158.351 72.801 157.094 72.801Z" fill="#6D7DA8"/>
<path d="M146.437 86.0839H140.034C137.945 86.0839 136.263 84.0121 136.263 81.4369V75.8218C136.263 73.2659 137.945 71.1748 140.034 71.1748H146.437C148.526 71.1748 150.208 73.2466 150.208 75.8218V81.4369C150.208 83.9927 148.526 86.0839 146.437 86.0839Z" fill="#6D7DA8"/>
<path d="M158.467 83.334H111.756V86.7805H158.467V83.334Z" fill="#6D7DA8"/>
<path d="M100.196 92.9315L98.6665 96.7607L114.829 103.232L116.359 99.403L100.196 92.9315Z" fill="#6D7DA8"/>
<path d="M98.6808 96.7522L94 97.3331L97.4042 88.833L100.209 92.9185L98.6808 96.7522Z" fill="#14204F"/>
<path d="M165.681 139.717C165.681 144.016 162.2 147.501 157.906 147.501C153.612 147.501 150.13 144.016 150.13 139.717C150.13 135.419 153.612 131.934 157.906 131.934C162.2 131.934 165.681 135.419 165.681 139.717V139.717Z" fill="#363B5B"/>
<path d="M157.21 141.712H124.464V144.461H157.21V141.712Z" fill="#363B5B"/>
<path d="M128.738 139.543H118.371C116.427 139.543 114.851 141.121 114.851 143.067V143.125C114.851 145.071 116.427 146.649 118.371 146.649H128.738C130.682 146.649 132.258 145.071 132.258 143.125V143.067C132.258 141.121 130.682 139.543 128.738 139.543Z" fill="#5C5F6D"/>
<path d="M157.887 143.377C155.875 143.377 154.231 141.731 154.231 139.717C154.231 137.703 155.875 136.058 157.887 136.058C159.898 136.058 161.542 137.703 161.542 139.717C161.542 141.731 159.898 143.377 157.887 143.377Z" fill="#6D7DA8"/>
<path d="M165.894 120.917H150.092C147.829 120.917 145.972 119.058 145.972 116.792V98.4562C145.972 96.1908 147.829 94.332 150.092 94.332H165.894C168.157 94.332 170.014 96.1908 170.014 98.4562V116.792C170.014 119.058 168.157 120.917 165.894 120.917ZM150.092 95.7068C148.583 95.7068 147.345 96.946 147.345 98.4562V116.792C147.345 118.303 148.583 119.542 150.092 119.542H165.894C167.403 119.542 168.641 118.303 168.641 116.792V98.4562C168.641 96.946 167.403 95.7068 165.894 95.7068H150.092V95.7068Z" fill="#6D7DA8"/>
<path d="M117.172 105.601C115.16 105.601 113.516 103.955 113.516 101.942C113.516 99.928 115.16 98.2822 117.172 98.2822C119.183 98.2822 120.827 99.928 120.827 101.942C120.827 103.955 119.183 105.601 117.172 105.601Z" fill="#14204F"/>
<path d="M117.172 103.529C116.282 103.529 115.566 102.812 115.566 101.922C115.566 101.031 116.282 100.314 117.172 100.314C118.062 100.314 118.777 101.031 118.777 101.922C118.777 102.812 118.062 103.529 117.172 103.529Z" fill="#6D7DA8"/>
<path d="M183 96H179V116H183V96Z" fill="#111C47"/>
</g>
<defs>
<linearGradient id="paint0_linear_801_1205" x1="64.8924" y1="46.4907" x2="133.016" y2="78.1087" gradientUnits="userSpaceOnUse">
<stop stop-color="#FFD55F"/>
<stop offset="0.578674" stop-color="#F8FAFF" stop-opacity="0.5"/>
</linearGradient>
<clipPath id="clip0_801_1205">
<rect width="25.4722" height="23.6528" fill="white" transform="translate(195 144)"/>
</clipPath>
<clipPath id="clip1_801_1205">
<rect width="27" height="4" fill="white" transform="translate(73 3) rotate(90)"/>
</clipPath>
<clipPath id="clip2_801_1205">
<rect width="117" height="99" fill="white" transform="translate(94 54)"/>
</clipPath>
</defs>
</svg>
