<svg width="240" height="191" viewBox="0 0 240 191" fill="none" xmlns="http://www.w3.org/2000/svg">
<g clip-path="url(#clip0_814_1548)">
<path d="M78.3785 119.105C74.6511 124.388 70.9648 129.703 67.0521 134.837C65.9709 136.256 64.864 137.659 63.7314 139.047C63.5928 139.194 63.5156 139.389 63.5156 139.591C63.5156 139.794 63.5928 139.989 63.7314 140.136C63.8769 140.279 64.0729 140.36 64.2771 140.36C64.4814 140.36 64.6774 140.279 64.8229 140.136C68.9415 135.074 72.7616 129.764 76.5251 124.43L79.7274 119.881C79.8218 119.705 79.8441 119.499 79.7897 119.307C79.7352 119.115 79.6083 118.952 79.4355 118.851C79.2628 118.75 79.0577 118.721 78.8634 118.768C78.6691 118.815 78.5008 118.936 78.3939 119.105H78.3785Z" fill="#D6E1FF"/>
<path d="M64.053 140.336C68.8279 141.001 73.4173 142.629 77.5417 145.121C81.6916 147.582 85.3317 150.813 88.2657 154.639C89.9078 156.797 91.2902 159.14 92.3844 161.619C92.4445 161.72 92.5267 161.806 92.6247 161.87C92.7228 161.935 92.8342 161.976 92.9507 161.991C93.0671 162.007 93.1855 161.996 93.297 161.959C93.4084 161.922 93.5101 161.86 93.5943 161.778C96.9401 158.189 100.08 154.414 103 150.471C104.442 148.535 105.827 146.555 107.155 144.53C107.495 144.016 107.824 143.502 108.149 142.988C108.37 142.644 108.607 142.335 108.442 141.904C108.329 141.605 108.164 141.318 108.025 141.03C107.5 139.974 106.937 138.947 106.336 137.946C104.942 135.597 103.361 133.362 101.61 131.265C101.465 131.12 101.269 131.039 101.065 131.039C100.86 131.039 100.664 131.12 100.519 131.265C100.378 131.411 100.299 131.606 100.299 131.809C100.299 132.012 100.378 132.208 100.519 132.354C103.12 135.484 105.322 138.925 107.073 142.597V141.816C103.765 147.046 100.079 152.027 96.0449 156.721C94.8917 158.061 93.711 159.378 92.5028 160.673L93.7178 160.828C91.6878 156.298 88.7575 152.228 85.1046 148.863C81.4145 145.434 77.1064 142.736 72.4088 140.912C69.8498 139.915 67.1814 139.225 64.4597 138.856C64.2661 138.809 64.0619 138.835 63.8868 138.93C63.7117 139.025 63.5783 139.182 63.5124 139.37C63.4589 139.564 63.4826 139.771 63.5785 139.948C63.6744 140.125 63.8352 140.259 64.0272 140.321L64.053 140.336Z" fill="#D6E1FF"/>
<path d="M71.1817 114.171C75.9915 117.19 80.1372 121.152 83.3679 125.818C86.6768 130.523 89.0567 135.816 90.38 141.411C91.1182 144.495 91.4812 147.656 91.4611 150.827C91.4611 151.274 91.976 151.768 92.4393 151.567C97.2807 149.539 102.015 147.264 106.623 144.752C108.909 143.501 111.159 142.194 113.373 140.83C114.49 140.142 115.602 139.443 116.698 138.723C116.966 138.554 117.213 138.379 117.496 138.209C117.684 138.113 117.846 137.974 117.97 137.803C118.067 137.6 118.101 137.373 118.068 137.15C118.068 136.575 118.032 135.999 117.996 135.424C117.728 130.808 116.925 126.239 115.602 121.809C114.274 117.364 112.445 113.085 110.15 109.052C107.86 105.019 105.106 101.267 101.943 97.8735C101.562 97.4675 101.171 97.0615 100.78 96.6657C100.658 96.5467 100.501 96.4704 100.332 96.4482C100.163 96.4259 99.9912 96.459 99.8427 96.5424C96.1461 98.7164 92.4754 100.921 88.784 103.101C85.0926 105.28 81.3909 107.423 77.6326 109.474C75.5012 110.642 73.3509 111.773 71.1817 112.866C71.0127 112.973 70.8918 113.141 70.8444 113.334C70.797 113.528 70.8267 113.733 70.9274 113.906C71.0282 114.078 71.192 114.205 71.3844 114.259C71.5768 114.313 71.7829 114.291 71.9591 114.197C75.7895 112.27 79.5478 110.214 83.2855 108.091C87.0233 105.968 90.6889 103.784 94.37 101.595C96.4533 100.351 98.5436 99.1104 100.641 97.8735L99.7037 97.7553C103.746 101.855 107.155 106.532 109.82 111.632C112.483 116.717 114.394 122.16 115.494 127.791C116.106 130.953 116.451 134.162 116.523 137.382L116.904 136.719C110.741 140.803 104.289 144.434 97.598 147.584C95.7497 148.453 93.8912 149.285 92.0069 150.077L92.9851 150.822C92.9885 144.948 91.7975 139.134 89.4842 133.733C87.1817 128.245 83.8532 123.246 79.6765 119.002C77.3548 116.65 74.7626 114.58 71.954 112.835C71.1097 112.321 70.3323 113.642 71.1766 114.166L71.1817 114.171Z" fill="#D6E1FF"/>
<path d="M157.805 87.5173C162.619 84.9475 167.113 81.504 169.677 76.7241C171.737 72.8643 172.251 67.6989 169.404 64.389C170.259 63.804 170.92 62.9794 171.305 62.0193C171.69 61.0593 171.782 60.0068 171.568 58.9948C171.354 57.9829 170.845 57.0569 170.104 56.3338C169.364 55.6107 168.425 55.123 167.407 54.9321C169.765 53.2206 167.963 49.1192 165.188 48.2506C162.413 47.382 159.437 48.3688 156.549 48.7646C150.016 49.6332 143.678 47.3255 137.217 46.8835C127.662 46.2359 118.714 48.9085 113.328 57.4711C109.683 63.2737 108.901 70.8752 111.635 77.161C113.885 82.3263 115.949 86.5151 116.536 92.143C116.706 93.7568 116.448 95.4683 117.138 96.9331C117.828 98.3979 120.119 99.2254 121.041 97.8891C121.041 99.6468 122.626 101.091 124.346 101.487C126.066 101.883 127.847 101.43 129.541 100.937C139.323 98.0998 147.596 92.7135 156.544 88.2368C156.966 87.9593 157.388 87.7435 157.805 87.5173Z" fill="#111C47"/>
<path d="M158.202 88.1844C161.806 86.2571 165.219 83.8672 167.855 80.7423C170.429 77.6996 172.277 73.9168 172.159 69.8668C172.138 67.6599 171.36 65.5268 169.955 63.8226L169.801 65.0356C170.567 64.4971 171.202 63.7934 171.658 62.9766C172.114 62.1598 172.38 61.2509 172.437 60.3174C172.481 59.4167 172.318 58.5179 171.961 57.6896C171.604 56.8612 171.063 56.1251 170.378 55.5376C169.596 54.8529 168.651 54.3819 167.633 54.1704L167.819 55.5787C170.558 53.5228 169.013 49.5551 166.552 47.9978C164.817 46.8927 162.562 46.9698 160.606 47.2576C159.54 47.4016 158.485 47.6226 157.419 47.8076C156.361 47.9899 155.291 48.0981 154.217 48.1314C149.82 48.2496 145.521 47.1806 141.202 46.5278C137.481 45.909 133.691 45.8259 129.947 46.2811C126.646 46.6901 123.457 47.7376 120.557 49.3649C117.376 51.2304 114.694 53.8347 112.737 56.9566C110.781 60.0785 109.608 63.6258 109.318 67.297C109.166 69.2364 109.27 71.1873 109.627 73.0997C110.038 75.0521 110.677 76.9497 111.532 78.7532C113.148 82.4229 114.76 86.108 115.491 90.0604C115.683 91.0629 115.802 92.0781 115.846 93.0979C115.826 94.1317 115.911 95.1648 116.098 96.1817C116.273 97.0567 116.737 97.8478 117.416 98.4277C118.052 98.9611 118.847 99.2685 119.676 99.3014C120.081 99.3095 120.481 99.217 120.84 99.0322C121.2 98.8473 121.508 98.576 121.736 98.2427L120.294 97.8572C120.31 98.474 120.461 99.0797 120.738 99.6313C121.015 100.183 121.41 100.667 121.895 101.049C122.966 101.903 124.299 102.362 125.669 102.349C127.182 102.304 128.678 102.028 130.107 101.532C131.482 101.126 132.836 100.663 134.179 100.155C139.539 98.1347 144.6 95.4313 149.624 92.7176C151.042 91.9501 152.461 91.1911 153.882 90.4407C155.319 89.6801 156.781 88.9656 158.217 88.1998C159.092 87.7321 158.315 86.401 157.435 86.8687C155.005 88.169 152.538 89.3974 150.108 90.7029C147.678 92.0083 145.305 93.3035 142.901 94.5473C140.496 95.7911 138.092 96.9321 135.611 97.9497C134.33 98.4808 133.033 98.9674 131.718 99.4094C130.397 99.8786 129.049 100.272 127.682 100.586C126.354 100.874 124.82 100.972 123.62 100.345C123.138 100.095 122.714 99.7443 122.379 99.3168C122.05 98.8972 121.869 98.3803 121.865 97.8469C121.863 97.6785 121.806 97.5153 121.704 97.3811C121.602 97.2469 121.46 97.149 121.298 97.1017C121.134 97.0621 120.962 97.075 120.806 97.1387C120.65 97.2023 120.517 97.3135 120.428 97.4563C120.49 97.3689 120.387 97.5026 120.361 97.5283L120.279 97.6002C120.191 97.6773 120.372 97.5385 120.279 97.6002C120.186 97.6619 120.099 97.703 120.16 97.6722C120.222 97.6413 120.16 97.6722 120.13 97.6722L119.996 97.7133C119.782 97.7638 119.56 97.7638 119.347 97.7133C118.793 97.5726 118.311 97.2297 117.998 96.7522C117.622 95.9877 117.445 95.1411 117.483 94.2903C117.447 93.2624 117.427 92.291 117.293 91.2939C116.778 87.3981 115.439 83.7592 113.885 80.1666C113.033 78.4393 112.28 76.6649 111.63 74.8523C111.115 73.1589 110.831 71.4043 110.785 69.6355C110.686 66.0292 111.506 62.4568 113.169 59.2535C114.686 56.3447 116.848 53.8203 119.491 51.873C122.001 50.0807 124.857 48.8293 127.878 48.1982C131.027 47.5343 134.257 47.3369 137.464 47.6123C141.665 47.9258 145.768 48.9949 149.954 49.4574C152.044 49.7109 154.156 49.7281 156.25 49.5088C158.31 49.2672 160.312 48.6813 162.382 48.6145C163.338 48.5573 164.295 48.6918 165.198 49.0102C165.23 49.0209 165.261 49.0347 165.291 49.0514L165.497 49.1542C165.651 49.2415 165.801 49.334 165.95 49.4368L166.037 49.5037C166.099 49.5499 166.156 49.6013 166.213 49.6527C166.35 49.7703 166.479 49.8974 166.599 50.0331C166.8 50.2467 166.973 50.485 167.113 50.7423C167.2 50.8817 167.28 51.0258 167.35 51.174C167.371 51.2251 167.395 51.2749 167.422 51.3231C167.422 51.2922 167.474 51.4619 167.489 51.5081C167.545 51.6576 167.591 51.8103 167.628 51.9655L167.675 52.1814V52.2842C167.675 52.1763 167.675 52.2842 167.675 52.3253C167.682 52.464 167.682 52.6029 167.675 52.7416C167.675 52.8136 167.675 52.8804 167.675 52.9472C167.675 53.1322 167.675 52.901 167.675 53.0808C167.675 53.2607 167.608 53.3378 167.567 53.4663C167.525 53.5948 167.592 53.4663 167.525 53.5588C167.458 53.6513 167.469 53.677 167.433 53.7336C167.399 53.7928 167.361 53.8495 167.319 53.9032C167.391 53.8004 167.319 53.9289 167.268 53.9648C167.216 54.0008 167.155 54.0831 167.098 54.1396C167.041 54.1961 166.902 54.2989 166.995 54.2321C166.867 54.3111 166.764 54.4253 166.699 54.5612C166.634 54.697 166.61 54.8487 166.63 54.9979C166.648 55.1472 166.71 55.2877 166.808 55.4019C166.906 55.5162 167.036 55.5991 167.18 55.6404C168.051 55.7919 168.858 56.1977 169.498 56.8065C170.138 57.4153 170.583 58.1997 170.777 59.0609C170.971 59.922 170.905 60.8212 170.588 61.6449C170.27 62.4686 169.715 63.18 168.993 63.689C168.894 63.7508 168.81 63.8337 168.747 63.9318C168.684 64.0299 168.643 64.1408 168.629 64.2564C168.614 64.372 168.625 64.4894 168.661 64.6001C168.697 64.7109 168.758 64.8122 168.838 64.8968C171.109 67.5797 170.898 71.4858 169.744 74.6621C168.457 78.1416 165.765 81.0661 162.871 83.3378C161.15 84.6634 159.317 85.838 157.393 86.8481C156.544 87.321 157.326 88.6573 158.202 88.1844Z" fill="#111C47"/>
<path d="M144.219 116.447L144.373 110.84C144.356 110.511 144.42 110.183 144.559 109.884C144.883 109.313 145.65 109.2 146.309 109.19C157.373 109 165.008 119.361 172.195 126.326C179.197 133.115 187.48 131.681 195.388 136.959C199.78 139.889 204.3 143.888 204.491 149.161C204.681 154.434 200.459 158.731 196.562 162.308C191.929 166.558 186.616 171.076 180.324 170.963C177.75 170.917 175.274 170.084 172.838 169.257L157.635 164.117" fill="#568CC4"/>
<path d="M108.966 195.232C118.776 195.78 128.592 196.164 138.415 196.383C142.693 196.476 146.652 196.65 150.823 195.735C155.188 194.774 160.187 195.278 164.656 195.026C164.963 195.043 165.267 194.958 165.521 194.785C165.65 194.639 165.747 194.468 165.807 194.283C165.867 194.099 165.889 193.904 165.871 193.71C166.154 186.561 167.04 179.458 167.04 172.355C167.164 165.206 168.44 157.964 168.729 150.815C169.001 144.098 169.017 137.277 167.287 130.771C166.256 126.789 164.423 123.058 161.901 119.806C159.378 116.554 156.218 113.849 152.614 111.857C138.523 104.189 113.569 110.896 105.795 124.706C100.564 133.998 101.867 142.54 102.552 152.393C103.066 160.102 103.329 167.812 103.581 175.521C103.746 180.789 103.581 186.078 103.519 191.351C103.439 192.141 103.578 192.938 103.921 193.654C104.637 194.846 106.248 195.052 107.633 195.134L108.966 195.232Z" fill="#568CC4"/>
<path d="M130.866 121.222C130.839 117.544 130.13 113.902 128.775 110.481C128.712 110.281 128.594 110.104 128.436 109.967C128.193 109.82 127.91 109.754 127.627 109.777C123.093 109.694 118.574 110.335 114.242 111.673C110.7 112.768 107.966 115.122 105.536 117.712C99.4762 124.173 94.3433 131.666 89.2052 138.733C87.2412 141.306 85.4459 144.003 83.8303 146.808C80.0308 153.797 78.6819 162.226 81.704 169.627C84.7261 177.028 92.6443 182.99 101.206 182.898C103.973 182.858 106.694 182.194 109.168 180.957C111.642 179.72 113.804 177.942 115.493 175.754C118.803 171.308 122.7 166.369 124.713 161.234C126.165 157.493 126.886 153.525 127.602 149.609L131.803 126.48" fill="#568CC4"/>
<path d="M165.822 128.427C165.88 133.008 165.909 137.589 165.909 142.171C165.909 146.752 165.882 151.309 165.827 155.842C165.796 158.432 165.755 161.023 165.703 163.613C165.703 164.605 167.248 164.605 167.248 163.613C167.337 159.032 167.397 154.452 167.428 149.875C167.459 145.297 167.459 140.738 167.428 136.198C167.428 133.608 167.404 131.018 167.356 128.427C167.356 128.223 167.274 128.027 167.13 127.882C166.985 127.737 166.788 127.656 166.584 127.656C166.379 127.656 166.182 127.737 166.037 127.882C165.893 128.027 165.811 128.223 165.811 128.427H165.822Z" fill="#4479AA"/>
<path d="M126.102 94.3418C127.72 100.124 128.144 106.174 127.347 112.125C133.321 112.733 139.35 112.503 145.259 111.441C144.678 107.467 144.701 103.428 145.326 99.4609" fill="#D99C9A"/>
<path d="M163.536 77.5306C163.536 75.5827 163.454 73.6399 163.33 71.7331C163.109 68.2331 163.027 64.6867 161.271 61.5104C160.735 60.5195 160.07 59.6036 159.294 58.7864C157.003 56.3811 153.734 54.8444 149.193 53.4824C140.137 50.7738 129.887 53.5132 123.791 60.6161C119.806 65.2418 118.153 70.2632 117.891 76.3228C117.613 82.7628 118.478 88.9663 122.874 93.9414C132.826 105.182 153.976 104.961 160.972 90.5801C161.344 89.8234 161.667 89.044 161.94 88.2467C163.062 84.7873 163.601 81.1662 163.536 77.5306V77.5306Z" fill="#FFC2B8"/>
<path d="M120.555 78.1988C119.755 77.7016 118.922 77.2586 118.063 76.8728C117.309 76.4924 116.49 76.2554 115.648 76.1738C114.859 76.1746 114.08 76.3551 113.371 76.7016C112.661 77.048 112.041 77.5513 111.556 78.1731C109.115 81.0719 109.594 85.8826 112.462 88.3856C114.845 90.4414 118.511 90.6984 121.296 89.2696" fill="#FFC2B8"/>
<path d="M136.82 80.3675C137.838 80.3675 138.663 79.5437 138.663 78.5275C138.663 77.5113 137.838 76.6875 136.82 76.6875C135.802 76.6875 134.977 77.5113 134.977 78.5275C134.977 79.5437 135.802 80.3675 136.82 80.3675Z" fill="#1D2C38"/>
<path d="M150.327 80.3675C151.345 80.3675 152.171 79.5437 152.171 78.5275C152.171 77.5113 151.345 76.6875 150.327 76.6875C149.31 76.6875 148.484 77.5113 148.484 78.5275C148.484 79.5437 149.31 80.3675 150.327 80.3675Z" fill="#1D2C38"/>
<path d="M131.822 90.0357C133.366 88.9667 133.881 86.4637 133.078 84.7625C132.751 84.0928 132.269 83.5103 131.672 83.0635C131.075 82.6166 130.379 82.3181 129.644 82.1927C128.912 82.0821 128.166 82.1202 127.449 82.3048C126.732 82.4894 126.06 82.8166 125.474 83.2668C123.414 84.8087 123.682 88.1032 125.649 89.7428C126.512 90.4102 127.569 90.7816 128.66 90.8015C129.769 90.894 130.878 90.6253 131.822 90.0357Z" fill="#F7A797"/>
<path d="M159.672 89.8026C160.934 88.7747 161.31 86.3385 160.676 84.663C160.462 84.0529 160.1 83.5054 159.622 83.0694C159.144 82.6335 158.565 82.3227 157.937 82.1651C157.341 82.0624 156.729 82.102 156.151 82.2807C155.573 82.4593 155.045 82.772 154.612 83.1931C152.959 84.6938 153.18 87.8907 154.751 89.4788C155.395 90.1099 156.253 90.4768 157.155 90.5068C158.054 90.6038 158.955 90.3516 159.672 89.8026V89.8026Z" fill="#F7A797"/>
<path d="M114.191 83.1628L117.682 84.1137C117.877 84.1614 118.083 84.1314 118.256 84.03C118.429 83.9286 118.556 83.7638 118.61 83.5706C118.663 83.3773 118.64 83.1709 118.543 82.995C118.447 82.819 118.286 82.6875 118.094 82.6283L114.629 81.6724C114.431 81.6178 114.219 81.6441 114.041 81.7453C113.862 81.8465 113.731 82.0144 113.676 82.212C113.622 82.4097 113.648 82.6209 113.749 82.7992C113.851 82.9775 114.019 83.1083 114.217 83.1628H114.191Z" fill="#BD5C55"/>
<path d="M165.647 63.2617C163.804 59.9929 160.375 56.1587 157.925 54.3958C157.082 53.7823 156.168 53.2748 155.201 52.8848C153.924 51.6667 152.061 50.8289 150.743 50.2584C145.079 47.9148 138.304 47.8685 132.533 49.7445C124.584 52.3143 118.313 58.6463 115.409 66.402C113.932 70.3338 113.901 77.3648 119.749 75.2113C125.598 73.0578 130.561 68.0158 133.063 62.3879C133.825 60.6816 156.426 69.7581 158.481 70.5137C160.452 71.2435 163.747 72.7905 165.58 71.2281C167.006 70.01 167.161 66.9314 166.61 65.3175C166.349 64.6058 166.027 63.9179 165.647 63.2617V63.2617Z" fill="#111C47"/>
<path d="M166.319 62.8723C165.283 61.1074 164.076 59.4479 162.715 57.9177C161.496 56.4734 160.133 55.1561 158.648 53.986C157.657 53.2249 156.566 52.6039 155.405 52.1408L155.744 52.3413C154.669 51.3768 153.443 50.5939 152.115 50.0233C150.834 49.4292 149.506 48.941 148.145 48.5636C143.978 47.4633 139.612 47.3408 135.389 48.2057C131.166 49.0706 127.201 50.8995 123.804 53.5491C119.715 56.8086 116.58 61.1066 114.727 65.9921C114.067 67.6984 113.756 69.5193 113.811 71.3476C113.878 73.0025 114.326 74.8476 115.788 75.8088C117.646 77.032 120.046 75.9835 121.817 75.1406C124.283 73.9402 126.525 72.3251 128.443 70.3659C130.379 68.4288 131.998 66.2002 133.241 63.7615C133.38 63.4891 133.519 63.2064 133.648 62.9289C133.648 62.9289 133.735 62.7233 133.74 62.7233C133.745 62.7233 133.57 62.9186 133.668 62.8261C133.766 62.7336 133.457 62.9751 133.56 62.9135C133.663 62.8518 133.447 62.9546 133.442 62.9546C133.495 62.9499 133.547 62.9378 133.596 62.9186C133.709 62.8724 133.364 62.9186 133.493 62.9186H133.807C133.893 62.9135 133.979 62.9135 134.065 62.9186C134.178 62.9186 134.461 62.9751 134.188 62.9186C136.882 63.4652 139.529 64.2196 142.106 65.1749C145.453 66.3159 148.768 67.5494 152.068 68.8086C154.128 69.5898 156.136 70.4019 158.179 71.1677C159.116 71.5223 160.043 71.9027 161.006 72.1956C162.216 72.5605 163.611 72.8278 164.847 72.432C167.271 71.6611 167.874 68.6955 167.622 66.4649C167.423 65.1902 166.973 63.9674 166.298 62.8672C166.192 62.6985 166.023 62.5778 165.829 62.5304C165.635 62.4831 165.43 62.5128 165.257 62.6134C165.084 62.7139 164.957 62.8774 164.903 63.0695C164.848 63.2616 164.871 63.4673 164.965 63.6433C165.349 64.2938 165.663 64.9829 165.902 65.6991C166.052 66.1658 166.127 66.6533 166.123 67.1434C166.15 67.7233 166.098 68.3041 165.969 68.8703C165.877 69.3786 165.679 69.8619 165.387 70.2888C165.253 70.4841 165.48 70.186 165.331 70.3659L165.212 70.4996L165.083 70.6229L164.986 70.7C164.777 70.8599 164.537 70.9722 164.28 71.0289C163.758 71.1353 163.22 71.144 162.695 71.0546C161.416 70.7822 160.168 70.3845 158.967 69.8674C156.831 69.0502 154.704 68.2124 152.563 67.3952C149.062 66.0589 145.551 64.7534 141.998 63.5508C140.454 63.0368 138.863 62.5229 137.272 62.0757C136.177 61.7304 135.048 61.5013 133.905 61.3921C133.521 61.3475 133.133 61.4154 132.788 61.5874C132.547 61.7453 132.366 61.9785 132.273 62.2504C131.969 62.9032 131.635 63.5405 131.274 64.1675C129.848 66.6351 128.009 68.8409 125.837 70.6897C124.771 71.6033 123.62 72.4122 122.398 73.1053C121.263 73.797 120.038 74.3313 118.758 74.6935L118.393 74.7757H118.223C118.089 74.7757 118.403 74.7757 118.187 74.7757C117.959 74.7886 117.73 74.7886 117.502 74.7757C117.461 74.7757 117.265 74.7448 117.477 74.7757H117.368C117.271 74.7757 117.173 74.7346 117.075 74.7038C116.977 74.6729 116.735 74.5701 116.941 74.6678C116.854 74.6267 116.761 74.5804 116.673 74.529C116.586 74.4776 116.534 74.4365 116.467 74.3954C116.653 74.5136 116.437 74.3645 116.39 74.3234C116.33 74.269 116.273 74.2106 116.22 74.1487L116.117 74.0356C116.009 73.9122 116.205 74.1743 116.117 74.0356C116.03 73.8968 115.922 73.7324 115.839 73.5679C115.839 73.5216 115.69 73.2287 115.772 73.4343C115.731 73.3315 115.69 73.2287 115.654 73.1207C115.618 73.0128 115.546 72.7558 115.505 72.5657C115.505 72.4731 115.464 72.3755 115.448 72.2778L115.417 72.098C115.381 71.8975 115.417 72.2624 115.417 72.062C115.368 71.596 115.348 71.1274 115.355 70.6589C115.355 70.443 115.355 70.222 115.391 70.001C115.391 69.8931 115.391 69.78 115.422 69.672C115.453 69.5641 115.422 69.5384 115.422 69.4716C115.422 69.4048 115.453 69.23 115.422 69.4151C115.489 68.9371 115.582 68.4643 115.695 67.9914C116.342 65.643 117.368 63.4157 118.733 61.3973C121.801 56.4888 126.417 52.7391 131.856 50.7393C137.294 48.7395 143.244 48.6033 148.768 50.3522C150.122 50.7757 151.428 51.3372 152.666 52.0278C153.317 52.3764 153.926 52.7971 154.483 53.2818C154.658 53.443 154.86 53.5718 155.08 53.6622L155.528 53.8626C155.913 54.0479 156.288 54.2538 156.65 54.4793C157.208 54.8197 157.738 55.2029 158.236 55.6255C158.727 56.0367 159.201 56.4684 159.657 56.9207C160.71 57.9558 161.697 59.0562 162.612 60.2152C163.475 61.296 164.254 62.4403 164.944 63.6381C165.046 63.8201 165.216 63.9543 165.417 64.0112C165.618 64.068 165.833 64.0429 166.015 63.9414C166.198 63.8398 166.332 63.6701 166.389 63.4697C166.446 63.2692 166.421 63.0543 166.319 62.8723V62.8723Z" fill="#111C47"/>
<path d="M149.178 72.7049C149.261 72.6689 149.261 72.6638 149.178 72.7049L149.307 72.6484L149.575 72.561C149.757 72.5079 149.943 72.465 150.131 72.4325C150.218 72.4325 150.223 72.4325 150.131 72.4325H150.27C150.364 72.4274 150.459 72.4274 150.553 72.4325C150.724 72.4228 150.896 72.4228 151.068 72.4325C151.104 72.4325 151.351 72.4685 151.181 72.4325L151.459 72.4839C151.644 72.5251 151.826 72.5766 152.005 72.6381C152.005 72.6381 152.298 72.7563 152.149 72.6895L152.406 72.8129C152.573 72.9006 152.735 72.9984 152.89 73.1058C153.065 73.2006 153.269 73.2247 153.461 73.173C153.652 73.1213 153.817 72.9978 153.92 72.8283C154.011 72.6533 154.033 72.4506 153.982 72.2602C153.93 72.0698 153.809 71.9057 153.642 71.8003C152.867 71.2846 151.971 70.9776 151.042 70.9092C150.113 70.8407 149.182 71.0132 148.339 71.4097C148.17 71.5134 148.047 71.6775 147.996 71.8686C147.944 72.0597 147.967 72.2632 148.061 72.4377C148.169 72.6104 148.339 72.7354 148.536 72.7871C148.733 72.8387 148.943 72.813 149.122 72.7152L149.178 72.7049Z" fill="#1D2C38"/>
<path d="M139.388 71.3726C138.545 70.976 137.614 70.8036 136.685 70.8721C135.756 70.9405 134.86 71.2475 134.085 71.7632C133.997 71.8145 133.921 71.8825 133.86 71.9634C133.798 72.0442 133.754 72.1363 133.728 72.2344C133.702 72.3325 133.697 72.4346 133.71 72.535C133.724 72.6354 133.758 72.732 133.809 72.8194C133.861 72.9068 133.929 72.9833 134.01 73.0444C134.091 73.1055 134.183 73.1501 134.281 73.1757C134.38 73.2012 134.482 73.2072 134.583 73.1932C134.683 73.1793 134.78 73.1457 134.867 73.0944C135.022 72.9859 135.184 72.8881 135.351 72.8015L135.604 72.6781C135.46 72.7449 135.722 72.637 135.748 72.6267C135.927 72.5651 136.109 72.5137 136.294 72.4725L136.577 72.4211C136.407 72.4468 136.654 72.4211 136.685 72.4211C136.856 72.4116 137.028 72.4116 137.2 72.4211H137.483H137.622C137.534 72.4211 137.534 72.4211 137.622 72.4211C137.808 72.4536 137.992 72.4965 138.173 72.5496L138.44 72.637L138.574 72.6935C138.497 72.6575 138.502 72.6627 138.574 72.6935C138.662 72.7489 138.76 72.7861 138.862 72.8028C138.965 72.8195 139.069 72.8155 139.17 72.7909C139.271 72.7664 139.366 72.7218 139.449 72.6598C139.532 72.5979 139.602 72.5198 139.654 72.4303C139.707 72.3408 139.74 72.2417 139.753 72.1389C139.766 72.0362 139.758 71.9318 139.73 71.8322C139.702 71.7325 139.654 71.6395 139.589 71.5588C139.524 71.4781 139.443 71.4113 139.352 71.3624L139.388 71.3726Z" fill="#1D2C38"/>
<path d="M124.515 113.611C124.14 111.461 124.383 109.25 125.216 107.232C125.275 107.025 125.404 106.843 125.581 106.718C125.776 106.632 125.995 106.619 126.199 106.682C128.341 107.135 130.426 108.014 132.511 108.671C135.392 109.585 138.325 110.326 141.294 110.892C141.521 110.912 141.738 110.997 141.917 111.138C142.236 111.447 142.102 111.986 141.917 112.393C140.465 115.702 137.947 117.388 134.549 118.349C132.49 118.93 130.261 119.269 128.305 118.447C127.336 117.995 126.489 117.322 125.83 116.481C125.172 115.641 124.722 114.657 124.515 113.611V113.611Z" fill="#568CC4"/>
<path d="M143.139 115.681C142.166 115.131 139.932 112.751 140.308 111.533C140.534 110.803 141.899 110.109 142.444 109.601C143.297 108.806 144.076 107.935 144.771 107C145.142 106.486 145.636 105.905 146.254 106.013C146.489 106.071 146.707 106.186 146.887 106.347C149.014 108.012 149.904 110.973 149.781 113.625C149.637 116.57 145.106 116.781 143.139 115.681Z" fill="#568CC4"/>
<path d="M148.805 111.605C148.66 114.225 147.903 116.775 146.597 119.052L147.812 118.898L142.149 113.245C142.003 113.102 141.807 113.021 141.603 113.021C141.399 113.021 141.203 113.102 141.057 113.245C140.106 114.475 139.108 115.664 138.061 116.812C137.546 117.398 136.98 117.978 136.419 118.544C135.953 119.06 135.454 119.546 134.925 119.998C134.856 120.07 134.763 120.115 134.664 120.127C134.564 120.138 134.464 120.114 134.38 120.06C134.049 119.887 133.73 119.691 133.427 119.474C132.825 119.083 132.238 118.677 131.661 118.246C129.267 116.445 127.126 114.333 125.293 111.965C125.185 111.793 125.016 111.67 124.82 111.619C124.623 111.568 124.415 111.595 124.237 111.693C124.069 111.796 123.946 111.96 123.894 112.151C123.842 112.342 123.866 112.546 123.959 112.72C125.861 115.232 128.091 117.477 130.591 119.397C131.188 119.854 131.806 120.286 132.434 120.702C133.062 121.119 133.824 121.705 134.653 121.694C135.482 121.684 136.146 120.964 136.712 120.404C137.278 119.844 137.896 119.227 138.473 118.616C139.753 117.245 140.966 115.823 142.113 114.35H141.021L146.684 120.003C146.769 120.085 146.87 120.147 146.982 120.184C147.093 120.22 147.212 120.232 147.328 120.216C147.444 120.201 147.556 120.159 147.654 120.095C147.752 120.031 147.834 119.945 147.894 119.844C149.331 117.328 150.16 114.512 150.314 111.621C150.314 111.416 150.233 111.22 150.088 111.075C149.943 110.931 149.746 110.85 149.542 110.85C149.337 110.85 149.14 110.931 148.996 111.075C148.851 111.22 148.769 111.416 148.769 111.621L148.805 111.605Z" fill="#4479AA"/>
<path d="M198.577 115.064C196.549 119.757 192.507 124.316 189.516 128.361C186.525 132.406 183.652 136.81 182.591 141.811C181.531 146.812 182.705 152.548 186.484 155.03C191.009 158.006 197.486 155.148 201.1 150.312C204.714 145.476 206.176 139.241 207.52 133.259C208.261 129.949 208.93 124.624 209.677 121.314" fill="#FFC2B8"/>
<path d="M117.062 122.414C117.397 130.359 116.841 138.316 115.405 146.138C114.996 148.331 114.521 150.51 113.979 152.676C113.742 153.642 115.23 154.053 115.472 153.087C117.421 145.277 118.495 137.275 118.674 129.229C118.725 126.957 118.703 124.685 118.607 122.414C118.602 122.211 118.519 122.018 118.375 121.874C118.231 121.731 118.038 121.648 117.835 121.643C117.63 121.644 117.435 121.726 117.29 121.87C117.146 122.014 117.064 122.209 117.062 122.414Z" fill="#4479AA"/>
<path d="M112.991 154.733C110.213 150.924 106.553 147.841 102.324 145.749C101.126 145.15 99.8871 144.634 98.617 144.207C98.4236 144.165 98.2214 144.199 98.0521 144.301C97.8827 144.403 97.7592 144.567 97.707 144.757C97.6548 144.948 97.6779 145.151 97.7716 145.325C97.8652 145.499 98.0223 145.631 98.2103 145.693C102.398 147.099 106.187 149.487 109.259 152.657C110.124 153.545 110.926 154.493 111.658 155.494C111.765 155.665 111.935 155.789 112.131 155.84C112.327 155.891 112.536 155.864 112.713 155.766C112.889 155.662 113.017 155.494 113.069 155.296C113.121 155.099 113.093 154.89 112.991 154.713V154.733Z" fill="#4479AA"/>
<path d="M104.787 152.244C100.522 151.586 96.1586 152.347 92.369 154.408C91.3058 155 90.2994 155.688 89.3623 156.464C89.2202 156.609 89.1406 156.805 89.1406 157.008C89.1406 157.212 89.2202 157.407 89.3623 157.553C89.5099 157.694 89.7063 157.773 89.9106 157.773C90.1149 157.773 90.3113 157.694 90.4589 157.553C93.4751 155.103 97.2093 153.701 101.095 153.56C102.192 153.515 103.29 153.574 104.375 153.734C104.569 153.784 104.775 153.759 104.952 153.663C105.128 153.568 105.262 153.41 105.327 153.22C105.378 153.023 105.351 152.813 105.25 152.636C105.149 152.458 104.983 152.327 104.787 152.27V152.244Z" fill="#4479AA"/>
<path d="M135.942 86.4276C137.303 87.5272 138.907 88.2872 140.621 88.6448C142.334 89.0023 144.108 88.947 145.796 88.4835C145.979 88.4156 146.129 88.2822 146.217 88.1094C146.305 87.9366 146.326 87.737 146.274 87.55C146.222 87.3629 146.102 87.202 145.938 87.0989C145.773 86.9958 145.576 86.958 145.385 86.993C143.961 87.3951 142.463 87.4558 141.012 87.17C139.561 86.8842 138.198 86.2599 137.034 85.3483C136.885 85.211 136.691 85.1348 136.488 85.1348C136.286 85.1348 136.091 85.211 135.942 85.3483C135.799 85.4935 135.719 85.6892 135.719 85.8931C135.719 86.097 135.799 86.2927 135.942 86.4379V86.4276Z" fill="#BD5C55"/>
<path d="M208.206 125.775C207.585 126.009 206.929 126.136 206.265 126.151C204.834 126.11 203.429 125.76 202.147 125.123C199.923 124.167 197.688 122.872 196.52 120.733C194.661 117.336 196.056 113.081 197.472 109.426C201.158 99.9129 205.946 91.0676 209.076 81.3126C209.463 80.0996 210.204 78.6091 211.455 78.7428C211.771 78.794 212.068 78.9295 212.313 79.1348C212.559 79.3401 212.744 79.6077 212.85 79.9095C213.056 80.5246 213.129 81.176 213.066 81.8214C212.896 85.3472 211.687 88.7085 210.595 92.0389C209.967 93.9457 207.903 98.0369 210.312 99.4143C211.048 99.8357 211.949 99.8357 212.778 100.021C213.607 100.206 214.492 100.725 214.59 101.563C214.585 101.784 214.619 102.005 214.688 102.215C214.87 102.468 215.143 102.639 215.45 102.693C216.325 102.981 217.237 103.598 217.303 104.528C217.345 105.119 217.072 105.839 217.509 106.219C217.799 106.392 218.135 106.475 218.472 106.456C219.816 106.605 220.799 107.92 220.964 109.282C221.129 110.644 220.64 112.001 220.027 113.235C218.781 115.727 216.279 116.509 214.879 118.888C213.375 121.355 210.981 124.732 208.206 125.775Z" fill="#FFC2B8"/>
<path d="M206.599 119.233C207.519 118.518 208.274 117.614 208.813 116.581C209.091 116.055 209.307 115.498 209.456 114.921C209.521 114.664 209.571 114.403 209.605 114.14C209.605 113.975 209.647 113.816 209.667 113.626V113.585C209.667 113.508 209.693 113.431 209.703 113.354C209.739 113.179 209.789 113.007 209.853 112.84C209.786 113.009 209.853 112.814 209.894 112.762C209.916 112.734 209.935 112.703 209.95 112.67C210.022 112.536 209.847 112.762 209.95 112.67L210.094 112.526C209.961 112.66 210.094 112.526 210.151 112.495C210.212 112.457 210.276 112.423 210.342 112.392C210.46 112.326 210.342 112.392 210.316 112.392C210.372 112.367 210.431 112.346 210.491 112.331C211.474 112.002 212.55 111.986 213.513 111.632C214.129 111.452 214.691 111.123 215.15 110.675C215.609 110.227 215.95 109.673 216.144 109.062C216.269 108.48 216.215 107.875 215.989 107.324C215.763 106.774 215.375 106.305 214.877 105.978C213.907 105.329 212.795 104.922 211.634 104.791C210.268 104.578 208.876 104.591 207.515 104.832C206.276 105.082 205.062 105.44 203.886 105.901C202.683 106.272 201.575 106.898 200.637 107.736C200.501 107.882 200.426 108.075 200.43 108.275C200.433 108.475 200.514 108.665 200.656 108.807C200.797 108.948 200.988 109.029 201.188 109.032C201.388 109.036 201.582 108.962 201.728 108.826C202.409 108.223 203.204 107.763 204.066 107.474C204.972 107.129 205.909 106.831 206.841 106.569C208.012 106.24 209.231 106.115 210.445 106.199C211.514 106.239 212.564 106.493 213.534 106.944C213.88 107.116 214.189 107.355 214.44 107.649C214.555 107.79 214.636 107.957 214.675 108.136C214.714 108.314 214.711 108.499 214.666 108.676C214.424 109.632 213.441 110.105 212.54 110.342C211.654 110.483 210.777 110.677 209.914 110.922C209.55 111.051 209.219 111.259 208.946 111.532C208.674 111.805 208.466 112.136 208.339 112.5C208.213 112.945 208.13 113.401 208.092 113.862C208.014 114.402 207.865 114.929 207.649 115.43C207.168 116.493 206.431 117.42 205.502 118.128C205.359 118.273 205.278 118.469 205.278 118.673C205.278 118.877 205.359 119.073 205.502 119.218C205.649 119.357 205.845 119.435 206.048 119.435C206.251 119.435 206.446 119.357 206.594 119.218L206.599 119.233Z" fill="#BD5C55"/>
<path d="M207.922 103.228V105.407C207.922 105.612 208.003 105.808 208.148 105.952C208.293 106.097 208.489 106.178 208.694 106.178C208.899 106.178 209.095 106.097 209.24 105.952C209.385 105.808 209.466 105.612 209.466 105.407V103.228C209.465 103.024 209.383 102.829 209.239 102.684C209.094 102.54 208.899 102.458 208.694 102.457C208.491 102.461 208.296 102.543 208.152 102.687C208.008 102.831 207.926 103.025 207.922 103.228V103.228Z" fill="#BD5C55"/>
<path d="M212.883 103.973C212.747 104.665 212.695 105.37 212.729 106.075C212.736 106.278 212.816 106.471 212.955 106.62C213.101 106.763 213.296 106.844 213.501 106.846C213.603 106.847 213.705 106.827 213.799 106.789C213.894 106.75 213.98 106.692 214.052 106.62C214.124 106.548 214.181 106.463 214.219 106.37C214.257 106.276 214.275 106.176 214.273 106.075C214.248 105.587 214.267 105.099 214.33 104.615L214.304 104.821C214.304 104.672 214.345 104.528 214.371 104.384C214.421 104.184 214.393 103.973 214.294 103.793C214.193 103.619 214.029 103.492 213.836 103.438C213.736 103.411 213.632 103.403 213.529 103.417C213.427 103.43 213.328 103.463 213.238 103.515C213.152 103.564 213.076 103.63 213.015 103.709C212.954 103.787 212.909 103.877 212.883 103.973V103.973Z" fill="#BD5C55"/>
<path d="M210.995 112.567C211.416 113.363 212.121 113.972 212.97 114.275C213.819 114.577 214.751 114.551 215.582 114.201C217.641 113.276 218.089 110.85 218.347 108.851C218.403 108.44 217.955 108.08 217.574 108.08C217.371 108.085 217.178 108.168 217.034 108.312C216.89 108.455 216.807 108.648 216.802 108.851C216.733 109.678 216.56 110.493 216.287 111.277C216.043 111.928 215.579 112.473 214.974 112.819C214.774 112.932 215.057 112.819 214.861 112.865L214.645 112.932C214.571 112.952 214.495 112.968 214.418 112.978C214.568 112.978 214.346 112.978 214.321 112.978C214.23 112.983 214.139 112.983 214.048 112.978H213.935C214.001 112.978 214.007 112.978 213.935 112.978C213.771 112.946 213.609 112.903 213.451 112.85C213.301 112.809 213.497 112.886 213.348 112.809C213.277 112.777 213.208 112.741 213.142 112.701L212.946 112.582C212.766 112.464 213.018 112.659 212.859 112.516C212.632 112.33 212.456 112.092 212.344 111.822C212.295 111.73 212.228 111.65 212.147 111.585C212.066 111.52 211.973 111.472 211.873 111.444C211.773 111.416 211.669 111.408 211.566 111.421C211.463 111.434 211.364 111.467 211.274 111.52C211.184 111.572 211.106 111.641 211.044 111.724C210.982 111.808 210.937 111.902 210.913 112.003C210.888 112.103 210.884 112.208 210.901 112.31C210.918 112.412 210.955 112.51 211.01 112.598L210.995 112.567Z" fill="#BD5C55"/>
<path d="M213.902 114.211C213.944 114.454 214.031 114.688 214.159 114.899C214.288 115.114 214.451 115.305 214.643 115.465C214.762 115.563 214.888 115.652 215.019 115.732C215.154 115.803 215.293 115.865 215.436 115.917C215.678 115.998 215.933 116.032 216.188 116.015C216.391 116.011 216.585 115.932 216.734 115.794C216.879 115.648 216.96 115.451 216.96 115.246C216.96 115.041 216.879 114.844 216.734 114.699C216.588 114.556 216.392 114.475 216.188 114.473C216.101 114.483 216.013 114.483 215.925 114.473H216.131C216.004 114.456 215.88 114.423 215.761 114.375L215.941 114.452C215.822 114.4 215.71 114.335 215.606 114.257L215.761 114.375C215.652 114.292 215.555 114.196 215.472 114.087L215.591 114.242C215.518 114.144 215.456 114.039 215.405 113.928L215.483 114.113C215.439 114.006 215.407 113.894 215.39 113.779C215.364 113.683 215.319 113.593 215.258 113.515C215.197 113.436 215.121 113.371 215.035 113.322C214.854 113.218 214.64 113.188 214.437 113.239C214.245 113.296 214.082 113.422 213.979 113.594L213.902 113.779C213.866 113.914 213.866 114.055 213.902 114.19V114.211Z" fill="#BD5C55"/>
<path d="M151.998 84.0565C150.57 84.0395 149.206 83.4591 148.206 82.442C147.205 81.4249 146.648 80.0538 146.656 78.6281C146.665 77.2025 147.238 75.8381 148.251 74.8329C149.264 73.8278 150.634 73.2637 152.062 73.2637C153.49 73.2637 154.86 73.8278 155.873 74.8329C156.886 75.8381 157.459 77.2025 157.468 78.6281C157.476 80.0538 156.919 81.4249 155.918 82.442C154.918 83.4591 153.554 84.0395 152.126 84.0565H151.998ZM151.998 74.6767H151.905C151.128 74.6941 150.374 74.9412 149.739 75.3869C149.103 75.8325 148.614 76.4565 148.334 77.1798C148.054 77.9032 147.995 78.6932 148.165 79.4499C148.335 80.2065 148.727 80.8957 149.29 81.4301C149.659 81.7891 150.097 82.0701 150.577 82.2565C151.057 82.4428 151.57 82.5306 152.085 82.5146C153.103 82.4682 154.062 82.0293 154.761 81.2903C155.461 80.5513 155.845 79.57 155.834 78.5534C155.823 77.5368 155.416 76.5644 154.701 75.8411C153.985 75.1179 153.016 74.7003 151.998 74.6767Z" fill="white"/>
<path d="M144.399 75.9054C144.231 76.2685 144.155 76.6668 144.175 77.0661C144.196 77.4655 144.313 77.8538 144.518 78.1977C144.916 78.8244 145.38 79.4067 145.903 79.9349C146.082 80.1408 146.231 80.3709 146.345 80.6184C146.444 80.843 146.485 81.0886 146.464 81.3329C146.411 81.863 146.15 82.3507 145.738 82.6897C145.601 82.8359 145.527 83.0292 145.531 83.2289C145.534 83.4286 145.615 83.6192 145.757 83.7604C145.898 83.9017 146.089 83.9826 146.289 83.9861C146.489 83.9896 146.683 83.9155 146.829 83.7793C147.377 83.3041 147.756 82.6655 147.911 81.9582C148.065 81.2508 147.988 80.5124 147.689 79.8526C147.327 79.2151 146.876 78.632 146.35 78.1206C146.036 77.7608 145.527 77.0927 145.733 76.6815C145.823 76.5063 145.844 76.304 145.793 76.1139C145.741 75.9238 145.621 75.7597 145.455 75.6536C145.277 75.5522 145.067 75.5245 144.87 75.5764C144.672 75.6283 144.503 75.7557 144.399 75.9311V75.9054Z" fill="#BD5C55"/>
<path d="M139.097 84.3558C137.668 84.3535 136.297 83.7937 135.276 82.7959C134.256 81.7981 133.666 80.4415 133.634 79.0157C133.61 77.9366 133.907 76.8745 134.487 75.9638C135.068 75.0531 135.906 74.3346 136.895 73.8992C137.884 73.4639 138.981 73.3311 140.046 73.5178C141.111 73.7045 142.097 74.2022 142.878 74.948C143.66 75.6939 144.202 76.6543 144.437 77.708C144.672 78.7616 144.589 79.8611 144.198 80.8675C143.807 81.8739 143.126 82.742 142.241 83.362C141.356 83.982 140.306 84.326 139.225 84.3507L139.097 84.3558ZM139.097 74.976H139.004C138.228 74.9935 137.475 75.2401 136.84 75.6848C136.205 76.1295 135.716 76.7522 135.435 77.4742C135.154 78.1962 135.094 78.9851 135.263 79.7412C135.431 80.4972 135.82 81.1865 136.381 81.7218C136.942 82.2571 137.649 82.6144 138.413 82.7486C139.177 82.8828 139.964 82.7877 140.674 82.4755C141.384 82.1634 141.985 81.648 142.402 80.9947C142.818 80.3413 143.032 79.5794 143.014 78.805C142.99 77.7829 142.567 76.8105 141.835 76.0953C141.104 75.38 140.121 74.9784 139.097 74.976V74.976Z" fill="white"/>
<path d="M144.412 78.9632L144.474 78.8707C144.541 78.7731 144.474 78.8707 144.474 78.8707C144.474 78.8707 144.613 78.7114 144.638 78.6805L144.803 78.5315C144.803 78.5315 144.916 78.439 144.829 78.5315C144.741 78.624 144.829 78.5315 144.86 78.5315C144.928 78.4849 144.998 78.442 145.071 78.403C145.139 78.3767 145.205 78.344 145.266 78.3053C145.236 78.3362 145.133 78.3567 145.23 78.3053L145.333 78.2745C145.411 78.2491 145.49 78.2286 145.57 78.2128H145.606C145.493 78.2128 145.606 78.2128 145.642 78.2128H145.982C145.982 78.2128 146.137 78.2128 146.023 78.2128C145.91 78.2128 146.059 78.2128 146.085 78.2128H146.198L146.415 78.2848C146.538 78.3259 146.415 78.2848 146.415 78.2848L146.518 78.3362C146.596 78.3758 146.672 78.4204 146.744 78.4698L146.837 78.5315C146.929 78.5931 146.698 78.4184 146.837 78.5315C146.982 78.676 147.179 78.7569 147.384 78.7564C147.589 78.7559 147.786 78.6741 147.931 78.5289C148.076 78.3838 148.157 78.1871 148.156 77.9823C148.156 77.7775 148.074 77.5813 147.928 77.4368C147.583 77.1256 147.173 76.8947 146.728 76.7607C146.283 76.6267 145.813 76.5928 145.354 76.6616C144.894 76.7305 144.455 76.9002 144.069 77.1587C143.682 77.4171 143.358 77.7578 143.12 78.1563C143.064 78.2438 143.027 78.3417 143.01 78.4439C142.993 78.5461 142.997 78.6507 143.022 78.7513C143.047 78.8519 143.091 78.9466 143.153 79.0296C143.215 79.1126 143.294 79.1823 143.383 79.2345C143.473 79.2866 143.572 79.3203 143.675 79.3333C143.778 79.3463 143.883 79.3385 143.982 79.3103C144.082 79.2821 144.175 79.2341 144.256 79.1692C144.337 79.1042 144.404 79.0237 144.453 78.9324L144.412 78.9632Z" fill="white"/>
<path d="M155.066 196.194L113.091 191.429L106.82 130.812L148.79 135.577L155.066 196.194Z" fill="white"/>
<path d="M153.089 198.254L111.12 193.485L104.844 132.873L146.813 137.637L153.089 198.254Z" fill="#FFBE92"/>
<path d="M149.956 200.233L107.982 195.468L101.711 134.852L143.68 139.616L149.956 200.233Z" fill="#FFD55F"/>
<path d="M94.3201 173.934L94.1657 173.749C90.9943 169.797 92.9146 162.509 95.8801 159.009C99.6744 154.527 105.044 154.861 110.002 156.953C116.024 159.554 122.491 160.974 129.051 161.137C131.702 161.193 134.477 161.065 136.871 162.216C140.13 163.784 142.874 169.134 141.175 172.696C139.276 176.699 131.393 177.486 127.62 178.164C121.874 179.192 116.062 180.22 110.229 179.912C105.152 179.639 97.8262 178.087 94.3201 173.934Z" fill="#FFC2B8"/>
<path d="M125.438 164.051C129.345 164.364 132.949 162.18 136.074 159.939C139.199 157.698 142.448 155.241 146.345 154.83C150.376 154.409 154.273 156.316 157.471 158.649C158.325 159.276 159.216 160.067 159.247 161.085C159.278 162.103 157.774 163.007 157.074 162.231C158.15 163.352 159.242 164.662 159.175 166.173C159.108 167.684 157.172 169.077 155.875 168.183C156.321 168.602 156.653 169.127 156.84 169.71C157.026 170.293 157.061 170.914 156.94 171.513C156.763 172.094 156.387 172.595 155.878 172.928C155.369 173.262 154.76 173.406 154.155 173.338C155.555 174.88 153.326 176.519 151.869 176.828C148.214 177.609 144.476 175.867 140.744 176.021C138.092 176.134 135.595 177.193 132.99 177.732C130.385 178.272 127.399 178.19 125.463 176.381" fill="#FFC2B8"/>
<path d="M147.35 160.13C149.698 160.303 151.967 161.051 153.956 162.309C154.795 162.823 155.572 161.507 154.733 160.978C152.507 159.587 149.971 158.766 147.35 158.588C147.146 158.588 146.949 158.669 146.804 158.814C146.659 158.958 146.578 159.154 146.578 159.359C146.578 159.563 146.659 159.759 146.804 159.904C146.949 160.049 147.146 160.13 147.35 160.13V160.13Z" fill="#BD5C55"/>
<path d="M146.419 165.433C148.573 165.887 150.659 166.614 152.628 167.597C152.804 167.687 153.007 167.708 153.197 167.657C153.387 167.605 153.552 167.485 153.658 167.319C153.752 167.145 153.775 166.941 153.723 166.75C153.672 166.559 153.549 166.395 153.38 166.291C151.297 165.24 149.087 164.46 146.806 163.968C146.611 163.919 146.405 163.944 146.229 164.039C146.052 164.134 145.918 164.293 145.853 164.482C145.802 164.68 145.83 164.889 145.931 165.067C146.032 165.244 146.198 165.375 146.394 165.433H146.419Z" fill="#BD5C55"/>
<path d="M146.97 170.927L152.119 172.736C152.316 172.789 152.526 172.761 152.703 172.66C152.88 172.559 153.01 172.393 153.066 172.197C153.117 172.003 153.092 171.796 152.996 171.62C152.901 171.443 152.742 171.31 152.551 171.246L147.403 169.442C147.205 169.39 146.996 169.417 146.818 169.518C146.641 169.619 146.511 169.786 146.455 169.982C146.405 170.175 146.43 170.38 146.525 170.556C146.621 170.732 146.78 170.864 146.97 170.927V170.927Z" fill="#BD5C55"/>
<path d="M116.239 131.389C112.722 131.445 109.597 133.958 107.955 137.078C106.313 140.198 105.932 143.796 105.895 147.311C105.859 150.827 106.055 154.358 105.515 157.832C105.052 160.619 104.153 163.316 102.853 165.824C101.597 168.317 99.3262 170.501 98.2656 172.963C106.024 175.708 115.971 175.769 124.157 176.412C125.227 176.566 126.318 176.494 127.359 176.201C128.407 175.758 129.312 175.034 129.974 174.109C132.971 170.332 133.861 165.31 134.093 160.494C134.325 155.679 134.093 150.791 135.148 146.103C136.204 141.416 139.005 136.133 143.484 134.344L116.239 131.389Z" fill="white"/>
</g>
<path d="M221.512 81.9885C220.966 81.9874 220.422 81.928 219.888 81.8114L215.962 80.9551C214.06 80.5456 212.388 79.4176 211.292 77.8047C210.197 76.1918 209.761 74.2178 210.077 72.2917L211.678 62.5771C211.716 62.3422 211.846 62.1321 212.038 61.9931C212.231 61.8541 212.471 61.7976 212.705 61.836C212.939 61.8743 213.148 62.0045 213.287 62.1977C213.425 62.391 213.482 62.6315 213.443 62.8665L211.86 72.5751C211.619 74.0505 211.952 75.5622 212.79 76.7984C213.628 78.0346 214.907 78.901 216.363 79.2188L220.288 80.0751C221.74 80.3941 223.259 80.1435 224.533 79.3749C225.807 78.6062 226.739 77.3777 227.139 75.9413L229.764 66.268C229.835 66.0524 229.986 65.8723 230.185 65.7648C230.384 65.6574 230.617 65.6309 230.835 65.6908C231.054 65.7507 231.241 65.8923 231.358 66.0866C231.475 66.2808 231.513 66.5128 231.465 66.7346L228.822 76.3783C228.387 77.989 227.435 79.4111 226.114 80.425C224.793 81.439 223.176 81.9884 221.512 81.9885Z" fill="#D8E3FF"/>
<path d="M217.055 65.7119C218.979 61.3343 219.881 56.5734 219.692 51.7926C219.684 51.5823 219.603 51.3812 219.463 51.2251C219.322 51.0689 219.131 50.9677 218.923 50.9395C218.715 50.9112 218.504 50.9576 218.327 51.0705C218.15 51.1834 218.018 51.3556 217.955 51.5564C217.29 53.9777 218.467 58.0052 221.663 57.3084C224.635 56.6588 225.071 53.2277 225.142 50.7178C225.142 49.8851 223.859 49.4422 223.5 50.269C222.558 52.4363 221.934 56.8655 224.865 57.8989C225.474 58.0672 226.119 58.057 226.723 57.8697C227.327 57.6824 227.864 57.3258 228.273 56.8418C229.315 55.708 229.609 54.1371 229.844 52.6666C229.985 51.7749 228.667 50.9777 228.232 51.9816C227.602 53.4816 227.643 55.0761 227.178 56.6233C226.831 57.8044 226.36 58.9855 226.048 60.2021C225.459 62.6056 224.871 65.4285 225.589 67.8792C225.919 68.9659 227.625 68.5052 227.296 67.4127C226.631 65.2159 227.237 62.6352 227.802 60.4856C228.084 59.4167 228.461 58.395 228.808 57.3497C229.285 55.9029 229.161 54.3025 229.756 52.897L228.143 52.2119C228.049 53.1887 227.799 54.1438 227.402 55.0407C227.066 55.6666 226.319 56.4757 225.518 56.269C224.718 56.0623 224.565 54.9934 224.506 54.3379C224.414 53.2598 224.592 52.1759 225.024 51.1844L223.376 50.7356C223.335 52.3123 223.335 54.58 221.71 55.46C221.561 55.5505 221.393 55.6081 221.22 55.629C221.046 55.6499 220.87 55.6335 220.703 55.5811C220.536 55.5286 220.382 55.4412 220.251 55.3247C220.121 55.2081 220.016 55.065 219.945 54.9048C219.71 54.4768 219.564 54.0053 219.517 53.519C219.469 53.0327 219.521 52.5418 219.668 52.0761L217.932 51.8399C218.13 56.3086 217.31 60.7638 215.536 64.8674C215.083 65.9009 216.608 66.8045 217.061 65.7592L217.055 65.7119Z" fill="#D8E3FF"/>
<path d="M224.11 68.8964C222.962 68.8953 221.817 68.7706 220.696 68.5243C217.625 67.8531 214.822 66.2833 212.64 64.0134C210.458 61.7435 208.997 58.8755 208.439 55.772C207.882 52.6685 208.254 49.469 209.509 46.5779C210.764 43.6867 212.846 41.2339 215.49 39.5296C218.134 37.8252 221.223 36.9458 224.365 37.0026C227.507 37.0594 230.562 38.0498 233.143 39.8487C235.725 41.6475 237.717 44.1739 238.867 47.1085C240.017 50.0431 240.275 53.254 239.606 56.3354C238.837 59.888 236.882 63.0704 234.063 65.3549C231.245 67.6395 227.733 68.889 224.11 68.8964V68.8964ZM224.051 38.7783C221.387 38.7841 218.78 39.5453 216.529 40.974C214.279 42.4027 212.477 44.4407 211.331 46.853C210.185 49.2652 209.742 51.9534 210.053 54.6073C210.364 57.2613 211.417 59.7729 213.089 61.8525C214.762 63.932 216.986 65.4948 219.506 66.3604C222.025 67.2261 224.738 67.3594 227.329 66.745C229.921 66.1305 232.287 64.7934 234.154 62.8878C236.022 60.9822 237.314 58.5859 237.882 55.9751V55.9751C238.277 54.1561 238.311 52.2769 237.982 50.4447C237.652 48.6126 236.967 46.8634 235.964 45.2972C234.961 43.7309 233.66 42.3783 232.136 41.3165C230.612 40.2547 228.895 39.5046 227.082 39.109C226.093 38.8835 225.082 38.7667 224.068 38.7605L224.051 38.7783Z" fill="#D8E3FF"/>
<path d="M230.534 73.2073H230.47L209.711 71.7132C209.595 71.7057 209.482 71.6753 209.378 71.6236C209.274 71.5719 209.182 71.5001 209.106 71.4122C209.029 71.3243 208.972 71.2221 208.935 71.1116C208.899 71.0011 208.884 70.8844 208.893 70.7683C208.911 70.5337 209.021 70.3159 209.198 70.1621C209.376 70.0083 209.607 69.9312 209.841 69.9475L230.593 71.4357C230.827 71.4443 231.049 71.5458 231.208 71.7181C231.368 71.8903 231.452 72.119 231.444 72.354C231.435 72.5889 231.334 72.8108 231.162 72.9708C230.991 73.1309 230.763 73.2159 230.529 73.2073H230.534Z" fill="#D8E3FF"/>
<path d="M229.642 77.3054H229.577L208.813 75.8113C208.697 75.8031 208.584 75.7719 208.48 75.7196C208.375 75.6673 208.283 75.5949 208.207 75.5066C208.131 75.4182 208.073 75.3156 208.037 75.2048C208 75.0939 207.986 74.9769 207.995 74.8605C208.003 74.7448 208.034 74.632 208.086 74.5283C208.137 74.4247 208.209 74.3323 208.297 74.2566C208.384 74.1808 208.486 74.1232 208.596 74.087C208.705 74.0508 208.821 74.0367 208.936 74.0455L229.701 75.5337C229.935 75.5424 230.156 75.6439 230.316 75.8161C230.475 75.9884 230.56 76.2171 230.551 76.452C230.543 76.687 230.441 76.9089 230.27 77.0689C230.098 77.2289 229.87 77.314 229.636 77.3054H229.642Z" fill="#D8E3FF"/>
<defs>
<clipPath id="clip0_814_1548">
<rect width="186" height="145" fill="white" transform="translate(35 45.9883)"/>
</clipPath>
</defs>
</svg>
