<svg width="352" height="259" viewBox="0 0 352 259" fill="none" xmlns="http://www.w3.org/2000/svg">
<path d="M0 3C0 1.34315 1.34315 0 3 0H348C349.657 0 351 1.34315 351 3V259H0V3Z" fill="#F6F7FE"/>
<path d="M48 259H351.5V119C197.5 119 85 212.333 48 259Z" fill="#E9EBF9"/>
<ellipse cx="131.277" cy="220.86" rx="25.735" ry="10.4846" transform="rotate(-33.1817 131.277 220.86)" fill="#F6F7FE"/>
<ellipse cx="285.964" cy="145.668" rx="15.9631" ry="6.50349" transform="rotate(-11.9494 285.964 145.668)" fill="#F6F7FE"/>
<ellipse cx="331.248" cy="169.12" rx="13.4075" ry="5.46231" transform="rotate(0.986743 331.248 169.12)" fill="#F6F7FE"/>
<path d="M109.5 238.5C110.333 240.833 111.5 246.2 109.5 249" stroke="#F6F7FE"/>
<g clip-path="url(#clip0)">
<path d="M166.158 107.566L141.008 114.348C141.008 114.348 139.316 114.027 138.585 114.898C138.585 114.898 136.436 114.531 136.253 116.547C136.253 116.547 134.378 116.226 134.058 118.334C134.058 118.334 131.177 120.03 132.732 122.962C134.286 125.941 138.036 131.439 138.036 131.439L144.529 142.849L151.205 152.105L158.064 159.116L162.134 161.27L164.74 160.857L166.386 159.345C166.386 159.345 167.712 155.175 167.209 150.73C166.706 146.286 166.569 139.046 165.517 136.801L177.818 154.259C177.818 154.259 195.24 176.437 201.504 181.706C207.769 186.976 219.475 200.539 231.684 208.695L232.644 209.199C232.644 209.199 229.306 216.76 233.741 223.679L248.008 205.854L229.031 186.655L207.586 163.102L202.464 155.863L211.564 164.431L227.797 178.819L240.051 187.892L246.179 191.329C246.179 191.329 245.081 199.577 249.471 203.655C249.471 203.655 260.857 190.504 261.497 187.434L238.085 169.059L227.34 159.07L215.725 147.065L210.421 140.512L182.985 100.418L173.931 86.3046L161.905 65.7305L157.195 56.2453L155 50.151L151.937 42.9111L149.285 39.2911L146.541 37.5499L144.895 37.3208C144.895 37.3208 143.935 37.1375 143.249 38.5121C143.249 38.5121 141.831 38.0997 141.511 39.6119C141.511 39.6119 139.774 39.0162 139.316 40.9407C139.316 40.9407 136.801 40.9865 137.396 42.9111C137.99 44.8356 139.316 46.7143 139.316 46.7143C139.316 46.7143 135.43 50.3801 141.603 53.9542L156.281 80.5768L157.012 82.8679L155.275 82.9596L151.205 83.9218L166.158 107.566Z" fill="white"/>
<path d="M234.061 224L233.787 223.725C230.037 219.693 231.683 210.849 232.004 209.291C193.319 179.14 171.37 146.332 165.792 137.396C167.621 144.636 169.221 159.024 165.289 161.04C164.511 161.453 163.78 161.636 163.002 161.636C159.39 161.636 155.595 157.604 150.565 151.83C145.032 145.415 137.99 132.127 137.624 131.485C137.396 131.164 135.018 128.049 132.869 124.199C132.046 122.733 131.817 121.404 132.137 120.213C132.503 119.067 133.326 118.426 133.692 118.197C133.783 117.555 134.058 117.097 134.469 116.73C134.972 116.318 135.567 116.226 135.933 116.181C136.07 115.631 136.344 115.173 136.756 114.898C137.396 114.485 138.127 114.531 138.447 114.577C139.408 113.981 140.368 113.889 141.282 114.256C144.575 115.585 146.312 122.733 146.495 123.558L152.485 131.531C152.485 129.24 152.714 124.016 154.817 121.267C157.47 117.784 167.529 112.148 167.987 111.873L168.307 112.469C168.215 112.515 157.927 118.288 155.366 121.679C152.851 125.024 153.217 132.539 153.217 132.585L153.263 133.73L145.855 123.833V123.741C145.855 123.65 144.118 116.089 141.054 114.852C140.322 114.531 139.545 114.668 138.722 115.173L138.585 115.264L138.447 115.218C138.447 115.218 137.716 115.035 137.167 115.447C136.847 115.677 136.664 116.043 136.573 116.547L136.527 116.868L136.207 116.822C136.024 116.822 134.561 116.73 134.424 118.38V118.563L134.241 118.655C134.241 118.655 133.189 119.205 132.869 120.396C132.594 121.358 132.777 122.55 133.509 123.833C135.75 127.819 138.219 131.027 138.219 131.073L138.265 131.119C138.356 131.256 145.535 144.911 151.114 151.372C156.967 158.154 161.128 162.461 165.014 160.445C168.855 158.474 166.569 140.695 164.374 135.013L165.014 134.739C165.243 135.105 187.603 173.825 232.644 208.879L232.827 209.016L232.781 209.245C232.781 209.337 230.677 218.73 234.107 222.946L247.779 205.854C244.67 202.784 210.238 169.059 201.733 155.588L200.041 152.93L202.236 155.175C202.51 155.45 229.9 182.943 246.407 191.054L246.636 191.146V191.375C246.636 191.466 245.95 198.981 249.608 203.288C251.209 201.318 259.851 190.55 261.223 187.48C258.296 185.464 228.163 164.156 208.317 138.496C207.814 137.9 167.804 81.9057 156.189 54.779C156.144 54.6873 154.132 48.4097 151.891 43.69C150.199 40.2076 147.73 38.3747 146.175 37.8706C145.535 37.6415 144.941 37.6415 144.575 37.8706C144.346 37.9623 143.706 38.3288 143.523 38.7871L143.386 39.1078L143.066 38.9704C143.066 38.9704 142.609 38.7871 142.288 38.9704C142.06 39.1078 141.923 39.3828 141.831 39.7952L141.785 40.2076L141.42 40.0701C141.42 40.0701 140.734 39.841 140.231 40.1617C139.956 40.345 139.774 40.62 139.682 41.0782L139.636 41.3531H139.362C139.362 41.3531 138.31 41.3989 137.899 41.9946C137.67 42.3154 137.67 42.8194 137.853 43.4151C138.676 45.752 139.499 46.5768 139.545 46.5768L139.819 46.8518L139.545 47.1267C139.545 47.1267 138.265 48.2722 138.447 49.876C138.585 51.2507 139.728 52.5795 141.831 53.8167L141.923 53.8625L141.968 53.9542C142.106 54.1833 154.68 75.2156 157.515 83.097L156.875 83.3262C154.132 75.7655 142.243 55.7871 141.42 54.3666C139.179 53.0377 137.944 51.5256 137.762 49.9677C137.624 48.5014 138.447 47.3558 138.859 46.8976C138.493 46.4852 137.853 45.5229 137.259 43.7359C136.984 42.9111 137.03 42.2237 137.396 41.6739C137.853 41.0324 138.722 40.8032 139.133 40.7574C139.271 40.2534 139.545 39.8868 139.956 39.6119C140.414 39.3369 140.962 39.3369 141.328 39.3828C141.465 38.9245 141.694 38.6038 142.06 38.4205C142.471 38.1914 142.883 38.2372 143.157 38.3288C143.569 37.7332 144.346 37.3666 144.392 37.3666C144.895 37.0917 145.626 37.0458 146.495 37.3208C148.233 37.8706 150.839 39.7952 152.623 43.5067C154.909 48.2722 156.921 54.5957 156.967 54.6415C168.535 81.6766 208.5 137.625 208.912 138.221C229.489 164.844 261.451 186.838 261.771 187.067L262 187.205L261.909 187.434C260.857 190.504 250.294 203.426 249.837 203.976L249.608 204.297L249.334 204.022C245.539 199.898 245.767 192.887 245.859 191.512C232.278 184.73 211.518 165.164 204.293 158.154C215.725 173.687 248.054 205.213 248.419 205.58L248.648 205.809L234.061 224Z" fill="#010326"/>
<path d="M154.086 123.65C153.812 123.65 147.547 123.1 144.849 120.625L145.307 120.121C147.822 122.458 154.04 122.962 154.132 122.962L154.086 123.65Z" fill="#010326"/>
<path d="M139.134 114.485C139.088 114.348 133.418 101.976 138.448 92.5822C141.328 87.1752 147.136 83.7844 155.641 82.5014C155.732 82.5014 164.695 81.6766 170.868 87.3585C174.846 91.0701 176.812 96.6146 176.629 103.9H175.943C176.08 96.8437 174.251 91.4367 170.41 87.9084C164.42 82.4097 155.778 83.1887 155.686 83.1887C147.41 84.4259 141.786 87.7251 138.996 92.903C134.149 102.022 139.682 114.073 139.728 114.21L139.134 114.485Z" fill="#010326"/>
<path d="M140.825 114.668L140.642 114.027L165.654 107.245L150.885 84.0593L151.479 83.6927L166.752 107.658L140.825 114.668Z" fill="black"/>
<path d="M184.219 100.235C184.219 100.235 176.034 102.48 170.776 107.749C165.517 113.019 169.953 120.763 169.953 120.763C169.953 120.763 178.595 137.992 187.695 146.973C187.695 146.973 192.816 153.755 199.126 149.906C199.126 149.906 208.82 145.232 213.027 139.504C217.234 133.776 205.299 117.372 205.299 117.372C205.299 117.372 193.913 97.5768 184.219 100.235Z" fill="#010326"/>
<path d="M177.178 133.272C177.178 133.272 180.47 154.213 176.583 154.58C172.742 154.946 173.199 147.798 173.199 147.798L171.233 145.003C171.233 145.003 169.587 156.229 176.492 156.825C183.396 157.42 179.784 137.167 179.784 137.167L177.178 133.272Z" fill="#010326"/>
<path d="M182.802 100.83C182.802 100.83 183.259 89.2372 174.845 93.9111L173.794 91.9407C173.794 91.9407 184.677 84.9299 185.134 100.143L182.802 100.83Z" fill="#010326"/>
<path d="M160.899 106.237C162.5 100.097 160.579 96.248 154.223 94.0943C149.513 92.4906 145.718 99.8679 143.706 103.075L145.581 103.946C144.209 106.466 144.118 108.391 146.13 109.903C146.541 110.224 148.142 110.774 148.599 111.003C148.599 111.003 148.782 111.782 148.416 112.286L160.305 108.941L160.899 106.237Z" fill="white"/>
<path d="M148.416 112.606C148.279 112.606 148.187 112.561 148.141 112.469C148.05 112.332 148.05 112.194 148.187 112.057C148.37 111.827 148.37 111.461 148.324 111.232C148.141 111.14 147.913 111.049 147.638 110.957C146.815 110.636 146.221 110.361 145.947 110.178C143.477 108.391 144.163 106.008 145.123 104.084L143.569 103.35C143.477 103.305 143.432 103.213 143.386 103.121C143.34 103.03 143.386 102.938 143.432 102.846C143.66 102.48 143.889 102.113 144.163 101.701C146.312 98.1725 149.925 92.2156 154.36 93.7278C160.716 95.8814 162.911 99.8679 161.219 106.283L160.625 108.941C160.579 109.078 160.488 109.17 160.396 109.216L148.507 112.561C148.462 112.606 148.462 112.606 148.416 112.606ZM144.209 102.892L145.718 103.58C145.809 103.625 145.855 103.671 145.901 103.763C145.947 103.854 145.901 103.946 145.901 104.038C144.529 106.65 144.666 108.299 146.358 109.536C146.587 109.72 147.364 109.995 147.913 110.224C148.279 110.361 148.599 110.499 148.782 110.59C148.873 110.636 148.919 110.728 148.964 110.819C148.964 110.865 149.056 111.232 149.01 111.644L160.03 108.528L160.579 106.1C162.179 100.051 160.167 96.4313 154.132 94.3693C150.199 93.0404 146.77 98.6765 144.712 102.022C144.529 102.388 144.392 102.663 144.209 102.892Z" fill="black"/>
<path d="M164.237 104.313C164.009 106.1 163.368 107.062 162.683 108.253C158.476 109.445 155.504 110.178 155.504 110.178C155.504 110.178 155.275 109.949 155.595 108.987C155.915 108.024 156.464 106.925 157.424 105.962C160.488 102.846 157.424 100.509 154.223 103.075L145.992 98.5849C146.816 97.027 147.959 95.4232 149.239 94.186C151.068 92.4448 154.177 92.2156 157.058 93.0404" fill="black"/>
<path d="M155.503 110.499C155.412 110.499 155.32 110.453 155.275 110.407C155.138 110.27 154.955 109.903 155.275 108.849C155.641 107.658 156.281 106.604 157.195 105.642C158.293 104.496 158.658 103.35 158.064 102.709C157.47 102.067 156.006 102.022 154.406 103.305C154.314 103.396 154.132 103.396 154.04 103.35L145.809 98.8598C145.626 98.7682 145.581 98.5391 145.672 98.4016C146.587 96.6604 147.776 95.0566 148.964 93.9111C150.748 92.2156 153.857 91.7574 157.104 92.6739C157.287 92.7197 157.378 92.903 157.332 93.0863C157.287 93.2696 157.104 93.3612 156.921 93.3154C153.903 92.4448 151.022 92.8572 149.422 94.3693C148.324 95.3774 147.273 96.7979 146.404 98.3558L154.132 102.617C156.006 101.243 157.744 101.38 158.521 102.251C159.161 102.984 159.299 104.404 157.607 106.146C156.784 107.016 156.189 107.978 155.823 109.032C155.732 109.353 155.686 109.582 155.686 109.72C156.555 109.491 159.116 108.849 162.362 107.933L162.454 107.795C163.094 106.695 163.597 105.871 163.826 104.267C163.871 104.084 164.008 103.946 164.191 103.992C164.374 104.038 164.511 104.175 164.466 104.359C164.237 106.1 163.688 107.062 163.002 108.162L162.865 108.437C162.82 108.528 162.728 108.574 162.682 108.574C158.521 109.766 155.503 110.499 155.503 110.499C155.549 110.499 155.503 110.499 155.503 110.499Z" fill="black"/>
<path d="M240.244 198.055L231.243 208.245L231.757 208.701L240.758 198.51L240.244 198.055Z" fill="black"/>
<path d="M252.564 180.805L244.766 190.573L245.301 191.003L253.1 181.234L252.564 180.805Z" fill="black"/>
<path d="M153.106 132.353L152.558 132.766L158.31 140.414L158.858 140.001L153.106 132.353Z" fill="#010326"/>
<path d="M195.605 118.838L194.005 119.709C192.313 120.671 191.856 122.55 193.045 123.925L193.136 124.016C193.182 124.062 193.182 124.108 193.228 124.108L195.194 123.008C195.148 122.962 195.102 122.962 195.102 122.916L195.011 122.825C194.599 122.321 194.737 121.633 195.377 121.267L196.977 120.396C197.617 120.03 198.44 120.167 198.898 120.671L198.989 120.763C199.401 121.267 199.263 121.954 198.623 122.321L197.16 123.146L198.532 124.749L199.995 123.925C201.687 122.962 202.144 121.084 200.955 119.709L200.864 119.617C199.675 118.243 197.343 117.922 195.605 118.838Z" fill="#5480BF"/>
<path d="M197.114 123.237L195.88 123.925L195.057 122.916C194.691 122.458 193.959 122.367 193.411 122.687C192.862 123.008 192.725 123.604 193.091 124.016L193.914 125.024L192.725 125.712C192.176 126.032 192.039 126.628 192.405 127.04C192.77 127.499 193.502 127.59 194.051 127.27L195.24 126.582L196.063 127.544C196.429 128.003 197.16 128.094 197.709 127.774C198.258 127.453 198.395 126.857 198.029 126.445L197.206 125.482L198.44 124.795C198.989 124.474 199.126 123.879 198.761 123.466C198.395 123.054 197.663 122.916 197.114 123.237Z" fill="#D97C2D"/>
<path d="M155 205.5C157.167 206.667 162.7 208.8 167.5 208" stroke="#F6F7FE"/>
</g>
<path d="M116.243 159.417L99.7517 143.784L123.907 134.818L116.243 159.417Z" fill="#FFA01E" stroke="black" stroke-width="0.617496" stroke-miterlimit="10" stroke-linecap="round" stroke-linejoin="round"/>
<path d="M116.225 159.359L138.748 181.266" stroke="black" stroke-width="0.617496" stroke-miterlimit="10" stroke-linecap="round" stroke-linejoin="round"/>
<defs>
<clipPath id="clip0">
<rect width="130" height="187" fill="white" transform="translate(132 37)"/>
</clipPath>
</defs>
</svg>
