<svg width="20" height="20" viewBox="0 0 20 20" fill="none" xmlns="http://www.w3.org/2000/svg">
<rect width="20" height="20" rx="10" fill="#2062D1"/>
<g clip-path="url(#clip0_667_5952)">
<path d="M10 14.5C10.5523 14.5 11 14.0523 11 13.5C11 12.9477 10.5523 12.5 10 12.5C9.44772 12.5 9 12.9477 9 13.5C9 14.0523 9.44772 14.5 10 14.5Z" fill="white"/>
<path d="M10 5.49902C9.45 5.49902 9 5.94902 9 6.49902V10.499C9 11.049 9.45 11.499 10 11.499C10.55 11.499 11 11.049 11 10.499V6.49902C11 5.94902 10.55 5.49902 10 5.49902Z" fill="white"/>
</g>
<defs>
<clipPath id="clip0_667_5952">
<rect width="12" height="12" fill="white" transform="translate(4 4)"/>
</clipPath>
</defs>
</svg>
