<svg width="20" height="20" viewBox="0 0 20 20" fill="none" xmlns="http://www.w3.org/2000/svg">
<rect width="20" height="20" rx="10" fill="#EF5D66"/>
<g clip-path="url(#clip0_739_7424)">
<path d="M10.0107 14.5C10.563 14.5 11.0107 14.0523 11.0107 13.5C11.0107 12.9477 10.563 12.5 10.0107 12.5C9.45846 12.5 9.01074 12.9477 9.01074 13.5C9.01074 14.0523 9.45846 14.5 10.0107 14.5Z" fill="white"/>
<path d="M10.0107 5.49902C9.46074 5.49902 9.01074 5.94902 9.01074 6.49902V10.499C9.01074 11.049 9.46074 11.499 10.0107 11.499C10.5607 11.499 11.0107 11.049 11.0107 10.499V6.49902C11.0107 5.94902 10.5607 5.49902 10.0107 5.49902Z" fill="white"/>
</g>
<defs>
<clipPath id="clip0_739_7424">
<rect width="12" height="12" fill="white" transform="translate(4.00195 3.99951)"/>
</clipPath>
</defs>
</svg>
