<svg width="180" height="165" viewBox="0 0 180 165" fill="none" xmlns="http://www.w3.org/2000/svg">
<g clip-path="url(#clip0_739_7336)">
<path d="M45.6135 115.774V98.0453H139.672C140.288 98.0453 140.878 97.7999 141.314 97.3628C141.751 96.9257 141.997 96.3324 142 95.7128V92.7233C142 92.1018 141.755 91.5057 141.318 91.0663C140.882 90.6268 140.29 90.3799 139.672 90.3799H45.2763C43.3465 90.3799 41.4957 91.1517 40.1311 92.5256C38.7666 93.8995 38 95.7629 38 97.7058V116.125C38.0029 118.066 38.7707 119.926 40.135 121.298C41.4992 122.669 43.3484 123.44 45.2763 123.44H139.672C139.977 123.441 140.278 123.382 140.56 123.266C140.841 123.15 141.098 122.98 141.314 122.764C141.53 122.549 141.702 122.292 141.819 122.01C141.937 121.728 141.999 121.424 142 121.118V118.129C142 117.507 141.755 116.911 141.318 116.472C140.882 116.032 140.29 115.785 139.672 115.785H45.6135V115.774Z" fill="url(#paint0_linear_739_7336)"/>
<path d="M137.412 98.0454H45.6157V115.774H137.412V98.0454Z" fill="url(#paint1_linear_739_7336)"/>
<path d="M137.412 98.0454H45.6157V115.774H137.412V98.0454Z" fill="url(#paint2_linear_739_7336)"/>
<path d="M51.3104 83.7002V68.238H133.297C133.833 68.238 134.348 68.0234 134.727 67.6414C135.106 67.2594 135.32 66.7414 135.32 66.2012V63.5949C135.32 63.0547 135.106 62.5367 134.727 62.1547C134.348 61.7727 133.833 61.5581 133.297 61.5581H51.0167C49.335 61.5581 47.7222 62.2307 46.533 63.428C45.3439 64.6253 44.6758 66.2491 44.6758 67.9423V83.9959C44.6758 85.6891 45.3439 87.3129 46.533 88.5102C47.7222 89.7074 49.335 90.38 51.0167 90.38H133.297C133.833 90.38 134.348 90.1655 134.727 89.7835C135.106 89.4015 135.32 88.8834 135.32 88.3432V85.737C135.32 85.4695 135.267 85.2047 135.166 84.9575C135.064 84.7104 134.915 84.4859 134.727 84.2968C134.539 84.1076 134.316 83.9576 134.071 83.8552C133.825 83.7529 133.562 83.7002 133.297 83.7002H51.3104V83.7002Z" fill="url(#paint3_linear_739_7336)"/>
<path d="M131.322 68.25H51.3152V83.7013H131.322V68.25Z" fill="url(#paint4_linear_739_7336)"/>
<path d="M131.322 68.25H51.3152V83.7013H131.322V68.25Z" fill="url(#paint5_linear_739_7336)"/>
<path d="M100.809 28.1367C98.6726 27.3746 96.3875 27.1344 94.1413 27.4359C91.3962 27.8293 88.6095 27.8293 85.8644 27.4359C83.6146 27.1335 81.3257 27.3737 79.1863 28.1367C72.0079 30.6116 67.8313 37.4447 71.116 47.1141C74.2375 56.3016 78.7295 62.7077 89.9974 61.3499C101.265 62.6639 105.757 56.2578 108.879 47.1141C112.163 37.4447 107.987 30.6116 100.809 28.1367Z" fill="url(#paint6_linear_739_7336)"/>
<path d="M88.4781 13.8575C92.0891 17.5041 91.2299 24.2606 91.2299 24.2606C91.2299 24.2606 84.5192 25.1147 80.9082 21.4791C77.2973 17.8435 78.1565 11.087 78.1565 11.087C78.1565 11.087 84.8672 10.2219 88.4781 13.8575Z" fill="url(#paint7_linear_739_7336)"/>
<path d="M91.0898 31.1152H88.9146V30.951C88.9134 28.0188 89.4895 25.1154 90.6096 22.4088C91.7297 19.7022 93.3716 17.2459 95.4404 15.1821L96.9848 16.7371C95.12 18.6003 93.6422 20.8186 92.6376 23.2627C91.633 25.7068 91.1216 28.3278 91.1333 30.9729L91.0898 31.1152Z" fill="#7A6D6D"/>
<g style="mix-blend-mode:multiply" opacity="0.2">
<path d="M131.322 70.8003H51.3152V71.6763H131.322V70.8003Z" fill="#7A6D6D"/>
</g>
<g style="mix-blend-mode:multiply" opacity="0.2">
<path d="M131.322 73.9546H51.3152V74.8306H131.322V73.9546Z" fill="#7A6D6D"/>
</g>
<g style="mix-blend-mode:multiply" opacity="0.2">
<path d="M131.322 77.1196H51.3152V77.9957H131.322V77.1196Z" fill="#7A6D6D"/>
</g>
<g style="mix-blend-mode:multiply" opacity="0.2">
<path d="M131.322 80.2725H51.3152V81.1485H131.322V80.2725Z" fill="#7A6D6D"/>
</g>
<g style="mix-blend-mode:multiply" opacity="0.2">
<path d="M137.412 100.806H45.6157V101.835H137.412V100.806Z" fill="#7A6D6D"/>
</g>
<g style="mix-blend-mode:multiply" opacity="0.2">
<path d="M137.412 104.54H45.6157V105.569H137.412V104.54Z" fill="#7A6D6D"/>
</g>
<g style="mix-blend-mode:multiply" opacity="0.2">
<path d="M137.412 108.263H45.6157V109.292H137.412V108.263Z" fill="#7A6D6D"/>
</g>
<g style="mix-blend-mode:multiply" opacity="0.2">
<path d="M137.412 111.986H45.6157V113.015H137.412V111.986Z" fill="#7A6D6D"/>
</g>
<path d="M66.6022 130L62.045 126.616L57.4878 130V105.569H66.6022V130Z" fill="url(#paint8_linear_739_7336)"/>
</g>
<defs>
<linearGradient id="paint0_linear_739_7336" x1="38" y1="106.915" x2="142" y2="106.915" gradientUnits="userSpaceOnUse">
<stop stop-color="#7637D0"/>
<stop offset="0.2" stop-color="#7E4BD6"/>
<stop offset="0.47" stop-color="#8760DC"/>
<stop offset="0.74" stop-color="#8C6CE0"/>
<stop offset="1" stop-color="#8E70E1"/>
</linearGradient>
<linearGradient id="paint1_linear_739_7336" x1="37.7412" y1="106.915" x2="145.287" y2="106.915" gradientUnits="userSpaceOnUse">
<stop stop-color="#7637D0"/>
<stop offset="0.2" stop-color="#7E4BD6"/>
<stop offset="0.47" stop-color="#8760DC"/>
<stop offset="0.74" stop-color="#8C6CE0"/>
<stop offset="1" stop-color="#8E70E1"/>
</linearGradient>
<linearGradient id="paint2_linear_739_7336" x1="45.6157" y1="106.915" x2="137.412" y2="106.915" gradientUnits="userSpaceOnUse">
<stop stop-color="#DBCEC1"/>
<stop offset="0.23" stop-color="#EAE2DA"/>
<stop offset="0.49" stop-color="#F5F2EF"/>
<stop offset="0.75" stop-color="#FDFCFB"/>
<stop offset="1" stop-color="white"/>
</linearGradient>
<linearGradient id="paint3_linear_739_7336" x1="44.6758" y1="75.9691" x2="135.32" y2="75.9691" gradientUnits="userSpaceOnUse">
<stop stop-color="#5FABEC"/>
<stop offset="0.29" stop-color="#67BBF4"/>
<stop offset="0.65" stop-color="#6DC7FA"/>
<stop offset="1" stop-color="#6FCBFC"/>
</linearGradient>
<linearGradient id="paint4_linear_739_7336" x1="44.4522" y1="75.9702" x2="138.185" y2="75.9702" gradientUnits="userSpaceOnUse">
<stop stop-color="#7637D0"/>
<stop offset="0.2" stop-color="#7E4BD6"/>
<stop offset="0.47" stop-color="#8760DC"/>
<stop offset="0.74" stop-color="#8C6CE0"/>
<stop offset="1" stop-color="#8E70E1"/>
</linearGradient>
<linearGradient id="paint5_linear_739_7336" x1="51.3152" y1="75.9702" x2="131.322" y2="75.9702" gradientUnits="userSpaceOnUse">
<stop stop-color="#DBCEC1"/>
<stop offset="0.23" stop-color="#EAE2DA"/>
<stop offset="0.49" stop-color="#F5F2EF"/>
<stop offset="0.75" stop-color="#FDFCFB"/>
<stop offset="1" stop-color="white"/>
</linearGradient>
<linearGradient id="paint6_linear_739_7336" x1="89.9974" y1="29.4727" x2="89.9974" y2="59.0283" gradientUnits="userSpaceOnUse">
<stop stop-color="#D04337"/>
<stop offset="0.07" stop-color="#D24E3F"/>
<stop offset="0.31" stop-color="#D96A54"/>
<stop offset="0.54" stop-color="#DD7F64"/>
<stop offset="0.77" stop-color="#E08B6D"/>
<stop offset="1" stop-color="#E18F70"/>
</linearGradient>
<linearGradient id="paint7_linear_739_7336" x1="78.9819" y1="11.9194" x2="90.341" y2="23.2015" gradientUnits="userSpaceOnUse">
<stop stop-color="#96C11F"/>
<stop offset="0.08" stop-color="#9CC61F"/>
<stop offset="0.39" stop-color="#B1D821"/>
<stop offset="0.7" stop-color="#BDE322"/>
<stop offset="1" stop-color="#C1E722"/>
</linearGradient>
<linearGradient id="paint8_linear_739_7336" x1="62.045" y1="107.113" x2="62.045" y2="128.193" gradientUnits="userSpaceOnUse">
<stop stop-color="#D69C1D"/>
<stop offset="0.25" stop-color="#E2B71E"/>
<stop offset="0.5" stop-color="#ECCC1E"/>
<stop offset="0.75" stop-color="#F1D81F"/>
<stop offset="1" stop-color="#F3DC1F"/>
</linearGradient>
<clipPath id="clip0_739_7336">
<rect width="104" height="119" fill="white" transform="translate(38 11)"/>
</clipPath>
</defs>
</svg>
