<svg width="14" height="14" viewBox="0 0 14 14" fill="none" xmlns="http://www.w3.org/2000/svg">
<path fill-rule="evenodd" clip-rule="evenodd" d="M6.99581 10.9961C7.22362 10.7683 7.22362 10.399 6.99581 10.1712L3.90829 7.08366L6.99581 3.99614C7.22362 3.76833 7.22362 3.39898 6.99581 3.17118C6.76801 2.94337 6.39866 2.94337 6.17085 3.17118L2.67085 6.67118C2.56146 6.78058 2.5 6.92895 2.5 7.08366C2.5 7.23837 2.56146 7.38674 2.67085 7.49614L6.17085 10.9961C6.39866 11.2239 6.76801 11.2239 6.99581 10.9961Z" fill="#343A40"/>
<path fill-rule="evenodd" clip-rule="evenodd" d="M10.9997 10.9961C11.2275 10.7683 11.2275 10.399 10.9997 10.1712L7.9122 7.08366L10.9997 3.99614C11.2275 3.76833 11.2275 3.39898 10.9997 3.17118C10.7719 2.94337 10.4026 2.94337 10.1748 3.17118L6.67476 6.67118C6.56536 6.78058 6.50391 6.92895 6.50391 7.08366C6.50391 7.23837 6.56536 7.38674 6.67476 7.49614L10.1748 10.9961C10.4026 11.2239 10.7719 11.2239 10.9997 10.9961Z" fill="#343A40"/>
</svg>
