<?xml version="1.0" encoding="utf-8"?>
<!-- Generator: Adobe Illustrator 25.0.1, SVG Export Plug-In . SVG Version: 6.00 Build 0)  -->
<svg version="1.1" id="Layer_1" xmlns="http://www.w3.org/2000/svg" xmlns:xlink="http://www.w3.org/1999/xlink" x="0px" y="0px"
	 viewBox="0 0 16 11" style="enable-background:new 0 0 16 11;" xml:space="preserve">
<style type="text/css">
	.st0{fill:none;}
	.st1{fill:#7C7C7C;}
</style>
<path class="st0" d="M-3.5-7.9h28v28h-28V-7.9z"/>
<g>
	<path class="st0" d="M0.2-2.8h15.5v15.5H0.2V-2.8z"/>
</g>
<g>
	<path class="st1" d="M8.1,7.6c-1.1,0-2-0.9-2-2c0-1.1,0.9-2,2-2c1.1,0,2,0.9,2,2C10.1,6.7,9.2,7.6,8.1,7.6z M8.1,4.9
		c-0.4,0-0.7,0.3-0.7,0.7c0,0.4,0.3,0.7,0.7,0.7c0.4,0,0.7-0.3,0.7-0.7C8.8,5.2,8.5,4.9,8.1,4.9z"/>
</g>
<g>
	<path class="st1" d="M8.1,10.9c-2.9,0-5.3-1.7-7.1-4.9C0.9,5.7,0.9,5.5,1,5.3C2.9,2,5.3,0.3,8.1,0.3c2.9,0,5.3,1.7,7.1,4.9
		c0.1,0.2,0.1,0.5,0,0.7C13.4,9.2,11,10.9,8.1,10.9z M2.3,5.6c1.6,2.7,3.5,4,5.8,4c2.3,0,4.2-1.3,5.8-4c-1.6-2.7-3.5-4-5.8-4
		C5.8,1.7,3.9,2.9,2.3,5.6z"/>
</g>
</svg>
