<svg width="99" height="124" viewBox="0 0 99 124" fill="none" xmlns="http://www.w3.org/2000/svg">
<path d="M49.8215 123.096C49.1288 123.096 48.5693 122.536 48.5693 121.844V1.25218C48.5693 0.559487 49.1288 0 49.8215 0C50.5142 0 51.0737 0.559487 51.0737 1.25218V121.844C51.0737 122.536 50.5142 123.096 49.8215 123.096V123.096Z" fill="#898989"/>
<path d="M49.8215 48.56C64.2527 48.56 66.6238 60.176 66.6238 60.176C68.4266 51.3663 73.9682 49.0129 80.9307 48.6577C93.4348 48.0183 98.8343 56.8102 98.8343 58.9061C98.8343 5.71932 49.5018 10.8524 49.5018 10.8524H50.15C50.15 10.8524 -2.11311 7.93062 0.817531 58.9061C0.817531 56.8102 6.21702 48.0183 18.7211 48.6577C25.6836 49.0129 31.2252 51.3663 33.028 60.176C33.028 60.176 35.3991 48.56 49.8303 48.56H49.8126H49.8215Z" fill="#D45D63"/>
<path d="M51.109 10.7368C50.3896 10.7635 49.8923 10.799 49.6436 10.8256C49.9367 10.8256 50.1054 10.8434 50.1054 10.8434H49.4571C49.4571 10.8434 49.5282 10.8434 49.6436 10.8256C49.3772 10.8256 48.9954 10.8079 48.5158 10.8079C44.9369 14.0937 32.2995 28.0099 32.9922 60.167C32.9922 60.167 35.3634 48.5599 49.7857 48.551C64.2081 48.551 66.5792 60.167 66.5792 60.167C67.2808 27.7701 54.5636 13.8895 51.1178 10.7368H51.109Z" fill="white"/>
</svg>
