<svg width="40" height="40" viewBox="0 0 40 40" fill="none" xmlns="http://www.w3.org/2000/svg">
<path d="M19.9999 39.1666C9.41417 39.1666 0.833252 30.5857 0.833252 19.9999C0.833252 9.41417 9.41417 0.833252 19.9999 0.833252C30.5857 0.833252 39.1666 9.41417 39.1666 19.9999C39.1666 30.5857 30.5857 39.1666 19.9999 39.1666ZM19.9999 35.3333C24.0666 35.3333 27.9667 33.7178 30.8422 30.8422C33.7178 27.9667 35.3333 24.0666 35.3333 19.9999C35.3333 15.9333 33.7178 12.0332 30.8422 9.15761C27.9667 6.28206 24.0666 4.66659 19.9999 4.66659C15.9333 4.66659 12.0332 6.28206 9.15761 9.15761C6.28206 12.0332 4.66659 15.9333 4.66659 19.9999C4.66659 24.0666 6.28206 27.9667 9.15761 30.8422C12.0332 33.7178 15.9333 35.3333 19.9999 35.3333ZM17.3588 13.1287L26.7102 19.3617C26.8153 19.4317 26.9016 19.5265 26.9612 19.6379C27.0209 19.7492 27.0521 19.8736 27.0521 19.9999C27.0521 20.1262 27.0209 20.2506 26.9612 20.362C26.9016 20.4733 26.8153 20.5682 26.7102 20.6382L17.3568 26.8712C17.2415 26.9476 17.1076 26.9914 16.9694 26.998C16.8312 27.0045 16.6938 26.9735 16.5718 26.9083C16.4498 26.843 16.3477 26.746 16.2763 26.6274C16.205 26.5089 16.1671 26.3732 16.1666 26.2348V13.765C16.1668 13.6263 16.2047 13.4903 16.2761 13.3715C16.3476 13.2526 16.4499 13.1554 16.5722 13.0901C16.6946 13.0248 16.8323 12.9939 16.9708 13.0007C17.1093 13.0075 17.2434 13.0517 17.3588 13.1287Z" fill="white"/>
</svg>
