<svg width="138" height="89" viewBox="0 0 138 89" fill="none" xmlns="http://www.w3.org/2000/svg">
<g clip-path="url(#clip0_98_6119)">
<path opacity="0.3" d="M77.25 88.27C110.68 88.27 137.78 84.545 137.78 79.95C137.78 75.355 110.68 71.63 77.25 71.63C43.8202 71.63 16.72 75.355 16.72 79.95C16.72 84.545 43.8202 88.27 77.25 88.27Z" fill="black"/>
<path d="M25.48 33.47V59.52H26.81V33.47H25.48Z" fill="#8F5657"/>
<path d="M18.5699 59.2301V79.5601H23.3099V59.2301H18.5699Z" fill="#8F5657"/>
<path d="M92.48 59.2399V79.5699H97.22V59.2399H92.48Z" fill="#8F5657"/>
<path d="M32.04 33.47V59.52H33.37V33.47H32.04Z" fill="#8F5657"/>
<path d="M88.97 33.47V59.52H90.3V33.47H88.97Z" fill="#8F5657"/>
<path d="M82.41 33.47V59.52H83.74V33.47H82.41Z" fill="#8F5657"/>
<path d="M103.46 29.71H12.3199V38.64H103.46V29.71Z" fill="#8F5657"/>
<path d="M103.46 42.38H12.3199V51.31H103.46V42.38Z" fill="#8F5657"/>
<path d="M115.78 57.5601H0V61.4801H115.78V57.5601Z" fill="#8F5657"/>
<path d="M70.38 77.9099C70.92 79.2099 71.15 80.5099 70.47 81.5299C69.27 82.9699 66.98 84.0499 66.76 85.9999C67.73 89.0999 71.76 86.6599 73.1 85.7999C74.2 85.0999 75 84.4499 74.57 82.7199C74.16 81.0799 73.45 79.8799 72.82 78.3799C72.49 77.5799 69.11 62.0099 68.83 61.5199C67.5 63.3199 62.53 59.4799 63.97 62.9899C64.87 65.1799 65.78 67.3799 66.68 69.5699C67.5 71.5599 69.55 75.9399 70.37 77.9099H70.38Z" fill="#D08884"/>
<path d="M70.28 84.2599C69.94 83.6899 69.69 83.1199 69.32 82.6299C68.18 83.6099 66.91 84.5699 66.75 85.9999C67.72 89.0999 71.75 86.6599 73.09 85.7999C74.19 85.0999 74.99 84.4499 74.56 82.7199C74.5 82.4999 74.43 82.2799 74.35 82.0699C73.09 82.9799 71.63 83.5999 70.28 84.2599Z" fill="black"/>
<path d="M81.19 77.9099C80.65 79.2099 80.42 80.5099 81.1 81.5299C82.3 82.9699 84.59 84.0499 84.81 85.9999C83.84 89.0999 79.81 86.6599 78.47 85.7999C77.37 85.0999 76.57 84.4499 77 82.7199C77.41 81.0799 78.12 79.8799 78.75 78.3799C79.08 77.5799 82.46 62.0099 82.74 61.5199C84.07 63.3199 89.04 59.4799 87.6 62.9899C86.7 65.1799 85.79 67.3799 84.89 69.5699C84.07 71.5599 82.02 75.9399 81.2 77.9099H81.19Z" fill="#D08884"/>
<path d="M81.28 84.2599C81.62 83.6899 81.87 83.1199 82.24 82.6299C83.38 83.6099 84.65 84.5699 84.81 85.9999C83.84 89.0999 79.81 86.6599 78.47 85.7999C77.37 85.0999 76.57 84.4499 77 82.7199C77.06 82.4999 77.13 82.2799 77.21 82.0699C78.47 82.9799 79.93 83.5999 81.28 84.2599Z" fill="black"/>
<path d="M58.38 79.99C58.01 81.17 57.91 82.32 58.59 83.16C59.76 84.32 61.84 85.09 62.18 86.77C61.57 89.55 57.86 87.74 56.62 87.09C55.61 86.56 54.85 86.06 55.09 84.51C55.32 83.04 55.85 81.94 56.28 80.58C56.51 79.86 58.24 65.98 58.44 65.54C59.75 67.01 63.79 63.26 62.8 66.44C62.18 68.43 61.56 70.42 60.94 72.4C60.38 74.2 58.93 78.19 58.37 79.98L58.38 79.99Z" fill="#D08884"/>
<path d="M58.96 85.5301C59.22 85.0101 59.38 84.4901 59.67 84.0301C60.74 84.7901 61.93 85.5401 62.18 86.7701C61.57 89.55 57.86 87.74 56.62 87.09C55.61 86.56 54.85 86.0601 55.09 84.5101C55.12 84.3101 55.17 84.1201 55.23 83.9301C56.4 84.6201 57.73 85.0601 58.96 85.5301Z" fill="#003D57"/>
<path d="M42.27 78.1999C41.51 79.1699 41.02 80.2199 41.36 81.2399C42.05 82.7399 43.73 84.1799 43.47 85.8799C41.93 88.2799 39.09 85.2799 38.15 84.2499C37.38 83.3999 36.86 82.6699 37.62 81.2999C38.35 79.9999 39.23 79.1499 40.1 78.0299C40.57 77.4299 47.03 65.0299 47.38 64.6899C48.09 66.5199 53.19 64.4199 51.15 67.0599C49.88 68.7099 48.6 70.3499 47.33 71.9999C46.18 73.4899 43.43 76.7299 42.28 78.2099L42.27 78.1999Z" fill="#D08884"/>
<path d="M40.88 83.6C41.3 83.2 41.64 82.77 42.07 82.44C42.81 83.53 43.66 84.64 43.47 85.88C41.93 88.28 39.09 85.28 38.15 84.25C37.38 83.4 36.86 82.67 37.62 81.3C37.72 81.12 37.83 80.96 37.95 80.8C38.8 81.86 39.9 82.73 40.88 83.6Z" fill="#003D57"/>
<path d="M62.59 15.32C64.06 14.65 65.51 14.36 65.71 12.77C65.91 11.17 66 9.64998 65.24 8.22998C66.16 7.97998 67.09 7.72998 68.01 7.47998C68.48 10.13 70.83 12.31 73.48 11.79L74.69 14.9L64.13 19L62.59 15.33V15.32Z" fill="#D08884"/>
<path d="M69.24 2.86002C68.03 1.11002 65.69 0.29002 63.74 1.32002C60.25 3.16002 61.97 8.71002 64.59 10.51C65.57 11.19 66.89 11.45 67.9801 10.97C69.1901 10.44 69.88 9.13002 70.14 7.84002C70.49 6.14002 70.23 4.28002 69.24 2.85002V2.86002Z" fill="#D08884"/>
<path d="M62.21 7.63005C62.32 6.82005 62.27 6.14005 62.5 5.35005C62.65 4.83005 62.84 4.26005 63.06 3.77005C63.34 4.82005 66.16 5.10005 67.09 5.23005C68.07 5.36005 69.42 5.64005 70.35 5.58005C70.33 3.69005 69.06 1.23005 67.33 0.370054C65.25 -0.669946 62.3 0.580054 61.63 2.82005C61.21 4.22005 61.42 6.01005 62.21 7.63005Z" fill="black"/>
<path d="M66.36 46.86C63.06 46.04 59.47 47.55 59.08 51.12C58.79 53.81 59.51 56.39 60.33 58.92C61.58 62.76 68.32 79.62 69.48 79.67C72.7 79.82 74.01 78.34 74.01 78.34C74.01 78.34 72.24 67.91 71.28 63.02C70.77 60.42 70.17 57.92 69.55 55.37" fill="#003D57"/>
<path d="M85.41 46.86C88.71 46.04 92.3 47.55 92.69 51.12C92.98 53.81 92.26 56.39 91.44 58.92C90.19 62.76 83.45 79.62 82.29 79.67C79.07 79.82 77.76 78.34 77.76 78.34C77.76 78.34 79.53 67.91 80.49 63.02C81 60.42 81.6 57.92 82.22 55.37" fill="#003D57"/>
<path d="M86.58 46.5H66.36V57.56H86.58V46.5Z" fill="#003D57"/>
<path d="M78.66 23.03C79.83 25.75 81.13 32.96 80.85 33.88C80.43 35.26 72.98 44.45 72.98 44.45C72.98 44.45 74.9 46.99 75.6 47.64C79.14 44.68 82.89 41.59 85.84 37.98C88.16 35.14 89.02 33.32 88.61 29.64C88.11 25.16 85.62 13.27 83.74 12.09C81.68 10.8 75.39 11.17 72.98 11.22H71.56L70.15 16.66L64.82 13.23C64.82 13.23 58.79 17.41 48.98 22.21L50.24 27.29L59.5 31.43C60.76 32.8 61.34 35.3 62.16 37.05C63.12 39.08 63.77 41.13 64.1 43.26C64.28 44.43 64.61 45.38 64.6 46.55C67.21 47.24 70.38 47.29 73.1 47.17C77.26 46.98 82 47.65 86.11 46.81L86.58 26.35" fill="white"/>
<path d="M63.67 58.79C64.23 60.32 64.5 61.96 64.35 63.92C63.93 69.46 62.74 74.99 61.53 80.4C61.51 80.47 61.3 81.64 61.25 81.64C59.57 81.66 56.59 81.42 54.99 80.94C54.99 80.94 56.53 64.64 55.12 61.48C53.33 57.47 46.67 55.7 44.53 51.76C42.76 48.49 41.27 42.48 42.98 39.09C45.46 34.18 57.87 51.58 59.57 53.01C61.89 54.95 62.96 56.81 63.69 58.79H63.67Z" fill="white"/>
<path d="M32.7099 47.96C29.6499 55.56 41 59.04 46.7699 61.15C44.2099 67.07 38.47 77.18 38.47 77.18C39.9 78.02 42.0399 78.94 43.5299 79.57C46.5899 76.88 55.7599 64.18 56.5299 61.49C57.8999 56.64 49.2899 51.77 47.0899 47.96" fill="white"/>
<path d="M55.54 63.52C56.05 62.63 56.4 61.92 56.53 61.48C57.41 58.36 54.17 55.24 51.16 52.4" stroke="#CBCBCB" stroke-width="0.75" stroke-linecap="round" stroke-linejoin="round"/>
<path d="M53.7199 18.89C52.7399 18.67 51.4599 18.26 50.5599 17.84C49.4899 17.34 48.6299 16.89 48.1899 15.73C48.1299 15.57 47.3899 12.08 47.9299 12.12C47.0899 12.07 46.2499 12.01 45.4199 11.96C44.4899 17.23 40.9299 16.78 38.5699 16.8L40.5999 19.24L50.3899 20.91L53.7299 18.9L53.7199 18.89Z" fill="#D08884"/>
<path d="M43.38 7.84003C44.12 6.13003 45.98 5.02003 47.83 5.56003C51.15 6.53003 50.64 11.6 48.71 13.6C47.98 14.35 46.9 14.81 45.88 14.59C44.75 14.35 43.93 13.34 43.48 12.28C42.88 10.88 42.78 9.24003 43.38 7.84003Z" fill="#D08884"/>
<path d="M50.01 11.2C52.72 9.03 51.45 4.6 48.22 3.58C45.89 2.84 43.99 4.02 41.86 4.65C39.27 5.42 37.68 3.72 35.43 3.03C32.53 2.14 31.98 4.48 29.66 5.31C27.87 5.95 25.47 3.68 23.98 4.91C21.35 7.07 25.44 9.19 27.19 9.76C28.15 10.07 29.31 10.35 30.32 10.22C31.33 10.09 32.2 9.42 33.19 9.26C34.76 9.01 35.55 9.87 36.7 10.74C42.46 15.08 47.92 7.59 47.92 7.59C48.33 7.32 50.37 10.16 49.99 11.21L50.01 11.2Z" fill="black"/>
<path d="M35.22 23.86C34.84 28.08 33.72 32 33.29 36.1C32.98 39.04 32.64 42.07 32.2 44.99C31.97 46.53 31.36 47.46 33.16 47.98C34.78 48.45 36.46 48.6 38.11 48.86C43.11 49.65 46.12 49.78 51.26 49.2C52.07 49.11 54.78 48.6 55.5 48.23C55.5 48.23 54.11 39.28 54.08 36.51C54.04 32.59 53.46 28.3 53.36 24.38" fill="#F69B2E"/>
<path d="M52.05 27.65C53.22 30.58 53.4 33.57 55.07 36.34C55.97 37.85 58.16 41.24 59.5 42.38C61.75 44.31 63.82 46.42 66.36 47.95C66.36 47.95 68.73 46.84 69.2 45.49C69.2 45.49 65.44 40.53 64.26 39.11C60.77 34.89 59.98 29.08 58.47 23.91C57.97 22.2 57.58 20.1 55.95 19.25C55.22 18.87 54.38 18.57 53.59 18.29C52.94 18.06 51.23 17.28 50.63 17.35L46.14 20.16L41.35 16.34C39.22 16.56 38.54 16.54 36.42 16.97C33.61 17.54 33.37 19.71 31.36 22.78C29.39 25.8 26.83 34.89 26.8 35.66C26.74 37.2 28.77 39.46 29.68 40.6C32.58 44.24 35.84 48.4 39.22 51.4C40.09 51.02 40.81 49.9 41.41 49.13C39.43 45.73 34.95 39.63 33.98 35.85C35.81 32.31 38.75 29.17 39.75 25.21" fill="#F69B2E"/>
<path d="M53.96 33.51C53.78 30.47 53.43 27.31 53.35 24.38" stroke="white" stroke-width="0.75" stroke-linecap="round" stroke-linejoin="round"/>
<path d="M41.41 49.14C39.43 45.74 34.95 39.64 33.98 35.86C35.81 32.32 38.75 29.18 39.75 25.22" stroke="white" stroke-width="0.75" stroke-linecap="round" stroke-linejoin="round"/>
<path d="M32.35 43.95C33.65 45.54 34.99 47.1399 36.37 48.6199" stroke="white" stroke-width="0.75" stroke-linecap="round" stroke-linejoin="round"/>
<path d="M41.29 49.29C40.83 49.89 40.31 50.63 39.72 51.1C40.42 52.15 41.58 52.98 42.28 52.25C43.27 51.2 42.13 50.11 41.3 49.29H41.29Z" fill="#D38B87"/>
<path d="M67.16 47.55C67.75 47.09 68.49 46.57 68.96 45.96C70.01 46.66 71.14 47.79 70.41 48.49C69.37 49.49 67.98 48.37 67.16 47.55Z" fill="#D38B87"/>
<path d="M75.16 47.4299C74.49 46.7699 73.64 45.9999 73.15 45.1899C71.73 45.8999 70.5 47.2099 71.31 48.1899C72.46 49.5799 74.01 48.3399 75.16 47.4399V47.4299Z" fill="#D38B87"/>
<path d="M62.59 14.68L67.87 20.9L70.15 16.66L74.7 18.99V11.22" stroke="#CBCBCB" stroke-width="0.75" stroke-linecap="round" stroke-linejoin="round"/>
<path d="M70.41 17.05C70.93 20.75 71.71 24.42 72.39 28.09C72.99 31.32 75.03 41.67 75.03 41.67" stroke="#CBCBCB" stroke-width="0.75" stroke-linecap="round" stroke-linejoin="round"/>
<path d="M78.66 23.03C79.83 25.75 81.13 32.96 80.85 33.88C80.43 35.26 72.98 44.45 72.98 44.45C72.98 44.45 74.9 46.99 75.6 47.64C79.14 44.68 82.89 41.59 85.84 37.98C85.94 37.86 86.03 37.74 86.12 37.63" stroke="#CBCBCB" stroke-width="0.75" stroke-linecap="round" stroke-linejoin="round"/>
</g>
<defs>
<clipPath id="clip0_98_6119">
<rect width="137.78" height="88.27" fill="white"/>
</clipPath>
</defs>
</svg>
