<svg width="74" height="92" viewBox="0 0 74 92" fill="none" xmlns="http://www.w3.org/2000/svg">
<g clip-path="url(#clip0_98_6192)">
<path opacity="0.3" d="M38.7101 91.26C57.9848 91.26 73.6101 88.8468 73.6101 85.87C73.6101 82.8932 57.9848 80.48 38.7101 80.48C19.4353 80.48 3.81006 82.8932 3.81006 85.87C3.81006 88.8468 19.4353 91.26 38.7101 91.26Z" fill="#020500"/>
<path d="M19.53 9.62997C19.79 8.06997 19.6 4.75997 22.08 4.95997C24.24 5.13997 23.42 9.61997 21.88 10.93C20.8 11.85 20.19 10.89 19.53 9.62997V9.62997Z" fill="#D38B87"/>
<path d="M30.0301 17.85C27.7201 20.52 22.4601 21.11 19.3101 22.65C20.7101 18.22 21.5701 14.69 23.0501 10.53C21.5001 9.72998 18.7601 9.72998 18.7601 9.72998C18.7601 9.72998 14.4901 16.79 12.4301 21.72C10.9501 25.25 9.27008 31.42 15.0401 30.85C17.4901 30.61 28.8901 30.5 31.2401 28.6" fill="#DDC437"/>
<path d="M8.17002 78.3299C8.18002 79.9999 4.47002 82.4699 6.32002 83.7699C7.98002 84.9399 11.46 82.8199 11.62 80.9399C11.68 80.3199 11.36 79.3099 11.2 78.6999C10.84 77.3299 10.19 77.2799 8.17002 78.3299V78.3299Z" fill="#28334D"/>
<path d="M28.6899 69.8099C24.0499 68.4499 19.4099 65.3499 15.2699 62.8899C13.3999 61.7699 9.51992 58.9599 9.51992 58.9599C10.2699 64.0899 10.2599 67.4199 10.7299 70.5999C11.1399 73.3199 11.5199 76.03 11.7699 78.66C8.98992 79.58 6.75992 79.62 6.75992 79.62C6.75992 79.62 3.29992 67.56 1.61992 62.74C0.0899162 58.36 -2.34008 49.2099 5.19992 49.1599C8.07992 49.1399 11.0699 49.8699 13.9099 50.2799C23.1199 51.6299 32.4299 52.7699 41.6499 53.8599" fill="#EEEDE9"/>
<path d="M45.5199 83.85C47.1499 84.23 48.6799 88.42 50.3799 86.92C51.9099 85.57 50.6499 81.7 48.8699 81.1C48.2799 80.9 47.2199 80.97 46.5999 80.99C45.1799 81.02 44.9799 81.64 45.5299 83.85H45.5199Z" fill="#28334D"/>
<path d="M44.0901 48.92C44.4201 54 44.5601 57.52 42.0401 61.92C39.6301 66.11 35.5401 69.9 32.1701 73.35C30.6401 74.91 27.0101 78.03 27.0101 78.03C32.1701 78.5 35.4101 79.29 38.6101 79.57C41.3501 79.81 44.0701 80.07 46.6901 80.44C46.9401 83.35 46.4501 85.53 46.4501 85.53C46.4501 85.53 33.9201 86.08 28.8301 86.58C24.2101 87.04 14.7501 87.26 16.4701 79.92C17.1301 77.12 18.5301 74.38 19.6001 71.71C23.0601 63.07 26.3501 54.28 29.5601 45.58" fill="#EEEDE9"/>
<path d="M22.68 4.06006H18.29V7.41006H22.68V4.06006Z" fill="#AAAAAA"/>
<path d="M18.7901 3.42004H17.0901V8.04004H18.7901V3.42004Z" fill="black"/>
<path d="M28.7599 9.41001C28.4699 11.53 28.7799 13.8 28.5199 15.92C28.3299 17.5 27.8899 19.04 27.6299 20.65C29.3299 19.79 31.2199 18.1 32.4899 16.68C33.4299 15.63 33.3199 15.19 33.1599 13.7C32.9799 12.01 32.6799 10.1 32.8199 8.46001C31.3699 8.04001 30.1899 9.50001 28.7499 9.40001L28.7599 9.41001Z" fill="#D38B87"/>
<path d="M20.6699 51.16C24.6399 52.94 45.7799 53.83 45.8299 52.26C45.9199 49.06 42.7899 31.42 42.0299 28.31C40.5599 22.33 36.9299 17.73 33.2699 12.83C32.7799 13.08 32.2999 13.6 31.8599 13.91C31.3399 14.28 30.8099 14.59 30.3299 15C29.4099 15.78 28.5599 16.61 27.8399 17.58C25.6099 20.55 25.1899 24.1 24.6299 27.77C24.0299 31.69 20.6799 51.16 20.6799 51.16H20.6699Z" fill="#DDC437"/>
<path d="M31.41 0.730022C27.41 0.640022 24.88 4.60002 25.81 8.18002C26.82 12.09 31.38 13.62 33.6 9.72002C34.87 7.48002 35.98 1.33002 31.42 0.730022H31.41Z" fill="#D38B87"/>
<path d="M27.2099 2.38006C29.4999 3.64006 31.24 3.95006 30.78 7.19006C31.56 6.20006 32.94 6.41006 32.83 7.81006C32.71 9.37006 31.4999 9.26006 32.6399 10.8201C36.5599 9.06006 38.62 5.23006 35.18 1.75006C33.87 0.430056 32.23 -0.209943 30.36 0.0500565C28.9 0.250057 28.05 0.940056 27.2 2.37006L27.2099 2.38006Z" fill="black"/>
<path d="M25.6099 1.82996H20.6699V9.63996H25.6099V1.82996Z" fill="black"/>
<path d="M24.0699 0.430054H22.6299V1.87005H24.0699V0.430054Z" fill="#AAAAAA"/>
<path d="M21.0801 11.03C21.3401 9.46999 21.1501 6.15999 23.6301 6.35999C25.7901 6.53999 24.9701 11.02 23.4301 12.33C22.3501 13.25 21.7401 12.29 21.0801 11.03V11.03Z" fill="#D38B87"/>
<path d="M31.5799 19.26C29.2699 21.93 24.0099 22.52 20.8599 24.06C22.2599 19.63 23.1199 16.1 24.5999 11.94C23.0499 11.14 20.3099 11.14 20.3099 11.14C20.3099 11.14 16.0399 18.2 13.9799 23.13C12.4999 26.66 10.8199 32.83 16.5899 32.26C19.0399 32.02 30.4399 31.91 32.7899 30.01" fill="#DDC437"/>
<path d="M21.0801 11.03C21.3401 9.46999 21.1501 6.15999 23.6301 6.35999C25.7901 6.53999 24.9701 11.02 23.4301 12.33C22.3501 13.25 21.7401 12.29 21.0801 11.03V11.03Z" fill="#D38B87"/>
<path d="M31.5799 19.26C29.2699 21.93 24.0099 22.52 20.8599 24.06C22.2599 19.63 23.1199 16.1 24.5999 11.94C23.0499 11.14 20.3099 11.14 20.3099 11.14C20.3099 11.14 16.0399 18.2 13.9799 23.13C12.4999 26.66 10.8199 32.83 16.5899 32.26C19.0399 32.02 30.4399 31.91 32.7899 30.01" fill="#DDC437"/>
<path d="M24.73 31.76C28.18 31.47 31.62 30.96 32.79 30.01" stroke="white" stroke-width="0.75" stroke-linecap="round" stroke-linejoin="round"/>
<path d="M21.07 11.17C20.61 11.14 20.32 11.14 20.32 11.14C20.32 11.14 16.05 18.2 13.99 23.13C13.17 25.09 12.28 27.88 12.65 29.86" stroke="white" stroke-width="0.75" stroke-linecap="round" stroke-linejoin="round"/>
<path d="M31.5801 19.26C29.2701 21.93 24.0101 22.52 20.8601 24.06C21.0701 23.39 21.2701 22.74 21.4601 22.1" stroke="white" stroke-width="0.75" stroke-linecap="round" stroke-linejoin="round"/>
<path d="M21.77 66.17L26.06 57.14" stroke="#CBCBCB" stroke-width="0.75" stroke-linecap="round" stroke-linejoin="round"/>
</g>
<defs>
<clipPath id="clip0_98_6192">
<rect width="73.61" height="91.26" fill="white"/>
</clipPath>
</defs>
</svg>
