<svg width="110" height="103" viewBox="0 0 110 103" fill="none" xmlns="http://www.w3.org/2000/svg">
<g clip-path="url(#clip0_98_6216)">
<path opacity="0.3" d="M109.83 95.72C109.83 91.97 88.05 88.92 61.18 88.92C34.31 88.92 12.53 91.96 12.53 95.72C12.53 99.48 34.31 102.52 61.18 102.52C88.05 102.52 109.83 99.48 109.83 95.72Z" fill="black"/>
<path d="M46.4409 77.4509L40.0774 81.9615L40.8812 83.0956L47.2447 78.5849L46.4409 77.4509Z" fill="#949494"/>
<path d="M34.5025 80.5815L34.0381 82.7626L43.2027 84.7139L43.6671 82.5328L34.5025 80.5815Z" fill="#594E4B"/>
<path d="M58.6188 59.8977L49.8591 74.3503L51.0478 75.0708L59.8075 60.6182L58.6188 59.8977Z" fill="#949494"/>
<path d="M46.5401 84.71C43.1401 84.71 40.3701 81.94 40.3701 78.54C40.3701 75.14 43.1401 72.37 46.5401 72.37C49.9401 72.37 52.7101 75.14 52.7101 78.54C52.7101 81.94 49.9401 84.71 46.5401 84.71ZM46.5401 73.76C43.9001 73.76 41.7601 75.9 41.7601 78.54C41.7601 81.18 43.9001 83.32 46.5401 83.32C49.1801 83.32 51.3201 81.18 51.3201 78.54C51.3201 75.9 49.1801 73.76 46.5401 73.76Z" fill="#949494"/>
<path d="M47.3888 70.7466L45.8538 78.394L47.2166 78.6676L48.7516 71.0201L47.3888 70.7466Z" fill="#949494"/>
<path d="M15.19 96.5599C6.82 96.5599 0 89.7499 0 81.3699C0 72.9899 6.81 66.1799 15.19 66.1799C23.57 66.1799 30.38 72.9899 30.38 81.3699C30.38 89.7499 23.57 96.5599 15.19 96.5599ZM15.19 68.4199C8.05 68.4199 2.23 74.2299 2.23 81.3799C2.23 88.5299 8.04 94.3399 15.19 94.3399C22.34 94.3399 28.15 88.5299 28.15 81.3799C28.15 74.2299 22.34 68.4199 15.19 68.4199Z" fill="#594E4B"/>
<path d="M52.357 68.8941L43.0332 69.8231L43.2543 72.0421L52.5781 71.1131L52.357 68.8941Z" fill="#594E4B"/>
<path d="M54.14 57.19C53.18 57.13 51.56 57.43 52.05 58.65C52.32 59.35 53.94 59.91 54.56 60.25C56.89 61.54 60.82 62.65 63.47 62.91C66.67 63.22 73.53 59.96 68.71 55.59C65.5 52.68 59.67 56.21 54.14 57.19Z" fill="#594E4B"/>
<path d="M75.0401 96.5599C66.6701 96.5599 59.8501 89.7499 59.8501 81.3699C59.8501 72.9899 66.6601 66.1799 75.0401 66.1799C83.4201 66.1799 90.2301 72.9899 90.2301 81.3699C90.2301 89.7499 83.4201 96.5599 75.0401 96.5599ZM75.0401 68.4199C67.9001 68.4199 62.0801 74.2299 62.0801 81.3799C62.0801 88.5299 67.8901 94.3399 75.0401 94.3399C82.1901 94.3399 88.0001 88.5299 88.0001 81.3799C88.0001 74.2299 82.1901 68.4199 75.0401 68.4199Z" fill="#594E4B"/>
<path d="M38.5006 28.6607L14.5427 81.0858L15.807 81.6636L39.7648 29.2385L38.5006 28.6607Z" fill="#949494"/>
<path d="M25.9081 58.7113L25.0388 59.7959L46.5211 77.0126L47.3903 75.9279L25.9081 58.7113Z" fill="#949494"/>
<path d="M75.6101 82.1099L51.8301 80.4199L51.9301 79.0299L74.4701 80.6399L77.8201 62.7999L79.1901 63.0599L75.6101 82.1099Z" fill="#949494"/>
<path d="M89.11 61.87H70.25V64H89.11V61.87Z" fill="#594E4B"/>
<path d="M40.17 28.08C40.26 27.29 39.7 26.58 38.91 26.49C38.12 26.4 37.41 26.96 37.32 27.75C37.23 28.54 37.79 29.25 38.58 29.34C39.37 29.43 40.08 28.87 40.17 28.08Z" fill="#594E4B"/>
<path d="M39.5701 26.74L42.3401 28.97L40.8701 31.14L37.8101 28.68" fill="#594E4B"/>
<path d="M43.14 30.28C43.14 29.49 42.5 28.85 41.71 28.85C40.92 28.85 40.28 29.49 40.28 30.28C40.28 31.07 40.92 31.71 41.71 31.71C42.5 31.71 43.14 31.07 43.14 30.28Z" fill="#594E4B"/>
<path d="M66.3499 53.7399C62.6499 55.7099 59.8599 56.6199 55.5899 55.5499C51.9099 54.6199 47.9499 52.9199 44.1899 51.9499C44.3799 52.6699 44.5899 53.4099 44.8199 54.1699C45.9199 57.7199 48.3399 62.24 49.7399 65.2999C51.1399 68.3599 49.3499 69.4499 47.1099 70.5399C44.6199 71.7499 46.6699 67.9 46.9299 66.7299C44.9099 64.1299 43.0799 61.8499 41.1799 59.0699C40.8399 58.5699 40.3399 57.9199 39.8699 57.1299C38.4799 54.7699 36.5899 51.9199 37.1099 48.9299C37.2799 47.9199 38.0799 47.5599 39.1599 47.1499C40.8899 46.4899 43.1899 45.8699 45.1999 45.6499C51.7099 44.9199 58.2899 44.7699 64.7699 43.8199" fill="#D18985"/>
<path d="M47.0999 70.54C49.2499 69.5 50.9699 68.45 49.8799 65.67C48.8299 66.62 47.5799 67.45 46.3999 68.22C45.8499 69.7 45.3199 71.4 47.0999 70.54Z" fill="#5B5B5B"/>
<path d="M64.7699 43.8101C58.2899 44.7701 51.6999 44.91 45.1999 45.64C43.1899 45.87 40.8899 46.48 39.1599 47.14C38.0799 47.55 37.2799 47.91 37.1099 48.92C36.5899 51.92 38.4799 54.76 39.8699 57.12C40.3399 57.91 40.8399 58.5601 41.1799 59.0601C42.2899 60.6901 43.3699 62.14 44.4899 63.59C45.6199 63.0401 46.9299 62.45 48.0599 61.76C46.8599 59.27 45.5499 56.5 44.8199 54.16C44.5799 53.4 44.3799 52.66 44.1899 51.94C47.9599 52.91 51.9099 54.6101 55.5899 55.5401C59.8599 56.6201 62.6499 55.7 66.3499 53.73L64.7699 43.8V43.8101Z" fill="#D3D3D3"/>
<path d="M62.36 42.06C54.8 46.02 46.59 47.99 38.79 51.3C37.51 51.84 35.34 51.89 34.62 53.79C33.48 56.79 37.27 74.99 38.32 78.04C37.86 78.8 35.01 82.34 37.53 81.98C40.12 81.61 41.96 80.15 41.67 77.41C41.94 72.1 42.16 66.68 42.31 61.45C42.34 60.32 42.27 59.65 42.4 58.61C46.62 57.01 53.22 58.24 57.02 58.01C62.07 57.71 64.4 57.79 68.26 55.4C73.71 52.03 73.23 45.74 70.33 40.77" fill="#D18985"/>
<path d="M37.5401 81.98C40.4701 81.4 42.0201 79.98 41.7401 77.77C40.4301 78.27 39.1401 78.69 37.7901 78.98C36.7401 80.51 34.7801 82.53 37.5401 81.98Z" fill="#5B5B5B"/>
<path d="M70.3301 40.78L62.3601 42.06C54.8001 46.02 46.5901 47.99 38.7901 51.3C37.5101 51.84 35.3401 51.89 34.6201 53.79C33.8101 55.93 35.4901 65.74 36.9101 72.33C38.5701 72.59 40.1301 72.76 41.9001 72.64C42.0701 68.89 42.2101 65.12 42.3201 61.45C42.3501 60.32 42.2801 59.65 42.4101 58.61C46.6301 57.01 53.2301 58.24 57.0301 58.01C62.0801 57.71 64.4101 57.79 68.2701 55.4C73.7201 52.03 73.2401 45.74 70.3401 40.77L70.3301 40.78Z" fill="#D3D3D3"/>
<path d="M42.3201 60.48C42.3201 59.86 42.3201 59.32 42.4001 58.62C43.4601 58.22 44.6601 58 45.9301 57.88" stroke="#C9C9C9" stroke-width="0.75" stroke-linecap="round" stroke-linejoin="round"/>
<path d="M51.9601 46.46C47.5601 48.04 43.1101 49.46 38.7901 51.29C38.3701 51.47 37.8501 51.59 37.3201 51.75" stroke="#C9C9C9" stroke-width="0.75" stroke-linecap="round" stroke-linejoin="round"/>
<path d="M43.07 26.73C41.88 26.23 40.22 25.97 39.76 27.26C39.36 28.38 42 29.44 43.41 28.65C44.41 28.09 43.62 27.71 43.07 26.73Z" fill="#D18985"/>
<path d="M60.1199 16.1C59.8099 19.13 57.9299 21.53 56.3899 23C55.1599 24.17 53.6699 24.98 52.1099 25.42C50.3099 25.93 43.6099 25.88 42.1599 25.91C42.1599 25.91 42.3399 29.16 42.3399 29.19C42.2699 29.85 44.9199 30.99 45.4399 31.23C47.1899 32.04 49.0499 32.4 51.0599 32.33C57.5899 32.1 62.0799 30.55 65.1199 25" fill="#FF9DA2"/>
<path d="M58.79 7.13995C58.76 8.72995 59.19 10.38 59.18 11.96C59.18 13.14 58.99 14.31 58.94 15.52C60.12 14.74 63.07 14.21 63.88 13.05C64.48 12.2 64.36 11.88 64.11 10.8C63.83 9.56995 61.74 7.30995 61.7 6.08995C60.6 5.90995 59.85 7.08995 58.78 7.13995H58.79Z" fill="#D18985"/>
<path d="M59.98 0.51001C57.02 0.80001 55.51 3.94001 56.5 6.49001C57.59 9.28001 61.08 10.01 62.37 6.94001C63.11 5.17001 63.39 0.55001 59.98 0.51001Z" fill="#D18985"/>
<path d="M55.0601 43C54.9701 44.1301 55.8101 45.12 56.9401 45.2001C62.4601 45.62 74.2601 46.92 74.8301 44.94C75.3101 43.2701 70.8501 21.76 69.9801 19.54C68.3101 15.26 67.5401 14.07 64.3601 10.8C61.1601 14.64 58.7901 14.64 58.7901 14.64C58.7801 16.28 56.6801 23.24 56.6601 24.23C56.6201 26.51 55.3801 39.04 55.0601 43.01V43Z" fill="#FF9DA2"/>
<path d="M41.84 29.6C40.65 29.1 38.99 28.84 38.53 30.13C38.13 31.25 40.77 32.31 42.18 31.52C43.18 30.96 42.39 30.58 41.84 29.6Z" fill="#D18985"/>
<path d="M58.8999 18.97C58.5899 21.99 56.7099 24.4 55.1699 25.87C53.9399 27.04 52.4499 27.85 50.8899 28.29C49.0899 28.8 42.3899 28.75 40.9399 28.78C40.9399 28.78 41.1199 32.03 41.1199 32.06C41.0499 32.72 43.6999 33.86 44.2199 34.1C45.9699 34.91 47.8299 35.27 49.8399 35.2C56.3699 34.97 60.8599 33.42 63.8999 27.87" fill="#FF9DA2"/>
<path d="M59.27 0.0700436C58.81 0.140044 58.37 0.280044 57.95 0.490044C56.87 1.04004 56.04 2.16004 56.04 3.37004C57.28 3.52004 58.51 3.67004 59.75 3.82004C59.45 5.37004 59.49 7.01004 60.04 8.49004C60.59 9.97004 61.68 11.27 63.12 11.92C65.58 13.03 67.79 12.15 69.96 13.74C71.81 15.1 72.06 17.49 76.36 17.16C78.99 16.96 80.68 16 79.72 14.85C78.87 13.84 77.42 13.48 76.35 13.24C75.38 13.02 74.91 12.17 74.68 11.25C74.3 9.69004 74.69 8.35004 73.45 7.10004C72.23 5.87004 70.13 6.28004 68.58 5.50004C67.33 4.86004 66.61 3.54004 65.65 2.51004C64.55 1.32004 63.07 0.480044 61.48 0.150044C60.75 4.35561e-05 59.98 -0.0399564 59.25 0.0800436L59.27 0.0700436Z" fill="black"/>
<path d="M56 34.35C59.34 33.38 61.92 31.47 63.88 27.88" stroke="white" stroke-width="0.75" stroke-linecap="round" stroke-linejoin="round"/>
<path d="M58.8999 18.97C58.5899 21.99 56.7099 24.4 55.1699 25.87C53.9399 27.04 52.4499 27.85 50.8899 28.29C49.4099 28.71 44.6199 28.75 42.1599 28.77" stroke="white" stroke-width="0.75" stroke-linecap="round" stroke-linejoin="round"/>
</g>
<defs>
<clipPath id="clip0_98_6216">
<rect width="109.83" height="102.52" fill="white"/>
</clipPath>
</defs>
</svg>
