<svg width="79" height="45" viewBox="0 0 79 45" fill="none" xmlns="http://www.w3.org/2000/svg">
<path d="M3.78509 44.4838C2.30159 44.5105 0.938377 43.5215 0.577527 42.0246C-0.652038 37.0529 0.483974 32.2683 3.82518 28.1787C8.28904 22.7392 16.5351 19.1708 23.8858 19.5049C29.1916 19.7455 34.5777 21.4562 39.9637 24.5969C40.0439 17.5002 43.2381 10.4034 48.8112 5.93959C56.5227 -0.234959 68.1769 -0.849743 76.5031 4.46946C78.0134 5.43173 78.4544 7.43645 77.4921 8.93332C76.5299 10.4435 74.5251 10.8846 73.0283 9.92231C66.9606 6.04651 58.4874 6.50092 52.8741 10.9915C47.2609 15.4821 44.9621 23.6614 47.4079 30.424C47.9024 31.7872 47.4346 33.3108 46.2585 34.1528C45.0824 34.9947 43.492 34.968 42.356 34.0592C35.9275 28.9538 29.6193 26.2408 23.6185 25.9601C18.2592 25.7196 12.0579 28.3792 8.85036 32.2817C6.81891 34.7675 6.15066 37.5207 6.87236 40.4743C7.30004 42.2118 6.24422 43.9625 4.50679 44.3902C4.26622 44.4437 4.03901 44.4838 3.79845 44.4838H3.78509Z" fill="white"/>
<path d="M3.83855 28.1787C0.483978 32.2683 -0.638668 37.0529 0.590896 42.0247C0.965112 43.5215 2.31495 44.5239 3.79845 44.4838C4.02565 44.4838 4.26623 44.4437 4.50679 44.3902C6.24422 43.9626 7.30004 42.2118 6.87236 40.4743C6.15066 37.5207 6.80555 34.7676 8.85036 32.2817C9.09093 31.9877 9.35822 31.707 9.63889 31.4264C7.83463 30.2102 6.05711 28.9539 4.29295 27.6575C4.14594 27.8312 3.99892 28.005 3.85191 28.1787H3.83855Z" fill="black"/>
<path d="M76.5031 4.46946C70.3152 0.513472 62.283 -0.154769 55.4001 2.291C56.3624 4.2289 57.3246 6.18016 58.2602 8.13143C63.1383 6.59447 68.6981 7.14243 73.0283 9.92231C74.5385 10.8846 76.5299 10.4435 77.4921 8.93332C78.4544 7.42309 78.0134 5.43173 76.5031 4.46946V4.46946Z" fill="black"/>
<path d="M50.963 40.3139C50.415 40.4476 49.8269 40.2338 49.4928 39.7526C47.9425 37.5341 46.2318 35.3957 44.4008 33.391C43.8796 32.8163 43.9197 31.9342 44.4944 31.413C45.0691 30.8917 45.9511 30.9318 46.4724 31.5065C48.3702 33.6048 50.1611 35.8367 51.7782 38.1488C52.2192 38.777 52.0722 39.6591 51.4307 40.1001C51.2837 40.207 51.1233 40.2738 50.9496 40.3139H50.963Z" fill="#FFCE00"/>
</svg>
