<svg width="79" height="49" viewBox="0 0 79 49" fill="none" xmlns="http://www.w3.org/2000/svg">
<g opacity="0.3" clip-path="url(#clip0_65_233)">
<path d="M71.99 11.61H62.9001L57.7901 0H22L16.89 11.61H7.80005V17.21H15.57V29.51H21.17V15.79L24.0401 9.26L28.2001 17.21H57.55V23.75H63.1501V17.21H71.99V11.61ZM28.4501 5.6H54.14L56.78 11.61H31.59L28.4501 5.6Z" fill="#C8C9C7"/>
<path d="M28.16 48.8799H22.56C22.56 38.1899 18.09 30.7299 14.08 30.7299C10.07 30.7299 5.6 38.1799 5.6 48.8799H0C0 35.5699 6.18 25.1399 14.08 25.1399C21.98 25.1399 28.16 35.5699 28.16 48.8799Z" fill="#2FB06C"/>
<path d="M50.71 48.8798H45.1101C45.1101 41.7098 41.2301 35.6498 36.6301 35.6498C32.0301 35.6498 28.15 41.7098 28.15 48.8798H22.55C22.55 38.3198 28.7301 30.0498 36.6301 30.0498C44.5301 30.0498 50.71 38.3198 50.71 48.8798Z" fill="#2FB06C"/>
<path d="M61.9801 26.32C68.0401 26.32 72.4301 36.23 73.1401 46.07H78.7601C77.9401 31.64 70.8601 20.72 61.9701 20.72C53.0801 20.72 46.0001 31.65 45.1801 46.07H50.8001C51.5201 36.23 55.9001 26.32 61.9701 26.32H61.9801Z" fill="#2FB06C"/>
</g>
<defs>
<clipPath id="clip0_65_233">
<rect width="78.77" height="48.88" fill="white"/>
</clipPath>
</defs>
</svg>
