<?xml version="1.0" encoding="utf-8"?>
<!-- Generator: Adobe Illustrator 25.0.1, SVG Export Plug-In . SVG Version: 6.00 Build 0)  -->
<svg version="1.1" id="Layer_1" xmlns="http://www.w3.org/2000/svg" xmlns:xlink="http://www.w3.org/1999/xlink" x="0px" y="0px"
	 viewBox="0 0 15 15" style="enable-background:new 0 0 15 15;" xml:space="preserve">
<style type="text/css">
	.st0{fill:#FFFFFF;}
</style>
<g>
	<g>
		<path class="st0" d="M13,8.8H2c-0.7,0-1.3-0.6-1.3-1.3S1.3,6.2,2,6.2h11c0.7,0,1.3,0.6,1.3,1.3S13.7,8.8,13,8.8z"/>
	</g>
	<g>
		<path class="st0" d="M7.7,14.2c-0.3,0-0.7-0.1-0.9-0.4c-0.5-0.5-0.5-1.4,0-1.9l5.3-5.3c0.5-0.5,1.4-0.5,1.9,0
			c0.5,0.5,0.5,1.4,0,1.9l-5.3,5.3C8.4,14,8,14.2,7.7,14.2z"/>
	</g>
	<g>
		<path class="st0" d="M13,8.8c-0.3,0-0.7-0.1-0.9-0.4L6.7,3.1c-0.5-0.5-0.5-1.4,0-1.9c0.5-0.5,1.4-0.5,1.9,0l5.3,5.3
			c0.5,0.5,0.5,1.4,0,1.9C13.7,8.7,13.3,8.8,13,8.8z"/>
	</g>
</g>
</svg>
