<svg width="113" height="136" viewBox="0 0 113 136" fill="none" xmlns="http://www.w3.org/2000/svg">
<g clip-path="url(#clip0_65_174)">
<path d="M74.29 40.4401H68.69C68.69 36.1901 65.23 32.7201 60.97 32.7201C56.71 32.7201 53.25 36.1801 53.25 40.4401H47.65C47.65 33.1001 53.62 27.1201 60.97 27.1201C68.32 27.1201 74.29 33.0901 74.29 40.4401Z" fill="white"/>
<path d="M53.26 40.4401H47.66C47.66 36.1901 44.2 32.7201 39.94 32.7201C35.68 32.7201 32.22 36.1801 32.22 40.4401H26.62C26.62 33.1001 32.59 27.1201 39.94 27.1201C47.29 27.1201 53.26 33.0901 53.26 40.4401Z" fill="white"/>
<path d="M12.4101 11.6499H2.56006V17.2499H12.4101V11.6499Z" fill="white"/>
<path d="M31.4601 11.6499H21.6101V17.2499H31.4601V11.6499Z" fill="white"/>
<path d="M19.8101 0H14.2101V9.85H19.8101V0Z" fill="white"/>
<path d="M19.8101 19.05H14.2101V28.9H19.8101V19.05Z" fill="white"/>
<path d="M17.92 85.38C8.04 85.38 0 77.34 0 67.46C0 57.58 8.04 49.55 17.91 49.55C27.78 49.55 35.82 57.59 35.82 67.46C35.82 77.33 27.78 85.3701 17.91 85.3701L17.92 85.38ZM17.92 55.1501C11.13 55.1501 5.61 60.67 5.61 67.46C5.61 74.25 11.13 79.77 17.92 79.77C24.71 79.77 30.23 74.25 30.23 67.46C30.23 60.67 24.71 55.1501 17.92 55.1501Z" fill="white"/>
<path d="M105.32 74.34H96.23L91.12 62.73H55.33L50.22 74.34H41.13V79.94H48.9V92.24H54.5V78.53L57.37 72L61.53 79.95H90.88V86.49H96.48V79.95H105.32V74.35V74.34ZM61.78 68.33H87.47L90.11 74.34H64.92L61.78 68.33Z" fill="white"/>
<path d="M89.4715 28.8705L85.5117 32.8303L92.4767 39.7953L96.4365 35.8355L89.4715 28.8705Z" fill="white"/>
<path d="M102.941 42.3405L98.9812 46.3003L105.946 53.2653L109.906 49.3055L102.941 42.3405Z" fill="white"/>
<path d="M105.951 28.8763L98.9846 35.8401L102.944 39.8006L109.91 32.8368L105.951 28.8763Z" fill="white"/>
<path d="M92.4713 42.3382L85.5063 49.3032L89.4661 53.263L96.4311 46.298L92.4713 42.3382Z" fill="white"/>
<path d="M61.49 111.61H55.89C55.89 100.92 51.42 93.4601 47.41 93.4601C43.4 93.4601 38.93 100.91 38.93 111.61H33.33C33.33 98.3001 39.51 87.8701 47.41 87.8701C55.31 87.8701 61.49 98.3001 61.49 111.61Z" fill="white"/>
<path d="M84.04 111.61H78.44C78.44 104.44 74.56 98.38 69.96 98.38C65.36 98.38 61.48 104.44 61.48 111.61H55.88C55.88 101.05 62.06 92.78 69.96 92.78C77.86 92.78 84.04 101.05 84.04 111.61Z" fill="white"/>
<path d="M95.31 89.05C101.37 89.05 105.76 98.96 106.47 108.8H112.09C111.27 94.37 104.19 83.45 95.3 83.45C86.41 83.45 79.33 94.38 78.51 108.8H84.13C84.85 98.96 89.23 89.05 95.3 89.05H95.31Z" fill="white"/>
<path d="M112.1 108.81H0V114.41H112.18V111.45C112.18 110.56 112.15 109.68 112.1 108.81Z" fill="white"/>
<path d="M100.96 120H95.36C95.36 125.55 90.33 130.07 84.14 130.07C77.95 130.07 72.92 125.55 72.92 120H67.32C67.32 125.55 62.29 130.07 56.1 130.07C49.91 130.07 44.88 125.55 44.88 120H39.28C39.28 125.55 34.25 130.07 28.06 130.07C21.87 130.07 16.84 125.55 16.84 120H11.24C11.22 125.56 6.19 130.08 0 130.08V135.68C5.85 135.68 11.01 132.88 14.02 128.65C17.04 132.88 22.19 135.68 28.04 135.68C33.89 135.68 39.05 132.88 42.06 128.65C45.08 132.88 50.23 135.68 56.08 135.68C61.93 135.68 67.09 132.88 70.1 128.65C73.11 132.88 78.27 135.68 84.12 135.68C89.97 135.68 95.13 132.88 98.14 128.65C101.16 132.88 106.31 135.68 112.16 135.68V130.08C105.97 130.08 100.94 125.56 100.94 120.01L100.96 120Z" fill="white"/>
<path d="M110.72 15.59H105.12C105.12 11.34 101.66 7.87002 97.4001 7.87002C93.1401 7.87002 89.6801 11.33 89.6801 15.59H84.0801C84.0801 8.25002 90.0501 2.27002 97.4001 2.27002C104.75 2.27002 110.72 8.24002 110.72 15.59Z" fill="white"/>
<path d="M89.6901 15.59H84.09C84.09 11.34 80.6301 7.87002 76.3701 7.87002C72.1101 7.87002 68.6501 11.33 68.6501 15.59H63.05C63.05 8.25002 69.0201 2.27002 76.3701 2.27002C83.7201 2.27002 89.6901 8.24002 89.6901 15.59Z" fill="white"/>
</g>
<defs>
<clipPath id="clip0_65_174">
<rect width="112.18" height="135.68" fill="white"/>
</clipPath>
</defs>
</svg>
