<svg width="70" height="70" viewBox="0 0 70 70" fill="none" xmlns="http://www.w3.org/2000/svg">
<mask id="mask0_112_871" style="mask-type:alpha" maskUnits="userSpaceOnUse" x="0" y="5" width="70" height="60">
<rect y="5" width="70" height="60" fill="#C4C4C4"/>
</mask>
<g mask="url(#mask0_112_871)">
<path d="M51.2773 54.3554C50.866 54.3554 50.5329 54.0223 50.5329 53.611V32.7665C50.5329 32.3552 50.1998 32.0221 49.7885 32.0221H20.0107C19.5994 32.0221 19.2662 32.3552 19.2662 32.7665V53.611C19.2662 54.0223 18.9331 54.3554 18.5218 54.3554C18.1105 54.3554 17.7773 54.0223 17.7773 53.611V32.7665C17.7773 31.5345 18.7786 30.5332 20.0107 30.5332H49.7885C51.0205 30.5332 52.0218 31.5345 52.0218 32.7665V53.611C52.0218 54.0223 51.6887 54.3554 51.2773 54.3554Z" fill="#555555" stroke="#555555" stroke-width="0.2"/>
<path d="M48.3003 51.3784H21.5003C21.089 51.3784 20.7559 51.0452 20.7559 50.6339V34.2562C20.7559 33.8449 21.089 33.5117 21.5003 33.5117H48.3003C48.7116 33.5117 49.0447 33.8449 49.0447 34.2562V50.6339C49.0447 51.0452 48.7116 51.3784 48.3003 51.3784ZM22.2447 49.8895H47.5559V35.0006H22.2447V49.8895Z" fill="#555555" stroke="#555555" stroke-width="0.2"/>
<path d="M51.2776 57.3339H18.522C16.4692 57.3339 14.7998 55.6644 14.7998 53.6116C14.7998 53.2003 15.1329 52.8672 15.5442 52.8672C15.9556 52.8672 16.2887 53.2003 16.2887 53.6116C16.2887 54.8437 17.29 55.845 18.522 55.845H51.2776C52.5096 55.845 53.5109 54.8437 53.5109 53.6116C53.5109 53.2003 53.8441 52.8672 54.2554 52.8672C54.6667 52.8672 54.9998 53.2003 54.9998 53.6116C54.9998 55.6644 53.3304 57.3339 51.2776 57.3339Z" fill="#555555" stroke="#555555" stroke-width="0.2"/>
<path d="M54.2554 54.3561H15.5442C15.1329 54.3561 14.7998 54.0229 14.7998 53.6116C14.7998 53.2003 15.1329 52.8672 15.5442 52.8672H54.2554C54.6667 52.8672 54.9998 53.2003 54.9998 53.6116C54.9998 54.0229 54.6667 54.3561 54.2554 54.3561Z" fill="#555555" stroke="#555555" stroke-width="0.2"/>
<path d="M49.0446 24.5783C48.6333 24.5783 48.3002 24.2452 48.3002 23.8339V22.345C48.3002 21.7438 46.8801 20.8561 43.8335 20.8561C40.7868 20.8561 39.3668 21.7438 39.3668 22.345V23.8339C39.3668 24.2452 39.0337 24.5783 38.6224 24.5783C38.2111 24.5783 37.8779 24.2452 37.8779 23.8339V22.345C37.8779 20.536 40.2155 19.3672 43.8335 19.3672C47.4515 19.3672 49.789 20.536 49.789 22.345V23.8339C49.789 24.2452 49.4559 24.5783 49.0446 24.5783Z" fill="#555555" stroke="#555555" stroke-width="0.2"/>
<path d="M43.8332 18.6225C42.1917 18.6225 40.8555 17.2863 40.8555 15.6448C40.8555 14.0033 42.1917 12.667 43.8332 12.667C45.4747 12.667 46.811 14.0033 46.811 15.6448C46.811 17.2863 45.4747 18.6225 43.8332 18.6225ZM43.8332 14.1559C43.0125 14.1559 42.3444 14.824 42.3444 15.6448C42.3444 16.4655 43.0125 17.1337 43.8332 17.1337C44.654 17.1337 45.3221 16.4655 45.3221 15.6448C45.3221 14.824 44.654 14.1559 43.8332 14.1559Z" fill="#555555" stroke="#555555" stroke-width="0.2"/>
<path d="M40.112 48.4006C39.7007 48.4006 39.3675 48.0674 39.3675 47.6561V46.1672C39.3675 45.5661 37.9475 44.6783 34.9009 44.6783C31.8542 44.6783 30.4342 45.5661 30.4342 46.1672V47.6561C30.4342 48.0674 30.1011 48.4006 29.6898 48.4006C29.2785 48.4006 28.9453 48.0674 28.9453 47.6561V46.1672C28.9453 44.3582 31.2829 43.1895 34.9009 43.1895C38.5189 43.1895 40.8564 44.3582 40.8564 46.1672V47.6561C40.8564 48.0674 40.5233 48.4006 40.112 48.4006Z" fill="#555555" stroke="#555555" stroke-width="0.2"/>
<path d="M34.9006 42.4448C33.2591 42.4448 31.9229 41.1085 31.9229 39.467C31.9229 37.8255 33.2591 36.4893 34.9006 36.4893C36.5421 36.4893 37.8784 37.8255 37.8784 39.467C37.8784 41.1085 36.5421 42.4448 34.9006 42.4448ZM34.9006 37.9781C34.0799 37.9781 33.4117 38.6463 33.4117 39.467C33.4117 40.2878 34.0799 40.9559 34.9006 40.9559C35.7214 40.9559 36.3895 40.2878 36.3895 39.467C36.3895 38.6463 35.7214 37.9781 34.9006 37.9781Z" fill="#555555" stroke="#555555" stroke-width="0.2"/>
<path d="M31.1774 24.5783C30.7661 24.5783 30.433 24.2452 30.433 23.8339V22.345C30.433 21.7438 29.0129 20.8561 25.9663 20.8561C22.9197 20.8561 21.4996 21.7438 21.4996 22.345V23.8339C21.4996 24.2452 21.1665 24.5783 20.7552 24.5783C20.3439 24.5783 20.0107 24.2452 20.0107 23.8339V22.345C20.0107 20.536 22.3483 19.3672 25.9663 19.3672C29.5843 19.3672 31.9219 20.536 31.9219 22.345V23.8339C31.9219 24.2452 31.5887 24.5783 31.1774 24.5783Z" fill="#555555" stroke="#555555" stroke-width="0.2"/>
<path d="M25.967 18.6225C24.3255 18.6225 22.9893 17.2863 22.9893 15.6448C22.9893 14.0033 24.3255 12.667 25.967 12.667C27.6085 12.667 28.9448 14.0033 28.9448 15.6448C28.9448 17.2863 27.6085 18.6225 25.967 18.6225ZM25.967 14.1559C25.1463 14.1559 24.4781 14.824 24.4781 15.6448C24.4781 16.4655 25.1463 17.1337 25.967 17.1337C26.7878 17.1337 27.4559 16.4655 27.4559 15.6448C27.4559 14.824 26.7878 14.1559 25.967 14.1559Z" fill="#555555" stroke="#555555" stroke-width="0.2"/>
<path d="M34.8997 29.7897C35.3109 29.7897 35.6442 29.4564 35.6442 29.0452C35.6442 28.6341 35.3109 28.3008 34.8997 28.3008C34.4886 28.3008 34.1553 28.6341 34.1553 29.0452C34.1553 29.4564 34.4886 29.7897 34.8997 29.7897Z" fill="#555555" stroke="#555555" stroke-width="0.2"/>
<path d="M34.8997 27.5563C35.3109 27.5563 35.6442 27.223 35.6442 26.8118C35.6442 26.4007 35.3109 26.0674 34.8997 26.0674C34.4886 26.0674 34.1553 26.4007 34.1553 26.8118C34.1553 27.223 34.4886 27.5563 34.8997 27.5563Z" fill="#555555" stroke="#555555" stroke-width="0.2"/>
<path d="M37.1331 27.5563C37.5443 27.5563 37.8776 27.223 37.8776 26.8118C37.8776 26.4007 37.5443 26.0674 37.1331 26.0674C36.722 26.0674 36.3887 26.4007 36.3887 26.8118C36.3887 27.223 36.722 27.5563 37.1331 27.5563Z" fill="#555555" stroke="#555555" stroke-width="0.2"/>
<path d="M39.3655 27.5563C39.7767 27.5563 40.11 27.223 40.11 26.8118C40.11 26.4007 39.7767 26.0674 39.3655 26.0674C38.9544 26.0674 38.6211 26.4007 38.6211 26.8118C38.6211 27.223 38.9544 27.5563 39.3655 27.5563Z" fill="#555555" stroke="#555555" stroke-width="0.2"/>
<path d="M41.5999 27.5563C42.0111 27.5563 42.3444 27.223 42.3444 26.8118C42.3444 26.4007 42.0111 26.0674 41.5999 26.0674C41.1888 26.0674 40.8555 26.4007 40.8555 26.8118C40.8555 27.223 41.1888 27.5563 41.5999 27.5563Z" fill="#555555" stroke="#555555" stroke-width="0.2"/>
<path d="M43.8333 27.5563C44.2445 27.5563 44.5778 27.223 44.5778 26.8118C44.5778 26.4007 44.2445 26.0674 43.8333 26.0674C43.4222 26.0674 43.0889 26.4007 43.0889 26.8118C43.0889 27.223 43.4222 27.5563 43.8333 27.5563Z" fill="#555555" stroke="#555555" stroke-width="0.2"/>
<path d="M43.8333 25.3229C44.2445 25.3229 44.5778 24.9896 44.5778 24.5784C44.5778 24.1673 44.2445 23.834 43.8333 23.834C43.4222 23.834 43.0889 24.1673 43.0889 24.5784C43.0889 24.9896 43.4222 25.3229 43.8333 25.3229Z" fill="#555555" stroke="#555555" stroke-width="0.2"/>
<path d="M32.6663 27.5563C33.0775 27.5563 33.4108 27.223 33.4108 26.8118C33.4108 26.4007 33.0775 26.0674 32.6663 26.0674C32.2552 26.0674 31.9219 26.4007 31.9219 26.8118C31.9219 27.223 32.2552 27.5563 32.6663 27.5563Z" fill="#555555" stroke="#555555" stroke-width="0.2"/>
<path d="M30.4329 27.5563C30.8441 27.5563 31.1774 27.223 31.1774 26.8118C31.1774 26.4007 30.8441 26.0674 30.4329 26.0674C30.0218 26.0674 29.6885 26.4007 29.6885 26.8118C29.6885 27.223 30.0218 27.5563 30.4329 27.5563Z" fill="#555555" stroke="#555555" stroke-width="0.2"/>
<path d="M28.1995 27.5563C28.6107 27.5563 28.944 27.223 28.944 26.8118C28.944 26.4007 28.6107 26.0674 28.1995 26.0674C27.7884 26.0674 27.4551 26.4007 27.4551 26.8118C27.4551 27.223 27.7884 27.5563 28.1995 27.5563Z" fill="#555555" stroke="#555555" stroke-width="0.2"/>
<path d="M25.9661 27.5563C26.3773 27.5563 26.7106 27.223 26.7106 26.8118C26.7106 26.4007 26.3773 26.0674 25.9661 26.0674C25.555 26.0674 25.2217 26.4007 25.2217 26.8118C25.2217 27.223 25.555 27.5563 25.9661 27.5563Z" fill="#555555" stroke="#555555" stroke-width="0.2"/>
<path d="M25.9661 25.3229C26.3773 25.3229 26.7106 24.9896 26.7106 24.5784C26.7106 24.1673 26.3773 23.834 25.9661 23.834C25.555 23.834 25.2217 24.1673 25.2217 24.5784C25.2217 24.9896 25.555 25.3229 25.9661 25.3229Z" fill="#555555" stroke="#555555" stroke-width="0.2"/>
</g>
</svg>
