<svg width="70" height="70" viewBox="0 0 70 70" fill="none" xmlns="http://www.w3.org/2000/svg">
<mask id="mask0_112_873" style="mask-type:alpha" maskUnits="userSpaceOnUse" x="0" y="5" width="70" height="60">
<path d="M0 5H70V65H0V5Z" fill="#C4C4C4"/>
</mask>
<g mask="url(#mask0_112_873)">
<path fill-rule="evenodd" clip-rule="evenodd" d="M23.41 15C23.7891 15 24.0965 15.3074 24.0965 15.6865V48.0776C24.0965 48.1032 24.0951 48.1288 24.0922 48.1542L23.41 48.0776C24.0922 48.1542 24.0922 48.1539 24.0922 48.1542L24.0919 48.1569L24.0914 48.1616L24.0896 48.1765C24.088 48.1889 24.0858 48.2062 24.0829 48.2281C24.077 48.2719 24.0681 48.334 24.0557 48.4118C24.0309 48.5673 23.9916 48.7866 23.9332 49.0486C23.817 49.5696 23.6217 50.2736 23.3053 50.9854C22.6887 52.3723 21.494 54.0218 19.3252 54.0218C18.946 54.0218 18.6387 53.7145 18.6387 53.3353C18.6387 52.9562 18.946 52.6488 19.3252 52.6488C20.6507 52.6488 21.4985 51.6695 22.0507 50.4276C22.3186 49.8249 22.4894 49.2144 22.5931 48.7496C22.6446 48.5187 22.6788 48.3272 22.6999 48.1952C22.7104 48.1293 22.7176 48.0784 22.7221 48.0452L22.7235 48.0346V15.6865C22.7235 15.3074 23.0308 15 23.41 15Z" fill="#555555"/>
<path d="M24.0922 48.1542C24.0951 48.1288 24.0965 48.1032 24.0965 48.0776V15.6865C24.0965 15.3074 23.7891 15 23.41 15C23.0308 15 22.7235 15.3074 22.7235 15.6865V48.0346L22.7221 48.0452C22.7176 48.0784 22.7104 48.1293 22.6999 48.1952C22.6788 48.3272 22.6446 48.5187 22.5931 48.7496C22.4894 49.2144 22.3186 49.8249 22.0507 50.4276C21.4985 51.6695 20.6507 52.6488 19.3252 52.6488C18.946 52.6488 18.6387 52.9562 18.6387 53.3353C18.6387 53.7145 18.946 54.0218 19.3252 54.0218C21.494 54.0218 22.6887 52.3723 23.3053 50.9854C23.6217 50.2736 23.817 49.5696 23.9332 49.0486C23.9916 48.7866 24.0309 48.5673 24.0557 48.4118C24.0681 48.334 24.077 48.2719 24.0829 48.2281C24.0858 48.2062 24.088 48.1889 24.0896 48.1765L24.0914 48.1616L24.0919 48.1569L24.0922 48.1542ZM24.0922 48.1542L23.41 48.0776C24.0922 48.1542 24.0922 48.1539 24.0922 48.1542Z" stroke="#555555" stroke-width="0.5" stroke-miterlimit="10" stroke-linecap="round" stroke-linejoin="round"/>
<path fill-rule="evenodd" clip-rule="evenodd" d="M22.8813 15.6826C22.8834 15.305 23.1901 15 23.5678 15H26.0598C26.4205 15 26.7197 15.2791 26.7447 15.6389C26.8156 16.6576 27.6738 17.4815 28.7579 17.4815C29.8449 17.4815 30.7053 16.6553 30.7708 15.6423C30.7941 15.281 31.0939 15 31.4559 15H33.9754C34.3361 15 34.6352 15.2791 34.6603 15.6389C34.7311 16.6576 35.5893 17.4815 36.6734 17.4815C37.7604 17.4815 38.6209 16.6553 38.6864 15.6423C38.7097 15.281 39.0095 15 39.3714 15H41.891C42.2529 15 42.5527 15.281 42.5761 15.6423C42.6416 16.6564 43.5031 17.4815 44.5821 17.4815C45.6692 17.4815 46.5296 16.6553 46.5951 15.6423C46.6184 15.281 46.9182 15 47.2801 15H50.2871C50.6663 15 50.9736 15.3074 50.9736 15.6865V35.6865C50.9736 36.0657 50.6663 36.373 50.2871 36.373C49.908 36.373 49.6006 36.0657 49.6006 35.6865V16.373H47.8596C47.4753 17.8055 46.1519 18.8546 44.5821 18.8546C43.0175 18.8546 41.6956 17.8048 41.3115 16.373H39.9509C39.5666 17.8055 38.2432 18.8546 36.6734 18.8546C35.1005 18.8546 33.7851 17.803 33.398 16.373H32.0353C31.651 17.8055 30.3276 18.8546 28.7579 18.8546C27.1849 18.8546 25.8696 17.803 25.4824 16.373H24.2504L24.1032 41.9857C24.1011 42.3633 23.7943 42.6683 23.4167 42.6683H16.373V48.0776C16.373 51.1874 19.1557 53.5 22.8195 53.5H43.1542C43.1596 53.5 43.165 53.5001 43.1703 53.5002C43.1757 53.5001 43.1811 53.5 43.1865 53.5H47.1865C47.5657 53.5 47.873 53.8074 47.873 54.1865C47.873 54.5657 47.5657 54.873 47.1865 54.873H43.1865C43.1811 54.873 43.1757 54.873 43.1703 54.8729C43.165 54.873 43.1596 54.873 43.1542 54.873H22.8195C18.6432 54.873 15 52.1701 15 48.0776V41.9818C15 41.6026 15.3074 41.2952 15.6865 41.2952H22.7341L22.8813 15.6826Z" fill="#555555" stroke="#555555" stroke-width="0.5" stroke-miterlimit="10" stroke-linecap="round" stroke-linejoin="round"/>
<path fill-rule="evenodd" clip-rule="evenodd" d="M28.5254 25.7832C28.5254 25.404 28.8328 25.0967 29.2119 25.0967H45.1323C45.5115 25.0967 45.8188 25.404 45.8188 25.7832C45.8188 26.1624 45.5115 26.4697 45.1323 26.4697H29.2119C28.8328 26.4697 28.5254 26.1624 28.5254 25.7832Z" fill="#555555" stroke="#555555" stroke-width="0.5" stroke-miterlimit="10" stroke-linecap="round" stroke-linejoin="round"/>
<path fill-rule="evenodd" clip-rule="evenodd" d="M28.5254 31.1123C28.5254 30.7331 28.8328 30.4258 29.2119 30.4258H45.1323C45.5115 30.4258 45.8188 30.7331 45.8188 31.1123C45.8188 31.4915 45.5115 31.7988 45.1323 31.7988H29.2119C28.8328 31.7988 28.5254 31.4915 28.5254 31.1123Z" fill="#555555" stroke="#555555" stroke-width="0.5" stroke-miterlimit="10" stroke-linecap="round" stroke-linejoin="round"/>
<path fill-rule="evenodd" clip-rule="evenodd" d="M28.5254 36.4492C28.5254 36.0701 28.8328 35.7627 29.2119 35.7627H45.1323C45.5115 35.7627 45.8188 36.0701 45.8188 36.4492C45.8188 36.8284 45.5115 37.1357 45.1323 37.1357H29.2119C28.8328 37.1357 28.5254 36.8284 28.5254 36.4492Z" fill="#555555" stroke="#555555" stroke-width="0.5" stroke-miterlimit="10" stroke-linecap="round" stroke-linejoin="round"/>
<path fill-rule="evenodd" clip-rule="evenodd" d="M28.5254 41.7852C28.5254 41.406 28.8328 41.0986 29.2119 41.0986H36.6744C37.0535 41.0986 37.3609 41.406 37.3609 41.7852C37.3609 42.1643 37.0535 42.4717 36.6744 42.4717H29.2119C28.8328 42.4717 28.5254 42.1643 28.5254 41.7852Z" fill="#555555" stroke="#555555" stroke-width="0.5" stroke-miterlimit="10" stroke-linecap="round" stroke-linejoin="round"/>
<path d="M50.2461 53.2166C47.181 53.2166 44.6865 50.7024 44.6865 47.6131C44.6865 44.7632 49.1489 38.668 49.657 37.9834C49.7951 37.796 50.0142 37.6865 50.2461 37.6865C50.4781 37.6865 50.6971 37.796 50.8352 37.9834C51.3433 38.668 55.8057 44.765 55.8057 47.6131C55.8075 50.7024 53.3131 53.2166 50.2461 53.2166ZM50.2461 39.6885C48.7255 41.8501 46.1574 45.869 46.1574 47.6113C46.1574 49.8823 47.991 51.7304 50.2443 51.7304C52.4976 51.7304 54.333 49.8823 54.333 47.6113C54.3348 45.8672 51.7667 41.852 50.2461 39.6885Z" fill="#555555" stroke="#555555" stroke-width="0.5"/>
</g>
</svg>
