<svg width="70" height="70" viewBox="0 0 70 70" fill="none" xmlns="http://www.w3.org/2000/svg">
<mask id="mask0_112_877" style="mask-type:alpha" maskUnits="userSpaceOnUse" x="0" y="5" width="70" height="60">
<path d="M0 5H70V65H0V5Z" fill="#C4C4C4"/>
</mask>
<g mask="url(#mask0_112_877)">
<path d="M45.9669 22.8623L38.7954 30.3434L34.5226 27.2785L26.3848 35.9146" stroke="#555555" stroke-width="2" stroke-miterlimit="10" stroke-linecap="round" stroke-linejoin="round"/>
<path d="M56.7843 46.1961H13.7549C13.3397 46.1961 13 45.8564 13 45.4412V16.7549C13 16.3397 13.3397 16 13.7549 16H56.7843C57.1995 16 57.5392 16.3397 57.5392 16.7549V45.4412C57.5392 45.8564 57.1995 46.1961 56.7843 46.1961Z" stroke="#555555" stroke-width="2" stroke-linecap="round" stroke-linejoin="round"/>
<path d="M25.0781 54.5H46.2154" stroke="#555555" stroke-width="2" stroke-linecap="round" stroke-linejoin="round"/>
<path d="M13 40.9121H57.5392" stroke="#555555" stroke-width="2" stroke-linecap="round" stroke-linejoin="round"/>
<path d="M30.3623 46.1963V54.5002" stroke="#555555" stroke-width="2" stroke-linecap="round" stroke-linejoin="round"/>
<path d="M40.1768 46.1963V54.5002" stroke="#555555" stroke-width="2" stroke-miterlimit="10" stroke-linecap="round" stroke-linejoin="round"/>
</g>
</svg>
