<svg width="281" height="188" viewBox="0 0 281 188" fill="none" xmlns="http://www.w3.org/2000/svg">
<path d="M86.677 179.705C83.198 182.259 81.5306 185.507 82.9716 186.896C84.4332 188.306 88.4062 187.366 91.9057 184.792C95.3847 182.238 97.0315 179.011 95.5906 177.601C94.1496 176.191 90.1765 177.131 86.677 179.705ZM103.989 179.501C100.511 182.054 98.8431 185.303 100.263 186.692C101.725 188.101 105.698 187.162 109.198 184.588C112.677 182.014 114.323 178.806 112.882 177.397C111.441 175.987 107.448 176.927 103.969 179.501H103.989ZM121.281 179.297C117.802 181.85 116.135 185.098 117.555 186.487C119.017 187.897 122.99 186.957 126.49 184.383C129.968 181.83 131.615 178.602 130.174 177.192C128.733 175.783 124.76 176.722 121.281 179.297V179.297ZM138.532 180.155C135.053 182.708 133.386 185.956 134.806 187.345C136.268 188.755 140.241 187.815 143.74 185.241C147.219 182.688 148.866 179.46 147.425 178.05C145.984 176.641 142.011 177.58 138.532 180.155V180.155ZM149.216 149.246C146.54 147.285 140.241 149.368 135.156 153.924C130.071 158.459 128.136 163.709 130.854 165.671C133.53 167.632 139.829 165.548 144.914 160.992C149.957 156.457 151.892 151.207 149.216 149.246ZM124.246 149.552C121.343 147.795 115.332 150.308 110.803 155.211C106.274 160.093 104.916 165.487 107.818 167.264C110.721 169.021 116.732 166.508 121.261 161.605C125.79 156.723 127.148 151.33 124.246 149.573V149.552ZM170.11 43.8742C170.11 43.8742 184.747 36.8467 192.302 25.7334C202.492 10.7183 196.398 2.40377 189.523 0.422177C182.606 -1.55941 170.522 3.26178 167.331 18.5629C164.696 31.2083 170.09 43.8742 170.09 43.8742H170.11ZM210.211 44.0989C210.211 44.0989 224.95 36.8671 232.67 25.6517C243.086 10.514 237.096 2.2812 230.241 0.381319C223.345 -1.49813 211.199 3.48649 207.803 18.8285C205.003 31.5148 210.232 44.0785 210.232 44.0785L210.211 44.0989ZM252.021 44.2419C252.021 44.2419 266.945 36.9488 274.973 25.6926C285.801 10.4731 280.038 2.26077 273.265 0.401748C266.43 -1.4777 254.161 3.58864 250.332 18.9511C247.183 31.6782 252.021 44.2419 252.021 44.2419V44.2419ZM147.487 111.064C143.411 109.062 135.897 113.332 130.73 120.584C125.563 127.816 124.699 135.273 128.775 137.254C132.85 139.236 140.364 134.987 145.552 127.775C150.719 120.543 151.583 113.066 147.487 111.085V111.064ZM173.322 148.674C170.584 146.753 164.346 148.939 159.406 153.577C154.445 158.173 152.654 163.485 155.392 165.405C158.13 167.325 164.367 165.139 169.287 160.502C174.269 155.906 176.08 150.594 173.322 148.694V148.674ZM170.522 82.4437C179.724 71.8003 177.089 63.1589 171.634 60.7892C166.158 58.399 155.392 62.2396 150.678 73.8228C146.499 84.1189 149.566 95.4773 149.566 95.4773C149.566 95.4773 163.4 90.6969 170.522 82.4641V82.4437ZM203.727 82.4437C213.299 71.882 210.952 63.2407 205.579 60.8301C200.165 58.399 189.255 62.1375 184.15 73.6798C179.621 83.935 182.297 95.2934 182.297 95.2934C182.297 95.2934 196.295 90.6356 203.727 82.4641V82.4437ZM238.743 82.2803C248.542 71.7595 246.38 63.1181 241.048 60.6871C235.696 58.2356 224.683 61.9332 219.351 73.455C214.596 83.6899 217.046 95.0483 217.046 95.0483C217.046 95.0483 231.147 90.4518 238.743 82.3007V82.2803ZM174.886 108.164C170.728 106.284 163.358 110.778 158.377 118.174C153.395 125.548 152.716 133.046 156.833 134.905C160.991 136.764 168.381 132.29 173.363 124.915C178.324 117.52 179.024 110.023 174.886 108.164ZM203.727 107.469C199.589 105.61 192.178 110.125 187.135 117.54C182.091 124.936 181.33 132.433 185.447 134.271C189.584 136.11 197.016 131.616 202.059 124.221C207.082 116.805 207.864 109.308 203.727 107.469Z" fill="#113D99" fill-opacity="0.03"/>
<path d="M6.35167 62.1172C-1.10031 62.1172 -2.15018 67.3265 4.0255 70.8403C41.2237 91.9432 66.3175 131.677 66.3175 177.254C66.3175 179.705 66.2146 182.157 66.0911 184.567C88.1588 171.901 105.904 152.658 116.629 129.532C96.2901 89.553 54.5631 62.1172 6.35167 62.1172Z" fill="#113D99" fill-opacity="0.03"/>
<g clip-path="url(#clip0_269_957)">
<path d="M237.001 104.461C237.001 88.2382 223.393 75.1741 206.946 76.0478C192.922 76.787 181.293 88.0097 180.108 101.988C179.207 112.673 184.214 122.242 192.235 127.807C195.762 130.253 197.996 134.151 197.996 138.438V138.505H219.019V138.425C219.019 134.164 221.213 130.266 224.712 127.834C232.129 122.699 237.001 114.151 237.001 104.447V104.461Z" fill="#F0BA14"/>
<path d="M217.793 138.505H199.206C197.31 138.505 195.773 140.037 195.773 141.926C195.773 143.815 197.31 145.347 199.206 145.347H217.793C219.688 145.347 221.225 143.815 221.225 141.926C221.225 140.037 219.688 138.505 217.793 138.505Z" fill="#D5D5D5"/>
<path d="M217.795 152.201H199.194C197.296 152.201 195.762 150.669 195.762 148.774C195.762 146.879 197.296 145.347 199.194 145.347H217.795C219.692 145.347 221.227 146.879 221.227 148.774C221.227 150.669 219.692 152.201 217.795 152.201V152.201Z" fill="#5E637E"/>
<path d="M202.681 152.201C202.681 155.413 205.278 158.007 208.495 158.007C211.712 158.007 214.31 155.413 214.31 152.201H202.008" fill="#C860A0"/>
<path d="M204.363 105.455C204.363 107.915 202.357 109.918 199.894 109.918C197.431 109.918 195.426 107.915 195.426 105.455C195.426 102.996 197.431 100.993 199.894 100.993C202.357 100.993 204.363 102.996 204.363 105.455Z" fill="white"/>
<path d="M220.906 105.455C220.906 107.915 218.9 109.918 216.437 109.918C213.974 109.918 211.969 107.915 211.969 105.455C211.969 102.996 213.974 100.993 216.437 100.993C218.9 100.993 220.906 102.996 220.906 105.455Z" fill="white"/>
<path d="M212.933 138.505H210.982V106.423H205.329V138.505H203.391V104.488H212.933V138.505Z" fill="white"/>
</g>
<defs>
<clipPath id="clip0_269_957">
<rect width="57" height="82" fill="white" transform="translate(180 76.0073)"/>
</clipPath>
</defs>
</svg>
