<svg width="24" height="24" viewBox="0 0 24 24" fill="none" xmlns="http://www.w3.org/2000/svg">
<g opacity="0.5">
<path d="M9.6 19.2C4.32 19.2 0 14.88 0 9.6C0 4.32 4.32 0 9.6 0C14.88 0 19.2 4.32 19.2 9.6C19.2 14.88 14.88 19.2 9.6 19.2ZM9.6 2.4C5.64 2.4 2.4 5.64 2.4 9.6C2.4 13.56 5.64 16.8 9.6 16.8C13.56 16.8 16.8 13.56 16.8 9.6C16.8 5.64 13.56 2.4 9.6 2.4Z" fill="white"/>
<path d="M22.8004 23.9999C22.4404 23.9999 22.2004 23.8799 21.9604 23.6399L14.7604 16.4399C14.2804 15.9599 14.2804 15.2399 14.7604 14.7599C15.2404 14.2799 15.9604 14.2799 16.4404 14.7599L23.6404 21.9599C24.1204 22.4399 24.1204 23.1599 23.6404 23.6399C23.4004 23.8799 23.1604 23.9999 22.8004 23.9999Z" fill="white"/>
</g>
</svg>
