<svg width="64" height="24" viewBox="0 0 64 24" fill="none" xmlns="http://www.w3.org/2000/svg">
<g clip-path="url(#clip0_8_156)">
<path d="M1.94973 23.8079C1.94973 23.8079 10.1442 19.9974 14.3737 13.965C20.0794 5.82106 16.6629 1.30516 12.8176 0.230176C8.94225 -0.849608 2.18415 1.77067 0.4036 10.073C-1.06772 16.9356 1.94973 23.8079 1.94973 23.8079Z" fill="#D0D9E6"/>
<path d="M24.3841 23.9232C24.3841 23.9232 32.6384 20.0024 36.9527 13.9124C42.7781 5.69167 39.4265 1.22856 35.5911 0.206368C31.7357 -0.815828 24.9327 1.89563 23.0325 10.222C21.4664 17.1038 24.3891 23.928 24.3891 23.928L24.3841 23.9232Z" fill="#D0D9E6"/>
<path d="M47.7855 24C47.7855 24 56.1347 20.0456 60.6284 13.9316C66.6833 5.67727 63.4663 1.21416 59.6708 0.201567C55.8454 -0.81103 48.9726 1.92442 46.8379 10.27C45.0723 17.171 47.7855 23.9952 47.7855 23.9952V24Z" fill="#D0D9E6"/>
</g>
<defs>
<clipPath id="clip0_8_156">
<rect width="64" height="24" fill="white"/>
</clipPath>
</defs>
</svg>
