<svg width="77" height="73" viewBox="0 0 77 73" fill="none" xmlns="http://www.w3.org/2000/svg">
<g clip-path="url(#clip0_6_30)">
<path d="M1.63668 69.7873C0.287479 70.7788 -0.359177 72.0401 0.199662 72.5794C0.766484 73.1268 2.30728 72.7619 3.66446 71.7624C5.01366 70.7709 5.65233 69.5176 5.09349 68.9703C4.53465 68.423 2.99386 68.7879 1.63668 69.7873ZM8.35072 69.708C7.00153 70.6995 6.35487 71.9607 6.90573 72.5001C7.47255 73.0474 9.01335 72.6826 10.3705 71.6831C11.7197 70.6836 12.3584 69.4383 11.7996 68.891C11.2407 68.3436 9.69194 68.7085 8.34274 69.708H8.35072ZM15.0568 69.6287C13.7076 70.6202 13.0609 71.8814 13.6118 72.4208C14.1786 72.9681 15.7194 72.6032 17.0766 71.6038C18.4258 70.6123 19.0645 69.359 18.5056 68.8116C17.9468 68.2643 16.406 68.6292 15.0568 69.6287ZM21.7469 69.9618C20.3977 70.9533 19.751 72.2146 20.3019 72.754C20.8687 73.3013 22.4095 72.9364 23.7667 71.9369C25.1159 70.9454 25.7546 69.6921 25.1957 69.1448C24.6369 68.5975 23.0961 68.9624 21.7469 69.9618ZM25.8903 57.9604C24.8524 57.1989 22.4095 58.008 20.4376 59.7769C18.4657 61.5378 17.7153 63.5764 18.7691 64.3379C19.8069 65.0994 22.2498 64.2903 24.2217 62.5214C26.1777 60.7605 26.9281 58.7219 25.8903 57.9604V57.9604ZM16.2064 58.0794C15.0807 57.3972 12.7496 58.3729 10.9932 60.2766C9.23688 62.1724 8.70998 64.2665 9.83564 64.9566C10.9613 65.6388 13.2925 64.6631 15.0488 62.7594C16.8052 60.8636 17.3321 58.7695 16.2064 58.0873V58.0794ZM34.0094 17.0382C34.0094 17.0382 39.6856 14.3095 42.6155 9.99442C46.5673 4.16425 44.2042 0.935851 41.5378 0.166428C38.8553 -0.602995 34.1691 1.269 32.9316 7.21022C31.9098 12.1202 34.0014 17.0382 34.0014 17.0382H34.0094ZM49.5611 17.1255C49.5611 17.1255 55.2772 14.3175 58.271 9.96269C62.3106 4.08493 59.9874 0.888257 57.329 0.150563C54.6545 -0.579199 49.9443 1.35626 48.627 7.31334C47.5413 12.2392 49.5691 17.1175 49.5691 17.1175L49.5611 17.1255ZM65.7754 17.181C65.7754 17.181 71.5634 14.3492 74.6769 9.97855C78.8762 4.06907 76.6408 0.880325 74.0143 0.158495C71.3638 -0.571267 66.6057 1.39592 65.1208 7.36093C63.8993 12.3027 65.7754 17.181 65.7754 17.181ZM25.2277 43.1193C23.6469 42.3419 20.733 43.9997 18.7292 46.8157C16.7253 49.6237 16.39 52.5189 17.9707 53.2883C19.5515 54.0578 22.4654 52.4079 24.4772 49.6078C26.4811 46.7998 26.8164 43.8966 25.2277 43.1272V43.1193ZM35.2468 57.7224C34.185 56.9768 31.7661 57.8256 29.8501 59.6262C27.926 61.4109 27.2315 63.4733 28.2933 64.2189C29.3551 64.9645 31.7741 64.1158 33.6821 62.3152C35.6141 60.5304 36.3166 58.4681 35.2468 57.7304V57.7224ZM34.1611 32.0063C37.7297 27.8736 36.7078 24.5183 34.5922 23.5981C32.4686 22.6701 28.2933 24.1613 26.4651 28.6589C24.8445 32.6567 26.034 37.067 26.034 37.067C26.034 37.067 31.3988 35.2109 34.1611 32.0142V32.0063ZM47.0383 32.0063C50.7506 27.9053 49.8405 24.55 47.7568 23.614C45.6572 22.6701 41.426 24.1217 39.4461 28.6034C37.6898 32.5853 38.7276 36.9956 38.7276 36.9956C38.7276 36.9956 44.1563 35.1871 47.0383 32.0142V32.0063ZM60.6181 31.9428C64.4182 27.8577 63.58 24.5024 61.5123 23.5585C59.4366 22.6066 55.1655 24.0423 53.0977 28.5161C51.2536 32.4901 52.2036 36.9004 52.2036 36.9004C52.2036 36.9004 57.6722 35.1157 60.6181 31.9507V31.9428ZM35.8536 41.9929C34.2409 41.2631 31.3829 43.0082 29.4509 45.8797C27.5189 48.7432 27.2554 51.6543 28.8521 52.3761C30.4648 53.098 33.3308 51.3608 35.2628 48.4973C37.1868 45.6258 37.4582 42.7147 35.8536 41.9929V41.9929ZM47.0383 41.7232C45.4337 41.0014 42.5596 42.7544 40.6037 45.6338C38.6478 48.5052 38.3524 51.4163 39.9491 52.1302C41.5537 52.8441 44.4357 51.0991 46.3917 48.2276C48.3396 45.3482 48.643 42.4371 47.0383 41.7232Z" fill="black" fill-opacity="0.05"/>
</g>
<defs>
<clipPath id="clip0_6_30">
<rect width="77" height="73" fill="white"/>
</clipPath>
</defs>
</svg>
