<svg width="43" height="51" viewBox="0 0 43 51" fill="none" xmlns="http://www.w3.org/2000/svg">
<path opacity="0.2" d="M20.8 50.0002C32.2875 50.0002 41.6 40.6429 41.6 29.1002C41.6 17.5574 32.2875 8.2002 20.8 8.2002C9.31246 8.2002 0 17.5574 0 29.1002C0 40.6429 9.31246 50.0002 20.8 50.0002Z" fill="#4D75B3"/>
<g clip-path="url(#clip0_254_1252)">
<path d="M5.99219 33.758C5.99219 33.758 9.35466 41.2057 13.78 43.5009V45.2621H29.1768V42.7936C29.1768 42.7936 34.9283 38.695 34.9283 27.9404V10.1363C34.9283 8.52971 33.6209 7.22754 32.0079 7.22754C30.3948 7.22754 29.0874 8.52971 29.0874 10.1363V22.9191H28.9981V17.9493C28.9981 16.3427 27.6907 15.0405 26.0777 15.0405C24.4646 15.0405 23.1573 16.3427 23.1573 17.9493V22.9191H23.0679V17.9493C23.0679 16.3427 21.7605 15.0405 20.1475 15.0405C18.5345 15.0405 17.2271 16.3427 17.2271 17.9493V22.9191H17.1377V18.3615C17.1377 16.7549 15.8304 15.4527 14.2173 15.4527C12.6043 15.4527 11.2969 16.7549 11.2969 18.3615V27.9404" fill="white"/>
<path d="M29.1773 46.1989H13.7805C13.2632 46.1989 12.8399 45.7773 12.8399 45.2621V44.0442C8.44287 41.379 5.27321 34.4466 5.13683 34.1421C4.9252 33.669 5.13683 33.1163 5.6071 32.9055C6.08208 32.6947 6.63701 32.9055 6.84863 33.3739C6.88155 33.4442 10.1312 40.5546 14.2085 42.6671C14.5188 42.8264 14.7164 43.1496 14.7164 43.4962V44.3206H28.2321V42.7889C28.2321 42.4844 28.3779 42.2034 28.6271 42.0254C28.6788 41.9879 33.9883 38.0205 33.9883 27.9357V10.1363C33.9883 9.04963 33.0994 8.16435 32.0084 8.16435C30.9174 8.16435 30.0285 9.04963 30.0285 10.1363V22.9191C30.0285 23.4344 29.6053 23.8559 29.088 23.8559H28.9986C28.4813 23.8559 28.0581 23.4344 28.0581 22.9191V17.9493C28.0581 16.8626 27.1693 15.9774 26.0782 15.9774C25.5515 15.9774 25.053 16.1835 24.6768 16.5535C24.3053 16.9235 24.0984 17.42 24.0984 17.9493V22.9191C24.0984 23.4344 23.6751 23.8559 23.1578 23.8559H23.0685C22.5512 23.8559 22.1279 23.4344 22.1279 22.9191V17.9493C22.1279 16.8626 21.2391 15.9774 20.148 15.9774C19.057 15.9774 18.1682 16.8626 18.1682 17.9493V22.9191C18.1682 23.4344 17.7449 23.8559 17.2276 23.8559H17.1383C16.621 23.8559 16.1977 23.4344 16.1977 22.9191V18.3615C16.1977 17.8369 15.9908 17.3404 15.6193 16.9657C15.2478 16.5956 14.7493 16.3896 14.2179 16.3896C13.1268 16.3896 12.238 17.2748 12.238 18.3615V27.9404C12.2427 28.4557 11.8242 28.8772 11.3021 28.8772C10.7848 28.8772 10.3616 28.4604 10.3616 27.9404V18.3615C10.3569 16.2397 12.0875 14.5159 14.2179 14.5159C15.2478 14.5159 16.2165 14.9141 16.9455 15.6448C16.969 15.6682 16.9878 15.6869 17.0113 15.7104C17.712 14.7408 18.8548 14.1084 20.148 14.1084C21.3378 14.1084 22.4007 14.6471 23.1108 15.4902C23.186 15.4012 23.266 15.3169 23.3459 15.2326C24.0748 14.5066 25.0436 14.1084 26.0735 14.1084C26.8354 14.1084 27.5408 14.3286 28.1427 14.708V10.141C28.1427 8.01914 29.8733 6.29541 32.0037 6.29541C34.1341 6.29541 35.8647 8.01914 35.8647 10.141V27.9404C35.8647 37.5193 31.477 42.0582 30.1132 43.2386V45.2621C30.1132 45.7773 29.6899 46.1989 29.1726 46.1989H29.1773Z" fill="#4D4846"/>
<path d="M14.2641 29.0882C13.2295 29.0882 12.2607 28.6854 11.5318 27.9594C10.8029 27.2333 10.3984 26.2638 10.3984 25.2333V20.6663C10.3984 20.1511 10.817 19.7295 11.339 19.7295C11.861 19.7295 12.2795 20.1511 12.2795 20.6663V25.2333C12.2795 25.7626 12.4865 26.2591 12.8627 26.6338C13.2389 27.0085 13.7374 27.2146 14.2688 27.2146C15.3646 27.2146 16.2534 26.3246 16.2534 25.2379V20.671C16.2487 20.1557 16.6672 19.7342 17.1892 19.7342C17.7065 19.7342 18.1298 20.1511 18.1298 20.671V25.2379C18.1345 27.3645 16.3992 29.0929 14.2688 29.0929L14.2641 29.0882Z" fill="#4D4846"/>
<path d="M20.1743 29.0884C18.0439 29.0884 16.3086 27.36 16.3086 25.2381V20.6712C16.3086 20.1559 16.7318 19.7344 17.2491 19.7344C17.7664 19.7344 18.1897 20.1559 18.1897 20.6712V25.2381C18.1897 26.3295 19.0785 27.2148 20.1743 27.2148C21.27 27.2148 22.1635 26.3248 22.1635 25.2381V20.6712C22.1588 20.1559 22.5774 19.7344 23.0994 19.7344C23.6167 19.7344 24.0399 20.1513 24.0399 20.6712V25.2381C24.0446 27.3647 22.3093 29.0931 20.179 29.0931L20.1743 29.0884Z" fill="#4D4846"/>
<path d="M26.0805 29.0882C25.0459 29.0882 24.0771 28.6854 23.3482 27.9594C22.6193 27.2333 22.2148 26.2638 22.2148 25.2333V20.6663C22.2148 20.1511 22.6334 19.7295 23.1554 19.7295C23.6774 19.7295 24.0959 20.1511 24.0959 20.6663V25.2333C24.0959 25.7626 24.3029 26.2591 24.6791 26.6338C25.0553 27.0085 25.5538 27.2146 26.0852 27.2146C27.181 27.2146 28.0698 26.3246 28.0698 25.2379V20.671C28.0651 20.1557 28.4836 19.7342 29.0056 19.7342C29.5229 19.7342 29.9462 20.1511 29.9462 20.671V25.2379C29.9509 27.3645 28.2156 29.0929 26.0852 29.0929L26.0805 29.0882Z" fill="#4D4846"/>
<path d="M19.1009 35.2991C17.6431 30.3808 13.2695 28.6009 13.2695 28.6009H17.8453C19.5665 28.6009 20.9632 27.2097 20.9632 25.4954C20.9632 23.781 19.5665 22.3898 17.8453 22.3898H11.1627C11.1627 22.3898 5.16664 22.0666 4.7622 27.5517C4.35776 33.0367 9.21572 39.2477 9.21572 39.2477" fill="white"/>
<path d="M9.21755 40.1894C8.94009 40.1894 8.66263 40.0676 8.47452 39.8287C8.2676 39.5617 3.39554 33.2663 3.82349 27.4862C4.06803 24.1652 6.10433 22.6944 7.7691 22.0433C9.38215 21.411 10.9388 21.4485 11.1786 21.4531H17.8424C20.0809 21.4531 21.9009 23.2659 21.9009 25.4955C21.9009 27.7251 20.0809 29.5378 17.8424 29.5378H16.4269C17.7672 30.6948 19.2438 32.47 20.001 35.0322C20.1468 35.5287 19.8646 36.0487 19.3661 36.1939C18.8676 36.3391 18.3456 36.058 18.1998 35.5615C16.8925 31.1585 12.9515 29.4816 12.9139 29.4676C12.5001 29.2942 12.2649 28.8586 12.3496 28.4183C12.4389 27.978 12.8199 27.6642 13.2713 27.6642H17.8471C19.0463 27.6642 20.0245 26.6899 20.0245 25.4955C20.0245 24.301 19.0463 23.3268 17.8471 23.3268H11.1645C11.1645 23.3268 11.1316 23.3268 11.1128 23.3268C11.1034 23.3268 9.75367 23.2659 8.40868 23.8092C6.72509 24.4837 5.84097 25.7344 5.69989 27.622C5.32837 32.6902 9.91356 38.6155 9.96059 38.6764C10.2804 39.0839 10.2051 39.6741 9.79599 39.9926C9.62199 40.1285 9.41977 40.1894 9.21755 40.1894V40.1894Z" fill="#4D4846"/>
<path d="M32.0605 45.061H11.7305V50.0636H32.0605V45.061Z" fill="#003B9F"/>
<path d="M32.0597 51.0002H11.7296C11.2123 51.0002 10.7891 50.5787 10.7891 50.0634V45.0608C10.7891 44.5456 11.2123 44.124 11.7296 44.124H32.0597C32.577 44.124 33.0002 44.5456 33.0002 45.0608V50.0634C33.0002 50.5787 32.577 51.0002 32.0597 51.0002ZM12.6702 49.1266H31.1191V45.9976H12.6702V49.1266V49.1266Z" fill="#003B9F"/>
<path d="M25.5011 11.3917H22.7452C22.2279 11.3917 21.8047 10.9701 21.8047 10.4549C21.8047 9.93963 22.2279 9.51807 22.7452 9.51807H25.5011C26.0184 9.51807 26.4416 9.93963 26.4416 10.4549C26.4416 10.9701 26.0184 11.3917 25.5011 11.3917Z" fill="#003B9F"/>
<path d="M41.8604 11.3917H39.1046C38.5873 11.3917 38.1641 10.9701 38.1641 10.4549C38.1641 9.93963 38.5873 9.51807 39.1046 9.51807H41.8604C42.3777 9.51807 42.801 9.93963 42.801 10.4549C42.801 10.9701 42.3777 11.3917 41.8604 11.3917Z" fill="#003B9F"/>
<path d="M32.3077 4.61848C31.7904 4.61848 31.3672 4.19691 31.3672 3.68167V0.936811C31.3672 0.421565 31.7904 0 32.3077 0C32.825 0 33.2483 0.421565 33.2483 0.936811V3.68167C33.2483 4.19691 32.825 4.61848 32.3077 4.61848Z" fill="#003B9F"/>
<path d="M27.4945 6.59983C27.2547 6.59983 27.0148 6.50615 26.8314 6.32347L24.8845 4.38427C24.5177 4.01892 24.5177 3.42404 24.8845 3.05869C25.2513 2.69333 25.8486 2.69333 26.2154 3.05869L28.1623 4.99788C28.5291 5.36324 28.5291 5.95812 28.1623 6.32347C27.9789 6.50615 27.7391 6.59983 27.4992 6.59983H27.4945Z" fill="#003B9F"/>
<path d="M37.1179 6.59983C36.878 6.59983 36.6382 6.50615 36.4548 6.32347C36.088 5.95812 36.088 5.36324 36.4548 4.99788L38.4017 3.05869C38.7686 2.69333 39.3658 2.69333 39.7326 3.05869C40.0994 3.42404 40.0994 4.01892 39.7326 4.38427L37.7857 6.32347C37.6023 6.50615 37.3624 6.59983 37.1226 6.59983H37.1179Z" fill="#003B9F"/>
</g>
<defs>
<clipPath id="clip0_254_1252">
<rect width="39" height="51" fill="white" transform="translate(3.80078)"/>
</clipPath>
</defs>
</svg>
