<svg width="28" height="28" viewBox="0 0 28 28" fill="none" xmlns="http://www.w3.org/2000/svg">
<circle cx="13.6866" cy="13.6866" r="12.6866" fill="#2AA8E0"/>
<path d="M19.6133 9.69769C19.0619 9.96784 18.5217 10.0776 17.9593 10.2435C17.3413 9.54608 16.425 9.50749 15.5445 9.83718C14.6641 10.1669 14.0874 10.9729 14.1001 11.8974V12.4488C12.3111 12.4945 10.7178 11.6797 9.68955 10.2435C9.68955 10.2435 7.38394 14.3414 11.8948 16.308C10.8628 16.9955 9.83344 17.4591 8.58691 17.4106C10.4107 18.4046 12.3982 18.7465 14.1188 18.247C16.0925 17.6736 17.7145 16.1944 18.337 13.9787C18.5226 13.3048 18.6148 12.6086 18.611 11.9096C18.6099 11.7723 19.4435 10.3813 19.6133 9.69714V9.69769Z" fill="white" stroke="white" stroke-width="0.291874" stroke-linecap="round" stroke-linejoin="round"/>
</svg>
