<svg width="26" height="10" viewBox="0 0 26 10" fill="none" xmlns="http://www.w3.org/2000/svg">
<g clip-path="url(#clip0_253_1101)">
<path d="M0.792377 9.92008C0.792377 9.92008 4.1214 8.3324 5.8396 5.8189C8.15756 2.42558 6.76962 0.543957 5.20743 0.0960465C3.63309 -0.353863 0.887608 0.737918 0.16426 4.19723C-0.433464 7.05665 0.792377 9.92008 0.792377 9.92008Z" fill="#D0D9E6"/>
<path d="M9.90647 9.96805C9.90647 9.96805 13.2598 8.33438 15.0125 5.79689C17.379 2.37157 16.0174 0.511945 14.4593 0.0860299C12.8931 -0.339885 10.1294 0.789889 9.35737 4.2592C8.72115 7.12662 9.9085 9.97005 9.9085 9.97005L9.90647 9.96805Z" fill="#D0D9E6"/>
<path d="M19.4126 10.0002C19.4126 10.0002 22.8045 8.3525 24.6301 5.80501C27.0899 2.3657 25.783 0.506072 24.241 0.0841567C22.687 -0.337759 19.8949 0.802013 19.0277 4.27932C18.3104 7.15474 19.4126 9.99817 19.4126 9.99817V10.0002Z" fill="#D0D9E6"/>
</g>
<defs>
<clipPath id="clip0_253_1101">
<rect width="26" height="10" fill="white"/>
</clipPath>
</defs>
</svg>
