<svg width="1009" height="1000" viewBox="0 0 1009 1000" fill="none" xmlns="http://www.w3.org/2000/svg">
<path d="M36.6838 180.212L33.7963 177.325L34.6211 176.5L38.3334 180.212L34.6211 183.925L33.7963 183.1L36.6838 180.212Z" fill="#C2C2C2"/>
<path fill-rule="evenodd" clip-rule="evenodd" d="M84.5041 255.354L77.6451 248.495L78.635 247.505L84.5041 253.374L90.3731 247.505L91.363 248.495L84.5041 255.354Z" fill="white"/>
<path fill-rule="evenodd" clip-rule="evenodd" d="M156.504 255.354L149.645 248.495L150.635 247.505L156.504 253.374L162.373 247.505L163.363 248.495L156.504 255.354Z" fill="#2873CB"/>
<path fill-rule="evenodd" clip-rule="evenodd" d="M108.504 247.01L115.363 253.869L114.373 254.859L108.504 248.99L102.635 254.859L101.645 253.869L108.504 247.01Z" fill="white"/>
<path fill-rule="evenodd" clip-rule="evenodd" d="M180.504 247.01L187.363 253.869L186.373 254.859L180.504 248.99L174.635 254.859L173.645 253.869L180.504 247.01Z" fill="#2873CB"/>
<path fill-rule="evenodd" clip-rule="evenodd" d="M136.676 251.182L129.817 258.041L128.827 257.051L134.696 251.182L128.827 245.313L129.817 244.323L136.676 251.182Z" fill="white"/>
<path fill-rule="evenodd" clip-rule="evenodd" d="M208.676 251.182L201.817 258.041L200.827 257.051L206.696 251.182L200.827 245.313L201.817 244.323L208.676 251.182Z" fill="#2873CB"/>
<path fill-rule="evenodd" clip-rule="evenodd" d="M11.5041 255.354L4.64509 248.495L5.63504 247.505L11.5041 253.374L17.3731 247.505L18.363 248.495L11.5041 255.354Z" fill="#7E8896"/>
<path fill-rule="evenodd" clip-rule="evenodd" d="M35.504 247.01L42.363 253.869L41.373 254.859L35.504 248.99L29.635 254.859L28.645 253.869L35.504 247.01Z" fill="#7E8896"/>
<path fill-rule="evenodd" clip-rule="evenodd" d="M63.676 251.182L56.817 258.041L55.8271 257.051L61.6961 251.182L55.8271 245.313L56.817 244.323L63.676 251.182Z" fill="#7E8896"/>
<path d="M13 187H19V177.978L12 172.534L5 177.978V187H11V181H13V187ZM21 188C21 188.265 20.8946 188.52 20.7071 188.707C20.5196 188.895 20.2652 189 20 189H4C3.73478 189 3.48043 188.895 3.29289 188.707C3.10536 188.52 3 188.265 3 188V177.49C2.99989 177.338 3.03462 177.187 3.10152 177.05C3.16841 176.913 3.26572 176.794 3.386 176.7L11.386 170.478C11.5615 170.341 11.7776 170.267 12 170.267C12.2224 170.267 12.4385 170.341 12.614 170.478L20.614 176.7C20.7343 176.794 20.8316 176.913 20.8985 177.05C20.9654 177.187 21.0001 177.338 21 177.49V188V188Z" fill="#4E5E71"/>
<path d="M78 187H75C74.7348 187 74.4804 186.895 74.2929 186.707C74.1054 186.52 74 186.265 74 186V176C74 175.735 74.1054 175.48 74.2929 175.293C74.4804 175.105 74.7348 175 75 175H78V171C78 170.735 78.1054 170.48 78.2929 170.293C78.4804 170.105 78.7348 170 79 170H89C89.2652 170 89.5196 170.105 89.7071 170.293C89.8946 170.48 90 170.735 90 171V175H93C93.2652 175 93.5196 175.105 93.7071 175.293C93.8946 175.48 94 175.735 94 176V186C94 186.265 93.8946 186.52 93.7071 186.707C93.5196 186.895 93.2652 187 93 187H90V189C90 189.265 89.8946 189.52 89.7071 189.707C89.5196 189.895 89.2652 190 89 190H79C78.7348 190 78.4804 189.895 78.2929 189.707C78.1054 189.52 78 189.265 78 189V187ZM78 185V184C78 183.735 78.1054 183.48 78.2929 183.293C78.4804 183.105 78.7348 183 79 183H89C89.2652 183 89.5196 183.105 89.7071 183.293C89.8946 183.48 90 183.735 90 184V185H92V177H76V185H78ZM80 172V175H88V172H80ZM80 185V188H88V185H80ZM77 178H80V180H77V178Z" fill="#4E5E71"/>
<path d="M62.12 185.023L57.921 182.733C57.3728 183.319 56.6609 183.727 55.878 183.903C55.0951 184.079 54.2773 184.016 53.5309 183.721C52.7845 183.426 52.1439 182.914 51.6925 182.25C51.2411 181.587 50.9998 180.803 50.9998 180C50.9998 179.198 51.2411 178.414 51.6925 177.751C52.1439 177.087 52.7845 176.575 53.5309 176.28C54.2773 175.985 55.0951 175.922 55.878 176.098C56.6609 176.274 57.3728 176.682 57.921 177.268L62.121 174.978C61.8825 174.034 61.9965 173.036 62.4416 172.17C62.8867 171.304 63.6323 170.63 64.5386 170.274C65.445 169.919 66.4499 169.906 67.3649 170.239C68.28 170.571 69.0424 171.226 69.5093 172.08C69.9761 172.935 70.1153 173.93 69.9009 174.88C69.6864 175.829 69.1329 176.668 68.3442 177.239C67.5555 177.81 66.5857 178.073 65.6166 177.98C64.6475 177.887 63.7456 177.443 63.08 176.733L58.88 179.023C59.0412 179.664 59.0412 180.336 58.88 180.977L63.079 183.267C63.7446 182.556 64.6464 182.113 65.6156 182.02C66.5847 181.927 67.5545 182.19 68.3432 182.761C69.1319 183.332 69.6854 184.171 69.8999 185.12C70.1143 186.07 69.9751 187.065 69.5083 187.92C69.0414 188.774 68.279 189.429 67.3639 189.761C66.4489 190.094 65.444 190.081 64.5376 189.725C63.6313 189.37 62.8857 188.696 62.4406 187.83C61.9955 186.964 61.8815 185.966 62.12 185.022V185.023ZM55 182C55.5304 182 56.0391 181.789 56.4142 181.414C56.7892 181.039 57 180.53 57 180C57 179.47 56.7892 178.961 56.4142 178.586C56.0391 178.211 55.5304 178 55 178C54.4695 178 53.9608 178.211 53.5857 178.586C53.2107 178.961 53 179.47 53 180C53 180.53 53.2107 181.039 53.5857 181.414C53.9608 181.789 54.4695 182 55 182V182ZM66 176C66.5304 176 67.0391 175.789 67.4142 175.414C67.7892 175.039 68 174.53 68 174C68 173.47 67.7892 172.961 67.4142 172.586C67.0391 172.211 66.5304 172 66 172C65.4695 172 64.9608 172.211 64.5857 172.586C64.2107 172.961 64 173.47 64 174C64 174.53 64.2107 175.039 64.5857 175.414C64.9608 175.789 65.4695 176 66 176V176ZM66 188C66.5304 188 67.0391 187.789 67.4142 187.414C67.7892 187.039 68 186.53 68 186C68 185.47 67.7892 184.961 67.4142 184.586C67.0391 184.211 66.5304 184 66 184C65.4695 184 64.9608 184.211 64.5857 184.586C64.2107 184.961 64 185.47 64 186C64 186.53 64.2107 187.039 64.5857 187.414C64.9608 187.789 65.4695 188 66 188V188Z" fill="#4E5E71"/>
<path fill-rule="evenodd" clip-rule="evenodd" d="M24 6.59998H0V4.59998H24V6.59998ZM9.6 13H0V11H9.6V13ZM14.4 19.4H0V17.4H14.4V19.4Z" fill="white"/>
<path fill-rule="evenodd" clip-rule="evenodd" d="M3.93934 319.939C3.35355 320.525 3.35355 321.475 3.93934 322.061L10.9393 329.061C11.5251 329.646 12.4749 329.646 13.0607 329.061L20.0607 322.061C20.6464 321.475 20.6464 320.525 20.0607 319.939C19.4749 319.354 18.5251 319.354 17.9393 319.939L12 325.879L6.06066 319.939C5.47487 319.354 4.52513 319.354 3.93934 319.939Z" fill="white"/>
<path fill-rule="evenodd" clip-rule="evenodd" d="M44.0607 328.061C44.6464 327.475 44.6464 326.525 44.0607 325.939L37.0607 318.939C36.4749 318.354 35.5251 318.354 34.9393 318.939L27.9393 325.939C27.3536 326.525 27.3536 327.475 27.9393 328.061C28.5251 328.646 29.4749 328.646 30.0607 328.061L36 322.121L41.9393 328.061C42.5251 328.646 43.4749 328.646 44.0607 328.061Z" fill="white"/>
<path fill-rule="evenodd" clip-rule="evenodd" d="M264 349.8C259.251 349.8 255.4 353.649 255.4 358.394C255.4 362.04 257.223 364.998 259.307 367.08C260.345 368.118 261.428 368.916 262.333 369.449C262.785 369.716 263.182 369.91 263.495 370.033C263.652 370.095 263.778 370.136 263.874 370.16C263.95 370.179 263.99 370.184 264 370.185C264.01 370.184 264.05 370.179 264.126 370.16C264.222 370.136 264.348 370.095 264.505 370.033C264.818 369.91 265.215 369.716 265.667 369.449C266.572 368.916 267.655 368.118 268.693 367.08C270.777 364.998 272.6 362.04 272.6 358.394C272.6 353.649 268.749 349.8 264 349.8ZM253.4 358.394C253.4 352.543 258.148 347.8 264 347.8C269.852 347.8 274.6 352.543 274.6 358.394C274.6 362.742 272.423 366.18 270.107 368.495C268.945 369.656 267.728 370.556 266.683 371.172C266.16 371.48 265.669 371.724 265.239 371.894C264.838 372.052 264.394 372.185 264 372.185C263.606 372.185 263.162 372.052 262.761 371.894C262.331 371.724 261.84 371.48 261.317 371.172C260.272 370.556 259.055 369.656 257.893 368.495C255.577 366.18 253.4 362.742 253.4 358.394ZM259.8 358.394C259.8 356.076 261.682 354.196 264 354.196C266.318 354.196 268.2 356.076 268.2 358.394C268.2 360.712 266.318 362.592 264 362.592C261.682 362.592 259.8 360.712 259.8 358.394ZM264 356.196C262.785 356.196 261.8 357.181 261.8 358.394C261.8 359.606 262.785 360.592 264 360.592C265.215 360.592 266.2 359.606 266.2 358.394C266.2 357.181 265.215 356.196 264 356.196Z" fill="white"/>
<path fill-rule="evenodd" clip-rule="evenodd" d="M208.793 351.138V348H210.793V351.138H222.035V348H224.035V351.138H226.345C227.811 351.138 229 352.327 229 353.793V367.034C229 368.501 227.811 369.69 226.345 369.69H206.483C205.016 369.69 203.828 368.501 203.828 367.034V353.793C203.828 352.327 205.016 351.138 206.483 351.138H208.793ZM209.143 367.69H215.409C215.32 366.037 213.951 364.724 212.276 364.724C210.601 364.724 209.232 366.037 209.143 367.69ZM217.411 367.69C217.32 364.931 215.056 362.724 212.276 362.724C209.496 362.724 207.232 364.932 207.141 367.69H206.483C206.121 367.69 205.828 367.396 205.828 367.034V353.793C205.828 353.431 206.121 353.138 206.483 353.138H226.345C226.707 353.138 227 353.431 227 353.793V367.034C227 367.396 226.707 367.69 226.345 367.69H217.411ZM208.793 357.931C208.793 356.008 210.352 354.448 212.276 354.448C214.199 354.448 215.759 356.008 215.759 357.931C215.759 359.855 214.199 361.414 212.276 361.414C210.352 361.414 208.793 359.855 208.793 357.931ZM212.276 356.448C211.457 356.448 210.793 357.112 210.793 357.931C210.793 358.75 211.457 359.414 212.276 359.414C213.095 359.414 213.759 358.75 213.759 357.931C213.759 357.112 213.095 356.448 212.276 356.448ZM223.862 358.103H218.897V356.103H223.862V358.103ZM223.862 363.069H218.897V361.069H223.862V363.069ZM228.828 373H204V371H228.828V373Z" fill="white"/>
<path fill-rule="evenodd" clip-rule="evenodd" d="M167 351.2V348H169V351.2H167ZM159.107 351.293L161.507 353.693L160.093 355.107L157.693 352.707L159.107 351.293ZM178.307 352.707L175.907 355.107L174.493 353.693L176.893 351.293L178.307 352.707ZM161.531 358.21C161.991 354.991 164.748 352.6 168 352.6C171.252 352.6 174.009 354.991 174.469 358.21L174.485 358.323C174.748 360.162 174.221 361.914 173.182 363.257C172.574 364.042 172.2 364.753 172.2 365.442V368C172.2 368.552 171.752 369 171.2 369H164.8C164.248 369 163.8 368.552 163.8 368V365.442C163.8 364.753 163.426 364.042 162.818 363.257C161.779 361.914 161.252 360.162 161.515 358.323L162.505 358.464L161.515 358.323L161.531 358.21ZM168 354.6C165.743 354.6 163.83 356.259 163.511 358.493L162.521 358.352L163.511 358.493L163.495 358.606C163.312 359.885 163.676 361.098 164.4 362.033C165.063 362.89 165.8 364.054 165.8 365.442V367H170.2V365.442C170.2 364.054 170.937 362.89 171.6 362.033C172.324 361.098 172.688 359.885 172.505 358.606L173.495 358.464L172.505 358.606L172.489 358.493C172.17 356.259 170.257 354.6 168 354.6ZM159.2 361H156V359H159.2V361ZM180 361H176.8V359H180V361ZM170.4 372.2H165.6V370.2H170.4V372.2Z" fill="white"/>
<path fill-rule="evenodd" clip-rule="evenodd" d="M109.4 348.8C109.4 348.248 109.848 347.8 110.4 347.8H126.4C128.72 347.8 130.6 349.68 130.6 352V366.4C130.6 368.72 128.72 370.6 126.4 370.6H116.2V372H114.2V370.6H110.4C109.848 370.6 109.4 370.152 109.4 369.6V348.8ZM116.2 368.6H126.4C127.615 368.6 128.6 367.615 128.6 366.4V352C128.6 350.785 127.615 349.8 126.4 349.8H116.2V368.6ZM114.2 349.8V368.6H111.4V349.8H114.2ZM125.6 356.2H119.2V354.2H125.6V356.2Z" fill="white"/>
<path fill-rule="evenodd" clip-rule="evenodd" d="M62.4 349.8C62.0687 349.8 61.8 350.069 61.8 350.4L61.8 359H82.2001V350.4C82.2001 350.069 81.9314 349.8 81.6 349.8L62.4 349.8ZM82.2001 361H61.8V363.2C61.8 363.531 62.0687 363.8 62.4 363.8L81.6 363.8C81.9314 363.8 82.2001 363.531 82.2001 363.2V361ZM59.8 350.4C59.8 348.964 60.9641 347.8 62.4 347.8L81.6 347.8C83.036 347.8 84.2001 348.964 84.2001 350.4V363.2C84.2001 364.636 83.036 365.8 81.6 365.8H73V370.2H80.8001V372.2H63.2V370.2H71V365.8H62.4C60.9641 365.8 59.8 364.636 59.8 363.2L59.8 350.4Z" fill="white"/>
<path fill-rule="evenodd" clip-rule="evenodd" d="M20.5714 349C18.2825 349 16.4286 350.854 16.4286 353.14C16.4286 355.425 18.2825 357.279 20.5714 357.279C22.8603 357.279 24.7143 355.425 24.7143 353.14C24.7143 350.854 22.8603 349 20.5714 349ZM14.4286 353.14C14.4286 349.748 17.1792 347 20.5714 347C23.9637 347 26.7143 349.748 26.7143 353.14C26.7143 356.531 23.9637 359.279 20.5714 359.279C17.1792 359.279 14.4286 356.531 14.4286 353.14ZM26.4286 358.286C26.4286 355.84 28.4113 353.857 30.8571 353.857C33.303 353.857 35.2857 355.84 35.2857 358.286C35.2857 360.732 33.303 362.714 30.8571 362.714C28.4113 362.714 26.4286 360.732 26.4286 358.286ZM30.8571 355.857C29.5159 355.857 28.4286 356.944 28.4286 358.286C28.4286 359.627 29.5159 360.714 30.8571 360.714C32.1984 360.714 33.2857 359.627 33.2857 358.286C33.2857 356.944 32.1984 355.857 30.8571 355.857ZM17.1429 364.419C14.8546 364.419 13 366.273 13 368.561V370.984H28.1429V368.561C28.1429 366.273 26.2883 364.419 24 364.419H17.1429ZM11 368.561C11 365.168 13.7505 362.419 17.1429 362.419H24C27.3924 362.419 30.1429 365.168 30.1429 368.561V372.984H11V368.561ZM35 369.429C35 367.614 33.5289 366.143 31.7143 366.143V364.143C34.6335 364.143 37 366.509 37 369.429V373H31.7143V371H35V369.429Z" fill="white"/>
<g opacity="0.8">
<g clip-path="url(#clip0_1347_860)">
<path fill-rule="evenodd" clip-rule="evenodd" d="M17.8621 506H6.13793C3.86207 506 2 507.862 2 510.138V518.483C2 520.759 3.86207 522.621 6.13793 522.621H10.3448L11.6207 525.621C11.6207 525.621 11.7586 525.965 12.0345 525.965C12.3448 525.965 12.4483 525.621 12.4483 525.621L13.7241 522.621H17.8621C20.1379 522.621 22 520.759 22 518.483V510.138C22 507.862 20.1379 506 17.8621 506ZM6.72399 512.759C6.72399 512.759 5.8964 512.759 5.62054 513.242V511.345H4.41364V516.276H5.62054V516C5.62054 516 5.96537 516.414 6.62054 516.414C6.62054 516.414 8.27571 516.38 8.27571 514.793C8.27571 514.793 8.48261 512.931 6.72399 512.759ZM6.34468 515.311C5.96537 515.311 5.65502 515 5.65502 514.621C5.65502 514.242 5.96537 513.931 6.34468 513.931C6.72399 513.931 7.03433 514.242 7.03433 514.621C7.03433 515 6.72399 515.311 6.34468 515.311ZM8.65498 512.345V511.172C10.517 511.276 10.3791 512.897 10.3791 512.897V516.276H9.2067V512.931C9.2067 512.483 8.65498 512.345 8.65498 512.345ZM18.3791 513.207C17.9998 512.689 17.3446 512.758 17.3446 512.758C15.7584 512.862 15.724 514.345 15.724 514.345V514.896C15.724 516.31 17.1722 516.414 17.1722 516.414C18.2067 516.414 18.3447 515.965 18.3447 515.965C18.3447 517.103 17.6205 517.034 17.6205 517.034H17.3102V518.138H17.8274C19.586 518.138 19.5515 516.414 19.5515 516.414V512.862H18.3791V513.207ZM17.724 515.345C17.3102 515.345 16.9998 515.034 16.9998 514.62C16.9998 514.207 17.3102 513.896 17.724 513.896C18.1378 513.896 18.4481 514.207 18.4481 514.62C18.4481 515 18.1033 515.345 17.724 515.345ZM11.1726 514.586C11.1726 513.586 12.0691 512.793 13.1381 512.793C14.2415 512.793 15.1036 513.62 15.1036 514.586C15.1036 515.586 14.2071 516.379 13.1381 516.379C12.0346 516.379 11.1726 515.586 11.1726 514.586ZM12.3795 514.586C12.3795 514.999 12.7243 515.344 13.1381 515.344C13.5519 515.344 13.8967 515.034 13.8967 514.586C13.8967 514.172 13.5519 513.827 13.1381 513.827C12.7243 513.827 12.3795 514.172 12.3795 514.586Z" fill="#989DAA"/>
</g>
</g>
<g opacity="0.8">
<g clip-path="url(#clip1_1347_860)">
<path fill-rule="evenodd" clip-rule="evenodd" d="M17.8621 530H6.13793C3.86207 530 2 531.862 2 534.138V542.483C2 544.759 3.86207 546.621 6.13793 546.621H10.3448L11.6207 549.621C11.6207 549.621 11.7586 549.965 12.0345 549.965C12.3448 549.965 12.4483 549.621 12.4483 549.621L13.7241 546.621H17.8621C20.1379 546.621 22 544.759 22 542.483V534.138C22 531.862 20.1379 530 17.8621 530ZM6.72399 536.759C6.72399 536.759 5.8964 536.759 5.62054 537.242V535.345H4.41364V540.276H5.62054V540C5.62054 540 5.96537 540.414 6.62054 540.414C6.62054 540.414 8.27571 540.38 8.27571 538.793C8.27571 538.793 8.48261 536.931 6.72399 536.759ZM6.34468 539.311C5.96537 539.311 5.65502 539 5.65502 538.621C5.65502 538.242 5.96537 537.931 6.34468 537.931C6.72399 537.931 7.03433 538.242 7.03433 538.621C7.03433 539 6.72399 539.311 6.34468 539.311ZM8.65498 536.345V535.172C10.517 535.276 10.3791 536.897 10.3791 536.897V540.276H9.2067V536.931C9.2067 536.483 8.65498 536.345 8.65498 536.345ZM18.3791 537.207C17.9998 536.689 17.3446 536.758 17.3446 536.758C15.7584 536.862 15.724 538.345 15.724 538.345V538.896C15.724 540.31 17.1722 540.414 17.1722 540.414C18.2067 540.414 18.3447 539.965 18.3447 539.965C18.3447 541.103 17.6205 541.034 17.6205 541.034H17.3102V542.138H17.8274C19.586 542.138 19.5515 540.414 19.5515 540.414V536.862H18.3791V537.207ZM17.724 539.345C17.3102 539.345 16.9998 539.034 16.9998 538.62C16.9998 538.207 17.3102 537.896 17.724 537.896C18.1378 537.896 18.4481 538.207 18.4481 538.62C18.4481 539 18.1033 539.345 17.724 539.345ZM11.1726 538.586C11.1726 537.586 12.0691 536.793 13.1381 536.793C14.2415 536.793 15.1036 537.62 15.1036 538.586C15.1036 539.586 14.2071 540.379 13.1381 540.379C12.0346 540.379 11.1726 539.586 11.1726 538.586ZM12.3795 538.586C12.3795 538.999 12.7243 539.344 13.1381 539.344C13.5519 539.344 13.8967 539.034 13.8967 538.586C13.8967 538.172 13.5519 537.827 13.1381 537.827C12.7243 537.827 12.3795 538.172 12.3795 538.586Z" fill="#5CAF54"/>
</g>
</g>
<g opacity="0.8">
<path d="M38.2432 517.5H40.7432L41.7432 513.5H38.2432V511.5C38.2432 510.47 38.2432 509.5 40.2432 509.5H41.7432V506.14C41.4172 506.097 40.1862 506 38.8862 506C36.1712 506 34.2432 507.657 34.2432 510.7V513.5H31.2432V517.5H34.2432V526H38.2432V517.5Z" fill="#989DAA"/>
</g>
<g opacity="0.8">
<path d="M38.2432 541.5H40.7432L41.7432 537.5H38.2432V535.5C38.2432 534.47 38.2432 533.5 40.2432 533.5H41.7432V530.14C41.4172 530.097 40.1862 530 38.8862 530C36.1712 530 34.2432 531.657 34.2432 534.7V537.5H31.2432V541.5H34.2432V550H38.2432V541.5Z" fill="#485F95"/>
</g>
<g opacity="0.8">
<path d="M70.6487 509.657C69.8853 509.995 69.0757 510.216 68.2467 510.315C69.1205 509.792 69.7745 508.97 70.0867 508.001C69.2667 508.489 68.3677 508.831 67.4307 509.016C66.8014 508.343 65.9671 507.896 65.0577 507.746C64.1483 507.595 63.2147 507.749 62.402 508.184C61.5893 508.619 60.9431 509.311 60.5639 510.151C60.1846 510.991 60.0935 511.933 60.3047 512.83C58.6419 512.747 57.0151 512.314 55.53 511.562C54.045 510.809 52.7349 509.752 51.6847 508.46C51.313 509.098 51.1177 509.824 51.1187 510.563C51.1187 512.013 51.8567 513.294 52.9787 514.044C52.3148 514.023 51.6654 513.844 51.0847 513.521V513.573C51.0849 514.539 51.4191 515.475 52.0306 516.222C52.6421 516.969 53.4932 517.482 54.4397 517.674C53.8234 517.841 53.1771 517.866 52.5497 517.746C52.8166 518.577 53.3368 519.304 54.0373 519.825C54.7379 520.346 55.5839 520.635 56.4567 520.651C55.5892 521.332 54.5959 521.836 53.5336 522.133C52.4713 522.43 51.3609 522.515 50.2657 522.383C52.1774 523.612 54.4028 524.265 56.6757 524.263C64.3687 524.263 68.5757 517.89 68.5757 512.363C68.5757 512.183 68.5707 512.001 68.5627 511.823C69.3816 511.231 70.0883 510.498 70.6497 509.658L70.6487 509.657Z" fill="#989DAA"/>
</g>
<g opacity="0.8">
<path d="M70.6487 533.657C69.8853 533.995 69.0757 534.216 68.2467 534.315C69.1205 533.792 69.7745 532.97 70.0867 532.001C69.2667 532.489 68.3677 532.831 67.4307 533.016C66.8014 532.343 65.9671 531.896 65.0577 531.746C64.1483 531.595 63.2147 531.749 62.402 532.184C61.5893 532.619 60.9431 533.311 60.5639 534.151C60.1846 534.991 60.0935 535.933 60.3047 536.83C58.6419 536.747 57.0151 536.314 55.53 535.562C54.045 534.809 52.7349 533.752 51.6847 532.46C51.313 533.098 51.1177 533.824 51.1187 534.563C51.1187 536.013 51.8567 537.294 52.9787 538.044C52.3148 538.023 51.6654 537.844 51.0847 537.521V537.573C51.0849 538.539 51.4191 539.475 52.0306 540.222C52.6421 540.969 53.4932 541.482 54.4397 541.674C53.8234 541.841 53.1771 541.866 52.5497 541.746C52.8166 542.577 53.3368 543.304 54.0373 543.825C54.7379 544.346 55.5839 544.635 56.4567 544.651C55.5892 545.332 54.5959 545.836 53.5336 546.133C52.4713 546.43 51.3609 546.515 50.2657 546.383C52.1774 547.612 54.4028 548.265 56.6757 548.263C64.3687 548.263 68.5757 541.89 68.5757 536.363C68.5757 536.183 68.5707 536.001 68.5627 535.823C69.3816 535.231 70.0883 534.498 70.6497 533.658L70.6487 533.657Z" fill="#51A7D9"/>
</g>
<g opacity="0.8">
<path d="M93.2721 510.499C93.7291 512.281 93.7291 516.001 93.7291 516.001C93.7291 516.001 93.7291 519.721 93.2721 521.503C93.0181 522.488 92.2751 523.263 91.3341 523.525C89.6251 524.001 83.7291 524.001 83.7291 524.001C83.7291 524.001 77.8361 524.001 76.1241 523.525C75.1791 523.259 74.4371 522.485 74.1861 521.503C73.7291 519.721 73.7291 516.001 73.7291 516.001C73.7291 516.001 73.7291 512.281 74.1861 510.499C74.4401 509.514 75.1831 508.739 76.1241 508.477C77.8361 508.001 83.7291 508.001 83.7291 508.001C83.7291 508.001 89.6251 508.001 91.3341 508.477C92.2791 508.743 93.0211 509.517 93.2721 510.499V510.499ZM81.7291 519.501L87.7291 516.001L81.7291 512.501V519.501Z" fill="#989DAA"/>
</g>
<g opacity="0.8">
<path d="M93.2721 534.499C93.7291 536.281 93.7291 540.001 93.7291 540.001C93.7291 540.001 93.7291 543.721 93.2721 545.503C93.0181 546.488 92.2751 547.263 91.3341 547.525C89.6251 548.001 83.7291 548.001 83.7291 548.001C83.7291 548.001 77.8361 548.001 76.1241 547.525C75.1791 547.259 74.4371 546.485 74.1861 545.503C73.7291 543.721 73.7291 540.001 73.7291 540.001C73.7291 540.001 73.7291 536.281 74.1861 534.499C74.4401 533.514 75.1831 532.739 76.1241 532.477C77.8361 532.001 83.7291 532.001 83.7291 532.001C83.7291 532.001 89.6251 532.001 91.3341 532.477C92.2791 532.743 93.0211 533.517 93.2721 534.499V534.499ZM81.7291 543.501L87.7291 540.001L81.7291 536.501V543.501Z" fill="#C43936"/>
</g>
<g opacity="0.8">
<path d="M8 438.2C7.55817 438.2 7.2 438.558 7.2 439V448C7.2 448.442 7.55817 448.8 8 448.8H17C17.4418 448.8 17.8 448.442 17.8 448V445.75H19V448C19 449.105 18.1046 450 17 450H8C6.89543 450 6 449.105 6 448V439C6 437.895 6.89543 437 8 437L10.25 437V438.2H8Z" fill="#7E8896"/>
<path fill-rule="evenodd" clip-rule="evenodd" d="M11.8 437H19V444.2H17.8V439.049L14.6 442.249L13 443.849L12.2001 444.649L11.3514 443.8L12.1515 443L13.7515 441.4L16.9515 438.2H11.8V437Z" fill="#7E8896"/>
</g>
<g opacity="0.8">
<path d="M32 438.2C31.5582 438.2 31.2 438.558 31.2 439V448C31.2 448.442 31.5582 448.8 32 448.8H41C41.4418 448.8 41.8 448.442 41.8 448V445.75H43V448C43 449.105 42.1046 450 41 450H32C30.8954 450 30 449.105 30 448V439C30 437.895 30.8954 437 32 437L34.25 437V438.2H32Z" fill="white"/>
<path fill-rule="evenodd" clip-rule="evenodd" d="M35.8 437H43V444.2H41.8V439.049L38.6 442.249L37 443.849L36.2001 444.649L35.3514 443.8L36.1515 443L37.7515 441.4L40.9515 438.2H35.8V437Z" fill="white"/>
</g>
<path d="M144 20H128V17.3333H144V20ZM144 13.3333H120V10.6667H144V13.3333ZM144 6.6667H128V4H144V6.6667Z" fill="#005BAA"/>
<path d="M168 20H152V17.3333H168V20ZM168 13.3333H144V10.6667H168V13.3333ZM168 6.6667H152V4H168V6.6667Z" fill="white"/>
<path fill-rule="evenodd" clip-rule="evenodd" d="M172.745 4.74413C173.07 4.41862 173.598 4.41862 173.923 4.74413L180 10.8215L186.078 4.74413C186.403 4.41862 186.931 4.41862 187.256 4.74413C187.582 5.06953 187.582 5.59722 187.256 5.92262L181.179 12L187.256 18.0774C187.582 18.4028 187.582 18.9305 187.256 19.2559C186.931 19.5814 186.403 19.5814 186.078 19.2559L180 13.1785L173.923 19.2559C173.598 19.5814 173.07 19.5814 172.745 19.2559C172.419 18.9305 172.419 18.4028 172.745 18.0774L178.822 12L172.745 5.92262C172.419 5.59722 172.419 5.06953 172.745 4.74413Z" fill="#111111"/>
<path fill-rule="evenodd" clip-rule="evenodd" d="M201.489 81.4882C202.14 80.8373 203.195 80.8373 203.846 81.4882L216.001 93.643L228.156 81.4882C228.807 80.8373 229.862 80.8373 230.513 81.4882C231.164 82.139 231.164 83.1944 230.513 83.8452L218.358 96L230.513 108.155C231.164 108.806 231.164 109.861 230.513 110.512C229.862 111.163 228.807 111.163 228.156 110.512L216.001 98.357L203.846 110.512C203.195 111.163 202.14 111.163 201.489 110.512C200.838 109.861 200.838 108.806 201.489 108.155L213.644 96L201.489 83.8452C200.838 83.1944 200.838 82.139 201.489 81.4882Z" fill="#111111"/>
<path fill-rule="evenodd" clip-rule="evenodd" d="M249.489 81.4882C250.14 80.8373 251.195 80.8373 251.846 81.4882L264.001 93.643L276.156 81.4882C276.807 80.8373 277.862 80.8373 278.513 81.4882C279.164 82.139 279.164 83.1944 278.513 83.8452L266.358 96L278.513 108.155C279.164 108.806 279.164 109.861 278.513 110.512C277.862 111.163 276.807 111.163 276.156 110.512L264.001 98.357L251.846 110.512C251.195 111.163 250.14 111.163 249.489 110.512C248.838 109.861 248.838 108.806 249.489 108.155L261.644 96L249.489 83.8452C248.838 83.1944 248.838 82.139 249.489 81.4882Z" fill="white"/>
<path fill-rule="evenodd" clip-rule="evenodd" d="M196.745 4.74413C197.07 4.41862 197.598 4.41862 197.923 4.74413L204 10.8215L210.078 4.74413C210.403 4.41862 210.931 4.41862 211.256 4.74413C211.582 5.06953 211.582 5.59722 211.256 5.92262L205.179 12L211.256 18.0774C211.582 18.4028 211.582 18.9305 211.256 19.2559C210.931 19.5814 210.403 19.5814 210.078 19.2559L204 13.1785L197.923 19.2559C197.598 19.5814 197.07 19.5814 196.745 19.2559C196.419 18.9305 196.419 18.4028 196.745 18.0774L202.822 12L196.745 5.92262C196.419 5.59722 196.419 5.06953 196.745 4.74413Z" fill="white"/>
<path d="M77.1527 99.0943H76.0686L75.6844 98.7238C77.0292 97.1595 77.8388 95.1286 77.8388 92.9194C77.8388 87.9931 73.8456 84 68.9194 84C63.9931 84 60 87.9931 60 92.9194C60 97.8456 63.9931 101.839 68.9194 101.839C71.1286 101.839 73.1595 101.029 74.7238 99.6844L75.0943 100.069V101.153L81.9554 108L84 105.955L77.1527 99.0943V99.0943ZM68.9194 99.0943C65.5026 99.0943 62.7444 96.3362 62.7444 92.9194C62.7444 89.5026 65.5026 86.7444 68.9194 86.7444C72.3362 86.7444 75.0943 89.5026 75.0943 92.9194C75.0943 96.3362 72.3362 99.0943 68.9194 99.0943Z" fill="white"/>
<path d="M29.1527 99.0943H28.0686L27.6844 98.7238C29.0292 97.1595 29.8388 95.1286 29.8388 92.9194C29.8388 87.9931 25.8456 84 20.9194 84C15.9931 84 12 87.9931 12 92.9194C12 97.8456 15.9931 101.839 20.9194 101.839C23.1286 101.839 25.1595 101.029 26.7238 99.6844L27.0943 100.069V101.153L33.9554 108L36 105.955L29.1527 99.0943V99.0943ZM20.9194 99.0943C17.5026 99.0943 14.7444 96.3362 14.7444 92.9194C14.7444 89.5026 17.5026 86.7444 20.9194 86.7444C24.3362 86.7444 27.0943 89.5026 27.0943 92.9194C27.0943 96.3362 24.3362 99.0943 20.9194 99.0943Z" fill="#0082CB"/>
<path fill-rule="evenodd" clip-rule="evenodd" d="M184 88.4667H152V86.4667H184V88.4667ZM164.8 97H152V95H164.8V97ZM171.2 105.533H152V103.533H171.2V105.533Z" fill="white"/>
<path fill-rule="evenodd" clip-rule="evenodd" d="M136 88.4667H104V86.4667H136V88.4667ZM116.8 97H104V95H116.8V97ZM123.2 105.533H104V103.533H123.2V105.533Z" fill="#005BAA"/>
<path d="M106.042 177.166H104V180.083H106.042V188.833H109.444V180.083H111.922L112.167 177.166H109.444V175.949C109.444 175.256 109.574 174.979 110.2 174.979H112.167V171.333H109.574C107.131 171.333 106.042 172.485 106.042 174.694V177.166Z" fill="white"/>
<path d="M141.999 174.297C141.272 174.6 140.487 174.81 139.661 174.903C140.504 174.429 141.148 173.682 141.454 172.788C140.669 173.223 139.793 173.542 138.867 173.721C138.124 172.967 137.066 172.5 135.901 172.5C133.273 172.5 131.347 174.81 131.934 177.206C128.554 177.042 125.554 175.518 123.546 173.2C122.48 174.919 122.992 177.174 124.802 178.318C124.141 178.294 123.513 178.123 122.959 177.836C122.918 179.609 124.265 181.266 126.224 181.639C125.653 181.787 125.025 181.818 124.389 181.701C124.91 183.226 126.405 184.33 128.19 184.361C126.48 185.629 124.323 186.189 122.166 185.948C123.968 187.037 126.108 187.667 128.405 187.667C135.958 187.667 140.231 181.662 139.966 176.272C140.76 175.736 141.454 175.067 141.999 174.297Z" fill="white"/>
<path d="M96.3852 516C96.3852 522.415 101.585 527.615 108 527.615C114.415 527.615 119.615 522.415 119.615 516C119.615 509.585 114.415 504.385 108 504.385C101.585 504.385 96.3852 509.585 96.3852 516Z" fill="white" stroke="#E1E6EB" stroke-width="0.770419"/>
<path d="M109.447 512.788L106.232 516.003L109.447 519.219" stroke="#4E5E71" stroke-width="1.07859" stroke-linecap="round"/>
<circle cx="132" cy="516" r="11.6148" fill="white" stroke="#E1E6EB" stroke-width="0.770419"/>
<path d="M130.553 512.788L133.768 516.003L130.553 519.219" stroke="#4E5E71" stroke-width="1.07859" stroke-linecap="round"/>
<path fill-rule="evenodd" clip-rule="evenodd" d="M19.5143 863.475C19.7765 863.191 19.7588 862.748 19.4747 862.486L12.4999 856.047L5.52515 862.486C5.24108 862.748 5.22336 863.191 5.48558 863.475C5.74781 863.759 6.19067 863.777 6.47474 863.514L12.4999 857.953L18.5252 863.514C18.8092 863.777 19.2521 863.759 19.5143 863.475Z" fill="white"/>
<path fill-rule="evenodd" clip-rule="evenodd" d="M43.5143 856.525C43.7765 856.809 43.7588 857.252 43.4747 857.514L36.4999 863.953L29.5252 857.514C29.2411 857.252 29.2234 856.809 29.4856 856.525C29.7478 856.241 30.1907 856.223 30.4747 856.486L36.4999 862.047L42.5252 856.486C42.8092 856.223 43.2521 856.241 43.5143 856.525Z" fill="#333333"/>
<path fill-rule="evenodd" clip-rule="evenodd" d="M15.6672 878.121L7.88906 885.899L7.74764 888.162L10.0104 888.021L17.7886 880.243L15.6672 878.121ZM16.0208 876.354C15.8255 876.158 15.5089 876.158 15.3137 876.354L6.12129 885.546C5.92603 885.741 5.92603 889.593 6.12129 889.789C6.31656 889.984 10.1687 889.984 10.3639 889.789L19.5563 880.596C19.7516 880.401 19.7516 880.084 19.5563 879.889L16.0208 876.354Z" fill="#1A2949"/>
<rect x="6" y="891.5" width="13" height="1.5" fill="#1A2949"/>
<path d="M31.714 885.546C32.301 886.747 33.275 887.716 34.478 888.298C34.566 888.339 34.664 888.358 34.761 888.35C34.858 888.343 34.951 888.31 35.032 888.256L36.804 887.074C36.883 887.022 36.973 886.99 37.067 886.982C37.16 886.973 37.255 886.988 37.341 887.025L40.656 888.446C40.769 888.493 40.863 888.577 40.924 888.683C40.985 888.788 41.011 888.911 40.996 889.033C40.891 889.853 40.491 890.606 39.871 891.152C39.25 891.699 38.452 892 37.626 892C35.073 892 32.624 890.986 30.819 889.181C29.014 887.376 28 884.927 28 882.374C28 881.548 28.301 880.75 28.848 880.129C29.394 879.509 30.147 879.109 30.967 879.004C31.089 878.989 31.212 879.015 31.317 879.076C31.423 879.137 31.507 879.231 31.554 879.344L32.976 882.662C33.013 882.747 33.028 882.841 33.02 882.934C33.012 883.027 32.981 883.117 32.93 883.195L31.752 884.994C31.699 885.075 31.667 885.168 31.66 885.265C31.654 885.362 31.672 885.459 31.714 885.546Z" stroke="#1A2949" stroke-width="1.5" stroke-linecap="round" stroke-linejoin="round"/>
<path d="M35 880C38.0376 880 40.5 882.462 40.5 885.5H39C39 883.291 37.2091 881.5 35 881.5V880Z" fill="#1A2949"/>
<path d="M35 877.5C39.4183 877.5 43 881.082 43 885.5H41.5C41.5 881.91 38.5899 879 35 879V877.5Z" fill="#1A2949"/>
<path d="M35 875C40.799 875 45.5 879.701 45.5 885.5H44C44 880.529 39.9706 876.5 35 876.5V875Z" fill="#1A2949"/>
<path fill-rule="evenodd" clip-rule="evenodd" d="M86.7825 16.02C83.6905 18.4964 79.1645 18.3015 76.2982 15.4353C73.2229 12.3599 73.2229 7.37373 76.2982 4.29836C79.3736 1.22298 84.3598 1.22298 87.4352 4.29836C90.3014 7.1646 90.4963 11.6906 88.0199 14.7826L94.0348 20.7975C94.3765 21.1392 94.3765 21.6932 94.0348 22.0349C93.6931 22.3766 93.1391 22.3766 92.7974 22.0349L86.7825 16.02ZM77.5357 14.1979C75.1437 11.8059 75.1437 7.92775 77.5357 5.53579C79.9276 3.14383 83.8058 3.14383 86.1977 5.53579C88.5879 7.926 88.5897 11.8002 86.203 14.1926C86.2012 14.1943 86.1995 14.1961 86.1977 14.1978C86.196 14.1996 86.1942 14.2013 86.1925 14.2031C83.8001 16.5898 79.9259 16.5881 77.5357 14.1979Z" fill="white"/>
<path fill-rule="evenodd" clip-rule="evenodd" d="M110.782 16.02C107.69 18.4964 103.164 18.3015 100.298 15.4353C97.2229 12.3599 97.2229 7.37373 100.298 4.29836C103.374 1.22298 108.36 1.22298 111.435 4.29836C114.301 7.1646 114.496 11.6906 112.02 14.7826L118.035 20.7975C118.377 21.1392 118.377 21.6932 118.035 22.0349C117.693 22.3766 117.139 22.3766 116.797 22.0349L110.782 16.02ZM101.536 14.1979C99.1437 11.8059 99.1437 7.92775 101.536 5.53579C103.928 3.14383 107.806 3.14383 110.198 5.53579C112.588 7.926 112.59 11.8002 110.203 14.1926C110.201 14.1943 110.199 14.1961 110.198 14.1978C110.196 14.1996 110.194 14.2013 110.192 14.2031C107.8 16.5898 103.926 16.5881 101.536 14.1979Z" fill="#D1D1D1"/>
<path fill-rule="evenodd" clip-rule="evenodd" d="M270.782 23.02C267.69 25.4964 263.164 25.3015 260.298 22.4353C257.223 19.3599 257.223 14.3737 260.298 11.2984C263.374 8.22298 268.36 8.22298 271.435 11.2984C274.301 14.1646 274.496 18.6906 272.02 21.7826L278.035 27.7975C278.377 28.1392 278.377 28.6932 278.035 29.0349C277.693 29.3766 277.139 29.3766 276.797 29.0349L270.782 23.02ZM261.536 21.1979C259.144 18.8059 259.144 14.9278 261.536 12.5358C263.928 10.1438 267.806 10.1438 270.198 12.5358C272.588 14.926 272.59 18.8002 270.203 21.1926C270.201 21.1943 270.199 21.1961 270.198 21.1978C270.196 21.1996 270.194 21.2013 270.192 21.2031C267.8 23.5898 263.926 23.5881 261.536 21.1979Z" fill="white"/>
<path fill-rule="evenodd" clip-rule="evenodd" d="M308.782 23.02C305.69 25.4964 301.164 25.3015 298.298 22.4353C295.223 19.3599 295.223 14.3737 298.298 11.2984C301.374 8.22298 306.36 8.22298 309.435 11.2984C312.301 14.1646 312.496 18.6906 310.02 21.7826L316.035 27.7975C316.377 28.1392 316.377 28.6932 316.035 29.0349C315.693 29.3766 315.139 29.3766 314.797 29.0349L308.782 23.02ZM299.536 21.1979C297.144 18.8059 297.144 14.9278 299.536 12.5358C301.928 10.1438 305.806 10.1438 308.198 12.5358C310.588 14.926 310.59 18.8002 308.203 21.1926C308.201 21.1943 308.199 21.1961 308.198 21.1978C308.196 21.1996 308.194 21.2013 308.192 21.2031C305.8 23.5898 301.926 23.5881 299.536 21.1979Z" fill="#1D3456"/>
<path fill-rule="evenodd" clip-rule="evenodd" d="M356.271 19C356.271 18.3442 355.739 17.8125 355.083 17.8125H332.917C332.261 17.8125 331.729 18.3442 331.729 19C331.729 19.6559 332.261 20.1875 332.917 20.1875H355.083C355.739 20.1875 356.271 19.6559 356.271 19Z" fill="black"/>
<path fill-rule="evenodd" clip-rule="evenodd" d="M356.271 11.0834C356.271 10.4275 355.739 9.89587 355.083 9.89587H332.917C332.261 9.89587 331.729 10.4275 331.729 11.0834C331.729 11.7392 332.261 12.2709 332.917 12.2709H355.083C355.739 12.2709 356.271 11.7392 356.271 11.0834Z" fill="black"/>
<path fill-rule="evenodd" clip-rule="evenodd" d="M356.271 26.9167C356.271 26.2609 355.739 25.7292 355.083 25.7292H332.917C332.261 25.7292 331.729 26.2609 331.729 26.9167C331.729 27.5725 332.261 28.1042 332.917 28.1042H355.083C355.739 28.1042 356.271 27.5725 356.271 26.9167Z" fill="black"/>
<path fill-rule="evenodd" clip-rule="evenodd" d="M394.271 19C394.271 18.3442 393.739 17.8125 393.083 17.8125H370.917C370.261 17.8125 369.729 18.3442 369.729 19C369.729 19.6559 370.261 20.1875 370.917 20.1875H393.083C393.739 20.1875 394.271 19.6559 394.271 19Z" fill="white"/>
<path fill-rule="evenodd" clip-rule="evenodd" d="M394.271 11.0834C394.271 10.4275 393.739 9.89587 393.083 9.89587H370.917C370.261 9.89587 369.729 10.4275 369.729 11.0834C369.729 11.7392 370.261 12.2709 370.917 12.2709H393.083C393.739 12.2709 394.271 11.7392 394.271 11.0834Z" fill="white"/>
<path fill-rule="evenodd" clip-rule="evenodd" d="M394.271 26.9167C394.271 26.2609 393.739 25.7292 393.083 25.7292H370.917C370.261 25.7292 369.729 26.2609 369.729 26.9167C369.729 27.5725 370.261 28.1042 370.917 28.1042H393.083C393.739 28.1042 394.271 27.5725 394.271 26.9167Z" fill="white"/>
<circle cx="418.262" cy="17.2622" r="7.67073" transform="rotate(-45 418.262 17.2622)" stroke="white" stroke-width="2" stroke-linecap="round" stroke-linejoin="round"/>
<path d="M424.546 22.8018L429.315 27.5704" stroke="white" stroke-width="2" stroke-linecap="round" stroke-linejoin="round"/>
<path fill-rule="evenodd" clip-rule="evenodd" d="M43.152 9.05047C42.6836 8.62969 41.9243 8.62969 41.4559 9.05047L35.152 14.7143C34.6836 15.1351 34.6836 15.8173 35.152 16.2381C35.6203 16.6589 36.3796 16.6589 36.848 16.2381L43.152 10.5743C43.6203 10.1535 43.6203 9.47125 43.152 9.05047Z" fill="#C4C4C4"/>
<path fill-rule="evenodd" clip-rule="evenodd" d="M36.8469 16.2372C37.3148 15.8159 37.3148 15.1328 36.8469 14.7116L30.549 9.04097C30.0811 8.61969 29.3225 8.61969 28.8546 9.04097C28.3867 9.46226 28.3867 10.1453 28.8546 10.5666L35.1525 16.2372C35.6204 16.6585 36.379 16.6585 36.8469 16.2372Z" fill="#C4C4C4"/>
<path fill-rule="evenodd" clip-rule="evenodd" d="M52.8559 15.9495C53.3242 16.3703 54.0835 16.3703 54.5519 15.9495L60.8559 10.2857C61.3242 9.8649 61.3242 9.18268 60.8559 8.76189C60.3875 8.34111 59.6282 8.34111 59.1598 8.76189L52.8559 14.4257C52.3875 14.8465 52.3875 15.5287 52.8559 15.9495Z" fill="#C4C4C4"/>
<path fill-rule="evenodd" clip-rule="evenodd" d="M59.1609 8.94862C58.693 9.36991 58.693 10.0529 59.1609 10.4742L65.4588 16.1448C65.9267 16.5661 66.6853 16.5661 67.1532 16.1448C67.6211 15.7235 67.6211 15.0405 67.1532 14.6192L60.8553 8.94862C60.3874 8.52734 59.6288 8.52734 59.1609 8.94862Z" fill="#C4C4C4"/>
<path d="M21.7391 668.999L14.4931 680L7.24719 668.999L14.4931 658.002L21.7391 668.999Z" fill="#0082CB"/>
<path d="M21.7389 668.999L28.9837 680L36.2307 668.999L28.9837 658.002L21.7389 668.999Z" fill="#0082CB"/>
<path d="M14.493 657.996L21.739 668.999L28.9837 657.996L21.739 646.999L14.493 657.996Z" fill="#0082CB"/>
<path d="M7.24709 668.999L0 679.997H14.4919L7.24709 668.999Z" fill="#0082CB"/>
<path d="M36.2296 668.999L28.9836 679.997H43.4767L36.2296 668.999Z" fill="#0082CB"/>
<path d="M21.7391 668.999L14.4931 680L7.24719 668.999L14.4931 658.002L21.7391 668.999Z" fill="#00A0D9"/>
<path d="M21.7389 668.999L28.9837 680L36.2307 668.999L28.9837 658.002L21.7389 668.999Z" fill="#00A0D9"/>
<path d="M14.493 657.996L21.739 668.999L28.9837 657.996L21.739 646.999L14.493 657.996Z" fill="#65B9E3"/>
<path d="M7.24709 668.999L0 679.997H14.4919L7.24709 668.999Z" fill="#0082CB"/>
<path d="M36.2296 668.999L28.9836 679.997H43.4767L36.2296 668.999Z" fill="#0082CB"/>
<path d="M43.4767 646.998L36.2296 636L28.9836 646.998H43.4767Z" fill="#65B9E3"/>
<path d="M28.9849 647.001L36.2308 657.998L43.4767 647.001H28.9849Z" fill="#00A0D9"/>
<path d="M71.1049 667.771C66.2021 668.534 60.6139 668.666 56.3699 668.666L56.1326 666.874C57.6341 666.874 59.3741 666.874 61.1407 666.822V662.157H63.2755V666.769C65.8582 666.664 68.5209 666.478 70.9462 666.189L71.1049 667.771ZM66.5714 664.529C67.1248 662.025 67.1768 660.179 67.1768 658.757H57.582V657.017H69.285V658.282C69.285 659.785 69.285 661.92 68.6783 664.714L66.5714 664.529ZM74.9275 674.834C74.9275 677.576 71.9222 679.132 67.0727 679.132C62.2231 679.132 59.2178 677.576 59.2178 674.834C59.2178 672.146 62.222 670.59 67.0727 670.59C71.9222 670.59 74.9275 672.146 74.9275 674.834ZM72.7395 674.834C72.7395 673.225 70.5781 672.278 67.0715 672.278C63.5649 672.278 61.4046 673.225 61.4046 674.834C61.4046 676.468 63.566 677.417 67.0715 677.417C70.5769 677.417 72.7395 676.468 72.7395 674.834ZM78.0382 661.997V663.79H74.6902V670.274H72.5276V655.514H74.6902V661.998H78.0382V661.997Z" fill="#111820" stroke="#111820" stroke-width="0.5" stroke-miterlimit="10"/>
<path d="M100.021 655.567V668.245H97.8334V662.946H93.036C92.6146 665.741 90.2425 667.587 86.9998 667.587C83.4677 667.587 80.9104 665.373 80.9104 662.105C80.9104 658.862 83.4677 656.648 86.9998 656.648C90.1892 656.648 92.5613 658.441 93.0093 661.182H97.8334V655.567H100.021ZM91.0332 662.103C91.0332 659.943 89.3464 658.439 87.0009 658.439C84.6543 658.439 82.9676 659.943 82.9676 662.103C82.9676 664.265 84.6543 665.794 87.0009 665.794C89.3464 665.794 91.0332 664.265 91.0332 662.103ZM97.86 669.378H100.021V678.867H84.8917V669.378H87.0276V672.384H97.86V669.378ZM97.86 674.07H87.0276V677.128H97.86V674.07Z" fill="#111820" stroke="#111820" stroke-width="0.5" stroke-miterlimit="10"/>
<path d="M117.655 669.326C115.02 668.377 112.99 666.4 111.963 663.975C110.935 666.664 108.773 668.852 106.005 669.853L104.872 668.165C108.378 666.9 110.829 663.762 110.829 660.417V659.231H105.557V657.465H118.183V659.231H112.991V660.391C112.991 663.474 115.311 666.426 118.736 667.639L117.655 669.326ZM124.929 676.892V678.656H109.14V671.354H111.328V676.89H124.929V676.892ZM122.083 662.077V655.567H124.271V672.885H122.083V663.843H117.338V662.077H122.083Z" fill="#111820" stroke="#111820" stroke-width="0.5" stroke-miterlimit="10"/>
<path d="M150.472 667.638V669.378H140.983V674.148H138.821V669.378H128.991V667.638H150.472ZM133.892 676.892H148.075V678.656H131.732V671.909H133.892V676.892V676.892ZM147.677 664.95H131.784V656.647H147.677V664.95V664.95ZM145.544 658.387H133.892V663.21H145.544V658.387Z" fill="#111820" stroke="#111820" stroke-width="0.5" stroke-miterlimit="10"/>
<path d="M174.669 674.097V675.862H153.292V674.097H158.538V666.269H160.671V674.097H164.39V666.269H166.524V674.097H174.669ZM170.004 659.678H155.507V657.913H172.166V660.523C172.166 663.527 172.166 666.613 171.323 671.041L169.186 670.776C170.004 666.558 170.004 663.449 170.004 660.523V659.678Z" fill="#111820" stroke="#111820" stroke-width="0.5" stroke-miterlimit="10"/>
<path d="M193.278 668.666V671.673H196.283V679.21H194.121V673.413H179.914V671.673H183.182V668.666H177.543V666.927H198.92V668.666H193.278ZM179.914 660.629C179.914 657.782 183.131 656.095 188.219 656.095C193.333 656.095 196.522 657.782 196.522 660.629C196.522 663.474 193.333 665.137 188.219 665.137C183.131 665.135 179.914 663.474 179.914 660.629ZM182.129 660.629C182.129 662.393 184.475 663.449 188.219 663.449C191.961 663.449 194.308 662.394 194.308 660.629C194.308 658.862 191.962 657.807 188.219 657.807C184.475 657.807 182.129 658.861 182.129 660.629ZM191.116 668.666H185.346V671.673H191.116V668.666Z" fill="#111820" stroke="#111820" stroke-width="0.5" stroke-miterlimit="10"/>
<path d="M223.222 674.466V676.232H201.793V674.466H211.36V669.038H203.743V667.297H207.356V659.547H203.691V657.808H221.219V659.547H217.556V667.297H221.166V669.038H213.551V674.466H223.222ZM209.517 667.297H215.394V659.547H209.517V667.297Z" fill="#111820" stroke="#111820" stroke-width="0.5" stroke-miterlimit="10"/>
<path d="M239.3 666.769C236.138 667.296 233.554 667.374 228.994 667.374H227.228V657.015H237.877V658.729H229.39V661.258H237.27V662.893H229.39V665.634C233.661 665.634 236.138 665.556 239.142 665.054L239.3 666.769ZM246.391 677.234V678.921H230.31V673.253H243.359V671.065H230.257V669.378H245.493V674.86H232.446V677.233H246.391V677.234ZM243.334 662.71H238.906V660.97H243.334V655.541H245.495V668.299H243.334V662.71Z" fill="#111820" stroke="#111820" stroke-width="0.5" stroke-miterlimit="10"/>
<path d="M63.891 639.013V647.905H65.256V639.013H63.891ZM64.853 642.783V643.914H66.933V642.783H64.853ZM56 640.365V641.444H62.994V640.365H56ZM59.497 641.99C57.794 641.99 56.611 642.9 56.611 644.239C56.611 645.591 57.794 646.488 59.497 646.488C61.187 646.488 62.37 645.591 62.37 644.239C62.37 642.9 61.187 641.99 59.497 641.99ZM59.497 643.043C60.433 643.043 61.07 643.498 61.07 644.239C61.07 644.993 60.433 645.435 59.497 645.435C58.561 645.435 57.924 644.993 57.924 644.239C57.924 643.498 58.561 643.043 59.497 643.043ZM58.821 639V640.898H60.173V639H58.821ZM57.742 649.543V650.648H65.737V649.543H57.742ZM57.742 647.216V650.011H59.107V647.216H57.742Z" fill="black"/>
<path d="M69.545 639.533V640.638H77.137V639.533H69.545ZM68.206 643.719V644.824H78.97V643.719H68.206ZM72.886 644.486V647.138H74.238V644.486H72.886ZM76.292 639.533V640.443C76.292 641.418 76.292 642.536 75.915 644.096L77.241 644.239C77.631 642.64 77.631 641.444 77.631 640.443V639.533H76.292ZM69.311 646.761V647.853H76.318V650.882H77.683V646.761H69.311Z" fill="black"/>
<path d="M81.01 639.702V640.794H86.184V639.702H81.01ZM82.661 642.315V645.188H84V642.315H82.661ZM85.638 639.702V640.404C85.638 641.158 85.638 642.133 85.365 643.459L86.691 643.576C86.99 642.224 86.99 641.158 86.99 640.404V639.702H85.638ZM88.394 639V646.332H89.772V639H88.394ZM89.187 642.094V643.225H91.345V642.094H89.187ZM80.438 645.669C82.557 645.669 85.313 645.617 87.757 645.201L87.666 644.226C85.287 644.538 82.44 644.564 80.295 644.564L80.438 645.669ZM85.859 646.475C83.376 646.475 81.842 647.294 81.842 648.659C81.842 650.05 83.376 650.856 85.859 650.856C88.342 650.856 89.876 650.05 89.876 648.659C89.876 647.294 88.342 646.475 85.859 646.475ZM85.859 647.528C87.523 647.528 88.485 647.931 88.485 648.659C88.485 649.4 87.523 649.79 85.859 649.79C84.195 649.79 83.22 649.4 83.22 648.659C83.22 647.931 84.195 647.528 85.859 647.528Z" fill="black"/>
<path d="M92.618 640.924V642.016H98.416V640.924H92.618ZM95.53 642.692C94.048 642.692 92.956 643.836 92.956 645.461C92.956 647.086 94.048 648.217 95.53 648.217C97.025 648.217 98.104 647.086 98.104 645.461C98.104 643.836 97.025 642.692 95.53 642.692ZM95.53 643.836C96.323 643.836 96.895 644.486 96.895 645.461C96.895 646.449 96.323 647.073 95.53 647.073C94.737 647.073 94.165 646.449 94.165 645.461C94.165 644.486 94.737 643.836 95.53 643.836ZM101.458 639V650.882H102.758V639H101.458ZM99.768 643.927V645.032H101.887V643.927H99.768ZM98.936 639.247V650.336H100.21V639.247H98.936ZM94.867 639.338V641.6H96.206V639.338H94.867Z" fill="black"/>
<path d="M105.448 639.702V640.794H110.622V639.702H105.448ZM107.099 642.315V645.188H108.438V642.315H107.099ZM110.076 639.702V640.404C110.076 641.158 110.076 642.133 109.803 643.459L111.129 643.576C111.428 642.224 111.428 641.158 111.428 640.404V639.702H110.076ZM112.832 639V646.332H114.21V639H112.832ZM113.625 642.094V643.225H115.783V642.094H113.625ZM104.876 645.669C106.995 645.669 109.751 645.617 112.195 645.201L112.104 644.226C109.725 644.538 106.878 644.564 104.733 644.564L104.876 645.669ZM110.297 646.475C107.814 646.475 106.28 647.294 106.28 648.659C106.28 650.05 107.814 650.856 110.297 650.856C112.78 650.856 114.314 650.05 114.314 648.659C114.314 647.294 112.78 646.475 110.297 646.475ZM110.297 647.528C111.961 647.528 112.923 647.931 112.923 648.659C112.923 649.4 111.961 649.79 110.297 649.79C108.633 649.79 107.658 649.4 107.658 648.659C107.658 647.931 108.633 647.528 110.297 647.528Z" fill="black"/>
<path d="M123.062 641.743V642.848H126.156V641.743H123.062ZM120.332 639.52C118.551 639.52 117.238 640.677 117.238 642.315C117.238 643.953 118.551 645.097 120.332 645.097C122.113 645.097 123.426 643.953 123.426 642.315C123.426 640.677 122.113 639.52 120.332 639.52ZM120.332 640.664C121.372 640.664 122.113 641.314 122.113 642.315C122.113 643.303 121.372 643.966 120.332 643.966C119.292 643.966 118.538 643.303 118.538 642.315C118.538 641.314 119.292 640.664 120.332 640.664ZM125.558 639V645.383H126.923V639H125.558ZM119.188 645.942V650.739H126.923V645.942H125.571V647.268H120.54V645.942H119.188ZM120.54 648.334H125.571V649.647H120.54V648.334Z" fill="black"/>
<path d="M134.605 646.449C132.07 646.449 130.445 647.281 130.445 648.672C130.445 650.037 132.07 650.869 134.605 650.869C137.153 650.869 138.778 650.037 138.778 648.672C138.778 647.281 137.153 646.449 134.605 646.449ZM134.605 647.489C136.36 647.489 137.426 647.918 137.426 648.672C137.426 649.4 136.36 649.829 134.605 649.829C132.863 649.829 131.797 649.4 131.797 648.672C131.797 647.918 132.863 647.489 134.605 647.489ZM130.549 639.572V640.651H138.141V639.572H130.549ZM129.314 644.434V645.513H140.013V644.434H129.314ZM133.513 642.237V644.72H134.865V642.237H133.513ZM137.348 639.572V640.56C137.348 641.483 137.348 642.354 137.023 643.576L138.375 643.719C138.7 642.497 138.7 641.509 138.7 640.56V639.572H137.348Z" fill="black"/>
<path d="M149.424 639V647.593H150.789V639H149.424ZM150.386 642.393V643.524H152.466V642.393H150.386ZM142.014 644.46V645.565H142.963C145.524 645.565 146.902 645.5 148.462 645.162L148.319 644.07C146.798 644.395 145.472 644.46 142.963 644.46H142.014ZM142.014 639.988V645.045H143.366V641.093H147.292V639.988H142.014ZM143.275 649.543V650.648H151.27V649.543H143.275ZM143.275 646.709V650.076H144.64V646.709H143.275Z" fill="black"/>
<path d="M268.13 668.999L260.884 680L253.638 668.999L260.884 658.002L268.13 668.999Z" fill="#0082CB"/>
<path d="M268.13 668.999L275.374 680L282.621 668.999L275.374 658.002L268.13 668.999Z" fill="#0082CB"/>
<path d="M260.884 657.996L268.13 668.999L275.374 657.996L268.13 646.999L260.884 657.996Z" fill="#0082CB"/>
<path d="M253.638 668.999L246.391 679.997H260.882L253.638 668.999Z" fill="#0082CB"/>
<path d="M282.62 668.999L275.374 679.997H289.867L282.62 668.999Z" fill="#0082CB"/>
<path d="M268.13 668.999L260.884 680L253.638 668.999L260.884 658.002L268.13 668.999Z" fill="#00A0D9"/>
<path d="M268.13 668.999L275.374 680L282.621 668.999L275.374 658.002L268.13 668.999Z" fill="#00A0D9"/>
<path d="M260.884 657.996L268.13 668.999L275.374 657.996L268.13 646.999L260.884 657.996Z" fill="#65B9E3"/>
<path d="M253.638 668.999L246.391 679.997H260.882L253.638 668.999Z" fill="#0082CB"/>
<path d="M282.62 668.999L275.374 679.997H289.867L282.62 668.999Z" fill="#0082CB"/>
<path d="M289.867 646.998L282.62 636L275.374 646.998H289.867Z" fill="#65B9E3"/>
<path d="M275.375 647.001L282.621 657.998L289.867 647.001H275.375Z" fill="#00A0D9"/>
<path d="M317.495 667.771C312.593 668.534 307.005 668.666 302.761 668.666L302.523 666.874C304.025 666.874 305.765 666.874 307.531 666.822V662.157H309.666V666.769C312.249 666.664 314.912 666.478 317.337 666.189L317.495 667.771ZM312.962 664.529C313.515 662.025 313.567 660.179 313.567 658.757H303.973V657.017H315.676V658.282C315.676 659.785 315.676 661.92 315.069 664.714L312.962 664.529ZM321.318 674.834C321.318 677.576 318.313 679.132 313.463 679.132C308.614 679.132 305.608 677.576 305.608 674.834C305.608 672.146 308.613 670.59 313.463 670.59C318.313 670.59 321.318 672.146 321.318 674.834ZM319.13 674.834C319.13 673.225 316.969 672.278 313.462 672.278C309.955 672.278 307.795 673.225 307.795 674.834C307.795 676.468 309.957 677.417 313.462 677.417C316.968 677.417 319.13 676.468 319.13 674.834ZM324.429 661.997V663.79H321.081V670.274H318.918V655.514H321.081V661.998H324.429V661.997Z" fill="white" stroke="white" stroke-width="0.5" stroke-miterlimit="10"/>
<path d="M346.412 655.567V668.245H344.224V662.946H339.427C339.005 665.741 336.633 667.587 333.39 667.587C329.858 667.587 327.301 665.373 327.301 662.105C327.301 658.862 329.858 656.648 333.39 656.648C336.58 656.648 338.952 658.441 339.4 661.182H344.224V655.567H346.412ZM337.424 662.103C337.424 659.943 335.737 658.439 333.392 658.439C331.045 658.439 329.358 659.943 329.358 662.103C329.358 664.265 331.045 665.794 333.392 665.794C335.737 665.794 337.424 664.265 337.424 662.103ZM344.251 669.378H346.412V678.867H331.282V669.378H333.418V672.384H344.251V669.378ZM344.251 674.07H333.418V677.128H344.251V674.07Z" fill="white" stroke="white" stroke-width="0.5" stroke-miterlimit="10"/>
<path d="M364.046 669.326C361.411 668.377 359.38 666.4 358.353 663.975C357.325 666.664 355.164 668.852 352.396 669.853L351.263 668.165C354.768 666.9 357.22 663.762 357.22 660.417V659.231H351.948V657.465H364.574V659.231H359.382V660.391C359.382 663.474 361.702 666.426 365.127 667.639L364.046 669.326ZM371.32 676.892V678.656H355.531V671.354H357.719V676.89H371.32V676.892ZM368.474 662.077V655.567H370.662V672.885H368.474V663.843H363.729V662.077H368.474Z" fill="white" stroke="white" stroke-width="0.5" stroke-miterlimit="10"/>
<path d="M396.863 667.638V669.378H387.373V674.148H385.212V669.378H375.382V667.638H396.863ZM380.282 676.892H394.465V678.656H378.122V671.909H380.282V676.892V676.892ZM394.068 664.95H378.174V656.647H394.068V664.95V664.95ZM391.934 658.387H380.282V663.21H391.934V658.387Z" fill="white" stroke="white" stroke-width="0.5" stroke-miterlimit="10"/>
<path d="M421.059 674.097V675.862H399.683V674.097H404.928V666.269H407.062V674.097H410.78V666.269H412.915V674.097H421.059ZM416.395 659.678H401.897V657.913H418.556V660.523C418.556 663.527 418.556 666.613 417.714 671.041L415.577 670.776C416.395 666.558 416.395 663.449 416.395 660.523V659.678V659.678Z" fill="white" stroke="white" stroke-width="0.5" stroke-miterlimit="10"/>
<path d="M439.669 668.666V671.673H442.673V679.21H440.512V673.413H426.305V671.673H429.573V668.666H423.934V666.927H445.31V668.666H439.669ZM426.305 660.629C426.305 657.782 429.522 656.095 434.61 656.095C439.723 656.095 442.913 657.782 442.913 660.629C442.913 663.474 439.723 665.137 434.61 665.137C429.522 665.135 426.305 663.474 426.305 660.629ZM428.519 660.629C428.519 662.393 430.866 663.449 434.61 663.449C438.352 663.449 440.698 662.394 440.698 660.629C440.698 658.862 438.353 657.807 434.61 657.807C430.866 657.807 428.519 658.861 428.519 660.629ZM437.506 668.666H431.737V671.673H437.506V668.666Z" fill="white" stroke="white" stroke-width="0.5" stroke-miterlimit="10"/>
<path d="M469.613 674.466V676.232H448.184V674.466H457.751V669.038H450.133V667.297H453.747V659.547H450.081V657.808H467.61V659.547H463.947V667.297H467.556V669.038H459.941V674.466H469.613ZM455.908 667.297H461.784V659.547H455.908V667.297Z" fill="white" stroke="white" stroke-width="0.5" stroke-miterlimit="10"/>
<path d="M485.69 666.769C482.529 667.296 479.945 667.374 475.385 667.374H473.618V657.015H484.268V658.729H475.781V661.258H483.661V662.893H475.781V665.634C480.051 665.634 482.529 665.556 485.533 665.054L485.69 666.769ZM492.781 677.234V678.921H476.701V673.253H489.749V671.065H476.648V669.378H491.884V674.86H478.837V677.233H492.781V677.234ZM489.725 662.71H485.297V660.97H489.725V655.541H491.885V668.299H489.725V662.71Z" fill="white" stroke="white" stroke-width="0.5" stroke-miterlimit="10"/>
<path d="M310.891 639.013V647.905H312.256V639.013H310.891ZM311.853 642.783V643.914H313.933V642.783H311.853ZM303 640.365V641.444H309.994V640.365H303ZM306.497 641.99C304.794 641.99 303.611 642.9 303.611 644.239C303.611 645.591 304.794 646.488 306.497 646.488C308.187 646.488 309.37 645.591 309.37 644.239C309.37 642.9 308.187 641.99 306.497 641.99ZM306.497 643.043C307.433 643.043 308.07 643.498 308.07 644.239C308.07 644.993 307.433 645.435 306.497 645.435C305.561 645.435 304.924 644.993 304.924 644.239C304.924 643.498 305.561 643.043 306.497 643.043ZM305.821 639V640.898H307.173V639H305.821ZM304.742 649.543V650.648H312.737V649.543H304.742ZM304.742 647.216V650.011H306.107V647.216H304.742Z" fill="white"/>
<path d="M316.545 639.533V640.638H324.137V639.533H316.545ZM315.206 643.719V644.824H325.97V643.719H315.206ZM319.886 644.486V647.138H321.238V644.486H319.886ZM323.292 639.533V640.443C323.292 641.418 323.292 642.536 322.915 644.096L324.241 644.239C324.631 642.64 324.631 641.444 324.631 640.443V639.533H323.292ZM316.311 646.761V647.853H323.318V650.882H324.683V646.761H316.311Z" fill="white"/>
<path d="M328.01 639.702V640.794H333.184V639.702H328.01ZM329.661 642.315V645.188H331V642.315H329.661ZM332.638 639.702V640.404C332.638 641.158 332.638 642.133 332.365 643.459L333.691 643.576C333.99 642.224 333.99 641.158 333.99 640.404V639.702H332.638ZM335.394 639V646.332H336.772V639H335.394ZM336.187 642.094V643.225H338.345V642.094H336.187ZM327.438 645.669C329.557 645.669 332.313 645.617 334.757 645.201L334.666 644.226C332.287 644.538 329.44 644.564 327.295 644.564L327.438 645.669ZM332.859 646.475C330.376 646.475 328.842 647.294 328.842 648.659C328.842 650.05 330.376 650.856 332.859 650.856C335.342 650.856 336.876 650.05 336.876 648.659C336.876 647.294 335.342 646.475 332.859 646.475ZM332.859 647.528C334.523 647.528 335.485 647.931 335.485 648.659C335.485 649.4 334.523 649.79 332.859 649.79C331.195 649.79 330.22 649.4 330.22 648.659C330.22 647.931 331.195 647.528 332.859 647.528Z" fill="white"/>
<path d="M339.618 640.924V642.016H345.416V640.924H339.618ZM342.53 642.692C341.048 642.692 339.956 643.836 339.956 645.461C339.956 647.086 341.048 648.217 342.53 648.217C344.025 648.217 345.104 647.086 345.104 645.461C345.104 643.836 344.025 642.692 342.53 642.692ZM342.53 643.836C343.323 643.836 343.895 644.486 343.895 645.461C343.895 646.449 343.323 647.073 342.53 647.073C341.737 647.073 341.165 646.449 341.165 645.461C341.165 644.486 341.737 643.836 342.53 643.836ZM348.458 639V650.882H349.758V639H348.458ZM346.768 643.927V645.032H348.887V643.927H346.768ZM345.936 639.247V650.336H347.21V639.247H345.936ZM341.867 639.338V641.6H343.206V639.338H341.867Z" fill="white"/>
<path d="M352.448 639.702V640.794H357.622V639.702H352.448ZM354.099 642.315V645.188H355.438V642.315H354.099ZM357.076 639.702V640.404C357.076 641.158 357.076 642.133 356.803 643.459L358.129 643.576C358.428 642.224 358.428 641.158 358.428 640.404V639.702H357.076ZM359.832 639V646.332H361.21V639H359.832ZM360.625 642.094V643.225H362.783V642.094H360.625ZM351.876 645.669C353.995 645.669 356.751 645.617 359.195 645.201L359.104 644.226C356.725 644.538 353.878 644.564 351.733 644.564L351.876 645.669ZM357.297 646.475C354.814 646.475 353.28 647.294 353.28 648.659C353.28 650.05 354.814 650.856 357.297 650.856C359.78 650.856 361.314 650.05 361.314 648.659C361.314 647.294 359.78 646.475 357.297 646.475ZM357.297 647.528C358.961 647.528 359.923 647.931 359.923 648.659C359.923 649.4 358.961 649.79 357.297 649.79C355.633 649.79 354.658 649.4 354.658 648.659C354.658 647.931 355.633 647.528 357.297 647.528Z" fill="white"/>
<path d="M370.062 641.743V642.848H373.156V641.743H370.062ZM367.332 639.52C365.551 639.52 364.238 640.677 364.238 642.315C364.238 643.953 365.551 645.097 367.332 645.097C369.113 645.097 370.426 643.953 370.426 642.315C370.426 640.677 369.113 639.52 367.332 639.52ZM367.332 640.664C368.372 640.664 369.113 641.314 369.113 642.315C369.113 643.303 368.372 643.966 367.332 643.966C366.292 643.966 365.538 643.303 365.538 642.315C365.538 641.314 366.292 640.664 367.332 640.664ZM372.558 639V645.383H373.923V639H372.558ZM366.188 645.942V650.739H373.923V645.942H372.571V647.268H367.54V645.942H366.188ZM367.54 648.334H372.571V649.647H367.54V648.334Z" fill="white"/>
<path d="M381.605 646.449C379.07 646.449 377.445 647.281 377.445 648.672C377.445 650.037 379.07 650.869 381.605 650.869C384.153 650.869 385.778 650.037 385.778 648.672C385.778 647.281 384.153 646.449 381.605 646.449ZM381.605 647.489C383.36 647.489 384.426 647.918 384.426 648.672C384.426 649.4 383.36 649.829 381.605 649.829C379.863 649.829 378.797 649.4 378.797 648.672C378.797 647.918 379.863 647.489 381.605 647.489ZM377.549 639.572V640.651H385.141V639.572H377.549ZM376.314 644.434V645.513H387.013V644.434H376.314ZM380.513 642.237V644.72H381.865V642.237H380.513ZM384.348 639.572V640.56C384.348 641.483 384.348 642.354 384.023 643.576L385.375 643.719C385.7 642.497 385.7 641.509 385.7 640.56V639.572H384.348Z" fill="white"/>
<path d="M396.424 639V647.593H397.789V639H396.424ZM397.386 642.393V643.524H399.466V642.393H397.386ZM389.014 644.46V645.565H389.963C392.524 645.565 393.902 645.5 395.462 645.162L395.319 644.07C393.798 644.395 392.472 644.46 389.963 644.46H389.014ZM389.014 639.988V645.045H390.366V641.093H394.292V639.988H389.014ZM390.275 649.543V650.648H398.27V649.543H390.275ZM390.275 646.709V650.076H391.64V646.709H390.275Z" fill="white"/>
<path d="M29.6442 620.998L19.7634 636L9.88257 620.998L19.7634 606.002L29.6442 620.998Z" fill="#0082CB"/>
<path d="M29.6439 620.998L39.5231 636L49.4055 620.998L39.5231 606.002L29.6439 620.998Z" fill="#0082CB"/>
<path d="M19.7632 605.994L29.644 620.998L39.5232 605.994L29.644 590.999L19.7632 605.994Z" fill="#0082CB"/>
<path d="M9.88239 620.998L0 635.995H19.7616L9.88239 620.998Z" fill="#0082CB"/>
<path d="M49.404 620.998L39.5232 635.995H59.2864L49.404 620.998Z" fill="#0082CB"/>
<path d="M29.6442 620.998L19.7634 636L9.88257 620.998L19.7634 606.002L29.6442 620.998Z" fill="#00A0D9"/>
<path d="M29.6439 620.998L39.5231 636L49.4055 620.998L39.5231 606.002L29.6439 620.998Z" fill="#00A0D9"/>
<path d="M19.7632 605.994L29.644 620.998L39.5232 605.994L29.644 590.999L19.7632 605.994Z" fill="#65B9E3"/>
<path d="M9.88239 620.998L0 635.995H19.7616L9.88239 620.998Z" fill="#0082CB"/>
<path d="M49.404 620.998L39.5232 635.995H59.2864L49.404 620.998Z" fill="#0082CB"/>
<path d="M59.2864 590.997L49.404 576L39.5232 590.997H59.2864Z" fill="#65B9E3"/>
<path d="M39.5248 591.002L49.4056 605.998L59.2864 591.002H39.5248Z" fill="#00A0D9"/>
<path d="M96.9612 619.325C90.2756 620.365 82.6554 620.545 76.868 620.545L76.5444 618.101C78.592 618.101 80.9647 618.101 83.3737 618.03V611.668H86.2847V617.958C89.8067 617.814 93.4376 617.561 96.7449 617.167L96.9612 619.325ZM90.7792 614.903C91.5338 611.488 91.6048 608.972 91.6048 607.032H78.5209V604.659H94.4795V606.384C94.4795 608.434 94.4795 611.346 93.6523 615.155L90.7792 614.903ZM102.174 628.956C102.174 632.694 98.0757 634.816 91.4627 634.816C84.8497 634.816 80.7515 632.694 80.7515 628.956C80.7515 625.29 84.8482 623.169 91.4627 623.169C98.0757 623.169 102.174 625.29 102.174 628.956ZM99.1902 628.956C99.1902 626.762 96.2429 625.47 91.4611 625.47C86.6794 625.47 83.7336 626.762 83.7336 628.956C83.7336 631.184 86.681 632.478 91.4611 632.478C96.2413 632.478 99.1902 631.184 99.1902 628.956ZM106.416 611.45V613.896H101.85V622.738H98.9013V602.61H101.85V611.452H106.416V611.45Z" fill="#111820" stroke="#111820" stroke-width="0.5" stroke-miterlimit="10"/>
<path d="M136.393 602.682V619.97H133.409V612.745H126.867C126.293 616.556 123.058 619.074 118.636 619.074C113.82 619.074 110.332 616.054 110.332 611.597C110.332 607.175 113.82 604.157 118.636 604.157C122.985 604.157 126.22 606.601 126.831 610.339H133.409V602.682H136.393ZM124.136 611.596C124.136 608.65 121.836 606.599 118.638 606.599C115.438 606.599 113.138 608.65 113.138 611.596C113.138 614.543 115.438 616.628 118.638 616.628C121.836 616.628 124.136 614.543 124.136 611.596ZM133.445 621.516H136.393V634.455H115.761V621.516H118.674V625.614H133.445V621.516ZM133.445 627.914H118.674V632.083H133.445V627.914Z" fill="#111820" stroke="#111820" stroke-width="0.5" stroke-miterlimit="10"/>
<path d="M160.439 621.445C156.846 620.15 154.077 617.454 152.677 614.148C151.275 617.814 148.327 620.798 144.553 622.163L143.007 619.861C147.787 618.136 151.131 613.858 151.131 609.296V607.679H143.942V605.27H161.159V607.679H154.078V609.261C154.078 613.465 157.242 617.49 161.913 619.145L160.439 621.445ZM170.358 631.761V634.167H148.828V624.211H151.811V631.76H170.358V631.761ZM166.477 611.559V602.682H169.461V626.298H166.477V613.968H160.006V611.559H166.477Z" fill="#111820" stroke="#111820" stroke-width="0.5" stroke-miterlimit="10"/>
<path d="M205.189 619.143V621.516H192.249V628.02H189.302V621.516H175.897V619.143H205.189ZM182.58 631.761H201.92V634.167H179.634V624.967H182.58V631.761V631.761ZM201.378 615.478H179.705V604.155H201.378V615.478V615.478ZM198.469 606.528H182.58V613.105H198.469V606.528Z" fill="#111820" stroke="#111820" stroke-width="0.5" stroke-miterlimit="10"/>
<path d="M238.185 627.95V630.358H209.035V627.95H216.188V617.276H219.097V627.95H224.168V617.276H227.079V627.95H238.185ZM231.824 608.288H212.055V605.881H234.772V609.441C234.772 613.537 234.772 617.744 233.622 623.783L230.708 623.421C231.824 617.67 231.824 613.43 231.824 609.441V608.288V608.288Z" fill="#111820" stroke="#111820" stroke-width="0.5" stroke-miterlimit="10"/>
<path d="M263.561 620.545V624.645H267.658V634.923H264.711V627.017H245.337V624.645H249.794V620.545H242.104V618.174H271.254V620.545H263.561ZM245.337 609.584C245.337 605.702 249.725 603.402 256.663 603.402C263.636 603.402 267.985 605.702 267.985 609.584C267.985 613.465 263.636 615.732 256.663 615.732C249.725 615.73 245.337 613.465 245.337 609.584ZM248.357 609.584C248.357 611.99 251.557 613.43 256.663 613.43C261.765 613.43 264.965 611.992 264.965 609.584C264.965 607.175 261.767 605.737 256.663 605.737C251.557 605.737 248.357 607.174 248.357 609.584ZM260.613 620.545H252.744V624.645H260.613V620.545Z" fill="#111820" stroke="#111820" stroke-width="0.5" stroke-miterlimit="10"/>
<path d="M304.394 628.454V630.862H275.173V628.454H288.219V621.052H277.831V618.677H282.758V608.11H277.76V605.739H301.662V608.11H296.668V618.677H301.59V621.052H291.205V628.454H304.394ZM285.705 618.677H293.719V608.11H285.705V618.677Z" fill="#111820" stroke="#111820" stroke-width="0.5" stroke-miterlimit="10"/>
<path d="M326.318 617.958C322.007 618.676 318.483 618.783 312.265 618.783H309.856V604.657H324.378V606.994H312.805V610.443H323.551V612.672H312.805V616.411C318.628 616.411 322.007 616.303 326.103 615.62L326.318 617.958ZM335.987 632.229V634.529H314.06V626.8H331.853V623.816H313.987V621.516H334.764V628.991H316.972V632.227H335.987V632.229ZM331.82 612.423H325.781V610.05H331.82V602.646H334.765V620.045H331.82V612.423Z" fill="#111820" stroke="#111820" stroke-width="0.5" stroke-miterlimit="10"/>
<path d="M89.9245 578.021V592.24H92.1603V578.021H89.9245ZM91.5002 584.05V585.858H94.907V584.05H91.5002ZM77 580.183V581.909H88.4554V580.183H77ZM82.7277 582.782C79.9384 582.782 78.0007 584.237 78.0007 586.378C78.0007 588.54 79.9384 589.974 82.7277 589.974C85.4957 589.974 87.4333 588.54 87.4333 586.378C87.4333 584.237 85.4957 582.782 82.7277 582.782ZM82.7277 584.465C84.2607 584.465 85.3041 585.193 85.3041 586.378C85.3041 587.584 84.2607 588.29 82.7277 588.29C81.1946 588.29 80.1513 587.584 80.1513 586.378C80.1513 585.193 81.1946 584.465 82.7277 584.465ZM81.6205 578V581.035H83.8349V578H81.6205ZM79.8532 594.859V596.626H92.9481V594.859H79.8532ZM79.8532 591.138V595.608H82.0889V591.138H79.8532Z" fill="black"/>
<path d="M99.1851 578.853V580.62H111.62V578.853H99.1851ZM96.992 585.546V587.313H114.622V585.546H96.992ZM104.657 586.773V591.014H106.872V586.773H104.657ZM110.236 578.853V580.308C110.236 581.867 110.236 583.655 109.618 586.149L111.79 586.378C112.429 583.821 112.429 581.909 112.429 580.308V578.853H110.236ZM98.8019 590.411V592.157H110.279V597H112.514V590.411H98.8019Z" fill="black"/>
<path d="M117.963 579.123V580.869H126.438V579.123H117.963ZM120.668 583.301V587.895H122.861V583.301H120.668ZM125.544 579.123V580.246C125.544 581.451 125.544 583.01 125.096 585.131L127.268 585.318C127.758 583.156 127.758 581.451 127.758 580.246V579.123H125.544ZM130.058 578V589.725H132.315V578H130.058ZM131.356 582.948V584.757H134.891V582.948H131.356ZM117.027 588.665C120.497 588.665 125.011 588.581 129.014 587.916L128.865 586.357C124.969 586.856 120.306 586.898 116.792 586.898L117.027 588.665ZM125.906 589.953C121.839 589.953 119.326 591.263 119.326 593.446C119.326 595.67 121.839 596.959 125.906 596.959C129.972 596.959 132.485 595.67 132.485 593.446C132.485 591.263 129.972 589.953 125.906 589.953ZM125.906 591.637C128.631 591.637 130.207 592.282 130.207 593.446C130.207 594.631 128.631 595.254 125.906 595.254C123.18 595.254 121.583 594.631 121.583 593.446C121.583 592.282 123.18 591.637 125.906 591.637Z" fill="black"/>
<path d="M136.976 581.077V582.823H146.472V581.077H136.976ZM141.745 583.904C139.318 583.904 137.53 585.734 137.53 588.332C137.53 590.93 139.318 592.739 141.745 592.739C144.194 592.739 145.961 590.93 145.961 588.332C145.961 585.734 144.194 583.904 141.745 583.904ZM141.745 585.734C143.044 585.734 143.981 586.773 143.981 588.332C143.981 589.912 143.044 590.91 141.745 590.91C140.447 590.91 139.51 589.912 139.51 588.332C139.51 586.773 140.447 585.734 141.745 585.734ZM151.455 578V597H153.584V578H151.455ZM148.687 585.879V587.646H152.158V585.879H148.687ZM147.324 578.395V596.127H149.411V578.395H147.324ZM140.66 578.541V582.158H142.853V578.541H140.66Z" fill="black"/>
<path d="M157.99 579.123V580.869H166.464V579.123H157.99ZM160.694 583.301V587.895H162.887V583.301H160.694ZM165.57 579.123V580.246C165.57 581.451 165.57 583.01 165.123 585.131L167.295 585.318C167.785 583.156 167.785 581.451 167.785 580.246V579.123H165.57ZM170.084 578V589.725H172.341V578H170.084ZM171.383 582.948V584.757H174.918V582.948H171.383ZM157.053 588.665C160.524 588.665 165.038 588.581 169.041 587.916L168.892 586.357C164.995 586.856 160.332 586.898 156.819 586.898L157.053 588.665ZM165.932 589.953C161.865 589.953 159.353 591.263 159.353 593.446C159.353 595.67 161.865 596.959 165.932 596.959C169.999 596.959 172.512 595.67 172.512 593.446C172.512 591.263 169.999 589.953 165.932 589.953ZM165.932 591.637C168.658 591.637 170.233 592.282 170.233 593.446C170.233 594.631 168.658 595.254 165.932 595.254C163.207 595.254 161.61 594.631 161.61 593.446C161.61 592.282 163.207 591.637 165.932 591.637Z" fill="black"/>
<path d="M186.84 582.387V584.154H191.907V582.387H186.84ZM182.368 578.832C179.451 578.832 177.301 580.682 177.301 583.301C177.301 585.921 179.451 587.75 182.368 587.75C185.285 587.75 187.436 585.921 187.436 583.301C187.436 580.682 185.285 578.832 182.368 578.832ZM182.368 580.661C184.072 580.661 185.285 581.701 185.285 583.301C185.285 584.881 184.072 585.941 182.368 585.941C180.665 585.941 179.43 584.881 179.43 583.301C179.43 581.701 180.665 580.661 182.368 580.661ZM190.928 578V588.207H193.164V578H190.928ZM180.495 589.101V596.772H193.164V589.101H190.949V591.221H182.709V589.101H180.495ZM182.709 592.926H190.949V595.026H182.709V592.926Z" fill="black"/>
<path d="M205.746 589.912C201.594 589.912 198.932 591.242 198.932 593.467C198.932 595.649 201.594 596.98 205.746 596.98C209.919 596.98 212.581 595.649 212.581 593.467C212.581 591.242 209.919 589.912 205.746 589.912ZM205.746 591.575C208.62 591.575 210.366 592.261 210.366 593.467C210.366 594.631 208.62 595.317 205.746 595.317C202.893 595.317 201.147 594.631 201.147 593.467C201.147 592.261 202.893 591.575 205.746 591.575ZM199.103 578.915V580.641H211.537V578.915H199.103ZM197.08 586.69V588.415H214.603V586.69H197.08ZM203.957 583.177V587.147H206.172V583.177H203.957ZM210.238 578.915V580.495C210.238 581.971 210.238 583.364 209.706 585.318L211.921 585.546C212.453 583.592 212.453 582.013 212.453 580.495V578.915H210.238Z" fill="black"/>
<path d="M230.018 578V591.741H232.253V578H230.018ZM231.593 583.426V585.235H235V583.426H231.593ZM217.881 586.731V588.498H219.435C223.63 588.498 225.887 588.394 228.442 587.854L228.208 586.108C225.716 586.627 223.545 586.731 219.435 586.731H217.881ZM217.881 579.58V587.667H220.095V581.347H226.526V579.58H217.881ZM219.946 594.859V596.626H233.041V594.859H219.946ZM219.946 590.328V595.712H222.182V590.328H219.946Z" fill="black"/>
<path d="M365.631 620.998L355.75 636L345.87 620.998L355.75 606.002L365.631 620.998Z" fill="#0082CB"/>
<path d="M365.631 620.998L375.51 636L385.393 620.998L375.51 606.002L365.631 620.998Z" fill="#0082CB"/>
<path d="M355.75 605.994L365.631 620.998L375.51 605.994L365.631 590.999L355.75 605.994Z" fill="#0082CB"/>
<path d="M345.869 620.998L335.987 635.995H355.749L345.869 620.998Z" fill="#0082CB"/>
<path d="M385.391 620.998L375.51 635.995H395.273L385.391 620.998Z" fill="#0082CB"/>
<path d="M365.631 620.998L355.75 636L345.87 620.998L355.75 606.002L365.631 620.998Z" fill="#00A0D9"/>
<path d="M365.631 620.998L375.51 636L385.393 620.998L375.51 606.002L365.631 620.998Z" fill="#00A0D9"/>
<path d="M355.75 605.994L365.631 620.998L375.51 605.994L365.631 590.999L355.75 605.994Z" fill="#65B9E3"/>
<path d="M345.869 620.998L335.987 635.995H355.749L345.869 620.998Z" fill="#0082CB"/>
<path d="M385.391 620.998L375.51 635.995H395.273L385.391 620.998Z" fill="#0082CB"/>
<path d="M395.273 590.997L385.391 576L375.51 590.997H395.273Z" fill="#65B9E3"/>
<path d="M375.512 591.002L385.393 605.998L395.273 591.002H375.512Z" fill="#00A0D9"/>
<path d="M432.948 619.325C426.263 620.365 418.642 620.545 412.855 620.545L412.531 618.101C414.579 618.101 416.952 618.101 419.361 618.03V611.668H422.272V617.958C425.794 617.814 429.425 617.561 432.732 617.167L432.948 619.325ZM426.766 614.903C427.521 611.488 427.592 608.972 427.592 607.032H414.508V604.659H430.467V606.384C430.467 608.433 430.467 611.346 429.639 615.155L426.766 614.903ZM438.161 628.956C438.161 632.694 434.063 634.816 427.45 634.816C420.837 634.816 416.739 632.694 416.739 628.956C416.739 625.29 420.835 623.169 427.45 623.169C434.063 623.169 438.161 625.29 438.161 628.956ZM435.177 628.956C435.177 626.762 432.23 625.47 427.448 625.47C422.666 625.47 419.721 626.762 419.721 628.956C419.721 631.184 422.668 632.478 427.448 632.478C432.228 632.478 435.177 631.184 435.177 628.956ZM442.403 611.45V613.896H437.837V622.738H434.888V602.61H437.837V611.452H442.403V611.45Z" fill="white" stroke="white" stroke-width="0.5" stroke-miterlimit="10"/>
<path d="M472.38 602.682V619.97H469.396V612.745H462.854C462.28 616.556 459.045 619.074 454.623 619.074C449.807 619.074 446.319 616.054 446.319 611.597C446.319 607.175 449.807 604.157 454.623 604.157C458.972 604.157 462.207 606.601 462.818 610.339H469.396V602.682H472.38ZM460.123 611.596C460.123 608.65 457.823 606.599 454.625 606.599C451.425 606.599 449.125 608.65 449.125 611.596C449.125 614.543 451.425 616.628 454.625 616.628C457.823 616.628 460.123 614.543 460.123 611.596ZM469.433 621.516H472.38V634.455H451.748V621.516H454.661V625.614H469.433V621.516ZM469.433 627.914H454.661V632.083H469.433V627.914Z" fill="white" stroke="white" stroke-width="0.5" stroke-miterlimit="10"/>
<path d="M496.426 621.445C492.833 620.15 490.064 617.454 488.664 614.148C487.262 617.814 484.314 620.798 480.54 622.163L478.994 619.861C483.775 618.136 487.118 613.858 487.118 609.295V607.679H479.929V605.27H497.146V607.679H490.066V609.261C490.066 613.465 493.229 617.49 497.9 619.145L496.426 621.445ZM506.345 631.761V634.167H484.815V624.211H487.799V631.76H506.345V631.761ZM502.464 611.559V602.682H505.448V626.298H502.464V613.968H495.993V611.559H502.464Z" fill="white" stroke="white" stroke-width="0.5" stroke-miterlimit="10"/>
<path d="M541.176 619.143V621.516H528.236V628.02H525.289V621.516H511.884V619.143H541.176ZM518.567 631.761H537.907V634.167H515.621V624.967H518.567V631.761V631.761ZM537.365 615.477H515.692V604.155H537.365V615.477V615.477ZM534.456 606.528H518.567V613.105H534.456V606.528Z" fill="white" stroke="white" stroke-width="0.5" stroke-miterlimit="10"/>
<path d="M574.172 627.95V630.358H545.022V627.95H552.175V617.276H555.084V627.95H560.155V617.276H563.066V627.95H574.172ZM567.811 608.288H548.042V605.881H570.759V609.441C570.759 613.537 570.759 617.744 569.609 623.783L566.695 623.421C567.811 617.67 567.811 613.43 567.811 609.441V608.288V608.288Z" fill="white" stroke="white" stroke-width="0.5" stroke-miterlimit="10"/>
<path d="M599.549 620.545V624.645H603.645V634.923H600.698V627.017H581.325V624.645H585.781V620.545H578.091V618.174H607.241V620.545H599.549ZM581.325 609.584C581.325 605.702 585.712 603.402 592.65 603.402C599.623 603.402 603.972 605.702 603.972 609.584C603.972 613.465 599.623 615.732 592.65 615.732C585.712 615.73 581.325 613.465 581.325 609.584ZM584.344 609.584C584.344 611.99 587.544 613.43 592.65 613.43C597.752 613.43 600.952 611.992 600.952 609.584C600.952 607.175 597.754 605.737 592.65 605.737C587.544 605.737 584.344 607.174 584.344 609.584ZM596.6 620.545H588.732V624.645H596.6V620.545Z" fill="white" stroke="white" stroke-width="0.5" stroke-miterlimit="10"/>
<path d="M640.381 628.454V630.861H611.16V628.454H624.206V621.052H613.818V618.677H618.745V608.11H613.747V605.739H637.65V608.11H632.655V618.677H637.577V621.052H627.193V628.454H640.381ZM621.692 618.677H629.706V608.11H621.692V618.677Z" fill="white" stroke="white" stroke-width="0.5" stroke-miterlimit="10"/>
<path d="M662.305 617.958C657.994 618.676 654.47 618.783 648.252 618.783H645.843V604.657H660.365V606.994H648.792V610.443H659.538V612.672H648.792V616.41C654.615 616.41 657.994 616.303 662.09 615.62L662.305 617.958ZM671.974 632.229V634.529H650.047V626.8H667.84V623.816H649.974V621.516H670.751V628.991H652.959V632.227H671.974V632.229ZM667.807 612.423H661.768V610.05H667.807V602.646H670.752V620.045H667.807V612.423Z" fill="white" stroke="white" stroke-width="0.5" stroke-miterlimit="10"/>
<path d="M425.925 578.021V592.24H428.16V578.021H425.925ZM427.5 584.049V585.858H430.907V584.049H427.5ZM413 580.183V581.908H424.455V580.183H413ZM418.728 582.781C415.938 582.781 414.001 584.236 414.001 586.377C414.001 588.539 415.938 589.974 418.728 589.974C421.496 589.974 423.433 588.539 423.433 586.377C423.433 584.236 421.496 582.781 418.728 582.781ZM418.728 584.465C420.261 584.465 421.304 585.193 421.304 586.377C421.304 587.583 420.261 588.29 418.728 588.29C417.195 588.29 416.151 587.583 416.151 586.377C416.151 585.193 417.195 584.465 418.728 584.465ZM417.62 578V581.035H419.835V578H417.62ZM415.853 594.859V596.626H428.948V594.859H415.853ZM415.853 591.138V595.607H418.089V591.138H415.853Z" fill="white"/>
<path d="M435.185 578.852V580.619H447.62V578.852H435.185ZM432.992 585.546V587.313H450.622V585.546H432.992ZM440.657 586.772V591.013H442.872V586.772H440.657ZM446.236 578.852V580.307C446.236 581.867 446.236 583.654 445.618 586.149L447.79 586.377C448.429 583.821 448.429 581.908 448.429 580.307V578.852H446.236ZM434.802 590.41V592.156H446.279V597H448.514V590.41H434.802Z" fill="white"/>
<path d="M453.963 579.123V580.869H462.438V579.123H453.963ZM456.668 583.301V587.895H458.861V583.301H456.668ZM461.544 579.123V580.245C461.544 581.451 461.544 583.01 461.096 585.13L463.268 585.317C463.758 583.155 463.758 581.451 463.758 580.245V579.123H461.544ZM466.058 578V589.724H468.315V578H466.058ZM467.356 582.947V584.756H470.891V582.947H467.356ZM453.027 588.664C456.497 588.664 461.011 588.581 465.014 587.916L464.865 586.357C460.969 586.856 456.306 586.897 452.792 586.897L453.027 588.664ZM461.906 589.953C457.839 589.953 455.326 591.263 455.326 593.445C455.326 595.67 457.839 596.958 461.906 596.958C465.972 596.958 468.485 595.67 468.485 593.445C468.485 591.263 465.972 589.953 461.906 589.953ZM461.906 591.637C464.631 591.637 466.207 592.281 466.207 593.445C466.207 594.63 464.631 595.254 461.906 595.254C459.18 595.254 457.583 594.63 457.583 593.445C457.583 592.281 459.18 591.637 461.906 591.637Z" fill="white"/>
<path d="M472.976 581.077V582.823H482.472V581.077H472.976ZM477.746 583.904C475.318 583.904 473.53 585.733 473.53 588.332C473.53 590.93 475.318 592.739 477.746 592.739C480.194 592.739 481.961 590.93 481.961 588.332C481.961 585.733 480.194 583.904 477.746 583.904ZM477.746 585.733C479.044 585.733 479.981 586.772 479.981 588.332C479.981 589.911 479.044 590.909 477.746 590.909C476.447 590.909 475.51 589.911 475.51 588.332C475.51 586.772 476.447 585.733 477.746 585.733ZM487.455 578V597H489.584V578H487.455ZM484.687 585.879V587.646H488.158V585.879H484.687ZM483.324 578.395V596.127H485.411V578.395H483.324ZM476.66 578.54V582.158H478.853V578.54H476.66Z" fill="white"/>
<path d="M493.99 579.123V580.869H502.464V579.123H493.99ZM496.694 583.301V587.895H498.887V583.301H496.694ZM501.57 579.123V580.245C501.57 581.451 501.57 583.01 501.123 585.13L503.295 585.317C503.785 583.155 503.785 581.451 503.785 580.245V579.123H501.57ZM506.084 578V589.724H508.341V578H506.084ZM507.383 582.947V584.756H510.918V582.947H507.383ZM493.053 588.664C496.524 588.664 501.038 588.581 505.041 587.916L504.892 586.357C500.995 586.856 496.332 586.897 492.819 586.897L493.053 588.664ZM501.932 589.953C497.865 589.953 495.353 591.263 495.353 593.445C495.353 595.67 497.865 596.958 501.932 596.958C505.999 596.958 508.512 595.67 508.512 593.445C508.512 591.263 505.999 589.953 501.932 589.953ZM501.932 591.637C504.658 591.637 506.233 592.281 506.233 593.445C506.233 594.63 504.658 595.254 501.932 595.254C499.207 595.254 497.61 594.63 497.61 593.445C497.61 592.281 499.207 591.637 501.932 591.637Z" fill="white"/>
<path d="M522.84 582.386V584.153H527.907V582.386H522.84ZM518.368 578.832C515.451 578.832 513.301 580.682 513.301 583.301C513.301 585.92 515.451 587.749 518.368 587.749C521.285 587.749 523.436 585.92 523.436 583.301C523.436 580.682 521.285 578.832 518.368 578.832ZM518.368 580.661C520.072 580.661 521.285 581.7 521.285 583.301C521.285 584.881 520.072 585.941 518.368 585.941C516.665 585.941 515.43 584.881 515.43 583.301C515.43 581.7 516.665 580.661 518.368 580.661ZM526.928 578V588.207H529.164V578H526.928ZM516.495 589.101V596.771H529.164V589.101H526.949V591.221H518.709V589.101H516.495ZM518.709 592.926H526.949V595.025H518.709V592.926Z" fill="white"/>
<path d="M541.746 589.911C537.594 589.911 534.932 591.242 534.932 593.466C534.932 595.649 537.594 596.979 541.746 596.979C545.919 596.979 548.581 595.649 548.581 593.466C548.581 591.242 545.919 589.911 541.746 589.911ZM541.746 591.574C544.62 591.574 546.366 592.26 546.366 593.466C546.366 594.63 544.62 595.316 541.746 595.316C538.893 595.316 537.147 594.63 537.147 593.466C537.147 592.26 538.893 591.574 541.746 591.574ZM535.103 578.915V580.64H547.537V578.915H535.103ZM533.08 586.689V588.415H550.603V586.689H533.08ZM539.957 583.176V587.147H542.172V583.176H539.957ZM546.238 578.915V580.495C546.238 581.97 546.238 583.363 545.706 585.317L547.921 585.546C548.453 583.592 548.453 582.012 548.453 580.495V578.915H546.238Z" fill="white"/>
<path d="M566.018 578V591.741H568.253V578H566.018ZM567.593 583.426V585.234H571V583.426H567.593ZM553.881 586.731V588.498H555.435C559.63 588.498 561.887 588.394 564.442 587.853L564.208 586.107C561.716 586.627 559.545 586.731 555.435 586.731H553.881ZM553.881 579.58V587.666H556.095V581.347H562.526V579.58H553.881ZM555.946 594.859V596.626H569.041V594.859H555.946ZM555.946 590.327V595.711H558.182V590.327H555.946Z" fill="white"/>
<path d="M701.574 620.993L691.707 636L681.84 620.993L691.707 606L701.574 620.993Z" fill="white" fill-opacity="0.3"/>
<path d="M701.574 620.993L711.427 636L721.294 620.993L711.427 606L701.574 620.993Z" fill="white" fill-opacity="0.3"/>
<path d="M691.708 606L701.574 620.993L711.427 606L701.574 590.993L691.708 606Z" fill="white" fill-opacity="0.3"/>
<path d="M681.841 620.993L671.974 636H691.708L681.841 620.993Z" fill="white" fill-opacity="0.3"/>
<path d="M721.294 620.993L711.427 636H731.161L721.294 620.993Z" fill="white" fill-opacity="0.3"/>
<path d="M701.574 620.993L691.707 636L681.84 620.993L691.707 606L701.574 620.993Z" fill="white" fill-opacity="0.2"/>
<path d="M701.574 620.993L711.427 636L721.294 620.993L711.427 606L701.574 620.993Z" fill="white" fill-opacity="0.2"/>
<path d="M691.708 606L701.574 620.993L711.427 606L701.574 590.993L691.708 606Z" fill="white" fill-opacity="0.1"/>
<path d="M681.841 620.993L671.974 636H691.708L681.841 620.993Z" fill="white" fill-opacity="0.3"/>
<path d="M721.294 620.993L711.427 636H731.161L721.294 620.993Z" fill="white" fill-opacity="0.3"/>
<path d="M731.161 590.993L721.294 576L711.441 590.993H731.161Z" fill="white" fill-opacity="0.1"/>
<path d="M711.441 591.007L721.294 606L731.161 591.007H711.441Z" fill="white" fill-opacity="0.2"/>
<path d="M768.935 619.325C762.25 620.365 754.63 620.545 748.842 620.545L748.519 618.101C750.566 618.101 752.939 618.101 755.348 618.03V611.668H758.259V617.958C761.781 617.814 765.412 617.561 768.719 617.167L768.935 619.325ZM762.753 614.903C763.508 611.488 763.579 608.972 763.579 607.032H750.495V604.659H766.454V606.384C766.454 608.433 766.454 611.346 765.626 615.155L762.753 614.903ZM774.148 628.956C774.148 632.694 770.05 634.816 763.437 634.816C756.824 634.816 752.726 632.694 752.726 628.956C752.726 625.29 756.822 623.169 763.437 623.169C770.05 623.169 774.148 625.29 774.148 628.956ZM771.164 628.956C771.164 626.762 768.217 625.47 763.435 625.47C758.654 625.47 755.708 626.762 755.708 628.956C755.708 631.184 758.655 632.478 763.435 632.478C768.215 632.478 771.164 631.184 771.164 628.956ZM778.39 611.45V613.896H773.824V622.738H770.875V602.61H773.824V611.452H778.39V611.45Z" fill="white" stroke="white" stroke-width="0.5" stroke-miterlimit="10"/>
<path d="M808.367 602.682V619.97H805.383V612.745H798.841C798.267 616.556 795.032 619.074 790.61 619.074C785.794 619.074 782.307 616.054 782.307 611.597C782.307 607.175 785.794 604.157 790.61 604.157C794.959 604.157 798.194 606.601 798.805 610.339H805.383V602.682H808.367ZM796.11 611.596C796.11 608.65 793.81 606.599 790.612 606.599C787.412 606.599 785.112 608.65 785.112 611.596C785.112 614.543 787.412 616.628 790.612 616.628C793.81 616.628 796.11 614.543 796.11 611.596ZM805.42 621.516H808.367V634.455H787.736V621.516H790.648V625.614H805.42V621.516ZM805.42 627.914H790.648V632.083H805.42V627.914Z" fill="white" stroke="white" stroke-width="0.5" stroke-miterlimit="10"/>
<path d="M832.413 621.445C828.82 620.15 826.051 617.454 824.651 614.148C823.249 617.814 820.301 620.798 816.527 622.163L814.981 619.861C819.762 618.136 823.105 613.858 823.105 609.295V607.679H815.916V605.27H833.133V607.679H826.053V609.261C826.053 613.465 829.216 617.49 833.887 619.145L832.413 621.445ZM842.332 631.761V634.167H820.802V624.211H823.786V631.76H842.332V631.761ZM838.451 611.559V602.682H841.435V626.298H838.451V613.968H831.98V611.559H838.451Z" fill="white" stroke="white" stroke-width="0.5" stroke-miterlimit="10"/>
<path d="M877.163 619.143V621.516H864.223V628.02H861.276V621.516H847.871V619.143H877.163ZM854.554 631.761H873.894V634.167H851.608V624.967H854.554V631.761V631.761ZM873.352 615.477H851.679V604.155H873.352V615.477V615.477ZM870.443 606.528H854.554V613.105H870.443V606.528Z" fill="white" stroke="white" stroke-width="0.5" stroke-miterlimit="10"/>
<path d="M910.159 627.95V630.358H881.009V627.95H888.162V617.276H891.071V627.95H896.142V617.276H899.053V627.95H910.159ZM903.798 608.288H884.029V605.881H906.746V609.441C906.746 613.537 906.746 617.744 905.596 623.783L902.682 623.421C903.798 617.67 903.798 613.43 903.798 609.441V608.288V608.288Z" fill="white" stroke="white" stroke-width="0.5" stroke-miterlimit="10"/>
<path d="M935.536 620.545V624.645H939.632V634.923H936.685V627.017H917.312V624.645H921.768V620.545H914.078V618.174H943.228V620.545H935.536ZM917.312 609.584C917.312 605.702 921.699 603.402 928.637 603.402C935.61 603.402 939.959 605.702 939.959 609.584C939.959 613.465 935.61 615.732 928.637 615.732C921.699 615.73 917.312 613.465 917.312 609.584ZM920.332 609.584C920.332 611.99 923.532 613.43 928.637 613.43C933.739 613.43 936.939 611.992 936.939 609.584C936.939 607.175 933.741 605.737 928.637 605.737C923.532 605.737 920.332 607.174 920.332 609.584ZM932.587 620.545H924.719V624.645H932.587V620.545Z" fill="white" stroke="white" stroke-width="0.5" stroke-miterlimit="10"/>
<path d="M976.368 628.454V630.861H947.147V628.454H960.193V621.052H949.805V618.677H954.732V608.11H949.734V605.739H973.637V608.11H968.642V618.677H973.564V621.052H963.18V628.454H976.368ZM957.68 618.677H965.693V608.11H957.68V618.677Z" fill="white" stroke="white" stroke-width="0.5" stroke-miterlimit="10"/>
<path d="M998.292 617.958C993.981 618.676 990.457 618.783 984.239 618.783H981.83V604.657H996.352V606.994H984.779V610.443H995.525V612.672H984.779V616.41C990.602 616.41 993.981 616.303 998.077 615.62L998.292 617.958ZM1007.96 632.229V634.529H986.034V626.8H1003.83V623.816H985.961V621.516H1006.74V628.991H988.946V632.227H1007.96V632.229ZM1003.79 612.423H997.755V610.05H1003.79V602.646H1006.74V620.045H1003.79V612.423Z" fill="white" stroke="white" stroke-width="0.5" stroke-miterlimit="10"/>
<path d="M761.925 578.021V592.24H764.16V578.021H761.925ZM763.5 584.049V585.858H766.907V584.049H763.5ZM749 580.183V581.908H760.455V580.183H749ZM754.728 582.781C751.938 582.781 750.001 584.236 750.001 586.377C750.001 588.539 751.938 589.974 754.728 589.974C757.496 589.974 759.433 588.539 759.433 586.377C759.433 584.236 757.496 582.781 754.728 582.781ZM754.728 584.465C756.261 584.465 757.304 585.193 757.304 586.377C757.304 587.583 756.261 588.29 754.728 588.29C753.195 588.29 752.151 587.583 752.151 586.377C752.151 585.193 753.195 584.465 754.728 584.465ZM753.62 578V581.035H755.835V578H753.62ZM751.853 594.859V596.626H764.948V594.859H751.853ZM751.853 591.138V595.607H754.089V591.138H751.853Z" fill="white"/>
<path d="M771.185 578.852V580.619H783.62V578.852H771.185ZM768.992 585.546V587.313H786.622V585.546H768.992ZM776.657 586.772V591.013H778.872V586.772H776.657ZM782.236 578.852V580.307C782.236 581.867 782.236 583.654 781.618 586.149L783.79 586.377C784.429 583.821 784.429 581.908 784.429 580.307V578.852H782.236ZM770.802 590.41V592.156H782.279V597H784.514V590.41H770.802Z" fill="white"/>
<path d="M789.963 579.123V580.869H798.438V579.123H789.963ZM792.668 583.301V587.895H794.861V583.301H792.668ZM797.544 579.123V580.245C797.544 581.451 797.544 583.01 797.096 585.13L799.268 585.317C799.758 583.155 799.758 581.451 799.758 580.245V579.123H797.544ZM802.058 578V589.724H804.315V578H802.058ZM803.356 582.947V584.756H806.891V582.947H803.356ZM789.027 588.664C792.497 588.664 797.011 588.581 801.014 587.916L800.865 586.357C796.969 586.856 792.306 586.897 788.792 586.897L789.027 588.664ZM797.906 589.953C793.839 589.953 791.326 591.263 791.326 593.445C791.326 595.67 793.839 596.958 797.906 596.958C801.972 596.958 804.485 595.67 804.485 593.445C804.485 591.263 801.972 589.953 797.906 589.953ZM797.906 591.637C800.631 591.637 802.207 592.281 802.207 593.445C802.207 594.63 800.631 595.254 797.906 595.254C795.18 595.254 793.583 594.63 793.583 593.445C793.583 592.281 795.18 591.637 797.906 591.637Z" fill="white"/>
<path d="M808.976 581.077V582.823H818.472V581.077H808.976ZM813.746 583.904C811.318 583.904 809.53 585.733 809.53 588.332C809.53 590.93 811.318 592.739 813.746 592.739C816.194 592.739 817.961 590.93 817.961 588.332C817.961 585.733 816.194 583.904 813.746 583.904ZM813.746 585.733C815.044 585.733 815.981 586.772 815.981 588.332C815.981 589.911 815.044 590.909 813.746 590.909C812.447 590.909 811.51 589.911 811.51 588.332C811.51 586.772 812.447 585.733 813.746 585.733ZM823.455 578V597H825.584V578H823.455ZM820.687 585.879V587.646H824.158V585.879H820.687ZM819.324 578.395V596.127H821.411V578.395H819.324ZM812.66 578.54V582.158H814.853V578.54H812.66Z" fill="white"/>
<path d="M829.99 579.123V580.869H838.464V579.123H829.99ZM832.694 583.301V587.895H834.887V583.301H832.694ZM837.57 579.123V580.245C837.57 581.451 837.57 583.01 837.123 585.13L839.295 585.317C839.785 583.155 839.785 581.451 839.785 580.245V579.123H837.57ZM842.084 578V589.724H844.341V578H842.084ZM843.383 582.947V584.756H846.918V582.947H843.383ZM829.053 588.664C832.524 588.664 837.038 588.581 841.041 587.916L840.892 586.357C836.995 586.856 832.332 586.897 828.819 586.897L829.053 588.664ZM837.932 589.953C833.865 589.953 831.353 591.263 831.353 593.445C831.353 595.67 833.865 596.958 837.932 596.958C841.999 596.958 844.512 595.67 844.512 593.445C844.512 591.263 841.999 589.953 837.932 589.953ZM837.932 591.637C840.658 591.637 842.233 592.281 842.233 593.445C842.233 594.63 840.658 595.254 837.932 595.254C835.207 595.254 833.61 594.63 833.61 593.445C833.61 592.281 835.207 591.637 837.932 591.637Z" fill="white"/>
<path d="M858.84 582.386V584.153H863.907V582.386H858.84ZM854.368 578.832C851.451 578.832 849.301 580.682 849.301 583.301C849.301 585.92 851.451 587.749 854.368 587.749C857.285 587.749 859.436 585.92 859.436 583.301C859.436 580.682 857.285 578.832 854.368 578.832ZM854.368 580.661C856.072 580.661 857.285 581.7 857.285 583.301C857.285 584.881 856.072 585.941 854.368 585.941C852.665 585.941 851.43 584.881 851.43 583.301C851.43 581.7 852.665 580.661 854.368 580.661ZM862.928 578V588.207H865.164V578H862.928ZM852.495 589.101V596.771H865.164V589.101H862.949V591.221H854.709V589.101H852.495ZM854.709 592.926H862.949V595.025H854.709V592.926Z" fill="white"/>
<path d="M877.746 589.911C873.594 589.911 870.932 591.242 870.932 593.466C870.932 595.649 873.594 596.979 877.746 596.979C881.919 596.979 884.581 595.649 884.581 593.466C884.581 591.242 881.919 589.911 877.746 589.911ZM877.746 591.574C880.62 591.574 882.366 592.26 882.366 593.466C882.366 594.63 880.62 595.316 877.746 595.316C874.893 595.316 873.147 594.63 873.147 593.466C873.147 592.26 874.893 591.574 877.746 591.574ZM871.103 578.915V580.64H883.537V578.915H871.103ZM869.08 586.689V588.415H886.603V586.689H869.08ZM875.957 583.176V587.147H878.172V583.176H875.957ZM882.238 578.915V580.495C882.238 581.97 882.238 583.363 881.706 585.317L883.921 585.546C884.453 583.592 884.453 582.012 884.453 580.495V578.915H882.238Z" fill="white"/>
<path d="M902.018 578V591.741H904.253V578H902.018ZM903.593 583.426V585.234H907V583.426H903.593ZM889.881 586.731V588.498H891.435C895.63 588.498 897.887 588.394 900.442 587.853L900.208 586.107C897.716 586.627 895.545 586.731 891.435 586.731H889.881ZM889.881 579.58V587.666H892.095V581.347H898.526V579.58H889.881ZM891.946 594.859V596.626H905.041V594.859H891.946ZM891.946 590.327V595.711H894.182V590.327H891.946Z" fill="white"/>
<defs>
<clipPath id="clip0_1347_860">
<rect width="20" height="20" fill="white" transform="translate(2 506)"/>
</clipPath>
<clipPath id="clip1_1347_860">
<rect width="20" height="20" fill="white" transform="translate(2 530)"/>
</clipPath>
</defs>
</svg>
