<svg width="48" height="48" viewBox="0 0 48 48" fill="none" xmlns="http://www.w3.org/2000/svg">
<path d="M47.578 39.6189L39.3749 31.4155L43.3685 27.45C43.706 27.1125 43.8468 26.6062 43.7342 26.128C43.6218 25.65 43.2843 25.2843 42.806 25.1155L18.9561 17.1562C18.4499 16.9874 17.8874 17.128 17.5218 17.5218C17.1281 17.8874 16.9874 18.45 17.1561 18.9562L25.1155 42.8062C25.2843 43.2844 25.6499 43.6219 26.128 43.7344C26.6062 43.8468 27.1125 43.7063 27.45 43.3688L31.4154 39.375L39.6185 47.5782C40.181 48.1407 41.0811 48.1407 41.6155 47.5782L47.578 41.6156C48.1405 41.0813 48.1405 40.1814 47.578 39.6189Z" fill="#DEECF1"/>
<path d="M18.2812 11.25C17.504 11.25 16.875 10.621 16.875 9.84375V1.40625C16.875 0.628969 17.504 0 18.2812 0C19.0585 0 19.6875 0.628969 19.6875 1.40625V9.84375C19.6875 10.621 19.0585 11.25 18.2812 11.25Z" fill="#FFDA2D"/>
<path d="M13.3029 13.3026C12.7686 13.8651 11.8686 13.8651 11.3343 13.3026L5.34365 7.34013C4.80928 6.80576 4.80928 5.90576 5.34365 5.34316C5.90606 4.80879 6.80606 4.80879 7.34044 5.34316L13.3029 11.3338C13.8655 11.8683 13.8655 12.7683 13.3029 13.3026Z" fill="#FDBF00"/>
<path d="M5.35434 31.2082C4.80506 30.6589 4.80506 29.769 5.35434 29.2197L11.3213 23.2528C11.8705 22.7035 12.7605 22.7035 13.3098 23.2528C13.8591 23.8021 13.8591 24.692 13.3098 25.2413L7.34288 31.2082C6.79359 31.7575 5.90372 31.7575 5.35434 31.2082Z" fill="#FDBF00"/>
<path d="M23.2525 13.3098C22.7033 12.7605 22.7033 11.8705 23.2525 11.3212L29.2194 5.35434C29.7687 4.80506 30.6587 4.80506 31.208 5.35434C31.7573 5.90362 31.7573 6.79359 31.208 7.34287L25.2411 13.3098C24.6918 13.8591 23.8019 13.8591 23.2525 13.3098Z" fill="#FFDA2D"/>
<path d="M9.84375 19.6875H1.40625C0.628969 19.6875 0 19.0585 0 18.2812C0 17.504 0.628969 16.875 1.40625 16.875H9.84375C10.621 16.875 11.25 17.504 11.25 18.2812C11.25 19.0585 10.621 19.6875 9.84375 19.6875Z" fill="#FDBF00"/>
<path d="M5.34365 5.34375L13.3029 13.3032C12.7686 13.8657 11.8686 13.8657 11.3343 13.3032L5.34365 7.34072C4.80928 6.80625 4.80928 5.90625 5.34365 5.34375Z" fill="#FDBF00"/>
<path d="M44.5968 44.5965L41.6156 47.5777C41.0812 48.1402 40.1812 48.1402 39.6186 47.5777L31.4155 39.3746L27.45 43.3683C27.1125 43.7058 26.6062 43.8463 26.128 43.7339C25.65 43.6215 25.2842 43.284 25.1155 42.8057L17.1561 18.9559C16.9874 18.4496 17.1282 17.8871 17.5218 17.5215L44.5968 44.5965Z" fill="#C5D3DD"/>
</svg>
