<svg width="48" height="48" viewBox="0 0 48 48" fill="none" xmlns="http://www.w3.org/2000/svg">
<path d="M36.75 7.125V11.3438L33.9375 14.1562H2.8125L0 11.3438V7.125C0 4.79053 1.88428 2.8125 4.21875 2.8125H32.5312C34.8657 2.8125 36.75 4.79053 36.75 7.125Z" fill="#4D5A68"/>
<path d="M36.75 7.125V11.3438L33.9375 14.1562H18.375V2.8125H32.5312C34.8657 2.8125 36.75 4.79053 36.75 7.125Z" fill="#304653"/>
<path d="M36.75 11.3438V43.6875C36.75 46.0218 34.8657 48 32.5312 48H4.21875C1.88428 48 0 46.0218 0 43.6875V11.3438H36.75Z" fill="#FFCA42"/>
<path d="M36.75 11.3438V43.6875C36.75 46.0218 34.8657 48 32.5312 48H18.375V11.3438H36.75Z" fill="#FFAF3E"/>
<path d="M7.03125 8.53125C6.25397 8.53125 5.625 7.90228 5.625 7.125V1.40625C5.625 0.628969 6.25397 0 7.03125 0C7.80853 0 8.4375 0.628969 8.4375 1.40625V7.125C8.4375 7.90228 7.80853 8.53125 7.03125 8.53125Z" fill="#CAD4E4"/>
<path d="M12.75 8.53125C11.9727 8.53125 11.3438 7.90228 11.3438 7.125V1.40625C11.3438 0.628969 11.9727 0 12.75 0C13.5273 0 14.1562 0.628969 14.1562 1.40625V7.125C14.1562 7.90228 13.5273 8.53125 12.75 8.53125Z" fill="#CAD4E4"/>
<path d="M19.7812 1.40625V7.125C19.7812 7.91241 19.1626 8.53125 18.375 8.53125C17.5874 8.53125 16.9688 7.91241 16.9688 7.125V1.40625C16.9688 0.618656 17.5874 0 18.375 0C19.1626 0 19.7812 0.618656 19.7812 1.40625Z" fill="#CAD4E4"/>
<path d="M24.0938 8.53125C23.3165 8.53125 22.6875 7.90228 22.6875 7.125V1.40625C22.6875 0.628969 23.3165 0 24.0938 0C24.871 0 25.5 0.628969 25.5 1.40625V7.125C25.5 7.90228 24.871 8.53125 24.0938 8.53125Z" fill="#ADB5CC"/>
<path d="M29.7188 8.53125C28.9415 8.53125 28.3125 7.90228 28.3125 7.125V1.40625C28.3125 0.628969 28.9415 0 29.7188 0C30.496 0 31.125 0.628969 31.125 1.40625V7.125C31.125 7.90228 30.496 8.53125 29.7188 8.53125Z" fill="#ADB5CC"/>
<path d="M19.7812 38.0625C19.7812 38.8499 19.1626 39.4688 18.375 39.4688H7.03125C6.24366 39.4688 5.625 38.8499 5.625 38.0625C5.625 37.2749 6.24366 36.6562 7.03125 36.6562H18.375C19.1626 36.6562 19.7812 37.2749 19.7812 38.0625Z" fill="#DD864D"/>
<path d="M15.5625 31.0312H7.03125C6.25397 31.0312 5.625 30.4023 5.625 29.625C5.625 28.8477 6.25397 28.2188 7.03125 28.2188H15.5625C16.3398 28.2188 16.9688 28.8477 16.9688 29.625C16.9688 30.4023 16.3398 31.0312 15.5625 31.0312Z" fill="#DD864D"/>
<path d="M12.75 22.5938H7.03125C6.25397 22.5938 5.625 21.9648 5.625 21.1875C5.625 20.4102 6.25397 19.7812 7.03125 19.7812H12.75C13.5273 19.7812 14.1562 20.4102 14.1562 21.1875C14.1562 21.9648 13.5273 22.5938 12.75 22.5938Z" fill="#DD864D"/>
<path d="M38.4314 30.3898C38.9065 22.4569 44.4356 17.9269 44.7589 17.472C45.3941 16.816 45.2419 15.7338 44.4502 15.2766L42.6984 14.2652C42.0252 13.8765 41.795 13.0174 42.1837 12.3442C42.5724 11.6711 43.4315 11.4409 44.1046 11.8295L45.8564 12.841C48.2321 14.2126 48.689 17.4521 46.7796 19.4268C46.3246 20.0615 41.6571 23.5574 41.2391 30.5584C41.1925 31.3339 40.5265 31.9245 39.751 31.878C38.9689 31.8289 38.3861 31.1598 38.4314 30.3898Z" fill="#304653"/>
<path d="M47.4324 8.87956L45.323 12.5331L41.676 13.6751L38.8504 12.0437L38.0159 8.31425L40.1252 4.66072C41.2924 2.63909 43.8665 1.94937 45.8882 3.11656C47.9098 4.28375 48.5996 6.85794 47.4324 8.87956Z" fill="#4D5A68"/>
<path d="M41.6759 13.6746L40.2632 12.859L45.8882 3.11621C47.9098 4.2834 48.5995 6.85749 47.4323 8.87912L45.323 12.5326L41.6759 13.6746Z" fill="#304653"/>
<path d="M32.1134 35.6939L24.5627 31.3345C24.9614 27.2129 26.4542 23.3333 29.0189 20.0725C29.4538 19.5442 37.0144 9.8797 37.3689 9.43477L38.0157 8.31445L45.3227 12.5332L44.6899 13.6293C44.6477 13.7024 39.8147 25.786 39.6384 26.2037C38.0969 30.0553 35.4834 33.2879 32.1134 35.6939Z" fill="#E05C32"/>
<path d="M32.1134 35.6939L28.3381 33.5142L41.6694 10.4238L45.3229 12.5332L44.6901 13.6293C44.6479 13.7024 39.8148 25.786 39.6386 26.2037C38.0969 30.0553 35.4835 33.2879 32.1134 35.6939Z" fill="#C04C27"/>
<path d="M29.8851 30.8352C28.3749 29.9634 26.5573 30.018 25.0877 30.9882L24.5629 31.3348C24.5477 31.5859 24.4839 31.809 24.4689 32.06L24.111 38.0239L22.8735 40.1673C22.4798 40.8492 22.7062 41.6945 23.3882 42.0882C24.0702 42.482 24.9155 42.2554 25.3091 41.5736L26.5466 39.4301L31.5324 36.1382C31.7422 35.9996 31.9035 35.833 32.1134 35.6943L32.1512 35.0665C32.2567 33.3086 31.3952 31.7071 29.8851 30.8352Z" fill="#CAD4E4"/>
<path d="M29.8851 30.835L26.2007 37.2164L23.3882 42.0879C24.0702 42.4816 24.9155 42.255 25.3091 41.5732L26.5466 39.4298L31.5324 36.1378C31.7423 35.9993 31.9035 35.8326 32.1134 35.6939L32.1512 35.0662C32.2567 33.3084 31.3952 31.7068 29.8851 30.835Z" fill="#ADB5CC"/>
<path d="M18.375 8.53125V0C19.1626 0 19.7812 0.618656 19.7812 1.40625V7.125C19.7812 7.91241 19.1626 8.53125 18.375 8.53125Z" fill="#ADB5CC"/>
<path d="M19.7812 38.0625C19.7812 38.8499 19.1626 39.4688 18.375 39.4688V36.6562C19.1626 36.6562 19.7812 37.2749 19.7812 38.0625Z" fill="#D36836"/>
</svg>
