<svg width="58" height="58" viewBox="0 0 58 58" fill="none" xmlns="http://www.w3.org/2000/svg">
<mask id="path-1-inside-1" fill="white">
<path fill-rule="evenodd" clip-rule="evenodd" d="M16.6417 37.7714L28.8209 19L41 37.7714L16.6417 37.7714ZM24.4964 37.7712L28.8209 31.1059L33.1455 37.7712L24.4964 37.7712Z"/>
</mask>
<path d="M28.8209 19L27.982 18.4557L28.8209 17.1627L29.6598 18.4557L28.8209 19ZM16.6417 37.7714L16.6417 38.7714L14.8009 38.7714L15.8028 37.2271L16.6417 37.7714ZM41 37.7714L41.8389 37.2271L42.8409 38.7714L41 38.7714L41 37.7714ZM28.8209 31.1059L27.982 30.5616L28.8209 29.2687L29.6598 30.5616L28.8209 31.1059ZM24.4964 37.7712L24.4964 38.7712L22.6555 38.7712L23.6575 37.227L24.4964 37.7712ZM33.1455 37.7712L33.9844 37.227L34.9863 38.7712L33.1455 38.7712L33.1455 37.7712ZM29.6598 19.5443L17.4806 38.3157L15.8028 37.2271L27.982 18.4557L29.6598 19.5443ZM40.1611 38.3157L27.982 19.5443L29.6598 18.4557L41.8389 37.2271L40.1611 38.3157ZM16.6417 36.7714L41 36.7714L41 38.7714L16.6417 38.7714L16.6417 36.7714ZM29.6598 31.6502L25.3353 38.3155L23.6575 37.227L27.982 30.5616L29.6598 31.6502ZM32.3066 38.3155L27.982 31.6502L29.6598 30.5616L33.9844 37.227L32.3066 38.3155ZM24.4964 36.7712L33.1455 36.7712L33.1455 38.7712L24.4964 38.7712L24.4964 36.7712Z" fill="white" mask="url(#path-1-inside-1)"/>
</svg>
