<svg width="40" height="40" viewBox="0 0 40 40" fill="none" xmlns="http://www.w3.org/2000/svg">
<path d="M21.0757 24.7716L15.9657 21.9846C15.4752 22.4715 14.8515 22.8023 14.1733 22.9352C13.4951 23.0682 12.7927 22.9974 12.1546 22.7317C11.5166 22.466 10.9715 22.0174 10.5881 21.4424C10.2046 20.8674 10 20.1917 10 19.5006C10 18.8095 10.2046 18.1338 10.5881 17.5588C10.9715 16.9838 11.5166 16.5352 12.1546 16.2695C12.7927 16.0038 13.4951 15.933 14.1733 16.066C14.8515 16.1989 15.4752 16.5297 15.9657 17.0166L21.0757 14.2296C20.9005 13.4073 21.027 12.5495 21.4323 11.8129C21.8376 11.0762 22.4945 10.5101 23.2828 10.218C24.0712 9.92593 24.9383 9.92737 25.7257 10.2221C26.5131 10.5168 27.1681 11.0851 27.5709 11.823C27.9737 12.561 28.0975 13.4193 27.9195 14.241C27.7415 15.0626 27.2737 15.7928 26.6016 16.2979C25.9295 16.803 25.0981 17.0493 24.2593 16.9918C23.4206 16.9343 22.6305 16.5767 22.0337 15.9846L16.9237 18.7716C17.0256 19.2523 17.0256 19.7489 16.9237 20.2296L22.0337 23.0166C22.6305 22.4245 23.4206 22.0669 24.2593 22.0094C25.0981 21.9519 25.9295 22.1982 26.6016 22.7033C27.2737 23.2084 27.7415 23.9386 27.9195 24.7602C28.0975 25.5819 27.9737 26.4402 27.5709 27.1782C27.1681 27.9161 26.5131 28.4844 25.7257 28.7791C24.9383 29.0738 24.0712 29.0753 23.2828 28.7832C22.4945 28.4911 21.8376 27.925 21.4323 27.1883C21.027 26.4517 20.9005 25.5939 21.0757 24.7716V24.7716Z" fill="#82888F"/>
</svg>
