<svg width="16" height="16" viewBox="0 0 16 16" fill="none" xmlns="http://www.w3.org/2000/svg">
<path d="M12.667 2H6.00033C5.26395 2 4.66699 2.59695 4.66699 3.33333V10C4.66699 10.7364 5.26395 11.3333 6.00033 11.3333H12.667C13.4034 11.3333 14.0003 10.7364 14.0003 10V3.33333C14.0003 2.59695 13.4034 2 12.667 2Z" stroke="#888888" stroke-linecap="round" stroke-linejoin="round"/>
<path d="M11.3333 11.3327V12.666C11.3333 13.0196 11.1929 13.3588 10.9428 13.6088C10.6928 13.8589 10.3536 13.9993 10 13.9993H3.33333C2.97971 13.9993 2.64057 13.8589 2.39052 13.6088C2.14048 13.3588 2 13.0196 2 12.666V5.99935C2 5.64573 2.14048 5.30659 2.39052 5.05654C2.64057 4.80649 2.97971 4.66602 3.33333 4.66602H4.66667" stroke="#888888" stroke-linecap="round" stroke-linejoin="round"/>
</svg>
