<?xml version="1.0" encoding="utf-8"?>
<!-- Generator: Adobe Illustrator 16.0.0, SVG Export Plug-In . SVG Version: 6.00 Build 0)  -->
<!DOCTYPE svg PUBLIC "-//W3C//DTD SVG 1.1//EN" "http://www.w3.org/Graphics/SVG/1.1/DTD/svg11.dtd">
<svg version="1.1" id="Layer_1" xmlns="http://www.w3.org/2000/svg" xmlns:xlink="http://www.w3.org/1999/xlink" x="0px" y="0px"
	 width="241.5px" height="64.5px" viewBox="0 0 241.5 64.5" enable-background="new 0 0 241.5 64.5" xml:space="preserve">
<path fill="#111820" d="M122.4,41.932c0,0.578-0.042,1.221-0.126,1.928c-0.083,0.705-0.209,1.455-0.375,2.244l2.211,0.273
	c0.075-0.335,0.147-0.699,0.216-1.094s0.125-0.805,0.171-1.23s0.08-0.848,0.104-1.266c0.022-0.418,0.034-0.809,0.034-1.174v-2.529
	h-10.326v1.938h8.092V41.932z"/>
<path fill="#111820" d="M127.86,52.451c-0.57-0.326-1.259-0.584-2.064-0.775c-0.805-0.189-1.709-0.283-2.711-0.283
	c-1.004,0-1.912,0.094-2.724,0.283c-0.813,0.191-1.506,0.449-2.074,0.775c-0.57,0.327-1.008,0.723-1.313,1.186
	c-0.303,0.463-0.455,0.969-0.455,1.515v0.729c0,0.547,0.152,1.053,0.455,1.517c0.305,0.463,0.742,0.858,1.313,1.185
	c0.568,0.327,1.261,0.586,2.074,0.776c0.812,0.188,1.72,0.284,2.724,0.284c1.002,0,1.906-0.096,2.711-0.284
	c0.806-0.19,1.494-0.449,2.064-0.776c0.568-0.326,1.009-0.722,1.32-1.185c0.313-0.464,0.468-0.97,0.468-1.517v-0.729
	c0-0.546-0.155-1.052-0.468-1.515C128.869,53.174,128.429,52.778,127.86,52.451 M127.438,55.744c0,0.229-0.096,0.469-0.284,0.719
	c-0.191,0.252-0.473,0.479-0.843,0.684c-0.375,0.205-0.829,0.373-1.368,0.502c-0.54,0.129-1.16,0.193-1.857,0.193
	c-0.701,0-1.32-0.064-1.859-0.193c-0.538-0.129-0.995-0.297-1.366-0.502c-0.373-0.205-0.654-0.432-0.845-0.684
	c-0.188-0.25-0.283-0.49-0.283-0.719v-0.456c0-0.227,0.095-0.467,0.283-0.717c0.19-0.251,0.472-0.479,0.845-0.685
	c0.371-0.205,0.828-0.371,1.366-0.5c0.539-0.129,1.158-0.195,1.859-0.195c0.697,0,1.317,0.066,1.857,0.195
	c0.539,0.129,0.993,0.295,1.368,0.5c0.37,0.205,0.651,0.434,0.843,0.685c0.188,0.25,0.284,0.49,0.284,0.717V55.744z"/>
<polygon fill="#111820" points="129.625,38.125 127.392,38.125 127.392,50.821 129.625,50.821 129.625,45.578 132.589,45.578 
	132.589,43.619 129.625,43.619 "/>
<polygon fill="#111820" points="126.275,48.041 119.4,48.041 119.392,43.71 117.158,43.71 117.158,48.041 112.896,48.041 
	112.896,49.979 126.275,49.979 "/>
<path fill="#111820" d="M165.43,41.932c0,0.578-0.042,1.221-0.126,1.928c-0.083,0.705-0.209,1.455-0.375,2.244l2.211,0.273
	c0.075-0.335,0.146-0.699,0.216-1.094c0.068-0.395,0.125-0.805,0.171-1.23s0.08-0.848,0.103-1.266
	c0.023-0.418,0.034-0.809,0.034-1.174v-2.529h-10.326v1.938h8.093V41.932z"/>
<path fill="#111820" d="M170.889,52.451c-0.57-0.326-1.258-0.584-2.063-0.775c-0.806-0.189-1.709-0.283-2.712-0.283
	c-1.004,0-1.911,0.094-2.724,0.283c-0.813,0.191-1.506,0.449-2.074,0.775c-0.569,0.327-1.008,0.723-1.311,1.186
	c-0.304,0.463-0.456,0.969-0.456,1.515v0.729c0,0.547,0.152,1.053,0.456,1.517c0.303,0.463,0.741,0.858,1.311,1.185
	c0.568,0.327,1.261,0.586,2.074,0.776c0.813,0.188,1.72,0.284,2.724,0.284c1.003,0,1.906-0.096,2.712-0.284
	c0.806-0.19,1.493-0.449,2.063-0.776c0.569-0.326,1.009-0.722,1.321-1.185c0.312-0.464,0.467-0.97,0.467-1.517v-0.729
	c0-0.546-0.155-1.052-0.467-1.515C171.897,53.174,171.458,52.778,170.889,52.451 M170.466,55.744c0,0.229-0.095,0.469-0.284,0.719
	c-0.19,0.252-0.472,0.479-0.843,0.684c-0.374,0.205-0.829,0.373-1.368,0.502s-1.16,0.193-1.857,0.193
	c-0.7,0-1.319-0.064-1.858-0.193s-0.996-0.297-1.367-0.502c-0.373-0.205-0.654-0.432-0.844-0.684
	c-0.189-0.25-0.284-0.49-0.284-0.719v-0.456c0-0.227,0.095-0.467,0.284-0.717c0.189-0.251,0.471-0.479,0.844-0.685
	c0.371-0.205,0.828-0.371,1.367-0.5s1.158-0.195,1.858-0.195c0.697,0,1.318,0.066,1.857,0.195s0.994,0.295,1.368,0.5
	c0.371,0.205,0.652,0.434,0.843,0.685c0.189,0.25,0.284,0.49,0.284,0.717V55.744z"/>
<polygon fill="#111820" points="172.654,38.125 170.42,38.125 170.42,50.821 172.654,50.821 172.654,45.578 175.618,45.578 
	175.618,43.619 172.654,43.619 "/>
<polygon fill="#111820" points="169.305,48.041 162.43,48.041 162.42,43.71 160.188,43.71 160.188,48.041 155.926,48.041 
	155.926,49.979 169.305,49.979 "/>
<polygon fill="#111820" points="87.75,38.125 85.516,38.125 85.516,53.375 87.75,53.375 87.75,46.332 90.734,46.332 90.734,44.371 
	87.75,44.371 "/>
<polygon fill="#111820" points="77.173,53.101 74.917,53.101 74.917,58.912 88.319,58.912 88.319,56.953 77.173,56.953 "/>
<path fill="#111820" d="M77.447,51.596c0.819,0,1.534-0.109,2.143-0.33c0.607-0.219,1.117-0.512,1.527-0.877
	c0.409-0.365,0.718-0.778,0.922-1.242c0.206-0.463,0.309-0.938,0.309-1.426v-0.683c0-0.485-0.103-0.962-0.309-1.425
	c-0.204-0.463-0.513-0.877-0.922-1.242c-0.41-0.365-0.92-0.658-1.527-0.878c-0.608-0.219-1.323-0.33-2.143-0.33
	c-0.821,0-1.535,0.111-2.143,0.33c-0.607,0.22-1.117,0.509-1.527,0.867c-0.411,0.356-0.719,0.767-0.924,1.229
	c-0.205,0.465-0.308,0.947-0.308,1.448v0.683c0,0.487,0.103,0.963,0.308,1.426c0.205,0.464,0.513,0.877,0.924,1.242
	c0.41,0.365,0.92,0.658,1.527,0.877C75.912,51.486,76.626,51.596,77.447,51.596 M74.688,47.608v-0.457
	c0-0.272,0.058-0.542,0.171-0.808c0.113-0.268,0.285-0.502,0.514-0.707c0.227-0.205,0.513-0.369,0.854-0.49
	c0.342-0.121,0.748-0.182,1.221-0.182c0.471,0,0.877,0.061,1.22,0.182c0.341,0.121,0.626,0.285,0.854,0.49
	c0.229,0.205,0.399,0.439,0.514,0.707c0.113,0.266,0.171,0.535,0.171,0.808v0.457c0,0.272-0.058,0.543-0.171,0.809
	c-0.114,0.267-0.285,0.501-0.514,0.707c-0.228,0.204-0.516,0.368-0.866,0.489c-0.35,0.123-0.752,0.184-1.207,0.184
	c-0.456,0-0.859-0.061-1.208-0.184c-0.351-0.121-0.64-0.285-0.866-0.489c-0.229-0.206-0.4-0.44-0.514-0.707
	C74.746,48.151,74.688,47.881,74.688,47.608"/>
<polygon fill="#111820" points="83.465,40.451 78.563,40.451 78.563,37.921 76.33,37.921 76.33,40.451 71.406,40.451 71.406,42.365 
	83.465,42.365 "/>
<path fill="#111820" d="M107.963,43.994c0.077-0.812,0.114-1.537,0.114-2.176V38.97H94.242v1.914h11.556v0.844
	c0,0.683-0.037,1.425-0.114,2.222c-0.075,0.799-0.212,1.623-0.41,2.474H91.712v1.914h8.435v3.647h-5.95v1.914h11.853v5.448h2.258
	v-7.362h-5.881v-3.647h8.569v-1.914h-3.373C107.773,45.617,107.888,44.808,107.963,43.994"/>
<path fill="#111820" d="M143.301,45.83c-0.41-0.38-0.9-0.68-1.471-0.9c-0.569-0.221-1.205-0.331-1.903-0.331
	c-0.699,0-1.333,0.11-1.903,0.331s-1.061,0.521-1.47,0.9c-0.411,0.381-0.727,0.813-0.946,1.299c-0.221,0.486-0.33,1.004-0.33,1.551
	v1.094c0,0.547,0.109,1.063,0.33,1.55c0.22,0.487,0.535,0.919,0.946,1.3c0.409,0.379,0.899,0.68,1.47,0.9
	c0.57,0.22,1.204,0.33,1.903,0.33c0.698,0,1.334-0.11,1.903-0.33c0.57-0.221,1.061-0.521,1.471-0.9
	c0.409-0.381,0.725-0.813,0.944-1.3c0.222-0.487,0.332-1.003,0.332-1.55V48.68c0-0.547-0.11-1.064-0.332-1.551
	C144.025,46.644,143.71,46.211,143.301,45.83 M142.548,49.659c0,0.273-0.057,0.548-0.171,0.82c-0.113,0.274-0.281,0.524-0.502,0.753
	c-0.22,0.227-0.493,0.413-0.82,0.559c-0.326,0.144-0.702,0.215-1.128,0.215s-0.803-0.071-1.127-0.215
	c-0.328-0.146-0.602-0.332-0.821-0.559c-0.221-0.229-0.388-0.479-0.502-0.753c-0.114-0.272-0.171-0.547-0.171-0.82v-0.866
	c0-0.273,0.057-0.547,0.171-0.82c0.114-0.274,0.281-0.524,0.502-0.752c0.22-0.229,0.493-0.414,0.821-0.56
	c0.324-0.144,0.701-0.216,1.127-0.216s0.802,0.072,1.128,0.216c0.327,0.146,0.601,0.331,0.82,0.56
	c0.221,0.228,0.389,0.478,0.502,0.752c0.114,0.273,0.171,0.547,0.171,0.82V49.659z"/>
<polygon fill="#111820" points="140.952,38.719 138.742,38.719 138.742,41.659 134.525,41.659 134.525,43.551 144.918,43.551 
	144.918,41.659 140.952,41.659 "/>
<polygon fill="#111820" points="150.73,45.922 148.474,45.922 148.474,38.125 146.264,38.125 146.264,59.141 148.474,59.141 
	148.474,47.881 150.73,47.881 150.73,59.141 152.941,59.141 152.941,38.125 150.73,38.125 "/>
<path fill="#111820" d="M191.968,52.576h-8.639v-2.667h-2.234v9.231h13.107v-9.231h-2.234V52.576z M191.968,57.227h-8.639v-2.758
	h8.639V57.227z"/>
<path fill="#111820" d="M191.968,42.686h-4.262c-0.077-0.487-0.24-0.957-0.49-1.414c-0.252-0.457-0.593-0.861-1.026-1.22
	c-0.433-0.356-0.953-0.646-1.561-0.866c-0.609-0.22-1.308-0.33-2.097-0.33c-0.867,0-1.626,0.129-2.279,0.387
	c-0.654,0.26-1.197,0.598-1.63,1.015c-0.434,0.418-0.762,0.89-0.98,1.414c-0.221,0.524-0.331,1.052-0.331,1.583v0.866
	c0,0.532,0.11,1.06,0.331,1.584c0.219,0.524,0.547,0.996,0.98,1.414c0.433,0.418,0.976,0.756,1.63,1.014
	c0.653,0.259,1.412,0.388,2.279,0.388c0.789,0,1.492-0.109,2.107-0.33c0.616-0.221,1.141-0.515,1.573-0.879
	c0.433-0.363,0.773-0.781,1.026-1.252c0.25-0.472,0.405-0.951,0.467-1.437h4.262v4.262h2.234V38.125h-2.234V42.686z M185.586,44.006
	c0,0.32-0.069,0.633-0.206,0.936c-0.135,0.304-0.334,0.576-0.592,0.819c-0.258,0.244-0.577,0.441-0.957,0.593
	c-0.381,0.152-0.814,0.229-1.299,0.229c-0.486,0-0.921-0.077-1.301-0.229c-0.38-0.151-0.698-0.349-0.957-0.593
	c-0.259-0.243-0.454-0.516-0.592-0.819c-0.137-0.303-0.206-0.615-0.206-0.936v-0.637c0-0.32,0.069-0.631,0.206-0.936
	c0.138-0.304,0.333-0.574,0.592-0.809c0.259-0.236,0.577-0.43,0.957-0.582c0.38-0.15,0.814-0.229,1.301-0.229
	c0.484,0,0.918,0.078,1.299,0.229c0.38,0.152,0.699,0.346,0.957,0.582c0.258,0.234,0.457,0.505,0.592,0.809
	c0.137,0.305,0.206,0.615,0.206,0.936V44.006z"/>
<path fill="#111820" d="M211.002,52.234c-0.593-0.334-1.289-0.589-2.086-0.764c-0.798-0.174-1.659-0.262-2.587-0.262
	c-0.927,0-1.789,0.088-2.588,0.262c-0.797,0.175-1.492,0.43-2.085,0.764c-0.593,0.335-1.057,0.736-1.39,1.209
	c-0.335,0.47-0.501,1.01-0.501,1.618v0.819c0,0.608,0.166,1.151,0.501,1.631c0.333,0.478,0.797,0.881,1.39,1.207
	c0.593,0.328,1.288,0.578,2.085,0.752c0.799,0.175,1.661,0.263,2.588,0.263c0.928,0,1.789-0.088,2.587-0.263
	c0.797-0.174,1.493-0.424,2.086-0.752c0.593-0.326,1.056-0.729,1.39-1.207c0.335-0.479,0.502-1.022,0.502-1.631v-0.819
	c0-0.608-0.167-1.148-0.502-1.618C212.058,52.971,211.595,52.569,211.002,52.234 M210.659,55.744c0,0.305-0.112,0.585-0.341,0.844
	c-0.228,0.258-0.536,0.482-0.923,0.674c-0.388,0.188-0.844,0.34-1.369,0.455c-0.524,0.112-1.089,0.17-1.697,0.17
	c-0.607,0-1.174-0.058-1.697-0.17c-0.524-0.115-0.98-0.267-1.368-0.455c-0.388-0.191-0.695-0.416-0.923-0.674
	c-0.229-0.259-0.342-0.539-0.342-0.844v-0.547c0-0.288,0.113-0.564,0.342-0.831c0.228-0.267,0.535-0.494,0.923-0.685
	c0.388-0.189,0.844-0.342,1.368-0.455c0.523-0.114,1.09-0.172,1.697-0.172c0.608,0,1.173,0.058,1.697,0.172
	c0.525,0.113,0.981,0.266,1.369,0.455c0.387,0.19,0.695,0.418,0.923,0.685c0.229,0.267,0.341,0.543,0.341,0.831V55.744z"/>
<path fill="#111820" d="M210.819,41.659c0,0.622-0.038,1.326-0.114,2.108c-0.076,0.783-0.213,1.606-0.41,2.473l2.234,0.251
	c0.091-0.411,0.174-0.847,0.251-1.312c0.075-0.463,0.136-0.914,0.182-1.355c0.045-0.439,0.079-0.855,0.103-1.242
	c0.022-0.387,0.035-0.703,0.035-0.945v-2.668h-13.882v1.916h11.602V41.659z"/>
<polygon fill="#111820" points="206.307,43.664 204.027,43.664 204.027,47.789 196.688,47.789 196.688,49.705 215.971,49.705 
	215.971,47.789 206.307,47.789 "/>
<polygon fill="#111820" points="234.07,43.596 234.07,38.125 231.837,38.125 231.837,53.123 234.07,53.123 234.07,45.557 
	237.056,45.557 237.056,43.596 "/>
<polygon fill="#111820" points="223.494,51.939 221.238,51.939 221.238,58.913 234.64,58.913 234.64,56.953 223.494,56.953 "/>
<polygon fill="#111820" points="230.15,47.768 220.662,47.768 220.668,41.432 228.19,41.432 228.19,39.494 218.457,39.494 
	218.457,49.705 230.15,49.705 "/>
<polygon fill="#0082CB" points="31.65,45.9 22.541,59.734 13.43,45.9 22.541,32.073 "/>
<polygon fill="#0082CB" points="31.65,45.9 40.761,59.734 49.872,45.9 40.761,32.073 "/>
<polygon fill="#0082CB" points="22.54,32.068 31.65,45.9 40.762,32.068 31.65,18.24 "/>
<polygon fill="#0082CB" points="13.43,45.9 4.318,59.729 22.539,59.729 "/>
<polygon fill="#0082CB" points="49.872,45.9 40.762,59.729 58.982,59.729 "/>
<polygon fill="#00A0D9" points="31.65,45.9 22.541,59.734 13.43,45.9 22.541,32.073 "/>
<polygon fill="#00A0D9" points="31.65,45.9 40.761,59.734 49.872,45.9 40.761,32.073 "/>
<polygon fill="#65B9E3" points="22.54,32.068 31.65,45.9 40.762,32.068 31.65,18.24 "/>
<polygon fill="#0082CB" points="13.43,45.9 4.318,59.729 22.539,59.729 "/>
<polygon fill="#0082CB" points="49.872,45.9 40.762,59.729 58.982,59.729 "/>
<polygon fill="#65B9E3" points="58.982,18.238 49.872,4.41 40.762,18.238 "/>
<polygon fill="#00A0D9" points="40.762,18.243 49.873,32.071 58.982,18.243 "/>
</svg>
