<svg width="32" height="32" viewBox="0 0 32 32" fill="none" xmlns="http://www.w3.org/2000/svg">
<path d="M25.1182 10.7488C24.4396 11.049 23.72 11.2462 22.9831 11.3337C23.7598 10.8692 24.3411 10.1382 24.6187 9.27684C23.8898 9.71062 23.0907 10.0146 22.2578 10.1791C21.6983 9.58047 20.9568 9.18348 20.1484 9.04981C19.34 8.91614 18.5102 9.05328 17.7878 9.43991C17.0654 9.82655 16.491 10.441 16.1539 11.1878C15.8167 11.9345 15.7358 12.7718 15.9236 13.5693C14.4454 13.4952 12.9994 13.1111 11.6794 12.4419C10.3593 11.7727 9.19478 10.8333 8.26133 9.68484C7.93092 10.2524 7.75729 10.8975 7.75822 11.5542C7.75822 12.8431 8.41422 13.9817 9.41156 14.6484C8.82134 14.6298 8.24412 14.4704 7.728 14.1835V14.2297C7.72818 15.0881 8.02522 15.9201 8.56875 16.5845C9.11229 17.2488 9.86887 17.7048 10.7102 17.8751C10.1623 18.0235 9.58783 18.0454 9.03022 17.9391C9.26744 18.6779 9.72978 19.3241 10.3525 19.7872C10.9753 20.2502 11.7272 20.5069 12.5031 20.5213C11.732 21.1269 10.849 21.5746 9.90478 21.8388C8.96052 22.1029 7.97345 22.1784 7 22.0608C8.69929 23.1537 10.6774 23.7338 12.6978 23.732C19.536 23.732 23.2756 18.0671 23.2756 13.1542C23.2756 12.9942 23.2711 12.8324 23.264 12.6742C23.9919 12.1481 24.6201 11.4964 25.1191 10.7497L25.1182 10.7488Z" fill="white"/>
</svg>
