<svg width="119" height="119" viewBox="0 0 119 119" fill="none" xmlns="http://www.w3.org/2000/svg">
<circle cx="59.5" cy="59.5" r="59.5" fill="#003399"/>
<g clip-path="url(#clip0)">
<path d="M96.6875 57.5312V61.3984L94.1094 63.9766H65.5781L63 61.3984V57.5312C63 55.3913 64.7273 53.5781 66.8672 53.5781H92.8203C94.9602 53.5781 96.6875 55.3913 96.6875 57.5312Z" fill="#4D5A68"/>
<path d="M96.6875 57.5312V61.3984L94.1094 63.9766H79.8438V53.5781H92.8203C94.9602 53.5781 96.6875 55.3913 96.6875 57.5312Z" fill="#304653"/>
<path d="M96.6875 61.3984V91.0469C96.6875 93.1866 94.9602 95 92.8203 95H66.8672C64.7273 95 63 93.1866 63 91.0469V61.3984H96.6875Z" fill="#FFCA42"/>
<path d="M96.6875 61.3984V91.0469C96.6875 93.1866 94.9602 95 92.8203 95H79.8438V61.3984H96.6875Z" fill="#FFAF3E"/>
<path d="M69.4453 58.8203C68.7328 58.8203 68.1562 58.2438 68.1562 57.5312V52.2891C68.1562 51.5766 68.7328 51 69.4453 51C70.1578 51 70.7344 51.5766 70.7344 52.2891V57.5312C70.7344 58.2438 70.1578 58.8203 69.4453 58.8203Z" fill="#CAD4E4"/>
<path d="M74.6875 58.8203C73.975 58.8203 73.3984 58.2438 73.3984 57.5312V52.2891C73.3984 51.5766 73.975 51 74.6875 51C75.4 51 75.9766 51.5766 75.9766 52.2891V57.5312C75.9766 58.2438 75.4 58.8203 74.6875 58.8203Z" fill="#CAD4E4"/>
<path d="M81.1328 52.2891V57.5312C81.1328 58.253 80.5657 58.8203 79.8438 58.8203C79.1218 58.8203 78.5547 58.253 78.5547 57.5312V52.2891C78.5547 51.5671 79.1218 51 79.8438 51C80.5657 51 81.1328 51.5671 81.1328 52.2891Z" fill="#CAD4E4"/>
<path d="M85.0859 58.8203C84.3734 58.8203 83.7969 58.2438 83.7969 57.5312V52.2891C83.7969 51.5766 84.3734 51 85.0859 51C85.7984 51 86.375 51.5766 86.375 52.2891V57.5312C86.375 58.2438 85.7984 58.8203 85.0859 58.8203Z" fill="#ADB5CC"/>
<path d="M90.2422 58.8203C89.5297 58.8203 88.9531 58.2438 88.9531 57.5312V52.2891C88.9531 51.5766 89.5297 51 90.2422 51C90.9547 51 91.5312 51.5766 91.5312 52.2891V57.5312C91.5312 58.2438 90.9547 58.8203 90.2422 58.8203Z" fill="#ADB5CC"/>
<path d="M81.1328 85.8906C81.1328 86.6124 80.5657 87.1797 79.8438 87.1797H69.4453C68.7234 87.1797 68.1562 86.6124 68.1562 85.8906C68.1562 85.1687 68.7234 84.6016 69.4453 84.6016H79.8438C80.5657 84.6016 81.1328 85.1687 81.1328 85.8906Z" fill="#DD864D"/>
<path d="M77.2656 79.4453H69.4453C68.7328 79.4453 68.1562 78.8688 68.1562 78.1562C68.1562 77.4437 68.7328 76.8672 69.4453 76.8672H77.2656C77.9781 76.8672 78.5547 77.4437 78.5547 78.1562C78.5547 78.8688 77.9781 79.4453 77.2656 79.4453Z" fill="#DD864D"/>
<path d="M74.6875 71.7109H69.4453C68.7328 71.7109 68.1562 71.1344 68.1562 70.4219C68.1562 69.7094 68.7328 69.1328 69.4453 69.1328H74.6875C75.4 69.1328 75.9766 69.7094 75.9766 70.4219C75.9766 71.1344 75.4 71.7109 74.6875 71.7109Z" fill="#DD864D"/>
<path d="M98.2298 78.8586C98.6652 71.5868 103.734 67.4343 104.03 67.0173C104.612 66.416 104.473 65.4239 103.747 65.0049L102.141 64.0777C101.524 63.7214 101.313 62.9339 101.669 62.3168C102.026 61.6998 102.813 61.4888 103.43 61.8451L105.036 62.7722C107.214 64.0295 107.633 66.9991 105.882 68.8092C105.465 69.391 101.187 72.5956 100.804 79.0131C100.761 79.724 100.15 80.2654 99.4394 80.2228C98.7225 80.1777 98.1883 79.5644 98.2298 78.8586Z" fill="#304653"/>
<path d="M106.48 59.1401L104.547 62.4892L101.204 63.536L98.6137 62.0406L97.8486 58.6219L99.7822 55.2728C100.852 53.4197 103.212 52.7874 105.065 53.8573C106.918 54.9273 107.55 57.2869 106.48 59.1401Z" fill="#4D5A68"/>
<path d="M101.203 63.536L99.9082 62.7883L105.064 53.8574C106.918 54.9273 107.55 57.2869 106.48 59.1401L104.546 62.4892L101.203 63.536Z" fill="#304653"/>
<path d="M92.438 83.7199L85.5166 79.7238C85.882 75.9457 87.2504 72.3893 89.6014 69.4003C90 68.916 96.9306 60.0569 97.2556 59.649L97.8485 58.6221L104.547 62.4893L103.967 63.494C103.928 63.561 99.4975 74.6376 99.336 75.0206C97.9229 78.5511 95.5272 81.5144 92.438 83.7199Z" fill="#E05C32"/>
<path d="M92.4382 83.7199L88.9775 81.7218L101.198 60.5557L104.547 62.4893L103.967 63.494C103.928 63.561 99.4978 74.6376 99.3363 75.0206C97.9231 78.5511 95.5274 81.5144 92.4382 83.7199Z" fill="#C04C27"/>
<path d="M90.3953 79.2663C89.011 78.4671 87.3448 78.5172 85.9977 79.4065L85.5166 79.7242C85.5027 79.9544 85.4442 80.1589 85.4305 80.389L85.1024 85.8559L83.968 87.8207C83.6072 88.4458 83.8146 89.2206 84.4398 89.5815C85.065 89.9425 85.8398 89.7348 86.2007 89.1097L87.335 87.1449L91.9054 84.1273C92.0977 84.0003 92.2455 83.8475 92.4379 83.7204L92.4726 83.145C92.5692 81.5336 91.7796 80.0655 90.3953 79.2663Z" fill="#CAD4E4"/>
<path d="M90.3949 79.2656L87.0176 85.1153L84.4395 89.5808C85.0646 89.9417 85.8395 89.734 86.2003 89.109L87.3347 87.1442L91.905 84.1266C92.0973 83.9996 92.2452 83.8468 92.4376 83.7197L92.4722 83.1442C92.5689 81.5329 91.7792 80.0648 90.3949 79.2656Z" fill="#ADB5CC"/>
<path d="M79.8438 58.8203V51C80.5657 51 81.1328 51.5671 81.1328 52.2891V57.5312C81.1328 58.253 80.5657 58.8203 79.8438 58.8203Z" fill="#ADB5CC"/>
<path d="M81.1328 85.8906C81.1328 86.6124 80.5657 87.1797 79.8438 87.1797V84.6016C80.5657 84.6016 81.1328 85.1687 81.1328 85.8906Z" fill="#D36836"/>
</g>
<mask id="mask0" mask-type="alpha" maskUnits="userSpaceOnUse" x="0" y="0" width="119" height="119">
<circle cx="59.5" cy="59.5" r="59.5" fill="#003399"/>
</mask>
<g mask="url(#mask0)">
<path d="M112.121 30L49 125.879V164L241.839 161.112L254 30H112.121Z" fill="#0E2D6A"/>
</g>
<defs>
<clipPath id="clip0">
<rect width="44" height="44" fill="white" transform="translate(63 51)"/>
</clipPath>
</defs>
</svg>
