<svg width="32" height="32" viewBox="0 0 32 32" fill="none" xmlns="http://www.w3.org/2000/svg">
<path d="M15.6667 28.6665C8.48685 28.6665 2.66675 22.8464 2.66675 15.6665C2.66675 8.4866 8.48685 2.6665 15.6667 2.6665C22.8466 2.6665 28.6667 8.4866 28.6667 15.6665C28.6667 22.8464 22.8466 28.6665 15.6667 28.6665ZM15.6667 26.0665C18.425 26.0665 21.0703 24.9708 23.0207 23.0204C24.971 21.07 26.0667 18.4248 26.0667 15.6665C26.0667 12.9083 24.971 10.263 23.0207 8.31259C21.0703 6.36222 18.425 5.2665 15.6667 5.2665C12.9085 5.2665 10.2632 6.36222 8.31284 8.31259C6.36246 10.263 5.26675 12.9083 5.26675 15.6665C5.26675 18.4248 6.36246 21.07 8.31284 23.0204C10.2632 24.9708 12.9085 26.0665 15.6667 26.0665ZM14.3667 9.1665H16.9667V11.7665H14.3667V9.1665ZM14.3667 14.3665H16.9667V22.1665H14.3667V14.3665Z" fill="#ABB3C4"/>
</svg>
