<svg width="21" height="20" viewBox="0 0 21 20" fill="none" xmlns="http://www.w3.org/2000/svg">
<path d="M3.58068 2.43301C5.39523 0.86067 7.71666 -0.00333986 10.1177 9.70266e-06C15.6407 9.70266e-06 20.1177 4.47701 20.1177 10C20.1177 12.136 19.4477 14.116 18.3077 15.74L15.1177 10H18.1177C18.1178 8.43163 17.6569 6.89781 16.7923 5.58927C15.9278 4.28072 14.6976 3.25517 13.2549 2.64013C11.8121 2.0251 10.2204 1.84771 8.67763 2.13003C7.13487 2.41234 5.70913 3.14191 4.57768 4.22801L3.58068 2.43301ZM16.6547 17.567C14.8401 19.1393 12.5187 20.0034 10.1177 20C4.59468 20 0.117676 15.523 0.117676 10C0.117676 7.86401 0.787676 5.88401 1.92768 4.26001L5.11768 10H2.11768C2.11755 11.5684 2.57843 13.1022 3.44301 14.4108C4.3076 15.7193 5.53774 16.7449 6.9805 17.3599C8.42325 17.9749 10.015 18.1523 11.5577 17.87C13.1005 17.5877 14.5262 16.8581 15.6577 15.772L16.6547 17.567Z" fill="white"/>
</svg>
