<svg width="24" height="24" viewBox="0 0 24 24" fill="none" xmlns="http://www.w3.org/2000/svg">
<path fill-rule="evenodd" clip-rule="evenodd" d="M5 13.9654C5.00415 13.9049 5.00365 13.8895 5.01395 13.8296C5.0372 13.6949 5.08825 13.5653 5.16326 13.451C5.20116 13.3932 5.24526 13.3428 5.29231 13.2924L11.2926 7.29211C11.3369 7.25071 11.347 7.23916 11.3955 7.20241C11.4499 7.16116 11.5085 7.12551 11.5702 7.09615C11.8398 6.96795 12.1597 6.96795 12.4292 7.09615C12.4909 7.12551 12.5496 7.16116 12.604 7.20241C12.6524 7.23916 12.6625 7.25071 12.7068 7.29211L18.7071 13.2924C18.7485 13.3367 18.7601 13.3469 18.7968 13.3953C18.8932 13.5224 18.9583 13.6724 18.9855 13.8296C19.0048 13.9418 19.0048 14.0572 18.9855 14.1695C18.97 14.2592 18.9422 14.3468 18.9031 14.429C18.7545 14.7414 18.4464 14.9589 18.1023 14.9943C17.9663 15.0083 17.8277 14.994 17.6974 14.9527C17.5889 14.9182 17.4864 14.8652 17.3957 14.7964C17.3473 14.7596 17.3372 14.7481 17.2928 14.7067L11.9997 9.41355L6.70657 14.7067L6.65667 14.7533C6.60967 14.7915 6.59872 14.8024 6.54792 14.8357C6.45271 14.8982 6.34686 14.9442 6.23625 14.9711C6.14775 14.9927 6.05635 15.0021 5.96534 14.999C5.61958 14.9872 5.29731 14.7912 5.12776 14.4897C5.07195 14.3904 5.0333 14.2817 5.01395 14.1695C5.00365 14.1096 5.00415 14.0942 5 14.0337C5 14.0109 5 13.9881 5 13.9654V13.9654Z" fill="#223257"/>
</svg>
