<svg width="20" height="20" viewBox="0 0 20 20" fill="none" xmlns="http://www.w3.org/2000/svg">
<path d="M14.1665 2.49967H17.4998C17.7209 2.49967 17.9328 2.58747 18.0891 2.74375C18.2454 2.90003 18.3332 3.11199 18.3332 3.33301V16.6663C18.3332 16.8874 18.2454 17.0993 18.0891 17.2556C17.9328 17.4119 17.7209 17.4997 17.4998 17.4997H2.49984C2.27882 17.4997 2.06686 17.4119 1.91058 17.2556C1.7543 17.0993 1.6665 16.8874 1.6665 16.6663V3.33301C1.6665 3.11199 1.7543 2.90003 1.91058 2.74375C2.06686 2.58747 2.27882 2.49967 2.49984 2.49967H5.83317V0.833008H7.49984V2.49967H12.4998V0.833008H14.1665V2.49967ZM16.6665 9.16634H3.33317V15.833H16.6665V9.16634ZM12.4998 4.16634H7.49984V5.83301H5.83317V4.16634H3.33317V7.49967H16.6665V4.16634H14.1665V5.83301H12.4998V4.16634ZM4.99984 10.833H6.6665V12.4997H4.99984V10.833ZM9.1665 10.833H10.8332V12.4997H9.1665V10.833ZM13.3332 10.833H14.9998V12.4997H13.3332V10.833Z" fill="white"/>
</svg>
