<svg width="1111" height="423" viewBox="0 0 1111 423" fill="none" xmlns="http://www.w3.org/2000/svg">
<rect x="222" y="406" width="12" height="12" rx="6" fill="#228BE6"/>
<rect x="214" y="411.5" width="28" height="1" fill="#228BE6"/>
<path d="M250.8 412.904V413.992H263.872V412.904H250.8ZM256.672 410.584V413.352H257.984V410.584H256.672ZM252.448 410.168V411.256H262.352V410.168H252.448ZM252.448 406.44V410.808H253.76V407.512H262.24V406.44H252.448ZM257.312 415.032C254.224 415.032 252.352 415.976 252.352 417.624C252.352 419.304 254.224 420.232 257.312 420.232C260.4 420.232 262.272 419.304 262.272 417.624C262.272 415.976 260.4 415.032 257.312 415.032ZM257.312 416.056C259.584 416.056 260.928 416.632 260.928 417.624C260.928 418.632 259.584 419.192 257.312 419.192C255.056 419.192 253.696 418.632 253.696 417.624C253.696 416.632 255.056 416.056 257.312 416.056ZM265.631 415.672V416.776H266.783C269.535 416.776 271.455 416.696 273.727 416.296L273.599 415.224C271.375 415.592 269.487 415.672 266.783 415.672H265.631ZM265.631 407.096V416.056H266.943V408.2H272.639V407.096H265.631ZM266.623 411.144V412.216H272.111V411.144H266.623ZM275.247 405.784V420.248H276.575V405.784H275.247ZM278.637 417.304V418.408H291.741V417.304H278.637ZM284.493 413.56V417.608H285.821V413.56H284.493ZM280.157 406.984V413.8H290.142V406.984H280.157ZM288.861 408.056V412.728H281.453V408.056H288.861ZM292.556 417.32V418.44H305.66V417.32H292.556ZM294.14 406.888V407.976H302.732V410.216H294.188V414.168H295.5V411.272H304.044V406.888H294.14ZM294.188 413.608V414.696H304.38V413.608H294.188Z" fill="#555555"/>
<rect x="337" y="411.5" width="28" height="1" fill="#3BC9DB"/>
<path d="M383.592 405.768V420.264H384.92V405.768H383.592ZM384.6 411.528V412.648H387.288V411.528H384.6ZM374.376 415.672V416.776H375.528C378.296 416.776 380.216 416.664 382.472 416.264L382.328 415.16C380.136 415.576 378.248 415.672 375.528 415.672H374.376ZM374.344 407.128V408.216H379.576V411.224H374.376V416.12H375.688V412.312H380.888V407.128H374.344ZM393.575 413.96V417.56H394.903V413.96H393.575ZM394.247 406.728C391.191 406.728 388.983 408.216 388.983 410.52C388.983 412.824 391.191 414.312 394.247 414.312C397.303 414.312 399.495 412.824 399.495 410.52C399.495 408.216 397.303 406.728 394.247 406.728ZM394.247 407.784C396.535 407.784 398.215 408.872 398.215 410.52C398.215 412.168 396.535 413.256 394.247 413.256C391.943 413.256 390.263 412.168 390.263 410.52C390.263 408.872 391.943 407.784 394.247 407.784ZM387.719 417.304V418.408H400.823V417.304H387.719ZM407.43 406.776V407.88C407.43 410.344 404.709 412.552 402.165 413.032L402.757 414.136C405.654 413.48 408.582 411.032 408.582 407.88V406.776H407.43ZM407.669 406.776V407.88C407.669 411.048 410.613 413.48 413.493 414.136L414.086 413.032C411.557 412.552 408.821 410.36 408.821 407.88V406.776H407.669ZM401.637 417.208V418.296H414.741V417.208H401.637Z" fill="#555555"/>
<rect x="351" y="405" width="10" height="10" transform="rotate(45 351 405)" fill="#3BC9DB"/>
<rect x="446" y="411.5" width="28" height="1" fill="#F08200"/>
<path d="M492.688 405.784V413.144H494.016V405.784H492.688ZM493.44 408.888V409.992H496.144V408.888H493.44ZM483.392 406.6V412.392H490.032V406.6H483.392ZM488.736 407.656V411.336H484.688V407.656H488.736ZM484.832 413.832V414.888H492.72V416.376H484.864V419.544H486.176V417.384H494.016V413.832H484.832ZM484.864 418.984V420.056H494.544V418.984H484.864ZM497.183 415.592V416.696H498.143C499.967 416.696 501.599 416.632 503.631 416.28L503.519 415.192C501.535 415.528 499.903 415.592 498.143 415.592H497.183ZM497.151 407.368V408.456H501.039V411.336H497.183V416.04H498.479V412.408H502.319V407.368H497.151ZM507.711 405.784V420.248H508.991V405.784H507.711ZM503.007 410.968V412.072H505.343V410.968H503.007ZM504.799 406.136V419.496H506.031V406.136H504.799ZM521.134 405.768V420.264H522.462V405.768H521.134ZM514.829 406.888C512.701 406.888 511.165 408.856 511.165 411.928C511.165 415.016 512.701 416.984 514.829 416.984C516.973 416.984 518.51 415.016 518.51 411.928C518.51 408.856 516.973 406.888 514.829 406.888ZM514.829 408.088C516.253 408.088 517.229 409.592 517.229 411.928C517.229 414.28 516.253 415.816 514.829 415.816C513.421 415.816 512.429 414.28 512.429 411.928C512.429 409.592 513.421 408.088 514.829 408.088ZM528.364 407.032V409.624C528.364 412.36 526.62 415.128 524.476 416.152L525.292 417.24C527.66 416.04 529.452 412.952 529.452 409.624V407.032H528.364ZM528.588 407.032V409.624C528.588 412.84 530.396 415.816 532.748 416.968L533.548 415.912C531.404 414.92 529.676 412.264 529.676 409.624V407.032H528.588ZM535.052 405.768V420.264H536.38V405.768H535.052ZM542.315 406.888C540.187 406.888 538.683 408.856 538.683 411.928C538.683 415.016 540.187 416.984 542.315 416.984C544.443 416.984 545.947 415.016 545.947 411.928C545.947 408.856 544.443 406.888 542.315 406.888ZM542.315 408.088C543.707 408.088 544.683 409.592 544.683 411.928C544.683 414.28 543.707 415.816 542.315 415.816C540.907 415.816 539.947 414.28 539.947 411.928C539.947 409.592 540.907 408.088 542.315 408.088ZM548.251 405.784V420.248H549.595V405.784H548.251ZM549.275 411.56V412.68H551.963V411.56H549.275Z" fill="#555555"/>
<path d="M461 407L467.928 419H454.072L461 407Z" fill="#F08200"/>
<rect x="583" y="411.5" width="28" height="1" fill="#4C6EF5"/>
<path d="M626.2 407.288V407.432C626.2 411.384 624.648 414.616 620.072 416.856L620.792 417.896C626.008 415.336 627.48 411.464 627.48 407.288H626.2ZM620.856 407.288V408.36H626.872V407.288H620.856ZM626.008 410.872L620.136 411.256L620.36 412.424L626.008 411.896V410.872ZM630.328 405.784V420.248H631.656V405.784H630.328ZM633.719 417.32V418.44H646.823V417.32H633.719ZM635.303 406.888V407.976H643.895V410.216H635.351V414.168H636.663V411.272H645.207V406.888H635.303ZM635.351 413.608V414.696H645.543V413.608H635.351ZM658.165 405.784V420.248H659.493V405.784H658.165ZM653.925 407.336V407.56C653.925 411.4 651.99 414.472 647.813 416.488L648.517 417.56C653.349 415.192 655.238 411.528 655.238 407.336H653.925ZM648.469 407.336V408.424H654.502V407.336H648.469ZM667.348 406.776V407.88C667.348 410.344 664.628 412.552 662.084 413.032L662.676 414.136C665.572 413.48 668.5 411.032 668.5 407.88V406.776H667.348ZM667.588 406.776V407.88C667.588 411.048 670.532 413.48 673.412 414.136L674.004 413.032C671.476 412.552 668.74 410.36 668.74 407.88V406.776H667.588ZM661.556 417.208V418.296H674.66V417.208H661.556ZM681.955 414.904C678.867 414.904 676.915 415.912 676.915 417.576C676.915 419.224 678.867 420.216 681.955 420.216C685.027 420.216 686.995 419.224 686.995 417.576C686.995 415.912 685.027 414.904 681.955 414.904ZM681.955 415.944C684.227 415.944 685.667 416.568 685.667 417.576C685.667 418.568 684.227 419.192 681.955 419.192C679.683 419.192 678.227 418.568 678.227 417.576C678.227 416.568 679.683 415.944 681.955 415.944ZM677.027 406.504V407.592H686.339V406.504H677.027ZM675.475 412.52V413.592H688.531V412.52H675.475ZM680.835 409.736V412.824H682.147V409.736H680.835ZM685.571 406.504V407.736C685.571 408.872 685.571 409.928 685.171 411.416L686.483 411.576C686.867 410.072 686.867 408.904 686.867 407.736V406.504H685.571ZM693.138 414.408V416.76H694.466V414.408H693.138ZM699.218 405.784V420.248H700.546V405.784H699.218ZM700.114 411.928V413.048H702.786V411.928H700.114ZM689.41 417.496C691.938 417.496 695.33 417.48 698.45 416.92L698.338 415.928C695.346 416.36 691.81 416.392 689.218 416.392L689.41 417.496ZM689.458 407.528V408.6H698.114V407.528H689.458ZM693.794 409.448C691.778 409.448 690.402 410.504 690.402 412.12C690.402 413.752 691.778 414.792 693.794 414.792C695.81 414.792 697.202 413.752 697.202 412.12C697.202 410.504 695.81 409.448 693.794 409.448ZM693.794 410.472C695.09 410.472 695.954 411.128 695.954 412.12C695.954 413.112 695.09 413.768 693.794 413.768C692.498 413.768 691.65 413.112 691.65 412.12C691.65 411.128 692.498 410.472 693.794 410.472ZM693.138 405.8V408.248H694.466V405.8H693.138ZM704.976 406.456V407.544H714.288V406.456H704.976ZM703.312 411.64V412.728H716.416V411.64H703.312ZM709.184 412.376V415.784H710.496V412.376H709.184ZM713.424 406.456V407.528C713.424 408.696 713.424 410.072 712.944 412.008L714.24 412.168C714.72 410.184 714.72 408.728 714.72 407.528V406.456H713.424ZM704.672 415.352V416.44H713.488V420.248H714.816V415.352H704.672Z" fill="#555555"/>
<rect x="591" y="407" width="12" height="12" fill="#4C6EF5"/>
<rect x="748" y="411.5" width="28" height="1" fill="#E64980"/>
<path d="M785.408 415.672V416.776H786.544C789.248 416.776 791.136 416.696 793.376 416.312L793.232 415.224C791.056 415.608 789.216 415.672 786.544 415.672H785.408ZM785.408 407.096V416.056H786.736V408.2H792.144V407.096H785.408ZM786.4 411.144V412.216H791.824V411.144H786.4ZM794.576 405.784V420.248H795.92V405.784H794.576ZM795.6 411.592V412.712H798.288V411.592H795.6ZM802.543 407.848V410.2C802.543 412.696 800.799 415.416 798.703 416.408L799.471 417.464C801.775 416.328 803.615 413.256 803.615 410.2V407.848H802.543ZM802.799 407.848V410.2C802.799 413.208 804.655 416.024 806.991 417.112L807.743 416.056C805.615 415.144 803.871 412.648 803.871 410.2V407.848H802.799ZM799.183 407.256V408.376H807.263V407.256H799.183ZM809.215 405.784V420.248H810.543V405.784H809.215ZM819.037 407.288V407.432C819.037 411.384 817.485 414.616 812.909 416.856L813.629 417.896C818.845 415.336 820.318 411.464 820.318 407.288H819.037ZM813.693 407.288V408.36H819.709V407.288H813.693ZM818.845 410.872L812.973 411.256L813.197 412.424L818.845 411.896V410.872ZM823.165 405.784V420.248H824.493V405.784H823.165ZM832.348 406.776V407.88C832.348 410.344 829.628 412.552 827.084 413.032L827.676 414.136C830.572 413.48 833.5 411.032 833.5 407.88V406.776H832.348ZM832.588 406.776V407.88C832.588 411.048 835.532 413.48 838.412 414.136L839.004 413.032C836.476 412.552 833.74 410.36 833.74 407.88V406.776H832.588ZM826.556 417.208V418.296H839.66V417.208H826.556ZM841.131 413.224V414.296H842.235C845.195 414.296 846.859 414.232 848.827 413.88L848.683 412.808C846.763 413.16 845.147 413.224 842.235 413.224H841.131ZM841.131 406.936V413.576H842.443V408.024H847.739V406.936H841.131ZM842.027 410.024V411.08H847.467V410.024H842.027ZM850.363 405.768V416.504H851.691V405.768H850.363ZM851.275 410.28V411.384H853.835V410.28H851.275ZM842.683 418.84V419.928H852.347V418.84H842.683ZM842.683 415.544V419.432H844.011V415.544H842.683ZM860.874 414.904C857.786 414.904 855.834 415.912 855.834 417.576C855.834 419.224 857.786 420.216 860.874 420.216C863.946 420.216 865.914 419.224 865.914 417.576C865.914 415.912 863.946 414.904 860.874 414.904ZM860.874 415.944C863.146 415.944 864.586 416.568 864.586 417.576C864.586 418.568 863.146 419.192 860.874 419.192C858.602 419.192 857.146 418.568 857.146 417.576C857.146 416.568 858.602 415.944 860.874 415.944ZM855.946 406.504V407.592H865.258V406.504H855.946ZM854.394 412.52V413.592H867.45V412.52H854.394ZM859.754 409.736V412.824H861.066V409.736H859.754ZM864.49 406.504V407.736C864.49 408.872 864.49 409.928 864.09 411.416L865.402 411.576C865.786 410.072 865.786 408.904 865.786 407.736V406.504H864.49ZM872.056 414.408V416.76H873.384V414.408H872.056ZM878.136 405.784V420.248H879.464V405.784H878.136ZM879.032 411.928V413.048H881.704V411.928H879.032ZM868.328 417.496C870.856 417.496 874.248 417.48 877.368 416.92L877.256 415.928C874.264 416.36 870.728 416.392 868.136 416.392L868.328 417.496ZM868.376 407.528V408.6H877.032V407.528H868.376ZM872.712 409.448C870.696 409.448 869.32 410.504 869.32 412.12C869.32 413.752 870.696 414.792 872.712 414.792C874.728 414.792 876.12 413.752 876.12 412.12C876.12 410.504 874.728 409.448 872.712 409.448ZM872.712 410.472C874.008 410.472 874.872 411.128 874.872 412.12C874.872 413.112 874.008 413.768 872.712 413.768C871.416 413.768 870.568 413.112 870.568 412.12C870.568 411.128 871.416 410.472 872.712 410.472ZM872.056 405.8V408.248H873.384V405.8H872.056ZM883.895 406.456V407.544H893.207V406.456H883.895ZM882.231 411.64V412.728H895.335V411.64H882.231ZM888.103 412.376V415.784H889.415V412.376H888.103ZM892.343 406.456V407.528C892.343 408.696 892.343 410.072 891.863 412.008L893.159 412.168C893.639 410.184 893.639 408.728 893.639 407.528V406.456H892.343ZM883.591 415.352V416.44H892.407V420.248H893.735V415.352H883.591Z" fill="#555555"/>
<path d="M762 406L768.062 409.5V416.5L762 420L755.938 416.5V409.5L762 406Z" fill="#E64980"/>
<path d="M46.2508 375H51.8788V373.936H49.8068V364.738H48.8268C48.2808 365.074 47.6228 365.312 46.6988 365.466V366.292H48.5328V373.936H46.2508V375ZM55.3604 375.196C57.2924 375.196 59.0844 373.6 59.0844 369.428C59.0844 366.166 57.6144 364.556 55.6404 364.556C54.0444 364.556 52.7004 365.9 52.7004 367.888C52.7004 370.016 53.8064 371.108 55.5284 371.108C56.4104 371.108 57.3204 370.576 57.9644 369.764L57.8944 368.742C57.2224 369.764 56.4244 370.17 55.7384 370.17C54.5204 370.17 53.9044 369.26 53.9044 367.888C53.9044 366.474 54.6604 365.55 55.6404 365.55C57.0824 365.55 57.8804 366.908 57.8804 369.428C57.8804 372.942 56.6904 374.132 55.3184 374.132C54.6604 374.132 54.0304 373.838 53.5964 373.334L52.8824 374.146C53.4564 374.748 54.2404 375.196 55.3604 375.196ZM63.364 375.196C64.946 375.196 66.304 373.852 66.304 371.864C66.304 369.708 65.184 368.644 63.448 368.644C62.622 368.644 61.67 369.148 61.04 369.974L61.082 370.996C61.768 369.974 62.594 369.582 63.252 369.582C64.484 369.582 65.1 370.464 65.1 371.864C65.1 373.25 64.344 374.188 63.364 374.188C61.922 374.188 61.124 372.746 61.124 370.114C61.124 366.754 62.328 365.62 63.77 365.62C64.386 365.62 65.016 365.914 65.408 366.39L66.122 365.606C65.562 365.004 64.778 364.556 63.714 364.556C61.726 364.556 59.92 366.096 59.92 370.114C59.92 373.502 61.39 375.196 63.364 375.196ZM70.1076 375.196C72.0396 375.196 73.2856 373.418 73.2856 369.834C73.2856 366.278 72.0396 364.556 70.1076 364.556C68.1476 364.556 66.9016 366.278 66.9016 369.834C66.9016 373.418 68.1476 375.196 70.1076 375.196ZM70.1076 374.16C68.9316 374.16 68.1336 372.858 68.1336 369.834C68.1336 366.852 68.9316 365.578 70.1076 365.578C71.2696 365.578 72.0536 366.852 72.0536 369.834C72.0536 372.858 71.2696 374.16 70.1076 374.16Z" fill="#909399"/>
<path d="M131.251 375H136.879V373.936H134.807V364.738H133.827C133.281 365.074 132.623 365.312 131.699 365.466V366.292H133.533V373.936H131.251V375ZM140.36 375.196C142.292 375.196 144.084 373.6 144.084 369.428C144.084 366.166 142.614 364.556 140.64 364.556C139.044 364.556 137.7 365.9 137.7 367.888C137.7 370.016 138.806 371.108 140.528 371.108C141.41 371.108 142.32 370.576 142.964 369.764L142.894 368.742C142.222 369.764 141.424 370.17 140.738 370.17C139.52 370.17 138.904 369.26 138.904 367.888C138.904 366.474 139.66 365.55 140.64 365.55C142.082 365.55 142.88 366.908 142.88 369.428C142.88 372.942 141.69 374.132 140.318 374.132C139.66 374.132 139.03 373.838 138.596 373.334L137.882 374.146C138.456 374.748 139.24 375.196 140.36 375.196ZM148.364 375.196C149.946 375.196 151.304 373.852 151.304 371.864C151.304 369.708 150.184 368.644 148.448 368.644C147.622 368.644 146.67 369.148 146.04 369.974L146.082 370.996C146.768 369.974 147.594 369.582 148.252 369.582C149.484 369.582 150.1 370.464 150.1 371.864C150.1 373.25 149.344 374.188 148.364 374.188C146.922 374.188 146.124 372.746 146.124 370.114C146.124 366.754 147.328 365.62 148.77 365.62C149.386 365.62 150.016 365.914 150.408 366.39L151.122 365.606C150.562 365.004 149.778 364.556 148.714 364.556C146.726 364.556 144.92 366.096 144.92 370.114C144.92 373.502 146.39 375.196 148.364 375.196ZM154.87 375.196C156.592 375.196 158.23 373.908 158.23 371.668C158.23 369.4 156.844 368.392 155.136 368.392C154.52 368.392 154.058 368.546 153.596 368.798L153.862 365.83H157.74V364.738H152.742L152.42 369.54L153.106 369.974C153.694 369.582 154.128 369.358 154.814 369.358C156.088 369.358 156.928 370.24 156.928 371.71C156.928 373.194 155.962 374.132 154.744 374.132C153.568 374.132 152.812 373.586 152.238 372.984L151.594 373.824C152.294 374.524 153.274 375.196 154.87 375.196Z" fill="#909399"/>
<path d="M216.251 375H221.879V373.936H219.807V364.738H218.827C218.281 365.074 217.623 365.312 216.699 365.466V366.292H218.533V373.936H216.251V375ZM225.36 375.196C227.292 375.196 229.084 373.6 229.084 369.428C229.084 366.166 227.614 364.556 225.64 364.556C224.044 364.556 222.7 365.9 222.7 367.888C222.7 370.016 223.806 371.108 225.528 371.108C226.41 371.108 227.32 370.576 227.964 369.764L227.894 368.742C227.222 369.764 226.424 370.17 225.738 370.17C224.52 370.17 223.904 369.26 223.904 367.888C223.904 366.474 224.66 365.55 225.64 365.55C227.082 365.55 227.88 366.908 227.88 369.428C227.88 372.942 226.69 374.132 225.318 374.132C224.66 374.132 224.03 373.838 223.596 373.334L222.882 374.146C223.456 374.748 224.24 375.196 225.36 375.196ZM231.908 375H233.238C233.406 370.996 233.84 368.602 236.248 365.508V364.738H229.836V365.83H234.806C232.79 368.63 232.09 371.122 231.908 375ZM240.108 375.196C242.04 375.196 243.286 373.418 243.286 369.834C243.286 366.278 242.04 364.556 240.108 364.556C238.148 364.556 236.902 366.278 236.902 369.834C236.902 373.418 238.148 375.196 240.108 375.196ZM240.108 374.16C238.932 374.16 238.134 372.858 238.134 369.834C238.134 366.852 238.932 365.578 240.108 365.578C241.27 365.578 242.054 366.852 242.054 369.834C242.054 372.858 241.27 374.16 240.108 374.16Z" fill="#909399"/>
<path d="M301.251 375H306.879V373.936H304.807V364.738H303.827C303.281 365.074 302.623 365.312 301.699 365.466V366.292H303.533V373.936H301.251V375ZM310.36 375.196C312.292 375.196 314.084 373.6 314.084 369.428C314.084 366.166 312.614 364.556 310.64 364.556C309.044 364.556 307.7 365.9 307.7 367.888C307.7 370.016 308.806 371.108 310.528 371.108C311.41 371.108 312.32 370.576 312.964 369.764L312.894 368.742C312.222 369.764 311.424 370.17 310.738 370.17C309.52 370.17 308.904 369.26 308.904 367.888C308.904 366.474 309.66 365.55 310.64 365.55C312.082 365.55 312.88 366.908 312.88 369.428C312.88 372.942 311.69 374.132 310.318 374.132C309.66 374.132 309.03 373.838 308.596 373.334L307.882 374.146C308.456 374.748 309.24 375.196 310.36 375.196ZM316.908 375H318.238C318.406 370.996 318.84 368.602 321.248 365.508V364.738H314.836V365.83H319.806C317.79 368.63 317.09 371.122 316.908 375ZM324.87 375.196C326.592 375.196 328.23 373.908 328.23 371.668C328.23 369.4 326.844 368.392 325.136 368.392C324.52 368.392 324.058 368.546 323.596 368.798L323.862 365.83H327.74V364.738H322.742L322.42 369.54L323.106 369.974C323.694 369.582 324.128 369.358 324.814 369.358C326.088 369.358 326.928 370.24 326.928 371.71C326.928 373.194 325.962 374.132 324.744 374.132C323.568 374.132 322.812 373.586 322.238 372.984L321.594 373.824C322.294 374.524 323.274 375.196 324.87 375.196Z" fill="#909399"/>
<path d="M386.251 375H391.879V373.936H389.807V364.738H388.827C388.281 365.074 387.623 365.312 386.699 365.466V366.292H388.533V373.936H386.251V375ZM395.36 375.196C397.292 375.196 399.084 373.6 399.084 369.428C399.084 366.166 397.614 364.556 395.64 364.556C394.044 364.556 392.7 365.9 392.7 367.888C392.7 370.016 393.806 371.108 395.528 371.108C396.41 371.108 397.32 370.576 397.964 369.764L397.894 368.742C397.222 369.764 396.424 370.17 395.738 370.17C394.52 370.17 393.904 369.26 393.904 367.888C393.904 366.474 394.66 365.55 395.64 365.55C397.082 365.55 397.88 366.908 397.88 369.428C397.88 372.942 396.69 374.132 395.318 374.132C394.66 374.132 394.03 373.838 393.596 373.334L392.882 374.146C393.456 374.748 394.24 375.196 395.36 375.196ZM403.056 375.196C404.974 375.196 406.276 374.034 406.276 372.536C406.276 371.136 405.436 370.352 404.54 369.834V369.764C405.156 369.288 405.912 368.378 405.912 367.286C405.912 365.718 404.848 364.598 403.098 364.598C401.488 364.598 400.27 365.634 400.27 367.188C400.27 368.266 400.914 369.05 401.67 369.568V369.624C400.732 370.128 399.78 371.08 399.78 372.466C399.78 374.048 401.166 375.196 403.056 375.196ZM403.756 369.442C402.552 368.966 401.446 368.42 401.446 367.188C401.446 366.208 402.132 365.536 403.07 365.536C404.176 365.536 404.82 366.348 404.82 367.356C404.82 368.126 404.456 368.826 403.756 369.442ZM403.084 374.23C401.852 374.23 400.928 373.432 400.928 372.34C400.928 371.36 401.502 370.548 402.342 370.016C403.784 370.604 405.044 371.122 405.044 372.494C405.044 373.516 404.26 374.23 403.084 374.23ZM410.108 375.196C412.04 375.196 413.286 373.418 413.286 369.834C413.286 366.278 412.04 364.556 410.108 364.556C408.148 364.556 406.902 366.278 406.902 369.834C406.902 373.418 408.148 375.196 410.108 375.196ZM410.108 374.16C408.932 374.16 408.134 372.858 408.134 369.834C408.134 366.852 408.932 365.578 410.108 365.578C411.27 365.578 412.054 366.852 412.054 369.834C412.054 372.858 411.27 374.16 410.108 374.16Z" fill="#909399"/>
<path d="M471.251 375H476.879V373.936H474.807V364.738H473.827C473.281 365.074 472.623 365.312 471.699 365.466V366.292H473.533V373.936H471.251V375ZM480.36 375.196C482.292 375.196 484.084 373.6 484.084 369.428C484.084 366.166 482.614 364.556 480.64 364.556C479.044 364.556 477.7 365.9 477.7 367.888C477.7 370.016 478.806 371.108 480.528 371.108C481.41 371.108 482.32 370.576 482.964 369.764L482.894 368.742C482.222 369.764 481.424 370.17 480.738 370.17C479.52 370.17 478.904 369.26 478.904 367.888C478.904 366.474 479.66 365.55 480.64 365.55C482.082 365.55 482.88 366.908 482.88 369.428C482.88 372.942 481.69 374.132 480.318 374.132C479.66 374.132 479.03 373.838 478.596 373.334L477.882 374.146C478.456 374.748 479.24 375.196 480.36 375.196ZM488.056 375.196C489.974 375.196 491.276 374.034 491.276 372.536C491.276 371.136 490.436 370.352 489.54 369.834V369.764C490.156 369.288 490.912 368.378 490.912 367.286C490.912 365.718 489.848 364.598 488.098 364.598C486.488 364.598 485.27 365.634 485.27 367.188C485.27 368.266 485.914 369.05 486.67 369.568V369.624C485.732 370.128 484.78 371.08 484.78 372.466C484.78 374.048 486.166 375.196 488.056 375.196ZM488.756 369.442C487.552 368.966 486.446 368.42 486.446 367.188C486.446 366.208 487.132 365.536 488.07 365.536C489.176 365.536 489.82 366.348 489.82 367.356C489.82 368.126 489.456 368.826 488.756 369.442ZM488.084 374.23C486.852 374.23 485.928 373.432 485.928 372.34C485.928 371.36 486.502 370.548 487.342 370.016C488.784 370.604 490.044 371.122 490.044 372.494C490.044 373.516 489.26 374.23 488.084 374.23ZM494.87 375.196C496.592 375.196 498.23 373.908 498.23 371.668C498.23 369.4 496.844 368.392 495.136 368.392C494.52 368.392 494.058 368.546 493.596 368.798L493.862 365.83H497.74V364.738H492.742L492.42 369.54L493.106 369.974C493.694 369.582 494.128 369.358 494.814 369.358C496.088 369.358 496.928 370.24 496.928 371.71C496.928 373.194 495.962 374.132 494.744 374.132C493.568 374.132 492.812 373.586 492.238 372.984L491.594 373.824C492.294 374.524 493.274 375.196 494.87 375.196Z" fill="#909399"/>
<path d="M556.251 375H561.879V373.936H559.807V364.738H558.827C558.281 365.074 557.623 365.312 556.699 365.466V366.292H558.533V373.936H556.251V375ZM565.36 375.196C567.292 375.196 569.084 373.6 569.084 369.428C569.084 366.166 567.614 364.556 565.64 364.556C564.044 364.556 562.7 365.9 562.7 367.888C562.7 370.016 563.806 371.108 565.528 371.108C566.41 371.108 567.32 370.576 567.964 369.764L567.894 368.742C567.222 369.764 566.424 370.17 565.738 370.17C564.52 370.17 563.904 369.26 563.904 367.888C563.904 366.474 564.66 365.55 565.64 365.55C567.082 365.55 567.88 366.908 567.88 369.428C567.88 372.942 566.69 374.132 565.318 374.132C564.66 374.132 564.03 373.838 563.596 373.334L562.882 374.146C563.456 374.748 564.24 375.196 565.36 375.196ZM572.426 375.196C574.358 375.196 576.15 373.6 576.15 369.428C576.15 366.166 574.68 364.556 572.706 364.556C571.11 364.556 569.766 365.9 569.766 367.888C569.766 370.016 570.872 371.108 572.594 371.108C573.476 371.108 574.386 370.576 575.03 369.764L574.96 368.742C574.288 369.764 573.49 370.17 572.804 370.17C571.586 370.17 570.97 369.26 570.97 367.888C570.97 366.474 571.726 365.55 572.706 365.55C574.148 365.55 574.946 366.908 574.946 369.428C574.946 372.942 573.756 374.132 572.384 374.132C571.726 374.132 571.096 373.838 570.662 373.334L569.948 374.146C570.522 374.748 571.306 375.196 572.426 375.196ZM580.108 375.196C582.04 375.196 583.286 373.418 583.286 369.834C583.286 366.278 582.04 364.556 580.108 364.556C578.148 364.556 576.902 366.278 576.902 369.834C576.902 373.418 578.148 375.196 580.108 375.196ZM580.108 374.16C578.932 374.16 578.134 372.858 578.134 369.834C578.134 366.852 578.932 365.578 580.108 365.578C581.27 365.578 582.054 366.852 582.054 369.834C582.054 372.858 581.27 374.16 580.108 374.16Z" fill="#909399"/>
<path d="M641.251 375H646.879V373.936H644.807V364.738H643.827C643.281 365.074 642.623 365.312 641.699 365.466V366.292H643.533V373.936H641.251V375ZM650.36 375.196C652.292 375.196 654.084 373.6 654.084 369.428C654.084 366.166 652.614 364.556 650.64 364.556C649.044 364.556 647.7 365.9 647.7 367.888C647.7 370.016 648.806 371.108 650.528 371.108C651.41 371.108 652.32 370.576 652.964 369.764L652.894 368.742C652.222 369.764 651.424 370.17 650.738 370.17C649.52 370.17 648.904 369.26 648.904 367.888C648.904 366.474 649.66 365.55 650.64 365.55C652.082 365.55 652.88 366.908 652.88 369.428C652.88 372.942 651.69 374.132 650.318 374.132C649.66 374.132 649.03 373.838 648.596 373.334L647.882 374.146C648.456 374.748 649.24 375.196 650.36 375.196ZM657.426 375.196C659.358 375.196 661.15 373.6 661.15 369.428C661.15 366.166 659.68 364.556 657.706 364.556C656.11 364.556 654.766 365.9 654.766 367.888C654.766 370.016 655.872 371.108 657.594 371.108C658.476 371.108 659.386 370.576 660.03 369.764L659.96 368.742C659.288 369.764 658.49 370.17 657.804 370.17C656.586 370.17 655.97 369.26 655.97 367.888C655.97 366.474 656.726 365.55 657.706 365.55C659.148 365.55 659.946 366.908 659.946 369.428C659.946 372.942 658.756 374.132 657.384 374.132C656.726 374.132 656.096 373.838 655.662 373.334L654.948 374.146C655.522 374.748 656.306 375.196 657.426 375.196ZM664.87 375.196C666.592 375.196 668.23 373.908 668.23 371.668C668.23 369.4 666.844 368.392 665.136 368.392C664.52 368.392 664.058 368.546 663.596 368.798L663.862 365.83H667.74V364.738H662.742L662.42 369.54L663.106 369.974C663.694 369.582 664.128 369.358 664.814 369.358C666.088 369.358 666.928 370.24 666.928 371.71C666.928 373.194 665.962 374.132 664.744 374.132C663.568 374.132 662.812 373.586 662.238 372.984L661.594 373.824C662.294 374.524 663.274 375.196 664.87 375.196Z" fill="#909399"/>
<path d="M725.635 375H732.075V373.908H729.233C728.715 373.908 728.099 373.95 727.553 374.006C729.975 371.724 731.585 369.638 731.585 367.58C731.585 365.746 730.437 364.556 728.603 364.556C727.301 364.556 726.405 365.158 725.565 366.068L726.307 366.782C726.881 366.11 727.609 365.592 728.449 365.592C729.723 365.592 730.325 366.46 730.325 367.636C730.325 369.386 728.855 371.444 725.635 374.258V375ZM735.976 375.196C737.908 375.196 739.154 373.418 739.154 369.834C739.154 366.278 737.908 364.556 735.976 364.556C734.016 364.556 732.77 366.278 732.77 369.834C732.77 373.418 734.016 375.196 735.976 375.196ZM735.976 374.16C734.8 374.16 734.002 372.858 734.002 369.834C734.002 366.852 734.8 365.578 735.976 365.578C737.138 365.578 737.922 366.852 737.922 369.834C737.922 372.858 737.138 374.16 735.976 374.16ZM743.042 375.196C744.974 375.196 746.22 373.418 746.22 369.834C746.22 366.278 744.974 364.556 743.042 364.556C741.082 364.556 739.836 366.278 739.836 369.834C739.836 373.418 741.082 375.196 743.042 375.196ZM743.042 374.16C741.866 374.16 741.068 372.858 741.068 369.834C741.068 366.852 741.866 365.578 743.042 365.578C744.204 365.578 744.988 366.852 744.988 369.834C744.988 372.858 744.204 374.16 743.042 374.16ZM750.108 375.196C752.04 375.196 753.286 373.418 753.286 369.834C753.286 366.278 752.04 364.556 750.108 364.556C748.148 364.556 746.902 366.278 746.902 369.834C746.902 373.418 748.148 375.196 750.108 375.196ZM750.108 374.16C748.932 374.16 748.134 372.858 748.134 369.834C748.134 366.852 748.932 365.578 750.108 365.578C751.27 365.578 752.054 366.852 752.054 369.834C752.054 372.858 751.27 374.16 750.108 374.16Z" fill="#909399"/>
<path d="M810.635 375H817.075V373.908H814.233C813.715 373.908 813.099 373.95 812.553 374.006C814.975 371.724 816.585 369.638 816.585 367.58C816.585 365.746 815.437 364.556 813.603 364.556C812.301 364.556 811.405 365.158 810.565 366.068L811.307 366.782C811.881 366.11 812.609 365.592 813.449 365.592C814.723 365.592 815.325 366.46 815.325 367.636C815.325 369.386 813.855 371.444 810.635 374.258V375ZM820.976 375.196C822.908 375.196 824.154 373.418 824.154 369.834C824.154 366.278 822.908 364.556 820.976 364.556C819.016 364.556 817.77 366.278 817.77 369.834C817.77 373.418 819.016 375.196 820.976 375.196ZM820.976 374.16C819.8 374.16 819.002 372.858 819.002 369.834C819.002 366.852 819.8 365.578 820.976 365.578C822.138 365.578 822.922 366.852 822.922 369.834C822.922 372.858 822.138 374.16 820.976 374.16ZM828.042 375.196C829.974 375.196 831.22 373.418 831.22 369.834C831.22 366.278 829.974 364.556 828.042 364.556C826.082 364.556 824.836 366.278 824.836 369.834C824.836 373.418 826.082 375.196 828.042 375.196ZM828.042 374.16C826.866 374.16 826.068 372.858 826.068 369.834C826.068 366.852 826.866 365.578 828.042 365.578C829.204 365.578 829.988 366.852 829.988 369.834C829.988 372.858 829.204 374.16 828.042 374.16ZM834.87 375.196C836.592 375.196 838.23 373.908 838.23 371.668C838.23 369.4 836.844 368.392 835.136 368.392C834.52 368.392 834.058 368.546 833.596 368.798L833.862 365.83H837.74V364.738H832.742L832.42 369.54L833.106 369.974C833.694 369.582 834.128 369.358 834.814 369.358C836.088 369.358 836.928 370.24 836.928 371.71C836.928 373.194 835.962 374.132 834.744 374.132C833.568 374.132 832.812 373.586 832.238 372.984L831.594 373.824C832.294 374.524 833.274 375.196 834.87 375.196Z" fill="#909399"/>
<path d="M895.635 375H902.075V373.908H899.233C898.715 373.908 898.099 373.95 897.553 374.006C899.975 371.724 901.585 369.638 901.585 367.58C901.585 365.746 900.437 364.556 898.603 364.556C897.301 364.556 896.405 365.158 895.565 366.068L896.307 366.782C896.881 366.11 897.609 365.592 898.449 365.592C899.723 365.592 900.325 366.46 900.325 367.636C900.325 369.386 898.855 371.444 895.635 374.258V375ZM905.976 375.196C907.908 375.196 909.154 373.418 909.154 369.834C909.154 366.278 907.908 364.556 905.976 364.556C904.016 364.556 902.77 366.278 902.77 369.834C902.77 373.418 904.016 375.196 905.976 375.196ZM905.976 374.16C904.8 374.16 904.002 372.858 904.002 369.834C904.002 366.852 904.8 365.578 905.976 365.578C907.138 365.578 907.922 366.852 907.922 369.834C907.922 372.858 907.138 374.16 905.976 374.16ZM910.382 375H916.01V373.936H913.938V364.738H912.958C912.412 365.074 911.754 365.312 910.83 365.466V366.292H912.664V373.936H910.382V375ZM920.108 375.196C922.04 375.196 923.286 373.418 923.286 369.834C923.286 366.278 922.04 364.556 920.108 364.556C918.148 364.556 916.902 366.278 916.902 369.834C916.902 373.418 918.148 375.196 920.108 375.196ZM920.108 374.16C918.932 374.16 918.134 372.858 918.134 369.834C918.134 366.852 918.932 365.578 920.108 365.578C921.27 365.578 922.054 366.852 922.054 369.834C922.054 372.858 921.27 374.16 920.108 374.16Z" fill="#909399"/>
<path d="M980.635 375H987.075V373.908H984.233C983.715 373.908 983.099 373.95 982.553 374.006C984.975 371.724 986.585 369.638 986.585 367.58C986.585 365.746 985.437 364.556 983.603 364.556C982.301 364.556 981.405 365.158 980.565 366.068L981.307 366.782C981.881 366.11 982.609 365.592 983.449 365.592C984.723 365.592 985.325 366.46 985.325 367.636C985.325 369.386 983.855 371.444 980.635 374.258V375ZM990.976 375.196C992.908 375.196 994.154 373.418 994.154 369.834C994.154 366.278 992.908 364.556 990.976 364.556C989.016 364.556 987.77 366.278 987.77 369.834C987.77 373.418 989.016 375.196 990.976 375.196ZM990.976 374.16C989.8 374.16 989.002 372.858 989.002 369.834C989.002 366.852 989.8 365.578 990.976 365.578C992.138 365.578 992.922 366.852 992.922 369.834C992.922 372.858 992.138 374.16 990.976 374.16ZM995.382 375H1001.01V373.936H998.938V364.738H997.958C997.412 365.074 996.754 365.312 995.83 365.466V366.292H997.664V373.936H995.382V375ZM1004.87 375.196C1006.59 375.196 1008.23 373.908 1008.23 371.668C1008.23 369.4 1006.84 368.392 1005.14 368.392C1004.52 368.392 1004.06 368.546 1003.6 368.798L1003.86 365.83H1007.74V364.738H1002.74L1002.42 369.54L1003.11 369.974C1003.69 369.582 1004.13 369.358 1004.81 369.358C1006.09 369.358 1006.93 370.24 1006.93 371.71C1006.93 373.194 1005.96 374.132 1004.74 374.132C1003.57 374.132 1002.81 373.586 1002.24 372.984L1001.59 373.824C1002.29 374.524 1003.27 375.196 1004.87 375.196Z" fill="#909399"/>
<path d="M1065.63 375H1072.07V373.908H1069.23C1068.71 373.908 1068.1 373.95 1067.55 374.006C1069.97 371.724 1071.58 369.638 1071.58 367.58C1071.58 365.746 1070.44 364.556 1068.6 364.556C1067.3 364.556 1066.4 365.158 1065.56 366.068L1066.31 366.782C1066.88 366.11 1067.61 365.592 1068.45 365.592C1069.72 365.592 1070.32 366.46 1070.32 367.636C1070.32 369.386 1068.85 371.444 1065.63 374.258V375ZM1075.98 375.196C1077.91 375.196 1079.15 373.418 1079.15 369.834C1079.15 366.278 1077.91 364.556 1075.98 364.556C1074.02 364.556 1072.77 366.278 1072.77 369.834C1072.77 373.418 1074.02 375.196 1075.98 375.196ZM1075.98 374.16C1074.8 374.16 1074 372.858 1074 369.834C1074 366.852 1074.8 365.578 1075.98 365.578C1077.14 365.578 1077.92 366.852 1077.92 369.834C1077.92 372.858 1077.14 374.16 1075.98 374.16ZM1079.77 375H1086.21V373.908H1083.36C1082.85 373.908 1082.23 373.95 1081.68 374.006C1084.11 371.724 1085.72 369.638 1085.72 367.58C1085.72 365.746 1084.57 364.556 1082.73 364.556C1081.43 364.556 1080.54 365.158 1079.7 366.068L1080.44 366.782C1081.01 366.11 1081.74 365.592 1082.58 365.592C1083.85 365.592 1084.46 366.46 1084.46 367.636C1084.46 369.386 1082.99 371.444 1079.77 374.258V375ZM1090.11 375.196C1092.04 375.196 1093.29 373.418 1093.29 369.834C1093.29 366.278 1092.04 364.556 1090.11 364.556C1088.15 364.556 1086.9 366.278 1086.9 369.834C1086.9 373.418 1088.15 375.196 1090.11 375.196ZM1090.11 374.16C1088.93 374.16 1088.13 372.858 1088.13 369.834C1088.13 366.852 1088.93 365.578 1090.11 365.578C1091.27 365.578 1092.05 366.852 1092.05 369.834C1092.05 372.858 1091.27 374.16 1090.11 374.16Z" fill="#909399"/>
<path d="M36 37H1111" stroke="#DADADA" stroke-dasharray="2 2"/>
<path d="M36 90H1111" stroke="#DADADA" stroke-dasharray="2 2"/>
<path d="M36 143H1111" stroke="#DADADA" stroke-dasharray="2 2"/>
<path d="M36 196H1111" stroke="#DADADA" stroke-dasharray="2 2"/>
<path d="M36 249H1111" stroke="#DADADA" stroke-dasharray="2 2"/>
<path d="M36 302H1111" stroke="#DADADA" stroke-dasharray="2 2"/>
<path d="M36 355H1111" stroke="#DADADA"/>
<rect x="654" y="126" width="10" height="10" transform="rotate(45 654 126)" fill="#3BC9DB"/>
<rect x="824.071" y="126" width="10" height="10" transform="rotate(45 824.071 126)" fill="#3BC9DB"/>
<rect x="909" y="186" width="10" height="10" transform="rotate(45 909 186)" fill="#3BC9DB"/>
<rect x="994.071" y="246" width="10" height="10" transform="rotate(45 994.071 246)" fill="#3BC9DB"/>
<rect x="569" y="234" width="10" height="10" transform="rotate(45 569 234)" fill="#3BC9DB"/>
<path d="M10.7384 149.196C12.4604 149.196 14.0984 147.908 14.0984 145.668C14.0984 143.4 12.7124 142.392 11.0044 142.392C10.3884 142.392 9.92638 142.546 9.46437 142.798L9.73038 139.83H13.6084V138.738H8.61037L8.28837 143.54L8.97437 143.974C9.56237 143.582 9.99637 143.358 10.6824 143.358C11.9564 143.358 12.7964 144.24 12.7964 145.71C12.7964 147.194 11.8304 148.132 10.6124 148.132C9.43638 148.132 8.68038 147.586 8.10637 146.984L7.46237 147.824C8.16238 148.524 9.14237 149.196 10.7384 149.196ZM18.042 149.196C19.974 149.196 21.22 147.418 21.22 143.834C21.22 140.278 19.974 138.556 18.042 138.556C16.082 138.556 14.836 140.278 14.836 143.834C14.836 147.418 16.082 149.196 18.042 149.196ZM18.042 148.16C16.866 148.16 16.068 146.858 16.068 143.834C16.068 140.852 16.866 139.578 18.042 139.578C19.204 139.578 19.988 140.852 19.988 143.834C19.988 146.858 19.204 148.16 18.042 148.16Z" fill="#909399"/>
<path d="M9.84238 96H11.1724C11.3404 91.996 11.7744 89.602 14.1824 86.508V85.738H7.77037V86.83H12.7404C10.7244 89.63 10.0244 92.122 9.84238 96ZM17.804 96.196C19.526 96.196 21.164 94.908 21.164 92.668C21.164 90.4 19.778 89.392 18.07 89.392C17.454 89.392 16.992 89.546 16.53 89.798L16.796 86.83H20.674V85.738H15.676L15.354 90.54L16.04 90.974C16.628 90.582 17.062 90.358 17.748 90.358C19.022 90.358 19.862 91.24 19.862 92.71C19.862 94.194 18.896 95.132 17.678 95.132C16.502 95.132 15.746 94.586 15.172 93.984L14.528 94.824C15.228 95.524 16.208 96.196 17.804 96.196Z" fill="#909399"/>
<path d="M1.28356 43H6.91156V41.936H4.83956V32.738H3.85956C3.31356 33.074 2.65556 33.312 1.73156 33.466V34.292H3.56556V41.936H1.28356V43ZM11.0092 43.196C12.9412 43.196 14.1872 41.418 14.1872 37.834C14.1872 34.278 12.9412 32.556 11.0092 32.556C9.04919 32.556 7.80319 34.278 7.80319 37.834C7.80319 41.418 9.04919 43.196 11.0092 43.196ZM11.0092 42.16C9.83319 42.16 9.03519 40.858 9.03519 37.834C9.03519 34.852 9.83319 33.578 11.0092 33.578C12.1712 33.578 12.9552 34.852 12.9552 37.834C12.9552 40.858 12.1712 42.16 11.0092 42.16ZM18.0748 43.196C20.0068 43.196 21.2528 41.418 21.2528 37.834C21.2528 34.278 20.0068 32.556 18.0748 32.556C16.1148 32.556 14.8688 34.278 14.8688 37.834C14.8688 41.418 16.1148 43.196 18.0748 43.196ZM18.0748 42.16C16.8988 42.16 16.1008 40.858 16.1008 37.834C16.1008 34.852 16.8988 33.578 18.0748 33.578C19.2368 33.578 20.0208 34.852 20.0208 37.834C20.0208 40.858 19.2368 42.16 18.0748 42.16Z" fill="#909399"/>
<path d="M10.7664 202.196C12.6004 202.196 14.0704 201.09 14.0704 199.27C14.0704 197.856 13.0904 196.946 11.8864 196.652V196.596C12.9784 196.204 13.7064 195.378 13.7064 194.132C13.7064 192.494 12.4464 191.556 10.7244 191.556C9.54838 191.556 8.63838 192.074 7.86837 192.774L8.55437 193.6C9.12838 193.012 9.85638 192.592 10.6824 192.592C11.7464 192.592 12.4044 193.236 12.4044 194.216C12.4044 195.336 11.6904 196.176 9.57637 196.176V197.17C11.9424 197.17 12.7684 197.982 12.7684 199.214C12.7684 200.39 11.9004 201.132 10.6824 201.132C9.50638 201.132 8.73638 200.572 8.13437 199.942L7.49037 200.782C8.16238 201.524 9.15637 202.196 10.7664 202.196ZM17.804 202.196C19.526 202.196 21.164 200.908 21.164 198.668C21.164 196.4 19.778 195.392 18.07 195.392C17.454 195.392 16.992 195.546 16.53 195.798L16.796 192.83H20.674V191.738H15.676L15.354 196.54L16.04 196.974C16.628 196.582 17.062 196.358 17.748 196.358C19.022 196.358 19.862 197.24 19.862 198.71C19.862 200.194 18.896 201.132 17.678 201.132C16.502 201.132 15.746 200.586 15.172 199.984L14.528 200.824C15.228 201.524 16.208 202.196 17.804 202.196Z" fill="#909399"/>
<path d="M10.3164 255H15.9444V253.936H13.8724V244.738H12.8924C12.3464 245.074 11.6884 245.312 10.7644 245.466V246.292H12.5984V253.936H10.3164V255ZM20.042 255.196C21.974 255.196 23.22 253.418 23.22 249.834C23.22 246.278 21.974 244.556 20.042 244.556C18.082 244.556 16.836 246.278 16.836 249.834C16.836 253.418 18.082 255.196 20.042 255.196ZM20.042 254.16C18.866 254.16 18.068 252.858 18.068 249.834C18.068 246.852 18.866 245.578 20.042 245.578C21.204 245.578 21.988 246.852 21.988 249.834C21.988 252.858 21.204 254.16 20.042 254.16Z" fill="#909399"/>
<path d="M17.7712 308.196C19.4932 308.196 21.1312 306.908 21.1312 304.668C21.1312 302.4 19.7452 301.392 18.0372 301.392C17.4212 301.392 16.9592 301.546 16.4972 301.798L16.7632 298.83H20.6412V297.738H15.6432L15.3212 302.54L16.0072 302.974C16.5952 302.582 17.0292 302.358 17.7152 302.358C18.9892 302.358 19.8292 303.24 19.8292 304.71C19.8292 306.194 18.8632 307.132 17.6452 307.132C16.4692 307.132 15.7132 306.586 15.1392 305.984L14.4952 306.824C15.1952 307.524 16.1752 308.196 17.7712 308.196Z" fill="#909399"/>
<path d="M20.0092 361.196C21.9412 361.196 23.1872 359.418 23.1872 355.834C23.1872 352.278 21.9412 350.556 20.0092 350.556C18.0492 350.556 16.8032 352.278 16.8032 355.834C16.8032 359.418 18.0492 361.196 20.0092 361.196ZM20.0092 360.16C18.8332 360.16 18.0352 358.858 18.0352 355.834C18.0352 352.852 18.8332 351.578 20.0092 351.578C21.1712 351.578 21.9552 352.852 21.9552 355.834C21.9552 358.858 21.1712 360.16 20.0092 360.16Z" fill="#909399"/>
<path d="M9.6977 1.422V10.592H10.8597V1.422H9.6977ZM10.5097 5.188V6.154H12.7357V5.188H10.5097ZM1.6197 7.4V8.366H2.5997C5.2597 8.366 6.7577 8.282 8.4937 7.918L8.3677 6.98C6.6737 7.33 5.2037 7.4 2.5997 7.4H1.6197ZM1.6197 2.514V7.918H2.7677V3.48H7.2057V2.514H1.6197ZM2.9777 12.86V13.812H11.4337V12.86H2.9777ZM2.9777 9.682V13.294H4.1397V9.682H2.9777ZM17.3546 2.024C15.4786 2.024 14.1346 3.074 14.1346 4.628C14.1346 6.168 15.4786 7.246 17.3546 7.246C19.2446 7.246 20.5886 6.168 20.5886 4.628C20.5886 3.074 19.2446 2.024 17.3546 2.024ZM17.3546 2.99C18.5866 2.99 19.4686 3.662 19.4686 4.628C19.4686 5.608 18.5866 6.266 17.3546 6.266C16.1226 6.266 15.2406 5.608 15.2406 4.628C15.2406 3.662 16.1226 2.99 17.3546 2.99ZM16.8366 8.646V13.7H17.9986V8.646H16.8366ZM22.4366 1.436V14.106H23.5846V1.436H22.4366ZM13.3506 9.276C15.6606 9.276 18.7686 9.234 21.6246 8.716L21.5406 7.848C18.7546 8.268 15.5486 8.296 13.1966 8.296L13.3506 9.276ZM29.0664 7.54C29.5844 7.54 30.0044 7.148 30.0044 6.574C30.0044 5.986 29.5844 5.594 29.0664 5.594C28.5624 5.594 28.1564 5.986 28.1564 6.574C28.1564 7.148 28.5624 7.54 29.0664 7.54ZM29.0664 13.196C29.5844 13.196 30.0044 12.79 30.0044 12.216C30.0044 11.628 29.5844 11.236 29.0664 11.236C28.5624 11.236 28.1564 11.628 28.1564 12.216C28.1564 12.79 28.5624 13.196 29.0664 13.196ZM35.6317 9.024C37.0457 9.024 37.9697 7.848 37.9697 5.776C37.9697 3.718 37.0457 2.556 35.6317 2.556C34.2177 2.556 33.2937 3.718 33.2937 5.776C33.2937 7.848 34.2177 9.024 35.6317 9.024ZM35.6317 8.24C34.8197 8.24 34.2597 7.4 34.2597 5.776C34.2597 4.138 34.8197 3.34 35.6317 3.34C36.4437 3.34 36.9897 4.138 36.9897 5.776C36.9897 7.4 36.4437 8.24 35.6317 8.24ZM35.9257 13.196H36.7937L42.4497 2.556H41.5817L35.9257 13.196ZM42.7857 13.196C44.1717 13.196 45.1097 12.02 45.1097 9.934C45.1097 7.89 44.1717 6.714 42.7857 6.714C41.3717 6.714 40.4477 7.89 40.4477 9.934C40.4477 12.02 41.3717 13.196 42.7857 13.196ZM42.7857 12.412C41.9737 12.412 41.4137 11.572 41.4137 9.934C41.4137 8.296 41.9737 7.512 42.7857 7.512C43.5837 7.512 44.1437 8.296 44.1437 9.934C44.1437 11.572 43.5837 12.412 42.7857 12.412Z" fill="#909399"/>
<path d="M569 298L575.928 310H562.072L569 298Z" fill="#F08200"/>
<path d="M654 308L660.928 320H647.072L654 308Z" fill="#F08200"/>
<path d="M739 318L745.928 330H732.072L739 318Z" fill="#F08200"/>
<path d="M824 268L830.928 280H817.072L824 268Z" fill="#F08200"/>
<path d="M909 298L915.928 310H902.072L909 298Z" fill="#F08200"/>
<path d="M994 298L1000.93 310H987.072L994 298Z" fill="#F08200"/>
<path d="M1079 258L1085.93 270H1072.07L1079 258Z" fill="#F08200"/>
<rect x="818" y="158.445" width="12" height="11.9632" rx="5.9816" fill="#228BE6"/>
<rect x="733" y="158.445" width="12" height="11.9632" rx="5.9816" fill="#228BE6"/>
<rect x="648" y="168.322" width="12" height="11.9632" rx="5.9816" fill="#228BE6"/>
<rect x="563" y="277.984" width="12" height="11.9631" rx="5.98157" fill="#228BE6"/>
<rect x="903" y="208.199" width="12" height="11.9631" rx="5.98154" fill="#228BE6"/>
<rect x="988" y="168.322" width="12" height="11.9632" rx="5.9816" fill="#228BE6"/>
<rect x="1071" y="128.445" width="12" height="11.9632" rx="5.9816" fill="#228BE6"/>
</svg>
