<svg width="32" height="24" viewBox="0 0 32 24" fill="none" xmlns="http://www.w3.org/2000/svg">
<mask id="mask0_55_13849" style="mask-type:alpha" maskUnits="userSpaceOnUse" x="0" y="0" width="32" height="24">
<rect width="32" height="24" fill="white"/>
</mask>
<g mask="url(#mask0_55_13849)">
<path fill-rule="evenodd" clip-rule="evenodd" d="M0 0H32V24H0V0Z" fill="#C51918"/>
<path fill-rule="evenodd" clip-rule="evenodd" d="M6 6H26V18H6V6Z" fill="#FECA00"/>
<mask id="mask1_55_13849" style="mask-type:alpha" maskUnits="userSpaceOnUse" x="6" y="6" width="20" height="12">
<path fill-rule="evenodd" clip-rule="evenodd" d="M6 6H26V18H6V6Z" fill="white"/>
</mask>
<g mask="url(#mask1_55_13849)">
<path fill-rule="evenodd" clip-rule="evenodd" d="M6 6L16 12L6 18V6Z" fill="#23875F"/>
<path fill-rule="evenodd" clip-rule="evenodd" d="M26 6L16 12L26 18V6Z" fill="#23875F"/>
<mask id="mask2_55_13849" style="mask-type:alpha" maskUnits="userSpaceOnUse" x="16" y="6" width="10" height="12">
<path fill-rule="evenodd" clip-rule="evenodd" d="M26 6L16 12L26 18V6Z" fill="white"/>
</mask>
<g mask="url(#mask2_55_13849)">
</g>
<path fill-rule="evenodd" clip-rule="evenodd" d="M16 16C18.2091 16 20 14.2091 20 12C20 9.79086 18.2091 8 16 8C13.7909 8 12 9.79086 12 12C12 14.2091 13.7909 16 16 16Z" fill="#C51918"/>
<path fill-rule="evenodd" clip-rule="evenodd" d="M15.9295 13.3133L13.8585 14.7497L14.5203 12.2894L13 10.7178L15.0585 10.6328L15.9295 8.20001L16.8004 10.6328H18.8554L17.3386 12.2894L18.0983 14.6045L15.9295 13.3133Z" fill="#FECA00"/>
</g>
<path fill-rule="evenodd" clip-rule="evenodd" d="M8.77672 4.44203L9.90849 3.74023L11.0937 4.37109L10.6786 3.24002L11.5075 2.43065H10.3844L9.90849 1.24203L9.43252 2.43065L8.30753 2.47217L9.13836 3.24002L8.77672 4.44203ZM14.7767 4.44203L15.9085 3.74023L17.0937 4.37109L16.6786 3.24002L17.5075 2.43065H16.3844L15.9085 1.24203L15.4325 2.43065L14.3075 2.47217L15.1384 3.24002L14.7767 4.44203ZM21.9085 3.74023L20.7767 4.44203L21.1384 3.24002L20.3075 2.47217L21.4325 2.43065L21.9085 1.24203L22.3844 2.43065H23.5075L22.6786 3.24002L23.0937 4.37109L21.9085 3.74023ZM8.77576 22.1672L9.90753 21.4654L11.0928 22.0962L10.6777 20.9651L11.5066 20.1558H10.3835L9.90753 18.9672L9.43157 20.1558L8.30657 20.1973L9.1374 20.9651L8.77576 22.1672ZM15.9075 21.4654L14.7758 22.1672L15.1374 20.9651L14.3066 20.1973L15.4316 20.1558L15.9075 18.9672L16.3835 20.1558H17.5066L16.6777 20.9651L17.0928 22.0962L15.9075 21.4654ZM20.7758 22.1672L21.9075 21.4654L23.0928 22.0962L22.6777 20.9651L23.5066 20.1558H22.3835L21.9075 18.9672L21.4316 20.1558L20.3066 20.1973L21.1374 20.9651L20.7758 22.1672Z" fill="#FECA00"/>
<path fill-rule="evenodd" clip-rule="evenodd" d="M8.63472 12.772C8.63472 12.772 9.17328 13.2514 9.4666 13.4147C9.56774 13.0314 9.34208 12.1629 9.34208 12.1629C9.27876 11.9553 8.58427 11.5831 8.58427 11.5831C8.58427 11.5831 8.3892 12.2385 8.63472 12.772Z" fill="#C51918"/>
<path fill-rule="evenodd" clip-rule="evenodd" d="M9.19575 13.9302C9.19575 13.9302 7.81251 13.2841 7.67195 12.3703C7.53139 11.4565 7.82949 9.99976 7.82949 9.99976C7.82949 9.99976 10.0757 10.5109 10.2285 11.6061C10.3813 12.7013 9.874 13.3894 9.874 13.3894C9.874 13.3894 9.35445 12.0543 8.86417 11.9062C8.86417 11.9062 8.86417 13.2293 9.19575 13.9302Z" fill="#FECA00"/>
</g>
</svg>
