<svg width="32" height="24" viewBox="0 0 32 24" fill="none" xmlns="http://www.w3.org/2000/svg">
<mask id="mask0_55_13680" style="mask-type:alpha" maskUnits="userSpaceOnUse" x="0" y="0" width="32" height="24">
<rect width="32" height="24" fill="white"/>
</mask>
<g mask="url(#mask0_55_13680)">
<path fill-rule="evenodd" clip-rule="evenodd" d="M0 0V24H32V0H0Z" fill="#C51918"/>
<mask id="mask1_55_13680" style="mask-type:alpha" maskUnits="userSpaceOnUse" x="0" y="0" width="32" height="24">
<path fill-rule="evenodd" clip-rule="evenodd" d="M0 0V24H32V0H0Z" fill="white"/>
</mask>
<g mask="url(#mask1_55_13680)">
<path fill-rule="evenodd" clip-rule="evenodd" d="M0 0V14H16V0H0Z" fill="#2E42A5"/>
<path fill-rule="evenodd" clip-rule="evenodd" d="M3.56566 7.77201L2.50561 8.41196L2.7474 7.16317L1.86464 6.22857L3.05995 6.17803L3.56566 5.01196L4.07137 6.17803H5.26464L4.38391 7.16317L4.64906 8.41196L3.56566 7.77201Z" fill="#FEFFFF"/>
<path fill-rule="evenodd" clip-rule="evenodd" d="M11.5657 7.77201L10.5056 8.41196L10.7474 7.16317L9.86464 6.22857L11.0599 6.17803L11.5657 5.01196L12.0714 6.17803H13.2646L12.3839 7.16317L12.6491 8.41196L11.5657 7.77201Z" fill="#FEFFFF"/>
<path fill-rule="evenodd" clip-rule="evenodd" d="M7.4656 4.13798L6.4679 4.74028L6.69547 3.56495L5.86464 2.68532L6.98963 2.63776L7.4656 1.54028L7.94156 2.63776H9.06464L8.23572 3.56495L8.48527 4.74028L7.4656 4.13798Z" fill="#FEFFFF"/>
<path fill-rule="evenodd" clip-rule="evenodd" d="M8.54625 8.4252L7.9227 8.80164L8.06492 8.06705L7.54565 7.51728L8.24878 7.48756L8.54625 6.80164L8.84373 7.48756H9.54565L9.02758 8.06705L9.18355 8.80164L8.54625 8.4252Z" fill="#FEFFFF"/>
<path fill-rule="evenodd" clip-rule="evenodd" d="M7.40878 12.8283L5.91224 13.7318L6.25359 11.9688L5.00734 10.6493L6.69483 10.578L7.40878 8.93176L8.12272 10.578H9.80734L8.56396 11.9688L8.93829 13.7318L7.40878 12.8283Z" fill="#FEFFFF"/>
</g>
</g>
</svg>
