<svg width="32" height="24" viewBox="0 0 32 24" fill="none" xmlns="http://www.w3.org/2000/svg">
<mask id="mask0_55_13787" style="mask-type:alpha" maskUnits="userSpaceOnUse" x="0" y="0" width="32" height="24">
<rect width="32" height="24" fill="white"/>
</mask>
<g mask="url(#mask0_55_13787)">
<path fill-rule="evenodd" clip-rule="evenodd" d="M22 0H32V24H22V0Z" fill="#D9071E"/>
<path fill-rule="evenodd" clip-rule="evenodd" d="M0 0H12V24H0V0Z" fill="#3D58DB"/>
<path fill-rule="evenodd" clip-rule="evenodd" d="M10 0H22V24H10V0Z" fill="#FBCD17"/>
<path fill-rule="evenodd" clip-rule="evenodd" d="M21.7184 19.6141L20.6653 20.1895L17.1748 13.8007L18.2278 13.2253L21.7184 19.6141ZM10.5135 19.7678L11.5665 20.3431L15.0571 13.9543L14.004 13.379L10.5135 19.7678Z" fill="#FD1900"/>
<path fill-rule="evenodd" clip-rule="evenodd" d="M11.3781 9.38903V14.9404C11.3781 16.1735 10.3162 17.7807 9.78069 18.3786C9.24515 18.9765 8.18153 20.3462 8.18153 20.3462V5.40833C8.18153 3.73276 9.78069 3.15718 9.78069 3.15718C9.78069 3.15718 11.1085 3.41987 11.3781 5.40833V7.34629C11.7891 7.66994 13.1614 8.66252 14.0479 8.24352C15.1006 7.74601 15.4642 6.31905 15.4642 6.31905C15.4642 6.31905 15.3657 4.87916 14.9337 4.87916C14.5016 4.87916 14.4671 2.85089 16.1217 2.85089C17.7763 2.85089 17.9692 3.63271 17.9692 4.25594C17.9692 4.58263 17.7073 5.10692 17.4581 5.60585C17.2319 6.05872 17.0162 6.49069 17.0162 6.73502C17.0162 7.24851 17.4031 8.24352 17.9692 8.24352C18.3663 8.24352 20.2761 7.50151 21.3815 7.05831V5.40833C21.6511 3.41987 22.9789 3.15718 22.9789 3.15718C22.9789 3.15718 24.5781 3.73276 24.5781 5.40833V20.3462C24.5781 20.3462 23.5144 18.9765 22.9789 18.3786C22.4434 17.7807 21.3815 16.1735 21.3815 14.9404V9.38903H11.3781ZM13.1502 19.8322C14.2318 19.128 15.8139 15.9702 15.8139 15.9702L16.3392 16.0922C16.3392 16.0922 17.1413 18.1838 19.4996 19.8322C16.9858 20.5031 16.3392 21.8502 16.3392 21.8502C16.3392 20.7725 13.1502 19.8322 13.1502 19.8322ZM12.976 17.8333C13.705 17.8333 14.296 17.2737 14.296 16.5833C14.296 15.893 13.705 15.3333 12.976 15.3333C12.247 15.3333 11.656 15.893 11.656 16.5833C11.656 17.2737 12.247 17.8333 12.976 17.8333ZM20.72 16.5833C20.72 17.2737 20.129 17.8333 19.4 17.8333C18.671 17.8333 18.08 17.2737 18.08 16.5833C18.08 15.893 18.671 15.3333 19.4 15.3333C20.129 15.3333 20.72 15.893 20.72 16.5833Z" fill="#A77B3B"/>
<path d="M25.14 10.4077L26.0579 10.8044L22.3183 19.4563L21.4004 19.0596L25.14 10.4077Z" fill="#FDFF00"/>
<path opacity="0.3" fill-rule="evenodd" clip-rule="evenodd" d="M11.04 7.83331H21.6V15.4722C21.6 15.4722 18.9129 16.2816 16.32 17.6097C14.406 16.1898 11.04 15.4722 11.04 15.4722V7.83331Z" fill="#E1E5E8"/>
<mask id="mask1_55_13787" style="mask-type:alpha" maskUnits="userSpaceOnUse" x="11" y="7" width="11" height="11">
<path fill-rule="evenodd" clip-rule="evenodd" d="M11.04 7.83331H21.6V15.4722C21.6 15.4722 18.9129 16.2816 16.32 17.6097C14.406 16.1898 11.04 15.4722 11.04 15.4722V7.83331Z" fill="white"/>
</mask>
<g mask="url(#mask1_55_13787)">
<rect x="11.04" y="12.8333" width="10.56" height="5" fill="#3D58DB"/>
<rect x="11.04" y="7.83331" width="10.56" height="5" fill="#FD1900"/>
<path fill-rule="evenodd" clip-rule="evenodd" d="M15.7867 10.0821L14.9863 10.1484L15.4479 9.5257L14.956 8.88086L15.7604 8.98444L16.0689 8.27336L16.4117 8.99959L17.212 8.93336L16.7504 9.55601L17.2423 10.2009L16.4379 10.0973L16.1295 10.8084L15.7867 10.0821Z" fill="#FDFF00"/>
<path fill-rule="evenodd" clip-rule="evenodd" d="M14.35 8.67169C14.35 8.67169 12.2001 9.97969 12.9167 10.9186C13.6334 11.8576 14.5355 11.9778 14.5355 11.9778C14.5355 11.9778 12.3363 15.2771 16.2069 17.1619C20.351 15.3423 18.1716 11.9778 18.1716 11.9778C18.1716 11.9778 19.4472 11.6955 19.7026 10.6803C19.958 9.6651 18.0353 8.50067 18.0353 8.50067C18.0353 8.50067 19.2349 10.2395 18.961 10.6803C18.6872 11.1212 17.22 11.57 16.2069 11.57C15.1939 11.57 13.6294 11.2855 13.377 10.5152C13.1245 9.74485 14.35 8.67169 14.35 8.67169Z" fill="#FDFF00"/>
<path fill-rule="evenodd" clip-rule="evenodd" d="M12.36 12L13.68 12.8333L12.36 13.6667L11.04 12.8333L12.36 12Z" fill="#FDFF00"/>
<path fill-rule="evenodd" clip-rule="evenodd" d="M20.28 12L21.6 12.8333L20.28 13.6667L18.96 12.8333L20.28 12Z" fill="#FDFF00"/>
<path fill-rule="evenodd" clip-rule="evenodd" d="M12.32 15.3C12.5409 15.3 12.72 15.1209 12.72 14.9C12.72 14.6791 12.5409 14.5 12.32 14.5C12.0991 14.5 11.92 14.6791 11.92 14.9C11.92 15.1209 12.0991 15.3 12.32 15.3Z" fill="#FDFF00"/>
<path fill-rule="evenodd" clip-rule="evenodd" d="M20.83 14.5428C20.4867 14.2647 19.9604 14.3455 19.6545 14.7232C19.3486 15.1009 19.379 15.6325 19.7224 15.9106C19.909 16.0617 19.8116 15.4612 20.0941 15.0792C20.3314 14.7583 20.9868 14.6697 20.83 14.5428Z" fill="#FDFF00"/>
</g>
<path fill-rule="evenodd" clip-rule="evenodd" d="M4.73665 11.529C4.73665 11.529 5.79077 12.7752 6.78333 12.3677C7.7759 11.9603 7.53526 10.4995 7.53526 10.4995L6.78333 11.1816H6.14327V11.529L5.64337 11.1816V11.529H4.73665ZM5.44957 13.444C5.44957 13.444 6.73435 14.5646 7.59995 14.2479C8.46554 13.9313 8.24818 12.4145 8.24818 12.4145L7.49626 13.0966H6.8562V13.444L6.3563 13.0966V13.444H5.44957ZM8.90938 15.9869C8.04379 16.3036 6.759 15.183 6.759 15.183H7.66573V14.8356L8.16563 15.183V14.8356H8.80569L9.55761 14.1535C9.55761 14.1535 9.77497 15.6703 8.90938 15.9869Z" fill="#048F02"/>
<path fill-rule="evenodd" clip-rule="evenodd" d="M13.9793 2.24847H12.9793V2.84406H12.5087V3.84406H12.9793V5.58869H13.9793V3.84406H14.5515V2.84406H13.9793V2.24847Z" fill="#FDFF00"/>
<path fill-rule="evenodd" clip-rule="evenodd" d="M15.1581 3.38452L12.842 3.98117L15.1581 4.71305V3.38452Z" fill="#DB4400"/>
</g>
</svg>
