<svg width="32" height="24" viewBox="0 0 32 24" fill="none" xmlns="http://www.w3.org/2000/svg">
<mask id="mask0_55_13726" style="mask-type:alpha" maskUnits="userSpaceOnUse" x="0" y="0" width="32" height="24">
<rect width="32" height="24" fill="white"/>
</mask>
<g mask="url(#mask0_55_13726)">
<path fill-rule="evenodd" clip-rule="evenodd" d="M0 0V24H32V0H0Z" fill="#F7FCFF"/>
<mask id="mask1_55_13726" style="mask-type:alpha" maskUnits="userSpaceOnUse" x="0" y="0" width="32" height="24">
<path fill-rule="evenodd" clip-rule="evenodd" d="M0 0V24H32V0H0Z" fill="white"/>
</mask>
<g mask="url(#mask1_55_13726)">
<path fill-rule="evenodd" clip-rule="evenodd" d="M0 0V12H32V0H0Z" fill="#E31D1C"/>
<path fill-rule="evenodd" clip-rule="evenodd" d="M8.86841 10.5896C8.86841 10.5896 6.04272 9.45307 6.04272 6.37399C6.04272 3.29492 8.86841 2.19514 8.86841 2.19514C7.49507 1.84747 3.85096 2.15843 3.85096 6.37399C3.85096 10.5896 7.44001 11.3846 8.86841 10.5896ZM9.59238 10.0806L10.403 9.59123L11.2315 10.0806L11.0287 9.12565L11.7022 8.37231H10.7897L10.403 7.48061L10.0163 8.37231L9.10223 8.41095L9.77728 9.12565L9.59238 10.0806ZM13.3493 9.53659L12.5387 10.026L12.7236 9.071L12.0485 8.3563L12.9626 8.31766L13.3493 7.42596L13.736 8.31766H14.6485L13.975 9.071L14.1778 10.026L13.3493 9.53659ZM11.2872 5.76985L12.0978 5.28048L12.9263 5.76985L12.7235 4.81489L13.397 4.06155H12.4845L12.0978 3.16985L11.7111 4.06155L10.797 4.10019L11.4721 4.81489L11.2872 5.76985ZM9.36979 7.22264L8.55917 7.71201L8.74407 6.75705L8.06901 6.04236L8.98307 6.00371L9.36979 5.11201L9.75651 6.00371H10.669L9.99552 6.75705L10.1983 7.71201L9.36979 7.22264ZM13.9176 7.66816L14.7282 7.17879L15.5567 7.66816L15.3539 6.7132L16.0274 5.95986H15.1149L14.7282 5.06816L14.3415 5.95986L13.4274 5.9985L14.1025 6.7132L13.9176 7.66816Z" fill="#F1F9FF"/>
</g>
</g>
</svg>
