<svg width="32" height="24" viewBox="0 0 32 24" fill="none" xmlns="http://www.w3.org/2000/svg">
<mask id="mask0_55_13828" style="mask-type:alpha" maskUnits="userSpaceOnUse" x="0" y="0" width="32" height="24">
<rect width="32" height="24" fill="white"/>
</mask>
<g mask="url(#mask0_55_13828)">
<path fill-rule="evenodd" clip-rule="evenodd" d="M0 0V24H32V0H0Z" fill="#F7FCFF"/>
<mask id="mask1_55_13828" style="mask-type:alpha" maskUnits="userSpaceOnUse" x="0" y="0" width="32" height="24">
<path fill-rule="evenodd" clip-rule="evenodd" d="M0 0V24H32V0H0Z" fill="white"/>
</mask>
<g mask="url(#mask1_55_13828)">
<path fill-rule="evenodd" clip-rule="evenodd" d="M0 0V8H32V0H0Z" fill="#E31D1C"/>
<path fill-rule="evenodd" clip-rule="evenodd" d="M0 16V24H32V16H0Z" fill="#3D58DB"/>
<rect x="10.0766" y="6.39734" width="11.4" height="4" fill="#E31D1C"/>
<path d="M10.6523 8.95984H20.7808C20.7979 9.7288 20.8031 11.0702 20.803 12.3615C20.8029 13.1955 20.8007 13.9983 20.7985 14.5927C20.7974 14.8899 20.7963 15.135 20.7955 15.3057L20.7945 15.5033L20.7944 15.5318C20.7942 15.5329 20.794 15.5339 20.7939 15.535C20.7894 15.5616 20.7819 15.6035 20.7704 15.6584C20.7474 15.7685 20.7086 15.9301 20.647 16.126C20.5231 16.5193 20.3102 17.0408 19.9553 17.5589C19.2608 18.5728 17.9999 19.6153 15.6498 19.6153C13.3029 19.6153 12.103 18.5742 11.4643 17.5701C11.1364 17.0544 10.9491 16.5347 10.8443 16.1417C10.7921 15.9462 10.7611 15.7847 10.7434 15.6748C10.7346 15.6198 10.7291 15.578 10.7259 15.5514C10.7251 15.545 10.7245 15.5395 10.724 15.5349L10.7235 15.4902L10.7211 15.2939L10.7126 14.5853C10.7056 13.9944 10.6962 13.1958 10.6868 12.3648C10.6725 11.095 10.6582 9.75337 10.6523 8.95984ZM10.7223 15.5186C10.7223 15.5183 10.7223 15.5183 10.7223 15.5185L10.7223 15.5186Z" fill="#F7FCFF" stroke="#E31D1C" stroke-width="1.125"/>
<mask id="mask2_55_13828" style="mask-type:alpha" maskUnits="userSpaceOnUse" x="10" y="8" width="12" height="13">
<path d="M10.6523 8.95984H20.7808C20.7979 9.7288 20.8031 11.0702 20.803 12.3615C20.8029 13.1955 20.8007 13.9983 20.7985 14.5927C20.7974 14.8899 20.7963 15.135 20.7955 15.3057L20.7945 15.5033L20.7944 15.5318C20.7942 15.5329 20.794 15.5339 20.7939 15.535C20.7894 15.5616 20.7819 15.6035 20.7704 15.6584C20.7474 15.7685 20.7086 15.9301 20.647 16.126C20.5231 16.5193 20.3102 17.0408 19.9553 17.5589C19.2608 18.5728 17.9999 19.6153 15.6498 19.6153C13.3029 19.6153 12.103 18.5742 11.4643 17.5701C11.1364 17.0544 10.9491 16.5347 10.8443 16.1417C10.7921 15.9462 10.7611 15.7847 10.7434 15.6748C10.7346 15.6198 10.7291 15.578 10.7259 15.5514C10.7251 15.545 10.7245 15.5395 10.724 15.5349L10.7235 15.4902L10.7211 15.2939L10.7126 14.5853C10.7056 13.9944 10.6962 13.1958 10.6868 12.3648C10.6725 11.095 10.6582 9.75337 10.6523 8.95984ZM10.7223 15.5186C10.7223 15.5183 10.7223 15.5183 10.7223 15.5185L10.7223 15.5186Z" fill="white" stroke="white" stroke-width="1.125"/>
</mask>
<g mask="url(#mask2_55_13828)">
<path fill-rule="evenodd" clip-rule="evenodd" d="M10.4984 9.03992H12.6078V11.1818H10.4984V9.03992ZM14.7172 11.1818H12.6078V13.3237H10.4984V15.4656H12.6078V17.6075H10.4984V19.7494H12.6078V17.6075H14.7172V19.7494H16.8266V17.6075H18.9359V19.7494H21.0453V17.6075H18.9359V15.4656H21.0453V13.3237H18.9359V11.1818H21.0453V9.03992H18.9359V11.1818H16.8266V9.03992H14.7172V11.1818ZM14.7172 13.3237V11.1818H16.8266V13.3237H14.7172ZM14.7172 15.4656V13.3237H12.6078V15.4656H14.7172ZM16.8266 15.4656V17.6075H14.7172V15.4656H16.8266ZM16.8266 15.4656V13.3237H18.9359V15.4656H16.8266Z" fill="#F50100"/>
</g>
<path fill-rule="evenodd" clip-rule="evenodd" d="M10.4531 8.16267C10.4531 8.16267 11.1055 7.81418 11.662 7.63458C12.2184 7.45498 12.6583 7.35685 12.6583 7.35685L11.8303 4.30476L10.172 3.68518L9.23281 5.23328L10.4531 8.16267Z" fill="#56C6F5" stroke="white" stroke-width="0.5"/>
<path d="M10.1811 6.49082L10.3716 6.39896C10.5684 6.81988 10.8278 6.94989 11.1833 6.81721C11.5465 6.68167 11.6946 6.42538 11.6423 6.01907L11.8515 5.99133C11.9163 6.4957 11.7129 6.84775 11.2561 7.01825C10.7916 7.19159 10.4221 7.00638 10.1811 6.49082Z" fill="white"/>
<path fill-rule="evenodd" clip-rule="evenodd" d="M10.6323 5.54189L10.4502 5.65224C10.4098 5.67666 10.3597 5.64157 10.3689 5.59534L10.4103 5.3864L10.2236 5.28381C10.1823 5.26111 10.1876 5.20015 10.2323 5.18497L10.4339 5.11635L10.4294 4.9034C10.4284 4.85628 10.4839 4.83042 10.5193 4.86147L10.6796 5.00178L10.8618 4.89142C10.9021 4.867 10.9522 4.9021 10.943 4.94833L10.9016 5.15727L11.0883 5.25986C11.1296 5.28256 11.1243 5.34352 11.0797 5.3587L10.878 5.42732L10.8825 5.64027C10.8835 5.68739 10.828 5.71325 10.7926 5.6822L10.6323 5.54189Z" fill="#FECA00"/>
<path fill-rule="evenodd" clip-rule="evenodd" d="M14.5408 7.07581C14.5408 7.07581 15.0972 7.02616 15.6818 7.03752C16.2665 7.04887 16.761 7.05303 16.761 7.05303L17.0466 4.04355L15.7943 2.91216L14.4022 4.07014L14.5408 7.07581Z" fill="#56C6F5" stroke="white" stroke-width="0.5"/>
<path fill-rule="evenodd" clip-rule="evenodd" d="M15.7502 6.58481C16.2326 6.58481 16.2788 6.06385 16.2788 5.70897C16.1554 5.51213 16.1803 5.37128 15.7849 5.37128C15.3896 5.37128 15.3445 5.49074 15.2291 5.70897C15.2291 6.06385 15.2679 6.58481 15.7502 6.58481Z" fill="#FECA00"/>
<path fill-rule="evenodd" clip-rule="evenodd" d="M16.293 5.11289C16.7753 5.11289 16.8215 4.59192 16.8215 4.23704C16.6982 4.04021 16.723 3.89935 16.3277 3.89935C15.9324 3.89935 15.8872 4.01882 15.7719 4.23704C15.7719 4.59192 15.8106 5.11289 16.293 5.11289Z" fill="#FECA00"/>
<path fill-rule="evenodd" clip-rule="evenodd" d="M15.2383 5.11289C15.7206 5.11289 15.7668 4.59192 15.7668 4.23704C15.6435 4.04021 15.6683 3.89935 15.273 3.89935C14.8777 3.89935 14.8325 4.01882 14.7172 4.23704C14.7172 4.59192 14.7559 5.11289 15.2383 5.11289Z" fill="#FECA00"/>
<path d="M12.4446 7.6049L12.3726 7.3602L11.506 4.41646L11.4649 4.27696L11.5659 4.1723L12.8044 2.88839L12.9537 2.73358L13.1291 2.85812L14.4918 3.82593L14.5862 3.89295L14.5961 4.00827L14.8484 6.93269L14.8709 7.19323L14.6096 7.20396L14.6096 7.20396L14.6095 7.20396L14.6093 7.20397L14.6082 7.20402L14.6037 7.20421L14.5857 7.20501L14.5179 7.20831C14.4599 7.21128 14.3786 7.21579 14.2853 7.22196C14.0973 7.2344 13.8663 7.25324 13.6811 7.27898C13.5042 7.30356 13.2591 7.36424 13.0501 7.42177C12.9474 7.45005 12.8564 7.47671 12.7912 7.49629C12.7586 7.50607 12.7325 7.51406 12.7147 7.51958L12.6944 7.52589L12.6893 7.52749L12.6881 7.52787L12.6878 7.52795L12.6878 7.52796L12.4446 7.6049ZM12.4446 7.6049L12.6878 7.52797L12.4446 7.6049Z" fill="#2E42A5" stroke="white" stroke-width="0.5"/>
<mask id="mask3_55_13828" style="mask-type:alpha" maskUnits="userSpaceOnUse" x="11" y="2" width="5" height="6">
<path d="M12.4446 7.6049L12.3726 7.3602L11.506 4.41646L11.4649 4.27696L11.5659 4.1723L12.8044 2.88839L12.9537 2.73358L13.1291 2.85812L14.4918 3.82593L14.5862 3.89295L14.5961 4.00827L14.8484 6.93269L14.8709 7.19323L14.6096 7.20396L14.6096 7.20396L14.6095 7.20396L14.6093 7.20397L14.6082 7.20402L14.6037 7.20421L14.5857 7.20501L14.5179 7.20831C14.4599 7.21128 14.3786 7.21579 14.2853 7.22196C14.0973 7.2344 13.8663 7.25324 13.6811 7.27898C13.5042 7.30356 13.2591 7.36424 13.0501 7.42177C12.9474 7.45005 12.8564 7.47671 12.7912 7.49629C12.7586 7.50607 12.7325 7.51406 12.7147 7.51958L12.6944 7.52589L12.6893 7.52749L12.6881 7.52787L12.6878 7.52795L12.6878 7.52796L12.4446 7.6049ZM12.4446 7.6049L12.6878 7.52797L12.4446 7.6049Z" fill="white" stroke="white" stroke-width="0.5"/>
</mask>
<g mask="url(#mask3_55_13828)">
<path d="M12.4364 6.6379L12.1859 6.04782C12.7239 5.81233 13.6328 5.66783 14.5891 5.61133L14.6259 6.25281C13.7368 6.30534 12.8958 6.43682 12.4364 6.6379Z" fill="#C51918"/>
<path d="M12.0137 5.21048L11.7632 4.6204C12.3012 4.3849 13.4576 4.19426 14.414 4.13776L14.4507 4.77924C13.5617 4.83177 12.4731 5.00939 12.0137 5.21048Z" fill="#C51918"/>
</g>
<path d="M18.9686 7.60666L19.0366 7.35474L19.8324 4.40616L19.8681 4.27375L19.7757 4.17246L18.608 2.89339L18.4589 2.73008L18.2786 2.85812L16.9158 3.82593L16.8215 3.89295L16.8115 4.00827L16.5592 6.93269L16.5368 7.19323L16.7981 7.20396L16.7981 7.20396L16.7981 7.20396L16.7983 7.20397L16.7994 7.20402L16.8039 7.20421L16.8219 7.20501L16.8897 7.20831C16.9477 7.21128 17.0291 7.21579 17.1223 7.22196C17.3103 7.2344 17.5413 7.25324 17.7265 7.27898C17.9035 7.30356 18.1485 7.36424 18.3575 7.42177C18.4602 7.45005 18.5512 7.47671 18.6164 7.49629C18.649 7.50607 18.6751 7.51406 18.6929 7.51958L18.7132 7.52589L18.7183 7.52749L18.7196 7.52787L18.7198 7.52795L18.7198 7.52796L18.9686 7.60666ZM18.9686 7.60666L18.7199 7.52797L18.9686 7.60666Z" fill="#2E42A5" stroke="white" stroke-width="0.5"/>
<mask id="mask4_55_13828" style="mask-type:alpha" maskUnits="userSpaceOnUse" x="16" y="2" width="5" height="6">
<path d="M18.9686 7.60666L19.0366 7.35474L19.8324 4.40616L19.8681 4.27375L19.7757 4.17246L18.608 2.89339L18.4589 2.73008L18.2786 2.85812L16.9158 3.82593L16.8215 3.89295L16.8115 4.00827L16.5592 6.93269L16.5368 7.19323L16.7981 7.20396L16.7981 7.20396L16.7981 7.20396L16.7983 7.20397L16.7994 7.20402L16.8039 7.20421L16.8219 7.20501L16.8897 7.20831C16.9477 7.21128 17.0291 7.21579 17.1223 7.22196C17.3103 7.2344 17.5413 7.25324 17.7265 7.27898C17.9035 7.30356 18.1485 7.36424 18.3575 7.42177C18.4602 7.45005 18.5512 7.47671 18.6164 7.49629C18.649 7.50607 18.6751 7.51406 18.6929 7.51958L18.7132 7.52589L18.7183 7.52749L18.7196 7.52787L18.7198 7.52795L18.7198 7.52796L18.9686 7.60666ZM18.9686 7.60666L18.7199 7.52797L18.9686 7.60666Z" fill="white" stroke="white" stroke-width="0.5"/>
</mask>
<g mask="url(#mask4_55_13828)">
<path fill-rule="evenodd" clip-rule="evenodd" d="M18.3978 6.46654C18.3978 6.46654 18.6918 6.30291 18.7342 6.02703C18.7765 5.75115 19.2313 5.41135 19.0039 5.45179C18.7765 5.49224 18.9065 5.52383 18.5773 5.45179C18.2481 5.37976 17.822 5.33212 17.822 5.12973C17.822 4.92735 18.0338 4.76671 17.8606 4.76671C17.6875 4.76671 17.3181 4.57516 17.3923 4.72157C17.4665 4.86798 17.2216 4.70243 17.3441 5.0064C17.4665 5.31036 17.3181 5.61658 17.3923 5.69716C17.4665 5.77773 17.3441 6.17292 17.3441 6.17292C17.3441 6.17292 17.389 6.3197 17.4677 6.09986C17.5464 5.88001 17.7185 5.72591 17.6324 5.91288C17.5464 6.09986 17.4366 6.54458 17.5345 6.46654C17.6324 6.3885 17.7298 6.17268 17.7298 6.09986C17.7298 6.02703 17.9769 5.74117 17.9769 5.95705C17.9769 6.17292 17.7444 6.34293 17.8606 6.34293C17.9769 6.34293 18.042 6.3888 18.1151 6.17292C18.1882 5.95705 18.3657 5.81424 18.4385 5.95705C18.5113 6.09986 18.4952 6.09223 18.3978 6.27938C18.3005 6.46654 18.3978 6.46654 18.3978 6.46654Z" fill="#FECA00"/>
<path fill-rule="evenodd" clip-rule="evenodd" d="M17.7072 4.86656L17.5978 4.68346C17.7942 4.56244 17.9745 4.53019 18.1329 4.59766C18.2049 4.62834 18.2591 4.66329 18.4005 4.76274L18.419 4.77572C18.5662 4.87897 18.6441 4.92103 18.6921 4.92103V5.13522C18.5823 5.13522 18.4873 5.08396 18.2991 4.95196L18.2804 4.93881C18.1531 4.8493 18.104 4.81764 18.0513 4.79517C17.9637 4.75785 17.851 4.778 17.7072 4.86656ZM17.3609 6.2635C17.4231 6.2635 17.4734 6.21376 17.4734 6.15239C17.4734 6.09103 17.4231 6.04128 17.3609 6.04128C17.2988 6.04128 17.2484 6.09103 17.2484 6.15239C17.2484 6.21376 17.2988 6.2635 17.3609 6.2635ZM17.6844 6.36658C17.6844 6.42795 17.634 6.47769 17.5719 6.47769C17.5097 6.47769 17.4594 6.42795 17.4594 6.36658C17.4594 6.30522 17.5097 6.25547 17.5719 6.25547C17.634 6.25547 17.6844 6.30522 17.6844 6.36658ZM17.9508 6.46943C18.0129 6.46943 18.0633 6.41969 18.0633 6.35832C18.0633 6.29696 18.0129 6.24721 17.9508 6.24721C17.8887 6.24721 17.8383 6.29696 17.8383 6.35832C17.8383 6.41969 17.8887 6.46943 17.9508 6.46943ZM18.4157 6.53614C18.4157 6.5975 18.3654 6.64725 18.3032 6.64725C18.2411 6.64725 18.1907 6.5975 18.1907 6.53614C18.1907 6.47477 18.2411 6.42503 18.3032 6.42503C18.3654 6.42503 18.4157 6.47477 18.4157 6.53614Z" fill="#C51918"/>
</g>
<path d="M21.3525 8.18599L21.2445 8.43473L21.0054 8.30699L21.0054 8.30699L21.0053 8.30698L21.0051 8.30685L21.0039 8.30623L20.9989 8.30355L20.9783 8.29276C20.9601 8.28327 20.9333 8.26939 20.8993 8.25211C20.8312 8.21752 20.7345 8.16947 20.6208 8.11594C20.3917 8.00806 20.1007 7.88125 19.8374 7.79629C19.5646 7.70825 19.3202 7.64011 19.1441 7.59401C19.0561 7.57099 18.9853 7.55351 18.9369 7.54186L18.8815 7.52878L18.8676 7.52558L18.8643 7.52483L18.8635 7.52467L18.8634 7.52465L18.8634 7.52464L18.8634 7.52464L18.8634 7.52464L18.605 7.46699L18.6774 7.21228L19.5234 4.2364L19.558 4.11481L19.6764 4.07057L21.3347 3.45099L21.5286 3.37855L21.6359 3.55551L22.5752 5.10361L22.6422 5.21418L22.5907 5.33281L21.3525 8.18599Z" fill="#56C6F5" stroke="white" stroke-width="0.5"/>
<mask id="mask5_55_13828" style="mask-type:alpha" maskUnits="userSpaceOnUse" x="18" y="3" width="5" height="6">
<path d="M21.3525 8.18599L21.2445 8.43473L21.0054 8.30699L21.0054 8.30699L21.0053 8.30698L21.0051 8.30685L21.0039 8.30623L20.9989 8.30355L20.9783 8.29276C20.9601 8.28327 20.9333 8.26939 20.8993 8.25211C20.8312 8.21752 20.7345 8.16947 20.6208 8.11594C20.3917 8.00806 20.1007 7.88125 19.8374 7.79629C19.5646 7.70825 19.3202 7.64011 19.1441 7.59401C19.0561 7.57099 18.9853 7.55351 18.9369 7.54186L18.8815 7.52878L18.8676 7.52558L18.8643 7.52483L18.8635 7.52467L18.8634 7.52465L18.8634 7.52464L18.8634 7.52464L18.8634 7.52464L18.605 7.46699L18.6774 7.21228L19.5234 4.2364L19.558 4.11481L19.6764 4.07057L21.3347 3.45099L21.5286 3.37855L21.6359 3.55551L22.5752 5.10361L22.6422 5.21418L22.5907 5.33281L21.3525 8.18599Z" fill="white" stroke="white" stroke-width="0.5"/>
</mask>
<g mask="url(#mask5_55_13828)">
<path fill-rule="evenodd" clip-rule="evenodd" d="M21.1274 5.08918L20.9855 5.24798C20.9541 5.28312 20.8959 5.26421 20.8911 5.21732L20.8696 5.00541L20.6611 4.96187C20.615 4.95224 20.6023 4.89239 20.6405 4.86483L20.8133 4.74025L20.7467 4.53791C20.732 4.49314 20.7775 4.4522 20.8204 4.47153L21.0147 4.55886L21.1567 4.40006C21.1881 4.36492 21.2463 4.38383 21.251 4.43072L21.2725 4.64263L21.481 4.68616C21.5272 4.6958 21.5399 4.75565 21.5017 4.78321L21.3289 4.90779L21.3954 5.11012C21.4102 5.15489 21.3647 5.19584 21.3217 5.17651L21.1274 5.08918Z" fill="#FECA00"/>
<path d="M18.9951 6.48767L19.2076 5.65851C20.1483 5.90701 21.129 6.22549 21.8484 6.53347L21.5207 7.32294C20.841 7.032 19.8985 6.72629 18.9951 6.48767Z" fill="#E31D1C"/>
<path d="M19.2831 5.72198L19.3332 5.51392C20.2351 5.73773 21.1937 6.09486 21.8903 6.42748L21.8006 6.62131C21.1174 6.29508 20.172 5.94256 19.2831 5.72198Z" fill="white"/>
<path d="M19.0158 6.57654L19.0659 6.36847C19.9678 6.59229 20.8014 6.89598 21.498 7.22861L21.4083 7.42243C20.725 7.0962 19.9047 6.79711 19.0158 6.57654Z" fill="white"/>
<path d="M19.4229 6.17504L19.616 6.08783C19.6973 6.27814 19.7978 6.32007 19.9657 6.2385C20.3622 6.04584 21.3458 6.31507 21.3458 6.67811C21.3458 6.81974 21.2637 6.9056 21.1384 6.90063C21.0676 6.89782 20.9921 6.86987 20.8814 6.81511C20.8679 6.80847 20.8591 6.80402 20.8373 6.79295C20.7148 6.73048 20.7055 6.72592 20.6729 6.71418L20.7427 6.50952C20.7879 6.5258 20.795 6.52929 20.931 6.59867C20.952 6.60933 20.9602 6.61346 20.9728 6.61966C21.0577 6.66164 21.1144 6.68265 21.1465 6.68392C21.1495 6.68404 21.1349 6.69934 21.1349 6.67811C21.1349 6.51838 20.3343 6.29925 20.0558 6.43457C19.778 6.56953 19.5509 6.47472 19.4229 6.17504Z" fill="#272727"/>
</g>
</g>
</g>
</svg>
