<svg width="32" height="24" viewBox="0 0 32 24" fill="none" xmlns="http://www.w3.org/2000/svg">
<mask id="mask0_55_13932" style="mask-type:alpha" maskUnits="userSpaceOnUse" x="0" y="0" width="32" height="24">
<rect width="32" height="24" fill="white"/>
</mask>
<g mask="url(#mask0_55_13932)">
<path fill-rule="evenodd" clip-rule="evenodd" d="M8 0H24V24H8V0Z" fill="#FFD018"/>
<path fill-rule="evenodd" clip-rule="evenodd" d="M0 0H8V24H0V0Z" fill="#2E42A5"/>
<path fill-rule="evenodd" clip-rule="evenodd" d="M24 0H32V24H24V0Z" fill="#E31D1C"/>
<path fill-rule="evenodd" clip-rule="evenodd" d="M16.2991 19.4236C16.5201 19.3615 16.7102 18.9771 16.7102 18.9771C16.7102 18.9771 16.8545 19.09 17.0833 19.2047C17.3121 19.3195 17.5501 18.9771 17.5501 18.9771C17.5501 18.9771 17.8751 18.9771 18.0176 18.5937C18.1601 18.2103 17.7332 18.0459 17.7332 18.0459C17.7332 18.0459 18.2322 17.5216 19.0749 17.5216C19.9175 17.5216 20.5733 17.5216 21.1232 17.2883C21.6731 17.0549 22.2073 16.6536 22.4072 15.8203C22.6071 14.9869 21.9744 14.4621 21.9744 14.4621C21.9744 14.4621 22.1145 14.5064 22.4072 14.267C22.6999 14.0276 22.228 13.2572 21.9744 13.2572C21.7208 13.2572 21.6905 13.3998 21.6905 13.3998C21.6905 13.3998 21.5338 13.2638 21.3191 12.8014C21.1044 12.3389 21.5338 11.933 21.5338 11.933C21.5338 11.933 21.7692 12.0678 21.9744 11.8454C22.1797 11.6229 21.8678 11.2821 21.8678 11.2821C21.8678 11.2821 22.8559 10.9458 22.713 9.68175C22.5702 8.41772 21.2673 8.48961 21.2673 8.48961C21.2673 8.48961 21.3068 8.27944 21.1232 8.15966C20.9396 8.03989 20.8036 8.27944 20.8036 8.27944C20.6596 7.94604 21.0819 7.48995 21.42 7.12495C21.5247 7.01184 21.6214 6.90749 21.6905 6.81824C21.983 6.44096 21.7994 5.97488 20.7309 5.46615C19.6625 4.95742 19.0792 5.64114 18.9936 5.88341C18.9079 6.12569 19.2394 6.27561 19.2394 6.27561C18.969 6.5129 18.4461 6.6035 18.0897 6.43956C17.7332 6.27561 17.8912 5.77703 17.9649 5.64114C17.9729 5.62627 17.9837 5.60825 17.996 5.58744C18.0968 5.41808 18.3075 5.06399 18.0897 4.71965C17.8451 4.33299 17.4216 4.33299 17.0833 4.55256C16.7938 4.74048 16.3822 4.84013 16.2696 4.86495C16.157 4.84013 15.7454 4.74048 15.4559 4.55256C15.1176 4.33299 14.6942 4.33299 14.4496 4.71965C14.2317 5.06399 14.4424 5.41808 14.5432 5.58744C14.5556 5.60825 14.5663 5.62627 14.5743 5.64114C14.648 5.77703 14.806 6.27561 14.4496 6.43956C14.0931 6.6035 13.5702 6.5129 13.2998 6.27561C13.2998 6.27561 13.6313 6.12569 13.5457 5.88341C13.46 5.64114 12.8767 4.95742 11.8083 5.46615C10.7399 5.97488 10.5562 6.44096 10.8487 6.81824C10.9179 6.90749 11.0145 7.01184 11.1193 7.12495C11.4573 7.48995 11.8797 7.94604 11.7356 8.27944C11.7356 8.27944 11.5996 8.03989 11.416 8.15966C11.2325 8.27944 11.272 8.48961 11.272 8.48961C11.272 8.48961 9.96907 8.41772 9.82622 9.68175C9.68338 10.9458 10.6714 11.2821 10.6714 11.2821C10.6714 11.2821 10.3596 11.6229 10.5648 11.8454C10.7701 12.0678 11.0054 11.933 11.0054 11.933C11.0054 11.933 11.4348 12.3389 11.2201 12.8014C11.0054 13.2638 10.8487 13.3998 10.8487 13.3998C10.8487 13.3998 10.8184 13.2572 10.5648 13.2572C10.3112 13.2572 9.83935 14.0276 10.132 14.267C10.4247 14.5064 10.5648 14.4621 10.5648 14.4621C10.5648 14.4621 9.93215 14.9869 10.132 15.8203C10.3319 16.6536 10.8662 17.0549 11.416 17.2883C11.9659 17.5216 12.6217 17.5216 13.4643 17.5216C14.307 17.5216 14.806 18.0459 14.806 18.0459C14.806 18.0459 14.3791 18.2103 14.5216 18.5937C14.6642 18.9771 14.9891 18.9771 14.9891 18.9771C14.9891 18.9771 15.2271 19.3195 15.4559 19.2047C15.6847 19.09 15.8291 18.9771 15.8291 18.9771C15.8291 18.9771 16.0191 19.3615 16.2402 19.4236V19.4321C16.25 19.4321 16.2598 19.4313 16.2696 19.4299C16.2794 19.4313 16.2892 19.4321 16.2991 19.4321V19.4236Z" fill="#BF9937"/>
<path d="M12.1101 15.9978L12.2152 15.7437C13.4229 16.2614 14.7973 16.5206 16.3391 16.5206C17.8802 16.5206 19.2176 16.2616 20.3521 15.7449L20.4627 15.9966C19.2913 16.5301 17.9165 16.7963 16.3391 16.7963C14.7625 16.7963 13.3526 16.5304 12.1101 15.9978Z" fill="#805440"/>
<path fill-rule="evenodd" clip-rule="evenodd" d="M12.4783 7.23268H16.2014H16.2955H20.0186V14.2625C20.0186 14.2625 20.0173 14.883 19.3613 15.1542C18.7054 15.4255 17.9338 15.3284 17.9338 15.3284C17.9338 15.3284 17.1955 15.1697 16.8058 15.3284C16.5668 15.4257 16.3937 15.4739 16.2955 15.4965V15.515C16.2955 15.515 16.2796 15.513 16.2485 15.5067C16.2173 15.513 16.2014 15.515 16.2014 15.515V15.4965C16.1032 15.4739 15.9301 15.4257 15.6912 15.3284C15.3014 15.1697 14.5631 15.3284 14.5631 15.3284C14.5631 15.3284 13.7915 15.4255 13.1356 15.1542C12.4796 14.883 12.4783 14.2625 12.4783 14.2625V7.23268Z" fill="#BF9937"/>
<mask id="mask1_55_13932" style="mask-type:alpha" maskUnits="userSpaceOnUse" x="12" y="7" width="9" height="9">
<path fill-rule="evenodd" clip-rule="evenodd" d="M12.4783 7.23268H16.2014H16.2955H20.0186V14.2625C20.0186 14.2625 20.0173 14.883 19.3613 15.1542C18.7054 15.4255 17.9338 15.3284 17.9338 15.3284C17.9338 15.3284 17.1955 15.1697 16.8058 15.3284C16.5668 15.4257 16.3937 15.4739 16.2955 15.4965V15.515C16.2955 15.515 16.2796 15.513 16.2485 15.5067C16.2173 15.513 16.2014 15.515 16.2014 15.515V15.4965C16.1032 15.4739 15.9301 15.4257 15.6912 15.3284C15.3014 15.1697 14.5631 15.3284 14.5631 15.3284C14.5631 15.3284 13.7915 15.4255 13.1356 15.1542C12.4796 14.883 12.4783 14.2625 12.4783 14.2625V7.23268Z" fill="white"/>
</mask>
<g mask="url(#mask1_55_13932)">
<rect x="12.3729" y="7.14444" width="3.65625" height="3.9" fill="#D00F3A"/>
<path fill-rule="evenodd" clip-rule="evenodd" d="M16.4354 7.14444H20.2271V11.0444H16.4354V7.14444Z" fill="#FEDF00"/>
<path fill-rule="evenodd" clip-rule="evenodd" d="M16.4354 11.4778H20.0916V15.5222H16.4354V11.4778Z" fill="#FEDF00"/>
<rect x="12.3729" y="11.4778" width="3.65625" height="4.04444" fill="#FEDF00"/>
<path fill-rule="evenodd" clip-rule="evenodd" d="M19.1437 13.2985C19.1437 13.2985 19.3136 13.1262 19.3136 12.7192C19.3136 12.3122 19.4568 12.0429 19.1437 12.0429C18.8306 12.0429 18.4054 12.0429 18.106 12.0429C17.8067 12.0429 17.9604 12.2238 17.6594 12.0429C17.3583 11.862 17.1157 11.9195 17.1157 12.0429C17.1157 12.1663 17.4195 12.112 17.4195 12.3626C17.4195 12.6132 17.5345 12.3953 17.5345 12.8469C17.5345 13.2985 17.598 13.2227 17.6287 13.2227C17.6594 13.2227 17.6594 13.1411 17.6594 13.0224C17.6594 12.9037 17.6441 12.4248 17.7276 12.572C17.8111 12.7192 17.8524 12.6496 17.8936 12.8169C17.9348 12.9842 18.0457 13.1469 17.9697 13.2227C17.8936 13.2985 17.7401 13.3637 17.8549 13.3637C17.9697 13.3637 18.1365 13.1711 18.0531 12.8469C17.9697 12.5227 18.1567 12.8169 18.1567 12.8169C18.1567 12.8169 18.5988 12.915 18.6273 12.7804C18.6557 12.6457 18.6963 12.9092 18.8161 12.9092C18.9359 12.9092 18.7005 13.1802 18.6015 13.2227C18.5026 13.2652 18.6015 13.2985 18.6015 13.2985C18.6015 13.2985 18.6938 13.3744 18.7549 13.2985C18.8161 13.2227 19.0349 12.9747 19.0349 12.8469C19.0349 12.7192 19.1751 12.7959 19.1751 12.9092C19.1751 13.0224 19.045 13.4288 19.0943 13.3637C19.1437 13.2985 19.1437 13.2985 19.1437 13.2985Z" fill="#D00F3A"/>
<path fill-rule="evenodd" clip-rule="evenodd" d="M19.1437 14.8874C19.1437 14.8874 19.3136 14.715 19.3136 14.308C19.3136 13.901 19.4568 13.6318 19.1437 13.6318C18.8306 13.6318 18.4054 13.6318 18.106 13.6318C17.8067 13.6318 17.9604 13.8127 17.6594 13.6318C17.3583 13.4509 17.1157 13.5084 17.1157 13.6318C17.1157 13.7552 17.4195 13.7009 17.4195 13.9515C17.4195 14.2021 17.5345 13.9842 17.5345 14.4358C17.5345 14.8874 17.598 14.8116 17.6287 14.8116C17.6594 14.8116 17.6594 14.73 17.6594 14.6113C17.6594 14.4926 17.6441 14.0136 17.7276 14.1608C17.8111 14.308 17.8524 14.2385 17.8936 14.4058C17.9348 14.5731 18.0457 14.7358 17.9697 14.8116C17.8936 14.8874 17.7401 14.9526 17.8549 14.9526C17.9697 14.9526 18.1365 14.76 18.0531 14.4358C17.9697 14.1116 18.1567 14.4058 18.1567 14.4058C18.1567 14.4058 18.5988 14.5039 18.6273 14.3693C18.6557 14.2346 18.6963 14.4981 18.8161 14.4981C18.9359 14.4981 18.7005 14.7691 18.6015 14.8116C18.5026 14.8541 18.6015 14.8874 18.6015 14.8874C18.6015 14.8874 18.6938 14.9633 18.7549 14.8874C18.8161 14.8116 19.0349 14.5635 19.0349 14.4358C19.0349 14.308 19.1751 14.3848 19.1751 14.4981C19.1751 14.6113 19.045 15.0177 19.0943 14.9526C19.1437 14.8874 19.1437 14.8874 19.1437 14.8874Z" fill="#D00F3A"/>
<path fill-rule="evenodd" clip-rule="evenodd" d="M14.2099 10.2976C14.2099 10.4627 14.126 10.5888 13.9346 10.7819L13.9094 10.8072L13.8581 10.8586C13.8303 10.8868 13.8091 10.9092 13.7905 10.9302C13.627 11.1148 13.3411 10.9557 13.2679 10.7764C13.2561 10.7478 13.1987 10.6447 13.1054 10.4834L13.1003 10.4745L13.0453 10.3797L12.9952 10.2936C12.9585 10.2305 12.9393 10.1971 12.9297 10.1794C12.9231 10.1673 12.8853 10.1814 12.8189 10.2661C12.7936 10.2984 12.8455 10.4088 13.0106 10.5855L12.917 10.6898C12.6872 10.4657 12.576 10.3205 12.576 10.2198C12.576 10.0518 12.711 9.96164 12.9627 9.96164C13.1209 9.96164 13.2054 10.0731 13.3321 10.3536L13.3644 10.4255C13.4269 10.564 13.467 10.6395 13.5157 10.701C13.5735 10.774 13.6081 10.7706 13.6678 10.6953C13.7265 10.6212 13.7809 10.5057 13.8625 10.2976C13.8711 10.2757 13.8786 10.2571 13.8849 10.2416C13.9025 10.1984 13.9105 10.1788 13.9055 10.1746C13.9013 10.171 13.8881 10.1783 13.8638 10.1916C13.8551 10.1964 13.845 10.2019 13.8334 10.208L13.7702 10.2412L13.1961 8.86198L14.2823 7.54324V10.2897L14.2127 10.2268C14.211 10.2456 14.2099 10.2694 14.2099 10.2976ZM14.2875 10.2944L14.2823 10.2991V10.2897L14.2875 10.2944ZM14.2927 10.2897V10.2991L14.2875 10.2944L14.2927 10.2897ZM14.2927 7.54324L15.3788 8.86198L14.8048 10.2412L14.7416 10.208C14.6975 10.1849 14.6752 10.1698 14.6695 10.1746C14.6627 10.1803 14.6799 10.2145 14.7125 10.2976C14.794 10.5057 14.8484 10.6212 14.9072 10.6953C14.9668 10.7706 15.0015 10.774 15.0593 10.701C15.108 10.6395 15.1481 10.564 15.2105 10.4255L15.2428 10.3536C15.3695 10.0731 15.454 9.96164 15.6123 9.96164C15.8639 9.96164 15.9989 10.0518 15.9989 10.2198C15.9989 10.3205 15.8878 10.4657 15.658 10.6898L15.5643 10.5855C15.7295 10.4088 15.7814 10.2984 15.7561 10.2661C15.6897 10.1814 15.6519 10.1673 15.6452 10.1794C15.6357 10.1971 15.6164 10.2305 15.5798 10.2936L15.5297 10.3797L15.4747 10.4745L15.4695 10.4834C15.3762 10.6447 15.3188 10.7478 15.3071 10.7764C15.2339 10.9557 14.9479 11.1148 14.7844 10.9302C14.7659 10.9092 14.7446 10.8868 14.7168 10.8586C14.708 10.8496 14.6845 10.8261 14.6656 10.8071C14.6539 10.7955 14.644 10.7856 14.6404 10.7819C14.449 10.5888 14.365 10.4627 14.365 10.2976C14.365 10.2694 14.364 10.2456 14.3623 10.2268L14.2927 10.2897V7.54324ZM14.2927 7.54324L14.2875 7.53691L14.2927 7.53059V7.54324ZM14.2875 7.53691L14.2823 7.54324V7.53059L14.2875 7.53691ZM14.2204 10.1836L14.2224 10.1802L14.2218 10.1815L14.2204 10.1836Z" fill="white"/>
<path fill-rule="evenodd" clip-rule="evenodd" d="M14.2785 10.0497V7.8229L15.2199 8.88787L14.7363 10.0497C14.5581 9.98763 14.4957 10.1191 14.5875 10.3533C14.6423 10.4929 14.6855 10.5934 14.7276 10.671C14.5673 10.5085 14.5005 10.4068 14.5005 10.2976C14.5005 10.2093 14.4923 10.1485 14.4709 10.1085C14.4608 10.0897 14.3762 10.0716 14.3219 10.06C14.3008 10.0555 14.2843 10.0519 14.2785 10.0497ZM13.8386 10.0497L13.3551 8.88787L14.2736 7.83109V10.0579C14.2676 10.0602 14.252 10.0632 14.2325 10.067C14.1849 10.0762 14.1141 10.09 14.1041 10.1085C14.0827 10.1485 14.0745 10.2093 14.0745 10.2976C14.0745 10.4068 14.0077 10.5085 13.8474 10.671C13.8895 10.5934 13.9327 10.4929 13.9874 10.3533C14.0793 10.1191 14.0169 9.98763 13.8386 10.0497Z" fill="#FEDF00"/>
<path fill-rule="evenodd" clip-rule="evenodd" d="M13.1854 11.4778H12.7791V15.5222H13.1854V11.4778ZM13.9979 11.4778H13.5916V15.5222H13.9979V11.4778ZM14.4041 11.4778H14.8104V15.5222H14.4041V11.4778ZM15.6229 11.4778H15.2166V15.5222H15.6229V11.4778Z" fill="#D00F3A"/>
<path fill-rule="evenodd" clip-rule="evenodd" d="M17.3833 7.14444H16.9771V11.1889H17.3833V7.14444ZM18.1958 7.14444H17.7896V11.1889H18.1958V7.14444ZM18.6021 7.14444H19.0083V11.1889H18.6021V7.14444ZM19.8208 7.14444H19.4146V11.1889H19.8208V7.14444Z" fill="#D00F3A"/>
</g>
</g>
</svg>
