<svg width="32" height="24" viewBox="0 0 32 24" fill="none" xmlns="http://www.w3.org/2000/svg">
<mask id="mask0_55_13682" style="mask-type:alpha" maskUnits="userSpaceOnUse" x="0" y="0" width="32" height="24">
<rect width="32" height="24" fill="white"/>
</mask>
<g mask="url(#mask0_55_13682)">
<path fill-rule="evenodd" clip-rule="evenodd" d="M0 0H32V24H0V0Z" fill="#F7FCFF"/>
<path fill-rule="evenodd" clip-rule="evenodd" d="M0 0V8H32V0H0Z" fill="#C51918"/>
<path fill-rule="evenodd" clip-rule="evenodd" d="M0 16V24H32V16H0Z" fill="#5EAA22"/>
<path fill-rule="evenodd" clip-rule="evenodd" d="M0 -2L16.6696 12L0 26V-2Z" fill="#272727"/>
<mask id="path-6-outside-1_55_13682" maskUnits="userSpaceOnUse" x="-2" y="-8.35498" width="36" height="40" fill="black">
<rect fill="white" x="-2" y="-8.35498" width="36" height="40"/>
<path fill-rule="evenodd" clip-rule="evenodd" d="M0 -3.35498L17.4083 9.99997H32V14H17.1694L0 26.8115V22.3402L14 12L0 1.53447V-3.35498Z"/>
</mask>
<path fill-rule="evenodd" clip-rule="evenodd" d="M0 -3.35498L17.4083 9.99997H32V14H17.1694L0 26.8115V22.3402L14 12L0 1.53447V-3.35498Z" fill="#FFD018"/>
<path d="M17.4083 9.99997L16.1909 11.5868L16.7295 12H17.4083V9.99997ZM0 -3.35498L1.21736 -4.94182L-2 -7.41004V-3.35498H0ZM32 9.99997H34V7.99997H32V9.99997ZM32 14V16H34V14H32ZM17.1694 14V12H16.5054L15.9733 12.397L17.1694 14ZM0 26.8115H-2V30.7993L1.19608 28.4144L0 26.8115ZM0 22.3402L-1.18821 20.7314L-2 21.331V22.3402H0ZM14 12L15.1882 13.6087L17.3533 12.0096L15.1975 10.3981L14 12ZM0 1.53447H-2V2.53645L-1.19747 3.13636L0 1.53447ZM18.6257 8.41313L1.21736 -4.94182L-1.21736 -1.76815L16.1909 11.5868L18.6257 8.41313ZM32 7.99997H17.4083V12H32V7.99997ZM34 14V9.99997H30V14H34ZM17.1694 16H32V12H17.1694V16ZM1.19608 28.4144L18.3655 15.6029L15.9733 12.397L-1.19608 25.2086L1.19608 28.4144ZM-2 22.3402V26.8115H2V22.3402H-2ZM12.8118 10.3912L-1.18821 20.7314L1.18821 23.9489L15.1882 13.6087L12.8118 10.3912ZM-1.19747 3.13636L12.8025 13.6019L15.1975 10.3981L1.19747 -0.0674216L-1.19747 3.13636ZM-2 -3.35498V1.53447H2V-3.35498H-2Z" fill="#272727" mask="url(#path-6-outside-1_55_13682)"/>
<path d="M4.87368 16.768L4.87568 15.1877C6.28401 14.877 7.21696 14.4729 7.67108 13.9869C8.78931 12.6087 8.04595 9.37983 5.74858 9.40094C4.6104 9.40094 3.43341 9.94333 3.43341 11.2199C3.43341 12.8053 3.75967 13.483 4.87568 13.483C5.98473 13.483 6.39134 13.5423 7.12189 12.5466L7.91467 12.7916C7.13183 13.8586 6.07658 14.7014 4.87368 14.7014C2.89214 14.7014 1.81378 13.2074 1.81378 11.4795C1.81378 9.34636 3.54546 7.85242 5.6334 7.85242C7.19132 7.85242 9.65546 9.76062 9.65546 11.4795C9.65546 13.1983 9.65546 13.9869 8.30429 15.1877C7.76007 15.6714 6.41161 16.5351 4.87368 16.768Z" fill="#FFD018"/>
<path fill-rule="evenodd" clip-rule="evenodd" d="M4.99141 9.87977C4.91512 9.85963 4.83696 9.90514 4.81681 9.98142L4.7622 10.1882C4.75947 10.1847 4.75673 10.1812 4.75399 10.1776C4.70576 10.1152 4.61605 10.1036 4.5536 10.1519C4.49116 10.2001 4.47963 10.2898 4.52786 10.3522C4.56095 10.3951 4.59361 10.4375 4.62583 10.4793L4.4612 10.6313C4.40323 10.6848 4.39963 10.7752 4.45316 10.8332C4.50668 10.8912 4.59706 10.8948 4.65503 10.8412L4.8005 10.7069C4.88735 10.8204 4.97059 10.9298 5.05011 11.0348L4.77625 11.1818C4.70674 11.2192 4.68064 11.3058 4.71796 11.3753C4.75528 11.4448 4.84188 11.4709 4.9114 11.4336L5.22417 11.2657C5.29921 11.3656 5.37036 11.461 5.43753 11.5516L5.06197 11.7533C4.99245 11.7906 4.96635 11.8772 5.00367 11.9467C5.04099 12.0162 5.1276 12.0423 5.19711 12.005L5.60864 11.7841C5.7181 11.9338 5.81405 12.0673 5.89598 12.1837L5.6334 12.3247C5.56388 12.362 5.53778 12.4486 5.5751 12.5181C5.61242 12.5876 5.69903 12.6137 5.76854 12.5764L6.05916 12.4204C6.18003 12.6005 6.24261 12.7086 6.24261 12.737C6.24261 12.8159 6.30657 12.8799 6.38547 12.8799C6.46437 12.8799 6.52833 12.8159 6.52833 12.737C6.52833 12.6647 6.45311 12.5126 6.29592 12.2689C6.2982 12.2649 6.30029 12.2609 6.30218 12.2567L6.51358 11.7913C6.5462 11.7194 6.51442 11.6347 6.44258 11.6021C6.37075 11.5695 6.28606 11.6013 6.25344 11.6731L6.10902 11.9911C6.0188 11.8612 5.91348 11.7142 5.79256 11.5492L5.94215 11.2198C5.97478 11.148 5.94299 11.0633 5.87115 11.0307C5.79932 10.9981 5.71463 11.0298 5.68201 11.1017L5.59815 11.2863C5.55193 11.2243 5.50391 11.1602 5.45405 11.094L5.65643 10.6484C5.68906 10.5766 5.65728 10.4919 5.58544 10.4593C5.5136 10.4266 5.42892 10.4584 5.39629 10.5302L5.25796 10.8348C5.17083 10.7202 5.07895 10.6 4.98225 10.474L5.09306 10.0544C5.1132 9.97808 5.06769 9.89991 4.99141 9.87977Z" fill="#FFD018"/>
<path fill-rule="evenodd" clip-rule="evenodd" d="M5.95217 9.87977C6.02845 9.85963 6.10662 9.90514 6.12676 9.98142L6.18137 10.1882C6.18411 10.1847 6.18684 10.1812 6.18958 10.1776C6.23781 10.1152 6.32752 10.1036 6.38997 10.1519C6.45241 10.2001 6.46394 10.2898 6.41571 10.3522C6.38262 10.3951 6.34996 10.4375 6.31775 10.4793L6.48238 10.6313C6.54034 10.6848 6.54394 10.7752 6.49042 10.8332C6.43689 10.8912 6.34651 10.8948 6.28855 10.8412L6.14307 10.7069C6.05622 10.8204 5.97299 10.9298 5.89346 11.0348L6.16732 11.1818C6.23683 11.2192 6.26293 11.3058 6.22561 11.3753C6.1883 11.4448 6.10169 11.4709 6.03218 11.4336L5.7194 11.2657C5.64436 11.3656 5.57321 11.461 5.50604 11.5516L5.88161 11.7533C5.95112 11.7906 5.97722 11.8772 5.9399 11.9467C5.90258 12.0162 5.81598 12.0423 5.74646 12.005L5.33493 11.7841C5.22548 11.9338 5.12952 12.0673 5.0476 12.1837L5.31018 12.3247C5.37969 12.362 5.40579 12.4486 5.36847 12.5181C5.33115 12.5876 5.24455 12.6137 5.17503 12.5764L4.88442 12.4204C4.76354 12.6005 4.70096 12.7086 4.70096 12.737C4.70096 12.8159 4.637 12.8799 4.55811 12.8799C4.47921 12.8799 4.41525 12.8159 4.41525 12.737C4.41525 12.6647 4.49046 12.5126 4.64765 12.2689C4.64538 12.2649 4.64329 12.2609 4.64139 12.2567L4.43 11.7913C4.39737 11.7194 4.42916 11.6347 4.50099 11.6021C4.57283 11.5695 4.65751 11.6013 4.69014 11.6731L4.83455 11.9911C4.92478 11.8612 5.03009 11.7142 5.15102 11.5492L5.00142 11.2198C4.9688 11.148 5.00058 11.0633 5.07242 11.0307C5.14426 10.9981 5.22894 11.0298 5.26156 11.1017L5.34543 11.2863C5.39164 11.2243 5.43967 11.1602 5.48953 11.094L5.28714 10.6484C5.25451 10.5766 5.2863 10.4919 5.35813 10.4593C5.42997 10.4266 5.51465 10.4584 5.54728 10.5302L5.68561 10.8348C5.77274 10.7202 5.86462 10.6 5.96132 10.474L5.85051 10.0544C5.83037 9.97808 5.87588 9.89991 5.95217 9.87977Z" fill="#FFD018"/>
</g>
</svg>
