<svg width="1106" height="1020" viewBox="0 0 1106 1020" fill="none" xmlns="http://www.w3.org/2000/svg">
<rect x="24" y="208" width="679" height="788" fill="#F1F5FC"/>
<rect x="0.5" y="156.5" width="726" height="863" stroke="#CAD0D6"/>
<rect width="276" height="66" transform="translate(420)" fill="#0080FF"/>
<path d="M510.222 29.418H507.274V21.63H504.37V41.892H507.274V31.838H510.222V29.418ZM498.87 23.192H495.944V26.14C495.944 29.902 494.404 33.796 490.994 35.38L492.732 37.734C495.02 36.612 496.538 34.478 497.418 31.904C498.276 34.39 499.684 36.282 501.796 37.36L503.556 35.072C500.3 33.488 498.87 29.792 498.87 26.14V23.192ZM524.586 21.63V26.096H521.352C520.758 23.918 518.734 22.466 516.138 22.466C513.102 22.466 510.814 24.49 510.814 27.306C510.814 30.122 513.102 32.146 516.138 32.146C518.734 32.146 520.846 30.628 521.374 28.45H524.586V32.52H527.49V21.63H524.586ZM516.138 29.726C514.642 29.726 513.586 28.824 513.586 27.306C513.586 25.788 514.642 24.886 516.138 24.886C517.634 24.886 518.712 25.788 518.712 27.306C518.712 28.824 517.634 29.726 516.138 29.726ZM524.608 35.336H516.952V33.4H514.07V41.65H527.49V33.4H524.608V35.336ZM524.608 39.362H516.952V37.536H524.608V39.362ZM531.625 32.718C535.167 32.3 537.521 30.936 538.841 29.088C540.161 30.936 542.559 32.3 546.013 32.718L547.047 30.43C542.867 29.968 540.689 27.966 540.337 26.25H546.343V23.94H540.271V21.674H537.367V23.94H531.339V26.25H537.323C536.971 28.01 534.837 29.968 530.613 30.43L531.625 32.718ZM548.015 33.752H529.711V36.106H537.367V41.936H540.271V36.106H548.015V33.752ZM565.657 21.63H562.731V36.282H565.657V21.63ZM561.455 31.552C558.199 30.496 556.703 27.966 556.703 25.612V25.37H560.707V23.082H549.685V25.37H553.755V25.612C553.755 28.142 552.259 30.804 548.915 31.86L550.389 34.126C552.765 33.356 554.371 31.838 555.273 29.814C556.219 31.662 557.693 33.07 559.981 33.774L561.455 31.552ZM555.075 39.23V34.962H552.171V41.54H566.163V39.23H555.075ZM582.023 21.63V41.87H584.927V21.63H582.023ZM574.543 31.09C577.601 31.09 579.845 29.308 579.845 26.778C579.845 24.226 577.601 22.444 574.543 22.444C571.485 22.444 569.219 24.226 569.219 26.778C569.219 29.308 571.485 31.09 574.543 31.09ZM574.543 24.798C576.039 24.798 577.073 25.458 577.073 26.778C577.073 28.01 576.039 28.714 574.543 28.714C573.047 28.714 572.013 28.01 572.013 26.778C572.013 25.458 573.047 24.798 574.543 24.798ZM580.879 31.596C576.589 32.234 571.551 32.278 568.031 32.278L568.361 34.654C569.791 34.654 571.419 34.632 573.179 34.566V41.276H576.083V34.39C577.755 34.236 579.383 34.038 581.055 33.708L580.879 31.596ZM597.443 33.4V35.38H601.249V36.986H604.153V21.63H601.249V33.4H597.443ZM593.549 29.55C596.475 29.55 598.587 28.098 598.587 25.942C598.587 23.764 596.475 22.312 593.549 22.312C590.579 22.312 588.489 23.764 588.489 25.942C588.489 28.098 590.579 29.55 593.549 29.55ZM593.549 24.424C594.891 24.424 595.837 24.952 595.837 25.942C595.837 26.932 594.891 27.438 593.549 27.438C592.141 27.438 591.239 26.932 591.239 25.942C591.239 24.952 592.141 24.424 593.549 24.424ZM592.471 39.23V36.458H595.265V32.63C596.937 32.52 598.521 32.344 600.105 32.058L599.907 29.99C595.639 30.518 590.711 30.606 587.015 30.606L587.389 32.916C588.907 32.916 590.601 32.894 592.383 32.806V35.512H589.567V41.54H604.593V39.23H592.471ZM620.234 21.63V41.892H623.138V21.63H620.234ZM618.914 23.874H614.294V21.696H611.39V23.874H606.748V26.14H618.914V23.874ZM614.294 34.412C616.494 33.994 617.858 32.63 617.858 30.76C617.858 28.472 615.768 26.932 612.842 26.932C609.872 26.932 607.804 28.472 607.804 30.76C607.804 32.63 609.19 33.994 611.39 34.412V36.128C609.542 36.194 607.87 36.172 606.352 36.172L606.704 38.526C610.268 38.526 614.976 38.504 619.398 37.69L619.178 35.6C617.594 35.842 615.966 35.93 614.294 36.018V34.412ZM610.576 30.76C610.576 29.704 611.5 29.132 612.842 29.132C614.25 29.132 615.108 29.704 615.108 30.76C615.108 31.794 614.25 32.366 612.842 32.366C611.5 32.366 610.576 31.794 610.576 30.76Z" fill="white"/>
<rect width="276" height="66" transform="translate(225 122)" fill="#BA135A"/>
<path d="M298.04 152.782C301.846 152.518 304.244 151.484 305.564 149.878C306.818 151.484 309.172 152.518 313.066 152.782L313.924 150.626C309.612 150.384 307.588 149.064 307.236 147.722H312.956V145.456H306.994V143.674H304.09V145.456H298.15V147.722H303.87C303.518 149.064 301.494 150.384 297.182 150.626L298.04 152.782ZM306.994 153.794V151.858H304.09V153.794H296.412V156.06H314.716V153.794H306.994ZM305.52 157.028C300.922 157.028 298.502 158.238 298.502 160.46C298.502 162.682 301.098 163.914 305.52 163.914C309.942 163.914 312.56 162.682 312.56 160.46C312.56 158.238 309.942 157.028 305.52 157.028ZM305.52 161.758C302.792 161.758 301.428 161.318 301.428 160.46C301.428 159.514 302.77 159.162 305.52 159.162C308.27 159.162 309.612 159.514 309.612 160.46C309.612 161.318 308.248 161.758 305.52 161.758ZM331.72 147.898V143.608H328.816V154.388H331.72V150.274H334.162V147.898H331.72ZM326.418 150.714C326.836 148.602 326.836 146.908 326.836 145.676V144.488H316.43V146.754H323.976C323.954 147.744 323.866 148.954 323.602 150.45L326.418 150.714ZM327.738 151.396C325.802 151.594 323.822 151.726 321.798 151.814V148.668H318.938V151.88C317.618 151.902 316.408 151.902 315.264 151.902L315.506 154.146C319.136 154.146 323.712 154.08 327.892 153.376L327.738 151.396ZM320.786 160.372H331.72V155.114H317.838V157.248H328.816V158.37H317.882V163.738H332.38V161.56H320.786V160.372ZM343.841 152.408C348.241 152.408 351.123 150.78 351.123 148.206C351.123 145.654 348.241 144.004 343.841 144.004C339.507 144.004 336.559 145.654 336.559 148.206C336.559 150.78 339.507 152.408 343.841 152.408ZM343.841 146.314C346.415 146.314 347.999 146.952 347.999 148.206C347.999 149.46 346.415 150.098 343.841 150.098C341.267 150.098 339.705 149.46 339.705 148.206C339.705 146.952 341.267 146.314 343.841 146.314ZM334.689 153.464V155.774H342.543V159.25H345.513V155.774H353.037V153.464H334.689ZM339.771 157.468H336.823V163.54H351.035V161.23H339.771V157.468ZM367.863 153.09V155.51H370.767V143.63H367.863V146.27H363.397C362.429 145.302 361.087 144.708 359.415 144.708C356.423 144.708 354.091 146.798 354.091 149.68C354.091 152.54 356.423 154.63 359.415 154.63C360.999 154.63 362.385 154.058 363.353 153.09H367.863ZM356.841 149.68C356.841 148.096 357.919 147.172 359.415 147.172C360.911 147.172 362.011 148.096 362.011 149.68C362.011 151.264 360.911 152.188 359.415 152.188C357.919 152.188 356.841 151.264 356.841 149.68ZM367.863 148.58V150.78H364.629C364.717 150.406 364.761 150.032 364.761 149.68C364.761 149.262 364.717 148.932 364.651 148.58H367.863ZM363.903 155.906C359.635 155.906 356.973 157.38 356.973 159.91C356.973 162.418 359.635 163.914 363.903 163.914C368.193 163.914 370.855 162.418 370.855 159.91C370.855 157.38 368.193 155.906 363.903 155.906ZM363.903 161.67C361.241 161.67 359.833 161.142 359.833 159.91C359.833 158.678 361.241 158.15 363.903 158.15C366.565 158.15 367.995 158.678 367.995 159.91C367.995 161.142 366.565 161.67 363.903 161.67ZM387.023 143.63V163.87H389.927V143.63H387.023ZM379.543 153.09C382.601 153.09 384.845 151.308 384.845 148.778C384.845 146.226 382.601 144.444 379.543 144.444C376.485 144.444 374.219 146.226 374.219 148.778C374.219 151.308 376.485 153.09 379.543 153.09ZM379.543 146.798C381.039 146.798 382.073 147.458 382.073 148.778C382.073 150.01 381.039 150.714 379.543 150.714C378.047 150.714 377.013 150.01 377.013 148.778C377.013 147.458 378.047 146.798 379.543 146.798ZM385.879 153.596C381.589 154.234 376.551 154.278 373.031 154.278L373.361 156.654C374.791 156.654 376.419 156.632 378.179 156.566V163.276H381.083V156.39C382.755 156.236 384.383 156.038 386.055 155.708L385.879 153.596ZM402.443 155.4V157.38H406.249V158.986H409.153V143.63H406.249V155.4H402.443ZM398.549 151.55C401.475 151.55 403.587 150.098 403.587 147.942C403.587 145.764 401.475 144.312 398.549 144.312C395.579 144.312 393.489 145.764 393.489 147.942C393.489 150.098 395.579 151.55 398.549 151.55ZM398.549 146.424C399.891 146.424 400.837 146.952 400.837 147.942C400.837 148.932 399.891 149.438 398.549 149.438C397.141 149.438 396.239 148.932 396.239 147.942C396.239 146.952 397.141 146.424 398.549 146.424ZM397.471 161.23V158.458H400.265V154.63C401.937 154.52 403.521 154.344 405.105 154.058L404.907 151.99C400.639 152.518 395.711 152.606 392.015 152.606L392.389 154.916C393.907 154.916 395.601 154.894 397.383 154.806V157.512H394.567V163.54H409.593V161.23H397.471ZM425.234 143.63V163.892H428.138V143.63H425.234ZM423.914 145.874H419.294V143.696H416.39V145.874H411.748V148.14H423.914V145.874ZM419.294 156.412C421.494 155.994 422.858 154.63 422.858 152.76C422.858 150.472 420.768 148.932 417.842 148.932C414.872 148.932 412.804 150.472 412.804 152.76C412.804 154.63 414.19 155.994 416.39 156.412V158.128C414.542 158.194 412.87 158.172 411.352 158.172L411.704 160.526C415.268 160.526 419.976 160.504 424.398 159.69L424.178 157.6C422.594 157.842 420.966 157.93 419.294 158.018V156.412ZM415.576 152.76C415.576 151.704 416.5 151.132 417.842 151.132C419.25 151.132 420.108 151.704 420.108 152.76C420.108 153.794 419.25 154.366 417.842 154.366C416.5 154.366 415.576 153.794 415.576 152.76Z" fill="white"/>
<path d="M83.3254 292.59H86.2294V277.63H83.3254V281.942H79.6074V284.296H83.3254V292.59ZM81.3894 287.398C78.2214 286.276 76.8574 283.702 76.8574 281.062V278.862H73.9094V281.04C73.9094 283.922 72.5014 286.738 69.1574 287.86L70.6754 290.126C73.0514 289.268 74.5914 287.64 75.4494 285.528C76.3074 287.398 77.7374 288.872 79.8494 289.642L81.3894 287.398ZM75.7574 295.23V291.094H72.8534V297.54H86.6694V295.23H75.7574ZM99.2517 293.228V289.004H105.038V286.672H93.7077V281.348H104.884V279.016H90.7817V289.004H96.3477V293.228H88.6477V295.604H106.996V293.228H99.2517ZM122.636 277.608V285.418H120.81V278.004H118.104V296.946H120.81V287.75H122.636V297.892H125.386V277.608H122.636ZM111.438 282.316H116.08V279.962H108.578V293.338H109.986C112.56 293.338 114.738 293.25 117.202 292.788L116.982 290.434C115.046 290.786 113.374 290.874 111.438 290.94V282.316ZM139.288 279.412H134.778V277.52H131.852V279.412H127.364V281.7H139.288V279.412ZM145.998 282.844H143.314V277.63H140.41V290.324H143.314V285.242H145.998V282.844ZM138.298 286.056C138.298 283.856 136.252 282.338 133.326 282.338C130.4 282.338 128.354 283.856 128.354 286.056C128.354 288.256 130.4 289.796 133.326 289.796C136.252 289.796 138.298 288.256 138.298 286.056ZM131.126 286.056C131.126 285.022 132.006 284.538 133.326 284.538C134.646 284.538 135.526 285.022 135.526 286.056C135.526 287.09 134.646 287.596 133.326 287.596C132.006 287.596 131.126 287.09 131.126 286.056ZM129.806 293.492H140.41V297.914H143.314V291.16H129.806V293.492Z" fill="#0F3192"/>
<path d="M84.8434 884.616C85.3934 882.504 85.4154 880.81 85.4154 879.204V877.532H71.3794V879.82H82.5114C82.5114 881.162 82.4454 882.482 81.9834 884.33L84.8434 884.616ZM78.9914 885.694V882.152H76.0874V885.694H69.3334V887.982H87.5714V885.694H78.9914ZM78.3314 889.258C73.9754 889.258 71.1594 890.71 71.1594 893.086C71.1594 895.44 73.9754 896.892 78.3314 896.892C82.7094 896.892 85.5254 895.44 85.5254 893.086C85.5254 890.71 82.7094 889.258 78.3314 889.258ZM78.3314 894.714C75.5814 894.714 74.0414 894.164 74.0414 893.086C74.0414 891.964 75.5814 891.436 78.3314 891.436C81.0814 891.436 82.6434 891.964 82.6434 893.086C82.6434 894.164 81.0814 894.714 78.3314 894.714ZM104.202 884.616C104.752 882.504 104.774 880.81 104.774 879.204V877.532H90.7377V879.82H101.87C101.87 881.162 101.804 882.482 101.342 884.33L104.202 884.616ZM98.3497 885.694V882.152H95.4457V885.694H88.6917V887.982H106.93V885.694H98.3497ZM97.6897 889.258C93.3337 889.258 90.5177 890.71 90.5177 893.086C90.5177 895.44 93.3337 896.892 97.6897 896.892C102.068 896.892 104.884 895.44 104.884 893.086C104.884 890.71 102.068 889.258 97.6897 889.258ZM97.6897 894.714C94.9397 894.714 93.3997 894.164 93.3997 893.086C93.3997 891.964 94.9397 891.436 97.6897 891.436C100.44 891.436 102.002 891.964 102.002 893.086C102.002 894.164 100.44 894.714 97.6897 894.714ZM121.954 876.608V896.87H124.88V876.608H121.954ZM109.128 878.72V881.03H115.882C115.464 885.518 113.22 888.708 108.05 891.172L109.568 893.46C116.762 890.006 118.852 884.902 118.852 878.72H109.128ZM143.534 882.79V876.608H140.63V891.788H143.534V885.188H145.954V882.79H143.534ZM138.188 885.32C138.65 882.746 138.65 880.766 138.65 879.358V878.104H128.244V880.414H135.79C135.768 881.646 135.68 883.054 135.35 884.99L138.188 885.32ZM139.53 886.134C137.594 886.398 135.636 886.552 133.612 886.64V882.812H130.774V886.75C129.454 886.772 128.2 886.772 127.078 886.772L127.342 889.082C130.796 889.082 135.548 888.972 139.706 888.202L139.53 886.134ZM132.93 890.446H130.026V896.54H144.172V894.23H132.93V890.446ZM83.1714 901.63V921.892H86.0754V901.63H83.1714ZM77.1214 905.964H81.3014V903.566H69.9494V905.964H74.1734V907.086C74.1734 910.54 72.5454 914.258 69.1354 915.776L70.7854 918.086C73.1614 917.008 74.7894 914.808 75.6914 912.146C76.5934 914.632 78.1774 916.546 80.5534 917.58L82.1374 915.292C78.7494 913.884 77.1214 910.386 77.1214 907.086V905.964ZM102.684 901.63V904.358H98.3057C97.3377 903.324 95.9077 902.686 94.2357 902.686C91.2437 902.686 88.9117 904.798 88.9117 907.702C88.9117 910.628 91.2437 912.74 94.2357 912.74C95.9077 912.74 97.3157 912.102 98.2837 911.068H102.684V913.62H105.588V901.63H102.684ZM94.2357 910.254C92.7397 910.254 91.6617 909.308 91.6617 907.702C91.6617 906.118 92.7397 905.172 94.2357 905.172C95.7317 905.172 96.8317 906.118 96.8317 907.702C96.8317 909.308 95.7317 910.254 94.2357 910.254ZM99.4717 908.758C99.5377 908.406 99.5817 908.054 99.5817 907.702C99.5817 907.328 99.5377 906.998 99.4717 906.668H102.684V908.758H99.4717ZM91.7937 916.832H102.684V921.914H105.588V914.544H91.7937V916.832ZM121.954 901.608V921.87H124.88V901.608H121.954ZM109.128 903.72V906.03H115.882C115.464 910.518 113.22 913.708 108.05 916.172L109.568 918.46C116.762 915.006 118.852 909.902 118.852 903.72H109.128ZM141.4 901.63V906.096H138.166C137.572 903.918 135.548 902.466 132.952 902.466C129.916 902.466 127.628 904.49 127.628 907.306C127.628 910.122 129.916 912.146 132.952 912.146C135.548 912.146 137.66 910.628 138.188 908.45H141.4V912.52H144.304V901.63H141.4ZM132.952 909.726C131.456 909.726 130.4 908.824 130.4 907.306C130.4 905.788 131.456 904.886 132.952 904.886C134.448 904.886 135.526 905.788 135.526 907.306C135.526 908.824 134.448 909.726 132.952 909.726ZM141.422 915.336H133.766V913.4H130.884V921.65H144.304V913.4H141.422V915.336ZM141.422 919.362H133.766V917.536H141.422V919.362Z" fill="#0F3192"/>
<rect width="228" height="66" transform="translate(183 257)" fill="white"/>
<path d="M255.344 287.56C258.804 287.32 260.984 286.38 262.184 284.92C263.324 286.38 265.464 287.32 269.004 287.56L269.784 285.6C265.924 285.38 264.104 284.24 263.724 283.02H268.904V280.96H263.484V279.34H260.844V280.96H255.444V283.02H260.624C260.204 284.24 258.464 285.38 254.564 285.6L255.344 287.56ZM270.504 290.22V288.16H253.864V290.22H260.844V291.52C257.624 291.76 255.764 292.82 255.764 294.6C255.764 296.62 257.964 297.72 262.144 297.72C266.164 297.72 268.544 296.62 268.544 294.6C268.544 292.82 266.704 291.76 263.484 291.52V290.22H270.504ZM265.864 294.6C265.864 295.38 264.624 295.78 262.144 295.78C259.664 295.78 258.424 295.38 258.424 294.6C258.424 293.74 259.644 293.42 262.144 293.42C264.644 293.42 265.864 293.74 265.864 294.6ZM288.202 283.18H285.762V279.3H283.122V289.66H285.762V285.34H288.202V283.18ZM281.682 285.86C279.182 286.34 276.902 286.5 274.642 286.56V280.16H272.002V288.76H273.562C276.222 288.76 278.922 288.6 281.982 287.98L281.682 285.86ZM273.762 297.5H285.762V290.52H273.762V297.5ZM276.362 292.58H283.182V295.44H276.362V292.58ZM301.961 279.28V286.38H300.301V279.64H297.841V296.86H300.301V288.5H301.961V297.72H304.461V279.28H301.961ZM291.781 283.56H296.001V281.42H289.181V293.58H290.461C292.801 293.58 294.781 293.5 297.021 293.08L296.821 290.94C295.061 291.26 293.541 291.34 291.781 291.4V283.56ZM316.899 280.92H312.799V279.2H310.139V280.92H306.059V283H316.899V280.92ZM322.999 284.04H320.559V279.3H317.919V290.84H320.559V286.22H322.999V284.04ZM315.999 286.96C315.999 284.96 314.139 283.58 311.479 283.58C308.819 283.58 306.959 284.96 306.959 286.96C306.959 288.96 308.819 290.36 311.479 290.36C314.139 290.36 315.999 288.96 315.999 286.96ZM309.479 286.96C309.479 286.02 310.279 285.58 311.479 285.58C312.679 285.58 313.479 286.02 313.479 286.96C313.479 287.9 312.679 288.36 311.479 288.36C310.279 288.36 309.479 287.9 309.479 286.96ZM308.279 293.72H317.919V297.74H320.559V291.6H308.279V293.72ZM337.998 291.18C338.638 287.44 338.618 284.9 338.618 282.66V280.88H325.078V282.98H335.978C335.978 285.12 335.938 287.56 335.358 290.92L337.998 291.18ZM334.098 293.38V287.56H331.518V293.38H329.558V287.56H326.958V293.38H323.458V295.5H340.138V293.38H334.098Z" fill="#222222"/>
<path d="M80.4654 377.346H76.5054V375.476H73.6014V377.346H69.3554V379.634H80.4654V377.346ZM83.3254 375.63V379.942H80.7294V382.252H83.3254V383.946H80.6854V386.256H83.3254V387.708H86.2294V375.63H83.3254ZM79.7834 383.902C79.7834 381.702 77.8034 380.228 75.0534 380.228C72.2594 380.228 70.3014 381.702 70.3014 383.902C70.3014 386.102 72.2594 387.598 75.0534 387.598C77.8034 387.598 79.7834 386.102 79.7834 383.902ZM73.0074 383.902C73.0074 382.868 73.8214 382.362 75.0534 382.362C76.2854 382.362 77.0994 382.868 77.0994 383.902C77.0994 384.936 76.2854 385.464 75.0534 385.464C73.8214 385.464 73.0074 384.936 73.0074 383.902ZM83.3694 389.93H75.5374V388.456H72.6774V395.65H86.2294V388.456H83.3694V389.93ZM83.3694 393.428H75.5374V392.064H83.3694V393.428ZM102.684 375.652V378.424H99.4277V380.756H102.684V382.758H99.4277V385.068H102.684V388.126H105.588V375.63L102.684 375.652ZM98.9877 384.804C96.9857 385.156 95.1817 385.288 92.2997 385.288V383.176H98.2617V376.774H89.3957V379.106H95.4017V381.02H89.4177V387.62H90.9797C94.8297 387.62 96.9417 387.576 99.2737 387.114L98.9877 384.804ZM91.7277 391.338H102.684V395.914H105.588V389.028H91.7277V391.338ZM122.636 375.608V383.418H120.81V376.004H118.104V394.946H120.81V385.75H122.636V395.892H125.386V375.608H122.636ZM111.438 380.316H116.08V377.962H108.578V391.338H109.986C112.56 391.338 114.738 391.25 117.202 390.788L116.982 388.434C115.046 388.786 113.374 388.874 111.438 388.94V380.316ZM139.288 377.412H134.778V375.52H131.852V377.412H127.364V379.7H139.288V377.412ZM145.998 380.844H143.314V375.63H140.41V388.324H143.314V383.242H145.998V380.844ZM138.298 384.056C138.298 381.856 136.252 380.338 133.326 380.338C130.4 380.338 128.354 381.856 128.354 384.056C128.354 386.256 130.4 387.796 133.326 387.796C136.252 387.796 138.298 386.256 138.298 384.056ZM131.126 384.056C131.126 383.022 132.006 382.538 133.326 382.538C134.646 382.538 135.526 383.022 135.526 384.056C135.526 385.09 134.646 385.596 133.326 385.596C132.006 385.596 131.126 385.09 131.126 384.056ZM129.806 391.492H140.41V395.914H143.314V389.16H129.806V391.492Z" fill="#0F3192"/>
<rect width="228" height="66" transform="translate(183 355)" fill="white"/>
<path d="M263.444 382.66V384.8H266.624V390.76H269.264V377.3H266.624V382.66H263.444ZM255.044 378.68V380.78H260.784C260.324 383.52 258.084 385.68 254.084 386.88L255.164 389C260.504 387.3 263.604 383.66 263.604 378.68H255.044ZM259.864 393.3V389.44H257.224V395.4H269.724V393.3H259.864ZM288.122 381.72V379.56H285.762V377.3H283.122V388.04H285.762V385.72H288.122V383.56H285.762V381.72H288.122ZM281.382 382.78C281.382 380.16 279.222 378.3 276.402 378.3C273.562 378.3 271.402 380.16 271.402 382.78C271.402 385.36 273.562 387.24 276.402 387.24C279.222 387.24 281.382 385.36 281.382 382.78ZM273.982 382.78C273.982 381.34 274.962 380.52 276.402 380.52C277.782 380.52 278.822 381.34 278.822 382.78C278.822 384.22 277.782 385.02 276.402 385.02C274.962 385.02 273.982 384.22 273.982 382.78ZM279.742 388.44C275.922 388.44 273.502 389.8 273.502 392.08C273.502 394.38 275.922 395.74 279.742 395.74C283.522 395.74 285.962 394.38 285.962 392.08C285.962 389.8 283.522 388.44 279.742 388.44ZM279.742 393.66C277.322 393.66 276.122 393.2 276.122 392.08C276.122 391.02 277.322 390.5 279.742 390.5C282.082 390.5 283.342 391.02 283.342 392.08C283.342 393.2 282.082 393.66 279.742 393.66ZM301.961 377.28V384.38H300.301V377.64H297.841V394.86H300.301V386.5H301.961V395.72H304.461V377.28H301.961ZM291.781 381.56H296.001V379.42H289.181V391.58H290.461C292.801 391.58 294.781 391.5 297.021 391.08L296.821 388.94C295.061 389.26 293.541 389.34 291.781 389.4V381.56ZM316.899 378.92H312.799V377.2H310.139V378.92H306.059V381H316.899V378.92ZM322.999 382.04H320.559V377.3H317.919V388.84H320.559V384.22H322.999V382.04ZM315.999 384.96C315.999 382.96 314.139 381.58 311.479 381.58C308.819 381.58 306.959 382.96 306.959 384.96C306.959 386.96 308.819 388.36 311.479 388.36C314.139 388.36 315.999 386.96 315.999 384.96ZM309.479 384.96C309.479 384.02 310.279 383.58 311.479 383.58C312.679 383.58 313.479 384.02 313.479 384.96C313.479 385.9 312.679 386.36 311.479 386.36C310.279 386.36 309.479 385.9 309.479 384.96ZM308.279 391.72H317.919V395.74H320.559V389.6H308.279V391.72ZM337.998 389.18C338.638 385.44 338.618 382.9 338.618 380.66V378.88H325.078V380.98H335.978C335.978 383.12 335.938 385.56 335.358 388.92L337.998 389.18ZM334.098 391.38V385.56H331.518V391.38H329.558V385.56H326.958V391.38H323.458V393.5H340.138V391.38H334.098Z" fill="#222222"/>
<rect width="228" height="66" transform="translate(183 431)" fill="white"/>
<path d="M268.204 465.46C268.944 461.56 268.944 458.94 268.944 456.64V454.88H255.564V456.98H266.304C266.304 459.12 266.264 461.7 265.564 465.16L268.204 465.46ZM262.404 467.38V461.04H259.764V467.38H253.884V469.5H270.544V467.38H262.404ZM284.022 453.28V457.2H281.002V459.32H284.022V462.2H280.962V464.32H284.022V471.76H286.682V453.28H284.022ZM274.502 461.96H280.082V454.84H271.862V456.94H277.482V459.88H271.902V467.66H273.382C276.162 467.66 278.482 467.6 281.202 467.18L281.002 465.02C278.682 465.36 276.742 465.46 274.502 465.48V461.96ZM301.961 453.28V460.38H300.301V453.64H297.841V470.86H300.301V462.5H301.961V471.72H304.461V453.28H301.961ZM291.781 457.56H296.001V455.42H289.181V467.58H290.461C292.801 467.58 294.781 467.5 297.021 467.08L296.821 464.94C295.061 465.26 293.541 465.34 291.781 465.4V457.56ZM316.899 454.92H312.799V453.2H310.139V454.92H306.059V457H316.899V454.92ZM322.999 458.04H320.559V453.3H317.919V464.84H320.559V460.22H322.999V458.04ZM315.999 460.96C315.999 458.96 314.139 457.58 311.479 457.58C308.819 457.58 306.959 458.96 306.959 460.96C306.959 462.96 308.819 464.36 311.479 464.36C314.139 464.36 315.999 462.96 315.999 460.96ZM309.479 460.96C309.479 460.02 310.279 459.58 311.479 459.58C312.679 459.58 313.479 460.02 313.479 460.96C313.479 461.9 312.679 462.36 311.479 462.36C310.279 462.36 309.479 461.9 309.479 460.96ZM308.279 467.72H317.919V471.74H320.559V465.6H308.279V467.72ZM337.998 465.18C338.638 461.44 338.618 458.9 338.618 456.66V454.88H325.078V456.98H335.978C335.978 459.12 335.938 461.56 335.358 464.92L337.998 465.18ZM334.098 467.38V461.56H331.518V467.38H329.558V461.56H326.958V467.38H323.458V469.5H340.138V467.38H334.098Z" fill="#222222"/>
<rect width="228" height="66" transform="translate(183 507)" fill="white"/>
<path d="M268.004 536.56C268.504 534.64 268.524 533.1 268.524 531.64V530.12H255.764V532.2H265.884C265.884 533.42 265.824 534.62 265.404 536.3L268.004 536.56ZM262.684 537.54V534.32H260.044V537.54H253.904V539.62H270.484V537.54H262.684ZM262.084 540.78C258.124 540.78 255.564 542.1 255.564 544.26C255.564 546.4 258.124 547.72 262.084 547.72C266.064 547.72 268.624 546.4 268.624 544.26C268.624 542.1 266.064 540.78 262.084 540.78ZM262.084 545.74C259.584 545.74 258.184 545.24 258.184 544.26C258.184 543.24 259.584 542.76 262.084 542.76C264.584 542.76 266.004 543.24 266.004 544.26C266.004 545.24 264.584 545.74 262.084 545.74ZM273.022 538.42C276.242 537.96 278.482 536.64 279.602 534.72C280.722 536.64 282.962 537.96 286.182 538.42L287.122 536.36C283.362 535.88 281.442 534.12 281.182 532.34H286.402V530.24H272.742V532.34H278.042C277.782 534.12 275.842 535.88 272.062 536.36L273.022 538.42ZM287.922 539.48H271.282V541.58H278.222V547.76H280.862V541.58H287.922V539.48ZM301.961 529.28V536.38H300.301V529.64H297.841V546.86H300.301V538.5H301.961V547.72H304.461V529.28H301.961ZM291.781 533.56H296.001V531.42H289.181V543.58H290.461C292.801 543.58 294.781 543.5 297.021 543.08L296.821 540.94C295.061 541.26 293.541 541.34 291.781 541.4V533.56ZM316.899 530.92H312.799V529.2H310.139V530.92H306.059V533H316.899V530.92ZM322.999 534.04H320.559V529.3H317.919V540.84H320.559V536.22H322.999V534.04ZM315.999 536.96C315.999 534.96 314.139 533.58 311.479 533.58C308.819 533.58 306.959 534.96 306.959 536.96C306.959 538.96 308.819 540.36 311.479 540.36C314.139 540.36 315.999 538.96 315.999 536.96ZM309.479 536.96C309.479 536.02 310.279 535.58 311.479 535.58C312.679 535.58 313.479 536.02 313.479 536.96C313.479 537.9 312.679 538.36 311.479 538.36C310.279 538.36 309.479 537.9 309.479 536.96ZM308.279 543.72H317.919V547.74H320.559V541.6H308.279V543.72ZM337.998 541.18C338.638 537.44 338.618 534.9 338.618 532.66V530.88H325.078V532.98H335.978C335.978 535.12 335.938 537.56 335.358 540.92L337.998 541.18ZM334.098 543.38V537.56H331.518V543.38H329.558V537.56H326.958V543.38H323.458V545.5H340.138V543.38H334.098Z" fill="#222222"/>
<rect width="228" height="66" transform="translate(183 583)" fill="white"/>
<path d="M263.484 614.26V612.54H268.404V606.02H255.904V612.54H260.844V614.26H253.864V616.36H270.504V614.26H263.484ZM258.504 608.08H265.804V610.46H258.504V608.08ZM255.704 619.78H265.864V623.74H268.504V617.68H255.704V619.78ZM280.662 616V617.8H284.122V619.26H286.762V605.3H284.122V616H280.662ZM277.122 612.5C279.782 612.5 281.702 611.18 281.702 609.22C281.702 607.24 279.782 605.92 277.122 605.92C274.422 605.92 272.522 607.24 272.522 609.22C272.522 611.18 274.422 612.5 277.122 612.5ZM277.122 607.84C278.342 607.84 279.202 608.32 279.202 609.22C279.202 610.12 278.342 610.58 277.122 610.58C275.842 610.58 275.022 610.12 275.022 609.22C275.022 608.32 275.842 607.84 277.122 607.84ZM276.142 621.3V618.78H278.682V615.3C280.202 615.2 281.642 615.04 283.082 614.78L282.902 612.9C279.022 613.38 274.542 613.46 271.182 613.46L271.522 615.56C272.902 615.56 274.442 615.54 276.062 615.46V617.92H273.502V623.4H287.162V621.3H276.142ZM301.961 605.28V612.38H300.301V605.64H297.841V622.86H300.301V614.5H301.961V623.72H304.461V605.28H301.961ZM291.781 609.56H296.001V607.42H289.181V619.58H290.461C292.801 619.58 294.781 619.5 297.021 619.08L296.821 616.94C295.061 617.26 293.541 617.34 291.781 617.4V609.56ZM316.899 606.92H312.799V605.2H310.139V606.92H306.059V609H316.899V606.92ZM322.999 610.04H320.559V605.3H317.919V616.84H320.559V612.22H322.999V610.04ZM315.999 612.96C315.999 610.96 314.139 609.58 311.479 609.58C308.819 609.58 306.959 610.96 306.959 612.96C306.959 614.96 308.819 616.36 311.479 616.36C314.139 616.36 315.999 614.96 315.999 612.96ZM309.479 612.96C309.479 612.02 310.279 611.58 311.479 611.58C312.679 611.58 313.479 612.02 313.479 612.96C313.479 613.9 312.679 614.36 311.479 614.36C310.279 614.36 309.479 613.9 309.479 612.96ZM308.279 619.72H317.919V623.74H320.559V617.6H308.279V619.72ZM337.998 617.18C338.638 613.44 338.618 610.9 338.618 608.66V606.88H325.078V608.98H335.978C335.978 611.12 335.938 613.56 335.358 616.92L337.998 617.18ZM334.098 619.38V613.56H331.518V619.38H329.558V613.56H326.958V619.38H323.458V621.5H340.138V619.38H334.098Z" fill="#222222"/>
<rect width="228" height="66" transform="translate(430 355)" fill="white"/>
<path d="M514.164 377.28V384.32H512.624V377.58H510.164V394.9H512.624V386.44H514.164V395.7H516.664V377.28H514.164ZM506.224 383.08H503.864V378.92H501.384V391.36H508.644V378.92H506.224V383.08ZM506.224 389.26H503.864V385.14H506.224V389.26ZM531.702 377.28V384.34H530.202V377.58H527.742V389.5C525.022 388.06 524.102 385.04 524.102 381.8V381.3H526.862V379.16H518.522V381.3H521.542V381.8C521.542 385.32 520.662 388.6 517.922 390.2L519.502 392.2C521.262 391.18 522.282 389.48 522.902 387.32C523.562 389.16 524.582 390.64 526.262 391.52L527.742 389.54V394.88H530.202V386.5H531.702V395.7H534.202V377.28H531.702ZM548.961 377.28V384.38H547.301V377.64H544.841V394.86H547.301V386.5H548.961V395.72H551.461V377.28H548.961ZM538.781 381.56H543.001V379.42H536.181V391.58H537.461C539.801 391.58 541.781 391.5 544.021 391.08L543.821 388.94C542.061 389.26 540.541 389.34 538.781 389.4V381.56ZM563.899 378.92H559.799V377.2H557.139V378.92H553.059V381H563.899V378.92ZM569.999 382.04H567.559V377.3H564.919V388.84H567.559V384.22H569.999V382.04ZM562.999 384.96C562.999 382.96 561.139 381.58 558.479 381.58C555.819 381.58 553.959 382.96 553.959 384.96C553.959 386.96 555.819 388.36 558.479 388.36C561.139 388.36 562.999 386.96 562.999 384.96ZM556.479 384.96C556.479 384.02 557.279 383.58 558.479 383.58C559.679 383.58 560.479 384.02 560.479 384.96C560.479 385.9 559.679 386.36 558.479 386.36C557.279 386.36 556.479 385.9 556.479 384.96ZM555.279 391.72H564.919V395.74H567.559V389.6H555.279V391.72ZM584.998 389.18C585.638 385.44 585.618 382.9 585.618 380.66V378.88H572.078V380.98H582.978C582.978 383.12 582.938 385.56 582.358 388.92L584.998 389.18ZM581.098 391.38V385.56H578.518V391.38H576.558V385.56H573.958V391.38H570.458V393.5H587.138V391.38H581.098Z" fill="#222222"/>
<rect width="228" height="66" transform="translate(430 431)" fill="white"/>
<path d="M511.724 455.24H507.604V453.28H504.944V455.24H500.864V457.3H511.704L511.724 455.24ZM515.364 458.92V453.3H512.724V467.08H515.364V461.1H517.804V458.92H515.364ZM510.804 461.5C510.804 459.42 508.904 457.96 506.284 457.96C503.624 457.96 501.764 459.42 501.764 461.5C501.764 463.62 503.624 465.06 506.284 465.06C508.904 465.06 510.804 463.62 510.804 461.5ZM504.284 461.5C504.284 460.48 505.084 459.96 506.284 459.96C507.484 459.96 508.284 460.48 508.284 461.5C508.284 462.52 507.484 463.06 506.284 463.06C505.084 463.06 504.284 462.52 504.284 461.5ZM506.124 466.06H503.484V471.4H516.024V469.3H506.124V466.06ZM535.202 457.18H532.762V453.3H530.122V463.66H532.762V459.34H535.202V457.18ZM528.682 459.86C526.182 460.34 523.902 460.5 521.642 460.56V454.16H519.002V462.76H520.562C523.222 462.76 525.922 462.6 528.982 461.98L528.682 459.86ZM520.762 471.5H532.762V464.52H520.762V471.5ZM523.362 466.58H530.182V469.44H523.362V466.58ZM548.961 453.28V460.38H547.301V453.64H544.841V470.86H547.301V462.5H548.961V471.72H551.461V453.28H548.961ZM538.781 457.56H543.001V455.42H536.181V467.58H537.461C539.801 467.58 541.781 467.5 544.021 467.08L543.821 464.94C542.061 465.26 540.541 465.34 538.781 465.4V457.56ZM563.899 454.92H559.799V453.2H557.139V454.92H553.059V457H563.899V454.92ZM569.999 458.04H567.559V453.3H564.919V464.84H567.559V460.22H569.999V458.04ZM562.999 460.96C562.999 458.96 561.139 457.58 558.479 457.58C555.819 457.58 553.959 458.96 553.959 460.96C553.959 462.96 555.819 464.36 558.479 464.36C561.139 464.36 562.999 462.96 562.999 460.96ZM556.479 460.96C556.479 460.02 557.279 459.58 558.479 459.58C559.679 459.58 560.479 460.02 560.479 460.96C560.479 461.9 559.679 462.36 558.479 462.36C557.279 462.36 556.479 461.9 556.479 460.96ZM555.279 467.72H564.919V471.74H567.559V465.6H555.279V467.72ZM584.998 465.18C585.638 461.44 585.618 458.9 585.618 456.66V454.88H572.078V456.98H582.978C582.978 459.12 582.938 461.56 582.358 464.92L584.998 465.18ZM581.098 467.38V461.56H578.518V467.38H576.558V461.56H573.958V467.38H570.458V469.5H587.138V467.38H581.098Z" fill="#222222"/>
<rect width="228" height="66" transform="translate(430 507)" fill="white"/>
<path d="M511.724 531.24H507.604V529.28H504.944V531.24H500.864V533.3H511.704L511.724 531.24ZM515.364 534.92V529.3H512.724V543.08H515.364V537.1H517.804V534.92H515.364ZM510.804 537.5C510.804 535.42 508.904 533.96 506.284 533.96C503.624 533.96 501.764 535.42 501.764 537.5C501.764 539.62 503.624 541.06 506.284 541.06C508.904 541.06 510.804 539.62 510.804 537.5ZM504.284 537.5C504.284 536.48 505.084 535.96 506.284 535.96C507.484 535.96 508.284 536.48 508.284 537.5C508.284 538.52 507.484 539.06 506.284 539.06C505.084 539.06 504.284 538.52 504.284 537.5ZM506.124 542.06H503.484V547.4H516.024V545.3H506.124V542.06ZM532.762 533.06V529.3H530.122V539.12H532.762V535.22H535.182V533.06H532.762ZM527.622 530.26H525.022V532.54H521.402V530.26H518.802V538.48H527.622V530.26ZM525.022 536.4H521.402V534.52H525.022V536.4ZM523.422 544.56H532.682V542.8H523.422V541.7H532.882V539.86H520.802V547.52H533.242V545.68H523.422V544.56ZM548.961 529.28V536.38H547.301V529.64H544.841V546.86H547.301V538.5H548.961V547.72H551.461V529.28H548.961ZM538.781 533.56H543.001V531.42H536.181V543.58H537.461C539.801 543.58 541.781 543.5 544.021 543.08L543.821 540.94C542.061 541.26 540.541 541.34 538.781 541.4V533.56ZM563.899 530.92H559.799V529.2H557.139V530.92H553.059V533H563.899V530.92ZM569.999 534.04H567.559V529.3H564.919V540.84H567.559V536.22H569.999V534.04ZM562.999 536.96C562.999 534.96 561.139 533.58 558.479 533.58C555.819 533.58 553.959 534.96 553.959 536.96C553.959 538.96 555.819 540.36 558.479 540.36C561.139 540.36 562.999 538.96 562.999 536.96ZM556.479 536.96C556.479 536.02 557.279 535.58 558.479 535.58C559.679 535.58 560.479 536.02 560.479 536.96C560.479 537.9 559.679 538.36 558.479 538.36C557.279 538.36 556.479 537.9 556.479 536.96ZM555.279 543.72H564.919V547.74H567.559V541.6H555.279V543.72ZM584.998 541.18C585.638 537.44 585.618 534.9 585.618 532.66V530.88H572.078V532.98H582.978C582.978 535.12 582.938 537.56 582.358 540.92L584.998 541.18ZM581.098 543.38V537.56H578.518V543.38H576.558V537.56H573.958V543.38H570.458V545.5H587.138V543.38H581.098Z" fill="#222222"/>
<path d="M71.2323 710.782C68.0863 709.968 66.6123 707.9 66.5463 705.92H70.5503V703.632H66.5463V701.564H63.6423V703.632H59.6823V705.92H63.6423C63.5763 708.12 62.1243 710.254 58.9563 711.134L60.2983 713.378C62.6743 712.696 64.2583 711.332 65.1383 709.55C66.0843 711.222 67.6243 712.432 69.9123 713.026L71.2323 710.782ZM77.7443 706.382H75.0603V701.63H72.1563V713.488H75.0603V708.758H77.7443V706.382ZM61.8823 721.65H75.0603V714.346H61.8823V721.65ZM64.7423 716.612H72.2223V719.384H64.7423V716.612ZM92.5706 701.608V705.766H88.2586C87.3566 704.006 85.8606 703.038 84.0126 703.038C80.9986 703.038 78.7766 705.81 78.7766 710.254C78.7766 714.72 80.9986 717.514 84.0126 717.514C85.9706 717.536 87.5326 716.436 88.4346 714.412H92.5706V721.936H95.4746V701.608H92.5706ZM84.0126 714.874C82.5166 714.874 81.5266 713.268 81.5266 710.254C81.5266 707.24 82.5166 705.656 84.0126 705.656C85.5086 705.656 86.5206 707.24 86.5206 710.254C86.5206 713.268 85.5086 714.874 84.0126 714.874ZM89.1166 712.058C89.2046 711.508 89.2486 710.892 89.2486 710.254C89.2486 709.484 89.1826 708.758 89.0506 708.098H92.5706V712.058H89.1166ZM111.709 701.63V721.892H114.613V701.63H111.709ZM105.659 705.964H109.839V703.566H98.4869V705.964H102.711V707.086C102.711 710.54 101.083 714.258 97.6729 715.776L99.3229 718.086C101.699 717.008 103.327 714.808 104.229 712.146C105.131 714.632 106.715 716.546 109.091 717.58L110.675 715.292C107.287 713.884 105.659 710.386 105.659 707.086V705.964ZM135.995 709.352H133.047V701.63H130.143V721.892H133.047V711.75H135.995V709.352ZM124.621 705.964H128.647V703.566H117.515V705.964H121.717V707.086C121.717 710.43 120.067 714.258 116.745 715.776L118.373 718.086C120.683 716.964 122.311 714.786 123.213 712.124C124.115 714.522 125.655 716.546 127.943 717.58L129.549 715.292C126.227 713.774 124.621 710.166 124.621 707.086V705.964ZM151.173 701.608V721.87H153.923V701.608H151.173ZM147.081 709.286H144.771V711.64H147.081V720.968H149.787V701.96H147.081V709.286ZM142.835 707.35H145.937V705.018H142.835V702.29H140.085V705.018H136.917V707.35H140.085V707.768C140.085 710.892 139.051 714.214 136.169 715.908L137.797 718.086C139.645 717.03 140.811 715.226 141.493 713.114C142.219 715.05 143.385 716.656 145.167 717.602L146.729 715.446C143.869 713.928 142.835 710.826 142.835 707.768V707.35Z" fill="#0F3192"/>
<rect width="228" height="66" transform="translate(183 681)" fill="white"/>
<path d="M267.164 703.28V710.38H265.504V703.64H263.044V720.86H265.504V712.5H267.164V721.72H269.664V703.28H267.164ZM256.984 707.56H261.204V705.42H254.384V717.58H255.664C258.004 717.58 259.984 717.5 262.224 717.08L262.024 714.94C260.264 715.26 258.744 715.34 256.984 715.4V707.56ZM281.142 708.06V710.2H284.022V716.74H286.662V703.3H284.022V708.06H281.142ZM282.362 712.3C279.462 711.34 278.202 709.06 278.202 706.88V706.64H281.782V704.54H271.882V706.64H275.502V706.9C275.502 709.2 274.202 711.66 271.162 712.62L272.482 714.72C274.642 714 276.082 712.56 276.902 710.72C277.682 712.4 279.062 713.7 281.082 714.36L282.362 712.3ZM277.162 719.3V715.62H274.522V721.4H287.082V719.3H277.162ZM303.361 707.82V703.3H300.721V714.54H303.361V710H305.581V707.82H303.361ZM298.501 710.34C298.921 708.34 298.921 706.72 298.921 705.5V704.3H289.481V706.4H296.321C296.301 707.42 296.241 708.62 295.941 710.14L298.501 710.34ZM299.721 711.18C297.961 711.4 296.181 711.5 294.341 711.58V708.42H291.761V711.64C290.561 711.66 289.441 711.66 288.401 711.66L288.661 713.76C291.961 713.76 296.081 713.7 299.881 713.06L299.721 711.18ZM297.161 714.74C293.241 714.74 290.761 716.06 290.761 718.22C290.761 720.38 293.241 721.7 297.161 721.7C301.061 721.7 303.521 720.38 303.521 718.22C303.521 716.06 301.061 714.74 297.161 714.74ZM297.161 719.64C294.741 719.64 293.461 719.2 293.461 718.22C293.461 717.24 294.741 716.78 297.161 716.78C299.601 716.78 300.821 717.26 300.821 718.22C300.821 719.16 299.601 719.64 297.161 719.64ZM318.819 703.3V705.78H314.839C313.959 704.84 312.659 704.26 311.139 704.26C308.419 704.26 306.299 706.18 306.299 708.82C306.299 711.48 308.419 713.4 311.139 713.4C312.659 713.4 313.939 712.82 314.819 711.88H318.819V714.2H321.459V703.3H318.819ZM311.139 711.14C309.779 711.14 308.799 710.28 308.799 708.82C308.799 707.38 309.779 706.52 311.139 706.52C312.499 706.52 313.499 707.38 313.499 708.82C313.499 710.28 312.499 711.14 311.139 711.14ZM315.899 709.78C315.959 709.46 315.999 709.14 315.999 708.82C315.999 708.48 315.959 708.18 315.899 707.88H318.819V709.78H315.899ZM308.919 717.12H318.819V721.74H321.459V715.04H308.919V717.12ZM336.078 703.28V721.76H338.718V703.28H336.078ZM330.598 704.72H327.958V707.4C327.958 711 326.438 714.52 323.218 715.92L324.798 718.1C327.058 717.06 328.498 715.12 329.318 712.62C330.138 714.88 331.518 716.7 333.678 717.66L335.178 715.52C332.058 714.18 330.598 710.82 330.598 707.4V704.72Z" fill="#222222"/>
<rect width="228" height="66" transform="translate(430 681)" fill="white"/>
<path d="M514.164 703.28V710.32H512.624V703.58H510.164V720.9H512.624V712.44H514.164V721.7H516.664V703.28H514.164ZM506.224 709.08H503.864V704.92H501.384V717.36H508.644V704.92H506.224V709.08ZM506.224 715.26H503.864V711.14H506.224V715.26ZM531.702 703.28V710.34H530.202V703.58H527.742V715.5C525.022 714.06 524.102 711.04 524.102 707.8V707.3H526.862V705.16H518.522V707.3H521.542V707.8C521.542 711.32 520.662 714.6 517.922 716.2L519.502 718.2C521.262 717.18 522.282 715.48 522.902 713.32C523.562 715.16 524.582 716.64 526.262 717.52L527.742 715.54V720.88H530.202V712.5H531.702V721.7H534.202V703.28H531.702ZM548.961 703.28V710.38H547.301V703.64H544.841V720.86H547.301V712.5H548.961V721.72H551.461V703.28H548.961ZM538.781 707.56H543.001V705.42H536.181V717.58H537.461C539.801 717.58 541.781 717.5 544.021 717.08L543.821 714.94C542.061 715.26 540.541 715.34 538.781 715.4V707.56ZM563.899 704.92H559.799V703.2H557.139V704.92H553.059V707H563.899V704.92ZM569.999 708.04H567.559V703.3H564.919V714.84H567.559V710.22H569.999V708.04ZM562.999 710.96C562.999 708.96 561.139 707.58 558.479 707.58C555.819 707.58 553.959 708.96 553.959 710.96C553.959 712.96 555.819 714.36 558.479 714.36C561.139 714.36 562.999 712.96 562.999 710.96ZM556.479 710.96C556.479 710.02 557.279 709.58 558.479 709.58C559.679 709.58 560.479 710.02 560.479 710.96C560.479 711.9 559.679 712.36 558.479 712.36C557.279 712.36 556.479 711.9 556.479 710.96ZM555.279 717.72H564.919V721.74H567.559V715.6H555.279V717.72ZM584.998 715.18C585.638 711.44 585.618 708.9 585.618 706.66V704.88H572.078V706.98H582.978C582.978 709.12 582.938 711.56 582.358 714.92L584.998 715.18ZM581.098 717.38V711.56H578.518V717.38H576.558V711.56H573.958V717.38H570.458V719.5H587.138V717.38H581.098Z" fill="#222222"/>
<rect x="183" y="757" width="228" height="66" fill="white"/>
<path d="M250.265 779.3V797.72H252.765V779.3H250.265ZM246.525 785.52H244.225V787.66H246.525V796.9H248.985V779.6H246.525V785.52ZM242.845 780.9H240.305V784C240.305 787.14 239.325 790.44 236.625 792.08L238.205 794.06C239.885 793.04 240.945 791.34 241.585 789.26C242.165 791.12 243.105 792.68 244.705 793.64L246.145 791.6C243.645 789.94 242.845 786.88 242.845 783.9V780.9ZM255.964 786.96C259.584 786.62 261.704 785.34 262.684 783.58C263.644 785.34 265.764 786.62 269.384 786.96L270.304 784.88C266.864 784.62 265.084 783.38 264.604 782.16H269.504V780.06H255.884V782.16H260.764C260.284 783.38 258.504 784.62 255.064 784.88L255.964 786.96ZM263.984 788.12V785.9H261.344V788.12H254.364V790.22H271.004V788.12H263.984ZM262.644 791.22C258.644 791.22 256.264 792.4 256.264 794.48C256.264 796.56 258.644 797.74 262.644 797.74C266.644 797.74 269.044 796.56 269.044 794.48C269.044 792.4 266.644 791.22 262.644 791.22ZM262.644 795.76C260.144 795.76 258.924 795.38 258.924 794.48C258.924 793.62 260.164 793.2 262.644 793.2C265.124 793.2 266.364 793.62 266.364 794.48C266.364 795.38 265.144 795.76 262.644 795.76ZM286.642 785.74H276.442V784.66H286.062V782.74H276.442V781.74H286.502V779.74H273.822V787.74H286.642V785.74ZM271.742 788.86V790.96H288.402V788.86H271.742ZM273.602 794.2H283.722V797.74H286.362V792.12H273.602V794.2ZM298.641 786.98H301.921V788.76H304.561V779.32H301.921V781.62H298.641V780.06H296.061V782.22H292.561V780.06H289.941V788.26H298.641V786.98ZM301.921 783.62V784.98H298.641V783.62H301.921ZM296.061 786.2H292.561V784.2H296.061V786.2ZM295.041 795.46V794.38H304.561V789.46H292.401V791.5H301.941V792.48H292.441V797.52H305.081V795.46H295.041ZM323.659 786.32H320.979V779.3H318.339V797.72H320.979V788.5H323.659V786.32ZM313.319 783.24H316.979V781.06H306.859V783.24H310.679V784.26C310.679 787.3 309.179 790.78 306.159 792.16L307.639 794.26C309.739 793.24 311.219 791.26 312.039 788.84C312.859 791.02 314.259 792.86 316.339 793.8L317.799 791.72C314.779 790.34 313.319 787.06 313.319 784.26V783.24ZM336.598 779.3V797.72H339.238V779.3H336.598ZM331.138 784.4H334.898V782.3H331.138V779.74H328.498V782.3H324.658V784.4H328.498V785.04C328.498 787.8 327.058 791 324.038 792.32L325.458 794.34C327.558 793.4 329.038 791.56 329.858 789.3C330.678 791.4 332.138 793.16 334.218 794.02L335.618 792C332.598 790.72 331.138 787.68 331.138 785.04V784.4ZM353.976 779.28V797.76H356.616V779.28H353.976ZM348.496 780.72H345.856V783.4C345.856 787 344.336 790.52 341.116 791.92L342.696 794.1C344.956 793.06 346.396 791.12 347.216 788.62C348.036 790.88 349.416 792.7 351.576 793.66L353.076 791.52C349.956 790.18 348.496 786.82 348.496 783.4V780.72Z" fill="#222222"/>
<rect x="183" y="855" width="228" height="92" fill="white"/>
<path d="M229.927 879.24H225.807V877.28H223.147V879.24H219.067V881.3H229.907L229.927 879.24ZM233.567 882.92V877.3H230.927V891.08H233.567V885.1H236.007V882.92H233.567ZM229.007 885.5C229.007 883.42 227.107 881.96 224.487 881.96C221.827 881.96 219.967 883.42 219.967 885.5C219.967 887.62 221.827 889.06 224.487 889.06C227.107 889.06 229.007 887.62 229.007 885.5ZM222.487 885.5C222.487 884.48 223.287 883.96 224.487 883.96C225.687 883.96 226.487 884.48 226.487 885.5C226.487 886.52 225.687 887.06 224.487 887.06C223.287 887.06 222.487 886.52 222.487 885.5ZM224.327 890.06H221.687V895.4H234.227V893.3H224.327V890.06ZM253.145 886.54V884.44H250.825C251.205 882.44 251.185 880.94 251.185 879.56V878.08H238.525V880.2H248.585C248.585 881.42 248.525 882.76 248.185 884.44H236.465V886.54H243.465V889.14H238.145V891.22H248.565V895.72H251.225V889.14H246.105V886.54H253.145ZM263.504 891.44V888.06H268.724V878.44H266.124V881.3H258.244V878.44H255.624V888.06H260.864V891.44H253.864V893.58H270.544V891.44H263.504ZM258.244 883.38H266.124V885.96H258.244V883.38ZM280.842 882.66V884.8H284.022V890.76H286.662V877.3H284.022V882.66H280.842ZM272.442 878.68V880.78H278.182C277.722 883.52 275.482 885.68 271.482 886.88L272.562 889C277.902 887.3 281.002 883.66 281.002 878.68H272.442ZM277.262 893.3V889.44H274.622V895.4H287.122V893.3H277.262ZM305.761 884.38H303.081V877.3H300.441V895.72H303.081V886.58H305.761V884.38ZM295.441 878.72H292.781V881.4C292.781 884.82 291.381 888.36 288.281 889.8L289.861 891.94C291.941 890.92 293.321 888.98 294.121 886.64C294.901 888.9 296.181 890.62 298.101 891.6L299.701 889.52C296.741 888.08 295.441 884.72 295.441 881.4V878.72ZM318.779 877.3V895.72H321.419V877.3H318.779ZM317.579 879.34H313.379V877.36H310.739V879.34H306.519V881.4H317.579V879.34ZM313.379 888.92C315.379 888.54 316.619 887.3 316.619 885.6C316.619 883.52 314.719 882.12 312.059 882.12C309.359 882.12 307.479 883.52 307.479 885.6C307.479 887.3 308.739 888.54 310.739 888.92V890.48C309.059 890.54 307.539 890.52 306.159 890.52L306.479 892.66C309.719 892.66 313.999 892.64 318.019 891.9L317.819 890C316.379 890.22 314.899 890.3 313.379 890.38V888.92ZM309.999 885.6C309.999 884.64 310.839 884.12 312.059 884.12C313.339 884.12 314.119 884.64 314.119 885.6C314.119 886.54 313.339 887.06 312.059 887.06C310.839 887.06 309.999 886.54 309.999 885.6ZM336.218 886.44V890.78H338.858V877.3H336.218V879.86H332.118C331.218 878.92 329.978 878.4 328.538 878.4C325.818 878.4 323.698 880.42 323.698 883.16C323.698 885.92 325.818 887.94 328.538 887.94C329.978 887.94 331.258 887.38 332.158 886.44H336.218ZM326.198 883.16C326.198 881.64 327.178 880.7 328.538 880.7C329.898 880.7 330.898 881.64 330.898 883.16C330.898 884.7 329.898 885.64 328.538 885.64C327.178 885.64 326.198 884.7 326.198 883.16ZM336.218 881.96V884.34H333.258C333.358 884.06 333.398 883.66 333.398 883.16C333.398 882.74 333.338 882.34 333.258 881.96H336.218ZM329.358 893.3V889.46H326.718V895.4H339.278V893.3H329.358ZM357.516 886.2H355.096C355.556 883.62 355.556 881.76 355.556 880.02V878.36H342.776V880.48H352.976C352.976 882.08 352.936 883.86 352.476 886.2H340.876V888.32H347.756V895.72H350.436V888.32H357.516V886.2ZM367.655 888V889.8H371.115V891.26H373.755V877.3H371.115V888H367.655ZM364.115 884.5C366.775 884.5 368.695 883.18 368.695 881.22C368.695 879.24 366.775 877.92 364.115 877.92C361.415 877.92 359.515 879.24 359.515 881.22C359.515 883.18 361.415 884.5 364.115 884.5ZM364.115 879.84C365.335 879.84 366.195 880.32 366.195 881.22C366.195 882.12 365.335 882.58 364.115 882.58C362.835 882.58 362.015 882.12 362.015 881.22C362.015 880.32 362.835 879.84 364.115 879.84ZM363.135 893.3V890.78H365.675V887.3C367.195 887.2 368.635 887.04 370.075 886.78L369.895 884.9C366.015 885.38 361.535 885.46 358.175 885.46L358.515 887.56C359.895 887.56 361.435 887.54 363.055 887.46V889.92H360.495V895.4H374.155V893.3H363.135ZM260.838 903.28V921.76H263.478V903.28H260.838ZM255.358 913.3C257.538 912.82 259.118 911.12 259.118 908.9C259.118 906.26 256.918 904.36 254.038 904.36C251.158 904.36 248.978 906.26 248.978 908.9C248.978 911.12 250.518 912.82 252.718 913.3V915.88C251.098 915.94 249.558 915.92 248.198 915.92L248.538 918.06C251.718 918.06 256.038 918.02 259.998 917.22L259.838 915.32C258.398 915.54 256.878 915.66 255.358 915.76V913.3ZM251.538 908.9C251.538 907.46 252.598 906.62 254.038 906.62C255.478 906.62 256.538 907.46 256.538 908.9C256.538 910.34 255.478 911.18 254.038 911.18C252.598 911.18 251.538 910.34 251.538 908.9ZM274.468 904.8C271.728 904.8 269.748 906.24 269.268 909.3L271.888 909.74C271.908 909.34 271.948 909.04 272.048 908.74C272.368 907.86 273.168 907.1 274.288 907.1C275.588 907.1 276.408 907.82 276.408 909.2C276.408 910.74 275.468 911.94 273.948 913.46L268.928 918.4V920H279.348V917.48H274.548C274.088 917.48 273.608 917.5 273.068 917.64L276.168 914.52C277.648 912.98 279.128 911.24 279.188 909.14C279.188 906.58 277.248 904.8 274.468 904.8ZM289.002 904.9H286.422C284.082 907.96 281.842 911.08 279.502 914.14V916.38H286.582V920H289.002V916.38H290.882V914.12H289.002V904.9ZM286.582 914.16H282.222L286.622 908.24C286.602 908.78 286.582 909.32 286.582 909.5V914.16ZM304.136 903.3V910.24H302.496V903.78H300.036V920.94H302.496V912.36H304.136V921.72H306.656V903.3H304.136ZM291.576 905.58V907.68H296.236C295.916 911.26 294.316 913.98 290.636 916.12L292.176 917.96C297.316 914.96 298.836 910.74 298.836 905.58H291.576ZM324.485 903.28V921.7H327.145V903.28H324.485ZM312.825 905.2V907.3H318.965C318.585 911.38 316.545 914.28 311.845 916.52L313.225 918.6C319.765 915.46 321.665 910.82 321.665 905.2H312.825ZM343.904 908.9V903.28H341.264V917.08H343.904V911.08H346.104V908.9H343.904ZM339.044 911.2C339.464 908.86 339.464 907.06 339.464 905.78V904.64H330.004V906.74H336.864C336.844 907.86 336.764 909.14 336.464 910.9L339.044 911.2ZM340.264 911.94C338.504 912.18 336.724 912.32 334.884 912.4V908.92H332.304V912.5C331.104 912.52 329.964 912.52 328.944 912.52L329.184 914.62C332.324 914.62 336.644 914.52 340.424 913.82L340.264 911.94ZM334.264 915.86H331.624V921.4H344.484V919.3H334.264V915.86Z" fill="#222222"/>
<rect x="752" y="424" width="353" height="98" fill="white" stroke="#90A4B7" stroke-width="2"/>
<rect x="752" y="539" width="353" height="98" fill="white" stroke="#90A4B7" stroke-width="2"/>
<rect x="752" y="654" width="353" height="98" fill="white" stroke="#90A4B7" stroke-width="2"/>
<path d="M885.863 461.63V481.892H888.767V461.63H885.863ZM879.813 465.964H883.993V463.566H872.641V465.964H876.865V467.086C876.865 470.54 875.237 474.258 871.827 475.776L873.477 478.086C875.853 477.008 877.481 474.808 878.383 472.146C879.285 474.632 880.869 476.546 883.245 477.58L884.829 475.292C881.441 473.884 879.813 470.386 879.813 467.086V465.964ZM905.155 461.63V464.358H900.777C899.809 463.324 898.379 462.686 896.707 462.686C893.715 462.686 891.383 464.798 891.383 467.702C891.383 470.628 893.715 472.74 896.707 472.74C898.379 472.74 899.787 472.102 900.755 471.068H905.155V473.62H908.059V461.63H905.155ZM896.707 470.254C895.211 470.254 894.133 469.308 894.133 467.702C894.133 466.118 895.211 465.172 896.707 465.172C898.203 465.172 899.303 466.118 899.303 467.702C899.303 469.308 898.203 470.254 896.707 470.254ZM901.943 468.758C902.009 468.406 902.053 468.054 902.053 467.702C902.053 467.328 902.009 466.998 901.943 466.668H905.155V468.758H901.943ZM894.265 476.832H905.155V481.914H908.059V474.544H894.265V476.832ZM921.434 463.346H917.474V461.476H914.57V463.346H910.324V465.634H921.434V463.346ZM924.294 461.63V465.942H921.698V468.252H924.294V469.946H921.654V472.256H924.294V473.708H927.198V461.63H924.294ZM920.752 469.902C920.752 467.702 918.772 466.228 916.022 466.228C913.228 466.228 911.27 467.702 911.27 469.902C911.27 472.102 913.228 473.598 916.022 473.598C918.772 473.598 920.752 472.102 920.752 469.902ZM913.976 469.902C913.976 468.868 914.79 468.362 916.022 468.362C917.254 468.362 918.068 468.868 918.068 469.902C918.068 470.936 917.254 471.464 916.022 471.464C914.79 471.464 913.976 470.936 913.976 469.902ZM924.338 475.93H916.506V474.456H913.646V481.65H927.198V474.456H924.338V475.93ZM924.338 479.428H916.506V478.064H924.338V479.428ZM943.432 461.652V464.424H940.176V466.756H943.432V468.758H940.176V471.068H943.432V474.126H946.336V461.63L943.432 461.652ZM939.736 470.804C937.734 471.156 935.93 471.288 933.048 471.288V469.176H939.01V462.774H930.144V465.106H936.15V467.02H930.166V473.62H931.728C935.578 473.62 937.69 473.576 940.022 473.114L939.736 470.804ZM932.476 477.338H943.432V481.914H946.336V475.028H932.476V477.338ZM959.116 472.322V470.628H964.528V462.356H961.646V464.336H953.748V462.356H950.866V470.628H956.212V472.322H948.534V474.632H966.86V472.322H959.116ZM953.748 466.58H961.646V468.34H953.748V466.58ZM953.66 475.82H950.756V481.54H964.814V479.23H953.66V475.82ZM983.843 462.4H980.983V464.71H972.645V462.4H969.763V471.376H983.843V462.4ZM980.983 469.066H972.645V466.976H980.983V469.066ZM986.021 473.29H967.673V475.6H975.329V481.914H978.233V475.6H986.021V473.29Z" fill="#304B64"/>
<path d="M876.294 691.608V711.936H879.198V691.608H876.294ZM863.402 693.236V707.206H873.39V693.236H870.508V698.142H866.284V693.236H863.402ZM866.284 700.408H870.508V704.896H866.284V700.408ZM897.5 696.338V691.652H894.596V703.62H897.5V698.736H900.184V696.338H897.5ZM893.496 700.606C890.306 699.594 888.942 697.24 888.942 694.798V692.73H885.994V694.556C885.994 697.306 884.652 700.012 881.242 701.134L882.76 703.422C885.07 702.63 886.632 701.09 887.512 699.066C888.37 700.826 889.844 702.146 891.978 702.85L893.496 700.606ZM890.878 704.082C886.632 704.082 884.014 705.534 884.014 707.976C884.014 710.44 886.632 711.892 890.878 711.892C895.102 711.892 897.72 710.44 897.72 707.976C897.72 705.534 895.102 704.082 890.878 704.082ZM890.878 709.648C888.216 709.648 886.896 709.098 886.896 707.976C886.896 706.876 888.216 706.326 890.878 706.326C893.452 706.326 894.838 706.854 894.838 707.976C894.838 709.12 893.452 709.648 890.878 709.648ZM915.319 691.608V699.418H913.493V692.004H910.787V710.946H913.493V701.75H915.319V711.892H918.069V691.608H915.319ZM904.121 696.316H908.763V693.962H901.261V707.338H902.669C905.243 707.338 907.421 707.25 909.885 706.788L909.665 704.434C907.729 704.786 906.057 704.874 904.121 704.94V696.316ZM934.347 691.63V696.712H932.829V691.982H930.145V703.95H932.829V699.044H934.347V704.06H937.097V691.63H934.347ZM929.859 701.112C927.329 700.21 926.207 698.296 926.207 696.25V696.184H929.265V693.896H926.207V691.806H923.457V693.896H920.377V696.184H923.457V696.25C923.457 698.362 922.379 700.496 919.805 701.442L921.125 703.598C922.973 702.916 924.183 701.662 924.865 700.078C925.569 701.508 926.713 702.652 928.561 703.246L929.859 701.112ZM923.149 707.25H934.193V711.914H937.097V704.918H923.149V707.25ZM953.023 691.63V711.87H955.927V691.63H953.023ZM945.543 701.09C948.601 701.09 950.845 699.308 950.845 696.778C950.845 694.226 948.601 692.444 945.543 692.444C942.485 692.444 940.219 694.226 940.219 696.778C940.219 699.308 942.485 701.09 945.543 701.09ZM945.543 694.798C947.039 694.798 948.073 695.458 948.073 696.778C948.073 698.01 947.039 698.714 945.543 698.714C944.047 698.714 943.013 698.01 943.013 696.778C943.013 695.458 944.047 694.798 945.543 694.798ZM951.879 701.596C947.589 702.234 942.551 702.278 939.031 702.278L939.361 704.654C940.791 704.654 942.419 704.632 944.179 704.566V711.276H947.083V704.39C948.755 704.236 950.383 704.038 952.055 703.708L951.879 701.596ZM968.443 703.4V705.38H972.249V706.986H975.153V691.63H972.249V703.4H968.443ZM964.549 699.55C967.475 699.55 969.587 698.098 969.587 695.942C969.587 693.764 967.475 692.312 964.549 692.312C961.579 692.312 959.489 693.764 959.489 695.942C959.489 698.098 961.579 699.55 964.549 699.55ZM964.549 694.424C965.891 694.424 966.837 694.952 966.837 695.942C966.837 696.932 965.891 697.438 964.549 697.438C963.141 697.438 962.239 696.932 962.239 695.942C962.239 694.952 963.141 694.424 964.549 694.424ZM963.471 709.23V706.458H966.265V702.63C967.937 702.52 969.521 702.344 971.105 702.058L970.907 699.99C966.639 700.518 961.711 700.606 958.015 700.606L958.389 702.916C959.907 702.916 961.601 702.894 963.383 702.806V705.512H960.567V711.54H975.593V709.23H963.471ZM991.234 691.63V711.892H994.138V691.63H991.234ZM989.914 693.874H985.294V691.696H982.39V693.874H977.748V696.14H989.914V693.874ZM985.294 704.412C987.494 703.994 988.858 702.63 988.858 700.76C988.858 698.472 986.768 696.932 983.842 696.932C980.872 696.932 978.804 698.472 978.804 700.76C978.804 702.63 980.19 703.994 982.39 704.412V706.128C980.542 706.194 978.87 706.172 977.352 706.172L977.704 708.526C981.268 708.526 985.976 708.504 990.398 707.69L990.178 705.6C988.594 705.842 986.966 705.93 985.294 706.018V704.412ZM981.576 700.76C981.576 699.704 982.5 699.132 983.842 699.132C985.25 699.132 986.108 699.704 986.108 700.76C986.108 701.794 985.25 702.366 983.842 702.366C982.5 702.366 981.576 701.794 981.576 700.76Z" fill="#304B64"/>
<path d="M826.16 578.59H829.064V563.63H826.16V567.942H822.442V570.296H826.16V578.59ZM824.224 573.398C821.056 572.276 819.692 569.702 819.692 567.062V564.862H816.744V567.04C816.744 569.922 815.336 572.738 811.992 573.86L813.51 576.126C815.886 575.268 817.426 573.64 818.284 571.528C819.142 573.398 820.572 574.872 822.684 575.642L824.224 573.398ZM818.592 581.23V577.094H815.688V583.54H829.504V581.23H818.592ZM841.866 579.228V575.004H847.652V572.672H836.322V567.348H847.498V565.016H833.396V575.004H838.962V579.228H831.262V581.604H849.61V579.228H841.866ZM865.031 563.608V571.418H863.205V564.004H860.499V582.946H863.205V573.75H865.031V583.892H867.781V563.608H865.031ZM853.833 568.316H858.475V565.962H850.973V579.338H852.381C854.955 579.338 857.133 579.25 859.597 578.788L859.377 576.434C857.441 576.786 855.769 576.874 853.833 576.94V568.316ZM881.463 565.412H876.953V563.52H874.027V565.412H869.539V567.7H881.463V565.412ZM888.173 568.844H885.489V563.63H882.585V576.324H885.489V571.242H888.173V568.844ZM880.473 572.056C880.473 569.856 878.427 568.338 875.501 568.338C872.575 568.338 870.529 569.856 870.529 572.056C870.529 574.256 872.575 575.796 875.501 575.796C878.427 575.796 880.473 574.256 880.473 572.056ZM873.301 572.056C873.301 571.022 874.181 570.538 875.501 570.538C876.821 570.538 877.701 571.022 877.701 572.056C877.701 573.09 876.821 573.596 875.501 573.596C874.181 573.596 873.301 573.09 873.301 572.056ZM871.981 579.492H882.585V583.914H885.489V577.16H871.981V579.492ZM903.562 568.514V570.868H906.598V575.686H909.502V563.63H906.598V568.514H903.562ZM904.772 572.87C901.692 571.858 900.262 569.46 900.196 567.172H904.134V564.84H893.244V567.172H897.226C897.116 569.702 895.686 572.276 892.452 573.398L893.926 575.686C896.302 574.894 897.886 573.244 898.766 571.198C899.646 572.98 901.164 574.41 903.364 575.136L904.772 572.87ZM902.66 576.126C898.348 576.126 895.708 577.556 895.708 580.02C895.708 582.484 898.348 583.914 902.66 583.914C906.95 583.914 909.59 582.484 909.59 580.02C909.59 577.556 906.95 576.126 902.66 576.126ZM902.66 581.714C899.954 581.714 898.612 581.142 898.612 580.02C898.612 578.898 899.954 578.326 902.66 578.326C905.344 578.326 906.686 578.898 906.686 580.02C906.686 581.142 905.344 581.714 902.66 581.714ZM927.87 564.4H925.01V566.71H916.672V564.4H913.79V573.376H927.87V564.4ZM925.01 571.066H916.672V568.976H925.01V571.066ZM930.048 575.29H911.7V577.6H919.356V583.914H922.26V577.6H930.048V575.29ZM945.622 563.608V571.374H943.972V563.938H941.266V577.05C938.274 575.466 937.262 572.144 937.262 568.58V568.03H940.298V565.676H931.124V568.03H934.446V568.58C934.446 572.452 933.478 576.06 930.464 577.82L932.202 580.02C934.138 578.898 935.26 577.028 935.942 574.652C936.668 576.676 937.79 578.304 939.638 579.272L941.266 577.094V582.968H943.972V573.75H945.622V583.87H948.372V563.608H945.622ZM960.976 568.514V570.868H964.012V575.686H966.916V563.63H964.012V568.514H960.976ZM962.186 572.87C959.106 571.858 957.676 569.46 957.61 567.172H961.548V564.84H950.658V567.172H954.64C954.53 569.702 953.1 572.276 949.866 573.398L951.34 575.686C953.716 574.894 955.3 573.244 956.18 571.198C957.06 572.98 958.578 574.41 960.778 575.136L962.186 572.87ZM960.074 576.126C955.762 576.126 953.122 577.556 953.122 580.02C953.122 582.484 955.762 583.914 960.074 583.914C964.364 583.914 967.004 582.484 967.004 580.02C967.004 577.556 964.364 576.126 960.074 576.126ZM960.074 581.714C957.368 581.714 956.026 581.142 956.026 580.02C956.026 578.898 957.368 578.326 960.074 578.326C962.758 578.326 964.1 578.898 964.1 580.02C964.1 581.142 962.758 581.714 960.074 581.714ZM982.997 563.63V583.892H985.901V563.63H982.997ZM976.947 567.964H981.127V565.566H969.775V567.964H973.999V569.086C973.999 572.54 972.371 576.258 968.961 577.776L970.611 580.086C972.987 579.008 974.615 576.808 975.517 574.146C976.419 576.632 978.003 578.546 980.379 579.58L981.963 577.292C978.575 575.884 976.947 572.386 976.947 569.086V567.964ZM998.593 575.4V577.38H1002.4V578.986H1005.3V563.63H1002.4V575.4H998.593ZM994.699 571.55C997.625 571.55 999.737 570.098 999.737 567.942C999.737 565.764 997.625 564.312 994.699 564.312C991.729 564.312 989.639 565.764 989.639 567.942C989.639 570.098 991.729 571.55 994.699 571.55ZM994.699 566.424C996.041 566.424 996.987 566.952 996.987 567.942C996.987 568.932 996.041 569.438 994.699 569.438C993.291 569.438 992.389 568.932 992.389 567.942C992.389 566.952 993.291 566.424 994.699 566.424ZM993.621 581.23V578.458H996.415V574.63C998.087 574.52 999.671 574.344 1001.26 574.058L1001.06 571.99C996.789 572.518 991.861 572.606 988.165 572.606L988.539 574.916C990.057 574.916 991.751 574.894 993.533 574.806V577.512H990.717V583.54H1005.74V581.23H993.621ZM1026.2 571.418H1023.25V563.63H1020.35V583.892H1023.25V573.838H1026.2V571.418ZM1014.85 565.192H1011.92V568.14C1011.92 571.902 1010.38 575.796 1006.97 577.38L1008.71 579.734C1011 578.612 1012.52 576.478 1013.4 573.904C1014.26 576.39 1015.66 578.282 1017.78 579.36L1019.54 577.072C1016.28 575.488 1014.85 571.792 1014.85 568.14V565.192ZM1040.57 563.63V568.096H1037.33C1036.74 565.918 1034.71 564.466 1032.12 564.466C1029.08 564.466 1026.79 566.49 1026.79 569.306C1026.79 572.122 1029.08 574.146 1032.12 574.146C1034.71 574.146 1036.83 572.628 1037.35 570.45H1040.57V574.52H1043.47V563.63H1040.57ZM1032.12 571.726C1030.62 571.726 1029.57 570.824 1029.57 569.306C1029.57 567.788 1030.62 566.886 1032.12 566.886C1033.61 566.886 1034.69 567.788 1034.69 569.306C1034.69 570.824 1033.61 571.726 1032.12 571.726ZM1040.59 577.336H1032.93V575.4H1030.05V583.65H1043.47V575.4H1040.59V577.336ZM1040.59 581.362H1032.93V579.536H1040.59V581.362ZM882.678 598.782C886.484 598.518 888.882 597.484 890.202 595.878C891.456 597.484 893.81 598.518 897.704 598.782L898.562 596.626C894.25 596.384 892.226 595.064 891.874 593.722H897.594V591.456H891.632V589.674H888.728V591.456H882.788V593.722H888.508C888.156 595.064 886.132 596.384 881.82 596.626L882.678 598.782ZM891.632 599.794V597.858H888.728V599.794H881.05V602.06H899.354V599.794H891.632ZM890.158 603.028C885.56 603.028 883.14 604.238 883.14 606.46C883.14 608.682 885.736 609.914 890.158 609.914C894.58 609.914 897.198 608.682 897.198 606.46C897.198 604.238 894.58 603.028 890.158 603.028ZM890.158 607.758C887.43 607.758 886.066 607.318 886.066 606.46C886.066 605.514 887.408 605.162 890.158 605.162C892.908 605.162 894.25 605.514 894.25 606.46C894.25 607.318 892.886 607.758 890.158 607.758ZM916.359 593.898V589.608H913.455V600.388H916.359V596.274H918.801V593.898H916.359ZM911.057 596.714C911.475 594.602 911.475 592.908 911.475 591.676V590.488H901.069V592.754H908.615C908.593 593.744 908.505 594.954 908.241 596.45L911.057 596.714ZM912.377 597.396C910.441 597.594 908.461 597.726 906.437 597.814V594.668H903.577V597.88C902.257 597.902 901.047 597.902 899.903 597.902L900.145 600.146C903.775 600.146 908.351 600.08 912.531 599.376L912.377 597.396ZM905.425 606.372H916.359V601.114H902.477V603.248H913.455V604.37H902.521V609.738H917.019V607.56H905.425V606.372ZM921.263 600.718C924.805 600.3 927.159 598.936 928.479 597.088C929.799 598.936 932.197 600.3 935.651 600.718L936.685 598.43C932.505 597.968 930.327 595.966 929.975 594.25H935.981V591.94H929.909V589.674H927.005V591.94H920.977V594.25H926.961C926.609 596.01 924.475 597.968 920.251 598.43L921.263 600.718ZM937.653 601.752H919.349V604.106H927.005V609.936H929.909V604.106H937.653V601.752ZM955.295 589.63H952.369V604.282H955.295V589.63ZM951.093 599.552C947.837 598.496 946.341 595.966 946.341 593.612V593.37H950.345V591.082H939.323V593.37H943.393V593.612C943.393 596.142 941.897 598.804 938.553 599.86L940.027 602.126C942.403 601.356 944.009 599.838 944.911 597.814C945.857 599.662 947.331 601.07 949.619 601.774L951.093 599.552ZM944.713 607.23V602.962H941.809V609.54H955.801V607.23H944.713ZM973.553 595.152V589.63H970.649V604.282H973.553V597.528H976.237V595.152H973.553ZM969.065 598.034C966.887 598.496 964.863 598.65 961.255 598.65V593.546H967.437V591.236H958.373V600.982H960.067C964.577 600.982 966.887 600.85 969.351 600.322L969.065 598.034ZM963.389 602.742H960.485V609.54H974.279V607.23H963.389V602.742Z" fill="#304B64"/>
</svg>
