<svg width="37" height="37" viewBox="0 0 37 37" fill="none" xmlns="http://www.w3.org/2000/svg">
<path d="M34.3646 15.3792C35.0807 15.8089 35.582 16.4535 35.8685 17.1696C36.1549 17.9574 36.1549 18.7451 35.8685 19.4613C35.582 20.249 35.0807 20.8219 34.3646 21.2516L9.15625 36.1475C8.4401 36.5771 7.65234 36.7204 6.86458 36.5771C6.00521 36.4339 5.36068 36.0758 4.78776 35.4313C4.21484 34.8584 4 34.0706 4 33.2113V3.4196C4 2.48861 4.28646 1.70085 4.85937 1.12793C5.43229 0.555013 6.07682 0.19694 6.9362 0.0537109C7.72396 -0.0895182 8.4401 0.0537109 9.15625 0.483398L34.3646 15.3792Z" fill="white"/>
</svg>
