<svg width="1000" height="1000" viewBox="0 0 1000 1000" fill="none" xmlns="http://www.w3.org/2000/svg">
<path d="M56.3 6.5H43.7C42.206 6.5 41 7.706 41 9.2V12.8C41 13.79 41.81 14.6 42.8 14.6H44.6V16.4C44.6 17.39 45.41 18.2 46.4 18.2H53.6C54.59 18.2 55.4 17.39 55.4 16.4V14.6H57.2C58.19 14.6 59 13.79 59 12.8V9.2C59 7.706 57.794 6.5 56.3 6.5ZM52.7 16.4H47.3C46.805 16.4 46.4 15.995 46.4 15.5V11.9H53.6V15.5C53.6 15.995 53.195 16.4 52.7 16.4ZM56.3 10.1C55.805 10.1 55.4 9.695 55.4 9.2C55.4 8.705 55.805 8.3 56.3 8.3C56.795 8.3 57.2 8.705 57.2 9.2C57.2 9.695 56.795 10.1 56.3 10.1ZM54.5 2H45.5C45.005 2 44.6 2.405 44.6 2.9V4.7C44.6 5.195 45.005 5.6 45.5 5.6H54.5C54.995 5.6 55.4 5.195 55.4 4.7V2.9C55.4 2.405 54.995 2 54.5 2Z" fill="#452F5D"/>
<path d="M35 13.4333C34.3667 13.4333 33.8 13.6833 33.3667 14.075L27.425 10.6166C27.4667 10.425 27.5 10.2333 27.5 10.0333C27.5 9.83328 27.4667 9.64162 27.425 9.44995L33.3 6.02495C33.75 6.44162 34.3417 6.69995 35 6.69995C36.3833 6.69995 37.5 5.58328 37.5 4.19995C37.5 2.81662 36.3833 1.69995 35 1.69995C33.6167 1.69995 32.5 2.81662 32.5 4.19995C32.5 4.39995 32.5333 4.59162 32.575 4.78328L26.7 8.20829C26.25 7.79162 25.6583 7.53328 25 7.53328C23.6167 7.53328 22.5 8.64995 22.5 10.0333C22.5 11.4166 23.6167 12.5333 25 12.5333C25.6583 12.5333 26.25 12.275 26.7 11.8583L32.6333 15.325C32.5917 15.5 32.5667 15.6833 32.5667 15.8666C32.5667 17.2083 33.6583 18.3 35 18.3C36.3417 18.3 37.4333 17.2083 37.4333 15.8666C37.4333 14.525 36.3417 13.4333 35 13.4333Z" fill="#452F5D"/>
<path d="M75.8334 7.49988L70 13.3332L64.1667 7.49988" stroke="#555555" stroke-width="2" stroke-linecap="round" stroke-linejoin="round"/>
<path d="M10.7071 2.29289C10.3166 1.90237 9.68342 1.90237 9.29289 2.29289L2.29289 9.29289C1.90237 9.68342 1.90237 10.3166 2.29289 10.7071C2.68342 11.0976 3.31658 11.0976 3.70711 10.7071L4 10.4142V17C4 17.5523 4.44772 18 5 18H7C7.55228 18 8 17.5523 8 17V15C8 14.4477 8.44772 14 9 14H11C11.5523 14 12 14.4477 12 15V17C12 17.5523 12.4477 18 13 18H15C15.5523 18 16 17.5523 16 17V10.4142L16.2929 10.7071C16.6834 11.0976 17.3166 11.0976 17.7071 10.7071C18.0976 10.3166 18.0976 9.68342 17.7071 9.29289L10.7071 2.29289Z" fill="#452F5D"/>
<rect x="154.681" y="3.93909" width="1.14286" height="16" rx="0.571429" transform="rotate(45 154.681 3.93909)" fill="black"/>
<rect x="143.368" y="4.74731" width="1.14286" height="16" rx="0.571429" transform="rotate(-45 143.368 4.74731)" fill="black"/>
<path d="M131.257 7.71429C131.257 7.71429 129.886 7.71429 128.629 8.85714V4.05713H125.543V16.8571H128.629V15.8286C128.629 15.8286 129.314 17.0857 131.143 17.0857C131.143 17.0857 135.486 16.9714 135.486 12.4C135.486 12.4 135.371 7.71429 131.257 7.71429ZM130.571 14.4571C129.543 14.4571 128.629 13.5429 128.629 12.5143C128.629 11.4857 129.543 10.5714 130.571 10.5714C131.6 10.5714 132.514 11.4857 132.514 12.5143C132.514 13.5429 131.6 14.4571 130.571 14.4571Z" fill="#2DB24A"/>
<path d="M118 5.31419C117.429 5.54276 116.857 5.77133 116.286 5.77133C116.971 5.42847 117.429 4.74276 117.657 4.05704C117.086 4.3999 116.4 4.62848 115.714 4.74276C115.143 4.17133 114.343 3.82849 113.543 3.82849C111.6 3.82849 110.114 5.65705 110.571 7.59991C108.057 7.48562 105.771 6.22849 104.286 4.39992C103.486 5.77135 103.829 7.59993 105.2 8.51421C104.743 8.51421 104.286 8.39991 103.829 8.17133C103.829 9.54276 104.857 10.9142 106.229 11.1428C105.771 11.2571 105.314 11.2571 104.857 11.1428C105.2 12.3999 106.343 13.1999 107.714 13.1999C106.457 14.2285 104.857 14.6856 103.257 14.457C104.629 15.3713 106.229 15.8285 107.943 15.8285C113.543 15.8285 116.743 11.0285 116.629 6.79993C117.086 6.57136 117.657 5.99991 118 5.31419Z" fill="#1DA1F2"/>
<path d="M88.1714 8.39992H86.4572V10.6856H88.1714V17.5428H91.0286V10.6856H93.0857L93.3143 8.39992H91.0286V7.48561C91.0286 6.91418 91.1429 6.68563 91.7143 6.68563H93.3143V3.82849H91.1429C89.0857 3.82849 88.1714 4.74276 88.1714 6.45705V8.39992Z" fill="#385599"/>
<path d="M189.78 11.7449L186.044 8.25578C186.018 8.231 186.003 8.2022 186 8.17246C185.998 8.14272 186.009 8.11315 186.031 8.08691C186.054 8.06066 186.087 8.03871 186.128 8.02341C186.169 8.00811 186.216 8.00002 186.264 8L193.736 8C193.784 8.00002 193.831 8.00811 193.872 8.02341C193.913 8.03871 193.946 8.06066 193.969 8.08691C193.991 8.11315 194.002 8.14272 194 8.17246C193.997 8.2022 193.982 8.231 193.956 8.25578L190.22 11.7449C190.196 11.7674 190.163 11.7859 190.125 11.7987C190.086 11.8115 190.044 11.8182 190 11.8182C189.956 11.8182 189.914 11.8115 189.875 11.7987C189.837 11.7859 189.804 11.7674 189.78 11.7449V11.7449Z" fill="#2D3544"/>
<path d="M174.667 15.25V14.0833C174.667 13.4645 174.421 12.871 173.983 12.4334C173.546 11.9958 172.952 11.75 172.333 11.75H167.667C167.048 11.75 166.454 11.9958 166.017 12.4334C165.579 12.871 165.333 13.4645 165.333 14.0833V15.25" stroke="#333333" stroke-width="1.5" stroke-linecap="round" stroke-linejoin="round"/>
<path d="M170 9.41667C171.289 9.41667 172.333 8.372 172.333 7.08333C172.333 5.79467 171.289 4.75 170 4.75C168.711 4.75 167.667 5.79467 167.667 7.08333C167.667 8.372 168.711 9.41667 170 9.41667Z" stroke="#333333" stroke-width="1.5" stroke-linecap="round" stroke-linejoin="round"/>
<g clip-path="url(#clip0_255_566)">
<path d="M208.333 14.1667C211.555 14.1667 214.167 11.555 214.167 8.33333C214.167 5.11167 211.555 2.5 208.333 2.5C205.112 2.5 202.5 5.11167 202.5 8.33333C202.5 11.555 205.112 14.1667 208.333 14.1667Z" stroke="#452F5D" stroke-width="2" stroke-linecap="round" stroke-linejoin="round"/>
<path d="M217.5 17.5L212.5 12.5" stroke="#452F5D" stroke-width="2" stroke-linecap="round" stroke-linejoin="round"/>
</g>
<g clip-path="url(#clip1_255_566)">
<path d="M208.333 34.1667C211.555 34.1667 214.167 31.555 214.167 28.3333C214.167 25.1117 211.555 22.5 208.333 22.5C205.112 22.5 202.5 25.1117 202.5 28.3333C202.5 31.555 205.112 34.1667 208.333 34.1667Z" stroke="#666666" stroke-width="2" stroke-linecap="round" stroke-linejoin="round"/>
<path d="M217.5 37.5L212.5 32.5" stroke="#666666" stroke-width="2" stroke-linecap="round" stroke-linejoin="round"/>
</g>
<g clip-path="url(#clip2_255_566)">
<path d="M30.6024 112.905C30.3086 112.905 29.7363 112.796 29.7363 112.023C29.7363 111.338 30.3086 111.142 30.6024 111.142C30.7313 111.142 33.9947 111.142 34.1133 111.142C34.2009 111.142 34.3762 111.023 34.3762 110.781C34.3762 110.672 34.3917 109.394 34.4226 109.188C34.4536 108.925 34.5412 108.394 35.2887 108.394C36.0517 108.394 36.1291 108.93 36.1703 109.203C36.1909 109.399 36.1858 110.631 36.1858 110.755C36.1858 110.884 36.1909 111.142 36.4487 111.142C36.624 111.152 39.8513 111.142 40.0163 111.142C40.2895 111.142 40.8824 111.265 40.8824 112.008C40.8824 112.786 40.2225 112.858 40.0317 112.858C39.9338 112.858 30.7777 112.915 30.6024 112.905ZM39.0574 109.76C38.6501 110.059 38.0572 109.842 37.9077 109.683C37.6551 109.492 35.6651 106.141 35.5723 106.022C35.4795 105.904 35.4537 105.842 35.3764 105.842C35.2939 105.842 35.2578 105.904 35.165 106.033C35.0722 106.161 33.1595 109.296 33.0719 109.435C32.8554 109.745 32.2934 110.085 31.7057 109.719C31.1902 109.353 31.1953 108.734 31.4015 108.42C31.4582 108.332 34.0102 104.522 34.1442 104.378C34.2937 104.218 34.634 103.754 35.3609 103.754C36.0878 103.754 36.4075 104.192 36.5518 104.347C36.7116 104.517 39.3254 108.595 39.3564 108.698C39.5059 109.018 39.4646 109.456 39.0574 109.76Z" fill="#272727"/>
<path d="M47.7441 110.843C47.5379 110.951 46.8109 111.105 46.5016 110.641C46.2387 110.25 45.089 106.899 45.0426 106.78C44.9911 106.662 44.955 106.605 44.9241 106.605C44.8828 106.605 44.8364 106.662 44.7849 106.765C44.7333 106.873 43.4857 110.09 43.3362 110.394C43.0165 110.94 42.5062 111.126 42.0422 110.92C41.3823 110.626 41.4854 109.811 41.6297 109.466C41.6761 109.347 43.4393 105.383 43.5991 105.177C43.7435 104.981 44.1198 104.367 44.8467 104.367C45.6819 104.367 46.017 104.842 46.1974 105.146C46.316 105.352 48.0173 109.322 48.105 109.775C48.239 110.43 47.9915 110.719 47.7441 110.843ZM51.1312 111.136C50.9817 111.673 50.3888 111.688 50.2084 111.703C49.9609 111.724 49.2649 111.631 49.234 110.776C49.2237 110.538 49.1824 105.156 49.1824 104.919C49.1824 104.213 49.7805 104.006 50.0692 104.006C50.9198 104.006 51.0848 104.625 51.09 105.022C51.0951 105.331 51.1003 106.27 51.1003 106.27C51.1003 106.27 51.0796 106.662 51.3271 106.662C51.4251 106.662 52.1417 106.662 52.2602 106.662C53.0026 106.662 53.1624 107.29 53.1624 107.605C53.1624 108.285 52.5799 108.466 52.3376 108.466C52.2242 108.466 51.4818 108.466 51.3374 108.497C51.3168 108.507 51.1312 108.548 51.1312 108.791C51.1364 108.997 51.1879 110.93 51.1312 111.136Z" fill="#272727"/>
<path d="M53.9047 111.57C53.1778 111.57 53.0386 110.915 53.0386 110.688C53.0386 110.472 53.1932 109.806 53.9047 109.806C54.0336 109.806 56.4102 109.837 56.4927 109.837C56.6732 109.837 56.7608 109.781 56.7711 109.559C56.7814 109.245 56.833 108.09 56.833 108.018C56.833 107.554 57.2557 107.327 57.6372 107.327C57.8434 107.327 58.0342 107.373 58.2146 107.502C58.3951 107.631 58.5291 107.832 58.56 108.121C58.5807 108.337 58.5033 109.415 58.5085 109.533C58.524 109.77 58.6889 109.812 58.7405 109.812C59.0911 109.812 63.1793 109.796 63.3443 109.796C64.0867 109.796 64.2207 110.508 64.2207 110.724C64.231 110.941 64.0454 111.477 63.3443 111.534C63.0504 111.549 54.0851 111.57 53.9047 111.57ZM62.3338 108.549C62.3338 108.982 62.1637 109.466 61.3285 109.466C61.1739 109.466 60.6274 109.482 60.4572 108.889C60.3696 108.579 60.4108 106.507 60.4108 106.424C60.4108 106.177 60.2974 105.94 60.0345 105.94C59.9159 105.95 55.74 106.002 55.6214 105.986C54.8945 105.945 54.7553 105.321 54.7553 105.105C54.7553 104.878 54.8739 104.223 55.6214 104.223C55.6885 104.223 60.8748 104.218 60.9831 104.208C61.4213 104.208 61.7513 104.337 61.9678 104.589C62.1843 104.842 62.2977 105.177 62.3184 105.589C62.3287 105.672 62.3338 108.492 62.3338 108.549Z" fill="#272727"/>
<path d="M69.3612 117.493C68.9488 117.514 68.5982 117.395 68.3044 117.148C68.0105 116.9 67.8713 116.436 67.8919 115.761C67.8919 115.761 67.8868 113.08 67.8919 112.977C67.9126 112.209 68.5931 112.106 68.789 112.106C69.5107 112.106 69.8304 112.606 69.8304 113.137C69.8304 113.224 69.8149 115.235 69.8149 115.354C69.8149 115.617 69.9644 115.668 70.15 115.673C70.2583 115.678 74.0991 115.627 74.2177 115.627C74.8157 115.627 75.0374 116.158 75.0374 116.539C75.0374 116.9 74.8466 117.473 74.2177 117.478C73.996 117.478 69.5004 117.493 69.3612 117.493ZM74.7487 111.843C74.692 112.616 74.1197 112.791 73.9393 112.807C73.5578 112.833 72.8102 112.678 72.8102 111.894C72.8102 111.662 72.7741 105.12 72.7793 104.888C72.7999 104.177 73.3773 104.032 73.666 104.032C73.9547 104.032 74.6971 104.146 74.759 105.038C74.7848 105.316 74.7538 111.745 74.7487 111.843Z" fill="#272727"/>
<path d="M78.0687 111.111C77.6975 111.1 76.9551 111.064 76.9551 109.915C76.9551 109.76 76.9396 105.749 76.9396 105.651C76.9087 105.301 77.0015 105.002 77.2129 104.754C77.4243 104.512 77.7284 104.419 78.1306 104.429C78.4193 104.44 81.4146 104.429 81.5538 104.429C82.6003 104.429 82.6519 105.105 82.6673 105.393C82.6776 105.569 82.7189 109.636 82.7137 109.76C82.7137 110.085 82.755 111.126 81.5538 111.126C81.4867 111.126 78.1666 111.131 78.0687 111.111ZM80.9351 106.419C80.9351 106.043 80.698 106.022 80.6464 106.022C80.4969 106.017 79.007 106.043 78.94 106.043C78.744 106.043 78.6822 106.213 78.677 106.342C78.6719 106.471 78.6925 109.095 78.6925 109.224C78.6925 109.311 78.7389 109.368 78.8936 109.368C79.0482 109.368 80.5072 109.373 80.7444 109.373C80.9248 109.373 80.9145 109.255 80.9196 109.183C80.93 108.585 80.9351 106.558 80.9351 106.419ZM85.8792 113.338C85.8792 113.771 85.6575 114.359 85.0285 114.359C84.0799 114.359 83.9253 113.606 83.9253 113.518C83.9149 113.431 83.9098 105.223 83.9046 104.893C83.8995 104.568 83.9613 104.321 84.0902 104.166C84.2552 103.97 84.4975 103.878 84.8172 103.893C85.1368 103.909 85.41 103.965 85.6162 104.177C85.7142 104.285 85.8534 104.491 85.8637 105.27C85.8637 105.409 85.8534 106.249 85.8534 106.337C85.8637 106.378 85.8122 106.62 86.0751 106.62C86.3535 106.62 87.0288 106.61 87.2144 106.62C87.8692 106.662 88.0084 107.249 88.0084 107.641C88.0084 108.085 87.6578 108.502 87.2454 108.533C87.1268 108.548 86.1112 108.564 86.0957 108.564C86.0338 108.579 85.8173 108.569 85.8276 108.935C85.8276 109.152 85.8792 113.245 85.8792 113.338Z" fill="#272727"/>
<path d="M90.3126 110.997C89.8126 110.997 88.8433 111.023 88.8433 109.518C88.8433 109.384 88.8382 105.646 88.8588 105.507C88.8588 105.228 89.0599 104.568 89.9466 104.568C90.0343 104.568 93.4575 104.584 93.5451 104.584C94.3133 104.584 94.4164 105.228 94.4267 105.435C94.4267 105.651 94.2308 106.285 93.5451 106.285C93.375 106.285 91.1994 106.285 91.1272 106.285C90.8333 106.285 90.7354 106.383 90.6941 106.553C90.6838 106.605 90.6787 108.791 90.6787 108.909C90.6787 109.281 90.9725 109.239 91.0035 109.239C91.1581 109.239 94.1483 109.188 94.205 109.188C95.0247 109.188 95.1433 109.812 95.1433 110.049C95.1433 110.296 94.9577 110.987 94.1483 110.987C94.0658 110.977 90.5549 110.997 90.3126 110.997ZM98.2933 108.44C98.2623 108.44 97.9839 108.471 97.9788 108.75C97.9736 108.858 98.051 110.317 97.9788 110.781C97.9375 111.049 97.8293 111.626 97.092 111.637C96.4837 111.647 96.1486 111.224 96.1486 110.791C96.1486 110.673 96.0816 105.074 96.0816 104.806C96.0816 104.197 96.6384 104.022 96.9322 104.022C97.7829 104.022 97.9633 104.61 97.9736 104.723C97.9942 104.991 98.0252 105.924 97.9994 106.249C97.9839 106.44 98.0613 106.476 98.2675 106.476C98.3087 106.476 98.8088 106.476 99.046 106.476C99.6955 106.476 99.9946 107.033 99.9997 107.342C100.01 107.801 99.7832 108.306 99.278 108.389C99.1181 108.409 98.4685 108.45 98.2933 108.44Z" fill="#272727"/>
<path d="M47.8634 117.849C46.1775 117.849 44.801 116.478 44.801 114.787C44.801 113.101 46.1724 111.724 47.8634 111.724C49.5492 111.724 50.9257 113.096 50.9257 114.787C50.9257 116.478 49.5492 117.849 47.8634 117.849ZM47.8634 113.4C47.0952 113.4 46.4714 114.024 46.4714 114.792C46.4714 115.56 47.0952 116.184 47.8634 116.184C48.6315 116.184 49.2553 115.56 49.2553 114.792C49.2553 114.024 48.6315 113.4 47.8634 113.4Z" fill="#272727"/>
<path d="M58.7923 117.849C57.1065 117.849 55.73 116.478 55.73 114.787C55.73 113.101 57.1013 111.724 58.7923 111.724C60.4833 111.724 61.8546 113.096 61.8546 114.787C61.8546 116.478 60.4781 117.849 58.7923 117.849ZM58.7923 113.4C58.0242 113.4 57.4003 114.024 57.4003 114.792C57.4003 115.56 58.0242 116.184 58.7923 116.184C59.5605 116.184 60.1843 115.56 60.1843 114.792C60.1843 114.024 59.5553 113.4 58.7923 113.4Z" fill="#272727"/>
<path d="M94.8392 117.808C93.1534 117.808 91.7769 116.436 91.7769 114.745C91.7769 113.059 93.1482 111.683 94.8392 111.683C96.525 111.683 97.9015 113.054 97.9015 114.745C97.8964 116.436 96.525 117.808 94.8392 117.808ZM94.8392 113.358C94.071 113.358 93.4472 113.982 93.4472 114.75C93.4472 115.519 94.071 116.142 94.8392 116.142C95.6073 116.142 96.2312 115.519 96.2312 114.75C96.226 113.982 95.6022 113.358 94.8392 113.358Z" fill="#272727"/>
<path d="M68.1391 110.698C66.3707 110.698 64.9324 109.26 64.9324 107.492C64.9324 105.723 66.3707 104.285 68.1391 104.285C69.9074 104.285 71.3457 105.723 71.3457 107.492C71.3509 109.26 69.9125 110.698 68.1391 110.698ZM68.1391 106.033C67.3348 106.033 66.6801 106.687 66.6801 107.492C66.6801 108.296 67.3348 108.951 68.1391 108.951C68.9433 108.951 69.598 108.296 69.598 107.492C69.598 106.687 68.9433 106.033 68.1391 106.033Z" fill="#272727"/>
<path d="M18.0285 100.831H13.8526C9.36221 100.831 5.71216 104.481 5.71216 108.971V109.342C5.71216 109.466 5.72762 109.585 5.73278 109.703H10.9088C10.8934 109.585 10.8831 109.466 10.8831 109.342V108.971C10.8831 107.332 12.2183 106.002 13.8526 106.002H18.0285C19.6679 106.002 20.998 107.337 20.998 108.971V109.342C20.998 110.982 19.6628 112.312 18.0285 112.312H14.1671V117.483H18.0285C22.5189 117.483 26.1689 113.833 26.1689 109.342V108.971C26.1689 104.481 22.5137 100.831 18.0285 100.831Z" fill="#3381C4"/>
<path d="M14.1001 112.322H10.8831V109.11C10.8831 107.693 9.73346 106.538 8.31056 106.538C6.88766 106.538 5.738 107.693 5.738 109.11V112.322H2.57256C1.14966 112.322 0 113.472 0 114.89C0 116.313 1.14966 117.462 2.57256 117.462H5.738V120.597C5.738 122.015 6.88766 123.169 8.31056 123.169C9.73346 123.169 10.8831 122.015 10.8831 120.597V117.462H14.1001C15.523 117.462 16.6727 116.313 16.6727 114.89C16.6727 113.472 15.523 112.322 14.1001 112.322Z" fill="#F47D1F"/>
</g>
<g clip-path="url(#clip3_255_566)">
<path d="M30.6024 136.905C30.3086 136.905 29.7363 136.796 29.7363 136.023C29.7363 135.338 30.3086 135.142 30.6024 135.142C30.7313 135.142 33.9947 135.142 34.1133 135.142C34.2009 135.142 34.3762 135.023 34.3762 134.781C34.3762 134.672 34.3917 133.394 34.4226 133.188C34.4536 132.925 34.5412 132.394 35.2887 132.394C36.0517 132.394 36.1291 132.93 36.1703 133.203C36.1909 133.399 36.1858 134.631 36.1858 134.755C36.1858 134.884 36.1909 135.142 36.4487 135.142C36.624 135.152 39.8513 135.142 40.0163 135.142C40.2895 135.142 40.8824 135.265 40.8824 136.008C40.8824 136.786 40.2225 136.858 40.0317 136.858C39.9338 136.858 30.7777 136.915 30.6024 136.905ZM39.0574 133.76C38.6501 134.059 38.0572 133.842 37.9077 133.683C37.6551 133.492 35.6651 130.141 35.5723 130.022C35.4795 129.904 35.4537 129.842 35.3764 129.842C35.2939 129.842 35.2578 129.904 35.165 130.033C35.0722 130.161 33.1595 133.296 33.0719 133.435C32.8554 133.745 32.2934 134.085 31.7057 133.719C31.1902 133.353 31.1953 132.734 31.4015 132.42C31.4582 132.332 34.0102 128.522 34.1442 128.378C34.2937 128.218 34.634 127.754 35.3609 127.754C36.0878 127.754 36.4075 128.192 36.5518 128.347C36.7116 128.517 39.3254 132.595 39.3564 132.698C39.5059 133.018 39.4646 133.456 39.0574 133.76Z" fill="white"/>
<path d="M47.7441 134.843C47.5379 134.951 46.8109 135.105 46.5016 134.641C46.2387 134.25 45.089 130.899 45.0426 130.78C44.9911 130.662 44.955 130.605 44.9241 130.605C44.8828 130.605 44.8364 130.662 44.7849 130.765C44.7333 130.873 43.4857 134.09 43.3362 134.394C43.0165 134.94 42.5062 135.126 42.0422 134.92C41.3823 134.626 41.4854 133.811 41.6297 133.466C41.6761 133.347 43.4393 129.383 43.5991 129.177C43.7435 128.981 44.1198 128.367 44.8467 128.367C45.6819 128.367 46.017 128.842 46.1974 129.146C46.316 129.352 48.0173 133.322 48.105 133.775C48.239 134.43 47.9915 134.719 47.7441 134.843ZM51.1312 135.136C50.9817 135.673 50.3888 135.688 50.2084 135.703C49.9609 135.724 49.2649 135.631 49.234 134.776C49.2237 134.538 49.1824 129.156 49.1824 128.919C49.1824 128.213 49.7805 128.006 50.0692 128.006C50.9198 128.006 51.0848 128.625 51.09 129.022C51.0951 129.331 51.1003 130.27 51.1003 130.27C51.1003 130.27 51.0796 130.662 51.3271 130.662C51.4251 130.662 52.1417 130.662 52.2602 130.662C53.0026 130.662 53.1624 131.29 53.1624 131.605C53.1624 132.285 52.5799 132.466 52.3376 132.466C52.2242 132.466 51.4818 132.466 51.3374 132.497C51.3168 132.507 51.1312 132.548 51.1312 132.791C51.1364 132.997 51.1879 134.93 51.1312 135.136Z" fill="white"/>
<path d="M53.9047 135.57C53.1778 135.57 53.0386 134.915 53.0386 134.688C53.0386 134.472 53.1932 133.806 53.9047 133.806C54.0336 133.806 56.4102 133.837 56.4927 133.837C56.6732 133.837 56.7608 133.781 56.7711 133.559C56.7814 133.245 56.833 132.09 56.833 132.018C56.833 131.554 57.2557 131.327 57.6372 131.327C57.8434 131.327 58.0342 131.373 58.2146 131.502C58.3951 131.631 58.5291 131.832 58.56 132.121C58.5807 132.337 58.5033 133.415 58.5085 133.533C58.524 133.77 58.6889 133.812 58.7405 133.812C59.0911 133.812 63.1793 133.796 63.3443 133.796C64.0867 133.796 64.2207 134.508 64.2207 134.724C64.231 134.941 64.0454 135.477 63.3443 135.534C63.0504 135.549 54.0851 135.57 53.9047 135.57ZM62.3338 132.549C62.3338 132.982 62.1637 133.466 61.3285 133.466C61.1739 133.466 60.6274 133.482 60.4572 132.889C60.3696 132.579 60.4108 130.507 60.4108 130.424C60.4108 130.177 60.2974 129.94 60.0345 129.94C59.9159 129.95 55.74 130.002 55.6214 129.986C54.8945 129.945 54.7553 129.321 54.7553 129.105C54.7553 128.878 54.8739 128.223 55.6214 128.223C55.6885 128.223 60.8748 128.218 60.9831 128.208C61.4213 128.208 61.7513 128.337 61.9678 128.589C62.1843 128.842 62.2977 129.177 62.3184 129.589C62.3287 129.672 62.3338 132.492 62.3338 132.549Z" fill="white"/>
<path d="M69.3612 141.493C68.9488 141.514 68.5982 141.395 68.3044 141.148C68.0105 140.9 67.8713 140.436 67.8919 139.761C67.8919 139.761 67.8868 137.08 67.8919 136.977C67.9126 136.209 68.5931 136.106 68.789 136.106C69.5107 136.106 69.8304 136.606 69.8304 137.137C69.8304 137.224 69.8149 139.235 69.8149 139.354C69.8149 139.617 69.9644 139.668 70.15 139.673C70.2583 139.678 74.0991 139.627 74.2177 139.627C74.8157 139.627 75.0374 140.158 75.0374 140.539C75.0374 140.9 74.8466 141.473 74.2177 141.478C73.996 141.478 69.5004 141.493 69.3612 141.493ZM74.7487 135.843C74.692 136.616 74.1197 136.791 73.9393 136.807C73.5578 136.833 72.8102 136.678 72.8102 135.894C72.8102 135.662 72.7741 129.12 72.7793 128.888C72.7999 128.177 73.3773 128.032 73.666 128.032C73.9547 128.032 74.6971 128.146 74.759 129.038C74.7848 129.316 74.7538 135.745 74.7487 135.843Z" fill="white"/>
<path d="M78.0687 135.111C77.6975 135.1 76.9551 135.064 76.9551 133.915C76.9551 133.76 76.9396 129.749 76.9396 129.651C76.9087 129.301 77.0015 129.002 77.2129 128.754C77.4243 128.512 77.7284 128.419 78.1306 128.429C78.4193 128.44 81.4146 128.429 81.5538 128.429C82.6003 128.429 82.6519 129.105 82.6673 129.393C82.6776 129.569 82.7189 133.636 82.7137 133.76C82.7137 134.085 82.755 135.126 81.5538 135.126C81.4867 135.126 78.1666 135.131 78.0687 135.111ZM80.9351 130.419C80.9351 130.043 80.698 130.022 80.6464 130.022C80.4969 130.017 79.007 130.043 78.94 130.043C78.744 130.043 78.6822 130.213 78.677 130.342C78.6719 130.471 78.6925 133.095 78.6925 133.224C78.6925 133.311 78.7389 133.368 78.8936 133.368C79.0482 133.368 80.5072 133.373 80.7444 133.373C80.9248 133.373 80.9145 133.255 80.9196 133.183C80.93 132.585 80.9351 130.558 80.9351 130.419ZM85.8792 137.338C85.8792 137.771 85.6575 138.359 85.0285 138.359C84.0799 138.359 83.9253 137.606 83.9253 137.518C83.9149 137.431 83.9098 129.223 83.9046 128.893C83.8995 128.568 83.9613 128.321 84.0902 128.166C84.2552 127.97 84.4975 127.878 84.8172 127.893C85.1368 127.909 85.41 127.965 85.6162 128.177C85.7142 128.285 85.8534 128.491 85.8637 129.27C85.8637 129.409 85.8534 130.249 85.8534 130.337C85.8637 130.378 85.8122 130.62 86.0751 130.62C86.3535 130.62 87.0288 130.61 87.2144 130.62C87.8692 130.662 88.0084 131.249 88.0084 131.641C88.0084 132.085 87.6578 132.502 87.2454 132.533C87.1268 132.548 86.1112 132.564 86.0957 132.564C86.0338 132.579 85.8173 132.569 85.8276 132.935C85.8276 133.152 85.8792 137.245 85.8792 137.338Z" fill="white"/>
<path d="M90.3126 134.997C89.8126 134.997 88.8433 135.023 88.8433 133.518C88.8433 133.384 88.8382 129.646 88.8588 129.507C88.8588 129.228 89.0599 128.568 89.9466 128.568C90.0343 128.568 93.4575 128.584 93.5451 128.584C94.3133 128.584 94.4164 129.228 94.4267 129.435C94.4267 129.651 94.2308 130.285 93.5451 130.285C93.375 130.285 91.1994 130.285 91.1272 130.285C90.8333 130.285 90.7354 130.383 90.6941 130.553C90.6838 130.605 90.6787 132.791 90.6787 132.909C90.6787 133.281 90.9725 133.239 91.0035 133.239C91.1581 133.239 94.1483 133.188 94.205 133.188C95.0247 133.188 95.1433 133.812 95.1433 134.049C95.1433 134.296 94.9577 134.987 94.1483 134.987C94.0658 134.977 90.5549 134.997 90.3126 134.997ZM98.2933 132.44C98.2623 132.44 97.9839 132.471 97.9788 132.75C97.9736 132.858 98.051 134.317 97.9788 134.781C97.9375 135.049 97.8293 135.626 97.092 135.637C96.4837 135.647 96.1486 135.224 96.1486 134.791C96.1486 134.673 96.0816 129.074 96.0816 128.806C96.0816 128.197 96.6384 128.022 96.9322 128.022C97.7829 128.022 97.9633 128.61 97.9736 128.723C97.9942 128.991 98.0252 129.924 97.9994 130.249C97.9839 130.44 98.0613 130.476 98.2675 130.476C98.3087 130.476 98.8088 130.476 99.046 130.476C99.6955 130.476 99.9946 131.033 99.9997 131.342C100.01 131.801 99.7832 132.306 99.278 132.389C99.1181 132.409 98.4685 132.45 98.2933 132.44Z" fill="white"/>
<path d="M47.8634 141.849C46.1775 141.849 44.801 140.478 44.801 138.787C44.801 137.101 46.1724 135.724 47.8634 135.724C49.5492 135.724 50.9257 137.096 50.9257 138.787C50.9257 140.478 49.5492 141.849 47.8634 141.849ZM47.8634 137.4C47.0952 137.4 46.4714 138.024 46.4714 138.792C46.4714 139.56 47.0952 140.184 47.8634 140.184C48.6315 140.184 49.2553 139.56 49.2553 138.792C49.2553 138.024 48.6315 137.4 47.8634 137.4Z" fill="white"/>
<path d="M58.7923 141.849C57.1065 141.849 55.73 140.478 55.73 138.787C55.73 137.101 57.1013 135.724 58.7923 135.724C60.4833 135.724 61.8546 137.096 61.8546 138.787C61.8546 140.478 60.4781 141.849 58.7923 141.849ZM58.7923 137.4C58.0242 137.4 57.4003 138.024 57.4003 138.792C57.4003 139.56 58.0242 140.184 58.7923 140.184C59.5605 140.184 60.1843 139.56 60.1843 138.792C60.1843 138.024 59.5553 137.4 58.7923 137.4Z" fill="white"/>
<path d="M94.8392 141.808C93.1534 141.808 91.7769 140.436 91.7769 138.745C91.7769 137.059 93.1482 135.683 94.8392 135.683C96.525 135.683 97.9015 137.054 97.9015 138.745C97.8964 140.436 96.525 141.808 94.8392 141.808ZM94.8392 137.358C94.071 137.358 93.4472 137.982 93.4472 138.75C93.4472 139.519 94.071 140.142 94.8392 140.142C95.6073 140.142 96.2312 139.519 96.2312 138.75C96.226 137.982 95.6022 137.358 94.8392 137.358Z" fill="white"/>
<path d="M68.1391 134.698C66.3707 134.698 64.9324 133.26 64.9324 131.492C64.9324 129.723 66.3707 128.285 68.1391 128.285C69.9074 128.285 71.3457 129.723 71.3457 131.492C71.3509 133.26 69.9125 134.698 68.1391 134.698ZM68.1391 130.033C67.3348 130.033 66.6801 130.687 66.6801 131.492C66.6801 132.296 67.3348 132.951 68.1391 132.951C68.9433 132.951 69.598 132.296 69.598 131.492C69.598 130.687 68.9433 130.033 68.1391 130.033Z" fill="white"/>
<path d="M18.0285 124.831H13.8526C9.36221 124.831 5.71216 128.481 5.71216 132.971V133.342C5.71216 133.466 5.72762 133.585 5.73278 133.703H10.9088C10.8934 133.585 10.8831 133.466 10.8831 133.342V132.971C10.8831 131.332 12.2183 130.002 13.8526 130.002H18.0285C19.6679 130.002 20.998 131.337 20.998 132.971V133.342C20.998 134.982 19.6628 136.312 18.0285 136.312H14.1671V141.483H18.0285C22.5189 141.483 26.1689 137.833 26.1689 133.342V132.971C26.1689 128.481 22.5137 124.831 18.0285 124.831Z" fill="#3381C4"/>
<path d="M14.1001 136.322H10.8831V133.11C10.8831 131.693 9.73346 130.538 8.31056 130.538C6.88766 130.538 5.738 131.693 5.738 133.11V136.322H2.57256C1.14966 136.322 0 137.472 0 138.89C0 140.313 1.14966 141.462 2.57256 141.462H5.738V144.597C5.738 146.015 6.88766 147.169 8.31056 147.169C9.73346 147.169 10.8831 146.015 10.8831 144.597V141.462H14.1001C15.523 141.462 16.6727 140.313 16.6727 138.89C16.6727 137.472 15.523 136.322 14.1001 136.322Z" fill="#F47D1F"/>
</g>
<path d="M111.88 103.268C107.368 105.059 105.394 108.408 105.394 112.048C105.394 114.439 107.19 116.408 109.717 116.408C111.471 116.408 114.039 115.036 114.039 112.153C114.039 110.579 113.172 109.206 111.88 108.471C112.516 108.11 113.255 107.901 114.039 107.901C116.426 107.901 118.362 109.825 118.362 112.153C118.362 116.341 115.343 119.504 111.88 120.384C111.096 120.582 110.289 120.671 109.482 120.649C103.071 120.5 97.8543 114.398 100.885 102.205C105.814 101.616 109.72 102.396 111.88 103.268Z" fill="url(#paint0_linear_255_566)"/>
<path d="M122.886 102.228L122.87 102.206C118.271 101.713 114.623 102.176 111.88 103.268C107.367 105.059 105.393 108.408 105.393 112.048C105.393 114.439 107.189 116.408 109.716 116.408C110.375 116.408 111.148 116.215 111.857 115.823C110.58 115.081 109.72 113.719 109.72 112.153C109.72 110.579 110.588 109.206 111.88 108.472C112.516 108.11 113.255 107.901 114.039 107.901C116.426 107.901 118.362 109.825 118.362 112.153C118.362 116.341 115.342 119.504 111.88 120.384C112.664 120.582 113.471 120.672 114.278 120.649C120.681 120.5 125.916 114.42 122.886 102.228Z" fill="url(#paint1_linear_255_566)"/>
<path d="M176.931 106.103H175.567V116.035H176.931V106.103Z" fill="#272727"/>
<path d="M172.479 106.551V106.211H170.979V106.551C170.979 109.038 170.372 110.489 168.417 111.761V112.888C170.012 112.418 171.403 110.948 171.729 109.87C172.055 110.948 173.445 112.418 175.04 112.888V111.761C173.081 110.486 172.479 109.035 172.479 106.551Z" fill="#272727"/>
<path d="M134.717 111.612H133.353V114.32H129.451V115.383H138.62V114.32H134.717V111.612Z" fill="#272727"/>
<path d="M134.02 109.303C134.6 110.556 136.218 111.97 138.032 112.395V111.269C136.464 110.542 134.77 109.191 134.77 106.551V106.211H133.27V106.551C133.27 109.191 131.573 110.542 130.008 111.269V112.395C131.819 111.974 133.441 110.556 134.02 109.303Z" fill="#272727"/>
<path d="M147.125 106.103H145.761V112.082C145.307 111.728 144.712 111.508 144.068 111.508C142.617 111.508 141.442 112.597 141.442 113.936C141.442 115.275 142.617 116.364 144.068 116.364C145.519 116.364 146.693 115.275 146.693 113.936C146.693 113.339 146.459 112.791 146.068 112.365H147.125V108.55H148.103V107.487H147.125V106.103ZM144.068 115.248C143.367 115.248 142.795 114.659 142.795 113.936C142.795 113.212 143.363 112.623 144.068 112.623C144.773 112.623 145.341 113.208 145.341 113.936C145.337 114.659 144.769 115.248 144.068 115.248Z" fill="#272727"/>
<path d="M145.235 111.366V110.24C143.742 109.583 142.897 108.542 142.897 106.547V106.208H141.397V106.547C141.397 108.542 140.556 109.579 139.059 110.24V111.366C140.226 111.105 141.556 110.198 142.147 109.035C142.742 110.198 144.068 111.105 145.235 111.366Z" fill="#272727"/>
<path d="M186.558 106.103H185.194V112.082C184.735 111.728 184.144 111.508 183.496 111.508C182.045 111.508 180.871 112.597 180.871 113.936C180.871 115.275 182.045 116.364 183.496 116.364C184.947 116.364 186.126 115.275 186.126 113.936C186.126 113.339 185.891 112.791 185.501 112.365H186.558V108.55H187.531V107.487H186.558V106.103ZM183.496 115.248C182.795 115.248 182.227 114.659 182.227 113.936C182.227 113.212 182.795 112.623 183.496 112.623C184.201 112.623 184.769 113.208 184.769 113.936C184.769 114.659 184.201 115.248 183.496 115.248Z" fill="#272727"/>
<path d="M181.632 109.035C182.223 110.198 183.496 111.105 184.667 111.366V110.24C183.364 109.665 182.594 108.804 182.42 107.271H184.364V106.208H178.901V107.271H180.844C180.666 108.804 179.901 109.665 178.597 110.24V111.366C179.768 111.105 181.041 110.198 181.632 109.035Z" fill="#272727"/>
<path d="M153.407 111.508C151.956 111.508 150.781 112.597 150.781 113.936C150.781 115.275 151.956 116.364 153.407 116.364C154.858 116.364 156.032 115.275 156.032 113.936C156.032 112.597 154.858 111.508 153.407 111.508ZM153.407 115.248C152.706 115.248 152.134 114.659 152.134 113.936C152.134 113.212 152.706 112.623 153.407 112.623C154.108 112.623 154.68 113.208 154.68 113.936C154.68 114.659 154.108 115.248 153.407 115.248Z" fill="#272727"/>
<path d="M157.075 107.267C157.075 106.696 156.601 106.234 156.021 106.234H149.702V107.293H155.707V110.139H153.456V108.345H152.092V110.139H148.823V111.198H157.991V110.139H157.078V107.267H157.075Z" fill="#272727"/>
<path d="M167.137 106.103H165.773V113.302H167.137V106.103Z" fill="#272727"/>
<path d="M164.678 108.755C164.678 107.274 163.409 106.07 161.84 106.07C160.275 106.07 159.006 107.274 159.006 108.755C159.006 110.239 160.275 111.444 161.84 111.444C163.409 111.444 164.678 110.239 164.678 108.755ZM160.385 108.755C160.385 107.901 161.037 107.203 161.848 107.203C162.655 107.203 163.31 107.897 163.31 108.755C163.31 109.613 162.655 110.307 161.848 110.307C161.037 110.31 160.385 109.613 160.385 108.755Z" fill="#272727"/>
<path d="M162 112.343H160.632V114.92V114.946C160.632 115.517 161.102 115.98 161.685 115.98H167.254V114.92H162V112.343Z" fill="#272727"/>
<path d="M196.529 106.103H195.165V113.302H196.529V106.103Z" fill="#272727"/>
<path d="M191.604 109.285C192.195 110.445 193.468 111.355 194.639 111.616V110.489C193.267 109.885 192.491 108.964 192.373 107.274H194.336V106.211H188.872V107.274H190.835C190.718 108.964 189.941 109.889 188.569 110.489V111.616C189.74 111.355 191.013 110.445 191.604 109.285Z" fill="#272727"/>
<path d="M191.271 112.343H189.907V114.92V114.946C189.907 115.517 190.377 115.98 190.956 115.98H196.643V114.92H191.271V112.343Z" fill="#272727"/>
<path d="M207.111 110.926H197.863V111.933H207.111V110.926Z" fill="#272727"/>
<path d="M206.217 106.465H203.239V105.73H201.739V106.465H198.761V107.472H200.125C199.924 107.774 199.807 108.121 199.807 108.49C199.807 109.68 201.008 110.646 202.485 110.646C203.963 110.646 205.164 109.68 205.164 108.49C205.164 108.121 205.05 107.774 204.846 107.472H206.213V106.465H206.217ZM202.489 109.516C201.758 109.516 201.167 109.057 201.167 108.494C201.167 107.931 201.758 107.472 202.489 107.472C203.22 107.472 203.815 107.931 203.815 108.494C203.815 109.057 203.22 109.516 202.489 109.516Z" fill="#272727"/>
<path d="M202.489 112.213C200.939 112.213 199.685 113.141 199.685 114.286C199.685 115.431 200.939 116.36 202.489 116.36C204.038 116.36 205.292 115.431 205.292 114.286C205.292 113.141 204.038 112.213 202.489 112.213ZM202.489 115.245C201.723 115.245 201.102 114.816 201.102 114.286C201.102 113.757 201.72 113.324 202.489 113.324C203.254 113.324 203.875 113.757 203.875 114.286C203.875 114.816 203.254 115.245 202.489 115.245Z" fill="#272727"/>
<path d="M225.263 107.487V106.103H223.899V110.594H219.208V107.297H222.762V106.237H217.841V110.62C217.841 111.194 218.31 111.657 218.89 111.657H223.895V113.197H225.259V108.55H226.232V107.487H225.263Z" fill="#272727"/>
<path d="M220.121 112.343H218.757V114.92V114.946C218.757 115.517 219.227 115.98 219.807 115.98H225.372V114.92H220.117V112.343H220.121Z" fill="#272727"/>
<path d="M212.199 111.508C210.748 111.508 209.57 112.597 209.57 113.936C209.57 115.275 210.748 116.364 212.199 116.364C213.65 116.364 214.825 115.275 214.825 113.936C214.825 112.597 213.65 111.508 212.199 111.508ZM212.199 115.248C211.498 115.248 210.93 114.659 210.93 113.936C210.93 113.212 211.498 112.623 212.199 112.623C212.9 112.623 213.472 113.208 213.472 113.936C213.472 114.659 212.9 115.248 212.199 115.248Z" fill="#272727"/>
<path d="M215.866 107.267C215.866 106.696 215.397 106.234 214.813 106.234H208.49V107.293H214.499V110.139H212.248V108.345H210.884V110.139H207.615V111.198H216.783V110.139H215.866V107.267Z" fill="#272727"/>
<path d="M111.88 127.268C107.368 129.059 105.394 132.408 105.394 136.048C105.394 138.439 107.19 140.408 109.717 140.408C111.471 140.408 114.039 139.036 114.039 136.153C114.039 134.579 113.172 133.206 111.88 132.471C112.516 132.11 113.255 131.901 114.039 131.901C116.426 131.901 118.362 133.825 118.362 136.153C118.362 140.341 115.343 143.504 111.88 144.384C111.096 144.582 110.289 144.671 109.482 144.649C103.071 144.5 97.8543 138.398 100.885 126.205C105.814 125.616 109.72 126.396 111.88 127.268Z" fill="url(#paint2_linear_255_566)"/>
<path d="M122.886 126.228L122.87 126.206C118.271 125.713 114.623 126.176 111.88 127.268C107.367 129.059 105.393 132.408 105.393 136.048C105.393 138.439 107.189 140.408 109.716 140.408C110.375 140.408 111.148 140.215 111.857 139.823C110.58 139.081 109.72 137.719 109.72 136.153C109.72 134.579 110.588 133.206 111.88 132.472C112.516 132.11 113.255 131.901 114.039 131.901C116.426 131.901 118.362 133.825 118.362 136.153C118.362 140.341 115.342 143.504 111.88 144.384C112.664 144.582 113.471 144.672 114.278 144.649C120.681 144.5 125.916 138.42 122.886 126.228Z" fill="url(#paint3_linear_255_566)"/>
<path d="M176.931 130.103H175.567V140.035H176.931V130.103Z" fill="white"/>
<path d="M172.479 130.551V130.211H170.979V130.551C170.979 133.038 170.372 134.489 168.417 135.761V136.888C170.012 136.418 171.403 134.948 171.729 133.87C172.055 134.948 173.445 136.418 175.04 136.888V135.761C173.081 134.486 172.479 133.035 172.479 130.551Z" fill="white"/>
<path d="M134.717 135.612H133.353V138.32H129.451V139.383H138.62V138.32H134.717V135.612Z" fill="white"/>
<path d="M134.02 133.303C134.6 134.556 136.218 135.97 138.032 136.395V135.269C136.464 134.542 134.77 133.191 134.77 130.551V130.211H133.27V130.551C133.27 133.191 131.573 134.542 130.008 135.269V136.395C131.819 135.974 133.441 134.556 134.02 133.303Z" fill="white"/>
<path d="M147.125 130.103H145.761V136.082C145.307 135.728 144.712 135.508 144.068 135.508C142.617 135.508 141.442 136.597 141.442 137.936C141.442 139.275 142.617 140.364 144.068 140.364C145.519 140.364 146.693 139.275 146.693 137.936C146.693 137.339 146.459 136.791 146.068 136.365H147.125V132.55H148.103V131.487H147.125V130.103ZM144.068 139.248C143.367 139.248 142.795 138.659 142.795 137.936C142.795 137.212 143.363 136.623 144.068 136.623C144.773 136.623 145.341 137.208 145.341 137.936C145.337 138.659 144.769 139.248 144.068 139.248Z" fill="white"/>
<path d="M145.235 135.366V134.24C143.742 133.583 142.897 132.542 142.897 130.547V130.208H141.397V130.547C141.397 132.542 140.556 133.579 139.059 134.24V135.366C140.226 135.105 141.556 134.198 142.147 133.035C142.742 134.198 144.068 135.105 145.235 135.366Z" fill="white"/>
<path d="M186.558 130.103H185.194V136.082C184.735 135.728 184.144 135.508 183.496 135.508C182.045 135.508 180.871 136.597 180.871 137.936C180.871 139.275 182.045 140.364 183.496 140.364C184.947 140.364 186.126 139.275 186.126 137.936C186.126 137.339 185.891 136.791 185.501 136.365H186.558V132.55H187.531V131.487H186.558V130.103ZM183.496 139.248C182.795 139.248 182.227 138.659 182.227 137.936C182.227 137.212 182.795 136.623 183.496 136.623C184.201 136.623 184.769 137.208 184.769 137.936C184.769 138.659 184.201 139.248 183.496 139.248Z" fill="white"/>
<path d="M181.632 133.035C182.223 134.198 183.496 135.105 184.667 135.366V134.24C183.364 133.665 182.594 132.804 182.42 131.271H184.364V130.208H178.901V131.271H180.844C180.666 132.804 179.901 133.665 178.597 134.24V135.366C179.768 135.105 181.041 134.198 181.632 133.035Z" fill="white"/>
<path d="M153.407 135.508C151.956 135.508 150.781 136.597 150.781 137.936C150.781 139.275 151.956 140.364 153.407 140.364C154.858 140.364 156.032 139.275 156.032 137.936C156.032 136.597 154.858 135.508 153.407 135.508ZM153.407 139.248C152.706 139.248 152.134 138.659 152.134 137.936C152.134 137.212 152.706 136.623 153.407 136.623C154.108 136.623 154.68 137.208 154.68 137.936C154.68 138.659 154.108 139.248 153.407 139.248Z" fill="white"/>
<path d="M157.075 131.267C157.075 130.696 156.601 130.234 156.021 130.234H149.702V131.293H155.707V134.139H153.456V132.345H152.092V134.139H148.823V135.198H157.991V134.139H157.078V131.267H157.075Z" fill="white"/>
<path d="M167.137 130.103H165.773V137.302H167.137V130.103Z" fill="white"/>
<path d="M164.678 132.755C164.678 131.274 163.409 130.07 161.84 130.07C160.275 130.07 159.006 131.274 159.006 132.755C159.006 134.239 160.275 135.444 161.84 135.444C163.409 135.444 164.678 134.239 164.678 132.755ZM160.385 132.755C160.385 131.901 161.037 131.203 161.848 131.203C162.655 131.203 163.31 131.897 163.31 132.755C163.31 133.613 162.655 134.307 161.848 134.307C161.037 134.31 160.385 133.613 160.385 132.755Z" fill="white"/>
<path d="M162 136.343H160.632V138.92V138.946C160.632 139.517 161.102 139.98 161.685 139.98H167.254V138.92H162V136.343Z" fill="white"/>
<path d="M196.529 130.103H195.165V137.302H196.529V130.103Z" fill="white"/>
<path d="M191.604 133.285C192.195 134.445 193.468 135.355 194.639 135.616V134.489C193.267 133.885 192.491 132.964 192.373 131.274H194.336V130.211H188.872V131.274H190.835C190.718 132.964 189.941 133.889 188.569 134.489V135.616C189.74 135.355 191.013 134.445 191.604 133.285Z" fill="white"/>
<path d="M191.271 136.343H189.907V138.92V138.946C189.907 139.517 190.377 139.98 190.956 139.98H196.643V138.92H191.271V136.343Z" fill="white"/>
<path d="M207.111 134.926H197.863V135.933H207.111V134.926Z" fill="white"/>
<path d="M206.217 130.465H203.239V129.73H201.739V130.465H198.761V131.472H200.125C199.924 131.774 199.807 132.121 199.807 132.49C199.807 133.68 201.008 134.646 202.485 134.646C203.963 134.646 205.164 133.68 205.164 132.49C205.164 132.121 205.05 131.774 204.846 131.472H206.213V130.465H206.217ZM202.489 133.516C201.758 133.516 201.167 133.057 201.167 132.494C201.167 131.931 201.758 131.472 202.489 131.472C203.22 131.472 203.815 131.931 203.815 132.494C203.815 133.057 203.22 133.516 202.489 133.516Z" fill="white"/>
<path d="M202.489 136.213C200.939 136.213 199.685 137.141 199.685 138.286C199.685 139.431 200.939 140.36 202.489 140.36C204.038 140.36 205.292 139.431 205.292 138.286C205.292 137.141 204.038 136.213 202.489 136.213ZM202.489 139.245C201.723 139.245 201.102 138.816 201.102 138.286C201.102 137.757 201.72 137.324 202.489 137.324C203.254 137.324 203.875 137.757 203.875 138.286C203.875 138.816 203.254 139.245 202.489 139.245Z" fill="white"/>
<path d="M225.263 131.487V130.103H223.899V134.594H219.208V131.297H222.762V130.237H217.841V134.62C217.841 135.194 218.31 135.657 218.89 135.657H223.895V137.197H225.259V132.55H226.232V131.487H225.263Z" fill="white"/>
<path d="M220.121 136.343H218.757V138.92V138.946C218.757 139.517 219.227 139.98 219.807 139.98H225.372V138.92H220.117V136.343H220.121Z" fill="white"/>
<path d="M212.199 135.508C210.748 135.508 209.57 136.597 209.57 137.936C209.57 139.275 210.748 140.364 212.199 140.364C213.65 140.364 214.825 139.275 214.825 137.936C214.825 136.597 213.65 135.508 212.199 135.508ZM212.199 139.248C211.498 139.248 210.93 138.659 210.93 137.936C210.93 137.212 211.498 136.623 212.199 136.623C212.9 136.623 213.472 137.208 213.472 137.936C213.472 138.659 212.9 139.248 212.199 139.248Z" fill="white"/>
<path d="M215.866 131.267C215.866 130.696 215.397 130.234 214.813 130.234H208.49V131.293H214.499V134.139H212.248V132.345H210.884V134.139H207.615V135.198H216.783V134.139H215.866V131.267Z" fill="white"/>
<g clip-path="url(#clip4_255_566)">
<path d="M221 16H239V14H221V16ZM221 11H239V9H221V11ZM221 4V6H239V4H221Z" fill="white"/>
</g>
<path d="M17.0433 236.66H25.4865V238.086H22.0975V247.556H20.4429V238.086H17.0433V236.66Z" fill="white"/>
<path d="M36.1837 242.108C36.1837 243.246 35.9727 244.238 35.5506 245.082C35.1286 245.926 34.5451 246.575 33.8003 247.029C33.059 247.479 32.2166 247.705 31.2732 247.705C30.3262 247.705 29.4802 247.479 28.7354 247.029C27.9941 246.575 27.4124 245.926 26.9904 245.082C26.5718 244.234 26.3626 243.243 26.3626 242.108C26.3626 240.969 26.5718 239.978 26.9904 239.134C27.4124 238.29 27.9941 237.642 28.7354 237.192C29.4802 236.738 30.3262 236.511 31.2732 236.511C32.2166 236.511 33.059 236.738 33.8003 237.192C34.5451 237.642 35.1286 238.29 35.5506 239.134C35.9727 239.978 36.1837 240.969 36.1837 242.108ZM28.0065 242.108C28.0065 242.97 28.1466 243.707 28.4268 244.321C28.707 244.935 29.0936 245.401 29.5866 245.72C30.0797 246.036 30.6418 246.194 31.2732 246.194C31.9045 246.194 32.4667 246.036 32.9597 245.72C33.4527 245.401 33.8393 244.935 34.1195 244.321C34.3997 243.707 34.5398 242.97 34.5398 242.108C34.5398 241.246 34.3997 240.508 34.1195 239.895C33.8393 239.281 33.4527 238.816 32.9597 238.501C32.4667 238.181 31.9045 238.022 31.2732 238.022C30.6418 238.022 30.0797 238.181 29.5866 238.501C29.0936 238.816 28.707 239.281 28.4268 239.895C28.1466 240.508 28.0065 241.246 28.0065 242.108Z" fill="white"/>
<path d="M38.0436 236.66H41.938C42.7573 236.66 43.4489 236.812 44.0129 237.117C44.5804 237.419 45.0042 237.836 45.2844 238.368C45.5682 238.9 45.71 239.508 45.71 240.192C45.71 240.877 45.5682 241.487 45.2844 242.023C45.0007 242.555 44.5751 242.973 44.0076 243.278C43.4436 243.583 42.752 243.736 41.9327 243.736H39.6982V247.556H38.0436V236.66ZM41.7677 242.326C42.5374 242.326 43.1084 242.133 43.4809 241.746C43.8568 241.359 44.0448 240.842 44.0448 240.192C44.0448 239.543 43.8568 239.029 43.4809 238.65C43.1084 238.27 42.5356 238.08 41.7624 238.08H39.6982V242.326H41.7677Z" fill="white"/>
<path d="M31.9999 228.747L31.9999 214" stroke="white" stroke-linecap="round" stroke-linejoin="round"/>
<path d="M32.0001 214L36.7406 218.405" stroke="white" stroke-linecap="round"/>
<path d="M31.9999 214L27.2594 218.405" stroke="white" stroke-linecap="round"/>
<path d="M243.75 16.25L256.25 3.75M243.75 3.75L256.25 16.25" stroke="white" stroke-width="2" stroke-linecap="round" stroke-linejoin="round"/>
<path d="M243.75 36.25L256.25 23.75M243.75 23.75L256.25 36.25" stroke="#666666" stroke-width="2" stroke-linecap="round" stroke-linejoin="round"/>
<g clip-path="url(#clip5_255_566)">
<path d="M276 7L270 13L264 7" stroke="#666666" stroke-width="2" stroke-linecap="round" stroke-linejoin="round"/>
</g>
<g clip-path="url(#clip6_255_566)">
<path d="M276 27L270 33L264 27" stroke="#452F5D" stroke-width="2" stroke-linecap="round" stroke-linejoin="round"/>
</g>
<path d="M288.5 5.5H285.5C284.672 5.5 284 6.17157 284 7V14.5C284 15.3284 284.672 16 285.5 16H293C293.828 16 294.5 15.3284 294.5 14.5V11.5M291.5 4H296M296 4V8.5M296 4L288.5 11.5" stroke="#666666" stroke-width="1.65" stroke-linecap="round" stroke-linejoin="round"/>
<path fill-rule="evenodd" clip-rule="evenodd" d="M310.243 17.9977C310.519 17.9977 310.743 17.7738 310.743 17.4977L310.743 2.75044C310.743 2.4743 310.519 2.25044 310.243 2.25044C309.967 2.25044 309.743 2.4743 309.743 2.75044L309.743 17.4977C309.743 17.7738 309.967 17.9977 310.243 17.9977Z" fill="white"/>
<path fill-rule="evenodd" clip-rule="evenodd" d="M315.35 6.81522L310.61 2.41034C310.407 2.22237 310.079 2.22235 309.877 2.41031C309.675 2.59826 309.675 2.903 309.877 3.09097L314.618 7.49586C314.82 7.68383 315.148 7.68384 315.35 7.49589C315.552 7.30794 315.552 7.00319 315.35 6.81522Z" fill="white"/>
<path fill-rule="evenodd" clip-rule="evenodd" d="M305.137 6.81522L309.877 2.41034C310.079 2.22237 310.407 2.22235 310.61 2.41031C310.812 2.59826 310.812 2.903 310.61 3.09097L305.869 7.49586C305.667 7.68383 305.339 7.68384 305.137 7.49589C304.934 7.30793 304.934 7.00319 305.137 6.81522Z" fill="white"/>
<defs>
<linearGradient id="paint0_linear_255_566" x1="115.043" y1="118.706" x2="100.546" y2="102.641" gradientUnits="userSpaceOnUse">
<stop stop-color="#00478B"/>
<stop offset="0.7" stop-color="#0075C2"/>
</linearGradient>
<linearGradient id="paint1_linear_255_566" x1="109.839" y1="116.527" x2="122.97" y2="102.315" gradientUnits="userSpaceOnUse">
<stop stop-color="#FDD000"/>
<stop offset="0.7" stop-color="#F08300"/>
</linearGradient>
<linearGradient id="paint2_linear_255_566" x1="115.043" y1="142.706" x2="100.546" y2="126.641" gradientUnits="userSpaceOnUse">
<stop stop-color="#00478B"/>
<stop offset="0.7" stop-color="#0075C2"/>
</linearGradient>
<linearGradient id="paint3_linear_255_566" x1="109.839" y1="140.527" x2="122.97" y2="126.315" gradientUnits="userSpaceOnUse">
<stop stop-color="#FDD000"/>
<stop offset="0.7" stop-color="#F08300"/>
</linearGradient>
<clipPath id="clip0_255_566">
<rect width="20" height="20" fill="white" transform="translate(200)"/>
</clipPath>
<clipPath id="clip1_255_566">
<rect width="20" height="20" fill="white" transform="translate(200 20)"/>
</clipPath>
<clipPath id="clip2_255_566">
<rect width="100" height="24" fill="white" transform="translate(0 100)"/>
</clipPath>
<clipPath id="clip3_255_566">
<rect width="100" height="24" fill="white" transform="translate(0 124)"/>
</clipPath>
<clipPath id="clip4_255_566">
<rect width="20" height="20" fill="white" transform="translate(220)"/>
</clipPath>
<clipPath id="clip5_255_566">
<rect width="20" height="20" fill="white" transform="translate(280 20) rotate(-180)"/>
</clipPath>
<clipPath id="clip6_255_566">
<rect width="20" height="20" fill="white" transform="translate(280 40) rotate(-180)"/>
</clipPath>
</defs>
</svg>
