<svg width="307" height="396" viewBox="0 0 307 396" fill="none" xmlns="http://www.w3.org/2000/svg">
<g clip-path="url(#clip0_929_8168)">
<path d="M334 -30H-24V425H334V-30Z" fill="white"/>
<g opacity="0.4">
<path d="M148.579 166.798C148.579 166.798 146.214 166.687 145.91 163.958C145.91 163.958 145.782 161.458 148.579 161.118C148.579 161.118 151.424 161.528 151.26 163.958C151.26 163.958 151.523 166.611 148.579 166.798ZM152.47 163.958C152.376 159.9 148.579 160.064 148.579 160.064C144.45 160.245 144.695 163.958 144.695 163.958C145.157 168.221 148.579 167.858 148.579 167.858C152.645 167.858 152.47 163.958 152.47 163.958" fill="#888888"/>
<path d="M155.711 161.956L158.807 168.122H159.876L160.7 160.615H159.643L158.959 165.973L155.904 160.064H154.847L154.023 167.577H155.215L155.711 161.956Z" fill="#888888"/>
<path d="M165.748 163.846L165.584 166.639L163.802 165.767L165.742 163.846H165.748ZM161.338 168.542L162.973 166.803L165.601 167.857L165.66 170.188L166.822 170.692L166.869 162.652L165.864 162.119L160.286 168.051L161.338 168.537V168.542Z" fill="#888888"/>
<path d="M170.737 171.863L168.652 170.58L171.859 165.011L170.918 164.32L167.122 170.896L170.211 172.688L170.737 171.863Z" fill="#888888"/>
<path d="M177.581 177.636L182.365 173.309L181.588 172.554L177.248 176.494C177.248 176.494 176.267 176.863 175.829 176.102C175.829 176.102 175.21 175.481 175.648 174.867L179.666 170.674L178.889 169.854L174.561 174.111C174.561 174.111 173.632 175.394 174.865 176.723C174.865 176.723 176.033 178.257 177.575 177.642" fill="#888888"/>
<path d="M178.32 180.501L183.051 177.386L180.358 183.593L180.907 184.349L187.262 180.361L186.713 179.377L182.093 182.334L184.587 176.379L183.991 175.465L177.683 179.629L178.32 180.501Z" fill="#888888"/>
<path d="M181.777 186.667L188.792 183.891L188.407 182.884L181.298 185.701L181.777 186.667Z" fill="#888888"/>
<path d="M182.985 190.49L191.121 191.064L191.098 190.104L184.953 189.6L189.679 186.093L189.287 184.945L182.845 189.893L182.985 190.49Z" fill="#888888"/>
<path d="M183.873 197.547L185 197.57L184.86 194.683L187.05 194.548L187.278 197.388L188.335 197.318L188.125 194.548L190.362 194.314L190.462 197.16L191.577 197.137L191.262 193.102L183.645 193.723L183.873 197.547Z" fill="#888888"/>
<path d="M188.189 206.085C188.189 206.085 187.038 205.88 185.993 207.614C185.993 207.614 185.52 208.908 184.042 208.076C184.042 208.076 182.961 207.338 184.217 206.185L185.432 206.12L185.397 204.949L184.042 205.002C184.042 205.002 182.447 205.412 182.511 207.251C182.511 207.251 182.395 209.487 185.07 209.534C185.07 209.534 186.384 209.605 187.038 208.281C187.038 208.281 187.488 207.163 188.136 207.163C188.136 207.163 189.1 207.163 189.246 208.105C189.246 208.105 189.491 209.464 187.768 209.154L187.757 210.202C187.757 210.202 190.222 210.787 190.327 208.088C190.327 208.088 190.502 206.319 188.183 206.074" fill="#888888"/>
<path d="M181.188 210.723L188.121 213.75L188.757 212.802L181.591 209.675L181.188 210.723Z" fill="#888888"/>
<path d="M185.86 215.74L180.2 212.613L179.587 213.492L185.294 216.835L184.54 217.977L185.463 218.504L187.507 215.266L186.62 214.593L185.86 215.74Z" fill="#888888"/>
<path d="M177.61 216.414L176.879 217.222L179.087 218.902L181.453 223.698L182.259 222.843L180.477 219.277L184.432 220.109L185.069 219.259L179.911 218.194L177.61 216.414Z" fill="#888888"/>
<path d="M126.036 219.178L127.309 215.003L126.345 213.937L125.072 218.335L120.382 218.393L121.1 219.418L125.779 219.453L122.882 221.708L123.477 222.615L129.581 218.024L128.88 217.187L126.036 219.178Z" fill="#888888"/>
<path d="M122.898 204.866L117.244 205.809L122.185 201.411L122.039 200.188L114.498 201.446L114.65 202.524L120.152 201.663L115.339 205.996L115.468 207.185L123.02 206.119L122.898 204.866Z" fill="#888888"/>
<path d="M118.423 198.946C122.74 198.741 122.313 195.052 122.313 195.052C122.465 191.515 118.639 191.269 118.639 191.269L118.248 195.913L119.294 196.065L119.597 192.768C121.554 193.248 121.244 195.122 121.244 195.122C120.748 198.015 118.26 197.716 118.26 197.716C115.415 197.371 115.584 195.087 115.584 195.087C115.795 193.225 116.706 193.008 116.706 193.008L116.799 191.685C114.142 192.388 114.364 195.175 114.364 195.175C114.936 199.11 118.417 198.952 118.417 198.952" fill="#888888"/>
<path d="M122.466 188.904C122.466 188.904 122.671 189.982 121.386 189.759L121.099 190.825L122.122 190.843C122.122 190.843 123.465 190.825 123.588 188.963C123.588 188.963 123.839 187.698 122.18 186.872L116.637 185.157L116.298 186.24L121.526 187.962C121.526 187.962 122.519 188.131 122.466 188.91" fill="#888888"/>
<path d="M125.485 184.518C125.485 184.518 126.759 182.832 125.217 181.356L119.884 178.557L119.352 179.535L124.253 182.164C124.253 182.164 125.368 182.767 124.457 183.903C124.457 183.903 124.148 184.934 122.717 184.126L118.155 181.772L117.658 182.75L122.746 185.467C122.746 185.467 124.638 186.035 125.491 184.524" fill="#888888"/>
<path d="M129.857 177.573L125.996 173.533L132.701 175.014L133.321 174.359L128.093 168.948L127.351 169.615L131.107 173.656L124.565 172.163L123.823 172.918L129.039 178.37L129.857 177.573Z" fill="#888888"/>
<path d="M135.672 168.895L133.879 169.955L133.318 167.191L135.672 168.895ZM134.656 173.41L134.194 171.079L136.56 169.633L138.575 170.985L139.522 170.382L132.985 165.557L132.062 166.102L133.622 174.06L134.656 173.404V173.41Z" fill="#888888"/>
<path d="M137.518 164.239L140.193 170.218L141.309 169.721L138.634 163.812L139.884 163.156L139.44 162.231L135.871 163.894L136.286 164.767L137.518 164.239Z" fill="#888888"/>
<path d="M144.358 168.754L142.349 161.44L141.134 161.78L143.126 169.135L144.358 168.754Z" fill="#888888"/>
<path d="M188.942 203.525C188.942 203.525 187.055 203.625 187.61 200.621L190.519 200.896C190.519 200.896 190.706 203.426 188.942 203.525ZM184.059 198.993L183.977 200.187L187.178 200.527L183.527 202.594L183.481 203.9L186.647 202.284C186.582 204.725 189.205 204.585 189.205 204.585C191.606 204.556 191.582 201.423 191.582 201.423L191.693 199.859L184.059 198.987V198.993Z" fill="#888888"/>
<path d="M118.558 212.081C118.558 212.081 118.494 209.656 121.315 209.246C121.315 209.246 123.856 209.194 124.125 211.864C124.125 211.864 124.288 214.476 121.21 214.663C121.21 214.663 118.763 214.681 118.552 212.081M121.198 215.863C125.451 215.776 125.346 211.876 125.346 211.876C125.299 208.163 121.28 208.028 121.28 208.028C117.081 208.596 117.384 212.034 117.384 212.034C117.682 216.074 121.198 215.869 121.198 215.869" fill="#888888"/>
<path d="M153.032 238.854C130.556 238.854 112.332 220.584 112.332 198.051C112.332 175.517 130.556 157.241 153.032 157.241C175.508 157.241 193.727 175.517 193.727 198.051C193.727 220.584 174.737 238.854 153.032 238.854ZM152.997 156C129.808 156 111 174.85 111 198.103C111 221.357 129.808 240.212 152.997 240.212C176.186 240.212 195 220.566 195 198.103C195 175.64 176.204 156 152.997 156" fill="#888888"/>
<path d="M147.476 217.632V223.541H146.588V218.423H145.56L145.525 217.632H147.482H147.476ZM150.461 217.603C150.461 217.603 152.517 217.55 152.517 219.863C152.517 219.863 152.102 221.333 150.303 223.558H149.456L150.554 221.743C150.554 221.743 148.271 221.901 148.335 219.659C148.335 219.659 148.399 217.486 150.461 217.597M152.61 221.808L155.216 217.75H156.086V221.854H156.723V222.639H156.103V223.529H155.367V222.639H152.605V221.813L152.61 221.808ZM157.938 219.132C157.938 219.132 157.873 217.55 159.561 217.638C159.561 217.638 161.051 217.48 161.162 219.149C161.162 219.149 161.279 219.834 160.619 220.25C160.619 220.25 161.506 220.865 161.436 221.849C161.436 221.849 161.506 223.611 159.614 223.734C159.614 223.734 157.85 223.799 157.692 221.895C157.692 221.895 157.645 220.701 158.492 220.338C158.492 220.338 157.873 220.033 157.943 219.126M153.072 226.047C164.217 225.467 170.975 221.21 175.087 216.186L130.566 216.209C139.013 226.849 153.072 226.053 153.072 226.053" fill="#888888"/>
<path d="M176.384 191.205H129.545V189.419H176.384V191.205ZM165.239 206.261V192.505H165.818V195.088L168.423 192.681C168.423 192.681 169.55 194.842 170.409 193.846C170.409 193.846 170.788 194.707 169.41 195.568L169.387 205.394C169.387 205.394 169.41 206.916 170.853 206.46L169.515 209.001C169.515 209.001 168.183 209.171 167.599 206.594C167.599 206.594 165.502 208.006 164.679 209.106C164.679 209.106 162.301 206.834 160.497 208.246C160.497 208.246 160.426 206.495 162.623 205.628L162.588 201.371C162.588 201.371 161.595 200.715 161.186 201.992C161.186 201.992 160.911 201.851 160.812 200.756C160.812 200.756 160.777 198.689 162.588 199.07V196.112C162.588 196.112 161.7 193.296 159.638 196.042C159.638 196.042 159.159 192.54 162.173 192.605C162.173 192.605 164.34 192.4 164.468 195.597L164.433 205.909C164.433 205.909 165.088 205.95 165.228 206.255M148.797 202.337C148.797 202.337 148.382 202.583 148.382 200.932C148.382 200.932 148.429 199.38 149.866 199.591V194.883C149.866 194.883 148.838 193.993 147.944 196.224C147.944 196.224 147.465 196.259 147.705 194.473C147.705 194.473 148.26 192.511 149.872 192.617C149.872 192.617 152.307 191.832 154.258 198.185C154.258 198.185 154.656 199.907 156.729 198.666V195.574C156.729 195.574 155.876 195.539 155.707 195.228C155.707 195.228 155.281 194.572 154.638 195.058C154.638 195.058 155.012 194.268 156.384 192.617C156.384 192.617 157.909 194.133 159.299 192.862C159.299 192.862 160.053 194.479 157.453 195.544V209.013C157.453 209.013 155.876 209.499 154.019 203.245C154.019 203.245 152.202 201.793 150.555 203.175L150.456 205.786C150.456 205.786 152.039 205.716 152.967 206.817L153.201 206.507L153.616 206.922L152.004 209.147C152.004 209.147 149.948 206.987 147.442 208.738C147.442 208.738 147.617 206.401 149.843 205.956V201.757C149.843 201.757 148.92 201.512 148.809 202.343M138.324 194.812C138.324 194.812 137.261 194.783 136.677 194.473C136.677 194.473 136.437 194.198 135 194.783C135 194.783 135.339 192.166 137.641 192.476C137.641 192.476 139.492 193.231 140.246 192.786C140.246 192.786 139.965 194.754 138.324 194.818M142.541 206.606L142.781 206.436L143.19 206.776C143.19 206.776 141.683 208.603 141.507 209.118C141.507 209.118 141.058 208.978 140.754 208.603C140.754 208.603 139.218 207.156 135.579 208.673C135.579 208.673 138.353 203.485 142.541 206.606ZM136.945 201.488C136.945 201.488 136.578 200.873 135.514 202.103C135.514 202.103 134.516 199.116 136.916 199.251L137.021 198.15C137.021 198.15 137.255 196.335 139.177 195.673C139.177 195.673 138.797 196.499 138.838 197.014L138.762 203.239C138.762 203.239 138.283 206.05 136.431 205.915C136.431 205.915 137.29 205.329 136.945 201.482M141.577 199.046L144.691 192.511C144.626 193.167 145.906 193.272 145.906 193.272C146.35 193.407 146.718 192.927 146.718 192.927C147.027 194.338 145.549 195.474 145.549 195.474C145.193 196.13 143.873 195.41 143.873 195.41L142.5 198.947C143.669 199.193 144.223 202.243 144.223 202.243C145.076 205.476 145.66 205.921 145.66 205.921C146.034 206.717 146.998 206.366 146.998 206.366C146.279 207.197 145.52 208.984 145.52 208.984C143.704 209.499 143.02 205.136 143.02 205.136C142.541 202.279 141.577 200.943 141.577 200.943C141.344 205.341 139.346 204.656 139.346 204.656C140.374 204.275 139.796 196.47 139.796 196.47C140.17 193.237 142.056 193.237 142.056 193.237C141.028 193.823 141.577 199.052 141.577 199.052M174.387 212.105H131.467V210.114H174.387V212.105V212.105ZM162.804 187.247H142.915L152.88 177.76L162.804 187.247V187.247ZM152.932 171.067L169.702 187.247H166.18L152.839 174.505L139.533 187.34H136.198L152.932 171.073V171.067ZM153.067 169.966C124.819 171.893 124.405 198.016 124.405 198.016C124.79 205.031 126.607 210.278 129.148 214.23L176.571 214.207C181.682 206.542 181.46 198.016 181.46 198.016C180.087 169.966 153.067 169.966 153.067 169.966Z" fill="#888888"/>
<path d="M156.905 184.898L152.887 181.004L148.95 184.945L156.905 184.898Z" fill="#888888"/>
<path d="M153.616 202.096C151.87 195.637 150.427 195.122 150.427 195.122L150.462 202.307C151.56 201.34 153.616 202.096 153.616 202.096" fill="#888888"/>
<path d="M156.737 199.52C155.843 200.106 154.71 199.661 154.71 199.661C155.498 203.268 156.737 205.019 156.737 205.019V199.52Z" fill="#888888"/>
<path d="M167.571 198.25V195.533C167.121 195.223 166.817 194.749 166.817 194.749L165.859 195.568V198.01C166.198 198.66 167.571 198.25 167.571 198.25Z" fill="#888888"/>
<path d="M167.606 202.097L167.571 198.97C167.571 198.97 166.782 199.35 165.818 199.005V202.097C165.818 202.097 166.502 201.687 167.606 202.097Z" fill="#888888"/>
<path d="M167.528 205.775L167.581 202.8C166.979 202.22 165.758 202.777 165.758 202.777L165.852 206.764C165.852 207.075 167.528 205.769 167.528 205.769" fill="#888888"/>
<path d="M150.437 220.94C151.787 220.741 151.658 219.728 151.658 219.728C151.565 218.516 150.437 218.493 150.437 218.493C149.322 218.352 149.211 219.705 149.211 219.705C149.158 220.853 150.437 220.94 150.437 220.94Z" fill="#888888"/>
<path d="M153.641 221.861H155.329V219.044L153.641 221.539V221.861Z" fill="#888888"/>
<path d="M159.552 219.957C160.311 219.939 160.288 219.202 160.288 219.202C160.311 218.47 159.552 218.353 159.552 218.353C158.664 218.47 158.804 219.172 158.804 219.172C158.734 219.951 159.552 219.957 159.552 219.957Z" fill="#888888"/>
<path d="M159.551 223.008C160.701 222.75 160.555 221.843 160.555 221.843C160.491 220.783 159.527 220.83 159.527 220.83C158.54 220.806 158.523 221.819 158.523 221.819C158.435 222.856 159.545 223.014 159.545 223.014" fill="#888888"/>
<path d="M139.507 228.475L140.652 226.069C140.652 226.069 141.032 225.272 140.062 224.786C139.098 224.294 135.716 222.708 135.716 222.708L135.331 223.516L139.712 225.6L138.561 228.019L136.774 227.17L137.451 225.747L136.528 225.307L135.851 226.73L133.777 225.741L133.397 226.549L139.554 229.483L139.934 228.675L139.507 228.47V228.475Z" fill="#888888"/>
<path d="M139.583 229.566L139.531 229.542L133.322 226.585L133.754 225.671L135.827 226.661L136.505 225.238L137.533 225.73L136.855 227.153L138.538 227.955L139.636 225.642L135.255 223.552L135.278 223.499L135.687 222.638L135.74 222.662C135.775 222.679 139.133 224.254 140.085 224.74C141.09 225.25 140.705 226.093 140.705 226.105L139.589 228.459L140.015 228.664L139.583 229.577V229.566ZM133.479 226.526L139.531 229.407L139.863 228.705L139.437 228.5L140.605 226.04C140.617 226.011 140.944 225.291 140.039 224.834C139.151 224.383 136.178 222.99 135.746 222.785L135.413 223.487L139.793 225.572L138.596 228.096L136.703 227.194L137.381 225.771L136.563 225.379L135.886 226.802L133.812 225.812L133.479 226.515V226.526Z" fill="#888888"/>
<path d="M134.746 231.662C133.718 231.17 133.117 230.28 133.403 229.671C133.695 229.062 134.764 228.962 135.792 229.454C136.82 229.946 137.422 230.836 137.13 231.445C136.843 232.054 135.774 232.154 134.741 231.662M136.137 228.722C134.589 227.984 132.942 228.207 132.457 229.226C131.978 230.239 132.842 231.662 134.39 232.399C135.938 233.137 137.585 232.915 138.07 231.896C138.549 230.883 137.685 229.46 136.137 228.722" fill="#888888"/>
<path d="M136.214 232.892C135.618 232.892 134.982 232.739 134.374 232.453C133.615 232.089 132.99 231.557 132.622 230.948C132.248 230.333 132.172 229.712 132.412 229.203C132.698 228.594 133.416 228.23 134.327 228.23C134.923 228.23 135.56 228.383 136.167 228.67C137.744 229.419 138.621 230.877 138.13 231.925C137.844 232.534 137.125 232.898 136.214 232.898V232.892ZM134.327 228.342C133.463 228.342 132.785 228.681 132.517 229.244C132.295 229.718 132.365 230.298 132.721 230.877C133.077 231.469 133.685 231.99 134.427 232.341C135.017 232.622 135.636 232.769 136.214 232.769C137.079 232.769 137.756 232.429 138.025 231.867C138.492 230.883 137.639 229.489 136.121 228.769C135.531 228.488 134.911 228.342 134.333 228.342H134.327ZM136.033 232.031C135.612 232.031 135.163 231.92 134.725 231.709C133.667 231.205 133.054 230.28 133.358 229.642C133.527 229.285 133.948 229.08 134.514 229.08C134.935 229.08 135.385 229.191 135.823 229.396C136.88 229.899 137.493 230.83 137.189 231.469C137.02 231.826 136.6 232.031 136.033 232.031ZM134.514 229.197C133.994 229.197 133.615 229.378 133.463 229.694C133.188 230.274 133.778 231.135 134.777 231.609C135.192 231.808 135.642 231.92 136.033 231.92C136.553 231.92 136.932 231.738 137.084 231.422C137.359 230.842 136.769 229.981 135.77 229.507C135.355 229.308 134.906 229.203 134.514 229.203V229.197Z" fill="#888888"/>
<path d="M164.854 225.613L165.303 226.48L169.754 224.149L172.161 228.769L173.072 228.289L170.601 223.54C170.601 223.54 170.262 222.75 169.427 223.212L164.854 225.607V225.613Z" fill="#888888"/>
<path d="M171.8 230.21L169.89 226.55L168.99 227.024L170.894 230.684L169.925 231.193L168.015 227.528L167.115 228.002L169.019 231.668L167.921 232.236L168.324 233.009L174.235 229.911L173.838 229.144L171.8 230.21Z" fill="#888888"/>
<path d="M146.963 232.47L140.555 230.731L140.322 231.586L143.014 232.312L142.22 235.257L143.195 235.527L143.99 232.576L146.729 233.319L146.963 232.47Z" fill="#888888"/>
<path d="M143.237 235.598L142.15 235.305L142.168 235.246L142.945 232.353L140.252 231.621L140.515 230.655L140.573 230.673L147.039 232.424L146.776 233.39L146.718 233.372L144.031 232.646L143.237 235.592V235.598ZM142.29 235.223L143.155 235.457L143.949 232.512L144.008 232.529L146.695 233.255L146.893 232.512L140.597 230.802L140.398 231.545L143.091 232.277L143.073 232.336L142.296 235.229L142.29 235.223Z" fill="#888888"/>
<path d="M145.262 227.757L147.622 228.395L147.85 227.552L142.23 226.029L142.003 226.873L144.298 227.493C144.205 227.862 143.697 229.203 141.22 229.016L141.29 229.906C141.29 229.906 143.177 230.011 144.316 229.232C144.316 229.232 144.952 230.585 146.781 231.452L147.248 230.679C147.248 230.679 144.707 229.49 145.256 227.763" fill="#888888"/>
<path d="M146.811 231.522L146.764 231.499C145.152 230.737 144.451 229.584 144.299 229.314C143.388 229.906 142.062 229.97 141.525 229.97C141.379 229.97 141.291 229.97 141.291 229.97H141.239L141.163 228.963H141.233C141.391 228.981 141.543 228.986 141.689 228.986C143.616 228.986 144.113 227.95 144.235 227.546L141.94 226.925L142.197 225.971L142.255 225.988L147.927 227.528L147.67 228.483L145.31 227.845C144.854 229.472 147.261 230.62 147.284 230.632L147.343 230.661L146.817 231.54L146.811 231.522ZM144.346 229.139L144.375 229.203C144.375 229.203 145.012 230.521 146.764 231.37L147.173 230.696C146.794 230.503 144.703 229.344 145.211 227.739L145.228 227.686L147.588 228.325L147.781 227.599L142.278 226.105L142.08 226.837L144.375 227.458L144.364 227.517C144.27 227.886 143.803 229.098 141.689 229.098C141.56 229.098 141.426 229.098 141.291 229.086L141.35 229.853C141.665 229.859 143.283 229.877 144.288 229.186L144.346 229.145V229.139Z" fill="#888888"/>
<path d="M154.456 227.834V231.342H153.801V227.834H152.808V234.141H150.273V228.683H152.125V227.834H149.298V234.024C149.298 234.024 149.28 235.001 150.104 234.984H152.808V236.594H153.801V232.279H154.456V236.594H155.448V227.84H154.456V227.834Z" fill="#888888"/>
<path d="M155.508 236.653H154.398V232.337H153.861V236.653H152.751V235.042H150.082C149.854 235.042 149.667 234.966 149.521 234.826C149.229 234.533 149.235 234.047 149.235 234.024V227.775H152.173V228.742H150.321V234.082H152.745V227.775H153.855V231.283H154.392V227.775H155.502V236.647L155.508 236.653ZM154.515 236.536H155.391V227.898H154.515V231.406H153.744V227.898H152.868V234.205H150.216V228.63H152.068V227.898H149.357V234.029C149.357 234.029 149.357 234.486 149.608 234.744C149.731 234.867 149.889 234.925 150.082 234.925H150.099H152.862V236.536H153.738V232.22H154.509V236.536H154.515Z" fill="#888888"/>
<path d="M164.427 227.815L163.644 228.031L163.025 225.818L162.026 226.099L163.603 231.738L164.602 231.463L163.907 228.968L164.69 228.746L164.427 227.815Z" fill="#888888"/>
<path d="M163.563 231.815L163.546 231.756L161.957 226.058L163.067 225.748L163.084 225.807L163.686 227.967L164.468 227.745L164.76 228.793L163.978 229.016L164.673 231.51L163.563 231.821V231.815ZM162.103 226.14L163.645 231.668L164.527 231.422L163.832 228.928L164.614 228.705L164.387 227.88L163.604 228.102L163.586 228.044L162.985 225.889L162.097 226.135L162.103 226.14Z" fill="#888888"/>
<path d="M159.883 227.334L159.661 226.544L158.668 226.825L158.884 227.616L157.073 228.119L157.318 228.992L161.933 227.698L161.687 226.825L159.883 227.334Z" fill="#888888"/>
<path d="M157.278 229.068L157.003 228.084L158.814 227.575L158.592 226.784L159.702 226.474L159.924 227.265L161.729 226.761L162.003 227.745L157.278 229.074V229.068ZM157.149 228.166L157.36 228.928L161.863 227.663L161.653 226.902L159.848 227.405L159.626 226.615L158.744 226.861L158.966 227.651L157.155 228.161L157.149 228.166Z" fill="#888888"/>
<path d="M160.513 231.534C159.859 231.716 159.187 231.37 159.018 230.755C158.848 230.141 159.24 229.496 159.894 229.315C160.548 229.133 161.22 229.479 161.389 230.094C161.559 230.709 161.167 231.353 160.513 231.534ZM159.684 228.56C158.492 228.893 157.762 230 158.054 231.031C158.34 232.061 159.538 232.629 160.729 232.296C161.915 231.962 162.645 230.855 162.359 229.824C162.073 228.794 160.875 228.226 159.684 228.56" fill="#888888"/>
<path d="M160.035 232.447C159.048 232.447 158.225 231.885 157.991 231.048C157.862 230.585 157.927 230.081 158.178 229.636C158.482 229.098 159.019 228.688 159.662 228.506C159.895 228.442 160.129 228.407 160.368 228.407C161.355 228.407 162.173 228.969 162.407 229.806C162.699 230.866 161.951 232.008 160.736 232.348C160.503 232.412 160.269 232.447 160.035 232.447V232.447ZM160.368 228.524C160.146 228.524 159.919 228.553 159.697 228.618C159.083 228.787 158.569 229.18 158.283 229.695C158.049 230.117 157.985 230.585 158.108 231.018C158.33 231.803 159.101 232.336 160.035 232.336C160.257 232.336 160.485 232.307 160.707 232.242C161.864 231.92 162.576 230.843 162.296 229.841C162.074 229.057 161.303 228.524 160.368 228.524V228.524ZM160.158 231.645C159.597 231.645 159.101 231.288 158.961 230.778C158.873 230.468 158.92 230.134 159.095 229.847C159.27 229.56 159.545 229.355 159.878 229.262C160 229.227 160.123 229.209 160.246 229.209C160.806 229.209 161.303 229.566 161.443 230.076C161.624 230.72 161.209 231.399 160.526 231.592C160.403 231.627 160.281 231.645 160.152 231.645H160.158ZM160.246 229.326C160.135 229.326 160.018 229.344 159.907 229.373C159.603 229.455 159.352 229.648 159.194 229.906C159.037 230.163 158.996 230.462 159.072 230.743C159.2 231.206 159.644 231.528 160.158 231.528C160.275 231.528 160.386 231.51 160.497 231.481C161.122 231.305 161.496 230.69 161.332 230.111C161.204 229.648 160.76 229.326 160.246 229.326V229.326Z" fill="#888888"/>
<path d="M158.881 233.385L159.121 234.234L163.899 232.893L164.53 235.165L165.563 234.872L164.927 232.594C164.927 232.594 164.74 231.71 163.788 231.997L158.875 233.379L158.881 233.385Z" fill="#888888"/>
<path d="M164.49 235.235L163.859 232.963L159.081 234.304L158.812 233.337L163.777 231.938C163.906 231.897 164.034 231.879 164.151 231.879C164.834 231.879 164.986 232.57 164.992 232.576L165.64 234.907L164.496 235.229L164.49 235.235ZM163.935 232.822L163.952 232.881L164.572 235.094L165.494 234.837L164.875 232.617C164.875 232.617 164.741 232.008 164.151 232.008C164.046 232.008 163.929 232.026 163.812 232.061L158.958 233.425L159.163 234.163L163.941 232.822H163.935Z" fill="#888888"/>
<path d="M177.74 223.927C177.74 224.495 177.278 224.958 176.712 224.958C176.145 224.958 175.684 224.495 175.684 223.927C175.684 223.359 176.145 222.896 176.712 222.896C177.278 222.896 177.74 223.359 177.74 223.927Z" fill="#888888"/>
<path d="M130.614 223.927C130.614 224.495 130.153 224.958 129.586 224.958C129.02 224.958 128.558 224.495 128.558 223.927C128.558 223.359 129.02 222.896 129.586 222.896C130.153 222.896 130.614 223.359 130.614 223.927Z" fill="#888888"/>
</g>
</g>
<defs>
<clipPath id="clip0_929_8168">
<rect width="307" height="396" fill="white"/>
</clipPath>
</defs>
</svg>
