<svg width="1000" height="1000" viewBox="0 0 1000 1000" fill="none" xmlns="http://www.w3.org/2000/svg">
<path d="M9.68907 1.28792C9.27449 0.904027 8.60478 0.904027 8.19021 1.28792L3.31093 5.80604C2.89636 6.18993 2.89636 6.81007 3.31093 7.19396L8.19021 11.7121C8.60478 12.096 9.27449 12.096 9.68907 11.7121C10.1036 11.3282 10.1036 10.7081 9.68907 10.3242L5.56454 6.49508L9.68907 2.67584C10.1036 2.29195 10.093 1.66197 9.68907 1.28792V1.28792Z" fill="#2F76EA"/>
<path d="M9.68907 21.2879C9.27449 20.904 8.60478 20.904 8.19021 21.2879L3.31093 25.806C2.89636 26.1899 2.89636 26.8101 3.31093 27.194L8.19021 31.7121C8.60478 32.096 9.27449 32.096 9.68907 31.7121C10.1036 31.3282 10.1036 30.7081 9.68907 30.3242L5.56454 26.4951L9.68907 22.6758C10.1036 22.2919 10.093 21.662 9.68907 21.2879V21.2879Z" fill="#222222"/>
<path d="M23.3109 11.7121C23.7255 12.096 24.3952 12.096 24.8098 11.7121L29.6891 7.19396C30.1036 6.81007 30.1036 6.18993 29.6891 5.80604L24.8098 1.28792C24.3952 0.904028 23.7255 0.904028 23.3109 1.28792C22.8964 1.67181 22.8964 2.29195 23.3109 2.67584L27.4355 6.50492L23.3109 10.3242C22.8964 10.7081 22.907 11.338 23.3109 11.7121V11.7121Z" fill="#2F76EA"/>
<path d="M23.3109 31.7121C23.7255 32.096 24.3952 32.096 24.8098 31.7121L29.6891 27.194C30.1036 26.8101 30.1036 26.1899 29.6891 25.806L24.8098 21.2879C24.3952 20.904 23.7255 20.904 23.3109 21.2879C22.8964 21.6718 22.8964 22.2919 23.3109 22.6758L27.4355 26.5049L23.3109 30.3242C22.8964 30.7081 22.907 31.338 23.3109 31.7121V31.7121Z" fill="#222222"/>
<mask id="path-5-inside-1_826_3108" fill="white">
<path d="M43 5C43 4.44772 43.4477 4 44 4H56C56.5523 4 57 4.44772 57 5V17C57 17.5523 56.5523 18 56 18H44C43.4477 18 43 17.5523 43 17V5Z"/>
</mask>
<path d="M41 3C41 1.34315 42.3431 0 44 0H56C57.6569 0 59 1.34315 59 3L55 8H45L41 3ZM59 17C59 18.6569 57.6569 20 56 20H44C42.3431 20 41 18.6569 41 17L45 16H55L59 17ZM44 20C42.3431 20 41 18.6569 41 17V3C41 1.34315 42.3431 0 44 0L45 8V16L44 20ZM56 0C57.6569 0 59 1.34315 59 3V17C59 18.6569 57.6569 20 56 20L55 16V8L56 0Z" fill="#828BA3" mask="url(#path-5-inside-1_826_3108)"/>
<rect x="46" y="9" width="4" height="4" rx="1" fill="#828BA3"/>
<rect x="53" y="2" width="2" height="3" rx="1" fill="#828BA3"/>
<rect x="45" y="2" width="2" height="3" rx="1" fill="#828BA3"/>
</svg>
