<svg width="100" height="100" viewBox="0 0 100 100" fill="none" xmlns="http://www.w3.org/2000/svg">
<path d="M29.0061 51.1078L35.5212 37.8643L42.0287 51.1078" stroke="#777777" stroke-width="2.4" stroke-linecap="round" stroke-linejoin="round"/>
<path d="M29.0374 53.5996C29.0069 53.8358 28.9917 54.0797 28.9917 54.3235C28.9917 57.9278 31.9178 60.8539 35.5221 60.8539C39.1263 60.8539 42.0524 57.9354 42.0524 54.3235C42.0524 54.0797 42.0372 53.8358 42.0067 53.5996H29.0374Z" stroke="#1768C7" stroke-width="2.4" stroke-linecap="round" stroke-linejoin="round"/>
<path d="M57.9622 51.1078L64.4773 37.8643L70.9848 51.1078" stroke="#777777" stroke-width="2.4" stroke-linecap="round" stroke-linejoin="round"/>
<path d="M57.9932 53.5996C57.9628 53.8358 57.9475 54.0797 57.9475 54.3235C57.9475 57.9278 60.8736 60.8539 64.4779 60.8539C68.0821 60.8539 71.0082 57.9354 71.0082 54.3235C71.0082 54.0797 70.993 53.8358 70.9625 53.5996H57.9932Z" stroke="#1768C7" stroke-width="2.4" stroke-linecap="round" stroke-linejoin="round"/>
<path d="M36.2083 35H63.7851" stroke="#777777" stroke-width="2.4" stroke-linecap="round" stroke-linejoin="round"/>
<path d="M50.0002 35V65" stroke="#777777" stroke-width="2.4" stroke-linecap="round" stroke-linejoin="round"/>
</svg>
