<svg width="101" height="101" viewBox="0 0 101 101" fill="none" xmlns="http://www.w3.org/2000/svg">
<path d="M62.2004 32.5H38.8004C37.4749 32.5 36.4004 33.8157 36.4004 35.4388V65.5612C36.4004 67.1843 37.4749 68.5 38.8004 68.5H62.2004C63.5259 68.5 64.6004 67.1843 64.6004 65.5612V35.4388C64.6004 33.8157 63.5259 32.5 62.2004 32.5Z" stroke="#1768C7" stroke-width="2.4" stroke-linecap="round" stroke-linejoin="round"/>
<path d="M46.8607 41.2692C46.8607 41.6703 46.7418 42.0624 46.5189 42.3959C46.2961 42.7294 45.9793 42.9894 45.6088 43.1428C45.2382 43.2963 44.8304 43.3365 44.437 43.2582C44.0436 43.18 43.6823 42.9869 43.3987 42.7032C43.1151 42.4196 42.9219 42.0583 42.8437 41.6649C42.7654 41.2715 42.8056 40.8637 42.9591 40.4931C43.1126 40.1226 43.3725 39.8058 43.706 39.583C44.0395 39.3602 44.4316 39.2412 44.8327 39.2412C45.0992 39.2404 45.3633 39.2923 45.6097 39.394C45.8561 39.4956 46.08 39.645 46.2685 39.8334C46.457 40.0219 46.6063 40.2458 46.7079 40.4922C46.8096 40.7386 46.8615 41.0027 46.8607 41.2692V41.2692Z" stroke="#777777" stroke-width="2.4" stroke-linecap="round" stroke-linejoin="round"/>
<path d="M51.4258 41.2695H58.1938" stroke="#1768C7" stroke-width="2.4" stroke-linecap="round" stroke-linejoin="round"/>
<path d="M46.8607 50.4937C46.8619 50.895 46.7439 51.2877 46.5218 51.622C46.2997 51.9563 45.9834 52.2172 45.6129 52.3716C45.2425 52.526 44.8345 52.567 44.4407 52.4894C44.0469 52.4119 43.685 52.2192 43.4008 51.9358C43.1166 51.6524 42.9228 51.2911 42.8441 50.8975C42.7654 50.504 42.8052 50.0959 42.9585 49.725C43.1118 49.3541 43.3717 49.037 43.7054 48.8139C44.039 48.5908 44.4313 48.4717 44.8327 48.4717C45.3695 48.4717 45.8844 48.6845 46.2646 49.0635C46.6447 49.4426 46.8591 49.9569 46.8607 50.4937V50.4937Z" stroke="#777777" stroke-width="2.4" stroke-linecap="round" stroke-linejoin="round"/>
<path d="M51.4258 50.5H58.1938" stroke="#1768C7" stroke-width="2.4" stroke-linecap="round" stroke-linejoin="round"/>
<path d="M46.8607 59.4741C46.8619 59.8755 46.7439 60.2682 46.5218 60.6025C46.2997 60.9368 45.9834 61.1976 45.6129 61.352C45.2425 61.5065 44.8345 61.5475 44.4407 61.4699C44.0469 61.3923 43.685 61.1997 43.4008 60.9163C43.1166 60.6329 42.9228 60.2716 42.8441 59.878C42.7654 59.4844 42.8052 59.0764 42.9585 58.7055C43.1118 58.3345 43.3717 58.0175 43.7054 57.7944C44.039 57.5712 44.4313 57.4522 44.8327 57.4521C45.3695 57.4521 45.8844 57.665 46.2646 58.044C46.6447 58.423 46.8591 58.9373 46.8607 59.4741V59.4741Z" stroke="#777777" stroke-width="2.4" stroke-linecap="round" stroke-linejoin="round"/>
<path d="M51.4258 59.4805H58.1938" stroke="#1768C7" stroke-width="2.4" stroke-linecap="round" stroke-linejoin="round"/>
</svg>
