<svg width="90" height="90" viewBox="0 0 90 90" fill="none" xmlns="http://www.w3.org/2000/svg">
<path d="M59.3262 27H30.6732C29.0501 27 27.7344 28.3157 27.7344 29.9388V60.0612C27.7344 61.6843 29.0501 63 30.6732 63H59.3262C60.9493 63 62.265 61.6843 62.265 60.0612V29.9388C62.265 28.3157 60.9493 27 59.3262 27Z" stroke="#777777" stroke-width="2.4" stroke-linecap="round" stroke-linejoin="round"/>
<path d="M40.9079 40.4305C40.9079 40.9217 40.7623 41.4018 40.4894 41.8102C40.2166 42.2185 39.8287 42.5368 39.375 42.7248C38.9212 42.9127 38.4219 42.9619 37.9402 42.8661C37.4585 42.7703 37.016 42.5338 36.6687 42.1865C36.3215 41.8392 36.0849 41.3967 35.9891 40.915C35.8933 40.4333 35.9425 39.934 36.1304 39.4802C36.3184 39.0265 36.6367 38.6387 37.045 38.3658C37.4534 38.0929 37.9335 37.9473 38.4247 37.9473C38.7511 37.9463 39.0744 38.0099 39.3761 38.1343C39.6778 38.2588 39.952 38.4417 40.1828 38.6724C40.4136 38.9032 40.5964 39.1774 40.7209 39.4791C40.8453 39.7808 40.9089 40.1042 40.9079 40.4305V40.4305Z" stroke="#1768C7" stroke-width="2.4" stroke-linecap="round" stroke-linejoin="round"/>
<path d="M46.498 40.4297H54.7854" stroke="#777777" stroke-width="2.4" stroke-linecap="round" stroke-linejoin="round"/>
<path d="M40.9079 49.5619C40.9094 50.0533 40.765 50.5341 40.493 50.9435C40.221 51.3528 39.8337 51.6722 39.3801 51.8613C38.9264 52.0504 38.4269 52.1006 37.9447 52.0056C37.4625 51.9107 37.0194 51.6747 36.6713 51.3277C36.3233 50.9807 36.0861 50.5383 35.9897 50.0564C35.8932 49.5745 35.942 49.0748 36.1297 48.6206C36.3175 48.1664 36.6357 47.7782 37.0443 47.505C37.4528 47.2318 37.9332 47.0859 38.4247 47.0859C39.082 47.0859 39.7125 47.3466 40.178 47.8107C40.6435 48.2748 40.906 48.9045 40.9079 49.5619V49.5619Z" stroke="#1768C7" stroke-width="2.4" stroke-linecap="round" stroke-linejoin="round"/>
<path d="M46.498 49.5703H54.7854" stroke="#777777" stroke-width="2.4" stroke-linecap="round" stroke-linejoin="round"/>
</svg>
