<svg width="90" height="90" viewBox="0 0 90 90" fill="none" xmlns="http://www.w3.org/2000/svg">
<path d="M33.5699 48.4395L28 57.2326H39.1379L33.5699 48.4395Z" stroke="#777777" stroke-width="2" stroke-linejoin="round"/>
<path d="M55.8444 48.4395L50.2754 57.2326H61.4133L55.8444 48.4395Z" stroke="#777777" stroke-width="2" stroke-linejoin="round"/>
<path d="M62.0012 32.5392L56.4322 23.7461L50.8633 32.5392H62.0012Z" stroke="#1768C7" stroke-width="2" stroke-linejoin="round"/>
<path d="M50.8633 32.5391L56.4329 41.3322L62.0012 32.5391H50.8633Z" stroke="#1768C7" stroke-width="2" stroke-linejoin="round"/>
<path d="M44.7063 48.4374L39.1379 57.2327L33.5684 48.4374L39.1379 39.6465L44.7063 48.4374Z" stroke="#777777" stroke-width="2" stroke-linejoin="round"/>
<path d="M44.707 48.4374L50.276 57.2327L55.845 48.4374L50.276 39.6465L44.707 48.4374Z" stroke="#777777" stroke-width="2" stroke-linejoin="round"/>
<path d="M39.1367 39.6453L44.7051 48.4397L50.2746 39.6453L44.7051 30.8535L39.1367 39.6453Z" stroke="#777777" stroke-width="2" stroke-linejoin="round"/>
</svg>
