<svg width="32" height="32" viewBox="0 0 32 32" fill="none" xmlns="http://www.w3.org/2000/svg">
<path d="M16 28C13.6266 28 11.3066 27.2962 9.33316 25.9776C7.35977 24.6591 5.8217 22.7849 4.91345 20.5922C4.0052 18.3995 3.76756 15.9867 4.23058 13.6589C4.69361 11.3312 5.83649 9.19295 7.51472 7.51472C9.19295 5.83649 11.3312 4.69361 13.6589 4.23058C15.9867 3.76756 18.3995 4.0052 20.5922 4.91345C22.7849 5.8217 24.6591 7.35977 25.9776 9.33316C27.2962 11.3066 28 13.6266 28 16C27.9963 19.1815 26.7309 22.2316 24.4812 24.4812C22.2316 26.7309 19.1815 27.9963 16 28ZM16 5.38729C13.901 5.38729 11.8492 6.00972 10.1039 7.17586C8.35865 8.342 6.99839 9.99948 6.19514 11.9387C5.39188 13.8779 5.18172 16.0118 5.59122 18.0704C6.00071 20.1291 7.01147 22.0201 8.49568 23.5043C9.9799 24.9885 11.8709 25.9993 13.9296 26.4088C15.9882 26.8183 18.1221 26.6081 20.0613 25.8049C22.0005 25.0016 23.658 23.6414 24.8242 21.8961C25.9903 20.1509 26.6127 18.099 26.6127 16C26.6091 13.1865 25.4898 10.4892 23.5003 8.49973C21.5108 6.51026 18.8136 5.39096 16 5.38729V5.38729Z" fill="#20335B"/>
<path d="M15.9999 21.6436C15.8374 21.6429 15.6803 21.5852 15.5559 21.4806L9.50045 16.3927C9.37663 16.2889 9.29293 16.1451 9.26381 15.9862C9.23468 15.8273 9.26195 15.6632 9.34091 15.5222L11.6507 11.4054C11.7119 11.2996 11.7999 11.2118 11.9058 11.1509C12.0118 11.09 12.132 11.0581 12.2542 11.0586H19.7386C19.8614 11.0575 19.9823 11.089 20.0889 11.15C20.1956 11.2109 20.2841 11.2991 20.3455 11.4054L22.6588 15.5222C22.7378 15.6632 22.7651 15.8273 22.7359 15.9862C22.7068 16.1451 22.6231 16.2889 22.4993 16.3927L16.4438 21.4806C16.3195 21.5852 16.1624 21.6429 15.9999 21.6436ZM10.8322 15.6991L15.9999 20.0448L21.171 15.6991L19.3363 12.439H12.6635L10.8322 15.6991Z" fill="#4493F1"/>
<path d="M10.4885 15.8125L12.8635 12H19.301L21.426 15.8125L15.8635 20.4375L10.4885 15.8125Z" fill="#4493F1"/>
</svg>
