<svg width="330" height="200" viewBox="0 0 330 200" fill="none" xmlns="http://www.w3.org/2000/svg">
<path d="M125.796 124.967C125.796 125.664 125.75 126.452 125.644 127.3C125.538 128.148 125.387 129.057 125.19 130.026L127.871 130.36C127.962 129.951 128.053 129.511 128.128 129.027C128.204 128.542 128.28 128.057 128.34 127.542C128.401 127.027 128.431 126.512 128.461 126.013C128.492 125.513 128.507 125.028 128.507 124.589V121.529H115.996V123.877H125.796V124.967V124.967Z" fill="#101820"/>
<path d="M132.399 137.721C131.702 137.327 130.869 137.009 129.9 136.782C128.93 136.555 127.825 136.434 126.613 136.434C125.401 136.434 124.296 136.555 123.311 136.782C122.327 137.009 121.493 137.327 120.797 137.721C120.1 138.115 119.57 138.6 119.206 139.16C118.843 139.72 118.661 140.341 118.661 140.993V141.871C118.661 142.538 118.843 143.143 119.206 143.704C119.57 144.264 120.1 144.749 120.797 145.143C121.493 145.536 122.327 145.855 123.311 146.082C124.296 146.309 125.401 146.43 126.613 146.43C127.825 146.43 128.915 146.309 129.9 146.082C130.884 145.855 131.717 145.536 132.399 145.143C133.096 144.749 133.626 144.264 134.004 143.704C134.383 143.143 134.565 142.538 134.565 141.871V140.993C134.565 140.326 134.383 139.72 134.004 139.16C133.626 138.584 133.096 138.115 132.399 137.721ZM131.884 141.704C131.884 141.977 131.763 142.265 131.535 142.568C131.308 142.871 130.96 143.143 130.521 143.401C130.066 143.643 129.521 143.855 128.87 144.007C128.218 144.158 127.461 144.234 126.613 144.234C125.765 144.234 125.007 144.158 124.356 144.007C123.705 143.855 123.144 143.643 122.705 143.401C122.251 143.159 121.918 142.871 121.675 142.568C121.448 142.265 121.327 141.977 121.327 141.704V141.159C121.327 140.887 121.448 140.599 121.675 140.296C121.902 139.993 122.251 139.72 122.705 139.463C123.16 139.221 123.705 139.008 124.356 138.857C125.007 138.706 125.765 138.615 126.613 138.615C127.461 138.615 128.203 138.69 128.87 138.857C129.521 139.008 130.081 139.221 130.521 139.463C130.975 139.705 131.308 139.993 131.535 140.296C131.763 140.599 131.884 140.887 131.884 141.159V141.704Z" fill="#101820"/>
<path d="M134.535 120.348H131.839V135.736H134.535V129.39H138.14V127.012H134.535V120.348Z" fill="#101820"/>
<path d="M130.491 132.373H122.161L122.146 127.117H119.434V132.373H114.27V134.721H130.491V132.373Z" fill="#101820"/>
<path d="M177.93 124.967C177.93 125.664 177.885 126.452 177.779 127.3C177.673 128.148 177.522 129.057 177.325 130.026L180.006 130.36C180.096 129.951 180.187 129.511 180.263 129.027C180.339 128.542 180.414 128.057 180.475 127.542C180.536 127.027 180.566 126.512 180.596 126.013C180.627 125.513 180.642 125.028 180.642 124.589V121.529H168.131V123.877H177.93V124.967Z" fill="#101820"/>
<path d="M184.548 137.721C183.851 137.327 183.018 137.009 182.049 136.782C181.08 136.555 179.974 136.434 178.762 136.434C177.551 136.434 176.445 136.555 175.46 136.782C174.476 137.009 173.643 137.327 172.946 137.721C172.249 138.115 171.719 138.6 171.356 139.16C170.992 139.72 170.811 140.341 170.811 140.993V141.871C170.811 142.538 170.992 143.143 171.356 143.704C171.719 144.264 172.249 144.749 172.946 145.143C173.628 145.536 174.476 145.855 175.46 146.082C176.445 146.309 177.551 146.43 178.762 146.43C179.974 146.43 181.065 146.309 182.049 146.082C183.018 145.855 183.867 145.536 184.548 145.143C185.245 144.749 185.775 144.264 186.154 143.704C186.532 143.143 186.714 142.538 186.714 141.871V140.993C186.714 140.326 186.532 139.72 186.154 139.16C185.76 138.584 185.23 138.115 184.548 137.721ZM184.033 141.704C184.033 141.977 183.912 142.265 183.685 142.568C183.458 142.871 183.109 143.143 182.67 143.401C182.216 143.643 181.67 143.855 181.019 144.007C180.368 144.158 179.611 144.234 178.762 144.234C177.914 144.234 177.157 144.158 176.506 144.007C175.854 143.855 175.294 143.643 174.855 143.401C174.4 143.159 174.067 142.871 173.825 142.568C173.597 142.265 173.476 141.977 173.476 141.704V141.159C173.476 140.887 173.597 140.599 173.825 140.296C174.052 139.993 174.4 139.72 174.855 139.463C175.309 139.221 175.854 139.008 176.506 138.857C177.157 138.706 177.914 138.615 178.762 138.615C179.611 138.615 180.353 138.69 181.019 138.857C181.67 139.008 182.231 139.221 182.67 139.463C183.124 139.705 183.458 139.993 183.685 140.296C183.912 140.599 184.033 140.887 184.033 141.159V141.704Z" fill="#101820"/>
<path d="M186.686 120.348H183.975V135.736H186.686V129.39H190.275V127.012H186.686V120.348Z" fill="#101820"/>
<path d="M182.626 132.373H174.295L174.28 127.117H171.569V132.373H166.404V134.721H182.626V132.373Z" fill="#101820"/>
<path d="M83.7966 120.348H81.1006V138.826H83.7966V130.299H87.4166V127.921H83.7966V120.348Z" fill="#101820"/>
<path d="M70.9832 138.492H68.2568V145.535H84.4936V143.172H70.9832V138.492Z" fill="#101820"/>
<path d="M71.3153 136.675C72.3149 136.675 73.1783 136.539 73.9053 136.282C74.6474 136.009 75.2533 135.661 75.7531 135.221C76.2529 134.782 76.6164 134.282 76.8739 133.722C77.1163 133.161 77.2526 132.586 77.2526 131.995V131.147C77.2526 130.556 77.1314 129.981 76.8739 129.42C76.6316 128.86 76.2529 128.36 75.7531 127.921C75.2533 127.482 74.6323 127.118 73.9053 126.861C73.1631 126.588 72.2998 126.467 71.3153 126.467C70.3156 126.467 69.4523 126.603 68.7253 126.861C67.9831 127.133 67.3772 127.482 66.8774 127.906C66.3776 128.33 66.0141 128.83 65.7566 129.39C65.5142 129.95 65.3779 130.541 65.3779 131.147V131.98C65.3779 132.571 65.4991 133.146 65.7566 133.707C65.9989 134.267 66.3776 134.767 66.8774 135.206C67.3772 135.645 67.9982 136.009 68.7253 136.266C69.4523 136.539 70.3308 136.675 71.3153 136.675ZM67.9831 131.844V131.298C67.9831 130.965 68.0588 130.647 68.1951 130.314C68.3314 129.996 68.5435 129.708 68.8161 129.451C69.0888 129.208 69.4371 129.011 69.8461 128.86C70.255 128.708 70.7548 128.633 71.3304 128.633C71.906 128.633 72.3906 128.708 72.8147 128.86C73.2237 129.011 73.5721 129.208 73.8447 129.451C74.1173 129.693 74.3294 129.981 74.4657 130.314C74.602 130.632 74.6777 130.965 74.6777 131.298V131.859C74.6777 132.192 74.602 132.51 74.4657 132.843C74.3294 133.161 74.1173 133.449 73.8447 133.707C73.5721 133.949 73.2237 134.161 72.7996 134.297C72.3755 134.449 71.8908 134.525 71.3304 134.525C70.7851 134.525 70.2853 134.449 69.8612 134.297C69.4371 134.146 69.0888 133.949 68.8161 133.707C68.5435 133.464 68.3314 133.177 68.1951 132.843C68.0437 132.495 67.9831 132.177 67.9831 131.844Z" fill="#101820"/>
<path d="M78.6161 123.165H72.6788V120.105H69.9676V123.165H64V125.498H78.6161V123.165Z" fill="#101820"/>
<path d="M108.303 127.468C108.394 126.483 108.439 125.605 108.439 124.832V121.379H91.6723V123.696H105.667V124.726C105.667 125.559 105.622 126.453 105.531 127.422C105.44 128.392 105.274 129.391 105.031 130.421H88.5977V132.739H98.8214V137.161H91.6118V139.479H105.97V146.082H108.712V137.161H101.593V132.739H111.983V130.421H107.894C108.061 129.437 108.197 128.452 108.303 127.468Z" fill="#101820"/>
<path d="M151.107 129.693C150.607 129.239 150.016 128.875 149.319 128.603C148.623 128.33 147.865 128.209 147.017 128.209C146.169 128.209 145.397 128.345 144.715 128.603C144.018 128.875 143.428 129.239 142.928 129.693C142.428 130.148 142.049 130.678 141.777 131.269C141.504 131.859 141.383 132.48 141.383 133.147V134.48C141.383 135.146 141.519 135.767 141.777 136.358C142.049 136.948 142.428 137.478 142.928 137.933C143.428 138.387 144.018 138.751 144.715 139.023C145.412 139.296 146.169 139.417 147.017 139.417C147.865 139.417 148.638 139.281 149.319 139.023C150.001 138.766 150.607 138.387 151.107 137.933C151.607 137.478 151.985 136.948 152.258 136.358C152.53 135.767 152.652 135.146 152.652 134.48V133.147C152.652 132.48 152.515 131.859 152.258 131.269C151.985 130.678 151.607 130.148 151.107 129.693ZM150.198 134.328C150.198 134.661 150.137 134.995 149.986 135.328C149.85 135.661 149.638 135.964 149.38 136.237C149.107 136.509 148.774 136.736 148.38 136.918C147.987 137.1 147.532 137.176 147.017 137.176C146.502 137.176 146.048 137.085 145.654 136.918C145.26 136.736 144.927 136.524 144.654 136.237C144.382 135.964 144.185 135.661 144.049 135.328C143.912 134.995 143.837 134.661 143.837 134.328V133.283C143.837 132.95 143.912 132.617 144.049 132.283C144.185 131.95 144.382 131.647 144.654 131.375C144.927 131.102 145.245 130.875 145.654 130.693C146.048 130.511 146.502 130.435 147.017 130.435C147.532 130.435 147.987 130.526 148.38 130.693C148.774 130.875 149.107 131.087 149.38 131.375C149.653 131.647 149.85 131.95 149.986 132.283C150.122 132.617 150.198 132.95 150.198 133.283V134.328Z" fill="#101820"/>
<path d="M148.273 121.074H145.593V124.634H140.488V126.921H153.075V124.634H148.273V121.074Z" fill="#101820"/>
<path d="M160.119 129.799H157.378V120.348H154.712V145.824H157.378V132.177H160.119V145.824H162.8V120.348H160.119V129.799Z" fill="#101820"/>
<path d="M210.086 137.872H199.62V134.631H196.909V145.824H212.798V134.631H210.086V137.872V137.872ZM210.086 143.507H199.62V140.159H210.086V143.507Z" fill="#101820"/>
<path d="M210.086 125.875H204.921C204.83 125.284 204.633 124.709 204.33 124.164C204.027 123.618 203.618 123.118 203.088 122.694C202.558 122.255 201.937 121.907 201.195 121.649C200.453 121.377 199.605 121.255 198.65 121.255C197.605 121.255 196.681 121.407 195.894 121.725C195.106 122.043 194.44 122.452 193.925 122.952C193.395 123.452 193.001 124.027 192.743 124.663C192.471 125.299 192.35 125.936 192.35 126.587V127.632C192.35 128.283 192.486 128.919 192.743 129.556C193.016 130.192 193.41 130.767 193.925 131.267C194.455 131.767 195.106 132.176 195.894 132.494C196.681 132.812 197.605 132.963 198.65 132.963C199.605 132.963 200.453 132.827 201.21 132.57C201.952 132.297 202.588 131.949 203.119 131.509C203.649 131.07 204.058 130.555 204.361 129.995C204.664 129.419 204.86 128.844 204.921 128.253H210.086V133.418H212.797V120.377H210.086V125.875ZM202.346 127.481C202.346 127.874 202.27 128.253 202.104 128.617C201.937 128.98 201.695 129.313 201.392 129.616C201.074 129.904 200.695 130.146 200.226 130.328C199.771 130.51 199.241 130.601 198.65 130.601C198.06 130.601 197.53 130.51 197.075 130.328C196.621 130.146 196.227 129.904 195.909 129.616C195.591 129.328 195.364 128.995 195.197 128.617C195.031 128.253 194.955 127.874 194.955 127.481V126.708C194.955 126.314 195.031 125.951 195.197 125.572C195.364 125.209 195.606 124.875 195.909 124.588C196.227 124.3 196.606 124.073 197.075 123.876C197.53 123.694 198.06 123.603 198.65 123.603C199.241 123.603 199.756 123.694 200.226 123.876C200.68 124.057 201.074 124.3 201.392 124.588C201.71 124.875 201.952 125.193 202.104 125.572C202.27 125.936 202.346 126.314 202.346 126.708V127.481Z" fill="#101820"/>
<path d="M233.155 137.447C232.443 137.038 231.595 136.735 230.625 136.523C229.656 136.311 228.611 136.205 227.49 136.205C226.369 136.205 225.324 136.311 224.355 136.523C223.385 136.735 222.552 137.038 221.825 137.447C221.113 137.856 220.538 138.341 220.144 138.916C219.735 139.492 219.538 140.143 219.538 140.87V141.87C219.538 142.612 219.735 143.263 220.144 143.839C220.553 144.414 221.113 144.914 221.825 145.308C222.537 145.702 223.385 146.005 224.355 146.217C225.324 146.429 226.369 146.535 227.49 146.535C228.611 146.535 229.656 146.429 230.625 146.217C231.595 146.005 232.428 145.702 233.155 145.308C233.866 144.914 234.427 144.429 234.836 143.839C235.245 143.263 235.442 142.597 235.442 141.87V140.87C235.442 140.128 235.245 139.477 234.836 138.916C234.427 138.341 233.866 137.856 233.155 137.447ZM232.73 141.703C232.73 142.067 232.594 142.415 232.322 142.733C232.049 143.051 231.67 143.324 231.201 143.551C230.731 143.778 230.171 143.96 229.55 144.096C228.914 144.233 228.232 144.308 227.49 144.308C226.748 144.308 226.066 144.233 225.43 144.096C224.794 143.96 224.249 143.778 223.779 143.551C223.309 143.324 222.931 143.051 222.658 142.733C222.386 142.415 222.249 142.082 222.249 141.703V141.037C222.249 140.688 222.386 140.355 222.658 140.022C222.931 139.704 223.309 139.431 223.779 139.189C224.249 138.962 224.809 138.78 225.43 138.644C226.066 138.507 226.748 138.432 227.49 138.432C228.232 138.432 228.914 138.507 229.55 138.644C230.186 138.78 230.731 138.962 231.201 139.189C231.67 139.416 232.049 139.689 232.322 140.022C232.594 140.34 232.73 140.673 232.73 141.037V141.703Z" fill="#101820"/>
<path d="M232.926 124.634C232.926 125.391 232.881 126.239 232.79 127.194C232.699 128.148 232.533 129.147 232.29 130.193L235.001 130.495C235.107 129.996 235.213 129.466 235.304 128.905C235.395 128.345 235.471 127.799 235.531 127.269C235.592 126.739 235.622 126.239 235.653 125.77C235.683 125.3 235.698 124.922 235.698 124.619V121.393H218.886V123.71H232.941V124.634H232.926Z" fill="#101820"/>
<path d="M227.461 127.072H224.704V132.071H215.813V134.388H239.169V132.071H227.461V127.072Z" fill="#101820"/>
<path d="M261.098 126.982V120.348H258.387V138.523H261.098V129.36H264.718V126.982H261.098Z" fill="#101820"/>
<path d="M248.285 137.1H245.559V145.536H261.795V143.173H248.285V137.1Z" fill="#101820"/>
<path d="M256.342 132.04H244.846L244.862 124.361H253.98V122.014H242.181V134.388H256.342V132.04Z" fill="#101820"/>
<path d="M164.359 87.2713L153.317 104.038L142.275 87.2713L153.317 70.5195L164.359 87.2713Z" fill="#0082CB"/>
<path d="M164.36 87.2713L175.402 104.038L186.444 87.2713L175.402 70.5195L164.36 87.2713Z" fill="#0082CB"/>
<path d="M153.317 70.5189L164.359 87.2706L175.401 70.5189L164.359 53.752L153.317 70.5189Z" fill="#0082CB"/>
<path d="M142.276 87.2695L131.234 104.021H153.318L142.276 87.2695Z" fill="#0082CB"/>
<path d="M186.443 87.2695L175.401 104.021H197.485L186.443 87.2695Z" fill="#0082CB"/>
<path d="M164.359 87.2713L153.317 104.038L142.275 87.2713L153.317 70.5195L164.359 87.2713Z" fill="#00A0D8"/>
<path d="M164.36 87.2713L175.402 104.038L186.444 87.2713L175.402 70.5195L164.36 87.2713Z" fill="#00A0D8"/>
<path d="M153.317 70.5189L164.359 87.2706L175.401 70.5189L164.359 53.752L153.317 70.5189Z" fill="#62B9E3"/>
<path d="M142.276 87.2695L131.234 104.021H153.318L142.276 87.2695Z" fill="#0082CB"/>
<path d="M186.443 87.2695L175.401 104.021H197.485L186.443 87.2695Z" fill="#0082CB"/>
<path d="M197.483 53.7518L186.441 37L175.399 53.7518H197.483Z" fill="#62B9E3"/>
<path d="M175.399 53.7676L186.441 70.5193L197.483 53.7676H175.399Z" fill="#00A0D8"/>
<path d="M85.7017 158.879L87.7464 161.59H86.9134L85.2625 159.349L84.7323 159.909V161.575H84.0811V156.789H84.7323V159.076L86.8377 156.789H87.6404L85.7017 158.879Z" fill="black"/>
<path d="M89.397 157.895C89.8968 157.895 90.2906 158.046 90.5784 158.334C90.8662 158.622 91.0177 159.03 91.0177 159.561V160C91.0177 160.53 90.8662 160.939 90.5784 161.227C90.2906 161.514 89.8968 161.666 89.397 161.666C88.8972 161.666 88.5034 161.514 88.2156 161.227C87.9278 160.939 87.7764 160.53 87.7764 160V159.561C87.7764 159.03 87.9278 158.622 88.2156 158.334C88.5034 158.046 88.8972 157.895 89.397 157.895ZM89.397 161.09C89.6848 161.09 89.912 161 90.0937 160.803C90.2755 160.621 90.3664 160.333 90.3664 159.939V159.606C90.3664 159.227 90.2755 158.94 90.0937 158.743C89.912 158.546 89.6848 158.455 89.397 158.455C89.1092 158.455 88.882 158.546 88.7003 158.743C88.5185 158.924 88.4277 159.212 88.4277 159.606V159.939C88.4277 160.318 88.5185 160.606 88.7003 160.803C88.882 161 89.1092 161.09 89.397 161.09Z" fill="black"/>
<path d="M93.6839 158.591C93.6233 158.561 93.5627 158.546 93.487 158.531C93.4112 158.516 93.3355 158.5 93.2446 158.5C93.1235 158.5 93.0174 158.531 92.8963 158.576C92.7902 158.622 92.6994 158.682 92.6085 158.773C92.5328 158.864 92.457 158.97 92.4116 159.076C92.3662 159.197 92.3359 159.333 92.3359 159.47V161.59H91.6846V157.955H92.3207V158.531C92.4267 158.334 92.5631 158.167 92.7297 158.061C92.8963 157.94 93.1235 157.895 93.3809 157.895C93.5476 157.895 93.699 157.925 93.8505 157.97L93.6839 158.591Z" fill="black"/>
<path d="M97.1205 161.258C96.9539 161.364 96.7722 161.455 96.545 161.546C96.3178 161.621 96.0451 161.667 95.7119 161.667C95.4847 161.667 95.2727 161.637 95.0909 161.576C94.894 161.515 94.7274 161.409 94.5911 161.273C94.4396 161.137 94.3336 160.97 94.2579 160.758C94.1822 160.546 94.1367 160.289 94.1367 160.001V159.592C94.1367 159.319 94.1822 159.077 94.2579 158.865C94.3336 158.653 94.4396 158.486 94.5911 158.35C94.7274 158.214 94.894 158.108 95.0909 158.032C95.2878 157.956 95.4847 157.926 95.7119 157.926C96.1815 157.926 96.545 158.062 96.8176 158.35C97.0902 158.638 97.2266 159.031 97.2266 159.562V160.046H94.7729V160.077C94.7729 160.425 94.8637 160.682 95.0455 160.864C95.2272 161.046 95.4696 161.137 95.7574 161.137C95.9997 161.137 96.1966 161.106 96.3784 161.046C96.545 160.985 96.7116 160.91 96.863 160.804L97.1205 161.258ZM95.6816 158.441C95.5453 158.441 95.4242 158.471 95.3181 158.516C95.197 158.562 95.1061 158.623 95.0303 158.713C94.9546 158.789 94.8789 158.895 94.8334 159.016C94.788 159.137 94.7577 159.259 94.7577 159.395V159.486H96.5753V159.365C96.5753 159.092 96.4995 158.865 96.3329 158.698C96.1815 158.532 95.9543 158.441 95.6816 158.441Z" fill="black"/>
<path d="M98.8489 161.651C98.4854 161.651 98.1825 161.56 97.9704 161.378C97.7584 161.196 97.6523 160.939 97.6523 160.621V160.439C97.6523 160.136 97.7584 159.879 97.9704 159.682C98.1825 159.485 98.5157 159.394 98.9852 159.394H99.9091V159.182C99.9091 158.94 99.8486 158.758 99.7274 158.637C99.6062 158.516 99.4245 158.455 99.1518 158.455C98.9398 158.455 98.758 158.485 98.5914 158.561C98.44 158.622 98.2733 158.712 98.1067 158.834L97.7887 158.349C97.9704 158.228 98.1673 158.122 98.3794 158.031C98.6066 157.94 98.864 157.895 99.1518 157.895C99.3487 157.895 99.5456 157.925 99.7122 157.97C99.8788 158.016 100.03 158.091 100.151 158.197C100.273 158.303 100.364 158.425 100.439 158.561C100.515 158.697 100.545 158.864 100.545 159.046V161.59H99.9243V161.151C99.894 161.212 99.8334 161.272 99.788 161.333C99.7274 161.393 99.6668 161.439 99.5911 161.469C99.5002 161.53 99.3942 161.56 99.273 161.59C99.1367 161.636 99.0004 161.651 98.8489 161.651ZM99.894 159.939H98.9852C98.7277 159.939 98.546 159.985 98.4399 160.091C98.3339 160.182 98.2733 160.318 98.2733 160.5V160.591C98.2733 160.772 98.3339 160.893 98.4551 160.969C98.5763 161.045 98.7277 161.09 98.8943 161.09C99.0609 161.09 99.1973 161.075 99.3033 161.03C99.4245 161 99.5305 160.939 99.6214 160.863C99.7122 160.803 99.7728 160.727 99.8183 160.636C99.8486 160.545 99.8788 160.439 99.8788 160.303V159.939H99.894Z" fill="black"/>
<path d="M103.77 158.138C103.755 158.093 103.725 158.047 103.709 158.002C103.694 157.956 103.679 157.911 103.649 157.865C103.634 157.82 103.619 157.759 103.588 157.699C103.573 157.638 103.543 157.562 103.513 157.487V161.607H102.892V156.82H103.861L105.194 159.956L106.496 156.82H107.466V161.607H106.83V157.487C106.814 157.578 106.784 157.653 106.769 157.714C106.754 157.775 106.739 157.835 106.708 157.881C106.693 157.926 106.678 157.971 106.663 158.017C106.648 158.062 106.633 158.108 106.602 158.153L105.466 160.804H104.891L103.77 158.138Z" fill="black"/>
<path d="M109.042 156.654V157.366H108.346V156.654H109.042ZM109.027 157.957V161.592H108.376V157.957H109.027Z" fill="black"/>
<path d="M112.905 161.592H112.253V159.335C112.253 159.032 112.193 158.805 112.057 158.668C111.935 158.532 111.723 158.456 111.466 158.456C111.36 158.456 111.239 158.472 111.133 158.517C111.027 158.547 110.921 158.608 110.845 158.684C110.754 158.759 110.693 158.85 110.633 158.956C110.572 159.062 110.542 159.199 110.542 159.335V161.592H109.891V157.957H110.527V158.411C110.633 158.244 110.784 158.108 110.966 158.017C111.148 157.926 111.36 157.881 111.617 157.881C111.799 157.881 111.966 157.911 112.117 157.957C112.269 158.017 112.405 158.093 112.526 158.199C112.647 158.305 112.738 158.441 112.799 158.608C112.859 158.774 112.905 158.956 112.905 159.183V161.592Z" fill="black"/>
<path d="M116.525 161.258C116.358 161.364 116.176 161.455 115.949 161.546C115.722 161.621 115.449 161.667 115.116 161.667C114.889 161.667 114.677 161.637 114.495 161.576C114.298 161.515 114.132 161.409 113.995 161.273C113.844 161.137 113.738 160.97 113.662 160.758C113.586 160.546 113.541 160.289 113.541 160.001V159.592C113.541 159.319 113.586 159.077 113.662 158.865C113.738 158.653 113.844 158.486 113.995 158.35C114.132 158.214 114.298 158.108 114.495 158.032C114.692 157.956 114.889 157.926 115.116 157.926C115.586 157.926 115.949 158.062 116.222 158.35C116.495 158.638 116.631 159.031 116.631 159.562V160.046H114.177V160.077C114.177 160.425 114.268 160.682 114.45 160.864C114.632 161.046 114.874 161.137 115.162 161.137C115.404 161.137 115.601 161.106 115.783 161.046C115.949 160.985 116.116 160.91 116.267 160.804L116.525 161.258ZM115.101 158.441C114.965 158.441 114.844 158.471 114.738 158.516C114.616 158.562 114.526 158.623 114.45 158.713C114.374 158.804 114.298 158.895 114.253 159.016C114.207 159.137 114.177 159.259 114.177 159.395V159.486H115.995V159.365C115.995 159.092 115.919 158.865 115.752 158.698C115.601 158.532 115.374 158.441 115.101 158.441Z" fill="black"/>
<path d="M119.417 161.591H118.766V156.805H120.492C120.735 156.805 120.947 156.835 121.144 156.911C121.34 156.971 121.492 157.062 121.628 157.183C121.749 157.305 121.855 157.441 121.916 157.592C121.992 157.759 122.022 157.926 122.022 158.122V158.289C122.022 158.562 121.946 158.804 121.81 159.001C121.674 159.213 121.477 159.364 121.219 159.47L122.174 161.591H121.462L120.598 159.592H120.492H119.417V161.591V161.591ZM119.417 159.031H120.341C120.719 159.031 120.977 158.955 121.144 158.819C121.295 158.683 121.386 158.486 121.386 158.259V158.122C121.386 157.895 121.31 157.698 121.159 157.562C121.007 157.426 120.765 157.35 120.432 157.35H119.447V159.031H119.417Z" fill="black"/>
<path d="M125.672 161.258C125.506 161.364 125.324 161.455 125.097 161.546C124.87 161.621 124.597 161.667 124.264 161.667C124.036 161.667 123.824 161.637 123.643 161.576C123.446 161.515 123.279 161.409 123.143 161.273C122.991 161.137 122.885 160.97 122.81 160.758C122.734 160.546 122.688 160.289 122.688 160.001V159.592C122.688 159.319 122.734 159.077 122.81 158.865C122.885 158.653 122.991 158.486 123.143 158.35C123.279 158.214 123.446 158.108 123.643 158.032C123.84 157.956 124.036 157.926 124.264 157.926C124.733 157.926 125.097 158.062 125.369 158.35C125.642 158.638 125.778 159.031 125.778 159.562V160.046H123.325V160.077C123.325 160.425 123.415 160.682 123.597 160.864C123.779 161.046 124.021 161.137 124.309 161.137C124.551 161.137 124.748 161.106 124.93 161.046C125.097 160.985 125.263 160.91 125.415 160.804L125.672 161.258ZM124.233 158.441C124.097 158.441 123.976 158.471 123.87 158.516C123.749 158.562 123.658 158.623 123.582 158.713C123.506 158.789 123.431 158.895 123.385 159.016C123.34 159.137 123.309 159.259 123.309 159.395V159.486H125.127V159.365C125.127 159.092 125.051 158.865 124.885 158.698C124.733 158.532 124.521 158.441 124.233 158.441Z" fill="black"/>
<path d="M129.4 161.591H128.749V159.334C128.749 159.031 128.688 158.804 128.552 158.668C128.43 158.532 128.218 158.456 127.961 158.456C127.855 158.456 127.734 158.471 127.628 158.516C127.522 158.547 127.416 158.607 127.34 158.683C127.249 158.759 127.188 158.85 127.128 158.956C127.067 159.062 127.037 159.198 127.037 159.334V161.591H126.386V156.562H127.037V158.395C127.143 158.229 127.295 158.107 127.476 158.017C127.658 157.926 127.87 157.88 128.112 157.88C128.294 157.88 128.461 157.911 128.612 157.956C128.764 158.017 128.9 158.092 129.021 158.198C129.142 158.304 129.233 158.441 129.294 158.607C129.354 158.774 129.4 158.956 129.4 159.183V161.591Z" fill="black"/>
<path d="M131.216 161.651C130.853 161.651 130.55 161.56 130.338 161.378C130.126 161.196 130.02 160.939 130.02 160.621V160.439C130.02 160.136 130.126 159.879 130.338 159.682C130.55 159.485 130.883 159.394 131.352 159.394H132.276V159.182C132.276 158.94 132.216 158.758 132.095 158.637C131.973 158.516 131.792 158.455 131.519 158.455C131.307 158.455 131.125 158.485 130.959 158.561C130.807 158.622 130.641 158.712 130.474 158.834L130.156 158.349C130.338 158.228 130.535 158.122 130.747 158.031C130.974 157.94 131.231 157.895 131.519 157.895C131.716 157.895 131.913 157.925 132.079 157.97C132.246 158.016 132.397 158.091 132.519 158.197C132.64 158.303 132.731 158.425 132.806 158.561C132.882 158.697 132.912 158.864 132.912 159.046V161.59H132.291V161.151C132.261 161.212 132.201 161.272 132.155 161.333C132.095 161.393 132.034 161.439 131.958 161.469C131.867 161.53 131.761 161.56 131.64 161.59C131.504 161.636 131.368 161.651 131.216 161.651ZM132.261 159.939H131.352C131.095 159.939 130.913 159.985 130.807 160.091C130.701 160.182 130.641 160.318 130.641 160.485V160.575C130.641 160.757 130.701 160.878 130.822 160.954C130.943 161.03 131.095 161.075 131.262 161.075C131.428 161.075 131.564 161.06 131.67 161.015C131.792 160.984 131.898 160.924 131.989 160.848C132.079 160.787 132.14 160.712 132.185 160.621C132.216 160.53 132.246 160.424 132.246 160.288V159.939H132.261Z" fill="black"/>
<path d="M134.383 158.381C134.504 158.199 134.655 158.078 134.837 158.002C135.034 157.926 135.216 157.896 135.413 157.896C135.867 157.896 136.231 158.032 136.473 158.305C136.715 158.577 136.836 158.956 136.836 159.456V160.092C136.836 160.334 136.806 160.562 136.73 160.758C136.655 160.955 136.564 161.107 136.427 161.243C136.306 161.379 136.155 161.47 135.973 161.546C135.791 161.622 135.594 161.652 135.382 161.652C135.11 161.652 134.883 161.607 134.731 161.516C134.564 161.425 134.443 161.304 134.368 161.183H134.352V161.607H133.731V156.578H134.383V158.381V158.381ZM134.383 160.304C134.383 160.395 134.413 160.486 134.458 160.592C134.504 160.683 134.564 160.774 134.655 160.849C134.746 160.925 134.837 160.986 134.958 161.031C135.079 161.077 135.201 161.107 135.337 161.107C135.61 161.107 135.822 161.016 135.973 160.819C136.125 160.622 136.2 160.365 136.2 160.016V159.562C136.2 159.214 136.125 158.941 135.973 158.759C135.822 158.562 135.61 158.471 135.337 158.471C135.201 158.471 135.079 158.487 134.958 158.532C134.837 158.577 134.746 158.638 134.655 158.714C134.564 158.789 134.504 158.896 134.443 159.002C134.398 159.123 134.368 159.244 134.368 159.38V160.304H134.383Z" fill="black"/>
<path d="M138.23 156.654V157.366H137.533V156.654H138.23ZM138.215 157.957V161.592H137.563V157.957H138.215Z" fill="black"/>
<path d="M139.745 156.578V161.607H139.094V156.578H139.745Z" fill="black"/>
<path d="M141.305 156.654V157.366H140.608V156.654H141.305ZM141.275 157.957V161.592H140.624V157.957H141.275Z" fill="black"/>
<path d="M142.393 158.516H141.803V157.956H142.393V157.047H143.045V157.956H143.999V158.516H143.045V160.576C143.045 160.682 143.06 160.773 143.075 160.849C143.09 160.909 143.136 160.97 143.166 161C143.211 161.03 143.257 161.061 143.317 161.076C143.378 161.091 143.439 161.091 143.499 161.091C143.666 161.091 143.817 161.061 143.984 161L144.09 161.515C144.014 161.545 143.908 161.576 143.787 161.606C143.666 161.636 143.529 161.636 143.408 161.636C143.06 161.636 142.802 161.545 142.636 161.379C142.469 161.212 142.393 160.939 142.393 160.576V158.516V158.516Z" fill="black"/>
<path d="M145.589 161.651C145.226 161.651 144.923 161.56 144.711 161.378C144.499 161.196 144.393 160.939 144.393 160.621V160.439C144.393 160.136 144.499 159.879 144.711 159.682C144.923 159.485 145.256 159.394 145.725 159.394H146.649V159.182C146.649 158.94 146.589 158.758 146.468 158.637C146.346 158.516 146.165 158.455 145.892 158.455C145.68 158.455 145.498 158.485 145.332 158.561C145.18 158.622 145.014 158.712 144.847 158.834L144.529 158.349C144.711 158.228 144.908 158.122 145.12 158.031C145.347 157.94 145.604 157.895 145.892 157.895C146.089 157.895 146.286 157.925 146.452 157.97C146.619 158.016 146.771 158.091 146.892 158.197C147.013 158.303 147.104 158.425 147.179 158.561C147.255 158.697 147.286 158.864 147.286 159.046V161.59H146.665V161.151C146.634 161.212 146.574 161.272 146.528 161.333C146.468 161.393 146.407 161.439 146.331 161.469C146.24 161.53 146.134 161.56 146.013 161.59C145.892 161.636 145.756 161.651 145.589 161.651ZM146.634 159.939H145.725C145.468 159.939 145.286 159.985 145.18 160.091C145.074 160.182 145.014 160.318 145.014 160.5V160.591C145.014 160.772 145.074 160.893 145.195 160.969C145.316 161.045 145.468 161.09 145.635 161.09C145.801 161.09 145.937 161.075 146.044 161.03C146.165 161 146.271 160.939 146.362 160.863C146.452 160.803 146.513 160.727 146.558 160.636C146.589 160.545 146.619 160.439 146.619 160.303V159.939H146.634Z" fill="black"/>
<path d="M148.347 158.516H147.756V157.956H148.347V157.047H148.998V157.956H149.952V158.516H148.998V160.576C148.998 160.682 149.013 160.773 149.028 160.849C149.043 160.909 149.089 160.97 149.119 161C149.164 161.03 149.21 161.061 149.27 161.076C149.331 161.091 149.392 161.091 149.452 161.091C149.619 161.091 149.77 161.061 149.937 161L150.043 161.515C149.967 161.545 149.861 161.576 149.74 161.606C149.619 161.636 149.483 161.636 149.361 161.636C149.013 161.636 148.756 161.545 148.589 161.379C148.422 161.212 148.347 160.939 148.347 160.576V158.516V158.516Z" fill="black"/>
<path d="M151.225 156.654V157.366H150.528V156.654H151.225ZM151.21 157.957V161.592H150.559V157.957H151.21Z" fill="black"/>
<path d="M153.528 157.895C154.028 157.895 154.422 158.046 154.709 158.334C154.997 158.622 155.149 159.03 155.149 159.561V160C155.149 160.53 154.997 160.939 154.709 161.227C154.422 161.514 154.028 161.666 153.528 161.666C153.028 161.666 152.634 161.514 152.346 161.227C152.059 160.939 151.907 160.53 151.907 160V159.561C151.907 159.03 152.059 158.622 152.346 158.334C152.634 158.046 153.028 157.895 153.528 157.895ZM153.528 161.09C153.816 161.09 154.043 161 154.225 160.803C154.406 160.621 154.497 160.333 154.497 159.939V159.606C154.497 159.227 154.406 158.94 154.225 158.743C154.043 158.546 153.816 158.455 153.528 158.455C153.24 158.455 153.013 158.546 152.831 158.743C152.649 158.924 152.559 159.212 152.559 159.606V159.939C152.559 160.318 152.649 160.606 152.831 160.803C153.013 161 153.24 161.09 153.528 161.09Z" fill="black"/>
<path d="M158.844 161.592H158.193V159.335C158.193 159.032 158.132 158.805 157.996 158.668C157.875 158.532 157.663 158.456 157.405 158.456C157.299 158.456 157.178 158.472 157.072 158.517C156.966 158.547 156.86 158.608 156.784 158.684C156.693 158.759 156.633 158.85 156.572 158.956C156.512 159.062 156.481 159.199 156.481 159.335V161.592H155.83V157.957H156.466V158.411C156.572 158.244 156.724 158.108 156.905 158.017C157.087 157.926 157.299 157.881 157.557 157.881C157.739 157.881 157.905 157.911 158.057 157.957C158.208 158.002 158.344 158.093 158.466 158.199C158.587 158.305 158.678 158.441 158.738 158.608C158.799 158.774 158.844 158.956 158.844 159.183V161.592Z" fill="black"/>
<path d="M162.159 161.651C161.796 161.651 161.493 161.56 161.281 161.378C161.069 161.196 160.963 160.939 160.963 160.621V160.439C160.963 160.136 161.069 159.879 161.281 159.682C161.493 159.485 161.826 159.394 162.296 159.394H163.22V159.182C163.22 158.94 163.159 158.758 163.038 158.637C162.917 158.516 162.735 158.455 162.462 158.455C162.25 158.455 162.069 158.485 161.902 158.561C161.75 158.622 161.584 158.712 161.417 158.834L161.099 158.349C161.281 158.228 161.478 158.122 161.69 158.031C161.917 157.94 162.175 157.895 162.462 157.895C162.659 157.895 162.856 157.925 163.023 157.97C163.189 158.016 163.341 158.091 163.462 158.197C163.583 158.303 163.674 158.425 163.75 158.561C163.826 158.697 163.856 158.864 163.856 159.046V161.59H163.235V161.151C163.205 161.212 163.144 161.272 163.099 161.333C163.038 161.393 162.977 161.439 162.902 161.469C162.811 161.53 162.705 161.56 162.584 161.59C162.447 161.636 162.311 161.651 162.159 161.651ZM163.205 159.939H162.296C162.038 159.939 161.857 159.985 161.751 160.091C161.644 160.182 161.584 160.318 161.584 160.5V160.591C161.584 160.772 161.644 160.893 161.766 160.969C161.887 161.045 162.038 161.09 162.205 161.09C162.371 161.09 162.508 161.075 162.614 161.03C162.735 161 162.841 160.939 162.932 160.863C163.023 160.803 163.083 160.727 163.129 160.636C163.159 160.545 163.189 160.439 163.189 160.303V159.939H163.205Z" fill="black"/>
<path d="M167.689 161.592H167.038V159.335C167.038 159.032 166.977 158.805 166.841 158.668C166.72 158.532 166.508 158.456 166.25 158.456C166.144 158.456 166.023 158.472 165.917 158.517C165.811 158.547 165.705 158.608 165.629 158.684C165.538 158.759 165.478 158.85 165.417 158.956C165.356 159.062 165.326 159.199 165.326 159.335V161.592H164.675V157.957H165.311V158.411C165.417 158.244 165.568 158.108 165.75 158.017C165.932 157.926 166.144 157.881 166.401 157.881C166.583 157.881 166.75 157.911 166.901 157.957C167.053 158.002 167.189 158.093 167.31 158.199C167.431 158.305 167.522 158.441 167.583 158.608C167.643 158.774 167.689 158.956 167.689 159.183V161.592Z" fill="black"/>
<path d="M170.794 161.137C170.688 161.319 170.551 161.455 170.354 161.531C170.173 161.607 169.961 161.652 169.733 161.652C169.279 161.652 168.915 161.516 168.673 161.243C168.431 160.971 168.31 160.592 168.31 160.092V159.456C168.31 159.214 168.34 159.002 168.416 158.805C168.491 158.608 168.582 158.441 168.719 158.32C168.84 158.184 168.991 158.093 169.173 158.017C169.355 157.941 169.552 157.911 169.764 157.911C170.036 157.911 170.263 157.956 170.43 158.047C170.597 158.138 170.703 158.244 170.778 158.35V156.578H171.43V161.607H170.809L170.794 161.137ZM170.778 159.229C170.778 159.138 170.763 159.047 170.703 158.956C170.642 158.865 170.597 158.774 170.506 158.714C170.415 158.638 170.324 158.577 170.203 158.532C170.082 158.487 169.961 158.471 169.824 158.471C169.552 158.471 169.34 158.562 169.188 158.759C169.037 158.956 168.961 159.214 168.961 159.562V160.016C168.961 160.365 169.037 160.637 169.188 160.819C169.34 161.016 169.552 161.107 169.824 161.107C169.961 161.107 170.082 161.092 170.203 161.046C170.324 161.001 170.415 160.94 170.506 160.865C170.597 160.789 170.657 160.683 170.718 160.577C170.763 160.456 170.794 160.334 170.794 160.198V159.229H170.778Z" fill="black"/>
<path d="M174.685 158.138C174.67 158.093 174.64 158.047 174.625 158.002C174.609 157.956 174.594 157.911 174.564 157.865C174.549 157.82 174.534 157.759 174.503 157.699C174.488 157.638 174.458 157.562 174.428 157.487V161.607H173.807V156.82H174.776L176.109 159.956L177.411 156.82H178.381V161.607H177.745V157.487C177.73 157.578 177.699 157.653 177.684 157.714C177.669 157.775 177.654 157.835 177.623 157.881C177.608 157.926 177.593 157.971 177.578 158.017C177.563 158.062 177.548 158.108 177.517 158.153L176.381 160.804H175.821L174.685 158.138Z" fill="black"/>
<path d="M179.956 156.654V157.366H179.259V156.654H179.956ZM179.94 157.957V161.592H179.289V157.957H179.94Z" fill="black"/>
<path d="M183.82 161.592H183.168V159.335C183.168 159.032 183.108 158.805 182.972 158.668C182.85 158.532 182.638 158.456 182.381 158.456C182.275 158.456 182.154 158.472 182.048 158.517C181.942 158.547 181.836 158.608 181.76 158.684C181.669 158.759 181.608 158.85 181.548 158.956C181.487 159.062 181.457 159.199 181.457 159.335V161.592H180.806V157.957H181.442V158.411C181.548 158.244 181.699 158.108 181.881 158.017C182.063 157.926 182.275 157.881 182.532 157.881C182.714 157.881 182.881 157.911 183.032 157.957C183.184 158.017 183.32 158.093 183.441 158.199C183.562 158.305 183.653 158.441 183.714 158.608C183.774 158.774 183.82 158.956 183.82 159.183V161.592Z" fill="black"/>
<path d="M187.455 161.258C187.288 161.364 187.106 161.455 186.879 161.546C186.652 161.621 186.379 161.667 186.046 161.667C185.819 161.667 185.607 161.637 185.425 161.576C185.228 161.515 185.061 161.409 184.925 161.273C184.774 161.137 184.668 160.97 184.592 160.758C184.516 160.546 184.471 160.289 184.471 160.001V159.592C184.471 159.319 184.516 159.077 184.592 158.865C184.668 158.653 184.774 158.486 184.925 158.35C185.061 158.214 185.228 158.108 185.425 158.032C185.622 157.956 185.819 157.926 186.046 157.926C186.515 157.926 186.879 158.062 187.152 158.35C187.424 158.638 187.561 159.031 187.561 159.562V160.046H185.107V160.077C185.107 160.425 185.198 160.682 185.379 160.864C185.561 161.046 185.804 161.137 186.091 161.137C186.334 161.137 186.531 161.106 186.712 161.046C186.879 160.985 187.046 160.91 187.197 160.804L187.455 161.258ZM186.016 158.441C185.879 158.441 185.758 158.471 185.652 158.516C185.531 158.562 185.44 158.623 185.364 158.713C185.289 158.804 185.213 158.895 185.167 159.016C185.122 159.137 185.092 159.259 185.092 159.395V159.486H186.909V159.365C186.909 159.092 186.834 158.865 186.667 158.698C186.515 158.532 186.288 158.441 186.016 158.441Z" fill="black"/>
<path d="M190.15 158.591C190.089 158.561 190.029 158.546 189.953 158.531C189.877 158.516 189.801 158.5 189.71 158.5C189.589 158.5 189.483 158.531 189.362 158.576C189.256 158.622 189.165 158.682 189.074 158.773C188.999 158.864 188.923 158.97 188.877 159.076C188.832 159.197 188.802 159.333 188.802 159.47V161.59H188.15V157.955H188.787V158.531C188.893 158.334 189.029 158.167 189.195 158.061C189.362 157.94 189.589 157.895 189.847 157.895C190.013 157.895 190.165 157.925 190.316 157.97L190.15 158.591Z" fill="black"/>
<path d="M191.786 161.651C191.423 161.651 191.12 161.56 190.908 161.378C190.696 161.196 190.59 160.939 190.59 160.621V160.439C190.59 160.136 190.696 159.879 190.908 159.682C191.12 159.485 191.453 159.394 191.923 159.394H192.847V159.182C192.847 158.94 192.786 158.758 192.665 158.637C192.544 158.516 192.362 158.455 192.089 158.455C191.877 158.455 191.696 158.485 191.529 158.561C191.377 158.622 191.211 158.712 191.044 158.834L190.726 158.349C190.908 158.228 191.105 158.122 191.317 158.031C191.544 157.94 191.802 157.895 192.089 157.895C192.286 157.895 192.483 157.925 192.65 157.97C192.816 158.016 192.968 158.091 193.089 158.197C193.21 158.303 193.301 158.425 193.377 158.561C193.452 158.697 193.483 158.864 193.483 159.046V161.59H192.862V161.151C192.831 161.212 192.771 161.272 192.725 161.333C192.665 161.393 192.604 161.439 192.529 161.469C192.438 161.53 192.332 161.56 192.21 161.59C192.074 161.636 191.938 161.651 191.786 161.651ZM192.831 159.939H191.923C191.665 159.939 191.483 159.985 191.377 160.091C191.271 160.182 191.211 160.318 191.211 160.5V160.591C191.211 160.772 191.271 160.893 191.393 160.969C191.514 161.045 191.665 161.09 191.832 161.09C191.998 161.09 192.135 161.075 192.241 161.03C192.362 161 192.468 160.939 192.559 160.863C192.65 160.803 192.71 160.727 192.756 160.636C192.786 160.545 192.816 160.439 192.816 160.303V159.939H192.831Z" fill="black"/>
<path d="M194.969 156.578V161.607H194.317V156.578H194.969Z" fill="black"/>
<path d="M197.996 161.591H197.345V156.805H199.071C199.314 156.805 199.526 156.835 199.723 156.911C199.92 156.971 200.071 157.062 200.207 157.183C200.329 157.305 200.435 157.441 200.495 157.592C200.571 157.759 200.601 157.926 200.601 158.122V158.289C200.601 158.562 200.525 158.804 200.389 159.001C200.253 159.213 200.056 159.364 199.798 159.47L200.753 161.591H200.041L199.177 159.592H199.071H197.996V161.591ZM197.996 159.031H198.92C199.299 159.031 199.556 158.955 199.723 158.819C199.874 158.683 199.965 158.486 199.965 158.259V158.122C199.965 157.895 199.889 157.698 199.738 157.562C199.586 157.426 199.344 157.35 199.011 157.35H198.026V159.031H197.996Z" fill="black"/>
<path d="M204.251 161.258C204.085 161.364 203.903 161.455 203.676 161.546C203.449 161.621 203.176 161.667 202.843 161.667C202.616 161.667 202.404 161.637 202.222 161.576C202.025 161.515 201.858 161.409 201.722 161.273C201.571 161.137 201.464 160.97 201.389 160.758C201.313 160.546 201.268 160.289 201.268 160.001V159.592C201.268 159.319 201.313 159.077 201.389 158.865C201.464 158.653 201.571 158.486 201.722 158.35C201.858 158.214 202.025 158.108 202.222 158.032C202.419 157.956 202.616 157.926 202.843 157.926C203.312 157.926 203.676 158.062 203.948 158.35C204.221 158.638 204.357 159.031 204.357 159.562V160.046H201.904V160.077C201.904 160.425 201.995 160.682 202.176 160.864C202.358 161.046 202.6 161.137 202.888 161.137C203.131 161.137 203.327 161.106 203.509 161.046C203.676 160.985 203.842 160.91 203.994 160.804L204.251 161.258ZM202.813 158.441C202.676 158.441 202.555 158.471 202.449 158.516C202.328 158.562 202.237 158.623 202.161 158.713C202.085 158.789 202.01 158.895 201.964 159.016C201.919 159.137 201.889 159.259 201.889 159.395V159.486H203.706V159.365C203.706 159.092 203.63 158.865 203.464 158.698C203.312 158.532 203.1 158.441 202.813 158.441Z" fill="black"/>
<path d="M206.1 161.091C206.342 161.091 206.524 161.046 206.66 160.97C206.797 160.879 206.857 160.773 206.857 160.622V160.561C206.857 160.486 206.842 160.425 206.827 160.364C206.812 160.304 206.766 160.258 206.706 160.228C206.645 160.183 206.554 160.152 206.448 160.122C206.342 160.092 206.206 160.061 206.024 160.016C205.827 159.971 205.646 159.925 205.494 159.865C205.343 159.804 205.206 159.743 205.1 159.652C204.994 159.577 204.919 159.471 204.858 159.35C204.797 159.228 204.782 159.092 204.782 158.941V158.865C204.782 158.744 204.813 158.623 204.858 158.501C204.919 158.38 204.994 158.274 205.1 158.183C205.206 158.092 205.358 158.017 205.524 157.956C205.691 157.896 205.903 157.865 206.13 157.865C206.373 157.865 206.615 157.896 206.827 157.956C207.039 158.017 207.236 158.108 207.418 158.229L207.13 158.713C207.009 158.623 206.872 158.547 206.706 158.501C206.539 158.441 206.373 158.426 206.176 158.426C205.903 158.426 205.706 158.471 205.6 158.547C205.479 158.623 205.418 158.729 205.418 158.865V158.925C205.418 159.062 205.479 159.168 205.6 159.244C205.721 159.304 205.918 159.365 206.206 159.425C206.433 159.471 206.615 159.516 206.782 159.577C206.948 159.637 207.085 159.713 207.191 159.789C207.297 159.88 207.372 159.971 207.433 160.092C207.493 160.213 207.509 160.349 207.509 160.516V160.607C207.509 160.743 207.478 160.879 207.418 161.001C207.357 161.122 207.266 161.228 207.145 161.319C207.024 161.409 206.872 161.485 206.706 161.531C206.539 161.576 206.342 161.606 206.13 161.606C205.827 161.606 205.54 161.561 205.297 161.485C205.055 161.409 204.843 161.303 204.661 161.167L204.964 160.667C205.131 160.773 205.297 160.864 205.494 160.94C205.676 161.061 205.873 161.091 206.1 161.091Z" fill="black"/>
<path d="M209.539 157.895C210.038 157.895 210.432 158.046 210.72 158.334C211.008 158.622 211.159 159.03 211.159 159.561V160C211.159 160.53 211.008 160.939 210.72 161.227C210.432 161.514 210.038 161.666 209.539 161.666C209.039 161.666 208.645 161.514 208.357 161.227C208.069 160.939 207.918 160.53 207.918 160V159.561C207.918 159.03 208.069 158.622 208.357 158.334C208.645 158.046 209.039 157.895 209.539 157.895ZM209.539 161.09C209.826 161.09 210.054 161 210.235 160.803C210.417 160.621 210.508 160.333 210.508 159.939V159.606C210.508 159.227 210.417 158.94 210.235 158.743C210.054 158.546 209.826 158.455 209.539 158.455C209.251 158.455 209.024 158.546 208.842 158.743C208.66 158.924 208.569 159.212 208.569 159.606V159.939C208.569 160.318 208.66 160.606 208.842 160.803C209.024 161 209.251 161.09 209.539 161.09Z" fill="black"/>
<path d="M211.793 157.955H212.445V160.227C212.445 160.53 212.505 160.757 212.627 160.893C212.748 161.03 212.945 161.106 213.217 161.106C213.323 161.106 213.429 161.09 213.535 161.045C213.641 161.015 213.732 160.954 213.823 160.878C213.914 160.803 213.975 160.712 214.035 160.606C214.096 160.5 214.111 160.363 214.111 160.227V157.955H214.762V161.59H214.126V161.136C214.02 161.302 213.868 161.439 213.702 161.53C213.52 161.62 213.308 161.666 213.051 161.666C212.869 161.666 212.702 161.636 212.551 161.59C212.399 161.53 212.263 161.454 212.157 161.348C212.036 161.242 211.96 161.106 211.884 160.939C211.824 160.772 211.778 160.591 211.778 160.363V157.955H211.793Z" fill="black"/>
<path d="M217.625 158.591C217.565 158.561 217.504 158.546 217.428 158.531C217.353 158.516 217.277 158.5 217.186 158.5C217.065 158.5 216.959 158.531 216.838 158.576C216.732 158.622 216.641 158.682 216.55 158.773C216.474 158.864 216.398 158.97 216.353 159.076C216.308 159.197 216.277 159.333 216.277 159.47V161.59H215.626V157.955H216.262V158.531C216.368 158.334 216.504 158.167 216.671 158.061C216.838 157.94 217.065 157.895 217.322 157.895C217.489 157.895 217.64 157.925 217.792 157.97L217.625 158.591Z" fill="black"/>
<path d="M219.624 157.895C219.927 157.895 220.169 157.94 220.366 158.001C220.563 158.076 220.73 158.167 220.881 158.288L220.578 158.773C220.412 158.652 220.26 158.561 220.109 158.531C219.957 158.485 219.806 158.47 219.624 158.47C219.503 158.47 219.397 158.485 219.276 158.531C219.17 158.576 219.064 158.637 218.988 158.728C218.897 158.818 218.836 158.924 218.791 159.061C218.746 159.197 218.715 159.349 218.715 159.545V160C218.715 160.197 218.746 160.363 218.791 160.5C218.836 160.636 218.912 160.757 219.003 160.833C219.094 160.924 219.185 160.984 219.306 161.03C219.427 161.075 219.533 161.09 219.654 161.09C219.897 161.09 220.094 161.06 220.245 161C220.396 160.939 220.548 160.863 220.669 160.757L220.987 161.242C220.866 161.348 220.684 161.439 220.472 161.53C220.26 161.621 219.988 161.666 219.654 161.666C219.154 161.666 218.761 161.514 218.488 161.227C218.215 160.939 218.079 160.53 218.079 160V159.545C218.079 159.288 218.109 159.046 218.185 158.849C218.261 158.652 218.367 158.47 218.503 158.334C218.64 158.197 218.806 158.091 218.988 158.016C219.17 157.925 219.382 157.895 219.624 157.895Z" fill="black"/>
<path d="M224.259 161.258C224.093 161.364 223.911 161.455 223.684 161.546C223.456 161.621 223.184 161.667 222.851 161.667C222.623 161.667 222.411 161.637 222.23 161.576C222.033 161.515 221.866 161.409 221.73 161.273C221.578 161.137 221.472 160.97 221.397 160.758C221.321 160.546 221.275 160.289 221.275 160.001V159.592C221.275 159.319 221.321 159.077 221.397 158.865C221.472 158.653 221.578 158.486 221.73 158.35C221.866 158.214 222.033 158.108 222.23 158.032C222.427 157.956 222.623 157.926 222.851 157.926C223.32 157.926 223.684 158.062 223.956 158.35C224.229 158.638 224.365 159.031 224.365 159.562V160.046H221.912V160.077C221.912 160.425 222.002 160.682 222.184 160.864C222.366 161.046 222.608 161.137 222.896 161.137C223.138 161.137 223.335 161.106 223.517 161.046C223.684 160.985 223.85 160.91 224.002 160.804L224.259 161.258ZM222.835 158.441C222.699 158.441 222.578 158.471 222.472 158.516C222.351 158.562 222.26 158.623 222.184 158.713C222.108 158.804 222.033 158.895 221.987 159.016C221.942 159.137 221.912 159.259 221.912 159.395V159.486H223.729V159.365C223.729 159.092 223.653 158.865 223.487 158.698C223.335 158.532 223.108 158.441 222.835 158.441Z" fill="black"/>
<path d="M226.108 161.091C226.35 161.091 226.532 161.046 226.668 160.97C226.805 160.879 226.865 160.773 226.865 160.622V160.561C226.865 160.486 226.85 160.425 226.835 160.364C226.82 160.304 226.774 160.258 226.714 160.228C226.653 160.183 226.562 160.152 226.456 160.122C226.35 160.092 226.214 160.061 226.032 160.016C225.835 159.971 225.653 159.925 225.502 159.865C225.351 159.804 225.214 159.743 225.108 159.652C225.002 159.577 224.926 159.471 224.866 159.35C224.805 159.228 224.79 159.092 224.79 158.941V158.865C224.79 158.744 224.82 158.623 224.866 158.501C224.926 158.38 225.002 158.274 225.108 158.183C225.214 158.092 225.366 158.017 225.532 157.956C225.699 157.896 225.911 157.865 226.138 157.865C226.38 157.865 226.623 157.896 226.835 157.956C227.047 158.017 227.244 158.108 227.426 158.229L227.138 158.713C227.017 158.623 226.88 158.547 226.714 158.501C226.547 158.441 226.38 158.426 226.184 158.426C225.911 158.426 225.714 158.471 225.608 158.547C225.487 158.623 225.426 158.729 225.426 158.865V158.925C225.426 159.062 225.487 159.168 225.608 159.244C225.729 159.304 225.926 159.365 226.214 159.425C226.441 159.471 226.623 159.516 226.789 159.577C226.956 159.637 227.092 159.713 227.198 159.789C227.304 159.88 227.38 159.971 227.441 160.092C227.501 160.213 227.516 160.349 227.516 160.516V160.607C227.516 160.743 227.486 160.879 227.426 161.001C227.365 161.122 227.274 161.228 227.153 161.319C227.032 161.409 226.88 161.485 226.714 161.531C226.547 161.591 226.35 161.606 226.138 161.606C225.835 161.606 225.547 161.561 225.305 161.485C225.063 161.409 224.851 161.303 224.669 161.167L224.972 160.667C225.138 160.773 225.305 160.864 225.502 160.94C225.684 161.061 225.896 161.091 226.108 161.091Z" fill="black"/>
<path d="M233.121 161.061C232.879 161.289 232.621 161.455 232.333 161.546C232.046 161.637 231.743 161.682 231.425 161.682C231.137 161.682 230.879 161.637 230.637 161.546C230.41 161.455 230.198 161.334 230.031 161.152C229.864 160.97 229.728 160.758 229.637 160.501C229.546 160.243 229.501 159.925 229.501 159.577V158.85C229.501 158.502 229.546 158.199 229.637 157.941C229.728 157.684 229.864 157.456 230.031 157.29C230.198 157.108 230.41 156.987 230.637 156.896C230.864 156.805 231.137 156.76 231.409 156.76C231.743 156.76 232.03 156.805 232.273 156.881C232.515 156.957 232.757 157.093 232.985 157.275L232.651 157.82C232.439 157.638 232.227 157.532 232.03 157.472C231.834 157.411 231.621 157.381 231.409 157.381C231.228 157.381 231.061 157.411 230.91 157.472C230.758 157.532 230.622 157.623 230.516 157.759C230.41 157.881 230.319 158.047 230.258 158.244C230.198 158.441 230.167 158.683 230.167 158.956V159.501C230.167 159.774 230.198 160.016 230.258 160.213C230.319 160.41 230.41 160.577 230.516 160.698C230.637 160.819 230.758 160.925 230.91 160.986C231.061 161.046 231.228 161.076 231.409 161.076C231.637 161.076 231.864 161.046 232.106 160.97C232.333 160.895 232.545 160.774 232.757 160.577L233.121 161.061Z" fill="black"/>
<path d="M235.104 157.895C235.604 157.895 235.998 158.046 236.285 158.334C236.573 158.622 236.725 159.03 236.725 159.561V160C236.725 160.53 236.573 160.939 236.285 161.227C235.998 161.514 235.604 161.666 235.104 161.666C234.604 161.666 234.21 161.514 233.923 161.227C233.635 160.939 233.483 160.53 233.483 160V159.561C233.483 159.03 233.635 158.622 233.923 158.334C234.21 158.046 234.604 157.895 235.104 157.895ZM235.104 161.09C235.392 161.09 235.619 161 235.801 160.803C235.983 160.621 236.073 160.333 236.073 159.939V159.606C236.073 159.227 235.983 158.94 235.801 158.743C235.619 158.546 235.392 158.455 235.104 158.455C234.816 158.455 234.589 158.546 234.407 158.743C234.226 158.924 234.135 159.212 234.135 159.606V159.939C234.135 160.318 234.226 160.606 234.407 160.803C234.574 161 234.816 161.09 235.104 161.09Z" fill="black"/>
<path d="M239.391 158.591C239.33 158.561 239.27 158.546 239.194 158.531C239.118 158.516 239.043 158.5 238.952 158.5C238.83 158.5 238.724 158.531 238.603 158.576C238.497 158.622 238.406 158.682 238.316 158.773C238.24 158.864 238.164 158.97 238.119 159.076C238.073 159.197 238.043 159.333 238.043 159.47V161.59H237.392V157.955H238.028V158.531C238.134 158.334 238.27 158.167 238.437 158.061C238.603 157.94 238.83 157.895 239.088 157.895C239.255 157.895 239.406 157.925 239.558 157.97L239.391 158.591Z" fill="black"/>
<path d="M240.632 158.41C240.738 158.228 240.89 158.091 241.087 158.016C241.284 157.94 241.48 157.895 241.708 157.895C242.162 157.895 242.525 158.031 242.768 158.303C243.01 158.576 243.131 158.955 243.131 159.439V160.076C243.131 160.333 243.101 160.545 243.025 160.742C242.95 160.939 242.859 161.09 242.722 161.227C242.601 161.363 242.45 161.454 242.268 161.53C242.086 161.59 241.889 161.636 241.677 161.636C241.405 161.636 241.193 161.59 241.026 161.484C240.859 161.393 240.753 161.287 240.678 161.181V162.999H240.026V157.955H240.647V158.41H240.632ZM240.647 160.303C240.647 160.394 240.678 160.485 240.723 160.591C240.769 160.681 240.829 160.772 240.92 160.848C241.011 160.924 241.102 160.984 241.223 161.03C241.344 161.075 241.465 161.106 241.602 161.106C241.874 161.106 242.086 161.015 242.238 160.818C242.389 160.621 242.465 160.363 242.465 160.015V159.561C242.465 159.212 242.389 158.94 242.238 158.758C242.086 158.561 241.874 158.47 241.602 158.47C241.465 158.47 241.344 158.485 241.223 158.531C241.102 158.576 241.011 158.637 240.92 158.712C240.829 158.788 240.769 158.894 240.708 159C240.663 159.121 240.632 159.243 240.632 159.379V160.303H240.647Z" fill="black"/>
<path d="M243.889 161.105H244.646V161.863H243.889V161.105Z" fill="black"/>
</svg>
