<svg width="330" height="150" viewBox="0 0 330 150" fill="none" xmlns="http://www.w3.org/2000/svg">
<path d="M103.107 91.7472L92.4125 108L81.7061 91.7472L92.4125 75.4941L103.107 91.7472Z" fill="#0082CB"/>
<path d="M103.107 91.7472L113.814 108L124.52 91.7472L113.814 75.4941L103.107 91.7472Z" fill="#0082CB"/>
<path d="M92.4131 75.4932L103.107 91.7463L113.814 75.4932L103.107 59.2402L92.4131 75.4932Z" fill="#0082CB"/>
<path d="M81.7064 91.7461L71 107.987H92.4129L81.7064 91.7461Z" fill="#0082CB"/>
<path d="M124.519 91.7461L113.812 107.987H135.225L124.519 91.7461Z" fill="#0082CB"/>
<path d="M103.107 91.7472L92.4125 108L81.7061 91.7472L92.4125 75.4941L103.107 91.7472Z" fill="#00A0D8"/>
<path d="M103.107 91.7472L113.814 108L124.52 91.7472L113.814 75.4941L103.107 91.7472Z" fill="#00A0D8"/>
<path d="M92.4131 75.4932L103.107 91.7463L113.814 75.4932L103.107 59.2402L92.4131 75.4932Z" fill="#62B9E3"/>
<path d="M81.7064 91.7461L71 107.987H92.4129L81.7064 91.7461Z" fill="#0082CB"/>
<path d="M124.519 91.7461L113.812 107.987H135.225L124.519 91.7461Z" fill="#0082CB"/>
<path d="M135.225 59.2409L124.519 43L113.812 59.2409H135.225Z" fill="#62B9E3"/>
<path d="M113.812 59.2539L124.519 75.4948L135.225 59.2539H113.812Z" fill="#00A0D8"/>
<path d="M171.768 82.2363H166.85L157.968 92.6286H155.322V82.2363H151.552V107.649H155.322V96.3505H157.98L167.684 107.649H172.626L161.328 94.4774L171.768 82.2363Z" fill="black"/>
<path d="M234.641 82.2363H230.871V107.649H234.641V82.2363Z" fill="black"/>
<path d="M252.406 97.293C255.535 96.2055 257.59 93.4261 257.59 90.0426C257.59 85.5232 254.122 82.2363 249.336 82.2363H239.729V107.649H243.5V97.8005H248.345L254.23 107.649H258.593L252.406 97.293ZM243.5 85.9703H249.288C251.946 85.9703 253.795 87.6379 253.795 90.0305C253.795 92.4111 251.934 94.0666 249.288 94.0666H243.5V85.9703Z" fill="black"/>
<path d="M222.812 82.2363L213.822 101.293L204.819 82.2363H201.858V107.649H205.689V92.8582L212.746 107.649H214.885L221.942 92.8582V107.649H225.773V82.2363H222.812Z" fill="black"/>
<path d="M185.037 81.8984C177.835 81.8984 171.986 87.735 171.986 94.9492C171.986 102.163 177.823 108 185.037 108C192.239 108 198.088 102.163 198.088 94.9492C198.088 87.735 192.251 81.8984 185.037 81.8984ZM185.037 104.483C179.768 104.483 175.503 100.218 175.503 94.9492C175.503 89.6806 179.768 85.4149 185.037 85.4149C190.306 85.4149 194.571 89.6806 194.571 94.9492C194.571 100.218 190.306 104.483 185.037 104.483Z" fill="black"/>
<path d="M152.953 64.5693L154.705 66.9015H153.992L152.578 64.9802L152.131 65.4635V66.9015H151.575V62.793H152.131V64.7627L153.932 62.793H154.62L152.953 64.5693Z" fill="black"/>
<path d="M156.12 63.7246C156.555 63.7246 156.894 63.8455 157.135 64.0992C157.389 64.3409 157.51 64.6913 157.51 65.1505V65.5372C157.51 65.9843 157.389 66.3348 157.135 66.5885C156.881 66.8302 156.543 66.9631 156.12 66.9631C155.685 66.9631 155.347 66.8423 155.105 66.5885C154.851 66.3469 154.73 65.9964 154.73 65.5372V65.1505C154.73 64.6913 154.851 64.3409 155.105 64.0992C155.359 63.8455 155.697 63.7246 156.12 63.7246ZM156.12 66.4677C156.362 66.4677 156.567 66.3831 156.724 66.226C156.881 66.0689 156.954 65.8152 156.954 65.4889V65.1989C156.954 64.8726 156.881 64.6188 156.724 64.4617C156.567 64.3046 156.374 64.2201 156.12 64.2201C155.878 64.2201 155.673 64.3046 155.516 64.4617C155.359 64.6188 155.286 64.8726 155.286 65.1989V65.4889C155.286 65.8152 155.359 66.0689 155.516 66.226C155.673 66.3831 155.878 66.4677 156.12 66.4677Z" fill="black"/>
<path d="M159.805 64.3151C159.757 64.291 159.696 64.2789 159.636 64.2668C159.575 64.2547 159.503 64.2426 159.43 64.2426C159.334 64.2426 159.225 64.2668 159.14 64.3031C159.044 64.3393 158.971 64.3997 158.899 64.4722C158.826 64.5447 158.778 64.6293 158.73 64.7381C158.693 64.8468 158.669 64.9556 158.669 65.0764V66.889H158.113V63.7714H158.657V64.2668C158.754 64.0976 158.862 63.9526 159.008 63.8559C159.153 63.7593 159.346 63.7109 159.563 63.7109C159.696 63.7109 159.829 63.7351 159.962 63.7714L159.805 64.3151Z" fill="black"/>
<path d="M162.74 66.6006C162.607 66.6973 162.438 66.7819 162.245 66.8423C162.051 66.9027 161.822 66.939 161.532 66.939C161.339 66.939 161.157 66.9148 160.988 66.8544C160.819 66.794 160.674 66.7094 160.553 66.6006C160.432 66.4798 160.336 66.3348 160.263 66.1535C160.191 65.9723 160.154 65.7547 160.154 65.501V65.1505C160.154 64.9089 160.191 64.7034 160.251 64.5342C160.311 64.353 160.408 64.208 160.529 64.0871C160.65 63.9663 160.795 63.8817 160.952 63.8213C161.121 63.7609 161.29 63.7246 161.484 63.7246C161.882 63.7246 162.196 63.8455 162.438 64.0871C162.668 64.3288 162.789 64.6793 162.789 65.1264V65.5493H160.686V65.5735C160.686 65.8756 160.759 66.0931 160.916 66.2502C161.073 66.4073 161.278 66.4798 161.52 66.4798C161.725 66.4798 161.906 66.4556 162.051 66.4073C162.196 66.3589 162.342 66.2864 162.474 66.2018L162.74 66.6006ZM161.52 64.1959C161.411 64.1959 161.302 64.2201 161.206 64.2563C161.109 64.2926 161.024 64.353 160.952 64.4255C160.879 64.498 160.831 64.5826 160.783 64.6793C160.746 64.7759 160.722 64.8847 160.722 65.0055V65.0901H162.281V64.9814C162.281 64.7397 162.209 64.5463 162.076 64.4134C161.943 64.2684 161.749 64.1959 161.52 64.1959Z" fill="black"/>
<path d="M164.228 66.939C163.914 66.939 163.66 66.8665 163.479 66.7094C163.298 66.5523 163.201 66.3348 163.201 66.0689V65.9118C163.201 65.646 163.286 65.4285 163.467 65.2593C163.648 65.0901 163.938 65.0055 164.337 65.0055H165.135V64.8243C165.135 64.6188 165.086 64.4617 164.99 64.3651C164.893 64.2684 164.724 64.2201 164.494 64.2201C164.313 64.2201 164.156 64.2442 164.023 64.3047C163.89 64.3651 163.745 64.4376 163.6 64.5342L163.322 64.1234C163.479 64.0146 163.648 63.93 163.83 63.8455C164.023 63.773 164.24 63.7246 164.494 63.7246C164.663 63.7246 164.833 63.7488 164.978 63.785C165.123 63.8334 165.243 63.8938 165.352 63.9784C165.461 64.063 165.533 64.1717 165.594 64.2926C165.654 64.4134 165.678 64.5584 165.678 64.7155V66.9027H165.147V66.5281C165.11 66.5885 165.074 66.6369 165.026 66.6852C164.978 66.7335 164.917 66.7698 164.857 66.806C164.772 66.8544 164.687 66.8906 164.591 66.9148C164.482 66.9269 164.361 66.939 164.228 66.939ZM165.135 65.4768H164.349C164.132 65.4768 163.975 65.513 163.89 65.5976C163.793 65.6822 163.745 65.8031 163.745 65.9481V66.0327C163.745 66.1898 163.793 66.2985 163.902 66.3589C164.011 66.4314 164.132 66.4556 164.289 66.4556C164.422 66.4556 164.542 66.4435 164.639 66.4073C164.736 66.371 164.833 66.3227 164.917 66.2623C164.99 66.2018 165.05 66.1414 165.074 66.0689C165.11 65.9964 165.123 65.8997 165.123 65.7789V65.4768H165.135Z" fill="black"/>
<path d="M168.445 63.9292C168.421 63.893 168.409 63.8447 168.397 63.8084C168.385 63.7721 168.361 63.7238 168.348 63.6876C168.336 63.6513 168.312 63.603 168.3 63.5425C168.276 63.4942 168.264 63.4338 168.24 63.3613V66.8898H167.708V62.7812H168.542L169.678 65.476L170.789 62.7812H171.611V66.8898H171.067V63.3613C171.043 63.4338 171.031 63.5063 171.019 63.5546C171.007 63.603 170.983 63.6513 170.971 63.6996C170.959 63.7359 170.947 63.7842 170.922 63.8205C170.91 63.8567 170.886 63.893 170.874 63.9413L169.895 66.2252H169.412L168.445 63.9292Z" fill="black"/>
<path d="M172.976 62.6602V63.2644H172.384V62.6602H172.976ZM172.964 63.784V66.9016H172.408V63.784H172.964Z" fill="black"/>
<path d="M176.287 66.9023H175.731V64.9689C175.731 64.703 175.671 64.5218 175.562 64.401C175.453 64.2801 175.284 64.2197 175.054 64.2197C174.958 64.2197 174.861 64.2318 174.776 64.268C174.68 64.3043 174.595 64.3526 174.523 64.413C174.45 64.4735 174.39 64.558 174.341 64.6547C174.293 64.7514 174.269 64.8601 174.269 64.981V66.9144H173.713V63.7968H174.257V64.1955C174.353 64.0505 174.474 63.9417 174.631 63.8572C174.788 63.7847 174.97 63.7363 175.187 63.7363C175.344 63.7363 175.477 63.7605 175.61 63.8088C175.743 63.8572 175.864 63.9176 175.961 64.0143C176.057 64.1109 176.142 64.2197 176.19 64.3647C176.251 64.5097 176.275 64.6668 176.275 64.8601V66.9023H176.287Z" fill="black"/>
<path d="M179.392 66.6006C179.259 66.6973 179.09 66.7819 178.896 66.8423C178.703 66.9027 178.473 66.939 178.183 66.939C177.99 66.939 177.809 66.9148 177.639 66.8544C177.47 66.794 177.325 66.7094 177.204 66.6006C177.084 66.4798 176.987 66.3348 176.914 66.1535C176.842 65.9723 176.806 65.7547 176.806 65.501V65.1505C176.806 64.9089 176.842 64.7034 176.902 64.5342C176.963 64.353 177.059 64.208 177.18 64.0871C177.301 63.9663 177.446 63.8817 177.603 63.8213C177.772 63.7609 177.942 63.7246 178.135 63.7246C178.534 63.7246 178.848 63.8455 179.09 64.0871C179.319 64.3288 179.44 64.6793 179.44 65.1264V65.5493H177.337V65.5735C177.337 65.8756 177.41 66.0931 177.567 66.2502C177.724 66.4073 177.929 66.4798 178.171 66.4798C178.377 66.4798 178.558 66.4556 178.703 66.4073C178.848 66.3589 178.993 66.2864 179.126 66.2018L179.392 66.6006ZM178.171 64.1959C178.062 64.1959 177.954 64.2201 177.857 64.2563C177.76 64.2926 177.676 64.353 177.603 64.4255C177.531 64.498 177.482 64.5826 177.434 64.6793C177.398 64.7759 177.374 64.8847 177.374 65.0055V65.0901H178.932V64.9814C178.932 64.7397 178.86 64.5463 178.727 64.4134C178.594 64.2684 178.401 64.1959 178.171 64.1959Z" fill="black"/>
<path d="M181.882 66.9015H181.326V62.793H182.813C183.018 62.793 183.211 62.8171 183.368 62.8775C183.525 62.938 183.67 63.0105 183.779 63.1071C183.888 63.2038 183.973 63.3247 184.033 63.4576C184.093 63.5905 184.118 63.7476 184.118 63.9047V64.0497C184.118 64.2793 184.057 64.4847 183.936 64.666C183.815 64.8472 183.646 64.9802 183.429 65.0648L184.238 66.8895H183.634L182.897 65.1735H182.8H181.882V66.9015V66.9015ZM181.882 64.7022H182.667C182.982 64.7022 183.211 64.6418 183.356 64.521C183.489 64.4001 183.562 64.2431 183.562 64.0376V63.9289C183.562 63.7234 183.489 63.5663 183.356 63.4455C183.223 63.3247 183.018 63.2642 182.728 63.2642H181.882V64.7022Z" fill="black"/>
<path d="M187.234 66.6006C187.101 66.6973 186.932 66.7819 186.739 66.8423C186.546 66.9027 186.316 66.939 186.026 66.939C185.833 66.939 185.651 66.9148 185.482 66.8544C185.313 66.794 185.168 66.7094 185.047 66.6006C184.926 66.4798 184.83 66.3348 184.757 66.1535C184.685 65.9723 184.648 65.7547 184.648 65.501V65.1505C184.648 64.9089 184.685 64.7034 184.745 64.5342C184.806 64.353 184.902 64.208 185.023 64.0871C185.144 63.9663 185.289 63.8817 185.446 63.8213C185.615 63.7609 185.784 63.7246 185.978 63.7246C186.376 63.7246 186.691 63.8455 186.932 64.0871C187.162 64.3288 187.283 64.6793 187.283 65.1264V65.5493H185.18V65.5735C185.18 65.8756 185.253 66.0931 185.41 66.2502C185.567 66.4073 185.772 66.4798 186.014 66.4798C186.219 66.4798 186.401 66.4556 186.546 66.4073C186.691 66.3589 186.836 66.2864 186.969 66.2018L187.234 66.6006ZM186.014 64.1959C185.905 64.1959 185.796 64.2201 185.7 64.2563C185.603 64.2926 185.518 64.353 185.446 64.4255C185.373 64.498 185.325 64.5826 185.277 64.6793C185.241 64.7759 185.216 64.8847 185.216 65.0055V65.0901H186.775V64.9814C186.775 64.7397 186.703 64.5463 186.57 64.4134C186.437 64.2684 186.244 64.1959 186.014 64.1959Z" fill="black"/>
<path d="M190.438 66.9015H189.882V64.9681C189.882 64.7022 189.821 64.521 189.713 64.4001C189.604 64.2793 189.435 64.2189 189.205 64.2189C189.108 64.2189 189.012 64.231 188.927 64.2672C188.83 64.3035 188.746 64.3518 188.673 64.4122C188.601 64.4726 188.54 64.5572 188.492 64.6539C188.444 64.7506 188.42 64.8593 188.42 64.9802V66.9136H187.852V62.5996H188.407V64.1705C188.504 64.0255 188.625 63.9168 188.782 63.8443C188.939 63.7718 189.12 63.7355 189.338 63.7355C189.495 63.7355 189.628 63.7597 189.761 63.808C189.894 63.8563 190.015 63.9168 190.111 64.0134C190.208 64.1101 190.293 64.2189 190.341 64.3639C190.401 64.5089 190.425 64.666 190.425 64.8593V66.9015H190.438Z" fill="black"/>
<path d="M191.996 66.939C191.682 66.939 191.428 66.8665 191.247 66.7094C191.065 66.5523 190.969 66.3348 190.969 66.0689V65.9118C190.969 65.646 191.053 65.4285 191.235 65.2593C191.416 65.0901 191.706 65.0055 192.105 65.0055H192.902V64.8243C192.902 64.6188 192.854 64.4617 192.757 64.3651C192.661 64.2684 192.491 64.2201 192.262 64.2201C192.08 64.2201 191.923 64.2442 191.79 64.3047C191.658 64.3651 191.513 64.4376 191.368 64.5342L191.09 64.1234C191.247 64.0146 191.416 63.93 191.597 63.8455C191.79 63.773 192.008 63.7246 192.262 63.7246C192.431 63.7246 192.6 63.7488 192.745 63.785C192.89 63.8334 193.011 63.8938 193.12 63.9784C193.228 64.063 193.301 64.1717 193.361 64.2926C193.422 64.4134 193.446 64.5584 193.446 64.7155V66.9027H192.914V66.5281C192.878 66.5885 192.842 66.6369 192.793 66.6852C192.745 66.7335 192.685 66.7698 192.624 66.806C192.54 66.8544 192.455 66.8906 192.358 66.9148C192.25 66.9269 192.129 66.939 191.996 66.939ZM192.89 65.4768H192.105C191.887 65.4768 191.73 65.513 191.645 65.5976C191.549 65.6822 191.5 65.8031 191.5 65.9481V66.0327C191.5 66.1898 191.549 66.2985 191.658 66.3589C191.766 66.4314 191.887 66.4556 192.044 66.4556C192.177 66.4556 192.298 66.4435 192.395 66.4073C192.491 66.371 192.588 66.3227 192.673 66.2623C192.745 66.2018 192.806 66.1414 192.83 66.0689C192.866 65.9964 192.878 65.8997 192.878 65.7789V65.4768H192.89Z" fill="black"/>
<path d="M194.715 64.1346C194.812 63.9776 194.945 63.8688 195.102 63.8084C195.259 63.748 195.428 63.7238 195.597 63.7238C195.996 63.7238 196.298 63.8446 196.503 64.0621C196.709 64.2917 196.818 64.618 196.818 65.0409V65.5968C196.818 65.8143 196.781 65.9956 196.721 66.1648C196.661 66.3339 196.576 66.4669 196.467 66.5877C196.358 66.6965 196.226 66.7931 196.081 66.8536C195.936 66.914 195.766 66.9502 195.585 66.9502C195.343 66.9502 195.162 66.914 195.017 66.8294C194.872 66.7448 194.775 66.6481 194.703 66.5394H194.691V66.9019H194.159V62.5879H194.715V64.1346ZM194.715 65.7902C194.715 65.8747 194.739 65.9472 194.775 66.0318C194.812 66.1164 194.872 66.1889 194.945 66.2493C195.017 66.3098 195.102 66.3581 195.198 66.4064C195.295 66.4427 195.404 66.4669 195.525 66.4669C195.754 66.4669 195.948 66.3823 196.081 66.2252C196.213 66.056 196.274 65.8264 196.274 65.5364V65.1497C196.274 64.8476 196.201 64.618 196.068 64.4609C195.936 64.2917 195.754 64.2192 195.525 64.2192C195.416 64.2192 195.307 64.2434 195.21 64.2796C195.114 64.3159 195.029 64.3763 194.957 64.4367C194.884 64.5092 194.824 64.5938 194.775 64.6905C194.727 64.7872 194.715 64.8959 194.715 65.0168V65.7902V65.7902Z" fill="black"/>
<path d="M198.014 62.6602V63.2644H197.422V62.6602H198.014ZM197.99 63.784V66.9016H197.434V63.784H197.99Z" fill="black"/>
<path d="M199.307 62.5879V66.9019H198.751V62.5879H199.307Z" fill="black"/>
<path d="M200.649 62.6602V63.2644H200.057V62.6602H200.649ZM200.625 63.784V66.9016H200.069V63.784H200.625Z" fill="black"/>
<path d="M201.579 64.2571H201.071V63.7738H201.579V62.9883H202.135V63.7738H202.956V64.2571H202.135V66.0214C202.135 66.1181 202.147 66.1906 202.159 66.251C202.183 66.3114 202.207 66.3597 202.243 66.3839C202.28 66.4202 202.328 66.4322 202.376 66.4443C202.425 66.4564 202.473 66.4564 202.533 66.4564C202.666 66.4564 202.811 66.4322 202.944 66.3839L203.029 66.831C202.968 66.8552 202.884 66.8793 202.775 66.9035C202.666 66.9277 202.558 66.9398 202.449 66.9398C202.147 66.9398 201.929 66.8673 201.784 66.7223C201.639 66.5773 201.567 66.3477 201.567 66.0214V64.2571H201.579Z" fill="black"/>
<path d="M204.322 66.939C204.008 66.939 203.754 66.8665 203.573 66.7094C203.392 66.5523 203.295 66.3348 203.295 66.0689V65.9118C203.295 65.646 203.38 65.4285 203.561 65.2593C203.742 65.0901 204.032 65.0055 204.431 65.0055H205.228V64.8243C205.228 64.6188 205.18 64.4617 205.083 64.3651C204.987 64.2684 204.818 64.2201 204.588 64.2201C204.407 64.2201 204.25 64.2442 204.117 64.3047C203.984 64.3651 203.839 64.4376 203.694 64.5342L203.416 64.1234C203.573 64.0146 203.742 63.93 203.923 63.8455C204.117 63.773 204.334 63.7246 204.588 63.7246C204.757 63.7246 204.926 63.7488 205.071 63.785C205.216 63.8334 205.337 63.8938 205.446 63.9784C205.555 64.063 205.627 64.1717 205.688 64.2926C205.748 64.4134 205.772 64.5584 205.772 64.7155V66.9027H205.24V66.5281C205.204 66.5885 205.168 66.6369 205.12 66.6852C205.071 66.7335 205.011 66.7698 204.95 66.806C204.866 66.8544 204.781 66.8906 204.685 66.9148C204.576 66.9269 204.467 66.939 204.322 66.939ZM205.228 65.4768H204.443C204.225 65.4768 204.068 65.513 203.984 65.5976C203.887 65.6822 203.839 65.8031 203.839 65.9481V66.0327C203.839 66.1898 203.887 66.2985 203.996 66.3589C204.105 66.4314 204.225 66.4556 204.382 66.4556C204.515 66.4556 204.636 66.4435 204.733 66.4073C204.83 66.371 204.926 66.3227 205.011 66.2623C205.083 66.2018 205.144 66.1414 205.168 66.0689C205.204 65.9964 205.216 65.8997 205.216 65.7789V65.4768H205.228Z" fill="black"/>
<path d="M206.691 64.2571H206.184V63.7738H206.691V62.9883H207.247V63.7738H208.069V64.2571H207.247V66.0214C207.247 66.1181 207.259 66.1906 207.271 66.251C207.295 66.3114 207.319 66.3597 207.356 66.3839C207.392 66.4202 207.44 66.4322 207.489 66.4443C207.537 66.4564 207.585 66.4564 207.646 66.4564C207.779 66.4564 207.924 66.4322 208.057 66.3839L208.141 66.831C208.081 66.8552 207.996 66.8793 207.887 66.9035C207.779 66.9277 207.67 66.9398 207.561 66.9398C207.259 66.9398 207.042 66.8673 206.897 66.7223C206.752 66.5773 206.679 66.3477 206.679 66.0214V64.2571H206.691Z" fill="black"/>
<path d="M209.167 62.6602V63.2644H208.575V62.6602H209.167ZM209.143 63.784V66.9016H208.587V63.784H209.143Z" fill="black"/>
<path d="M211.137 63.7246C211.572 63.7246 211.91 63.8455 212.152 64.0992C212.406 64.3409 212.526 64.6913 212.526 65.1505V65.5372C212.526 65.9843 212.406 66.3348 212.152 66.5885C211.898 66.8302 211.56 66.9631 211.137 66.9631C210.702 66.9631 210.363 66.8423 210.122 66.5885C209.868 66.3469 209.747 65.9964 209.747 65.5372V65.1505C209.747 64.6913 209.868 64.3409 210.122 64.0992C210.363 63.8455 210.702 63.7246 211.137 63.7246ZM211.137 66.4677C211.378 66.4677 211.584 66.3831 211.741 66.226C211.898 66.0689 211.971 65.8152 211.971 65.4889V65.1989C211.971 64.8726 211.898 64.6188 211.741 64.4617C211.584 64.3046 211.39 64.2201 211.137 64.2201C210.883 64.2201 210.69 64.3046 210.533 64.4617C210.375 64.6188 210.303 64.8726 210.303 65.1989V65.4889C210.303 65.8152 210.375 66.0689 210.533 66.226C210.69 66.3831 210.883 66.4677 211.137 66.4677Z" fill="black"/>
<path d="M215.692 66.9023H215.136V64.9689C215.136 64.703 215.076 64.5218 214.967 64.401C214.858 64.2801 214.689 64.2197 214.459 64.2197C214.363 64.2197 214.266 64.2318 214.182 64.268C214.085 64.3043 214 64.3526 213.928 64.413C213.855 64.4735 213.795 64.558 213.747 64.6547C213.698 64.7514 213.674 64.8601 213.674 64.981V66.9144H213.118V63.7968H213.662V64.1955C213.759 64.0505 213.879 63.9417 214.037 63.8572C214.194 63.7847 214.375 63.7363 214.592 63.7363C214.75 63.7363 214.882 63.7605 215.015 63.8088C215.148 63.8572 215.269 63.9176 215.366 64.0143C215.462 64.1109 215.547 64.2197 215.595 64.3647C215.656 64.5097 215.68 64.6668 215.68 64.8601V66.9023H215.692Z" fill="black"/>
<path d="M218.532 66.939C218.218 66.939 217.964 66.8665 217.783 66.7094C217.602 66.5523 217.505 66.3348 217.505 66.0689V65.9118C217.505 65.646 217.589 65.4285 217.771 65.2593C217.952 65.0901 218.242 65.0055 218.641 65.0055H219.438V64.8243C219.438 64.6188 219.39 64.4617 219.293 64.3651C219.197 64.2684 219.027 64.2201 218.798 64.2201C218.617 64.2201 218.46 64.2442 218.327 64.3047C218.194 64.3651 218.049 64.4376 217.904 64.5342L217.626 64.1234C217.783 64.0146 217.952 63.93 218.133 63.8455C218.327 63.773 218.544 63.7246 218.798 63.7246C218.967 63.7246 219.136 63.7488 219.281 63.785C219.426 63.8334 219.547 63.8938 219.656 63.9784C219.765 64.063 219.837 64.1717 219.898 64.2926C219.958 64.4134 219.982 64.5584 219.982 64.7155V66.9027H219.45V66.5281C219.414 66.5885 219.378 66.6369 219.33 66.6852C219.281 66.7335 219.221 66.7698 219.16 66.806C219.076 66.8544 218.991 66.8906 218.895 66.9148C218.786 66.9269 218.665 66.939 218.532 66.939ZM219.438 65.4768H218.653C218.435 65.4768 218.278 65.513 218.194 65.5976C218.097 65.6822 218.049 65.8031 218.049 65.9481V66.0327C218.049 66.1898 218.097 66.2985 218.206 66.3589C218.315 66.4314 218.435 66.4556 218.592 66.4556C218.725 66.4556 218.846 66.4435 218.943 66.4073C219.04 66.371 219.136 66.3227 219.221 66.2623C219.293 66.2018 219.354 66.1414 219.378 66.0689C219.414 65.9964 219.426 65.8997 219.426 65.7789V65.4768H219.438Z" fill="black"/>
<path d="M223.282 66.9023H222.726V64.9689C222.726 64.703 222.666 64.5218 222.557 64.401C222.448 64.2801 222.279 64.2197 222.049 64.2197C221.953 64.2197 221.856 64.2318 221.771 64.268C221.675 64.3043 221.59 64.3526 221.518 64.413C221.445 64.4735 221.385 64.558 221.336 64.6547C221.288 64.7514 221.264 64.8601 221.264 64.981V66.9144H220.708V63.7968H221.252V64.1955C221.348 64.0505 221.469 63.9417 221.626 63.8572C221.783 63.7847 221.965 63.7363 222.182 63.7363C222.339 63.7363 222.472 63.7605 222.605 63.8088C222.738 63.8572 222.859 63.9176 222.956 64.0143C223.052 64.1109 223.137 64.2197 223.185 64.3647C223.246 64.5097 223.27 64.6668 223.27 64.8601V66.9023H223.282Z" fill="black"/>
<path d="M225.94 66.5156C225.856 66.6727 225.723 66.7814 225.566 66.8539C225.409 66.9143 225.227 66.9506 225.034 66.9506C224.635 66.9506 224.333 66.8297 224.128 66.6122C223.922 66.3826 223.813 66.0564 223.813 65.6334V65.0776C223.813 64.8721 223.85 64.6788 223.91 64.5096C223.971 64.3404 224.055 64.2075 224.164 64.0867C224.273 63.9779 224.406 63.8812 224.551 63.8208C224.708 63.7604 224.865 63.7242 225.046 63.7242C225.288 63.7242 225.469 63.7604 225.614 63.845C225.747 63.9296 225.856 64.0142 225.916 64.0988V62.5762H226.472V66.8902H225.94V66.5156ZM225.94 64.8721C225.94 64.7876 225.916 64.715 225.88 64.6305C225.844 64.5459 225.783 64.4734 225.711 64.4129C225.638 64.3525 225.554 64.3042 225.445 64.2559C225.348 64.2196 225.239 64.1954 225.119 64.1954C224.877 64.1954 224.696 64.28 224.563 64.4371C224.43 64.6063 224.369 64.8359 224.369 65.1259V65.5126C224.369 65.8147 224.43 66.0443 224.575 66.2014C224.708 66.3706 224.889 66.4431 225.119 66.4431C225.227 66.4431 225.336 66.431 225.433 66.3947C225.529 66.3585 225.614 66.3101 225.686 66.2376C225.759 66.1651 225.819 66.0805 225.868 65.9839C225.916 65.8872 225.928 65.7784 225.928 65.6576V64.8721H225.94Z" fill="black"/>
<path d="M152.301 70.2261C152.289 70.1899 152.264 70.1415 152.252 70.1053C152.24 70.069 152.216 70.0207 152.204 69.9844C152.192 69.9482 152.168 69.8998 152.156 69.8394C152.131 69.7911 152.119 69.7307 152.095 69.6582V73.1867H151.563V69.0781H152.397L153.533 71.7729L154.645 69.0781H155.467V73.1867H154.923V69.6582C154.899 69.7307 154.887 69.8032 154.862 69.8515C154.85 69.8998 154.826 69.9482 154.814 69.9965C154.802 70.0328 154.79 70.0811 154.766 70.1174C154.754 70.1536 154.729 70.2019 154.717 70.2382L153.739 72.5221H153.255L152.301 70.2261Z" fill="black"/>
<path d="M156.82 68.957V69.5612H156.228V68.957H156.82ZM156.808 70.0688V73.1864H156.252V70.0688H156.808Z" fill="black"/>
<path d="M160.143 73.1855H159.587V71.2521C159.587 70.9863 159.527 70.805 159.418 70.6842C159.309 70.5633 159.14 70.5029 158.911 70.5029C158.814 70.5029 158.717 70.515 158.633 70.5512C158.536 70.5875 158.451 70.6358 158.379 70.6962C158.306 70.7567 158.246 70.8412 158.198 70.9379C158.149 71.0346 158.125 71.1433 158.125 71.2642V73.1976H157.569V70.08H158.113V70.4787C158.21 70.3337 158.331 70.225 158.488 70.1404C158.645 70.0558 158.826 70.0195 159.044 70.0195C159.201 70.0195 159.334 70.0437 159.467 70.092C159.599 70.1404 159.72 70.2008 159.817 70.2975C159.914 70.3941 159.998 70.5029 160.047 70.6479C160.107 70.7929 160.131 70.95 160.131 71.1433V73.1855H160.143Z" fill="black"/>
<path d="M163.249 72.8955C163.116 72.9922 162.947 73.0647 162.754 73.1372C162.56 73.1976 162.331 73.2339 162.041 73.2339C161.847 73.2339 161.666 73.2097 161.497 73.1493C161.328 73.0889 161.183 73.0043 161.062 72.8955C160.941 72.7747 160.844 72.6297 160.772 72.4484C160.699 72.2672 160.663 72.0496 160.663 71.7959V71.4454C160.663 71.2038 160.699 70.9983 160.76 70.8292C160.82 70.66 160.917 70.5029 161.038 70.3821C161.159 70.2612 161.304 70.1766 161.461 70.1162C161.63 70.0558 161.799 70.0195 161.992 70.0195C162.391 70.0195 162.705 70.1404 162.947 70.3821C163.189 70.6237 163.297 70.9742 163.297 71.4213V71.8442H161.195V71.8684C161.195 72.1705 161.279 72.388 161.424 72.5451C161.581 72.7022 161.787 72.7747 162.029 72.7747C162.234 72.7747 162.403 72.7505 162.56 72.7022C162.705 72.6539 162.85 72.5813 162.983 72.4968L163.249 72.8955ZM162.017 70.4787C161.908 70.4787 161.799 70.5029 161.702 70.5391C161.606 70.5754 161.521 70.6358 161.449 70.7083C161.376 70.7808 161.328 70.8654 161.279 70.9621C161.243 71.0588 161.219 71.1675 161.219 71.2884V71.3729H162.778V71.2763C162.778 71.0346 162.705 70.8412 162.572 70.7083C162.452 70.5512 162.258 70.4787 162.017 70.4787Z" fill="black"/>
<path d="M165.57 70.612C165.521 70.5878 165.461 70.5758 165.401 70.5637C165.34 70.5516 165.268 70.5395 165.195 70.5395C165.098 70.5395 164.99 70.5637 164.905 70.5999C164.808 70.6362 164.736 70.6966 164.663 70.7691C164.591 70.8416 164.543 70.9262 164.494 71.0349C164.458 71.1316 164.434 71.2525 164.434 71.3733V73.1859H163.878V70.0682H164.422V70.5637C164.518 70.3945 164.627 70.2495 164.784 70.1528C164.929 70.0561 165.123 70.0078 165.34 70.0078C165.473 70.0078 165.606 70.032 165.739 70.0682L165.57 70.612Z" fill="black"/>
<path d="M166.97 73.2339C166.656 73.2339 166.403 73.1493 166.221 73.0043C166.04 72.8472 165.943 72.6297 165.943 72.3638V72.2067C165.943 71.9409 166.028 71.7234 166.209 71.5542C166.39 71.385 166.68 71.3004 167.079 71.3004H167.877V71.1192C167.877 70.9138 167.828 70.7567 167.72 70.66C167.623 70.5633 167.454 70.515 167.224 70.515C167.043 70.515 166.886 70.5391 166.753 70.5996C166.62 70.66 166.475 70.7325 166.33 70.8292L166.052 70.4183C166.209 70.3096 166.378 70.225 166.56 70.1404C166.753 70.0558 166.97 70.0195 167.224 70.0195C167.393 70.0195 167.563 70.0437 167.708 70.08C167.853 70.1283 167.973 70.1887 168.082 70.2733C168.191 70.3579 168.263 70.4666 168.324 70.5875C168.384 70.7083 168.409 70.8533 168.409 71.0104V73.1976H167.877V72.823C167.841 72.8834 167.804 72.9318 167.756 72.9801C167.708 73.0285 167.647 73.0647 167.587 73.101C167.502 73.1493 167.418 73.1855 167.321 73.2097C167.224 73.2218 167.103 73.2339 166.97 73.2339ZM167.865 71.7717H167.079C166.862 71.7717 166.705 71.8201 166.62 71.8926C166.523 71.9771 166.475 72.098 166.475 72.243V72.3276C166.475 72.4847 166.523 72.5934 166.632 72.6538C166.741 72.7263 166.862 72.7505 167.019 72.7505C167.152 72.7505 167.273 72.7384 167.369 72.7022C167.466 72.6659 167.563 72.6176 167.647 72.5572C167.72 72.4968 167.78 72.4363 167.804 72.3638C167.841 72.2913 167.853 72.1947 167.853 72.0738V71.7717H167.865Z" fill="black"/>
<path d="M169.69 68.8848V73.1988H169.134V68.8848H169.69Z" fill="black"/>
<path d="M172.301 73.1867H171.745V69.0781H173.231C173.437 69.0781 173.63 69.1023 173.787 69.1627C173.944 69.2231 174.089 69.2956 174.198 69.3923C174.307 69.489 174.392 69.6098 174.452 69.7428C174.512 69.8757 174.537 70.0328 174.537 70.1899V70.3349C174.537 70.5645 174.476 70.7699 174.355 70.9512C174.234 71.1324 174.065 71.2653 173.848 71.3499L174.657 73.1746H174.053L173.316 71.4587H173.219H172.301V73.1867V73.1867ZM172.301 70.9874H173.086C173.413 70.9874 173.63 70.927 173.775 70.8061C173.908 70.6853 173.981 70.5282 173.981 70.3228V70.214C173.981 70.0086 173.92 69.8515 173.775 69.7307C173.642 69.6098 173.437 69.5494 173.147 69.5494H172.301V70.9874Z" fill="black"/>
<path d="M177.664 72.8955C177.531 72.9922 177.362 73.0647 177.169 73.1372C176.975 73.1976 176.746 73.2339 176.456 73.2339C176.262 73.2339 176.081 73.2097 175.912 73.1493C175.743 73.0889 175.598 73.0043 175.477 72.8955C175.356 72.7747 175.259 72.6297 175.187 72.4484C175.114 72.2672 175.078 72.0496 175.078 71.7959V71.4454C175.078 71.2038 175.114 70.9983 175.175 70.8292C175.235 70.66 175.332 70.5029 175.453 70.3821C175.574 70.2612 175.719 70.1766 175.876 70.1162C176.045 70.0558 176.214 70.0195 176.407 70.0195C176.806 70.0195 177.12 70.1404 177.362 70.3821C177.604 70.6237 177.712 70.9742 177.712 71.4213V71.8442H175.61V71.8684C175.61 72.1705 175.694 72.388 175.839 72.5451C175.997 72.7022 176.202 72.7747 176.444 72.7747C176.649 72.7747 176.818 72.7505 176.975 72.7022C177.12 72.6539 177.265 72.5813 177.398 72.4968L177.664 72.8955ZM176.432 70.4787C176.323 70.4787 176.214 70.5029 176.117 70.5391C176.021 70.5754 175.936 70.6358 175.864 70.7083C175.791 70.7808 175.743 70.8654 175.694 70.9621C175.646 71.0588 175.634 71.1675 175.634 71.2884V71.3729H177.193V71.2763C177.193 71.0346 177.12 70.8412 176.987 70.7083C176.854 70.5512 176.673 70.4787 176.432 70.4787Z" fill="black"/>
<path d="M179.248 72.7513C179.454 72.7513 179.611 72.715 179.732 72.6425C179.841 72.57 179.901 72.4733 179.901 72.3404V72.2921C179.901 72.2316 179.889 72.1712 179.877 72.1229C179.853 72.0746 179.816 72.0383 179.768 72.002C179.72 71.9658 179.647 71.9416 179.551 71.9054C179.454 71.8812 179.345 71.845 179.188 71.8208C179.019 71.7845 178.862 71.7483 178.729 71.6999C178.596 71.6516 178.487 71.5912 178.39 71.5187C178.294 71.4462 178.233 71.3616 178.185 71.2649C178.137 71.1682 178.113 71.0474 178.113 70.9145V70.842C178.113 70.7332 178.137 70.6366 178.185 70.5278C178.233 70.4311 178.306 70.3344 178.403 70.2619C178.499 70.1774 178.62 70.1169 178.765 70.0686C178.91 70.0203 179.091 69.9961 179.285 69.9961C179.502 69.9961 179.696 70.0203 179.877 70.0686C180.058 70.1169 180.227 70.2015 180.384 70.3103L180.143 70.7332C180.046 70.6607 179.913 70.6003 179.78 70.552C179.635 70.5036 179.49 70.4795 179.333 70.4795C179.103 70.4795 178.934 70.5157 178.838 70.5882C178.741 70.6607 178.693 70.7453 178.693 70.8541V70.9024C178.693 71.0232 178.741 71.1199 178.85 71.1682C178.946 71.2287 179.128 71.277 179.369 71.3253C179.563 71.3616 179.72 71.3978 179.865 71.4462C180.01 71.4945 180.118 71.5549 180.215 71.6274C180.3 71.6999 180.372 71.7845 180.421 71.8933C180.469 71.99 180.493 72.1229 180.493 72.2679V72.3404C180.493 72.4612 180.469 72.5821 180.409 72.6787C180.348 72.7875 180.276 72.8721 180.167 72.9567C180.058 73.0292 179.937 73.1017 179.792 73.1379C179.647 73.1863 179.478 73.2104 179.297 73.2104C179.031 73.2104 178.801 73.1742 178.584 73.1017C178.366 73.0292 178.185 72.9446 178.04 72.8238L178.294 72.3887C178.439 72.4854 178.584 72.5579 178.741 72.6304C178.886 72.7271 179.055 72.7513 179.248 72.7513Z" fill="black"/>
<path d="M182.208 70.0195C182.643 70.0195 182.981 70.1404 183.223 70.3941C183.477 70.6358 183.598 70.9862 183.598 71.4454V71.8201C183.598 72.2672 183.477 72.6176 183.223 72.8714C182.969 73.113 182.631 73.246 182.208 73.246C181.785 73.246 181.435 73.1251 181.193 72.8714C180.939 72.6297 180.818 72.2793 180.818 71.8201V71.4454C180.818 70.9862 180.939 70.6358 181.193 70.3941C181.435 70.1404 181.773 70.0195 182.208 70.0195ZM182.208 72.7505C182.45 72.7505 182.655 72.6659 182.812 72.5088C182.969 72.3517 183.042 72.098 183.042 71.7717V71.4817C183.042 71.1554 182.969 70.9017 182.812 70.7446C182.655 70.5875 182.462 70.5029 182.208 70.5029C181.954 70.5029 181.761 70.5875 181.604 70.7446C181.447 70.9017 181.374 71.1554 181.374 71.4817V71.7717C181.374 72.098 181.447 72.3517 181.604 72.5088C181.761 72.678 181.954 72.7505 182.208 72.7505Z" fill="black"/>
<path d="M184.142 70.0687H184.697V72.0022C184.697 72.268 184.746 72.4493 184.855 72.5701C184.963 72.691 185.132 72.7514 185.362 72.7514C185.459 72.7514 185.555 72.7393 185.64 72.703C185.737 72.6668 185.809 72.6185 185.882 72.558C185.954 72.4976 186.015 72.413 186.063 72.3163C186.111 72.2197 186.135 72.1109 186.135 71.9901V70.0566H186.691V73.1743H186.148V72.7755C186.051 72.9206 185.93 73.0293 185.773 73.1139C185.616 73.1985 185.435 73.2347 185.217 73.2347C185.06 73.2347 184.927 73.2106 184.794 73.1622C184.661 73.1139 184.552 73.0535 184.456 72.9568C184.359 72.8601 184.287 72.7514 184.226 72.6064C184.166 72.4734 184.142 72.3043 184.142 72.1109V70.0687V70.0687Z" fill="black"/>
<path d="M189.133 70.612C189.085 70.5878 189.024 70.5758 188.964 70.5637C188.904 70.5516 188.831 70.5395 188.759 70.5395C188.662 70.5395 188.553 70.5637 188.469 70.5999C188.372 70.6362 188.299 70.6966 188.227 70.7691C188.154 70.8416 188.106 70.9262 188.058 71.0349C188.021 71.1316 187.997 71.2525 187.997 71.3733V73.1859H187.441V70.0682H187.985V70.5637C188.082 70.3945 188.191 70.2495 188.348 70.1528C188.493 70.0561 188.686 70.0078 188.904 70.0078C189.036 70.0078 189.169 70.032 189.302 70.0682L189.133 70.612Z" fill="black"/>
<path d="M190.849 70.0078C191.102 70.0078 191.32 70.044 191.489 70.1045C191.658 70.1649 191.803 70.2495 191.936 70.3462L191.67 70.757C191.525 70.6483 191.392 70.5757 191.271 70.5395C191.151 70.5032 191.006 70.4912 190.861 70.4912C190.764 70.4912 190.655 70.5032 190.559 70.5395C190.462 70.5757 190.377 70.6241 190.305 70.6966C190.232 70.7691 190.172 70.8658 190.136 70.9745C190.087 71.0833 190.075 71.2283 190.075 71.3854V71.7841C190.075 71.9533 190.099 72.0983 190.136 72.2192C190.184 72.34 190.244 72.4367 190.317 72.5092C190.389 72.5817 190.474 72.6421 190.571 72.6663C190.667 72.7025 190.764 72.7146 190.873 72.7146C191.078 72.7146 191.247 72.6905 191.38 72.63C191.513 72.5817 191.634 72.5092 191.743 72.4246L192.009 72.8475C191.9 72.9442 191.755 73.0167 191.561 73.1013C191.38 73.1738 191.139 73.2101 190.849 73.2101C190.414 73.2101 190.087 73.0892 189.846 72.8355C189.616 72.5817 189.495 72.2313 189.495 71.7841V71.3854C189.495 71.1558 189.531 70.9624 189.592 70.7933C189.652 70.6241 189.749 70.4791 189.858 70.3582C189.978 70.2374 190.111 70.1528 190.281 70.0803C190.462 70.0441 190.643 70.0078 190.849 70.0078Z" fill="black"/>
<path d="M194.836 72.8955C194.703 72.9922 194.534 73.0647 194.341 73.1372C194.147 73.1976 193.918 73.2339 193.628 73.2339C193.434 73.2339 193.253 73.2097 193.084 73.1493C192.915 73.0889 192.77 73.0043 192.649 72.8955C192.528 72.7747 192.431 72.6297 192.359 72.4484C192.286 72.2672 192.25 72.0496 192.25 71.7959V71.4454C192.25 71.2038 192.286 70.9983 192.347 70.8292C192.407 70.66 192.504 70.5029 192.625 70.3821C192.745 70.2612 192.89 70.1766 193.048 70.1162C193.217 70.0558 193.386 70.0195 193.579 70.0195C193.978 70.0195 194.292 70.1404 194.534 70.3821C194.776 70.6237 194.884 70.9742 194.884 71.4213V71.8442H192.782V71.8684C192.782 72.1705 192.866 72.388 193.011 72.5451C193.168 72.7022 193.374 72.7747 193.616 72.7747C193.821 72.7747 193.99 72.7505 194.147 72.7022C194.292 72.6539 194.437 72.5813 194.57 72.4968L194.836 72.8955ZM193.603 70.4787C193.495 70.4787 193.386 70.5029 193.289 70.5391C193.193 70.5754 193.108 70.6358 193.035 70.7083C192.963 70.7808 192.915 70.8654 192.866 70.9621C192.818 71.0588 192.806 71.1675 192.806 71.2884V71.3729H194.365V71.2763C194.365 71.0346 194.292 70.8412 194.159 70.7083C194.038 70.5512 193.845 70.4787 193.603 70.4787Z" fill="black"/>
<path d="M196.419 72.7513C196.625 72.7513 196.782 72.715 196.903 72.6425C197.011 72.57 197.072 72.4733 197.072 72.3404V72.2921C197.072 72.2316 197.06 72.1712 197.048 72.1229C197.024 72.0746 196.987 72.0383 196.939 72.002C196.891 71.9658 196.818 71.9416 196.721 71.9054C196.625 71.8812 196.516 71.845 196.359 71.8208C196.19 71.7845 196.033 71.7483 195.9 71.6999C195.767 71.6516 195.658 71.5912 195.561 71.5187C195.465 71.4462 195.404 71.3616 195.356 71.2649C195.308 71.1682 195.283 71.0474 195.283 70.9145V70.842C195.283 70.7332 195.308 70.6366 195.356 70.5278C195.404 70.4311 195.477 70.3344 195.573 70.2619C195.67 70.1774 195.791 70.1169 195.936 70.0686C196.081 70.0203 196.262 69.9961 196.456 69.9961C196.673 69.9961 196.866 70.0203 197.048 70.0686C197.229 70.1169 197.398 70.2015 197.555 70.3103L197.314 70.7332C197.217 70.6607 197.084 70.6003 196.951 70.552C196.806 70.5036 196.661 70.4795 196.504 70.4795C196.274 70.4795 196.105 70.5157 196.008 70.5882C195.912 70.6607 195.863 70.7453 195.863 70.8541V70.9024C195.863 71.0232 195.912 71.1199 196.021 71.1682C196.117 71.2287 196.298 71.277 196.54 71.3253C196.734 71.3616 196.891 71.3978 197.036 71.4462C197.181 71.4945 197.289 71.5549 197.386 71.6274C197.471 71.6999 197.543 71.7845 197.591 71.8933C197.64 71.99 197.664 72.1229 197.664 72.2679V72.3404C197.664 72.4612 197.64 72.5821 197.579 72.6787C197.519 72.7875 197.446 72.8721 197.338 72.9567C197.229 73.0292 197.108 73.1017 196.963 73.1379C196.818 73.1863 196.649 73.2104 196.468 73.2104C196.202 73.2104 195.972 73.1742 195.755 73.1017C195.537 73.0292 195.356 72.9446 195.211 72.8238L195.465 72.3887C195.61 72.4854 195.755 72.5579 195.912 72.6304C196.057 72.7271 196.238 72.7513 196.419 72.7513Z" fill="black"/>
<path d="M202.424 72.7274C202.219 72.9207 201.989 73.0657 201.748 73.1382C201.506 73.2107 201.24 73.247 200.962 73.247C200.708 73.247 200.491 73.2107 200.285 73.1382C200.08 73.0657 199.911 72.957 199.766 72.7999C199.621 72.6428 199.512 72.4615 199.427 72.2319C199.343 72.0144 199.307 71.7486 199.307 71.4344V70.8181C199.307 70.516 199.343 70.2501 199.427 70.0326C199.512 69.803 199.621 69.6218 199.766 69.4647C199.911 69.3076 200.08 69.1988 200.285 69.1263C200.491 69.0538 200.708 69.0176 200.95 69.0176C201.24 69.0176 201.482 69.0538 201.699 69.1263C201.917 69.1988 202.11 69.3076 202.303 69.4647L202.013 69.9239C201.832 69.7668 201.651 69.6701 201.482 69.6218C201.313 69.5734 201.131 69.5493 200.95 69.5493C200.793 69.5493 200.648 69.5734 200.515 69.6339C200.382 69.6822 200.273 69.7668 200.177 69.8756C200.08 69.9843 200.008 70.1293 199.947 70.2985C199.899 70.4677 199.863 70.6731 199.863 70.9027V71.374C199.863 71.6156 199.887 71.809 199.947 71.9782C199.995 72.1473 200.08 72.2924 200.177 72.4011C200.273 72.5099 200.382 72.5944 200.515 72.6428C200.648 72.6911 200.793 72.7274 200.95 72.7274C201.143 72.7274 201.349 72.6911 201.542 72.6307C201.736 72.5703 201.929 72.4615 202.098 72.2924L202.424 72.7274Z" fill="black"/>
<path d="M204.129 70.0195C204.564 70.0195 204.902 70.1404 205.144 70.3941C205.398 70.6358 205.519 70.9862 205.519 71.4454V71.8201C205.519 72.2672 205.398 72.6176 205.144 72.8714C204.89 73.113 204.552 73.246 204.129 73.246C203.706 73.246 203.356 73.1251 203.114 72.8714C202.86 72.6297 202.739 72.2793 202.739 71.8201V71.4454C202.739 70.9862 202.86 70.6358 203.114 70.3941C203.368 70.1404 203.706 70.0195 204.129 70.0195ZM204.129 72.7505C204.371 72.7505 204.576 72.6659 204.733 72.5088C204.89 72.3517 204.963 72.098 204.963 71.7717V71.4817C204.963 71.1554 204.89 70.9017 204.733 70.7446C204.576 70.5875 204.383 70.5029 204.129 70.5029C203.875 70.5029 203.682 70.5875 203.525 70.7446C203.368 70.9017 203.295 71.1554 203.295 71.4817V71.7717C203.295 72.098 203.368 72.3517 203.525 72.5088C203.682 72.678 203.887 72.7505 204.129 72.7505Z" fill="black"/>
<path d="M207.816 70.612C207.767 70.5878 207.707 70.5758 207.647 70.5637C207.586 70.5516 207.514 70.5395 207.441 70.5395C207.345 70.5395 207.236 70.5637 207.151 70.5999C207.054 70.6362 206.982 70.6966 206.909 70.7691C206.837 70.8416 206.789 70.9262 206.74 71.0349C206.704 71.1316 206.68 71.2525 206.68 71.3733V73.1859H206.124V70.0682H206.668V70.5637C206.764 70.3945 206.873 70.2495 207.03 70.1528C207.175 70.0561 207.369 70.0078 207.586 70.0078C207.719 70.0078 207.852 70.032 207.985 70.0682L207.816 70.612Z" fill="black"/>
<path d="M208.878 70.4546C208.975 70.2975 209.096 70.1887 209.265 70.1162C209.434 70.0437 209.603 70.0195 209.797 70.0195C210.196 70.0195 210.498 70.1404 210.703 70.37C210.908 70.6116 211.017 70.9258 211.017 71.3488V71.9046C211.017 72.1221 210.981 72.3155 210.921 72.4726C210.86 72.6418 210.776 72.7747 210.667 72.8955C210.558 73.0043 210.425 73.101 210.268 73.1493C210.111 73.2097 209.942 73.2339 209.761 73.2339C209.531 73.2339 209.35 73.1976 209.205 73.113C209.072 73.0285 208.963 72.9439 208.903 72.8593V74.4181H208.347V70.08H208.878V70.4546V70.4546ZM208.89 72.0738C208.89 72.1584 208.915 72.2309 208.951 72.3155C208.987 72.4001 209.048 72.4726 209.12 72.533C209.193 72.5934 209.277 72.6418 209.374 72.6901C209.47 72.7263 209.579 72.7505 209.7 72.7505C209.942 72.7505 210.123 72.6659 210.256 72.5088C210.389 72.3517 210.449 72.1101 210.449 71.8201V71.4334C210.449 71.1313 210.389 70.9017 210.244 70.7446C210.111 70.5754 209.93 70.5029 209.7 70.5029C209.591 70.5029 209.483 70.515 209.386 70.5633C209.289 70.6116 209.205 70.66 209.132 70.7204C209.06 70.7929 208.999 70.8775 208.951 70.9742C208.903 71.0708 208.89 71.1796 208.89 71.3004V72.0738V72.0738Z" fill="black"/>
<path d="M211.67 72.7637H212.322V73.4162H211.67V72.7637Z" fill="black"/>
</svg>
