<svg width="330" height="200" viewBox="0 0 330 200" fill="none" xmlns="http://www.w3.org/2000/svg">
<path d="M164.874 86.8904L153.697 103.858L142.52 86.8904L153.697 69.9355L164.874 86.8904Z" fill="#0082CB"/>
<path d="M164.874 86.8904L176.051 103.858L187.228 86.8904L176.051 69.9355L164.874 86.8904Z" fill="#0082CB"/>
<path d="M153.693 69.9237L164.871 86.8912L176.048 69.9237L164.871 52.9688L153.693 69.9237Z" fill="#0082CB"/>
<path d="M142.519 86.8906L131.342 103.858H153.696L142.519 86.8906Z" fill="#0082CB"/>
<path d="M187.227 86.8906L176.05 103.858H198.391L187.227 86.8906Z" fill="#0082CB"/>
<path d="M164.874 86.8904L153.697 103.858L142.52 86.8904L153.697 69.9355L164.874 86.8904Z" fill="#00A0D8"/>
<path d="M164.874 86.8904L176.051 103.858L187.228 86.8904L176.051 69.9355L164.874 86.8904Z" fill="#00A0D8"/>
<path d="M153.693 69.9237L164.871 86.8912L176.048 69.9237L164.871 52.9688L153.693 69.9237Z" fill="#62B9E3"/>
<path d="M142.519 86.8906L131.342 103.858H153.696L142.519 86.8906Z" fill="#0082CB"/>
<path d="M187.227 86.8906L176.05 103.858H198.391L187.227 86.8906Z" fill="#0082CB"/>
<path d="M198.391 52.9675L187.227 36L176.05 52.9675H198.391Z" fill="#62B9E3"/>
<path d="M176.049 52.9668L187.226 69.9343L198.39 52.9668H176.049Z" fill="#00A0D8"/>
<path d="M130.105 117.977H124.958L115.699 128.826H112.936V117.977H109V144.506H112.936V132.711H115.699L125.841 144.506H130.988L119.193 130.756L130.105 117.977Z" fill="black"/>
<path d="M195.743 117.977H191.807V144.506H195.743V117.977Z" fill="black"/>
<path d="M214.274 133.695C217.542 132.56 219.686 129.658 219.686 126.126C219.686 121.408 216.066 117.977 211.07 117.977H201.041V144.506H204.977V134.225H210.036L216.179 144.506H220.733L214.274 133.695ZM204.99 121.875H211.032C213.808 121.875 215.738 123.616 215.738 126.113C215.738 128.599 213.795 130.327 211.032 130.327H204.99V121.875Z" fill="black"/>
<path d="M183.391 117.977L173.993 137.871L164.607 117.977H161.517V144.506H165.503V129.065L172.883 144.506H175.103L182.483 129.065V144.506H186.482V117.977H183.391Z" fill="black"/>
<path d="M143.957 117.623C136.439 117.623 130.333 123.716 130.333 131.248C130.333 138.766 136.426 144.872 143.957 144.872C151.476 144.872 157.582 138.779 157.582 131.248C157.582 123.729 151.476 117.623 143.957 117.623ZM143.957 141.201C138.457 141.201 134.004 136.748 134.004 131.248C134.004 125.747 138.457 121.294 143.957 121.294C149.458 121.294 153.911 125.747 153.911 131.248C153.911 136.748 149.458 141.201 143.957 141.201Z" fill="black"/>
<path d="M149.837 154.586C149.837 154.864 149.812 155.166 149.774 155.494C149.736 155.822 149.673 156.176 149.597 156.554L150.644 156.68C150.682 156.516 150.72 156.352 150.745 156.163C150.783 155.974 150.808 155.785 150.821 155.583C150.846 155.381 150.859 155.179 150.871 154.99C150.884 154.788 150.884 154.611 150.884 154.435V153.236H146.002V154.157H149.824V154.586H149.837Z" fill="#101820"/>
<path d="M152.421 159.555C152.156 159.404 151.828 159.278 151.45 159.19C151.071 159.101 150.642 159.051 150.176 159.051C149.696 159.051 149.267 159.101 148.889 159.19C148.51 159.278 148.182 159.404 147.905 159.555C147.64 159.707 147.426 159.896 147.287 160.11C147.148 160.325 147.072 160.565 147.072 160.83V161.17C147.072 161.422 147.148 161.662 147.287 161.889C147.426 162.104 147.64 162.293 147.905 162.444C148.17 162.596 148.498 162.722 148.889 162.81C149.267 162.898 149.696 162.949 150.176 162.949C150.655 162.949 151.071 162.898 151.45 162.81C151.828 162.722 152.156 162.596 152.421 162.444C152.686 162.293 152.901 162.104 153.039 161.889C153.191 161.675 153.254 161.435 153.254 161.17V160.83C153.254 160.577 153.178 160.338 153.039 160.11C152.901 159.896 152.686 159.707 152.421 159.555ZM152.219 161.107C152.219 161.221 152.169 161.334 152.081 161.448C151.992 161.561 151.853 161.675 151.677 161.776C151.5 161.877 151.286 161.952 151.033 162.015C150.781 162.078 150.491 162.104 150.15 162.104C149.822 162.104 149.532 162.078 149.267 162.015C149.002 161.952 148.801 161.877 148.624 161.776C148.447 161.675 148.321 161.574 148.22 161.448C148.132 161.334 148.082 161.221 148.082 161.107V160.893C148.082 160.779 148.132 160.678 148.22 160.552C148.309 160.438 148.447 160.325 148.624 160.224C148.801 160.123 149.015 160.047 149.267 159.984C149.52 159.921 149.81 159.896 150.15 159.896C150.478 159.896 150.769 159.921 151.033 159.984C151.286 160.047 151.5 160.123 151.677 160.224C151.853 160.325 151.98 160.426 152.081 160.552C152.169 160.666 152.219 160.779 152.219 160.893V161.107Z" fill="#101820"/>
<path d="M153.255 152.781H152.195V158.786H153.255V156.301H154.655V155.38H153.255V152.781Z" fill="#101820"/>
<path d="M151.666 157.474H148.424V155.418H147.364V157.474H145.358V158.383H151.666V157.474Z" fill="#101820"/>
<path d="M170.159 154.586C170.159 154.864 170.134 155.166 170.096 155.494C170.058 155.822 169.995 156.176 169.92 156.554L170.967 156.68C171.004 156.516 171.042 156.352 171.068 156.163C171.105 155.974 171.131 155.785 171.143 155.583C171.168 155.381 171.181 155.179 171.194 154.99C171.206 154.788 171.206 154.611 171.206 154.435V153.236H166.324V154.157H170.147V154.586H170.159Z" fill="#101820"/>
<path d="M172.734 159.555C172.469 159.404 172.141 159.278 171.762 159.19C171.384 159.101 170.955 159.051 170.488 159.051C170.009 159.051 169.58 159.101 169.201 159.19C168.823 159.278 168.495 159.404 168.217 159.555C167.952 159.707 167.738 159.896 167.599 160.11C167.46 160.325 167.385 160.565 167.385 160.83V161.17C167.385 161.422 167.46 161.662 167.599 161.889C167.738 162.104 167.952 162.293 168.217 162.444C168.482 162.596 168.81 162.722 169.201 162.81C169.58 162.898 170.009 162.949 170.488 162.949C170.967 162.949 171.384 162.898 171.762 162.81C172.141 162.722 172.469 162.596 172.734 162.444C172.999 162.293 173.213 162.104 173.352 161.889C173.503 161.675 173.566 161.435 173.566 161.17V160.83C173.566 160.577 173.491 160.338 173.352 160.11C173.213 159.896 173.011 159.707 172.734 159.555ZM172.544 161.107C172.544 161.221 172.494 161.334 172.406 161.448C172.317 161.561 172.179 161.675 172.002 161.776C171.825 161.877 171.611 161.952 171.359 162.015C171.106 162.078 170.816 162.104 170.476 162.104C170.148 162.104 169.857 162.078 169.592 162.015C169.34 161.952 169.126 161.877 168.949 161.776C168.772 161.675 168.646 161.574 168.545 161.448C168.457 161.334 168.407 161.221 168.407 161.107V160.893C168.407 160.779 168.457 160.678 168.545 160.552C168.634 160.438 168.772 160.325 168.949 160.224C169.126 160.123 169.34 160.047 169.592 159.984C169.845 159.921 170.135 159.896 170.476 159.896C170.804 159.896 171.094 159.921 171.359 159.984C171.611 160.047 171.825 160.123 172.002 160.224C172.179 160.325 172.305 160.426 172.406 160.552C172.494 160.666 172.544 160.779 172.544 160.893V161.107Z" fill="#101820"/>
<path d="M173.578 152.781H172.519V158.786H173.578V156.301H174.979V155.38H173.578V152.781Z" fill="#101820"/>
<path d="M171.987 157.474H168.745L168.733 155.418H167.685V157.474H165.667V158.383H171.987V157.474Z" fill="#101820"/>
<path d="M133.475 152.781H132.428V159.985H133.475V156.667H134.888V155.733H133.475V152.781Z" fill="#101820"/>
<path d="M128.477 159.859H127.417V162.597H133.75V161.676H128.477V159.859Z" fill="#101820"/>
<path d="M128.617 159.153C129.008 159.153 129.336 159.102 129.626 159.001C129.917 158.9 130.156 158.762 130.345 158.585C130.535 158.408 130.686 158.219 130.787 158.005C130.888 157.79 130.938 157.563 130.938 157.336V157.008C130.938 156.781 130.888 156.554 130.787 156.339C130.686 156.125 130.547 155.923 130.345 155.759C130.156 155.582 129.917 155.444 129.626 155.343C129.336 155.242 128.996 155.191 128.617 155.191C128.226 155.191 127.898 155.242 127.608 155.343C127.318 155.444 127.078 155.582 126.889 155.746C126.7 155.91 126.548 156.112 126.447 156.327C126.346 156.541 126.309 156.768 126.309 157.008V157.336C126.309 157.563 126.359 157.79 126.447 158.005C126.548 158.219 126.687 158.421 126.889 158.585C127.078 158.762 127.318 158.9 127.608 159.001C127.886 159.102 128.226 159.153 128.617 159.153ZM127.305 157.26V157.046C127.305 156.92 127.33 156.794 127.381 156.667C127.431 156.541 127.52 156.428 127.621 156.339C127.734 156.238 127.86 156.163 128.024 156.112C128.188 156.049 128.378 156.024 128.605 156.024C128.832 156.024 129.021 156.049 129.185 156.112C129.349 156.175 129.475 156.251 129.589 156.339C129.702 156.44 129.778 156.541 129.828 156.667C129.879 156.794 129.904 156.92 129.904 157.046V157.26C129.904 157.386 129.879 157.513 129.828 157.639C129.778 157.765 129.689 157.878 129.589 157.967C129.475 158.068 129.349 158.143 129.185 158.194C129.021 158.257 128.832 158.282 128.617 158.282C128.403 158.282 128.214 158.257 128.05 158.194C127.886 158.131 127.747 158.055 127.646 157.967C127.532 157.866 127.457 157.752 127.406 157.639C127.343 157.525 127.305 157.399 127.305 157.26Z" fill="#101820"/>
<path d="M131.455 153.879H129.134V152.693H128.087V153.879H125.766V154.787H131.455V153.879Z" fill="#101820"/>
<path d="M143.022 155.557C143.06 155.179 143.072 154.826 143.072 154.535V153.186H136.537V154.094H142V154.498C142 154.826 141.987 155.166 141.949 155.545C141.912 155.923 141.848 156.314 141.76 156.718H135.352V157.626H139.338V159.354H136.525V160.263H142.126V162.836H143.186V159.354H140.41V157.626H144.46V156.718H142.87C142.933 156.327 142.984 155.948 143.022 155.557Z" fill="#101820"/>
<path d="M159.713 156.428C159.524 156.251 159.284 156.113 159.02 155.999C158.755 155.898 158.452 155.848 158.124 155.848C157.796 155.848 157.493 155.898 157.228 155.999C156.963 156.1 156.724 156.239 156.534 156.428C156.345 156.605 156.194 156.806 156.093 157.046C155.992 157.273 155.941 157.525 155.941 157.778V158.295C155.941 158.547 155.992 158.8 156.093 159.027C156.194 159.254 156.345 159.456 156.534 159.645C156.724 159.821 156.963 159.96 157.228 160.074C157.493 160.187 157.796 160.225 158.124 160.225C158.452 160.225 158.755 160.175 159.02 160.074C159.284 159.973 159.524 159.834 159.713 159.645C159.903 159.468 160.054 159.266 160.155 159.027C160.256 158.8 160.306 158.547 160.306 158.295V157.778C160.306 157.525 160.256 157.273 160.155 157.046C160.054 156.806 159.903 156.605 159.713 156.428ZM159.36 158.232C159.36 158.358 159.335 158.484 159.284 158.623C159.234 158.749 159.146 158.875 159.045 158.976C158.944 159.09 158.805 159.165 158.654 159.241C158.502 159.304 158.326 159.342 158.124 159.342C157.922 159.342 157.745 159.304 157.594 159.241C157.443 159.178 157.316 159.09 157.203 158.976C157.102 158.863 157.026 158.749 156.963 158.623C156.913 158.497 156.888 158.371 156.888 158.232V157.828C156.888 157.702 156.913 157.576 156.963 157.437C157.014 157.311 157.102 157.185 157.203 157.084C157.304 156.97 157.43 156.895 157.594 156.819C157.745 156.756 157.922 156.718 158.124 156.718C158.326 156.718 158.502 156.756 158.654 156.819C158.805 156.882 158.931 156.97 159.045 157.084C159.146 157.198 159.221 157.311 159.284 157.437C159.335 157.563 159.36 157.689 159.36 157.828V158.232Z" fill="#101820"/>
<path d="M158.603 153.072H157.556V154.46H155.562V155.343H160.47V154.46H158.603V153.072Z" fill="#101820"/>
<path d="M163.22 156.465H162.148V152.781H161.113V162.709H162.148V157.398H163.22V162.709H164.267V152.781H163.22V156.465Z" fill="#101820"/>
<path d="M182.697 159.605H178.622V158.344H177.562V162.709H183.757V158.344H182.697V159.605V159.605ZM182.697 161.8H178.622V160.501H182.697V161.8Z" fill="#101820"/>
<path d="M182.698 154.939H180.68C180.642 154.712 180.566 154.485 180.453 154.271C180.339 154.056 180.175 153.867 179.974 153.69C179.772 153.526 179.519 153.388 179.242 153.287C178.952 153.186 178.624 153.135 178.258 153.135C177.854 153.135 177.488 153.198 177.186 153.312C176.883 153.438 176.618 153.59 176.416 153.791C176.214 153.993 176.063 154.208 175.949 154.46C175.848 154.712 175.798 154.952 175.798 155.204V155.608C175.798 155.86 175.848 156.113 175.949 156.352C176.05 156.605 176.202 156.819 176.416 157.021C176.618 157.223 176.883 157.374 177.186 157.5C177.488 157.626 177.854 157.677 178.258 157.677C178.636 157.677 178.964 157.626 179.254 157.526C179.545 157.425 179.797 157.286 179.999 157.109C180.201 156.933 180.365 156.743 180.478 156.516C180.592 156.289 180.667 156.062 180.693 155.835H182.711V157.853H183.771V152.77H182.711V154.939H182.698ZM179.683 155.558C179.683 155.709 179.646 155.86 179.582 155.999C179.519 156.138 179.418 156.277 179.305 156.39C179.179 156.504 179.027 156.605 178.851 156.668C178.674 156.743 178.472 156.781 178.233 156.781C178.006 156.781 177.804 156.743 177.614 156.668C177.438 156.592 177.286 156.504 177.16 156.39C177.034 156.277 176.946 156.15 176.883 155.999C176.82 155.86 176.782 155.709 176.782 155.558V155.255C176.782 155.103 176.82 154.952 176.883 154.813C176.946 154.674 177.034 154.548 177.16 154.435C177.286 154.321 177.438 154.233 177.614 154.157C177.791 154.082 177.993 154.044 178.233 154.044C178.46 154.044 178.662 154.082 178.851 154.157C179.027 154.233 179.179 154.321 179.305 154.435C179.431 154.548 179.519 154.674 179.582 154.813C179.646 154.952 179.683 155.103 179.683 155.255V155.558Z" fill="#101820"/>
<path d="M191.681 159.455C191.404 159.291 191.076 159.177 190.697 159.089C190.319 159.013 189.915 158.963 189.474 158.963C189.032 158.963 188.628 159.001 188.25 159.089C187.871 159.177 187.543 159.291 187.266 159.455C186.988 159.619 186.761 159.808 186.61 160.023C186.446 160.25 186.37 160.502 186.37 160.792V161.183C186.37 161.473 186.446 161.726 186.61 161.953C186.761 162.18 186.988 162.369 187.266 162.52C187.543 162.672 187.871 162.798 188.25 162.874C188.628 162.962 189.032 163 189.474 163C189.915 163 190.319 162.962 190.697 162.874C191.076 162.785 191.404 162.672 191.681 162.52C191.959 162.369 192.186 162.18 192.337 161.953C192.489 161.726 192.577 161.473 192.577 161.183V160.792C192.577 160.502 192.501 160.25 192.337 160.023C192.186 159.795 191.959 159.606 191.681 159.455ZM191.517 161.108C191.517 161.246 191.467 161.385 191.353 161.511C191.24 161.637 191.101 161.738 190.912 161.827C190.735 161.915 190.508 161.991 190.268 162.041C190.016 162.091 189.751 162.117 189.461 162.117C189.171 162.117 188.906 162.091 188.653 162.041C188.401 161.991 188.187 161.915 188.01 161.827C187.834 161.738 187.682 161.625 187.569 161.511C187.455 161.385 187.405 161.259 187.405 161.108V160.855C187.405 160.716 187.455 160.59 187.569 160.464C187.682 160.338 187.821 160.237 188.01 160.136C188.199 160.048 188.414 159.972 188.653 159.922C188.906 159.871 189.171 159.846 189.461 159.846C189.751 159.846 190.016 159.871 190.268 159.922C190.521 159.972 190.735 160.048 190.912 160.136C191.088 160.224 191.24 160.338 191.353 160.464C191.467 160.59 191.517 160.716 191.517 160.855V161.108Z" fill="#101820"/>
<path d="M191.592 154.46C191.592 154.75 191.58 155.09 191.542 155.456C191.504 155.822 191.441 156.213 191.353 156.629L192.412 156.743C192.45 156.554 192.5 156.339 192.526 156.125C192.564 155.91 192.589 155.696 192.614 155.481C192.639 155.267 192.652 155.078 192.665 154.889C192.677 154.712 192.677 154.561 192.677 154.447V153.186H186.117V154.094H191.592V154.46V154.46Z" fill="#101820"/>
<path d="M189.459 155.406H188.387V157.349H184.918V158.257H194.026V157.349H189.459V155.406Z" fill="#101820"/>
<path d="M202.58 155.367V152.781H201.521V159.871H202.58V156.301H203.981V155.367H202.58Z" fill="#101820"/>
<path d="M197.585 159.303H196.513V162.595H202.846V161.674H197.585V159.303Z" fill="#101820"/>
<path d="M200.726 157.336H196.247V154.346H199.792V153.438H195.2V158.257H200.726V157.336Z" fill="#101820"/>
</svg>
