<svg width="78" height="78" viewBox="0 0 78 78" fill="none" xmlns="http://www.w3.org/2000/svg">
<circle opacity="0.4" cx="49.4795" cy="36.4795" r="27.4795" fill="url(#paint0_linear_540_8101)"/>
<path d="M49.1913 14.216C49.1913 19.3057 42.9748 23.4397 42.9748 23.4397C42.9748 23.4397 36.7583 19.3057 36.7583 14.216C36.7583 9.1262 42.9748 5 42.9748 5C42.9748 5 49.1913 9.1262 49.1913 14.216Z" fill="#1768C7"/>
<path d="M42.959 9.66992V41.5684" stroke="#4B8FED" stroke-width="2" stroke-linecap="round" stroke-linejoin="round"/>
<path d="M50.9084 43.4033C50.0292 42.0551 48.8212 40.9529 47.3983 40.2007C45.9754 39.4484 44.3844 39.0709 42.7752 39.1035C41.166 39.1362 39.5917 39.578 38.2004 40.3873C36.8092 41.1967 35.6469 42.3469 34.8232 43.7296C34.0835 43.5137 33.3169 43.4038 32.5464 43.4033C31.1567 43.4082 29.7906 43.762 28.5732 44.4323C27.3559 45.1025 26.3264 46.0677 25.5791 47.2393C24.8317 48.4108 24.3906 49.7514 24.2961 51.1378C24.2016 52.5242 24.4567 53.9122 25.0381 55.1743C25.6195 56.4365 26.5085 57.5325 27.6236 58.3618C28.7387 59.191 30.0442 59.7269 31.4203 59.9204C32.7964 60.1139 34.1991 59.9588 35.4996 59.4692C36.8002 58.9797 37.957 58.1713 38.8639 57.1184C40.6452 57.9836 42.653 58.2683 44.6046 57.9323C46.5563 57.5964 48.3533 56.6568 49.7428 55.2457C50.127 55.3199 50.5171 55.3589 50.9084 55.3623C52.4569 55.3065 53.9234 54.652 54.9992 53.5367C56.075 52.4215 56.6762 50.9323 56.6762 49.3828C56.6762 47.8332 56.075 46.3441 54.9992 45.2288C53.9234 44.1135 52.4569 43.4591 50.9084 43.4033V43.4033Z" fill="white" stroke="#20335B" stroke-width="2" stroke-linecap="round" stroke-linejoin="round"/>
<path d="M10.6722 47.2017L20.5565 48.8569L26.4699 46.7588C27.4518 46.4137 28.4939 46.2729 29.5322 46.3451C30.5704 46.4173 31.583 46.7008 32.5077 47.1784L38.2347 50.1468L34.023 56.2778L39.4625 57.1948L60.3888 46.4868C61.0215 46.1618 61.751 46.0789 62.4406 46.2534C63.1301 46.4279 63.7323 46.848 64.1342 47.4348V47.4348C64.3564 47.7588 64.5112 48.1241 64.5894 48.5091C64.6675 48.8941 64.6675 49.2909 64.5892 49.6758C64.5109 50.0608 64.3559 50.4261 64.1336 50.7499C63.9113 51.0738 63.6261 51.3496 63.295 51.561L43.0913 64.4059C42.2919 64.9141 41.3952 65.2499 40.4585 65.3917C39.5219 65.5336 38.566 65.4783 37.6519 65.2296L19.1189 60.1631L8.79175 58.4303" fill="white"/>
<path d="M10.6722 47.2017L20.5565 48.8569L26.4699 46.7588C27.4518 46.4137 28.4939 46.2729 29.5322 46.3451C30.5704 46.4173 31.583 46.7008 32.5077 47.1784L38.2347 50.1468L34.023 56.2778L39.4625 57.1948L60.3888 46.4868C61.0215 46.1618 61.751 46.0789 62.4406 46.2534C63.1301 46.4279 63.7323 46.848 64.1342 47.4348V47.4348C64.3564 47.7588 64.5112 48.1241 64.5894 48.5091C64.6675 48.8941 64.6675 49.2909 64.5892 49.6758C64.5109 50.0608 64.3559 50.4261 64.1336 50.7499C63.9113 51.0738 63.6261 51.3496 63.295 51.561L43.0913 64.4059C42.2919 64.9141 41.3952 65.2499 40.4585 65.3917C39.5219 65.5336 38.566 65.4783 37.6519 65.2296L19.1189 60.1631L8.79175 58.4303" stroke="#20335B" stroke-width="2" stroke-linecap="round" stroke-linejoin="round"/>
<path d="M32.795 47.3262L38.2345 50.1469L45.8108 50.7996C46.3359 50.8454 46.83 51.0678 47.2124 51.4305C47.5949 51.7932 47.8431 52.2748 47.9167 52.7967C47.9987 53.3626 47.8698 53.9389 47.5546 54.416C47.2394 54.8931 46.7599 55.2377 46.2071 55.3843L39.4855 57.1793L31.3652 55.8195" fill="white"/>
<path d="M32.795 47.3262L38.2345 50.1469L45.8108 50.7996C46.3359 50.8454 46.83 51.0678 47.2124 51.4305C47.5949 51.7932 47.8431 52.2748 47.9167 52.7967C47.9987 53.3626 47.8698 53.9389 47.5546 54.416C47.2394 54.8931 46.7599 55.2377 46.2071 55.3843L39.4855 57.1793L31.3652 55.8195" stroke="#20335B" stroke-width="2" stroke-linecap="round" stroke-linejoin="round"/>
<path d="M17.0593 63.4273V45.9434H10.6719V63.4273H17.0593Z" fill="white" stroke="#20335B" stroke-width="2" stroke-linecap="round" stroke-linejoin="round"/>
<path d="M2 43.9236H10.672V65.456H2" fill="white"/>
<path d="M2 43.9236H10.672V65.456H2" stroke="#20335B" stroke-width="2" stroke-linecap="round" stroke-linejoin="round"/>
<path d="M39.6489 13.4238L42.9359 16.7108" stroke="#4B8FED" stroke-width="2" stroke-linecap="round" stroke-linejoin="round"/>
<path d="M46.2618 13.4238L42.9749 16.7108" stroke="#4B8FED" stroke-width="2" stroke-linecap="round" stroke-linejoin="round"/>
<path d="M36.5331 21.4814C40.1387 25.087 38.6545 32.4069 38.6545 32.4069C38.6545 32.4069 31.3268 33.8911 27.7289 30.2933C24.1311 26.6955 25.6153 19.3678 25.6153 19.3678C25.6153 19.3678 32.912 17.8836 36.5331 21.4814Z" fill="#1768C7"/>
<path d="M28.8862 22.6719L42.9589 36.7445" stroke="#4B8FED" stroke-width="2" stroke-linecap="round" stroke-linejoin="round"/>
<path d="M29.2048 27.6663H33.8517" stroke="#4B8FED" stroke-width="2" stroke-linecap="round" stroke-linejoin="round"/>
<path d="M33.8831 22.9902V27.6371" stroke="#4B8FED" stroke-width="2" stroke-linecap="round" stroke-linejoin="round"/>
<path d="M49.4084 21.4814C45.8106 25.087 47.2948 32.4069 47.2948 32.4069C47.2948 32.4069 54.6147 33.8911 58.2125 30.2933C61.8103 26.6955 60.3339 19.3678 60.3339 19.3678C60.3339 19.3678 53.0062 17.8836 49.4084 21.4814Z" fill="#1768C7"/>
<path d="M57.0238 22.6719L42.959 36.7445" stroke="#4B8FED" stroke-width="2" stroke-linecap="round" stroke-linejoin="round"/>
<path d="M56.7052 27.6663H52.0583" stroke="#4B8FED" stroke-width="2" stroke-linecap="round" stroke-linejoin="round"/>
<path d="M52.0349 22.9902V27.6371" stroke="#4B8FED" stroke-width="2" stroke-linecap="round" stroke-linejoin="round"/>
<defs>
<linearGradient id="paint0_linear_540_8101" x1="49.4795" y1="9" x2="49.4795" y2="63.959" gradientUnits="userSpaceOnUse">
<stop stop-color="#E9E9E9"/>
<stop offset="1" stop-color="#B8CAFF"/>
<stop offset="1" stop-color="#B8CAFF"/>
</linearGradient>
</defs>
</svg>
