<svg width="100" height="78" viewBox="0 0 100 78" fill="none" xmlns="http://www.w3.org/2000/svg">
<circle opacity="0.4" cx="66.2871" cy="36.4795" r="27.4795" fill="url(#paint0_linear_540_8214)"/>
<path d="M64.5376 56.7639V69.492" stroke="#20335B" stroke-width="2" stroke-linecap="round" stroke-linejoin="round"/>
<path d="M56.5695 56.7638L43.8414 42.3997H53.7136L42.4734 29.7139H52.3385L38.2847 13.8479L24.2309 29.7139H34.0961L22.8559 42.3997H32.7281L20 56.7638H56.5695Z" fill="white" stroke="#20335B" stroke-width="2" stroke-linecap="round" stroke-linejoin="round"/>
<path d="M38.2847 57.5608V69.4921" stroke="#20335B" stroke-width="2" stroke-linecap="round" stroke-linejoin="round"/>
<path d="M79.9666 57.5161L68.7264 44.8304H78.5986L64.5378 28.9573L50.484 44.8304H60.3491L49.116 57.5161H79.9666Z" fill="#4493F1" stroke="#20335B" stroke-width="2" stroke-linecap="round" stroke-linejoin="round"/>
<path d="M29.4985 69.4905H70.4682" stroke="#20335B" stroke-width="2" stroke-linecap="round" stroke-linejoin="round"/>
<path d="M74.6779 16.8639C74.6779 14.8118 73.0137 13.1406 70.9547 13.1406C68.8956 13.1406 67.2314 14.8048 67.2314 16.8639C67.2314 18.9229 68.8956 20.5871 70.9547 20.5871C73.0137 20.5871 74.6779 18.9229 74.6779 16.8639Z" fill="#EFF3FF" stroke="#20335B" stroke-width="2" stroke-linecap="round" stroke-linejoin="round"/>
<defs>
<linearGradient id="paint0_linear_540_8214" x1="66.2871" y1="9" x2="66.2871" y2="63.959" gradientUnits="userSpaceOnUse">
<stop stop-color="#E9E9E9"/>
<stop offset="1" stop-color="#B8CAFF"/>
<stop offset="1" stop-color="#B8CAFF"/>
</linearGradient>
</defs>
</svg>
