<svg width="872" height="196" viewBox="0 0 872 196" fill="none" xmlns="http://www.w3.org/2000/svg">
<path d="M388.44 115H394.84V104.8C394.84 101.84 394.28 97.4 393.92 94.48H394.08L396.48 101.6L400.52 112.48H404.44L408.44 101.6L410.92 94.48H411.12C410.72 97.4 410.16 101.84 410.16 104.8V115H416.68V85.2H408.92L404.36 98.08C403.8 99.8 403.32 101.68 402.72 103.48H402.52C401.96 101.68 401.48 99.8 400.88 98.08L396.16 85.2H388.44V115Z" fill="#1768C7"/>
<path d="M422.818 115H429.978V85.2H422.818V115Z" fill="#1768C7"/>
<path d="M436.102 115H442.902V105.12C442.902 101.52 442.302 97.44 441.982 94.12H442.182L445.102 100.64L452.462 115H459.742V85.2H452.942V95.08C452.942 98.64 453.542 102.92 453.902 106.08H453.702L450.782 99.48L443.382 85.2H436.102V115Z" fill="#1768C7"/>
<path d="M465.949 115H485.269V109H473.109V102.68H483.069V96.68H473.109V91.16H484.829V85.2H465.949V115Z" fill="#1768C7"/>
<rect x="618.5" y="0.5" width="253" height="91" rx="3.5" fill="white" stroke="#DDDDDD"/>
<rect x="0.5" y="0.5" width="253" height="91" rx="3.5" fill="white" stroke="#DDDDDD"/>
<rect x="618.5" y="104.5" width="253" height="91" rx="3.5" fill="white" stroke="#DDDDDD"/>
<rect x="0.5" y="104.5" width="253" height="91" rx="3.5" fill="white" stroke="#DDDDDD"/>
<path d="M716.672 54.92H720.692V53.22H710.572V54.92H714.592V56.64C714.592 59.74 712.732 63.1 709.932 64.4L711.112 66.04C713.232 65.02 714.852 62.88 715.652 60.36C716.492 62.7 718.112 64.66 720.212 65.58L721.352 63.96C718.532 62.76 716.672 59.64 716.672 56.64V54.92ZM722.792 51.42V69.48H724.872V51.42H722.792Z" fill="#666666"/>
<path d="M730.591 64.66H740.711V69.5H742.771V63H730.591V64.66ZM737.291 57.96C737.391 57.6 737.451 57.2 737.451 56.8C737.451 56.38 737.391 56 737.311 55.64H740.711V57.96H737.291ZM732.751 59.44C731.191 59.44 730.011 58.38 730.011 56.8C730.011 55.22 731.191 54.14 732.751 54.14C734.311 54.14 735.491 55.22 735.491 56.8C735.491 58.38 734.311 59.44 732.751 59.44ZM740.711 51.42V53.96H736.431C735.591 53 734.271 52.4 732.751 52.4C730.071 52.4 728.051 54.22 728.051 56.8C728.051 59.36 730.071 61.2 732.751 61.2C734.271 61.22 735.591 60.62 736.431 59.64H740.711V62.1H742.771V51.4L740.711 51.42Z" fill="#666666"/>
<path d="M752.709 58.44H748.289V56.14H752.709V58.44ZM754.749 52.18H752.709V54.56H748.289V52.18H746.229V60.08H754.749V52.18ZM750.109 66.1H759.709V61.48H748.049V63.08H757.669V64.58H748.089V69.32H760.309V67.7H750.109V66.1ZM759.709 55.12V51.42H757.649V60.68H759.709V56.82H762.249V55.12H759.709Z" fill="#666666"/>
<path d="M773.027 56.26V57.96H776.307V64.64H778.367V51.44H776.307V56.26H773.027ZM774.147 60.48C771.447 59.54 769.907 57.28 769.907 55.06V54.44H773.667V52.78H764.007V54.44H767.827V55.06C767.827 57.5 766.187 59.88 763.387 60.86L764.447 62.48C766.587 61.74 768.107 60.16 768.907 58.2C769.667 59.98 771.127 61.4 773.127 62.08L774.147 60.48ZM768.727 67.46V63.5H766.667V69.14H778.827V67.46H768.727Z" fill="#666666"/>
<path d="M680.949 39.94H683.149V33C683.149 31.4 682.969 29.7 682.849 28.18H682.949L684.489 31.26L689.369 39.94H691.749V25.22H689.549V32.08C689.549 33.68 689.729 35.46 689.849 36.98H689.749L688.209 33.86L683.329 25.22H680.949V39.94Z" fill="#289DEA"/>
<path d="M699.417 40.2C700.857 40.2 702.117 39.72 703.137 39.04L702.337 37.58C701.537 38.1 700.697 38.4 699.717 38.4C697.817 38.4 696.497 37.14 696.317 35.04H703.457C703.517 34.78 703.557 34.32 703.557 33.88C703.557 30.76 701.997 28.66 699.077 28.66C696.497 28.66 694.057 30.88 694.057 34.46C694.057 38.08 696.437 40.2 699.417 40.2ZM696.297 33.46C696.517 31.52 697.737 30.46 699.117 30.46C700.717 30.46 701.577 31.56 701.577 33.46H696.297Z" fill="#289DEA"/>
<path d="M705.545 39.94H707.825V28.94H705.545V39.94ZM706.685 26.88C707.525 26.88 708.165 26.32 708.165 25.52C708.165 24.7 707.525 24.16 706.685 24.16C705.845 24.16 705.225 24.7 705.225 25.52C705.225 26.32 705.845 26.88 706.685 26.88Z" fill="#289DEA"/>
<path d="M714.448 44.88C717.968 44.88 720.208 43.16 720.208 41.04C720.208 39.16 718.848 38.36 716.248 38.36H714.228C712.828 38.36 712.387 37.94 712.387 37.28C712.387 36.76 712.628 36.44 712.988 36.12C713.468 36.34 714.028 36.46 714.528 36.46C716.828 36.46 718.648 35.08 718.648 32.68C718.648 31.84 718.348 31.1 717.928 30.66H720.028V28.94H716.128C715.708 28.78 715.148 28.66 714.528 28.66C712.248 28.66 710.267 30.12 710.267 32.62C710.267 33.92 710.967 34.96 711.707 35.54V35.62C711.107 36.06 710.488 36.8 710.488 37.66C710.488 38.56 710.928 39.14 711.488 39.48V39.58C710.468 40.2 709.888 41.06 709.888 41.98C709.888 43.9 711.808 44.88 714.448 44.88ZM714.528 34.98C713.388 34.98 712.448 34.08 712.448 32.62C712.448 31.12 713.368 30.28 714.528 30.28C715.688 30.28 716.608 31.14 716.608 32.62C716.608 34.08 715.668 34.98 714.528 34.98ZM714.788 43.36C712.968 43.36 711.848 42.72 711.848 41.64C711.848 41.08 712.128 40.52 712.788 40.04C713.248 40.14 713.748 40.2 714.268 40.2H715.928C717.268 40.2 717.988 40.48 717.988 41.4C717.988 42.42 716.708 43.36 714.788 43.36Z" fill="#289DEA"/>
<path d="M721.65 39.94H723.93V32.14C724.91 31.16 725.61 30.64 726.63 30.64C727.93 30.64 728.49 31.4 728.49 33.3V39.94H730.79V33.02C730.79 30.22 729.75 28.66 727.41 28.66C725.91 28.66 724.81 29.48 723.85 30.4L723.93 28.22V24H721.65V39.94Z" fill="#289DEA"/>
<path d="M738.592 40.2C741.072 40.2 743.332 38.04 743.332 34.26C743.332 30.88 741.752 28.66 738.972 28.66C737.812 28.66 736.632 29.28 735.692 30.1L735.752 28.22V24H733.472V39.94H735.272L735.492 38.8H735.552C736.492 39.7 737.592 40.2 738.592 40.2ZM738.152 38.3C737.472 38.3 736.592 38.04 735.752 37.3V31.92C736.672 31.02 737.512 30.58 738.372 30.58C740.212 30.58 740.952 32 740.952 34.3C740.952 36.88 739.752 38.3 738.152 38.3Z" fill="#289DEA"/>
<path d="M749.85 40.2C752.57 40.2 755.03 38.1 755.03 34.46C755.03 30.78 752.57 28.66 749.85 28.66C747.13 28.66 744.67 30.78 744.67 34.46C744.67 38.1 747.13 40.2 749.85 40.2ZM749.85 38.32C748.13 38.32 747.05 36.78 747.05 34.46C747.05 32.12 748.13 30.56 749.85 30.56C751.59 30.56 752.67 32.12 752.67 34.46C752.67 36.78 751.59 38.32 749.85 38.32Z" fill="#289DEA"/>
<path d="M757.135 39.94H759.415V33.08C760.115 31.34 761.195 30.72 762.095 30.72C762.535 30.72 762.815 30.78 763.195 30.9L763.615 28.9C763.275 28.74 762.915 28.66 762.375 28.66C761.195 28.66 760.035 29.5 759.255 30.92H759.195L759.015 28.94H757.135V39.94Z" fill="#289DEA"/>
<path d="M764.719 39.94H766.999V32.14C767.979 31.16 768.679 30.64 769.699 30.64C770.999 30.64 771.559 31.4 771.559 33.3V39.94H773.859V33.02C773.859 30.22 772.819 28.66 770.479 28.66C768.979 28.66 767.879 29.48 766.919 30.4L766.999 28.22V24H764.719V39.94Z" fill="#289DEA"/>
<path d="M780.941 40.2C783.661 40.2 786.121 38.1 786.121 34.46C786.121 30.78 783.661 28.66 780.941 28.66C778.221 28.66 775.761 30.78 775.761 34.46C775.761 38.1 778.221 40.2 780.941 40.2ZM780.941 38.32C779.221 38.32 778.141 36.78 778.141 34.46C778.141 32.12 779.221 30.56 780.941 30.56C782.681 30.56 783.761 32.12 783.761 34.46C783.761 36.78 782.681 38.32 780.941 38.32Z" fill="#289DEA"/>
<path d="M792.626 40.2C795.346 40.2 797.806 38.1 797.806 34.46C797.806 30.78 795.346 28.66 792.626 28.66C789.906 28.66 787.446 30.78 787.446 34.46C787.446 38.1 789.906 40.2 792.626 40.2ZM792.626 38.32C790.906 38.32 789.826 36.78 789.826 34.46C789.826 32.12 790.906 30.56 792.626 30.56C794.366 30.56 795.446 32.12 795.446 34.46C795.446 36.78 794.366 38.32 792.626 38.32Z" fill="#289DEA"/>
<path d="M803.711 40.2C804.951 40.2 806.091 39.54 806.911 38.7H806.971L807.171 39.94H809.051V24H806.751V28.08L806.851 29.9C805.951 29.14 805.151 28.66 803.891 28.66C801.431 28.66 799.171 30.88 799.171 34.46C799.171 38.1 800.951 40.2 803.711 40.2ZM804.251 38.3C802.531 38.3 801.551 36.92 801.551 34.42C801.551 32.04 802.791 30.58 804.331 30.58C805.151 30.58 805.931 30.84 806.751 31.58V36.96C805.951 37.88 805.171 38.3 804.251 38.3Z" fill="#289DEA"/>
<path d="M98.6024 54.92H102.422V53.22H92.6024V54.92H96.5424V56.66C96.5424 59.66 94.7024 63.08 91.9424 64.4L93.1224 66.04C95.2024 65.02 96.8024 62.86 97.6024 60.34C98.4224 62.62 99.9624 64.62 101.982 65.58L103.122 63.96C100.382 62.66 98.6024 59.46 98.6024 56.66V54.92ZM109.082 58.54H106.262V51.42H104.202V69.48H106.262V60.24H109.082V58.54Z" fill="#666666"/>
<path d="M119.441 62.02V63.46H122.981V65.14H125.041V51.4H122.981V62.02H119.441ZM115.841 53.62C117.321 53.62 118.341 54.26 118.341 55.28C118.341 56.3 117.321 56.94 115.841 56.94C114.341 56.94 113.321 56.3 113.321 55.28C113.321 54.26 114.341 53.62 115.841 53.62ZM115.841 58.46C118.481 58.46 120.301 57.2 120.301 55.28C120.301 53.36 118.481 52.1 115.841 52.1C113.181 52.1 111.361 53.36 111.361 55.28C111.361 57.2 113.181 58.46 115.841 58.46ZM115.021 64.56H117.081V61.08C118.621 61 120.201 60.82 121.721 60.56L121.561 59.08C117.741 59.56 113.301 59.6 109.981 59.62L110.241 61.3C111.661 61.3 113.301 61.28 115.021 61.2V64.56ZM114.481 67.46V63.8H112.421V69.14H125.461V67.46H114.481Z" fill="#666666"/>
<path d="M130.119 57.14C130.119 55.5 131.319 54.42 132.899 54.42C134.479 54.42 135.699 55.5 135.699 57.14C135.699 58.8 134.479 59.88 132.899 59.88C131.319 59.88 130.119 58.8 130.119 57.14ZM137.719 57.14C137.719 54.5 135.639 52.64 132.899 52.64C130.179 52.64 128.099 54.5 128.099 57.14C128.099 59.78 130.179 61.66 132.899 61.66C135.639 61.66 137.719 59.78 137.719 57.14ZM132.619 63.3H130.539V69.14H142.699V67.46H132.619V63.3ZM141.979 56.78V51.42H139.919V64.66H141.979V58.48H144.539V56.78H141.979Z" fill="#666666"/>
<path d="M149.558 57.32H158.118V60.28H149.558V57.32ZM154.858 65.58V61.94H160.158V52.62H158.118V55.66H149.558V52.62H147.518V61.94H152.798V65.58H145.678V67.28H162.038V65.58H154.858Z" fill="#666666"/>
<path d="M56.2751 39.94H58.3551V32.66C58.3551 31.34 58.1751 29.44 58.0751 28.1H58.1551L59.3151 31.5L61.8951 38.52H63.3351L65.8951 31.5L67.0751 28.1H67.1551C67.0351 29.44 66.8551 31.34 66.8551 32.66V39.94H69.0151V25.22H66.3351L63.6751 32.66C63.3351 33.64 63.0551 34.64 62.7151 35.64H62.6151C62.2751 34.64 61.9751 33.64 61.6351 32.66L58.9351 25.22H56.2751V39.94Z" fill="#2278D7"/>
<path d="M72.0767 39.94H74.3567V28.94H72.0767V39.94ZM73.2167 26.88C74.0567 26.88 74.6967 26.32 74.6967 25.52C74.6967 24.7 74.0567 24.16 73.2167 24.16C72.3767 24.16 71.7567 24.7 71.7567 25.52C71.7567 26.32 72.3767 26.88 73.2167 26.88Z" fill="#2278D7"/>
<path d="M77.2189 39.94H79.4989V32.14C80.4789 31.16 81.1789 30.64 82.1989 30.64C83.4989 30.64 84.0589 31.4 84.0589 33.3V39.94H86.3589V33.02C86.3589 30.22 85.3189 28.66 82.9789 28.66C81.4789 28.66 80.3589 29.48 79.3389 30.46H79.2789L79.0989 28.94H77.2189V39.94Z" fill="#2278D7"/>
<path d="M93.6794 40.2C95.1194 40.2 96.3794 39.72 97.3994 39.04L96.5994 37.58C95.7994 38.1 94.9594 38.4 93.9794 38.4C92.0794 38.4 90.7594 37.14 90.5794 35.04H97.7194C97.7794 34.78 97.8194 34.32 97.8194 33.88C97.8194 30.76 96.2594 28.66 93.3394 28.66C90.7594 28.66 88.3194 30.88 88.3194 34.46C88.3194 38.08 90.6994 40.2 93.6794 40.2ZM90.5594 33.46C90.7794 31.52 91.9994 30.46 93.3794 30.46C94.9794 30.46 95.8394 31.56 95.8394 33.46H90.5594Z" fill="#2278D7"/>
<path d="M99.808 39.94H102.088V33.08C102.788 31.34 103.868 30.72 104.768 30.72C105.208 30.72 105.488 30.78 105.868 30.9L106.288 28.9C105.948 28.74 105.588 28.66 105.048 28.66C103.868 28.66 102.708 29.5 101.928 30.92H101.868L101.688 28.94H99.808V39.94Z" fill="#2278D7"/>
<path d="M109.425 40.2C110.745 40.2 111.925 39.54 112.925 38.68H112.985L113.185 39.94H115.065V33.32C115.065 30.4 113.805 28.66 111.065 28.66C109.305 28.66 107.765 29.38 106.625 30.1L107.485 31.66C108.425 31.06 109.505 30.54 110.665 30.54C112.285 30.54 112.745 31.66 112.765 32.94C108.185 33.44 106.185 34.66 106.185 37.02C106.185 38.96 107.525 40.2 109.425 40.2ZM110.125 38.38C109.145 38.38 108.405 37.94 108.405 36.86C108.405 35.62 109.505 34.8 112.765 34.4V37.1C111.865 37.92 111.085 38.38 110.125 38.38Z" fill="#2278D7"/>
<path d="M120.009 40.2C120.569 40.2 120.969 40.12 121.249 40.02L120.949 38.28C120.749 38.32 120.669 38.32 120.569 38.32C120.289 38.32 120.009 38.1 120.009 37.48V24H117.729V37.36C117.729 39.14 118.349 40.2 120.009 40.2Z" fill="#2278D7"/>
<path d="M131.378 40.2C134.598 40.2 136.558 38.28 136.558 35.92C136.558 33.76 135.298 32.68 133.558 31.94L131.538 31.08C130.338 30.6 129.158 30.12 129.158 28.86C129.158 27.68 130.138 26.96 131.638 26.96C132.938 26.96 133.958 27.46 134.878 28.28L136.098 26.8C134.978 25.66 133.358 24.94 131.638 24.94C128.838 24.94 126.798 26.68 126.798 29C126.798 31.14 128.378 32.26 129.798 32.86L131.838 33.74C133.198 34.34 134.198 34.76 134.198 36.1C134.198 37.34 133.198 38.18 131.418 38.18C129.998 38.18 128.558 37.5 127.498 36.44L126.138 38.04C127.478 39.4 129.358 40.2 131.378 40.2Z" fill="#2278D7"/>
<path d="M143.126 40.2C144.566 40.2 145.826 39.72 146.846 39.04L146.046 37.58C145.246 38.1 144.406 38.4 143.426 38.4C141.526 38.4 140.206 37.14 140.026 35.04H147.166C147.226 34.78 147.266 34.32 147.266 33.88C147.266 30.76 145.706 28.66 142.786 28.66C140.206 28.66 137.766 30.88 137.766 34.46C137.766 38.08 140.146 40.2 143.126 40.2ZM140.006 33.46C140.226 31.52 141.446 30.46 142.826 30.46C144.426 30.46 145.286 31.56 145.286 33.46H140.006Z" fill="#2278D7"/>
<path d="M153.735 40.2C154.995 40.2 156.295 39.74 157.295 38.84L156.355 37.32C155.695 37.88 154.875 38.32 153.955 38.32C152.115 38.32 150.855 36.78 150.855 34.46C150.855 32.12 152.175 30.56 154.015 30.56C154.775 30.56 155.395 30.88 155.995 31.42L157.135 29.92C156.335 29.22 155.315 28.66 153.915 28.66C151.015 28.66 148.475 30.78 148.475 34.46C148.475 38.1 150.755 40.2 153.735 40.2Z" fill="#2278D7"/>
<path d="M162.207 40.2C163.727 40.2 164.807 39.44 165.807 38.28H165.867L166.047 39.94H167.927V28.94H165.627V36.58C164.707 37.74 164.007 38.22 162.987 38.22C161.687 38.22 161.147 37.48 161.147 35.58V28.94H158.847V35.86C158.847 38.66 159.867 40.2 162.207 40.2Z" fill="#2278D7"/>
<path d="M170.789 39.94H173.069V33.08C173.769 31.34 174.849 30.72 175.749 30.72C176.189 30.72 176.469 30.78 176.849 30.9L177.269 28.9C176.929 28.74 176.569 28.66 176.029 28.66C174.849 28.66 173.689 29.5 172.909 30.92H172.849L172.669 28.94H170.789V39.94Z" fill="#2278D7"/>
<path d="M178.373 39.94H180.653V28.94H178.373V39.94ZM179.513 26.88C180.353 26.88 180.993 26.32 180.993 25.52C180.993 24.7 180.353 24.16 179.513 24.16C178.673 24.16 178.053 24.7 178.053 25.52C178.053 26.32 178.673 26.88 179.513 26.88Z" fill="#2278D7"/>
<path d="M187.215 40.2C188.015 40.2 188.755 40 189.375 39.8L188.955 38.1C188.635 38.24 188.155 38.36 187.775 38.36C186.635 38.36 186.175 37.68 186.175 36.36V30.78H189.035V28.94H186.175V25.9H184.235L183.975 28.94L182.275 29.06V30.78H183.875V36.34C183.875 38.66 184.735 40.2 187.215 40.2Z" fill="#2278D7"/>
<path d="M199.725 28.94H197.485L195.725 34.6L194.865 37.7H194.765C194.425 36.68 194.085 35.58 193.765 34.6L191.725 28.94H189.365L193.725 39.86L193.505 40.62C193.105 41.8 192.405 42.68 191.205 42.68C190.925 42.68 190.605 42.58 190.405 42.52L189.965 44.32C190.345 44.46 190.785 44.54 191.345 44.54C193.665 44.54 194.825 42.96 195.685 40.6L199.725 28.94Z" fill="#2278D7"/>
<path d="M687.733 144H696.653V142.04H690.053V137.28H695.453V135.32H690.053V131.22H696.433V129.28H687.733V144Z" fill="#2278D7"/>
<path d="M698.925 144H701.205V136.2C702.185 135.22 702.885 134.7 703.905 134.7C705.205 134.7 705.765 135.46 705.765 137.36V144H708.065V137.08C708.065 134.28 707.025 132.72 704.685 132.72C703.185 132.72 702.065 133.54 701.045 134.52H700.985L700.805 133H698.925V144Z" fill="#2278D7"/>
<path d="M713.226 144H715.886L719.686 133H717.446L715.566 138.92C715.266 140 714.926 141.12 714.606 142.2H714.526C714.206 141.12 713.866 140 713.566 138.92L711.686 133H709.326L713.226 144Z" fill="#2278D7"/>
<path d="M721.104 144H723.384V133H721.104V144ZM722.244 130.94C723.084 130.94 723.724 130.38 723.724 129.58C723.724 128.76 723.084 128.22 722.244 128.22C721.404 128.22 720.784 128.76 720.784 129.58C720.784 130.38 721.404 130.94 722.244 130.94Z" fill="#2278D7"/>
<path d="M726.246 144H728.526V137.14C729.226 135.4 730.306 134.78 731.206 134.78C731.646 134.78 731.926 134.84 732.306 134.96L732.726 132.96C732.386 132.8 732.026 132.72 731.486 132.72C730.306 132.72 729.146 133.56 728.366 134.98H728.306L728.126 133H726.246V144Z" fill="#2278D7"/>
<path d="M738.015 144.26C740.735 144.26 743.195 142.16 743.195 138.52C743.195 134.84 740.735 132.72 738.015 132.72C735.295 132.72 732.835 134.84 732.835 138.52C732.835 142.16 735.295 144.26 738.015 144.26ZM738.015 142.38C736.295 142.38 735.215 140.84 735.215 138.52C735.215 136.18 736.295 134.62 738.015 134.62C739.755 134.62 740.835 136.18 740.835 138.52C740.835 140.84 739.755 142.38 738.015 142.38Z" fill="#2278D7"/>
<path d="M745.3 144H747.58V136.2C748.56 135.22 749.26 134.7 750.28 134.7C751.58 134.7 752.14 135.46 752.14 137.36V144H754.44V137.08C754.44 134.28 753.4 132.72 751.06 132.72C749.56 132.72 748.44 133.54 747.42 134.52H747.36L747.18 133H745.3V144Z" fill="#2278D7"/>
<path d="M757.181 144H759.461V136.2C760.381 135.2 761.201 134.7 761.941 134.7C763.201 134.7 763.781 135.46 763.781 137.36V144H766.081V136.2C767.001 135.2 767.801 134.7 768.561 134.7C769.801 134.7 770.401 135.46 770.401 137.36V144H772.701V137.08C772.701 134.28 771.621 132.72 769.321 132.72C767.941 132.72 766.821 133.58 765.741 134.74C765.261 133.48 764.341 132.72 762.701 132.72C761.341 132.72 760.241 133.54 759.301 134.54H759.241L759.061 133H757.181V144Z" fill="#2278D7"/>
<path d="M780.008 144.26C781.448 144.26 782.708 143.78 783.728 143.1L782.928 141.64C782.128 142.16 781.288 142.46 780.308 142.46C778.408 142.46 777.088 141.2 776.908 139.1H784.048C784.108 138.84 784.148 138.38 784.148 137.94C784.148 134.82 782.588 132.72 779.668 132.72C777.088 132.72 774.648 134.94 774.648 138.52C774.648 142.14 777.028 144.26 780.008 144.26ZM776.888 137.52C777.108 135.58 778.328 134.52 779.708 134.52C781.308 134.52 782.168 135.62 782.168 137.52H776.888Z" fill="#2278D7"/>
<path d="M786.137 144H788.417V136.2C789.397 135.22 790.097 134.7 791.117 134.7C792.417 134.7 792.977 135.46 792.977 137.36V144H795.277V137.08C795.277 134.28 794.237 132.72 791.897 132.72C790.397 132.72 789.277 133.54 788.257 134.52H788.197L788.017 133H786.137V144Z" fill="#2278D7"/>
<path d="M801.717 144.26C802.517 144.26 803.257 144.06 803.877 143.86L803.457 142.16C803.137 142.3 802.657 142.42 802.277 142.42C801.137 142.42 800.677 141.74 800.677 140.42V134.84H803.537V133H800.677V129.96H798.737L798.477 133L796.777 133.12V134.84H798.377V140.4C798.377 142.72 799.237 144.26 801.717 144.26Z" fill="#2278D7"/>
<path d="M720.743 157.1H716.643V155.4H714.563V157.1H710.423V158.62H720.743V157.1ZM713.223 162.04C713.223 161.18 714.143 160.66 715.583 160.66C717.023 160.66 717.943 161.18 717.943 162.04C717.943 162.88 717.023 163.38 715.583 163.38C714.143 163.38 713.223 162.88 713.223 162.04ZM721.243 165.44C719.783 165.66 718.203 165.78 716.643 165.88V164.74C718.643 164.5 719.883 163.5 719.883 162.04C719.883 160.32 718.183 159.26 715.583 159.26C712.983 159.26 711.283 160.32 711.283 162.04C711.283 163.52 712.543 164.5 714.563 164.74V165.98C712.903 166.02 711.303 166.04 709.963 166.04L710.203 167.68C713.323 167.66 717.623 167.58 721.403 166.86L721.243 165.44ZM714.643 168.7H712.583V173.2H724.883V171.52H714.643V168.7ZM724.263 161.6V155.46H722.203V169.6H724.263V163.3H726.743V161.6H724.263Z" fill="#666666"/>
<path d="M740.821 160.26V162.34H736.441V164.02H740.821V166.1H742.881V155.48H740.821V158.58H737.101C737.201 158.02 737.261 157.42 737.261 156.78H729.061V158.44H735.061C734.701 161.26 732.361 163.48 728.121 164.66L728.941 166.3C732.841 165.16 735.501 163.14 736.621 160.26H740.821ZM736.961 171.84C734.521 171.84 732.981 171.14 732.981 169.88C732.981 168.64 734.521 167.94 736.961 167.94C739.421 167.94 740.961 168.64 740.961 169.88C740.961 171.14 739.421 171.84 736.961 171.84ZM736.961 166.32C733.301 166.32 730.941 167.68 730.941 169.88C730.941 172.1 733.301 173.46 736.961 173.46C740.621 173.46 743.001 172.1 743.001 169.88C743.001 167.68 740.621 166.32 736.961 166.32Z" fill="#666666"/>
<path d="M747.52 169.48H757.98V173.56H760.04V167.82H747.52V169.48ZM749.86 159.34H757.9V161.12H749.86V159.34ZM754.9 164.62V162.76H759.94V155.92H757.9V157.76H749.86V155.92H747.82V162.76H752.82V164.62H745.68V166.3H762.06V164.62H754.9Z" fill="#666666"/>
<path d="M772.878 166.08V167.52H776.418V169.2H778.478V155.46H776.418V166.08H772.878ZM769.278 157.68C770.758 157.68 771.778 158.32 771.778 159.34C771.778 160.36 770.758 161 769.278 161C767.778 161 766.758 160.36 766.758 159.34C766.758 158.32 767.778 157.68 769.278 157.68ZM769.278 162.52C771.918 162.52 773.738 161.26 773.738 159.34C773.738 157.42 771.918 156.16 769.278 156.16C766.618 156.16 764.798 157.42 764.798 159.34C764.798 161.26 766.618 162.52 769.278 162.52ZM768.458 168.62H770.518V165.14C772.058 165.06 773.638 164.88 775.158 164.62L774.998 163.14C771.178 163.62 766.738 163.66 763.418 163.68L763.678 165.36C765.098 165.36 766.738 165.34 768.458 165.26V168.62ZM767.918 171.52V167.86H765.858V173.2H778.898V171.52H767.918Z" fill="#666666"/>
<path d="M100.623 159.34V161.02H105.243V159.34H100.623ZM100.463 163.12V164.82H105.123V163.12H100.463ZM104.903 156.18V166.94H107.003V156.18H104.903ZM99.0835 157.5V158.46C99.0835 161.66 96.7035 164.18 92.0435 165.46L92.8835 167.12C98.2635 165.58 101.303 162.32 101.303 157.5H99.0835ZM93.0235 157.5V159.18H100.523V157.5H93.0235ZM101.003 167.16C97.3035 167.16 94.9035 168.52 94.9035 170.76C94.9035 173 97.3035 174.38 101.003 174.38C104.703 174.38 107.103 173 107.103 170.76C107.103 168.52 104.703 167.16 101.003 167.16ZM101.003 168.78C103.503 168.78 105.043 169.5 105.043 170.76C105.043 172.02 103.503 172.72 101.003 172.72C98.5235 172.72 96.9635 172.02 96.9635 170.76C96.9635 169.5 98.5235 168.78 101.003 168.78Z" fill="#666666"/>
<path d="M117.862 158.7V160.4H123.362V158.7H117.862ZM117.862 162.84V164.54H123.362V162.84H117.862ZM114.662 157.22C111.942 157.22 109.902 159.06 109.902 161.62C109.902 164.18 111.942 166.02 114.662 166.02C117.362 166.02 119.422 164.18 119.422 161.62C119.422 159.06 117.362 157.22 114.662 157.22ZM114.662 159C116.242 159 117.422 160.02 117.422 161.62C117.422 163.2 116.242 164.24 114.662 164.24C113.082 164.24 111.902 163.2 111.902 161.62C111.902 160.02 113.082 159 114.662 159ZM122.702 156.18V166.94H124.802V156.18H122.702ZM118.702 167.36C114.902 167.36 112.542 168.66 112.542 170.9C112.542 173.14 114.902 174.44 118.702 174.44C122.502 174.44 124.862 173.14 124.862 170.9C124.862 168.66 122.502 167.36 118.702 167.36ZM118.702 168.98C121.302 168.98 122.802 169.66 122.802 170.9C122.802 172.12 121.302 172.8 118.702 172.8C116.102 172.8 114.602 172.12 114.602 170.9C114.602 169.66 116.102 168.98 118.702 168.98Z" fill="#666666"/>
<path d="M127.48 157.92V159.58H137.64V157.92H127.48ZM132.64 160.42C130.22 160.42 128.44 161.84 128.44 163.86C128.44 165.9 130.22 167.32 132.64 167.32C135.08 167.32 136.84 165.9 136.84 163.86C136.84 161.84 135.08 160.42 132.64 160.42ZM132.64 162.02C133.96 162.02 134.9 162.74 134.9 163.86C134.9 165 133.96 165.72 132.64 165.72C131.32 165.72 130.4 165 130.4 163.86C130.4 162.74 131.32 162.02 132.64 162.02ZM131.62 156.02V159.06H133.7V156.02H131.62ZM140.5 156.18V167.8H142.6V156.18H140.5ZM137.74 160.5V162.16H141.3V160.5H137.74ZM137.7 163.96V165.64H141.26V163.96H137.7ZM130.28 168.76V170.42H140.5V174.46H142.6V168.76H130.28Z" fill="#666666"/>
<path d="M158.219 156.2V169.56H160.319V156.2H158.219ZM148.379 172.4V174.1H160.839V172.4H148.379ZM148.379 168.3V173.24H150.479V168.3H148.379ZM149.799 157.2V159.02C149.799 161.66 148.219 164.28 145.319 165.34L146.399 167.02C149.679 165.78 151.539 162.58 151.539 159.02V157.2H149.799ZM150.199 157.2V159.02C150.199 162.52 152.039 165.52 155.259 166.68L156.339 165.02C153.499 164.04 151.919 161.6 151.919 159.02V157.2H150.199Z" fill="#666666"/>
<path d="M79.8782 144.8H82.2182V130.08H79.8782V144.8Z" fill="#289DEA"/>
<path d="M85.25 144.8H87.57V137C88.53 136.04 89.23 135.52 90.25 135.52C91.53 135.52 92.09 136.26 92.09 138.18V144.8H94.41V137.88C94.41 135.1 93.37 133.52 91.03 133.52C89.53 133.52 88.39 134.34 87.39 135.34H87.33L87.13 133.8H85.25V144.8Z" fill="#289DEA"/>
<path d="M97.1305 144.8H99.4505V137C100.411 136.04 101.111 135.52 102.131 135.52C103.411 135.52 103.971 136.26 103.971 138.18V144.8H106.291V137.88C106.291 135.1 105.251 133.52 102.911 133.52C101.411 133.52 100.271 134.34 99.2705 135.34H99.2105L99.0105 133.8H97.1305V144.8Z" fill="#289DEA"/>
<path d="M113.431 145.08C116.151 145.08 118.611 142.96 118.611 139.32C118.611 135.64 116.151 133.52 113.431 133.52C110.691 133.52 108.251 135.64 108.251 139.32C108.251 142.96 110.691 145.08 113.431 145.08ZM113.431 143.18C111.691 143.18 110.631 141.64 110.631 139.32C110.631 136.98 111.691 135.44 113.431 135.44C115.151 135.44 116.251 136.98 116.251 139.32C116.251 141.64 115.151 143.18 113.431 143.18Z" fill="#289DEA"/>
<path d="M122.94 144.8H125.62L129.42 133.8H127.18L125.3 139.72C124.98 140.8 124.66 141.92 124.34 143H124.24C123.92 141.92 123.6 140.8 123.28 139.72L121.42 133.8H119.06L122.94 144.8Z" fill="#289DEA"/>
<path d="M132.872 145.08C134.192 145.08 135.372 144.42 136.372 143.56H136.452L136.632 144.8H138.532V138.2C138.532 135.26 137.272 133.52 134.532 133.52C132.772 133.52 131.212 134.26 130.092 134.96L130.952 136.54C131.872 135.94 132.972 135.4 134.132 135.4C135.732 135.4 136.192 136.52 136.212 137.8C131.652 138.3 129.652 139.52 129.652 141.88C129.652 143.82 130.992 145.08 132.872 145.08ZM133.592 143.24C132.612 143.24 131.872 142.8 131.872 141.72C131.872 140.48 132.952 139.66 136.212 139.28V141.96C135.312 142.8 134.552 143.24 133.592 143.24Z" fill="#289DEA"/>
<path d="M144.466 145.08C145.286 145.08 146.026 144.86 146.646 144.66L146.226 142.96C145.886 143.1 145.426 143.24 145.046 143.24C143.906 143.24 143.426 142.54 143.426 141.24V135.64H146.306V133.8H143.426V130.76H141.506L141.246 133.8L139.526 133.92V135.64H141.126V141.22C141.126 143.52 142.006 145.08 144.466 145.08Z" fill="#289DEA"/>
<path d="M148.095 144.8H150.415V133.8H148.095V144.8ZM149.255 131.74C150.095 131.74 150.695 131.2 150.695 130.36C150.695 129.54 150.095 129 149.255 129C148.395 129 147.835 129.54 147.835 130.36C147.835 131.2 148.395 131.74 149.255 131.74Z" fill="#289DEA"/>
<path d="M157.677 145.08C160.397 145.08 162.857 142.96 162.857 139.32C162.857 135.64 160.397 133.52 157.677 133.52C154.937 133.52 152.497 135.64 152.497 139.32C152.497 142.96 154.937 145.08 157.677 145.08ZM157.677 143.18C155.937 143.18 154.877 141.64 154.877 139.32C154.877 136.98 155.937 135.44 157.677 135.44C159.397 135.44 160.497 136.98 160.497 139.32C160.497 141.64 159.397 143.18 157.677 143.18Z" fill="#289DEA"/>
<path d="M164.962 144.8H167.282V137C168.242 136.04 168.942 135.52 169.962 135.52C171.242 135.52 171.802 136.26 171.802 138.18V144.8H174.122V137.88C174.122 135.1 173.082 133.52 170.742 133.52C169.242 133.52 168.102 134.34 167.102 135.34H167.042L166.842 133.8H164.962V144.8Z" fill="#289DEA"/>
<path d="M555 150H620" stroke="#AAAAAA"/>
<circle cx="618.5" cy="150" r="4" fill="white" stroke="#707070" stroke-width="2"/>
<path d="M316.5 150H251.5" stroke="#AAAAAA"/>
<circle r="4" transform="matrix(-1 0 0 1 253 150)" fill="white" stroke="#707070" stroke-width="2"/>
<path d="M555 46H620" stroke="#AAAAAA"/>
<circle cx="618.5" cy="46" r="4" fill="white" stroke="#707070" stroke-width="2"/>
<path d="M316.5 46H251.5" stroke="#AAAAAA"/>
<circle r="4" transform="matrix(-1 0 0 1 253 46)" fill="white" stroke="#707070" stroke-width="2"/>
<path d="M518.5 149.975C522.568 150.526 532.583 142.425 535 103.764C538.017 55.5 540.831 46 550.322 46C557.915 46 580.605 46 591 46" stroke="#AAAAAA"/>
<path d="M353.5 149.975C349.432 150.526 339.417 142.425 337 103.764C333.983 55.5 331.169 46 321.678 46C314.085 46 291.395 46 281 46" stroke="#AAAAAA"/>
<path d="M518.5 46.0246C522.568 45.4745 532.583 53.5755 535 92.2359C538.017 140.5 540.831 150 550.322 150C557.915 150 580.605 150 591 150" stroke="#AAAAAA"/>
<path d="M353.5 46.0246C349.432 45.4745 339.417 53.5755 337 92.2359C333.983 140.5 331.169 150 321.678 150C314.085 150 291.395 150 281 150" stroke="#AAAAAA"/>
</svg>
