<svg width="100" height="78" viewBox="0 0 100 78" fill="none" xmlns="http://www.w3.org/2000/svg">
<circle opacity="0.4" cx="65.2871" cy="43.3389" r="27.4795" fill="url(#paint0_linear_540_8249)"/>
<path d="M68.0212 29.1953C68.0212 18.759 59.2279 10.3676 48.6435 11.0375C39.5611 11.6157 32.1922 19.0199 31.6704 28.1094C31.4024 32.7281 32.8621 36.9943 35.4571 40.3368C37.3751 42.8048 38.5104 45.7877 38.5104 48.9115V51.0129H61.1459V48.9256C61.1459 45.9146 62.0909 42.9459 63.9877 40.6048C66.5122 37.4809 68.0212 33.5109 68.0212 29.1883V29.1953Z" fill="white" stroke="#20335B" stroke-width="2" stroke-linecap="round" stroke-linejoin="round"/>
<path d="M61.6888 57.9034H37.9744C36.1128 57.9034 34.6038 56.3944 34.6038 54.5328C34.6038 52.6711 36.1128 51.1621 37.9744 51.1621H61.6888C63.5505 51.1621 65.0595 52.6711 65.0595 54.5328C65.0595 56.3944 63.5505 57.9034 61.6888 57.9034Z" fill="#EFF3FF" stroke="#20335B" stroke-width="2" stroke-linecap="round" stroke-linejoin="round"/>
<path d="M61.6888 64.6358H37.9744C36.1128 64.6358 34.6038 63.1268 34.6038 61.2652C34.6038 59.4036 36.1128 57.8945 37.9744 57.8945H61.6888C63.5505 57.8945 65.0595 59.4036 65.0595 61.2652C65.0595 63.1268 63.5505 64.6358 61.6888 64.6358Z" fill="#EFF3FF" stroke="#20335B" stroke-width="2" stroke-linecap="round" stroke-linejoin="round"/>
<path d="M57.4651 65.582C57.4651 68.5578 55.0535 70.9694 52.0777 70.9694H47.5859C44.6101 70.9694 42.1985 68.5578 42.1985 65.582" fill="white"/>
<path d="M57.4651 65.582C57.4651 68.5578 55.0535 70.9694 52.0777 70.9694H47.5859C44.6101 70.9694 42.1985 68.5578 42.1985 65.582" stroke="#20335B" stroke-width="2" stroke-linecap="round" stroke-linejoin="round"/>
<path d="M25.1477 30.1484H20" stroke="#20335B" stroke-width="2" stroke-linecap="round" stroke-linejoin="round"/>
<path d="M79.6562 30.1484H74.5156" stroke="#20335B" stroke-width="2" stroke-linecap="round" stroke-linejoin="round"/>
<path d="M27.51 19.5966L22.856 17.3965" stroke="#20335B" stroke-width="2" stroke-linecap="round" stroke-linejoin="round"/>
<path d="M76.8003 42.8954L72.1462 40.6953" stroke="#20335B" stroke-width="2" stroke-linecap="round" stroke-linejoin="round"/>
<path d="M72.1462 19.5966L76.8003 17.3965" stroke="#20335B" stroke-width="2" stroke-linecap="round" stroke-linejoin="round"/>
<path d="M22.856 42.8954L27.51 40.6953" stroke="#20335B" stroke-width="2" stroke-linecap="round" stroke-linejoin="round"/>
<path d="M54.7336 27.9505C54.7336 31.8721 49.9438 35.0573 49.9438 35.0573C49.9438 35.0573 45.1541 31.8721 45.1541 27.9505C45.1541 24.0288 49.9438 20.8496 49.9438 20.8496C49.9438 20.8496 54.7336 24.0288 54.7336 27.9505Z" fill="#1768C7"/>
<path d="M49.9314 24.4473V49.0249" stroke="#4B8FED" stroke-width="2" stroke-linecap="round" stroke-linejoin="round"/>
<path d="M47.3811 27.3401L49.9137 29.8727" stroke="#4B8FED" stroke-width="2" stroke-linecap="round" stroke-linejoin="round"/>
<path d="M52.4764 27.3401L49.9438 29.8727" stroke="#4B8FED" stroke-width="2" stroke-linecap="round" stroke-linejoin="round"/>
<path d="M44.9802 33.5478C47.7583 36.3259 46.6148 41.9658 46.6148 41.9658C46.6148 41.9658 40.9688 43.1094 38.1967 40.3373C35.4246 37.5652 36.5682 31.9193 36.5682 31.9193C36.5682 31.9193 42.1902 30.7757 44.9802 33.5478Z" fill="#1768C7"/>
<path d="M39.0884 34.4648L49.9313 45.3077" stroke="#4B8FED" stroke-width="2" stroke-linecap="round" stroke-linejoin="round"/>
<path d="M39.3337 38.3125H42.9141" stroke="#4B8FED" stroke-width="2" stroke-linecap="round" stroke-linejoin="round"/>
<path d="M42.9385 34.7107V38.2911" stroke="#4B8FED" stroke-width="2" stroke-linecap="round" stroke-linejoin="round"/>
<path d="M54.9008 33.5478C52.1287 36.3259 53.2723 41.9658 53.2723 41.9658C53.2723 41.9658 58.9122 43.1094 61.6843 40.3373C64.4564 37.5652 63.3189 31.9193 63.3189 31.9193C63.3189 31.9193 57.6729 30.7757 54.9008 33.5478Z" fill="#1768C7"/>
<path d="M60.7683 34.4648L49.9314 45.3077" stroke="#4B8FED" stroke-width="2" stroke-linecap="round" stroke-linejoin="round"/>
<path d="M60.523 38.3125H56.9426" stroke="#4B8FED" stroke-width="2" stroke-linecap="round" stroke-linejoin="round"/>
<path d="M56.9243 34.7107V38.2911" stroke="#4B8FED" stroke-width="2" stroke-linecap="round" stroke-linejoin="round"/>
<defs>
<linearGradient id="paint0_linear_540_8249" x1="65.2871" y1="15.8594" x2="65.2871" y2="70.8184" gradientUnits="userSpaceOnUse">
<stop stop-color="#E9E9E9"/>
<stop offset="1" stop-color="#B8CAFF"/>
<stop offset="1" stop-color="#B8CAFF"/>
</linearGradient>
</defs>
</svg>
