<svg width="43" height="32" viewBox="0 0 43 32" fill="none" xmlns="http://www.w3.org/2000/svg">
<g opacity="0.2">
<path d="M12.6146 0.414359L11.9303 0L2.8303 15.029C1.07871 16.8301 0 19.2891 0 22C0 27.5228 4.47715 32 10 32C15.5228 32 20 27.5228 20 22C20 16.4772 15.5228 12 10 12C8.03975 12 6.21125 12.564 4.6679 13.5386L12.6146 0.414359Z" fill="#4F81BC"/>
<path d="M35.0146 0.414359L34.3303 0L25.2303 15.029C23.4787 16.8301 22.4 19.2891 22.4 22C22.4 27.5228 26.8772 32 32.4 32C37.9228 32 42.4 27.5228 42.4 22C42.4 16.4772 37.9228 12 32.4 12C30.4398 12 28.6112 12.564 27.0679 13.5386L35.0146 0.414359Z" fill="#4F81BC"/>
</g>
</svg>
