<svg width="340" height="354" viewBox="0 0 340 354" fill="none" xmlns="http://www.w3.org/2000/svg">
<g filter="url(#filter0_d_1147_12477)">
<circle r="116" transform="matrix(1 0 0 -1 170 170)" fill="white"/>
<circle r="115.5" transform="matrix(1 0 0 -1 170 170)" stroke="#3480CD" stroke-opacity="0.5"/>
</g>
<path fill-rule="evenodd" clip-rule="evenodd" d="M169.483 32.501C169.655 32.5003 169.827 32.5 170 32.5C170.173 32.5 170.345 32.5003 170.517 32.501C171.898 32.506 173.013 33.6294 173.008 35.0101C173.003 36.3909 171.88 37.506 170.499 37.5009C170.333 37.5003 170.166 37.5 170 37.5C169.834 37.5 169.667 37.5003 169.501 37.5009C168.12 37.506 166.997 36.3909 166.992 35.0101C166.987 33.6294 168.102 32.506 169.483 32.501ZM151.847 36.1867C152.056 37.5514 151.119 38.8274 149.754 39.0366C149.426 39.0869 149.098 39.1384 148.771 39.1912C147.408 39.4106 146.125 38.4835 145.905 37.1204C145.686 35.7572 146.613 34.4742 147.976 34.2547C148.316 34.2 148.656 34.1466 148.997 34.0943C150.362 33.8851 151.638 34.8219 151.847 36.1867ZM188.153 36.1867C188.363 34.8219 189.638 33.8851 191.003 34.0944C191.344 34.1466 191.684 34.2 192.024 34.2547C193.387 34.4742 194.314 35.7572 194.095 37.1204C193.875 38.4835 192.592 39.4106 191.229 39.1912C190.902 39.1384 190.574 39.0869 190.246 39.0366C188.881 38.8274 187.944 37.5514 188.153 36.1867ZM131.131 40.6552C131.552 41.9701 130.828 43.3776 129.513 43.799C129.198 43.9002 128.883 44.0024 128.568 44.1058C127.257 44.5372 125.844 43.8237 125.412 42.5121C124.981 41.2005 125.694 39.7875 127.006 39.3561C127.332 39.2488 127.659 39.1426 127.987 39.0377C129.302 38.6162 130.709 39.3404 131.131 40.6552ZM208.87 40.6552C209.291 39.3404 210.699 38.6162 212.013 39.0377C212.341 39.1427 212.668 39.2488 212.994 39.3561C214.306 39.7875 215.019 41.2005 214.588 42.5121C214.156 43.8237 212.743 44.5372 211.432 44.1058C211.117 44.0024 210.802 43.9002 210.487 43.7991C209.172 43.3776 208.448 41.9701 208.87 40.6552ZM111.379 48.3313C112.003 49.5633 111.509 51.0673 110.277 51.6905C109.982 51.8398 109.687 51.9902 109.393 52.1417C108.166 52.7741 106.658 52.2918 106.026 51.0645C105.393 49.8371 105.876 48.3295 107.103 47.697C107.408 47.5399 107.714 47.3838 108.02 47.2288C109.252 46.6056 110.756 47.0992 111.379 48.3313ZM228.621 48.3313C229.244 47.0992 230.748 46.6056 231.98 47.2288C232.286 47.3838 232.592 47.5399 232.897 47.6971C234.124 48.3295 234.607 49.8372 233.974 51.0645C233.342 52.2918 231.834 52.7741 230.607 52.1417C230.313 51.9902 230.018 51.8398 229.723 51.6905C228.491 51.0673 227.997 49.5633 228.621 48.3313ZM93.0804 59.0141C93.8887 60.1335 93.6365 61.6962 92.5171 62.5044C92.2491 62.698 91.9817 62.8926 91.7152 63.0881C90.6019 63.9047 89.0373 63.6642 88.2207 62.5509C87.4041 61.4376 87.6446 59.873 88.7579 59.0564C89.0345 58.8535 89.3119 58.6516 89.59 58.4508C90.7094 57.6425 92.2721 57.8947 93.0804 59.0141ZM246.92 59.0141C247.728 57.8947 249.291 57.6425 250.41 58.4508C250.688 58.6516 250.965 58.8535 251.242 59.0564C252.355 59.873 252.596 61.4375 251.779 62.5509C250.963 63.6642 249.398 63.9047 248.285 63.0881C248.018 62.8926 247.751 62.698 247.483 62.5044C246.363 61.6962 246.111 60.1335 246.92 59.0141ZM76.673 72.4227C77.6456 73.4026 77.6397 74.9855 76.6598 75.9582C76.4251 76.1912 76.1912 76.4251 75.9582 76.6598C74.9855 77.6397 73.4026 77.6456 72.4227 76.673C71.4428 75.7003 71.4369 74.1174 72.4095 73.1374C72.6513 72.8939 72.8939 72.6513 73.1374 72.4095C74.1174 71.4369 75.7003 71.4428 76.673 72.4227ZM263.327 72.4227C264.3 71.4428 265.883 71.4369 266.863 72.4095C267.106 72.6513 267.349 72.8939 267.59 73.1374C268.563 74.1174 268.557 75.7003 267.577 76.673C266.597 77.6456 265.014 77.6397 264.042 76.6598C263.809 76.4251 263.575 76.1912 263.34 75.9582C262.36 74.9855 262.354 73.4026 263.327 72.4227ZM277.449 88.2207C278.562 87.4041 280.127 87.6446 280.944 88.7579C281.146 89.0345 281.348 89.3119 281.549 89.59C282.358 90.7094 282.105 92.2721 280.986 93.0804C279.867 93.8887 278.304 93.6365 277.496 92.5171C277.302 92.2491 277.107 91.9817 276.912 91.7152C276.095 90.6019 276.336 89.0373 277.449 88.2207ZM62.5509 88.2207C63.6642 89.0373 63.9047 90.6019 63.0881 91.7152C62.8926 91.9817 62.698 92.2491 62.5044 92.5171C61.6962 93.6365 60.1335 93.8887 59.0141 93.0804C57.8947 92.2721 57.6425 90.7094 58.4508 89.59C58.6516 89.3119 58.8535 89.0345 59.0564 88.7579C59.873 87.6446 61.4375 87.4041 62.5509 88.2207ZM51.0645 106.026C52.2918 106.658 52.7741 108.166 52.1417 109.393C51.9902 109.687 51.8398 109.982 51.6905 110.277C51.0673 111.509 49.5633 112.003 48.3313 111.379C47.0992 110.756 46.6056 109.252 47.2288 108.02C47.3838 107.714 47.5399 107.408 47.6971 107.103C48.3295 105.876 49.8372 105.393 51.0645 106.026ZM288.936 106.026C290.163 105.393 291.671 105.876 292.303 107.103C292.46 107.408 292.616 107.714 292.771 108.02C293.394 109.252 292.901 110.756 291.669 111.379C290.437 112.003 288.933 111.509 288.309 110.277C288.16 109.982 288.01 109.687 287.858 109.393C287.226 108.166 287.708 106.658 288.936 106.026ZM42.5121 125.412C43.8237 125.844 44.5372 127.257 44.1058 128.568C44.0024 128.883 43.9002 129.198 43.7991 129.513C43.3776 130.828 41.9701 131.552 40.6552 131.131C39.3404 130.709 38.6162 129.302 39.0377 127.987C39.1427 127.659 39.2488 127.332 39.3561 127.006C39.7875 125.694 41.2005 124.981 42.5121 125.412ZM297.488 125.412C298.8 124.981 300.212 125.694 300.644 127.006C300.751 127.332 300.857 127.659 300.962 127.987C301.384 129.302 300.66 130.709 299.345 131.131C298.03 131.552 296.622 130.828 296.201 129.513C296.1 129.198 295.998 128.883 295.894 128.568C295.463 127.257 296.176 125.844 297.488 125.412ZM37.1204 145.905C38.4835 146.125 39.4106 147.408 39.1912 148.771C39.1384 149.098 39.0869 149.426 39.0366 149.754C38.8274 151.119 37.5514 152.056 36.1867 151.847C34.8219 151.638 33.8851 150.362 34.0944 148.997C34.1466 148.656 34.2 148.316 34.2547 147.976C34.4742 146.613 35.7572 145.686 37.1204 145.905ZM302.88 145.905C304.243 145.686 305.526 146.613 305.745 147.976C305.8 148.316 305.853 148.656 305.906 148.997C306.115 150.362 305.178 151.638 303.813 151.847C302.449 152.056 301.173 151.119 300.963 149.754C300.913 149.426 300.862 149.098 300.809 148.771C300.589 147.408 301.516 146.125 302.88 145.905ZM35.0101 166.992C36.3909 166.997 37.506 168.12 37.5009 169.501C37.5003 169.667 37.5 169.834 37.5 170C37.5 170.166 37.5003 170.333 37.5009 170.499C37.506 171.88 36.3909 173.003 35.0101 173.008C33.6294 173.013 32.506 171.898 32.501 170.517C32.5003 170.345 32.5 170.173 32.5 170C32.5 169.827 32.5003 169.655 32.501 169.483C32.506 168.102 33.6294 166.987 35.0101 166.992ZM304.99 166.992C306.371 166.987 307.494 168.102 307.499 169.483C307.5 169.655 307.5 169.827 307.5 170C307.5 170.082 307.5 170.165 307.5 170.247C307.5 170.337 307.499 170.427 307.499 170.517C307.494 171.898 306.371 173.013 304.99 173.008C303.609 173.003 302.494 171.88 302.499 170.499C302.5 170.333 302.5 170.166 302.5 170C302.5 169.917 302.5 169.834 302.5 169.75C302.5 169.667 302.499 169.584 302.499 169.501C302.494 168.12 303.609 166.997 304.99 166.992ZM36.1867 188.153C37.5514 187.944 38.8274 188.881 39.0366 190.246C39.0869 190.574 39.1384 190.902 39.1912 191.229C39.4106 192.592 38.4835 193.875 37.1204 194.095C35.7572 194.314 34.4742 193.387 34.2547 192.024C34.2 191.684 34.1466 191.344 34.0943 191.003C33.8851 189.638 34.8219 188.362 36.1867 188.153ZM303.813 188.153C305.178 188.363 306.115 189.638 305.906 191.003C305.853 191.344 305.8 191.684 305.745 192.024C305.526 193.387 304.243 194.314 302.88 194.095C301.516 193.875 300.589 192.592 300.809 191.229C300.845 191.005 300.88 190.781 300.915 190.557C300.931 190.453 300.947 190.35 300.963 190.246C301.173 188.881 302.449 187.944 303.813 188.153ZM40.6552 208.869C41.9701 208.448 43.3776 209.172 43.799 210.487C43.9002 210.802 44.0024 211.117 44.1058 211.432C44.5372 212.743 43.8237 214.156 42.5121 214.588C41.2005 215.019 39.7875 214.306 39.3561 212.994C39.2488 212.668 39.1426 212.341 39.0377 212.013C38.6162 210.698 39.3404 209.291 40.6552 208.869ZM299.345 208.87C300.66 209.291 301.384 210.699 300.962 212.013C300.857 212.341 300.751 212.668 300.644 212.994C300.212 214.306 298.799 215.019 297.488 214.588C296.176 214.156 295.463 212.743 295.894 211.432C295.998 211.117 296.1 210.802 296.201 210.487C296.622 209.172 298.03 208.448 299.345 208.87ZM48.3313 228.621C49.5633 227.997 51.0673 228.491 51.6905 229.723C51.8398 230.018 51.9902 230.313 52.1417 230.607C52.7741 231.834 52.2918 233.342 51.0645 233.974C49.8371 234.607 48.3295 234.124 47.697 232.897C47.5399 232.592 47.3838 232.286 47.2288 231.98C46.6056 230.748 47.0992 229.244 48.3313 228.621ZM291.669 228.621C292.901 229.244 293.394 230.748 292.771 231.98C292.616 232.286 292.46 232.592 292.303 232.897C291.671 234.124 290.163 234.607 288.935 233.974C287.708 233.342 287.226 231.834 287.858 230.607C288.01 230.313 288.16 230.018 288.309 229.723C288.933 228.491 290.437 227.997 291.669 228.621ZM59.0141 246.92C60.1335 246.111 61.6962 246.363 62.5044 247.483C62.698 247.751 62.8926 248.018 63.0881 248.285C63.9047 249.398 63.6642 250.963 62.5509 251.779C61.4376 252.596 59.873 252.355 59.0564 251.242C58.8535 250.965 58.6516 250.688 58.4508 250.41C57.6425 249.291 57.8947 247.728 59.0141 246.92ZM280.986 246.92C282.105 247.728 282.358 249.291 281.549 250.41C281.348 250.688 281.146 250.965 280.944 251.242C280.127 252.355 278.562 252.596 277.449 251.779C276.336 250.963 276.095 249.398 276.912 248.285C277.107 248.018 277.302 247.751 277.496 247.483C278.304 246.363 279.867 246.111 280.986 246.92ZM72.4227 263.327C73.4026 262.354 74.9855 262.36 75.9582 263.34C76.1912 263.575 76.4251 263.809 76.6598 264.042C77.6397 265.014 77.6456 266.597 76.673 267.577C75.7003 268.557 74.1174 268.563 73.1374 267.59C72.8939 267.349 72.6513 267.106 72.4095 266.863C71.4369 265.883 71.4428 264.3 72.4227 263.327ZM267.577 263.327C268.557 264.3 268.563 265.883 267.59 266.863C267.349 267.106 267.106 267.349 266.863 267.59C265.883 268.563 264.3 268.557 263.327 267.577C262.354 266.597 262.36 265.014 263.34 264.042C263.575 263.809 263.809 263.575 264.042 263.34C265.014 262.36 266.597 262.354 267.577 263.327ZM251.779 277.449C252.596 278.562 252.355 280.127 251.242 280.944C250.965 281.146 250.688 281.348 250.41 281.549C249.291 282.358 247.728 282.105 246.92 280.986C246.111 279.867 246.363 278.304 247.483 277.496C247.751 277.302 248.018 277.107 248.285 276.912C249.398 276.095 250.963 276.336 251.779 277.449ZM88.2207 277.449C89.0373 276.336 90.6019 276.095 91.7152 276.912C91.9817 277.107 92.2491 277.302 92.5171 277.496C93.6365 278.304 93.8887 279.867 93.0804 280.986C92.2721 282.105 90.7094 282.358 89.59 281.549C89.3119 281.348 89.0345 281.146 88.7579 280.944C87.6446 280.127 87.4041 278.562 88.2207 277.449ZM106.026 288.935C106.658 287.708 108.166 287.226 109.393 287.858C109.687 288.01 109.982 288.16 110.277 288.309C111.509 288.933 112.003 290.437 111.379 291.669C110.756 292.901 109.252 293.394 108.02 292.771C107.714 292.616 107.408 292.46 107.103 292.303C105.876 291.671 105.393 290.163 106.026 288.935ZM233.974 288.936C234.607 290.163 234.124 291.671 232.897 292.303C232.592 292.46 232.286 292.616 231.98 292.771C230.748 293.394 229.244 292.901 228.621 291.669C227.997 290.437 228.491 288.933 229.723 288.309C230.018 288.16 230.313 288.01 230.607 287.858C231.834 287.226 233.342 287.708 233.974 288.936ZM125.412 297.488C125.844 296.176 127.257 295.463 128.568 295.894C128.883 295.998 129.198 296.1 129.513 296.201C130.828 296.622 131.552 298.03 131.131 299.345C130.709 300.66 129.302 301.384 127.987 300.962C127.659 300.857 127.332 300.751 127.006 300.644C125.694 300.212 124.981 298.799 125.412 297.488ZM214.588 297.488C215.019 298.8 214.306 300.212 212.994 300.644C212.668 300.751 212.341 300.857 212.013 300.962C210.698 301.384 209.291 300.66 208.869 299.345C208.448 298.03 209.172 296.622 210.487 296.201C210.802 296.1 211.117 295.998 211.432 295.894C212.743 295.463 214.156 296.176 214.588 297.488ZM145.905 302.88C146.125 301.516 147.408 300.589 148.771 300.809C149.098 300.862 149.426 300.913 149.754 300.963C151.119 301.173 152.056 302.449 151.847 303.813C151.638 305.178 150.362 306.115 148.997 305.906C148.656 305.853 148.316 305.8 147.976 305.745C146.613 305.526 145.686 304.243 145.905 302.88ZM194.095 302.88C194.314 304.243 193.387 305.526 192.024 305.745C191.684 305.8 191.344 305.853 191.003 305.906C189.638 306.115 188.362 305.178 188.153 303.813C187.944 302.449 188.881 301.173 190.246 300.963C190.574 300.913 190.902 300.862 191.229 300.809C192.592 300.589 193.875 301.516 194.095 302.88ZM166.992 304.99C166.997 303.609 168.12 302.494 169.501 302.499C169.667 302.5 169.834 302.5 170 302.5C170.166 302.5 170.333 302.5 170.499 302.499C171.88 302.494 173.003 303.609 173.008 304.99C173.013 306.371 171.898 307.494 170.517 307.499C170.345 307.5 170.173 307.5 170 307.5C169.827 307.5 169.655 307.5 169.483 307.499C168.102 307.494 166.987 306.371 166.992 304.99Z" fill="#A6B9E2"/>
<defs>
<filter id="filter0_d_1147_12477" x="44" y="54" width="292" height="300" filterUnits="userSpaceOnUse" color-interpolation-filters="sRGB">
<feFlood flood-opacity="0" result="BackgroundImageFix"/>
<feColorMatrix in="SourceAlpha" type="matrix" values="0 0 0 0 0 0 0 0 0 0 0 0 0 0 0 0 0 0 127 0" result="hardAlpha"/>
<feOffset dx="20" dy="38"/>
<feGaussianBlur stdDeviation="15"/>
<feColorMatrix type="matrix" values="0 0 0 0 0.0980392 0 0 0 0 0.207843 0 0 0 0 0.454902 0 0 0 0.09 0"/>
<feBlend mode="normal" in2="BackgroundImageFix" result="effect1_dropShadow_1147_12477"/>
<feBlend mode="normal" in="SourceGraphic" in2="effect1_dropShadow_1147_12477" result="shape"/>
</filter>
</defs>
</svg>
