<svg width="1000" height="1000" viewBox="0 0 1000 1000" fill="none" xmlns="http://www.w3.org/2000/svg">
<path d="M85.35 424.03C85.35 423.292 84.738 422.68 84 422.68C83.262 422.68 82.65 423.292 82.65 424.03C82.65 424.768 83.262 425.38 84 425.38C84.738 425.38 85.35 424.768 85.35 424.03ZM78.06 422.698L77.538 423.22L83.478 429.16L77.52 435.118L78.042 435.64L84 429.682L89.94 435.622L90.462 435.1L84.522 429.16L90.462 423.22L89.94 422.698L84 428.638L78.06 422.698ZM78.87 427.81C78.132 427.81 77.52 428.422 77.52 429.16C77.52 429.898 78.132 430.51 78.87 430.51C79.608 430.51 80.22 429.898 80.22 429.16C80.22 428.422 79.608 427.81 78.87 427.81ZM89.13 430.51C89.868 430.51 90.48 429.898 90.48 429.16C90.48 428.422 89.868 427.81 89.13 427.81C88.392 427.81 87.78 428.422 87.78 429.16C87.78 429.898 88.392 430.51 89.13 430.51ZM82.65 434.29C82.65 435.028 83.262 435.64 84 435.64C84.738 435.64 85.35 435.028 85.35 434.29C85.35 433.552 84.738 432.94 84 432.94C83.262 432.94 82.65 433.552 82.65 434.29Z" fill="#C24F4F"/>
<rect x="72.05" y="416.05" width="23.9" height="23.9" stroke="black" stroke-width="0.1"/>
<path d="M109.35 424.03C109.35 423.292 108.738 422.68 108 422.68C107.262 422.68 106.65 423.292 106.65 424.03C106.65 424.768 107.262 425.38 108 425.38C108.738 425.38 109.35 424.768 109.35 424.03ZM102.06 422.698L101.538 423.22L107.478 429.16L101.52 435.118L102.042 435.64L108 429.682L113.94 435.622L114.462 435.1L108.522 429.16L114.462 423.22L113.94 422.698L108 428.638L102.06 422.698ZM102.87 427.81C102.132 427.81 101.52 428.422 101.52 429.16C101.52 429.898 102.132 430.51 102.87 430.51C103.608 430.51 104.22 429.898 104.22 429.16C104.22 428.422 103.608 427.81 102.87 427.81ZM113.13 430.51C113.868 430.51 114.48 429.898 114.48 429.16C114.48 428.422 113.868 427.81 113.13 427.81C112.392 427.81 111.78 428.422 111.78 429.16C111.78 429.898 112.392 430.51 113.13 430.51ZM106.65 434.29C106.65 435.028 107.262 435.64 108 435.64C108.738 435.64 109.35 435.028 109.35 434.29C109.35 433.552 108.738 432.94 108 432.94C107.262 432.94 106.65 433.552 106.65 434.29Z" fill="#222222"/>
<rect x="96.05" y="416.05" width="23.9" height="23.9" stroke="black" stroke-width="0.1"/>
<path fill-rule="evenodd" clip-rule="evenodd" d="M110.647 445.646L111.354 446.354L105.707 452L111.354 457.646L110.647 458.354L104.293 452L110.647 445.646Z" fill="#777777"/>
<rect x="96.05" y="440.05" width="23.9" height="23.9" stroke="black" stroke-width="0.1"/>
<path fill-rule="evenodd" clip-rule="evenodd" d="M89.6465 445.646L90.3536 446.354L84.7072 452L90.3536 457.646L89.6465 458.354L83.293 452L89.6465 445.646Z" fill="#777777"/>
<path fill-rule="evenodd" clip-rule="evenodd" d="M84.6465 445.646L85.3536 446.354L79.7072 452L85.3536 457.646L84.6465 458.354L78.293 452L84.6465 445.646Z" fill="#777777"/>
<rect x="72.05" y="440.05" width="23.9" height="23.9" stroke="black" stroke-width="0.1"/>
<path d="M58.0566 445.589C58.6686 445.212 59.4383 445 60.3786 445C61.319 445 62.0887 445.212 62.7008 445.589C63.3127 445.966 63.7057 446.47 63.9524 446.958C64.1955 447.438 64.2991 447.907 64.3442 448.246C64.3671 448.417 64.3758 448.563 64.3787 448.67C64.3801 448.724 64.3801 448.768 64.3795 448.802L64.3787 448.836V451C64.3787 451.552 63.931 452 63.3787 452C62.8265 452 62.3787 451.552 62.3787 451V448.818C62.3787 448.803 62.3791 448.788 62.3797 448.773C62.3797 448.773 62.3799 447 60.3799 447C58.3799 447 58.3801 448.773 58.3801 448.773C58.3807 448.788 58.3811 448.803 58.3811 448.818V451C58.3811 451.552 57.9334 452 57.3811 452C56.8288 452 56.3811 451.552 56.3811 451V448.837L56.3803 448.803C56.3797 448.769 56.3796 448.725 56.381 448.671C56.3837 448.564 56.3923 448.418 56.4151 448.246C56.4599 447.907 56.5631 447.439 56.8058 446.958C57.0521 446.47 57.4448 445.966 58.0566 445.589Z" fill="#777777"/>
<path d="M64.0608 450H56.9392C55.8674 450 55 450.691 55 451.545V456.455C55 457.309 55.8674 458 56.9392 458H64.0608C65.1326 458 66 457.309 66 456.455V451.545C65.9972 450.691 65.1298 450 64.0608 450Z" fill="#FAB216"/>
<rect x="60" y="454" width="1" height="2" fill="#777777"/>
<circle cx="60.5" cy="453.5" r="1" fill="#777777"/>
<rect x="48.05" y="440.05" width="23.9" height="23.9" stroke="black" stroke-width="0.1"/>
<rect x="29" y="445" width="15" height="15" rx="7.5" fill="#4493F1"/>
<path fill-rule="evenodd" clip-rule="evenodd" d="M34 450.16L34.8801 449.835L38 453.486V450.16H39V454.84L38.1199 455.165L35 451.514V454.84H34V450.16Z" fill="white"/>
<rect x="24.05" y="440.05" width="23.9" height="23.9" stroke="black" stroke-width="0.1"/>
<path fill-rule="evenodd" clip-rule="evenodd" d="M2.63379 448.168C3.18607 448.168 3.63379 448.616 3.63379 449.168V455.313C3.63379 455.866 3.18607 456.313 2.63379 456.313C2.0815 456.313 1.63379 455.866 1.63379 455.313V449.168C1.63379 448.616 2.0815 448.168 2.63379 448.168Z" fill="#777777"/>
<path d="M13.5218 457.906L2 455.076V449.598L13.5218 446.768" fill="#777777"/>
<path fill-rule="evenodd" clip-rule="evenodd" d="M13.8215 445C14.3738 445 14.8215 445.448 14.8215 446V458.674C14.8215 459.226 14.3738 459.674 13.8215 459.674C13.2692 459.674 12.8215 459.226 12.8215 458.674V446C12.8215 445.448 13.2692 445 13.8215 445Z" fill="#777777"/>
<path fill-rule="evenodd" clip-rule="evenodd" d="M16.5161 454.908C16.7832 454.424 17.3916 454.249 17.875 454.516L20.6825 456.068C21.1659 456.335 21.3412 456.943 21.074 457.427C20.8069 457.91 20.1984 458.085 19.7151 457.818L16.9076 456.267C16.4242 455.999 16.2489 455.391 16.5161 454.908Z" fill="#4493F1"/>
<path fill-rule="evenodd" clip-rule="evenodd" d="M16.3914 452C16.3914 451.448 16.8391 451 17.3914 451H22.0001C22.5524 451 23.0001 451.448 23.0001 452C23.0001 452.552 22.5524 453 22.0001 453H17.3914C16.8391 453 16.3914 452.552 16.3914 452Z" fill="#4493F1"/>
<path fill-rule="evenodd" clip-rule="evenodd" d="M20.7049 446.671C20.9836 447.147 20.8231 447.76 20.3463 448.039L17.896 449.471C17.4192 449.75 16.8067 449.589 16.528 449.113C16.2492 448.636 16.4098 448.023 16.8866 447.745L19.3369 446.312C19.8136 446.033 20.4261 446.194 20.7049 446.671Z" fill="#4493F1"/>
<rect x="0.05" y="440.05" width="23.9" height="23.9" stroke="black" stroke-width="0.1"/>
<path fill-rule="evenodd" clip-rule="evenodd" d="M60 290C64.4183 290 68 286.418 68 282C68 277.582 64.4183 274 60 274C55.5817 274 52 277.582 52 282C52 286.418 55.5817 290 60 290Z" fill="white"/>
<path fill-rule="evenodd" clip-rule="evenodd" d="M60 289C63.866 289 67 285.866 67 282C67 278.134 63.866 275 60 275C56.134 275 53 278.134 53 282C53 285.866 56.134 289 60 289ZM60 290C64.4183 290 68 286.418 68 282C68 277.582 64.4183 274 60 274C55.5817 274 52 277.582 52 282C52 286.418 55.5817 290 60 290Z" fill="#C4C4C4"/>
<rect x="48.05" y="270.05" width="23.9" height="23.9" stroke="black" stroke-width="0.1"/>
<path fill-rule="evenodd" clip-rule="evenodd" d="M60 314C64.4183 314 68 310.418 68 306C68 301.582 64.4183 298 60 298C55.5817 298 52 301.582 52 306C52 310.418 55.5817 314 60 314Z" fill="white"/>
<path fill-rule="evenodd" clip-rule="evenodd" d="M60 313C63.866 313 67 309.866 67 306C67 302.134 63.866 299 60 299C56.134 299 53 302.134 53 306C53 309.866 56.134 313 60 313ZM60 314C64.4183 314 68 310.418 68 306C68 301.582 64.4183 298 60 298C55.5817 298 52 301.582 52 306C52 310.418 55.5817 314 60 314Z" fill="#C4C4C4"/>
<path d="M65 306C65 308.761 62.7614 311 60 311C57.2386 311 55 308.761 55 306C55 303.239 57.2386 301 60 301C62.7614 301 65 303.239 65 306Z" fill="#1768C7"/>
<rect x="48.05" y="294.05" width="23.9" height="23.9" stroke="black" stroke-width="0.1"/>
<path fill-rule="evenodd" clip-rule="evenodd" d="M29 275V290H44V275H29Z" fill="white"/>
<path fill-rule="evenodd" clip-rule="evenodd" d="M43 276H30V289H43V276ZM29 275V290H44V275H29Z" fill="#C4C4C4"/>
<rect x="24.05" y="270.05" width="23.9" height="23.9" stroke="black" stroke-width="0.1"/>
<path fill-rule="evenodd" clip-rule="evenodd" d="M29 299V314H44V299H29Z" fill="white"/>
<path fill-rule="evenodd" clip-rule="evenodd" d="M43 300H30V313H43V300ZM29 299V314H44V299H29Z" fill="#C4C4C4"/>
<path fill-rule="evenodd" clip-rule="evenodd" d="M42.1959 303.968L35.3095 310.643L30.804 306.276L32.1959 304.84L35.3095 307.857L40.804 302.532L42.1959 303.968Z" fill="#1768C7"/>
<rect x="24.05" y="294.05" width="23.9" height="23.9" stroke="black" stroke-width="0.1"/>
<path fill-rule="evenodd" clip-rule="evenodd" d="M17.063 422.092C15.7367 420.769 13.5887 420.77 12.2668 422.092L6.13152 428.227C5.89721 428.461 5.51731 428.461 5.283 428.227C5.04868 427.993 5.04868 427.613 5.283 427.378L11.4183 421.243C13.2094 419.452 16.1165 419.453 17.9106 421.243C19.7018 423.034 19.7016 425.941 17.9116 427.735L10.6084 435.035C10.6084 435.035 10.6085 435.035 10.6084 435.035C9.18851 436.455 6.88471 436.455 5.46484 435.035C4.04492 433.615 4.04492 431.311 5.46484 429.891L11.4765 423.88C12.4228 422.933 13.956 422.932 14.9004 423.88C15.8462 424.827 15.8478 426.359 14.8994 427.304C14.8992 427.304 14.8996 427.303 14.8994 427.304L10.1796 432.031C9.94548 432.265 9.56558 432.266 9.33109 432.031C9.09659 431.797 9.0963 431.417 9.33043 431.183L14.051 426.455L14.0524 426.454C14.5289 425.98 14.5304 425.207 14.0513 424.728L14.0502 424.727C13.5762 424.251 12.8041 424.249 12.325 424.728L6.31337 430.74C5.36208 431.691 5.36208 433.235 6.31337 434.187C7.26465 435.138 8.80862 435.138 9.7599 434.187L17.0621 426.888C17.0622 426.888 17.062 426.888 17.0621 426.888C18.3849 425.562 18.3845 423.414 17.063 422.092Z" fill="#777777"/>
<rect x="0.05" y="416.05" width="23.9" height="23.9" stroke="black" stroke-width="0.1"/>
<path d="M6.82324 396V412H17.9268V399.621L14.4587 396H6.82324Z" fill="white"/>
<path fill-rule="evenodd" clip-rule="evenodd" d="M5.82324 396C5.82324 395.448 6.27096 395 6.82324 395H14.4587C14.7314 395 14.9923 395.111 15.1809 395.308L18.649 398.93C18.8272 399.116 18.9268 399.363 18.9268 399.621V412C18.9268 412.552 18.479 413 17.9268 413H6.82324C6.27096 413 5.82324 412.552 5.82324 412V396ZM6.82324 412V396H14.4587L17.9268 399.621V412H6.82324Z" fill="#727272"/>
<path d="M17.6224 399.304H14.7627V396.318" fill="white"/>
<path fill-rule="evenodd" clip-rule="evenodd" d="M18.6224 399.304C18.6224 399.856 18.1747 400.304 17.6224 400.304H14.7627C14.2104 400.304 13.7627 399.856 13.7627 399.304V396.318C13.7627 395.765 14.2104 395.318 14.7627 395.318C15.315 395.318 15.7627 395.765 15.7627 396.318V397.362L14.7627 396.318V399.304H17.6224L16.6647 398.304H17.6224C18.1747 398.304 18.6224 398.751 18.6224 399.304Z" fill="#727272"/>
<path d="M18.9796 410.625H5.02034C4.45739 410.625 4 410.035 4 409.309V402.941C4 402.215 4.45739 401.625 5.02034 401.625H18.9796C19.5426 401.625 20 402.215 20 402.941V409.309C20.0044 410.035 19.547 410.625 18.9796 410.625Z" fill="#C71717"/>
<path d="M7.8667 406.611H6.93701V408.029C6.93701 408.232 6.88916 408.386 6.79346 408.491C6.69775 408.596 6.57699 408.648 6.43115 408.648C6.27848 408.648 6.15544 408.597 6.06201 408.494C5.96859 408.389 5.92188 408.237 5.92188 408.036V404.174C5.92188 403.951 5.97314 403.791 6.07568 403.695C6.17822 403.6 6.34115 403.552 6.56445 403.552H7.8667C8.25179 403.552 8.54801 403.581 8.75537 403.641C8.96045 403.698 9.13704 403.792 9.28516 403.924C9.43555 404.056 9.54948 404.218 9.62695 404.41C9.70443 404.601 9.74316 404.816 9.74316 405.056C9.74316 405.566 9.58594 405.953 9.27148 406.218C8.95703 406.48 8.48877 406.611 7.8667 406.611ZM7.62061 404.314H6.93701V405.845H7.62061C7.85986 405.845 8.05924 405.82 8.21875 405.77C8.38053 405.72 8.50358 405.638 8.58789 405.524C8.6722 405.41 8.71436 405.261 8.71436 405.076C8.71436 404.855 8.64941 404.675 8.51953 404.536C8.3737 404.388 8.07406 404.314 7.62061 404.314Z" fill="white"/>
<path d="M10.7997 403.552H12.1225C12.4666 403.552 12.7616 403.584 13.0077 403.647C13.2538 403.711 13.4771 403.831 13.6777 404.006C14.1995 404.453 14.4604 405.132 14.4604 406.043C14.4604 406.344 14.4342 406.619 14.3818 406.867C14.3293 407.116 14.2485 407.34 14.1391 407.541C14.0297 407.739 13.8896 407.917 13.7187 408.074C13.5842 408.194 13.4373 408.291 13.2778 408.364C13.1182 408.437 12.9462 408.488 12.7616 408.518C12.5793 408.548 12.3731 408.562 12.143 408.562H10.8202C10.6357 408.562 10.4967 408.535 10.4032 408.48C10.3098 408.424 10.2483 408.345 10.2187 408.245C10.1913 408.142 10.1777 408.01 10.1777 407.848V404.174C10.1777 403.955 10.2266 403.797 10.3246 403.699C10.4226 403.601 10.581 403.552 10.7997 403.552ZM11.1928 404.355V407.756H11.9618C12.1305 407.756 12.2626 407.751 12.3583 407.742C12.454 407.733 12.5531 407.71 12.6557 407.674C12.7582 407.637 12.8471 407.586 12.9223 407.52C13.2618 407.233 13.4316 406.738 13.4316 406.037C13.4316 405.542 13.3564 405.172 13.206 404.926C13.0579 404.68 12.8744 404.524 12.6557 404.458C12.4369 404.389 12.1726 404.355 11.8627 404.355H11.1928Z" fill="white"/>
<path d="M17.9266 404.334H15.9271V405.616H17.5985C17.7534 405.616 17.8685 405.652 17.9437 405.722C18.0212 405.791 18.0599 405.883 18.0599 405.999C18.0599 406.115 18.0212 406.208 17.9437 406.276C17.8662 406.344 17.7511 406.378 17.5985 406.378H15.9271V408.029C15.9271 408.239 15.8792 408.395 15.7835 408.498C15.6901 408.598 15.5693 408.648 15.4212 408.648C15.2708 408.648 15.1478 408.597 15.0521 408.494C14.9587 408.392 14.912 408.237 14.912 408.029V404.174C14.912 404.028 14.9336 403.91 14.9769 403.818C15.0202 403.725 15.0874 403.658 15.1786 403.617C15.272 403.573 15.3905 403.552 15.534 403.552H17.9266C18.0884 403.552 18.208 403.588 18.2855 403.661C18.3652 403.732 18.4051 403.825 18.4051 403.941C18.4051 404.06 18.3652 404.156 18.2855 404.229C18.208 404.299 18.0884 404.334 17.9266 404.334Z" fill="white"/>
<rect x="0.05" y="392.05" width="23.9" height="23.9" stroke="black" stroke-width="0.1"/>
<path d="M30.8232 396V412H41.9268V399.621L38.4587 396H30.8232Z" fill="white"/>
<path fill-rule="evenodd" clip-rule="evenodd" d="M29.8232 396C29.8232 395.448 30.271 395 30.8232 395H38.4587C38.7314 395 38.9923 395.111 39.1809 395.308L42.649 398.93C42.8272 399.116 42.9268 399.363 42.9268 399.621V412C42.9268 412.552 42.479 413 41.9268 413H30.8232C30.271 413 29.8232 412.552 29.8232 412V396ZM30.8232 412V396H38.4587L41.9268 399.621V412H30.8232Z" fill="#727272"/>
<path d="M41.6224 399.304H38.7627V396.318" fill="white"/>
<path fill-rule="evenodd" clip-rule="evenodd" d="M42.6224 399.304C42.6224 399.856 42.1747 400.304 41.6224 400.304H38.7627C38.2104 400.304 37.7627 399.856 37.7627 399.304V396.318C37.7627 395.765 38.2104 395.318 38.7627 395.318C39.315 395.318 39.7627 395.765 39.7627 396.318V397.362L38.7627 396.318V399.304H41.6224L40.6647 398.304H41.6224C42.1747 398.304 42.6224 398.751 42.6224 399.304Z" fill="#727272"/>
<path d="M42.9796 410.625H29.0203C28.4574 410.625 28 410.035 28 409.309V402.941C28 402.215 28.4574 401.625 29.0203 401.625H42.9796C43.5426 401.625 44 402.215 44 402.941V409.309C44.0044 410.035 43.547 410.625 42.9796 410.625Z" fill="#46A46C"/>
<path d="M30.2373 407.588L31.3584 405.951L30.415 404.495C30.3262 404.354 30.259 404.233 30.2134 404.133C30.1701 404.03 30.1484 403.932 30.1484 403.839C30.1484 403.743 30.1906 403.658 30.2749 403.583C30.3615 403.505 30.4663 403.466 30.5894 403.466C30.7306 403.466 30.84 403.508 30.9175 403.593C30.9972 403.675 31.1066 403.829 31.2456 404.054L31.9976 405.271L32.8008 404.054C32.8669 403.952 32.9227 403.864 32.9683 403.791C33.0161 403.718 33.0617 403.658 33.105 403.61C33.1483 403.562 33.1961 403.527 33.2485 403.504C33.3032 403.479 33.3659 403.466 33.4365 403.466C33.5641 403.466 33.6678 403.505 33.7476 403.583C33.8296 403.658 33.8706 403.748 33.8706 403.853C33.8706 404.005 33.7829 404.213 33.6074 404.475L32.6196 405.951L33.6826 407.588C33.7783 407.732 33.8478 407.852 33.8911 407.947C33.9344 408.041 33.9561 408.13 33.9561 408.214C33.9561 408.294 33.9367 408.367 33.8979 408.433C33.8592 408.499 33.8045 408.551 33.7339 408.59C33.6632 408.629 33.5835 408.648 33.4946 408.648C33.3989 408.648 33.318 408.627 33.252 408.586C33.1859 408.548 33.1323 408.499 33.0913 408.439C33.0503 408.38 32.974 408.265 32.8623 408.094L31.9805 406.707L31.0439 408.135C30.971 408.249 30.9186 408.329 30.8867 408.375C30.8571 408.42 30.8206 408.465 30.7773 408.508C30.734 408.551 30.6828 408.585 30.6235 408.61C30.5643 408.635 30.4948 408.648 30.415 408.648C30.292 408.648 30.1895 408.61 30.1074 408.535C30.0277 408.46 29.9878 408.351 29.9878 408.207C29.9878 408.038 30.071 407.832 30.2373 407.588Z" fill="white"/>
<path d="M35.2279 404.082V407.729H37.2856C37.4496 407.729 37.575 407.768 37.6615 407.848C37.7504 407.928 37.7948 408.028 37.7948 408.149C37.7948 408.272 37.7515 408.372 37.665 408.45C37.5784 408.525 37.4519 408.562 37.2856 408.562H34.8349C34.6139 408.562 34.4543 408.514 34.3564 408.416C34.2607 408.318 34.2128 408.159 34.2128 407.94V404.082C34.2128 403.876 34.2584 403.723 34.3495 403.62C34.443 403.518 34.5649 403.466 34.7153 403.466C34.8679 403.466 34.991 403.518 35.0844 403.62C35.1801 403.72 35.2279 403.874 35.2279 404.082Z" fill="white"/>
<path d="M41.5858 407.059C41.5858 407.362 41.5072 407.634 41.3499 407.875C41.195 408.117 40.9671 408.306 40.6663 408.443C40.3656 408.58 40.009 408.648 39.5965 408.648C39.1021 408.648 38.6942 408.555 38.3729 408.368C38.145 408.233 37.9593 408.054 37.8158 407.831C37.6745 407.605 37.6038 407.387 37.6038 407.175C37.6038 407.052 37.646 406.947 37.7303 406.86C37.8169 406.771 37.9263 406.727 38.0584 406.727C38.1655 406.727 38.2555 406.761 38.3285 406.83C38.4037 406.898 38.4675 406.999 38.5199 407.134C38.5837 407.293 38.652 407.427 38.7249 407.534C38.8001 407.641 38.905 407.73 39.0394 407.8C39.1738 407.869 39.3504 407.903 39.5692 407.903C39.87 407.903 40.1138 407.833 40.3006 407.694C40.4898 407.553 40.5843 407.378 40.5843 407.168C40.5843 407.002 40.533 406.867 40.4305 406.765C40.3302 406.66 40.1992 406.58 40.0374 406.525C39.8779 406.471 39.6637 406.413 39.3949 406.351C39.0348 406.267 38.7329 406.169 38.4891 406.057C38.2476 405.943 38.055 405.789 37.9115 405.596C37.7702 405.4 37.6996 405.157 37.6996 404.868C37.6996 404.592 37.7747 404.347 37.9251 404.133C38.0755 403.919 38.2931 403.755 38.578 403.641C38.8628 403.524 39.1978 403.466 39.5829 403.466C39.8905 403.466 40.1559 403.505 40.3792 403.583C40.6048 403.658 40.7917 403.759 40.9398 403.887C41.0879 404.012 41.1961 404.144 41.2645 404.283C41.3329 404.422 41.367 404.558 41.367 404.69C41.367 404.811 41.3237 404.92 41.2371 405.018C41.1528 405.114 41.0469 405.162 40.9193 405.162C40.8031 405.162 40.7142 405.133 40.6527 405.076C40.5934 405.017 40.5285 404.921 40.4579 404.789C40.3667 404.6 40.2573 404.453 40.1297 404.348C40.0021 404.241 39.797 404.188 39.5145 404.188C39.2524 404.188 39.0405 404.246 38.8787 404.362C38.7192 404.476 38.6395 404.614 38.6395 404.775C38.6395 404.876 38.6668 404.962 38.7215 405.035C38.7762 405.108 38.8514 405.171 38.9471 405.223C39.0428 405.276 39.1397 405.317 39.2376 405.346C39.3356 405.376 39.4974 405.419 39.723 405.476C40.0055 405.542 40.2607 405.615 40.4886 405.695C40.7188 405.775 40.9136 405.871 41.0731 405.985C41.2349 406.099 41.3602 406.244 41.4491 406.419C41.5402 406.593 41.5858 406.806 41.5858 407.059Z" fill="white"/>
<rect x="24.05" y="392.05" width="23.9" height="23.9" stroke="black" stroke-width="0.1"/>
<path d="M54.8232 396V412H65.9268V399.621L62.4587 396H54.8232Z" fill="white"/>
<path fill-rule="evenodd" clip-rule="evenodd" d="M53.8232 396C53.8232 395.448 54.271 395 54.8232 395H62.4587C62.7314 395 62.9923 395.111 63.1809 395.308L66.649 398.93C66.8272 399.116 66.9268 399.363 66.9268 399.621V412C66.9268 412.552 66.479 413 65.9268 413H54.8232C54.271 413 53.8232 412.552 53.8232 412V396ZM54.8232 412V396H62.4587L65.9268 399.621V412H54.8232Z" fill="#727272"/>
<path d="M65.6224 399.304H62.7627V396.318" fill="white"/>
<path fill-rule="evenodd" clip-rule="evenodd" d="M66.6224 399.304C66.6224 399.856 66.1747 400.304 65.6224 400.304H62.7627C62.2104 400.304 61.7627 399.856 61.7627 399.304V396.318C61.7627 395.765 62.2104 395.318 62.7627 395.318C63.315 395.318 63.7627 395.765 63.7627 396.318V397.362L62.7627 396.318V399.304H65.6224L64.6647 398.304H65.6224C66.1747 398.304 66.6224 398.751 66.6224 399.304Z" fill="#727272"/>
<path d="M66.9796 410.625H53.0203C52.4574 410.625 52 410.035 52 409.309V402.941C52 402.215 52.4574 401.625 53.0203 401.625H66.9796C67.5426 401.625 68 402.215 68 402.941V409.309C68.0044 410.035 67.547 410.625 66.9796 410.625Z" fill="#C78B17"/>
<path d="M55.7886 407.394L58.3623 404.314H56.1509C55.9959 404.314 55.8786 404.28 55.7988 404.212C55.7214 404.144 55.6826 404.054 55.6826 403.942C55.6826 403.826 55.7214 403.732 55.7988 403.662C55.8786 403.589 55.9959 403.552 56.1509 403.552H59.0015C59.3706 403.552 59.5552 403.724 59.5552 404.068C59.5552 404.232 59.5244 404.363 59.4629 404.461C59.4014 404.559 59.2772 404.718 59.0903 404.937L56.6841 407.801H59.3364C59.4937 407.801 59.611 407.834 59.6885 407.9C59.766 407.964 59.8047 408.054 59.8047 408.17C59.8047 408.291 59.766 408.386 59.6885 408.457C59.611 408.528 59.4937 408.563 59.3364 408.563H56.0825C55.8615 408.563 55.6951 408.514 55.5835 408.416C55.4718 408.316 55.416 408.182 55.416 408.016C55.416 407.959 55.4251 407.907 55.4434 407.859C55.4616 407.811 55.4855 407.767 55.5151 407.726C55.547 407.682 55.5903 407.629 55.645 407.565C55.6997 407.499 55.7476 407.442 55.7886 407.394Z" fill="white"/>
<path d="M60.0683 408.03V404.082C60.0683 403.877 60.115 403.723 60.2084 403.621C60.3018 403.518 60.4226 403.467 60.5707 403.467C60.7234 403.467 60.8464 403.518 60.9399 403.621C61.0356 403.721 61.0834 403.875 61.0834 404.082V408.03C61.0834 408.237 61.0356 408.392 60.9399 408.495C60.8464 408.597 60.7234 408.648 60.5707 408.648C60.4249 408.648 60.3041 408.597 60.2084 408.495C60.115 408.39 60.0683 408.235 60.0683 408.03Z" fill="white"/>
<path d="M63.7464 406.611H62.8167V408.03C62.8167 408.233 62.7689 408.386 62.6732 408.491C62.5775 408.596 62.4567 408.648 62.3109 408.648C62.1582 408.648 62.0352 408.597 61.9417 408.495C61.8483 408.39 61.8016 408.237 61.8016 408.037V404.174C61.8016 403.951 61.8529 403.792 61.9554 403.696C62.0579 403.6 62.2209 403.552 62.4442 403.552H63.7464C64.1315 403.552 64.4277 403.582 64.6351 403.641C64.8402 403.698 65.0168 403.793 65.1649 403.925C65.3153 404.057 65.4292 404.219 65.5067 404.41C65.5842 404.602 65.6229 404.817 65.6229 405.056C65.6229 405.567 65.4657 405.954 65.1512 406.218C64.8368 406.48 64.3685 406.611 63.7464 406.611ZM63.5003 404.314H62.8167V405.846H63.5003C63.7396 405.846 63.939 405.821 64.0985 405.771C64.2603 405.72 64.3833 405.638 64.4676 405.524C64.5519 405.41 64.5941 405.261 64.5941 405.077C64.5941 404.856 64.5291 404.676 64.3993 404.537C64.2534 404.389 63.9538 404.314 63.5003 404.314Z" fill="white"/>
<rect x="48.05" y="392.05" width="23.9" height="23.9" stroke="black" stroke-width="0.1"/>
<path d="M78.8232 396V412H89.9268V399.621L86.4587 396H78.8232Z" fill="white"/>
<path fill-rule="evenodd" clip-rule="evenodd" d="M77.8232 396C77.8232 395.448 78.271 395 78.8232 395H86.4587C86.7314 395 86.9923 395.111 87.1809 395.308L90.649 398.93C90.8272 399.116 90.9268 399.363 90.9268 399.621V412C90.9268 412.552 90.479 413 89.9268 413H78.8232C78.271 413 77.8232 412.552 77.8232 412V396ZM78.8232 412V396H86.4587L89.9268 399.621V412H78.8232Z" fill="#727272"/>
<path d="M89.6224 399.304H86.7627V396.318" fill="white"/>
<path fill-rule="evenodd" clip-rule="evenodd" d="M90.6224 399.304C90.6224 399.856 90.1747 400.304 89.6224 400.304H86.7627C86.2104 400.304 85.7627 399.856 85.7627 399.304V396.318C85.7627 395.765 86.2104 395.318 86.7627 395.318C87.315 395.318 87.7627 395.765 87.7627 396.318V397.362L86.7627 396.318V399.304H89.6224L88.6647 398.304H89.6224C90.1747 398.304 90.6224 398.751 90.6224 399.304Z" fill="#727272"/>
<path d="M90.9796 410.625H77.0203C76.4574 410.625 76 410.035 76 409.309V402.941C76 402.215 76.4574 401.625 77.0203 401.625H90.9796C91.5426 401.625 92 402.215 92 402.941V409.309C92.0044 410.035 91.547 410.625 90.9796 410.625Z" fill="#527298"/>
<path d="M80.834 404.082V406.707C80.834 406.934 80.8237 407.128 80.8032 407.288C80.785 407.447 80.7417 407.609 80.6733 407.773C80.5594 408.049 80.3714 408.264 80.1094 408.419C79.8473 408.572 79.5283 408.648 79.1523 408.648C78.8128 408.648 78.5291 408.594 78.3013 408.487C78.0757 408.38 77.8934 408.207 77.7544 407.968C77.6815 407.84 77.6222 407.693 77.5767 407.527C77.5311 407.361 77.5083 407.202 77.5083 407.052C77.5083 406.892 77.5527 406.77 77.6416 406.686C77.7305 406.602 77.8444 406.56 77.9834 406.56C78.1178 406.56 78.2192 406.598 78.2876 406.676C78.356 406.753 78.4084 406.874 78.4448 407.038C78.4836 407.214 78.5223 407.354 78.561 407.458C78.5998 407.563 78.6647 407.653 78.7559 407.729C78.847 407.804 78.9769 407.841 79.1455 407.841C79.5944 407.841 79.8188 407.512 79.8188 406.854V404.082C79.8188 403.876 79.8633 403.723 79.9521 403.62C80.0433 403.518 80.1663 403.466 80.3213 403.466C80.4785 403.466 80.6027 403.518 80.6938 403.62C80.7873 403.723 80.834 403.876 80.834 404.082Z" fill="white"/>
<path d="M83.4594 406.611H82.5297V408.029C82.5297 408.232 82.4819 408.386 82.3862 408.491C82.2904 408.596 82.1697 408.648 82.0238 408.648C81.8712 408.648 81.7481 408.597 81.6547 408.494C81.5613 408.389 81.5146 408.237 81.5146 408.036V404.174C81.5146 403.951 81.5658 403.791 81.6684 403.695C81.7709 403.6 81.9338 403.552 82.1571 403.552H83.4594C83.8445 403.552 84.1407 403.581 84.3481 403.641C84.5531 403.698 84.7297 403.792 84.8779 403.924C85.0282 404.056 85.1422 404.218 85.2196 404.41C85.2971 404.601 85.3359 404.816 85.3359 405.056C85.3359 405.566 85.1786 405.953 84.8642 406.218C84.5497 406.48 84.0815 406.611 83.4594 406.611ZM83.2133 404.314H82.5297V405.845H83.2133C83.4526 405.845 83.6519 405.82 83.8114 405.77C83.9732 405.72 84.0963 405.638 84.1806 405.524C84.2649 405.41 84.3071 405.261 84.3071 405.076C84.3071 404.855 84.2421 404.675 84.1122 404.536C83.9664 404.388 83.6668 404.314 83.2133 404.314Z" fill="white"/>
<path d="M90.3402 406.525V407.486C90.3402 407.613 90.3276 407.716 90.3026 407.793C90.2775 407.869 90.2308 407.937 90.1624 407.999C90.0964 408.06 90.0109 408.119 89.9061 408.176C89.603 408.34 89.3114 408.46 89.0311 408.535C88.7508 408.61 88.4455 408.648 88.1151 408.648C87.73 408.648 87.3791 408.589 87.0623 408.47C86.7456 408.352 86.4756 408.18 86.2523 407.954C86.029 407.729 85.8569 407.455 85.7362 407.134C85.6177 406.812 85.5584 406.454 85.5584 406.057C85.5584 405.667 85.6165 405.311 85.7328 404.987C85.849 404.664 86.0199 404.389 86.2454 404.164C86.471 403.938 86.7456 403.766 87.0692 403.647C87.3927 403.527 87.7596 403.466 88.1698 403.466C88.507 403.466 88.8055 403.512 89.0653 403.603C89.325 403.692 89.5358 403.805 89.6976 403.941C89.8594 404.078 89.9813 404.223 90.0633 404.375C90.1454 404.528 90.1864 404.664 90.1864 404.782C90.1864 404.91 90.1385 405.019 90.0428 405.11C89.9494 405.199 89.8366 405.244 89.7044 405.244C89.6315 405.244 89.5609 405.227 89.4925 405.192C89.4264 405.158 89.3706 405.11 89.325 405.049C89.1997 404.853 89.0938 404.705 89.0072 404.604C88.9206 404.504 88.8032 404.42 88.6551 404.352C88.5093 404.283 88.3224 404.249 88.0946 404.249C87.8599 404.249 87.6502 404.29 87.4657 404.372C87.2811 404.452 87.1227 404.569 86.9906 404.724C86.8607 404.877 86.7604 405.065 86.6898 405.288C86.6214 405.511 86.5872 405.759 86.5872 406.03C86.5872 406.618 86.7217 407.07 86.9906 407.387C87.2617 407.703 87.6388 407.862 88.1219 407.862C88.3566 407.862 88.5765 407.831 88.7816 407.77C88.9889 407.708 89.1986 407.62 89.4105 407.506V406.693H88.6244C88.4352 406.693 88.2917 406.664 88.1937 406.607C88.098 406.55 88.0501 406.454 88.0501 406.317C88.0501 406.205 88.09 406.113 88.1698 406.04C88.2518 405.967 88.3623 405.931 88.5013 405.931H89.6532C89.7944 405.931 89.9141 405.943 90.0121 405.968C90.11 405.993 90.1886 406.049 90.2479 406.136C90.3094 406.222 90.3402 406.352 90.3402 406.525Z" fill="white"/>
<rect x="72.05" y="392.05" width="23.9" height="23.9" stroke="black" stroke-width="0.1"/>
<path d="M102.823 396V412H113.927V399.621L110.459 396H102.823Z" fill="white"/>
<path fill-rule="evenodd" clip-rule="evenodd" d="M101.823 396C101.823 395.448 102.271 395 102.823 395H110.459C110.731 395 110.992 395.111 111.181 395.308L114.649 398.93C114.827 399.116 114.927 399.363 114.927 399.621V412C114.927 412.552 114.479 413 113.927 413H102.823C102.271 413 101.823 412.552 101.823 412V396ZM102.823 412V396H110.459L113.927 399.621V412H102.823Z" fill="#727272"/>
<path d="M113.622 399.304H110.763V396.318" fill="white"/>
<path fill-rule="evenodd" clip-rule="evenodd" d="M114.622 399.304C114.622 399.856 114.175 400.304 113.622 400.304H110.763C110.21 400.304 109.763 399.856 109.763 399.304V396.318C109.763 395.765 110.21 395.318 110.763 395.318C111.315 395.318 111.763 395.765 111.763 396.318V397.362L110.763 396.318V399.304H113.622L112.665 398.304H113.622C114.175 398.304 114.622 398.751 114.622 399.304Z" fill="#727272"/>
<path d="M114.98 410.625H101.02C100.457 410.625 100 410.035 100 409.309V402.941C100 402.215 100.457 401.625 101.02 401.625H114.98C115.543 401.625 116 402.215 116 402.941V409.309C116.004 410.035 115.547 410.625 114.98 410.625Z" fill="#8A5298"/>
<path d="M106.676 404.389H105.568V408.029C105.568 408.239 105.522 408.395 105.428 408.498C105.335 408.598 105.214 408.648 105.066 408.648C104.916 408.648 104.792 408.597 104.697 408.494C104.603 408.392 104.557 408.237 104.557 408.029V404.389H103.449C103.276 404.389 103.147 404.352 103.063 404.276C102.979 404.199 102.937 404.097 102.937 403.972C102.937 403.842 102.98 403.74 103.066 403.665C103.155 403.589 103.283 403.552 103.449 403.552H106.676C106.851 403.552 106.981 403.59 107.065 403.668C107.152 403.745 107.195 403.847 107.195 403.972C107.195 404.097 107.152 404.199 107.065 404.276C106.979 404.352 106.849 404.389 106.676 404.389Z" fill="white"/>
<path d="M107.418 408.029V404.082C107.418 403.876 107.465 403.723 107.558 403.62C107.651 403.518 107.772 403.466 107.92 403.466C108.073 403.466 108.196 403.518 108.289 403.62C108.385 403.72 108.433 403.874 108.433 404.082V408.029C108.433 408.237 108.385 408.392 108.289 408.494C108.196 408.597 108.073 408.648 107.92 408.648C107.774 408.648 107.654 408.597 107.558 408.494C107.465 408.389 107.418 408.234 107.418 408.029Z" fill="white"/>
<path d="M112.145 404.334H110.146V405.616H111.817C111.972 405.616 112.087 405.652 112.162 405.722C112.24 405.791 112.279 405.883 112.279 405.999C112.279 406.115 112.24 406.208 112.162 406.276C112.085 406.344 111.97 406.378 111.817 406.378H110.146V408.029C110.146 408.239 110.098 408.395 110.002 408.498C109.909 408.598 109.788 408.648 109.64 408.648C109.49 408.648 109.367 408.597 109.271 408.494C109.177 408.392 109.131 408.237 109.131 408.029V404.174C109.131 404.028 109.152 403.91 109.196 403.818C109.239 403.725 109.306 403.658 109.397 403.617C109.491 403.573 109.609 403.552 109.753 403.552H112.145C112.307 403.552 112.427 403.588 112.504 403.661C112.584 403.732 112.624 403.825 112.624 403.941C112.624 404.06 112.584 404.156 112.504 404.229C112.427 404.299 112.307 404.334 112.145 404.334Z" fill="white"/>
<rect x="96.05" y="392.05" width="23.9" height="23.9" stroke="black" stroke-width="0.1"/>
<path d="M126.823 396V412H137.927V399.621L134.459 396H126.823Z" fill="white"/>
<path fill-rule="evenodd" clip-rule="evenodd" d="M125.823 396C125.823 395.448 126.271 395 126.823 395H134.459C134.731 395 134.992 395.111 135.181 395.308L138.649 398.93C138.827 399.116 138.927 399.363 138.927 399.621V412C138.927 412.552 138.479 413 137.927 413H126.823C126.271 413 125.823 412.552 125.823 412V396ZM126.823 412V396H134.459L137.927 399.621V412H126.823Z" fill="#727272"/>
<path d="M137.622 399.304H134.763V396.318" fill="white"/>
<path fill-rule="evenodd" clip-rule="evenodd" d="M138.622 399.304C138.622 399.856 138.175 400.304 137.622 400.304H134.763C134.21 400.304 133.763 399.856 133.763 399.304V396.318C133.763 395.765 134.21 395.318 134.763 395.318C135.315 395.318 135.763 395.765 135.763 396.318V397.362L134.763 396.318V399.304H137.622L136.665 398.304H137.622C138.175 398.304 138.622 398.751 138.622 399.304Z" fill="#727272"/>
<path d="M138.98 410.625H125.02C124.457 410.625 124 410.035 124 409.309V402.941C124 402.215 124.457 401.625 125.02 401.625H138.98C139.543 401.625 140 402.215 140 402.941V409.309C140.004 410.035 139.547 410.625 138.98 410.625Z" fill="#4E5E71"/>
<path d="M129.676 404.389H128.568V408.029C128.568 408.239 128.522 408.395 128.428 408.498C128.335 408.598 128.214 408.648 128.066 408.648C127.916 408.648 127.792 408.597 127.697 408.494C127.603 408.392 127.557 408.237 127.557 408.029V404.389H126.449C126.276 404.389 126.147 404.352 126.063 404.276C125.979 404.199 125.937 404.097 125.937 403.972C125.937 403.842 125.98 403.74 126.066 403.665C126.155 403.589 126.283 403.552 126.449 403.552H129.676C129.851 403.552 129.981 403.59 130.065 403.668C130.152 403.745 130.195 403.847 130.195 403.972C130.195 404.097 130.152 404.199 130.065 404.276C129.979 404.352 129.849 404.389 129.676 404.389Z" fill="white"/>
<path d="M130.192 407.588L131.313 405.951L130.37 404.495C130.281 404.354 130.214 404.233 130.168 404.133C130.125 404.03 130.103 403.932 130.103 403.839C130.103 403.743 130.146 403.658 130.23 403.583C130.316 403.505 130.421 403.466 130.544 403.466C130.686 403.466 130.795 403.508 130.872 403.593C130.952 403.675 131.062 403.829 131.201 404.054L131.953 405.271L132.756 404.054C132.822 403.952 132.878 403.864 132.923 403.791C132.971 403.718 133.017 403.658 133.06 403.61C133.103 403.562 133.151 403.527 133.204 403.504C133.258 403.479 133.321 403.466 133.392 403.466C133.519 403.466 133.623 403.505 133.703 403.583C133.785 403.658 133.826 403.748 133.826 403.853C133.826 404.005 133.738 404.213 133.562 404.475L132.575 405.951L133.638 407.588C133.733 407.732 133.803 407.852 133.846 407.947C133.889 408.041 133.911 408.13 133.911 408.214C133.911 408.294 133.892 408.367 133.853 408.433C133.814 408.499 133.76 408.551 133.689 408.59C133.618 408.629 133.538 408.648 133.45 408.648C133.354 408.648 133.273 408.627 133.207 408.586C133.141 408.548 133.087 408.499 133.046 408.439C133.005 408.38 132.929 408.265 132.817 408.094L131.935 406.707L130.999 408.135C130.926 408.249 130.874 408.329 130.842 408.375C130.812 408.42 130.776 408.465 130.732 408.508C130.689 408.551 130.638 408.585 130.579 408.61C130.519 408.635 130.45 408.648 130.37 408.648C130.247 408.648 130.144 408.61 130.062 408.535C129.983 408.46 129.943 408.351 129.943 408.207C129.943 408.038 130.026 407.832 130.192 407.588Z" fill="white"/>
<path d="M137.442 404.389H136.335V408.029C136.335 408.239 136.288 408.395 136.195 408.498C136.101 408.598 135.98 408.648 135.832 408.648C135.682 408.648 135.559 408.597 135.463 408.494C135.37 408.392 135.323 408.237 135.323 408.029V404.389H134.216C134.042 404.389 133.914 404.352 133.829 404.276C133.745 404.199 133.703 404.097 133.703 403.972C133.703 403.842 133.746 403.74 133.833 403.665C133.922 403.589 134.049 403.552 134.216 403.552H137.442C137.618 403.552 137.748 403.59 137.832 403.668C137.918 403.745 137.962 403.847 137.962 403.972C137.962 404.097 137.918 404.199 137.832 404.276C137.745 404.352 137.615 404.389 137.442 404.389Z" fill="white"/>
<rect x="120.05" y="392.05" width="23.9" height="23.9" stroke="black" stroke-width="0.1"/>
<path d="M150.823 396V412H161.927V399.621L158.459 396H150.823Z" fill="white"/>
<path fill-rule="evenodd" clip-rule="evenodd" d="M149.823 396C149.823 395.448 150.271 395 150.823 395H158.459C158.731 395 158.992 395.111 159.181 395.308L162.649 398.93C162.827 399.116 162.927 399.363 162.927 399.621V412C162.927 412.552 162.479 413 161.927 413H150.823C150.271 413 149.823 412.552 149.823 412V396ZM150.823 412V396H158.459L161.927 399.621V412H150.823Z" fill="#727272"/>
<path d="M161.622 399.304H158.763V396.318" fill="white"/>
<path fill-rule="evenodd" clip-rule="evenodd" d="M162.622 399.304C162.622 399.856 162.175 400.304 161.622 400.304H158.763C158.21 400.304 157.763 399.856 157.763 399.304V396.318C157.763 395.765 158.21 395.318 158.763 395.318C159.315 395.318 159.763 395.765 159.763 396.318V397.362L158.763 396.318V399.304H161.622L160.665 398.304H161.622C162.175 398.304 162.622 398.751 162.622 399.304Z" fill="#727272"/>
<path d="M162.98 410.625H149.02C148.457 410.625 148 410.035 148 409.309V402.941C148 402.215 148.457 401.625 149.02 401.625H162.98C163.543 401.625 164 402.215 164 402.941V409.309C164.004 410.035 163.547 410.625 162.98 410.625Z" fill="#C71717"/>
<path d="M154.128 407.995L153.889 407.366H151.852L151.612 408.009C151.519 408.259 151.439 408.429 151.373 408.518C151.307 408.605 151.199 408.648 151.048 408.648C150.921 408.648 150.808 408.601 150.71 408.508C150.612 408.414 150.563 408.308 150.563 408.19C150.563 408.122 150.574 408.051 150.597 407.978C150.62 407.905 150.658 407.804 150.71 407.674L151.992 404.42C152.028 404.326 152.071 404.215 152.122 404.085C152.174 403.953 152.229 403.843 152.286 403.757C152.345 403.67 152.421 403.601 152.515 403.548C152.61 403.494 152.728 403.466 152.867 403.466C153.008 403.466 153.125 403.494 153.219 403.548C153.314 403.601 153.391 403.669 153.448 403.753C153.507 403.838 153.556 403.929 153.595 404.027C153.636 404.123 153.687 404.251 153.749 404.413L155.058 407.646C155.16 407.893 155.211 408.071 155.211 408.183C155.211 408.299 155.162 408.406 155.064 408.504C154.969 408.6 154.853 408.648 154.716 408.648C154.636 408.648 154.568 408.633 154.511 408.604C154.454 408.576 154.406 408.539 154.367 408.491C154.328 408.441 154.286 408.365 154.241 408.265C154.197 408.163 154.16 408.073 154.128 407.995ZM152.118 406.604H153.615L152.86 404.536L152.118 406.604Z" fill="white"/>
<path d="M155.926 404.133L157.061 407.493L158.199 404.109C158.258 403.931 158.303 403.808 158.332 403.74C158.362 403.669 158.411 403.606 158.479 403.552C158.548 403.495 158.641 403.466 158.76 403.466C158.846 403.466 158.926 403.488 158.999 403.531C159.074 403.575 159.132 403.633 159.173 403.706C159.217 403.776 159.238 403.848 159.238 403.921C159.238 403.971 159.231 404.026 159.218 404.085C159.204 404.142 159.187 404.199 159.166 404.256C159.146 404.311 159.125 404.368 159.105 404.427L157.892 407.701C157.848 407.826 157.805 407.946 157.762 408.06C157.718 408.172 157.668 408.271 157.611 408.357C157.554 408.442 157.478 408.511 157.382 408.566C157.289 408.621 157.174 408.648 157.037 408.648C156.9 408.648 156.784 408.621 156.688 408.566C156.595 408.514 156.519 408.444 156.459 408.357C156.402 408.269 156.352 408.168 156.309 408.057C156.266 407.945 156.222 407.826 156.179 407.701L154.986 404.454C154.966 404.395 154.944 404.337 154.921 404.28C154.901 404.223 154.883 404.161 154.867 404.095C154.853 404.029 154.846 403.973 154.846 403.928C154.846 403.812 154.893 403.706 154.986 403.61C155.08 403.514 155.197 403.466 155.338 403.466C155.511 403.466 155.633 403.52 155.704 403.627C155.777 403.732 155.851 403.9 155.926 404.133Z" fill="white"/>
<path d="M159.625 408.029V404.082C159.625 403.876 159.672 403.723 159.765 403.62C159.858 403.518 159.979 403.466 160.127 403.466C160.28 403.466 160.403 403.518 160.496 403.62C160.592 403.72 160.64 403.874 160.64 404.082V408.029C160.64 408.237 160.592 408.392 160.496 408.494C160.403 408.597 160.28 408.648 160.127 408.648C159.981 408.648 159.861 408.597 159.765 408.494C159.672 408.389 159.625 408.234 159.625 408.029Z" fill="white"/>
<rect x="144.05" y="392.05" width="23.9" height="23.9" stroke="black" stroke-width="0.1"/>
<path d="M174.823 396V412H185.927V399.621L182.459 396H174.823Z" fill="white"/>
<path fill-rule="evenodd" clip-rule="evenodd" d="M173.823 396C173.823 395.448 174.271 395 174.823 395H182.459C182.731 395 182.992 395.111 183.181 395.308L186.649 398.93C186.827 399.116 186.927 399.363 186.927 399.621V412C186.927 412.552 186.479 413 185.927 413H174.823C174.271 413 173.823 412.552 173.823 412V396ZM174.823 412V396H182.459L185.927 399.621V412H174.823Z" fill="#727272"/>
<path d="M185.622 399.304H182.763V396.318" fill="white"/>
<path fill-rule="evenodd" clip-rule="evenodd" d="M186.622 399.304C186.622 399.856 186.175 400.304 185.622 400.304H182.763C182.21 400.304 181.763 399.856 181.763 399.304V396.318C181.763 395.765 182.21 395.318 182.763 395.318C183.315 395.318 183.763 395.765 183.763 396.318V397.362L182.763 396.318V399.304H185.622L184.665 398.304H185.622C186.175 398.304 186.622 398.751 186.622 399.304Z" fill="#727272"/>
<path d="M186.98 410.625H173.02C172.457 410.625 172 410.035 172 409.309V402.941C172 402.215 172.457 401.625 173.02 401.625H186.98C187.543 401.625 188 402.215 188 402.941V409.309C188.004 410.035 187.547 410.625 186.98 410.625Z" fill="#E86100"/>
<path d="M175.867 406.611H174.937V408.029C174.937 408.232 174.889 408.386 174.793 408.491C174.698 408.596 174.577 408.648 174.431 408.648C174.278 408.648 174.155 408.597 174.062 408.494C173.969 408.389 173.922 408.237 173.922 408.036V404.174C173.922 403.951 173.973 403.791 174.076 403.695C174.178 403.6 174.341 403.552 174.564 403.552H175.867C176.252 403.552 176.548 403.581 176.755 403.641C176.96 403.698 177.137 403.792 177.285 403.924C177.436 404.056 177.549 404.218 177.627 404.41C177.704 404.601 177.743 404.816 177.743 405.056C177.743 405.566 177.586 405.953 177.271 406.218C176.957 406.48 176.489 406.611 175.867 406.611ZM175.621 404.314H174.937V405.845H175.621C175.86 405.845 176.059 405.82 176.219 405.77C176.381 405.72 176.504 405.638 176.588 405.524C176.672 405.41 176.714 405.261 176.714 405.076C176.714 404.855 176.649 404.675 176.52 404.536C176.374 404.388 176.074 404.314 175.621 404.314Z" fill="white"/>
<path d="M180.116 406.611H179.186V408.029C179.186 408.232 179.138 408.386 179.042 408.491C178.947 408.596 178.826 408.648 178.68 408.648C178.527 408.648 178.404 408.597 178.311 408.494C178.218 408.389 178.171 408.237 178.171 408.036V404.174C178.171 403.951 178.222 403.791 178.325 403.695C178.427 403.6 178.59 403.552 178.813 403.552H180.116C180.501 403.552 180.797 403.581 181.004 403.641C181.209 403.698 181.386 403.792 181.534 403.924C181.684 404.056 181.798 404.218 181.876 404.41C181.953 404.601 181.992 404.816 181.992 405.056C181.992 405.566 181.835 405.953 181.52 406.218C181.206 406.48 180.738 406.611 180.116 406.611ZM179.87 404.314H179.186V405.845H179.87C180.109 405.845 180.308 405.82 180.468 405.77C180.629 405.72 180.753 405.638 180.837 405.524C180.921 405.41 180.963 405.261 180.963 405.076C180.963 404.855 180.898 404.675 180.768 404.536C180.623 404.388 180.323 404.314 179.87 404.314Z" fill="white"/>
<path d="M185.674 404.389H184.566V408.029C184.566 408.239 184.52 408.395 184.426 408.498C184.333 408.598 184.212 408.648 184.064 408.648C183.913 408.648 183.79 408.597 183.695 408.494C183.601 408.392 183.555 408.237 183.555 408.029V404.389H182.447C182.274 404.389 182.145 404.352 182.061 404.276C181.977 404.199 181.934 404.097 181.934 403.972C181.934 403.842 181.978 403.74 182.064 403.665C182.153 403.589 182.281 403.552 182.447 403.552H185.674C185.849 403.552 185.979 403.59 186.063 403.668C186.15 403.745 186.193 403.847 186.193 403.972C186.193 404.097 186.15 404.199 186.063 404.276C185.977 404.352 185.847 404.389 185.674 404.389Z" fill="white"/>
<rect x="168.05" y="392.05" width="23.9" height="23.9" stroke="black" stroke-width="0.1"/>
<path d="M198.823 396V412H209.927V399.621L206.459 396H198.823Z" fill="white"/>
<path fill-rule="evenodd" clip-rule="evenodd" d="M197.823 396C197.823 395.448 198.271 395 198.823 395H206.459C206.731 395 206.992 395.111 207.181 395.308L210.649 398.93C210.827 399.116 210.927 399.363 210.927 399.621V412C210.927 412.552 210.479 413 209.927 413H198.823C198.271 413 197.823 412.552 197.823 412V396ZM198.823 412V396H206.459L209.927 399.621V412H198.823Z" fill="#727272"/>
<path d="M209.622 399.304H206.763V396.318" fill="white"/>
<path fill-rule="evenodd" clip-rule="evenodd" d="M210.622 399.304C210.622 399.856 210.175 400.304 209.622 400.304H206.763C206.21 400.304 205.763 399.856 205.763 399.304V396.318C205.763 395.765 206.21 395.318 206.763 395.318C207.315 395.318 207.763 395.765 207.763 396.318V397.362L206.763 396.318V399.304H209.622L208.665 398.304H209.622C210.175 398.304 210.622 398.751 210.622 399.304Z" fill="#727272"/>
<path d="M210.98 410.625H197.02C196.457 410.625 196 410.035 196 409.309V402.941C196 402.215 196.457 401.625 197.02 401.625H210.98C211.543 401.625 212 402.215 212 402.941V409.309C212.004 410.035 211.547 410.625 210.98 410.625Z" fill="#00A0D9"/>
<path d="M201.977 403.397H200.535V402.711H199.604V403.397H198.176V404.118H201.97L201.977 403.397ZM199.373 405.588C199.373 405.238 199.66 405.049 200.073 405.049C200.479 405.049 200.773 405.238 200.773 405.588C200.773 405.945 200.479 406.134 200.073 406.134C199.66 406.134 199.373 405.945 199.373 405.588ZM201.655 405.588C201.655 404.86 200.997 404.349 200.073 404.349C199.149 404.349 198.491 404.86 198.491 405.588C198.491 406.33 199.149 406.834 200.073 406.834C200.997 406.834 201.655 406.33 201.655 405.588ZM200.017 407.184H199.093V409.053H203.482V408.318H200.017V407.184ZM203.251 404.685V402.718H202.327V407.541H203.251V405.448H204.105V404.685H203.251Z" fill="white"/>
<path d="M205.777 407.968H209.333V406.155H204.846V406.869H208.409V407.289H204.853V409.116H209.494V408.402H205.777V407.968ZM209.228 404.986C209.347 404.349 209.347 403.824 209.347 403.411V402.97H204.916V403.705H208.437C208.43 404.062 208.409 404.468 208.304 404.986H204.195V405.714H210.033V404.986H209.228Z" fill="white"/>
<rect x="192.05" y="392.05" width="23.9" height="23.9" stroke="black" stroke-width="0.1"/>
<path d="M222.823 396V412H233.927V399.621L230.459 396H222.823Z" fill="white"/>
<path fill-rule="evenodd" clip-rule="evenodd" d="M221.823 396C221.823 395.448 222.271 395 222.823 395H230.459C230.731 395 230.992 395.111 231.181 395.308L234.649 398.93C234.827 399.116 234.927 399.363 234.927 399.621V412C234.927 412.552 234.479 413 233.927 413H222.823C222.271 413 221.823 412.552 221.823 412V396ZM222.823 412V396H230.459L233.927 399.621V412H222.823Z" fill="#727272"/>
<path d="M233.622 399.304H230.763V396.318" fill="white"/>
<path fill-rule="evenodd" clip-rule="evenodd" d="M234.622 399.304C234.622 399.856 234.175 400.304 233.622 400.304H230.763C230.21 400.304 229.763 399.856 229.763 399.304V396.318C229.763 395.765 230.21 395.318 230.763 395.318C231.315 395.318 231.763 395.765 231.763 396.318V397.362L230.763 396.318V399.304H233.622L232.665 398.304H233.622C234.175 398.304 234.622 398.751 234.622 399.304Z" fill="#727272"/>
<path d="M234.98 410.625H221.02C220.457 410.625 220 410.035 220 409.309V402.941C220 402.215 220.457 401.625 221.02 401.625H234.98C235.543 401.625 236 402.215 236 402.941V409.309C236.004 410.035 235.547 410.625 234.98 410.625Z" fill="#007A5D"/>
<path d="M224.849 404.42H222.562V405.651H224.667C224.822 405.651 224.938 405.686 225.013 405.757C225.09 405.825 225.129 405.916 225.129 406.03C225.129 406.144 225.091 406.238 225.016 406.311C224.941 406.381 224.825 406.417 224.667 406.417H222.562V407.842H224.927C225.087 407.842 225.206 407.879 225.286 407.955C225.368 408.028 225.409 408.125 225.409 408.249C225.409 408.367 225.368 408.464 225.286 408.539C225.206 408.612 225.087 408.648 224.927 408.648H222.169C221.948 408.648 221.788 408.599 221.69 408.501C221.595 408.403 221.547 408.245 221.547 408.026V404.26C221.547 404.114 221.569 403.995 221.612 403.904C221.655 403.811 221.722 403.744 221.813 403.703C221.907 403.659 222.025 403.638 222.169 403.638H224.849C225.01 403.638 225.13 403.674 225.208 403.747C225.287 403.818 225.327 403.911 225.327 404.027C225.327 404.146 225.287 404.242 225.208 404.314C225.13 404.385 225.01 404.42 224.849 404.42Z" fill="white"/>
<path d="M229.47 404.475H228.362V408.115C228.362 408.325 228.316 408.481 228.222 408.583C228.129 408.684 228.008 408.734 227.86 408.734C227.709 408.734 227.586 408.683 227.491 408.58C227.397 408.478 227.351 408.323 227.351 408.115V404.475H226.243C226.07 404.475 225.941 404.438 225.857 404.362C225.773 404.285 225.73 404.183 225.73 404.058C225.73 403.928 225.774 403.826 225.86 403.75C225.949 403.675 226.077 403.638 226.243 403.638H229.47C229.645 403.638 229.775 403.676 229.859 403.754C229.946 403.831 229.989 403.933 229.989 404.058C229.989 404.183 229.946 404.285 229.859 404.362C229.773 404.438 229.643 404.475 229.47 404.475Z" fill="white"/>
<path d="M234.682 407.066C234.682 407.225 234.642 407.399 234.562 407.585C234.485 407.77 234.362 407.952 234.193 408.132C234.025 408.31 233.809 408.455 233.547 408.566C233.285 408.678 232.98 408.734 232.631 408.734C232.367 408.734 232.127 408.709 231.91 408.659C231.694 408.609 231.497 408.531 231.319 408.426C231.143 408.319 230.982 408.179 230.833 408.006C230.701 407.849 230.589 407.673 230.495 407.479C230.402 407.284 230.331 407.075 230.283 406.854C230.238 406.633 230.215 406.398 230.215 406.15C230.215 405.747 230.273 405.385 230.389 405.066C230.508 404.747 230.676 404.475 230.895 404.25C231.114 404.022 231.37 403.848 231.664 403.73C231.958 403.611 232.271 403.552 232.604 403.552C233.01 403.552 233.371 403.633 233.688 403.795C234.004 403.957 234.247 404.157 234.416 404.396C234.584 404.633 234.668 404.858 234.668 405.07C234.668 405.186 234.627 405.289 234.545 405.377C234.463 405.466 234.364 405.511 234.248 405.511C234.118 405.511 234.02 405.48 233.954 405.418C233.89 405.357 233.819 405.251 233.739 405.101C233.607 404.852 233.451 404.667 233.271 404.543C233.093 404.42 232.873 404.359 232.611 404.359C232.194 404.359 231.861 404.517 231.613 404.834C231.367 405.151 231.244 405.601 231.244 406.184C231.244 406.574 231.298 406.898 231.408 407.158C231.517 407.416 231.672 407.608 231.873 407.736C232.073 407.863 232.308 407.927 232.577 407.927C232.868 407.927 233.114 407.855 233.315 407.712C233.518 407.566 233.67 407.353 233.773 407.073C233.816 406.941 233.87 406.833 233.934 406.751C233.997 406.667 234.1 406.625 234.241 406.625C234.362 406.625 234.466 406.667 234.552 406.751C234.639 406.836 234.682 406.941 234.682 407.066Z" fill="white"/>
<rect x="216.05" y="392.05" width="23.9" height="23.9" stroke="black" stroke-width="0.1"/>
<path fill-rule="evenodd" clip-rule="evenodd" d="M29.2857 422.787C29.4723 422.584 29.7886 422.57 29.9922 422.756L36.1543 428.405L42.3164 422.756C42.52 422.57 42.8363 422.584 43.0229 422.787C43.2095 422.991 43.1957 423.307 42.9922 423.494L36.4922 429.452C36.301 429.627 36.0076 429.627 35.8164 429.452L29.3164 423.494C29.1129 423.307 29.0991 422.991 29.2857 422.787Z" fill="#777777"/>
<path fill-rule="evenodd" clip-rule="evenodd" d="M29.1543 423.125C29.1543 422.849 29.3782 422.625 29.6543 422.625H42.6543C42.9304 422.625 43.1543 422.849 43.1543 423.125V432.333C43.1543 432.61 43.0446 432.875 42.8492 433.07C42.6538 433.265 42.3889 433.375 42.1126 433.375H30.196C29.9197 433.375 29.6547 433.265 29.4594 433.07C29.264 432.875 29.1543 432.61 29.1543 432.333V423.125ZM30.1543 423.625V432.333C30.1543 432.344 30.1587 432.355 30.1665 432.363C30.1743 432.371 30.1849 432.375 30.196 432.375H42.1126C42.1237 432.375 42.1343 432.371 42.1421 432.363C42.1499 432.355 42.1543 432.344 42.1543 432.333V423.625H30.1543Z" fill="#777777"/>
<path fill-rule="evenodd" clip-rule="evenodd" d="M35.3413 427.662C35.5279 427.866 35.5141 428.182 35.3106 428.369L30.1594 433.09C29.9558 433.277 29.6396 433.263 29.453 433.06C29.2664 432.856 29.2801 432.54 29.4837 432.353L34.6348 427.631C34.8384 427.445 35.1547 427.459 35.3413 427.662Z" fill="#777777"/>
<path fill-rule="evenodd" clip-rule="evenodd" d="M36.9674 427.662C37.154 427.459 37.4702 427.445 37.6738 427.631L42.825 432.353C43.0286 432.54 43.0424 432.856 42.8558 433.06C42.6692 433.263 42.3529 433.277 42.1493 433.091L36.9981 428.369C36.7945 428.182 36.7808 427.866 36.9674 427.662Z" fill="#777777"/>
<rect x="24.05" y="416.05" width="23.9" height="23.9" stroke="black" stroke-width="0.1"/>
<path fill-rule="evenodd" clip-rule="evenodd" d="M53.9062 425.656V432.156H62.2812V425.656H53.9062ZM52.9062 425.625C52.9062 425.09 53.34 424.656 53.875 424.656H62.3125C62.8475 424.656 63.2812 425.09 63.2812 425.625V432.187C63.2812 432.723 62.8475 433.156 62.3125 433.156H53.875C53.34 433.156 52.9062 432.723 52.9062 432.187V425.625Z" fill="#777777"/>
<path fill-rule="evenodd" clip-rule="evenodd" d="M55.7188 422.344C55.7188 422.068 55.9426 421.844 56.2188 421.844H65.125C65.3819 421.844 65.6283 421.946 65.81 422.127C65.9917 422.309 66.0938 422.556 66.0938 422.812V429.844C66.0938 430.12 65.8699 430.344 65.5938 430.344C65.3176 430.344 65.0938 430.12 65.0938 429.844V422.844H56.2188C55.9426 422.844 55.7188 422.62 55.7188 422.344Z" fill="#777777"/>
<rect x="48.05" y="416.05" width="23.9" height="23.9" stroke="black" stroke-width="0.1"/>
<path fill-rule="evenodd" clip-rule="evenodd" d="M5.64645 278.646C5.84171 278.451 6.15829 278.451 6.35355 278.646L12 284.293L17.6464 278.646C17.8417 278.451 18.1583 278.451 18.3536 278.646C18.5488 278.842 18.5488 279.158 18.3536 279.354L12.3536 285.354C12.1583 285.549 11.8417 285.549 11.6464 285.354L5.64645 279.354C5.45118 279.158 5.45118 278.842 5.64645 278.646Z" fill="white"/>
<rect x="0.05" y="270.05" width="23.9" height="23.9" stroke="black" stroke-width="0.1"/>
<path fill-rule="evenodd" clip-rule="evenodd" d="M5.64645 302.646C5.84171 302.451 6.15829 302.451 6.35355 302.646L12 308.293L17.6464 302.646C17.8417 302.451 18.1583 302.451 18.3536 302.646C18.5488 302.842 18.5488 303.158 18.3536 303.354L12.3536 309.354C12.1583 309.549 11.8417 309.549 11.6464 309.354L5.64645 303.354C5.45118 303.158 5.45118 302.842 5.64645 302.646Z" fill="#1768C7"/>
<rect x="0.05" y="294.05" width="23.9" height="23.9" stroke="black" stroke-width="0.1"/>
<path fill-rule="evenodd" clip-rule="evenodd" d="M5.64645 326.646C5.84171 326.451 6.15829 326.451 6.35355 326.646L12 332.293L17.6464 326.646C17.8417 326.451 18.1583 326.451 18.3536 326.646C18.5488 326.842 18.5488 327.158 18.3536 327.354L12.3536 333.354C12.1583 333.549 11.8417 333.549 11.6464 333.354L5.64645 327.354C5.45118 327.158 5.45118 326.842 5.64645 326.646Z" fill="#555555"/>
<rect x="0.05" y="318.05" width="23.9" height="23.9" stroke="black" stroke-width="0.1"/>
<path fill-rule="evenodd" clip-rule="evenodd" d="M54.25 34.25V40.75H62.75V34.25H54.25ZM52.75 34C52.75 33.3096 53.3096 32.75 54 32.75H63C63.6904 32.75 64.25 33.3096 64.25 34V41C64.25 41.6904 63.6904 42.25 63 42.25H54C53.3096 42.25 52.75 41.6904 52.75 41V34Z" fill="white"/>
<path fill-rule="evenodd" clip-rule="evenodd" d="M55.75 30.5C55.75 30.0858 56.0858 29.75 56.5 29.75H66C66.3315 29.75 66.6495 29.8817 66.8839 30.1161C67.1183 30.3505 67.25 30.6685 67.25 31V38.5C67.25 38.9142 66.9142 39.25 66.5 39.25C66.0858 39.25 65.75 38.9142 65.75 38.5V31.25H56.5C56.0858 31.25 55.75 30.9142 55.75 30.5Z" fill="white"/>
<rect x="48.05" y="24.05" width="23.9" height="23.9" stroke="black" stroke-width="0.1"/>
<path fill-rule="evenodd" clip-rule="evenodd" d="M54.25 58.25V64.75H62.75V58.25H54.25ZM52.75 58C52.75 57.3096 53.3096 56.75 54 56.75H63C63.6904 56.75 64.25 57.3096 64.25 58V65C64.25 65.6904 63.6904 66.25 63 66.25H54C53.3096 66.25 52.75 65.6904 52.75 65V58Z" fill="#1768C7"/>
<path fill-rule="evenodd" clip-rule="evenodd" d="M55.75 54.5C55.75 54.0858 56.0858 53.75 56.5 53.75H66C66.3315 53.75 66.6495 53.8817 66.8839 54.1161C67.1183 54.3505 67.25 54.6685 67.25 55V62.5C67.25 62.9142 66.9142 63.25 66.5 63.25C66.0858 63.25 65.75 62.9142 65.75 62.5V55.25H56.5C56.0858 55.25 55.75 54.9142 55.75 54.5Z" fill="#1768C7"/>
<rect x="48.05" y="48.05" width="23.9" height="23.9" stroke="black" stroke-width="0.1"/>
<path fill-rule="evenodd" clip-rule="evenodd" d="M54.25 82.25V88.75H62.75V82.25H54.25ZM52.75 82C52.75 81.3096 53.3096 80.75 54 80.75H63C63.6904 80.75 64.25 81.3096 64.25 82V89C64.25 89.6904 63.6904 90.25 63 90.25H54C53.3096 90.25 52.75 89.6904 52.75 89V82Z" fill="#555555"/>
<path fill-rule="evenodd" clip-rule="evenodd" d="M55.75 78.5C55.75 78.0858 56.0858 77.75 56.5 77.75H66C66.3315 77.75 66.6495 77.8817 66.8839 78.1161C67.1183 78.3505 67.25 78.6685 67.25 79V86.5C67.25 86.9142 66.9142 87.25 66.5 87.25C66.0858 87.25 65.75 86.9142 65.75 86.5V79.25H56.5C56.0858 79.25 55.75 78.9142 55.75 78.5Z" fill="#555555"/>
<rect x="48.05" y="72.05" width="23.9" height="23.9" stroke="black" stroke-width="0.1"/>
<path fill-rule="evenodd" clip-rule="evenodd" d="M54.25 106.25V112.75H62.75V106.25H54.25ZM52.75 106C52.75 105.31 53.3096 104.75 54 104.75H63C63.6904 104.75 64.25 105.31 64.25 106V113C64.25 113.69 63.6904 114.25 63 114.25H54C53.3096 114.25 52.75 113.69 52.75 113V106Z" fill="#20335B"/>
<path fill-rule="evenodd" clip-rule="evenodd" d="M55.75 102.5C55.75 102.086 56.0858 101.75 56.5 101.75H66C66.3315 101.75 66.6495 101.882 66.8839 102.116C67.1183 102.351 67.25 102.668 67.25 103V110.5C67.25 110.914 66.9142 111.25 66.5 111.25C66.0858 111.25 65.75 110.914 65.75 110.5V103.25H56.5C56.0858 103.25 55.75 102.914 55.75 102.5Z" fill="#20335B"/>
<rect x="48.05" y="96.05" width="23.9" height="23.9" stroke="black" stroke-width="0.1"/>
<path fill-rule="evenodd" clip-rule="evenodd" d="M54.25 130.25V136.75H62.75V130.25H54.25ZM52.75 130C52.75 129.31 53.3096 128.75 54 128.75H63C63.6904 128.75 64.25 129.31 64.25 130V137C64.25 137.69 63.6904 138.25 63 138.25H54C53.3096 138.25 52.75 137.69 52.75 137V130Z" fill="#BC3131"/>
<path fill-rule="evenodd" clip-rule="evenodd" d="M55.75 126.5C55.75 126.086 56.0858 125.75 56.5 125.75H66C66.3315 125.75 66.6495 125.882 66.8839 126.116C67.1183 126.351 67.25 126.668 67.25 127V134.5C67.25 134.914 66.9142 135.25 66.5 135.25C66.0858 135.25 65.75 134.914 65.75 134.5V127.25H56.5C56.0858 127.25 55.75 126.914 55.75 126.5Z" fill="#BC3131"/>
<rect x="48.05" y="120.05" width="23.9" height="23.9" stroke="black" stroke-width="0.1"/>
<path fill-rule="evenodd" clip-rule="evenodd" d="M27.25 43.75C27.25 43.3358 27.5858 43 28 43H44C44.4142 43 44.75 43.3358 44.75 43.75C44.75 44.1642 44.4142 44.5 44 44.5H28C27.5858 44.5 27.25 44.1642 27.25 43.75Z" fill="white"/>
<path fill-rule="evenodd" clip-rule="evenodd" d="M36 28.25C36.4142 28.25 36.75 28.5858 36.75 29L36.75 39C36.75 39.4142 36.4142 39.75 36 39.75C35.5858 39.75 35.25 39.4142 35.25 39L35.25 29C35.25 28.5858 35.5858 28.25 36 28.25Z" fill="white"/>
<path fill-rule="evenodd" clip-rule="evenodd" d="M31.5061 35.3106C31.8179 35.0378 32.2917 35.0694 32.5644 35.3811L36 39.3075L39.4356 35.3811C39.7083 35.0694 40.1822 35.0378 40.4939 35.3106C40.8056 35.5833 40.8372 36.0572 40.5644 36.3689L36.5644 40.9403C36.422 41.1031 36.2163 41.1964 36 41.1964C35.7837 41.1964 35.578 41.1031 35.4356 40.9403L31.4356 36.3689C31.1628 36.0572 31.1944 35.5833 31.5061 35.3106Z" fill="white"/>
<rect x="24.05" y="24.05" width="23.9" height="23.9" stroke="black" stroke-width="0.1"/>
<path fill-rule="evenodd" clip-rule="evenodd" d="M27.25 67.75C27.25 67.3358 27.5858 67 28 67H44C44.4142 67 44.75 67.3358 44.75 67.75C44.75 68.1642 44.4142 68.5 44 68.5H28C27.5858 68.5 27.25 68.1642 27.25 67.75Z" fill="#1768C7"/>
<path fill-rule="evenodd" clip-rule="evenodd" d="M36 52.25C36.4142 52.25 36.75 52.5858 36.75 53L36.75 63C36.75 63.4142 36.4142 63.75 36 63.75C35.5858 63.75 35.25 63.4142 35.25 63L35.25 53C35.25 52.5858 35.5858 52.25 36 52.25Z" fill="#1768C7"/>
<path fill-rule="evenodd" clip-rule="evenodd" d="M31.5061 59.3106C31.8179 59.0378 32.2917 59.0694 32.5644 59.3811L36 63.3075L39.4356 59.3811C39.7083 59.0694 40.1822 59.0378 40.4939 59.3106C40.8056 59.5833 40.8372 60.0572 40.5644 60.3689L36.5644 64.9403C36.422 65.1031 36.2163 65.1964 36 65.1964C35.7837 65.1964 35.578 65.1031 35.4356 64.9403L31.4356 60.3689C31.1628 60.0572 31.1944 59.5833 31.5061 59.3106Z" fill="#1768C7"/>
<rect x="24.05" y="48.05" width="23.9" height="23.9" stroke="black" stroke-width="0.1"/>
<path fill-rule="evenodd" clip-rule="evenodd" d="M27.25 91.75C27.25 91.3358 27.5858 91 28 91H44C44.4142 91 44.75 91.3358 44.75 91.75C44.75 92.1642 44.4142 92.5 44 92.5H28C27.5858 92.5 27.25 92.1642 27.25 91.75Z" fill="#555555"/>
<path fill-rule="evenodd" clip-rule="evenodd" d="M36 76.25C36.4142 76.25 36.75 76.5858 36.75 77L36.75 87C36.75 87.4142 36.4142 87.75 36 87.75C35.5858 87.75 35.25 87.4142 35.25 87L35.25 77C35.25 76.5858 35.5858 76.25 36 76.25Z" fill="#555555"/>
<path fill-rule="evenodd" clip-rule="evenodd" d="M31.5061 83.3106C31.8179 83.0378 32.2917 83.0694 32.5644 83.3811L36 87.3075L39.4356 83.3811C39.7083 83.0694 40.1822 83.0378 40.4939 83.3106C40.8056 83.5833 40.8372 84.0572 40.5644 84.3689L36.5644 88.9403C36.422 89.1031 36.2163 89.1964 36 89.1964C35.7837 89.1964 35.578 89.1031 35.4356 88.9403L31.4356 84.3689C31.1628 84.0572 31.1944 83.5833 31.5061 83.3106Z" fill="#555555"/>
<rect x="24.05" y="72.05" width="23.9" height="23.9" stroke="black" stroke-width="0.1"/>
<path fill-rule="evenodd" clip-rule="evenodd" d="M27.25 115.75C27.25 115.336 27.5858 115 28 115H44C44.4142 115 44.75 115.336 44.75 115.75C44.75 116.164 44.4142 116.5 44 116.5H28C27.5858 116.5 27.25 116.164 27.25 115.75Z" fill="#20335B"/>
<path fill-rule="evenodd" clip-rule="evenodd" d="M36 100.25C36.4142 100.25 36.75 100.586 36.75 101L36.75 111C36.75 111.414 36.4142 111.75 36 111.75C35.5858 111.75 35.25 111.414 35.25 111L35.25 101C35.25 100.586 35.5858 100.25 36 100.25Z" fill="#20335B"/>
<path fill-rule="evenodd" clip-rule="evenodd" d="M31.5061 107.311C31.8179 107.038 32.2917 107.069 32.5644 107.381L36 111.307L39.4356 107.381C39.7083 107.069 40.1822 107.038 40.4939 107.311C40.8056 107.583 40.8372 108.057 40.5644 108.369L36.5644 112.94C36.422 113.103 36.2163 113.196 36 113.196C35.7837 113.196 35.578 113.103 35.4356 112.94L31.4356 108.369C31.1628 108.057 31.1944 107.583 31.5061 107.311Z" fill="#20335B"/>
<rect x="24.05" y="96.05" width="23.9" height="23.9" stroke="black" stroke-width="0.1"/>
<path fill-rule="evenodd" clip-rule="evenodd" d="M27.25 139.75C27.25 139.336 27.5858 139 28 139H44C44.4142 139 44.75 139.336 44.75 139.75C44.75 140.164 44.4142 140.5 44 140.5H28C27.5858 140.5 27.25 140.164 27.25 139.75Z" fill="#BC3131"/>
<path fill-rule="evenodd" clip-rule="evenodd" d="M36 124.25C36.4142 124.25 36.75 124.586 36.75 125L36.75 135C36.75 135.414 36.4142 135.75 36 135.75C35.5858 135.75 35.25 135.414 35.25 135L35.25 125C35.25 124.586 35.5858 124.25 36 124.25Z" fill="#BC3131"/>
<path fill-rule="evenodd" clip-rule="evenodd" d="M31.5061 131.311C31.8179 131.038 32.2917 131.069 32.5644 131.381L36 135.307L39.4356 131.381C39.7083 131.069 40.1822 131.038 40.4939 131.311C40.8056 131.583 40.8372 132.057 40.5644 132.369L36.5644 136.94C36.422 137.103 36.2163 137.196 36 137.196C35.7837 137.196 35.578 137.103 35.4356 136.94L31.4356 132.369C31.1628 132.057 31.1944 131.583 31.5061 131.311Z" fill="#BC3131"/>
<rect x="24.05" y="120.05" width="23.9" height="23.9" stroke="black" stroke-width="0.1"/>
<path fill-rule="evenodd" clip-rule="evenodd" d="M18.0303 32.9697C18.3232 33.2626 18.3232 33.7374 18.0303 34.0303L13.0303 39.0303C12.7374 39.3232 12.2626 39.3232 11.9697 39.0303L6.96967 34.0303C6.67678 33.7374 6.67678 33.2626 6.96967 32.9697C7.26256 32.6768 7.73744 32.6768 8.03033 32.9697L12.5 37.4393L16.9697 32.9697C17.2626 32.6768 17.7374 32.6768 18.0303 32.9697Z" fill="white"/>
<rect x="0.05" y="24.05" width="23.9" height="23.9" stroke="black" stroke-width="0.1"/>
<path fill-rule="evenodd" clip-rule="evenodd" d="M18.0303 56.9697C18.3232 57.2626 18.3232 57.7374 18.0303 58.0303L13.0303 63.0303C12.7374 63.3232 12.2626 63.3232 11.9697 63.0303L6.96967 58.0303C6.67678 57.7374 6.67678 57.2626 6.96967 56.9697C7.26256 56.6768 7.73744 56.6768 8.03033 56.9697L12.5 61.4393L16.9697 56.9697C17.2626 56.6768 17.7374 56.6768 18.0303 56.9697Z" fill="#1768C7"/>
<rect x="0.05" y="48.05" width="23.9" height="23.9" stroke="black" stroke-width="0.1"/>
<path fill-rule="evenodd" clip-rule="evenodd" d="M18.0303 80.9697C18.3232 81.2626 18.3232 81.7374 18.0303 82.0303L13.0303 87.0303C12.7374 87.3232 12.2626 87.3232 11.9697 87.0303L6.96967 82.0303C6.67678 81.7374 6.67678 81.2626 6.96967 80.9697C7.26256 80.6768 7.73744 80.6768 8.03033 80.9697L12.5 85.4393L16.9697 80.9697C17.2626 80.6768 17.7374 80.6768 18.0303 80.9697Z" fill="#555555"/>
<rect x="0.05" y="72.05" width="23.9" height="23.9" stroke="black" stroke-width="0.1"/>
<path fill-rule="evenodd" clip-rule="evenodd" d="M18.0303 104.97C18.3232 105.263 18.3232 105.737 18.0303 106.03L13.0303 111.03C12.7374 111.323 12.2626 111.323 11.9697 111.03L6.96967 106.03C6.67678 105.737 6.67678 105.263 6.96967 104.97C7.26256 104.677 7.73744 104.677 8.03033 104.97L12.5 109.439L16.9697 104.97C17.2626 104.677 17.7374 104.677 18.0303 104.97Z" fill="#20335B"/>
<rect x="0.05" y="96.05" width="23.9" height="23.9" stroke="black" stroke-width="0.1"/>
<path fill-rule="evenodd" clip-rule="evenodd" d="M18.0303 128.97C18.3232 129.263 18.3232 129.737 18.0303 130.03L13.0303 135.03C12.7374 135.323 12.2626 135.323 11.9697 135.03L6.96967 130.03C6.67678 129.737 6.67678 129.263 6.96967 128.97C7.26256 128.677 7.73744 128.677 8.03033 128.97L12.5 133.439L16.9697 128.97C17.2626 128.677 17.7374 128.677 18.0303 128.97Z" fill="#BC3131"/>
<rect x="0.05" y="120.05" width="23.9" height="23.9" stroke="black" stroke-width="0.1"/>
<path d="M1.456 20H5.68C8.288 20 10.272 18.896 10.272 16.512C10.272 14.912 9.328 14.016 8.048 13.712V13.632C9.056 13.28 9.664 12.16 9.664 11.072C9.664 8.864 7.808 8.16 5.376 8.16H1.456V20ZM3.824 12.976V9.968H5.232C6.656 9.968 7.36 10.384 7.36 11.424C7.36 12.368 6.704 12.976 5.2 12.976H3.824ZM3.824 18.176V14.736H5.472C7.104 14.736 7.968 15.216 7.968 16.368C7.968 17.6 7.088 18.176 5.472 18.176H3.824ZM14.2106 20.224C15.4426 20.224 16.3066 19.632 17.0746 18.72H17.1386L17.3146 20H19.2346V11.04H16.8826V17.088C16.2746 17.888 15.7946 18.208 15.0586 18.208C14.1946 18.208 13.8106 17.728 13.8106 16.336V11.04H11.4586V16.64C11.4586 18.88 12.2906 20.224 14.2106 20.224ZM24.4221 20.224C25.2061 20.224 25.8301 20.048 26.3101 19.888L25.9261 18.176C25.6861 18.272 25.3341 18.368 25.0461 18.368C24.2461 18.368 23.8301 17.888 23.8301 16.864V12.896H26.0381V11.04H23.8301V8.64H21.8621L21.5901 11.04L20.2141 11.152V12.896H21.4781V16.864C21.4781 18.88 22.2941 20.224 24.4221 20.224ZM30.1659 20.224C30.9499 20.224 31.5739 20.048 32.0539 19.888L31.6699 18.176C31.4299 18.272 31.0779 18.368 30.7899 18.368C29.9899 18.368 29.5739 17.888 29.5739 16.864V12.896H31.7819V11.04H29.5739V8.64H27.6059L27.3339 11.04L25.9579 11.152V12.896H27.2219V16.864C27.2219 18.88 28.0379 20.224 30.1659 20.224ZM36.4518 20.224C38.6918 20.224 40.7558 18.496 40.7558 15.536C40.7558 12.544 38.6918 10.816 36.4518 10.816C34.2118 10.816 32.1478 12.544 32.1478 15.536C32.1478 18.496 34.2118 20.224 36.4518 20.224ZM36.4518 18.304C35.2358 18.304 34.5478 17.216 34.5478 15.536C34.5478 13.84 35.2358 12.736 36.4518 12.736C37.6678 12.736 38.3558 13.84 38.3558 15.536C38.3558 17.216 37.6678 18.304 36.4518 18.304ZM42.1234 20H44.4594V13.84C45.1314 13.184 45.5954 12.832 46.3314 12.832C47.2114 12.832 47.5954 13.328 47.5954 14.704V20H49.9474V14.416C49.9474 12.16 49.1154 10.816 47.1794 10.816C45.9634 10.816 45.0514 11.456 44.2674 12.224H44.2034L44.0434 11.04H42.1234V20Z" fill="black"/>
<rect x="0.05" y="0.05" width="51.9" height="23.9" stroke="black" stroke-width="0.1"/>
<path d="M1.456 266H3.824V261.2H8.032V259.216H3.824V256.128H8.752V254.16H1.456V266ZM13.4705 266.224C15.7105 266.224 17.7745 264.496 17.7745 261.536C17.7745 258.544 15.7105 256.816 13.4705 256.816C11.2305 256.816 9.1665 258.544 9.1665 261.536C9.1665 264.496 11.2305 266.224 13.4705 266.224ZM13.4705 264.304C12.2545 264.304 11.5665 263.216 11.5665 261.536C11.5665 259.84 12.2545 258.736 13.4705 258.736C14.6865 258.736 15.3745 259.84 15.3745 261.536C15.3745 263.216 14.6865 264.304 13.4705 264.304ZM19.1421 266H21.4781V260.656C21.9901 259.36 22.8381 258.896 23.5421 258.896C23.9101 258.896 24.1661 258.944 24.4701 259.04L24.8861 257.008C24.6141 256.896 24.3261 256.816 23.8301 256.816C22.9021 256.816 21.9421 257.456 21.2861 258.624H21.2221L21.0621 257.04H19.1421V266ZM25.5109 266H27.8469V259.84C28.4869 259.168 29.0629 258.832 29.5749 258.832C30.4229 258.832 30.8229 259.328 30.8229 260.704V266H33.1749V259.84C33.8149 259.168 34.3909 258.832 34.9029 258.832C35.7509 258.832 36.1509 259.328 36.1509 260.704V266H38.5029V260.416C38.5029 258.16 37.6229 256.816 35.7189 256.816C34.5509 256.816 33.6869 257.52 32.8709 258.384C32.4389 257.392 31.6869 256.816 30.4069 256.816C29.2389 256.816 28.4069 257.456 27.6549 258.24H27.5909L27.4309 257.04H25.5109V266Z" fill="black"/>
<rect x="0.05" y="246.05" width="51.9" height="23.9" stroke="black" stroke-width="0.1"/>
<path d="M6.288 388.224C7.824 388.224 9.088 387.616 10.064 386.48L8.816 385.008C8.176 385.696 7.376 386.176 6.368 386.176C4.496 386.176 3.28 384.624 3.28 382.048C3.28 379.504 4.624 377.968 6.416 377.968C7.312 377.968 8 378.384 8.592 378.96L9.84 377.456C9.072 376.656 7.872 375.936 6.368 375.936C3.376 375.936 0.864 378.224 0.864 382.128C0.864 386.08 3.296 388.224 6.288 388.224ZM14.9236 388.224C17.1636 388.224 19.2276 386.496 19.2276 383.536C19.2276 380.544 17.1636 378.816 14.9236 378.816C12.6836 378.816 10.6196 380.544 10.6196 383.536C10.6196 386.496 12.6836 388.224 14.9236 388.224ZM14.9236 386.304C13.7076 386.304 13.0196 385.216 13.0196 383.536C13.0196 381.84 13.7076 380.736 14.9236 380.736C16.1396 380.736 16.8276 381.84 16.8276 383.536C16.8276 385.216 16.1396 386.304 14.9236 386.304ZM20.5952 388H22.9312V381.84C23.6032 381.184 24.0672 380.832 24.8032 380.832C25.6832 380.832 26.0672 381.328 26.0672 382.704V388H28.4192V382.416C28.4192 380.16 27.5872 378.816 25.6512 378.816C24.4352 378.816 23.5232 379.456 22.7392 380.224H22.6752L22.5152 379.04H20.5952V388ZM33.5253 388.224C34.3093 388.224 34.9333 388.048 35.4133 387.888L35.0293 386.176C34.7893 386.272 34.4373 386.368 34.1493 386.368C33.3493 386.368 32.9333 385.888 32.9333 384.864V380.896H35.1413V379.04H32.9333V376.64H30.9653L30.6933 379.04L29.3173 379.152V380.896H30.5813V384.864C30.5813 386.88 31.3973 388.224 33.5253 388.224ZM39.9551 388.224C41.0751 388.224 42.2111 387.84 43.0911 387.232L42.2911 385.792C41.6511 386.192 41.0111 386.416 40.2751 386.416C38.9471 386.416 37.9871 385.648 37.7951 384.176H43.3151C43.3791 383.968 43.4271 383.536 43.4271 383.104C43.4271 380.624 42.1471 378.816 39.6831 378.816C37.5391 378.816 35.5071 380.624 35.5071 383.536C35.5071 386.48 37.4591 388.224 39.9551 388.224ZM37.7631 382.624C37.9391 381.312 38.7711 380.64 39.7151 380.64C40.8671 380.64 41.4111 381.408 41.4111 382.624H37.7631ZM44.764 388H47.1V381.84C47.772 381.184 48.236 380.832 48.972 380.832C49.852 380.832 50.236 381.328 50.236 382.704V388H52.588V382.416C52.588 380.16 51.756 378.816 49.82 378.816C48.604 378.816 47.692 379.456 46.908 380.224H46.844L46.684 379.04H44.764V388ZM57.694 388.224C58.478 388.224 59.102 388.048 59.582 387.888L59.198 386.176C58.958 386.272 58.606 386.368 58.318 386.368C57.518 386.368 57.102 385.888 57.102 384.864V380.896H59.31V379.04H57.102V376.64H55.134L54.862 379.04L53.486 379.152V380.896H54.75V384.864C54.75 386.88 55.566 388.224 57.694 388.224ZM65.0138 384.72C65.0138 384.08 65.4138 383.552 65.9898 383.056C66.7418 384.048 67.6538 384.992 68.6618 385.824C68.1018 386.192 67.5098 386.416 66.9338 386.416C65.7978 386.416 65.0138 385.728 65.0138 384.72ZM66.1978 378.944C66.1978 378.064 66.6938 377.504 67.3818 377.504C68.0058 377.504 68.2778 377.936 68.2778 378.528C68.2778 379.392 67.5578 379.968 66.6298 380.528C66.3578 379.968 66.1978 379.44 66.1978 378.944ZM73.7978 386.304C73.1898 386.192 72.4698 385.888 71.7018 385.456C72.6138 384.224 73.2698 382.848 73.7018 381.392H71.5738C71.2538 382.56 70.7418 383.568 70.1178 384.4C69.1738 383.68 68.2618 382.816 67.5578 381.936C68.8218 381.056 70.1018 380.08 70.1018 378.512C70.1018 376.96 69.0298 375.936 67.3498 375.936C65.4458 375.936 64.2458 377.296 64.2458 378.944C64.2458 379.728 64.5178 380.608 64.9978 381.504C63.8138 382.256 62.7738 383.216 62.7738 384.864C62.7738 386.704 64.1658 388.224 66.6458 388.224C68.1018 388.224 69.3018 387.744 70.2778 386.976C71.2698 387.6 72.2938 388.016 73.2218 388.224L73.7978 386.304ZM78.0029 388H82.2269C84.8349 388 86.8189 386.896 86.8189 384.512C86.8189 382.912 85.8749 382.016 84.5949 381.712V381.632C85.6029 381.28 86.2109 380.16 86.2109 379.072C86.2109 376.864 84.3549 376.16 81.9229 376.16H78.0029V388ZM80.3709 380.976V377.968H81.7789C83.2029 377.968 83.9069 378.384 83.9069 379.424C83.9069 380.368 83.2509 380.976 81.7469 380.976H80.3709ZM80.3709 386.176V382.736H82.0189C83.6509 382.736 84.5149 383.216 84.5149 384.368C84.5149 385.6 83.6349 386.176 82.0189 386.176H80.3709ZM91.8455 388.224C94.0855 388.224 96.1495 386.496 96.1495 383.536C96.1495 380.544 94.0855 378.816 91.8455 378.816C89.6055 378.816 87.5415 380.544 87.5415 383.536C87.5415 386.496 89.6055 388.224 91.8455 388.224ZM91.8455 386.304C90.6295 386.304 89.9415 385.216 89.9415 383.536C89.9415 381.84 90.6295 380.736 91.8455 380.736C93.0615 380.736 93.7495 381.84 93.7495 383.536C93.7495 385.216 93.0615 386.304 91.8455 386.304ZM99.5064 388.224C100.53 388.224 101.426 387.712 102.21 387.04H102.258L102.434 388H104.354V382.768C104.354 380.176 103.186 378.816 100.914 378.816C99.5064 378.816 98.2264 379.344 97.1704 380L98.0184 381.552C98.8504 381.072 99.6504 380.704 100.482 380.704C101.586 380.704 101.97 381.376 102.002 382.256C98.4024 382.64 96.8504 383.648 96.8504 385.568C96.8504 387.088 97.9064 388.224 99.5064 388.224ZM100.274 386.384C99.5864 386.384 99.0904 386.08 99.0904 385.376C99.0904 384.576 99.8264 383.984 102.002 383.696V385.504C101.442 386.064 100.946 386.384 100.274 386.384ZM106.151 388H108.487V382.656C108.999 381.36 109.847 380.896 110.551 380.896C110.919 380.896 111.175 380.944 111.479 381.04L111.895 379.008C111.623 378.896 111.335 378.816 110.839 378.816C109.911 378.816 108.951 379.456 108.295 380.624H108.231L108.071 379.04H106.151V388ZM115.485 388.224C116.413 388.224 117.309 387.712 117.965 387.072H118.013L118.205 388H120.109V375.232H117.757V378.384L117.853 379.792C117.213 379.2 116.589 378.816 115.581 378.816C113.645 378.816 111.821 380.608 111.821 383.536C111.821 386.464 113.261 388.224 115.485 388.224ZM116.093 386.288C114.909 386.288 114.237 385.36 114.237 383.504C114.237 381.712 115.085 380.752 116.093 380.752C116.653 380.752 117.213 380.928 117.757 381.424V385.36C117.245 386.032 116.717 386.288 116.093 386.288Z" fill="black"/>
<rect x="0.05" y="368.05" width="51.9" height="23.9" stroke="black" stroke-width="0.1"/>
<path d="M6.288 510.224C7.824 510.224 9.088 509.616 10.064 508.48L8.816 507.008C8.176 507.696 7.376 508.176 6.368 508.176C4.496 508.176 3.28 506.624 3.28 504.048C3.28 501.504 4.624 499.968 6.416 499.968C7.312 499.968 8 500.384 8.592 500.96L9.84 499.456C9.072 498.656 7.872 497.936 6.368 497.936C3.376 497.936 0.864 500.224 0.864 504.128C0.864 508.08 3.296 510.224 6.288 510.224ZM14.9236 510.224C17.1636 510.224 19.2276 508.496 19.2276 505.536C19.2276 502.544 17.1636 500.816 14.9236 500.816C12.6836 500.816 10.6196 502.544 10.6196 505.536C10.6196 508.496 12.6836 510.224 14.9236 510.224ZM14.9236 508.304C13.7076 508.304 13.0196 507.216 13.0196 505.536C13.0196 503.84 13.7076 502.736 14.9236 502.736C16.1396 502.736 16.8276 503.84 16.8276 505.536C16.8276 507.216 16.1396 508.304 14.9236 508.304ZM20.5952 510H22.9312V503.84C23.6032 503.184 24.0672 502.832 24.8032 502.832C25.6832 502.832 26.0672 503.328 26.0672 504.704V510H28.4192V504.416C28.4192 502.16 27.5872 500.816 25.6512 500.816C24.4352 500.816 23.5232 501.456 22.7392 502.224H22.6752L22.5152 501.04H20.5952V510ZM33.5253 510.224C34.3093 510.224 34.9333 510.048 35.4133 509.888L35.0293 508.176C34.7893 508.272 34.4373 508.368 34.1493 508.368C33.3493 508.368 32.9333 507.888 32.9333 506.864V502.896H35.1413V501.04H32.9333V498.64H30.9653L30.6933 501.04L29.3173 501.152V502.896H30.5813V506.864C30.5813 508.88 31.3973 510.224 33.5253 510.224ZM39.9551 510.224C41.0751 510.224 42.2111 509.84 43.0911 509.232L42.2911 507.792C41.6511 508.192 41.0111 508.416 40.2751 508.416C38.9471 508.416 37.9871 507.648 37.7951 506.176H43.3151C43.3791 505.968 43.4271 505.536 43.4271 505.104C43.4271 502.624 42.1471 500.816 39.6831 500.816C37.5391 500.816 35.5071 502.624 35.5071 505.536C35.5071 508.48 37.4591 510.224 39.9551 510.224ZM37.7631 504.624C37.9391 503.312 38.7711 502.64 39.7151 502.64C40.8671 502.64 41.4111 503.408 41.4111 504.624H37.7631ZM44.764 510H47.1V503.84C47.772 503.184 48.236 502.832 48.972 502.832C49.852 502.832 50.236 503.328 50.236 504.704V510H52.588V504.416C52.588 502.16 51.756 500.816 49.82 500.816C48.604 500.816 47.692 501.456 46.908 502.224H46.844L46.684 501.04H44.764V510ZM57.694 510.224C58.478 510.224 59.102 510.048 59.582 509.888L59.198 508.176C58.958 508.272 58.606 508.368 58.318 508.368C57.518 508.368 57.102 507.888 57.102 506.864V502.896H59.31V501.04H57.102V498.64H55.134L54.862 501.04L53.486 501.152V502.896H54.75V506.864C54.75 508.88 55.566 510.224 57.694 510.224ZM66.1018 510H68.4698V500.128H71.8298V498.16H62.7738V500.128H66.1018V510ZM75.3736 510.224C77.6136 510.224 79.6776 508.496 79.6776 505.536C79.6776 502.544 77.6136 500.816 75.3736 500.816C73.1336 500.816 71.0696 502.544 71.0696 505.536C71.0696 508.496 73.1336 510.224 75.3736 510.224ZM75.3736 508.304C74.1576 508.304 73.4696 507.216 73.4696 505.536C73.4696 503.84 74.1576 502.736 75.3736 502.736C76.5896 502.736 77.2776 503.84 77.2776 505.536C77.2776 507.216 76.5896 508.304 75.3736 508.304ZM81.0453 513.44H83.3813V510.72L83.3173 509.248C84.0052 509.872 84.7573 510.224 85.5413 510.224C87.5093 510.224 89.3493 508.448 89.3493 505.376C89.3493 502.624 88.0373 500.816 85.8293 500.816C84.8693 500.816 83.9413 501.328 83.1893 501.968H83.1253L82.9653 501.04H81.0453V513.44ZM85.0133 508.288C84.5333 508.288 83.9573 508.112 83.3813 507.616V503.68C84.0052 503.056 84.5493 502.752 85.1573 502.752C86.3893 502.752 86.9333 503.696 86.9333 505.408C86.9333 507.36 86.1013 508.288 85.0133 508.288ZM93.9591 510H98.1831C100.791 510 102.775 508.896 102.775 506.512C102.775 504.912 101.831 504.016 100.551 503.712V503.632C101.559 503.28 102.167 502.16 102.167 501.072C102.167 498.864 100.311 498.16 97.8791 498.16H93.9591V510ZM96.3271 502.976V499.968H97.7351C99.1591 499.968 99.8631 500.384 99.8631 501.424C99.8631 502.368 99.2071 502.976 97.7031 502.976H96.3271ZM96.3271 508.176V504.736H97.9751C99.6071 504.736 100.471 505.216 100.471 506.368C100.471 507.6 99.5911 508.176 97.9751 508.176H96.3271ZM107.802 510.224C110.042 510.224 112.106 508.496 112.106 505.536C112.106 502.544 110.042 500.816 107.802 500.816C105.562 500.816 103.498 502.544 103.498 505.536C103.498 508.496 105.562 510.224 107.802 510.224ZM107.802 508.304C106.586 508.304 105.898 507.216 105.898 505.536C105.898 503.84 106.586 502.736 107.802 502.736C109.018 502.736 109.706 503.84 109.706 505.536C109.706 507.216 109.018 508.304 107.802 508.304ZM112.012 510H114.444L115.276 508.368C115.532 507.824 115.772 507.296 116.028 506.784H116.108C116.396 507.296 116.684 507.84 116.972 508.368L117.964 510H120.492L117.692 505.6L120.316 501.04H117.884L117.132 502.64C116.924 503.136 116.684 503.648 116.476 504.144H116.412C116.14 503.648 115.868 503.136 115.612 502.64L114.716 501.04H112.188L114.812 505.328L112.012 510Z" fill="black"/>
<rect x="0.05" y="490.05" width="51.9" height="23.9" stroke="black" stroke-width="0.1"/>
<path d="M1 542.905V523L16 528.102V548L1 542.905Z" fill="white" stroke="#555555" stroke-width="2" stroke-miterlimit="10" stroke-linecap="round" stroke-linejoin="round"/>
<path d="M32 542.905V523L16 528.102V548L32 542.905Z" fill="white" stroke="#555555" stroke-width="2" stroke-miterlimit="10" stroke-linecap="round" stroke-linejoin="round"/>
<path d="M1 522.997L16.5 518L32 522.997L16.5 528L1 522.997Z" fill="white" stroke="#555555" stroke-width="2" stroke-miterlimit="10" stroke-linecap="round" stroke-linejoin="round"/>
<path d="M31.5 553C36.7467 553 41 548.747 41 543.5C41 538.253 36.7467 534 31.5 534C26.2533 534 22 538.253 22 543.5C22 548.747 26.2533 553 31.5 553Z" fill="#4493F1"/>
<path d="M29.8943 549C29.8649 549 29.8429 549 29.8135 549C29.5271 548.978 29.27 548.816 29.1158 548.573L26.1342 543.705C25.8699 543.278 26.0094 542.719 26.4353 542.455C26.8613 542.19 27.4194 542.33 27.6838 542.756L30.0265 546.573L36.4156 539.307C36.746 538.932 37.3189 538.895 37.6934 539.226C38.0679 539.557 38.1046 540.131 37.7742 540.506L30.5772 548.698C30.401 548.89 30.1586 549 29.8943 549Z" fill="white"/>
<rect x="0.05" y="514.05" width="41.9" height="41.9" stroke="black" stroke-width="0.1"/>
<circle cx="84" cy="282" r="12" fill="black" fill-opacity="0.5"/>
<path d="M86.6464 281.646L82.8536 277.854C82.5386 277.539 82 277.762 82 278.207V285.793C82 286.238 82.5386 286.461 82.8536 286.146L86.6464 282.354C86.8417 282.158 86.8417 281.842 86.6464 281.646Z" fill="white"/>
<rect x="72.05" y="270.05" width="23.9" height="23.9" stroke="black" stroke-width="0.1"/>
<path d="M110.701 287.4L109.997 286.552C109.272 287.021 108.44 287.256 107.501 287.256C106.104 287.256 104.952 286.76 104.045 285.768C103.138 284.776 102.685 283.576 102.685 282.168C102.685 280.749 103.138 279.539 104.045 278.536C104.962 277.533 106.114 277.032 107.501 277.032C108.888 277.032 110.034 277.533 110.941 278.536C111.848 279.539 112.301 280.739 112.301 282.136C112.301 283.576 111.896 284.765 111.085 285.704L112.349 287.24L110.701 287.4ZM109.837 284.344C110.349 283.736 110.605 282.979 110.605 282.072C110.605 281.123 110.312 280.307 109.725 279.624C109.149 278.931 108.408 278.584 107.501 278.584C106.605 278.584 105.864 278.957 105.277 279.704C104.69 280.44 104.397 281.283 104.397 282.232C104.397 283.171 104.685 283.981 105.261 284.664C105.848 285.347 106.594 285.688 107.501 285.688C108.002 285.688 108.45 285.565 108.845 285.32L107.053 283.272L108.749 283.112L109.837 284.344Z" fill="#4493F1"/>
<rect x="96.05" y="270.05" width="23.9" height="23.9" stroke="black" stroke-width="0.1"/>
<path d="M129.637 284.824L128.773 287H127.029L130.805 277.032H132.277L135.957 287H134.197L133.381 284.824H129.637ZM131.445 279.416L130.037 283.528H132.933L131.445 279.416Z" fill="#4493F1"/>
<rect x="120.05" y="270.05" width="23.9" height="23.9" stroke="black" stroke-width="0.1"/>
<path d="M128.714 427.546C129.301 428.747 130.275 429.716 131.478 430.298C131.566 430.339 131.664 430.358 131.761 430.35C131.858 430.343 131.951 430.31 132.032 430.256L133.804 429.074C133.883 429.022 133.973 428.99 134.067 428.982C134.16 428.973 134.255 428.988 134.341 429.025L137.656 430.446C137.769 430.493 137.863 430.577 137.924 430.683C137.985 430.788 138.011 430.911 137.996 431.033C137.891 431.853 137.491 432.606 136.871 433.152C136.25 433.699 135.452 434 134.626 434C132.073 434 129.624 432.986 127.819 431.181C126.014 429.376 125 426.927 125 424.374C125 423.548 125.301 422.75 125.848 422.129C126.394 421.509 127.147 421.109 127.967 421.004C128.089 420.989 128.212 421.015 128.317 421.076C128.423 421.137 128.507 421.231 128.554 421.344L129.976 424.662C130.013 424.747 130.028 424.841 130.02 424.934C130.012 425.027 129.981 425.117 129.93 425.195L128.752 426.994C128.699 427.075 128.667 427.168 128.66 427.265C128.654 427.362 128.672 427.459 128.714 427.546Z" stroke="#777777" stroke-linecap="round" stroke-linejoin="round"/>
<rect x="120.05" y="416.05" width="23.9" height="23.9" stroke="black" stroke-width="0.1"/>
<path fill-rule="evenodd" clip-rule="evenodd" d="M155 287C158.314 287 161 284.314 161 281C161 277.686 158.314 275 155 275C151.686 275 149 277.686 149 281C149 284.314 151.686 287 155 287ZM155 289C159.418 289 163 285.418 163 281C163 276.582 159.418 273 155 273C150.582 273 147 276.582 147 281C147 285.418 150.582 289 155 289Z" fill="white"/>
<path fill-rule="evenodd" clip-rule="evenodd" d="M159.293 285.293C159.683 284.902 160.317 284.902 160.707 285.293L165.207 289.793C165.598 290.183 165.598 290.817 165.207 291.207C164.817 291.598 164.183 291.598 163.793 291.207L159.293 286.707C158.902 286.317 158.902 285.683 159.293 285.293Z" fill="white"/>
<rect x="144.05" y="270.05" width="23.9" height="23.9" stroke="black" stroke-width="0.1"/>
</svg>
