<svg width="235" height="336" viewBox="0 0 235 336" fill="none" xmlns="http://www.w3.org/2000/svg">
<rect x="5.5" y="9.5" width="224" height="315.999" fill="white" stroke="#E0E0E0"/>
<g filter="url(#filter0_f_1294_1149)">
<rect x="10" y="10" width="13" height="315.999" fill="#E8E8E8"/>
</g>
<g filter="url(#filter1_d_1294_1149)">
<rect x="6" y="10" width="17" height="315" fill="white"/>
</g>
<path d="M157.51 289.494L133.34 325.999L109.17 289.494L133.34 253.01L157.51 289.494Z" fill="#0082CB"/>
<path d="M157.51 289.494L181.659 325.999L205.83 289.494L181.659 253.01L157.51 289.494Z" fill="#0082CB"/>
<path d="M133.341 252.989L157.511 289.494L181.66 252.989L157.511 216.504L133.341 252.989Z" fill="#0082CB"/>
<path d="M109.17 289.494L85 325.999H133.34L109.17 289.494Z" fill="#0082CB"/>
<path d="M205.829 289.494L181.659 325.999H230L205.829 289.494Z" fill="#0082CB"/>
<path d="M157.51 289.494L133.34 325.999L109.17 289.494L133.34 253.01L157.51 289.494Z" fill="#00A0D8"/>
<path d="M157.51 289.494L181.659 325.999L205.83 289.494L181.659 253.01L157.51 289.494Z" fill="#00A0D8"/>
<path d="M133.341 252.989L157.511 289.494L181.66 252.989L157.511 216.504L133.341 252.989Z" fill="#62B9E3"/>
<path d="M109.17 289.494L85 325.999H133.34L109.17 289.494Z" fill="#0082CB"/>
<path d="M205.829 289.494L181.659 325.999H230L205.829 289.494Z" fill="#0082CB"/>
<path d="M230 216.483L205.829 179.999L181.659 216.483H230Z" fill="#62B9E3"/>
<path d="M181.659 216.504L205.829 253.01L230 216.504H181.659Z" fill="#00A0D8"/>
<path d="M62.9648 32.1555C62.9648 32.3125 62.954 32.4857 62.9296 32.6779C62.908 32.8701 62.8728 33.0731 62.8268 33.2843L63.425 33.3573C63.4467 33.268 63.4656 33.1679 63.4846 33.0623C63.5035 32.954 63.5198 32.843 63.5306 32.7293C63.5441 32.6157 63.5522 32.4993 63.5577 32.3883C63.5631 32.2746 63.5658 32.169 63.5658 32.0716V31.3867H60.7695V31.9119H62.9594V32.1555H62.9648Z" fill="#101820"/>
<path d="M64.4439 35.0047C64.2896 34.9154 64.1028 34.8477 63.8863 34.7936C63.667 34.7421 63.4234 34.7178 63.1527 34.7178C62.882 34.7178 62.6357 34.7421 62.4164 34.7936C62.1971 34.845 62.0077 34.9154 61.8561 35.0047C61.7018 35.094 61.5827 35.1996 61.5015 35.3241C61.4203 35.4486 61.377 35.5867 61.377 35.7356V35.9332C61.377 36.0821 61.4176 36.2174 61.5015 36.3446C61.5827 36.4691 61.7018 36.5774 61.8561 36.6667C62.0104 36.7561 62.1971 36.8237 62.4164 36.8779C62.6357 36.9293 62.882 36.9537 63.1527 36.9537C63.4234 36.9537 63.6697 36.9293 63.8863 36.8779C64.1055 36.8265 64.2896 36.7561 64.4439 36.6667C64.5982 36.5774 64.7173 36.4719 64.8012 36.3446C64.8851 36.2201 64.9284 36.0821 64.9284 35.9332V35.7356C64.9284 35.5867 64.8851 35.4513 64.8012 35.3241C64.7173 35.1996 64.5982 35.094 64.4439 35.0047ZM64.3275 35.8953C64.3275 35.9575 64.3031 36.0225 64.2517 36.0902C64.2003 36.1578 64.1245 36.2201 64.0243 36.2742C63.9242 36.3284 63.7996 36.3744 63.6535 36.4096C63.5073 36.4448 63.3395 36.461 63.15 36.461C62.9605 36.461 62.7927 36.4448 62.6465 36.4096C62.5003 36.3744 62.3758 36.3284 62.2756 36.2742C62.1755 36.2174 62.0997 36.1578 62.0483 36.0902C61.9968 36.0225 61.9725 35.9575 61.9725 35.8953V35.7708C61.9725 35.7085 61.9968 35.6435 62.0483 35.5759C62.0997 35.5082 62.1755 35.4459 62.2756 35.3918C62.3758 35.3349 62.5003 35.2916 62.6465 35.2564C62.7927 35.2213 62.9605 35.205 63.15 35.205C63.3395 35.205 63.5073 35.224 63.6535 35.2564C63.7996 35.2916 63.9214 35.3377 64.0243 35.3918C64.1245 35.4459 64.2003 35.5082 64.2517 35.5759C64.3031 35.6435 64.3275 35.7085 64.3275 35.7708V35.8953Z" fill="#101820"/>
<path d="M64.9201 31.124H64.3165V34.5618H64.9201V33.1434H65.7214V32.6128H64.9201V31.124Z" fill="#101820"/>
<path d="M64.0125 33.8098H62.1528L62.1501 32.6377H61.5438V33.8098H60.3906V34.3349H64.0125V33.8098Z" fill="#101820"/>
<path d="M74.6125 32.1555C74.6125 32.3125 74.6017 32.4857 74.5773 32.6779C74.5557 32.8701 74.5205 33.0731 74.4745 33.2843L75.0727 33.3573C75.0943 33.268 75.1133 33.1679 75.1322 33.0623C75.1512 32.954 75.1674 32.843 75.1783 32.7293C75.1918 32.6157 75.1999 32.4993 75.2053 32.3883C75.2107 32.2746 75.2135 32.169 75.2135 32.0716V31.3867H72.4199V31.9119H74.6098V32.1555H74.6125Z" fill="#101820"/>
<path d="M76.0904 35.0047C75.9361 34.9154 75.7493 34.8477 75.5327 34.7936C75.3135 34.7421 75.0699 34.7178 74.7992 34.7178C74.5285 34.7178 74.2821 34.7421 74.0629 34.7936C73.8436 34.845 73.6541 34.9154 73.5026 35.0047C73.3483 35.094 73.2292 35.1996 73.148 35.3241C73.0667 35.4486 73.0234 35.5867 73.0234 35.7356V35.9332C73.0234 36.0821 73.064 36.2174 73.148 36.3446C73.2292 36.4691 73.3483 36.5774 73.5026 36.6667C73.6569 36.7561 73.8436 36.8237 74.0629 36.8779C74.2821 36.9293 74.5285 36.9537 74.7992 36.9537C75.0699 36.9537 75.3162 36.9293 75.5327 36.8779C75.752 36.8265 75.9361 36.7561 76.0904 36.6667C76.2447 36.5774 76.3638 36.4719 76.4477 36.3446C76.5316 36.2201 76.5749 36.0821 76.5749 35.9332V35.7356C76.5749 35.5867 76.5316 35.4513 76.4477 35.3241C76.3638 35.1996 76.2447 35.094 76.0904 35.0047ZM75.9767 35.8953C75.9767 35.9575 75.9523 36.0225 75.9009 36.0902C75.8495 36.1578 75.7737 36.2201 75.6735 36.2742C75.5733 36.3284 75.4488 36.3744 75.3027 36.4096C75.1565 36.4448 74.9887 36.461 74.7992 36.461C74.6097 36.461 74.4419 36.4448 74.2957 36.4096C74.1495 36.3744 74.025 36.3284 73.9248 36.2742C73.8247 36.2174 73.7489 36.1578 73.6975 36.0902C73.646 36.0225 73.6217 35.9575 73.6217 35.8953V35.7708C73.6217 35.7085 73.646 35.6435 73.6975 35.5759C73.7489 35.5082 73.8247 35.4459 73.9248 35.3918C74.025 35.3349 74.1495 35.2916 74.2957 35.2564C74.4419 35.2213 74.6097 35.205 74.7992 35.205C74.9887 35.205 75.1565 35.224 75.3027 35.2564C75.4488 35.2916 75.5706 35.3377 75.6735 35.3918C75.7737 35.4459 75.8495 35.5082 75.9009 35.5759C75.9523 35.6435 75.9767 35.7085 75.9767 35.7708V35.8953Z" fill="#101820"/>
<path d="M76.5685 31.124H75.9648V34.5618H76.5685V33.1434H77.3697V32.6128H76.5685V31.124Z" fill="#101820"/>
<path d="M75.6609 33.8098H73.8013L73.7986 32.6377H73.1922V33.8098H72.0391V34.3349H75.6609V33.8098Z" fill="#101820"/>
<path d="M53.5868 31.124H52.9805V35.2521H53.5868V33.3464H54.3935V32.8158H53.5868V31.124Z" fill="#101820"/>
<path d="M50.7211 35.1797H50.1094V36.7524H53.7366V36.2218H50.7211V35.1797Z" fill="#101820"/>
<path d="M50.7951 34.7739C51.0171 34.7739 51.2093 34.7441 51.3744 34.6846C51.5395 34.625 51.6776 34.5465 51.7886 34.4464C51.8996 34.3489 51.9835 34.2352 52.0376 34.1107C52.0945 33.9862 52.1215 33.8562 52.1215 33.7236V33.5395C52.1215 33.4069 52.0945 33.2797 52.0376 33.1525C51.9835 33.0279 51.8996 32.9142 51.7886 32.8168C51.6776 32.7166 51.5395 32.6381 51.3744 32.5786C51.2093 32.519 51.0171 32.4893 50.7951 32.4893C50.5732 32.4893 50.381 32.519 50.2159 32.5786C50.0507 32.6381 49.9127 32.7166 49.8017 32.8141C49.6907 32.9115 49.6068 33.0225 49.5527 33.147C49.4985 33.2716 49.4688 33.4042 49.4688 33.5395V33.7236C49.4688 33.8562 49.4958 33.9835 49.5527 34.1107C49.6095 34.2352 49.6907 34.3489 49.8017 34.4464C49.9127 34.5465 50.0507 34.625 50.2159 34.6846C50.381 34.7441 50.5732 34.7739 50.7951 34.7739ZM50.048 33.6938V33.5693C50.048 33.4962 50.0643 33.4231 50.094 33.3501C50.1238 33.277 50.1698 33.2147 50.2321 33.1579C50.2944 33.1037 50.3702 33.0577 50.4622 33.0252C50.5542 32.9927 50.6652 32.9765 50.7924 32.9765C50.9197 32.9765 51.0306 32.9927 51.1227 33.0252C51.2147 33.0577 51.2932 33.1037 51.3528 33.1579C51.415 33.2147 51.461 33.277 51.4908 33.3501C51.5206 33.4231 51.5368 33.4962 51.5368 33.5693V33.6938C51.5368 33.7669 51.5206 33.84 51.4908 33.9131C51.461 33.9862 51.415 34.0484 51.3528 34.1053C51.2905 34.1594 51.212 34.2054 51.1173 34.2379C51.0225 34.2704 50.9142 34.2866 50.7897 34.2866C50.6652 34.2866 50.5569 34.2704 50.4622 34.2379C50.3674 34.2054 50.2889 34.1594 50.2267 34.1053C50.1644 34.0484 50.1184 33.9862 50.0886 33.9131C50.0643 33.84 50.048 33.7669 50.048 33.6938Z" fill="#101820"/>
<path d="M52.4247 31.7552H51.0983V31.0703H50.4947V31.7552H49.1602V32.2722H52.4247V31.7552Z" fill="#101820"/>
<path d="M59.0569 32.7141C59.0786 32.4949 59.0867 32.2972 59.0867 32.124V31.3525H55.3403V31.8696H58.4695V32.0969C58.4695 32.281 58.4587 32.4813 58.4398 32.6979C58.4181 32.9144 58.3829 33.1364 58.3288 33.3665H54.6582V33.8835H56.9401V34.8715H55.3295V35.3912H58.5372V36.8665H59.149V34.8742H57.5573V33.8862H59.8771V33.3719H58.9649C59.0055 33.1553 59.0353 32.9361 59.0569 32.7141Z" fill="#101820"/>
<path d="M68.6241 33.2119C68.5131 33.109 68.3804 33.0278 68.2261 32.9682C68.0719 32.9087 67.9013 32.8789 67.7118 32.8789C67.5224 32.8789 67.3518 32.9087 67.1975 32.9682C67.0432 33.0278 66.9106 33.109 66.7996 33.2119C66.6886 33.3147 66.602 33.4311 66.5424 33.5638C66.4829 33.6964 66.4531 33.8344 66.4531 33.9833V34.2784C66.4531 34.4273 66.4829 34.5653 66.5424 34.6979C66.602 34.8306 66.6886 34.947 66.7996 35.0498C66.9106 35.1527 67.0432 35.2339 67.1975 35.2935C67.3518 35.353 67.5224 35.3828 67.7118 35.3828C67.9013 35.3828 68.0719 35.353 68.2261 35.2935C68.3804 35.2339 68.5131 35.1527 68.6241 35.0498C68.735 34.947 68.8217 34.8306 68.8812 34.6979C68.9408 34.5653 68.9705 34.4273 68.9705 34.2784V33.9833C68.9705 33.8344 68.9408 33.6964 68.8812 33.5638C68.819 33.4311 68.735 33.3147 68.6241 33.2119ZM68.4183 34.2486C68.4183 34.3217 68.4021 34.3975 68.3723 34.4706C68.3425 34.5437 68.2965 34.6113 68.237 34.6736C68.1774 34.7358 68.1043 34.7846 68.015 34.8252C67.9257 34.8631 67.8255 34.8847 67.7091 34.8847C67.5954 34.8847 67.4926 34.8658 67.4032 34.8252C67.3139 34.7846 67.2408 34.7358 67.1813 34.6736C67.1217 34.6113 67.0757 34.5437 67.0459 34.4706C67.0162 34.3975 66.9999 34.3217 66.9999 34.2486V34.0131C66.9999 33.94 67.0162 33.8642 67.0459 33.7911C67.0757 33.718 67.1217 33.6504 67.1813 33.5881C67.2408 33.5259 67.3139 33.4771 67.4032 33.4365C67.4926 33.3986 67.5927 33.377 67.7091 33.377C67.8255 33.377 67.9257 33.3959 68.015 33.4365C68.1043 33.4771 68.1774 33.5259 68.237 33.5881C68.2965 33.6504 68.3425 33.718 68.3723 33.7911C68.4021 33.8642 68.4183 33.94 68.4183 34.0131V34.2486Z" fill="#101820"/>
<path d="M67.9866 31.2881H67.3884V32.0839H66.2461V32.5955H69.0586V32.0839H67.9866V31.2881Z" fill="#101820"/>
<path d="M70.6358 33.2354H70.024V31.124H69.4258V36.8139H70.024V33.766H70.6358V36.8139H71.234V31.124H70.6358V33.2354Z" fill="#101820"/>
<path d="M81.7979 35.0392H79.4591V34.3164H78.8555V36.8149H82.4042V34.3164H81.8006V35.0392H81.7979ZM81.7979 36.2979H79.4591V35.5508H81.7979V36.2979Z" fill="#101820"/>
<path d="M81.7945 32.3584H80.6414C80.6197 32.2257 80.5764 32.0985 80.5087 31.9767C80.441 31.8522 80.349 31.7439 80.2299 31.6465C80.1135 31.549 79.9728 31.4705 79.8076 31.411C79.6425 31.3514 79.453 31.3216 79.2392 31.3216C79.0037 31.3216 78.798 31.3568 78.622 31.4272C78.4461 31.4976 78.2972 31.5896 78.1808 31.7006C78.0644 31.8143 77.975 31.9415 77.9155 32.0823C77.8559 32.223 77.8262 32.3665 77.8262 32.51V32.7455C77.8262 32.8889 77.8559 33.0324 77.9155 33.1732C77.975 33.3139 78.0644 33.4438 78.1808 33.5548C78.2972 33.6685 78.4461 33.7606 78.622 33.8282C78.798 33.8959 79.0037 33.9338 79.2392 33.9338C79.453 33.9338 79.6425 33.904 79.8103 33.8445C79.9782 33.7849 80.1189 33.7064 80.2353 33.6063C80.3517 33.5088 80.4437 33.3951 80.5141 33.2679C80.5818 33.1407 80.6251 33.0107 80.6414 32.8781H81.7945V34.0312H82.3981V31.124H81.7945V32.3584ZM80.0675 32.7157C80.0675 32.8023 80.0485 32.8862 80.0106 32.9701C79.9728 33.0513 79.9213 33.1271 79.8509 33.1921C79.7806 33.2571 79.6939 33.3112 79.5911 33.3518C79.4882 33.3924 79.3718 33.4141 79.2392 33.4141C79.1065 33.4141 78.9901 33.3924 78.8873 33.3518C78.7844 33.3112 78.6978 33.2571 78.6274 33.1921C78.557 33.1271 78.5029 33.0513 78.4677 32.9701C78.4298 32.8889 78.4109 32.8023 78.4109 32.7157V32.5424C78.4109 32.4558 78.4298 32.3719 78.4677 32.288C78.5056 32.2068 78.557 32.1337 78.6274 32.0687C78.6978 32.0038 78.7844 31.9523 78.8873 31.9117C78.9901 31.8711 79.1065 31.8495 79.2392 31.8495C79.3718 31.8495 79.4882 31.8711 79.5911 31.9117C79.6939 31.9523 79.7806 32.0065 79.8509 32.0687C79.9213 32.1337 79.9755 32.2041 80.0106 32.288C80.0485 32.3692 80.0675 32.4558 80.0675 32.5424V32.7157Z" fill="#101820"/>
<path d="M86.9496 34.9441C86.7899 34.8547 86.6004 34.7844 86.3838 34.7383C86.1673 34.6923 85.9345 34.668 85.6827 34.668C85.431 34.668 85.1982 34.6923 84.9816 34.7383C84.7651 34.7844 84.5783 34.8547 84.4159 34.9441C84.2562 35.0334 84.129 35.1444 84.0396 35.2716C83.9503 35.3988 83.9043 35.545 83.9043 35.7101V35.9321C83.9043 36.0972 83.9503 36.2434 84.0396 36.3733C84.129 36.5033 84.2562 36.6115 84.4159 36.7009C84.5756 36.7902 84.7651 36.8579 84.9816 36.9039C85.1982 36.9499 85.431 36.9743 85.6827 36.9743C85.9345 36.9743 86.1673 36.9499 86.3838 36.9039C86.6004 36.8579 86.7872 36.7902 86.9496 36.7009C87.1093 36.6115 87.2365 36.5033 87.3258 36.3733C87.4152 36.2434 87.4612 36.0972 87.4612 35.9321V35.7101C87.4612 35.545 87.4152 35.3988 87.3258 35.2716C87.2338 35.1444 87.1093 35.0361 86.9496 34.9441ZM86.8575 35.8942C86.8575 35.9754 86.8278 36.0512 86.7655 36.1216C86.7032 36.192 86.6193 36.2515 86.5165 36.3029C86.4109 36.3544 86.2891 36.395 86.1456 36.4275C86.0049 36.4572 85.8506 36.4735 85.6854 36.4735C85.5203 36.4735 85.3687 36.4572 85.2253 36.4275C85.0845 36.3977 84.96 36.3544 84.8544 36.3029C84.7488 36.2515 84.6676 36.192 84.6054 36.1216C84.5431 36.0512 84.5134 35.9754 84.5134 35.8942V35.7453C84.5134 35.6668 84.5431 35.591 84.6054 35.5206C84.6676 35.4476 84.7516 35.388 84.8544 35.3366C84.96 35.2851 85.0818 35.2445 85.2253 35.2121C85.366 35.1823 85.5203 35.166 85.6854 35.166C85.8506 35.166 86.0022 35.1823 86.1456 35.2121C86.2864 35.2418 86.4109 35.2851 86.5165 35.3366C86.622 35.388 86.7059 35.4503 86.7655 35.5206C86.8278 35.5937 86.8575 35.6668 86.8575 35.7453V35.8942Z" fill="#101820"/>
<path d="M86.8986 32.0834C86.8986 32.2512 86.8878 32.4434 86.8688 32.6546C86.8471 32.8657 86.812 33.0904 86.7578 33.3232L87.3615 33.3908C87.3858 33.2799 87.4075 33.1608 87.4291 33.0362C87.4508 32.9117 87.467 32.7899 87.4779 32.6681C87.4914 32.549 87.4995 32.4353 87.5049 32.3324C87.5103 32.2269 87.513 32.143 87.513 32.0753V31.3525H83.7559V31.8696H86.8959V32.0834H86.8986Z" fill="#101820"/>
<path d="M85.6763 32.624H85.0591V33.742H83.0723V34.259H88.2939V33.742H85.6763V32.624Z" fill="#101820"/>
<path d="M93.1942 32.6047V31.124H92.5879V35.1844H93.1942V33.1353H94.0009V32.6047H93.1942Z" fill="#101820"/>
<path d="M90.3286 34.8672H89.7168V36.7539H93.3468V36.2233H90.3286V34.8672Z" fill="#101820"/>
<path d="M92.1319 33.7364H89.5631V32.0203H91.6014V31.4951H88.9648V34.2589H92.1319V33.7364Z" fill="#101820"/>
<path d="M38.4007 33.229L35.9347 36.9727L33.4688 33.229L35.9347 29.4854L38.4007 33.229Z" fill="#0082CB"/>
<path d="M38.4004 33.229L40.8664 36.9727L43.3324 33.229L40.8664 29.4854L38.4004 33.229Z" fill="#0082CB"/>
<path d="M35.9336 29.4849L38.3996 33.2285L40.8656 29.4849L38.3996 25.7412L35.9336 29.4849Z" fill="#0082CB"/>
<path d="M33.4687 33.2285L31 36.9722H35.9347L33.4687 33.2285Z" fill="#0082CB"/>
<path d="M43.3332 33.2285L40.8672 36.9722H45.7992L43.3332 33.2285Z" fill="#0082CB"/>
<path d="M38.4007 33.229L35.9347 36.9727L33.4688 33.229L35.9347 29.4854L38.4007 33.229Z" fill="#00A0D8"/>
<path d="M38.4004 33.229L40.8664 36.9727L43.3324 33.229L40.8664 29.4854L38.4004 33.229Z" fill="#00A0D8"/>
<path d="M35.9336 29.4849L38.3996 33.2285L40.8656 29.4849L38.3996 25.7412L35.9336 29.4849Z" fill="#62B9E3"/>
<path d="M33.4687 33.2285L31 36.9722H35.9347L33.4687 33.2285Z" fill="#0082CB"/>
<path d="M43.3332 33.2285L40.8672 36.9722H45.7992L43.3332 33.2285Z" fill="#0082CB"/>
<path d="M45.7972 25.7437L43.3312 22L40.8652 25.7437H45.7972Z" fill="#62B9E3"/>
<path d="M40.8652 25.7441L43.3312 29.4878L45.7972 25.7441H40.8652Z" fill="#00A0D8"/>
<path d="M109.739 89.0789V101.535H112.259V89.0789H109.739ZM97.9068 102.639V110.727H112.259V102.639H97.9068ZM109.787 104.631V108.711H100.379V104.631H109.787ZM100.427 90.1589C97.0668 90.1589 94.5948 92.2709 94.5948 95.3429C94.5948 98.3669 97.0668 100.527 100.427 100.527C103.787 100.527 106.235 98.3669 106.235 95.3429C106.235 92.2709 103.787 90.1589 100.427 90.1589ZM100.427 92.2469C102.371 92.2469 103.787 93.4709 103.787 95.3429C103.787 97.2149 102.371 98.4149 100.427 98.4149C98.4828 98.4149 97.0428 97.2149 97.0428 95.3429C97.0428 93.4709 98.4828 92.2469 100.427 92.2469Z" fill="#333333"/>
<path d="M121.157 91.3109V92.8949C121.157 95.8469 119.213 98.7029 115.757 99.8789L117.053 101.823C120.965 100.503 123.245 96.9749 123.245 92.8949V91.3109H121.157ZM121.661 91.3109V92.8949C121.661 96.7829 123.941 100.167 127.805 101.439L129.077 99.4709C125.693 98.3669 123.725 95.7029 123.725 92.8949V91.3109H121.661ZM131.117 89.0549V102.303H133.637V89.0549H131.117ZM118.853 103.383V105.399H131.117V110.991H133.637V103.383H118.853ZM116.429 90.4709V92.4869H128.405V90.4709H116.429Z" fill="#333333"/>
<path d="M142.919 100.191V105.039H145.439V100.191H142.919ZM152.591 89.0549V105.711H155.111V89.0549H152.591ZM139.775 108.519V110.559H155.615V108.519H139.775ZM139.775 104.103V109.071H142.295V104.103H139.775ZM137.159 101.031C141.119 101.031 146.351 100.935 151.055 100.167L150.887 98.3429C146.255 98.9429 140.855 98.9909 136.823 98.9909L137.159 101.031ZM148.271 101.919V103.695H153.191V101.919H148.271ZM143.927 89.8949C140.711 89.8949 138.503 91.4309 138.503 93.7589C138.503 96.0869 140.711 97.5989 143.927 97.5989C147.119 97.5989 149.351 96.0869 149.351 93.7589C149.351 91.4309 147.119 89.8949 143.927 89.8949ZM143.927 91.7429C145.703 91.7429 146.951 92.4869 146.951 93.7589C146.951 95.0069 145.703 95.7509 143.927 95.7509C142.127 95.7509 140.879 95.0069 140.879 93.7589C140.879 92.4869 142.127 91.7429 143.927 91.7429Z" fill="#333333"/>
<path d="M99.6737 124.055V137.879H102.05V124.055H99.6737ZM96.4817 129.767V131.831H100.346V129.767H96.4817ZM95.0417 124.487V137.111H97.3937V124.487H95.0417ZM83.3777 126.503V128.471H94.2737V126.503H83.3777ZM88.8497 129.407C86.1137 129.407 84.1457 130.943 84.1457 133.199C84.1457 135.479 86.1137 136.991 88.8497 136.991C91.6097 136.991 93.5537 135.479 93.5537 133.199C93.5537 130.943 91.6097 129.407 88.8497 129.407ZM88.8497 131.255C90.3137 131.255 91.2977 131.999 91.2977 133.199C91.2977 134.423 90.3137 135.167 88.8497 135.167C87.3857 135.167 86.4017 134.423 86.4017 133.199C86.4017 131.999 87.3857 131.255 88.8497 131.255ZM87.6017 124.247V127.751H90.0737V124.247H87.6017ZM94.7537 138.191C90.1217 138.191 87.3377 139.583 87.3377 142.079C87.3377 144.551 90.1217 145.967 94.7537 145.967C99.3857 145.967 102.17 144.551 102.17 142.079C102.17 139.583 99.3857 138.191 94.7537 138.191ZM94.7537 140.087C97.8977 140.087 99.6497 140.759 99.6497 142.079C99.6497 143.375 97.8977 144.071 94.7537 144.071C91.5857 144.071 89.8337 143.375 89.8337 142.079C89.8337 140.759 91.5857 140.087 94.7537 140.087Z" fill="#333333"/>
<path d="M104.876 134.639V136.655H124.7V134.639H104.876ZM113.54 131.231V135.455H116.036V131.231H113.54ZM107.324 130.439V132.431H122.42V130.439H107.324ZM107.324 125.039V131.663H109.82V127.031H122.276V125.039H107.324ZM114.74 138.023C110.036 138.023 107.18 139.463 107.18 142.007C107.18 144.551 110.036 145.991 114.74 145.991C119.444 145.991 122.3 144.551 122.3 142.007C122.3 139.463 119.444 138.023 114.74 138.023ZM114.74 139.943C117.956 139.943 119.756 140.663 119.756 142.007C119.756 143.351 117.956 144.047 114.74 144.047C111.524 144.047 109.724 143.351 109.724 142.007C109.724 140.663 111.524 139.943 114.74 139.943Z" fill="#333333"/>
<path d="M140.846 124.055V136.991H143.366V124.055H140.846ZM142.67 129.479V131.567H146.462V129.479H142.67ZM134.702 125.591V126.791C134.702 130.583 131.606 133.679 126.182 135.239L127.214 137.255C133.598 135.431 137.39 131.327 137.39 125.591H134.702ZM127.166 125.591V127.631H136.166V125.591H127.166ZM136.382 137.255C132.014 137.255 129.134 138.935 129.134 141.623C129.134 144.311 132.014 145.967 136.382 145.967C140.774 145.967 143.606 144.311 143.606 141.623C143.606 138.935 140.774 137.255 136.382 137.255ZM136.382 139.223C139.334 139.223 141.158 140.111 141.158 141.623C141.158 143.135 139.334 143.999 136.382 143.999C133.454 143.999 131.63 143.135 131.63 141.623C131.63 140.111 133.454 139.223 136.382 139.223Z" fill="#333333"/>
<path d="M148.496 134.519V136.559H150.104C154.424 136.559 156.632 136.487 159.272 136.007L159.008 133.991C156.464 134.447 154.328 134.519 150.104 134.519H148.496ZM148.448 125.255V127.271H155.48V129.815H148.496V135.935H150.992V131.711H157.976V125.255H148.448ZM163.28 124.079V137.519H165.8V124.079H163.28ZM159.368 127.271V129.287H163.808V127.271H159.368ZM159.368 131.759V133.799H163.808V131.759H159.368ZM158.504 137.903C153.896 137.903 151.112 139.391 151.112 142.007C151.112 144.599 153.896 146.087 158.504 146.087C163.088 146.087 165.896 144.599 165.896 142.007C165.896 139.391 163.088 137.903 158.504 137.903ZM158.504 139.823C161.624 139.823 163.4 140.591 163.4 142.007C163.4 143.399 161.624 144.167 158.504 144.167C155.384 144.167 153.608 143.399 153.608 142.007C153.608 140.591 155.384 139.823 158.504 139.823Z" fill="#333333"/>
<defs>
<filter id="filter0_f_1294_1149" x="0" y="0" width="33" height="335.999" filterUnits="userSpaceOnUse" color-interpolation-filters="sRGB">
<feFlood flood-opacity="0" result="BackgroundImageFix"/>
<feBlend mode="normal" in="SourceGraphic" in2="BackgroundImageFix" result="shape"/>
<feGaussianBlur stdDeviation="5" result="effect1_foregroundBlur_1294_1149"/>
</filter>
<filter id="filter1_d_1294_1149" x="6" y="10" width="18" height="315" filterUnits="userSpaceOnUse" color-interpolation-filters="sRGB">
<feFlood flood-opacity="0" result="BackgroundImageFix"/>
<feColorMatrix in="SourceAlpha" type="matrix" values="0 0 0 0 0 0 0 0 0 0 0 0 0 0 0 0 0 0 127 0" result="hardAlpha"/>
<feOffset dx="1"/>
<feComposite in2="hardAlpha" operator="out"/>
<feColorMatrix type="matrix" values="0 0 0 0 0.917647 0 0 0 0 0.917647 0 0 0 0 0.917647 0 0 0 1 0"/>
<feBlend mode="normal" in2="BackgroundImageFix" result="effect1_dropShadow_1294_1149"/>
<feBlend mode="normal" in="SourceGraphic" in2="effect1_dropShadow_1294_1149" result="shape"/>
</filter>
</defs>
</svg>
