<svg width="235" height="336" viewBox="0 0 235 336" fill="none" xmlns="http://www.w3.org/2000/svg">
<rect x="5.5" y="9.5" width="224" height="315.999" fill="white" stroke="#E0E0E0"/>
<g filter="url(#filter0_f_1294_1150)">
<rect x="10" y="10" width="13" height="315.999" fill="#E8E8E8"/>
</g>
<g filter="url(#filter1_d_1294_1150)">
<rect x="6" y="10" width="17" height="315" fill="white"/>
</g>
<path d="M157.51 289.494L133.34 325.999L109.17 289.494L133.34 253.01L157.51 289.494Z" fill="#0082CB"/>
<path d="M157.51 289.494L181.659 325.999L205.83 289.494L181.659 253.01L157.51 289.494Z" fill="#0082CB"/>
<path d="M133.341 252.989L157.511 289.494L181.66 252.989L157.511 216.504L133.341 252.989Z" fill="#0082CB"/>
<path d="M109.17 289.494L85 325.999H133.34L109.17 289.494Z" fill="#0082CB"/>
<path d="M205.829 289.494L181.659 325.999H230L205.829 289.494Z" fill="#0082CB"/>
<path d="M157.51 289.494L133.34 325.999L109.17 289.494L133.34 253.01L157.51 289.494Z" fill="#00A0D8"/>
<path d="M157.51 289.494L181.659 325.999L205.83 289.494L181.659 253.01L157.51 289.494Z" fill="#00A0D8"/>
<path d="M133.341 252.989L157.511 289.494L181.66 252.989L157.511 216.504L133.341 252.989Z" fill="#62B9E3"/>
<path d="M109.17 289.494L85 325.999H133.34L109.17 289.494Z" fill="#0082CB"/>
<path d="M205.829 289.494L181.659 325.999H230L205.829 289.494Z" fill="#0082CB"/>
<path d="M230 216.483L205.829 179.999L181.659 216.483H230Z" fill="#62B9E3"/>
<path d="M181.659 216.504L205.829 253.01L230 216.504H181.659Z" fill="#00A0D8"/>
<path d="M62.9648 32.1555C62.9648 32.3125 62.954 32.4857 62.9296 32.6779C62.908 32.8701 62.8728 33.0731 62.8268 33.2843L63.425 33.3573C63.4467 33.268 63.4656 33.1679 63.4846 33.0623C63.5035 32.954 63.5198 32.843 63.5306 32.7293C63.5441 32.6157 63.5522 32.4993 63.5577 32.3883C63.5631 32.2746 63.5658 32.169 63.5658 32.0716V31.3867H60.7695V31.9119H62.9594V32.1555H62.9648Z" fill="#101820"/>
<path d="M64.4439 35.0047C64.2896 34.9154 64.1028 34.8477 63.8863 34.7936C63.667 34.7421 63.4234 34.7178 63.1527 34.7178C62.882 34.7178 62.6357 34.7421 62.4164 34.7936C62.1971 34.845 62.0077 34.9154 61.8561 35.0047C61.7018 35.094 61.5827 35.1996 61.5015 35.3241C61.4203 35.4486 61.377 35.5867 61.377 35.7356V35.9332C61.377 36.0821 61.4176 36.2174 61.5015 36.3446C61.5827 36.4691 61.7018 36.5774 61.8561 36.6667C62.0104 36.7561 62.1971 36.8237 62.4164 36.8779C62.6357 36.9293 62.882 36.9537 63.1527 36.9537C63.4234 36.9537 63.6697 36.9293 63.8863 36.8779C64.1055 36.8265 64.2896 36.7561 64.4439 36.6667C64.5982 36.5774 64.7173 36.4719 64.8012 36.3446C64.8851 36.2201 64.9284 36.0821 64.9284 35.9332V35.7356C64.9284 35.5867 64.8851 35.4513 64.8012 35.3241C64.7173 35.1996 64.5982 35.094 64.4439 35.0047ZM64.3275 35.8953C64.3275 35.9575 64.3031 36.0225 64.2517 36.0902C64.2003 36.1578 64.1245 36.2201 64.0243 36.2742C63.9242 36.3284 63.7996 36.3744 63.6535 36.4096C63.5073 36.4448 63.3395 36.461 63.15 36.461C62.9605 36.461 62.7927 36.4448 62.6465 36.4096C62.5003 36.3744 62.3758 36.3284 62.2756 36.2742C62.1755 36.2174 62.0997 36.1578 62.0483 36.0902C61.9968 36.0225 61.9725 35.9575 61.9725 35.8953V35.7708C61.9725 35.7085 61.9968 35.6435 62.0483 35.5759C62.0997 35.5082 62.1755 35.4459 62.2756 35.3918C62.3758 35.3349 62.5003 35.2916 62.6465 35.2564C62.7927 35.2213 62.9605 35.205 63.15 35.205C63.3395 35.205 63.5073 35.224 63.6535 35.2564C63.7996 35.2916 63.9214 35.3377 64.0243 35.3918C64.1245 35.4459 64.2003 35.5082 64.2517 35.5759C64.3031 35.6435 64.3275 35.7085 64.3275 35.7708V35.8953Z" fill="#101820"/>
<path d="M64.9201 31.124H64.3165V34.5618H64.9201V33.1434H65.7214V32.6128H64.9201V31.124Z" fill="#101820"/>
<path d="M64.0125 33.8098H62.1528L62.1501 32.6377H61.5438V33.8098H60.3906V34.3349H64.0125V33.8098Z" fill="#101820"/>
<path d="M74.6125 32.1555C74.6125 32.3125 74.6017 32.4857 74.5773 32.6779C74.5557 32.8701 74.5205 33.0731 74.4745 33.2843L75.0727 33.3573C75.0943 33.268 75.1133 33.1679 75.1322 33.0623C75.1512 32.954 75.1674 32.843 75.1783 32.7293C75.1918 32.6157 75.1999 32.4993 75.2053 32.3883C75.2107 32.2746 75.2135 32.169 75.2135 32.0716V31.3867H72.4199V31.9119H74.6098V32.1555H74.6125Z" fill="#101820"/>
<path d="M76.0904 35.0047C75.9361 34.9154 75.7493 34.8477 75.5327 34.7936C75.3135 34.7421 75.0699 34.7178 74.7992 34.7178C74.5285 34.7178 74.2821 34.7421 74.0629 34.7936C73.8436 34.845 73.6541 34.9154 73.5026 35.0047C73.3483 35.094 73.2292 35.1996 73.148 35.3241C73.0667 35.4486 73.0234 35.5867 73.0234 35.7356V35.9332C73.0234 36.0821 73.064 36.2174 73.148 36.3446C73.2292 36.4691 73.3483 36.5774 73.5026 36.6667C73.6569 36.7561 73.8436 36.8237 74.0629 36.8779C74.2821 36.9293 74.5285 36.9537 74.7992 36.9537C75.0699 36.9537 75.3162 36.9293 75.5327 36.8779C75.752 36.8265 75.9361 36.7561 76.0904 36.6667C76.2447 36.5774 76.3638 36.4719 76.4477 36.3446C76.5316 36.2201 76.5749 36.0821 76.5749 35.9332V35.7356C76.5749 35.5867 76.5316 35.4513 76.4477 35.3241C76.3638 35.1996 76.2447 35.094 76.0904 35.0047ZM75.9767 35.8953C75.9767 35.9575 75.9523 36.0225 75.9009 36.0902C75.8495 36.1578 75.7737 36.2201 75.6735 36.2742C75.5733 36.3284 75.4488 36.3744 75.3027 36.4096C75.1565 36.4448 74.9887 36.461 74.7992 36.461C74.6097 36.461 74.4419 36.4448 74.2957 36.4096C74.1495 36.3744 74.025 36.3284 73.9248 36.2742C73.8247 36.2174 73.7489 36.1578 73.6975 36.0902C73.646 36.0225 73.6217 35.9575 73.6217 35.8953V35.7708C73.6217 35.7085 73.646 35.6435 73.6975 35.5759C73.7489 35.5082 73.8247 35.4459 73.9248 35.3918C74.025 35.3349 74.1495 35.2916 74.2957 35.2564C74.4419 35.2213 74.6097 35.205 74.7992 35.205C74.9887 35.205 75.1565 35.224 75.3027 35.2564C75.4488 35.2916 75.5706 35.3377 75.6735 35.3918C75.7737 35.4459 75.8495 35.5082 75.9009 35.5759C75.9523 35.6435 75.9767 35.7085 75.9767 35.7708V35.8953Z" fill="#101820"/>
<path d="M76.5685 31.124H75.9648V34.5618H76.5685V33.1434H77.3697V32.6128H76.5685V31.124Z" fill="#101820"/>
<path d="M75.6609 33.8098H73.8013L73.7986 32.6377H73.1922V33.8098H72.0391V34.3349H75.6609V33.8098Z" fill="#101820"/>
<path d="M53.5868 31.124H52.9805V35.2521H53.5868V33.3464H54.3935V32.8158H53.5868V31.124Z" fill="#101820"/>
<path d="M50.7211 35.1797H50.1094V36.7524H53.7366V36.2218H50.7211V35.1797Z" fill="#101820"/>
<path d="M50.7951 34.7739C51.0171 34.7739 51.2093 34.7441 51.3744 34.6846C51.5395 34.625 51.6776 34.5465 51.7886 34.4464C51.8996 34.3489 51.9835 34.2352 52.0376 34.1107C52.0945 33.9862 52.1215 33.8562 52.1215 33.7236V33.5395C52.1215 33.4069 52.0945 33.2797 52.0376 33.1525C51.9835 33.0279 51.8996 32.9142 51.7886 32.8168C51.6776 32.7166 51.5395 32.6381 51.3744 32.5786C51.2093 32.519 51.0171 32.4893 50.7951 32.4893C50.5732 32.4893 50.381 32.519 50.2159 32.5786C50.0507 32.6381 49.9127 32.7166 49.8017 32.8141C49.6907 32.9115 49.6068 33.0225 49.5527 33.147C49.4985 33.2716 49.4688 33.4042 49.4688 33.5395V33.7236C49.4688 33.8562 49.4958 33.9835 49.5527 34.1107C49.6095 34.2352 49.6907 34.3489 49.8017 34.4464C49.9127 34.5465 50.0507 34.625 50.2159 34.6846C50.381 34.7441 50.5732 34.7739 50.7951 34.7739ZM50.048 33.6938V33.5693C50.048 33.4962 50.0643 33.4231 50.094 33.3501C50.1238 33.277 50.1698 33.2147 50.2321 33.1579C50.2944 33.1037 50.3702 33.0577 50.4622 33.0252C50.5542 32.9927 50.6652 32.9765 50.7924 32.9765C50.9197 32.9765 51.0306 32.9927 51.1227 33.0252C51.2147 33.0577 51.2932 33.1037 51.3528 33.1579C51.415 33.2147 51.461 33.277 51.4908 33.3501C51.5206 33.4231 51.5368 33.4962 51.5368 33.5693V33.6938C51.5368 33.7669 51.5206 33.84 51.4908 33.9131C51.461 33.9862 51.415 34.0484 51.3528 34.1053C51.2905 34.1594 51.212 34.2054 51.1173 34.2379C51.0225 34.2704 50.9142 34.2866 50.7897 34.2866C50.6652 34.2866 50.5569 34.2704 50.4622 34.2379C50.3674 34.2054 50.2889 34.1594 50.2267 34.1053C50.1644 34.0484 50.1184 33.9862 50.0886 33.9131C50.0643 33.84 50.048 33.7669 50.048 33.6938Z" fill="#101820"/>
<path d="M52.4247 31.7552H51.0983V31.0703H50.4947V31.7552H49.1602V32.2722H52.4247V31.7552Z" fill="#101820"/>
<path d="M59.0569 32.7141C59.0786 32.4949 59.0867 32.2972 59.0867 32.124V31.3525H55.3403V31.8696H58.4695V32.0969C58.4695 32.281 58.4587 32.4813 58.4398 32.6979C58.4181 32.9144 58.3829 33.1364 58.3288 33.3665H54.6582V33.8835H56.9401V34.8715H55.3295V35.3912H58.5372V36.8665H59.149V34.8742H57.5573V33.8862H59.8771V33.3719H58.9649C59.0055 33.1553 59.0353 32.9361 59.0569 32.7141Z" fill="#101820"/>
<path d="M68.6241 33.2119C68.5131 33.109 68.3804 33.0278 68.2261 32.9682C68.0719 32.9087 67.9013 32.8789 67.7118 32.8789C67.5224 32.8789 67.3518 32.9087 67.1975 32.9682C67.0432 33.0278 66.9106 33.109 66.7996 33.2119C66.6886 33.3147 66.602 33.4311 66.5424 33.5638C66.4829 33.6964 66.4531 33.8344 66.4531 33.9833V34.2784C66.4531 34.4273 66.4829 34.5653 66.5424 34.6979C66.602 34.8306 66.6886 34.947 66.7996 35.0498C66.9106 35.1527 67.0432 35.2339 67.1975 35.2935C67.3518 35.353 67.5224 35.3828 67.7118 35.3828C67.9013 35.3828 68.0719 35.353 68.2261 35.2935C68.3804 35.2339 68.5131 35.1527 68.6241 35.0498C68.735 34.947 68.8217 34.8306 68.8812 34.6979C68.9408 34.5653 68.9705 34.4273 68.9705 34.2784V33.9833C68.9705 33.8344 68.9408 33.6964 68.8812 33.5638C68.819 33.4311 68.735 33.3147 68.6241 33.2119ZM68.4183 34.2486C68.4183 34.3217 68.4021 34.3975 68.3723 34.4706C68.3425 34.5437 68.2965 34.6113 68.237 34.6736C68.1774 34.7358 68.1043 34.7846 68.015 34.8252C67.9257 34.8631 67.8255 34.8847 67.7091 34.8847C67.5954 34.8847 67.4926 34.8658 67.4032 34.8252C67.3139 34.7846 67.2408 34.7358 67.1813 34.6736C67.1217 34.6113 67.0757 34.5437 67.0459 34.4706C67.0162 34.3975 66.9999 34.3217 66.9999 34.2486V34.0131C66.9999 33.94 67.0162 33.8642 67.0459 33.7911C67.0757 33.718 67.1217 33.6504 67.1813 33.5881C67.2408 33.5259 67.3139 33.4771 67.4032 33.4365C67.4926 33.3986 67.5927 33.377 67.7091 33.377C67.8255 33.377 67.9257 33.3959 68.015 33.4365C68.1043 33.4771 68.1774 33.5259 68.237 33.5881C68.2965 33.6504 68.3425 33.718 68.3723 33.7911C68.4021 33.8642 68.4183 33.94 68.4183 34.0131V34.2486Z" fill="#101820"/>
<path d="M67.9866 31.2881H67.3884V32.0839H66.2461V32.5955H69.0586V32.0839H67.9866V31.2881Z" fill="#101820"/>
<path d="M70.6358 33.2354H70.024V31.124H69.4258V36.8139H70.024V33.766H70.6358V36.8139H71.234V31.124H70.6358V33.2354Z" fill="#101820"/>
<path d="M81.7979 35.0392H79.4591V34.3164H78.8555V36.8149H82.4042V34.3164H81.8006V35.0392H81.7979ZM81.7979 36.2979H79.4591V35.5508H81.7979V36.2979Z" fill="#101820"/>
<path d="M81.7945 32.3584H80.6414C80.6197 32.2257 80.5764 32.0985 80.5087 31.9767C80.441 31.8522 80.349 31.7439 80.2299 31.6465C80.1135 31.549 79.9728 31.4705 79.8076 31.411C79.6425 31.3514 79.453 31.3216 79.2392 31.3216C79.0037 31.3216 78.798 31.3568 78.622 31.4272C78.4461 31.4976 78.2972 31.5896 78.1808 31.7006C78.0644 31.8143 77.975 31.9415 77.9155 32.0823C77.8559 32.223 77.8262 32.3665 77.8262 32.51V32.7455C77.8262 32.8889 77.8559 33.0324 77.9155 33.1732C77.975 33.3139 78.0644 33.4438 78.1808 33.5548C78.2972 33.6685 78.4461 33.7606 78.622 33.8282C78.798 33.8959 79.0037 33.9338 79.2392 33.9338C79.453 33.9338 79.6425 33.904 79.8103 33.8445C79.9782 33.7849 80.1189 33.7064 80.2353 33.6063C80.3517 33.5088 80.4437 33.3951 80.5141 33.2679C80.5818 33.1407 80.6251 33.0107 80.6414 32.8781H81.7945V34.0312H82.3981V31.124H81.7945V32.3584ZM80.0675 32.7157C80.0675 32.8023 80.0485 32.8862 80.0106 32.9701C79.9728 33.0513 79.9213 33.1271 79.8509 33.1921C79.7806 33.2571 79.6939 33.3112 79.5911 33.3518C79.4882 33.3924 79.3718 33.4141 79.2392 33.4141C79.1065 33.4141 78.9901 33.3924 78.8873 33.3518C78.7844 33.3112 78.6978 33.2571 78.6274 33.1921C78.557 33.1271 78.5029 33.0513 78.4677 32.9701C78.4298 32.8889 78.4109 32.8023 78.4109 32.7157V32.5424C78.4109 32.4558 78.4298 32.3719 78.4677 32.288C78.5056 32.2068 78.557 32.1337 78.6274 32.0687C78.6978 32.0038 78.7844 31.9523 78.8873 31.9117C78.9901 31.8711 79.1065 31.8495 79.2392 31.8495C79.3718 31.8495 79.4882 31.8711 79.5911 31.9117C79.6939 31.9523 79.7806 32.0065 79.8509 32.0687C79.9213 32.1337 79.9755 32.2041 80.0106 32.288C80.0485 32.3692 80.0675 32.4558 80.0675 32.5424V32.7157Z" fill="#101820"/>
<path d="M86.9496 34.9441C86.7899 34.8547 86.6004 34.7844 86.3838 34.7383C86.1673 34.6923 85.9345 34.668 85.6827 34.668C85.431 34.668 85.1982 34.6923 84.9816 34.7383C84.7651 34.7844 84.5783 34.8547 84.4159 34.9441C84.2562 35.0334 84.129 35.1444 84.0396 35.2716C83.9503 35.3988 83.9043 35.545 83.9043 35.7101V35.9321C83.9043 36.0972 83.9503 36.2434 84.0396 36.3733C84.129 36.5033 84.2562 36.6115 84.4159 36.7009C84.5756 36.7902 84.7651 36.8579 84.9816 36.9039C85.1982 36.9499 85.431 36.9743 85.6827 36.9743C85.9345 36.9743 86.1673 36.9499 86.3838 36.9039C86.6004 36.8579 86.7872 36.7902 86.9496 36.7009C87.1093 36.6115 87.2365 36.5033 87.3258 36.3733C87.4152 36.2434 87.4612 36.0972 87.4612 35.9321V35.7101C87.4612 35.545 87.4152 35.3988 87.3258 35.2716C87.2338 35.1444 87.1093 35.0361 86.9496 34.9441ZM86.8575 35.8942C86.8575 35.9754 86.8278 36.0512 86.7655 36.1216C86.7032 36.192 86.6193 36.2515 86.5165 36.3029C86.4109 36.3544 86.2891 36.395 86.1456 36.4275C86.0049 36.4572 85.8506 36.4735 85.6854 36.4735C85.5203 36.4735 85.3687 36.4572 85.2253 36.4275C85.0845 36.3977 84.96 36.3544 84.8544 36.3029C84.7488 36.2515 84.6676 36.192 84.6054 36.1216C84.5431 36.0512 84.5134 35.9754 84.5134 35.8942V35.7453C84.5134 35.6668 84.5431 35.591 84.6054 35.5206C84.6676 35.4476 84.7516 35.388 84.8544 35.3366C84.96 35.2851 85.0818 35.2445 85.2253 35.2121C85.366 35.1823 85.5203 35.166 85.6854 35.166C85.8506 35.166 86.0022 35.1823 86.1456 35.2121C86.2864 35.2418 86.4109 35.2851 86.5165 35.3366C86.622 35.388 86.7059 35.4503 86.7655 35.5206C86.8278 35.5937 86.8575 35.6668 86.8575 35.7453V35.8942Z" fill="#101820"/>
<path d="M86.8986 32.0834C86.8986 32.2512 86.8878 32.4434 86.8688 32.6546C86.8471 32.8657 86.812 33.0904 86.7578 33.3232L87.3615 33.3908C87.3858 33.2799 87.4075 33.1608 87.4291 33.0362C87.4508 32.9117 87.467 32.7899 87.4779 32.6681C87.4914 32.549 87.4995 32.4353 87.5049 32.3324C87.5103 32.2269 87.513 32.143 87.513 32.0753V31.3525H83.7559V31.8696H86.8959V32.0834H86.8986Z" fill="#101820"/>
<path d="M85.6763 32.624H85.0591V33.742H83.0723V34.259H88.2939V33.742H85.6763V32.624Z" fill="#101820"/>
<path d="M93.1942 32.6047V31.124H92.5879V35.1844H93.1942V33.1353H94.0009V32.6047H93.1942Z" fill="#101820"/>
<path d="M90.3286 34.8672H89.7168V36.7539H93.3468V36.2233H90.3286V34.8672Z" fill="#101820"/>
<path d="M92.1319 33.7364H89.5631V32.0203H91.6014V31.4951H88.9648V34.2589H92.1319V33.7364Z" fill="#101820"/>
<path d="M38.4007 33.229L35.9347 36.9727L33.4688 33.229L35.9347 29.4854L38.4007 33.229Z" fill="#0082CB"/>
<path d="M38.4004 33.229L40.8664 36.9727L43.3324 33.229L40.8664 29.4854L38.4004 33.229Z" fill="#0082CB"/>
<path d="M35.9336 29.4849L38.3996 33.2285L40.8656 29.4849L38.3996 25.7412L35.9336 29.4849Z" fill="#0082CB"/>
<path d="M33.4687 33.2285L31 36.9722H35.9347L33.4687 33.2285Z" fill="#0082CB"/>
<path d="M43.3332 33.2285L40.8672 36.9722H45.7992L43.3332 33.2285Z" fill="#0082CB"/>
<path d="M38.4007 33.229L35.9347 36.9727L33.4688 33.229L35.9347 29.4854L38.4007 33.229Z" fill="#00A0D8"/>
<path d="M38.4004 33.229L40.8664 36.9727L43.3324 33.229L40.8664 29.4854L38.4004 33.229Z" fill="#00A0D8"/>
<path d="M35.9336 29.4849L38.3996 33.2285L40.8656 29.4849L38.3996 25.7412L35.9336 29.4849Z" fill="#62B9E3"/>
<path d="M33.4687 33.2285L31 36.9722H35.9347L33.4687 33.2285Z" fill="#0082CB"/>
<path d="M43.3332 33.2285L40.8672 36.9722H45.7992L43.3332 33.2285Z" fill="#0082CB"/>
<path d="M45.7972 25.7437L43.3312 22L40.8652 25.7437H45.7972Z" fill="#62B9E3"/>
<path d="M40.8652 25.7441L43.3312 29.4878L45.7972 25.7441H40.8652Z" fill="#00A0D8"/>
<path d="M99.0498 89.0789V101.535H101.57V89.0789H99.0498ZM87.2178 102.639V110.727H101.57V102.639H87.2178ZM99.0978 104.631V108.711H89.6898V104.631H99.0978ZM89.7378 90.1589C86.3778 90.1589 83.9058 92.2709 83.9058 95.3429C83.9058 98.3669 86.3778 100.527 89.7378 100.527C93.0978 100.527 95.5458 98.3669 95.5458 95.3429C95.5458 92.2709 93.0978 90.1589 89.7378 90.1589ZM89.7378 92.2469C91.6818 92.2469 93.0978 93.4709 93.0978 95.3429C93.0978 97.2149 91.6818 98.4149 89.7378 98.4149C87.7938 98.4149 86.3538 97.2149 86.3538 95.3429C86.3538 93.4709 87.7938 92.2469 89.7378 92.2469Z" fill="#333333"/>
<path d="M110.852 100.191V105.039H113.372V100.191H110.852ZM120.524 89.0549V105.711H123.044V89.0549H120.524ZM107.708 108.519V110.559H123.548V108.519H107.708ZM107.708 104.103V109.071H110.228V104.103H107.708ZM105.092 101.031C109.052 101.031 114.284 100.935 118.988 100.167L118.82 98.3429C114.188 98.9429 108.788 98.9909 104.756 98.9909L105.092 101.031ZM116.204 101.919V103.695H121.124V101.919H116.204ZM111.86 89.8949C108.644 89.8949 106.436 91.4309 106.436 93.7589C106.436 96.0869 108.644 97.5989 111.86 97.5989C115.052 97.5989 117.284 96.0869 117.284 93.7589C117.284 91.4309 115.052 89.8949 111.86 89.8949ZM111.86 91.7429C113.636 91.7429 114.884 92.4869 114.884 93.7589C114.884 95.0069 113.636 95.7509 111.86 95.7509C110.06 95.7509 108.812 95.0069 108.812 93.7589C108.812 92.4869 110.06 91.7429 111.86 91.7429Z" fill="#333333"/>
<path d="M131.846 91.3109V92.8949C131.846 95.8469 129.902 98.7029 126.446 99.8789L127.742 101.823C131.654 100.503 133.934 96.9749 133.934 92.8949V91.3109H131.846ZM132.35 91.3109V92.8949C132.35 96.7829 134.63 100.167 138.494 101.439L139.766 99.4709C136.382 98.3669 134.414 95.7029 134.414 92.8949V91.3109H132.35ZM141.806 89.0549V102.303H144.326V89.0549H141.806ZM129.542 103.383V105.399H141.806V110.991H144.326V103.383H129.542ZM127.118 90.4709V92.4869H139.094V90.4709H127.118Z" fill="#333333"/>
<path d="M147.608 101.583V103.623H167.48V101.583H147.608ZM156.224 102.855V110.991H158.72V102.855H156.224ZM150.032 90.2069V98.8949H165.008V90.2069H150.032ZM162.536 92.1989V96.9029H152.504V92.1989H162.536Z" fill="#333333"/>
<path d="M88.7058 127.847V128.711C88.7058 131.471 86.8098 134.063 83.4498 135.095L84.6498 137.063C88.5378 135.839 90.7458 132.527 90.7458 128.711V127.847H88.7058ZM89.1618 127.847V128.711C89.1618 132.311 91.4658 135.383 95.4018 136.511L96.5298 134.543C93.1698 133.607 91.2258 131.231 91.2258 128.711V127.847H89.1618ZM84.0978 126.527V128.543H95.8338V126.527H84.0978ZM88.7058 123.959V127.295H91.2258V123.959H88.7058ZM95.1858 130.127V132.167H99.7938V130.127H95.1858ZM99.1458 124.055V137.327H101.666V124.055H99.1458ZM94.3458 137.807C89.7618 137.807 86.9538 139.295 86.9538 141.887C86.9538 144.455 89.7618 145.967 94.3458 145.967C98.9298 145.967 101.738 144.455 101.738 141.887C101.738 139.295 98.9298 137.807 94.3458 137.807ZM94.3458 139.751C97.4658 139.751 99.2418 140.495 99.2418 141.887C99.2418 143.255 97.4658 144.023 94.3458 144.023C91.2258 144.023 89.4498 143.255 89.4498 141.887C89.4498 140.495 91.2258 139.751 94.3458 139.751Z" fill="#333333"/>
<path d="M108.548 138.023V145.727H123.044V138.023H108.548ZM120.572 140.015V143.711H111.02V140.015H120.572ZM120.524 124.079V136.943H123.044V124.079H120.524ZM116.588 126.959V128.999H121.028V126.959H116.588ZM105.74 134.207V136.271H107.348C111.788 136.271 113.924 136.223 116.516 135.767L116.3 133.751C113.78 134.159 111.692 134.207 107.348 134.207H105.74ZM105.692 125.135V127.151H112.748V129.623H105.74V135.695H108.236V131.495H115.22V125.135H105.692ZM116.588 131.447V133.487H121.028V131.447H116.588Z" fill="#333333"/>
<path d="M128.678 125.375V127.415H142.406V125.375H128.678ZM126.254 134.879V136.919H146.078V134.879H126.254ZM131.054 136.247V145.991H133.574V136.247H131.054ZM140.966 125.375V126.911C140.966 128.879 140.966 131.543 140.198 135.287L142.694 135.479C143.438 131.615 143.438 128.927 143.438 126.911V125.375H140.966ZM138.59 136.247V145.991H141.11V136.247H138.59Z" fill="#333333"/>
<path d="M159.416 129.575V131.639H164V129.575H159.416ZM163.28 124.055V137.111H165.8V124.055H163.28ZM158.48 137.687C153.896 137.687 151.088 139.247 151.088 141.839C151.088 144.479 153.896 145.991 158.48 145.991C163.064 145.991 165.872 144.479 165.872 141.839C165.872 139.247 163.064 137.687 158.48 137.687ZM158.48 139.631C161.6 139.631 163.376 140.399 163.376 141.839C163.376 143.279 161.6 144.047 158.48 144.047C155.384 144.047 153.584 143.279 153.584 141.839C153.584 140.399 155.384 139.631 158.48 139.631ZM152.984 126.263V127.871C152.984 130.871 151.04 133.799 147.608 134.999L148.904 136.991C152.792 135.599 155.024 131.975 155.024 127.871V126.263H152.984ZM153.488 126.263V127.847C153.488 131.639 155.624 135.095 159.416 136.415L160.664 134.423C157.376 133.295 155.504 130.583 155.504 127.847V126.263H153.488ZM148.328 125.543V127.559H160.088V125.543H148.328Z" fill="#333333"/>
<defs>
<filter id="filter0_f_1294_1150" x="0" y="0" width="33" height="335.999" filterUnits="userSpaceOnUse" color-interpolation-filters="sRGB">
<feFlood flood-opacity="0" result="BackgroundImageFix"/>
<feBlend mode="normal" in="SourceGraphic" in2="BackgroundImageFix" result="shape"/>
<feGaussianBlur stdDeviation="5" result="effect1_foregroundBlur_1294_1150"/>
</filter>
<filter id="filter1_d_1294_1150" x="6" y="10" width="18" height="315" filterUnits="userSpaceOnUse" color-interpolation-filters="sRGB">
<feFlood flood-opacity="0" result="BackgroundImageFix"/>
<feColorMatrix in="SourceAlpha" type="matrix" values="0 0 0 0 0 0 0 0 0 0 0 0 0 0 0 0 0 0 127 0" result="hardAlpha"/>
<feOffset dx="1"/>
<feComposite in2="hardAlpha" operator="out"/>
<feColorMatrix type="matrix" values="0 0 0 0 0.917647 0 0 0 0 0.917647 0 0 0 0 0.917647 0 0 0 1 0"/>
<feBlend mode="normal" in2="BackgroundImageFix" result="effect1_dropShadow_1294_1150"/>
<feBlend mode="normal" in="SourceGraphic" in2="effect1_dropShadow_1294_1150" result="shape"/>
</filter>
</defs>
</svg>
