<?xml version="1.0" encoding="utf-8"?>
<!-- Generator: Adobe Illustrator 16.0.0, SVG Export Plug-In . SVG Version: 6.00 Build 0)  -->
<!DOCTYPE svg PUBLIC "-//W3C//DTD SVG 1.1//EN" "http://www.w3.org/Graphics/SVG/1.1/DTD/svg11.dtd">
<svg version="1.1" id="Layer_6" xmlns="http://www.w3.org/2000/svg" xmlns:xlink="http://www.w3.org/1999/xlink" x="0px" y="0px"
	 width="54.5px" height="44.833px" viewBox="0 0 54.5 44.833" enable-background="new 0 0 54.5 44.833" xml:space="preserve">
<g>
	<g>
		<g>
			<path fill="#FFFFFF" d="M1.921,35.084V5.207c0-1.786,1.448-3.234,3.234-3.234S8.39,3.421,8.39,5.207v2.734"/>
			<path fill="#9CA7C0" d="M1.921,36.084c-0.553,0-1-0.447-1-1V5.207c0-2.335,1.899-4.234,4.234-4.234S9.39,2.872,9.39,5.207v2.734
				c0,0.553-0.447,1-1,1s-1-0.447-1-1V5.207c0-1.232-1.002-2.234-2.234-2.234S2.921,3.975,2.921,5.207v29.877
				C2.921,35.637,2.474,36.084,1.921,36.084z"/>
		</g>
		<g>
			<path fill="#FFFFFF" d="M5.155,1.973h44.113c1.786,0,3.234,1.448,3.234,3.234v2.996"/>
			<path fill="#9CA7C0" d="M52.503,9.203c-0.553,0-1-0.447-1-1V5.207c0-1.232-1.002-2.234-2.234-2.234H5.155c-0.553,0-1-0.447-1-1
				s0.447-1,1-1h44.113c2.335,0,4.234,1.899,4.234,4.234v2.996C53.503,8.756,53.056,9.203,52.503,9.203z"/>
		</g>
		<g>
			<line fill="#FFFFFF" x1="5.155" y1="5.207" x2="5.155" y2="32.147"/>
			<path fill="#9CA7C0" d="M5.155,33.147c-0.553,0-1-0.447-1-1V5.207c0-0.553,0.447-1,1-1s1,0.447,1,1v26.94
				C6.155,32.7,5.708,33.147,5.155,33.147z"/>
		</g>
		<g>
			<polygon fill="#FFFFFF" points="8.39,7.156 8.39,35.084 39.526,35.084 47.207,42.764 47.207,35.084 52.503,35.084 52.503,7.156 
							"/>
			<path fill="#9CA7C0" d="M47.207,43.764c-0.26,0-0.516-0.102-0.707-0.293l-7.388-7.387H8.39c-0.553,0-1-0.447-1-1V7.156
				c0-0.553,0.447-1,1-1h44.113c0.553,0,1,0.447,1,1v27.928c0,0.553-0.447,1-1,1h-4.296v6.68c0,0.404-0.243,0.77-0.617,0.924
				C47.466,43.739,47.336,43.764,47.207,43.764z M9.39,34.084h30.137c0.266,0,0.52,0.105,0.707,0.293l5.974,5.973v-5.266
				c0-0.553,0.447-1,1-1h4.296V8.156H9.39V34.084z"/>
		</g>
	</g>
</g>
<g>
	<path fill="#9CA7C0" d="M25.54,24.569c-0.449,0.307-0.973,0.535-1.576,0.686c-0.602,0.148-1.221,0.223-1.854,0.223
		c-0.672,0-1.275-0.09-1.807-0.271s-0.982-0.461-1.352-0.834s-0.652-0.834-0.854-1.385s-0.301-1.199-0.301-1.947v-1.525
		c0-0.738,0.098-1.381,0.293-1.932c0.197-0.551,0.477-1.014,0.84-1.387c0.365-0.373,0.807-0.652,1.324-0.84s1.1-0.279,1.742-0.279
		c0.654,0,1.256,0.084,1.807,0.252s1.064,0.438,1.539,0.811l-0.713,1.121c-0.439-0.346-0.869-0.586-1.289-0.721
		c-0.42-0.137-0.867-0.203-1.344-0.203c-0.877,0-1.564,0.268-2.064,0.805s-0.75,1.389-0.75,2.555v1.162
		c0,1.166,0.27,2.018,0.807,2.555c0.535,0.537,1.258,0.805,2.162,0.805c0.383,0,0.744-0.035,1.086-0.104
		c0.34-0.07,0.645-0.172,0.916-0.303V20.97h-2.24V19.78h3.627V24.569z"/>
	<path fill="#9CA7C0" d="M31.013,20.075c0.289-0.318,0.518-0.594,0.686-0.826c0.168-0.234,0.295-0.441,0.379-0.623
		s0.137-0.346,0.16-0.49s0.035-0.283,0.035-0.414V17.61c0-0.4-0.156-0.717-0.469-0.945s-0.734-0.342-1.268-0.342
		c-0.186,0-0.375,0.02-0.566,0.063c-0.191,0.041-0.381,0.119-0.566,0.23c-0.188,0.111-0.369,0.264-0.547,0.455
		s-0.35,0.432-0.518,0.721l-1.064-0.686c0.121-0.215,0.271-0.441,0.449-0.68c0.176-0.238,0.395-0.457,0.65-0.658
		c0.256-0.199,0.561-0.365,0.91-0.496s0.758-0.195,1.225-0.195c0.514,0,0.967,0.063,1.357,0.188
		c0.393,0.127,0.723,0.303,0.988,0.525c0.266,0.225,0.467,0.492,0.602,0.805c0.135,0.314,0.203,0.652,0.203,1.016v0.141
		c0,0.551-0.145,1.068-0.434,1.553c-0.289,0.486-0.664,0.971-1.121,1.457l-3.15,3.359h5.068v1.205h-6.775v-1.162L31.013,20.075z"/>
	<path fill="#9CA7C0" d="M36.04,15.229h3.584c2.137,0,3.205,0.822,3.205,2.465v0.295c0,0.223-0.027,0.439-0.084,0.65
		c-0.057,0.209-0.146,0.404-0.273,0.58c-0.125,0.178-0.293,0.334-0.504,0.469c-0.209,0.137-0.465,0.242-0.762,0.316
		c0.615,0.094,1.117,0.326,1.504,0.699s0.582,0.91,0.582,1.609v0.352c0,0.83-0.266,1.48-0.791,1.953
		c-0.527,0.471-1.342,0.707-2.443,0.707H36.04V15.229z M37.425,16.421v3.066h1.793c0.344,0,0.654-0.02,0.93-0.057
		s0.508-0.111,0.693-0.225c0.188-0.111,0.33-0.266,0.428-0.461c0.098-0.197,0.146-0.453,0.146-0.771v-0.252
		c0-0.297-0.045-0.533-0.133-0.707c-0.09-0.172-0.229-0.303-0.42-0.391c-0.191-0.09-0.432-0.145-0.721-0.168
		s-0.631-0.035-1.023-0.035H37.425z M37.425,24.12h2.115c0.391,0,0.734-0.021,1.027-0.063c0.295-0.043,0.537-0.119,0.729-0.23
		c0.191-0.113,0.334-0.264,0.428-0.455c0.092-0.191,0.139-0.438,0.139-0.736v-0.307c0-0.309-0.041-0.57-0.125-0.785
		s-0.229-0.391-0.434-0.531s-0.477-0.24-0.813-0.301s-0.756-0.092-1.26-0.092h-1.807V24.12z"/>
</g>
</svg>
