<svg width="159" height="97" viewBox="0 0 159 97" fill="none" xmlns="http://www.w3.org/2000/svg">
<mask id="path-1-inside-1_54_4612" fill="white">
<path fill-rule="evenodd" clip-rule="evenodd" d="M43.3164 1C37.7936 1 33.3164 5.47715 33.3164 11V31.75C33.3164 37.2728 37.7936 41.75 43.3164 41.75H72.505L77.6256 51.9014L82.9738 41.75H112.189C117.712 41.75 122.189 37.2728 122.189 31.75V11C122.189 5.47715 117.712 1 112.189 1H43.3164Z"/>
</mask>
<path fill-rule="evenodd" clip-rule="evenodd" d="M43.3164 1C37.7936 1 33.3164 5.47715 33.3164 11V31.75C33.3164 37.2728 37.7936 41.75 43.3164 41.75H72.505L77.6256 51.9014L82.9738 41.75H112.189C117.712 41.75 122.189 37.2728 122.189 31.75V11C122.189 5.47715 117.712 1 112.189 1H43.3164Z" fill="white"/>
<path d="M72.505 41.75L74.2907 40.8493L73.7362 39.75H72.505V41.75ZM77.6256 51.9014L75.8399 52.8021L77.587 56.2655L79.3951 52.8336L77.6256 51.9014ZM82.9738 41.75V39.75H81.7669L81.2043 40.8178L82.9738 41.75ZM35.3164 11C35.3164 6.58172 38.8981 3 43.3164 3V-1C36.689 -1 31.3164 4.37258 31.3164 11H35.3164ZM35.3164 31.75V11H31.3164V31.75H35.3164ZM43.3164 39.75C38.8981 39.75 35.3164 36.1683 35.3164 31.75H31.3164C31.3164 38.3774 36.689 43.75 43.3164 43.75V39.75ZM72.505 39.75H43.3164V43.75H72.505V39.75ZM79.4113 51.0006L74.2907 40.8493L70.7193 42.6507L75.8399 52.8021L79.4113 51.0006ZM81.2043 40.8178L75.8562 50.9691L79.3951 52.8336L84.7432 42.6822L81.2043 40.8178ZM112.189 39.75H82.9738V43.75H112.189V39.75ZM120.189 31.75C120.189 36.1683 116.607 39.75 112.189 39.75V43.75C118.816 43.75 124.189 38.3774 124.189 31.75H120.189ZM120.189 11V31.75H124.189V11H120.189ZM112.189 3C116.607 3 120.189 6.58173 120.189 11H124.189C124.189 4.37258 118.816 -1 112.189 -1V3ZM43.3164 3H112.189V-1H43.3164V3Z" fill="url(#paint0_linear_54_4612)" mask="url(#path-1-inside-1_54_4612)"/>
<g clip-path="url(#clip0_54_4612)">
<path d="M28.28 52.7207H17.4766C16.8411 52.7207 16.3359 53.2258 16.3359 53.8613C16.3359 54.4968 16.8411 55.002 17.4766 55.002H28.28C28.9155 55.002 29.4206 54.4968 29.4206 53.8613C29.4206 53.2258 28.9155 52.7207 28.28 52.7207Z" fill="#CECECE"/>
<path d="M22.8701 47.3108C22.2346 47.3108 21.7295 47.8159 21.7295 48.4514V59.2549C21.7295 59.8904 22.2346 60.3955 22.8701 60.3955C23.5056 60.3955 24.0108 59.8904 24.0108 59.2549V48.4514C24.0108 47.8159 23.5056 47.3108 22.8701 47.3108Z" fill="#CECECE"/>
<path d="M31.4912 82.5077H24.3541C23.9304 82.5077 23.6045 82.8499 23.6045 83.2573C23.6045 83.6646 23.9467 84.0068 24.3541 84.0068H31.4912C31.9148 84.0068 32.2407 83.6646 32.2407 83.2573C32.2407 82.8499 31.8985 82.5077 31.4912 82.5077Z" fill="#CED8FA"/>
<path d="M27.9224 78.939C27.4987 78.939 27.1729 79.2812 27.1729 79.6885V86.8256C27.1729 87.2493 27.515 87.5752 27.9224 87.5752C28.3298 87.5752 28.672 87.233 28.672 86.8256V79.6885C28.672 79.2649 28.3298 78.939 27.9224 78.939Z" fill="#CED8FA"/>
<path d="M22.5781 92.2036H19.0095C18.7977 92.2036 18.6348 92.3665 18.6348 92.5783C18.6348 92.7902 18.7977 92.9531 19.0095 92.9531H22.5781C22.7899 92.9531 22.9529 92.7902 22.9529 92.5783C22.9529 92.3665 22.7899 92.2036 22.5781 92.2036Z" fill="#CED8FA"/>
<path d="M20.8015 90.4107C20.5897 90.4107 20.4268 90.5737 20.4268 90.7855V94.3703C20.4268 94.5822 20.5897 94.7451 20.8015 94.7451C21.0134 94.7451 21.1763 94.5822 21.1763 94.3703V90.8018C21.1763 90.59 21.0134 90.427 20.8015 90.427V90.4107Z" fill="#CED8FA"/>
<path d="M142.329 60.4774H135.192C134.768 60.4774 134.442 60.8196 134.442 61.227C134.442 61.6344 134.785 61.9766 135.192 61.9766H142.329C142.753 61.9766 143.079 61.6344 143.079 61.227C143.079 60.8196 142.736 60.4774 142.329 60.4774Z" fill="#CED8FA"/>
<path d="M138.76 56.9087C138.337 56.9087 138.011 57.2509 138.011 57.6583V64.7954C138.011 65.219 138.353 65.5449 138.76 65.5449C139.168 65.5449 139.51 65.2027 139.51 64.7954V57.6583C139.51 57.2346 139.168 56.9087 138.76 56.9087Z" fill="#CED8FA"/>
<path d="M133.416 70.1723H129.847C129.636 70.1723 129.473 70.3353 129.473 70.5471C129.473 70.7589 129.636 70.9219 129.847 70.9219H133.416C133.628 70.9219 133.791 70.7589 133.791 70.5471C133.791 70.3353 133.628 70.1723 133.416 70.1723Z" fill="#CED8FA"/>
<path d="M131.639 68.3801C131.428 68.3801 131.265 68.5431 131.265 68.7549V72.3235C131.265 72.5353 131.428 72.6982 131.639 72.6982C131.851 72.6982 132.014 72.5353 132.014 72.3235V68.7549C132.014 68.5431 131.851 68.3801 131.639 68.3801Z" fill="#CED8FA"/>
<g clip-path="url(#clip1_54_4612)">
<path d="M47.5881 77.5259C52.7212 77.5259 56.8823 73.3647 56.8823 68.2317C56.8823 63.0987 52.7212 58.9375 47.5881 58.9375C42.4551 58.9375 38.2939 63.0987 38.2939 68.2317C38.2939 73.3647 42.4551 77.5259 47.5881 77.5259Z" fill="white" stroke="url(#paint1_linear_54_4612)" stroke-width="2.5"/>
<path d="M47.589 77.5254C41.1783 77.5254 35.9746 82.7291 35.9746 89.1398H59.19C59.19 82.7291 53.9863 77.5254 47.5756 77.5254H47.589Z" fill="white"/>
<path d="M59.1896 90.0521H35.9742C35.4646 90.0521 35.0488 89.6363 35.0488 89.1267C35.0488 82.2198 40.6683 76.5869 47.5886 76.5869C54.509 76.5869 60.1284 82.2063 60.1284 89.1267C60.1284 89.6363 59.7127 90.0521 59.203 90.0521H59.1896ZM36.9264 88.2013H58.224C57.7546 82.7428 53.1544 78.4377 47.5752 78.4377C41.996 78.4377 37.3958 82.7428 36.9264 88.2013Z" fill="url(#paint2_linear_54_4612)" stroke="url(#paint3_linear_54_4612)"/>
<path d="M108.08 77.5259C113.213 77.5259 117.375 73.3647 117.375 68.2317C117.375 63.0987 113.213 58.9375 108.08 58.9375C102.947 58.9375 98.7861 63.0987 98.7861 68.2317C98.7861 73.3647 102.947 77.5259 108.08 77.5259Z" fill="white" stroke="url(#paint4_linear_54_4612)" stroke-width="2.5"/>
<path d="M108.081 77.5254C101.67 77.5254 96.4668 82.7291 96.4668 89.1398H119.682C119.682 82.7291 114.478 77.5254 108.068 77.5254H108.081Z" fill="white"/>
<path d="M119.682 90.0521H96.4664C95.9568 90.0521 95.541 89.6363 95.541 89.1267C95.541 82.2198 101.16 76.5869 108.081 76.5869C115.001 76.5869 120.621 82.2063 120.621 89.1267C120.621 89.6363 120.205 90.0521 119.695 90.0521H119.682ZM97.4186 88.2013H118.716C118.247 82.7428 113.647 78.4377 108.067 78.4377C102.488 78.4377 97.888 82.7428 97.4186 88.2013Z" fill="url(#paint5_linear_54_4612)" stroke="url(#paint6_linear_54_4612)"/>
<path d="M77.8421 76.0494C83.5803 76.0494 88.2321 71.3977 88.2321 65.6595C88.2321 59.9213 83.5803 55.2695 77.8421 55.2695C72.1039 55.2695 67.4521 59.9213 67.4521 65.6595C67.4521 71.3977 72.1039 76.0494 77.8421 76.0494Z" fill="white"/>
<path d="M77.8421 77.0689C71.5451 77.0689 66.4326 71.9414 66.4326 65.6595C66.4326 59.3775 71.5601 54.25 77.8421 54.25C84.124 54.25 89.2515 59.3775 89.2515 65.6595C89.2515 71.9414 84.124 77.0689 77.8421 77.0689ZM77.8421 56.304C72.6846 56.304 68.4866 60.502 68.4866 65.6595C68.4866 70.817 72.6846 75.0149 77.8421 75.0149C82.9996 75.0149 87.1975 70.817 87.1975 65.6595C87.1975 60.502 82.9996 56.304 77.8421 56.304Z" fill="url(#paint7_linear_54_4612)" stroke="url(#paint8_linear_54_4612)"/>
<path d="M77.8421 76.0498C70.6756 76.0498 64.8584 81.867 64.8584 89.0335H90.8108C90.8108 81.867 84.9936 76.0498 77.8271 76.0498H77.8421Z" fill="white"/>
<path d="M90.8261 90.0527H64.8587C64.289 90.0527 63.8242 89.5879 63.8242 89.0182C63.8242 81.2969 70.1062 75 77.8424 75C85.5787 75 91.8456 81.282 91.8456 89.0182C91.8456 89.5879 91.3808 90.0527 90.8111 90.0527H90.8261ZM65.9382 87.9837H89.7466C89.2219 81.8817 84.0794 77.069 77.8424 77.069C71.6054 77.069 66.4629 81.8817 65.9382 87.9837Z" fill="url(#paint9_linear_54_4612)" stroke="url(#paint10_linear_54_4612)" stroke-linejoin="round"/>
<path d="M77.8426 58.9434C74.1399 58.9434 71.127 61.9563 71.127 65.659C71.127 69.3617 74.1399 72.3747 77.8426 72.3747C81.5453 72.3747 84.5583 69.3617 84.5583 65.659C84.5583 61.9563 81.5453 58.9434 77.8426 58.9434Z" fill="#CED8FA"/>
<path d="M69.5625 85.9573H86.1221C85.3694 82.0664 81.9417 79.125 77.8423 79.125C73.7429 79.125 70.3152 82.0779 69.5625 85.9573Z" fill="#CED8FA"/>
<g clip-path="url(#clip2_54_4612)">
<path d="M108.88 23.2305V26.0005" stroke="#CECECE" stroke-linecap="round" stroke-linejoin="round"/>
<path d="M108.88 17.5V20.28" stroke="#CECECE" stroke-linecap="round" stroke-linejoin="round"/>
<path d="M107.399 21.75H104.629" stroke="#CECECE" stroke-linecap="round" stroke-linejoin="round"/>
<path d="M113.13 21.75H110.35" stroke="#CECECE" stroke-linecap="round" stroke-linejoin="round"/>
<path d="M102.34 32.2207V34.0707" stroke="#CECECE" stroke-linecap="round" stroke-linejoin="round"/>
<path d="M102.34 28.4004V30.2604" stroke="#CECECE" stroke-linecap="round" stroke-linejoin="round"/>
<path d="M101.35 31.2402H99.4996" stroke="#CECECE" stroke-linecap="round" stroke-linejoin="round"/>
<path d="M105.17 31.2402H103.32" stroke="#CECECE" stroke-linecap="round" stroke-linejoin="round"/>
</g>
<path d="M87.1378 24.3022C86.8021 17.2189 79.0389 8.8361 78.7119 8.48323L77.8426 7.55371L76.9734 8.48323C76.6463 8.8361 68.8745 17.2189 68.5475 24.3022L68.5303 24.7669C68.5303 29.8104 72.7045 33.9071 77.8426 33.9071C82.9808 33.9071 87.1464 29.8018 87.1464 24.7669C87.1464 24.612 87.1464 24.4571 87.1292 24.2936L87.1378 24.3022Z" fill="white" stroke="url(#paint11_linear_54_4612)" stroke-width="1.5"/>
<path d="M77.8428 34.5612C72.3604 34.5612 67.8936 30.1718 67.8936 24.7755L67.9108 24.2935C68.255 16.9779 76.1731 8.41433 76.5088 8.05285L77.378 7.12334C77.619 6.86514 78.0666 6.86514 78.3075 7.12334L79.1768 8.05285C79.5125 8.41433 87.4306 16.9693 87.7748 24.2763C87.7834 24.4484 87.792 24.6206 87.792 24.7841C87.792 30.1804 83.3338 34.5698 77.8428 34.5698V34.5612ZM77.8428 8.5004L77.4383 8.93073C77.1112 9.27499 69.503 17.5029 69.1845 24.3452L69.1673 24.8013C69.1673 29.4747 73.0575 33.2874 77.8428 33.2874C82.6281 33.2874 86.5096 29.4747 86.5096 24.7841C86.5096 24.6464 86.5096 24.5001 86.4924 24.3452C86.174 17.4943 78.5657 9.27499 78.2387 8.93073L77.8342 8.5004H77.8428Z" fill="url(#paint12_linear_54_4612)" stroke="url(#paint13_linear_54_4612)" stroke-width="1.5"/>
<path d="M85.1494 24.3967C84.8998 19.0865 79.6239 12.5627 77.8424 10.4971C75.1227 13.5954 70.7677 19.6717 70.544 24.3967V24.8357C70.5354 28.7173 73.8145 31.9275 77.851 31.9275C81.8875 31.9275 85.1666 28.7173 85.1666 24.7754C85.1666 24.6549 85.1666 24.5431 85.158 24.414V24.3967H85.1494Z" fill="#CED8FA"/>
</g>
<path d="M126.441 52.7207H115.638C115.002 52.7207 114.497 53.2258 114.497 53.8613C114.497 54.4968 115.002 55.002 115.638 55.002H126.441C127.077 55.002 127.582 54.4968 127.582 53.8613C127.582 53.2258 127.077 52.7207 126.441 52.7207Z" fill="#CECECE"/>
<path d="M121.048 47.3108C120.412 47.3108 119.907 47.8159 119.907 48.4514V59.2549C119.907 59.8904 120.412 60.3955 121.048 60.3955C121.683 60.3955 122.188 59.8904 122.188 59.2549V48.4514C122.188 47.8159 121.683 47.3108 121.048 47.3108Z" fill="#CECECE"/>
</g>
<g clip-path="url(#clip3_54_4612)">
<path d="M47.75 20.2969V23.0669" stroke="#CECECE" stroke-linecap="round" stroke-linejoin="round"/>
<path d="M47.75 14.5664V17.3464" stroke="#CECECE" stroke-linecap="round" stroke-linejoin="round"/>
<path d="M49.2305 18.8164H52.0005" stroke="#CECECE" stroke-linecap="round" stroke-linejoin="round"/>
<path d="M43.5 18.8164H46.28" stroke="#CECECE" stroke-linecap="round" stroke-linejoin="round"/>
<path d="M54.29 29.2871V31.1371" stroke="#CECECE" stroke-linecap="round" stroke-linejoin="round"/>
<path d="M54.29 25.4668V27.3268" stroke="#CECECE" stroke-linecap="round" stroke-linejoin="round"/>
<path d="M55.2803 28.3066H57.1303" stroke="#CECECE" stroke-linecap="round" stroke-linejoin="round"/>
<path d="M51.46 28.3066H53.31" stroke="#CECECE" stroke-linecap="round" stroke-linejoin="round"/>
</g>
<defs>
<linearGradient id="paint0_linear_54_4612" x1="77.7527" y1="-53.7603" x2="77.7527" y2="47.6596" gradientUnits="userSpaceOnUse">
<stop offset="0.416667" stop-color="#7A98FF"/>
<stop offset="1" stop-color="#1A4CFB"/>
</linearGradient>
<linearGradient id="paint1_linear_54_4612" x1="47.5881" y1="38.9399" x2="47.5881" y2="75.9769" gradientUnits="userSpaceOnUse">
<stop offset="0.416667" stop-color="#7A98FF"/>
<stop offset="1" stop-color="#1A4CFB"/>
</linearGradient>
<linearGradient id="paint2_linear_54_4612" x1="47.5886" y1="62.1009" x2="47.5886" y2="88.93" gradientUnits="userSpaceOnUse">
<stop offset="0.416667" stop-color="#7A98FF"/>
<stop offset="1" stop-color="#1A4CFB"/>
</linearGradient>
<linearGradient id="paint3_linear_54_4612" x1="47.5886" y1="62.1009" x2="47.5886" y2="88.93" gradientUnits="userSpaceOnUse">
<stop offset="0.416667" stop-color="#7A98FF"/>
<stop offset="1" stop-color="#1A4CFB"/>
</linearGradient>
<linearGradient id="paint4_linear_54_4612" x1="108.08" y1="38.9399" x2="108.08" y2="75.9769" gradientUnits="userSpaceOnUse">
<stop offset="0.416667" stop-color="#7A98FF"/>
<stop offset="1" stop-color="#1A4CFB"/>
</linearGradient>
<linearGradient id="paint5_linear_54_4612" x1="108.081" y1="62.1009" x2="108.081" y2="88.93" gradientUnits="userSpaceOnUse">
<stop offset="0.416667" stop-color="#7A98FF"/>
<stop offset="1" stop-color="#1A4CFB"/>
</linearGradient>
<linearGradient id="paint6_linear_54_4612" x1="108.081" y1="62.1009" x2="108.081" y2="88.93" gradientUnits="userSpaceOnUse">
<stop offset="0.416667" stop-color="#7A98FF"/>
<stop offset="1" stop-color="#1A4CFB"/>
</linearGradient>
<linearGradient id="paint7_linear_54_4612" x1="77.8421" y1="29.7011" x2="77.8421" y2="75.1674" gradientUnits="userSpaceOnUse">
<stop offset="0.416667" stop-color="#7A98FF"/>
<stop offset="1" stop-color="#1A4CFB"/>
</linearGradient>
<linearGradient id="paint8_linear_54_4612" x1="77.8421" y1="29.7011" x2="77.8421" y2="75.1674" gradientUnits="userSpaceOnUse">
<stop offset="0.416667" stop-color="#7A98FF"/>
<stop offset="1" stop-color="#1A4CFB"/>
</linearGradient>
<linearGradient id="paint9_linear_54_4612" x1="77.8349" y1="58.8061" x2="77.8349" y2="88.7983" gradientUnits="userSpaceOnUse">
<stop offset="0.416667" stop-color="#7A98FF"/>
<stop offset="1" stop-color="#1A4CFB"/>
</linearGradient>
<linearGradient id="paint10_linear_54_4612" x1="77.8349" y1="58.8061" x2="77.8349" y2="88.7983" gradientUnits="userSpaceOnUse">
<stop offset="0.416667" stop-color="#7A98FF"/>
<stop offset="1" stop-color="#1A4CFB"/>
</linearGradient>
<linearGradient id="paint11_linear_54_4612" x1="77.8383" y1="-20.7976" x2="77.8383" y2="31.711" gradientUnits="userSpaceOnUse">
<stop offset="0.416667" stop-color="#7A98FF"/>
<stop offset="1" stop-color="#1A4CFB"/>
</linearGradient>
<linearGradient id="paint12_linear_54_4612" x1="77.8428" y1="-22.8059" x2="77.8428" y2="32.2665" gradientUnits="userSpaceOnUse">
<stop offset="0.416667" stop-color="#7A98FF"/>
<stop offset="1" stop-color="#1A4CFB"/>
</linearGradient>
<linearGradient id="paint13_linear_54_4612" x1="77.8428" y1="-22.8059" x2="77.8428" y2="32.2665" gradientUnits="userSpaceOnUse">
<stop offset="0.416667" stop-color="#7A98FF"/>
<stop offset="1" stop-color="#1A4CFB"/>
</linearGradient>
<clipPath id="clip0_54_4612">
<rect width="127.395" height="94" fill="white" transform="matrix(1 0 0 -1 16 95)"/>
</clipPath>
<clipPath id="clip1_54_4612">
<rect width="89.0526" height="89.0526" fill="white" transform="translate(33.3154 1)"/>
</clipPath>
<clipPath id="clip2_54_4612">
<rect width="14.63" height="17.57" fill="white" transform="matrix(-1 0 0 1 113.63 17)"/>
</clipPath>
<clipPath id="clip3_54_4612">
<rect width="14.63" height="17.57" fill="white" transform="translate(43 14.0664)"/>
</clipPath>
</defs>
</svg>
