<svg width="159" height="97" viewBox="0 0 159 97" fill="none" xmlns="http://www.w3.org/2000/svg">
<path d="M45.8066 11.2852V15.9788" stroke="#CECECE" stroke-linecap="round" stroke-linejoin="round"/>
<path d="M45.8066 1.63281V6.31384" stroke="#CECECE" stroke-linecap="round" stroke-linejoin="round"/>
<path d="M48.2861 8.80664H52.9798" stroke="#CECECE" stroke-linecap="round" stroke-linejoin="round"/>
<path d="M38.6328 8.80664H43.3138" stroke="#CECECE" stroke-linecap="round" stroke-linejoin="round"/>
<path d="M62.9795 31.2383V34.7554" stroke="#CECECE" stroke-linecap="round" stroke-linejoin="round"/>
<path d="M62.9795 23.9883V27.5054" stroke="#CECECE" stroke-linecap="round" stroke-linejoin="round"/>
<path d="M64.8389 29.377H68.356" stroke="#CECECE" stroke-linecap="round" stroke-linejoin="round"/>
<path d="M57.6025 29.377H61.107" stroke="#CECECE" stroke-linecap="round" stroke-linejoin="round"/>
<path d="M127.957 56.459V59.9761" stroke="#CECECE" stroke-linecap="round" stroke-linejoin="round"/>
<path d="M127.957 49.2227V52.7397" stroke="#CECECE" stroke-linecap="round" stroke-linejoin="round"/>
<path d="M129.816 54.5996H133.333" stroke="#CECECE" stroke-linecap="round" stroke-linejoin="round"/>
<path d="M122.567 54.5996H126.084" stroke="#CECECE" stroke-linecap="round" stroke-linejoin="round"/>
<path d="M118.228 74.3906V76.7311" stroke="#CED8FA" stroke-linecap="round" stroke-linejoin="round"/>
<path d="M118.228 69.5586V71.9118" stroke="#CED8FA" stroke-linecap="round" stroke-linejoin="round"/>
<path d="M119.48 73.1523H121.821" stroke="#CED8FA" stroke-linecap="round" stroke-linejoin="round"/>
<path d="M114.647 73.1523H116.988" stroke="#CED8FA" stroke-linecap="round" stroke-linejoin="round"/>
<path d="M114.103 35.2268C113.751 27.795 105.606 18.9998 105.263 18.6295L104.351 17.6543L103.439 18.6295C103.095 18.9998 94.9413 27.795 94.5981 35.2268L94.5801 35.7144C94.5801 41.006 98.9597 45.3043 104.351 45.3043C109.742 45.3043 114.112 40.997 114.112 35.7144C114.112 35.5519 114.112 35.3893 114.094 35.2177L114.103 35.2268Z" fill="white" stroke="url(#paint0_linear_121_5984)"/>
<path d="M104.351 45.991C98.5987 45.991 93.9121 41.3856 93.9121 35.7238L93.9302 35.2181C94.2914 27.5426 102.599 18.5577 102.951 18.1784L103.863 17.2032C104.116 16.9323 104.586 16.9323 104.838 17.2032L105.751 18.1784C106.103 18.5577 114.41 27.5336 114.772 35.2001C114.781 35.3807 114.79 35.5613 114.79 35.7328C114.79 41.3947 110.112 46 104.351 46V45.991ZM104.351 18.648L103.926 19.0995C103.583 19.4607 95.6007 28.0934 95.2666 35.2723L95.2486 35.7509C95.2486 40.6542 99.3301 44.6545 104.351 44.6545C109.372 44.6545 113.444 40.6542 113.444 35.7328C113.444 35.5884 113.444 35.4348 113.426 35.2723C113.092 28.0844 105.109 19.4607 104.766 19.0995L104.342 18.648H104.351Z" fill="url(#paint1_linear_121_5984)" stroke="url(#paint2_linear_121_5984)"/>
<g clip-path="url(#clip0_121_5984)">
<path d="M29.0436 53.9141H22.5215V57.7505H29.0436V53.9141Z" stroke="url(#paint3_linear_121_5984)" stroke-width="1.5" stroke-linecap="round" stroke-linejoin="round"/>
<path d="M33.9038 66.4496L29.0437 58.0996H22.5873L17.6973 66.3154L33.9038 66.4496Z" fill="#EDF2FF" stroke="url(#paint4_linear_121_5984)" stroke-width="1.5" stroke-linecap="round" stroke-linejoin="round"/>
<path d="M33.8801 86.1562H17.7393V94.0854H33.8801V86.1562Z" fill="#EDF2FF" stroke="url(#paint5_linear_121_5984)" stroke-width="1.5" stroke-linecap="round" stroke-linejoin="round"/>
<path d="M33.8801 66.0273H17.7393V74.5664H33.8801V66.0273Z" fill="#EDF2FF" stroke="url(#paint6_linear_121_5984)" stroke-width="1.5" stroke-linecap="round" stroke-linejoin="round"/>
<path d="M33.2821 74.5664H18.3369V86.1551H33.2821V74.5664Z" fill="#EDF2FF" stroke="url(#paint7_linear_121_5984)" stroke-width="1.5" stroke-linecap="round" stroke-linejoin="round"/>
</g>
<g clip-path="url(#clip1_121_5984)">
<path d="M52.0436 53.9141H45.5215V57.7505H52.0436V53.9141Z" stroke="url(#paint8_linear_121_5984)" stroke-width="1.5" stroke-linecap="round" stroke-linejoin="round"/>
<path d="M56.9038 66.4496L52.0437 58.0996H45.5873L40.6973 66.3154L56.9038 66.4496Z" fill="#EDF2FF" stroke="url(#paint9_linear_121_5984)" stroke-width="1.5" stroke-linecap="round" stroke-linejoin="round"/>
<path d="M56.8801 86.1562H40.7393V94.0854H56.8801V86.1562Z" fill="#EDF2FF" stroke="url(#paint10_linear_121_5984)" stroke-width="1.5" stroke-linecap="round" stroke-linejoin="round"/>
<path d="M56.8801 66.0273H40.7393V74.5664H56.8801V66.0273Z" fill="#EDF2FF" stroke="url(#paint11_linear_121_5984)" stroke-width="1.5" stroke-linecap="round" stroke-linejoin="round"/>
<path d="M56.2821 74.5664H41.3369V86.1551H56.2821V74.5664Z" fill="#EDF2FF" stroke="url(#paint12_linear_121_5984)" stroke-width="1.5" stroke-linecap="round" stroke-linejoin="round"/>
</g>
<g clip-path="url(#clip2_121_5984)">
<path d="M114.268 56.8848C112.6 54.7518 109.509 54.3806 107.415 56.0205L99.5973 61.7492C98.8161 60.0649 97.1152 58.8904 95.1429 58.8904H84.7049C84.2894 58.9015 74.9374 59.2228 70.0508 67.6164C69.5023 67.0845 68.627 67.09 68.084 67.633L62.3221 73.3894C62.0617 73.6498 61.9121 74.0099 61.9121 74.3811C61.9121 74.7523 62.0617 75.1124 62.3221 75.3728L73.8404 86.8911C74.1008 87.1515 74.4609 87.3011 74.8321 87.3011C75.2033 87.3011 75.5579 87.1515 75.8238 86.8911L81.5802 81.1347C82.1287 80.5862 82.1287 79.6998 81.5802 79.1513L80.6439 78.215H91.6303C98.1956 78.215 103.271 72.8741 103.93 72.1539L113.459 63.7548C115.559 62.0816 115.919 59.0123 114.262 56.8903L114.268 56.8848ZM74.8321 83.916L65.2972 74.3811L69.0702 70.6081L78.6051 80.143L74.8321 83.9215V83.916ZM111.697 61.5664C111.697 61.5664 111.653 61.5996 111.636 61.6162L102.018 70.0929C101.974 70.1317 101.935 70.176 101.897 70.2148C101.852 70.2646 97.2427 75.395 91.6359 75.395H78.2893C78.1563 75.395 78.0289 75.4227 77.9014 75.4559L72.1118 69.6663C76.0842 62.0207 84.4113 61.6938 84.7326 61.6827H95.1373C96.2953 61.6827 97.2427 62.6246 97.2427 63.788C97.2427 64.9515 96.3008 65.8933 95.1373 65.8933H84.7271C83.9515 65.8933 83.3254 66.5194 83.3254 67.295C83.3254 68.0707 83.9515 68.6967 84.7271 68.6967H95.1373C97.431 68.6967 99.3591 67.1122 99.8909 64.9792C99.9242 64.957 99.9574 64.9459 99.9907 64.9238L109.099 58.2477C110.013 57.533 111.337 57.6937 112.052 58.6078C112.767 59.522 112.606 60.8461 111.692 61.5608L111.697 61.5664Z" fill="url(#paint13_linear_121_5984)"/>
</g>
<path d="M104.201 39.5376C103.708 29.1255 92.296 16.803 91.8153 16.2843L90.5375 14.918L89.2597 16.2843C88.7789 16.803 77.3547 29.1255 76.8739 39.5376L76.8486 40.2208C76.8486 47.6345 82.9846 53.6566 90.5375 53.6566C98.0904 53.6566 104.214 47.6219 104.214 40.2208C104.214 39.9931 104.214 39.7653 104.188 39.525L104.201 39.5376Z" fill="white" stroke="url(#paint14_linear_121_5984)"/>
<path d="M90.5371 54.6174C82.4782 54.6174 75.9121 48.1651 75.9121 40.2327L75.9374 39.5242C76.4435 28.7705 88.0828 16.1824 88.5762 15.651L89.854 14.2847C90.2082 13.9051 90.8661 13.9051 91.2203 14.2847L92.4981 15.651C92.9915 16.1824 104.631 28.7579 105.137 39.4989C105.15 39.752 105.162 40.005 105.162 40.2454C105.162 48.1778 98.6087 54.63 90.5371 54.63V54.6174ZM90.5371 16.3089L89.9425 16.9415C89.4618 17.4475 78.2779 29.5423 77.8098 39.6001L77.7845 40.2707C77.7845 47.1404 83.503 52.745 90.5371 52.745C97.5713 52.745 103.277 47.1404 103.277 40.2454C103.277 40.0429 103.277 39.8279 103.252 39.6001C102.784 29.5296 91.5999 17.4475 91.1191 16.9415L90.5245 16.3089H90.5371Z" fill="url(#paint15_linear_121_5984)" stroke="url(#paint16_linear_121_5984)"/>
<path d="M101.278 39.6762C100.911 31.8703 93.1559 22.2805 90.537 19.2441C86.5392 23.7986 80.1376 32.7305 79.8086 39.6762V40.3214C79.796 46.0272 84.6162 50.7462 90.5497 50.7462C96.4832 50.7462 101.303 46.0272 101.303 40.2328C101.303 40.0557 101.303 39.8912 101.291 39.7015V39.6762H101.278Z" fill="#CED8FA"/>
<defs>
<linearGradient id="paint0_linear_121_5984" x1="104.346" y1="-12.0919" x2="104.346" y2="43.0001" gradientUnits="userSpaceOnUse">
<stop offset="0.416667" stop-color="#7A98FF"/>
<stop offset="1" stop-color="#1A4CFB"/>
</linearGradient>
<linearGradient id="paint1_linear_121_5984" x1="104.351" y1="-14.1986" x2="104.351" y2="43.5833" gradientUnits="userSpaceOnUse">
<stop offset="0.416667" stop-color="#7A98FF"/>
<stop offset="1" stop-color="#1A4CFB"/>
</linearGradient>
<linearGradient id="paint2_linear_121_5984" x1="104.351" y1="-14.1986" x2="104.351" y2="43.5833" gradientUnits="userSpaceOnUse">
<stop offset="0.416667" stop-color="#7A98FF"/>
<stop offset="1" stop-color="#1A4CFB"/>
</linearGradient>
<linearGradient id="paint3_linear_121_5984" x1="25.7825" y1="49.7867" x2="25.7825" y2="57.4308" gradientUnits="userSpaceOnUse">
<stop offset="0.416667" stop-color="#7A98FF"/>
<stop offset="1" stop-color="#1A4CFB"/>
</linearGradient>
<linearGradient id="paint4_linear_121_5984" x1="25.8006" y1="49.1166" x2="25.8006" y2="65.7538" gradientUnits="userSpaceOnUse">
<stop offset="0.416667" stop-color="#7A98FF"/>
<stop offset="1" stop-color="#1A4CFB"/>
</linearGradient>
<linearGradient id="paint5_linear_121_5984" x1="25.8097" y1="77.626" x2="25.8097" y2="93.4246" gradientUnits="userSpaceOnUse">
<stop offset="0.416667" stop-color="#7A98FF"/>
<stop offset="1" stop-color="#1A4CFB"/>
</linearGradient>
<linearGradient id="paint6_linear_121_5984" x1="25.8097" y1="56.8409" x2="25.8097" y2="73.8548" gradientUnits="userSpaceOnUse">
<stop offset="0.416667" stop-color="#7A98FF"/>
<stop offset="1" stop-color="#1A4CFB"/>
</linearGradient>
<linearGradient id="paint7_linear_121_5984" x1="25.8095" y1="62.0991" x2="25.8095" y2="85.1894" gradientUnits="userSpaceOnUse">
<stop offset="0.416667" stop-color="#7A98FF"/>
<stop offset="1" stop-color="#1A4CFB"/>
</linearGradient>
<linearGradient id="paint8_linear_121_5984" x1="48.7825" y1="49.7867" x2="48.7825" y2="57.4308" gradientUnits="userSpaceOnUse">
<stop offset="0.416667" stop-color="#7A98FF"/>
<stop offset="1" stop-color="#1A4CFB"/>
</linearGradient>
<linearGradient id="paint9_linear_121_5984" x1="48.8006" y1="49.1166" x2="48.8006" y2="65.7538" gradientUnits="userSpaceOnUse">
<stop offset="0.416667" stop-color="#7A98FF"/>
<stop offset="1" stop-color="#1A4CFB"/>
</linearGradient>
<linearGradient id="paint10_linear_121_5984" x1="48.8097" y1="77.626" x2="48.8097" y2="93.4246" gradientUnits="userSpaceOnUse">
<stop offset="0.416667" stop-color="#7A98FF"/>
<stop offset="1" stop-color="#1A4CFB"/>
</linearGradient>
<linearGradient id="paint11_linear_121_5984" x1="48.8097" y1="56.8409" x2="48.8097" y2="73.8548" gradientUnits="userSpaceOnUse">
<stop offset="0.416667" stop-color="#7A98FF"/>
<stop offset="1" stop-color="#1A4CFB"/>
</linearGradient>
<linearGradient id="paint12_linear_121_5984" x1="48.8095" y1="62.0991" x2="48.8095" y2="85.1894" gradientUnits="userSpaceOnUse">
<stop offset="0.416667" stop-color="#7A98FF"/>
<stop offset="1" stop-color="#1A4CFB"/>
</linearGradient>
<linearGradient id="paint13_linear_121_5984" x1="88.6076" y1="20.2501" x2="88.6076" y2="84.6093" gradientUnits="userSpaceOnUse">
<stop offset="0.416667" stop-color="#7A98FF"/>
<stop offset="1" stop-color="#1A4CFB"/>
</linearGradient>
<linearGradient id="paint14_linear_121_5984" x1="90.5311" y1="-26.7575" x2="90.5311" y2="50.4284" gradientUnits="userSpaceOnUse">
<stop offset="0.416667" stop-color="#7A98FF"/>
<stop offset="1" stop-color="#1A4CFB"/>
</linearGradient>
<linearGradient id="paint15_linear_121_5984" x1="90.5371" y1="-29.7103" x2="90.5371" y2="51.2442" gradientUnits="userSpaceOnUse">
<stop offset="0.416667" stop-color="#7A98FF"/>
<stop offset="1" stop-color="#1A4CFB"/>
</linearGradient>
<linearGradient id="paint16_linear_121_5984" x1="90.5371" y1="-29.7103" x2="90.5371" y2="51.2442" gradientUnits="userSpaceOnUse">
<stop offset="0.416667" stop-color="#7A98FF"/>
<stop offset="1" stop-color="#1A4CFB"/>
</linearGradient>
<clipPath id="clip0_121_5984">
<rect width="18" height="42" fill="white" transform="translate(16.8008 53)"/>
</clipPath>
<clipPath id="clip1_121_5984">
<rect width="18" height="42" fill="white" transform="translate(39.8008 53)"/>
</clipPath>
<clipPath id="clip2_121_5984">
<rect width="53.3975" height="32.3" fill="white" transform="translate(61.9121 55)"/>
</clipPath>
</defs>
</svg>
