<svg width="159" height="97" viewBox="0 0 159 97" fill="none" xmlns="http://www.w3.org/2000/svg">
<mask id="path-1-inside-1_54_4614" fill="white">
<path fill-rule="evenodd" clip-rule="evenodd" d="M43.3164 2C37.7936 2 33.3164 6.47715 33.3164 12V32.75C33.3164 38.2728 37.7936 42.75 43.3164 42.75H72.505L77.6256 52.9014L82.9738 42.75H112.189C117.712 42.75 122.189 38.2728 122.189 32.75V12C122.189 6.47715 117.712 2 112.189 2H43.3164Z"/>
</mask>
<path fill-rule="evenodd" clip-rule="evenodd" d="M43.3164 2C37.7936 2 33.3164 6.47715 33.3164 12V32.75C33.3164 38.2728 37.7936 42.75 43.3164 42.75H72.505L77.6256 52.9014L82.9738 42.75H112.189C117.712 42.75 122.189 38.2728 122.189 32.75V12C122.189 6.47715 117.712 2 112.189 2H43.3164Z" fill="white"/>
<path d="M72.505 42.75L74.2907 41.8493L73.7362 40.75H72.505V42.75ZM77.6256 52.9014L75.8399 53.8021L77.587 57.2655L79.3951 53.8336L77.6256 52.9014ZM82.9738 42.75V40.75H81.7669L81.2043 41.8178L82.9738 42.75ZM35.3164 12C35.3164 7.58172 38.8981 4 43.3164 4V0C36.689 0 31.3164 5.37258 31.3164 12H35.3164ZM35.3164 32.75V12H31.3164V32.75H35.3164ZM43.3164 40.75C38.8981 40.75 35.3164 37.1683 35.3164 32.75H31.3164C31.3164 39.3774 36.689 44.75 43.3164 44.75V40.75ZM72.505 40.75H43.3164V44.75H72.505V40.75ZM79.4113 52.0006L74.2907 41.8493L70.7193 43.6507L75.8399 53.8021L79.4113 52.0006ZM81.2043 41.8178L75.8562 51.9691L79.3951 53.8336L84.7432 43.6822L81.2043 41.8178ZM112.189 40.75H82.9738V44.75H112.189V40.75ZM120.189 32.75C120.189 37.1683 116.607 40.75 112.189 40.75V44.75C118.816 44.75 124.189 39.3774 124.189 32.75H120.189ZM120.189 12V32.75H124.189V12H120.189ZM112.189 4C116.607 4 120.189 7.58173 120.189 12H124.189C124.189 5.37258 118.816 0 112.189 0V4ZM43.3164 4H112.189V0H43.3164V4Z" fill="url(#paint0_linear_54_4614)" mask="url(#path-1-inside-1_54_4614)"/>
<g clip-path="url(#clip0_54_4614)">
<path d="M28.28 53.7207H17.4766C16.8411 53.7207 16.3359 54.2258 16.3359 54.8613C16.3359 55.4968 16.8411 56.002 17.4766 56.002H28.28C28.9155 56.002 29.4206 55.4968 29.4206 54.8613C29.4206 54.2258 28.9155 53.7207 28.28 53.7207Z" fill="#CECECE"/>
<path d="M22.8701 48.3108C22.2346 48.3108 21.7295 48.8159 21.7295 49.4514V60.2549C21.7295 60.8904 22.2346 61.3955 22.8701 61.3955C23.5056 61.3955 24.0108 60.8904 24.0108 60.2549V49.4514C24.0108 48.8159 23.5056 48.3108 22.8701 48.3108Z" fill="#CECECE"/>
<path d="M31.4912 83.5077H24.3541C23.9304 83.5077 23.6045 83.8499 23.6045 84.2573C23.6045 84.6646 23.9467 85.0068 24.3541 85.0068H31.4912C31.9148 85.0068 32.2407 84.6646 32.2407 84.2573C32.2407 83.8499 31.8985 83.5077 31.4912 83.5077Z" fill="#FFD8A8"/>
<path d="M27.9224 79.939C27.4987 79.939 27.1729 80.2812 27.1729 80.6885V87.8256C27.1729 88.2493 27.515 88.5752 27.9224 88.5752C28.3298 88.5752 28.672 88.233 28.672 87.8256V80.6885C28.672 80.2649 28.3298 79.939 27.9224 79.939Z" fill="#FFD8A8"/>
<path d="M22.5781 93.2036H19.0095C18.7977 93.2036 18.6348 93.3665 18.6348 93.5783C18.6348 93.7902 18.7977 93.9531 19.0095 93.9531H22.5781C22.7899 93.9531 22.9529 93.7902 22.9529 93.5783C22.9529 93.3665 22.7899 93.2036 22.5781 93.2036Z" fill="#FFD8A8"/>
<path d="M20.8015 91.4107C20.5897 91.4107 20.4268 91.5737 20.4268 91.7855V95.3703C20.4268 95.5822 20.5897 95.7451 20.8015 95.7451C21.0134 95.7451 21.1763 95.5822 21.1763 95.3703V91.8018C21.1763 91.59 21.0134 91.427 20.8015 91.427V91.4107Z" fill="#FFD8A8"/>
<path d="M142.329 61.4774H135.192C134.768 61.4774 134.442 61.8196 134.442 62.227C134.442 62.6344 134.785 62.9766 135.192 62.9766H142.329C142.753 62.9766 143.079 62.6344 143.079 62.227C143.079 61.8196 142.736 61.4774 142.329 61.4774Z" fill="#FFD8A8"/>
<path d="M138.76 57.9087C138.337 57.9087 138.011 58.2509 138.011 58.6583V65.7954C138.011 66.219 138.353 66.5449 138.76 66.5449C139.168 66.5449 139.51 66.2027 139.51 65.7954V58.6583C139.51 58.2346 139.168 57.9087 138.76 57.9087Z" fill="#FFD8A8"/>
<path d="M133.416 71.1723H129.847C129.636 71.1723 129.473 71.3353 129.473 71.5471C129.473 71.7589 129.636 71.9219 129.847 71.9219H133.416C133.628 71.9219 133.791 71.7589 133.791 71.5471C133.791 71.3353 133.628 71.1723 133.416 71.1723Z" fill="#FFD8A8"/>
<path d="M131.639 69.3801C131.428 69.3801 131.265 69.5431 131.265 69.7549V73.3235C131.265 73.5353 131.428 73.6982 131.639 73.6982C131.851 73.6982 132.014 73.5353 132.014 73.3235V69.7549C132.014 69.5431 131.851 69.3801 131.639 69.3801Z" fill="#FFD8A8"/>
<g clip-path="url(#clip1_54_4614)">
<path d="M47.5881 78.5259C52.7212 78.5259 56.8823 74.3647 56.8823 69.2317C56.8823 64.0987 52.7212 59.9375 47.5881 59.9375C42.4551 59.9375 38.2939 64.0987 38.2939 69.2317C38.2939 74.3647 42.4551 78.5259 47.5881 78.5259Z" fill="white" stroke="url(#paint1_linear_54_4614)" stroke-width="2.5"/>
<path d="M47.589 78.5254C41.1783 78.5254 35.9746 83.7291 35.9746 90.1398H59.19C59.19 83.7291 53.9863 78.5254 47.5756 78.5254H47.589Z" fill="white"/>
<path d="M59.1896 91.0521H35.9742C35.4646 91.0521 35.0488 90.6363 35.0488 90.1267C35.0488 83.2198 40.6683 77.5869 47.5886 77.5869C54.509 77.5869 60.1284 83.2063 60.1284 90.1267C60.1284 90.6363 59.7127 91.0521 59.203 91.0521H59.1896ZM36.9264 89.2013H58.224C57.7546 83.7428 53.1544 79.4377 47.5752 79.4377C41.996 79.4377 37.3958 83.7428 36.9264 89.2013Z" fill="url(#paint2_linear_54_4614)" stroke="url(#paint3_linear_54_4614)"/>
<path d="M108.08 78.5259C113.213 78.5259 117.375 74.3647 117.375 69.2317C117.375 64.0987 113.213 59.9375 108.08 59.9375C102.947 59.9375 98.7861 64.0987 98.7861 69.2317C98.7861 74.3647 102.947 78.5259 108.08 78.5259Z" fill="white" stroke="url(#paint4_linear_54_4614)" stroke-width="2.5"/>
<path d="M108.081 78.5254C101.67 78.5254 96.4668 83.7291 96.4668 90.1398H119.682C119.682 83.7291 114.478 78.5254 108.068 78.5254H108.081Z" fill="white"/>
<path d="M119.682 91.0521H96.4664C95.9568 91.0521 95.541 90.6363 95.541 90.1267C95.541 83.2198 101.16 77.5869 108.081 77.5869C115.001 77.5869 120.621 83.2063 120.621 90.1267C120.621 90.6363 120.205 91.0521 119.695 91.0521H119.682ZM97.4186 89.2013H118.716C118.247 83.7428 113.647 79.4377 108.067 79.4377C102.488 79.4377 97.888 83.7428 97.4186 89.2013Z" fill="url(#paint5_linear_54_4614)" stroke="url(#paint6_linear_54_4614)"/>
<path d="M77.8421 77.0494C83.5803 77.0494 88.2321 72.3977 88.2321 66.6595C88.2321 60.9213 83.5803 56.2695 77.8421 56.2695C72.1039 56.2695 67.4521 60.9213 67.4521 66.6595C67.4521 72.3977 72.1039 77.0494 77.8421 77.0494Z" fill="white"/>
<path d="M77.8421 78.0689C71.5451 78.0689 66.4326 72.9414 66.4326 66.6595C66.4326 60.3775 71.5601 55.25 77.8421 55.25C84.124 55.25 89.2515 60.3775 89.2515 66.6595C89.2515 72.9414 84.124 78.0689 77.8421 78.0689ZM77.8421 57.304C72.6846 57.304 68.4866 61.502 68.4866 66.6595C68.4866 71.817 72.6846 76.0149 77.8421 76.0149C82.9996 76.0149 87.1975 71.817 87.1975 66.6595C87.1975 61.502 82.9996 57.304 77.8421 57.304Z" fill="url(#paint7_linear_54_4614)" stroke="url(#paint8_linear_54_4614)"/>
<path d="M77.8421 77.0498C70.6756 77.0498 64.8584 82.867 64.8584 90.0335H90.8108C90.8108 82.867 84.9936 77.0498 77.8271 77.0498H77.8421Z" fill="white"/>
<path d="M90.8261 91.0527H64.8587C64.289 91.0527 63.8242 90.5879 63.8242 90.0182C63.8242 82.2969 70.1062 76 77.8424 76C85.5787 76 91.8456 82.282 91.8456 90.0182C91.8456 90.5879 91.3808 91.0527 90.8111 91.0527H90.8261ZM65.9382 88.9837H89.7466C89.2219 82.8817 84.0794 78.069 77.8424 78.069C71.6054 78.069 66.4629 82.8817 65.9382 88.9837Z" fill="url(#paint9_linear_54_4614)" stroke="url(#paint10_linear_54_4614)" stroke-linejoin="round"/>
<path d="M77.8426 59.9434C74.1399 59.9434 71.127 62.9563 71.127 66.659C71.127 70.3617 74.1399 73.3747 77.8426 73.3747C81.5453 73.3747 84.5583 70.3617 84.5583 66.659C84.5583 62.9563 81.5453 59.9434 77.8426 59.9434Z" fill="#FFD8A8"/>
<path d="M69.5625 86.9573H86.1221C85.3694 83.0664 81.9417 80.125 77.8423 80.125C73.7429 80.125 70.3152 83.0779 69.5625 86.9573Z" fill="#FFD8A8"/>
<g clip-path="url(#clip2_54_4614)">
<path d="M108.88 24.2305V27.0005" stroke="#CECECE" stroke-linecap="round" stroke-linejoin="round"/>
<path d="M108.88 18.5V21.28" stroke="#CECECE" stroke-linecap="round" stroke-linejoin="round"/>
<path d="M107.399 22.75H104.629" stroke="#CECECE" stroke-linecap="round" stroke-linejoin="round"/>
<path d="M113.13 22.75H110.35" stroke="#CECECE" stroke-linecap="round" stroke-linejoin="round"/>
<path d="M102.34 33.2207V35.0707" stroke="#CECECE" stroke-linecap="round" stroke-linejoin="round"/>
<path d="M102.34 29.4004V31.2604" stroke="#CECECE" stroke-linecap="round" stroke-linejoin="round"/>
<path d="M101.35 32.2402H99.4996" stroke="#CECECE" stroke-linecap="round" stroke-linejoin="round"/>
<path d="M105.17 32.2402H103.32" stroke="#CECECE" stroke-linecap="round" stroke-linejoin="round"/>
</g>
<path d="M87.1378 25.3022C86.8021 18.2189 79.0389 9.8361 78.7119 9.48323L77.8426 8.55371L76.9734 9.48323C76.6463 9.8361 68.8745 18.2189 68.5475 25.3022L68.5303 25.7669C68.5303 30.8104 72.7045 34.9071 77.8426 34.9071C82.9808 34.9071 87.1464 30.8018 87.1464 25.7669C87.1464 25.612 87.1464 25.4571 87.1292 25.2936L87.1378 25.3022Z" fill="white" stroke="url(#paint11_linear_54_4614)" stroke-width="1.5"/>
<path d="M77.8428 35.5612C72.3604 35.5612 67.8936 31.1718 67.8936 25.7755L67.9108 25.2935C68.255 17.9779 76.1731 9.41433 76.5088 9.05285L77.378 8.12334C77.619 7.86514 78.0666 7.86514 78.3075 8.12334L79.1768 9.05285C79.5125 9.41433 87.4306 17.9693 87.7748 25.2763C87.7834 25.4484 87.792 25.6206 87.792 25.7841C87.792 31.1804 83.3338 35.5698 77.8428 35.5698V35.5612ZM77.8428 9.5004L77.4383 9.93073C77.1112 10.275 69.503 18.5029 69.1845 25.3452L69.1673 25.8013C69.1673 30.4747 73.0575 34.2874 77.8428 34.2874C82.6281 34.2874 86.5096 30.4747 86.5096 25.7841C86.5096 25.6464 86.5096 25.5001 86.4924 25.3452C86.174 18.4943 78.5657 10.275 78.2387 9.93073L77.8342 9.5004H77.8428Z" fill="url(#paint12_linear_54_4614)" stroke="url(#paint13_linear_54_4614)" stroke-width="1.5"/>
<path d="M85.1494 25.3967C84.8998 20.0865 79.6239 13.5627 77.8424 11.4971C75.1227 14.5954 70.7677 20.6717 70.544 25.3967V25.8357C70.5354 29.7173 73.8145 32.9275 77.851 32.9275C81.8875 32.9275 85.1666 29.7173 85.1666 25.7754C85.1666 25.6549 85.1666 25.5431 85.158 25.414V25.3967H85.1494Z" fill="#FFD8A8"/>
</g>
<path d="M126.441 53.7207H115.638C115.002 53.7207 114.497 54.2258 114.497 54.8613C114.497 55.4968 115.002 56.002 115.638 56.002H126.441C127.077 56.002 127.582 55.4968 127.582 54.8613C127.582 54.2258 127.077 53.7207 126.441 53.7207Z" fill="#CECECE"/>
<path d="M121.048 48.3108C120.412 48.3108 119.907 48.8159 119.907 49.4514V60.2549C119.907 60.8904 120.412 61.3955 121.048 61.3955C121.683 61.3955 122.188 60.8904 122.188 60.2549V49.4514C122.188 48.8159 121.683 48.3108 121.048 48.3108Z" fill="#CECECE"/>
</g>
<g clip-path="url(#clip3_54_4614)">
<path d="M47.75 21.2969V24.0669" stroke="#CECECE" stroke-linecap="round" stroke-linejoin="round"/>
<path d="M47.75 15.5664V18.3464" stroke="#CECECE" stroke-linecap="round" stroke-linejoin="round"/>
<path d="M49.2305 19.8164H52.0005" stroke="#CECECE" stroke-linecap="round" stroke-linejoin="round"/>
<path d="M43.5 19.8164H46.28" stroke="#CECECE" stroke-linecap="round" stroke-linejoin="round"/>
<path d="M54.29 30.2871V32.1371" stroke="#CECECE" stroke-linecap="round" stroke-linejoin="round"/>
<path d="M54.29 26.4668V28.3268" stroke="#CECECE" stroke-linecap="round" stroke-linejoin="round"/>
<path d="M55.2803 29.3066H57.1303" stroke="#CECECE" stroke-linecap="round" stroke-linejoin="round"/>
<path d="M51.46 29.3066H53.31" stroke="#CECECE" stroke-linecap="round" stroke-linejoin="round"/>
</g>
<defs>
<linearGradient id="paint0_linear_54_4614" x1="77.7527" y1="-52.7603" x2="77.7527" y2="48.6596" gradientUnits="userSpaceOnUse">
<stop offset="0.661458" stop-color="#FDAB25"/>
<stop offset="1" stop-color="#F0960F"/>
</linearGradient>
<linearGradient id="paint1_linear_54_4614" x1="47.5881" y1="39.9399" x2="47.5881" y2="76.9769" gradientUnits="userSpaceOnUse">
<stop offset="0.661458" stop-color="#FDAB25"/>
<stop offset="1" stop-color="#F0960F"/>
</linearGradient>
<linearGradient id="paint2_linear_54_4614" x1="47.5886" y1="63.1009" x2="47.5886" y2="89.93" gradientUnits="userSpaceOnUse">
<stop offset="0.661458" stop-color="#FDAB25"/>
<stop offset="1" stop-color="#F0960F"/>
</linearGradient>
<linearGradient id="paint3_linear_54_4614" x1="47.5886" y1="63.1009" x2="47.5886" y2="89.93" gradientUnits="userSpaceOnUse">
<stop offset="0.661458" stop-color="#FDAB25"/>
<stop offset="1" stop-color="#F0960F"/>
</linearGradient>
<linearGradient id="paint4_linear_54_4614" x1="108.08" y1="39.9399" x2="108.08" y2="76.9769" gradientUnits="userSpaceOnUse">
<stop offset="0.661458" stop-color="#FDAB25"/>
<stop offset="1" stop-color="#F0960F"/>
</linearGradient>
<linearGradient id="paint5_linear_54_4614" x1="108.081" y1="63.1009" x2="108.081" y2="89.93" gradientUnits="userSpaceOnUse">
<stop offset="0.661458" stop-color="#FDAB25"/>
<stop offset="1" stop-color="#F0960F"/>
</linearGradient>
<linearGradient id="paint6_linear_54_4614" x1="108.081" y1="63.1009" x2="108.081" y2="89.93" gradientUnits="userSpaceOnUse">
<stop offset="0.661458" stop-color="#FDAB25"/>
<stop offset="1" stop-color="#F0960F"/>
</linearGradient>
<linearGradient id="paint7_linear_54_4614" x1="77.8421" y1="30.7011" x2="77.8421" y2="76.1674" gradientUnits="userSpaceOnUse">
<stop offset="0.661458" stop-color="#FDAB25"/>
<stop offset="1" stop-color="#F0960F"/>
</linearGradient>
<linearGradient id="paint8_linear_54_4614" x1="77.8421" y1="30.7011" x2="77.8421" y2="76.1674" gradientUnits="userSpaceOnUse">
<stop offset="0.661458" stop-color="#FDAB25"/>
<stop offset="1" stop-color="#F0960F"/>
</linearGradient>
<linearGradient id="paint9_linear_54_4614" x1="77.8349" y1="59.8061" x2="77.8349" y2="89.7983" gradientUnits="userSpaceOnUse">
<stop offset="0.661458" stop-color="#FDAB25"/>
<stop offset="1" stop-color="#F0960F"/>
</linearGradient>
<linearGradient id="paint10_linear_54_4614" x1="77.8349" y1="59.8061" x2="77.8349" y2="89.7983" gradientUnits="userSpaceOnUse">
<stop offset="0.661458" stop-color="#FDAB25"/>
<stop offset="1" stop-color="#F0960F"/>
</linearGradient>
<linearGradient id="paint11_linear_54_4614" x1="77.8383" y1="-19.7976" x2="77.8383" y2="32.711" gradientUnits="userSpaceOnUse">
<stop offset="0.661458" stop-color="#FDAB25"/>
<stop offset="1" stop-color="#F0960F"/>
</linearGradient>
<linearGradient id="paint12_linear_54_4614" x1="77.8428" y1="-21.8059" x2="77.8428" y2="33.2665" gradientUnits="userSpaceOnUse">
<stop offset="0.661458" stop-color="#FDAB25"/>
<stop offset="1" stop-color="#F0960F"/>
</linearGradient>
<linearGradient id="paint13_linear_54_4614" x1="77.8428" y1="-21.8059" x2="77.8428" y2="33.2665" gradientUnits="userSpaceOnUse">
<stop offset="0.661458" stop-color="#FDAB25"/>
<stop offset="1" stop-color="#F0960F"/>
</linearGradient>
<clipPath id="clip0_54_4614">
<rect width="127.395" height="94" fill="white" transform="matrix(1 0 0 -1 16 96)"/>
</clipPath>
<clipPath id="clip1_54_4614">
<rect width="89.0526" height="89.0526" fill="white" transform="translate(33.3154 2)"/>
</clipPath>
<clipPath id="clip2_54_4614">
<rect width="14.63" height="17.57" fill="white" transform="matrix(-1 0 0 1 113.63 18)"/>
</clipPath>
<clipPath id="clip3_54_4614">
<rect width="14.63" height="17.57" fill="white" transform="translate(43 15.0664)"/>
</clipPath>
</defs>
</svg>
