<svg width="159" height="97" viewBox="0 0 159 97" fill="none" xmlns="http://www.w3.org/2000/svg">
<g clip-path="url(#clip0_54_3401)">
<g clip-path="url(#clip1_54_3401)">
<path d="M18.5273 16.4414V21.1351" stroke="#CECECE" stroke-linecap="round" stroke-linejoin="round"/>
<path d="M18.5273 6.78906V11.4701" stroke="#CECECE" stroke-linecap="round" stroke-linejoin="round"/>
<path d="M21.0068 13.9629H25.7005" stroke="#CECECE" stroke-linecap="round" stroke-linejoin="round"/>
<path d="M11.3535 13.9629H16.0345" stroke="#CECECE" stroke-linecap="round" stroke-linejoin="round"/>
<path d="M25.7002 36.3945V39.9116" stroke="#CECECE" stroke-linecap="round" stroke-linejoin="round"/>
<path d="M25.7002 29.1445V32.6616" stroke="#CECECE" stroke-linecap="round" stroke-linejoin="round"/>
<path d="M27.5596 34.5332H31.0767" stroke="#CECECE" stroke-linecap="round" stroke-linejoin="round"/>
<path d="M20.3232 34.5332H23.8277" stroke="#CECECE" stroke-linecap="round" stroke-linejoin="round"/>
<path d="M40.9414 21.5137V23.8542" stroke="#CECECE" stroke-linecap="round" stroke-linejoin="round"/>
<path d="M40.9414 16.6816V19.0222" stroke="#CECECE" stroke-linecap="round" stroke-linejoin="round"/>
<path d="M42.1816 20.2754H44.5348" stroke="#CECECE" stroke-linecap="round" stroke-linejoin="round"/>
<path d="M37.3613 20.2754H39.7018" stroke="#CECECE" stroke-linecap="round" stroke-linejoin="round"/>
<path d="M129.678 47.6152V51.1323" stroke="#CECECE" stroke-linecap="round" stroke-linejoin="round"/>
<path d="M129.678 40.3789V43.896" stroke="#CECECE" stroke-linecap="round" stroke-linejoin="round"/>
<path d="M131.537 45.7559H135.054" stroke="#CECECE" stroke-linecap="round" stroke-linejoin="round"/>
<path d="M124.288 45.7559H127.805" stroke="#CECECE" stroke-linecap="round" stroke-linejoin="round"/>
<path d="M142.949 55.5469V57.8874" stroke="#E59D6D" stroke-linecap="round" stroke-linejoin="round"/>
<path d="M142.949 50.7148V53.068" stroke="#E59D6D" stroke-linecap="round" stroke-linejoin="round"/>
<path d="M144.202 54.3086H146.543" stroke="#E59D6D" stroke-linecap="round" stroke-linejoin="round"/>
<path d="M139.369 54.3086H141.71" stroke="#E59D6D" stroke-linecap="round" stroke-linejoin="round"/>
</g>
<g clip-path="url(#clip2_54_3401)">
<path d="M110.778 89.2095C110.056 89.2095 109.353 88.8421 108.952 88.1808L98.1038 70.4917L87.2559 88.1808C86.635 89.2003 85.311 89.5125 84.3066 88.888C83.3021 88.2635 82.9825 86.9317 83.6035 85.9215L96.2775 65.2474C96.6702 64.6137 97.355 64.2188 98.1038 64.2188C98.8525 64.2188 99.5374 64.6045 99.93 65.2474L112.604 85.9215C113.225 86.9317 112.915 88.2635 111.901 88.888C111.554 89.1084 111.161 89.2095 110.778 89.2095Z" fill="url(#paint0_linear_54_3401)"/>
<path d="M98.095 89.2111C96.908 89.2111 95.9492 88.2467 95.9492 87.0527V56.7443C95.9492 55.5503 96.908 54.5859 98.095 54.5859C99.2821 54.5859 100.241 55.5503 100.241 56.7443V87.0527C100.241 88.2467 99.2821 89.2111 98.095 89.2111Z" fill="url(#paint1_linear_54_3401)"/>
<path d="M118.411 55.9347H77.7865C76.5994 55.9347 75.6406 54.9703 75.6406 53.7764V49.1566C75.6406 47.9627 76.5994 46.9983 77.7865 46.9983C78.9735 46.9983 79.9323 47.9627 79.9323 49.1566V51.618H116.265V11.1057H79.9323V32.1655C79.9323 33.3595 78.9735 34.3238 77.7865 34.3238C76.5994 34.3238 75.6406 33.3595 75.6406 32.1655V8.94739C75.6406 7.75342 76.5994 6.78906 77.7865 6.78906H118.411C119.598 6.78906 120.557 7.75342 120.557 8.94739V53.7764C120.557 54.9703 119.598 55.9347 118.411 55.9347Z" fill="#E59D6D"/>
<path d="M106.601 34.6112C106.294 28.1328 99.1933 20.4658 98.8942 20.1431L98.0992 19.293L97.3041 20.1431C97.005 20.4658 89.8969 28.1328 89.5978 34.6112L89.582 35.0363C89.582 39.649 93.3998 43.3959 98.0992 43.3959C102.799 43.3959 106.608 39.6412 106.608 35.0363C106.608 34.8946 106.608 34.7529 106.593 34.6033L106.601 34.6112Z" fill="white" stroke="url(#paint2_linear_54_3401)" stroke-width="1.5"/>
<path d="M98.0996 43.9946C93.0854 43.9946 89 39.98 89 35.0445L89.0157 34.6037C89.3306 27.9128 96.5725 20.0805 96.8795 19.7499L97.6746 18.8998C97.895 18.6636 98.3043 18.6636 98.5247 18.8998L99.3197 19.7499C99.6267 20.0805 106.869 27.9049 107.183 34.588C107.191 34.7454 107.199 34.9028 107.199 35.0524C107.199 39.9879 103.122 44.0024 98.0996 44.0024V43.9946ZM98.0996 20.1592L97.7297 20.5528C97.4305 20.8677 90.472 28.393 90.1807 34.6509L90.165 35.0681C90.165 39.3424 93.723 42.8296 98.0996 42.8296C102.476 42.8296 106.026 39.3424 106.026 35.0524C106.026 34.9264 106.026 34.7926 106.011 34.6509C105.719 28.3851 98.7608 20.8677 98.4617 20.5528L98.0917 20.1592H98.0996Z" fill="url(#paint3_linear_54_3401)" stroke="url(#paint4_linear_54_3401)" stroke-width="1.5"/>
<path d="M104.782 34.6971C104.554 29.8403 99.7284 23.8736 98.099 21.9844C95.6116 24.8182 91.6285 30.3755 91.4238 34.6971V35.0985C91.416 38.6486 94.4151 41.5848 98.1069 41.5848C101.799 41.5848 104.798 38.6486 104.798 35.0434C104.798 34.9332 104.798 34.8309 104.79 34.7128V34.6971H104.782Z" fill="#E59D6D"/>
<path d="M65.03 89.211C61.2679 89.211 58.209 86.1342 58.209 82.3503V66.6909C58.209 65.4969 59.1678 64.5326 60.3548 64.5326C61.5419 64.5326 62.5006 65.4969 62.5006 66.6909V82.3503C62.5006 83.7555 63.6329 84.8944 65.03 84.8944C66.427 84.8944 67.5593 83.7555 67.5593 82.3503V41.9298C67.5593 40.7358 68.5181 39.7715 69.7051 39.7715C70.8922 39.7715 71.851 40.7358 71.851 41.9298V82.3503C71.851 86.1342 68.792 89.211 65.03 89.211Z" fill="url(#paint5_linear_54_3401)"/>
<path d="M55.4606 89.2112C51.6986 89.2112 48.6396 86.1344 48.6396 82.3504V42.7658C48.6396 41.5718 49.5984 40.6074 50.7855 40.6074C51.9725 40.6074 52.9313 41.5718 52.9313 42.7658V82.3504C52.9313 83.7557 54.0636 84.8945 55.4606 84.8945C56.8577 84.8945 57.99 83.7557 57.99 82.3504V66.6911C57.99 65.4971 58.9488 64.5327 60.1358 64.5327C61.3229 64.5327 62.2816 65.4971 62.2816 66.6911V82.3504C62.2816 86.1344 59.2227 89.2112 55.4606 89.2112Z" fill="url(#paint6_linear_54_3401)"/>
<path d="M60.245 29.8883C55.6338 29.8883 51.8809 26.1135 51.8809 21.4754C51.8809 16.8373 55.6338 13.0625 60.245 13.0625C64.8563 13.0625 68.6092 16.8373 68.6092 21.4754C68.6092 26.1135 64.8563 29.8883 60.245 29.8883ZM60.245 17.3792C57.9988 17.3792 56.1725 19.216 56.1725 21.4754C56.1725 23.7348 57.9988 25.5716 60.245 25.5716C62.4913 25.5716 64.3175 23.7348 64.3175 21.4754C64.3175 19.216 62.4913 17.3792 60.245 17.3792Z" fill="url(#paint7_linear_54_3401)"/>
<path d="M44.0286 44.9238C42.8416 44.9238 41.8828 43.9594 41.8828 42.7655C41.8828 36.8232 46.6858 31.9922 52.5937 31.9922H67.8975C69.0846 31.9922 70.0434 32.9565 70.0434 34.1505C70.0434 35.3445 69.0846 36.3088 67.8975 36.3088H52.5937C49.0508 36.3088 46.1745 39.2111 46.1745 42.7655C46.1745 43.9594 45.2157 44.9238 44.0286 44.9238Z" fill="url(#paint8_linear_54_3401)"/>
<path d="M47.3798 63.0157C44.3482 63.0157 41.8828 60.5359 41.8828 57.4867V42.8927C41.8828 41.6987 42.8416 40.7344 44.0286 40.7344C45.2157 40.7344 46.1745 41.6987 46.1745 42.8927V57.4867C46.1745 58.1572 46.7132 58.699 47.3798 58.699C48.0464 58.699 48.5851 58.1572 48.5851 57.4867V42.8927C48.5851 41.6987 49.5439 40.7344 50.7309 40.7344C51.918 40.7344 52.8768 41.6987 52.8768 42.8927V57.4867C52.8768 60.5359 50.4113 63.0157 47.3798 63.0157Z" fill="url(#paint9_linear_54_3401)"/>
<path d="M82.0584 44.0866H68.8393C67.9124 44.0866 67.1637 43.1223 67.1637 41.9283C67.1637 40.7343 67.9124 39.77 68.8393 39.77H82.0584C82.7999 39.77 83.3989 38.9985 83.3989 38.0433C83.3989 37.0881 82.7999 36.3167 82.0584 36.3167H67.4275C66.5006 36.3167 65.752 35.3523 65.752 34.1583C65.752 32.9644 66.5006 32 67.4275 32H82.0584C84.6466 32 86.75 34.7094 86.75 38.0433C86.75 41.3773 84.6466 44.0866 82.0584 44.0866Z" fill="url(#paint10_linear_54_3401)"/>
<path d="M77.6798 35.9953C77.1959 35.9953 76.7028 35.83 76.301 35.4902C75.397 34.7187 75.2783 33.3594 76.0362 32.4502L86.8566 19.491C87.6145 18.5817 88.9751 18.4623 89.8791 19.2246C90.783 19.9869 90.9018 21.3554 90.1439 22.2647L79.3234 35.2238C78.9034 35.729 78.2916 35.9953 77.6798 35.9953Z" fill="url(#paint11_linear_54_3401)"/>
</g>
</g>
<defs>
<linearGradient id="paint0_linear_54_3401" x1="98.1048" y1="37.3334" x2="98.1048" y2="87.1269" gradientUnits="userSpaceOnUse">
<stop stop-color="#E9AE87"/>
<stop offset="1" stop-color="#B15934"/>
</linearGradient>
<linearGradient id="paint1_linear_54_3401" x1="98.095" y1="17.3358" x2="98.095" y2="86.3256" gradientUnits="userSpaceOnUse">
<stop stop-color="#E9AE87"/>
<stop offset="1" stop-color="#B15934"/>
</linearGradient>
<linearGradient id="paint2_linear_54_3401" x1="98.0952" y1="-6.63731" x2="98.0952" y2="41.3874" gradientUnits="userSpaceOnUse">
<stop stop-color="#E9AE87"/>
<stop offset="1" stop-color="#B15934"/>
</linearGradient>
<linearGradient id="paint3_linear_54_3401" x1="98.0996" y1="-8.47365" x2="98.0996" y2="41.8958" gradientUnits="userSpaceOnUse">
<stop stop-color="#E9AE87"/>
<stop offset="1" stop-color="#B15934"/>
</linearGradient>
<linearGradient id="paint4_linear_54_3401" x1="98.0996" y1="-8.47365" x2="98.0996" y2="41.8958" gradientUnits="userSpaceOnUse">
<stop stop-color="#E9AE87"/>
<stop offset="1" stop-color="#B15934"/>
</linearGradient>
<linearGradient id="paint5_linear_54_3401" x1="65.03" y1="-13.4162" x2="65.03" y2="85.0911" gradientUnits="userSpaceOnUse">
<stop stop-color="#E9AE87"/>
<stop offset="1" stop-color="#B15934"/>
</linearGradient>
<linearGradient id="paint6_linear_54_3401" x1="55.4606" y1="-11.6811" x2="55.4606" y2="85.1609" gradientUnits="userSpaceOnUse">
<stop stop-color="#E9AE87"/>
<stop offset="1" stop-color="#B15934"/>
</linearGradient>
<linearGradient id="paint7_linear_54_3401" x1="60.245" y1="-5.03889" x2="60.245" y2="28.4861" gradientUnits="userSpaceOnUse">
<stop stop-color="#E9AE87"/>
<stop offset="1" stop-color="#B15934"/>
</linearGradient>
<linearGradient id="paint8_linear_54_3401" x1="55.9631" y1="18.0802" x2="55.9631" y2="43.8462" gradientUnits="userSpaceOnUse">
<stop stop-color="#E9AE87"/>
<stop offset="1" stop-color="#B15934"/>
</linearGradient>
<linearGradient id="paint9_linear_54_3401" x1="47.3798" y1="16.7639" x2="47.3798" y2="61.1589" gradientUnits="userSpaceOnUse">
<stop stop-color="#E9AE87"/>
<stop offset="1" stop-color="#B15934"/>
</linearGradient>
<linearGradient id="paint10_linear_54_3401" x1="76.251" y1="18.997" x2="76.251" y2="43.0794" gradientUnits="userSpaceOnUse">
<stop stop-color="#E9AE87"/>
<stop offset="1" stop-color="#B15934"/>
</linearGradient>
<linearGradient id="paint11_linear_54_3401" x1="83.09" y1="0.140505" x2="83.09" y2="34.5559" gradientUnits="userSpaceOnUse">
<stop stop-color="#E9AE87"/>
<stop offset="1" stop-color="#B15934"/>
</linearGradient>
<clipPath id="clip0_54_3401">
<rect width="138" height="84" fill="white" transform="translate(10 6)"/>
</clipPath>
<clipPath id="clip1_54_3401">
<rect width="138" height="53" fill="white" transform="translate(10 6)"/>
</clipPath>
<clipPath id="clip2_54_3401">
<rect width="80" height="84" fill="white" transform="translate(41 6)"/>
</clipPath>
</defs>
</svg>
