<svg width="159" height="97" viewBox="0 0 159 97" fill="none" xmlns="http://www.w3.org/2000/svg">
<g clip-path="url(#clip0_121_5767)">
<path d="M36.8066 15.2852V19.9788" stroke="#CECECE" stroke-linecap="round" stroke-linejoin="round"/>
<path d="M36.8066 5.63281V10.3138" stroke="#CECECE" stroke-linecap="round" stroke-linejoin="round"/>
<path d="M39.2861 12.8066H43.9798" stroke="#CECECE" stroke-linecap="round" stroke-linejoin="round"/>
<path d="M29.6328 12.8066H34.3138" stroke="#CECECE" stroke-linecap="round" stroke-linejoin="round"/>
<path d="M43.9795 35.2383V38.7554" stroke="#CECECE" stroke-linecap="round" stroke-linejoin="round"/>
<path d="M43.9795 27.9883V31.5054" stroke="#CECECE" stroke-linecap="round" stroke-linejoin="round"/>
<path d="M45.8389 33.377H49.356" stroke="#CECECE" stroke-linecap="round" stroke-linejoin="round"/>
<path d="M38.6025 33.377H42.107" stroke="#CECECE" stroke-linecap="round" stroke-linejoin="round"/>
<path d="M59.2207 20.3574V22.6979" stroke="#CECECE" stroke-linecap="round" stroke-linejoin="round"/>
<path d="M59.2207 15.5254V17.8659" stroke="#CECECE" stroke-linecap="round" stroke-linejoin="round"/>
<path d="M60.4609 19.1191H62.8141" stroke="#CECECE" stroke-linecap="round" stroke-linejoin="round"/>
<path d="M55.6406 19.1191H57.9811" stroke="#CECECE" stroke-linecap="round" stroke-linejoin="round"/>
<path d="M105.957 14.2363V17.7534" stroke="#CECECE" stroke-linecap="round" stroke-linejoin="round"/>
<path d="M105.957 7V10.5171" stroke="#CECECE" stroke-linecap="round" stroke-linejoin="round"/>
<path d="M107.816 12.377H111.333" stroke="#CECECE" stroke-linecap="round" stroke-linejoin="round"/>
<path d="M100.567 12.377H104.084" stroke="#CECECE" stroke-linecap="round" stroke-linejoin="round"/>
<path d="M123.228 17.168V19.5085" stroke="#CED8FA" stroke-linecap="round" stroke-linejoin="round"/>
<path d="M123.228 12.3359V14.6891" stroke="#CED8FA" stroke-linecap="round" stroke-linejoin="round"/>
<path d="M124.48 15.9297H126.821" stroke="#CED8FA" stroke-linecap="round" stroke-linejoin="round"/>
<path d="M119.647 15.9297H121.988" stroke="#CED8FA" stroke-linecap="round" stroke-linejoin="round"/>
<path d="M110.871 65.2679H93.4244C93.1081 65.2679 92.8045 65.1414 92.5768 64.9136L89.0597 61.3966C88.8319 61.1688 88.5283 61.0423 88.212 61.0423H85.6944C85.0239 61.0423 84.4925 60.4983 84.4925 59.8404V53.8184H79.0651C78.3945 53.8184 77.8632 54.3624 77.8632 55.0202V59.8404C77.8632 60.511 77.3192 61.0423 76.6613 61.0423H74.7003C74.4093 61.0423 74.131 61.1435 73.9033 61.346L69.7663 64.9643C69.5512 65.154 69.2602 65.2679 68.9692 65.2679H60.4548C60.4548 65.2679 60.3789 65.2679 60.3283 65.2679C59.2276 65.154 42.9453 64.0027 43.9574 91.8359H57.8233C57.7727 88.3567 58.1649 82.9546 60.9862 82.1449C64.8196 81.0442 69.159 81.449 69.9054 84.2577C70.0446 84.789 70.5253 85.1559 71.0694 85.1559H91.1092C91.7797 85.1559 92.3111 84.6119 92.3111 83.954C92.3111 83.2962 92.8551 82.7521 93.513 82.7521H110.858" fill="white"/>
<path d="M57.8358 92.7728H43.9825C43.4764 92.7728 43.0589 92.368 43.0463 91.8746C42.6414 80.754 44.8934 72.7962 49.7515 68.2417C54.3946 63.877 59.8474 64.2818 60.442 64.3451H68.9943C69.0576 64.3451 69.1208 64.3198 69.1715 64.2818L73.3085 60.6635C73.7007 60.3219 74.2067 60.1322 74.7254 60.1322H76.6864C76.8382 60.1322 76.9521 60.0183 76.9521 59.8665V55.0463C76.9521 53.8697 77.9136 52.9082 79.0902 52.9082H84.5176C85.0363 52.9082 85.4538 53.3257 85.4538 53.8444V59.8665C85.4538 60.0183 85.5677 60.1322 85.7195 60.1322H88.2371C88.8064 60.1322 89.3505 60.3599 89.7553 60.7647L93.2724 64.2818C93.2724 64.2818 93.3863 64.3577 93.4622 64.3577H110.908C111.427 64.3577 111.845 64.7752 111.845 65.2939C111.845 65.8126 111.427 66.2301 110.908 66.2301H93.4622C92.8929 66.2301 92.3488 66.0024 91.944 65.5976L88.4269 62.0805C88.4269 62.0805 88.313 62.0046 88.2371 62.0046H85.7195C84.5429 62.0046 83.5814 61.0431 83.5814 59.8665V54.7806H79.1028C78.951 54.7806 78.8371 54.8945 78.8371 55.0463V59.8665C78.8371 61.0431 77.8756 62.0046 76.699 62.0046H74.7381C74.6748 62.0046 74.6116 62.0299 74.561 62.0678L70.4239 65.6861C70.0317 66.0277 69.5257 66.2175 69.007 66.2175H60.4926C60.4926 66.2175 60.3028 66.2175 60.2775 66.2175C59.7462 66.1669 55.0904 65.8253 51.0546 69.6207C46.7405 73.6692 44.6783 80.8299 44.9187 90.913H56.9249C56.9628 86.8013 57.7219 82.133 60.7709 81.26C63.8832 80.3744 66.9954 80.4756 68.8805 81.551C69.9052 82.133 70.5884 82.9933 70.8667 84.0307C70.9047 84.1445 71.0059 84.2331 71.1198 84.2331H91.1596C91.3114 84.2331 91.4253 84.1192 91.4253 83.9674C91.4253 82.7908 92.3868 81.8293 93.5634 81.8293H110.908C111.427 81.8293 111.845 82.2468 111.845 82.7655C111.845 83.2842 111.427 83.7017 110.908 83.7017H93.5634C93.4116 83.7017 93.2977 83.8156 93.2977 83.9674C93.2977 85.144 92.3362 86.1055 91.1596 86.1055H71.1198C70.1583 86.1055 69.298 85.4476 69.0576 84.5114C68.9058 83.9548 68.5515 83.512 67.9569 83.183C66.5147 82.3607 63.8958 82.3227 61.2896 83.0692C59.6576 83.5373 58.734 86.814 58.8099 91.8366C58.8099 92.0896 58.7214 92.33 58.5443 92.5071C58.3671 92.6842 58.1268 92.7855 57.8737 92.7855L57.8358 92.7728Z" fill="url(#paint0_linear_121_5767)" stroke="url(#paint1_linear_121_5767)"/>
<path d="M67.4894 63.3203H63.947C62.9688 63.3203 62.1758 64.1133 62.1758 65.0915V82.8161C62.1758 83.7943 62.9688 84.5873 63.947 84.5873H67.4894C68.4676 84.5873 69.2606 83.7943 69.2606 82.8161V65.0915C69.2606 64.1133 68.4676 63.3203 67.4894 63.3203Z" fill="white"/>
<path d="M67.3878 65.2051H64.0479V82.7146H67.3878V65.2051Z" fill="#CED8FA"/>
<path d="M67.4891 85.5233H63.9467C62.4538 85.5233 61.2393 84.3087 61.2393 82.8159V65.1039C61.2393 63.611 62.4538 62.3965 63.9467 62.3965H67.4891C68.9819 62.3965 70.1965 63.611 70.1965 65.1039V82.8159C70.1965 84.3087 68.9819 85.5233 67.4891 85.5233ZM63.9467 64.2562C63.4912 64.2562 63.1117 64.6358 63.1117 65.0912V82.8032C63.1117 83.2587 63.4912 83.6382 63.9467 83.6382H67.4891C67.9445 83.6382 68.324 83.2587 68.324 82.8032V65.0912C68.324 64.6358 67.9445 64.2562 67.4891 64.2562H63.9467Z" fill="url(#paint2_linear_121_5767)" stroke="url(#paint3_linear_121_5767)"/>
<path d="M97.9796 63.3203H94.4372C93.459 63.3203 92.666 64.1133 92.666 65.0915V82.8161C92.666 83.7943 93.459 84.5873 94.4372 84.5873H97.9796C98.9578 84.5873 99.7508 83.7943 99.7508 82.8161V65.0915C99.7508 64.1133 98.9578 63.3203 97.9796 63.3203Z" fill="white"/>
<path d="M97.8781 65.2051H94.5381V82.7146H97.8781V65.2051Z" fill="#CED8FA"/>
<path d="M97.9793 85.5233H94.4369C92.944 85.5233 91.7295 84.3087 91.7295 82.8159V65.1039C91.7295 63.611 92.944 62.3965 94.4369 62.3965H97.9793C99.4722 62.3965 100.687 63.611 100.687 65.1039V82.8159C100.687 84.3087 99.4722 85.5233 97.9793 85.5233ZM94.4369 64.2562C93.9814 64.2562 93.6019 64.6358 93.6019 65.0912V82.8032C93.6019 83.2587 93.9814 83.6382 94.4369 83.6382H97.9793C98.4347 83.6382 98.8143 83.2587 98.8143 82.8032V65.0912C98.8143 64.6358 98.4347 64.2562 97.9793 64.2562H94.4369Z" fill="url(#paint4_linear_121_5767)" stroke="url(#paint5_linear_121_5767)"/>
<path d="M91.7544 48.9492H71.1959C70.6649 48.9492 70.2344 49.3797 70.2344 49.9107V54.0351C70.2344 54.5661 70.6649 54.9966 71.1959 54.9966H91.7544C92.2855 54.9966 92.7159 54.5661 92.7159 54.0351V49.9107C92.7159 49.3797 92.2855 48.9492 91.7544 48.9492Z" fill="white"/>
<path d="M90.8432 50.834H72.1064V53.1239H90.8432V50.834Z" fill="#CED8FA"/>
<path d="M91.7541 55.9324H71.2082C70.1581 55.9324 69.2979 55.0721 69.2979 54.0221V49.9104C69.2979 48.8603 70.1581 48 71.2082 48H91.7541C92.8042 48 93.6645 48.8603 93.6645 49.9104V54.0221C93.6645 55.0721 92.8042 55.9324 91.7541 55.9324V55.9324ZM71.2082 49.8851L71.1829 54.0221L91.7668 54.0474L91.7921 49.9104L91.7668 49.8851H71.2209H71.2082Z" fill="url(#paint6_linear_121_5767)" stroke="url(#paint7_linear_121_5767)"/>
<g clip-path="url(#clip1_121_5767)">
<path d="M129.032 22.0337L112.013 24.158L86.2728 17.9941L72.6915 30.6899L69.9951 47.3059L72.0497 47.1666C74.9501 46.9726 77.4375 45.0324 78.3379 42.2713L80.1985 36.5702L87.4618 30.3815L96.7995 34.2668C99.0183 35.1424 99.1526 38.2318 97.0184 39.3014L86.238 44.6991C84.8948 45.3906 84.2331 46.9377 84.656 48.3904C85.0689 49.8082 86.4121 50.7485 87.8846 50.6539L101.148 49.8182C103.585 49.664 105.958 48.9774 108.102 47.8034L117.923 42.4305L128.181 41.6097" fill="white"/>
<path d="M74.0449 46.0677L76.4726 35.1379C76.7612 33.8495 77.4776 32.6953 78.5074 31.8645L85.2582 26.4369C86.5616 25.3873 88.3426 25.1435 89.8798 25.8051L100.297 30.2775C102.158 31.0188 103.382 32.8147 103.382 34.8195C103.382 36.7597 102.237 38.5109 100.461 39.2919L84.5866 46.2716L80.2038 38.68L77.7462 43.6051L74.0499 46.0627L74.0449 46.0677Z" fill="#CED8FA"/>
<path d="M104.406 48.9436L114.296 40.5411C115.868 39.2078 117.828 38.4168 119.883 38.2925L130.047 37.6855L127.584 41.7898L117.943 42.7947L104.406 48.9486V48.9436Z" fill="#CED8FA"/>
<path d="M91.7702 41.7839L88.0889 37.6797" stroke="url(#paint8_linear_121_5767)" stroke-width="1.98993" stroke-linecap="round" stroke-linejoin="round"/>
<path d="M79.7256 38.0078L84.596 46.863" stroke="url(#paint9_linear_121_5767)" stroke-width="1.98993" stroke-linecap="round" stroke-linejoin="round"/>
<path d="M129.032 22.0337L112.013 24.158L86.2728 17.9941L72.6915 30.6899L69.9951 47.3059L72.0497 47.1666C74.9501 46.9726 77.4375 45.0324 78.3379 42.2713L80.1985 36.5702L87.4618 30.3815L96.7995 34.2668C99.0183 35.1424 99.1526 38.2318 97.0184 39.3014L86.238 44.6991C84.8948 45.3906 84.2331 46.9377 84.656 48.3904C85.0689 49.8082 86.4121 50.7485 87.8846 50.6539L101.148 49.8182C103.585 49.664 105.958 48.9774 108.102 47.8034L117.923 42.4305L128.181 41.6097" stroke="url(#paint10_linear_121_5767)" stroke-width="2.5" stroke-linecap="round" stroke-linejoin="round"/>
</g>
</g>
<defs>
<linearGradient id="paint0_linear_121_5767" x1="77.4223" y1="10.0078" x2="77.4223" y2="89.4624" gradientUnits="userSpaceOnUse">
<stop offset="0.416667" stop-color="#7A98FF"/>
<stop offset="1" stop-color="#1A4CFB"/>
</linearGradient>
<linearGradient id="paint1_linear_121_5767" x1="77.4223" y1="10.0078" x2="77.4223" y2="89.4624" gradientUnits="userSpaceOnUse">
<stop offset="0.416667" stop-color="#7A98FF"/>
<stop offset="1" stop-color="#1A4CFB"/>
</linearGradient>
<linearGradient id="paint2_linear_121_5767" x1="65.7179" y1="37.5164" x2="65.7179" y2="83.596" gradientUnits="userSpaceOnUse">
<stop offset="0.416667" stop-color="#7A98FF"/>
<stop offset="1" stop-color="#1A4CFB"/>
</linearGradient>
<linearGradient id="paint3_linear_121_5767" x1="65.7179" y1="37.5164" x2="65.7179" y2="83.596" gradientUnits="userSpaceOnUse">
<stop offset="0.416667" stop-color="#7A98FF"/>
<stop offset="1" stop-color="#1A4CFB"/>
</linearGradient>
<linearGradient id="paint4_linear_121_5767" x1="96.2081" y1="37.5164" x2="96.2081" y2="83.596" gradientUnits="userSpaceOnUse">
<stop offset="0.416667" stop-color="#7A98FF"/>
<stop offset="1" stop-color="#1A4CFB"/>
</linearGradient>
<linearGradient id="paint5_linear_121_5767" x1="96.2081" y1="37.5164" x2="96.2081" y2="83.596" gradientUnits="userSpaceOnUse">
<stop offset="0.416667" stop-color="#7A98FF"/>
<stop offset="1" stop-color="#1A4CFB"/>
</linearGradient>
<linearGradient id="paint6_linear_121_5767" x1="81.4812" y1="39.4662" x2="81.4812" y2="55.2714" gradientUnits="userSpaceOnUse">
<stop offset="0.416667" stop-color="#7A98FF"/>
<stop offset="1" stop-color="#1A4CFB"/>
</linearGradient>
<linearGradient id="paint7_linear_121_5767" x1="81.4812" y1="39.4662" x2="81.4812" y2="55.2714" gradientUnits="userSpaceOnUse">
<stop offset="0.416667" stop-color="#7A98FF"/>
<stop offset="1" stop-color="#1A4CFB"/>
</linearGradient>
<linearGradient id="paint8_linear_121_5767" x1="89.9296" y1="33.2643" x2="89.9296" y2="41.4419" gradientUnits="userSpaceOnUse">
<stop offset="0.416667" stop-color="#7A98FF"/>
<stop offset="1" stop-color="#1A4CFB"/>
</linearGradient>
<linearGradient id="paint9_linear_121_5767" x1="82.1608" y1="28.4813" x2="82.1608" y2="46.1251" gradientUnits="userSpaceOnUse">
<stop offset="0.416667" stop-color="#7A98FF"/>
<stop offset="1" stop-color="#1A4CFB"/>
</linearGradient>
<linearGradient id="paint10_linear_121_5767" x1="99.5133" y1="-17.1487" x2="99.5133" y2="47.9383" gradientUnits="userSpaceOnUse">
<stop offset="0.416667" stop-color="#7A98FF"/>
<stop offset="1" stop-color="#1A4CFB"/>
</linearGradient>
<clipPath id="clip0_121_5767">
<rect width="102" height="89" fill="white" transform="translate(29 4)"/>
</clipPath>
<clipPath id="clip1_121_5767">
<rect width="63" height="36" fill="white" transform="translate(68 16)"/>
</clipPath>
</defs>
</svg>
