<svg width="159" height="97" viewBox="0 0 159 97" fill="none" xmlns="http://www.w3.org/2000/svg">
<path d="M25.1738 19.6533V24.347" stroke="#CECECE" stroke-linecap="round" stroke-linejoin="round"/>
<path d="M25.1738 10V14.681" stroke="#CECECE" stroke-linecap="round" stroke-linejoin="round"/>
<path d="M27.6533 17.1738H32.347" stroke="#CECECE" stroke-linecap="round" stroke-linejoin="round"/>
<path d="M18 17.1738H22.681" stroke="#CECECE" stroke-linecap="round" stroke-linejoin="round"/>
<path d="M32.3467 39.6045V43.1216" stroke="#CECECE" stroke-linecap="round" stroke-linejoin="round"/>
<path d="M32.3467 32.3555V35.8726" stroke="#CECECE" stroke-linecap="round" stroke-linejoin="round"/>
<path d="M34.2061 37.7451H37.7231" stroke="#CECECE" stroke-linecap="round" stroke-linejoin="round"/>
<path d="M26.9697 37.7451H30.4742" stroke="#CECECE" stroke-linecap="round" stroke-linejoin="round"/>
<path d="M47.5879 24.7266V27.0671" stroke="#CECECE" stroke-linecap="round" stroke-linejoin="round"/>
<path d="M47.5879 19.8936V22.2341" stroke="#CECECE" stroke-linecap="round" stroke-linejoin="round"/>
<path d="M48.8281 23.4863H51.1813" stroke="#CECECE" stroke-linecap="round" stroke-linejoin="round"/>
<path d="M44.0078 23.4863H46.3483" stroke="#CECECE" stroke-linecap="round" stroke-linejoin="round"/>
<path d="M124.324 74.8252V78.3423" stroke="#CECECE" stroke-linecap="round" stroke-linejoin="round"/>
<path d="M124.324 67.5889V71.106" stroke="#CECECE" stroke-linecap="round" stroke-linejoin="round"/>
<path d="M126.184 72.9658H129.701" stroke="#CECECE" stroke-linecap="round" stroke-linejoin="round"/>
<path d="M118.935 72.9658H122.452" stroke="#CECECE" stroke-linecap="round" stroke-linejoin="round"/>
<path d="M137.596 82.7588V85.0993" stroke="#FFC9C9" stroke-linecap="round" stroke-linejoin="round"/>
<path d="M137.596 77.9258V80.2789" stroke="#FFC9C9" stroke-linecap="round" stroke-linejoin="round"/>
<path d="M138.849 81.5186H141.189" stroke="#FFC9C9" stroke-linecap="round" stroke-linejoin="round"/>
<path d="M134.016 81.5186H136.356" stroke="#FFC9C9" stroke-linecap="round" stroke-linejoin="round"/>
<g clip-path="url(#clip0_54_3395)">
<path d="M61.5079 38.2857C65.0946 38.2857 68.0022 35.3811 68.0022 31.7981C68.0022 28.2151 65.0946 25.3105 61.5079 25.3105C57.9212 25.3105 55.0137 28.2151 55.0137 31.7981C55.0137 35.3811 57.9212 38.2857 61.5079 38.2857Z" stroke="#CECECE" stroke-width="3" stroke-linecap="round" stroke-linejoin="round"/>
<path d="M53.7998 48.2686V83.2183C53.7998 85.3426 55.5239 87.0721 57.6576 87.0721C59.784 87.0721 61.5153 85.3498 61.5153 83.2183V67.0998" stroke="#CECECE" stroke-width="3" stroke-linecap="round" stroke-linejoin="round"/>
<path d="M69.2165 60.3613V83.2186C69.2165 85.3429 67.4924 87.0724 65.3587 87.0724C63.2323 87.0724 61.501 85.35 61.501 83.2186V67.1001" stroke="#CECECE" stroke-width="3" stroke-linecap="round" stroke-linejoin="round"/>
<path d="M53.7995 63.1308H53.311C50.1931 63.1308 47.6572 60.6046 47.6572 57.4828V45.7851C47.6572 42.125 50.6242 39.1611 54.288 39.1611H66.5725" stroke="#CECECE" stroke-width="3" stroke-linecap="round" stroke-linejoin="round"/>
<path d="M100.933 38.2857C104.519 38.2857 107.427 35.3811 107.427 31.7981C107.427 28.2151 104.519 25.3105 100.933 25.3105C97.3461 25.3105 94.4385 28.2151 94.4385 31.7981C94.4385 35.3811 97.3461 38.2857 100.933 38.2857Z" stroke="#CECECE" stroke-width="3" stroke-linecap="round" stroke-linejoin="round"/>
<path d="M93.2246 60.3613V83.2186C93.2246 85.3429 94.9487 87.0724 97.0824 87.0724C99.2088 87.0724 100.94 85.35 100.94 83.2186V67.1001" stroke="#CECECE" stroke-width="3" stroke-linecap="round" stroke-linejoin="round"/>
<path d="M108.641 48.2686V83.2183C108.641 85.3426 106.917 87.0721 104.784 87.0721C102.657 87.0721 100.926 85.3498 100.926 83.2183V67.0998" stroke="#CECECE" stroke-width="3" stroke-linecap="round" stroke-linejoin="round"/>
<path d="M95.8682 39.1611H108.153C111.816 39.1611 114.783 42.125 114.783 45.7851V57.4828C114.783 60.5975 112.255 63.1308 109.13 63.1308H108.641" stroke="#CECECE" stroke-width="3" stroke-linecap="round" stroke-linejoin="round"/>
<path d="M72.8369 55.4072V83.9243C72.8369 85.6588 74.7119 87.0647 77.0251 87.0647C79.3384 87.0647 81.2134 85.6588 81.2134 83.9243V70.77" stroke="url(#paint0_linear_54_3395)" stroke-width="3" stroke-linecap="round" stroke-linejoin="round"/>
<path d="M89.604 55.4072V83.9243C89.604 85.6588 87.729 87.0647 85.4158 87.0647C83.1025 87.0647 81.2275 85.6588 81.2275 83.9243V70.77" stroke="url(#paint1_linear_54_3395)" stroke-width="3" stroke-linecap="round" stroke-linejoin="round"/>
<path d="M72.8369 61.043H72.3053C68.9145 61.043 66.1631 58.2944 66.1631 54.9071V42.1903C66.1631 38.2145 69.3887 34.9922 73.3685 34.9922H89.0654C93.0453 34.9922 96.2708 38.2145 96.2708 42.1903V54.9071C96.2708 58.2944 93.5194 61.043 90.1286 61.043H89.597" stroke="url(#paint2_linear_54_3395)" stroke-width="3" stroke-linecap="round" stroke-linejoin="round"/>
<path d="M81.2206 34.0303C85.1168 34.0303 88.2752 30.8751 88.2752 26.9829C88.2752 23.0908 85.1168 19.9355 81.2206 19.9355C77.3245 19.9355 74.166 23.0908 74.166 26.9829C74.166 30.8751 77.3245 34.0303 81.2206 34.0303Z" stroke="url(#paint3_linear_54_3395)" stroke-width="3" stroke-linecap="round" stroke-linejoin="round"/>
<path d="M87.1425 49.3394C86.9289 44.832 81.9889 39.4977 81.7808 39.2731L81.2276 38.6816L80.6745 39.2731C80.4663 39.4977 75.5208 44.832 75.3127 49.3394L75.3018 49.6352C75.3018 52.8445 77.958 55.4515 81.2276 55.4515C84.4972 55.4515 87.148 52.8391 87.148 49.6352C87.148 49.5366 87.148 49.438 87.137 49.3339L87.1425 49.3394Z" fill="white" stroke="url(#paint4_linear_54_3395)" stroke-width="1.5"/>
<path d="M81.2276 55.8683C77.7389 55.8683 74.8965 53.0752 74.8965 49.6412L74.9074 49.3345C75.1265 44.6793 80.1651 39.2299 80.3787 38.9999L80.9319 38.4084C81.0852 38.2441 81.37 38.2441 81.5234 38.4084L82.0765 38.9999C82.2901 39.2299 87.3287 44.6738 87.5478 49.3236C87.5533 49.4331 87.5588 49.5426 87.5588 49.6467C87.5588 53.0806 84.7218 55.8738 81.2276 55.8738V55.8683ZM81.2276 39.2847L80.9702 39.5585C80.7621 39.7776 75.9206 45.0134 75.718 49.3674L75.707 49.6577C75.707 52.6315 78.1825 55.0577 81.2276 55.0577C84.2727 55.0577 86.7427 52.6315 86.7427 49.6467C86.7427 49.5591 86.7427 49.466 86.7318 49.3674C86.5291 45.0079 81.6877 39.7776 81.4796 39.5585L81.2221 39.2847H81.2276Z" fill="url(#paint5_linear_54_3395)" stroke="url(#paint6_linear_54_3395)" stroke-width="1.5"/>
<path d="M85.8771 49.4006C85.7183 46.0215 82.361 41.8701 81.2273 40.5557C79.4967 42.5273 76.7254 46.3939 76.583 49.4006V49.68C76.5775 52.15 78.6642 54.1928 81.2328 54.1928C83.8014 54.1928 85.888 52.15 85.888 49.6416C85.888 49.5649 85.888 49.4937 85.8826 49.4116V49.4006H85.8771Z" fill="#FFC9C9"/>
</g>
<defs>
<linearGradient id="paint0_linear_54_3395" x1="77.0251" y1="21.3497" x2="77.0251" y2="84.4266" gradientUnits="userSpaceOnUse">
<stop offset="0.588542" stop-color="#FD7575"/>
<stop offset="1" stop-color="#E03131"/>
</linearGradient>
<linearGradient id="paint1_linear_54_3395" x1="85.4158" y1="21.3497" x2="85.4158" y2="84.4266" gradientUnits="userSpaceOnUse">
<stop offset="0.588542" stop-color="#FD7575"/>
<stop offset="1" stop-color="#E03131"/>
</linearGradient>
<linearGradient id="paint2_linear_54_3395" x1="81.217" y1="6.96636" x2="81.217" y2="58.8721" gradientUnits="userSpaceOnUse">
<stop offset="0.588542" stop-color="#FD7575"/>
<stop offset="1" stop-color="#E03131"/>
</linearGradient>
<linearGradient id="paint3_linear_54_3395" x1="81.2206" y1="4.77226" x2="81.2206" y2="32.8557" gradientUnits="userSpaceOnUse">
<stop offset="0.588542" stop-color="#FD7575"/>
<stop offset="1" stop-color="#E03131"/>
</linearGradient>
<linearGradient id="paint4_linear_54_3395" x1="81.2249" y1="20.6404" x2="81.2249" y2="54.054" gradientUnits="userSpaceOnUse">
<stop offset="0.588542" stop-color="#FD7575"/>
<stop offset="1" stop-color="#E03131"/>
</linearGradient>
<linearGradient id="paint5_linear_54_3395" x1="81.2276" y1="19.3631" x2="81.2276" y2="54.4081" gradientUnits="userSpaceOnUse">
<stop offset="0.588542" stop-color="#FD7575"/>
<stop offset="1" stop-color="#E03131"/>
</linearGradient>
<linearGradient id="paint6_linear_54_3395" x1="81.2276" y1="19.3631" x2="81.2276" y2="54.4081" gradientUnits="userSpaceOnUse">
<stop offset="0.588542" stop-color="#FD7575"/>
<stop offset="1" stop-color="#E03131"/>
</linearGradient>
<clipPath id="clip0_54_3395">
<rect width="70" height="70" fill="white" transform="translate(46.2207 18.5)"/>
</clipPath>
</defs>
</svg>
