<svg width="159" height="97" viewBox="0 0 159 97" fill="none" xmlns="http://www.w3.org/2000/svg">
<g clip-path="url(#clip0_54_3394)">
<path d="M32.1738 14.6533V19.347" stroke="#CECECE" stroke-linecap="round" stroke-linejoin="round"/>
<path d="M32.1738 5V9.68102" stroke="#CECECE" stroke-linecap="round" stroke-linejoin="round"/>
<path d="M34.6533 12.1738H39.347" stroke="#CECECE" stroke-linecap="round" stroke-linejoin="round"/>
<path d="M25 12.1738H29.681" stroke="#CECECE" stroke-linecap="round" stroke-linejoin="round"/>
<path d="M39.3467 34.6045V38.1216" stroke="#CECECE" stroke-linecap="round" stroke-linejoin="round"/>
<path d="M39.3467 27.3555V30.8726" stroke="#CECECE" stroke-linecap="round" stroke-linejoin="round"/>
<path d="M41.2061 32.7451H44.7231" stroke="#CECECE" stroke-linecap="round" stroke-linejoin="round"/>
<path d="M33.9697 32.7451H37.4742" stroke="#CECECE" stroke-linecap="round" stroke-linejoin="round"/>
<path d="M27.5879 27.7266V30.0671" stroke="#CECECE" stroke-linecap="round" stroke-linejoin="round"/>
<path d="M27.5879 22.8936V25.2341" stroke="#CECECE" stroke-linecap="round" stroke-linejoin="round"/>
<path d="M28.8281 26.4863H31.1813" stroke="#CECECE" stroke-linecap="round" stroke-linejoin="round"/>
<path d="M24.0078 26.4863H26.3483" stroke="#CECECE" stroke-linecap="round" stroke-linejoin="round"/>
<path d="M124.324 54.8252V58.3423" stroke="#CECECE" stroke-linecap="round" stroke-linejoin="round"/>
<path d="M124.324 47.5889V51.106" stroke="#CECECE" stroke-linecap="round" stroke-linejoin="round"/>
<path d="M126.184 52.9658H129.701" stroke="#CECECE" stroke-linecap="round" stroke-linejoin="round"/>
<path d="M118.935 52.9658H122.452" stroke="#CECECE" stroke-linecap="round" stroke-linejoin="round"/>
<path d="M131.595 64.7588V67.0993" stroke="#FFC9C9" stroke-linecap="round" stroke-linejoin="round"/>
<path d="M131.595 59.9258V62.2789" stroke="#FFC9C9" stroke-linecap="round" stroke-linejoin="round"/>
<path d="M132.848 63.5186H135.188" stroke="#FFC9C9" stroke-linecap="round" stroke-linejoin="round"/>
<path d="M128.015 63.5186H130.355" stroke="#FFC9C9" stroke-linecap="round" stroke-linejoin="round"/>
<path d="M118.316 64.3242V63.2599C118.316 61.9591 117.263 60.9033 115.966 60.9033H53.2967C51.9999 60.9033 50.9473 61.9591 50.9473 63.2599V66.8159H113.111C114.45 65.3716 116.303 64.4593 118.316 64.3242Z" fill="white"/>
<path d="M96.7912 27.9616H70.7954C69.5996 27.9616 68.6396 28.9329 68.6396 30.1239V38.4607C68.6396 39.6601 69.6081 40.623 70.7954 40.623H88.8502C91.3765 35.5551 96.4291 36.3997 98.9554 40.623V30.1155C98.9554 28.916 97.987 27.9531 96.7996 27.9531L96.7912 27.9616Z" fill="#FFC9C9"/>
<path d="M54.7368 91.3105C54.0378 91.3105 53.4736 90.7446 53.4736 90.0435V67.2377C53.4736 66.5366 54.0378 65.9707 54.7368 65.9707C55.4357 65.9707 55.9999 66.5366 55.9999 67.2377V90.0435C55.9999 90.7446 55.4357 91.3105 54.7368 91.3105Z" fill="url(#paint0_linear_54_3394)"/>
<path d="M112 67.6605H50.5259C49.8269 67.6605 49.2627 67.0945 49.2627 66.3935V63.2851C49.2627 61.0383 51.0816 59.2139 53.3216 59.2139H115.52C117.785 59.2139 119.637 61.0637 119.637 63.3443C119.637 64.0453 119.073 64.6112 118.374 64.6112C117.675 64.6112 117.111 64.0453 117.111 63.3443C117.111 62.4658 116.395 61.7478 115.52 61.7478H53.3216C52.4795 61.7478 51.789 62.4405 51.789 63.2851V65.1265H112C112.698 65.1265 113.263 65.6924 113.263 66.3935C113.263 67.0945 112.698 67.6605 112 67.6605Z" fill="url(#paint1_linear_54_3394)"/>
<path d="M123.377 22.8932H83.9956H44.6146C44.1683 22.8932 43.7556 22.6567 43.5283 22.2766C43.3009 21.8965 43.2841 21.4235 43.4946 21.0265L51.1325 6.66728C51.3514 6.2534 51.7809 6 52.2441 6H115.739C116.202 6 116.631 6.26184 116.85 6.66728L124.488 21.0265C124.699 21.415 124.682 21.8965 124.455 22.2766C124.227 22.6567 123.815 22.8932 123.368 22.8932H123.377ZM46.7199 20.3592H121.271L114.981 8.53398H53.002L46.7114 20.3592H46.7199Z" fill="url(#paint2_linear_54_3394)"/>
<path d="M63.1577 60.0585C62.4587 60.0585 61.8945 59.4925 61.8945 58.7915V22.4711C61.8945 21.77 62.4587 21.2041 63.1577 21.2041C63.8566 21.2041 64.4208 21.77 64.4208 22.4711V58.7915C64.4208 59.4925 63.8566 60.0585 63.1577 60.0585Z" fill="url(#paint3_linear_54_3394)"/>
<path d="M57.2632 60.0585C56.5642 60.0585 56 59.4925 56 58.7915V22.4711C56 21.77 56.5642 21.2041 57.2632 21.2041C57.9621 21.2041 58.5263 21.77 58.5263 22.4711V58.7915C58.5263 59.4925 57.9621 60.0585 57.2632 60.0585Z" fill="url(#paint4_linear_54_3394)"/>
<path d="M104.421 43.1653C103.722 43.1653 103.158 42.5993 103.158 41.8983V22.4711C103.158 21.77 103.722 21.2041 104.421 21.2041C105.12 21.2041 105.685 21.77 105.685 22.4711V41.8983C105.685 42.5993 105.12 43.1653 104.421 43.1653Z" fill="url(#paint5_linear_54_3394)"/>
<path d="M110.316 60.0585C109.617 60.0585 109.053 59.4925 109.053 58.7915V22.4711C109.053 21.77 109.617 21.2041 110.316 21.2041C111.015 21.2041 111.579 21.77 111.579 22.4711V58.7915C111.579 59.4925 111.015 60.0585 110.316 60.0585Z" fill="url(#paint6_linear_54_3394)"/>
<path d="M67.3689 35.5633H64.0005C63.3015 35.5633 62.7373 34.9974 62.7373 34.2963C62.7373 33.5952 63.3015 33.0293 64.0005 33.0293H67.3689C68.0678 33.0293 68.632 33.5952 68.632 34.2963C68.632 34.9974 68.0678 35.5633 67.3689 35.5633Z" fill="url(#paint7_linear_54_3394)"/>
<path d="M103.579 35.5633H100.21C99.5115 35.5633 98.9473 34.9974 98.9473 34.2963C98.9473 33.5952 99.5115 33.0293 100.21 33.0293H103.579C104.278 33.0293 104.842 33.5952 104.842 34.2963C104.842 34.9974 104.278 35.5633 103.579 35.5633Z" fill="url(#paint8_linear_54_3394)"/>
<path d="M46.3155 54.1458H42.105C41.406 54.1458 40.8418 53.5799 40.8418 52.8788C40.8418 52.1777 41.406 51.6118 42.105 51.6118H45.0523V37.7256C45.0523 35.1325 47.1576 33.0293 49.7344 33.0293H56.4207C57.1197 33.0293 57.6839 33.5952 57.6839 34.2963C57.6839 34.9974 57.1197 35.5633 56.4207 35.5633H49.7344C48.5471 35.5633 47.5786 36.5346 47.5786 37.7256V52.8788C47.5786 53.5799 47.0144 54.1458 46.3155 54.1458Z" fill="url(#paint9_linear_54_3394)"/>
<path d="M103.526 60.903C103.45 60.903 103.374 60.903 103.29 60.8777C102.608 60.751 102.153 60.0837 102.279 59.3995L104.528 47.3885H82.4183L84.6668 59.3995C84.7931 60.0837 84.3468 60.751 83.6562 60.8777C82.9657 61.0128 82.3089 60.5567 82.1825 59.8641L79.6562 46.3495C79.5889 45.9779 79.6899 45.5978 79.9257 45.3106C80.1699 45.0234 80.5236 44.8545 80.8941 44.8545H106.052C106.431 44.8545 106.785 45.0234 107.02 45.3106C107.265 45.5978 107.357 45.9863 107.29 46.3495L104.764 59.8641C104.646 60.4723 104.115 60.8946 103.526 60.8946V60.903Z" fill="url(#paint10_linear_54_3394)"/>
<path d="M97.6842 46.5435C96.9853 46.5435 96.4211 45.9776 96.4211 45.2765V41.1124C96.4211 39.4822 95.0989 38.1561 93.4737 38.1561C91.8484 38.1561 90.5263 39.4822 90.5263 41.1124V45.2765C90.5263 45.9776 89.9621 46.5435 89.2632 46.5435C88.5642 46.5435 88 45.9776 88 45.2765V41.1124C88 38.0885 90.4589 35.6221 93.4737 35.6221C96.4884 35.6221 98.9474 38.0885 98.9474 41.1124V45.2765C98.9474 45.9776 98.3832 46.5435 97.6842 46.5435Z" fill="url(#paint11_linear_54_3394)"/>
<path d="M104.505 84.908C104.194 81.6729 106.013 78.8264 108.724 77.6101C108.202 76.8415 107.899 75.9124 107.899 74.9072C107.899 72.2465 110.046 70.0926 112.699 70.0926C112.817 70.0926 112.935 70.1011 113.053 70.1095C113.895 67.7023 116.177 65.9707 118.872 65.9707H119.554C122.249 65.9707 124.531 67.7023 125.373 70.1095C125.491 70.1011 125.609 70.0926 125.726 70.0926C128.379 70.0926 130.526 72.2465 130.526 74.9072C130.526 75.9039 130.223 76.833 129.701 77.6101C132.244 78.7589 134.004 81.3351 133.954 84.3252C133.886 88.2528 130.501 91.3105 126.585 91.3105H111.798C108.11 91.3105 104.867 88.5823 104.514 84.908H104.505Z" fill="url(#paint12_linear_54_3394)"/>
<path d="M119.208 85.0944C118.77 85.0944 118.341 84.8664 118.113 84.4525C117.768 83.8443 117.979 83.0672 118.585 82.7209L124.48 79.3423C125.086 78.996 125.861 79.2071 126.206 79.8153C126.551 80.4235 126.341 81.2005 125.734 81.5469L119.84 84.9255C119.646 85.0353 119.427 85.0944 119.216 85.0944H119.208Z" fill="white"/>
<path d="M118.737 92.1558C118.038 92.1558 117.474 91.5898 117.474 90.8888V74.8402C117.474 74.1392 118.038 73.5732 118.737 73.5732C119.436 73.5732 120 74.1392 120 74.8402V90.8888C120 91.5898 119.436 92.1558 118.737 92.1558Z" fill="white"/>
<path d="M118.367 89.3172C118.106 89.3172 117.836 89.2328 117.609 89.0638L110.872 83.9959C110.316 83.5736 110.198 82.7796 110.619 82.2221C111.04 81.6646 111.832 81.5464 112.388 81.9687L119.125 87.0367C119.68 87.459 119.798 88.253 119.377 88.8105C119.133 89.1399 118.746 89.3172 118.367 89.3172Z" fill="white"/>
<path d="M134.737 92.9998H41.2632C40.5642 92.9998 40 92.4339 40 91.7328C40 91.0317 40.5642 90.4658 41.2632 90.4658H134.737C135.436 90.4658 136 91.0317 136 91.7328C136 92.4339 135.436 92.9998 134.737 92.9998Z" fill="url(#paint13_linear_54_3394)"/>
<path d="M70.9057 71.0391H63.832C63.2274 71.0391 62.7373 71.5307 62.7373 72.1371V75.009C62.7373 75.6154 63.2274 76.107 63.832 76.107H70.9057C71.5103 76.107 72.0005 75.6154 72.0005 75.009V72.1371C72.0005 71.5307 71.5103 71.0391 70.9057 71.0391Z" fill="#CECECE"/>
<path d="M83.5366 71.0391H76.4629C75.8583 71.0391 75.3682 71.5307 75.3682 72.1371V75.009C75.3682 75.6154 75.8583 76.107 76.4629 76.107H83.5366C84.1412 76.107 84.6313 75.6154 84.6313 75.009V72.1371C84.6313 71.5307 84.1412 71.0391 83.5366 71.0391Z" fill="#CECECE"/>
<path d="M96.1684 71.0391H89.0947C88.4901 71.0391 88 71.5307 88 72.1371V75.009C88 75.6154 88.4901 76.107 89.0947 76.107H96.1684C96.773 76.107 97.2632 75.6154 97.2632 75.009V72.1371C97.2632 71.5307 96.773 71.0391 96.1684 71.0391Z" fill="#CECECE"/>
<path d="M77.6421 79.4854H70.5684C69.9638 79.4854 69.4736 79.977 69.4736 80.5834V83.4553C69.4736 84.0617 69.9638 84.5533 70.5684 84.5533H77.6421C78.2467 84.5533 78.7368 84.0617 78.7368 83.4553V80.5834C78.7368 79.977 78.2467 79.4854 77.6421 79.4854Z" fill="#CECECE"/>
<path d="M90.2739 79.4854H83.2002C82.5956 79.4854 82.1055 79.977 82.1055 80.5834V83.4553C82.1055 84.0617 82.5956 84.5533 83.2002 84.5533H90.2739C90.8785 84.5533 91.3686 84.0617 91.3686 83.4553V80.5834C91.3686 79.977 90.8785 79.4854 90.2739 79.4854Z" fill="#CECECE"/>
<path d="M96.8311 54.7211C96.7162 52.2769 94.2878 49.274 93.4678 48.3232C92.2159 49.7494 90.2114 52.5462 90.1084 54.7211V54.9232C90.1044 56.7098 91.6138 58.1875 93.4718 58.1875C95.3297 58.1875 96.8391 56.7098 96.8391 54.8954C96.8391 54.84 96.8391 54.7885 96.8351 54.729V54.7211H96.8311Z" fill="#FFC9C9"/>
<g clip-path="url(#clip1_54_3394)">
<path d="M78.778 36.0465C78.6581 36.9913 79.5824 37.3138 81.1462 38.2632C82.645 39.1717 83.7941 40.1438 84.7234 41.0569C84.9033 41.234 85.1481 41.0478 85.0632 40.798C84.3737 38.8129 83.3445 36.9822 82.3952 35.942C81.1162 34.5474 78.9578 34.5792 78.773 36.0419L78.778 36.0465Z" fill="url(#paint14_linear_54_3394)"/>
<path d="M69.3599 42.4514C70.3392 43.6415 72.5275 43.9368 75.5302 43.1464C77.6586 42.5877 80.5364 42.724 82.7897 42.9647C83.2293 43.0101 83.3143 42.5377 82.9146 42.306C79.702 40.4709 76.3546 39.1172 73.8715 39.1172C70.3892 39.1217 68.0759 40.8888 69.3599 42.4514Z" fill="url(#paint15_linear_54_3394)"/>
</g>
</g>
<defs>
<linearGradient id="paint0_linear_54_3394" x1="54.7368" y1="38.7098" x2="54.7368" y2="89.1989" gradientUnits="userSpaceOnUse">
<stop offset="0.588542" stop-color="#FD7575"/>
<stop offset="1" stop-color="#E03131"/>
</linearGradient>
<linearGradient id="paint1_linear_54_3394" x1="84.4501" y1="50.1269" x2="84.4501" y2="66.9566" gradientUnits="userSpaceOnUse">
<stop offset="0.588542" stop-color="#FD7575"/>
<stop offset="1" stop-color="#E03131"/>
</linearGradient>
<linearGradient id="paint2_linear_54_3394" x1="83.9914" y1="-12.1739" x2="83.9914" y2="21.4854" gradientUnits="userSpaceOnUse">
<stop offset="0.588542" stop-color="#FD7575"/>
<stop offset="1" stop-color="#E03131"/>
</linearGradient>
<linearGradient id="paint3_linear_54_3394" x1="63.1577" y1="-20.5959" x2="63.1577" y2="56.8206" gradientUnits="userSpaceOnUse">
<stop offset="0.588542" stop-color="#FD7575"/>
<stop offset="1" stop-color="#E03131"/>
</linearGradient>
<linearGradient id="paint4_linear_54_3394" x1="57.2632" y1="-20.5959" x2="57.2632" y2="56.8206" gradientUnits="userSpaceOnUse">
<stop offset="0.588542" stop-color="#FD7575"/>
<stop offset="1" stop-color="#E03131"/>
</linearGradient>
<linearGradient id="paint5_linear_54_3394" x1="104.421" y1="-2.42199" x2="104.421" y2="41.3352" gradientUnits="userSpaceOnUse">
<stop offset="0.588542" stop-color="#FD7575"/>
<stop offset="1" stop-color="#E03131"/>
</linearGradient>
<linearGradient id="paint6_linear_54_3394" x1="110.316" y1="-20.5959" x2="110.316" y2="56.8206" gradientUnits="userSpaceOnUse">
<stop offset="0.588542" stop-color="#FD7575"/>
<stop offset="1" stop-color="#E03131"/>
</linearGradient>
<linearGradient id="paint7_linear_54_3394" x1="65.6847" y1="30.3032" x2="65.6847" y2="35.3521" gradientUnits="userSpaceOnUse">
<stop offset="0.588542" stop-color="#FD7575"/>
<stop offset="1" stop-color="#E03131"/>
</linearGradient>
<linearGradient id="paint8_linear_54_3394" x1="101.895" y1="30.3032" x2="101.895" y2="35.3521" gradientUnits="userSpaceOnUse">
<stop offset="0.588542" stop-color="#FD7575"/>
<stop offset="1" stop-color="#E03131"/>
</linearGradient>
<linearGradient id="paint9_linear_54_3394" x1="49.2628" y1="10.3119" x2="49.2628" y2="52.3861" gradientUnits="userSpaceOnUse">
<stop offset="0.588542" stop-color="#FD7575"/>
<stop offset="1" stop-color="#E03131"/>
</linearGradient>
<linearGradient id="paint10_linear_54_3394" x1="93.4735" y1="27.5893" x2="93.4735" y2="59.5657" gradientUnits="userSpaceOnUse">
<stop offset="0.588542" stop-color="#FD7575"/>
<stop offset="1" stop-color="#E03131"/>
</linearGradient>
<linearGradient id="paint11_linear_54_3394" x1="93.4737" y1="23.8726" x2="93.4737" y2="45.6334" gradientUnits="userSpaceOnUse">
<stop offset="0.588542" stop-color="#FD7575"/>
<stop offset="1" stop-color="#E03131"/>
</linearGradient>
<linearGradient id="paint12_linear_54_3394" x1="119.213" y1="38.7098" x2="119.213" y2="89.1989" gradientUnits="userSpaceOnUse">
<stop offset="0.588542" stop-color="#FD7575"/>
<stop offset="1" stop-color="#E03131"/>
</linearGradient>
<linearGradient id="paint13_linear_54_3394" x1="88" y1="87.7397" x2="88" y2="92.7886" gradientUnits="userSpaceOnUse">
<stop offset="0.588542" stop-color="#FD7575"/>
<stop offset="1" stop-color="#E03131"/>
</linearGradient>
<linearGradient id="paint14_linear_54_3394" x1="81.9241" y1="28.2425" x2="81.9241" y2="40.6096" gradientUnits="userSpaceOnUse">
<stop offset="0.588542" stop-color="#FD7575"/>
<stop offset="1" stop-color="#E03131"/>
</linearGradient>
<linearGradient id="paint15_linear_54_3394" x1="76.0864" y1="34.3078" x2="76.0864" y2="43.2151" gradientUnits="userSpaceOnUse">
<stop offset="0.588542" stop-color="#FD7575"/>
<stop offset="1" stop-color="#E03131"/>
</linearGradient>
<clipPath id="clip0_54_3394">
<rect width="113" height="89" fill="white" transform="translate(23 4)"/>
</clipPath>
<clipPath id="clip1_54_3394">
<rect width="16.0877" height="8.6626" fill="white" transform="translate(69 34.9248)"/>
</clipPath>
</defs>
</svg>
