<svg width="159" height="97" viewBox="0 0 159 97" fill="none" xmlns="http://www.w3.org/2000/svg">
<g clip-path="url(#clip0_54_3383)">
<path d="M21.1738 16.6533V21.347" stroke="#CECECE" stroke-linecap="round" stroke-linejoin="round"/>
<path d="M21.1738 7V11.681" stroke="#CECECE" stroke-linecap="round" stroke-linejoin="round"/>
<path d="M23.6533 14.1738H28.347" stroke="#CECECE" stroke-linecap="round" stroke-linejoin="round"/>
<path d="M14 14.1738H18.681" stroke="#CECECE" stroke-linecap="round" stroke-linejoin="round"/>
<path d="M28.3467 36.6045V40.1216" stroke="#CECECE" stroke-linecap="round" stroke-linejoin="round"/>
<path d="M28.3467 29.3555V32.8726" stroke="#CECECE" stroke-linecap="round" stroke-linejoin="round"/>
<path d="M30.2061 34.7451H33.7231" stroke="#CECECE" stroke-linecap="round" stroke-linejoin="round"/>
<path d="M22.9697 34.7451H26.4742" stroke="#CECECE" stroke-linecap="round" stroke-linejoin="round"/>
<path d="M40.5879 16.7266V19.0671" stroke="#CECECE" stroke-linecap="round" stroke-linejoin="round"/>
<path d="M40.5879 11.8936V14.2341" stroke="#CECECE" stroke-linecap="round" stroke-linejoin="round"/>
<path d="M41.8281 15.4863H44.1813" stroke="#CECECE" stroke-linecap="round" stroke-linejoin="round"/>
<path d="M37.0078 15.4863H39.3483" stroke="#CECECE" stroke-linecap="round" stroke-linejoin="round"/>
<path d="M132.39 34.0859V37.603" stroke="#CECECE" stroke-linecap="round" stroke-linejoin="round"/>
<path d="M132.39 26.8496V30.3667" stroke="#CECECE" stroke-linecap="round" stroke-linejoin="round"/>
<path d="M134.249 32.2266H137.766" stroke="#CECECE" stroke-linecap="round" stroke-linejoin="round"/>
<path d="M127 32.2266H130.517" stroke="#CECECE" stroke-linecap="round" stroke-linejoin="round"/>
<path d="M145.66 42.0186V44.3591" stroke="#CED8FA" stroke-linecap="round" stroke-linejoin="round"/>
<path d="M145.66 37.1855V39.5387" stroke="#CED8FA" stroke-linecap="round" stroke-linejoin="round"/>
<path d="M146.913 40.7783H149.254" stroke="#CED8FA" stroke-linecap="round" stroke-linejoin="round"/>
<path d="M142.08 40.7783H144.421" stroke="#CED8FA" stroke-linecap="round" stroke-linejoin="round"/>
<g clip-path="url(#clip1_54_3383)">
<path d="M105.245 25.708C104.009 27.8222 103.292 30.2588 103.292 32.8747V90.208H56.7088V32.8747C56.7088 30.2588 55.9921 27.8222 54.7559 25.708H105.245Z" fill="#CED8FA"/>
<path d="M103.292 81.2503C102.826 81.2503 102.378 81.322 101.93 81.3937C100.085 78.1149 96.5729 75.8753 92.5417 75.8753C89.4421 75.8753 86.6471 77.2012 84.6942 79.2974C83.1712 75.2124 79.2475 72.292 74.625 72.292C71.2388 72.292 68.2288 73.8687 66.2579 76.3053C65.5054 76.0366 64.7171 75.8753 63.875 75.8753C60.5246 75.8753 57.7475 78.1687 56.9592 81.2682C56.8696 81.2682 56.7979 81.2503 56.7083 81.2503C51.7633 81.2503 47.75 85.2637 47.75 90.2087H112.25C112.25 85.2637 108.237 81.2503 103.292 81.2503Z" fill="#CED8FA"/>
<path d="M121.208 6C117.32 6 113.737 8.15 111.856 11.5004C111.39 11.4287 110.924 11.375 110.458 11.375C105.513 11.375 101.5 15.3883 101.5 20.3333C101.5 21.5875 101.787 22.8058 102.27 23.9167H57.7296C58.2133 22.8058 58.5 21.5875 58.5 20.3333C58.5 15.3883 54.4867 11.375 49.5417 11.375C49.0758 11.375 48.61 11.4108 48.1442 11.5004C46.2629 8.15 42.6796 6 38.7917 6C37.8062 6 37 6.80625 37 7.79167V90.2083C37 91.1937 37.8062 92 38.7917 92H121.208C122.194 92 123 91.1937 123 90.2083V7.79167C123 6.80625 122.194 6 121.208 6ZM101.5 32.875V77.8817C99.1708 75.4987 95.9637 74.0833 92.5417 74.0833C89.89 74.0833 87.3638 74.9075 85.2675 76.4125C83.01 72.7933 78.9967 70.5 74.625 70.5C71.2208 70.5 68.0138 71.8617 65.6667 74.2804C63.0329 73.7071 60.4708 74.3879 58.5 75.8929V32.875C58.5 31.0296 58.1775 29.22 57.5683 27.5H102.45C101.84 29.22 101.518 31.0296 101.518 32.875H101.5ZM40.5833 9.81625C42.7871 10.4075 44.6504 12.0379 45.4746 14.2417C45.815 15.1554 46.8362 15.6213 47.75 15.2987C48.3771 15.0658 48.9683 14.9583 49.5417 14.9583C52.4979 14.9583 54.9167 17.3771 54.9167 20.3333C54.9167 21.7667 54.3612 23.1283 53.34 24.1496C52.7487 24.7408 52.6413 25.6546 53.0713 26.3533C54.2717 28.3242 54.9167 30.5817 54.9167 32.875V79.6554C50.4375 80.4079 46.89 83.9375 46.1375 88.4167H40.5833V9.81625ZM49.7746 88.4167C50.5629 85.335 53.3579 83.0417 56.5829 83.0417C56.6725 83.0417 56.8875 83.0775 56.9592 83.0775C57.7833 83.0775 58.5 82.5221 58.6971 81.7337C59.3062 79.3508 61.4383 77.6846 63.875 77.6846C64.4304 77.6846 65.0217 77.7921 65.6667 78.025C66.3833 78.2758 67.1717 78.0429 67.6554 77.4517C69.3754 75.3196 71.9017 74.1012 74.625 74.1012C78.3337 74.1012 81.72 76.4483 83.01 79.9421C83.225 80.5333 83.7267 80.9454 84.3358 81.0708C84.945 81.1963 85.5721 80.9812 86.0021 80.5333C87.7221 78.6879 90.0513 77.6846 92.5417 77.6846C95.7846 77.6846 98.7767 79.4404 100.353 82.2892C100.712 82.9342 101.464 83.2925 102.199 83.185C102.557 83.1312 102.915 83.0596 103.292 83.0596C106.624 83.0596 109.437 85.3529 110.225 88.4346H49.7746V88.4167ZM119.417 88.4167H113.88C113.128 83.9196 109.58 80.3721 105.083 79.6196V32.875C105.083 30.5817 105.728 28.3242 106.929 26.3533C107.359 25.6367 107.251 24.7229 106.66 24.1496C105.639 23.1283 105.083 21.7846 105.083 20.3333C105.083 17.3771 107.502 14.9583 110.458 14.9583C111.032 14.9583 111.605 15.0658 112.25 15.2987C113.164 15.6213 114.185 15.1554 114.525 14.2417C115.35 12.0379 117.213 10.4075 119.417 9.81625V88.4167Z" fill="url(#paint0_linear_54_3383)"/>
<path d="M67.4587 45.4163C68.4441 45.4163 69.2503 44.6101 69.2503 43.6247V32.8747C69.2503 31.8893 68.4441 31.083 67.4587 31.083C66.4732 31.083 65.667 31.8893 65.667 32.8747V43.6247C65.667 44.6101 66.4732 45.4163 67.4587 45.4163Z" fill="url(#paint1_linear_54_3383)"/>
<path d="M67.4587 56.1667C68.4441 56.1667 69.2503 55.3604 69.2503 54.375V50.7917C69.2503 49.8062 68.4441 49 67.4587 49C66.4732 49 65.667 49.8062 65.667 50.7917V54.375C65.667 55.3604 66.4732 56.1667 67.4587 56.1667Z" fill="url(#paint2_linear_54_3383)"/>
<path d="M79.9997 49.0003C80.9851 49.0003 81.7913 48.1941 81.7913 47.2087V36.4587C81.7913 35.4732 80.9851 34.667 79.9997 34.667C79.0143 34.667 78.208 35.4732 78.208 36.4587V47.2087C78.208 48.1941 79.0143 49.0003 79.9997 49.0003Z" fill="url(#paint3_linear_54_3383)"/>
<path d="M79.9997 59.7497C80.9851 59.7497 81.7913 58.9434 81.7913 57.958V54.3747C81.7913 53.3893 80.9851 52.583 79.9997 52.583C79.0143 52.583 78.208 53.3893 78.208 54.3747V57.958C78.208 58.9434 79.0143 59.7497 79.9997 59.7497Z" fill="url(#paint4_linear_54_3383)"/>
<path d="M92.5417 41.833C93.5271 41.833 94.3333 41.0268 94.3333 40.0413V32.8747C94.3333 31.8893 93.5271 31.083 92.5417 31.083C91.5562 31.083 90.75 31.8893 90.75 32.8747V40.0413C90.75 41.0268 91.5562 41.833 92.5417 41.833Z" fill="url(#paint5_linear_54_3383)"/>
<path d="M92.5417 54.3753C93.5271 54.3753 94.3333 53.5691 94.3333 52.5837V47.2087C94.3333 46.2232 93.5271 45.417 92.5417 45.417C91.5562 45.417 90.75 46.2232 90.75 47.2087V52.5837C90.75 53.5691 91.5562 54.3753 92.5417 54.3753Z" fill="url(#paint6_linear_54_3383)"/>
<path d="M62.0837 70.5003C63.0732 70.5003 63.8753 69.6982 63.8753 68.7087C63.8753 67.7191 63.0732 66.917 62.0837 66.917C61.0941 66.917 60.292 67.7191 60.292 68.7087C60.292 69.6982 61.0941 70.5003 62.0837 70.5003Z" fill="url(#paint7_linear_54_3383)"/>
<path d="M87.1667 72.2913C88.1562 72.2913 88.9583 71.4892 88.9583 70.4997C88.9583 69.5102 88.1562 68.708 87.1667 68.708C86.1772 68.708 85.375 69.5102 85.375 70.4997C85.375 71.4892 86.1772 72.2913 87.1667 72.2913Z" fill="url(#paint8_linear_54_3383)"/>
<path d="M96.1247 70.5003C97.1142 70.5003 97.9163 69.6982 97.9163 68.7087C97.9163 67.7191 97.1142 66.917 96.1247 66.917C95.1352 66.917 94.333 67.7191 94.333 68.7087C94.333 69.6982 95.1352 70.5003 96.1247 70.5003Z" fill="url(#paint9_linear_54_3383)"/>
<path d="M53.125 40.0413V38.2497C53.125 37.2643 52.3187 36.458 51.3333 36.458C50.3479 36.458 49.5417 37.2643 49.5417 38.2497V40.0413C49.5417 41.0268 48.7354 41.833 47.75 41.833C46.7646 41.833 45.9583 41.0268 45.9583 40.0413V32.8747C45.9583 31.8893 45.1521 31.083 44.1667 31.083C43.1812 31.083 42.375 31.8893 42.375 32.8747V40.0413C42.375 42.9976 44.7938 45.4163 47.75 45.4163C50.7063 45.4163 53.125 42.9976 53.125 40.0413Z" fill="url(#paint10_linear_54_3383)"/>
<path d="M114.042 36.4587V40.042C114.042 41.0274 113.235 41.8337 112.25 41.8337C111.265 41.8337 110.458 41.0274 110.458 40.042V36.4587C110.458 35.4732 109.652 34.667 108.667 34.667C107.681 34.667 106.875 35.4732 106.875 36.4587V40.042C106.875 42.9982 109.294 45.417 112.25 45.417C115.206 45.417 117.625 42.9982 117.625 40.042V36.4587C117.625 35.4732 116.819 34.667 115.833 34.667C114.848 34.667 114.042 35.4732 114.042 36.4587Z" fill="url(#paint11_linear_54_3383)"/>
<path d="M115.833 57.958C114.848 57.958 114.042 58.7643 114.042 59.7497V65.1247C114.042 66.1101 113.235 66.9163 112.25 66.9163C111.265 66.9163 110.458 66.1101 110.458 65.1247V63.333C110.458 62.3476 109.652 61.5413 108.667 61.5413C107.681 61.5413 106.875 62.3476 106.875 63.333V65.1247C106.875 68.0809 109.294 70.4997 112.25 70.4997C115.206 70.4997 117.625 68.0809 117.625 65.1247V59.7497C117.625 58.7643 116.819 57.958 115.833 57.958Z" fill="url(#paint12_linear_54_3383)"/>
<path d="M45.9587 49C44.9732 49 44.167 49.8062 44.167 50.7917V56.1667C44.167 57.1521 44.9732 57.9583 45.9587 57.9583C46.9441 57.9583 47.7503 57.1521 47.7503 56.1667V50.7917C47.7503 49.8062 46.9441 49 45.9587 49Z" fill="url(#paint13_linear_54_3383)"/>
<path d="M47.7503 66.917V63.3337C47.7503 62.3482 46.9441 61.542 45.9587 61.542C44.9732 61.542 44.167 62.3482 44.167 63.3337V66.917C44.167 67.9024 44.9732 68.7087 45.9587 68.7087C46.9441 68.7087 47.7503 67.9024 47.7503 66.917Z" fill="url(#paint14_linear_54_3383)"/>
</g>
<circle cx="24" cy="75" r="3" fill="#CED8FA"/>
<circle r="2.375" transform="matrix(-1 0 0 1 136.333 62.375)" fill="#CED8FA"/>
<circle cx="23.5" cy="60.5" r="6.5" fill="url(#paint15_linear_54_3383)"/>
<circle r="4.5" transform="matrix(-1 0 0 1 134.5 76.5)" fill="url(#paint16_linear_54_3383)"/>
<circle cx="13" cy="78" r="5" fill="#CED8FA"/>
<circle r="3.95833" transform="matrix(-1 0 0 1 145.042 56.9583)" fill="#CED8FA"/>
</g>
<defs>
<linearGradient id="paint0_linear_54_3383" x1="80" y1="-86.5199" x2="80" y2="84.8333" gradientUnits="userSpaceOnUse">
<stop offset="0.416667" stop-color="#7A98FF"/>
<stop offset="1" stop-color="#1A4CFB"/>
</linearGradient>
<linearGradient id="paint1_linear_54_3383" x1="67.4587" y1="15.663" x2="67.4587" y2="44.2219" gradientUnits="userSpaceOnUse">
<stop offset="0.416667" stop-color="#7A98FF"/>
<stop offset="1" stop-color="#1A4CFB"/>
</linearGradient>
<linearGradient id="paint2_linear_54_3383" x1="67.4587" y1="41.29" x2="67.4587" y2="55.5694" gradientUnits="userSpaceOnUse">
<stop offset="0.416667" stop-color="#7A98FF"/>
<stop offset="1" stop-color="#1A4CFB"/>
</linearGradient>
<linearGradient id="paint3_linear_54_3383" x1="79.9997" y1="19.247" x2="79.9997" y2="47.8059" gradientUnits="userSpaceOnUse">
<stop offset="0.416667" stop-color="#7A98FF"/>
<stop offset="1" stop-color="#1A4CFB"/>
</linearGradient>
<linearGradient id="paint4_linear_54_3383" x1="79.9997" y1="44.873" x2="79.9997" y2="59.1525" gradientUnits="userSpaceOnUse">
<stop offset="0.416667" stop-color="#7A98FF"/>
<stop offset="1" stop-color="#1A4CFB"/>
</linearGradient>
<linearGradient id="paint5_linear_54_3383" x1="92.5417" y1="19.518" x2="92.5417" y2="40.9372" gradientUnits="userSpaceOnUse">
<stop offset="0.416667" stop-color="#7A98FF"/>
<stop offset="1" stop-color="#1A4CFB"/>
</linearGradient>
<linearGradient id="paint6_linear_54_3383" x1="92.5417" y1="35.7795" x2="92.5417" y2="53.6288" gradientUnits="userSpaceOnUse">
<stop offset="0.416667" stop-color="#7A98FF"/>
<stop offset="1" stop-color="#1A4CFB"/>
</linearGradient>
<linearGradient id="paint7_linear_54_3383" x1="62.0837" y1="63.062" x2="62.0837" y2="70.2017" gradientUnits="userSpaceOnUse">
<stop offset="0.416667" stop-color="#7A98FF"/>
<stop offset="1" stop-color="#1A4CFB"/>
</linearGradient>
<linearGradient id="paint8_linear_54_3383" x1="87.1667" y1="64.853" x2="87.1667" y2="71.9927" gradientUnits="userSpaceOnUse">
<stop offset="0.416667" stop-color="#7A98FF"/>
<stop offset="1" stop-color="#1A4CFB"/>
</linearGradient>
<linearGradient id="paint9_linear_54_3383" x1="96.1247" y1="63.062" x2="96.1247" y2="70.2017" gradientUnits="userSpaceOnUse">
<stop offset="0.416667" stop-color="#7A98FF"/>
<stop offset="1" stop-color="#1A4CFB"/>
</linearGradient>
<linearGradient id="paint10_linear_54_3383" x1="47.75" y1="15.663" x2="47.75" y2="44.2219" gradientUnits="userSpaceOnUse">
<stop offset="0.416667" stop-color="#7A98FF"/>
<stop offset="1" stop-color="#1A4CFB"/>
</linearGradient>
<linearGradient id="paint11_linear_54_3383" x1="112.25" y1="23.102" x2="112.25" y2="44.5212" gradientUnits="userSpaceOnUse">
<stop offset="0.416667" stop-color="#7A98FF"/>
<stop offset="1" stop-color="#1A4CFB"/>
</linearGradient>
<linearGradient id="paint12_linear_54_3383" x1="112.25" y1="44.4655" x2="112.25" y2="69.4545" gradientUnits="userSpaceOnUse">
<stop offset="0.416667" stop-color="#7A98FF"/>
<stop offset="1" stop-color="#1A4CFB"/>
</linearGradient>
<linearGradient id="paint13_linear_54_3383" x1="45.9587" y1="39.3625" x2="45.9587" y2="57.2118" gradientUnits="userSpaceOnUse">
<stop offset="0.416667" stop-color="#7A98FF"/>
<stop offset="1" stop-color="#1A4CFB"/>
</linearGradient>
<linearGradient id="paint14_linear_54_3383" x1="45.9587" y1="53.832" x2="45.9587" y2="68.1114" gradientUnits="userSpaceOnUse">
<stop offset="0.416667" stop-color="#7A98FF"/>
<stop offset="1" stop-color="#1A4CFB"/>
</linearGradient>
<linearGradient id="paint15_linear_54_3383" x1="23.5" y1="40.0144" x2="23.5" y2="65.9167" gradientUnits="userSpaceOnUse">
<stop offset="0.416667" stop-color="#7A98FF"/>
<stop offset="1" stop-color="#1A4CFB"/>
</linearGradient>
<linearGradient id="paint16_linear_54_3383" x1="4.5" y1="-9.68231" x2="4.5" y2="8.25" gradientUnits="userSpaceOnUse">
<stop offset="0.416667" stop-color="#7A98FF"/>
<stop offset="1" stop-color="#1A4CFB"/>
</linearGradient>
<clipPath id="clip0_54_3383">
<rect width="142" height="86" fill="white" transform="matrix(-1 0 0 1 150 6)"/>
</clipPath>
<clipPath id="clip1_54_3383">
<rect width="86" height="86" fill="white" transform="translate(37 6)"/>
</clipPath>
</defs>
</svg>
