<svg width="159" height="97" viewBox="0 0 159 97" fill="none" xmlns="http://www.w3.org/2000/svg">
<g clip-path="url(#clip0_121_7673)">
<path d="M55.8066 11.2852V15.9789" stroke="#CECECE" stroke-linecap="round" stroke-linejoin="round"/>
<path d="M55.8066 1.63281V6.31384" stroke="#CECECE" stroke-linecap="round" stroke-linejoin="round"/>
<path d="M58.2861 8.80664H62.9798" stroke="#CECECE" stroke-linecap="round" stroke-linejoin="round"/>
<path d="M48.6328 8.80664H53.3138" stroke="#CECECE" stroke-linecap="round" stroke-linejoin="round"/>
<path d="M62.9795 31.2363V34.7534" stroke="#CECECE" stroke-linecap="round" stroke-linejoin="round"/>
<path d="M62.9795 23.9883V27.5054" stroke="#CECECE" stroke-linecap="round" stroke-linejoin="round"/>
<path d="M64.8389 29.377H68.356" stroke="#CECECE" stroke-linecap="round" stroke-linejoin="round"/>
<path d="M57.6025 29.377H61.107" stroke="#CECECE" stroke-linecap="round" stroke-linejoin="round"/>
<path d="M125.636 86.457V89.9741" stroke="#CECECE" stroke-linecap="round" stroke-linejoin="round"/>
<path d="M125.636 79.2227V82.7398" stroke="#CECECE" stroke-linecap="round" stroke-linejoin="round"/>
<path d="M127.495 84.5977H131.012" stroke="#CECECE" stroke-linecap="round" stroke-linejoin="round"/>
<path d="M120.246 84.5977H123.763" stroke="#CECECE" stroke-linecap="round" stroke-linejoin="round"/>
<path d="M84.2207 16.3594V18.6999" stroke="#CECECE" stroke-linecap="round" stroke-linejoin="round"/>
<path d="M84.2207 11.5273V13.8678" stroke="#CECECE" stroke-linecap="round" stroke-linejoin="round"/>
<path d="M85.4609 15.1191H87.8141" stroke="#CECECE" stroke-linecap="round" stroke-linejoin="round"/>
<path d="M80.6406 15.1191H82.9811" stroke="#CECECE" stroke-linecap="round" stroke-linejoin="round"/>
<path d="M138.906 94.3906V96.7311" stroke="#FFD8A8" stroke-linecap="round" stroke-linejoin="round"/>
<path d="M138.906 89.5586V91.9118" stroke="#FFD8A8" stroke-linecap="round" stroke-linejoin="round"/>
<path d="M140.159 93.1523H142.5" stroke="#FFD8A8" stroke-linecap="round" stroke-linejoin="round"/>
<path d="M135.326 93.1523H137.667" stroke="#FFD8A8" stroke-linecap="round" stroke-linejoin="round"/>
<path d="M70.6832 69.6218L69.5938 63.8619L83.0792 61.3114C84.6691 61.0107 86.1988 62.0538 86.4995 63.6437C86.8002 65.2336 85.7572 66.7633 84.1673 67.064L70.6817 69.6145L70.6832 69.6218Z" fill="white" stroke="url(#paint0_linear_121_7673)" stroke-width="1.7" stroke-linecap="round" stroke-linejoin="round"/>
<path d="M71.0101 74.5626L70.4482 68.7276L84.1096 67.4121C85.7202 67.2571 87.1489 68.4347 87.304 70.0454C87.4591 71.6561 86.2814 73.0847 84.6707 73.2398L71.0094 74.5553L71.0101 74.5626Z" fill="white" stroke="url(#paint1_linear_121_7673)" stroke-width="1.7" stroke-linecap="round" stroke-linejoin="round"/>
<path d="M68.1056 93V88.3516L64.178 78.893C62.8173 75.6126 63.06 71.891 64.8252 68.8166L69.1353 61.3144C70.4666 58.9976 72.5701 57.225 75.0708 56.2909L79.8957 54.5036C81.2564 53.9961 82.7642 54.7243 83.2276 56.0997C83.6174 57.2691 83.1246 58.5416 82.0508 59.1447L76.1005 62.5059L73.3939 66.9999C72.2833 68.846 72.7466 71.2364 74.4751 72.5382L81.5359 77.8412L81.5506 88.3295" fill="white"/>
<path d="M68.1056 93V88.3516L64.178 78.893C62.8173 75.6126 63.06 71.891 64.8252 68.8166L69.1353 61.3144C70.4666 58.9976 72.5701 57.225 75.0708 56.2909L79.8957 54.5036C81.2564 53.9961 82.7642 54.7243 83.2276 56.0997C83.6174 57.2691 83.1246 58.5416 82.0508 59.1447L76.1005 62.5059L73.3939 66.9999C72.2833 68.846 72.7466 71.2364 74.4751 72.5382L81.5359 77.8412L81.5506 88.3295" stroke="url(#paint2_linear_121_7673)" stroke-width="3" stroke-linecap="round" stroke-linejoin="round"/>
<path d="M100.49 81.5333C117.669 81.5333 131.595 67.6073 131.595 50.4287C131.595 33.2502 117.669 19.3242 100.49 19.3242C83.3117 19.3242 69.3857 33.2502 69.3857 50.4287C69.3857 67.6073 83.3117 81.5333 100.49 81.5333Z" fill="white" stroke="url(#paint3_linear_121_7673)" stroke-width="3" stroke-linecap="round" stroke-linejoin="round"/>
<path d="M73.7762 79.5681C73.813 79.2739 73.2981 67.8001 73.0701 62.7839C73.0113 61.4379 73.9013 60.239 75.2031 59.9006C76.8359 59.4814 78.4687 60.5699 78.7188 62.2322L80.815 76.1627C83.4187 80.2006 84.2425 85.1358 83.073 89.7989L81.8447 94.6975" fill="white"/>
<path d="M73.7762 79.5681C73.813 79.2739 73.2981 67.8001 73.0701 62.7839C73.0113 61.4379 73.9013 60.239 75.2031 59.9006C76.8359 59.4814 78.4687 60.5699 78.7188 62.2322L80.815 76.1627C83.4187 80.2006 84.2425 85.1358 83.073 89.7989L81.8447 94.6975" stroke="url(#paint4_linear_121_7673)" stroke-width="3" stroke-linecap="round" stroke-linejoin="round"/>
<path d="M100.49 72.1863C112.505 72.1863 122.246 62.4457 122.246 50.43C122.246 38.4144 112.505 28.6738 100.49 28.6738C88.474 28.6738 78.7334 38.4144 78.7334 50.43C78.7334 62.4457 88.474 72.1863 100.49 72.1863Z" fill="#FFD8A8"/>
<path d="M105.035 73.1924L97.4957 62.6232C94.892 58.9751 96.3484 53.8486 100.475 52.1054L107.528 49.134C110.477 47.891 113.111 46.0154 115.244 43.6324L120.348 37.9322C123.341 34.593 128.659 34.8872 131.263 38.5427L138.802 49.1119C141.405 52.76 139.949 57.8865 135.823 59.6297L128.769 62.6011C125.82 63.8441 123.187 65.7196 121.054 68.1027L115.95 73.8028C112.956 77.142 107.638 76.8478 105.035 73.1924Z" fill="white" stroke="url(#paint5_linear_121_7673)" stroke-width="3" stroke-linecap="round" stroke-linejoin="round"/>
<path d="M104.764 55.3789L113.222 62.4618" stroke="url(#paint6_linear_121_7673)" stroke-width="3" stroke-miterlimit="10" stroke-linecap="round"/>
<path d="M105.558 48.4961L109.228 51.5705" stroke="url(#paint7_linear_121_7673)" stroke-width="3" stroke-miterlimit="10" stroke-linecap="round"/>
<path d="M109.272 44.0605L112.95 47.1349" stroke="url(#paint8_linear_121_7673)" stroke-width="3" stroke-miterlimit="10" stroke-linecap="round"/>
<path d="M141.414 62.2854L137.354 58.88L135.971 55.4893C134.265 51.3043 131.558 47.6047 128.094 44.7068L122.165 39.7421L119.635 37.6239C118.436 36.6162 116.605 36.6162 115.531 37.7636C114.391 38.9846 114.524 40.8969 115.789 41.956L113.119 39.7201C111.92 38.7124 110.088 38.7124 109.015 39.8598C107.875 41.0808 108.007 42.9931 109.272 44.0522L107.727 42.7577C106.529 41.7501 104.697 41.7501 103.623 42.8975C102.483 44.1184 102.616 46.0307 103.881 47.0898L105.55 48.4873C104.285 47.4282 102.38 47.6341 101.373 48.9727C100.431 50.2231 100.755 52.0251 101.954 53.0327L109.243 59.1301C109.243 59.1301 104.697 55.3349 104.668 55.3128L104.307 55.0112L104.491 57.0633L104.734 59.8141C104.925 61.947 105.955 63.9256 107.595 65.301L110.059 67.3604C112.177 69.1329 114.891 70.0155 117.642 69.8317L127.674 70.4054L131.734 73.8107" fill="white"/>
<path d="M141.414 62.2854L137.354 58.88L135.971 55.4893C134.265 51.3043 131.558 47.6047 128.094 44.7068L122.165 39.7421L119.635 37.6239C118.436 36.6162 116.605 36.6162 115.531 37.7636C114.391 38.9846 114.524 40.8969 115.789 41.956L113.119 39.7201C111.92 38.7124 110.088 38.7124 109.015 39.8598C107.875 41.0808 108.007 42.9931 109.272 44.0522L107.727 42.7577C106.529 41.7501 104.697 41.7501 103.623 42.8975C102.483 44.1184 102.616 46.0307 103.881 47.0898L105.55 48.4873C104.285 47.4282 102.38 47.6341 101.373 48.9727C100.431 50.2231 100.755 52.0251 101.954 53.0327L109.243 59.1301C109.243 59.1301 104.697 55.3349 104.668 55.3128L104.307 55.0112L104.491 57.0633L104.734 59.8141C104.925 61.947 105.955 63.9256 107.595 65.301L110.059 67.3604C112.177 69.1329 114.891 70.0155 117.642 69.8317L127.674 70.4054L131.734 73.8107" stroke="url(#paint9_linear_121_7673)" stroke-width="3" stroke-miterlimit="10"/>
<path d="M109.257 44.0371L112.949 47.1336" stroke="url(#paint10_linear_121_7673)" stroke-width="3" stroke-miterlimit="10"/>
<path d="M109.228 51.5696L105.536 48.4805" stroke="url(#paint11_linear_121_7673)" stroke-width="3" stroke-miterlimit="10"/>
<path d="M104.764 55.3789L113.222 62.4618" stroke="url(#paint12_linear_121_7673)" stroke-width="3" stroke-miterlimit="10" stroke-linecap="round"/>
<path d="M115.789 41.957L116.664 42.6925L115.789 41.957Z" fill="white" stroke="url(#paint13_linear_121_7673)" stroke-width="3" stroke-miterlimit="10" stroke-linecap="round"/>
<path d="M29.0436 53.9141H22.5215V57.7506H29.0436V53.9141Z" stroke="url(#paint14_linear_121_7673)" stroke-width="1.5" stroke-linecap="round" stroke-linejoin="round"/>
<path d="M33.9038 66.4477L29.0437 58.0977H22.5873L17.6973 66.3135L33.9038 66.4477Z" fill="#FFF4E6" stroke="url(#paint15_linear_121_7673)" stroke-width="1.5" stroke-linecap="round" stroke-linejoin="round"/>
<path d="M33.8801 86.1543H17.7393V94.0835H33.8801V86.1543Z" fill="#FFF4E6" stroke="url(#paint16_linear_121_7673)" stroke-width="1.5" stroke-linecap="round" stroke-linejoin="round"/>
<path d="M33.8801 66.0273H17.7393V74.5664H33.8801V66.0273Z" fill="#FFF4E6" stroke="url(#paint17_linear_121_7673)" stroke-width="1.5" stroke-linecap="round" stroke-linejoin="round"/>
<path d="M33.2821 74.5664H18.3369V86.1551H33.2821V74.5664Z" fill="#FFF4E6" stroke="url(#paint18_linear_121_7673)" stroke-width="1.5" stroke-linecap="round" stroke-linejoin="round"/>
<path d="M52.0436 53.9141H45.5215V57.7506H52.0436V53.9141Z" stroke="url(#paint19_linear_121_7673)" stroke-width="1.5" stroke-linecap="round" stroke-linejoin="round"/>
<path d="M56.9038 66.4477L52.0437 58.0977H45.5873L40.6973 66.3135L56.9038 66.4477Z" fill="#FFF4E6" stroke="url(#paint20_linear_121_7673)" stroke-width="1.5" stroke-linecap="round" stroke-linejoin="round"/>
<path d="M56.8801 86.1543H40.7393V94.0835H56.8801V86.1543Z" fill="#FFF4E6" stroke="url(#paint21_linear_121_7673)" stroke-width="1.5" stroke-linecap="round" stroke-linejoin="round"/>
<path d="M56.8801 66.0273H40.7393V74.5664H56.8801V66.0273Z" fill="#FFF4E6" stroke="url(#paint22_linear_121_7673)" stroke-width="1.5" stroke-linecap="round" stroke-linejoin="round"/>
<path d="M56.2821 74.5664H41.3369V86.1551H56.2821V74.5664Z" fill="#FFF4E6" stroke="url(#paint23_linear_121_7673)" stroke-width="1.5" stroke-linecap="round" stroke-linejoin="round"/>
</g>
<defs>
<linearGradient id="paint0_linear_121_7673" x1="52.5363" y1="70.071" x2="85.1368" y2="63.9052" gradientUnits="userSpaceOnUse">
<stop offset="0.661458" stop-color="#FDAB25"/>
<stop offset="1" stop-color="#F0960F"/>
</linearGradient>
<linearGradient id="paint1_linear_121_7673" x1="52.8974" y1="73.3621" x2="85.9231" y2="70.1821" gradientUnits="userSpaceOnUse">
<stop offset="0.661458" stop-color="#FDAB25"/>
<stop offset="1" stop-color="#F0960F"/>
</linearGradient>
<linearGradient id="paint2_linear_121_7673" x1="73.3329" y1="12.7528" x2="73.3329" y2="89.7785" gradientUnits="userSpaceOnUse">
<stop offset="0.661458" stop-color="#FDAB25"/>
<stop offset="1" stop-color="#F0960F"/>
</linearGradient>
<linearGradient id="paint3_linear_121_7673" x1="100.49" y1="-47.6011" x2="100.49" y2="76.3492" gradientUnits="userSpaceOnUse">
<stop offset="0.661458" stop-color="#FDAB25"/>
<stop offset="1" stop-color="#F0960F"/>
</linearGradient>
<linearGradient id="paint4_linear_121_7673" x1="78.3303" y1="22.2788" x2="78.3303" y2="91.7903" gradientUnits="userSpaceOnUse">
<stop offset="0.661458" stop-color="#FDAB25"/>
<stop offset="1" stop-color="#F0960F"/>
</linearGradient>
<linearGradient id="paint5_linear_121_7673" x1="118.149" y1="-7.99702" x2="118.149" y2="72.7542" gradientUnits="userSpaceOnUse">
<stop offset="0.661458" stop-color="#FDAB25"/>
<stop offset="1" stop-color="#F0960F"/>
</linearGradient>
<linearGradient id="paint6_linear_121_7673" x1="108.993" y1="47.759" x2="108.993" y2="61.8716" gradientUnits="userSpaceOnUse">
<stop offset="0.661458" stop-color="#FDAB25"/>
<stop offset="1" stop-color="#F0960F"/>
</linearGradient>
<linearGradient id="paint7_linear_121_7673" x1="107.393" y1="45.1886" x2="107.393" y2="51.3143" gradientUnits="userSpaceOnUse">
<stop offset="0.661458" stop-color="#FDAB25"/>
<stop offset="1" stop-color="#F0960F"/>
</linearGradient>
<linearGradient id="paint8_linear_121_7673" x1="111.111" y1="40.753" x2="111.111" y2="46.8787" gradientUnits="userSpaceOnUse">
<stop offset="0.661458" stop-color="#FDAB25"/>
<stop offset="1" stop-color="#F0960F"/>
</linearGradient>
<linearGradient id="paint9_linear_121_7673" x1="121.119" y1="-2.84063" x2="121.119" y2="70.7336" gradientUnits="userSpaceOnUse">
<stop offset="0.661458" stop-color="#FDAB25"/>
<stop offset="1" stop-color="#F0960F"/>
</linearGradient>
<linearGradient id="paint10_linear_121_7673" x1="111.103" y1="40.7059" x2="111.103" y2="46.8755" gradientUnits="userSpaceOnUse">
<stop offset="0.661458" stop-color="#FDAB25"/>
<stop offset="1" stop-color="#F0960F"/>
</linearGradient>
<linearGradient id="paint11_linear_121_7673" x1="107.382" y1="45.1572" x2="107.382" y2="51.3122" gradientUnits="userSpaceOnUse">
<stop offset="0.661458" stop-color="#FDAB25"/>
<stop offset="1" stop-color="#F0960F"/>
</linearGradient>
<linearGradient id="paint12_linear_121_7673" x1="108.993" y1="47.759" x2="108.993" y2="61.8716" gradientUnits="userSpaceOnUse">
<stop offset="0.661458" stop-color="#FDAB25"/>
<stop offset="1" stop-color="#F0960F"/>
</linearGradient>
<linearGradient id="paint13_linear_121_7673" x1="116.227" y1="41.1657" x2="116.227" y2="42.6312" gradientUnits="userSpaceOnUse">
<stop offset="0.661458" stop-color="#FDAB25"/>
<stop offset="1" stop-color="#F0960F"/>
</linearGradient>
<linearGradient id="paint14_linear_121_7673" x1="25.7825" y1="49.7868" x2="25.7825" y2="57.4309" gradientUnits="userSpaceOnUse">
<stop offset="0.661458" stop-color="#FDAB25"/>
<stop offset="1" stop-color="#F0960F"/>
</linearGradient>
<linearGradient id="paint15_linear_121_7673" x1="25.8006" y1="49.1147" x2="25.8006" y2="65.7519" gradientUnits="userSpaceOnUse">
<stop offset="0.661458" stop-color="#FDAB25"/>
<stop offset="1" stop-color="#F0960F"/>
</linearGradient>
<linearGradient id="paint16_linear_121_7673" x1="25.8097" y1="77.6241" x2="25.8097" y2="93.4227" gradientUnits="userSpaceOnUse">
<stop offset="0.661458" stop-color="#FDAB25"/>
<stop offset="1" stop-color="#F0960F"/>
</linearGradient>
<linearGradient id="paint17_linear_121_7673" x1="25.8097" y1="56.8409" x2="25.8097" y2="73.8548" gradientUnits="userSpaceOnUse">
<stop offset="0.661458" stop-color="#FDAB25"/>
<stop offset="1" stop-color="#F0960F"/>
</linearGradient>
<linearGradient id="paint18_linear_121_7673" x1="25.8095" y1="62.0991" x2="25.8095" y2="85.1894" gradientUnits="userSpaceOnUse">
<stop offset="0.661458" stop-color="#FDAB25"/>
<stop offset="1" stop-color="#F0960F"/>
</linearGradient>
<linearGradient id="paint19_linear_121_7673" x1="48.7825" y1="49.7868" x2="48.7825" y2="57.4309" gradientUnits="userSpaceOnUse">
<stop offset="0.661458" stop-color="#FDAB25"/>
<stop offset="1" stop-color="#F0960F"/>
</linearGradient>
<linearGradient id="paint20_linear_121_7673" x1="48.8006" y1="49.1147" x2="48.8006" y2="65.7519" gradientUnits="userSpaceOnUse">
<stop offset="0.661458" stop-color="#FDAB25"/>
<stop offset="1" stop-color="#F0960F"/>
</linearGradient>
<linearGradient id="paint21_linear_121_7673" x1="48.8097" y1="77.6241" x2="48.8097" y2="93.4227" gradientUnits="userSpaceOnUse">
<stop offset="0.661458" stop-color="#FDAB25"/>
<stop offset="1" stop-color="#F0960F"/>
</linearGradient>
<linearGradient id="paint22_linear_121_7673" x1="48.8097" y1="56.8409" x2="48.8097" y2="73.8548" gradientUnits="userSpaceOnUse">
<stop offset="0.661458" stop-color="#FDAB25"/>
<stop offset="1" stop-color="#F0960F"/>
</linearGradient>
<linearGradient id="paint23_linear_121_7673" x1="48.8095" y1="62.0991" x2="48.8095" y2="85.1894" gradientUnits="userSpaceOnUse">
<stop offset="0.661458" stop-color="#FDAB25"/>
<stop offset="1" stop-color="#F0960F"/>
</linearGradient>
<clipPath id="clip0_121_7673">
<rect width="159" height="97" fill="white"/>
</clipPath>
</defs>
</svg>
