<svg width="159" height="97" viewBox="0 0 159 97" fill="none" xmlns="http://www.w3.org/2000/svg">
<path d="M55.8066 11.2852V15.9789" stroke="#CECECE" stroke-linecap="round" stroke-linejoin="round"/>
<path d="M55.8066 1.63281V6.31384" stroke="#CECECE" stroke-linecap="round" stroke-linejoin="round"/>
<path d="M58.2861 8.80664H62.9798" stroke="#CECECE" stroke-linecap="round" stroke-linejoin="round"/>
<path d="M48.6328 8.80664H53.3138" stroke="#CECECE" stroke-linecap="round" stroke-linejoin="round"/>
<path d="M62.9795 31.2363V34.7534" stroke="#CECECE" stroke-linecap="round" stroke-linejoin="round"/>
<path d="M62.9795 23.9883V27.5054" stroke="#CECECE" stroke-linecap="round" stroke-linejoin="round"/>
<path d="M64.8389 29.377H68.356" stroke="#CECECE" stroke-linecap="round" stroke-linejoin="round"/>
<path d="M57.6025 29.377H61.107" stroke="#CECECE" stroke-linecap="round" stroke-linejoin="round"/>
<path d="M84.957 66.457V69.9741" stroke="#CECECE" stroke-linecap="round" stroke-linejoin="round"/>
<path d="M84.957 59.2227V62.7398" stroke="#CECECE" stroke-linecap="round" stroke-linejoin="round"/>
<path d="M86.8164 64.5977H90.3335" stroke="#CECECE" stroke-linecap="round" stroke-linejoin="round"/>
<path d="M79.5674 64.5977H83.0845" stroke="#CECECE" stroke-linecap="round" stroke-linejoin="round"/>
<path d="M74.2207 16.3594V18.6999" stroke="#CECECE" stroke-linecap="round" stroke-linejoin="round"/>
<path d="M74.2207 11.5273V13.8678" stroke="#CECECE" stroke-linecap="round" stroke-linejoin="round"/>
<path d="M75.4609 15.1191H77.8141" stroke="#CECECE" stroke-linecap="round" stroke-linejoin="round"/>
<path d="M70.6406 15.1191H72.9811" stroke="#CECECE" stroke-linecap="round" stroke-linejoin="round"/>
<path d="M138.228 74.3906V76.7311" stroke="#FFD8A8" stroke-linecap="round" stroke-linejoin="round"/>
<path d="M138.228 69.5586V71.9118" stroke="#FFD8A8" stroke-linecap="round" stroke-linejoin="round"/>
<path d="M139.479 73.1523H141.82" stroke="#FFD8A8" stroke-linecap="round" stroke-linejoin="round"/>
<path d="M134.646 73.1523H136.987" stroke="#FFD8A8" stroke-linecap="round" stroke-linejoin="round"/>
<path d="M29.0436 53.9141H22.5215V57.7506H29.0436V53.9141Z" stroke="url(#paint0_linear_121_7846)" stroke-width="1.5" stroke-linecap="round" stroke-linejoin="round"/>
<path d="M33.9038 66.4477L29.0437 58.0977H22.5873L17.6973 66.3135L33.9038 66.4477Z" fill="#FFF4E6" stroke="url(#paint1_linear_121_7846)" stroke-width="1.5" stroke-linecap="round" stroke-linejoin="round"/>
<path d="M33.8801 86.1543H17.7393V94.0835H33.8801V86.1543Z" fill="#FFF4E6" stroke="url(#paint2_linear_121_7846)" stroke-width="1.5" stroke-linecap="round" stroke-linejoin="round"/>
<path d="M33.8801 66.0273H17.7393V74.5664H33.8801V66.0273Z" fill="#FFF4E6" stroke="url(#paint3_linear_121_7846)" stroke-width="1.5" stroke-linecap="round" stroke-linejoin="round"/>
<path d="M33.2821 74.5664H18.3369V86.1551H33.2821V74.5664Z" fill="#FFF4E6" stroke="url(#paint4_linear_121_7846)" stroke-width="1.5" stroke-linecap="round" stroke-linejoin="round"/>
<path d="M52.0436 53.9141H45.5215V57.7506H52.0436V53.9141Z" stroke="url(#paint5_linear_121_7846)" stroke-width="1.5" stroke-linecap="round" stroke-linejoin="round"/>
<path d="M56.9038 66.4477L52.0437 58.0977H45.5873L40.6973 66.3135L56.9038 66.4477Z" fill="#FFF4E6" stroke="url(#paint6_linear_121_7846)" stroke-width="1.5" stroke-linecap="round" stroke-linejoin="round"/>
<path d="M56.8801 86.1543H40.7393V94.0835H56.8801V86.1543Z" fill="#FFF4E6" stroke="url(#paint7_linear_121_7846)" stroke-width="1.5" stroke-linecap="round" stroke-linejoin="round"/>
<path d="M56.8801 66.0273H40.7393V74.5664H56.8801V66.0273Z" fill="#FFF4E6" stroke="url(#paint8_linear_121_7846)" stroke-width="1.5" stroke-linecap="round" stroke-linejoin="round"/>
<path d="M56.2821 74.5664H41.3369V86.1551H56.2821V74.5664Z" fill="#FFF4E6" stroke="url(#paint9_linear_121_7846)" stroke-width="1.5" stroke-linecap="round" stroke-linejoin="round"/>
<path d="M130.668 93.7414L123.727 71.8516H110.416L104.479 93.7414H130.668Z" stroke="url(#paint10_linear_121_7846)" stroke-width="2.59909" stroke-linejoin="round"/>
<path d="M96.4883 49.2828L91.5566 10.7441H141.01L136.078 49.2828" fill="#FFD8A8"/>
<path d="M96.4883 49.2828L91.5566 10.7441H141.01L136.078 49.2828" stroke="url(#paint11_linear_121_7846)" stroke-width="2.59909" stroke-linejoin="round"/>
<path d="M132.745 31.0313C132.745 42.733 125.461 52.2208 116.489 52.2208C107.516 52.2208 100.232 42.733 100.232 31.0313C100.232 19.3296 107.516 9.8418 116.489 9.8418C125.461 9.8418 132.745 19.3296 132.745 31.0313Z" fill="white" stroke="url(#paint12_linear_121_7846)" stroke-width="2.59909" stroke-linejoin="round"/>
<path d="M117.082 72.8446C129.777 72.8446 140.074 62.2951 140.074 49.2832H94.0908C94.0908 62.2951 104.388 72.8446 117.082 72.8446Z" fill="white" stroke="url(#paint13_linear_121_7846)" stroke-width="2.59909" stroke-linejoin="round"/>
<path d="M95.0723 56.1055H139.092" stroke="url(#paint14_linear_121_7846)" stroke-width="2.59909" stroke-linejoin="round"/>
<path d="M92.7443 20.0742H85.4609" stroke="url(#paint15_linear_121_7846)" stroke-width="2.59909" stroke-linecap="round" stroke-linejoin="round"/>
<path d="M141.01 10.7437L139.092 2.61133H94.091L91.5566 10.7437" stroke="url(#paint16_linear_121_7846)" stroke-width="2.59909" stroke-linecap="round" stroke-linejoin="round"/>
<defs>
<linearGradient id="paint0_linear_121_7846" x1="25.7825" y1="49.7868" x2="25.7825" y2="57.4309" gradientUnits="userSpaceOnUse">
<stop offset="0.661458" stop-color="#FDAB25"/>
<stop offset="1" stop-color="#F0960F"/>
</linearGradient>
<linearGradient id="paint1_linear_121_7846" x1="25.8006" y1="49.1147" x2="25.8006" y2="65.7519" gradientUnits="userSpaceOnUse">
<stop offset="0.661458" stop-color="#FDAB25"/>
<stop offset="1" stop-color="#F0960F"/>
</linearGradient>
<linearGradient id="paint2_linear_121_7846" x1="25.8097" y1="77.6241" x2="25.8097" y2="93.4227" gradientUnits="userSpaceOnUse">
<stop offset="0.661458" stop-color="#FDAB25"/>
<stop offset="1" stop-color="#F0960F"/>
</linearGradient>
<linearGradient id="paint3_linear_121_7846" x1="25.8097" y1="56.8409" x2="25.8097" y2="73.8548" gradientUnits="userSpaceOnUse">
<stop offset="0.661458" stop-color="#FDAB25"/>
<stop offset="1" stop-color="#F0960F"/>
</linearGradient>
<linearGradient id="paint4_linear_121_7846" x1="25.8095" y1="62.0991" x2="25.8095" y2="85.1894" gradientUnits="userSpaceOnUse">
<stop offset="0.661458" stop-color="#FDAB25"/>
<stop offset="1" stop-color="#F0960F"/>
</linearGradient>
<linearGradient id="paint5_linear_121_7846" x1="48.7825" y1="49.7868" x2="48.7825" y2="57.4309" gradientUnits="userSpaceOnUse">
<stop offset="0.661458" stop-color="#FDAB25"/>
<stop offset="1" stop-color="#F0960F"/>
</linearGradient>
<linearGradient id="paint6_linear_121_7846" x1="48.8006" y1="49.1147" x2="48.8006" y2="65.7519" gradientUnits="userSpaceOnUse">
<stop offset="0.661458" stop-color="#FDAB25"/>
<stop offset="1" stop-color="#F0960F"/>
</linearGradient>
<linearGradient id="paint7_linear_121_7846" x1="48.8097" y1="77.6241" x2="48.8097" y2="93.4227" gradientUnits="userSpaceOnUse">
<stop offset="0.661458" stop-color="#FDAB25"/>
<stop offset="1" stop-color="#F0960F"/>
</linearGradient>
<linearGradient id="paint8_linear_121_7846" x1="48.8097" y1="56.8409" x2="48.8097" y2="73.8548" gradientUnits="userSpaceOnUse">
<stop offset="0.661458" stop-color="#FDAB25"/>
<stop offset="1" stop-color="#F0960F"/>
</linearGradient>
<linearGradient id="paint9_linear_121_7846" x1="48.8095" y1="62.0991" x2="48.8095" y2="85.1894" gradientUnits="userSpaceOnUse">
<stop offset="0.661458" stop-color="#FDAB25"/>
<stop offset="1" stop-color="#F0960F"/>
</linearGradient>
<linearGradient id="paint10_linear_121_7846" x1="117.573" y1="48.3022" x2="117.573" y2="91.9172" gradientUnits="userSpaceOnUse">
<stop offset="0.661458" stop-color="#FDAB25"/>
<stop offset="1" stop-color="#F0960F"/>
</linearGradient>
<linearGradient id="paint11_linear_121_7846" x1="116.283" y1="-30.7163" x2="116.283" y2="46.0713" gradientUnits="userSpaceOnUse">
<stop offset="0.661458" stop-color="#FDAB25"/>
<stop offset="1" stop-color="#F0960F"/>
</linearGradient>
<linearGradient id="paint12_linear_121_7846" x1="116.489" y1="-35.7501" x2="116.489" y2="48.6892" gradientUnits="userSpaceOnUse">
<stop offset="0.661458" stop-color="#FDAB25"/>
<stop offset="1" stop-color="#F0960F"/>
</linearGradient>
<linearGradient id="paint13_linear_121_7846" x1="117.082" y1="23.9355" x2="117.082" y2="70.8812" gradientUnits="userSpaceOnUse">
<stop offset="0.661458" stop-color="#FDAB25"/>
<stop offset="1" stop-color="#F0960F"/>
</linearGradient>
<linearGradient id="paint14_linear_121_7846" x1="-nan" y1="-nan" x2="-nan" y2="-nan" gradientUnits="userSpaceOnUse">
<stop offset="0.661458" stop-color="#FDAB25"/>
<stop offset="1" stop-color="#F0960F"/>
</linearGradient>
<linearGradient id="paint15_linear_121_7846" x1="-nan" y1="-nan" x2="-nan" y2="-nan" gradientUnits="userSpaceOnUse">
<stop offset="0.661458" stop-color="#FDAB25"/>
<stop offset="1" stop-color="#F0960F"/>
</linearGradient>
<linearGradient id="paint16_linear_121_7846" x1="116.283" y1="-6.13764" x2="116.283" y2="10.066" gradientUnits="userSpaceOnUse">
<stop offset="0.661458" stop-color="#FDAB25"/>
<stop offset="1" stop-color="#F0960F"/>
</linearGradient>
</defs>
</svg>
