<svg width="159" height="97" viewBox="0 0 159 97" fill="none" xmlns="http://www.w3.org/2000/svg">
<path d="M66.8066 10.2852V14.9789" stroke="#CECECE" stroke-linecap="round" stroke-linejoin="round"/>
<path d="M66.8066 0.632812V5.31384" stroke="#CECECE" stroke-linecap="round" stroke-linejoin="round"/>
<path d="M69.2861 7.80664H73.9798" stroke="#CECECE" stroke-linecap="round" stroke-linejoin="round"/>
<path d="M59.6328 7.80664H64.3138" stroke="#CECECE" stroke-linecap="round" stroke-linejoin="round"/>
<path d="M73.9795 30.2363V33.7534" stroke="#CECECE" stroke-linecap="round" stroke-linejoin="round"/>
<path d="M73.9795 22.9883V26.5054" stroke="#CECECE" stroke-linecap="round" stroke-linejoin="round"/>
<path d="M75.8389 28.377H79.356" stroke="#CECECE" stroke-linecap="round" stroke-linejoin="round"/>
<path d="M68.6025 28.377H72.107" stroke="#CECECE" stroke-linecap="round" stroke-linejoin="round"/>
<path d="M95.2207 15.3594V17.6999" stroke="#FFC9C9" stroke-linecap="round" stroke-linejoin="round"/>
<path d="M95.2207 10.5273V12.8678" stroke="#FFC9C9" stroke-linecap="round" stroke-linejoin="round"/>
<path d="M96.4609 14.1191H98.8141" stroke="#FFC9C9" stroke-linecap="round" stroke-linejoin="round"/>
<path d="M91.6406 14.1191H93.9811" stroke="#FFC9C9" stroke-linecap="round" stroke-linejoin="round"/>
<path d="M132.569 55.8327V10H111.893V17.6453" stroke="url(#paint0_linear_121_7581)" stroke-width="3" stroke-miterlimit="10"/>
<path d="M119.892 24.3663H103.903C103.903 19.954 107.48 16.377 111.893 16.377C116.305 16.377 119.882 19.954 119.882 24.3663H119.892Z" fill="url(#paint1_linear_121_7581)" stroke="url(#paint2_linear_121_7581)" stroke-width="3" stroke-miterlimit="10" stroke-linejoin="round"/>
<path d="M138.308 63.3301H69.7539C67.6804 63.3301 66 61.6497 66 59.5762C66 57.5027 67.6804 55.8223 69.7539 55.8223H138.308C140.381 55.8223 142.062 57.5027 142.062 59.5762C142.062 61.6497 140.381 63.3301 138.308 63.3301Z" fill="#FFC9C9" stroke="url(#paint3_linear_121_7581)" stroke-width="3" stroke-miterlimit="10"/>
<path d="M120.963 89.6681H87.0892C78.5298 89.6681 71.3855 83.1528 70.5993 74.6231L69.5576 63.332H138.505L137.463 74.6231C136.677 83.143 129.532 89.6681 120.973 89.6681H120.963Z" stroke="url(#paint4_linear_121_7581)" stroke-width="3" stroke-miterlimit="10" stroke-linejoin="round"/>
<path d="M87.0892 89.668L81.2617 95.4855" stroke="url(#paint5_linear_121_7581)" stroke-width="3" stroke-miterlimit="10" stroke-linecap="round" stroke-linejoin="round"/>
<path d="M120.963 89.668L126.781 95.4855" stroke="url(#paint6_linear_121_7581)" stroke-width="3" stroke-miterlimit="10" stroke-linecap="round" stroke-linejoin="round"/>
<path d="M106.273 44.8813C106.17 42.6821 103.985 39.9804 103.247 39.125C102.121 40.4081 100.317 42.9245 100.225 44.8813V45.0631C100.221 46.6706 101.579 48 103.251 48C104.922 48 106.28 46.6706 106.28 45.0381C106.28 44.9882 106.28 44.9419 106.277 44.8884V44.8813H106.273Z" fill="url(#paint7_linear_121_7581)"/>
<path d="M115.329 44.8813C115.225 42.6821 113.041 39.9804 112.303 39.125C111.176 40.4081 109.373 42.9245 109.28 44.8813V45.0631C109.277 46.6706 110.635 48 112.306 48C113.978 48 115.336 46.6706 115.336 45.0381C115.336 44.9882 115.336 44.9419 115.332 44.8884V44.8813H115.329Z" fill="url(#paint8_linear_121_7581)"/>
<path d="M124.385 44.8813C124.281 42.6821 122.096 39.9804 121.358 39.125C120.232 40.4081 118.429 42.9245 118.336 44.8813V45.0631C118.332 46.6706 119.69 48 121.362 48C123.034 48 124.392 46.6706 124.392 45.0381C124.392 44.9882 124.392 44.9419 124.388 44.8884V44.8813H124.385Z" fill="url(#paint9_linear_121_7581)"/>
<path d="M110.301 33.7563C110.197 31.5571 108.012 28.8554 107.274 28C106.148 29.2831 104.345 31.7995 104.252 33.7563V33.9381C104.248 35.5456 105.606 36.875 107.278 36.875C108.95 36.875 110.308 35.5456 110.308 33.9131C110.308 33.8632 110.308 33.8169 110.304 33.7634V33.7563H110.301Z" fill="url(#paint10_linear_121_7581)"/>
<path d="M119.356 33.7563C119.253 31.5571 117.068 28.8554 116.33 28C115.204 29.2831 113.4 31.7995 113.308 33.7563V33.9381C113.304 35.5456 114.662 36.875 116.334 36.875C118.005 36.875 119.363 35.5456 119.363 33.9131C119.363 33.8632 119.363 33.8169 119.36 33.7634V33.7563H119.356Z" fill="url(#paint11_linear_121_7581)"/>
<path d="M28.0436 52.9141H21.5215V56.7506H28.0436V52.9141Z" stroke="url(#paint12_linear_121_7581)" stroke-width="1.5" stroke-linecap="round" stroke-linejoin="round"/>
<path d="M32.9038 65.4477L28.0437 57.0977H21.5873L16.6973 65.3135L32.9038 65.4477Z" fill="#FFF5F5" stroke="url(#paint13_linear_121_7581)" stroke-width="1.5" stroke-linecap="round" stroke-linejoin="round"/>
<path d="M32.8801 85.1543H16.7393V93.0835H32.8801V85.1543Z" fill="#FFF5F5" stroke="url(#paint14_linear_121_7581)" stroke-width="1.5" stroke-linecap="round" stroke-linejoin="round"/>
<path d="M32.8801 65.0273H16.7393V73.5664H32.8801V65.0273Z" fill="#FFF5F5" stroke="url(#paint15_linear_121_7581)" stroke-width="1.5" stroke-linecap="round" stroke-linejoin="round"/>
<path d="M32.2821 73.5664H17.3369V85.1551H32.2821V73.5664Z" fill="#FFF5F5" stroke="url(#paint16_linear_121_7581)" stroke-width="1.5" stroke-linecap="round" stroke-linejoin="round"/>
<path d="M51.0436 52.9141H44.5215V56.7506H51.0436V52.9141Z" stroke="url(#paint17_linear_121_7581)" stroke-width="1.5" stroke-linecap="round" stroke-linejoin="round"/>
<path d="M55.9038 65.4477L51.0437 57.0977H44.5873L39.6973 65.3135L55.9038 65.4477Z" fill="#FFF5F5" stroke="url(#paint18_linear_121_7581)" stroke-width="1.5" stroke-linecap="round" stroke-linejoin="round"/>
<path d="M55.8801 85.1543H39.7393V93.0835H55.8801V85.1543Z" fill="#FFF5F5" stroke="url(#paint19_linear_121_7581)" stroke-width="1.5" stroke-linecap="round" stroke-linejoin="round"/>
<path d="M55.8801 65.0273H39.7393V73.5664H55.8801V65.0273Z" fill="#FFF5F5" stroke="url(#paint20_linear_121_7581)" stroke-width="1.5" stroke-linecap="round" stroke-linejoin="round"/>
<path d="M55.2821 73.5664H40.3369V85.1551H55.2821V73.5664Z" fill="#FFF5F5" stroke="url(#paint21_linear_121_7581)" stroke-width="1.5" stroke-linecap="round" stroke-linejoin="round"/>
<defs>
<linearGradient id="paint0_linear_121_7581" x1="122.231" y1="-39.3074" x2="122.231" y2="52.0133" gradientUnits="userSpaceOnUse">
<stop offset="0.588542" stop-color="#FD7575"/>
<stop offset="1" stop-color="#E03131"/>
</linearGradient>
<linearGradient id="paint1_linear_121_7581" x1="111.898" y1="7.78201" x2="111.898" y2="23.7005" gradientUnits="userSpaceOnUse">
<stop offset="0.588542" stop-color="#FD7575"/>
<stop offset="1" stop-color="#E03131"/>
</linearGradient>
<linearGradient id="paint2_linear_121_7581" x1="111.898" y1="7.78201" x2="111.898" y2="23.7005" gradientUnits="userSpaceOnUse">
<stop offset="0.588542" stop-color="#FD7575"/>
<stop offset="1" stop-color="#E03131"/>
</linearGradient>
<linearGradient id="paint3_linear_121_7581" x1="104.031" y1="47.7454" x2="104.031" y2="62.7045" gradientUnits="userSpaceOnUse">
<stop offset="0.588542" stop-color="#FD7575"/>
<stop offset="1" stop-color="#E03131"/>
</linearGradient>
<linearGradient id="paint4_linear_121_7581" x1="104.031" y1="34.9992" x2="104.031" y2="87.4734" gradientUnits="userSpaceOnUse">
<stop offset="0.588542" stop-color="#FD7575"/>
<stop offset="1" stop-color="#E03131"/>
</linearGradient>
<linearGradient id="paint5_linear_121_7581" x1="84.1755" y1="83.4094" x2="84.1755" y2="95.0007" gradientUnits="userSpaceOnUse">
<stop offset="0.588542" stop-color="#FD7575"/>
<stop offset="1" stop-color="#E03131"/>
</linearGradient>
<linearGradient id="paint6_linear_121_7581" x1="123.872" y1="83.4094" x2="123.872" y2="95.0007" gradientUnits="userSpaceOnUse">
<stop offset="0.588542" stop-color="#FD7575"/>
<stop offset="1" stop-color="#E03131"/>
</linearGradient>
<linearGradient id="paint7_linear_121_7581" x1="103.252" y1="29.5771" x2="103.252" y2="47.2604" gradientUnits="userSpaceOnUse">
<stop offset="0.588542" stop-color="#FD7575"/>
<stop offset="1" stop-color="#E03131"/>
</linearGradient>
<linearGradient id="paint8_linear_121_7581" x1="112.308" y1="29.5771" x2="112.308" y2="47.2604" gradientUnits="userSpaceOnUse">
<stop offset="0.588542" stop-color="#FD7575"/>
<stop offset="1" stop-color="#E03131"/>
</linearGradient>
<linearGradient id="paint9_linear_121_7581" x1="121.364" y1="29.5771" x2="121.364" y2="47.2604" gradientUnits="userSpaceOnUse">
<stop offset="0.588542" stop-color="#FD7575"/>
<stop offset="1" stop-color="#E03131"/>
</linearGradient>
<linearGradient id="paint10_linear_121_7581" x1="107.28" y1="18.4521" x2="107.28" y2="36.1354" gradientUnits="userSpaceOnUse">
<stop offset="0.588542" stop-color="#FD7575"/>
<stop offset="1" stop-color="#E03131"/>
</linearGradient>
<linearGradient id="paint11_linear_121_7581" x1="116.335" y1="18.4521" x2="116.335" y2="36.1354" gradientUnits="userSpaceOnUse">
<stop offset="0.588542" stop-color="#FD7575"/>
<stop offset="1" stop-color="#E03131"/>
</linearGradient>
<linearGradient id="paint12_linear_121_7581" x1="24.7825" y1="48.7868" x2="24.7825" y2="56.4309" gradientUnits="userSpaceOnUse">
<stop offset="0.588542" stop-color="#FD7575"/>
<stop offset="1" stop-color="#E03131"/>
</linearGradient>
<linearGradient id="paint13_linear_121_7581" x1="24.8006" y1="48.1147" x2="24.8006" y2="64.7519" gradientUnits="userSpaceOnUse">
<stop offset="0.588542" stop-color="#FD7575"/>
<stop offset="1" stop-color="#E03131"/>
</linearGradient>
<linearGradient id="paint14_linear_121_7581" x1="24.8097" y1="76.6241" x2="24.8097" y2="92.4227" gradientUnits="userSpaceOnUse">
<stop offset="0.588542" stop-color="#FD7575"/>
<stop offset="1" stop-color="#E03131"/>
</linearGradient>
<linearGradient id="paint15_linear_121_7581" x1="24.8097" y1="55.8409" x2="24.8097" y2="72.8548" gradientUnits="userSpaceOnUse">
<stop offset="0.588542" stop-color="#FD7575"/>
<stop offset="1" stop-color="#E03131"/>
</linearGradient>
<linearGradient id="paint16_linear_121_7581" x1="24.8095" y1="61.0991" x2="24.8095" y2="84.1894" gradientUnits="userSpaceOnUse">
<stop offset="0.588542" stop-color="#FD7575"/>
<stop offset="1" stop-color="#E03131"/>
</linearGradient>
<linearGradient id="paint17_linear_121_7581" x1="47.7825" y1="48.7868" x2="47.7825" y2="56.4309" gradientUnits="userSpaceOnUse">
<stop offset="0.588542" stop-color="#FD7575"/>
<stop offset="1" stop-color="#E03131"/>
</linearGradient>
<linearGradient id="paint18_linear_121_7581" x1="47.8006" y1="48.1147" x2="47.8006" y2="64.7519" gradientUnits="userSpaceOnUse">
<stop offset="0.588542" stop-color="#FD7575"/>
<stop offset="1" stop-color="#E03131"/>
</linearGradient>
<linearGradient id="paint19_linear_121_7581" x1="47.8097" y1="76.6241" x2="47.8097" y2="92.4227" gradientUnits="userSpaceOnUse">
<stop offset="0.588542" stop-color="#FD7575"/>
<stop offset="1" stop-color="#E03131"/>
</linearGradient>
<linearGradient id="paint20_linear_121_7581" x1="47.8097" y1="55.8409" x2="47.8097" y2="72.8548" gradientUnits="userSpaceOnUse">
<stop offset="0.588542" stop-color="#FD7575"/>
<stop offset="1" stop-color="#E03131"/>
</linearGradient>
<linearGradient id="paint21_linear_121_7581" x1="47.8095" y1="61.0991" x2="47.8095" y2="84.1894" gradientUnits="userSpaceOnUse">
<stop offset="0.588542" stop-color="#FD7575"/>
<stop offset="1" stop-color="#E03131"/>
</linearGradient>
</defs>
</svg>
