<svg width="159" height="97" viewBox="0 0 159 97" fill="none" xmlns="http://www.w3.org/2000/svg">
<g clip-path="url(#clip0_54_4600)">
<path d="M106.816 35.9313C106.569 35.9313 106.359 35.7337 106.359 35.4743V20.874C106.359 20.627 106.557 20.417 106.816 20.417C107.076 20.417 107.273 20.6146 107.273 20.874V35.4743C107.273 35.7213 107.076 35.9313 106.816 35.9313Z" fill="#CECECE"/>
<path d="M104.766 35.3757C104.766 36.5121 105.68 37.4261 106.816 37.4261C107.952 37.4261 108.867 36.5121 108.867 35.3757C108.867 34.2393 107.952 33.3252 106.816 33.3252C105.68 33.3252 104.766 34.2393 104.766 35.3757Z" fill="#CECECE"/>
<path d="M41.1777 49.988C40.9307 49.988 40.7207 49.7903 40.7207 49.5309V34.9307C40.7207 34.6836 40.9183 34.4736 41.1777 34.4736C41.4371 34.4736 41.6348 34.6713 41.6348 34.9307V49.5309C41.6348 49.778 41.4371 49.988 41.1777 49.988Z" fill="#CECECE"/>
<path d="M41.1774 51.4828C42.3099 51.4828 43.2279 50.5647 43.2279 49.4323C43.2279 48.2999 42.3099 47.3818 41.1774 47.3818C40.045 47.3818 39.127 48.2999 39.127 49.4323C39.127 50.5647 40.045 51.4828 41.1774 51.4828Z" fill="#CECECE"/>
<path d="M112.722 20.133C112.475 20.133 112.265 19.9353 112.265 19.676V2.45703C112.265 2.20999 112.462 2 112.722 2C112.981 2 113.179 2.19763 113.179 2.45703V19.6883C113.179 19.9353 112.981 20.1453 112.722 20.1453V20.133Z" fill="#CECECE"/>
<path d="M109.646 19.5278C109.646 21.2201 111.017 22.6035 112.721 22.6035C114.426 22.6035 115.797 21.2324 115.797 19.5278C115.797 17.8232 114.426 16.4521 112.721 16.4521C111.017 16.4521 109.646 17.8232 109.646 19.5278Z" fill="#CECECE"/>
<path d="M49.5898 59.8701C49.3428 59.8701 49.1328 59.6725 49.1328 59.4131V43.207C49.1328 42.96 49.3304 42.75 49.5898 42.75C49.8492 42.75 50.0469 42.9476 50.0469 43.207V59.4131C50.0469 59.6601 49.8492 59.8701 49.5898 59.8701Z" fill="#CECECE"/>
<path d="M49.5898 40.3907C49.3428 40.3907 49.1328 40.193 49.1328 39.9337V31.0771C49.1328 30.8301 49.3304 30.6201 49.5898 30.6201C49.8492 30.6201 50.0469 30.8178 50.0469 31.0771V39.9337C50.0469 40.1807 49.8492 40.3907 49.5898 40.3907Z" fill="#CECECE"/>
<path d="M46.5137 59.2524C46.5137 60.9447 47.8848 62.3281 49.5894 62.3281C51.294 62.3281 52.6651 60.957 52.6651 59.2524C52.6651 57.5478 51.294 56.1768 49.5894 56.1768C47.8848 56.1768 46.5137 57.5478 46.5137 59.2524Z" fill="#CECECE"/>
<path d="M80.2722 76.5703C65.9437 76.5703 54.2832 66.0586 54.2832 53.1506L54.3203 51.9772C55.2343 34.1653 76.3936 13.2778 77.2953 12.4008L80.2722 9.49805L83.249 12.4008C84.1507 13.2778 105.298 34.153 106.212 51.9401C106.236 52.3601 106.249 52.7553 106.249 53.1506C106.249 66.071 94.5883 76.5703 80.2722 76.5703ZM80.2722 12.0302L78.5676 13.6978C77.6906 14.5624 57.013 34.9559 56.136 52.0513L56.099 53.1877C56.099 65.0705 66.9442 74.7669 80.2722 74.7669C93.6002 74.7669 104.433 65.0705 104.433 53.163C104.433 52.8047 104.433 52.4342 104.396 52.0636C103.519 34.9559 82.8538 14.5748 81.9768 13.7101L80.2722 12.0426V12.0302Z" fill="url(#paint0_linear_54_4600)"/>
<path d="M80.2722 76.5703C65.9437 76.5703 54.2832 66.0586 54.2832 53.1506L54.3203 51.9772C55.2343 34.1653 76.3936 13.2778 77.2953 12.4008L80.2722 9.49805L83.249 12.4008C84.1507 13.2778 105.298 34.153 106.212 51.9401C106.236 52.3601 106.249 52.7553 106.249 53.1506C106.249 66.071 94.5883 76.5703 80.2722 76.5703ZM80.2722 12.0302L78.5676 13.6978C77.6906 14.5624 57.013 34.9559 56.136 52.0513L56.099 53.1877C56.099 65.0704 66.9442 74.7669 80.2722 74.7669C93.6002 74.7669 104.433 65.0704 104.433 53.163C104.433 52.8047 104.433 52.4342 104.396 52.0636C103.519 34.9559 82.8538 14.5748 81.9768 13.7101L80.2722 12.0426V12.0302Z" fill="url(#paint1_linear_54_4600)" stroke="url(#paint2_linear_54_4600)" stroke-width="1.2"/>
<path d="M94.3788 37.3524C94.07 37.3524 93.7612 37.1918 93.5882 36.8954C88.8326 28.7183 82.2119 21.3934 79.5932 18.6142C79.2474 18.2436 79.2597 17.6754 79.6303 17.3296C80.0008 16.9837 80.569 16.996 80.9149 17.3666C84.2253 20.8623 90.4878 27.9401 95.1693 35.9813C95.4164 36.4137 95.2681 36.9695 94.8358 37.2289C94.6876 37.3154 94.5393 37.3524 94.3788 37.3524Z" fill="url(#paint3_linear_54_4600)"/>
<path d="M99.9371 53.1502C99.4677 53.1502 99.0725 52.8043 99.0354 52.3349V52.2855C98.8872 49.3828 98.0225 46.1218 96.4785 42.5644C96.2809 42.1073 96.4785 41.5638 96.9479 41.3662C97.4049 41.1686 97.9484 41.3662 98.1461 41.8356C99.7765 45.5906 100.691 49.0616 100.839 52.162C100.864 52.6561 100.493 53.1008 99.9865 53.1378C99.9618 53.1378 99.9495 53.1378 99.9248 53.1378L99.9371 53.1502Z" fill="url(#paint4_linear_54_4600)"/>
<path d="M80.2721 85.1796C70.4768 85.1796 59.9404 83.438 59.9404 79.6335C59.9404 78.2377 61.2374 77.1137 63.8931 76.1749C64.3749 76.002 64.8813 76.2614 65.0542 76.7308C65.2272 77.2001 64.9678 77.7189 64.4984 77.8919C62.3368 78.6577 61.7686 79.3618 61.7686 79.6335C61.7686 80.8934 68.3028 83.3639 80.2845 83.3639C92.2661 83.3639 98.8004 80.9058 98.8004 79.6335C98.8004 79.3618 98.2322 78.6577 96.0705 77.8919C95.6011 77.7189 95.3541 77.2125 95.5147 76.7308C95.6753 76.2614 96.2064 76.0143 96.6758 76.1749C99.2944 77.1013 100.628 78.2624 100.628 79.6335C100.628 83.438 90.0921 85.1796 80.2968 85.1796H80.2721Z" fill="url(#paint5_linear_54_4600)"/>
<path d="M100.851 73.6676C99.9738 74.4705 99.0103 75.2117 98.0221 75.9034C99.4797 76.4963 101.505 77.6574 101.505 79.6955C101.505 85.6122 83.8048 85.9086 80.2597 85.9086C76.7146 85.9086 59.014 85.6122 59.014 79.6955C59.014 77.6574 61.0397 76.5086 62.4973 75.9034C61.5091 75.2117 60.558 74.4705 59.6686 73.6676C52.4303 75.0881 47.8105 77.2374 47.8105 79.6337C47.8105 83.8952 62.3367 87.3662 80.2597 87.3662C98.1827 87.3662 112.709 83.9076 112.709 79.6337C112.709 77.2251 108.089 75.0758 100.838 73.6553L100.851 73.6676Z" fill="#B2F2BB"/>
<path d="M80.2716 90.2442C62.5956 90.2442 43.8203 86.5262 43.8203 79.646C43.8203 74.9645 52.6274 72.3335 57.8894 71.1848C58.3835 71.0736 58.8653 71.3824 58.9764 71.8765C59.0876 72.3706 58.7664 72.8523 58.2847 72.9635C48.9712 75.0016 45.6484 77.7438 45.6484 79.646C45.6484 83.7963 59.8781 88.4284 80.2839 88.4284C100.69 88.4284 114.919 83.7963 114.919 79.646C114.919 77.7561 111.597 75.0016 102.283 72.9635C101.789 72.8523 101.48 72.3706 101.591 71.8765C101.703 71.3824 102.184 71.0736 102.678 71.1848C107.928 72.3335 116.748 74.9522 116.748 79.646C116.748 86.5385 97.9722 90.2442 80.2963 90.2442H80.2716Z" fill="url(#paint6_linear_54_4600)"/>
<path d="M80.2718 96.0003C53.764 96.0003 33 88.8113 33 79.6337C33 73.964 40.683 68.9737 54.0975 65.9475C54.5916 65.8363 55.0733 66.1451 55.1845 66.6392C55.2957 67.1333 54.9869 67.615 54.4928 67.7262C42.3506 70.4683 34.8158 75.0386 34.8158 79.646C34.8158 87.5267 55.6292 94.1969 80.2718 94.1969C104.914 94.1969 125.728 87.539 125.728 79.646C125.728 75.0386 118.193 70.4683 106.051 67.7262C105.557 67.615 105.248 67.1333 105.359 66.6392C105.47 66.1451 105.964 65.8363 106.446 65.9475C119.848 68.9737 127.544 73.964 127.544 79.6337C127.544 88.8113 106.78 96.0003 80.2718 96.0003Z" fill="url(#paint7_linear_54_4600)"/>
</g>
<defs>
<linearGradient id="paint0_linear_54_4600" x1="80.266" y1="-62.6591" x2="80.266" y2="70.981" gradientUnits="userSpaceOnUse">
<stop stop-color="#B2F2BB"/>
<stop offset="1" stop-color="#36A02B"/>
</linearGradient>
<linearGradient id="paint1_linear_54_4600" x1="80.266" y1="-62.6591" x2="80.266" y2="70.981" gradientUnits="userSpaceOnUse">
<stop stop-color="#B2F2BB"/>
<stop offset="1" stop-color="#36A02B"/>
</linearGradient>
<linearGradient id="paint2_linear_54_4600" x1="80.266" y1="-62.6591" x2="80.266" y2="70.981" gradientUnits="userSpaceOnUse">
<stop stop-color="#B2F2BB"/>
<stop offset="1" stop-color="#36A02B"/>
</linearGradient>
<linearGradient id="paint3_linear_54_4600" x1="87.3158" y1="-4.73118" x2="87.3158" y2="35.663" gradientUnits="userSpaceOnUse">
<stop stop-color="#B2F2BB"/>
<stop offset="1" stop-color="#36A02B"/>
</linearGradient>
<linearGradient id="paint4_linear_54_4600" x1="98.6212" y1="28.5308" x2="98.6212" y2="52.1618" gradientUnits="userSpaceOnUse">
<stop stop-color="#B2F2BB"/>
<stop offset="1" stop-color="#36A02B"/>
</linearGradient>
<linearGradient id="paint5_linear_54_4600" x1="80.2845" y1="66.3758" x2="80.2845" y2="84.4248" gradientUnits="userSpaceOnUse">
<stop stop-color="#B2F2BB"/>
<stop offset="1" stop-color="#36A02B"/>
</linearGradient>
<linearGradient id="paint6_linear_54_4600" x1="80.2839" y1="50.6334" x2="80.2839" y2="88.654" gradientUnits="userSpaceOnUse">
<stop stop-color="#B2F2BB"/>
<stop offset="1" stop-color="#36A02B"/>
</linearGradient>
<linearGradient id="paint7_linear_54_4600" x1="80.2717" y1="33.5692" x2="80.2717" y2="93.494" gradientUnits="userSpaceOnUse">
<stop stop-color="#B2F2BB"/>
<stop offset="1" stop-color="#36A02B"/>
</linearGradient>
<clipPath id="clip0_54_4600">
<rect width="94.5435" height="94" fill="white" transform="translate(33 2)"/>
</clipPath>
</defs>
</svg>
