<svg width="159" height="97" viewBox="0 0 159 97" fill="none" xmlns="http://www.w3.org/2000/svg">
<path d="M39.1738 11.6533V16.347" stroke="#CECECE" stroke-linecap="round" stroke-linejoin="round"/>
<path d="M39.1738 2V6.68102" stroke="#CECECE" stroke-linecap="round" stroke-linejoin="round"/>
<path d="M41.6533 9.17383H46.347" stroke="#CECECE" stroke-linecap="round" stroke-linejoin="round"/>
<path d="M32 9.17383H36.681" stroke="#CECECE" stroke-linecap="round" stroke-linejoin="round"/>
<path d="M21.3467 31.6045V35.1216" stroke="#CECECE" stroke-linecap="round" stroke-linejoin="round"/>
<path d="M21.3467 24.3555V27.8726" stroke="#CECECE" stroke-linecap="round" stroke-linejoin="round"/>
<path d="M23.2061 29.7451H26.7231" stroke="#CECECE" stroke-linecap="round" stroke-linejoin="round"/>
<path d="M15.9697 29.7451H19.4742" stroke="#CECECE" stroke-linecap="round" stroke-linejoin="round"/>
<path d="M61.5879 16.7266V19.0671" stroke="#CECECE" stroke-linecap="round" stroke-linejoin="round"/>
<path d="M61.5879 11.8936V14.2341" stroke="#CECECE" stroke-linecap="round" stroke-linejoin="round"/>
<path d="M62.8281 15.4863H65.1813" stroke="#CECECE" stroke-linecap="round" stroke-linejoin="round"/>
<path d="M58.0078 15.4863H60.3483" stroke="#CECECE" stroke-linecap="round" stroke-linejoin="round"/>
<g clip-path="url(#clip0_54_3342)">
<path d="M127.39 46.2363V49.7534" stroke="#CECECE" stroke-linecap="round" stroke-linejoin="round"/>
<path d="M127.39 39V42.5171" stroke="#CECECE" stroke-linecap="round" stroke-linejoin="round"/>
<path d="M129.249 44.377H132.766" stroke="#CECECE" stroke-linecap="round" stroke-linejoin="round"/>
<path d="M122 44.377H125.517" stroke="#CECECE" stroke-linecap="round" stroke-linejoin="round"/>
<path d="M140.66 54.1689V56.5095" stroke="#FFD8A8" stroke-linecap="round" stroke-linejoin="round"/>
<path d="M140.66 49.3359V51.6891" stroke="#FFD8A8" stroke-linecap="round" stroke-linejoin="round"/>
<path d="M141.913 52.9287H144.254" stroke="#FFD8A8" stroke-linecap="round" stroke-linejoin="round"/>
<path d="M137.08 52.9287H139.421" stroke="#FFD8A8" stroke-linecap="round" stroke-linejoin="round"/>
</g>
<path d="M64.5069 59.7131C67.8143 56.3883 69.8615 51.7925 69.8615 46.7124C69.8615 36.561 61.6727 28.3291 51.5742 28.3291" stroke="url(#paint0_linear_54_3342)" stroke-width="2" stroke-linecap="round" stroke-linejoin="round"/>
<path d="M38.6417 33.7119C35.3343 37.041 33.2871 41.6368 33.2871 46.7126C33.2871 56.864 41.476 65.0959 51.5744 65.0959" stroke="url(#paint1_linear_54_3342)" stroke-width="2" stroke-linecap="round" stroke-linejoin="round"/>
<path d="M39.7256 37.1709V32.6875H35.2656" stroke="url(#paint2_linear_54_3342)" stroke-width="1.18104" stroke-linecap="round" stroke-linejoin="round"/>
<path d="M63.4238 56.2549V60.7383H67.8838" stroke="url(#paint3_linear_54_3342)" stroke-width="1.18104" stroke-linecap="round" stroke-linejoin="round"/>
<path d="M60.0699 49.0787C59.762 42.5823 52.642 34.8939 52.342 34.5703L51.5448 33.7178L50.7475 34.5703C50.4476 34.8939 43.3197 42.5823 43.0197 49.0787L43.0039 49.505C43.0039 54.1306 46.8323 57.888 51.5448 57.888C56.2573 57.888 60.0778 54.1227 60.0778 49.505C60.0778 49.3629 60.0778 49.2208 60.062 49.0708L60.0699 49.0787Z" fill="white" stroke="url(#paint4_linear_54_3342)" stroke-width="1.5"/>
<path d="M51.5449 58.4879C46.5167 58.4879 42.4199 54.4622 42.4199 49.5129L42.4357 49.0709C42.7515 42.3613 50.0136 34.5072 50.3214 34.1756L51.1187 33.3231C51.3397 33.0863 51.7502 33.0863 51.9712 33.3231L52.7684 34.1756C53.0763 34.5072 60.3384 42.3534 60.6542 49.0551C60.662 49.2129 60.6699 49.3708 60.6699 49.5208C60.6699 54.4701 56.5811 58.4958 51.5449 58.4958V58.4879ZM51.5449 34.5861L51.1739 34.9808C50.874 35.2965 43.896 42.8428 43.604 49.1182L43.5882 49.5366C43.5882 53.8228 47.1561 57.3197 51.5449 57.3197C55.9338 57.3197 59.4938 53.8228 59.4938 49.5208C59.4938 49.3945 59.4938 49.2603 59.478 49.1182C59.1859 42.8349 52.208 35.2965 51.908 34.9808L51.537 34.5861H51.5449Z" fill="url(#paint5_linear_54_3342)" stroke="url(#paint6_linear_54_3342)" stroke-width="1.5"/>
<path d="M58.247 49.1652C58.0181 44.2948 53.1793 38.3115 51.5454 36.417C49.051 39.2587 45.0568 44.8316 44.8516 49.1652V49.5677C44.8437 53.1278 47.8511 56.0721 51.5533 56.0721C55.2554 56.0721 58.2628 53.1278 58.2628 49.5125C58.2628 49.402 58.2628 49.2994 58.2549 49.181V49.1652H58.247Z" fill="#FFD8A8"/>
<g clip-path="url(#clip1_54_3342)">
<path d="M120.697 19.1894H120.446C120.46 18.9729 120.474 18.7634 120.474 18.5399C120.474 12.96 115.946 8.43458 110.363 8.43458C107.861 8.43458 105.576 9.34944 103.809 10.8509C101.901 6.62581 97.6526 3.67871 92.7125 3.67871C85.9905 3.67871 80.5403 9.12596 80.5403 15.8442C80.5403 17.0035 80.715 18.1279 81.0154 19.1894H80.3097C76.8229 19.1894 74 22.0108 74 25.4956C74 28.9805 76.8229 31.8019 80.3097 31.8019H120.697C124.184 31.8019 127.007 28.9805 127.007 25.4956C127.007 22.0108 124.184 19.1894 120.697 19.1894Z" fill="url(#paint7_linear_54_3342)"/>
<path d="M89.1426 33.0537V66.6251" stroke="url(#paint8_linear_54_3342)" stroke-width="2" stroke-miterlimit="10"/>
<path d="M95.0312 33.0537V53.1966" stroke="url(#paint9_linear_54_3342)" stroke-width="2" stroke-miterlimit="10"/>
<path d="M100.92 33.0537V64.9466" stroke="url(#paint10_linear_54_3342)" stroke-width="2" stroke-miterlimit="10"/>
<path d="M105.968 33.0537V48.1609" stroke="url(#paint11_linear_54_3342)" stroke-width="2" stroke-miterlimit="10"/>
<path d="M111.856 33.0537V53.1966" stroke="url(#paint12_linear_54_3342)" stroke-width="2" stroke-miterlimit="10"/>
</g>
<path d="M121.412 54.5176H79V59.4588H121.412V54.5176Z" fill="white" stroke="url(#paint13_linear_54_3342)" stroke-width="3" stroke-linecap="round" stroke-linejoin="round"/>
<path d="M114.223 94.8726H85.0345L81.5723 59.4502H118.839L114.223 94.8726Z" fill="white" stroke="url(#paint14_linear_54_3342)" stroke-width="3" stroke-linecap="round" stroke-linejoin="round"/>
<path d="M99.8457 56.3604L119.922 76.0695" stroke="url(#paint15_linear_54_3342)" stroke-width="3" stroke-linecap="round" stroke-linejoin="round"/>
<path d="M99.8452 59.7206C101.717 59.7206 103.235 58.2162 103.235 56.3603C103.235 54.5045 101.717 53 99.8452 53C97.9729 53 96.4551 54.5045 96.4551 56.3603C96.4551 58.2162 97.9729 59.7206 99.8452 59.7206Z" fill="white" stroke="url(#paint16_linear_54_3342)" stroke-width="3" stroke-linecap="round" stroke-linejoin="round"/>
<defs>
<linearGradient id="paint0_linear_54_3342" x1="60.7179" y1="-5.43417" x2="60.7179" y2="57.0977" gradientUnits="userSpaceOnUse">
<stop offset="0.661458" stop-color="#FDAB25"/>
<stop offset="1" stop-color="#F0960F"/>
</linearGradient>
<linearGradient id="paint1_linear_54_3342" x1="42.4308" y1="-0.0513647" x2="42.4308" y2="62.4806" gradientUnits="userSpaceOnUse">
<stop offset="0.661458" stop-color="#FDAB25"/>
<stop offset="1" stop-color="#F0960F"/>
</linearGradient>
<linearGradient id="paint2_linear_54_3342" x1="37.4956" y1="27.8642" x2="37.4956" y2="36.7973" gradientUnits="userSpaceOnUse">
<stop offset="0.661458" stop-color="#FDAB25"/>
<stop offset="1" stop-color="#F0960F"/>
</linearGradient>
<linearGradient id="paint3_linear_54_3342" x1="65.6538" y1="51.4316" x2="65.6538" y2="60.3647" gradientUnits="userSpaceOnUse">
<stop offset="0.661458" stop-color="#FDAB25"/>
<stop offset="1" stop-color="#F0960F"/>
</linearGradient>
<linearGradient id="paint4_linear_54_3342" x1="51.5408" y1="7.71515" x2="51.5408" y2="55.8738" gradientUnits="userSpaceOnUse">
<stop offset="0.661458" stop-color="#FDAB25"/>
<stop offset="1" stop-color="#F0960F"/>
</linearGradient>
<linearGradient id="paint5_linear_54_3342" x1="51.5449" y1="5.87333" x2="51.5449" y2="56.3833" gradientUnits="userSpaceOnUse">
<stop offset="0.661458" stop-color="#FDAB25"/>
<stop offset="1" stop-color="#F0960F"/>
</linearGradient>
<linearGradient id="paint6_linear_54_3342" x1="51.5449" y1="5.87333" x2="51.5449" y2="56.3833" gradientUnits="userSpaceOnUse">
<stop offset="0.661458" stop-color="#FDAB25"/>
<stop offset="1" stop-color="#F0960F"/>
</linearGradient>
<linearGradient id="paint7_linear_54_3342" x1="100.503" y1="-26.5765" x2="100.503" y2="29.4583" gradientUnits="userSpaceOnUse">
<stop offset="0.661458" stop-color="#FDAB25"/>
<stop offset="1" stop-color="#F0960F"/>
</linearGradient>
<linearGradient id="paint8_linear_54_3342" x1="89.6426" y1="-3.06285" x2="89.6426" y2="63.8275" gradientUnits="userSpaceOnUse">
<stop offset="0.661458" stop-color="#FDAB25"/>
<stop offset="1" stop-color="#F0960F"/>
</linearGradient>
<linearGradient id="paint9_linear_54_3342" x1="95.5312" y1="11.3838" x2="95.5312" y2="51.518" gradientUnits="userSpaceOnUse">
<stop offset="0.661458" stop-color="#FDAB25"/>
<stop offset="1" stop-color="#F0960F"/>
</linearGradient>
<linearGradient id="paint10_linear_54_3342" x1="101.42" y1="-1.25702" x2="101.42" y2="62.2888" gradientUnits="userSpaceOnUse">
<stop offset="0.661458" stop-color="#FDAB25"/>
<stop offset="1" stop-color="#F0960F"/>
</linearGradient>
<linearGradient id="paint11_linear_54_3342" x1="106.468" y1="16.8013" x2="106.468" y2="46.9019" gradientUnits="userSpaceOnUse">
<stop offset="0.661458" stop-color="#FDAB25"/>
<stop offset="1" stop-color="#F0960F"/>
</linearGradient>
<linearGradient id="paint12_linear_54_3342" x1="112.356" y1="11.3838" x2="112.356" y2="51.518" gradientUnits="userSpaceOnUse">
<stop offset="0.661458" stop-color="#FDAB25"/>
<stop offset="1" stop-color="#F0960F"/>
</linearGradient>
<linearGradient id="paint13_linear_54_3342" x1="100.206" y1="49.2018" x2="100.206" y2="59.047" gradientUnits="userSpaceOnUse">
<stop offset="0.661458" stop-color="#FDAB25"/>
<stop offset="1" stop-color="#F0960F"/>
</linearGradient>
<linearGradient id="paint14_linear_54_3342" x1="100.206" y1="21.3424" x2="100.206" y2="91.9207" gradientUnits="userSpaceOnUse">
<stop offset="0.661458" stop-color="#FDAB25"/>
<stop offset="1" stop-color="#F0960F"/>
</linearGradient>
<linearGradient id="paint15_linear_54_3342" x1="109.884" y1="35.1571" x2="109.884" y2="74.427" gradientUnits="userSpaceOnUse">
<stop offset="0.661458" stop-color="#FDAB25"/>
<stop offset="1" stop-color="#F0960F"/>
</linearGradient>
<linearGradient id="paint16_linear_54_3342" x1="99.8452" y1="45.7699" x2="99.8452" y2="59.1606" gradientUnits="userSpaceOnUse">
<stop offset="0.661458" stop-color="#FDAB25"/>
<stop offset="1" stop-color="#F0960F"/>
</linearGradient>
<clipPath id="clip0_54_3342">
<rect width="24" height="20" fill="white" transform="translate(121 38)"/>
</clipPath>
<clipPath id="clip1_54_3342">
<rect width="53" height="47" fill="white" transform="translate(74 2)"/>
</clipPath>
</defs>
</svg>
