<svg width="159" height="97" viewBox="0 0 159 97" fill="none" xmlns="http://www.w3.org/2000/svg">
<g clip-path="url(#clip0_54_3343)">
<path d="M22.1738 14.6533V19.347" stroke="#CECECE" stroke-linecap="round" stroke-linejoin="round"/>
<path d="M22.1738 5V9.68102" stroke="#CECECE" stroke-linecap="round" stroke-linejoin="round"/>
<path d="M24.6533 12.1738H29.347" stroke="#CECECE" stroke-linecap="round" stroke-linejoin="round"/>
<path d="M15 12.1738H19.681" stroke="#CECECE" stroke-linecap="round" stroke-linejoin="round"/>
<path d="M15.3467 34.6045V38.1216" stroke="#CECECE" stroke-linecap="round" stroke-linejoin="round"/>
<path d="M15.3467 27.3555V30.8726" stroke="#CECECE" stroke-linecap="round" stroke-linejoin="round"/>
<path d="M17.2061 32.7451H20.7231" stroke="#CECECE" stroke-linecap="round" stroke-linejoin="round"/>
<path d="M9.96973 32.7451H13.4742" stroke="#CECECE" stroke-linecap="round" stroke-linejoin="round"/>
<path d="M44.5879 19.7266V22.0671" stroke="#CECECE" stroke-linecap="round" stroke-linejoin="round"/>
<path d="M44.5879 14.8936V17.2341" stroke="#CECECE" stroke-linecap="round" stroke-linejoin="round"/>
<path d="M45.8281 18.4863H48.1813" stroke="#CECECE" stroke-linecap="round" stroke-linejoin="round"/>
<path d="M41.0078 18.4863H43.3483" stroke="#CECECE" stroke-linecap="round" stroke-linejoin="round"/>
<path d="M141.324 69.8252V73.3423" stroke="#CECECE" stroke-linecap="round" stroke-linejoin="round"/>
<path d="M141.324 62.5889V66.106" stroke="#CECECE" stroke-linecap="round" stroke-linejoin="round"/>
<path d="M143.184 67.9658H146.701" stroke="#CECECE" stroke-linecap="round" stroke-linejoin="round"/>
<path d="M135.935 67.9658H139.452" stroke="#CECECE" stroke-linecap="round" stroke-linejoin="round"/>
<path d="M144.595 87.7588V90.0993" stroke="#FFD8A8" stroke-linecap="round" stroke-linejoin="round"/>
<path d="M144.595 82.9258V85.2789" stroke="#FFD8A8" stroke-linecap="round" stroke-linejoin="round"/>
<path d="M145.848 86.5186H148.188" stroke="#FFD8A8" stroke-linecap="round" stroke-linejoin="round"/>
<path d="M141.015 86.5186H143.355" stroke="#FFD8A8" stroke-linecap="round" stroke-linejoin="round"/>
<path d="M56.7612 91.4524H24.2436L15.5498 44.4697H65.4503L56.7612 91.4524Z" fill="#FFD8A8" stroke="url(#paint0_linear_54_3343)" stroke-width="3" stroke-linecap="round" stroke-linejoin="round"/>
<path d="M21.7207 77.8164H59.2848" stroke="url(#paint1_linear_54_3343)" stroke-width="3" stroke-linecap="round" stroke-linejoin="round"/>
<path d="M19.8896 67.9277H60.8117" stroke="url(#paint2_linear_54_3343)" stroke-width="3" stroke-linecap="round" stroke-linejoin="round"/>
<path d="M18.2061 58.0391H62.9415" stroke="url(#paint3_linear_54_3343)" stroke-width="3" stroke-linecap="round" stroke-linejoin="round"/>
<path d="M29.0674 44.4697H41.3137V58.5395C41.3137 59.4499 40.5832 60.1916 39.6868 60.1916H30.699C29.8025 60.1916 29.0721 59.4499 29.0721 58.5395V44.4697H29.0674Z" fill="white" stroke="url(#paint4_linear_54_3343)" stroke-width="2.5" stroke-linecap="round" stroke-linejoin="round"/>
<path d="M50.6899 44.4697V61.5981C50.5523 61.7475 50.4148 61.9016 50.282 62.0509C47.7635 64.8543 44.064 66.6557 40.3361 66.4294C38.6855 66.3282 37.0777 65.8513 35.4319 65.7454C35.152 65.7261 34.8674 65.7213 34.5781 65.7309V44.4697H50.6899Z" fill="white" stroke="url(#paint5_linear_54_3343)" stroke-width="2.5" stroke-linecap="round" stroke-linejoin="round"/>
<path d="M33.7549 44.4261C33.7549 44.4261 38.7273 31.7859 46.9486 33.1716C55.1698 34.5572 52.3743 38.8834 59.7598 38.1906C67.1452 37.4977 62.272 44.4261 62.272 44.4261H33.7549Z" fill="white" stroke="url(#paint6_linear_54_3343)" stroke-width="2.5" stroke-linecap="round" stroke-linejoin="round"/>
<path d="M49.8399 34.0986C49.8399 34.0986 44.6512 35.1314 45.689 40.2953" stroke="url(#paint7_linear_54_3343)" stroke-width="2.5" stroke-linecap="round" stroke-linejoin="round"/>
<path d="M23.377 44.4179H43.0939C43.0939 44.4179 34.8261 35.7409 29.4608 36.1802C24.0908 36.6111 23.3817 44.4264 23.3817 44.4264L23.377 44.4179Z" fill="white" stroke="url(#paint8_linear_54_3343)" stroke-width="2.5" stroke-linecap="round" stroke-linejoin="round"/>
<g clip-path="url(#clip1_54_3343)">
<path d="M130.109 6.87695H55.8916V92.1221H130.109V6.87695Z" fill="white" stroke="url(#paint9_linear_54_3343)" stroke-width="3.5" stroke-linecap="round" stroke-linejoin="round"/>
<path d="M55.8916 23.8584H130.109" stroke="url(#paint10_linear_54_3343)" stroke-width="3" stroke-linecap="round" stroke-linejoin="round"/>
<path d="M92.9967 81.2019C107.036 81.2019 118.417 70.0008 118.417 56.1835C118.417 42.3662 107.036 31.165 92.9967 31.165C78.9573 31.165 67.5762 42.3662 67.5762 56.1835C67.5762 70.0008 78.9573 81.2019 92.9967 81.2019Z" fill="#FFD8A8" stroke="url(#paint11_linear_54_3343)" stroke-width="3" stroke-linecap="round" stroke-linejoin="round"/>
<path d="M92.9968 72.928C102.394 72.928 110.011 65.4309 110.011 56.1828C110.011 46.9346 102.394 39.4375 92.9968 39.4375C83.6 39.4375 75.9824 46.9346 75.9824 56.1828C75.9824 65.4309 83.6 72.928 92.9968 72.928Z" fill="white"/>
<path d="M68.3191 12.2646H62.1973V18.2897H68.3191V12.2646Z" fill="url(#paint12_linear_54_3343)" stroke="url(#paint13_linear_54_3343)" stroke-width="2" stroke-linecap="round" stroke-linejoin="round"/>
<path d="M79.2674 12.2646H73.1455V18.2897H79.2674V12.2646Z" fill="url(#paint14_linear_54_3343)" stroke="url(#paint15_linear_54_3343)" stroke-width="2" stroke-linecap="round" stroke-linejoin="round"/>
<path d="M90.2156 12.2646H84.0938V18.2897H90.2156V12.2646Z" fill="url(#paint16_linear_54_3343)" stroke="url(#paint17_linear_54_3343)" stroke-width="2" stroke-linecap="round" stroke-linejoin="round"/>
<path d="M124.54 12.2646H106.358V18.2897H124.54V12.2646Z" fill="url(#paint18_linear_54_3343)" stroke="url(#paint19_linear_54_3343)" stroke-width="2" stroke-linecap="round" stroke-linejoin="round"/>
<path d="M101.42 58.3134C101.116 51.8734 94.0814 44.2519 93.7851 43.931L92.9974 43.0859L92.2098 43.931C91.9134 44.2519 84.8715 51.8734 84.5752 58.3134L84.5596 58.7359C84.5596 63.3214 88.3418 67.0461 92.9974 67.0461C97.6531 67.0461 101.427 63.3135 101.427 58.7359C101.427 58.5951 101.427 58.4542 101.412 58.3055L101.42 58.3134Z" fill="white" stroke="url(#paint20_linear_54_3343)" stroke-width="1.5"/>
<path d="M92.9974 67.6407C88.0298 67.6407 83.9824 63.6499 83.9824 58.7437L83.998 58.3055C84.31 51.6542 91.4845 43.8684 91.7886 43.5397L92.5762 42.6946C92.7946 42.4599 93.2001 42.4599 93.4185 42.6946L94.2061 43.5397C94.5102 43.8684 101.685 51.6464 101.997 58.2898C102.004 58.4463 102.012 58.6028 102.012 58.7515C102.012 63.6578 97.9727 67.6485 92.9974 67.6485V67.6407ZM92.9974 43.9466L92.6308 44.3379C92.3345 44.6509 85.4407 52.1316 85.1522 58.3524L85.1366 58.7671C85.1366 63.0161 88.6615 66.4826 92.9974 66.4826C97.3333 66.4826 100.85 63.0161 100.85 58.7515C100.85 58.6263 100.85 58.4933 100.835 58.3524C100.546 52.1237 93.6524 44.6509 93.3561 44.3379L92.9896 43.9466H92.9974Z" fill="url(#paint21_linear_54_3343)" stroke="url(#paint22_linear_54_3343)" stroke-width="1.5"/>
<path d="M99.6177 58.3991C99.3915 53.5711 94.6111 47.6397 92.9968 45.7617C90.5325 48.5787 86.5866 54.1032 86.3838 58.3991V58.7982C86.376 62.3272 89.3472 65.2459 93.0046 65.2459C96.6621 65.2459 99.6333 62.3272 99.6333 58.7434C99.6333 58.6338 99.6333 58.5321 99.6255 58.4147V58.3991H99.6177Z" fill="#FFD8A8"/>
</g>
</g>
<defs>
<linearGradient id="paint0_linear_54_3343" x1="40.5" y1="-6.07486" x2="40.5" y2="87.5372" gradientUnits="userSpaceOnUse">
<stop offset="0.661458" stop-color="#FDAB25"/>
<stop offset="1" stop-color="#F0960F"/>
</linearGradient>
<linearGradient id="paint1_linear_54_3343" x1="40.5027" y1="76.7406" x2="40.5027" y2="78.7331" gradientUnits="userSpaceOnUse">
<stop offset="0.661458" stop-color="#FDAB25"/>
<stop offset="1" stop-color="#F0960F"/>
</linearGradient>
<linearGradient id="paint2_linear_54_3343" x1="40.3507" y1="66.8519" x2="40.3507" y2="68.8444" gradientUnits="userSpaceOnUse">
<stop offset="0.661458" stop-color="#FDAB25"/>
<stop offset="1" stop-color="#F0960F"/>
</linearGradient>
<linearGradient id="paint3_linear_54_3343" x1="40.5738" y1="56.9633" x2="40.5738" y2="58.9557" gradientUnits="userSpaceOnUse">
<stop offset="0.661458" stop-color="#FDAB25"/>
<stop offset="1" stop-color="#F0960F"/>
</linearGradient>
<linearGradient id="paint4_linear_54_3343" x1="35.1905" y1="27.5559" x2="35.1905" y2="58.8815" gradientUnits="userSpaceOnUse">
<stop offset="0.661458" stop-color="#FDAB25"/>
<stop offset="1" stop-color="#F0960F"/>
</linearGradient>
<linearGradient id="paint5_linear_54_3343" x1="42.634" y1="20.8247" x2="42.634" y2="64.6169" gradientUnits="userSpaceOnUse">
<stop offset="0.661458" stop-color="#FDAB25"/>
<stop offset="1" stop-color="#F0960F"/>
</linearGradient>
<linearGradient id="paint6_linear_54_3343" x1="48.8021" y1="20.8435" x2="48.8021" y2="43.4794" gradientUnits="userSpaceOnUse">
<stop offset="0.661458" stop-color="#FDAB25"/>
<stop offset="1" stop-color="#F0960F"/>
</linearGradient>
<linearGradient id="paint7_linear_54_3343" x1="47.6958" y1="27.4322" x2="47.6958" y2="39.7789" gradientUnits="userSpaceOnUse">
<stop offset="0.661458" stop-color="#FDAB25"/>
<stop offset="1" stop-color="#F0960F"/>
</linearGradient>
<linearGradient id="paint8_linear_54_3343" x1="33.2354" y1="27.2754" x2="33.2354" y2="43.7378" gradientUnits="userSpaceOnUse">
<stop offset="0.661458" stop-color="#FDAB25"/>
<stop offset="1" stop-color="#F0960F"/>
</linearGradient>
<linearGradient id="paint9_linear_54_3343" x1="93.0001" y1="-84.8308" x2="93.0001" y2="85.0183" gradientUnits="userSpaceOnUse">
<stop offset="0.661458" stop-color="#FDAB25"/>
<stop offset="1" stop-color="#F0960F"/>
</linearGradient>
<linearGradient id="paint10_linear_54_3343" x1="93.0001" y1="22.7826" x2="93.0001" y2="24.7751" gradientUnits="userSpaceOnUse">
<stop offset="0.661458" stop-color="#FDAB25"/>
<stop offset="1" stop-color="#F0960F"/>
</linearGradient>
<linearGradient id="paint11_linear_54_3343" x1="92.9967" y1="-22.6652" x2="92.9967" y2="77.0321" gradientUnits="userSpaceOnUse">
<stop offset="0.661458" stop-color="#FDAB25"/>
<stop offset="1" stop-color="#F0960F"/>
</linearGradient>
<linearGradient id="paint12_linear_54_3343" x1="65.2582" y1="5.78287" x2="65.2582" y2="17.7876" gradientUnits="userSpaceOnUse">
<stop offset="0.661458" stop-color="#FDAB25"/>
<stop offset="1" stop-color="#F0960F"/>
</linearGradient>
<linearGradient id="paint13_linear_54_3343" x1="65.2582" y1="5.78287" x2="65.2582" y2="17.7876" gradientUnits="userSpaceOnUse">
<stop offset="0.661458" stop-color="#FDAB25"/>
<stop offset="1" stop-color="#F0960F"/>
</linearGradient>
<linearGradient id="paint14_linear_54_3343" x1="76.2064" y1="5.78287" x2="76.2064" y2="17.7876" gradientUnits="userSpaceOnUse">
<stop offset="0.661458" stop-color="#FDAB25"/>
<stop offset="1" stop-color="#F0960F"/>
</linearGradient>
<linearGradient id="paint15_linear_54_3343" x1="76.2064" y1="5.78287" x2="76.2064" y2="17.7876" gradientUnits="userSpaceOnUse">
<stop offset="0.661458" stop-color="#FDAB25"/>
<stop offset="1" stop-color="#F0960F"/>
</linearGradient>
<linearGradient id="paint16_linear_54_3343" x1="87.1547" y1="5.78287" x2="87.1547" y2="17.7876" gradientUnits="userSpaceOnUse">
<stop offset="0.661458" stop-color="#FDAB25"/>
<stop offset="1" stop-color="#F0960F"/>
</linearGradient>
<linearGradient id="paint17_linear_54_3343" x1="87.1547" y1="5.78287" x2="87.1547" y2="17.7876" gradientUnits="userSpaceOnUse">
<stop offset="0.661458" stop-color="#FDAB25"/>
<stop offset="1" stop-color="#F0960F"/>
</linearGradient>
<linearGradient id="paint18_linear_54_3343" x1="115.449" y1="5.78287" x2="115.449" y2="17.7876" gradientUnits="userSpaceOnUse">
<stop offset="0.661458" stop-color="#FDAB25"/>
<stop offset="1" stop-color="#F0960F"/>
</linearGradient>
<linearGradient id="paint19_linear_54_3343" x1="115.449" y1="5.78287" x2="115.449" y2="17.7876" gradientUnits="userSpaceOnUse">
<stop offset="0.661458" stop-color="#FDAB25"/>
<stop offset="1" stop-color="#F0960F"/>
</linearGradient>
<linearGradient id="paint20_linear_54_3343" x1="92.9935" y1="17.3093" x2="92.9935" y2="65.0494" gradientUnits="userSpaceOnUse">
<stop offset="0.661458" stop-color="#FDAB25"/>
<stop offset="1" stop-color="#F0960F"/>
</linearGradient>
<linearGradient id="paint21_linear_54_3343" x1="92.9974" y1="15.4834" x2="92.9974" y2="65.5543" gradientUnits="userSpaceOnUse">
<stop offset="0.661458" stop-color="#FDAB25"/>
<stop offset="1" stop-color="#F0960F"/>
</linearGradient>
<linearGradient id="paint22_linear_54_3343" x1="92.9974" y1="15.4834" x2="92.9974" y2="65.5543" gradientUnits="userSpaceOnUse">
<stop offset="0.661458" stop-color="#FDAB25"/>
<stop offset="1" stop-color="#F0960F"/>
</linearGradient>
<clipPath id="clip0_54_3343">
<rect width="159" height="89" fill="white" transform="translate(0 4)"/>
</clipPath>
<clipPath id="clip1_54_3343">
<rect width="76" height="87" fill="white" transform="translate(55 6)"/>
</clipPath>
</defs>
</svg>
