<svg width="159" height="97" viewBox="0 0 159 97" fill="none" xmlns="http://www.w3.org/2000/svg">
<g clip-path="url(#clip0_54_3339)">
<path d="M21.8066 13.2861V17.9798" stroke="#CECECE" stroke-linecap="round" stroke-linejoin="round"/>
<path d="M21.8066 3.63281V8.31384" stroke="#CECECE" stroke-linecap="round" stroke-linejoin="round"/>
<path d="M24.2861 10.8066H28.9798" stroke="#CECECE" stroke-linecap="round" stroke-linejoin="round"/>
<path d="M14.6328 10.8066H19.3138" stroke="#CECECE" stroke-linecap="round" stroke-linejoin="round"/>
<path d="M28.9795 33.2373V36.7544" stroke="#CECECE" stroke-linecap="round" stroke-linejoin="round"/>
<path d="M28.9795 25.9883V29.5054" stroke="#CECECE" stroke-linecap="round" stroke-linejoin="round"/>
<path d="M30.8389 31.3779H34.356" stroke="#CECECE" stroke-linecap="round" stroke-linejoin="round"/>
<path d="M23.6025 31.3779H27.107" stroke="#CECECE" stroke-linecap="round" stroke-linejoin="round"/>
<path d="M44.2207 18.3594V20.6999" stroke="#CECECE" stroke-linecap="round" stroke-linejoin="round"/>
<path d="M44.2207 13.5264V15.8669" stroke="#CECECE" stroke-linecap="round" stroke-linejoin="round"/>
<path d="M45.4609 17.1191H47.8141" stroke="#CECECE" stroke-linecap="round" stroke-linejoin="round"/>
<path d="M40.6406 17.1191H42.9811" stroke="#CECECE" stroke-linecap="round" stroke-linejoin="round"/>
<path d="M116.957 68.458V71.9751" stroke="#CECECE" stroke-linecap="round" stroke-linejoin="round"/>
<path d="M116.957 61.2217V64.7388" stroke="#CECECE" stroke-linecap="round" stroke-linejoin="round"/>
<path d="M118.816 66.5986H122.333" stroke="#CECECE" stroke-linecap="round" stroke-linejoin="round"/>
<path d="M111.567 66.5986H115.084" stroke="#CECECE" stroke-linecap="round" stroke-linejoin="round"/>
<path d="M130.228 76.3916V78.7321" stroke="#FFEC99" stroke-linecap="round" stroke-linejoin="round"/>
<path d="M130.228 71.5586V73.9118" stroke="#FFEC99" stroke-linecap="round" stroke-linejoin="round"/>
<path d="M131.48 75.1514H133.821" stroke="#FFEC99" stroke-linecap="round" stroke-linejoin="round"/>
<path d="M126.647 75.1514H128.988" stroke="#FFEC99" stroke-linecap="round" stroke-linejoin="round"/>
<path d="M57 81C57.7398 88.5505 61.0526 94 64.9079 94H92.0921C95.9474 94 99.2602 88.5505 100 81H57Z" fill="#FFEC99"/>
<path d="M47.5859 40.6055L56.7554 87.8457C57.4949 91.6494 60.8061 94.3947 64.6596 94.3947H91.8313C95.6848 94.3947 98.996 91.6494 99.7355 87.8457L108.913 40.6055H47.5859Z" stroke="url(#paint0_linear_54_3339)" stroke-width="3" stroke-linecap="round" stroke-linejoin="round"/>
<path d="M87.0216 65.3101C86.7048 58.6254 79.3784 50.7141 79.0697 50.3811L78.2494 49.5039L77.429 50.3811C77.1204 50.7141 69.7858 58.6254 69.4772 65.3101L69.4609 65.7487C69.4609 70.5084 73.4003 74.3747 78.2494 74.3747C83.0984 74.3747 87.0297 70.5003 87.0297 65.7487C87.0297 65.6025 87.0297 65.4563 87.0134 65.302L87.0216 65.3101Z" fill="white" stroke="url(#paint1_linear_54_3339)" stroke-width="1.5"/>
<path d="M78.2498 74.992C73.0759 74.992 68.8604 70.8496 68.8604 65.7568L68.8766 65.302C69.2015 58.3979 76.6741 50.3162 76.9909 49.975L77.8112 49.0978C78.0387 48.8541 78.461 48.8541 78.6885 49.0978L79.5088 49.975C79.8256 50.3162 87.2982 58.3898 87.6231 65.2857C87.6312 65.4482 87.6393 65.6106 87.6393 65.765C87.6393 70.8577 83.4319 75.0001 78.2498 75.0001V74.992ZM78.2498 50.3974L77.8681 50.8035C77.5594 51.1284 70.3792 58.8934 70.0787 65.3507L70.0625 65.7812C70.0625 70.1917 73.7338 73.7899 78.2498 73.7899C82.7659 73.7899 86.4291 70.1917 86.4291 65.765C86.4291 65.635 86.4291 65.4969 86.4129 65.3507C86.1123 58.8853 78.9321 51.1284 78.6235 50.8035L78.2417 50.3974H78.2498Z" fill="url(#paint2_linear_54_3339)" stroke="url(#paint3_linear_54_3339)" stroke-width="1.5"/>
<path d="M85.146 65.3989C84.9105 60.3874 79.9315 54.2306 78.2501 52.2812C75.6834 55.2053 71.5735 60.9397 71.3623 65.3989V65.8132C71.3542 69.4764 74.4488 72.506 78.2582 72.506C82.0676 72.506 85.1623 69.4764 85.1623 65.7563C85.1623 65.6426 85.1623 65.537 85.1542 65.4152V65.3989H85.146Z" fill="#FFEC99"/>
<g clip-path="url(#clip1_54_3339)">
<path d="M99.4408 14.915H73.8271V27.5084H99.4408V14.915Z" fill="white" stroke="url(#paint4_linear_54_3339)" stroke-width="3.09677" stroke-miterlimit="10"/>
<path d="M92.2572 2.50785C97.4348 2.85224 100.256 3.85748 100.256 6.86387C100.256 9.58173 98.1731 11.434 91.7366 11.6387C84.4198 11.8714 76.9799 10.7731 74.3863 7.99011C71.1681 4.54625 71.9537 1 71.9537 1C71.9537 1 73.7995 3.44793 77.9738 3.44793C82.148 3.44793 87.108 2.17277 92.2572 2.50785Z" fill="url(#paint5_linear_54_3339)"/>
<path d="M79.3223 20.6133V27.8391" stroke="url(#paint6_linear_54_3339)" stroke-width="3.09677" stroke-miterlimit="10" stroke-linecap="round" stroke-linejoin="round"/>
<path d="M86.5479 20.6133V27.8391" stroke="url(#paint7_linear_54_3339)" stroke-width="3.09677" stroke-miterlimit="10" stroke-linecap="round" stroke-linejoin="round"/>
<path d="M93.7734 20.6133V27.8391" stroke="url(#paint8_linear_54_3339)" stroke-width="3.09677" stroke-miterlimit="10" stroke-linecap="round" stroke-linejoin="round"/>
<path d="M144.763 29.7892C144.763 31.0457 143.722 32.0696 142.444 32.0696H72.2653C70.9875 32.0696 69.9463 31.0457 69.9463 29.7892C69.9463 28.5326 70.9875 27.5088 72.2653 27.5088H142.444C143.722 27.5088 144.763 28.5326 144.763 29.7892Z" fill="url(#paint9_linear_54_3339)"/>
</g>
</g>
<defs>
<linearGradient id="paint0_linear_54_3339" x1="78.2496" y1="-17.2616" x2="78.2496" y2="89.9122" gradientUnits="userSpaceOnUse">
<stop offset="0.463542" stop-color="#FFC71C"/>
<stop offset="1" stop-color="#FAB607"/>
</linearGradient>
<linearGradient id="paint1_linear_54_3339" x1="78.2453" y1="22.7476" x2="78.2453" y2="72.3021" gradientUnits="userSpaceOnUse">
<stop offset="0.463542" stop-color="#FFC71C"/>
<stop offset="1" stop-color="#FAB607"/>
</linearGradient>
<linearGradient id="paint2_linear_54_3339" x1="78.2498" y1="20.8524" x2="78.2498" y2="72.8264" gradientUnits="userSpaceOnUse">
<stop offset="0.463542" stop-color="#FFC71C"/>
<stop offset="1" stop-color="#FAB607"/>
</linearGradient>
<linearGradient id="paint3_linear_54_3339" x1="78.2498" y1="20.8524" x2="78.2498" y2="72.8264" gradientUnits="userSpaceOnUse">
<stop offset="0.463542" stop-color="#FFC71C"/>
<stop offset="1" stop-color="#FAB607"/>
</linearGradient>
<linearGradient id="paint4_linear_54_3339" x1="86.634" y1="1.36694" x2="86.634" y2="26.459" gradientUnits="userSpaceOnUse">
<stop offset="0.463542" stop-color="#FFC71C"/>
<stop offset="1" stop-color="#FAB607"/>
</linearGradient>
<linearGradient id="paint5_linear_54_3339" x1="86.0623" y1="-10.4779" x2="86.0623" y2="10.7799" gradientUnits="userSpaceOnUse">
<stop offset="0.463542" stop-color="#FFC71C"/>
<stop offset="1" stop-color="#FAB607"/>
</linearGradient>
<linearGradient id="paint6_linear_54_3339" x1="79.8223" y1="12.8397" x2="79.8223" y2="27.2369" gradientUnits="userSpaceOnUse">
<stop offset="0.463542" stop-color="#FFC71C"/>
<stop offset="1" stop-color="#FAB607"/>
</linearGradient>
<linearGradient id="paint7_linear_54_3339" x1="87.0479" y1="12.8397" x2="87.0479" y2="27.2369" gradientUnits="userSpaceOnUse">
<stop offset="0.463542" stop-color="#FFC71C"/>
<stop offset="1" stop-color="#FAB607"/>
</linearGradient>
<linearGradient id="paint8_linear_54_3339" x1="94.2734" y1="12.8397" x2="94.2734" y2="27.2369" gradientUnits="userSpaceOnUse">
<stop offset="0.463542" stop-color="#FFC71C"/>
<stop offset="1" stop-color="#FAB607"/>
</linearGradient>
<linearGradient id="paint9_linear_54_3339" x1="107.355" y1="22.6022" x2="107.355" y2="31.6895" gradientUnits="userSpaceOnUse">
<stop offset="0.463542" stop-color="#FFC71C"/>
<stop offset="1" stop-color="#FAB607"/>
</linearGradient>
<clipPath id="clip0_54_3339">
<rect width="131" height="95" fill="white" transform="translate(14 1)"/>
</clipPath>
<clipPath id="clip1_54_3339">
<rect width="75.3548" height="32" fill="white" transform="translate(69 1)"/>
</clipPath>
</defs>
</svg>
