<svg width="159" height="97" viewBox="0 0 159 97" fill="none" xmlns="http://www.w3.org/2000/svg">
<g clip-path="url(#clip0_54_4608)">
<path d="M65.4649 46.3083C65.1588 44.2038 63.6538 42.3034 60.8988 42.3034C60.733 42.3034 60.5927 42.3416 60.4397 42.3544C60.4397 38.0434 57.6592 33.7324 52.111 33.7324C47.6215 33.7324 44.9813 36.5639 44.114 39.9183C43.6421 39.8418 43.1574 39.778 42.6345 39.778C38.1832 39.778 35.7599 42.9028 35.3135 46.321H65.4649V46.3083Z" fill="#CECECE"/>
<path d="M59.8152 16.7565C59.7259 16.0933 59.2412 15.5066 58.3867 15.5066C58.3356 15.5066 58.2846 15.5066 58.2464 15.5193C58.2464 14.1673 57.3791 12.8281 55.6445 12.8281C54.2415 12.8281 53.4124 13.7082 53.1446 14.7668C52.9915 14.7413 52.8512 14.7158 52.6854 14.7158C51.2952 14.7158 50.5299 15.6979 50.3896 16.7692H59.8279L59.8152 16.7565Z" fill="#CECECE"/>
<path d="M79.9541 33.3368C79.9285 31.7552 78.9082 30.1864 76.8675 30.1864C76.6507 30.1864 76.4593 30.2119 76.2553 30.2502C75.7834 28.5028 74.3804 27.0488 72.0208 27.0488C69.6612 27.0488 68.169 28.6049 67.7481 30.4287C67.5185 30.3777 67.2762 30.3522 67.0211 30.3522C65.0569 30.3522 64.0365 31.819 63.9473 33.3368H79.9413H79.9541Z" fill="#CECECE"/>
<path d="M114.531 5.83941C113.638 4.88283 112.579 4.19409 111.355 3.7987C110.181 3.18649 108.919 2.89314 107.554 2.94416C105.003 3.05895 102.363 3.90074 100.59 5.82665C99.085 7.45922 98.0647 9.4234 97.7841 11.6044C97.2739 11.4641 96.7254 11.3621 96.1132 11.3621C90.7054 11.3621 89.1621 17.3184 91.4324 20.7748C90.0294 21.1702 88.958 22.3691 88.958 23.9124V24.0655C88.958 25.7873 90.463 27.4326 92.2359 27.3433C94.0088 27.2668 95.5138 25.9021 95.5138 24.0655V23.9124C95.5138 23.6446 95.4628 23.3767 95.3862 23.1089C95.6158 23.1344 95.8326 23.1727 96.0877 23.1727C98.4983 23.1727 100.144 21.9737 101.024 20.3539C101.814 21.0682 102.707 21.6166 103.728 21.9355C104.901 22.5477 106.164 22.841 107.528 22.79C110.079 22.6752 112.719 21.8334 114.492 19.9075C116.265 17.9816 117.375 15.6093 117.375 12.9436V12.7906C117.375 10.2652 116.278 7.61227 114.492 5.82665L114.531 5.83941Z" fill="white"/>
<path d="M92.1343 28.3253C91.1267 28.3253 90.1574 27.9171 89.3794 27.1774C88.5121 26.3484 88.0146 25.226 88.0146 24.0781V23.925C88.0146 22.42 88.8182 21.068 90.1064 20.3155C89.1881 18.2621 89.2518 15.7367 90.336 13.7342C91.4711 11.617 93.5756 10.4053 96.1137 10.4053C96.4198 10.4053 96.7132 10.4308 97.0193 10.4691C97.4529 8.5687 98.435 6.75758 99.889 5.17603C101.649 3.28838 104.366 2.15323 107.516 2.00018C109.021 1.93641 110.424 2.25527 111.725 2.9185C113.064 3.3649 114.238 4.13017 115.207 5.17603C117.146 7.12745 118.357 10.0482 118.357 12.8032V12.9562C118.357 15.6984 117.273 18.3258 115.22 20.5706C113.46 22.4838 110.756 23.6189 107.593 23.7592C106.1 23.823 104.685 23.5041 103.384 22.8409C102.631 22.5858 101.93 22.2287 101.279 21.7695C100.144 23.2108 98.4605 24.0526 96.4963 24.1418C96.4708 26.3866 94.6342 28.2232 92.3001 28.3253C92.2491 28.3253 92.1853 28.3253 92.1343 28.3253ZM96.1265 12.3313C94.2898 12.3313 92.8231 13.1603 92.0195 14.6526C91.1012 16.3616 91.1905 18.6702 92.2491 20.2645C92.4149 20.5196 92.4532 20.8384 92.3512 21.119C92.2491 21.3996 92.0068 21.6165 91.7134 21.7057C90.8334 21.9481 89.9406 22.7389 89.9406 23.9378V24.0908C89.9406 24.703 90.2339 25.3408 90.7186 25.8127C91.165 26.2336 91.7007 26.4504 92.2364 26.4249C93.5883 26.3611 94.6087 25.3663 94.6087 24.0908V23.9378C94.6087 23.7847 94.5832 23.6062 94.5194 23.3893C94.4301 23.0832 94.5194 22.7644 94.7107 22.522C94.9148 22.2797 95.2209 22.1521 95.527 22.1904L95.7821 22.2159C95.8969 22.2287 96.0117 22.2542 96.1265 22.2542C98.4733 22.2542 99.6594 20.9915 100.233 19.9329C100.374 19.6778 100.629 19.4992 100.909 19.4482C101.203 19.41 101.496 19.4865 101.713 19.6778C102.414 20.3155 103.205 20.7874 104.06 21.068C104.111 21.0808 104.162 21.1063 104.213 21.1318C105.246 21.6802 106.355 21.9098 107.529 21.8716C109.059 21.8078 111.916 21.3741 113.83 19.2952C115.551 17.4203 116.47 15.2265 116.47 12.969V12.8159C116.47 10.5456 115.475 8.13505 113.868 6.528C113.868 6.528 113.855 6.51524 113.842 6.50249C113.052 5.6607 112.146 5.07399 111.075 4.71687C111.024 4.70412 110.973 4.67861 110.922 4.6531C109.888 4.10466 108.792 3.88783 107.605 3.91334C106.075 3.97711 103.218 4.41076 101.305 6.48973C99.8507 8.07128 98.9834 9.84414 98.7411 11.7446C98.7028 12.0124 98.5498 12.2675 98.3202 12.4205C98.0906 12.5736 97.81 12.6246 97.5422 12.5481C97.032 12.4078 96.5729 12.344 96.1265 12.344V12.3313Z" fill="url(#paint0_linear_54_4608)"/>
<path d="M107.491 5.83887C98.512 5.83887 98.4992 19.7922 107.491 19.7922C116.483 19.7922 116.483 5.83887 107.491 5.83887Z" fill="#FFEC99"/>
<path d="M96.1519 14.1299C92.0705 14.1299 92.0705 20.4688 96.1519 20.4688C100.233 20.4688 100.233 14.1299 96.1519 14.1299Z" fill="#FFEC99"/>
<path d="M92.2743 22.5479C90.3356 22.5479 90.3356 25.5579 92.2743 25.5579C94.213 25.5579 94.213 22.5479 92.2743 22.5479Z" fill="#FFEC99"/>
<path d="M117.848 26.0928C115.093 26.0928 113.269 27.5213 112.338 29.409C111.675 28.9371 110.846 28.6437 109.812 28.6437C106.177 28.6437 104.864 32.215 105.833 34.8296C102.925 35.0974 103.002 39.7528 106.088 39.7528C107.657 39.7528 108.448 38.5539 108.473 37.3422C108.881 37.457 109.315 37.5463 109.812 37.5463C111.088 37.5463 112.07 37.0871 112.771 36.3984C113.779 37.8907 115.475 38.9365 117.835 38.9365C126.1 38.9365 126.113 26.0801 117.835 26.0801L117.848 26.0928Z" fill="white"/>
<path d="M106.101 40.7097C103.92 40.7097 102.848 39.0389 102.772 37.4829C102.708 36.1692 103.346 34.7662 104.672 34.1795C104.392 32.6617 104.711 31.0674 105.565 29.8302C106.522 28.4655 108.027 27.713 109.812 27.713C110.59 27.713 111.317 27.8533 111.981 28.1466C113.256 26.2335 115.348 25.1621 117.835 25.1621C122.529 25.1621 124.99 28.8736 124.99 32.5342C124.99 36.1947 122.529 39.919 117.835 39.919C115.73 39.919 113.907 39.1537 112.618 37.7507C111.662 38.3502 110.45 38.6308 109.238 38.4905C108.83 39.7149 107.759 40.7352 106.101 40.7352V40.7097ZM109.825 29.6006C108.664 29.6006 107.733 30.047 107.134 30.9016C106.445 31.8964 106.292 33.2994 106.739 34.4983C106.841 34.7789 106.815 35.085 106.649 35.3401C106.496 35.5952 106.228 35.7483 105.935 35.7865C104.889 35.8886 104.647 36.8324 104.672 37.3808C104.672 37.6232 104.8 38.7966 106.101 38.7966C107.402 38.7966 107.529 37.5594 107.529 37.3171C107.529 37.0237 107.682 36.7431 107.925 36.5646C108.167 36.386 108.473 36.335 108.754 36.4243C110.182 36.8451 111.305 36.5135 112.121 35.71C112.325 35.5187 112.606 35.4167 112.886 35.4422C113.167 35.4677 113.422 35.6207 113.575 35.8503C114.238 36.8196 115.514 37.9803 117.848 37.9803C121.457 37.9803 123.102 35.1361 123.102 32.5087C123.102 31.0546 122.631 29.7027 121.776 28.7078C120.832 27.611 119.48 27.037 117.848 27.037C114.978 27.037 113.702 28.7844 113.205 29.8175C113.077 30.0726 112.861 30.2511 112.58 30.3276C112.312 30.3914 112.019 30.3404 111.789 30.1746C111.241 29.7792 110.578 29.5879 109.825 29.5879V29.6006Z" fill="url(#paint1_linear_54_4608)"/>
<path d="M117.783 28.0068C112.069 28.0068 112.057 36.8839 117.783 36.8839C123.51 36.8839 123.51 28.0068 117.783 28.0068Z" fill="#FFEC99"/>
<path d="M110.067 31.208C109.034 31.259 108.167 32.0498 108.167 33.1084V33.2232C108.167 34.218 109.047 35.1746 110.067 35.1236C111.101 35.0726 111.968 34.2818 111.968 33.2232V33.1084C111.968 32.1136 111.088 31.157 110.067 31.208Z" fill="#FFEC99"/>
<path d="M86.8037 67.6737H97.3133L97.0838 57.1641H87.046L86.8037 67.6737Z" fill="white"/>
<path d="M97.3129 68.6171H86.8033C86.5482 68.6171 86.3059 68.515 86.1273 68.3365C85.9487 68.1579 85.8467 67.9028 85.8595 67.6477L86.089 57.1381C86.089 56.6152 86.5227 56.207 87.0456 56.207H97.0833C97.5935 56.207 98.0272 56.6152 98.0399 57.1381L98.2695 67.6477C98.2695 67.9028 98.1802 68.1452 98.0017 68.3365C97.8231 68.515 97.5808 68.6171 97.3257 68.6171H97.3129ZM87.7854 66.7167H96.3436L96.1523 58.1202H87.9767L87.7854 66.7167Z" fill="url(#paint2_linear_54_4608)"/>
<path d="M96.3691 25.6475H87.7472L87.5176 36.1571H96.6115L96.3691 25.6475Z" fill="white"/>
<path d="M96.6111 37.1005H87.5172C87.2621 37.1005 87.0197 36.9984 86.8412 36.8199C86.6626 36.6413 86.5606 36.3862 86.5733 36.1311L86.8029 25.6215C86.8029 25.0986 87.2366 24.6904 87.7595 24.6904H96.3815C96.8917 24.6904 97.3253 25.0986 97.3381 25.6215L97.5676 36.1311C97.5676 36.3862 97.4784 36.6286 97.2998 36.8199C97.1212 36.9984 96.8789 37.1005 96.6238 37.1005H96.6111ZM88.4865 35.2001H95.6417L95.4504 26.6036H88.6906L88.4992 35.2001H88.4865Z" fill="url(#paint3_linear_54_4608)"/>
<path d="M87.2755 46.6533L87.0459 57.163H97.0836L96.8413 46.6533H87.2755Z" fill="white"/>
<path d="M97.0832 58.12H87.0455C86.7904 58.12 86.5481 58.018 86.3695 57.8394C86.1909 57.6608 86.0889 57.4058 86.1017 57.1507L86.3312 46.641C86.3312 46.1309 86.7649 45.71 87.2878 45.71H96.8536C97.3638 45.71 97.7974 46.1181 97.8102 46.641L98.0398 57.1507C98.0398 57.4058 97.9505 57.6481 97.7719 57.8394C97.5934 58.018 97.351 58.12 97.096 58.12H97.0832ZM88.0148 56.2196H96.1011L95.9098 47.6231H88.2061L88.0148 56.2196Z" fill="url(#paint4_linear_54_4608)"/>
<path d="M96.6116 36.1572H87.5177L87.2754 46.6541H96.8412L96.6116 36.1572Z" fill="white"/>
<path d="M96.8408 47.6102H87.275C87.0199 47.6102 86.7776 47.5082 86.599 47.3296C86.4204 47.1511 86.3184 46.896 86.3311 46.6409L86.5607 36.1313C86.5607 35.6083 86.9944 35.2002 87.5173 35.2002H96.6112C97.1214 35.2002 97.555 35.6083 97.5678 36.1313L97.7974 46.6409C97.7974 46.896 97.7081 47.1383 97.5295 47.3296C97.351 47.5082 97.1086 47.6102 96.8535 47.6102H96.8408ZM88.2443 45.7098H95.8714L95.6801 37.1134H88.4484L88.2571 45.7098H88.2443Z" fill="url(#paint5_linear_54_4608)"/>
<path d="M110.054 39.4209H102.325L102.108 48.8337H110.258L110.054 39.4209Z" fill="white"/>
<path d="M110.258 49.7907H102.108C101.853 49.7907 101.611 49.6887 101.432 49.5101C101.253 49.3315 101.151 49.0765 101.164 48.8214L101.381 39.4086C101.381 38.8857 101.815 38.4775 102.338 38.4775H110.067C110.577 38.4775 111.011 38.8857 111.023 39.4086L111.24 48.8214C111.24 49.0765 111.151 49.3188 110.972 49.5101C110.794 49.6887 110.551 49.7907 110.296 49.7907H110.258ZM103.077 47.8903H109.289L109.123 40.3779H103.256L103.09 47.8903H103.077Z" fill="url(#paint6_linear_54_4608)"/>
<path d="M101.904 58.2598L101.688 67.6725H110.679L110.475 58.2598H101.904Z" fill="white"/>
<path d="M110.679 68.6159H101.687C101.432 68.6159 101.19 68.5139 101.011 68.3353C100.833 68.1567 100.731 67.9017 100.743 67.6466L100.96 58.2338C100.96 57.7109 101.394 57.3027 101.917 57.3027H110.488C111.011 57.3027 111.431 57.7109 111.444 58.2338L111.648 67.6466C111.648 67.9017 111.559 68.144 111.38 68.3353C111.202 68.5139 110.96 68.6159 110.704 68.6159H110.679ZM102.656 66.7155H109.71L109.544 59.2031H102.835L102.669 66.7155H102.656Z" fill="url(#paint7_linear_54_4608)"/>
<path d="M110.258 48.834H102.108L101.904 58.2595H110.475L110.258 48.834Z" fill="white"/>
<path d="M110.475 59.2038H101.904C101.649 59.2038 101.406 59.1018 101.228 58.9232C101.049 58.7446 100.947 58.4895 100.96 58.2345L101.177 48.8217C101.177 48.2988 101.611 47.8906 102.133 47.8906H110.284C110.794 47.8906 111.227 48.2988 111.24 48.8217L111.457 58.2345C111.457 58.4895 111.368 58.7319 111.189 58.9232C111.011 59.1018 110.768 59.2038 110.513 59.2038H110.475ZM102.873 57.3034H109.506L109.34 49.791H103.052L102.886 57.3034H102.873Z" fill="url(#paint8_linear_54_4608)"/>
<path d="M126.801 66.6396H80.2725V95.0565H126.801V66.6396Z" fill="white" stroke="url(#paint9_linear_54_4608)" stroke-width="1.2"/>
<path d="M126.801 95.9999H80.2727C79.6732 95.9999 79.1758 95.579 79.1758 95.0433V66.6265C79.1758 66.1036 79.6604 65.6699 80.2727 65.6699H126.801C127.4 65.6699 127.898 66.0908 127.898 66.6265V95.0433C127.898 95.5663 127.413 95.9999 126.801 95.9999ZM81.3695 94.0995H125.704V67.5958H81.3695V94.0995Z" fill="url(#paint10_linear_54_4608)" stroke="url(#paint11_linear_54_4608)" stroke-width="1.2"/>
<path d="M122.911 83.8965H114.838V95.0438H122.911V83.8965Z" fill="white"/>
<path d="M122.911 96H114.837C114.315 96 113.881 95.5791 113.881 95.0434V83.896C113.881 83.3731 114.302 82.9395 114.837 82.9395H122.911C123.434 82.9395 123.868 83.3603 123.868 83.896V95.0434C123.868 95.5663 123.447 96 122.911 96ZM115.794 94.0996H121.967V84.8526H115.794V94.0996Z" fill="url(#paint12_linear_54_4608)"/>
<path d="M36.8705 93.8186V66.3873L80.8466 44.66V93.8186H36.8705Z" fill="white" stroke="url(#paint13_linear_54_4608)" stroke-width="1.2"/>
<path d="M81.4462 95.9999H36.2701C35.7471 95.9999 35.3135 95.579 35.3135 95.0433V66.6265C35.3135 66.2693 35.5175 65.9377 35.8492 65.7719L81.038 43.4517C81.3314 43.3114 81.6885 43.3242 81.9564 43.5027C82.237 43.6813 82.4028 43.9746 82.4028 44.3062V95.0433C82.4028 95.5662 81.9819 95.9999 81.4462 95.9999ZM37.2139 94.0995H80.5024V45.8495L37.2139 67.2259V94.0995Z" fill="url(#paint14_linear_54_4608)" stroke="url(#paint15_linear_54_4608)" stroke-width="1.2"/>
<path d="M76.3035 75.7588H69.4033V81.7151H76.3035V75.7588Z" fill="#FFEC99"/>
<path d="M66.699 75.7588H59.7988V81.7151H66.699V75.7588Z" fill="#FFEC99"/>
<path d="M57.0954 75.7588H50.1953V81.7151H57.0954V75.7588Z" fill="#FFEC99"/>
<path d="M47.4783 75.7588H40.5781V81.7151H47.4783V75.7588Z" fill="#FFEC99"/>
<path d="M76.3035 67.0479H69.4033V73.0042H76.3035V67.0479Z" fill="#FFEC99"/>
<path d="M66.6999 67.0479H59.7998V73.0042H66.6999V67.0479Z" fill="#FFEC99"/>
<path d="M57.0954 67.0479H50.1953V73.0042H57.0954V67.0479Z" fill="#FFEC99"/>
<path d="M76.3035 58.3496H69.4033V64.3059H76.3035V58.3496Z" fill="#FFEC99"/>
<path d="M122.911 71.792H83.9082V76.1923H122.911V71.792Z" fill="#FFEC99"/>
</g>
<defs>
<linearGradient id="paint0_linear_54_4608" x1="103.186" y1="-26.3373" x2="103.186" y2="26.1309" gradientUnits="userSpaceOnUse">
<stop offset="0.463542" stop-color="#FFC71C"/>
<stop offset="1" stop-color="#FAB607"/>
</linearGradient>
<linearGradient id="paint1_linear_54_4608" x1="113.879" y1="8.40834" x2="113.879" y2="39.4375" gradientUnits="userSpaceOnUse">
<stop offset="0.463542" stop-color="#FFC71C"/>
<stop offset="1" stop-color="#FAB607"/>
</linearGradient>
<linearGradient id="paint2_linear_54_4608" x1="92.064" y1="42.8562" x2="92.064" y2="67.5829" gradientUnits="userSpaceOnUse">
<stop offset="0.463542" stop-color="#FFC71C"/>
<stop offset="1" stop-color="#FAB607"/>
</linearGradient>
<linearGradient id="paint3_linear_54_4608" x1="92.0699" y1="11.3396" x2="92.0699" y2="36.0663" gradientUnits="userSpaceOnUse">
<stop offset="0.463542" stop-color="#FFC71C"/>
<stop offset="1" stop-color="#FAB607"/>
</linearGradient>
<linearGradient id="paint4_linear_54_4608" x1="92.0702" y1="32.3591" x2="92.0702" y2="57.0858" gradientUnits="userSpaceOnUse">
<stop offset="0.463542" stop-color="#FFC71C"/>
<stop offset="1" stop-color="#FAB607"/>
</linearGradient>
<linearGradient id="paint5_linear_54_4608" x1="92.0637" y1="21.8493" x2="92.0637" y2="46.5761" gradientUnits="userSpaceOnUse">
<stop offset="0.463542" stop-color="#FFC71C"/>
<stop offset="1" stop-color="#FAB607"/>
</linearGradient>
<linearGradient id="paint6_linear_54_4608" x1="106.202" y1="26.3067" x2="106.202" y2="48.8479" gradientUnits="userSpaceOnUse">
<stop offset="0.463542" stop-color="#FFC71C"/>
<stop offset="1" stop-color="#FAB607"/>
</linearGradient>
<linearGradient id="paint7_linear_54_4608" x1="106.195" y1="45.1319" x2="106.195" y2="67.6731" gradientUnits="userSpaceOnUse">
<stop offset="0.463542" stop-color="#FFC71C"/>
<stop offset="1" stop-color="#FAB607"/>
</linearGradient>
<linearGradient id="paint8_linear_54_4608" x1="106.208" y1="35.7198" x2="106.208" y2="58.261" gradientUnits="userSpaceOnUse">
<stop offset="0.463542" stop-color="#FFC71C"/>
<stop offset="1" stop-color="#FAB607"/>
</linearGradient>
<linearGradient id="paint9_linear_54_4608" x1="103.537" y1="36.0685" x2="103.537" y2="92.6884" gradientUnits="userSpaceOnUse">
<stop offset="0.463542" stop-color="#FFC71C"/>
<stop offset="1" stop-color="#FAB607"/>
</linearGradient>
<linearGradient id="paint10_linear_54_4608" x1="103.537" y1="33.0406" x2="103.537" y2="93.4724" gradientUnits="userSpaceOnUse">
<stop offset="0.463542" stop-color="#FFC71C"/>
<stop offset="1" stop-color="#FAB607"/>
</linearGradient>
<linearGradient id="paint11_linear_54_4608" x1="103.537" y1="33.0406" x2="103.537" y2="93.4724" gradientUnits="userSpaceOnUse">
<stop offset="0.463542" stop-color="#FFC71C"/>
<stop offset="1" stop-color="#FAB607"/>
</linearGradient>
<linearGradient id="paint12_linear_54_4608" x1="118.874" y1="68.8888" x2="118.874" y2="94.9116" gradientUnits="userSpaceOnUse">
<stop offset="0.463542" stop-color="#FFC71C"/>
<stop offset="1" stop-color="#FAB607"/>
</linearGradient>
<linearGradient id="paint13_linear_54_4608" x1="58.8586" y1="-10.8755" x2="58.8586" y2="90.1916" gradientUnits="userSpaceOnUse">
<stop offset="0.463542" stop-color="#FFC71C"/>
<stop offset="1" stop-color="#FAB607"/>
</linearGradient>
<linearGradient id="paint14_linear_54_4608" x1="58.8581" y1="-13.278" x2="58.8581" y2="91.6129" gradientUnits="userSpaceOnUse">
<stop offset="0.463542" stop-color="#FFC71C"/>
<stop offset="1" stop-color="#FAB607"/>
</linearGradient>
<linearGradient id="paint15_linear_54_4608" x1="58.8581" y1="-13.278" x2="58.8581" y2="91.6129" gradientUnits="userSpaceOnUse">
<stop offset="0.463542" stop-color="#FFC71C"/>
<stop offset="1" stop-color="#FAB607"/>
</linearGradient>
<clipPath id="clip0_54_4608">
<rect width="95" height="96" fill="white" transform="translate(33 1)"/>
</clipPath>
</defs>
</svg>
