<svg width="159" height="97" viewBox="0 0 159 97" fill="none" xmlns="http://www.w3.org/2000/svg">
<g clip-path="url(#clip0_54_4602)">
<path d="M106.816 34.9313C106.569 34.9313 106.359 34.7337 106.359 34.4743V19.874C106.359 19.627 106.557 19.417 106.816 19.417C107.076 19.417 107.273 19.6146 107.273 19.874V34.4743C107.273 34.7213 107.076 34.9313 106.816 34.9313Z" fill="#CECECE"/>
<path d="M104.766 34.3757C104.766 35.5121 105.68 36.4261 106.816 36.4261C107.952 36.4261 108.867 35.5121 108.867 34.3757C108.867 33.2393 107.952 32.3252 106.816 32.3252C105.68 32.3252 104.766 33.2393 104.766 34.3757Z" fill="#CECECE"/>
<path d="M41.1777 48.988C40.9307 48.988 40.7207 48.7903 40.7207 48.5309V33.9307C40.7207 33.6836 40.9183 33.4736 41.1777 33.4736C41.4371 33.4736 41.6348 33.6713 41.6348 33.9307V48.5309C41.6348 48.778 41.4371 48.988 41.1777 48.988Z" fill="#CECECE"/>
<path d="M41.1774 50.4828C42.3099 50.4828 43.2279 49.5647 43.2279 48.4323C43.2279 47.2999 42.3099 46.3818 41.1774 46.3818C40.045 46.3818 39.127 47.2999 39.127 48.4323C39.127 49.5647 40.045 50.4828 41.1774 50.4828Z" fill="#CECECE"/>
<path d="M112.722 19.133C112.475 19.133 112.265 18.9353 112.265 18.676V1.45703C112.265 1.20999 112.462 1 112.722 1C112.981 1 113.179 1.19763 113.179 1.45703V18.6883C113.179 18.9353 112.981 19.1453 112.722 19.1453V19.133Z" fill="#CECECE"/>
<path d="M109.646 18.5278C109.646 20.2201 111.017 21.6035 112.721 21.6035C114.426 21.6035 115.797 20.2324 115.797 18.5278C115.797 16.8232 114.426 15.4521 112.721 15.4521C111.017 15.4521 109.646 16.8232 109.646 18.5278Z" fill="#CECECE"/>
<path d="M49.5898 58.8701C49.3428 58.8701 49.1328 58.6725 49.1328 58.4131V42.207C49.1328 41.96 49.3304 41.75 49.5898 41.75C49.8492 41.75 50.0469 41.9476 50.0469 42.207V58.4131C50.0469 58.6601 49.8492 58.8701 49.5898 58.8701Z" fill="#CECECE"/>
<path d="M49.5898 39.3907C49.3428 39.3907 49.1328 39.193 49.1328 38.9337V30.0771C49.1328 29.8301 49.3304 29.6201 49.5898 29.6201C49.8492 29.6201 50.0469 29.8178 50.0469 30.0771V38.9337C50.0469 39.1807 49.8492 39.3907 49.5898 39.3907Z" fill="#CECECE"/>
<path d="M46.5137 58.2524C46.5137 59.9447 47.8848 61.3281 49.5894 61.3281C51.294 61.3281 52.6651 59.957 52.6651 58.2524C52.6651 56.5478 51.294 55.1768 49.5894 55.1768C47.8848 55.1768 46.5137 56.5478 46.5137 58.2524Z" fill="#CECECE"/>
<path d="M80.2722 75.5703C65.9437 75.5703 54.2832 65.0586 54.2832 52.1506L54.3203 50.9772C55.2343 33.1653 76.3936 12.2778 77.2953 11.4008L80.2722 8.49805L83.249 11.4008C84.1507 12.2778 105.298 33.153 106.212 50.9401C106.236 51.3601 106.249 51.7553 106.249 52.1506C106.249 65.071 94.5883 75.5703 80.2722 75.5703ZM80.2722 11.0302L78.5676 12.6978C77.6906 13.5624 57.013 33.9559 56.136 51.0513L56.099 52.1877C56.099 64.0705 66.9442 73.7669 80.2722 73.7669C93.6002 73.7669 104.433 64.0705 104.433 52.163C104.433 51.8047 104.433 51.4342 104.396 51.0636C103.519 33.9559 82.8538 13.5748 81.9768 12.7101L80.2722 11.0426V11.0302Z" fill="url(#paint0_linear_54_4602)"/>
<path d="M80.2722 75.5703C65.9437 75.5703 54.2832 65.0586 54.2832 52.1506L54.3203 50.9772C55.2343 33.1653 76.3936 12.2778 77.2953 11.4008L80.2722 8.49805L83.249 11.4008C84.1507 12.2778 105.298 33.153 106.212 50.9401C106.236 51.3601 106.249 51.7553 106.249 52.1506C106.249 65.071 94.5883 75.5703 80.2722 75.5703ZM80.2722 11.0302L78.5676 12.6978C77.6906 13.5624 57.013 33.9559 56.136 51.0513L56.099 52.1877C56.099 64.0704 66.9442 73.7669 80.2722 73.7669C93.6002 73.7669 104.433 64.0704 104.433 52.163C104.433 51.8047 104.433 51.4342 104.396 51.0636C103.519 33.9559 82.8538 13.5748 81.9768 12.7101L80.2722 11.0426V11.0302Z" fill="url(#paint1_linear_54_4602)" stroke="url(#paint2_linear_54_4602)" stroke-width="1.2"/>
<path d="M94.3788 36.3524C94.07 36.3524 93.7612 36.1918 93.5882 35.8954C88.8326 27.7183 82.2119 20.3934 79.5932 17.6142C79.2474 17.2436 79.2597 16.6754 79.6303 16.3296C80.0008 15.9837 80.569 15.996 80.9149 16.3666C84.2253 19.8623 90.4878 26.9401 95.1693 34.9813C95.4164 35.4137 95.2681 35.9695 94.8358 36.2289C94.6876 36.3154 94.5393 36.3524 94.3788 36.3524Z" fill="url(#paint3_linear_54_4602)"/>
<path d="M99.9371 52.1502C99.4677 52.1502 99.0725 51.8043 99.0354 51.3349V51.2855C98.8872 48.3828 98.0225 45.1218 96.4785 41.5644C96.2809 41.1073 96.4785 40.5638 96.9479 40.3662C97.4049 40.1686 97.9484 40.3662 98.1461 40.8356C99.7765 44.5906 100.691 48.0616 100.839 51.162C100.864 51.6561 100.493 52.1008 99.9865 52.1378C99.9618 52.1378 99.9495 52.1378 99.9248 52.1378L99.9371 52.1502Z" fill="url(#paint4_linear_54_4602)"/>
<path d="M80.2721 84.1796C70.4768 84.1796 59.9404 82.438 59.9404 78.6335C59.9404 77.2377 61.2374 76.1137 63.8931 75.1749C64.3749 75.002 64.8813 75.2614 65.0542 75.7308C65.2272 76.2001 64.9678 76.7189 64.4984 76.8919C62.3368 77.6577 61.7686 78.3618 61.7686 78.6335C61.7686 79.8934 68.3028 82.3639 80.2845 82.3639C92.2661 82.3639 98.8004 79.9058 98.8004 78.6335C98.8004 78.3618 98.2322 77.6577 96.0705 76.8919C95.6011 76.7189 95.3541 76.2125 95.5147 75.7308C95.6753 75.2614 96.2064 75.0143 96.6758 75.1749C99.2944 76.1013 100.628 77.2624 100.628 78.6335C100.628 82.438 90.0921 84.1796 80.2968 84.1796H80.2721Z" fill="url(#paint5_linear_54_4602)"/>
<path d="M100.851 72.6676C99.9738 73.4705 99.0103 74.2117 98.0221 74.9034C99.4797 75.4963 101.505 76.6574 101.505 78.6955C101.505 84.6122 83.8048 84.9086 80.2597 84.9086C76.7146 84.9086 59.014 84.6122 59.014 78.6955C59.014 76.6574 61.0397 75.5086 62.4973 74.9034C61.5091 74.2117 60.558 73.4705 59.6686 72.6676C52.4303 74.0881 47.8105 76.2374 47.8105 78.6337C47.8105 82.8952 62.3367 86.3662 80.2597 86.3662C98.1827 86.3662 112.709 82.9076 112.709 78.6337C112.709 76.2251 108.089 74.0758 100.838 72.6553L100.851 72.6676Z" fill="#FFEC99"/>
<path d="M80.2716 89.2442C62.5956 89.2442 43.8203 85.5262 43.8203 78.646C43.8203 73.9645 52.6274 71.3335 57.8894 70.1848C58.3835 70.0736 58.8653 70.3824 58.9764 70.8765C59.0876 71.3706 58.7664 71.8523 58.2847 71.9635C48.9712 74.0016 45.6484 76.7438 45.6484 78.646C45.6484 82.7963 59.8781 87.4284 80.2839 87.4284C100.69 87.4284 114.919 82.7963 114.919 78.646C114.919 76.7561 111.597 74.0016 102.283 71.9635C101.789 71.8523 101.48 71.3706 101.591 70.8765C101.703 70.3824 102.184 70.0736 102.678 70.1848C107.928 71.3335 116.748 73.9522 116.748 78.646C116.748 85.5385 97.9722 89.2442 80.2963 89.2442H80.2716Z" fill="url(#paint6_linear_54_4602)"/>
<path d="M80.2718 95.0003C53.764 95.0003 33 87.8113 33 78.6337C33 72.964 40.683 67.9737 54.0975 64.9475C54.5916 64.8363 55.0733 65.1451 55.1845 65.6392C55.2957 66.1333 54.9869 66.615 54.4928 66.7262C42.3506 69.4683 34.8158 74.0386 34.8158 78.646C34.8158 86.5267 55.6292 93.1969 80.2718 93.1969C104.914 93.1969 125.728 86.539 125.728 78.646C125.728 74.0386 118.193 69.4683 106.051 66.7262C105.557 66.615 105.248 66.1333 105.359 65.6392C105.47 65.1451 105.964 64.8363 106.446 64.9475C119.848 67.9737 127.544 72.964 127.544 78.6337C127.544 87.8113 106.78 95.0003 80.2718 95.0003Z" fill="url(#paint7_linear_54_4602)"/>
</g>
<defs>
<linearGradient id="paint0_linear_54_4602" x1="80.266" y1="-63.6591" x2="80.266" y2="69.981" gradientUnits="userSpaceOnUse">
<stop offset="0.463542" stop-color="#FFC71C"/>
<stop offset="1" stop-color="#FAB607"/>
</linearGradient>
<linearGradient id="paint1_linear_54_4602" x1="80.266" y1="-63.6591" x2="80.266" y2="69.981" gradientUnits="userSpaceOnUse">
<stop offset="0.463542" stop-color="#FFC71C"/>
<stop offset="1" stop-color="#FAB607"/>
</linearGradient>
<linearGradient id="paint2_linear_54_4602" x1="80.266" y1="-63.6591" x2="80.266" y2="69.981" gradientUnits="userSpaceOnUse">
<stop offset="0.463542" stop-color="#FFC71C"/>
<stop offset="1" stop-color="#FAB607"/>
</linearGradient>
<linearGradient id="paint3_linear_54_4602" x1="87.3158" y1="-5.73118" x2="87.3158" y2="34.663" gradientUnits="userSpaceOnUse">
<stop offset="0.463542" stop-color="#FFC71C"/>
<stop offset="1" stop-color="#FAB607"/>
</linearGradient>
<linearGradient id="paint4_linear_54_4602" x1="98.6212" y1="27.5308" x2="98.6212" y2="51.1618" gradientUnits="userSpaceOnUse">
<stop offset="0.463542" stop-color="#FFC71C"/>
<stop offset="1" stop-color="#FAB607"/>
</linearGradient>
<linearGradient id="paint5_linear_54_4602" x1="80.2845" y1="65.3758" x2="80.2845" y2="83.4248" gradientUnits="userSpaceOnUse">
<stop offset="0.463542" stop-color="#FFC71C"/>
<stop offset="1" stop-color="#FAB607"/>
</linearGradient>
<linearGradient id="paint6_linear_54_4602" x1="80.2839" y1="49.6334" x2="80.2839" y2="87.654" gradientUnits="userSpaceOnUse">
<stop offset="0.463542" stop-color="#FFC71C"/>
<stop offset="1" stop-color="#FAB607"/>
</linearGradient>
<linearGradient id="paint7_linear_54_4602" x1="80.2717" y1="32.5692" x2="80.2717" y2="92.494" gradientUnits="userSpaceOnUse">
<stop offset="0.463542" stop-color="#FFC71C"/>
<stop offset="1" stop-color="#FAB607"/>
</linearGradient>
<clipPath id="clip0_54_4602">
<rect width="94.5435" height="94" fill="white" transform="translate(33 1)"/>
</clipPath>
</defs>
</svg>
