<svg width="61" height="61" viewBox="0 0 61 61" fill="none" xmlns="http://www.w3.org/2000/svg">
<path d="M30.52 61C13.7138 61 0.0400391 47.3263 0.0400391 30.52C0.0400391 13.7138 13.7138 0.0400391 30.52 0.0400391C47.3263 0.0400391 61 13.7138 61 30.52C61 47.3263 47.3263 61 30.52 61ZM30.52 3.76924C15.7648 3.76924 3.76924 15.7648 3.76924 30.52C3.76924 45.2752 15.7648 57.2708 30.52 57.2708C45.2628 57.2708 57.2708 45.2752 57.2708 30.52C57.2708 15.7648 45.2628 3.76924 30.52 3.76924Z" fill="#A3A6A9"/>
<path d="M13.0049 52.5348C13.0049 42.8762 20.8611 35.02 30.5197 35.02C40.1783 35.02 48.0345 42.8762 48.0345 52.5348H13.0049ZM44.3053 52.5348C44.3053 44.9273 38.1148 38.7492 30.5197 38.7492C22.9121 38.7492 16.7341 44.9397 16.7341 52.5348" fill="#A3A6A9"/>
<path d="M30.5194 33.3541C24.7391 33.3541 20.0527 28.6553 20.0527 22.8875C20.0527 17.1197 24.7515 12.4209 30.5194 12.4209C36.2872 12.4209 40.986 17.1197 40.986 22.8875C40.986 28.6553 36.2872 33.3541 30.5194 33.3541ZM30.5194 16.1377C26.8026 16.1377 23.7819 19.1583 23.7819 22.8751C23.7819 26.5919 26.8026 29.6125 30.5194 29.6125C34.2361 29.6125 37.2568 26.5919 37.2568 22.8751C37.2568 19.1707 34.2361 16.1377 30.5194 16.1377Z" fill="#A3A6A9"/>
</svg>
