<svg xmlns="http://www.w3.org/2000/svg" viewBox="0 0 24 24"><defs><style>.cls-1,.cls-2{fill:#fff;stroke:#fff;stroke-miterlimit:10;}.cls-1{stroke-width:0.3px;}.cls-2{stroke-width:0.4px;}</style></defs><title>icon-09</title><g id="ico"><path class="cls-1" d="M20.22,7.73H3.78a.18.18,0,0,1-.17-.17v-2a.18.18,0,0,1,.17-.17H20.22a.18.18,0,0,1,.17.17V7.56A.18.18,0,0,1,20.22,7.73ZM4,7.39h16.1V5.68H4Z"/><path class="cls-1" d="M20.22,19.11H3.78a.18.18,0,0,1-.17-.17V7.56a.17.17,0,0,1,.17-.17H20.22a.17.17,0,0,1,.17.17V18.94A.18.18,0,0,1,20.22,19.11ZM4,18.77h16.1v-11H4Z"/><path class="cls-2" d="M8,17.65H6.62a.17.17,0,0,1-.17-.17.18.18,0,0,1,.17-.17H8a.17.17,0,0,1,.17.17A.16.16,0,0,1,8,17.65Z"/><path class="cls-2" d="M8,16.8H6.62a.17.17,0,0,1-.17-.16.17.17,0,0,1,.17-.17H8a.16.16,0,0,1,.17.17A.16.16,0,0,1,8,16.8Z"/><path class="cls-2" d="M8,16H6.62a.18.18,0,0,1-.17-.17.17.17,0,0,1,.17-.17H8a.16.16,0,0,1,.17.17A.17.17,0,0,1,8,16Z"/><path class="cls-2" d="M8,15.11H6.62a.17.17,0,0,1-.17-.17.18.18,0,0,1,.17-.17H8a.17.17,0,0,1,.17.17A.16.16,0,0,1,8,15.11Z"/><path class="cls-2" d="M8,14.26H6.62a.17.17,0,0,1-.17-.16.17.17,0,0,1,.17-.17H8a.16.16,0,0,1,.17.17A.16.16,0,0,1,8,14.26Z"/><path class="cls-2" d="M8,13.42H6.62a.17.17,0,0,1,0-.34H8a.17.17,0,0,1,0,.34Z"/><path class="cls-2" d="M8,12.57H6.62a.17.17,0,0,1-.17-.17.18.18,0,0,1,.17-.17H8a.17.17,0,0,1,.17.17A.16.16,0,0,1,8,12.57Z"/><path class="cls-2" d="M8,11.73H6.62a.18.18,0,0,1-.17-.17.17.17,0,0,1,.17-.17H8a.16.16,0,0,1,.17.17A.17.17,0,0,1,8,11.73Z"/><path class="cls-2" d="M8,10.88H6.62a.17.17,0,0,1,0-.34H8a.17.17,0,1,1,0,.34Z"/><path class="cls-2" d="M8,10H6.62a.17.17,0,0,1-.17-.17.18.18,0,0,1,.17-.17H8a.17.17,0,0,1,.17.17A.16.16,0,0,1,8,10Z"/><path class="cls-2" d="M11.11,17.65H9.75a.17.17,0,0,1-.17-.17.18.18,0,0,1,.17-.17h1.36a.17.17,0,0,1,.17.17A.16.16,0,0,1,11.11,17.65Z"/><path class="cls-2" d="M11.11,16.8H9.75a.17.17,0,0,1-.17-.16.17.17,0,0,1,.17-.17h1.36a.16.16,0,0,1,.17.17A.16.16,0,0,1,11.11,16.8Z"/><path class="cls-2" d="M11.11,16H9.75a.18.18,0,0,1-.17-.17.17.17,0,0,1,.17-.17h1.36a.16.16,0,0,1,.17.17A.17.17,0,0,1,11.11,16Z"/><path class="cls-2" d="M11.11,15.11H9.75a.17.17,0,0,1-.17-.17.18.18,0,0,1,.17-.17h1.36a.17.17,0,0,1,.17.17A.16.16,0,0,1,11.11,15.11Z"/><path class="cls-2" d="M11.11,14.26H9.75a.17.17,0,0,1-.17-.16.17.17,0,0,1,.17-.17h1.36a.16.16,0,0,1,.17.17A.16.16,0,0,1,11.11,14.26Z"/><path class="cls-2" d="M11.11,13.42H9.75a.17.17,0,0,1,0-.34h1.36a.17.17,0,0,1,0,.34Z"/><path class="cls-2" d="M14.25,17.65H12.89a.16.16,0,0,1-.17-.17.17.17,0,0,1,.17-.17h1.36a.18.18,0,0,1,.17.17A.17.17,0,0,1,14.25,17.65Z"/><path class="cls-2" d="M14.25,16.8H12.89a.16.16,0,0,1-.17-.16.16.16,0,0,1,.17-.17h1.36a.17.17,0,0,1,.17.17A.17.17,0,0,1,14.25,16.8Z"/><path class="cls-2" d="M14.25,16H12.89a.17.17,0,0,1-.17-.17.16.16,0,0,1,.17-.17h1.36a.17.17,0,0,1,.17.17A.18.18,0,0,1,14.25,16Z"/><path class="cls-2" d="M14.25,15.11H12.89a.16.16,0,0,1-.17-.17.17.17,0,0,1,.17-.17h1.36a.18.18,0,0,1,.17.17A.17.17,0,0,1,14.25,15.11Z"/><path class="cls-2" d="M14.25,14.26H12.89a.16.16,0,0,1-.17-.16.16.16,0,0,1,.17-.17h1.36a.17.17,0,0,1,.17.17A.17.17,0,0,1,14.25,14.26Z"/><path class="cls-2" d="M14.25,13.42H12.89a.17.17,0,0,1,0-.34h1.36a.17.17,0,0,1,0,.34Z"/><path class="cls-2" d="M14.25,12.57H12.89a.16.16,0,0,1-.17-.17.17.17,0,0,1,.17-.17h1.36a.18.18,0,0,1,.17.17A.17.17,0,0,1,14.25,12.57Z"/><path class="cls-2" d="M14.25,11.73H12.89a.17.17,0,0,1-.17-.17.16.16,0,0,1,.17-.17h1.36a.17.17,0,0,1,.17.17A.18.18,0,0,1,14.25,11.73Z"/><path class="cls-2" d="M14.25,10.88H12.89a.17.17,0,0,1,0-.34h1.36a.17.17,0,1,1,0,.34Z"/><path class="cls-2" d="M17.38,17.65H16a.16.16,0,0,1-.17-.17.17.17,0,0,1,.17-.17h1.36a.18.18,0,0,1,.17.17A.17.17,0,0,1,17.38,17.65Z"/><path class="cls-2" d="M17.38,16.8H16a.16.16,0,0,1-.17-.16.16.16,0,0,1,.17-.17h1.36a.17.17,0,0,1,.17.17A.17.17,0,0,1,17.38,16.8Z"/><path class="cls-2" d="M17.38,16H16a.17.17,0,0,1-.17-.17.16.16,0,0,1,.17-.17h1.36a.17.17,0,0,1,.17.17A.18.18,0,0,1,17.38,16Z"/><path class="cls-2" d="M17.38,15.11H16a.16.16,0,0,1-.17-.17.17.17,0,0,1,.17-.17h1.36a.18.18,0,0,1,.17.17A.17.17,0,0,1,17.38,15.11Z"/></g></svg>