<svg xmlns="http://www.w3.org/2000/svg" viewBox="0 0 24 24"><defs><style>.cls-1{fill:#666;}</style></defs><title>print</title><g id="ico"><path class="cls-1" d="M7.59,16.16h8.82a.47.47,0,0,0,0-.93H7.59a.47.47,0,0,0,0,.93Z"/><path class="cls-1" d="M7.59,18.24h8.82a.46.46,0,0,0,0-.92H7.59a.46.46,0,1,0,0,.92Z"/><path class="cls-1" d="M21.32,7.54H19.65V4.68l-.46-.47H4.81l-.46.47V7.54H2.68a.61.61,0,0,0-.61.62v8a.61.61,0,0,0,.61.61H5.2v3.56l.46.46H18.34l.46-.46V16.81h2.52a.61.61,0,0,0,.61-.61v-8A.61.61,0,0,0,21.32,7.54Zm-16-2.4H18.73v2.4H5.27ZM17.88,15.89v4H6.12V13.72H17.88Zm3.13,0H18.8V13.72h.62a.47.47,0,1,0,0-.93H4.58a.47.47,0,1,0,0,.93H5.2v2.17H3V8.46H21Z"/><path class="cls-1" d="M17.9,10.24h1.28a.46.46,0,1,0,0-.92H17.9a.46.46,0,1,0,0,.92Z"/></g></svg>