<svg width="22" height="22" viewBox="0 0 22 22" fill="none" xmlns="http://www.w3.org/2000/svg">
<g clip-path="url(#clip0)">
<path d="M22 18.4472L17.4907 14.4845C18.4472 12.9814 18.9938 11.3416 18.9938 9.42857C18.9938 4.23602 14.7578 0 9.56522 0C4.23602 0 0 4.23602 0 9.42857C0 14.6211 4.23602 18.8571 9.42857 18.8571C11.4783 18.8571 13.528 18.1739 15.0311 16.9441L19.677 21.0435L22 18.4472ZM3.41615 9.42857C3.41615 6.14907 6.14907 3.41615 9.42857 3.41615C12.7081 3.41615 15.441 6.14907 15.441 9.42857C15.441 12.7081 12.7081 15.441 9.42857 15.441C6.14907 15.441 3.41615 12.7081 3.41615 9.42857Z" fill="#1E1C2E"/>
</g>
<defs>
<clipPath id="clip0">
<rect width="22" height="21.0435" fill="white"/>
</clipPath>
</defs>
</svg>
