<?xml version="1.0" encoding="utf-8"?>
<!-- Generator: Adobe Illustrator 24.1.2, SVG Export Plug-In . SVG Version: 6.00 Build 0)  -->
<svg version="1.1" xmlns="http://www.w3.org/2000/svg" xmlns:xlink="http://www.w3.org/1999/xlink" x="0px" y="0px"
	 viewBox="0 0 100 100" style="enable-background:new 0 0 100 100;" xml:space="preserve">
<style type="text/css">
	.st0{display:none;}
	.st1{display:inline;}
	.st2{fill:#404040;}
	.st3{fill:#FFFFFF;}
</style>
<g id="로그인" class="st0">
	<g class="st1">
		<g>
			<path class="st2" d="M50,98.19c-6.1,0-12.03-1.2-17.6-3.56c-5.39-2.28-10.22-5.54-14.37-9.69s-7.41-8.99-9.69-14.37
				c-2.36-5.58-3.56-11.5-3.56-17.6c0-8.44,2.34-16.68,6.77-23.82c4.31-6.94,10.41-12.59,17.65-16.35c1.93-1,4.3-0.25,5.3,1.68
				c1,1.93,0.25,4.3-1.68,5.3c-12.45,6.46-20.18,19.17-20.18,33.18c0,20.6,16.76,37.36,37.36,37.36s37.36-16.76,37.36-37.36
				c0-13.99-7.71-26.69-20.13-33.16c-1.93-1-2.67-3.38-1.67-5.3c1-1.93,3.38-2.67,5.3-1.67c7.22,3.76,13.31,9.41,17.61,16.35
				c4.42,7.13,6.75,15.36,6.75,23.79c0,6.1-1.2,12.03-3.56,17.6c-2.28,5.39-5.54,10.22-9.69,14.37s-8.99,7.41-14.37,9.69
				C62.03,97,56.1,98.19,50,98.19z"/>
		</g>
		<g>
			<path class="st2" d="M50.04,53.18c-2.17,0-3.93-1.76-3.93-3.93V5.74c0-2.17,1.76-3.93,3.93-3.93s3.93,1.76,3.93,3.93v43.51
				C53.97,51.42,52.21,53.18,50.04,53.18z"/>
		</g>
	</g>
</g>
<g id="로그인_x5F_흰" class="st0">
	<g class="st1">
		<g>
			<path class="st3" d="M50,98.19c-6.1,0-12.03-1.2-17.6-3.56c-5.39-2.28-10.22-5.54-14.37-9.69s-7.41-8.99-9.69-14.37
				c-2.36-5.58-3.56-11.5-3.56-17.6c0-8.44,2.34-16.68,6.77-23.82c4.31-6.94,10.41-12.59,17.65-16.35c1.93-1,4.3-0.25,5.3,1.68
				c1,1.93,0.25,4.3-1.68,5.3c-12.45,6.46-20.18,19.17-20.18,33.18c0,20.6,16.76,37.36,37.36,37.36s37.36-16.76,37.36-37.36
				c0-13.99-7.71-26.69-20.13-33.16c-1.93-1-2.67-3.38-1.67-5.3c1-1.93,3.38-2.67,5.3-1.67c7.22,3.76,13.31,9.41,17.61,16.35
				c4.42,7.13,6.75,15.36,6.75,23.79c0,6.1-1.2,12.03-3.56,17.6c-2.28,5.39-5.54,10.22-9.69,14.37s-8.99,7.41-14.37,9.69
				C62.03,97,56.1,98.19,50,98.19z"/>
		</g>
		<g>
			<path class="st3" d="M50.04,53.18c-2.17,0-3.93-1.76-3.93-3.93V5.74c0-2.17,1.76-3.93,3.93-3.93s3.93,1.76,3.93,3.93v43.51
				C53.97,51.42,52.21,53.18,50.04,53.18z"/>
		</g>
	</g>
</g>
<g id="아이디찾기" class="st0">
	<g class="st1">
		<g>
			<path class="st2" d="M80.45,98.61H19.55c-5.21,0-9.45-4.24-9.45-9.45V46.4c0-5.21,4.24-9.45,9.45-9.45h60.89
				c5.21,0,9.45,4.24,9.45,9.45v42.76C89.89,94.37,85.66,98.61,80.45,98.61z M19.55,44.95c-0.8,0-1.45,0.65-1.45,1.45v42.76
				c0,0.8,0.65,1.45,1.45,1.45h60.89c0.8,0,1.45-0.65,1.45-1.45V46.4c0-0.8-0.65-1.45-1.45-1.45H19.55z"/>
		</g>
		<g>
			<g>
				<path class="st2" d="M50,73.29c-4.39,0-7.95-3.57-7.95-7.96c0-4.39,3.57-7.95,7.95-7.95c4.39,0,7.95,3.57,7.95,7.95
					C57.95,69.72,54.39,73.29,50,73.29z M50,63.38c-1.08,0-1.95,0.88-1.95,1.95c0,1.08,0.88,1.96,1.95,1.96
					c1.08,0,1.95-0.88,1.95-1.96C51.95,64.25,51.08,63.38,50,63.38z"/>
			</g>
			<g>
				<path class="st2" d="M50,83.31c-1.66,0-3-1.34-3-3V70.29c0-1.66,1.34-3,3-3c1.66,0,3,1.34,3,3v10.03
					C53,81.97,51.66,83.31,50,83.31z"/>
			</g>
		</g>
		<g>
			<path class="st2" d="M28.01,44.95c-2.21,0-4-1.79-4-4V27.38C24.01,13.05,35.67,1.39,50,1.39c14.33,0,25.99,11.66,25.99,25.99
				c0,2.21-1.79,4-4,4s-4-1.79-4-4c0-9.92-8.07-17.99-17.99-17.99c-9.92,0-17.99,8.07-17.99,17.99v13.57
				C32.01,43.16,30.22,44.95,28.01,44.95z"/>
		</g>
	</g>
</g>
<g id="아이디찾기_x5F_흰" class="st0">
	<g class="st1">
		<g>
			<path class="st3" d="M80.45,98.61H19.55c-5.21,0-9.45-4.24-9.45-9.45V46.4c0-5.21,4.24-9.45,9.45-9.45h60.89
				c5.21,0,9.45,4.24,9.45,9.45v42.76C89.89,94.37,85.66,98.61,80.45,98.61z M19.55,44.95c-0.8,0-1.45,0.65-1.45,1.45v42.76
				c0,0.8,0.65,1.45,1.45,1.45h60.89c0.8,0,1.45-0.65,1.45-1.45V46.4c0-0.8-0.65-1.45-1.45-1.45H19.55z"/>
		</g>
		<g>
			<g>
				<path class="st3" d="M50,73.29c-4.39,0-7.95-3.57-7.95-7.96c0-4.39,3.57-7.95,7.95-7.95c4.39,0,7.95,3.57,7.95,7.95
					C57.95,69.72,54.39,73.29,50,73.29z M50,63.38c-1.08,0-1.95,0.88-1.95,1.95c0,1.08,0.88,1.96,1.95,1.96
					c1.08,0,1.95-0.88,1.95-1.96C51.95,64.25,51.08,63.38,50,63.38z"/>
			</g>
			<g>
				<path class="st3" d="M50,83.31c-1.66,0-3-1.34-3-3V70.29c0-1.66,1.34-3,3-3c1.66,0,3,1.34,3,3v10.03
					C53,81.97,51.66,83.31,50,83.31z"/>
			</g>
		</g>
		<g>
			<path class="st3" d="M28.01,44.95c-2.21,0-4-1.79-4-4V27.38C24.01,13.05,35.67,1.39,50,1.39c14.33,0,25.99,11.66,25.99,25.99
				c0,2.21-1.79,4-4,4s-4-1.79-4-4c0-9.92-8.07-17.99-17.99-17.99c-9.92,0-17.99,8.07-17.99,17.99v13.57
				C32.01,43.16,30.22,44.95,28.01,44.95z"/>
		</g>
	</g>
</g>
<g id="회원가입" class="st0">
	<g class="st1">
		<g>
			<path class="st2" d="M76.07,91.6H23.93c-6.62,0-12-5.38-12-12V20.4c0-6.62,5.38-12,12-12h52.14c6.62,0,12,5.38,12,12V79.6
				C88.07,86.21,82.69,91.6,76.07,91.6z M23.93,16.4c-2.21,0-4,1.79-4,4V79.6c0,2.21,1.79,4,4,4h52.14c2.21,0,4-1.79,4-4V20.4
				c0-2.21-1.79-4-4-4H23.93z"/>
		</g>
		<g>
			<path class="st2" d="M66.08,31.41H32.16c-2.21,0-4-1.79-4-4s1.79-4,4-4h33.92c2.21,0,4,1.79,4,4S68.29,31.41,66.08,31.41z"/>
		</g>
		<g>
			<path class="st2" d="M66.08,44.47H32.16c-2.21,0-4-1.79-4-4s1.79-4,4-4h33.92c2.21,0,4,1.79,4,4S68.29,44.47,66.08,44.47z"/>
		</g>
		<g>
			<g>
				<path class="st2" d="M45.11,75.97c-0.9,0-1.81-0.3-2.55-0.92l-7.75-6.44c-1.7-1.41-1.93-3.93-0.52-5.63
					c1.41-1.7,3.93-1.93,5.63-0.52l7.75,6.44c1.7,1.41,1.93,3.93,0.52,5.63C47.4,75.47,46.26,75.97,45.11,75.97z"/>
			</g>
			<g>
				<path class="st2" d="M45.11,75.97c-1.07,0-2.14-0.43-2.93-1.27c-1.51-1.62-1.42-4.15,0.19-5.65l15.76-14.71
					c1.62-1.51,4.15-1.42,5.65,0.19c1.51,1.62,1.42,4.15-0.19,5.65L47.84,74.89C47.07,75.61,46.09,75.97,45.11,75.97z"/>
			</g>
		</g>
	</g>
</g>
<g id="회원가입_x5F_흰">
	<g>
		<g>
			<path class="st3" d="M76.07,91.6H23.93c-6.62,0-12-5.38-12-12V20.4c0-6.62,5.38-12,12-12h52.14c6.62,0,12,5.38,12,12V79.6
				C88.07,86.21,82.69,91.6,76.07,91.6z M23.93,16.4c-2.21,0-4,1.79-4,4V79.6c0,2.21,1.79,4,4,4h52.14c2.21,0,4-1.79,4-4V20.4
				c0-2.21-1.79-4-4-4H23.93z"/>
		</g>
		<g>
			<path class="st3" d="M66.08,31.41H32.16c-2.21,0-4-1.79-4-4s1.79-4,4-4h33.92c2.21,0,4,1.79,4,4S68.29,31.41,66.08,31.41z"/>
		</g>
		<g>
			<path class="st3" d="M66.08,44.47H32.16c-2.21,0-4-1.79-4-4s1.79-4,4-4h33.92c2.21,0,4,1.79,4,4S68.29,44.47,66.08,44.47z"/>
		</g>
		<g>
			<g>
				<path class="st3" d="M45.11,75.97c-0.9,0-1.81-0.3-2.55-0.92l-7.75-6.44c-1.7-1.41-1.93-3.93-0.52-5.63
					c1.41-1.7,3.93-1.93,5.63-0.52l7.75,6.44c1.7,1.41,1.93,3.93,0.52,5.63C47.4,75.47,46.26,75.97,45.11,75.97z"/>
			</g>
			<g>
				<path class="st3" d="M45.11,75.97c-1.07,0-2.14-0.43-2.93-1.27c-1.51-1.62-1.42-4.15,0.19-5.65l15.76-14.71
					c1.62-1.51,4.15-1.42,5.65,0.19c1.51,1.62,1.42,4.15-0.19,5.65L47.84,74.89C47.07,75.61,46.09,75.97,45.11,75.97z"/>
			</g>
		</g>
	</g>
</g>
</svg>
