<svg width="22" height="32" viewBox="0 0 22 32" fill="none" xmlns="http://www.w3.org/2000/svg">
<path d="M19.4521 0.666303L14.1684 2.21528L13.678 0.531271C13.5638 0.140298 13.1563 -0.0842383 12.766 0.0295992L5.89297 2.04492C5.50344 2.15954 5.27974 2.56857 5.39316 2.96033L5.88358 4.64434L0.599956 6.19332C0.158024 6.32285 -0.0954019 6.78762 0.0336578 7.2312L0.548332 9L21 3.00351L20.4853 1.23471C20.3563 0.791131 19.894 0.536764 19.4521 0.666303ZM7.30872 3.35287L12.274 1.89732L12.5079 2.70203L7.54259 4.15759L7.30872 3.35287Z" fill="white"/>
<path d="M0 11L2.65022 31.3224C2.70036 31.7088 3.06248 32 3.49224 32H18.5078C18.9375 32 19.2996 31.7088 19.3498 31.3224L22 11H0ZM7.4238 29.338C6.87226 29.4007 6.36848 29.046 6.30004 28.5465L4.27537 13.8848C4.20613 13.3852 4.59769 12.9289 5.14922 12.867C5.70076 12.8042 6.20454 13.1589 6.27298 13.6584L8.29765 28.3202C8.36689 28.8197 7.97612 29.2753 7.4238 29.338ZM12.0072 28.4903C12.0072 28.9941 11.5567 29.4021 11.0004 29.4021C10.4441 29.4021 9.99363 28.9941 9.99363 28.4903V13.7147C9.99363 13.2108 10.4441 12.8028 11.0004 12.8028C11.5567 12.8028 12.0072 13.2108 12.0072 13.7147V28.4903ZM17.7254 13.8848L15.7008 28.5465C15.6315 29.046 15.1285 29.4007 14.577 29.338C14.0255 29.2753 13.6339 28.8197 13.7031 28.3202L15.7278 13.6584C15.7971 13.1589 16.3 12.8042 16.8516 12.867C17.4031 12.9297 17.7947 13.3852 17.7254 13.8848Z" fill="white"/>
</svg>
