<svg width="1000" height="1000" viewBox="0 0 1000 1000" fill="none" xmlns="http://www.w3.org/2000/svg">
<path fill-rule="evenodd" clip-rule="evenodd" d="M9.5 3C5.91015 3 3 5.91015 3 9.5C3 13.0899 5.91015 16 9.5 16C13.0899 16 16 13.0899 16 9.5C16 5.91015 13.0899 3 9.5 3ZM1 9.5C1 4.80558 4.80558 1 9.5 1C14.1944 1 18 4.80558 18 9.5C18 14.1944 14.1944 18 9.5 18C4.80558 18 1 14.1944 1 9.5ZM9.5 5.16667C10.0523 5.16667 10.5 5.61438 10.5 6.16667V9.5C10.5 10.0523 10.0523 10.5 9.5 10.5C8.94772 10.5 8.5 10.0523 8.5 9.5V6.16667C8.5 5.61438 8.94772 5.16667 9.5 5.16667ZM8.5 12.8333C8.5 12.281 8.94772 11.8333 9.5 11.8333H9.50833C10.0606 11.8333 10.5083 12.281 10.5083 12.8333C10.5083 13.3856 10.0606 13.8333 9.50833 13.8333H9.5C8.94772 13.8333 8.5 13.3856 8.5 12.8333Z" fill="#F21B1B"/>
<path d="M24.1667 6.66665H35.8333M24.1667 6.66665C23.2462 6.66665 22.5 5.92045 22.5 4.99998C22.5 4.07951 23.2462 3.33331 24.1667 3.33331H35.8333C36.7538 3.33331 37.5 4.07951 37.5 4.99998C37.5 5.92045 36.7538 6.66665 35.8333 6.66665M24.1667 6.66665L24.1667 15C24.1667 15.9205 24.9129 16.6666 25.8333 16.6666H34.1667C35.0871 16.6666 35.8333 15.9205 35.8333 15V6.66665M28.3333 9.99998H31.6667" stroke="#111827" stroke-width="1.65" stroke-linecap="round" stroke-linejoin="round"/>
<g clip-path="url(#clip0_445_4213)">
<path d="M47 10L49 12L53 8M59 10C59 14.9706 54.9706 19 50 19C45.0294 19 41 14.9706 41 10C41 5.02944 45.0294 1 50 1C54.9706 1 59 5.02944 59 10Z" stroke="#632C9F" stroke-width="2" stroke-linecap="round" stroke-linejoin="round"/>
</g>
<g clip-path="url(#clip1_445_4213)">
<path d="M47 30L49 32L53 28M59 30C59 34.9706 54.9706 39 50 39C45.0294 39 41 34.9706 41 30C41 25.0294 45.0294 21 50 21C54.9706 21 59 25.0294 59 30Z" stroke="#111827" stroke-width="2" stroke-linecap="round" stroke-linejoin="round"/>
</g>
<path d="M7.58336 211.417C7.26118 211.094 6.73882 211.094 6.41664 211.417C6.09445 211.739 6.09445 212.261 6.41664 212.583L7.58336 211.417ZM9 214L8.41664 214.583C8.73882 214.906 9.26118 214.906 9.58336 214.583L9 214ZM13.5834 210.583C13.9055 210.261 13.9055 209.739 13.5834 209.417C13.2612 209.094 12.7388 209.094 12.4166 209.417L13.5834 210.583ZM16.175 205V217H17.825V205H16.175ZM15 218.175H5V219.825H15V218.175ZM3.825 217V205H2.175V217H3.825ZM5 203.825H7V202.175H5V203.825ZM13 203.825H15V202.175H13V203.825ZM5 218.175C4.35107 218.175 3.825 217.649 3.825 217H2.175C2.175 218.56 3.4398 219.825 5 219.825V218.175ZM16.175 217C16.175 217.649 15.6489 218.175 15 218.175V219.825C16.5602 219.825 17.825 218.56 17.825 217H16.175ZM17.825 205C17.825 203.44 16.5602 202.175 15 202.175V203.825C15.6489 203.825 16.175 204.351 16.175 205H17.825ZM3.825 205C3.825 204.351 4.35107 203.825 5 203.825V202.175C3.4398 202.175 2.175 203.44 2.175 205H3.825ZM6.41664 212.583L8.41664 214.583L9.58336 213.417L7.58336 211.417L6.41664 212.583ZM9.58336 214.583L13.5834 210.583L12.4166 209.417L8.41664 213.417L9.58336 214.583ZM9 201.825H11V200.175H9V201.825ZM11 204.175H9V205.825H11V204.175ZM9 204.175C8.35107 204.175 7.825 203.649 7.825 203H6.175C6.175 204.56 7.4398 205.825 9 205.825V204.175ZM12.175 203C12.175 203.649 11.6489 204.175 11 204.175V205.825C12.5602 205.825 13.825 204.56 13.825 203H12.175ZM11 201.825C11.6489 201.825 12.175 202.351 12.175 203H13.825C13.825 201.44 12.5602 200.175 11 200.175V201.825ZM9 200.175C7.4398 200.175 6.175 201.44 6.175 203H7.825C7.825 202.351 8.35107 201.825 9 201.825V200.175Z" fill="#452F5D"/>
<path d="M7.58336 231.417C7.26118 231.094 6.73882 231.094 6.41664 231.417C6.09445 231.739 6.09445 232.261 6.41664 232.583L7.58336 231.417ZM9 234L8.41664 234.583C8.73882 234.906 9.26118 234.906 9.58336 234.583L9 234ZM13.5834 230.583C13.9055 230.261 13.9055 229.739 13.5834 229.417C13.2612 229.094 12.7388 229.094 12.4166 229.417L13.5834 230.583ZM16.175 225V237H17.825V225H16.175ZM15 238.175H5V239.825H15V238.175ZM3.825 237V225H2.175V237H3.825ZM5 223.825H7V222.175H5V223.825ZM13 223.825H15V222.175H13V223.825ZM5 238.175C4.35107 238.175 3.825 237.649 3.825 237H2.175C2.175 238.56 3.4398 239.825 5 239.825V238.175ZM16.175 237C16.175 237.649 15.6489 238.175 15 238.175V239.825C16.5602 239.825 17.825 238.56 17.825 237H16.175ZM17.825 225C17.825 223.44 16.5602 222.175 15 222.175V223.825C15.6489 223.825 16.175 224.351 16.175 225H17.825ZM3.825 225C3.825 224.351 4.35107 223.825 5 223.825V222.175C3.4398 222.175 2.175 223.44 2.175 225H3.825ZM6.41664 232.583L8.41664 234.583L9.58336 233.417L7.58336 231.417L6.41664 232.583ZM9.58336 234.583L13.5834 230.583L12.4166 229.417L8.41664 233.417L9.58336 234.583ZM9 221.825H11V220.175H9V221.825ZM11 224.175H9V225.825H11V224.175ZM9 224.175C8.35107 224.175 7.825 223.649 7.825 223H6.175C6.175 224.56 7.4398 225.825 9 225.825V224.175ZM12.175 223C12.175 223.649 11.6489 224.175 11 224.175V225.825C12.5602 225.825 13.825 224.56 13.825 223H12.175ZM11 221.825C11.6489 221.825 12.175 222.351 12.175 223H13.825C13.825 221.44 12.5602 220.175 11 220.175V221.825ZM9 220.175C7.4398 220.175 6.175 221.44 6.175 223H7.825C7.825 222.351 8.35107 221.825 9 221.825V220.175Z" fill="#333333"/>
<path d="M7.58336 251.417C7.26118 251.094 6.73882 251.094 6.41664 251.417C6.09445 251.739 6.09445 252.261 6.41664 252.583L7.58336 251.417ZM9 254L8.41664 254.583C8.73882 254.906 9.26118 254.906 9.58336 254.583L9 254ZM13.5834 250.583C13.9055 250.261 13.9055 249.739 13.5834 249.417C13.2612 249.094 12.7388 249.094 12.4166 249.417L13.5834 250.583ZM16.175 245V257H17.825V245H16.175ZM15 258.175H5V259.825H15V258.175ZM3.825 257V245H2.175V257H3.825ZM5 243.825H7V242.175H5V243.825ZM13 243.825H15V242.175H13V243.825ZM5 258.175C4.35107 258.175 3.825 257.649 3.825 257H2.175C2.175 258.56 3.4398 259.825 5 259.825V258.175ZM16.175 257C16.175 257.649 15.6489 258.175 15 258.175V259.825C16.5602 259.825 17.825 258.56 17.825 257H16.175ZM17.825 245C17.825 243.44 16.5602 242.175 15 242.175V243.825C15.6489 243.825 16.175 244.351 16.175 245H17.825ZM3.825 245C3.825 244.351 4.35107 243.825 5 243.825V242.175C3.4398 242.175 2.175 243.44 2.175 245H3.825ZM6.41664 252.583L8.41664 254.583L9.58336 253.417L7.58336 251.417L6.41664 252.583ZM9.58336 254.583L13.5834 250.583L12.4166 249.417L8.41664 253.417L9.58336 254.583ZM9 241.825H11V240.175H9V241.825ZM11 244.175H9V245.825H11V244.175ZM9 244.175C8.35107 244.175 7.825 243.649 7.825 243H6.175C6.175 244.56 7.4398 245.825 9 245.825V244.175ZM12.175 243C12.175 243.649 11.6489 244.175 11 244.175V245.825C12.5602 245.825 13.825 244.56 13.825 243H12.175ZM11 241.825C11.6489 241.825 12.175 242.351 12.175 243H13.825C13.825 241.44 12.5602 240.175 11 240.175V241.825ZM9 240.175C7.4398 240.175 6.175 241.44 6.175 243H7.825C7.825 242.351 8.35107 241.825 9 241.825V240.175Z" fill="white"/>
<path d="M7.58336 271.417C7.26118 271.094 6.73882 271.094 6.41664 271.417C6.09445 271.739 6.09445 272.261 6.41664 272.583L7.58336 271.417ZM9 274L8.41664 274.583C8.73882 274.906 9.26118 274.906 9.58336 274.583L9 274ZM13.5834 270.583C13.9055 270.261 13.9055 269.739 13.5834 269.417C13.2612 269.094 12.7388 269.094 12.4166 269.417L13.5834 270.583ZM16.175 265V277H17.825V265H16.175ZM15 278.175H5V279.825H15V278.175ZM3.825 277V265H2.175V277H3.825ZM5 263.825H7V262.175H5V263.825ZM13 263.825H15V262.175H13V263.825ZM5 278.175C4.35107 278.175 3.825 277.649 3.825 277H2.175C2.175 278.56 3.4398 279.825 5 279.825V278.175ZM16.175 277C16.175 277.649 15.6489 278.175 15 278.175V279.825C16.5602 279.825 17.825 278.56 17.825 277H16.175ZM17.825 265C17.825 263.44 16.5602 262.175 15 262.175V263.825C15.6489 263.825 16.175 264.351 16.175 265H17.825ZM3.825 265C3.825 264.351 4.35107 263.825 5 263.825V262.175C3.4398 262.175 2.175 263.44 2.175 265H3.825ZM6.41664 272.583L8.41664 274.583L9.58336 273.417L7.58336 271.417L6.41664 272.583ZM9.58336 274.583L13.5834 270.583L12.4166 269.417L8.41664 273.417L9.58336 274.583ZM9 261.825H11V260.175H9V261.825ZM11 264.175H9V265.825H11V264.175ZM9 264.175C8.35107 264.175 7.825 263.649 7.825 263H6.175C6.175 264.56 7.4398 265.825 9 265.825V264.175ZM12.175 263C12.175 263.649 11.6489 264.175 11 264.175V265.825C12.5602 265.825 13.825 264.56 13.825 263H12.175ZM11 261.825C11.6489 261.825 12.175 262.351 12.175 263H13.825C13.825 261.44 12.5602 260.175 11 260.175V261.825ZM9 260.175C7.4398 260.175 6.175 261.44 6.175 263H7.825C7.825 262.351 8.35107 261.825 9 261.825V260.175Z" fill="#DB4482"/>
<path d="M7.58336 291.417C7.26118 291.094 6.73882 291.094 6.41664 291.417C6.09445 291.739 6.09445 292.261 6.41664 292.583L7.58336 291.417ZM9 294L8.41664 294.583C8.73882 294.906 9.26118 294.906 9.58336 294.583L9 294ZM13.5834 290.583C13.9055 290.261 13.9055 289.739 13.5834 289.417C13.2612 289.094 12.7388 289.094 12.4166 289.417L13.5834 290.583ZM16.175 285V297H17.825V285H16.175ZM15 298.175H5V299.825H15V298.175ZM3.825 297V285H2.175V297H3.825ZM5 283.825H7V282.175H5V283.825ZM13 283.825H15V282.175H13V283.825ZM5 298.175C4.35107 298.175 3.825 297.649 3.825 297H2.175C2.175 298.56 3.4398 299.825 5 299.825V298.175ZM16.175 297C16.175 297.649 15.6489 298.175 15 298.175V299.825C16.5602 299.825 17.825 298.56 17.825 297H16.175ZM17.825 285C17.825 283.44 16.5602 282.175 15 282.175V283.825C15.6489 283.825 16.175 284.351 16.175 285H17.825ZM3.825 285C3.825 284.351 4.35107 283.825 5 283.825V282.175C3.4398 282.175 2.175 283.44 2.175 285H3.825ZM6.41664 292.583L8.41664 294.583L9.58336 293.417L7.58336 291.417L6.41664 292.583ZM9.58336 294.583L13.5834 290.583L12.4166 289.417L8.41664 293.417L9.58336 294.583ZM9 281.825H11V280.175H9V281.825ZM11 284.175H9V285.825H11V284.175ZM9 284.175C8.35107 284.175 7.825 283.649 7.825 283H6.175C6.175 284.56 7.4398 285.825 9 285.825V284.175ZM12.175 283C12.175 283.649 11.6489 284.175 11 284.175V285.825C12.5602 285.825 13.825 284.56 13.825 283H12.175ZM11 281.825C11.6489 281.825 12.175 282.351 12.175 283H13.825C13.825 281.44 12.5602 280.175 11 280.175V281.825ZM9 280.175C7.4398 280.175 6.175 281.44 6.175 283H7.825C7.825 282.351 8.35107 281.825 9 281.825V280.175Z" fill="#989AA1"/>
<path d="M7.58336 311.417C7.26118 311.094 6.73882 311.094 6.41664 311.417C6.09445 311.739 6.09445 312.261 6.41664 312.583L7.58336 311.417ZM9 314L8.41664 314.583C8.73882 314.906 9.26118 314.906 9.58336 314.583L9 314ZM13.5834 310.583C13.9055 310.261 13.9055 309.739 13.5834 309.417C13.2612 309.094 12.7388 309.094 12.4166 309.417L13.5834 310.583ZM16.175 305V317H17.825V305H16.175ZM15 318.175H5V319.825H15V318.175ZM3.825 317V305H2.175V317H3.825ZM5 303.825H7V302.175H5V303.825ZM13 303.825H15V302.175H13V303.825ZM5 318.175C4.35107 318.175 3.825 317.649 3.825 317H2.175C2.175 318.56 3.4398 319.825 5 319.825V318.175ZM16.175 317C16.175 317.649 15.6489 318.175 15 318.175V319.825C16.5602 319.825 17.825 318.56 17.825 317H16.175ZM17.825 305C17.825 303.44 16.5602 302.175 15 302.175V303.825C15.6489 303.825 16.175 304.351 16.175 305H17.825ZM3.825 305C3.825 304.351 4.35107 303.825 5 303.825V302.175C3.4398 302.175 2.175 303.44 2.175 305H3.825ZM6.41664 312.583L8.41664 314.583L9.58336 313.417L7.58336 311.417L6.41664 312.583ZM9.58336 314.583L13.5834 310.583L12.4166 309.417L8.41664 313.417L9.58336 314.583ZM9 301.825H11V300.175H9V301.825ZM11 304.175H9V305.825H11V304.175ZM9 304.175C8.35107 304.175 7.825 303.649 7.825 303H6.175C6.175 304.56 7.4398 305.825 9 305.825V304.175ZM12.175 303C12.175 303.649 11.6489 304.175 11 304.175V305.825C12.5602 305.825 13.825 304.56 13.825 303H12.175ZM11 301.825C11.6489 301.825 12.175 302.351 12.175 303H13.825C13.825 301.44 12.5602 300.175 11 300.175V301.825ZM9 300.175C7.4398 300.175 6.175 301.44 6.175 303H7.825C7.825 302.351 8.35107 301.825 9 301.825V300.175Z" fill="#333333"/>
<path d="M7.58336 331.417C7.26118 331.094 6.73882 331.094 6.41664 331.417C6.09445 331.739 6.09445 332.261 6.41664 332.583L7.58336 331.417ZM9 334L8.41664 334.583C8.73882 334.906 9.26118 334.906 9.58336 334.583L9 334ZM13.5834 330.583C13.9055 330.261 13.9055 329.739 13.5834 329.417C13.2612 329.094 12.7388 329.094 12.4166 329.417L13.5834 330.583ZM16.175 325V337H17.825V325H16.175ZM15 338.175H5V339.825H15V338.175ZM3.825 337V325H2.175V337H3.825ZM5 323.825H7V322.175H5V323.825ZM13 323.825H15V322.175H13V323.825ZM5 338.175C4.35107 338.175 3.825 337.649 3.825 337H2.175C2.175 338.56 3.4398 339.825 5 339.825V338.175ZM16.175 337C16.175 337.649 15.6489 338.175 15 338.175V339.825C16.5602 339.825 17.825 338.56 17.825 337H16.175ZM17.825 325C17.825 323.44 16.5602 322.175 15 322.175V323.825C15.6489 323.825 16.175 324.351 16.175 325H17.825ZM3.825 325C3.825 324.351 4.35107 323.825 5 323.825V322.175C3.4398 322.175 2.175 323.44 2.175 325H3.825ZM6.41664 332.583L8.41664 334.583L9.58336 333.417L7.58336 331.417L6.41664 332.583ZM9.58336 334.583L13.5834 330.583L12.4166 329.417L8.41664 333.417L9.58336 334.583ZM9 321.825H11V320.175H9V321.825ZM11 324.175H9V325.825H11V324.175ZM9 324.175C8.35107 324.175 7.825 323.649 7.825 323H6.175C6.175 324.56 7.4398 325.825 9 325.825V324.175ZM12.175 323C12.175 323.649 11.6489 324.175 11 324.175V325.825C12.5602 325.825 13.825 324.56 13.825 323H12.175ZM11 321.825C11.6489 321.825 12.175 322.351 12.175 323H13.825C13.825 321.44 12.5602 320.175 11 320.175V321.825ZM9 320.175C7.4398 320.175 6.175 321.44 6.175 323H7.825C7.825 322.351 8.35107 321.825 9 321.825V320.175Z" fill="#EF1B1B"/>
<path d="M77 10C77 13.866 73.866 17 70 17C66.134 17 63 13.866 63 10C63 6.13401 66.134 3 70 3C73.866 3 77 6.13401 77 10ZM66.9411 10C66.9411 11.6894 68.3106 13.0589 70 13.0589C71.6894 13.0589 73.0589 11.6894 73.0589 10C73.0589 8.3106 71.6894 6.94107 70 6.94107C68.3106 6.94107 66.9411 8.3106 66.9411 10Z" fill="#34234D"/>
<g clip-path="url(#clip2_445_4213)">
<path d="M88.5 13L91.5 10L88.5 7" stroke="#777777" stroke-linecap="round" stroke-linejoin="round"/>
</g>
<path d="M57.9771 110.005H107.014" stroke="white" stroke-miterlimit="10"/>
<path d="M100.023 102.286L107.014 110.005L100.023 117.714" stroke="white" stroke-miterlimit="10"/>
<path d="M2.97705 110.005H52.0135" stroke="#452F5D" stroke-miterlimit="10"/>
<path d="M45.0232 102.286L52.0136 110.005L45.0232 117.714" stroke="#452F5D" stroke-miterlimit="10"/>
<path d="M68.3333 205H64.9999C64.0794 205 63.3333 205.746 63.3333 206.667V215C63.3333 215.92 64.0794 216.667 64.9999 216.667H73.3333C74.2537 216.667 74.9999 215.92 74.9999 215V211.667M71.6666 203.333H76.6666M76.6666 203.333V208.333M76.6666 203.333L68.3333 211.667" stroke="#452F5D" stroke-width="1.5" stroke-linecap="round" stroke-linejoin="round"/>
<path d="M68.3333 225H64.9999C64.0794 225 63.3333 225.746 63.3333 226.667V235C63.3333 235.92 64.0794 236.667 64.9999 236.667H73.3333C74.2537 236.667 74.9999 235.92 74.9999 235V231.667M71.6666 223.333H76.6666M76.6666 223.333V228.333M76.6666 223.333L68.3333 231.667" stroke="#333333" stroke-width="1.5" stroke-linecap="round" stroke-linejoin="round"/>
<path d="M68.3333 245H64.9999C64.0794 245 63.3333 245.746 63.3333 246.667V255C63.3333 255.92 64.0794 256.667 64.9999 256.667H73.3333C74.2537 256.667 74.9999 255.92 74.9999 255V251.667M71.6666 243.333H76.6666M76.6666 243.333V248.333M76.6666 243.333L68.3333 251.667" stroke="white" stroke-width="1.5" stroke-linecap="round" stroke-linejoin="round"/>
<path d="M68.3333 265H64.9999C64.0794 265 63.3333 265.746 63.3333 266.667V275C63.3333 275.92 64.0794 276.667 64.9999 276.667H73.3333C74.2537 276.667 74.9999 275.92 74.9999 275V271.667M71.6666 263.333H76.6666M76.6666 263.333V268.333M76.6666 263.333L68.3333 271.667" stroke="#DB4482" stroke-width="1.5" stroke-linecap="round" stroke-linejoin="round"/>
<path d="M68.3333 285H64.9999C64.0794 285 63.3333 285.746 63.3333 286.667V295C63.3333 295.92 64.0794 296.667 64.9999 296.667H73.3333C74.2537 296.667 74.9999 295.92 74.9999 295V291.667M71.6666 283.333H76.6666M76.6666 283.333V288.333M76.6666 283.333L68.3333 291.667" stroke="#989AA1" stroke-width="1.5" stroke-linecap="round" stroke-linejoin="round"/>
<path d="M68.3333 305H64.9999C64.0794 305 63.3333 305.746 63.3333 306.667V315C63.3333 315.92 64.0794 316.667 64.9999 316.667H73.3333C74.2537 316.667 74.9999 315.92 74.9999 315V311.667M71.6666 303.333H76.6666M76.6666 303.333V308.333M76.6666 303.333L68.3333 311.667" stroke="#333333" stroke-width="1.5" stroke-linecap="round" stroke-linejoin="round"/>
<path d="M68.3333 325H64.9999C64.0794 325 63.3333 325.746 63.3333 326.667V335C63.3333 335.92 64.0794 336.667 64.9999 336.667H73.3333C74.2537 336.667 74.9999 335.92 74.9999 335V331.667M71.6666 323.333H76.6666M76.6666 323.333V328.333M76.6666 323.333L68.3333 331.667" stroke="#EF1B1B" stroke-width="1.5" stroke-linecap="round" stroke-linejoin="round"/>
<path d="M83.3333 213.333L83.3333 214.167C83.3333 215.547 84.4525 216.667 85.8333 216.667L94.1666 216.667C95.5473 216.667 96.6666 215.547 96.6666 214.167L96.6666 213.333M93.3333 210L89.9999 213.333M89.9999 213.333L86.6666 210M89.9999 213.333L89.9999 203.333" stroke="#452F5D" stroke-width="1.5" stroke-linecap="round" stroke-linejoin="round"/>
<path d="M83.3333 233.333L83.3333 234.167C83.3333 235.547 84.4525 236.667 85.8333 236.667L94.1666 236.667C95.5473 236.667 96.6666 235.547 96.6666 234.167L96.6666 233.333M93.3333 230L89.9999 233.333M89.9999 233.333L86.6666 230M89.9999 233.333L89.9999 223.333" stroke="#333333" stroke-width="1.5" stroke-linecap="round" stroke-linejoin="round"/>
<path d="M83.3333 253.333L83.3333 254.167C83.3333 255.547 84.4525 256.667 85.8333 256.667L94.1666 256.667C95.5473 256.667 96.6666 255.547 96.6666 254.167L96.6666 253.333M93.3333 250L89.9999 253.333M89.9999 253.333L86.6666 250M89.9999 253.333L89.9999 243.333" stroke="white" stroke-width="1.5" stroke-linecap="round" stroke-linejoin="round"/>
<path d="M83.3333 273.333L83.3333 274.167C83.3333 275.547 84.4525 276.667 85.8333 276.667L94.1666 276.667C95.5473 276.667 96.6666 275.547 96.6666 274.167L96.6666 273.333M93.3333 270L89.9999 273.333M89.9999 273.333L86.6666 270M89.9999 273.333L89.9999 263.333" stroke="#DB4482" stroke-width="1.5" stroke-linecap="round" stroke-linejoin="round"/>
<path d="M83.3333 293.333L83.3333 294.167C83.3333 295.547 84.4525 296.667 85.8333 296.667L94.1666 296.667C95.5473 296.667 96.6666 295.547 96.6666 294.167L96.6666 293.333M93.3333 290L89.9999 293.333M89.9999 293.333L86.6666 290M89.9999 293.333L89.9999 283.333" stroke="#989AA1" stroke-width="1.5" stroke-linecap="round" stroke-linejoin="round"/>
<path d="M83.3333 313.333L83.3333 314.167C83.3333 315.547 84.4525 316.667 85.8333 316.667L94.1666 316.667C95.5473 316.667 96.6666 315.547 96.6666 314.167L96.6666 313.333M93.3333 310L89.9999 313.333M89.9999 313.333L86.6666 310M89.9999 313.333L89.9999 303.333" stroke="#333333" stroke-width="1.5" stroke-linecap="round" stroke-linejoin="round"/>
<path d="M83.3333 333.333L83.3333 334.167C83.3333 335.547 84.4525 336.667 85.8333 336.667L94.1666 336.667C95.5473 336.667 96.6666 335.547 96.6666 334.167L96.6666 333.333M93.3333 330L89.9999 333.333M89.9999 333.333L86.6666 330M89.9999 333.333L89.9999 323.333" stroke="#EF1B1B" stroke-width="1.5" stroke-linecap="round" stroke-linejoin="round"/>
<path d="M30 209.175C29.5444 209.175 29.175 209.544 29.175 210C29.175 210.456 29.5444 210.825 30 210.825V209.175ZM33 210.825C33.4556 210.825 33.825 210.456 33.825 210C33.825 209.544 33.4556 209.175 33 209.175V210.825ZM30 213.175C29.5444 213.175 29.175 213.544 29.175 214C29.175 214.456 29.5444 214.825 30 214.825V213.175ZM33 214.825C33.4556 214.825 33.825 214.456 33.825 214C33.825 213.544 33.4556 213.175 33 213.175V214.825ZM27 209.175C26.5444 209.175 26.175 209.544 26.175 210C26.175 210.456 26.5444 210.825 27 210.825V209.175ZM27.01 210.825C27.4656 210.825 27.835 210.456 27.835 210C27.835 209.544 27.4656 209.175 27.01 209.175V210.825ZM27 213.175C26.5444 213.175 26.175 213.544 26.175 214C26.175 214.456 26.5444 214.825 27 214.825V213.175ZM27.01 214.825C27.4656 214.825 27.835 214.456 27.835 214C27.835 213.544 27.4656 213.175 27.01 213.175V214.825ZM36.175 205V217H37.825V205H36.175ZM35 218.175H25V219.825H35V218.175ZM23.825 217V205H22.175V217H23.825ZM25 203.825H27V202.175H25V203.825ZM33 203.825H35V202.175H33V203.825ZM25 218.175C24.3511 218.175 23.825 217.649 23.825 217H22.175C22.175 218.56 23.4398 219.825 25 219.825V218.175ZM36.175 217C36.175 217.649 35.6489 218.175 35 218.175V219.825C36.5602 219.825 37.825 218.56 37.825 217H36.175ZM37.825 205C37.825 203.44 36.5602 202.175 35 202.175V203.825C35.6489 203.825 36.175 204.351 36.175 205H37.825ZM23.825 205C23.825 204.351 24.3511 203.825 25 203.825V202.175C23.4398 202.175 22.175 203.44 22.175 205H23.825ZM30 210.825H33V209.175H30V210.825ZM30 214.825H33V213.175H30V214.825ZM29 201.825H31V200.175H29V201.825ZM31 204.175H29V205.825H31V204.175ZM29 204.175C28.3511 204.175 27.825 203.649 27.825 203H26.175C26.175 204.56 27.4398 205.825 29 205.825V204.175ZM32.175 203C32.175 203.649 31.6489 204.175 31 204.175V205.825C32.5602 205.825 33.825 204.56 33.825 203H32.175ZM31 201.825C31.6489 201.825 32.175 202.351 32.175 203H33.825C33.825 201.44 32.5602 200.175 31 200.175V201.825ZM29 200.175C27.4398 200.175 26.175 201.44 26.175 203H27.825C27.825 202.351 28.3511 201.825 29 201.825V200.175ZM27 210.825H27.01V209.175H27V210.825ZM27 214.825H27.01V213.175H27V214.825Z" fill="#452F5D"/>
<path d="M30 229.175C29.5444 229.175 29.175 229.544 29.175 230C29.175 230.456 29.5444 230.825 30 230.825V229.175ZM33 230.825C33.4556 230.825 33.825 230.456 33.825 230C33.825 229.544 33.4556 229.175 33 229.175V230.825ZM30 233.175C29.5444 233.175 29.175 233.544 29.175 234C29.175 234.456 29.5444 234.825 30 234.825V233.175ZM33 234.825C33.4556 234.825 33.825 234.456 33.825 234C33.825 233.544 33.4556 233.175 33 233.175V234.825ZM27 229.175C26.5444 229.175 26.175 229.544 26.175 230C26.175 230.456 26.5444 230.825 27 230.825V229.175ZM27.01 230.825C27.4656 230.825 27.835 230.456 27.835 230C27.835 229.544 27.4656 229.175 27.01 229.175V230.825ZM27 233.175C26.5444 233.175 26.175 233.544 26.175 234C26.175 234.456 26.5444 234.825 27 234.825V233.175ZM27.01 234.825C27.4656 234.825 27.835 234.456 27.835 234C27.835 233.544 27.4656 233.175 27.01 233.175V234.825ZM36.175 225V237H37.825V225H36.175ZM35 238.175H25V239.825H35V238.175ZM23.825 237V225H22.175V237H23.825ZM25 223.825H27V222.175H25V223.825ZM33 223.825H35V222.175H33V223.825ZM25 238.175C24.3511 238.175 23.825 237.649 23.825 237H22.175C22.175 238.56 23.4398 239.825 25 239.825V238.175ZM36.175 237C36.175 237.649 35.6489 238.175 35 238.175V239.825C36.5602 239.825 37.825 238.56 37.825 237H36.175ZM37.825 225C37.825 223.44 36.5602 222.175 35 222.175V223.825C35.6489 223.825 36.175 224.351 36.175 225H37.825ZM23.825 225C23.825 224.351 24.3511 223.825 25 223.825V222.175C23.4398 222.175 22.175 223.44 22.175 225H23.825ZM30 230.825H33V229.175H30V230.825ZM30 234.825H33V233.175H30V234.825ZM29 221.825H31V220.175H29V221.825ZM31 224.175H29V225.825H31V224.175ZM29 224.175C28.3511 224.175 27.825 223.649 27.825 223H26.175C26.175 224.56 27.4398 225.825 29 225.825V224.175ZM32.175 223C32.175 223.649 31.6489 224.175 31 224.175V225.825C32.5602 225.825 33.825 224.56 33.825 223H32.175ZM31 221.825C31.6489 221.825 32.175 222.351 32.175 223H33.825C33.825 221.44 32.5602 220.175 31 220.175V221.825ZM29 220.175C27.4398 220.175 26.175 221.44 26.175 223H27.825C27.825 222.351 28.3511 221.825 29 221.825V220.175ZM27 230.825H27.01V229.175H27V230.825ZM27 234.825H27.01V233.175H27V234.825Z" fill="#333333"/>
<path d="M30 249.175C29.5444 249.175 29.175 249.544 29.175 250C29.175 250.456 29.5444 250.825 30 250.825V249.175ZM33 250.825C33.4556 250.825 33.825 250.456 33.825 250C33.825 249.544 33.4556 249.175 33 249.175V250.825ZM30 253.175C29.5444 253.175 29.175 253.544 29.175 254C29.175 254.456 29.5444 254.825 30 254.825V253.175ZM33 254.825C33.4556 254.825 33.825 254.456 33.825 254C33.825 253.544 33.4556 253.175 33 253.175V254.825ZM27 249.175C26.5444 249.175 26.175 249.544 26.175 250C26.175 250.456 26.5444 250.825 27 250.825V249.175ZM27.01 250.825C27.4656 250.825 27.835 250.456 27.835 250C27.835 249.544 27.4656 249.175 27.01 249.175V250.825ZM27 253.175C26.5444 253.175 26.175 253.544 26.175 254C26.175 254.456 26.5444 254.825 27 254.825V253.175ZM27.01 254.825C27.4656 254.825 27.835 254.456 27.835 254C27.835 253.544 27.4656 253.175 27.01 253.175V254.825ZM36.175 245V257H37.825V245H36.175ZM35 258.175H25V259.825H35V258.175ZM23.825 257V245H22.175V257H23.825ZM25 243.825H27V242.175H25V243.825ZM33 243.825H35V242.175H33V243.825ZM25 258.175C24.3511 258.175 23.825 257.649 23.825 257H22.175C22.175 258.56 23.4398 259.825 25 259.825V258.175ZM36.175 257C36.175 257.649 35.6489 258.175 35 258.175V259.825C36.5602 259.825 37.825 258.56 37.825 257H36.175ZM37.825 245C37.825 243.44 36.5602 242.175 35 242.175V243.825C35.6489 243.825 36.175 244.351 36.175 245H37.825ZM23.825 245C23.825 244.351 24.3511 243.825 25 243.825V242.175C23.4398 242.175 22.175 243.44 22.175 245H23.825ZM30 250.825H33V249.175H30V250.825ZM30 254.825H33V253.175H30V254.825ZM29 241.825H31V240.175H29V241.825ZM31 244.175H29V245.825H31V244.175ZM29 244.175C28.3511 244.175 27.825 243.649 27.825 243H26.175C26.175 244.56 27.4398 245.825 29 245.825V244.175ZM32.175 243C32.175 243.649 31.6489 244.175 31 244.175V245.825C32.5602 245.825 33.825 244.56 33.825 243H32.175ZM31 241.825C31.6489 241.825 32.175 242.351 32.175 243H33.825C33.825 241.44 32.5602 240.175 31 240.175V241.825ZM29 240.175C27.4398 240.175 26.175 241.44 26.175 243H27.825C27.825 242.351 28.3511 241.825 29 241.825V240.175ZM27 250.825H27.01V249.175H27V250.825ZM27 254.825H27.01V253.175H27V254.825Z" fill="white"/>
<path d="M30 269.175C29.5444 269.175 29.175 269.544 29.175 270C29.175 270.456 29.5444 270.825 30 270.825V269.175ZM33 270.825C33.4556 270.825 33.825 270.456 33.825 270C33.825 269.544 33.4556 269.175 33 269.175V270.825ZM30 273.175C29.5444 273.175 29.175 273.544 29.175 274C29.175 274.456 29.5444 274.825 30 274.825V273.175ZM33 274.825C33.4556 274.825 33.825 274.456 33.825 274C33.825 273.544 33.4556 273.175 33 273.175V274.825ZM27 269.175C26.5444 269.175 26.175 269.544 26.175 270C26.175 270.456 26.5444 270.825 27 270.825V269.175ZM27.01 270.825C27.4656 270.825 27.835 270.456 27.835 270C27.835 269.544 27.4656 269.175 27.01 269.175V270.825ZM27 273.175C26.5444 273.175 26.175 273.544 26.175 274C26.175 274.456 26.5444 274.825 27 274.825V273.175ZM27.01 274.825C27.4656 274.825 27.835 274.456 27.835 274C27.835 273.544 27.4656 273.175 27.01 273.175V274.825ZM36.175 265V277H37.825V265H36.175ZM35 278.175H25V279.825H35V278.175ZM23.825 277V265H22.175V277H23.825ZM25 263.825H27V262.175H25V263.825ZM33 263.825H35V262.175H33V263.825ZM25 278.175C24.3511 278.175 23.825 277.649 23.825 277H22.175C22.175 278.56 23.4398 279.825 25 279.825V278.175ZM36.175 277C36.175 277.649 35.6489 278.175 35 278.175V279.825C36.5602 279.825 37.825 278.56 37.825 277H36.175ZM37.825 265C37.825 263.44 36.5602 262.175 35 262.175V263.825C35.6489 263.825 36.175 264.351 36.175 265H37.825ZM23.825 265C23.825 264.351 24.3511 263.825 25 263.825V262.175C23.4398 262.175 22.175 263.44 22.175 265H23.825ZM30 270.825H33V269.175H30V270.825ZM30 274.825H33V273.175H30V274.825ZM29 261.825H31V260.175H29V261.825ZM31 264.175H29V265.825H31V264.175ZM29 264.175C28.3511 264.175 27.825 263.649 27.825 263H26.175C26.175 264.56 27.4398 265.825 29 265.825V264.175ZM32.175 263C32.175 263.649 31.6489 264.175 31 264.175V265.825C32.5602 265.825 33.825 264.56 33.825 263H32.175ZM31 261.825C31.6489 261.825 32.175 262.351 32.175 263H33.825C33.825 261.44 32.5602 260.175 31 260.175V261.825ZM29 260.175C27.4398 260.175 26.175 261.44 26.175 263H27.825C27.825 262.351 28.3511 261.825 29 261.825V260.175ZM27 270.825H27.01V269.175H27V270.825ZM27 274.825H27.01V273.175H27V274.825Z" fill="#DB4482"/>
<path d="M30 289.175C29.5444 289.175 29.175 289.544 29.175 290C29.175 290.456 29.5444 290.825 30 290.825V289.175ZM33 290.825C33.4556 290.825 33.825 290.456 33.825 290C33.825 289.544 33.4556 289.175 33 289.175V290.825ZM30 293.175C29.5444 293.175 29.175 293.544 29.175 294C29.175 294.456 29.5444 294.825 30 294.825V293.175ZM33 294.825C33.4556 294.825 33.825 294.456 33.825 294C33.825 293.544 33.4556 293.175 33 293.175V294.825ZM27 289.175C26.5444 289.175 26.175 289.544 26.175 290C26.175 290.456 26.5444 290.825 27 290.825V289.175ZM27.01 290.825C27.4656 290.825 27.835 290.456 27.835 290C27.835 289.544 27.4656 289.175 27.01 289.175V290.825ZM27 293.175C26.5444 293.175 26.175 293.544 26.175 294C26.175 294.456 26.5444 294.825 27 294.825V293.175ZM27.01 294.825C27.4656 294.825 27.835 294.456 27.835 294C27.835 293.544 27.4656 293.175 27.01 293.175V294.825ZM36.175 285V297H37.825V285H36.175ZM35 298.175H25V299.825H35V298.175ZM23.825 297V285H22.175V297H23.825ZM25 283.825H27V282.175H25V283.825ZM33 283.825H35V282.175H33V283.825ZM25 298.175C24.3511 298.175 23.825 297.649 23.825 297H22.175C22.175 298.56 23.4398 299.825 25 299.825V298.175ZM36.175 297C36.175 297.649 35.6489 298.175 35 298.175V299.825C36.5602 299.825 37.825 298.56 37.825 297H36.175ZM37.825 285C37.825 283.44 36.5602 282.175 35 282.175V283.825C35.6489 283.825 36.175 284.351 36.175 285H37.825ZM23.825 285C23.825 284.351 24.3511 283.825 25 283.825V282.175C23.4398 282.175 22.175 283.44 22.175 285H23.825ZM30 290.825H33V289.175H30V290.825ZM30 294.825H33V293.175H30V294.825ZM29 281.825H31V280.175H29V281.825ZM31 284.175H29V285.825H31V284.175ZM29 284.175C28.3511 284.175 27.825 283.649 27.825 283H26.175C26.175 284.56 27.4398 285.825 29 285.825V284.175ZM32.175 283C32.175 283.649 31.6489 284.175 31 284.175V285.825C32.5602 285.825 33.825 284.56 33.825 283H32.175ZM31 281.825C31.6489 281.825 32.175 282.351 32.175 283H33.825C33.825 281.44 32.5602 280.175 31 280.175V281.825ZM29 280.175C27.4398 280.175 26.175 281.44 26.175 283H27.825C27.825 282.351 28.3511 281.825 29 281.825V280.175ZM27 290.825H27.01V289.175H27V290.825ZM27 294.825H27.01V293.175H27V294.825Z" fill="#989AA1"/>
<path d="M30 309.175C29.5444 309.175 29.175 309.544 29.175 310C29.175 310.456 29.5444 310.825 30 310.825V309.175ZM33 310.825C33.4556 310.825 33.825 310.456 33.825 310C33.825 309.544 33.4556 309.175 33 309.175V310.825ZM30 313.175C29.5444 313.175 29.175 313.544 29.175 314C29.175 314.456 29.5444 314.825 30 314.825V313.175ZM33 314.825C33.4556 314.825 33.825 314.456 33.825 314C33.825 313.544 33.4556 313.175 33 313.175V314.825ZM27 309.175C26.5444 309.175 26.175 309.544 26.175 310C26.175 310.456 26.5444 310.825 27 310.825V309.175ZM27.01 310.825C27.4656 310.825 27.835 310.456 27.835 310C27.835 309.544 27.4656 309.175 27.01 309.175V310.825ZM27 313.175C26.5444 313.175 26.175 313.544 26.175 314C26.175 314.456 26.5444 314.825 27 314.825V313.175ZM27.01 314.825C27.4656 314.825 27.835 314.456 27.835 314C27.835 313.544 27.4656 313.175 27.01 313.175V314.825ZM36.175 305V317H37.825V305H36.175ZM35 318.175H25V319.825H35V318.175ZM23.825 317V305H22.175V317H23.825ZM25 303.825H27V302.175H25V303.825ZM33 303.825H35V302.175H33V303.825ZM25 318.175C24.3511 318.175 23.825 317.649 23.825 317H22.175C22.175 318.56 23.4398 319.825 25 319.825V318.175ZM36.175 317C36.175 317.649 35.6489 318.175 35 318.175V319.825C36.5602 319.825 37.825 318.56 37.825 317H36.175ZM37.825 305C37.825 303.44 36.5602 302.175 35 302.175V303.825C35.6489 303.825 36.175 304.351 36.175 305H37.825ZM23.825 305C23.825 304.351 24.3511 303.825 25 303.825V302.175C23.4398 302.175 22.175 303.44 22.175 305H23.825ZM30 310.825H33V309.175H30V310.825ZM30 314.825H33V313.175H30V314.825ZM29 301.825H31V300.175H29V301.825ZM31 304.175H29V305.825H31V304.175ZM29 304.175C28.3511 304.175 27.825 303.649 27.825 303H26.175C26.175 304.56 27.4398 305.825 29 305.825V304.175ZM32.175 303C32.175 303.649 31.6489 304.175 31 304.175V305.825C32.5602 305.825 33.825 304.56 33.825 303H32.175ZM31 301.825C31.6489 301.825 32.175 302.351 32.175 303H33.825C33.825 301.44 32.5602 300.175 31 300.175V301.825ZM29 300.175C27.4398 300.175 26.175 301.44 26.175 303H27.825C27.825 302.351 28.3511 301.825 29 301.825V300.175ZM27 310.825H27.01V309.175H27V310.825ZM27 314.825H27.01V313.175H27V314.825Z" fill="#333333"/>
<path d="M30 329.175C29.5444 329.175 29.175 329.544 29.175 330C29.175 330.456 29.5444 330.825 30 330.825V329.175ZM33 330.825C33.4556 330.825 33.825 330.456 33.825 330C33.825 329.544 33.4556 329.175 33 329.175V330.825ZM30 333.175C29.5444 333.175 29.175 333.544 29.175 334C29.175 334.456 29.5444 334.825 30 334.825V333.175ZM33 334.825C33.4556 334.825 33.825 334.456 33.825 334C33.825 333.544 33.4556 333.175 33 333.175V334.825ZM27 329.175C26.5444 329.175 26.175 329.544 26.175 330C26.175 330.456 26.5444 330.825 27 330.825V329.175ZM27.01 330.825C27.4656 330.825 27.835 330.456 27.835 330C27.835 329.544 27.4656 329.175 27.01 329.175V330.825ZM27 333.175C26.5444 333.175 26.175 333.544 26.175 334C26.175 334.456 26.5444 334.825 27 334.825V333.175ZM27.01 334.825C27.4656 334.825 27.835 334.456 27.835 334C27.835 333.544 27.4656 333.175 27.01 333.175V334.825ZM36.175 325V337H37.825V325H36.175ZM35 338.175H25V339.825H35V338.175ZM23.825 337V325H22.175V337H23.825ZM25 323.825H27V322.175H25V323.825ZM33 323.825H35V322.175H33V323.825ZM25 338.175C24.3511 338.175 23.825 337.649 23.825 337H22.175C22.175 338.56 23.4398 339.825 25 339.825V338.175ZM36.175 337C36.175 337.649 35.6489 338.175 35 338.175V339.825C36.5602 339.825 37.825 338.56 37.825 337H36.175ZM37.825 325C37.825 323.44 36.5602 322.175 35 322.175V323.825C35.6489 323.825 36.175 324.351 36.175 325H37.825ZM23.825 325C23.825 324.351 24.3511 323.825 25 323.825V322.175C23.4398 322.175 22.175 323.44 22.175 325H23.825ZM30 330.825H33V329.175H30V330.825ZM30 334.825H33V333.175H30V334.825ZM29 321.825H31V320.175H29V321.825ZM31 324.175H29V325.825H31V324.175ZM29 324.175C28.3511 324.175 27.825 323.649 27.825 323H26.175C26.175 324.56 27.4398 325.825 29 325.825V324.175ZM32.175 323C32.175 323.649 31.6489 324.175 31 324.175V325.825C32.5602 325.825 33.825 324.56 33.825 323H32.175ZM31 321.825C31.6489 321.825 32.175 322.351 32.175 323H33.825C33.825 321.44 32.5602 320.175 31 320.175V321.825ZM29 320.175C27.4398 320.175 26.175 321.44 26.175 323H27.825C27.825 322.351 28.3511 321.825 29 321.825V320.175ZM27 330.825H27.01V329.175H27V330.825ZM27 334.825H27.01V333.175H27V334.825Z" fill="#EF1B1B"/>
<path d="M47 210.675C46.5444 210.675 46.175 211.044 46.175 211.5C46.175 211.956 46.5444 212.325 47 212.325V210.675ZM53 212.325C53.4556 212.325 53.825 211.956 53.825 211.5C53.825 211.044 53.4556 210.675 53 210.675V212.325ZM56.175 205V217H57.825V205H56.175ZM55 218.175H45V219.825H55V218.175ZM43.825 217V205H42.175V217H43.825ZM45 203.825H47V202.175H45V203.825ZM53 203.825H55V202.175H53V203.825ZM45 218.175C44.3511 218.175 43.825 217.649 43.825 217H42.175C42.175 218.56 43.4398 219.825 45 219.825V218.175ZM56.175 217C56.175 217.649 55.6489 218.175 55 218.175V219.825C56.5602 219.825 57.825 218.56 57.825 217H56.175ZM57.825 205C57.825 203.44 56.5602 202.175 55 202.175V203.825C55.6489 203.825 56.175 204.351 56.175 205H57.825ZM43.825 205C43.825 204.351 44.3511 203.825 45 203.825V202.175C43.4398 202.175 42.175 203.44 42.175 205H43.825ZM49 201.825H51V200.175H49V201.825ZM51 204.175H49V205.825H51V204.175ZM49 204.175C48.3511 204.175 47.825 203.649 47.825 203H46.175C46.175 204.56 47.4398 205.825 49 205.825V204.175ZM52.175 203C52.175 203.649 51.6489 204.175 51 204.175V205.825C52.5602 205.825 53.825 204.56 53.825 203H52.175ZM51 201.825C51.6489 201.825 52.175 202.351 52.175 203H53.825C53.825 201.44 52.5602 200.175 51 200.175V201.825ZM49 200.175C47.4398 200.175 46.175 201.44 46.175 203H47.825C47.825 202.351 48.3511 201.825 49 201.825V200.175ZM47 212.325H53V210.675H47V212.325Z" fill="#452F5D"/>
<path d="M47 230.675C46.5444 230.675 46.175 231.044 46.175 231.5C46.175 231.956 46.5444 232.325 47 232.325V230.675ZM53 232.325C53.4556 232.325 53.825 231.956 53.825 231.5C53.825 231.044 53.4556 230.675 53 230.675V232.325ZM56.175 225V237H57.825V225H56.175ZM55 238.175H45V239.825H55V238.175ZM43.825 237V225H42.175V237H43.825ZM45 223.825H47V222.175H45V223.825ZM53 223.825H55V222.175H53V223.825ZM45 238.175C44.3511 238.175 43.825 237.649 43.825 237H42.175C42.175 238.56 43.4398 239.825 45 239.825V238.175ZM56.175 237C56.175 237.649 55.6489 238.175 55 238.175V239.825C56.5602 239.825 57.825 238.56 57.825 237H56.175ZM57.825 225C57.825 223.44 56.5602 222.175 55 222.175V223.825C55.6489 223.825 56.175 224.351 56.175 225H57.825ZM43.825 225C43.825 224.351 44.3511 223.825 45 223.825V222.175C43.4398 222.175 42.175 223.44 42.175 225H43.825ZM49 221.825H51V220.175H49V221.825ZM51 224.175H49V225.825H51V224.175ZM49 224.175C48.3511 224.175 47.825 223.649 47.825 223H46.175C46.175 224.56 47.4398 225.825 49 225.825V224.175ZM52.175 223C52.175 223.649 51.6489 224.175 51 224.175V225.825C52.5602 225.825 53.825 224.56 53.825 223H52.175ZM51 221.825C51.6489 221.825 52.175 222.351 52.175 223H53.825C53.825 221.44 52.5602 220.175 51 220.175V221.825ZM49 220.175C47.4398 220.175 46.175 221.44 46.175 223H47.825C47.825 222.351 48.3511 221.825 49 221.825V220.175ZM47 232.325H53V230.675H47V232.325Z" fill="#333333"/>
<path d="M47 250.675C46.5444 250.675 46.175 251.044 46.175 251.5C46.175 251.956 46.5444 252.325 47 252.325V250.675ZM53 252.325C53.4556 252.325 53.825 251.956 53.825 251.5C53.825 251.044 53.4556 250.675 53 250.675V252.325ZM56.175 245V257H57.825V245H56.175ZM55 258.175H45V259.825H55V258.175ZM43.825 257V245H42.175V257H43.825ZM45 243.825H47V242.175H45V243.825ZM53 243.825H55V242.175H53V243.825ZM45 258.175C44.3511 258.175 43.825 257.649 43.825 257H42.175C42.175 258.56 43.4398 259.825 45 259.825V258.175ZM56.175 257C56.175 257.649 55.6489 258.175 55 258.175V259.825C56.5602 259.825 57.825 258.56 57.825 257H56.175ZM57.825 245C57.825 243.44 56.5602 242.175 55 242.175V243.825C55.6489 243.825 56.175 244.351 56.175 245H57.825ZM43.825 245C43.825 244.351 44.3511 243.825 45 243.825V242.175C43.4398 242.175 42.175 243.44 42.175 245H43.825ZM49 241.825H51V240.175H49V241.825ZM51 244.175H49V245.825H51V244.175ZM49 244.175C48.3511 244.175 47.825 243.649 47.825 243H46.175C46.175 244.56 47.4398 245.825 49 245.825V244.175ZM52.175 243C52.175 243.649 51.6489 244.175 51 244.175V245.825C52.5602 245.825 53.825 244.56 53.825 243H52.175ZM51 241.825C51.6489 241.825 52.175 242.351 52.175 243H53.825C53.825 241.44 52.5602 240.175 51 240.175V241.825ZM49 240.175C47.4398 240.175 46.175 241.44 46.175 243H47.825C47.825 242.351 48.3511 241.825 49 241.825V240.175ZM47 252.325H53V250.675H47V252.325Z" fill="white"/>
<path d="M47 270.675C46.5444 270.675 46.175 271.044 46.175 271.5C46.175 271.956 46.5444 272.325 47 272.325V270.675ZM53 272.325C53.4556 272.325 53.825 271.956 53.825 271.5C53.825 271.044 53.4556 270.675 53 270.675V272.325ZM56.175 265V277H57.825V265H56.175ZM55 278.175H45V279.825H55V278.175ZM43.825 277V265H42.175V277H43.825ZM45 263.825H47V262.175H45V263.825ZM53 263.825H55V262.175H53V263.825ZM45 278.175C44.3511 278.175 43.825 277.649 43.825 277H42.175C42.175 278.56 43.4398 279.825 45 279.825V278.175ZM56.175 277C56.175 277.649 55.6489 278.175 55 278.175V279.825C56.5602 279.825 57.825 278.56 57.825 277H56.175ZM57.825 265C57.825 263.44 56.5602 262.175 55 262.175V263.825C55.6489 263.825 56.175 264.351 56.175 265H57.825ZM43.825 265C43.825 264.351 44.3511 263.825 45 263.825V262.175C43.4398 262.175 42.175 263.44 42.175 265H43.825ZM49 261.825H51V260.175H49V261.825ZM51 264.175H49V265.825H51V264.175ZM49 264.175C48.3511 264.175 47.825 263.649 47.825 263H46.175C46.175 264.56 47.4398 265.825 49 265.825V264.175ZM52.175 263C52.175 263.649 51.6489 264.175 51 264.175V265.825C52.5602 265.825 53.825 264.56 53.825 263H52.175ZM51 261.825C51.6489 261.825 52.175 262.351 52.175 263H53.825C53.825 261.44 52.5602 260.175 51 260.175V261.825ZM49 260.175C47.4398 260.175 46.175 261.44 46.175 263H47.825C47.825 262.351 48.3511 261.825 49 261.825V260.175ZM47 272.325H53V270.675H47V272.325Z" fill="#DB4482"/>
<path d="M47 290.675C46.5444 290.675 46.175 291.044 46.175 291.5C46.175 291.956 46.5444 292.325 47 292.325V290.675ZM53 292.325C53.4556 292.325 53.825 291.956 53.825 291.5C53.825 291.044 53.4556 290.675 53 290.675V292.325ZM56.175 285V297H57.825V285H56.175ZM55 298.175H45V299.825H55V298.175ZM43.825 297V285H42.175V297H43.825ZM45 283.825H47V282.175H45V283.825ZM53 283.825H55V282.175H53V283.825ZM45 298.175C44.3511 298.175 43.825 297.649 43.825 297H42.175C42.175 298.56 43.4398 299.825 45 299.825V298.175ZM56.175 297C56.175 297.649 55.6489 298.175 55 298.175V299.825C56.5602 299.825 57.825 298.56 57.825 297H56.175ZM57.825 285C57.825 283.44 56.5602 282.175 55 282.175V283.825C55.6489 283.825 56.175 284.351 56.175 285H57.825ZM43.825 285C43.825 284.351 44.3511 283.825 45 283.825V282.175C43.4398 282.175 42.175 283.44 42.175 285H43.825ZM49 281.825H51V280.175H49V281.825ZM51 284.175H49V285.825H51V284.175ZM49 284.175C48.3511 284.175 47.825 283.649 47.825 283H46.175C46.175 284.56 47.4398 285.825 49 285.825V284.175ZM52.175 283C52.175 283.649 51.6489 284.175 51 284.175V285.825C52.5602 285.825 53.825 284.56 53.825 283H52.175ZM51 281.825C51.6489 281.825 52.175 282.351 52.175 283H53.825C53.825 281.44 52.5602 280.175 51 280.175V281.825ZM49 280.175C47.4398 280.175 46.175 281.44 46.175 283H47.825C47.825 282.351 48.3511 281.825 49 281.825V280.175ZM47 292.325H53V290.675H47V292.325Z" fill="#989AA1"/>
<path d="M47 310.675C46.5444 310.675 46.175 311.044 46.175 311.5C46.175 311.956 46.5444 312.325 47 312.325V310.675ZM53 312.325C53.4556 312.325 53.825 311.956 53.825 311.5C53.825 311.044 53.4556 310.675 53 310.675V312.325ZM56.175 305V317H57.825V305H56.175ZM55 318.175H45V319.825H55V318.175ZM43.825 317V305H42.175V317H43.825ZM45 303.825H47V302.175H45V303.825ZM53 303.825H55V302.175H53V303.825ZM45 318.175C44.3511 318.175 43.825 317.649 43.825 317H42.175C42.175 318.56 43.4398 319.825 45 319.825V318.175ZM56.175 317C56.175 317.649 55.6489 318.175 55 318.175V319.825C56.5602 319.825 57.825 318.56 57.825 317H56.175ZM57.825 305C57.825 303.44 56.5602 302.175 55 302.175V303.825C55.6489 303.825 56.175 304.351 56.175 305H57.825ZM43.825 305C43.825 304.351 44.3511 303.825 45 303.825V302.175C43.4398 302.175 42.175 303.44 42.175 305H43.825ZM49 301.825H51V300.175H49V301.825ZM51 304.175H49V305.825H51V304.175ZM49 304.175C48.3511 304.175 47.825 303.649 47.825 303H46.175C46.175 304.56 47.4398 305.825 49 305.825V304.175ZM52.175 303C52.175 303.649 51.6489 304.175 51 304.175V305.825C52.5602 305.825 53.825 304.56 53.825 303H52.175ZM51 301.825C51.6489 301.825 52.175 302.351 52.175 303H53.825C53.825 301.44 52.5602 300.175 51 300.175V301.825ZM49 300.175C47.4398 300.175 46.175 301.44 46.175 303H47.825C47.825 302.351 48.3511 301.825 49 301.825V300.175ZM47 312.325H53V310.675H47V312.325Z" fill="#333333"/>
<path d="M47 330.675C46.5444 330.675 46.175 331.044 46.175 331.5C46.175 331.956 46.5444 332.325 47 332.325V330.675ZM53 332.325C53.4556 332.325 53.825 331.956 53.825 331.5C53.825 331.044 53.4556 330.675 53 330.675V332.325ZM56.175 325V337H57.825V325H56.175ZM55 338.175H45V339.825H55V338.175ZM43.825 337V325H42.175V337H43.825ZM45 323.825H47V322.175H45V323.825ZM53 323.825H55V322.175H53V323.825ZM45 338.175C44.3511 338.175 43.825 337.649 43.825 337H42.175C42.175 338.56 43.4398 339.825 45 339.825V338.175ZM56.175 337C56.175 337.649 55.6489 338.175 55 338.175V339.825C56.5602 339.825 57.825 338.56 57.825 337H56.175ZM57.825 325C57.825 323.44 56.5602 322.175 55 322.175V323.825C55.6489 323.825 56.175 324.351 56.175 325H57.825ZM43.825 325C43.825 324.351 44.3511 323.825 45 323.825V322.175C43.4398 322.175 42.175 323.44 42.175 325H43.825ZM49 321.825H51V320.175H49V321.825ZM51 324.175H49V325.825H51V324.175ZM49 324.175C48.3511 324.175 47.825 323.649 47.825 323H46.175C46.175 324.56 47.4398 325.825 49 325.825V324.175ZM52.175 323C52.175 323.649 51.6489 324.175 51 324.175V325.825C52.5602 325.825 53.825 324.56 53.825 323H52.175ZM51 321.825C51.6489 321.825 52.175 322.351 52.175 323H53.825C53.825 321.44 52.5602 320.175 51 320.175V321.825ZM49 320.175C47.4398 320.175 46.175 321.44 46.175 323H47.825C47.825 322.351 48.3511 321.825 49 321.825V320.175ZM47 332.325H53V330.675H47V332.325Z" fill="#EF1B1B"/>
<path d="M106.667 205.833V202.5M113.333 205.833V202.5M105.833 209.167H114.167M104.167 217.5H115.833C116.754 217.5 117.5 216.754 117.5 215.833V205.833C117.5 204.913 116.754 204.167 115.833 204.167H104.167C103.246 204.167 102.5 204.913 102.5 205.833V215.833C102.5 216.754 103.246 217.5 104.167 217.5Z" stroke="#452F5D" stroke-width="1.5" stroke-linecap="round" stroke-linejoin="round"/>
<path d="M106.667 225.833V222.5M113.333 225.833V222.5M105.833 229.167H114.167M104.167 237.5H115.833C116.754 237.5 117.5 236.754 117.5 235.833V225.833C117.5 224.913 116.754 224.167 115.833 224.167H104.167C103.246 224.167 102.5 224.913 102.5 225.833V235.833C102.5 236.754 103.246 237.5 104.167 237.5Z" stroke="#333333" stroke-width="1.5" stroke-linecap="round" stroke-linejoin="round"/>
<path d="M106.667 245.833V242.5M113.333 245.833V242.5M105.833 249.167H114.167M104.167 257.5H115.833C116.754 257.5 117.5 256.754 117.5 255.833V245.833C117.5 244.913 116.754 244.167 115.833 244.167H104.167C103.246 244.167 102.5 244.913 102.5 245.833V255.833C102.5 256.754 103.246 257.5 104.167 257.5Z" stroke="white" stroke-width="1.5" stroke-linecap="round" stroke-linejoin="round"/>
<path d="M106.667 265.833V262.5M113.333 265.833V262.5M105.833 269.167H114.167M104.167 277.5H115.833C116.754 277.5 117.5 276.754 117.5 275.833V265.833C117.5 264.913 116.754 264.167 115.833 264.167H104.167C103.246 264.167 102.5 264.913 102.5 265.833V275.833C102.5 276.754 103.246 277.5 104.167 277.5Z" stroke="#DB4482" stroke-width="1.5" stroke-linecap="round" stroke-linejoin="round"/>
<path d="M106.667 285.833V282.5M113.333 285.833V282.5M105.833 289.167H114.167M104.167 297.5H115.833C116.754 297.5 117.5 296.754 117.5 295.833V285.833C117.5 284.913 116.754 284.167 115.833 284.167H104.167C103.246 284.167 102.5 284.913 102.5 285.833V295.833C102.5 296.754 103.246 297.5 104.167 297.5Z" stroke="#989AA1" stroke-width="1.5" stroke-linecap="round" stroke-linejoin="round"/>
<path d="M106.667 305.833V302.5M113.333 305.833V302.5M105.833 309.167H114.167M104.167 317.5H115.833C116.754 317.5 117.5 316.754 117.5 315.833V305.833C117.5 304.913 116.754 304.167 115.833 304.167H104.167C103.246 304.167 102.5 304.913 102.5 305.833V315.833C102.5 316.754 103.246 317.5 104.167 317.5Z" stroke="#333333" stroke-width="1.5" stroke-linecap="round" stroke-linejoin="round"/>
<path d="M106.667 325.833V322.5M113.333 325.833V322.5M105.833 329.167H114.167M104.167 337.5H115.833C116.754 337.5 117.5 336.754 117.5 335.833V325.833C117.5 324.913 116.754 324.167 115.833 324.167H104.167C103.246 324.167 102.5 324.913 102.5 325.833V335.833C102.5 336.754 103.246 337.5 104.167 337.5Z" stroke="#EF1B1B" stroke-width="1.5" stroke-linecap="round" stroke-linejoin="round"/>
<rect x="403.5" y="3.5" width="13" height="13" rx="6.5" stroke="#34234D" stroke-width="2"/>
<rect x="406.25" y="6.25" width="7.5" height="7.5" rx="3.75" fill="#34234D"/>
<rect x="423.5" y="3.5" width="13" height="13" rx="6.5" fill="white" stroke="#999999" stroke-width="2"/>
<rect x="442.5" y="2.5" width="15" height="15" rx="2" fill="#452F5D"/>
<path d="M453.5 7.375L448.687 12.1875L446.5 10" stroke="white" stroke-width="1.5" stroke-linecap="round" stroke-linejoin="round"/>
<rect x="463.5" y="3.5" width="13" height="13" rx="1" fill="white" stroke="#999999" stroke-width="2"/>
<path d="M104.167 12.4998L110 6.66648L115.833 12.4998" stroke="#999999" stroke-width="2" stroke-linecap="round" stroke-linejoin="round"/>
<g clip-path="url(#clip3_445_4213)">
<path d="M129 215L124 210L129 205" stroke="#452F5D" stroke-width="1.58333" stroke-linecap="round" stroke-linejoin="round"/>
<path d="M136 215L131 210L136 205" stroke="#452F5D" stroke-width="1.58333" stroke-linecap="round" stroke-linejoin="round"/>
</g>
<g clip-path="url(#clip4_445_4213)">
<path d="M129 235L124 230L129 225" stroke="#333333" stroke-width="1.58333" stroke-linecap="round" stroke-linejoin="round"/>
<path d="M136 235L131 230L136 225" stroke="#333333" stroke-width="1.58333" stroke-linecap="round" stroke-linejoin="round"/>
</g>
<g clip-path="url(#clip5_445_4213)">
<path d="M129 255L124 250L129 245" stroke="white" stroke-width="1.58333" stroke-linecap="round" stroke-linejoin="round"/>
<path d="M136 255L131 250L136 245" stroke="white" stroke-width="1.58333" stroke-linecap="round" stroke-linejoin="round"/>
</g>
<g clip-path="url(#clip6_445_4213)">
<path d="M129 275L124 270L129 265" stroke="#DB4482" stroke-width="1.58333" stroke-linecap="round" stroke-linejoin="round"/>
<path d="M136 275L131 270L136 265" stroke="#DB4482" stroke-width="1.58333" stroke-linecap="round" stroke-linejoin="round"/>
</g>
<g clip-path="url(#clip7_445_4213)">
<path d="M129 295L124 290L129 285" stroke="#989AA1" stroke-width="1.58333" stroke-linecap="round" stroke-linejoin="round"/>
<path d="M136 295L131 290L136 285" stroke="#989AA1" stroke-width="1.58333" stroke-linecap="round" stroke-linejoin="round"/>
</g>
<g clip-path="url(#clip8_445_4213)">
<path d="M129 315L124 310L129 305" stroke="#333333" stroke-width="1.58333" stroke-linecap="round" stroke-linejoin="round"/>
<path d="M136 315L131 310L136 305" stroke="#333333" stroke-width="1.58333" stroke-linecap="round" stroke-linejoin="round"/>
</g>
<g clip-path="url(#clip9_445_4213)">
<path d="M129 335L124 330L129 325" stroke="#EF1B1B" stroke-width="1.58333" stroke-linecap="round" stroke-linejoin="round"/>
<path d="M136 335L131 330L136 325" stroke="#EF1B1B" stroke-width="1.58333" stroke-linecap="round" stroke-linejoin="round"/>
</g>
<g clip-path="url(#clip10_445_4213)">
<path d="M191 205L196 210L191 215" stroke="#452F5D" stroke-width="1.58333" stroke-linecap="round" stroke-linejoin="round"/>
<path d="M184 205L189 210L184 215" stroke="#452F5D" stroke-width="1.58333" stroke-linecap="round" stroke-linejoin="round"/>
</g>
<g clip-path="url(#clip11_445_4213)">
<path d="M191 225L196 230L191 235" stroke="#333333" stroke-width="1.58333" stroke-linecap="round" stroke-linejoin="round"/>
<path d="M184 225L189 230L184 235" stroke="#333333" stroke-width="1.58333" stroke-linecap="round" stroke-linejoin="round"/>
</g>
<g clip-path="url(#clip12_445_4213)">
<path d="M191 245L196 250L191 255" stroke="white" stroke-width="1.58333" stroke-linecap="round" stroke-linejoin="round"/>
<path d="M184 245L189 250L184 255" stroke="white" stroke-width="1.58333" stroke-linecap="round" stroke-linejoin="round"/>
</g>
<g clip-path="url(#clip13_445_4213)">
<path d="M191 265L196 270L191 275" stroke="#DB4482" stroke-width="1.58333" stroke-linecap="round" stroke-linejoin="round"/>
<path d="M184 265L189 270L184 275" stroke="#DB4482" stroke-width="1.58333" stroke-linecap="round" stroke-linejoin="round"/>
</g>
<g clip-path="url(#clip14_445_4213)">
<path d="M191 285L196 290L191 295" stroke="#989AA1" stroke-width="1.58333" stroke-linecap="round" stroke-linejoin="round"/>
<path d="M184 285L189 290L184 295" stroke="#989AA1" stroke-width="1.58333" stroke-linecap="round" stroke-linejoin="round"/>
</g>
<g clip-path="url(#clip15_445_4213)">
<path d="M191 305L196 310L191 315" stroke="#333333" stroke-width="1.58333" stroke-linecap="round" stroke-linejoin="round"/>
<path d="M184 305L189 310L184 315" stroke="#333333" stroke-width="1.58333" stroke-linecap="round" stroke-linejoin="round"/>
</g>
<g clip-path="url(#clip16_445_4213)">
<path d="M191 325L196 330L191 335" stroke="#EF1B1B" stroke-width="1.58333" stroke-linecap="round" stroke-linejoin="round"/>
<path d="M184 325L189 330L184 335" stroke="#EF1B1B" stroke-width="1.58333" stroke-linecap="round" stroke-linejoin="round"/>
</g>
<g clip-path="url(#clip17_445_4213)">
<path d="M152.5 215L147.5 210L152.5 205" stroke="#452F5D" stroke-width="1.58333" stroke-linecap="round" stroke-linejoin="round"/>
</g>
<g clip-path="url(#clip18_445_4213)">
<path d="M152.5 235L147.5 230L152.5 225" stroke="#333333" stroke-width="1.58333" stroke-linecap="round" stroke-linejoin="round"/>
</g>
<g clip-path="url(#clip19_445_4213)">
<path d="M152.5 255L147.5 250L152.5 245" stroke="white" stroke-width="1.58333" stroke-linecap="round" stroke-linejoin="round"/>
</g>
<g clip-path="url(#clip20_445_4213)">
<path d="M152.5 275L147.5 270L152.5 265" stroke="#DB4482" stroke-width="1.58333" stroke-linecap="round" stroke-linejoin="round"/>
</g>
<g clip-path="url(#clip21_445_4213)">
<path d="M152.5 295L147.5 290L152.5 285" stroke="#989AA1" stroke-width="1.58333" stroke-linecap="round" stroke-linejoin="round"/>
</g>
<g clip-path="url(#clip22_445_4213)">
<path d="M152.5 315L147.5 310L152.5 305" stroke="#333333" stroke-width="1.58333" stroke-linecap="round" stroke-linejoin="round"/>
</g>
<g clip-path="url(#clip23_445_4213)">
<path d="M152.5 335L147.5 330L152.5 325" stroke="#EF1B1B" stroke-width="1.58333" stroke-linecap="round" stroke-linejoin="round"/>
</g>
<g clip-path="url(#clip24_445_4213)">
<path d="M167.5 205L172.5 210L167.5 215" stroke="#452F5D" stroke-width="1.58333" stroke-linecap="round" stroke-linejoin="round"/>
</g>
<g clip-path="url(#clip25_445_4213)">
<path d="M167.5 225L172.5 230L167.5 235" stroke="#333333" stroke-width="1.58333" stroke-linecap="round" stroke-linejoin="round"/>
</g>
<g clip-path="url(#clip26_445_4213)">
<path d="M167.5 245L172.5 250L167.5 255" stroke="white" stroke-width="1.58333" stroke-linecap="round" stroke-linejoin="round"/>
</g>
<g clip-path="url(#clip27_445_4213)">
<path d="M167.5 265L172.5 270L167.5 275" stroke="#DB4482" stroke-width="1.58333" stroke-linecap="round" stroke-linejoin="round"/>
</g>
<g clip-path="url(#clip28_445_4213)">
<path d="M167.5 285L172.5 290L167.5 295" stroke="#989AA1" stroke-width="1.58333" stroke-linecap="round" stroke-linejoin="round"/>
</g>
<g clip-path="url(#clip29_445_4213)">
<path d="M167.5 305L172.5 310L167.5 315" stroke="#333333" stroke-width="1.58333" stroke-linecap="round" stroke-linejoin="round"/>
</g>
<g clip-path="url(#clip30_445_4213)">
<path d="M167.5 325L172.5 330L167.5 335" stroke="#EF1B1B" stroke-width="1.58333" stroke-linecap="round" stroke-linejoin="round"/>
</g>
<g clip-path="url(#clip31_445_4213)">
<path d="M208.333 254.167C211.555 254.167 214.167 251.555 214.167 248.333C214.167 245.112 211.555 242.5 208.333 242.5C205.112 242.5 202.5 245.112 202.5 248.333C202.5 251.555 205.112 254.167 208.333 254.167Z" stroke="white" stroke-width="2" stroke-linecap="round" stroke-linejoin="round"/>
<path d="M217.5 257.5L212.5 252.5" stroke="white" stroke-width="2" stroke-linecap="round" stroke-linejoin="round"/>
</g>
<g clip-path="url(#clip32_445_4213)">
<path d="M208.333 234.167C211.555 234.167 214.167 231.555 214.167 228.333C214.167 225.112 211.555 222.5 208.333 222.5C205.112 222.5 202.5 225.112 202.5 228.333C202.5 231.555 205.112 234.167 208.333 234.167Z" stroke="#333333" stroke-width="2" stroke-linecap="round" stroke-linejoin="round"/>
<path d="M217.5 237.5L212.5 232.5" stroke="#333333" stroke-width="2" stroke-linecap="round" stroke-linejoin="round"/>
</g>
<g clip-path="url(#clip33_445_4213)">
<path d="M208.333 214.167C211.555 214.167 214.167 211.555 214.167 208.333C214.167 205.112 211.555 202.5 208.333 202.5C205.112 202.5 202.5 205.112 202.5 208.333C202.5 211.555 205.112 214.167 208.333 214.167Z" stroke="#452F5D" stroke-width="2" stroke-linecap="round" stroke-linejoin="round"/>
<path d="M217.5 217.5L212.5 212.5" stroke="#452F5D" stroke-width="2" stroke-linecap="round" stroke-linejoin="round"/>
</g>
<g clip-path="url(#clip34_445_4213)">
<path d="M208.333 274.167C211.555 274.167 214.167 271.555 214.167 268.333C214.167 265.112 211.555 262.5 208.333 262.5C205.112 262.5 202.5 265.112 202.5 268.333C202.5 271.555 205.112 274.167 208.333 274.167Z" stroke="#DB4482" stroke-width="2" stroke-linecap="round" stroke-linejoin="round"/>
<path d="M217.5 277.5L212.5 272.5" stroke="#DB4482" stroke-width="2" stroke-linecap="round" stroke-linejoin="round"/>
</g>
<g clip-path="url(#clip35_445_4213)">
<path d="M208.333 294.167C211.555 294.167 214.167 291.555 214.167 288.333C214.167 285.112 211.555 282.5 208.333 282.5C205.112 282.5 202.5 285.112 202.5 288.333C202.5 291.555 205.112 294.167 208.333 294.167Z" stroke="#989AA1" stroke-width="2" stroke-linecap="round" stroke-linejoin="round"/>
<path d="M217.5 297.5L212.5 292.5" stroke="#989AA1" stroke-width="2" stroke-linecap="round" stroke-linejoin="round"/>
</g>
<g clip-path="url(#clip36_445_4213)">
<path d="M208.333 314.167C211.555 314.167 214.167 311.555 214.167 308.333C214.167 305.112 211.555 302.5 208.333 302.5C205.112 302.5 202.5 305.112 202.5 308.333C202.5 311.555 205.112 314.167 208.333 314.167Z" stroke="#333333" stroke-width="2" stroke-linecap="round" stroke-linejoin="round"/>
<path d="M217.5 317.5L212.5 312.5" stroke="#333333" stroke-width="2" stroke-linecap="round" stroke-linejoin="round"/>
</g>
<g clip-path="url(#clip37_445_4213)">
<path d="M208.333 334.167C211.555 334.167 214.167 331.555 214.167 328.333C214.167 325.112 211.555 322.5 208.333 322.5C205.112 322.5 202.5 325.112 202.5 328.333C202.5 331.555 205.112 334.167 208.333 334.167Z" stroke="#EF1B1B" stroke-width="2" stroke-linecap="round" stroke-linejoin="round"/>
<path d="M217.5 337.5L212.5 332.5" stroke="#EF1B1B" stroke-width="2" stroke-linecap="round" stroke-linejoin="round"/>
</g>
<path d="M131.448 6.66667L127.057 11.0572C126.536 11.5779 126.536 12.4221 127.057 12.9428C127.578 13.4635 128.422 13.4635 128.943 12.9428L133.219 8.55228C134.26 7.51089 134.26 5.82245 133.219 4.78105C132.178 3.73965 130.489 3.73965 129.448 4.78105L125.172 9.17157C123.609 10.7337 123.609 13.2663 125.172 14.8284C126.734 16.3905 129.266 16.3905 130.828 14.8284L135 10.6667" stroke="#666666" stroke-width="1.33333" stroke-linecap="round" stroke-linejoin="round"/>
<path fill-rule="evenodd" clip-rule="evenodd" d="M145.293 19.2071C144.902 18.8166 144.902 18.1834 145.293 17.7929L153.336 9.75L145.293 1.70711C144.902 1.31658 144.902 0.683418 145.293 0.292892C145.683 -0.0976315 146.317 -0.0976315 146.707 0.292892L155.457 9.04289C155.848 9.43342 155.848 10.0666 155.457 10.4571L146.707 19.2071C146.317 19.5976 145.683 19.5976 145.293 19.2071Z" fill="#989AA1"/>
<path fill-rule="evenodd" clip-rule="evenodd" d="M229.825 204C230.281 204 230.65 204.369 230.65 204.825V209H234.825C235.281 209 235.65 209.369 235.65 209.825C235.65 210.281 235.281 210.65 234.825 210.65H230.65V214.825C230.65 215.281 230.281 215.65 229.825 215.65C229.369 215.65 229 215.281 229 214.825V210.65H224.825C224.369 210.65 224 210.281 224 209.825C224 209.369 224.369 209 224.825 209H229V204.825C229 204.369 229.369 204 229.825 204Z" fill="#452F5D"/>
<path fill-rule="evenodd" clip-rule="evenodd" d="M229.825 224C230.281 224 230.65 224.369 230.65 224.825V229H234.825C235.281 229 235.65 229.369 235.65 229.825C235.65 230.281 235.281 230.65 234.825 230.65H230.65V234.825C230.65 235.281 230.281 235.65 229.825 235.65C229.369 235.65 229 235.281 229 234.825V230.65H224.825C224.369 230.65 224 230.281 224 229.825C224 229.369 224.369 229 224.825 229H229V224.825C229 224.369 229.369 224 229.825 224Z" fill="#333333"/>
<path fill-rule="evenodd" clip-rule="evenodd" d="M229.825 244C230.281 244 230.65 244.369 230.65 244.825V249H234.825C235.281 249 235.65 249.369 235.65 249.825C235.65 250.281 235.281 250.65 234.825 250.65H230.65V254.825C230.65 255.281 230.281 255.65 229.825 255.65C229.369 255.65 229 255.281 229 254.825V250.65H224.825C224.369 250.65 224 250.281 224 249.825C224 249.369 224.369 249 224.825 249H229V244.825C229 244.369 229.369 244 229.825 244Z" fill="white"/>
<path fill-rule="evenodd" clip-rule="evenodd" d="M229.825 264C230.281 264 230.65 264.369 230.65 264.825V269H234.825C235.281 269 235.65 269.369 235.65 269.825C235.65 270.281 235.281 270.65 234.825 270.65H230.65V274.825C230.65 275.281 230.281 275.65 229.825 275.65C229.369 275.65 229 275.281 229 274.825V270.65H224.825C224.369 270.65 224 270.281 224 269.825C224 269.369 224.369 269 224.825 269H229V264.825C229 264.369 229.369 264 229.825 264Z" fill="#DB4482"/>
<path fill-rule="evenodd" clip-rule="evenodd" d="M229.825 284C230.281 284 230.65 284.369 230.65 284.825V289H234.825C235.281 289 235.65 289.369 235.65 289.825C235.65 290.281 235.281 290.65 234.825 290.65H230.65V294.825C230.65 295.281 230.281 295.65 229.825 295.65C229.369 295.65 229 295.281 229 294.825V290.65H224.825C224.369 290.65 224 290.281 224 289.825C224 289.369 224.369 289 224.825 289H229V284.825C229 284.369 229.369 284 229.825 284Z" fill="#989AA1"/>
<path fill-rule="evenodd" clip-rule="evenodd" d="M229.825 304C230.281 304 230.65 304.369 230.65 304.825V309H234.825C235.281 309 235.65 309.369 235.65 309.825C235.65 310.281 235.281 310.65 234.825 310.65H230.65V314.825C230.65 315.281 230.281 315.65 229.825 315.65C229.369 315.65 229 315.281 229 314.825V310.65H224.825C224.369 310.65 224 310.281 224 309.825C224 309.369 224.369 309 224.825 309H229V304.825C229 304.369 229.369 304 229.825 304Z" fill="#333333"/>
<path fill-rule="evenodd" clip-rule="evenodd" d="M229.825 324C230.281 324 230.65 324.369 230.65 324.825V329H234.825C235.281 329 235.65 329.369 235.65 329.825C235.65 330.281 235.281 330.65 234.825 330.65H230.65V334.825C230.65 335.281 230.281 335.65 229.825 335.65C229.369 335.65 229 335.281 229 334.825V330.65H224.825C224.369 330.65 224 330.281 224 329.825C224 329.369 224.369 329 224.825 329H229V324.825C229 324.369 229.369 324 229.825 324Z" fill="#EF1B1B"/>
<path fill-rule="evenodd" clip-rule="evenodd" d="M244 209.825C244 209.369 244.369 209 244.825 209L254.825 209C255.281 209 255.65 209.369 255.65 209.825C255.65 210.281 255.281 210.65 254.825 210.65L244.825 210.65C244.369 210.65 244 210.281 244 209.825Z" fill="#452F5D"/>
<path fill-rule="evenodd" clip-rule="evenodd" d="M244 229.825C244 229.369 244.369 229 244.825 229L254.825 229C255.281 229 255.65 229.369 255.65 229.825C255.65 230.281 255.281 230.65 254.825 230.65L244.825 230.65C244.369 230.65 244 230.281 244 229.825Z" fill="#333333"/>
<path fill-rule="evenodd" clip-rule="evenodd" d="M244 249.825C244 249.369 244.369 249 244.825 249L254.825 249C255.281 249 255.65 249.369 255.65 249.825C255.65 250.281 255.281 250.65 254.825 250.65L244.825 250.65C244.369 250.65 244 250.281 244 249.825Z" fill="white"/>
<path fill-rule="evenodd" clip-rule="evenodd" d="M244 269.825C244 269.369 244.369 269 244.825 269L254.825 269C255.281 269 255.65 269.369 255.65 269.825C255.65 270.281 255.281 270.65 254.825 270.65L244.825 270.65C244.369 270.65 244 270.281 244 269.825Z" fill="#DB4482"/>
<path fill-rule="evenodd" clip-rule="evenodd" d="M244 289.825C244 289.369 244.369 289 244.825 289L254.825 289C255.281 289 255.65 289.369 255.65 289.825C255.65 290.281 255.281 290.65 254.825 290.65L244.825 290.65C244.369 290.65 244 290.281 244 289.825Z" fill="#989AA1"/>
<path fill-rule="evenodd" clip-rule="evenodd" d="M244 309.825C244 309.369 244.369 309 244.825 309L254.825 309C255.281 309 255.65 309.369 255.65 309.825C255.65 310.281 255.281 310.65 254.825 310.65L244.825 310.65C244.369 310.65 244 310.281 244 309.825Z" fill="#333333"/>
<path fill-rule="evenodd" clip-rule="evenodd" d="M244 329.825C244 329.369 244.369 329 244.825 329L254.825 329C255.281 329 255.65 329.369 255.65 329.825C255.65 330.281 255.281 330.65 254.825 330.65L244.825 330.65C244.369 330.65 244 330.281 244 329.825Z" fill="#EF1B1B"/>
<path fill-rule="evenodd" clip-rule="evenodd" d="M166.333 6.15833C166.333 3.86175 168.195 2 170.492 2C172.788 2 174.65 3.86175 174.65 6.15833V8.66667H175.492C176.868 8.66667 177.983 9.78222 177.983 11.1583V16.1583C177.983 17.5344 176.868 18.65 175.492 18.65H165.492C164.116 18.65 163 17.5344 163 16.1583V11.1583C163 9.78222 164.116 8.66667 165.492 8.66667H166.333V6.15833ZM167.983 8.66667H173V6.15833C173 4.77302 171.877 3.65 170.492 3.65C169.106 3.65 167.983 4.77302 167.983 6.15833V8.66667ZM165.492 10.3167C165.027 10.3167 164.65 10.6935 164.65 11.1583V16.1583C164.65 16.6232 165.027 17 165.492 17H175.492C175.957 17 176.333 16.6232 176.333 16.1583V11.1583C176.333 10.6935 175.957 10.3167 175.492 10.3167H165.492ZM170.492 12C170.947 12 171.317 12.3694 171.317 12.825V14.4917C171.317 14.9473 170.947 15.3167 170.492 15.3167C170.036 15.3167 169.667 14.9473 169.667 14.4917V12.825C169.667 12.3694 170.036 12 170.492 12Z" fill="black"/>
<path fill-rule="evenodd" clip-rule="evenodd" d="M192.293 16.7071C191.902 16.3166 191.902 15.6834 192.293 15.2929L194.586 13L189 13C185.134 13 182 9.86599 182 6L182 4C182 3.44771 182.448 3 183 3C183.552 3 184 3.44771 184 4L184 6C184 8.76142 186.239 11 189 11L194.586 11L192.293 8.70711C191.902 8.31658 191.902 7.68342 192.293 7.29289C192.683 6.90237 193.317 6.90237 193.707 7.29289L197.707 11.2929C198.098 11.6834 198.098 12.3166 197.707 12.7071L193.707 16.7071C193.317 17.0976 192.683 17.0976 192.293 16.7071Z" fill="#111827"/>
<path d="M204.167 6.66683H215.833M204.167 6.66683C203.246 6.66683 202.5 5.92064 202.5 5.00016C202.5 4.07969 203.246 3.3335 204.167 3.3335H215.833C216.754 3.3335 217.5 4.07969 217.5 5.00016C217.5 5.92064 216.754 6.66683 215.833 6.66683M204.167 6.66683L204.167 15.0002C204.167 15.9206 204.913 16.6668 205.833 16.6668H214.167C215.087 16.6668 215.833 15.9206 215.833 15.0002V6.66683M208.333 10.0002H211.667" stroke="#111827" stroke-width="1.65" stroke-linecap="round" stroke-linejoin="round"/>
<defs>
<clipPath id="clip0_445_4213">
<rect width="20" height="20" fill="white" transform="translate(40)"/>
</clipPath>
<clipPath id="clip1_445_4213">
<rect width="20" height="20" fill="white" transform="translate(40 20)"/>
</clipPath>
<clipPath id="clip2_445_4213">
<rect width="12" height="12" fill="white" transform="matrix(-4.37114e-08 -1 -1 4.37114e-08 96 16)"/>
</clipPath>
<clipPath id="clip3_445_4213">
<rect width="20" height="20" fill="white" transform="translate(120 220) rotate(-90)"/>
</clipPath>
<clipPath id="clip4_445_4213">
<rect width="20" height="20" fill="white" transform="translate(120 240) rotate(-90)"/>
</clipPath>
<clipPath id="clip5_445_4213">
<rect width="20" height="20" fill="white" transform="translate(120 260) rotate(-90)"/>
</clipPath>
<clipPath id="clip6_445_4213">
<rect width="20" height="20" fill="white" transform="translate(120 280) rotate(-90)"/>
</clipPath>
<clipPath id="clip7_445_4213">
<rect width="20" height="20" fill="white" transform="translate(120 300) rotate(-90)"/>
</clipPath>
<clipPath id="clip8_445_4213">
<rect width="20" height="20" fill="white" transform="translate(120 320) rotate(-90)"/>
</clipPath>
<clipPath id="clip9_445_4213">
<rect width="20" height="20" fill="white" transform="translate(120 340) rotate(-90)"/>
</clipPath>
<clipPath id="clip10_445_4213">
<rect width="20" height="20" fill="white" transform="translate(200 200) rotate(90)"/>
</clipPath>
<clipPath id="clip11_445_4213">
<rect width="20" height="20" fill="white" transform="translate(200 220) rotate(90)"/>
</clipPath>
<clipPath id="clip12_445_4213">
<rect width="20" height="20" fill="white" transform="translate(200 240) rotate(90)"/>
</clipPath>
<clipPath id="clip13_445_4213">
<rect width="20" height="20" fill="white" transform="translate(200 260) rotate(90)"/>
</clipPath>
<clipPath id="clip14_445_4213">
<rect width="20" height="20" fill="white" transform="translate(200 280) rotate(90)"/>
</clipPath>
<clipPath id="clip15_445_4213">
<rect width="20" height="20" fill="white" transform="translate(200 300) rotate(90)"/>
</clipPath>
<clipPath id="clip16_445_4213">
<rect width="20" height="20" fill="white" transform="translate(200 320) rotate(90)"/>
</clipPath>
<clipPath id="clip17_445_4213">
<rect width="20" height="20" fill="white" transform="translate(140 220) rotate(-90)"/>
</clipPath>
<clipPath id="clip18_445_4213">
<rect width="20" height="20" fill="white" transform="translate(140 240) rotate(-90)"/>
</clipPath>
<clipPath id="clip19_445_4213">
<rect width="20" height="20" fill="white" transform="translate(140 260) rotate(-90)"/>
</clipPath>
<clipPath id="clip20_445_4213">
<rect width="20" height="20" fill="white" transform="translate(140 280) rotate(-90)"/>
</clipPath>
<clipPath id="clip21_445_4213">
<rect width="20" height="20" fill="white" transform="translate(140 300) rotate(-90)"/>
</clipPath>
<clipPath id="clip22_445_4213">
<rect width="20" height="20" fill="white" transform="translate(140 320) rotate(-90)"/>
</clipPath>
<clipPath id="clip23_445_4213">
<rect width="20" height="20" fill="white" transform="translate(140 340) rotate(-90)"/>
</clipPath>
<clipPath id="clip24_445_4213">
<rect width="20" height="20" fill="white" transform="translate(180 200) rotate(90)"/>
</clipPath>
<clipPath id="clip25_445_4213">
<rect width="20" height="20" fill="white" transform="translate(180 220) rotate(90)"/>
</clipPath>
<clipPath id="clip26_445_4213">
<rect width="20" height="20" fill="white" transform="translate(180 240) rotate(90)"/>
</clipPath>
<clipPath id="clip27_445_4213">
<rect width="20" height="20" fill="white" transform="translate(180 260) rotate(90)"/>
</clipPath>
<clipPath id="clip28_445_4213">
<rect width="20" height="20" fill="white" transform="translate(180 280) rotate(90)"/>
</clipPath>
<clipPath id="clip29_445_4213">
<rect width="20" height="20" fill="white" transform="translate(180 300) rotate(90)"/>
</clipPath>
<clipPath id="clip30_445_4213">
<rect width="20" height="20" fill="white" transform="translate(180 320) rotate(90)"/>
</clipPath>
<clipPath id="clip31_445_4213">
<rect width="20" height="20" fill="white" transform="translate(200 240)"/>
</clipPath>
<clipPath id="clip32_445_4213">
<rect width="20" height="20" fill="white" transform="translate(200 220)"/>
</clipPath>
<clipPath id="clip33_445_4213">
<rect width="20" height="20" fill="white" transform="translate(200 200)"/>
</clipPath>
<clipPath id="clip34_445_4213">
<rect width="20" height="20" fill="white" transform="translate(200 260)"/>
</clipPath>
<clipPath id="clip35_445_4213">
<rect width="20" height="20" fill="white" transform="translate(200 280)"/>
</clipPath>
<clipPath id="clip36_445_4213">
<rect width="20" height="20" fill="white" transform="translate(200 300)"/>
</clipPath>
<clipPath id="clip37_445_4213">
<rect width="20" height="20" fill="white" transform="translate(200 320)"/>
</clipPath>
</defs>
</svg>
