<svg width="163" height="30" viewBox="0 0 163 30" fill="none" xmlns="http://www.w3.org/2000/svg">
<g clip-path="url(#clip0_445_4601)">
<path d="M131.489 16.1163H132.888L134.376 13.3563V3.33411C134.376 3.2069 134.254 3.10181 134.16 3.10181H131.494C131.373 3.10181 131.273 3.2069 131.273 3.33411V15.8618C131.273 15.9891 131.373 16.1163 131.494 16.1163" fill="white"/>
<path d="M129.691 14.8939C129.813 14.8939 129.907 14.7666 129.907 14.6394V12.3441C129.907 12.1892 129.807 12.0896 129.691 12.0896H120.604V10.3529H128.601C128.701 10.3529 128.817 10.2257 128.817 10.0708V8.00222C128.817 7.84735 128.695 7.72014 128.601 7.72014H120.604V6.13827H128.823C128.944 6.13827 129.038 6.01105 129.038 5.90597V3.58847C129.038 3.46126 128.944 3.33405 128.823 3.33405H117.744C117.645 3.33405 117.501 3.46126 117.501 3.58847V13.4115C117.501 14.2025 118.109 14.8939 118.856 14.8939H129.691V14.8939Z" fill="white"/>
<path d="M127.324 26.437L129.027 23.2733C128.369 23.4171 127.589 23.489 126.71 23.489C123.828 23.489 121.987 22.6704 121.987 21.2711C121.987 19.8717 123.828 19.0752 126.71 19.0752C128.591 19.0752 130.006 19.4071 130.781 20.0155L132.213 17.3551C130.853 16.5531 128.972 16.1161 126.71 16.1161C121.959 16.1161 118.856 18.0575 118.856 21.2711C118.856 24.4846 121.959 26.4536 126.71 26.4536C126.92 26.4536 127.119 26.4425 127.324 26.437" fill="white"/>
<path d="M139.426 13.9869C139.381 13.7214 139.238 13.5389 139.05 13.4172C138.911 13.3342 138.723 13.2789 138.535 13.2789C138.358 13.2789 138.181 13.3176 138.054 13.4061C137.921 13.4891 137.789 13.6384 137.789 13.8431C137.789 13.9316 137.816 14.0532 137.899 14.1362C138.004 14.2358 138.165 14.3021 138.369 14.363L138.989 14.54C139.26 14.6174 139.531 14.728 139.68 14.8884C139.857 15.0765 139.907 15.2645 139.907 15.5411C139.907 15.8453 139.769 16.1163 139.542 16.2933C139.282 16.509 138.967 16.5865 138.596 16.5865C138.187 16.5865 137.789 16.4592 137.495 16.1384C137.324 15.9449 137.241 15.7236 137.202 15.5134L137.645 15.4415C137.678 15.5743 137.75 15.7457 137.888 15.873C138.071 16.0555 138.32 16.155 138.613 16.155C138.834 16.155 139.077 16.0997 139.232 15.978C139.381 15.8619 139.464 15.7126 139.464 15.519C139.464 15.3973 139.426 15.2701 139.332 15.1816C139.221 15.071 139.066 15.0212 138.889 14.9659L138.253 14.7723C137.993 14.6948 137.761 14.634 137.584 14.457C137.412 14.2856 137.341 14.0754 137.341 13.8431C137.341 13.5057 137.512 13.2181 137.766 13.0521C137.988 12.8973 138.281 12.8364 138.552 12.8364C138.795 12.8364 139.077 12.8917 139.299 13.0189C139.57 13.1849 139.813 13.4448 139.896 13.8873L139.437 13.9703L139.426 13.9869Z" fill="white"/>
<path d="M143.933 14.8661V16.5199H143.496V14.8883C143.496 14.6172 143.485 14.4568 143.308 14.302C143.214 14.2079 143.076 14.1526 142.943 14.1526C142.772 14.1526 142.611 14.2245 142.501 14.3628C142.39 14.5066 142.368 14.6449 142.368 14.8108V16.5199H141.931V14.8883C141.931 14.6172 141.915 14.4568 141.743 14.302C141.649 14.2079 141.511 14.1526 141.378 14.1526C141.207 14.1526 141.046 14.2245 140.936 14.3628C140.825 14.5066 140.803 14.6449 140.803 14.8108V16.5199H140.366V13.8263H140.753V14.1139C140.924 13.8871 141.196 13.7544 141.483 13.7544C141.688 13.7544 141.92 13.8152 142.08 13.9646C142.163 14.042 142.219 14.1194 142.263 14.1969C142.263 14.1858 142.274 14.1748 142.285 14.1637C142.457 13.9037 142.744 13.7544 143.048 13.7544C143.253 13.7544 143.485 13.8152 143.646 13.9646C143.917 14.2135 143.933 14.4845 143.933 14.8606" fill="white"/>
<path d="M146.229 16.5199V16.1106C146.008 16.4425 145.687 16.5973 145.233 16.5973C144.724 16.5973 144.37 16.271 144.37 15.7732C144.37 15.4082 144.564 15.1482 144.935 15.032C145.294 14.9104 145.72 14.8661 146.179 14.8053C146.163 14.3794 145.925 14.1747 145.554 14.1747C145.228 14.1747 144.968 14.3019 144.868 14.6283L144.465 14.5011C144.603 14.0531 145.001 13.7654 145.571 13.7654C146.085 13.7654 146.428 14.0033 146.555 14.4458C146.594 14.5785 146.611 14.7223 146.611 14.8882V16.5365H146.229V16.5199ZM146.179 15.1759C145.775 15.2312 145.504 15.2533 145.222 15.3362C144.973 15.4137 144.802 15.5464 144.802 15.7732C144.802 16.0387 144.995 16.2212 145.311 16.2212C145.654 16.2212 145.941 16.0608 146.08 15.7898C146.174 15.6073 146.179 15.3307 146.179 15.1703" fill="white"/>
<path d="M147.661 12.8529H147.23V16.52H147.661V12.8529Z" fill="white"/>
<path d="M148.768 12.8529H148.336V16.52H148.768V12.8529Z" fill="white"/>
<path d="M137.822 18.229V19.3518H139.304V19.7722H137.822V20.9779H139.592V21.3983H137.39V17.8087H139.592V18.229H137.822Z" fill="white"/>
<path d="M142.335 20.093V21.3983H141.898V20.104C141.898 19.7224 141.859 19.3905 141.627 19.2025C141.5 19.0974 141.334 19.0476 141.146 19.0531C140.991 19.0642 140.847 19.114 140.737 19.2135C140.615 19.3186 140.538 19.4735 140.51 19.6505C140.477 19.8109 140.477 20.0155 140.477 20.2202V21.4038H140.045V18.7102H140.427V19.0642C140.455 19.02 140.493 18.9812 140.532 18.937C140.703 18.7489 140.952 18.6604 141.19 18.6494C141.456 18.6273 141.738 18.677 141.965 18.8762C142.302 19.1582 142.341 19.6339 142.335 20.0985" fill="white"/>
<path d="M143.541 20.3642C143.541 20.5854 143.524 20.7347 143.596 20.8454C143.651 20.967 143.773 21.0223 143.9 21.0334C144.038 21.05 144.193 21.0334 144.332 21.0113V21.3929C144.155 21.4427 143.889 21.4427 143.718 21.4151C143.485 21.3763 143.319 21.2823 143.203 21.0721C143.093 20.8785 143.109 20.6518 143.109 20.3752V19.0644H142.578V18.6993H143.109V17.9526H143.541V18.6993H144.332V19.0644H143.541V20.3531V20.3642Z" fill="white"/>
<path d="M145.808 21.0498C146.146 21.0498 146.411 20.8894 146.555 20.5742L146.97 20.7235C146.765 21.2047 146.328 21.4702 145.825 21.4702C145.034 21.4702 144.547 20.8839 144.547 20.0653C144.547 19.2467 145.029 18.6273 145.803 18.6273C146.633 18.6273 147.047 19.2633 147.009 20.1759H145.012C145.045 20.7124 145.316 21.0498 145.803 21.0498M145.018 19.8054H146.561C146.511 19.3186 146.29 19.02 145.803 19.0255C145.322 19.0255 145.078 19.3352 145.018 19.8054Z" fill="white"/>
<path d="M148.851 18.7048V19.1196C148.668 19.0754 148.436 19.0864 148.253 19.2247C147.999 19.4128 147.938 19.7391 147.938 20.1429V21.3984H147.501V18.7048H147.888V19.1362C147.944 19.0367 148.015 18.9482 148.11 18.8652C148.309 18.6937 148.618 18.644 148.851 18.6993" fill="white"/>
<path d="M151.611 20.0489C151.611 20.8564 151.168 21.4759 150.438 21.4759C150.112 21.4759 149.857 21.3542 149.669 21.1495V22.5987H149.232V18.7104H149.619V19.009C149.807 18.7767 150.084 18.6329 150.438 18.6329C151.162 18.6329 151.611 19.2413 151.611 20.0489M151.151 20.0489C151.151 19.4792 150.903 19.0367 150.372 19.0367C149.841 19.0367 149.619 19.4571 149.619 20.0489C149.619 20.6407 149.857 21.0666 150.383 21.0666C150.908 21.0666 151.146 20.6241 151.146 20.0489" fill="white"/>
<path d="M153.452 18.7048V19.1196C153.27 19.0754 153.038 19.0864 152.855 19.2247C152.601 19.4128 152.54 19.7391 152.54 20.1429V21.3984H152.103V18.7048H152.49V19.1362C152.54 19.0367 152.617 18.9482 152.711 18.8652C152.91 18.6937 153.22 18.644 153.452 18.6993" fill="white"/>
<path d="M154.293 18.2013H153.862V17.7422H154.293V18.2013ZM154.293 21.3982H153.862V18.7046H154.293V21.3982Z" fill="white"/>
<path d="M156.517 19.5013C156.467 19.1805 156.196 19.0367 155.881 19.0256C155.554 19.0146 155.311 19.1639 155.311 19.3852C155.311 19.5621 155.444 19.6617 155.681 19.7336C155.809 19.7723 155.964 19.811 156.185 19.8719C156.672 19.9991 156.97 20.1982 156.97 20.6352C156.97 21.1772 156.533 21.4759 155.947 21.4759C155.361 21.4759 154.902 21.2325 154.797 20.6739L155.239 20.5964C155.316 20.9283 155.626 21.0776 155.969 21.0776C156.279 21.0776 156.528 20.9338 156.528 20.6628C156.528 20.4139 156.34 20.3365 156.074 20.2646C155.892 20.2093 155.704 20.1595 155.51 20.0987C155.145 19.9936 154.874 19.7944 154.874 19.4073C154.874 18.8929 155.355 18.6329 155.87 18.6329C156.456 18.6329 156.898 18.9316 156.959 19.4183L156.517 19.4958V19.5013Z" fill="white"/>
<path d="M158.563 21.0498C158.901 21.0498 159.166 20.8894 159.315 20.5742L159.73 20.7235C159.526 21.2047 159.089 21.4702 158.585 21.4702C157.794 21.4702 157.308 20.8839 157.308 20.0653C157.308 19.2467 157.789 18.6273 158.563 18.6273C159.393 18.6273 159.808 19.2633 159.769 20.1759H157.772C157.805 20.7124 158.076 21.0498 158.563 21.0498ZM157.778 19.8054H159.321C159.271 19.3186 159.05 19.02 158.563 19.0255C158.082 19.0255 157.839 19.3352 157.778 19.8054Z" fill="white"/>
<path d="M140.438 25.2203C140.349 25.519 140.217 25.7955 139.924 26.0334C139.63 26.2712 139.276 26.3542 138.889 26.3542C138.375 26.3542 137.932 26.144 137.645 25.7679C137.363 25.3918 137.241 24.9604 137.241 24.4847C137.241 24.009 137.352 23.5444 137.639 23.1904C137.949 22.8033 138.386 22.6097 138.889 22.6097C139.293 22.6097 139.636 22.6926 139.918 22.936C140.233 23.196 140.383 23.5002 140.46 23.8431L139.802 23.9371C139.769 23.8154 139.713 23.7048 139.641 23.6108C139.47 23.373 139.232 23.2568 138.928 23.2513C138.629 23.2513 138.336 23.373 138.17 23.6108C137.993 23.8431 137.927 24.1694 137.932 24.4847C137.932 24.8 137.993 25.1152 138.17 25.3586C138.342 25.5964 138.629 25.7126 138.928 25.7181C139.227 25.7181 139.464 25.5964 139.641 25.3586C139.702 25.2701 139.758 25.1705 139.791 25.0599L140.432 25.2258L140.438 25.2203Z" fill="white"/>
<path d="M140.764 24.9326C140.764 24.0919 141.312 23.5112 142.086 23.5112C142.86 23.5112 143.414 24.0975 143.414 24.9326C143.414 25.7678 142.871 26.3541 142.086 26.3541C141.301 26.3541 140.764 25.7678 140.764 24.9326ZM142.086 24.1472C141.655 24.1472 141.461 24.468 141.461 24.9326C141.461 25.3972 141.671 25.718 142.086 25.718C142.501 25.718 142.717 25.3917 142.717 24.9326C142.717 24.4736 142.506 24.1472 142.086 24.1472Z" fill="white"/>
<path d="M146.356 24.977V26.2768H145.687V25.0046C145.687 24.7281 145.648 24.446 145.515 24.2967C145.421 24.1916 145.283 24.1363 145.106 24.1418C144.984 24.1418 144.885 24.1805 144.796 24.2469C144.702 24.3188 144.63 24.4405 144.603 24.5898C144.581 24.7115 144.575 24.9161 144.575 25.1042V26.2768H143.911V23.5832H144.492V23.8653C144.492 23.8653 144.514 23.8376 144.525 23.8265C144.691 23.6164 144.962 23.5279 145.195 23.5113C145.504 23.4891 145.82 23.5445 146.068 23.7989C146.356 24.0865 146.356 24.5566 146.356 24.977" fill="white"/>
<path d="M148.353 24.4348C148.331 24.2468 148.17 24.103 147.932 24.0975C147.711 24.0864 147.529 24.1694 147.529 24.3021C147.529 24.4348 147.623 24.4957 147.783 24.5455C147.916 24.5842 148.037 24.6229 148.226 24.6727C148.784 24.8165 149.05 25.0267 149.05 25.4857C149.05 26.0444 148.585 26.3596 147.993 26.3596C147.335 26.3596 146.898 26.0886 146.793 25.4747L147.468 25.3696C147.523 25.6351 147.728 25.7734 148.01 25.7734C148.22 25.7734 148.38 25.6904 148.38 25.5134C148.38 25.3751 148.275 25.3032 148.087 25.2479C147.838 25.176 147.623 25.1207 147.44 25.0654C147.097 24.9658 146.881 24.7169 146.881 24.3353C146.881 23.7877 147.374 23.5112 147.916 23.5112C148.458 23.5112 148.956 23.7767 149.028 24.3076L148.358 24.4348H148.353Z" fill="white"/>
<path d="M151.948 23.583V26.2766H151.367V26.0001C151.367 26.0001 151.345 26.0222 151.334 26.0388C151.162 26.249 150.897 26.3375 150.665 26.354C150.355 26.3762 150.04 26.3209 149.791 26.0664C149.503 25.7788 149.503 25.3087 149.503 24.8883V23.5885H150.172V24.8607C150.172 25.1372 150.211 25.4193 150.344 25.5686C150.438 25.6737 150.576 25.729 150.753 25.7235C150.875 25.7235 150.974 25.6848 151.063 25.6184C151.157 25.541 151.229 25.4248 151.257 25.2755C151.279 25.1538 151.284 24.9436 151.284 24.7611V23.5885H151.948V23.583Z" fill="white"/>
<path d="M153.264 22.6151H152.606V26.2822H153.264V22.6151Z" fill="white"/>
<path d="M154.741 25.0986C154.741 25.3088 154.73 25.4802 154.796 25.5853C154.857 25.6904 154.973 25.7291 155.073 25.7402C155.2 25.7512 155.361 25.7402 155.499 25.718V26.2822C155.294 26.343 154.929 26.3375 154.736 26.3043C154.492 26.2601 154.343 26.1771 154.205 25.9669C154.061 25.7457 154.088 25.4691 154.088 25.1428V24.1141H153.646V23.5886H154.088V22.8419H154.747V23.5886H155.499V24.1141H154.747V25.1041L154.741 25.0986Z" fill="white"/>
<path d="M156.693 23.2125H156.035V22.6151H156.693V23.2125ZM156.693 26.2822H156.035V23.5886H156.693V26.2822Z" fill="white"/>
<path d="M159.802 24.977V26.2768H159.133V25.0046C159.133 24.7281 159.094 24.446 158.961 24.2967C158.867 24.1916 158.729 24.1363 158.552 24.1418C158.43 24.1418 158.331 24.1805 158.242 24.2469C158.148 24.3188 158.076 24.4405 158.049 24.5898C158.027 24.7115 158.021 24.9161 158.021 25.1042V26.2768H157.357V23.5832H157.938V23.8653C157.938 23.8653 157.96 23.8376 157.971 23.8265C158.143 23.6164 158.408 23.5279 158.64 23.5113C158.95 23.4891 159.265 23.5445 159.514 23.7989C159.802 24.0865 159.802 24.5566 159.802 24.977" fill="white"/>
<path d="M162.75 23.5831V26.4647C162.75 26.5975 162.739 26.7136 162.711 26.8298C162.584 27.322 162.103 27.5488 161.528 27.5488C161.08 27.5488 160.687 27.322 160.488 26.9681L161.096 26.6638C161.179 26.8242 161.351 26.9072 161.533 26.9072C161.826 26.9072 162.103 26.7523 162.092 26.4537V26.1826C161.92 26.2933 161.716 26.3541 161.467 26.3541C160.748 26.3541 160.261 25.7402 160.261 24.9326C160.261 24.1251 160.748 23.5112 161.5 23.5112C161.771 23.5112 161.998 23.5886 162.175 23.7379V23.5886H162.75V23.5831ZM162.175 24.9326C162.175 24.4459 162.009 24.114 161.599 24.114C161.157 24.114 160.963 24.4846 160.963 24.9326C160.963 25.3807 161.151 25.7512 161.577 25.7512C162.003 25.7512 162.175 25.4194 162.175 24.9326Z" fill="white"/>
<path d="M94.5748 22.7536H82.6333V18.0854C82.6333 17.9582 82.5337 17.8586 82.4176 17.8586H79.7738C79.6742 17.8586 79.5304 17.9582 79.5304 18.0854V24.2082C79.5304 25.0268 80.1388 25.6906 80.8855 25.6906H92.9929L94.5748 22.7536Z" fill="white"/>
<path d="M85.2993 15.8618C85.2993 15.9891 85.4209 16.1163 85.515 16.1163H88.203C88.3026 16.1163 88.3966 15.9891 88.3966 15.8618V11.0665H91.3059V19.54C91.3059 19.6672 91.4 19.7944 91.4995 19.7944H94.1876C94.2871 19.7944 94.4033 19.6672 94.4033 19.54V3.33411C94.4033 3.2069 94.2816 3.10181 94.1876 3.10181H91.4995C91.4 3.10181 91.3059 3.2069 91.3059 3.33411V8.1295H88.3966V3.84296C88.3966 3.71575 88.2971 3.58854 88.203 3.58854H77.318C77.1963 3.58854 77.1023 3.71575 77.1023 3.84296V6.2932C77.1023 6.39829 77.2019 6.5255 77.318 6.5255H85.2937V9.48459H77.318C77.1963 9.48459 77.1023 9.61181 77.1023 9.71136V12.1616C77.1023 12.3165 77.2019 12.4437 77.318 12.4437H85.2937V15.8618H85.2993Z" fill="white"/>
<path d="M107.7 8.61622H111.262V14.3851C111.262 14.5399 111.361 14.6395 111.477 14.6395H114.143C114.237 14.6395 114.359 14.5344 114.359 14.3851V3.33411C114.359 3.2069 114.237 3.10181 114.143 3.10181H111.477C111.356 3.10181 111.262 3.2069 111.262 3.33411V5.6516H107.7C107.578 5.6516 107.479 5.80647 107.479 5.93368V8.38392C107.479 8.48901 107.578 8.61069 107.7 8.61069" fill="white"/>
<path d="M114.547 22.9303H102.711V21.5752H114.155C114.249 21.5752 114.37 21.4757 114.37 21.3429V15.3694C114.37 15.2422 114.249 15.115 114.155 15.115H99.7297C99.608 15.115 99.4863 15.2422 99.4863 15.3694V17.615C99.4863 17.7699 99.608 17.8694 99.7297 17.8694H111.146V19.0973H99.7297C99.608 19.0973 99.4863 19.1969 99.4863 19.3241V24.1969C99.4863 25.0155 100.117 25.6792 100.841 25.6792H113.059L114.547 22.9248V22.9303Z" fill="white"/>
<path d="M106.632 13.771C106.682 13.8705 106.848 13.8982 106.948 13.8484L109.033 12.5486C109.154 12.4988 109.177 12.2942 109.132 12.1946L104.331 3.82621C103.651 2.65363 101.787 2.65363 101.107 3.82621L96.3059 12.1946C96.2561 12.2942 96.2838 12.4988 96.3778 12.5486L98.463 13.8484C98.5625 13.8982 98.7561 13.8705 98.8004 13.771L102.705 6.80189L106.632 13.771Z" fill="white"/>
<path d="M35.0443 15.0155H32.4669C32.3729 15.0155 32.2567 14.8938 32.2567 14.7666V2.64812C32.2567 2.52644 32.3729 2.42688 32.4669 2.42688H35.0443C35.1605 2.42688 35.2545 2.52644 35.2545 2.64812V6.69682H37.5997C37.7158 6.69682 37.8098 6.79638 37.8098 6.91806V9.31299C37.8098 9.43467 37.7158 9.56188 37.5997 9.56188H35.2545V14.7666C35.2545 14.8882 35.1605 15.0155 35.0443 15.0155" fill="white"/>
<path d="M55.8411 14.1747H37.8432C37.7271 14.1747 37.6331 14.0531 37.6331 13.9259V11.8019C37.6331 11.6803 37.7271 11.553 37.8432 11.553H44.5026V7.87493C44.5026 7.75324 44.5966 7.62603 44.7127 7.62603H47.2681C47.3842 7.62603 47.5004 7.74771 47.5004 7.87493V11.553H55.8411C55.9573 11.553 56.0513 11.6747 56.0513 11.8019V13.9259C56.0513 14.0475 55.9573 14.1747 55.8411 14.1747M53.6509 10.2754H51.0955C50.9573 10.2754 50.8632 10.1537 50.8632 10.0541V5.29194H39.8233C39.7293 5.29194 39.6132 5.17026 39.6132 5.04305V2.67578C39.6132 2.55409 39.7293 2.42688 39.8233 2.42688H53.6509C53.7449 2.42688 53.861 2.54856 53.861 2.67578V10.0541C53.861 10.1537 53.7449 10.2754 53.6509 10.2754" fill="white"/>
<path d="M8.32431 8.00781L10.8962 3.80424L10.6695 3.42813C10.0389 2.39383 8.39621 2.39383 7.7878 3.42813L0.818724 14.7778C0.74682 14.8773 0.724696 15.0488 0.818724 15.1207L2.83201 16.5753C2.92604 16.6251 3.06431 16.6251 3.11409 16.5256L8.32431 8.00781Z" fill="white"/>
<path d="M17.5997 14.7778L11.156 4.23016L9.47461 6.98461L15.3098 16.5256C15.3541 16.6252 15.4979 16.6252 15.5919 16.5754L17.6052 15.1207C17.7213 15.0488 17.6992 14.8718 17.6052 14.7778" fill="white"/>
<path d="M24.0045 6.15497L25.5642 3.1461L25.5477 3.11845C24.9392 1.95694 23.0421 1.95694 22.4282 3.11845L17.7876 11.9515C17.7655 12.0013 17.7655 12.2004 17.8817 12.2723L19.895 13.5555C19.989 13.6052 20.1549 13.5555 20.1992 13.4836L23.999 6.15497H24.0045Z" fill="white"/>
<path d="M30.1937 11.9516L25.8242 3.62738L24.2589 6.64178L27.7822 13.4781C27.8264 13.55 28.0145 13.5998 28.1085 13.55L30.1218 12.2668C30.2158 12.1949 30.2379 11.9958 30.1937 11.946" fill="white"/>
<path d="M18.4846 22.1284H10.7357V16.4259C10.7357 16.2766 10.5974 16.1826 10.5034 16.1826H7.92594C7.83191 16.1826 7.71576 16.2821 7.71576 16.4259V22.1284H0.210178C0.0940272 22.1284 0 22.228 0 22.3496V24.7169C0 24.8662 0.0940272 24.9658 0.210178 24.9658H16.9525L18.4791 22.1284H18.4846Z" fill="white"/>
<path d="M50.1276 16.3652H42.9539L40.1995 14.7888C39.9838 14.6672 39.7183 14.6616 39.497 14.7833L37.2404 16.0001C37.0966 16.0776 37.0136 16.2214 36.997 16.3707C36.9915 16.4758 37.0136 16.5864 37.08 16.6804V16.6915C37.2238 16.8796 37.4782 16.9404 37.6829 16.8298L39.1541 16.0444C39.1541 16.0444 40.7028 18.2236 41.4771 19.3077H44.3035H50.1166C51.527 19.3077 52.6719 20.4526 52.6719 21.863C52.6719 23.2734 51.527 24.4183 50.1166 24.4183H38.3632V24.9825V27.3664H50.1166C53.1476 27.3664 55.6144 24.8995 55.6144 21.8685C55.6144 18.8375 53.1476 16.3707 50.1166 16.3707" fill="white"/>
<path d="M30.0116 20.8342H29.9893V20.8566H30.0116V20.8342Z" fill="white"/>
<path d="M41.0955 19.385C41.0844 19.3242 41.0623 19.2633 41.0236 19.208L39.049 16.3706L37.8377 17.0288C37.5059 17.2113 37.0855 17.1283 36.8643 16.8297C36.7592 16.6914 36.7149 16.531 36.7204 16.3706C36.726 16.1162 36.8642 15.8673 37.1076 15.729L37.8709 15.3086C38.0202 15.2257 38.0977 15.0376 38.0202 14.8828C37.9373 14.7058 37.7326 14.6449 37.5667 14.7334L36.8587 15.1261L34.9395 16.1881C34.7459 16.2932 34.5357 16.3485 34.3145 16.3595H27.4671C24.4361 16.3595 21.9692 18.8264 21.9692 21.8574C21.9692 24.8884 24.4361 27.3552 27.4671 27.3552H38.3687V24.4127H27.4671C26.0567 24.4127 24.9117 23.2678 24.9117 21.8574C24.9117 20.447 26.0567 19.302 27.4671 19.302H32.9925H35.6585C35.8355 19.302 36.0235 19.3242 36.1784 19.4182C36.3333 19.5177 36.4273 19.6781 36.5324 19.8275L36.82 20.2423C37.2182 20.8009 37.7271 21.5144 37.7271 21.5144C37.8654 21.708 38.1309 21.7578 38.33 21.6195C38.5236 21.4813 38.5733 21.2102 38.4351 21.0166L37.6552 19.8994L37.539 19.7335C37.5114 19.6947 37.5114 19.6394 37.5446 19.6062C37.5888 19.562 37.6552 19.5731 37.6884 19.6173L37.882 19.8938L38.5844 20.8894C38.7227 21.083 38.9882 21.1549 39.1928 21.0111C39.3919 20.8673 39.4362 20.6018 39.2979 20.4027L38.5789 19.3739L38.3963 19.114C38.3687 19.0697 38.3742 19.0144 38.4185 18.9812C38.4572 18.9536 38.5125 18.9646 38.5401 19.0034L38.8001 19.3739L39.4417 20.2866C39.5689 20.4691 39.8123 20.5354 40.0059 20.4304C40.2382 20.3031 40.3045 20.01 40.1552 19.7998L39.8565 19.3739L39.2481 18.5111C39.2205 18.4668 39.226 18.4115 39.2758 18.3784C39.32 18.3507 39.3753 18.3562 39.4085 18.4005L40.0944 19.3739L40.3211 19.6947C40.4594 19.8883 40.7249 19.9381 40.924 19.7998C41.0623 19.7003 41.1287 19.5343 41.101 19.3739" fill="white"/>
<path d="M71.2394 19.7944H73.8168C73.933 19.7944 74.027 19.6727 74.027 19.5455V3.32305C74.027 3.20136 73.933 3.10181 73.8168 3.10181H71.2394C71.1453 3.10181 71.0292 3.20136 71.0292 3.32305V19.5455C71.0292 19.6672 71.1453 19.7944 71.2394 19.7944Z" fill="white"/>
<path d="M68.6619 9.25216C68.6619 5.72338 66.2726 3.08508 62.8986 3.08508C59.5247 3.08508 57.1077 5.72338 57.1077 9.25216C57.1077 12.7809 59.4971 15.4192 62.8986 15.4192C66.3002 15.4192 68.6619 12.7809 68.6619 9.25216M60.1055 9.25216C60.1055 7.37715 61.2283 5.92249 62.8931 5.92249C64.5579 5.92249 65.6586 7.37715 65.6586 9.25216C65.6586 11.1272 64.5358 12.5818 62.8931 12.5818C61.2504 12.5818 60.1055 11.1272 60.1055 9.25216" fill="white"/>
<path d="M74.2152 22.853H62.6609V18.3396C62.6609 18.218 62.5669 18.1184 62.4507 18.1184H59.8954C59.7571 18.1184 59.6631 18.218 59.6631 18.3396V24.2634C59.6631 25.0543 60.2494 25.6959 60.9739 25.6959H72.6886L74.2152 22.8585V22.853Z" fill="white"/>
</g>
<defs>
<clipPath id="clip0_445_4601">
<rect width="162.75" height="25.2988" fill="white" transform="translate(0 2.25)"/>
</clipPath>
</defs>
</svg>
