<svg width="100" height="100" viewBox="0 0 100 100" fill="none" xmlns="http://www.w3.org/2000/svg">
<path d="M64.3332 51.0259H52.1395L40.5155 68.3986H48.8346L34.5896 90.0003L64.3332 63.2554H53.393L64.3332 51.0259Z" fill="#FFDD60"/>
<path d="M10.9999 43.4506C10.9999 34.9535 17.954 28.0698 26.538 28.0698C28.0592 28.0698 29.5804 28.2849 30.993 28.7151C33.4921 17.9593 43.1627 10 54.7892 10C68.2628 10 79.2373 20.8634 79.2373 34.2006C79.2373 35.0611 79.2373 35.9215 79.1286 36.782C84.8875 37.2122 89.5598 41.9448 89.5598 47.8605C89.5598 52.9157 86.1914 57.1105 81.5191 58.5087C81.5191 58.5087 80.1065 58.939 77.9334 58.939H26.864C26.7553 58.939 25.7774 58.939 25.7774 58.939C17.5194 58.4012 10.9999 51.7326 10.9999 43.4506Z" fill="#A4A6AA"/>
<g opacity="0.2">
<circle cx="54.7874" cy="34.4695" r="24.4695" fill="#A1A3A8"/>
<circle cx="54.7874" cy="34.4695" r="24.4695" fill="url(#paint0_linear)" fill-opacity="0.4"/>
<circle cx="54.7874" cy="34.4695" r="24.4695" fill="url(#paint1_linear)" fill-opacity="0.6"/>
</g>
<path d="M86.2057 22.7891H79.342L72.799 33.1222H77.4817L69.4634 45.9707L86.2057 30.0631H80.0476L86.2057 22.7891Z" fill="#FFE47E"/>
<path d="M86.2057 22.7891H79.342L72.799 33.1222H77.4817L69.4634 45.9707L86.2057 30.0631H80.0476L86.2057 22.7891Z" fill="url(#paint2_linear)"/>
<defs>
<linearGradient id="paint0_linear" x1="41.9087" y1="13.8636" x2="69.5978" y2="58.939" gradientUnits="userSpaceOnUse">
<stop stop-color="#EAEAEA"/>
<stop offset="0.473958" stop-color="#9D9FA4"/>
<stop offset="1" stop-color="#A7A9AD"/>
</linearGradient>
<linearGradient id="paint1_linear" x1="50.2798" y1="10" x2="58.651" y2="19.0151" gradientUnits="userSpaceOnUse">
<stop stop-color="white"/>
<stop offset="1" stop-color="white" stop-opacity="0"/>
</linearGradient>
<linearGradient id="paint2_linear" x1="77.8345" y1="22.7891" x2="77.8345" y2="45.9707" gradientUnits="userSpaceOnUse">
<stop stop-color="#FFDD60"/>
<stop offset="1" stop-color="#EECD51" stop-opacity="0"/>
</linearGradient>
</defs>
</svg>
