<svg width="213" height="41" viewBox="0 0 213 41" fill="none" xmlns="http://www.w3.org/2000/svg">
<path d="M162.52 4.88416H160.453V13.8855H162.52V4.88416ZM148.86 9.55543C148.854 11.8386 150.789 13.4591 153.38 13.4525C155.965 13.4591 157.894 11.8386 157.894 9.55543C157.894 7.22636 155.965 5.61241 153.38 5.61897C150.789 5.61241 148.854 7.22636 148.86 9.55543ZM150.874 9.55543C150.868 8.21047 151.917 7.33789 153.38 7.34445C154.817 7.33789 155.867 8.21047 155.867 9.55543C155.867 10.9004 154.817 11.7533 153.38 11.7533C151.917 11.7533 150.868 10.9004 150.874 9.55543ZM151.438 21.4436H162.52V14.6597H160.466V16.3721H153.466V14.6597H151.438V21.4436ZM153.466 19.7706V17.986H160.466V19.7706H153.466ZM173.995 6.48499H170.052V4.80543H167.998V6.48499H164.042V8.11862H173.995V6.48499ZM164.908 11.8386C164.902 13.6756 166.594 14.9025 169.028 14.9025C171.443 14.9025 173.109 13.6756 173.116 11.8386C173.109 10.0016 171.443 8.7747 169.028 8.76814C166.594 8.7747 164.902 10.0016 164.908 11.8386ZM166.083 17.822H175.189V21.6404H177.262V16.1621H166.083V17.822ZM166.909 11.8386C166.896 10.8873 167.749 10.3362 169.028 10.3296C170.295 10.3362 171.148 10.8873 171.161 11.8386C171.148 12.7833 170.295 13.3148 169.028 13.3082C167.749 13.3148 166.896 12.7833 166.909 11.8386ZM175.189 15.3814H177.262V11.025H179.604V9.33893H177.262V4.88416H175.189V15.3814ZM192.733 4.88416H190.66V17.1462H192.733V11.504H195.075V9.79162H192.733V4.88416ZM179.684 10.2115C179.671 12.6587 181.659 14.4301 184.211 14.4301C186.763 14.4301 188.718 12.6587 188.731 10.2115C188.718 7.74466 186.763 5.99949 184.211 5.99949C181.659 5.99949 179.671 7.74466 179.684 10.2115ZM181.711 10.2115C181.698 8.73533 182.807 7.79714 184.211 7.79714C185.628 7.79714 186.71 8.73533 186.717 10.2115C186.71 11.6746 185.628 12.6259 184.211 12.6259C182.807 12.6259 181.698 11.6746 181.711 10.2115ZM181.987 21.3255H193.389V19.6525H184.04V15.8603H181.987V21.3255ZM209.372 4.88416H207.384V11.4777H205.527V5.19908H203.592V20.8072H205.527V13.1639H207.384V21.6404H209.372V4.88416ZM195.699 17.4677H196.815C198.579 17.4743 200.502 17.3562 202.772 16.956L202.555 15.1649C200.79 15.5061 199.209 15.6307 197.766 15.657V6.79991H195.699V17.4677Z" fill="#16171D"/>
<g clip-path="url(#clip0_847_3468)">
<path d="M49.7014 31.792L48.1881 30.034C48.1046 30.1094 48.0185 30.1902 47.9269 30.2763C47.8354 30.3598 47.7707 30.4217 47.7357 30.4567V31.7974H47.146V27.9342H47.7357V29.7298C47.9834 29.4983 48.2608 29.221 48.5651 28.9006C48.8693 28.5776 49.1548 28.2545 49.416 27.9288H50.1295C49.8656 28.2464 49.6044 28.5507 49.3486 28.8387C49.0901 29.1295 48.8478 29.3852 48.6216 29.6087L50.423 31.7893H49.7041L49.7014 31.792Z" fill="black"/>
<path d="M53.7915 28.4075C54.12 28.779 54.2842 29.2663 54.2842 29.8666C54.2842 30.467 54.12 30.965 53.7915 31.3419C53.463 31.7188 53.0294 31.9073 52.4936 31.9073C51.9578 31.9073 51.5269 31.7188 51.2065 31.3419C50.8861 30.965 50.7245 30.4751 50.7245 29.8666C50.7245 29.2582 50.8861 28.779 51.2065 28.4075C51.5269 28.036 51.9578 27.8502 52.4936 27.8502C53.0294 27.8502 53.463 28.036 53.7915 28.4075ZM53.3337 30.9462C53.5384 30.6662 53.638 30.3082 53.638 29.8666C53.638 29.4251 53.5357 29.0752 53.3337 28.8006C53.1291 28.526 52.849 28.3887 52.4936 28.3887C52.1382 28.3887 51.8527 28.526 51.6562 28.8006C51.4569 29.0752 51.3573 29.4305 51.3573 29.8666C51.3573 30.3028 51.4569 30.6662 51.6562 30.9462C51.8554 31.2262 52.1328 31.3662 52.4936 31.3662C52.8544 31.3662 53.1318 31.2262 53.3337 30.9462Z" fill="black"/>
<path d="M57.7201 31.7919L55.9779 28.7794V31.7973H55.3882V27.934H56.0695L57.8224 30.9358L57.8278 27.934H58.4013L58.4067 31.7919H57.7201V31.7919Z" fill="black"/>
<path d="M62.3947 31.7917V31.3528C62.2789 31.4982 62.1281 31.6247 61.9369 31.7378C61.7484 31.8509 61.533 31.9047 61.2907 31.9047C60.7468 31.9047 60.3159 31.7136 59.9982 31.334C59.6805 30.9544 59.5216 30.4617 59.5216 29.8587C59.5216 29.2557 59.6805 28.7711 59.9955 28.4022C60.3106 28.0334 60.7441 27.8477 61.2907 27.8477C61.805 27.8477 62.1954 27.993 62.462 28.2838C62.7259 28.5745 62.8874 28.8491 62.9467 29.1076H62.3031C62.2439 28.938 62.1389 28.7764 61.9854 28.6203C61.8319 28.4642 61.6003 28.3888 61.2907 28.3888C60.9218 28.3888 60.6418 28.5261 60.4479 28.8007C60.254 29.0753 60.1571 29.4279 60.1571 29.8614C60.1571 30.2948 60.254 30.6556 60.4479 30.9382C60.6418 31.2182 60.9245 31.3609 61.2907 31.3609C61.6219 31.3609 61.8804 31.2532 62.0635 31.0352C62.2466 30.8198 62.3516 30.5775 62.3785 30.311H61.323V29.8075H62.9952V31.7917H62.3947V31.7917Z" fill="black"/>
<path d="M66.0675 30.8308C66.0675 31.1619 65.9544 31.423 65.7282 31.6088C65.5021 31.7973 65.2382 31.8888 64.9366 31.8888C64.635 31.8888 64.3927 31.7973 64.1719 31.6169C63.9511 31.4338 63.8407 31.1754 63.8434 30.8362V30.4889H64.4277V30.7365C64.4277 30.9573 64.4788 31.1135 64.5812 31.2077C64.6835 31.3019 64.802 31.3477 64.9366 31.3477C65.082 31.3477 65.2059 31.3019 65.3163 31.2077C65.424 31.1135 65.4778 30.9573 65.4778 30.7365V27.934H66.0675V30.8281V30.8308Z" fill="black"/>
<path d="M70.2598 30.602C70.2625 30.9547 70.1333 31.2616 69.8667 31.52C69.6028 31.7785 69.2339 31.9077 68.76 31.9077C68.2861 31.9077 67.9172 31.7785 67.6614 31.52C67.4056 31.2616 67.2764 30.9574 67.2764 30.602V27.9368H67.8768V30.5105C67.8768 30.6908 67.9334 30.8793 68.0465 31.0731C68.1596 31.267 68.3965 31.3639 68.7573 31.3639C69.1182 31.3639 69.3632 31.267 69.4844 31.0731C69.6055 30.8793 69.6648 30.6908 69.6648 30.5105V27.9368H70.2545V30.602H70.2598Z" fill="black"/>
<path d="M76.3803 31.7919L74.6382 28.7794V31.7973H74.0485V27.934H74.7297L76.4827 30.9358L76.4881 27.934H77.0616L77.067 31.7919H76.3803V31.7919Z" fill="black"/>
<path d="M81.1626 31.7974L80.7883 30.8659H79.0031L78.6342 31.7974H78.0337L79.5551 27.9288H80.2309L81.763 31.7974H81.1626V31.7974ZM79.897 28.5964L79.2266 30.3167H80.5729L79.897 28.5964Z" fill="black"/>
<path d="M83.7206 28.4779V31.8L83.1255 31.7892L83.1201 28.4779H81.8976V27.9368H84.9592V28.4779H83.7206Z" fill="black"/>
<path d="M85.9932 31.7865V27.934H86.5721V31.7865H85.9932Z" fill="black"/>
<path d="M90.7593 28.4075C91.0878 28.779 91.2521 29.2663 91.2521 29.8666C91.2521 30.467 91.0878 30.965 90.7593 31.3419C90.4308 31.7188 89.9973 31.9073 89.4614 31.9073C88.9256 31.9073 88.4948 31.7188 88.1743 31.3419C87.8539 30.965 87.6924 30.4751 87.6924 29.8666C87.6924 29.2582 87.8539 28.779 88.1743 28.4075C88.4948 28.036 88.9229 27.8502 89.4614 27.8502C90 27.8502 90.4308 28.036 90.7593 28.4075ZM90.3015 30.9462C90.5062 30.6662 90.6058 30.3082 90.6058 29.8666C90.6058 29.4251 90.5035 29.0752 90.3015 28.8006C90.0969 28.526 89.8169 28.3887 89.4614 28.3887C89.106 28.3887 88.8206 28.526 88.6213 28.8006C88.4221 29.0752 88.3251 29.4305 88.3251 29.8666C88.3251 30.3028 88.4248 30.6662 88.6213 30.9462C88.8206 31.2262 89.1006 31.3662 89.4614 31.3662C89.8223 31.3662 90.0996 31.2262 90.3015 30.9462Z" fill="black"/>
<path d="M94.6879 31.7919L92.9457 28.7794V31.7973H92.356V27.934H93.0373L94.7902 30.9358L94.7956 27.934H95.3692L95.3745 31.7919H94.6879V31.7919Z" fill="black"/>
<path d="M99.4701 31.7974L99.0958 30.8659H97.3106L96.9417 31.7974H96.3412L97.8626 27.9288H98.5385L100.071 31.7974H99.4701V31.7974ZM98.2046 28.5964L97.5341 30.3167H98.8804L98.2046 28.5964Z" fill="black"/>
<path d="M101.037 31.7865V27.934H101.627V31.2508H103.622V31.7865H101.037V31.7865Z" fill="black"/>
<path d="M110.095 30.602C110.098 30.9547 109.969 31.2616 109.702 31.52C109.438 31.7785 109.069 31.9077 108.595 31.9077C108.122 31.9077 107.753 31.7785 107.497 31.52C107.241 31.2616 107.112 30.9574 107.112 30.602V27.9368H107.712V30.5105C107.712 30.6908 107.769 30.8793 107.882 31.0731C107.995 31.267 108.232 31.3639 108.593 31.3639C108.954 31.3639 109.199 31.267 109.32 31.0731C109.441 30.8793 109.5 30.6908 109.5 30.5105V27.9368H110.09V30.602H110.095Z" fill="black"/>
<path d="M113.671 31.7919L111.929 28.7794V31.7973H111.339V27.934H112.021L113.774 30.9358L113.779 27.934H114.352L114.358 31.7919H113.671V31.7919Z" fill="black"/>
<path d="M115.661 31.7865V27.934H116.24V31.7865H115.661Z" fill="black"/>
<path d="M119.404 31.792H118.723L117.223 27.9233H117.834L119.062 31.0597L120.301 27.9233H120.912L119.401 31.792H119.404Z" fill="black"/>
<path d="M121.9 31.7865V27.934H124.595L124.601 28.4751H122.49V29.5359L124.501 29.5412V30.0716H122.49V31.2508H124.644V31.7865H121.9V31.7865Z" fill="black"/>
<path d="M128.142 31.792L127.059 30.2494H126.346V31.7974H125.756V27.9395H127.331C127.703 27.9395 128.015 28.0445 128.265 28.2545C128.519 28.4645 128.645 28.7337 128.645 29.0648C128.645 29.3233 128.562 29.5575 128.395 29.7621C128.228 29.9667 128.015 30.1094 127.759 30.1848L128.869 31.792H128.144H128.142ZM127.786 29.5333C127.94 29.4229 128.015 29.2667 128.015 29.0648C128.015 28.8629 127.945 28.7175 127.808 28.6206C127.668 28.5237 127.506 28.4753 127.318 28.4753H126.343V29.6975H127.28C127.463 29.6975 127.633 29.6436 127.786 29.5333V29.5333Z" fill="black"/>
<path d="M132.463 30.1979C132.584 30.389 132.63 30.599 132.601 30.8306C132.563 31.1267 132.423 31.3878 132.172 31.614C131.925 31.8401 131.569 31.9559 131.106 31.9559C130.595 31.9559 130.21 31.797 129.954 31.4794C129.698 31.1617 129.569 30.8332 129.563 30.494H130.158C130.166 30.7713 130.258 30.9948 130.438 31.159C130.619 31.3259 130.84 31.4067 131.104 31.4067C131.367 31.4067 131.572 31.3501 131.704 31.2344C131.839 31.1186 131.922 30.9786 131.957 30.8117C131.989 30.6771 131.971 30.5667 131.898 30.4725C131.825 30.381 131.72 30.3029 131.583 30.2356C131.419 30.1521 131.238 30.1037 131.044 30.0902C130.853 30.0767 130.657 30.0283 130.463 29.9502C130.204 29.8452 130.005 29.7133 129.868 29.5491C129.73 29.3876 129.668 29.1749 129.684 28.911C129.698 28.6553 129.819 28.4049 130.048 28.1653C130.274 27.923 130.619 27.8019 131.077 27.8019C131.61 27.8019 131.979 27.9607 132.183 28.2784C132.388 28.5961 132.485 28.8653 132.479 29.0887H131.89C131.887 28.8868 131.82 28.7118 131.691 28.5638C131.561 28.4157 131.357 28.343 131.079 28.343C130.823 28.343 130.635 28.4049 130.516 28.5288C130.398 28.6526 130.336 28.7845 130.333 28.9218C130.328 29.078 130.376 29.1937 130.476 29.2718C130.576 29.3499 130.683 29.4091 130.797 29.4468C130.937 29.4926 131.114 29.5329 131.33 29.5652C131.545 29.5975 131.755 29.6622 131.96 29.7591C132.172 29.856 132.339 30.0014 132.461 30.1925L132.463 30.1979Z" fill="black"/>
<path d="M133.672 31.7865V27.934H134.251V31.7865H133.672Z" fill="black"/>
<path d="M137.108 28.4779V31.8L136.513 31.7892L136.508 28.4779H135.285V27.9368H138.347V28.4779H137.108V28.4779Z" fill="black"/>
<path d="M141.204 30.2628L141.209 31.8H140.609V30.2843L139.225 27.926H139.879L140.908 29.6517L141.931 27.926H142.596L141.207 30.2628H141.204Z" fill="black"/>
<path d="M47.0895 26.1596H142.593" stroke="black" stroke-width="1.17021" stroke-miterlimit="10"/>
<path d="M47.0895 33.6411H142.593" stroke="black" stroke-width="1.17021" stroke-miterlimit="10"/>
<path d="M58.2048 22.4741H58.2156V17.9782C58.1698 17.0817 57.4724 16.4975 56.5703 16.4867H53.7269V13.8942H58.9911V12.3247H58.2479V7.47342C58.2263 6.37233 57.7066 5.89582 56.6134 5.88774C56.0318 5.88236 55.4529 5.88774 54.8713 5.89043H47.4745V7.5838H56.4976V12.3247H46.7259V13.8942H51.912V16.4867H47.3587V18.1936H56.4572V22.4741H58.2075H58.2048Z" fill="#020202"/>
<path d="M61.9611 21.1279C61.9988 21.8656 62.4673 22.264 63.2617 22.3959C63.609 22.4552 63.7275 22.4686 64.0291 22.4821H72.2983V16.3225H70.4565V17.6174H63.8891V16.2713H62.9413C62.8389 16.2713 62.7339 16.2713 62.6316 16.2713H61.9638V21.1253L61.9611 21.1279ZM70.4565 21.1791H63.8891V19.0604H70.4565V21.1791Z" fill="#020202"/>
<path d="M70.4727 14.3492V15.2807H72.2957V5.69128H70.4727V12.7178H62.9171V11.0325H68.2244V7.65925C68.1813 6.70892 67.6993 6.18395 66.7865 6.12203H61.0565V7.78039H66.3072V9.42799H61.0565V12.7716C61.1265 13.7408 61.6488 14.2658 62.5994 14.3466" fill="#020202"/>
<path d="M85.9448 12.26V7.50837C85.9448 7.50837 85.9448 5.93077 84.0115 5.885C82.0754 5.83654 75.4138 5.885 75.4138 5.885V7.48414H84.0734V12.26H80.5406V9.4521H78.715V12.26H74.6194V13.8511H86.7903V12.26H85.9475H85.9448Z" fill="#020202"/>
<path d="M80.7021 21.0338C78.6665 21.0338 77.0159 20.0593 77.0159 18.8559C77.0159 17.6525 78.6665 16.6806 80.7021 16.6806C82.7378 16.6806 84.3884 17.6552 84.3884 18.8559C84.3884 20.0566 82.7378 21.0338 80.7021 21.0338ZM80.7021 15.2296C77.6379 15.2296 75.1552 16.8556 75.1552 18.8586C75.1552 20.8615 77.6379 22.4849 80.7021 22.4849C83.7664 22.4849 86.249 20.8615 86.249 18.8586C86.249 16.8556 83.7664 15.2296 80.7021 15.2296Z" fill="#020202"/>
<path d="M100.598 14.9738H88.4489V16.589H93.5515V22.1564H95.4014V16.589H100.598V14.9738Z" fill="#020202"/>
<path d="M95.3531 7.48413H99.8256V5.89307H89.1761V7.48413H93.522C93.5355 8.17601 93.2824 10.7847 88.8152 11.6354L89.3619 13.1646C89.3619 13.1646 92.7466 12.4485 94.3864 10.5263C94.3864 10.5263 96.1501 12.6019 99.8014 13.2561L100.254 11.665C100.254 11.665 95.205 10.7874 95.3531 7.48413" fill="#020202"/>
<path d="M112.252 5.91732V12.4216H111.035V5.91732H109.188V17.612H104.47V7.48415H107.917L107.906 5.90924H102.658V17.3913C102.658 17.3913 102.626 19.2004 104.155 19.1708H109.188V22.1564H111.038V14.1526H112.255V22.1564H114.105V5.91732H112.255H112.252Z" fill="#020202"/>
<path d="M128.941 9.94205H127.493V5.84729H125.643V16.2821H127.493V11.6731H128.941V9.94205Z" fill="#020202"/>
<path d="M121.359 6.93492V5.47308H119.512V6.93492H116.151V8.55021H124.706V6.93492H121.359Z" fill="#020202"/>
<path d="M120.424 14.4407C119.21 14.4407 118.222 13.5227 118.222 12.3893C118.222 11.2559 119.207 10.3352 120.424 10.3352C121.641 10.3352 122.624 11.2532 122.624 12.3893C122.624 13.5254 121.641 14.4407 120.424 14.4407ZM120.424 8.93524C118.219 8.93524 116.434 10.4805 116.434 12.3866C116.434 14.2926 118.222 15.8379 120.424 15.8379C122.627 15.8379 124.415 14.2926 124.415 12.3866C124.415 10.4805 122.63 8.93524 120.424 8.93524Z" fill="#020202"/>
<path d="M116.733 16.8313V18.4062H125.597V22.6033H127.517V18.3901C127.517 18.3901 127.622 16.7856 125.842 16.8206L116.733 16.8286V16.8313Z" fill="#020202"/>
<path d="M130.495 6.52579V8.31338H139.672V17.8059H141.546V8.04955C141.546 8.04955 141.664 6.49079 139.917 6.52579H130.495V6.52579Z" fill="#020202"/>
<path d="M137.862 19.8196V12.2923H135.999V19.8196H133.998V12.2923H132.138V19.8196H129.878V21.3972H142.063V19.8196H137.862Z" fill="#020202"/>
<path d="M17.3247 4.96426C17.3247 4.96426 16.2342 4.9131 16.0942 3.65856C16.0942 3.65856 16.0349 2.50901 17.3247 2.35287C17.3247 2.35287 18.6334 2.54132 18.5607 3.65856C18.5607 3.65856 18.6818 4.87811 17.3247 4.96426ZM19.1181 3.65856C19.075 1.7929 17.3247 1.86828 17.3247 1.86828C15.421 1.95174 15.5341 3.65856 15.5341 3.65856C15.7468 5.61845 17.3247 5.45153 17.3247 5.45153C19.1988 5.45153 19.1181 3.65856 19.1181 3.65856" fill="#00A755"/>
<path d="M20.6124 2.73797L22.0395 5.57281H22.5323L22.9119 2.12147H22.4245L22.1095 4.58479L20.7012 1.86841H20.2139L19.8342 5.32244H20.3835L20.6124 2.73797Z" fill="#00A755"/>
<path d="M25.2384 3.60748L25.163 4.89163L24.3417 4.4905L25.2357 3.60748H25.2384ZM23.2054 5.76658L23.9593 4.96702L25.171 5.4516L25.198 6.52308L25.7338 6.7546L25.7554 3.05828L25.2895 2.81329L22.718 5.54044L23.2027 5.76389L23.2054 5.76658Z" fill="#00A755"/>
<path d="M27.538 7.29305L26.5767 6.70347L28.055 4.14324L27.6215 3.82556L25.8712 6.84885L27.2957 7.67265L27.538 7.29305Z" fill="#00A755"/>
<path d="M30.6937 9.94744L32.899 7.95794L32.5409 7.61065L30.5402 9.42247C30.5402 9.42247 30.0879 9.59207 29.8859 9.24209C29.8859 9.24209 29.6005 8.95673 29.8025 8.67405L31.655 6.74647L31.2969 6.36957L29.3043 8.32676C29.3043 8.32676 28.8762 8.91634 29.4443 9.52746C29.4443 9.52746 29.9829 10.2328 30.6937 9.95013" fill="#00A755"/>
<path d="M31.033 11.264L33.2141 9.83176L31.9727 12.6854L32.2259 13.0327L35.1555 11.1994L34.9024 10.7471L32.7725 12.1066L33.9222 9.36871L33.6476 8.94873L30.7395 10.8628L31.033 11.264Z" fill="#00A755"/>
<path d="M32.6271 14.0998L35.861 12.8231L35.6833 12.3597L32.4063 13.6554L32.6271 14.0998Z" fill="#00A755"/>
<path d="M33.1845 15.8568L36.9354 16.1206L36.9246 15.6791L34.0919 15.4476L36.2703 13.835L36.0899 13.3073L33.1199 15.5822L33.1845 15.8568Z" fill="#00A755"/>
<path d="M33.5938 19.1008L34.1135 19.1115L34.0488 17.7843L35.0586 17.7224L35.1636 19.0281L35.651 18.9958L35.554 17.7224L36.5853 17.6147L36.6311 18.9231L37.1454 18.9123L37 17.0574L33.4888 17.3428L33.5938 19.1008Z" fill="#00A755"/>
<path d="M35.5837 23.0259C35.5837 23.0259 35.0532 22.9317 34.5712 23.7286C34.5712 23.7286 34.3531 24.3236 33.6719 23.9413C33.6719 23.9413 33.1737 23.6021 33.7527 23.0717L34.3127 23.0421L34.2966 22.5037L33.6719 22.5279C33.6719 22.5279 32.9341 22.7163 32.9664 23.5617C32.9664 23.5617 32.9125 24.5901 34.1431 24.6116C34.1431 24.6116 34.7516 24.6439 35.0505 24.0355C35.0505 24.0355 35.2579 23.5213 35.5567 23.5213C35.5567 23.5213 36.001 23.5213 36.0684 23.9547C36.0684 23.9547 36.1814 24.5793 35.3871 24.4366L35.3817 24.9185C35.3817 24.9185 36.518 25.1877 36.5665 23.9467C36.5665 23.9467 36.6473 23.1336 35.5783 23.0206" fill="#00A755"/>
<path d="M32.3552 25.1584L35.5514 26.5511L35.8449 26.1147L32.541 24.6763L32.3552 25.1584Z" fill="#00A755"/>
<path d="M34.5094 27.4654L31.9002 26.0278L31.6174 26.4316L34.2482 27.9688L33.9008 28.4938L34.3263 28.7361L35.2687 27.2473L34.8594 26.9377L34.5094 27.4654Z" fill="#00A755"/>
<path d="M30.7072 27.775L30.3706 28.1465L31.3884 28.9191L32.479 31.124L32.8506 30.7309L32.0293 29.0914L33.8522 29.4737L34.1457 29.0833L31.7681 28.5934L30.7072 27.775Z" fill="#00A755"/>
<path d="M6.93097 29.0456L7.51797 27.1261L7.07368 26.6361L6.48668 28.6579L4.32446 28.6848L4.65566 29.156L6.81249 29.1721L5.47693 30.2086L5.75158 30.6259L8.56543 28.5152L8.2423 28.1303L6.93097 29.0456Z" fill="#00A755"/>
<path d="M5.48504 22.4661L2.87853 22.8995L5.15654 20.8777L5.08922 20.3151L1.61298 20.8939L1.68299 21.3892L4.21948 20.9935L2.00072 22.9857L2.05996 23.5322L5.54159 23.0422L5.48504 22.4661Z" fill="#00A755"/>
<path d="M3.42233 19.7442C5.41222 19.65 5.21565 17.9539 5.21565 17.9539C5.28566 16.3279 3.52196 16.2148 3.52196 16.2148L3.34155 18.3497L3.82354 18.4197L3.96356 16.904C4.86561 17.1247 4.72289 17.9862 4.72289 17.9862C4.49402 19.3161 3.34694 19.1788 3.34694 19.1788C2.03561 19.02 2.11369 17.9701 2.11369 17.9701C2.21063 17.114 2.63069 17.0144 2.63069 17.0144L2.67377 16.4059C1.4486 16.729 1.55092 18.0104 1.55092 18.0104C1.81481 19.8196 3.41964 19.7469 3.41964 19.7469" fill="#00A755"/>
<path d="M5.28566 15.1272C5.28566 15.1272 5.37991 15.6226 4.78752 15.5203L4.65558 16.0102L5.1268 16.0183C5.1268 16.0183 5.74611 16.0102 5.80266 15.1541C5.80266 15.1541 5.91844 14.5726 5.15372 14.193L2.59837 13.4042L2.4422 13.9023L4.85214 14.6938C4.85214 14.6938 5.3099 14.7718 5.28566 15.1299" fill="#00A755"/>
<path d="M6.67508 13.1109C6.67508 13.1109 7.26208 12.3355 6.55121 11.6571L4.0928 10.3702L3.84777 10.8198L6.10692 12.0286C6.10692 12.0286 6.62122 12.3059 6.20117 12.8282C6.20117 12.8282 6.05846 13.302 5.39875 12.9305L3.29577 11.8482L3.06689 12.2978L5.41221 13.547C5.41221 13.547 6.28464 13.8081 6.67777 13.1135" fill="#00A755"/>
<path d="M8.69187 9.91787L6.91201 8.06029L10.0032 8.7414L10.2886 8.43988L7.87868 5.95233L7.53671 6.25924L9.2681 8.11682L6.25231 7.43032L5.91034 7.77761L8.3149 10.284L8.69187 9.91787Z" fill="#00A755"/>
<path d="M11.3738 5.92808L10.5472 6.41536L10.2887 5.14467L11.3738 5.92808ZM10.9053 8.00373L10.6926 6.93225L11.7858 6.26729L12.7148 6.88918L13.151 6.61189L10.1379 4.39355L9.71246 4.64392L10.4314 8.30256L10.908 8.00104L10.9053 8.00373Z" fill="#00A755"/>
<path d="M12.2248 3.78779L13.458 6.53647L13.9723 6.30764L12.7391 3.59126L13.3153 3.28974L13.1107 2.86438L11.4655 3.62895L11.6566 4.03008L12.2248 3.78779Z" fill="#00A755"/>
<path d="M15.3778 5.86341L14.4516 2.50092L13.8915 2.65706L14.8097 6.0384L15.3778 5.86341Z" fill="#00A755"/>
<path d="M35.931 21.8495C35.931 21.8495 35.0612 21.8953 35.3171 20.5142L36.658 20.6408C36.658 20.6408 36.7442 21.8038 35.931 21.8495ZM33.6799 19.7658L33.6422 20.315L35.1178 20.4712L33.4349 21.4215L33.4133 22.0218L34.8728 21.2788C34.8431 22.4014 36.0522 22.3368 36.0522 22.3368C37.1588 22.3234 37.1481 20.8831 37.1481 20.8831L37.1992 20.1643L33.6799 19.7631V19.7658Z" fill="#00A755"/>
<path d="M3.48437 25.7827C3.48437 25.7827 3.45475 24.6682 4.75801 24.4797C4.75801 24.4797 5.92932 24.4555 6.05319 25.6831C6.05319 25.6831 6.12858 26.8838 4.71223 26.9699C4.71223 26.9699 3.584 26.978 3.48707 25.7827M4.70416 27.5218C6.66442 27.4815 6.61595 25.6885 6.61595 25.6885C6.59441 23.9817 4.74185 23.9197 4.74185 23.9197C2.80582 24.1809 2.94584 25.7612 2.94584 25.7612C3.08317 27.6188 4.70416 27.5245 4.70416 27.5245" fill="#00A755"/>
<path d="M19.3765 38.0913C9.01507 38.0913 0.61393 29.6917 0.61393 19.3323C0.61393 8.97294 9.01507 0.570736 19.3765 0.570736C29.7379 0.570736 38.1363 8.97294 38.1363 19.3323C38.1363 29.6917 29.3825 38.0913 19.3765 38.0913ZM19.3603 0C8.67041 0 0 8.66604 0 19.3566C0 30.0471 8.67041 38.7158 19.3603 38.7158C30.0502 38.7158 38.7233 29.6837 38.7233 19.3566C38.7233 9.02948 30.0583 0 19.3603 0" fill="#003893"/>
<path d="M16.8157 28.3348V31.0512H16.4065V28.6983H15.9325L15.9164 28.3348H16.8184H16.8157ZM18.1917 28.3214C18.1917 28.3214 19.1395 28.2971 19.1395 29.3605C19.1395 29.3605 18.9483 30.0363 18.119 31.0593H17.7286L18.2348 30.2247C18.2348 30.2247 17.1819 30.2974 17.2116 29.2663C17.2116 29.2663 17.2412 28.2675 18.1917 28.3187M19.1826 30.2543L20.3835 28.3887H20.7847V30.2759H21.0782V30.6366H20.7928V31.0458H20.4535V30.6366H19.1799V30.257L19.1826 30.2543ZM21.6383 29.024C21.6383 29.024 21.6087 28.2971 22.3869 28.3375C22.3869 28.3375 23.0735 28.2648 23.1247 29.0321C23.1247 29.0321 23.1785 29.3471 22.8743 29.5382C22.8743 29.5382 23.2835 29.8209 23.2512 30.2732C23.2512 30.2732 23.2836 31.0835 22.4111 31.14C22.4111 31.14 21.5979 31.1697 21.5252 30.2947C21.5252 30.2947 21.5037 29.7455 21.8941 29.5786C21.8941 29.5786 21.6087 29.4386 21.641 29.0213M19.3953 32.2034C24.5303 31.9369 27.6484 29.9797 29.544 27.6699L9.01776 27.6806C12.9114 32.5723 19.3926 32.2061 19.3926 32.2061" fill="#003893"/>
<path d="M30.1417 16.1853H8.54918V15.3642H30.1417V16.1853ZM25.0041 23.1068V16.7829H25.2707V17.9702L26.4716 16.8637C26.4716 16.8637 26.9913 17.8571 27.3871 17.3994C27.3871 17.3994 27.5622 17.7952 26.9267 18.1909L26.9159 22.7084C26.9159 22.7084 26.9267 23.4083 27.5918 23.1983L26.9751 24.3667C26.9751 24.3667 26.3612 24.4448 26.092 23.2602C26.092 23.2602 25.1253 23.9091 24.7456 24.4152C24.7456 24.4152 23.6497 23.3706 22.8177 24.0194C22.8177 24.0194 22.7853 23.2145 23.7978 22.816L23.7816 20.8588C23.7816 20.8588 23.3239 20.5573 23.1354 21.1442C23.1354 21.1442 23.0088 21.0796 22.9631 20.5762C22.9631 20.5762 22.9469 19.6258 23.7816 19.8008V18.4413C23.7816 18.4413 23.3723 17.1464 22.4218 18.409C22.4218 18.409 22.201 16.7991 23.5905 16.8287C23.5905 16.8287 24.5894 16.7345 24.6487 18.2044L24.6325 22.9453C24.6325 22.9453 24.9341 22.9641 24.9987 23.1041M17.4242 21.3031C17.4242 21.3031 17.2331 21.4161 17.2331 20.6569C17.2331 20.6569 17.2546 19.9435 17.917 20.0404V17.8759C17.917 17.8759 17.4431 17.4667 17.0311 18.4924C17.0311 18.4924 16.8103 18.5086 16.9207 17.6875C16.9207 17.6875 17.1765 16.7856 17.9197 16.8341C17.9197 16.8341 19.0425 16.4733 19.9419 19.3943C19.9419 19.3943 20.1277 20.1858 21.0809 19.6151V18.1936C21.0809 18.1936 20.6878 18.1775 20.6097 18.0348C20.6097 18.0348 20.4131 17.7333 20.1169 17.9567C20.1169 17.9567 20.2892 17.5933 20.922 16.8341C20.922 16.8341 21.6248 17.5313 22.2657 16.9472C22.2657 16.9472 22.613 17.6902 21.4148 18.1802V24.3721C21.4148 24.3721 20.6878 24.5956 19.8315 21.7203C19.8315 21.7203 18.9941 21.0527 18.2347 21.688L18.189 22.8887C18.189 22.8887 18.9187 22.8564 19.3468 23.3625L19.4545 23.2199L19.6457 23.411L18.9025 24.434C18.9025 24.434 17.9547 23.4406 16.7995 24.2456C16.7995 24.2456 16.8803 23.1714 17.9062 22.9668V21.0365C17.9062 21.0365 17.4808 20.9235 17.4296 21.3057M12.5963 17.8436C12.5963 17.8436 12.1062 17.8302 11.8369 17.6875C11.8369 17.6875 11.7265 17.561 11.0641 17.8302C11.0641 17.8302 11.2203 16.6268 12.2812 16.7695C12.2812 16.7695 13.1348 17.1168 13.4822 16.9122C13.4822 16.9122 13.3529 17.8167 12.5963 17.8463M14.5404 23.2656L14.6508 23.1876L14.8393 23.3437C14.8393 23.3437 14.1446 24.1837 14.0638 24.4206C14.0638 24.4206 13.8591 24.356 13.7164 24.1837C13.7164 24.1837 13.0082 23.5187 11.3307 24.216C11.3307 24.216 12.6097 21.8307 14.5404 23.2656ZM11.9608 20.9127C11.9608 20.9127 11.7912 20.63 11.3011 21.1954C11.3011 21.1954 10.8406 19.8224 11.9473 19.8843L11.9958 19.3782C11.9958 19.3782 12.1035 18.5436 12.9894 18.2394C12.9894 18.2394 12.8144 18.619 12.8332 18.8559L12.7982 21.7176C12.7982 21.7176 12.5774 23.0099 11.7238 22.948C11.7238 22.948 12.1197 22.6787 11.9608 20.91M14.0961 19.7901L15.5313 16.7856C15.5017 17.0871 16.0914 17.1356 16.0914 17.1356C16.2987 17.1975 16.4683 16.9768 16.4683 16.9768C16.611 17.6256 15.9298 18.1479 15.9298 18.1479C15.7655 18.4494 15.157 18.1182 15.157 18.1182L14.5242 19.7443C15.0628 19.8574 15.3159 21.26 15.3159 21.26C15.709 22.746 15.9783 22.9506 15.9783 22.9506C16.1506 23.3168 16.5949 23.1553 16.5949 23.1553C16.2637 23.5375 15.9136 24.3586 15.9136 24.3586C15.0762 24.5956 14.7612 22.5899 14.7612 22.5899C14.5404 21.2761 14.0961 20.6623 14.0961 20.6623C13.9884 22.6841 13.0675 22.3691 13.0675 22.3691C13.5414 22.1942 13.2748 18.6055 13.2748 18.6055C13.4472 17.1194 14.3169 17.1194 14.3169 17.1194C13.843 17.3887 14.0961 19.7928 14.0961 19.7928M29.2208 25.7936H9.43507V24.8782H29.2208V25.7936V25.7936ZM23.8813 14.3654H14.7127L19.3064 10.0041L23.8813 14.3654V14.3654ZM19.3306 6.92696L27.0613 14.3654H25.4376L19.2876 8.50725L13.1537 14.4085H11.6161L19.3306 6.92965V6.92696ZM19.3926 6.42084C6.37081 7.30656 6.17963 19.3162 6.17963 19.3162C6.35734 22.5414 7.19476 24.9536 8.36608 26.7708L30.2279 26.76C32.584 23.236 32.4817 19.3162 32.4817 19.3162C31.8489 6.42084 19.3926 6.42084 19.3926 6.42084Z" fill="#003893"/>
<path d="M21.1617 13.2867L19.3065 11.4954L17.4943 13.3083L21.1617 13.2867Z" fill="#003893"/>
<path d="M19.6457 21.1927C18.8406 18.2232 18.1755 17.9863 18.1755 17.9863L18.1917 21.2896C18.6979 20.8454 19.6457 21.1927 19.6457 21.1927" fill="#003893"/>
<path d="M21.0836 20.008C20.6716 20.2772 20.1493 20.0726 20.1493 20.0726C20.5128 21.731 21.0836 22.5359 21.0836 22.5359V20.008Z" fill="#003893"/>
<path d="M26.0786 19.4248V18.1749C25.8713 18.0322 25.7313 17.814 25.7313 17.814L25.2897 18.1911V19.3143C25.4485 19.6133 26.0786 19.4248 26.0786 19.4248Z" fill="#003893"/>
<path d="M26.0947 21.1934L26.0786 19.7549C26.0786 19.7549 25.715 19.93 25.2708 19.7711V21.1934C25.2708 21.1934 25.5858 21.0048 26.0947 21.1934Z" fill="#003893"/>
<path d="M26.0597 22.8834L26.084 21.5158C25.8066 21.2493 25.2438 21.505 25.2438 21.505L25.2869 23.3384C25.2869 23.4811 26.0597 22.8807 26.0597 22.8807" fill="#003893"/>
<path d="M18.1809 29.8566C18.8029 29.765 18.7409 29.299 18.7409 29.299C18.6979 28.7414 18.1809 28.7307 18.1809 28.7307C17.6666 28.666 17.6154 29.2883 17.6154 29.2883C17.5912 29.8162 18.1809 29.8566 18.1809 29.8566Z" fill="#003893"/>
<path d="M19.6566 30.2794H20.4347V28.9838L19.6566 30.1313V30.2794Z" fill="#003893"/>
<path d="M22.3842 29.4041C22.7343 29.396 22.7235 29.0566 22.7235 29.0566C22.7343 28.7199 22.3842 28.666 22.3842 28.666C21.975 28.7199 22.0396 29.0431 22.0396 29.0431C22.0073 29.4014 22.3842 29.4041 22.3842 29.4041Z" fill="#003893"/>
<path d="M22.3842 30.8069C22.9147 30.6883 22.8474 30.2708 22.8474 30.2708C22.8178 29.7833 22.3735 29.8048 22.3735 29.8048C21.9184 29.794 21.9103 30.26 21.9103 30.26C21.8699 30.7368 22.3815 30.8095 22.3815 30.8095" fill="#003893"/>
<path d="M13.1428 33.3208L13.6705 32.2143C13.6705 32.2143 13.8456 31.8482 13.3986 31.6247C12.9516 31.3986 11.3952 30.669 11.3952 30.669L11.2175 31.0405L13.237 31.9989L12.7066 33.1108L11.8826 32.7204L12.1949 32.0662L11.7695 31.8643L11.4572 32.5185L10.5013 32.0635L10.3262 32.4351L13.1643 33.7838L13.3393 33.4123L13.1428 33.3181V33.3208Z" fill="#00A755" stroke="#00A755" stroke-width="0.234043" stroke-miterlimit="10"/>
<path d="M10.9483 34.7853C10.4744 34.5592 10.1971 34.15 10.329 33.87C10.4636 33.59 10.9537 33.5442 11.4303 33.7704C11.9042 33.9965 12.1816 34.4057 12.0469 34.6857C11.915 34.9657 11.4195 35.0114 10.9456 34.7853M11.5892 33.4338C10.8756 33.0946 10.1163 33.1969 9.8928 33.6654C9.672 34.1311 10.0705 34.7853 10.7841 35.1245C11.4976 35.4637 12.257 35.3614 12.4805 34.893C12.7013 34.4272 12.3027 33.7731 11.5892 33.4338" fill="#00A755"/>
<path d="M10.9483 34.7853C10.4744 34.5592 10.1971 34.15 10.329 33.87C10.4636 33.59 10.9537 33.5442 11.4303 33.7704C11.9042 33.9965 12.1816 34.4057 12.0469 34.6857C11.915 34.9657 11.4195 35.0114 10.9456 34.7853M11.5892 33.4338C10.8756 33.0946 10.1163 33.1969 9.8928 33.6654C9.672 34.1311 10.0705 34.7853 10.7841 35.1245C11.4976 35.4637 12.257 35.3614 12.4805 34.893C12.7013 34.4272 12.3027 33.7731 11.5892 33.4338" stroke="#00A755" stroke-width="0.234043" stroke-miterlimit="10"/>
<path d="M24.8264 32.0042L25.0338 32.4027L27.0856 31.3312L28.195 33.4553L28.615 33.2345L27.476 31.0512C27.476 31.0512 27.3198 30.6878 26.9348 30.9004L24.8264 32.0015V32.0042Z" fill="#00A755"/>
<path d="M28.0281 34.1177L27.1476 32.4351L26.7329 32.6532L27.6107 34.3358L27.1637 34.57L26.2832 32.8847L25.8686 33.1028L26.7464 34.7881L26.2401 35.0492L26.4259 35.4046L29.1509 33.9804L28.9678 33.6277L28.0281 34.1177Z" fill="#00A755"/>
<path d="M16.5787 35.1569L13.6249 34.3573L13.5172 34.7504L14.7585 35.0842L14.3923 36.4383L14.8419 36.5622L15.2081 35.2053L16.471 35.5472L16.5787 35.1569Z" fill="#00A755" stroke="#00A755" stroke-width="0.234043" stroke-miterlimit="10"/>
<path d="M15.7952 32.9896L16.8831 33.2831L16.9881 32.8954L14.3977 32.1954L14.2927 32.5831L15.3509 32.8685C15.3078 33.0381 15.0736 33.6546 13.9319 33.5684L13.9642 33.9776C13.9642 33.9776 14.8339 34.0261 15.359 33.668C15.359 33.668 15.6525 34.2899 16.4953 34.6884L16.7107 34.333C16.7107 34.333 15.5394 33.7865 15.7925 32.9923" fill="#00A755"/>
<path d="M15.7952 32.9896L16.8831 33.2831L16.9881 32.8954L14.3977 32.1954L14.2927 32.5831L15.3509 32.8685C15.3078 33.0381 15.0736 33.6546 13.9319 33.5684L13.9642 33.9776C13.9642 33.9776 14.8339 34.0261 15.359 33.668C15.359 33.668 15.6525 34.2899 16.4953 34.6884L16.7107 34.333C16.7107 34.333 15.5394 33.7865 15.7925 32.9923" stroke="#00A755" stroke-width="0.234043" stroke-miterlimit="10"/>
<path d="M20.0334 33.0246V34.6372H19.7318V33.0246H19.2741V35.924H18.1055V33.415H18.959V33.0246H17.6558V35.8702C17.6558 35.8702 17.6477 36.3198 18.0274 36.3117H19.2741V37.0521H19.7318V35.0679H20.0334V37.0521H20.4912V33.0273H20.0334V33.0246Z" fill="#00A755" stroke="#00A755" stroke-width="0.234043" stroke-miterlimit="10"/>
<path d="M24.6298 33.0165L24.269 33.1161L23.9835 32.0984L23.5231 32.2277L24.2501 34.8202L24.7106 34.6937L24.3901 33.5468L24.751 33.4445L24.6298 33.0165Z" fill="#00A755" stroke="#00A755" stroke-width="0.234043" stroke-miterlimit="10"/>
<path d="M22.535 32.7961L22.4326 32.4324L21.9749 32.5617L22.0745 32.9254L21.2398 33.157L21.3529 33.5584L23.4801 32.9631L23.367 32.5617L22.535 32.7961Z" fill="#00A755" stroke="#00A755" stroke-width="0.234043" stroke-miterlimit="10"/>
<path d="M22.8257 34.7268C22.5242 34.8103 22.2145 34.6513 22.1364 34.3685C22.0583 34.0857 22.2387 33.7894 22.5403 33.7059C22.8419 33.6224 23.1516 33.7813 23.2296 34.0641C23.3077 34.347 23.1273 34.6433 22.8257 34.7268ZM22.4434 33.3584C21.8941 33.5119 21.5575 34.021 21.6921 34.4951C21.8241 34.9692 22.3761 35.2305 22.9254 35.0769C23.472 34.9234 23.8086 34.4143 23.6766 33.9402C23.5447 33.4661 22.9927 33.2049 22.4434 33.3584" fill="#00A755"/>
<path d="M22.4434 33.3584C21.8941 33.5119 21.5575 34.021 21.6921 34.4951C21.8241 34.9692 22.3761 35.2305 22.9254 35.0769C23.472 34.9234 23.8086 34.4143 23.6766 33.9402C23.5447 33.4661 22.9927 33.2049 22.4434 33.3584M22.8257 34.7268C22.5242 34.8103 22.2145 34.6513 22.1364 34.3685C22.0583 34.0857 22.2387 33.7894 22.5403 33.7059C22.8419 33.6224 23.1516 33.7813 23.2296 34.0641C23.3077 34.347 23.1273 34.6433 22.8257 34.7268Z" stroke="#00A755" stroke-width="0.234043" stroke-miterlimit="10"/>
<path d="M22.0744 35.577L22.1848 35.9676L24.3874 35.3508L24.6783 36.3959L25.1549 36.2612L24.8614 35.2134C24.8614 35.2134 24.7752 34.8067 24.3363 34.9386L22.0717 35.5744L22.0744 35.577Z" fill="#00A755" stroke="#00A755" stroke-width="0.234043" stroke-miterlimit="10"/>
<path d="M30.7665 31.2292C30.7665 31.4905 30.5537 31.7033 30.2925 31.7033C30.0314 31.7033 29.8186 31.4905 29.8186 31.2292C29.8186 30.9679 30.0314 30.7551 30.2925 30.7551C30.5537 30.7551 30.7665 30.9679 30.7665 31.2292Z" fill="#00A755"/>
<path d="M9.04206 31.2292C9.04206 31.4905 8.82934 31.7033 8.56815 31.7033C8.30696 31.7033 8.09424 31.4905 8.09424 31.2292C8.09424 30.9679 8.30696 30.7551 8.56815 30.7551C8.82934 30.7551 9.04206 30.9679 9.04206 31.2292Z" fill="#00A755"/>
</g>
<defs>
<clipPath id="clip0_847_3468">
<rect width="142.593" height="38.7158" fill="white"/>
</clipPath>
</defs>
</svg>
