<svg width="64" height="64" viewBox="0 0 64 64" fill="none" xmlns="http://www.w3.org/2000/svg">
<g clip-path="url(#clip0)">
<path d="M43.5944 9.28125H21.3869C15.2545 9.28125 10.2832 14.2526 10.2832 20.385V42.5924C10.2832 48.7248 15.2545 53.6961 21.3869 53.6961H43.5944C49.7268 53.6961 54.6981 48.7248 54.6981 42.5924V20.385C54.6981 14.2526 49.7268 9.28125 43.5944 9.28125Z" stroke="#C0C0C0" stroke-width="2.61378" stroke-linecap="round" stroke-linejoin="round"/>
<path d="M32.4899 39.8167C37.0892 39.8167 40.8177 36.0882 40.8177 31.4889C40.8177 26.8896 37.0892 23.1611 32.4899 23.1611C27.8906 23.1611 24.1621 26.8896 24.1621 31.4889C24.1621 36.0882 27.8906 39.8167 32.4899 39.8167Z" stroke="#C0C0C0" stroke-width="2.61378" stroke-linecap="round" stroke-linejoin="round"/>
<path d="M44.9824 18.9976V18.9998" stroke="#C0C0C0" stroke-width="2.61378" stroke-linecap="round" stroke-linejoin="round"/>
</g>
<defs>
<clipPath id="clip0">
<rect width="50.9778" height="50.9778" fill="white" transform="translate(7 6)"/>
</clipPath>
</defs>
</svg>
