<svg width="38" height="38" viewBox="0 0 38 38" fill="none" xmlns="http://www.w3.org/2000/svg">
<circle r="19" transform="matrix(-1 0 0 1 19 19)" fill="#2D9CDB"/>
<path d="M28.0001 14.1637C28.0001 14.5791 27.9155 14.9905 27.751 15.3743C27.5865 15.7581 27.3455 16.1069 27.0416 16.4007C26.7377 16.6944 26.3769 16.9275 25.9798 17.0865C25.5828 17.2454 25.1572 17.3273 24.7274 17.3273C24.2976 17.3273 23.8721 17.2454 23.475 17.0865C23.0779 16.9275 22.7172 16.6944 22.4133 16.4007C22.1094 16.1069 21.8683 15.7581 21.7038 15.3743C21.5394 14.9905 21.4547 14.5791 21.4547 14.1637L22.5351 14.1637C22.5351 14.442 22.5918 14.7175 22.702 14.9747C22.8122 15.2318 22.9736 15.4654 23.1772 15.6622C23.3808 15.859 23.6225 16.0151 23.8885 16.1216C24.1544 16.2281 24.4395 16.2829 24.7274 16.2829C25.0153 16.2829 25.3004 16.2281 25.5664 16.1216C25.8324 16.0151 26.074 15.859 26.2776 15.6622C26.4812 15.4654 26.6427 15.2318 26.7528 14.9747C26.863 14.7175 26.9197 14.442 26.9197 14.1637H28.0001Z" fill="white"/>
<path d="M22.2729 14.1637C22.2729 14.5791 22.1883 14.9905 22.0238 15.3743C21.8594 15.7581 21.6183 16.1069 21.3144 16.4007C21.0105 16.6944 20.6497 16.9275 20.2526 17.0865C19.8556 17.2454 19.43 17.3273 19.0002 17.3273C18.5705 17.3273 18.1449 17.2454 17.7478 17.0865C17.3508 16.9275 16.99 16.6944 16.6861 16.4007C16.3822 16.1069 16.1411 15.7581 15.9767 15.3743C15.8122 14.9905 15.7275 14.5791 15.7275 14.1637L16.8079 14.1637C16.8079 14.442 16.8646 14.7175 16.9748 14.9747C17.085 15.2318 17.2465 15.4654 17.45 15.6622C17.6536 15.859 17.8953 16.0151 18.1613 16.1216C18.4273 16.2281 18.7123 16.2829 19.0002 16.2829C19.2881 16.2829 19.5732 16.2281 19.8392 16.1216C20.1052 16.0151 20.3469 15.859 20.5504 15.6622C20.754 15.4654 20.9155 15.2318 21.0257 14.9747C21.1358 14.7175 21.1926 14.442 21.1926 14.1637H22.2729Z" fill="white"/>
<path d="M16.5458 14.1637C16.5458 14.5791 16.4611 14.9905 16.2967 15.3743C16.1322 15.7581 15.8911 16.1069 15.5872 16.4007C15.2833 16.6944 14.9225 16.9275 14.5255 17.0865C14.1284 17.2454 13.7028 17.3273 13.2731 17.3273C12.8433 17.3273 12.4177 17.2454 12.0207 17.0865C11.6236 16.9275 11.2628 16.6944 10.9589 16.4007C10.655 16.1069 10.414 15.7581 10.2495 15.3743C10.085 14.9905 10.0004 14.5791 10.0004 14.1637L11.0808 14.1637C11.0808 14.442 11.1375 14.7175 11.2476 14.9747C11.3578 15.2318 11.5193 15.4654 11.7229 15.6622C11.9264 15.859 12.1681 16.0151 12.4341 16.1216C12.7001 16.2281 12.9852 16.2829 13.2731 16.2829C13.561 16.2829 13.846 16.2281 14.112 16.1216C14.378 16.0151 14.6197 15.859 14.8233 15.6622C15.0268 15.4654 15.1883 15.2318 15.2985 14.9747C15.4087 14.7175 15.4654 14.442 15.4654 14.1637H16.5458Z" fill="white"/>
<path d="M28.0001 14.1637C28.0001 14.5791 27.9155 14.9905 27.751 15.3743C27.5865 15.7581 27.3455 16.1069 27.0416 16.4007C26.7377 16.6944 26.3769 16.9275 25.9798 17.0865C25.5828 17.2454 25.1572 17.3273 24.7274 17.3273C24.2976 17.3273 23.8721 17.2454 23.475 17.0865C23.0779 16.9275 22.7172 16.6944 22.4133 16.4007C22.1094 16.1069 21.8683 15.7581 21.7038 15.3743C21.5394 14.9905 21.4547 14.5791 21.4547 14.1637L22.2683 14.1637C22.2683 14.4758 22.3319 14.7849 22.4555 15.0734C22.5791 15.3618 22.7602 15.6238 22.9886 15.8446C23.2169 16.0653 23.488 16.2404 23.7863 16.3599C24.0847 16.4793 24.4045 16.5408 24.7274 16.5408C25.0504 16.5408 25.3701 16.4793 25.6685 16.3599C25.9668 16.2404 26.2379 16.0653 26.4663 15.8446C26.6946 15.6238 26.8758 15.3618 26.9993 15.0734C27.1229 14.7849 27.1865 14.4758 27.1865 14.1637H28.0001Z" fill="white"/>
<path d="M22.2729 14.1637C22.2729 14.5791 22.1883 14.9905 22.0238 15.3743C21.8594 15.7581 21.6183 16.1069 21.3144 16.4007C21.0105 16.6944 20.6497 16.9275 20.2526 17.0865C19.8556 17.2454 19.43 17.3273 19.0002 17.3273C18.5705 17.3273 18.1449 17.2454 17.7478 17.0865C17.3508 16.9275 16.99 16.6944 16.6861 16.4007C16.3822 16.1069 16.1411 15.7581 15.9767 15.3743C15.8122 14.9905 15.7275 14.5791 15.7275 14.1637L16.5411 14.1637C16.5411 14.4758 16.6047 14.7849 16.7283 15.0734C16.8519 15.3618 17.033 15.6238 17.2614 15.8446C17.4897 16.0653 17.7608 16.2404 18.0592 16.3599C18.3575 16.4793 18.6773 16.5408 19.0002 16.5408C19.3232 16.5408 19.643 16.4793 19.9413 16.3599C20.2397 16.2404 20.5108 16.0653 20.7391 15.8446C20.9675 15.6238 21.1486 15.3618 21.2722 15.0734C21.3958 14.7849 21.4594 14.4758 21.4594 14.1637H22.2729Z" fill="white"/>
<path d="M16.5458 14.1637C16.5458 14.5791 16.4611 14.9905 16.2967 15.3743C16.1322 15.7581 15.8911 16.1069 15.5872 16.4007C15.2833 16.6944 14.9225 16.9275 14.5255 17.0865C14.1284 17.2454 13.7028 17.3273 13.2731 17.3273C12.8433 17.3273 12.4177 17.2454 12.0207 17.0865C11.6236 16.9275 11.2628 16.6944 10.9589 16.4007C10.655 16.1069 10.414 15.7581 10.2495 15.3743C10.085 14.9905 10.0004 14.5791 10.0004 14.1637L10.8139 14.1637C10.8139 14.4758 10.8776 14.7849 11.0011 15.0734C11.1247 15.3618 11.3059 15.6238 11.5342 15.8446C11.7626 16.0653 12.0336 16.2404 12.332 16.3599C12.6304 16.4793 12.9501 16.5408 13.2731 16.5408C13.596 16.5408 13.9158 16.4793 14.2141 16.3599C14.5125 16.2404 14.7836 16.0653 15.0119 15.8446C15.2403 15.6238 15.4214 15.3618 15.545 15.0734C15.6686 14.7849 15.7322 14.4758 15.7322 14.1637H16.5458Z" fill="white"/>
<path d="M10 12.0002V25.0002C10 26.1048 10.8954 27.0002 12 27.0002H26C27.1046 27.0002 28 26.1048 28 25.0002V23.6669V22.3127V12.0002" stroke="white" stroke-width="2"/>
</svg>
