<svg width="787" height="390" viewBox="0 0 787 390" fill="none" xmlns="http://www.w3.org/2000/svg">
<path d="M787 0H0V390H787V0Z" fill="white"/>
<path d="M88.803 316.5H765.623" stroke="#E6E6E6"/>
<path d="M88.803 257.5H765.623" stroke="#E6E6E6"/>
<path d="M88.803 198.5H765.623" stroke="#E6E6E6"/>
<path d="M88.803 138.5H765.623" stroke="#E6E6E6"/>
<path d="M88.803 79.5H765.623" stroke="#E6E6E6"/>
<path d="M88.803 19.5H765.623" stroke="#E6E6E6"/>
<path d="M88.803 316.5H765.623" stroke="#CCD6EB"/>
<path d="M32.3676 187.03V185.23H37.5996C37.6236 185.842 37.6476 186.442 37.6596 187.03H32.3676ZM32.3676 184.27V183.082H31.5756V189.178H32.3676V187.978H37.6716C37.6836 188.494 37.6836 188.986 37.6836 189.442L38.5116 189.334C38.4996 187.378 38.4756 184.786 38.1036 182.47L37.3836 182.53C37.4556 183.094 37.5156 183.682 37.5396 184.27H32.3676ZM30.4236 181.594H41.1756V180.61H30.4236V181.594ZM37.8636 175.739C37.8636 176.579 37.1796 177.167 36.2196 177.167C35.2836 177.167 34.5996 176.579 34.5996 175.739C34.5996 174.911 35.2836 174.311 36.2196 174.311C37.1796 174.311 37.8636 174.911 37.8636 175.739ZM33.7716 175.739C33.7716 177.071 34.7796 178.043 36.2196 178.043C37.6836 178.043 38.6796 177.071 38.6796 175.739C38.6796 174.407 37.6836 173.435 36.2196 173.435C34.7796 173.435 33.7716 174.407 33.7716 175.739ZM30.7236 175.259V176.231H32.2476V178.415H33.0516V173.075H32.2476V175.259H30.7236ZM30.3996 170.231H34.9476V171.611H30.6516V172.535H40.6476V171.611H35.7516V170.231H41.1636V169.283H30.3996V170.231ZM33.7356 161.82H34.5396V159.492H38.3676V158.496H30.4236V159.492H33.7356V161.82ZM31.2516 166.656H32.0556V162.828C33.9876 163.044 35.5236 164.736 36.3396 167.196L37.1316 166.776C36.1236 163.728 34.0236 161.772 31.2516 161.772L31.2516 166.656ZM40.1316 164.316H37.5636V165.3H40.9356V158.22H40.1316V164.316ZM34.5156 147.061C34.2276 149.017 32.8956 150.937 31.3956 150.937H30.7956V151.969H31.3956C32.9316 151.969 34.2276 153.865 34.5156 155.821L35.3076 155.425C35.0196 153.745 34.0956 152.125 32.7876 151.453C34.0836 150.757 35.0196 149.137 35.3076 147.469L34.5156 147.061ZM36.4716 146.593V156.313H37.2876V151.969H41.1876V150.985H37.2876V146.581L36.4716 146.593Z" fill="#666666"/>
<path d="M108.71 304.16L148.523 299.424L188.336 288.768L228.149 287.584L267.962 86.896L307.775 143.728L347.588 273.968L387.401 257.392L427.214 283.44L467.027 236.08L506.84 311.856L546.653 309.488L586.466 185.76L626.278 235.488L666.091 109.984L705.904 185.76L745.717 261.536" stroke="#7CB5EC" stroke-width="2" stroke-linecap="round" stroke-linejoin="round"/>
<path d="M108.735 307C107.807 307 106.917 306.631 106.261 305.975C105.604 305.319 105.236 304.429 105.235 303.501C105.235 302.573 105.604 301.683 106.26 301.026C106.916 300.37 107.805 300 108.734 300C109.662 300 110.552 300.368 111.209 301.024C111.865 301.679 112.235 302.569 112.235 303.497C112.236 304.425 111.868 305.316 111.212 305.973C110.557 306.63 109.667 306.999 108.739 307H108.735Z" fill="#7CB5EC"/>
<path d="M148.085 302C147.157 302 146.267 301.631 145.611 300.975C144.955 300.319 144.586 299.429 144.585 298.501C144.585 297.573 144.954 296.683 145.61 296.026C146.266 295.37 147.156 295 148.084 295C149.012 295 149.902 295.368 150.559 296.024C151.215 296.679 151.585 297.569 151.585 298.497C151.586 299.425 151.218 300.316 150.562 300.973C149.907 301.63 149.017 301.999 148.089 302H148.085Z" fill="#7CB5EC"/>
<path d="M187.435 292C186.507 292 185.617 291.631 184.96 290.975C184.304 290.319 183.935 289.429 183.935 288.501C183.935 287.573 184.303 286.683 184.959 286.026C185.615 285.37 186.505 285 187.433 285C188.361 285 189.252 285.368 189.908 286.024C190.565 286.679 190.934 287.569 190.935 288.497C190.936 289.425 190.568 290.316 189.912 290.973C189.256 291.63 188.367 291.999 187.439 292H187.435Z" fill="#7CB5EC"/>
<path d="M228.097 291C227.169 291 226.279 290.631 225.623 289.975C224.966 289.319 224.597 288.429 224.597 287.501C224.597 286.573 224.965 285.683 225.621 285.026C226.277 284.37 227.167 284 228.095 284C229.024 284 229.914 284.368 230.57 285.024C231.227 285.679 231.596 286.569 231.597 287.497C231.598 288.425 231.23 289.316 230.574 289.973C229.919 290.63 229.029 290.999 228.101 291H228.097Z" fill="#7CB5EC"/>
<path d="M267.447 90C266.519 90 265.629 89.6314 264.972 88.9752C264.316 88.319 263.947 87.429 263.947 86.5009C263.947 85.5728 264.315 84.6826 264.971 84.0261C265.627 83.3695 266.517 83.0005 267.445 83C268.373 82.9995 269.263 83.3677 269.92 84.0236C270.577 84.6794 270.946 85.5693 270.947 86.4974C270.947 87.4255 270.58 88.3159 269.924 88.9727C269.268 89.6296 268.378 89.9991 267.45 90H267.447Z" fill="#7CB5EC"/>
<path d="M306.797 147C305.869 147 304.979 146.631 304.322 145.975C303.666 145.319 303.297 144.429 303.297 143.501C303.297 142.573 303.665 141.683 304.321 141.026C304.977 140.37 305.867 140 306.795 140C307.723 140 308.614 140.368 309.27 141.024C309.927 141.679 310.296 142.569 310.297 143.497C310.298 144.425 309.93 145.316 309.274 145.973C308.618 146.63 307.728 146.999 306.8 147H306.797Z" fill="#7CB5EC"/>
<path d="M347.459 277C346.531 277 345.641 276.631 344.984 275.975C344.328 275.319 343.959 274.429 343.959 273.501C343.959 272.573 344.327 271.683 344.983 271.026C345.639 270.37 346.529 270 347.457 270C348.385 270 349.276 270.368 349.932 271.024C350.589 271.679 350.958 272.569 350.959 273.497C350.96 274.425 350.592 275.316 349.936 275.973C349.28 276.63 348.391 276.999 347.462 277H347.459Z" fill="#7CB5EC"/>
<path d="M386.809 260C385.88 260 384.99 259.631 384.334 258.975C383.678 258.319 383.309 257.429 383.309 256.501C383.308 255.573 383.677 254.683 384.333 254.026C384.989 253.37 385.879 253 386.807 253C387.735 253 388.625 253.368 389.282 254.024C389.939 254.679 390.308 255.569 390.309 256.497C390.309 257.425 389.941 258.316 389.286 258.973C388.63 259.63 387.74 259.999 386.812 260H386.809Z" fill="#7CB5EC"/>
<path d="M427.47 286C426.542 286 425.652 285.631 424.996 284.975C424.339 284.319 423.97 283.429 423.97 282.501C423.97 281.573 424.338 280.683 424.994 280.026C425.65 279.37 426.54 279 427.468 279C428.397 279 429.287 279.368 429.944 280.024C430.6 280.679 430.97 281.569 430.97 282.497C430.971 283.425 430.603 284.316 429.947 284.973C429.292 285.63 428.402 285.999 427.474 286H427.47Z" fill="#7CB5EC"/>
<path d="M466.82 239C465.892 239 465.002 238.631 464.345 237.975C463.689 237.319 463.32 236.429 463.32 235.501C463.32 234.573 463.688 233.683 464.344 233.026C465 232.37 465.89 232 466.818 232C467.746 232 468.636 232.368 469.293 233.024C469.95 233.679 470.319 234.569 470.32 235.497C470.321 236.425 469.953 237.316 469.297 237.973C468.641 238.63 467.751 238.999 466.823 239H466.82Z" fill="#7CB5EC"/>
<path d="M506.17 315C505.242 315 504.352 314.631 503.696 313.975C503.04 313.319 502.671 312.429 502.67 311.501C502.67 310.573 503.039 309.683 503.695 309.026C504.351 308.37 505.241 308 506.169 308C507.097 308 507.987 308.368 508.644 309.024C509.3 309.679 509.67 310.569 509.67 311.497C509.671 312.425 509.303 313.316 508.647 313.973C507.992 314.63 507.102 314.999 506.174 315H506.17Z" fill="#7CB5EC"/>
<path d="M546.832 312C545.904 312 545.014 311.631 544.357 310.975C543.701 310.319 543.332 309.429 543.332 308.501C543.332 307.573 543.7 306.683 544.356 306.026C545.012 305.37 545.902 305 546.83 305C547.758 305 548.649 305.368 549.305 306.024C549.962 306.679 550.331 307.569 550.332 308.497C550.333 309.425 549.965 310.316 549.309 310.973C548.653 311.63 547.764 311.999 546.836 312H546.832Z" fill="#7CB5EC"/>
<path d="M586.182 189C585.254 189 584.363 188.631 583.707 187.975C583.051 187.319 582.682 186.429 582.682 185.501C582.681 184.573 583.05 183.683 583.706 183.026C584.362 182.37 585.252 182 586.18 182C587.108 182 587.998 182.368 588.655 183.024C589.312 183.679 589.681 184.569 589.682 185.497C589.682 186.425 589.314 187.316 588.659 187.973C588.003 188.63 587.113 188.999 586.185 189H586.182Z" fill="#7CB5EC"/>
<path d="M625.532 238C624.604 238 623.714 237.631 623.058 236.975C622.401 236.319 622.032 235.429 622.032 234.501C622.032 233.573 622.4 232.683 623.056 232.026C623.712 231.37 624.602 231 625.53 231C626.459 231 627.349 231.368 628.006 232.024C628.662 232.679 629.032 233.569 629.032 234.497C629.033 235.425 628.665 236.316 628.009 236.973C627.354 237.63 626.464 237.999 625.536 238H625.532Z" fill="#7CB5EC"/>
<path d="M666.193 113C665.265 113 664.375 112.631 663.719 111.975C663.062 111.319 662.694 110.429 662.693 109.501C662.693 108.573 663.062 107.683 663.718 107.026C664.374 106.37 665.263 106 666.192 106C667.12 106 668.01 106.368 668.667 107.024C669.323 107.679 669.693 108.569 669.693 109.497C669.694 110.425 669.326 111.316 668.67 111.973C668.015 112.63 667.125 112.999 666.197 113H666.193Z" fill="#7CB5EC"/>
<path d="M705.544 189C704.616 189 703.726 188.631 703.069 187.975C702.413 187.319 702.044 186.429 702.044 185.501C702.044 184.573 702.412 183.683 703.068 183.026C703.724 182.37 704.614 182 705.542 182C706.47 182 707.361 182.368 708.017 183.024C708.674 183.679 709.043 184.569 709.044 185.497C709.045 186.425 708.677 187.316 708.021 187.973C707.365 188.63 706.476 188.999 705.547 189H705.544Z" fill="#7CB5EC"/>
<path d="M744.894 265C743.965 265 743.075 264.631 742.419 263.975C741.763 263.319 741.394 262.429 741.394 261.501C741.393 260.573 741.762 259.683 742.418 259.026C743.074 258.37 743.964 258 744.892 258C745.82 258 746.71 258.368 747.367 259.024C748.024 259.679 748.393 260.569 748.394 261.497C748.394 262.425 748.026 263.316 747.371 263.973C746.715 264.63 745.825 264.999 744.897 265H744.894Z" fill="#7CB5EC"/>
<path d="M362.832 368.5H383.818" stroke="#7CB5EC" stroke-width="2"/>
<path d="M373.331 372.5C372.27 372.5 371.253 372.079 370.503 371.329C369.753 370.579 369.331 369.562 369.331 368.501C369.331 367.44 369.752 366.423 370.502 365.673C371.251 364.922 372.268 364.501 373.329 364.5C374.39 364.499 375.407 364.92 376.158 365.67C376.908 366.419 377.33 367.436 377.331 368.497C377.332 369.558 376.911 370.575 376.162 371.326C375.413 372.077 374.396 372.499 373.335 372.5L373.331 372.5Z" fill="#7CB5EC"/>
<path d="M393.653 363.772H394.889V368.644C394.469 368.656 394.061 368.68 393.653 368.68V363.772ZM396.413 363.772H397.361V362.5H391.157V363.772H392.117V368.716C391.685 368.716 391.265 368.716 390.869 368.716L391.037 370.012C393.017 370 395.561 369.952 397.889 369.556L397.793 368.416C397.337 368.476 396.881 368.524 396.413 368.548V363.772ZM398.501 361.492V372.544H400.097V361.492H398.501ZM404.584 368.836C403.984 368.836 403.552 368.356 403.552 367.528C403.552 366.7 403.984 366.208 404.584 366.208C405.184 366.208 405.616 366.7 405.616 367.528C405.616 368.356 405.184 368.836 404.584 368.836ZM404.584 364.888C403.168 364.888 402.16 365.98 402.16 367.528C402.16 369.064 403.168 370.156 404.584 370.156C406 370.156 407.008 369.064 407.008 367.528C407.008 365.98 406 364.888 404.584 364.888ZM405.364 361.78H403.804V363.148H401.92V364.408H407.2V363.148H405.364V361.78ZM409.912 361.468V365.98H409.072V361.684H407.596V372.064H409.072V367.252H409.912V372.52H411.412V361.468H409.912ZM418.719 364.696V365.98H420.627V369.556H422.211V361.48H420.627V364.696H418.719ZM413.679 362.308V363.568H417.123C416.859 365.188 415.407 366.508 413.103 367.228L413.751 368.5C416.967 367.48 418.815 365.296 418.815 362.308H413.679ZM416.571 371.08V368.764H414.987V372.34H422.487V371.08H416.571ZM433.646 365.404C431.138 365.056 429.866 363.616 429.866 362.332V361.804H428.174V362.332C428.174 363.628 426.914 365.056 424.394 365.404L424.994 366.676C426.926 366.388 428.318 365.488 429.026 364.3C429.734 365.488 431.114 366.388 433.046 366.676L433.646 365.404ZM434.006 367.492H424.022V368.776H428.186V372.544H429.77V368.776H434.006V367.492Z" fill="#333333"/>
<path d="M92.5702 343.472L91.7751 344.076L86.5041 340.067L85.4952 341.725L84.777 341.179L86.192 338.809L86.316 338.714L92.5702 343.472ZM95.1822 337.323C95.2136 337.598 95.1737 337.869 95.0625 338.136C94.9542 338.4 94.7633 338.636 94.4897 338.844C94.1306 339.118 93.7287 339.289 93.2841 339.358C92.8424 339.425 92.3893 339.393 91.9247 339.261C91.4573 339.126 91.0298 338.912 90.6422 338.617C90.2261 338.3 89.9297 337.956 89.753 337.583C89.5792 337.208 89.5493 336.842 89.6633 336.487C89.7773 336.131 90.0281 335.806 90.4157 335.511C91.0312 335.043 91.7466 334.85 92.5617 334.933C93.3768 335.011 94.1819 335.352 94.977 335.957L95.2079 336.133C96.4191 337.054 97.0646 337.909 97.1444 338.698C97.2213 339.485 96.7839 340.251 95.832 340.997L95.6781 341.114L95.0112 340.607L95.1779 340.48C95.8192 339.975 96.1512 339.464 96.174 338.948C96.1939 338.43 95.8633 337.888 95.1822 337.323ZM93.9639 338.249C94.2289 338.048 94.3913 337.801 94.4512 337.508C94.5139 337.213 94.4768 336.936 94.34 336.676L94.0237 336.435C93.505 336.04 92.9706 335.805 92.4206 335.729C91.8706 335.653 91.4231 335.747 91.0783 336.009C90.7306 336.273 90.5852 336.588 90.6422 336.952C90.6964 337.314 90.9415 337.661 91.3775 337.992C91.8022 338.315 92.2539 338.505 92.7327 338.562C93.2115 338.614 93.6219 338.51 93.9639 338.249ZM100.098 333.583C100.13 333.858 100.09 334.129 99.9787 334.396C99.8704 334.661 99.6794 334.897 99.4058 335.105C99.0467 335.378 98.6449 335.549 98.2003 335.619C97.7586 335.686 97.3054 335.653 96.8409 335.521C96.3735 335.387 95.946 335.172 95.5584 334.877C95.1423 334.561 94.8459 334.216 94.6692 333.843C94.4954 333.468 94.4654 333.103 94.5794 332.747C94.6934 332.392 94.9442 332.067 95.3318 331.772C95.9474 331.304 96.6628 331.111 97.4778 331.193C98.2929 331.271 99.098 331.613 99.8932 332.217L100.124 332.393C101.335 333.314 101.981 334.17 102.061 334.959C102.138 335.746 101.7 336.512 100.748 337.258L100.594 337.375L99.9274 336.867L100.094 336.741C100.735 336.235 101.067 335.725 101.09 335.209C101.11 334.691 100.78 334.149 100.098 333.583ZM98.88 334.51C99.1451 334.308 99.3075 334.061 99.3674 333.769C99.4301 333.474 99.393 333.196 99.2562 332.936L98.9399 332.695C98.4212 332.301 97.8868 332.066 97.3368 331.99C96.7867 331.914 96.3393 332.007 95.9944 332.269C95.6467 332.534 95.5014 332.848 95.5584 333.212C95.6126 333.575 95.8576 333.921 96.2937 334.253C96.7183 334.576 97.1701 334.766 97.6488 334.822C98.1276 334.874 98.538 334.77 98.88 334.51ZM105.968 329.242C106.894 329.947 107.424 330.591 107.558 331.174C107.692 331.757 107.423 332.304 106.75 332.816C106.086 333.321 105.375 333.528 104.617 333.437C103.856 333.344 103.032 332.969 102.146 332.312L101.09 331.509C100.175 330.813 99.6538 330.175 99.5255 329.597C99.3973 329.018 99.6709 328.471 100.346 327.958C101.016 327.448 101.724 327.237 102.471 327.324C103.215 327.408 104.038 327.788 104.942 328.462L105.968 329.242ZM104.095 329.021C103.426 328.512 102.844 328.212 102.351 328.124C101.855 328.033 101.404 328.142 100.996 328.452C100.591 328.76 100.449 329.1 100.569 329.473C100.688 329.846 101.062 330.275 101.689 330.761L102.954 331.723C103.627 332.235 104.221 332.539 104.737 332.637C105.253 332.73 105.709 332.626 106.105 332.325C106.495 332.028 106.633 331.693 106.519 331.32C106.408 330.945 106.032 330.507 105.391 330.006L104.095 329.021Z" fill="#666666"/>
<path d="M132.374 343.474L131.579 344.079L126.313 340.064L125.305 341.725L124.587 341.178L126.001 338.804L126.125 338.71L132.374 343.474ZM134.984 337.316C135.015 337.592 134.975 337.863 134.864 338.13C134.756 338.395 134.565 338.631 134.292 338.84C133.933 339.113 133.531 339.285 133.087 339.354C132.646 339.422 132.193 339.389 131.729 339.257C131.262 339.122 130.835 338.907 130.447 338.612C130.032 338.295 129.735 337.95 129.559 337.576C129.385 337.201 129.355 336.835 129.469 336.479C129.583 336.123 129.834 335.797 130.221 335.502C130.836 335.033 131.551 334.84 132.365 334.922C133.18 335 133.984 335.342 134.778 335.948L135.009 336.124C136.219 337.047 136.864 337.903 136.944 338.693C137.021 339.481 136.584 340.249 135.633 340.996L135.479 341.113L134.813 340.605L134.979 340.478C135.62 339.972 135.952 339.461 135.974 338.944C135.994 338.425 135.664 337.882 134.984 337.316ZM133.766 338.244C134.031 338.042 134.193 337.794 134.253 337.501C134.316 337.206 134.279 336.928 134.142 336.668L133.826 336.427C133.308 336.032 132.774 335.796 132.224 335.72C131.675 335.644 131.228 335.738 130.883 336C130.536 336.265 130.39 336.58 130.447 336.945C130.501 337.307 130.746 337.654 131.182 337.987C131.606 338.31 132.058 338.5 132.536 338.557C133.014 338.609 133.424 338.504 133.766 338.244ZM139.896 333.571C139.927 333.847 139.887 334.118 139.776 334.385C139.668 334.65 139.477 334.887 139.204 335.095C138.845 335.368 138.443 335.54 137.999 335.609C137.558 335.677 137.105 335.644 136.641 335.512C136.174 335.377 135.747 335.162 135.359 334.867C134.944 334.55 134.647 334.205 134.471 333.831C134.297 333.456 134.267 333.09 134.381 332.734C134.495 332.378 134.746 332.052 135.133 331.757C135.748 331.288 136.463 331.095 137.277 331.177C138.092 331.256 138.896 331.598 139.691 332.203L139.921 332.379C141.131 333.302 141.776 334.158 141.856 334.948C141.933 335.736 141.496 336.504 140.545 337.251L140.391 337.368L139.725 336.86L139.891 336.733C140.532 336.227 140.864 335.716 140.886 335.199C140.906 334.68 140.576 334.138 139.896 333.571ZM138.678 334.499C138.943 334.297 139.105 334.05 139.165 333.757C139.228 333.461 139.191 333.183 139.054 332.923L138.738 332.682C138.22 332.287 137.686 332.051 137.136 331.975C136.587 331.899 136.14 331.993 135.795 332.255C135.448 332.52 135.302 332.835 135.359 333.2C135.413 333.562 135.658 333.91 136.094 334.242C136.518 334.565 136.97 334.755 137.448 334.812C137.926 334.864 138.337 334.76 138.678 334.499ZM147.11 332.239L146.315 332.845L141.049 328.83L140.041 330.49L139.323 329.943L140.737 327.569L140.861 327.475L147.11 332.239Z" fill="#666666"/>
<path d="M172.187 343.474L171.392 344.079L166.126 340.064L165.118 341.725L164.4 341.178L165.814 338.804L165.938 338.71L172.187 343.474ZM174.796 337.316C174.828 337.592 174.788 337.863 174.677 338.13C174.569 338.395 174.378 338.631 174.105 338.84C173.746 339.113 173.344 339.285 172.9 339.354C172.459 339.422 172.006 339.389 171.542 339.257C171.075 339.122 170.648 338.907 170.26 338.612C169.845 338.295 169.548 337.95 169.372 337.576C169.198 337.201 169.168 336.835 169.282 336.479C169.396 336.123 169.647 335.797 170.034 335.502C170.649 335.033 171.364 334.84 172.178 334.922C172.993 335 173.797 335.342 174.591 335.948L174.822 336.124C176.032 337.047 176.677 337.903 176.757 338.693C176.834 339.481 176.397 340.249 175.446 340.996L175.292 341.113L174.626 340.605L174.792 340.478C175.433 339.972 175.765 339.461 175.787 338.944C175.807 338.425 175.477 337.882 174.796 337.316ZM173.579 338.244C173.844 338.042 174.006 337.795 174.066 337.501C174.129 337.206 174.092 336.928 173.955 336.668L173.639 336.427C173.121 336.032 172.587 335.796 172.037 335.72C171.488 335.644 171.041 335.738 170.696 336C170.349 336.265 170.203 336.58 170.26 336.945C170.314 337.307 170.559 337.654 170.995 337.987C171.419 338.31 171.871 338.5 172.349 338.557C172.827 338.609 173.237 338.504 173.579 338.244ZM179.709 333.571C179.74 333.847 179.7 334.118 179.589 334.385C179.481 334.65 179.29 334.887 179.017 335.095C178.658 335.368 178.256 335.54 177.812 335.609C177.371 335.677 176.918 335.644 176.454 335.512C175.987 335.377 175.56 335.162 175.172 334.867C174.757 334.55 174.46 334.205 174.284 333.831C174.11 333.456 174.08 333.09 174.194 332.734C174.308 332.378 174.559 332.052 174.946 331.757C175.561 331.288 176.276 331.095 177.09 331.177C177.905 331.256 178.709 331.598 179.504 332.203L179.734 332.379C180.944 333.302 181.589 334.158 181.669 334.948C181.746 335.736 181.309 336.504 180.358 337.251L180.204 337.368L179.538 336.86L179.704 336.733C180.345 336.227 180.677 335.716 180.699 335.199C180.719 334.68 180.389 334.138 179.709 333.571ZM178.491 334.499C178.756 334.297 178.918 334.05 178.978 333.757C179.041 333.461 179.004 333.183 178.867 332.923L178.551 332.682C178.033 332.287 177.499 332.051 176.949 331.975C176.4 331.899 175.953 331.993 175.608 332.255C175.261 332.52 175.115 332.835 175.172 333.2C175.226 333.562 175.471 333.91 175.907 334.242C176.331 334.565 176.783 334.755 177.261 334.812C177.739 334.864 178.149 334.76 178.491 334.499ZM188.401 331.112L184.326 334.219L183.758 333.786L183.519 330.321C183.476 329.802 183.402 329.411 183.296 329.149C183.191 328.882 183.017 328.656 182.775 328.471C182.451 328.224 182.086 328.096 181.682 328.087C181.278 328.078 180.912 328.199 180.584 328.449C180.191 328.748 179.998 329.067 180.003 329.406C180.009 329.74 180.211 330.059 180.61 330.363L179.82 330.966C179.247 330.529 178.968 330.037 178.982 329.487C178.999 328.936 179.317 328.425 179.935 327.954C180.513 327.513 181.122 327.281 181.763 327.257C182.401 327.231 182.972 327.41 183.476 327.794C184.088 328.261 184.427 329.114 184.492 330.354L184.633 333.001L187.756 330.621L188.401 331.112Z" fill="#666666"/>
<path d="M211.999 343.474L211.205 344.079L205.938 340.064L204.93 341.725L204.213 341.178L205.627 338.804L205.75 338.71L211.999 343.474ZM214.609 337.316C214.641 337.592 214.601 337.863 214.49 338.13C214.381 338.395 214.191 338.631 213.917 338.84C213.558 339.113 213.157 339.285 212.713 339.354C212.271 339.422 211.819 339.389 211.354 339.257C210.887 339.122 210.46 338.907 210.073 338.612C209.657 338.295 209.361 337.95 209.185 337.576C209.011 337.201 208.981 336.835 209.095 336.479C209.209 336.123 209.459 335.797 209.847 335.502C210.462 335.033 211.177 334.84 211.991 334.922C212.805 335 213.61 335.342 214.404 335.948L214.635 336.124C215.845 337.047 216.49 337.903 216.57 338.693C216.647 339.481 216.21 340.249 215.258 340.996L215.105 341.113L214.438 340.605L214.605 340.478C215.246 339.972 215.577 339.461 215.6 338.944C215.62 338.425 215.29 337.882 214.609 337.316ZM213.392 338.244C213.657 338.042 213.819 337.794 213.879 337.501C213.941 337.206 213.904 336.928 213.768 336.668L213.452 336.427C212.933 336.032 212.4 335.796 211.85 335.72C211.3 335.644 210.853 335.738 210.509 336C210.161 336.265 210.016 336.58 210.073 336.945C210.127 337.307 210.372 337.654 210.808 337.987C211.232 338.31 211.683 338.5 212.162 338.557C212.64 338.609 213.05 338.504 213.392 338.244ZM219.521 333.571C219.553 333.847 219.513 334.118 219.402 334.385C219.293 334.65 219.103 334.887 218.829 335.095C218.471 335.368 218.069 335.54 217.625 335.609C217.183 335.677 216.731 335.644 216.267 335.512C215.8 335.377 215.372 335.162 214.985 334.867C214.569 334.55 214.273 334.205 214.097 333.831C213.923 333.456 213.893 333.09 214.007 332.734C214.121 332.378 214.371 332.052 214.759 331.757C215.374 331.288 216.089 331.095 216.903 331.177C217.717 331.256 218.522 331.598 219.316 332.203L219.547 332.379C220.757 333.302 221.402 334.158 221.482 334.948C221.559 335.736 221.122 336.504 220.171 337.251L220.017 337.368L219.35 336.86L219.517 336.733C220.158 336.227 220.489 335.716 220.512 335.199C220.532 334.68 220.202 334.138 219.521 333.571ZM218.304 334.499C218.569 334.297 218.731 334.05 218.791 333.757C218.854 333.461 218.817 333.183 218.68 332.923L218.364 332.682C217.845 332.287 217.312 332.051 216.762 331.975C216.212 331.899 215.765 331.993 215.421 332.255C215.073 332.52 214.928 332.835 214.985 333.2C215.039 333.562 215.284 333.91 215.72 334.242C216.144 334.565 216.595 334.755 217.074 334.812C217.552 334.864 217.962 334.76 218.304 334.499ZM221.794 330.679L222.387 330.227C222.755 329.938 222.95 329.639 222.973 329.331C222.995 329.023 222.844 328.745 222.52 328.497C221.791 327.942 221.063 327.941 220.337 328.494C219.995 328.755 219.82 329.038 219.812 329.344C219.803 329.646 219.96 329.919 220.282 330.165L219.491 330.767C218.999 330.392 218.77 329.943 218.804 329.422C218.838 328.897 219.133 328.423 219.688 327.999C220.274 327.552 220.89 327.32 221.533 327.302C222.177 327.285 222.775 327.487 223.327 327.908C223.598 328.114 223.771 328.381 223.848 328.709C223.928 329.035 223.879 329.36 223.703 329.686C224.153 329.508 224.596 329.444 225.031 329.494C225.47 329.542 225.87 329.703 226.232 329.979C226.79 330.405 227.05 330.881 227.013 331.409C226.976 331.936 226.666 332.422 226.082 332.868C225.498 333.313 224.865 333.555 224.181 333.594C223.501 333.631 222.901 333.452 222.383 333.056L223.178 332.451C223.505 332.7 223.874 332.819 224.284 332.806C224.694 332.793 225.078 332.649 225.437 332.376C225.819 332.085 226.011 331.786 226.014 331.48C226.017 331.174 225.831 330.879 225.458 330.595C225.097 330.319 224.708 330.192 224.292 330.214C223.877 330.235 223.457 330.404 223.032 330.718L222.439 331.171L221.794 330.679Z" fill="#666666"/>
<path d="M251.812 343.474L251.018 344.079L245.751 340.064L244.743 341.725L244.026 341.178L245.44 338.804L245.563 338.71L251.812 343.474ZM254.422 337.316C254.454 337.592 254.414 337.863 254.303 338.13C254.194 338.395 254.004 338.631 253.73 338.84C253.371 339.113 252.97 339.285 252.526 339.354C252.084 339.422 251.632 339.389 251.167 339.257C250.7 339.122 250.273 338.907 249.886 338.612C249.47 338.295 249.174 337.95 248.998 337.576C248.824 337.201 248.794 336.835 248.908 336.479C249.022 336.123 249.272 335.797 249.66 335.502C250.275 335.033 250.989 334.84 251.804 334.922C252.618 335 253.423 335.342 254.217 335.948L254.448 336.124C255.658 337.047 256.303 337.903 256.383 338.693C256.46 339.481 256.023 340.249 255.071 340.996L254.918 341.113L254.251 340.605L254.418 340.478C255.059 339.972 255.39 339.461 255.413 338.944C255.433 338.425 255.103 337.882 254.422 337.316ZM253.205 338.244C253.47 338.042 253.632 337.794 253.692 337.501C253.754 337.206 253.717 336.928 253.581 336.668L253.265 336.427C252.746 336.032 252.213 335.796 251.663 335.72C251.113 335.644 250.666 335.738 250.322 336C249.974 336.265 249.829 336.58 249.886 336.945C249.94 337.307 250.185 337.654 250.621 337.987C251.045 338.31 251.496 338.5 251.975 338.557C252.453 338.609 252.863 338.504 253.205 338.244ZM259.334 333.571C259.366 333.847 259.326 334.118 259.215 334.385C259.106 334.65 258.916 334.887 258.642 335.095C258.284 335.368 257.882 335.54 257.438 335.609C256.996 335.677 256.544 335.644 256.08 335.512C255.613 335.377 255.185 335.162 254.798 334.867C254.382 334.55 254.086 334.205 253.91 333.831C253.736 333.456 253.706 333.09 253.82 332.734C253.934 332.378 254.184 332.052 254.572 331.757C255.187 331.288 255.902 331.095 256.716 331.177C257.53 331.256 258.335 331.598 259.129 332.203L259.36 332.379C260.57 333.302 261.215 334.158 261.295 334.948C261.372 335.736 260.935 336.504 259.984 337.251L259.83 337.368L259.163 336.86L259.33 336.733C259.971 336.227 260.302 335.716 260.325 335.199C260.345 334.68 260.015 334.138 259.334 333.571ZM258.117 334.499C258.382 334.297 258.544 334.05 258.604 333.757C258.667 333.461 258.629 333.183 258.493 332.923L258.177 332.682C257.658 332.287 257.125 332.051 256.575 331.975C256.025 331.899 255.578 331.993 255.234 332.255C254.886 332.52 254.741 332.835 254.798 333.2C254.852 333.562 255.097 333.91 255.533 334.242C255.957 334.565 256.408 334.755 256.887 334.812C257.365 334.864 257.775 334.76 258.117 334.499ZM265.199 330.083L266.062 329.425L266.707 329.917L265.844 330.575L267.288 331.676L266.493 332.281L265.049 331.181L262.217 333.34L261.752 332.985L260.227 327.576L261.068 326.934L265.199 330.083ZM262.469 332.164L264.404 330.689L261.355 328.364L261.431 328.566L262.469 332.164Z" fill="#666666"/>
<path d="M291.626 343.474L290.831 344.079L285.565 340.064L284.557 341.725L283.839 341.178L285.253 338.804L285.377 338.71L291.626 343.474ZM294.235 337.316C294.267 337.592 294.227 337.863 294.116 338.13C294.008 338.395 293.817 338.631 293.544 338.84C293.185 339.113 292.783 339.285 292.339 339.354C291.898 339.422 291.445 339.389 290.981 339.257C290.514 339.122 290.087 338.907 289.699 338.612C289.284 338.295 288.987 337.95 288.811 337.576C288.637 337.201 288.607 336.835 288.721 336.479C288.835 336.123 289.086 335.797 289.473 335.502C290.088 335.033 290.803 334.84 291.617 334.922C292.432 335 293.236 335.342 294.03 335.948L294.261 336.124C295.471 337.047 296.116 337.903 296.196 338.693C296.273 339.481 295.836 340.249 294.885 340.996L294.731 341.113L294.065 340.605L294.231 340.478C294.872 339.972 295.204 339.461 295.226 338.944C295.246 338.425 294.916 337.882 294.235 337.316ZM293.018 338.244C293.283 338.042 293.445 337.794 293.505 337.501C293.568 337.206 293.531 336.928 293.394 336.668L293.078 336.427C292.56 336.032 292.026 335.796 291.476 335.72C290.927 335.644 290.48 335.738 290.135 336C289.788 336.265 289.642 336.58 289.699 336.945C289.753 337.307 289.998 337.654 290.434 337.987C290.858 338.31 291.31 338.5 291.788 338.557C292.266 338.609 292.676 338.504 293.018 338.244ZM299.148 333.571C299.179 333.847 299.139 334.118 299.028 334.385C298.92 334.65 298.729 334.887 298.456 335.095C298.097 335.368 297.695 335.54 297.251 335.609C296.81 335.677 296.357 335.644 295.893 335.512C295.426 335.377 294.999 335.162 294.611 334.867C294.196 334.55 293.899 334.205 293.723 333.831C293.549 333.456 293.519 333.09 293.633 332.734C293.747 332.378 293.998 332.052 294.385 331.757C295 331.288 295.715 331.095 296.529 331.177C297.344 331.256 298.148 331.598 298.942 332.203L299.173 332.379C300.383 333.302 301.028 334.158 301.108 334.948C301.185 335.736 300.748 336.504 299.797 337.251L299.643 337.368L298.977 336.86L299.143 336.733C299.784 336.227 300.116 335.716 300.138 335.199C300.158 334.68 299.828 334.138 299.148 333.571ZM297.93 334.499C298.195 334.297 298.357 334.05 298.417 333.757C298.48 333.461 298.443 333.183 298.306 332.923L297.99 332.682C297.472 332.287 296.938 332.051 296.388 331.975C295.839 331.899 295.392 331.993 295.047 332.255C294.7 332.52 294.554 332.835 294.611 333.2C294.665 333.562 294.91 333.91 295.346 334.242C295.77 334.565 296.222 334.755 296.7 334.812C297.178 334.864 297.588 334.76 297.93 334.499ZM301.01 331.565L298.225 328.96L301.411 326.531L302.142 327.087L299.626 329.005L301.134 330.442C301.259 330.072 301.515 329.74 301.903 329.445C302.469 329.013 303.107 328.813 303.816 328.846C304.522 328.876 305.194 329.135 305.832 329.621C306.473 330.109 306.805 330.627 306.827 331.174C306.85 331.717 306.551 332.225 305.93 332.698C305.381 333.117 304.78 333.343 304.128 333.376C303.476 333.408 302.856 333.238 302.27 332.864L303.017 332.294C303.422 332.529 303.818 332.637 304.205 332.62C304.589 332.601 304.949 332.463 305.285 332.206C305.653 331.926 305.815 331.612 305.772 331.262C305.732 330.91 305.492 330.566 305.051 330.23C304.635 329.913 304.188 329.746 303.709 329.728C303.231 329.707 302.804 329.839 302.428 330.126C302.083 330.388 301.888 330.652 301.843 330.917L301.804 331.207L301.01 331.565Z" fill="#666666"/>
<path d="M331.439 343.474L330.644 344.079L325.378 340.064L324.37 341.725L323.652 341.178L325.066 338.804L325.19 338.71L331.439 343.474ZM334.048 337.316C334.08 337.592 334.04 337.863 333.929 338.13C333.821 338.395 333.63 338.631 333.356 338.84C332.998 339.113 332.596 339.285 332.152 339.354C331.711 339.422 331.258 339.389 330.794 339.257C330.327 339.122 329.9 338.907 329.512 338.612C329.097 338.295 328.8 337.95 328.624 337.576C328.45 337.201 328.42 336.835 328.534 336.479C328.648 336.123 328.899 335.797 329.286 335.502C329.901 335.033 330.616 334.84 331.43 334.922C332.245 335 333.049 335.342 333.843 335.948L334.074 336.124C335.284 337.047 335.929 337.903 336.009 338.693C336.086 339.481 335.649 340.249 334.698 340.996L334.544 341.113L333.878 340.605L334.044 340.478C334.685 339.972 335.017 339.461 335.039 338.944C335.059 338.425 334.729 337.882 334.048 337.316ZM332.831 338.244C333.096 338.042 333.258 337.794 333.318 337.501C333.381 337.206 333.344 336.928 333.207 336.668L332.891 336.427C332.373 336.032 331.839 335.796 331.289 335.72C330.74 335.644 330.293 335.738 329.948 336C329.601 336.265 329.455 336.58 329.512 336.945C329.566 337.307 329.811 337.654 330.247 337.987C330.671 338.31 331.123 338.5 331.601 338.557C332.079 338.609 332.489 338.504 332.831 338.244ZM338.96 333.571C338.992 333.847 338.952 334.118 338.841 334.385C338.733 334.65 338.542 334.887 338.269 335.095C337.91 335.368 337.508 335.54 337.064 335.609C336.623 335.677 336.17 335.644 335.706 335.512C335.239 335.377 334.812 335.162 334.424 334.867C334.009 334.55 333.712 334.205 333.536 333.831C333.362 333.456 333.332 333.09 333.446 332.734C333.56 332.378 333.811 332.052 334.198 331.757C334.813 331.288 335.528 331.095 336.342 331.177C337.157 331.256 337.961 331.598 338.755 332.203L338.986 332.379C340.196 333.302 340.841 334.158 340.921 334.948C340.998 335.736 340.561 336.504 339.61 337.251L339.456 337.368L338.79 336.86L338.956 336.733C339.597 336.227 339.929 335.716 339.951 335.199C339.971 334.68 339.641 334.138 338.96 333.571ZM337.743 334.499C338.008 334.297 338.17 334.05 338.23 333.757C338.293 333.461 338.256 333.183 338.119 332.923L337.803 332.682C337.285 332.287 336.751 332.051 336.201 331.975C335.652 331.899 335.205 331.993 334.86 332.255C334.513 332.52 334.367 332.835 334.424 333.2C334.478 333.562 334.723 333.91 335.159 334.242C335.583 334.565 336.035 334.755 336.513 334.812C336.991 334.864 337.401 334.76 337.743 334.499ZM340.455 327.11L341.126 327.621L340.981 327.732C340.377 328.21 340.07 328.722 340.058 329.269C340.047 329.816 340.333 330.356 340.917 330.888C340.868 330.351 341.127 329.867 341.694 329.435C342.235 329.023 342.857 328.839 343.561 328.885C344.267 328.928 344.922 329.18 345.526 329.64C346.166 330.129 346.504 330.653 346.538 331.213C346.575 331.771 346.3 332.274 345.713 332.721C345.118 333.175 344.408 333.369 343.582 333.304C342.753 333.237 341.979 332.928 341.258 332.379L340.955 332.148C339.81 331.275 339.18 330.423 339.063 329.592C338.946 328.756 339.363 327.964 340.315 327.218L340.455 327.11ZM342.22 330.038C341.949 330.244 341.781 330.496 341.716 330.793C341.65 331.091 341.696 331.366 341.852 331.62L342.143 331.842C342.655 332.233 343.183 332.459 343.727 332.522C344.271 332.585 344.715 332.485 345.06 332.223C345.416 331.951 345.564 331.639 345.504 331.285C345.447 330.929 345.207 330.589 344.782 330.266C344.355 329.94 343.907 329.757 343.437 329.715C342.967 329.67 342.561 329.777 342.22 330.038Z" fill="#666666"/>
<path d="M372.73 342.347L368.655 345.454L368.087 345.02L367.848 341.556C367.805 341.037 367.731 340.646 367.626 340.383C367.52 340.116 367.346 339.891 367.104 339.706C366.78 339.459 366.415 339.33 366.011 339.322C365.607 339.313 365.241 339.434 364.913 339.683C364.52 339.983 364.327 340.302 364.332 340.641C364.338 340.975 364.54 341.294 364.939 341.598L364.149 342.2C363.576 341.764 363.297 341.271 363.311 340.722C363.329 340.171 363.646 339.659 364.264 339.188C364.842 338.748 365.451 338.515 366.092 338.491C366.73 338.465 367.301 338.644 367.805 339.029C368.417 339.495 368.756 340.349 368.821 341.588L368.962 344.236L372.085 341.855L372.73 342.347ZM374.814 336.713C375.74 337.419 376.269 338.064 376.403 338.648C376.537 339.232 376.268 339.78 375.596 340.292C374.932 340.798 374.222 341.005 373.464 340.914C372.704 340.821 371.881 340.445 370.996 339.787L369.941 338.983C369.027 338.286 368.505 337.648 368.377 337.068C368.249 336.489 368.523 335.942 369.197 335.427C369.867 334.917 370.574 334.705 371.32 334.792C372.063 334.877 372.886 335.257 373.789 335.932L374.814 336.713ZM372.943 336.492C372.274 335.982 371.693 335.682 371.201 335.593C370.705 335.502 370.254 335.612 369.847 335.922C369.442 336.23 369.3 336.571 369.419 336.945C369.539 337.318 369.912 337.748 370.539 338.234L371.803 339.198C372.475 339.71 373.069 340.015 373.584 340.113C374.099 340.206 374.555 340.102 374.951 339.8C375.341 339.503 375.479 339.168 375.365 338.794C375.254 338.419 374.878 337.98 374.238 337.479L372.943 336.492ZM379.726 332.968C380.652 333.674 381.181 334.319 381.315 334.903C381.449 335.487 381.18 336.035 380.508 336.547C379.844 337.053 379.134 337.26 378.376 337.169C377.616 337.076 376.793 336.7 375.908 336.043L374.853 335.238C373.939 334.541 373.417 333.903 373.289 333.323C373.161 332.744 373.435 332.197 374.109 331.682C374.779 331.172 375.486 330.96 376.232 331.047C376.975 331.132 377.798 331.512 378.701 332.187L379.726 332.968ZM377.855 332.747C377.186 332.237 376.605 331.937 376.113 331.848C375.617 331.757 375.166 331.867 374.759 332.177C374.354 332.485 374.212 332.826 374.332 333.2C374.451 333.573 374.824 334.003 375.451 334.489L376.715 335.453C377.387 335.965 377.981 336.27 378.496 336.368C379.011 336.462 379.467 336.357 379.863 336.056C380.253 335.758 380.391 335.423 380.277 335.049C380.166 334.674 379.79 334.235 379.15 333.734L377.855 332.747ZM385.988 332.239L385.194 332.845L379.927 328.83L378.919 330.49L378.201 329.943L379.615 327.569L379.739 327.475L385.988 332.239Z" fill="#666666"/>
<path d="M412.542 342.347L408.467 345.454L407.899 345.02L407.66 341.556C407.617 341.037 407.543 340.646 407.438 340.383C407.333 340.116 407.159 339.891 406.917 339.706C406.592 339.459 406.228 339.33 405.823 339.322C405.419 339.313 405.053 339.434 404.726 339.683C404.333 339.983 404.139 340.302 404.145 340.641C404.151 340.975 404.353 341.294 404.751 341.598L403.961 342.2C403.389 341.764 403.11 341.271 403.124 340.722C403.141 340.171 403.459 339.659 404.076 339.188C404.655 338.748 405.264 338.515 405.905 338.491C406.542 338.465 407.113 338.644 407.617 339.029C408.23 339.495 408.569 340.349 408.634 341.588L408.775 344.236L411.897 341.855L412.542 342.347ZM414.627 336.713C415.552 337.419 416.082 338.064 416.216 338.648C416.349 339.232 416.08 339.78 415.408 340.292C414.745 340.798 414.034 341.005 413.277 340.914C412.517 340.821 411.694 340.445 410.808 339.787L409.753 338.983C408.839 338.286 408.318 337.648 408.19 337.068C408.062 336.489 408.335 335.942 409.01 335.427C409.679 334.917 410.387 334.705 411.133 334.792C411.876 334.877 412.699 335.257 413.602 335.932L414.627 336.713ZM412.756 336.492C412.087 335.982 411.506 335.682 411.013 335.593C410.518 335.502 410.066 335.612 409.659 335.922C409.255 336.23 409.112 336.571 409.232 336.945C409.352 337.318 409.725 337.748 410.351 338.234L411.615 339.198C412.287 339.71 412.881 340.015 413.397 340.113C413.912 340.206 414.368 340.102 414.763 339.8C415.153 339.503 415.292 339.168 415.178 338.794C415.067 338.419 414.691 337.98 414.05 337.479L412.756 336.492ZM419.539 332.968C420.464 333.674 420.994 334.319 421.128 334.903C421.262 335.487 420.992 336.035 420.32 336.547C419.657 337.053 418.946 337.26 418.189 337.169C417.429 337.076 416.606 336.7 415.72 336.043L414.665 335.238C413.751 334.541 413.23 333.903 413.102 333.323C412.974 332.744 413.247 332.197 413.922 331.682C414.591 331.172 415.299 330.96 416.045 331.047C416.788 331.132 417.611 331.512 418.514 332.187L419.539 332.968ZM417.668 332.747C416.999 332.237 416.418 331.937 415.925 331.848C415.43 331.757 414.978 331.867 414.571 332.177C414.167 332.485 414.024 332.826 414.144 333.2C414.264 333.573 414.637 334.003 415.263 334.489L416.527 335.453C417.199 335.965 417.793 336.27 418.309 336.368C418.824 336.462 419.28 336.357 419.675 336.056C420.066 335.758 420.204 335.423 420.09 335.049C419.979 334.674 419.603 334.235 418.962 333.734L417.668 332.747ZM422.379 327.84C422.69 328.076 422.883 328.35 422.96 328.66C423.04 328.969 423.008 329.281 422.866 329.598C423.33 329.457 423.79 329.417 424.246 329.478C424.704 329.536 425.103 329.695 425.442 329.953C425.98 330.363 426.226 330.829 426.181 331.35C426.138 331.869 425.82 332.354 425.228 332.806C424.63 333.262 423.991 333.506 423.31 333.538C422.63 333.567 422.022 333.377 421.486 332.968C421.15 332.712 420.938 332.412 420.85 332.066C420.765 331.719 420.814 331.368 421 331.015C420.587 331.121 420.179 331.143 419.778 331.08C419.376 331.017 419.022 330.868 418.714 330.634C418.19 330.234 417.943 329.789 417.971 329.299C418 328.808 418.289 328.353 418.838 327.934C419.385 327.517 419.98 327.298 420.624 327.276C421.27 327.252 421.855 327.44 422.379 327.84ZM424.634 330.542C424.287 330.278 423.893 330.146 423.451 330.148C423.013 330.148 422.616 330.284 422.26 330.555C421.904 330.827 421.726 331.128 421.726 331.458C421.729 331.785 421.906 332.084 422.26 332.353C422.613 332.622 422.994 332.755 423.404 332.75C423.817 332.744 424.21 332.598 424.583 332.314C424.953 332.032 425.143 331.733 425.151 331.418C425.157 331.101 424.985 330.809 424.634 330.542ZM419.487 328.429C419.177 328.666 419.022 328.932 419.022 329.227C419.022 329.518 419.187 329.789 419.517 330.041C419.833 330.282 420.184 330.406 420.568 330.412C420.953 330.414 421.303 330.295 421.619 330.054C421.935 329.813 422.09 329.547 422.084 329.256C422.079 328.961 421.918 328.693 421.602 328.452C421.286 328.211 420.93 328.089 420.534 328.087C420.138 328.085 419.789 328.199 419.487 328.429Z" fill="#666666"/>
<path d="M452.355 342.347L448.28 345.454L447.712 345.02L447.473 341.556C447.43 341.037 447.356 340.646 447.251 340.383C447.146 340.116 446.972 339.891 446.73 339.706C446.405 339.459 446.041 339.33 445.636 339.322C445.232 339.313 444.866 339.434 444.539 339.683C444.146 339.983 443.952 340.302 443.958 340.641C443.964 340.975 444.166 341.294 444.564 341.598L443.774 342.2C443.202 341.764 442.923 341.271 442.937 340.722C442.954 340.171 443.272 339.659 443.889 339.188C444.468 338.748 445.077 338.515 445.718 338.491C446.355 338.465 446.926 338.644 447.43 339.029C448.043 339.495 448.381 340.349 448.447 341.588L448.588 344.236L451.71 341.855L452.355 342.347ZM454.44 336.713C455.365 337.419 455.895 338.064 456.029 338.648C456.162 339.232 455.893 339.78 455.221 340.292C454.558 340.798 453.847 341.005 453.09 340.914C452.33 340.821 451.507 340.445 450.621 339.787L449.566 338.983C448.652 338.286 448.131 337.648 448.003 337.068C447.875 336.489 448.148 335.942 448.823 335.427C449.492 334.917 450.2 334.705 450.946 334.792C451.689 334.877 452.512 335.257 453.415 335.932L454.44 336.713ZM452.569 336.492C451.9 335.982 451.319 335.682 450.826 335.593C450.331 335.502 449.879 335.612 449.472 335.922C449.068 336.23 448.925 336.571 449.045 336.945C449.165 337.318 449.538 337.748 450.164 338.234L451.428 339.198C452.1 339.71 452.694 340.015 453.21 340.113C453.725 340.206 454.181 340.102 454.576 339.8C454.966 339.503 455.105 339.168 454.991 338.794C454.88 338.419 454.504 337.98 453.863 337.479L452.569 336.492ZM459.352 332.968C460.277 333.674 460.807 334.319 460.941 334.903C461.075 335.487 460.805 336.035 460.133 336.547C459.47 337.053 458.759 337.26 458.002 337.169C457.242 337.076 456.419 336.7 455.533 336.043L454.478 335.238C453.564 334.541 453.043 333.903 452.915 333.323C452.787 332.744 453.06 332.197 453.735 331.682C454.404 331.172 455.112 330.96 455.858 331.047C456.601 331.132 457.424 331.512 458.327 332.187L459.352 332.968ZM457.481 332.747C456.812 332.237 456.231 331.937 455.738 331.848C455.243 331.757 454.791 331.867 454.384 332.177C453.98 332.485 453.837 332.826 453.957 333.2C454.077 333.573 454.45 334.003 455.076 334.489L456.34 335.453C457.012 335.965 457.606 336.27 458.122 336.368C458.637 336.462 459.093 336.357 459.488 336.056C459.879 335.758 460.017 335.423 459.903 335.049C459.792 334.674 459.416 334.235 458.775 333.734L457.481 332.747ZM463.311 329.826C463.343 330.102 463.303 330.373 463.192 330.64C463.083 330.905 462.893 331.142 462.619 331.35C462.261 331.624 461.859 331.795 461.415 331.865C460.973 331.932 460.521 331.899 460.057 331.767C459.589 331.632 459.162 331.417 458.775 331.122C458.359 330.805 458.063 330.46 457.887 330.087C457.713 329.711 457.683 329.345 457.797 328.989C457.911 328.633 458.161 328.307 458.549 328.012C459.164 327.543 459.879 327.35 460.693 327.433C461.507 327.511 462.312 327.853 463.106 328.458L463.337 328.634C464.547 329.557 465.192 330.413 465.272 331.204C465.349 331.992 464.912 332.759 463.961 333.506L463.807 333.623L463.14 333.115L463.307 332.988C463.948 332.482 464.279 331.971 464.302 331.454C464.322 330.935 463.992 330.393 463.311 329.826ZM462.094 330.754C462.359 330.552 462.521 330.305 462.581 330.012C462.644 329.716 462.606 329.439 462.47 329.178L462.154 328.937C461.635 328.542 461.102 328.306 460.552 328.23C460.002 328.154 459.555 328.248 459.211 328.51C458.863 328.775 458.718 329.09 458.775 329.455C458.829 329.817 459.074 330.165 459.51 330.497C459.934 330.82 460.385 331.01 460.864 331.067C461.342 331.119 461.752 331.015 462.094 330.754Z" fill="#666666"/>
<path d="M492.168 342.347L488.093 345.454L487.525 345.02L487.286 341.556C487.243 341.037 487.169 340.646 487.064 340.383C486.958 340.116 486.785 339.891 486.543 339.706C486.218 339.459 485.854 339.33 485.449 339.322C485.045 339.313 484.679 339.434 484.351 339.683C483.958 339.983 483.765 340.302 483.771 340.641C483.776 340.975 483.978 341.294 484.377 341.598L483.587 342.2C483.015 341.764 482.735 341.271 482.75 340.722C482.767 340.171 483.084 339.659 483.702 339.188C484.28 338.748 484.89 338.515 485.53 338.491C486.168 338.465 486.739 338.644 487.243 339.029C487.855 339.495 488.194 340.349 488.26 341.588L488.401 344.236L491.523 341.855L492.168 342.347ZM494.252 336.713C495.178 337.419 495.708 338.064 495.841 338.648C495.975 339.232 495.706 339.78 495.034 340.292C494.371 340.798 493.66 341.005 492.903 340.914C492.142 340.821 491.319 340.445 490.434 339.787L489.379 338.983C488.465 338.286 487.944 337.648 487.816 337.068C487.687 336.489 487.961 335.942 488.636 335.427C489.305 334.917 490.012 334.705 490.758 334.792C491.502 334.877 492.325 335.257 493.227 335.932L494.252 336.713ZM492.382 336.492C491.712 335.982 491.131 335.682 490.639 335.593C490.143 335.502 489.692 335.612 489.285 335.922C488.881 336.23 488.738 336.571 488.858 336.945C488.977 337.318 489.35 337.748 489.977 338.234L491.241 339.198C491.913 339.71 492.507 340.015 493.022 340.113C493.538 340.206 493.993 340.102 494.389 339.8C494.779 339.503 494.917 339.168 494.803 338.794C494.692 338.419 494.316 337.98 493.676 337.479L492.382 336.492ZM500.514 335.984L499.72 336.59L494.453 332.574L493.445 334.235L492.728 333.688L494.141 331.314L494.265 331.22L500.514 335.984ZM500.484 330.679L501.078 330.227C501.445 329.938 501.64 329.639 501.663 329.331C501.686 329.023 501.535 328.745 501.21 328.497C500.481 327.942 499.754 327.941 499.028 328.494C498.686 328.755 498.511 329.038 498.502 329.344C498.494 329.646 498.65 329.919 498.972 330.165L498.182 330.767C497.689 330.392 497.46 329.943 497.494 329.422C497.529 328.897 497.823 328.423 498.379 327.999C498.965 327.552 499.58 327.32 500.224 327.302C500.867 327.285 501.465 327.487 502.018 327.908C502.288 328.114 502.462 328.381 502.539 328.709C502.619 329.035 502.57 329.36 502.394 329.686C502.844 329.508 503.286 329.444 503.722 329.494C504.161 329.542 504.561 329.703 504.922 329.979C505.48 330.405 505.741 330.881 505.704 331.409C505.667 331.936 505.356 332.422 504.773 332.868C504.189 333.313 503.555 333.555 502.872 333.594C502.191 333.631 501.592 333.452 501.074 333.056L501.868 332.451C502.196 332.7 502.564 332.819 502.975 332.806C503.385 332.793 503.769 332.649 504.128 332.376C504.509 332.085 504.702 331.786 504.704 331.48C504.707 331.174 504.522 330.879 504.149 330.595C503.787 330.319 503.399 330.192 502.983 330.214C502.567 330.235 502.147 330.404 501.723 330.718L501.129 331.171L500.484 330.679Z" fill="#666666"/>
<path d="M531.981 342.347L527.906 345.454L527.338 345.02L527.099 341.556C527.056 341.037 526.982 340.646 526.877 340.383C526.771 340.116 526.598 339.891 526.356 339.706C526.031 339.459 525.667 339.33 525.262 339.322C524.858 339.313 524.492 339.434 524.164 339.683C523.771 339.983 523.578 340.302 523.584 340.641C523.589 340.975 523.791 341.294 524.19 341.598L523.4 342.2C522.828 341.764 522.548 341.271 522.563 340.722C522.58 340.171 522.897 339.659 523.515 339.188C524.093 338.748 524.703 338.515 525.343 338.491C525.981 338.465 526.552 338.644 527.056 339.029C527.668 339.495 528.007 340.349 528.073 341.588L528.214 344.236L531.336 341.855L531.981 342.347ZM534.065 336.713C534.991 337.419 535.521 338.064 535.654 338.648C535.788 339.232 535.519 339.78 534.847 340.292C534.184 340.798 533.473 341.005 532.716 340.914C531.955 340.821 531.132 340.445 530.247 339.787L529.192 338.983C528.278 338.286 527.757 337.648 527.629 337.068C527.5 336.489 527.774 335.942 528.449 335.427C529.118 334.917 529.825 334.705 530.571 334.792C531.315 334.877 532.138 335.257 533.04 335.932L534.065 336.713ZM532.195 336.492C531.525 335.982 530.944 335.682 530.452 335.593C529.956 335.502 529.505 335.612 529.098 335.922C528.693 336.23 528.551 336.571 528.671 336.945C528.79 337.318 529.163 337.748 529.79 338.234L531.054 339.198C531.726 339.71 532.32 340.015 532.835 340.113C533.351 340.206 533.806 340.102 534.202 339.8C534.592 339.503 534.73 339.168 534.616 338.794C534.505 338.419 534.129 337.98 533.489 337.479L532.195 336.492ZM540.327 335.984L539.533 336.59L534.266 332.574L533.258 334.235L532.541 333.688L533.954 331.314L534.078 331.22L540.327 335.984ZM543.89 330.083L544.752 329.426L545.397 329.917L544.534 330.575L545.978 331.676L545.184 332.281L543.74 331.181L540.908 333.34L540.443 332.985L538.918 327.576L539.759 326.934L543.89 330.083ZM541.16 332.164L543.095 330.689L540.045 328.364L540.122 328.566L541.16 332.164Z" fill="#666666"/>
<path d="M571.794 342.347L567.719 345.454L567.151 345.02L566.912 341.556C566.869 341.037 566.795 340.646 566.69 340.383C566.585 340.116 566.411 339.891 566.169 339.706C565.844 339.459 565.48 339.33 565.075 339.322C564.671 339.313 564.305 339.434 563.978 339.683C563.585 339.983 563.391 340.302 563.397 340.641C563.402 340.975 563.605 341.294 564.003 341.598L563.213 342.2C562.641 341.764 562.362 341.271 562.376 340.722C562.393 340.171 562.711 339.659 563.328 339.188C563.906 338.748 564.516 338.515 565.157 338.491C565.794 338.465 566.365 338.644 566.869 339.029C567.482 339.495 567.82 340.349 567.886 341.588L568.027 344.236L571.149 341.855L571.794 342.347ZM573.879 336.713C574.804 337.419 575.334 338.064 575.468 338.648C575.601 339.232 575.332 339.78 574.66 340.292C573.997 340.798 573.286 341.005 572.529 340.914C571.769 340.821 570.946 340.445 570.06 339.787L569.005 338.983C568.091 338.286 567.57 337.648 567.442 337.068C567.314 336.489 567.587 335.942 568.262 335.427C568.931 334.917 569.639 334.705 570.385 334.792C571.128 334.877 571.951 335.257 572.854 335.932L573.879 336.713ZM572.008 336.492C571.339 335.982 570.758 335.682 570.265 335.593C569.77 335.502 569.318 335.612 568.911 335.922C568.507 336.23 568.364 336.571 568.484 336.945C568.604 337.318 568.977 337.748 569.603 338.234L570.867 339.198C571.539 339.71 572.133 340.015 572.649 340.113C573.164 340.206 573.62 340.102 574.015 339.8C574.405 339.503 574.544 339.168 574.43 338.794C574.319 338.419 573.943 337.98 573.302 337.479L572.008 336.492ZM580.14 335.984L579.346 336.59L574.079 332.574L573.071 334.235L572.354 333.688L573.768 331.314L573.891 331.22L580.14 335.984ZM579.7 331.565L576.916 328.96L580.102 326.531L580.832 327.087L578.317 329.005L579.824 330.442C579.95 330.072 580.206 329.74 580.593 329.445C581.16 329.013 581.798 328.813 582.507 328.846C583.213 328.876 583.885 329.135 584.523 329.621C585.164 330.109 585.495 330.627 585.518 331.174C585.541 331.717 585.242 332.225 584.621 332.698C584.071 333.117 583.471 333.343 582.819 333.376C582.166 333.408 581.547 333.238 580.961 332.864L581.708 332.294C582.112 332.529 582.508 332.637 582.895 332.62C583.28 332.601 583.64 332.463 583.976 332.206C584.343 331.926 584.506 331.612 584.463 331.262C584.423 330.91 584.183 330.566 583.741 330.23C583.325 329.913 582.878 329.746 582.4 329.728C581.922 329.707 581.494 329.839 581.119 330.126C580.774 330.388 580.579 330.652 580.533 330.917L580.495 331.207L579.7 331.565Z" fill="#666666"/>
<path d="M611.607 342.347L607.532 345.454L606.964 345.021L606.725 341.556C606.682 341.037 606.608 340.646 606.502 340.383C606.397 340.116 606.223 339.891 605.981 339.706C605.657 339.459 605.292 339.33 604.888 339.322C604.484 339.313 604.118 339.434 603.79 339.683C603.397 339.983 603.204 340.302 603.209 340.641C603.215 340.975 603.417 341.294 603.816 341.598L603.026 342.2C602.453 341.764 602.174 341.271 602.188 340.722C602.206 340.171 602.523 339.659 603.141 339.188C603.719 338.748 604.328 338.515 604.969 338.491C605.607 338.465 606.178 338.644 606.682 339.029C607.294 339.495 607.633 340.349 607.698 341.588L607.839 344.236L610.962 341.855L611.607 342.347ZM613.691 336.713C614.617 337.419 615.146 338.064 615.28 338.648C615.414 339.232 615.145 339.78 614.473 340.292C613.809 340.798 613.099 341.005 612.341 340.914C611.581 340.821 610.758 340.445 609.873 339.787L608.818 338.983C607.903 338.286 607.382 337.648 607.254 337.068C607.126 336.489 607.399 335.942 608.074 335.427C608.743 334.917 609.451 334.705 610.197 334.792C610.94 334.877 611.763 335.257 612.666 335.932L613.691 336.713ZM611.82 336.492C611.151 335.982 610.57 335.682 610.078 335.593C609.582 335.502 609.131 335.612 608.724 335.922C608.319 336.23 608.177 336.571 608.296 336.945C608.416 337.318 608.789 337.748 609.416 338.234L610.68 339.198C611.352 339.71 611.946 340.015 612.461 340.113C612.976 340.206 613.432 340.102 613.828 339.8C614.218 339.503 614.356 339.168 614.242 338.794C614.131 338.419 613.755 337.98 613.115 337.479L611.82 336.492ZM619.953 335.984L619.158 336.59L613.892 332.574L612.884 334.235L612.166 333.688L613.58 331.314L613.704 331.22L619.953 335.984ZM619.146 327.11L619.816 327.621L619.671 327.732C619.067 328.21 618.76 328.722 618.748 329.269C618.737 329.816 619.023 330.356 619.607 330.888C619.559 330.351 619.818 329.867 620.384 329.435C620.925 329.023 621.548 328.839 622.251 328.885C622.957 328.928 623.612 329.18 624.216 329.64C624.856 330.129 625.194 330.653 625.228 331.213C625.265 331.771 624.99 332.274 624.404 332.721C623.809 333.175 623.098 333.369 622.272 333.304C621.444 333.237 620.669 332.928 619.949 332.379L619.645 332.148C618.501 331.275 617.87 330.423 617.753 329.592C617.636 328.756 618.054 327.964 619.005 327.218L619.146 327.11ZM620.91 330.038C620.639 330.244 620.471 330.496 620.406 330.793C620.34 331.091 620.386 331.366 620.542 331.62L620.833 331.842C621.345 332.233 621.874 332.459 622.417 332.522C622.961 332.585 623.406 332.485 623.75 332.223C624.106 331.951 624.254 331.639 624.194 331.285C624.137 330.929 623.897 330.589 623.473 330.266C623.045 329.94 622.597 329.757 622.127 329.715C621.657 329.67 621.251 329.777 620.91 330.038Z" fill="#666666"/>
<path d="M651.42 342.347L647.345 345.454L646.777 345.021L646.538 341.556C646.495 341.037 646.421 340.646 646.315 340.383C646.21 340.116 646.036 339.891 645.794 339.706C645.47 339.459 645.105 339.33 644.701 339.322C644.297 339.313 643.931 339.434 643.603 339.683C643.21 339.983 643.017 340.302 643.022 340.641C643.028 340.975 643.23 341.294 643.629 341.598L642.839 342.2C642.266 341.764 641.987 341.271 642.001 340.722C642.018 340.171 642.336 339.659 642.954 339.188C643.532 338.748 644.141 338.515 644.782 338.491C645.42 338.465 645.991 338.644 646.495 339.029C647.107 339.495 647.446 340.349 647.511 341.588L647.652 344.236L650.775 341.855L651.42 342.347ZM653.504 336.713C654.43 337.419 654.959 338.064 655.093 338.648C655.227 339.232 654.958 339.78 654.286 340.292C653.622 340.798 652.912 341.005 652.154 340.914C651.394 340.821 650.571 340.445 649.686 339.787L648.631 338.983C647.716 338.286 647.195 337.648 647.067 337.068C646.939 336.489 647.212 335.942 647.887 335.427C648.556 334.917 649.264 334.705 650.01 334.792C650.753 334.877 651.576 335.257 652.479 335.932L653.504 336.713ZM651.633 336.492C650.964 335.982 650.383 335.682 649.891 335.593C649.395 335.502 648.944 335.612 648.537 335.922C648.132 336.23 647.99 336.571 648.109 336.945C648.229 337.318 648.602 337.748 649.229 338.234L650.493 339.198C651.165 339.71 651.759 340.015 652.274 340.113C652.789 340.206 653.245 340.102 653.641 339.8C654.031 339.503 654.169 339.168 654.055 338.794C653.944 338.419 653.568 337.98 652.927 337.479L651.633 336.492ZM659.766 335.984L658.971 336.59L653.705 332.574L652.697 334.235L651.979 333.688L653.393 331.314L653.517 331.22L659.766 335.984ZM660.321 326.755L663.52 333.122L662.692 333.753L659.689 327.55L656.323 330.116L655.674 329.621L659.877 326.417L660.321 326.755Z" fill="#666666"/>
<path d="M691.232 342.347L687.158 345.454L686.59 345.021L686.35 341.556C686.308 341.037 686.234 340.646 686.128 340.383C686.023 340.116 685.849 339.891 685.607 339.706C685.282 339.459 684.918 339.33 684.514 339.322C684.109 339.313 683.743 339.434 683.416 339.683C683.023 339.983 682.829 340.302 682.835 340.641C682.841 340.975 683.043 341.294 683.442 341.598L682.651 342.2C682.079 341.764 681.8 341.271 681.814 340.722C681.831 340.171 682.149 339.659 682.767 339.188C683.345 338.748 683.954 338.515 684.595 338.491C685.233 338.465 685.804 338.644 686.308 339.029C686.92 339.495 687.259 340.349 687.324 341.588L687.465 344.236L690.587 341.855L691.232 342.347ZM693.317 336.713C694.242 337.419 694.772 338.064 694.906 338.648C695.04 339.232 694.771 339.78 694.099 340.292C693.435 340.798 692.725 341.005 691.967 340.914C691.207 340.821 690.384 340.445 689.498 339.787L688.443 338.983C687.529 338.286 687.008 337.648 686.88 337.068C686.752 336.489 687.025 335.942 687.7 335.427C688.369 334.917 689.077 334.705 689.823 334.792C690.566 334.877 691.389 335.257 692.292 335.932L693.317 336.713ZM691.446 336.492C690.777 335.982 690.196 335.682 689.703 335.593C689.208 335.502 688.756 335.612 688.349 335.922C687.945 336.23 687.803 336.571 687.922 336.945C688.042 337.318 688.415 337.748 689.041 338.234L690.306 339.198C690.978 339.71 691.571 340.015 692.087 340.113C692.602 340.206 693.058 340.102 693.454 339.8C693.844 339.503 693.982 339.168 693.868 338.794C693.757 338.419 693.381 337.98 692.74 337.479L691.446 336.492ZM699.579 335.984L698.784 336.59L693.518 332.574L692.51 334.235L691.792 333.688L693.206 331.314L693.33 331.22L699.579 335.984ZM701.069 327.84C701.38 328.076 701.573 328.35 701.65 328.66C701.73 328.969 701.699 329.281 701.556 329.598C702.02 329.457 702.48 329.417 702.936 329.478C703.394 329.536 703.793 329.695 704.132 329.953C704.67 330.363 704.916 330.829 704.871 331.35C704.828 331.869 704.511 332.354 703.918 332.806C703.32 333.262 702.681 333.506 702 333.538C701.32 333.567 700.712 333.377 700.177 332.968C699.841 332.712 699.628 332.412 699.54 332.066C699.455 331.719 699.505 331.368 699.69 331.015C699.277 331.121 698.87 331.143 698.468 331.08C698.067 331.017 697.712 330.868 697.405 330.634C696.881 330.234 696.633 329.789 696.661 329.298C696.69 328.808 696.979 328.353 697.528 327.934C698.075 327.517 698.67 327.298 699.314 327.276C699.96 327.252 700.545 327.44 701.069 327.84ZM703.325 330.542C702.977 330.278 702.583 330.146 702.141 330.148C701.703 330.148 701.306 330.284 700.95 330.555C700.594 330.827 700.416 331.128 700.416 331.458C700.419 331.785 700.597 332.084 700.95 332.353C701.303 332.622 701.684 332.755 702.094 332.75C702.507 332.744 702.9 332.598 703.273 332.314C703.644 332.032 703.833 331.733 703.841 331.418C703.847 331.101 703.675 330.809 703.325 330.542ZM698.178 328.429C697.867 328.666 697.712 328.932 697.712 329.227C697.712 329.518 697.877 329.789 698.208 330.041C698.524 330.282 698.874 330.406 699.258 330.412C699.643 330.414 699.993 330.295 700.309 330.054C700.625 329.813 700.78 329.547 700.775 329.256C700.769 328.961 700.608 328.693 700.292 328.452C699.976 328.211 699.62 328.089 699.224 328.087C698.828 328.085 698.479 328.199 698.178 328.429Z" fill="#666666"/>
<path d="M731.045 342.347L726.971 345.454L726.402 345.021L726.163 341.556C726.121 341.037 726.047 340.646 725.941 340.383C725.836 340.116 725.662 339.891 725.42 339.706C725.095 339.459 724.731 339.33 724.327 339.322C723.922 339.313 723.556 339.434 723.229 339.683C722.836 339.983 722.642 340.302 722.648 340.641C722.654 340.975 722.856 341.294 723.255 341.598L722.464 342.2C721.892 341.764 721.613 341.271 721.627 340.722C721.644 340.171 721.962 339.659 722.58 339.188C723.158 338.748 723.767 338.515 724.408 338.491C725.046 338.465 725.617 338.644 726.121 339.029C726.733 339.495 727.072 340.349 727.137 341.588L727.278 344.236L730.4 341.855L731.045 342.347ZM733.13 336.713C734.055 337.419 734.585 338.064 734.719 338.648C734.853 339.232 734.584 339.78 733.912 340.292C733.248 340.798 732.538 341.005 731.78 340.914C731.02 340.821 730.197 340.445 729.311 339.787L728.256 338.983C727.342 338.286 726.821 337.648 726.693 337.068C726.565 336.489 726.838 335.942 727.513 335.427C728.182 334.917 728.89 334.705 729.636 334.792C730.379 334.877 731.202 335.257 732.105 335.932L733.13 336.713ZM731.259 336.492C730.59 335.982 730.009 335.682 729.516 335.593C729.021 335.502 728.569 335.612 728.162 335.922C727.758 336.23 727.616 336.571 727.735 336.945C727.855 337.318 728.228 337.748 728.854 338.234L730.119 339.198C730.791 339.71 731.384 340.015 731.9 340.113C732.415 340.206 732.871 340.102 733.267 339.8C733.657 339.503 733.795 339.168 733.681 338.794C733.57 338.419 733.194 337.98 732.553 337.479L731.259 336.492ZM739.392 335.984L738.597 336.59L733.331 332.574L732.323 334.235L731.605 333.688L733.019 331.314L733.143 331.22L739.392 335.984ZM742.001 329.826C742.033 330.102 741.993 330.373 741.882 330.64C741.774 330.905 741.583 331.142 741.309 331.35C740.951 331.624 740.549 331.795 740.105 331.865C739.664 331.932 739.211 331.899 738.747 331.767C738.28 331.632 737.853 331.417 737.465 331.122C737.05 330.805 736.753 330.46 736.577 330.087C736.403 329.711 736.373 329.345 736.487 328.989C736.601 328.633 736.852 328.307 737.239 328.012C737.854 327.543 738.569 327.35 739.383 327.433C740.197 327.511 741.002 327.853 741.796 328.458L742.027 328.634C743.237 329.557 743.882 330.413 743.962 331.204C744.039 331.992 743.602 332.759 742.651 333.506L742.497 333.623L741.831 333.115L741.997 332.988C742.638 332.482 742.97 331.971 742.992 331.454C743.012 330.935 742.682 330.393 742.001 329.826ZM740.784 330.754C741.049 330.552 741.211 330.305 741.271 330.012C741.334 329.716 741.297 329.439 741.16 329.178L740.844 328.937C740.326 328.542 739.792 328.306 739.242 328.23C738.693 328.154 738.245 328.248 737.901 328.51C737.554 328.775 737.408 329.09 737.465 329.455C737.519 329.817 737.764 330.165 738.2 330.497C738.624 330.82 739.076 331.01 739.554 331.067C740.032 331.119 740.442 331.015 740.784 330.754Z" fill="#666666"/>
<path d="M68.5052 315.665C68.5052 316.828 68.3064 317.693 67.909 318.259C67.5115 318.825 66.8903 319.107 66.0452 319.107C65.2109 319.107 64.5932 318.832 64.1922 318.28C63.7911 317.725 63.5834 316.898 63.5691 315.799V314.472C63.5691 313.323 63.7679 312.469 64.1653 311.91C64.5628 311.352 65.1858 311.072 66.0345 311.072C66.8759 311.072 67.4954 311.343 67.8929 311.883C68.2903 312.42 68.4944 313.251 68.5052 314.375V315.665ZM67.5115 314.306C67.5115 313.464 67.3933 312.852 67.157 312.469C66.9207 312.082 66.5465 311.889 66.0345 311.889C65.526 311.889 65.1554 312.08 64.9226 312.463C64.6899 312.847 64.5699 313.436 64.5628 314.23V315.82C64.5628 316.665 64.6845 317.29 64.928 317.695C65.1751 318.096 65.5475 318.296 66.0452 318.296C66.5358 318.296 66.8992 318.107 67.1355 317.727C67.3754 317.347 67.5008 316.75 67.5115 315.933V314.306Z" fill="#666666"/>
<path d="M54.5132 260H53.5142V253.377L51.5108 254.113V253.211L54.3575 252.142H54.5132V260ZM62.3282 256.665C62.3282 257.828 62.1294 258.693 61.732 259.259C61.3345 259.825 60.7132 260.107 59.8682 260.107C59.0339 260.107 58.4162 259.832 58.0152 259.28C57.6141 258.725 57.4064 257.898 57.3921 256.799V255.472C57.3921 254.323 57.5909 253.469 57.9883 252.91C58.3858 252.352 59.0088 252.072 59.8575 252.072C60.6989 252.072 61.3184 252.343 61.7159 252.883C62.1133 253.42 62.3174 254.251 62.3282 255.375V256.665ZM61.3345 255.306C61.3345 254.464 61.2163 253.852 60.98 253.469C60.7437 253.082 60.3695 252.889 59.8575 252.889C59.349 252.889 58.9784 253.08 58.7456 253.463C58.5129 253.847 58.3929 254.436 58.3858 255.23V256.82C58.3858 257.665 58.5075 258.29 58.751 258.695C58.9981 259.096 59.3705 259.296 59.8682 259.296C60.3588 259.296 60.7222 259.107 60.9585 258.727C61.1984 258.347 61.3238 257.75 61.3345 256.933V255.306ZM68.5049 256.665C68.5049 257.828 68.3062 258.693 67.9087 259.259C67.5113 259.825 66.89 260.107 66.045 260.107C65.2106 260.107 64.593 259.832 64.1919 259.28C63.7909 258.725 63.5832 257.898 63.5689 256.799V255.472C63.5689 254.323 63.7676 253.469 64.1651 252.91C64.5625 252.352 65.1856 252.072 66.0342 252.072C66.8757 252.072 67.4951 252.343 67.8926 252.883C68.2901 253.42 68.4942 254.251 68.5049 255.375V256.665ZM67.5113 255.306C67.5113 254.464 67.3931 253.852 67.1568 253.469C66.9204 253.082 66.5463 252.889 66.0342 252.889C65.5257 252.889 65.1551 253.08 64.9224 253.463C64.6896 253.847 64.5697 254.436 64.5625 255.23V256.82C64.5625 257.665 64.6843 258.29 64.9278 258.695C65.1748 259.096 65.5472 259.296 66.045 259.296C66.5355 259.296 66.899 259.107 67.1353 258.727C67.3752 258.347 67.5005 257.75 67.5113 256.933V255.306Z" fill="#666666"/>
<path d="M56.3716 201H51.2476V200.286L53.9546 197.278C54.3557 196.823 54.6314 196.454 54.7818 196.171C54.9357 195.885 55.0127 195.59 55.0127 195.285C55.0127 194.877 54.8892 194.542 54.6421 194.281C54.3951 194.019 54.0656 193.889 53.6538 193.889C53.1597 193.889 52.7748 194.03 52.4991 194.313C52.2269 194.592 52.0909 194.983 52.0909 195.484H51.0972C51.0972 194.764 51.3282 194.182 51.7901 193.738C52.2556 193.294 52.8768 193.072 53.6538 193.072C54.3807 193.072 54.9554 193.264 55.378 193.647C55.8005 194.027 56.0118 194.533 56.0118 195.167C56.0118 195.937 55.5212 196.854 54.5401 197.917L52.4453 200.189H56.3716V201ZM62.3282 197.665C62.3282 198.828 62.1294 199.693 61.732 200.259C61.3345 200.825 60.7132 201.107 59.8682 201.107C59.0339 201.107 58.4162 200.832 58.0152 200.28C57.6141 199.725 57.4064 198.898 57.3921 197.799V196.472C57.3921 195.323 57.5909 194.469 57.9883 193.91C58.3858 193.352 59.0088 193.072 59.8575 193.072C60.6989 193.072 61.3184 193.343 61.7159 193.883C62.1133 194.42 62.3174 195.251 62.3282 196.375V197.665ZM61.3345 196.306C61.3345 195.464 61.2163 194.852 60.98 194.469C60.7437 194.082 60.3695 193.889 59.8575 193.889C59.349 193.889 58.9784 194.08 58.7456 194.463C58.5129 194.847 58.3929 195.436 58.3858 196.23V197.82C58.3858 198.665 58.5075 199.29 58.751 199.695C58.9981 200.096 59.3705 200.296 59.8682 200.296C60.3588 200.296 60.7222 200.107 60.9585 199.727C61.1984 199.347 61.3238 198.75 61.3345 197.933V196.306ZM68.5049 197.665C68.5049 198.828 68.3062 199.693 67.9087 200.259C67.5113 200.825 66.89 201.107 66.045 201.107C65.2106 201.107 64.593 200.832 64.1919 200.28C63.7909 199.725 63.5832 198.898 63.5689 197.799V196.472C63.5689 195.323 63.7676 194.469 64.1651 193.91C64.5625 193.352 65.1856 193.072 66.0342 193.072C66.8757 193.072 67.4951 193.343 67.8926 193.883C68.2901 194.42 68.4942 195.251 68.5049 196.375V197.665ZM67.5113 196.306C67.5113 195.464 67.3931 194.852 67.1568 194.469C66.9204 194.082 66.5463 193.889 66.0342 193.889C65.5257 193.889 65.1551 194.08 64.9224 194.463C64.6896 194.847 64.5697 195.436 64.5625 196.23V197.82C64.5625 198.665 64.6843 199.29 64.9278 199.695C65.1748 200.096 65.5472 200.296 66.045 200.296C66.5355 200.296 66.899 200.107 67.1353 199.727C67.3752 199.347 67.5005 198.75 67.5113 197.933V196.306Z" fill="#666666"/>
<path d="M52.6924 136.606H53.439C53.9081 136.599 54.2769 136.476 54.5454 136.236C54.814 135.996 54.9483 135.672 54.9483 135.264C54.9483 134.347 54.4917 133.889 53.5786 133.889C53.149 133.889 52.8052 134.012 52.5474 134.259C52.2932 134.503 52.166 134.827 52.166 135.231H51.1724C51.1724 134.612 51.398 134.098 51.8492 133.69C52.3039 133.278 52.8804 133.072 53.5786 133.072C54.3163 133.072 54.8946 133.267 55.3135 133.658C55.7325 134.048 55.9419 134.59 55.9419 135.285C55.9419 135.625 55.8309 135.955 55.6089 136.273C55.3905 136.592 55.0915 136.83 54.7119 136.988C55.1416 137.124 55.4729 137.349 55.7056 137.665C55.9419 137.98 56.0601 138.365 56.0601 138.819C56.0601 139.521 55.8309 140.078 55.3726 140.49C54.9143 140.902 54.3181 141.107 53.584 141.107C52.85 141.107 52.252 140.909 51.7901 140.511C51.3317 140.114 51.1026 139.589 51.1026 138.938H52.1016C52.1016 139.349 52.2359 139.679 52.5044 139.926C52.773 140.173 53.1328 140.296 53.584 140.296C54.0638 140.296 54.4309 140.171 54.6851 139.92C54.9393 139.67 55.0664 139.31 55.0664 138.841C55.0664 138.386 54.9268 138.037 54.6475 137.793C54.3682 137.55 53.9654 137.425 53.439 137.417H52.6924V136.606ZM62.3282 137.665C62.3282 138.828 62.1294 139.693 61.732 140.259C61.3345 140.825 60.7132 141.107 59.8682 141.107C59.0339 141.107 58.4162 140.832 58.0152 140.28C57.6141 139.725 57.4064 138.898 57.3921 137.799V136.472C57.3921 135.323 57.5909 134.469 57.9883 133.91C58.3858 133.352 59.0088 133.072 59.8575 133.072C60.6989 133.072 61.3184 133.343 61.7159 133.883C62.1133 134.42 62.3174 135.251 62.3282 136.375V137.665ZM61.3345 136.306C61.3345 135.464 61.2163 134.852 60.98 134.469C60.7437 134.082 60.3695 133.889 59.8575 133.889C59.349 133.889 58.9784 134.08 58.7456 134.463C58.5129 134.847 58.3929 135.436 58.3858 136.23V137.82C58.3858 138.665 58.5075 139.29 58.751 139.695C58.9981 140.096 59.3705 140.296 59.8682 140.296C60.3588 140.296 60.7222 140.107 60.9585 139.727C61.1984 139.347 61.3238 138.75 61.3345 137.933V136.306ZM68.5049 137.665C68.5049 138.828 68.3062 139.693 67.9087 140.259C67.5113 140.825 66.89 141.107 66.045 141.107C65.2106 141.107 64.593 140.832 64.1919 140.28C63.7909 139.725 63.5832 138.898 63.5689 137.799V136.472C63.5689 135.323 63.7676 134.469 64.1651 133.91C64.5625 133.352 65.1856 133.072 66.0342 133.072C66.8757 133.072 67.4951 133.343 67.8926 133.883C68.2901 134.42 68.4942 135.251 68.5049 136.375V137.665ZM67.5113 136.306C67.5113 135.464 67.3931 134.852 67.1568 134.469C66.9204 134.082 66.5463 133.889 66.0342 133.889C65.5257 133.889 65.1551 134.08 64.9224 134.463C64.6896 134.847 64.5697 135.436 64.5625 136.23V137.82C64.5625 138.665 64.6843 139.29 64.9278 139.695C65.1748 140.096 65.5472 140.296 66.045 140.296C66.5355 140.296 66.899 140.107 67.1353 139.727C67.3752 139.347 67.5005 138.75 67.5113 137.933V136.306Z" fill="#666666"/>
<path d="M55.4424 79.3735H56.5274V80.1846H55.4424V82H54.4434V80.1846H50.8824V79.5991L54.3843 74.1797H55.4424V79.3735ZM52.0103 79.3735H54.4434V75.5386L54.3252 75.7534L52.0103 79.3735ZM62.3282 78.6646C62.3282 79.8283 62.1294 80.693 61.732 81.2588C61.3345 81.8245 60.7132 82.1074 59.8682 82.1074C59.0339 82.1074 58.4162 81.8317 58.0152 81.2803C57.6141 80.7253 57.4064 79.8981 57.3921 78.7988V77.4722C57.3921 76.3228 57.5909 75.4688 57.9883 74.9102C58.3858 74.3516 59.0088 74.0723 59.8575 74.0723C60.6989 74.0723 61.3184 74.3426 61.7159 74.8833C62.1133 75.4204 62.3174 76.2511 62.3282 77.3755V78.6646ZM61.3345 77.3057C61.3345 76.4642 61.2163 75.8519 60.98 75.4688C60.7437 75.082 60.3695 74.8887 59.8575 74.8887C59.349 74.8887 58.9784 75.0802 58.7456 75.4634C58.5129 75.8465 58.3929 76.4355 58.3858 77.2305V78.8203C58.3858 79.6654 58.5075 80.2902 58.751 80.6948C58.9981 81.0959 59.3705 81.2964 59.8682 81.2964C60.3588 81.2964 60.7222 81.1066 60.9585 80.7271C61.1984 80.3475 61.3238 79.7495 61.3345 78.9331V77.3057ZM68.5049 78.6646C68.5049 79.8283 68.3062 80.693 67.9087 81.2588C67.5113 81.8245 66.89 82.1074 66.045 82.1074C65.2106 82.1074 64.593 81.8317 64.1919 81.2803C63.7909 80.7253 63.5832 79.8981 63.5689 78.7988V77.4722C63.5689 76.3228 63.7676 75.4688 64.1651 74.9102C64.5625 74.3516 65.1856 74.0723 66.0342 74.0723C66.8757 74.0723 67.4951 74.3426 67.8926 74.8833C68.2901 75.4204 68.4942 76.2511 68.5049 77.3755V78.6646ZM67.5113 77.3057C67.5113 76.4642 67.3931 75.8519 67.1568 75.4688C66.9204 75.082 66.5463 74.8887 66.0342 74.8887C65.5257 74.8887 65.1551 75.0802 64.9224 75.4634C64.6896 75.8465 64.5697 76.4355 64.5625 77.2305V78.8203C64.5625 79.6654 64.6843 80.2902 64.9278 80.6948C65.1748 81.0959 65.5472 81.2964 66.045 81.2964C66.5355 81.2964 66.899 81.1066 67.1353 80.7271C67.3752 80.3475 67.5005 79.7495 67.5113 78.9331V77.3057Z" fill="#666666"/>
<path d="M51.7041 19.0791L52.1016 15.1797H56.1084V16.0981H52.9449L52.7085 18.2305C53.0917 18.0049 53.5267 17.8921 54.0137 17.8921C54.7263 17.8921 55.292 18.1284 55.711 18.6011C56.1299 19.0701 56.3394 19.7057 56.3394 20.5078C56.3394 21.3135 56.121 21.9491 55.6841 22.4146C55.2508 22.8765 54.6439 23.1074 53.8633 23.1074C53.1722 23.1074 52.6083 22.9159 52.1714 22.5327C51.7346 22.1496 51.4857 21.6196 51.4248 20.9429H52.3648C52.4257 21.3905 52.585 21.7288 52.8428 21.958C53.1006 22.1836 53.4408 22.2964 53.8633 22.2964C54.3252 22.2964 54.6869 22.1388 54.9483 21.8237C55.2132 21.5086 55.3457 21.0736 55.3457 20.5186C55.3457 19.9958 55.2025 19.5768 54.916 19.2617C54.6332 18.943 54.2554 18.7837 53.7827 18.7837C53.3495 18.7837 53.0093 18.8786 52.7622 19.0684L52.4991 19.2832L51.7041 19.0791ZM62.3282 19.6646C62.3282 20.8283 62.1294 21.693 61.732 22.2588C61.3345 22.8245 60.7132 23.1074 59.8682 23.1074C59.0339 23.1074 58.4162 22.8317 58.0152 22.2803C57.6141 21.7253 57.4064 20.8981 57.3921 19.7988V18.4722C57.3921 17.3228 57.5909 16.4688 57.9883 15.9102C58.3858 15.3516 59.0088 15.0723 59.8575 15.0723C60.6989 15.0723 61.3184 15.3426 61.7159 15.8833C62.1133 16.4204 62.3174 17.2511 62.3282 18.3755V19.6646ZM61.3345 18.3057C61.3345 17.4642 61.2163 16.8519 60.98 16.4688C60.7437 16.082 60.3695 15.8887 59.8575 15.8887C59.349 15.8887 58.9784 16.0802 58.7456 16.4634C58.5129 16.8465 58.3929 17.4355 58.3858 18.2305V19.8203C58.3858 20.6654 58.5075 21.2902 58.751 21.6948C58.9981 22.0959 59.3705 22.2964 59.8682 22.2964C60.3588 22.2964 60.7222 22.1066 60.9585 21.7271C61.1984 21.3475 61.3238 20.7495 61.3345 19.9331V18.3057ZM68.5049 19.6646C68.5049 20.8283 68.3062 21.693 67.9087 22.2588C67.5113 22.8245 66.89 23.1074 66.045 23.1074C65.2106 23.1074 64.593 22.8317 64.1919 22.2803C63.7909 21.7253 63.5832 20.8981 63.5689 19.7988V18.4722C63.5689 17.3228 63.7676 16.4688 64.1651 15.9102C64.5625 15.3516 65.1856 15.0723 66.0342 15.0723C66.8757 15.0723 67.4951 15.3426 67.8926 15.8833C68.2901 16.4204 68.4942 17.2511 68.5049 18.3755V19.6646ZM67.5113 18.3057C67.5113 17.4642 67.3931 16.8519 67.1568 16.4688C66.9204 16.082 66.5463 15.8887 66.0342 15.8887C65.5257 15.8887 65.1551 16.0802 64.9224 16.4634C64.6896 16.8465 64.5697 17.4355 64.5625 18.2305V19.8203C64.5625 20.6654 64.6843 21.2902 64.9278 21.6948C65.1748 22.0959 65.5472 22.2964 66.045 22.2964C66.5355 22.2964 66.899 22.1066 67.1353 21.7271C67.3752 21.3475 67.5005 20.7495 67.5113 19.9331V18.3057Z" fill="#666666"/>
</svg>
