<svg width="128" height="128" viewBox="0 0 128 128" fill="none" xmlns="http://www.w3.org/2000/svg">
<path d="M15.625 44.5V11.2305C15.625 7.18541 18.7341 3.90625 22.5694 3.90625H102.431C106.266 3.90625 109.375 7.18541 109.375 11.2305V34" stroke="#4B7DFF"/>
<path d="M31.25 30.75C30.9739 30.75 30.75 30.9739 30.75 31.25C30.75 31.5261 30.9739 31.75 31.25 31.75V30.75ZM74.2188 31.75C74.4949 31.75 74.7188 31.5261 74.7188 31.25C74.7188 30.9739 74.4949 30.75 74.2188 30.75V31.75ZM31.25 19.0312C30.9739 19.0312 30.75 19.2551 30.75 19.5312C30.75 19.8074 30.9739 20.0312 31.25 20.0312V19.0312ZM74.2188 20.0312C74.4949 20.0312 74.7188 19.8074 74.7188 19.5312C74.7188 19.2551 74.4949 19.0312 74.2188 19.0312V20.0312ZM112.061 119.141L112.061 119.641H112.061V119.141ZM12.9395 119.141L12.9395 118.641H12.9395V119.141ZM5.85938 111.825L5.35938 111.825L5.85938 111.825ZM5.85938 51.4638L6.35938 51.4638L5.85938 51.4638ZM12.9395 44.1473L12.9395 43.6473H12.9395V44.1473ZM83.7402 44.1473L83.7402 44.6473H83.7402V44.1473ZM94.3604 33.1726L94.3604 33.6726H94.3604V33.1726ZM106.751 33.1726L106.751 32.6726H106.751V33.1726ZM31.25 31.75H74.2188V30.75H31.25V31.75ZM31.25 20.0312H74.2188V19.0312H31.25V20.0312ZM112.061 118.641L12.9395 118.641L12.9395 119.641L112.061 119.641L112.061 118.641ZM12.9395 118.641C9.32073 118.641 6.35937 115.605 6.35938 111.825L5.35938 111.825C5.35937 116.126 8.73774 119.641 12.9395 119.641V118.641ZM6.35938 51.4638C6.35938 47.6835 9.32073 44.6473 12.9395 44.6473V43.6473C8.73774 43.6473 5.35938 47.1625 5.35938 51.4638L6.35938 51.4638ZM12.9395 44.6473L83.7402 44.6473L83.7402 43.6473L12.9395 43.6473L12.9395 44.6473ZM83.7402 44.6473C86.9644 44.6473 89.5503 41.9511 89.5503 38.66H88.5503C88.5503 41.43 86.3814 43.6473 83.7402 43.6473V44.6473ZM89.5503 38.66C89.5503 35.8899 91.7192 33.6726 94.3604 33.6726L94.3604 32.6726C91.1362 32.6726 88.5503 35.3688 88.5503 38.66H89.5503ZM94.3604 33.6726H106.751V32.6726H94.3604V33.6726ZM106.751 33.6726C109.392 33.6726 111.561 35.8899 111.561 38.66H112.561C112.561 35.3688 109.975 32.6726 106.751 32.6726L106.751 33.6726ZM111.561 38.66V40.4891H112.561V38.66H111.561ZM111.561 40.4891C111.561 42.77 113.354 44.6473 115.601 44.6473V43.6473C113.937 43.6473 112.561 42.2489 112.561 40.4891H111.561ZM115.601 44.6473C117.264 44.6473 118.641 46.0457 118.641 47.8055H119.641C119.641 45.5246 117.847 43.6473 115.601 43.6473V44.6473ZM118.641 111.825C118.641 115.605 115.679 118.641 112.061 118.641V119.641C116.262 119.641 119.641 116.126 119.641 111.825H118.641ZM6.35937 111.825L6.35938 51.4638L5.35938 51.4638L5.35938 111.825L6.35937 111.825ZM118.641 47.8055V111.825H119.641V47.8055H118.641Z" fill="#4B7DFF"/>
<circle cx="95.5" cy="3.5" r="3.5" fill="#37FFDB"/>
<circle cx="15.5" cy="32.5" r="3.5" fill="#37FFDB"/>
</svg>
