<svg width="197" height="25" viewBox="0 0 197 25" fill="none" xmlns="http://www.w3.org/2000/svg">
<g clip-path="url(#clip0_854_3728)">
<path d="M67.9591 8.97299V3.28714H3.58346V8.97299H0V0H71.5426V8.97299H67.9591Z" fill="white"/>
<path d="M13.7366 6.13013H6.96783V24.6269H13.7366V6.13013Z" fill="white"/>
<path d="M22.2066 6.13013H15.4379V24.6269H22.2066V6.13013Z" fill="white"/>
<path d="M30.6766 6.13013H23.9078V24.6269H30.6766V6.13013Z" fill="white"/>
<path d="M39.1466 6.13013H32.3779V24.6269H39.1466V6.13013Z" fill="white"/>
<path d="M47.6347 6.13013H40.866V24.6269H47.6347V6.13013Z" fill="white"/>
<path d="M56.1047 6.13013H49.3359V24.6269H56.1047V6.13013Z" fill="white"/>
<path d="M64.5747 19.1187H57.806V24.538H64.5747V19.1187Z" fill="white"/>
<path d="M64.5747 6.13013H57.806V11.5495H64.5747V6.13013Z" fill="white"/>
<path d="M64.5747 12.6865H57.806V18.1059H64.5747V12.6865Z" fill="white"/>
<path d="M78.1847 21.2153V22.9033L79.2525 21.2153H80.1936L78.981 22.9389L80.3203 24.9289H79.3249L78.1847 22.9922V24.9289H77.4064V21.2153H78.1847V21.2153Z" fill="white"/>
<path d="M84.0847 23.0634C84.0847 23.8985 83.7951 24.5382 83.2341 24.8225C82.9988 24.9469 82.7997 25.0002 82.4739 25.0002C81.8948 25.0002 81.5328 24.8403 81.2433 24.4849C80.9537 24.1295 80.8089 23.6498 80.8089 23.1167C80.8089 22.3172 81.1166 21.6775 81.6595 21.3754C81.8767 21.2511 82.1663 21.1978 82.4377 21.1978C83.4512 21.1978 84.0666 21.9263 84.0666 23.0812L84.0847 23.0634ZM81.8586 22.0862C81.7319 22.3349 81.6776 22.6548 81.6776 23.099C81.6776 23.7386 81.7862 24.1473 82.0215 24.3072C82.1482 24.396 82.293 24.4316 82.4739 24.4316C82.9988 24.4316 83.216 24.0407 83.216 23.099C83.216 22.7258 83.1798 22.4415 83.1255 22.2461C83.0712 22.0506 82.8721 21.7841 82.4558 21.7841C82.2025 21.7841 81.9853 21.9085 81.8767 22.1039L81.8586 22.0862Z" fill="white"/>
<path d="M86.6185 21.2153C87.2881 21.2153 87.7225 21.6595 87.7225 22.2992C87.7225 22.85 87.3424 23.312 86.8718 23.3298C86.9442 23.3831 86.9804 23.4186 87.0347 23.4897C87.2519 23.7562 87.9396 24.9289 87.9396 24.9289H87.0347C86.8899 24.6802 86.8356 24.5913 86.6727 24.3248C86.2927 23.6674 86.1841 23.4719 86.0393 23.4186C86.0031 23.4186 85.9669 23.3831 85.9126 23.3831V24.9289H85.1706V21.2153H86.5823H86.6185ZM85.9488 22.8145H86.2022C86.528 22.8145 86.6728 22.7789 86.7813 22.6901C86.8718 22.6013 86.9261 22.4769 86.9261 22.317C86.9261 22.086 86.8356 21.9261 86.6547 21.855C86.5642 21.8195 86.4013 21.8017 86.2203 21.8017H85.9488V22.7967V22.8145Z" fill="white"/>
<path d="M91.143 21.2155L91.0526 21.8196H89.7676V22.6725H90.8535V23.2766H89.7857V24.2717H91.2154V24.9113H89.0074V21.1978H91.1611L91.143 21.2155Z" fill="white"/>
<path d="M94.0207 21.2153L95.2152 24.9289H94.4007L94.1292 24.0405H93.0253L92.7538 24.9289H91.9575L93.1881 21.2153H94.0026H94.0207ZM93.9483 23.4364C93.9483 23.4364 93.8216 23.0455 93.7492 22.6901C93.713 22.5124 93.6044 22.0327 93.6044 22.0327C93.6044 22.0327 93.4958 22.4769 93.4234 22.7434C93.351 23.0099 93.2967 23.1876 93.2243 23.4364H93.9664H93.9483Z" fill="white"/>
<path d="M99.1425 21.2153V24.307H100.5L100.355 24.9289H98.3643V21.2153H99.1425Z" fill="white"/>
<path d="M103.54 21.2155L103.45 21.8196H102.165V22.6725H103.251V23.2766H102.183V24.2717H103.613V24.9113H101.405V21.1978H103.558L103.54 21.2155Z" fill="white"/>
<path d="M107.051 22.0505C106.816 21.8551 106.545 21.7662 106.255 21.7662C106.038 21.7662 105.839 21.8373 105.712 21.9617C105.459 22.1927 105.386 22.6013 105.386 23.1522C105.386 23.703 105.477 24.0228 105.676 24.2005C105.821 24.3426 106.02 24.4137 106.273 24.4137C106.436 24.4137 106.581 24.3959 106.708 24.3249V23.472H106.128L106.038 22.8679H107.504V24.6447C107.124 24.8757 106.689 24.9823 106.255 24.9823C105.694 24.9823 105.278 24.8046 104.97 24.4137C104.699 24.0761 104.572 23.6674 104.572 23.1166C104.572 22.3348 104.825 21.784 105.368 21.4286C105.64 21.251 105.929 21.1621 106.291 21.1621C106.744 21.1621 107.16 21.3043 107.486 21.5885L107.088 22.0505H107.051Z" fill="white"/>
<path d="M109.585 21.2153V24.9289H108.789V21.2153H109.585Z" fill="white"/>
<path d="M113.042 22.015C112.698 21.8196 112.445 21.7307 112.155 21.7307C111.848 21.7307 111.63 21.9084 111.63 22.1572C111.63 22.3526 111.739 22.4415 112.047 22.5303L112.499 22.6547C113.114 22.8146 113.458 23.2055 113.458 23.7563C113.458 24.5026 112.843 25.0001 111.902 25.0001C111.467 25.0001 110.997 24.8757 110.617 24.6625L110.906 24.0761C111.25 24.2538 111.558 24.3782 111.938 24.3782C112.372 24.3782 112.608 24.2005 112.608 23.8629C112.608 23.6319 112.445 23.472 112.119 23.3832L111.703 23.2766C111.323 23.17 111.087 23.0278 110.961 22.8146C110.852 22.6547 110.798 22.4592 110.798 22.246C110.798 21.5708 111.359 21.0911 112.155 21.0911C112.626 21.0911 113.078 21.2332 113.422 21.4642L113.06 21.9972L113.042 22.015Z" fill="white"/>
<path d="M115.431 21.2153V24.307H116.788L116.644 24.9289H114.653V21.2153H115.431Z" fill="white"/>
<path d="M119.485 21.2153L120.679 24.9289H119.865L119.594 24.0405H118.49L118.218 24.9289H117.422L118.652 21.2153H119.467H119.485ZM119.413 23.4364C119.413 23.4364 119.286 23.0455 119.213 22.6901C119.177 22.5124 119.069 22.0327 119.069 22.0327C119.069 22.0327 118.96 22.4769 118.888 22.7434C118.815 23.0099 118.761 23.1876 118.689 23.4364H119.431H119.413Z" fill="white"/>
<path d="M123.611 21.2153L123.485 21.8372H122.58V24.9289H121.802V21.8372H120.879V21.2153H123.593H123.611Z" fill="white"/>
<path d="M125.403 21.2153V24.9289H124.607V21.2153H125.403Z" fill="white"/>
<path d="M129.819 23.0634C129.819 23.8985 129.53 24.5382 128.969 24.8225C128.751 24.9469 128.534 25.0002 128.208 25.0002C127.629 25.0002 127.267 24.8403 126.978 24.4849C126.688 24.1295 126.543 23.6498 126.543 23.1167C126.543 22.3172 126.851 21.6775 127.394 21.3754C127.611 21.2511 127.901 21.1978 128.172 21.1978C129.186 21.1978 129.801 21.9263 129.801 23.0812L129.819 23.0634ZM127.593 22.0862C127.466 22.3349 127.394 22.6548 127.394 23.099C127.394 23.7386 127.503 24.1473 127.738 24.3072C127.865 24.396 128.009 24.4316 128.19 24.4316C128.715 24.4316 128.932 24.0407 128.932 23.099C128.932 22.7258 128.896 22.4415 128.842 22.2461C128.788 22.0506 128.588 21.7841 128.172 21.7841C127.919 21.7841 127.702 21.9085 127.575 22.1039L127.593 22.0862Z" fill="white"/>
<path d="M131.774 21.2153L132.498 22.6901C132.697 23.081 132.842 23.4719 132.914 23.7384C132.896 23.4541 132.86 22.9744 132.86 22.7256V21.2153H133.565V24.9289H132.769L132.118 23.5074C131.9 23.0455 131.683 22.5124 131.611 22.2992C131.629 22.6013 131.647 23.0455 131.647 23.3475V24.9289H130.941V21.2153H131.792H131.774Z" fill="white"/>
<path d="M138.633 21.2153C139.303 21.2153 139.737 21.6595 139.737 22.2992C139.737 22.85 139.357 23.312 138.886 23.3298C138.959 23.3831 138.995 23.4186 139.049 23.4897C139.266 23.7562 139.954 24.9289 139.954 24.9289H139.049C138.904 24.6802 138.832 24.5913 138.687 24.3248C138.307 23.6674 138.199 23.4719 138.072 23.4186C138.036 23.4186 138 23.3831 137.945 23.3831V24.9289H137.203V21.2153H138.615H138.633ZM137.963 22.8145H138.217C138.542 22.8145 138.687 22.7789 138.796 22.6901C138.886 22.6013 138.941 22.4769 138.941 22.317C138.941 22.086 138.85 21.9261 138.669 21.855C138.579 21.8195 138.416 21.8017 138.235 21.8017H137.963V22.7967V22.8145Z" fill="white"/>
<path d="M143.158 21.2155L143.067 21.8196H141.764V22.6725H142.85V23.2766H141.782V24.2717H143.212V24.9113H141.004V21.1978H143.158V21.2155Z" fill="white"/>
<path d="M146.47 22.015C146.126 21.8196 145.872 21.7307 145.583 21.7307C145.275 21.7307 145.058 21.9084 145.058 22.1572C145.058 22.3526 145.166 22.4415 145.474 22.5303L145.927 22.6547C146.542 22.8146 146.886 23.2055 146.886 23.7563C146.886 24.5026 146.27 25.0001 145.329 25.0001C144.895 25.0001 144.424 24.8757 144.044 24.6625L144.334 24.0761C144.696 24.2538 144.985 24.3782 145.366 24.3782C145.8 24.3782 146.035 24.2005 146.035 23.8629C146.035 23.6319 145.872 23.472 145.547 23.3832L145.13 23.2766C144.75 23.17 144.515 23.0278 144.388 22.8146C144.28 22.6547 144.225 22.4592 144.225 22.246C144.225 21.5708 144.786 21.0911 145.583 21.0911C146.035 21.0911 146.506 21.2332 146.85 21.4642L146.488 21.9972L146.47 22.015Z" fill="white"/>
<path d="M150.234 21.2155L150.143 21.8196H148.859V22.6725H149.944V23.2766H148.877V24.2717H150.306V24.9113H148.098V21.1978H150.252L150.234 21.2155Z" fill="white"/>
<path d="M153.094 21.2153L154.288 24.9289H153.474L153.202 24.0405H152.098L151.827 24.9289H151.03L152.279 21.2153H153.094V21.2153ZM153.021 23.4364C153.021 23.4364 152.894 23.0455 152.822 22.6901C152.786 22.5124 152.677 22.0327 152.677 22.0327C152.677 22.0327 152.569 22.4769 152.496 22.7434C152.424 23.0099 152.37 23.1876 152.297 23.4364H153.039H153.021Z" fill="white"/>
<path d="M156.605 21.2153C157.274 21.2153 157.709 21.6595 157.709 22.2992C157.709 22.85 157.329 23.312 156.858 23.3298C156.93 23.3831 156.967 23.4186 157.021 23.4897C157.238 23.7562 157.926 24.9289 157.926 24.9289H157.021C156.876 24.6802 156.822 24.5913 156.659 24.3248C156.279 23.6674 156.17 23.4719 156.044 23.4186C156.007 23.4186 155.971 23.3831 155.917 23.3831V24.9289H155.175V21.2153H156.586H156.605ZM155.935 22.8145H156.188C156.514 22.8145 156.659 22.7789 156.767 22.6901C156.858 22.6013 156.912 22.4769 156.912 22.317C156.912 22.086 156.822 21.9261 156.641 21.855C156.55 21.8195 156.405 21.8017 156.206 21.8017H155.935V22.7967V22.8145Z" fill="white"/>
<path d="M161.002 21.9439C160.803 21.8017 160.604 21.7306 160.405 21.7306C160.152 21.7306 159.898 21.855 159.772 22.0505C159.627 22.2637 159.555 22.5658 159.555 23.01C159.555 23.5252 159.591 23.7918 159.717 24.005C159.862 24.2715 160.116 24.4137 160.441 24.4137C160.659 24.4137 160.858 24.3426 161.093 24.1827L161.437 24.6446C161.129 24.8756 160.821 25 160.387 25C159.862 25 159.464 24.8401 159.156 24.4847C158.849 24.1471 158.704 23.7029 158.704 23.1521C158.704 22.6901 158.776 22.317 158.957 21.9972C159.247 21.4641 159.79 21.1443 160.405 21.1443C160.785 21.1443 161.147 21.2687 161.364 21.4463L161.021 21.9616L161.002 21.9439Z" fill="white"/>
<path d="M163.174 21.2153V22.6546H164.26V21.2153H165.038V24.9289H164.26V23.2765H163.174V24.9289H162.414V21.2153H163.174Z" fill="white"/>
<path d="M169.491 21.2153V24.9289H168.694V21.2153H169.491Z" fill="white"/>
<path d="M171.735 21.2153L172.459 22.6901C172.658 23.081 172.803 23.4719 172.875 23.7384C172.857 23.4541 172.821 22.9744 172.821 22.7256V21.2153H173.527V24.9289H172.73L172.079 23.5074C171.861 23.0455 171.644 22.5124 171.572 22.2992C171.59 22.6013 171.608 23.0455 171.608 23.3475V24.9289H170.902V21.2153H171.753H171.735Z" fill="white"/>
<path d="M177.056 22.015C176.712 21.8196 176.458 21.7307 176.169 21.7307C175.861 21.7307 175.644 21.9084 175.644 22.1572C175.644 22.3526 175.753 22.4415 176.06 22.5303L176.513 22.6547C177.128 22.8146 177.472 23.2055 177.472 23.7563C177.472 24.5026 176.857 25.0001 175.915 25.0001C175.481 25.0001 175.011 24.8757 174.63 24.6625L174.92 24.0761C175.282 24.2538 175.572 24.3782 175.952 24.3782C176.386 24.3782 176.621 24.2005 176.621 23.8629C176.621 23.6319 176.458 23.472 176.133 23.3832L175.716 23.2766C175.336 23.17 175.101 23.0278 174.974 22.8146C174.866 22.6547 174.811 22.4592 174.811 22.246C174.811 21.5708 175.373 21.0911 176.169 21.0911C176.621 21.0911 177.092 21.2332 177.436 21.4642L177.074 21.9972L177.056 22.015Z" fill="white"/>
<path d="M180.965 21.2153L180.838 21.8372H179.933V24.9289H179.155V21.8372H178.232V21.2153H180.947H180.965Z" fill="white"/>
<path d="M182.757 21.2153V24.9289H181.96V21.2153H182.757Z" fill="white"/>
<path d="M186.503 21.2153L186.376 21.8372H185.471V24.9289H184.693V21.8372H183.77V21.2153H186.503Z" fill="white"/>
<path d="M188.222 21.2155V23.6498C188.222 23.8808 188.24 24.0051 188.295 24.094C188.385 24.2539 188.566 24.3427 188.82 24.3427C189.145 24.3427 189.363 24.1828 189.399 23.9163C189.399 23.8275 189.399 23.7742 189.399 23.5787V21.1978H190.177V23.7031C190.177 24.0585 190.177 24.1295 190.123 24.2894C190.032 24.5737 189.652 24.9824 188.838 24.9824C188.259 24.9824 187.842 24.8047 187.625 24.4849C187.498 24.2894 187.462 24.1473 187.462 23.7919V21.2155H188.24H188.222Z" fill="white"/>
<path d="M193.887 21.2153L193.76 21.8372H192.855V24.9289H192.077V21.8372H191.154V21.2153H193.869H193.887Z" fill="white"/>
<path d="M196.946 21.2155L196.855 21.8196H195.552V22.6725H196.638V23.2766H195.57V24.2717H197V24.9113H194.792V21.1978H196.946V21.2155Z" fill="white"/>
<path d="M74.8003 3.99797V2.38106H78.9629V1.36826C78.9629 1.0129 78.9086 0.497618 78.7819 0.195557H81.4062V2.38106H85.5507V3.99797H83.4332C84.0123 4.63763 84.3562 5.45497 84.3562 6.32562C84.3562 8.38674 82.4016 10.0747 80.1574 10.0747C77.9132 10.0747 75.9586 8.38674 75.9586 6.32562C75.9586 5.45497 76.3025 4.63763 76.8816 3.99797H74.7641H74.8003ZM79.0172 16.9511C78.7095 16.9511 78.42 16.6845 78.42 16.3825V13.2908C78.42 12.509 78.2933 11.8871 78.1304 11.585H80.7908V15.3341H89.659V16.9511H79.0353H79.0172ZM80.1936 4.19342C79.1258 4.19342 78.3114 5.13514 78.3114 6.34339C78.3114 7.55163 79.1258 8.49335 80.1936 8.49335C81.2614 8.49335 82.0758 7.55163 82.0758 6.34339C82.0758 5.13514 81.2795 4.19342 80.1936 4.19342ZM89.478 6.43223V10.2169C89.478 10.9809 89.4237 11.6561 89.3332 12.1359H87.1252V2.00792C87.1252 1.20835 86.9985 0.604228 86.8357 0.284398H89.4961V4.79755H91.9032V6.41446H89.4961L89.478 6.43223Z" fill="white"/>
<path d="M104.5 5.02847V2.4343H94.9799V0.817383H106.852V4.63757C106.852 5.31276 106.726 6.05903 106.563 6.64539H109.078V8.2623H102.111V11.0519H106.671V15.1209C106.671 15.8849 106.617 16.5601 106.527 17.0398H104.319V12.6866H94.9799V11.0697H99.7398V8.28007H92.7719V6.66315H104.355C104.445 6.16564 104.5 5.57929 104.5 5.04624V5.02847Z" fill="white"/>
<path d="M117.91 3.3228V2.61207C117.91 1.83027 117.784 1.20838 117.603 0.888546H120.245V3.83808H123.358V2.00795C123.358 1.20838 123.231 0.604253 123.068 0.284424H125.729V7.48059C125.729 8.24462 125.675 8.91982 125.584 9.39956H123.376V5.47277H120.263V8.81321H112.028C111.739 8.81321 111.449 8.54668 111.449 8.24462V2.68314C111.449 1.90134 111.323 1.27945 111.142 0.977388H113.802V3.3228H117.929H117.91ZM113.784 4.86865V7.17853H117.91V4.86865H113.784ZM123.304 12.0648V11.9582C123.304 11.1764 123.177 10.5545 122.996 10.2347H125.657V17.0399H114.924C114.635 17.0399 114.345 16.7734 114.345 16.4713V12.0293C114.345 11.2475 114.218 10.6256 114.037 10.3235H116.68V12.0648H123.322H123.304ZM116.662 13.6107V15.423H123.304V13.6107H116.662Z" fill="white"/>
<path d="M133.855 5.24178C133.855 8.04917 135.267 10.2524 137.348 11.1586L136.081 12.2247C134.742 11.7805 133.24 10.3768 132.679 9.18634C132.1 10.3946 130.597 11.7983 129.258 12.2247L127.991 11.1586C130.073 10.2524 131.484 8.04917 131.484 5.24178V2.98521H128.969V1.36829H136.389V2.98521H133.873V5.24178H133.855ZM140.189 17.0222H138.126V7.08968H135.484V5.47277H138.126V2.00795C138.126 1.20838 138.018 0.604253 137.837 0.284424H140.334V15.121C140.334 15.885 140.28 16.5602 140.189 17.0399V17.0222ZM143.501 17.0222H141.438V2.00795C141.438 1.20838 141.33 0.604253 141.167 0.284424H143.646V15.121C143.646 15.885 143.592 16.5602 143.501 17.0399V17.0222Z" fill="white"/>
<path d="M158.704 2.78975V2.00795C158.704 1.20838 158.577 0.604253 158.396 0.284424H161.057V10.1991C161.057 10.9632 161.002 11.6384 160.912 12.1181H158.704V7.55166H155.102C154.27 8.7599 152.822 9.57725 151.193 9.57725C148.641 9.57725 146.542 7.5872 146.542 5.17071C146.542 2.75422 148.641 0.7464 151.193 0.7464C152.84 0.7464 154.306 1.56374 155.139 2.80752H158.704V2.78975ZM151.193 2.32778C149.89 2.32778 148.877 3.57156 148.877 5.15294C148.877 6.73432 149.89 7.96033 151.193 7.96033C152.496 7.96033 153.51 6.73432 153.51 5.15294C153.51 3.57156 152.514 2.32778 151.193 2.32778V2.32778ZM150.614 16.9333C150.306 16.9333 150.017 16.6668 150.017 16.3647V12.8999C150.017 12.1181 149.89 11.4962 149.727 11.1942H152.388V15.3164H161.256V16.9333H150.632H150.614ZM158.704 5.91698V4.40667H155.79C155.844 4.63766 155.863 4.90418 155.863 5.15294C155.863 5.40169 155.844 5.66822 155.79 5.91698H158.704Z" fill="white"/>
<path d="M175.626 5.57939V2.62986H166.016V1.01294H177.979V5.38394C177.979 6.57442 177.761 7.76489 177.472 8.56447H180.096V10.1814H173.128V15.2987C173.128 15.9739 173.074 16.6313 173.002 17.0222H170.757V10.1814H163.79V8.56447H175.318C175.499 7.76489 175.626 6.66326 175.626 5.57939V5.57939Z" fill="white"/>
<path d="M181.924 9.16847V7.56932H190.575C191.625 7.56932 192.675 7.48048 193.308 7.3561V8.79533C192.656 8.99079 191.625 9.18624 190.195 9.18624H188.204V11.585H185.833V9.18624H181.942L181.924 9.16847ZM187.39 6.94743C185.218 6.94743 183.481 5.41936 183.481 3.51815C183.481 1.61694 185.218 0.0888672 187.39 0.0888672C189.562 0.0888672 191.299 1.61694 191.299 3.51815C191.299 5.41936 189.562 6.94743 187.39 6.94743ZM186.304 16.951C185.996 16.951 185.707 16.6845 185.707 16.3824V14.0192C185.707 13.2374 185.58 12.6155 185.417 12.3135H188.078V15.3341H196.946V16.951H186.322H186.304ZM187.39 1.70578C186.503 1.70578 185.779 2.54089 185.779 3.53592C185.779 4.53094 186.503 5.34828 187.39 5.34828C188.277 5.34828 189.001 4.51317 189.001 3.53592C189.001 2.55866 188.277 1.70578 187.39 1.70578V1.70578ZM196.602 12.6688H194.394V11.6383H190.81V10.0391H194.394V2.00784C194.394 1.20827 194.267 0.604148 194.086 0.284319H196.747V10.7498C196.747 11.5139 196.692 12.1891 196.602 12.6688V12.6688Z" fill="white"/>
</g>
<defs>
<clipPath id="clip0_854_3728">
<rect width="197" height="25" fill="white"/>
</clipPath>
</defs>
</svg>
