<svg width="385" height="377" viewBox="0 0 385 377" fill="none" xmlns="http://www.w3.org/2000/svg">
<path d="M192.5 331C273.41 331 339 265.634 339 185C339 104.366 273.41 39 192.5 39C111.59 39 46 104.366 46 185C46 265.634 111.59 331 192.5 331Z" fill="white"/>
<path d="M338.835 178.01C338.898 179.333 338.943 180.661 338.97 181.993C338.694 181.998 338.474 182.226 338.479 182.502C338.493 183.333 338.5 184.166 338.5 185C338.5 185.834 338.493 186.667 338.479 187.498C338.474 187.774 338.694 188.002 338.97 188.007C338.943 189.339 338.898 190.667 338.835 191.99C338.56 191.976 338.325 192.188 338.311 192.464C338.227 194.13 338.114 195.788 337.974 197.438C337.951 197.713 338.154 197.955 338.429 197.979C338.312 199.308 338.176 200.633 338.023 201.952C337.749 201.92 337.501 202.115 337.468 202.389C337.271 204.039 337.046 205.681 336.794 207.314C336.752 207.586 336.938 207.842 337.211 207.884C337.002 209.204 336.776 210.518 336.532 211.826C336.261 211.775 336 211.953 335.949 212.224C335.638 213.859 335.301 215.483 334.936 217.097C334.875 217.367 335.044 217.634 335.312 217.695C335.014 218.994 334.699 220.286 334.366 221.572C334.099 221.502 333.826 221.662 333.756 221.929C333.334 223.537 332.885 225.136 332.409 226.722C332.33 226.986 332.48 227.265 332.743 227.344C332.356 228.621 331.951 229.89 331.53 231.151C331.269 231.063 330.985 231.204 330.897 231.465C330.365 233.039 329.807 234.601 329.223 236.15C329.126 236.408 329.256 236.696 329.514 236.794C329.04 238.04 328.548 239.277 328.041 240.507C327.786 240.401 327.494 240.522 327.388 240.776C326.749 242.31 326.084 243.831 325.394 245.338C325.279 245.589 325.389 245.885 325.639 246C325.08 247.21 324.505 248.411 323.914 249.602C323.667 249.479 323.368 249.58 323.244 249.826C322.501 251.311 321.734 252.782 320.942 254.237C320.81 254.479 320.9 254.783 321.142 254.915C320.501 256.084 319.844 257.243 319.172 258.392C318.935 258.253 318.629 258.332 318.489 258.57C317.646 260 316.779 261.415 315.889 262.814C315.741 263.047 315.809 263.355 316.041 263.504C315.323 264.625 314.589 265.736 313.84 266.836C313.613 266.68 313.302 266.739 313.146 266.966C312.207 268.335 311.246 269.688 310.262 271.023C310.099 271.245 310.146 271.558 310.367 271.722C309.574 272.792 308.766 273.85 307.943 274.897C307.727 274.727 307.413 274.763 307.242 274.98C306.212 276.282 305.161 277.566 304.089 278.831C303.911 279.041 303.936 279.356 304.146 279.535C303.282 280.548 302.404 281.549 301.512 282.538C301.308 282.353 300.992 282.368 300.807 282.573C299.692 283.801 298.556 285.011 297.399 286.201C297.207 286.399 297.211 286.715 297.409 286.908C296.478 287.859 295.534 288.798 294.577 289.725C294.386 289.526 294.07 289.52 293.871 289.712C292.675 290.861 291.46 291.991 290.225 293.1C290.02 293.285 290.003 293.601 290.187 293.806C289.193 294.692 288.188 295.565 287.171 296.425C286.993 296.214 286.678 296.186 286.467 296.364C285.196 297.429 283.907 298.474 282.6 299.497C282.383 299.667 282.344 299.981 282.514 300.198C281.463 301.015 280.4 301.818 279.327 302.607C279.164 302.384 278.851 302.335 278.629 302.498C277.289 303.475 275.931 304.43 274.557 305.362C274.329 305.517 274.269 305.828 274.424 306.056C273.32 306.799 272.206 307.528 271.081 308.241C270.934 308.008 270.626 307.939 270.392 308.086C268.989 308.969 267.571 309.829 266.136 310.666C265.898 310.805 265.817 311.111 265.956 311.349C264.804 312.016 263.642 312.667 262.47 313.303C262.339 313.061 262.036 312.97 261.793 313.101C260.334 313.886 258.86 314.647 257.372 315.384C257.125 315.507 257.024 315.806 257.145 316.053C255.952 316.639 254.749 317.21 253.537 317.764C253.423 317.513 253.127 317.402 252.875 317.516C251.366 318.2 249.843 318.859 248.306 319.493C248.051 319.598 247.93 319.89 248.034 320.145C246.803 320.648 245.564 321.135 244.316 321.605C244.219 321.347 243.931 321.216 243.673 321.312C242.122 321.891 240.558 322.444 238.983 322.971C238.721 323.058 238.58 323.341 238.667 323.603C237.404 324.02 236.134 324.421 234.857 324.805C234.778 324.541 234.5 324.39 234.235 324.469C232.647 324.94 231.048 325.385 229.438 325.803C229.171 325.873 229.01 326.145 229.079 326.412C227.793 326.742 226.5 327.054 225.201 327.349C225.14 327.08 224.873 326.911 224.604 326.971C222.989 327.332 221.363 327.667 219.729 327.974C219.457 328.025 219.279 328.286 219.329 328.557C218.021 328.799 216.706 329.023 215.386 329.229C215.344 328.956 215.089 328.769 214.816 328.811C213.183 329.061 211.541 329.283 209.891 329.479C209.617 329.511 209.421 329.759 209.453 330.033C208.133 330.185 206.809 330.319 205.479 330.435C205.455 330.16 205.214 329.956 204.939 329.979C203.288 330.118 201.63 330.23 199.964 330.313C199.689 330.327 199.477 330.561 199.49 330.837C198.167 330.899 196.839 330.943 195.507 330.97C195.502 330.694 195.274 330.475 194.998 330.479C194.167 330.493 193.334 330.5 192.5 330.5C191.666 330.5 190.833 330.493 190.002 330.479C189.726 330.475 189.498 330.694 189.493 330.97C188.161 330.943 186.833 330.899 185.51 330.837C185.523 330.561 185.311 330.327 185.036 330.313C183.37 330.23 181.712 330.118 180.061 329.979C179.786 329.956 179.544 330.16 179.521 330.435C178.191 330.319 176.867 330.185 175.547 330.033C175.579 329.759 175.383 329.511 175.109 329.479C173.459 329.283 171.817 329.061 170.184 328.811C169.911 328.769 169.656 328.957 169.614 329.229C168.294 329.023 166.979 328.799 165.671 328.557C165.721 328.286 165.543 328.025 165.271 327.974C163.637 327.667 162.011 327.332 160.396 326.971C160.127 326.911 159.86 327.08 159.799 327.349C158.5 327.054 157.207 326.742 155.921 326.412C155.99 326.145 155.829 325.873 155.562 325.803C153.952 325.385 152.353 324.94 150.765 324.469C150.5 324.39 150.222 324.541 150.143 324.805C148.866 324.421 147.595 324.02 146.333 323.603C146.42 323.341 146.279 323.058 146.017 322.971C144.442 322.444 142.878 321.891 141.327 321.312C141.068 321.216 140.781 321.347 140.684 321.605C139.436 321.135 138.197 320.648 136.966 320.145C137.07 319.89 136.949 319.598 136.694 319.493C135.157 318.859 133.634 318.2 132.125 317.516C131.873 317.402 131.577 317.513 131.463 317.764C130.251 317.21 129.048 316.639 127.854 316.053C127.976 315.806 127.875 315.507 127.628 315.384C126.14 314.647 124.666 313.886 123.207 313.101C122.964 312.97 122.661 313.061 122.53 313.303C121.358 312.667 120.196 312.016 119.044 311.349C119.183 311.111 119.102 310.805 118.864 310.666C117.429 309.829 116.01 308.969 114.608 308.085C114.374 307.938 114.066 308.008 113.919 308.241C112.794 307.528 111.68 306.799 110.576 306.056C110.731 305.828 110.671 305.517 110.443 305.362C109.069 304.43 107.711 303.475 106.371 302.498C106.149 302.335 105.836 302.384 105.673 302.607C104.6 301.818 103.537 301.015 102.486 300.198C102.656 299.981 102.617 299.667 102.4 299.497C101.093 298.474 99.8038 297.429 98.5332 296.364C98.3219 296.186 98.0069 296.214 97.8293 296.425C96.8119 295.565 95.8064 294.692 94.8131 293.806C94.9971 293.6 94.98 293.285 94.7748 293.1C93.5402 291.991 92.3248 290.861 91.129 289.711C90.9301 289.52 90.6141 289.526 90.4226 289.725C89.466 288.798 88.522 287.859 87.591 286.907C87.7884 286.715 87.7928 286.399 87.6005 286.201C86.4443 285.011 85.3083 283.801 84.1931 282.573C84.0077 282.368 83.6919 282.353 83.4874 282.538C82.596 281.549 81.7179 280.548 80.8535 279.535C81.0635 279.356 81.0893 279.041 80.911 278.831C79.8386 277.565 78.7874 276.282 77.7581 274.98C77.587 274.763 77.273 274.727 77.0564 274.897C76.2343 273.85 75.4262 272.792 74.6325 271.722C74.8542 271.558 74.9014 271.245 74.7378 271.023C73.754 269.688 72.7925 268.335 71.854 266.966C71.698 266.738 71.3873 266.68 71.1596 266.836C70.4111 265.736 69.6773 264.625 68.9584 263.504C69.1908 263.355 69.2592 263.047 69.1111 262.814C68.221 261.415 67.3542 260 66.5113 258.57C66.3713 258.332 66.0652 258.253 65.8274 258.392C65.1556 257.243 64.499 256.084 63.858 254.915C64.1 254.783 64.1894 254.479 64.0576 254.237C63.2659 252.782 62.4984 251.311 61.7557 249.826C61.6323 249.58 61.3324 249.479 61.0856 249.602C60.4947 248.411 59.9196 247.21 59.3607 246C59.6112 245.885 59.7212 245.589 59.6063 245.338C58.9163 243.831 58.2513 242.31 57.6119 240.776C57.5057 240.522 57.2135 240.401 56.9588 240.507C56.4514 239.277 55.9603 238.04 55.4859 236.794C55.7438 236.696 55.8739 236.408 55.7766 236.15C55.1928 234.601 54.6347 233.039 54.1028 231.465C54.0145 231.204 53.7313 231.063 53.4699 231.151C53.0485 229.89 52.6439 228.621 52.2564 227.344C52.5204 227.265 52.6701 226.986 52.5909 226.722C52.1152 225.135 51.6659 223.537 51.2436 221.929C51.1735 221.662 50.9006 221.502 50.6338 221.572C50.3011 220.286 49.9856 218.994 49.6874 217.695C49.9563 217.634 50.1249 217.367 50.0641 217.097C49.6994 215.483 49.3616 213.858 49.0512 212.224C48.9997 211.953 48.7385 211.775 48.4675 211.826C48.2238 210.518 47.9975 209.204 47.789 207.884C48.0615 207.842 48.2481 207.586 48.206 207.314C47.9539 205.681 47.729 204.039 47.5318 202.389C47.499 202.115 47.2507 201.92 46.9768 201.952C46.8238 200.633 46.6884 199.308 46.5708 197.979C46.8456 197.955 47.0492 197.713 47.0259 197.438C46.8857 195.788 46.7731 194.13 46.6887 192.464C46.6747 192.188 46.4403 191.976 46.1648 191.99C46.1023 190.667 46.0574 189.339 46.0303 188.007C46.3061 188.002 46.5256 187.774 46.521 187.498C46.5069 186.667 46.4999 185.834 46.4999 185C46.4999 184.166 46.5069 183.333 46.521 182.502C46.5256 182.226 46.3061 181.998 46.0303 181.993C46.0574 180.661 46.1023 179.333 46.1648 178.01C46.4403 178.024 46.6747 177.812 46.6887 177.536C46.7731 175.87 46.8857 174.212 47.0259 172.562C47.0492 172.287 46.8456 172.045 46.5708 172.021C46.6884 170.692 46.8238 169.367 46.9768 168.048C47.2507 168.08 47.499 167.885 47.5318 167.611C47.729 165.961 47.9539 164.319 48.206 162.686C48.2481 162.414 48.0615 162.158 47.789 162.116C47.9975 160.796 48.2238 159.482 48.4675 158.174C48.7385 158.225 48.9997 158.047 49.0512 157.776C49.3616 156.141 49.6994 154.517 50.0641 152.903C50.1249 152.633 49.9563 152.366 49.6874 152.305C49.9856 151.006 50.3012 149.714 50.6338 148.428C50.9007 148.498 51.1735 148.338 51.2436 148.071C51.6659 146.463 52.1152 144.864 52.5909 143.278C52.6701 143.014 52.5204 142.735 52.2564 142.656C52.6439 141.379 53.0485 140.11 53.4699 138.849C53.7313 138.937 54.0145 138.796 54.1028 138.535C54.6347 136.961 55.1928 135.399 55.7766 133.85C55.8739 133.592 55.7438 133.304 55.4859 133.206C55.9603 131.96 56.4514 130.723 56.9588 129.493C57.2135 129.599 57.5057 129.478 57.6119 129.224C58.2513 127.69 58.9163 126.169 59.6063 124.662C59.7212 124.411 59.6112 124.115 59.3607 124C59.9196 122.79 60.4947 121.589 61.0856 120.398C61.3324 120.521 61.6323 120.42 61.7557 120.174C62.4985 118.689 63.2659 117.218 64.0576 115.763C64.1894 115.521 64.1 115.217 63.858 115.085C64.499 113.916 65.1556 112.757 65.8275 111.608C66.0653 111.747 66.3713 111.668 66.5113 111.43C67.3543 110 68.221 108.585 69.1111 107.186C69.2592 106.953 69.1908 106.645 68.9584 106.496C69.6773 105.375 70.4111 104.264 71.1596 103.164C71.3873 103.32 71.698 103.261 71.854 103.034C72.7926 101.665 73.754 100.312 74.7378 98.9766C74.9014 98.7545 74.8542 98.4419 74.6325 98.278C75.4263 97.2083 76.2343 96.1497 77.0565 95.1027C77.273 95.2734 77.587 95.2365 77.7581 95.0201C78.7874 93.7183 79.8386 92.4344 80.911 91.169C81.0894 90.9586 81.0636 90.6435 80.8535 90.4649C81.7179 89.4519 82.596 88.4508 83.4875 87.462C83.692 87.647 84.0077 87.6315 84.1931 87.4272C85.3084 86.1985 86.4444 84.9889 87.6006 83.7988C87.7928 83.601 87.7884 83.2849 87.591 83.0924C88.522 82.1406 89.466 81.2015 90.4226 80.2752C90.6141 80.4736 90.9302 80.4796 91.129 80.2884C92.3248 79.1384 93.5403 78.0086 94.7748 76.8994C94.98 76.7151 94.9971 76.3994 94.8132 76.1939C95.8065 75.3076 96.8119 74.4346 97.8294 73.5752C98.0069 73.7862 98.3219 73.8136 98.5332 73.6363C99.8038 72.5704 101.093 71.5258 102.4 70.5028C102.617 70.3328 102.656 70.019 102.486 69.8016C103.537 68.9848 104.6 68.1819 105.673 67.3933C105.836 67.6158 106.149 67.6645 106.371 67.502C107.711 66.5248 109.069 65.5698 110.443 64.6376C110.671 64.4827 110.731 64.1723 110.576 63.9438C111.68 63.2007 112.794 62.4722 113.919 61.7585C114.066 61.9916 114.374 62.0614 114.608 61.9144C116.011 61.0309 117.429 60.1706 118.864 59.334C119.102 59.195 119.183 58.8894 119.044 58.6509C120.196 57.9842 121.358 57.3328 122.53 56.6968C122.661 56.9394 122.964 57.03 123.207 56.8993C124.666 56.1139 126.14 55.3525 127.628 54.6157C127.875 54.4933 127.976 54.1938 127.855 53.9465C129.048 53.3606 130.251 52.7903 131.463 52.2361C131.577 52.487 131.873 52.5982 132.125 52.4843C133.634 51.8002 135.157 51.1409 136.694 50.507C136.949 50.4018 137.07 50.11 136.966 49.8549C138.197 49.3519 139.436 48.8651 140.684 48.3948C140.781 48.653 141.069 48.7842 141.327 48.6878C142.878 48.1092 144.442 47.5562 146.017 47.0292C146.279 46.9417 146.42 46.6589 146.333 46.3973C147.596 45.9798 148.866 45.579 150.143 45.1951C150.222 45.4593 150.5 45.6099 150.765 45.5314C152.353 45.0601 153.952 44.615 155.562 44.1966C155.829 44.1272 155.99 43.8548 155.921 43.5878C157.207 43.2583 158.5 42.9459 159.799 42.6506C159.86 42.9196 160.127 43.0888 160.396 43.0286C162.011 42.6675 163.637 42.333 165.271 42.0257C165.543 41.9747 165.721 41.7138 165.671 41.4427C166.979 41.2014 168.294 40.9773 169.614 40.7709C169.656 41.0434 169.911 41.2304 170.184 41.1888C171.817 40.9392 173.459 40.7165 175.109 40.5213C175.383 40.4889 175.579 40.2408 175.547 39.9669C176.867 39.8154 178.191 39.6814 179.521 39.565C179.545 39.8398 179.786 40.0436 180.061 40.0205C181.712 39.8818 183.37 39.7703 185.036 39.6868C185.311 39.6729 185.523 39.4386 185.51 39.1632C186.833 39.1012 188.161 39.0568 189.493 39.03C189.498 39.3057 189.726 39.5254 190.002 39.5208C190.833 39.5069 191.666 39.4999 192.5 39.4999C193.334 39.4999 194.167 39.5069 194.998 39.5208C195.274 39.5254 195.502 39.3057 195.507 39.03C196.839 39.0568 198.167 39.1012 199.49 39.1632C199.477 39.4386 199.689 39.6729 199.964 39.6868C201.63 39.7703 203.288 39.8818 204.939 40.0205C205.214 40.0437 205.456 39.8398 205.479 39.565C206.809 39.6814 208.133 39.8154 209.453 39.9669C209.421 40.2408 209.617 40.4889 209.891 40.5213C211.541 40.7165 213.183 40.9392 214.816 41.1888C215.089 41.2305 215.344 41.0434 215.386 40.7709C216.706 40.9773 218.021 41.2014 219.329 41.4427C219.279 41.7138 219.457 41.9747 219.729 42.0257C221.363 42.333 222.989 42.6675 224.604 43.0286C224.873 43.0888 225.14 42.9196 225.201 42.6506C226.5 42.9459 227.793 43.2583 229.079 43.5878C229.01 43.8548 229.171 44.1272 229.438 44.1966C231.048 44.615 232.647 45.0601 234.235 45.5314C234.5 45.6099 234.778 45.4593 234.857 45.1951C236.134 45.579 237.405 45.9798 238.667 46.3973C238.58 46.6589 238.721 46.9417 238.983 47.0292C240.558 47.5562 242.122 48.1092 243.673 48.6878C243.932 48.7842 244.219 48.6531 244.316 48.3949C245.564 48.8651 246.803 49.3519 248.034 49.8549C247.93 50.11 248.051 50.4018 248.306 50.507C249.843 51.1409 251.366 51.8002 252.875 52.4843C253.127 52.5982 253.423 52.4871 253.537 52.2361C254.749 52.7903 255.952 53.3606 257.145 53.9465C257.024 54.1939 257.125 54.4933 257.372 54.6157C258.86 55.3525 260.334 56.1139 261.793 56.8993C262.036 57.03 262.339 56.9394 262.47 56.6968C263.642 57.3328 264.804 57.9843 265.956 58.6509C265.817 58.8894 265.898 59.195 266.136 59.334C267.571 60.1706 268.99 61.0309 270.392 61.9144C270.626 62.0614 270.934 61.9916 271.081 61.7585C272.206 62.4722 273.32 63.2007 274.424 63.9438C274.269 64.1723 274.329 64.4827 274.557 64.6376C275.931 65.5698 277.289 66.5248 278.629 67.502C278.851 67.6646 279.164 67.6159 279.327 67.3933C280.4 68.1819 281.463 68.9848 282.514 69.8016C282.344 70.019 282.383 70.3328 282.6 70.5028C283.907 71.5258 285.196 72.5704 286.467 73.6363C286.678 73.8136 286.993 73.7862 287.171 73.5753C288.188 74.4347 289.193 75.3077 290.187 76.194C290.003 76.3994 290.02 76.7151 290.225 76.8994C291.46 78.0086 292.675 79.1384 293.871 80.2884C294.07 80.4796 294.386 80.4737 294.577 80.2752C295.534 81.2015 296.478 82.1407 297.409 83.0924C297.211 83.2849 297.207 83.601 297.399 83.7989C298.556 84.9889 299.692 86.1985 300.807 87.4272C300.992 87.6315 301.308 87.647 301.512 87.462C302.404 88.4509 303.282 89.4519 304.146 90.4649C303.936 90.6435 303.911 90.9586 304.089 91.169C305.161 92.4344 306.212 93.7183 307.242 95.0201C307.413 95.2365 307.727 95.2734 307.943 95.1027C308.766 96.1498 309.574 97.2083 310.367 98.278C310.146 98.4419 310.099 98.7545 310.262 98.9766C311.246 100.312 312.207 101.665 313.146 103.034C313.302 103.262 313.613 103.32 313.84 103.164C314.589 104.264 315.323 105.375 316.042 106.496C315.809 106.645 315.741 106.953 315.889 107.186C316.779 108.585 317.646 110 318.489 111.43C318.629 111.668 318.935 111.747 319.172 111.608C319.844 112.757 320.501 113.916 321.142 115.085C320.9 115.217 320.811 115.521 320.942 115.763C321.734 117.218 322.501 118.689 323.244 120.174C323.368 120.42 323.668 120.521 323.914 120.398C324.505 121.589 325.08 122.79 325.639 124C325.389 124.115 325.279 124.411 325.394 124.662C326.084 126.169 326.749 127.69 327.388 129.224C327.494 129.478 327.786 129.599 328.041 129.493C328.549 130.723 329.04 131.96 329.514 133.206C329.256 133.304 329.126 133.592 329.223 133.85C329.807 135.399 330.365 136.961 330.897 138.535C330.985 138.796 331.269 138.937 331.53 138.849C331.951 140.11 332.356 141.379 332.743 142.656C332.48 142.735 332.33 143.014 332.409 143.278C332.885 144.865 333.334 146.463 333.756 148.071C333.826 148.338 334.099 148.498 334.366 148.428C334.699 149.714 335.014 151.006 335.312 152.305C335.044 152.366 334.875 152.633 334.936 152.903C335.301 154.517 335.638 156.142 335.949 157.776C336 158.047 336.261 158.225 336.532 158.174C336.776 159.482 337.002 160.796 337.211 162.116C336.938 162.158 336.752 162.414 336.794 162.686C337.046 164.319 337.271 165.961 337.468 167.611C337.501 167.885 337.749 168.08 338.023 168.048C338.176 169.367 338.312 170.692 338.429 172.021C338.154 172.045 337.951 172.287 337.974 172.562C338.114 174.212 338.227 175.87 338.311 177.536C338.325 177.812 338.56 178.024 338.835 178.01Z" stroke="#3480CD" stroke-opacity="0.5" stroke-linecap="round" stroke-linejoin="bevel" stroke-dasharray="5 5"/>
<g filter="url(#filter0_d_1192_9706)">
<path d="M192.5 60C261.259 60 317 115.741 317 184.5C317 253.259 261.259 309 192.5 309C123.741 309 68 253.259 68 184.5C68 115.741 123.741 60 192.5 60Z" fill="white"/>
<path d="M192.5 60.5C260.983 60.5 316.5 116.017 316.5 184.5C316.5 252.983 260.983 308.5 192.5 308.5C124.017 308.5 68.5 252.983 68.5 184.5C68.5 116.017 124.017 60.5 192.5 60.5Z" stroke="#3480CD" stroke-opacity="0.5"/>
</g>
<path d="M192.494 165.278L180.792 183.042L169.104 165.278L180.792 147.514L192.494 165.278Z" fill="#0082CB"/>
<path d="M192.496 165.278L204.198 183.042L215.9 165.278L204.198 147.514L192.496 165.278Z" fill="#0082CB"/>
<path d="M180.793 147.515L192.495 165.279L204.196 147.515L192.495 129.764L180.793 147.515Z" fill="#0082CB"/>
<path d="M169.104 165.278L157.402 183.029H180.793L169.104 165.278Z" fill="#0082CB"/>
<path d="M215.897 165.278L204.195 183.029H227.599L215.897 165.278Z" fill="#0082CB"/>
<path d="M192.494 165.278L180.792 183.042L169.104 165.278L180.792 147.514L192.494 165.278Z" fill="#00A0D8"/>
<path d="M192.496 165.278L204.198 183.042L215.9 165.278L204.198 147.514L192.496 165.278Z" fill="#00A0D8"/>
<path d="M180.793 147.515L192.495 165.279L204.196 147.515L192.495 129.764L180.793 147.515Z" fill="#62B9E3"/>
<path d="M169.104 165.278L157.402 183.029H180.793L169.104 165.278Z" fill="#0082CB"/>
<path d="M215.897 165.278L204.195 183.029H227.599L215.897 165.278Z" fill="#0082CB"/>
<path d="M227.6 129.751L215.898 112L204.196 129.751H227.6Z" fill="#62B9E3"/>
<path d="M204.195 129.764L215.897 147.515L227.599 129.764H204.195Z" fill="#00A0D8"/>
<path d="M156.096 200.965H150.721L141.013 212.323H138.121V200.965H134V228.74H138.121V216.378H141.026L151.632 228.74H157.034L144.685 214.331L156.096 200.965Z" fill="black"/>
<path d="M224.812 200.965H220.691V228.74H224.812V200.965Z" fill="black"/>
<path d="M244.23 217.421C247.65 216.233 249.895 213.195 249.895 209.497C249.895 204.557 246.105 200.965 240.875 200.965H230.375V228.74H234.496V217.976H239.792L246.224 228.74H250.992L244.23 217.421ZM234.496 205.033H240.822C243.728 205.033 245.748 206.855 245.748 209.47C245.748 212.072 243.714 213.882 240.822 213.882H234.496V205.033Z" fill="black"/>
<path d="M211.884 200.965L202.044 221.793L192.218 200.965H188.982V228.74H193.169V212.574L200.882 228.74H203.207L210.933 212.574V228.74H215.12V200.965H211.884Z" fill="black"/>
<path d="M170.599 200.595C162.727 200.595 156.335 206.974 156.335 214.859C156.335 222.744 162.714 229.123 170.599 229.123C178.47 229.123 184.863 222.744 184.863 214.859C184.863 206.974 178.484 200.595 170.599 200.595ZM170.599 225.28C164.84 225.28 160.178 220.618 160.178 214.859C160.178 209.101 164.84 204.439 170.599 204.439C176.357 204.439 181.02 209.101 181.02 214.859C181.033 220.604 176.357 225.28 170.599 225.28Z" fill="black"/>
<path d="M135.189 238.975L136.681 240.956H136.06L134.858 239.332L134.475 239.741V240.956H134V237.47H134.475V239.134L136.008 237.47H136.589L135.189 238.975Z" fill="black"/>
<path d="M137.883 238.262C138.253 238.262 138.531 238.368 138.742 238.579C138.953 238.791 139.059 239.081 139.059 239.464V239.781C139.059 240.164 138.953 240.468 138.742 240.666C138.531 240.877 138.24 240.983 137.883 240.983C137.514 240.983 137.236 240.877 137.025 240.666C136.814 240.455 136.708 240.164 136.708 239.781V239.464C136.708 239.081 136.814 238.777 137.025 238.566C137.236 238.368 137.514 238.262 137.883 238.262ZM137.883 240.587C138.095 240.587 138.266 240.521 138.399 240.375C138.531 240.243 138.597 240.032 138.597 239.741V239.49C138.597 239.213 138.531 239.002 138.399 238.857C138.266 238.724 138.095 238.645 137.883 238.645C137.672 238.645 137.5 238.711 137.368 238.857C137.236 238.989 137.17 239.2 137.17 239.49V239.741C137.17 240.019 137.236 240.23 137.368 240.375C137.5 240.521 137.672 240.587 137.883 240.587Z" fill="black"/>
<path d="M141.013 238.778C140.974 238.765 140.921 238.738 140.868 238.738C140.815 238.725 140.749 238.725 140.696 238.725C140.604 238.725 140.525 238.738 140.445 238.778C140.366 238.817 140.3 238.857 140.234 238.923C140.181 238.989 140.128 239.055 140.089 239.148C140.049 239.24 140.036 239.332 140.036 239.438V240.983H139.561V238.342H140.023V238.765C140.102 238.619 140.194 238.5 140.327 238.421C140.445 238.342 140.604 238.302 140.802 238.302C140.921 238.302 141.027 238.315 141.145 238.355L141.013 238.778Z" fill="black"/>
<path d="M143.51 240.706C143.391 240.785 143.259 240.851 143.088 240.917C142.929 240.97 142.731 240.997 142.48 240.997C142.308 240.997 142.163 240.97 142.018 240.931C141.873 240.878 141.754 240.812 141.648 240.706C141.542 240.614 141.463 240.482 141.397 240.323C141.331 240.165 141.305 239.98 141.305 239.768V239.465C141.305 239.266 141.331 239.095 141.384 238.936C141.437 238.778 141.516 238.659 141.622 238.553C141.727 238.448 141.846 238.382 141.978 238.329C142.124 238.276 142.269 238.25 142.427 238.25C142.771 238.25 143.035 238.355 143.233 238.553C143.431 238.765 143.537 239.055 143.537 239.438V239.795H141.793V239.808C141.793 240.059 141.859 240.257 141.991 240.376C142.124 240.495 142.295 240.574 142.507 240.574C142.678 240.574 142.824 240.548 142.956 240.508C143.074 240.468 143.193 240.402 143.312 240.336L143.51 240.706ZM142.467 238.672C142.374 238.672 142.282 238.685 142.203 238.725C142.124 238.765 142.044 238.804 141.991 238.87C141.925 238.936 141.886 239.002 141.846 239.082C141.807 239.161 141.793 239.253 141.793 239.359V239.425H143.114V239.332C143.114 239.134 143.061 238.963 142.942 238.844C142.824 238.725 142.665 238.672 142.467 238.672Z" fill="black"/>
<path d="M144.765 240.996C144.501 240.996 144.29 240.93 144.131 240.798C143.973 240.666 143.894 240.481 143.894 240.257V240.124C143.894 239.9 143.973 239.715 144.118 239.57C144.263 239.424 144.514 239.358 144.858 239.358H145.531V239.2C145.531 239.028 145.492 238.896 145.399 238.804C145.307 238.711 145.175 238.685 144.99 238.685C144.831 238.685 144.699 238.711 144.58 238.751C144.461 238.804 144.343 238.87 144.224 238.949L143.986 238.606C144.118 238.513 144.263 238.434 144.422 238.368C144.58 238.302 144.765 238.262 144.99 238.262C145.135 238.262 145.267 238.275 145.399 238.315C145.518 238.355 145.624 238.407 145.716 238.474C145.809 238.54 145.875 238.632 145.927 238.738C145.98 238.843 146.007 238.962 146.007 239.094V240.943H145.544V240.626C145.518 240.679 145.478 240.719 145.439 240.758C145.399 240.798 145.346 240.838 145.294 240.864C145.227 240.904 145.148 240.93 145.069 240.957C144.99 240.983 144.884 240.996 144.765 240.996ZM145.531 239.755H144.871C144.686 239.755 144.554 239.794 144.475 239.86C144.395 239.926 144.356 240.032 144.356 240.151V240.217C144.356 240.349 144.395 240.441 144.488 240.494C144.58 240.547 144.686 240.587 144.818 240.587C144.937 240.587 145.029 240.574 145.122 240.547C145.201 240.521 145.28 240.481 145.36 240.428C145.426 240.375 145.465 240.323 145.492 240.257C145.518 240.19 145.531 240.111 145.531 240.006V239.755Z" fill="black"/>
<path d="M148.357 238.447C148.344 238.407 148.331 238.381 148.317 238.341C148.304 238.302 148.291 238.275 148.278 238.236C148.265 238.196 148.251 238.157 148.238 238.117C148.225 238.077 148.199 238.024 148.185 237.958V240.956H147.736V237.47H148.436L149.4 239.755L150.338 237.47H151.038V240.956H150.576V237.958C150.563 238.024 150.549 238.077 150.523 238.117C150.51 238.157 150.497 238.196 150.483 238.236C150.47 238.275 150.457 238.302 150.444 238.341C150.431 238.368 150.417 238.407 150.404 238.447L149.572 240.389H149.163L148.357 238.447Z" fill="black"/>
<path d="M152.2 237.364V237.879H151.698V237.364H152.2ZM152.187 238.315V240.957H151.711V238.315H152.187Z" fill="black"/>
<path d="M155.013 240.957H154.538V239.306C154.538 239.082 154.485 238.923 154.392 238.817C154.3 238.712 154.155 238.672 153.957 238.672C153.877 238.672 153.798 238.685 153.719 238.712C153.64 238.738 153.574 238.778 153.508 238.831C153.442 238.883 153.389 238.949 153.349 239.029C153.309 239.108 153.283 239.2 153.283 239.306V240.944H152.808V238.302H153.27V238.632C153.349 238.514 153.455 238.421 153.587 238.355C153.719 238.289 153.877 238.25 154.062 238.25C154.194 238.25 154.313 238.276 154.419 238.302C154.538 238.342 154.63 238.395 154.709 238.474C154.789 238.553 154.855 238.646 154.908 238.765C154.96 238.883 154.974 239.029 154.974 239.174V240.957H155.013Z" fill="black"/>
<path d="M157.655 240.706C157.536 240.785 157.404 240.851 157.232 240.917C157.074 240.97 156.876 240.997 156.625 240.997C156.453 240.997 156.308 240.97 156.162 240.931C156.017 240.878 155.898 240.812 155.793 240.706C155.687 240.614 155.608 240.482 155.542 240.323C155.476 240.165 155.449 239.98 155.449 239.768V239.465C155.449 239.266 155.476 239.095 155.528 238.936C155.581 238.778 155.661 238.659 155.766 238.553C155.872 238.448 155.991 238.382 156.123 238.329C156.268 238.276 156.413 238.25 156.572 238.25C156.915 238.25 157.179 238.355 157.377 238.553C157.576 238.765 157.681 239.055 157.681 239.438V239.795H155.898V239.808C155.898 240.059 155.964 240.257 156.096 240.376C156.228 240.508 156.4 240.574 156.611 240.574C156.783 240.574 156.928 240.548 157.061 240.508C157.179 240.468 157.298 240.402 157.417 240.336L157.655 240.706ZM156.611 238.672C156.519 238.672 156.427 238.685 156.347 238.725C156.268 238.765 156.189 238.804 156.136 238.87C156.07 238.936 156.03 239.002 155.991 239.082C155.951 239.161 155.938 239.253 155.938 239.359V239.425H157.259V239.332C157.259 239.134 157.206 238.963 157.087 238.844C156.968 238.725 156.81 238.672 156.611 238.672Z" fill="black"/>
<path d="M159.753 240.956H159.277V237.47H160.545C160.717 237.47 160.875 237.496 161.021 237.536C161.153 237.589 161.272 237.655 161.364 237.734C161.457 237.813 161.536 237.919 161.575 238.038C161.628 238.157 161.655 238.275 161.655 238.421V238.54C161.655 238.738 161.602 238.909 161.496 239.068C161.391 239.213 161.245 239.332 161.06 239.411L161.747 240.956H161.232L160.598 239.504H160.519H159.753V240.956ZM159.753 239.094H160.426C160.704 239.094 160.889 239.041 161.008 238.936C161.126 238.83 161.179 238.698 161.179 238.526V238.434C161.179 238.262 161.126 238.13 161.008 238.024C160.889 237.919 160.717 237.879 160.479 237.879H159.753V239.094Z" fill="black"/>
<path d="M164.312 240.706C164.193 240.785 164.061 240.851 163.889 240.917C163.731 240.97 163.533 240.997 163.282 240.997C163.11 240.997 162.965 240.97 162.82 240.931C162.674 240.878 162.555 240.812 162.45 240.706C162.344 240.614 162.265 240.482 162.199 240.323C162.133 240.165 162.106 239.98 162.106 239.768V239.465C162.106 239.266 162.133 239.095 162.186 238.936C162.239 238.778 162.318 238.659 162.423 238.553C162.529 238.448 162.648 238.382 162.78 238.329C162.925 238.276 163.071 238.25 163.229 238.25C163.572 238.25 163.837 238.355 164.035 238.553C164.233 238.765 164.338 239.055 164.338 239.438V239.795H162.555V239.808C162.555 240.059 162.622 240.257 162.754 240.376C162.886 240.508 163.057 240.574 163.269 240.574C163.44 240.574 163.586 240.548 163.718 240.508C163.837 240.468 163.955 240.402 164.074 240.336L164.312 240.706ZM163.269 238.672C163.176 238.672 163.084 238.685 163.005 238.725C162.925 238.765 162.846 238.804 162.793 238.87C162.727 238.936 162.688 239.002 162.648 239.082C162.608 239.161 162.595 239.253 162.595 239.359V239.425H163.916V239.332C163.916 239.134 163.863 238.963 163.744 238.844C163.625 238.725 163.467 238.672 163.269 238.672Z" fill="black"/>
<path d="M167.018 240.957H166.543V239.306C166.543 239.081 166.49 238.923 166.397 238.817C166.305 238.711 166.16 238.672 165.962 238.672C165.882 238.672 165.803 238.685 165.724 238.711C165.645 238.738 165.579 238.777 165.512 238.83C165.446 238.883 165.394 238.949 165.354 239.028C165.314 239.108 165.288 239.2 165.288 239.306V240.943H164.812V237.285H165.288V238.619C165.367 238.5 165.473 238.408 165.605 238.341C165.737 238.275 165.896 238.249 166.067 238.249C166.199 238.249 166.318 238.275 166.437 238.302C166.556 238.328 166.648 238.394 166.728 238.474C166.807 238.553 166.873 238.645 166.926 238.764C166.979 238.883 166.992 239.028 166.992 239.174V240.957H167.018Z" fill="black"/>
<path d="M168.353 240.997C168.089 240.997 167.878 240.931 167.719 240.799C167.561 240.666 167.481 240.482 167.481 240.257V240.125C167.481 239.9 167.561 239.716 167.706 239.57C167.851 239.425 168.102 239.359 168.446 239.359H169.119V239.2C169.119 239.029 169.08 238.897 168.987 238.804C168.895 238.712 168.763 238.672 168.564 238.672C168.406 238.672 168.274 238.699 168.155 238.738C168.036 238.791 167.917 238.857 167.798 238.936L167.561 238.593C167.693 238.5 167.838 238.421 167.997 238.355C168.155 238.289 168.34 238.25 168.564 238.25C168.71 238.25 168.842 238.263 168.974 238.302C169.093 238.342 169.198 238.395 169.291 238.461C169.383 238.527 169.449 238.619 169.502 238.725C169.555 238.831 169.581 238.949 169.581 239.082V240.931H169.132V240.614C169.106 240.666 169.066 240.706 169.027 240.746C168.987 240.785 168.934 240.825 168.881 240.851C168.815 240.891 168.736 240.917 168.657 240.944C168.564 240.983 168.472 240.997 168.353 240.997ZM169.119 239.755H168.459C168.274 239.755 168.142 239.795 168.063 239.861C167.983 239.927 167.944 240.032 167.944 240.151V240.217C167.944 240.349 167.983 240.442 168.076 240.495C168.168 240.548 168.274 240.587 168.406 240.587C168.525 240.587 168.617 240.574 168.71 240.548C168.789 240.521 168.868 240.482 168.947 240.429C169.013 240.376 169.053 240.323 169.08 240.257C169.106 240.191 169.119 240.112 169.119 240.006V239.755V239.755Z" fill="black"/>
<path d="M170.664 238.619C170.743 238.487 170.862 238.394 170.994 238.341C171.126 238.289 171.271 238.262 171.417 238.262C171.747 238.262 172.011 238.355 172.183 238.553C172.354 238.751 172.447 239.028 172.447 239.385V239.847C172.447 240.032 172.421 240.191 172.368 240.323C172.315 240.468 172.249 240.587 172.156 240.679C172.064 240.772 171.958 240.851 171.826 240.904C171.694 240.957 171.562 240.983 171.404 240.983C171.205 240.983 171.047 240.943 170.928 240.877C170.809 240.811 170.717 240.732 170.664 240.64H170.651V240.943H170.188V237.285H170.664V238.619V238.619ZM170.664 240.019C170.664 240.085 170.677 240.151 170.717 240.23C170.756 240.296 170.796 240.362 170.862 240.415C170.928 240.468 170.994 240.508 171.087 240.547C171.166 240.587 171.258 240.6 171.364 240.6C171.562 240.6 171.721 240.534 171.826 240.389C171.932 240.243 171.998 240.058 171.998 239.808V239.477C171.998 239.226 171.945 239.028 171.826 238.896C171.707 238.751 171.562 238.685 171.364 238.685C171.271 238.685 171.179 238.698 171.1 238.738C171.021 238.764 170.941 238.817 170.875 238.87C170.809 238.923 170.756 239.002 170.73 239.081C170.69 239.16 170.677 239.253 170.677 239.358V240.019H170.664Z" fill="black"/>
<path d="M173.464 237.364V237.879H172.962V237.364H173.464ZM173.451 238.315V240.957H172.975V238.315H173.451Z" fill="black"/>
<path d="M174.559 237.298V240.957H174.084V237.298H174.559Z" fill="black"/>
<path d="M175.697 237.364V237.879H175.195V237.364H175.697ZM175.684 238.315V240.957H175.209V238.315H175.684Z" fill="black"/>
<path d="M176.489 238.711H176.053V238.302H176.489V237.641H176.964V238.302H177.664V238.711H176.964V240.217C176.964 240.296 176.977 240.362 176.99 240.415C177.004 240.468 177.03 240.507 177.056 240.534C177.083 240.56 177.123 240.573 177.162 240.587C177.202 240.6 177.255 240.6 177.294 240.6C177.413 240.6 177.532 240.573 177.638 240.534L177.704 240.917C177.651 240.943 177.572 240.956 177.492 240.983C177.4 240.996 177.307 241.009 177.215 241.009C176.964 241.009 176.779 240.943 176.66 240.824C176.541 240.705 176.475 240.507 176.475 240.23V238.711H176.489Z" fill="black"/>
<path d="M178.827 240.997C178.563 240.997 178.351 240.931 178.193 240.799C178.034 240.666 177.955 240.482 177.955 240.257V240.125C177.955 239.9 178.034 239.716 178.18 239.57C178.325 239.425 178.576 239.359 178.919 239.359H179.593V239.2C179.593 239.029 179.553 238.897 179.461 238.804C179.381 238.725 179.236 238.672 179.038 238.672C178.88 238.672 178.748 238.699 178.629 238.738C178.51 238.791 178.391 238.857 178.272 238.936L178.034 238.593C178.166 238.5 178.312 238.421 178.47 238.355C178.629 238.289 178.814 238.25 179.038 238.25C179.183 238.25 179.315 238.263 179.448 238.302C179.566 238.342 179.672 238.395 179.764 238.461C179.857 238.527 179.923 238.619 179.976 238.725C180.029 238.831 180.055 238.949 180.055 239.082V240.931H179.606V240.614C179.58 240.666 179.54 240.706 179.5 240.746C179.461 240.785 179.408 240.825 179.355 240.851C179.289 240.891 179.21 240.917 179.131 240.944C179.038 240.983 178.946 240.997 178.827 240.997ZM179.593 239.755H178.932C178.748 239.755 178.615 239.795 178.536 239.861C178.457 239.927 178.417 240.032 178.417 240.151V240.217C178.417 240.349 178.457 240.442 178.549 240.495C178.642 240.548 178.748 240.587 178.88 240.587C178.998 240.587 179.091 240.574 179.183 240.548C179.263 240.521 179.342 240.482 179.421 240.429C179.487 240.376 179.527 240.323 179.553 240.257C179.58 240.191 179.593 240.112 179.593 240.006V239.755Z" fill="black"/>
<path d="M180.832 238.711H180.396V238.302H180.832V237.641H181.308V238.302H182.008V238.711H181.308V240.217C181.308 240.296 181.321 240.362 181.334 240.415C181.347 240.468 181.374 240.507 181.4 240.534C181.427 240.56 181.466 240.573 181.506 240.587C181.546 240.6 181.598 240.6 181.638 240.6C181.757 240.6 181.876 240.573 181.981 240.534L182.047 240.917C181.995 240.943 181.915 240.956 181.836 240.983C181.744 240.996 181.651 241.009 181.559 241.009C181.308 241.009 181.123 240.943 181.004 240.824C180.885 240.705 180.819 240.507 180.819 240.23V238.711H180.832Z" fill="black"/>
<path d="M182.934 237.364V237.879H182.432V237.364H182.934ZM182.92 238.315V240.957H182.445V238.315H182.92Z" fill="black"/>
<path d="M184.61 238.262C184.98 238.262 185.257 238.368 185.469 238.579C185.68 238.791 185.785 239.081 185.785 239.464V239.781C185.785 240.164 185.68 240.468 185.469 240.666C185.257 240.877 184.967 240.983 184.61 240.983C184.24 240.983 183.963 240.877 183.752 240.666C183.54 240.455 183.435 240.164 183.435 239.781V239.464C183.435 239.081 183.54 238.777 183.752 238.566C183.95 238.368 184.24 238.262 184.61 238.262ZM184.61 240.587C184.821 240.587 184.993 240.521 185.125 240.375C185.257 240.243 185.323 240.032 185.323 239.741V239.49C185.323 239.213 185.257 239.002 185.125 238.857C184.993 238.724 184.821 238.645 184.61 238.645C184.399 238.645 184.227 238.711 184.095 238.857C183.963 238.989 183.897 239.2 183.897 239.49V239.741C183.897 240.019 183.963 240.23 184.095 240.375C184.227 240.521 184.399 240.587 184.61 240.587Z" fill="black"/>
<path d="M188.48 240.957H188.005V239.306C188.005 239.082 187.952 238.923 187.859 238.817C187.767 238.712 187.622 238.672 187.423 238.672C187.344 238.672 187.265 238.685 187.186 238.712C187.106 238.738 187.04 238.778 186.974 238.831C186.908 238.883 186.856 238.949 186.816 239.029C186.776 239.108 186.75 239.2 186.75 239.306V240.944H186.274V238.302H186.737V238.632C186.816 238.514 186.922 238.421 187.054 238.355C187.186 238.289 187.344 238.25 187.529 238.25C187.661 238.25 187.78 238.276 187.886 238.302C188.005 238.342 188.097 238.395 188.176 238.474C188.256 238.553 188.322 238.646 188.374 238.765C188.427 238.883 188.44 239.029 188.44 239.174V240.957H188.48Z" fill="black"/>
<path d="M190.897 240.997C190.633 240.997 190.422 240.931 190.263 240.799C190.105 240.666 190.025 240.482 190.025 240.257V240.125C190.025 239.9 190.105 239.716 190.25 239.57C190.395 239.425 190.646 239.359 190.99 239.359H191.663V239.2C191.663 239.029 191.623 238.897 191.531 238.804C191.439 238.712 191.307 238.672 191.108 238.672C190.95 238.672 190.818 238.699 190.699 238.738C190.58 238.791 190.461 238.857 190.342 238.936L190.105 238.593C190.237 238.5 190.382 238.421 190.54 238.355C190.699 238.289 190.884 238.25 191.108 238.25C191.254 238.25 191.386 238.263 191.518 238.302C191.637 238.342 191.742 238.395 191.835 238.461C191.927 238.527 191.993 238.619 192.046 238.725C192.099 238.831 192.125 238.949 192.125 239.082V240.931H191.676V240.614C191.65 240.666 191.61 240.706 191.571 240.746C191.531 240.785 191.478 240.825 191.425 240.851C191.359 240.891 191.28 240.917 191.201 240.944C191.108 240.983 191.003 240.997 190.897 240.997ZM191.663 239.755H191.003C190.818 239.755 190.686 239.795 190.607 239.861C190.527 239.927 190.488 240.032 190.488 240.151V240.217C190.488 240.349 190.527 240.442 190.62 240.495C190.712 240.548 190.818 240.587 190.95 240.587C191.069 240.587 191.161 240.574 191.254 240.548C191.333 240.521 191.412 240.482 191.491 240.429C191.557 240.376 191.597 240.323 191.623 240.257C191.65 240.191 191.663 240.112 191.663 240.006V239.755Z" fill="black"/>
<path d="M194.926 240.957H194.451V239.306C194.451 239.082 194.398 238.923 194.306 238.817C194.213 238.712 194.068 238.672 193.87 238.672C193.791 238.672 193.711 238.685 193.632 238.712C193.553 238.738 193.487 238.778 193.421 238.831C193.355 238.883 193.302 238.949 193.262 239.029C193.223 239.108 193.196 239.2 193.196 239.306V240.944H192.721V238.302H193.183V238.632C193.262 238.514 193.368 238.421 193.5 238.355C193.632 238.289 193.79 238.25 193.975 238.25C194.107 238.25 194.226 238.276 194.332 238.302C194.451 238.342 194.543 238.395 194.623 238.474C194.702 238.553 194.768 238.646 194.821 238.765C194.874 238.883 194.887 239.029 194.887 239.174V240.957H194.926Z" fill="black"/>
<path d="M197.185 240.626C197.106 240.758 197 240.851 196.868 240.917C196.736 240.97 196.577 240.996 196.419 240.996C196.089 240.996 195.825 240.904 195.653 240.706C195.481 240.507 195.389 240.23 195.389 239.874V239.411C195.389 239.24 195.415 239.081 195.468 238.936C195.521 238.791 195.587 238.672 195.679 238.579C195.772 238.487 195.877 238.407 196.009 238.355C196.141 238.302 196.274 238.275 196.432 238.275C196.63 238.275 196.789 238.315 196.908 238.381C197.026 238.447 197.106 238.526 197.172 238.592V237.298H197.647V240.957H197.198L197.185 240.626ZM197.185 239.24C197.185 239.174 197.172 239.107 197.132 239.041C197.092 238.975 197.053 238.909 196.987 238.857C196.921 238.804 196.855 238.764 196.762 238.724C196.683 238.698 196.577 238.672 196.485 238.672C196.287 238.672 196.128 238.738 196.023 238.883C195.917 239.028 195.851 239.213 195.851 239.464V239.794C195.851 240.045 195.904 240.243 196.023 240.375C196.141 240.521 196.287 240.587 196.485 240.587C196.577 240.587 196.67 240.574 196.762 240.547C196.841 240.521 196.921 240.468 196.987 240.415C197.053 240.362 197.106 240.283 197.132 240.204C197.172 240.124 197.185 240.032 197.185 239.926V239.24Z" fill="black"/>
<path d="M200.022 238.447C200.009 238.407 199.996 238.381 199.982 238.341C199.969 238.302 199.956 238.275 199.943 238.236C199.93 238.196 199.916 238.157 199.903 238.117C199.89 238.077 199.864 238.024 199.85 237.958V240.956H199.401V237.47H200.101L201.065 239.755L202.003 237.47H202.703V240.956H202.241V237.958C202.228 238.024 202.215 238.077 202.188 238.117C202.175 238.157 202.162 238.196 202.148 238.236C202.135 238.275 202.122 238.302 202.109 238.341C202.096 238.368 202.082 238.407 202.069 238.447L201.237 240.389H200.828L200.022 238.447Z" fill="black"/>
<path d="M203.865 237.364V237.879H203.363V237.364H203.865ZM203.852 238.315V240.957H203.376V238.315H203.852Z" fill="black"/>
<path d="M206.681 240.957H206.206V239.306C206.206 239.082 206.153 238.923 206.06 238.817C205.968 238.712 205.823 238.672 205.625 238.672C205.545 238.672 205.466 238.685 205.387 238.712C205.308 238.738 205.242 238.778 205.176 238.831C205.11 238.883 205.057 238.949 205.017 239.029C204.977 239.108 204.951 239.2 204.951 239.306V240.944H204.476V238.302H204.938V238.632C205.017 238.514 205.123 238.421 205.255 238.355C205.387 238.289 205.545 238.25 205.73 238.25C205.862 238.25 205.981 238.276 206.087 238.302C206.206 238.342 206.298 238.395 206.377 238.474C206.457 238.553 206.523 238.646 206.576 238.765C206.628 238.883 206.642 239.029 206.642 239.174V240.957H206.681Z" fill="black"/>
<path d="M209.323 240.706C209.204 240.785 209.072 240.851 208.9 240.917C208.742 240.97 208.544 240.997 208.293 240.997C208.121 240.997 207.976 240.97 207.83 240.931C207.685 240.878 207.566 240.812 207.461 240.706C207.355 240.614 207.276 240.482 207.21 240.323C207.144 240.165 207.117 239.98 207.117 239.768V239.465C207.117 239.266 207.144 239.095 207.196 238.936C207.249 238.778 207.329 238.659 207.434 238.553C207.54 238.448 207.659 238.382 207.791 238.329C207.936 238.276 208.081 238.25 208.24 238.25C208.583 238.25 208.847 238.355 209.045 238.553C209.244 238.765 209.349 239.055 209.349 239.438V239.795H207.566V239.808C207.566 240.059 207.632 240.257 207.764 240.376C207.896 240.495 208.068 240.574 208.279 240.574C208.451 240.574 208.596 240.548 208.728 240.508C208.847 240.468 208.966 240.402 209.085 240.336L209.323 240.706ZM208.279 238.672C208.187 238.672 208.095 238.685 208.015 238.725C207.936 238.765 207.857 238.804 207.804 238.87C207.738 238.936 207.698 239.002 207.659 239.082C207.619 239.161 207.606 239.253 207.606 239.359V239.425H208.927V239.332C208.927 239.134 208.874 238.963 208.755 238.844C208.636 238.725 208.478 238.672 208.279 238.672Z" fill="black"/>
<path d="M211.289 238.778C211.249 238.765 211.196 238.738 211.143 238.738C211.091 238.725 211.025 238.725 210.972 238.725C210.879 238.725 210.8 238.738 210.721 238.778C210.642 238.817 210.576 238.857 210.51 238.923C210.457 238.989 210.404 239.055 210.364 239.148C210.325 239.24 210.311 239.332 210.311 239.438V240.983H209.836V238.342H210.298V238.765C210.377 238.619 210.47 238.5 210.602 238.421C210.721 238.342 210.879 238.302 211.077 238.302C211.196 238.302 211.302 238.315 211.421 238.355L211.289 238.778Z" fill="black"/>
<path d="M212.478 240.997C212.214 240.997 212.003 240.931 211.844 240.799C211.686 240.666 211.606 240.482 211.606 240.257V240.125C211.606 239.9 211.686 239.716 211.831 239.57C211.976 239.425 212.227 239.359 212.571 239.359H213.244V239.2C213.244 239.029 213.205 238.897 213.112 238.804C213.02 238.712 212.888 238.672 212.689 238.672C212.531 238.672 212.399 238.699 212.28 238.738C212.161 238.791 212.042 238.857 211.923 238.936L211.686 238.593C211.818 238.5 211.963 238.421 212.122 238.355C212.28 238.289 212.465 238.25 212.689 238.25C212.835 238.25 212.967 238.263 213.099 238.302C213.218 238.342 213.323 238.395 213.416 238.461C213.508 238.527 213.574 238.619 213.627 238.725C213.68 238.831 213.706 238.949 213.706 239.082V240.931H213.257V240.614C213.231 240.666 213.191 240.706 213.152 240.746C213.112 240.785 213.059 240.825 213.006 240.851C212.94 240.891 212.861 240.917 212.782 240.944C212.689 240.983 212.597 240.997 212.478 240.997ZM213.244 239.755H212.584C212.399 239.755 212.267 239.795 212.188 239.861C212.108 239.927 212.069 240.032 212.069 240.151V240.217C212.069 240.349 212.108 240.442 212.201 240.495C212.293 240.548 212.399 240.587 212.531 240.587C212.65 240.587 212.742 240.574 212.835 240.548C212.914 240.521 212.993 240.482 213.072 240.429C213.138 240.376 213.178 240.323 213.205 240.257C213.231 240.191 213.244 240.112 213.244 240.006V239.755Z" fill="black"/>
<path d="M214.79 237.298V240.957H214.314V237.298H214.79Z" fill="black"/>
<path d="M217.009 240.956H216.533V237.47H217.801C217.973 237.47 218.131 237.496 218.277 237.536C218.409 237.589 218.528 237.655 218.62 237.734C218.712 237.813 218.792 237.919 218.831 238.038C218.884 238.157 218.911 238.275 218.911 238.421V238.54C218.911 238.738 218.858 238.909 218.752 239.068C218.646 239.213 218.501 239.332 218.316 239.411L219.003 240.956H218.488L217.854 239.504H217.775H216.995V240.956H217.009ZM217.009 239.094H217.682C217.96 239.094 218.144 239.041 218.263 238.936C218.382 238.83 218.435 238.698 218.435 238.526V238.434C218.435 238.262 218.382 238.13 218.263 238.024C218.144 237.919 217.973 237.879 217.735 237.879H217.022V239.094H217.009Z" fill="black"/>
<path d="M221.564 240.706C221.445 240.785 221.313 240.851 221.141 240.917C220.983 240.97 220.785 240.997 220.534 240.997C220.362 240.997 220.217 240.97 220.072 240.931C219.926 240.878 219.807 240.812 219.702 240.706C219.596 240.614 219.517 240.482 219.451 240.323C219.385 240.165 219.358 239.98 219.358 239.768V239.465C219.358 239.266 219.385 239.095 219.438 238.936C219.49 238.778 219.57 238.659 219.675 238.553C219.781 238.448 219.9 238.382 220.032 238.329C220.177 238.276 220.323 238.25 220.481 238.25C220.824 238.25 221.089 238.355 221.287 238.553C221.485 238.765 221.59 239.055 221.59 239.438V239.795H219.847V239.808C219.847 240.059 219.913 240.257 220.045 240.376C220.177 240.508 220.349 240.574 220.56 240.574C220.732 240.574 220.877 240.548 221.009 240.508C221.128 240.468 221.247 240.402 221.366 240.336L221.564 240.706ZM220.521 238.672C220.428 238.672 220.336 238.685 220.256 238.725C220.177 238.765 220.098 238.804 220.045 238.87C219.979 238.936 219.94 239.002 219.9 239.082C219.86 239.161 219.847 239.253 219.847 239.359V239.425H221.168V239.332C221.168 239.134 221.115 238.963 220.996 238.844C220.877 238.725 220.719 238.672 220.521 238.672Z" fill="black"/>
<path d="M222.913 240.587C223.084 240.587 223.216 240.561 223.322 240.495C223.414 240.429 223.467 240.349 223.467 240.244V240.204C223.467 240.151 223.454 240.099 223.441 240.059C223.428 240.019 223.388 239.993 223.348 239.953C223.309 239.927 223.243 239.9 223.164 239.874C223.084 239.848 222.979 239.821 222.86 239.795C222.714 239.768 222.582 239.729 222.477 239.689C222.358 239.649 222.265 239.597 222.186 239.531C222.107 239.465 222.054 239.399 222.014 239.319C221.975 239.24 221.948 239.134 221.948 239.016V238.963C221.948 238.87 221.962 238.778 222.001 238.699C222.041 238.606 222.107 238.54 222.186 238.474C222.265 238.408 222.371 238.355 222.49 238.316C222.609 238.276 222.767 238.25 222.939 238.25C223.124 238.25 223.282 238.276 223.441 238.316C223.599 238.355 223.745 238.421 223.877 238.514L223.665 238.87C223.573 238.804 223.48 238.751 223.348 238.712C223.23 238.672 223.097 238.659 222.965 238.659C222.767 238.659 222.622 238.685 222.543 238.751C222.464 238.817 222.411 238.883 222.411 238.976V239.016C222.411 239.121 222.45 239.2 222.543 239.24C222.635 239.293 222.78 239.332 222.979 239.372C223.137 239.399 223.282 239.438 223.401 239.478C223.52 239.517 223.613 239.57 223.692 239.636C223.771 239.702 223.824 239.768 223.863 239.861C223.903 239.953 223.916 240.059 223.916 240.178V240.244C223.916 240.349 223.89 240.442 223.85 240.534C223.797 240.627 223.731 240.706 223.652 240.772C223.56 240.838 223.454 240.891 223.335 240.931C223.216 240.97 223.071 240.983 222.913 240.983C222.688 240.983 222.49 240.957 222.305 240.891C222.12 240.838 221.975 240.759 221.843 240.653L222.054 240.283C222.173 240.363 222.305 240.429 222.437 240.482C222.596 240.561 222.754 240.587 222.913 240.587Z" fill="black"/>
<path d="M225.421 238.262C225.79 238.262 226.068 238.368 226.279 238.579C226.49 238.791 226.596 239.081 226.596 239.464V239.781C226.596 240.164 226.49 240.468 226.279 240.666C226.068 240.877 225.777 240.983 225.421 240.983C225.051 240.983 224.773 240.877 224.562 240.666C224.351 240.455 224.245 240.164 224.245 239.781V239.464C224.245 239.081 224.351 238.777 224.562 238.566C224.773 238.368 225.051 238.262 225.421 238.262ZM225.421 240.587C225.632 240.587 225.804 240.521 225.936 240.375C226.068 240.243 226.134 240.032 226.134 239.741V239.49C226.134 239.213 226.068 239.002 225.936 238.857C225.804 238.724 225.632 238.645 225.421 238.645C225.209 238.645 225.038 238.711 224.905 238.857C224.773 238.989 224.707 239.2 224.707 239.49V239.741C224.707 240.019 224.773 240.23 224.905 240.375C225.038 240.521 225.209 240.587 225.421 240.587Z" fill="black"/>
<path d="M227.061 238.315H227.536V239.966C227.536 240.19 227.576 240.349 227.668 240.455C227.761 240.56 227.906 240.6 228.091 240.6C228.17 240.6 228.249 240.587 228.328 240.56C228.408 240.534 228.474 240.494 228.54 240.441C228.606 240.388 228.659 240.322 228.698 240.243C228.738 240.164 228.751 240.072 228.751 239.966V238.328H229.227V240.97H228.764V240.639C228.685 240.758 228.579 240.851 228.447 240.917C228.315 240.983 228.157 241.022 227.972 241.022C227.84 241.022 227.721 240.996 227.615 240.97C227.51 240.93 227.404 240.877 227.325 240.798C227.245 240.719 227.179 240.626 227.127 240.507C227.074 240.389 227.061 240.256 227.061 240.085V238.315V238.315Z" fill="black"/>
<path d="M231.311 238.778C231.272 238.765 231.219 238.738 231.166 238.738C231.113 238.725 231.047 238.725 230.994 238.725C230.902 238.725 230.823 238.738 230.743 238.778C230.664 238.817 230.598 238.857 230.532 238.923C230.479 238.989 230.426 239.055 230.387 239.148C230.347 239.24 230.334 239.332 230.334 239.438V240.983H229.858V238.342H230.321V238.765C230.4 238.619 230.492 238.5 230.624 238.421C230.743 238.342 230.902 238.302 231.1 238.302C231.219 238.302 231.324 238.315 231.443 238.355L231.311 238.778Z" fill="black"/>
<path d="M232.765 238.262C232.989 238.262 233.161 238.289 233.306 238.341C233.452 238.394 233.57 238.46 233.676 238.553L233.452 238.909C233.333 238.817 233.214 238.764 233.108 238.724C233.003 238.698 232.884 238.685 232.752 238.685C232.659 238.685 232.58 238.698 232.501 238.724C232.421 238.751 232.355 238.804 232.289 238.857C232.223 238.923 232.184 239.002 232.144 239.094C232.104 239.187 232.091 239.306 232.091 239.438V239.768C232.091 239.913 232.104 240.032 232.144 240.138C232.184 240.243 232.236 240.323 232.289 240.389C232.355 240.455 232.421 240.494 232.501 240.521C232.58 240.547 232.672 240.56 232.752 240.56C232.923 240.56 233.069 240.534 233.187 240.494C233.306 240.455 233.412 240.389 233.504 240.323L233.729 240.679C233.636 240.758 233.504 240.824 233.346 240.89C233.187 240.957 232.989 240.983 232.752 240.983C232.382 240.983 232.104 240.877 231.906 240.666C231.708 240.455 231.603 240.151 231.603 239.781V239.451C231.603 239.266 231.629 239.094 231.682 238.949C231.735 238.804 231.814 238.685 231.906 238.579C231.999 238.474 232.118 238.394 232.263 238.341C232.435 238.289 232.593 238.262 232.765 238.262Z" fill="black"/>
<path d="M236.147 240.706C236.028 240.785 235.896 240.851 235.724 240.917C235.566 240.97 235.368 240.997 235.117 240.997C234.945 240.997 234.8 240.97 234.655 240.931C234.509 240.878 234.39 240.812 234.285 240.706C234.179 240.614 234.1 240.482 234.034 240.323C233.968 240.165 233.941 239.98 233.941 239.768V239.465C233.941 239.266 233.968 239.095 234.021 238.936C234.073 238.778 234.153 238.659 234.258 238.553C234.364 238.448 234.483 238.382 234.615 238.329C234.76 238.276 234.906 238.25 235.064 238.25C235.407 238.25 235.672 238.355 235.87 238.553C236.068 238.765 236.173 239.055 236.173 239.438V239.795H234.39V239.808C234.39 240.059 234.457 240.257 234.589 240.376C234.721 240.495 234.892 240.574 235.104 240.574C235.275 240.574 235.421 240.548 235.553 240.508C235.672 240.468 235.79 240.402 235.909 240.336L236.147 240.706ZM235.104 238.672C235.011 238.672 234.919 238.685 234.84 238.725C234.76 238.765 234.681 238.804 234.628 238.87C234.562 238.936 234.523 239.002 234.483 239.082C234.443 239.161 234.43 239.253 234.43 239.359V239.425H235.751V239.332C235.751 239.134 235.698 238.963 235.579 238.844C235.46 238.725 235.302 238.672 235.104 238.672Z" fill="black"/>
<path d="M237.492 240.587C237.663 240.587 237.795 240.561 237.901 240.495C237.994 240.429 238.046 240.349 238.046 240.244V240.204C238.046 240.151 238.033 240.099 238.02 240.059C238.007 240.019 237.967 239.993 237.928 239.953C237.888 239.927 237.822 239.9 237.743 239.874C237.663 239.848 237.558 239.821 237.439 239.795C237.294 239.768 237.161 239.729 237.056 239.689C236.937 239.649 236.845 239.597 236.765 239.531C236.686 239.465 236.633 239.399 236.594 239.319C236.554 239.24 236.528 239.134 236.528 239.016V238.963C236.528 238.87 236.541 238.778 236.58 238.699C236.62 238.606 236.686 238.54 236.765 238.474C236.845 238.408 236.95 238.355 237.069 238.316C237.188 238.276 237.346 238.25 237.518 238.25C237.703 238.25 237.861 238.276 238.02 238.316C238.178 238.355 238.324 238.421 238.456 238.514L238.244 238.87C238.152 238.804 238.06 238.751 237.928 238.712C237.809 238.672 237.677 238.659 237.544 238.659C237.346 238.659 237.201 238.685 237.122 238.751C237.043 238.817 236.99 238.883 236.99 238.976V239.016C236.99 239.121 237.029 239.2 237.122 239.24C237.214 239.293 237.36 239.332 237.558 239.372C237.716 239.399 237.861 239.438 237.98 239.478C238.099 239.517 238.192 239.57 238.271 239.636C238.35 239.702 238.403 239.768 238.443 239.861C238.482 239.953 238.495 240.059 238.495 240.178V240.244C238.495 240.349 238.469 240.442 238.429 240.534C238.377 240.627 238.311 240.706 238.231 240.772C238.139 240.838 238.033 240.891 237.914 240.931C237.795 240.97 237.65 240.983 237.492 240.983C237.267 240.983 237.069 240.957 236.884 240.891C236.699 240.838 236.554 240.759 236.422 240.653L236.633 240.283C236.752 240.363 236.884 240.429 237.016 240.482C237.188 240.561 237.333 240.587 237.492 240.587Z" fill="black"/>
<path d="M242.591 240.574C242.419 240.745 242.221 240.851 242.023 240.917C241.812 240.983 241.601 241.009 241.363 241.009C241.152 241.009 240.967 240.983 240.795 240.917C240.623 240.851 240.478 240.758 240.359 240.626C240.24 240.494 240.148 240.336 240.069 240.151C240.003 239.966 239.963 239.741 239.963 239.477V238.949C239.963 238.698 240.003 238.474 240.069 238.275C240.135 238.091 240.227 237.919 240.359 237.8C240.478 237.668 240.636 237.575 240.808 237.509C240.98 237.443 241.165 237.417 241.376 237.417C241.614 237.417 241.825 237.443 242.01 237.509C242.195 237.575 242.367 237.668 242.525 237.787L242.274 238.183C242.116 238.051 241.97 237.972 241.825 237.932C241.68 237.892 241.535 237.866 241.376 237.866C241.244 237.866 241.125 237.892 241.006 237.932C240.901 237.972 240.795 238.051 240.716 238.143C240.636 238.236 240.57 238.355 240.531 238.5C240.491 238.645 240.465 238.817 240.465 239.015V239.411C240.465 239.609 240.491 239.781 240.531 239.926C240.57 240.072 240.636 240.191 240.716 240.283C240.795 240.375 240.901 240.441 241.006 240.494C241.125 240.534 241.244 240.56 241.376 240.56C241.548 240.56 241.706 240.534 241.878 240.481C242.05 240.428 242.208 240.336 242.353 240.191L242.591 240.574Z" fill="black"/>
<path d="M244.044 238.262C244.413 238.262 244.691 238.368 244.902 238.579C245.113 238.791 245.219 239.081 245.219 239.464V239.781C245.219 240.164 245.113 240.468 244.902 240.666C244.691 240.877 244.4 240.983 244.044 240.983C243.674 240.983 243.396 240.877 243.185 240.666C242.974 240.455 242.868 240.164 242.868 239.781V239.464C242.868 239.081 242.974 238.777 243.185 238.566C243.396 238.368 243.674 238.262 244.044 238.262ZM244.044 240.587C244.255 240.587 244.427 240.521 244.559 240.375C244.691 240.243 244.757 240.032 244.757 239.741V239.49C244.757 239.213 244.691 239.002 244.559 238.857C244.427 238.724 244.255 238.645 244.044 238.645C243.832 238.645 243.661 238.711 243.529 238.857C243.396 238.989 243.33 239.2 243.33 239.49V239.741C243.33 240.019 243.396 240.23 243.529 240.375C243.661 240.521 243.832 240.587 244.044 240.587Z" fill="black"/>
<path d="M247.173 238.778C247.133 238.765 247.08 238.738 247.027 238.738C246.974 238.725 246.908 238.725 246.856 238.725C246.763 238.725 246.684 238.738 246.605 238.778C246.525 238.817 246.459 238.857 246.393 238.923C246.34 238.989 246.288 239.055 246.248 239.148C246.208 239.24 246.195 239.332 246.195 239.438V240.983H245.72V238.342H246.182V238.765C246.261 238.619 246.354 238.5 246.486 238.421C246.605 238.342 246.763 238.302 246.961 238.302C247.08 238.302 247.186 238.315 247.305 238.355L247.173 238.778Z" fill="black"/>
<path d="M248.072 238.645C248.151 238.513 248.257 238.421 248.402 238.355C248.547 238.289 248.692 238.262 248.851 238.262C249.181 238.262 249.445 238.368 249.617 238.566C249.789 238.764 249.881 239.041 249.881 239.398V239.86C249.881 240.045 249.855 240.204 249.802 240.349C249.749 240.494 249.683 240.613 249.59 240.706C249.498 240.798 249.392 240.877 249.26 240.93C249.128 240.983 248.983 241.009 248.824 241.009C248.626 241.009 248.468 240.97 248.349 240.904C248.23 240.838 248.151 240.758 248.085 240.679V242H247.609V238.315H248.058V238.645H248.072ZM248.085 240.019C248.085 240.085 248.098 240.151 248.138 240.23C248.177 240.296 248.217 240.362 248.283 240.415C248.349 240.468 248.415 240.507 248.507 240.547C248.587 240.587 248.679 240.6 248.785 240.6C248.983 240.6 249.141 240.534 249.247 240.389C249.353 240.243 249.419 240.058 249.419 239.807V239.477C249.419 239.226 249.366 239.028 249.247 238.896C249.128 238.751 248.983 238.685 248.785 238.685C248.692 238.685 248.6 238.698 248.521 238.738C248.441 238.764 248.362 238.817 248.296 238.87C248.23 238.923 248.177 239.002 248.151 239.081C248.111 239.16 248.098 239.253 248.098 239.358V240.019H248.085Z" fill="black"/>
<path d="M250.448 240.6H251.003V241.155H250.448V240.6Z" fill="black"/>
<defs>
<filter id="filter0_d_1192_9706" x="58" y="60" width="309" height="317" filterUnits="userSpaceOnUse" color-interpolation-filters="sRGB">
<feFlood flood-opacity="0" result="BackgroundImageFix"/>
<feColorMatrix in="SourceAlpha" type="matrix" values="0 0 0 0 0 0 0 0 0 0 0 0 0 0 0 0 0 0 127 0" result="hardAlpha"/>
<feOffset dx="20" dy="38"/>
<feGaussianBlur stdDeviation="15"/>
<feColorMatrix type="matrix" values="0 0 0 0 0.0980392 0 0 0 0 0.207843 0 0 0 0 0.454902 0 0 0 0.09 0"/>
<feBlend mode="normal" in2="BackgroundImageFix" result="effect1_dropShadow_1192_9706"/>
<feBlend mode="normal" in="SourceGraphic" in2="effect1_dropShadow_1192_9706" result="shape"/>
</filter>
</defs>
</svg>
