<svg width="340" height="340" viewBox="0 0 340 340" fill="none" xmlns="http://www.w3.org/2000/svg">
<path d="M170.494 147.278L158.792 165.042L147.104 147.278L158.792 129.514L170.494 147.278Z" fill="#0082CB"/>
<path d="M170.496 147.278L182.198 165.042L193.9 147.278L182.198 129.514L170.496 147.278Z" fill="#0082CB"/>
<path d="M158.793 129.515L170.495 147.279L182.196 129.515L170.495 111.764L158.793 129.515Z" fill="#0082CB"/>
<path d="M147.104 147.278L135.402 165.029H158.793L147.104 147.278Z" fill="#0082CB"/>
<path d="M193.897 147.278L182.195 165.029H205.599L193.897 147.278Z" fill="#0082CB"/>
<path d="M170.494 147.278L158.792 165.042L147.104 147.278L158.792 129.514L170.494 147.278Z" fill="#00A0D8"/>
<path d="M170.496 147.278L182.198 165.042L193.9 147.278L182.198 129.514L170.496 147.278Z" fill="#00A0D8"/>
<path d="M158.793 129.515L170.495 147.279L182.196 129.515L170.495 111.764L158.793 129.515Z" fill="#62B9E3"/>
<path d="M147.104 147.278L135.402 165.029H158.793L147.104 147.278Z" fill="#0082CB"/>
<path d="M193.897 147.278L182.195 165.029H205.599L193.897 147.278Z" fill="#0082CB"/>
<path d="M205.6 111.751L193.898 94L182.196 111.751H205.6Z" fill="#62B9E3"/>
<path d="M182.195 111.764L193.897 129.515L205.599 111.764H182.195Z" fill="#00A0D8"/>
<path d="M134.096 182.965H128.721L119.013 194.323H116.121V182.965H112V210.74H116.121V198.378H119.026L129.632 210.74H135.034L122.685 196.331L134.096 182.965Z" fill="black"/>
<path d="M202.812 182.965H198.691V210.74H202.812V182.965Z" fill="black"/>
<path d="M222.23 199.421C225.65 198.233 227.895 195.195 227.895 191.497C227.895 186.557 224.105 182.965 218.875 182.965H208.375V210.74H212.496V199.976H217.792L224.224 210.74H228.992L222.23 199.421ZM212.496 187.033H218.822C221.728 187.033 223.748 188.855 223.748 191.47C223.748 194.072 221.714 195.882 218.822 195.882H212.496V187.033Z" fill="black"/>
<path d="M189.884 182.965L180.044 203.793L170.218 182.965H166.982V210.74H171.169V194.574L178.882 210.74H181.207L188.933 194.574V210.74H193.12V182.965H189.884Z" fill="black"/>
<path d="M148.599 182.595C140.727 182.595 134.335 188.974 134.335 196.859C134.335 204.744 140.714 211.123 148.599 211.123C156.47 211.123 162.863 204.744 162.863 196.859C162.863 188.974 156.484 182.595 148.599 182.595ZM148.599 207.28C142.84 207.28 138.178 202.618 138.178 196.859C138.178 191.101 142.84 186.439 148.599 186.439C154.357 186.439 159.02 191.101 159.02 196.859C159.033 202.604 154.357 207.28 148.599 207.28Z" fill="black"/>
<path d="M113.189 220.975L114.681 222.956H114.06L112.858 221.332L112.475 221.741V222.956H112V219.47H112.475V221.134L114.008 219.47H114.589L113.189 220.975Z" fill="black"/>
<path d="M115.883 220.263C116.253 220.263 116.531 220.368 116.742 220.58C116.953 220.791 117.059 221.082 117.059 221.465V221.782C117.059 222.165 116.953 222.468 116.742 222.666C116.531 222.878 116.24 222.983 115.883 222.983C115.514 222.983 115.236 222.878 115.025 222.666C114.814 222.455 114.708 222.165 114.708 221.782V221.465C114.708 221.082 114.814 220.778 115.025 220.566C115.236 220.368 115.514 220.263 115.883 220.263ZM115.883 222.587C116.095 222.587 116.266 222.521 116.399 222.376C116.531 222.244 116.597 222.032 116.597 221.742V221.491C116.597 221.214 116.531 221.002 116.399 220.857C116.266 220.725 116.095 220.646 115.883 220.646C115.672 220.646 115.5 220.712 115.368 220.857C115.236 220.989 115.17 221.2 115.17 221.491V221.742C115.17 222.019 115.236 222.231 115.368 222.376C115.5 222.521 115.672 222.587 115.883 222.587Z" fill="black"/>
<path d="M119.013 220.778C118.974 220.765 118.921 220.738 118.868 220.738C118.815 220.725 118.749 220.725 118.696 220.725C118.604 220.725 118.525 220.738 118.445 220.778C118.366 220.817 118.3 220.857 118.234 220.923C118.181 220.989 118.128 221.055 118.089 221.148C118.049 221.24 118.036 221.332 118.036 221.438V222.983H117.561V220.342H118.023V220.765C118.102 220.619 118.194 220.5 118.327 220.421C118.445 220.342 118.604 220.302 118.802 220.302C118.921 220.302 119.027 220.315 119.145 220.355L119.013 220.778Z" fill="black"/>
<path d="M121.51 222.706C121.391 222.785 121.259 222.851 121.088 222.917C120.929 222.97 120.731 222.997 120.48 222.997C120.308 222.997 120.163 222.97 120.018 222.931C119.873 222.878 119.754 222.812 119.648 222.706C119.542 222.614 119.463 222.482 119.397 222.323C119.331 222.165 119.305 221.98 119.305 221.768V221.465C119.305 221.266 119.331 221.095 119.384 220.936C119.437 220.778 119.516 220.659 119.622 220.553C119.727 220.448 119.846 220.382 119.978 220.329C120.124 220.276 120.269 220.25 120.427 220.25C120.771 220.25 121.035 220.355 121.233 220.553C121.431 220.765 121.537 221.055 121.537 221.438V221.795H119.793V221.808C119.793 222.059 119.859 222.257 119.991 222.376C120.124 222.495 120.295 222.574 120.507 222.574C120.678 222.574 120.824 222.548 120.956 222.508C121.074 222.468 121.193 222.402 121.312 222.336L121.51 222.706ZM120.467 220.672C120.374 220.672 120.282 220.685 120.203 220.725C120.124 220.765 120.044 220.804 119.991 220.87C119.925 220.936 119.886 221.002 119.846 221.082C119.807 221.161 119.793 221.253 119.793 221.359V221.425H121.114V221.332C121.114 221.134 121.061 220.963 120.942 220.844C120.824 220.725 120.665 220.672 120.467 220.672Z" fill="black"/>
<path d="M122.765 222.997C122.501 222.997 122.29 222.931 122.131 222.799C121.973 222.666 121.894 222.482 121.894 222.257V222.125C121.894 221.9 121.973 221.716 122.118 221.57C122.263 221.425 122.514 221.359 122.858 221.359H123.531V221.2C123.531 221.029 123.492 220.897 123.399 220.804C123.307 220.712 123.175 220.685 122.99 220.685C122.831 220.685 122.699 220.712 122.58 220.751C122.461 220.804 122.343 220.87 122.224 220.95L121.986 220.606C122.118 220.514 122.263 220.434 122.422 220.368C122.58 220.302 122.765 220.263 122.99 220.263C123.135 220.263 123.267 220.276 123.399 220.316C123.518 220.355 123.624 220.408 123.716 220.474C123.809 220.54 123.875 220.633 123.927 220.738C123.98 220.844 124.007 220.963 124.007 221.095V222.944H123.544V222.627C123.518 222.68 123.478 222.719 123.439 222.759C123.399 222.799 123.346 222.838 123.294 222.865C123.227 222.904 123.148 222.931 123.069 222.957C122.99 222.983 122.884 222.997 122.765 222.997ZM123.531 221.755H122.871C122.686 221.755 122.554 221.795 122.475 221.861C122.395 221.927 122.356 222.032 122.356 222.151V222.217C122.356 222.349 122.395 222.442 122.488 222.495C122.58 222.548 122.686 222.587 122.818 222.587C122.937 222.587 123.029 222.574 123.122 222.548C123.201 222.521 123.28 222.482 123.36 222.429C123.426 222.376 123.465 222.323 123.492 222.257C123.518 222.191 123.531 222.112 123.531 222.006V221.755Z" fill="black"/>
<path d="M126.357 220.447C126.344 220.407 126.331 220.381 126.317 220.341C126.304 220.302 126.291 220.275 126.278 220.236C126.265 220.196 126.251 220.157 126.238 220.117C126.225 220.077 126.199 220.024 126.185 219.958V222.956H125.736V219.47H126.436L127.4 221.755L128.338 219.47H129.038V222.956H128.576V219.958C128.563 220.024 128.549 220.077 128.523 220.117C128.51 220.157 128.497 220.196 128.483 220.236C128.47 220.275 128.457 220.302 128.444 220.341C128.431 220.368 128.417 220.407 128.404 220.447L127.572 222.389H127.163L126.357 220.447Z" fill="black"/>
<path d="M130.2 219.364V219.879H129.698V219.364H130.2ZM130.187 220.315V222.957H129.711V220.315H130.187Z" fill="black"/>
<path d="M133.013 222.957H132.538V221.306C132.538 221.082 132.485 220.923 132.392 220.817C132.3 220.712 132.155 220.672 131.957 220.672C131.877 220.672 131.798 220.685 131.719 220.712C131.64 220.738 131.574 220.778 131.508 220.831C131.442 220.883 131.389 220.949 131.349 221.029C131.309 221.108 131.283 221.2 131.283 221.306V222.944H130.808V220.302H131.27V220.632C131.349 220.514 131.455 220.421 131.587 220.355C131.719 220.289 131.877 220.25 132.062 220.25C132.194 220.25 132.313 220.276 132.419 220.302C132.538 220.342 132.63 220.395 132.709 220.474C132.789 220.553 132.855 220.646 132.908 220.765C132.96 220.883 132.974 221.029 132.974 221.174V222.957H133.013Z" fill="black"/>
<path d="M135.655 222.706C135.536 222.785 135.404 222.851 135.232 222.917C135.074 222.97 134.876 222.997 134.625 222.997C134.453 222.997 134.308 222.97 134.162 222.931C134.017 222.878 133.898 222.812 133.793 222.706C133.687 222.614 133.608 222.482 133.542 222.323C133.476 222.165 133.449 221.98 133.449 221.768V221.465C133.449 221.266 133.476 221.095 133.528 220.936C133.581 220.778 133.661 220.659 133.766 220.553C133.872 220.448 133.991 220.382 134.123 220.329C134.268 220.276 134.413 220.25 134.572 220.25C134.915 220.25 135.179 220.355 135.377 220.553C135.576 220.765 135.681 221.055 135.681 221.438V221.795H133.898V221.808C133.898 222.059 133.964 222.257 134.096 222.376C134.228 222.508 134.4 222.574 134.611 222.574C134.783 222.574 134.928 222.548 135.061 222.508C135.179 222.468 135.298 222.402 135.417 222.336L135.655 222.706ZM134.611 220.672C134.519 220.672 134.427 220.685 134.347 220.725C134.268 220.765 134.189 220.804 134.136 220.87C134.07 220.936 134.03 221.002 133.991 221.082C133.951 221.161 133.938 221.253 133.938 221.359V221.425H135.259V221.332C135.259 221.134 135.206 220.963 135.087 220.844C134.968 220.725 134.81 220.672 134.611 220.672Z" fill="black"/>
<path d="M137.753 222.956H137.277V219.47H138.545C138.717 219.47 138.875 219.496 139.021 219.536C139.153 219.589 139.272 219.655 139.364 219.734C139.457 219.813 139.536 219.919 139.575 220.038C139.628 220.157 139.655 220.275 139.655 220.421V220.54C139.655 220.738 139.602 220.909 139.496 221.068C139.391 221.213 139.245 221.332 139.06 221.411L139.747 222.956H139.232L138.598 221.504H138.519H137.753V222.956ZM137.753 221.094H138.426C138.704 221.094 138.889 221.041 139.008 220.936C139.126 220.83 139.179 220.698 139.179 220.526V220.434C139.179 220.262 139.126 220.13 139.008 220.024C138.889 219.919 138.717 219.879 138.479 219.879H137.753V221.094Z" fill="black"/>
<path d="M142.312 222.706C142.193 222.785 142.061 222.851 141.889 222.917C141.731 222.97 141.533 222.997 141.282 222.997C141.11 222.997 140.965 222.97 140.82 222.931C140.674 222.878 140.555 222.812 140.45 222.706C140.344 222.614 140.265 222.482 140.199 222.323C140.133 222.165 140.106 221.98 140.106 221.768V221.465C140.106 221.266 140.133 221.095 140.186 220.936C140.239 220.778 140.318 220.659 140.423 220.553C140.529 220.448 140.648 220.382 140.78 220.329C140.925 220.276 141.071 220.25 141.229 220.25C141.572 220.25 141.837 220.355 142.035 220.553C142.233 220.765 142.338 221.055 142.338 221.438V221.795H140.555V221.808C140.555 222.059 140.622 222.257 140.754 222.376C140.886 222.508 141.057 222.574 141.269 222.574C141.44 222.574 141.586 222.548 141.718 222.508C141.837 222.468 141.955 222.402 142.074 222.336L142.312 222.706ZM141.269 220.672C141.176 220.672 141.084 220.685 141.005 220.725C140.925 220.765 140.846 220.804 140.793 220.87C140.727 220.936 140.688 221.002 140.648 221.082C140.608 221.161 140.595 221.253 140.595 221.359V221.425H141.916V221.332C141.916 221.134 141.863 220.963 141.744 220.844C141.625 220.725 141.467 220.672 141.269 220.672Z" fill="black"/>
<path d="M145.018 222.957H144.543V221.306C144.543 221.081 144.49 220.923 144.397 220.817C144.305 220.712 144.16 220.672 143.962 220.672C143.882 220.672 143.803 220.685 143.724 220.712C143.645 220.738 143.579 220.778 143.512 220.83C143.446 220.883 143.394 220.949 143.354 221.029C143.314 221.108 143.288 221.2 143.288 221.306V222.944H142.812V219.285H143.288V220.619C143.367 220.5 143.473 220.408 143.605 220.342C143.737 220.276 143.896 220.249 144.067 220.249C144.199 220.249 144.318 220.276 144.437 220.302C144.556 220.329 144.648 220.395 144.728 220.474C144.807 220.553 144.873 220.646 144.926 220.764C144.979 220.883 144.992 221.029 144.992 221.174V222.957H145.018Z" fill="black"/>
<path d="M146.353 222.997C146.089 222.997 145.878 222.931 145.719 222.799C145.561 222.666 145.481 222.482 145.481 222.257V222.125C145.481 221.9 145.561 221.716 145.706 221.57C145.851 221.425 146.102 221.359 146.446 221.359H147.119V221.2C147.119 221.029 147.08 220.897 146.987 220.804C146.895 220.712 146.763 220.672 146.564 220.672C146.406 220.672 146.274 220.699 146.155 220.738C146.036 220.791 145.917 220.857 145.798 220.936L145.561 220.593C145.693 220.5 145.838 220.421 145.997 220.355C146.155 220.289 146.34 220.25 146.564 220.25C146.71 220.25 146.842 220.263 146.974 220.302C147.093 220.342 147.198 220.395 147.291 220.461C147.383 220.527 147.449 220.619 147.502 220.725C147.555 220.831 147.581 220.949 147.581 221.082V222.931H147.132V222.614C147.106 222.666 147.066 222.706 147.027 222.746C146.987 222.785 146.934 222.825 146.881 222.851C146.815 222.891 146.736 222.917 146.657 222.944C146.564 222.983 146.472 222.997 146.353 222.997ZM147.119 221.755H146.459C146.274 221.755 146.142 221.795 146.063 221.861C145.983 221.927 145.944 222.032 145.944 222.151V222.217C145.944 222.349 145.983 222.442 146.076 222.495C146.168 222.548 146.274 222.587 146.406 222.587C146.525 222.587 146.617 222.574 146.71 222.548C146.789 222.521 146.868 222.482 146.947 222.429C147.013 222.376 147.053 222.323 147.08 222.257C147.106 222.191 147.119 222.112 147.119 222.006V221.755V221.755Z" fill="black"/>
<path d="M148.664 220.619C148.743 220.487 148.862 220.395 148.994 220.342C149.126 220.289 149.271 220.262 149.417 220.262C149.747 220.262 150.011 220.355 150.183 220.553C150.354 220.751 150.447 221.029 150.447 221.385V221.847C150.447 222.032 150.421 222.191 150.368 222.323C150.315 222.468 150.249 222.587 150.156 222.679C150.064 222.772 149.958 222.851 149.826 222.904C149.694 222.957 149.562 222.983 149.404 222.983C149.205 222.983 149.047 222.944 148.928 222.878C148.809 222.812 148.717 222.732 148.664 222.64H148.651V222.944H148.188V219.285H148.664V220.619V220.619ZM148.664 222.019C148.664 222.085 148.677 222.151 148.717 222.23C148.756 222.296 148.796 222.362 148.862 222.415C148.928 222.468 148.994 222.508 149.087 222.547C149.166 222.587 149.258 222.6 149.364 222.6C149.562 222.6 149.721 222.534 149.826 222.389C149.932 222.244 149.998 222.059 149.998 221.808V221.478C149.998 221.227 149.945 221.029 149.826 220.896C149.707 220.751 149.562 220.685 149.364 220.685C149.271 220.685 149.179 220.698 149.1 220.738C149.021 220.764 148.941 220.817 148.875 220.87C148.809 220.923 148.756 221.002 148.73 221.081C148.69 221.161 148.677 221.253 148.677 221.359V222.019H148.664Z" fill="black"/>
<path d="M151.464 219.364V219.879H150.962V219.364H151.464ZM151.451 220.315V222.957H150.975V220.315H151.451Z" fill="black"/>
<path d="M152.559 219.298V222.957H152.084V219.298H152.559Z" fill="black"/>
<path d="M153.697 219.364V219.879H153.195V219.364H153.697ZM153.684 220.315V222.957H153.209V220.315H153.684Z" fill="black"/>
<path d="M154.489 220.711H154.053V220.302H154.489V219.642H154.964V220.302H155.664V220.711H154.964V222.217C154.964 222.296 154.977 222.362 154.99 222.415C155.004 222.468 155.03 222.508 155.056 222.534C155.083 222.56 155.123 222.574 155.162 222.587C155.202 222.6 155.255 222.6 155.294 222.6C155.413 222.6 155.532 222.574 155.638 222.534L155.704 222.917C155.651 222.943 155.572 222.957 155.492 222.983C155.4 222.996 155.307 223.01 155.215 223.01C154.964 223.01 154.779 222.943 154.66 222.825C154.541 222.706 154.475 222.508 154.475 222.23V220.711H154.489Z" fill="black"/>
<path d="M156.827 222.997C156.563 222.997 156.351 222.931 156.193 222.799C156.034 222.666 155.955 222.482 155.955 222.257V222.125C155.955 221.9 156.034 221.716 156.18 221.57C156.325 221.425 156.576 221.359 156.919 221.359H157.593V221.2C157.593 221.029 157.553 220.897 157.461 220.804C157.381 220.725 157.236 220.672 157.038 220.672C156.88 220.672 156.748 220.699 156.629 220.738C156.51 220.791 156.391 220.857 156.272 220.936L156.034 220.593C156.166 220.5 156.312 220.421 156.47 220.355C156.629 220.289 156.814 220.25 157.038 220.25C157.183 220.25 157.315 220.263 157.448 220.302C157.566 220.342 157.672 220.395 157.764 220.461C157.857 220.527 157.923 220.619 157.976 220.725C158.029 220.831 158.055 220.949 158.055 221.082V222.931H157.606V222.614C157.58 222.666 157.54 222.706 157.5 222.746C157.461 222.785 157.408 222.825 157.355 222.851C157.289 222.891 157.21 222.917 157.131 222.944C157.038 222.983 156.946 222.997 156.827 222.997ZM157.593 221.755H156.932C156.748 221.755 156.615 221.795 156.536 221.861C156.457 221.927 156.417 222.032 156.417 222.151V222.217C156.417 222.349 156.457 222.442 156.549 222.495C156.642 222.548 156.748 222.587 156.88 222.587C156.998 222.587 157.091 222.574 157.183 222.548C157.263 222.521 157.342 222.482 157.421 222.429C157.487 222.376 157.527 222.323 157.553 222.257C157.58 222.191 157.593 222.112 157.593 222.006V221.755Z" fill="black"/>
<path d="M158.832 220.711H158.396V220.302H158.832V219.642H159.308V220.302H160.008V220.711H159.308V222.217C159.308 222.296 159.321 222.362 159.334 222.415C159.347 222.468 159.374 222.508 159.4 222.534C159.427 222.56 159.466 222.574 159.506 222.587C159.546 222.6 159.598 222.6 159.638 222.6C159.757 222.6 159.876 222.574 159.981 222.534L160.047 222.917C159.995 222.943 159.915 222.957 159.836 222.983C159.744 222.996 159.651 223.01 159.559 223.01C159.308 223.01 159.123 222.943 159.004 222.825C158.885 222.706 158.819 222.508 158.819 222.23V220.711H158.832Z" fill="black"/>
<path d="M160.934 219.364V219.879H160.432V219.364H160.934ZM160.92 220.315V222.957H160.445V220.315H160.92Z" fill="black"/>
<path d="M162.61 220.263C162.98 220.263 163.257 220.368 163.469 220.58C163.68 220.791 163.785 221.082 163.785 221.465V221.782C163.785 222.165 163.68 222.468 163.469 222.666C163.257 222.878 162.967 222.983 162.61 222.983C162.24 222.983 161.963 222.878 161.752 222.666C161.54 222.455 161.435 222.165 161.435 221.782V221.465C161.435 221.082 161.54 220.778 161.752 220.566C161.95 220.368 162.24 220.263 162.61 220.263ZM162.61 222.587C162.821 222.587 162.993 222.521 163.125 222.376C163.257 222.244 163.323 222.032 163.323 221.742V221.491C163.323 221.214 163.257 221.002 163.125 220.857C162.993 220.725 162.821 220.646 162.61 220.646C162.399 220.646 162.227 220.712 162.095 220.857C161.963 220.989 161.897 221.2 161.897 221.491V221.742C161.897 222.019 161.963 222.231 162.095 222.376C162.227 222.521 162.399 222.587 162.61 222.587Z" fill="black"/>
<path d="M166.48 222.957H166.005V221.306C166.005 221.082 165.952 220.923 165.859 220.817C165.767 220.712 165.622 220.672 165.423 220.672C165.344 220.672 165.265 220.685 165.186 220.712C165.106 220.738 165.04 220.778 164.974 220.831C164.908 220.883 164.856 220.949 164.816 221.029C164.776 221.108 164.75 221.2 164.75 221.306V222.944H164.274V220.302H164.737V220.632C164.816 220.514 164.922 220.421 165.054 220.355C165.186 220.289 165.344 220.25 165.529 220.25C165.661 220.25 165.78 220.276 165.886 220.302C166.005 220.342 166.097 220.395 166.176 220.474C166.256 220.553 166.322 220.646 166.374 220.765C166.427 220.883 166.44 221.029 166.44 221.174V222.957H166.48Z" fill="black"/>
<path d="M168.897 222.997C168.633 222.997 168.422 222.931 168.263 222.799C168.105 222.666 168.025 222.482 168.025 222.257V222.125C168.025 221.9 168.105 221.716 168.25 221.57C168.395 221.425 168.646 221.359 168.99 221.359H169.663V221.2C169.663 221.029 169.623 220.897 169.531 220.804C169.439 220.712 169.307 220.672 169.108 220.672C168.95 220.672 168.818 220.699 168.699 220.738C168.58 220.791 168.461 220.857 168.342 220.936L168.105 220.593C168.237 220.5 168.382 220.421 168.54 220.355C168.699 220.289 168.884 220.25 169.108 220.25C169.254 220.25 169.386 220.263 169.518 220.302C169.637 220.342 169.742 220.395 169.835 220.461C169.927 220.527 169.993 220.619 170.046 220.725C170.099 220.831 170.125 220.949 170.125 221.082V222.931H169.676V222.614C169.65 222.666 169.61 222.706 169.571 222.746C169.531 222.785 169.478 222.825 169.425 222.851C169.359 222.891 169.28 222.917 169.201 222.944C169.108 222.983 169.003 222.997 168.897 222.997ZM169.663 221.755H169.003C168.818 221.755 168.686 221.795 168.607 221.861C168.527 221.927 168.488 222.032 168.488 222.151V222.217C168.488 222.349 168.527 222.442 168.62 222.495C168.712 222.548 168.818 222.587 168.95 222.587C169.069 222.587 169.161 222.574 169.254 222.548C169.333 222.521 169.412 222.482 169.491 222.429C169.557 222.376 169.597 222.323 169.623 222.257C169.65 222.191 169.663 222.112 169.663 222.006V221.755Z" fill="black"/>
<path d="M172.926 222.957H172.451V221.306C172.451 221.082 172.398 220.923 172.306 220.817C172.213 220.712 172.068 220.672 171.87 220.672C171.791 220.672 171.711 220.685 171.632 220.712C171.553 220.738 171.487 220.778 171.421 220.831C171.355 220.883 171.302 220.949 171.262 221.029C171.223 221.108 171.196 221.2 171.196 221.306V222.944H170.721V220.302H171.183V220.632C171.262 220.514 171.368 220.421 171.5 220.355C171.632 220.289 171.79 220.25 171.975 220.25C172.107 220.25 172.226 220.276 172.332 220.302C172.451 220.342 172.543 220.395 172.623 220.474C172.702 220.553 172.768 220.646 172.821 220.765C172.874 220.883 172.887 221.029 172.887 221.174V222.957H172.926Z" fill="black"/>
<path d="M175.185 222.627C175.106 222.759 175 222.851 174.868 222.917C174.736 222.97 174.577 222.996 174.419 222.996C174.089 222.996 173.825 222.904 173.653 222.706C173.481 222.508 173.389 222.23 173.389 221.874V221.411C173.389 221.24 173.415 221.081 173.468 220.936C173.521 220.791 173.587 220.672 173.679 220.579C173.772 220.487 173.877 220.408 174.009 220.355C174.141 220.302 174.274 220.276 174.432 220.276C174.63 220.276 174.789 220.315 174.908 220.381C175.026 220.447 175.106 220.527 175.172 220.593V219.298H175.647V222.957H175.198L175.185 222.627ZM175.185 221.24C175.185 221.174 175.172 221.108 175.132 221.042C175.092 220.976 175.053 220.91 174.987 220.857C174.921 220.804 174.855 220.764 174.762 220.725C174.683 220.698 174.577 220.672 174.485 220.672C174.287 220.672 174.128 220.738 174.023 220.883C173.917 221.028 173.851 221.213 173.851 221.464V221.795C173.851 222.045 173.904 222.244 174.023 222.376C174.141 222.521 174.287 222.587 174.485 222.587C174.577 222.587 174.67 222.574 174.762 222.547C174.841 222.521 174.921 222.468 174.987 222.415C175.053 222.362 175.106 222.283 175.132 222.204C175.172 222.125 175.185 222.032 175.185 221.927V221.24Z" fill="black"/>
<path d="M178.022 220.447C178.009 220.407 177.996 220.381 177.982 220.341C177.969 220.302 177.956 220.275 177.943 220.236C177.93 220.196 177.916 220.157 177.903 220.117C177.89 220.077 177.864 220.024 177.85 219.958V222.956H177.401V219.47H178.101L179.065 221.755L180.003 219.47H180.703V222.956H180.241V219.958C180.228 220.024 180.215 220.077 180.188 220.117C180.175 220.157 180.162 220.196 180.148 220.236C180.135 220.275 180.122 220.302 180.109 220.341C180.096 220.368 180.082 220.407 180.069 220.447L179.237 222.389H178.828L178.022 220.447Z" fill="black"/>
<path d="M181.865 219.364V219.879H181.363V219.364H181.865ZM181.852 220.315V222.957H181.376V220.315H181.852Z" fill="black"/>
<path d="M184.681 222.957H184.206V221.306C184.206 221.082 184.153 220.923 184.06 220.817C183.968 220.712 183.823 220.672 183.625 220.672C183.545 220.672 183.466 220.685 183.387 220.712C183.308 220.738 183.242 220.778 183.176 220.831C183.11 220.883 183.057 220.949 183.017 221.029C182.977 221.108 182.951 221.2 182.951 221.306V222.944H182.476V220.302H182.938V220.632C183.017 220.514 183.123 220.421 183.255 220.355C183.387 220.289 183.545 220.25 183.73 220.25C183.862 220.25 183.981 220.276 184.087 220.302C184.206 220.342 184.298 220.395 184.377 220.474C184.457 220.553 184.523 220.646 184.576 220.765C184.628 220.883 184.642 221.029 184.642 221.174V222.957H184.681Z" fill="black"/>
<path d="M187.323 222.706C187.204 222.785 187.072 222.851 186.9 222.917C186.742 222.97 186.544 222.997 186.293 222.997C186.121 222.997 185.976 222.97 185.83 222.931C185.685 222.878 185.566 222.812 185.461 222.706C185.355 222.614 185.276 222.482 185.21 222.323C185.144 222.165 185.117 221.98 185.117 221.768V221.465C185.117 221.266 185.144 221.095 185.196 220.936C185.249 220.778 185.329 220.659 185.434 220.553C185.54 220.448 185.659 220.382 185.791 220.329C185.936 220.276 186.081 220.25 186.24 220.25C186.583 220.25 186.847 220.355 187.045 220.553C187.244 220.765 187.349 221.055 187.349 221.438V221.795H185.566V221.808C185.566 222.059 185.632 222.257 185.764 222.376C185.896 222.495 186.068 222.574 186.279 222.574C186.451 222.574 186.596 222.548 186.728 222.508C186.847 222.468 186.966 222.402 187.085 222.336L187.323 222.706ZM186.279 220.672C186.187 220.672 186.095 220.685 186.015 220.725C185.936 220.765 185.857 220.804 185.804 220.87C185.738 220.936 185.698 221.002 185.659 221.082C185.619 221.161 185.606 221.253 185.606 221.359V221.425H186.927V221.332C186.927 221.134 186.874 220.963 186.755 220.844C186.636 220.725 186.478 220.672 186.279 220.672Z" fill="black"/>
<path d="M189.289 220.778C189.249 220.765 189.196 220.738 189.143 220.738C189.091 220.725 189.025 220.725 188.972 220.725C188.879 220.725 188.8 220.738 188.721 220.778C188.642 220.817 188.576 220.857 188.51 220.923C188.457 220.989 188.404 221.055 188.364 221.148C188.325 221.24 188.311 221.332 188.311 221.438V222.983H187.836V220.342H188.298V220.765C188.377 220.619 188.47 220.5 188.602 220.421C188.721 220.342 188.879 220.302 189.077 220.302C189.196 220.302 189.302 220.315 189.421 220.355L189.289 220.778Z" fill="black"/>
<path d="M190.478 222.997C190.214 222.997 190.003 222.931 189.844 222.799C189.686 222.666 189.606 222.482 189.606 222.257V222.125C189.606 221.9 189.686 221.716 189.831 221.57C189.976 221.425 190.227 221.359 190.571 221.359H191.244V221.2C191.244 221.029 191.205 220.897 191.112 220.804C191.02 220.712 190.888 220.672 190.689 220.672C190.531 220.672 190.399 220.699 190.28 220.738C190.161 220.791 190.042 220.857 189.923 220.936L189.686 220.593C189.818 220.5 189.963 220.421 190.122 220.355C190.28 220.289 190.465 220.25 190.689 220.25C190.835 220.25 190.967 220.263 191.099 220.302C191.218 220.342 191.323 220.395 191.416 220.461C191.508 220.527 191.574 220.619 191.627 220.725C191.68 220.831 191.706 220.949 191.706 221.082V222.931H191.257V222.614C191.231 222.666 191.191 222.706 191.152 222.746C191.112 222.785 191.059 222.825 191.006 222.851C190.94 222.891 190.861 222.917 190.782 222.944C190.689 222.983 190.597 222.997 190.478 222.997ZM191.244 221.755H190.584C190.399 221.755 190.267 221.795 190.188 221.861C190.108 221.927 190.069 222.032 190.069 222.151V222.217C190.069 222.349 190.108 222.442 190.201 222.495C190.293 222.548 190.399 222.587 190.531 222.587C190.65 222.587 190.742 222.574 190.835 222.548C190.914 222.521 190.993 222.482 191.072 222.429C191.138 222.376 191.178 222.323 191.205 222.257C191.231 222.191 191.244 222.112 191.244 222.006V221.755Z" fill="black"/>
<path d="M192.79 219.298V222.957H192.314V219.298H192.79Z" fill="black"/>
<path d="M195.009 222.956H194.533V219.47H195.801C195.973 219.47 196.131 219.496 196.277 219.536C196.409 219.589 196.528 219.655 196.62 219.734C196.712 219.813 196.792 219.919 196.831 220.038C196.884 220.157 196.911 220.275 196.911 220.421V220.54C196.911 220.738 196.858 220.909 196.752 221.068C196.646 221.213 196.501 221.332 196.316 221.411L197.003 222.956H196.488L195.854 221.504H195.775H194.995V222.956H195.009ZM195.009 221.094H195.682C195.96 221.094 196.144 221.041 196.263 220.936C196.382 220.83 196.435 220.698 196.435 220.526V220.434C196.435 220.262 196.382 220.13 196.263 220.024C196.144 219.919 195.973 219.879 195.735 219.879H195.022V221.094H195.009Z" fill="black"/>
<path d="M199.564 222.706C199.445 222.785 199.313 222.851 199.141 222.917C198.983 222.97 198.785 222.997 198.534 222.997C198.362 222.997 198.217 222.97 198.072 222.931C197.926 222.878 197.807 222.812 197.702 222.706C197.596 222.614 197.517 222.482 197.451 222.323C197.385 222.165 197.358 221.98 197.358 221.768V221.465C197.358 221.266 197.385 221.095 197.438 220.936C197.49 220.778 197.57 220.659 197.675 220.553C197.781 220.448 197.9 220.382 198.032 220.329C198.177 220.276 198.323 220.25 198.481 220.25C198.824 220.25 199.089 220.355 199.287 220.553C199.485 220.765 199.59 221.055 199.59 221.438V221.795H197.847V221.808C197.847 222.059 197.913 222.257 198.045 222.376C198.177 222.508 198.349 222.574 198.56 222.574C198.732 222.574 198.877 222.548 199.009 222.508C199.128 222.468 199.247 222.402 199.366 222.336L199.564 222.706ZM198.521 220.672C198.428 220.672 198.336 220.685 198.256 220.725C198.177 220.765 198.098 220.804 198.045 220.87C197.979 220.936 197.94 221.002 197.9 221.082C197.86 221.161 197.847 221.253 197.847 221.359V221.425H199.168V221.332C199.168 221.134 199.115 220.963 198.996 220.844C198.877 220.725 198.719 220.672 198.521 220.672Z" fill="black"/>
<path d="M200.913 222.587C201.084 222.587 201.216 222.561 201.322 222.495C201.414 222.429 201.467 222.349 201.467 222.244V222.204C201.467 222.151 201.454 222.099 201.441 222.059C201.428 222.019 201.388 221.993 201.348 221.953C201.309 221.927 201.243 221.9 201.164 221.874C201.084 221.848 200.979 221.821 200.86 221.795C200.714 221.768 200.582 221.729 200.477 221.689C200.358 221.649 200.265 221.597 200.186 221.531C200.107 221.465 200.054 221.399 200.014 221.319C199.975 221.24 199.948 221.134 199.948 221.016V220.963C199.948 220.87 199.962 220.778 200.001 220.699C200.041 220.606 200.107 220.54 200.186 220.474C200.265 220.408 200.371 220.355 200.49 220.316C200.609 220.276 200.767 220.25 200.939 220.25C201.124 220.25 201.282 220.276 201.441 220.316C201.599 220.355 201.745 220.421 201.877 220.514L201.665 220.87C201.573 220.804 201.48 220.751 201.348 220.712C201.23 220.672 201.097 220.659 200.965 220.659C200.767 220.659 200.622 220.685 200.543 220.751C200.464 220.817 200.411 220.883 200.411 220.976V221.016C200.411 221.121 200.45 221.2 200.543 221.24C200.635 221.293 200.78 221.332 200.979 221.372C201.137 221.399 201.282 221.438 201.401 221.478C201.52 221.517 201.613 221.57 201.692 221.636C201.771 221.702 201.824 221.768 201.863 221.861C201.903 221.953 201.916 222.059 201.916 222.178V222.244C201.916 222.349 201.89 222.442 201.85 222.534C201.797 222.627 201.731 222.706 201.652 222.772C201.56 222.838 201.454 222.891 201.335 222.931C201.216 222.97 201.071 222.983 200.913 222.983C200.688 222.983 200.49 222.957 200.305 222.891C200.12 222.838 199.975 222.759 199.843 222.653L200.054 222.283C200.173 222.363 200.305 222.429 200.437 222.482C200.596 222.561 200.754 222.587 200.913 222.587Z" fill="black"/>
<path d="M203.421 220.263C203.79 220.263 204.068 220.368 204.279 220.58C204.49 220.791 204.596 221.082 204.596 221.465V221.782C204.596 222.165 204.49 222.468 204.279 222.666C204.068 222.878 203.777 222.983 203.421 222.983C203.051 222.983 202.773 222.878 202.562 222.666C202.351 222.455 202.245 222.165 202.245 221.782V221.465C202.245 221.082 202.351 220.778 202.562 220.566C202.773 220.368 203.051 220.263 203.421 220.263ZM203.421 222.587C203.632 222.587 203.804 222.521 203.936 222.376C204.068 222.244 204.134 222.032 204.134 221.742V221.491C204.134 221.214 204.068 221.002 203.936 220.857C203.804 220.725 203.632 220.646 203.421 220.646C203.209 220.646 203.038 220.712 202.905 220.857C202.773 220.989 202.707 221.2 202.707 221.491V221.742C202.707 222.019 202.773 222.231 202.905 222.376C203.038 222.521 203.209 222.587 203.421 222.587Z" fill="black"/>
<path d="M205.061 220.315H205.536V221.966C205.536 222.191 205.576 222.349 205.668 222.455C205.761 222.561 205.906 222.6 206.091 222.6C206.17 222.6 206.249 222.587 206.328 222.561C206.408 222.534 206.474 222.495 206.54 222.442C206.606 222.389 206.659 222.323 206.698 222.244C206.738 222.164 206.751 222.072 206.751 221.966V220.329H207.227V222.97H206.764V222.64C206.685 222.759 206.579 222.851 206.447 222.917C206.315 222.983 206.157 223.023 205.972 223.023C205.84 223.023 205.721 222.997 205.615 222.97C205.51 222.93 205.404 222.878 205.325 222.798C205.245 222.719 205.179 222.627 205.127 222.508C205.074 222.389 205.061 222.257 205.061 222.085V220.315V220.315Z" fill="black"/>
<path d="M209.311 220.778C209.272 220.765 209.219 220.738 209.166 220.738C209.113 220.725 209.047 220.725 208.994 220.725C208.902 220.725 208.823 220.738 208.743 220.778C208.664 220.817 208.598 220.857 208.532 220.923C208.479 220.989 208.426 221.055 208.387 221.148C208.347 221.24 208.334 221.332 208.334 221.438V222.983H207.858V220.342H208.321V220.765C208.4 220.619 208.492 220.5 208.624 220.421C208.743 220.342 208.902 220.302 209.1 220.302C209.219 220.302 209.324 220.315 209.443 220.355L209.311 220.778Z" fill="black"/>
<path d="M210.765 220.263C210.989 220.263 211.161 220.289 211.306 220.342C211.452 220.395 211.57 220.461 211.676 220.553L211.452 220.91C211.333 220.817 211.214 220.765 211.108 220.725C211.003 220.699 210.884 220.685 210.752 220.685C210.659 220.685 210.58 220.699 210.501 220.725C210.421 220.751 210.355 220.804 210.289 220.857C210.223 220.923 210.184 221.002 210.144 221.095C210.104 221.187 210.091 221.306 210.091 221.438V221.768C210.091 221.914 210.104 222.032 210.144 222.138C210.184 222.244 210.236 222.323 210.289 222.389C210.355 222.455 210.421 222.495 210.501 222.521C210.58 222.548 210.672 222.561 210.752 222.561C210.923 222.561 211.069 222.534 211.187 222.495C211.306 222.455 211.412 222.389 211.504 222.323L211.729 222.68C211.636 222.759 211.504 222.825 211.346 222.891C211.187 222.957 210.989 222.983 210.752 222.983C210.382 222.983 210.104 222.878 209.906 222.666C209.708 222.455 209.603 222.151 209.603 221.782V221.451C209.603 221.266 209.629 221.095 209.682 220.95C209.735 220.804 209.814 220.685 209.906 220.58C209.999 220.474 210.118 220.395 210.263 220.342C210.435 220.289 210.593 220.263 210.765 220.263Z" fill="black"/>
<path d="M214.147 222.706C214.028 222.785 213.896 222.851 213.724 222.917C213.566 222.97 213.368 222.997 213.117 222.997C212.945 222.997 212.8 222.97 212.655 222.931C212.509 222.878 212.39 222.812 212.285 222.706C212.179 222.614 212.1 222.482 212.034 222.323C211.968 222.165 211.941 221.98 211.941 221.768V221.465C211.941 221.266 211.968 221.095 212.021 220.936C212.073 220.778 212.153 220.659 212.258 220.553C212.364 220.448 212.483 220.382 212.615 220.329C212.76 220.276 212.906 220.25 213.064 220.25C213.407 220.25 213.672 220.355 213.87 220.553C214.068 220.765 214.173 221.055 214.173 221.438V221.795H212.39V221.808C212.39 222.059 212.457 222.257 212.589 222.376C212.721 222.495 212.892 222.574 213.104 222.574C213.275 222.574 213.421 222.548 213.553 222.508C213.672 222.468 213.79 222.402 213.909 222.336L214.147 222.706ZM213.104 220.672C213.011 220.672 212.919 220.685 212.84 220.725C212.76 220.765 212.681 220.804 212.628 220.87C212.562 220.936 212.523 221.002 212.483 221.082C212.443 221.161 212.43 221.253 212.43 221.359V221.425H213.751V221.332C213.751 221.134 213.698 220.963 213.579 220.844C213.46 220.725 213.302 220.672 213.104 220.672Z" fill="black"/>
<path d="M215.492 222.587C215.663 222.587 215.795 222.561 215.901 222.495C215.994 222.429 216.046 222.349 216.046 222.244V222.204C216.046 222.151 216.033 222.099 216.02 222.059C216.007 222.019 215.967 221.993 215.928 221.953C215.888 221.927 215.822 221.9 215.743 221.874C215.663 221.848 215.558 221.821 215.439 221.795C215.294 221.768 215.161 221.729 215.056 221.689C214.937 221.649 214.845 221.597 214.765 221.531C214.686 221.465 214.633 221.399 214.594 221.319C214.554 221.24 214.528 221.134 214.528 221.016V220.963C214.528 220.87 214.541 220.778 214.58 220.699C214.62 220.606 214.686 220.54 214.765 220.474C214.845 220.408 214.95 220.355 215.069 220.316C215.188 220.276 215.346 220.25 215.518 220.25C215.703 220.25 215.861 220.276 216.02 220.316C216.178 220.355 216.324 220.421 216.456 220.514L216.244 220.87C216.152 220.804 216.06 220.751 215.928 220.712C215.809 220.672 215.677 220.659 215.544 220.659C215.346 220.659 215.201 220.685 215.122 220.751C215.043 220.817 214.99 220.883 214.99 220.976V221.016C214.99 221.121 215.029 221.2 215.122 221.24C215.214 221.293 215.36 221.332 215.558 221.372C215.716 221.399 215.861 221.438 215.98 221.478C216.099 221.517 216.192 221.57 216.271 221.636C216.35 221.702 216.403 221.768 216.443 221.861C216.482 221.953 216.495 222.059 216.495 222.178V222.244C216.495 222.349 216.469 222.442 216.429 222.534C216.377 222.627 216.311 222.706 216.231 222.772C216.139 222.838 216.033 222.891 215.914 222.931C215.795 222.97 215.65 222.983 215.492 222.983C215.267 222.983 215.069 222.957 214.884 222.891C214.699 222.838 214.554 222.759 214.422 222.653L214.633 222.283C214.752 222.363 214.884 222.429 215.016 222.482C215.188 222.561 215.333 222.587 215.492 222.587Z" fill="black"/>
<path d="M220.591 222.574C220.419 222.746 220.221 222.851 220.023 222.917C219.812 222.983 219.601 223.01 219.363 223.01C219.152 223.01 218.967 222.983 218.795 222.917C218.623 222.851 218.478 222.759 218.359 222.627C218.24 222.495 218.148 222.336 218.069 222.151C218.003 221.966 217.963 221.742 217.963 221.478V220.95C217.963 220.699 218.003 220.474 218.069 220.276C218.135 220.091 218.227 219.919 218.359 219.8C218.478 219.668 218.636 219.576 218.808 219.51C218.98 219.444 219.165 219.417 219.376 219.417C219.614 219.417 219.825 219.444 220.01 219.51C220.195 219.576 220.367 219.668 220.525 219.787L220.274 220.183C220.116 220.051 219.97 219.972 219.825 219.933C219.68 219.893 219.535 219.867 219.376 219.867C219.244 219.867 219.125 219.893 219.006 219.933C218.901 219.972 218.795 220.051 218.716 220.144C218.636 220.236 218.57 220.355 218.531 220.5C218.491 220.646 218.465 220.817 218.465 221.016V221.412C218.465 221.61 218.491 221.782 218.531 221.927C218.57 222.072 218.636 222.191 218.716 222.283C218.795 222.376 218.901 222.442 219.006 222.495C219.125 222.534 219.244 222.561 219.376 222.561C219.548 222.561 219.706 222.534 219.878 222.482C220.05 222.429 220.208 222.336 220.353 222.191L220.591 222.574Z" fill="black"/>
<path d="M222.044 220.263C222.413 220.263 222.691 220.368 222.902 220.58C223.113 220.791 223.219 221.082 223.219 221.465V221.782C223.219 222.165 223.113 222.468 222.902 222.666C222.691 222.878 222.4 222.983 222.044 222.983C221.674 222.983 221.396 222.878 221.185 222.666C220.974 222.455 220.868 222.165 220.868 221.782V221.465C220.868 221.082 220.974 220.778 221.185 220.566C221.396 220.368 221.674 220.263 222.044 220.263ZM222.044 222.587C222.255 222.587 222.427 222.521 222.559 222.376C222.691 222.244 222.757 222.032 222.757 221.742V221.491C222.757 221.214 222.691 221.002 222.559 220.857C222.427 220.725 222.255 220.646 222.044 220.646C221.832 220.646 221.661 220.712 221.529 220.857C221.396 220.989 221.33 221.2 221.33 221.491V221.742C221.33 222.019 221.396 222.231 221.529 222.376C221.661 222.521 221.832 222.587 222.044 222.587Z" fill="black"/>
<path d="M225.173 220.778C225.133 220.765 225.08 220.738 225.027 220.738C224.974 220.725 224.908 220.725 224.856 220.725C224.763 220.725 224.684 220.738 224.605 220.778C224.525 220.817 224.459 220.857 224.393 220.923C224.34 220.989 224.288 221.055 224.248 221.148C224.208 221.24 224.195 221.332 224.195 221.438V222.983H223.72V220.342H224.182V220.765C224.261 220.619 224.354 220.5 224.486 220.421C224.605 220.342 224.763 220.302 224.961 220.302C225.08 220.302 225.186 220.315 225.305 220.355L225.173 220.778Z" fill="black"/>
<path d="M226.072 220.646C226.151 220.514 226.257 220.421 226.402 220.355C226.547 220.289 226.692 220.263 226.851 220.263C227.181 220.263 227.445 220.368 227.617 220.566C227.789 220.765 227.881 221.042 227.881 221.399V221.861C227.881 222.046 227.855 222.204 227.802 222.349C227.749 222.495 227.683 222.614 227.59 222.706C227.498 222.799 227.392 222.878 227.26 222.931C227.128 222.983 226.983 223.01 226.824 223.01C226.626 223.01 226.468 222.97 226.349 222.904C226.23 222.838 226.151 222.759 226.085 222.68V224H225.609V220.316H226.058V220.646H226.072ZM226.085 222.019C226.085 222.085 226.098 222.151 226.138 222.231C226.177 222.297 226.217 222.363 226.283 222.416C226.349 222.468 226.415 222.508 226.507 222.548C226.587 222.587 226.679 222.6 226.785 222.6C226.983 222.6 227.141 222.534 227.247 222.389C227.353 222.244 227.419 222.059 227.419 221.808V221.478C227.419 221.227 227.366 221.029 227.247 220.897C227.128 220.751 226.983 220.685 226.785 220.685C226.692 220.685 226.6 220.699 226.521 220.738C226.441 220.765 226.362 220.817 226.296 220.87C226.23 220.923 226.177 221.002 226.151 221.082C226.111 221.161 226.098 221.253 226.098 221.359V222.019H226.085Z" fill="black"/>
<path d="M228.448 222.6H229.003V223.155H228.448V222.6Z" fill="black"/>
</svg>
