<svg width="16" height="16" viewBox="0 0 16 16" fill="none" xmlns="http://www.w3.org/2000/svg">
<path d="M14.3266 10.8574L11.0795 9.44997C10.9099 9.37616 10.7248 9.34644 10.541 9.36352C10.3572 9.38059 10.1805 9.44393 10.0271 9.54775L8.29096 10.7182C7.22985 10.1963 6.37103 9.33152 5.85025 8.26069L5.85039 8.26055L7.00365 6.47837C7.10403 6.32365 7.16494 6.14618 7.18091 5.96183C7.19688 5.77748 7.16743 5.592 7.09518 5.42198L5.70226 2.13514C5.60744 1.91203 5.44371 1.72598 5.23559 1.60485C5.02747 1.48373 4.78616 1.43404 4.54778 1.46323C3.61106 1.58503 2.75023 2.04756 2.12609 2.7644C1.50196 3.48124 1.15721 4.40337 1.15625 5.35851C1.15625 10.9258 5.63469 15.4551 11.1395 15.4551C12.0839 15.4541 12.9957 15.1054 13.7045 14.4742C14.4133 13.843 14.8707 12.9723 14.9911 12.025C15.0199 11.7839 14.9707 11.5399 14.8509 11.3294C14.7311 11.1189 14.5472 10.9533 14.3266 10.8574V10.8574Z" fill="#AAAAAA"/>
</svg>
