<svg width="16" height="16" viewBox="0 0 16 16" fill="none" xmlns="http://www.w3.org/2000/svg">
<path d="M13.9673 4.02805H13.2266V1.83686C13.2266 1.69158 13.168 1.55224 13.0638 1.44951C12.9597 1.34678 12.8183 1.28906 12.671 1.28906H3.78212C3.63478 1.28906 3.49347 1.34678 3.38928 1.44951C3.2851 1.55224 3.22656 1.69158 3.22656 1.83686V4.02805H2.48583C1.51578 4.02805 0.726562 4.76529 0.726562 5.67145V11.1494C0.726564 11.2947 0.785096 11.434 0.889283 11.5368C0.993469 11.6395 1.13478 11.6972 1.28212 11.6972H3.22656V14.1623C3.22656 14.3076 3.2851 14.4469 3.38928 14.5497C3.49347 14.6524 3.63478 14.7101 3.78212 14.7101H12.671C12.8183 14.7101 12.9597 14.6524 13.0638 14.5497C13.168 14.4469 13.2266 14.3076 13.2266 14.1623V11.6972H15.171C15.3183 11.6972 15.4597 11.6395 15.5638 11.5368C15.668 11.434 15.7266 11.2947 15.7266 11.1494V5.67145C15.7266 4.76529 14.9373 4.02805 13.9673 4.02805ZM4.33767 2.38466H12.1155V4.02805H4.33767V2.38466ZM12.1155 13.6145H4.33767V10.0538H12.1155V13.6145ZM12.3932 7.86264C12.2284 7.86264 12.0673 7.81445 11.9303 7.72416C11.7932 7.63387 11.6864 7.50554 11.6233 7.35539C11.5603 7.20525 11.5438 7.04003 11.5759 6.88064C11.6081 6.72124 11.6874 6.57483 11.804 6.45991C11.9205 6.345 12.069 6.26674 12.2307 6.23503C12.3923 6.20333 12.5599 6.2196 12.7121 6.28179C12.8644 6.34399 12.9946 6.4493 13.0861 6.58443C13.1777 6.71956 13.2266 6.87843 13.2266 7.04094C13.2266 7.14885 13.205 7.2557 13.1631 7.35539C13.1212 7.45509 13.0599 7.54567 12.9825 7.62197C12.9051 7.69827 12.8132 7.7588 12.7121 7.80009C12.611 7.84139 12.5027 7.86264 12.3932 7.86264V7.86264Z" fill="#AAAAAA"/>
</svg>
