<svg width="100" height="100" viewBox="0 0 100 100" fill="none" xmlns="http://www.w3.org/2000/svg">
<circle cx="50" cy="50" r="50" fill="white"/>
<g clip-path="url(#clip0_1252_3094)">
<path d="M36.8721 40.2037H61.8981C62.2892 40.2016 62.6768 40.277 63.0387 40.4253C63.4006 40.5737 63.7295 40.7922 64.0066 41.0682C64.2837 41.3442 64.5035 41.6723 64.6533 42.0336C64.8031 42.3949 64.8799 42.7823 64.8794 43.1734V62.9869H33.9063V43.1734C33.9057 42.7836 33.9821 42.3975 34.1309 42.0372C34.2797 41.6769 34.4981 41.3495 34.7736 41.0737C35.049 40.7979 35.3761 40.5791 35.7362 40.4298C36.0963 40.2805 36.4823 40.2037 36.8721 40.2037V40.2037Z" stroke="#3E3A39" stroke-width="2" stroke-linecap="round" stroke-linejoin="round"/>
<path d="M63.5881 68.0332H35.1863C34.2931 68.0332 33.4364 67.6783 32.8048 67.0467C32.1732 66.4151 31.8184 65.5585 31.8184 64.6652V62.987L66.9561 62.987V64.6652C66.9561 65.5585 66.6012 66.4151 65.9696 67.0467C65.338 67.6783 64.4813 68.0332 63.5881 68.0332V68.0332Z" stroke="#3E3A39" stroke-width="2" stroke-linecap="round" stroke-linejoin="round"/>
<path d="M61.6042 45.2773H37.166V62.9873H61.6042V45.2773Z" fill="#F2F7FC" stroke="#3E3A39" stroke-width="2" stroke-linecap="round" stroke-linejoin="round"/>
<path d="M50.3169 42.8567C50.3169 42.6724 50.2623 42.4922 50.1599 42.339C50.0575 42.1857 49.9119 42.0663 49.7416 41.9957C49.5714 41.9252 49.384 41.9068 49.2032 41.9427C49.0224 41.9787 48.8564 42.0674 48.7261 42.1977C48.5957 42.3281 48.507 42.4941 48.471 42.6749C48.4351 42.8557 48.4535 43.043 48.5241 43.2133C48.5946 43.3836 48.714 43.5291 48.8673 43.6315C49.0205 43.7339 49.2007 43.7886 49.385 43.7886C49.5075 43.7891 49.6289 43.7653 49.7422 43.7187C49.8555 43.672 49.9585 43.6034 50.0451 43.5168C50.1317 43.4302 50.2004 43.3272 50.247 43.2139C50.2937 43.1006 50.3174 42.9792 50.3169 42.8567V42.8567Z" fill="#3E3A39"/>
<path d="M70.1808 33.9668H47.8848V51.1818H70.1808V33.9668Z" fill="#4493F1" stroke="#3E3A39" stroke-width="2" stroke-linecap="round" stroke-linejoin="round"/>
<path d="M59.0328 41.6538L47.8848 51.1816H70.1808L59.0328 41.6538Z" fill="#4493F1" stroke="#3E3A39" stroke-width="2" stroke-linecap="round" stroke-linejoin="round"/>
<path d="M59.0328 43.4946L70.1808 33.9668H47.8848L59.0328 43.4946Z" fill="#4493F1" stroke="#3E3A39" stroke-width="2" stroke-linecap="round" stroke-linejoin="round"/>
<path d="M41.918 58.6484H50.1272" stroke="#3E3A39" stroke-width="2" stroke-linecap="round" stroke-linejoin="round"/>
<path d="M41.918 55.6943H50.1272" stroke="#3E3A39" stroke-width="2" stroke-linecap="round" stroke-linejoin="round"/>
</g>
<defs>
<clipPath id="clip0_1252_3094">
<rect width="40.296" height="36" fill="white" transform="translate(30.8516 33)"/>
</clipPath>
</defs>
</svg>
