<svg width="368" height="373" viewBox="0 0 368 373" fill="none" xmlns="http://www.w3.org/2000/svg">
<g style="mix-blend-mode:multiply" opacity="0.1">
<path d="M183.991 279.247L122.641 372.349L61.3516 279.247L122.641 186.206L183.991 279.247Z" fill="#35569C"/>
<path d="M183.992 279.247L245.281 372.349L306.632 279.247L245.281 186.206L183.992 279.247Z" fill="#35569C"/>
<path d="M122.641 186.144L183.991 279.247L245.28 186.144L183.991 93.1028L122.641 186.144Z" fill="#35569C"/>
<path d="M61.3505 279.247L0 372.349H122.64L61.3505 279.247Z" fill="#35569C"/>
<path d="M306.628 279.247L245.277 372.349H367.917L306.628 279.247Z" fill="#35569C"/>
<path d="M183.991 279.247L122.641 372.349L61.3516 279.247L122.641 186.206L183.991 279.247Z" fill="#6991E3"/>
<path d="M183.992 279.247L245.281 372.349L306.632 279.247L245.281 186.206L183.992 279.247Z" fill="#6991E3"/>
<path d="M122.641 186.144L183.991 279.247L245.28 186.144L183.991 93.1028L122.641 186.144Z" fill="#A7C3FF"/>
<path d="M61.3505 279.247L0 372.349H122.64L61.3505 279.247Z" fill="#35569C"/>
<path d="M306.628 279.247L245.277 372.349H367.917L306.628 279.247Z" fill="#35569C"/>
<path d="M367.917 93.1027L306.628 0L245.277 93.1027H367.917Z" fill="#A7C3FF"/>
<path d="M245.277 93.1028L306.628 186.205L367.917 93.1028H245.277Z" fill="#6991E3"/>
</g>
</svg>
