<svg width="110" height="100" viewBox="0 0 110 100" fill="none" xmlns="http://www.w3.org/2000/svg">
<circle opacity="0.4" cx="66.7842" cy="46.9443" r="27.4795" fill="url(#paint0_linear_1213_21295)"/>
<g clip-path="url(#clip0_1213_21295)">
<path d="M29.7472 16.4873H67.6735V75.5854H29.7472C26.7605 75.5834 23.8967 74.3955 21.7855 72.2829C19.6742 70.1703 18.4883 67.3058 18.4883 64.319V27.7462C18.4883 24.7602 19.6745 21.8964 21.7859 19.785C23.8974 17.6735 26.7611 16.4873 29.7472 16.4873V16.4873Z" fill="white" stroke="#20335B" stroke-width="2" stroke-linecap="round" stroke-linejoin="round"/>
<path d="M30.7539 18.4873V17.4873H28.7539V18.4873H30.7539ZM28.7539 54.4873C28.7539 55.0396 29.2016 55.4873 29.7539 55.4873C30.3062 55.4873 30.7539 55.0396 30.7539 54.4873H28.7539ZM28.7539 18.4873V54.4873H30.7539V18.4873H28.7539Z" fill="#1768C7"/>
<path d="M67.6891 70.9301H28.3871C27.0775 70.9301 25.8215 70.4099 24.8955 69.4839C23.9695 68.5578 23.4492 67.3019 23.4492 65.9923V65.9923C23.4492 64.6827 23.9695 63.4267 24.8955 62.5007C25.8215 61.5746 27.0775 61.0544 28.3871 61.0544H67.6891V70.9301Z" fill="#EFF3FF"/>
<path d="M29.7383 66.2302H50.1367" stroke="#20335B" stroke-width="2" stroke-linecap="round" stroke-linejoin="round"/>
<path d="M60.4275 24.9575H36.7422V33.9706H60.4275V24.9575Z" fill="#1768C7"/>
<path d="M86.7183 82.2114C86.3036 82.6285 85.8106 82.9595 85.2675 83.1854C84.7245 83.4113 84.1422 83.5275 83.554 83.5275C82.9659 83.5275 82.3835 83.4113 81.8405 83.1854C81.2975 82.9595 80.8044 82.6285 80.3898 82.2114L72.8789 74.7006L79.2074 68.3721L86.7183 75.883C87.1354 76.2976 87.4664 76.7907 87.6922 77.3337C87.9181 77.8767 88.0344 78.4591 88.0344 79.0472C88.0344 79.6353 87.9181 80.2177 87.6922 80.7607C87.4664 81.3038 87.1354 81.7968 86.7183 82.2114Z" stroke="#20335B" stroke-width="2" stroke-linecap="round" stroke-linejoin="round"/>
<path d="M77.4132 72.8774C83.5874 66.7032 83.5874 56.6928 77.4132 50.5186C71.239 44.3444 61.2286 44.3444 55.0544 50.5186C48.8802 56.6928 48.8802 66.7032 55.0544 72.8774C61.2286 79.0516 71.239 79.0516 77.4132 72.8774Z" fill="white" stroke="#20335B" stroke-width="2" stroke-linecap="round" stroke-linejoin="round"/>
<path d="M76.1853 61.7013C76.1853 67.1988 71.7288 71.6553 66.2313 71.6553C60.7339 71.6553 56.2773 67.1988 56.2773 61.7013C56.2773 56.2039 60.7339 51.7473 66.2313 51.7473C71.7288 51.7473 76.1853 56.2039 76.1853 61.7013Z" stroke="#1768C7" stroke-width="2"/>
</g>
<defs>
<linearGradient id="paint0_linear_1213_21295" x1="66.7842" y1="19.4648" x2="66.7842" y2="74.4238" gradientUnits="userSpaceOnUse">
<stop stop-color="#E9E9E9"/>
<stop offset="1" stop-color="#B8CAFF"/>
<stop offset="1" stop-color="#B8CAFF"/>
</linearGradient>
<clipPath id="clip0_1213_21295">
<rect width="72.5359" height="70" fill="white" transform="translate(17 15)"/>
</clipPath>
</defs>
</svg>
