<svg width="110" height="100" viewBox="0 0 110 100" fill="none" xmlns="http://www.w3.org/2000/svg">
<circle opacity="0.4" cx="31.4795" cy="36.4795" r="27.4795" fill="url(#paint0_linear_1213_21294)"/>
<g clip-path="url(#clip0_1213_21294)">
<path d="M78.1797 48.8022L51.956 74.0543L26.6953 48.8022L43.9523 31.5366L56.316 33.1836L78.1797 48.8022Z" fill="white"/>
<path d="M49.0312 31.605L63.0483 34.2822" stroke="#20335B" stroke-width="2" stroke-linecap="round" stroke-linejoin="round"/>
<path d="M88.332 58.0105L95.2041 51.1299" stroke="#20335B" stroke-width="2" stroke-linecap="round" stroke-linejoin="round"/>
<path d="M36.2432 58.7178L29.3711 51.8457" stroke="#20335B" stroke-width="2" stroke-linecap="round" stroke-linejoin="round"/>
<path d="M36.0812 65.7298C35.2388 64.8858 34.7656 63.742 34.7656 62.5495C34.7656 61.3571 35.2388 60.2133 36.0812 59.3693L37.8547 57.5958C38.6987 56.7534 39.8424 56.2803 41.0349 56.2803C42.2274 56.2803 43.3711 56.7534 44.2152 57.5958C45.0576 58.4398 45.5307 59.5836 45.5307 60.7761C45.5307 61.9686 45.0576 63.1124 44.2152 63.9564L42.4417 65.7298C41.5977 66.5722 40.4539 67.0454 39.2614 67.0454C38.069 67.0454 36.9252 66.5722 36.0812 65.7298V65.7298Z" fill="white" stroke="#20335B" stroke-width="2" stroke-linecap="round" stroke-linejoin="round"/>
<path d="M40.4406 74.0907C39.5981 73.2467 39.125 72.1029 39.125 70.9104C39.125 69.7179 39.5981 68.5741 40.4406 67.7301L42.214 65.9567C43.058 65.1143 44.2018 64.6411 45.3943 64.6411C46.5868 64.6411 47.7305 65.1143 48.5745 65.9567V65.9567C49.4169 66.8007 49.8901 67.9444 49.8901 69.1369C49.8901 70.3294 49.4169 71.4732 48.5745 72.3172L46.8011 74.0907C45.9571 74.9331 44.8133 75.4062 43.6208 75.4062C42.4283 75.4062 41.2846 74.9331 40.4406 74.0907V74.0907Z" fill="white" stroke="#20335B" stroke-width="2" stroke-linecap="round" stroke-linejoin="round"/>
<path d="M46.7999 80.4515C45.9575 79.6075 45.4844 78.4637 45.4844 77.2712C45.4844 76.0787 45.9575 74.935 46.7999 74.091L48.5734 72.3175C49.4174 71.4751 50.5612 71.002 51.7537 71.002C52.9461 71.002 54.0899 71.4751 54.934 72.3175C55.7764 73.1615 56.2495 74.3053 56.2495 75.4978C56.2495 76.6903 55.7764 77.834 54.934 78.678L53.1605 80.4515C52.3165 81.2939 51.1727 81.767 49.9802 81.767C48.7878 81.767 47.644 81.2939 46.7999 80.4515V80.4515Z" fill="white" stroke="#20335B" stroke-width="2" stroke-linecap="round" stroke-linejoin="round"/>
<path d="M77.0229 48.606L87.8122 59.3952C88.2601 59.8058 88.6203 60.3029 88.871 60.8564C89.1217 61.4099 89.2578 62.0085 89.271 62.616C89.2842 63.2235 89.1743 63.8274 88.9478 64.3913C88.7214 64.9552 88.3832 65.4674 87.9535 65.8971C87.5238 66.3267 87.0116 66.665 86.4477 66.8914C85.8838 67.1178 85.2799 67.2277 84.6724 67.2145C84.0649 67.2013 83.4664 67.0653 82.9128 66.8146C82.3593 66.5639 83.8623 68.2037 83.4517 67.7558C84.2356 68.6109 84.6591 69.7357 84.6339 70.8956C84.6087 72.0554 84.1367 73.1607 83.3164 73.981C82.4961 74.8014 81.3908 75.2733 80.2309 75.2985C79.0711 75.3237 77.9463 74.9002 77.0912 74.1163C77.8751 74.9715 78.2985 76.0963 78.2733 77.2561C78.2481 78.4159 77.7762 79.5213 76.9559 80.3416C76.1355 81.1619 75.0302 81.6339 73.8704 81.6591C72.7106 81.6843 71.5858 81.2608 70.7306 80.4768C71.1785 80.8875 70.5387 80.3845 70.7894 80.938C71.0401 81.4915 71.1762 82.0901 71.1894 82.6976C71.2026 83.3051 71.0926 83.909 70.8662 84.4729C70.6398 85.0368 70.3016 85.549 69.8719 85.9787C69.4422 86.4083 68.93 86.7466 68.3661 86.973C67.8022 87.1994 67.1983 87.3094 66.5908 87.2962C65.9833 87.283 65.3847 87.1469 64.8312 86.8962C64.2777 86.6455 63.7807 86.2853 63.37 85.8374L62.5625 85.0298" fill="white"/>
<path d="M77.0229 48.606L87.8122 59.3952C88.2601 59.8058 88.6203 60.3029 88.871 60.8564C89.1217 61.4099 89.2578 62.0085 89.271 62.616C89.2842 63.2235 89.1743 63.8274 88.9478 64.3913C88.7214 64.9552 88.3832 65.4674 87.9535 65.8971C87.5238 66.3267 87.0116 66.665 86.4477 66.8914C85.8838 67.1178 85.2799 67.2277 84.6724 67.2145C84.0649 67.2013 83.4664 67.0653 82.9128 66.8146C82.3593 66.5639 83.8623 68.2037 83.4517 67.7558C84.2356 68.6109 84.6591 69.7357 84.6339 70.8956C84.6087 72.0554 84.1367 73.1607 83.3164 73.981C82.4961 74.8014 81.3908 75.2733 80.2309 75.2985C79.0711 75.3237 77.9463 74.9002 77.0912 74.1163C77.8751 74.9715 78.2985 76.0963 78.2733 77.2561C78.2481 78.4159 77.7762 79.5213 76.9559 80.3416C76.1355 81.1619 75.0302 81.6339 73.8704 81.6591C72.7106 81.6843 71.5858 81.2608 70.7306 80.4768C71.1785 80.8875 70.5387 80.3845 70.7894 80.938C71.0401 81.4915 71.1762 82.0901 71.1894 82.6976C71.2026 83.3051 71.0926 83.909 70.8662 84.4729C70.6398 85.0368 70.3016 85.549 69.8719 85.9787C69.4422 86.4083 68.93 86.7466 68.3661 86.973C67.8022 87.1994 67.1983 87.3094 66.5908 87.2962C65.9833 87.283 65.3847 87.1469 64.8312 86.8962C64.2777 86.6455 63.7807 86.2853 63.37 85.8374L62.5625 85.0298" stroke="#20335B" stroke-width="2" stroke-linecap="round" stroke-linejoin="round"/>
<path d="M80.2401 47.1394L79.2254 47.5316C73.2753 49.8568 66.681 49.9296 60.681 47.7362L55.4459 52.9713C55.0199 53.3974 54.5141 53.7355 53.9575 53.9661C53.4008 54.1968 52.8042 54.3155 52.2017 54.3155C51.5991 54.3155 51.0025 54.1968 50.4459 53.9661C49.8892 53.7355 49.3834 53.3974 48.9575 52.9713C48.5313 52.5453 48.1933 52.0396 47.9626 51.4829C47.732 50.9263 47.6133 50.3296 47.6133 49.7271C47.6133 49.1245 47.732 48.5279 47.9626 47.9713C48.1933 47.4146 48.5313 46.9089 48.9575 46.4829L58.9587 36.4902C59.83 35.6302 60.9167 35.0206 62.1048 34.7253L76.2071 31.1357" fill="white"/>
<path d="M80.2401 47.1394L79.2254 47.5316C73.2753 49.8568 66.681 49.9296 60.681 47.7362L55.4459 52.9713C55.0199 53.3974 54.5141 53.7355 53.9575 53.9661C53.4008 54.1968 52.8042 54.3155 52.2017 54.3155C51.5991 54.3155 51.0025 54.1968 50.4459 53.9661C49.8892 53.7355 49.3834 53.3974 48.9575 52.9713C48.5313 52.5453 48.1933 52.0396 47.9626 51.4829C47.732 50.9263 47.6133 50.3296 47.6133 49.7271C47.6133 49.1245 47.732 48.5279 47.9626 47.9713C48.1933 47.4146 48.5313 46.9089 48.9575 46.4829L58.9587 36.4902C59.83 35.6302 60.9167 35.0206 62.1048 34.7253L76.2071 31.1357" stroke="#20335B" stroke-width="2" stroke-linecap="round" stroke-linejoin="round"/>
<path d="M43.7409 23.5374L21.6328 45.6455L29.4101 53.4228L51.5182 31.3148L43.7409 23.5374Z" fill="#1768C7" stroke="#20335B" stroke-width="2" stroke-linecap="round" stroke-linejoin="round"/>
<path d="M29.4766 47.7871C30.5811 47.7871 31.4766 46.8917 31.4766 45.7871C31.4766 44.6825 30.5811 43.7871 29.4766 43.7871C28.372 43.7871 27.4766 44.6825 27.4766 45.7871C27.4766 46.8917 28.372 47.7871 29.4766 47.7871Z" fill="white"/>
<path d="M74.3411 29.3143L96.4492 51.4224L104.227 43.645L82.1185 21.5369L74.3411 29.3143Z" fill="#1768C7" stroke="#20335B" stroke-width="2" stroke-linecap="round" stroke-linejoin="round"/>
<path d="M96.7344 45.7871C97.8389 45.7871 98.7344 44.8917 98.7344 43.7871C98.7344 42.6825 97.8389 41.7871 96.7344 41.7871C95.6298 41.7871 94.7344 42.6825 94.7344 43.7871C94.7344 44.8917 95.6298 45.7871 96.7344 45.7871Z" fill="white"/>
<path d="M56.0657 84.1396C55.2832 83.3557 54.8438 82.2933 54.8438 81.1856C54.8438 80.0779 55.2832 79.0155 56.0657 78.2316L56.713 77.5843C57.497 76.8018 58.5594 76.3623 59.6671 76.3623C60.7747 76.3623 61.8371 76.8018 62.6211 77.5843C63.4041 78.3696 63.8438 79.4333 63.8438 80.5423C63.8438 81.6512 63.4041 82.7149 62.6211 83.5003L61.9976 84.1396C61.6084 84.5297 61.1461 84.8392 60.6372 85.0504C60.1283 85.2615 59.5827 85.3702 59.0316 85.3702C58.4806 85.3702 57.935 85.2615 57.4261 85.0504C56.9172 84.8392 56.4549 84.5297 56.0657 84.1396Z" fill="white" stroke="#20335B" stroke-width="2" stroke-linecap="round" stroke-linejoin="round"/>
</g>
<defs>
<linearGradient id="paint0_linear_1213_21294" x1="31.4795" y1="9" x2="31.4795" y2="63.959" gradientUnits="userSpaceOnUse">
<stop stop-color="#E9E9E9"/>
<stop offset="1" stop-color="#B8CAFF"/>
<stop offset="1" stop-color="#B8CAFF"/>
</linearGradient>
<clipPath id="clip0_1213_21294">
<rect width="87.9988" height="70" fill="white" transform="translate(17.9297 19.8301)"/>
</clipPath>
</defs>
</svg>
