<svg width="100" height="100" viewBox="0 0 100 100" fill="none" xmlns="http://www.w3.org/2000/svg">
<circle opacity="0.4" cx="66.5" cy="54.5" r="27.5" fill="url(#paint0_linear_1235_24881)"/>
<path d="M53.7076 37H14.2924C12.3583 37 10.5035 37.7696 9.13588 39.1395C7.76829 40.5095 7 42.3675 7 44.3048V66.6616C7 68.599 7.76829 70.457 9.13588 71.8269C10.5035 73.1968 12.3583 73.9665 14.2924 73.9665H19.6741V85L30.6888 73.9665H53.7076C55.6417 73.9665 57.4965 73.1968 58.8641 71.8269C60.2317 70.457 61 68.599 61 66.6616V44.3048C61 42.3675 60.2317 40.5095 58.8641 39.1395C57.4965 37.7696 55.6417 37 53.7076 37V37Z" fill="white" stroke="#20335B" stroke-width="2" stroke-linecap="round" stroke-linejoin="round"/>
<path d="M24 55.0074C24.0014 54.4134 23.8265 53.8324 23.4975 53.3379C23.1684 52.8434 22.6999 52.4578 22.1514 52.2298C21.603 52.0018 20.9992 51.9418 20.4165 52.0573C19.8339 52.1728 19.2987 52.4587 18.8787 52.8787C18.4587 53.2987 18.1728 53.8339 18.0573 54.4166C17.9418 54.9992 18.0018 55.603 18.2298 56.1515C18.4577 56.7 18.8434 57.1684 19.3379 57.4975C19.8324 57.8266 20.4134 58.0014 21.0074 58C21.8005 57.998 22.5605 57.6822 23.1213 57.1214C23.6821 56.5605 23.998 55.8005 24 55.0074V55.0074Z" fill="#1768C7"/>
<path d="M37 54.9926C36.9985 54.3993 36.8212 53.8197 36.4903 53.3272C36.1595 52.8346 35.69 52.4513 35.1412 52.2256C34.5925 51.9998 33.9892 51.9419 33.4075 52.0591C32.8258 52.1763 32.292 52.4633 31.8735 52.8839C31.4549 53.3045 31.1705 53.8397 31.0562 54.422C30.9419 55.0042 31.0028 55.6072 31.2312 56.1549C31.4596 56.7025 31.8453 57.1701 32.3394 57.4985C32.8336 57.8269 33.414 58.0014 34.0074 58C34.4013 57.999 34.7912 57.9204 35.1549 57.7688C35.5185 57.6171 35.8486 57.3954 36.1265 57.1161C36.4044 56.8368 36.6246 56.5056 36.7745 56.1412C36.9243 55.7769 37.001 55.3866 37 54.9926V54.9926Z" fill="#1768C7"/>
<path d="M50 55.0074C50.0014 54.4134 49.8265 53.8324 49.4975 53.3379C49.1684 52.8434 48.6999 52.4578 48.1515 52.2298C47.603 52.0018 46.9992 51.9418 46.4165 52.0573C45.8339 52.1728 45.2987 52.4587 44.8787 52.8787C44.4587 53.2987 44.1728 53.8339 44.0573 54.4166C43.9418 54.9992 44.0018 55.603 44.2298 56.1515C44.4577 56.7 44.8434 57.1684 45.3379 57.4975C45.8324 57.8266 46.4134 58.0014 47.0074 58C47.8005 57.998 48.5605 57.6822 49.1213 57.1214C49.6821 56.5605 49.998 55.8005 50 55.0074V55.0074Z" fill="#1768C7"/>
<path d="M75.7177 15H36.2975C34.3621 15 32.5059 15.7696 31.1374 17.1395C29.7688 18.5095 29 20.3675 29 22.3048V36.5866H54.1375C56.073 36.5866 57.9291 37.3563 59.2977 38.7262C60.6662 40.0961 61.435 41.9541 61.435 43.8915V54.1091L70.3246 63V51.9283H75.7025C77.6379 51.9283 79.4941 51.1587 80.8626 49.7888C82.2312 48.4189 83 46.5609 83 44.6235V22.2667C82.99 20.3386 82.2188 18.4927 80.8546 17.1314C79.4904 15.7702 77.6439 15.004 75.7177 15Z" fill="#EFF3FF" stroke="#20335B" stroke-width="2" stroke-linecap="round" stroke-linejoin="round"/>
<defs>
<linearGradient id="paint0_linear_1235_24881" x1="66.5" y1="27" x2="66.5" y2="82" gradientUnits="userSpaceOnUse">
<stop stop-color="#E9E9E9"/>
<stop offset="1" stop-color="#B8CAFF"/>
<stop offset="1" stop-color="#B8CAFF"/>
</linearGradient>
</defs>
</svg>
