<svg width="80" height="80" viewBox="0 0 80 80" fill="none" xmlns="http://www.w3.org/2000/svg">
<g clip-path="url(#clip0_842_19486)">
<path d="M8.27702 11.277H20.8439V5H2V23.831H8.27702V11.277ZM8.27702 56.1496H2V74.9936H20.8439V68.7165H8.27702V56.1496ZM43.5056 66.7465C41.6901 66.5341 40.0548 67.8345 39.8424 69.6436C39.8037 69.9076 39.411 72.0643 37.8917 74.3948C37.7629 74.5944 37.6084 74.8004 37.4603 75H45.0378C46.1323 72.5021 46.3705 70.6479 46.4026 70.4162C46.6151 68.6007 45.3146 66.959 43.5056 66.7465ZM37.8015 50.0336C37.8402 46.203 38.5676 42.5591 42.1729 38.1941C43.3446 36.7971 43.1644 34.7112 41.7609 33.5395C40.3638 32.3614 38.2779 32.5481 37.1062 33.9515C32.4387 39.456 31.1575 45.2051 31.1897 50.0336C31.2155 54.5981 32.1168 58.4609 32.0846 61.2163C32.0717 62.9868 31.8013 64.1327 31.106 65.1692C30.4043 66.1993 29.0395 67.3903 26.1231 68.562C24.4234 69.2316 23.5994 71.163 24.2754 72.8497C24.7904 74.1437 26.0329 74.9356 27.3463 74.9356C27.7519 74.9356 28.1703 74.8584 28.5695 74.6974C32.2456 73.236 34.9044 71.3432 36.5719 68.8839C38.2522 66.4311 38.7028 63.6821 38.6964 61.2163C38.6642 57.302 37.7758 53.6517 37.8015 50.0336ZM53.684 27.0758C51.8299 27.0758 49.9242 27.3269 47.9993 27.8677C46.2417 28.3634 45.2116 30.1853 45.7073 31.9429C46.2031 33.7004 48.025 34.7241 49.7826 34.2284C51.1346 33.8485 52.4221 33.6811 53.684 33.6811C58.6283 33.6554 63.5083 36.4301 68.4012 40.4925C72.0837 43.5312 75.6439 47.1815 79.2556 50.4198V41.3938C77.1504 39.4109 74.9422 37.3443 72.6116 35.4065C67.3003 31.0158 61.1456 27.1015 53.684 27.0758ZM79.262 26.0715V5H60.4181V11.277H72.985V21.449C67.1071 17.9081 60.3022 15.7836 53.2848 15.7707C46.8147 15.7643 40.1643 17.6248 34.2091 21.8353C23.0715 29.6059 19.537 40.6277 19.6271 51.3727C19.6271 54.6753 19.9297 57.9909 20.3933 61.2743C20.6508 63.0769 22.3247 64.3387 24.1273 64.0812C25.9364 63.8237 27.1918 62.1498 26.9342 60.3407C26.4965 57.2827 26.2325 54.2762 26.2325 51.3727C26.3162 41.8252 28.8399 33.797 38.014 27.2367C42.8425 23.8375 48.0379 22.3889 53.2784 22.3825C61.049 22.3696 68.8969 25.6916 74.7361 30.8999C76.1976 32.194 77.7169 33.4687 79.2556 34.737L79.262 26.0715ZM60.6241 54.2891C59.5039 52.8534 57.4244 52.5959 55.9888 53.7161C54.5467 54.8363 54.2956 56.9158 55.4158 58.3514C56.9609 60.3279 61.2808 65.4847 66.4312 70.3196C68.2016 71.9741 70.0622 73.5708 71.9678 75H79.262V71.9484C78.8951 71.7424 78.5281 71.5235 78.1483 71.2788C71.2017 66.901 62.5813 56.8385 60.6241 54.2891ZM67.9248 46.4219C64.7959 43.5248 62.4976 41.323 60.0254 40.1384C57.9652 39.2113 55.9502 38.7349 54.0123 38.7349C50.3684 38.6899 47.1945 40.5891 45.379 43.2158C43.5249 45.8425 42.7201 49.0614 42.7137 52.3899C42.7137 54.1474 42.9519 55.9372 43.4219 57.7076C44.8189 62.7035 48.7525 68.9741 54.2377 75.0064H63.5663C63.2701 74.736 62.974 74.4721 62.6843 74.1953C55.8729 67.8539 50.7998 59.9352 49.8148 55.9887C49.4929 54.7783 49.3319 53.5487 49.3319 52.3834C49.3255 50.1623 49.9242 48.2116 50.774 47.0463C51.6625 45.8811 52.4865 45.3789 54.0188 45.3339C54.8493 45.3339 55.9502 45.5399 57.3279 46.1643C57.8494 46.3189 60.534 48.4627 63.3924 51.2246C66.341 54.0122 69.8562 57.5016 73.4228 60.83C75.4186 62.6842 77.453 64.3001 79.262 65.7422V57.199C78.8114 56.8063 78.3607 56.4072 77.9294 55.9951C74.4593 52.7633 70.9699 49.2932 67.9248 46.4219Z" fill="#1C2674"/>
</g>
<defs>
<clipPath id="clip0_842_19486">
<rect width="77.262" height="70" fill="white" transform="translate(2 5)"/>
</clipPath>
</defs>
</svg>
