<svg width="120" height="120" viewBox="0 0 120 120" fill="none" xmlns="http://www.w3.org/2000/svg">
<g clip-path="url(#clip0_71_2350)">
<path d="M80.885 93.185H38.261C37.229 93.185 36.4033 92.3594 36.4033 91.3273C36.4033 90.2953 37.229 89.4696 38.261 89.4696H80.885C81.9171 89.4696 82.7427 90.2953 82.7427 91.3273C82.7427 92.3594 81.9171 93.185 80.885 93.185Z" fill="white"/>
<path d="M70.5642 38.0746H48.5813C41.1505 38.0746 35.1646 44.0606 35.1646 51.4914V57.3741H83.9809V51.4914C83.9809 44.0606 77.995 38.0746 70.5642 38.0746Z" fill="white" fill-opacity="0.3"/>
<path d="M44.9692 84.5176V106.913C44.9692 110.319 47.7558 113.106 51.1616 113.106C54.5674 113.106 57.3539 110.319 57.3539 106.913V84.5176H44.9692Z" fill="white" fill-opacity="0.3"/>
<path d="M61.7915 84.5176V106.913C61.7915 110.319 64.5781 113.106 67.9838 113.106C71.3896 113.106 74.1762 110.319 74.1762 106.913V84.5176H61.7915Z" fill="white" fill-opacity="0.3"/>
<path d="M111.743 59.4382H7.50537V66.869H111.743V59.4382Z" fill="white" fill-opacity="0.3"/>
<path d="M111.743 84.7239H7.50564C6.47358 84.7239 5.64795 83.8982 5.64795 82.8662V59.4385C5.64795 58.4064 6.47358 57.5807 7.50564 57.5807C8.5377 57.5807 9.36336 58.4064 9.36336 59.4385V81.0085H109.989V59.4385C109.989 58.4064 110.815 57.5807 111.847 57.5807C112.879 57.5807 113.704 58.4064 113.704 59.4385V82.8662C113.498 83.8982 112.776 84.7239 111.743 84.7239Z" fill="white"/>
<path d="M118.142 60.5735H1.10675C0.0746884 60.5735 -0.750977 59.7479 -0.750977 58.7158C-0.750977 57.6837 0.0746884 56.8581 1.10675 56.8581H118.142C119.174 56.8581 120 57.6837 120 58.7158C119.897 59.7479 119.071 60.5735 118.142 60.5735Z" fill="white"/>
<path d="M13.2844 120.33C12.2524 120.33 11.4268 119.504 11.4268 118.472V83.8983C11.4268 82.8663 12.2524 82.0406 13.2844 82.0406C14.3165 82.0406 15.1422 82.8663 15.1422 83.8983V118.472C15.1422 119.504 14.3165 120.33 13.2844 120.33Z" fill="white"/>
<path d="M105.86 120.33C104.828 120.33 104.002 119.504 104.002 118.472V83.8983C104.002 82.8663 104.828 82.0406 105.86 82.0406C106.892 82.0406 107.718 82.8663 107.718 83.8983V118.472C107.718 119.504 106.892 120.33 105.86 120.33Z" fill="white"/>
<path d="M105.861 60.1611C104.828 60.1611 104.003 59.3354 104.003 58.3034V21.0461C104.003 13.8217 98.1201 7.93898 90.8957 7.93898C87.6963 7.93898 84.4969 9.17745 82.1232 11.3448C81.4008 11.964 80.2655 11.964 79.5431 11.2416C78.9238 10.5191 78.9239 9.38386 79.6463 8.66142C82.7425 5.87487 86.6643 4.32678 90.7925 4.32678C99.9778 4.32678 107.512 11.8608 107.512 21.0461V58.4066C107.718 59.4387 106.893 60.1611 105.861 60.1611Z" fill="white"/>
<path d="M80.8849 25.9998C80.3688 25.9998 79.956 25.7934 79.6464 25.4837L66.1264 11.9638C65.8168 11.6542 65.6104 11.1381 65.6104 10.7253C65.6104 10.2093 65.8168 9.79647 66.1264 9.48685C68.2937 7.31953 71.1835 6.18427 74.1765 6.18427C77.1694 6.18427 80.0592 7.31953 82.2265 9.48685C86.6644 13.9247 86.6644 21.1491 82.2265 25.5869C81.8137 25.8966 81.4009 25.9998 80.8849 25.9998ZM70.0482 10.8285L80.7816 21.5619C82.6393 18.569 82.2265 14.5439 79.6464 11.9638C78.2015 10.5189 76.2406 9.69326 74.1765 9.69326C72.6284 9.69326 71.2867 10.1061 70.0482 10.8285Z" fill="white"/>
<path d="M59.6245 35.5974C64.9254 35.5974 69.2226 31.3002 69.2226 25.9993C69.2226 20.6984 64.9254 16.4011 59.6245 16.4011C54.3236 16.4011 50.0264 20.6984 50.0264 25.9993C50.0264 31.3002 54.3236 35.5974 59.6245 35.5974Z" fill="white" fill-opacity="0.3"/>
<path d="M44.6594 59.851C43.6274 59.851 42.8018 59.0254 42.8018 57.9933V51.4914C42.8018 50.4593 43.6274 49.6337 44.6594 49.6337C45.6915 49.6337 46.5171 50.4593 46.5171 51.4914V57.9933C46.4139 59.0254 45.5883 59.851 44.6594 59.851Z" fill="white"/>
<path d="M74.5891 59.851C73.5571 59.851 72.7314 59.0254 72.7314 57.9933V51.4914C72.7314 50.4593 73.5571 49.6337 74.5891 49.6337C75.6212 49.6337 76.4468 50.4593 76.4468 51.4914V57.9933C76.3436 59.0254 75.518 59.851 74.5891 59.851Z" fill="white"/>
<path d="M37.0223 120.328C35.9902 120.328 35.1646 119.502 35.1646 118.47V85.1348C35.1646 84.1027 35.9902 83.2771 37.0223 83.2771C38.0544 83.2771 38.88 84.1027 38.88 85.1348V118.47C38.88 119.502 38.0544 120.328 37.0223 120.328Z" fill="white"/>
<path d="M82.1233 120.328C81.0913 120.328 80.2656 119.502 80.2656 118.47V85.1348C80.2656 84.1027 81.0913 83.2771 82.1233 83.2771C83.1554 83.2771 83.9811 84.1027 83.9811 85.1348V118.47C83.9811 119.502 83.1554 120.328 82.1233 120.328Z" fill="white"/>
</g>
<defs>
<clipPath id="clip0_71_2350">
<rect width="120" height="120" fill="white"/>
</clipPath>
</defs>
</svg>
