<svg width="12" height="14" viewBox="0 0 12 14" fill="none" xmlns="http://www.w3.org/2000/svg">
<mask id="path-1-inside-1" fill="white">
<path d="M0.013797 8.40666C0.10377 9.73109 0.630428 10.9883 1.5113 11.9814C2.39218 12.9745 3.57754 13.6475 4.88176 13.8949C6.18599 14.1423 7.53544 13.9502 8.71881 13.3486C9.90219 12.7471 10.8527 11.7701 11.4214 10.5707C11.9902 9.37118 12.1451 8.01695 11.8619 6.72003C11.5787 5.4231 10.8734 4.25671 9.85643 3.40348C8.83946 2.55026 7.56824 2.05838 6.24184 2.00488C4.91543 1.95137 3.60873 2.33925 2.52634 3.10779L3.25039 4.12751C4.10716 3.51917 5.1415 3.21214 6.19143 3.25449C7.24136 3.29684 8.24761 3.68619 9.0526 4.36157C9.85759 5.03695 10.4159 5.96022 10.64 6.98682C10.8642 8.01342 10.7416 9.08537 10.2914 10.0348C9.84118 10.9843 9.08882 11.7576 8.15211 12.2338C7.21539 12.7099 6.14722 12.862 5.11484 12.6662C4.08247 12.4703 3.14419 11.9376 2.44692 11.1515C1.74965 10.3654 1.33277 9.37027 1.26155 8.3219L0.013797 8.40666Z"/>
</mask>
<path d="M0.013797 8.40666C0.10377 9.73109 0.630428 10.9883 1.5113 11.9814C2.39218 12.9745 3.57754 13.6475 4.88176 13.8949C6.18599 14.1423 7.53544 13.9502 8.71881 13.3486C9.90219 12.7471 10.8527 11.7701 11.4214 10.5707C11.9902 9.37118 12.1451 8.01695 11.8619 6.72003C11.5787 5.4231 10.8734 4.25671 9.85643 3.40348C8.83946 2.55026 7.56824 2.05838 6.24184 2.00488C4.91543 1.95137 3.60873 2.33925 2.52634 3.10779L3.25039 4.12751C4.10716 3.51917 5.1415 3.21214 6.19143 3.25449C7.24136 3.29684 8.24761 3.68619 9.0526 4.36157C9.85759 5.03695 10.4159 5.96022 10.64 6.98682C10.8642 8.01342 10.7416 9.08537 10.2914 10.0348C9.84118 10.9843 9.08882 11.7576 8.15211 12.2338C7.21539 12.7099 6.14722 12.862 5.11484 12.6662C4.08247 12.4703 3.14419 11.9376 2.44692 11.1515C1.74965 10.3654 1.33277 9.37027 1.26155 8.3219L0.013797 8.40666Z" stroke="white" stroke-width="2" mask="url(#path-1-inside-1)"/>
<path d="M3.33789 0.330566L2.34887 4.02166L6.03996 5.01068" stroke="white"/>
</svg>
