<svg width="38" height="38" viewBox="0 0 38 38" fill="none" xmlns="http://www.w3.org/2000/svg">
<circle cx="19" cy="19" r="19" fill="#2D9CDB"/>
<path d="M30 11C30 10.4477 29.5523 10 29 10H16C15.4477 10 15 10.4477 15 11V20C15 20.5523 15.4477 21 16 21H29C29.5523 21 30 20.5523 30 20V11Z" fill="white"/>
<path d="M30 23C30 22.4477 29.5523 22 29 22H13C12.4477 22 12 22.4477 12 23V24C12 24.5523 12.4477 25 13 25H29C29.5523 25 30 24.5523 30 24V23Z" fill="white"/>
<path d="M8 17C8 14.7909 9.79086 13 12 13H13C13.5523 13 14 13.4477 14 14V24C14 24.5523 13.5523 25 13 25H9C8.44772 25 8 24.5523 8 24V17Z" fill="white"/>
<path d="M8.95652 16.8696C8.95652 15.2847 10.2413 14 11.8261 14C12.3544 14 12.7826 14.4282 12.7826 14.9565V17C12.7826 17.5523 12.3349 18 11.7826 18H9.95652C9.40424 18 8.95652 17.5523 8.95652 17V16.8696Z" fill="#2D9CDB"/>
<circle r="2.5" transform="matrix(-1 0 0 1 24.5 26.5)" fill="white" stroke="#2D9CDB"/>
<circle r="2.5" transform="matrix(-1 0 0 1 13.5 26.5)" fill="white" stroke="#2D9CDB"/>
<path d="M20 16.4211C20 17.8454 21.1193 19 22.5 19C23.8807 19 25 17.8454 25 16.4211C25 14.9967 22.5 12 22.5 12C22.5 12 20 14.9967 20 16.4211Z" fill="#2D9CDB"/>
</svg>
