<svg width="38" height="38" viewBox="0 0 38 38" fill="none" xmlns="http://www.w3.org/2000/svg">
<circle cx="19" cy="19" r="19" fill="#4C4D55"/>
<circle cx="19" cy="19" r="19" fill="#4C4D55"/>
<path d="M22.2788 20.6115C22.2788 22.456 20.8029 23.9513 18.9824 23.9513C17.1619 23.9513 15.6861 22.456 15.6861 20.6115C15.6861 18.7671 18.9824 14.8863 18.9824 14.8863C18.9824 14.8863 22.2788 18.7671 22.2788 20.6115Z" fill="#96969A"/>
<path fill-rule="evenodd" clip-rule="evenodd" d="M24.471 10.9744C23.0192 10.0212 21.3367 9.47837 19.6017 9.40335C17.8666 9.32833 16.1436 9.72392 14.615 10.5482C13.0864 11.3725 11.8092 12.5949 10.9186 14.0858C10.028 15.5768 9.55713 17.2808 9.55593 19.0175L8.46124 19.0167C8.46139 18.8059 8.46774 18.5956 8.48024 18.3859C8.58243 16.6718 9.09503 15.0039 9.97877 13.5245C10.9706 11.864 12.393 10.5027 14.0954 9.58471C15.7977 8.66669 17.7167 8.22613 19.649 8.30968C21.3707 8.38412 23.0459 8.87219 24.5342 9.72858C24.7163 9.83334 24.8956 9.94361 25.0718 10.0593L24.471 10.9744Z" fill="#96969A"/>
<path fill-rule="evenodd" clip-rule="evenodd" d="M13.8243 27.0235C15.267 27.9904 16.9442 28.5492 18.6785 28.6406C20.4128 28.7321 22.1395 28.3528 23.6759 27.543C25.2122 26.7332 26.5009 25.523 27.4056 24.0406C28.3103 22.5582 28.7972 20.8587 28.8149 19.1221L29.9095 19.1332C29.9074 19.344 29.899 19.5543 29.8845 19.7638C29.7661 21.4769 29.2378 23.1398 28.34 24.6109C27.3325 26.2618 25.8973 27.6096 24.1863 28.5114C22.4753 29.4133 20.5523 29.8356 18.6209 29.7338C16.9 29.643 15.2294 29.1391 13.7493 28.2687C13.5682 28.1622 13.39 28.0502 13.2149 27.9329L13.8243 27.0235Z" fill="#96969A"/>
<path d="M10.8922 19.271L9.0253 22.1004L7.15836 19.271L10.8922 19.271Z" fill="#96969A" stroke="#96969A"/>
<path d="M29.2047 16.5345L32.0006 20.7718L26.4088 20.7718L29.2047 16.5345Z" fill="#96969A"/>
</svg>
