<svg width="38" height="38" viewBox="0 0 38 38" fill="none" xmlns="http://www.w3.org/2000/svg">
<circle cx="19" cy="19" r="19" fill="#5ACCFF"/>
<circle cx="19" cy="19" r="19" fill="#5ACCFF"/>
<rect width="26" height="2" transform="matrix(1 0 0 -1 6 25)" fill="white"/>
<rect width="6" height="4" transform="matrix(1 0 0 -1 16 15)" fill="white"/>
<rect width="6" height="4" transform="matrix(1 0 0 -1 8 15)" fill="white"/>
<rect width="6" height="4" transform="matrix(1 0 0 -1 24 15)" fill="white"/>
<rect x="10" y="14" width="2" height="10" fill="white"/>
<rect x="6" y="25" width="2" height="2" fill="white"/>
<rect x="18" y="14" width="2" height="10" fill="white"/>
<rect x="14" y="25" width="2" height="2" fill="white"/>
<rect x="26" y="14" width="2" height="10" fill="white"/>
<rect x="22" y="25" width="2" height="2" fill="white"/>
<rect x="30" y="25" width="2" height="2" fill="white"/>
</svg>
