<svg width="38" height="38" viewBox="0 0 38 38" fill="none" xmlns="http://www.w3.org/2000/svg">
<circle cx="19" cy="19" r="19" fill="#D19E82"/>
<circle cx="28" cy="25.6667" r="2.5" transform="rotate(90 28 25.6667)" fill="white" stroke="white"/>
<path d="M16.5 25.6667C16.5 24.286 17.6193 23.1667 19 23.1667C20.3807 23.1667 21.5 24.286 21.5 25.6667C21.5 27.0475 20.3807 28.1667 19 28.1667C17.6193 28.1667 16.5 27.0475 16.5 25.6667Z" fill="white" stroke="white"/>
<path d="M16.5 10C16.5 8.61929 17.6193 7.5 19 7.5C20.3807 7.5 21.5 8.61929 21.5 10C21.5 11.3807 20.3807 12.5 19 12.5C17.6193 12.5 16.5 11.3807 16.5 10Z" fill="white" stroke="white"/>
<circle cx="10" cy="25.6667" r="2.5" transform="rotate(90 10 25.6667)" fill="white" stroke="white"/>
<rect x="9" y="17.6667" width="2" height="6.28571" fill="white"/>
<rect x="18" y="11.9524" width="2" height="11.5238" fill="white"/>
<rect x="9" y="18.6667" width="2" height="19" transform="rotate(-90 9 18.6667)" fill="white"/>
<rect x="27" y="16.6667" width="2" height="7" fill="white"/>
</svg>
