<svg width="10" height="6" viewBox="0 0 10 6" fill="none" xmlns="http://www.w3.org/2000/svg">
<path fill-rule="evenodd" clip-rule="evenodd" d="M9.70643 5.70679C9.5189 5.89426 9.26459 5.99957 8.99943 5.99957C8.73427 5.99957 8.47996 5.89426 8.29243 5.70679L4.99943 2.41379L1.70643 5.70679C1.51783 5.88894 1.26523 5.98974 1.00303 5.98746C0.740833 5.98518 0.49002 5.88001 0.304612 5.6946C0.119204 5.5092 0.014035 5.25838 0.0117566 4.99619C0.00947813 4.73399 0.110273 4.48139 0.292431 4.29279L4.29243 0.292787C4.47996 0.105316 4.73427 0 4.99943 0C5.26459 0 5.5189 0.105316 5.70643 0.292787L9.70643 4.29279C9.8939 4.48031 9.99922 4.73462 9.99922 4.99979C9.99922 5.26495 9.8939 5.51926 9.70643 5.70679Z" fill="black"/>
</svg>
