<svg width="38" height="38" viewBox="0 0 38 38" fill="none" xmlns="http://www.w3.org/2000/svg">
<circle cx="19" cy="19" r="19" fill="#EB5757"/>
<rect x="14" y="23" width="10" height="8" rx="1" fill="white"/>
<rect x="14" y="13" width="10" height="8" rx="1" fill="white"/>
<rect x="12" y="16" width="14" height="10" rx="1" fill="white"/>
<rect x="9" y="23" width="5" height="2" rx="1" transform="rotate(-90 9 23)" fill="white"/>
<rect width="5" height="2" rx="1" transform="matrix(6.88454e-08 -1 -1 -2.77533e-08 29 23)" fill="white"/>
<rect x="14" y="10" width="10" height="2" rx="1" fill="white"/>
<rect x="18" y="7" width="2" height="3" rx="1" fill="white"/>
<rect x="13" y="28" width="12" height="3" rx="1" fill="white"/>
<path d="M23 11.4767C23 12.8446 21.2091 11.0983 19 11.0983C16.7909 11.0983 15 12.8446 15 11.4767C15 10.1089 16.7909 9 19 9C21.2091 9 23 10.1089 23 11.4767Z" fill="white"/>
<path d="M22 22.0526C22 23.6804 20.6569 25 19 25C17.3431 25 16 23.6804 16 22.0526C16 20.4248 19 17 19 17C19 17 22 20.4248 22 22.0526Z" fill="#EB5757"/>
</svg>
