<svg width="35" height="35" viewBox="0 0 35 35" fill="none" xmlns="http://www.w3.org/2000/svg">
<g filter="url(#filter0_d)">
<circle r="13.5" transform="matrix(-1 0 0 1 17.5 15.5)" fill="#2DDBDB"/>
<rect x="14.6577" y="6.26315" width="1.42105" height="10.6579" rx="0.710526" fill="white"/>
<rect x="18.9209" y="6.26312" width="1.42105" height="10.6579" rx="0.710526" fill="white"/>
<rect x="14.6621" y="10.5565" width="1.42105" height="5.44498" rx="0.710526" transform="rotate(-90.1625 14.6621 10.5565)" fill="white"/>
<rect x="14.6621" y="14.0963" width="1.42105" height="5.44498" rx="0.710526" transform="rotate(-90.1625 14.6621 14.0963)" fill="white"/>
<path d="M26.0264 18.0579C26.0264 18.3565 25.9656 18.6521 25.8474 18.928C25.7292 19.2038 25.5559 19.4545 25.3375 19.6656C25.1191 19.8767 24.8598 20.0442 24.5745 20.1585C24.2891 20.2727 23.9832 20.3316 23.6744 20.3316C23.3655 20.3316 23.0596 20.2727 22.7742 20.1585C22.4889 20.0442 22.2296 19.8767 22.0112 19.6656C21.7928 19.4545 21.6195 19.2038 21.5013 18.928C21.3831 18.6521 21.3223 18.3565 21.3223 18.0579L22.0987 18.0579C22.0987 18.2579 22.1395 18.4559 22.2187 18.6407C22.2979 18.8255 22.4139 18.9934 22.5602 19.1349C22.7065 19.2763 22.8802 19.3885 23.0714 19.465C23.2626 19.5416 23.4674 19.581 23.6744 19.581C23.8813 19.581 24.0862 19.5416 24.2773 19.465C24.4685 19.3885 24.6422 19.2763 24.7885 19.1349C24.9348 18.9934 25.0508 18.8255 25.13 18.6407C25.2092 18.4559 25.25 18.2579 25.25 18.0579H26.0264Z" fill="white"/>
<path d="M21.9097 18.0579C21.9097 18.3565 21.8489 18.6521 21.7307 18.928C21.6125 19.2038 21.4392 19.4545 21.2208 19.6656C21.0024 19.8767 20.7431 20.0442 20.4578 20.1585C20.1724 20.2727 19.8665 20.3316 19.5577 20.3316C19.2488 20.3316 18.9429 20.2727 18.6575 20.1585C18.3722 20.0442 18.1129 19.8767 17.8945 19.6656C17.6761 19.4545 17.5028 19.2038 17.3846 18.928C17.2664 18.6521 17.2056 18.3565 17.2056 18.0579L17.982 18.0579C17.982 18.2579 18.0228 18.4559 18.102 18.6407C18.1812 18.8255 18.2972 18.9934 18.4435 19.1349C18.5898 19.2763 18.7635 19.3885 18.9547 19.465C19.1459 19.5416 19.3507 19.581 19.5577 19.581C19.7646 19.581 19.9695 19.5416 20.1606 19.465C20.3518 19.3885 20.5255 19.2763 20.6718 19.1349C20.8181 18.9934 20.9341 18.8255 21.0133 18.6407C21.0925 18.4559 21.1333 18.2579 21.1333 18.0579H21.9097Z" fill="white"/>
<path d="M17.7935 18.0579C17.7935 18.3565 17.7327 18.6521 17.6145 18.928C17.4963 19.2038 17.323 19.4545 17.1046 19.6656C16.8862 19.8767 16.6269 20.0442 16.3415 20.1585C16.0562 20.2727 15.7503 20.3316 15.4414 20.3316C15.1326 20.3316 14.8267 20.2727 14.5413 20.1585C14.256 20.0442 13.9967 19.8767 13.7783 19.6656C13.5599 19.4545 13.3866 19.2038 13.2684 18.928C13.1502 18.6521 13.0894 18.3565 13.0894 18.0579L13.8658 18.0579C13.8658 18.2579 13.9066 18.4559 13.9858 18.6407C14.0649 18.8255 14.181 18.9934 14.3273 19.1349C14.4736 19.2763 14.6473 19.3885 14.8385 19.465C15.0296 19.5416 15.2345 19.581 15.4414 19.581C15.6484 19.581 15.8532 19.5416 16.0444 19.465C16.2356 19.3885 16.4093 19.2763 16.5556 19.1349C16.7019 18.9934 16.8179 18.8255 16.8971 18.6407C16.9763 18.4559 17.0171 18.2579 17.0171 18.0579H17.7935Z" fill="white"/>
<path d="M13.6773 18.0579C13.6773 18.3565 13.6165 18.6521 13.4983 18.928C13.3801 19.2038 13.2068 19.4545 12.9884 19.6656C12.77 19.8767 12.5107 20.0442 12.2253 20.1585C11.94 20.2727 11.6341 20.3316 11.3252 20.3316C11.0164 20.3316 10.7105 20.2727 10.4251 20.1585C10.1398 20.0442 9.88047 19.8767 9.66205 19.6656C9.44364 19.4545 9.27039 19.2038 9.15219 18.928C9.03398 18.6521 8.97314 18.3565 8.97314 18.0579L9.74962 18.0579C9.74962 18.2579 9.79037 18.4559 9.86955 18.6407C9.94874 18.8255 10.0648 18.9934 10.2111 19.1349C10.3574 19.2763 10.5311 19.3885 10.7223 19.465C10.9134 19.5416 11.1183 19.581 11.3252 19.581C11.5321 19.581 11.737 19.5416 11.9282 19.465C12.1194 19.3885 12.293 19.2763 12.4394 19.1349C12.5857 18.9934 12.7017 18.8255 12.7809 18.6407C12.8601 18.4559 12.9008 18.2579 12.9008 18.0579H13.6773Z" fill="white"/>
<path d="M21.9097 18.0579C21.9097 18.3565 21.8489 18.6521 21.7307 18.928C21.6125 19.2038 21.4392 19.4545 21.2208 19.6656C21.0024 19.8767 20.7431 20.0442 20.4578 20.1585C20.1724 20.2727 19.8665 20.3316 19.5577 20.3316C19.2488 20.3316 18.9429 20.2727 18.6575 20.1585C18.3722 20.0442 18.1129 19.8767 17.8945 19.6656C17.6761 19.4545 17.5028 19.2038 17.3846 18.928C17.2664 18.6521 17.2056 18.3565 17.2056 18.0579L17.7903 18.0579C17.7903 18.2822 17.836 18.5044 17.9248 18.7117C18.0136 18.919 18.1438 19.1073 18.3079 19.2659C18.4721 19.4246 18.6669 19.5504 18.8813 19.6363C19.0957 19.7221 19.3256 19.7663 19.5577 19.7663C19.7897 19.7663 20.0196 19.7221 20.234 19.6363C20.4484 19.5504 20.6433 19.4246 20.8074 19.2659C20.9715 19.1073 21.1017 18.919 21.1905 18.7117C21.2793 18.5044 21.325 18.2822 21.325 18.0579H21.9097Z" fill="white"/>
<path d="M17.7935 18.0579C17.7935 18.3565 17.7327 18.6521 17.6145 18.928C17.4963 19.2038 17.323 19.4545 17.1046 19.6656C16.8862 19.8767 16.6269 20.0442 16.3415 20.1585C16.0562 20.2727 15.7503 20.3316 15.4414 20.3316C15.1326 20.3316 14.8267 20.2727 14.5413 20.1585C14.256 20.0442 13.9967 19.8767 13.7783 19.6656C13.5599 19.4545 13.3866 19.2038 13.2684 18.928C13.1502 18.6521 13.0894 18.3565 13.0894 18.0579L13.6741 18.0579C13.6741 18.2822 13.7198 18.5044 13.8086 18.7117C13.8974 18.919 14.0276 19.1073 14.1917 19.2659C14.3558 19.4246 14.5507 19.5504 14.7651 19.6363C14.9795 19.7221 15.2093 19.7663 15.4414 19.7663C15.6735 19.7663 15.9034 19.7221 16.1178 19.6363C16.3322 19.5504 16.527 19.4246 16.6912 19.2659C16.8553 19.1073 16.9855 18.919 17.0743 18.7117C17.1631 18.5044 17.2088 18.2822 17.2088 18.0579H17.7935Z" fill="white"/>
<path d="M13.6773 18.0579C13.6773 18.3565 13.6165 18.6521 13.4983 18.928C13.3801 19.2038 13.2068 19.4545 12.9884 19.6656C12.77 19.8767 12.5107 20.0442 12.2253 20.1585C11.94 20.2727 11.6341 20.3316 11.3252 20.3316C11.0164 20.3316 10.7105 20.2727 10.4251 20.1585C10.1398 20.0442 9.88047 19.8767 9.66205 19.6656C9.44364 19.4545 9.27039 19.2038 9.15219 18.928C9.03398 18.6521 8.97314 18.3565 8.97314 18.0579L9.55786 18.0579C9.55786 18.2822 9.60358 18.5044 9.6924 18.7117C9.78122 18.919 9.9114 19.1073 10.0755 19.2659C10.2396 19.4246 10.4345 19.5504 10.6489 19.6363C10.8633 19.7221 11.0931 19.7663 11.3252 19.7663C11.5573 19.7663 11.7871 19.7221 12.0016 19.6363C12.216 19.5504 12.4108 19.4246 12.5749 19.2659C12.7391 19.1073 12.8692 18.919 12.9581 18.7117C13.0469 18.5044 13.0926 18.2822 13.0926 18.0579H13.6773Z" fill="white"/>
<path d="M26.0264 21.4684C26.0264 21.767 25.9656 22.0626 25.8474 22.3385C25.7292 22.6144 25.5559 22.865 25.3375 23.0761C25.1191 23.2873 24.8598 23.4547 24.5745 23.569C24.2891 23.6833 23.9832 23.7421 23.6744 23.7421C23.3655 23.7421 23.0596 23.6833 22.7742 23.569C22.4889 23.4547 22.2296 23.2873 22.0112 23.0761C21.7928 22.865 21.6195 22.6144 21.5013 22.3385C21.3831 22.0626 21.3223 21.767 21.3223 21.4684L22.0987 21.4684C22.0987 21.6684 22.1395 21.8665 22.2187 22.0513C22.2979 22.236 22.4139 22.404 22.5602 22.5454C22.7065 22.6868 22.8802 22.799 23.0714 22.8756C23.2626 22.9521 23.4674 22.9915 23.6744 22.9915C23.8813 22.9915 24.0862 22.9521 24.2773 22.8756C24.4685 22.799 24.6422 22.6868 24.7885 22.5454C24.9348 22.404 25.0508 22.236 25.13 22.0513C25.2092 21.8665 25.25 21.6684 25.25 21.4684H26.0264Z" fill="white"/>
<path d="M21.9097 21.4684C21.9097 21.767 21.8489 22.0626 21.7307 22.3385C21.6125 22.6144 21.4392 22.865 21.2208 23.0761C21.0024 23.2873 20.7431 23.4547 20.4578 23.569C20.1724 23.6833 19.8665 23.7421 19.5577 23.7421C19.2488 23.7421 18.9429 23.6833 18.6575 23.569C18.3722 23.4547 18.1129 23.2873 17.8945 23.0761C17.6761 22.865 17.5028 22.6144 17.3846 22.3385C17.2664 22.0626 17.2056 21.767 17.2056 21.4684L17.982 21.4684C17.982 21.6684 18.0228 21.8665 18.102 22.0513C18.1812 22.236 18.2972 22.404 18.4435 22.5454C18.5898 22.6868 18.7635 22.799 18.9547 22.8756C19.1459 22.9521 19.3507 22.9915 19.5577 22.9915C19.7646 22.9915 19.9695 22.9521 20.1606 22.8756C20.3518 22.799 20.5255 22.6868 20.6718 22.5454C20.8181 22.404 20.9341 22.236 21.0133 22.0513C21.0925 21.8665 21.1333 21.6684 21.1333 21.4684H21.9097Z" fill="white"/>
<path d="M17.7935 21.4684C17.7935 21.767 17.7327 22.0626 17.6145 22.3385C17.4963 22.6144 17.323 22.865 17.1046 23.0761C16.8862 23.2873 16.6269 23.4547 16.3415 23.569C16.0562 23.6833 15.7503 23.7421 15.4414 23.7421C15.1326 23.7421 14.8267 23.6833 14.5413 23.569C14.256 23.4547 13.9967 23.2873 13.7783 23.0761C13.5599 22.865 13.3866 22.6144 13.2684 22.3385C13.1502 22.0626 13.0894 21.767 13.0894 21.4684L13.8658 21.4684C13.8658 21.6684 13.9066 21.8665 13.9858 22.0513C14.0649 22.236 14.181 22.404 14.3273 22.5454C14.4736 22.6868 14.6473 22.799 14.8385 22.8756C15.0296 22.9521 15.2345 22.9915 15.4414 22.9915C15.6484 22.9915 15.8532 22.9521 16.0444 22.8756C16.2356 22.799 16.4093 22.6868 16.5556 22.5454C16.7019 22.404 16.8179 22.236 16.8971 22.0513C16.9763 21.8665 17.0171 21.6684 17.0171 21.4684H17.7935Z" fill="white"/>
<path d="M13.6773 21.4684C13.6773 21.767 13.6165 22.0626 13.4983 22.3385C13.3801 22.6144 13.2068 22.865 12.9884 23.0761C12.77 23.2873 12.5107 23.4547 12.2253 23.569C11.94 23.6833 11.6341 23.7421 11.3252 23.7421C11.0164 23.7421 10.7105 23.6833 10.4251 23.569C10.1398 23.4547 9.88047 23.2873 9.66205 23.0761C9.44364 22.865 9.27039 22.6144 9.15219 22.3385C9.03398 22.0626 8.97314 21.767 8.97314 21.4684L9.74962 21.4684C9.74962 21.6684 9.79037 21.8665 9.86955 22.0513C9.94874 22.236 10.0648 22.404 10.2111 22.5454C10.3574 22.6868 10.5311 22.799 10.7223 22.8756C10.9134 22.9521 11.1183 22.9915 11.3252 22.9915C11.5321 22.9915 11.737 22.9521 11.9282 22.8756C12.1194 22.799 12.293 22.6868 12.4394 22.5454C12.5857 22.404 12.7017 22.236 12.7809 22.0513C12.8601 21.8665 12.9008 21.6684 12.9008 21.4684H13.6773Z" fill="white"/>
<path d="M21.9097 21.4684C21.9097 21.767 21.8489 22.0626 21.7307 22.3385C21.6125 22.6144 21.4392 22.865 21.2208 23.0761C21.0024 23.2873 20.7431 23.4547 20.4578 23.569C20.1724 23.6833 19.8665 23.7421 19.5577 23.7421C19.2488 23.7421 18.9429 23.6833 18.6575 23.569C18.3722 23.4547 18.1129 23.2873 17.8945 23.0761C17.6761 22.865 17.5028 22.6144 17.3846 22.3385C17.2664 22.0626 17.2056 21.767 17.2056 21.4684L17.7903 21.4684C17.7903 21.6928 17.836 21.9149 17.9248 22.1222C18.0136 22.3295 18.1438 22.5178 18.3079 22.6765C18.4721 22.8351 18.6669 22.9609 18.8813 23.0468C19.0957 23.1327 19.3256 23.1769 19.5577 23.1769C19.7897 23.1769 20.0196 23.1327 20.234 23.0468C20.4484 22.9609 20.6433 22.8351 20.8074 22.6765C20.9715 22.5178 21.1017 22.3295 21.1905 22.1222C21.2793 21.9149 21.325 21.6928 21.325 21.4684H21.9097Z" fill="white"/>
<path d="M17.7935 21.4684C17.7935 21.767 17.7327 22.0626 17.6145 22.3385C17.4963 22.6144 17.323 22.865 17.1046 23.0761C16.8862 23.2873 16.6269 23.4547 16.3415 23.569C16.0562 23.6833 15.7503 23.7421 15.4414 23.7421C15.1326 23.7421 14.8267 23.6833 14.5413 23.569C14.256 23.4547 13.9967 23.2873 13.7783 23.0761C13.5599 22.865 13.3866 22.6144 13.2684 22.3385C13.1502 22.0626 13.0894 21.767 13.0894 21.4684L13.6741 21.4684C13.6741 21.6928 13.7198 21.9149 13.8086 22.1222C13.8974 22.3295 14.0276 22.5178 14.1917 22.6765C14.3558 22.8351 14.5507 22.9609 14.7651 23.0468C14.9795 23.1327 15.2093 23.1769 15.4414 23.1769C15.6735 23.1769 15.9034 23.1327 16.1178 23.0468C16.3322 22.9609 16.527 22.8351 16.6912 22.6765C16.8553 22.5178 16.9855 22.3295 17.0743 22.1222C17.1631 21.9149 17.2088 21.6928 17.2088 21.4684H17.7935Z" fill="white"/>
<path d="M13.6773 21.4684C13.6773 21.767 13.6165 22.0626 13.4983 22.3385C13.3801 22.6144 13.2068 22.865 12.9884 23.0761C12.77 23.2873 12.5107 23.4547 12.2253 23.569C11.94 23.6833 11.6341 23.7421 11.3252 23.7421C11.0164 23.7421 10.7105 23.6833 10.4251 23.569C10.1398 23.4547 9.88047 23.2873 9.66205 23.0761C9.44364 22.865 9.27039 22.6144 9.15219 22.3385C9.03398 22.0626 8.97314 21.767 8.97314 21.4684L9.55786 21.4684C9.55786 21.6928 9.60358 21.9149 9.6924 22.1222C9.78122 22.3295 9.9114 22.5178 10.0755 22.6765C10.2396 22.8351 10.4345 22.9609 10.6489 23.0468C10.8633 23.1327 11.0931 23.1769 11.3252 23.1769C11.5573 23.1769 11.7871 23.1327 12.0016 23.0468C12.216 22.9609 12.4108 22.8351 12.5749 22.6765C12.7391 22.5178 12.8692 22.3295 12.9581 22.1222C13.0469 21.9149 13.0926 21.6928 13.0926 21.4684H13.6773Z" fill="white"/>
</g>
<defs>
<filter id="filter0_d" x="0" y="0" width="35" height="35" filterUnits="userSpaceOnUse" color-interpolation-filters="sRGB">
<feFlood flood-opacity="0" result="BackgroundImageFix"/>
<feColorMatrix in="SourceAlpha" type="matrix" values="0 0 0 0 0 0 0 0 0 0 0 0 0 0 0 0 0 0 127 0"/>
<feOffset dy="2"/>
<feGaussianBlur stdDeviation="2"/>
<feColorMatrix type="matrix" values="0 0 0 0 0 0 0 0 0 0 0 0 0 0 0 0 0 0 0.3 0"/>
<feBlend mode="normal" in2="BackgroundImageFix" result="effect1_dropShadow"/>
<feBlend mode="normal" in="SourceGraphic" in2="effect1_dropShadow" result="shape"/>
</filter>
</defs>
</svg>
