<svg width="35" height="35" viewBox="0 0 35 35" fill="none" xmlns="http://www.w3.org/2000/svg">
<g filter="url(#filter0_d)">
<circle cx="17.5" cy="15.5" r="13.5" fill="#2F80ED"/>
</g>
<path d="M24.0421 9.24737C24.0421 9.54596 23.9812 9.84162 23.863 10.1175C23.7448 10.3933 23.5716 10.644 23.3532 10.8551C23.1347 11.0662 22.8755 11.2337 22.5901 11.348C22.3047 11.4622 21.9989 11.5211 21.69 11.5211C21.3811 11.5211 21.0752 11.4622 20.7899 11.348C20.5045 11.2337 20.2452 11.0662 20.0268 10.8551C19.8084 10.644 19.6351 10.3933 19.5169 10.1175C19.3987 9.84162 19.3379 9.54596 19.3379 9.24737L20.1144 9.24737C20.1144 9.44739 20.1551 9.64544 20.2343 9.83024C20.3135 10.015 20.4295 10.1829 20.5759 10.3244C20.7222 10.4658 20.8959 10.578 21.087 10.6545C21.2782 10.7311 21.4831 10.7705 21.69 10.7705C21.8969 10.7705 22.1018 10.7311 22.2929 10.6545C22.4841 10.578 22.6578 10.4658 22.8041 10.3244C22.9504 10.1829 23.0665 10.015 23.1457 9.83024C23.2248 9.64545 23.2656 9.44739 23.2656 9.24737H24.0421Z" fill="white"/>
<path d="M19.9259 9.24737C19.9259 9.54596 19.865 9.84162 19.7468 10.1175C19.6286 10.3933 19.4554 10.644 19.2369 10.8551C19.0185 11.0662 18.7592 11.2337 18.4739 11.348C18.1885 11.4622 17.8826 11.5211 17.5738 11.5211C17.2649 11.5211 16.959 11.4622 16.6737 11.348C16.3883 11.2337 16.129 11.0662 15.9106 10.8551C15.6922 10.644 15.5189 10.3933 15.4007 10.1175C15.2825 9.84162 15.2217 9.54596 15.2217 9.24737L15.9982 9.24737C15.9982 9.44739 16.0389 9.64544 16.1181 9.83024C16.1973 10.015 16.3133 10.1829 16.4596 10.3244C16.6059 10.4658 16.7796 10.578 16.9708 10.6545C17.162 10.7311 17.3669 10.7705 17.5738 10.7705C17.7807 10.7705 17.9856 10.7311 18.1767 10.6545C18.3679 10.578 18.5416 10.4658 18.6879 10.3244C18.8342 10.1829 18.9503 10.015 19.0294 9.83024C19.1086 9.64545 19.1494 9.44739 19.1494 9.24737H19.9259Z" fill="white"/>
<path d="M15.8096 9.24737C15.8096 9.54596 15.7488 9.84162 15.6306 10.1175C15.5124 10.3933 15.3391 10.644 15.1207 10.8551C14.9023 11.0662 14.643 11.2337 14.3577 11.348C14.0723 11.4622 13.7664 11.5211 13.4576 11.5211C13.1487 11.5211 12.8428 11.4622 12.5575 11.348C12.2721 11.2337 12.0128 11.0662 11.7944 10.8551C11.576 10.644 11.4027 10.3933 11.2845 10.1175C11.1663 9.84162 11.1055 9.54596 11.1055 9.24737L11.8819 9.24737C11.8819 9.44739 11.9227 9.64544 12.0019 9.83024C12.0811 10.015 12.1971 10.1829 12.3434 10.3244C12.4897 10.4658 12.6634 10.578 12.8546 10.6545C13.0458 10.7311 13.2506 10.7705 13.4576 10.7705C13.6645 10.7705 13.8694 10.7311 14.0605 10.6545C14.2517 10.578 14.4254 10.4658 14.5717 10.3244C14.718 10.1829 14.8341 10.015 14.9132 9.83024C14.9924 9.64545 15.0332 9.44739 15.0332 9.24737H15.8096Z" fill="white"/>
<path d="M24.0421 9.24737C24.0421 9.54596 23.9812 9.84162 23.863 10.1175C23.7448 10.3933 23.5716 10.644 23.3532 10.8551C23.1347 11.0662 22.8755 11.2337 22.5901 11.348C22.3047 11.4622 21.9989 11.5211 21.69 11.5211C21.3811 11.5211 21.0752 11.4622 20.7899 11.348C20.5045 11.2337 20.2452 11.0662 20.0268 10.8551C19.8084 10.644 19.6351 10.3933 19.5169 10.1175C19.3987 9.84162 19.3379 9.54596 19.3379 9.24737L19.9226 9.24737C19.9226 9.47173 19.9683 9.69389 20.0571 9.90117C20.146 10.1084 20.2761 10.2968 20.4403 10.4554C20.6044 10.6141 20.7992 10.7399 21.0136 10.8258C21.2281 10.9116 21.4579 10.9558 21.69 10.9558C21.9221 10.9558 22.1519 10.9116 22.3663 10.8258C22.5807 10.7399 22.7756 10.6141 22.9397 10.4554C23.1038 10.2968 23.234 10.1084 23.3228 9.90117C23.4116 9.69389 23.4573 9.47173 23.4573 9.24737H24.0421Z" fill="white"/>
<path d="M19.9259 9.24737C19.9259 9.54596 19.865 9.84162 19.7468 10.1175C19.6286 10.3933 19.4554 10.644 19.2369 10.8551C19.0185 11.0662 18.7592 11.2337 18.4739 11.348C18.1885 11.4622 17.8826 11.5211 17.5738 11.5211C17.2649 11.5211 16.959 11.4622 16.6737 11.348C16.3883 11.2337 16.129 11.0662 15.9106 10.8551C15.6922 10.644 15.5189 10.3933 15.4007 10.1175C15.2825 9.84162 15.2217 9.54596 15.2217 9.24737L15.8064 9.24737C15.8064 9.47173 15.8521 9.69389 15.9409 9.90117C16.0298 10.1084 16.1599 10.2968 16.324 10.4554C16.4882 10.6141 16.683 10.7399 16.8974 10.8258C17.1119 10.9116 17.3417 10.9558 17.5738 10.9558C17.8059 10.9558 18.0357 10.9116 18.2501 10.8258C18.4645 10.7399 18.6594 10.6141 18.8235 10.4554C18.9876 10.2968 19.1178 10.1084 19.2066 9.90117C19.2954 9.69389 19.3411 9.47173 19.3411 9.24737H19.9259Z" fill="white"/>
<path d="M15.8096 9.24737C15.8096 9.54596 15.7488 9.84162 15.6306 10.1175C15.5124 10.3933 15.3391 10.644 15.1207 10.8551C14.9023 11.0662 14.643 11.2337 14.3577 11.348C14.0723 11.4622 13.7664 11.5211 13.4576 11.5211C13.1487 11.5211 12.8428 11.4622 12.5575 11.348C12.2721 11.2337 12.0128 11.0662 11.7944 10.8551C11.576 10.644 11.4027 10.3933 11.2845 10.1175C11.1663 9.84162 11.1055 9.54596 11.1055 9.24737L11.6902 9.24737C11.6902 9.47173 11.7359 9.69389 11.8247 9.90117C11.9135 10.1084 12.0437 10.2968 12.2078 10.4554C12.372 10.6141 12.5668 10.7399 12.7812 10.8258C12.9956 10.9116 13.2255 10.9558 13.4576 10.9558C13.6896 10.9558 13.9195 10.9116 14.1339 10.8258C14.3483 10.7399 14.5432 10.6141 14.7073 10.4554C14.8714 10.2968 15.0016 10.1084 15.0904 9.90117C15.1792 9.69389 15.2249 9.47173 15.2249 9.24737H15.8096Z" fill="white"/>
<path d="M24.0421 12.6579C24.0421 12.9565 23.9812 13.2521 23.863 13.528C23.7448 13.8039 23.5716 14.0545 23.3532 14.2656C23.1347 14.4768 22.8755 14.6442 22.5901 14.7585C22.3047 14.8728 21.9989 14.9316 21.69 14.9316C21.3811 14.9316 21.0752 14.8728 20.7899 14.7585C20.5045 14.6442 20.2452 14.4768 20.0268 14.2656C19.8084 14.0545 19.6351 13.8039 19.5169 13.528C19.3987 13.2521 19.3379 12.9565 19.3379 12.6579L20.1144 12.6579C20.1144 12.8579 20.1551 13.056 20.2343 13.2408C20.3135 13.4255 20.4295 13.5935 20.5759 13.7349C20.7222 13.8763 20.8959 13.9885 21.087 14.065C21.2782 14.1416 21.4831 14.181 21.69 14.181C21.8969 14.181 22.1018 14.1416 22.2929 14.065C22.4841 13.9885 22.6578 13.8763 22.8041 13.7349C22.9504 13.5935 23.0665 13.4255 23.1457 13.2408C23.2248 13.056 23.2656 12.8579 23.2656 12.6579H24.0421Z" fill="white"/>
<path d="M19.9259 12.6579C19.9259 12.9565 19.865 13.2521 19.7468 13.528C19.6286 13.8039 19.4554 14.0545 19.2369 14.2656C19.0185 14.4768 18.7592 14.6442 18.4739 14.7585C18.1885 14.8728 17.8826 14.9316 17.5738 14.9316C17.2649 14.9316 16.959 14.8728 16.6737 14.7585C16.3883 14.6442 16.129 14.4768 15.9106 14.2656C15.6922 14.0545 15.5189 13.8039 15.4007 13.528C15.2825 13.2521 15.2217 12.9565 15.2217 12.6579L15.9982 12.6579C15.9982 12.8579 16.0389 13.056 16.1181 13.2408C16.1973 13.4255 16.3133 13.5935 16.4596 13.7349C16.6059 13.8763 16.7796 13.9885 16.9708 14.065C17.162 14.1416 17.3669 14.181 17.5738 14.181C17.7807 14.181 17.9856 14.1416 18.1767 14.065C18.3679 13.9885 18.5416 13.8763 18.6879 13.7349C18.8342 13.5935 18.9503 13.4255 19.0294 13.2408C19.1086 13.056 19.1494 12.8579 19.1494 12.6579H19.9259Z" fill="white"/>
<path d="M15.8096 12.6579C15.8096 12.9565 15.7488 13.2521 15.6306 13.528C15.5124 13.8039 15.3391 14.0545 15.1207 14.2656C14.9023 14.4768 14.643 14.6442 14.3577 14.7585C14.0723 14.8728 13.7664 14.9316 13.4576 14.9316C13.1487 14.9316 12.8428 14.8728 12.5575 14.7585C12.2721 14.6442 12.0128 14.4768 11.7944 14.2656C11.576 14.0545 11.4027 13.8039 11.2845 13.528C11.1663 13.2521 11.1055 12.9565 11.1055 12.6579L11.8819 12.6579C11.8819 12.8579 11.9227 13.056 12.0019 13.2408C12.0811 13.4255 12.1971 13.5935 12.3434 13.7349C12.4897 13.8763 12.6634 13.9885 12.8546 14.065C13.0458 14.1416 13.2506 14.181 13.4576 14.181C13.6645 14.181 13.8694 14.1416 14.0605 14.065C14.2517 13.9885 14.4254 13.8763 14.5717 13.7349C14.718 13.5935 14.8341 13.4255 14.9132 13.2408C14.9924 13.056 15.0332 12.8579 15.0332 12.6579H15.8096Z" fill="white"/>
<path d="M19.9259 12.6579C19.9259 12.9565 19.865 13.2521 19.7468 13.528C19.6286 13.8039 19.4554 14.0545 19.2369 14.2656C19.0185 14.4768 18.7592 14.6442 18.4739 14.7585C18.1885 14.8728 17.8826 14.9316 17.5738 14.9316C17.2649 14.9316 16.959 14.8728 16.6737 14.7585C16.3883 14.6442 16.129 14.4768 15.9106 14.2656C15.6922 14.0545 15.5189 13.8039 15.4007 13.528C15.2825 13.2521 15.2217 12.9565 15.2217 12.6579L15.8064 12.6579C15.8064 12.8823 15.8521 13.1044 15.9409 13.3117C16.0298 13.519 16.1599 13.7073 16.324 13.866C16.4882 14.0246 16.683 14.1504 16.8974 14.2363C17.1119 14.3222 17.3417 14.3664 17.5738 14.3664C17.8059 14.3664 18.0357 14.3222 18.2501 14.2363C18.4645 14.1504 18.6594 14.0246 18.8235 13.866C18.9876 13.7073 19.1178 13.519 19.2066 13.3117C19.2954 13.1044 19.3411 12.8823 19.3411 12.6579H19.9259Z" fill="white"/>
<path d="M15.8096 12.6579C15.8096 12.9565 15.7488 13.2521 15.6306 13.528C15.5124 13.8039 15.3391 14.0545 15.1207 14.2656C14.9023 14.4768 14.643 14.6442 14.3577 14.7585C14.0723 14.8728 13.7664 14.9316 13.4576 14.9316C13.1487 14.9316 12.8428 14.8728 12.5575 14.7585C12.2721 14.6442 12.0128 14.4768 11.7944 14.2656C11.576 14.0545 11.4027 13.8039 11.2845 13.528C11.1663 13.2521 11.1055 12.9565 11.1055 12.6579L11.6902 12.6579C11.6902 12.8823 11.7359 13.1044 11.8247 13.3117C11.9135 13.519 12.0437 13.7073 12.2078 13.866C12.372 14.0246 12.5668 14.1504 12.7812 14.2363C12.9956 14.3222 13.2255 14.3664 13.4576 14.3664C13.6896 14.3664 13.9195 14.3222 14.1339 14.2363C14.3483 14.1504 14.5432 14.0246 14.7073 13.866C14.8714 13.7073 15.0016 13.519 15.0904 13.3117C15.1792 13.1044 15.2249 12.8823 15.2249 12.6579H15.8096Z" fill="white"/>
<path d="M20.3419 21.8574C20.3419 23.4477 19.0695 24.7369 17.4998 24.7369C15.9302 24.7369 14.6577 23.4477 14.6577 21.8574C14.6577 20.2671 17.4998 16.9211 17.4998 16.9211C17.4998 16.9211 20.3419 20.2671 20.3419 21.8574Z" fill="white"/>
<defs>
<filter id="filter0_d" x="0" y="0" width="35" height="35" filterUnits="userSpaceOnUse" color-interpolation-filters="sRGB">
<feFlood flood-opacity="0" result="BackgroundImageFix"/>
<feColorMatrix in="SourceAlpha" type="matrix" values="0 0 0 0 0 0 0 0 0 0 0 0 0 0 0 0 0 0 127 0"/>
<feOffset dy="2"/>
<feGaussianBlur stdDeviation="2"/>
<feColorMatrix type="matrix" values="0 0 0 0 0 0 0 0 0 0 0 0 0 0 0 0 0 0 0.3 0"/>
<feBlend mode="normal" in2="BackgroundImageFix" result="effect1_dropShadow"/>
<feBlend mode="normal" in="SourceGraphic" in2="effect1_dropShadow" result="shape"/>
</filter>
</defs>
</svg>
