<svg width="35" height="35" viewBox="0 0 35 35" fill="none" xmlns="http://www.w3.org/2000/svg">
<g filter="url(#filter0_d)">
<circle cx="17.5" cy="15.5" r="13.5" fill="#EB5757"/>
<path d="M20.4562 10.5273C19.3177 10.5273 18.2615 10.8804 17.3933 11.4838C16.5261 10.8799 15.4707 10.5273 14.3322 10.5273C11.373 10.5273 8.97412 12.9118 8.97412 15.8554C8.97412 18.7985 11.373 21.1847 14.3322 21.1847C15.4707 21.1847 16.5261 20.8304 17.3933 20.2274C18.2615 20.8304 19.3177 21.1847 20.4562 21.1847C23.4154 21.1847 25.8151 18.7989 25.8151 15.8554C25.8151 12.9118 23.4154 10.5273 20.4562 10.5273Z" fill="#EB5757"/>
<path d="M25.5064 14.0711L17.4468 20.2643C18.3049 20.8451 19.3398 21.1842 20.4561 21.1842C23.4153 21.1842 25.815 18.7984 25.815 15.8549C25.815 15.2292 25.7053 14.6288 25.5064 14.0711Z" fill="white"/>
<path d="M17.3929 13.7428L18.7622 12.8595L22.0174 10.7566C21.7445 10.6734 21.4606 10.6121 21.1706 10.5738L18.5967 12.63L17.3934 13.5909L15.1529 15.0907L9.79004 18.6834C9.90977 18.8732 10.0425 19.0556 10.1845 19.2294L15.1103 15.4808L17.3929 13.7428Z" fill="white"/>
<path d="M25.4116 13.8251C25.3232 13.6135 25.2227 13.4093 25.1108 13.213L19.4222 17.5219L17.3934 19.0583L16.601 19.5559L14.021 21.1751C14.1246 21.1803 14.2278 21.1842 14.3323 21.1842C14.6632 21.1842 14.9871 21.1546 15.3019 21.0976L16.7978 19.7479L17.3938 19.2107L19.2559 17.9599L25.4116 13.8251Z" fill="white"/>
<path d="M17.393 12.6492L18.1845 12.1524L20.7645 10.535C20.6618 10.5289 20.5586 10.5263 20.4558 10.5263C20.1267 10.5263 19.8045 10.555 19.4924 10.6121L17.9899 11.9617L17.393 12.4972L15.5335 13.7481L9.37695 17.8858C9.46446 18.0948 9.56503 18.2999 9.67692 18.4954L15.3664 14.1847L17.393 12.6492Z" fill="white"/>
<path d="M17.3927 18.1179L19.634 16.6171L24.9969 13.0275C24.8772 12.8377 24.7452 12.6544 24.6033 12.4816L19.6766 16.2292L17.3927 17.9655L16.0234 18.8506L12.769 20.9535C13.042 21.0366 13.325 21.098 13.6158 21.1363L16.1889 19.0783L17.3927 18.1179Z" fill="white"/>
<path d="M17.3928 14.8365L19.2092 13.6471L22.9974 11.1641C22.7753 11.0444 22.5433 10.9395 22.3034 10.852L19.0738 13.3732L17.3928 14.6854L15.1089 16.2079L10.3276 19.3957C10.4791 19.5651 10.6398 19.7249 10.8122 19.8738L15.1437 16.5584L17.3928 14.8365Z" fill="white"/>
<path d="M17.3925 15.9306L19.5202 14.5234L23.799 11.6918C23.6144 11.5455 23.4207 11.4097 23.2174 11.2878L19.4283 14.2078L17.3925 15.7773L15.2657 17.1866L10.9878 20.0191C11.1724 20.1663 11.3661 20.3004 11.5703 20.4223L15.3576 17.5005L17.3925 15.9306Z" fill="white"/>
<path d="M17.3932 17.0247L19.6781 15.5013L24.461 12.3161C24.3095 12.1459 24.1471 11.9861 23.9756 11.8381L19.6432 15.1508L17.3932 16.8705L15.5777 18.0626L11.7896 20.5472C12.0125 20.6661 12.2436 20.771 12.4853 20.8594L15.7131 18.3364L17.3932 17.0247Z" fill="white"/>
<path d="M14.3322 10.5273C11.373 10.5273 8.97412 12.9131 8.97412 15.8554C8.97412 16.4814 9.08296 17.0827 9.28279 17.6413L17.3406 11.4455C16.4825 10.8651 15.4476 10.5273 14.3322 10.5273Z" fill="white"/>
</g>
<defs>
<filter id="filter0_d" x="0" y="0" width="35" height="35" filterUnits="userSpaceOnUse" color-interpolation-filters="sRGB">
<feFlood flood-opacity="0" result="BackgroundImageFix"/>
<feColorMatrix in="SourceAlpha" type="matrix" values="0 0 0 0 0 0 0 0 0 0 0 0 0 0 0 0 0 0 127 0"/>
<feOffset dy="2"/>
<feGaussianBlur stdDeviation="2"/>
<feColorMatrix type="matrix" values="0 0 0 0 0 0 0 0 0 0 0 0 0 0 0 0 0 0 0.3 0"/>
<feBlend mode="normal" in2="BackgroundImageFix" result="effect1_dropShadow"/>
<feBlend mode="normal" in="SourceGraphic" in2="effect1_dropShadow" result="shape"/>
</filter>
</defs>
</svg>
