<svg width="35" height="35" viewBox="0 0 35 35" fill="none" xmlns="http://www.w3.org/2000/svg">
<g filter="url(#filter0_d)">
<circle cx="17.5" cy="15.5" r="13.5" fill="#9F89F5"/>
</g>
<path d="M21.7636 11.9473C21.7636 11.0051 21.3145 10.1015 20.515 9.43526C19.7155 8.76901 18.6311 8.39471 17.5005 8.39471C16.3698 8.39471 15.2855 8.76901 14.486 9.43526C13.6865 10.1015 13.2373 11.0051 13.2373 11.9473L17.5005 11.9473H21.7636Z" fill="white"/>
<path d="M11.1055 13.3684H23.8949V14.7895H11.1055V13.3684Z" fill="white"/>
<path d="M11.1055 21.1842H23.8949V22.6053H11.1055V21.1842Z" fill="white"/>
<path d="M12.5264 14.0789H22.4737V22.6053H12.5264V14.0789Z" fill="white"/>
<path d="M14.6582 14.7895H20.3424V16.2105H14.6582V14.7895Z" fill="#9F89F5"/>
<path d="M16.0791 19.7632C16.0791 18.9783 16.7153 18.3421 17.5002 18.3421V18.3421C18.285 18.3421 18.9212 18.9783 18.9212 19.7632V22.6053H16.0791V19.7632Z" fill="#9F89F5"/>
<defs>
<filter id="filter0_d" x="0" y="0" width="35" height="35" filterUnits="userSpaceOnUse" color-interpolation-filters="sRGB">
<feFlood flood-opacity="0" result="BackgroundImageFix"/>
<feColorMatrix in="SourceAlpha" type="matrix" values="0 0 0 0 0 0 0 0 0 0 0 0 0 0 0 0 0 0 127 0"/>
<feOffset dy="2"/>
<feGaussianBlur stdDeviation="2"/>
<feColorMatrix type="matrix" values="0 0 0 0 0 0 0 0 0 0 0 0 0 0 0 0 0 0 0.3 0"/>
<feBlend mode="normal" in2="BackgroundImageFix" result="effect1_dropShadow"/>
<feBlend mode="normal" in="SourceGraphic" in2="effect1_dropShadow" result="shape"/>
</filter>
</defs>
</svg>
