<svg width="35" height="35" viewBox="0 0 35 35" fill="none" xmlns="http://www.w3.org/2000/svg">
<g filter="url(#filter0_d)">
<circle cx="17.5" cy="15.5" r="13.5" fill="#37B6EE"/>
</g>
<path d="M19.8298 16.522C19.8298 17.8325 18.7812 18.8949 17.4876 18.8949C16.1941 18.8949 15.1455 17.8325 15.1455 16.522C15.1455 15.2114 17.4876 12.454 17.4876 12.454C17.4876 12.454 19.8298 15.2114 19.8298 16.522Z" fill="white"/>
<path fill-rule="evenodd" clip-rule="evenodd" d="M21.3878 9.67451C20.3563 8.99726 19.1608 8.61156 17.928 8.55825C16.6952 8.50495 15.4709 8.78603 14.3848 9.37172C13.2987 9.95741 12.3912 10.8259 11.7584 11.8853C11.1256 12.9446 10.7911 14.1554 10.7902 15.3894L10.0124 15.3888C10.0125 15.239 10.0171 15.0896 10.0259 14.9406C10.0985 13.7227 10.4628 12.5376 11.0907 11.4864C11.7954 10.3066 12.8061 9.33939 14.0156 8.68711C15.2252 8.03484 16.5887 7.72181 17.9616 7.78117C19.1849 7.83406 20.3752 8.18085 21.4327 8.78934C21.5621 8.86377 21.6895 8.94212 21.8147 9.02432L21.3878 9.67451Z" fill="white"/>
<path fill-rule="evenodd" clip-rule="evenodd" d="M13.823 21.0778C14.848 21.7648 16.0397 22.1618 17.272 22.2268C18.5042 22.2918 19.7311 22.0223 20.8227 21.447C21.9143 20.8716 22.83 20.0117 23.4728 18.9584C24.1156 17.9051 24.4616 16.6975 24.4741 15.4636L25.2519 15.4715C25.2504 15.6213 25.2444 15.7707 25.2342 15.9196C25.15 17.1368 24.7746 18.3184 24.1367 19.3636C23.4209 20.5366 22.4011 21.4942 21.1854 22.135C19.9697 22.7758 18.6033 23.0759 17.231 23.0036C16.0083 22.9391 14.8213 22.581 13.7696 21.9625C13.641 21.8869 13.5143 21.8073 13.3899 21.724L13.823 21.0778Z" fill="white"/>
<path d="M10.4132 18.2249L8.4266 15.2142L12.3997 15.2142L10.4132 18.2249Z" fill="white"/>
<path d="M24.7512 13.6251L26.7378 16.6358L22.7646 16.6358L24.7512 13.6251Z" fill="white"/>
<defs>
<filter id="filter0_d" x="0" y="0" width="35" height="35" filterUnits="userSpaceOnUse" color-interpolation-filters="sRGB">
<feFlood flood-opacity="0" result="BackgroundImageFix"/>
<feColorMatrix in="SourceAlpha" type="matrix" values="0 0 0 0 0 0 0 0 0 0 0 0 0 0 0 0 0 0 127 0"/>
<feOffset dy="2"/>
<feGaussianBlur stdDeviation="2"/>
<feColorMatrix type="matrix" values="0 0 0 0 0 0 0 0 0 0 0 0 0 0 0 0 0 0 0.3 0"/>
<feBlend mode="normal" in2="BackgroundImageFix" result="effect1_dropShadow"/>
<feBlend mode="normal" in="SourceGraphic" in2="effect1_dropShadow" result="shape"/>
</filter>
</defs>
</svg>
