<svg width="35" height="35" viewBox="0 0 35 35" fill="none" xmlns="http://www.w3.org/2000/svg">
<g filter="url(#filter0_d)">
<circle cx="17.5" cy="15.5" r="13.5" fill="#77C96E"/>
<path d="M10.3945 9.6288C10.3945 9.33965 10.6596 9.10526 10.9866 9.10526H12.0017C12.3287 9.10526 12.5938 9.33965 12.5938 9.6288V18.5291C12.5938 18.8182 13.6821 19.0526 13.3551 19.0526H10.9866C10.6596 19.0526 10.3945 18.8182 10.3945 18.5291V9.6288Z" fill="white"/>
<path d="M10.3945 11.1994C10.3945 10.9103 10.6596 10.6759 10.9866 10.6759H22.2366C22.5636 10.6759 22.8287 10.9103 22.8287 11.1994V18.5291C22.8287 18.8182 22.5636 19.0526 22.2366 19.0526H10.9866C10.6596 19.0526 10.3945 18.8182 10.3945 18.5291V11.1994Z" fill="white"/>
<path d="M22.4058 9.6288C22.4058 9.33965 22.6709 9.10526 22.9979 9.10526H24.013C24.34 9.10526 24.6051 9.33965 24.6051 9.6288V18.5291C24.6051 18.8182 24.34 19.0526 24.013 19.0526H21.6445C22.6709 19.0526 22.4058 18.8182 22.4058 18.5291V9.6288Z" fill="white"/>
<path d="M16.3779 13.738C16.3779 13.1184 16.8802 12.6161 17.4998 12.6161V12.6161C18.1194 12.6161 18.6217 13.1184 18.6217 13.738V19.0526H16.3779V13.738Z" fill="#77C96E"/>
<path d="M12.6387 13.738C12.6387 13.1184 13.141 12.6161 13.7606 12.6161V12.6161C14.3802 12.6161 14.8824 13.1184 14.8824 13.738V19.0526H12.6387V13.738Z" fill="#77C96E"/>
<path d="M20.1182 13.738C20.1182 13.1184 20.6204 12.6161 21.24 12.6161V12.6161C21.8596 12.6161 22.3619 13.1184 22.3619 13.738V19.0526H20.1182V13.738Z" fill="#77C96E"/>
<path d="M26.0264 19.9053C26.0264 20.2039 25.9656 20.4995 25.8474 20.7754C25.7292 21.0512 25.5559 21.3019 25.3375 21.513C25.1191 21.7241 24.8598 21.8916 24.5745 22.0059C24.2891 22.1201 23.9832 22.179 23.6744 22.179C23.3655 22.179 23.0596 22.1201 22.7742 22.0059C22.4889 21.8916 22.2296 21.7241 22.0112 21.513C21.7928 21.3019 21.6195 21.0512 21.5013 20.7754C21.3831 20.4995 21.3223 20.2039 21.3223 19.9053L22.0987 19.9053C22.0987 20.1053 22.1395 20.3033 22.2187 20.4881C22.2979 20.6729 22.4139 20.8408 22.5602 20.9823C22.7065 21.1237 22.8802 21.2359 23.0714 21.3124C23.2626 21.389 23.4674 21.4284 23.6744 21.4284C23.8813 21.4284 24.0862 21.389 24.2773 21.3124C24.4685 21.2359 24.6422 21.1237 24.7885 20.9823C24.9348 20.8408 25.0508 20.6729 25.13 20.4881C25.2092 20.3033 25.25 20.1053 25.25 19.9053H26.0264Z" fill="white"/>
<path d="M21.9097 19.9053C21.9097 20.2039 21.8489 20.4995 21.7307 20.7754C21.6125 21.0512 21.4392 21.3019 21.2208 21.513C21.0024 21.7241 20.7431 21.8916 20.4578 22.0059C20.1724 22.1201 19.8665 22.179 19.5577 22.179C19.2488 22.179 18.9429 22.1201 18.6575 22.0059C18.3722 21.8916 18.1129 21.7241 17.8945 21.513C17.6761 21.3019 17.5028 21.0512 17.3846 20.7754C17.2664 20.4995 17.2056 20.2039 17.2056 19.9053L17.982 19.9053C17.982 20.1053 18.0228 20.3033 18.102 20.4881C18.1812 20.6729 18.2972 20.8408 18.4435 20.9823C18.5898 21.1237 18.7635 21.2359 18.9547 21.3124C19.1459 21.389 19.3507 21.4284 19.5577 21.4284C19.7646 21.4284 19.9695 21.389 20.1606 21.3124C20.3518 21.2359 20.5255 21.1237 20.6718 20.9823C20.8181 20.8408 20.9341 20.6729 21.0133 20.4881C21.0925 20.3033 21.1333 20.1053 21.1333 19.9053H21.9097Z" fill="white"/>
<path d="M17.7935 19.9053C17.7935 20.2039 17.7327 20.4995 17.6145 20.7754C17.4963 21.0512 17.323 21.3019 17.1046 21.513C16.8862 21.7241 16.6269 21.8916 16.3415 22.0059C16.0562 22.1201 15.7503 22.179 15.4414 22.179C15.1326 22.179 14.8267 22.1201 14.5413 22.0059C14.256 21.8916 13.9967 21.7241 13.7783 21.513C13.5599 21.3019 13.3866 21.0512 13.2684 20.7754C13.1502 20.4995 13.0894 20.2039 13.0894 19.9053L13.8658 19.9053C13.8658 20.1053 13.9066 20.3033 13.9858 20.4881C14.0649 20.6729 14.181 20.8408 14.3273 20.9823C14.4736 21.1237 14.6473 21.2359 14.8385 21.3124C15.0296 21.389 15.2345 21.4284 15.4414 21.4284C15.6484 21.4284 15.8532 21.389 16.0444 21.3124C16.2356 21.2359 16.4093 21.1237 16.5556 20.9823C16.7019 20.8408 16.8179 20.6729 16.8971 20.4881C16.9763 20.3033 17.0171 20.1053 17.0171 19.9053H17.7935Z" fill="white"/>
<path d="M13.6773 19.9053C13.6773 20.2039 13.6165 20.4995 13.4983 20.7754C13.3801 21.0512 13.2068 21.3019 12.9884 21.513C12.77 21.7241 12.5107 21.8916 12.2253 22.0059C11.94 22.1201 11.6341 22.179 11.3252 22.179C11.0164 22.179 10.7105 22.1201 10.4251 22.0059C10.1398 21.8916 9.88047 21.7241 9.66205 21.513C9.44364 21.3019 9.27039 21.0512 9.15219 20.7754C9.03398 20.4995 8.97314 20.2039 8.97314 19.9053L9.74962 19.9053C9.74962 20.1053 9.79037 20.3033 9.86955 20.4881C9.94874 20.6729 10.0648 20.8408 10.2111 20.9823C10.3574 21.1237 10.5311 21.2359 10.7223 21.3124C10.9134 21.389 11.1183 21.4284 11.3252 21.4284C11.5321 21.4284 11.737 21.389 11.9282 21.3124C12.1194 21.2359 12.293 21.1237 12.4394 20.9823C12.5857 20.8408 12.7017 20.6729 12.7809 20.4881C12.8601 20.3033 12.9008 20.1053 12.9008 19.9053H13.6773Z" fill="white"/>
<path d="M21.9097 19.9053C21.9097 20.2039 21.8489 20.4995 21.7307 20.7754C21.6125 21.0512 21.4392 21.3019 21.2208 21.513C21.0024 21.7241 20.7431 21.8916 20.4578 22.0059C20.1724 22.1201 19.8665 22.179 19.5577 22.179C19.2488 22.179 18.9429 22.1201 18.6575 22.0059C18.3722 21.8916 18.1129 21.7241 17.8945 21.513C17.6761 21.3019 17.5028 21.0512 17.3846 20.7754C17.2664 20.4995 17.2056 20.2039 17.2056 19.9053L17.7903 19.9053C17.7903 20.1296 17.836 20.3518 17.9248 20.5591C18.0136 20.7663 18.1438 20.9547 18.3079 21.1133C18.4721 21.272 18.6669 21.3978 18.8813 21.4837C19.0957 21.5695 19.3256 21.6137 19.5577 21.6137C19.7897 21.6137 20.0196 21.5695 20.234 21.4837C20.4484 21.3978 20.6433 21.272 20.8074 21.1133C20.9715 20.9547 21.1017 20.7663 21.1905 20.5591C21.2793 20.3518 21.325 20.1296 21.325 19.9053H21.9097Z" fill="white"/>
<path d="M17.7935 19.9053C17.7935 20.2039 17.7327 20.4995 17.6145 20.7754C17.4963 21.0512 17.323 21.3019 17.1046 21.513C16.8862 21.7241 16.6269 21.8916 16.3415 22.0059C16.0562 22.1201 15.7503 22.179 15.4414 22.179C15.1326 22.179 14.8267 22.1201 14.5413 22.0059C14.256 21.8916 13.9967 21.7241 13.7783 21.513C13.5599 21.3019 13.3866 21.0512 13.2684 20.7754C13.1502 20.4995 13.0894 20.2039 13.0894 19.9053L13.6741 19.9053C13.6741 20.1296 13.7198 20.3518 13.8086 20.5591C13.8974 20.7663 14.0276 20.9547 14.1917 21.1133C14.3558 21.272 14.5507 21.3978 14.7651 21.4837C14.9795 21.5695 15.2093 21.6137 15.4414 21.6137C15.6735 21.6137 15.9034 21.5695 16.1178 21.4837C16.3322 21.3978 16.527 21.272 16.6912 21.1133C16.8553 20.9547 16.9855 20.7663 17.0743 20.5591C17.1631 20.3518 17.2088 20.1296 17.2088 19.9053H17.7935Z" fill="white"/>
<path d="M13.6773 19.9053C13.6773 20.2039 13.6165 20.4995 13.4983 20.7754C13.3801 21.0512 13.2068 21.3019 12.9884 21.513C12.77 21.7241 12.5107 21.8916 12.2253 22.0059C11.94 22.1201 11.6341 22.179 11.3252 22.179C11.0164 22.179 10.7105 22.1201 10.4251 22.0059C10.1398 21.8916 9.88047 21.7241 9.66205 21.513C9.44364 21.3019 9.27039 21.0512 9.15219 20.7754C9.03398 20.4995 8.97314 20.2039 8.97314 19.9053L9.55786 19.9053C9.55786 20.1296 9.60358 20.3518 9.6924 20.5591C9.78122 20.7663 9.9114 20.9547 10.0755 21.1133C10.2396 21.272 10.4345 21.3978 10.6489 21.4837C10.8633 21.5695 11.0931 21.6137 11.3252 21.6137C11.5573 21.6137 11.7871 21.5695 12.0016 21.4837C12.216 21.3978 12.4108 21.272 12.5749 21.1133C12.7391 20.9547 12.8692 20.7663 12.9581 20.5591C13.0469 20.3518 13.0926 20.1296 13.0926 19.9053H13.6773Z" fill="white"/>
</g>
<defs>
<filter id="filter0_d" x="0" y="0" width="35" height="35" filterUnits="userSpaceOnUse" color-interpolation-filters="sRGB">
<feFlood flood-opacity="0" result="BackgroundImageFix"/>
<feColorMatrix in="SourceAlpha" type="matrix" values="0 0 0 0 0 0 0 0 0 0 0 0 0 0 0 0 0 0 127 0"/>
<feOffset dy="2"/>
<feGaussianBlur stdDeviation="2"/>
<feColorMatrix type="matrix" values="0 0 0 0 0 0 0 0 0 0 0 0 0 0 0 0 0 0 0.3 0"/>
<feBlend mode="normal" in2="BackgroundImageFix" result="effect1_dropShadow"/>
<feBlend mode="normal" in="SourceGraphic" in2="effect1_dropShadow" result="shape"/>
</filter>
</defs>
</svg>
