<svg width="133" height="30" viewBox="0 0 133 30" fill="none" xmlns="http://www.w3.org/2000/svg">
<path opacity="0.1" d="M23.1725 14.3275C20.5675 12.5568 17.2219 13.2804 15.4767 15.9449C14.0125 18.1754 11.8076 18.4478 10.9478 18.4478C8.1555 18.4478 6.24858 16.4813 5.68672 14.4552C5.68672 14.4296 5.67821 14.4211 5.66969 14.3956C5.66118 14.37 5.66118 14.353 5.65267 14.3275C5.43133 13.4847 5.37174 13.076 5.37174 12.1822C5.37174 7.32974 10.3519 1.92395 17.5284 1.92395C24.8751 1.92395 29.0806 7.51703 30.1532 10.6243C30.1362 10.5647 30.1192 10.5136 30.1022 10.454C28.0165 4.37571 22.2531 0 15.4682 0C6.92111 0 0 6.92111 0 15.4682C0 23.1044 5.50794 29.6425 13.1442 29.6425C19.231 29.6425 23.3343 26.2287 25.2071 21.521C26.2457 18.9415 25.5136 15.9109 23.1725 14.3275Z" fill="white"/>
<path opacity="0.2" d="M30.2554 10.9137C29.353 7.88309 25.1135 1.91544 17.5283 1.91544C10.3518 1.91544 5.3717 7.32122 5.3717 12.1737C5.3717 13.076 5.42278 13.4762 5.65263 14.319C5.55899 13.9529 5.50791 13.5783 5.50791 13.2208C5.50791 8.16402 10.5732 4.65664 15.7747 4.65664C22.815 4.65664 28.5272 10.3689 28.5272 17.4092C28.5272 22.9342 25.3518 27.71 20.7293 30C26.6799 27.8462 30.9279 22.1424 30.9279 15.4512C30.9279 13.8848 30.7151 12.4886 30.2554 10.9137Z" fill="white"/>
<path d="M44.1572 22.0913V26.7224H43.4166V22.9937L42.1992 26.7224H41.4841L40.2753 22.9937V26.7224H39.5261V22.0913H40.6669L41.8417 25.6924L43.008 22.0913H44.1572Z" fill="#90929A"/>
<path d="M45.9875 22.3552C45.9875 22.4829 45.9449 22.5936 45.8428 22.6872C45.7491 22.7809 45.63 22.832 45.5023 22.832C45.3661 22.832 45.2554 22.7809 45.1617 22.6872C45.0681 22.5936 45.017 22.4829 45.017 22.3552C45.017 22.2275 45.0681 22.1083 45.1617 22.0147C45.2554 21.9211 45.3661 21.87 45.5023 21.87C45.63 21.87 45.7491 21.9211 45.8428 22.0147C45.9449 22.1083 45.9875 22.2275 45.9875 22.3552ZM45.1277 23.3938H45.8939V26.7224H45.1277V23.3938Z" fill="#90929A"/>
<path d="M47.622 25.0539V26.731H46.8643V23.4024H47.5964V23.8366C47.6816 23.6833 47.8093 23.5556 47.988 23.4535C48.1498 23.3598 48.3371 23.3087 48.5329 23.3087C48.9245 23.3087 49.2309 23.445 49.4778 23.7089C49.7077 23.9813 49.8354 24.3388 49.8354 24.7815V26.714H49.0777V24.9688C49.0777 24.6112 49.0181 24.3559 48.9075 24.1771C48.7883 24.0153 48.6095 23.9217 48.3711 23.9217C48.2519 23.9217 48.1243 23.9643 48.0136 24.0494C47.8944 24.1345 47.8008 24.2452 47.7412 24.3814C47.656 24.5602 47.622 24.7815 47.622 25.0539Z" fill="#90929A"/>
<path d="M51.6317 22.3552C51.6317 22.4829 51.5806 22.5936 51.487 22.6872C51.3933 22.7809 51.2741 22.832 51.1464 22.832C51.0102 22.832 50.8996 22.7809 50.8059 22.6872C50.7123 22.5936 50.6612 22.4829 50.6612 22.3552C50.6612 22.2275 50.7038 22.1083 50.8059 22.0147C50.8996 21.9211 51.0102 21.87 51.1464 21.87C51.2741 21.87 51.3933 21.9211 51.487 22.0147C51.5891 22.1083 51.6317 22.2275 51.6317 22.3552ZM50.7804 23.3938H51.538V26.7224H50.7804V23.3938Z" fill="#90929A"/>
<path d="M52.2106 26.101L52.6873 25.6158C52.815 25.8031 52.9597 25.9393 53.1215 26.0414C53.2747 26.1351 53.445 26.1862 53.6152 26.1862C53.7855 26.1862 53.9302 26.1521 54.0494 26.0755C54.1601 26.0074 54.2196 25.9223 54.2196 25.8031C54.2196 25.6924 54.1686 25.5988 54.0579 25.5307C53.9387 25.4711 53.8025 25.4115 53.6493 25.3519C53.4705 25.3008 53.2832 25.2327 53.0959 25.1561C52.8405 25.0709 52.6532 24.9433 52.5341 24.7985C52.4149 24.6538 52.3468 24.4921 52.3468 24.3048C52.3468 24.0324 52.4745 23.8025 52.7384 23.6067C52.9938 23.4109 53.2917 23.3173 53.6408 23.3173C54.0068 23.3173 54.3133 23.4024 54.5517 23.5812C54.6708 23.6748 54.773 23.794 54.8411 23.9302L54.3814 24.3814C54.3133 24.2792 54.2452 24.1941 54.1601 24.126C54.0068 24.0068 53.828 23.9387 53.6067 23.9387C53.4705 23.9387 53.3598 23.9728 53.2662 24.0324C53.1725 24.1005 53.1215 24.1771 53.1215 24.2622C53.1215 24.3559 53.1725 24.441 53.2832 24.5006C53.3854 24.5687 53.5386 24.6368 53.7514 24.6964C53.828 24.7219 53.9132 24.756 54.0068 24.7815C54.3303 24.8922 54.5687 25.0284 54.7389 25.1901C54.9007 25.3604 54.9943 25.5647 54.9943 25.7946C54.9943 26.0755 54.8581 26.3139 54.5942 26.5097C54.3218 26.714 53.9898 26.8161 53.5812 26.8161C53.2236 26.8161 52.9172 26.731 52.6618 26.5692C52.4915 26.4586 52.3383 26.3053 52.2106 26.101Z" fill="#90929A"/>
<path d="M56.6288 22.3212V23.3938H57.3524V23.9983H56.6288V25.6924C56.6288 25.8541 56.6629 25.9733 56.7395 26.0244C56.8161 26.084 56.9268 26.1095 57.063 26.1095H57.3439V26.7139H56.8842C56.5267 26.7139 56.2628 26.6288 56.101 26.467C55.9393 26.3138 55.8541 26.0754 55.8541 25.7605V23.9897H55.2838V23.3853H55.8541V22.3127H56.6288V22.3212Z" fill="#90929A"/>
<path d="M58.0334 26.7225V23.3939H58.7485V23.8877C58.8592 23.7259 58.9869 23.5982 59.1487 23.5046C59.3359 23.3939 59.5658 23.3343 59.8212 23.3343H59.8723V24.0068H59.7871C59.4722 24.0068 59.2253 24.1005 59.038 24.2963C58.8592 24.4836 58.7741 24.773 58.7741 25.1646V26.714H58.0334V26.7225Z" fill="#90929A"/>
<path d="M61.5153 26.5948L60.2128 23.3939H60.9875L61.8984 25.6668L62.7923 23.3939H63.5755L61.7196 28.0164H60.9449L61.5153 26.5948Z" fill="#90929A"/>
<path d="M67.3893 26.8076C66.8955 26.8076 66.4869 26.6459 66.1464 26.3053C65.7973 25.9733 65.6271 25.5562 65.6271 25.0624C65.6271 24.5772 65.7973 24.1601 66.1464 23.8195C66.4869 23.4875 66.904 23.3173 67.3893 23.3173C67.8745 23.3173 68.2917 23.4875 68.6407 23.8195C68.9812 24.1601 69.1515 24.5772 69.1515 25.0624C69.1515 25.5562 68.9812 25.9733 68.6407 26.3053C68.2917 26.6374 67.8745 26.8076 67.3893 26.8076ZM67.3893 26.1776C67.6617 26.1776 67.9001 26.0755 68.0959 25.8542C68.2831 25.6498 68.3853 25.3859 68.3853 25.0539C68.3853 24.7389 68.2831 24.4665 68.0959 24.2537C67.9001 24.0409 67.6617 23.9302 67.3893 23.9302C67.1169 23.9302 66.8785 24.0409 66.6912 24.2537C66.4869 24.4665 66.3933 24.7389 66.3933 25.0539C66.3933 25.3774 66.4869 25.6498 66.6912 25.8542C66.8785 26.0755 67.1169 26.1776 67.3893 26.1776Z" fill="#90929A"/>
<path d="M70.0284 22.7383C70.0284 22.4234 70.1135 22.185 70.2923 22.0232C70.4625 21.87 70.7264 21.7849 71.0925 21.7849H71.4585V22.3893H71.2372C71.0925 22.3893 70.9818 22.4234 70.9137 22.4744C70.8286 22.534 70.803 22.6447 70.803 22.8064V23.3938H71.4671V23.9983H70.803V26.7224H70.0369V23.9983H69.4665V23.3938H70.0369V22.7383H70.0284Z" fill="#90929A"/>
<path d="M73.9443 25.786L74.4551 25.2667C74.5913 25.5562 74.7701 25.7775 74.9744 25.9137C75.1958 26.0584 75.4256 26.135 75.6555 26.135C75.9023 26.135 76.1067 26.0754 76.2854 25.9392C76.4557 25.8201 76.5408 25.6498 76.5408 25.4455C76.5408 25.2667 76.4557 25.122 76.2854 25.0028C76.1067 24.8921 75.9194 24.7985 75.7151 24.7134C75.5107 24.6367 75.2894 24.5601 75.0766 24.4665C74.719 24.3388 74.4721 24.1685 74.3189 23.9557C74.1657 23.7514 74.0891 23.53 74.0891 23.3002C74.0891 22.9426 74.2423 22.6277 74.5488 22.3723C74.8467 22.1254 75.2213 21.9892 75.6725 21.9892C76.1322 21.9892 76.5153 22.1084 76.8047 22.3467C76.958 22.4659 77.0601 22.6021 77.1197 22.7383L76.66 23.2236C76.6174 23.147 76.5408 23.0533 76.4302 22.9512C76.2088 22.7468 75.9449 22.6447 75.6299 22.6447C75.4341 22.6447 75.2639 22.6958 75.1191 22.8064C74.9659 22.9171 74.8978 23.0618 74.8978 23.2406C74.8978 23.5215 75.1958 23.7684 75.8002 23.9727C75.9109 24.0153 76.0215 24.0579 76.1407 24.0919C76.5408 24.2451 76.8473 24.4324 77.0516 24.6367C77.2474 24.8496 77.3496 25.1135 77.3496 25.4199C77.3496 25.786 77.1963 26.1095 76.8813 26.3734C76.5664 26.6458 76.1662 26.782 75.6725 26.782C75.2213 26.782 74.8467 26.6799 74.5488 26.4756C74.2678 26.3053 74.0635 26.0669 73.9443 25.786Z" fill="#90929A"/>
<path d="M82.6617 22.0913V26.7224H81.9126V22.9937L80.7037 26.7224H79.9801L78.7798 22.9937V26.7224H78.0306V22.0913H79.1714L80.3462 25.6924L81.5125 22.0913H82.6617Z" fill="#90929A"/>
<path d="M86.6884 26.7224H83.6407V22.0913H86.6799V22.7383H84.4239V24.0749H86.6203V24.7048H84.4239V26.0754H86.6884V26.7224Z" fill="#90929A"/>
<path d="M87.1992 26.101L87.6845 25.6243C87.8122 25.8116 87.9569 25.9478 88.1186 26.05C88.2719 26.1436 88.4421 26.1947 88.6124 26.1947C88.7826 26.1947 88.9274 26.1606 89.0466 26.084C89.1572 26.0159 89.2168 25.9308 89.2168 25.8116C89.2168 25.7009 89.1657 25.6073 89.0551 25.5392C88.9444 25.4796 88.8082 25.42 88.6464 25.3604C88.4677 25.3093 88.2804 25.2412 88.0931 25.1646C87.8377 25.0795 87.6504 24.9518 87.5397 24.8071C87.4206 24.6623 87.3525 24.5006 87.3525 24.3133C87.3525 24.0409 87.4801 23.811 87.7355 23.6152C87.9909 23.4194 88.2889 23.3258 88.6379 23.3258C89.004 23.3258 89.3105 23.4109 89.5488 23.5897C89.668 23.6833 89.7702 23.8025 89.8383 23.9387L89.3786 24.3899C89.3105 24.2878 89.2424 24.2026 89.1657 24.1345C89.0125 24.0153 88.8337 23.9472 88.6124 23.9472C88.4762 23.9472 88.3655 23.9813 88.2719 24.0409C88.1782 24.109 88.1271 24.1856 88.1271 24.2707C88.1271 24.3644 88.1867 24.4495 88.2889 24.5091C88.391 24.5772 88.5443 24.6453 88.7571 24.7049C88.8337 24.7304 88.9189 24.7645 89.0125 24.79C89.336 24.9007 89.5744 25.0369 89.7446 25.1987C89.9064 25.3689 89.9915 25.5732 89.9915 25.8031C89.9915 26.084 89.8553 26.3224 89.5914 26.5182C89.319 26.7225 88.987 26.8247 88.5783 26.8247C88.2208 26.8247 87.9143 26.7395 87.6589 26.5778C87.4887 26.4586 87.3354 26.3054 87.1992 26.101Z" fill="#90929A"/>
<path d="M94.0692 24.5772H94.8609C94.8609 24.3644 94.7673 24.2026 94.6055 24.0919C94.4268 23.9813 94.1799 23.9302 93.8734 23.9302H93.8564C93.5584 23.9302 93.2349 24.0068 92.8944 24.143L92.7071 23.5471C93.0562 23.4024 93.4393 23.3258 93.8649 23.3173H93.8819C94.4438 23.3173 94.8695 23.4194 95.1674 23.6408C95.4654 23.8621 95.6186 24.2026 95.6186 24.6708V26.731H94.895V26.3649C94.7503 26.5097 94.58 26.6203 94.3757 26.6884C94.1629 26.7736 93.95 26.8076 93.7457 26.8076C93.3541 26.8076 93.0306 26.7055 92.7837 26.4841C92.5284 26.2798 92.4092 26.0244 92.4092 25.7094C92.4092 25.3689 92.5624 25.088 92.8689 24.8666C93.1413 24.6793 93.5414 24.5772 94.0692 24.5772ZM93.8649 26.2117C94.0522 26.2117 94.2565 26.1606 94.4438 26.067C94.6396 25.9733 94.7673 25.8627 94.8609 25.735V25.1731H94.1884C93.8053 25.1731 93.5414 25.2242 93.3967 25.3178C93.2435 25.4285 93.1753 25.5647 93.1753 25.7094C93.1753 25.8542 93.2349 25.9733 93.3626 26.067C93.4733 26.1606 93.6436 26.2117 93.8649 26.2117Z" fill="#90929A"/>
<path d="M97.2872 25.0539V26.731H96.5295V23.4024H97.2617V23.8366C97.3468 23.6833 97.4745 23.5556 97.6533 23.4535C97.815 23.3598 98.0023 23.3087 98.1981 23.3087C98.5897 23.3087 98.8962 23.445 99.143 23.7089C99.3729 23.9813 99.5006 24.3388 99.5006 24.7815V26.714H98.7429V24.9688C98.7429 24.6112 98.6833 24.3559 98.5727 24.1771C98.4535 24.0153 98.2747 23.9217 98.0364 23.9217C97.9172 23.9217 97.7895 23.9643 97.6788 24.0494C97.5596 24.1345 97.4745 24.2452 97.4064 24.3814C97.3213 24.5602 97.2872 24.7815 97.2872 25.0539Z" fill="#90929A"/>
<path d="M101.825 23.3172C102.216 23.3172 102.557 23.479 102.846 23.794V21.7849H103.604V26.7224H102.872V26.2968C102.591 26.6373 102.242 26.7991 101.825 26.7991C101.331 26.7991 100.948 26.6288 100.65 26.2713C100.343 25.9307 100.199 25.5221 100.199 25.0539C100.199 24.5857 100.352 24.177 100.65 23.8195C100.948 23.4875 101.331 23.3172 101.825 23.3172ZM102.838 25.2752C102.855 25.1305 102.855 24.9858 102.838 24.8496C102.812 24.6027 102.719 24.3899 102.557 24.2196C102.378 24.0408 102.157 23.9387 101.893 23.9387C101.603 23.9387 101.365 24.0493 101.203 24.2622C101.024 24.475 100.948 24.7474 100.948 25.0624C100.948 25.3859 101.033 25.6583 101.203 25.8626C101.365 26.084 101.595 26.1861 101.893 26.1861C102.148 26.1861 102.378 26.101 102.557 25.9052C102.719 25.7349 102.812 25.5306 102.838 25.2752Z" fill="#90929A"/>
<path d="M106.345 25.786L106.856 25.2667C106.992 25.5562 107.171 25.7775 107.384 25.9137C107.596 26.0584 107.835 26.135 108.065 26.135C108.312 26.135 108.516 26.0754 108.695 25.9392C108.865 25.8201 108.95 25.6498 108.95 25.4455C108.95 25.2667 108.865 25.122 108.695 25.0028C108.516 24.8921 108.329 24.7985 108.124 24.7134C107.92 24.6367 107.699 24.5601 107.486 24.4665C107.137 24.3388 106.881 24.1685 106.737 23.9557C106.575 23.7514 106.507 23.53 106.507 23.3002C106.507 22.9426 106.66 22.6277 106.966 22.3723C107.264 22.1254 107.639 21.9892 108.09 21.9892C108.55 21.9892 108.933 22.1084 109.222 22.3467C109.376 22.4659 109.478 22.6021 109.537 22.7383L109.069 23.2236C109.027 23.147 108.95 23.0533 108.848 22.9512C108.618 22.7468 108.354 22.6447 108.039 22.6447C107.843 22.6447 107.673 22.6958 107.528 22.8064C107.375 22.9171 107.307 23.0618 107.307 23.2406C107.307 23.5215 107.605 23.7684 108.209 23.9727C108.32 24.0153 108.422 24.0579 108.55 24.0919C108.95 24.2451 109.257 24.4324 109.461 24.6367C109.657 24.8496 109.759 25.1135 109.759 25.4199C109.759 25.786 109.606 26.1095 109.291 26.3734C108.976 26.6458 108.575 26.782 108.082 26.782C107.631 26.782 107.247 26.6799 106.958 26.4756C106.669 26.3053 106.464 26.0669 106.345 25.786Z" fill="#90929A"/>
<path d="M111.249 22.3212V23.3938H111.964V23.9983H111.249V25.6924C111.249 25.8541 111.283 25.9733 111.359 26.0244C111.427 26.084 111.538 26.1095 111.683 26.1095H111.964V26.7139H111.512C111.155 26.7139 110.891 26.6288 110.729 26.467C110.567 26.3138 110.482 26.0754 110.482 25.7605V23.9897H109.912V23.3853H110.482V22.3127H111.249V22.3212Z" fill="#90929A"/>
<path d="M114.092 24.5772H114.884C114.884 24.3644 114.799 24.2026 114.637 24.0919C114.458 23.9813 114.211 23.9302 113.896 23.9302H113.879C113.581 23.9302 113.258 24.0068 112.917 24.143L112.721 23.5471C113.07 23.4024 113.462 23.3258 113.879 23.3173H113.888C114.449 23.3173 114.875 23.4194 115.173 23.6408C115.471 23.8621 115.624 24.2026 115.624 24.6708V26.731H114.901V26.3649C114.756 26.5097 114.586 26.6203 114.381 26.6884C114.169 26.7736 113.956 26.8076 113.743 26.8076C113.351 26.8076 113.028 26.7055 112.789 26.4841C112.543 26.2798 112.415 26.0244 112.415 25.7094C112.415 25.3689 112.568 25.088 112.883 24.8666C113.173 24.6793 113.573 24.5772 114.092 24.5772ZM113.888 26.2117C114.075 26.2117 114.279 26.1606 114.467 26.067C114.654 25.9733 114.79 25.8627 114.884 25.735V25.1731H114.211C113.828 25.1731 113.564 25.2242 113.411 25.3178C113.258 25.4285 113.19 25.5647 113.19 25.7094C113.19 25.8542 113.249 25.9733 113.377 26.067C113.505 26.1606 113.675 26.2117 113.888 26.2117Z" fill="#90929A"/>
<path d="M116.561 26.7225V23.3939H117.276V23.8877C117.378 23.7259 117.514 23.5982 117.676 23.5046C117.863 23.3939 118.093 23.3343 118.348 23.3343H118.4V24.0068H118.323C118.008 24.0068 117.761 24.1005 117.574 24.2963C117.395 24.4836 117.318 24.773 117.318 25.1646V26.714H116.561V26.7225Z" fill="#90929A"/>
<path d="M120.187 22.3212V23.3938H120.911V23.9983H120.187V25.6924C120.187 25.8541 120.221 25.9733 120.298 26.0244C120.375 26.084 120.485 26.1095 120.63 26.1095H120.911V26.7139H120.451C120.094 26.7139 119.83 26.6288 119.668 26.467C119.506 26.3138 119.421 26.0754 119.421 25.7605V23.9897H118.851V23.3853H119.421V22.3127H120.187V22.3212Z" fill="#90929A"/>
<path d="M123.797 25.0709V23.3939H124.554V26.7225H123.822V26.2798C123.729 26.4415 123.609 26.5692 123.456 26.6543C123.277 26.7565 123.082 26.8076 122.894 26.8076C122.503 26.8076 122.188 26.6799 121.958 26.4075C121.711 26.1436 121.6 25.7775 121.6 25.3348V23.4024H122.358V25.1475C122.358 25.5051 122.409 25.769 122.537 25.9307C122.648 26.1095 122.818 26.1861 123.065 26.1861C123.184 26.1861 123.303 26.1436 123.422 26.067C123.533 25.9818 123.627 25.8797 123.695 25.7349C123.763 25.5647 123.797 25.3433 123.797 25.0709Z" fill="#90929A"/>
<path d="M127.262 26.8076C126.853 26.8076 126.513 26.6459 126.24 26.3309V28.0165H125.482V23.3939H126.215V23.8195C126.495 23.4875 126.845 23.3173 127.262 23.3173C127.747 23.3173 128.139 23.4875 128.445 23.8366C128.743 24.1941 128.896 24.6027 128.896 25.071C128.896 25.5392 128.743 25.9478 128.445 26.2883C128.139 26.6374 127.738 26.8076 127.262 26.8076ZM126.24 25.2753C126.266 25.5307 126.359 25.735 126.521 25.9052C126.7 26.0925 126.913 26.1862 127.185 26.1862C127.466 26.1862 127.704 26.084 127.875 25.8627C128.036 25.6583 128.13 25.3944 128.13 25.0624C128.13 24.7475 128.045 24.475 127.875 24.2622C127.696 24.0494 127.466 23.9387 127.185 23.9387C126.921 23.9387 126.7 24.0324 126.521 24.2196C126.359 24.3899 126.266 24.6027 126.24 24.8496C126.232 24.9858 126.232 25.1305 126.24 25.2753Z" fill="#90929A"/>
<path d="M129.279 26.101L129.756 25.6158C129.884 25.8031 130.028 25.9393 130.19 26.0414C130.335 26.1351 130.505 26.1862 130.684 26.1862C130.854 26.1862 130.999 26.1521 131.118 26.0755C131.229 26.0074 131.288 25.9223 131.288 25.8031C131.288 25.6924 131.237 25.5988 131.127 25.5307C131.016 25.4711 130.88 25.4115 130.718 25.3519C130.531 25.3008 130.352 25.2327 130.156 25.1561C129.901 25.0709 129.713 24.9433 129.594 24.7985C129.475 24.6538 129.407 24.4921 129.407 24.3048C129.407 24.0324 129.535 23.8025 129.798 23.6067C130.045 23.4109 130.352 23.3173 130.701 23.3173C131.067 23.3173 131.373 23.4024 131.612 23.5812C131.731 23.6748 131.833 23.794 131.901 23.9302L131.441 24.3814C131.373 24.2792 131.305 24.1941 131.22 24.126C131.067 24.0068 130.888 23.9387 130.667 23.9387C130.531 23.9387 130.42 23.9728 130.326 24.0324C130.233 24.1005 130.182 24.1771 130.182 24.2622C130.182 24.3559 130.233 24.441 130.343 24.5006C130.445 24.5687 130.599 24.6368 130.812 24.6964C130.888 24.7219 130.973 24.756 131.067 24.7815C131.39 24.8922 131.637 25.0284 131.808 25.1901C131.969 25.3604 132.054 25.5647 132.054 25.7946C132.054 26.0755 131.918 26.3139 131.654 26.5097C131.382 26.714 131.05 26.8161 130.641 26.8161C130.292 26.8161 129.977 26.731 129.722 26.5692C129.569 26.4586 129.415 26.3053 129.279 26.101Z" fill="#90929A"/>
<path d="M43.9103 11.9523V11.1691H38.6918V9.76449H50.7974V11.1691H45.5619V11.9523C45.7151 11.9949 45.8768 12.046 46.0301 12.1056C46.4217 12.2758 46.7707 12.4802 47.0772 12.7611C47.3837 13.0505 47.622 13.3655 47.8008 13.7316C47.9625 14.1061 48.0562 14.5063 48.0562 14.9234C48.0562 15.3491 47.9625 15.7407 47.8008 16.1067C47.622 16.4813 47.3751 16.8133 47.0772 17.0942C46.7707 17.3666 46.4302 17.5965 46.0301 17.7412C45.6215 17.9115 45.1958 17.9881 44.7446 17.9881C44.2934 17.9881 43.8507 17.9115 43.4591 17.7412C43.0505 17.588 42.7015 17.3666 42.412 17.0942C42.1056 16.8218 41.8672 16.4898 41.7055 16.1067C41.5267 15.7492 41.433 15.3491 41.433 14.9234C41.433 14.4977 41.5267 14.1061 41.7055 13.7316C41.8672 13.3655 42.1141 13.0505 42.412 12.7611C42.7015 12.4887 43.0505 12.2758 43.4591 12.1056C43.6039 12.046 43.7571 12.0034 43.9103 11.9523ZM49.9461 5.77187H45.5023L50.193 8.26619L49.4523 9.47504L44.7446 6.96369L40.0369 9.47504L39.2963 8.26619L43.987 5.77187H39.5431V4.37572H49.9546V5.77187H49.9461ZM46.4302 14.9234C46.4302 14.4722 46.2685 14.0721 45.9279 13.7401C45.5789 13.4251 45.1873 13.2548 44.7361 13.2548C44.2849 13.2548 43.8848 13.4251 43.5528 13.7401C43.2038 14.0721 43.042 14.4637 43.042 14.9234C43.042 15.3746 43.2038 15.7747 43.5528 16.0897C43.8848 16.4217 44.2764 16.5834 44.7361 16.5834C45.1873 16.5834 45.5874 16.4217 45.9279 16.0897C46.2685 15.7662 46.4302 15.3746 46.4302 14.9234Z" fill="#90929A"/>
<path d="M57.4035 14.966V11.1862H59.055V14.966H64.2906V16.4217H52.185V14.966H57.4035ZM58.2378 6.93818L53.8536 12.4291L52.5851 11.4756L58.2463 4.40981L63.899 11.4756L62.6305 12.4291L58.2378 6.93818Z" fill="#90929A"/>
<path d="M71.9098 11.4841H66.2061V4.49485H67.7639V6.38475H70.3775V4.49485H71.9013V11.4841H71.9098ZM66.7679 17.1282V12.727H68.4024V15.681H77.7923V17.1367H66.7679V17.1282ZM70.3775 7.79792H67.7639V10.0794H70.3775V7.79792ZM73.5869 4.23095H75.1277V12.5823H73.5869V8.55558H72.2078V7.11687H73.5869V4.23095ZM76.0982 4.21392H77.6731V12.6504H76.0982V4.21392Z" fill="#90929A"/>
<path d="M82.7894 5.60164V4.19698H84.5431V5.60164H87.693V7.00629H84.3473L87.9654 15.0937L86.6033 15.6981L83.6663 9.01537L80.7633 15.8088L79.3672 15.1873L82.9852 7.00629H79.5034V5.60164H82.7894ZM89.685 10.8968H87.1481V9.44954H89.685V4.21401H91.3195V17.3837H89.685V10.8968Z" fill="#90929A"/>
<path d="M99.8836 15.664H98.2491V6.49542H93.1924V5.03117H99.8751V15.664H99.8836ZM103.178 4.21392H104.813V17.3836H103.178V4.21392Z" fill="#90929A"/>
<path d="M114.467 7.66171C114.467 8.12992 114.373 8.56409 114.194 8.9642C113.998 9.37283 113.743 9.72187 113.419 10.0198C113.104 10.3263 112.738 10.5647 112.313 10.7349C111.879 10.9137 111.419 11.0073 110.934 11.0073C110.448 11.0073 109.997 10.9137 109.572 10.7349C109.137 10.5647 108.754 10.3263 108.448 10.0198C108.116 9.71335 107.877 9.37283 107.69 8.9642C107.494 8.5726 107.401 8.12992 107.401 7.66171C107.401 7.202 107.494 6.76784 107.69 6.34218C107.869 5.95058 108.116 5.58452 108.448 5.28657C108.746 4.98861 109.129 4.74173 109.572 4.56296C109.997 4.39269 110.448 4.30756 110.934 4.30756C111.419 4.30756 111.87 4.40121 112.313 4.56296C112.738 4.74173 113.096 4.98861 113.419 5.28657C113.734 5.58452 113.99 5.95058 114.194 6.34218C114.373 6.76784 114.467 7.202 114.467 7.66171ZM108.295 11.5607H109.895V12.7951H117.003V11.5607H118.604V17.1282H108.286V11.5607H108.295ZM112.892 7.66171C112.892 7.1339 112.696 6.67419 112.33 6.28259C111.938 5.90802 111.487 5.7037 110.951 5.7037C110.406 5.7037 109.955 5.89951 109.572 6.28259C109.18 6.67419 109.001 7.1339 109.001 7.66171C109.001 8.20654 109.18 8.65773 109.572 9.0238C109.955 9.4154 110.406 9.60268 110.951 9.60268C111.478 9.60268 111.938 9.42391 112.33 9.0238C112.696 8.65773 112.892 8.20654 112.892 7.66171ZM117.003 14.1316H109.895V15.7661H117.003V14.1316ZM114.884 6.94661H116.969V4.21392H118.604V11.1861H116.969V8.38532H114.884V6.94661Z" fill="#90929A"/>
<path d="M120.868 12.5482H132.965V14.0039H127.73V17.3921H126.078V14.0039H120.86V12.5482H120.868ZM123.448 6.10382H130.377V4.43526H131.995V10.7775H121.83V4.43526H123.448V6.10382ZM130.377 7.5255H123.448V9.33878H130.377V7.5255Z" fill="#90929A"/>
</svg>
