<svg width="100" height="24" viewBox="0 0 100 24" fill="none" xmlns="http://www.w3.org/2000/svg">
<g clip-path="url(#clip0)">
<path d="M30.6025 12.9048C30.3086 12.9048 29.7364 12.7965 29.7364 12.0232C29.7364 11.3376 30.3086 11.1416 30.6025 11.1416C30.7314 11.1416 33.9948 11.1416 34.1134 11.1416C34.201 11.1416 34.3763 11.0231 34.3763 10.7808C34.3763 10.6725 34.3917 9.39395 34.4227 9.18774C34.4536 8.92481 34.5413 8.3938 35.2888 8.3938C36.0518 8.3938 36.1291 8.92996 36.1704 9.2032C36.191 9.39911 36.1858 10.6313 36.1858 10.755C36.1858 10.8839 36.191 11.1416 36.4488 11.1416C36.6241 11.152 39.8514 11.1416 40.0163 11.1416C40.2896 11.1416 40.8824 11.2654 40.8824 12.0078C40.8824 12.7862 40.2225 12.8584 40.0318 12.8584C39.9338 12.8584 30.7778 12.9151 30.6025 12.9048ZM39.0574 9.75999C38.6501 10.059 38.0573 9.84248 37.9078 9.68266C37.6551 9.49191 35.6651 6.14087 35.5723 6.0223C35.4795 5.90372 35.4538 5.84186 35.3764 5.84186C35.294 5.84186 35.2579 5.90372 35.1651 6.03261C35.0723 6.16149 33.1596 9.296 33.072 9.4352C32.8554 9.74452 32.2935 10.0848 31.7058 9.71875C31.1902 9.35271 31.1954 8.73406 31.4016 8.41958C31.4583 8.33193 34.0102 4.52207 34.1443 4.37771C34.2938 4.2179 34.6341 3.75391 35.361 3.75391C36.0879 3.75391 36.4075 4.19212 36.5519 4.34678C36.7117 4.51691 39.3255 8.59486 39.3564 8.69797C39.5059 9.01761 39.4647 9.45582 39.0574 9.75999Z" fill="white"/>
<path d="M47.7441 10.8426C47.5379 10.9509 46.8109 11.1056 46.5016 10.6416C46.2387 10.2498 45.089 6.89873 45.0426 6.78016C44.9911 6.66158 44.955 6.60487 44.9241 6.60487C44.8828 6.60487 44.8364 6.66158 44.7849 6.76469C44.7333 6.87295 43.4857 10.0899 43.3362 10.3941C43.0165 10.9406 42.5062 11.1262 42.0422 10.92C41.3823 10.6261 41.4854 9.81155 41.6297 9.46614C41.6761 9.34756 43.4393 5.38303 43.5991 5.17682C43.7435 4.98091 44.1198 4.36741 44.8467 4.36741C45.6819 4.36741 46.017 4.84171 46.1974 5.14588C46.316 5.3521 48.0173 9.32179 48.105 9.77546C48.239 10.4302 47.9915 10.7189 47.7441 10.8426ZM51.1312 11.1365C50.9817 11.6727 50.3888 11.6881 50.2084 11.7036C49.9609 11.7242 49.2649 11.6314 49.234 10.7756C49.2237 10.5385 49.1824 5.15619 49.1824 4.91904C49.1824 4.21275 49.7805 4.00653 50.0692 4.00653C50.9198 4.00653 51.0848 4.62518 51.09 5.02215C51.0951 5.33148 51.1003 6.26977 51.1003 6.26977C51.1003 6.26977 51.0796 6.66158 51.3271 6.66158C51.4251 6.66158 52.1417 6.66158 52.2602 6.66158C53.0026 6.66158 53.1624 7.29054 53.1624 7.60503C53.1624 8.28554 52.5799 8.46598 52.3376 8.46598C52.2242 8.46598 51.4818 8.46598 51.3374 8.49692C51.3168 8.50723 51.1312 8.54847 51.1312 8.79078C51.1364 8.99699 51.1879 10.9303 51.1312 11.1365Z" fill="white"/>
<path d="M53.9047 11.5695C53.1778 11.5695 53.0386 10.9148 53.0386 10.688C53.0386 10.4714 53.1933 9.80638 53.9047 9.80638C54.0336 9.80638 56.4103 9.83732 56.4928 9.83732C56.6732 9.83732 56.7609 9.78061 56.7712 9.55892C56.7815 9.24444 56.833 8.08962 56.833 8.01745C56.833 7.55346 57.2558 7.32662 57.6373 7.32662C57.8435 7.32662 58.0343 7.37302 58.2147 7.5019C58.3951 7.63079 58.5292 7.83185 58.5601 8.12056C58.5807 8.33709 58.5034 9.41457 58.5086 9.53315C58.524 9.7703 58.689 9.81154 58.7406 9.81154C59.0911 9.81154 63.1794 9.79607 63.3444 9.79607C64.0867 9.79607 64.2208 10.5075 64.2208 10.7241C64.2311 10.9406 64.0455 11.4767 63.3444 11.5335C63.0505 11.5489 54.0852 11.5695 53.9047 11.5695ZM62.3339 8.54846C62.3339 8.98151 62.1638 9.46613 61.3286 9.46613C61.1739 9.46613 60.6274 9.48159 60.4573 8.88872C60.3697 8.57939 60.4109 6.50691 60.4109 6.42442C60.4109 6.17696 60.2975 5.93981 60.0346 5.93981C59.916 5.95012 55.7401 6.00167 55.6215 5.98621C54.8946 5.94496 54.7554 5.32115 54.7554 5.10463C54.7554 4.87779 54.874 4.22305 55.6215 4.22305C55.6885 4.22305 60.8749 4.21789 60.9832 4.20758C61.4214 4.20758 61.7513 4.33647 61.9679 4.58908C62.1844 4.8417 62.2978 5.1768 62.3184 5.58924C62.3287 5.67172 62.3339 8.49175 62.3339 8.54846Z" fill="white"/>
<path d="M69.3613 17.4931C68.9489 17.5138 68.5983 17.3952 68.3044 17.1477C68.0106 16.9003 67.8714 16.4363 67.892 15.7609C67.892 15.7609 67.8868 13.0801 67.892 12.977C67.9126 12.2088 68.5931 12.1057 68.789 12.1057C69.5108 12.1057 69.8304 12.6058 69.8304 13.1368C69.8304 13.2244 69.815 15.2351 69.815 15.3536C69.815 15.6166 69.9645 15.6681 70.1501 15.6733C70.2583 15.6784 74.0991 15.6269 74.2177 15.6269C74.8158 15.6269 75.0374 16.1579 75.0374 16.5394C75.0374 16.9003 74.8467 17.4725 74.2177 17.4777C73.996 17.4777 69.5005 17.4931 69.3613 17.4931ZM74.7487 11.8428C74.692 12.6161 74.1198 12.7914 73.9393 12.8068C73.5578 12.8326 72.8103 12.678 72.8103 11.8943C72.8103 11.6623 72.7742 5.12008 72.7794 4.88809C72.8 4.17664 73.3774 4.03229 73.6661 4.03229C73.9548 4.03229 74.6972 4.14571 74.759 5.0376C74.7848 5.31599 74.7539 11.7448 74.7487 11.8428Z" fill="white"/>
<path d="M78.0687 11.1107C77.6976 11.1004 76.9552 11.0644 76.9552 9.91469C76.9552 9.76003 76.9397 5.7491 76.9397 5.65114C76.9088 5.30057 77.0016 5.00156 77.2129 4.7541C77.4243 4.51179 77.7285 4.41899 78.1306 4.4293C78.4193 4.43961 81.4146 4.4293 81.5538 4.4293C82.6004 4.4293 82.6519 5.10467 82.6674 5.39337C82.6777 5.56866 82.719 9.63629 82.7138 9.76003C82.7138 10.0848 82.755 11.1262 81.5538 11.1262C81.4868 11.1262 78.1667 11.1314 78.0687 11.1107ZM80.9352 6.4193C80.9352 6.04296 80.698 6.02233 80.6465 6.02233C80.497 6.01718 79.007 6.04296 78.94 6.04296C78.7441 6.04296 78.6822 6.21308 78.6771 6.34197C78.6719 6.47086 78.6926 9.09497 78.6926 9.22386C78.6926 9.3115 78.739 9.36821 78.8936 9.36821C79.0483 9.36821 80.5073 9.37337 80.7444 9.37337C80.9249 9.37337 80.9146 9.25479 80.9197 9.18262C80.93 8.58459 80.9352 6.5585 80.9352 6.4193ZM85.8792 13.3379C85.8792 13.771 85.6575 14.3587 85.0286 14.3587C84.08 14.3587 83.9253 13.606 83.9253 13.5183C83.915 13.4307 83.9099 5.22324 83.9047 4.89329C83.8995 4.5685 83.9614 4.32104 84.0903 4.16638C84.2553 3.97047 84.4976 3.87767 84.8172 3.89314C85.1369 3.9086 85.4101 3.96531 85.6163 4.17669C85.7143 4.28495 85.8535 4.49117 85.8638 5.26964C85.8638 5.40884 85.8535 6.24917 85.8535 6.33682C85.8638 6.37806 85.8122 6.62036 86.0751 6.62036C86.3535 6.62036 87.0289 6.61005 87.2145 6.62036C87.8692 6.66161 88.0084 7.24933 88.0084 7.64114C88.0084 8.08451 87.6579 8.5021 87.2454 8.53303C87.1268 8.5485 86.1112 8.56396 86.0958 8.56396C86.0339 8.57943 85.8174 8.56912 85.8277 8.93516C85.8277 9.15168 85.8792 13.2451 85.8792 13.3379Z" fill="white"/>
<path d="M90.3126 10.9973C89.8125 10.9973 88.8433 11.0231 88.8433 9.51773C88.8433 9.38369 88.8381 5.646 88.8588 5.5068C88.8588 5.22841 89.0598 4.56851 89.9465 4.56851C90.0342 4.56851 93.4574 4.58398 93.545 4.58398C94.3132 4.58398 94.4163 5.22841 94.4266 5.43462C94.4266 5.65115 94.2307 6.28527 93.545 6.28527C93.3749 6.28527 91.1993 6.28527 91.1271 6.28527C90.8333 6.28527 90.7353 6.38322 90.6941 6.55335C90.6838 6.60491 90.6786 8.79081 90.6786 8.90939C90.6786 9.28058 90.9725 9.23933 91.0034 9.23933C91.1581 9.23933 94.1482 9.18778 94.2049 9.18778C95.0247 9.18778 95.1432 9.81159 95.1432 10.0487C95.1432 10.2962 94.9576 10.987 94.1482 10.987C94.0657 10.9767 90.5549 10.9973 90.3126 10.9973ZM98.2932 8.44024C98.2623 8.44024 97.9839 8.47118 97.9787 8.74957C97.9736 8.85783 98.0509 10.3168 97.9787 10.7808C97.9375 11.0489 97.8292 11.6263 97.092 11.6366C96.4836 11.6469 96.1485 11.2242 96.1485 10.7911C96.1485 10.6725 96.0815 5.07374 96.0815 4.80566C96.0815 4.19732 96.6383 4.02203 96.9322 4.02203C97.7828 4.02203 97.9632 4.60975 97.9736 4.72317C97.9942 4.99126 98.0251 5.92439 97.9993 6.24918C97.9839 6.43993 98.0612 6.47602 98.2674 6.47602C98.3087 6.47602 98.8087 6.47602 99.0459 6.47602C99.6955 6.47602 99.9945 7.03281 99.9997 7.34213C100.01 7.80097 99.7831 8.3062 99.2779 8.38869C99.1181 8.40931 98.4685 8.45055 98.2932 8.44024Z" fill="white"/>
<path d="M47.8634 17.8489C46.1775 17.8489 44.801 16.4776 44.801 14.7866C44.801 13.1007 46.1724 11.7242 47.8634 11.7242C49.5492 11.7242 50.9257 13.0956 50.9257 14.7866C50.9257 16.4776 49.5492 17.8489 47.8634 17.8489ZM47.8634 13.3998C47.0952 13.3998 46.4714 14.0236 46.4714 14.7917C46.4714 15.5599 47.0952 16.1837 47.8634 16.1837C48.6315 16.1837 49.2553 15.5599 49.2553 14.7917C49.2553 14.0236 48.6315 13.3998 47.8634 13.3998Z" fill="white"/>
<path d="M58.7924 17.8489C57.1066 17.8489 55.7301 16.4776 55.7301 14.7866C55.7301 13.1007 57.1014 11.7242 58.7924 11.7242C60.4834 11.7242 61.8548 13.0956 61.8548 14.7866C61.8548 16.4776 60.4783 17.8489 58.7924 17.8489ZM58.7924 13.3998C58.0243 13.3998 57.4005 14.0236 57.4005 14.7917C57.4005 15.5599 58.0243 16.1837 58.7924 16.1837C59.5606 16.1837 60.1844 15.5599 60.1844 14.7917C60.1844 14.0236 59.5554 13.3998 58.7924 13.3998Z" fill="white"/>
<path d="M94.8392 17.8076C93.1534 17.8076 91.7769 16.4363 91.7769 14.7453C91.7769 13.0595 93.1483 11.683 94.8392 11.683C96.5251 11.683 97.9016 13.0543 97.9016 14.7453C97.8964 16.4363 96.5251 17.8076 94.8392 17.8076ZM94.8392 13.3585C94.0711 13.3585 93.4473 13.9823 93.4473 14.7505C93.4473 15.5186 94.0711 16.1424 94.8392 16.1424C95.6074 16.1424 96.2312 15.5186 96.2312 14.7505C96.2261 13.9823 95.6023 13.3585 94.8392 13.3585Z" fill="white"/>
<path d="M68.1391 10.6983C66.3707 10.6983 64.9324 9.25991 64.9324 7.49159C64.9324 5.72328 66.3707 4.28491 68.1391 4.28491C69.9074 4.28491 71.3457 5.72328 71.3457 7.49159C71.3509 9.25991 69.9125 10.6983 68.1391 10.6983ZM68.1391 6.03261C67.3348 6.03261 66.6801 6.68735 66.6801 7.49159C66.6801 8.29584 67.3348 8.95058 68.1391 8.95058C68.9433 8.95058 69.598 8.29584 69.598 7.49159C69.598 6.68735 68.9433 6.03261 68.1391 6.03261Z" fill="white"/>
<path d="M18.0286 0.830811H13.8527C9.36233 0.830811 5.71228 4.48086 5.71228 8.97124V9.34244C5.71228 9.46617 5.72775 9.58474 5.7329 9.70332H10.909C10.8935 9.58474 10.8832 9.46617 10.8832 9.34244V8.97124C10.8832 7.33182 12.2184 6.00171 13.8527 6.00171H18.0286C19.668 6.00171 20.9981 7.33697 20.9981 8.97124V9.34244C20.9981 10.9819 19.6629 12.312 18.0286 12.312H14.1672V17.4829H18.0286C22.519 17.4829 26.1691 13.8328 26.1691 9.34244V8.97124C26.1691 4.48086 22.5138 0.830811 18.0286 0.830811Z" fill="#3381C4"/>
<path d="M14.1001 12.3222H10.8831V9.1104C10.8831 7.69266 9.73346 6.53784 8.31056 6.53784C6.88766 6.53784 5.738 7.69266 5.738 9.1104V12.3222H2.57256C1.14966 12.3222 0 13.4719 0 14.8896C0 16.3125 1.14966 17.4622 2.57256 17.4622H5.738V20.5967C5.738 22.0145 6.88766 23.1693 8.31056 23.1693C9.73346 23.1693 10.8831 22.0145 10.8831 20.5967V17.4622H14.1001C15.523 17.4622 16.6727 16.3125 16.6727 14.8896C16.6727 13.4719 15.523 12.3222 14.1001 12.3222Z" fill="#F47D1F"/>
</g>
<defs>
<clipPath id="clip0">
<rect width="100" height="22.3385" fill="white" transform="translate(0 0.830811)"/>
</clipPath>
</defs>
</svg>
