<svg width="85" height="83" viewBox="0 0 85 83" fill="none" xmlns="http://www.w3.org/2000/svg">
<path fill-rule="evenodd" clip-rule="evenodd" d="M54.0694 31.298L80.5775 3.22948L49.0411 0L54.0694 31.298ZM51.2548 2.09085L76.6437 4.69075L55.303 27.2906L51.2548 2.09085Z" fill="#1C1A54"/>
<path fill-rule="evenodd" clip-rule="evenodd" d="M60.6705 34.8495L84.5944 9.5153L56.1327 6.60107L60.6705 34.8495Z" fill="#F62D44"/>
<path opacity="0.2" fill-rule="evenodd" clip-rule="evenodd" d="M1.35092 66.071L26.1598 77.0862L20.9298 55.4214L1.35092 66.071ZM24.2705 74.821L4.29626 65.9525L20.0599 57.3788L24.2705 74.821Z" fill="#1C1A54"/>
<path opacity="0.4" fill-rule="evenodd" clip-rule="evenodd" d="M61.7144 75.0711L74.3104 61.7337L59.3251 60.1991L61.7144 75.0711ZM60.3769 61.1926L72.4411 62.428L62.3005 73.1669L60.3769 61.1926Z" fill="#1C1A54"/>
<path fill-rule="evenodd" clip-rule="evenodd" d="M64.6319 76.7588L76 64.7206L62.4757 63.3359L64.6319 76.7588Z" fill="#F62D44"/>
</svg>
