<svg width="318" height="63" viewBox="0 0 318 63" fill="none" xmlns="http://www.w3.org/2000/svg">
<path d="M128.465 47.7651H121.593V46.6778H124.41V45.2744H125.673V46.6778H128.465V47.7651ZM125.004 52.5062C124.576 52.5156 124.149 52.4558 123.74 52.3292C123.427 52.2284 123.136 52.0698 122.881 51.8614C122.674 51.6911 122.51 51.4746 122.401 51.2293C122.315 51.0116 122.268 50.7805 122.262 50.5465V50.1799C122.267 49.9499 122.314 49.7227 122.401 49.5098C122.509 49.2606 122.674 49.0399 122.881 48.865C123.136 48.6567 123.427 48.498 123.74 48.3972C124.6 48.1611 125.508 48.1611 126.368 48.3972C126.681 48.498 126.973 48.6567 127.227 48.865C127.435 49.0399 127.599 49.2606 127.707 49.5098C127.794 49.7227 127.841 49.9499 127.846 50.1799V50.5465C127.84 50.7805 127.793 51.0116 127.707 51.2293C127.599 51.4746 127.434 51.6911 127.227 51.8614C126.973 52.0698 126.681 52.2284 126.368 52.3292C125.927 52.467 125.465 52.5269 125.004 52.5062V52.5062ZM125.004 51.4821C125.256 51.492 125.508 51.4578 125.749 51.381C125.93 51.3342 126.098 51.2478 126.242 51.1281C126.348 51.0374 126.434 50.9254 126.494 50.7994C126.542 50.6962 126.568 50.5843 126.57 50.4707V50.2684C126.568 50.1507 126.542 50.0347 126.494 49.927C126.434 49.801 126.348 49.689 126.242 49.5983C126.098 49.4867 125.935 49.4012 125.762 49.3455C125.265 49.2106 124.742 49.2106 124.246 49.3455C124.072 49.4012 123.91 49.4867 123.766 49.5983C123.659 49.689 123.573 49.801 123.513 49.927C123.462 50.034 123.432 50.1499 123.425 50.2684V50.4707C123.432 50.5851 123.462 50.6968 123.513 50.7994C123.573 50.9254 123.659 51.0374 123.766 51.1281C123.907 51.2443 124.07 51.3304 124.246 51.381C124.491 51.4545 124.748 51.4844 125.004 51.4695V51.4821ZM130.878 53.2774V57.4243H123.614V53.2648L130.878 53.2774ZM124.89 56.2991H129.64V54.3268H124.89V56.2991ZM132.609 49.611H130.916V52.6579H129.653V45.4261H130.916V48.5237H132.584L132.609 49.611Z" fill="#B4B4B5"/>
<path d="M132.976 53.2649C133.317 52.873 133.607 52.519 133.847 52.2156C134.087 51.9121 134.289 51.6466 134.454 51.4064C134.593 51.1865 134.72 50.9585 134.833 50.7237C134.917 50.5145 134.985 50.2989 135.035 50.0789C135.074 49.8446 135.099 49.6082 135.111 49.3709C135.111 49.118 135.111 48.8272 135.111 48.5112V47.702H133.519V46.6147H136.374V48.5491C136.374 48.9284 136.374 49.2697 136.374 49.5605C136.36 49.8408 136.327 50.1196 136.273 50.395C136.206 50.6532 136.121 50.9067 136.02 51.1535C135.889 51.422 135.737 51.6798 135.565 51.9248C135.372 52.1945 135.144 52.4979 134.883 52.8351L133.898 53.9856L132.976 53.2649ZM135.666 54.2511C135.995 53.8086 136.285 53.4293 136.513 53.1006C136.74 52.7719 136.955 52.4937 137.119 52.2282C137.266 52.0057 137.396 51.7733 137.511 51.5328C137.605 51.3261 137.677 51.11 137.726 50.888C137.784 50.6601 137.822 50.4274 137.839 50.1927C137.839 49.9398 137.839 49.6617 137.839 49.3456V47.702H136.715V46.6147H139.002V49.8134H140.265V45.6791H141.427V56.8302H140.252V50.926H138.901C138.852 51.2149 138.775 51.4985 138.673 51.7731C138.558 52.0729 138.414 52.3609 138.244 52.6328C138.054 52.9362 137.827 53.2649 137.549 53.6442C137.271 54.0235 136.917 54.4534 136.5 54.9085L135.666 54.2511ZM143.752 57.4118H142.551V45.4263H143.752V57.4118Z" fill="#B4B4B5"/>
<path d="M150.346 53.0247H150.99C151.849 53.0247 152.62 53.0247 153.34 52.9362C154.06 52.8477 154.768 52.7971 155.475 52.6834L155.614 53.7833C155.235 53.8591 154.856 53.9097 154.477 53.9603C154.098 54.0109 153.732 54.0488 153.34 54.0741H152.077C151.647 54.0741 151.192 54.0741 150.712 54.0741H149.02V46.3492H150.283L150.346 53.0247ZM159.568 50.8122H157.711V57.4118H156.448V45.4263H157.711V49.687H159.568V50.8122Z" fill="#B4B4B5"/>
<path d="M165.013 57.412V53.2146H160.162V52.1273H171.153V53.2146H166.314V57.412H165.013ZM162.967 45.8311V49.5228H169.7V50.6101H161.703V45.8311H162.967Z" fill="#B4B4B5"/>
<path d="M182.977 51.4822V52.5822H171.986V51.4822H182.977ZM174.854 56.1601H181.625V57.2854H173.565V53.6695H174.829L174.854 56.1601ZM174.917 45.894V49.0169H181.398V50.1042H173.654V45.894H174.917Z" fill="#B4B4B5"/>
<path d="M187.563 54.2258V46.463H188.827V49.2445H191.139V46.463H192.402V54.2258H187.563ZM188.827 53.1385H191.139V50.3444H188.827V53.1385ZM197.506 57.4118H196.242V50.926H194.891V56.8302H193.627V45.6791H194.891V49.8134H196.242V45.4263H197.506V57.4118Z" fill="#B4B4B5"/>
<path d="M198.87 52.1018V51.0019H209.861V52.1018H205.022V53.2903H208.294V57.3992H200.449V53.2903H203.721V52.1018H198.87ZM204.366 45.5907C204.892 45.5854 205.417 45.6363 205.932 45.7424C206.374 45.8059 206.802 45.9471 207.195 46.1596C207.507 46.316 207.779 46.5407 207.991 46.8171C208.173 47.0808 208.27 47.3941 208.269 47.7147V48.0814C208.268 48.4016 208.171 48.7143 207.991 48.979C207.779 49.2554 207.507 49.4801 207.195 49.6365C206.802 49.849 206.374 49.9902 205.932 50.0537C205.416 50.1552 204.891 50.2018 204.366 50.1927C203.84 50.2009 203.315 50.1543 202.799 50.0537C202.358 49.9856 201.931 49.8446 201.536 49.6365C201.23 49.4765 200.963 49.2522 200.752 48.979C200.566 48.7172 200.469 48.4026 200.475 48.0814V47.7147C200.467 47.3932 200.565 47.0781 200.752 46.8171C200.963 46.5439 201.23 46.3196 201.536 46.1596C201.931 45.9515 202.358 45.8105 202.799 45.7424C203.314 45.6376 203.84 45.5867 204.366 45.5907V45.5907ZM207.018 54.4408H201.725V56.2993H207.018V54.4408ZM204.366 49.1813C204.716 49.1831 205.067 49.1577 205.414 49.1055C205.693 49.0667 205.965 48.9902 206.223 48.8779C206.426 48.8035 206.611 48.6872 206.766 48.5365C206.887 48.4159 206.955 48.2522 206.955 48.0814V47.8159C206.952 47.6456 206.884 47.4828 206.766 47.3607C206.608 47.21 206.424 47.09 206.223 47.0067C205.962 46.9048 205.691 46.8327 205.414 46.7918C205.067 46.7395 204.716 46.7142 204.366 46.7159C204.019 46.7137 203.672 46.739 203.33 46.7918C203.049 46.8345 202.774 46.9065 202.508 47.0067C202.311 47.09 202.131 47.2101 201.978 47.3607C201.859 47.4828 201.791 47.6456 201.788 47.8159V48.0814C201.789 48.2522 201.857 48.4159 201.978 48.5365C202.128 48.6872 202.309 48.8036 202.508 48.8779C202.771 48.9884 203.047 49.0649 203.33 49.1055C203.674 49.1413 204.02 49.1498 204.366 49.1307V49.1813Z" fill="#B4B4B5"/>
<path d="M211.578 54.9087H213.069L212.071 57.8672H211.035L211.578 54.9087Z" fill="#B4B4B5"/>
<path d="M224.805 47.7651H217.933V46.6778H220.737V45.2744H222V46.6778H224.805V47.7651ZM221.344 52.5062C220.916 52.5147 220.489 52.455 220.08 52.3292C219.768 52.2256 219.477 52.0672 219.221 51.8614C219.018 51.6906 218.857 51.474 218.754 51.2293C218.658 51.0142 218.606 50.782 218.602 50.5465V50.1799C218.605 49.9484 218.657 49.7201 218.754 49.5098C218.857 49.2612 219.017 49.0404 219.221 48.865C219.477 48.6593 219.768 48.5009 220.08 48.3972C220.491 48.2773 220.916 48.2176 221.344 48.2202C221.771 48.2167 222.197 48.2764 222.607 48.3972C222.923 48.501 223.218 48.6593 223.479 48.865C223.683 49.0404 223.843 49.2612 223.946 49.5098C224.039 49.7208 224.086 49.9492 224.085 50.1799V50.5465C224.085 50.7812 224.038 51.0135 223.946 51.2293C223.842 51.474 223.682 51.6906 223.479 51.8614C223.218 52.0671 222.923 52.2255 222.607 52.3292C222.198 52.4558 221.771 52.5156 221.344 52.5062V52.5062ZM221.344 51.4821C221.596 51.4931 221.848 51.4588 222.089 51.381C222.27 51.3342 222.438 51.2478 222.582 51.1281C222.691 51.0377 222.782 50.9258 222.847 50.7994C222.895 50.6962 222.92 50.5843 222.923 50.4707V50.2684C222.92 50.1507 222.895 50.0347 222.847 49.927C222.782 49.8006 222.691 49.6887 222.582 49.5983C222.439 49.4841 222.276 49.3983 222.102 49.3455C221.855 49.2735 221.6 49.2393 221.344 49.2443C221.091 49.2388 220.84 49.273 220.598 49.3455C220.422 49.394 220.258 49.4802 220.118 49.5983C220.005 49.6852 219.914 49.7979 219.853 49.927C219.805 50.0347 219.779 50.1507 219.777 50.2684V50.4707C219.779 50.5843 219.805 50.6962 219.853 50.7994C219.914 50.9285 220.005 51.0412 220.118 51.1281C220.256 51.2495 220.42 51.3362 220.598 51.381C220.839 51.4554 221.092 51.4853 221.344 51.4695V51.4821ZM227.218 53.2774V57.4243H219.916V53.2648L227.218 53.2774ZM221.192 56.2991H225.942V54.3268H221.192V56.2991ZM228.923 49.611H227.218V52.6579H225.955V45.4261H227.218V48.5237H228.923V49.611Z" fill="#B4B4B5"/>
<path d="M229.29 53.2649L230.149 52.2156C230.371 51.9615 230.574 51.691 230.755 51.4064C230.9 51.1894 231.027 50.9611 231.134 50.7237C231.225 50.5166 231.292 50.3004 231.337 50.0789C231.38 49.8449 231.41 49.6084 231.425 49.3709C231.425 49.118 231.425 48.8272 231.425 48.5112V47.702H229.859V46.6147H232.638V48.5491C232.638 48.9284 232.638 49.2697 232.638 49.5605C232.614 49.8404 232.576 50.1189 232.524 50.395C232.469 50.6565 232.384 50.911 232.271 51.1535C232.14 51.422 231.988 51.6798 231.817 51.9248C231.64 52.1945 231.412 52.4979 231.134 52.8351C230.857 53.1638 230.541 53.5431 230.149 53.9856L229.29 53.2649ZM231.968 54.2511L232.827 53.1006C233.063 52.7887 233.265 52.4979 233.434 52.2282C233.581 52.0085 233.708 51.7758 233.813 51.5328C233.911 51.3264 233.987 51.1103 234.04 50.888C234.094 50.6597 234.128 50.427 234.141 50.1927C234.141 49.9398 234.141 49.6617 234.141 49.3456V47.702H233.029V46.6147H235.316V49.8134H236.579V45.6791H237.754V56.8302H236.579V50.926H235.24C235.179 51.2122 235.104 51.4949 235.013 51.7731C234.893 52.0706 234.749 52.3581 234.583 52.6328C234.394 52.9362 234.154 53.2649 233.876 53.6442C233.598 54.0235 233.244 54.4534 232.827 54.9085L231.968 54.2511ZM240.053 57.4118H238.853V45.4263H240.053V57.4118Z" fill="#B4B4B5"/>
<path d="M248.315 49.5985C248.239 49.7722 248.132 49.9307 247.999 50.0663C247.83 50.2712 247.644 50.4616 247.443 50.6352C247.178 50.8881 246.862 51.1662 246.509 51.4696L245.46 52.3293L244.689 51.4191C245.106 51.103 245.498 50.7743 245.877 50.4582C246.256 50.1421 246.559 49.864 246.787 49.6364C246.932 49.4905 247.068 49.3342 247.191 49.1686C247.293 49.0211 247.382 48.8646 247.456 48.7008C247.517 48.5333 247.56 48.3594 247.582 48.1825C247.597 47.9804 247.597 47.7776 247.582 47.5756V45.9573H248.846V47.525C248.846 47.7147 248.846 47.9043 248.846 48.056C248.854 48.211 248.884 48.3642 248.934 48.5112C248.976 48.655 249.04 48.7915 249.124 48.9157C249.232 49.0701 249.359 49.2102 249.503 49.333C249.806 49.5985 250.134 49.8893 250.488 50.18C250.842 50.4708 251.221 50.749 251.612 51.0271L250.867 51.9248L249.894 51.1788L248.972 50.4076C248.797 50.2683 248.632 50.1161 248.479 49.9525C248.375 49.85 248.29 49.7302 248.227 49.5985H248.315ZM247.305 54.9591C247.3 54.6456 247.388 54.3378 247.557 54.0741C247.74 53.7792 247.986 53.5287 248.277 53.3408C248.636 53.1192 249.029 52.957 249.44 52.8604C249.943 52.7319 250.461 52.6724 250.981 52.6834C251.5 52.6731 252.018 52.7327 252.522 52.8604C252.929 52.9559 253.318 53.1183 253.672 53.3408C253.964 53.5319 254.213 53.7816 254.404 54.0741C254.568 54.3404 254.655 54.6465 254.657 54.9591V55.4775C254.655 55.7901 254.568 56.0962 254.404 56.3625C254.216 56.6538 253.966 56.8999 253.672 57.0831C253.321 57.3143 252.931 57.4812 252.522 57.5762C252.017 57.6977 251.5 57.7571 250.981 57.7532C250.462 57.7578 249.944 57.6983 249.44 57.5762C249.026 57.4811 248.633 57.3142 248.277 57.0831C247.984 56.9034 247.737 56.6564 247.557 56.3625C247.388 56.0988 247.3 55.7909 247.305 55.4775V54.9591ZM253.394 55.0349C253.391 54.8653 253.333 54.7012 253.229 54.5672C253.1 54.3967 252.936 54.2547 252.749 54.1499C252.512 54.0143 252.257 53.9122 251.991 53.8465C251.66 53.7669 251.321 53.7287 250.981 53.7327C250.645 53.7287 250.309 53.7669 249.983 53.8465C249.716 53.9077 249.46 54.0101 249.225 54.1499C249.035 54.2511 248.871 54.3937 248.745 54.5672C248.641 54.7012 248.583 54.8653 248.58 55.0349V55.4016C248.585 55.5709 248.642 55.7345 248.745 55.8694C248.875 56.0394 249.038 56.1813 249.225 56.2866C249.46 56.4265 249.716 56.5288 249.983 56.59C250.309 56.6696 250.645 56.7078 250.981 56.7038C251.321 56.7078 251.66 56.6696 251.991 56.59C252.257 56.5243 252.512 56.4222 252.749 56.2866C252.933 56.1779 253.096 56.0365 253.229 55.8694C253.332 55.7345 253.389 55.5709 253.394 55.4016V55.0349ZM253.33 52.5063V49.118H250.93V48.0307H253.33V45.4263H254.594V52.5063H253.33Z" fill="#B4B4B5"/>
<path d="M260.178 49.7755C260.096 49.9456 259.99 50.1031 259.863 50.2433C259.69 50.4411 259.504 50.627 259.307 50.7995C259.029 51.0398 258.713 51.2926 258.372 51.5581C258.031 51.8236 257.677 52.0891 257.323 52.342L256.565 51.4191C256.982 51.1283 257.374 50.8375 257.728 50.5593C258.081 50.2812 258.397 50.0157 258.625 49.8008C258.767 49.6561 258.902 49.5042 259.029 49.3456C259.139 49.2028 259.228 49.0454 259.294 48.8778C259.36 48.7098 259.41 48.5363 259.446 48.3595C259.46 48.149 259.46 47.9378 259.446 47.7273V47.2722H256.919V46.1849H263.109V47.2722H260.734V47.6767C260.734 47.879 260.734 48.0687 260.734 48.233C260.753 48.3877 260.787 48.5401 260.835 48.6882C260.885 48.8313 260.953 48.9673 261.038 49.0927C261.141 49.2317 261.26 49.3589 261.391 49.472C261.697 49.7542 262.018 50.02 262.351 50.2685C262.68 50.5214 263.046 50.7743 263.438 51.0271L262.705 51.9627L261.758 51.28L260.848 50.5467C260.659 50.3823 260.494 50.2433 260.368 50.1168C260.262 50.0212 260.176 49.9051 260.115 49.7755H260.178ZM258.751 54.9464C258.748 54.635 258.831 54.3287 258.991 54.0614C259.174 53.7666 259.42 53.5161 259.711 53.3281C260.062 53.105 260.445 52.9386 260.848 52.8351C261.841 52.5991 262.875 52.5991 263.867 52.8351C264.27 52.9386 264.654 53.105 265.004 53.3281C265.296 53.5161 265.542 53.7666 265.724 54.0614C265.884 54.3287 265.967 54.635 265.964 54.9464V55.4648C265.967 55.7763 265.884 56.0825 265.724 56.3498C265.545 56.6437 265.298 56.8907 265.004 57.0705C264.659 57.3039 264.274 57.4711 263.867 57.5635C262.877 57.8161 261.839 57.8161 260.848 57.5635C260.442 57.4711 260.056 57.3039 259.711 57.0705C259.417 56.8907 259.171 56.6437 258.991 56.3498C258.831 56.0825 258.748 55.7763 258.751 55.4648V54.9464ZM264.714 55.0223C264.704 54.8502 264.647 54.6841 264.55 54.5419C264.421 54.3749 264.262 54.2334 264.082 54.1247C263.85 53.9869 263.599 53.8846 263.337 53.8212C262.697 53.6695 262.031 53.6695 261.391 53.8212C261.129 53.8846 260.878 53.9869 260.646 54.1247C260.466 54.2334 260.307 54.3749 260.178 54.5419C260.081 54.6841 260.024 54.8502 260.014 55.0223V55.3889C260.023 55.5575 260.08 55.72 260.178 55.8567C260.303 56.0309 260.462 56.1773 260.646 56.2866C260.881 56.4148 261.131 56.5125 261.391 56.5774C262.029 56.7468 262.699 56.7468 263.337 56.5774C263.596 56.5125 263.847 56.4148 264.082 56.2866C264.266 56.1773 264.425 56.0309 264.55 55.8567C264.648 55.72 264.705 55.5575 264.714 55.3889V55.0223ZM264.638 52.4937V45.4263H265.901V48.3215H267.607V49.4467H265.901V52.5063L264.638 52.4937Z" fill="#B4B4B5"/>
<path d="M271.207 47.1963V45.5021H272.47V47.1963H275.262V48.2836H268.339V47.1963H271.207ZM271.838 54.7821C271.407 54.7976 270.977 54.7244 270.575 54.5672C270.238 54.4384 269.929 54.2452 269.665 53.9982C269.422 53.7753 269.229 53.504 269.097 53.2017C268.975 52.9047 268.911 52.5872 268.907 52.2661V51.5202C268.908 51.1989 268.972 50.8808 269.097 50.5846C269.231 50.2801 269.424 50.0051 269.665 49.7755C269.929 49.5285 270.238 49.3353 270.575 49.2065C270.977 49.0492 271.407 48.9761 271.838 48.9916C272.27 48.9731 272.7 49.0464 273.102 49.2065C273.444 49.3323 273.758 49.5258 274.024 49.7755C274.268 50.002 274.462 50.2778 274.592 50.5846C274.717 50.8808 274.781 51.1989 274.782 51.5202V52.2661C274.779 52.5872 274.714 52.9047 274.592 53.2017C274.465 53.5066 274.271 53.7788 274.024 53.9982C273.758 54.2479 273.444 54.4414 273.102 54.5672C272.697 54.7101 272.266 54.7661 271.838 54.7315V54.7821ZM271.838 50.0789C271.61 50.0626 271.38 50.0923 271.163 50.1661C270.946 50.2399 270.746 50.3564 270.575 50.5088C270.423 50.6578 270.303 50.8373 270.225 51.0355C270.147 51.2338 270.111 51.4463 270.12 51.6593V52.1271C270.109 52.3383 270.145 52.5494 270.223 52.7458C270.302 52.9422 270.422 53.1193 270.575 53.2649C270.931 53.5566 271.378 53.7159 271.838 53.7159C272.299 53.7159 272.745 53.5566 273.102 53.2649C273.255 53.1193 273.375 52.9422 273.453 52.7458C273.532 52.5494 273.567 52.3383 273.556 52.1271V51.6593C273.566 51.4463 273.53 51.2338 273.451 51.0355C273.373 50.8373 273.254 50.6578 273.102 50.5088C272.939 50.3382 272.742 50.2031 272.525 50.1118C272.308 50.0204 272.074 49.9748 271.838 49.9778V50.0789ZM279.519 51.3432H277.662V57.4498H276.399V45.4263H277.662V50.18H279.519V51.3432Z" fill="#B4B4B5"/>
<path d="M291.104 51.4822V52.5822H280.113V51.4822H291.104ZM282.981 56.1601H289.752V57.2854H281.655V53.6695H282.918L282.981 56.1601ZM283.044 45.894V49.0169H289.538V50.1042H281.781V45.894H283.044Z" fill="#B4B4B5"/>
<path d="M295.689 53.7706C296.384 53.3661 296.953 52.9994 297.445 52.6834C297.862 52.4155 298.262 52.1242 298.646 51.811C298.928 51.5991 299.182 51.3528 299.404 51.0777C299.573 50.8681 299.71 50.6336 299.808 50.3823C299.905 50.1532 299.965 49.9099 299.985 49.6617C299.985 49.4088 299.985 49.1307 299.985 48.8146V47.6388H295.892V46.5389H301.261V48.8272C301.261 49.2192 301.261 49.5732 301.261 49.8892C301.238 50.1956 301.174 50.4975 301.071 50.7869C300.95 51.0829 300.793 51.3631 300.604 51.6213C300.354 51.9459 300.065 52.2388 299.745 52.4937C299.305 52.8646 298.846 53.2107 298.368 53.5304C297.824 53.8971 297.104 54.3269 296.359 54.7947L295.689 53.7706ZM303.825 57.4118V45.4263H305.088V57.4118H303.825Z" fill="#B4B4B5"/>
<path d="M317.987 51.2422V52.3295H307.009V51.2422H317.987ZM312.113 50.3193H308.184V45.7299H309.447V46.9942H311.013V45.7299H312.163L312.113 50.3193ZM316.42 57.4246H308.575V53.3283H316.42V57.4246ZM309.447 49.232H311.013V47.9677H309.447V49.232ZM315.195 54.403H309.902V56.2994H315.195V54.403ZM316.825 50.294H312.934V45.7046H314.083V46.9689H315.65V45.7046H316.825V50.294ZM314.083 49.232H315.65V47.9677H314.083V49.232Z" fill="#B4B4B5"/>
<g style="mix-blend-mode:multiply">
<path d="M54.372 22.593C59.856 22.593 64.3016 18.1439 64.3016 12.6556C64.3016 7.16738 59.856 2.71826 54.372 2.71826C48.888 2.71826 44.4424 7.16738 44.4424 12.6556C44.4424 18.1439 48.888 22.593 54.372 22.593Z" stroke="#00D594" stroke-width="4.29" stroke-miterlimit="10" stroke-linecap="round"/>
</g>
<g style="mix-blend-mode:multiply">
<path d="M73.0443 60.2566C77.15 60.5853 81.1547 57.728 78.6407 49.0296C77.11 43.7773 73.9184 39.1636 69.5449 35.8809C65.1714 32.5982 59.8521 30.8237 54.3852 30.8237C48.9184 30.8237 43.599 32.5982 39.2255 35.8809C34.852 39.1636 31.6604 43.7773 30.1297 49.0296C27.6031 57.3993 31.6078 60.5853 35.7135 60.2566" stroke="#00D594" stroke-width="4.29" stroke-miterlimit="10" stroke-linecap="round"/>
</g>
<g style="mix-blend-mode:multiply">
<path d="M28.6007 21.7715C28.6007 23.3599 28.1299 24.9125 27.2478 26.2331C26.3658 27.5536 25.1122 28.5826 23.6456 29.1899C22.1791 29.7971 20.5655 29.9554 19.009 29.6446C17.4525 29.3338 16.0232 28.5679 14.9018 27.4438C13.7804 26.3198 13.0174 24.8881 12.7093 23.33C12.4012 21.7718 12.5618 20.1572 13.1709 18.6904C13.78 17.2236 14.8102 15.9707 16.131 15.09C17.4519 14.2094 19.0041 13.7407 20.5913 13.7432C21.6442 13.7432 22.6867 13.9509 23.6593 14.3545C24.6318 14.7582 25.5153 15.3497 26.2592 16.0954C27.0032 16.841 27.5928 17.7262 27.9946 18.7001C28.3964 19.6741 28.6023 20.7178 28.6007 21.7715V21.7715Z" stroke="#F7B52C" stroke-width="4.29" stroke-miterlimit="10" stroke-linecap="round"/>
</g>
<g style="mix-blend-mode:multiply">
<path d="M35.7134 60.2563C39.1622 59.9908 43.3564 57.1082 39.6801 48.9408C32.454 32.8842 6.45515 34.4772 2.70312 52.9992" stroke="#F7B52C" stroke-width="4.29" stroke-miterlimit="10" stroke-linecap="round"/>
</g>
<g style="mix-blend-mode:multiply">
<path d="M80.1436 21.7715C80.1436 23.3593 80.6141 24.9115 81.4955 26.2317C82.377 27.552 83.6299 28.581 85.0957 29.1886C86.5615 29.7963 88.1745 29.9553 89.7306 29.6455C91.2867 29.3357 92.7161 28.5711 93.838 27.4483C94.9599 26.3256 95.7239 24.895 96.0335 23.3377C96.343 21.7804 96.1841 20.1662 95.5769 18.6992C94.9698 17.2322 93.9416 15.9783 92.6223 15.0962C91.3031 14.214 89.7522 13.7432 88.1656 13.7432C86.038 13.7432 83.9976 14.589 82.4932 16.0946C80.9888 17.6002 80.1436 19.6422 80.1436 21.7715V21.7715Z" stroke="#25B9F3" stroke-width="4.29" stroke-miterlimit="10" stroke-linecap="round"/>
</g>
<g style="mix-blend-mode:multiply">
<path d="M73.0446 60.2563C69.5958 59.9908 65.4016 57.1082 69.0778 48.9408C76.2913 32.8842 102.303 34.4772 106.055 52.9992" stroke="#25B9F3" stroke-width="4.29" stroke-miterlimit="10" stroke-linecap="round"/>
</g>
<path d="M270.196 13.5029H267.455V35.8052H270.196V23.3139H273.658V20.7979H270.196V13.5029Z" fill="#00D594"/>
<path d="M265.762 28.232L265.446 25.7034H265.256C263.944 25.9411 262.62 26.1099 261.29 26.2091C260.026 26.3103 258.498 26.3609 256.931 26.3609H256.388V13.5029H253.659V28.9779H256.438C257.335 28.9779 258.194 28.9779 258.965 28.9779C259.736 28.9779 260.519 28.9147 261.252 28.8642C261.984 28.8136 262.705 28.7377 263.387 28.6492C264.069 28.5607 264.802 28.4343 265.509 28.3079L265.762 28.232Z" fill="#00D594"/>
<path d="M293.378 18.4969H281.276V13.5029H278.547V20.9623H293.378V18.4969Z" fill="#00D594"/>
<path d="M275.438 25.1724H284.484V27.4102H278.369V35.7925H293.377V27.4102H287.263V25.1724H296.308V22.707H275.438V25.1724ZM281.111 33.3272V29.8756H290.636V33.3272H281.111Z" fill="#00D594"/>
<path d="M305.543 29.5216C306.288 29.5216 307.009 29.5216 307.691 29.4457C308.373 29.3699 309.03 29.3699 309.674 29.294L311.632 29.0285H311.809L311.519 26.5758H311.329C310.23 26.7528 309.043 26.8792 307.792 26.9551C306.541 27.0309 305.164 27.0689 303.699 27.0689H301.778V22.9852H307.716V20.5198H301.778V16.9039H309.624V14.4512H299.037V29.5469H303.13C303.989 29.5469 304.798 29.5469 305.543 29.5216Z" fill="#00D594"/>
<path d="M313.755 13.5029V20.4819H309.712V22.9978H313.755V35.8052H316.496V13.5029H313.755Z" fill="#00D594"/>
<path d="M130.183 25.5391H127.454V31.1652H118.409V33.6306H139.254V31.1652H130.183V25.5391Z" fill="#3E0085"/>
<path d="M174.096 19.1289H171.304V22.7322H163.889V25.1975H183.28V22.7322H174.096V19.1289Z" fill="#3E0085"/>
<path d="M177.747 16.0187C177.744 16.7874 177.702 17.5554 177.621 18.3198C177.539 19.2261 177.395 20.1258 177.191 21.0127V21.215L179.92 21.5311V21.3667C180.021 20.9116 180.11 20.4185 180.185 19.9128C180.261 19.407 180.337 18.9013 180.388 18.4082C180.438 17.9152 180.463 17.4727 180.489 17.0428C180.514 16.6129 180.489 16.2589 180.489 15.9934V13.4648H166.693V15.9302H177.785L177.747 16.0187Z" fill="#3E0085"/>
<path d="M192.553 27.7642H189.824V35.8051H204.58V33.2765H192.553V27.7642Z" fill="#3E0085"/>
<path d="M204.151 13.5029H201.409V29.4331H204.151V13.5029Z" fill="#3E0085"/>
<path d="M226.89 13.5029H224.148V35.7925H226.89V13.5029Z" fill="#00D594"/>
<path d="M220.321 25.7032C219.79 25.1849 219.26 24.6159 218.742 24.0344C218.371 23.6345 218.025 23.2123 217.706 22.7701C217.475 22.4627 217.284 22.127 217.137 21.7713C216.997 21.4498 216.908 21.1086 216.872 20.7598C216.818 20.3406 216.793 19.9182 216.796 19.4955V17.1692H221.47V14.6406H209.216V17.1692H214.017V19.4955C214.022 19.9182 213.997 20.3407 213.941 20.7598C213.888 21.1123 213.804 21.4593 213.688 21.7966C213.545 22.1647 213.363 22.5165 213.145 22.8459C212.857 23.2905 212.536 23.7131 212.185 24.1102C211.642 24.7424 211.061 25.3745 210.467 25.9814C209.873 26.5882 209.204 27.2457 208.471 27.9411L208.332 28.0548L210.164 30.0018L210.29 29.8754C211.111 29.0916 211.844 28.3709 212.45 27.7261C213.057 27.0813 213.638 26.4618 214.131 25.9055C214.623 25.3492 214.838 25.0964 215.065 24.7929C215.207 24.6048 215.333 24.4061 215.444 24.1987C215.573 24.4072 215.716 24.6058 215.874 24.7929C216.152 25.1343 216.455 25.4883 216.796 25.8802C217.137 26.2722 217.782 26.9422 218.325 27.4985C218.868 28.0548 219.588 28.7628 220.397 29.5214L220.523 29.6478L222.355 27.7008L222.216 27.587C221.496 26.8411 220.851 26.2342 220.321 25.7032Z" fill="#00D594"/>
<path d="M158.886 13.5029H156.157V26.1838H158.886V20.2922H162.069V17.7763H158.886V13.5029Z" fill="#3E0085"/>
<path d="M168.916 35.5267C169.552 35.9979 170.267 36.3531 171.026 36.5761C172.676 37.0551 174.429 37.0551 176.079 36.5761C176.841 36.3585 177.556 36.0028 178.189 35.5267C178.786 35.0849 179.281 34.5202 179.642 33.8705C179.998 33.2033 180.184 32.4586 180.184 31.7022C180.184 30.9458 179.998 30.2011 179.642 29.5339C179.281 28.8881 178.785 28.3276 178.189 27.8903C177.549 27.4282 176.836 27.0777 176.079 26.8536C174.428 26.3828 172.678 26.3828 171.026 26.8536C170.271 27.0829 169.559 27.433 168.916 27.8903C168.326 28.3309 167.836 28.891 167.476 29.5339C167.127 30.2034 166.945 30.9472 166.945 31.7022C166.945 32.4572 167.127 33.201 167.476 33.8705C167.832 34.5196 168.323 35.0845 168.916 35.5267ZM169.687 31.7338C169.682 31.3276 169.782 30.9269 169.978 30.5706C170.193 30.2151 170.476 29.9057 170.811 29.6604C171.193 29.3877 171.621 29.1864 172.075 29.0662C172.571 28.9214 173.086 28.849 173.603 28.8512C174.129 28.8508 174.652 28.9232 175.157 29.0662C175.609 29.1904 176.036 29.3913 176.42 29.6604C176.749 29.9095 177.027 30.2184 177.242 30.5706C177.428 30.9301 177.525 31.329 177.525 31.7338C177.525 32.1386 177.428 32.5375 177.242 32.897C177.03 33.2441 176.751 33.545 176.42 33.782C176.036 34.0467 175.608 34.2435 175.157 34.3635C174.148 34.6419 173.083 34.6419 172.075 34.3635C171.623 34.2435 171.196 34.0467 170.811 33.782C170.478 33.5483 170.198 33.2467 169.99 32.897C169.791 32.5419 169.686 32.1412 169.687 31.7338Z" fill="#3E0085"/>
<path d="M187.424 23.4273C187.964 23.9729 188.609 24.403 189.319 24.6916C190.904 25.3321 192.675 25.3321 194.259 24.6916C194.96 24.4081 195.595 23.9835 196.125 23.4441C196.656 22.9048 197.07 22.2622 197.341 21.5562C197.914 20.1019 197.914 18.4842 197.341 17.03C197.07 16.336 196.662 15.7038 196.141 15.1714C195.603 14.6302 194.963 14.2005 194.259 13.9072C192.668 13.3005 190.91 13.3005 189.319 13.9072C188.611 14.2005 187.967 14.6301 187.424 15.1714C186.877 15.6951 186.447 16.3284 186.161 17.03C185.588 18.4842 185.588 20.1019 186.161 21.5562C186.447 22.2615 186.877 22.899 187.424 23.4273V23.4273ZM188.473 19.2931C188.467 18.831 188.549 18.372 188.713 17.9403C188.858 17.5304 189.081 17.1525 189.37 16.8277C189.661 16.5198 190.008 16.2708 190.393 16.0944C190.825 15.9108 191.289 15.8161 191.758 15.8161C192.226 15.8161 192.691 15.9108 193.122 16.0944C193.514 16.2708 193.866 16.5245 194.158 16.8403C194.454 17.1593 194.686 17.5329 194.84 17.9403C194.999 18.3737 195.08 18.8315 195.08 19.2931C195.078 19.7627 194.997 20.2286 194.84 20.6712C194.691 21.0796 194.463 21.4542 194.168 21.7733C193.873 22.0924 193.517 22.3495 193.122 22.5297C192.247 22.8839 191.268 22.8839 190.393 22.5297C190.005 22.353 189.657 22.0992 189.37 21.7837C189.079 21.4606 188.855 21.0823 188.713 20.6712C188.554 20.2466 188.473 19.7969 188.473 19.3436V19.2931Z" fill="#3E0085"/>
<path d="M149.5 26.8536C148.745 27.0829 148.033 27.433 147.39 27.8903C146.8 28.3309 146.309 28.891 145.95 29.5339C145.601 30.2034 145.419 30.9472 145.419 31.7022C145.419 32.4572 145.601 33.201 145.95 33.8705C146.305 34.5196 146.797 35.0845 147.39 35.5267C148.026 35.9979 148.74 36.3531 149.5 36.5761C151.15 37.0551 152.903 37.0551 154.553 36.5761C155.314 36.3585 156.029 36.0028 156.663 35.5267C157.26 35.0849 157.755 34.5202 158.115 33.8705C158.471 33.2033 158.658 32.4586 158.658 31.7022C158.658 30.9458 158.471 30.2011 158.115 29.5339C157.755 28.8881 157.259 28.3276 156.663 27.8903C156.023 27.4282 155.31 27.0777 154.553 26.8536C152.901 26.3828 151.151 26.3828 149.5 26.8536ZM149.285 29.6604C149.667 29.3877 150.095 29.1864 150.548 29.0662C151.045 28.9214 151.56 28.849 152.077 28.8512C152.602 28.8508 153.125 28.9232 153.631 29.0662C154.083 29.1904 154.51 29.3913 154.894 29.6604C155.222 29.9095 155.501 30.2184 155.715 30.5706C155.901 30.9301 155.998 31.329 155.998 31.7338C155.998 32.1386 155.901 32.5375 155.715 32.897C155.503 33.2441 155.224 33.545 154.894 33.782C154.509 34.0467 154.082 34.2435 153.631 34.3635C152.622 34.6419 151.557 34.6419 150.548 34.3635C150.097 34.2435 149.67 34.0467 149.285 33.782C148.952 33.5483 148.672 33.2467 148.464 32.897C148.278 32.5375 148.181 32.1386 148.181 31.7338C148.181 31.329 148.278 30.9301 148.464 30.5706C148.675 30.2163 148.954 29.907 149.285 29.6604Z" fill="#3E0085"/>
<path d="M121.845 26.411C122.667 25.9306 123.286 25.5639 123.816 25.2226C124.612 24.7295 125.383 24.249 126.077 23.7813C126.775 23.3502 127.435 22.8595 128.048 22.3147C128.346 22.0552 128.613 21.7625 128.844 21.4423C129.077 21.761 129.349 22.0497 129.653 22.302C130.259 22.8222 130.9 23.2996 131.573 23.7307C132.306 24.2111 133.101 24.7168 133.961 25.2352L135.464 26.1202L135.957 26.411L137.346 24.2111L137.182 24.1226L135.388 23.0733C134.63 22.6307 133.872 22.1377 133.114 21.632C132.564 21.2523 132.044 20.8296 131.56 20.3677C131.218 20.048 130.929 19.6769 130.701 19.2677C130.486 18.8775 130.352 18.4472 130.31 18.0034C130.24 17.4754 130.206 16.9431 130.208 16.4104V13.4014H127.454V16.4104C127.46 16.9436 127.422 17.4764 127.341 18.0034C127.285 18.4446 127.153 18.8725 126.949 19.2677C126.735 19.6569 126.462 20.0108 126.141 20.3171C125.748 20.7117 125.326 21.0752 124.877 21.4044C124.069 21.9733 123.26 22.4917 122.464 22.9721L120.544 24.0973L120.393 24.1858L121.757 26.4489L121.845 26.411Z" fill="#3E0085"/>
<path d="M143.246 25.4249L144.383 24.464C145.04 23.8824 145.646 23.3388 146.126 22.8583C146.502 22.5094 146.857 22.1378 147.188 21.7458C147.359 21.5422 147.515 21.3267 147.655 21.101C147.76 21.2473 147.874 21.3866 147.996 21.5182C148.279 21.842 148.587 22.1423 148.918 22.4158L150.649 23.9077C151.066 24.2617 151.508 24.6157 151.976 24.9824L152.115 25.0962L152.228 24.9571C152.633 24.5019 153.214 23.8192 153.694 23.2882L153.82 23.1491L153.668 23.0227C153.125 22.6181 152.544 22.1756 152.001 21.7584C151.458 21.3412 150.738 20.6332 150.156 20.1022C149.899 19.8821 149.673 19.6267 149.487 19.3436C149.339 19.115 149.22 18.8686 149.133 18.6103C149.054 18.3382 149.003 18.0585 148.982 17.7759C148.982 17.4851 148.982 17.1311 148.982 16.7518V13.6416H146.202V16.8529C146.205 17.2378 146.179 17.6223 146.126 18.0034C146.088 18.3286 146.007 18.6473 145.886 18.9517C145.766 19.2599 145.609 19.5527 145.419 19.824C145.198 20.1412 144.949 20.4375 144.674 20.709C144.257 21.1515 143.701 21.6699 143.006 22.2768C142.551 22.6813 142.046 23.1112 141.427 23.6169L141.275 23.7307L142.93 25.7536L143.246 25.4249Z" fill="#3E0085"/>
<path d="M233.308 29.711H245.625V35.8049H248.379V27.2456H233.308V29.711Z" fill="#00D594"/>
<path d="M231.893 25.716L233.459 24.4517C234.129 23.8701 234.723 23.3265 235.228 22.8334C235.604 22.4844 235.958 22.1129 236.289 21.7208C236.46 21.5172 236.616 21.3018 236.756 21.076C236.861 21.2223 236.975 21.3617 237.098 21.4932C237.38 21.8171 237.688 22.1173 238.02 22.3909L239.776 23.8954C240.193 24.2494 240.622 24.5908 241.039 24.9321L241.254 25.0965L242.909 23.1115L242.757 22.9977C242.201 22.5679 241.645 22.1507 241.115 21.7334C240.584 21.3162 239.852 20.5956 239.245 20.0646C238.991 19.841 238.766 19.5862 238.576 19.306C238.427 19.0774 238.309 18.831 238.222 18.5727C238.143 18.3006 238.092 18.0209 238.07 17.7383C238.07 17.4348 238.07 17.0935 238.07 16.7142V13.604H235.291V16.8153C235.293 17.2002 235.268 17.5846 235.215 17.9658C235.176 18.2909 235.096 18.6097 234.975 18.914C234.86 19.2248 234.703 19.5183 234.508 19.7864C234.287 20.1036 234.037 20.3999 233.762 20.6714C233.56 20.8864 233.308 21.1392 233.017 21.4047C232.726 21.6702 232.411 21.9737 232.07 22.2644L230.983 23.2L230.44 23.6425L230.137 23.8827L231.779 25.9056L231.893 25.716Z" fill="#00D594"/>
<path d="M248.392 13.5029H245.65V25.4253H248.392V13.5029Z" fill="#00D594"/>
</svg>
