<svg width="36" height="36" viewBox="0 0 36 36" fill="none" xmlns="http://www.w3.org/2000/svg">
<path d="M4.5 30.0004L6.45 24.1504C4.76467 21.6578 4.15499 18.706 4.73433 15.8438C5.31367 12.9816 7.04259 10.4039 9.59965 8.58977C12.1567 6.77568 15.3679 5.84871 18.6361 5.98122C21.9044 6.11374 25.0073 7.29671 27.3679 9.3102C29.7286 11.3237 31.1863 14.0307 31.4701 16.9278C31.7539 19.825 30.8444 22.7152 28.9108 25.0611C26.9772 27.4069 24.151 29.0488 20.9577 29.6814C17.7644 30.314 14.4213 29.8943 11.55 28.5004L4.5 30.0004" stroke="#2C6BA6" stroke-width="2.25" stroke-linecap="round" stroke-linejoin="round"/>
<path d="M18 18V18.015" stroke="#2C6BA6" stroke-width="2.25" stroke-linecap="round" stroke-linejoin="round"/>
<path d="M12 18V18.015" stroke="#2C6BA6" stroke-width="2.25" stroke-linecap="round" stroke-linejoin="round"/>
<path d="M24 18V18.015" stroke="#2C6BA6" stroke-width="2.25" stroke-linecap="round" stroke-linejoin="round"/>
</svg>
