<svg width="54" height="54" viewBox="0 0 54 54" fill="none" xmlns="http://www.w3.org/2000/svg">
<path d="M17.9868 21.0249V14.8906H5.47295C3.55402 14.8906 2 16.4446 2 18.3636V39.824C2 41.7429 3.55402 43.297 5.47295 43.297H21.8373V21.0249H17.9931H17.9868Z" fill="#BC8155"/>
<path d="M21.8305 14.8906H17.9863V21.0249H21.8305V14.8906Z" fill="#FFE1BA"/>
<path d="M38.194 14.8891H25.6801V21.0234H21.8359V43.2954H38.2003C40.1192 43.2954 41.6732 41.7414 41.6732 39.8225V18.3557C41.6732 16.4368 40.1192 14.8828 38.2003 14.8828L38.194 14.8891Z" fill="#A56438"/>
<path d="M25.6762 14.8906H21.832V21.0249H25.6762V14.8906Z" fill="#FFBFAB"/>
<path d="M49.745 22.2422H45.3346C44.5598 22.2422 43.9316 22.8703 43.9316 23.6452C43.9316 24.4201 44.5598 25.0482 45.3346 25.0482H49.745C50.5199 25.0482 51.148 24.4201 51.148 23.6452C51.148 22.8703 50.5199 22.2422 49.745 22.2422Z" fill="#FABE2C"/>
<path d="M51.5985 27.6875H47.1882C46.4133 27.6875 45.7852 28.3157 45.7852 29.0905C45.7852 29.8654 46.4133 30.4935 47.1882 30.4935H51.5985C52.3734 30.4935 53.0015 29.8654 53.0015 29.0905C53.0015 28.3157 52.3734 27.6875 51.5985 27.6875Z" fill="#FABE2C"/>
<path d="M49.745 33.127H45.3346C44.5598 33.127 43.9316 33.7551 43.9316 34.53C43.9316 35.3048 44.5598 35.933 45.3346 35.933H49.745C50.5199 35.933 51.148 35.3048 51.148 34.53C51.148 33.7551 50.5199 33.127 49.745 33.127Z" fill="#FABE2C"/>
</svg>
