<svg width="54" height="54" viewBox="0 0 54 54" fill="none" xmlns="http://www.w3.org/2000/svg">
<path d="M19.4238 34.9062L21.2689 36.0673L16.3994 43.8059C16.078 44.3168 15.4033 44.467 14.8963 44.1479C14.3855 43.8265 14.2353 43.1519 14.5543 42.6449L19.4238 34.9062Z" fill="#BC8155"/>
<path d="M35.8744 44.1528C35.3635 44.4742 34.6903 44.3178 34.3713 43.8108L29.5017 36.0721L31.3469 34.9111L36.2164 42.6497C36.5378 43.1606 36.3814 43.8337 35.8744 44.1528Z" fill="#BC8155"/>
<path d="M25.3879 42.8618C33.9425 42.8618 40.8774 35.9269 40.8774 27.3723C40.8774 18.8177 33.9425 11.8828 25.3879 11.8828C16.8333 11.8828 9.89844 18.8177 9.89844 27.3723C9.89844 35.9269 16.8333 42.8618 25.3879 42.8618Z" fill="#DB3535"/>
<path d="M25.3881 37.5248C19.7896 37.5248 15.2361 32.9711 15.2361 27.3726C15.2361 21.774 19.7896 17.2204 25.3881 17.2204V13.6172C17.8033 13.6172 11.6328 19.7878 11.6328 27.3726C11.6328 34.9574 17.8033 41.128 25.3881 41.128V37.5248Z" fill="#F0F7FF"/>
<path d="M39.1441 27.3726C39.1441 19.7878 32.9735 13.6172 25.3887 13.6172V17.2204C30.9872 17.2204 35.5408 21.774 35.5408 27.3726C35.5408 32.9711 30.9872 37.5248 25.3887 37.5248V41.128C32.9735 41.128 39.1441 34.9574 39.1441 27.3726Z" fill="#DFE7F4"/>
<path d="M15.2363 27.3729C15.2363 32.9714 19.7898 37.525 25.3884 37.525V33.9218C21.7761 33.9218 18.8396 30.9851 18.8396 27.3729C18.8396 23.7606 21.7761 20.824 25.3884 20.824V17.2207C19.7898 17.2207 15.2363 21.7743 15.2363 27.3729Z" fill="#E55C5C"/>
<path d="M31.9376 27.3729C31.9376 30.9851 29.0009 33.9218 25.3887 33.9218V37.525C30.9872 37.525 35.5408 32.9714 35.5408 27.3729C35.5408 21.7743 30.9872 17.2207 25.3887 17.2207V20.824C29.0009 20.824 31.9376 23.7606 31.9376 27.3729Z" fill="#DB3535"/>
<path d="M22.4411 27.3712C22.4411 25.7452 23.7607 24.4255 25.3867 24.4255V20.8223C21.7744 20.8223 18.8379 23.7589 18.8379 27.3712C18.8379 30.9834 21.7744 33.9201 25.3867 33.9201V30.3168C23.7607 30.3168 22.4411 28.9971 22.4411 27.3712Z" fill="#F0F7FF"/>
<path d="M31.9376 27.3712C31.9376 23.7589 29.0009 20.8223 25.3887 20.8223V24.4255C27.0146 24.4255 28.3343 25.7452 28.3343 27.3712C28.3343 28.9971 27.0146 30.3168 25.3887 30.3168V33.9201C29.0009 33.9201 31.9376 30.9834 31.9376 27.3712Z" fill="#DFE7F4"/>
<path d="M22.4395 27.3773C22.4395 29.0033 23.7591 30.323 25.385 30.323V24.4316C23.7591 24.4316 22.4395 25.7513 22.4395 27.3773Z" fill="#E55C5C"/>
<path d="M28.3343 27.3773C28.3343 25.7513 27.0146 24.4316 25.3887 24.4316V30.323C27.0146 30.323 28.3343 29.0033 28.3343 27.3773Z" fill="#DB3535"/>
<path d="M43.1752 26.3281H25.3886C24.8121 26.3281 24.3438 26.7965 24.3438 27.3731C24.3438 27.9496 24.8121 28.418 25.3886 28.418H43.1752C43.7517 28.418 44.2201 27.9496 44.2201 27.3731C44.2201 26.7965 43.7517 26.3281 43.1752 26.3281Z" fill="#704C55"/>
<path d="M45.4604 23.1588H42.6949C41.2221 23.1588 39.8394 23.8704 38.9836 25.073L38.0918 26.3252H43.2084L45.4604 23.1543V23.1588Z" fill="#FFE470"/>
<path d="M44.3371 29.998H39.252C40.1122 30.9979 41.3644 31.5835 42.6976 31.5835H45.4631L44.3371 29.998V29.998Z" fill="#FFE470"/>
<path d="M43.2084 28.4225H38.0918L38.9836 29.6746C39.0647 29.7917 39.1592 29.8998 39.2493 30.0034H44.3344L43.2084 28.418V28.4225Z" fill="#FABE2C"/>
<path d="M39.2256 24.7467H44.3423L43.4505 25.9988C43.3694 26.1159 43.2748 26.224 43.1847 26.3276H38.0996L39.2256 24.7422V24.7467Z" fill="#FABE2C"/>
<path d="M9 39.6807C9 43.2524 11.8961 46.1486 15.4678 46.1486V33.2129C11.8961 33.2129 9 36.109 9 39.6807Z" fill="#FFE470"/>
<path d="M21.9347 39.6807C21.9347 36.109 19.0385 33.2129 15.4668 33.2129V46.1486C19.0385 46.1486 21.9347 43.2524 21.9347 39.6807Z" fill="#FABE2C"/>
<path d="M11.6588 39.834C11.6679 39.879 11.6859 39.9331 11.7355 40.0186C11.785 40.0997 11.8571 40.1898 11.9472 40.2709C12.1228 40.4375 12.3435 40.5727 12.5687 40.6853C13.0236 40.9105 13.519 41.0456 14.0145 41.1447C14.8027 41.2933 15.6044 41.3293 16.4016 41.2933V39.8385L18.1538 42.4283L16.4016 45.0182V43.5318C15.5278 43.4102 14.6586 43.2075 13.8028 42.8832C13.2713 42.676 12.7398 42.4283 12.2173 42.059C11.9561 41.8698 11.6994 41.6581 11.4472 41.3519C11.3211 41.1987 11.1994 41.0186 11.0868 40.7753C10.9787 40.5411 10.8842 40.2078 10.8932 39.843H11.6543L11.6588 39.834Z" fill="#3079EC"/>
<path d="M20.036 39.5248C20.045 39.1599 19.9504 38.8312 19.8423 38.5924C19.7343 38.3492 19.6081 38.1691 19.482 38.0159C19.2298 37.7096 18.9731 37.4979 18.7118 37.3088C18.1894 36.9394 17.6624 36.6917 17.1264 36.4845C16.2661 36.1557 15.4013 35.9531 14.5275 35.8359V34.3496L12.7754 36.9394L14.5275 39.5293V38.0745C15.3248 38.0384 16.131 38.0745 16.9147 38.2231C17.4102 38.3177 17.9056 38.4573 18.3605 38.6825C18.5857 38.7951 18.8063 38.9302 18.982 39.0969C19.0721 39.178 19.1441 39.268 19.1937 39.3491C19.2432 39.4347 19.2613 39.4887 19.2703 39.5338H20.0315L20.036 39.5248Z" fill="#74A7F6"/>
</svg>
