<svg width="54" height="54" viewBox="0 0 54 54" fill="none" xmlns="http://www.w3.org/2000/svg">
<path d="M43.2936 21.6152V41.6C43.2936 42.7612 42.3492 43.7056 41.188 43.7056H13.7208C12.5596 43.7056 11.6152 42.7612 11.6152 41.6V21.6152H43.2936V21.6152Z" fill="#F0F7FF"/>
<path d="M43.2898 24.1133V30.4842C42.7476 30.8321 42.1015 31.0354 41.4101 31.0354C39.4853 31.0354 37.922 29.4766 37.922 27.5472C37.922 29.4766 36.3631 31.0354 34.4338 31.0354C32.5044 31.0354 30.9456 29.4766 30.9456 27.5472C30.9456 29.4766 29.3868 31.0354 27.4574 31.0354C25.5281 31.0354 23.9692 29.4766 23.9692 27.5472C23.9692 29.4766 22.4104 31.0354 20.481 31.0354C18.5517 31.0354 16.9928 29.4766 16.9928 27.5472C16.9928 29.4766 15.434 31.0354 13.5047 31.0354C12.8133 31.0354 12.1672 30.8366 11.625 30.4842V24.1133H43.3079H43.2898Z" fill="#C7D1E0"/>
<path d="M16.9809 21.6185H10L13.4385 16.707H19.0458L16.9809 21.6185Z" fill="#FF6262"/>
<path d="M23.9633 21.6185H16.9824L19.0473 16.707H24.6501L23.9633 21.6185Z" fill="#F0F7FF"/>
<path d="M30.9418 21.6185H23.9609L24.6477 16.707H30.255L30.9418 21.6185Z" fill="#FF6262"/>
<path d="M37.9216 21.6185H30.9407L30.2539 16.707H35.8567L37.9216 21.6185Z" fill="#F0F7FF"/>
<path d="M44.9052 21.6185H37.9243L35.8594 16.707H41.4667L44.9052 21.6185Z" fill="#FF6262"/>
<path d="M10 21.6152H16.9809V26.0116C16.9809 27.4078 15.8513 28.5374 14.4551 28.5374H12.5258C11.1296 28.5374 10 27.4078 10 26.0116V21.6152V21.6152Z" fill="#DB3535"/>
<path d="M16.9824 21.6152H23.9633V26.0116C23.9633 27.4078 22.8337 28.5374 21.4375 28.5374H19.5082C18.112 28.5374 16.9824 27.4078 16.9824 26.0116V21.6152V21.6152Z" fill="#DFE7F4"/>
<path d="M23.9609 21.6152H30.9418V26.0116C30.9418 27.4078 29.8123 28.5374 28.4161 28.5374H26.4867C25.0905 28.5374 23.9609 27.4078 23.9609 26.0116V21.6152V21.6152Z" fill="#DB3535"/>
<path d="M30.9434 21.6152H37.9243V26.0116C37.9243 27.4078 36.7947 28.5374 35.3985 28.5374H33.4691C32.073 28.5374 30.9434 27.4078 30.9434 26.0116V21.6152V21.6152Z" fill="#DFE7F4"/>
<path d="M37.9219 21.6152H44.9028V26.0116C44.9028 27.4078 43.7732 28.5374 42.377 28.5374H40.4477C39.0515 28.5374 37.9219 27.4078 37.9219 26.0116V21.6152V21.6152Z" fill="#DB3535"/>
<path d="M15.9407 14.2069V12.3815H27.1372V9.88281H15.0867C14.1785 9.88281 13.4375 10.6193 13.4375 11.532V16.7056H27.1327V14.2069H15.9362H15.9407Z" fill="#DFE7F4"/>
<path d="M27.134 12.3809H15.9375V14.2063H27.134V12.3809Z" fill="#F0F7FF"/>
<path d="M41.469 11.532C41.469 10.6238 40.7325 9.88281 39.8198 9.88281H27.1367V12.3815H38.9704V14.2069H27.1367V16.7056H41.469V11.532Z" fill="#C7D1E0"/>
<path d="M38.9704 12.3809H27.1367V14.2063H38.9704V12.3809Z" fill="#DFE7F4"/>
<path d="M15.1309 32.918C14.7559 32.918 14.4531 33.2207 14.4531 33.5957V38.3491C14.4531 38.7241 14.7559 39.0268 15.1309 39.0268H17.5076V32.9225H15.1309V32.918Z" fill="#74A7F6"/>
<path d="M20.5564 38.3491V33.5957C20.5564 33.2207 20.2536 32.918 19.8786 32.918H17.502V39.0223H19.8786C20.2536 39.0223 20.5564 38.7196 20.5564 38.3445V38.3491Z" fill="#3079EC"/>
<path d="M24.0684 32.918C23.6934 32.918 23.3906 33.2207 23.3906 33.5957V38.3491C23.3906 38.7241 23.6934 39.0268 24.0684 39.0268H26.445V32.9225H24.0684V32.918Z" fill="#74A7F6"/>
<path d="M29.5017 38.3491V33.5957C29.5017 33.2207 29.199 32.918 28.8239 32.918H26.4473V39.0223H28.8239C29.199 39.0223 29.5017 38.7196 29.5017 38.3445V38.3491Z" fill="#3079EC"/>
<path d="M35.8564 32.918V43.7169H32.332V33.7042C32.332 33.2704 32.6799 32.918 33.1137 32.918H35.8564V32.918Z" fill="#FFE470"/>
<path d="M39.3882 33.7042V43.7169H35.8594V32.918H38.602C39.0358 32.918 39.3882 33.2704 39.3882 33.7042V33.7042Z" fill="#FABE2C"/>
</svg>
