<svg width="54" height="54" viewBox="0 0 54 54" fill="none" xmlns="http://www.w3.org/2000/svg">
<path d="M34.5691 19.5494C34.5691 19.5494 34.5691 19.523 34.5691 19.5125H27.114C26.8316 19.5125 26.5607 19.4015 26.361 19.2039C26.1612 19.0062 26.049 18.7382 26.049 18.4587V18.3534C26.049 17.9658 25.8938 17.5941 25.6173 17.3195C25.3409 17.045 24.9657 16.8901 24.574 16.8887H16.5065C16.3323 16.8901 16.1657 16.9595 16.0431 17.0819C15.9204 17.2042 15.8516 17.3696 15.8516 17.542C15.8516 17.7139 15.9206 17.8787 16.0434 18.0002C16.1662 18.1218 16.3328 18.19 16.5065 18.19H21.6133V19.6337H16.5065C16.3328 19.6337 16.1662 19.7019 16.0434 19.8235C15.9206 19.945 15.8516 20.1098 15.8516 20.2817V20.4134H34.5691V19.5494Z" fill="#DFE7F4"/>
<path d="M16.5065 21.1765H21.6133V22.6464H16.5065C16.3423 22.6611 16.1896 22.736 16.0784 22.8564C15.9671 22.9768 15.9055 23.134 15.9055 23.2971C15.9055 23.4602 15.9671 23.6175 16.0784 23.7379C16.1896 23.8583 16.3423 23.9332 16.5065 23.9478H24.5953C24.987 23.9464 25.3621 23.7915 25.6386 23.517C25.9151 23.2424 26.0703 22.8707 26.0703 22.4831V22.3777C26.0703 22.0983 26.1825 21.8303 26.3823 21.6326C26.582 21.435 26.8529 21.324 27.1353 21.324H34.5904C34.5904 21.324 34.5904 21.2977 34.5904 21.2871V20.4336H15.8516V20.539C15.8544 20.709 15.9246 20.8711 16.0471 20.9904C16.1697 21.1097 16.3347 21.1765 16.5065 21.1765V21.1765Z" fill="#C7D1E0"/>
<path d="M48.7648 18.5176H35.6119C35.3393 18.5172 35.0769 18.6202 34.8788 18.8054C34.6807 18.9907 34.5619 19.2441 34.5469 19.5134C34.5469 19.5134 34.5469 19.5134 34.5469 19.5502V20.4038H49.7818V19.5502C49.7767 19.2825 49.6687 19.0267 49.4798 18.8348C49.2908 18.643 49.0352 18.5296 48.7648 18.5176V18.5176Z" fill="#74A7F6"/>
<path d="M35.598 20.4043H34.5703V21.2578C34.5703 21.2578 34.5703 21.2578 34.5703 21.2947C34.5866 21.5631 34.706 21.8151 34.904 21.9993C35.102 22.1834 35.3636 22.2857 35.6353 22.2852H48.7882C49.0661 22.2853 49.3331 22.1779 49.532 21.986C49.731 21.794 49.8463 21.5327 49.8532 21.2578V20.4043H35.598Z" fill="#3079EC"/>
<path d="M19.0038 42.0103H17.4062V16.6836C17.4062 16.4713 17.4915 16.2676 17.6433 16.1174C17.7951 15.9672 18.001 15.8828 18.2157 15.8828C18.4308 15.8828 18.6372 15.967 18.7899 16.117C18.9425 16.2671 19.029 16.4708 19.0304 16.6836L19.0038 42.0103Z" fill="#FFE470"/>
<path d="M20.6249 42.0103H19.0273V16.6836C19.0273 16.4713 19.1126 16.2676 19.2644 16.1174C19.4162 15.9672 19.6221 15.8828 19.8368 15.8828C20.0514 15.8828 20.2573 15.9672 20.4091 16.1174C20.5609 16.2676 20.6462 16.4713 20.6462 16.6836L20.6249 42.0103Z" fill="#FABE2C"/>
<path d="M22.2492 42.0103H20.625V16.6837C20.625 16.4713 20.7103 16.2676 20.8621 16.1174C21.0139 15.9672 21.2197 15.8828 21.4344 15.8828V15.8828C21.5412 15.8821 21.647 15.9023 21.7458 15.9423C21.8446 15.9822 21.9345 16.0411 22.0102 16.1155C22.0859 16.19 22.146 16.2785 22.187 16.376C22.228 16.4735 22.2492 16.5781 22.2492 16.6837V42.0103Z" fill="#FFE470"/>
<path d="M23.867 42.0103H22.2695V16.6836C22.2695 16.4713 22.3548 16.2676 22.5066 16.1174C22.6584 15.9672 22.8643 15.8828 23.0789 15.8828C23.2936 15.8828 23.4995 15.9672 23.6513 16.1174C23.8031 16.2676 23.8883 16.4713 23.8883 16.6836L23.867 42.0103Z" fill="#FABE2C"/>
<path d="M16.2258 46.047C17.6068 46.048 18.957 45.6438 20.1058 44.8855C21.2545 44.1271 22.1501 43.0487 22.6793 41.7867C23.2085 40.5246 23.3475 39.1356 23.0788 37.7954C22.81 36.4552 22.1456 35.2239 21.1694 34.2574C20.1933 33.2909 18.9494 32.6325 17.5951 32.3655C16.2407 32.0986 14.8368 32.2351 13.5608 32.7577C12.2849 33.2803 11.1942 34.1657 10.4269 35.3017C9.65958 36.4377 9.25 37.7733 9.25 39.1397C9.25141 40.9703 9.98665 42.7256 11.2944 44.0205C12.6022 45.3154 14.3757 46.0442 16.2258 46.047V46.047Z" fill="#FABE2C"/>
<path d="M16.2251 44.8936C17.3752 44.8936 18.4995 44.5561 19.4557 43.9239C20.412 43.2917 21.1573 42.3932 21.5974 41.3419C22.0376 40.2906 22.1527 39.1338 21.9283 38.0177C21.704 36.9017 21.1501 35.8765 20.3369 35.0719C19.5237 34.2672 18.4876 33.7193 17.3596 33.4973C16.2316 33.2753 15.0624 33.3892 13.9998 33.8247C12.9373 34.2601 12.0291 34.9976 11.3902 35.9437C10.7512 36.8899 10.4102 38.0022 10.4102 39.1401C10.4116 40.6656 11.0247 42.1282 12.1149 43.2069C13.2051 44.2856 14.6833 44.8922 16.2251 44.8936V44.8936Z" fill="#FFE470"/>
<path d="M16.2269 43.7226C17.1464 43.7226 18.0451 43.4528 18.8096 42.9474C19.5741 42.442 20.1699 41.7237 20.5218 40.8832C20.8737 40.0427 20.9657 39.1179 20.7864 38.2257C20.607 37.3335 20.1642 36.5139 19.5141 35.8706C18.8639 35.2274 18.0356 34.7893 17.1338 34.6118C16.2321 34.4343 15.2973 34.5254 14.4479 34.8736C13.5984 35.2217 12.8724 35.8112 12.3616 36.5676C11.8508 37.324 11.5781 38.2133 11.5781 39.123C11.5781 40.3429 12.0679 41.5128 12.9397 42.3754C13.8115 43.238 14.994 43.7226 16.2269 43.7226Z" fill="#FABE2C"/>
<path d="M16.2248 42.5895C16.9149 42.5905 17.5897 42.389 18.164 42.0105C18.7383 41.6319 19.1862 41.0933 19.451 40.4628C19.7158 39.8323 19.7856 39.1382 19.6516 38.4685C19.5176 37.7987 19.1859 37.1833 18.6983 36.7001C18.2107 36.217 17.5893 35.8878 16.9125 35.7542C16.2358 35.6206 15.5342 35.6887 14.8966 35.9497C14.2589 36.2107 13.7139 36.6531 13.3304 37.2207C12.9469 37.7883 12.7422 38.4557 12.7422 39.1385C12.7436 40.0524 13.1108 40.9286 13.7635 41.5753C14.4161 42.2221 15.3011 42.5867 16.2248 42.5895Z" fill="#FFE470"/>
<path d="M16.2266 41.4361C16.686 41.4371 17.1354 41.3033 17.5179 41.0515C17.9004 40.7997 18.1988 40.4413 18.3753 40.0217C18.5519 39.602 18.5986 39.14 18.5096 38.694C18.4207 38.2481 18.2 37.8383 17.8755 37.5165C17.551 37.1947 17.1373 36.9754 16.6868 36.8863C16.2363 36.7973 15.7692 36.8424 15.3446 37.0161C14.9201 37.1899 14.5571 37.4843 14.3018 37.8622C14.0464 38.24 13.9102 38.6844 13.9102 39.1389C13.9102 39.7473 14.154 40.3308 14.5883 40.7614C15.0226 41.1921 15.6117 41.4347 16.2266 41.4361Z" fill="#FABE2C"/>
<path d="M16.2258 40.2827C16.864 40.2827 17.3814 39.7708 17.3814 39.1394C17.3814 38.508 16.864 37.9961 16.2258 37.9961C15.5877 37.9961 15.0703 38.508 15.0703 39.1394C15.0703 39.7708 15.5877 40.2827 16.2258 40.2827Z" fill="#FFE470"/>
<path d="M39.5064 44.8936C40.6564 44.8936 41.7807 44.5561 42.737 43.9239C43.6932 43.2917 44.4385 42.3932 44.8787 41.3419C45.3188 40.2906 45.434 39.1338 45.2096 38.0177C44.9852 36.9017 44.4314 35.8765 43.6182 35.0719C42.8049 34.2672 41.7688 33.7193 40.6408 33.4973C39.5128 33.2753 38.3436 33.3892 37.2811 33.8247C36.2185 34.2601 35.3103 34.9976 34.6714 35.9437C34.0324 36.8899 33.6914 38.0022 33.6914 39.1401C33.6928 40.6656 34.3059 42.1282 35.3961 43.2069C36.4863 44.2856 37.9646 44.8922 39.5064 44.8936V44.8936Z" fill="#FABE2C"/>
<path d="M39.5081 43.7226C40.4276 43.7226 41.3263 43.4528 42.0908 42.9474C42.8553 42.442 43.4512 41.7237 43.803 40.8832C44.1549 40.0427 44.247 39.1179 44.0676 38.2257C43.8882 37.3335 43.4454 36.5139 42.7953 35.8706C42.1452 35.2274 41.3168 34.7893 40.4151 34.6118C39.5133 34.4343 38.5786 34.5254 37.7291 34.8736C36.8797 35.2217 36.1536 35.8112 35.6428 36.5676C35.132 37.324 34.8594 38.2133 34.8594 39.123C34.8608 40.3425 35.351 41.5116 36.2225 42.3739C37.094 43.2362 38.2756 43.7212 39.5081 43.7226V43.7226Z" fill="#FFE470"/>
<path d="M39.506 42.5895C40.1961 42.5905 40.871 42.389 41.4452 42.0105C42.0195 41.6319 42.4674 41.0933 42.7322 40.4628C42.997 39.8323 43.0669 39.1382 42.9329 38.4685C42.7989 37.7987 42.4671 37.1833 41.9795 36.7001C41.492 36.217 40.8705 35.8878 40.1937 35.7542C39.517 35.6206 38.8154 35.6887 38.1778 35.9497C37.5402 36.2107 36.9951 36.6531 36.6116 37.2207C36.2281 37.7883 36.0234 38.4557 36.0234 39.1385C36.0234 40.0528 36.3902 40.9298 37.0431 41.5769C37.6961 42.2239 38.5819 42.5881 39.506 42.5895V42.5895Z" fill="#FABE2C"/>
<path d="M39.5053 41.4361C39.9645 41.4361 40.4134 41.3014 40.7952 41.049C41.177 40.7966 41.4746 40.4378 41.6503 40.018C41.826 39.5983 41.872 39.1364 41.7824 38.6908C41.6928 38.2452 41.4717 37.8359 41.147 37.5146C40.8223 37.1934 40.4086 36.9746 39.9582 36.8859C39.5079 36.7973 39.0411 36.8428 38.6168 37.0167C38.1926 37.1905 37.83 37.485 37.5749 37.8627C37.3198 38.2405 37.1836 38.6846 37.1836 39.1389C37.1836 39.7482 37.4282 40.3325 37.8636 40.7633C38.299 41.1941 38.8895 41.4361 39.5053 41.4361Z" fill="#FFE470"/>
<path d="M39.4915 40.2827C40.1297 40.2827 40.647 39.7708 40.647 39.1394C40.647 38.508 40.1297 37.9961 39.4915 37.9961C38.8533 37.9961 38.3359 38.508 38.3359 39.1394C38.3359 39.7708 38.8533 40.2827 39.4915 40.2827Z" fill="#FABE2C"/>
<path d="M27.8568 47.2004C29.4684 47.2014 31.0442 46.7295 32.3847 45.8444C33.7252 44.9592 34.7703 43.7006 35.3878 42.2278C36.0053 40.7549 36.1673 39.1339 35.8536 37.5698C35.5398 36.0058 34.7643 34.5689 33.6251 33.441C32.4859 32.3131 31.0342 31.5449 29.4536 31.2334C27.873 30.9219 26.2346 31.0813 24.7456 31.6912C23.2565 32.3012 21.9838 33.3344 21.0883 34.6602C20.1928 35.9859 19.7148 37.5447 19.7148 39.1392C19.7163 41.2758 20.5743 43.3246 22.1008 44.8359C23.6273 46.3472 25.6974 47.1976 27.8568 47.2004V47.2004Z" fill="#FFE470"/>
<path d="M27.8537 46.047C29.2342 46.0459 30.5834 45.6399 31.7307 44.8803C32.8781 44.1207 33.772 43.0416 34.2996 41.7793C34.8271 40.5171 34.9646 39.1284 34.6947 37.7889C34.4247 36.4494 33.7594 35.2191 32.7829 34.2537C31.8063 33.2882 30.5624 32.6309 29.2083 32.3648C27.8543 32.0987 26.4509 32.2358 25.1755 32.7587C23.9002 33.2817 22.8102 34.167 22.0434 35.3028C21.2765 36.4385 20.8672 37.7738 20.8672 39.1397C20.8686 40.9721 21.6053 42.729 22.9154 44.0242C24.2254 45.3194 26.0016 46.047 27.8537 46.047V46.047Z" fill="#FABE2C"/>
<path d="M27.854 44.8936C29.0041 44.8936 30.1284 44.5561 31.0846 43.9239C32.0409 43.2917 32.7862 42.3932 33.2263 41.3419C33.6664 40.2906 33.7816 39.1338 33.5572 38.0177C33.3329 36.9017 32.779 35.8765 31.9658 35.0719C31.1526 34.2672 30.1164 33.7193 28.9884 33.4973C27.8605 33.2753 26.6913 33.3892 25.6287 33.8247C24.5662 34.2601 23.658 34.9976 23.019 35.9437C22.3801 36.8899 22.0391 38.0022 22.0391 39.1401C22.0405 40.6656 22.6536 42.1282 23.7438 43.2069C24.834 44.2856 26.3122 44.8922 27.854 44.8936V44.8936Z" fill="#FFE470"/>
<path d="M27.8558 43.7226C28.7752 43.7226 29.674 43.4528 30.4385 42.9474C31.203 42.442 31.7988 41.7237 32.1507 40.8832C32.5026 40.0427 32.5946 39.1179 32.4152 38.2257C32.2359 37.3335 31.7931 36.5139 31.143 35.8706C30.4928 35.2274 29.6645 34.7893 28.7627 34.6118C27.8609 34.4343 26.9262 34.5254 26.0768 34.8736C25.2273 35.2217 24.5013 35.8112 23.9905 36.5676C23.4797 37.324 23.207 38.2133 23.207 39.123C23.2084 40.3425 23.6987 41.5116 24.5702 42.3739C25.4417 43.2362 26.6233 43.7212 27.8558 43.7226V43.7226Z" fill="#FABE2C"/>
<path d="M27.8551 42.5895C28.5449 42.5895 29.2193 42.3871 29.7929 42.0079C30.3664 41.6287 30.8135 41.0897 31.0775 40.4591C31.3415 39.8286 31.4106 39.1347 31.276 38.4652C31.1414 37.7958 30.8092 37.1809 30.3214 36.6983C29.8336 36.2156 29.2121 35.887 28.5355 35.7538C27.859 35.6207 27.1576 35.689 26.5203 35.9502C25.883 36.2114 25.3383 36.6537 24.955 37.2212C24.5718 37.7887 24.3672 38.456 24.3672 39.1385C24.3686 40.0533 24.7365 40.9303 25.3903 41.5772C26.0441 42.2241 26.9305 42.5881 27.8551 42.5895V42.5895Z" fill="#FFE470"/>
<path d="M27.8569 41.4361C28.3161 41.4361 28.765 41.3014 29.1468 41.049C29.5286 40.7966 29.8261 40.4378 30.0019 40.018C30.1776 39.5983 30.2236 39.1364 30.134 38.6908C30.0444 38.2452 29.8233 37.8359 29.4986 37.5146C29.1739 37.1934 28.7602 36.9746 28.3098 36.8859C27.8594 36.7973 27.3926 36.8428 26.9684 37.0167C26.5441 37.1905 26.1816 37.485 25.9264 37.8627C25.6713 38.2405 25.5352 38.6846 25.5352 39.1389C25.5352 39.7482 25.7797 40.3325 26.2152 40.7633C26.6506 41.1941 27.2411 41.4361 27.8569 41.4361Z" fill="#FABE2C"/>
<path d="M27.8548 40.2827C28.4929 40.2827 29.0103 39.7708 29.0103 39.1394C29.0103 38.508 28.4929 37.9961 27.8548 37.9961C27.2166 37.9961 26.6992 38.508 26.6992 39.1394C26.6992 39.7708 27.2166 40.2827 27.8548 40.2827Z" fill="#FFE470"/>
<path d="M13.6224 47.723H27.1427V45.3047H11.9023V46.0423C11.9066 46.4904 12.0898 46.9187 12.4121 47.2336C12.7343 47.5485 13.1694 47.7244 13.6224 47.723Z" fill="white"/>
<path d="M27.1406 47.723H40.6662C40.8921 47.723 41.1158 47.679 41.3245 47.5935C41.5331 47.508 41.7227 47.3826 41.8824 47.2246C42.0422 47.0666 42.1689 46.879 42.2553 46.6725C42.3417 46.466 42.3862 46.2447 42.3862 46.0212V45.3047H27.1406V47.723Z" fill="#DFE7F4"/>
<path d="M27.1133 47.723H13.5877C13.3618 47.723 13.1381 47.679 12.9295 47.5935C12.7208 47.508 12.5312 47.3826 12.3715 47.2246C12.2118 47.0666 12.085 46.879 11.9986 46.6725C11.9122 46.466 11.8677 46.2447 11.8677 46.0212V45.3047H27.1133V47.723Z" fill="#DFE7F4"/>
<path d="M5 39.5076V41.5834C5 42.57 5.39608 43.5161 6.10112 44.2137C6.80616 44.9112 7.76241 45.3031 8.75948 45.3031H27.1416V39.5076H5Z" fill="#EEF3FC"/>
<path d="M27.1406 39.5078V45.3034H45.528C46.5251 45.3034 47.4813 44.9115 48.1864 44.2139C48.8914 43.5163 49.2875 42.5702 49.2875 41.5837V39.5078H27.1406Z" fill="#DFE7F4"/>
<path d="M27.1426 45.2812H11.9023V46.5036H27.1426V45.2812Z" fill="#C2CDDE"/>
<path d="M42.3809 45.2812H27.1406V46.5036H42.3809V45.2812Z" fill="#C7D1E0"/>
</svg>
