<svg width="22" height="22" viewBox="0 0 22 22" fill="none" xmlns="http://www.w3.org/2000/svg">
<path d="M14.6663 5.75033H17.0413C17.2512 5.75033 17.4526 5.83373 17.6011 5.9822C17.7495 6.13067 17.8329 6.33203 17.8329 6.54199V15.2503C17.8329 15.6703 17.6661 16.073 17.3692 16.3699C17.0722 16.6668 16.6695 16.8337 16.2496 16.8337C15.8297 16.8337 15.4269 16.6668 15.13 16.3699C14.8331 16.073 14.6663 15.6703 14.6663 15.2503V4.95866C14.6663 4.7487 14.5829 4.54733 14.4344 4.39887C14.2859 4.2504 14.0846 4.16699 13.8746 4.16699H5.95793C5.74796 4.16699 5.5466 4.2504 5.39813 4.39887C5.24967 4.54733 5.16626 4.7487 5.16626 4.95866V14.4587C5.16626 15.0885 5.41648 15.6926 5.86188 16.138C6.30728 16.5834 6.91137 16.8337 7.54126 16.8337H16.2496" stroke="#666666" stroke-width="1.41216" stroke-linecap="round" stroke-linejoin="round"/>
<path d="M8.33374 7.33301H11.5004" stroke="#666666" stroke-width="1.41216" stroke-linecap="round" stroke-linejoin="round"/>
<path d="M8.33374 10.5H11.5004" stroke="#666666" stroke-width="1.41216" stroke-linecap="round" stroke-linejoin="round"/>
<path d="M8.33374 13.667H11.5004" stroke="#666666" stroke-width="1.41216" stroke-linecap="round" stroke-linejoin="round"/>
</svg>
