<svg width="57" height="91" viewBox="0 0 57 91" fill="none" xmlns="http://www.w3.org/2000/svg">
<path d="M8.36498 67.1949V75.6149H6.98916V68.8459L4.78785 75.6149H3.5221L1.32079 68.8459V75.6149H0V67.1949H2.09125L4.18249 73.7438L6.32877 67.1949H8.36498Z" fill="#525252"/>
<path d="M11.6119 67.8553C11.6119 68.0755 11.5018 68.2956 11.3367 68.4607C11.1716 68.6258 10.9515 68.7358 10.7314 68.7358C10.5112 68.7358 10.2911 68.6258 10.126 68.4607C9.9609 68.2956 9.85083 68.0755 9.85083 67.8553C9.85083 67.6352 9.9609 67.4151 10.126 67.25C10.2911 67.0849 10.5112 66.9748 10.7314 66.9748C10.9515 66.9748 11.1716 67.0849 11.3367 67.25C11.5568 67.4151 11.6119 67.6352 11.6119 67.8553ZM10.071 75.6149V69.5613H11.4468V75.6149H10.071Z" fill="#525252"/>
<path d="M14.4735 72.5881V75.6149H13.0977V69.5613H14.4184V70.3868C14.5835 70.1117 14.8037 69.8915 15.1339 69.7264C15.4641 69.5613 15.7943 69.4513 16.1245 69.4513C16.8399 69.4513 17.3902 69.6714 17.8305 70.1667C18.2707 70.662 18.4909 71.3224 18.4909 72.0928V75.6149H17.1151V72.4781C17.1151 71.8177 17.005 71.3774 16.7849 71.0472C16.5647 70.717 16.2345 70.607 15.7943 70.607C15.5741 70.607 15.354 70.662 15.1339 70.8271C14.9137 70.9922 14.7486 71.1573 14.6386 71.4325C14.5285 71.7076 14.4735 72.0928 14.4735 72.5881Z" fill="#525252"/>
<path d="M21.6829 67.8553C21.6829 68.0755 21.5729 68.2956 21.4078 68.4607C21.2427 68.6258 21.0225 68.7358 20.8024 68.7358C20.5823 68.7358 20.3621 68.6258 20.197 68.4607C20.0319 68.2956 19.9219 68.0755 19.9219 67.8553C19.9219 67.6352 20.0319 67.4151 20.197 67.25C20.3621 67.0849 20.5823 66.9748 20.8024 66.9748C21.0225 66.9748 21.2427 67.0849 21.4078 67.25C21.5729 67.4151 21.6829 67.6352 21.6829 67.8553ZM20.087 75.6149V69.5613H21.4628V75.6149H20.087Z" fill="#525252"/>
<path d="M22.6184 74.5143L23.4989 73.6338C23.7191 73.964 23.9942 74.2392 24.2694 74.4043C24.5446 74.5694 24.8748 74.6794 25.1499 74.6794C25.4801 74.6794 25.7002 74.6244 25.9204 74.5143C26.1405 74.4043 26.2506 74.2392 26.2506 74.019C26.2506 73.7989 26.1405 73.6338 25.9204 73.5238C25.7002 73.4137 25.4801 73.3036 25.2049 73.1936C24.8748 73.0835 24.5446 72.9734 24.2144 72.8634C23.7741 72.6983 23.3889 72.4781 23.1687 72.203C22.9486 71.9278 22.8385 71.6526 22.8385 71.3224C22.8385 70.8271 23.0587 70.3869 23.554 70.0567C23.9942 69.7265 24.5446 69.5064 25.2049 69.5064C25.8653 69.5064 26.4157 69.6715 26.8559 70.0016C27.0761 70.1667 27.2412 70.3869 27.3512 70.607L26.5257 71.4325C26.4157 71.2124 26.3056 71.1023 26.1405 70.9372C25.8653 70.7171 25.5351 70.607 25.1499 70.607C24.9298 70.607 24.7097 70.662 24.5446 70.7721C24.3795 70.8822 24.2694 71.0473 24.2694 71.2124C24.2694 71.3775 24.3795 71.5426 24.5446 71.6526C24.7097 71.7627 25.0399 71.8728 25.4251 71.9828C25.5351 72.0379 25.7002 72.0929 25.9204 72.1479C26.5257 72.3681 26.966 72.5882 27.2412 72.9184C27.5163 73.2486 27.6814 73.5788 27.6814 74.019C27.6814 74.5143 27.4613 74.9546 26.966 75.3398C26.4707 75.7251 25.8653 75.8902 25.0949 75.8902C24.4895 75.8902 23.9392 75.7251 23.4439 75.4499C23.1137 75.1197 22.8385 74.8445 22.6184 74.5143Z" fill="#525252"/>
<path d="M30.4881 67.6352V69.5613H31.8089V70.662H30.4881V73.7438C30.4881 74.019 30.5431 74.2391 30.7082 74.3492C30.8733 74.4592 31.0384 74.5143 31.3136 74.5143H31.8089V75.6149H30.9834C30.323 75.6149 29.8827 75.4498 29.5525 75.1747C29.2774 74.8995 29.1123 74.4592 29.1123 73.9089V70.717H28.0667V69.6163H29.1123V67.6902H30.4881V67.6352Z" fill="#525252"/>
<path d="M32.9646 75.6149V69.5613H34.2304V70.4419C34.4505 70.1667 34.6706 69.8915 34.9458 69.7815C35.276 69.5613 35.7162 69.4513 36.1565 69.4513H36.3216V70.662H36.1565C35.6062 70.662 35.1109 70.8271 34.7807 71.1573C34.4505 71.4875 34.2854 72.0378 34.2854 72.7532V75.5599H32.9646V75.6149Z" fill="#525252"/>
<path d="M39.1833 75.3948L36.8169 69.5613H38.2477L39.8987 73.6888L41.5497 69.5613H42.9255L39.5685 77.9263H38.1927L39.1833 75.3948Z" fill="#525252"/>
<path d="M49.5845 75.78C48.704 75.78 47.9335 75.4498 47.3281 74.8444C46.7228 74.2391 46.3926 73.4686 46.3926 72.5881C46.3926 71.7076 46.7228 70.9371 47.3281 70.3317C47.9335 69.7264 48.704 69.3962 49.5845 69.3962C50.465 69.3962 51.2355 69.7264 51.8408 70.3317C52.4462 70.9371 52.7764 71.7076 52.7764 72.5881C52.7764 73.4686 52.4462 74.2391 51.8408 74.8444C51.2355 75.4498 50.52 75.78 49.5845 75.78ZM49.5845 74.6243C50.0798 74.6243 50.52 74.4592 50.8502 74.074C51.1804 73.6887 51.4006 73.1934 51.4006 72.6431C51.4006 72.0378 51.2355 71.5975 50.8502 71.2123C50.465 70.827 50.0798 70.6069 49.5845 70.6069C49.0892 70.6069 48.6489 70.827 48.3187 71.2123C47.9335 71.5975 47.7684 72.0928 47.7684 72.6431C47.7684 73.2485 47.9335 73.6887 48.3187 74.074C48.704 74.4592 49.0892 74.6243 49.5845 74.6243Z" fill="#525252"/>
<path d="M54.2622 68.956C54.2622 68.4057 54.4273 67.9654 54.7575 67.6902C55.0877 67.4151 55.583 67.25 56.1883 67.25H56.8487V68.3506H56.4635C56.1883 68.3506 56.0232 68.4057 55.8581 68.5157C55.693 68.6258 55.638 68.8459 55.638 69.1211V69.6164H56.8487V70.717H55.638V75.67H54.2622V70.717H53.2166V69.6164H54.2622V68.956Z" fill="#525252"/>
<path d="M6.43882 90.4188H0.935547V81.9988H6.43882V83.1545H2.3664V85.5759H6.38379V86.7316H2.3664V89.2081H6.49386V90.4188H6.43882Z" fill="#525252"/>
<path d="M10.4011 84.2001C11.1165 84.2001 11.7219 84.4752 12.2722 85.0806V81.9988H13.648V90.4188H12.3273V89.6483C11.832 90.2537 11.1716 90.5288 10.4561 90.5288C9.57562 90.5288 8.86019 90.1986 8.30987 89.5933C7.75954 88.9879 7.48438 88.2175 7.48438 87.392C7.48438 86.5665 7.75954 85.796 8.30987 85.1907C8.80516 84.5303 9.52059 84.2001 10.4011 84.2001ZM12.2172 87.7772C12.2172 87.502 12.2172 87.2819 12.2172 87.0068C12.1622 86.5665 11.9971 86.1813 11.7219 85.8511C11.3917 85.5209 11.0065 85.3558 10.5112 85.3558C9.96085 85.3558 9.57562 85.5759 9.24542 85.9611C8.91523 86.3464 8.80516 86.8417 8.80516 87.392C8.80516 87.9973 8.97026 88.4376 9.24542 88.8228C9.57562 89.2081 9.96085 89.3732 10.5112 89.3732C11.0065 89.3732 11.3917 89.2081 11.7219 88.8779C11.9971 88.6027 12.1622 88.2175 12.2172 87.7772Z" fill="#525252"/>
<path d="M19.2064 87.392V84.3652H20.5822V90.4188H19.2614V89.6483C19.0963 89.9235 18.8762 90.1436 18.601 90.3087C18.2708 90.4738 17.9406 90.5839 17.5554 90.5839C16.8399 90.5839 16.2896 90.3638 15.8494 89.8685C15.4091 89.3732 15.189 88.7128 15.189 87.9423V84.4202H16.5648V87.6121C16.5648 88.2725 16.6749 88.7128 16.895 89.043C17.1151 89.3732 17.4453 89.4833 17.8856 89.4833C18.1057 89.4833 18.3258 89.4282 18.546 89.2631C18.7661 89.098 18.9312 88.9329 19.0413 88.6578C19.0963 88.3276 19.2064 87.8873 19.2064 87.392Z" fill="#525252"/>
<path d="M21.738 87.392C21.738 86.5115 22.0682 85.796 22.7286 85.1356C23.389 84.5303 24.2145 84.2001 25.2051 84.2001C25.9756 84.2001 26.746 84.4752 27.4064 84.9705L26.9662 86.0162C26.3608 85.5759 25.7554 85.3007 25.2051 85.3007C24.5997 85.3007 24.1044 85.5209 23.7192 85.9061C23.334 86.2913 23.1139 86.7866 23.1139 87.337C23.1139 87.8873 23.279 88.3826 23.7192 88.7678C24.1044 89.153 24.5997 89.3732 25.2051 89.3732C25.8105 89.3732 26.4158 89.153 27.0212 88.7128L27.4614 89.8134C26.8011 90.3087 26.0306 90.5839 25.2051 90.5839C24.2145 90.5839 23.389 90.2537 22.7286 89.6483C22.0682 88.9879 21.738 88.2725 21.738 87.392Z" fill="#525252"/>
<path d="M31.2586 86.5115C31.6989 86.5115 32.1942 86.5115 32.6894 86.5115C32.6894 86.1262 32.5243 85.796 32.2492 85.6309C31.919 85.4108 31.4787 85.3558 30.9284 85.3558H30.8734C30.323 85.3558 29.7727 85.4658 29.1123 85.741L28.7821 84.6404C29.4425 84.3652 30.1029 84.2001 30.8734 84.2001C31.864 84.2001 32.6894 84.4202 33.1847 84.8055C33.7351 85.1907 34.0102 85.796 34.0102 86.6766V90.4188H32.6894V89.7584C32.4143 90.0336 32.1391 90.1987 31.7539 90.3638C31.3687 90.5289 30.9834 90.5839 30.5982 90.5839C29.8828 90.5839 29.2774 90.4188 28.8372 90.0336C28.3969 89.6483 28.1768 89.2081 28.1768 88.6027C28.1768 87.9974 28.4519 87.447 29.0022 87.0618C29.6076 86.6766 30.323 86.5115 31.2586 86.5115ZM30.8734 89.4832C31.2036 89.4832 31.5888 89.3732 31.919 89.2081C32.2492 89.043 32.5243 88.8228 32.6894 88.6027V87.5571C32.2492 87.5571 31.8089 87.5571 31.4787 87.5571C30.7633 87.5571 30.323 87.6672 30.0479 87.8323C29.7727 88.0524 29.6626 88.2725 29.6626 88.5477C29.6626 88.8228 29.7727 89.043 29.9928 89.2081C30.213 89.3732 30.4881 89.4832 30.8734 89.4832Z" fill="#525252"/>
<path d="M37.4222 82.4391V84.3652H38.743V85.4659H37.4222V88.5477C37.4222 88.8229 37.4772 89.043 37.6423 89.1531C37.8074 89.2631 37.9725 89.3182 38.2477 89.3182H38.743V90.4188H37.9175C37.2571 90.4188 36.8168 90.2537 36.4866 89.9785C36.2115 89.7034 36.0464 89.2631 36.0464 88.7128V85.5209H35.0007V84.4202H36.0464V82.4941H37.4222V82.4391Z" fill="#525252"/>
<path d="M41.4398 82.6591C41.4398 82.8792 41.3297 83.0993 41.1646 83.2644C40.9995 83.4295 40.7794 83.5396 40.5592 83.5396C40.3391 83.5396 40.119 83.4295 39.9539 83.2644C39.7888 83.0993 39.6787 82.8792 39.6787 82.6591C39.6787 82.439 39.7888 82.2188 39.9539 82.0537C40.119 81.8886 40.3391 81.7786 40.5592 81.7786C40.7794 81.7786 40.9995 81.8886 41.1646 82.0537C41.3847 82.2188 41.4398 82.439 41.4398 82.6591ZM39.8988 90.4187V84.3651H41.2747V90.4187H39.8988Z" fill="#525252"/>
<path d="M45.7322 90.5288C44.8517 90.5288 44.0812 90.1986 43.4758 89.5932C42.8705 88.9879 42.5403 88.2174 42.5403 87.3369C42.5403 86.4564 42.8705 85.6859 43.4758 85.0806C44.0812 84.4752 44.8517 84.145 45.7322 84.145C46.6127 84.145 47.3832 84.4752 47.9885 85.0806C48.5939 85.6859 48.9241 86.4564 48.9241 87.3369C48.9241 88.2174 48.5939 88.9879 47.9885 89.5932C47.3832 90.2536 46.6127 90.5288 45.7322 90.5288ZM45.7322 89.4281C46.2275 89.4281 46.6677 89.263 46.9979 88.8778C47.3281 88.4926 47.5483 87.9973 47.5483 87.447C47.5483 86.8416 47.3832 86.4013 46.9979 86.0161C46.6127 85.6309 46.2275 85.4107 45.7322 85.4107C45.2369 85.4107 44.7966 85.6309 44.4664 86.0161C44.0812 86.4013 43.9161 86.8966 43.9161 87.447C43.9161 88.0523 44.0812 88.4926 44.4664 88.8778C44.7966 89.208 45.2369 89.4281 45.7322 89.4281Z" fill="#525252"/>
<path d="M51.4557 87.3919V90.4187H50.0798V84.3651H51.4006V85.1906C51.5657 84.9154 51.7858 84.6953 52.116 84.5302C52.4462 84.3651 52.7764 84.255 53.1066 84.255C53.8221 84.255 54.3724 84.4752 54.8127 84.9705C55.2529 85.4657 55.473 86.1261 55.473 86.8966V90.4187H54.0972V87.2818C54.0972 86.6214 53.9872 86.1812 53.767 85.851C53.5469 85.5208 53.2167 85.4107 52.7764 85.4107C52.5563 85.4107 52.3362 85.4658 52.116 85.6309C51.8959 85.796 51.7308 85.961 51.6208 86.2362C51.5107 86.5114 51.4557 86.8966 51.4557 87.3919Z" fill="#525252"/>
<path d="M42.4302 26.0305C37.6973 22.7835 31.6437 24.1043 28.4518 28.9472C25.8103 33.0196 21.7929 33.5149 20.1969 33.5149C15.1339 33.5149 11.6668 29.9378 10.6212 26.2506C10.6212 26.1956 10.6212 26.1956 10.6212 26.1405C10.6212 26.0855 10.6212 26.0305 10.5662 26.0305C10.1809 24.4896 10.0709 23.7741 10.0709 22.1232C10.0709 13.3179 19.1513 3.46704 32.1941 3.46704C45.567 3.46704 53.2166 13.6481 55.1427 19.2615C55.0877 19.1514 55.0877 19.0413 55.0327 18.9863C51.2354 7.9247 40.7792 -2.28882e-05 28.4518 -2.28882e-05C12.8776 -2.28882e-05 0.330078 12.6025 0.330078 28.1217C0.330078 41.99 10.346 53.8771 24.2143 53.8771C35.2759 53.8771 42.7604 47.6584 46.1724 39.1283C48.0435 34.4505 46.7227 28.9472 42.4302 26.0305Z" fill="#525252"/>
<path d="M55.3078 19.8667C53.6569 14.3634 45.9523 3.52196 32.139 3.52196C19.0963 3.52196 10.0159 13.3728 10.0159 22.1781C10.0159 23.8291 10.1259 24.5445 10.5112 26.0854C10.3461 25.425 10.236 24.7646 10.236 24.1042C10.236 14.9137 19.4265 8.52994 28.8921 8.52994C41.7147 8.52994 52.0609 18.9311 52.0609 31.6987C52.0609 41.7147 46.2825 50.4099 37.8625 54.5924C48.7039 50.6851 56.4085 40.2839 56.4085 28.1216C56.5736 25.2599 56.1884 22.7284 55.3078 19.8667Z" fill="#525252"/>
</svg>
