<svg width="18" height="18" viewBox="0 0 18 18" fill="none" xmlns="http://www.w3.org/2000/svg">
<path d="M9.75 14.2502H14.25V7.4837L9 3.4007L3.75 7.4837V14.2502H8.25H9.75ZM15.75 15.0002C15.75 15.1991 15.671 15.3899 15.5303 15.5305C15.3897 15.6712 15.1989 15.7502 15 15.7502H3C2.80109 15.7502 2.61032 15.6712 2.46967 15.5305C2.32902 15.3899 2.25 15.1991 2.25 15.0002V7.1177C2.24992 7.00341 2.27596 6.89062 2.32614 6.78793C2.37631 6.68524 2.44929 6.59538 2.5395 6.5252L8.5395 1.8587C8.67116 1.75629 8.8332 1.70068 9 1.70068C9.1668 1.70068 9.32884 1.75629 9.4605 1.8587L15.4605 6.5252C15.5507 6.59538 15.6237 6.68524 15.6739 6.78793C15.724 6.89062 15.7501 7.00341 15.75 7.1177V15.0002Z" fill="white"/>
<path d="M9 9.75V15" stroke="white" stroke-width="1.5"/>
</svg>
