<svg width="607" height="147" viewBox="0 0 607 147" fill="none" xmlns="http://www.w3.org/2000/svg">
<g opacity="0.5" clip-path="url(#clip0)">
<path d="M52.8697 55.4382H41.2231C38.8526 55.4382 36.9291 53.5319 36.9291 51.1827C36.9291 48.8335 38.8526 46.9272 41.2231 46.9272" stroke="white" stroke-width="2.5" stroke-miterlimit="10" stroke-linecap="round" stroke-linejoin="round"/>
<path d="M138.13 55.4382H149.777C152.147 55.4382 154.071 53.5319 154.071 51.1827C154.071 48.8335 152.147 46.9272 149.777 46.9272" stroke="white" stroke-width="2.5" stroke-miterlimit="10" stroke-linecap="round" stroke-linejoin="round"/>
<path d="M75.0456 114.198C70.5833 109.333 67.8638 102.872 67.8638 95.7797C67.8638 80.6541 80.2361 68.3904 95.5013 68.3904C110.766 68.3904 123.139 80.6516 123.139 95.7797C123.139 110.908 110.766 123.169 95.5013 123.169C90.4112 123.169 85.6426 121.805 81.5469 119.426" stroke="white" stroke-width="2.5" stroke-miterlimit="10" stroke-linecap="round" stroke-linejoin="round"/>
<path d="M108.886 84.7473C111.4 87.7386 112.911 91.5859 112.911 95.7817C112.911 105.31 105.117 113.035 95.5015 113.035C89.8214 113.035 84.774 110.337 81.5974 106.167" stroke="white" stroke-width="2.5" stroke-miterlimit="10" stroke-linecap="round" stroke-linejoin="round"/>
<path d="M80.2589 87.435C83.2271 82.1244 88.9399 78.5259 95.5015 78.5259C99.3058 78.5259 102.824 79.7353 105.689 81.7859" stroke="white" stroke-width="2.5" stroke-miterlimit="10" stroke-linecap="round" stroke-linejoin="round"/>
<path d="M138.13 39.9214H52.8697C51.5188 39.9214 50.4214 41.0064 50.4214 42.3478V53.0113C50.4214 54.3502 51.5162 55.4377 52.8697 55.4377H138.133C139.484 55.4377 140.581 54.3527 140.581 53.0113V42.3453C140.579 41.0064 139.484 39.9214 138.13 39.9214Z" stroke="white" stroke-width="2.5" stroke-miterlimit="10" stroke-linecap="round" stroke-linejoin="round"/>
<path d="M67.8637 46.0127H50.4214" stroke="white" stroke-width="2.5" stroke-miterlimit="10" stroke-linecap="round" stroke-linejoin="round"/>
<path d="M140.579 46.0127H72.6677" stroke="white" stroke-width="2.5" stroke-miterlimit="10" stroke-linecap="round" stroke-linejoin="round"/>
<path d="M60.4129 55.438V139.891C60.4129 140.548 59.8756 141.08 59.2126 141.08H54.0698C53.4069 141.08 52.8695 140.548 52.8695 139.891V55.438" stroke="white" stroke-width="2.5" stroke-miterlimit="10" stroke-linecap="round" stroke-linejoin="round"/>
<path d="M52.8695 77.0638V55.438" stroke="white" stroke-width="2.5" stroke-miterlimit="10" stroke-linecap="round" stroke-linejoin="round"/>
<path d="M60.4131 55.438L78.6138 74.1248" stroke="white" stroke-width="2.5" stroke-miterlimit="10" stroke-linecap="round" stroke-linejoin="round"/>
<path d="M130.589 55.438V139.891C130.589 140.548 131.127 141.08 131.79 141.08H136.93C137.593 141.08 138.13 140.548 138.13 139.891V55.438" stroke="white" stroke-width="2.5" stroke-miterlimit="10" stroke-linecap="round" stroke-linejoin="round"/>
<path d="M130.589 55.438L112.386 74.1248" stroke="white" stroke-width="2.5" stroke-miterlimit="10" stroke-linecap="round" stroke-linejoin="round"/>
<path d="M82.6994 95.4705C82.6994 97.9889 80.6403 101.871 78.0991 101.871C75.5578 101.871 73.4987 97.9889 73.4987 95.4705C73.4987 92.952 75.5578 90.9114 78.0991 90.9114C80.6403 90.9114 82.6994 92.9545 82.6994 95.4705Z" stroke="white" stroke-width="2.5" stroke-miterlimit="10" stroke-linecap="round" stroke-linejoin="round"/>
<path d="M78.1014 130.03V101.872" stroke="white" stroke-width="2.5" stroke-miterlimit="10" stroke-linecap="round" stroke-linejoin="round"/>
<path d="M52.8695 111.463H60.4129" stroke="white" stroke-width="2.5" stroke-miterlimit="10" stroke-linecap="round" stroke-linejoin="round"/>
<path d="M130.589 111.463H138.13" stroke="white" stroke-width="2.5" stroke-miterlimit="10" stroke-linecap="round" stroke-linejoin="round"/>
<path d="M52.8695 117.118H60.4129" stroke="white" stroke-width="2.5" stroke-miterlimit="10" stroke-linecap="round" stroke-linejoin="round"/>
<path d="M130.589 117.118H138.13" stroke="white" stroke-width="2.5" stroke-miterlimit="10" stroke-linecap="round" stroke-linejoin="round"/>
</g>
<g opacity="0.5">
<path d="M24.4436 55.1593C24.4436 58.2361 21.7417 61.2114 21.7417 61.2114C21.7417 61.2114 19.0398 58.1552 19.0398 55.1593C19.0398 53.6613 20.2493 52.4473 21.7417 52.4473C23.2341 52.4473 24.4436 53.6613 24.4436 55.1593Z" stroke="white" stroke-width="2.5" stroke-miterlimit="10" stroke-linecap="round" stroke-linejoin="round"/>
<path d="M21.7417 100.743V106.25" stroke="white" stroke-width="2.5" stroke-miterlimit="10" stroke-linecap="round" stroke-linejoin="round"/>
<path d="M18.5996 100.743V106.25" stroke="white" stroke-width="2.5" stroke-miterlimit="10" stroke-linecap="round" stroke-linejoin="round"/>
<path d="M24.8831 100.743V106.25" stroke="white" stroke-width="2.5" stroke-miterlimit="10" stroke-linecap="round" stroke-linejoin="round"/>
<path d="M25.5625 96.0125H17.92C17.7319 96.0125 17.5796 96.1653 17.5796 96.3542V99.7201C17.5796 100.285 18.0365 100.744 18.5997 100.744H24.8816C25.4447 100.744 25.9017 100.285 25.9017 99.7201V96.3542C25.903 96.1653 25.7506 96.0125 25.5625 96.0125Z" stroke="white" stroke-width="2.5" stroke-miterlimit="10" stroke-linecap="round" stroke-linejoin="round"/>
<path d="M24.2454 62.627C25.9182 60.9479 28.6317 60.9479 30.3045 62.627C31.9774 64.3061 31.9774 67.0296 30.3045 68.7087" stroke="white" stroke-width="2.5" stroke-miterlimit="10" stroke-linecap="round" stroke-linejoin="round"/>
<path d="M13.1778 85.8996C11.505 87.5787 8.79152 87.5787 7.11866 85.8996C5.4458 84.2205 5.4458 81.497 7.11866 79.8179" stroke="white" stroke-width="2.5" stroke-miterlimit="10" stroke-linecap="round" stroke-linejoin="round"/>
<path d="M19.2385 91.9809C17.5656 93.66 14.8522 93.66 13.1793 91.9809C11.5065 90.3018 11.5065 87.5783 13.1793 85.8992" stroke="white" stroke-width="2.5" stroke-miterlimit="10" stroke-linecap="round" stroke-linejoin="round"/>
<path d="M30.3044 68.7085C31.9773 67.0294 34.6907 67.0294 36.3636 68.7085C38.0365 70.3876 38.0365 73.1112 36.3636 74.7903" stroke="white" stroke-width="2.5" stroke-miterlimit="10" stroke-linecap="round" stroke-linejoin="round"/>
<path d="M17.1394 69.7596L24.2456 62.627C25.9184 60.9479 28.6319 60.9479 30.3047 62.627C31.9776 64.3061 31.9776 67.0296 30.3047 68.7087L29.2577 69.7596" stroke="white" stroke-width="2.5" stroke-miterlimit="10" stroke-linecap="round" stroke-linejoin="round"/>
<path d="M14.2248 84.849L13.1778 85.8999C11.505 87.579 8.79152 87.579 7.11866 85.8999C5.4458 84.2208 5.4458 81.4973 7.11866 79.8182L14.2248 72.6855" stroke="white" stroke-width="2.5" stroke-miterlimit="10" stroke-linecap="round" stroke-linejoin="round"/>
<path d="M26.3433 72.6855L17.1394 81.9251" stroke="white" stroke-width="2.5" stroke-miterlimit="10" stroke-linecap="round" stroke-linejoin="round"/>
<path d="M26.3435 84.8481L19.2374 91.9808C17.5645 93.6599 14.8511 93.6599 13.1782 91.9808C11.5054 90.3017 11.5054 87.5781 13.1782 85.899" stroke="white" stroke-width="2.5" stroke-miterlimit="10" stroke-linecap="round" stroke-linejoin="round"/>
<path d="M30.3044 68.7085C31.9773 67.0294 34.6907 67.0294 36.3636 68.7085C38.0365 70.3876 38.0365 73.1112 36.3636 74.7903L29.2574 81.9229" stroke="white" stroke-width="2.5" stroke-miterlimit="10" stroke-linecap="round" stroke-linejoin="round"/>
<path d="M32.4242 75.8619L23.1985 66.6018" stroke="white" stroke-width="2.5" stroke-miterlimit="10" stroke-linecap="round" stroke-linejoin="round"/>
<path d="M23.1985 78.7668L30.3046 85.8995C31.9775 87.5786 34.6909 87.5786 36.3638 85.8995C38.0367 84.2204 38.0367 81.4968 36.3638 79.8177L35.3373 78.7874" stroke="white" stroke-width="2.5" stroke-miterlimit="10" stroke-linecap="round" stroke-linejoin="round"/>
<path d="M20.2844 63.6757L19.2374 62.6248C17.5645 60.9457 14.8511 60.9457 13.1782 62.6248C11.5054 64.3039 11.5054 67.0274 13.1782 68.7065L20.2844 75.8391" stroke="white" stroke-width="2.5" stroke-miterlimit="10" stroke-linecap="round" stroke-linejoin="round"/>
<path d="M23.1985 90.93L24.2455 91.9809C25.9183 93.66 28.6318 93.66 30.3046 91.9809C31.9775 90.3018 31.9775 87.5783 30.3046 85.8992" stroke="white" stroke-width="2.5" stroke-miterlimit="10" stroke-linecap="round" stroke-linejoin="round"/>
<path d="M11.0787 78.7646L20.284 88.0042" stroke="white" stroke-width="2.5" stroke-miterlimit="10" stroke-linecap="round" stroke-linejoin="round"/>
<path d="M13.1778 68.7085C11.505 67.0294 8.79152 67.0294 7.11866 68.7085C5.4458 70.3876 5.4458 73.1112 7.11866 74.7903L8.16564 75.8412" stroke="white" stroke-width="2.5" stroke-miterlimit="10" stroke-linecap="round" stroke-linejoin="round"/>
<path d="M21.7417 92.4019V96.0131" stroke="white" stroke-width="2.5" stroke-miterlimit="10" stroke-linecap="round" stroke-linejoin="round"/>
</g>
<g opacity="0.5">
<path d="M22.0546 39.1074C33.0965 39.1074 42.0478 33.9348 42.0478 27.5541C42.0478 21.1733 33.0965 16.0007 22.0546 16.0007C11.0127 16.0007 2.0614 21.1733 2.0614 27.5541C2.0614 33.9348 11.0127 39.1074 22.0546 39.1074Z" stroke="white" stroke-width="2.5" stroke-miterlimit="10" stroke-linecap="round" stroke-linejoin="round"/>
<path d="M22.0547 39.1074C24.8192 39.1074 27.0604 33.9348 27.0604 27.5541C27.0604 21.1733 24.8192 16.0007 22.0547 16.0007C19.2901 16.0007 17.049 21.1733 17.049 27.5541C17.049 33.9348 19.2901 39.1074 22.0547 39.1074Z" stroke="white" stroke-width="2.5" stroke-miterlimit="10" stroke-linecap="round" stroke-linejoin="round"/>
<path d="M10.3142 33.6346C9.00586 31.869 8.24976 29.7858 8.24976 27.5541C8.24976 21.1737 14.4302 16.0007 22.0536 16.0007C26.607 16.0007 30.6458 17.8465 33.1606 20.6927" stroke="white" stroke-width="2.5" stroke-miterlimit="10" stroke-linecap="round" stroke-linejoin="round"/>
<path d="M34.3174 22.2444C35.3021 23.8348 35.8593 25.6399 35.8593 27.5549C35.8593 33.9353 29.6788 39.1082 22.0554 39.1082C17.9008 39.1082 14.1747 37.5723 11.6442 35.1417" stroke="white" stroke-width="2.5" stroke-miterlimit="10" stroke-linecap="round" stroke-linejoin="round"/>
<path d="M28.2174 16.5204V14.1264C28.2174 13.7226 27.8898 13.395 27.486 13.395H16.6235C16.2197 13.395 15.8921 13.7226 15.8921 14.1264V16.5204" stroke="white" stroke-width="2.5" stroke-miterlimit="10" stroke-linecap="round" stroke-linejoin="round"/>
<path d="M31.7921 37.7546V40.9809C31.7921 41.3847 31.4645 41.7123 31.0607 41.7123H13.0498C12.6461 41.7123 12.3185 41.3847 12.3185 40.9809V37.7546" stroke="white" stroke-width="2.5" stroke-miterlimit="10" stroke-linecap="round" stroke-linejoin="round"/>
<path d="M13.0494 41.7134V44.6863" stroke="white" stroke-width="2.5" stroke-miterlimit="10" stroke-linecap="round" stroke-linejoin="round"/>
<path d="M31.0604 41.7134V44.6863" stroke="white" stroke-width="2.5" stroke-miterlimit="10" stroke-linecap="round" stroke-linejoin="round"/>
<path d="M22.0547 41.7134V46.3886" stroke="white" stroke-width="2.5" stroke-miterlimit="10" stroke-linecap="round" stroke-linejoin="round"/>
<path d="M26.5579 41.7134V44.6863" stroke="white" stroke-width="2.5" stroke-miterlimit="10" stroke-linecap="round" stroke-linejoin="round"/>
<path d="M17.5515 41.7134V44.6863" stroke="white" stroke-width="2.5" stroke-miterlimit="10" stroke-linecap="round" stroke-linejoin="round"/>
<path d="M15.3002 41.7134V44.6863" stroke="white" stroke-width="2.5" stroke-miterlimit="10" stroke-linecap="round" stroke-linejoin="round"/>
<path d="M19.8033 41.7134V44.6863" stroke="white" stroke-width="2.5" stroke-miterlimit="10" stroke-linecap="round" stroke-linejoin="round"/>
<path d="M24.306 41.7134V44.6863" stroke="white" stroke-width="2.5" stroke-miterlimit="10" stroke-linecap="round" stroke-linejoin="round"/>
<path d="M22.0547 49.7686V52.4476" stroke="white" stroke-width="2.5" stroke-miterlimit="10" stroke-linecap="round" stroke-linejoin="round"/>
<path d="M19.8033 49.7686V52.4476" stroke="white" stroke-width="2.5" stroke-miterlimit="10" stroke-linecap="round" stroke-linejoin="round"/>
<path d="M24.306 49.7686V52.4476" stroke="white" stroke-width="2.5" stroke-miterlimit="10" stroke-linecap="round" stroke-linejoin="round"/>
<path d="M28.8092 41.7134V44.6863" stroke="white" stroke-width="2.5" stroke-miterlimit="10" stroke-linecap="round" stroke-linejoin="round"/>
<path d="M24.7942 46.3889H19.3165C19.1819 46.3889 19.073 46.4978 19.073 46.6324V49.0363C19.073 49.44 19.4006 49.7676 19.8044 49.7676H24.3073C24.7111 49.7676 25.0387 49.44 25.0387 49.0363V46.6324C25.0377 46.4988 24.9288 46.3889 24.7942 46.3889Z" stroke="white" stroke-width="2.5" stroke-miterlimit="10" stroke-linecap="round" stroke-linejoin="round"/>
<path d="M23.4226 13.396H20.6871V12.3677C20.6871 11.6126 21.2997 11 22.0548 11C22.81 11 23.4226 11.6126 23.4226 12.3677V13.396V13.396Z" stroke="white" stroke-width="2.5" stroke-miterlimit="10" stroke-linecap="round" stroke-linejoin="round"/>
</g>
<g opacity="0.5">
<path d="M293.454 46.058L282.3 42.2962C280.856 41.8117 280.717 39.8321 282.081 39.1573C289.83 35.3228 307.151 25.6015 312.577 12.9421H367.067" stroke="white" stroke-width="3" stroke-miterlimit="10" stroke-linecap="round" stroke-linejoin="round"/>
<path d="M386.187 46.058L397.341 42.2962C398.785 41.8117 398.924 39.8321 397.56 39.1573C389.811 35.3228 372.489 25.6015 367.063 12.9421" stroke="white" stroke-width="3" stroke-miterlimit="10" stroke-linecap="round" stroke-linejoin="round"/>
<path d="M411.473 68.3116L400.42 71.897H279.222L268.168 68.3116C266.617 67.8098 266.582 65.6399 268.112 65.0862L293.454 55.9187H386.187L411.529 65.0862C413.059 65.6399 413.025 67.8098 411.473 68.3116Z" stroke="white" stroke-width="3" stroke-miterlimit="10" stroke-linecap="round" stroke-linejoin="round"/>
<path d="M386.187 46.0598H293.455V55.9195H386.187V46.0598Z" stroke="white" stroke-width="3" stroke-miterlimit="10" stroke-linecap="round" stroke-linejoin="round"/>
<path d="M400.419 71.8984H279.221V81.7581H400.419V71.8984Z" stroke="white" stroke-width="3" stroke-miterlimit="10" stroke-linecap="round" stroke-linejoin="round"/>
<path d="M312.574 12.9457L311.454 11.4507C310.501 10.1771 310.477 8.43982 311.392 7.14205L312.195 6" stroke="white" stroke-width="3" stroke-miterlimit="10" stroke-linecap="round" stroke-linejoin="round"/>
<path d="M367.063 12.9457L368.183 11.4507C369.137 10.1771 369.161 8.43982 368.246 7.14205L367.443 6" stroke="white" stroke-width="3" stroke-miterlimit="10" stroke-linecap="round" stroke-linejoin="round"/>
<path d="M279.221 81.7551V100.367" stroke="white" stroke-width="3" stroke-miterlimit="10" stroke-linecap="round" stroke-linejoin="round"/>
<path d="M400.419 81.7551V100.367" stroke="white" stroke-width="3" stroke-miterlimit="10" stroke-linecap="round" stroke-linejoin="round"/>
<path d="M326.525 81.7551V100.367" stroke="white" stroke-width="3" stroke-miterlimit="10" stroke-linecap="round" stroke-linejoin="round"/>
<path d="M310.758 81.7551V100.367" stroke="white" stroke-width="3" stroke-miterlimit="10" stroke-linecap="round" stroke-linejoin="round"/>
<path d="M294.988 81.7551V100.367" stroke="white" stroke-width="3" stroke-miterlimit="10" stroke-linecap="round" stroke-linejoin="round"/>
<path d="M368.883 81.7551V100.367" stroke="white" stroke-width="3" stroke-miterlimit="10" stroke-linecap="round" stroke-linejoin="round"/>
<path d="M384.649 81.7551V100.367" stroke="white" stroke-width="3" stroke-miterlimit="10" stroke-linecap="round" stroke-linejoin="round"/>
<path d="M353.113 81.7551V100.367" stroke="white" stroke-width="3" stroke-miterlimit="10" stroke-linecap="round" stroke-linejoin="round"/>
<path d="M266.985 100.369H412.655" stroke="white" stroke-width="3" stroke-miterlimit="10" stroke-linecap="round" stroke-linejoin="round"/>
<path d="M326.525 100.369L314.675 145.421" stroke="white" stroke-width="3" stroke-miterlimit="10" stroke-linecap="round" stroke-linejoin="round"/>
<path d="M353.113 100.369L364.966 145.421" stroke="white" stroke-width="3" stroke-miterlimit="10" stroke-linecap="round" stroke-linejoin="round"/>
<path d="M303.562 100.369L282.282 145.421" stroke="white" stroke-width="3" stroke-miterlimit="10" stroke-linecap="round" stroke-linejoin="round"/>
<path d="M376.659 100.369L397.939 145.421" stroke="white" stroke-width="3" stroke-miterlimit="10" stroke-linecap="round" stroke-linejoin="round"/>
<path d="M288.877 115.668C276.178 115.671 266.985 115.675 266.985 115.675" stroke="white" stroke-width="3" stroke-miterlimit="10" stroke-linecap="round" stroke-linejoin="round"/>
<path d="M322.502 115.678C321.917 115.668 314.867 115.668 303.796 115.668" stroke="white" stroke-width="3" stroke-miterlimit="10" stroke-linecap="round" stroke-linejoin="round"/>
<path d="M281.645 130.979C272.16 130.982 266.985 130.986 266.985 130.986" stroke="white" stroke-width="3" stroke-miterlimit="10" stroke-linecap="round" stroke-linejoin="round"/>
<path d="M318.469 130.988C317.797 130.978 308.65 130.974 296.563 130.978" stroke="white" stroke-width="3" stroke-miterlimit="10" stroke-linecap="round" stroke-linejoin="round"/>
<path d="M391.344 115.668C403.817 115.671 412.655 115.675 412.655 115.675" stroke="white" stroke-width="3" stroke-miterlimit="10" stroke-linecap="round" stroke-linejoin="round"/>
<path d="M357.14 115.678C357.735 115.668 365.112 115.668 376.424 115.668" stroke="white" stroke-width="3" stroke-miterlimit="10" stroke-linecap="round" stroke-linejoin="round"/>
<path d="M398.583 130.979C407.8 130.982 412.656 130.986 412.656 130.986" stroke="white" stroke-width="3" stroke-miterlimit="10" stroke-linecap="round" stroke-linejoin="round"/>
<path d="M361.168 130.988C361.85 130.978 371.37 130.974 383.662 130.978" stroke="white" stroke-width="3" stroke-miterlimit="10" stroke-linecap="round" stroke-linejoin="round"/>
</g>
<g opacity="0.5">
<path d="M232.552 83.6431H231.512C229.327 83.6431 227.557 81.8732 227.557 79.6882V76.9549C227.557 74.7699 229.327 73 231.512 73H232.552C234.737 73 236.507 74.7699 236.507 76.9549V79.6882C236.507 81.8732 234.737 83.6431 232.552 83.6431Z" stroke="white" stroke-width="2.5" stroke-miterlimit="10" stroke-linecap="round" stroke-linejoin="round"/>
<path d="M232.032 100.318H226.182L224.214 94.5336L210.238 94.5963C209.812 94.5978 209.464 94.2532 209.464 93.8256V86.4969C209.464 85.5759 210.268 84.8601 211.183 84.9666L228.606 86.995L237.882 100.318" stroke="white" stroke-width="2.5" stroke-miterlimit="10" stroke-linecap="round" stroke-linejoin="round"/>
<path d="M232.032 100.318H237.882L239.849 94.5333L255.47 99.3544C255.965 99.5079 256.468 99.1367 256.468 98.6182V91.1751C256.468 90.4045 255.898 89.7513 255.133 89.648L235.457 86.9946L232.129 92.0522" stroke="white" stroke-width="2.5" stroke-miterlimit="10" stroke-linecap="round" stroke-linejoin="round"/>
<path d="M237.884 100.319H226.182V103.606H237.884V100.319Z" stroke="white" stroke-width="2.5" stroke-miterlimit="10" stroke-linecap="round" stroke-linejoin="round"/>
<path d="M237.884 103.605L243.358 107.735L242.458 107.843C241.27 107.986 240.171 108.539 239.348 109.406L235.469 113.504C233.725 115.344 231.302 116.387 228.766 116.387H223.757" stroke="white" stroke-width="2.5" stroke-miterlimit="10" stroke-linecap="round" stroke-linejoin="round"/>
<path d="M226.182 103.605L221.21 114.747C220.764 115.75 220.931 116.92 221.644 117.755L224.28 120.845" stroke="white" stroke-width="2.5" stroke-miterlimit="10" stroke-linecap="round" stroke-linejoin="round"/>
<path d="M232.845 115.437L231.662 133.663C231.567 135.201 230.292 136.399 228.751 136.399H227.198C225.587 136.399 224.282 135.093 224.282 133.482V116.388" stroke="white" stroke-width="2.5" stroke-miterlimit="10" stroke-linecap="round" stroke-linejoin="round"/>
<path d="M243.356 107.735L246.602 109.393C248.392 110.307 249.518 112.146 249.518 114.157V120.52C249.518 121.968 248.344 123.142 246.896 123.142H244.674C243.225 123.142 242.052 121.967 242.052 120.52V117.669C242.052 116.692 241.373 115.844 240.42 115.63L234.585 114.32" stroke="white" stroke-width="2.5" stroke-miterlimit="10" stroke-linecap="round" stroke-linejoin="round"/>
<path d="M231.099 140.527H224.609C224.094 140.527 223.676 140.109 223.676 139.594C223.676 137.829 225.106 136.399 226.871 136.399H228.838C230.604 136.399 232.034 137.829 232.034 139.594C232.032 140.109 231.614 140.527 231.099 140.527Z" stroke="white" stroke-width="2.5" stroke-miterlimit="10" stroke-linecap="round" stroke-linejoin="round"/>
<path d="M228.606 86.9946L229.206 86.3948C229.615 85.9859 229.844 85.433 229.844 84.8551V83.2747" stroke="white" stroke-width="2.5" stroke-miterlimit="10" stroke-linecap="round" stroke-linejoin="round"/>
<path d="M235.457 86.9946L234.858 86.3948C234.449 85.9859 234.22 85.433 234.22 84.8551V83.2747" stroke="white" stroke-width="2.5" stroke-miterlimit="10" stroke-linecap="round" stroke-linejoin="round"/>
<path d="M247.598 123.044C248.383 123.843 248.698 125.016 248.378 126.124L247.535 129.047C247.277 129.946 246.455 130.564 245.52 130.564C244.584 130.564 243.762 129.946 243.504 129.047L242.661 126.124C242.323 124.951 242.696 123.702 243.587 122.905" stroke="white" stroke-width="2.5" stroke-miterlimit="10" stroke-linecap="round" stroke-linejoin="round"/>
<path d="M235.458 86.9946L232.129 92.0522" stroke="white" stroke-width="2.5" stroke-miterlimit="10" stroke-linecap="round" stroke-linejoin="round"/>
<path d="M259.015 94.2244H256.468V91.3298L257.951 86.0138C258.084 85.5361 258.52 85.2056 259.015 85.2056C259.625 85.2056 260.119 85.7005 260.119 86.3098V93.1201C260.12 93.7294 259.625 94.2244 259.015 94.2244Z" stroke="white" stroke-width="2.5" stroke-miterlimit="10" stroke-linecap="round" stroke-linejoin="round"/>
<path d="M206.917 90.1787H209.466V87.2842L207.982 81.9681C207.849 81.4904 207.414 81.1599 206.919 81.1599C206.308 81.1599 205.815 81.6549 205.815 82.2642V89.0745C205.813 89.6838 206.307 90.1787 206.917 90.1787Z" stroke="white" stroke-width="2.5" stroke-miterlimit="10" stroke-linecap="round" stroke-linejoin="round"/>
<path d="M228.606 74.2742L229.376 75.3424C230.003 76.2101 231.009 76.7254 232.078 76.7254C233.154 76.7254 234.163 76.207 234.788 75.3314L235.507 74.3259" stroke="white" stroke-width="2.5" stroke-miterlimit="10" stroke-linecap="round" stroke-linejoin="round"/>
</g>
<g opacity="0.5">
<path d="M507.641 78.6104V85.0113H472.603V78.6104" stroke="white" stroke-width="2.5" stroke-miterlimit="10" stroke-linecap="round" stroke-linejoin="round"/>
<path d="M494.706 73.001V85.011" stroke="white" stroke-width="2.5" stroke-miterlimit="10" stroke-linecap="round" stroke-linejoin="round"/>
<path d="M485.537 85.011V73.001" stroke="white" stroke-width="2.5" stroke-miterlimit="10" stroke-linecap="round" stroke-linejoin="round"/>
<path d="M518.272 99.4446H461.971V106.332H518.272V99.4446Z" stroke="white" stroke-width="2.5" stroke-miterlimit="10" stroke-linecap="round" stroke-linejoin="round"/>
<path d="M527.424 139.807H452.821C452.002 139.807 451.34 139.145 451.34 138.326V120.767H528.904V138.326C528.904 139.145 528.24 139.807 527.424 139.807Z" stroke="white" stroke-width="2.5" stroke-miterlimit="10" stroke-linecap="round" stroke-linejoin="round"/>
<path d="M482.054 78.6096H472.603L468.611 74.044C467.941 73.2769 468.176 72.085 469.085 71.6272L486.716 62.7991H493.524L511.155 71.6272C512.067 72.0829 512.3 73.2769 511.629 74.044L507.637 78.6096H498.186" stroke="white" stroke-width="2.5" stroke-miterlimit="10" stroke-linecap="round" stroke-linejoin="round"/>
<path d="M507.642 85.0095L521.84 92.4477C522.731 92.9158 522.951 94.0933 522.289 94.8501L518.272 99.4446" stroke="white" stroke-width="2.5" stroke-miterlimit="10" stroke-linecap="round" stroke-linejoin="round"/>
<path d="M461.971 99.4449L457.956 94.8504C457.294 94.0915 457.514 92.914 458.405 92.448L472.603 85.0098" stroke="white" stroke-width="2.5" stroke-miterlimit="10" stroke-linecap="round" stroke-linejoin="round"/>
<path d="M451.34 120.769L447.323 116.175C446.661 115.416 446.882 114.238 447.773 113.772L461.971 106.334" stroke="white" stroke-width="2.5" stroke-miterlimit="10" stroke-linecap="round" stroke-linejoin="round"/>
<path d="M518.272 106.334L532.47 113.772C533.361 114.24 533.581 115.418 532.919 116.175L528.902 120.769" stroke="white" stroke-width="2.5" stroke-miterlimit="10" stroke-linecap="round" stroke-linejoin="round"/>
<path d="M490.117 56C488.239 56 486.717 57.5219 486.717 59.4005V62.7989H493.518V59.3984C493.518 57.5219 491.996 56 490.117 56Z" stroke="white" stroke-width="2.5" stroke-miterlimit="10" stroke-linecap="round" stroke-linejoin="round"/>
<path d="M520.526 114.965H533.295" stroke="white" stroke-width="2.5" stroke-miterlimit="10" stroke-linecap="round" stroke-linejoin="round"/>
<path d="M446.95 114.965H516.499" stroke="white" stroke-width="2.5" stroke-miterlimit="10" stroke-linecap="round" stroke-linejoin="round"/>
<path d="M470.137 93.7263H457.574" stroke="white" stroke-width="2.5" stroke-miterlimit="10" stroke-linecap="round" stroke-linejoin="round"/>
<path d="M522.671 93.7263H474.163" stroke="white" stroke-width="2.5" stroke-miterlimit="10" stroke-linecap="round" stroke-linejoin="round"/>
<path d="M512.017 73.001H468.227" stroke="white" stroke-width="2.5" stroke-miterlimit="10" stroke-linecap="round" stroke-linejoin="round"/>
<path d="M480.615 120.767V139.807" stroke="white" stroke-width="2.5" stroke-miterlimit="10" stroke-linecap="round" stroke-linejoin="round"/>
<path d="M464.078 120.767V139.807" stroke="white" stroke-width="2.5" stroke-miterlimit="10" stroke-linecap="round" stroke-linejoin="round"/>
<path d="M499.622 129.252V139.808" stroke="white" stroke-width="2.5" stroke-miterlimit="10" stroke-linecap="round" stroke-linejoin="round"/>
<path d="M499.622 120.767V125.617" stroke="white" stroke-width="2.5" stroke-miterlimit="10" stroke-linecap="round" stroke-linejoin="round"/>
<path d="M516.158 120.767V139.807" stroke="white" stroke-width="2.5" stroke-miterlimit="10" stroke-linecap="round" stroke-linejoin="round"/>
</g>
<g opacity="0.5">
<path d="M581.257 50.1719C581.257 36.3175 570.026 25.0863 556.171 25.0863C542.317 25.0863 531.086 36.3175 531.086 50.1719C531.086 64.0263 542.317 75.2576 556.171 75.2576C570.026 75.2576 581.257 64.0263 581.257 50.1719Z" stroke="white" stroke-width="3" stroke-miterlimit="10" stroke-linecap="round" stroke-linejoin="round"/>
<path d="M573.896 67.8964C569.002 72.7911 561.066 72.7911 556.172 67.8964C551.277 63.0017 551.277 55.0667 556.172 50.172C561.066 45.2773 561.066 37.3423 556.172 32.4476C551.277 27.5529 543.342 27.5529 538.447 32.4476" stroke="white" stroke-width="3" stroke-miterlimit="10" stroke-linecap="round" stroke-linejoin="round"/>
<path d="M550.475 42.6204C551.2 40.872 550.369 38.8676 548.621 38.1434C546.873 37.4193 544.868 38.2495 544.144 39.9979C543.42 41.7462 544.25 43.7506 545.998 44.4748C547.747 45.199 549.751 44.3687 550.475 42.6204Z" stroke="white" stroke-width="3" stroke-miterlimit="10" stroke-linecap="round" stroke-linejoin="round"/>
<path d="M567.457 61.4578C568.795 60.1197 568.795 57.9502 567.457 56.6121C566.119 55.274 563.95 55.274 562.612 56.6121C561.274 57.9502 561.274 60.1197 562.612 61.4578C563.95 62.7959 566.119 62.7959 567.457 61.4578Z" stroke="white" stroke-width="3" stroke-miterlimit="10" stroke-linecap="round" stroke-linejoin="round"/>
</g>
<defs>
<clipPath id="clip0">
<rect width="119" height="103" fill="white" transform="translate(36 39)"/>
</clipPath>
</defs>
</svg>
