<svg width="731" height="382" viewBox="0 0 731 382" fill="none" xmlns="http://www.w3.org/2000/svg">
<g opacity="0.2">
<path d="M30.8886 381.465C29.5349 381.465 28.107 381.438 26.642 381.391C25.4737 381.345 24.2961 381.261 22.9146 381.15C20.3184 380.917 18.0838 380.601 16.1088 380.183C15.6452 380.09 15.2001 379.997 14.7736 379.886L14.7087 379.867H14.6067L14.2636 379.783C13.5775 379.607 12.8914 379.421 12.1774 379.198C12.1218 379.179 12.0661 379.17 12.0198 379.151L11.9642 379.096L11.8158 379.086L11.2687 378.901L10.9071 378.77C10.6475 378.677 10.3786 378.575 10.1097 378.473L9.87792 378.38C9.77592 378.334 9.66466 378.296 9.56266 378.25L9.49776 378.185H9.37722C8.69108 377.897 8.07912 377.599 7.51352 377.293V377.098H7.16118C6.86447 376.93 6.57703 376.754 6.30814 376.586C6.09488 376.456 5.89089 376.326 5.68691 376.168C5.54782 376.094 5.47365 376.038 5.39947 375.982C4.77824 375.536 4.259 375.109 3.80466 374.672C3.5265 374.412 3.29469 374.179 3.09998 373.956C2.45093 373.269 1.87605 372.479 1.43099 371.67C1.29191 371.419 1.15282 371.159 1.04156 370.89C0.911749 370.639 0.781939 370.323 0.670673 369.997C0.587224 369.802 0.531591 369.607 0.48523 369.421C0.373964 369.077 0.309059 368.78 0.262698 368.52C0.234882 368.418 0.22561 368.343 0.207065 368.26C0.0494389 367.395 -0.0154662 366.587 0.00307811 365.676L0.0123503 365.434C0.0123503 365.295 0.0216224 365.156 0.0308946 365.016C0.0308946 364.812 0.058711 364.598 0.0772553 364.375C0.0865275 364.226 0.105072 364.115 0.123616 363.994L0.160705 363.715C0.35542 362.405 0.624312 361.029 1.00447 359.505C1.08792 359.171 1.18064 358.836 1.26409 358.502L1.3939 358.037C1.71843 356.875 2.05222 355.769 2.42311 354.682C2.53438 354.357 2.65491 354.022 2.77545 353.688L2.84963 353.455C3.18343 352.517 3.50795 351.652 3.85102 350.835C3.9252 350.639 3.99937 350.453 4.07355 350.268L4.21263 349.933L4.25899 349.84C4.94513 348.177 5.71472 346.467 6.55849 344.719L6.84592 344.143L7.56915 344.413L7.93077 343.558L7.29099 343.251C7.37444 343.084 7.74532 342.35 7.74532 342.35L7.84732 342.164C8.19039 341.495 8.53346 340.844 8.8858 340.194C12.6688 333.149 16.7579 327.127 19.5302 323.317L19.558 323.28L19.5859 323.224L19.521 323.317C21.4496 320.659 23.3596 318.178 25.0935 316.105C26.6791 314.209 28.3017 312.118 30.0263 309.916L30.7495 308.996C40.5502 296.394 53.9763 279.145 79.7992 264.564C85.3439 261.432 120.587 245.615 181.719 218.813L182.312 218.552L181.867 218.069C177.741 213.599 175.998 206.768 177.073 199.324C178.816 187.327 187.616 177.569 197.546 176.63L197.639 176.621L197.713 176.584C198.167 176.351 198.566 176.119 198.909 175.887L199.382 175.561L198.956 175.162C197.88 174.149 196.786 173.145 195.701 172.132L193.123 169.734L192.827 169.911C181.227 176.639 169.47 181.36 157.871 183.925L157.787 183.944L157.75 183.963C156.749 184.269 155.664 184.492 154.533 184.622L154.486 184.632L154.44 184.65C154.301 184.669 154.004 184.725 154.004 184.725C153.976 184.725 153.93 184.734 153.884 184.734C153.819 184.734 153.791 184.725 153.772 184.725L153.68 184.697L153.587 184.706C153.272 184.734 152.966 184.743 152.65 184.743C148.116 184.743 144.064 182.884 141.246 179.511C137.704 175.255 136.359 168.954 137.555 162.225C139.595 150.859 148.45 141.622 158.149 140.739L158.232 140.73L158.307 140.693C158.844 140.442 159.252 140.2 159.614 139.949L160.04 139.652L159.697 139.261C153.708 132.486 145.205 118.667 139.577 109.523C136.795 105.015 134.598 101.447 133.884 100.638C133.151 99.8109 132.919 98.8072 133.225 97.8129C134.125 94.9133 139.818 91.8837 148.441 89.709C149.34 89.486 150.23 89.2444 151.093 89.0027L151.195 88.9749C152.465 88.6217 153.689 88.2593 154.894 87.9061L155.451 87.7388C160.55 86.2147 165.372 84.7835 170.36 84.7835C173.253 84.7835 176.026 85.2575 178.854 86.224C179.92 86.5772 182.256 87.5437 186.206 89.2536L186.373 89.328L187.217 89.0213C187.301 88.9934 187.384 88.9749 187.467 88.9749C187.764 88.9749 188.033 89.1607 188.135 89.4488C188.172 89.551 188.191 89.644 188.172 89.7369L188.135 90.0808L188.45 90.2202C219.085 103.528 311.631 145.925 329.869 154.289L330.055 154.372L330.24 154.289C395.553 126.111 440.449 107.004 447.394 104.42L447.551 104.365L447.635 104.216C450.073 99.9317 490.861 52.1916 504.955 35.8074L505.307 35.3985L504.853 35.1104C496.564 29.8596 481.877 20.4547 479.475 18.4938C477.25 16.7095 470.88 10.2413 465.669 4.7768L465.595 4.69316C465.428 4.50729 465.363 4.24708 465.428 4.00545C465.493 3.76382 465.688 3.56866 465.938 3.50361L473.745 1.45906L479.225 0.0185868C479.271 0.00929338 479.336 0 479.401 0C479.494 0 479.577 0.0185868 479.661 0.0464669L533.022 20.4919L533.18 20.4361C537.853 18.7355 541.608 17.3229 543.231 16.6537C543.935 16.3656 544.612 16.2262 545.243 16.2262C546.17 16.2262 546.967 16.5515 547.551 17.1556C548.868 18.5496 548.951 21.1146 547.783 24.2L547.598 24.6925L548.108 24.8226C624.946 44.032 635.813 47.2011 636.314 47.768C636.508 47.9817 636.777 48.4557 636.416 49.2549C636.165 49.8218 635.498 50.6582 634.589 51.569C632.336 53.8366 629.406 55.8253 628.312 55.8253C627.524 55.8253 618.956 55.2213 602.109 53.9853L595.711 53.5206C592.188 53.2697 589.508 53.0745 588.469 53.0095C586.346 52.8701 570.676 50.1843 539.16 44.5432L538.798 44.4781L538.65 44.8127C533.43 56.8197 526.355 73.2133 522.35 82.5438L522.062 83.2037L522.786 83.1944C523.017 83.1944 523.258 83.1851 523.49 83.1851C529.981 83.1851 534.867 84.9136 538.01 88.3243C542.34 93.0361 542.424 99.8295 541.728 104.699L541.719 104.746V104.792C541.738 105.062 541.71 105.35 541.636 105.629L541.571 105.898L541.775 106.084C541.812 106.121 541.849 106.177 541.886 106.233C542.053 106.586 541.905 107.023 541.552 107.19L540.82 107.543L540.746 107.664C535.887 115.907 513.152 135.6 500.032 146.603C479.141 164.13 454.96 182.95 438.418 194.538L437.63 195.096L438.557 195.365C492.873 211.332 673.263 264.397 714.051 276.683L714.32 276.757C718.725 278.077 721.108 278.801 721.831 279.043C726.699 280.697 729.248 282.342 729.86 284.21C730.361 285.79 729.499 287.221 728.572 288.55C728.089 289.219 727.144 290.381 725.503 292.314C724.13 293.922 722.313 296.013 719.782 298.894H719.698L719.596 299.089C718.836 299.972 718.057 300.845 717.297 301.71L716.045 303.132C714.311 305.092 712.716 306.914 711.474 308.336C708.127 312.202 705.095 313.642 700.292 313.642C698.029 313.642 695.424 313.336 692.939 312.992C684.696 311.905 580.226 301.858 564.742 300.381L564.223 300.334L564.232 300.864C564.288 302.806 564.047 306.44 561.858 308.959C561.654 309.228 542.368 333.772 510.444 342.312C509.193 342.786 507.95 343.084 506.68 343.233C506.476 343.279 506.337 343.316 506.198 343.344C506.133 343.353 506.086 343.363 506.04 343.363C505.957 343.363 505.901 343.353 505.873 343.344L505.79 343.316L505.706 343.325C505.363 343.353 505.011 343.363 504.658 343.363C492.818 343.363 482.628 331.17 481.469 315.603C480.829 307.025 483.138 299.219 487.802 294.182C490.676 291.078 494.274 289.21 498.205 288.801L498.307 288.792L498.4 288.736C498.817 288.476 499.225 288.16 499.559 287.853L500.208 287.24L435.395 273.857L435.368 274.396C435.256 276.274 434.709 279.796 432.336 282.231C432.113 282.491 410.852 306.236 378.817 314.395C377.621 314.823 376.443 315.092 375.275 315.222L375.062 315.269C374.96 315.297 374.848 315.315 374.737 315.334L374.598 315.343C374.487 315.343 374.375 315.306 374.246 315.232L374.014 315.092L373.782 315.232C373.689 315.287 373.615 315.315 373.55 315.324C373.448 315.343 373.355 315.343 373.253 315.343C368.515 315.343 364.102 313.41 360.495 309.739C355.507 304.665 352.706 296.933 352.818 288.522C352.845 286.366 353.068 284.22 353.495 282.129C354.162 278.792 355.321 275.697 356.934 272.937C356.99 272.835 357.083 272.761 357.231 272.677L357.472 272.556L357.482 272.268V272.194C357.788 269.787 359.141 268.068 360.764 268.049H361.088L361.19 267.742C361.237 267.612 361.292 267.51 361.367 267.445C362.09 266.785 362.841 266.2 363.592 265.689C365.752 264.22 368.107 263.272 370.574 262.873C370.592 262.873 370.611 262.873 370.639 262.873C370.769 262.873 370.861 262.891 370.954 262.938L371.204 263.049L371.51 262.798C372.039 262.519 372.595 262.138 373.031 261.767L373.745 261.153L352.159 256.702H352.132L330.157 252.167L330.008 252.241C274.95 280.196 93.9114 372.014 75.5247 375.862C70.8701 376.828 66.4658 377.664 62.4417 378.361C60.6615 378.659 58.9369 378.938 57.2493 379.189C57.2493 379.189 55.5803 379.44 55.0982 379.514C54.3193 379.625 53.5405 379.737 52.7802 379.839C45.6406 380.787 39.0666 381.326 33.2437 381.456C32.4278 381.456 31.6489 381.465 30.8886 381.465ZM15.0054 378.473C15.469 378.585 15.9234 378.687 16.387 378.78C18.3527 379.189 20.5316 379.505 23.0444 379.728C24.1848 379.83 25.3717 379.904 26.6883 379.96C28.1348 380.016 29.5627 380.034 30.9442 380.034C31.4542 380.034 31.9735 380.034 32.4927 380.025H32.7338L32.8914 379.793L32.9285 379.709C33.0954 379.356 33.2345 379.077 33.355 378.789C33.5034 378.482 33.6424 378.157 33.7723 377.822C33.8928 377.544 34.0133 377.237 34.1339 376.94L34.5326 375.889C34.6624 375.518 34.7644 375.202 34.8664 374.904C35.2094 373.817 35.4691 372.851 35.6638 371.94C36.1552 369.747 36.3963 367.563 36.3963 365.444C36.3963 364.347 36.3314 363.26 36.2016 362.2C34.6716 349.654 24.2219 341.225 10.2117 341.225H9.93355L9.79447 341.467C9.56266 341.894 9.34013 342.322 9.1176 342.749L8.97852 343.009C8.76526 343.418 8.57982 343.79 8.39437 344.171L8.37583 344.199C8.37583 344.199 8.29238 344.385 8.26456 344.431L7.8195 345.333C7.01282 346.987 6.26178 348.678 5.56637 350.351L5.52001 350.453L5.36238 350.853C5.29748 351.02 5.23257 351.178 5.16767 351.355C4.85241 352.126 4.53716 352.944 4.18482 353.938L4.11064 354.143C3.9901 354.478 3.87884 354.803 3.76757 355.128C3.34105 356.42 3.0258 357.433 2.75691 358.409C2.6271 358.883 2.50656 359.357 2.38602 359.83C2.03368 361.262 1.76479 362.6 1.57007 363.92C1.54226 364.078 1.52371 364.245 1.51444 364.403C1.47735 364.737 1.45881 364.923 1.45881 365.091C1.44953 365.23 1.44026 365.369 1.44026 365.499L1.43099 365.685C1.41244 366.466 1.46808 367.191 1.60716 367.906V367.981L1.64425 368.092C1.64425 368.092 1.64425 368.129 1.65352 368.167C1.70915 368.445 1.76479 368.706 1.85751 368.975C1.91314 369.18 1.95023 369.338 2.01513 369.505C2.11713 369.812 2.21912 370.053 2.33039 370.276C2.4602 370.564 2.57146 370.778 2.68273 370.983C3.08143 371.707 3.58213 372.386 4.157 372.999C4.37026 373.241 4.57425 373.445 4.77824 373.631C5.19548 374.031 5.65909 374.412 6.20615 374.802L6.27105 374.839C7.3188 375.573 8.52418 376.243 9.89646 376.847L9.98918 376.884H10.0077C10.4157 377.051 10.768 377.191 11.1111 377.321L11.176 377.349C11.5191 377.469 11.8529 377.59 12.1867 377.702C12.2701 377.73 12.3072 377.739 12.3443 377.748C13.2066 378.027 14.0318 378.259 14.8385 378.454L14.9034 378.464L15.0054 378.473ZM37.7778 363.529C37.7871 363.585 37.7871 363.65 37.7871 363.706C37.8056 364.022 37.8242 364.31 37.8335 364.607C37.8705 365.667 37.8427 366.773 37.7407 367.981C37.6851 368.529 37.6295 369.105 37.546 369.672C37.4255 370.527 37.2679 371.401 37.0824 372.246C36.7393 373.789 36.285 375.323 34.8664 378.956C34.82 379.068 34.7736 379.189 34.718 379.3L34.4028 379.988L35.1538 379.96C40.3833 379.774 46.2155 379.254 52.4835 378.427L52.5205 378.417L52.6133 378.389C52.6689 378.371 52.7245 378.352 52.7802 378.343C52.9378 378.296 53.0398 378.269 53.1418 378.241C53.2901 378.213 53.457 378.176 53.6332 378.148C53.8094 378.12 53.9948 378.101 54.171 378.083C54.3379 378.073 54.5048 378.064 54.6717 378.064H54.9591C55.5803 377.98 56.1552 377.897 56.7394 377.804L57.0453 377.757C58.7236 377.507 60.4482 377.228 62.2099 376.93C66.3268 376.233 70.7125 375.397 75.2466 374.449C93.2716 370.676 272.289 279.926 326.726 252.204L327.903 251.6L313.504 248.626C313.161 248.552 312.92 248.245 312.938 247.892L313.281 239.834C313.29 239.676 313.291 239.593 313.346 239.481C313.365 239.453 313.383 239.407 313.42 239.351C313.485 239.221 313.587 239.091 313.689 238.961L314.969 237.353L68.4779 358.278C68.4501 358.288 68.413 358.306 68.3666 358.316C66.7347 358.762 62.5901 359.868 57.5739 360.909L57.0453 361.02C56.7023 361.085 56.3499 361.159 55.9883 361.234C55.6267 361.299 55.2651 361.373 54.9035 361.448C54.9035 361.448 53.9948 361.615 53.7815 361.652C52.2702 361.931 50.7403 362.182 49.2475 362.395L48.6262 362.479C48.2646 362.526 47.9123 362.581 47.5507 362.619C47.1798 362.665 46.7996 362.711 46.438 362.749C46.234 362.777 46.0579 362.795 45.8817 362.814L44.8247 362.916C43.2669 363.046 41.9132 363.111 40.6985 363.111C40.3277 363.111 39.9846 363.102 39.6322 363.092C39.3912 363.083 39.1594 363.074 38.9183 363.055C38.7514 363.055 38.6216 363.046 38.4918 363.027C38.3898 363.027 38.3434 363.027 38.2971 363.018L37.6944 362.925L37.7778 363.529ZM19.4375 325.854C16.3313 330.278 13.5219 334.738 11.074 339.116L10.6846 339.803H11.4727L11.5098 339.813H11.5933C12.0105 339.831 12.4278 339.85 12.845 339.878L12.947 339.887C13.4848 339.933 14.0411 339.989 14.5789 340.063C14.922 340.101 15.2465 340.147 15.571 340.203C16.0068 340.268 16.4333 340.352 16.8598 340.435C17.2771 340.519 17.6943 340.612 18.1023 340.705C18.4639 340.788 18.8163 340.891 19.1686 340.984L19.419 341.058C19.7713 341.16 20.1236 341.281 20.476 341.392C20.8747 341.523 21.227 341.653 21.5794 341.783C21.6814 341.82 21.7277 341.839 21.7648 341.857C22.145 342.006 22.4695 342.136 22.8033 342.285C23.1464 342.433 23.4894 342.591 23.8325 342.759C24.2498 342.963 24.6021 343.149 24.9544 343.335C25.279 343.511 25.5849 343.679 25.8817 343.864C25.9558 343.911 26.0207 343.948 26.0856 343.976C26.3453 344.143 26.6605 344.348 26.9758 344.561C27.3096 344.775 27.6248 344.998 27.9308 345.231C28.2368 345.463 28.552 345.695 28.8487 345.946C30.7217 347.452 32.3443 349.236 33.6703 351.234C33.8279 351.466 33.9762 351.699 34.1153 351.922L34.2544 352.145C34.412 352.396 34.5604 352.647 34.6995 352.916C34.7458 353.009 34.7644 353.046 34.7829 353.074C34.922 353.316 35.0518 353.576 35.1816 353.836C35.2373 353.948 35.2836 354.05 35.33 354.143C35.4783 354.431 35.5989 354.701 35.7101 354.97L35.8214 355.23C35.9048 355.435 35.9883 355.63 36.0625 355.834C36.1552 356.048 36.2201 356.234 36.285 356.42C36.3963 356.699 36.489 356.968 36.5724 357.247C36.7023 357.637 36.8135 358.028 36.9155 358.409C37.0082 358.734 37.0824 359.05 37.1473 359.375C37.1844 359.515 37.2215 359.626 37.2308 359.747C37.3049 360.119 37.3698 360.453 37.4255 360.797C37.4626 360.936 37.4718 361.029 37.4904 361.132L37.546 361.466L37.8891 361.531C38.1672 361.568 38.464 361.596 38.7699 361.615C39.3634 361.661 40.0217 361.68 40.7078 361.68C44.0458 361.68 48.4408 361.178 53.763 360.193L55.3671 359.896C55.8863 359.793 56.4056 359.691 56.9155 359.58C57.0732 359.552 57.2493 359.515 57.4255 359.477C57.75 359.412 58.0931 359.338 58.4176 359.264C58.5474 359.245 58.6865 359.208 58.8349 359.18C59.3819 359.059 59.8548 358.957 60.3091 358.845C60.6059 358.78 60.9211 358.715 61.2178 358.641C61.6443 358.548 62.0801 358.446 62.4788 358.344L62.8683 358.26C63.2577 358.167 63.6193 358.074 63.9716 357.99L64.0087 357.981C64.3611 357.897 64.7134 357.814 65.0287 357.73C65.0287 357.73 65.4552 357.619 65.5665 357.591H65.7148L65.7612 357.544C65.9095 357.507 66.0579 357.47 66.1877 357.433C67.0407 357.219 67.6156 357.061 67.8474 356.996L324.695 231.006L324.769 230.959C326.401 229.909 328.135 228.812 329.943 227.688C330.694 227.223 331.464 226.759 332.224 226.294C333.8 225.327 335.414 224.352 337.036 223.385C337.769 222.948 338.511 222.511 339.243 222.084C341.895 220.523 344.538 218.999 347.115 217.54C351.13 215.272 358.344 211.276 361.626 210.012C365.094 208.683 375.859 204.891 382.989 202.373L499.151 145.395L499.197 145.358C517.686 129.838 531.103 117.394 536.972 110.331L538.344 108.677L85.789 328.056C85.687 328.121 85.6499 328.14 85.6036 328.159L85.5108 328.187L73.3921 334.069C73.3458 334.088 73.3087 334.106 73.2716 334.116C73.114 334.171 72.6318 334.339 71.8622 334.59C71.6397 334.664 71.3986 334.738 71.1297 334.822L70.4992 335.008C69.9985 335.157 69.4515 335.315 68.8488 335.473C67.1056 335.947 65.2327 336.374 63.2948 336.736C62.3768 336.913 61.4125 337.08 60.4111 337.238C60.4111 337.238 59.5952 337.359 59.3912 337.387C58.6958 337.489 57.9911 337.573 57.2679 337.656C54.4955 337.972 51.7602 338.13 49.1362 338.13C41.9225 338.13 35.2651 336.978 29.3402 334.692C28.8024 334.478 28.311 334.264 27.8566 334.032C27.6804 333.958 27.5414 333.874 27.4023 333.79C27.2354 333.707 27.0963 333.632 26.9665 333.549C26.7161 333.4 26.5029 333.27 26.2989 333.131C26.132 333.019 25.9929 332.926 25.8538 332.833L25.7426 332.759C25.5386 332.61 25.3531 332.471 25.1584 332.322C24.4074 331.737 23.7212 331.086 23.1186 330.389C22.9702 330.231 22.8404 330.082 22.7198 329.924L22.7013 329.897L22.6086 329.785C22.4695 329.627 22.349 329.46 22.2192 329.292C22.145 329.181 22.0615 329.06 21.9595 328.93C21.4774 328.252 21.023 327.49 20.6058 326.662C20.476 326.411 20.3554 326.161 20.2442 325.91L19.9011 325.185L19.4375 325.854ZM498.483 290.158C494.839 290.511 491.511 292.221 488.849 295.093C484.454 299.842 482.285 307.258 482.897 315.445C484 330.268 493.56 341.876 504.658 341.876C505.261 341.876 505.808 341.848 506.346 341.783C507.625 341.504 508.775 341.225 509.906 340.928C512.197 340.054 514.227 338.632 515.961 336.699C520.44 331.727 522.507 324.032 521.645 315.575C520.189 301.282 510.658 290.093 499.957 290.093C499.522 290.093 499.067 290.112 498.641 290.149H498.622L498.483 290.158ZM501.432 287.76C501.395 287.825 501.358 287.89 501.311 287.955L500.894 288.597L501.608 288.745C512.391 289.805 521.617 301.282 523.064 315.427C523.972 324.293 521.766 332.387 517.018 337.656C516.972 337.712 516.916 337.768 516.87 337.814L515.433 339.274L517.343 338.595C544.445 328.772 560.625 308.187 560.764 307.983C562.823 305.594 562.85 301.914 562.776 300.446L562.758 300.093L501.608 287.463L501.432 287.76ZM28.4964 314.126C27.699 315.12 26.9294 316.068 26.1691 316.988C24.5186 318.986 22.7569 321.254 21.0694 323.558L20.9303 323.744L20.9952 323.967C21.0323 324.079 21.0694 324.19 21.1158 324.293C21.2363 324.636 21.3383 324.878 21.4496 325.11C21.5237 325.296 21.6165 325.482 21.6999 325.659C21.7926 325.863 21.8946 326.086 22.0152 326.3C22.1728 326.625 22.3582 326.96 22.5622 327.276C22.6735 327.471 22.8033 327.675 22.9424 327.871C23.0722 328.075 23.2391 328.307 23.4153 328.53C23.5543 328.735 23.7305 328.958 23.9252 329.172C24.0921 329.376 24.2776 329.581 24.4723 329.785C24.6299 329.971 24.8339 330.175 25.0472 330.361C25.2233 330.538 25.4273 330.724 25.6498 330.9C25.826 331.067 26.0485 331.235 26.2618 331.393C26.4658 331.551 26.6976 331.709 26.9294 331.857C27.7824 332.443 28.7653 332.945 29.8409 333.354C30.6197 333.66 31.4264 333.939 32.2516 334.199C32.9192 334.422 33.6332 334.627 34.412 334.831C34.514 334.868 34.6346 334.896 34.7551 334.934L34.8942 334.971C39.2335 336.086 43.9716 336.643 48.9693 336.643C50.4436 336.643 51.9735 336.597 53.4941 336.495H54.0319V336.458C54.6068 336.42 55.1631 336.374 55.7102 336.318H55.942L55.9698 336.29C56.9619 336.188 57.9262 336.077 58.8627 335.946H59.0574L59.0852 335.919C60.9304 335.658 62.7477 335.342 64.4723 334.989C65.279 334.813 66.0486 334.645 66.7533 334.478L66.8182 334.469C67.5414 334.292 68.1997 334.125 68.8117 333.967C69.8316 333.698 70.6847 333.447 71.3245 333.242L71.5099 333.186C71.6953 333.131 71.853 333.075 72.0013 333.038L72.7616 332.777L84.7134 326.988L87.3096 313.596L86.5122 313.921C80.3463 316.458 64.5465 322.369 51.0741 322.369C47.8381 322.369 44.9174 322.016 42.4046 321.328C36.9062 319.822 32.4556 317.388 29.164 314.098L28.8024 313.735L28.4964 314.126ZM88.2925 311.663C88.4501 311.663 88.617 311.719 88.7376 311.821C88.9415 311.988 89.0435 312.258 88.9972 312.518L86.3268 326.198L539.791 106.381L539.865 106.242C540.273 105.443 540.31 105.006 540.291 104.82C540.273 104.709 540.273 104.643 540.291 104.569C540.968 99.9596 540.931 93.5565 536.944 89.2258C534.079 86.1218 529.554 84.5512 523.499 84.5512C522.915 84.5512 522.313 84.5698 521.701 84.5977L521.413 84.607L520.486 86.7537C520.412 86.9489 520.254 87.0883 520.069 87.1441L485.363 98.7236H485.326L485.28 98.7515L453.55 109.337C451.64 109.783 450.37 109.969 449.369 109.969C448.135 109.969 447.329 109.681 446.837 109.067C446.559 108.705 446.42 108.277 446.42 107.747C446.42 107.497 446.448 107.255 446.503 107.013L446.698 106.149L445.882 106.474C434.505 111.019 390.611 129.736 331.334 155.311L331.158 155.385L331.084 155.562C331.037 155.673 330.954 155.776 330.861 155.831L330.722 155.915L227.532 200.328L221.904 202.782C219.113 203.999 216.332 205.207 213.578 206.415L213.207 206.573C211.594 207.27 209.989 207.967 208.404 208.674L208.339 208.702L208.32 208.72L207.551 209.055C204.908 210.207 202.284 211.35 199.67 212.493C197.389 213.488 188.052 217.577 188.052 217.577L183.87 219.398C122.757 246.172 86.0394 262.64 80.4761 265.781C54.9498 280.205 41.6165 297.314 31.8807 309.804C31.2131 310.669 30.5826 311.477 29.9521 312.276L29.7018 312.592L29.9892 312.88C33.1232 316.087 37.4347 318.456 42.8033 319.934C45.177 320.585 47.9401 320.919 51.0184 320.919C66.6142 320.919 85.8354 312.676 87.9772 311.737C88.0978 311.691 88.1905 311.663 88.2925 311.663ZM374.301 314.163L374.96 313.745C375.998 313.522 377.064 313.271 378.455 312.927C379.651 312.629 380.922 312.267 382.349 311.839L382.795 311.7L382.665 311.254C382.581 310.966 382.674 310.659 382.906 310.483C388.877 305.957 392.373 297.723 392.243 288.476C392.067 275.047 384.213 264.536 373.986 264.025C373.708 264.006 373.532 263.821 373.457 263.718L373.198 263.356L372.827 263.598C372.577 263.756 372.345 263.895 372.159 263.988C372.057 264.044 371.946 264.071 371.826 264.071C371.742 264.071 371.659 264.053 371.547 264.006L371.297 263.904L371.084 264.071C370.973 264.155 370.871 264.202 370.778 264.22C368.515 264.592 366.364 265.456 364.371 266.813C363.675 267.287 362.98 267.835 362.312 268.439C362.238 268.504 362.145 268.551 362.006 268.588L361.747 268.653L361.673 268.913C361.635 269.034 361.58 269.136 361.496 269.22C360.495 270.242 359.577 271.395 358.77 272.64C358.705 272.742 358.613 272.826 358.501 272.882L358.26 273.002L358.251 273.272C358.242 273.411 358.214 273.523 358.168 273.606C356.638 276.237 355.534 279.173 354.895 282.352C354.496 284.35 354.273 286.413 354.255 288.485C354.144 296.515 356.795 303.875 361.515 308.68C364.853 312.062 368.905 313.856 373.253 313.856C373.374 313.847 373.411 313.838 373.439 313.838C373.559 313.838 373.68 313.875 373.791 313.949L374.023 314.088C374.023 314.088 374.292 313.94 374.311 313.93V314.163H374.301ZM563.388 298.634C563.518 298.634 563.648 298.671 563.759 298.745L563.861 298.81L563.982 298.819C580.681 300.409 684.603 310.399 693.115 311.523C695.98 311.905 698.289 312.155 700.254 312.155C704.659 312.155 707.311 310.901 710.38 307.351C711.622 305.92 713.226 304.089 714.96 302.128C715.572 301.431 716.193 300.725 716.815 300.009L717.668 299.033L567.449 276.859L350.565 219.686H350.537L347.597 218.915L347.431 219.008C346.17 219.714 344.89 220.458 343.592 221.201L340.69 222.883L338.956 223.905C338.056 224.435 337.157 224.974 336.248 225.513L336.119 225.588C332.447 227.781 328.756 230.067 325.446 232.186L325.335 232.251C317.064 237.567 315.21 239.333 314.793 239.844L314.7 239.964L314.375 247.343L352.354 255.168L374.431 259.731H374.477C374.607 259.731 374.709 259.75 374.811 259.797L374.858 259.824L434.811 272.203L500.69 285.818L500.82 285.772C500.922 285.753 500.968 285.744 501.005 285.744C501.172 285.744 501.339 285.809 501.469 285.92L501.562 285.995L563.11 298.708L563.24 298.661C563.314 298.634 563.351 298.634 563.388 298.634ZM374.941 261.637C374.885 261.739 374.811 261.841 374.737 261.934L374.255 262.585L375.062 262.668C385.66 263.83 393.485 274.675 393.671 288.457C393.782 296.961 390.954 304.73 385.891 309.767L384.445 311.208L386.374 310.538C413.55 301.041 431.121 281.376 431.279 281.181C433.513 278.876 433.875 275.316 433.93 273.895L433.94 273.504L375.099 261.349L374.941 261.637ZM398.233 198.553C393.458 200.207 388.386 201.992 383.555 203.692C379.568 205.096 366.244 209.78 362.183 211.332C361.533 211.582 360.736 211.936 359.874 212.354C359.67 212.447 359.447 212.549 359.206 212.679C358.446 213.042 357.584 213.478 356.647 213.971C356.174 214.212 355.674 214.473 355.154 214.751C353.717 215.514 352.132 216.378 350.407 217.335L349.406 217.893L350.926 218.292H350.991L567.681 275.428L718.817 297.741L718.984 297.556C722.053 294.071 726.263 289.247 727.403 287.649C728.321 286.329 728.766 285.446 728.497 284.591C728.043 283.216 725.642 281.785 721.367 280.335C720.913 280.177 719.568 279.759 714.459 278.225L714.2 278.151L701.701 289.888C701.664 289.926 701.636 289.954 701.617 289.963C701.562 290 701.506 290.019 701.441 290.046L701.33 290.074L701.219 290.093H701.182C701.107 290.093 701.052 290.084 701.005 290.065L398.464 198.544H398.316L398.233 198.553ZM418.409 191.518C418.066 191.639 417.667 191.778 417.213 191.936C417.027 192.001 416.221 192.28 416.221 192.28C415.989 192.364 415.748 192.447 415.497 192.531C414.978 192.717 414.413 192.912 413.828 193.116L408.33 195.031L408.107 195.115L406.698 195.598C405.215 196.118 403.657 196.667 402.044 197.233L400.699 197.707L701.043 288.578L712.624 277.696L711.854 277.463C664.065 263.105 459.021 202.828 435.803 195.997C426.8 193.349 419.42 191.174 419.42 191.174L418.409 191.518ZM199.16 177.94C198.752 177.94 198.325 177.959 197.899 177.996C188.497 178.758 180.142 187.996 178.473 199.501C177.416 206.806 179.289 213.608 183.49 217.688L183.712 217.902L186.336 216.759L185.836 216.276C181.978 212.558 180.179 206.053 181.144 199.297C182.692 188.386 190.416 179.846 198.724 179.846C200.671 179.846 202.488 180.31 204.139 181.24L204.677 180.496C203.925 179.799 203.165 179.093 202.405 178.377L202.312 178.294L202.192 178.266C201.237 178.043 200.217 177.94 199.16 177.94ZM198.724 181.286C191.241 181.286 183.981 189.455 182.544 199.501C181.561 206.397 183.508 212.698 187.616 215.932L187.838 216.108L191.964 214.305C194.264 213.292 196.582 212.279 198.928 211.257L207.56 207.484L207.634 207.326C208.821 204.854 209.628 202.085 209.971 199.315C210.091 198.339 210.147 197.345 210.147 196.36C210.147 191.732 208.775 187.633 206.29 184.808C204.241 182.503 201.626 181.286 198.724 181.286ZM208.478 185.301C211.009 189.018 212.039 194.055 211.38 199.482C211.13 201.564 210.639 203.618 209.906 205.598L209.526 206.62L210.518 206.192C211.186 205.904 211.853 205.616 212.53 205.319L212.715 205.235L212.78 205.04C213.392 203.209 213.819 201.285 214.041 199.324C214.496 195.431 214.134 191.657 212.975 188.405V188.284L212.827 188.135L209.174 184.715L208.478 185.301ZM215.275 191.565C215.72 194.083 215.785 196.741 215.469 199.482C215.312 200.83 215.052 202.196 214.709 203.534L214.477 204.454L215.349 204.073C218.409 202.735 221.496 201.388 224.593 200.04L225.242 199.761L223.508 198.135C221.756 196.49 219.187 194.064 216.053 191.137L215.034 190.189L215.275 191.565ZM204.445 178.303C207.848 181.481 211.102 184.529 214.014 187.262C220.18 193.042 224.871 197.457 226.438 198.934L226.568 199.064H226.948L227.032 198.99L227.727 198.683C235.933 195.105 244.232 191.49 252.549 187.894L252.595 187.875L252.641 187.838L272.799 179.083L180.411 120.033C180.402 120.024 180.346 119.987 180.319 119.959L151.065 90.4432L150.805 90.5175C150.184 90.6941 149.535 90.8614 148.895 91.0287L148.784 91.0566C140.884 93.0361 135.312 95.8427 134.588 98.1939C134.477 98.5563 134.421 99.0582 134.95 99.6529C135.71 100.517 137.62 103.603 140.782 108.723C146.54 118.072 155.237 132.198 161.107 138.667L161.199 138.769L161.329 138.806C161.403 138.825 161.478 138.862 161.533 138.908C161.682 139.02 161.774 139.159 161.802 139.308L161.83 139.438L161.923 139.531C162.535 140.154 163.082 140.655 163.564 141.027L163.823 141.213L163.907 141.259C164.027 141.362 164.25 141.548 164.491 141.752C165.39 142.505 166.855 143.75 168.784 145.46C168.784 145.46 169.572 146.166 169.85 146.408C170.926 147.365 172.094 148.425 173.374 149.577C178.511 154.205 185.344 160.497 193.708 168.275L194.106 168.638C196.378 170.747 198.65 172.866 200.884 174.957L201.802 175.812C202.256 176.23 202.702 176.649 203.147 177.076L203.276 177.206H203.286L204.445 178.303ZM401.348 194.975L401.7 195.83C411.483 192.401 419.141 189.734 419.141 189.734C419.216 189.706 419.29 189.697 419.364 189.697C419.438 189.697 419.503 189.706 419.577 189.724L420.523 190.003C420.653 190.04 420.801 190.087 420.959 190.133L421.311 190.245C421.506 190.31 421.738 190.375 421.988 190.44C422.294 190.533 422.535 190.607 422.804 190.682C422.869 190.71 422.924 190.719 422.962 190.728C422.962 190.728 423.685 190.942 423.935 191.016C424.306 191.118 424.677 191.23 425.066 191.351L425.187 191.388C425.344 191.434 425.502 191.481 425.669 191.527L426.958 191.908C427.996 192.215 429.146 192.55 430.388 192.921C430.602 192.977 430.806 193.042 431.01 193.107L433.346 193.786C433.643 193.879 433.949 193.971 434.274 194.055C434.57 194.148 434.876 194.241 435.201 194.334L435.859 194.529L436.044 194.399C450.463 184.409 471.705 168.071 491.492 151.78L490.991 150.999L401.348 194.975ZM159.697 142.049C159.289 142.049 158.881 142.068 158.464 142.105C149.285 142.83 140.893 151.566 138.946 162.43C137.806 168.731 139.039 174.604 142.321 178.544C144.899 181.63 148.459 183.256 152.623 183.256C153.123 183.256 153.624 183.228 154.171 183.182H154.394L154.44 183.145C155.349 182.977 156.322 182.773 157.324 182.55H157.574L157.62 182.457C165.557 179.948 172.066 171.649 173.504 162.197C174.143 157.997 173.745 154.01 172.345 150.664L172.307 150.571L172.233 150.506C170.842 149.242 169.581 148.109 168.45 147.105C168.079 146.77 167.718 146.454 167.375 146.157L166.753 146.845C167.059 147.133 167.347 147.43 167.597 147.728C170.629 151.278 171.853 156.631 170.963 162.439C169.35 172.866 161.385 181.351 153.207 181.351C149.897 181.351 146.883 179.92 144.704 177.336C141.635 173.665 140.467 168.145 141.515 162.207C143.341 151.882 151.102 143.797 159.187 143.797C161.691 143.797 164.046 144.624 166.002 146.185L166.596 145.469C165.798 144.772 165.094 144.159 164.472 143.639L163.629 142.932C163.443 142.774 163.267 142.626 163.119 142.514L163.045 142.458L162.952 142.44C161.904 142.17 160.819 142.049 159.697 142.049ZM174.829 153.963C175.339 156.621 175.377 159.456 174.922 162.411C174.162 167.42 172.131 172.113 169.044 175.979C168.033 177.243 166.948 178.386 165.826 179.353L164.148 180.812L166.271 180.143C174.672 177.504 183.147 173.749 191.473 168.982L192.02 168.666L191.556 168.238C185.696 162.792 180.328 157.839 175.599 153.527L174.561 152.588L174.829 153.963ZM159.178 145.218C151.881 145.218 144.593 152.941 142.924 162.43C141.96 167.885 143.035 173.099 145.798 176.388C147.708 178.684 150.268 179.901 153.198 179.901C160.689 179.901 168.024 171.955 169.535 162.197C169.711 161.054 169.804 159.893 169.804 158.759C169.804 154.726 168.636 151.138 166.503 148.638C164.593 146.399 162.062 145.218 159.178 145.218ZM170.351 86.1497C165.604 86.1497 161.079 87.4972 155.849 89.0585C155.043 89.3001 154.227 89.5417 153.402 89.7834L152.65 90.0064L181.246 118.872L273.977 178.145L274.199 178.414L274.579 178.321C277.75 176.946 288.831 172.151 288.831 172.151C295.59 169.223 302.461 166.249 309.433 163.238L309.711 163.117V162.523L309.461 162.383L175.636 94.4579C175.386 94.3278 175.237 94.0583 175.247 93.7609C175.265 93.4821 175.451 93.2405 175.72 93.1383L184.426 89.9878L183.341 89.5232C180.374 88.2593 179.011 87.7388 178.39 87.5251C175.71 86.5957 173.086 86.1497 170.351 86.1497ZM177.769 93.9189L311.399 161.751C311.482 161.798 311.557 161.854 311.603 161.909L311.825 162.179L312.141 162.039C317.148 159.883 322.21 157.699 327.319 155.488L328.274 155.069L327.329 154.633C316.035 149.447 216.091 103.64 186.522 90.8707L186.355 90.7964L177.769 93.9189ZM447.866 108.11L448.006 108.249C448.21 108.454 448.636 108.556 449.285 108.556C450.185 108.556 451.473 108.361 453.105 107.989L484.556 97.5062L488.237 91.1309C488.302 91.0101 488.377 90.88 488.46 90.7499L488.692 90.3503C489.128 89.5975 489.665 88.6403 490.314 87.5344L490.463 87.2835C490.518 87.1812 490.583 87.079 490.648 86.9675C490.769 86.763 490.88 86.5679 491.001 86.3634C491.316 85.8058 491.65 85.2296 492.002 84.6163L495.331 78.8265C495.562 78.4269 495.794 78.0272 496.026 77.6183C496.026 77.6183 497.454 75.1463 497.658 74.8024C498.177 73.901 498.706 72.9716 499.234 72.0423C499.42 71.7263 499.596 71.4196 499.772 71.1037L500.245 70.2859C500.449 69.9327 500.662 69.5703 500.866 69.2078L501.237 68.5573C501.478 68.1391 501.719 67.7116 501.97 67.2934L502.591 66.2061C503.314 64.9422 504.056 63.6597 504.779 62.3772C504.779 62.3772 505.511 61.1133 505.771 60.6765L508.386 56.0949C508.608 55.7138 508.831 55.3328 509.044 54.9518L512.54 48.8646L517.296 40.5563L515.952 40.324C513.69 39.9337 512.243 39.1437 511.891 38.1122C511.733 37.6382 511.826 37.1549 512.141 36.8111C512.54 36.3743 518.344 31.3559 521.126 30.5938C521.469 30.5009 522.146 30.2871 523.082 29.9805L523.295 29.9061L523.37 29.6924C523.425 29.5437 523.462 29.4414 523.481 29.3485C523.648 28.8095 523.62 28.3262 523.388 27.908C523.314 27.7686 523.203 27.6106 523.064 27.4898C522.925 27.3318 522.73 27.211 522.572 27.0995C521.923 26.6999 521.2 26.5233 520.913 26.4583L520.783 26.4304L519.828 26.7835C519.383 26.9415 519.002 27.0809 518.678 27.2017C517.658 27.5828 516.768 27.8987 515.998 28.159L515.85 28.2147C513.523 29.0418 512.354 29.4972 511.149 30.7797C510.908 31.0213 509.702 32.4153 507.755 34.6736L506.893 35.668L506.819 35.7795L506.884 35.6866C490.555 54.6358 450.676 101.456 448.886 104.848C448.886 104.848 448.784 105.062 448.757 105.117L448.664 105.201V105.303C448.506 105.619 448.376 105.907 448.274 106.149C448.08 106.623 447.959 107.023 447.894 107.366C447.848 107.599 447.839 107.794 447.876 107.961V108.11H447.866ZM518.557 41.2162C518.344 41.5786 518.131 41.9596 517.908 42.3406L510.685 54.9611C510.509 55.2585 509.971 56.1971 509.971 56.1971L509.044 57.8141C508.673 58.4647 508.293 59.1245 507.922 59.7843L505.919 63.2508C504.436 65.825 502.962 68.39 501.543 70.8806C501.274 71.336 501.014 71.7914 500.755 72.2468C500.755 72.2468 497.473 77.9436 496.249 80.0811C496.11 80.3227 495.98 80.555 495.841 80.7874C495.711 81.0104 495.238 81.8282 495.238 81.8282C494.978 82.2836 494.719 82.7297 494.468 83.1665L494.413 83.2501C494.283 83.4732 494.162 83.6776 494.042 83.9007C492.818 86.0288 490.518 90.0157 490.435 90.1644L486.596 96.8278L519.299 85.9173L520.273 83.6497C523.416 76.3266 530.982 58.7528 537.092 44.6919L537.324 44.1529L532.021 43.1956C529.471 42.7403 527.125 42.3128 525.048 41.941L518.882 40.8351L518.557 41.1232V41.2162ZM518.428 39.2924L525.308 40.5284C528.618 41.1325 532.632 41.8574 537.009 42.638L538.483 42.9075C569.619 48.4836 586.467 51.3831 588.553 51.5225C590.009 51.6154 594.765 51.9686 600.514 52.3868L603.277 52.5913C613.866 53.3626 627.042 54.3198 628.247 54.3477H628.303L628.358 54.3384C629.239 54.1432 631.121 52.6563 631.678 52.2009L632.531 51.5039L602.47 47.9724L523.824 31.2444L523.703 31.2815C522.619 31.6347 521.877 31.867 521.478 31.9785C519.466 32.5268 514.784 36.3185 513.634 37.3408L513.18 37.7404L513.69 38.075C514.06 38.3166 514.802 38.6605 516.193 38.8928L518.428 39.2924ZM541.599 25.2594C539.012 26.1423 532.966 28.2054 528.135 29.8039L526.513 30.3429L602.647 46.532L633.866 50.2029L634.023 50.0356C634.376 49.6731 634.608 49.4036 634.765 49.1713L635.118 48.6509L634.524 48.4557C631.168 47.387 615.257 43.0191 546.411 25.8077L542.665 24.8784L541.599 25.2594ZM467.468 4.53517L468.015 5.10207C471.65 8.88447 478.084 15.4921 480.365 17.3136C483.027 19.4603 500.588 30.6496 505.901 34.0231L506.244 34.2368L506.504 33.9301C507.44 32.8335 508.163 31.9971 508.71 31.3745L509.128 30.8912C509.693 30.2407 509.999 29.9061 510.12 29.776C510.899 28.9396 511.724 28.3634 512.874 27.8244L513.773 27.4062L512.883 26.9787C495.516 18.6611 484.288 12.7691 482.85 11.2171C480.579 8.78225 474.153 3.26198 473.884 3.02964L473.699 2.87166L467.468 4.53517ZM524.714 27.3411C524.76 27.4341 524.788 27.5084 524.816 27.5735L524.872 27.7222C524.89 27.7686 524.9 27.8337 524.918 27.8894L524.955 28.0474C524.974 28.1218 524.983 28.2147 524.992 28.2984C525.011 28.447 525.02 28.5772 525.02 28.7073V29.3485L525.632 29.1533C526.68 28.8095 527.848 28.4192 529.053 28.0103C529.359 27.9173 529.675 27.8058 529.99 27.7036L530.203 27.6292C532.521 26.8486 534.923 26.0401 536.972 25.3338C537.176 25.2687 537.38 25.2037 537.593 25.1293L538.455 24.8412C538.585 24.7947 538.706 24.7483 538.836 24.7111L539.902 24.3487C540.894 24.0141 541.645 23.7539 542.053 23.6145L542.313 23.5308H542.442L542.498 23.4751C542.544 23.4658 542.591 23.4658 542.637 23.4658C542.665 23.4658 542.684 23.4658 542.711 23.4658L542.748 23.503H542.897L543.24 23.5866C543.36 23.6145 543.453 23.6331 543.555 23.661L543.861 23.726C543.898 23.7446 544 23.7632 544.102 23.7818L546.179 24.3022L546.327 23.9305C547.357 21.3655 547.431 19.0793 546.513 18.1128C546.198 17.7875 545.771 17.6203 545.243 17.6203C544.696 17.6203 544.13 17.8061 543.759 17.9548C541.311 18.9492 535.099 21.2261 533.254 21.8952C530.899 22.7595 528.451 23.6517 526.216 24.4695L523.017 25.6404L523.666 26.1516C523.805 26.2631 523.898 26.3374 523.991 26.4211C524.056 26.4768 524.102 26.5326 524.148 26.5791V26.5884L524.269 26.7185C524.343 26.7928 524.399 26.8765 524.454 26.9508L524.519 27.0437C524.556 27.1088 524.612 27.1831 524.64 27.2668L524.677 27.3411H524.714ZM475.386 2.45345L476.054 3.02964C477.816 4.55376 482.09 8.32687 483.898 10.2599C485.697 12.1929 505.382 21.8395 515.535 26.672L515.702 26.7556L515.878 26.6906C516.555 26.4583 517.324 26.1888 518.186 25.8635C518.409 25.7798 518.659 25.6869 518.938 25.5847L524.714 23.4658C526.309 22.8896 528.052 22.2577 529.805 21.6071L530.964 21.1796L479.364 1.41259L475.386 2.45345Z" fill="#9B72AA"/>
<path d="M512.493 340.714C513.828 339.942 515.052 338.976 516.183 337.814L517.055 339.217C515.562 339.747 514.042 340.249 512.493 340.714ZM383.592 311.133C384.157 310.696 384.695 310.231 385.214 309.739L386.104 311.17C385.353 311.43 384.593 311.681 383.824 311.923L383.592 311.133ZM499.559 288.996L499.447 289.173C499.401 289.173 499.355 289.173 499.308 289.173C499.392 289.117 499.475 289.052 499.559 288.996ZM358.585 271.236C358.946 270 359.651 269.118 360.467 268.941C359.799 269.657 359.169 270.428 358.585 271.236ZM313.309 237.604L321.941 233.366C317.24 236.47 315.219 238.087 314.384 238.933L313.309 237.604ZM400.717 194.724L401.441 196.453C400.105 196.917 397.945 197.679 397.945 197.679C394.273 198.952 390.425 200.3 386.652 201.629L400.717 194.724ZM207.792 185.208C207.532 184.854 207.263 184.511 206.976 184.195C206.16 183.275 205.251 182.512 204.278 181.918L205.353 180.44C206.661 181.657 207.94 182.856 209.183 184.018L207.792 185.208ZM160.467 182.317C162.117 181.518 163.675 180.477 165.131 179.241L165.984 180.775C164.138 181.341 162.303 181.853 160.467 182.317ZM201.969 177.262C201.069 177.094 200.124 177.011 199.159 177.011C199.03 177.011 198.909 177.011 198.779 177.02C199.002 176.89 199.215 176.751 199.41 176.62L200.485 175.877C200.485 175.877 201.7 177.011 201.969 177.262ZM310.638 162.411L310.926 162.56L311.464 163.21L310.638 163.563V162.411ZM491.195 150.339L498.094 146.956C496.146 148.582 494.162 150.227 492.178 151.872L491.195 150.339ZM166.039 146.844L167.263 145.376C167.291 145.404 167.319 145.423 167.347 145.45L166.067 146.872C166.058 146.863 166.049 146.854 166.039 146.844ZM162.525 141.371C161.616 141.203 160.671 141.11 159.706 141.11C159.604 141.11 159.512 141.11 159.41 141.11C159.679 140.962 159.929 140.804 160.151 140.646L161.088 139.986L161.273 140.172C161.709 140.636 162.126 141.036 162.525 141.371ZM536.647 108.946L539.772 107.431C539.243 108.277 538.548 109.234 537.695 110.284L536.647 108.946ZM540.81 106.418L540.838 106.446L540.782 106.474C540.801 106.446 540.801 106.428 540.81 106.418ZM186.957 90.0526H186.967H186.957L187.189 89.9597L187.17 90.1455C187.096 90.1176 187.031 90.0805 186.957 90.0526ZM521.478 25.6494L521.533 25.6309L521.608 25.6866C521.561 25.668 521.524 25.6587 521.478 25.6494Z" fill="#9B72AA"/>
<path d="M504.279 339.097C495.155 339.097 486.903 328.53 485.892 315.547C485.308 308.066 487.32 301.05 491.279 296.775C493.801 294.043 496.926 292.593 500.301 292.593C509.314 292.593 517.362 302.62 518.623 315.427C519.392 323.103 517.445 330.352 513.43 334.813C510.89 337.61 507.728 339.097 504.279 339.097ZM500.301 294.024C497.334 294.024 494.571 295.306 492.318 297.741C488.627 301.737 486.764 308.364 487.32 315.445C488.266 327.694 495.869 337.666 504.279 337.666C507.311 337.666 510.111 336.346 512.364 333.837C516.119 329.692 517.927 322.861 517.204 315.557C516.638 309.841 514.589 304.451 511.428 300.39C508.229 296.292 504.279 294.024 500.301 294.024Z" fill="#9B72AA"/>
<path d="M504.278 338.632C495.386 338.632 487.347 328.261 486.355 315.51C485.78 308.159 487.746 301.273 491.622 297.091C494.06 294.452 497.055 293.058 500.31 293.058C509.081 293.058 516.926 302.899 518.168 315.473C518.919 323.029 517.018 330.138 513.087 334.497C510.639 337.201 507.598 338.632 504.278 338.632ZM500.301 293.559C497.204 293.559 494.32 294.898 491.984 297.426C488.21 301.524 486.29 308.271 486.865 315.483C487.83 327.973 495.646 338.131 504.288 338.131C507.459 338.131 510.37 336.755 512.716 334.153C516.555 329.915 518.409 322.945 517.667 315.52C517.093 309.711 515.006 304.247 511.789 300.111C508.507 295.883 504.427 293.559 500.301 293.559Z" fill="#9B72AA"/>
<path d="M504.241 323.27C501.125 323.27 498.39 319.878 498.019 315.556C497.797 313.038 498.446 310.742 499.799 309.265C500.68 308.298 501.784 307.787 502.989 307.787C506.077 307.787 508.812 311.142 509.201 315.436C509.442 317.945 508.784 320.315 507.449 321.792C506.559 322.749 505.446 323.27 504.241 323.27ZM502.989 309.218C502.182 309.218 501.468 309.562 500.856 310.241C499.79 311.393 499.262 313.345 499.438 315.445C499.753 318.976 501.904 321.848 504.241 321.848C505.047 321.848 505.771 321.504 506.392 320.835C507.458 319.655 507.977 317.685 507.783 315.566C507.634 313.958 507.05 312.359 506.188 311.17C505.27 309.906 504.129 309.218 502.989 309.218Z" fill="#9B72AA"/>
<path d="M504.241 322.805C501.367 322.805 498.835 319.599 498.483 315.51C498.27 313.122 498.882 310.956 500.143 309.572C500.931 308.707 501.914 308.243 502.989 308.243C505.845 308.243 508.367 311.412 508.738 315.464C508.961 317.843 508.349 320.082 507.106 321.467C506.3 322.35 505.335 322.805 504.241 322.805ZM502.989 308.754C502.062 308.754 501.2 309.163 500.514 309.925C499.364 311.17 498.789 313.252 498.984 315.473C499.318 319.237 501.682 322.304 504.25 322.304C505.196 322.304 506.031 321.913 506.745 321.142C507.904 319.859 508.46 317.759 508.256 315.519C508.098 313.809 507.496 312.164 506.568 310.891C505.549 309.507 504.287 308.754 502.989 308.754Z" fill="#9B72AA"/>
<path d="M490.842 143.982C490.722 143.982 490.601 143.945 490.462 143.88C490.249 143.768 490.101 143.536 490.073 143.276L489.368 135.59C489.34 135.265 489.517 134.958 489.822 134.819L496.09 131.938C496.192 131.891 496.304 131.863 496.415 131.863C496.545 131.863 496.675 131.9 496.795 131.966C497.008 132.096 497.157 132.319 497.184 132.57L497.88 139.772C497.908 140.079 497.75 140.385 497.472 140.525L491.204 143.88C491.093 143.945 490.963 143.982 490.842 143.982ZM490.954 135.999L491.501 141.974L496.294 139.41L495.757 133.787L490.954 135.999Z" fill="#9B72AA"/>
<path d="M490.843 143.517C490.797 143.517 490.741 143.499 490.676 143.471C490.62 143.434 490.556 143.341 490.546 143.239L489.842 135.553C489.832 135.423 489.907 135.302 490.027 135.246L496.295 132.375C496.341 132.356 496.378 132.347 496.425 132.347C496.48 132.347 496.527 132.356 496.573 132.384C496.657 132.43 496.722 132.523 496.731 132.644L497.426 139.837C497.435 139.949 497.371 140.079 497.269 140.135L491.001 143.489C490.945 143.499 490.889 143.517 490.843 143.517ZM490.463 135.711L491.103 142.718L496.786 139.679L496.156 133.09L490.463 135.711Z" fill="#9B72AA"/>
<path d="M480.607 149.01C480.486 149.01 480.356 148.973 480.236 148.908C480.013 148.787 479.856 148.554 479.837 148.294L479.197 140.544C479.169 140.218 479.346 139.921 479.642 139.791L485.966 136.882C486.068 136.835 486.179 136.808 486.29 136.808C486.429 136.808 486.559 136.845 486.671 136.91C486.884 137.031 487.023 137.263 487.051 137.514L487.691 144.781C487.718 145.088 487.561 145.385 487.283 145.525L480.968 148.908C480.857 148.973 480.727 149.01 480.607 149.01ZM480.783 140.962L481.283 147.002L486.114 144.419L485.623 138.75L480.783 140.962Z" fill="#9B72AA"/>
<path d="M480.606 148.545C480.56 148.545 480.514 148.526 480.458 148.508C480.365 148.452 480.3 148.359 480.291 148.257L479.651 140.515C479.642 140.385 479.707 140.274 479.827 140.218L486.16 137.309C486.197 137.291 486.244 137.281 486.29 137.281C486.346 137.281 486.401 137.291 486.448 137.318C486.531 137.365 486.587 137.458 486.596 137.56L487.236 144.827C487.245 144.948 487.18 145.069 487.078 145.125L480.764 148.508C480.708 148.526 480.643 148.545 480.606 148.545ZM480.291 140.673L480.875 147.746L486.596 144.679L486.021 138.043L480.291 140.673Z" fill="#9B72AA"/>
<path d="M470.286 154.075C470.166 154.075 470.036 154.038 469.915 153.973C469.693 153.843 469.545 153.61 469.526 153.359L468.942 145.562C468.914 145.237 469.09 144.94 469.387 144.8L475.757 141.873C475.859 141.826 475.97 141.798 476.081 141.798C476.22 141.798 476.35 141.836 476.462 141.901C476.684 142.031 476.823 142.254 476.851 142.514L477.435 149.828C477.463 150.135 477.305 150.423 477.027 150.571L470.657 153.982C470.527 154.038 470.407 154.075 470.286 154.075ZM470.518 145.971L470.972 152.058L475.859 149.456L475.405 143.731L470.518 145.971Z" fill="#9B72AA"/>
<path d="M470.287 153.61C470.241 153.61 470.194 153.591 470.139 153.563C470.055 153.517 469.99 153.424 469.99 153.322L469.406 145.515C469.397 145.376 469.462 145.264 469.573 145.218L475.952 142.291C475.989 142.272 476.036 142.263 476.082 142.263C476.138 142.263 476.184 142.272 476.221 142.3C476.314 142.356 476.37 142.449 476.388 142.551L476.972 149.865C476.981 149.986 476.917 150.097 476.815 150.162L470.445 153.573C470.389 153.591 470.333 153.61 470.287 153.61ZM470.027 145.683L470.565 152.801L476.342 149.716L475.804 143.025L470.027 145.683Z" fill="#9B72AA"/>
<path d="M459.893 159.177C459.763 159.177 459.633 159.139 459.513 159.074C459.281 158.944 459.132 158.721 459.123 158.452L458.595 150.59C458.576 150.264 458.752 149.967 459.049 149.837L465.465 146.881C465.567 146.835 465.678 146.807 465.79 146.807C465.929 146.807 466.059 146.844 466.17 146.909C466.392 147.039 466.532 147.272 466.55 147.523L467.079 154.911C467.106 155.208 466.94 155.506 466.671 155.645L460.245 159.074C460.143 159.139 460.022 159.177 459.893 159.177ZM460.171 151.017L460.588 157.169L465.512 154.53L465.104 148.759L460.171 151.017Z" fill="#9B72AA"/>
<path d="M459.893 158.712C459.837 158.712 459.791 158.694 459.735 158.666C459.652 158.619 459.596 158.526 459.587 158.424L459.058 150.562C459.049 150.441 459.123 150.32 459.235 150.264L465.66 147.309C465.697 147.291 465.744 147.281 465.799 147.281C465.855 147.281 465.901 147.291 465.948 147.318C466.031 147.374 466.096 147.458 466.096 147.56L466.624 154.948C466.634 155.069 466.569 155.19 466.458 155.246L460.041 158.675C459.986 158.694 459.949 158.712 459.893 158.712ZM459.689 150.729L460.171 157.913L465.994 154.79L465.512 148.043L459.689 150.729Z" fill="#9B72AA"/>
<path d="M438.844 169.511C438.715 169.511 438.585 169.474 438.464 169.409C438.232 169.279 438.084 169.037 438.075 168.777L437.676 160.794C437.658 160.478 437.834 160.18 438.121 160.05L444.639 157.048C444.741 157.002 444.853 156.983 444.964 156.983C445.103 156.983 445.242 157.021 445.353 157.095C445.576 157.225 445.715 157.457 445.724 157.718L446.142 165.217C446.16 165.515 446.003 165.794 445.734 165.952L439.206 169.437C439.095 169.474 438.974 169.511 438.844 169.511ZM439.243 161.221L439.558 167.485L444.593 164.799L444.259 158.926L439.243 161.221Z" fill="#9B72AA"/>
<path d="M438.844 169.046C438.807 169.046 438.761 169.037 438.696 169C438.603 168.944 438.547 168.851 438.538 168.758L438.139 160.766C438.13 160.636 438.204 160.515 438.325 160.459L444.834 157.458C444.871 157.439 444.917 157.43 444.964 157.43C445.019 157.43 445.066 157.439 445.112 157.467C445.205 157.523 445.251 157.606 445.26 157.708L445.678 165.218C445.687 165.338 445.622 165.45 445.502 165.515L438.983 168.991C438.937 169.028 438.9 169.046 438.844 169.046ZM438.761 160.933L439.122 168.238L445.066 165.069L444.676 158.22L438.761 160.933Z" fill="#9B72AA"/>
<path d="M428.191 174.734C428.061 174.734 427.932 174.697 427.792 174.631C427.588 174.511 427.431 174.26 427.422 173.999L427.088 165.942C427.078 165.626 427.245 165.338 427.533 165.217L434.107 162.188C434.199 162.141 434.311 162.123 434.413 162.123C434.552 162.123 434.7 162.16 434.821 162.234C435.043 162.364 435.182 162.597 435.192 162.857L435.544 170.422C435.562 170.719 435.405 170.988 435.136 171.137L428.553 174.659C428.451 174.697 428.33 174.734 428.191 174.734ZM428.655 166.388L428.905 172.698L433.986 169.994L433.708 164.056L428.655 166.388Z" fill="#9B72AA"/>
<path d="M428.192 174.269C428.136 174.269 428.08 174.251 428.006 174.213C427.96 174.186 427.886 174.074 427.886 173.972L427.552 165.914C427.552 165.794 427.617 165.682 427.719 165.626L434.302 162.597C434.339 162.578 434.376 162.569 434.413 162.569C434.469 162.569 434.524 162.587 434.58 162.615C434.664 162.671 434.719 162.764 434.728 162.857L435.081 170.422C435.09 170.543 435.025 170.645 434.923 170.701L428.34 174.223C428.303 174.251 428.256 174.269 428.192 174.269ZM428.182 166.1L428.479 173.461L434.469 170.273L434.144 163.359L428.182 166.1Z" fill="#9B72AA"/>
<path d="M417.463 180.003C417.324 180.003 417.194 179.966 417.073 179.901C416.841 179.771 416.702 179.529 416.693 179.269L416.415 171.137C416.406 170.831 416.582 170.543 416.86 170.413L423.471 167.364C423.573 167.318 423.684 167.29 423.796 167.29C423.935 167.29 424.074 167.327 424.204 167.402C424.417 167.541 424.556 167.783 424.565 168.033L424.862 175.654C424.871 175.942 424.713 176.221 424.445 176.36L417.806 179.91C417.722 179.966 417.592 180.003 417.463 180.003ZM417.973 171.602L418.186 177.959L423.313 175.236L423.082 169.251L417.973 171.602Z" fill="#9B72AA"/>
<path d="M417.463 179.538C417.407 179.538 417.352 179.52 417.305 179.492C417.213 179.445 417.166 179.353 417.166 179.26L416.888 171.128C416.888 171.016 416.953 170.896 417.064 170.849L423.685 167.801C423.731 167.782 423.777 167.773 423.824 167.773C423.879 167.773 423.944 167.792 423.991 167.819C424.065 167.866 424.12 167.968 424.13 168.08L424.426 175.691C424.426 175.802 424.371 175.914 424.26 175.97L417.621 179.52C417.574 179.52 417.519 179.538 417.463 179.538ZM417.5 171.314L417.741 178.721L423.787 175.514L423.518 168.544L417.5 171.314Z" fill="#9B72AA"/>
<path d="M406.643 185.319C406.504 185.319 406.365 185.282 406.263 185.217C406.031 185.077 405.883 184.826 405.873 184.566L405.66 176.388C405.651 176.081 405.836 175.793 406.124 175.654L412.781 172.587C412.883 172.541 412.994 172.513 413.106 172.513C413.245 172.513 413.384 172.55 413.504 172.634C413.727 172.764 413.866 173.005 413.875 173.275L414.107 180.942C414.116 181.239 413.959 181.518 413.69 181.648L406.995 185.217C406.893 185.282 406.773 185.319 406.643 185.319ZM407.227 176.853L407.385 183.274L412.558 180.514L412.382 174.464L407.227 176.853Z" fill="#9B72AA"/>
<path d="M406.642 184.854C406.587 184.854 406.531 184.836 406.494 184.817C406.392 184.762 406.336 184.659 406.336 184.548L406.123 176.37C406.123 176.249 406.197 176.128 406.318 176.072L412.975 173.015C413.022 172.996 413.059 172.987 413.105 172.987C413.161 172.987 413.216 173.005 413.263 173.033C413.355 173.089 413.411 173.191 413.42 173.303L413.652 180.97C413.652 181.091 413.596 181.202 413.485 181.258L406.791 184.827C406.735 184.836 406.698 184.854 406.642 184.854ZM406.754 176.555L406.93 184.027L413.022 180.784L412.818 173.74L406.754 176.555Z" fill="#9B72AA"/>
<path d="M395.739 190.672C395.591 190.672 395.47 190.635 395.35 190.561C395.109 190.421 394.96 190.17 394.96 189.901L394.821 181.658C394.812 181.351 394.997 181.072 395.275 180.942L401.998 177.838C402.1 177.792 402.202 177.764 402.313 177.764C402.461 177.764 402.61 177.81 402.74 177.884C402.953 178.015 403.083 178.256 403.092 178.516L403.268 186.258C403.277 186.546 403.11 186.815 402.851 186.964L396.11 190.561C395.98 190.635 395.869 190.672 395.739 190.672ZM396.379 182.141L396.49 188.618L401.71 185.83L401.581 179.743L396.379 182.141Z" fill="#9B72AA"/>
<path d="M395.738 190.207C395.664 190.207 395.627 190.189 395.599 190.17C395.488 190.105 395.432 190.003 395.423 189.9L395.284 181.657C395.284 181.536 395.358 181.425 395.469 181.369L402.191 178.265C402.229 178.247 402.266 178.237 402.312 178.237C402.377 178.237 402.442 178.256 402.497 178.293C402.572 178.34 402.618 178.432 402.627 178.544L402.803 186.285C402.803 186.397 402.738 186.518 402.627 186.573L395.886 190.17C395.831 190.198 395.784 190.207 395.738 190.207ZM395.905 181.843L396.035 189.389L402.173 186.109L402.015 179.027L395.905 181.843Z" fill="#9B72AA"/>
<path d="M384.742 196.071C384.612 196.071 384.473 196.034 384.343 195.96C384.12 195.82 383.972 195.569 383.972 195.309L383.898 186.982C383.889 186.685 384.074 186.406 384.343 186.276L391.121 183.153C391.223 183.107 391.334 183.079 391.436 183.079C391.575 183.079 391.714 183.116 391.835 183.2C392.067 183.349 392.196 183.581 392.196 183.832L392.308 191.648C392.317 191.936 392.15 192.205 391.9 192.335L385.085 195.969C384.992 196.034 384.862 196.071 384.742 196.071ZM385.446 187.475L385.502 194.017L390.778 191.211L390.694 185.059L385.446 187.475Z" fill="#9B72AA"/>
<path d="M384.741 195.607C384.695 195.607 384.63 195.588 384.575 195.551C384.5 195.505 384.435 195.402 384.435 195.309L384.361 186.982C384.361 186.862 384.436 186.75 384.538 186.704L391.306 183.581C391.353 183.563 391.39 183.553 391.427 183.553C391.482 183.553 391.529 183.572 391.575 183.6C391.677 183.665 391.733 183.758 391.733 183.851L391.844 191.666C391.844 191.778 391.779 191.889 391.686 191.936L384.871 195.57C384.834 195.588 384.779 195.607 384.741 195.607ZM384.983 187.178L385.047 194.78L391.251 191.48L391.149 184.325L384.983 187.178Z" fill="#9B72AA"/>
<path d="M373.244 311.235C369.813 311.235 366.54 309.757 363.796 306.969C359.568 302.685 357.092 295.771 357.157 288.466C357.176 286.738 357.342 285.019 357.639 283.364C358.01 281.227 358.622 279.145 359.484 277.156C360.365 275.13 361.478 273.3 362.776 271.738C363.555 270.809 364.352 270.019 365.159 269.387C367.588 267.408 370.37 266.367 373.226 266.367C381.969 266.367 389.183 276.283 389.313 288.457C389.396 295.752 386.921 302.676 382.692 306.96C379.948 309.757 376.675 311.235 373.244 311.235ZM373.235 267.798C370.694 267.798 368.284 268.709 366.068 270.502C365.316 271.097 364.584 271.822 363.879 272.658C362.655 274.117 361.617 275.827 360.792 277.723C359.985 279.6 359.401 281.58 359.049 283.615C358.77 285.186 358.613 286.821 358.594 288.476C358.52 295.409 360.838 301.942 364.797 305.957C367.273 308.466 370.194 309.795 373.244 309.795C376.295 309.795 379.215 308.466 381.691 305.957C385.65 301.932 387.978 295.399 387.903 288.476C387.774 277.073 381.2 267.798 373.235 267.798Z" fill="#9B72AA"/>
<path d="M373.244 310.771C369.934 310.771 366.782 309.339 364.121 306.644C359.976 302.444 357.547 295.65 357.621 288.467C357.639 286.766 357.797 285.074 358.094 283.448C358.455 281.348 359.067 279.294 359.911 277.342C360.773 275.354 361.858 273.569 363.138 272.045C363.889 271.153 364.668 270.382 365.456 269.768C367.802 267.854 370.491 266.841 373.235 266.841C381.728 266.841 388.738 276.543 388.859 288.476C388.942 295.65 386.513 302.444 382.377 306.654C379.707 309.339 376.555 310.771 373.244 310.771ZM373.235 267.333C370.583 267.333 368.07 268.281 365.771 270.14C365.001 270.744 364.241 271.497 363.518 272.361C362.266 273.857 361.209 275.604 360.365 277.538C359.54 279.443 358.947 281.469 358.585 283.541C358.298 285.13 358.149 286.794 358.131 288.476C358.057 295.529 360.421 302.193 364.473 306.291C367.041 308.893 370.073 310.269 373.244 310.269C376.415 310.269 379.457 308.893 382.016 306.291C386.068 302.184 388.432 295.529 388.358 288.485C388.237 276.813 381.45 267.333 373.235 267.333Z" fill="#9B72AA"/>
<path d="M373.652 201.508C373.513 201.508 373.383 201.471 373.262 201.396C373.021 201.248 372.882 201.006 372.882 200.737V192.354C372.882 192.057 373.059 191.778 373.327 191.648L380.161 188.506C380.263 188.46 380.374 188.432 380.485 188.432C380.634 188.432 380.773 188.469 380.903 188.553C381.116 188.692 381.246 188.934 381.246 189.194L381.292 197.066C381.292 197.344 381.135 197.614 380.884 197.744L374.023 201.406C373.912 201.48 373.791 201.508 373.652 201.508ZM374.422 192.846V199.454L379.744 196.62L379.707 190.412L374.422 192.846Z" fill="#9B72AA"/>
<path d="M373.653 201.043C373.597 201.043 373.551 201.034 373.514 201.006C373.402 200.941 373.347 200.839 373.347 200.737V192.354C373.347 192.233 373.412 192.122 373.523 192.075L380.347 188.934C380.393 188.916 380.431 188.906 380.477 188.906C380.542 188.906 380.597 188.925 380.653 188.962C380.718 189.008 380.774 189.111 380.774 189.213L380.82 197.094C380.82 197.205 380.755 197.307 380.662 197.363L373.792 201.025C373.764 201.025 373.718 201.043 373.653 201.043ZM373.959 192.549V200.235L380.208 196.908L380.171 189.705L373.959 192.549Z" fill="#9B72AA"/>
<path d="M373.235 296.96C372.039 296.96 370.908 296.459 369.953 295.511C368.534 294.089 367.728 291.877 367.728 289.433C367.746 285.251 370.166 281.979 373.235 281.979C376.314 281.979 378.734 285.251 378.752 289.433C378.752 291.877 377.945 294.07 376.536 295.501C375.59 296.449 374.45 296.96 373.235 296.96ZM373.235 283.411C371.038 283.411 369.174 286.171 369.165 289.442C369.155 291.449 369.832 293.345 370.964 294.488C371.436 294.962 372.215 295.529 373.235 295.529C374.051 295.529 374.821 295.176 375.516 294.498C376.657 293.345 377.333 291.449 377.324 289.442C377.324 287.909 376.916 286.431 376.165 285.279C375.396 284.089 374.329 283.411 373.235 283.411Z" fill="#9B72AA"/>
<path d="M373.234 296.496C372.159 296.496 371.139 296.041 370.286 295.176C368.96 293.847 368.19 291.747 368.19 289.433C368.209 285.52 370.425 282.444 373.234 282.444C376.053 282.444 378.269 285.52 378.288 289.433C378.288 291.756 377.527 293.829 376.202 295.167C375.349 296.031 374.319 296.496 373.234 296.496ZM373.234 282.946C370.75 282.946 368.71 285.855 368.7 289.442C368.691 291.57 369.414 293.587 370.638 294.823C371.408 295.594 372.307 296.003 373.234 296.003C374.162 296.003 375.061 295.604 375.84 294.842C377.073 293.596 377.796 291.58 377.787 289.452C377.787 287.834 377.351 286.264 376.554 285.037C375.701 283.699 374.486 282.946 373.234 282.946Z" fill="#9B72AA"/>
<path d="M362.48 206.991C362.331 206.991 362.192 206.954 362.081 206.889C361.849 206.749 361.71 206.489 361.71 206.21L361.775 197.763C361.784 197.465 361.96 197.196 362.229 197.066L369.109 193.897C369.211 193.85 369.322 193.822 369.434 193.822C369.582 193.822 369.721 193.859 369.842 193.943C370.064 194.082 370.194 194.333 370.194 194.594L370.175 202.53C370.175 202.818 370.018 203.078 369.767 203.209L362.85 206.898C362.739 206.954 362.619 206.991 362.48 206.991ZM363.323 198.274L363.268 204.937L368.646 202.075L368.664 195.82L363.323 198.274Z" fill="#9B72AA"/>
<path d="M362.479 206.526C362.442 206.526 362.377 206.517 362.33 206.489C362.228 206.434 362.173 206.322 362.173 206.21L362.238 197.772C362.238 197.661 362.312 197.549 362.423 197.493L369.303 194.324C369.349 194.306 369.387 194.296 369.433 194.296C369.47 194.296 369.526 194.306 369.581 194.343C369.674 194.408 369.73 194.501 369.73 194.612L369.711 202.549C369.711 202.66 369.646 202.763 369.553 202.818L362.627 206.508C362.59 206.508 362.544 206.526 362.479 206.526ZM362.859 197.967L362.794 205.709L369.099 202.344L369.127 195.086L362.859 197.967Z" fill="#9B72AA"/>
<path d="M351.214 212.521C351.066 212.521 350.936 212.484 350.824 212.409C350.583 212.261 350.444 212.001 350.444 211.74L350.583 203.228C350.593 202.93 350.76 202.661 351.028 202.54L357.964 199.343C358.066 199.296 358.177 199.269 358.298 199.269C358.446 199.269 358.585 199.306 358.706 199.389C358.928 199.538 359.058 199.789 359.058 200.049L358.965 208.042C358.965 208.32 358.808 208.581 358.557 208.711L351.576 212.428C351.474 212.493 351.353 212.521 351.214 212.521ZM352.123 203.739L352.011 210.458L357.436 207.568L357.51 201.239L352.123 203.739Z" fill="#9B72AA"/>
<path d="M351.213 212.056C351.167 212.056 351.111 212.047 351.065 212.019C350.972 211.963 350.907 211.852 350.907 211.749L351.046 203.237C351.046 203.125 351.121 203.004 351.213 202.958L358.149 199.761C358.186 199.742 358.242 199.733 358.288 199.733C358.343 199.733 358.399 199.751 358.436 199.779C358.529 199.835 358.585 199.947 358.585 200.049L358.492 208.041C358.492 208.153 358.427 208.255 358.334 208.311L351.352 212.028C351.334 212.037 351.278 212.056 351.213 212.056ZM351.658 203.432L351.528 211.229L357.889 207.846L357.982 200.504L351.658 203.432Z" fill="#9B72AA"/>
<path d="M339.855 218.097C339.707 218.097 339.568 218.06 339.438 217.985C339.215 217.846 339.076 217.586 339.085 217.307L339.299 208.72C339.308 208.422 339.475 208.162 339.753 208.032L346.735 204.807C346.837 204.761 346.939 204.742 347.05 204.742C347.199 204.742 347.347 204.789 347.477 204.872C347.699 205.021 347.829 205.263 347.829 205.541L347.671 213.589C347.662 213.878 347.514 214.129 347.263 214.249L340.217 218.004C340.115 218.069 339.994 218.097 339.855 218.097ZM340.829 209.231L340.662 216.024L346.132 213.106L346.262 206.731L340.829 209.231Z" fill="#9B72AA"/>
<path d="M339.855 217.632C339.79 217.632 339.734 217.614 339.679 217.586C339.604 217.539 339.549 217.428 339.549 217.316L339.762 208.729C339.762 208.608 339.836 208.506 339.948 208.45L346.929 205.235C346.967 205.216 347.004 205.207 347.05 205.207C347.106 205.207 347.171 205.226 347.217 205.263C347.31 205.328 347.365 205.421 347.365 205.542L347.208 213.58C347.208 213.692 347.152 213.794 347.05 213.841L340.003 217.604C339.975 217.614 339.92 217.632 339.855 217.632ZM340.374 208.934L340.179 216.814L346.596 213.394L346.753 206.006L340.374 208.934Z" fill="#9B72AA"/>
<path d="M328.404 223.719C328.256 223.719 328.117 223.682 328.015 223.608C327.774 223.45 327.635 223.19 327.635 222.92L327.922 214.268C327.932 213.98 328.098 213.72 328.367 213.599L335.414 210.346C335.516 210.3 335.627 210.272 335.739 210.272C335.887 210.272 336.035 210.318 336.156 210.402C336.378 210.551 336.508 210.802 336.499 211.053L336.276 219.194C336.267 219.472 336.11 219.733 335.878 219.853L328.775 223.636C328.664 223.682 328.543 223.719 328.404 223.719ZM329.443 214.789L329.22 221.638L334.756 218.692L334.932 212.251L329.443 214.789Z" fill="#9B72AA"/>
<path d="M328.404 223.254C328.339 223.254 328.292 223.236 328.265 223.227C328.153 223.152 328.098 223.05 328.098 222.939L328.385 214.286C328.385 214.166 328.459 214.073 328.561 214.026L335.608 210.773C335.645 210.755 335.692 210.746 335.738 210.746C335.794 210.746 335.849 210.764 335.905 210.792C335.998 210.848 336.044 210.941 336.044 211.043L335.821 219.184C335.821 219.296 335.756 219.398 335.673 219.444L328.561 223.227C328.515 223.236 328.469 223.254 328.404 223.254ZM328.988 214.491L328.728 222.427L335.209 218.98L335.413 211.526L328.988 214.491Z" fill="#9B72AA"/>
<path d="M316.86 229.388C316.712 229.388 316.572 229.351 316.433 229.267C316.211 229.128 316.072 228.858 316.081 228.589L316.433 219.853C316.452 219.565 316.619 219.314 316.888 219.184L323.99 215.903C324.092 215.857 324.194 215.838 324.315 215.838C324.472 215.838 324.611 215.885 324.741 215.968C324.954 216.117 325.094 216.377 325.075 216.638L324.788 224.834C324.778 225.104 324.621 225.355 324.37 225.494L317.212 229.305C317.119 229.351 316.99 229.388 316.86 229.388ZM317.973 220.392L317.685 227.297L323.285 224.333L323.517 217.827L317.973 220.392Z" fill="#9B72AA"/>
<path d="M316.86 228.924C316.795 228.924 316.739 228.905 316.674 228.868C316.609 228.821 316.554 228.719 316.554 228.617L316.906 219.881C316.915 219.77 316.98 219.667 317.091 219.621L324.194 216.34C324.231 216.322 324.277 216.312 324.324 216.312C324.389 216.312 324.444 216.331 324.5 216.359C324.574 216.415 324.639 216.517 324.63 216.619L324.342 224.825C324.342 224.927 324.268 225.039 324.166 225.095L317.008 228.896C316.971 228.905 316.915 228.924 316.86 228.924ZM317.518 220.095L317.184 228.096L323.73 224.621L323.999 217.093L317.518 220.095Z" fill="#9B72AA"/>
<path d="M305.214 235.104C305.066 235.104 304.927 235.067 304.797 234.983C304.575 234.835 304.436 234.574 304.445 234.296L304.881 225.495C304.89 225.207 305.066 224.946 305.326 224.826L312.484 221.526C312.595 221.48 312.706 221.452 312.818 221.452C312.966 221.452 313.114 221.499 313.235 221.582C313.467 221.74 313.596 221.982 313.578 222.251L313.216 230.522C313.207 230.792 313.049 231.034 312.808 231.164L305.585 235.011C305.474 235.067 305.353 235.104 305.214 235.104ZM306.401 226.034L306.058 233.013L311.696 230.011L311.983 223.441L306.401 226.034Z" fill="#9B72AA"/>
<path d="M305.214 234.639C305.149 234.639 305.094 234.62 305.029 234.583C304.964 234.536 304.908 234.425 304.908 234.313L305.344 225.522C305.344 225.401 305.418 225.299 305.52 225.252L312.669 221.953C312.715 221.935 312.762 221.916 312.808 221.916C312.864 221.916 312.919 221.935 312.966 221.962C313.068 222.028 313.114 222.13 313.114 222.232L312.752 230.503C312.752 230.605 312.688 230.698 312.586 230.754L305.363 234.601C305.325 234.62 305.279 234.639 305.214 234.639ZM305.947 225.726L305.548 233.802L312.14 230.299L312.474 222.706L305.947 225.726Z" fill="#9B72AA"/>
<path d="M293.476 240.866C293.328 240.866 293.179 240.819 293.059 240.745C292.827 240.596 292.697 240.336 292.707 240.048L293.216 231.182C293.235 230.903 293.411 230.643 293.662 230.531L300.885 227.195C300.987 227.148 301.089 227.121 301.2 227.121C301.357 227.121 301.506 227.167 301.645 227.26C301.867 227.409 301.997 227.66 301.979 227.929L301.543 236.256C301.534 236.526 301.376 236.776 301.135 236.907L293.838 240.782C293.726 240.838 293.606 240.866 293.476 240.866ZM294.728 231.73L294.32 238.775L300.032 235.745L300.375 229.128L294.728 231.73Z" fill="#9B72AA"/>
<path d="M293.476 240.401C293.439 240.401 293.374 240.392 293.309 240.355C293.216 240.299 293.161 240.187 293.17 240.066L293.68 231.21C293.689 231.098 293.754 230.996 293.847 230.95L301.079 227.613C301.125 227.595 301.153 227.585 301.2 227.585C301.265 227.585 301.329 227.604 301.385 227.641C301.468 227.697 301.515 227.79 301.515 227.892L301.079 236.228C301.079 236.34 301.014 236.442 300.921 236.489L293.634 240.364C293.578 240.392 293.532 240.401 293.476 240.401ZM294.283 231.424L293.81 239.565L300.476 236.024L300.866 228.375L294.283 231.424Z" fill="#9B72AA"/>
<path d="M281.635 246.683C281.487 246.683 281.348 246.646 281.227 246.562C280.986 246.404 280.856 246.135 280.875 245.856L281.459 236.906C281.477 236.628 281.644 236.377 281.904 236.256L289.183 232.892C289.285 232.845 289.387 232.827 289.498 232.827C289.656 232.827 289.813 232.873 289.943 232.957C290.156 233.115 290.286 233.366 290.267 233.635L289.758 242.036C289.748 242.306 289.591 242.548 289.35 242.678L281.997 246.581C281.885 246.646 281.774 246.683 281.635 246.683ZM282.961 237.464L282.497 244.583L288.246 241.525L288.654 234.843L282.961 237.464Z" fill="#9B72AA"/>
<path d="M281.636 246.219C281.58 246.219 281.534 246.209 281.487 246.172C281.376 246.098 281.33 245.996 281.33 245.884L281.914 236.935C281.923 236.823 281.988 236.721 282.081 236.684L289.369 233.319C289.406 233.301 289.443 233.292 289.489 233.292C289.554 233.292 289.619 233.31 289.675 233.347C289.749 233.403 289.795 233.505 289.795 233.607L289.285 242.009C289.276 242.13 289.22 242.213 289.127 242.269L281.784 246.172C281.738 246.209 281.691 246.219 281.636 246.219ZM282.516 237.158L281.979 245.382L288.692 241.814L289.165 234.091L282.516 237.158Z" fill="#9B72AA"/>
<path d="M269.702 252.538C269.554 252.538 269.396 252.492 269.275 252.417C269.053 252.269 268.914 251.99 268.932 251.711L269.6 242.687C269.618 242.408 269.795 242.167 270.054 242.037L277.379 238.654C277.491 238.607 277.592 238.58 277.713 238.58C277.871 238.58 278.01 238.626 278.14 238.71C278.371 238.868 278.501 239.128 278.483 239.407L277.898 247.873C277.88 248.142 277.722 248.375 277.481 248.505L270.064 252.445C269.962 252.501 269.832 252.538 269.702 252.538ZM271.111 243.254L270.574 250.438L276.387 247.353L276.86 240.606L271.111 243.254Z" fill="#9B72AA"/>
<path d="M269.702 252.073C269.638 252.073 269.573 252.055 269.517 252.027C269.443 251.971 269.387 251.86 269.387 251.748L270.055 242.724C270.064 242.613 270.129 242.52 270.24 242.464L277.565 239.09C277.612 239.072 277.658 239.062 277.704 239.062C277.741 239.062 277.806 239.072 277.862 239.109C277.964 239.183 278.02 239.286 278.01 239.397L277.426 247.854C277.417 247.966 277.352 248.059 277.25 248.114L269.842 252.055C269.814 252.055 269.758 252.073 269.702 252.073ZM270.667 242.947L270.046 251.246L276.823 247.64L277.37 239.852L270.667 242.947Z" fill="#9B72AA"/>
<path d="M257.667 258.449C257.509 258.449 257.37 258.402 257.231 258.318C256.999 258.17 256.869 257.891 256.897 257.612L257.648 248.514C257.676 248.235 257.843 247.994 258.084 247.873L265.483 244.453C265.585 244.406 265.687 244.388 265.808 244.388C265.965 244.388 266.123 244.434 266.253 244.527C266.475 244.685 266.596 244.945 266.577 245.224L265.919 253.765C265.901 254.025 265.752 254.267 265.52 254.387L258.038 258.365C257.917 258.411 257.797 258.449 257.667 258.449ZM259.141 249.081L258.548 256.33L264.417 253.207L264.946 246.404L259.141 249.081Z" fill="#9B72AA"/>
<path d="M257.667 257.984C257.602 257.984 257.546 257.966 257.491 257.928C257.398 257.873 257.352 257.761 257.361 257.65L258.112 248.551C258.121 248.44 258.186 248.338 258.279 248.3L265.678 244.88C265.706 244.871 265.752 244.853 265.808 244.853C265.854 244.853 265.919 244.862 265.984 244.908C266.068 244.964 266.114 245.076 266.105 245.178L265.446 253.728C265.437 253.83 265.381 253.923 265.289 253.969L257.806 257.947C257.778 257.965 257.723 257.984 257.667 257.984ZM258.696 248.774L258.01 257.138L264.853 253.505L265.456 245.652L258.696 248.774Z" fill="#9B72AA"/>
<path d="M245.52 264.415C245.372 264.415 245.224 264.369 245.085 264.276C244.862 264.127 244.732 263.848 244.751 263.579L245.576 254.388C245.604 254.118 245.78 253.867 246.021 253.756L253.476 250.308C253.569 250.261 253.689 250.243 253.8 250.243C253.958 250.243 254.116 250.289 254.236 250.382C254.468 250.54 254.589 250.81 254.561 251.079L253.828 259.703C253.8 259.964 253.652 260.196 253.429 260.317L245.873 264.322C245.771 264.378 245.65 264.415 245.52 264.415ZM247.078 254.973L246.42 262.287L252.345 259.146L252.938 252.269L247.078 254.973Z" fill="#9B72AA"/>
<path d="M245.52 263.951C245.502 263.951 245.437 263.951 245.344 263.886C245.27 263.83 245.214 263.728 245.224 263.625L246.049 254.434C246.058 254.332 246.132 254.23 246.225 254.183L253.68 250.735C253.708 250.726 253.763 250.708 253.81 250.708C253.875 250.708 253.93 250.726 253.977 250.754C254.069 250.819 254.116 250.921 254.106 251.033L253.374 259.657C253.365 259.759 253.309 259.852 253.216 259.899L245.659 263.904C245.613 263.932 245.576 263.951 245.52 263.951ZM246.642 254.667L245.882 263.096L252.78 259.434L253.457 251.507L246.642 254.667Z" fill="#9B72AA"/>
<path d="M233.282 270.419C233.115 270.419 232.966 270.372 232.837 270.289C232.605 270.131 232.475 269.852 232.503 269.573L233.421 260.317C233.439 260.047 233.615 259.806 233.856 259.694L241.376 256.218C241.478 256.172 241.589 256.144 241.71 256.144C241.868 256.144 242.016 256.191 242.146 256.283C242.378 256.441 242.498 256.702 242.47 256.98L241.664 265.679C241.636 265.939 241.478 266.162 241.256 266.283L233.643 270.326C233.532 270.382 233.411 270.419 233.282 270.419ZM234.914 260.902L234.181 268.291L240.162 265.112L240.82 258.179L234.914 260.902Z" fill="#9B72AA"/>
<path d="M233.282 269.954C233.208 269.954 233.152 269.936 233.096 269.898C233.013 269.843 232.967 269.731 232.976 269.62L233.894 260.363C233.903 260.252 233.968 260.168 234.061 260.122L241.59 256.646C241.636 256.627 241.682 256.618 241.729 256.618C241.775 256.618 241.84 256.627 241.896 256.674C241.988 256.739 242.035 256.841 242.025 256.943L241.219 265.642C241.209 265.735 241.145 265.837 241.052 265.884L233.439 269.926C233.393 269.936 233.337 269.954 233.282 269.954ZM234.487 260.596L233.643 269.118L240.607 265.41L241.358 257.417L234.487 260.596Z" fill="#9B72AA"/>
<path d="M220.93 276.487C220.782 276.487 220.624 276.441 220.485 276.348C220.253 276.19 220.123 275.92 220.151 275.632L221.153 266.292C221.18 266.023 221.347 265.791 221.598 265.67L229.173 262.166C229.275 262.12 229.377 262.092 229.488 262.092C229.646 262.092 229.813 262.148 229.943 262.24C230.165 262.398 230.295 262.668 230.258 262.937L229.368 271.71C229.34 271.961 229.182 272.194 228.96 272.315L221.273 276.385C221.171 276.45 221.06 276.487 220.93 276.487ZM222.655 266.887L221.857 274.35L227.893 271.144L228.617 264.127L222.655 266.887Z" fill="#9B72AA"/>
<path d="M220.93 276.022C220.865 276.022 220.8 276.004 220.745 275.957C220.661 275.901 220.615 275.799 220.624 275.678L221.626 266.339C221.635 266.227 221.7 266.134 221.811 266.088L229.386 262.584C229.423 262.565 229.47 262.556 229.507 262.556C229.572 262.556 229.637 262.575 229.692 262.612C229.785 262.677 229.831 262.779 229.822 262.881L228.932 271.654C228.923 271.757 228.858 271.85 228.765 271.896L221.088 275.966C221.023 276.013 220.977 276.022 220.93 276.022ZM222.219 266.58L221.301 275.167L228.32 271.441L229.145 263.365L222.219 266.58Z" fill="#9B72AA"/>
<path d="M208.469 282.602C208.32 282.602 208.163 282.556 208.024 282.463C207.801 282.305 207.671 282.026 207.699 281.738L208.784 272.324C208.821 272.063 208.988 271.822 209.229 271.72L216.869 268.179C216.971 268.132 217.082 268.104 217.194 268.104C217.351 268.104 217.509 268.151 217.639 268.253C217.861 268.411 217.991 268.69 217.954 268.969L216.98 277.807C216.953 278.067 216.804 278.281 216.573 278.402L208.821 282.509C208.719 282.574 208.608 282.602 208.469 282.602ZM210.277 272.928L209.414 280.455L215.506 277.221L216.294 270.149L210.277 272.928Z" fill="#9B72AA"/>
<path d="M208.469 282.138C208.413 282.138 208.339 282.119 208.283 282.073C208.209 282.026 208.163 281.905 208.172 281.785L209.257 272.37C209.266 272.277 209.34 272.175 209.433 272.138L217.083 268.597C217.12 268.579 217.166 268.569 217.203 268.569C217.268 268.569 217.324 268.588 217.379 268.625C217.472 268.69 217.518 268.802 217.509 268.913L216.536 277.742C216.526 277.844 216.461 277.928 216.369 277.984L208.626 282.091C208.561 282.128 208.524 282.138 208.469 282.138ZM209.841 272.612L208.849 281.273L215.942 277.519L216.842 269.387L209.841 272.612Z" fill="#9B72AA"/>
<path d="M195.915 288.763C195.757 288.763 195.609 288.717 195.46 288.624C195.228 288.466 195.108 288.187 195.136 287.899L196.313 278.401C196.35 278.132 196.508 277.909 196.749 277.797L204.454 274.229C204.556 274.182 204.668 274.154 204.779 274.154C204.946 274.154 205.103 274.201 205.233 274.303C205.456 274.461 205.576 274.74 205.548 275.009L204.491 283.931C204.464 284.182 204.306 284.405 204.083 284.526L196.267 288.671C196.165 288.736 196.044 288.763 195.915 288.763ZM197.797 279.015L196.86 286.617L203.017 283.355L203.87 276.208L197.797 279.015Z" fill="#9B72AA"/>
<path d="M195.915 288.299C195.85 288.299 195.776 288.28 195.72 288.234C195.646 288.178 195.591 288.067 195.609 287.955L196.787 278.457C196.796 278.402 196.824 278.281 196.954 278.225L204.668 274.656C204.705 274.638 204.751 274.628 204.798 274.628C204.863 274.628 204.928 274.647 204.983 274.684C205.067 274.749 205.113 274.851 205.104 274.954L204.047 283.885C204.037 283.987 203.973 284.071 203.88 284.126L196.073 288.271C196.026 288.28 195.971 288.299 195.915 288.299ZM197.371 278.699L196.286 287.444L203.444 283.652L204.418 275.437L197.371 278.699Z" fill="#9B72AA"/>
<path d="M196.721 206.099C195.543 206.099 194.449 205.588 193.642 204.659C192.511 203.358 192.02 201.406 192.298 199.296C192.789 195.626 195.413 192.754 198.269 192.754C199.447 192.754 200.541 193.256 201.347 194.176C202.479 195.458 202.97 197.401 202.711 199.492C202.479 201.295 201.728 202.967 200.587 204.213C199.465 205.43 198.093 206.099 196.721 206.099ZM198.269 194.185C196.155 194.185 194.106 196.564 193.707 199.492C193.485 201.155 193.856 202.735 194.709 203.711C195.246 204.343 195.923 204.659 196.721 204.659C198.835 204.659 200.921 202.205 201.283 199.306C201.496 197.642 201.116 196.081 200.272 195.124C199.725 194.501 199.057 194.185 198.269 194.185Z" fill="#9B72AA"/>
<path d="M196.721 205.635C195.682 205.635 194.708 205.179 193.985 204.352C192.938 203.153 192.492 201.332 192.752 199.362C193.216 195.914 195.636 193.219 198.269 193.219C199.307 193.219 200.281 193.665 200.995 194.483C202.033 195.672 202.488 197.475 202.247 199.427C202.033 201.137 201.32 202.717 200.244 203.897C199.215 205.012 197.963 205.635 196.721 205.635ZM198.269 193.721C195.932 193.721 193.679 196.286 193.253 199.436C193.012 201.23 193.429 202.949 194.365 204.018C194.987 204.743 195.803 205.124 196.721 205.124C199.094 205.124 201.338 202.54 201.737 199.362C201.969 197.577 201.542 195.877 200.615 194.808C199.994 194.102 199.178 193.721 198.269 193.721Z" fill="#9B72AA"/>
<path d="M170.453 301.263C170.295 301.263 170.147 301.217 170.017 301.124C169.785 300.957 169.665 300.678 169.702 300.39L171.046 290.725C171.083 290.464 171.25 290.232 171.491 290.121L179.336 286.496C179.438 286.45 179.549 286.422 179.66 286.422C179.827 286.422 179.975 286.478 180.115 286.571C180.346 286.738 180.467 287.017 180.421 287.295L179.197 296.366C179.16 296.607 179.011 296.821 178.798 296.942L170.824 301.17C170.703 301.235 170.583 301.263 170.453 301.263ZM172.521 291.347L171.436 299.107L177.722 295.771L178.705 288.485L172.521 291.347Z" fill="#9B72AA"/>
<path d="M170.453 300.798C170.388 300.798 170.333 300.78 170.277 300.743C170.184 300.678 170.138 300.566 170.156 300.455L171.501 290.789C171.519 290.687 171.584 290.594 171.677 290.548L179.521 286.923C179.558 286.905 179.605 286.896 179.642 286.896C179.688 286.896 179.753 286.905 179.818 286.951C179.911 287.016 179.957 287.128 179.948 287.23L178.724 296.31C178.715 296.403 178.65 296.486 178.566 296.533L170.601 300.761C170.555 300.789 170.509 300.798 170.453 300.798ZM172.094 291.031L170.843 299.943L178.149 296.068L179.271 287.704L172.094 291.031Z" fill="#9B72AA"/>
<path d="M157.564 307.592C157.397 307.592 157.249 307.545 157.11 307.452C156.878 307.285 156.758 306.997 156.795 306.709L158.241 296.96C158.278 296.7 158.445 296.477 158.686 296.365L166.586 292.713C166.688 292.667 166.799 292.639 166.901 292.639C167.068 292.639 167.226 292.694 167.365 292.797C167.587 292.964 167.708 293.243 167.671 293.531L166.354 302.676C166.317 302.917 166.169 303.14 165.956 303.252L157.917 307.508C157.815 307.555 157.694 307.592 157.564 307.592ZM159.706 297.601L158.556 305.426L164.908 302.062L165.946 294.711L159.706 297.601Z" fill="#9B72AA"/>
<path d="M157.565 307.128C157.5 307.128 157.435 307.109 157.379 307.072C157.296 307.007 157.24 306.886 157.259 306.775L158.705 297.035C158.724 296.924 158.789 296.84 158.882 296.793L166.781 293.141C166.828 293.123 166.865 293.113 166.911 293.113C166.976 293.113 167.041 293.132 167.097 293.178C167.189 293.243 167.236 293.364 167.217 293.485L165.901 302.62C165.891 302.723 165.826 302.806 165.734 302.853L157.704 307.109C157.676 307.109 157.621 307.128 157.565 307.128ZM159.28 297.286L157.954 306.273L165.326 302.37L166.522 293.94L159.28 297.286Z" fill="#9B72AA"/>
<path d="M155.294 168.684C154.116 168.684 153.05 168.182 152.271 167.262C151.232 166.017 150.815 164.177 151.149 162.188C151.742 158.712 154.376 155.989 157.157 155.989C158.335 155.989 159.401 156.491 160.161 157.393C161.209 158.61 161.626 160.441 161.311 162.42C161.033 164.121 160.245 165.71 159.104 166.89C157.982 168.043 156.629 168.684 155.294 168.684ZM157.157 157.42C155.099 157.42 153.031 159.669 152.568 162.43C152.308 163.972 152.605 165.431 153.374 166.342C153.875 166.937 154.542 167.253 155.294 167.253C157.37 167.253 159.438 164.985 159.892 162.207C160.134 160.682 159.828 159.233 159.077 158.331C158.576 157.727 157.908 157.42 157.157 157.42Z" fill="#9B72AA"/>
<path d="M155.293 168.22C154.255 168.22 153.309 167.773 152.623 166.956C151.668 165.822 151.297 164.112 151.603 162.262C152.159 159 154.598 156.454 157.148 156.454C158.186 156.454 159.123 156.891 159.799 157.69C160.755 158.805 161.135 160.497 160.847 162.346C160.578 163.954 159.846 165.45 158.761 166.565C157.741 167.634 156.508 168.22 155.293 168.22ZM157.157 156.956C154.876 156.956 152.614 159.372 152.104 162.346C151.816 164.019 152.159 165.627 153.012 166.64C153.606 167.337 154.394 167.708 155.284 167.708C157.574 167.708 159.846 165.274 160.347 162.272C160.615 160.608 160.272 159.028 159.429 158.015C158.835 157.318 158.047 156.956 157.157 156.956Z" fill="#9B72AA"/>
<path d="M144.556 313.977C144.389 313.977 144.232 313.93 144.111 313.837C143.879 313.67 143.75 313.373 143.796 313.085L145.335 303.252C145.372 303.001 145.539 302.787 145.78 302.667L153.745 298.977C153.847 298.931 153.949 298.912 154.06 298.912C154.227 298.912 154.385 298.968 154.515 299.07C154.746 299.237 154.867 299.525 154.821 299.804L153.42 309.033C153.383 309.274 153.235 309.488 153.022 309.609L144.909 313.902C144.807 313.949 144.686 313.977 144.556 313.977ZM146.791 303.903L145.548 311.811L151.965 308.419L153.096 300.985L146.791 303.903Z" fill="#9B72AA"/>
<path d="M144.556 313.512C144.491 313.512 144.426 313.493 144.379 313.465C144.277 313.391 144.231 313.27 144.25 313.159L145.789 303.326C145.807 303.224 145.872 303.14 145.974 303.094L153.939 299.404C153.976 299.386 154.013 299.376 154.06 299.376C154.106 299.376 154.171 299.386 154.236 299.432C154.328 299.507 154.384 299.618 154.366 299.73L152.965 308.958C152.947 309.06 152.891 309.144 152.799 309.19L144.695 313.474C144.667 313.493 144.611 313.512 144.556 313.512ZM146.373 303.577L144.954 312.647L152.391 308.707L153.689 300.185L146.373 303.577Z" fill="#9B72AA"/>
<path d="M131.436 320.417C131.269 320.417 131.111 320.37 130.991 320.277C130.74 320.101 130.629 319.813 130.675 319.525L132.316 309.599C132.354 309.348 132.52 309.135 132.752 309.023L140.782 305.306C140.884 305.259 140.995 305.231 141.106 305.231C141.273 305.231 141.44 305.287 141.57 305.389C141.793 305.557 141.904 305.845 141.867 306.124L140.383 315.436C140.346 315.677 140.198 315.882 139.985 316.002L131.797 320.333C131.686 320.38 131.565 320.417 131.436 320.417ZM133.763 310.25L132.437 318.233L138.918 314.804L140.114 307.304L133.763 310.25Z" fill="#9B72AA"/>
<path d="M131.436 319.952C131.343 319.952 131.288 319.924 131.26 319.906C131.148 319.832 131.102 319.72 131.121 319.599L132.762 309.683C132.78 309.581 132.845 309.497 132.938 309.451L140.968 305.733C141.014 305.715 141.06 305.706 141.098 305.706C141.162 305.706 141.227 305.724 141.283 305.771C141.366 305.836 141.413 305.947 141.394 306.049L139.911 315.371C139.892 315.464 139.836 315.557 139.744 315.603L131.566 319.934C131.547 319.934 131.492 319.952 131.436 319.952ZM133.346 309.934L131.825 319.088L139.345 315.12L140.708 306.523L133.346 309.934Z" fill="#9B72AA"/>
<path d="M118.195 326.922C118.038 326.922 117.88 326.867 117.732 326.764C117.5 326.597 117.389 326.309 117.435 326.021L119.16 316.012C119.206 315.761 119.373 315.547 119.596 315.445L127.709 311.691C127.811 311.644 127.922 311.616 128.033 311.616C128.2 311.616 128.367 311.672 128.506 311.774C128.729 311.941 128.84 312.23 128.794 312.518L127.217 321.904C127.18 322.136 127.023 322.35 126.819 322.462L118.557 326.829C118.446 326.885 118.325 326.922 118.195 326.922ZM120.625 316.663L119.225 324.729L125.762 321.263L127.041 313.689L120.625 316.663Z" fill="#9B72AA"/>
<path d="M118.195 326.457C118.13 326.457 118.065 326.43 118 326.383C117.917 326.327 117.88 326.207 117.898 326.095L119.623 316.077C119.641 315.984 119.706 315.891 119.799 315.854L127.912 312.099C127.959 312.081 127.996 312.071 128.042 312.071C128.107 312.071 128.181 312.099 128.237 312.136C128.32 312.201 128.357 312.313 128.339 312.434L126.762 321.811C126.744 321.904 126.688 321.997 126.605 322.034L118.343 326.402C118.288 326.448 118.241 326.457 118.195 326.457ZM120.207 316.346L118.603 325.593L126.178 321.578L127.643 312.908L120.207 316.346Z" fill="#9B72AA"/>
</g>
</svg>
