<svg width="52" height="50" viewBox="0 0 52 50" fill="none" xmlns="http://www.w3.org/2000/svg">
<path d="M44.3418 46.6546C32.0629 46.6546 15.9257 46.6546 3.64682 46.6546C0.117727 43.913 0.117727 38.1339 3.64682 35.3965C15.9257 35.3965 32.0629 35.3965 44.3418 35.3965C40.8127 38.1381 40.8127 43.9171 44.3418 46.6546Z" stroke="white" stroke-width="1.5" stroke-miterlimit="10" stroke-linecap="round" stroke-linejoin="round"/>
<path d="M42.8542 46.6548H45.8292" stroke="white" stroke-width="1.5" stroke-miterlimit="10" stroke-linecap="round" stroke-linejoin="round"/>
<path d="M42.8542 35.3965H45.8292" stroke="white" stroke-width="1.5" stroke-miterlimit="10" stroke-linecap="round" stroke-linejoin="round"/>
<path d="M29.0757 23.9888V13.3599" stroke="#13C4A3" stroke-width="1.5" stroke-miterlimit="10" stroke-linecap="round" stroke-linejoin="round"/>
<path d="M23.734 4.73487C19.4757 2.63074 13.6592 5.71401 13.6592 5.71401C13.6592 5.71401 14.7425 12.2097 18.9966 14.3138C23.2548 16.418 29.0714 13.3347 29.0714 13.3347C29.0714 13.3347 27.9922 6.84315 23.734 4.73487Z" stroke="#13C4A3" stroke-width="1.5" stroke-miterlimit="10" stroke-linecap="round" stroke-linejoin="round"/>
<path d="M13.6592 5.71387L29.0755 13.3345" stroke="#13C4A3" stroke-width="1.5" stroke-miterlimit="10" stroke-linecap="round" stroke-linejoin="round"/>
<path d="M34.4172 4.73487C38.6755 2.63074 44.492 5.71401 44.492 5.71401C44.492 5.71401 43.4087 12.2097 39.1505 14.3138C34.8922 16.418 29.0757 13.3347 29.0757 13.3347C29.0757 13.3347 30.159 6.84315 34.4172 4.73487Z" stroke="#13C4A3" stroke-width="1.5" stroke-miterlimit="10" stroke-linecap="round" stroke-linejoin="round"/>
<path d="M44.4925 5.71387L29.0762 13.3345" stroke="#13C4A3" stroke-width="1.5" stroke-miterlimit="10" stroke-linecap="round" stroke-linejoin="round"/>
<path d="M48.075 35.3968C35.7961 35.3968 23.5213 35.3968 11.2424 35.3968C15.1423 32.6552 15.1423 26.8803 11.2424 24.1387C23.5213 24.1387 35.7961 24.1387 48.075 24.1387C51.9749 26.8803 51.9749 32.6593 48.075 35.3968Z" stroke="white" stroke-width="1.5" stroke-miterlimit="10" stroke-linecap="round" stroke-linejoin="round"/>
<path d="M12.5177 24.1387H9.54272" stroke="white" stroke-width="1.5" stroke-miterlimit="10" stroke-linecap="round" stroke-linejoin="round"/>
<path d="M12.5174 35.397H9.54248" stroke="white" stroke-width="1.5" stroke-miterlimit="10" stroke-linecap="round" stroke-linejoin="round"/>
</svg>
