<svg width="22" height="22" viewBox="0 0 22 22" fill="none" xmlns="http://www.w3.org/2000/svg">
<path d="M15.2525 12.2588H12.125C11.5517 12.2588 11.0825 12.7194 11.0825 13.2824V16.3529C11.0825 16.9159 11.5517 17.3765 12.125 17.3765H15.2525C15.8258 17.3765 16.295 16.9159 16.295 16.3529V13.2824C16.295 12.7194 15.8258 12.2588 15.2525 12.2588ZM15.2525 2.02353V3.04706H6.91261V2.02353C6.91261 1.46059 6.4435 1 5.87013 1C5.29676 1 4.82765 1.46059 4.82765 2.02353V3.04706H3.78516C2.62801 3.04706 1.71062 3.96824 1.71062 5.09412L1.7002 19.4235C1.7002 20.5494 2.62801 21.4706 3.78516 21.4706H18.3799C19.5267 21.4706 20.4649 20.5494 20.4649 19.4235V5.09412C20.4649 3.96824 19.5267 3.04706 18.3799 3.04706H17.3375V2.02353C17.3375 1.46059 16.8683 1 16.295 1C15.7216 1 15.2525 1.46059 15.2525 2.02353ZM17.3375 19.4235H4.82765C4.25428 19.4235 3.78516 18.9629 3.78516 18.4V8.16471H18.3799V18.4C18.3799 18.9629 17.9108 19.4235 17.3375 19.4235Z" fill="white"/>
</svg>
