<svg width="32" height="32" viewBox="0 0 32 32" fill="none" xmlns="http://www.w3.org/2000/svg">
<circle cx="16" cy="16" r="16" fill="#F5F6FA"/>
<path d="M21.25 23.5H10.75C10.1533 23.5 9.58097 23.2629 9.15901 22.841C8.73705 22.419 8.5 21.8467 8.5 21.25V9.25C8.5 9.05109 8.57902 8.86032 8.71967 8.71967C8.86032 8.57902 9.05109 8.5 9.25 8.5H19.75C19.9489 8.5 20.1397 8.57902 20.2803 8.71967C20.421 8.86032 20.5 9.05109 20.5 9.25V18.25H23.5V21.25C23.5 21.8467 23.2629 22.419 22.841 22.841C22.419 23.2629 21.8467 23.5 21.25 23.5ZM20.5 19.75V21.25C20.5 21.4489 20.579 21.6397 20.7197 21.7803C20.8603 21.921 21.0511 22 21.25 22C21.4489 22 21.6397 21.921 21.7803 21.7803C21.921 21.6397 22 21.4489 22 21.25V19.75H20.5ZM19 22V10H10V21.25C10 21.4489 10.079 21.6397 10.2197 21.7803C10.3603 21.921 10.5511 22 10.75 22H19ZM11.5 12.25H17.5V13.75H11.5V12.25ZM11.5 15.25H17.5V16.75H11.5V15.25ZM11.5 18.25H15.25V19.75H11.5V18.25Z" fill="#2F80ED"/>
</svg>
