<svg width="32" height="32" viewBox="0 0 32 32" fill="none" xmlns="http://www.w3.org/2000/svg">
<circle cx="16" cy="16" r="16" fill="black" fill-opacity="0.2"/>
<path d="M21.1277 23.5H10.6882C10.0949 23.5 9.52591 23.2629 9.10638 22.841C8.68686 22.419 8.45117 21.8467 8.45117 21.25V9.25C8.45117 9.05109 8.52973 8.86032 8.66958 8.71967C8.80942 8.57902 8.99908 8.5 9.19685 8.5H19.6363C19.8341 8.5 20.0237 8.57902 20.1636 8.71967C20.3034 8.86032 20.382 9.05109 20.382 9.25V18.25H23.3647V21.25C23.3647 21.8467 23.129 22.419 22.7095 22.841C22.2899 23.2629 21.721 23.5 21.1277 23.5ZM20.382 19.75V21.25C20.382 21.4489 20.4605 21.6397 20.6004 21.7803C20.7402 21.921 20.9299 22 21.1277 22C21.3254 22 21.5151 21.921 21.6549 21.7803C21.7948 21.6397 21.8733 21.4489 21.8733 21.25V19.75H20.382ZM18.8906 22V10H9.94252V21.25C9.94252 21.4489 10.0211 21.6397 10.1609 21.7803C10.3008 21.921 10.4904 22 10.6882 22H18.8906ZM11.4339 12.25H17.3993V13.75H11.4339V12.25ZM11.4339 15.25H17.3993V16.75H11.4339V15.25ZM11.4339 18.25H15.1623V19.75H11.4339V18.25Z" fill="white"/>
</svg>
