<svg width="32" height="32" viewBox="0 0 32 32" fill="none" xmlns="http://www.w3.org/2000/svg">
<circle cx="16" cy="16" r="16" fill="black" fill-opacity="0.2"/>
<path d="M11.5286 21.3291H9.24396C9.04198 21.3291 8.84829 21.2497 8.70547 21.1082C8.56265 20.9668 8.48242 20.775 8.48242 20.575V13.0333C8.48242 12.8333 8.56265 12.6415 8.70547 12.5C8.84829 12.3586 9.04198 12.2791 9.24396 12.2791H11.5286V9.26247C11.5286 9.06245 11.6088 8.87062 11.7516 8.72919C11.8944 8.58776 12.0881 8.5083 12.2901 8.5083H19.9054C20.1074 8.5083 20.3011 8.58776 20.4439 8.72919C20.5867 8.87062 20.667 9.06245 20.667 9.26247V12.2791H22.9516C23.1535 12.2791 23.3472 12.3586 23.4901 12.5C23.6329 12.6415 23.7131 12.8333 23.7131 13.0333V20.575C23.7131 20.775 23.6329 20.9668 23.4901 21.1082C23.3472 21.2497 23.1535 21.3291 22.9516 21.3291H20.667V22.8375C20.667 23.0375 20.5867 23.2293 20.4439 23.3707C20.3011 23.5122 20.1074 23.5916 19.9054 23.5916H12.2901C12.0881 23.5916 11.8944 23.5122 11.7516 23.3707C11.6088 23.2293 11.5286 23.0375 11.5286 22.8375V21.3291ZM11.5286 19.8208V19.0666C11.5286 18.8666 11.6088 18.6748 11.7516 18.5334C11.8944 18.3919 12.0881 18.3125 12.2901 18.3125H19.9054C20.1074 18.3125 20.3011 18.3919 20.4439 18.5334C20.5867 18.6748 20.667 18.8666 20.667 19.0666V19.8208H22.19V13.7875H10.0055V19.8208H11.5286ZM13.0516 10.0166V12.2791H19.1439V10.0166H13.0516ZM13.0516 19.8208V22.0833H19.1439V19.8208H13.0516ZM10.767 14.5416H13.0516V16.05H10.767V14.5416Z" fill="white"/>
</svg>
