<svg width="39" height="39" viewBox="0 0 39 39" fill="none" xmlns="http://www.w3.org/2000/svg">
<path d="M13.9002 18.9C13.5002 18.9 13.2002 19.2 13.2002 19.6C13.2002 20 13.5002 20.3 13.9002 20.3C14.3002 20.3 14.6002 20 14.6002 19.6C14.6002 19.2 14.3002 18.9 13.9002 18.9Z" fill="white"/>
<path d="M21.2004 20.4C21.6422 20.4 22.0004 20.0419 22.0004 19.6C22.0004 19.1582 21.6422 18.8 21.2004 18.8C20.7586 18.8 20.4004 19.1582 20.4004 19.6C20.4004 20.0419 20.7586 20.4 21.2004 20.4Z" fill="white"/>
<path d="M27.9002 11.5H12.1002C10.5002 11.5 9.2002 12.8 9.2002 14.4V23.8C9.2002 25.4 10.5002 26.7 12.1002 26.7H17.7002L19.6002 31.2C19.6002 31.2 19.7002 31.6 20.0002 31.6C20.3002 31.6 20.4002 31.2 20.4002 31.2L22.3002 26.7H27.8002C29.4002 26.7 30.7002 25.4 30.7002 23.8V14.4C30.8002 12.8 29.5002 11.5 27.9002 11.5ZM16.0002 19.8C16.0002 21.5 14.2002 21.6 14.2002 21.6C13.5002 21.6 13.1002 21.1 13.1002 21.1V21.4H11.8002V16.1C11.9002 16.1 13.1002 16.1 13.1002 16.1V18.1C13.4002 17.6 14.3002 17.6 14.3002 17.6C16.2002 17.8 16.0002 19.8 16.0002 19.8ZM18.2002 17.8V21.4H17.0002V17.8C17.0002 17.3 16.4002 17.2 16.4002 17.2V15.9C18.4002 16 18.2002 17.8 18.2002 17.8ZM21.2002 21.6C20.0002 21.6 19.1002 20.7 19.1002 19.6C19.1002 18.5 20.0002 17.6 21.2002 17.6C22.4002 17.6 23.3002 18.5 23.3002 19.6C23.3002 20.7 22.4002 21.6 21.2002 21.6ZM28.2002 21.6C28.2002 21.6 28.2002 23.5 26.3002 23.5H25.7002V22.3H26.0002C26.0002 22.3 26.8002 22.4 26.8002 21.2C26.8002 21.2 26.6002 21.7 25.5002 21.7C25.5002 21.7 23.9002 21.6 23.9002 20.1V19.3C23.9002 19.3 23.9002 17.7 25.7002 17.6C25.7002 17.6 26.4002 17.5 26.8002 18.1V17.7H28.1002V21.6H28.2002Z" fill="white"/>
<path d="M26.0998 20.4C26.5416 20.4 26.8998 20.0419 26.8998 19.6C26.8998 19.1582 26.5416 18.8 26.0998 18.8C25.658 18.8 25.2998 19.1582 25.2998 19.6C25.2998 20.0419 25.658 20.4 26.0998 20.4Z" fill="white"/>
</svg>
