<svg width="22" height="22" viewBox="0 0 22 22" fill="none" xmlns="http://www.w3.org/2000/svg">
<path d="M20.5 5.9002C19.8 6.2002 19.1 6.4002 18.4 6.5002C19.2 6.0002 19.7 5.3002 20 4.5002C19.3 4.9002 18.5 5.2002 17.7 5.4002C17 4.6002 16 4.2002 15 4.2002C12.6 4.2002 10.9 6.4002 11.4 8.7002C8.3 8.6002 5.6 7.1002 3.8 4.9002C2.8 6.6002 3.3 8.7002 4.9 9.8002C4.3 9.8002 3.7 9.6002 3.2 9.3002C3.2 11.0002 4.4 12.6002 6.2 13.0002C5.7 13.1002 5.1 13.2002 4.5 13.1002C5 14.5002 6.4 15.6002 8 15.6002C6.4 16.8002 4.5 17.4002 2.5 17.1002C4.1 18.1002 6.1 18.8002 8.2 18.8002C15.1 18.8002 18.9 13.0002 18.7 7.8002C19.4 7.3002 20 6.7002 20.5 5.9002Z" fill="#1D9BF0"/>
</svg>
