<svg width="22" height="22" viewBox="0 0 22 22" fill="none" xmlns="http://www.w3.org/2000/svg">
<path d="M16 16H18C19.1 16 20 15.1 20 14V10C20 8.9 19.1 8 18 8H4C2.9 8 2 8.9 2 10V14C2 15.1 2.9 16 4 16H6" stroke="black" stroke-width="1.5" stroke-linecap="round" stroke-linejoin="round"/>
<path d="M16 8V4C16 2.9 15.1 2 14 2H8C6.9 2 6 2.9 6 4V8" stroke="black" stroke-width="1.5" stroke-linecap="round" stroke-linejoin="round"/>
<path d="M8 12H14C15.1 12 16 12.9 16 14V18C16 19.1 15.1 20 14 20H8C6.9 20 6 19.1 6 18V14C6 12.9 6.9 12 8 12Z" stroke="black" stroke-width="1.5" stroke-linecap="round" stroke-linejoin="round"/>
</svg>
