<svg width="1000" height="1000" viewBox="0 0 1000 1000" fill="none" xmlns="http://www.w3.org/2000/svg">
<path d="M36.6838 180.212L33.7963 177.325L34.6211 176.5L38.3334 180.212L34.6211 183.925L33.7963 183.1L36.6838 180.212Z" fill="white"/>
<path fill-rule="evenodd" clip-rule="evenodd" d="M84.5041 255.354L77.6451 248.495L78.635 247.505L84.5041 253.374L90.3731 247.505L91.363 248.495L84.5041 255.354Z" fill="white"/>
<path fill-rule="evenodd" clip-rule="evenodd" d="M156.504 255.354L149.645 248.495L150.635 247.505L156.504 253.374L162.373 247.505L163.363 248.495L156.504 255.354Z" fill="#2873CB"/>
<path fill-rule="evenodd" clip-rule="evenodd" d="M108.504 247.01L115.363 253.869L114.373 254.859L108.504 248.99L102.635 254.859L101.645 253.869L108.504 247.01Z" fill="white"/>
<path fill-rule="evenodd" clip-rule="evenodd" d="M180.504 247.01L187.363 253.869L186.373 254.859L180.504 248.99L174.635 254.859L173.645 253.869L180.504 247.01Z" fill="#2873CB"/>
<path fill-rule="evenodd" clip-rule="evenodd" d="M136.676 251.182L129.817 258.041L128.827 257.051L134.696 251.182L128.827 245.313L129.817 244.323L136.676 251.182Z" fill="white"/>
<path fill-rule="evenodd" clip-rule="evenodd" d="M208.676 251.182L201.817 258.041L200.827 257.051L206.696 251.182L200.827 245.313L201.817 244.323L208.676 251.182Z" fill="#2873CB"/>
<path fill-rule="evenodd" clip-rule="evenodd" d="M11.5041 255.354L4.64509 248.495L5.63504 247.505L11.5041 253.374L17.3731 247.505L18.363 248.495L11.5041 255.354Z" fill="#7E8896"/>
<path fill-rule="evenodd" clip-rule="evenodd" d="M35.504 247.01L42.363 253.869L41.373 254.859L35.504 248.99L29.635 254.859L28.645 253.869L35.504 247.01Z" fill="#7E8896"/>
<path fill-rule="evenodd" clip-rule="evenodd" d="M63.676 251.182L56.817 258.041L55.8271 257.051L61.6961 251.182L55.8271 245.313L56.817 244.323L63.676 251.182Z" fill="#7E8896"/>
<path d="M13 187H19V177.978L12 172.534L5 177.978V187H11V181H13V187ZM21 188C21 188.265 20.8946 188.52 20.7071 188.707C20.5196 188.895 20.2652 189 20 189H4C3.73478 189 3.48043 188.895 3.29289 188.707C3.10536 188.52 3 188.265 3 188V177.49C2.99989 177.338 3.03462 177.187 3.10152 177.05C3.16841 176.913 3.26572 176.794 3.386 176.7L11.386 170.478C11.5615 170.341 11.7776 170.267 12 170.267C12.2224 170.267 12.4385 170.341 12.614 170.478L20.614 176.7C20.7343 176.794 20.8316 176.913 20.8985 177.05C20.9654 177.187 21.0001 177.338 21 177.49V188V188Z" fill="white"/>
<path d="M78 187H75C74.7348 187 74.4804 186.895 74.2929 186.707C74.1054 186.52 74 186.265 74 186V176C74 175.735 74.1054 175.48 74.2929 175.293C74.4804 175.105 74.7348 175 75 175H78V171C78 170.735 78.1054 170.48 78.2929 170.293C78.4804 170.105 78.7348 170 79 170H89C89.2652 170 89.5196 170.105 89.7071 170.293C89.8946 170.48 90 170.735 90 171V175H93C93.2652 175 93.5196 175.105 93.7071 175.293C93.8946 175.48 94 175.735 94 176V186C94 186.265 93.8946 186.52 93.7071 186.707C93.5196 186.895 93.2652 187 93 187H90V189C90 189.265 89.8946 189.52 89.7071 189.707C89.5196 189.895 89.2652 190 89 190H79C78.7348 190 78.4804 189.895 78.2929 189.707C78.1054 189.52 78 189.265 78 189V187ZM78 185V184C78 183.735 78.1054 183.48 78.2929 183.293C78.4804 183.105 78.7348 183 79 183H89C89.2652 183 89.5196 183.105 89.7071 183.293C89.8946 183.48 90 183.735 90 184V185H92V177H76V185H78ZM80 172V175H88V172H80ZM80 185V188H88V185H80ZM77 178H80V180H77V178Z" fill="#999999"/>
<path d="M62.12 185.023L57.921 182.733C57.3728 183.319 56.6609 183.727 55.878 183.903C55.0951 184.079 54.2773 184.016 53.5309 183.721C52.7845 183.426 52.1439 182.914 51.6925 182.25C51.2411 181.587 50.9998 180.803 50.9998 180C50.9998 179.198 51.2411 178.414 51.6925 177.751C52.1439 177.087 52.7845 176.575 53.5309 176.28C54.2773 175.985 55.0951 175.922 55.878 176.098C56.6609 176.274 57.3728 176.682 57.921 177.268L62.121 174.978C61.8825 174.034 61.9965 173.036 62.4416 172.17C62.8867 171.304 63.6323 170.63 64.5386 170.274C65.445 169.919 66.4499 169.906 67.3649 170.239C68.28 170.571 69.0424 171.226 69.5093 172.08C69.9761 172.935 70.1153 173.93 69.9009 174.88C69.6864 175.829 69.1329 176.668 68.3442 177.239C67.5555 177.81 66.5857 178.073 65.6166 177.98C64.6475 177.887 63.7456 177.443 63.08 176.733L58.88 179.023C59.0412 179.664 59.0412 180.336 58.88 180.977L63.079 183.267C63.7446 182.556 64.6464 182.113 65.6156 182.02C66.5847 181.927 67.5545 182.19 68.3432 182.761C69.1319 183.332 69.6854 184.171 69.8999 185.12C70.1143 186.07 69.9751 187.065 69.5083 187.92C69.0414 188.774 68.279 189.429 67.3639 189.761C66.4489 190.094 65.444 190.081 64.5376 189.725C63.6313 189.37 62.8857 188.696 62.4406 187.83C61.9955 186.964 61.8815 185.966 62.12 185.022V185.023ZM55 182C55.5304 182 56.0391 181.789 56.4142 181.414C56.7892 181.039 57 180.53 57 180C57 179.47 56.7892 178.961 56.4142 178.586C56.0391 178.211 55.5304 178 55 178C54.4695 178 53.9608 178.211 53.5857 178.586C53.2107 178.961 53 179.47 53 180C53 180.53 53.2107 181.039 53.5857 181.414C53.9608 181.789 54.4695 182 55 182V182ZM66 176C66.5304 176 67.0391 175.789 67.4142 175.414C67.7892 175.039 68 174.53 68 174C68 173.47 67.7892 172.961 67.4142 172.586C67.0391 172.211 66.5304 172 66 172C65.4695 172 64.9608 172.211 64.5857 172.586C64.2107 172.961 64 173.47 64 174C64 174.53 64.2107 175.039 64.5857 175.414C64.9608 175.789 65.4695 176 66 176V176ZM66 188C66.5304 188 67.0391 187.789 67.4142 187.414C67.7892 187.039 68 186.53 68 186C68 185.47 67.7892 184.961 67.4142 184.586C67.0391 184.211 66.5304 184 66 184C65.4695 184 64.9608 184.211 64.5857 184.586C64.2107 184.961 64 185.47 64 186C64 186.53 64.2107 187.039 64.5857 187.414C64.9608 187.789 65.4695 188 66 188V188Z" fill="#999999"/>
<path fill-rule="evenodd" clip-rule="evenodd" d="M3.93934 319.939C3.35355 320.525 3.35355 321.475 3.93934 322.061L10.9393 329.061C11.5251 329.646 12.4749 329.646 13.0607 329.061L20.0607 322.061C20.6464 321.475 20.6464 320.525 20.0607 319.939C19.4749 319.354 18.5251 319.354 17.9393 319.939L12 325.879L6.06066 319.939C5.47487 319.354 4.52513 319.354 3.93934 319.939Z" fill="white"/>
<path fill-rule="evenodd" clip-rule="evenodd" d="M44.0607 328.061C44.6464 327.475 44.6464 326.525 44.0607 325.939L37.0607 318.939C36.4749 318.354 35.5251 318.354 34.9393 318.939L27.9393 325.939C27.3536 326.525 27.3536 327.475 27.9393 328.061C28.5251 328.646 29.4749 328.646 30.0607 328.061L36 322.121L41.9393 328.061C42.5251 328.646 43.4749 328.646 44.0607 328.061Z" fill="white"/>
<path fill-rule="evenodd" clip-rule="evenodd" d="M264 349.8C259.251 349.8 255.4 353.649 255.4 358.394C255.4 362.04 257.223 364.998 259.307 367.08C260.345 368.118 261.428 368.916 262.333 369.449C262.785 369.716 263.182 369.91 263.495 370.034C263.652 370.095 263.778 370.136 263.874 370.16C263.95 370.179 263.99 370.184 264 370.185C264.01 370.184 264.05 370.179 264.126 370.16C264.222 370.136 264.348 370.095 264.505 370.034C264.818 369.91 265.215 369.716 265.667 369.449C266.572 368.916 267.655 368.118 268.693 367.08C270.777 364.998 272.6 362.04 272.6 358.394C272.6 353.649 268.749 349.8 264 349.8ZM253.4 358.394C253.4 352.543 258.148 347.8 264 347.8C269.852 347.8 274.6 352.543 274.6 358.394C274.6 362.742 272.423 366.18 270.107 368.495C268.945 369.656 267.728 370.556 266.683 371.172C266.16 371.48 265.669 371.724 265.239 371.894C264.838 372.052 264.394 372.185 264 372.185C263.606 372.185 263.162 372.052 262.761 371.894C262.331 371.724 261.84 371.48 261.317 371.172C260.272 370.556 259.055 369.656 257.893 368.495C255.577 366.18 253.4 362.742 253.4 358.394ZM259.8 358.394C259.8 356.076 261.682 354.196 264 354.196C266.318 354.196 268.2 356.076 268.2 358.394C268.2 360.712 266.318 362.592 264 362.592C261.682 362.592 259.8 360.712 259.8 358.394ZM264 356.196C262.785 356.196 261.8 357.181 261.8 358.394C261.8 359.606 262.785 360.592 264 360.592C265.215 360.592 266.2 359.606 266.2 358.394C266.2 357.181 265.215 356.196 264 356.196Z" fill="white"/>
<path fill-rule="evenodd" clip-rule="evenodd" d="M208.793 351.138V348H210.793V351.138H222.035V348H224.035V351.138H226.345C227.811 351.138 229 352.327 229 353.793V367.034C229 368.501 227.811 369.69 226.345 369.69H206.483C205.016 369.69 203.828 368.501 203.828 367.034V353.793C203.828 352.327 205.016 351.138 206.483 351.138H208.793ZM209.143 367.69H215.409C215.32 366.037 213.951 364.724 212.276 364.724C210.601 364.724 209.232 366.037 209.143 367.69ZM217.411 367.69C217.32 364.931 215.056 362.724 212.276 362.724C209.496 362.724 207.232 364.932 207.141 367.69H206.483C206.121 367.69 205.828 367.396 205.828 367.034V353.793C205.828 353.431 206.121 353.138 206.483 353.138H226.345C226.707 353.138 227 353.431 227 353.793V367.034C227 367.396 226.707 367.69 226.345 367.69H217.411ZM208.793 357.931C208.793 356.008 210.352 354.448 212.276 354.448C214.199 354.448 215.759 356.008 215.759 357.931C215.759 359.855 214.199 361.414 212.276 361.414C210.352 361.414 208.793 359.855 208.793 357.931ZM212.276 356.448C211.457 356.448 210.793 357.112 210.793 357.931C210.793 358.75 211.457 359.414 212.276 359.414C213.095 359.414 213.759 358.75 213.759 357.931C213.759 357.112 213.095 356.448 212.276 356.448ZM223.862 358.103H218.897V356.103H223.862V358.103ZM223.862 363.069H218.897V361.069H223.862V363.069ZM228.828 373H204V371H228.828V373Z" fill="white"/>
<path fill-rule="evenodd" clip-rule="evenodd" d="M167 351.2V348H169V351.2H167ZM159.107 351.293L161.507 353.693L160.093 355.107L157.693 352.707L159.107 351.293ZM178.307 352.707L175.907 355.107L174.493 353.693L176.893 351.293L178.307 352.707ZM161.531 358.21C161.991 354.991 164.748 352.6 168 352.6C171.252 352.6 174.009 354.991 174.469 358.21L174.485 358.323C174.748 360.162 174.221 361.914 173.182 363.257C172.574 364.042 172.2 364.753 172.2 365.442V368C172.2 368.552 171.752 369 171.2 369H164.8C164.248 369 163.8 368.552 163.8 368V365.442C163.8 364.753 163.426 364.042 162.818 363.257C161.779 361.914 161.252 360.162 161.515 358.323L162.505 358.464L161.515 358.323L161.531 358.21ZM168 354.6C165.743 354.6 163.83 356.259 163.511 358.493L162.521 358.352L163.511 358.493L163.495 358.606C163.312 359.885 163.676 361.098 164.4 362.033C165.063 362.89 165.8 364.054 165.8 365.442V367H170.2V365.442C170.2 364.054 170.937 362.89 171.6 362.033C172.324 361.098 172.688 359.885 172.505 358.606L173.495 358.464L172.505 358.606L172.489 358.493C172.17 356.259 170.257 354.6 168 354.6ZM159.2 361H156V359H159.2V361ZM180 361H176.8V359H180V361ZM170.4 372.2H165.6V370.2H170.4V372.2Z" fill="white"/>
<path fill-rule="evenodd" clip-rule="evenodd" d="M109.4 348.8C109.4 348.248 109.848 347.8 110.4 347.8H126.4C128.72 347.8 130.6 349.68 130.6 352V366.4C130.6 368.72 128.72 370.6 126.4 370.6H116.2V372H114.2V370.6H110.4C109.848 370.6 109.4 370.152 109.4 369.6V348.8ZM116.2 368.6H126.4C127.615 368.6 128.6 367.615 128.6 366.4V352C128.6 350.785 127.615 349.8 126.4 349.8H116.2V368.6ZM114.2 349.8V368.6H111.4V349.8H114.2ZM125.6 356.2H119.2V354.2H125.6V356.2Z" fill="white"/>
<path fill-rule="evenodd" clip-rule="evenodd" d="M62.4 349.8C62.0687 349.8 61.8 350.069 61.8 350.4L61.8 359H82.2001V350.4C82.2001 350.069 81.9314 349.8 81.6 349.8L62.4 349.8ZM82.2001 361H61.8V363.2C61.8 363.531 62.0687 363.8 62.4 363.8L81.6 363.8C81.9314 363.8 82.2001 363.531 82.2001 363.2V361ZM59.8 350.4C59.8 348.964 60.9641 347.8 62.4 347.8L81.6 347.8C83.036 347.8 84.2001 348.964 84.2001 350.4V363.2C84.2001 364.636 83.036 365.8 81.6 365.8H73V370.2H80.8001V372.2H63.2V370.2H71V365.8H62.4C60.9641 365.8 59.8 364.636 59.8 363.2L59.8 350.4Z" fill="white"/>
<path fill-rule="evenodd" clip-rule="evenodd" d="M20.5714 349C18.2825 349 16.4286 350.854 16.4286 353.14C16.4286 355.425 18.2825 357.279 20.5714 357.279C22.8603 357.279 24.7143 355.425 24.7143 353.14C24.7143 350.854 22.8603 349 20.5714 349ZM14.4286 353.14C14.4286 349.748 17.1792 347 20.5714 347C23.9637 347 26.7143 349.748 26.7143 353.14C26.7143 356.531 23.9637 359.279 20.5714 359.279C17.1792 359.279 14.4286 356.531 14.4286 353.14ZM26.4286 358.286C26.4286 355.84 28.4113 353.857 30.8571 353.857C33.303 353.857 35.2857 355.84 35.2857 358.286C35.2857 360.732 33.303 362.714 30.8571 362.714C28.4113 362.714 26.4286 360.732 26.4286 358.286ZM30.8571 355.857C29.5159 355.857 28.4286 356.944 28.4286 358.286C28.4286 359.627 29.5159 360.714 30.8571 360.714C32.1984 360.714 33.2857 359.627 33.2857 358.286C33.2857 356.944 32.1984 355.857 30.8571 355.857ZM17.1429 364.419C14.8546 364.419 13 366.273 13 368.561V370.984H28.1429V368.561C28.1429 366.273 26.2883 364.419 24 364.419H17.1429ZM11 368.561C11 365.168 13.7505 362.419 17.1429 362.419H24C27.3924 362.419 30.1429 365.168 30.1429 368.561V372.984H11V368.561ZM35 369.429C35 367.614 33.5289 366.143 31.7143 366.143V364.143C34.6335 364.143 37 366.509 37 369.429V373H31.7143V371H35V369.429Z" fill="white"/>
<g opacity="0.8">
<g clip-path="url(#clip0_1166_5627)">
<path fill-rule="evenodd" clip-rule="evenodd" d="M17.8621 506H6.13793C3.86207 506 2 507.862 2 510.138V518.483C2 520.759 3.86207 522.621 6.13793 522.621H10.3448L11.6207 525.621C11.6207 525.621 11.7586 525.965 12.0345 525.965C12.3448 525.965 12.4483 525.621 12.4483 525.621L13.7241 522.621H17.8621C20.1379 522.621 22 520.759 22 518.483V510.138C22 507.862 20.1379 506 17.8621 506ZM6.72399 512.759C6.72399 512.759 5.8964 512.759 5.62054 513.242V511.345H4.41364V516.276H5.62054V516C5.62054 516 5.96537 516.414 6.62054 516.414C6.62054 516.414 8.27571 516.38 8.27571 514.793C8.27571 514.793 8.48261 512.931 6.72399 512.759ZM6.34468 515.311C5.96537 515.311 5.65502 515 5.65502 514.621C5.65502 514.242 5.96537 513.931 6.34468 513.931C6.72399 513.931 7.03433 514.242 7.03433 514.621C7.03433 515 6.72399 515.311 6.34468 515.311ZM8.65498 512.345V511.172C10.517 511.276 10.3791 512.897 10.3791 512.897V516.276H9.2067V512.931C9.2067 512.483 8.65498 512.345 8.65498 512.345ZM18.3791 513.207C17.9998 512.689 17.3446 512.758 17.3446 512.758C15.7584 512.862 15.724 514.345 15.724 514.345V514.896C15.724 516.31 17.1722 516.414 17.1722 516.414C18.2067 516.414 18.3447 515.965 18.3447 515.965C18.3447 517.103 17.6205 517.034 17.6205 517.034H17.3102V518.138H17.8274C19.586 518.138 19.5515 516.414 19.5515 516.414V512.862H18.3791V513.207ZM17.724 515.345C17.3102 515.345 16.9998 515.034 16.9998 514.62C16.9998 514.207 17.3102 513.896 17.724 513.896C18.1378 513.896 18.4481 514.207 18.4481 514.62C18.4481 515 18.1033 515.345 17.724 515.345ZM11.1726 514.586C11.1726 513.586 12.0691 512.793 13.1381 512.793C14.2415 512.793 15.1036 513.62 15.1036 514.586C15.1036 515.586 14.2071 516.379 13.1381 516.379C12.0346 516.379 11.1726 515.586 11.1726 514.586ZM12.3795 514.586C12.3795 514.999 12.7243 515.344 13.1381 515.344C13.5519 515.344 13.8967 515.034 13.8967 514.586C13.8967 514.172 13.5519 513.827 13.1381 513.827C12.7243 513.827 12.3795 514.172 12.3795 514.586Z" fill="#989DAA"/>
</g>
</g>
<g opacity="0.8">
<g clip-path="url(#clip1_1166_5627)">
<path fill-rule="evenodd" clip-rule="evenodd" d="M17.8621 530H6.13793C3.86207 530 2 531.862 2 534.138V542.483C2 544.759 3.86207 546.621 6.13793 546.621H10.3448L11.6207 549.621C11.6207 549.621 11.7586 549.965 12.0345 549.965C12.3448 549.965 12.4483 549.621 12.4483 549.621L13.7241 546.621H17.8621C20.1379 546.621 22 544.759 22 542.483V534.138C22 531.862 20.1379 530 17.8621 530ZM6.72399 536.759C6.72399 536.759 5.8964 536.759 5.62054 537.242V535.345H4.41364V540.276H5.62054V540C5.62054 540 5.96537 540.414 6.62054 540.414C6.62054 540.414 8.27571 540.38 8.27571 538.793C8.27571 538.793 8.48261 536.931 6.72399 536.759ZM6.34468 539.311C5.96537 539.311 5.65502 539 5.65502 538.621C5.65502 538.242 5.96537 537.931 6.34468 537.931C6.72399 537.931 7.03433 538.242 7.03433 538.621C7.03433 539 6.72399 539.311 6.34468 539.311ZM8.65498 536.345V535.172C10.517 535.276 10.3791 536.897 10.3791 536.897V540.276H9.2067V536.931C9.2067 536.483 8.65498 536.345 8.65498 536.345ZM18.3791 537.207C17.9998 536.689 17.3446 536.758 17.3446 536.758C15.7584 536.862 15.724 538.345 15.724 538.345V538.896C15.724 540.31 17.1722 540.414 17.1722 540.414C18.2067 540.414 18.3447 539.965 18.3447 539.965C18.3447 541.103 17.6205 541.034 17.6205 541.034H17.3102V542.138H17.8274C19.586 542.138 19.5515 540.414 19.5515 540.414V536.862H18.3791V537.207ZM17.724 539.345C17.3102 539.345 16.9998 539.034 16.9998 538.62C16.9998 538.207 17.3102 537.896 17.724 537.896C18.1378 537.896 18.4481 538.207 18.4481 538.62C18.4481 539 18.1033 539.345 17.724 539.345ZM11.1726 538.586C11.1726 537.586 12.0691 536.793 13.1381 536.793C14.2415 536.793 15.1036 537.62 15.1036 538.586C15.1036 539.586 14.2071 540.379 13.1381 540.379C12.0346 540.379 11.1726 539.586 11.1726 538.586ZM12.3795 538.586C12.3795 538.999 12.7243 539.344 13.1381 539.344C13.5519 539.344 13.8967 539.034 13.8967 538.586C13.8967 538.172 13.5519 537.827 13.1381 537.827C12.7243 537.827 12.3795 538.172 12.3795 538.586Z" fill="#5CAF54"/>
</g>
</g>
<g opacity="0.8">
<path d="M38.2432 517.5H40.7432L41.7432 513.5H38.2432V511.5C38.2432 510.47 38.2432 509.5 40.2432 509.5H41.7432V506.14C41.4172 506.097 40.1862 506 38.8862 506C36.1712 506 34.2432 507.657 34.2432 510.7V513.5H31.2432V517.5H34.2432V526H38.2432V517.5Z" fill="#989DAA"/>
</g>
<g opacity="0.8">
<path d="M38.2432 541.5H40.7432L41.7432 537.5H38.2432V535.5C38.2432 534.47 38.2432 533.5 40.2432 533.5H41.7432V530.14C41.4172 530.097 40.1862 530 38.8862 530C36.1712 530 34.2432 531.657 34.2432 534.7V537.5H31.2432V541.5H34.2432V550H38.2432V541.5Z" fill="#485F95"/>
</g>
<g opacity="0.8">
<path d="M70.6487 509.657C69.8853 509.995 69.0757 510.216 68.2467 510.315C69.1205 509.792 69.7745 508.97 70.0867 508.001C69.2667 508.489 68.3677 508.831 67.4307 509.016C66.8014 508.343 65.9671 507.896 65.0577 507.746C64.1483 507.595 63.2147 507.749 62.402 508.184C61.5893 508.619 60.9431 509.311 60.5639 510.151C60.1846 510.991 60.0935 511.933 60.3047 512.83C58.6419 512.747 57.0151 512.314 55.53 511.562C54.045 510.809 52.7349 509.752 51.6847 508.46C51.313 509.098 51.1177 509.824 51.1187 510.563C51.1187 512.013 51.8567 513.294 52.9787 514.044C52.3148 514.023 51.6654 513.844 51.0847 513.521V513.573C51.0849 514.539 51.4191 515.475 52.0306 516.222C52.6421 516.969 53.4932 517.482 54.4397 517.674C53.8234 517.841 53.1771 517.866 52.5497 517.746C52.8166 518.577 53.3368 519.304 54.0373 519.825C54.7379 520.346 55.5839 520.635 56.4567 520.651C55.5892 521.332 54.5959 521.836 53.5336 522.133C52.4713 522.43 51.3609 522.515 50.2657 522.383C52.1774 523.612 54.4028 524.265 56.6757 524.263C64.3687 524.263 68.5757 517.89 68.5757 512.363C68.5757 512.183 68.5707 512.001 68.5627 511.823C69.3816 511.231 70.0883 510.498 70.6497 509.658L70.6487 509.657Z" fill="#989DAA"/>
</g>
<g opacity="0.8">
<path d="M70.6487 533.657C69.8853 533.995 69.0757 534.216 68.2467 534.315C69.1205 533.792 69.7745 532.97 70.0867 532.001C69.2667 532.489 68.3677 532.831 67.4307 533.016C66.8014 532.343 65.9671 531.896 65.0577 531.746C64.1483 531.595 63.2147 531.749 62.402 532.184C61.5893 532.619 60.9431 533.311 60.5639 534.151C60.1846 534.991 60.0935 535.933 60.3047 536.83C58.6419 536.747 57.0151 536.314 55.53 535.562C54.045 534.809 52.7349 533.752 51.6847 532.46C51.313 533.098 51.1177 533.824 51.1187 534.563C51.1187 536.013 51.8567 537.294 52.9787 538.044C52.3148 538.023 51.6654 537.844 51.0847 537.521V537.573C51.0849 538.539 51.4191 539.475 52.0306 540.222C52.6421 540.969 53.4932 541.482 54.4397 541.674C53.8234 541.841 53.1771 541.866 52.5497 541.746C52.8166 542.577 53.3368 543.304 54.0373 543.825C54.7379 544.346 55.5839 544.635 56.4567 544.651C55.5892 545.332 54.5959 545.836 53.5336 546.133C52.4713 546.43 51.3609 546.515 50.2657 546.383C52.1774 547.612 54.4028 548.265 56.6757 548.263C64.3687 548.263 68.5757 541.89 68.5757 536.363C68.5757 536.183 68.5707 536.001 68.5627 535.823C69.3816 535.231 70.0883 534.498 70.6497 533.658L70.6487 533.657Z" fill="#51A7D9"/>
</g>
<g opacity="0.8">
<path d="M93.2721 510.499C93.7291 512.281 93.7291 516.001 93.7291 516.001C93.7291 516.001 93.7291 519.721 93.2721 521.503C93.0181 522.488 92.2751 523.263 91.3341 523.525C89.6251 524.001 83.7291 524.001 83.7291 524.001C83.7291 524.001 77.8361 524.001 76.1241 523.525C75.1791 523.259 74.4371 522.485 74.1861 521.503C73.7291 519.721 73.7291 516.001 73.7291 516.001C73.7291 516.001 73.7291 512.281 74.1861 510.499C74.4401 509.514 75.1831 508.739 76.1241 508.477C77.8361 508.001 83.7291 508.001 83.7291 508.001C83.7291 508.001 89.6251 508.001 91.3341 508.477C92.2791 508.743 93.0211 509.517 93.2721 510.499V510.499ZM81.7291 519.501L87.7291 516.001L81.7291 512.501V519.501Z" fill="#989DAA"/>
</g>
<g opacity="0.8">
<path d="M93.2721 534.499C93.7291 536.281 93.7291 540.001 93.7291 540.001C93.7291 540.001 93.7291 543.721 93.2721 545.503C93.0181 546.488 92.2751 547.263 91.3341 547.525C89.6251 548.001 83.7291 548.001 83.7291 548.001C83.7291 548.001 77.8361 548.001 76.1241 547.525C75.1791 547.259 74.4371 546.485 74.1861 545.503C73.7291 543.721 73.7291 540.001 73.7291 540.001C73.7291 540.001 73.7291 536.281 74.1861 534.499C74.4401 533.514 75.1831 532.739 76.1241 532.477C77.8361 532.001 83.7291 532.001 83.7291 532.001C83.7291 532.001 89.6251 532.001 91.3341 532.477C92.2791 532.743 93.0211 533.517 93.2721 534.499V534.499ZM81.7291 543.501L87.7291 540.001L81.7291 536.501V543.501Z" fill="#C43936"/>
</g>
<g opacity="0.8">
<path d="M8 438.2C7.55817 438.2 7.2 438.558 7.2 439V448C7.2 448.442 7.55817 448.8 8 448.8H17C17.4418 448.8 17.8 448.442 17.8 448V445.75H19V448C19 449.105 18.1046 450 17 450H8C6.89543 450 6 449.105 6 448V439C6 437.895 6.89543 437 8 437L10.25 437V438.2H8Z" fill="#7E8896"/>
<path fill-rule="evenodd" clip-rule="evenodd" d="M11.8 437H19V444.2H17.8V439.049L14.6 442.249L13 443.849L12.2001 444.649L11.3514 443.8L12.1515 443L13.7515 441.4L16.9515 438.2H11.8V437Z" fill="#7E8896"/>
</g>
<g opacity="0.8" clip-path="url(#clip2_1166_5627)">
<path d="M2 457.2C1.55817 457.2 1.2 457.558 1.2 458V467C1.2 467.442 1.55817 467.8 2 467.8H11C11.4418 467.8 11.8 467.442 11.8 467V464.75H13V467C13 468.105 12.1046 469 11 469H2C0.89543 469 0 468.105 0 467V458C0 456.895 0.895431 456 2 456L4.25 456V457.2H2Z" fill="#7E8896"/>
<path fill-rule="evenodd" clip-rule="evenodd" d="M5.80002 456H13V463.2H11.8V458.049L8.60002 461.249L7.00002 462.849L6.20009 463.649L5.35144 462.8L6.15149 462L7.75149 460.4L10.9515 457.2H5.80002V456Z" fill="#7E8896"/>
</g>
<g opacity="0.8">
<path d="M32 438.2C31.5582 438.2 31.2 438.558 31.2 439V448C31.2 448.442 31.5582 448.8 32 448.8H41C41.4418 448.8 41.8 448.442 41.8 448V445.75H43V448C43 449.105 42.1046 450 41 450H32C30.8954 450 30 449.105 30 448V439C30 437.895 30.8954 437 32 437L34.25 437V438.2H32Z" fill="white"/>
<path fill-rule="evenodd" clip-rule="evenodd" d="M35.8 437H43V444.2H41.8V439.049L38.6 442.249L37 443.849L36.2001 444.649L35.3514 443.8L36.1515 443L37.7515 441.4L40.9515 438.2H35.8V437Z" fill="white"/>
</g>
<g opacity="0.8" clip-path="url(#clip3_1166_5627)">
<path d="M15 457.2C14.5582 457.2 14.2 457.558 14.2 458V467C14.2 467.442 14.5582 467.8 15 467.8H24C24.4418 467.8 24.8 467.442 24.8 467V464.75H26V467C26 468.105 25.1046 469 24 469H15C13.8954 469 13 468.105 13 467V458C13 456.895 13.8954 456 15 456L17.25 456V457.2H15Z" fill="white"/>
<path fill-rule="evenodd" clip-rule="evenodd" d="M18.8 456H26V463.2H24.8V458.049L21.6 461.249L20 462.849L19.2001 463.649L18.3514 462.8L19.1515 462L20.7515 460.4L23.9515 457.2H18.8V456Z" fill="white"/>
</g>
<path fill-rule="evenodd" clip-rule="evenodd" d="M201.489 81.4882C202.14 80.8373 203.195 80.8373 203.846 81.4882L216.001 93.643L228.156 81.4882C228.807 80.8373 229.862 80.8373 230.513 81.4882C231.164 82.139 231.164 83.1944 230.513 83.8452L218.358 96L230.513 108.155C231.164 108.806 231.164 109.861 230.513 110.512C229.862 111.163 228.807 111.163 228.156 110.512L216.001 98.357L203.846 110.512C203.195 111.163 202.14 111.163 201.489 110.512C200.838 109.861 200.838 108.806 201.489 108.155L213.644 96L201.489 83.8452C200.838 83.1944 200.838 82.139 201.489 81.4882Z" fill="#111111"/>
<path fill-rule="evenodd" clip-rule="evenodd" d="M249.489 81.4882C250.14 80.8373 251.195 80.8373 251.846 81.4882L264.001 93.643L276.156 81.4882C276.807 80.8373 277.862 80.8373 278.513 81.4882C279.164 82.139 279.164 83.1944 278.513 83.8452L266.358 96L278.513 108.155C279.164 108.806 279.164 109.861 278.513 110.512C277.862 111.163 276.807 111.163 276.156 110.512L264.001 98.357L251.846 110.512C251.195 111.163 250.14 111.163 249.489 110.512C248.838 109.861 248.838 108.806 249.489 108.155L261.644 96L249.489 83.8452C248.838 83.1944 248.838 82.139 249.489 81.4882Z" fill="white"/>
<path d="M77.1527 99.0943H76.0686L75.6844 98.7238C77.0292 97.1595 77.8388 95.1286 77.8388 92.9194C77.8388 87.9931 73.8456 84 68.9194 84C63.9931 84 60 87.9931 60 92.9194C60 97.8456 63.9931 101.839 68.9194 101.839C71.1286 101.839 73.1595 101.029 74.7238 99.6844L75.0943 100.069V101.153L81.9554 108L84 105.955L77.1527 99.0943V99.0943ZM68.9194 99.0943C65.5026 99.0943 62.7444 96.3362 62.7444 92.9194C62.7444 89.5026 65.5026 86.7444 68.9194 86.7444C72.3362 86.7444 75.0943 89.5026 75.0943 92.9194C75.0943 96.3362 72.3362 99.0943 68.9194 99.0943Z" fill="white"/>
<path d="M29.1527 99.0943H28.0686L27.6844 98.7238C29.0292 97.1595 29.8388 95.1286 29.8388 92.9194C29.8388 87.9931 25.8456 84 20.9194 84C15.9931 84 12 87.9931 12 92.9194C12 97.8456 15.9931 101.839 20.9194 101.839C23.1286 101.839 25.1595 101.029 26.7238 99.6844L27.0943 100.069V101.153L33.9554 108L36 105.955L29.1527 99.0943V99.0943ZM20.9194 99.0943C17.5026 99.0943 14.7444 96.3362 14.7444 92.9194C14.7444 89.5026 17.5026 86.7444 20.9194 86.7444C24.3362 86.7444 27.0943 89.5026 27.0943 92.9194C27.0943 96.3362 24.3362 99.0943 20.9194 99.0943Z" fill="#0082CB"/>
<path fill-rule="evenodd" clip-rule="evenodd" d="M184 88.4667H152V86.4667H184V88.4667ZM164.8 97H152V95H164.8V97ZM171.2 105.533H152V103.533H171.2V105.533Z" fill="white"/>
<path fill-rule="evenodd" clip-rule="evenodd" d="M136 88.4667H104V86.4667H136V88.4667ZM116.8 97H104V95H116.8V97ZM123.2 105.533H104V103.533H123.2V105.533Z" fill="#005BAA"/>
<path d="M106.042 177.166H104V180.083H106.042V188.833H109.444V180.083H111.922L112.167 177.166H109.444V175.949C109.444 175.256 109.574 174.979 110.2 174.979H112.167V171.333H109.574C107.131 171.333 106.042 172.485 106.042 174.694V177.166Z" fill="white"/>
<path d="M141.999 174.297C141.272 174.6 140.487 174.81 139.661 174.903C140.504 174.429 141.148 173.682 141.454 172.788C140.669 173.223 139.793 173.542 138.867 173.721C138.124 172.967 137.066 172.5 135.901 172.5C133.273 172.5 131.347 174.81 131.934 177.206C128.554 177.042 125.554 175.518 123.546 173.2C122.48 174.919 122.992 177.174 124.802 178.318C124.141 178.294 123.513 178.123 122.959 177.836C122.918 179.609 124.265 181.266 126.224 181.639C125.653 181.787 125.025 181.818 124.389 181.701C124.91 183.226 126.405 184.33 128.19 184.361C126.48 185.629 124.323 186.189 122.166 185.948C123.968 187.037 126.108 187.667 128.405 187.667C135.958 187.667 140.231 181.662 139.966 176.272C140.76 175.736 141.454 175.067 141.999 174.297Z" fill="white"/>
<path d="M96.3852 516C96.3852 522.415 101.585 527.615 108 527.615C114.415 527.615 119.615 522.415 119.615 516C119.615 509.585 114.415 504.385 108 504.385C101.585 504.385 96.3852 509.585 96.3852 516Z" fill="white" stroke="#E1E6EB" stroke-width="0.770419"/>
<path d="M109.447 512.788L106.232 516.003L109.447 519.219" stroke="#4E5E71" stroke-width="1.07859" stroke-linecap="round"/>
<circle cx="132" cy="516" r="11.6148" fill="white" stroke="#E1E6EB" stroke-width="0.770419"/>
<path d="M130.553 512.788L133.768 516.003L130.553 519.219" stroke="#4E5E71" stroke-width="1.07859" stroke-linecap="round"/>
<path fill-rule="evenodd" clip-rule="evenodd" d="M19.5143 863.475C19.7765 863.191 19.7588 862.748 19.4747 862.486L12.4999 856.047L5.52515 862.486C5.24108 862.748 5.22336 863.191 5.48558 863.475C5.74781 863.759 6.19067 863.777 6.47474 863.514L12.4999 857.953L18.5252 863.514C18.8092 863.777 19.2521 863.759 19.5143 863.475Z" fill="white"/>
<path fill-rule="evenodd" clip-rule="evenodd" d="M43.5143 856.525C43.7765 856.809 43.7588 857.252 43.4747 857.514L36.4999 863.953L29.5252 857.514C29.2411 857.252 29.2234 856.809 29.4856 856.525C29.7478 856.241 30.1907 856.223 30.4747 856.486L36.4999 862.047L42.5252 856.486C42.8092 856.223 43.2521 856.241 43.5143 856.525Z" fill="#333333"/>
<path fill-rule="evenodd" clip-rule="evenodd" d="M15.6672 878.121L7.88906 885.899L7.74764 888.162L10.0104 888.021L17.7886 880.243L15.6672 878.121ZM16.0208 876.354C15.8255 876.158 15.5089 876.158 15.3137 876.354L6.12129 885.546C5.92603 885.741 5.92603 889.593 6.12129 889.789C6.31656 889.984 10.1687 889.984 10.3639 889.789L19.5563 880.596C19.7516 880.401 19.7516 880.084 19.5563 879.889L16.0208 876.354Z" fill="#1A2949"/>
<rect x="6" y="891.5" width="13" height="1.5" fill="#1A2949"/>
<path d="M31.714 885.546C32.301 886.747 33.275 887.716 34.478 888.298C34.566 888.339 34.664 888.358 34.761 888.35C34.858 888.343 34.951 888.31 35.032 888.256L36.804 887.074C36.883 887.022 36.973 886.99 37.067 886.982C37.16 886.973 37.255 886.988 37.341 887.025L40.656 888.446C40.769 888.493 40.863 888.577 40.924 888.683C40.985 888.788 41.011 888.911 40.996 889.033C40.891 889.853 40.491 890.606 39.871 891.152C39.25 891.699 38.452 892 37.626 892C35.073 892 32.624 890.986 30.819 889.181C29.014 887.376 28 884.927 28 882.374C28 881.548 28.301 880.75 28.848 880.129C29.394 879.509 30.147 879.109 30.967 879.004C31.089 878.989 31.212 879.015 31.317 879.076C31.423 879.137 31.507 879.231 31.554 879.344L32.976 882.662C33.013 882.747 33.028 882.841 33.02 882.934C33.012 883.027 32.981 883.117 32.93 883.195L31.752 884.994C31.699 885.075 31.667 885.168 31.66 885.265C31.654 885.362 31.672 885.459 31.714 885.546Z" stroke="#1A2949" stroke-width="1.5" stroke-linecap="round" stroke-linejoin="round"/>
<path d="M35 880C38.0376 880 40.5 882.462 40.5 885.5H39C39 883.291 37.2091 881.5 35 881.5V880Z" fill="#1A2949"/>
<path d="M35 877.5C39.4183 877.5 43 881.082 43 885.5H41.5C41.5 881.91 38.5899 879 35 879V877.5Z" fill="#1A2949"/>
<path d="M35 875C40.799 875 45.5 879.701 45.5 885.5H44C44 880.529 39.9706 876.5 35 876.5V875Z" fill="#1A2949"/>
<g clip-path="url(#clip4_1166_5627)">
<path d="M29.648 620.998L19.762 636.01L9.88599 620.998L19.762 606.005L29.648 620.998Z" fill="#0082CB"/>
<path d="M29.6479 620.998L39.524 636.01L49.41 620.998L39.524 606.005L29.6479 620.998Z" fill="#0082CB"/>
<path d="M19.762 605.995L29.6479 620.998L39.524 605.995L29.6479 591.002L19.762 605.995Z" fill="#0082CB"/>
<path d="M9.88597 620.998L0 636H19.762L9.88597 620.998Z" fill="#0082CB"/>
<path d="M49.41 620.998L39.524 636H59.2861L49.41 620.998Z" fill="#0082CB"/>
<path d="M29.648 620.998L19.762 636.01L9.88599 620.998L19.762 606.005L29.648 620.998Z" fill="#00A0D8"/>
<path d="M29.6479 620.998L39.524 636.01L49.41 620.998L39.524 606.005L29.6479 620.998Z" fill="#00A0D8"/>
<path d="M19.762 605.995L29.6479 620.998L39.524 605.995L29.6479 591.002L19.762 605.995Z" fill="#62B9E3"/>
<path d="M9.88597 620.998L0 636H19.762L9.88597 620.998Z" fill="#0082CB"/>
<path d="M49.41 620.998L39.524 636H59.2861L49.41 620.998Z" fill="#0082CB"/>
<path d="M59.2861 591.002L49.41 576L39.524 591.002H59.2861Z" fill="#62B9E3"/>
<path d="M39.524 591.002L49.41 606.005L59.2861 591.002H39.524Z" fill="#00A0D8"/>
<path d="M93.0292 612.232H88.4779L80.2875 621.821H77.8383V612.232H74.3579V635.693H77.8383V625.251H80.2875L89.2513 635.693H93.8125L83.3812 623.526L93.0292 612.232Z" fill="#231F20"/>
<path d="M151.066 612.232H147.586V635.693H151.066V612.232Z" fill="#231F20"/>
<path d="M167.457 626.124C168.864 625.665 170.089 624.768 170.95 623.564C171.812 622.36 172.266 620.911 172.246 619.431C172.246 615.256 169.043 612.222 164.631 612.222H155.766V635.673H159.236V626.57H163.718L169.152 635.673H173.208L167.457 626.124ZM159.236 615.663H164.591C167.04 615.663 168.756 617.21 168.756 619.421C168.756 621.632 167.04 623.149 164.591 623.149H159.236V615.663Z" fill="#231F20"/>
<path d="M140.149 612.232L131.839 629.813L123.53 612.232H120.803V635.693H124.333V622.029L130.858 635.693H132.821L139.346 622.029V635.693H142.876V612.232H140.149Z" fill="#231F20"/>
<path d="M105.275 611.875C102.892 611.875 100.562 612.582 98.5808 613.906C96.5994 615.23 95.0552 617.113 94.1437 619.315C93.2321 621.517 92.9941 623.939 93.4598 626.277C93.9254 628.614 95.0738 630.761 96.7597 632.445C98.4456 634.13 100.593 635.276 102.931 635.74C105.268 636.204 107.691 635.964 109.892 635.05C112.094 634.137 113.975 632.591 115.297 630.609C116.62 628.626 117.325 626.296 117.323 623.913C117.32 620.719 116.05 617.657 113.791 615.4C111.531 613.143 108.469 611.875 105.275 611.875V611.875ZM105.275 632.698C103.534 632.698 101.831 632.182 100.383 631.214C98.9352 630.247 97.8067 628.871 97.1402 627.262C96.4738 625.654 96.2994 623.883 96.6392 622.175C96.9789 620.467 97.8175 618.898 99.0489 617.667C100.28 616.435 101.849 615.597 103.557 615.257C105.265 614.917 107.036 615.092 108.645 615.758C110.254 616.424 111.629 617.553 112.596 619.001C113.564 620.449 114.08 622.151 114.08 623.893C114.088 625.054 113.866 626.206 113.427 627.281C112.988 628.356 112.341 629.334 111.522 630.158C110.704 630.982 109.731 631.635 108.659 632.082C107.586 632.528 106.436 632.758 105.275 632.758V632.698Z" fill="#231F20"/>
</g>
<g clip-path="url(#clip5_1166_5627)">
<path d="M279.648 620.998L269.762 636.01L259.886 620.998L269.762 606.005L279.648 620.998Z" fill="#0082CB"/>
<path d="M279.648 620.998L289.524 636.01L299.41 620.998L289.524 606.005L279.648 620.998Z" fill="#0082CB"/>
<path d="M269.762 605.995L279.648 620.998L289.524 605.995L279.648 591.002L269.762 605.995Z" fill="#0082CB"/>
<path d="M259.886 620.998L250 636H269.762L259.886 620.998Z" fill="#0082CB"/>
<path d="M299.41 620.998L289.524 636H309.286L299.41 620.998Z" fill="#0082CB"/>
<path d="M279.648 620.998L269.762 636.01L259.886 620.998L269.762 606.005L279.648 620.998Z" fill="#00A0D8"/>
<path d="M279.648 620.998L289.524 636.01L299.41 620.998L289.524 606.005L279.648 620.998Z" fill="#00A0D8"/>
<path d="M269.762 605.995L279.648 620.998L289.524 605.995L279.648 591.002L269.762 605.995Z" fill="#62B9E3"/>
<path d="M259.886 620.998L250 636H269.762L259.886 620.998Z" fill="#0082CB"/>
<path d="M299.41 620.998L289.524 636H309.286L299.41 620.998Z" fill="#0082CB"/>
<path d="M309.286 591.002L299.41 576L289.524 591.002H309.286Z" fill="#62B9E3"/>
<path d="M289.524 591.002L299.41 606.005L309.286 591.002H289.524Z" fill="#00A0D8"/>
<path d="M343.029 612.232H338.478L330.288 621.821H327.838V612.232H324.358V635.693H327.838V625.251H330.288L339.251 635.693H343.813L333.381 623.526L343.029 612.232Z" fill="white"/>
<path d="M401.066 612.232H397.586V635.693H401.066V612.232Z" fill="white"/>
<path d="M417.457 626.124C418.864 625.665 420.089 624.768 420.95 623.564C421.812 622.36 422.266 620.911 422.246 619.431C422.246 615.256 419.043 612.222 414.631 612.222H405.766V635.673H409.236V626.57H413.718L419.152 635.673H423.208L417.457 626.124ZM409.236 615.663H414.591C417.04 615.663 418.756 617.21 418.756 619.421C418.756 621.632 417.04 623.149 414.591 623.149H409.236V615.663Z" fill="white"/>
<path d="M390.149 612.232L381.839 629.813L373.53 612.232H370.803V635.693H374.333V622.029L380.858 635.693H382.821L389.346 622.029V635.693H392.876V612.232H390.149Z" fill="white"/>
<path d="M355.275 611.875C352.892 611.875 350.562 612.582 348.581 613.906C346.599 615.23 345.055 617.113 344.144 619.315C343.232 621.517 342.994 623.939 343.46 626.277C343.925 628.614 345.074 630.761 346.76 632.445C348.446 634.13 350.593 635.276 352.931 635.74C355.268 636.204 357.691 635.964 359.892 635.05C362.094 634.137 363.975 632.591 365.297 630.609C366.62 628.626 367.325 626.296 367.323 623.913C367.32 620.719 366.05 617.657 363.791 615.4C361.531 613.143 358.469 611.875 355.275 611.875V611.875ZM355.275 632.698C353.534 632.698 351.831 632.182 350.383 631.214C348.935 630.247 347.807 628.871 347.14 627.262C346.474 625.654 346.299 623.883 346.639 622.175C346.979 620.467 347.817 618.898 349.049 617.667C350.28 616.435 351.849 615.597 353.557 615.257C355.265 614.917 357.036 615.092 358.645 615.758C360.254 616.424 361.629 617.553 362.596 619.001C363.564 620.449 364.08 622.151 364.08 623.893C364.088 625.054 363.866 626.206 363.427 627.281C362.988 628.356 362.341 629.334 361.522 630.158C360.704 630.982 359.731 631.635 358.659 632.082C357.586 632.528 356.436 632.758 355.275 632.758V632.698Z" fill="white"/>
</g>
<g clip-path="url(#clip6_1166_5627)">
<path d="M21.7419 668.998L14.4922 680.007L7.24976 668.998L14.4922 658.004L21.7419 668.998Z" fill="#0082CB"/>
<path d="M21.7418 668.998L28.9843 680.007L36.234 668.998L28.9843 658.004L21.7418 668.998Z" fill="#0082CB"/>
<path d="M14.4922 657.996L21.7419 668.998L28.9843 657.996L21.7419 647.002L14.4922 657.996Z" fill="#0082CB"/>
<path d="M7.24971 668.998L0 680H14.4922L7.24971 668.998Z" fill="#0082CB"/>
<path d="M36.234 668.998L28.9843 680H43.4764L36.234 668.998Z" fill="#0082CB"/>
<path d="M21.7419 668.998L14.4922 680.007L7.24976 668.998L14.4922 658.004L21.7419 668.998Z" fill="#00A0D8"/>
<path d="M21.7418 668.998L28.9843 680.007L36.234 668.998L28.9843 658.004L21.7418 668.998Z" fill="#00A0D8"/>
<path d="M14.4922 657.996L21.7419 668.998L28.9843 657.996L21.7419 647.002L14.4922 657.996Z" fill="#62B9E3"/>
<path d="M7.24971 668.998L0 680H14.4922L7.24971 668.998Z" fill="#0082CB"/>
<path d="M36.234 668.998L28.9843 680H43.4764L36.234 668.998Z" fill="#0082CB"/>
<path d="M43.4764 647.002L36.234 636L28.9843 647.002H43.4764Z" fill="#62B9E3"/>
<path d="M28.9843 647.002L36.234 658.004L43.4764 647.002H28.9843Z" fill="#00A0D8"/>
<path d="M68.2215 662.57H64.8838L58.8775 669.602H57.0815V662.57H54.5292V679.775H57.0815V672.118H58.8775L65.451 679.775H68.7959L61.1463 670.852L68.2215 662.57Z" fill="#231F20"/>
<path d="M110.782 662.57H108.229V679.775H110.782V662.57Z" fill="#231F20"/>
<path d="M122.802 672.758C123.834 672.421 124.732 671.763 125.364 670.88C125.995 669.997 126.328 668.935 126.314 667.849C126.314 664.788 123.965 662.563 120.729 662.563H114.228V679.76H116.773V673.085H120.06L124.045 679.76H127.019L122.802 672.758ZM116.773 665.086H120.7C122.496 665.086 123.754 666.22 123.754 667.842C123.754 669.464 122.496 670.576 120.7 670.576H116.773V665.086Z" fill="#231F20"/>
<path d="M102.776 662.57L96.6822 675.463L90.5887 662.57H88.589V679.775H91.1776V669.754L95.9623 679.775H97.4021L102.187 669.754V679.775H104.775V662.57H102.776Z" fill="#231F20"/>
<path d="M77.2018 662.308C75.4541 662.308 73.7457 662.827 72.2927 663.798C70.8396 664.769 69.7072 666.149 69.0388 667.764C68.3703 669.379 68.1958 671.156 68.5372 672.87C68.8787 674.584 69.7209 676.158 70.9572 677.393C72.1935 678.628 73.7684 679.469 75.4827 679.809C77.197 680.149 78.9736 679.973 80.5879 679.304C82.2021 678.634 83.5814 677.5 84.5513 676.046C85.5213 674.593 86.0382 672.884 86.0368 671.136C86.0348 668.794 85.1032 666.549 83.4465 664.893C81.7898 663.238 79.5437 662.308 77.2018 662.308V662.308ZM77.2018 677.579C75.9247 677.579 74.6763 677.2 73.6144 676.49C72.5526 675.781 71.725 674.772 71.2362 673.592C70.7475 672.413 70.6197 671.114 70.8688 669.862C71.118 668.609 71.7329 667.459 72.636 666.556C73.539 665.653 74.6895 665.038 75.9421 664.788C77.1947 664.539 78.493 664.667 79.6729 665.156C80.8528 665.645 81.8612 666.472 82.5708 667.534C83.2803 668.596 83.659 669.844 83.659 671.121C83.6647 671.973 83.5019 672.817 83.18 673.606C82.8581 674.394 82.3834 675.111 81.7832 675.716C81.183 676.32 80.4693 676.799 79.683 677.127C78.8967 677.454 78.0535 677.622 77.2018 677.622V677.579Z" fill="#231F20"/>
</g>
<g clip-path="url(#clip7_1166_5627)">
<path d="M204.742 668.998L197.492 680.007L190.25 668.998L197.492 658.004L204.742 668.998Z" fill="#0082CB"/>
<path d="M204.742 668.998L211.984 680.007L219.234 668.998L211.984 658.004L204.742 668.998Z" fill="#0082CB"/>
<path d="M197.492 657.996L204.742 668.998L211.984 657.996L204.742 647.002L197.492 657.996Z" fill="#0082CB"/>
<path d="M190.25 668.998L183 680H197.492L190.25 668.998Z" fill="#0082CB"/>
<path d="M219.234 668.998L211.984 680H226.476L219.234 668.998Z" fill="#0082CB"/>
<path d="M204.742 668.998L197.492 680.007L190.25 668.998L197.492 658.004L204.742 668.998Z" fill="#00A0D8"/>
<path d="M204.742 668.998L211.984 680.007L219.234 668.998L211.984 658.004L204.742 668.998Z" fill="#00A0D8"/>
<path d="M197.492 657.996L204.742 668.998L211.984 657.996L204.742 647.002L197.492 657.996Z" fill="#62B9E3"/>
<path d="M190.25 668.998L183 680H197.492L190.25 668.998Z" fill="#0082CB"/>
<path d="M219.234 668.998L211.984 680H226.476L219.234 668.998Z" fill="#0082CB"/>
<path d="M226.476 647.002L219.234 636L211.984 647.002H226.476Z" fill="#62B9E3"/>
<path d="M211.984 647.002L219.234 658.004L226.476 647.002H211.984Z" fill="#00A0D8"/>
<path d="M251.221 662.57H247.884L241.878 669.602H240.081V662.57H237.529V679.775H240.081V672.118H241.878L248.451 679.775H251.796L244.146 670.852L251.221 662.57Z" fill="white"/>
<path d="M293.782 662.57H291.229V679.775H293.782V662.57Z" fill="white"/>
<path d="M305.802 672.758C306.834 672.421 307.732 671.763 308.364 670.88C308.995 669.997 309.328 668.935 309.314 667.849C309.314 664.788 306.965 662.563 303.729 662.563H297.228V679.76H299.773V673.085H303.06L307.045 679.76H310.019L305.802 672.758ZM299.773 665.086H303.7C305.496 665.086 306.754 666.22 306.754 667.842C306.754 669.464 305.496 670.576 303.7 670.576H299.773V665.086Z" fill="white"/>
<path d="M285.776 662.57L279.682 675.463L273.589 662.57H271.589V679.775H274.178V669.754L278.962 679.775H280.402L285.187 669.754V679.775H287.775V662.57H285.776Z" fill="white"/>
<path d="M260.202 662.308C258.454 662.308 256.746 662.827 255.293 663.798C253.84 664.769 252.707 666.149 252.039 667.764C251.37 669.379 251.196 671.156 251.537 672.87C251.879 674.584 252.721 676.158 253.957 677.393C255.194 678.628 256.768 679.469 258.483 679.809C260.197 680.149 261.974 679.973 263.588 679.304C265.202 678.634 266.581 677.5 267.551 676.046C268.521 674.593 269.038 672.884 269.037 671.136C269.035 668.794 268.103 666.549 266.446 664.893C264.79 663.238 262.544 662.308 260.202 662.308V662.308ZM260.202 677.579C258.925 677.579 257.676 677.2 256.614 676.49C255.553 675.781 254.725 674.772 254.236 673.592C253.748 672.413 253.62 671.114 253.869 669.862C254.118 668.609 254.733 667.459 255.636 666.556C256.539 665.653 257.69 665.038 258.942 664.788C260.195 664.539 261.493 664.667 262.673 665.156C263.853 665.645 264.861 666.472 265.571 667.534C266.28 668.596 266.659 669.844 266.659 671.121C266.665 671.973 266.502 672.817 266.18 673.606C265.858 674.394 265.383 675.111 264.783 675.716C264.183 676.32 263.469 676.799 262.683 677.127C261.897 677.454 261.053 677.622 260.202 677.622V677.579Z" fill="white"/>
</g>
<path d="M0 9.33333H40M0 30.6667H24M0 20H16" stroke="white" stroke-width="2"/>
<path d="M40 9.33333H80M40 30.6667H64M40 20H56" stroke="#333333" stroke-width="2"/>
<path d="M92 14.9683L88.5359 10.4921L95.4641 10.4921L92 14.9683Z" fill="white"/>
<path d="M116 14.9683L112.536 10.4921L119.464 10.4921L116 14.9683Z" fill="#333333"/>
<path fill-rule="evenodd" clip-rule="evenodd" d="M172.745 4.74413C173.07 4.41862 173.598 4.41862 173.923 4.74413L180 10.8215L186.078 4.74413C186.403 4.41862 186.931 4.41862 187.256 4.74413C187.582 5.06953 187.582 5.59722 187.256 5.92262L181.179 12L187.256 18.0774C187.582 18.4028 187.582 18.9305 187.256 19.2559C186.931 19.5814 186.403 19.5814 186.078 19.2559L180 13.1785L173.923 19.2559C173.598 19.5814 173.07 19.5814 172.745 19.2559C172.419 18.9305 172.419 18.4028 172.745 18.0774L178.822 12L172.745 5.92262C172.419 5.59722 172.419 5.06953 172.745 4.74413Z" fill="#111111"/>
<path fill-rule="evenodd" clip-rule="evenodd" d="M196.745 4.74413C197.07 4.41862 197.598 4.41862 197.923 4.74413L204 10.8215L210.078 4.74413C210.403 4.41862 210.931 4.41862 211.256 4.74413C211.582 5.06953 211.582 5.59722 211.256 5.92262L205.179 12L211.256 18.0774C211.582 18.4028 211.582 18.9305 211.256 19.2559C210.931 19.5814 210.403 19.5814 210.078 19.2559L204 13.1785L197.923 19.2559C197.598 19.5814 197.07 19.5814 196.745 19.2559C196.419 18.9305 196.419 18.4028 196.745 18.0774L202.822 12L196.745 5.92262C196.419 5.59722 196.419 5.06953 196.745 4.74413Z" fill="white"/>
<defs>
<clipPath id="clip0_1166_5627">
<rect width="20" height="20" fill="white" transform="translate(2 506)"/>
</clipPath>
<clipPath id="clip1_1166_5627">
<rect width="20" height="20" fill="white" transform="translate(2 530)"/>
</clipPath>
<clipPath id="clip2_1166_5627">
<rect width="13" height="13" fill="white" transform="translate(0 456)"/>
</clipPath>
<clipPath id="clip3_1166_5627">
<rect width="13" height="13" fill="white" transform="translate(13 456)"/>
</clipPath>
<clipPath id="clip4_1166_5627">
<rect width="173.178" height="60" fill="white" transform="translate(0 576)"/>
</clipPath>
<clipPath id="clip5_1166_5627">
<rect width="173.178" height="60" fill="white" transform="translate(250 576)"/>
</clipPath>
<clipPath id="clip6_1166_5627">
<rect width="126.997" height="44" fill="white" transform="translate(0 636)"/>
</clipPath>
<clipPath id="clip7_1166_5627">
<rect width="126.997" height="44" fill="white" transform="translate(183 636)"/>
</clipPath>
</defs>
</svg>
