<?xml version="1.0" encoding="utf-8"?>
<!-- Generator: Adobe Illustrator 24.3.0, SVG Export Plug-In . SVG Version: 6.00 Build 0)  -->
<svg version="1.1" id="Layer_1" xmlns="http://www.w3.org/2000/svg" xmlns:xlink="http://www.w3.org/1999/xlink" x="0px" y="0px"
	 viewBox="0 0 140.8 42" style="enable-background:new 0 0 140.8 42;" xml:space="preserve">
<style type="text/css">
	.st0{fill:#003E88;}
	.st1{fill:url(#SVGID_1_);}
	.st2{fill:url(#SVGID_2_);}
	.st3{fill:url(#SVGID_3_);}
	.st4{fill:url(#SVGID_4_);}
	.st5{fill:#808284;}
	.st6{fill:none;}
	.st7{fill:url(#SVGID_5_);}
	.st8{fill:url(#SVGID_6_);}
	.st9{fill:url(#SVGID_7_);}
	.st10{fill:url(#SVGID_8_);}
	.st11{fill:url(#SVGID_9_);}
	.st12{fill:url(#SVGID_10_);}
	.st13{fill:#FFFFFF;}
	.st14{fill:url(#SVGID_11_);}
	.st15{fill:url(#SVGID_12_);}
	.st16{fill:url(#SVGID_13_);}
	.st17{fill:url(#SVGID_14_);}
	.st18{fill:url(#SVGID_15_);}
	.st19{fill:url(#SVGID_16_);}
</style>
<g>
	<g>
		<g>
			<g>
				<g>
					<linearGradient id="SVGID_1_" gradientUnits="userSpaceOnUse" x1="56.5395" y1="0.258" x2="31.5555" y2="46.4123">
						<stop  offset="0" style="stop-color:#003E88"/>
						<stop  offset="1" style="stop-color:#00B3F0"/>
					</linearGradient>
					<path class="st1" d="M24.3,40.1c-0.8,0.6-1.1,1.3-0.8,1.6c0.3,0.3,1.2,0.1,2-0.5c0.8-0.6,1.1-1.3,0.8-1.6
						C26,39.3,25.1,39.5,24.3,40.1z M28.2,40.1c-0.8,0.6-1.1,1.3-0.8,1.6c0.3,0.3,1.2,0.1,2-0.5c0.8-0.6,1.1-1.3,0.8-1.6
						C29.8,39.3,28.9,39.5,28.2,40.1z M32,40c-0.8,0.6-1.1,1.3-0.8,1.6c0.3,0.3,1.2,0.1,2-0.5c0.8-0.6,1.1-1.3,0.8-1.6
						C33.7,39.2,32.8,39.4,32,40z M35.8,40.2c-0.8,0.6-1.1,1.3-0.8,1.6c0.3,0.3,1.2,0.1,2-0.5c0.8-0.6,1.1-1.3,0.8-1.6
						C37.5,39.4,36.6,39.6,35.8,40.2z M38.2,33.3c-0.6-0.4-2,0-3.1,1c-1.1,1-1.6,2.2-1,2.6c0.6,0.4,2,0,3.1-1
						C38.4,34.9,38.8,33.7,38.2,33.3z M32.7,33.4c-0.6-0.4-2,0.2-3,1.3c-1,1.1-1.3,2.3-0.7,2.7c0.6,0.4,2-0.2,3-1.3
						C33,35,33.3,33.8,32.7,33.4z M42.8,9.8c0,0,3.2-1.6,4.9-4c2.3-3.3,0.9-5.2-0.6-5.6c-1.5-0.4-4.2,0.6-4.9,4
						C41.6,7,42.8,9.8,42.8,9.8z M51.7,9.8c0,0,3.3-1.6,5-4.1c2.3-3.4,1-5.2-0.5-5.6c-1.5-0.4-4.2,0.7-5,4.1
						C50.5,7,51.7,9.8,51.7,9.8z M61,9.9c0,0,3.3-1.6,5.1-4.1c2.4-3.4,1.1-5.2-0.4-5.6c-1.5-0.4-4.2,0.7-5.1,4.1
						C59.9,7.1,61,9.9,61,9.9z M37.8,24.8c-0.9-0.4-2.6,0.5-3.7,2.1c-1.1,1.6-1.3,3.3-0.4,3.7c0.9,0.4,2.6-0.5,3.7-2.1
						C38.5,26.9,38.7,25.2,37.8,24.8z M43.5,33.2c-0.6-0.4-2,0.1-3.1,1.1c-1.1,1-1.5,2.2-0.9,2.6c0.6,0.4,2-0.1,3.1-1.1
						C43.7,34.8,44.1,33.6,43.5,33.2z M42.9,18.4c2-2.4,1.5-4.3,0.2-4.8c-1.2-0.5-3.6,0.3-4.6,2.9c-0.9,2.3-0.2,4.8-0.2,4.8
						S41.3,20.2,42.9,18.4z M50.3,18.4c2.1-2.4,1.6-4.3,0.4-4.8c-1.2-0.5-3.6,0.3-4.7,2.9c-1,2.3-0.4,4.8-0.4,4.8
						S48.6,20.2,50.3,18.4z M58,18.4c2.2-2.3,1.7-4.3,0.5-4.8c-1.2-0.5-3.6,0.3-4.8,2.8c-1.1,2.3-0.5,4.8-0.5,4.8S56.3,20.2,58,18.4
						z M43.9,24.1c-0.9-0.4-2.6,0.6-3.7,2.2c-1.1,1.6-1.3,3.3-0.3,3.7c0.9,0.4,2.6-0.6,3.7-2.2C44.6,26.2,44.8,24.5,43.9,24.1z
						 M50.3,24c-0.9-0.4-2.6,0.6-3.7,2.2c-1.1,1.7-1.3,3.3-0.4,3.7c0.9,0.4,2.6-0.6,3.7-2.2C51,26.1,51.2,24.4,50.3,24z"/>
					<g>
						<linearGradient id="SVGID_2_" gradientUnits="userSpaceOnUse" x1="5.1472" y1="27.5308" x2="30.9742" y2="27.5308">
							<stop  offset="0" style="stop-color:#003E88"/>
							<stop  offset="1" style="stop-color:#00B3F0"/>
						</linearGradient>
						<path class="st2" d="M6.6,13.9c-1.7,0-1.9,1.2-0.5,1.9c8.2,4.7,13.8,13.6,13.8,23.7c0,0.5,0,1.1-0.1,1.6
							c4.9-2.8,8.8-7.1,11.2-12.3C26.5,20,17.2,13.9,6.6,13.9z"/>
					</g>
				</g>
			</g>
		</g>
	</g>
	<g>
		<path class="st0" d="M74.5,12.6l0,0.1c-0.7,3.4-1.7,6.1-3,7.8c-1.3,1.8-2.3,3-2.9,3.6l-0.1,0.1l1.7,1.9l0.1-0.1
			c0.4-0.4,0.8-0.9,1.3-1.4c0.3-0.3,0.5-0.6,0.6-0.9v13.3h2.4v-17c0.3-0.7,0.7-1.7,1.1-2.9c0.4-1.3,0.8-2.5,1.1-3.8l0-0.1L74.5,12.6
			z"/>
		<path class="st0" d="M85.9,27.6h4.6v-2.2h-5.5v-2.6h4.4v-8.9H78.2v6.6h0c0,1.2,1,2.3,2.3,2.3v0h2.2v2.6h-5.5v2.2h4.6
			c-0.4,1.6-2,4.1-5.8,6.2l1.8,1.8c2.6-1.7,4-3.3,5-5.3v6.7h2.3v-6.7c1,2,2.4,3.5,5,5.3l1.8-1.8C87.9,31.7,86.3,29.3,85.9,27.6z
			 M87.2,20.5h-5.9v0c-0.4,0-0.7-0.3-0.7-0.7v-3.7h6.6V20.5z"/>
		<path class="st0" d="M115.7,30.4H95.3v2.1h9v1.7c0,0.4-0.3,0.7-0.7,0.7v0h-1.9l0.6,2.3h2v0c1.2,0,2.3-1,2.3-2.3h0v-2.4h9.1V30.4z"
			/>
		<path class="st0" d="M108.3,22.9L108.3,22.9c1.2,0,2.3-1,2.3-2.3h0v-1.3l-2.3-0.6v1.4c0,0.4-0.3,0.7-0.7,0.7v0h-3.5v0
			c-0.4,0-0.7-0.3-0.7-0.7v-2.1l-2.3-0.5v3h0c0,1.2,1,2.3,2.3,2.3v0H108.3z"/>
		<path class="st0" d="M113.7,27.2v-3.5H97.3v3.5h-2.6v2.1h21.6v-2.1H113.7z M111.5,25.8v1.4H109v-1.4H111.5z M106.8,25.8v1.4h-2.5
			v-1.4H106.8z M99.5,25.8h2.5v1.4h-2.5V25.8z"/>
		<path class="st0" d="M98.8,17.7c-0.3,1.1-1.7,2.9-2.8,3.7l1.6,1.4c1.2-0.9,2.7-2.7,3-4.2L98.8,17.7z"/>
		<g>
			<path class="st0" d="M105.7,17l-1.8,0.9c0.5,0.5,1,1.3,1.6,2.3l2-0.9C106.9,18.3,106.3,17.5,105.7,17z"/>
		</g>
		<g>
			<path class="st0" d="M111.8,17.5l-1.8,1c0.7,0.7,1.6,1.9,2.4,3.6l1.9-1.1C113.7,19.5,112.8,18.2,111.8,17.5z"/>
		</g>
		<path class="st0" d="M106.8,14.6c0-1,0.1-2.1,0.2-2.4l-2.8-0.4c0.1,1.1,0.2,2,0.2,2.8h-9.2v4.8h2.1v-2.8h16.6v2.8h2.1v-4.8H106.8z
			"/>
		<path class="st0" d="M131.3,22.5v-3.6h9.5v-2.2h-9.5v-1.3c0-1.1,0.1-2.8,0.2-3.1l-2.8-0.4c0.2,1.5,0.2,2.4,0.2,3.6v1.3h-9.6v2.2
			h9.6v3.6h-7.4v13.8h2.4V24.7h5v12.5h2.4V24.7h5.3v8.6c0,0.4-0.3,0.7-0.7,0.7v0H134l0.6,2.3h2v0c1.2,0,2.3-1,2.3-2.3h0V22.5H131.3z
			"/>
	</g>
</g>
</svg>
