<svg width="1109" height="494" viewBox="0 0 1109 494" fill="none" xmlns="http://www.w3.org/2000/svg">
<path d="M830 236L956.75 308.746L956.75 163.254L830 236Z" fill="url(#paint0_linear_235:1369)"/>
<path d="M281 236L154.25 308.746L154.25 163.254L281 236Z" fill="url(#paint1_linear_235:1369)"/>
<rect width="1109" height="55" fill="#253559"/>
<rect y="64" width="1109" height="44" fill="#C4CEEC"/>
<rect x="1.5" y="440.5" width="1106" height="52" stroke="#C4CEEC" stroke-width="3"/>
<rect y="342" width="1109" height="83" fill="#E5E9F5"/>
<rect x="3" y="65" width="198" height="42" fill="white" stroke="#C4CEEC" stroke-width="2"/>
<rect x="910" y="65" width="198" height="42" fill="white" stroke="#C4CEEC" stroke-width="2"/>
<path d="M447.256 18.32H444.596V31.54H447.256V18.32ZM434.796 24.16C434.796 22.64 435.876 21.76 437.236 21.76C438.616 21.76 439.656 22.64 439.656 24.16C439.656 25.64 438.616 26.54 437.236 26.54C435.876 26.54 434.796 25.64 434.796 24.16ZM442.236 24.16C442.236 21.44 440.056 19.48 437.236 19.48C434.416 19.48 432.216 21.44 432.216 24.16C432.216 26.84 434.416 28.82 437.236 28.82C440.056 28.82 442.236 26.84 442.236 24.16ZM437.636 34.3V30.24H434.996V36.4H447.716V34.3H437.636ZM462.794 18.28V25.34H461.294V18.58H458.834V30.5C456.114 29.08 455.194 26.02 455.194 22.8V22.3H457.954V20.16H449.614V22.3H452.634V22.8C452.634 26.34 451.754 29.6 449.014 31.2L450.594 33.2C452.314 32.16 453.394 30.44 453.994 28.32C454.634 30.16 455.714 31.64 457.354 32.52L458.834 30.54V35.88H461.294V27.5H462.794V36.7H465.294V18.28H462.794ZM477.613 26.46C474.713 25.56 473.473 23.4 473.473 21.18V19.3H470.793V20.96C470.793 23.46 469.553 25.92 466.473 26.94L467.853 29.02C469.953 28.28 471.373 26.86 472.173 25.06C472.953 26.62 474.293 27.86 476.233 28.5L477.613 26.46ZM475.233 34.68C472.873 34.68 471.613 34.2 471.613 33.16C471.613 32.14 472.873 31.66 475.233 31.66C477.573 31.66 478.833 32.14 478.833 33.16C478.833 34.2 477.573 34.68 475.233 34.68ZM475.233 29.62C471.393 29.62 468.993 30.94 468.993 33.16C468.993 35.4 471.393 36.72 475.233 36.72C479.053 36.72 481.453 35.4 481.453 33.16C481.453 30.94 479.053 29.62 475.233 29.62ZM481.253 22.58V18.32H478.613V29.2H481.253V24.76H483.693V22.58H481.253ZM490.062 27.68C491.122 27.68 491.902 26.86 491.902 25.78C491.902 24.68 491.122 23.86 490.062 23.86C489.022 23.86 488.242 24.68 488.242 25.78C488.242 26.86 489.022 27.68 490.062 27.68ZM490.062 35.28C491.122 35.28 491.902 34.44 491.902 33.36C491.902 32.26 491.122 31.44 490.062 31.44C489.022 31.44 488.242 32.26 488.242 33.36C488.242 34.44 489.022 35.28 490.062 35.28ZM506.357 32.48V28.64H511.617V26.52H501.317V21.68H511.477V19.56H498.657V28.64H503.717V32.48H496.717V34.64H513.397V32.48H506.357ZM523.996 23.06V25.2H526.876V31.74H529.516V18.3H526.876V23.06H523.996ZM525.216 27.3C522.316 26.32 521.056 24.06 521.056 21.88V21.64H524.636V19.54H514.736V21.64H518.356V21.9C518.356 24.22 517.036 26.64 514.016 27.62L515.356 29.72C517.496 29 518.936 27.54 519.756 25.72C520.556 27.38 521.916 28.7 523.936 29.36L525.216 27.3ZM520.016 34.3V30.62H517.376V36.4H529.936V34.3H520.016ZM536.834 30.8C535.594 30.8 534.674 29.96 534.674 28.56C534.674 27.16 535.594 26.3 536.834 26.3C538.074 26.3 538.974 27.16 538.974 28.54C538.974 29.96 538.074 30.8 536.834 30.8ZM536.834 24.16C534.154 24.16 532.154 25.98 532.154 28.54C532.154 31.14 534.154 32.96 536.834 32.96C539.494 32.96 541.474 31.14 541.474 28.54C541.474 25.98 539.494 24.16 536.834 24.16ZM538.134 18.62H535.494V21.02H531.414V23.12H542.134V21.02H538.134V18.62ZM548.614 25.5H545.974V18.3H543.334V36.72H545.974V27.68H548.614V25.5ZM563.753 23.28H553.613V18.96H550.973V25.38H563.753V23.28ZM553.453 30.84H550.793V36.32H563.853V34.22H553.453V30.84ZM548.913 27.26V29.38H565.593V27.26H548.913ZM579.742 23.22V25.34H582.602V29.42H585.242V18.3H582.602V23.22H579.742ZM580.902 26.82C577.962 26.04 576.642 24.18 576.602 22.28H580.242V20.2H576.602V18.24H573.962V20.2H570.362V22.28H573.962C573.922 24.34 572.642 26.42 569.722 27.26L570.962 29.3C573.102 28.68 574.542 27.38 575.362 25.7C576.202 27.16 577.642 28.3 579.702 28.84L580.902 26.82ZM579.022 34.7C576.582 34.7 575.342 34.24 575.342 33.24C575.342 32.24 576.582 31.76 579.022 31.76C581.422 31.76 582.682 32.24 582.682 33.24C582.682 34.24 581.422 34.7 579.022 34.7ZM579.022 29.74C575.102 29.74 572.702 31.02 572.702 33.24C572.702 35.44 575.102 36.72 579.022 36.72C582.922 36.72 585.322 35.44 585.322 33.24C585.322 31.02 582.922 29.74 579.022 29.74ZM600.001 31.84H602.641V18.3H600.001V20.34H595.541V22.42H600.001V23.78H595.541V25.86H600.001V31.84ZM597.381 26.74C595.121 27.14 593.081 27.28 590.861 27.32V19.46H588.241V29.48H589.721C592.481 29.48 594.921 29.38 597.641 28.88L597.381 26.74ZM593.141 34.3V30.64H590.501V36.4H603.061V34.3H593.141ZM613.111 30.34C611.731 30.34 610.811 28.88 610.811 26.14C610.811 23.42 611.731 21.96 613.111 21.96C614.471 21.96 615.411 23.42 615.411 26.14C615.411 28.88 614.471 30.34 613.111 30.34ZM613.111 19.58C610.311 19.58 608.271 22.1 608.271 26.14C608.271 30.2 610.311 32.74 613.111 32.74C615.891 32.74 617.951 30.2 617.951 26.14C617.951 22.1 615.891 19.58 613.111 19.58ZM625.271 25.24H622.591V18.3H619.951V36.72H622.591V27.42H625.271V25.24ZM641.349 18.3H638.849V31.96H641.349V18.3ZM633.689 23.38V25.48H635.369V31.56H637.829V18.64H635.369V23.38H633.689ZM629.229 22.02H630.589V27.1C630.149 27.12 629.669 27.12 629.229 27.14V22.02ZM634.429 26.8C633.949 26.86 633.469 26.92 632.949 26.96V22.02H634.149V19.92H625.729V22.02H626.869V27.18H625.429L625.689 29.32C628.049 29.32 631.749 29.26 634.569 28.74L634.429 26.8ZM631.709 34.3V30.46H629.069V36.4H641.789V34.3H631.709ZM658.667 18.32H656.167V27.88H658.667V18.32ZM650.667 22.22V24.32H652.547V27.74H655.007V18.66H652.547V22.22H650.667ZM652.007 25.78C649.727 24.98 648.767 23.26 648.767 21.48V21.44H651.447V19.36H643.307V21.44H646.207V21.48C646.207 23.3 645.187 25.2 642.767 26.06L644.027 28.04C645.727 27.42 646.847 26.3 647.507 24.92C648.147 26.2 649.207 27.22 650.807 27.76L652.007 25.78ZM648.787 34.5V33.42H658.667V28.54H646.147V30.56H656.067V31.56H646.187V36.5H659.247V34.5H648.787ZM663.606 26.76H669.266V19.86H660.966V21.96H666.646V24.7H661.006V32.5H662.526C665.586 32.5 668.026 32.4 670.766 31.96L670.526 29.82C668.206 30.2 666.106 30.32 663.606 30.34V26.76ZM673.126 18.28V24.92H670.246V27.06H673.126V36.76H675.786V18.28H673.126Z" fill="white"/>
<path d="M463.842 78.822H461.581V90.059H463.842V78.822ZM453.251 83.786C453.251 82.494 454.169 81.746 455.325 81.746C456.498 81.746 457.382 82.494 457.382 83.786C457.382 85.044 456.498 85.809 455.325 85.809C454.169 85.809 453.251 85.044 453.251 83.786ZM459.575 83.786C459.575 81.474 457.722 79.808 455.325 79.808C452.928 79.808 451.058 81.474 451.058 83.786C451.058 86.064 452.928 87.747 455.325 87.747C457.722 87.747 459.575 86.064 459.575 83.786ZM455.665 92.405V88.954H453.421V94.19H464.233V92.405H455.665ZM477.05 78.788V84.789H475.775V79.043H473.684V89.175C471.372 87.968 470.59 85.367 470.59 82.63V82.205H472.936V80.386H465.847V82.205H468.414V82.63C468.414 85.639 467.666 88.41 465.337 89.77L466.68 91.47C468.142 90.586 469.06 89.124 469.57 87.322C470.114 88.886 471.032 90.144 472.426 90.892L473.684 89.209V93.748H475.775V86.625H477.05V94.445H479.175V78.788H477.05ZM489.646 85.741C487.181 84.976 486.127 83.14 486.127 81.253V79.655H483.849V81.066C483.849 83.191 482.795 85.282 480.177 86.149L481.35 87.917C483.135 87.288 484.342 86.081 485.022 84.551C485.685 85.877 486.824 86.931 488.473 87.475L489.646 85.741ZM487.623 92.728C485.617 92.728 484.546 92.32 484.546 91.436C484.546 90.569 485.617 90.161 487.623 90.161C489.612 90.161 490.683 90.569 490.683 91.436C490.683 92.32 489.612 92.728 487.623 92.728ZM487.623 88.427C484.359 88.427 482.319 89.549 482.319 91.436C482.319 93.34 484.359 94.462 487.623 94.462C490.87 94.462 492.91 93.34 492.91 91.436C492.91 89.549 490.87 88.427 487.623 88.427ZM492.74 82.443V78.822H490.496V88.07H492.74V84.296H494.814V82.443H492.74ZM500.228 86.778C501.129 86.778 501.792 86.081 501.792 85.163C501.792 84.228 501.129 83.531 500.228 83.531C499.344 83.531 498.681 84.228 498.681 85.163C498.681 86.081 499.344 86.778 500.228 86.778ZM500.228 93.238C501.129 93.238 501.792 92.524 501.792 91.606C501.792 90.671 501.129 89.974 500.228 89.974C499.344 89.974 498.681 90.671 498.681 91.606C498.681 92.524 499.344 93.238 500.228 93.238ZM514.079 90.858V87.594H518.55V85.792H509.795V81.678H518.431V79.876H507.534V87.594H511.835V90.858H505.885V92.694H520.063V90.858H514.079ZM529.071 82.851V84.67H531.519V90.229H533.763V78.805H531.519V82.851H529.071ZM530.108 86.455C527.643 85.622 526.572 83.701 526.572 81.848V81.644H529.615V79.859H521.2V81.644H524.277V81.865C524.277 83.837 523.155 85.894 520.588 86.727L521.727 88.512C523.546 87.9 524.77 86.659 525.467 85.112C526.147 86.523 527.303 87.645 529.02 88.206L530.108 86.455ZM525.688 92.405V89.277H523.444V94.19H534.12V92.405H525.688ZM539.984 89.43C538.93 89.43 538.148 88.716 538.148 87.526C538.148 86.336 538.93 85.605 539.984 85.605C541.038 85.605 541.803 86.336 541.803 87.509C541.803 88.716 541.038 89.43 539.984 89.43ZM539.984 83.786C537.706 83.786 536.006 85.333 536.006 87.509C536.006 89.719 537.706 91.266 539.984 91.266C542.245 91.266 543.928 89.719 543.928 87.509C543.928 85.333 542.245 83.786 539.984 83.786ZM541.089 79.077H538.845V81.117H535.377V82.902H544.489V81.117H541.089V79.077ZM549.997 84.925H547.753V78.805H545.509V94.462H547.753V86.778H549.997V84.925ZM562.865 83.038H554.246V79.366H552.002V84.823H562.865V83.038ZM554.11 89.464H551.849V94.122H562.95V92.337H554.11V89.464ZM550.251 86.421V88.223H564.429V86.421H550.251ZM576.456 82.987V84.789H578.887V88.257H581.131V78.805H578.887V82.987H576.456ZM577.442 86.047C574.943 85.384 573.821 83.803 573.787 82.188H576.881V80.42H573.787V78.754H571.543V80.42H568.483V82.188H571.543C571.509 83.939 570.421 85.707 567.939 86.421L568.993 88.155C570.812 87.628 572.036 86.523 572.733 85.095C573.447 86.336 574.671 87.305 576.422 87.764L577.442 86.047ZM575.844 92.745C573.77 92.745 572.716 92.354 572.716 91.504C572.716 90.654 573.77 90.246 575.844 90.246C577.884 90.246 578.955 90.654 578.955 91.504C578.955 92.354 577.884 92.745 575.844 92.745ZM575.844 88.529C572.512 88.529 570.472 89.617 570.472 91.504C570.472 93.374 572.512 94.462 575.844 94.462C579.159 94.462 581.199 93.374 581.199 91.504C581.199 89.617 579.159 88.529 575.844 88.529ZM593.676 90.314H595.92V78.805H593.676V80.539H589.885V82.307H593.676V83.463H589.885V85.231H593.676V90.314ZM591.449 85.979C589.528 86.319 587.794 86.438 585.907 86.472V79.791H583.68V88.308H584.938C587.284 88.308 589.358 88.223 591.67 87.798L591.449 85.979ZM587.845 92.405V89.294H585.601V94.19H596.277V92.405H587.845ZM604.819 89.039C603.646 89.039 602.864 87.798 602.864 85.469C602.864 83.157 603.646 81.916 604.819 81.916C605.975 81.916 606.774 83.157 606.774 85.469C606.774 87.798 605.975 89.039 604.819 89.039ZM604.819 79.893C602.439 79.893 600.705 82.035 600.705 85.469C600.705 88.92 602.439 91.079 604.819 91.079C607.182 91.079 608.933 88.92 608.933 85.469C608.933 82.035 607.182 79.893 604.819 79.893ZM615.155 84.704H612.877V78.805H610.633V94.462H612.877V86.557H615.155V84.704ZM628.822 78.805H626.697V90.416H628.822V78.805ZM622.311 83.123V84.908H623.739V90.076H625.83V79.094H623.739V83.123H622.311ZM618.52 81.967H619.676V86.285C619.302 86.302 618.894 86.302 618.52 86.319V81.967ZM622.94 86.03C622.532 86.081 622.124 86.132 621.682 86.166V81.967H622.702V80.182H615.545V81.967H616.514V86.353H615.29L615.511 88.172C617.517 88.172 620.662 88.121 623.059 87.679L622.94 86.03ZM620.628 92.405V89.141H618.384V94.19H629.196V92.405H620.628ZM643.542 78.822H641.417V86.948H643.542V78.822ZM636.742 82.137V83.922H638.34V86.829H640.431V79.111H638.34V82.137H636.742ZM637.881 85.163C635.943 84.483 635.127 83.021 635.127 81.508V81.474H637.405V79.706H630.486V81.474H632.951V81.508C632.951 83.055 632.084 84.67 630.027 85.401L631.098 87.084C632.543 86.557 633.495 85.605 634.056 84.432C634.6 85.52 635.501 86.387 636.861 86.846L637.881 85.163ZM635.144 92.575V91.657H643.542V87.509H632.9V89.226H641.332V90.076H632.934V94.275H644.035V92.575H635.144ZM647.74 85.996H652.551V80.131H645.496V81.916H650.324V84.245H645.53V90.875H646.822C649.423 90.875 651.497 90.79 653.826 90.416L653.622 88.597C651.65 88.92 649.865 89.022 647.74 89.039V85.996ZM655.832 78.788V84.432H653.384V86.251H655.832V94.496H658.093V78.788H655.832Z" fill="#222222"/>
<path d="M462.478 142.18C463.098 138.46 463.098 135.92 463.098 133.66V131.88H449.558V133.98H460.458C460.458 136.1 460.438 138.58 459.838 141.92L462.478 142.18ZM458.578 144.38V138.56H455.998V144.38H454.038V138.56H451.438V144.38H447.938V146.5H464.618V144.38H458.578ZM475.097 140.68C475.597 137.64 475.597 135.4 475.597 133.62V132.12H466.117V134.22H472.997C472.997 135.86 472.937 137.84 472.517 140.46L475.097 140.68ZM471.077 137.4H468.477V142.84C467.317 142.86 466.197 142.86 465.177 142.86L465.417 145.02C468.617 145 472.737 144.92 476.477 144.28L476.337 142.38C474.657 142.58 472.857 142.7 471.077 142.76V137.4ZM482.297 137.7H479.817V130.28H477.177V148.7H479.817V139.9H482.297V137.7ZM485.475 136.16C485.475 134.64 486.475 133.7 487.815 133.7C489.175 133.7 490.175 134.64 490.175 136.16C490.175 137.7 489.175 138.64 487.815 138.64C486.475 138.64 485.475 137.7 485.475 136.16ZM495.495 134.96V137.34H492.535C492.635 136.98 492.675 136.56 492.675 136.16C492.675 135.74 492.615 135.34 492.535 134.96H495.495ZM495.495 139.44V143.78H498.135V130.3H495.495V132.86H491.395C490.495 131.94 489.255 131.4 487.815 131.4C485.095 131.4 482.975 133.42 482.975 136.16C482.975 138.92 485.095 140.94 487.815 140.94C489.255 140.94 490.535 140.38 491.435 139.44H495.495ZM488.635 146.3V142.46H485.995V148.4H498.555V146.3H488.635ZM509.693 135.16H507.913C508.013 134.3 508.073 133.42 508.073 132.48H500.913V134.58H505.453C505.113 138.18 503.513 140.84 499.873 143.06L501.373 144.9C504.813 142.86 506.653 140.3 507.473 137.26H509.693V139.76H507.133V141.88H509.693V147.92H512.153V130.7H509.693V135.16ZM513.473 130.28V148.72H515.973V130.28H513.473ZM524.263 132.04H521.623V144.2H523.223C525.903 144.2 528.863 144.04 531.923 143.4L531.663 141.24C529.083 141.74 526.583 141.94 524.263 142V132.04ZM538.063 137.24H535.483V130.28H532.843V148.68H535.483V139.42H538.063V137.24ZM549.462 138.26C546.562 137.36 545.322 135.24 545.322 133.04V131.14H542.662V132.88C542.662 135.28 541.382 137.6 538.322 138.56L539.702 140.62C541.782 139.94 543.202 138.58 544.002 136.82C544.802 138.42 546.162 139.66 548.122 140.3L549.462 138.26ZM544.202 143.68H551.282V146.44H544.202V143.68ZM541.602 148.5H553.862V141.62H541.602V148.5ZM551.222 130.3V133.5H547.862V135.64H551.222V140.82H553.862V130.3H551.222ZM571.16 130.32H568.5V143.54H571.16V130.32ZM558.7 136.16C558.7 134.64 559.78 133.76 561.14 133.76C562.52 133.76 563.56 134.64 563.56 136.16C563.56 137.64 562.52 138.54 561.14 138.54C559.78 138.54 558.7 137.64 558.7 136.16ZM566.14 136.16C566.14 133.44 563.96 131.48 561.14 131.48C558.32 131.48 556.12 133.44 556.12 136.16C556.12 138.84 558.32 140.82 561.14 140.82C563.96 140.82 566.14 138.84 566.14 136.16ZM561.54 146.3V142.24H558.9V148.4H571.62V146.3H561.54ZM586.018 141.1H588.658V130.3H586.018V133.66H582.658V135.8H586.018V141.1ZM584.338 138.44C581.418 137.5 580.218 135.26 580.218 132.78V131.26H577.538V132.9C577.538 135.44 576.238 137.94 573.098 138.94L574.478 141.06C576.658 140.32 578.118 138.84 578.938 136.96C579.718 138.6 581.018 139.86 582.958 140.52L584.338 138.44ZM582.438 146.7C580.018 146.7 578.758 146.2 578.758 145.16C578.758 144.1 580.018 143.6 582.438 143.6C584.838 143.6 586.098 144.1 586.098 145.16C586.098 146.2 584.838 146.7 582.438 146.7ZM582.438 141.56C578.518 141.56 576.118 142.88 576.118 145.16C576.118 147.4 578.518 148.72 582.438 148.72C586.338 148.72 588.738 147.4 588.738 145.16C588.738 142.88 586.338 141.56 582.438 141.56ZM609.488 130.32H606.828V143.54H609.488V130.32ZM597.028 136.16C597.028 134.64 598.108 133.76 599.468 133.76C600.848 133.76 601.888 134.64 601.888 136.16C601.888 137.64 600.848 138.54 599.468 138.54C598.108 138.54 597.028 137.64 597.028 136.16ZM604.468 136.16C604.468 133.44 602.288 131.48 599.468 131.48C596.648 131.48 594.448 133.44 594.448 136.16C594.448 138.84 596.648 140.82 599.468 140.82C602.288 140.82 604.468 138.84 604.468 136.16ZM599.868 146.3V142.24H597.228V148.4H609.948V146.3H599.868ZM613.187 138.1C616.667 137.78 618.927 136.5 619.907 134.74C620.867 136.5 623.147 137.78 626.607 138.1L627.527 136.04C624.027 135.74 622.227 134.52 621.807 133.26H626.727V131.16H613.107V133.26H618.007C617.587 134.52 615.787 135.74 612.307 136.04L613.187 138.1ZM619.867 146.7C617.407 146.7 616.147 146.26 616.147 145.3C616.147 144.34 617.407 143.92 619.867 143.92C622.327 143.92 623.587 144.34 623.587 145.3C623.587 146.26 622.327 146.7 619.867 146.7ZM619.867 141.88C615.887 141.88 613.487 143.14 613.487 145.3C613.487 147.48 615.887 148.72 619.867 148.72C623.847 148.72 626.267 147.48 626.267 145.3C626.267 143.14 623.847 141.88 619.867 141.88ZM611.587 138.8V140.88H628.227V138.8H611.587ZM634.825 134.28H637.505V132.14H629.305V134.28H632.265V135.18C632.265 138.34 631.305 141.64 628.625 143.34L630.185 145.28C631.845 144.24 632.925 142.44 633.565 140.34C634.165 142.28 635.225 143.86 636.845 144.84L638.385 142.92C635.725 141.36 634.825 138.26 634.825 135.18V134.28ZM638.565 136.58H636.225V138.72H638.565V147.88H641.025V130.6H638.565V136.58ZM642.285 130.28V148.7H644.785V130.28H642.285ZM656.023 144.48V140.64H661.283V138.52H650.983V133.68H661.143V131.56H648.323V140.64H653.383V144.48H646.383V146.64H663.063V144.48H656.023Z" fill="#222222"/>
<path d="M477.288 376.48V374.04L473.088 372.6L470.028 371.5V371.42L473.088 370.34L477.288 368.9V366.46L467.028 370.42V372.52L477.288 376.48ZM483.285 379.28C486.705 379.28 488.725 377.22 488.725 374.8C488.725 372.66 487.545 371.52 485.745 370.78L483.805 369.96C482.545 369.46 481.505 369.08 481.505 368.02C481.505 367.04 482.325 366.46 483.625 366.46C484.845 366.46 485.825 366.9 486.765 367.68L488.265 365.82C487.065 364.6 485.345 363.92 483.625 363.92C480.625 363.92 478.505 365.78 478.505 368.2C478.505 370.36 480.005 371.56 481.505 372.18L483.485 373.02C484.805 373.58 485.705 373.92 485.705 375.02C485.705 376.06 484.885 376.72 483.345 376.72C482.045 376.72 480.645 376.06 479.585 375.08L477.885 377.12C479.325 378.5 481.305 379.28 483.285 379.28ZM496.225 379.28C500.145 379.28 502.845 376.34 502.845 371.54C502.845 366.74 500.145 363.92 496.225 363.92C492.305 363.92 489.605 366.72 489.605 371.54C489.605 376.34 492.305 379.28 496.225 379.28ZM496.225 376.72C494.025 376.72 492.625 374.7 492.625 371.54C492.625 368.36 494.025 366.46 496.225 366.46C498.425 366.46 499.825 368.36 499.825 371.54C499.825 374.7 498.425 376.72 496.225 376.72ZM504.736 379H513.716V376.52H507.696V364.18H504.736V379ZM518.421 371.28C518.861 369.74 519.301 368.06 519.681 366.44H519.781C520.201 368.04 520.601 369.74 521.061 371.28L521.501 372.9H517.981L518.421 371.28ZM513.301 379H516.301L517.341 375.2H522.141L523.181 379H526.281L521.521 364.18H518.041L513.301 379ZM527.013 379H529.973V373.4H532.033L535.073 379H538.373L534.913 372.94C536.613 372.28 537.733 370.9 537.733 368.68C537.733 365.28 535.273 364.18 532.173 364.18H527.013V379ZM529.973 371.06V366.54H531.893C533.793 366.54 534.853 367.08 534.853 368.68C534.853 370.26 533.793 371.06 531.893 371.06H529.973ZM553.077 370.46C550.177 369.56 548.937 367.4 548.937 365.18V363.3H546.257V364.96C546.257 367.46 545.017 369.92 541.937 370.94L543.317 373.02C545.417 372.28 546.837 370.86 547.637 369.06C548.417 370.62 549.757 371.86 551.697 372.5L553.077 370.46ZM550.697 378.68C548.337 378.68 547.077 378.2 547.077 377.16C547.077 376.14 548.337 375.66 550.697 375.66C553.037 375.66 554.297 376.14 554.297 377.16C554.297 378.2 553.037 378.68 550.697 378.68ZM550.697 373.62C546.857 373.62 544.457 374.94 544.457 377.16C544.457 379.4 546.857 380.72 550.697 380.72C554.517 380.72 556.917 379.4 556.917 377.16C556.917 374.94 554.517 373.62 550.697 373.62ZM556.717 366.58V362.32H554.077V373.2H556.717V368.76H559.157V366.58H556.717ZM570.036 369.32C568.036 369.74 566.216 369.86 562.936 369.88V365.54H568.516V363.42H560.316V372H561.856C565.936 372 568.036 371.9 570.296 371.4L570.036 369.32ZM564.736 375.5H571.536V378.44H564.736V375.5ZM562.136 380.5H574.116V373.42H562.136V380.5ZM576.556 366.44H574.116V362.28H571.476V372.62H574.116V368.58H576.556V366.44ZM588.76 363.72H586.12V366.4C586.12 369.98 584.6 373.54 581.38 374.92L582.96 377.1C585.16 376.06 586.66 374.08 587.48 371.62C588.3 373.88 589.72 375.7 591.84 376.66L593.34 374.52C590.22 373.18 588.76 369.82 588.76 366.4V363.72ZM594.24 362.28V380.76H596.88V362.28H594.24ZM615.118 370.96C610.958 370.26 608.678 367.4 608.678 364.7V363.38H605.858V364.7C605.858 367.34 603.558 370.26 599.418 370.96L600.538 373.18C603.738 372.56 606.078 370.76 607.258 368.42C608.438 370.76 610.798 372.54 613.998 373.18L615.118 370.96ZM599.018 376.34V378.48H615.698V376.34H599.018ZM625.997 373.16H628.457V362.58H625.997V366.72H624.197V368.84H625.997V373.16ZM624.717 370.1C623.057 370.4 621.617 370.5 619.677 370.52V368.94H623.417V366.94H619.677V365.48H624.057V363.4H617.137V372.6H618.397C621.117 372.6 622.857 372.56 624.937 372.18L624.717 370.1ZM622.237 376.08H629.537V378.44H622.237V376.08ZM619.637 380.5H632.117V374.02H619.637V380.5ZM629.617 362.32V373.3H632.117V362.32H629.617ZM633.715 376.48L643.975 372.52V370.42L633.715 366.46V368.9L637.935 370.34L640.995 371.42V371.5L637.935 372.6L633.715 374.04V376.48ZM492.824 390.14H489.644V388.46H487.044V390.14H483.864V392.18H492.824V390.14ZM486.744 396.08C486.744 395.18 487.404 394.7 488.384 394.7C489.344 394.7 490.004 395.18 490.004 396.08C490.004 396.98 489.344 397.46 488.384 397.46C487.404 397.46 486.744 396.98 486.744 396.08ZM492.344 396.08C492.344 394.14 490.704 392.78 488.384 392.78C486.044 392.78 484.404 394.14 484.404 396.08C484.404 398.02 486.044 399.38 488.384 399.38C490.704 399.38 492.344 398.02 492.344 396.08ZM486.984 402.78H497.024V406.74H499.664V400.68H486.984V402.78ZM497.164 388.28V393.18H495.804V388.6H493.344V399.74H495.804V395.3H497.164V399.82H499.664V388.28H497.164ZM512.642 396C509.662 395.14 508.362 392.98 508.362 390.76V388.98H505.682V390.76C505.682 393.02 504.362 395.36 501.282 396.32L502.562 398.4C504.722 397.72 506.222 396.32 507.062 394.56C507.882 396.18 509.302 397.44 511.382 398.06L512.642 396ZM507.002 401.62H514.082V404.44H507.002V401.62ZM504.402 406.5H516.662V399.56H504.402V406.5ZM514.002 388.3V398.7H516.662V388.3H514.002ZM521.62 402.12H531.52V406.74H534.16V400.04H521.62V402.12ZM528.6 394.78C528.66 394.46 528.7 394.14 528.7 393.82C528.7 393.48 528.66 393.18 528.6 392.88H531.52V394.78H528.6ZM523.84 396.14C522.5 396.14 521.5 395.28 521.5 393.82C521.5 392.38 522.5 391.52 523.84 391.52C525.2 391.52 526.2 392.38 526.2 393.82C526.2 395.28 525.2 396.14 523.84 396.14ZM531.52 388.3V390.78H527.54C526.66 389.84 525.34 389.26 523.84 389.26C521.12 389.26 519 391.18 519 393.82C519 396.48 521.12 398.4 523.84 398.4C525.32 398.4 526.64 397.82 527.52 396.88H531.52V399.2H534.16V388.3H531.52ZM536.819 392.96V398.64H538.399C542.079 398.64 544.419 398.56 546.979 398.08L546.759 395.96C544.459 396.38 542.439 396.5 539.439 396.52V394.92H545.199V389.38H536.799V391.5H542.599V392.96H536.819ZM544.599 404.72C542.199 404.72 540.959 404.26 540.959 403.24C540.959 402.22 542.199 401.76 544.599 401.76C546.999 401.76 548.239 402.22 548.239 403.24C548.239 404.26 546.999 404.72 544.599 404.72ZM544.599 399.74C540.759 399.74 538.359 401.02 538.359 403.24C538.359 405.44 540.759 406.74 544.599 406.74C548.439 406.74 550.839 405.44 550.839 403.24C550.839 401.02 548.439 399.74 544.599 399.74ZM553.099 392.92V390.78H550.659V388.3H548.019V399.4H550.659V396.8H553.099V394.66H550.659V392.92H553.099ZM564.923 392.24H568.583V390.06H558.463V392.24H562.283V393.26C562.283 396.3 560.783 399.76 557.763 401.16L559.243 403.26C561.343 402.26 562.823 400.24 563.643 397.84C564.463 400.02 565.903 401.86 567.943 402.8L569.403 400.72C566.383 399.32 564.923 396.06 564.923 393.26V392.24ZM575.263 395.32H572.583V388.3H569.943V406.72H572.583V397.5H575.263V395.32ZM576.401 390.18V392.32H582.421C581.941 396.4 579.661 399.32 575.381 401.52L576.861 403.54C582.981 400.44 585.081 395.7 585.081 390.18H576.401ZM592.561 395.32H589.981V388.28H587.341V406.68H589.981V397.5H592.561V395.32ZM604.88 394.4H597.7V392.74H604.88V394.4ZM607.5 388.88H604.88V390.76H597.7V388.88H595.08V396.46H607.5V388.88ZM597.52 401.34H594.88V406.4H607.8V404.3H597.52V401.34ZM592.94 397.74V399.82H600.2V402.72H602.84V399.82H609.64V397.74H592.94ZM621.358 396.64C618.458 395.68 617.238 393.44 617.238 391.14V389.24H614.558V390.98C614.558 393.48 613.298 395.92 610.238 396.92L611.618 399C613.698 398.28 615.118 396.86 615.918 395.08C616.698 396.7 618.018 398 619.978 398.68L621.358 396.64ZM613.198 402.18H623.118V406.74H625.758V400.1H613.198V402.18ZM623.118 388.3V391.74H619.758V393.88H623.118V399.26H625.758V388.3H623.118Z" fill="#222222"/>
<path d="M138.399 462.98H142.219V461.28H132.399V462.98H136.339V464.72C136.339 467.72 134.499 471.14 131.739 472.46L132.919 474.1C134.999 473.08 136.599 470.92 137.399 468.4C138.219 470.68 139.759 472.68 141.779 473.64L142.919 472.02C140.179 470.72 138.399 467.52 138.399 464.72V462.98ZM148.879 466.6H146.059V459.48H143.999V477.54H146.059V468.3H148.879V466.6ZM150.357 461.38V463.06H156.677C156.257 467.22 153.877 470.4 149.457 472.66L150.597 474.24C156.497 471.26 158.737 466.62 158.737 461.38H150.357ZM166.197 466.6H163.457V459.46H161.397V477.52H163.457V468.32H166.197V466.6ZM181.755 459.5H179.695V472.64H181.755V459.5ZM178.015 468.6C175.235 467.7 173.595 465.5 173.595 463.2V462.54H177.455V460.88H167.575V462.54H171.495V463.2C171.495 465.64 169.875 467.98 167.015 468.94L168.095 470.54C170.255 469.82 171.775 468.28 172.575 466.36C173.375 468.14 174.895 469.54 176.975 470.22L178.015 468.6ZM172.035 475.52V471.44H169.955V477.2H182.275V475.52H172.035ZM194.614 467.18C192.434 467.64 190.494 467.74 187.074 467.76V462.64H193.054V460.96H185.014V469.46H186.474C190.354 469.46 192.474 469.34 194.814 468.84L194.614 467.18ZM189.014 471.22H186.934V477.2H199.094V475.52H189.014V471.22ZM198.374 464.64V459.46H196.314V472.54H198.374V466.34H200.934V464.64H198.374ZM206.245 460.56V462.24H212.225C211.865 465.02 209.425 467.2 205.285 468.32L206.125 469.96C211.345 468.48 214.445 465.24 214.445 460.56H206.245ZM210.385 472.08H218.105V475.66H210.385V472.08ZM208.365 477.32H220.125V470.44H208.365V477.32ZM218.065 459.46V463.96H214.485V465.66H218.065V469.7H220.125V459.46H218.065ZM228.883 460.98H226.823V463.94C226.823 467.28 225.063 470.7 222.243 472.08L223.503 473.74C225.563 472.68 227.083 470.58 227.863 468.08C228.643 470.44 230.083 472.4 232.023 473.4L233.283 471.76C230.563 470.42 228.883 467.16 228.883 463.94V460.98ZM239.363 466.64H236.543V459.48H234.483V477.54H236.543V468.34H239.363V466.64Z" fill="#222222"/>
<path d="M500.839 460.78V462.44H505.799C505.459 465.22 503.599 467.36 500.039 468.76L501.019 470.24C505.659 468.38 507.919 465.22 507.919 460.78H500.839ZM503.079 472.56H513.299V477.56H515.359V470.9H503.079V472.56ZM513.399 459.48V463.86H511.399V459.82H509.459V470H511.399V465.54H513.399V470.08H515.359V459.48H513.399ZM527.017 467.22C527.457 464.88 527.457 463.1 527.457 461.88V460.84H518.377V462.52H525.437C525.417 463.64 525.357 465.06 524.997 467L527.017 467.22ZM528.517 468.12C526.737 468.4 524.797 468.52 522.917 468.6V464.96H520.877V468.66C519.597 468.7 518.357 468.7 517.277 468.7L517.497 470.38C520.637 470.38 524.897 470.28 528.657 469.62L528.517 468.12ZM522.077 471.84H519.997V477.2H532.277V475.52H522.077V471.84ZM531.697 465.2V459.48H529.617V473.04H531.697V466.9H534.097V465.2H531.697ZM549.755 459.5H547.695V472.64H549.755V459.5ZM546.015 468.6C543.235 467.7 541.595 465.5 541.595 463.2V462.54H545.455V460.88H535.575V462.54H539.495V463.2C539.495 465.64 537.875 467.98 535.015 468.94L536.095 470.54C538.255 469.82 539.775 468.28 540.575 466.36C541.375 468.14 542.895 469.54 544.975 470.22L546.015 468.6ZM540.035 475.52V471.44H537.955V477.2H550.275V475.52H540.035ZM562.614 467.18C560.434 467.64 558.494 467.74 555.074 467.76V462.64H561.054V460.96H553.014V469.46H554.474C558.354 469.46 560.474 469.34 562.814 468.84L562.614 467.18ZM557.014 471.22H554.934V477.2H567.094V475.52H557.014V471.22ZM566.374 464.64V459.46H564.314V472.54H566.374V466.34H568.934V464.64H566.374ZM574.245 460.56V462.24H580.225C579.865 465.02 577.425 467.2 573.285 468.32L574.125 469.96C579.345 468.48 582.445 465.24 582.445 460.56H574.245ZM578.385 472.08H586.105V475.66H578.385V472.08ZM576.365 477.32H588.125V470.44H576.365V477.32ZM586.065 459.46V463.96H582.485V465.66H586.065V469.7H588.125V459.46H586.065ZM596.883 460.98H594.823V463.94C594.823 467.28 593.063 470.7 590.243 472.08L591.503 473.74C593.563 472.68 595.083 470.58 595.863 468.08C596.643 470.44 598.083 472.4 600.023 473.4L601.283 471.76C598.563 470.42 596.883 467.16 596.883 463.94V460.98ZM607.363 466.64H604.543V459.48H602.483V477.54H604.543V468.34H607.363V466.64Z" fill="#222222"/>
<path d="M874.399 462.98H878.219V461.28H868.399V462.98H872.339V464.72C872.339 467.72 870.499 471.14 867.739 472.46L868.919 474.1C870.999 473.08 872.599 470.92 873.399 468.4C874.219 470.68 875.759 472.68 877.779 473.64L878.919 472.02C876.179 470.72 874.399 467.52 874.399 464.72V462.98ZM884.879 466.6H882.059V459.48H879.999V477.54H882.059V468.3H884.879V466.6ZM886.497 461.38V463.06H892.937C892.577 467.22 890.337 470.4 885.597 472.68L886.697 474.32C892.897 471.32 895.057 466.76 895.057 461.38H886.497ZM898.317 459.48V477.54H900.377V459.48H898.317ZM915.055 465.74H907.015V463.72H915.055V465.74ZM917.095 460.06H915.055V462.14H907.015V460.06H904.975V467.36H917.095V460.06ZM906.915 472.26H904.855V477.2H917.415V475.52H906.915V472.26ZM902.855 468.88V470.54H910.175V473.76H912.235V470.54H919.235V468.88H902.855ZM930.914 467.9C928.234 466.96 926.694 464.68 926.694 462.32V460.4H924.614V462.2C924.614 464.84 923.074 467.24 920.234 468.24L921.314 469.88C923.394 469.1 924.874 467.56 925.674 465.62C926.434 467.4 927.874 468.8 929.814 469.5L930.914 467.9ZM923.054 472.76H933.174V477.56H935.234V471.12H923.054V472.76ZM933.174 459.46V463.06H929.514V464.76H933.174V470.2H935.234V459.46H933.174ZM953.985 459.48V469.18H956.045V459.48H953.985ZM944.245 470.02V477.32H956.045V470.02H954.005V472.02H946.285V470.02H944.245ZM946.285 473.62H954.005V475.66H946.285V473.62ZM946.305 460.3C943.545 460.3 941.505 462.02 941.505 464.5C941.505 466.98 943.545 468.7 946.305 468.7C949.065 468.7 951.085 466.98 951.085 464.5C951.085 462.02 949.065 460.3 946.305 460.3ZM946.305 462C947.925 462 949.085 463 949.085 464.5C949.085 466.02 947.925 467 946.305 467C944.665 467 943.525 466.02 943.525 464.5C943.525 463 944.665 462 946.305 462ZM967.943 467.84C965.983 468.18 964.323 468.26 961.303 468.26V465.92H967.083V460.52H959.243V462.18H965.043V464.34H959.283V469.94H960.603C964.143 469.94 965.983 469.88 968.163 469.5L967.943 467.84ZM961.303 473.18H971.463V477.58H973.523V471.5H961.303V473.18ZM971.463 459.48V462.08H968.223V463.74H971.463V465.86H968.223V467.52H971.463V470.6H973.523V459.48H971.463Z" fill="#222222"/>
<path d="M437.75 234.941H441.643V233.581H439.62V219.675H441.643V218.349H437.75V234.941ZM454.698 227.903C455.225 224.741 455.225 222.582 455.225 220.661V219.148H443.716V220.933H452.981C452.981 222.735 452.964 224.843 452.454 227.682L454.698 227.903ZM451.383 229.773V224.826H449.19V229.773H447.524V224.826H445.314V229.773H442.339V231.575H456.517V229.773H451.383ZM470.167 217.822H467.923V225.829H470.167V217.822ZM461.191 220.491H462.84V223.653C462.296 223.687 461.735 223.704 461.191 223.721V220.491ZM466.818 223.364C466.223 223.432 465.628 223.483 464.999 223.534V220.491H466.223V218.757H457.791V220.491H459.032V223.755L457.4 223.772L457.621 225.54C460.324 225.54 463.843 225.455 466.92 224.945L466.818 223.364ZM461.82 231.609V230.674H470.167V226.458H459.576V228.175H467.94V229.076H459.593V233.343H470.609V231.609H461.82ZM473.939 225.778C474.84 225.778 475.503 225.081 475.503 224.163C475.503 223.228 474.84 222.531 473.939 222.531C473.055 222.531 472.392 223.228 472.392 224.163C472.392 225.081 473.055 225.778 473.939 225.778ZM473.939 232.238C474.84 232.238 475.503 231.524 475.503 230.606C475.503 229.671 474.84 228.974 473.939 228.974C473.055 228.974 472.392 229.671 472.392 230.606C472.392 231.524 473.055 232.238 473.939 232.238ZM484.152 227.971H482.146V224.469H484.152V227.971ZM484.152 222.718H482.146V219.182H480.038V229.756H486.209V219.182H484.152V222.718ZM490.901 217.788V223.772H489.592V218.043H487.501V232.765H489.592V225.574H490.901V233.445H493.026V217.788H490.901ZM505.809 217.788V223.789H504.534V218.043H502.443V228.175C500.131 226.968 499.349 224.367 499.349 221.63V221.205H501.695V219.386H494.606V221.205H497.173V221.63C497.173 224.639 496.425 227.41 494.096 228.77L495.439 230.47C496.901 229.586 497.819 228.124 498.329 226.322C498.873 227.886 499.791 229.144 501.185 229.892L502.443 228.209V232.748H504.534V225.625H505.809V233.445H507.934V217.788H505.809ZM522.179 217.822H519.918V229.059H522.179V217.822ZM511.588 222.786C511.588 221.494 512.506 220.746 513.662 220.746C514.835 220.746 515.719 221.494 515.719 222.786C515.719 224.044 514.835 224.809 513.662 224.809C512.506 224.809 511.588 224.044 511.588 222.786ZM517.912 222.786C517.912 220.474 516.059 218.808 513.662 218.808C511.265 218.808 509.395 220.474 509.395 222.786C509.395 225.064 511.265 226.747 513.662 226.747C516.059 226.747 517.912 225.064 517.912 222.786ZM514.002 231.405V227.954H511.758V233.19H522.57V231.405H514.002ZM528.994 218.842C526.546 218.842 524.693 220.457 524.693 222.701C524.693 224.962 526.546 226.56 528.994 226.56C531.442 226.56 533.312 224.962 533.312 222.701C533.312 220.457 531.442 218.842 528.994 218.842ZM528.994 220.763C530.201 220.763 531.119 221.477 531.119 222.701C531.119 223.925 530.201 224.639 528.994 224.639C527.787 224.639 526.869 223.925 526.869 222.701C526.869 221.477 527.787 220.763 528.994 220.763ZM534.774 217.788V233.496H537.018V217.788H534.774ZM524.319 230.317C527.022 230.317 530.694 230.283 534.06 229.603L533.924 227.988C530.626 228.481 526.784 228.498 524.03 228.498L524.319 230.317ZM544.404 221.426H547.991V219.607H542.194V229.943H543.282C545.288 229.943 546.954 229.875 548.858 229.518L548.688 227.699C547.192 227.971 545.866 228.056 544.404 228.09V221.426ZM553.057 217.788V223.823H551.646V218.094H549.555V232.731H551.646V225.625H553.057V233.462H555.182V217.788H553.057ZM565.755 219.182H562.27V217.72H560.009V219.182H556.541V220.95H565.755V219.182ZM559.448 224.316C559.448 223.534 560.128 223.143 561.148 223.143C562.151 223.143 562.848 223.534 562.848 224.316C562.848 225.115 562.151 225.506 561.148 225.506C560.128 225.506 559.448 225.115 559.448 224.316ZM564.99 224.316C564.99 222.616 563.409 221.443 561.148 221.443C558.904 221.443 557.306 222.616 557.306 224.316C557.306 226.033 558.904 227.206 561.148 227.206C563.409 227.206 564.99 226.033 564.99 224.316ZM558.428 230.062H566.622V233.479H568.866V228.26H558.428V230.062ZM570.94 221.834H568.866V217.822H566.622V227.614H568.866V223.687H570.94V221.834ZM582.176 225.761H584.42V217.805H582.176V220.1H579.32V221.885H582.176V225.761ZM580.68 223.857C578.232 223.109 577.161 221.29 577.161 219.437V218.315H574.9V219.437C574.9 221.426 573.812 223.347 571.211 224.129L572.367 225.88C574.152 225.319 575.376 224.163 576.073 222.701C576.736 224.01 577.892 225.047 579.541 225.574L580.68 223.857ZM576.328 231.541V230.623H584.42V226.424H574.101V228.141H582.21V229.008H574.118V233.275H584.862V231.541H576.328ZM594.244 221.936H592.731C592.816 221.205 592.867 220.457 592.867 219.658H586.781V221.443H590.64C590.351 224.503 588.991 226.764 585.897 228.651L587.172 230.215C590.096 228.481 591.66 226.305 592.357 223.721H594.244V225.846H592.068V227.648H594.244V232.782H596.335V218.145H594.244V221.936ZM597.457 217.788V233.462H599.582V217.788H597.457ZM604.572 232H612.137V229.977H609.774V219.403H607.921C607.122 219.913 606.255 220.236 604.997 220.474V222.021H607.275V229.977H604.572V232ZM613.766 235.621C615.823 234.941 616.979 233.428 616.979 231.439C616.979 229.892 616.333 228.974 615.177 228.974C614.293 228.974 613.562 229.552 613.562 230.453C613.562 231.405 614.31 231.932 615.126 231.932C615.177 231.932 615.228 231.932 615.279 231.932C615.296 232.884 614.565 233.768 613.239 234.261L613.766 235.621ZM620.749 232H629.181V229.892H626.461C625.866 229.892 625.033 229.96 624.404 230.028C626.699 227.784 628.586 225.336 628.586 223.058C628.586 220.712 627.005 219.182 624.625 219.182C622.908 219.182 621.786 219.845 620.63 221.086L621.99 222.446C622.636 221.749 623.384 221.154 624.302 221.154C625.509 221.154 626.189 221.919 626.189 223.194C626.189 225.132 624.166 227.495 620.749 230.555V232ZM633.157 235.434L634.721 234.771C633.293 232.289 632.647 229.433 632.647 226.628C632.647 223.857 633.293 220.984 634.721 218.502L633.157 217.839C631.559 220.457 630.624 223.245 630.624 226.628C630.624 230.045 631.559 232.799 633.157 235.434ZM636.301 232H638.817V227.529H640.5C643.203 227.529 645.362 226.237 645.362 223.364C645.362 220.389 643.22 219.403 640.432 219.403H636.301V232ZM638.817 225.54V221.409H640.245C641.979 221.409 642.897 221.902 642.897 223.364C642.897 224.809 642.064 225.54 640.33 225.54H638.817ZM644.368 235.094H646.034L650.25 218.298H648.601L644.368 235.094ZM651.418 232H653.934V226.9H658.405V224.792H653.934V221.511H659.17V219.403H651.418V232ZM661.397 235.434C663.012 232.799 663.947 230.045 663.947 226.628C663.947 223.245 663.012 220.457 661.397 217.839L659.85 218.502C661.278 220.984 661.924 223.857 661.924 226.628C661.924 229.433 661.278 232.289 659.85 234.771L661.397 235.434ZM665.356 234.941H669.249V218.349H665.356V219.675H667.379V233.581H665.356V234.941ZM494.126 251.858V249.784L490.556 248.56L487.955 247.625V247.557L490.556 246.639L494.126 245.415V243.341L485.405 246.707V248.492L494.126 251.858ZM507.01 249.903C507.537 246.741 507.537 244.582 507.537 242.661V241.148H496.028V242.933H505.293C505.293 244.735 505.276 246.843 504.766 249.682L507.01 249.903ZM503.695 251.773V246.826H501.502V251.773H499.836V246.826H497.626V251.773H494.651V253.575H508.829V251.773H503.695ZM511.751 244.463C511.751 243.256 512.618 242.542 513.808 242.542C514.981 242.542 515.865 243.256 515.865 244.463C515.865 245.653 514.981 246.367 513.808 246.367C512.618 246.367 511.751 245.653 511.751 244.463ZM518.041 244.463C518.041 242.236 516.205 240.655 513.808 240.655C511.394 240.655 509.558 242.236 509.558 244.463C509.558 246.656 511.394 248.254 513.808 248.254C516.205 248.254 518.041 246.656 518.041 244.463ZM516.647 253.711C514.641 253.711 513.57 253.286 513.57 252.368C513.57 251.467 514.641 251.025 516.647 251.025C518.636 251.025 519.707 251.467 519.707 252.368C519.707 253.286 518.636 253.711 516.647 253.711ZM516.647 249.274C513.4 249.274 511.343 250.43 511.343 252.368C511.343 254.323 513.4 255.462 516.647 255.462C519.877 255.462 521.934 254.323 521.934 252.368C521.934 250.43 519.877 249.274 516.647 249.274ZM523.77 243.562V241.726H521.764V239.805H519.52V248.934H521.764V246.962H523.77V245.126H521.764V243.562H523.77ZM530.28 243.154H533.51V241.301H524.738V243.154H528.002V244.021C528.002 246.69 526.727 249.563 524.109 250.736L525.384 252.521C527.22 251.688 528.478 249.971 529.175 247.931C529.872 249.818 531.113 251.348 532.932 252.13L534.156 250.362C531.538 249.274 530.28 246.571 530.28 244.021V243.154ZM534.955 239.805V255.462H537.199V239.805H534.955ZM547.211 251.858V248.594H551.682V246.792H542.927V242.678H551.563V240.876H540.666V248.594H544.967V251.858H539.017V253.694H553.195V251.858H547.211ZM566.164 249.903C566.691 246.741 566.691 244.582 566.691 242.661V241.148H555.182V242.933H564.447C564.447 244.735 564.43 246.843 563.92 249.682L566.164 249.903ZM562.849 251.773V246.826H560.656V251.773H558.99V246.826H556.78V251.773H553.805V253.575H567.983V251.773H562.849ZM582.245 245.364C578.692 244.871 576.89 242.831 576.89 241.012V240.264H574.493V241.012C574.493 242.848 572.708 244.871 569.138 245.364L569.988 247.166C572.725 246.758 574.697 245.483 575.7 243.8C576.703 245.483 578.658 246.758 581.395 247.166L582.245 245.364ZM582.755 248.322H568.611V250.141H574.51V255.479H576.754V250.141H582.755V248.322ZM595.615 246.741C593.15 245.976 592.096 244.14 592.096 242.253V240.655H589.818V242.066C589.818 244.191 588.764 246.282 586.146 247.149L587.319 248.917C589.104 248.288 590.311 247.081 590.991 245.551C591.654 246.877 592.793 247.931 594.442 248.475L595.615 246.741ZM593.592 253.728C591.586 253.728 590.515 253.32 590.515 252.436C590.515 251.569 591.586 251.161 593.592 251.161C595.581 251.161 596.652 251.569 596.652 252.436C596.652 253.32 595.581 253.728 593.592 253.728ZM593.592 249.427C590.328 249.427 588.288 250.549 588.288 252.436C588.288 254.34 590.328 255.462 593.592 255.462C596.839 255.462 598.879 254.34 598.879 252.436C598.879 250.549 596.839 249.427 593.592 249.427ZM598.709 243.443V239.822H596.465V249.07H598.709V245.296H600.783V243.443H598.709ZM610.03 245.772C608.33 246.129 606.783 246.231 603.995 246.248V242.559H608.738V240.757H601.768V248.05H603.077C606.545 248.05 608.33 247.965 610.251 247.54L610.03 245.772ZM605.525 251.025H611.305V253.524H605.525V251.025ZM603.315 255.275H613.498V249.257H603.315V255.275ZM615.572 243.324H613.498V239.788H611.254V248.577H613.498V245.143H615.572V243.324ZM615.876 251.858L624.597 248.492V246.707L615.876 243.341V245.415L619.463 246.639L622.064 247.557V247.625L619.463 248.56L615.876 249.784V251.858Z" fill="#222222"/>
<rect x="416.5" y="194.5" width="277" height="83" stroke="#253559"/>
<rect width="151" height="84" transform="translate(210 194)" fill="#E1E5F0"/>
<path d="M238.205 218.382C239.429 218.382 240.466 217.379 240.466 215.985C240.466 214.557 239.429 213.554 238.205 213.554C236.981 213.554 235.944 214.557 235.944 215.985C235.944 217.379 236.981 218.382 238.205 218.382ZM252.693 208.573V210.001H258.167C257.861 213.537 255.957 216.24 251.928 218.178L252.863 219.572C258.133 217.022 259.969 213.146 259.969 208.573H252.693ZM262.74 206.958V222.309H264.491V206.958H262.74ZM267.89 216.308C270.474 215.9 272.548 214.71 273.568 212.976C274.571 214.71 276.645 215.9 279.229 216.308L279.892 214.897C276.662 214.455 274.554 212.704 274.452 210.647H279.246V209.219H274.435V207.23H272.684V209.219H267.856V210.647H272.667C272.565 212.704 270.457 214.455 267.227 214.897L267.89 216.308ZM274.435 219.028V215.764H272.684V219.028H266.615V220.456H280.521V219.028H274.435ZM292.079 210.001C292.079 211.871 292.079 213.945 291.535 216.75L293.286 216.954C293.83 213.979 293.83 211.922 293.83 210.001V208.386H282.78V209.814H292.079V210.001ZM290.124 218.858V213.894H288.39V218.858H286.333V213.894H284.599V218.858H281.403V220.303H295.275V218.858H290.124ZM298.096 211.497C298.096 210.171 299.099 209.304 300.459 209.304C301.836 209.304 302.839 210.171 302.839 211.497C302.839 212.84 301.836 213.69 300.459 213.69C299.099 213.69 298.096 212.84 298.096 211.497ZM304.556 211.497C304.556 209.338 302.805 207.842 300.459 207.842C298.13 207.842 296.379 209.338 296.379 211.497C296.379 213.656 298.13 215.169 300.459 215.169C302.805 215.169 304.556 213.656 304.556 211.497ZM303.23 220.915C301.088 220.915 299.847 220.371 299.847 219.368C299.847 218.348 301.088 217.804 303.23 217.804C305.372 217.804 306.613 218.348 306.613 219.368C306.613 220.371 305.372 220.915 303.23 220.915ZM303.23 216.41C300.085 216.41 298.113 217.515 298.113 219.368C298.113 221.204 300.085 222.309 303.23 222.309C306.392 222.309 308.347 221.204 308.347 219.368C308.347 217.515 306.392 216.41 303.23 216.41ZM310.302 210.494V209.049H308.177V206.941H306.426V215.985H308.177V213.809H310.302V212.364H308.177V210.494H310.302ZM321.657 210.001C321.657 211.871 321.657 213.945 321.113 216.75L322.864 216.954C323.408 213.979 323.408 211.922 323.408 210.001V208.386H312.358V209.814H321.657V210.001ZM319.702 218.858V213.894H317.968V218.858H315.911V213.894H314.177V218.858H310.981V220.303H324.853V218.858H319.702ZM332.705 208.658C334.983 208.658 336.36 209.236 336.36 210.273C336.36 211.293 334.983 211.871 332.705 211.871C330.41 211.871 329.033 211.293 329.033 210.273C329.033 209.236 330.41 208.658 332.705 208.658ZM332.705 213.248C336.037 213.248 338.179 212.126 338.179 210.273C338.179 208.42 336.037 207.298 332.705 207.298C329.356 207.298 327.231 208.42 327.231 210.273C327.231 212.126 329.356 213.248 332.705 213.248ZM334.388 217.345H330.988V215.662H334.388V217.345ZM339.641 215.662V214.251H325.735V215.662H329.237V217.345H327.299V218.739H336.19V222.309H337.941V217.345H336.139V215.662H339.641ZM238.205 240.382C239.429 240.382 240.466 239.379 240.466 237.985C240.466 236.557 239.429 235.554 238.205 235.554C236.981 235.554 235.944 236.557 235.944 237.985C235.944 239.379 236.981 240.382 238.205 240.382ZM252.693 230.573V232.001H258.167C257.861 235.537 255.957 238.24 251.928 240.178L252.863 241.572C258.133 239.022 259.969 235.146 259.969 230.573H252.693ZM262.74 228.958V244.309H264.491V228.958H262.74ZM267.89 238.308C270.474 237.9 272.548 236.71 273.568 234.976C274.571 236.71 276.645 237.9 279.229 238.308L279.892 236.897C276.662 236.455 274.554 234.704 274.452 232.647H279.246V231.219H274.435V229.23H272.684V231.219H267.856V232.647H272.667C272.565 234.704 270.457 236.455 267.227 236.897L267.89 238.308ZM274.435 241.028V237.764H272.684V241.028H266.615V242.456H280.521V241.028H274.435ZM292.079 232.001C292.079 233.871 292.079 235.945 291.535 238.75L293.286 238.954C293.83 235.979 293.83 233.922 293.83 232.001V230.386H282.78V231.814H292.079V232.001ZM290.124 240.858V235.894H288.39V240.858H286.333V235.894H284.599V240.858H281.403V242.303H295.275V240.858H290.124ZM298.096 233.497C298.096 232.171 299.099 231.304 300.459 231.304C301.836 231.304 302.839 232.171 302.839 233.497C302.839 234.84 301.836 235.69 300.459 235.69C299.099 235.69 298.096 234.84 298.096 233.497ZM304.556 233.497C304.556 231.338 302.805 229.842 300.459 229.842C298.13 229.842 296.379 231.338 296.379 233.497C296.379 235.656 298.13 237.169 300.459 237.169C302.805 237.169 304.556 235.656 304.556 233.497ZM303.23 242.915C301.088 242.915 299.847 242.371 299.847 241.368C299.847 240.348 301.088 239.804 303.23 239.804C305.372 239.804 306.613 240.348 306.613 241.368C306.613 242.371 305.372 242.915 303.23 242.915ZM303.23 238.41C300.085 238.41 298.113 239.515 298.113 241.368C298.113 243.204 300.085 244.309 303.23 244.309C306.392 244.309 308.347 243.204 308.347 241.368C308.347 239.515 306.392 238.41 303.23 238.41ZM310.302 232.494V231.049H308.177V228.941H306.426V237.985H308.177V235.809H310.302V234.364H308.177V232.494H310.302ZM321.657 232.001C321.657 233.871 321.657 235.945 321.113 238.75L322.864 238.954C323.408 235.979 323.408 233.922 323.408 232.001V230.386H312.358V231.814H321.657V232.001ZM319.702 240.858V235.894H317.968V240.858H315.911V235.894H314.177V240.858H310.981V242.303H324.853V240.858H319.702ZM332.705 230.658C334.983 230.658 336.36 231.236 336.36 232.273C336.36 233.293 334.983 233.871 332.705 233.871C330.41 233.871 329.033 233.293 329.033 232.273C329.033 231.236 330.41 230.658 332.705 230.658ZM332.705 235.248C336.037 235.248 338.179 234.126 338.179 232.273C338.179 230.42 336.037 229.298 332.705 229.298C329.356 229.298 327.231 230.42 327.231 232.273C327.231 234.126 329.356 235.248 332.705 235.248ZM334.388 239.345H330.988V237.662H334.388V239.345ZM339.641 237.662V236.251H325.735V237.662H329.237V239.345H327.299V240.739H336.19V244.309H337.941V239.345H336.139V237.662H339.641ZM238.205 262.382C239.429 262.382 240.466 261.379 240.466 259.985C240.466 258.557 239.429 257.554 238.205 257.554C236.981 257.554 235.944 258.557 235.944 259.985C235.944 261.379 236.981 262.382 238.205 262.382ZM252.693 252.573V254.001H258.167C257.861 257.537 255.957 260.24 251.928 262.178L252.863 263.572C258.133 261.022 259.969 257.146 259.969 252.573H252.693ZM262.74 250.958V266.309H264.491V250.958H262.74ZM267.89 260.308C270.474 259.9 272.548 258.71 273.568 256.976C274.571 258.71 276.645 259.9 279.229 260.308L279.892 258.897C276.662 258.455 274.554 256.704 274.452 254.647H279.246V253.219H274.435V251.23H272.684V253.219H267.856V254.647H272.667C272.565 256.704 270.457 258.455 267.227 258.897L267.89 260.308ZM274.435 263.028V259.764H272.684V263.028H266.615V264.456H280.521V263.028H274.435ZM292.079 254.001C292.079 255.871 292.079 257.945 291.535 260.75L293.286 260.954C293.83 257.979 293.83 255.922 293.83 254.001V252.386H282.78V253.814H292.079V254.001ZM290.124 262.858V257.894H288.39V262.858H286.333V257.894H284.599V262.858H281.403V264.303H295.275V262.858H290.124ZM298.096 255.497C298.096 254.171 299.099 253.304 300.459 253.304C301.836 253.304 302.839 254.171 302.839 255.497C302.839 256.84 301.836 257.69 300.459 257.69C299.099 257.69 298.096 256.84 298.096 255.497ZM304.556 255.497C304.556 253.338 302.805 251.842 300.459 251.842C298.13 251.842 296.379 253.338 296.379 255.497C296.379 257.656 298.13 259.169 300.459 259.169C302.805 259.169 304.556 257.656 304.556 255.497ZM303.23 264.915C301.088 264.915 299.847 264.371 299.847 263.368C299.847 262.348 301.088 261.804 303.23 261.804C305.372 261.804 306.613 262.348 306.613 263.368C306.613 264.371 305.372 264.915 303.23 264.915ZM303.23 260.41C300.085 260.41 298.113 261.515 298.113 263.368C298.113 265.204 300.085 266.309 303.23 266.309C306.392 266.309 308.347 265.204 308.347 263.368C308.347 261.515 306.392 260.41 303.23 260.41ZM310.302 254.494V253.049H308.177V250.941H306.426V259.985H308.177V257.809H310.302V256.364H308.177V254.494H310.302ZM321.657 254.001C321.657 255.871 321.657 257.945 321.113 260.75L322.864 260.954C323.408 257.979 323.408 255.922 323.408 254.001V252.386H312.358V253.814H321.657V254.001ZM319.702 262.858V257.894H317.968V262.858H315.911V257.894H314.177V262.858H310.981V264.303H324.853V262.858H319.702ZM332.705 252.658C334.983 252.658 336.36 253.236 336.36 254.273C336.36 255.293 334.983 255.871 332.705 255.871C330.41 255.871 329.033 255.293 329.033 254.273C329.033 253.236 330.41 252.658 332.705 252.658ZM332.705 257.248C336.037 257.248 338.179 256.126 338.179 254.273C338.179 252.42 336.037 251.298 332.705 251.298C329.356 251.298 327.231 252.42 327.231 254.273C327.231 256.126 329.356 257.248 332.705 257.248ZM334.388 261.345H330.988V259.662H334.388V261.345ZM339.641 259.662V258.251H325.735V259.662H329.237V261.345H327.299V262.739H336.19V266.309H337.941V261.345H336.139V259.662H339.641Z" fill="#222222"/>
<rect width="168" height="84" transform="translate(741 194)" fill="#E1E5F0"/>
<path d="M768.746 218.382C769.97 218.382 771.007 217.379 771.007 215.985C771.007 214.557 769.97 213.554 768.746 213.554C767.522 213.554 766.485 214.557 766.485 215.985C766.485 217.379 767.522 218.382 768.746 218.382ZM788.368 213.231H784.628V209.372H788.368V213.231ZM790.085 207.961H782.894V214.625H790.085V207.961ZM794.573 217.872V216.478H784.424V217.872H788.555C788.283 219.3 786.481 220.575 783.795 220.932L784.441 222.258C786.804 221.918 788.623 220.898 789.507 219.47C790.391 220.881 792.227 221.952 794.556 222.275L795.185 220.966C792.567 220.575 790.714 219.266 790.459 217.872H794.573ZM794.352 210.477V206.941H792.601V215.645H794.352V211.922H796.528V210.477H794.352ZM798.38 213.707C801.066 213.486 803.123 212.636 804.075 211.293C805.044 212.636 807.101 213.486 809.787 213.707L810.314 212.381C807.186 212.16 805.282 211.106 805.078 209.729H809.634V208.352H804.959V206.907H803.208V208.352H798.533V209.729H803.089C802.885 211.106 800.964 212.16 797.853 212.381L798.38 213.707ZM807.628 220.728H800.539V218.705H807.628V220.728ZM811.028 215.832V214.421H797.139V215.832H803.208V217.311H798.805V222.122H809.345V217.311H804.959V215.832H811.028ZM822.909 216.818H824.66V206.958H822.909V210.494H820.597V211.922H822.909V213.537H820.563V214.948H822.909V216.818ZM820.495 208.505H817.18V206.822H815.429V208.505H811.978V209.899H820.495V208.505ZM814.409 213.435C814.409 212.5 815.174 211.905 816.296 211.905C817.435 211.905 818.2 212.5 818.2 213.435C818.2 214.404 817.435 214.982 816.296 214.982C815.174 214.982 814.409 214.404 814.409 213.435ZM819.832 213.435C819.832 211.735 818.387 210.579 816.296 210.579C814.222 210.579 812.777 211.735 812.777 213.435C812.777 215.152 814.222 216.308 816.296 216.308C818.387 216.308 819.832 215.152 819.832 213.435ZM819.577 220.966C817.469 220.966 816.228 220.507 816.228 219.64C816.228 218.773 817.469 218.331 819.577 218.331C821.651 218.331 822.892 218.773 822.892 219.64C822.892 220.507 821.651 220.966 819.577 220.966ZM819.577 216.988C816.364 216.988 814.392 217.974 814.392 219.64C814.392 221.323 816.364 222.309 819.577 222.309C822.756 222.309 824.745 221.323 824.745 219.64C824.745 217.974 822.756 216.988 819.577 216.988ZM838.388 214.829H834.852V209.814H838.388V214.829ZM833.101 214.829H830.891V216.257H842.349V214.829H840.122V209.814H842.383V208.403H830.84V209.814H833.101V214.829ZM829.684 218.977V220.422H843.624V218.977H829.684ZM852.293 219.062V216.444H857.087V215.033H847.89V212.891H856.747V208.029H846.139V209.44H855.013V211.497H846.173V216.444H850.542V219.062H844.49V220.507H858.396V219.062H852.293ZM869.632 210.137C869.632 212.126 869.632 214.387 869.037 217.413L870.805 217.6C871.383 214.353 871.383 212.194 871.383 210.137V208.488H860.758V209.899H869.632V210.137ZM859.279 218.722V220.167H873.168V218.722H859.279ZM881.241 213.673C879.643 213.979 878.249 214.064 876.413 214.081V212.279H880.493V207.927H874.679V209.304H878.793V210.97H874.713V215.475H875.75C877.977 215.475 879.541 215.424 881.394 215.067L881.241 213.673ZM878.572 218.161H885.355V220.728H878.572V218.161ZM876.838 222.122H887.055V216.767H876.838V222.122ZM885.389 206.941V210.732H883.689V207.247H882.057V215.9H883.689V212.143H885.389V216.087H887.055V206.941H885.389ZM768.746 240.382C769.97 240.382 771.007 239.379 771.007 237.985C771.007 236.557 769.97 235.554 768.746 235.554C767.522 235.554 766.485 236.557 766.485 237.985C766.485 239.379 767.522 240.382 768.746 240.382ZM785.682 239.09H783.948V244.02H794.964V242.592H785.682V239.09ZM794.216 235.452C794.556 233.633 794.556 232.205 794.556 230.964V229.723H784.067V231.151H792.822C792.822 232.358 792.805 233.684 792.465 235.452H782.367V236.88H786.991V240.416H788.708V236.88H790.884V240.416H792.601V236.88H796.273V235.452H794.216ZM808.121 238.818H809.872V228.958H808.121V232.494H805.809V233.922H808.121V235.537H805.775V236.948H808.121V238.818ZM805.707 230.505H802.392V228.822H800.641V230.505H797.19V231.899H805.707V230.505ZM799.621 235.435C799.621 234.5 800.386 233.905 801.508 233.905C802.647 233.905 803.412 234.5 803.412 235.435C803.412 236.404 802.647 236.982 801.508 236.982C800.386 236.982 799.621 236.404 799.621 235.435ZM805.044 235.435C805.044 233.735 803.599 232.579 801.508 232.579C799.434 232.579 797.989 233.735 797.989 235.435C797.989 237.152 799.434 238.308 801.508 238.308C803.599 238.308 805.044 237.152 805.044 235.435ZM804.789 242.966C802.681 242.966 801.44 242.507 801.44 241.64C801.44 240.773 802.681 240.331 804.789 240.331C806.863 240.331 808.104 240.773 808.104 241.64C808.104 242.507 806.863 242.966 804.789 242.966ZM804.789 238.988C801.576 238.988 799.604 239.974 799.604 241.64C799.604 243.323 801.576 244.309 804.789 244.309C807.968 244.309 809.957 243.323 809.957 241.64C809.957 239.974 807.968 238.988 804.789 238.988ZM821.073 236.234C818.778 235.435 817.469 233.514 817.469 231.61V231.321H820.665V229.91H812.454V231.321H815.701V231.627C815.701 233.701 814.307 235.724 811.927 236.54L812.828 237.917C814.647 237.288 815.939 235.962 816.619 234.313C817.282 235.792 818.506 236.999 820.206 237.594L821.073 236.234ZM814.307 240.297H822.909V244.309H824.66V238.886H814.307V240.297ZM822.909 228.941V232.8H820.223V234.245H822.909V238.121H824.66V228.941H822.909ZM838.388 236.829H834.852V231.814H838.388V236.829ZM833.101 236.829H830.891V238.257H842.349V236.829H840.122V231.814H842.383V230.403H830.84V231.814H833.101V236.829ZM829.684 240.977V242.422H843.624V240.977H829.684ZM852.293 241.062V238.444H857.087V237.033H847.89V234.891H856.747V230.029H846.139V231.44H855.013V233.497H846.173V238.444H850.542V241.062H844.49V242.507H858.396V241.062H852.293ZM869.632 232.137C869.632 234.126 869.632 236.387 869.037 239.413L870.805 239.6C871.383 236.353 871.383 234.194 871.383 232.137V230.488H860.758V231.899H869.632V232.137ZM859.279 240.722V242.167H873.168V240.722H859.279ZM881.241 235.673C879.643 235.979 878.249 236.064 876.413 236.081V234.279H880.493V229.927H874.679V231.304H878.793V232.97H874.713V237.475H875.75C877.977 237.475 879.541 237.424 881.394 237.067L881.241 235.673ZM878.572 240.161H885.355V242.728H878.572V240.161ZM876.838 244.122H887.055V238.767H876.838V244.122ZM885.389 228.941V232.732H883.689V229.247H882.057V237.9H883.689V234.143H885.389V238.087H887.055V228.941H885.389ZM768.746 262.382C769.97 262.382 771.007 261.379 771.007 259.985C771.007 258.557 769.97 257.554 768.746 257.554C767.522 257.554 766.485 258.557 766.485 259.985C766.485 261.379 767.522 262.382 768.746 262.382ZM795.015 250.958H793.247V258.829H795.015V250.958ZM791.7 257.112C789.337 256.381 787.96 254.511 787.96 252.522V251.366H786.175V252.522C786.175 254.596 784.798 256.585 782.367 257.384L783.234 258.778C785.087 258.149 786.396 256.874 787.093 255.225C787.79 256.738 789.082 257.911 790.85 258.489L791.7 257.112ZM786.702 264.796V263.453H795.015V259.56H784.951V260.92H793.281V262.178H784.985V266.173H795.474V264.796H786.702ZM805.299 255.565V257.01H808.121V262.382H809.872V250.975H808.121V255.565H805.299ZM806.285 258.999C803.922 258.268 802.562 256.483 802.562 254.596V254.307H805.792V252.896H802.579V251.06H800.811V252.896H797.581V254.307H800.811V254.596C800.811 256.619 799.485 258.489 797.122 259.288L797.989 260.648C799.774 260.053 801.049 258.829 801.729 257.265C802.409 258.71 803.701 259.832 805.435 260.376L806.285 258.999ZM801.678 264.592V261.396H799.927V266.02H810.263V264.592H801.678ZM821.073 258.234C818.778 257.435 817.469 255.514 817.469 253.61V253.321H820.665V251.91H812.454V253.321H815.701V253.627C815.701 255.701 814.307 257.724 811.927 258.54L812.828 259.917C814.647 259.288 815.939 257.962 816.619 256.313C817.282 257.792 818.506 258.999 820.206 259.594L821.073 258.234ZM814.307 262.297H822.909V266.309H824.66V260.886H814.307V262.297ZM822.909 250.941V254.8H820.223V256.245H822.909V260.121H824.66V250.941H822.909ZM838.388 258.829H834.852V253.814H838.388V258.829ZM833.101 258.829H830.891V260.257H842.349V258.829H840.122V253.814H842.383V252.403H830.84V253.814H833.101V258.829ZM829.684 262.977V264.422H843.624V262.977H829.684ZM852.293 263.062V260.444H857.087V259.033H847.89V256.891H856.747V252.029H846.139V253.44H855.013V255.497H846.173V260.444H850.542V263.062H844.49V264.507H858.396V263.062H852.293ZM869.632 254.137C869.632 256.126 869.632 258.387 869.037 261.413L870.805 261.6C871.383 258.353 871.383 256.194 871.383 254.137V252.488H860.758V253.899H869.632V254.137ZM859.279 262.722V264.167H873.168V262.722H859.279ZM881.241 257.673C879.643 257.979 878.249 258.064 876.413 258.081V256.279H880.493V251.927H874.679V253.304H878.793V254.97H874.713V259.475H875.75C877.977 259.475 879.541 259.424 881.394 259.067L881.241 257.673ZM878.572 262.161H885.355V264.728H878.572V262.161ZM876.838 266.122H887.055V260.767H876.838V266.122ZM885.389 250.941V254.732H883.689V251.247H882.057V259.9H883.689V256.143H885.389V260.087H887.055V250.941H885.389Z" fill="#222222"/>
<rect x="956.5" y="163.5" width="85" height="145" fill="white"/>
<path d="M996.876 216.903C997.403 213.741 997.403 211.582 997.403 209.661V208.148H985.894V209.933H995.159C995.159 211.735 995.142 213.843 994.632 216.682L996.876 216.903ZM993.561 218.773V213.826H991.368V218.773H989.702V213.826H987.492V218.773H984.517V220.575H998.695V218.773H993.561ZM1001.62 211.463C1001.62 210.256 1002.49 209.542 1003.68 209.542C1004.85 209.542 1005.73 210.256 1005.73 211.463C1005.73 212.653 1004.85 213.367 1003.68 213.367C1002.49 213.367 1001.62 212.653 1001.62 211.463ZM1007.91 211.463C1007.91 209.236 1006.07 207.655 1003.68 207.655C1001.26 207.655 999.425 209.236 999.425 211.463C999.425 213.656 1001.26 215.254 1003.68 215.254C1006.07 215.254 1007.91 213.656 1007.91 211.463ZM1006.51 220.711C1004.51 220.711 1003.44 220.286 1003.44 219.368C1003.44 218.467 1004.51 218.025 1006.51 218.025C1008.5 218.025 1009.57 218.467 1009.57 219.368C1009.57 220.286 1008.5 220.711 1006.51 220.711ZM1006.51 216.274C1003.27 216.274 1001.21 217.43 1001.21 219.368C1001.21 221.323 1003.27 222.462 1006.51 222.462C1009.74 222.462 1011.8 221.323 1011.8 219.368C1011.8 217.43 1009.74 216.274 1006.51 216.274ZM1013.64 210.562V208.726H1011.63V206.805H1009.39V215.934H1011.63V213.962H1013.64V212.126H1011.63V210.562H1013.64ZM987.85 228.788V244.496H990.094V228.788H987.85ZM977.888 230.046V240.841H985.606V230.046H983.379V233.837H980.115V230.046H977.888ZM980.115 235.588H983.379V239.056H980.115V235.588ZM1004.27 238.903C1004.8 235.741 1004.8 233.582 1004.8 231.661V230.148H993.289V231.933H1002.55C1002.55 233.735 1002.54 235.843 1002.03 238.682L1004.27 238.903ZM1000.96 240.773V235.826H998.763V240.773H997.097V235.826H994.887V240.773H991.912V242.575H1006.09V240.773H1000.96ZM1015 237.628C1015.42 235.044 1015.42 233.14 1015.42 231.627V230.352H1007.36V232.137H1013.21C1013.21 233.531 1013.16 235.214 1012.8 237.441L1015 237.628ZM1011.58 234.84H1009.37V239.464C1008.38 239.481 1007.43 239.481 1006.56 239.481L1006.77 241.317C1009.49 241.3 1012.99 241.232 1016.17 240.688L1016.05 239.073C1014.62 239.243 1013.09 239.345 1011.58 239.396V234.84ZM1021.12 235.095H1019.01V228.788H1016.76V244.445H1019.01V236.965H1021.12V235.095ZM993.612 251.791H990.297V250.686H988.053V251.791H984.721V253.27H993.612V251.791ZM987.475 255.616C987.475 255.174 988.104 254.953 989.175 254.953C990.246 254.953 990.858 255.174 990.858 255.616C990.858 256.075 990.246 256.313 989.175 256.313C988.104 256.313 987.475 256.075 987.475 255.616ZM994.003 257.928C992.813 258.064 991.555 258.166 990.297 258.234V257.605C991.963 257.401 992.983 256.687 992.983 255.616C992.983 254.341 991.504 253.576 989.175 253.576C986.846 253.576 985.35 254.341 985.35 255.616C985.35 256.687 986.37 257.401 988.053 257.605V258.319C986.71 258.353 985.452 258.353 984.33 258.353L984.551 259.883C987.254 259.883 990.875 259.849 994.156 259.271L994.003 257.928ZM988.648 264.116H996.927V260.58H986.404V262.059H994.717V262.739H986.421V266.343H997.471V264.864H988.648V264.116ZM996.927 254.494V250.788H994.683V260.019H996.927V256.33H998.899V254.494H996.927ZM1006.34 264.779C1004.25 264.779 1003.18 264.422 1003.18 263.606C1003.18 262.79 1004.25 262.416 1006.34 262.416C1008.44 262.416 1009.51 262.79 1009.51 263.606C1009.51 264.422 1008.44 264.779 1006.34 264.779ZM1006.34 260.716C1002.96 260.716 1000.92 261.753 1000.92 263.606C1000.92 265.442 1002.96 266.479 1006.34 266.479C1009.73 266.479 1011.78 265.442 1011.78 263.606C1011.78 261.753 1009.73 260.716 1006.34 260.716ZM1007.52 258.166V256.874H1011.87V255.089H1003.27V253.253H1011.78V251.468H1001.04V256.874H1005.27V258.166H999.323V259.951H1013.48V258.166H1007.52Z" fill="#222222"/>
<rect x="956.5" y="163.5" width="85" height="145" stroke="#253559"/>
<rect x="69.5" y="163.5" width="85" height="145" fill="white"/>
<path d="M109.876 216.903C110.403 213.741 110.403 211.582 110.403 209.661V208.148H98.8943V209.933H108.159C108.159 211.735 108.142 213.843 107.632 216.682L109.876 216.903ZM106.561 218.773V213.826H104.368V218.773H102.702V213.826H100.492V218.773H97.5173V220.575H111.695V218.773H106.561ZM114.618 211.463C114.618 210.256 115.485 209.542 116.675 209.542C117.848 209.542 118.732 210.256 118.732 211.463C118.732 212.653 117.848 213.367 116.675 213.367C115.485 213.367 114.618 212.653 114.618 211.463ZM120.908 211.463C120.908 209.236 119.072 207.655 116.675 207.655C114.261 207.655 112.425 209.236 112.425 211.463C112.425 213.656 114.261 215.254 116.675 215.254C119.072 215.254 120.908 213.656 120.908 211.463ZM119.514 220.711C117.508 220.711 116.437 220.286 116.437 219.368C116.437 218.467 117.508 218.025 119.514 218.025C121.503 218.025 122.574 218.467 122.574 219.368C122.574 220.286 121.503 220.711 119.514 220.711ZM119.514 216.274C116.267 216.274 114.21 217.43 114.21 219.368C114.21 221.323 116.267 222.462 119.514 222.462C122.744 222.462 124.801 221.323 124.801 219.368C124.801 217.43 122.744 216.274 119.514 216.274ZM126.637 210.562V208.726H124.631V206.805H122.387V215.934H124.631V213.962H126.637V212.126H124.631V210.562H126.637ZM102.482 238.903C103.009 235.741 103.009 233.582 103.009 231.661V230.148H91.5V231.933H100.765C100.765 233.735 100.748 235.843 100.238 238.682L102.482 238.903ZM99.167 240.773V235.826H96.974V240.773H95.308V235.826H93.098V240.773H90.123V242.575H104.301V240.773H99.167ZM113.208 237.628C113.633 235.044 113.633 233.14 113.633 231.627V230.352H105.575V232.137H111.423C111.423 233.531 111.372 235.214 111.015 237.441L113.208 237.628ZM109.791 234.84H107.581V239.464C106.595 239.481 105.643 239.481 104.776 239.481L104.98 241.317C107.7 241.3 111.202 241.232 114.381 240.688L114.262 239.073C112.834 239.243 111.304 239.345 109.791 239.396V234.84ZM119.328 235.095H117.22V228.788H114.976V244.445H117.22V236.965H119.328V235.095ZM121.264 241.113H129.9V244.479H132.144V239.328H121.264V241.113ZM123.644 231.168H129.849V233.191H123.644V231.168ZM127.877 236.421V234.959H132.059V229.417H121.434V234.959H125.633V236.421H119.7V238.206H133.844V236.421H127.877ZM111.168 256.364C107.615 255.871 105.813 253.831 105.813 252.012V251.264H103.416V252.012C103.416 253.848 101.631 255.871 98.0613 256.364L98.9113 258.166C101.648 257.758 103.62 256.483 104.623 254.8C105.626 256.483 107.581 257.758 110.318 258.166L111.168 256.364ZM111.678 259.322H97.5343V261.141H103.433V266.479H105.677V261.141H111.678V259.322ZM112.918 251.825V253.61H117.865C117.525 255.752 115.604 257.52 112.187 258.438L113.088 260.24C117.712 258.948 120.33 256.041 120.33 251.825H112.918ZM119.548 264.728C117.644 264.728 116.505 264.235 116.505 263.266C116.505 262.297 117.644 261.804 119.548 261.804C121.452 261.804 122.591 262.297 122.591 263.266C122.591 264.235 121.452 264.728 119.548 264.728ZM119.548 260.053C116.386 260.053 114.295 261.294 114.295 263.266C114.295 265.238 116.386 266.479 119.548 266.479C122.71 266.479 124.801 265.238 124.801 263.266C124.801 261.294 122.71 260.053 119.548 260.053ZM124.631 254.46V250.788H122.387V259.849H124.631V256.313H126.705V254.46H124.631Z" fill="#222222"/>
<rect x="69.5" y="163.5" width="85" height="145" stroke="#253559"/>
<path d="M462.355 162.49C462.355 164.155 462.355 165.925 461.89 168.325L463.105 168.475C463.585 165.955 463.585 164.2 463.585 162.49V161.005H454.105V162.01H462.355V162.49ZM460.375 170.215V165.76H459.16V170.215H457.045V165.76H455.83V170.215H452.845V171.22H465.01V170.215H460.375ZM472.914 167.2C473.289 164.695 473.289 162.94 473.289 161.86V161.125H466.494V162.13H472.089C472.089 163.21 472.059 164.845 471.684 167.08L472.914 167.2ZM469.824 164.965H468.609V169.105C467.604 169.135 466.614 169.15 465.759 169.15L465.894 170.17C468.279 170.17 471.444 170.11 474.234 169.66L474.159 168.76C472.794 168.925 471.294 169.015 469.824 169.075V164.965ZM478.359 165.28H476.214V159.655H474.984V173.11H476.214V166.315H478.359V165.28ZM480.322 163.885C480.322 162.55 481.297 161.59 482.617 161.59C483.922 161.59 484.897 162.55 484.897 163.885C484.897 165.22 483.922 166.18 482.617 166.18C481.297 166.18 480.322 165.22 480.322 163.885ZM488.782 162.76V164.995H485.887C486.007 164.65 486.067 164.275 486.067 163.885C486.067 163.48 486.007 163.105 485.887 162.76H488.782ZM488.782 165.985V169.6H490.027V159.67H488.782V161.77H485.362C484.732 160.99 483.772 160.51 482.617 160.51C480.637 160.51 479.152 161.92 479.152 163.885C479.152 165.85 480.637 167.26 482.617 167.26C483.772 167.26 484.747 166.78 485.377 165.985H488.782ZM482.662 171.805V168.58H481.417V172.81H490.402V171.805H482.662ZM499.551 163.405H497.556C497.676 162.73 497.736 162.055 497.736 161.365H492.576V162.37H496.521C496.311 165.19 494.871 167.605 491.976 169.33L492.696 170.2C495.246 168.685 496.701 166.66 497.331 164.395H499.551V166.765H497.121V167.77H499.551V172.42H500.721V160.015H499.551V163.405ZM502.251 159.655V173.095H503.421V159.655H502.251ZM518.685 159.67H517.455V169.495H518.685V159.67ZM509.16 163.9C509.16 162.595 510.15 161.665 511.455 161.665C512.79 161.665 513.78 162.595 513.78 163.9C513.78 165.235 512.79 166.165 511.455 166.165C510.15 166.165 509.16 165.235 509.16 163.9ZM514.98 163.9C514.98 161.965 513.465 160.6 511.455 160.6C509.46 160.6 507.96 161.965 507.96 163.9C507.96 165.85 509.46 167.23 511.455 167.23C513.465 167.23 514.98 165.85 514.98 163.9ZM511.26 171.805V168.49H510.03V172.81H519.09V171.805H511.26ZM521.818 165.235C524.023 164.965 526.033 163.99 526.783 162.52C527.518 163.99 529.543 164.965 531.748 165.235L532.183 164.26C529.798 164.005 527.638 162.835 527.578 161.335H531.763V160.345H521.818V161.335H525.988C525.928 162.835 523.768 164.005 521.383 164.26L521.818 165.235ZM526.768 172.12C524.653 172.12 523.408 171.595 523.408 170.65C523.408 169.72 524.653 169.18 526.768 169.18C528.868 169.18 530.128 169.72 530.128 170.65C530.128 171.595 528.868 172.12 526.768 172.12ZM526.768 168.22C523.888 168.22 522.163 169.09 522.163 170.65C522.163 172.225 523.888 173.095 526.768 173.095C529.633 173.095 531.373 172.225 531.373 170.65C531.373 169.09 529.633 168.22 526.768 168.22ZM520.693 166.06V167.05H532.858V166.06H520.693ZM539.817 160.81C542.022 160.81 543.282 161.32 543.282 162.22C543.282 163.12 542.022 163.63 539.817 163.63C537.612 163.63 536.352 163.12 536.352 162.22C536.352 161.32 537.612 160.81 539.817 160.81ZM539.817 164.545C542.772 164.545 544.542 163.735 544.542 162.22C544.542 160.705 542.772 159.88 539.817 159.88C536.862 159.88 535.092 160.705 535.092 162.22C535.092 163.735 536.862 164.545 539.817 164.545ZM536.442 170.635H544.347V167.605H535.197V168.535H543.132V169.735H535.242V172.96H544.752V172H536.442V170.635ZM533.727 165.46V166.45H545.907V165.46H533.727ZM555.471 172.165C553.311 172.165 552.096 171.745 552.096 170.935C552.096 170.14 553.311 169.705 555.471 169.705C557.646 169.705 558.846 170.14 558.846 170.935C558.846 171.745 557.646 172.165 555.471 172.165ZM555.471 168.79C552.546 168.79 550.866 169.54 550.866 170.935C550.866 172.345 552.546 173.095 555.471 173.095C558.396 173.095 560.076 172.345 560.076 170.935C560.076 169.54 558.396 168.79 555.471 168.79ZM556.086 166.78V165.46H560.136V164.5H552.216V163.18H559.701V162.25H552.216V161.005H560.061V160.045H550.986V165.46H554.856V166.78H549.381V167.77H561.561V166.78H556.086ZM570.424 161.305H567.064V159.655H565.834V161.305H562.489V162.295H570.424V161.305ZM564.409 165.535C564.409 164.605 565.234 164.005 566.449 164.005C567.664 164.005 568.504 164.605 568.504 165.535C568.504 166.48 567.664 167.08 566.449 167.08C565.234 167.08 564.409 166.48 564.409 165.535ZM569.674 165.535C569.674 164.035 568.354 163.045 566.449 163.045C564.544 163.045 563.239 164.035 563.239 165.535C563.239 167.05 564.544 168.04 566.449 168.04C568.354 168.04 569.674 167.05 569.674 165.535ZM565.744 168.955H564.514V172.81H573.484V171.805H565.744V168.955ZM572.884 164.095V159.655H571.654V169.75H572.884V165.13H574.864V164.095H572.884ZM584.863 161.23H582.058V159.715H580.843V161.23H578.023V162.205H584.863V161.23ZM579.688 165.265C579.688 164.395 580.393 163.825 581.458 163.825C582.508 163.825 583.228 164.395 583.228 165.265C583.228 166.135 582.508 166.72 581.458 166.72C580.393 166.72 579.688 166.135 579.688 165.265ZM584.323 165.265C584.323 163.84 583.153 162.895 581.458 162.895C579.763 162.895 578.578 163.84 578.578 165.265C578.578 166.69 579.763 167.635 581.458 167.635C583.153 167.635 584.323 166.69 584.323 165.265ZM580.408 169.825H588.223V173.125H589.453V168.835H580.408V169.825ZM588.268 159.655V163.42H586.588V159.88H585.433V167.935H586.588V164.425H588.268V168.025H589.453V159.655H588.268ZM599.292 165.745C597.297 165.085 595.887 163.405 595.887 161.5V160.195H594.657V161.5C594.657 163.48 593.277 165.28 591.237 166.015L591.867 166.975C593.457 166.39 594.702 165.145 595.287 163.585C595.902 165.04 597.132 166.18 598.677 166.72L599.292 165.745ZM594.687 169.06H600.987V171.94H594.687V169.06ZM593.487 172.93H602.187V168.085H593.487V172.93ZM600.957 159.67V167.32H602.187V159.67H600.957ZM606.28 169.33H614.035V173.125H615.28V168.325H606.28V169.33ZM611.17 164.65C611.26 164.335 611.32 164.005 611.32 163.63C611.32 163.27 611.26 162.94 611.17 162.625H614.035V164.65H611.17ZM607.855 165.835C606.55 165.835 605.575 164.92 605.575 163.63C605.575 162.37 606.55 161.455 607.855 161.455C609.175 161.455 610.15 162.37 610.15 163.63C610.15 164.92 609.175 165.835 607.855 165.835ZM614.035 159.67V161.635H610.645C610.015 160.87 609.025 160.405 607.855 160.405C605.875 160.405 604.405 161.74 604.405 163.63C604.405 165.535 605.875 166.885 607.855 166.885C609.025 166.885 610 166.42 610.63 165.655H614.035V167.59H615.28V159.655L614.035 159.67ZM625.164 165.565C623.124 165.925 621.399 166 619.044 166V164.14H623.859V160.495H617.799V161.5H622.644V163.195H617.829V167.005H618.894C621.384 167.005 623.154 166.93 625.284 166.57L625.164 165.565ZM623.394 172.15C621.384 172.15 620.169 171.595 620.169 170.65C620.169 169.705 621.384 169.15 623.394 169.15C625.404 169.15 626.604 169.705 626.604 170.65C626.604 171.595 625.404 172.15 623.394 172.15ZM623.394 168.19C620.649 168.19 618.969 169.09 618.969 170.65C618.969 172.21 620.649 173.095 623.394 173.095C626.124 173.095 627.819 172.21 627.819 170.65C627.819 169.09 626.124 168.19 623.394 168.19ZM629.679 162.775V161.755H627.684V159.67H626.454V167.8H627.684V165.61H629.679V164.59H627.684V162.775H629.679ZM633.498 160.66V161.65H638.373C638.148 163.975 636.123 165.805 632.928 166.75L633.423 167.74C637.323 166.585 639.708 164.08 639.708 160.66H633.498ZM639.123 172.12C637.188 172.12 635.958 171.505 635.958 170.485C635.958 169.45 637.188 168.835 639.123 168.835C641.058 168.835 642.288 169.45 642.288 170.485C642.288 171.505 641.058 172.12 639.123 172.12ZM639.123 167.875C636.468 167.875 634.743 168.85 634.743 170.485C634.743 172.105 636.468 173.095 639.123 173.095C641.778 173.095 643.503 172.105 643.503 170.485C643.503 168.85 641.778 167.875 639.123 167.875ZM643.338 163.135V159.655H642.108V167.695H643.338V164.155H645.333V163.135H643.338ZM654.061 161.29H650.671V159.67H649.441V161.29H646.021V162.265H654.061V161.29ZM648.046 165.55C648.046 164.62 648.856 164.005 650.056 164.005C651.256 164.005 652.066 164.62 652.066 165.55C652.066 166.48 651.256 167.08 650.056 167.08C648.856 167.08 648.046 166.48 648.046 165.55ZM650.671 168.01C652.216 167.815 653.236 166.885 653.236 165.55C653.236 164.035 651.931 163.06 650.056 163.06C648.181 163.06 646.876 164.035 646.876 165.55C646.876 166.885 647.896 167.815 649.441 168.01V169.48C648.136 169.525 646.876 169.525 645.796 169.525L645.961 170.56C648.316 170.56 651.481 170.53 654.361 170.02L654.286 169.105C653.131 169.285 651.886 169.375 650.671 169.435V168.01ZM658.411 165.37H656.311V159.655H655.081V173.11H656.311V166.405H658.411V165.37Z" fill="#222222"/>
<path d="M51.3151 83.786C51.3151 82.511 52.1991 81.746 53.3721 81.746C54.5281 81.746 55.4291 82.511 55.4291 83.786C55.4291 85.061 54.5281 85.826 53.3721 85.826C52.1991 85.826 51.3151 85.061 51.3151 83.786ZM57.6051 83.786C57.6051 81.474 55.7521 79.808 53.3721 79.808C50.9751 79.808 49.1221 81.474 49.1221 83.786C49.1221 86.081 50.9751 87.764 53.3721 87.764C55.7521 87.764 57.6051 86.081 57.6051 83.786ZM53.4741 89.022H51.2301V94.19H61.8891V92.405H53.4741V89.022ZM61.3281 83.293V78.805H59.0841V90.195H61.3281V85.129H63.4021V83.293H61.3281ZM73.8557 84.483H75.0117V88.597H77.1367V78.805H75.0117V82.664H73.8557V79.094H71.7647V88.104H73.8557V84.483ZM71.3227 80.403H68.6197V78.975H66.4097V80.403H63.7067V82.137H71.3227V80.403ZM66.1547 85.367C66.1547 84.636 66.7157 84.245 67.5487 84.245C68.3817 84.245 68.9257 84.636 68.9257 85.367C68.9257 86.098 68.3817 86.506 67.5487 86.506C66.7157 86.506 66.1547 86.098 66.1547 85.367ZM70.9147 85.367C70.9147 83.752 69.5207 82.647 67.5487 82.647C65.5597 82.647 64.1657 83.752 64.1657 85.367C64.1657 86.982 65.5597 88.104 67.5487 88.104C69.5207 88.104 70.9147 86.982 70.9147 85.367ZM71.8327 92.796C69.7417 92.796 68.6877 92.439 68.6877 91.623C68.6877 90.807 69.7417 90.45 71.8327 90.45C73.9237 90.45 74.9777 90.807 74.9777 91.623C74.9777 92.439 73.9237 92.796 71.8327 92.796ZM71.8327 88.767C68.4667 88.767 66.4437 89.804 66.4437 91.623C66.4437 93.442 68.4667 94.462 71.8327 94.462C75.1987 94.462 77.2217 93.442 77.2217 91.623C77.2217 89.804 75.1987 88.767 71.8327 88.767ZM81.8274 96.434L83.3914 95.771C81.9634 93.289 81.3174 90.433 81.3174 87.628C81.3174 84.857 81.9634 81.984 83.3914 79.502L81.8274 78.839C80.2294 81.457 79.2944 84.245 79.2944 87.628C79.2944 91.045 80.2294 93.799 81.8274 96.434ZM93.3692 90.807H94.8992V92.014H93.3692V90.807ZM94.8992 86.506H93.3692V85.35H94.8992V86.506ZM94.8992 89.243H93.3692V88.07H94.8992V89.243ZM90.0542 84.092C90.4452 83.225 90.7852 82.324 91.0572 81.423L89.6802 81.083H92.6212C92.0942 82.902 91.1932 84.636 90.0542 85.826V84.092ZM87.0622 81.083H89.1532C88.6942 82.715 87.9632 84.296 87.0452 85.52C87.0622 85.129 87.0622 84.772 87.0622 84.432V81.083ZM99.6932 92.014H96.7352V90.807H98.8942V89.243H96.7352V88.07H98.8942V86.506H96.7352V85.35H99.4042V83.616H96.9222C97.2282 83.004 97.5512 82.29 97.8572 81.593L95.8342 81.151C95.6982 81.865 95.4092 82.851 95.1372 83.616H93.6242C93.9132 82.936 94.1852 82.222 94.4062 81.508L92.7742 81.083H99.5572V79.213H85.1752V84.432C85.1752 87.101 85.0732 90.892 83.7982 93.51C84.2912 93.68 85.1242 94.139 85.5152 94.445C86.4672 92.473 86.8412 89.702 86.9942 87.237C87.1982 87.577 87.4022 87.917 87.5042 88.121C87.7422 87.883 87.9632 87.611 88.1842 87.322V94.479H90.0542V86.268C90.3942 86.693 90.8362 87.322 91.0062 87.662C91.1762 87.492 91.3462 87.322 91.4992 87.118V94.462H93.3692V93.748H99.6932V92.014ZM115.435 79.57H107.173V81.491H115.435V79.57ZM103.909 78.601C103.093 79.791 101.478 81.321 100.067 82.222C100.424 82.613 100.934 83.429 101.189 83.871C102.804 82.749 104.64 80.998 105.864 79.4L103.909 78.601ZM104.555 82.273C103.467 84.194 101.614 86.166 99.8802 87.356C100.288 87.781 100.968 88.699 101.257 89.107C101.716 88.733 102.175 88.308 102.651 87.849V94.496H104.674V85.622C105.354 84.772 105.983 83.888 106.493 83.021L104.555 82.273ZM115.86 84.245H106.459V86.166H111.474V92.082C111.474 92.337 111.355 92.405 111.049 92.405C110.743 92.422 109.621 92.422 108.652 92.371C108.924 92.966 109.179 93.833 109.264 94.428C110.777 94.428 111.865 94.394 112.579 94.088C113.327 93.782 113.531 93.221 113.531 92.133V86.166H115.86V84.245ZM118.155 96.434C119.77 93.799 120.705 91.045 120.705 87.628C120.705 84.245 119.77 81.457 118.155 78.839L116.608 79.502C118.036 81.984 118.682 84.857 118.682 87.628C118.682 90.433 118.036 93.289 116.608 95.771L118.155 96.434ZM137.391 88.903C137.918 85.741 137.918 83.582 137.918 81.661V80.148H126.409V81.933H135.674C135.674 83.735 135.657 85.843 135.147 88.682L137.391 88.903ZM134.076 90.773V85.826H131.883V90.773H130.217V85.826H128.007V90.773H125.032V92.575H139.21V90.773H134.076ZM146.892 80.845C149.034 80.845 150.258 81.304 150.258 82.188C150.258 83.106 149.034 83.548 146.892 83.548C144.767 83.548 143.543 83.106 143.543 82.188C143.543 81.304 144.767 80.845 146.892 80.845ZM146.892 85.282C150.343 85.282 152.57 84.109 152.57 82.188C152.57 80.301 150.343 79.128 146.892 79.128C143.458 79.128 141.231 80.301 141.231 82.188C141.231 84.109 143.458 85.282 146.892 85.282ZM148.371 89.328H145.396V87.883H148.371V89.328ZM153.964 87.883V86.098H139.82V87.883H143.152V89.328H141.384V91.079H150.02V94.479H152.264V89.328H150.598V87.883H153.964Z" fill="#222222"/>
<path d="M22.4653 199.222C22.4653 201.109 22.4653 203.115 21.9383 205.835L23.3153 206.005C23.8593 203.149 23.8593 201.16 23.8593 199.222V197.539H13.1153V198.678H22.4653V199.222ZM20.2213 207.977V202.928H18.8443V207.977H16.4473V202.928H15.0703V207.977H11.6873V209.116H25.4743V207.977H20.2213ZM28.125 200.497C28.125 199.069 29.213 198.083 30.743 198.083C32.256 198.083 33.361 199.069 33.361 200.497C33.361 201.925 32.256 202.928 30.743 202.928C29.213 202.928 28.125 201.925 28.125 200.497ZM34.721 200.497C34.721 198.389 33.038 196.927 30.743 196.927C28.431 196.927 26.765 198.389 26.765 200.497C26.765 202.622 28.431 204.101 30.743 204.101C33.038 204.101 34.721 202.622 34.721 200.497ZM33.463 210.136C31.202 210.136 29.825 209.473 29.825 208.385C29.825 207.28 31.202 206.634 33.463 206.634C35.707 206.634 37.084 207.28 37.084 208.385C37.084 209.473 35.707 210.136 33.463 210.136ZM33.463 205.529C30.369 205.529 28.431 206.566 28.431 208.385C28.431 210.187 30.369 211.241 33.463 211.241C36.54 211.241 38.478 210.187 38.478 208.385C38.478 206.566 36.54 205.529 33.463 205.529ZM40.535 199.426V198.287H38.325V196.026H36.931V205.053H38.325V202.69H40.535V201.534H38.325V199.426H40.535ZM15.071 221.222C15.071 223.109 15.071 225.115 14.544 227.835L15.921 228.005C16.465 225.149 16.465 223.16 16.465 221.222V219.539H5.72099V220.678H15.071V221.222ZM12.827 229.977V224.928H11.45V229.977H9.05299V224.928H7.67599V229.977H4.29299V231.116H18.08V229.977H12.827ZM27.0377 226.56C27.4627 223.721 27.4627 221.732 27.4627 220.508V219.675H19.7617V220.814H26.1027C26.1027 222.038 26.0687 223.891 25.6437 226.424L27.0377 226.56ZM23.5357 224.027H22.1587V228.719C21.0197 228.753 19.8977 228.77 18.9287 228.77L19.0817 229.926C21.7847 229.926 25.3717 229.858 28.5337 229.348L28.4487 228.328C26.9017 228.515 25.2017 228.617 23.5357 228.685V224.027ZM33.2087 224.384H30.7777V218.009H29.3837V233.258H30.7777V225.557H33.2087V224.384ZM35.4003 229.569H44.5633V233.275H45.9573V228.447H35.4003V229.569ZM36.9983 219.743H44.5123V222.701H36.9983V219.743ZM41.4693 225.744V223.806H45.8893V218.638H35.6383V223.806H40.0753V225.744H33.8533V226.866H47.6573V225.744H41.4693ZM24.8113 245.823C22.0403 245.415 19.3203 243.528 19.3203 241.403V240.553H17.8583V241.403C17.8583 243.579 15.1723 245.415 12.4013 245.823L12.9623 246.945C15.3423 246.537 17.6373 245.228 18.5893 243.375C19.5753 245.211 21.8703 246.537 24.2333 246.945L24.8113 245.823ZM25.4743 248.594H11.7043V249.75H17.8583V255.275H19.2523V249.75H25.4913L25.4743 248.594ZM27.156 241.148V242.27H32.681C32.426 244.905 30.131 246.979 26.51 248.05L27.071 249.172C31.491 247.863 34.194 245.024 34.194 241.148H27.156ZM33.531 254.136C31.338 254.136 29.944 253.439 29.944 252.283C29.944 251.11 31.338 250.413 33.531 250.413C35.724 250.413 37.118 251.11 37.118 252.283C37.118 253.439 35.724 254.136 33.531 254.136ZM33.531 249.325C30.522 249.325 28.567 250.43 28.567 252.283C28.567 254.119 30.522 255.241 33.531 255.241C36.54 255.241 38.495 254.119 38.495 252.283C38.495 250.43 36.54 249.325 33.531 249.325ZM38.308 243.953V240.009H36.914V249.121H38.308V245.109H40.569V243.953H38.308ZM5.10899 263.641V264.797H10.702C10.379 268.401 8.28799 271.325 4.39499 273.28L5.15999 274.368C10.09 271.903 12.079 267.976 12.079 263.641H5.10899ZM18.471 268.197H16.023V262.009H14.629V277.258H16.023V269.353H18.471V268.197ZM30.1657 262.009V277.292H31.5597V262.009H30.1657ZM23.5187 263.182C21.2577 263.182 19.6427 265.256 19.6427 268.503C19.6427 271.75 21.2577 273.824 23.5187 273.824C25.7797 273.824 27.3947 271.75 27.3947 268.503C27.3947 265.256 25.7797 263.182 23.5187 263.182ZM23.5187 264.44C24.9977 264.44 26.0517 266.038 26.0517 268.503C26.0517 270.985 24.9977 272.583 23.5187 272.583C22.0227 272.583 20.9687 270.985 20.9687 268.503C20.9687 266.038 22.0227 264.44 23.5187 264.44ZM46.0933 269.319H36.9983V264.559H45.9403V263.403H35.6213V270.458H46.0933V269.319ZM33.8533 274.045V275.201H47.6913V274.045H33.8533Z" fill="#666666"/>
<path d="M1081.47 199.222C1081.47 201.109 1081.47 203.115 1080.94 205.835L1082.32 206.005C1082.86 203.149 1082.86 201.16 1082.86 199.222V197.539H1072.12V198.678H1081.47V199.222ZM1079.22 207.977V202.928H1077.84V207.977H1075.45V202.928H1074.07V207.977H1070.69V209.116H1084.47V207.977H1079.22ZM1087.13 200.497C1087.13 199.069 1088.21 198.083 1089.74 198.083C1091.26 198.083 1092.36 199.069 1092.36 200.497C1092.36 201.925 1091.26 202.928 1089.74 202.928C1088.21 202.928 1087.13 201.925 1087.13 200.497ZM1093.72 200.497C1093.72 198.389 1092.04 196.927 1089.74 196.927C1087.43 196.927 1085.77 198.389 1085.77 200.497C1085.77 202.622 1087.43 204.101 1089.74 204.101C1092.04 204.101 1093.72 202.622 1093.72 200.497ZM1092.46 210.136C1090.2 210.136 1088.83 209.473 1088.83 208.385C1088.83 207.28 1090.2 206.634 1092.46 206.634C1094.71 206.634 1096.08 207.28 1096.08 208.385C1096.08 209.473 1094.71 210.136 1092.46 210.136ZM1092.46 205.529C1089.37 205.529 1087.43 206.566 1087.43 208.385C1087.43 210.187 1089.37 211.241 1092.46 211.241C1095.54 211.241 1097.48 210.187 1097.48 208.385C1097.48 206.566 1095.54 205.529 1092.46 205.529ZM1099.54 199.426V198.287H1097.33V196.026H1095.93V205.053H1097.33V202.69H1099.54V201.534H1097.33V199.426H1099.54ZM1074.38 218.009V233.275H1075.77V218.009H1074.38ZM1064.16 219.301V229.586H1071.33V219.301H1069.96V223.33H1065.54V219.301H1064.16ZM1065.54 224.435H1069.96V228.447H1065.54V224.435ZM1088.86 221.222C1088.86 223.109 1088.86 225.115 1088.33 227.835L1089.71 228.005C1090.25 225.149 1090.25 223.16 1090.25 221.222V219.539H1079.51V220.678H1088.86V221.222ZM1086.62 229.977V224.928H1085.24V229.977H1082.84V224.928H1081.46V229.977H1078.08V231.116H1091.87V229.977H1086.62ZM1100.83 226.56C1101.25 223.721 1101.25 221.732 1101.25 220.508V219.675H1093.55V220.814H1099.89C1099.89 222.038 1099.86 223.891 1099.43 226.424L1100.83 226.56ZM1097.32 224.027H1095.95V228.719C1094.81 228.753 1093.69 228.77 1092.72 228.77L1092.87 229.926C1095.57 229.926 1099.16 229.858 1102.32 229.348L1102.24 228.328C1100.69 228.515 1098.99 228.617 1097.32 228.685V224.027ZM1107 224.384H1104.57V218.009H1103.17V233.258H1104.57V225.557H1107V224.384ZM1079.75 241.165H1076.08V239.856H1074.68V241.165H1070.99V242.168H1079.75V241.165ZM1073.14 244.65C1073.14 243.97 1074 243.562 1075.38 243.562C1076.74 243.562 1077.61 243.97 1077.61 244.65C1077.61 245.33 1076.74 245.755 1075.38 245.755C1074 245.755 1073.14 245.33 1073.14 244.65ZM1080.21 247.183C1078.9 247.353 1077.47 247.472 1076.08 247.54V246.639C1077.83 246.486 1078.93 245.772 1078.93 244.65C1078.93 243.392 1077.52 242.644 1075.38 242.644C1073.2 242.644 1071.81 243.392 1071.81 244.65C1071.81 245.789 1072.91 246.503 1074.68 246.639V247.574C1073.22 247.625 1071.81 247.625 1070.62 247.625L1070.77 248.662C1073.44 248.662 1077.05 248.645 1080.29 248.067L1080.21 247.183ZM1074.04 252.793H1082.5V249.682H1072.63V250.668H1081.13V251.858H1072.68V255.088H1083.08V254.085H1074.04V252.793ZM1082.5 243.902V240.009H1081.11V249.019H1082.5V245.075H1084.75V243.902H1082.5ZM1092.38 254.17C1089.96 254.17 1088.55 253.575 1088.55 252.504C1088.55 251.433 1089.96 250.838 1092.38 250.838C1094.76 250.838 1096.17 251.433 1096.17 252.504C1096.17 253.575 1094.76 254.17 1092.38 254.17ZM1092.38 249.75C1089.11 249.75 1087.14 250.736 1087.14 252.504C1087.14 254.272 1089.11 255.258 1092.38 255.258C1095.61 255.258 1097.58 254.272 1097.58 252.504C1097.58 250.736 1095.61 249.75 1092.38 249.75ZM1093.08 247.54V245.772H1097.67V244.65H1088.6V241.828H1097.56V240.706H1087.21V245.772H1091.68V247.54H1085.48V248.662H1099.28V247.54H1093.08ZM1064.11 263.641V264.797H1069.7C1069.38 268.401 1067.29 271.325 1063.39 273.28L1064.16 274.368C1069.09 271.903 1071.08 267.976 1071.08 263.641H1064.11ZM1077.47 268.197H1075.02V262.009H1073.63V277.258H1075.02V269.353H1077.47V268.197ZM1089.17 262.009V277.292H1090.56V262.009H1089.17ZM1082.52 263.182C1080.26 263.182 1078.64 265.256 1078.64 268.503C1078.64 271.75 1080.26 273.824 1082.52 273.824C1084.78 273.824 1086.39 271.75 1086.39 268.503C1086.39 265.256 1084.78 263.182 1082.52 263.182ZM1082.52 264.44C1084 264.44 1085.05 266.038 1085.05 268.503C1085.05 270.985 1084 272.583 1082.52 272.583C1081.02 272.583 1079.97 270.985 1079.97 268.503C1079.97 266.038 1081.02 264.44 1082.52 264.44ZM1105.09 269.319H1096V264.559H1104.94V263.403H1094.62V270.458H1105.09V269.319ZM1092.85 274.045V275.201H1106.69V274.045H1092.85Z" fill="#666666"/>
<path d="M941.251 86.557C943.988 86.183 945.909 85.01 946.844 83.412C947.779 85.01 949.7 86.183 952.437 86.557L953.236 84.806C950.057 84.415 948.408 82.885 948.187 81.389H952.624V79.604H941.013V81.389H945.518C945.297 82.885 943.631 84.415 940.435 84.806L941.251 86.557ZM953.916 87.458H939.772V89.243H945.671V94.496H947.915V89.243H953.916V87.458ZM960.613 80.012H958.369V82.29C958.369 85.333 957.077 88.359 954.34 89.532L955.683 91.385C957.553 90.501 958.828 88.818 959.525 86.727C960.222 88.648 961.429 90.195 963.231 91.011L964.506 89.192C961.854 88.053 960.613 85.197 960.613 82.29V80.012ZM965.271 78.788V94.496H967.515V78.788H965.271ZM980.179 83.072V84.517H976.728V86.319H980.179V87.815H982.423V78.805H980.179V81.287H977.374C977.442 80.828 977.476 80.352 977.476 79.859H970.302V81.661H975.028C974.739 83.786 973.022 85.469 969.452 86.421L970.319 88.189C973.77 87.22 975.963 85.537 976.932 83.072H980.179ZM977.255 92.643C975.317 92.643 974.178 92.15 974.178 91.198C974.178 90.246 975.317 89.753 977.255 89.753C979.176 89.753 980.315 90.246 980.315 91.198C980.315 92.15 979.176 92.643 977.255 92.643ZM977.255 88.019C974.059 88.019 971.968 89.243 971.968 91.198C971.968 93.153 974.059 94.377 977.255 94.377C980.434 94.377 982.525 93.153 982.525 91.198C982.525 89.243 980.434 88.019 977.255 88.019ZM999.482 88.903C1000.01 85.741 1000.01 83.582 1000.01 81.661V80.148H988.5V81.933H997.765C997.765 83.735 997.748 85.843 997.238 88.682L999.482 88.903ZM996.167 90.773V85.826H993.974V90.773H992.308V85.826H990.098V90.773H987.123V92.575H1001.3V90.773H996.167ZM1004.22 83.463C1004.22 82.256 1005.09 81.542 1006.28 81.542C1007.45 81.542 1008.34 82.256 1008.34 83.463C1008.34 84.653 1007.45 85.367 1006.28 85.367C1005.09 85.367 1004.22 84.653 1004.22 83.463ZM1010.51 83.463C1010.51 81.236 1008.68 79.655 1006.28 79.655C1003.87 79.655 1002.03 81.236 1002.03 83.463C1002.03 85.656 1003.87 87.254 1006.28 87.254C1008.68 87.254 1010.51 85.656 1010.51 83.463ZM1009.12 92.711C1007.11 92.711 1006.04 92.286 1006.04 91.368C1006.04 90.467 1007.11 90.025 1009.12 90.025C1011.11 90.025 1012.18 90.467 1012.18 91.368C1012.18 92.286 1011.11 92.711 1009.12 92.711ZM1009.12 88.274C1005.87 88.274 1003.82 89.43 1003.82 91.368C1003.82 93.323 1005.87 94.462 1009.12 94.462C1012.35 94.462 1014.41 93.323 1014.41 91.368C1014.41 89.43 1012.35 88.274 1009.12 88.274ZM1016.24 82.562V80.726H1014.24V78.805H1011.99V87.934H1014.24V85.962H1016.24V84.126H1014.24V82.562H1016.24ZM1019.35 82.426H1022.94V80.607H1017.14V90.943H1018.23C1020.24 90.943 1021.9 90.875 1023.81 90.518L1023.64 88.699C1022.14 88.971 1020.81 89.056 1019.35 89.09V82.426ZM1028.01 78.788V84.823H1026.59V79.094H1024.5V93.731H1026.59V86.625H1028.01V94.462H1030.13V78.788H1028.01ZM1040.7 80.182H1037.22V78.72H1034.96V80.182H1031.49V81.95H1040.7V80.182ZM1034.4 85.316C1034.4 84.534 1035.08 84.143 1036.1 84.143C1037.1 84.143 1037.8 84.534 1037.8 85.316C1037.8 86.115 1037.1 86.506 1036.1 86.506C1035.08 86.506 1034.4 86.115 1034.4 85.316ZM1039.94 85.316C1039.94 83.616 1038.36 82.443 1036.1 82.443C1033.85 82.443 1032.25 83.616 1032.25 85.316C1032.25 87.033 1033.85 88.206 1036.1 88.206C1038.36 88.206 1039.94 87.033 1039.94 85.316ZM1033.38 91.062H1041.57V94.479H1043.81V89.26H1033.38V91.062ZM1045.89 82.834H1043.81V78.822H1041.57V88.614H1043.81V84.687H1045.89V82.834ZM1050.84 91.113H1059.48V94.479H1061.72V89.328H1050.84V91.113ZM1053.22 81.168H1059.43V83.191H1053.22V81.168ZM1057.46 86.421V84.959H1061.64V79.417H1051.01V84.959H1055.21V86.421H1049.28V88.206H1063.42V86.421H1057.46ZM1069.78 88.002H1072.48V90.943H1069.78V88.002ZM1069.52 81.831H1072.72V86.234H1069.52V81.831ZM1074.71 90.943V88.002H1077.04V86.234H1074.95V81.831H1077.07V80.046H1065.17V81.831H1067.3V86.234H1065.26V88.002H1067.55V90.943H1064.05V92.745H1078.25V90.943H1074.71Z" fill="#222222"/>
<rect x="368" y="439" width="3" height="55" fill="#C4CEEC"/>
<rect x="1104" y="439" width="3" height="55" fill="#C4CEEC"/>
<rect y="439" width="3" height="55" fill="#C4CEEC"/>
<rect x="736" y="439" width="3" height="55" fill="#C4CEEC"/>
<path d="M554.5 293.938L580.914 322.531H528.086L554.5 293.938Z" fill="#E5E9F5"/>
<defs>
<linearGradient id="paint0_linear_235:1369" x1="975.406" y1="236" x2="892.552" y2="236" gradientUnits="userSpaceOnUse">
<stop stop-color="#D7DCEB"/>
<stop offset="1" stop-color="#D7D9EB" stop-opacity="0"/>
</linearGradient>
<linearGradient id="paint1_linear_235:1369" x1="135.594" y1="236" x2="218.448" y2="236" gradientUnits="userSpaceOnUse">
<stop stop-color="#D7DCEB"/>
<stop offset="1" stop-color="#D7D9EB" stop-opacity="0"/>
</linearGradient>
</defs>
</svg>
