<svg xmlns="http://www.w3.org/2000/svg" xmlns:xlink="http://www.w3.org/1999/xlink" width="1920" height="1080" viewBox="0 0 1920 1080">
  <defs>
    <radialGradient id="radial-gradient" cx="0.487" cy="0.602" r="0.836" gradientTransform="translate(0.26 27.601) scale(0.466 0.632)" gradientUnits="objectBoundingBox">
      <stop offset="0" stop-color="#71a6c9"/>
      <stop offset="0.173" stop-color="#75bfcb"/>
      <stop offset="0.377" stop-color="#84bdd2"/>
      <stop offset="0.597" stop-color="#9bc3de"/>
      <stop offset="0.825" stop-color="#bcdfef"/>
      <stop offset="1" stop-color="#dbf1ff"/>
    </radialGradient>
    <linearGradient id="linear-gradient" y1="0.5" x2="1" y2="0.5" gradientUnits="objectBoundingBox">
      <stop offset="0" stop-color="#dbf5ff"/>
      <stop offset="0.286" stop-color="#c0e2f1"/>
      <stop offset="0.898" stop-color="#7cb1cf"/>
      <stop offset="1" stop-color="#71b1c9"/>
    </linearGradient>
    <clipPath id="clip-test">
      <rect width="1920" height="1080"/>
    </clipPath>
  </defs>
  <g id="test" clip-path="url(#clip-test)">
    <rect width="1920" height="1080" fill="#fff"/>
    <g id="그룹_1736" data-name="그룹 1736" transform="translate(0)" opacity="0.76">
      <g id="그룹_1735" data-name="그룹 1735" transform="translate(144)">
        <rect id="사각형_2852" data-name="사각형 2852" width="1919.794" height="1080" transform="translate(-144 0)" fill="#fff"/>
        <g id="그룹_1734" data-name="그룹 1734" transform="translate(469.934)">
          <path id="패스_6769" data-name="패스 6769" d="M1355.234,58.973v604.02H59.476c21.041-16.247,51.042-31.106,92.52-43.56,90.679-27.248,128.226-59.839,139.542-95.958,22.987-73.181-61.712-160.7-30.4-246.735,46.772-128.509,392.258-49.686,489.58-135.095,152.795-134.078,249.463-24.714,408.5-6.594C1201.495,139.862,1238.2,95.648,1355.234,58.973Z" transform="translate(-49.371 417.007)" fill="url(#radial-gradient)"/>
          <path id="패스_6770" data-name="패스 6770" d="M1364.087,59.675V658.029H58.224c23.947-59.541,165.111-91.309,242.167-139.518,16-9.976,29.25-20.686,38.1-32.519,59.25-79.081-71.72-102.148,24.948-214.184s261.941,9.887,489.579-98.847,177.743,88.968,396.027-49.428C1291.584,96.576,1329.906,75.753,1364.087,59.675Z" transform="translate(-58.224 421.971)" fill="url(#linear-gradient)"/>
        </g>
      </g>
      <ellipse id="타원_216" data-name="타원 216" cx="458.946" cy="60.693" rx="458.946" ry="60.693" transform="translate(755.048 830.876)" fill="#4d4d4d" opacity="0.28" style="mix-blend-mode: color-burn;isolation: isolate"/>
    </g>
  </g>
</svg>
