<svg width="51" height="82" viewBox="0 0 51 82" fill="none" xmlns="http://www.w3.org/2000/svg">
<path d="M20.7632 64.446H22.7612V68.694H25.4072V70.422H22.7612V75.462C22.7612 75.618 22.6592 75.726 22.4552 75.786C22.2632 75.846 22.0292 75.876 21.7532 75.876C21.0932 75.876 20.7632 75.738 20.7632 75.462V64.446ZM14.6072 80.844C14.4032 80.844 14.1692 80.76 13.9052 80.592C13.6532 80.424 13.4312 80.238 13.2392 80.034C13.0592 79.854 12.8972 79.65 12.7532 79.422C12.6092 79.194 12.5372 78.996 12.5372 78.828V74.958H14.5352V78.504C14.5352 78.9 14.7212 79.098 15.0932 79.098H22.6892C22.9772 79.098 23.1212 79.392 23.1212 79.98C23.1212 80.292 23.0792 80.514 22.9952 80.646C22.9232 80.778 22.8212 80.844 22.6892 80.844H14.6072ZM12.5552 73.122C12.3512 73.122 12.1172 73.038 11.8532 72.87C11.6012 72.702 11.3792 72.516 11.1872 72.312C11.0072 72.132 10.8452 71.928 10.7012 71.7C10.5572 71.472 10.4852 71.274 10.4852 71.106V65.04H12.4832V70.89C12.4832 71.058 12.5132 71.184 12.5732 71.268C12.6332 71.352 12.7592 71.394 12.9512 71.394H18.8372C19.1252 71.394 19.2692 71.682 19.2692 72.258C19.2692 72.834 19.1252 73.122 18.8372 73.122H12.5552ZM38.712 77.478C38.712 78.066 38.598 78.6 38.37 79.08C38.154 79.572 37.848 79.986 37.452 80.322C37.068 80.67 36.612 80.934 36.084 81.114C35.568 81.306 35.01 81.402 34.41 81.402C33.81 81.402 33.246 81.306 32.718 81.114C32.202 80.934 31.746 80.67 31.35 80.322C30.966 79.986 30.66 79.572 30.432 79.08C30.216 78.6 30.108 78.066 30.108 77.478C30.108 76.89 30.216 76.356 30.432 75.876C30.66 75.384 30.966 74.97 31.35 74.634C31.746 74.286 32.202 74.022 32.718 73.842C33.246 73.65 33.81 73.554 34.41 73.554C35.01 73.554 35.568 73.65 36.084 73.842C36.612 74.022 37.068 74.286 37.452 74.634C37.848 74.97 38.154 75.384 38.37 75.876C38.598 76.356 38.712 76.89 38.712 77.478ZM28.506 64.77V67.092H32.466V64.77H34.464V71.394C34.464 71.766 34.374 72.06 34.194 72.276C34.026 72.48 33.756 72.582 33.384 72.582H28.578C28.374 72.582 28.14 72.498 27.876 72.33C27.624 72.162 27.402 71.976 27.21 71.772C27.03 71.592 26.868 71.388 26.724 71.16C26.58 70.932 26.508 70.734 26.508 70.566V64.77H28.506ZM37.146 64.446H39.144V67.74H41.79V69.468H39.144V73.176C39.144 73.344 39.054 73.458 38.874 73.518C38.706 73.566 38.466 73.59 38.154 73.59C37.842 73.59 37.596 73.56 37.416 73.5C37.236 73.44 37.146 73.326 37.146 73.158V64.446ZM32.088 77.478C32.088 78.114 32.292 78.642 32.7 79.062C33.12 79.482 33.69 79.692 34.41 79.692C35.13 79.692 35.694 79.482 36.102 79.062C36.522 78.642 36.732 78.114 36.732 77.478C36.732 76.842 36.522 76.314 36.102 75.894C35.694 75.474 35.13 75.264 34.41 75.264C33.69 75.264 33.12 75.474 32.7 75.894C32.292 76.314 32.088 76.842 32.088 77.478ZM32.466 70.854V68.82H28.506V70.332C28.506 70.536 28.542 70.674 28.614 70.746C28.686 70.818 28.83 70.854 29.046 70.854H32.466Z" fill="#747474"/>
<path d="M26.0588 24.1765V5.41174C26.0588 2.91175 24.147 1 21.647 1C19.147 1 17.2353 2.91175 17.2353 5.41174V24.1765C15.3235 25.5001 14 27.853 14 30.353C14 34.6177 17.3823 38 21.647 38C25.9117 38 29.294 34.6177 29.294 30.353C29.294 27.853 27.9705 25.5001 26.0588 24.1765Z" fill="#747474" stroke="#747474" stroke-miterlimit="10" stroke-linecap="round" stroke-linejoin="round"/>
<path d="M21.646 33.4409C23.2704 33.4409 24.5872 32.1241 24.5872 30.4998C24.5872 28.8754 23.2704 27.5586 21.646 27.5586C20.0216 27.5586 18.7048 28.8754 18.7048 30.4998C18.7048 32.1241 20.0216 33.4409 21.646 33.4409Z" fill="white" stroke="white" stroke-miterlimit="10" stroke-linecap="round" stroke-linejoin="round"/>
<path d="M31.7935 5.46875H36.3523" stroke="#747474" stroke-width="3" stroke-miterlimit="10" stroke-linecap="round" stroke-linejoin="round"/>
<path d="M31.7935 10.9104H36.3523" stroke="#747474" stroke-width="3" stroke-miterlimit="10" stroke-linecap="round" stroke-linejoin="round"/>
<path d="M31.7935 16.353H36.3523" stroke="#747474" stroke-width="3" stroke-miterlimit="10" stroke-linecap="round" stroke-linejoin="round"/>
</svg>
