<svg xmlns="http://www.w3.org/2000/svg" viewBox="0 0 24 24"><defs><style>.cls-1{fill:#fff;stroke:#fff;stroke-miterlimit:10;stroke-width:0.2px;}</style></defs><title>icon-02</title><g id="ico"><path class="cls-1" d="M17.12,20.8H6.88A1.19,1.19,0,0,1,5.7,19.61V6.39A1.18,1.18,0,0,1,6.88,5.2a.17.17,0,0,1,0,.34A.85.85,0,0,0,6,6.39V19.61a.85.85,0,0,0,.84.85H17.12a.85.85,0,0,0,.84-.85V6.39a.85.85,0,0,0-.84-.85.17.17,0,1,1,0-.34A1.18,1.18,0,0,1,18.3,6.39V19.61A1.19,1.19,0,0,1,17.12,20.8Z"/><path class="cls-1" d="M16.91,19.61H7.09a.16.16,0,0,1-.16-.17V4.1a.16.16,0,0,1,.16-.16H8.75a.16.16,0,0,1,.17.16.16.16,0,0,1-.17.17H7.26v15h9.48v-15H15.25a.17.17,0,0,1-.17-.17.17.17,0,0,1,.17-.16h1.66a.17.17,0,0,1,.17.16V19.44A.17.17,0,0,1,16.91,19.61Z"/><path class="cls-1" d="M10.52,8.56H8.66a.17.17,0,0,1-.17-.17V7.55a.16.16,0,0,1,.17-.17.17.17,0,0,1,.17.17v.67h1.52V7.29a.16.16,0,0,1,.17-.17.16.16,0,0,1,.16.17v1.1A.17.17,0,0,1,10.52,8.56Z"/><path class="cls-1" d="M10.52,13.05H8.66a.16.16,0,0,1-.17-.16V11a.16.16,0,0,1,.17-.17h1.86a.16.16,0,0,1,.16.17v1.86A.16.16,0,0,1,10.52,13.05Zm-1.69-.33h1.52V11.2H8.83Z"/><path class="cls-1" d="M10.52,17.55H8.66a.16.16,0,0,1-.17-.17V15.52a.16.16,0,0,1,.17-.16h1.86a.16.16,0,0,1,.16.16v1.86A.16.16,0,0,1,10.52,17.55Zm-1.69-.34h1.52V15.69H8.83Z"/><path class="cls-1" d="M13.75,6.7H11.66a.16.16,0,0,1-.17-.17.17.17,0,0,1,.17-.17h2.09a.17.17,0,0,1,.16.17A.16.16,0,0,1,13.75,6.7Z"/><path class="cls-1" d="M14.86,7.63h-3.2a.17.17,0,1,1,0-.34h3.2a.17.17,0,0,1,0,.34Z"/><path class="cls-1" d="M13.75,11.2H11.66a.17.17,0,0,1-.17-.17.16.16,0,0,1,.17-.17h2.09a.16.16,0,0,1,.16.17A.17.17,0,0,1,13.75,11.2Z"/><path class="cls-1" d="M14.86,12.13h-3.2a.17.17,0,0,1-.17-.17.16.16,0,0,1,.17-.17h3.2A.16.16,0,0,1,15,12,.17.17,0,0,1,14.86,12.13Z"/><path class="cls-1" d="M13.75,15.69H11.66a.16.16,0,0,1-.17-.17.16.16,0,0,1,.17-.16h2.09a.16.16,0,0,1,.16.16A.16.16,0,0,1,13.75,15.69Z"/><path class="cls-1" d="M14.86,16.62h-3.2a.16.16,0,0,1-.17-.17.17.17,0,0,1,.17-.17h3.2a.17.17,0,0,1,.17.17A.16.16,0,0,1,14.86,16.62Z"/><path class="cls-1" d="M9.57,7.83a.17.17,0,0,1-.14-.08L8.71,6.63a.16.16,0,0,1,0-.23.18.18,0,0,1,.24,0l.71,1.12a.17.17,0,0,1-.05.23A.16.16,0,0,1,9.57,7.83Z"/><path class="cls-1" d="M9.57,7.83a.16.16,0,0,1-.09,0,.17.17,0,0,1-.05-.23l1.19-1.86a.17.17,0,0,1,.29.18L9.71,7.75A.16.16,0,0,1,9.57,7.83Z"/><path class="cls-1" d="M15.25,4.86H8.75a.17.17,0,0,1-.17-.16V4.11a1,1,0,0,1,1-1h4.86a1,1,0,0,1,1,1V4.7A.17.17,0,0,1,15.25,4.86ZM8.92,4.53h6.16V4.11a.65.65,0,0,0-.65-.65H9.57a.65.65,0,0,0-.65.65Z"/></g></svg>