<svg width="46" height="61" viewBox="0 0 46 61" fill="none" xmlns="http://www.w3.org/2000/svg">
<path d="M36.2342 60.99H9.76585C4.38036 60.99 0 56.6097 0 51.2242V28.7888C0 23.4033 4.38036 19.0229 9.76585 19.0229H36.2342C41.6196 19.0229 46 23.4033 46 28.7888V51.2242C46 56.6097 41.6196 60.99 36.2342 60.99ZM9.76585 22.7456C6.44025 22.7456 3.72269 25.4508 3.72269 28.7888V51.2242C3.72269 54.5498 6.42784 57.2674 9.76585 57.2674H36.2342C39.5598 57.2674 42.2773 54.5622 42.2773 51.2242V28.7888C42.2773 25.4632 39.5722 22.7456 36.2342 22.7456H9.76585Z" fill="#A3A6A9"/>
<path d="M34.273 22.7457C33.243 22.7457 32.4116 21.9143 32.4116 20.8843V13.3273C32.4116 8.14034 28.1926 3.9213 23.0056 3.9213C17.8187 3.9213 13.5996 8.14034 13.5996 13.3273V20.8843C13.5996 21.9143 12.7682 22.7457 11.7383 22.7457C10.7084 22.7457 9.87695 21.9143 9.87695 20.8843V13.3273C9.87695 6.08046 15.7712 0.198608 23.0056 0.198608C30.2525 0.198608 36.1343 6.09287 36.1343 13.3273V20.8843C36.1343 21.9143 35.3029 22.7457 34.273 22.7457Z" fill="#A3A6A9"/>
<path d="M23.0059 46.3226C21.9759 46.3226 21.1445 45.4912 21.1445 44.4613V35.5517C21.1445 34.5217 21.9759 33.6903 23.0059 33.6903C24.0358 33.6903 24.8672 34.5217 24.8672 35.5517V44.4613C24.8672 45.4912 24.0234 46.3226 23.0059 46.3226Z" fill="#A3A6A9"/>
</svg>
