<svg width="25" height="23" viewBox="0 0 25 23" fill="none" xmlns="http://www.w3.org/2000/svg">
<path d="M10.6783 16.5234L11.1451 17.8021L12.7511 17.1814L12.2842 15.9027C12.8206 15.5897 13.3053 15.1169 13.6839 14.59L14.9581 15.1337L15.6669 13.6016L14.3932 13.0048C14.5591 12.4226 14.5656 11.7857 14.4654 11.1477L15.8032 10.6836L15.1796 9.08483L13.8418 9.54895C13.5273 9.01494 13.0523 8.53239 12.5757 8.20906L13.1757 6.88815L11.6366 6.18246L11.0371 7.45029C10.399 7.28456 9.75916 7.27805 9.11829 7.3777L8.59862 6.0454L6.99266 6.66604L7.51233 7.99833C6.97593 8.31136 6.49176 8.73108 6.11315 9.25803L4.8395 8.66119L4.13074 10.1933L5.40439 10.7902C5.23797 11.4254 5.23149 12.0623 5.33218 12.6472L4.04774 13.1119L4.67134 14.7106L5.95578 14.246C6.27028 14.78 6.69196 15.262 7.22134 15.6389L6.67522 16.9073L8.21384 17.6661L8.75941 16.4508C9.39759 16.6165 10.0374 16.623 10.6783 16.5234ZM7.57902 11.927C7.59197 10.6532 8.66909 9.6025 9.94867 9.61552C11.2283 9.62853 12.2838 10.7009 12.2708 11.9747C12.2579 13.2485 11.1808 14.2991 9.90118 14.2861C8.62159 14.2731 7.56606 13.2007 7.57902 11.927Z" stroke="#2EBDA3" stroke-linecap="round" stroke-linejoin="round"/>
<path d="M20.9083 1.00049H4C2.34315 1.00049 1 2.34364 1 4.00049V18.9998C1 20.6566 2.34314 21.9998 4 21.9998H6.72708H18.1812H20.9083C22.5652 21.9998 23.9083 20.6566 23.9083 18.9998V4.00049C23.9083 2.34363 22.5652 1.00049 20.9083 1.00049Z" stroke="#2EBDA3"/>
<line x1="18.1602" y1="1" x2="18.1602" y2="21.8257" stroke="#2EBDA3"/>
<line x1="17.6602" y1="7.78906" x2="23.9079" y2="7.78906" stroke="#2EBDA3"/>
<line x1="17.6602" y1="15.0781" x2="23.9079" y2="15.0781" stroke="#2EBDA3"/>
</svg>
