<svg id="온실가스" xmlns="http://www.w3.org/2000/svg" xmlns:xlink="http://www.w3.org/1999/xlink" viewBox="0 0 448 128"><defs><style>.cls-1{fill:url(#linear-gradient);}.cls-2{opacity:0.14;}.cls-3{fill:#fff;}</style><linearGradient id="linear-gradient" x1="2.2" y1="-3.52" x2="433.99" y2="127.92" gradientUnits="userSpaceOnUse"><stop offset="0" stop-color="#173354"/><stop offset="1" stop-color="#212326"/></linearGradient></defs><rect class="cls-1" width="448" height="128"/><g id="그룹_901" data-name="그룹 901"><g id="그룹_892" data-name="그룹 892" class="cls-2"><path id="패스_1068" data-name="패스 1068" class="cls-3" d="M114.14,26.52a2,2,0,0,1-2.6,3.08,42.1,42.1,0,0,0-7.32-4.11A41.59,41.59,0,1,0,128.28,72.3a2,2,0,1,1,3.95.84h0a45.69,45.69,0,1,1-61.36-52h0a45.81,45.81,0,0,1,43,5.21A2.61,2.61,0,0,1,114.14,26.52Z"/></g><g id="그룹_893" data-name="그룹 893" class="cls-2"><path id="패스_1070" data-name="패스 1070" class="cls-3" d="M73.88,4.86a1.9,1.9,0,0,1,0,3.68c-.87.21-1.74.44-2.6.69a1.9,1.9,0,0,1-1.06-3.65c.92-.27,1.85-.51,2.78-.74A1.83,1.83,0,0,1,73.88,4.86Zm-11.35,4a1.89,1.89,0,0,1,.32,3.55c-.81.39-1.61.79-2.39,1.21a1.9,1.9,0,0,1-1.79-3.35c.84-.45,1.69-.88,2.56-1.29a1.89,1.89,0,0,1,1.3-.12ZM52.26,15.11a1.9,1.9,0,0,1,.66,3.34q-1.06.82-2.1,1.68a1.9,1.9,0,1,1-2.45-2.91c.74-.61,1.48-1.21,2.25-1.79a1.85,1.85,0,0,1,1.64-.32Zm-8.77,8.24a1.76,1.76,0,0,1,.75.4,1.9,1.9,0,0,1,.2,2.68c-.59.67-1.16,1.37-1.71,2.07a1.9,1.9,0,0,1-3-2.34c.59-.76,1.2-1.5,1.82-2.22A1.9,1.9,0,0,1,43.49,23.35ZM36.6,33.22a1.75,1.75,0,0,1,.43.17A1.89,1.89,0,0,1,37.77,36c-.44.79-.85,1.58-1.25,2.39a1.9,1.9,0,0,1-3.41-1.69c.43-.86.87-1.7,1.34-2.54a1.89,1.89,0,0,1,2.15-.91ZM145.4,65.56a1.9,1.9,0,0,1,1.4,2c-.07,1-.16,1.91-.27,2.86a1.9,1.9,0,0,1-3.78-.45c.11-.89.19-1.78.26-2.68a1.89,1.89,0,0,1,2-1.76A2.25,2.25,0,0,1,145.4,65.56ZM31.88,44.29l.07,0a1.9,1.9,0,0,1,1.26,2.37c-.2.65-.39,1.31-.57,2l-.17.62a1.9,1.9,0,0,1-3.68-.94l.18-.66c.19-.71.39-1.41.6-2.11A1.9,1.9,0,0,1,31.88,44.29ZM143.29,77.41a1.9,1.9,0,0,1,1.34,2.34v0c-.27.92-.56,1.84-.86,2.74a1.9,1.9,0,0,1-3.6-1.22c.29-.85.56-1.71.81-2.57A1.88,1.88,0,0,1,143.29,77.41ZM29.56,56.1a1.91,1.91,0,0,1,1.4,2c-.08.89-.14,1.78-.18,2.68a1.9,1.9,0,1,1-3.8-.13v0c0-1,.11-1.91.19-2.86A1.9,1.9,0,0,1,29.23,56h0a1.91,1.91,0,0,1,.33.06ZM138.78,88.57a1.9,1.9,0,0,1,1.35,2.32,2.05,2.05,0,0,1-.16.41c-.45.84-.92,1.68-1.41,2.5a1.9,1.9,0,0,1-3.27-1.94c.46-.77.9-1.55,1.32-2.35A1.9,1.9,0,0,1,138.78,88.57Zm-109-20.43a1.89,1.89,0,0,1,1.39,1.61c.11.9.23,1.79.38,2.67a1.9,1.9,0,1,1-3.75.62c-.16-.94-.29-1.89-.4-2.84A1.89,1.89,0,0,1,29,68.09h0A2,2,0,0,1,29.73,68.14ZM132.07,98.56a1.91,1.91,0,0,1,1.34,2.33,2,2,0,0,1-.37.72c-.61.74-1.24,1.46-1.89,2.17a1.9,1.9,0,0,1-2.8-2.57h0c.6-.66,1.19-1.34,1.77-2A1.89,1.89,0,0,1,132.07,98.56ZM32.35,79.88a1.92,1.92,0,0,1,1.31,1.24c.28.85.59,1.69.91,2.52A1.9,1.9,0,0,1,31,85c-.34-.9-.67-1.8-1-2.71a1.9,1.9,0,0,1,1.2-2.41,1.92,1.92,0,0,1,1.09,0ZM123.46,107a1.91,1.91,0,0,1,1.34,2.33,2,2,0,0,1-.66,1c-.75.59-1.51,1.17-2.29,1.73a1.9,1.9,0,0,1-2.21-3.09h0c.73-.53,1.44-1.07,2.14-1.62A1.91,1.91,0,0,1,123.46,107ZM37.34,90.83a1.88,1.88,0,0,1,1.14.87c.46.78.93,1.54,1.42,2.29a1.9,1.9,0,0,1-3.11,2.17l-.06-.09c-.53-.8-1-1.61-1.52-2.44a1.9,1.9,0,0,1,2.13-2.8Zm76,22.58a1.9,1.9,0,0,1,.35,3.54c-.85.42-1.72.83-2.6,1.21a1.9,1.9,0,1,1-1.52-3.48q1.23-.54,2.43-1.14A1.94,1.94,0,0,1,113.3,113.41Zm-68.81-12.9a1.83,1.83,0,0,1,.91.55c.61.67,1.23,1.31,1.86,2a1.9,1.9,0,0,1-2.67,2.69c-.68-.67-1.34-1.37-2-2.07a1.9,1.9,0,0,1,.13-2.69,1.87,1.87,0,0,1,1.77-.43ZM102,117.61a1.89,1.89,0,0,1,1.35,2.32,1.93,1.93,0,0,1-1.36,1.36c-.93.23-1.86.45-2.8.65a1.9,1.9,0,1,1-.77-3.72c.88-.19,1.75-.39,2.62-.61A1.84,1.84,0,0,1,102,117.61Zm-48.54-9.1a1.87,1.87,0,0,1,.62.3c.73.52,1.47,1,2.22,1.52a1.9,1.9,0,1,1-2.07,3.18c-.81-.52-1.6-1.06-2.38-1.62a1.9,1.9,0,0,1,1.61-3.38Zm36.64,10.9a1.9,1.9,0,0,1-.4,3.73c-1,0-1.92.07-2.87.07a1.9,1.9,0,0,1,0-3.8h0c.9,0,1.79,0,2.69-.06A1.85,1.85,0,0,1,90.12,119.41Zm-26.2-4.91.28.1c.82.37,1.65.71,2.48,1a1.9,1.9,0,0,1-1.37,3.54c-.9-.35-1.78-.72-2.65-1.1a1.9,1.9,0,0,1,1.26-3.58Zm14.19,4.23a1.9,1.9,0,0,1-.8,3.71c-1-.16-1.89-.33-2.83-.53a1.9,1.9,0,0,1,.79-3.72c.88.19,1.76.36,2.65.5Z"/></g><g id="그룹_895" data-name="그룹 895" class="cls-2"><g id="그룹_875" data-name="그룹 875"><g id="그룹_872" data-name="그룹 872"><path id="패스_1080" data-name="패스 1080" class="cls-3" d="M76.85,75.61H74.06A4.08,4.08,0,0,1,70,71.54V65a4.09,4.09,0,0,1,4.08-4.08h2.79A4.09,4.09,0,0,1,80.93,65H78.6a1.75,1.75,0,0,0-1.75-1.75h-2.8A1.74,1.74,0,0,0,72.31,65v6.54a1.75,1.75,0,0,0,1.74,1.75h2.8a1.75,1.75,0,0,0,1.75-1.75h2.33A4.08,4.08,0,0,1,76.85,75.61Z"/></g><g id="그룹_873" data-name="그룹 873"><path id="패스_1081" data-name="패스 1081" class="cls-3" d="M88.74,75.61h-2.8a4.08,4.08,0,0,1-4.08-4.07V65a4.1,4.1,0,0,1,4.08-4.08h2.8A4.08,4.08,0,0,1,92.81,65v6.54A4.07,4.07,0,0,1,88.74,75.61Zm-2.8-12.36A1.75,1.75,0,0,0,84.19,65v6.54a1.75,1.75,0,0,0,1.75,1.75h2.8a1.76,1.76,0,0,0,1.75-1.75V65a1.76,1.76,0,0,0-1.75-1.75Z"/></g><g id="그룹_874" data-name="그룹 874"><path id="패스_1082" data-name="패스 1082" class="cls-3" d="M101.22,80.57H93.88V78.74a3.24,3.24,0,0,1,2-3l2.47-1.07a.94.94,0,0,0,.57-.86v-.73a.94.94,0,0,0-.94-.93h-.8a.94.94,0,0,0-.94.93v1.17H93.88V73.09a3.26,3.26,0,0,1,3.27-3.26H98a3.28,3.28,0,0,1,3.27,3.26v.73a3.26,3.26,0,0,1-2,3l-2.47,1.07a.93.93,0,0,0-.42.36h4.86Z"/></g></g><g id="그룹_876" data-name="그룹 876"><path id="패스_1083" data-name="패스 1083" class="cls-3" d="M109.3,77.26h-1.16V74.93h1.16a6.75,6.75,0,0,0,.86-13.44l-.85-.11-.15-.83a5.27,5.27,0,0,0-9.22-2.43l-1.08,1.3L98,57.94a2.76,2.76,0,0,0-3.75-1.1h0l-1.15.64-.49-1.22a6.72,6.72,0,0,0-8.76-3.71,6.24,6.24,0,0,0-1,.48l-1,.61-.59-1a6.74,6.74,0,0,0-11.79.18l-.46.86-.93-.31a2.84,2.84,0,0,0-.87-.15A2.79,2.79,0,0,0,64.46,56a1.94,1.94,0,0,0,0,.24l0,.12.14,1.06-1,.22a6.75,6.75,0,0,0-1.81,12.51l.78.43-.22.87a2.75,2.75,0,0,0-.1.7A2.79,2.79,0,0,0,65,74.93h1.16v2.33H65a5.12,5.12,0,0,1-5.12-5.12,2.68,2.68,0,0,1,0-.4,9.07,9.07,0,0,1,2.21-16.11,5.09,5.09,0,0,1,5.42-4.74l.37,0a9.07,9.07,0,0,1,12.58-2.46,8.93,8.93,0,0,1,2.18,2.07,9.05,9.05,0,0,1,11.59,3.81,5.13,5.13,0,0,1,4.89,1.29,7.58,7.58,0,0,1,12.08,3.7,9.08,9.08,0,0,1-2,17.94Z"/></g></g></g></svg>