<svg id="Layer_1" data-name="Layer 1" xmlns="http://www.w3.org/2000/svg" viewBox="0 0 24 24"><defs><style>.cls-1{fill:none;stroke:#6e7173;stroke-miterlimit:10;stroke-width:1.25px;}.cls-2{fill:#6e7173;}</style></defs><title>minus-2</title><line class="cls-1" x1="12.59" y1="13.22" x2="18.3" y2="18.93"/><path class="cls-2" d="M11.66,10.3H7.32a.5.5,0,0,1,0-1h4.34a.5.5,0,0,1,0,1Z"/><path class="cls-2" d="M9.49,15a5.23,5.23,0,0,1-4-1.83,5.23,5.23,0,0,1,.57-7.37,5.24,5.24,0,0,1,7.37.57,5.23,5.23,0,0,1-.57,7.37A5.24,5.24,0,0,1,9.49,15Zm0-9.45A4.21,4.21,0,0,0,5.28,9.47,4.21,4.21,0,0,0,9.49,14a4.21,4.21,0,0,0,4.21-3.89,4.21,4.21,0,0,0-1-3.08A4.26,4.26,0,0,0,9.49,5.58Z"/></svg>