<?xml version="1.0" encoding="utf-8"?>
<!-- Generator: Adobe Illustrator 24.0.1, SVG Export Plug-In . SVG Version: 6.00 Build 0)  -->
<svg version="1.1" id="레이어_1" xmlns="http://www.w3.org/2000/svg" xmlns:xlink="http://www.w3.org/1999/xlink" x="0px"
	 y="0px" viewBox="0 0 247 393" style="enable-background:new 0 0 247 393;" xml:space="preserve">
<style type="text/css">
	.st0{enable-background:new    ;}
	.st1{clip-path:url(#SVGID_2_);enable-background:new    ;}
	.st2{fill:#F78C54;}
	.st3{clip-path:url(#SVGID_4_);enable-background:new    ;}
	.st4{fill:#F78254;}
	.st5{clip-path:url(#SVGID_6_);enable-background:new    ;}
	.st6{fill:#ED724C;}
	.st7{clip-path:url(#SVGID_8_);enable-background:new    ;}
	.st8{fill:#EF8152;}
	.st9{clip-path:url(#SVGID_10_);enable-background:new    ;}
	.st10{fill:#FF9961;}
	.st11{fill:#FC5B14;stroke:#FFC5AE;stroke-width:3;stroke-miterlimit:10;}
</style>
<g>
	<g class="st0">
		<defs>
			<path id="SVGID_1_" class="st0" d="M182.7,191l45.8,26.6c-0.4-0.2-0.8-0.4-1.3-0.5l-45.8-26.6C181.9,190.6,182.3,190.8,182.7,191
				z"/>
		</defs>
		<use xlink:href="#SVGID_1_"  style="overflow:visible;fill:#F78C54;"/>
		<clipPath id="SVGID_2_">
			<use xlink:href="#SVGID_1_"  style="overflow:visible;"/>
		</clipPath>
		<g class="st1">
			<path class="st2" d="M227.2,217.1l-45.8-26.6c0.1,0,0.2,0.1,0.4,0.1l45.8,26.6C227.4,217.2,227.3,217.2,227.2,217.1"/>
			<path class="st2" d="M227.6,217.2l-45.8-26.6c0.2,0,0.3,0.1,0.5,0.2l45.8,26.6C227.9,217.3,227.7,217.3,227.6,217.2"/>
			<path class="st2" d="M228,217.4l-45.8-26.6c0.1,0.1,0.3,0.1,0.4,0.2l45.8,26.6C228.3,217.5,228.2,217.5,228,217.4"/>
			<path class="st2" d="M228.4,217.6L182.6,191c0,0,0,0,0,0L228.4,217.6C228.5,217.6,228.4,217.6,228.4,217.6"/>
		</g>
	</g>
	<g class="st0">
		<defs>
			<path id="SVGID_3_" class="st0" d="M163.6,332.5l-45.8-26.6c-2.4-1.4-3.7-3.6-3.7-6.4l45.8,26.6
				C159.9,328.9,161.1,331.1,163.6,332.5z"/>
		</defs>
		<use xlink:href="#SVGID_3_"  style="overflow:visible;fill:#F78254;"/>
		<clipPath id="SVGID_4_">
			<use xlink:href="#SVGID_3_"  style="overflow:visible;"/>
		</clipPath>
		<g class="st3">
			<path class="st4" d="M163.6,332.5l-45.8-26.6c-2.4-1.4-3.7-3.6-3.7-6.4l45.8,26.6C159.9,328.9,161.1,331.1,163.6,332.5"/>
		</g>
	</g>
	<g class="st0">
		<defs>
			<path id="SVGID_5_" class="st0" d="M210.7,223.7l-45.8-26.6c8.5-4.9,14-7.1,16.5-6.6l45.8,26.6
				C224.7,216.6,219.2,218.8,210.7,223.7z"/>
		</defs>
		<use xlink:href="#SVGID_5_"  style="overflow:visible;fill:#F78C54;"/>
		<clipPath id="SVGID_6_">
			<use xlink:href="#SVGID_5_"  style="overflow:visible;"/>
		</clipPath>
		<g class="st5">
			<path class="st2" d="M210.7,223.7l-45.8-26.6c4-2.3,7.3-4,10-5.1l45.8,26.6C218,219.7,214.7,221.4,210.7,223.7"/>
			<path class="st2" d="M220.7,218.6L174.9,192c1.2-0.5,2.3-0.9,3.2-1.1l45.8,26.6C223,217.7,221.9,218.1,220.7,218.6"/>
			<path class="st2" d="M223.9,217.5l-45.8-26.6c0.5-0.1,1-0.2,1.4-0.3l45.8,26.6C224.9,217.2,224.4,217.3,223.9,217.5"/>
			<path class="st2" d="M225.3,217.2l-45.8-26.6c0.3,0,0.6-0.1,0.8-0.1l45.8,26.6C225.9,217.1,225.6,217.1,225.3,217.2"/>
			<path class="st2" d="M226.1,217.1l-45.8-26.6c0.2,0,0.4,0,0.6,0l45.8,26.6C226.5,217.1,226.3,217.1,226.1,217.1"/>
			<path class="st2" d="M226.7,217.1l-45.8-26.6c0.1,0,0.3,0,0.4,0l45.8,26.6C227,217.1,226.8,217.1,226.7,217.1"/>
			<path class="st2" d="M227.1,217.1l-45.8-26.6c0,0,0.1,0,0.1,0L227.1,217.1C227.2,217.1,227.1,217.1,227.1,217.1"/>
		</g>
	</g>
	<g>
		<polygon class="st2" points="199.9,229.9 154.1,203.3 164.9,197.1 210.7,223.7 		"/>
	</g>
	<g>
		<polygon class="st4" points="159.9,326.1 114.1,299.5 114,266.3 159.8,292.9 		"/>
	</g>
	<g>
		<polygon class="st2" points="114,279.5 68.2,252.9 113.9,226.6 159.7,253.2 		"/>
	</g>
	<g>
		<polygon class="st6" points="159.7,253.2 113.9,226.6 113.6,134.4 159.4,161 		"/>
	</g>
	<g class="st0">
		<defs>
			<path id="SVGID_7_" class="st0" d="M68.4,340l-45.8-26.6c-1.6-0.9-2.9-2.5-4-4.6c-3.3-6.5-2.7-14.7,1.8-24.5l45.8,26.6
				c-4.5,9.8-5.1,18-1.8,24.5C65.5,337.5,66.8,339,68.4,340z"/>
		</defs>
		<use xlink:href="#SVGID_7_"  style="overflow:visible;fill:#EF8152;"/>
		<clipPath id="SVGID_8_">
			<use xlink:href="#SVGID_7_"  style="overflow:visible;"/>
		</clipPath>
		<g class="st7">
			<path class="st8" d="M68.4,340l-45.8-26.6c-1.6-0.9-2.9-2.5-4-4.6c-1.8-3.7-2.4-7.8-1.8-12.5l45.8,26.6c-0.6,4.7,0,8.9,1.8,12.5
				C65.5,337.5,66.8,339,68.4,340"/>
			<path class="st8" d="M62.6,322.8l-45.8-26.6c0.1-0.8,0.3-1.7,0.4-2.6L63,320.3C62.8,321.1,62.7,322,62.6,322.8"/>
			<path class="st8" d="M63,320.3l-45.8-26.6c0.2-0.7,0.3-1.4,0.5-2.2l45.8,26.6C63.4,318.8,63.2,319.5,63,320.3"/>
			<path class="st8" d="M63.6,318.1l-45.8-26.6c0.2-0.7,0.4-1.4,0.6-2.1L64.2,316C64,316.7,63.8,317.4,63.6,318.1"/>
			<path class="st8" d="M64.2,316l-45.8-26.6c0.2-0.7,0.5-1.4,0.7-2.1L64.9,314C64.7,314.7,64.4,315.3,64.2,316"/>
			<path class="st8" d="M64.9,314l-45.8-26.6c0.3-0.7,0.6-1.4,0.9-2.1l45.8,26.6C65.5,312.6,65.2,313.3,64.9,314"/>
			<path class="st8" d="M65.8,311.8L20,285.2c0.1-0.3,0.3-0.7,0.4-1l45.8,26.6C66.1,311.2,66,311.5,65.8,311.8"/>
		</g>
	</g>
	<g>
		<polygon class="st2" points="66.3,310.8 20.5,284.2 92.2,98.9 137.9,125.5 		"/>
	</g>
	<g class="st0">
		<defs>
			<path id="SVGID_9_" class="st0" d="M149.9,50.1l45.8,26.6c-0.4-0.2-0.8-0.4-1.3-0.6c-3.4-1.4-8.6-0.2-15.4,3.8
				C166.5,87,158,92.9,153.4,97.6c-4.6,4.7-9.7,14-15.5,27.9L92.2,98.9C97.9,85.1,103,75.8,107.6,71c4.6-4.7,13.1-10.7,25.5-17.8
				c6.8-3.9,12-5.2,15.4-3.8C149,49.6,149.5,49.8,149.9,50.1z"/>
		</defs>
		<use xlink:href="#SVGID_9_"  style="overflow:visible;fill:#F78C54;"/>
		<clipPath id="SVGID_10_">
			<use xlink:href="#SVGID_9_"  style="overflow:visible;"/>
		</clipPath>
		<g class="st9">
			<path class="st2" d="M137.9,125.5L92.2,98.9c0.6-1.4,1.2-2.8,1.7-4.1l45.8,26.6C139.1,122.7,138.5,124.1,137.9,125.5"/>
			<path class="st2" d="M139.7,121.4L93.9,94.8c1.1-2.5,2.1-4.8,3.2-6.9l45.8,26.6C141.8,116.6,140.8,118.9,139.7,121.4"/>
			<path class="st2" d="M142.8,114.5L97.1,87.9c0.8-1.7,1.6-3.2,2.4-4.7l45.8,26.6C144.4,111.3,143.6,112.8,142.8,114.5"/>
			<path class="st2" d="M145.2,109.8L99.4,83.2c0.6-1.2,1.3-2.3,1.9-3.4l45.8,26.6C146.5,107.5,145.8,108.6,145.2,109.8"/>
			<path class="st2" d="M147.1,106.5l-45.8-26.6c0.5-0.9,1-1.8,1.6-2.6l45.8,26.6C148.1,104.7,147.6,105.6,147.1,106.5"/>
			<path class="st2" d="M148.6,103.9l-45.8-26.6c0.5-0.7,0.9-1.4,1.4-2l45.8,26.6C149.6,102.5,149.1,103.2,148.6,103.9"/>
			<path class="st10" d="M150,101.9l-45.8-26.6c0.4-0.6,0.8-1.2,1.2-1.7l45.8,26.6C150.8,100.7,150.4,101.3,150,101.9"/>
			<path class="st10" d="M151.2,100.2l-45.8-26.6c0.4-0.5,0.8-1,1.2-1.5l45.8,26.6C152.1,99.2,151.7,99.6,151.2,100.2"/>
			<path class="st10" d="M152.5,98.7l-45.8-26.6c0.3-0.4,0.6-0.7,1-1c0.2-0.2,0.4-0.4,0.6-0.6L154,97.1c-0.2,0.2-0.4,0.4-0.6,0.6
				C153.1,98,152.8,98.3,152.5,98.7"/>
			<path class="st10" d="M154,97.1l-45.8-26.6c4.7-4.6,13-10.4,24.9-17.3c1.9-1.1,3.7-2,5.4-2.7l45.8,26.6c-1.7,0.7-3.4,1.6-5.4,2.7
				C167,86.7,158.7,92.5,154,97.1"/>
			<path class="st10" d="M184.3,77.1l-45.8-26.6c1.1-0.5,2.2-0.8,3.1-1.1L187.4,76C186.5,76.3,185.4,76.7,184.3,77.1"/>
			<path class="st10" d="M187.4,76l-45.8-26.6c0.7-0.2,1.3-0.3,1.9-0.4l45.8,26.6C188.7,75.7,188.1,75.9,187.4,76"/>
			<path class="st10" d="M189.4,75.6L143.6,49c0.5-0.1,0.9-0.1,1.4-0.1l45.8,26.6C190.3,75.5,189.8,75.6,189.4,75.6"/>
			<path class="st10" d="M190.8,75.5L145,48.9c0.4,0,0.7,0,1.1,0l45.8,26.6C191.5,75.5,191.1,75.5,190.8,75.5"/>
			<path class="st10" d="M191.9,75.5l-45.8-26.6c0.3,0,0.6,0.1,0.9,0.1l45.8,26.6C192.5,75.5,192.2,75.5,191.9,75.5"/>
			<path class="st10" d="M192.8,75.6L147,49c0.3,0,0.6,0.1,0.8,0.2l45.8,26.6C193.3,75.7,193.1,75.7,192.8,75.6"/>
			<path class="st10" d="M193.6,75.8l-45.8-26.6c0.3,0.1,0.5,0.2,0.7,0.3c0,0,0,0,0,0l45.8,26.6c0,0,0,0,0,0
				C194.1,75.9,193.9,75.9,193.6,75.8"/>
			<path class="st10" d="M194.4,76.1l-45.8-26.6c0.4,0.2,0.8,0.4,1.2,0.6l45.8,26.6C195.2,76.4,194.8,76.2,194.4,76.1"/>
			<path class="st10" d="M195.5,76.6L149.7,50c0,0,0.1,0,0.1,0.1l45.8,26.6C195.6,76.7,195.6,76.6,195.5,76.6"/>
		</g>
	</g>
	<g>
		<path class="st11" d="M227.2,217.1c2.5,0.5,3.8,2.8,3.8,7c0,7-2.3,14.8-7.1,23.2c-4.8,8.4-10.3,14.5-16.6,18.1l-7.3,4.2l0.1,33.2
			c0,3.3-1.7,7.6-5.2,13c-3.5,5.3-8.5,9.9-15,13.6c-6.7,3.9-11.7,5.1-15,3.7c-3.3-1.4-5-3.7-5-7l-0.1-33.2l-78.3,45.2
			c-8.1,4.7-13.8,3.8-17.1-2.7c-3.3-6.5-2.7-14.7,1.8-24.5l71.7-185.3c5.7-13.9,10.9-23.2,15.5-27.9c4.6-4.7,13.1-10.7,25.5-17.8
			c6.8-3.9,12-5.2,15.4-3.8c3.4,1.4,5.1,3.9,5.2,7.4l0.4,146.5l10.8-6.2C219.2,218.8,224.7,216.6,227.2,217.1z M159.7,253.2
			l-0.3-92.2L114,279.5L159.7,253.2"/>
	</g>
</g>
</svg>
