<?xml version="1.0" encoding="utf-8"?>
<!-- Generator: Adobe Illustrator 24.0.1, SVG Export Plug-In . SVG Version: 6.00 Build 0)  -->
<svg version="1.1" id="레이어_1" xmlns="http://www.w3.org/2000/svg" xmlns:xlink="http://www.w3.org/1999/xlink" x="0px"
	 y="0px" viewBox="0 0 247 393" style="enable-background:new 0 0 247 393;" xml:space="preserve">
<style type="text/css">
	.st0{enable-background:new    ;}
	.st1{clip-path:url(#SVGID_2_);enable-background:new    ;}
	.st2{fill:#9C380C;}
	.st3{fill:#A13A0D;}
	.st4{fill:#F78C54;}
	.st5{clip-path:url(#SVGID_4_);enable-background:new    ;}
	.st6{clip-path:url(#SVGID_6_);enable-background:new    ;}
	.st7{fill:#FC5B14;stroke:#FFC5AE;stroke-width:3;stroke-miterlimit:10;}
</style>
<g>
	<g class="st0">
		<defs>
			<path id="SVGID_1_" class="st0" d="M128.9,295.5l-44.6-25.9c5.2,3,11.4,2.5,18.4-1.5c0.2-0.1,0.3-0.2,0.5-0.3
				c11.4-6.8,20.1-19.5,26.1-38.1l44.6,25.9c-6,18.6-14.7,31.3-26.1,38.1c-0.2,0.1-0.3,0.2-0.5,0.3
				C140.2,298,134.1,298.5,128.9,295.5z"/>
		</defs>
		<use xlink:href="#SVGID_1_"  style="overflow:visible;fill:#F78C54;"/>
		<clipPath id="SVGID_2_">
			<use xlink:href="#SVGID_1_"  style="overflow:visible;"/>
		</clipPath>
		<g class="st1">
			<path class="st2" d="M128.9,295.5l-44.6-25.9c0.1,0,0.1,0.1,0.2,0.1l44.6,25.9C129,295.6,128.9,295.5,128.9,295.5"/>
			<path class="st3" d="M129,295.6l-44.6-25.9c0.5,0.3,1,0.5,1.6,0.8l44.6,25.9C130.1,296.1,129.6,295.9,129,295.6"/>
			<path class="st4" d="M130.6,296.4L86,270.5c0.5,0.2,1,0.4,1.5,0.5l44.6,25.9C131.6,296.8,131.1,296.6,130.6,296.4"/>
			<path class="st4" d="M132.1,296.9L87.5,271c0.5,0.1,1,0.3,1.5,0.3l44.6,25.9C133.1,297.2,132.6,297,132.1,296.9"/>
			<path class="st4" d="M133.6,297.2L89,271.3c0.5,0.1,1,0.1,1.5,0.2l44.6,25.9C134.6,297.4,134.1,297.3,133.6,297.2"/>
			<path class="st4" d="M135.2,297.4l-44.6-25.9c0.5,0,1.1,0,1.6,0l44.6,25.9C136.2,297.5,135.7,297.5,135.2,297.4"/>
			<path class="st4" d="M136.8,297.4l-44.6-25.9c0.6,0,1.2-0.1,1.8-0.2l44.6,25.9C138,297.4,137.4,297.4,136.8,297.4"/>
			<path class="st4" d="M138.6,297.3L94,271.4c0.7-0.1,1.4-0.3,2.1-0.5l44.6,25.9C140,297,139.3,297.2,138.6,297.3"/>
			<path class="st4" d="M140.7,296.8l-44.6-25.9c0.9-0.3,1.9-0.6,2.9-1l44.6,25.9C142.6,296.2,141.6,296.6,140.7,296.8"/>
			<path class="st4" d="M143.6,295.8L99,269.9c1.2-0.5,2.4-1.1,3.7-1.8c0.2-0.1,0.3-0.2,0.5-0.3c2.9-1.8,5.7-3.9,8.3-6.5l44.6,25.9
				c-2.6,2.5-5.4,4.7-8.3,6.5c-0.2,0.1-0.3,0.2-0.5,0.3C146,294.7,144.8,295.3,143.6,295.8"/>
			<path class="st4" d="M156,287.3l-44.6-25.9c0.9-0.9,1.8-1.8,2.7-2.8l44.6,25.9C157.8,285.4,157,286.4,156,287.3"/>
			<path class="st4" d="M158.7,284.4l-44.6-25.9c0.7-0.8,1.3-1.6,2-2.4l44.6,25.9C160,282.9,159.4,283.7,158.7,284.4"/>
			<path class="st4" d="M160.7,282l-44.6-25.9c0.6-0.8,1.2-1.5,1.7-2.3l44.6,25.9C161.8,280.5,161.3,281.3,160.7,282"/>
			<path class="st4" d="M162.4,279.7l-44.6-25.9c0.5-0.8,1.1-1.5,1.6-2.3l44.6,25.9C163.5,278.2,162.9,278.9,162.4,279.7"/>
			<path class="st4" d="M164,277.4l-44.6-25.9c0.5-0.8,1-1.6,1.5-2.5l44.6,25.9C165,275.7,164.5,276.6,164,277.4"/>
			<path class="st4" d="M165.5,274.9L120.9,249c0.5-0.9,1-1.8,1.5-2.7l44.6,25.9C166.5,273.1,166,274,165.5,274.9"/>
			<path class="st4" d="M167,272.2l-44.6-25.9c0.5-1,1-1.9,1.5-3l44.6,25.9C168,270.3,167.5,271.3,167,272.2"/>
			<path class="st4" d="M168.4,269.3l-44.6-25.9c0.5-1.1,1-2.2,1.5-3.4l44.6,25.9C169.5,267.1,169,268.2,168.4,269.3"/>
			<path class="st4" d="M170,265.9L125.4,240c0.6-1.3,1.1-2.7,1.7-4l44.6,25.9C171.1,263.2,170.6,264.6,170,265.9"/>
			<path class="st4" d="M171.6,261.9L127,235.9c0.6-1.6,1.2-3.3,1.8-5l44.6,25.9C172.9,258.5,172.3,260.2,171.6,261.9"/>
			<path class="st4" d="M173.4,256.8l-44.6-25.9c0.1-0.4,0.3-0.8,0.4-1.2l44.6,25.9C173.7,256,173.6,256.4,173.4,256.8"/>
		</g>
	</g>
	<g class="st0">
		<defs>
			<path id="SVGID_3_" class="st0" d="M120.6,100.4l44.6,25.9c3.3,1.9,6.1,5.3,8.6,10.1c6.3,12.3,9.3,30.4,9.2,54.3
				c-0.1,24.7-3.2,46.3-9.2,64.9l-44.6-25.9c6-18.6,9.1-40.2,9.2-64.9c0.1-23.9-3-42-9.2-54.3C126.7,105.7,123.8,102.3,120.6,100.4z
				"/>
		</defs>
		<use xlink:href="#SVGID_3_"  style="overflow:visible;fill:#F78C54;"/>
		<clipPath id="SVGID_4_">
			<use xlink:href="#SVGID_3_"  style="overflow:visible;"/>
		</clipPath>
		<g class="st5">
			<path class="st4" d="M173.8,255.6l-44.6-25.9c0.7-2.1,1.3-4.2,1.9-6.3l44.6,25.9C175.1,251.5,174.5,253.6,173.8,255.6"/>
			<path class="st4" d="M175.7,249.4l-44.6-25.9c0.9-3.3,1.8-6.7,2.5-10.2l44.6,25.9C177.5,242.6,176.6,246,175.7,249.4"/>
			<path class="st4" d="M178.2,239.1l-44.6-25.9c1.1-5.2,2-10.5,2.7-16.1L181,223C180.2,228.6,179.3,234,178.2,239.1"/>
			<path class="st4" d="M181,223l-44.6-25.9c1.3-10.1,2-20.9,2-32.3c0.1-23.9-3-42-9.2-54.3c-2.5-4.8-5.3-8.2-8.6-10.1l44.6,25.9
				c3.3,1.9,6.1,5.3,8.6,10.1c6.3,12.3,9.3,30.4,9.2,54.3C183,202.1,182.3,212.9,181,223"/>
		</g>
	</g>
	<g class="st0">
		<defs>
			<path id="SVGID_5_" class="st0" d="M99.5,339.7l-44.6-25.9c-2.4-1.4-4.7-3.1-6.9-5.1c-14.2-13-21.3-39.4-21.4-79.3
				c-0.1-41.5,7-76.7,21.4-105.6c14.4-28.9,32.6-49.8,54.5-62.6c18-10.4,33.2-11.8,45.8-4.5l44.6,25.9c-12.6-7.3-27.8-5.9-45.8,4.5
				c-21.9,12.9-40.1,33.7-54.5,62.6c-14.4,28.9-21.6,64.1-21.4,105.6c0.1,39.9,7.3,66.3,21.4,79.3C94.8,336.6,97.1,338.3,99.5,339.7
				z"/>
		</defs>
		<use xlink:href="#SVGID_5_"  style="overflow:visible;fill:#F78C54;"/>
		<clipPath id="SVGID_6_">
			<use xlink:href="#SVGID_5_"  style="overflow:visible;"/>
		</clipPath>
		<g class="st6">
			<path class="st4" d="M99.5,339.7l-44.6-25.9c-2.4-1.4-4.7-3.1-6.9-5.1c-14.2-13-21.3-39.4-21.4-79.3c0-14.1,0.8-27.5,2.4-40.2
				l44.6,25.9c-1.6,12.7-2.4,26-2.4,40.2c0.1,39.9,7.3,66.3,21.4,79.3C94.8,336.6,97.1,338.3,99.5,339.7"/>
			<path class="st4" d="M73.6,215.1L29,189.2c0.9-6.7,2-13.3,3.3-19.6L77,195.5C75.6,201.8,74.5,208.3,73.6,215.1"/>
			<path class="st4" d="M77,195.5l-44.6-25.9c0.9-4.4,2-8.6,3.1-12.8l44.6,25.9C78.9,186.8,77.9,191.1,77,195.5"/>
			<path class="st4" d="M80.1,182.7l-44.6-25.9c0.9-3.3,1.9-6.5,3-9.7L83.1,173C82,176.1,81,179.4,80.1,182.7"/>
			<path class="st4" d="M83.1,173L38.5,147c0.9-2.7,1.9-5.4,2.9-8L85.9,165C84.9,167.6,84,170.2,83.1,173"/>
			<path class="st4" d="M85.9,165L41.3,139c0.9-2.4,1.9-4.7,2.9-7L88.8,158C87.8,160.3,86.8,162.6,85.9,165"/>
			<path class="st4" d="M88.8,158L44.2,132c0.9-2.1,1.9-4.2,2.9-6.3l44.6,25.9C90.7,153.7,89.7,155.8,88.8,158"/>
			<path class="st4" d="M91.7,151.7l-44.6-25.9c0.3-0.7,0.7-1.4,1-2c0.9-1.7,1.7-3.4,2.6-5.1l44.6,25.9c-0.9,1.7-1.8,3.4-2.6,5.1
				C92.3,150.3,92,151,91.7,151.7"/>
			<path class="st4" d="M95.3,144.5l-44.6-25.9c1.3-2.4,2.6-4.7,3.9-7l44.6,25.9C97.9,139.8,96.6,142.1,95.3,144.5"/>
			<path class="st4" d="M99.2,137.5l-44.6-25.9c1.3-2.2,2.6-4.4,4-6.5l44.6,25.9C101.8,133.1,100.5,135.3,99.2,137.5"/>
			<path class="st4" d="M103.2,131l-44.6-25.9c1.4-2.1,2.7-4.2,4.2-6.2l44.6,25.9C105.9,126.8,104.5,128.9,103.2,131"/>
			<path class="st4" d="M107.3,124.8L62.7,98.9c1.5-2.1,3-4.2,4.5-6.1l44.6,25.9C110.3,120.6,108.8,122.7,107.3,124.8"/>
			<path class="st4" d="M111.9,118.7L67.3,92.7c1.7-2.2,3.5-4.4,5.3-6.4l44.6,25.9C115.4,114.3,113.6,116.4,111.9,118.7"/>
			<path class="st4" d="M117.2,112.2L72.6,86.3c2.3-2.7,4.7-5.2,7.1-7.6l44.6,25.9C121.8,107,119.5,109.6,117.2,112.2"/>
			<path class="st4" d="M124.3,104.7L79.7,78.7c7.1-7,14.7-12.9,22.9-17.7c3.4-2,6.7-3.6,10-5L157.1,82c-3.2,1.3-6.5,3-10,5
				C139,91.8,131.4,97.7,124.3,104.7"/>
			<path class="st4" d="M157.1,82l-44.6-25.9c2.5-1,4.9-1.9,7.3-2.5l44.6,25.9C162,80.2,159.6,81,157.1,82"/>
			<path class="st4" d="M164.4,79.5l-44.6-25.9c1.8-0.5,3.6-0.9,5.3-1.1l44.6,25.9C168,78.7,166.2,79,164.4,79.5"/>
			<path class="st4" d="M169.8,78.4l-44.6-25.9c1.5-0.2,3-0.4,4.4-0.4l44.6,25.9C172.7,78,171.3,78.2,169.8,78.4"/>
			<path class="st4" d="M174.2,77.9L129.6,52c1.3-0.1,2.7,0,4,0L178.1,78C176.8,77.9,175.5,77.9,174.2,77.9"/>
			<path class="st4" d="M178.1,78l-44.6-25.9c1.2,0.1,2.5,0.2,3.7,0.4l44.6,25.9C180.6,78.2,179.4,78.1,178.1,78"/>
			<path class="st4" d="M181.8,78.4l-44.6-25.9c1.2,0.2,2.4,0.5,3.6,0.8l44.6,25.9C184.2,78.9,183,78.6,181.8,78.4"/>
			<path class="st4" d="M185.4,79.2l-44.6-25.9c1.2,0.3,2.4,0.8,3.5,1.3l44.6,25.9C187.8,80,186.6,79.6,185.4,79.2"/>
			<path class="st4" d="M188.9,80.5l-44.6-25.9c1.2,0.5,2.4,1.1,3.6,1.8l44.6,25.9C191.3,81.6,190.1,81,188.9,80.5"/>
			<path class="st4" d="M192.5,82.3l-44.6-25.9c0.1,0.1,0.3,0.2,0.4,0.2l44.6,25.9C192.8,82.4,192.7,82.3,192.5,82.3"/>
		</g>
	</g>
	<g>
		<path class="st7" d="M202.1,89.8c14.4,14.9,21.6,40.7,21.7,77.4c0.1,37.1-6.9,71-20.9,101.7c-14.1,30.7-32.4,52.6-55,65.7
			c-22.6,13.1-41,13.1-55.2,0.1c-14.2-13-21.3-39.4-21.4-79.3c-0.1-41.5,7-76.7,21.4-105.6c14.4-28.9,32.6-49.8,54.5-62.6
			C169.7,74,187.8,75,202.1,89.8z M173.8,255.6c6-18.6,9.1-40.2,9.2-64.9c0.1-23.9-3-42-9.2-54.3c-6.2-12.2-14.9-15-26.1-8.6
			c-0.1,0.1-0.3,0.2-0.4,0.3c-11.4,6.8-20.1,19-26.1,36.6c-6,17.6-9.1,39.9-9.2,67c-0.1,27.9,3.2,46.8,9.8,56.7
			c6.5,9.8,15,11.6,25.5,5.6c0.2-0.1,0.3-0.2,0.5-0.3C159.1,286.9,167.8,274.2,173.8,255.6"/>
	</g>
</g>
</svg>
