<svg width="1315" height="292" viewBox="0 0 1315 292" fill="none" xmlns="http://www.w3.org/2000/svg">
<path d="M292.07 66.86C291.483 65.4667 290.897 63.8533 290.31 62.02C289.723 60.1133 288.953 57.73 288 54.87V121.86H274.91V42.55H294.93L314.4 91.83L333.1 42.55H353.34V121.86H340.03V54.87C339.223 58.17 338.527 60.6633 337.94 62.35C337.353 63.9633 336.803 65.4667 336.29 66.86L319.68 108.66H308.46L292.07 66.86ZM384.69 122.74C378.163 122.74 373.103 121.273 369.51 118.34C365.917 115.333 364.12 111.153 364.12 105.8V102.28C364.12 99.7867 364.487 97.5133 365.22 95.46C366.027 93.3333 367.31 91.5 369.07 89.96C370.903 88.42 373.287 87.21 376.22 86.33C379.153 85.45 382.747 85.01 387 85.01H400.86V82.7C400.86 78.96 399.98 76.2833 398.22 74.67C396.533 72.9833 393.82 72.14 390.08 72.14C383.773 72.14 378.053 74.1567 372.92 78.19L366.1 68.07C369.18 65.9433 372.663 64.0733 376.55 62.46C380.437 60.7733 384.983 59.93 390.19 59.93C393.71 59.93 396.973 60.37 399.98 61.25C402.987 62.13 405.553 63.4133 407.68 65.1C409.88 66.7133 411.567 68.73 412.74 71.15C413.987 73.4967 414.61 76.21 414.61 79.29V121.86H402.18L401.96 114.38C401.373 115.7 400.42 116.91 399.1 118.01C397.853 119.037 396.423 119.88 394.81 120.54C393.197 121.273 391.51 121.823 389.75 122.19C387.99 122.557 386.303 122.74 384.69 122.74ZM400.86 95.79H387.33C383.663 95.79 381.097 96.4867 379.63 97.88C378.237 99.2733 377.54 101.143 377.54 103.49V104.81C377.54 106.79 378.237 108.33 379.63 109.43C381.023 110.53 383.077 111.08 385.79 111.08C391.437 111.08 395.617 109.723 398.33 107.01C399.577 105.763 400.31 104.443 400.53 103.05C400.75 101.583 400.86 99.7133 400.86 97.44V95.79ZM464.137 113.72H463.917C462.303 116.653 459.993 118.707 456.987 119.88C453.98 121.053 450.643 121.64 446.977 121.64C439.203 121.64 433.373 119.403 429.487 114.93C425.673 110.383 423.767 104.003 423.767 95.79V86.22C423.767 82.1867 424.317 78.5567 425.417 75.33C426.59 72.03 428.24 69.2433 430.367 66.97C432.493 64.6967 435.023 62.9733 437.957 61.8C440.963 60.5533 444.3 59.93 447.967 59.93C450.313 59.93 452.403 60.15 454.237 60.59C456.07 61.03 457.647 61.58 458.967 62.24C460.36 62.9 461.497 63.6333 462.377 64.44C463.257 65.1733 463.917 65.87 464.357 66.53H464.467V61.25H477.777V121.31C477.777 129.743 475.467 136.013 470.847 140.12C466.227 144.3 458.93 146.39 448.957 146.39C445.143 146.39 441.33 145.767 437.517 144.52C433.777 143.273 430.66 141.697 428.167 139.79L434.437 129.01C435.023 129.523 435.867 130.073 436.967 130.66C438.067 131.32 439.277 131.907 440.597 132.42C441.917 132.933 443.31 133.337 444.777 133.63C446.243 133.997 447.71 134.18 449.177 134.18C454.09 134.18 457.793 133.117 460.287 130.99C462.853 128.937 464.137 125.673 464.137 121.2V113.72ZM437.407 93.7C437.407 98.8333 438.433 102.83 440.487 105.69C442.613 108.477 445.693 109.87 449.727 109.87C452 109.87 454.017 109.503 455.777 108.77C457.61 107.963 459.113 106.9 460.287 105.58C461.533 104.187 462.487 102.61 463.147 100.85C463.807 99.0167 464.137 97.0733 464.137 95.02V83.8C464.137 82.4067 463.843 81.0133 463.257 79.62C462.743 78.1533 461.9 76.87 460.727 75.77C459.627 74.5967 458.197 73.6433 456.437 72.91C454.75 72.1767 452.697 71.81 450.277 71.81C445.877 71.81 442.613 73.24 440.487 76.1C438.433 78.96 437.407 82.92 437.407 87.98V93.7ZM516.2 110.64C518.253 110.64 520.16 110.347 521.92 109.76C523.68 109.173 525.183 108.257 526.43 107.01C527.75 105.763 528.777 104.113 529.51 102.06C530.243 100.007 530.61 97.55 530.61 94.69V87.98C530.61 82.1867 529.29 78.08 526.65 75.66C524.083 73.24 520.6 72.03 516.2 72.03C511.8 72.03 508.28 73.24 505.64 75.66C503.073 78.08 501.79 82.1867 501.79 87.98V94.69C501.79 97.55 502.157 100.007 502.89 102.06C503.623 104.113 504.613 105.763 505.86 107.01C507.18 108.257 508.72 109.173 510.48 109.76C512.24 110.347 514.147 110.64 516.2 110.64ZM516.2 122.74C511.873 122.74 507.95 122.117 504.43 120.87C500.983 119.623 498.013 117.827 495.52 115.48C493.1 113.133 491.193 110.237 489.8 106.79C488.48 103.27 487.82 99.31 487.82 94.91V87.76C487.82 83.2867 488.48 79.3267 489.8 75.88C491.193 72.4333 493.1 69.5367 495.52 67.19C498.013 64.8433 500.983 63.0467 504.43 61.8C507.95 60.5533 511.873 59.93 516.2 59.93C520.453 59.93 524.34 60.5533 527.86 61.8C531.38 63.0467 534.35 64.8433 536.77 67.19C539.263 69.5367 541.17 72.4333 542.49 75.88C543.883 79.3267 544.58 83.2867 544.58 87.76V94.91C544.58 99.31 543.883 103.27 542.49 106.79C541.17 110.237 539.263 113.133 536.77 115.48C534.35 117.827 531.38 119.623 527.86 120.87C524.34 122.117 520.453 122.74 516.2 122.74ZM585.104 86.33L609.634 121.86H591.924L575.424 96.12L568.494 103.82V121.86H554.634V38.7H568.494V86.88L591.154 61.25H608.644L585.104 86.33ZM691.472 42.55V54.21H654.402V75.55H689.162V86.99H654.402V110.2H692.242V121.86H640.432V42.55H691.472ZM734.636 59.93C737.349 59.93 739.953 60.3333 742.446 61.14C745.013 61.9467 747.286 63.2667 749.266 65.1C751.246 66.86 752.823 69.17 753.996 72.03C755.169 74.89 755.756 78.3367 755.756 82.37V121.86H741.896V85.34C741.896 76.4667 738.046 72.03 730.346 72.03C729.246 72.03 727.926 72.2133 726.386 72.58C724.919 72.8733 723.489 73.5333 722.096 74.56C720.776 75.5133 719.639 76.9067 718.686 78.74C717.733 80.5733 717.256 82.9933 717.256 86V121.86H703.396V61.25H716.486V68.18H716.706C718.833 65.1 721.436 62.9733 724.516 61.8C727.669 60.5533 731.043 59.93 734.636 59.93ZM806.036 86.11V83.47C806.036 81.8567 805.78 80.3167 805.266 78.85C804.826 77.3833 804.056 76.1 802.956 75C801.856 73.9 800.463 73.02 798.776 72.36C797.09 71.7 795.036 71.37 792.616 71.37C787.996 71.37 784.513 72.58 782.166 75C779.893 77.42 778.756 80.3533 778.756 83.8V86.11H806.036ZM817.806 116.25C814.873 118.23 811.426 119.807 807.466 120.98C803.506 122.153 798.666 122.74 792.946 122.74C789.426 122.74 786.016 122.263 782.716 121.31C779.416 120.43 776.446 118.927 773.806 116.8C771.24 114.6 769.15 111.703 767.536 108.11C765.996 104.443 765.226 99.8967 765.226 94.47V88.2C765.226 83.2867 765.923 79.07 767.316 75.55C768.783 71.9567 770.763 69.0233 773.256 66.75C775.75 64.4033 778.646 62.68 781.946 61.58C785.32 60.48 788.95 59.93 792.836 59.93C796.65 59.93 800.17 60.48 803.396 61.58C806.696 62.68 809.52 64.3667 811.866 66.64C814.213 68.84 816.046 71.6267 817.366 75C818.686 78.3 819.346 82.15 819.346 86.55V96.56H778.756C778.756 101.4 780.04 105.067 782.606 107.56C785.173 109.98 788.876 111.19 793.716 111.19C797.31 111.19 800.5 110.823 803.286 110.09C806.073 109.283 809.006 108 812.086 106.24L817.806 116.25ZM864.23 73.68C863.203 73.24 862.103 72.91 860.93 72.69C859.757 72.47 858.29 72.36 856.53 72.36C854.623 72.36 852.826 72.69 851.14 73.35C849.526 74.01 848.097 74.9633 846.85 76.21C845.676 77.3833 844.723 78.8133 843.99 80.5C843.33 82.1133 843 83.91 843 85.89V121.86H829.14V61.25H842.45V70.05H842.67C844.283 66.97 846.41 64.5133 849.05 62.68C851.763 60.8467 855.283 59.93 859.61 59.93C861.15 59.93 862.69 60.04 864.23 60.26C865.77 60.48 867.09 60.7733 868.19 61.14L864.23 73.68ZM911.145 113.72H910.925C909.312 116.653 907.002 118.707 903.995 119.88C900.988 121.053 897.652 121.64 893.985 121.64C886.212 121.64 880.382 119.403 876.495 114.93C872.682 110.383 870.775 104.003 870.775 95.79V86.22C870.775 82.1867 871.325 78.5567 872.425 75.33C873.598 72.03 875.248 69.2433 877.375 66.97C879.502 64.6967 882.032 62.9733 884.965 61.8C887.972 60.5533 891.308 59.93 894.975 59.93C897.322 59.93 899.412 60.15 901.245 60.59C903.078 61.03 904.655 61.58 905.975 62.24C907.368 62.9 908.505 63.6333 909.385 64.44C910.265 65.1733 910.925 65.87 911.365 66.53H911.475V61.25H924.785V121.31C924.785 129.743 922.475 136.013 917.855 140.12C913.235 144.3 905.938 146.39 895.965 146.39C892.152 146.39 888.338 145.767 884.525 144.52C880.785 143.273 877.668 141.697 875.175 139.79L881.445 129.01C882.032 129.523 882.875 130.073 883.975 130.66C885.075 131.32 886.285 131.907 887.605 132.42C888.925 132.933 890.318 133.337 891.785 133.63C893.252 133.997 894.718 134.18 896.185 134.18C901.098 134.18 904.802 133.117 907.295 130.99C909.862 128.937 911.145 125.673 911.145 121.2V113.72ZM884.415 93.7C884.415 98.8333 885.442 102.83 887.495 105.69C889.622 108.477 892.702 109.87 896.735 109.87C899.008 109.87 901.025 109.503 902.785 108.77C904.618 107.963 906.122 106.9 907.295 105.58C908.542 104.187 909.495 102.61 910.155 100.85C910.815 99.0167 911.145 97.0733 911.145 95.02V83.8C911.145 82.4067 910.852 81.0133 910.265 79.62C909.752 78.1533 908.908 76.87 907.735 75.77C906.635 74.5967 905.205 73.6433 903.445 72.91C901.758 72.1767 899.705 71.81 897.285 71.81C892.885 71.81 889.622 73.24 887.495 76.1C885.442 78.96 884.415 82.92 884.415 87.98V93.7ZM946.818 61.25L960.568 106.02H961.008L974.868 61.25H989.608L958.148 147.05L945.168 142.54L952.978 122.63L931.418 61.25H946.818ZM274.91 167.55H288.99V246.86H274.91V167.55ZM334.094 184.93C336.808 184.93 339.411 185.333 341.904 186.14C344.471 186.947 346.744 188.267 348.724 190.1C350.704 191.86 352.281 194.17 353.454 197.03C354.628 199.89 355.214 203.337 355.214 207.37V246.86H341.354V210.34C341.354 201.467 337.504 197.03 329.804 197.03C328.704 197.03 327.384 197.213 325.844 197.58C324.378 197.873 322.948 198.533 321.554 199.56C320.234 200.513 319.098 201.907 318.144 203.74C317.191 205.573 316.714 207.993 316.714 211V246.86H302.854V186.25H315.944V193.18H316.164C318.291 190.1 320.894 187.973 323.974 186.8C327.128 185.553 330.501 184.93 334.094 184.93ZM371.725 197.69H362.045V186.25H371.725V170.74H385.585V186.25H400.875V197.69H385.585V229.59C385.585 232.157 386.098 233.843 387.125 234.65C388.225 235.457 389.691 235.86 391.525 235.86C392.918 235.86 394.275 235.75 395.595 235.53C396.988 235.237 398.491 234.76 400.105 234.1L402.305 245.21C401.058 245.797 399.335 246.347 397.135 246.86C395.008 247.447 392.588 247.74 389.875 247.74C386.428 247.74 383.531 247.337 381.185 246.53C378.838 245.723 376.968 244.55 375.575 243.01C374.181 241.47 373.191 239.6 372.605 237.4C372.018 235.127 371.725 232.56 371.725 229.7V197.69ZM447.634 211.11V208.47C447.634 206.857 447.377 205.317 446.864 203.85C446.424 202.383 445.654 201.1 444.554 200C443.454 198.9 442.061 198.02 440.374 197.36C438.687 196.7 436.634 196.37 434.214 196.37C429.594 196.37 426.111 197.58 423.764 200C421.491 202.42 420.354 205.353 420.354 208.8V211.11H447.634ZM459.404 241.25C456.471 243.23 453.024 244.807 449.064 245.98C445.104 247.153 440.264 247.74 434.544 247.74C431.024 247.74 427.614 247.263 424.314 246.31C421.014 245.43 418.044 243.927 415.404 241.8C412.837 239.6 410.747 236.703 409.134 233.11C407.594 229.443 406.824 224.897 406.824 219.47V213.2C406.824 208.287 407.521 204.07 408.914 200.55C410.381 196.957 412.361 194.023 414.854 191.75C417.347 189.403 420.244 187.68 423.544 186.58C426.917 185.48 430.547 184.93 434.434 184.93C438.247 184.93 441.767 185.48 444.994 186.58C448.294 187.68 451.117 189.367 453.464 191.64C455.811 193.84 457.644 196.627 458.964 200C460.284 203.3 460.944 207.15 460.944 211.55V221.56H420.354C420.354 226.4 421.637 230.067 424.204 232.56C426.771 234.98 430.474 236.19 435.314 236.19C438.907 236.19 442.097 235.823 444.884 235.09C447.671 234.283 450.604 233 453.684 231.24L459.404 241.25ZM505.828 198.68C504.801 198.24 503.701 197.91 502.528 197.69C501.354 197.47 499.888 197.36 498.128 197.36C496.221 197.36 494.424 197.69 492.738 198.35C491.124 199.01 489.694 199.963 488.448 201.21C487.274 202.383 486.321 203.813 485.588 205.5C484.928 207.113 484.598 208.91 484.598 210.89V246.86H470.738V186.25H484.048V195.05H484.268C485.881 191.97 488.008 189.513 490.648 187.68C493.361 185.847 496.881 184.93 501.208 184.93C502.748 184.93 504.288 185.04 505.828 185.26C507.368 185.48 508.688 185.773 509.788 186.14L505.828 198.68ZM552.743 238.72H552.523C550.909 241.653 548.599 243.707 545.593 244.88C542.586 246.053 539.249 246.64 535.582 246.64C527.809 246.64 521.979 244.403 518.093 239.93C514.279 235.383 512.373 229.003 512.373 220.79V211.22C512.373 207.187 512.923 203.557 514.023 200.33C515.196 197.03 516.846 194.243 518.973 191.97C521.099 189.697 523.629 187.973 526.563 186.8C529.569 185.553 532.906 184.93 536.573 184.93C538.919 184.93 541.009 185.15 542.843 185.59C544.676 186.03 546.253 186.58 547.573 187.24C548.966 187.9 550.103 188.633 550.983 189.44C551.863 190.173 552.523 190.87 552.963 191.53H553.073V186.25H566.383V246.31C566.383 254.743 564.073 261.013 559.453 265.12C554.833 269.3 547.536 271.39 537.563 271.39C533.749 271.39 529.936 270.767 526.123 269.52C522.383 268.273 519.266 266.697 516.773 264.79L523.043 254.01C523.629 254.523 524.473 255.073 525.573 255.66C526.673 256.32 527.883 256.907 529.203 257.42C530.523 257.933 531.916 258.337 533.383 258.63C534.849 258.997 536.316 259.18 537.783 259.18C542.696 259.18 546.399 258.117 548.893 255.99C551.459 253.937 552.743 250.673 552.743 246.2V238.72ZM526.013 218.7C526.013 223.833 527.039 227.83 529.093 230.69C531.219 233.477 534.299 234.87 538.333 234.87C540.606 234.87 542.623 234.503 544.383 233.77C546.216 232.963 547.719 231.9 548.893 230.58C550.139 229.187 551.093 227.61 551.753 225.85C552.413 224.017 552.743 222.073 552.743 220.02V208.8C552.743 207.407 552.449 206.013 551.863 204.62C551.349 203.153 550.506 201.87 549.333 200.77C548.233 199.597 546.803 198.643 545.043 197.91C543.356 197.177 541.303 196.81 538.883 196.81C534.483 196.81 531.219 198.24 529.093 201.1C527.039 203.96 526.013 207.92 526.013 212.98V218.7ZM614.706 198.68C613.679 198.24 612.579 197.91 611.406 197.69C610.233 197.47 608.766 197.36 607.006 197.36C605.099 197.36 603.303 197.69 601.616 198.35C600.003 199.01 598.573 199.963 597.326 201.21C596.153 202.383 595.199 203.813 594.466 205.5C593.806 207.113 593.476 208.91 593.476 210.89V246.86H579.616V186.25H592.926V195.05H593.146C594.759 191.97 596.886 189.513 599.526 187.68C602.239 185.847 605.759 184.93 610.086 184.93C611.626 184.93 613.166 185.04 614.706 185.26C616.246 185.48 617.566 185.773 618.666 186.14L614.706 198.68ZM641.931 247.74C635.404 247.74 630.344 246.273 626.751 243.34C623.158 240.333 621.361 236.153 621.361 230.8V227.28C621.361 224.787 621.728 222.513 622.461 220.46C623.268 218.333 624.551 216.5 626.311 214.96C628.144 213.42 630.528 212.21 633.461 211.33C636.394 210.45 639.988 210.01 644.241 210.01H658.101V207.7C658.101 203.96 657.221 201.283 655.461 199.67C653.774 197.983 651.061 197.14 647.321 197.14C641.014 197.14 635.294 199.157 630.161 203.19L623.341 193.07C626.421 190.943 629.904 189.073 633.791 187.46C637.678 185.773 642.224 184.93 647.431 184.93C650.951 184.93 654.214 185.37 657.221 186.25C660.228 187.13 662.794 188.413 664.921 190.1C667.121 191.713 668.808 193.73 669.981 196.15C671.228 198.497 671.851 201.21 671.851 204.29V246.86H659.421L659.201 239.38C658.614 240.7 657.661 241.91 656.341 243.01C655.094 244.037 653.664 244.88 652.051 245.54C650.438 246.273 648.751 246.823 646.991 247.19C645.231 247.557 643.544 247.74 641.931 247.74ZM658.101 220.79H644.571C640.904 220.79 638.338 221.487 636.871 222.88C635.478 224.273 634.781 226.143 634.781 228.49V229.81C634.781 231.79 635.478 233.33 636.871 234.43C638.264 235.53 640.318 236.08 643.031 236.08C648.678 236.08 652.858 234.723 655.571 232.01C656.818 230.763 657.551 229.443 657.771 228.05C657.991 226.583 658.101 224.713 658.101 222.44V220.79ZM688.048 197.69H678.368V186.25H688.048V170.74H701.908V186.25H717.198V197.69H701.908V229.59C701.908 232.157 702.421 233.843 703.448 234.65C704.548 235.457 706.014 235.86 707.848 235.86C709.241 235.86 710.598 235.75 711.918 235.53C713.311 235.237 714.814 234.76 716.428 234.1L718.628 245.21C717.381 245.797 715.658 246.347 713.458 246.86C711.331 247.447 708.911 247.74 706.198 247.74C702.751 247.74 699.854 247.337 697.508 246.53C695.161 245.723 693.291 244.55 691.898 243.01C690.504 241.47 689.514 239.6 688.928 237.4C688.341 235.127 688.048 232.56 688.048 229.7V197.69ZM763.957 211.11V208.47C763.957 206.857 763.7 205.317 763.187 203.85C762.747 202.383 761.977 201.1 760.877 200C759.777 198.9 758.384 198.02 756.697 197.36C755.01 196.7 752.957 196.37 750.537 196.37C745.917 196.37 742.434 197.58 740.087 200C737.814 202.42 736.677 205.353 736.677 208.8V211.11H763.957ZM775.727 241.25C772.794 243.23 769.347 244.807 765.387 245.98C761.427 247.153 756.587 247.74 750.867 247.74C747.347 247.74 743.937 247.263 740.637 246.31C737.337 245.43 734.367 243.927 731.727 241.8C729.16 239.6 727.07 236.703 725.457 233.11C723.917 229.443 723.147 224.897 723.147 219.47V213.2C723.147 208.287 723.844 204.07 725.237 200.55C726.704 196.957 728.684 194.023 731.177 191.75C733.67 189.403 736.567 187.68 739.867 186.58C743.24 185.48 746.87 184.93 750.757 184.93C754.57 184.93 758.09 185.48 761.317 186.58C764.617 187.68 767.44 189.367 769.787 191.64C772.134 193.84 773.967 196.627 775.287 200C776.607 203.3 777.267 207.15 777.267 211.55V221.56H736.677C736.677 226.4 737.96 230.067 740.527 232.56C743.094 234.98 746.797 236.19 751.637 236.19C755.23 236.19 758.42 235.823 761.207 235.09C763.994 234.283 766.927 233 770.007 231.24L775.727 241.25ZM824.898 239.71H824.568C822.955 242.643 820.571 244.697 817.418 245.87C814.265 247.117 810.855 247.74 807.188 247.74C799.415 247.74 793.585 245.503 789.698 241.03C785.885 236.483 783.978 230.103 783.978 221.89V211.22C783.978 207.113 784.528 203.447 785.628 200.22C786.801 196.92 788.451 194.17 790.578 191.97C792.705 189.697 795.235 187.973 798.168 186.8C801.175 185.553 804.511 184.93 808.178 184.93C810.598 184.93 812.688 185.15 814.448 185.59C816.281 186.03 817.821 186.58 819.068 187.24C820.388 187.827 821.451 188.523 822.258 189.33C823.065 190.063 823.688 190.76 824.128 191.42V163.7H837.988V246.86H824.898V239.71ZM797.618 219.8C797.618 224.933 798.645 228.93 800.698 231.79C802.825 234.577 805.905 235.97 809.938 235.97C812.211 235.97 814.228 235.603 815.988 234.87C817.821 234.063 819.325 233 820.498 231.68C821.745 230.287 822.698 228.71 823.358 226.95C824.018 225.117 824.348 223.173 824.348 221.12V208.8C824.348 207.407 824.055 206.013 823.468 204.62C822.955 203.153 822.111 201.87 820.938 200.77C819.838 199.597 818.408 198.643 816.648 197.91C814.961 197.177 812.908 196.81 810.488 196.81C806.088 196.81 802.825 198.24 800.698 201.1C798.645 203.96 797.618 207.92 797.618 212.98V219.8ZM876.082 167.55H906.002C910.768 167.55 914.838 168.137 918.212 169.31C921.658 170.41 924.482 171.987 926.682 174.04C928.882 176.02 930.495 178.403 931.522 181.19C932.622 183.977 933.172 186.983 933.172 190.21V192.52C933.172 195.747 932.622 198.827 931.522 201.76C930.422 204.62 928.735 207.15 926.462 209.35C924.188 211.477 921.365 213.2 917.992 214.52C914.618 215.767 910.622 216.39 906.002 216.39H890.162V246.86H876.082V167.55ZM890.162 179.32V204.51H904.132C908.752 204.51 912.382 203.63 915.022 201.87C917.662 200.11 918.982 196.92 918.982 192.3V190.32C918.982 188.12 918.652 186.323 917.992 184.93C917.332 183.537 916.378 182.437 915.132 181.63C913.958 180.75 912.528 180.163 910.842 179.87C909.155 179.503 907.322 179.32 905.342 179.32H890.162ZM942.053 163.7H955.913V246.86H942.053V163.7ZM986.644 247.74C980.117 247.74 975.057 246.273 971.464 243.34C967.87 240.333 966.074 236.153 966.074 230.8V227.28C966.074 224.787 966.44 222.513 967.174 220.46C967.98 218.333 969.264 216.5 971.024 214.96C972.857 213.42 975.24 212.21 978.174 211.33C981.107 210.45 984.7 210.01 988.954 210.01H1002.81V207.7C1002.81 203.96 1001.93 201.283 1000.17 199.67C998.487 197.983 995.774 197.14 992.034 197.14C985.727 197.14 980.007 199.157 974.874 203.19L968.054 193.07C971.134 190.943 974.617 189.073 978.504 187.46C982.39 185.773 986.937 184.93 992.144 184.93C995.664 184.93 998.927 185.37 1001.93 186.25C1004.94 187.13 1007.51 188.413 1009.63 190.1C1011.83 191.713 1013.52 193.73 1014.69 196.15C1015.94 198.497 1016.56 201.21 1016.56 204.29V246.86H1004.13L1003.91 239.38C1003.33 240.7 1002.37 241.91 1001.05 243.01C999.807 244.037 998.377 244.88 996.764 245.54C995.15 246.273 993.464 246.823 991.704 247.19C989.944 247.557 988.257 247.74 986.644 247.74ZM1002.81 220.79H989.284C985.617 220.79 983.05 221.487 981.584 222.88C980.19 224.273 979.494 226.143 979.494 228.49V229.81C979.494 231.79 980.19 233.33 981.584 234.43C982.977 235.53 985.03 236.08 987.744 236.08C993.39 236.08 997.57 234.723 1000.28 232.01C1001.53 230.763 1002.26 229.443 1002.48 228.05C1002.7 226.583 1002.81 224.713 1002.81 222.44V220.79ZM1032.76 197.69H1023.08V186.25H1032.76V170.74H1046.62V186.25H1061.91V197.69H1046.62V229.59C1046.62 232.157 1047.13 233.843 1048.16 234.65C1049.26 235.457 1050.73 235.86 1052.56 235.86C1053.95 235.86 1055.31 235.75 1056.63 235.53C1058.02 235.237 1059.53 234.76 1061.14 234.1L1063.34 245.21C1062.09 245.797 1060.37 246.347 1058.17 246.86C1056.04 247.447 1053.62 247.74 1050.91 247.74C1047.46 247.74 1044.57 247.337 1042.22 246.53C1039.87 245.723 1038 244.55 1036.61 243.01C1035.22 241.47 1034.23 239.6 1033.64 237.4C1033.05 235.127 1032.76 232.56 1032.76 229.7V197.69ZM1075.01 197.58H1065.33V186.25H1075.01V182.07C1075.01 175.983 1076.62 171.29 1079.85 167.99C1083.15 164.69 1088.14 163.04 1094.81 163.04C1097.08 163.04 1099.25 163.223 1101.3 163.59C1103.35 163.957 1105 164.36 1106.25 164.8L1104.05 175.91C1101.85 175.177 1099.21 174.81 1096.13 174.81C1091.29 174.81 1088.87 177.34 1088.87 182.4V186.25H1104.16V197.58H1088.87V246.86H1075.01V197.58ZM1136.77 235.64C1138.82 235.64 1140.73 235.347 1142.49 234.76C1144.25 234.173 1145.75 233.257 1147 232.01C1148.32 230.763 1149.34 229.113 1150.08 227.06C1150.81 225.007 1151.18 222.55 1151.18 219.69V212.98C1151.18 207.187 1149.86 203.08 1147.22 200.66C1144.65 198.24 1141.17 197.03 1136.77 197.03C1132.37 197.03 1128.85 198.24 1126.21 200.66C1123.64 203.08 1122.36 207.187 1122.36 212.98V219.69C1122.36 222.55 1122.72 225.007 1123.46 227.06C1124.19 229.113 1125.18 230.763 1126.43 232.01C1127.75 233.257 1129.29 234.173 1131.05 234.76C1132.81 235.347 1134.71 235.64 1136.77 235.64ZM1136.77 247.74C1132.44 247.74 1128.52 247.117 1125 245.87C1121.55 244.623 1118.58 242.827 1116.09 240.48C1113.67 238.133 1111.76 235.237 1110.37 231.79C1109.05 228.27 1108.39 224.31 1108.39 219.91V212.76C1108.39 208.287 1109.05 204.327 1110.37 200.88C1111.76 197.433 1113.67 194.537 1116.09 192.19C1118.58 189.843 1121.55 188.047 1125 186.8C1128.52 185.553 1132.44 184.93 1136.77 184.93C1141.02 184.93 1144.91 185.553 1148.43 186.8C1151.95 188.047 1154.92 189.843 1157.34 192.19C1159.83 194.537 1161.74 197.433 1163.06 200.88C1164.45 204.327 1165.15 208.287 1165.15 212.76V219.91C1165.15 224.31 1164.45 228.27 1163.06 231.79C1161.74 235.237 1159.83 238.133 1157.34 240.48C1154.92 242.827 1151.95 244.623 1148.43 245.87C1144.91 247.117 1141.02 247.74 1136.77 247.74ZM1210.29 198.68C1209.26 198.24 1208.16 197.91 1206.99 197.69C1205.82 197.47 1204.35 197.36 1202.59 197.36C1200.68 197.36 1198.89 197.69 1197.2 198.35C1195.59 199.01 1194.16 199.963 1192.91 201.21C1191.74 202.383 1190.78 203.813 1190.05 205.5C1189.39 207.113 1189.06 208.91 1189.06 210.89V246.86H1175.2V186.25H1188.51V195.05H1188.73C1190.34 191.97 1192.47 189.513 1195.11 187.68C1197.82 185.847 1201.34 184.93 1205.67 184.93C1207.21 184.93 1208.75 185.04 1210.29 185.26C1211.83 185.48 1213.15 185.773 1214.25 186.14L1210.29 198.68ZM1285.46 184.93C1288.25 184.93 1290.89 185.407 1293.38 186.36C1295.95 187.313 1298.19 188.743 1300.09 190.65C1302 192.557 1303.5 194.94 1304.6 197.8C1305.78 200.66 1306.36 203.997 1306.36 207.81V246.86H1292.5V210.67C1292.5 207.957 1292.21 205.72 1291.62 203.96C1291.04 202.2 1290.23 200.843 1289.2 199.89C1288.18 198.863 1287 198.167 1285.68 197.8C1284.36 197.433 1282.97 197.25 1281.5 197.25C1280.18 197.25 1278.83 197.47 1277.43 197.91C1276.11 198.277 1274.94 198.973 1273.91 200C1272.89 200.953 1272.04 202.273 1271.38 203.96C1270.72 205.647 1270.39 207.737 1270.39 210.23V246.86H1256.53V210.45C1256.53 207.883 1256.24 205.757 1255.65 204.07C1255.07 202.383 1254.26 201.027 1253.23 200C1252.28 198.973 1251.14 198.277 1249.82 197.91C1248.5 197.47 1247.07 197.25 1245.53 197.25C1242.23 197.25 1239.56 198.277 1237.5 200.33C1235.45 202.383 1234.42 205.5 1234.42 209.68V246.86H1220.56V186.25H1233.65V193.95H1233.87C1235.34 191.163 1237.47 188.963 1240.25 187.35C1243.11 185.737 1246.52 184.93 1250.48 184.93C1254.22 184.93 1257.56 185.773 1260.49 187.46C1263.5 189.147 1265.55 191.383 1266.65 194.17C1268.78 191.09 1271.27 188.78 1274.13 187.24C1277.07 185.7 1280.84 184.93 1285.46 184.93Z" fill="#595959"/>
<path fill-rule="evenodd" clip-rule="evenodd" d="M108.495 0H78.7702V181.352V219.01C78.7702 227.433 81.2473 234.37 86.6968 239.82C92.1464 245.271 99.0821 247.748 107.504 247.748H137.229V239.82V193.244V28.7388C137.229 20.3154 134.752 13.3784 129.302 7.92795C123.853 2.47748 116.917 0 108.495 0ZM187.266 44.0987H157.542V225.451V263.108C157.542 271.532 160.019 278.469 165.468 283.919C170.918 289.37 177.853 291.847 186.275 291.847H216V283.919V237.342V72.8375C216 64.4141 213.523 57.4771 208.074 52.0267C202.624 46.5762 195.688 44.0987 187.266 44.0987ZM0 44.0987H29.7247C38.1467 44.0987 45.0825 46.5762 50.532 52.0267C55.9816 57.4771 58.4586 64.4141 58.4586 72.8375V237.342V283.919V291.847H28.7339C20.3119 291.847 13.3761 289.37 7.92659 283.919C2.47706 278.469 0 271.532 0 263.108V225.451V44.0987Z" fill="url(#paint0_linear_627_27)"/>
<defs>
<linearGradient id="paint0_linear_627_27" x1="0.130457" y1="233.662" x2="216.072" y2="233.662" gradientUnits="userSpaceOnUse">
<stop offset="0.0885417" stop-color="#32ECD6"/>
<stop offset="0.869792" stop-color="#3285EC"/>
</linearGradient>
</defs>
</svg>
