<svg id="Layer_1" data-name="Layer 1" xmlns="http://www.w3.org/2000/svg" viewBox="0 0 24 24"><defs><style>.cls-1{fill:none;stroke:#6e7173;stroke-linecap:round;stroke-linejoin:round;stroke-width:0.7px;}</style></defs><title>setting</title><path class="cls-1" d="M18.13,15.87,19,14l-1.5-.66A5.51,5.51,0,0,0,17.54,11l1.54-.59-.76-1.94-1.52.59a5.53,5.53,0,0,0-1.6-1.67l.67-1.52L14,5,13.3,6.55A5.72,5.72,0,0,0,11,6.49L10.4,4.92l-1.94.76.61,1.57A5.57,5.57,0,0,0,7.43,8.82L5.86,8.13,5,10l1.57.69A5.56,5.56,0,0,0,6.52,13l-1.6.62.75,1.94,1.59-.62a5.56,5.56,0,0,0,1.55,1.66l-.69,1.56L10,19l.68-1.54a5.67,5.67,0,0,0,2.28.09l.61,1.56,1.94-.76-.6-1.54a5.46,5.46,0,0,0,1.68-1.57Z"/><circle class="cls-1" cx="12" cy="12" r="2.83"/></svg>