<?xml version="1.0" encoding="utf-8"?>
<!-- Generator: Adobe Illustrator 24.1.2, SVG Export Plug-In . SVG Version: 6.00 Build 0)  -->
<svg version="1.1" id="Layer_1" xmlns="http://www.w3.org/2000/svg" xmlns:xlink="http://www.w3.org/1999/xlink" x="0px" y="0px"
	 viewBox="0 0 50 50" style="enable-background:new 0 0 50 50;" xml:space="preserve">
<style type="text/css">
	.st0{fill:#FFFFFF;}
</style>
<path class="st0" d="M46.3,23.6L26.7,3.9c-0.1-0.1-0.2-0.2-0.3-0.3C26,3.2,25.5,3,24.9,3.1c-0.5,0-1.1,0.3-1.4,0.7
	c0,0.1-0.1,0.1-0.1,0.2L3.6,23.6c-0.7,0.8-0.7,2,0,2.8c0.8,0.8,2.1,0.9,2.9,0.1l16.4-16.4v34.8c0,1.1,0.9,2,2.1,2c1.1,0,2-0.9,2.1-2
	V10.1l16.4,16.4c0.4,0.4,0.9,0.6,1.5,0.6l0,0h0.8v-0.2c0.2-0.1,0.4-0.2,0.6-0.4c0.4-0.4,0.6-0.9,0.6-1.4
	C46.9,24.5,46.7,24,46.3,23.6z"/>
</svg>
