<?xml version="1.0" encoding="utf-8"?>
<!-- Generator: Adobe Illustrator 24.0.1, SVG Export Plug-In . SVG Version: 6.00 Build 0)  -->
<svg version="1.1" id="레이어_1" xmlns="http://www.w3.org/2000/svg" xmlns:xlink="http://www.w3.org/1999/xlink" x="0px"
	 y="0px" viewBox="0 0 381 134" style="enable-background:new 0 0 381 134;" xml:space="preserve">
<style type="text/css">
	.st0{fill:#FFFFFF;}
</style>
<path class="st0" d="M142.6,44.7c5.6,1.4,9.3,3.1,11,4.9c1.7,1.9,2.6,4.1,2.6,6.8c0,3.3-1.3,6-3.9,8.2c-2.6,2.2-6.4,3.2-11.5,3.2
	c-2,0-4-0.2-5.7-0.7c-1.8-0.5-3.3-1-4.5-1.7c-1.2-0.8-2-1.7-2.5-2.7c-0.5-1-0.5-2.2,0-3.6c0.2-0.6,0.7-1,1.4-1.1
	c0.7-0.1,1.7,0.1,3,0.7c1.1,0.6,2.6,1.2,4.4,1.8c1.8,0.6,3.4,0.8,5,0.8c2.2,0,3.9-0.4,5.2-1.2c1.3-0.8,1.9-2,1.9-3.4
	c0-1.4-0.7-2.6-2-3.5c-1.3-0.9-3.5-1.7-6.6-2.4c-3.6-0.8-6.4-2.2-8.3-4.1c-2-1.9-3-4.3-3-7.3c0-3.5,1.3-6.2,3.9-8
	c2.6-1.8,5.6-2.8,9.2-2.8c2.6,0,4.7,0.3,6.4,1c1.7,0.7,3.1,1.4,4.2,2.1c1.1,0.7,1.8,1.4,2.1,2.1c0.4,0.7,0.3,1.4-0.2,2.2
	c-0.4,0.5-0.8,0.9-1.4,1.3c-0.6,0.4-1.1,0.5-1.7,0.5c-1.1,0-2-0.2-2.7-0.6c-0.7-0.4-1.8-0.9-3.3-1.5c-0.6-0.2-1.2-0.3-1.8-0.4
	c-0.6-0.1-1.2-0.2-1.8-0.2c-3.7,0-5.6,1.4-5.6,4.3c0,1.3,0.6,2.4,1.7,3.3C139.2,43.6,140.7,44.3,142.6,44.7z"/>
<path class="st0" d="M182.2,40.6c3,0,5.3,0.9,7.1,2.8c1.8,1.9,2.7,4.4,2.7,7.5v14.5c0,0.5-0.3,1-0.9,1.4s-1.4,0.7-2.5,0.7
	c-1.1,0-2-0.2-2.5-0.7c-0.6-0.5-0.8-1-0.8-1.4V50.8c0-1.2-0.3-2.2-0.8-3c-0.5-0.7-1.3-1.1-2.2-1.1c-1,0-1.7,0.4-2.2,1.1
	c-0.5,0.8-0.7,1.7-0.7,3v14.5c0,0.5-0.3,1-0.9,1.4s-1.4,0.7-2.5,0.7c-1.1,0-2-0.2-2.5-0.7c-0.6-0.5-0.8-1-0.8-1.4V50.8
	c0-1.2-0.3-2.2-0.8-3c-0.5-0.7-1.3-1.1-2.2-1.1c-1,0-1.7,0.4-2.2,1.1c-0.5,0.8-0.7,1.7-0.7,3v14.5c0,0.5-0.3,1-0.9,1.4
	c-0.6,0.5-1.4,0.7-2.5,0.7c-1.1,0-2-0.2-2.5-0.7s-0.9-1-0.9-1.4V51c0-3.3,0.9-5.9,2.7-7.7c1.8-1.8,4.1-2.7,7-2.7
	c1.3,0,2.5,0.2,3.6,0.6c1.1,0.4,2,0.9,2.8,1.6c0.8-0.7,1.7-1.2,2.7-1.6C179.7,40.8,180.9,40.6,182.2,40.6z"/>
<path class="st0" d="M221.5,56.8c0,0.9,0.2,2,0.6,3.1c0.4,1.1,0.9,2.1,1.5,3c0.2,0.3,0.3,0.6,0.4,1c0.1,0.4,0.1,0.8,0,1.3
	c-0.2,0.8-0.7,1.3-1.5,1.7c-0.8,0.4-1.5,0.6-2,0.6c-0.9,0-1.5-0.3-1.9-0.8c-0.4-0.5-1-1.3-1.7-2.4c-0.8,0.9-2,1.7-3.6,2.4
	c-1.6,0.7-3.5,1.1-5.7,1.1c-3.6,0-6.5-1.3-8.6-3.8c-2.1-2.5-3.2-5.6-3.2-9.4c0-4.1,1.3-7.4,4-10.1c2.6-2.6,5.9-3.9,9.6-3.9
	c3.4,0,6.3,1.1,8.6,3.4c2.3,2.3,3.5,5.4,3.5,9.3V56.8z M214.3,54c0.2-2.1-0.2-3.9-1.1-5.3c-0.9-1.4-2.1-2.1-3.7-2.1
	c-1.7,0-3.2,0.6-4.3,1.8c-1.2,1.2-2,3-2.4,5.3c-0.4,2,0,3.9,0.9,5.6c1,1.7,2.3,2.5,3.9,2.5c2,0,3.6-0.7,4.7-2.2
	C213.5,58.2,214.1,56.3,214.3,54z"/>
<path class="st0" d="M237.8,40.6c2.1,0,3.4,0.6,4.1,1.7c0.7,1.1,0.8,2.2,0.5,3.3c-2.7,0-4.7,0.5-6,1.7c-1.2,1.1-1.9,3.5-1.9,7.3
	v10.7c0,0.5-0.3,1-0.9,1.5c-0.6,0.5-1.5,0.8-2.7,0.8c-1.1,0-2-0.3-2.7-0.8c-0.6-0.5-0.9-1-0.9-1.5V53c0-3.9,1-7,3.1-9.1
	C232.5,41.7,235,40.6,237.8,40.6z"/>
<path class="st0" d="M257.6,40.6c1.4,0,2.3,0.2,2.7,0.5c0.4,0.3,0.6,0.7,0.6,1.3c0,0.9-0.4,1.7-1.1,2.6c-0.7,0.9-1.7,1.3-2.9,1.3
	h-4.3v8.5c0,1.1,0,2.1,0.1,3c0,0.9,0.2,1.7,0.6,2.5c0.6,1.6,2.1,2.3,4.5,2.3c0.2,0,0.3,0,0.5,0c0.2,0,0.3,0,0.5,0
	c0.3,1.1,0.2,2.2-0.4,3.3c-0.6,1.1-1.7,1.7-3.2,1.7c-1.5,0-3-0.4-4.5-1.1c-1.5-0.7-2.9-2.3-4.2-4.9c-0.5-1.2-0.8-2.5-0.9-3.7
	c-0.1-1.2-0.1-2.3-0.1-3.1V35.5c0-0.5,0.3-1,0.9-1.6c0.6-0.5,1.5-0.8,2.7-0.8c1.1,0,2,0.3,2.6,0.8c0.6,0.5,0.9,1,0.9,1.6v5.1H257.6z
	"/>
<path class="st0" d="M284.5,59.7c0.3,0.2,0.6,0.5,0.9,1c0.3,0.5,0.4,1,0.4,1.7c0,1.3-0.9,2.5-2.7,3.7c-1.8,1.2-4.2,1.8-7.2,1.8
	c-4.4,0-8-1.2-10.6-3.6c-2.6-2.4-3.9-5.7-3.9-10c0-4.3,1.3-7.7,3.9-10.1c2.6-2.4,5.9-3.6,10-3.6c3.1,0,5.8,0.7,7.9,2
	c2.2,1.3,3.2,2.5,3.2,3.6c0,0.8-0.1,1.4-0.4,1.8c-0.3,0.4-0.6,0.8-1.1,1.1c-0.5,0.4-1.1,0.5-1.7,0.6c-0.6,0-1.2-0.2-1.8-0.6
	c-0.9-0.7-1.9-1.3-2.8-1.7c-0.9-0.4-2-0.6-3.3-0.6c-1.8,0-3.4,0.6-4.7,1.9c-1.4,1.3-2,3.2-2,5.7c0,2.3,0.7,4.3,2.1,5.8
	c1.4,1.5,3.6,2.3,6.5,2.3c1.2,0,2.5-0.2,3.8-0.6C282,61.4,283.2,60.7,284.5,59.7z"/>
<path class="st0" d="M293.7,40.6c1.2,0,2.1,0.3,2.7,0.8c0.6,0.5,0.9,1.1,0.9,1.5v22.3c0,0.5-0.3,1-0.9,1.5c-0.6,0.5-1.5,0.7-2.6,0.7
	c-1.2,0-2.1-0.3-2.7-0.8c-0.6-0.5-0.9-1-0.9-1.5V43c0-0.5,0.3-1,0.9-1.5C291.6,40.9,292.5,40.6,293.7,40.6z M293.7,36.2
	c-1,0-1.8-0.4-2.5-1.1c-0.7-0.7-1.1-1.5-1.1-2.5c0-1,0.4-1.8,1.1-2.5c0.7-0.7,1.5-1.1,2.5-1.1c1,0,1.8,0.4,2.5,1.1
	c0.7,0.7,1.1,1.6,1.1,2.5c0,1-0.4,1.8-1.1,2.5C295.6,35.8,294.7,36.2,293.7,36.2z"/>
<path class="st0" d="M316,40.6c1.4,0,2.3,0.2,2.7,0.5c0.4,0.3,0.6,0.7,0.6,1.3c0,0.9-0.4,1.7-1.1,2.6c-0.7,0.9-1.7,1.3-2.9,1.3h-4.3
	v8.5c0,1.1,0,2.1,0.1,3c0,0.9,0.2,1.7,0.6,2.5c0.6,1.6,2.1,2.3,4.5,2.3c0.2,0,0.3,0,0.5,0c0.2,0,0.3,0,0.5,0
	c0.3,1.1,0.2,2.2-0.4,3.3c-0.6,1.1-1.7,1.7-3.2,1.7c-1.5,0-3-0.4-4.5-1.1c-1.5-0.7-2.9-2.3-4.2-4.9c-0.5-1.2-0.8-2.5-0.9-3.7
	c-0.1-1.2-0.1-2.3-0.1-3.1V35.5c0-0.5,0.3-1,0.9-1.6c0.6-0.5,1.5-0.8,2.7-0.8c1.1,0,2,0.3,2.6,0.8c0.6,0.5,0.9,1,0.9,1.6v5.1H316z"
	/>
<path class="st0" d="M343.8,40.8c0.9,0.3,1.3,0.9,1.2,1.8c-0.1,0.9-0.3,1.9-0.8,3l-11.7,30c-0.4,1.2-1.3,2.2-2.6,2.8
	c-1.3,0.6-2.6,0.7-3.9,0.1c-0.7-0.3-1.1-0.7-1.2-1.3c-0.1-0.6,0.1-1.7,0.7-3.4l4.5-11.5l-8.7-16.5c-0.9-1.7-1.3-2.8-1.1-3.4
	c0.1-0.5,0.5-1,1-1.3c1.1-0.6,2.3-0.7,3.6-0.4c1.3,0.3,2.4,1.2,3.2,2.5l5.4,10.3l3.8-9.7c0.8-1.7,1.9-2.6,3.1-3
	C341.7,40.4,342.8,40.5,343.8,40.8z"/>
<path class="st0" d="M105.3,100.7 M77.2,123.8l1.5-1V89.9h-7v29c-6.5,3.5-14.3,1.9-17.9,0.8V65.8H89l0,48.9l0,2.2l7,0V58.8H46.8
	v65.7l2.1,0.9c0.4,0.2,6.3,2.6,13.5,2.6C67.1,128.1,72.4,127.1,77.2,123.8z M35.6,122.5l-5-2.5c-1-0.5-23.8-12.1-23-44.3
	C8.1,51.5,23.2,39,28.4,35.5L28.4,5.6h49.5l-0.5,53.5l-7-0.1l0.5-46.4H35.4l0.2,78V122.5z M28.5,44.4c-5.5,5.1-13.5,15.2-14,31.5
	c-0.5,18.8,8.2,29.4,14.1,34.3V90.6L28.5,44.4z M94.2,119.9c1-0.5,23.5-13.1,22.7-44.9c-0.7-28.4-21.6-40.2-22.5-40.7L91,40.5
	c0.7,0.4,18.3,10.5,18.9,34.7c0.5,18.6-8.1,29.5-13.9,34.7V62.8h-7v60L94.2,119.9z M149.9,115.7h-17.4c-1.2,0-2-0.3-2.6-0.8
	s-0.9-1-0.9-1.5V80.7c0-0.7,0.3-1.3,0.8-1.8s1.3-0.8,2.3-0.8h18.5c1.5,0,2.4,0.2,2.9,0.5s0.7,0.8,0.7,1.3c0,0.8-0.4,1.8-1.1,2.7
	s-1.8,1.5-3.2,1.5h-14v8.5h11.2c1.5,0,2.4,0.2,2.9,0.5s0.7,0.8,0.7,1.3c0,1-0.4,2-1.2,2.9s-1.8,1.3-3,1.3h-10.5v11.3h14.7
	c1.5,0,2.4,0.2,2.9,0.5s0.7,0.8,0.7,1.4c0,1-0.4,1.9-1.1,2.8S151.2,115.7,149.9,115.7z M172.9,89.4c3.1,0,5.5,1,7.1,2.9
	s2.5,4.6,2.5,8v13.2c0,0.5-0.3,1-0.8,1.5s-1.5,0.8-2.7,0.8c-1.2,0-2.1-0.3-2.6-0.8s-0.8-1-0.8-1.5v-13.4c0-1.4-0.3-2.6-1-3.5
	s-1.6-1.4-2.9-1.4c-2.1,0-3.7,0.7-4.8,2.2s-1.6,3.7-1.6,6.8v9.2c0,0.5-0.3,1-0.9,1.5s-1.5,0.7-2.6,0.7c-1.1,0-2-0.2-2.6-0.7
	s-0.9-1-0.9-1.5V91.7c0-0.5,0.3-1,0.9-1.5s1.5-0.8,2.6-0.8c1.1,0,2,0.3,2.6,0.8s0.9,1,0.9,1.5V92c1.2-1,2.4-1.7,3.5-2.1
	S171.3,89.4,172.9,89.4z M209.3,108c0.3,0.2,0.6,0.5,0.9,1.1s0.4,1,0.4,1.4c0,1.3-0.9,2.5-2.6,3.8s-4.1,1.8-7.2,1.8
	c-4.6,0-8.1-1.3-10.5-3.9s-3.7-5.7-3.7-9.4c0-4,1.4-7.2,4.1-9.7s6.1-3.7,10.1-3.7c3.2,0,5.9,0.8,8.1,2.4s3.4,3.7,3.4,6.1
	c0,2.4-1.1,4.5-3.2,6.1s-4.9,2.5-8.4,2.5c-1,0-2.2-0.1-3.5-0.4s-2.5-0.8-3.5-1.5c0,1.6,0.7,3,2.1,4.3s3.4,1.8,6,1.8
	c1.2,0,2.5-0.2,4-0.7S208.6,108.8,209.3,108z M200.8,95.3c-1.2,0-2.3,0.3-3.5,0.8s-2,1.5-2.6,2.8c0.8,0.8,1.8,1.3,2.9,1.7
	s2.1,0.6,3.1,0.6c1.3,0,2.4-0.3,3.3-0.9s1.3-1.3,1.3-2.2c0-1-0.4-1.7-1.3-2.1S202,95.3,200.8,95.3z M227.1,89.4c2,0,3.4,0.5,4,1.6
	s0.8,2.2,0.5,3.2c-2.7,0-4.6,0.5-5.9,1.6s-1.8,3.5-1.8,7.1v10.5c0,0.5-0.3,1-0.9,1.5s-1.5,0.8-2.6,0.8c-1.1,0-2-0.3-2.6-0.8
	s-0.9-1-0.9-1.5v-12c0-3.8,1-6.8,3-9S224.4,89.4,227.1,89.4z M259.2,101v11.3c0,2.5-0.3,4.7-0.9,6.5s-1.4,3.3-2.5,4.5
	c-1.1,1.2-2.4,2-4,2.6s-3.3,0.8-5.3,0.8c-3.2,0-5.4-0.4-6.6-1.3s-1.8-1.8-1.8-2.8c0-0.8,0.4-1.6,1.1-2.2s1.9-0.8,3.5-0.4
	c0.7,0.2,1.4,0.3,1.9,0.3s1.2,0.1,1.9,0.1c2,0,3.5-0.5,4.3-1.5s1.3-2.7,1.3-5V113c-0.8,0.5-1.7,0.9-2.8,1.2s-2.4,0.4-3.9,0.4
	c-3.3,0-6-1.1-8.2-3.2s-3.4-5.2-3.4-9.1c0-3.8,1.2-6.9,3.7-9.4s5.7-3.8,9.6-3.8c3.2,0,6,1,8.4,3S259.2,97.2,259.2,101z M246.2,108.8
	c1.8,0,3.3-0.8,4.4-2.3s1.6-3.4,1.6-5.5c0-1.9-0.4-3.3-1.1-4.2s-1.9-1.4-3.6-1.6c-1.7-0.1-3.2,0.4-4.4,1.5s-1.9,2.7-2.3,4.8
	c-0.3,2.1,0,3.9,1,5.3S244.2,108.8,246.2,108.8z M285.8,89.6c0.9,0.3,1.3,0.9,1.2,1.7s-0.3,1.8-0.8,2.9l-11.4,29.3
	c-0.4,1.2-1.3,2.1-2.6,2.7s-2.5,0.6-3.8,0.1c-0.7-0.3-1.1-0.7-1.2-1.3s0.1-1.7,0.7-3.3l4.4-11.3l-8.5-16.2c-0.9-1.7-1.2-2.8-1.1-3.3
	s0.5-0.9,1-1.3c1.1-0.6,2.2-0.7,3.5-0.4s2.3,1.1,3.1,2.5l5.3,10.1l3.7-9.5c0.8-1.6,1.8-2.6,3.1-2.9S284.8,89.2,285.8,89.6z"/>
<path class="st0" d="M299.6,101c1.3,0,2.4,0.4,3.2,1.3c0.8,0.9,1.2,2.1,1.2,3.7s-0.4,2.9-1.2,3.8s-1.9,1.4-3.3,1.4h-1
	c-0.6,0-1.1-0.1-1.6-0.3c-0.5-0.2-0.8-0.5-1.1-0.8v5.3c0,0.1-0.1,0.2-0.2,0.3c-0.1,0.1-0.3,0.1-0.5,0.1c-0.2,0-0.4,0-0.5-0.1
	c-0.1-0.1-0.2-0.2-0.2-0.3v-10.6c0-1.3,0.3-2.2,1-2.9c0.7-0.7,1.6-1,2.7-1H299.6z M299.3,110c1.2,0,2-0.3,2.6-1
	c0.5-0.7,0.8-1.7,0.8-2.9c0-1.3-0.3-2.2-0.8-2.9c-0.6-0.6-1.3-1-2.4-1h-1.2c-0.7,0-1.3,0.2-1.7,0.6c-0.4,0.4-0.6,0.9-0.6,1.7v3
	c0,0.8,0.3,1.4,0.8,1.9c0.5,0.5,1.1,0.7,1.9,0.7H299.3z"/>
<path class="st0" d="M307.2,95.9c0.2,0,0.4,0,0.5,0.1c0.1,0.1,0.2,0.2,0.2,0.3v14.4c0,0.1-0.1,0.2-0.2,0.3c-0.1,0.1-0.3,0.1-0.5,0.1
	c-0.2,0-0.4,0-0.5-0.1c-0.1-0.1-0.2-0.2-0.2-0.3V96.4c0-0.1,0.1-0.2,0.2-0.3S307,95.9,307.2,95.9z"/>
<path class="st0" d="M320.4,107.6c0,0.4,0.1,0.9,0.3,1.4c0.2,0.5,0.4,1,0.7,1.4c0.1,0.1,0.1,0.2,0.1,0.2s0,0.1,0,0.2
	c0,0.1-0.1,0.2-0.3,0.3s-0.3,0.2-0.4,0.2c-0.2,0-0.4-0.1-0.6-0.4c-0.2-0.2-0.5-0.8-0.9-1.7c-0.4,0.6-0.9,1.2-1.6,1.6
	c-0.7,0.4-1.6,0.6-2.5,0.6c-1.3,0-2.3-0.5-3.1-1.4c-0.8-0.9-1.2-2.1-1.2-3.6c0-1.6,0.5-2.9,1.5-3.9c1-1,2.2-1.5,3.6-1.5
	c1.3,0,2.3,0.4,3.2,1.3c0.9,0.9,1.3,2.1,1.3,3.8L320.4,107.6z M319,106c0-1.1-0.2-2-0.7-2.7s-1.2-1-2.2-1c-1.2,0-2.1,0.4-2.8,1.3
	c-0.7,0.8-1,1.8-1,3c0,1.1,0.3,2,0.8,2.7c0.5,0.7,1.2,1,2.1,1c1,0,1.9-0.4,2.7-1.1C318.6,108.3,319,107.3,319,106z"/>
<path class="st0" d="M327.7,101c0.3,0,0.5,0,0.6,0.1c0.1,0.1,0.1,0.1,0.1,0.2c0,0.1-0.1,0.3-0.3,0.5c-0.2,0.2-0.4,0.3-0.7,0.3h-2.6
	v4.3c0,0.5,0,1,0,1.4c0,0.5,0.1,0.9,0.3,1.2c0.4,1,1.1,1.5,2,1.5c0.1,0,0.2,0,0.3,0c0.1,0,0.2-0.1,0.3-0.1c0,0.3-0.1,0.5-0.3,0.6
	c-0.2,0.2-0.5,0.2-0.9,0.2c-0.4,0-0.9-0.1-1.5-0.4c-0.5-0.3-0.9-0.8-1.3-1.6c-0.2-0.4-0.3-0.9-0.3-1.5c-0.1-0.6-0.1-1.1-0.1-1.4
	v-7.9c0-0.1,0.1-0.2,0.2-0.3s0.3-0.1,0.5-0.1s0.4,0,0.5,0.1s0.2,0.2,0.2,0.3v2.6H327.7z"/>
<path class="st0" d="M335.7,97.2c-0.7,0-1.3,0.1-1.6,0.4c-0.3,0.2-0.6,0.5-0.7,0.9c-0.1,0.3-0.2,0.6-0.2,1c0,0.3,0,0.9,0,1.6v1h2.3
	c0.4,0,0.6,0,0.7,0.1c0.1,0.1,0.1,0.1,0.1,0.2c0,0.2-0.1,0.5-0.4,0.6c-0.3,0.2-0.6,0.3-0.9,0.3h-1.8v7.5c0,0.1-0.1,0.2-0.2,0.3
	c-0.1,0.1-0.3,0.1-0.5,0.1c-0.2,0-0.4,0-0.5-0.1c-0.1-0.1-0.2-0.2-0.2-0.3v-7.5h-1.7c-0.2,0-0.4,0-0.5-0.1c-0.1,0-0.1-0.1-0.1-0.2
	c0-0.2,0.1-0.4,0.3-0.6c0.2-0.2,0.5-0.3,0.9-0.3h1.1V101c0-1.2,0.1-2.1,0.3-2.6c0.2-0.6,0.5-1,0.8-1.4s0.7-0.6,1.1-0.8
	c0.4-0.1,0.8-0.2,1.3-0.2h1.1c0.3,0,0.5,0,0.5,0.1c0.1,0,0.1,0.1,0.1,0.2c0,0.1,0,0.2-0.1,0.3c-0.1,0.2-0.1,0.3-0.2,0.4
	c-0.1,0.1-0.2,0.2-0.4,0.2C336.3,97.2,336,97.2,335.7,97.2z"/>
<path class="st0" d="M343,101c1.5,0,2.8,0.5,3.8,1.4c1,0.9,1.5,2.2,1.5,3.8c0,1.6-0.5,2.8-1.5,3.8c-1,0.9-2.2,1.4-3.8,1.4
	c-1.6,0-2.9-0.5-3.8-1.5c-0.9-1-1.4-2.2-1.4-3.7c0-1.6,0.5-2.9,1.5-3.9C340.3,101.4,341.5,101,343,101z M343,110.2
	c1.1,0,2.1-0.3,2.8-1c0.7-0.7,1.1-1.7,1.1-2.9c0-1.2-0.4-2.2-1.1-2.9c-0.7-0.7-1.6-1.1-2.8-1.1c-1.1,0-2.1,0.4-2.7,1.1
	c-0.7,0.7-1,1.7-1,2.9c0,1.2,0.3,2.2,1,2.9C340.9,109.8,341.8,110.2,343,110.2z"/>
<path class="st0" d="M354.1,100.7c0.5,0,0.9,0.1,1.1,0.3c0.2,0.2,0.3,0.4,0.3,0.5c-1,0-1.9,0.3-2.5,0.9c-0.7,0.6-1,1.7-1,3.3v5.1
	c0,0.1-0.1,0.2-0.2,0.3c-0.1,0.1-0.3,0.1-0.5,0.1c-0.2,0-0.4,0-0.5-0.1c-0.1-0.1-0.2-0.2-0.2-0.3v-5.3c0-1.6,0.4-2.8,1.1-3.6
	C352.5,101.1,353.3,100.7,354.1,100.7z"/>
<path class="st0" d="M366.7,100.9c1,0,1.9,0.3,2.5,1c0.6,0.6,1,1.6,1,2.9v6.1c0,0.1-0.1,0.2-0.2,0.3c-0.1,0.1-0.3,0.1-0.5,0.1
	s-0.4,0-0.5-0.1c-0.1-0.1-0.2-0.2-0.2-0.3v-6.5c0-0.7-0.2-1.3-0.5-1.7s-0.9-0.6-1.5-0.6c-0.7,0-1.2,0.2-1.6,0.7
	c-0.4,0.5-0.6,1-0.6,1.6v6.4c0,0.1-0.1,0.2-0.2,0.3c-0.1,0.1-0.3,0.1-0.5,0.1s-0.4,0-0.5-0.1c-0.1-0.1-0.2-0.2-0.2-0.3v-6.4
	c0-0.6-0.2-1.1-0.5-1.6c-0.3-0.5-0.8-0.7-1.5-0.7c-0.7,0-1.2,0.2-1.6,0.6s-0.6,1-0.6,1.7v6.4c0,0.1-0.1,0.2-0.2,0.3
	c-0.1,0.1-0.3,0.1-0.5,0.1c-0.2,0-0.4,0-0.5-0.1c-0.1-0.1-0.2-0.2-0.2-0.3v-6c0-1.4,0.3-2.4,1-3c0.7-0.6,1.5-0.9,2.5-0.9
	c0.5,0,1.1,0.1,1.5,0.4s0.9,0.6,1.2,1.1c0.3-0.4,0.7-0.8,1.2-1S366.1,100.9,366.7,100.9z"/>
</svg>
