<svg width="30" height="30" viewBox="0 0 30 30" fill="none" xmlns="http://www.w3.org/2000/svg">
<path fill-rule="evenodd" clip-rule="evenodd" d="M0.489132 0.488125C1.14001 -0.162749 2.19528 -0.162749 2.84615 0.488125L15.001 12.6429L27.1558 0.488125C27.8067 -0.162749 28.8619 -0.162749 29.5128 0.488125C30.1637 1.139 30.1637 2.19427 29.5128 2.84515L17.358 15L29.5128 27.1548C30.1637 27.8057 30.1637 28.8609 29.5128 29.5118C28.8619 30.1627 27.8067 30.1627 27.1558 29.5118L15.001 17.357L2.84615 29.5118C2.19528 30.1627 1.14001 30.1627 0.489132 29.5118C-0.161742 28.8609 -0.161742 27.8057 0.489132 27.1548L12.644 15L0.489132 2.84515C-0.161742 2.19427 -0.161742 1.139 0.489132 0.488125Z" fill="white"/>
</svg>
