<svg width="627" height="167" viewBox="0 0 627 167" fill="none" xmlns="http://www.w3.org/2000/svg">
<mask id="mask0_14_2895" style="mask-type:alpha" maskUnits="userSpaceOnUse" x="0" y="0" width="627" height="167">
<rect width="627" height="167" fill="#C4C4C4"/>
</mask>
<g mask="url(#mask0_14_2895)">
<g opacity="0.3" clip-path="url(#clip0_14_2895)">
<path d="M129.173 -43C128.45 -43 127.581 -42.8553 126.641 -42.7251C122.26 -42.1171 118.073 -40.534 114.386 -38.0925C110.699 -35.6509 107.607 -32.4132 105.338 -28.6181L0 122.986H73.4142L126.583 45.896L187.957 -43H129.173Z" fill="url(#paint0_linear_14_2895)"/>
</g>
<path d="M546 135.298V151.675V142.872V166.981H572.714H627V151.675V18L546 135.298Z" fill="url(#paint1_linear_14_2895)" fill-opacity="0.3"/>
<path opacity="0.3" d="M448.214 72.4276C450.542 72.4256 452.428 70.5417 452.428 68.2138C452.428 65.886 450.542 64.002 448.214 64C445.886 64 444 65.886 444 68.2138C444 70.5417 445.886 72.4256 448.214 72.4276ZM448.214 71.0217C446.663 71.0197 445.41 69.7644 445.406 68.2138C445.41 66.6633 446.663 65.41 448.214 65.4059C449.764 65.408 451.018 66.6633 451.022 68.2138C451.018 69.7644 449.764 71.0177 448.214 71.0217Z" fill="#2F80ED"/>
<path opacity="0.3" d="M193.492 79.9189V79.2159L194.035 79.6638L193.492 79.2159V79.9189H192L203.477 66L214.955 79.9189H193.492ZM211.972 78.5129L203.477 68.2094L194.981 78.5129H211.972Z" fill="#2F80ED"/>
<path opacity="0.3" d="M193.492 51.4276V50.7247L194.035 51.1725L193.492 50.7247V51.4276H192L203.477 37.5088L214.955 51.4276H193.492ZM211.972 50.0217L203.477 39.7181L194.981 50.0217H211.972Z" fill="#2F80ED"/>
<g opacity="0.3">
<path d="M286.505 143.15C286.189 142.925 285.875 142.694 285.564 142.463C285.579 142.463 285.593 142.457 285.608 142.457C286.04 142.457 286.399 142.753 286.505 143.15Z" fill="#2F80ED"/>
<path d="M304.695 149.8C305.207 149.8 305.625 150.218 305.625 150.73C305.625 150.958 305.539 151.165 305.402 151.325C304.866 151.219 304.336 151.106 303.806 150.985C303.783 150.902 303.768 150.819 303.768 150.73C303.768 150.215 304.182 149.8 304.695 149.8Z" fill="#2F80ED"/>
<path d="M329.799 149.801C329.929 149.801 330.054 149.827 330.163 149.875C329.781 149.999 329.399 150.117 329.017 150.23C329.183 149.972 329.47 149.801 329.799 149.801Z" fill="#2F80ED"/>
<path d="M322.545 150.727C322.545 150.215 322.959 149.798 323.475 149.798C323.987 149.798 324.404 150.215 324.404 150.727C324.404 151.006 324.28 151.252 324.085 151.423C323.771 151.482 323.454 151.539 323.137 151.589C322.788 151.456 322.545 151.121 322.545 150.727Z" fill="#2F80ED"/>
<path d="M279.284 135.114C279.796 135.114 280.214 135.529 280.214 136.041C280.214 136.518 279.856 136.906 279.394 136.959C279.047 136.595 278.71 136.224 278.378 135.851C278.461 135.431 278.834 135.114 279.284 135.114Z" fill="#2F80ED"/>
<path d="M273.883 128.7C273.883 128.999 273.741 129.263 273.522 129.431C273.193 128.913 272.877 128.389 272.566 127.859C272.684 127.803 272.814 127.77 272.954 127.77C273.469 127.77 273.883 128.188 273.883 128.7Z" fill="#2F80ED"/>
<path d="M267.558 114.016C267.558 114.277 267.448 114.511 267.276 114.68C267.155 114.17 267.036 113.658 266.93 113.143C267.294 113.267 267.558 113.608 267.558 114.016Z" fill="#2F80ED"/>
<path d="M360.667 85.1673C360.596 85.0636 360.546 84.9422 360.522 84.8119C360.573 84.9304 360.623 85.0488 360.667 85.1673Z" fill="#2F80ED"/>
<path d="M267.558 106.673C267.558 107.186 267.143 107.603 266.628 107.603C266.432 107.603 266.252 107.544 266.104 107.44C266.062 106.961 266.027 106.478 266 105.995C266.166 105.841 266.385 105.747 266.628 105.747C267.14 105.744 267.558 106.161 267.558 106.673Z" fill="#2F80ED"/>
<path d="M328.887 56.0985C329.411 56.2525 329.933 56.4154 330.451 56.5871C330.282 56.7529 330.054 56.8566 329.799 56.8566C329.346 56.8566 328.967 56.5309 328.887 56.0985Z" fill="#2F80ED"/>
<path d="M342.454 64.1998C341.942 64.1998 341.524 63.7852 341.524 63.27C341.524 62.8259 341.838 62.4528 342.256 62.3639C342.629 62.6156 342.999 62.8673 343.366 63.1279C343.372 63.1753 343.381 63.2226 343.381 63.27C343.381 63.7823 342.966 64.1998 342.454 64.1998Z" fill="#2F80ED"/>
<path d="M360.896 120.605C360.775 120.922 360.654 121.235 360.526 121.549C360.515 121.487 360.506 121.425 360.506 121.36C360.509 121.046 360.663 120.773 360.896 120.605Z" fill="#2F80ED"/>
<path d="M341.524 143.387C341.524 142.875 341.942 142.46 342.454 142.46C342.919 142.46 343.298 142.801 343.369 143.245C342.913 143.568 342.454 143.882 341.986 144.186C341.711 144.024 341.524 143.728 341.524 143.387Z" fill="#2F80ED"/>
<path d="M299.193 106.673C299.193 107.186 298.779 107.603 298.267 107.603C297.754 107.603 297.337 107.189 297.337 106.673C297.337 106.161 297.751 105.747 298.267 105.747C298.776 105.744 299.193 106.161 299.193 106.673Z" fill="#2F80ED"/>
<path d="M324.401 91.9863C324.401 92.4986 323.987 92.9161 323.472 92.9161C322.959 92.9161 322.542 92.4986 322.542 91.9863C322.542 91.4741 322.956 91.0595 323.472 91.0595C323.984 91.0595 324.401 91.4741 324.401 91.9863Z" fill="#2F80ED"/>
<path d="M318.074 91.9863C318.074 92.4986 317.659 92.9161 317.144 92.9161C316.632 92.9161 316.214 92.4986 316.214 91.9863C316.214 91.4741 316.629 91.0595 317.144 91.0595C317.659 91.0595 318.074 91.4741 318.074 91.9863Z" fill="#2F80ED"/>
<path d="M337.053 91.9863C337.053 92.4986 336.639 92.9161 336.123 92.9161C335.611 92.9161 335.194 92.4986 335.194 91.9863C335.194 91.4741 335.611 91.0595 336.123 91.0595C336.639 91.0595 337.053 91.4741 337.053 91.9863Z" fill="#2F80ED"/>
<path d="M343.381 91.9863C343.381 92.4986 342.966 92.9161 342.451 92.9161C341.939 92.9161 341.521 92.4986 341.521 91.9863C341.521 91.4741 341.939 91.0595 342.451 91.0595C342.966 91.0595 343.381 91.4741 343.381 91.9863Z" fill="#2F80ED"/>
<path d="M280.211 91.9863C280.211 92.4986 279.796 92.9161 279.281 92.9161C278.769 92.9161 278.351 92.4986 278.351 91.9863C278.351 91.4741 278.766 91.0595 279.281 91.0595C279.796 91.0595 280.211 91.4741 280.211 91.9863Z" fill="#2F80ED"/>
<path d="M311.746 91.9863C311.746 92.4986 311.332 92.9161 310.816 92.9161C310.304 92.9161 309.887 92.4986 309.887 91.9863C309.887 91.4741 310.301 91.0595 310.816 91.0595C311.332 91.0595 311.746 91.4741 311.746 91.9863Z" fill="#2F80ED"/>
<path d="M292.866 91.9863C292.866 92.4986 292.449 92.9161 291.936 92.9161C291.424 92.9161 291.007 92.4986 291.007 91.9863C291.007 91.4741 291.421 91.0595 291.936 91.0595C292.449 91.0595 292.866 91.4741 292.866 91.9863Z" fill="#2F80ED"/>
<path d="M305.625 91.9863C305.625 92.4986 305.207 92.9161 304.695 92.9161C304.182 92.9161 303.765 92.4986 303.765 91.9863C303.765 91.4741 304.18 91.0595 304.695 91.0595C305.207 91.0595 305.625 91.4741 305.625 91.9863Z" fill="#2F80ED"/>
<path d="M286.539 91.9863C286.539 92.4986 286.124 92.9161 285.609 92.9161C285.097 92.9161 284.679 92.4986 284.679 91.9863C284.679 91.4741 285.097 91.0595 285.609 91.0595C286.124 91.0595 286.539 91.4741 286.539 91.9863Z" fill="#2F80ED"/>
<path d="M299.193 91.9863C299.193 92.4986 298.779 92.9161 298.267 92.9161C297.754 92.9161 297.337 92.4986 297.337 91.9863C297.337 91.4741 297.751 91.0595 298.267 91.0595C298.776 91.0595 299.193 91.4741 299.193 91.9863Z" fill="#2F80ED"/>
<path d="M330.729 91.9863C330.729 92.4986 330.314 92.9161 329.799 92.9161C329.286 92.9161 328.869 92.4986 328.869 91.9863C328.869 91.4741 329.284 91.0595 329.799 91.0595C330.311 91.0595 330.729 91.4741 330.729 91.9863Z" fill="#2F80ED"/>
<path d="M292.866 84.6456C292.866 85.1579 292.449 85.5754 291.936 85.5754C291.424 85.5754 291.007 85.1609 291.007 84.6456C291.007 84.1334 291.421 83.7159 291.936 83.7159C292.449 83.7159 292.866 84.1334 292.866 84.6456Z" fill="#2F80ED"/>
<path d="M299.193 84.6456C299.193 85.1579 298.779 85.5754 298.267 85.5754C297.754 85.5754 297.337 85.1609 297.337 84.6456C297.337 84.1334 297.751 83.7159 298.267 83.7159C298.776 83.7159 299.193 84.1334 299.193 84.6456Z" fill="#2F80ED"/>
<path d="M305.625 84.6456C305.625 85.1579 305.207 85.5754 304.695 85.5754C304.182 85.5754 303.765 85.1609 303.765 84.6456C303.765 84.1334 304.18 83.7159 304.695 83.7159C305.207 83.7159 305.625 84.1334 305.625 84.6456Z" fill="#2F80ED"/>
<path d="M286.539 84.6456C286.539 85.1579 286.124 85.5754 285.609 85.5754C285.097 85.5754 284.679 85.1609 284.679 84.6456C284.679 84.1334 285.097 83.7159 285.609 83.7159C286.124 83.7159 286.539 84.1334 286.539 84.6456Z" fill="#2F80ED"/>
<path d="M362.365 91.9863C362.365 92.4986 361.95 92.9161 361.435 92.9161C360.923 92.9161 360.508 92.4986 360.508 91.9863C360.508 91.4741 360.923 91.0595 361.435 91.0595C361.947 91.0595 362.365 91.4741 362.365 91.9863Z" fill="#2F80ED"/>
<path d="M356.037 91.9863C356.037 92.4986 355.623 92.9161 355.11 92.9161C354.598 92.9161 354.181 92.4986 354.181 91.9863C354.181 91.4741 354.595 91.0595 355.11 91.0595C355.623 91.0595 356.037 91.4741 356.037 91.9863Z" fill="#2F80ED"/>
<path d="M349.708 91.9863C349.708 92.4986 349.294 92.9161 348.779 92.9161C348.266 92.9161 347.849 92.4986 347.849 91.9863C347.849 91.4741 348.264 91.0595 348.779 91.0595C349.294 91.0595 349.708 91.4741 349.708 91.9863Z" fill="#2F80ED"/>
<path d="M280.211 84.6456C280.211 85.1579 279.796 85.5754 279.281 85.5754C278.769 85.5754 278.351 85.1609 278.351 84.6456C278.351 84.1334 278.766 83.7159 279.281 83.7159C279.796 83.7159 280.211 84.1334 280.211 84.6456Z" fill="#2F80ED"/>
<path d="M273.883 84.6456C273.883 85.1579 273.469 85.5754 272.954 85.5754C272.441 85.5754 272.027 85.1609 272.027 84.6456C272.027 84.1334 272.441 83.7159 272.954 83.7159C273.469 83.7159 273.883 84.1334 273.883 84.6456Z" fill="#2F80ED"/>
<path d="M305.625 99.3299C305.625 99.8422 305.207 100.26 304.695 100.26C304.182 100.26 303.765 99.8451 303.765 99.3299C303.765 98.8147 304.18 98.4001 304.695 98.4001C305.207 98.4001 305.625 98.8176 305.625 99.3299Z" fill="#2F80ED"/>
<path d="M292.866 99.3299C292.866 99.8422 292.449 100.26 291.936 100.26C291.424 100.26 291.007 99.8451 291.007 99.3299C291.007 98.8147 291.421 98.4001 291.936 98.4001C292.449 98.4001 292.866 98.8176 292.866 99.3299Z" fill="#2F80ED"/>
<path d="M286.539 99.3299C286.539 99.8422 286.124 100.26 285.609 100.26C285.097 100.26 284.679 99.8451 284.679 99.3299C284.679 98.8147 285.097 98.4001 285.609 98.4001C286.124 98.4001 286.539 98.8176 286.539 99.3299Z" fill="#2F80ED"/>
<path d="M280.211 99.3299C280.211 99.8422 279.796 100.26 279.281 100.26C278.769 100.26 278.351 99.8451 278.351 99.3299C278.351 98.8147 278.766 98.4001 279.281 98.4001C279.796 98.4001 280.211 98.8176 280.211 99.3299Z" fill="#2F80ED"/>
<path d="M299.193 99.3299C299.193 99.8422 298.779 100.26 298.267 100.26C297.754 100.26 297.337 99.8451 297.337 99.3299C297.337 98.8147 297.751 98.4001 298.267 98.4001C298.776 98.4001 299.193 98.8176 299.193 99.3299Z" fill="#2F80ED"/>
<path d="M349.708 106.673C349.708 107.186 349.294 107.603 348.779 107.603C348.266 107.603 347.849 107.189 347.849 106.673C347.849 106.161 348.264 105.747 348.779 105.747C349.294 105.744 349.708 106.161 349.708 106.673Z" fill="#2F80ED"/>
<path d="M311.746 84.6456C311.746 85.1579 311.332 85.5754 310.816 85.5754C310.304 85.5754 309.887 85.1609 309.887 84.6456C309.887 84.1334 310.301 83.7159 310.816 83.7159C311.332 83.7159 311.746 84.1334 311.746 84.6456Z" fill="#2F80ED"/>
<path d="M356.037 106.673C356.037 107.186 355.623 107.603 355.11 107.603C354.598 107.603 354.181 107.189 354.181 106.673C354.181 106.161 354.595 105.747 355.11 105.747C355.623 105.744 356.037 106.161 356.037 106.673Z" fill="#2F80ED"/>
<path d="M273.883 99.3299C273.883 99.8422 273.469 100.26 272.954 100.26C272.441 100.26 272.027 99.8451 272.027 99.3299C272.027 98.8147 272.441 98.4001 272.954 98.4001C273.469 98.4001 273.883 98.8176 273.883 99.3299Z" fill="#2F80ED"/>
<path d="M362.365 106.674C362.365 107.186 361.95 107.603 361.435 107.603C360.923 107.603 360.508 107.189 360.508 106.674C360.508 106.161 360.923 105.747 361.435 105.747C361.947 105.744 362.365 106.161 362.365 106.674Z" fill="#2F80ED"/>
<path d="M311.746 99.3299C311.746 99.8422 311.332 100.26 310.816 100.26C310.304 100.26 309.887 99.8451 309.887 99.3299C309.887 98.8147 310.301 98.4001 310.816 98.4001C311.332 98.4001 311.746 98.8176 311.746 99.3299Z" fill="#2F80ED"/>
<path d="M343.381 106.673C343.381 107.186 342.966 107.603 342.451 107.603C341.939 107.603 341.521 107.189 341.521 106.673C341.521 106.161 341.939 105.747 342.451 105.747C342.966 105.744 343.381 106.161 343.381 106.673Z" fill="#2F80ED"/>
<path d="M356.037 99.3299C356.037 99.8422 355.623 100.26 355.11 100.26C354.598 100.26 354.181 99.8451 354.181 99.3299C354.181 98.8147 354.595 98.4001 355.11 98.4001C355.623 98.4001 356.037 98.8176 356.037 99.3299Z" fill="#2F80ED"/>
<path d="M362.365 99.3299C362.365 99.8422 361.95 100.26 361.435 100.26C360.923 100.26 360.508 99.8451 360.508 99.3299C360.508 98.8147 360.923 98.4001 361.435 98.4001C361.947 98.4001 362.365 98.8176 362.365 99.3299Z" fill="#2F80ED"/>
<path d="M343.381 99.3299C343.381 99.8422 342.966 100.26 342.451 100.26C341.939 100.26 341.521 99.8451 341.521 99.3299C341.521 98.8147 341.939 98.4001 342.451 98.4001C342.966 98.4001 343.381 98.8176 343.381 99.3299Z" fill="#2F80ED"/>
<path d="M349.708 99.3299C349.708 99.8422 349.294 100.26 348.779 100.26C348.266 100.26 347.849 99.8451 347.849 99.3299C347.849 98.8147 348.264 98.4001 348.779 98.4001C349.294 98.4001 349.708 98.8176 349.708 99.3299Z" fill="#2F80ED"/>
<path d="M324.401 99.3299C324.401 99.8422 323.987 100.26 323.472 100.26C322.959 100.26 322.542 99.8451 322.542 99.3299C322.542 98.8147 322.956 98.4001 323.472 98.4001C323.984 98.4001 324.401 98.8176 324.401 99.3299Z" fill="#2F80ED"/>
<path d="M318.074 99.3299C318.074 99.8422 317.659 100.26 317.144 100.26C316.632 100.26 316.214 99.8451 316.214 99.3299C316.214 98.8147 316.629 98.4001 317.144 98.4001C317.659 98.4001 318.074 98.8176 318.074 99.3299Z" fill="#2F80ED"/>
<path d="M337.053 99.3299C337.053 99.8422 336.639 100.26 336.123 100.26C335.611 100.26 335.194 99.8451 335.194 99.3299C335.194 98.8147 335.611 98.4001 336.123 98.4001C336.639 98.4001 337.053 98.8176 337.053 99.3299Z" fill="#2F80ED"/>
<path d="M330.729 99.3299C330.729 99.8422 330.314 100.26 329.799 100.26C329.286 100.26 328.869 99.8451 328.869 99.3299C328.869 98.8147 329.284 98.4001 329.799 98.4001C330.311 98.4001 330.729 98.8176 330.729 99.3299Z" fill="#2F80ED"/>
<path d="M273.883 91.9863C273.883 92.4986 273.469 92.9161 272.954 92.9161C272.441 92.9161 272.027 92.4986 272.027 91.9863C272.027 91.4741 272.441 91.0595 272.954 91.0595C273.469 91.0595 273.883 91.4741 273.883 91.9863Z" fill="#2F80ED"/>
<path d="M324.401 70.6137C324.401 71.1259 323.987 71.5405 323.472 71.5405C322.959 71.5405 322.542 71.1259 322.542 70.6137C322.542 70.1014 322.956 69.6839 323.472 69.6839C323.984 69.6839 324.401 70.1014 324.401 70.6137Z" fill="#2F80ED"/>
<path d="M318.074 70.6137C318.074 71.1259 317.659 71.5405 317.144 71.5405C316.632 71.5405 316.214 71.1259 316.214 70.6137C316.214 70.1014 316.629 69.6839 317.144 69.6839C317.659 69.6839 318.074 70.1014 318.074 70.6137Z" fill="#2F80ED"/>
<path d="M330.729 70.6137C330.729 71.1259 330.314 71.5405 329.799 71.5405C329.286 71.5405 328.869 71.1259 328.869 70.6137C328.869 70.1014 329.284 69.6839 329.799 69.6839C330.311 69.6839 330.729 70.1014 330.729 70.6137Z" fill="#2F80ED"/>
<path d="M337.053 70.6137C337.053 71.1259 336.639 71.5405 336.123 71.5405C335.611 71.5405 335.194 71.1259 335.194 70.6137C335.194 70.1014 335.611 69.6839 336.123 69.6839C336.639 69.6839 337.053 70.1014 337.053 70.6137Z" fill="#2F80ED"/>
<path d="M349.708 70.6137C349.708 71.1259 349.294 71.5405 348.779 71.5405C348.266 71.5405 347.849 71.1259 347.849 70.6137C347.849 70.1014 348.264 69.6839 348.779 69.6839C349.294 69.6839 349.708 70.1014 349.708 70.6137Z" fill="#2F80ED"/>
<path d="M343.381 70.6137C343.381 71.1259 342.966 71.5405 342.451 71.5405C341.939 71.5405 341.521 71.1259 341.521 70.6137C341.521 70.1014 341.939 69.6839 342.451 69.6839C342.966 69.6839 343.381 70.1014 343.381 70.6137Z" fill="#2F80ED"/>
<path d="M311.746 70.6137C311.746 71.1259 311.332 71.5405 310.816 71.5405C310.304 71.5405 309.887 71.1259 309.887 70.6137C309.887 70.1014 310.301 69.6839 310.816 69.6839C311.332 69.6839 311.746 70.1014 311.746 70.6137Z" fill="#2F80ED"/>
<path d="M286.539 70.6137C286.539 71.1259 286.124 71.5405 285.609 71.5405C285.097 71.5405 284.679 71.1259 284.679 70.6137C284.679 70.1014 285.097 69.6839 285.609 69.6839C286.124 69.6839 286.539 70.1014 286.539 70.6137Z" fill="#2F80ED"/>
<path d="M292.866 70.6137C292.866 71.1259 292.448 71.5405 291.936 71.5405C291.424 71.5405 291.006 71.1259 291.006 70.6137C291.006 70.1014 291.421 69.6839 291.936 69.6839C292.448 69.6839 292.866 70.1014 292.866 70.6137Z" fill="#2F80ED"/>
<path d="M305.625 70.6137C305.625 71.1259 305.207 71.5405 304.695 71.5405C304.182 71.5405 303.765 71.1259 303.765 70.6137C303.765 70.1014 304.18 69.6839 304.695 69.6839C305.207 69.6839 305.625 70.1014 305.625 70.6137Z" fill="#2F80ED"/>
<path d="M299.193 70.6137C299.193 71.1259 298.779 71.5405 298.267 71.5405C297.754 71.5405 297.337 71.1259 297.337 70.6137C297.337 70.1014 297.751 69.6839 298.267 69.6839C298.776 69.6839 299.193 70.1014 299.193 70.6137Z" fill="#2F80ED"/>
<path d="M330.729 63.27C330.729 63.7823 330.314 64.1998 329.799 64.1998C329.286 64.1998 328.869 63.7852 328.869 63.27C328.869 62.7578 329.284 62.3402 329.799 62.3402C330.311 62.3402 330.729 62.7578 330.729 63.27Z" fill="#2F80ED"/>
<path d="M337.053 63.27C337.053 63.7823 336.639 64.1998 336.123 64.1998C335.611 64.1998 335.194 63.7852 335.194 63.27C335.194 62.7578 335.611 62.3402 336.123 62.3402C336.639 62.3402 337.053 62.7578 337.053 63.27Z" fill="#2F80ED"/>
<path d="M324.401 63.27C324.401 63.7823 323.987 64.1998 323.472 64.1998C322.959 64.1998 322.542 63.7852 322.542 63.27C322.542 62.7578 322.956 62.3402 323.472 62.3402C323.984 62.3402 324.401 62.7578 324.401 63.27Z" fill="#2F80ED"/>
<path d="M305.625 55.9268C305.625 56.4391 305.207 56.8566 304.695 56.8566C304.182 56.8566 303.765 56.442 303.765 55.9268C303.765 55.7047 303.845 55.5063 303.975 55.3464C304.351 55.2606 304.727 55.1777 305.109 55.1007C305.411 55.2517 305.625 55.5626 305.625 55.9268Z" fill="#2F80ED"/>
<path d="M305.625 63.27C305.625 63.7823 305.207 64.1998 304.695 64.1998C304.182 64.1998 303.765 63.7852 303.765 63.27C303.765 62.7578 304.18 62.3402 304.695 62.3402C305.207 62.3402 305.625 62.7578 305.625 63.27Z" fill="#2F80ED"/>
<path d="M318.074 63.27C318.074 63.7823 317.659 64.1998 317.144 64.1998C316.632 64.1998 316.214 63.7852 316.214 63.27C316.214 62.7578 316.629 62.3402 317.144 62.3402C317.659 62.3402 318.074 62.7578 318.074 63.27Z" fill="#2F80ED"/>
<path d="M292.866 63.27C292.866 63.7823 292.448 64.1998 291.936 64.1998C291.424 64.1998 291.006 63.7852 291.006 63.27C291.006 62.7578 291.421 62.3402 291.936 62.3402C292.448 62.3402 292.866 62.7578 292.866 63.27Z" fill="#2F80ED"/>
<path d="M299.193 63.27C299.193 63.7823 298.779 64.1998 298.267 64.1998C297.754 64.1998 297.337 63.7852 297.337 63.27C297.337 62.7578 297.751 62.3402 298.267 62.3402C298.776 62.3402 299.193 62.7578 299.193 63.27Z" fill="#2F80ED"/>
<path d="M267.558 99.3299C267.558 99.8422 267.143 100.26 266.628 100.26C266.394 100.26 266.184 100.171 266.021 100.029C266.053 99.5313 266.092 99.0368 266.136 98.5452C266.278 98.4564 266.444 98.4031 266.625 98.4031C267.14 98.4001 267.558 98.8176 267.558 99.3299Z" fill="#2F80ED"/>
<path d="M330.729 77.9571C330.729 78.4694 330.314 78.8869 329.799 78.8869C329.286 78.8869 328.869 78.4694 328.869 77.9571C328.869 77.4449 329.284 77.0274 329.799 77.0274C330.311 77.0274 330.729 77.4419 330.729 77.9571Z" fill="#2F80ED"/>
<path d="M280.211 77.9571C280.211 78.4694 279.796 78.8869 279.281 78.8869C278.769 78.8869 278.351 78.4694 278.351 77.9571C278.351 77.4449 278.766 77.0274 279.281 77.0274C279.796 77.0274 280.211 77.4419 280.211 77.9571Z" fill="#2F80ED"/>
<path d="M356.037 84.6456C356.037 85.1579 355.623 85.5754 355.11 85.5754C354.598 85.5754 354.181 85.1609 354.181 84.6456C354.181 84.1334 354.595 83.7159 355.11 83.7159C355.623 83.7159 356.037 84.1334 356.037 84.6456Z" fill="#2F80ED"/>
<path d="M292.866 77.9571C292.866 78.4694 292.449 78.8869 291.936 78.8869C291.424 78.8869 291.007 78.4694 291.007 77.9571C291.007 77.4449 291.421 77.0274 291.936 77.0274C292.449 77.0274 292.866 77.4419 292.866 77.9571Z" fill="#2F80ED"/>
<path d="M286.539 77.9571C286.539 78.4694 286.124 78.8869 285.609 78.8869C285.097 78.8869 284.679 78.4694 284.679 77.9571C284.679 77.4449 285.097 77.0274 285.609 77.0274C286.124 77.0274 286.539 77.4419 286.539 77.9571Z" fill="#2F80ED"/>
<path d="M349.708 84.6456C349.708 85.1579 349.294 85.5754 348.779 85.5754C348.266 85.5754 347.849 85.1609 347.849 84.6456C347.849 84.1334 348.264 83.7159 348.779 83.7159C349.294 83.7159 349.708 84.1334 349.708 84.6456Z" fill="#2F80ED"/>
<path d="M330.729 84.6456C330.729 85.1579 330.314 85.5754 329.799 85.5754C329.286 85.5754 328.869 85.1609 328.869 84.6456C328.869 84.1334 329.284 83.7159 329.799 83.7159C330.311 83.7159 330.729 84.1334 330.729 84.6456Z" fill="#2F80ED"/>
<path d="M324.401 84.6456C324.401 85.1579 323.987 85.5754 323.472 85.5754C322.959 85.5754 322.542 85.1609 322.542 84.6456C322.542 84.1334 322.956 83.7159 323.472 83.7159C323.984 83.7159 324.401 84.1334 324.401 84.6456Z" fill="#2F80ED"/>
<path d="M337.053 84.6456C337.053 85.1579 336.639 85.5754 336.123 85.5754C335.611 85.5754 335.194 85.1609 335.194 84.6456C335.194 84.1334 335.611 83.7159 336.123 83.7159C336.639 83.7159 337.053 84.1334 337.053 84.6456Z" fill="#2F80ED"/>
<path d="M356.037 77.9571C356.037 78.4694 355.623 78.8869 355.11 78.8869C354.598 78.8869 354.181 78.4694 354.181 77.9571C354.181 77.4449 354.595 77.0274 355.11 77.0274C355.623 77.0274 356.037 77.4419 356.037 77.9571Z" fill="#2F80ED"/>
<path d="M343.381 84.6456C343.381 85.1579 342.966 85.5754 342.451 85.5754C341.939 85.5754 341.521 85.1609 341.521 84.6456C341.521 84.1334 341.939 83.7159 342.451 83.7159C342.966 83.7159 343.381 84.1334 343.381 84.6456Z" fill="#2F80ED"/>
<path d="M337.053 77.9571C337.053 78.4694 336.639 78.8869 336.123 78.8869C335.611 78.8869 335.194 78.4694 335.194 77.9571C335.194 77.4449 335.611 77.0274 336.123 77.0274C336.639 77.0274 337.053 77.4419 337.053 77.9571Z" fill="#2F80ED"/>
<path d="M343.381 77.9571C343.381 78.4694 342.966 78.8869 342.451 78.8869C341.939 78.8869 341.521 78.4694 341.521 77.9571C341.521 77.4449 341.939 77.0274 342.451 77.0274C342.966 77.0274 343.381 77.4419 343.381 77.9571Z" fill="#2F80ED"/>
<path d="M349.708 77.9571C349.708 78.4694 349.294 78.8869 348.779 78.8869C348.266 78.8869 347.849 78.4694 347.849 77.9571C347.849 77.4449 348.264 77.0274 348.779 77.0274C349.294 77.0274 349.708 77.4419 349.708 77.9571Z" fill="#2F80ED"/>
<path d="M318.074 84.6456C318.074 85.1579 317.659 85.5754 317.144 85.5754C316.632 85.5754 316.214 85.1609 316.214 84.6456C316.214 84.1334 316.629 83.7159 317.144 83.7159C317.659 83.7159 318.074 84.1334 318.074 84.6456Z" fill="#2F80ED"/>
<path d="M299.193 77.9571C299.193 78.4694 298.779 78.8869 298.267 78.8869C297.754 78.8869 297.337 78.4694 297.337 77.9571C297.337 77.4449 297.751 77.0274 298.267 77.0274C298.776 77.0274 299.193 77.4419 299.193 77.9571Z" fill="#2F80ED"/>
<path d="M324.401 77.9571C324.401 78.4694 323.987 78.8869 323.472 78.8869C322.959 78.8869 322.542 78.4694 322.542 77.9571C322.542 77.4449 322.956 77.0274 323.472 77.0274C323.984 77.0274 324.401 77.4419 324.401 77.9571Z" fill="#2F80ED"/>
<path d="M311.746 77.9571C311.746 78.4694 311.332 78.8869 310.816 78.8869C310.304 78.8869 309.887 78.4694 309.887 77.9571C309.887 77.4449 310.301 77.0274 310.816 77.0274C311.332 77.0274 311.746 77.4419 311.746 77.9571Z" fill="#2F80ED"/>
<path d="M305.625 77.9571C305.625 78.4694 305.207 78.8869 304.695 78.8869C304.182 78.8869 303.765 78.4694 303.765 77.9571C303.765 77.4449 304.18 77.0274 304.695 77.0274C305.207 77.0274 305.625 77.4419 305.625 77.9571Z" fill="#2F80ED"/>
<path d="M318.074 77.9571C318.074 78.4694 317.659 78.8869 317.144 78.8869C316.632 78.8869 316.214 78.4694 316.214 77.9571C316.214 77.4449 316.629 77.0274 317.144 77.0274C317.659 77.0274 318.074 77.4419 318.074 77.9571Z" fill="#2F80ED"/>
<path d="M311.746 63.27C311.746 63.7823 311.332 64.1998 310.816 64.1998C310.304 64.1998 309.887 63.7852 309.887 63.27C309.887 62.7578 310.301 62.3402 310.816 62.3402C311.332 62.3402 311.746 62.7578 311.746 63.27Z" fill="#2F80ED"/>
<path d="M286.539 128.7C286.539 129.212 286.124 129.63 285.609 129.63C285.097 129.63 284.679 129.212 284.679 128.7C284.679 128.188 285.097 127.773 285.609 127.773C286.124 127.77 286.539 128.188 286.539 128.7Z" fill="#2F80ED"/>
<path d="M343.381 136.044C343.381 136.556 342.966 136.974 342.451 136.974C341.939 136.974 341.521 136.559 341.521 136.044C341.521 135.532 341.939 135.117 342.451 135.117C342.966 135.114 343.381 135.532 343.381 136.044Z" fill="#2F80ED"/>
<path d="M337.053 136.044C337.053 136.556 336.639 136.974 336.123 136.974C335.611 136.974 335.194 136.559 335.194 136.044C335.194 135.532 335.611 135.117 336.123 135.117C336.639 135.114 337.053 135.532 337.053 136.044Z" fill="#2F80ED"/>
<path d="M280.211 128.7C280.211 129.212 279.796 129.63 279.281 129.63C278.769 129.63 278.351 129.212 278.351 128.7C278.351 128.188 278.766 127.773 279.281 127.773C279.796 127.77 280.211 128.188 280.211 128.7Z" fill="#2F80ED"/>
<path d="M349.708 136.044C349.708 136.556 349.294 136.974 348.779 136.974C348.266 136.974 347.849 136.559 347.849 136.044C347.849 135.532 348.264 135.117 348.779 135.117C349.294 135.114 349.708 135.532 349.708 136.044Z" fill="#2F80ED"/>
<path d="M330.729 136.044C330.729 136.556 330.314 136.974 329.799 136.974C329.286 136.974 328.869 136.559 328.869 136.044C328.869 135.532 329.284 135.117 329.799 135.117C330.311 135.114 330.729 135.532 330.729 136.044Z" fill="#2F80ED"/>
<path d="M324.401 136.044C324.401 136.556 323.987 136.974 323.472 136.974C322.959 136.974 322.542 136.559 322.542 136.044C322.542 135.532 322.956 135.117 323.472 135.117C323.984 135.114 324.401 135.532 324.401 136.044Z" fill="#2F80ED"/>
<path d="M305.625 136.044C305.625 136.556 305.207 136.974 304.695 136.974C304.182 136.974 303.765 136.559 303.765 136.044C303.765 135.532 304.18 135.117 304.695 135.117C305.207 135.114 305.625 135.532 305.625 136.044Z" fill="#2F80ED"/>
<path d="M311.746 136.044C311.746 136.556 311.332 136.974 310.816 136.974C310.304 136.974 309.887 136.559 309.887 136.044C309.887 135.532 310.301 135.117 310.816 135.117C311.332 135.114 311.746 135.532 311.746 136.044Z" fill="#2F80ED"/>
<path d="M318.074 136.044C318.074 136.556 317.659 136.974 317.144 136.974C316.632 136.974 316.214 136.559 316.214 136.044C316.214 135.532 316.629 135.117 317.144 135.117C317.659 135.114 318.074 135.532 318.074 136.044Z" fill="#2F80ED"/>
<path d="M299.193 128.7C299.193 129.212 298.779 129.63 298.267 129.63C297.754 129.63 297.337 129.212 297.337 128.7C297.337 128.188 297.751 127.773 298.267 127.773C298.776 127.77 299.193 128.188 299.193 128.7Z" fill="#2F80ED"/>
<path d="M330.729 128.7C330.729 129.212 330.314 129.63 329.799 129.63C329.286 129.63 328.869 129.212 328.869 128.7C328.869 128.188 329.284 127.773 329.799 127.773C330.311 127.77 330.729 128.188 330.729 128.7Z" fill="#2F80ED"/>
<path d="M324.401 128.7C324.401 129.212 323.987 129.63 323.472 129.63C322.959 129.63 322.542 129.212 322.542 128.7C322.542 128.188 322.956 127.773 323.472 127.773C323.984 127.77 324.401 128.188 324.401 128.7Z" fill="#2F80ED"/>
<path d="M292.866 128.7C292.866 129.212 292.449 129.63 291.936 129.63C291.424 129.63 291.007 129.212 291.007 128.7C291.007 128.188 291.421 127.773 291.936 127.773C292.449 127.77 292.866 128.188 292.866 128.7Z" fill="#2F80ED"/>
<path d="M343.381 128.7C343.381 129.212 342.966 129.63 342.451 129.63C341.939 129.63 341.521 129.212 341.521 128.7C341.521 128.188 341.939 127.773 342.451 127.773C342.966 127.77 343.381 128.188 343.381 128.7Z" fill="#2F80ED"/>
<path d="M337.053 128.7C337.053 129.212 336.639 129.63 336.123 129.63C335.611 129.63 335.194 129.212 335.194 128.7C335.194 128.188 335.611 127.773 336.123 127.773C336.639 127.77 337.053 128.188 337.053 128.7Z" fill="#2F80ED"/>
<path d="M318.074 128.7C318.074 129.212 317.659 129.63 317.144 129.63C316.632 129.63 316.214 129.212 316.214 128.7C316.214 128.188 316.629 127.773 317.144 127.773C317.659 127.77 318.074 128.188 318.074 128.7Z" fill="#2F80ED"/>
<path d="M305.625 128.7C305.625 129.212 305.207 129.63 304.695 129.63C304.182 129.63 303.765 129.212 303.765 128.7C303.765 128.188 304.18 127.773 304.695 127.773C305.207 127.77 305.625 128.188 305.625 128.7Z" fill="#2F80ED"/>
<path d="M299.193 136.044C299.193 136.556 298.779 136.974 298.267 136.974C297.754 136.974 297.337 136.559 297.337 136.044C297.337 135.532 297.751 135.117 298.267 135.117C298.776 135.114 299.193 135.532 299.193 136.044Z" fill="#2F80ED"/>
<path d="M311.746 128.7C311.746 129.212 311.332 129.63 310.816 129.63C310.304 129.63 309.887 129.212 309.887 128.7C309.887 128.188 310.301 127.773 310.816 127.773C311.332 127.77 311.746 128.188 311.746 128.7Z" fill="#2F80ED"/>
<path d="M337.053 106.673C337.053 107.186 336.639 107.603 336.123 107.603C335.611 107.603 335.194 107.189 335.194 106.673C335.194 106.161 335.611 105.747 336.123 105.747C336.639 105.744 337.053 106.161 337.053 106.673Z" fill="#2F80ED"/>
<path d="M322.545 55.9268C322.545 55.4145 322.959 55 323.475 55C323.987 55 324.404 55.4175 324.404 55.9268C324.404 56.4391 323.99 56.8566 323.475 56.8566C322.959 56.8566 322.545 56.442 322.545 55.9268Z" fill="#2F80ED"/>
<path d="M292.866 136.044C292.866 136.556 292.449 136.974 291.936 136.974C291.424 136.974 291.007 136.559 291.007 136.044C291.007 135.532 291.421 135.117 291.936 135.117C292.449 135.114 292.866 135.532 292.866 136.044Z" fill="#2F80ED"/>
<path d="M316.217 55.9268C316.217 55.4145 316.632 55 317.147 55C317.659 55 318.077 55.4175 318.077 55.9268C318.077 56.4391 317.662 56.8566 317.147 56.8566C316.632 56.8566 316.217 56.442 316.217 55.9268Z" fill="#2F80ED"/>
<path d="M318.074 150.727C318.074 151.24 317.659 151.657 317.144 151.657C316.632 151.657 316.214 151.243 316.214 150.727C316.214 150.215 316.629 149.798 317.144 149.798C317.659 149.801 318.074 150.215 318.074 150.727Z" fill="#2F80ED"/>
<path d="M311.746 150.727C311.746 151.24 311.332 151.657 310.816 151.657C310.304 151.657 309.887 151.243 309.887 150.727C309.887 150.215 310.301 149.798 310.816 149.798C311.332 149.801 311.746 150.215 311.746 150.727Z" fill="#2F80ED"/>
<path d="M267.017 92.8276C267.121 92.3508 267.23 91.8771 267.346 91.4033C267.476 91.5632 267.556 91.7646 267.556 91.9866C267.559 92.3597 267.337 92.6795 267.017 92.8276Z" fill="#2F80ED"/>
<path d="M273.883 77.9571C273.883 78.4694 273.469 78.8869 272.954 78.8869C272.761 78.8869 272.583 78.8277 272.435 78.73C272.743 78.194 273.063 77.667 273.392 77.1458C273.685 77.2998 273.883 77.6018 273.883 77.9571Z" fill="#2F80ED"/>
<path d="M285.609 64.1998C285.487 64.1998 285.375 64.1761 285.268 64.1346C285.683 63.8178 286.103 63.5069 286.53 63.2019C286.533 63.2256 286.536 63.2493 286.536 63.273C286.539 63.7823 286.124 64.1998 285.609 64.1998Z" fill="#2F80ED"/>
<path d="M280.211 70.6137C280.211 71.1259 279.796 71.5405 279.281 71.5405C278.769 71.5405 278.351 71.1259 278.351 70.6137C278.351 70.5841 278.357 70.5574 278.36 70.5278C278.609 70.2495 278.861 69.9741 279.115 69.7017C279.169 69.6928 279.222 69.6839 279.281 69.6839C279.796 69.6839 280.211 70.1014 280.211 70.6137Z" fill="#2F80ED"/>
<path d="M309.889 55.9268C309.889 55.4145 310.304 55 310.819 55C311.332 55 311.749 55.4175 311.749 55.9268C311.749 56.4391 311.334 56.8566 310.819 56.8566C310.304 56.8566 309.889 56.442 309.889 55.9268Z" fill="#2F80ED"/>
<path d="M337.053 143.387C337.053 143.899 336.639 144.316 336.123 144.316C335.611 144.316 335.194 143.902 335.194 143.387C335.194 142.874 335.611 142.46 336.123 142.46C336.639 142.457 337.053 142.871 337.053 143.387Z" fill="#2F80ED"/>
<path d="M330.729 143.387C330.729 143.899 330.314 144.316 329.799 144.316C329.286 144.316 328.869 143.902 328.869 143.387C328.869 142.874 329.284 142.46 329.799 142.46C330.311 142.457 330.729 142.871 330.729 143.387Z" fill="#2F80ED"/>
<path d="M324.401 143.387C324.401 143.899 323.987 144.316 323.472 144.316C322.959 144.316 322.542 143.902 322.542 143.387C322.542 142.874 322.956 142.46 323.472 142.46C323.984 142.457 324.401 142.871 324.401 143.387Z" fill="#2F80ED"/>
<path d="M286.539 136.044C286.539 136.556 286.124 136.974 285.609 136.974C285.097 136.974 284.679 136.559 284.679 136.044C284.679 135.532 285.097 135.117 285.609 135.117C286.124 135.114 286.539 135.532 286.539 136.044Z" fill="#2F80ED"/>
<path d="M305.625 143.387C305.625 143.899 305.207 144.316 304.695 144.316C304.182 144.316 303.765 143.902 303.765 143.387C303.765 142.874 304.18 142.46 304.695 142.46C305.207 142.457 305.625 142.871 305.625 143.387Z" fill="#2F80ED"/>
<path d="M349.708 128.7C349.708 129.212 349.294 129.63 348.779 129.63C348.266 129.63 347.849 129.212 347.849 128.7C347.849 128.188 348.264 127.773 348.779 127.773C349.294 127.77 349.708 128.188 349.708 128.7Z" fill="#2F80ED"/>
<path d="M299.193 143.387C299.193 143.899 298.779 144.316 298.267 144.316C297.754 144.316 297.337 143.902 297.337 143.387C297.337 142.874 297.751 142.46 298.267 142.46C298.776 142.457 299.193 142.871 299.193 143.387Z" fill="#2F80ED"/>
<path d="M318.074 143.387C318.074 143.899 317.659 144.316 317.144 144.316C316.632 144.316 316.214 143.902 316.214 143.387C316.214 142.874 316.629 142.46 317.144 142.46C317.659 142.457 318.074 142.871 318.074 143.387Z" fill="#2F80ED"/>
<path d="M311.746 143.387C311.746 143.899 311.332 144.316 310.816 144.316C310.304 144.316 309.887 143.902 309.887 143.387C309.887 142.874 310.301 142.46 310.816 142.46C311.332 142.457 311.746 142.871 311.746 143.387Z" fill="#2F80ED"/>
<path d="M292.866 143.387C292.866 143.899 292.449 144.316 291.936 144.316C291.424 144.316 291.007 143.902 291.007 143.387C291.007 142.874 291.421 142.46 291.936 142.46C292.449 142.457 292.866 142.871 292.866 143.387Z" fill="#2F80ED"/>
<path d="M337.053 114.016C337.053 114.529 336.639 114.946 336.123 114.946C335.611 114.946 335.194 114.532 335.194 114.016C335.194 113.504 335.611 113.09 336.123 113.09C336.639 113.087 337.053 113.501 337.053 114.016Z" fill="#2F80ED"/>
<path d="M362.365 114.016C362.365 114.529 361.95 114.946 361.435 114.946C360.923 114.946 360.508 114.532 360.508 114.016C360.508 113.504 360.923 113.09 361.435 113.09C361.947 113.087 362.365 113.501 362.365 114.016Z" fill="#2F80ED"/>
<path d="M343.381 114.016C343.381 114.529 342.966 114.946 342.451 114.946C341.939 114.946 341.521 114.532 341.521 114.016C341.521 113.504 341.939 113.09 342.451 113.09C342.966 113.087 343.381 113.501 343.381 114.016Z" fill="#2F80ED"/>
<path d="M356.037 114.016C356.037 114.529 355.623 114.946 355.11 114.946C354.598 114.946 354.181 114.532 354.181 114.016C354.181 113.504 354.595 113.09 355.11 113.09C355.623 113.087 356.037 113.501 356.037 114.016Z" fill="#2F80ED"/>
<path d="M349.708 114.016C349.708 114.529 349.294 114.946 348.779 114.946C348.266 114.946 347.849 114.532 347.849 114.016C347.849 113.504 348.264 113.09 348.779 113.09C349.294 113.087 349.708 113.501 349.708 114.016Z" fill="#2F80ED"/>
<path d="M311.746 114.016C311.746 114.529 311.332 114.946 310.816 114.946C310.304 114.946 309.887 114.532 309.887 114.016C309.887 113.504 310.301 113.09 310.816 113.09C311.332 113.087 311.746 113.501 311.746 114.016Z" fill="#2F80ED"/>
<path d="M330.729 114.016C330.729 114.529 330.314 114.946 329.799 114.946C329.286 114.946 328.869 114.532 328.869 114.016C328.869 113.504 329.284 113.09 329.799 113.09C330.311 113.087 330.729 113.501 330.729 114.016Z" fill="#2F80ED"/>
<path d="M318.074 114.016C318.074 114.529 317.659 114.946 317.144 114.946C316.632 114.946 316.214 114.532 316.214 114.016C316.214 113.504 316.629 113.09 317.144 113.09C317.659 113.087 318.074 113.501 318.074 114.016Z" fill="#2F80ED"/>
<path d="M324.401 114.016C324.401 114.529 323.987 114.946 323.472 114.946C322.959 114.946 322.542 114.532 322.542 114.016C322.542 113.504 322.956 113.09 323.472 113.09C323.984 113.087 324.401 113.501 324.401 114.016Z" fill="#2F80ED"/>
<path d="M273.883 106.673C273.883 107.186 273.469 107.603 272.954 107.603C272.441 107.603 272.027 107.189 272.027 106.673C272.027 106.161 272.441 105.747 272.954 105.747C273.469 105.744 273.883 106.161 273.883 106.673Z" fill="#2F80ED"/>
<path d="M318.074 106.673C318.074 107.186 317.659 107.603 317.144 107.603C316.632 107.603 316.214 107.189 316.214 106.673C316.214 106.161 316.629 105.747 317.144 105.747C317.659 105.744 318.074 106.161 318.074 106.673Z" fill="#2F80ED"/>
<path d="M324.401 106.673C324.401 107.186 323.987 107.603 323.472 107.603C322.959 107.603 322.542 107.189 322.542 106.673C322.542 106.161 322.956 105.747 323.472 105.747C323.984 105.744 324.401 106.161 324.401 106.673Z" fill="#2F80ED"/>
<path d="M356.037 128.7C356.037 129.212 355.623 129.63 355.11 129.63C354.598 129.63 354.181 129.212 354.181 128.7C354.181 128.188 354.595 127.773 355.11 127.773C355.623 127.77 356.037 128.188 356.037 128.7Z" fill="#2F80ED"/>
<path d="M330.729 106.673C330.729 107.186 330.314 107.603 329.799 107.603C329.286 107.603 328.869 107.189 328.869 106.673C328.869 106.161 329.284 105.747 329.799 105.747C330.311 105.744 330.729 106.161 330.729 106.673Z" fill="#2F80ED"/>
<path d="M292.866 106.673C292.866 107.186 292.449 107.603 291.936 107.603C291.424 107.603 291.007 107.189 291.007 106.673C291.007 106.161 291.421 105.747 291.936 105.747C292.449 105.744 292.866 106.161 292.866 106.673Z" fill="#2F80ED"/>
<path d="M280.211 106.673C280.211 107.186 279.796 107.603 279.281 107.603C278.769 107.603 278.351 107.189 278.351 106.673C278.351 106.161 278.766 105.747 279.281 105.747C279.796 105.744 280.211 106.161 280.211 106.673Z" fill="#2F80ED"/>
<path d="M305.625 106.673C305.625 107.186 305.207 107.603 304.695 107.603C304.182 107.603 303.765 107.189 303.765 106.673C303.765 106.161 304.18 105.747 304.695 105.747C305.207 105.744 305.625 106.161 305.625 106.673Z" fill="#2F80ED"/>
<path d="M286.539 106.673C286.539 107.186 286.124 107.603 285.609 107.603C285.097 107.603 284.679 107.189 284.679 106.673C284.679 106.161 285.097 105.747 285.609 105.747C286.124 105.744 286.539 106.161 286.539 106.673Z" fill="#2F80ED"/>
<path d="M305.625 114.016C305.625 114.529 305.207 114.946 304.695 114.946C304.182 114.946 303.765 114.532 303.765 114.016C303.765 113.504 304.18 113.09 304.695 113.09C305.207 113.087 305.625 113.501 305.625 114.016Z" fill="#2F80ED"/>
<path d="M311.746 106.673C311.746 107.186 311.332 107.603 310.816 107.603C310.304 107.603 309.887 107.189 309.887 106.673C309.887 106.161 310.301 105.747 310.816 105.747C311.332 105.744 311.746 106.161 311.746 106.673Z" fill="#2F80ED"/>
<path d="M299.193 121.357C299.193 121.869 298.779 122.287 298.267 122.287C297.754 122.287 297.337 121.869 297.337 121.357C297.337 120.845 297.751 120.427 298.267 120.427C298.776 120.43 299.193 120.845 299.193 121.357Z" fill="#2F80ED"/>
<path d="M311.746 121.357C311.746 121.869 311.332 122.287 310.816 122.287C310.304 122.287 309.887 121.869 309.887 121.357C309.887 120.845 310.301 120.427 310.816 120.427C311.332 120.43 311.746 120.845 311.746 121.357Z" fill="#2F80ED"/>
<path d="M305.625 121.357C305.625 121.869 305.207 122.287 304.695 122.287C304.182 122.287 303.765 121.869 303.765 121.357C303.765 120.845 304.18 120.427 304.695 120.427C305.207 120.43 305.625 120.845 305.625 121.357Z" fill="#2F80ED"/>
<path d="M318.074 121.357C318.074 121.869 317.659 122.287 317.144 122.287C316.632 122.287 316.214 121.869 316.214 121.357C316.214 120.845 316.629 120.427 317.144 120.427C317.659 120.43 318.074 120.845 318.074 121.357Z" fill="#2F80ED"/>
<path d="M292.866 121.357C292.866 121.869 292.449 122.287 291.936 122.287C291.424 122.287 291.007 121.869 291.007 121.357C291.007 120.845 291.421 120.427 291.936 120.427C292.449 120.43 292.866 120.845 292.866 121.357Z" fill="#2F80ED"/>
<path d="M273.883 121.357C273.883 121.869 273.469 122.287 272.954 122.287C272.441 122.287 272.027 121.869 272.027 121.357C272.027 120.845 272.441 120.427 272.954 120.427C273.469 120.43 273.883 120.845 273.883 121.357Z" fill="#2F80ED"/>
<path d="M324.401 121.357C324.401 121.869 323.987 122.287 323.472 122.287C322.959 122.287 322.542 121.869 322.542 121.357C322.542 120.845 322.956 120.427 323.472 120.427C323.984 120.43 324.401 120.845 324.401 121.357Z" fill="#2F80ED"/>
<path d="M299.193 114.016C299.193 114.529 298.779 114.946 298.267 114.946C297.754 114.946 297.337 114.532 297.337 114.016C297.337 113.504 297.751 113.09 298.267 113.09C298.776 113.087 299.193 113.501 299.193 114.016Z" fill="#2F80ED"/>
<path d="M286.539 121.357C286.539 121.869 286.124 122.287 285.609 122.287C285.097 122.287 284.679 121.869 284.679 121.357C284.679 120.845 285.097 120.427 285.609 120.427C286.124 120.43 286.539 120.845 286.539 121.357Z" fill="#2F80ED"/>
<path d="M280.211 121.357C280.211 121.869 279.796 122.287 279.281 122.287C278.769 122.287 278.351 121.869 278.351 121.357C278.351 120.845 278.766 120.427 279.281 120.427C279.796 120.43 280.211 120.845 280.211 121.357Z" fill="#2F80ED"/>
<path d="M286.539 114.016C286.539 114.529 286.124 114.946 285.609 114.946C285.097 114.946 284.679 114.532 284.679 114.016C284.679 113.504 285.097 113.09 285.609 113.09C286.124 113.087 286.539 113.501 286.539 114.016Z" fill="#2F80ED"/>
<path d="M280.211 114.016C280.211 114.529 279.796 114.946 279.281 114.946C278.769 114.946 278.351 114.532 278.351 114.016C278.351 113.504 278.766 113.09 279.281 113.09C279.796 113.087 280.211 113.501 280.211 114.016Z" fill="#2F80ED"/>
<path d="M273.883 114.016C273.883 114.529 273.469 114.946 272.954 114.946C272.441 114.946 272.027 114.532 272.027 114.016C272.027 113.504 272.441 113.09 272.954 113.09C273.469 113.087 273.883 113.501 273.883 114.016Z" fill="#2F80ED"/>
<path d="M292.866 114.016C292.866 114.529 292.449 114.946 291.936 114.946C291.424 114.946 291.007 114.532 291.007 114.016C291.007 113.504 291.421 113.09 291.936 113.09C292.449 113.087 292.866 113.501 292.866 114.016Z" fill="#2F80ED"/>
<path d="M337.053 121.357C337.053 121.869 336.639 122.287 336.123 122.287C335.611 122.287 335.194 121.869 335.194 121.357C335.194 120.845 335.611 120.427 336.123 120.427C336.639 120.43 337.053 120.845 337.053 121.357Z" fill="#2F80ED"/>
<path d="M330.729 121.357C330.729 121.869 330.314 122.287 329.799 122.287C329.286 122.287 328.869 121.869 328.869 121.357C328.869 120.845 329.284 120.427 329.799 120.427C330.311 120.43 330.729 120.845 330.729 121.357Z" fill="#2F80ED"/>
<path d="M356.037 121.357C356.037 121.869 355.623 122.287 355.11 122.287C354.598 122.287 354.181 121.869 354.181 121.357C354.181 120.845 354.595 120.427 355.11 120.427C355.623 120.43 356.037 120.845 356.037 121.357Z" fill="#2F80ED"/>
<path d="M343.381 121.357C343.381 121.869 342.966 122.287 342.451 122.287C341.939 122.287 341.521 121.869 341.521 121.357C341.521 120.845 341.939 120.427 342.451 120.427C342.966 120.43 343.381 120.845 343.381 121.357Z" fill="#2F80ED"/>
<path d="M349.708 121.357C349.708 121.869 349.294 122.287 348.779 122.287C348.266 122.287 347.849 121.869 347.849 121.357C347.849 120.845 348.264 120.427 348.779 120.427C349.294 120.43 349.708 120.845 349.708 121.357Z" fill="#2F80ED"/>
</g>
<circle opacity="0.4" r="9" transform="matrix(1 0 0 -1 420 79.4276)" fill="#2F80ED"/>
</g>
<defs>
<linearGradient id="paint0_linear_14_2895" x1="93.9783" y1="-34" x2="93.9783" y2="112.095" gradientUnits="userSpaceOnUse">
<stop stop-color="#F0F7FF"/>
<stop offset="1" stop-color="#8DC3FF"/>
</linearGradient>
<linearGradient id="paint1_linear_14_2895" x1="518" y1="57" x2="605" y2="210" gradientUnits="userSpaceOnUse">
<stop stop-color="#449BFF"/>
<stop offset="1" stop-color="#BCD6F3"/>
</linearGradient>
<clipPath id="clip0_14_2895">
<rect width="188" height="166" fill="white" transform="translate(0 -43)"/>
</clipPath>
</defs>
</svg>
