<svg width="50" height="50" viewBox="0 0 50 50" fill="none" xmlns="http://www.w3.org/2000/svg">
<path d="M40.625 7.8125H9.375C8.51206 7.8125 7.8125 8.51206 7.8125 9.375V40.625C7.8125 41.4879 8.51206 42.1875 9.375 42.1875H40.625C41.4879 42.1875 42.1875 41.4879 42.1875 40.625V9.375C42.1875 8.51206 41.4879 7.8125 40.625 7.8125Z" stroke="#fff" stroke-width="2" stroke-linecap="round" stroke-linejoin="round"/>
<path d="M34.375 4.6875V10.9375" stroke="#fff" stroke-width="2" stroke-linecap="round" stroke-linejoin="round"/>
<path d="M15.625 4.6875V10.9375" stroke="#fff" stroke-width="2" stroke-linecap="round" stroke-linejoin="round"/>
<path d="M7.8125 17.1875H42.1875" stroke="#fff" stroke-width="2" stroke-linecap="round" stroke-linejoin="round"/>
<rect x="15" y="23" width="4" height="4" stroke="#164D51" stroke-width="2" stroke-linejoin="round"/>
<rect x="15" y="31" width="4" height="4" stroke="#fff" stroke-width="2" stroke-linejoin="round"/>
<rect x="23" y="23" width="4" height="4" stroke="#fff" stroke-width="2" stroke-linejoin="round"/>
<rect x="23" y="31" width="4" height="4" stroke="#164D51" stroke-width="2" stroke-linejoin="round"/>
<rect x="31" y="23" width="4" height="4" stroke="#164D51" stroke-width="2" stroke-linejoin="round"/>
<rect x="31" y="31" width="4" height="4" stroke="#fff" stroke-width="2" stroke-linejoin="round"/>
</svg>
