<svg width="127" height="147" viewBox="0 0 127 147" fill="none" xmlns="http://www.w3.org/2000/svg">
<path d="M27 29.5391C27 29.5391 20 23.2091 20 16.5391C20 16.5391 20.67 26.2091 15.67 29.5391C15.67 29.5391 9 34.2091 2 32.5391C2 32.5391 12 36.2091 13 45.5391C13 45.5391 14.67 51.8691 10 56.2091C10 56.2091 15.33 52.2091 22 52.2091" fill="#FF0000"/>
<path d="M27 29.5391C27 29.5391 20 23.2091 20 16.5391C20 16.5391 20.67 26.2091 15.67 29.5391C15.67 29.5391 9 34.2091 2 32.5391C2 32.5391 12 36.2091 13 45.5391C13 45.5391 14.67 51.8691 10 56.2091C10 56.2091 15.33 52.2091 22 52.2091" stroke="#6A3907" stroke-width="3" stroke-miterlimit="10" stroke-linecap="round" stroke-linejoin="round"/>
<path d="M59.5397 145.801C56.3797 145.801 53.4197 144.171 52.3497 141.841C49.2197 135.031 49.9997 128.881 54.6097 124.071C56.5297 122.071 56.5397 121.461 56.5897 119.471C56.5997 119.181 56.6097 118.861 56.6197 118.511C55.2097 118.361 53.4997 117.811 52.3397 116.641H52.1597C51.7897 116.651 51.3097 116.651 50.7697 116.651C43.4497 116.651 38.4797 115.411 35.9897 112.951C34.7497 111.731 34.1197 110.241 34.1197 108.511C34.1197 106.281 34.4597 103.651 35.1397 100.681L35.1897 100.441C36.0697 96.5609 36.9897 92.5609 41.4497 91.1909C35.7497 87.4409 32.0397 82.3709 30.4097 76.1009C27.2697 63.9909 25.9197 45.4709 32.4497 33.1409C34.0897 30.0509 36.0497 27.2309 38.2897 24.7609C36.0897 22.3109 31.9797 16.6409 34.2997 10.5209C34.9997 8.68086 36.2097 6.97086 37.8897 5.46086C41.3397 2.33086 46.3097 0.380859 50.8797 0.380859C51.0497 0.380859 51.2197 0.380869 51.3897 0.390869C58.1697 0.630869 62.8397 5.14087 63.3997 11.9209C66.3297 11.4409 69.4097 11.1809 72.5697 11.1409H72.6297C75.7897 11.1809 78.8597 11.4509 81.7797 11.9209C82.3397 5.14087 87.0097 0.630869 93.7897 0.390869C93.9597 0.380869 94.1397 0.380859 94.3097 0.380859C98.8697 0.380859 103.84 2.33087 107.29 5.47087C108.97 6.98087 110.17 8.68087 110.87 10.5309C113.21 16.7209 108.99 22.4409 106.88 24.7809C109.12 27.2509 111.08 30.0709 112.72 33.1609C119.25 45.4909 117.9 64.0109 114.76 76.1209C112.78 83.7809 107.73 89.6009 99.7597 93.4409C101.76 94.8509 103.67 96.5809 103.88 98.8709C104.01 100.331 103.41 101.711 102.09 102.971C100.73 104.281 99.4597 104.911 98.1897 104.911C96.7897 104.911 95.7197 104.151 94.7697 103.471C93.8297 102.801 93.0197 102.231 91.9097 102.231C91.7097 102.231 91.4997 102.251 91.2797 102.291C89.8397 102.551 89.1197 103.201 88.0297 104.191C87.7897 104.411 87.5297 104.631 87.2697 104.861C88.0997 107.691 88.2897 110.841 88.2897 113.111C89.4397 113.381 90.4297 113.981 91.2397 114.891C94.0297 118.011 93.8397 123.521 93.7097 125.131C93.4297 128.761 92.4997 131.181 90.8597 132.531C89.9297 133.301 88.7997 133.691 87.5097 133.691C87.2497 133.691 86.9897 133.671 86.7197 133.641C83.7097 133.291 83.0397 130.921 82.5997 129.351C82.2297 128.021 82.0497 127.701 81.6697 127.621C81.6097 127.611 81.5497 127.581 81.5097 127.561C76.8197 128.351 70.6497 130.081 67.6597 133.871C66.6397 135.161 66.5497 136.441 66.4397 138.061C66.3497 139.411 66.2497 140.811 65.5897 142.321C64.6497 144.481 62.4097 145.781 59.6097 145.811H59.5397V145.801Z" fill="#6A3907"/>
<path d="M94.32 0.75C98.73 0.75 103.68 2.66999 107.05 5.73999C108.68 7.20999 109.85 8.86999 110.53 10.65C112.86 16.81 108.46 22.52 106.45 24.68L106.37 24.76C108.68 27.27 110.71 30.14 112.39 33.31C118.87 45.54 117.52 63.95 114.39 76C112.39 83.73 107.12 89.61 99.0001 93.35C100.78 94.55 103.27 96.41 103.5 98.87C103.62 100.21 103.06 101.48 101.83 102.67C100.41 104.04 99.22 104.51 98.19 104.51C96.91 104.51 95.89 103.78 94.99 103.14C94.05 102.47 93.15 101.83 91.91 101.83C91.69 101.83 91.4601 101.85 91.2201 101.89C89.6701 102.17 88.8801 102.89 87.7801 103.88C87.4901 104.15 87.17 104.42 86.84 104.7C87.67 107.41 87.93 110.59 87.91 113.38C89.08 113.59 90.1101 114.16 90.9501 115.1C93.6401 118.11 93.4501 123.49 93.3301 125.06C93.0601 128.58 92.17 130.92 90.62 132.2C89.76 132.91 88.71 133.27 87.51 133.27C87.27 133.27 87.02 133.26 86.76 133.23C84 132.91 83.4 130.77 82.96 129.21C82.59 127.9 82.38 127.35 81.74 127.21C81.67 127.2 81.6201 127.16 81.5601 127.13C76.9501 127.89 70.4801 129.64 67.3601 133.6C66.2701 134.98 66.1701 136.38 66.0601 137.99C65.9701 139.31 65.87 140.67 65.24 142.13C64.36 144.15 62.25 145.37 59.6 145.39C59.57 145.39 59.54 145.39 59.52 145.39C56.49 145.39 53.6801 143.86 52.6701 141.64C49.6101 134.98 50.3701 128.98 54.8601 124.28C56.8801 122.17 56.9001 121.48 56.9501 119.44C56.9601 119.06 56.9701 118.62 57.0001 118.13C56.9701 118.13 56.94 118.13 56.9 118.13C55.55 118.05 53.66 117.5 52.48 116.23C52.38 116.23 52.2701 116.23 52.1401 116.23C51.7601 116.24 51.29 116.24 50.75 116.24C46.95 116.24 39.5501 115.93 36.2301 112.65C35.0701 111.5 34.48 110.1 34.48 108.48C34.48 106.28 34.82 103.68 35.5 100.74L35.55 100.5C36.45 96.53 37.39 92.42 42.26 91.34C42.3 91.33 42.33 91.33 42.37 91.32C36.39 87.61 32.4401 82.45 30.7701 75.99C27.6501 63.94 26.3001 45.53 32.7701 33.3C34.4501 30.12 36.47 27.25 38.79 24.75L38.7301 24.69C36.7101 22.51 32.31 16.8 34.64 10.64C35.32 8.85 36.4901 7.2 38.1301 5.72C41.5001 2.65 46.45 0.729996 50.87 0.729996C51.04 0.729996 51.2 0.72999 51.37 0.73999C58.08 0.97999 62.67 5.6 63.05 12.33C66.02 11.82 69.21 11.53 72.57 11.49H72.5801H72.59C75.95 11.54 79.1401 11.83 82.1101 12.33C82.4901 5.59 87.08 0.96999 93.79 0.73999C93.98 0.75999 94.15 0.75 94.32 0.75ZM106.28 7.78999C106.24 7.74999 106.2 7.70999 106.17 7.67999C106.16 7.67999 106.15 7.67999 106.15 7.67999C106.19 7.71999 106.23 7.74999 106.28 7.78999ZM88.62 14.27C88.62 14.25 88.6201 14.23 88.6101 14.21C88.6101 14.23 88.6 14.24 88.6 14.26L88.62 14.27ZM94.32 0C94.14 0 93.96 -5.49294e-06 93.79 0.00999451C87.05 0.249995 82.19 4.82 81.46 11.48C78.63 11.04 75.67 10.8 72.63 10.76H72.52H72.51C69.49 10.8 66.55 11.05 63.74 11.48C63.01 4.82 58.15 0.249995 51.41 0.00999451C51.24 -5.49294e-06 51.0601 0 50.8801 0C46.2301 0 41.15 1.98999 37.64 5.17999C35.92 6.72999 34.68 8.49 33.96 10.39C31.63 16.55 35.57 22.22 37.8 24.77C35.63 27.2 33.7301 29.96 32.1301 32.97C25.5501 45.39 26.9101 64.02 30.0601 76.2C31.6501 82.33 35.2 87.33 40.64 91.09C36.58 92.73 35.6601 96.76 34.8401 100.36L34.79 100.6C34.1 103.59 33.76 106.25 33.76 108.51C33.76 110.34 34.4301 111.92 35.7401 113.22C38.3001 115.75 43.36 117.03 50.79 117.03C51.34 117.03 51.81 117.02 52.19 117.02H52.21C53.36 118.1 54.9401 118.66 56.2501 118.85C56.2401 119.07 56.24 119.27 56.23 119.46C56.18 121.44 56.17 121.91 54.35 123.81C49.63 128.75 48.83 135.03 52.02 142C53.15 144.46 56.25 146.18 59.55 146.18H59.63C62.59 146.15 64.96 144.76 65.96 142.47C66.65 140.9 66.75 139.4 66.84 138.09C66.95 136.54 67.03 135.31 67.98 134.11C70.87 130.44 76.88 128.74 81.49 127.95C81.53 127.96 81.5701 127.98 81.6101 127.98C81.7901 128.02 81.93 128.25 82.26 129.45C82.7 131.01 83.43 133.63 86.69 134.01C86.97 134.04 87.25 134.06 87.52 134.06C88.9 134.06 90.1 133.64 91.1 132.82C92.82 131.41 93.7901 128.9 94.0801 125.16C94.2101 123.51 94.4 117.87 91.51 114.64C90.71 113.75 89.76 113.14 88.66 112.82C88.64 110.62 88.44 107.68 87.69 104.99C87.89 104.81 88.0901 104.64 88.2801 104.47C89.3601 103.49 90.01 102.9 91.35 102.66C91.54 102.63 91.73 102.61 91.91 102.61C92.91 102.61 93.67 103.15 94.55 103.78C95.5 104.46 96.68 105.29 98.19 105.29C99.56 105.29 100.91 104.62 102.35 103.24C103.75 101.89 104.39 100.4 104.25 98.83C104.05 96.6 102.36 94.89 100.48 93.5C108.23 89.61 113.15 83.8 115.12 76.21C118.28 64.03 119.63 45.4 113.05 32.98C111.45 29.96 109.55 27.21 107.38 24.78C109.61 22.23 113.55 16.57 111.22 10.4C110.5 8.49999 109.26 6.75 107.54 5.19C104.04 1.99 98.97 0 94.32 0Z" fill="#6A3907"/>
<path d="M92.2284 121.893L90.8484 115.893L87.0984 113.893L86.8484 109.773L85.8484 105.153L87.0984 103.033L91.0484 100.953L94.5984 101.533C96.4084 99.6532 97.7684 97.3132 99.2384 95.1032L93.8484 91.7832L58.7284 94.7832L57.8484 120.663L54.2284 126.913L51.6084 135.033L52.2984 138.063C56.2384 139.533 60.4384 139.813 64.6784 138.033L65.1084 135.153L68.6084 131.033L76.2284 127.653L82.1084 125.773L83.5084 128.083C86.1984 128.933 88.6984 129.243 91.3684 128.463L92.4784 126.523L92.2284 121.893Z" fill="#F9C03D"/>
<path d="M52.459 137.643L54.269 142.803L59.019 144.803L63.399 143.683L64.839 137.623C60.599 139.393 56.399 139.113 52.459 137.643Z" fill="white" stroke="white" stroke-width="0.25" stroke-miterlimit="10"/>
<path d="M83.6885 128.213L84.0785 128.753L85.6685 131.383L88.2185 131.933L90.3685 130.513L91.5685 127.973C88.9585 128.973 86.4385 128.853 83.6885 128.213Z" fill="white" stroke="white" stroke-width="0.25" stroke-miterlimit="10"/>
<path d="M101.099 96.3915L99.0886 94.8516C97.5986 98.3516 96.4086 99.4716 94.5986 101.352L94.7686 101.312L97.5986 103.522L100.599 102.402L102.219 99.4016L101.099 96.3915Z" fill="white" stroke="white" stroke-width="0.25" stroke-miterlimit="10"/>
<path d="M83.6691 115.782C83.6691 118.982 81.1291 122.102 77.9991 122.762C74.8691 123.422 72.3291 121.292 72.3291 118.012C72.3291 114.732 74.8691 110.402 77.9991 109.842C81.1291 109.272 83.6691 112.582 83.6691 115.782Z" fill="white"/>
<path d="M111.518 33.7924C109.488 29.9724 106.988 26.6324 104.028 23.8024C99.7684 19.7324 95.9184 16.8524 89.7884 14.9524L88.5984 14.2624C90.3784 5.62239 100.678 7.22239 104.978 7.64239C108.518 7.98239 106.358 6.52238 106.358 6.52238L107.978 7.64239C104.658 4.62239 98.0984 1.61239 93.8584 1.76239C87.0484 2.00239 83.1084 7.01239 83.1084 13.2624L83.0584 13.5224C79.7884 12.8924 76.3084 12.5624 72.6084 12.5124C68.9084 12.5624 65.4284 12.8924 62.1584 13.5224L62.1084 13.2624C62.1084 7.01239 58.1684 2.00239 51.3584 1.76239C47.1084 1.61239 42.1484 3.46239 38.8284 6.48239L38.8584 6.51239C38.8584 6.51239 35.1984 10.2224 38.7384 9.89239C43.0384 9.48239 51.2084 6.75239 52.9884 15.3924L51.8684 16.3924C45.2684 18.4324 44.6484 20.2024 40.2184 24.7724C37.6784 27.3824 35.4984 30.4024 33.6984 33.8024C27.5884 45.3424 28.5384 63.2724 31.7784 75.7724C35.0284 88.3224 46.3484 93.5624 56.6384 95.6824C63.1484 97.0324 69.2484 97.1224 72.6184 97.0224C76.0384 97.1224 82.2584 97.0224 88.8684 95.6324C99.0784 93.4724 110.228 88.2124 113.458 75.7724C116.678 63.2624 117.628 45.3324 111.518 33.7924Z" fill="#F9C03D"/>
<path d="M90.9486 63.9316C93.5186 63.9316 95.5986 65.5716 95.5986 67.5916C95.5986 69.6216 93.5186 71.2617 90.9486 71.2617C88.3886 71.2617 86.3086 69.6216 86.3086 67.5916C86.3086 65.5716 88.3886 63.9316 90.9486 63.9316Z" fill="#6A3907"/>
<path d="M54.2486 63.9316C51.6786 63.9316 49.5986 65.5716 49.5986 67.5916C49.5986 69.6216 51.6786 71.2617 54.2486 71.2617C56.8086 71.2617 58.8886 69.6216 58.8886 67.5916C58.8886 65.5716 56.8086 63.9316 54.2486 63.9316Z" fill="#6A3907"/>
<path d="M109.239 12.0414C111.019 16.6614 107.779 21.1014 104.869 24.2014L103.829 24.2414C103.609 24.2514 102.839 23.3414 102.649 23.1814C102.219 22.8214 101.789 22.4614 101.349 22.1214C100.459 21.4314 99.5286 20.7814 98.5786 20.1714C96.6186 18.9214 94.5386 17.8714 92.3886 16.9914C91.6086 16.6714 90.8186 16.3814 90.0186 16.1114C87.2686 15.1714 89.5686 9.58143 90.6886 8.16143C93.1786 4.97143 96.7386 4.54142 99.9686 5.01142C103.849 5.58142 107.829 8.37142 109.239 12.0414Z" fill="white" stroke="white" stroke-width="0.25" stroke-miterlimit="10"/>
<path d="M35.9586 12.0414C34.1786 16.6614 37.4186 21.1014 40.3286 24.2014L41.3686 24.2414C41.5886 24.2514 42.3586 23.3414 42.5486 23.1814C42.9786 22.8214 43.4086 22.4614 43.8486 22.1214C44.7386 21.4314 45.6686 20.7814 46.6286 20.1714C48.5886 18.9214 50.6686 17.8714 52.8186 16.9914C53.5986 16.6714 54.3886 16.3814 55.1886 16.1114C57.9386 15.1714 55.6386 9.58143 54.5186 8.16143C52.0286 4.97143 48.4686 4.54142 45.2386 5.01142C41.3486 5.58142 37.3786 8.37142 35.9586 12.0414Z" fill="white" stroke="white" stroke-width="0.25" stroke-miterlimit="10"/>
<path d="M72.5984 12.5117C68.8984 12.5617 65.4184 12.8917 62.1484 13.5217" stroke="#6A3907" stroke-width="2" stroke-miterlimit="10" stroke-linecap="round" stroke-linejoin="round"/>
<path d="M72.5986 12.5117C76.2986 12.5617 79.7786 12.8917 83.0486 13.5217" stroke="#6A3907" stroke-width="2" stroke-miterlimit="10" stroke-linecap="round" stroke-linejoin="round"/>
<path d="M62.0987 13.2624C62.0987 7.01239 58.1587 2.00239 51.3487 1.76239C47.0987 1.61239 42.1387 3.46239 38.8187 6.48239C37.3687 7.79239 36.2387 9.32239 35.5987 11.0124C33.7687 15.8524 36.4787 20.7624 39.4787 24.0124L40.2087 24.7624C37.6687 27.3724 35.4887 30.3924 33.6887 33.7924C27.5787 45.3324 28.5287 63.2624 31.7687 75.7624C35.0187 88.3124 46.3387 93.5524 56.6287 95.6724C63.1387 97.0224 69.2387 97.1124 72.6087 97.0124" stroke="#6A3907" stroke-width="2" stroke-miterlimit="10" stroke-linecap="round" stroke-linejoin="round"/>
<path d="M83.0986 13.2624C83.0986 7.01239 87.0386 2.00239 93.8486 1.76239C98.0986 1.61239 103.059 3.46239 106.379 6.48239C107.829 7.79239 108.959 9.32239 109.599 11.0124C111.429 15.8524 108.719 20.7624 105.719 24.0124L104.999 24.7624C107.539 27.3724 109.719 30.3924 111.519 33.7924C117.629 45.3324 116.679 63.2624 113.439 75.7624C110.189 88.3124 98.8686 93.5524 88.5786 95.6724C82.0686 97.0224 75.9686 97.1124 72.5986 97.0124" stroke="#6A3907" stroke-width="2" stroke-miterlimit="10" stroke-linecap="round" stroke-linejoin="round"/>
<path d="M84.8486 102.512C87.8686 107.762 86.8486 117.762 86.3686 119.642" stroke="#6A3907" stroke-width="2" stroke-miterlimit="10" stroke-linecap="round" stroke-linejoin="round"/>
<path d="M58.0987 117.012C57.6987 121.212 58.5987 121.872 55.5987 125.012C51.0287 129.792 50.9687 135.522 53.5987 141.262C55.2787 144.922 62.5887 145.812 64.3487 141.762C65.6787 138.722 64.3687 135.842 66.5987 133.012C70.3087 128.302 78.3487 126.512 83.4787 125.872" stroke="#6A3907" stroke-width="2" stroke-miterlimit="10" stroke-linecap="round" stroke-linejoin="round"/>
<path d="M87.0485 114.293C91.5085 114.443 92.7185 120.343 92.3585 125.013C92.0485 128.963 90.8385 132.713 86.8985 132.263C83.0385 131.813 84.7985 126.863 81.9785 126.263" stroke="#6A3907" stroke-width="2" stroke-miterlimit="10" stroke-linecap="round" stroke-linejoin="round"/>
<path d="M85.8486 104.262C87.6986 102.802 88.5986 101.372 91.0486 100.932C95.7786 100.072 96.6286 106.322 101.149 101.972C105.159 98.1117 99.3686 94.8417 97.4386 93.5117" stroke="#6A3907" stroke-width="2" stroke-miterlimit="10" stroke-linecap="round" stroke-linejoin="round"/>
<path d="M91.639 118.232C90.899 118.462 88.789 118.472 89.309 120.342C89.559 121.272 90.609 121.552 91.859 121.492C91.929 121.162 91.989 120.842 92.059 120.532C92.109 119.702 92.149 118.882 92.159 118.072C91.979 118.122 91.819 118.182 91.639 118.232Z" fill="#6A3907"/>
<path d="M91.9785 94.5121C92.0185 95.2821 91.9585 97.1821 93.2885 96.8221C94.2285 96.5721 94.5985 95.6421 94.8485 94.4121C94.5485 94.2621 94.2485 94.1221 93.9685 93.9821C93.1785 93.7221 92.9285 94.5621 92.1485 94.3521C92.1485 94.5321 92.4785 95.5521 91.9785 94.5121Z" fill="#6A3907"/>
<path d="M91.809 123.062C91.069 123.292 88.959 123.302 89.479 125.172C89.729 126.102 90.779 126.382 92.029 126.322C92.099 125.992 92.159 125.672 92.229 125.362C92.279 124.532 92.319 123.712 92.329 122.902C92.149 122.952 91.989 123.012 91.809 123.062Z" fill="#6A3907"/>
<path d="M85.769 96.1818C86.389 96.6418 87.419 98.7018 88.629 98.0818C89.709 97.5318 89.609 96.0218 88.069 95.3418C87.759 95.4818 87.469 95.6218 87.169 95.7418C86.469 96.1818 86.439 95.0518 85.769 95.5118C85.909 95.6318 85.619 96.0618 85.769 96.1818Z" fill="#6A3907"/>
<path d="M72.5986 93.0117C79.3641 93.0117 84.8486 87.6391 84.8486 81.0117C84.8486 74.3843 79.3641 69.0117 72.5986 69.0117C65.8331 69.0117 60.3486 74.3843 60.3486 81.0117C60.3486 87.6391 65.8331 93.0117 72.5986 93.0117Z" fill="white"/>
<path d="M85.819 24.2017C85.819 22.8717 81.749 21.7517 76.209 21.4217C76.349 18.5517 76.489 15.6817 76.619 12.8117C76.329 12.7917 76.039 12.7717 75.739 12.7617C73.439 13.0917 71.169 13.3817 68.769 13.2617C68.899 15.9817 69.029 18.7017 69.159 21.4317C63.699 21.7817 59.709 22.8917 59.709 24.2017C59.709 25.5317 63.829 26.6517 69.419 26.9717C69.529 29.1517 69.629 31.3317 69.739 33.5117C65.369 33.8217 62.189 34.8017 62.189 35.9617C62.189 37.1417 65.489 38.1217 69.969 38.4217C70.019 39.5317 70.079 40.6317 70.129 41.7417C70.179 42.6417 70.769 45.0117 72.679 45.0117C74.599 45.0117 75.189 42.6417 75.239 41.7417C75.289 40.6417 75.339 39.5317 75.399 38.4317C79.969 38.1517 83.339 37.1517 83.339 35.9617C83.339 34.7817 80.079 33.8017 75.629 33.5017C75.739 31.3217 75.839 29.1517 75.939 26.9817C81.619 26.6717 85.819 25.5417 85.819 24.2017Z" fill="#6A3907"/>
<path d="M72.7191 74.5131C73.8291 74.4331 75.3991 73.9731 75.4891 72.4231C75.5691 70.9931 73.6791 70.5331 72.6691 70.5431C71.6691 70.5331 69.7691 70.9931 69.8491 72.4231C69.9391 73.9731 71.4991 74.4331 72.6191 74.5131H72.7191Z" fill="#6A3907"/>
<path d="M95.5091 53.9032C95.9691 55.0532 95.2891 56.4132 93.9791 56.9332L88.9091 58.9632C87.6091 59.4832 86.1791 58.9732 85.7091 57.8132C84.3591 54.4332 94.2691 50.8032 95.5091 53.9032Z" fill="white" stroke="white" stroke-width="0.25" stroke-miterlimit="10"/>
<path d="M49.9484 53.9032C49.4884 55.0532 50.1684 56.4132 51.4784 56.9332L56.5484 58.9632C57.8484 59.4832 59.2784 58.9732 59.7484 57.8132C61.0884 54.4332 51.1784 50.8032 49.9484 53.9032Z" fill="white" stroke="white" stroke-width="0.25" stroke-miterlimit="10"/>
<path d="M103.228 77.0933C101.718 77.1733 99.6785 77.1933 98.2685 77.8033C97.6885 78.0533 97.5485 78.2533 97.2885 78.5133C96.2485 79.5633 97.1885 80.7033 99.0585 81.0533C101.668 81.5433 104.658 81.4933 107.288 81.4533C108.088 81.4433 109.578 81.5333 110.518 81.5133C111.278 80.0933 111.488 78.5933 112.428 77.2733C109.358 77.1033 106.288 76.9333 103.228 77.0933Z" fill="#6A3907"/>
<path d="M103.718 85.6215C102.378 85.7115 100.978 85.5815 99.7285 86.1315C99.2185 86.3615 98.7685 86.6415 98.5385 86.8815C97.6285 87.8215 98.3985 88.8815 100.058 89.1715C101.518 89.4315 103.358 89.4915 105.108 89.4915C106.118 88.2815 106.958 86.9415 107.748 85.5415C106.398 85.5315 105.048 85.5315 103.718 85.6215Z" fill="#6A3907"/>
<path d="M41.7986 77.0933C43.3086 77.1733 45.3486 77.1933 46.7586 77.8033C47.3386 78.0533 47.4786 78.2533 47.7386 78.5133C48.7786 79.5633 47.8386 80.7033 45.9686 81.0533C43.3586 81.5433 40.3686 81.4933 37.7386 81.4533C36.9386 81.4433 35.4486 81.5333 34.5086 81.5133C33.7486 80.0933 33.5386 78.5933 32.5986 77.2733C35.6686 77.1033 38.7486 76.9333 41.7986 77.0933Z" fill="#6A3907"/>
<path d="M41.3191 85.6215C42.6591 85.7115 44.0591 85.5815 45.3091 86.1315C45.8191 86.3615 46.2691 86.6415 46.4991 86.8815C47.4091 87.8215 46.6391 88.8815 44.9791 89.1715C43.5191 89.4315 41.6791 89.4915 39.9291 89.4915C38.9191 88.2815 38.0791 86.9415 37.2891 85.5415C38.6391 85.5315 39.9791 85.5315 41.3191 85.6215Z" fill="#6A3907"/>
<path d="M53.3685 128.201C55.0385 127.731 58.5285 127.831 58.8485 128.641C59.0585 129.191 58.8585 129.861 58.3985 130.161C58.2885 130.221 55.6785 131.951 52.9885 130.221C52.5185 129.931 52.2985 129.261 52.5085 128.711C52.5885 128.501 52.9085 128.331 53.3685 128.201Z" fill="#6A3907"/>
<path d="M52.8685 133.032C54.5385 132.562 58.0285 132.662 58.3485 133.472C58.5585 134.022 58.3585 134.692 57.8985 134.992C57.7885 135.052 55.1785 136.782 52.4885 135.052C52.0185 134.762 51.7985 134.092 52.0085 133.542C52.0885 133.332 52.4085 133.162 52.8685 133.032Z" fill="#6A3907"/>
<path d="M77.8485 81.5117L79.9785 100.392H72.6185H72.8385H65.4785L67.6085 81.5117" fill="white"/>
<path d="M72.6582 80.3933C72.6582 80.3933 73.4282 82.1733 75.9582 82.1733C75.9582 82.1733 79.3382 82.4433 80.0382 79.8633" stroke="#6A3907" stroke-width="2" stroke-miterlimit="10" stroke-linecap="round" stroke-linejoin="round"/>
<path d="M72.6083 80.3933C72.6083 80.3933 71.8383 82.1733 69.3283 82.1733C69.3283 82.1733 65.9783 82.4433 65.2783 79.8633" stroke="#6A3907" stroke-width="2" stroke-miterlimit="10" stroke-linecap="round" stroke-linejoin="round"/>
<path d="M65.9785 96.7526L67.6985 94.7726L69.4185 96.7526L71.1385 94.7726L72.8585 96.7526L74.5785 94.7726L76.2985 96.7526L78.0085 94.7726L79.7285 96.7526L78.0985 86.8826L76.3185 84.8926L74.5485 86.8826L72.7685 84.8926L70.9785 86.8826L69.2085 84.8926L67.4185 86.8826L65.9785 96.7526Z" fill="#FF7171"/>
<path d="M78.1985 82.5117L80.4785 100.392H72.6085H72.8385H64.9785L67.2485 82.5117" stroke="#6A3907" stroke-width="2" stroke-miterlimit="10" stroke-linecap="round" stroke-linejoin="round"/>
<path d="M65.6287 91.6718C71.0387 95.5618 69.1287 100.572 64.8487 103.482C62.7087 104.932 59.9787 105.862 57.2687 105.862C53.9487 105.862 50.6787 104.472 48.5687 100.962C46.7187 97.8918 47.1387 94.2518 49.2887 91.9318C50.4787 90.6218 52.2087 89.7318 54.3887 89.5618C58.2887 89.2718 62.3887 89.3418 65.6287 91.6718Z" fill="white"/>
<path d="M57.2687 105.862C59.9787 105.862 62.7087 104.932 64.8487 103.482L66.2987 103.542C67.9987 107.032 67.7887 111.852 64.3087 114.342C62.2687 115.782 59.5987 117.322 56.9787 117.162C55.6087 117.082 53.8487 116.472 52.9887 115.312C53.1187 115.272 53.0987 115.262 52.9487 115.262C52.8687 115.142 52.7887 115.022 52.7287 114.892C51.5087 112.432 52.5287 111.022 54.6687 109.832C57.3087 108.362 59.1987 110.642 58.9187 106.102L57.2687 105.862Z" fill="white"/>
<path d="M58.919 106.102C59.199 110.642 57.309 108.362 54.669 109.832C52.529 111.022 51.509 112.432 52.729 114.892C52.789 115.022 52.869 115.142 52.949 115.262C51.329 115.202 35.499 116.212 35.499 108.512C35.499 106.052 35.939 103.392 36.489 100.992C37.419 96.9217 38.159 93.3117 42.499 92.3417C45.879 91.5917 45.729 92.4817 49.119 91.7617L49.289 91.9317C47.139 94.2517 46.719 97.8917 48.569 100.962C50.679 104.472 53.949 105.862 57.269 105.862L58.919 106.102Z" fill="white"/>
<path d="M49.119 91.7617C45.729 92.4817 45.879 91.5917 42.499 92.3417C38.159 93.3117 37.419 96.9217 36.489 100.992C35.939 103.392 35.499 106.052 35.499 108.512C35.499 116.212 51.329 115.202 52.949 115.262" stroke="#6A3907" stroke-width="2" stroke-miterlimit="10" stroke-linecap="round" stroke-linejoin="round"/>
<path d="M64.8487 103.482C69.1287 100.572 71.0387 95.5618 65.6287 91.6718C62.3887 89.3418 58.2887 89.2718 54.3887 89.5618C52.2087 89.7318 50.4787 90.6218 49.2887 91.9318C47.1387 94.2518 46.7187 97.8918 48.5687 100.962C50.6787 104.472 53.9487 105.862 57.2687 105.862C59.9787 105.862 62.7087 104.932 64.8487 103.482Z" stroke="#6A3907" stroke-width="2" stroke-miterlimit="10" stroke-linecap="round" stroke-linejoin="round"/>
<path d="M58.9187 106.101C59.1987 110.641 57.3087 108.361 54.6687 109.831C52.5287 111.021 51.5087 112.431 52.7287 114.891C52.7887 115.021 52.8687 115.141 52.9487 115.261C52.9587 115.281 52.9687 115.291 52.9887 115.311C53.8487 116.471 55.6087 117.081 56.9787 117.161C59.5987 117.321 62.2687 115.781 64.3087 114.341C67.7887 111.851 67.9987 107.031 66.2987 103.541" stroke="#6A3907" stroke-width="2" stroke-miterlimit="10" stroke-linecap="round" stroke-linejoin="round"/>
<path d="M62.6789 122.752C60.6689 122.752 58.7889 122.522 57.5689 122.332L57.3789 122.302L57.4889 122.142C58.0089 121.382 58.2989 120.642 58.4089 119.802L58.4289 119.682L58.5489 119.702C60.0189 119.912 61.4189 120.012 62.7089 120.012C64.0389 120.012 65.2389 119.902 66.2689 119.682C66.3589 119.662 66.4589 119.652 66.5589 119.652C67.1989 119.652 67.7689 120.112 67.9089 120.742C68.0689 121.482 67.5989 122.212 66.8489 122.372C65.6189 122.622 64.2189 122.752 62.6789 122.752Z" fill="#6A3907"/>
<path d="M66.5589 119.762C67.1289 119.762 67.6589 120.162 67.7789 120.752C67.9189 121.422 67.4889 122.092 66.8189 122.232C65.4789 122.522 64.0489 122.622 62.6789 122.622C60.7189 122.622 58.8889 122.412 57.5889 122.202C58.0389 121.542 58.3989 120.792 58.5289 119.812C59.6789 119.972 61.1689 120.122 62.7089 120.122C63.9089 120.122 65.1489 120.032 66.2989 119.782C66.3889 119.772 66.4689 119.762 66.5589 119.762ZM66.5589 119.512C66.4589 119.512 66.3489 119.522 66.2489 119.542C65.2289 119.762 64.0389 119.872 62.7089 119.872C61.4189 119.872 60.0289 119.772 58.5689 119.562L58.3189 119.532L58.2889 119.782C58.1789 120.602 57.8889 121.332 57.3889 122.062L57.1689 122.392L57.5589 122.452C58.7889 122.642 60.6689 122.872 62.6889 122.872C64.2389 122.872 65.6489 122.742 66.8789 122.472C67.6889 122.302 68.2089 121.502 68.0289 120.692C67.8789 120.012 67.2589 119.512 66.5589 119.512Z" fill="#6A3907"/>
<path d="M85.839 116.553C85.069 116.573 84.459 117.143 84.479 117.833C84.499 118.523 85.139 119.063 85.919 119.053C86.219 119.043 86.519 119.023 86.819 119.003C87.069 118.193 87.249 117.353 87.319 116.443C86.819 116.503 86.319 116.543 85.839 116.553Z" fill="#6A3907"/>
<path d="M85.7683 111.993C85.0683 112.183 84.6383 112.873 84.8183 113.543C84.9983 114.213 85.7184 114.593 86.4184 114.403C86.6884 114.333 86.9583 114.243 87.2283 114.153C87.2583 113.303 87.2283 112.463 87.0883 111.553C86.6583 111.723 86.2083 111.873 85.7683 111.993Z" fill="#6A3907"/>
<path d="M85.3382 107.603C84.6782 107.783 84.2782 108.473 84.4582 109.143C84.6382 109.813 85.3282 110.203 85.9882 110.023C86.2482 109.953 86.4982 109.873 86.7582 109.783C86.7782 108.943 86.7382 108.093 86.5882 107.193C86.1782 107.343 85.7582 107.483 85.3382 107.603Z" fill="#6A3907"/>
<path d="M62.6784 117.422C61.7284 117.422 60.7084 117.373 59.6484 117.263L59.3184 117.233L59.5884 117.043C60.2584 116.563 60.8584 115.952 61.4384 115.362C61.6584 115.142 61.8784 114.912 62.0984 114.702C62.3284 114.672 62.4884 114.672 62.6484 114.672C62.6684 114.672 62.6784 114.672 62.6984 114.672C64.0384 114.672 65.2284 114.562 66.2584 114.342C66.3484 114.322 66.4484 114.312 66.5484 114.312C67.1884 114.312 67.7584 114.772 67.8984 115.402C68.0584 116.142 67.5884 116.873 66.8384 117.033C65.6184 117.293 64.2184 117.422 62.6784 117.422Z" fill="#6A3907"/>
<path d="M66.5585 114.432C67.1285 114.432 67.6585 114.832 67.7785 115.422C67.9185 116.092 67.4885 116.762 66.8185 116.902C65.4785 117.192 64.0485 117.292 62.6785 117.292C61.6185 117.292 60.5885 117.232 59.6685 117.132C60.5985 116.462 61.3785 115.572 62.1985 114.782C62.3685 114.782 62.5385 114.792 62.7085 114.792C63.9085 114.792 65.1485 114.702 66.2985 114.452C66.3885 114.442 66.4685 114.432 66.5585 114.432ZM66.5585 114.182C66.4585 114.182 66.3485 114.192 66.2485 114.212C65.2285 114.432 64.0385 114.542 62.7085 114.542C62.5385 114.542 62.3685 114.542 62.1985 114.532H62.0985L62.0285 114.602C61.8085 114.822 61.5885 115.042 61.3585 115.262C60.7785 115.852 60.1785 116.452 59.5185 116.932L58.9785 117.322L59.6385 117.382C60.6985 117.482 61.7185 117.542 62.6785 117.542C64.2285 117.542 65.6385 117.412 66.8685 117.142C67.6785 116.972 68.1985 116.172 68.0185 115.362C67.8785 114.682 67.2585 114.182 66.5585 114.182Z" fill="#6A3907"/>
<path d="M120.43 97.8095C120.43 98.5295 120.27 99.2195 119.94 99.8695C119.62 100.52 119.16 101.06 118.58 101.51C118.18 101.8 117.76 102.03 117.31 102.18C116.86 102.33 116.4 102.43 115.92 102.47C115.44 102.51 114.97 102.49 114.5 102.43C114.03 102.36 113.58 102.23 113.15 102.05C112.72 101.88 112.31 101.66 111.94 101.38C111.56 101.1 111.24 100.79 110.96 100.43C110.68 100.07 110.47 99.6795 110.31 99.2395C110.16 98.7995 110.08 98.3295 110.08 97.8195C110.08 97.1895 110.17 96.6295 110.36 96.1395C110.54 95.6495 110.8 95.2195 111.12 94.8295H110.7C110.32 94.8295 109.99 94.7095 109.73 94.4695C109.47 94.2295 109.34 93.9395 109.34 93.5995C109.34 93.2495 109.47 92.9495 109.73 92.7095C109.99 92.4695 110.32 92.3495 110.7 92.3495H113.75V91.6095C113.75 91.2995 113.88 91.0395 114.14 90.8295C114.4 90.6195 114.72 90.5195 115.09 90.5195C115.46 90.5195 115.78 90.6295 116.04 90.8295C116.3 91.0395 116.43 91.2995 116.43 91.6095V92.3495H119.64C120.03 92.3495 120.35 92.4695 120.61 92.7095C120.87 92.9495 121 93.2395 121 93.5995C121 93.9395 120.87 94.2295 120.61 94.4695C120.35 94.7095 120.03 94.8295 119.64 94.8295H119.36C119.68 95.2195 119.94 95.6495 120.13 96.1495C120.33 96.6395 120.43 97.1895 120.43 97.8095ZM124.95 103.98C125.22 104.07 125.43 104.2 125.59 104.35C125.74 104.5 125.84 104.67 125.89 104.86C125.94 105.04 125.96 105.23 125.96 105.42V108.09C125.99 108.43 125.99 108.77 125.96 109.11C125.93 109.43 125.8 109.7 125.58 109.9C125.36 110.1 125.07 110.2 124.71 110.2C124.63 110.2 124.49 110.2 124.29 110.19C124.09 110.18 123.95 110.16 123.87 110.13C123.67 110.07 123.51 109.97 123.4 109.85C123.28 109.73 123.2 109.59 123.13 109.43C123.07 109.28 123.03 109.11 123.01 108.93C122.99 108.75 122.98 108.58 122.96 108.41C122.96 108.35 122.96 108.23 122.95 108.05C122.94 107.87 122.93 107.69 122.93 107.5C122.92 107.31 122.91 107.12 122.91 106.96C122.9 106.79 122.89 106.68 122.87 106.61C122.82 106.59 122.7 106.58 122.49 106.56C122.28 106.55 121.89 106.54 121.32 106.54C120.83 106.54 120.52 106.54 120.41 106.55C120.3 106.56 120.23 106.57 120.21 106.58H111.87L111.85 106.56C111.65 106.5 111.49 106.44 111.37 106.38C111.25 106.32 111.13 106.23 111.01 106.13C110.89 106.02 110.83 105.88 110.81 105.71C110.73 105.12 110.83 104.66 111.11 104.32C111.29 104.11 111.49 103.98 111.71 103.94C111.93 103.9 112.04 103.88 112.06 103.88L123.85 103.86C124.31 103.85 124.68 103.89 124.95 103.98ZM115.71 99.8695C116.2 99.7795 116.63 99.5595 116.99 99.2095C117.35 98.8595 117.53 98.3995 117.53 97.8095C117.53 97.4695 117.46 97.1695 117.33 96.9095C117.2 96.6495 117.03 96.4295 116.82 96.2495C116.61 96.0695 116.37 95.9395 116.09 95.8395C115.81 95.7495 115.54 95.6995 115.26 95.6995C114.97 95.6795 114.68 95.7195 114.41 95.7995C114.13 95.8895 113.89 96.0095 113.67 96.1795C113.45 96.3495 113.28 96.5695 113.15 96.8395C113.02 97.1095 112.95 97.4295 112.95 97.7995C112.95 98.2195 113.03 98.5695 113.2 98.8595C113.37 99.1495 113.59 99.3795 113.85 99.5495C114.11 99.7195 114.4 99.8295 114.73 99.8695C115.07 99.9395 115.39 99.9295 115.71 99.8695ZM123.09 98.2896C122.64 98.2596 122.24 98.2295 121.89 98.2095C121.54 98.1895 121.26 98.0195 121.06 97.7095C120.97 97.5595 120.92 97.3595 120.92 97.1295C120.92 96.8995 120.94 96.6995 120.97 96.5295C121.02 96.3595 121.1 96.2195 121.22 96.0995C121.34 95.9795 121.56 95.8895 121.87 95.8095C121.93 95.7995 122.05 95.7795 122.22 95.7795C122.39 95.7695 122.57 95.7595 122.76 95.7395C122.95 95.7195 123.13 95.7095 123.3 95.7095C123.47 95.6995 123.59 95.6995 123.65 95.6995V93.4796C123.63 93.3096 123.63 93.1395 123.64 92.9695C123.65 92.7995 123.68 92.6295 123.72 92.4595C123.75 92.3395 123.78 92.2195 123.81 92.1095C123.84 91.9995 123.91 91.8896 124.02 91.7596C124.14 91.5996 124.32 91.4995 124.54 91.4395C124.76 91.3795 125.01 91.3595 125.27 91.3895C125.76 91.4695 126.08 91.6595 126.22 91.9695C126.31 92.1595 126.37 92.3795 126.39 92.6495C126.41 92.9195 126.42 93.0895 126.42 93.1495V100.92H126.4C126.4 100.93 126.39 100.99 126.38 101.08C126.36 101.17 126.33 101.29 126.29 101.42C126.24 101.55 126.17 101.69 126.08 101.82C125.99 101.96 125.86 102.07 125.71 102.17C125.49 102.29 125.28 102.36 125.06 102.36C124.8 102.36 124.54 102.28 124.3 102.11C124.12 101.99 123.98 101.83 123.91 101.65C123.82 101.48 123.76 101.31 123.72 101.14C123.69 100.97 123.67 100.8 123.65 100.63V98.2995H123.09V98.2896Z" fill="#6A3907" stroke="#6A3907" stroke-width="0.25" stroke-miterlimit="10"/>
</svg>
