<svg width="1175" height="127" viewBox="0 0 1175 127" fill="none" xmlns="http://www.w3.org/2000/svg">
<mask id="mask0_629:18661" style="mask-type:alpha" maskUnits="userSpaceOnUse" x="0" y="0" width="658" height="127">
<rect width="658" height="127" fill="#C4C4C4"/>
</mask>
<g mask="url(#mask0_629:18661)">
<g opacity="0.5">
<path d="M552.5 99.6639C564.374 99.6639 574 90.0298 574 78.1454C574 66.2611 564.374 56.627 552.5 56.627C540.626 56.627 531 66.2611 531 78.1454C531 90.0298 540.626 99.6639 552.5 99.6639Z" stroke="white" stroke-width="4" stroke-miterlimit="10" stroke-linejoin="round"/>
<path d="M552 136.696C550.9 136.696 550 135.795 550 134.695V78.6463C550 77.5453 550.9 76.6445 552 76.6445C553.1 76.6445 554 77.5453 554 78.6463V134.695C554 135.795 553.1 136.696 552 136.696Z" fill="white"/>
<path d="M551.36 92.6273C550.85 92.6273 550.34 92.4271 549.95 92.0368L543.69 85.7714C542.91 84.9908 542.91 83.7197 543.69 82.939C544.47 82.1583 545.74 82.1583 546.52 82.939L552.78 89.2044C553.56 89.9851 553.56 91.2561 552.78 92.0368C552.39 92.4271 551.88 92.6273 551.36 92.6273Z" fill="white"/>
</g>
<g opacity="0.5">
<path d="M234.81 98.9136C240.576 98.9136 245.25 94.2355 245.25 88.4646C245.25 82.6938 240.576 78.0156 234.81 78.0156C229.044 78.0156 224.37 82.6938 224.37 88.4646C224.37 94.2355 229.044 98.9136 234.81 98.9136Z" stroke="white" stroke-width="4" stroke-miterlimit="10" stroke-linejoin="round"/>
<path d="M248 132.692C246.9 132.692 246 131.791 246 130.69V38.6111C246 37.5101 246.9 36.6094 248 36.6094C249.1 36.6094 250 37.5101 250 38.6111V130.69C250 131.791 249.1 132.692 248 132.692Z" fill="white"/>
<path d="M248 103.166C247.49 103.166 246.98 102.966 246.59 102.575L233.84 89.8144C233.06 89.0338 233.06 87.7627 233.84 86.982C234.62 86.2013 235.89 86.2013 236.67 86.982L249.42 99.743C250.2 100.524 250.2 101.795 249.42 102.575C249.02 102.966 248.51 103.166 248 103.166Z" fill="white"/>
<path d="M248 62.1306C247.49 62.1306 246.98 61.9304 246.59 61.54C245.81 60.7594 245.81 59.4883 246.59 58.7076L256.84 48.4488C257.62 47.6681 258.89 47.6681 259.67 48.4488C260.45 49.2295 260.45 50.5005 259.67 51.2812L249.42 61.54C249.02 61.9304 248.51 62.1306 248 62.1306Z" fill="white"/>
<path d="M248 72.6403C267.33 72.6403 283 56.9568 283 37.6102C283 18.2636 267.33 2.58008 248 2.58008C228.67 2.58008 213 18.2636 213 37.6102C213 56.9568 228.67 72.6403 248 72.6403Z" stroke="white" stroke-width="4" stroke-miterlimit="10" stroke-linejoin="round"/>
</g>
<g opacity="0.5">
<path d="M23 105.67C11.45 105.67 2 97.7538 2 88.0786V46.1947C2 36.5196 11.45 28.6035 23 28.6035C34.55 28.6035 44 36.5196 44 46.1947V88.0786C44 97.7538 34.55 105.67 23 105.67Z" stroke="white" stroke-width="4" stroke-miterlimit="10" stroke-linejoin="round"/>
<path d="M23 146.706C21.9 146.706 21 145.805 21 144.704V86.6541C21 85.5531 21.9 84.6523 23 84.6523C24.1 84.6523 25 85.5531 25 86.6541V144.704C25 145.805 24.1 146.706 23 146.706Z" fill="white"/>
</g>
<g opacity="0.5">
<path d="M607 94.6597C612.523 94.6597 617 90.1787 617 84.6512C617 79.1236 612.523 74.6426 607 74.6426C601.477 74.6426 597 79.1236 597 84.6512C597 90.1787 601.477 94.6597 607 94.6597Z" stroke="white" stroke-width="4" stroke-miterlimit="10" stroke-linejoin="round"/>
<path d="M617 132.692C615.9 132.692 615 131.791 615 130.69V54.6248C615 53.5238 615.9 52.623 617 52.623C618.1 52.623 619 53.5238 619 54.6248V130.69C619 131.791 618.1 132.692 617 132.692Z" fill="white"/>
<path d="M617 77.6454C633.569 77.6454 647 64.2024 647 47.6196C647 31.0368 633.569 17.5938 617 17.5938C600.431 17.5938 587 31.0368 587 47.6196C587 64.2024 600.431 77.6454 617 77.6454Z" stroke="white" stroke-width="4" stroke-miterlimit="10" stroke-linejoin="round"/>
<path d="M636 109.673C647.046 109.673 656 100.711 656 89.6559C656 78.6007 647.046 69.6387 636 69.6387C624.954 69.6387 616 78.6007 616 89.6559C616 100.711 624.954 109.673 636 109.673Z" stroke="white" stroke-width="4" stroke-miterlimit="10" stroke-linejoin="round"/>
<path d="M617 110.173C616.49 110.173 615.98 109.973 615.59 109.583C614.81 108.802 614.81 107.531 615.59 106.75L634.34 87.9839C635.12 87.2033 636.39 87.2033 637.17 87.9839C637.95 88.7646 637.95 90.0357 637.17 90.8164L618.42 109.583C618.02 109.973 617.51 110.173 617 110.173Z" fill="white"/>
<path d="M617 96.7822C616.49 96.7822 615.98 96.5821 615.59 96.1917L605.53 86.123C604.75 85.3424 604.75 84.0713 605.53 83.2906C606.31 82.5099 607.58 82.5099 608.36 83.2906L618.42 93.3593C619.2 94.1399 619.2 95.411 618.42 96.1917C618.02 96.5921 617.51 96.7822 617 96.7822Z" fill="white"/>
<path d="M617 65.6353C616.49 65.6353 615.98 65.4351 615.59 65.0448L606.59 56.0371C605.81 55.2564 605.81 53.9853 606.59 53.2046C607.37 52.424 608.64 52.424 609.42 53.2046L618.42 62.2124C619.2 62.993 619.2 64.2641 618.42 65.0448C618.02 65.4351 617.51 65.6353 617 65.6353Z" fill="white"/>
</g>
<g opacity="0.5">
<path d="M214 113.676H131V119.681H214V113.676Z" stroke="white" stroke-width="3" stroke-miterlimit="10" stroke-linejoin="round"/>
<path d="M144 119.682H137V128.689H144V119.682Z" stroke="white" stroke-width="3" stroke-miterlimit="10" stroke-linejoin="round"/>
<path d="M201 128.689H208V119.682H201V128.689Z" stroke="white" stroke-width="3" stroke-miterlimit="10" stroke-linejoin="round"/>
<path d="M147 83.6504H141V113.676H147V83.6504Z" stroke="white" stroke-width="3" stroke-miterlimit="10" stroke-linejoin="round"/>
<path d="M198 113.676H204V83.6499H198V113.676Z" stroke="white" stroke-width="3" stroke-miterlimit="10" stroke-linejoin="round"/>
<path d="M211 88.6543H135V94.6594H211V88.6543Z" stroke="white" stroke-width="3" stroke-miterlimit="10" stroke-linejoin="round"/>
<path d="M211 100.664H135V106.669H211V100.664Z" stroke="white" stroke-width="3" stroke-miterlimit="10" stroke-linejoin="round"/>
</g>
<g opacity="0.5">
<path d="M114 94.6602H106V128.689H114V94.6602Z" stroke="white" stroke-width="4" stroke-miterlimit="10"/>
<path d="M112 37.6113H108V94.6603H112V37.6113Z" fill="white"/>
<path d="M114 100.664H106V104.668H114V100.664Z" fill="white"/>
<path d="M112 34.6074H108V36.6091H112V34.6074Z" stroke="white" stroke-width="4" stroke-miterlimit="10"/>
<path d="M114 33.6073H106L101 15.5918H119L114 33.6073Z" stroke="white" stroke-width="4" stroke-miterlimit="10" stroke-linejoin="round"/>
<path d="M115 7.58594H105L101 15.5928H119L115 7.58594Z" stroke="white" stroke-width="4" stroke-miterlimit="10" stroke-linejoin="round"/>
<path d="M110 5.58331C111.657 5.58331 113 4.23901 113 2.58072C113 0.922432 111.657 -0.421875 110 -0.421875C108.343 -0.421875 107 0.922432 107 2.58072C107 4.23901 108.343 5.58331 110 5.58331Z" stroke="white" stroke-width="4" stroke-miterlimit="10"/>
</g>
<path opacity="0.6" d="M34 130.492C35.01 123.466 41.03 118.061 48.33 118.061C51.97 118.061 55.3 119.422 57.84 121.644C59.63 120.683 61.68 120.133 63.85 120.133C68.51 120.133 72.57 122.635 74.8 126.368C74.94 126.358 75.09 126.348 75.23 126.348C75.85 126.348 76.45 126.408 77.04 126.508C78.51 120.863 83.63 116.68 89.73 116.68C97.19 116.68 103.2 122.925 102.82 130.472C102.81 130.482 102.81 130.482 102.8 130.492H34V130.492Z" stroke="white" stroke-width="4" stroke-miterlimit="10" stroke-linejoin="round"/>
<path opacity="0.5" d="M443 130.69H546.21C546.32 129.87 546.4 129.039 546.4 128.188C546.4 117.959 538.12 109.672 527.9 109.672C524.52 109.672 521.37 110.593 518.64 112.174C513.85 108.121 507.66 105.669 500.89 105.669C494.38 105.669 488.41 107.931 483.7 111.714C483.44 111.694 483.17 111.674 482.89 111.674C482.3 111.674 481.72 111.724 481.15 111.794C479.77 102.666 471.91 95.6602 462.39 95.6602C451.9 95.6602 443.39 104.177 443.39 114.677C443.39 118.85 444.75 122.703 447.03 125.846C445.48 127.267 444.13 128.899 443 130.69Z" stroke="white" stroke-width="4" stroke-miterlimit="10" stroke-linejoin="round"/>
</g>
</svg>
