<svg width="43" height="42" viewBox="0 0 43 42" fill="none" xmlns="http://www.w3.org/2000/svg">
<path d="M32.2005 24.4799C32.2005 24.4799 37.4305 22.5599 41.0805 29.7699C41.0805 29.7699 35.4105 34.0099 30.7305 28.0899" fill="#009944"/>
<path d="M32.2005 24.4799C32.2005 24.4799 37.4305 22.5599 41.0805 29.7699C41.0805 29.7699 35.4105 34.0099 30.7305 28.0899" stroke="#6A3907" stroke-width="2" stroke-miterlimit="10" stroke-linecap="round" stroke-linejoin="round"/>
<path d="M19.8302 30.3506C19.8302 30.3506 22.4402 35.2706 15.7902 39.8706C15.7902 39.8706 10.8202 34.8206 16.0602 29.3906" fill="#009944"/>
<path d="M19.8302 30.3506C19.8302 30.3506 22.4402 35.2706 15.7902 39.8706C15.7902 39.8706 10.8202 34.8206 16.0602 29.3906" stroke="#6A3907" stroke-width="2" stroke-miterlimit="10" stroke-linecap="round" stroke-linejoin="round"/>
<path d="M12.25 19.9705C12.25 19.9705 9.34 24.7205 2 21.3405C2 21.3405 3.81997 14.5005 11.16 16.2405" fill="#009944"/>
<path d="M12.25 19.9705C12.25 19.9705 9.34 24.7205 2 21.3405C2 21.3405 3.81997 14.5005 11.16 16.2405" stroke="#6A3907" stroke-width="2" stroke-miterlimit="10" stroke-linecap="round" stroke-linejoin="round"/>
<path d="M15.2001 27.3096C15.2001 27.3096 13.2001 32.5096 5.37012 30.5196C5.37012 30.5196 5.92013 23.4596 13.4501 23.8496" fill="#009944"/>
<path d="M15.2001 27.3096C15.2001 27.3096 13.2001 32.5096 5.37012 30.5196C5.37012 30.5196 5.92013 23.4596 13.4501 23.8496" stroke="#6A3907" stroke-width="2" stroke-miterlimit="10" stroke-linecap="round" stroke-linejoin="round"/>
<path d="M28.1402 30.5098C28.1402 30.5098 31.9702 34.5498 26.8002 40.7698C26.8002 40.7698 20.6702 37.2398 24.2502 30.5998" fill="#009944"/>
<path d="M28.1402 30.5098C28.1402 30.5098 31.9702 34.5498 26.8002 40.7698C26.8002 40.7698 20.6702 37.2398 24.2502 30.5998" stroke="#6A3907" stroke-width="2" stroke-miterlimit="10" stroke-linecap="round" stroke-linejoin="round"/>
<path d="M31.0801 12.79C31.0801 12.79 34.12 8.12998 41.36 11.72C41.36 11.72 39.3501 18.51 32.0701 16.56" fill="#009944"/>
<path d="M31.0801 12.79C31.0801 12.79 34.12 8.12998 41.36 11.72C41.36 11.72 39.3501 18.51 32.0701 16.56" stroke="#6A3907" stroke-width="2" stroke-miterlimit="10" stroke-linecap="round" stroke-linejoin="round"/>
<path d="M23.5399 10.4C23.5399 10.4 21.07 5.42 27.83 1C27.83 1 32.6599 6.16999 27.2899 11.47" fill="#009944"/>
<path d="M23.5399 10.4C23.5399 10.4 21.07 5.42 27.83 1C27.83 1 32.6599 6.16999 27.2899 11.47" stroke="#6A3907" stroke-width="2" stroke-miterlimit="10" stroke-linecap="round" stroke-linejoin="round"/>
<path d="M13.3398 13.8203C13.3398 13.8203 8.58986 10.9103 11.9799 3.57031C11.9799 3.57031 18.8199 5.39031 17.0799 12.7203" fill="#009944"/>
<path d="M13.3398 13.8203C13.3398 13.8203 8.58986 10.9103 11.9799 3.57031C11.9799 3.57031 18.8199 5.39031 17.0799 12.7203" stroke="#6A3907" stroke-width="2" stroke-miterlimit="10" stroke-linecap="round" stroke-linejoin="round"/>
<path d="M31.9504 26.2903C31.9504 26.2903 31.7904 29.1603 34.5604 28.5603C34.5604 28.5603 36.0904 28.3703 35.9204 25.9303C35.9204 25.9303 38.6604 27.1503 39.3004 23.9603C39.3004 23.9603 39.6004 23.2703 36.6004 22.0903C36.6004 22.0903 39.1204 19.4503 36.3804 18.2403C36.3804 18.2403 33.0204 17.2203 33.3604 20.0403C33.3604 20.0403 31.5104 17.6803 30.2004 19.6503C30.2004 19.6503 28.3204 21.1803 30.0704 22.7803C30.0704 22.7803 27.8404 23.5703 28.4304 25.1903C28.4404 25.1703 29.8104 27.8503 31.9504 26.2903Z" fill="#E60012" stroke="#6A3907" stroke-width="2" stroke-miterlimit="10" stroke-linecap="round" stroke-linejoin="round"/>
<path d="M28.6903 19.31C28.6903 19.31 27.9403 22.08 30.7803 22.07C30.7803 22.07 32.3203 22.2 32.6503 19.77C32.6503 19.77 35.0803 21.54 36.3703 18.54C36.3703 18.54 36.8103 17.94 34.1203 16.16C34.1203 16.16 37.1403 14.09 34.7003 12.34C34.7003 12.34 31.6203 10.66 31.3803 13.47C31.3803 13.47 30.0603 10.78 28.3703 12.44C28.3703 12.44 26.2103 13.55 27.5903 15.48C27.5903 15.48 25.2403 15.79 25.4903 17.49C25.5003 17.49 26.2703 20.4 28.6903 19.31Z" fill="#E60012" stroke="#6A3907" stroke-width="2" stroke-miterlimit="10" stroke-linecap="round" stroke-linejoin="round"/>
<path d="M32.3296 17.399C31.9996 17.999 31.2396 18.209 30.6396 17.879C30.0396 17.539 29.8295 16.7791 30.1695 16.1791C30.5095 15.5791 31.2696 15.3791 31.8696 15.7091C32.4496 16.0391 32.6696 16.799 32.3296 17.399Z" fill="#FFF100"/>
<path d="M34.9801 23.6103C34.6401 24.2103 33.8801 24.4303 33.2901 24.0903C32.6901 23.7503 32.4801 22.9903 32.8101 22.3903C33.1501 21.7903 33.9101 21.5703 34.5101 21.9103C35.1001 22.2503 35.3201 23.0103 34.9801 23.6103Z" fill="#FFF100"/>
<path d="M26.4198 14.0106C26.4198 14.0106 26.1597 16.8706 28.9597 16.3606C28.9597 16.3606 30.4897 16.2206 30.4097 13.7706C30.4097 13.7706 33.1097 15.0806 33.8497 11.9106C33.8497 11.9106 34.1797 11.2306 31.2197 9.95058C31.2197 9.95058 33.8298 7.39058 31.1298 6.09058C31.1298 6.09058 27.7998 4.97058 28.0598 7.79058C28.0598 7.79058 26.2898 5.37058 24.9198 7.30058C24.9198 7.30058 22.9898 8.77059 24.6798 10.4306C24.6798 10.4306 22.4297 11.1506 22.9597 12.7806C22.9497 12.7806 24.2298 15.5006 26.4198 14.0106Z" fill="#E60012" stroke="#6A3907" stroke-width="2" stroke-miterlimit="10" stroke-linecap="round" stroke-linejoin="round"/>
<path d="M29.3796 11.7397C29.0396 12.3397 28.2796 12.5497 27.6796 12.2097C27.0796 11.8697 26.8696 11.1097 27.2096 10.5097C27.5496 9.90967 28.3096 9.69966 28.9096 10.0397C29.4996 10.3797 29.7196 11.1397 29.3796 11.7397Z" fill="#FFF100"/>
<path d="M19.2401 12.9708C19.2401 12.9708 19.5001 15.8308 22.1601 14.8208C22.1601 14.8208 23.6501 14.4108 23.1101 12.0208C23.1101 12.0208 26.0001 12.8108 26.1601 9.57082C26.1601 9.57082 26.3601 8.85082 23.2201 8.12082C23.2201 8.12082 25.3201 5.13082 22.4301 4.34082C22.4301 4.34082 18.9501 3.84082 19.7101 6.56082C19.7101 6.56082 17.5301 4.50082 16.5301 6.65082C16.5301 6.65082 14.8901 8.44082 16.8601 9.76082C16.8601 9.76082 14.7701 10.8808 15.5901 12.3808C15.6001 12.3808 17.3501 14.8308 19.2401 12.9708Z" fill="#E60012" stroke="#6A3907" stroke-width="2" stroke-miterlimit="10" stroke-linecap="round" stroke-linejoin="round"/>
<path d="M8.53041 17.5099C8.53041 17.5099 8.80046 20.3699 11.4505 19.3599C11.4505 19.3599 12.9404 18.9399 12.4104 16.5599C12.4104 16.5599 15.3004 17.3499 15.4604 14.0999C15.4604 14.0999 15.6605 13.3799 12.5205 12.6499C12.5205 12.6499 14.6204 9.65992 11.7304 8.86992C11.7304 8.86992 8.25046 8.36993 9.02046 11.0999C9.02046 11.0999 6.84041 9.03993 5.84041 11.1799C5.84041 11.1799 4.21044 12.9799 6.18044 14.2899C6.18044 14.2899 4.09042 15.4099 4.91042 16.9099C4.89042 16.9199 6.64041 19.3699 8.53041 17.5099Z" fill="#E60012" stroke="#6A3907" stroke-width="2" stroke-miterlimit="10" stroke-linecap="round" stroke-linejoin="round"/>
<path d="M7.61034 24.7191C7.61034 24.7191 6.64034 27.4191 9.48034 27.6391C9.48034 27.6391 11.0003 27.8891 11.5303 25.4991C11.5303 25.4991 13.8204 27.4391 15.3304 24.5591C15.3304 24.5591 15.8104 23.9891 13.2704 22.0091C13.2704 22.0091 16.4403 20.1891 14.1503 18.2391C14.1503 18.2391 11.2104 16.3191 10.7504 19.1091C10.7504 19.1091 9.65037 16.3191 7.83037 17.8491C7.83037 17.8491 5.59036 18.7891 6.82036 20.8091C6.82036 20.8091 4.45035 20.9391 4.56035 22.6491C4.56035 22.6491 5.12034 25.6091 7.61034 24.7191Z" fill="#E60012" stroke="#6A3907" stroke-width="2" stroke-miterlimit="10" stroke-linecap="round" stroke-linejoin="round"/>
<path d="M14.9998 31.4604C14.9998 31.4604 15.7598 34.2304 18.1998 32.7804C18.1998 32.7804 19.5897 32.1204 18.6497 29.8604C18.6497 29.8604 21.6297 30.1404 21.2297 26.9104C21.2297 26.9104 21.2998 26.1704 18.0798 25.9904C18.0798 25.9904 19.6397 22.6804 16.6497 22.4004C16.6497 22.4004 13.1398 22.5104 14.3598 25.0604C14.3598 25.0604 11.8598 23.4004 11.2398 25.6904C11.2398 25.6904 9.93975 27.7404 12.1098 28.7004C12.1098 28.7004 10.2498 30.1604 11.3198 31.5104C11.3198 31.5004 13.4698 33.6104 14.9998 31.4604Z" fill="#E60012" stroke="#6A3907" stroke-width="2" stroke-miterlimit="10" stroke-linecap="round" stroke-linejoin="round"/>
<path d="M27.0599 32.5109C27.0599 32.5109 26.6599 35.3609 29.4699 34.9909C29.4699 34.9909 31.0099 34.9409 31.0499 32.4909C31.0499 32.4909 33.6799 33.9409 34.5899 30.8109C34.5899 30.8109 34.9499 30.1609 32.0699 28.7209C32.0699 28.7209 34.7999 26.3009 32.1799 24.8609C32.1799 24.8609 28.91 23.5709 29.02 26.3909C29.02 26.3909 27.3799 23.8809 25.9099 25.7409C25.9099 25.7409 23.8999 27.1109 25.5099 28.8409C25.5099 28.8409 23.2199 29.4509 23.6699 31.1009C23.6699 31.1009 24.7999 33.8809 27.0599 32.5109Z" fill="#E60012" stroke="#6A3907" stroke-width="2" stroke-miterlimit="10" stroke-linecap="round" stroke-linejoin="round"/>
<path d="M17.5602 25.3205C17.5602 25.3205 17.8202 28.1805 20.4802 27.1705C20.4802 27.1705 21.9702 26.7605 21.4302 24.3705C21.4302 24.3705 24.3202 25.1705 24.4802 21.9105C24.4802 21.9105 24.6802 21.1905 21.5302 20.4705C21.5302 20.4705 23.6402 17.4805 20.7402 16.6805C20.7402 16.6805 17.2702 16.1805 18.0302 18.9105C18.0302 18.9105 15.8502 16.8505 14.8502 19.0005C14.8502 19.0005 13.2202 20.7905 15.1902 22.1105C15.1902 22.1105 13.1002 23.2305 13.9202 24.7305C13.9302 24.7405 15.6802 27.1805 17.5602 25.3205Z" fill="#E60012" stroke="#6A3907" stroke-width="2" stroke-miterlimit="10" stroke-linecap="round" stroke-linejoin="round"/>
<path d="M22.7201 19.2109C22.7201 19.2109 22.9902 22.0809 25.6402 21.0709C25.6402 21.0709 27.1301 20.6609 26.5901 18.2709C26.5901 18.2709 29.4802 19.0609 29.6402 15.8109C29.6402 15.8109 29.8402 15.0909 26.7002 14.3609C26.7002 14.3609 28.8001 11.3709 25.9101 10.5809C25.9101 10.5809 22.4302 10.0809 23.2002 12.8109C23.2002 12.8109 21.0202 10.7509 20.0202 12.8909C20.0202 12.8909 18.3901 14.6809 20.3601 16.0109C20.3601 16.0109 18.2701 17.1209 19.0901 18.6309C19.0901 18.6309 20.8301 21.0809 22.7201 19.2109Z" fill="#E60012" stroke="#6A3907" stroke-width="2" stroke-miterlimit="10" stroke-linecap="round" stroke-linejoin="round"/>
<path d="M25.2202 16.8308C24.8902 17.4308 24.1302 17.6408 23.5302 17.3108C22.9302 16.9708 22.7202 16.2108 23.0602 15.6008C23.4002 15.0108 24.1502 14.8008 24.7602 15.1308C25.3402 15.4708 25.5602 16.2208 25.2202 16.8308Z" fill="#FFF100"/>
<path d="M17.0202 29.3608C16.6802 29.9608 15.9202 30.1708 15.3202 29.8308C14.7202 29.4908 14.5102 28.7308 14.8502 28.1308C15.1902 27.5308 15.9502 27.3208 16.5402 27.6608C17.1402 28.0008 17.3502 28.7608 17.0202 29.3608Z" fill="#FFF100"/>
<path d="M19.9001 22.9691C19.5601 23.5691 18.8001 23.7791 18.2001 23.4491C17.6001 23.1091 17.3901 22.3491 17.7301 21.7491C18.0701 21.1491 18.8301 20.9391 19.4301 21.2691C20.0201 21.6191 20.2401 22.3691 19.9001 22.9691Z" fill="#FFF100"/>
<path d="M30.2897 30.409C29.9497 30.999 29.1897 31.219 28.5897 30.879C27.9897 30.549 27.7798 29.7891 28.1198 29.1791C28.4598 28.5791 29.2098 28.3791 29.8098 28.7091C30.4098 29.0491 30.6297 29.809 30.2897 30.409Z" fill="#FFF100"/>
<path d="M21.8602 10.3603C21.5202 10.9603 20.7602 11.1703 20.1602 10.8403C19.5602 10.5003 19.3502 9.74027 19.6802 9.14027C20.0202 8.54027 20.7803 8.32027 21.3803 8.66027C21.9903 9.00027 22.2002 9.76026 21.8602 10.3603Z" fill="#FFF100"/>
<path d="M11.0005 23.0804C10.6605 23.6804 9.90047 23.8904 9.31047 23.5504C8.71047 23.2204 8.50044 22.4504 8.84044 21.8604C9.18044 21.2604 9.94045 21.0504 10.5405 21.3804C11.1305 21.7204 11.3405 22.4804 11.0005 23.0804Z" fill="#FFF100"/>
<path d="M10.8898 14.4692C10.5998 14.9792 9.95978 15.1592 9.44978 14.8692C8.93978 14.5792 8.75975 13.9393 9.04975 13.4293C9.32975 12.9193 9.97975 12.7393 10.4898 13.0293C10.9998 13.3193 11.1798 13.9592 10.8898 14.4692Z" fill="#FFF100"/>
<path d="M20.5104 35.3796C20.5104 35.3796 20.7704 38.2296 23.4304 37.2296C23.4304 37.2296 24.9104 36.8196 24.3804 34.4296C24.3804 34.4296 27.2704 35.2196 27.4304 31.9696C27.4304 31.9696 27.6304 31.2496 24.4904 30.5196C24.4904 30.5196 26.5904 27.5296 23.7004 26.7396C23.7004 26.7396 20.2204 26.2496 20.9904 28.9596C20.9904 28.9596 18.8104 26.8996 17.8104 29.0496C17.8104 29.0496 16.1804 30.8396 18.1404 32.1596C18.1404 32.1596 16.0504 33.2796 16.8704 34.7896C16.8804 34.7896 18.6304 37.2396 20.5104 35.3796Z" fill="#E60012" stroke="#6A3907" stroke-width="2" stroke-miterlimit="10" stroke-linecap="round" stroke-linejoin="round"/>
<path d="M22.7497 32.6908C22.4097 33.2908 21.6497 33.5008 21.0497 33.1608C20.4497 32.8308 20.2397 32.0608 20.5797 31.4608C20.9197 30.8608 21.6797 30.6508 22.2797 30.9908C22.8797 31.3308 23.0897 32.0908 22.7497 32.6908Z" fill="#FFF100"/>
<path d="M25.4203 26.3695C25.4203 26.3695 25.7003 29.3695 28.4803 28.3095C28.4803 28.3095 30.0303 27.8795 29.4803 25.3795C29.4803 25.3795 32.5103 26.2095 32.6803 22.8095C32.6803 22.8095 32.8903 22.0495 29.6003 21.2995C29.6003 21.2995 31.8003 18.1695 28.7803 17.3395C28.7803 17.3395 25.1403 16.8095 25.9403 19.6695C25.9403 19.6695 23.6603 17.5095 22.6103 19.7595C22.6103 19.7595 20.9003 21.6395 22.9603 23.0195C22.9603 23.0195 20.7803 24.1895 21.6303 25.7595C21.6203 25.7595 23.4503 28.3195 25.4203 26.3695Z" fill="#E60012" stroke="#6A3907" stroke-width="2" stroke-miterlimit="10" stroke-linecap="round" stroke-linejoin="round"/>
<path d="M27.9504 23.6601C27.5504 24.3801 26.6404 24.6301 25.9204 24.2201C25.2004 23.8201 24.9504 22.9002 25.3504 22.1802C25.7504 21.4602 26.6704 21.2101 27.3804 21.6101C28.1004 22.0201 28.3504 22.9301 27.9504 23.6601Z" fill="#FFF100"/>
<path d="M15.7301 17.4198C15.7301 17.4198 16.0001 20.2798 18.6501 19.2698C18.6501 19.2698 20.1301 18.8498 19.6001 16.4698C19.6001 16.4698 22.4901 17.2698 22.6501 14.0098C22.6501 14.0098 22.8501 13.2899 19.7101 12.5698C19.7101 12.5698 21.8101 9.57984 18.9201 8.78984C18.9201 8.78984 15.4401 8.28985 16.2101 11.0198C16.2101 11.0198 14.0301 8.94985 13.0301 11.0998C13.0301 11.0998 11.4001 12.8898 13.3601 14.2098C13.3601 14.2098 11.2701 15.3298 12.0901 16.8398C12.0901 16.8398 13.8401 19.2798 15.7301 17.4198Z" fill="#E60012" stroke="#6A3907" stroke-width="2" stroke-miterlimit="10" stroke-linecap="round" stroke-linejoin="round"/>
<path d="M18.1198 14.9691C17.7798 15.5691 17.0198 15.7791 16.4198 15.4391C15.8198 15.0991 15.6098 14.3491 15.9498 13.7491C16.2898 13.1491 17.0498 12.9391 17.6398 13.2691C18.2398 13.6091 18.4598 14.3691 18.1198 14.9691Z" fill="#FFF100"/>
</svg>
