<svg width="117" height="160" viewBox="0 0 117 160" fill="none" xmlns="http://www.w3.org/2000/svg">
<path d="M37.9073 156C37.9073 157.66 42.6373 159 48.4673 159C54.2973 159 59.0273 157.66 59.0273 156C59.0273 154.34 54.2973 153 48.4673 153C42.6373 153 37.9073 154.35 37.9073 156Z" fill="#77695C" stroke="#77695C" stroke-width="0.5" stroke-miterlimit="10"/>
<path d="M61.517 138.7C63.037 135.82 63.917 134.27 63.917 130.95C63.917 127.06 63.917 125.45 63.057 121.92C63.037 121.84 63.017 121.75 62.997 121.67C61.467 115.98 58.367 108.03 55.037 105.87V105.73C54.647 105.72 54.257 105.71 53.877 105.7C51.657 105.74 45.587 105.32 39.897 104.67L39.867 104.87C38.177 108.16 38.477 110.5 38.147 114.08C37.627 119.76 38.157 125.44 35.877 130.84C35.187 132.49 34.517 134.4 34.357 136.27C34.187 138.13 34.517 139.95 35.807 141.45C35.997 141.68 36.227 141.91 36.467 142.12C38.777 144.14 40.247 143.55 41.157 146.94C41.517 148.26 41.487 150.04 41.657 151.71L41.787 151.7C48.787 152.95 54.537 151.7 54.537 151.7L55.067 151.67C55.077 151.38 55.097 151.09 55.137 150.81C55.457 148.2 55.717 145.63 57.547 143.58C59.107 141.83 60.497 140.39 61.577 138.74L61.517 138.7ZM42.097 129.96L42.287 129.94C47.037 127.3 52.287 129.94 52.287 129.94L52.467 129.95C52.387 131.23 52.127 132.45 51.407 133.5C50.197 135.26 47.317 135.63 45.417 135.14C42.957 134.5 42.347 132.21 42.097 129.96Z" fill="#F9C03D"/>
<path d="M54.5364 151.7C54.5364 151.7 48.7864 152.95 41.7864 151.7L41.6564 151.71C41.8464 153.75 42.3364 155.63 44.1464 156.37C46.0364 157.15 50.6564 157.26 52.5564 156.73C55.0364 156.05 54.9464 153.73 55.0664 151.67L54.5364 151.7Z" fill="white" stroke="white" stroke-width="0.25" stroke-miterlimit="10"/>
<path d="M57.9169 131.32C57.9169 127.77 60.1669 123.72 63.2769 122.27C64.1169 127.69 65.1269 133.56 62.3869 138.56C59.7469 137.29 57.9169 134.54 57.9169 131.32Z" fill="white" stroke="white" stroke-width="0.25" stroke-miterlimit="10"/>
<path d="M52.2868 129.941C52.2868 129.941 47.0368 127.301 42.2868 129.941L42.0968 129.961C42.3468 132.211 42.9568 134.501 45.4168 135.141C47.3168 135.631 50.1968 135.261 51.4068 133.501C52.1268 132.451 52.3868 131.231 52.4668 129.951L52.2868 129.941Z" fill="white" stroke="white" stroke-width="0.25" stroke-miterlimit="10"/>
<path d="M21.2766 145.53C19.7666 143.64 20.3266 141.68 20.3266 141.68L20.5366 141.46L22.6066 140.85C22.6066 140.85 22.5066 143.49 23.9166 144.84L21.2766 145.53ZM15.9466 147.03C14.4366 145.14 14.9866 143.18 14.9866 143.18L15.1966 142.96L17.2766 142.35C17.2766 142.35 17.1666 144.99 18.5866 146.34L15.9466 147.03ZM13.0166 146.31L12.1666 146.2L11.0366 146.07L10.5966 145.99C9.83664 143.7 11.1366 142.29 11.1366 142.29L13.2266 142.62C13.2266 142.62 12.1166 145.28 13.0166 146.31ZM30.8166 141.69C29.2766 139.83 29.8066 137.85 29.8066 137.85L30.0166 137.64L32.0866 137C32.0866 137 32.0166 139.63 33.4466 140.97L30.8166 141.69ZM26.0666 143.77C24.3366 142.08 24.6566 140.06 24.6566 140.06L24.8366 139.82L26.8266 138.97C26.8266 138.97 27.0366 141.6 28.5966 142.77L26.0666 143.77ZM34.1966 136.25C27.2766 137.4 24.1466 139.99 18.8366 141.46C18.6666 141.51 18.4666 141.56 18.2666 141.6C17.3266 141.83 16.1466 142.05 15.3066 142.11C14.4066 142.17 13.4966 142.14 12.6566 142.11C10.8166 142.07 9.28665 142.1 8.75665 143.43C7.84665 145.71 9.81664 146.72 11.6266 147.11C11.9166 147.17 12.2166 147.23 12.5166 147.26C14.7766 147.6 17.2066 147.38 19.5566 146.87C21.6566 146.4 25.0466 145.33 26.9266 144.55C26.9266 144.55 32.3666 141.7 35.7066 141.53L35.8066 141.45C34.5166 139.95 34.1866 138.13 34.3566 136.27L34.1966 136.25Z" fill="#F9C03D"/>
<path d="M13.0166 146.311C12.1166 145.281 13.2266 142.621 13.2266 142.621L11.1366 142.291C11.1366 142.291 9.83657 143.701 10.5966 145.991L11.0366 146.071L12.1666 146.201L13.0166 146.311Z" fill="#6A3907"/>
<path d="M15.1969 142.96L14.9869 143.18C14.9869 143.18 14.4369 145.14 15.9469 147.03L18.5869 146.34C17.1669 144.99 17.2769 142.35 17.2769 142.35L15.1969 142.96Z" fill="#6A3907"/>
<path d="M20.537 141.46L20.327 141.68C20.327 141.68 19.767 143.64 21.277 145.53L23.917 144.84C22.507 143.49 22.607 140.85 22.607 140.85L20.537 141.46Z" fill="#6A3907"/>
<path d="M26.8267 138.971L24.8367 139.821L24.6567 140.061C24.6567 140.061 24.3367 142.081 26.0667 143.771L28.5967 142.771C27.0367 141.601 26.8267 138.971 26.8267 138.971Z" fill="#6A3907"/>
<path d="M30.0163 137.64L29.8063 137.85C29.8063 137.85 29.2763 139.83 30.8163 141.69L33.4463 140.97C32.0163 139.63 32.0863 137 32.0863 137L30.0163 137.64Z" fill="#6A3907"/>
<path fill-rule="evenodd" clip-rule="evenodd" d="M39.9315 103.883C39.5377 103.857 39.1661 104.067 38.9858 104.419C37.5706 107.174 37.4453 109.4 37.3061 111.873C37.2678 112.554 37.2284 113.255 37.1606 113.99L37.1605 113.991C37.028 115.438 36.9629 116.88 36.9038 118.295C36.8988 118.415 36.8939 118.534 36.889 118.653C36.8352 119.951 36.7824 121.225 36.6844 122.489C36.4706 125.246 36.0451 127.896 34.9644 130.456L34.963 130.459C34.2631 132.133 33.5442 134.157 33.3703 136.184C33.1852 138.214 33.5382 140.327 35.0495 142.089C35.2789 142.366 35.5459 142.631 35.8145 142.866L35.8147 142.866C36.4529 143.424 37.0328 143.801 37.5422 144.102C37.7358 144.216 37.9035 144.311 38.055 144.397C38.3293 144.553 38.5505 144.678 38.776 144.833C39.0814 145.043 39.3235 145.265 39.5407 145.591C39.7653 145.928 39.9911 146.418 40.2003 147.198L40.2013 147.201C40.354 147.761 40.4319 148.454 40.4902 149.265C40.5084 149.52 40.5249 149.79 40.5419 150.069C40.5765 150.636 40.6131 151.237 40.6711 151.807C40.8605 153.837 41.3756 156.307 43.7702 157.287C44.8872 157.747 46.6631 157.972 48.312 158.031C49.9693 158.091 51.7203 157.991 52.8198 157.685C53.5853 157.475 54.2028 157.123 54.6812 156.64C55.1564 156.16 55.4503 155.597 55.6371 155.027C55.9384 154.108 55.9897 153.046 56.032 152.171C56.0394 152.017 56.0465 151.869 56.0547 151.728L56.0558 151.705C56.0651 151.436 56.0832 151.184 56.1165 150.951L56.119 150.931L56.1353 150.799C56.4566 148.175 56.7244 145.988 58.2849 144.24L58.2854 144.24C58.5556 143.937 58.824 143.639 59.0891 143.346C60.3159 141.987 61.4718 140.708 62.4029 139.286C63.4644 137.687 64.2461 135.902 64.6706 133.557L64.6715 133.552C65.3614 129.622 64.9948 125.533 63.9861 121.745L63.9855 121.743H63.9855C63.21 118.859 62.0272 115.313 60.6087 112.201C59.8995 110.645 59.1225 109.178 58.2965 107.95C57.4797 106.735 56.5706 105.686 55.5752 105.04C55.4333 104.948 55.2702 104.894 55.1015 104.883L39.9315 103.883ZM54.6978 106.841C55.3119 107.296 55.9731 108.043 56.6535 109.055C57.3993 110.164 58.1255 111.527 58.8071 113.022C60.1699 116.012 61.3186 119.45 62.0731 122.256C63.024 125.827 63.3512 129.619 62.7218 133.207C62.3464 135.279 61.669 136.813 60.7518 138.193L60.748 138.199C59.9086 139.481 58.8776 140.624 57.6566 141.977C57.3831 142.28 57.1 142.594 56.8074 142.922C54.8258 145.142 54.492 147.899 54.1948 150.353C54.1815 150.463 54.1682 150.572 54.1549 150.681C54.1098 151.001 54.0882 151.321 54.0774 151.625C54.0672 151.801 54.0585 151.971 54.05 152.137C54.0045 153.023 53.9662 153.768 53.7557 154.41C53.64 154.763 53.4839 155.035 53.2748 155.246C53.069 155.454 52.7684 155.646 52.2946 155.776L52.2904 155.777C51.4897 156.001 49.9822 156.11 48.3833 156.053C46.7755 155.995 45.2972 155.775 44.5241 155.456L44.5211 155.454C43.2987 154.955 42.833 153.668 42.6421 151.619L42.6414 151.611L42.6413 151.611C42.587 151.077 42.5549 150.549 42.522 150.006C42.5045 149.717 42.4867 149.424 42.4651 149.124C42.4059 148.299 42.3189 147.442 42.112 146.682C41.8663 145.767 41.5672 145.061 41.1883 144.493C40.8018 143.913 40.3614 143.52 39.8968 143.201C39.6023 142.999 39.2596 142.804 38.9399 142.622C38.8037 142.544 38.6717 142.469 38.5493 142.397C38.105 142.135 37.635 141.828 37.1183 141.376C36.9094 141.193 36.7188 141.001 36.5697 140.82L36.557 140.805C35.4943 139.57 35.1882 138.047 35.3423 136.361L35.3428 136.355C35.4893 134.643 36.1097 132.849 36.7892 131.224C37.9879 128.384 38.4373 125.495 38.6584 122.642C38.7594 121.34 38.8136 120.032 38.8671 118.74C38.8721 118.619 38.8771 118.498 38.8821 118.378C38.9412 116.962 39.0048 115.564 39.1323 114.171C39.2129 113.297 39.2581 112.516 39.2999 111.795C39.4264 109.615 39.5216 107.971 40.4659 105.903L54.6978 106.841Z" fill="#6A3907"/>
<path fill-rule="evenodd" clip-rule="evenodd" d="M41.8661 114.201C41.3138 114.201 40.8661 114.649 40.8661 115.201C40.8661 116.488 40.8411 117.794 40.816 119.11C40.7583 122.135 40.6995 125.218 40.9391 128.269L40.94 128.28L40.94 128.28C40.9543 128.441 40.9683 128.611 40.9829 128.789C41.0162 129.196 41.0525 129.638 41.1023 130.073C41.2307 131.228 41.4611 132.516 42.0423 133.621C42.647 134.77 43.6274 135.709 45.1643 136.109L45.1663 136.109C46.274 136.395 47.6305 136.426 48.8908 136.14C50.1435 135.856 51.4331 135.227 52.2301 134.068L52.2308 134.067C53.0955 132.806 53.3786 131.38 53.464 130.015C53.5174 129.196 53.498 128.369 53.4691 127.591C53.4626 127.418 53.4558 127.248 53.449 127.08C53.4249 126.483 53.4023 125.925 53.406 125.389C53.4209 123.736 53.4803 122.082 53.5441 120.414C53.5499 120.263 53.5557 120.111 53.5615 119.96C53.6197 118.445 53.6784 116.918 53.7059 115.389C53.7158 114.837 53.2762 114.381 52.724 114.371C52.1718 114.361 51.7161 114.801 51.7062 115.353C51.6791 116.861 51.6212 118.367 51.5629 119.885C51.5571 120.036 51.5513 120.187 51.5455 120.338C51.4818 122.005 51.4212 123.686 51.4061 125.372L51.4061 125.374C51.402 125.962 51.4272 126.584 51.4517 127.189C51.4582 127.349 51.4646 127.509 51.4705 127.666C51.4991 128.433 51.5146 129.175 51.4682 129.886L51.468 129.889C51.3934 131.083 51.1563 132.097 50.5815 132.935C50.1684 133.536 49.4132 133.971 48.4488 134.19C47.4922 134.406 46.4593 134.377 45.6671 134.173C44.7444 133.933 44.19 133.407 43.8123 132.689C43.4112 131.927 43.2116 130.946 43.0899 129.851L43.0895 129.847C43.0433 129.444 43.0116 129.057 42.9796 128.666C42.9645 128.481 42.9494 128.296 42.9326 128.108C42.7013 125.158 42.7573 122.238 42.8144 119.263C42.8401 117.923 42.8661 116.572 42.8661 115.201C42.8661 114.649 42.4183 114.201 41.8661 114.201Z" fill="#6A3907"/>
<path fill-rule="evenodd" clip-rule="evenodd" d="M35.1825 136.086C35.092 135.541 34.5769 135.173 34.0321 135.264C30.4655 135.856 27.873 136.823 25.5236 137.814C25.05 138.014 24.5901 138.213 24.1367 138.409C22.3298 139.19 20.6265 139.927 18.5692 140.496L18.5539 140.501C18.412 140.543 18.2407 140.585 18.0699 140.62C18.056 140.622 18.0421 140.625 18.0284 140.629C17.1166 140.852 15.9985 141.058 15.2371 141.113C14.3962 141.168 13.5361 141.141 12.6917 141.111L12.6778 141.11C11.7823 141.091 10.8038 141.08 9.97351 141.286C9.08019 141.508 8.24451 142.013 7.82728 143.059C7.5437 143.77 7.45466 144.46 7.58578 145.11C7.71745 145.763 8.05375 146.289 8.47514 146.697C9.28296 147.48 10.4512 147.88 11.4154 148.088L11.4234 148.089C11.7043 148.148 12.0418 148.216 12.391 148.253C14.8033 148.611 17.3537 148.371 19.7681 147.847L19.7744 147.846C21.9288 147.364 25.3741 146.277 27.3093 145.474C27.3367 145.462 27.3636 145.45 27.39 145.436C27.39 145.436 27.3899 145.436 27.39 145.436L27.3925 145.435L27.4026 145.429L27.4454 145.407C27.4837 145.388 27.5413 145.358 27.6164 145.32C27.7666 145.245 27.9863 145.136 28.2609 145.004C28.8109 144.74 29.5778 144.386 30.4451 144.028C32.2186 143.296 34.2739 142.604 35.7569 142.529C36.3084 142.501 36.7328 142.031 36.7047 141.479C36.6767 140.928 36.2068 140.503 35.6552 140.531C33.7982 140.626 31.4635 141.444 29.682 142.18C28.7718 142.555 27.9699 142.925 27.3955 143.201C27.108 143.339 26.8766 143.454 26.7162 143.534C26.636 143.575 26.5735 143.607 26.5305 143.629L26.5041 143.643C24.6721 144.398 21.3722 145.439 19.3407 145.894C17.0641 146.387 14.7645 146.587 12.6648 146.271C12.6484 146.269 12.632 146.267 12.6155 146.265C12.375 146.241 12.1233 146.192 11.8328 146.132C10.9886 145.949 10.2685 145.65 9.86693 145.261C9.68331 145.083 9.58462 144.904 9.54629 144.714C9.50741 144.522 9.51337 144.23 9.68479 143.801C9.79762 143.518 9.99202 143.342 10.4561 143.227C10.9819 143.096 11.6863 143.089 12.6273 143.11C13.4605 143.14 14.4168 143.172 15.3725 143.108L15.3773 143.108C16.2894 143.042 17.5192 142.811 18.4835 142.576C18.7025 142.532 18.9202 142.478 19.1102 142.422C21.3103 141.812 23.164 141.01 24.9818 140.223C25.4222 140.032 25.8604 139.842 26.301 139.657C28.5741 138.698 31.0066 137.794 34.36 137.237C34.9048 137.146 35.273 136.631 35.1825 136.086Z" fill="#6A3907"/>
<path d="M50.6271 133.45C50.6571 132.23 51.3971 133.4 51.5471 132.21C52.7971 131.96 52.0271 130.13 52.2971 130.21C53.3871 130.58 55.9171 130.79 54.8471 132.68C54.2971 133.65 52.5871 133.75 50.6271 133.45Z" fill="#6A3907"/>
<path d="M38.2763 123.581C39.6263 123.721 41.0563 123.811 42.4863 123.871C42.2663 124.931 41.8463 126.021 41.5763 127.131C40.3963 127.061 39.1363 126.911 37.3763 126.631C37.2663 126.611 37.1363 126.591 36.9863 126.571C37.2463 125.561 37.5263 124.551 37.8263 123.541C37.9863 123.551 38.1163 123.561 38.2763 123.581Z" fill="#6A3907"/>
<path d="M38.8066 116.27C39.8266 116.37 40.9266 116.42 42.0166 116.43C41.8166 117.49 41.4666 118.59 41.2266 119.7C40.3266 119.66 39.3666 119.56 38.0266 119.33C37.9466 119.32 37.8366 119.3 37.7266 119.29C37.9566 118.27 38.1966 117.26 38.4666 116.24C38.5766 116.25 38.6866 116.26 38.8066 116.27Z" fill="#6A3907"/>
<path d="M37.4669 129.72C39.0769 129.89 40.7869 130.02 42.4969 130.11C42.2569 131.17 42.7169 132.22 42.4169 133.32C41.0069 133.22 38.5769 133.07 36.4769 132.75C36.3469 132.73 36.1869 132.71 36.0069 132.68C36.2969 131.67 36.5969 130.66 36.9369 129.66C37.1169 129.69 37.2769 129.7 37.4669 129.72Z" fill="#6A3907"/>
<path d="M50.1071 141.35C48.4371 140.88 44.9471 140.98 44.6271 141.79C44.4171 142.34 44.6171 143.01 45.0771 143.31C45.1871 143.37 47.7971 145.1 50.4871 143.37C50.9571 143.08 51.1771 142.41 50.9671 141.86C50.8871 141.65 50.5671 141.48 50.1071 141.35Z" fill="#6A3907"/>
<path d="M49.2071 124.981C47.7271 125.451 44.6271 125.361 44.3571 124.541C44.1671 123.991 44.3471 123.321 44.7571 123.021C44.8571 122.961 47.1671 121.231 49.5471 122.951C49.9671 123.241 50.1571 123.901 49.9771 124.461C49.9071 124.681 49.6171 124.851 49.2071 124.981Z" fill="#6A3907"/>
<path d="M45.1168 118.861C46.5968 119.331 49.6968 119.231 49.9768 118.411C50.1668 117.861 49.9868 117.191 49.5868 116.891C49.4868 116.831 47.1768 115.111 44.7968 116.831C44.3768 117.121 44.1868 117.791 44.3668 118.351C44.4268 118.561 44.7168 118.731 45.1168 118.861Z" fill="#6A3907"/>
<path d="M50.1071 146.721C48.4371 146.251 44.9471 146.351 44.6271 147.161C44.4171 147.711 44.6171 148.381 45.0771 148.681C45.1871 148.741 47.7971 150.471 50.4871 148.741C50.9571 148.451 51.1771 147.781 50.9671 147.231C50.8871 147.021 50.5671 146.851 50.1071 146.721Z" fill="#6A3907"/>
<path d="M53.3971 116.899C54.1971 117.309 56.5371 117.789 55.8071 119.629C55.4171 120.569 54.1671 120.589 52.7171 120.199C52.7171 118.989 52.7571 117.789 52.8371 116.609C53.0171 116.709 53.2071 116.809 53.3971 116.899Z" fill="#6A3907"/>
<path d="M51.9172 123.89C53.0372 124.11 56.2372 124.06 55.4072 126.07C54.9772 127.1 54.3272 127.17 52.3372 127.11C52.2172 125.9 52.1372 125.13 52.1372 123.93C52.3972 123.98 51.6472 123.84 51.9172 123.89Z" fill="#6A3907"/>
<path d="M50.4568 15.1009C50.1968 14.0709 49.8468 13.1209 49.3668 12.3709C45.5068 6.30092 37.3368 9.27092 35.8468 14.6409C35.1568 17.1209 34.9968 19.9009 35.2468 22.6309L34.7768 22.6709C30.8968 23.6209 22.8068 26.3409 16.0668 33.4509C13.6268 36.0609 11.5468 39.0809 9.8168 42.4809C3.9668 54.0209 3.50679 72.4109 7.97679 84.4509C12.5368 96.7009 21.5168 101.251 31.3668 103.371C33.5868 103.851 36.6868 104.301 39.8968 104.671C45.5868 105.321 51.6568 105.741 53.8768 105.701C54.2568 105.711 54.6468 105.721 55.0368 105.731C63.4468 105.841 74.6068 104.631 82.2668 101.051L82.1268 100.751C77.9168 98.9309 74.9668 94.6709 74.9668 89.7009C74.9668 83.0709 80.2268 77.7009 86.7068 77.7009L87.2768 77.6909C86.0668 75.4209 88.3768 64.1509 88.4968 62.0509C89.8168 39.0309 75.4668 25.9609 56.7968 22.2109C56.7468 22.2009 56.6968 22.1909 56.6468 22.1809C54.9968 21.8509 53.2868 21.6109 51.5168 21.4509L51.3668 21.3709C51.1568 19.6009 50.9868 17.1909 50.4568 15.1009ZM43.1568 89.5809C40.0968 88.8909 40.0868 86.3309 44.3468 86.1109C48.2668 85.9109 52.2268 85.5709 56.1568 85.7809C57.6668 85.8609 59.7068 85.8809 61.1168 86.4909C61.6968 86.7409 61.8368 86.9309 62.0968 87.2009C63.1368 88.2509 62.1968 89.3909 60.3368 89.7409C57.7268 90.2309 54.7368 90.1809 52.0968 90.1409C49.4568 90.1009 45.6768 90.1409 43.1568 89.5809ZM44.0368 97.6409C40.7968 96.7809 41.4268 94.6109 45.2068 94.4709C48.6768 94.3409 52.1968 94.0809 55.6768 94.3109C57.0068 94.4009 58.4168 94.2709 59.6568 94.8209C60.1768 95.0509 60.6168 95.3409 60.8468 95.5809C61.7568 96.5109 60.9868 97.5809 59.3268 97.8709C57.0168 98.2709 53.7468 98.2009 51.4168 98.1409C49.0768 98.0709 46.2468 98.2209 44.0368 97.6409ZM70.7568 67.0309C69.7368 67.0309 68.8968 66.0309 68.8968 64.7809C68.8968 61.4509 76.6068 61.1409 76.6068 64.7809C76.6068 66.0309 75.7768 67.0309 74.7468 67.0309H70.7568ZM69.2168 76.2809C69.2168 74.2609 71.6168 72.6209 73.6568 72.6209C75.6868 72.6209 76.6068 74.2609 76.6068 76.2809C76.6068 78.3109 75.6868 79.9509 73.6568 79.9509C71.6168 79.9509 69.2168 78.3109 69.2168 76.2809Z" fill="#F9C03D"/>
<path d="M50.7165 15.0411C51.0965 14.0911 51.6565 13.2211 52.5365 12.5211C54.7665 10.7611 58.1865 10.9311 58.8665 14.2011C58.9665 14.6911 58.9965 15.1411 58.9865 15.5711C58.0165 15.4211 57.5265 18.4411 56.9065 17.8311C56.3565 20.0411 55.7865 20.2111 54.1365 21.7611C53.2765 21.6411 52.4065 21.5411 51.5165 21.4611L51.3665 21.3811C51.1565 19.6111 50.9865 17.2011 50.4565 15.1111L50.7165 15.0411Z" fill="#F9C03D"/>
<path d="M68.8964 64.7811C68.8964 66.0311 69.7364 67.0311 70.7564 67.0311H74.7464C75.7764 67.0311 76.6064 66.0311 76.6064 64.7811C76.6064 61.1411 68.8964 61.4511 68.8964 64.7811Z" fill="white" stroke="white" stroke-width="0.25" stroke-miterlimit="10"/>
<path d="M58.8971 15.5992C59.5371 17.3992 57.2671 20.4792 56.7071 21.8692L56.6471 22.1792C56.6271 22.2792 53.9471 21.3692 53.9071 21.1992C53.5271 19.5092 53.9371 17.5092 54.9271 16.0992C55.6571 15.0592 57.6371 13.7992 58.6671 15.1692C58.7671 15.3092 58.8471 15.4492 58.8971 15.5992Z" fill="white"/>
<path d="M41.3662 20.73C40.5762 25.35 42.0062 29.79 43.2962 32.89L43.7462 32.93C43.8462 32.93 44.1862 32.03 44.2662 31.87C44.4562 31.51 44.6462 31.15 44.8462 30.81C45.2362 30.12 45.6462 29.47 46.0662 28.86C46.9362 27.61 47.8562 26.55 48.8062 25.68C49.1462 25.36 49.4962 25.07 49.8462 24.79C51.0662 23.86 50.0462 18.27 49.5562 16.84C48.4562 13.66 46.8862 13.22 45.4562 13.69C43.7462 14.27 41.9862 17.06 41.3662 20.73Z" fill="white"/>
<path d="M90.4564 93.5294C91.5264 90.7894 92.2764 87.4295 91.8464 84.4095C91.7664 84.4095 91.6764 84.3895 91.5764 84.3695L89.6164 84.1994C88.5464 84.1194 87.0564 83.6595 86.9664 82.1095C86.8864 80.6895 88.6964 80.2195 89.6664 80.2295C89.8464 80.2295 90.0264 80.2494 90.1964 80.2694C89.5564 79.3994 88.6964 78.6394 87.5864 78.0294C87.4664 77.9594 87.3664 77.8495 87.2764 77.6895L86.7064 77.6994C80.2264 77.6994 74.9664 83.0694 74.9664 89.6994C74.9664 94.6694 77.9164 98.9295 82.1264 100.749L82.2664 101.049C86.1964 99.2095 89.2064 96.7494 90.4564 93.5294Z" fill="white" stroke="white" stroke-width="0.25" stroke-miterlimit="10"/>
<path d="M44.3471 86.1109C40.0871 86.3309 40.0971 88.8909 43.1571 89.5809C45.6771 90.1409 49.4571 90.1009 52.0971 90.1409C54.7371 90.1809 57.7271 90.2309 60.3371 89.7409C62.1971 89.3909 63.1371 88.2509 62.0971 87.2009C61.8371 86.9309 61.6971 86.7409 61.1171 86.4909C59.7071 85.8809 57.6671 85.8609 56.1571 85.7809C52.2271 85.5709 48.2671 85.9109 44.3471 86.1109Z" fill="#6A3907"/>
<path d="M45.2063 94.4704C41.4263 94.6104 40.7963 96.7804 44.0363 97.6404C46.2463 98.2204 49.0763 98.0704 51.4163 98.1404C53.7463 98.2004 57.0163 98.2704 59.3263 97.8704C60.9863 97.5804 61.7563 96.5104 60.8463 95.5804C60.6163 95.3404 60.1763 95.0504 59.6563 94.8204C58.4163 94.2704 57.0063 94.4004 55.6763 94.3104C52.1963 94.0804 48.6763 94.3404 45.2063 94.4704Z" fill="#6A3907"/>
<path d="M73.6564 72.6211C71.6164 72.6211 69.2164 74.2611 69.2164 76.2811C69.2164 78.3111 71.6164 79.9511 73.6564 79.9511C75.6864 79.9511 76.6064 78.3111 76.6064 76.2811C76.6064 74.2611 75.6864 72.6211 73.6564 72.6211Z" fill="#6A3907"/>
<path d="M91.8471 84.4106C91.6271 82.9006 92.4571 81.5806 91.5371 80.3706C91.3671 80.3506 89.8471 80.2306 89.6671 80.2306C88.6971 80.2206 86.8871 80.6906 86.9671 82.1106C87.0571 83.6606 88.5471 84.1206 89.6171 84.2006L91.5771 84.3706C91.6771 84.3906 91.7671 84.4106 91.8471 84.4106Z" fill="#6A3907"/>
<path d="M50.8345 20.7199C50.6263 20.9152 50.5115 21.1902 50.519 21.4756L50.5293 22.5L52.5482 22.5582C53.8881 22.7081 55.1888 22.9071 56.4508 23.1595L56.452 23.1597C65.6218 25.0017 73.6993 29.126 79.3173 35.5465C84.9223 41.952 88.1468 50.7178 87.5003 61.992C87.4738 62.4554 87.3182 63.4893 87.099 64.9069L87.057 65.1781C86.8511 66.5087 86.6065 68.0891 86.3984 69.6754C86.1765 71.3673 85.9925 73.092 85.9425 74.5489C85.9176 75.2767 85.9252 75.9597 85.9836 76.5501C86.0396 77.116 86.1508 77.6993 86.3962 78.1596L86.4071 78.1795C86.5562 78.4447 86.7684 78.7084 87.0848 78.893C87.0922 78.8973 87.0996 78.9015 87.107 78.9056C88.0978 79.4501 88.8445 80.116 89.3931 80.8618C89.5622 81.0916 89.8212 81.238 90.1045 81.2648C90.1073 81.2652 90.1123 81.266 90.1191 81.2673C90.1432 81.2718 90.1873 81.2819 90.2429 81.3016C90.3552 81.3415 90.4974 81.4145 90.6258 81.5479C90.8374 81.7676 91.2581 82.4167 90.8714 84.197C90.8462 84.313 90.8419 84.4326 90.8586 84.5502C91.2549 87.3332 90.5646 90.5088 89.5272 93.1655L89.5264 93.1673C88.4116 96.0391 85.6741 98.3506 81.8453 100.143C74.3881 103.629 63.4089 104.838 55.0579 104.729L54.7132 104.721L52.7128 104.729L52.739 105.726C52.7533 106.267 53.1966 106.699 53.7387 106.699H53.8648C54.2091 106.708 54.5618 106.717 54.9145 106.726L55.0037 106.729L55.0256 106.729C63.4938 106.84 74.8311 105.629 82.6921 101.955C86.7222 100.068 90.0046 97.4601 91.3902 93.893C92.4728 91.1207 93.273 87.6532 92.8626 84.4452C93.2769 82.3648 92.8724 80.9975 92.0665 80.1606C91.6749 79.7539 91.2434 79.5345 90.9119 79.4168C90.8615 79.3989 90.813 79.3833 90.7669 79.3695C90.0836 78.5269 89.2145 77.7943 88.1503 77.1973C88.0941 77.0782 88.0197 76.8159 87.9739 76.3531C87.9275 75.8844 87.918 75.2982 87.9414 74.6174C87.988 73.2571 88.1621 71.6074 88.3814 69.9355C88.5864 68.3731 88.8277 66.8141 89.0341 65.4802L89.0755 65.2125C89.2854 63.8554 89.4635 62.6929 89.497 62.1063C90.1706 50.3604 86.805 41.0665 80.8225 34.2295C74.8561 27.4109 66.3247 23.1052 56.8304 21.1958C55.1461 20.8595 53.4052 20.6157 51.6087 20.4533C51.3244 20.4276 51.0427 20.5246 50.8345 20.7199Z" fill="#6A3907"/>
<path d="M35.7484 22.4323C35.6171 21.8959 35.0757 21.5675 34.5393 21.6988C30.5612 22.6729 22.2645 25.459 15.3414 32.7622L15.3366 32.7672C12.8268 35.4519 10.6944 38.5508 8.92585 42.0267L8.92517 42.028C5.91656 47.9629 4.31903 55.5975 4.02784 63.2396C3.73654 70.8842 4.74889 78.6281 7.03963 84.7982C9.38529 91.0996 12.8885 95.4639 17.1014 98.5185C21.3001 101.563 26.1542 103.271 31.1558 104.348C33.4239 104.838 36.5621 105.292 39.7826 105.664L39.7836 105.664C45.4715 106.313 51.5886 106.74 53.8861 106.7H54.0365C54.5888 106.7 55.0371 106.252 55.0371 105.7C55.0371 105.148 54.5894 104.7 54.0371 104.7H53.8775L53.8591 104.7C51.7097 104.739 45.6959 104.326 40.0116 103.677C36.8121 103.308 33.7503 102.862 31.5784 102.393C26.7304 101.349 22.1689 99.7223 18.2754 96.8993C14.3959 94.0865 11.1289 90.0503 8.91459 84.1021C6.73553 78.2324 5.74269 70.7607 6.02639 63.3157C6.31019 55.8678 7.86767 48.5374 10.7091 42.9323C12.3997 39.6098 14.4263 36.6701 16.7951 34.1357C23.3515 27.2207 31.2335 24.5673 35.0149 23.6415C35.5514 23.5101 35.8798 22.9688 35.7484 22.4323Z" fill="#6A3907"/>
<path fill-rule="evenodd" clip-rule="evenodd" d="M41.4835 8.24312C38.4693 8.97131 35.7385 11.2913 34.8835 14.3728C34.1548 16.9924 33.9929 19.8961 34.2509 22.7176C34.6218 27.1208 36.0109 31.4505 37.9652 34.2699C38.2799 34.7238 38.9029 34.8367 39.3568 34.522C39.8107 34.2074 39.9236 33.5844 39.6089 33.1305C37.9038 30.6706 36.5931 26.7019 36.2436 22.5463L36.243 22.539C36.0015 19.9019 36.1597 17.2472 36.8105 14.9082C37.4455 12.6197 39.5448 10.769 41.9532 10.1872C44.2981 9.62069 46.8488 10.2737 48.5233 12.9068L48.5248 12.9092C48.9239 13.5328 49.2409 14.368 49.4875 15.3449L49.4878 15.346C49.7279 16.2929 49.8986 17.974 50.0351 19.723C50.0813 20.3146 50.1235 20.9142 50.1635 21.4826C50.2375 22.5332 50.304 23.4772 50.3741 24.068C50.4391 24.6164 50.9365 25.0083 51.4849 24.9432C52.0333 24.8781 52.4252 24.3808 52.3601 23.8323C52.2954 23.2869 52.2353 22.4312 52.1646 21.4253C52.1239 20.8456 52.0797 20.2161 52.0291 19.5674C51.8955 17.8563 51.7163 15.9974 51.4264 14.8544C51.1532 13.7722 50.7704 12.7082 50.2102 11.8323C48.0245 8.39642 44.5607 7.49972 41.4835 8.24312Z" fill="#6A3907"/>
<path d="M56.4697 10.4907C54.9211 10.1969 53.221 10.7056 51.9175 11.7345L51.9145 11.7368C50.8703 12.5674 50.2182 13.5938 49.7885 14.668C49.5834 15.1808 49.8328 15.7628 50.3456 15.9679C50.8584 16.173 51.4404 15.9236 51.6455 15.4108C51.9756 14.5856 52.443 13.8724 53.158 13.3032C54.0842 12.5729 55.2083 12.2871 56.0968 12.4556C56.9093 12.6098 57.6284 13.1551 57.8879 14.4029C58.1569 15.6977 57.9506 16.702 57.5242 17.7519L56.7693 19.3579L56.7167 19.4631C56.4112 20.0744 56.0779 20.7483 55.7783 21.4986C55.5735 22.0115 55.8233 22.5933 56.3362 22.7981C56.8491 23.0029 57.4309 22.7532 57.6357 22.2402L58.5057 20.3573L58.5674 20.234C58.848 19.6732 59.1376 19.0944 59.3772 18.5045C59.9083 17.1969 60.217 15.7809 59.846 13.9958C59.4255 11.9737 58.0947 10.799 56.4697 10.4907Z" fill="#6A3907"/>
<path fill-rule="evenodd" clip-rule="evenodd" d="M83.1405 90.5843C82.6066 90.7256 82.2883 91.2729 82.4296 91.8068C82.8936 93.5607 84.2531 94.3211 85.3361 94.6311C85.8775 94.7862 86.3835 94.8419 86.7493 94.8602C86.9341 94.8695 87.088 94.8695 87.199 94.8669C87.2546 94.8656 87.2998 94.8637 87.3331 94.8619C87.3393 94.8616 87.345 94.8612 87.3504 94.8609C88.8059 94.8526 89.8875 94.3107 90.6009 93.7657C90.9577 93.4931 91.2235 93.2194 91.4033 93.0094C91.4935 92.9039 91.5631 92.8133 91.6126 92.7452C91.6373 92.7111 91.6572 92.6824 91.6722 92.6602C91.6797 92.6491 91.686 92.6396 91.691 92.6318L91.6978 92.6214L91.7005 92.6171L91.7016 92.6153L91.7022 92.6144C91.7024 92.614 91.7027 92.6136 90.8563 92.081L91.7027 92.6136C91.9968 92.1461 91.8563 91.5288 91.3889 91.2346C90.924 90.9421 90.3107 91.0795 90.0147 91.5409C90.0147 91.5409 90.0147 91.5409 90.0147 91.5409C90.0146 91.5411 90.0144 91.5415 90.0141 91.5418C90.0115 91.5457 90.0049 91.5553 89.9944 91.5698C89.9732 91.599 89.9363 91.6475 89.8837 91.7089C89.7779 91.8326 89.6125 92.0039 89.3867 92.1764C88.9407 92.5171 88.2636 92.861 87.3163 92.861C87.2909 92.861 87.2655 92.862 87.2402 92.8639C87.2392 92.864 87.2381 92.8641 87.2371 92.8642L87.2377 92.8641L87.2389 92.864L87.2403 92.8639L87.2407 92.8639C87.2406 92.8639 87.2405 92.8639 87.2402 92.8639C87.2401 92.8639 87.24 92.8639 87.2399 92.8639L87.2264 92.8647C87.2119 92.8655 87.1868 92.8667 87.1525 92.8674C87.0837 92.869 86.9792 92.8693 86.8496 92.8628C86.5866 92.8496 86.2402 92.8096 85.8866 92.7084C85.1795 92.506 84.579 92.1114 84.363 91.2952C84.2218 90.7613 83.6744 90.443 83.1405 90.5843Z" fill="#6A3907"/>
<path d="M77.4568 43.5303C77.5468 42.6503 80.2068 42.1703 83.9468 42.2203C83.8168 43.4603 85.5068 44.8903 85.3668 46.2103C79.1268 46.2003 77.3768 44.4003 77.4568 43.5303Z" fill="#6A3907"/>
<path d="M67.0871 32.891C67.1271 31.891 70.5571 31.191 75.3771 31.041C76.1271 32.081 80.0071 34.101 79.9971 35.581C69.2171 35.621 67.0471 33.911 67.0871 32.891Z" fill="#6A3907"/>
<path d="M19.6172 39.7507C19.6172 40.6907 17.7472 42.0807 12.5272 41.7807C12.5372 40.4207 12.5672 39.0607 12.6072 37.7207C16.6872 38.0107 19.6172 38.8107 19.6172 39.7507Z" fill="#6A3907"/>
<path d="M29.1865 29.5601C29.1865 30.5801 26.8765 31.9601 19.8665 31.7101C19.9665 30.3001 23.4465 29.5301 23.6265 28.0801C28.7965 28.3801 29.1865 28.5601 29.1865 29.5601Z" fill="#6A3907"/>
<path d="M88.1172 52.8302C87.9972 52.4202 87.3272 52.4602 87.0272 52.2102C86.3472 51.6502 86.3372 51.4402 86.1272 50.5802C85.4572 47.8702 85.1972 45.5802 83.9072 43.0902C81.8672 39.1702 78.5372 34.5302 75.0472 31.8302C66.8772 25.5002 57.0472 23.6602 52.0472 23.8302L51.8772 21.1602L65.8772 24.3302L78.8772 33.0002L83.7072 39.1702L86.3772 45.8302C86.9572 48.1502 87.4872 50.5602 88.1172 52.8302Z" fill="#6A3907"/>
<path d="M35.3672 24.3609C35.3572 24.2209 32.6172 24.7009 29.1172 26.3609C25.4972 28.0709 22.0672 30.2609 19.1172 32.9709C17.3972 34.5509 15.8872 36.3009 14.5772 38.2409C13.6172 39.6709 12.7572 41.1909 11.9672 42.7209C11.4572 43.7009 11.0772 44.7509 10.5172 45.7109C10.2372 46.1909 9.93719 46.6709 9.52719 47.0509C9.34719 47.2109 8.34719 47.7009 8.31719 47.8609C8.78719 45.7709 10.0272 43.4509 10.9672 41.5009C11.9672 39.4209 13.1872 37.4509 14.7772 35.7609C17.5272 32.8409 19.3672 29.8109 23.0472 27.9209C25.8372 26.4909 28.4872 24.7109 31.5372 23.8409C32.6672 23.5209 34.2872 23.3509 35.2372 22.6309C35.2372 23.4809 35.3172 23.5209 35.3672 24.3609Z" fill="#6A3907"/>
</svg>
