<svg width="24" height="24" viewBox="0 0 24 24" fill="none" xmlns="http://www.w3.org/2000/svg">
<path d="M0 3.84C0 1.71923 1.71923 0 3.84 0H20.16C22.2808 0 24 1.71923 24 3.84V20.16C24 22.2808 22.2808 24 20.16 24H3.84C1.71923 24 0 22.2808 0 20.16V3.84Z" fill="#34AEE7"/>
<path fill-rule="evenodd" clip-rule="evenodd" d="M20.16 0.972973H3.84C2.25659 0.972973 0.972973 2.25659 0.972973 3.84V20.16C0.972973 21.7434 2.25659 23.027 3.84 23.027H20.16C21.7434 23.027 23.027 21.7434 23.027 20.16V3.84C23.027 2.25659 21.7434 0.972973 20.16 0.972973ZM3.84 0C1.71923 0 0 1.71923 0 3.84V20.16C0 22.2808 1.71923 24 3.84 24H20.16C22.2808 24 24 22.2808 24 20.16V3.84C24 1.71923 22.2808 0 20.16 0H3.84Z" fill="#018ECE"/>
<path fill-rule="evenodd" clip-rule="evenodd" d="M11.3067 5.95844H7.45619V7.59164H16.7615V5.95844H12.911V4.21635H11.3067V5.95844ZM8.73969 15.9731H7.13531V19.7839H17.1894V18.1507H8.73969V15.9731ZM13.2319 16.2998C13.2319 16.9612 12.7052 17.4974 12.0554 17.4974C11.4056 17.4974 10.8788 16.9612 10.8788 16.2998C10.8788 15.6383 11.4056 15.1021 12.0554 15.1021C12.7052 15.1021 13.2319 15.6383 13.2319 16.2998ZM13.4862 11.1847C13.4862 12.0493 12.7977 12.7502 11.9484 12.7502C11.0991 12.7502 10.4106 12.0493 10.4106 11.1847C10.4106 10.3201 11.0991 9.61924 11.9484 9.61924C12.7977 9.61924 13.4862 10.3201 13.4862 11.1847ZM15.0502 11.1847C15.0502 12.9285 13.6615 14.3422 11.9484 14.3422C10.2354 14.3422 8.84664 12.9285 8.84664 11.1847C8.84664 9.44084 10.2354 8.02717 11.9484 8.02717C13.6615 8.02717 15.0502 9.44084 15.0502 11.1847Z" fill="white"/>
</svg>
