<svg width="24" height="24" viewBox="0 0 24 24" fill="none" xmlns="http://www.w3.org/2000/svg">
<path d="M0 3.84C0 1.71923 1.71923 0 3.84 0H20.16C22.2808 0 24 1.71923 24 3.84V20.16C24 22.2808 22.2808 24 20.16 24H3.84C1.71923 24 0 22.2808 0 20.16V3.84Z" fill="#2161BD"/>
<path d="M20.16 0H3.84C1.71923 0 0 1.71923 0 3.84V8.64L24 8.64V3.84C24 1.71923 22.2808 0 20.16 0Z" fill="#2C7DD3"/>
<path d="M24 20.16V15.68H0V20.16C0 22.2808 1.71923 24 3.84 24H20.16C22.2808 24 24 22.2808 24 20.16Z" fill="#124092"/>
<path fill-rule="evenodd" clip-rule="evenodd" d="M20.16 0.972973H3.84C2.25658 0.972973 0.972973 2.25658 0.972973 3.84V20.16C0.972973 21.7434 2.25658 23.027 3.84 23.027H20.16C21.7434 23.027 23.027 21.7434 23.027 20.16V3.84C23.027 2.25658 21.7434 0.972973 20.16 0.972973ZM3.84 0C1.71923 0 0 1.71923 0 3.84V20.16C0 22.2808 1.71923 24 3.84 24H20.16C22.2808 24 24 22.2808 24 20.16V3.84C24 1.71923 22.2808 0 20.16 0H3.84Z" fill="#0F3D94"/>
<path d="M6.38659 5.51355H3.89178L6.62406 17.478C6.7588 18.0681 7.2836 18.4865 7.8888 18.4865H8.79154C9.3926 18.4865 9.91494 18.0737 10.0538 17.4888L11.9999 9.29049L14.0901 17.509C14.2364 18.084 14.7541 18.4865 15.3474 18.4865H15.9671C16.5668 18.4865 17.0883 18.0755 17.2285 17.4924L20.108 5.51355H17.6132L15.5862 15.8591L13.487 7.16328C13.3464 6.5808 12.8251 6.17041 12.2259 6.17041H11.6341C11.0275 6.17041 10.5019 6.59078 10.3685 7.18256L8.41361 15.8591L6.38659 5.51355Z" fill="white"/>
</svg>
