<svg width="24" height="24" viewBox="0 0 24 24" fill="none" xmlns="http://www.w3.org/2000/svg">
<path d="M16.8649 0H3.89189C1.74246 0 0 1.74246 0 3.89189V20.1081C0 22.2575 1.74246 24 3.89189 24H20.1081C22.2575 24 24 22.2575 24 20.1081V7.13513L16.8649 0Z" fill="#ED1C24"/>
<path d="M16.8649 5.21513V0L24.0001 7.13514H18.7849C17.7245 7.13514 16.8649 6.27552 16.8649 5.21513Z" fill="#F8A5A8"/>
<path d="M3.33952 19.908C2.90749 19.908 2.59464 20.2299 2.59464 20.6567C2.59464 21.0835 2.90749 21.4054 3.33952 21.4054C3.7641 21.4054 4.07695 21.0835 4.07695 20.6567C4.07695 20.2299 3.7641 19.908 3.33952 19.908Z" fill="white"/>
<path d="M4.96312 21.3455H6.31881V19.7208H7.2946C8.87375 19.7208 9.7974 18.8373 9.7974 17.4745C9.7974 16.1268 8.87375 15.2433 7.2946 15.2433H4.96312V21.3455ZM6.31881 18.5153V16.4488H7.23501C7.98734 16.4488 8.44172 16.8007 8.44172 17.4745C8.44172 18.1559 7.98734 18.5153 7.23501 18.5153H6.31881Z" fill="white"/>
<path d="M10.5279 21.3455H12.8817C14.8929 21.3455 16.1369 20.1026 16.1369 18.2982C16.1369 16.4937 14.8929 15.2433 12.8817 15.2433H10.5279V21.3455ZM11.8836 20.1401V16.4488H12.9041C14.0661 16.4488 14.7812 17.1226 14.7812 18.2982C14.7812 19.4737 14.0661 20.1401 12.9041 20.1401H11.8836Z" fill="white"/>
<path d="M16.9511 21.3455H18.3067V19.0095H21.0628V17.8265H18.3067V16.4413H21.4054V15.2433H16.9511V21.3455Z" fill="white"/>
</svg>
