<svg width="57" height="91" viewBox="0 0 57 91" fill="none" xmlns="http://www.w3.org/2000/svg">
<g opacity="0.4" clip-path="url(#clip0_55:6413)">
<path d="M8.36498 67.1953V75.6153H6.98916V68.8463L4.78785 75.6153H3.5221L1.32079 68.8463V75.6153H0V67.1953H2.09125L4.18249 73.7442L6.32877 67.1953H8.36498Z" fill="#525252"/>
<path d="M11.6119 67.8551C11.6119 68.0753 11.5018 68.2954 11.3367 68.4605C11.1716 68.6256 10.9515 68.7357 10.7314 68.7357C10.5112 68.7357 10.2911 68.6256 10.126 68.4605C9.9609 68.2954 9.85083 68.0753 9.85083 67.8551C9.85083 67.635 9.9609 67.4149 10.126 67.2498C10.2911 67.0847 10.5112 66.9746 10.7314 66.9746C10.9515 66.9746 11.1716 67.0847 11.3367 67.2498C11.5568 67.4149 11.6119 67.635 11.6119 67.8551ZM10.071 75.6148V69.5612H11.4468V75.6148H10.071Z" fill="#525252"/>
<path d="M14.4735 72.588V75.6148H13.0977V69.5612H14.4184V70.3867C14.5835 70.1116 14.8037 69.8914 15.1339 69.7263C15.4641 69.5612 15.7943 69.4512 16.1245 69.4512C16.8399 69.4512 17.3902 69.6713 17.8305 70.1666C18.2707 70.6619 18.4909 71.3223 18.4909 72.0927V75.6148H17.1151V72.478C17.1151 71.8176 17.005 71.3773 16.7849 71.0471C16.5647 70.7169 16.2345 70.6069 15.7943 70.6069C15.5741 70.6069 15.354 70.6619 15.1339 70.827C14.9137 70.9921 14.7486 71.1572 14.6386 71.4324C14.5285 71.7075 14.4735 72.0927 14.4735 72.588Z" fill="#525252"/>
<path d="M21.6829 67.8551C21.6829 68.0753 21.5729 68.2954 21.4078 68.4605C21.2427 68.6256 21.0225 68.7357 20.8024 68.7357C20.5823 68.7357 20.3621 68.6256 20.197 68.4605C20.0319 68.2954 19.9219 68.0753 19.9219 67.8551C19.9219 67.635 20.0319 67.4149 20.197 67.2498C20.3621 67.0847 20.5823 66.9746 20.8024 66.9746C21.0225 66.9746 21.2427 67.0847 21.4078 67.2498C21.5729 67.4149 21.6829 67.635 21.6829 67.8551ZM20.087 75.6148V69.5612H21.4628V75.6148H20.087Z" fill="#525252"/>
<path d="M22.6184 74.5138L23.4989 73.6333C23.7191 73.9635 23.9942 74.2387 24.2694 74.4038C24.5446 74.5689 24.8748 74.6789 25.1499 74.6789C25.4801 74.6789 25.7002 74.6239 25.9204 74.5138C26.1405 74.4038 26.2506 74.2387 26.2506 74.0185C26.2506 73.7984 26.1405 73.6333 25.9204 73.5233C25.7002 73.4132 25.4801 73.3031 25.2049 73.1931C24.8748 73.083 24.5446 72.9729 24.2144 72.8629C23.7741 72.6978 23.3889 72.4776 23.1687 72.2025C22.9486 71.9273 22.8385 71.6521 22.8385 71.3219C22.8385 70.8266 23.0587 70.3864 23.554 70.0562C23.9942 69.726 24.5446 69.5059 25.2049 69.5059C25.8653 69.5059 26.4157 69.671 26.8559 70.0012C27.0761 70.1662 27.2412 70.3864 27.3512 70.6065L26.5257 71.432C26.4157 71.2119 26.3056 71.1018 26.1405 70.9367C25.8653 70.7166 25.5351 70.6065 25.1499 70.6065C24.9298 70.6065 24.7097 70.6615 24.5446 70.7716C24.3795 70.8817 24.2694 71.0468 24.2694 71.2119C24.2694 71.377 24.3795 71.5421 24.5446 71.6521C24.7097 71.7622 25.0399 71.8723 25.4251 71.9823C25.5351 72.0374 25.7002 72.0924 25.9204 72.1474C26.5257 72.3676 26.966 72.5877 27.2412 72.9179C27.5163 73.2481 27.6814 73.5783 27.6814 74.0185C27.6814 74.5138 27.4613 74.9541 26.966 75.3393C26.4707 75.7246 25.8653 75.8897 25.0949 75.8897C24.4895 75.8897 23.9392 75.7246 23.4439 75.4494C23.1137 75.1192 22.8385 74.844 22.6184 74.5138Z" fill="#525252"/>
<path d="M30.4881 67.6348V69.5609H31.8089V70.6616H30.4881V73.7434C30.4881 74.0186 30.5431 74.2387 30.7082 74.3488C30.8733 74.4588 31.0384 74.5139 31.3136 74.5139H31.8089V75.6145H30.9834C30.323 75.6145 29.8827 75.4494 29.5525 75.1743C29.2774 74.8991 29.1123 74.4588 29.1123 73.9085V70.7166H28.0667V69.6159H29.1123V67.6898H30.4881V67.6348Z" fill="#525252"/>
<path d="M32.9646 75.6148V69.5612H34.2304V70.4418C34.4505 70.1666 34.6706 69.8914 34.9458 69.7814C35.276 69.5612 35.7162 69.4512 36.1565 69.4512H36.3216V70.6619H36.1565C35.6062 70.6619 35.1109 70.827 34.7807 71.1572C34.4505 71.4874 34.2854 72.0377 34.2854 72.7531V75.5598H32.9646V75.6148Z" fill="#525252"/>
<path d="M39.1833 75.394L36.8169 69.5605H38.2477L39.8987 73.688L41.5497 69.5605H42.9255L39.5685 77.9255H38.1927L39.1833 75.394Z" fill="#525252"/>
<path d="M49.5845 75.7803C48.704 75.7803 47.9335 75.4501 47.3281 74.8447C46.7228 74.2394 46.3926 73.4689 46.3926 72.5884C46.3926 71.7079 46.7228 70.9374 47.3281 70.332C47.9335 69.7267 48.704 69.3965 49.5845 69.3965C50.465 69.3965 51.2355 69.7267 51.8408 70.332C52.4462 70.9374 52.7764 71.7079 52.7764 72.5884C52.7764 73.4689 52.4462 74.2394 51.8408 74.8447C51.2355 75.4501 50.52 75.7803 49.5845 75.7803ZM49.5845 74.6246C50.0798 74.6246 50.52 74.4595 50.8502 74.0743C51.1804 73.689 51.4006 73.1937 51.4006 72.6434C51.4006 72.0381 51.2355 71.5978 50.8502 71.2126C50.465 70.8273 50.0798 70.6072 49.5845 70.6072C49.0892 70.6072 48.6489 70.8273 48.3187 71.2126C47.9335 71.5978 47.7684 72.0931 47.7684 72.6434C47.7684 73.2488 47.9335 73.689 48.3187 74.0743C48.704 74.4595 49.0892 74.6246 49.5845 74.6246Z" fill="#525252"/>
<path d="M54.2622 68.956C54.2622 68.4057 54.4273 67.9654 54.7575 67.6903C55.0877 67.4151 55.583 67.25 56.1883 67.25H56.8487V68.3507H56.4635C56.1883 68.3507 56.0232 68.4057 55.8581 68.5158C55.693 68.6258 55.638 68.846 55.638 69.1211V69.6164H56.8487V70.7171H55.638V75.67H54.2622V70.7171H53.2166V69.6164H54.2622V68.956Z" fill="#525252"/>
<path d="M6.43882 90.4181H0.935547V81.998H6.43882V83.1537H2.3664V85.5752H6.38379V86.7309H2.3664V89.2073H6.49386V90.4181H6.43882Z" fill="#525252"/>
<path d="M10.4011 84.1994C11.1165 84.1994 11.7219 84.4745 12.2722 85.0799V81.998H13.648V90.4181H12.3273V89.6476C11.832 90.253 11.1716 90.5281 10.4561 90.5281C9.57562 90.5281 8.86019 90.1979 8.30987 89.5926C7.75954 88.9872 7.48438 88.2168 7.48438 87.3913C7.48438 86.5658 7.75954 85.7953 8.30987 85.1899C8.80516 84.5296 9.52059 84.1994 10.4011 84.1994ZM12.2172 87.7765C12.2172 87.5013 12.2172 87.2812 12.2172 87.006C12.1622 86.5658 11.9971 86.1805 11.7219 85.8503C11.3917 85.5201 11.0065 85.355 10.5112 85.355C9.96085 85.355 9.57562 85.5752 9.24542 85.9604C8.91523 86.3456 8.80516 86.8409 8.80516 87.3913C8.80516 87.9966 8.97026 88.4369 9.24542 88.8221C9.57562 89.2073 9.96085 89.3724 10.5112 89.3724C11.0065 89.3724 11.3917 89.2073 11.7219 88.8771C11.9971 88.602 12.1622 88.2168 12.2172 87.7765Z" fill="#525252"/>
<path d="M19.2064 87.392V84.3652H20.5822V90.4188H19.2614V89.6484C19.0963 89.9235 18.8762 90.1437 18.601 90.3088C18.2708 90.4739 17.9406 90.5839 17.5554 90.5839C16.8399 90.5839 16.2896 90.3638 15.8494 89.8685C15.4091 89.3732 15.189 88.7128 15.189 87.9424V84.4203H16.5648V87.6122C16.5648 88.2726 16.6749 88.7128 16.895 89.043C17.1151 89.3732 17.4453 89.4833 17.8856 89.4833C18.1057 89.4833 18.3258 89.4282 18.546 89.2631C18.7661 89.0981 18.9312 88.933 19.0413 88.6578C19.0963 88.3276 19.2064 87.8873 19.2064 87.392Z" fill="#525252"/>
<path d="M21.738 87.3911C21.738 86.5106 22.0682 85.7952 22.7286 85.1348C23.389 84.5294 24.2145 84.1992 25.2051 84.1992C25.9756 84.1992 26.746 84.4744 27.4064 84.9697L26.9662 86.0153C26.3608 85.575 25.7554 85.2999 25.2051 85.2999C24.5997 85.2999 24.1044 85.52 23.7192 85.9052C23.334 86.2905 23.1139 86.7858 23.1139 87.3361C23.1139 87.8864 23.279 88.3817 23.7192 88.7669C24.1044 89.1522 24.5997 89.3723 25.2051 89.3723C25.8105 89.3723 26.4158 89.1522 27.0212 88.7119L27.4614 89.8126C26.8011 90.3079 26.0306 90.583 25.2051 90.583C24.2145 90.583 23.389 90.2528 22.7286 89.6475C22.0682 88.9871 21.738 88.2716 21.738 87.3911Z" fill="#525252"/>
<path d="M31.2586 86.5106C31.6989 86.5106 32.1942 86.5106 32.6894 86.5106C32.6894 86.1254 32.5243 85.7952 32.2492 85.6301C31.919 85.4099 31.4787 85.3549 30.9284 85.3549H30.8734C30.323 85.3549 29.7727 85.465 29.1123 85.7401L28.7821 84.6395C29.4425 84.3643 30.1029 84.1992 30.8734 84.1992C31.864 84.1992 32.6894 84.4194 33.1847 84.8046C33.7351 85.1898 34.0102 85.7952 34.0102 86.6757V90.4179H32.6894V89.7575C32.4143 90.0327 32.1391 90.1978 31.7539 90.3629C31.3687 90.528 30.9834 90.583 30.5982 90.583C29.8828 90.583 29.2774 90.4179 28.8372 90.0327C28.3969 89.6475 28.1768 89.2072 28.1768 88.6018C28.1768 87.9965 28.4519 87.4462 29.0022 87.0609C29.6076 86.6757 30.323 86.5106 31.2586 86.5106ZM30.8734 89.4824C31.2036 89.4824 31.5888 89.3723 31.919 89.2072C32.2492 89.0421 32.5243 88.822 32.6894 88.6018V87.5562C32.2492 87.5562 31.8089 87.5562 31.4787 87.5562C30.7633 87.5562 30.323 87.6663 30.0479 87.8314C29.7727 88.0515 29.6626 88.2716 29.6626 88.5468C29.6626 88.822 29.7727 89.0421 29.9928 89.2072C30.213 89.3723 30.4881 89.4824 30.8734 89.4824Z" fill="#525252"/>
<path d="M37.4222 82.4395V84.3656H38.743V85.4663H37.4222V88.5481C37.4222 88.8233 37.4772 89.0434 37.6423 89.1535C37.8074 89.2635 37.9725 89.3186 38.2477 89.3186H38.743V90.4192H37.9175C37.2571 90.4192 36.8168 90.2541 36.4866 89.9789C36.2115 89.7038 36.0464 89.2635 36.0464 88.7132V85.5213H35.0007V84.4206H36.0464V82.4945H37.4222V82.4395Z" fill="#525252"/>
<path d="M41.4398 82.6598C41.4398 82.8799 41.3297 83.1001 41.1646 83.2652C40.9995 83.4303 40.7794 83.5403 40.5592 83.5403C40.3391 83.5403 40.119 83.4303 39.9539 83.2652C39.7888 83.1001 39.6787 82.8799 39.6787 82.6598C39.6787 82.4397 39.7888 82.2196 39.9539 82.0545C40.119 81.8894 40.3391 81.7793 40.5592 81.7793C40.7794 81.7793 40.9995 81.8894 41.1646 82.0545C41.3847 82.2196 41.4398 82.4397 41.4398 82.6598ZM39.8988 90.4194V84.3658H41.2747V90.4194H39.8988Z" fill="#525252"/>
<path d="M45.7322 90.5283C44.8517 90.5283 44.0812 90.1981 43.4758 89.5928C42.8705 88.9874 42.5403 88.217 42.5403 87.3364C42.5403 86.4559 42.8705 85.6855 43.4758 85.0801C44.0812 84.4747 44.8517 84.1445 45.7322 84.1445C46.6127 84.1445 47.3832 84.4747 47.9885 85.0801C48.5939 85.6855 48.9241 86.4559 48.9241 87.3364C48.9241 88.217 48.5939 88.9874 47.9885 89.5928C47.3832 90.2532 46.6127 90.5283 45.7322 90.5283ZM45.7322 89.4277C46.2275 89.4277 46.6677 89.2626 46.9979 88.8774C47.3281 88.4921 47.5483 87.9968 47.5483 87.4465C47.5483 86.8411 47.3832 86.4009 46.9979 86.0157C46.6127 85.6304 46.2275 85.4103 45.7322 85.4103C45.2369 85.4103 44.7966 85.6304 44.4664 86.0157C44.0812 86.4009 43.9161 86.8962 43.9161 87.4465C43.9161 88.0519 44.0812 88.4921 44.4664 88.8774C44.7966 89.2076 45.2369 89.4277 45.7322 89.4277Z" fill="#525252"/>
<path d="M51.4557 87.3908V90.4176H50.0798V84.364H51.4006V85.1895C51.5657 84.9143 51.7858 84.6942 52.116 84.5291C52.4462 84.364 52.7764 84.2539 53.1066 84.2539C53.8221 84.2539 54.3724 84.474 54.8127 84.9693C55.2529 85.4646 55.473 86.125 55.473 86.8955V90.4176H54.0972V87.2807C54.0972 86.6203 53.9872 86.1801 53.767 85.8499C53.5469 85.5197 53.2167 85.4096 52.7764 85.4096C52.5563 85.4096 52.3362 85.4646 52.116 85.6297C51.8959 85.7948 51.7308 85.9599 51.6208 86.2351C51.5107 86.5102 51.4557 86.8955 51.4557 87.3908Z" fill="#525252"/>
<path d="M42.4302 26.0305C37.6973 22.7836 31.6437 24.1044 28.4518 28.9472C25.8103 33.0197 21.7929 33.515 20.1969 33.515C15.1339 33.515 11.6668 29.9378 10.6212 26.2506C10.6212 26.1956 10.6212 26.1956 10.6212 26.1406C10.6212 26.0855 10.6212 26.0305 10.5662 26.0305C10.1809 24.4896 10.0709 23.7742 10.0709 22.1232C10.0709 13.3179 19.1513 3.46707 32.1941 3.46707C45.567 3.46707 53.2166 13.6481 55.1427 19.2615C55.0877 19.1514 55.0877 19.0413 55.0327 18.9863C51.2354 7.92472 40.7792 0 28.4518 0C12.8776 0 0.330078 12.6025 0.330078 28.1218C0.330078 41.99 10.346 53.8771 24.2143 53.8771C35.2759 53.8771 42.7604 47.6584 46.1724 39.1283C48.0435 34.4505 46.7227 28.9472 42.4302 26.0305Z" fill="#525252"/>
<path d="M55.3078 19.8662C53.6569 14.3629 45.9523 3.52148 32.139 3.52148C19.0963 3.52148 10.0159 13.3724 10.0159 22.1776C10.0159 23.8286 10.1259 24.544 10.5112 26.0849C10.3461 25.4245 10.236 24.7641 10.236 24.1037C10.236 14.9133 19.4265 8.52947 28.8921 8.52947C41.7147 8.52947 52.0609 18.9307 52.0609 31.6983C52.0609 41.7142 46.2825 50.4094 37.8625 54.5919C48.7039 50.6846 56.4085 40.2834 56.4085 28.1211C56.5736 25.2594 56.1884 22.7279 55.3078 19.8662Z" fill="#525252"/>
</g>
<defs>
<clipPath id="clip0_55:6413">
<rect width="56.8489" height="90.5289" fill="white"/>
</clipPath>
</defs>
</svg>
