<svg width="16" height="16" viewBox="0 0 16 16" fill="none" xmlns="http://www.w3.org/2000/svg">
<rect width="16" height="16" rx="3" fill="url(#paint0_linear)"/>
<g filter="url(#filter0_i)">
<path d="M12.3425 9.32056C12.0832 9.04827 11.5516 8.89268 10.7995 8.89268C10.3976 8.89268 9.93082 8.93158 9.42515 9.02234C9.13989 8.75005 8.85464 8.4259 8.58236 8.04989C8.38787 7.79057 8.21931 7.50532 8.06371 7.23303C8.36193 6.32541 8.50456 5.58635 8.50456 5.05474C8.50456 4.45831 8.28414 3.83594 7.6488 3.83594C7.45431 3.83594 7.25982 3.95263 7.15609 4.12119C6.87084 4.62686 7.0005 5.72897 7.49321 6.81812C7.31169 7.36269 7.1172 7.88133 6.87084 8.4648C6.66339 8.95751 6.43 9.46319 6.17068 9.92996C4.74442 10.5005 3.82383 11.1617 3.7201 11.6804C3.6812 11.8749 3.74603 12.0564 3.88866 12.199C3.94052 12.2379 4.12205 12.3935 4.43323 12.3935C5.37975 12.3935 6.37813 10.8635 6.88381 9.94293C7.27279 9.81327 7.66177 9.68361 8.05075 9.57988C8.47863 9.46319 8.90651 9.37242 9.29549 9.30759C10.2939 10.2022 11.1756 10.3449 11.6164 10.3449C12.161 10.3449 12.3555 10.1245 12.4203 9.94293C12.537 9.70954 12.4592 9.45022 12.3425 9.32056ZM11.8239 9.69657C11.785 9.89106 11.5905 10.0207 11.3182 10.0207C11.2404 10.0207 11.1756 10.0078 11.0978 9.99479C10.6051 9.8781 10.1383 9.63174 9.6715 9.24276C10.1253 9.16497 10.5143 9.152 10.7606 9.152C11.0329 9.152 11.2663 9.16497 11.4219 9.20387C11.6034 9.24276 11.8887 9.35946 11.8239 9.69657ZM9.07506 9.08717C8.73795 9.152 8.3749 9.2298 7.99889 9.33353C7.70067 9.41132 7.38948 9.50208 7.0783 9.60581C7.24686 9.28166 7.38948 8.97048 7.51914 8.67226C7.67473 8.30921 7.80439 7.9332 7.93405 7.58311C8.06371 7.80354 8.20634 8.02396 8.34897 8.21845C8.59532 8.52963 8.84168 8.82785 9.07506 9.08717ZM7.37652 4.26382C7.42838 4.16009 7.53211 4.10822 7.62287 4.10822C7.89516 4.10822 7.94702 4.41941 7.94702 4.66576C7.94702 5.08067 7.81736 5.71601 7.59694 6.44211C7.22092 5.43076 7.19499 4.58797 7.37652 4.26382ZM5.95026 10.306C5.28899 11.3951 4.65365 12.0694 4.26467 12.0694C4.18688 12.0694 4.12205 12.0434 4.07018 12.0045C3.99239 11.9267 3.95349 11.836 3.97942 11.7322C4.05722 11.3433 4.80925 10.7987 5.95026 10.306Z" fill="white"/>
</g>
<defs>
<filter id="filter0_i" x="3.70898" y="3.83594" width="15.769" height="12.5576" filterUnits="userSpaceOnUse" color-interpolation-filters="sRGB">
<feFlood flood-opacity="0" result="BackgroundImageFix"/>
<feBlend mode="normal" in="SourceGraphic" in2="BackgroundImageFix" result="shape"/>
<feColorMatrix in="SourceAlpha" type="matrix" values="0 0 0 0 0 0 0 0 0 0 0 0 0 0 0 0 0 0 127 0" result="hardAlpha"/>
<feOffset dx="7" dy="4"/>
<feGaussianBlur stdDeviation="4.5"/>
<feComposite in2="hardAlpha" operator="arithmetic" k2="-1" k3="1"/>
<feColorMatrix type="matrix" values="0 0 0 0 1 0 0 0 0 1 0 0 0 0 1 0 0 0 0.15 0"/>
<feBlend mode="normal" in2="shape" result="effect1_innerShadow"/>
</filter>
<linearGradient id="paint0_linear" x1="0" y1="0" x2="16" y2="16" gradientUnits="userSpaceOnUse">
<stop stop-color="#FF6D73"/>
<stop offset="0.239209" stop-color="#F2555A"/>
<stop offset="0.330492" stop-color="#EF464C"/>
<stop offset="0.731" stop-color="#9C191D"/>
<stop offset="1" stop-color="#5C1617"/>
</linearGradient>
</defs>
</svg>
