<svg width="46" height="46" viewBox="0 0 46 46" fill="none" xmlns="http://www.w3.org/2000/svg">
<path d="M38.3455 22.3455C37.9818 22.3455 37.6909 22.6364 37.6909 23V30.4182C37.6909 31 37.1818 31.5091 36.6 31.5091H29.1091C28.9636 31.5091 28.8182 31.3636 28.7455 31.2182C28.5273 28.0909 27.1455 27.4364 26.0545 27.4364C24.1636 27.4364 23.2909 26.7818 22.5636 25.6909C22.4182 25.4727 22.2 25.4 21.9818 25.4C21.8364 25.4 21.6909 25.4727 21.6182 25.5455C21.4727 25.6182 21.4 25.8364 21.3273 25.9818C21.3273 26.1273 21.3273 26.3455 21.4727 26.4909C22.6364 28.1636 23.9455 28.8182 26.1273 28.8182C26.6364 28.8182 27.2182 29.2545 27.4364 31.1455C27.4364 31.2182 27.4364 31.3636 27.3636 31.4364C27.2909 31.5091 27.2182 31.5818 27.1455 31.5818H10.7818C10.7091 31.5818 10.5636 31.5091 10.5636 31.4364C10.4909 31.3636 10.4909 31.2909 10.4909 31.1455C10.6364 29.1818 11.2909 28.8182 11.8 28.8182C13.9818 28.8182 15.2909 28.1636 16.4545 26.4909C16.5273 26.3455 16.6 26.1273 16.6 25.9818C16.6 25.8364 16.4545 25.6182 16.3091 25.5455C16.1636 25.4727 16.0909 25.4 15.9455 25.4C15.7273 25.4 15.5091 25.5455 15.3636 25.6909C14.5636 26.7818 13.7636 27.4364 11.8727 27.4364C10.8545 27.4364 9.54545 28.0182 9.25455 30.7818C9.25455 30.9273 9.10909 31.0727 8.96364 31.0727H8.89091C8.74545 31.0727 8.67273 31 8.6 30.8545C8.52727 30.7091 8.45455 30.5636 8.45455 30.4182V9.47273C8.45455 8.89091 8.96364 8.38182 9.54545 8.38182H19C19.3636 8.38182 19.6545 8.09091 19.6545 7.72727C19.6545 7.36364 19.2909 7 18.9273 7H9.47273C8.09091 7 7 8.09091 7 9.47273V30.4182C7 31.8 8.09091 32.8909 9.47273 32.8909H17.9091C18.1273 32.8909 18.2727 33.0364 18.2727 33.2545C18.2727 36.1636 17.2545 37.2545 16.8182 37.6182C16.7455 37.6909 16.6727 37.6909 16.6 37.6909H13.8364C13.4727 37.6909 13.1818 37.9818 13.1818 38.3455C13.1818 38.7091 13.4727 39 13.8364 39H32.2364C32.6 39 32.8909 38.7091 32.8909 38.3455C32.8909 37.9818 32.6 37.6909 32.2364 37.6909H29.4727C29.4 37.6909 29.3273 37.6909 29.2545 37.6182C28.8182 37.2545 27.8 36.1636 27.8 33.2545C27.8 33.0364 27.9455 32.8909 28.1636 32.8909H36.6C37.9818 32.8909 39.0727 31.8 39.0727 30.4182V23C39 22.6364 38.7091 22.3455 38.3455 22.3455ZM27.1455 37.4727C27.0727 37.5455 27 37.6182 26.8545 37.6182H19.1455C19 37.6182 18.9273 37.5455 18.8545 37.4727C18.7818 37.4 18.7818 37.2545 18.8545 37.1818C19.3636 36.1636 19.6545 34.8545 19.6545 33.2545C19.6545 33.0364 19.8 32.8909 20.0182 32.8909H26.1273C26.3455 32.8909 26.4909 33.0364 26.4909 33.2545C26.4909 34.8545 26.7818 36.1636 27.2909 37.1818C27.2182 37.2545 27.2182 37.4 27.1455 37.4727Z" fill="#2E62C5"/>
<path d="M26.0549 12.4536H34.2004C34.564 12.4536 34.8549 12.1627 34.8549 11.7991C34.8549 11.4354 34.564 11.1445 34.2004 11.1445H26.0549C25.6913 11.1445 25.4004 11.4354 25.4004 11.7991C25.4004 12.1627 25.6913 12.4536 26.0549 12.4536Z" fill="#2E62C5"/>
<path d="M26.0549 16.5278H34.2004C34.564 16.5278 34.8549 16.2369 34.8549 15.8733C34.8549 15.5097 34.564 15.2188 34.2004 15.2188H26.0549C25.6913 15.2188 25.4004 15.5097 25.4004 15.8733C25.4004 16.2369 25.6913 16.5278 26.0549 16.5278Z" fill="#2E62C5"/>
<path d="M37.3262 7H22.9989C22.0534 7 21.3262 7.8 21.3262 8.67273V12.8182C21.3262 13.1818 21.6171 13.4727 21.9807 13.4727C22.3444 13.4727 22.6353 13.1818 22.6353 12.8182V8.67273C22.6353 8.45455 22.7807 8.30909 22.9989 8.30909H37.3262C37.5444 8.30909 37.6898 8.45455 37.6898 8.67273V18.5636C37.6898 18.9273 37.3989 19.2182 37.0353 19.2182H32.2353C32.0898 19.2182 31.9444 19.2909 31.7989 19.3636L28.3807 22.1273C28.308 22.2 28.2353 22.2 28.1625 22.2C28.0898 22.2 28.0898 22.2 28.0171 22.2C27.8716 22.1273 27.7989 22.0545 27.7989 21.9091V19.9455C27.7989 19.5818 27.508 19.2909 27.1444 19.2909H25.108C24.7444 19.2909 24.4534 19.5818 24.4534 19.9455C24.4534 20.3091 24.7444 20.6 25.108 20.6H26.1262C26.3444 20.6 26.4898 20.7455 26.4898 20.9636V24.0182C26.4898 24.3091 26.6353 24.5273 26.8534 24.6C26.9262 24.6727 27.0716 24.6727 27.1444 24.6727C27.2898 24.6727 27.4353 24.6 27.5807 24.5273L32.3807 20.6727C32.4534 20.6 32.5262 20.6 32.5989 20.6H37.0353C38.1262 20.6 39.0716 19.7273 39.0716 18.5636V8.67273C38.9989 7.8 38.1989 7 37.3262 7Z" fill="#2E62C5"/>
<path d="M15.1445 18.7835C15.1445 22.1289 16.8173 24.7471 18.9263 24.7471C21.0354 24.7471 22.7082 22.1289 22.7082 18.7835C22.7082 14.638 20.09 14.1289 18.9263 14.1289C17.7627 14.1289 15.1445 14.5653 15.1445 18.7835ZM21.3264 18.7835C21.3264 21.1835 20.2354 23.3653 18.9263 23.3653C17.69 23.3653 16.5263 21.2562 16.5263 18.7835C16.5263 15.5107 18.3445 15.5107 18.9263 15.5107C19.5082 15.5107 21.3264 15.5107 21.3264 18.7835Z" fill="#2E62C5"/>
</svg>
