<svg width="16" height="16" viewBox="0 0 16 16" fill="none" xmlns="http://www.w3.org/2000/svg">
<path d="M14.6087 7.20455C14.1913 7.20455 13.913 7.47727 13.913 7.88636V8.5C13.913 11.9091 11.1304 14.6364 7.65217 14.6364C4.17391 14.6364 1.3913 11.9091 1.3913 8.5C1.3913 5.09091 4.17391 2.36364 7.65217 2.36364C8.55652 2.36364 9.3913 2.56818 10.2261 2.90909C10.5739 3.04545 10.9913 2.90909 11.1304 2.56818C11.2696 2.22727 11.1304 1.81818 10.7826 1.68182C9.8087 1.27273 8.76522 1 7.65217 1C3.4087 1 0 4.34091 0 8.5C0 12.6591 3.4087 16 7.65217 16C11.8957 16 15.3043 12.6591 15.3043 8.5V7.88636C15.3043 7.47727 15.0261 7.20455 14.6087 7.20455Z" fill="black"/>
<path d="M15.7909 1.88619C15.5126 1.61346 15.0952 1.61346 14.817 1.88619L7.65175 8.90891L6.05175 7.34073C5.77349 7.068 5.3561 7.068 5.07784 7.34073C4.79958 7.61346 4.79958 8.02255 5.07784 8.29528L7.16479 10.3407C7.30392 10.4771 7.51262 10.5453 7.65175 10.5453C7.79088 10.5453 7.99958 10.4771 8.13871 10.3407L15.7909 2.84073C16.0691 2.568 16.0691 2.15891 15.7909 1.88619Z" fill="black"/>
</svg>
