<svg width="14" height="14" viewBox="0 0 14 14" fill="none" xmlns="http://www.w3.org/2000/svg">
<g opacity="0.8">
<path d="M6.75 12.5C9.78757 12.5 12.25 10.0376 12.25 7C12.25 3.96243 9.78757 1.5 6.75 1.5C3.71243 1.5 1.25 3.96243 1.25 7C1.25 10.0376 3.71243 12.5 6.75 12.5Z" stroke="#2E63C5" stroke-linecap="round" stroke-linejoin="round"/>
<path d="M2 5H11.8" stroke="#2E63C5" stroke-linecap="round" stroke-linejoin="round"/>
<path d="M2 8.5H11.8" stroke="#2E63C5" stroke-linecap="round" stroke-linejoin="round"/>
<path d="M6.60845 1.5C5.62573 3.07477 5.10474 4.89375 5.10474 6.75C5.10474 8.60625 5.62573 10.4252 6.60845 12" stroke="#2E63C5" stroke-linecap="round" stroke-linejoin="round"/>
<path d="M6.90015 1.75C7.88287 3.32477 8.40386 5.14375 8.40386 7C8.40386 8.85625 7.88287 10.6752 6.90015 12.25" stroke="#2E63C5" stroke-linecap="round" stroke-linejoin="round"/>
</g>
</svg>
