<?xml version="1.0" encoding="utf-8"?>
<!-- Generator: Adobe Illustrator 25.0.1, SVG Export Plug-In . SVG Version: 6.00 Build 0)  -->
<svg version="1.1" id="Layer_1" xmlns="http://www.w3.org/2000/svg" xmlns:xlink="http://www.w3.org/1999/xlink" x="0px" y="0px"
	 viewBox="0 0 14 17" style="enable-background:new 0 0 14 17;" xml:space="preserve">
<g>
	<g>
		<path d="M4,16.4H2c-1,0-1.8-0.8-1.8-1.8V2.4c0-1,0.8-1.8,1.8-1.8h2c1,0,1.8,0.8,1.8,1.8v12.2C5.7,15.6,4.9,16.4,4,16.4z M1.9,2.2
			c-0.1,0-0.3,0.1-0.3,0.3v12.2c0,0.1,0.1,0.3,0.3,0.3h2c0.1,0,0.3-0.1,0.3-0.3V2.4c0-0.1-0.1-0.3-0.3-0.3L1.9,2.2L1.9,2.2z"/>
	</g>
	<g>
		<path d="M12.1,16.4h-2c-1,0-1.8-0.8-1.8-1.8V2.4c0-1,0.8-1.8,1.8-1.8h2c1,0,1.8,0.8,1.8,1.8v12.2C13.8,15.6,13,16.4,12.1,16.4z
			 M10,2.2c-0.1,0-0.3,0.1-0.3,0.3v12.2c0,0.1,0.1,0.3,0.3,0.3h2c0.1,0,0.3-0.1,0.3-0.3V2.4c0-0.1-0.1-0.3-0.3-0.3L10,2.2L10,2.2z"
			/>
	</g>
</g>
</svg>
