<svg width="205" height="98" viewBox="0 0 205 98" fill="none" xmlns="http://www.w3.org/2000/svg">
<g clip-path="url(#clip0_98_6162)">
<path opacity="0.3" d="M38.88 97.41C17.4072 97.41 1.52588e-05 94.7192 1.52588e-05 91.4C1.52588e-05 88.0808 17.4072 85.39 38.88 85.39C60.3528 85.39 77.76 88.0808 77.76 91.4C77.76 94.7192 60.3528 97.41 38.88 97.41Z" fill="black"/>
<path opacity="0.3" d="M169.19 97.41C152.047 97.41 138.15 94.7192 138.15 91.4C138.15 88.0808 152.047 85.39 169.19 85.39C186.333 85.39 200.23 88.0808 200.23 91.4C200.23 94.7192 186.333 97.41 169.19 97.41Z" fill="black"/>
<path d="M57.51 19.79C57.51 19.79 59.3 27.23 61 30.04C62.36 32.28 64.36 34.63 66.5 35.92C68.97 37.4 78.61 40.41 82.08 40.09C83.82 40.05 85.64 40.53 85.78 42.28C85.92 44.04 82.52 43.78 77.62 43.35C71.15 42.79 63.87 41.64 63 41.39C60.82 40.77 53 34.42 51.12 27.55L57.5 19.8L57.51 19.79Z" fill="#DC9490"/>
<path d="M57.5099 17.17C59.1599 18.8 65.1899 32.66 65.1899 32.66L54.9299 39.18C54.9299 39.18 49.9799 31.31 48.9699 28.68" fill="#DCC337"/>
<path d="M188.66 63.0199C195.12 60.8899 194.65 50.9099 190.05 47.2899C193.44 47.0799 195.43 49.7699 197.3 52.1499C197.32 46.3199 197.99 40.3599 192.25 36.6899C212.49 38.4999 204.39 70.4099 188.66 63.0199V63.0199Z" fill="#D8C68F"/>
<path d="M181.46 74.34C184.39 76.47 187.03 77.68 190.47 78.45C191.48 78.67 192.51 78.86 193.51 79.33C193.97 79.55 194.66 79.83 195.02 80.21C195.46 80.68 195.24 80.7 195.52 81.27C195.94 82.14 196.22 82.89 197.4 82.35C199.01 81.61 200.32 77.98 199.3 76.46C197.93 74.43 194.96 75.57 193.2 74.19C191.23 72.64 192.67 69.83 192.46 67.74C192.17 64.8 190.39 62.86 187.88 61.54C182.41 58.65 175.67 57.81 169.61 57.37C167.05 57.18 164.58 56.6 162.14 55.84C159.73 55.09 157.99 53.44 155.83 52.34C154.33 53.01 152.36 53.61 151.24 54.62C149.13 56.53 147.42 58.31 144.86 59.74C141.47 61.63 139.39 64.8 139.2 68.84C139.14 70.05 139.33 72.05 140.59 72.59C141.61 73.03 142.43 72.45 142.83 71.56C143.29 70.55 143.01 68.62 144.08 67.89C144.56 67.57 145.38 67.7 145.93 67.68C146.35 67.66 146.85 67.62 147.29 67.59C147.93 67.55 148.51 67.49 149.15 67.49C151.69 67.49 153.07 67.21 155.45 65.96" fill="#D8C68F"/>
<path d="M184.96 71.46C185.67 74.82 190.64 75.81 191.59 79.27C192.32 81.95 186.9 88.33 185.58 84.21C185.46 83.84 185.82 83.39 185.69 83.11C185.48 82.68 184.7 82.41 184.32 82.21C183.16 81.61 182.13 81.43 180.92 81.07C179.75 80.72 178.61 79.93 177.72 79.09C176.38 77.82 175.81 75.96 174.59 74.71C173.58 73.68 171.29 73.66 169.86 73.22C167.14 72.39 164.39 71.05 161.97 69.58C160.35 68.6 159.92 68.06 158.11 69.16C156.85 69.93 154.49 72.01 154.22 73.56C153.88 75.49 156.06 76.76 154.15 78.58C153.28 79.41 152.21 79.5 151.31 78.72C150.12 77.67 149.02 75.84 148.32 74.37C146.44 70.44 149.27 67.98 152.72 65.59" fill="#D8C68F"/>
<path d="M155.36 45.86C152.1 44.94 150.85 45.7 148.1 47.21C146.98 47.82 141.53 49.29 141.19 50.09C139.19 54.88 152.91 55.58 155.14 54.97C158.64 54 160.35 49.18 155.37 45.86H155.36Z" fill="#D8C68F"/>
<path d="M153.88 47.42C157.19 47.75 159.04 50.33 161.99 51.44C164.2 52.27 168.66 51.15 168.81 54.35C168.94 57.11 165.09 58.77 163.05 58.94C157.07 59.42 156.48 53.28 153.88 47.42Z" fill="#AC865A"/>
<path d="M149.52 48.75C149.55 48.41 149.29 48.12 148.96 48.09C148.62 48.06 148.32 48.32 148.3 48.65C148.27 48.99 148.52 49.29 148.86 49.31C149.2 49.34 149.49 49.08 149.52 48.75Z" fill="#AC865A"/>
<path d="M141.02 51.44C140.89 51.14 140.55 50.27 140.76 49.94C140.94 49.66 141.57 49.65 141.86 49.75C143.11 50.14 141.53 51.18 141.02 51.44Z" fill="#AC865A"/>
<path d="M66.4999 55.24C69.6699 54.78 72.9999 53.97 76.1999 53.99C84.5999 54.04 81.8899 64.23 80.1899 69.12C78.3199 74.49 72.8899 86.5 72.8899 86.52C72.8899 88.39 77.0099 91.12 74.9499 92.57C73.0999 93.87 69.2299 91.51 69.0399 89.41C68.8199 86.94 70.0499 84.35 70.1499 81.84C70.2599 78.99 70.0999 76.09 70.5199 73.26C71.0499 69.72 70.5599 70.65 71.3899 64.93C71.3899 64.93 67.0699 68.06 64.9799 69.31C60.3799 72.06 55.2099 75.5 50.0299 77.02L35.5899 59.23C45.8599 58.02 56.2299 56.75 66.4899 55.25L66.4999 55.24Z" fill="#DC9490"/>
<path d="M27.6101 86.21C28.1601 86.01 28.7501 85.92 29.3301 85.84L51.8801 82.59C46.2101 77.16 39.7701 72.29 35.8101 65.51C33.6301 61.78 31.1601 55.44 32.8001 51.08C33.2901 49.78 34.2501 49.92 35.6301 49.61C37.1501 49.26 38.6701 48.91 40.1901 48.56C43.1301 47.88 46.0601 47.21 49.0001 46.53C53.6101 58.5 58.2201 70.47 62.8301 82.44C63.5801 84.4 64.3401 86.58 63.5601 88.53C62.5301 91.1 59.3601 91.99 56.5901 92.22C48.5501 92.87 40.5801 90.73 32.5801 89.71C31.7901 89.61 30.9401 89.53 30.2401 89.89C29.4601 90.29 29.0301 91.13 28.4901 91.83C27.9501 92.52 27.0601 93.14 26.2401 92.81C25.4801 92.5 25.2301 91.56 25.2001 90.75C25.1301 89.12 25.6501 87.32 27.0501 86.49C27.2301 86.38 27.4301 86.29 27.6301 86.22L27.6101 86.21Z" fill="#DC9490"/>
<path d="M60.04 10.23C59.88 12.46 59.06 14.72 58.87 16.94C58.73 18.59 58.84 20.27 58.75 21.97C57.2 20.72 55.63 18.58 54.64 16.85C53.91 15.58 54.12 15.15 54.6 13.66C55.15 11.97 55.87 10.09 56.08 8.38C57.65 8.27 58.54 10.01 60.04 10.23V10.23Z" fill="#DC9490"/>
<path d="M42.7499 26.1899C45.6399 20.3999 47.2499 17.7899 52.1399 13.6199C54.1299 12.8499 54.6099 18.2199 58.8099 20.8399C58.8099 20.8399 60.1399 33.5099 60.0399 34.8999C59.8099 38.1099 60.4399 50.3199 60.3799 55.9199C64.5699 54.7399 69.5199 53.7599 73.9299 53.9699C76.3099 54.0799 78.8499 53.9899 80.7699 55.5899C82.6899 57.1899 83.1399 59.5799 83.9399 61.7999C83.9399 61.7999 70.1499 76.1399 63.8999 79.3999C54.6799 84.2099 48.1699 85.1699 43.6099 85.5699C40.7599 85.8199 29.3599 85.1899 26.7399 84.0499C28.2899 82.3199 30.2899 72.6799 30.2799 70.5099C30.2599 66.5499 29.6899 62.7599 30.3199 58.7899C30.7799 55.8799 31.1699 52.6499 32.9799 50.2999C34.7999 47.9399 37.0099 45.7499 38.6999 43.2899C41.2899 39.5199 41.3799 30.4199 42.7699 26.1899H42.7499Z" fill="#DCC337"/>
<path d="M59.41 27.3C59.41 27.3 59.43 27.3 59.45 27.3C59.66 27.28 59.81 27.1 59.79 26.89C59.48 23.71 59.18 20.8 59.18 20.8C59.16 20.6 58.99 20.46 58.77 20.47C58.56 20.49 58.41 20.68 58.44 20.88C58.44 20.88 58.75 23.79 59.05 26.97C59.07 27.16 59.23 27.31 59.42 27.31L59.41 27.3Z" fill="white"/>
<path d="M59.21 0.780002C63.32 1.56 65.04 6.16 63.32 9.61C61.44 13.39 56.44 13.96 55.03 9.49C54.21 6.92 54.42 0.400002 59.21 0.770002V0.780002Z" fill="#DC9490"/>
<path d="M60.2701 0.249981C60.9001 0.409981 61.5101 0.659981 62.0601 1.00998C63.5001 1.91998 64.5201 3.58998 64.3701 5.28998C62.6201 5.33998 60.8601 5.38998 59.1101 5.43998C59.3301 7.64998 59.0701 9.94998 58.1101 11.95C57.1501 13.95 55.4501 15.65 53.3501 16.37C49.7601 17.61 46.7701 16.09 43.5201 18.05C40.7501 19.72 40.1001 23.04 34.1001 22.02C30.4301 21.4 28.1901 19.84 29.6801 18.35C31.0001 17.04 33.0801 16.72 34.6101 16.52C36.0001 16.34 36.7701 15.21 37.2001 13.95C37.9301 11.8 37.5501 9.87998 39.4601 8.28998C41.3301 6.72998 44.2301 7.56998 46.5001 6.65998C48.3401 5.92998 49.5201 4.15998 50.9901 2.82998C52.6901 1.29998 54.8701 0.309981 57.1401 0.0499808C58.1801 -0.0700192 59.2601 -0.0300192 60.2801 0.229981L60.2701 0.249981Z" fill="black"/>
<path d="M56.4299 24.27C56.4299 24.27 58.2199 31.71 59.9199 34.52C61.2799 36.76 63.2799 39.11 65.4199 40.4C67.8899 41.88 77.5299 44.89 80.9999 44.57C82.7399 44.53 84.5599 45.01 84.6999 46.76C84.8399 48.52 81.4399 48.26 76.5399 47.83C70.0699 47.27 62.7899 46.12 61.9199 45.87C59.7399 45.25 51.9199 38.9 50.0399 32.03L56.4199 24.28L56.4299 24.27Z" fill="#DC9490"/>
<path d="M71.8299 43.23C71.9899 43.23 72.1399 43.13 72.1899 42.96C72.2499 42.76 72.1399 42.55 71.9399 42.49C69.1599 41.65 66.67 40.7 65.61 40.06C63.75 38.95 61.74 36.8 60.24 34.31C60.13 34.13 59.8999 34.08 59.7199 34.18C59.5399 34.29 59.49 34.52 59.59 34.7C61.18 37.32 63.2299 39.51 65.2199 40.7C66.3299 41.36 68.88 42.34 71.71 43.2C71.75 43.21 71.78 43.22 71.82 43.22L71.8299 43.23Z" fill="#C57D7B"/>
<path d="M56.4301 21.65C58.0801 23.28 64.1101 37.14 64.1101 37.14L53.8501 43.66C53.8501 43.66 48.9001 35.79 47.8901 33.16" fill="#DCC337"/>
<path d="M53.8501 44.03C53.9201 44.03 53.9901 44.01 54.0501 43.97L56.2001 42.61C56.3701 42.5 56.4301 42.27 56.3201 42.09C56.2101 41.92 55.9801 41.86 55.8001 41.97L53.9701 43.13C53.0401 41.63 49.1201 35.28 48.2401 33.01C48.1601 32.82 47.9501 32.72 47.7501 32.8C47.5601 32.88 47.4601 33.09 47.5401 33.29C48.5601 35.92 53.3301 43.53 53.5401 43.86C53.5901 43.95 53.6801 44 53.7701 44.03C53.8001 44.03 53.8301 44.03 53.8501 44.03V44.03Z" fill="white"/>
<path d="M62.8001 34.56C62.8501 34.56 62.9001 34.55 62.9501 34.53C63.1401 34.45 63.2201 34.22 63.1401 34.03C60.8301 28.89 57.8301 22.52 56.6901 21.39C56.5401 21.24 56.3101 21.25 56.1601 21.39C56.0101 21.54 56.0201 21.77 56.1601 21.92C56.9801 22.73 59.2701 27.25 62.4501 34.34C62.5101 34.48 62.6501 34.56 62.7901 34.56H62.8001Z" fill="white"/>
<path d="M50.76 59.67C50.76 59.67 50.83 59.67 50.87 59.65L51.84 59.35C54.8 58.43 58.16 57.38 60.91 56.14C61.1 56.05 61.18 55.83 61.1 55.64C61.02 55.45 60.79 55.37 60.6 55.45C57.9 56.68 54.56 57.71 51.62 58.63L50.65 58.93C50.45 58.99 50.34 59.2 50.4 59.4C50.45 59.56 50.6 59.66 50.76 59.66V59.67Z" fill="white"/>
<path d="M74.1999 89.01C75.1899 90.35 76.1899 91.69 74.9499 92.56C73.0999 93.86 69.2299 91.5 69.0399 89.4C68.9899 88.81 69.0199 88.2 69.0999 87.6C70.2399 88.51 71.5499 89.18 72.5599 90.25C73.0999 89.91 73.6699 89.48 74.1999 89.01V89.01Z" fill="#8F0004"/>
<path d="M27.0301 86.48C27.2101 86.37 27.4101 86.28 27.6101 86.21C27.9001 86.11 28.1901 86.03 28.5001 85.97C27.9101 87.48 27.0801 89.57 27.6301 90.46C27.8101 90.74 28.3501 91.02 28.8801 91.27C28.7501 91.46 28.6201 91.65 28.4801 91.83C27.9401 92.52 27.0501 93.14 26.2301 92.81C25.4701 92.5 25.2201 91.56 25.1901 90.75C25.1201 89.12 25.6401 87.32 27.0401 86.49L27.0301 86.48Z" fill="#8F0004"/>
<path d="M191.09 79C191.09 79 191.15 79 191.18 79C191.38 78.95 191.51 78.75 191.46 78.55C191.17 77.33 190.01 76.63 188.97 76.02C188.6 75.8 188.26 75.6 187.97 75.38C186.56 74.32 185.92 73.35 185.45 71.54C185.4 71.34 185.2 71.22 184.99 71.27C184.79 71.32 184.67 71.53 184.72 71.73C185.24 73.7 185.97 74.81 187.51 75.98C187.83 76.22 188.19 76.44 188.57 76.66C189.52 77.22 190.5 77.81 190.71 78.72C190.75 78.89 190.9 79.01 191.08 79.01L191.09 79Z" fill="#AC865A"/>
<path d="M149.92 68.34C149.99 68.34 150.05 68.32 150.11 68.29C151.01 67.76 151.68 67.09 152.34 66.45C152.77 66.03 153.18 65.63 153.65 65.26C153.81 65.13 153.84 64.9 153.72 64.73C153.59 64.57 153.36 64.54 153.19 64.66C152.69 65.05 152.24 65.49 151.82 65.91C151.17 66.55 150.55 67.15 149.73 67.64C149.55 67.75 149.49 67.98 149.6 68.15C149.67 68.27 149.79 68.33 149.92 68.33V68.34Z" fill="#AC865A"/>
<path d="M149.59 55.5H149.61C150.2 55.46 150.82 55.38 151.42 55.29C152.58 55.13 153.78 54.96 154.85 55.16C155.06 55.19 155.25 55.06 155.29 54.86C155.33 54.66 155.19 54.46 154.99 54.42C153.79 54.2 152.54 54.38 151.32 54.55C150.71 54.64 150.13 54.72 149.57 54.75C149.36 54.76 149.2 54.94 149.22 55.15C149.23 55.35 149.4 55.5 149.59 55.5V55.5Z" fill="#AC865A"/>
</g>
<defs>
<clipPath id="clip0_98_6162">
<rect width="204.29" height="97.41" fill="white" transform="matrix(-1 0 0 1 204.29 0)"/>
</clipPath>
</defs>
</svg>
