<?xml version="1.0" encoding="utf-8"?>
<!-- Generator: Adobe Illustrator 25.0.1, SVG Export Plug-In . SVG Version: 6.00 Build 0)  -->
<svg version="1.1" id="Layer_1" xmlns="http://www.w3.org/2000/svg" xmlns:xlink="http://www.w3.org/1999/xlink" x="0px" y="0px"
	 viewBox="0 0 19 19" style="enable-background:new 0 0 19 19;" xml:space="preserve">
<style type="text/css">
	.st0{fill:none;}
</style>
<g>
	<g>
		<path class="st0" d="M-1.6-1.6h22.1v22.1H-1.6V-1.6z"/>
	</g>
	<g>
		<path d="M15,18.6C7.2,18.1,0.9,11.8,0.4,4c0-1.5,1.2-2.7,2.6-2.7h3.7c0.3,0,0.6,0.2,0.7,0.5l1.8,4.6c0.1,0.4,0,0.8-0.3,1l-1.7,1
			c0.8,1.3,1.9,2.5,3.3,3.3l1-1.7c0.2-0.3,0.6-0.5,1-0.3l4.6,1.8c0.3,0.1,0.5,0.4,0.5,0.7v3.7C17.7,17.4,16.5,18.6,15,18.6z
			 M3.1,2.9C2.5,2.9,2,3.4,2,4c0.4,7,6,12.6,13.1,13c0.5,0,1-0.5,1-1.1v-3.2l-3.5-1.4l-1,1.7c-0.2,0.4-0.7,0.5-1,0.3
			c-2.1-1.1-3.9-2.8-5-5c-0.2-0.4-0.1-0.8,0.3-1l1.7-1L6.2,2.9H3.1z"/>
	</g>
	<g>
		<path d="M14.1,7.5c-0.4,0-0.8-0.4-0.8-0.8c0-0.6-0.5-1.1-1.1-1.1c-0.4,0-0.8-0.4-0.8-0.8s0.4-0.8,0.8-0.8c1.5,0,2.6,1.2,2.6,2.6
			C14.9,7.2,14.5,7.5,14.1,7.5z"/>
	</g>
	<g>
		<path d="M17.8,7.5c-0.4,0-0.8-0.4-0.8-0.8C17,4.1,14.9,2,12.3,2c-0.4,0-0.8-0.4-0.8-0.8s0.4-0.8,0.8-0.8c3.5,0,6.3,2.8,6.3,6.3
			C18.6,7.2,18.2,7.5,17.8,7.5z"/>
	</g>
</g>
</svg>
