<?xml version="1.0" encoding="utf-8"?>
<!-- Generator: Adobe Illustrator 25.0.1, SVG Export Plug-In . SVG Version: 6.00 Build 0)  -->
<svg version="1.1" id="Layer_1" xmlns="http://www.w3.org/2000/svg" xmlns:xlink="http://www.w3.org/1999/xlink" x="0px" y="0px"
	 viewBox="0 0 18 20" style="enable-background:new 0 0 18 20;" xml:space="preserve">
<style type="text/css">
	.st0{fill:none;}
</style>
<g>
	<g>
		<path class="st0" d="M-2.7-1.8h23.4v23.4H-2.7V-1.8z"/>
	</g>
	<g>
		<path d="M9,12.6c-2.1,0-3.8-1.7-3.8-3.8c0-2.1,1.7-3.8,3.8-3.8s3.8,1.7,3.8,3.8C12.8,10.9,11.1,12.6,9,12.6z M9,6.8
			c-1.2,0-2.1,0.9-2.1,2.1S7.8,11,9,11c1.2,0,2.1-0.9,2.1-2.1S10.2,6.8,9,6.8z"/>
	</g>
	<g>
		<path d="M9,19.9c-0.7,0-1.4-0.3-2-0.8L2.9,15c-1.6-1.6-2.5-3.8-2.5-6.1s0.9-4.5,2.5-6.1C4.5,1.1,6.7,0.2,9,0.2c0,0,0,0,0,0
			c2.3,0,4.5,0.9,6.1,2.5c3.4,3.4,3.4,8.8,0,12.2l0,0L11,19.1C10.4,19.7,9.7,19.9,9,19.9z M9,1.9c-1.9,0-3.6,0.7-4.9,2S2,7,2,8.9
			s0.7,3.6,2,4.9l4.1,4.1c0.4,0.4,1.1,0.4,1.6,0l4.1-4.1c2.7-2.7,2.7-7.1,0-9.8C12.6,2.6,10.9,1.9,9,1.9C9,1.9,9,1.9,9,1.9z
			 M14.5,14.4L14.5,14.4L14.5,14.4z"/>
	</g>
</g>
</svg>
