<svg width="12" height="16" viewBox="0 0 12 16" fill="none" xmlns="http://www.w3.org/2000/svg">
<path d="M11.376 8.41595L0.777 15.4819C0.701706 15.5321 0.61423 15.5608 0.523891 15.5651C0.433553 15.5694 0.343733 15.5492 0.263999 15.5065C0.184265 15.4638 0.117604 15.4003 0.0711136 15.3227C0.0246236 15.2451 4.67204e-05 15.1564 0 15.0659V0.933946C4.67204e-05 0.843504 0.0246236 0.754768 0.0711136 0.677189C0.117604 0.599611 0.184265 0.536094 0.263999 0.493405C0.343733 0.450717 0.433553 0.430454 0.523891 0.434775C0.61423 0.439097 0.701706 0.467841 0.777 0.517946L11.376 7.58395C11.4445 7.62961 11.5006 7.69147 11.5395 7.76404C11.5783 7.83661 11.5986 7.91764 11.5986 7.99995C11.5986 8.08225 11.5783 8.16329 11.5395 8.23585C11.5006 8.30842 11.4445 8.37029 11.376 8.41595Z" fill="#7D859D"/>
</svg>
