<svg width="43" height="40" viewBox="0 0 43 40" fill="none" xmlns="http://www.w3.org/2000/svg">
<g clip-path="url(#clip0_65_100)">
<path d="M1 3.76997V38.14L14.48 35.59V1.21997L1 3.76997Z" stroke="#353535" stroke-width="2" stroke-miterlimit="10"/>
<path d="M28.53 3.76997V38.14L41.08 35.59V1.21997L28.53 3.76997Z" stroke="#353535" stroke-width="2" stroke-miterlimit="10"/>
<path d="M28.53 38.1401L14.48 35.5901" stroke="#353535" stroke-width="2"/>
<path d="M25.88 29.56L17.12 27.97" stroke="#353535" stroke-width="2"/>
<path d="M25.88 32.84L17.12 31.25" stroke="#353535" stroke-width="2"/>
<path d="M25.88 11.62L17.12 10.03" stroke="#353535" stroke-width="2"/>
<path d="M25.88 8.32999L17.12 6.73999" stroke="#353535" stroke-width="2"/>
<path d="M3.54004 8.32999L12.3 6.73999" stroke="#2FB06C" stroke-width="2" stroke-miterlimit="10"/>
<path d="M3.54004 11.8L12.3 10.22" stroke="#2FB06C" stroke-width="2" stroke-miterlimit="10"/>
<path d="M3.54004 15.2699L12.3 13.6899" stroke="#2FB06C" stroke-width="2" stroke-miterlimit="10"/>
<path d="M3.54004 18.7399L12.3 17.1599" stroke="#2FB06C" stroke-width="2" stroke-miterlimit="10"/>
<path d="M3.54004 22.2199L12.3 20.6299" stroke="#2FB06C" stroke-width="2" stroke-miterlimit="10"/>
<path d="M3.54004 25.6899L12.3 24.0999" stroke="#2FB06C" stroke-width="2" stroke-miterlimit="10"/>
<path d="M3.54004 29.1601L12.3 27.5701" stroke="#2FB06C" stroke-width="2" stroke-miterlimit="10"/>
<path d="M3.54004 32.63L12.3 31.04" stroke="#2FB06C" stroke-width="2" stroke-miterlimit="10"/>
<path d="M30.12 8.32999L38.88 6.73999" stroke="#2FB06C" stroke-width="2" stroke-miterlimit="10"/>
<path d="M30.12 11.8L38.88 10.22" stroke="#2FB06C" stroke-width="2" stroke-miterlimit="10"/>
<path d="M30.12 15.2699L38.88 13.6899" stroke="#2FB06C" stroke-width="2" stroke-miterlimit="10"/>
<path d="M30.12 18.7399L38.88 17.1599" stroke="#2FB06C" stroke-width="2" stroke-miterlimit="10"/>
<path d="M30.12 22.2199L38.88 20.6299" stroke="#2FB06C" stroke-width="2" stroke-miterlimit="10"/>
<path d="M30.12 25.6899L38.88 24.0999" stroke="#2FB06C" stroke-width="2" stroke-miterlimit="10"/>
<path d="M30.12 29.1601L38.88 27.5701" stroke="#2FB06C" stroke-width="2" stroke-miterlimit="10"/>
<path d="M30.12 32.63L38.88 31.04" stroke="#2FB06C" stroke-width="2" stroke-miterlimit="10"/>
<path d="M14.48 1.21997L28.53 3.76997" stroke="#353535" stroke-width="2"/>
<path d="M14.48 1.21997V35.59" stroke="#353535" stroke-width="2"/>
<path d="M28.53 3.77002V38.14" stroke="#353535" stroke-width="2"/>
<path d="M26.73 19.34C26.73 21.98 24.59 24.13 21.94 24.13C19.29 24.13 17.15 21.99 17.15 19.34C17.15 16.69 19.29 14.55 21.94 14.55C24.59 14.55 26.73 16.69 26.73 19.34Z" fill="#2FB06C"/>
<path d="M21.9501 22.4201V19.3401" stroke="#353535" stroke-width="2"/>
<path d="M23.02 17.56C23.02 18.15 22.54 18.63 21.95 18.63C21.36 18.63 20.88 18.15 20.88 17.56C20.88 16.97 21.36 16.49 21.95 16.49C22.54 16.49 23.02 16.97 23.02 17.56Z" fill="#353535"/>
</g>
<defs>
<clipPath id="clip0_65_100">
<rect width="42.08" height="39.36" fill="white"/>
</clipPath>
</defs>
</svg>
