<svg width="310" height="129" viewBox="0 0 310 129" fill="none" xmlns="http://www.w3.org/2000/svg">
<g clip-path="url(#clip0_36_38)">
<path d="M172.535 120.343H302.709C303.162 120.343 303.428 120.103 303.189 119.917L282.71 100.397C282.603 100.317 282.425 100.264 282.23 100.264H196.629C196.469 100.264 196.318 100.299 196.211 100.352L172.118 119.872C171.78 120.05 172.038 120.343 172.535 120.343Z" fill="#DDC69B"/>
<path opacity="0.4" d="M179.258 119.508H309.432C309.885 119.508 310.151 119.268 309.911 119.082L289.432 99.5619C289.326 99.482 289.148 99.4287 288.953 99.4287H203.351C203.191 99.4287 203.04 99.4642 202.934 99.5175L178.84 119.037C178.503 119.215 178.76 119.508 179.258 119.508Z" fill="#EDD5B2"/>
<path d="M175.874 118.673H306.048C306.501 118.673 306.767 118.434 306.527 118.247L286.048 98.7272C285.942 98.6473 285.764 98.594 285.569 98.594H199.967C199.808 98.594 199.657 98.6295 199.55 98.6828L175.457 118.203C175.119 118.38 175.377 118.673 175.874 118.673Z" fill="#F4B83C"/>
<path d="M38.7554 117.128C38.7554 114.073 60.3533 111.586 87.0044 111.586C113.656 111.586 135.254 114.064 135.254 117.128C135.254 120.192 113.656 122.67 87.0044 122.67C60.3533 122.67 38.7554 120.192 38.7554 117.128Z" fill="#DDC69B"/>
<path d="M71.2856 122.67C71.2856 119.615 92.8836 117.128 119.535 117.128C146.186 117.128 167.784 119.606 167.784 122.67C167.784 125.734 146.186 128.211 119.535 128.211C92.8836 128.211 71.2856 125.734 71.2856 122.67Z" fill="#DDC69B"/>
<path d="M18.6938 101.649C18.6938 100.983 22.0952 100.441 26.2869 100.441C30.4786 100.441 33.8799 100.983 33.8799 101.649C33.8799 102.315 30.4786 102.857 26.2869 102.857C22.0952 102.857 18.6938 102.315 18.6938 101.649Z" fill="#DDC69B"/>
<path d="M126.995 107.217C127.199 108.425 128.957 109.047 129.783 109.757C130.209 110.13 130.529 110.432 130.733 110.947C131.062 111.8 131.231 111.64 132.048 111.391C132.323 111.302 132.643 111.231 132.838 111.009C132.998 110.823 133.264 110.317 133.167 110.086C133.087 109.908 132.891 109.242 132.643 109.26C132.323 109.287 132.128 109.89 131.861 110.059C131.71 110.148 131.16 109.313 131.08 109.207C130.955 109.029 130.334 107.875 130.147 107.475C129.97 107.084 129.499 106.134 129.446 106.045C128.611 104.633 127.847 102.963 126.79 101.711C126.231 101.045 125.734 100.761 124.899 101.01C123.282 101.489 122.039 103.727 121.275 105.13" fill="#D08884"/>
<path d="M130.298 107.386C130.502 108.594 132.261 109.215 133.087 109.926C133.513 110.299 133.833 110.601 134.037 111.116C134.366 111.969 134.534 111.809 135.351 111.56C135.627 111.471 135.946 111.4 136.151 111.178C136.31 110.992 136.577 110.485 136.479 110.255C136.399 110.077 136.204 109.411 135.955 109.429C135.636 109.455 135.44 110.059 135.174 110.228C135.023 110.317 134.472 109.482 134.392 109.375C134.268 109.198 133.646 108.043 133.46 107.644C133.282 107.253 132.811 106.303 132.758 106.214C131.923 104.802 131.16 103.132 130.103 101.88C129.543 101.214 129.046 100.93 128.211 101.178C126.595 101.658 125.352 103.896 124.588 105.299" fill="#D08884"/>
<path d="M118.646 94.6155C118.966 96.1163 121.595 103.381 122.394 104.722C123.105 105.912 124.268 107.821 125.014 109.002C125.92 110.423 129.117 114.446 129.259 115.192C129.339 115.601 129.126 116.116 129.419 116.506C129.81 117.03 130.502 116.977 131.062 116.995C132.163 117.048 132.314 117.554 133.353 117.599C133.77 117.617 134.481 117.492 134.765 117.199C135.227 116.711 134.046 116.018 133.735 115.76C133.371 115.45 132.714 115.086 132.278 115.103C131.603 115.121 131.151 115.094 130.618 114.499C130.369 114.224 126.985 106.391 126 104.429C125.049 102.546 124.321 100.663 123.788 98.6207C123.202 96.3827 122.678 93.3721 122.145 91.1342C121.879 90.0152 121.391 88.692 120.13 88.4522C119.215 88.2835 117.874 88.6831 116.853 88.6831C115.893 88.6831 114.792 88.6121 114.055 88.0259L109.277 87.6174C108.274 87.9016 107.19 87.6974 106.178 87.8306C104.517 88.0615 104.109 89.9975 103.647 91.3473C102.741 94.0471 102.208 96.2939 101.365 98.7272C100.823 100.299 99.9703 101.693 99.0023 103.052C98.3274 104.011 97.3593 105.548 96.7732 106.56C96.3913 107.217 94.4997 110.681 93.3985 112.386C92.7591 112.67 91.578 112.501 90.8675 112.608C90.0949 112.723 89.2424 112.883 88.4964 113.158C87.6527 113.469 87.8303 114.064 88.6296 114.144C89.9706 114.277 91.4359 114.597 92.7769 114.588C93.2653 114.588 93.8603 114.428 94.1623 114.038C94.4465 113.682 94.4553 113.203 94.6862 112.839C94.8639 112.563 95.1303 112.315 95.3434 112.075C96.045 111.293 96.7643 110.521 97.4748 109.757C98.8069 108.327 100.237 106.933 101.453 105.397C102.386 104.216 102.99 102.83 103.718 101.516C104.189 100.672 104.695 99.864 105.121 99.0025C105.574 98.0878 106.142 97.1731 106.693 96.3205C106.853 96.9422 107.634 97.6793 107.998 98.221C108.434 98.8693 108.949 99.4821 109.437 100.095C110.379 101.285 111.879 102.901 112.785 104.1C113.167 104.597 112.803 106.729 112.652 108.496C112.501 110.201 112.75 111.782 113.709 113.221C114.943 115.077 116.56 115.316 118.673 115.37C119.961 115.405 124.836 115.174 125.92 114.721C127.803 113.931 129.747 111.968 130.076 109.899C130.342 108.212 130.449 106.267 130.298 104.544L125.351 105.93" fill="#D08884"/>
<path d="M133.735 115.761C133.371 115.45 132.714 115.086 132.279 115.103C131.604 115.121 131.151 115.094 130.618 114.499C130.529 114.393 130.005 113.265 129.339 111.782C129.002 112.324 128.575 112.83 128.096 113.274C128.726 114.162 129.206 114.908 129.259 115.183C129.339 115.592 129.126 116.107 129.419 116.498C129.81 117.022 130.502 116.968 131.062 116.986C132.163 117.039 132.314 117.546 133.353 117.59C133.77 117.608 134.481 117.483 134.765 117.19C135.227 116.702 134.046 116.009 133.735 115.752V115.761Z" fill="#D08884"/>
<path d="M125.511 108.905C123.54 109.73 121.177 109.855 119.108 110.103C116.906 110.37 114.765 110.077 112.616 109.722C112.652 110.556 112.803 111.365 113.131 112.137C113.709 112.608 114.25 113.132 114.712 113.505C115.36 114.029 116.133 114.588 116.781 115.201C117.359 115.308 117.989 115.343 118.673 115.361C119.161 115.37 120.156 115.352 121.266 115.29C122.607 113.38 125.031 111.427 126.452 110.29L125.511 108.913V108.905Z" fill="#262424"/>
<path d="M120.565 98.7361C119.082 100.015 116.657 100.69 115.059 100.85C113.833 100.974 112.519 100.894 111.311 100.69C110.805 100.601 110.227 100.512 109.668 100.361C110.103 100.894 110.618 101.489 111.133 102.084C111.453 102.102 111.755 102.12 112.012 102.137C113.114 102.235 114.268 102.191 115.369 102.111C116.284 102.04 117.199 101.889 118.105 101.729C119.455 101.489 120.574 100.912 121.843 100.468L120.565 98.7361Z" fill="#262424"/>
<path d="M114.597 110.015C113.939 109.935 113.273 109.828 112.616 109.722C112.652 110.556 112.803 111.365 113.131 112.137C113.709 112.608 114.25 113.132 114.712 113.505C115.36 114.029 116.133 114.588 116.781 115.201H116.799C116.861 115.219 116.923 115.228 116.994 115.237H117.012C117.083 115.245 117.154 115.263 117.225 115.272H117.252C117.314 115.281 117.376 115.29 117.438 115.299H117.483C117.554 115.308 117.616 115.317 117.687 115.325H117.74C117.794 115.325 117.838 115.334 117.891 115.343H118.016C116.657 114.055 114.739 112.306 114.606 110.041L114.597 110.015Z" fill="black"/>
<path d="M111.924 100.779C111.719 100.752 111.515 100.725 111.311 100.69C110.805 100.601 110.227 100.512 109.668 100.361C109.881 100.619 110.112 100.894 110.361 101.187L110.387 101.214L110.547 101.4L110.592 101.454L110.743 101.631L110.814 101.711L111.027 101.951L111.142 102.084C111.462 102.102 111.764 102.12 112.021 102.137C112.403 102.173 112.785 102.182 113.176 102.191C112.821 101.747 112.403 101.267 111.933 100.77L111.924 100.779Z" fill="black"/>
<path d="M111.293 75.2288C110.671 75.5663 110.139 76.0991 109.757 76.7563C109.171 77.7687 108.851 78.4525 108.833 79.6426C108.815 81.0635 109.224 82.4844 109.064 83.8964C108.869 85.6193 107.883 87.0757 107.172 88.5855C106.808 89.3492 106.524 90.1485 106.409 91.001C106.293 91.8891 106.577 92.7949 106.879 93.612C107.27 94.6688 107.785 95.6812 108.016 96.8002C108.416 98.7095 107.883 100.814 106.631 102.253C108.416 102.741 110.396 102.582 111.977 101.578C113.558 100.574 114.677 98.674 114.597 96.7113C114.552 95.619 114.17 94.5711 114.09 93.4876C113.984 91.9513 114.499 90.4327 115.165 89.0561C115.831 87.6796 116.657 86.4008 117.234 84.9888C118.051 82.9995 118.353 80.6994 117.74 78.6302C117.128 76.5521 115.511 75.2644 113.513 74.8647C112.732 74.7138 111.95 74.8647 111.275 75.2288H111.293Z" fill="#262424"/>
<path d="M130.138 104.571C130.2 104.677 130.271 104.775 130.325 104.873C130.325 104.757 130.307 104.642 130.298 104.526L130.138 104.571Z" fill="#A87C4B"/>
<path d="M71.9695 98.3009C71.9073 98.9404 71.7386 99.5975 71.6142 100.237C71.41 101.303 71.2768 102.377 71.0548 103.425C70.6374 105.361 70.3709 107.643 70.9215 109.553C71.1969 110.53 71.8807 111.489 72.5911 112.173C73.1329 112.705 73.8078 113.114 74.536 113.292C76.0013 113.638 77.4933 113.602 78.9853 113.531C80.6726 113.451 82.4576 113.354 84.0917 112.848C85.184 112.501 85.8057 111.933 86.3918 110.841C87.3509 109.064 87.0578 106.871 86.4806 105.05C85.708 102.608 85.2373 100.05 84.0384 97.8835L71.9784 98.3009H71.9695Z" fill="#9A80CA"/>
<path d="M70.6641 97.6793C69.776 99.7574 69.03 101.844 68.3995 104.011C68.1064 105.024 67.8578 106.08 67.5203 107.084C66.9342 108.834 66.0106 110.468 65.0692 112.039C64.2344 113.434 63.2398 114.713 62.4227 116.125C61.81 117.181 61.9077 118.895 60.6111 119.286C59.5365 119.615 57.8936 119.446 56.8012 119.339C56.224 119.286 56.0553 119.233 55.4602 119.233C54.8031 119.233 54.0926 118.771 54.4478 118.025C54.7498 117.395 55.8421 117.43 56.4016 117.306C57.2453 117.11 57.7071 117.013 58.5685 116.915C59.5543 116.8 59.7763 116.835 60.1315 115.814C60.5844 114.491 60.9752 113.176 61.2505 111.8C61.508 110.539 61.7833 109.304 62.1119 108.07C62.476 106.702 62.9911 104.731 63.9502 103.256C64.3143 102.706 64.5275 102.066 64.6252 101.454C64.9893 99.2068 65.6642 96.8357 66.0017 94.3402C66.1171 93.4876 66.1882 92.4574 66.4102 91.6404C66.5967 90.9388 66.7743 90.2728 67.0585 89.5623C67.2716 89.0295 67.5913 88.6742 67.9466 88.2213C69.3853 86.3919 71.8097 86.7649 73.8434 86.8448C75.7083 86.9247 76.8451 85.6193 76.1257 83.6744L81.1345 82.3423C80.4507 83.2126 80.2109 84.1184 80.3974 85.2285C80.5483 86.1699 81.5696 86.4274 82.4311 86.5251C83.772 86.6761 85.1574 86.2587 86.4896 86.5873C87.4487 86.8271 87.9726 86.9336 88.5321 87.9638C89.0028 88.8341 89.1005 89.9442 89.2603 90.9122C89.5534 92.6972 89.9264 94.4645 90.1307 96.2673C90.2639 97.4395 90.9388 99.9261 91.2496 101.072C91.3651 101.489 91.8802 102.768 92.0489 103.168C93.1856 105.894 92.6883 106.613 93.4698 108.683C93.905 109.828 95.317 115.086 96.0275 115.521C96.7734 115.983 98.0256 115.787 98.8782 116.018C99.4021 116.16 99.9172 116.338 100.441 116.498C100.805 116.613 101.4 116.666 101.72 116.871C102.2 117.19 102.004 117.954 101.578 118.203C100.121 119.055 98.221 118.798 96.6669 118.709C96.0275 118.673 95.3437 118.771 94.8197 118.3C94.278 117.821 93.9227 116.879 93.5409 116.258C93.0169 115.388 92.342 114.34 91.8802 113.452C90.7434 111.231 88.4522 108.23 87.7151 105.805C87.4576 104.953 87.4487 104.038 87.2267 103.185C86.9869 102.271 85.4771 98.9315 85.193 97.6616" fill="#D08884"/>
<path d="M69.5186 93.7983C70.5842 97.8036 72.2716 100.432 72.2449 104.597C72.2449 105.734 72.2005 107.919 71.9963 109.02L73.3461 111.88L84.678 111.471L85.868 107.484C85.9302 104.899 85.1309 102.377 85.0776 99.7751C85.0332 97.8924 85.2641 96.134 85.5749 94.3134" fill="#D08884"/>
<path d="M77.9283 74.749C78.177 74.749 78.4168 74.7846 78.6566 74.8645C81.454 75.8414 82.0579 79.1805 81.8714 81.6227C81.7826 82.795 77.0758 85.9476 74.7313 83.3101C73.2837 81.676 72.8841 79.589 73.9498 77.6974C74.6514 76.4541 76.3298 74.7579 77.9283 74.749Z" fill="#D08884"/>
<path d="M79.0211 106.551C79.0655 106.551 79.0655 106.48 79.0211 106.48C78.9767 106.48 78.9767 106.551 79.0211 106.551Z" fill="#B10006"/>
<path d="M80.8238 77.7952C80.664 76.1701 80.0068 74.2163 78.0797 74.1186C74.5274 73.941 71.8188 77.7064 72.8312 81.0633C73.6926 83.9229 76.2325 84.5712 76.3213 85.0863C76.9252 84.6423 78.2573 84.7222 78.8789 84.8821C78.8789 84.8821 79.0743 84.1805 79.5716 83.3191C80.5929 81.5518 81.0192 80.1131 80.8505 78.0439C80.8505 77.964 80.8327 77.884 80.8327 77.8041L80.8238 77.7952Z" fill="#262424"/>
<path d="M72.2448 104.864C71.7652 108.185 74.0387 110.121 77.0493 110.547C79.9177 110.956 83.4967 110.769 85.1574 107.892C86.0277 106.382 85.8412 105.894 85.6281 104.393L86.1431 105.645V110.041L84.6601 111.88L73.2927 112.359L71.4722 109.126L72.2537 104.873L72.2448 104.864Z" fill="#9A80CA"/>
<path d="M26.4202 98.2653C26.7044 99.6152 27.3616 100.796 28.5605 101.542C29.6794 102.235 31.1181 102.519 32.397 102.164C34.1642 101.667 35.5496 100.033 35.7894 98.212C36.0114 96.5069 35.2388 94.7929 33.9244 93.7183C33.809 93.6295 33.6935 93.5407 33.5781 93.4608C32.4058 92.6704 31.0382 92.5106 29.635 92.9191C27.2994 93.594 25.914 95.8852 26.4113 98.2653H26.4202Z" fill="#F9F1EF"/>
<path d="M31.926 96.2405C31.1978 96.5069 28.8711 96.9865 26.3667 96.6668C26.5532 95.3702 27.2814 94.2157 28.4004 93.4963C29.2441 94.6508 30.4962 95.2547 31.926 96.2405Z" fill="#13ADAA"/>
<path d="M31.9261 96.2406C31.3044 94.6421 31.0913 93.3188 31.0913 92.7061C31.9705 92.7061 32.8231 92.9547 33.5868 93.4609C33.7022 93.5408 33.8177 93.6208 33.9331 93.7185L33.9598 93.7451C33.0717 94.3224 32.3169 95.7699 31.9261 96.2406Z" fill="#13ADAA"/>
<path d="M31.9261 96.2405C31.9261 96.72 32.157 99.2777 31.0825 102.315C30.1944 102.279 29.3063 102.004 28.5692 101.542C28.1696 101.294 27.8232 101.001 27.5391 100.663C29.7415 99.2777 31.5354 96.72 31.9261 96.2405Z" fill="#13ADAA"/>
<path d="M31.9263 96.2494C32.6545 96.2228 34.4484 96.2494 35.7361 96.6934C35.8338 97.1908 35.8604 97.7058 35.7983 98.2209C35.6828 99.1356 35.2743 99.9971 34.6793 100.69C33.96 98.4607 32.6456 97.0931 31.9263 96.2494Z" fill="#13ADAA"/>
<path d="M289.92 97.0222C288.482 97.8836 286.652 98.3365 285.063 98.6207C277.638 99.944 274.495 100.885 270.889 101.178C266.733 101.507 241.334 98.5941 241.822 104.34C242.133 107.946 244.691 111.667 252.302 111.729C258.838 111.782 271.475 108.523 272.798 107.91C280.649 104.269 280.098 104.118 287.967 100.548C290.302 99.491 292.771 99.5088 295.054 98.3277C295.48 98.1056 295.773 97.8481 295.427 97.4129C294.441 96.1696 293.535 96.0364 291.963 96.2496C291.199 96.3561 290.533 96.6492 289.912 97.0222H289.92Z" fill="#CE938D"/>
<path d="M246.556 112.333C246.556 112.333 253.19 112.208 258.11 111.658C260.809 111.356 264.14 111.187 266.715 110.547C266.351 106.924 266.395 102.635 265.49 99.0824C265.49 99.0824 257.932 97.6438 251.52 99.0558C248.474 99.7307 245.641 100.814 245.641 100.814C246.831 103.478 246.867 107.333 246.556 112.333Z" fill="#13ADAA"/>
<path d="M227.001 101.365C225.553 100.983 219.559 101.223 219.035 99.7928C218.44 98.1765 225.091 98.9847 226.095 99.1623C227.693 99.4465 229.283 99.7484 230.882 100.05C232.498 100.352 234.469 100.441 235.846 101.125C234.114 101.977 230.162 101.818 226.992 101.365H227.001Z" fill="#CE938D"/>
<path d="M248.279 112.084C241.983 113.522 232.454 110.139 226.166 109.473C223.848 109.224 222.472 108.238 220.198 107.661C218.298 107.19 215.607 106.791 213.662 106.409C213.546 105.894 213.626 104.571 213.804 103.931C215.953 103.763 218.218 103.478 220.234 102.652C225.757 100.388 229.718 100.805 233.546 100.388C236.645 100.05 247.089 100.148 250.073 100.592C250.073 100.592 249.283 109.775 248.279 112.075V112.084Z" fill="#CE938D"/>
<path d="M293.597 105.468C291.919 106.072 289.903 106.169 288.18 106.134C280.134 105.974 276.644 106.302 272.816 105.849C268.402 105.334 242.426 96.9865 241.742 103.096C241.307 106.933 243.217 111.356 251.174 113.016C258.003 114.437 271.901 113.665 273.411 113.292C282.39 111.116 281.848 110.849 290.817 108.753C293.482 108.132 296.066 108.665 298.704 107.91C299.192 107.768 299.556 107.563 299.29 107.031C298.526 105.521 297.593 105.192 295.906 105.095C295.08 105.041 294.325 105.21 293.606 105.468H293.597Z" fill="#CE938D"/>
<path d="M207.827 108.692C205.971 107.777 204.843 105.645 205.545 103.621C206.806 99.9973 212.41 100.841 214.514 103.097C215.305 103.94 215.758 105.175 215.456 106.294C215.118 107.528 213.964 108.39 212.756 108.834C211.166 109.42 209.337 109.437 207.818 108.692H207.827Z" fill="#CE938D"/>
<path d="M211.397 101.223C210.625 101.445 209.976 101.498 209.239 101.835C208.76 102.057 208.245 102.324 207.8 102.599C208.848 102.715 209.541 105.397 209.79 106.258C210.056 107.182 210.527 108.443 210.607 109.349C208.786 109.597 206.229 108.736 205.145 107.199C203.84 105.352 204.621 102.324 206.681 101.356C207.969 100.752 209.719 100.69 211.397 101.214V101.223Z" fill="black"/>
<path d="M217.409 105.761C216.992 109.375 226.947 115.112 226.53 116.302C226.148 117.386 219.399 119.712 217.969 120.512C216.859 121.124 212.605 122.643 214.416 124.064C215.855 125.192 220.02 123.131 221.388 122.652C224.212 121.657 227.054 120.405 229.7 119.011C231.476 118.078 233.688 117.554 232.729 115.512C232.462 114.952 228.564 108.922 226.521 106.489" fill="#CE938D"/>
<path d="M245.028 112.448C245.028 112.448 252 113.7 257.266 114.153C260.152 114.402 263.678 114.917 266.502 114.783C266.875 110.911 267.825 106.436 267.603 102.528C267.603 102.528 259.992 99.4464 252.994 99.5796C249.664 99.6507 246.476 100.201 246.476 100.201C247.169 103.239 246.405 107.279 245.037 112.448H245.028Z" fill="#13ADAA"/>
</g>
<defs>
<clipPath id="clip0_36_38">
<rect width="310" height="128.211" fill="white"/>
</clipPath>
</defs>
</svg>
