<svg width="86" height="98" viewBox="0 0 86 98" fill="none" xmlns="http://www.w3.org/2000/svg">
<path opacity="0.3" d="M38.88 97.4099C17.4072 97.4099 1.52588e-05 94.7191 1.52588e-05 91.3999C1.52588e-05 88.0807 17.4072 85.3899 38.88 85.3899C60.3528 85.3899 77.76 88.0807 77.76 91.3999C77.76 94.7191 60.3528 97.4099 38.88 97.4099Z" fill="black"/>
<path d="M57.51 19.79C57.51 19.79 59.3 27.23 61 30.04C62.36 32.28 64.36 34.63 66.5 35.92C68.97 37.4 78.61 40.41 82.08 40.09C83.82 40.05 85.64 40.53 85.78 42.28C85.92 44.04 82.52 43.78 77.62 43.35C71.15 42.79 63.87 41.64 63 41.39C60.82 40.77 53 34.42 51.12 27.55L57.5 19.8L57.51 19.79Z" fill="#DC9490"/>
<path d="M57.5099 17.1699C59.1599 18.7999 65.1899 32.6599 65.1899 32.6599L54.9299 39.1799C54.9299 39.1799 49.9799 31.3099 48.9699 28.6799" fill="#DCC337"/>
<path d="M66.4999 55.2401C69.6699 54.7801 72.9999 53.9701 76.1999 53.9901C84.5999 54.0401 81.8899 64.2301 80.1899 69.1201C78.3199 74.4901 72.8899 86.5001 72.8899 86.5201C72.8899 88.3901 77.0099 91.1201 74.9499 92.5701C73.0999 93.8701 69.2299 91.5101 69.0399 89.4101C68.8199 86.9401 70.0499 84.3501 70.1499 81.8401C70.2599 78.9901 70.0999 76.0901 70.5199 73.2601C71.0499 69.7201 70.5599 70.6501 71.3899 64.9301C71.3899 64.9301 67.0699 68.0601 64.9799 69.3101C60.3799 72.0601 55.2099 75.5001 50.0299 77.0201L35.5899 59.2301C45.8599 58.0201 56.2299 56.7501 66.4899 55.2501L66.4999 55.2401Z" fill="#DC9490"/>
<path d="M27.6101 86.21C28.1601 86.01 28.7501 85.92 29.3301 85.84L51.8801 82.59C46.2101 77.16 39.7701 72.29 35.8101 65.51C33.6301 61.78 31.1601 55.44 32.8001 51.08C33.2901 49.78 34.2501 49.92 35.6301 49.61C37.1501 49.26 38.6701 48.91 40.1901 48.56C43.1301 47.88 46.0601 47.21 49.0001 46.53C53.6101 58.5 58.2201 70.47 62.8301 82.44C63.5801 84.4 64.3401 86.58 63.5601 88.53C62.5301 91.1 59.3601 91.99 56.5901 92.22C48.5501 92.87 40.5801 90.73 32.5801 89.71C31.7901 89.61 30.9401 89.53 30.2401 89.89C29.4601 90.29 29.0301 91.13 28.4901 91.83C27.9501 92.52 27.0601 93.14 26.2401 92.81C25.4801 92.5 25.2301 91.56 25.2001 90.75C25.1301 89.12 25.6501 87.32 27.0501 86.49C27.2301 86.38 27.4301 86.29 27.6301 86.22L27.6101 86.21Z" fill="#DC9490"/>
<path d="M60.04 10.23C59.88 12.46 59.06 14.72 58.87 16.94C58.73 18.59 58.84 20.27 58.75 21.97C57.2 20.72 55.63 18.58 54.64 16.85C53.91 15.58 54.12 15.15 54.6 13.66C55.15 11.97 55.87 10.09 56.08 8.38C57.65 8.27 58.54 10.01 60.04 10.23V10.23Z" fill="#DC9490"/>
<path d="M42.7499 26.1899C45.6399 20.3999 47.2499 17.7899 52.1399 13.6199C54.1299 12.8499 54.6099 18.2199 58.8099 20.8399C58.8099 20.8399 60.1399 33.5099 60.0399 34.8999C59.8099 38.1099 60.4399 50.3199 60.3799 55.9199C64.5699 54.7399 69.5199 53.7599 73.9299 53.9699C76.3099 54.0799 78.8499 53.9899 80.7699 55.5899C82.6899 57.1899 83.1399 59.5799 83.9399 61.7999C83.9399 61.7999 70.1499 76.1399 63.8999 79.3999C54.6799 84.2099 48.1699 85.1699 43.6099 85.5699C40.7599 85.8199 29.3599 85.1899 26.7399 84.0499C28.2899 82.3199 30.2899 72.6799 30.2799 70.5099C30.2599 66.5499 29.6899 62.7599 30.3199 58.7899C30.7799 55.8799 31.1699 52.6499 32.9799 50.2999C34.7999 47.9399 37.0099 45.7499 38.6999 43.2899C41.2899 39.5199 41.3799 30.4199 42.7699 26.1899H42.7499Z" fill="#DCC337"/>
<path d="M59.41 27.3C59.41 27.3 59.43 27.3 59.45 27.3C59.66 27.28 59.81 27.1 59.79 26.89C59.48 23.71 59.18 20.8 59.18 20.8C59.16 20.6 58.99 20.46 58.77 20.47C58.56 20.49 58.41 20.68 58.44 20.88C58.44 20.88 58.75 23.79 59.05 26.97C59.07 27.16 59.23 27.31 59.42 27.31L59.41 27.3Z" fill="white"/>
<path d="M59.21 0.780002C63.32 1.56 65.04 6.16 63.32 9.61C61.44 13.39 56.44 13.96 55.03 9.49C54.21 6.92 54.42 0.400002 59.21 0.770002V0.780002Z" fill="#DC9490"/>
<path d="M60.2701 0.249981C60.9001 0.409981 61.5101 0.659981 62.0601 1.00998C63.5001 1.91998 64.5201 3.58998 64.3701 5.28998C62.6201 5.33998 60.8601 5.38998 59.1101 5.43998C59.3301 7.64998 59.0701 9.94998 58.1101 11.95C57.1501 13.95 55.4501 15.65 53.3501 16.37C49.7601 17.61 46.7701 16.09 43.5201 18.05C40.7501 19.72 40.1001 23.04 34.1001 22.02C30.4301 21.4 28.1901 19.84 29.6801 18.35C31.0001 17.04 33.0801 16.72 34.6101 16.52C36.0001 16.34 36.7701 15.21 37.2001 13.95C37.9301 11.8 37.5501 9.87998 39.4601 8.28998C41.3301 6.72998 44.2301 7.56998 46.5001 6.65998C48.3401 5.92998 49.5201 4.15998 50.9901 2.82998C52.6901 1.29998 54.8701 0.309981 57.1401 0.0499808C58.1801 -0.0700192 59.2601 -0.0300192 60.2801 0.229981L60.2701 0.249981Z" fill="black"/>
<path d="M56.4299 24.27C56.4299 24.27 58.2199 31.71 59.9199 34.52C61.2799 36.76 63.2799 39.11 65.4199 40.4C67.8899 41.88 77.5299 44.89 80.9999 44.57C82.7399 44.53 84.5599 45.01 84.6999 46.76C84.8399 48.52 81.4399 48.26 76.5399 47.83C70.0699 47.27 62.7899 46.12 61.9199 45.87C59.7399 45.25 51.9199 38.9 50.0399 32.03L56.4199 24.28L56.4299 24.27Z" fill="#DC9490"/>
<path d="M71.8299 43.2299C71.9899 43.2299 72.1399 43.1299 72.1899 42.9599C72.2499 42.7599 72.1399 42.5499 71.9399 42.4899C69.1599 41.6499 66.67 40.6999 65.61 40.0599C63.75 38.9499 61.74 36.7999 60.24 34.3099C60.13 34.1299 59.8999 34.0799 59.7199 34.1799C59.5399 34.2899 59.49 34.5199 59.59 34.6999C61.18 37.3199 63.2299 39.5099 65.2199 40.6999C66.3299 41.3599 68.88 42.3399 71.71 43.1999C71.75 43.2099 71.78 43.2199 71.82 43.2199L71.8299 43.2299Z" fill="#C57D7B"/>
<path d="M56.4301 21.6499C58.0801 23.2799 64.1101 37.1399 64.1101 37.1399L53.8501 43.6599C53.8501 43.6599 48.9001 35.7899 47.8901 33.1599" fill="#DCC337"/>
<path d="M53.8501 44.03C53.9201 44.03 53.9901 44.01 54.0501 43.97L56.2001 42.61C56.3701 42.5 56.4301 42.27 56.3201 42.09C56.2101 41.92 55.9801 41.86 55.8001 41.97L53.9701 43.13C53.0401 41.63 49.1201 35.28 48.2401 33.01C48.1601 32.82 47.9501 32.72 47.7501 32.8C47.5601 32.88 47.4601 33.09 47.5401 33.29C48.5601 35.92 53.3301 43.53 53.5401 43.86C53.5901 43.95 53.6801 44 53.7701 44.03C53.8001 44.03 53.8301 44.03 53.8501 44.03V44.03Z" fill="white"/>
<path d="M62.8001 34.56C62.8501 34.56 62.9001 34.55 62.9501 34.53C63.1401 34.45 63.2201 34.22 63.1401 34.03C60.8301 28.89 57.8301 22.52 56.6901 21.39C56.5401 21.24 56.3101 21.25 56.1601 21.39C56.0101 21.54 56.0201 21.77 56.1601 21.92C56.9801 22.73 59.2701 27.25 62.4501 34.34C62.5101 34.48 62.6501 34.56 62.7901 34.56H62.8001Z" fill="white"/>
<path d="M50.76 59.67C50.76 59.67 50.83 59.67 50.87 59.65L51.84 59.35C54.8 58.43 58.16 57.38 60.91 56.14C61.1 56.05 61.18 55.83 61.1 55.64C61.02 55.45 60.79 55.37 60.6 55.45C57.9 56.68 54.56 57.71 51.62 58.63L50.65 58.93C50.45 58.99 50.34 59.2 50.4 59.4C50.45 59.56 50.6 59.66 50.76 59.66V59.67Z" fill="white"/>
<path d="M74.1999 89.0101C75.1899 90.3501 76.1899 91.6901 74.9499 92.5601C73.0999 93.8601 69.2299 91.5001 69.0399 89.4001C68.9899 88.8101 69.0199 88.2001 69.0999 87.6001C70.2399 88.5101 71.5499 89.1801 72.5599 90.2501C73.0999 89.9101 73.6699 89.4801 74.1999 89.0101V89.0101Z" fill="#8F0004"/>
<path d="M27.0301 86.48C27.2101 86.37 27.4101 86.28 27.6101 86.21C27.9001 86.11 28.1901 86.03 28.5001 85.97C27.9101 87.48 27.0801 89.57 27.6301 90.46C27.8101 90.74 28.3501 91.02 28.8801 91.27C28.7501 91.46 28.6201 91.65 28.4801 91.83C27.9401 92.52 27.0501 93.14 26.2301 92.81C25.4701 92.5 25.2201 91.56 25.1901 90.75C25.1201 89.12 25.6401 87.32 27.0401 86.49L27.0301 86.48Z" fill="#8F0004"/>
</svg>
