<svg width="282" height="232" viewBox="0 0 282 232" fill="none" xmlns="http://www.w3.org/2000/svg">
<path opacity="0.9" fill-rule="evenodd" clip-rule="evenodd" d="M123.971 111.632L123.965 111.635C113.953 116.896 101.7 119.5 87.25 119.5H64V179H13V0.75H87.25C101.529 0.75 113.693 3.26932 123.7 8.35702C133.858 13.4364 141.513 20.4845 146.62 29.5074C151.716 38.5101 154.25 48.8507 154.25 60.5C154.25 71.329 151.71 81.2492 146.622 90.2398C141.682 99.0958 134.114 106.222 123.971 111.632ZM145.75 89.75C150.75 80.9167 153.25 71.1667 153.25 60.5C153.25 49 150.75 38.8333 145.75 30C140.75 21.1667 133.25 14.25 123.25 9.25001C113.417 4.25 101.417 1.75 87.25 1.75H14V178H63V118.5H87.25C101.583 118.5 113.667 115.917 123.5 110.75C133.5 105.417 140.917 98.4167 145.75 89.75ZM97.3872 74.0125C100.573 71.0949 102.25 66.6554 102.25 60.5C102.25 54.2575 100.571 49.754 97.3824 46.7956C94.1793 43.8241 89.2804 42.25 82.5 42.25H64V78.5H82.5C89.2833 78.5 94.1842 76.9453 97.3872 74.0125ZM63 79.5V41.25H82.5C96.3333 41.25 103.25 47.6667 103.25 60.5C103.25 73.1667 96.3333 79.5 82.5 79.5H63Z" fill="#ADADAD"/>
<path opacity="0.2" d="M218.5 203.25H156L146.5 232H95L159.25 55.75H215.75L279.75 232H228L218.5 203.25ZM206.25 165.75L187.25 108.75L168.5 165.75H206.25Z" fill="#CBCBCB"/>
</svg>
