<svg width="16" height="17" viewBox="0 0 16 17" fill="none" xmlns="http://www.w3.org/2000/svg">
<path d="M9.88524 5.42093L6.11457 9.19227C6.0509 9.25377 6.00011 9.32733 5.96517 9.40867C5.93023 9.49 5.91184 9.57748 5.91107 9.666C5.9103 9.75452 5.92717 9.84231 5.96069 9.92424C5.99421 10.0062 6.04372 10.0806 6.10631 10.1432C6.16891 10.2058 6.24334 10.2553 6.32527 10.2888C6.4072 10.3223 6.49499 10.3392 6.58351 10.3384C6.67203 10.3377 6.75951 10.3193 6.84084 10.2843C6.92218 10.2494 6.99574 10.1986 7.05724 10.1349L10.8286 6.36427C11.2037 5.98916 11.4144 5.48041 11.4144 4.94993C11.4144 4.41946 11.2037 3.9107 10.8286 3.5356C10.4535 3.1605 9.94472 2.94976 9.41424 2.94976C8.88376 2.94976 8.37501 3.1605 7.99991 3.5356L4.22857 7.30693C3.91262 7.61502 3.66099 7.98277 3.48828 8.38887C3.31556 8.79496 3.2252 9.2313 3.22244 9.67259C3.21967 10.1139 3.30456 10.5513 3.47217 10.9595C3.63978 11.3678 3.88679 11.7386 4.19885 12.0507C4.51091 12.3627 4.88183 12.6096 5.29008 12.7772C5.69832 12.9447 6.13578 13.0296 6.57706 13.0267C7.01835 13.0239 7.45468 12.9335 7.86075 12.7607C8.26681 12.5879 8.63453 12.3363 8.94257 12.0203L12.7139 8.2496L13.6566 9.19227L9.88524 12.9636C9.45188 13.397 8.9374 13.7407 8.37119 13.9753C7.80497 14.2098 7.19811 14.3305 6.58524 14.3305C5.97237 14.3305 5.36551 14.2098 4.79929 13.9753C4.23308 13.7407 3.7186 13.397 3.28524 12.9636C2.85188 12.5302 2.50812 12.0158 2.27358 11.4495C2.03905 10.8833 1.91833 10.2765 1.91833 9.6636C1.91833 9.05073 2.03905 8.44387 2.27358 7.87765C2.50812 7.31144 2.85188 6.79696 3.28524 6.3636L7.05724 2.59293C7.68591 1.98574 8.52792 1.64976 9.40191 1.65735C10.2759 1.66495 11.1119 2.01551 11.73 2.63354C12.348 3.25156 12.6986 4.08761 12.7062 4.9616C12.7137 5.83559 12.3778 6.67759 11.7706 7.30627L7.99991 11.0789C7.81413 11.2647 7.59359 11.412 7.35088 11.5125C7.10817 11.613 6.84803 11.6647 6.58534 11.6647C6.32264 11.6646 6.06252 11.6129 5.81983 11.5123C5.57715 11.4118 5.35664 11.2644 5.17091 11.0786C4.98517 10.8928 4.83785 10.6723 4.73735 10.4296C4.63685 10.1869 4.58514 9.92673 4.58517 9.66403C4.5852 9.40134 4.63697 9.14122 4.73753 8.89853C4.83809 8.65584 4.98546 8.43533 5.17124 8.2496L8.94257 4.47827L9.88524 5.42093Z" fill="#818898"/>
</svg>
