<svg width="307" height="396" viewBox="0 0 307 396" fill="none" xmlns="http://www.w3.org/2000/svg">
<g clip-path="url(#clip0_33_9)">
<path d="M334 -30H-24V425H334V-30Z" fill="white"/>
<g opacity="0.3">
<path d="M153.034 146.336C124.543 146.336 101.336 169.522 101.336 198.013C101.336 226.505 124.522 249.69 153.013 249.69C181.505 249.69 204.691 226.505 204.691 198.013C204.711 169.522 181.526 146.336 153.034 146.336ZM102.967 198.034C102.967 170.43 125.43 147.967 153.034 147.967C180.638 147.967 203.101 170.43 203.101 198.034C203.101 225.638 180.638 248.101 153.034 248.101C125.43 248.08 102.967 225.638 102.967 198.034Z" fill="#888888"/>
<path d="M125.306 170.306C117.915 177.697 113.827 187.546 113.827 198.013C113.827 219.63 131.418 237.22 153.034 237.22C174.651 237.22 192.241 219.63 192.241 198.013C192.241 176.397 174.651 158.806 153.034 158.806C142.546 158.827 132.718 162.894 125.306 170.306ZM115.458 198.034C115.458 188 119.36 178.564 126.463 171.462C133.565 164.36 143 160.458 153.034 160.458C173.763 160.458 190.631 177.326 190.631 198.034C190.631 218.762 173.763 235.61 153.055 235.61C132.305 235.61 115.458 218.742 115.458 198.034Z" fill="#888888"/>
<path d="M104.681 194.359C104.681 194.483 104.557 198.178 104.557 198.178C104.515 199.231 104.825 200.098 105.444 200.759L105.548 200.862C106.229 201.523 107.199 201.874 108.417 201.915C109.78 201.957 110.812 201.585 111.473 200.78C111.969 200.222 112.216 199.541 112.237 198.798C112.237 198.798 112.361 194.689 112.361 194.586C112.278 194.586 104.784 194.359 104.681 194.359ZM111.246 197.642C111.225 198.529 110.874 199.19 110.234 199.562C109.759 199.83 109.161 199.954 108.397 199.933C107.592 199.913 106.931 199.727 106.456 199.376C105.857 198.942 105.548 198.282 105.589 197.394L105.63 196.898L105.692 196.362C105.692 196.3 105.775 196.238 105.837 196.238L111.122 196.403C111.184 196.403 111.267 196.485 111.267 196.547L111.246 197.642Z" fill="#888888"/>
<path d="M112.877 204.641C112.794 204.641 104.866 203.402 104.722 203.381C104.742 203.526 104.949 204.393 104.949 204.455C105.031 204.455 107.055 204.785 107.055 204.785L107.117 204.888L107.777 207.965C107.798 208.027 107.757 208.089 107.715 208.109C107.715 208.109 106.043 209.204 105.981 209.245C106.002 209.327 106.353 210.917 106.373 211.041C106.497 210.958 113.228 206.581 113.29 206.54C113.249 206.458 112.877 204.723 112.877 204.641ZM111.452 205.57C111.473 205.632 111.432 205.694 111.39 205.735L108.83 207.407C108.789 207.449 108.727 207.449 108.686 207.428C108.644 207.407 108.603 207.366 108.603 207.325L108.149 205.178C108.149 205.116 108.17 205.074 108.19 205.033C108.211 204.992 108.252 204.992 108.314 204.992L111.349 205.467C111.39 205.467 111.452 205.508 111.452 205.57Z" fill="#888888"/>
<path d="M108.479 214.303V214.2L108.562 214.117L110.606 213.291C110.668 213.271 110.73 213.271 110.771 213.312L110.812 213.353C110.812 213.353 111.741 215.666 111.783 215.769C111.865 215.727 112.547 215.459 112.609 215.438C112.505 215.17 111.659 213.043 111.659 213.043V212.94L111.741 212.858L113.558 212.135C113.62 212.114 113.661 212.114 113.703 212.156L113.765 212.197C113.765 212.197 114.9 215.067 114.942 215.17C115.045 215.129 115.809 214.819 115.912 214.798C115.871 214.695 114.033 210.091 113.992 209.988C113.889 210.029 106.931 212.816 106.828 212.858C106.869 212.961 107.839 215.376 107.839 215.376C107.839 215.376 108.81 217.792 108.851 217.895C108.954 217.854 109.718 217.544 109.821 217.503C109.718 217.4 108.479 214.324 108.479 214.303Z" fill="#888888"/>
<path d="M114.942 222.066C114.859 222.128 112.857 223.408 112.857 223.408C112.795 223.449 112.733 223.449 112.691 223.408L112.65 223.366V223.346C112.134 222.54 111.969 221.777 112.154 221.054C112.34 220.352 112.836 219.733 113.641 219.196C114.343 218.742 115.024 218.535 115.685 218.576C116.098 218.618 116.47 218.742 116.8 218.969C117.11 219.175 117.378 219.464 117.605 219.856C117.832 220.187 118.018 220.558 118.163 220.951C118.163 220.951 118.431 221.839 118.452 221.962C118.555 221.9 119.401 221.343 119.463 221.302C119.154 220.538 118.741 219.733 118.204 218.886C117.812 218.287 117.378 217.813 116.883 217.482C116.49 217.214 116.077 217.028 115.644 216.925C114.632 216.677 113.579 216.883 112.526 217.585C111.453 218.267 110.813 219.134 110.627 220.166C110.441 221.157 110.709 222.231 111.391 223.304C111.948 224.13 112.526 224.832 113.187 225.39C113.249 225.348 115.871 223.655 115.974 223.593C115.892 223.532 115.004 222.148 114.942 222.066Z" fill="#888888"/>
<path d="M120.95 230.84C120.95 230.84 124.604 227.682 124.687 227.62C124.625 227.537 123.737 226.525 123.654 226.443C123.427 226.649 120.103 229.519 120.103 229.519C119.505 230.015 119.03 230.283 118.617 230.324C118.307 230.345 118.018 230.262 117.75 230.077L117.44 229.788C117.048 229.333 116.944 228.9 117.089 228.466C117.233 228.074 117.626 227.578 118.224 227.062C118.224 227.062 121.528 224.192 121.631 224.13C121.549 224.048 120.496 222.809 120.413 222.727C120 223.098 116.697 225.968 116.697 225.968C115.933 226.629 115.561 227.372 115.602 228.177C115.623 228.92 115.974 229.684 116.655 230.448C116.924 230.758 117.213 231.026 117.481 231.233C117.915 231.542 118.348 231.728 118.803 231.77C119.484 231.77 120.206 231.481 120.95 230.84Z" fill="#888888"/>
<path d="M131.397 238.19C131.397 238.19 133.957 234.102 133.998 233.999C133.916 233.937 132.78 233.235 132.677 233.173C132.512 233.442 130.199 237.158 130.199 237.158C129.786 237.798 129.394 238.211 129.002 238.376C128.61 238.541 128.176 238.479 127.722 238.19C127.226 237.881 126.978 237.488 126.999 237.034C127.02 236.601 127.226 236.043 127.66 235.341C127.66 235.341 129.993 231.625 130.034 231.522C129.952 231.48 128.548 230.613 128.465 230.551C128.176 231.026 125.884 234.701 125.843 234.742C125.327 235.61 125.182 236.415 125.43 237.179C125.698 237.86 126.235 238.479 127.102 239.037C128.011 239.594 128.816 239.801 129.559 239.656C130.241 239.512 130.86 239.016 131.397 238.19Z" fill="#888888"/>
<path d="M140.027 236.663C139.903 236.952 138.21 240.957 138.21 240.957C138.169 241.019 138.065 241.164 138.003 241.143C137.941 241.122 137.942 240.937 137.942 240.937C137.942 240.937 136.682 235.321 136.661 235.259C136.62 235.238 135.319 234.681 135.216 234.66C135.175 234.763 133.73 238.211 133.73 238.211C133.73 238.211 132.284 241.659 132.243 241.762C132.326 241.804 133.358 242.237 133.441 242.279C133.544 241.99 135.257 237.984 135.257 237.984C135.278 237.922 135.381 237.778 135.443 237.798C135.505 237.798 135.546 238.005 135.546 238.005C135.546 238.005 136.806 243.641 136.827 243.683C136.868 243.703 138.148 244.24 138.251 244.281C138.292 244.178 141.183 237.262 141.224 237.158C141.142 237.138 140.089 236.704 140.027 236.663Z" fill="#888888"/>
<path d="M142.505 237.633C142.484 237.736 141.575 241.37 141.575 241.37C141.575 241.37 140.688 245.003 140.646 245.107C140.75 245.127 142.339 245.52 142.443 245.561C142.463 245.437 144.259 238.19 144.301 238.066C144.198 238.046 142.608 237.653 142.505 237.633Z" fill="#888888"/>
<path d="M151.795 238.831C151.609 239.223 149.235 244.364 149.235 244.364C149.214 244.426 149.152 244.446 149.09 244.446H149.049L148.946 244.343C148.946 244.343 147.439 238.521 147.397 238.438C147.335 238.438 145.622 238.273 145.457 238.252C145.498 238.397 147.521 246.098 147.562 246.181C147.624 246.201 149.4 246.346 149.483 246.366C149.503 246.304 152.827 239.078 152.889 238.934C152.786 238.913 151.857 238.831 151.795 238.831Z" fill="#888888"/>
<path d="M158.773 241.762C158.484 241.783 156.193 242.01 156.193 242.01C156.193 242.01 156.131 241.989 156.09 241.989L156.028 241.886L155.842 239.945C155.842 239.863 155.904 239.78 155.966 239.78C155.966 239.78 159.021 239.491 159.145 239.47C159.145 239.367 159.063 238.521 159.042 238.438C158.939 238.438 154.004 238.934 153.88 238.934C153.901 239.057 154.252 242.774 154.252 242.774C154.252 242.774 154.603 246.511 154.624 246.614C154.727 246.614 159.93 246.118 160.033 246.098C160.033 245.995 159.95 245.148 159.93 245.065C159.641 245.107 156.502 245.396 156.502 245.396C156.502 245.396 156.44 245.396 156.399 245.375C156.399 245.375 156.399 245.375 156.379 245.375L156.317 245.272L156.11 243.083C156.09 243.001 156.151 242.939 156.234 242.918C156.234 242.918 158.712 242.67 158.794 242.67C158.835 242.567 158.773 241.865 158.773 241.762Z" fill="#888888"/>
<path d="M166.681 239.739C166.825 239.285 166.846 238.851 166.722 238.418C166.557 237.819 166.268 237.427 165.711 237.2C165.298 237.014 164.802 236.993 164.265 237.138C164.265 237.138 160.817 238.026 160.735 238.067C160.776 238.17 162.655 245.417 162.676 245.52C162.799 245.499 164.224 245.107 164.327 245.087C164.245 244.797 163.543 242.134 163.543 242.134L163.563 242.031L163.667 241.948L164.389 241.763L164.492 241.783L164.513 241.804C164.513 241.804 166.908 244.364 166.949 244.405C167.011 244.385 168.911 243.889 169.097 243.848C168.931 243.724 165.896 241.081 165.896 241.081C165.855 241.061 165.855 241.019 165.834 240.978C165.834 240.937 165.855 240.895 165.896 240.854C166.247 240.544 166.516 240.173 166.681 239.739ZM164.141 240.916L163.439 241.081L163.336 241.061L163.274 240.978L162.696 238.769L162.717 238.645L162.799 238.583L163.419 238.418C163.914 238.294 164.265 238.294 164.534 238.438C164.761 238.542 164.926 238.769 165.009 239.099C165.112 239.471 165.091 239.801 164.967 240.152C164.781 240.544 164.513 240.813 164.141 240.916Z" fill="#888888"/>
<path d="M173.391 237.798C173.122 237.736 172.441 237.695 171.347 237.654C170.954 237.633 170.645 237.592 170.418 237.509C170.17 237.427 169.984 237.282 169.901 237.117C169.777 236.849 169.819 236.58 170.005 236.312C170.149 236.126 170.356 235.961 170.603 235.837C170.892 235.692 171.223 235.589 171.574 235.486C171.574 235.486 172.338 235.341 172.461 235.321C172.42 235.197 171.966 234.33 171.925 234.247C171.801 234.288 170.872 234.598 170.872 234.598L169.839 235.052C169.158 235.383 168.683 235.816 168.374 236.332C168.043 236.931 168.023 237.509 168.353 238.149C168.663 238.748 169.179 239.14 169.922 239.326C170.108 239.367 170.768 239.429 171.904 239.491C172.689 239.532 173.143 239.739 173.329 240.09C173.494 240.441 173.452 240.771 173.205 241.081C173.04 241.308 172.792 241.494 172.441 241.659C172.11 241.824 171.759 241.948 171.388 242.051C171.388 242.051 170.583 242.175 170.459 242.196C170.521 242.32 170.975 243.249 171.016 243.331C171.243 243.249 172.131 242.939 172.131 242.939L173.205 242.444C174.278 241.907 174.939 241.246 175.145 240.503C175.29 240.007 175.249 239.512 175.001 239.016C174.732 238.48 174.299 238.108 173.721 237.901C173.597 237.86 173.494 237.819 173.391 237.798Z" fill="#888888"/>
<path d="M173.886 233.277C173.948 233.359 177.83 239.78 177.892 239.863C177.995 239.801 179.378 238.955 179.481 238.913C179.419 238.831 175.538 232.41 175.476 232.327C175.373 232.368 173.969 233.215 173.886 233.277Z" fill="#888888"/>
<path d="M177.086 232.058C177.086 232.058 177.355 232.389 177.417 232.451C177.644 232.265 179.543 230.696 179.543 230.696C179.584 230.654 179.626 230.654 179.688 230.675L179.75 230.696C179.75 230.696 183.858 235.651 183.92 235.733C184.003 235.671 185.262 234.619 185.345 234.557C185.283 234.474 181.195 229.54 181.195 229.54L181.174 229.436L181.215 229.333C181.215 229.333 183.259 227.661 183.342 227.578C183.28 227.516 182.743 226.835 182.661 226.773C182.578 226.856 176.88 231.584 176.797 231.645C176.818 231.728 177.086 232.058 177.086 232.058Z" fill="#888888"/>
<path d="M188.174 224.646C188.194 224.688 188.194 224.75 188.153 224.791C188.112 224.832 188.07 224.853 188.008 224.832C188.008 224.832 184.54 224.357 184.478 224.357C184.437 224.399 183.363 225.761 183.26 225.906C184.251 226.05 188.256 226.608 188.401 226.649C188.401 226.649 190.858 228.569 190.92 228.631C190.981 228.549 192.014 227.248 192.055 227.186C191.27 226.567 189.516 225.183 189.474 225.142C189.474 225.142 187.678 220.538 187.616 220.352C187.513 220.476 186.893 221.26 186.873 221.302C186.893 221.364 188.174 224.646 188.174 224.646Z" fill="#888888"/>
<path d="M190.486 216.966C190.486 216.966 190.506 216.987 190.527 216.987C190.589 216.863 190.961 216.182 190.961 216.182L191.043 216.099C191.043 216.099 191.105 216.099 191.146 216.099C191.146 216.099 196.638 218.886 196.741 218.928C196.783 218.845 197.443 217.544 197.485 217.462C197.402 217.421 190.961 214.158 190.857 214.117C190.816 214.22 189.928 216.574 189.887 216.657C189.928 216.698 190.486 216.966 190.486 216.966Z" fill="#888888"/>
<path d="M192.055 209.534C191.766 210.421 191.807 211.206 192.241 211.887C192.571 212.424 193.025 212.796 193.583 213.002C194.181 213.209 194.76 213.167 195.296 212.899C195.833 212.631 196.205 212.176 196.411 211.578C196.514 211.268 196.556 210.979 196.535 210.649C196.514 210.318 196.432 210.07 196.246 209.823L195.833 209.307L196.453 209.513C196.989 209.699 197.464 209.988 197.836 210.38C198.373 210.958 198.517 211.619 198.269 212.342C198.166 212.651 198.022 212.961 197.836 213.25C197.836 213.25 197.402 213.787 197.32 213.89C197.444 213.931 198.207 214.2 198.29 214.22C198.662 213.601 198.971 212.961 199.198 212.321C199.57 211.227 199.467 210.298 198.909 209.451C198.414 208.687 197.629 208.13 196.576 207.779C195.503 207.407 194.553 207.386 193.748 207.696C192.943 208.006 192.385 208.605 192.055 209.534ZM194.78 209.079C195.131 209.203 195.42 209.41 195.627 209.678C195.874 210.008 195.936 210.339 195.812 210.71C195.668 211.103 195.4 211.35 194.987 211.433C194.677 211.516 194.305 211.474 193.913 211.35C193.521 211.227 193.232 211.02 193.025 210.752C192.798 210.463 192.757 210.132 192.901 209.74C193.025 209.348 193.314 209.121 193.707 209.017C194.037 208.935 194.409 208.956 194.78 209.079Z" fill="#888888"/>
<path d="M197.216 202.142C196.762 202.679 196.432 203.361 196.287 204.207L196.225 204.579L196.163 204.661L196.06 204.682L194.842 204.269C194.78 204.248 194.739 204.186 194.759 204.104C194.759 204.104 195.337 200.966 195.358 200.862C195.276 200.842 194.243 200.656 194.14 200.635C194.119 200.738 193.768 202.659 193.768 202.659C193.768 202.659 193.355 204.971 193.335 205.074C193.438 205.095 196.824 205.694 196.927 205.714L196.968 205.322C197.092 204.62 197.299 204.063 197.547 203.732C197.898 203.237 198.414 203.03 199.012 203.133C199.405 203.216 199.694 203.381 199.9 203.67C200.086 203.959 200.148 204.31 200.086 204.682C200.065 204.847 199.962 205.26 199.776 205.652C199.776 205.652 199.487 206.189 199.425 206.292C199.549 206.313 200.313 206.457 200.375 206.457C200.416 206.334 200.726 205.57 200.726 205.57L200.953 204.641C201.118 203.691 201.036 202.906 200.685 202.308C200.375 201.812 199.942 201.502 199.363 201.358C199.322 201.358 199.281 201.337 199.219 201.337C198.434 201.234 197.774 201.502 197.216 202.142Z" fill="#888888"/>
<path d="M197.216 194.09C196.824 194.586 196.659 195.102 196.742 195.701C196.762 196.031 196.866 196.341 197.01 196.651C197.155 196.94 197.402 197.125 197.588 197.27C197.774 197.394 197.98 197.476 197.98 197.476L197.939 197.518C197.836 197.58 197.567 197.642 197.567 197.642C196.989 197.704 196.453 197.621 195.936 197.414C195.193 197.105 194.78 196.568 194.718 195.825C194.677 195.494 194.698 195.164 194.739 194.813C194.739 194.813 194.904 194.132 194.945 194.008C194.822 194.008 194.016 194.09 193.934 194.09C193.851 194.813 193.831 195.515 193.892 196.196C194.016 197.373 194.491 198.22 195.358 198.757C196.081 199.19 197.093 199.376 198.146 199.273C199.281 199.169 200.148 198.798 200.747 198.199C201.366 197.58 201.614 196.816 201.511 195.825C201.408 194.875 201.057 194.214 200.396 193.739C199.88 193.388 199.322 193.223 198.724 193.285C198.104 193.368 197.588 193.636 197.216 194.09ZM200.128 195.123C200.458 195.288 200.644 195.598 200.685 196.011C200.726 196.403 200.582 196.733 200.251 197.002C199.983 197.208 199.653 197.332 199.26 197.373C198.889 197.414 198.538 197.332 198.207 197.167C197.877 196.981 197.691 196.692 197.65 196.32C197.609 195.887 197.774 195.556 198.104 195.309C198.352 195.123 198.703 194.999 199.116 194.958C199.508 194.916 199.839 194.978 200.128 195.123Z" fill="#888888"/>
<path d="M108.954 183.933C108.892 184.862 109.573 185.667 110.503 185.729C111.432 185.791 112.237 185.109 112.299 184.18C112.361 183.251 111.679 182.467 110.75 182.384C109.842 182.322 109.037 183.024 108.954 183.933Z" fill="#888888"/>
<path d="M197.113 183.933C197.175 184.841 196.494 185.646 195.565 185.729C194.656 185.791 193.83 185.109 193.769 184.18C193.707 183.251 194.388 182.467 195.317 182.384C196.225 182.322 197.031 183.024 197.113 183.933Z" fill="#888888"/>
<path d="M117.213 168.076L116.593 168.943L114.487 167.416L113.538 168.716L117.625 171.689C117.584 171.834 117.522 171.999 117.44 172.206C117.336 172.412 117.212 172.618 117.047 172.866L115.726 174.683L112.485 172.329L114.054 170.182L113.331 169.666L110.812 173.135L114.694 175.942C114.941 176.128 115.21 176.19 115.478 176.128C115.747 176.066 115.994 175.881 116.222 175.592L117.749 173.486C117.935 173.238 118.059 173.011 118.142 172.784C118.224 172.577 118.265 172.371 118.286 172.185L121.342 174.394L122.147 173.3C122.147 173.3 121.837 172.763 121.156 172.267L117.357 169.501L117.976 168.634L122.932 172.226L123.737 171.132C123.737 171.132 123.427 170.595 122.746 170.1L116.118 165.289L115.169 166.59L117.213 168.076Z" fill="#888888"/>
<path d="M135.898 156.845C135.918 156.679 135.898 156.432 135.836 156.122C135.774 155.812 135.671 155.544 135.547 155.296L134.184 152.633L127.082 156.246L127.474 157.03L133.131 154.14L134.101 156.06C134.225 156.308 134.329 156.535 134.432 156.783C134.535 157.03 134.597 157.258 134.618 157.464L128.383 160.644L128.775 161.449L132.367 159.632L134.184 163.183L135.381 162.564C135.381 162.564 135.361 161.944 134.989 161.201L133.812 158.909L136.373 157.609L137.013 157.278C137.405 157.072 137.611 156.824 137.611 156.824L137.26 156.143L135.898 156.845Z" fill="#888888"/>
<path d="M156.131 151.497H155.078V148.896H153.467V153.954C153.323 154.016 153.158 154.058 152.951 154.099C152.724 154.14 152.476 154.161 152.187 154.161H149.957V150.155H152.621V149.268H148.347V154.037C148.347 154.367 148.45 154.615 148.657 154.801C148.863 154.987 149.152 155.069 149.524 155.069H152.125C152.435 155.069 152.704 155.028 152.91 154.966C153.137 154.904 153.302 154.821 153.467 154.739V158.517H154.809C154.809 158.517 155.057 157.939 155.057 157.113V152.406H156.11V158.517H157.473C157.473 158.517 157.741 157.939 157.741 157.113V148.917H156.131V151.497V151.497Z" fill="#888888"/>
<path d="M173.288 158.538C173.907 158.331 174.423 157.918 174.712 157.361C175.001 156.803 175.043 156.143 174.836 155.523C174.816 155.42 174.754 155.317 174.712 155.234L176.013 155.895L176.405 155.131L174.299 154.057L174.65 153.355L173.226 152.612L172.854 153.335L170.748 152.261L170.356 153.025L171.657 153.686C170.934 153.83 170.273 154.264 169.943 154.945C169.654 155.503 169.613 156.163 169.819 156.783C170.046 157.464 170.562 158.021 171.202 158.372C171.863 158.682 172.586 158.744 173.288 158.538ZM171.14 156.907C171.079 156.514 171.161 156.04 171.388 155.585C171.595 155.152 171.946 154.801 172.317 154.615C172.606 154.491 172.875 154.47 173.102 154.594C173.329 154.718 173.474 154.945 173.536 155.255C173.618 155.647 173.535 156.122 173.308 156.556C172.895 157.382 172.132 157.836 171.595 157.547C171.347 157.464 171.202 157.216 171.14 156.907ZM177.376 158.166L178.573 155.833L177.128 155.09L174.547 160.169L175.972 160.891L176.963 158.93L177.603 159.26C177.995 159.467 178.325 159.487 178.325 159.487L178.676 158.806L177.376 158.166ZM168.828 158.827L173.804 161.366L172.668 163.596L173.969 164.257C173.969 164.257 174.464 163.864 174.857 163.121L175.745 161.346L169.22 158.022L168.828 158.827Z" fill="#888888"/>
<path d="M191.126 173.093C190.548 173.527 190.052 173.837 189.639 174.085C189.226 174.312 188.834 174.435 188.442 174.456L189.288 175.612C189.66 175.592 190.052 175.488 190.507 175.323C190.961 175.137 191.456 174.848 191.972 174.456L194.904 172.33L190.507 166.28L189.784 166.796L193.232 171.545L191.126 173.093Z" fill="#888888"/>
<path d="M189.495 176.975L188.71 175.901L187.905 174.765L187.698 174.456L190.816 172.185L189.866 170.884L186.749 173.155L186.336 172.598L186.191 172.391L189.329 170.12L188.38 168.819L185.241 171.09L184.251 169.728L183.528 170.244L185.634 173.114L188.07 176.479L188.483 177.057C188.483 177.078 188.483 177.078 188.483 177.098C188.751 177.429 188.999 177.594 188.999 177.594L189.598 177.16L189.495 176.975Z" fill="#888888"/>
<path d="M163.336 231.625C163.522 231.646 163.873 231.481 163.873 231.233C163.915 229.168 165.009 220.435 175.848 210.855C182.104 205.343 186.439 200.511 187.72 191.324C187.781 190.766 187.678 190.519 187.038 190.498C184.932 190.395 179.585 189.713 174.981 186.204C177.231 191.406 175.229 200.119 172.194 204.661C161.643 218.804 139.49 215.666 139.49 215.666L139.531 215.748C139.759 215.955 140.006 216.12 140.233 216.347C146.882 222.892 154.748 230.551 163.336 231.625Z" fill="#888888"/>
<path d="M174.238 186.514C176.343 191.386 174.485 199.727 171.512 204.207C161.396 217.751 139.821 214.881 139.593 214.861L136.765 214.468L138.974 216.368L139.263 216.616L139.635 216.925C146.138 223.346 154.232 231.336 163.233 232.451L163.419 232.472L163.254 232.451L164.286 232.1L164.678 231.254C164.699 230.263 165.215 221.344 176.364 211.454C182.186 206.313 187.141 201.234 188.504 191.427C188.504 191.407 188.236 190.168 188.236 190.168L187.079 189.693C185.531 189.611 180.122 189.115 175.476 185.564L173.019 183.685L174.238 186.514ZM172.854 205.136C175.146 201.709 176.756 196.362 176.756 191.613C176.756 190.312 176.591 189.094 176.323 187.938C180.762 190.602 185.324 191.2 186.873 191.283C185.531 200.553 181.051 205.178 175.311 210.236C164.555 219.775 163.254 228.343 163.109 230.758C155.202 229.602 147.811 222.665 141.741 216.678C147.769 217.07 164.038 216.946 172.854 205.136Z" fill="#888888"/>
<path d="M145.994 163.555C145.374 165.434 143.537 170.327 139.903 174.993C137.302 178.276 135.113 180.774 133.565 182.219C124.418 190.643 120.248 196.073 117.605 202.948C117.399 203.402 117.399 203.918 117.605 204.331C117.791 204.703 118.142 204.971 118.576 205.054C120.847 205.59 126.813 207.345 132.987 211.702L139.181 216.368L139.387 216.409C139.593 216.45 160.363 219.423 172.132 204.95C175.538 200.161 176.984 192.563 175.786 185.997L175.724 185.667L175.456 185.481C172.441 183.416 169.861 180.175 167.569 177.326C164.678 173.465 156.936 164.278 148.12 162.419C147.129 162.254 146.262 162.688 145.994 163.555ZM134.659 183.416C136.269 181.93 138.52 179.37 141.183 176.005C144.982 171.132 146.902 166.032 147.542 164.071C147.542 164.05 147.769 164.071 147.769 164.071C153.509 165.269 160.425 170.616 166.268 178.379C168.56 181.228 171.141 184.428 174.196 186.637C174.423 187.959 174.547 189.342 174.547 190.725C174.547 195.639 173.185 200.697 170.81 204.042C160.116 217.173 141.452 215.108 139.779 214.902C139.449 214.654 133.874 210.442 133.874 210.442C127.598 206.003 121.549 204.186 119.092 203.588C121.714 196.857 125.781 191.592 134.659 183.416Z" fill="#888888"/>
<path d="M140.832 176.355C140.626 176.376 140.419 176.5 140.378 176.768C140.213 179.143 138.561 194.834 133.585 210.194C133.503 210.463 133.565 210.69 133.895 210.69C139.263 210.752 166.764 211.412 166.702 192.005C166.64 177.739 146.613 176.314 140.832 176.355Z" fill="#888888"/>
</g>
</g>
<defs>
<clipPath id="clip0_33_9">
<rect width="307" height="396" fill="white"/>
</clipPath>
</defs>
</svg>
