<svg width="559" height="181" viewBox="0 0 559 181" fill="none" xmlns="http://www.w3.org/2000/svg">
<g opacity="0.5">
<path d="M539.519 50.0053H500.909C499.9 50.0053 499.082 49.1859 499.082 48.1762C499.082 46.0531 499.896 44.047 501.373 42.5252C502.55 41.3152 504.044 40.5162 505.672 40.2104C507.921 34.855 513.152 31.333 519.041 31.333C523.773 31.333 528.108 33.5805 530.833 37.3952C533.525 37.5239 536.051 38.6199 537.997 40.5118C540.07 42.5282 541.26 45.2307 541.346 48.1206C541.36 48.6152 541.175 49.0937 540.831 49.4492C540.486 49.8048 540.013 50.0053 539.519 50.0053ZM503.121 46.3472H537.394C537.037 45.1386 536.375 44.0353 535.45 43.1354C534.061 41.7834 532.229 41.0401 530.293 41.0401H530.219C530.128 41.0415 530.041 41.0459 529.953 41.0503H529.938C529.276 41.081 528.645 40.7489 528.295 40.1797C526.302 36.9299 522.842 34.9911 519.039 34.9911C514.333 34.9911 510.188 37.9966 508.725 42.4711C508.485 43.2042 507.813 43.7075 507.043 43.7295C505.28 43.7822 503.794 44.8386 503.121 46.3472Z" fill="white"/>
<path d="M61.4596 36.4839H28.9351C27.9266 36.4839 27.1082 35.6645 27.1082 34.6548C27.1082 32.5536 27.9135 30.5666 29.378 29.0609C30.5385 27.8655 32.0132 27.0768 33.6209 26.7724C35.8484 21.4829 41.0165 18.0077 46.8336 18.0077C51.5092 18.0077 55.7916 20.2259 58.4853 23.9923C61.8264 24.1591 64.9264 25.855 66.8747 28.6117C67.4579 29.437 67.262 30.5783 66.4377 31.1607C65.6134 31.7445 64.4733 31.5484 63.8916 30.7231C62.509 28.7668 60.2581 27.6167 57.8685 27.6357C57.7793 27.6372 57.6916 27.6416 57.6039 27.646C56.9375 27.6782 56.2987 27.3446 55.9494 26.7768C53.9865 23.5767 50.5796 21.6658 46.8336 21.6658C42.1989 21.6658 38.1167 24.6259 36.6742 29.0331C36.4345 29.7662 35.7621 30.2695 34.9919 30.2915C33.2731 30.3427 31.8232 31.364 31.1553 32.8273H61.4596C62.4681 32.8273 63.2865 33.6467 63.2865 34.6563C63.2865 35.6659 62.4681 36.4839 61.4596 36.4839Z" fill="white"/>
<path d="M86.7302 42.7638H56.2359C55.2274 42.7638 54.4089 41.9444 54.4089 40.9347C54.4089 37.6732 56.6612 34.9691 59.7261 34.3048C61.6057 30.0395 65.8209 27.2477 70.5564 27.2477C74.358 27.2477 77.8438 29.024 80.0727 32.0456C82.2227 32.1919 84.2353 33.0874 85.7948 34.6048C87.5034 36.267 88.4841 38.4955 88.5557 40.8791C88.5703 41.3737 88.3847 41.8522 88.0412 42.2077C87.6978 42.5633 87.2242 42.7638 86.7302 42.7638ZM58.646 39.1057H84.5174C83.7135 37.0864 81.7521 35.6832 79.4457 35.6832H79.3916C79.3244 35.6832 79.2572 35.6876 79.1899 35.6905C78.5249 35.7227 77.8891 35.3891 77.5398 34.8214C76.0359 32.3704 73.4255 30.9058 70.5579 30.9058C67.0077 30.9058 63.8799 33.1738 62.7765 36.5494C62.5368 37.2825 61.8644 37.7859 61.0942 37.8078C60.0769 37.8385 59.1927 38.3419 58.646 39.1057Z" fill="white"/>
<path d="M441.64 9.44954C441.159 9.44954 440.678 9.26078 440.32 8.88473C437.094 5.51491 432.752 3.65807 428.091 3.65807C427.083 3.65807 426.264 2.83866 426.264 1.82904C426.264 0.819408 427.083 0 428.091 0C433.758 0 439.038 2.25776 442.958 6.35627C443.655 7.08642 443.631 8.24383 442.903 8.94179C442.549 9.28126 442.094 9.44954 441.64 9.44954Z" fill="white"/>
<path d="M411.846 13.0454C411.536 13.0454 411.222 12.9664 410.934 12.7996C410.06 12.2948 409.761 11.1754 410.265 10.3004C413.036 5.49659 417.514 2.07556 422.874 0.669397C423.849 0.413331 424.849 0.998623 425.104 1.9746C425.36 2.95203 424.776 3.95142 423.801 4.20749C419.391 5.36344 415.708 8.17723 413.429 12.1279C413.093 12.7176 412.479 13.0454 411.846 13.0454Z" fill="white"/>
<path d="M411.85 31.8233C411.219 31.8233 410.605 31.4956 410.266 30.9088C407.571 26.2353 406.815 20.7818 408.136 15.5522C408.383 14.5733 409.377 13.9793 410.355 14.228C411.333 14.4753 411.926 15.4703 411.678 16.4492C410.59 20.7511 411.213 25.2359 413.429 29.0798C413.933 29.9548 413.633 31.0727 412.759 31.579C412.474 31.7443 412.16 31.8233 411.85 31.8233Z" fill="white"/>
<path d="M428.092 41.2112C422.793 41.2112 417.761 39.2007 413.92 35.55C413.188 34.855 413.159 33.6961 413.853 32.9645C414.547 32.2314 415.705 32.2021 416.436 32.8972C419.594 35.8997 423.733 37.5531 428.09 37.5531C429.099 37.5531 429.917 38.3726 429.917 39.3822C429.919 40.3918 429.1 41.2112 428.092 41.2112Z" fill="white"/>
<path d="M433.784 40.327C433.009 40.327 432.29 39.831 432.043 39.0526C431.738 38.0898 432.268 37.0611 433.23 36.7553C437.255 35.4721 440.637 32.7475 442.752 29.0807C443.257 28.2057 444.375 27.9057 445.249 28.4105C446.123 28.9153 446.422 30.0347 445.918 30.9097C443.347 35.3667 439.236 38.6809 434.341 40.2407C434.154 40.2992 433.968 40.327 433.784 40.327Z" fill="white"/>
<path d="M446.285 27.0058C446.138 27.0058 445.989 26.9883 445.84 26.9502C444.86 26.7044 444.267 25.7109 444.512 24.7305C445.588 20.4389 444.964 15.9643 442.753 12.1321C442.248 11.2571 442.548 10.1392 443.422 9.63292C444.296 9.12811 445.413 9.42807 445.918 10.3031C448.606 14.9635 449.365 20.4038 448.057 25.6216C447.848 26.4513 447.102 27.0058 446.285 27.0058Z" fill="white"/>
<path d="M441.47 22.727C441.456 22.727 441.443 22.727 441.429 22.727C440.42 22.7051 439.619 21.8681 439.641 20.8585C439.71 17.673 438.51 14.6793 436.261 12.4273C435.547 11.7133 435.547 10.5544 436.261 9.84035C436.974 9.1263 438.13 9.1263 438.845 9.84035C441.806 12.8049 443.386 16.7453 443.295 20.9375C443.275 21.9339 442.46 22.727 441.47 22.727Z" fill="white"/>
<path d="M434.845 10.8719C434.533 10.8719 434.215 10.7914 433.925 10.6217C431.24 9.05018 428.106 8.62731 425.103 9.43355C424.128 9.694 423.126 9.11603 422.865 8.14005C422.603 7.16408 423.182 6.16177 424.157 5.89985C428.11 4.83901 432.235 5.39357 435.771 7.46404C436.642 7.97471 436.934 9.09408 436.425 9.96616C436.083 10.5485 435.472 10.8719 434.845 10.8719Z" fill="white"/>
<path d="M415.168 18.968C415.012 18.968 414.853 18.9475 414.695 18.9051C413.72 18.6432 413.141 17.6408 413.403 16.6649C414.433 12.8137 416.884 9.56967 420.304 7.52847C421.171 7.01048 422.292 7.29581 422.809 8.16351C423.325 9.0312 423.042 10.1535 422.175 10.6715C419.576 12.2225 417.714 14.6866 416.932 17.613C416.713 18.4295 415.975 18.968 415.168 18.968Z" fill="white"/>
<path d="M418.631 31.9068C418.163 31.9068 417.695 31.7283 417.339 31.3713C414.57 28.5999 412.99 24.917 412.89 21.0014C412.863 19.9918 413.66 19.1519 414.668 19.1255C415.677 19.0963 416.516 19.8967 416.542 20.9063C416.62 23.881 417.82 26.6787 419.921 28.7843C420.635 29.4984 420.635 30.6572 419.921 31.3713C419.566 31.7283 419.098 31.9068 418.631 31.9068Z" fill="white"/>
<path d="M428.084 35.8337C425.677 35.8337 423.287 35.2601 421.11 34.132C420.214 33.6682 419.863 32.5649 420.326 31.6665C420.79 30.7695 421.892 30.4183 422.789 30.8822C425.35 32.2078 428.296 32.5268 431.083 31.7791C432.058 31.5172 433.059 32.0966 433.321 33.0726C433.583 34.0486 433.004 35.0509 432.029 35.3128C430.728 35.6611 429.404 35.8337 428.084 35.8337Z" fill="white"/>
<path d="M434.968 33.9275C434.347 33.9275 433.742 33.61 433.399 33.0379C432.88 32.1717 433.162 31.0479 434.027 30.5285C436.616 28.9774 438.47 26.5163 439.251 23.5986C439.512 22.6226 440.514 22.0447 441.489 22.3051C442.463 22.567 443.042 23.5693 442.781 24.5453C441.753 28.3863 439.311 31.6244 435.904 33.6671C435.61 33.8441 435.287 33.9275 434.968 33.9275Z" fill="white"/>
<path d="M436.185 24.4894C436.036 24.4894 435.884 24.4704 435.734 24.4324C434.756 24.1836 434.165 23.1871 434.414 22.2082C434.762 20.8431 434.661 19.4296 434.123 18.1215C433.739 17.1879 434.184 16.1183 435.117 15.7335C436.051 15.3486 437.118 15.7949 437.502 16.7285C438.341 18.7697 438.497 20.9762 437.955 23.1096C437.743 23.9392 437.001 24.4894 436.185 24.4894Z" fill="white"/>
<path d="M434.074 16.6066C433.597 16.6066 433.122 16.4207 432.764 16.052C431.738 14.9956 430.423 14.3327 428.958 14.1366C427.958 14.002 427.255 13.0817 427.39 12.0808C427.524 11.08 428.444 10.3761 429.443 10.5108C431.726 10.8166 433.781 11.8511 435.383 13.5016C436.086 14.2259 436.07 15.3833 435.347 16.0886C434.993 16.4339 434.533 16.6066 434.074 16.6066Z" fill="white"/>
<path d="M421.481 17.3322C421.09 17.3322 420.699 17.2078 420.367 16.9518C419.567 16.3343 419.42 15.1871 420.035 14.3867C421.337 12.6967 423.102 11.4764 425.136 10.8589C426.101 10.5662 427.122 11.112 427.415 12.0792C427.707 13.0464 427.162 14.0678 426.196 14.3604C424.893 14.7555 423.764 15.5368 422.929 16.6211C422.569 17.0879 422.029 17.3322 421.481 17.3322Z" fill="white"/>
<path d="M420.374 25.616C419.655 25.616 418.974 25.1888 418.684 24.482C417.895 22.5608 417.71 20.4742 418.149 18.4491C418.364 17.4629 419.335 16.8352 420.323 17.0503C421.309 17.2654 421.935 18.2384 421.72 19.2261C421.439 20.5211 421.558 21.857 422.064 23.089C422.448 24.0226 422.002 25.0922 421.07 25.477C420.842 25.5707 420.606 25.616 420.374 25.616Z" fill="white"/>
<path d="M426.986 30.7173C426.906 30.7173 426.824 30.7115 426.741 30.7012C424.933 30.4584 423.223 29.7355 421.796 28.6088C421.004 27.9826 420.868 26.8325 421.494 26.0394C422.118 25.2463 423.266 25.1102 424.06 25.7365C424.972 26.4564 426.067 26.9203 427.226 27.0754C428.226 27.21 428.929 28.1304 428.794 29.1312C428.671 30.0501 427.887 30.7173 426.986 30.7173Z" fill="white"/>
<path d="M430.962 30.2827C430.216 30.2827 429.516 29.8218 429.246 29.0799C428.899 28.1303 429.387 27.0811 430.336 26.7343C431.491 26.3129 432.501 25.5711 433.256 24.5892C433.872 23.7889 435.02 23.6411 435.818 24.2571C436.618 24.8746 436.766 26.0217 436.15 26.8221C434.972 28.3527 433.394 29.5101 431.589 30.17C431.381 30.2476 431.169 30.2827 430.962 30.2827Z" fill="white"/>
<path d="M287.061 147.718H215.723C214.714 147.718 213.896 146.898 213.896 145.889V51.7269C213.896 50.7172 214.714 49.8978 215.723 49.8978H287.061C288.069 49.8978 288.888 50.7172 288.888 51.7269V145.89C288.888 146.9 288.069 147.718 287.061 147.718ZM217.55 144.06H285.234V53.5559H217.55V144.06Z" fill="white"/>
<path d="M287.061 76.3372H215.723C214.714 76.3372 213.896 75.5178 213.896 74.5082V68.0319C213.896 67.0223 214.714 66.2029 215.723 66.2029H287.061C288.069 66.2029 288.888 67.0223 288.888 68.0319V74.5082C288.888 75.5178 288.069 76.3372 287.061 76.3372ZM217.55 72.6791H285.234V69.861H217.55V72.6791Z" fill="white"/>
<path d="M287.061 103.876H215.723C214.714 103.876 213.896 103.057 213.896 102.047V95.5706C213.896 94.561 214.714 93.7416 215.723 93.7416H287.061C288.069 93.7416 288.888 94.561 288.888 95.5706V102.047C288.888 103.058 288.069 103.876 287.061 103.876ZM217.55 100.218H285.234V97.3997H217.55V100.218Z" fill="white"/>
<path d="M287.061 131.414H215.723C214.714 131.414 213.896 130.595 213.896 129.585V123.109C213.896 122.1 214.714 121.28 215.723 121.28H287.061C288.069 121.28 288.888 122.1 288.888 123.109V129.585C288.888 130.595 288.069 131.414 287.061 131.414ZM217.55 127.756H285.234V124.938H217.55V127.756Z" fill="white"/>
<path d="M274.161 53.5568H228.623C227.614 53.5568 226.796 52.7374 226.796 51.7278V39.3094C226.796 38.2998 227.614 37.4803 228.623 37.4803H274.161C275.17 37.4803 275.988 38.2998 275.988 39.3094V51.7278C275.988 52.7374 275.17 53.5568 274.161 53.5568ZM230.45 49.8988H272.334V41.1384H230.45V49.8988Z" fill="white"/>
<path d="M267.129 41.1382H235.654C234.646 41.1382 233.827 40.3188 233.827 39.3091V27.4555C233.827 26.4459 234.646 25.6265 235.654 25.6265H267.129C268.138 25.6265 268.956 26.4459 268.956 27.4555V39.3091C268.956 40.3188 268.139 41.1382 267.129 41.1382ZM237.481 37.4801H265.302V29.2845H237.481V37.4801Z" fill="white"/>
<path d="M295.478 180.999H207.305C206.297 180.999 205.479 180.18 205.479 179.17V145.889C205.479 144.879 206.297 144.06 207.305 144.06H295.478C296.486 144.06 297.305 144.879 297.305 145.889V179.17C297.305 180.181 296.486 180.999 295.478 180.999ZM209.132 177.341H293.651V147.718H209.132V177.341Z" fill="white"/>
<path d="M229.311 180.999H215.723C214.714 180.999 213.896 180.18 213.896 179.17V153.95C213.896 152.94 214.714 152.121 215.723 152.121H229.311C230.319 152.121 231.138 152.94 231.138 153.95V179.17C231.138 180.181 230.319 180.999 229.311 180.999ZM217.55 177.341H227.484V155.779H217.55V177.341Z" fill="white"/>
<path d="M287.061 180.999H273.472C272.464 180.999 271.646 180.18 271.646 179.17V153.95C271.646 152.94 272.464 152.121 273.472 152.121H287.061C288.069 152.121 288.888 152.94 288.888 153.95V179.17C288.888 180.181 288.069 180.999 287.061 180.999ZM275.299 177.341H285.234V155.779H275.299V177.341Z" fill="white"/>
<path d="M258.185 180.999H244.597C243.589 180.999 242.77 180.18 242.77 179.17V153.95C242.77 152.94 243.589 152.121 244.597 152.121H258.185C259.194 152.121 260.012 152.94 260.012 153.95V179.17C260.012 180.181 259.194 180.999 258.185 180.999ZM246.424 177.341H256.359V155.779H246.424V177.341Z" fill="white"/>
<path d="M251.391 29.047C250.383 29.047 249.564 28.2276 249.564 27.218V12.4042C249.564 11.3946 250.383 10.5752 251.391 10.5752C252.4 10.5752 253.218 11.3946 253.218 12.4042V27.218C253.218 28.2291 252.401 29.047 251.391 29.047Z" fill="white"/>
<path d="M228.805 146.971C227.797 146.971 226.979 146.152 226.979 145.142V51.7269C226.979 50.7172 227.797 49.8978 228.805 49.8978C229.814 49.8978 230.632 50.7172 230.632 51.7269V145.142C230.632 146.152 229.815 146.971 228.805 146.971Z" fill="white"/>
<path d="M273.978 146.971C272.97 146.971 272.151 146.152 272.151 145.142V51.7269C272.151 50.7172 272.97 49.8978 273.978 49.8978C274.987 49.8978 275.805 50.7172 275.805 51.7269V145.142C275.805 146.152 274.987 146.971 273.978 146.971Z" fill="white"/>
<path d="M243.862 146.971C242.854 146.971 242.035 146.152 242.035 145.142V51.7269C242.035 50.7172 242.854 49.8978 243.862 49.8978C244.871 49.8978 245.689 50.7172 245.689 51.7269V145.142C245.689 146.152 244.872 146.971 243.862 146.971Z" fill="white"/>
<path d="M258.92 146.971C257.911 146.971 257.093 146.152 257.093 145.142V51.7269C257.093 50.7172 257.911 49.8978 258.92 49.8978C259.928 49.8978 260.747 50.7172 260.747 51.7269V145.142C260.747 146.152 259.93 146.971 258.92 146.971Z" fill="white"/>
<path d="M191.906 67.6257H144.929C143.92 67.6257 143.102 66.8063 143.102 65.7967V49.7348C143.102 48.7252 143.92 47.9058 144.929 47.9058H191.906C192.915 47.9058 193.733 48.7252 193.733 49.7348V65.7967C193.733 66.8078 192.916 67.6257 191.906 67.6257ZM146.755 63.9676H190.079V51.5638H146.755V63.9676V63.9676Z" fill="white"/>
<path d="M207.306 180.999H129.53C128.521 180.999 127.703 180.179 127.703 179.17V65.7971C127.703 64.7874 128.521 63.968 129.53 63.968H207.306C208.314 63.968 209.133 64.7874 209.133 65.7971V179.17C209.133 180.181 208.314 180.999 207.306 180.999ZM131.357 177.341H205.479V67.6261H131.357V177.341Z" fill="white"/>
<path d="M182.465 51.5651H154.372C153.735 51.5651 153.144 51.233 152.812 50.6886C152.481 50.1443 152.456 49.4654 152.748 48.8991L156.691 41.2377C157.004 40.629 157.631 40.2471 158.315 40.2471H178.127C178.785 40.2471 179.391 40.6012 179.716 41.1748L184.054 48.8362C184.374 49.4025 184.371 50.096 184.043 50.6594C183.716 51.2198 183.115 51.5651 182.465 51.5651ZM157.368 47.9071H179.328L177.061 43.9037H159.429L157.368 47.9071Z" fill="white"/>
<path d="M178.127 43.9036H158.71C157.701 43.9036 156.883 43.0841 156.883 42.0745V29.2376C156.883 28.7811 157.054 28.3406 157.362 28.0026L167.071 17.3796C167.418 17.0006 167.906 16.7855 168.419 16.7855C168.932 16.7855 169.42 17.0006 169.767 17.3796L179.476 28.0026C179.784 28.3392 179.955 28.7796 179.955 29.2376V42.0745C179.954 43.0856 179.135 43.9036 178.127 43.9036ZM160.535 40.2455H176.298V29.9487L168.416 21.3245L160.534 29.9487V40.2455H160.535Z" fill="white"/>
<path d="M168.418 51.2879C167.409 51.2879 166.591 50.4685 166.591 49.4589V11.0374C166.591 10.0278 167.409 9.20837 168.418 9.20837C169.426 9.20837 170.245 10.0278 170.245 11.0374V49.4589C170.245 50.4685 169.427 51.2879 168.418 51.2879Z" fill="white"/>
<path d="M145.269 86.1021H138.568C137.56 86.1021 136.741 85.2827 136.741 84.2731V74.465C136.741 73.4554 137.56 72.636 138.568 72.636H145.269C146.278 72.636 147.096 73.4554 147.096 74.465V84.2731C147.096 85.2827 146.279 86.1021 145.269 86.1021ZM140.397 82.444H143.444V76.2941H140.397V82.444Z" fill="white"/>
<path d="M158.52 86.1021H151.819C150.81 86.1021 149.992 85.2827 149.992 84.2731V74.465C149.992 73.4554 150.81 72.636 151.819 72.636H158.52C159.528 72.636 160.347 73.4554 160.347 74.465V84.2731C160.347 85.2827 159.528 86.1021 158.52 86.1021ZM153.646 82.444H156.693V76.2941H153.646V82.444Z" fill="white"/>
<path d="M171.77 86.1021H165.068C164.06 86.1021 163.241 85.2827 163.241 84.2731V74.465C163.241 73.4554 164.06 72.636 165.068 72.636H171.77C172.778 72.636 173.597 73.4554 173.597 74.465V84.2731C173.597 85.2827 172.778 86.1021 171.77 86.1021ZM166.895 82.444H169.943V76.2941H166.895V82.444Z" fill="white"/>
<path d="M185.019 86.1021H178.317C177.309 86.1021 176.49 85.2827 176.49 84.2731V74.465C176.49 73.4554 177.309 72.636 178.317 72.636H185.019C186.027 72.636 186.846 73.4554 186.846 74.465V84.2731C186.846 85.2827 186.027 86.1021 185.019 86.1021ZM180.144 82.444H183.192V76.2941H180.144V82.444Z" fill="white"/>
<path d="M198.268 86.1021H191.566C190.558 86.1021 189.739 85.2827 189.739 84.2731V74.465C189.739 73.4554 190.558 72.636 191.566 72.636H198.268C199.276 72.636 200.095 73.4554 200.095 74.465V84.2731C200.095 85.2827 199.276 86.1021 198.268 86.1021ZM193.393 82.444H196.441V76.2941H193.393V82.444Z" fill="white"/>
<path d="M145.269 102.741H138.568C137.56 102.741 136.741 101.922 136.741 100.912V91.1043C136.741 90.0947 137.56 89.2753 138.568 89.2753H145.269C146.278 89.2753 147.096 90.0947 147.096 91.1043V100.912C147.096 101.922 146.279 102.741 145.269 102.741ZM140.397 99.0833H143.444V92.9333H140.397V99.0833Z" fill="white"/>
<path d="M158.52 102.741H151.819C150.81 102.741 149.992 101.922 149.992 100.912V91.1043C149.992 90.0947 150.81 89.2753 151.819 89.2753H158.52C159.528 89.2753 160.347 90.0947 160.347 91.1043V100.912C160.347 101.922 159.528 102.741 158.52 102.741ZM153.646 99.0833H156.693V92.9333H153.646V99.0833Z" fill="white"/>
<path d="M171.77 102.741H165.068C164.06 102.741 163.241 101.922 163.241 100.912V91.1043C163.241 90.0947 164.06 89.2753 165.068 89.2753H171.77C172.778 89.2753 173.597 90.0947 173.597 91.1043V100.912C173.597 101.922 172.778 102.741 171.77 102.741ZM166.895 99.0833H169.943V92.9333H166.895V99.0833Z" fill="white"/>
<path d="M185.019 102.741H178.317C177.309 102.741 176.49 101.922 176.49 100.912V91.1043C176.49 90.0947 177.309 89.2753 178.317 89.2753H185.019C186.027 89.2753 186.846 90.0947 186.846 91.1043V100.912C186.846 101.922 186.027 102.741 185.019 102.741ZM180.144 99.0833H183.192V92.9333H180.144V99.0833Z" fill="white"/>
<path d="M198.268 102.741H191.566C190.558 102.741 189.739 101.922 189.739 100.912V91.1043C189.739 90.0947 190.558 89.2753 191.566 89.2753H198.268C199.276 89.2753 200.095 90.0947 200.095 91.1043V100.912C200.095 101.922 199.276 102.741 198.268 102.741ZM193.393 99.0833H196.441V92.9333H193.393V99.0833Z" fill="white"/>
<path d="M145.269 136.02H138.568C137.56 136.02 136.741 135.2 136.741 134.191V124.383C136.741 123.373 137.56 122.554 138.568 122.554H145.269C146.278 122.554 147.096 123.373 147.096 124.383V134.191C147.096 135.2 146.279 136.02 145.269 136.02ZM140.397 132.362H143.444V126.212H140.397V132.362Z" fill="white"/>
<path d="M158.52 136.02H151.819C150.81 136.02 149.992 135.2 149.992 134.191V124.383C149.992 123.373 150.81 122.554 151.819 122.554H158.52C159.528 122.554 160.347 123.373 160.347 124.383V134.191C160.347 135.2 159.528 136.02 158.52 136.02ZM153.646 132.362H156.693V126.212H153.646V132.362Z" fill="white"/>
<path d="M171.77 136.02H165.068C164.06 136.02 163.241 135.2 163.241 134.191V124.383C163.241 123.373 164.06 122.554 165.068 122.554H171.77C172.778 122.554 173.597 123.373 173.597 124.383V134.191C173.597 135.2 172.778 136.02 171.77 136.02ZM166.895 132.362H169.943V126.212H166.895V132.362Z" fill="white"/>
<path d="M185.019 136.02H178.317C177.309 136.02 176.49 135.2 176.49 134.191V124.383C176.49 123.373 177.309 122.554 178.317 122.554H185.019C186.027 122.554 186.846 123.373 186.846 124.383V134.191C186.846 135.2 186.027 136.02 185.019 136.02ZM180.144 132.362H183.192V126.212H180.144V132.362Z" fill="white"/>
<path d="M198.268 136.02H191.566C190.558 136.02 189.739 135.2 189.739 134.191V124.383C189.739 123.373 190.558 122.554 191.566 122.554H198.268C199.276 122.554 200.095 123.373 200.095 124.383V134.191C200.095 135.2 199.276 136.02 198.268 136.02ZM193.393 132.362H196.441V126.212H193.393V132.362Z" fill="white"/>
<path d="M145.269 169.297H138.568C137.56 169.297 136.741 168.477 136.741 167.468V157.66C136.741 156.65 137.56 155.831 138.568 155.831H145.269C146.278 155.831 147.096 156.65 147.096 157.66V167.468C147.096 168.479 146.279 169.297 145.269 169.297ZM140.397 165.639H143.444V159.489H140.397V165.639Z" fill="white"/>
<path d="M158.52 169.297H151.819C150.81 169.297 149.992 168.477 149.992 167.468V157.66C149.992 156.65 150.81 155.831 151.819 155.831H158.52C159.528 155.831 160.347 156.65 160.347 157.66V167.468C160.347 168.479 159.528 169.297 158.52 169.297ZM153.646 165.639H156.693V159.489H153.646V165.639Z" fill="white"/>
<path d="M171.77 169.297H165.068C164.06 169.297 163.241 168.477 163.241 167.468V157.66C163.241 156.65 164.06 155.831 165.068 155.831H171.77C172.778 155.831 173.597 156.65 173.597 157.66V167.468C173.597 168.479 172.778 169.297 171.77 169.297ZM166.895 165.639H169.943V159.489H166.895V165.639Z" fill="white"/>
<path d="M185.019 169.297H178.317C177.309 169.297 176.49 168.477 176.49 167.468V157.66C176.49 156.65 177.309 155.831 178.317 155.831H185.019C186.027 155.831 186.846 156.65 186.846 157.66V167.468C186.846 168.479 186.027 169.297 185.019 169.297ZM180.144 165.639H183.192V159.489H180.144V165.639Z" fill="white"/>
<path d="M198.268 169.297H191.566C190.558 169.297 189.739 168.477 189.739 167.468V157.66C189.739 156.65 190.558 155.831 191.566 155.831H198.268C199.276 155.831 200.095 156.65 200.095 157.66V167.468C200.095 168.479 199.276 169.297 198.268 169.297ZM193.393 165.639H196.441V159.489H193.393V165.639Z" fill="white"/>
<path d="M198.268 109.573H138.57C137.561 109.573 136.743 108.753 136.743 107.744C136.743 106.734 137.561 105.915 138.57 105.915H198.268C199.276 105.915 200.095 106.734 200.095 107.744C200.095 108.753 199.276 109.573 198.268 109.573Z" fill="white"/>
<path d="M198.268 119.38H138.57C137.561 119.38 136.743 118.56 136.743 117.551C136.743 116.541 137.561 115.722 138.57 115.722H198.268C199.276 115.722 200.095 116.541 200.095 117.551C200.095 118.562 199.276 119.38 198.268 119.38Z" fill="white"/>
<path d="M198.268 114.476H138.57C137.561 114.476 136.743 113.657 136.743 112.647C136.743 111.637 137.561 110.818 138.57 110.818H198.268C199.276 110.818 200.095 111.637 200.095 112.647C200.095 113.657 199.276 114.476 198.268 114.476Z" fill="white"/>
<path d="M184.461 57.1441H152.376C151.368 57.1441 150.549 56.3247 150.549 55.3151C150.549 54.3055 151.368 53.4861 152.376 53.4861H184.461C185.469 53.4861 186.288 54.3055 186.288 55.3151C186.288 56.3247 185.47 57.1441 184.461 57.1441Z" fill="white"/>
<path d="M184.461 62.0476H152.376C151.368 62.0476 150.549 61.2282 150.549 60.2186C150.549 59.2089 151.368 58.3895 152.376 58.3895H184.461C185.469 58.3895 186.288 59.2089 186.288 60.2186C186.288 61.2297 185.47 62.0476 184.461 62.0476Z" fill="white"/>
<path d="M198.268 142.849H138.57C137.561 142.849 136.743 142.03 136.743 141.02C136.743 140.011 137.561 139.191 138.57 139.191H198.268C199.276 139.191 200.095 140.011 200.095 141.02C200.095 142.032 199.276 142.849 198.268 142.849Z" fill="white"/>
<path d="M198.268 152.658H138.57C137.561 152.658 136.743 151.839 136.743 150.829C136.743 149.819 137.561 149 138.57 149H198.268C199.276 149 200.095 149.819 200.095 150.829C200.095 151.839 199.276 152.658 198.268 152.658Z" fill="white"/>
<path d="M198.268 147.755H138.57C137.561 147.755 136.743 146.935 136.743 145.926C136.743 144.916 137.561 144.097 138.57 144.097H198.268C199.276 144.097 200.095 144.916 200.095 145.926C200.095 146.935 199.276 147.755 198.268 147.755Z" fill="white"/>
<path d="M324.666 15.7336C324.366 15.7336 324.062 15.659 323.781 15.5039C322.899 15.0137 322.58 13.9002 323.07 13.0179C325.728 8.21849 333.352 4.995 342.042 4.995C343.051 4.995 343.869 5.8144 343.869 6.82403C343.869 7.83366 343.051 8.65307 342.042 8.65307C338.309 8.65307 334.781 9.29835 331.836 10.5172C329.156 11.6278 327.178 13.1452 326.266 14.7928C325.931 15.3942 325.309 15.7336 324.666 15.7336Z" fill="white"/>
<path d="M359.418 15.7334C358.775 15.7334 358.153 15.3939 357.819 14.7911C356.907 13.1449 354.928 11.6261 352.249 10.5155C349.304 9.29518 345.776 8.65136 342.043 8.65136C341.035 8.65136 340.216 7.83195 340.216 6.82232C340.216 5.81269 341.035 4.99329 342.043 4.99329C350.734 4.99329 358.357 8.21824 361.016 13.0162C361.506 13.9 361.187 15.0135 360.304 15.5022C360.022 15.6602 359.718 15.7334 359.418 15.7334Z" fill="white"/>
<path d="M357.564 180.999H326.522C325.513 180.999 324.695 180.18 324.695 179.17V11.6305C324.695 11.1125 324.914 10.6194 325.297 10.2726C328.952 6.96718 335.212 4.99329 342.044 4.99329C348.874 4.99329 355.134 6.96718 358.789 10.2726C359.172 10.6194 359.391 11.1125 359.391 11.6305V179.17C359.391 180.181 358.573 180.999 357.564 180.999ZM328.347 177.341H355.736V12.4836C352.674 10.1058 347.525 8.65282 342.041 8.65282C336.557 8.65282 331.409 10.1073 328.346 12.4836V177.341H328.347Z" fill="white"/>
<path d="M388.607 180.999H357.564C356.556 180.999 355.737 180.179 355.737 179.17V46.8746C355.737 46.4752 355.867 46.0874 356.109 45.7699C356.199 45.6499 358.377 42.8098 362.769 39.9989C366.777 37.4339 373.509 34.3743 382.819 34.3743C384.78 34.3743 386.807 34.5103 388.845 34.7781C389.754 34.8981 390.434 35.6736 390.434 36.5911V179.17C390.434 180.181 389.615 180.999 388.607 180.999ZM359.391 177.341H386.78V38.224C385.438 38.0967 384.111 38.0323 382.817 38.0323C368.713 38.0323 361.097 45.6133 359.39 47.5404V177.341H359.391Z" fill="white"/>
<path d="M390.628 38.6725C390.552 38.6725 390.476 38.6681 390.398 38.6578L388.38 38.4047C387.379 38.2789 386.669 37.3658 386.794 36.3635C386.92 35.3612 387.832 34.6501 388.833 34.7759L390.852 35.029C391.853 35.1549 392.563 36.0679 392.437 37.0702C392.322 37.995 391.536 38.6725 390.628 38.6725Z" fill="white"/>
<path d="M326.521 180.999H295.478C294.47 180.999 293.651 180.179 293.651 179.17V36.5911C293.651 35.6736 294.331 34.8966 295.24 34.7781C297.277 34.5103 299.304 34.3743 301.266 34.3743C306.405 34.3743 314.055 35.3502 321.316 39.9989C325.706 42.8098 327.886 45.6514 327.976 45.7699C328.217 46.0874 328.347 46.4766 328.347 46.8746V179.17C328.347 180.181 327.53 180.999 326.521 180.999ZM297.305 177.341H324.694V47.5419C323.958 46.7152 322.133 44.8408 319.207 42.9912C314.004 39.7019 307.969 38.0338 301.266 38.0338C299.972 38.0338 298.645 38.0982 297.304 38.2255V177.341H297.305Z" fill="white"/>
<path d="M293.457 38.6725C292.549 38.6725 291.761 37.995 291.646 37.0702C291.52 36.0679 292.23 35.1534 293.232 35.029L295.25 34.7759C296.251 34.6501 297.165 35.3612 297.289 36.3635C297.415 37.3658 296.704 38.2803 295.703 38.4047L293.685 38.6578C293.609 38.6681 293.533 38.6725 293.457 38.6725Z" fill="white"/>
<path d="M335.714 43.991H331.503C330.494 43.991 329.676 43.1716 329.676 42.162V29.0368C329.676 28.0272 330.494 27.2078 331.503 27.2078H335.714C336.722 27.2078 337.54 28.0272 337.54 29.0368V42.162C337.54 43.1716 336.723 43.991 335.714 43.991ZM333.331 40.3329H333.888V30.8658H333.331V40.3329Z" fill="white"/>
<path d="M344.147 43.991H339.938C338.929 43.991 338.111 43.1716 338.111 42.162V29.0368C338.111 28.0272 338.929 27.2078 339.938 27.2078H344.147C345.155 27.2078 345.974 28.0272 345.974 29.0368V42.162C345.974 43.1716 345.155 43.991 344.147 43.991ZM341.765 40.3329H342.32V30.8658H341.765V40.3329Z" fill="white"/>
<path d="M352.58 43.991H348.371C347.362 43.991 346.544 43.1716 346.544 42.162V29.0368C346.544 28.0272 347.362 27.2078 348.371 27.2078H352.58C353.589 27.2078 354.407 28.0272 354.407 29.0368V42.162C354.407 43.1716 353.589 43.991 352.58 43.991ZM350.198 40.3329H350.753V30.8658H350.198V40.3329Z" fill="white"/>
<path d="M335.714 66.3052H331.503C330.494 66.3052 329.676 65.4858 329.676 64.4762V51.351C329.676 50.3414 330.494 49.522 331.503 49.522H335.714C336.722 49.522 337.54 50.3414 337.54 51.351V64.4762C337.54 65.4858 336.723 66.3052 335.714 66.3052ZM333.331 62.6471H333.888V53.18H333.331V62.6471Z" fill="white"/>
<path d="M344.147 66.3052H339.938C338.929 66.3052 338.111 65.4858 338.111 64.4762V51.351C338.111 50.3414 338.929 49.522 339.938 49.522H344.147C345.155 49.522 345.974 50.3414 345.974 51.351V64.4762C345.974 65.4858 345.155 66.3052 344.147 66.3052ZM341.765 62.6471H342.32V53.18H341.765V62.6471Z" fill="white"/>
<path d="M352.58 66.3052H348.371C347.362 66.3052 346.544 65.4858 346.544 64.4762V51.351C346.544 50.3414 347.362 49.522 348.371 49.522H352.58C353.589 49.522 354.407 50.3414 354.407 51.351V64.4762C354.407 65.4858 353.589 66.3052 352.58 66.3052ZM350.198 62.6471H350.753V53.18H350.198V62.6471Z" fill="white"/>
<path d="M310.822 175.401C309.813 175.401 308.995 174.582 308.995 173.572V47.6098C308.995 46.6002 309.813 45.7808 310.822 45.7808C311.83 45.7808 312.649 46.6002 312.649 47.6098V173.572C312.649 174.582 311.832 175.401 310.822 175.401Z" fill="white"/>
<path d="M336.778 175.4C335.769 175.4 334.951 174.581 334.951 173.571V72.6276C334.951 71.618 335.769 70.7986 336.778 70.7986C337.786 70.7986 338.605 71.618 338.605 72.6276V173.571C338.605 174.581 337.786 175.4 336.778 175.4Z" fill="white"/>
<path d="M347.307 175.4C346.298 175.4 345.48 174.581 345.48 173.571V72.6276C345.48 71.618 346.298 70.7986 347.307 70.7986C348.315 70.7986 349.134 71.618 349.134 72.6276V173.571C349.134 174.581 348.315 175.4 347.307 175.4Z" fill="white"/>
<path d="M374.207 175.401C373.198 175.401 372.38 174.582 372.38 173.572V47.6098C372.38 46.6002 373.198 45.7808 374.207 45.7808C375.215 45.7808 376.034 46.6002 376.034 47.6098V173.572C376.034 174.582 375.215 175.401 374.207 175.401Z" fill="white"/>
<path d="M332.868 80.9299H329.991C328.983 80.9299 328.164 80.1105 328.164 79.1009C328.164 78.0913 328.983 77.2719 329.991 77.2719H332.868C333.876 77.2719 334.695 78.0913 334.695 79.1009C334.695 80.1105 333.876 80.9299 332.868 80.9299Z" fill="white"/>
<path d="M343.339 80.9299H340.462C339.454 80.9299 338.635 80.1105 338.635 79.1009C338.635 78.0913 339.454 77.2719 340.462 77.2719H343.339C344.347 77.2719 345.166 78.0913 345.166 79.1009C345.166 80.1105 344.347 80.9299 343.339 80.9299Z" fill="white"/>
<path d="M353.807 80.9299H350.931C349.922 80.9299 349.104 80.1105 349.104 79.1009C349.104 78.0913 349.922 77.2719 350.931 77.2719H353.807C354.816 77.2719 355.634 78.0913 355.634 79.1009C355.634 80.1105 354.817 80.9299 353.807 80.9299Z" fill="white"/>
<path d="M332.868 93.527H329.991C328.983 93.527 328.164 92.7076 328.164 91.6979C328.164 90.6883 328.983 89.8689 329.991 89.8689H332.868C333.876 89.8689 334.695 90.6883 334.695 91.6979C334.695 92.7076 333.876 93.527 332.868 93.527Z" fill="white"/>
<path d="M343.339 93.527H340.462C339.454 93.527 338.635 92.7076 338.635 91.6979C338.635 90.6883 339.454 89.8689 340.462 89.8689H343.339C344.347 89.8689 345.166 90.6883 345.166 91.6979C345.166 92.7076 344.347 93.527 343.339 93.527Z" fill="white"/>
<path d="M353.807 93.527H350.931C349.922 93.527 349.104 92.7076 349.104 91.6979C349.104 90.6883 349.922 89.8689 350.931 89.8689H353.807C354.816 89.8689 355.634 90.6883 355.634 91.6979C355.634 92.7076 354.817 93.527 353.807 93.527Z" fill="white"/>
<path d="M332.868 106.122H329.991C328.983 106.122 328.164 105.303 328.164 104.293C328.164 103.284 328.983 102.464 329.991 102.464H332.868C333.876 102.464 334.695 103.284 334.695 104.293C334.695 105.303 333.876 106.122 332.868 106.122Z" fill="white"/>
<path d="M343.339 106.122H340.462C339.454 106.122 338.635 105.303 338.635 104.293C338.635 103.284 339.454 102.464 340.462 102.464H343.339C344.347 102.464 345.166 103.284 345.166 104.293C345.166 105.303 344.347 106.122 343.339 106.122Z" fill="white"/>
<path d="M353.807 106.122H350.931C349.922 106.122 349.104 105.303 349.104 104.293C349.104 103.284 349.922 102.464 350.931 102.464H353.807C354.816 102.464 355.634 103.284 355.634 104.293C355.634 105.303 354.817 106.122 353.807 106.122Z" fill="white"/>
<path d="M332.868 118.719H329.991C328.983 118.719 328.164 117.9 328.164 116.89C328.164 115.881 328.983 115.061 329.991 115.061H332.868C333.876 115.061 334.695 115.881 334.695 116.89C334.695 117.9 333.876 118.719 332.868 118.719Z" fill="white"/>
<path d="M343.339 118.719H340.462C339.454 118.719 338.635 117.9 338.635 116.89C338.635 115.881 339.454 115.061 340.462 115.061H343.339C344.347 115.061 345.166 115.881 345.166 116.89C345.166 117.9 344.347 118.719 343.339 118.719Z" fill="white"/>
<path d="M353.807 118.719H350.931C349.922 118.719 349.104 117.9 349.104 116.89C349.104 115.881 349.922 115.061 350.931 115.061H353.807C354.816 115.061 355.634 115.881 355.634 116.89C355.634 117.9 354.817 118.719 353.807 118.719Z" fill="white"/>
<path d="M332.868 131.315H329.991C328.983 131.315 328.164 130.495 328.164 129.486C328.164 128.476 328.983 127.657 329.991 127.657H332.868C333.876 127.657 334.695 128.476 334.695 129.486C334.695 130.497 333.876 131.315 332.868 131.315Z" fill="white"/>
<path d="M343.339 131.315H340.462C339.454 131.315 338.635 130.495 338.635 129.486C338.635 128.476 339.454 127.657 340.462 127.657H343.339C344.347 127.657 345.166 128.476 345.166 129.486C345.166 130.497 344.347 131.315 343.339 131.315Z" fill="white"/>
<path d="M353.807 131.315H350.931C349.922 131.315 349.104 130.495 349.104 129.486C349.104 128.476 349.922 127.657 350.931 127.657H353.807C354.816 127.657 355.634 128.476 355.634 129.486C355.634 130.497 354.817 131.315 353.807 131.315Z" fill="white"/>
<path d="M332.868 143.912H329.991C328.983 143.912 328.164 143.093 328.164 142.083C328.164 141.073 328.983 140.254 329.991 140.254H332.868C333.876 140.254 334.695 141.073 334.695 142.083C334.695 143.093 333.876 143.912 332.868 143.912Z" fill="white"/>
<path d="M343.339 143.912H340.462C339.454 143.912 338.635 143.093 338.635 142.083C338.635 141.073 339.454 140.254 340.462 140.254H343.339C344.347 140.254 345.166 141.073 345.166 142.083C345.166 143.093 344.347 143.912 343.339 143.912Z" fill="white"/>
<path d="M353.807 143.912H350.931C349.922 143.912 349.104 143.093 349.104 142.083C349.104 141.073 349.922 140.254 350.931 140.254H353.807C354.816 140.254 355.634 141.073 355.634 142.083C355.634 143.093 354.817 143.912 353.807 143.912Z" fill="white"/>
<path d="M332.868 156.507H329.991C328.983 156.507 328.164 155.688 328.164 154.678C328.164 153.669 328.983 152.849 329.991 152.849H332.868C333.876 152.849 334.695 153.669 334.695 154.678C334.695 155.688 333.876 156.507 332.868 156.507Z" fill="white"/>
<path d="M343.339 156.507H340.462C339.454 156.507 338.635 155.688 338.635 154.678C338.635 153.669 339.454 152.849 340.462 152.849H343.339C344.347 152.849 345.166 153.669 345.166 154.678C345.166 155.688 344.347 156.507 343.339 156.507Z" fill="white"/>
<path d="M353.807 156.507H350.931C349.922 156.507 349.104 155.688 349.104 154.678C349.104 153.669 349.922 152.849 350.931 152.849H353.807C354.816 152.849 355.634 153.669 355.634 154.678C355.634 155.688 354.817 156.507 353.807 156.507Z" fill="white"/>
<path d="M332.868 169.104H329.991C328.983 169.104 328.164 168.285 328.164 167.275C328.164 166.266 328.983 165.446 329.991 165.446H332.868C333.876 165.446 334.695 166.266 334.695 167.275C334.695 168.285 333.876 169.104 332.868 169.104Z" fill="white"/>
<path d="M343.339 169.104H340.462C339.454 169.104 338.635 168.285 338.635 167.275C338.635 166.266 339.454 165.446 340.462 165.446H343.339C344.347 165.446 345.166 166.266 345.166 167.275C345.166 168.285 344.347 169.104 343.339 169.104Z" fill="white"/>
<path d="M353.807 169.104H350.931C349.922 169.104 349.104 168.285 349.104 167.275C349.104 166.266 349.922 165.446 350.931 165.446H353.807C354.816 165.446 355.634 166.266 355.634 167.275C355.634 168.285 354.817 169.104 353.807 169.104Z" fill="white"/>
<path d="M306.913 55.7374H304.037C303.028 55.7374 302.21 54.918 302.21 53.9084C302.21 52.8988 303.028 52.0793 304.037 52.0793H306.913C307.922 52.0793 308.74 52.8988 308.74 53.9084C308.74 54.918 307.922 55.7374 306.913 55.7374Z" fill="white"/>
<path d="M317.383 55.7374H314.506C313.498 55.7374 312.679 54.918 312.679 53.9084C312.679 52.8988 313.498 52.0793 314.506 52.0793H317.383C318.391 52.0793 319.209 52.8988 319.209 53.9084C319.209 54.918 318.392 55.7374 317.383 55.7374Z" fill="white"/>
<path d="M306.913 68.3345H304.037C303.028 68.3345 302.21 67.5151 302.21 66.5054C302.21 65.4958 303.028 64.6764 304.037 64.6764H306.913C307.922 64.6764 308.74 65.4958 308.74 66.5054C308.74 67.5151 307.922 68.3345 306.913 68.3345Z" fill="white"/>
<path d="M317.383 68.3345H314.506C313.498 68.3345 312.679 67.5151 312.679 66.5054C312.679 65.4958 313.498 64.6764 314.506 64.6764H317.383C318.391 64.6764 319.209 65.4958 319.209 66.5054C319.209 67.5151 318.392 68.3345 317.383 68.3345Z" fill="white"/>
<path d="M306.913 80.9299H304.037C303.028 80.9299 302.21 80.1105 302.21 79.1009C302.21 78.0913 303.028 77.2719 304.037 77.2719H306.913C307.922 77.2719 308.74 78.0913 308.74 79.1009C308.74 80.1105 307.922 80.9299 306.913 80.9299Z" fill="white"/>
<path d="M317.383 80.9299H314.506C313.498 80.9299 312.679 80.1105 312.679 79.1009C312.679 78.0913 313.498 77.2719 314.506 77.2719H317.383C318.391 77.2719 319.209 78.0913 319.209 79.1009C319.209 80.1105 318.392 80.9299 317.383 80.9299Z" fill="white"/>
<path d="M306.913 93.527H304.037C303.028 93.527 302.21 92.7076 302.21 91.6979C302.21 90.6883 303.028 89.8689 304.037 89.8689H306.913C307.922 89.8689 308.74 90.6883 308.74 91.6979C308.74 92.7076 307.922 93.527 306.913 93.527Z" fill="white"/>
<path d="M317.383 93.527H314.506C313.498 93.527 312.679 92.7076 312.679 91.6979C312.679 90.6883 313.498 89.8689 314.506 89.8689H317.383C318.391 89.8689 319.209 90.6883 319.209 91.6979C319.209 92.7076 318.392 93.527 317.383 93.527Z" fill="white"/>
<path d="M306.913 106.122H304.037C303.028 106.122 302.21 105.303 302.21 104.293C302.21 103.284 303.028 102.464 304.037 102.464H306.913C307.922 102.464 308.74 103.284 308.74 104.293C308.74 105.303 307.922 106.122 306.913 106.122Z" fill="white"/>
<path d="M317.383 106.122H314.506C313.498 106.122 312.679 105.303 312.679 104.293C312.679 103.284 313.498 102.464 314.506 102.464H317.383C318.391 102.464 319.209 103.284 319.209 104.293C319.209 105.303 318.392 106.122 317.383 106.122Z" fill="white"/>
<path d="M306.913 118.719H304.037C303.028 118.719 302.21 117.9 302.21 116.89C302.21 115.881 303.028 115.061 304.037 115.061H306.913C307.922 115.061 308.74 115.881 308.74 116.89C308.74 117.9 307.922 118.719 306.913 118.719Z" fill="white"/>
<path d="M317.383 118.719H314.506C313.498 118.719 312.679 117.9 312.679 116.89C312.679 115.881 313.498 115.061 314.506 115.061H317.383C318.391 115.061 319.209 115.881 319.209 116.89C319.209 117.9 318.392 118.719 317.383 118.719Z" fill="white"/>
<path d="M306.913 131.315H304.037C303.028 131.315 302.21 130.496 302.21 129.486C302.21 128.476 303.028 127.657 304.037 127.657H306.913C307.922 127.657 308.74 128.476 308.74 129.486C308.74 130.497 307.922 131.315 306.913 131.315Z" fill="white"/>
<path d="M317.383 131.315H314.506C313.498 131.315 312.679 130.496 312.679 129.486C312.679 128.476 313.498 127.657 314.506 127.657H317.383C318.391 127.657 319.209 128.476 319.209 129.486C319.209 130.497 318.392 131.315 317.383 131.315Z" fill="white"/>
<path d="M306.913 143.912H304.037C303.028 143.912 302.21 143.093 302.21 142.083C302.21 141.073 303.028 140.254 304.037 140.254H306.913C307.922 140.254 308.74 141.073 308.74 142.083C308.74 143.093 307.922 143.912 306.913 143.912Z" fill="white"/>
<path d="M317.383 143.912H314.506C313.498 143.912 312.679 143.093 312.679 142.083C312.679 141.073 313.498 140.254 314.506 140.254H317.383C318.391 140.254 319.209 141.073 319.209 142.083C319.209 143.093 318.392 143.912 317.383 143.912Z" fill="white"/>
<path d="M306.913 156.507H304.037C303.028 156.507 302.21 155.688 302.21 154.678C302.21 153.669 303.028 152.849 304.037 152.849H306.913C307.922 152.849 308.74 153.669 308.74 154.678C308.74 155.688 307.922 156.507 306.913 156.507Z" fill="white"/>
<path d="M317.383 156.507H314.506C313.498 156.507 312.679 155.688 312.679 154.678C312.679 153.669 313.498 152.849 314.506 152.849H317.383C318.391 152.849 319.209 153.669 319.209 154.678C319.209 155.688 318.392 156.507 317.383 156.507Z" fill="white"/>
<path d="M306.913 169.104H304.037C303.028 169.104 302.21 168.285 302.21 167.275C302.21 166.266 303.028 165.446 304.037 165.446H306.913C307.922 165.446 308.74 166.266 308.74 167.275C308.74 168.285 307.922 169.104 306.913 169.104Z" fill="white"/>
<path d="M317.383 169.104H314.506C313.498 169.104 312.679 168.285 312.679 167.275C312.679 166.266 313.498 165.446 314.506 165.446H317.383C318.391 165.446 319.209 166.266 319.209 167.275C319.209 168.285 318.392 169.104 317.383 169.104Z" fill="white"/>
<path d="M370.297 55.7374H367.421C366.412 55.7374 365.594 54.918 365.594 53.9084C365.594 52.8988 366.412 52.0793 367.421 52.0793H370.297C371.306 52.0793 372.124 52.8988 372.124 53.9084C372.124 54.918 371.306 55.7374 370.297 55.7374Z" fill="white"/>
<path d="M380.768 55.7374H377.892C376.883 55.7374 376.065 54.918 376.065 53.9084C376.065 52.8988 376.883 52.0793 377.892 52.0793H380.768C381.777 52.0793 382.595 52.8988 382.595 53.9084C382.595 54.918 381.777 55.7374 380.768 55.7374Z" fill="white"/>
<path d="M370.297 68.3345H367.421C366.412 68.3345 365.594 67.5151 365.594 66.5054C365.594 65.4958 366.412 64.6764 367.421 64.6764H370.297C371.306 64.6764 372.124 65.4958 372.124 66.5054C372.124 67.5151 371.306 68.3345 370.297 68.3345Z" fill="white"/>
<path d="M380.768 68.3345H377.892C376.883 68.3345 376.065 67.5151 376.065 66.5054C376.065 65.4958 376.883 64.6764 377.892 64.6764H380.768C381.777 64.6764 382.595 65.4958 382.595 66.5054C382.595 67.5151 381.777 68.3345 380.768 68.3345Z" fill="white"/>
<path d="M370.297 80.9299H367.421C366.412 80.9299 365.594 80.1105 365.594 79.1009C365.594 78.0913 366.412 77.2719 367.421 77.2719H370.297C371.306 77.2719 372.124 78.0913 372.124 79.1009C372.124 80.1105 371.306 80.9299 370.297 80.9299Z" fill="white"/>
<path d="M380.768 80.9299H377.892C376.883 80.9299 376.065 80.1105 376.065 79.1009C376.065 78.0913 376.883 77.2719 377.892 77.2719H380.768C381.777 77.2719 382.595 78.0913 382.595 79.1009C382.595 80.1105 381.777 80.9299 380.768 80.9299Z" fill="white"/>
<path d="M370.297 93.527H367.421C366.412 93.527 365.594 92.7076 365.594 91.6979C365.594 90.6883 366.412 89.8689 367.421 89.8689H370.297C371.306 89.8689 372.124 90.6883 372.124 91.6979C372.124 92.7076 371.306 93.527 370.297 93.527Z" fill="white"/>
<path d="M380.768 93.527H377.892C376.883 93.527 376.065 92.7076 376.065 91.6979C376.065 90.6883 376.883 89.8689 377.892 89.8689H380.768C381.777 89.8689 382.595 90.6883 382.595 91.6979C382.595 92.7076 381.777 93.527 380.768 93.527Z" fill="white"/>
<path d="M370.297 106.122H367.421C366.412 106.122 365.594 105.303 365.594 104.293C365.594 103.284 366.412 102.464 367.421 102.464H370.297C371.306 102.464 372.124 103.284 372.124 104.293C372.124 105.303 371.306 106.122 370.297 106.122Z" fill="white"/>
<path d="M380.768 106.122H377.892C376.883 106.122 376.065 105.303 376.065 104.293C376.065 103.284 376.883 102.464 377.892 102.464H380.768C381.777 102.464 382.595 103.284 382.595 104.293C382.595 105.303 381.777 106.122 380.768 106.122Z" fill="white"/>
<path d="M370.297 118.719H367.421C366.412 118.719 365.594 117.9 365.594 116.89C365.594 115.881 366.412 115.061 367.421 115.061H370.297C371.306 115.061 372.124 115.881 372.124 116.89C372.124 117.9 371.306 118.719 370.297 118.719Z" fill="white"/>
<path d="M380.768 118.719H377.892C376.883 118.719 376.065 117.9 376.065 116.89C376.065 115.881 376.883 115.061 377.892 115.061H380.768C381.777 115.061 382.595 115.881 382.595 116.89C382.595 117.9 381.777 118.719 380.768 118.719Z" fill="white"/>
<path d="M370.297 131.315H367.421C366.412 131.315 365.594 130.496 365.594 129.486C365.594 128.476 366.412 127.657 367.421 127.657H370.297C371.306 127.657 372.124 128.476 372.124 129.486C372.124 130.497 371.306 131.315 370.297 131.315Z" fill="white"/>
<path d="M380.768 131.315H377.892C376.883 131.315 376.065 130.496 376.065 129.486C376.065 128.476 376.883 127.657 377.892 127.657H380.768C381.777 127.657 382.595 128.476 382.595 129.486C382.595 130.497 381.777 131.315 380.768 131.315Z" fill="white"/>
<path d="M370.297 143.912H367.421C366.412 143.912 365.594 143.093 365.594 142.083C365.594 141.073 366.412 140.254 367.421 140.254H370.297C371.306 140.254 372.124 141.073 372.124 142.083C372.124 143.093 371.306 143.912 370.297 143.912Z" fill="white"/>
<path d="M380.768 143.912H377.892C376.883 143.912 376.065 143.093 376.065 142.083C376.065 141.073 376.883 140.254 377.892 140.254H380.768C381.777 140.254 382.595 141.073 382.595 142.083C382.595 143.093 381.777 143.912 380.768 143.912Z" fill="white"/>
<path d="M370.297 156.507H367.421C366.412 156.507 365.594 155.688 365.594 154.678C365.594 153.669 366.412 152.849 367.421 152.849H370.297C371.306 152.849 372.124 153.669 372.124 154.678C372.124 155.688 371.306 156.507 370.297 156.507Z" fill="white"/>
<path d="M380.768 156.507H377.892C376.883 156.507 376.065 155.688 376.065 154.678C376.065 153.669 376.883 152.849 377.892 152.849H380.768C381.777 152.849 382.595 153.669 382.595 154.678C382.595 155.688 381.777 156.507 380.768 156.507Z" fill="white"/>
<path d="M370.297 169.104H367.421C366.412 169.104 365.594 168.285 365.594 167.275C365.594 166.266 366.412 165.446 367.421 165.446H370.297C371.306 165.446 372.124 166.266 372.124 167.275C372.124 168.285 371.306 169.104 370.297 169.104Z" fill="white"/>
<path d="M380.768 169.104H377.892C376.883 169.104 376.065 168.285 376.065 167.275C376.065 166.266 376.883 165.446 377.892 165.446H380.768C381.777 165.446 382.595 166.266 382.595 167.275C382.595 168.285 381.777 169.104 380.768 169.104Z" fill="white"/>
<path d="M357.279 22.2461H326.585C325.576 22.2461 324.758 21.4267 324.758 20.417C324.758 19.4074 325.576 18.588 326.585 18.588H357.279C358.288 18.588 359.106 19.4074 359.106 20.417C359.106 21.4267 358.289 22.2461 357.279 22.2461Z" fill="white"/>
<path d="M27.0261 151.358C12.1546 151.358 0.0556641 139.246 0.0556641 124.357C0.0556641 109.469 12.1546 97.3562 27.0261 97.3562C30.7911 97.3562 34.4363 98.1186 37.8579 99.6228C41.1625 101.074 44.1017 103.145 46.5952 105.777C47.2894 106.51 47.2587 107.668 46.5265 108.363C45.7942 109.058 44.6381 109.027 43.9439 108.295C39.4948 103.601 33.4863 101.016 27.0261 101.016C14.1686 101.016 3.7096 111.488 3.7096 124.359C3.7096 137.231 14.1686 147.702 27.0261 147.702C31.9136 147.702 36.5936 146.205 40.5559 143.372C44.4364 140.599 47.342 136.771 48.9571 132.305C49.3005 131.356 50.3485 130.864 51.297 131.208C52.2456 131.552 52.7367 132.601 52.3932 133.551C50.5253 138.717 47.1666 143.144 42.6796 146.35C38.0917 149.626 32.6795 151.358 27.0261 151.358Z" fill="white"/>
<path d="M27.0259 181.001C26.0175 181.001 25.199 180.181 25.199 179.172V109.993C25.199 108.984 26.0175 108.164 27.0259 108.164C28.0344 108.164 28.8529 108.984 28.8529 109.993V179.173C28.8529 180.183 28.0344 181.001 27.0259 181.001Z" fill="white"/>
<path d="M27.0981 140.29C26.6303 140.29 26.1626 140.112 25.806 139.755L11.3233 125.256C10.61 124.542 10.61 123.383 11.3233 122.669C12.0365 121.955 13.1941 121.955 13.9073 122.669L27.0981 135.874L40.2888 122.669C41.002 121.955 42.1596 121.955 42.8728 122.669C43.5861 123.383 43.5861 124.542 42.8728 125.256L28.3901 139.755C28.0335 140.112 27.5658 140.29 27.0981 140.29Z" fill="white"/>
<path d="M27.098 122.905C26.6128 122.905 26.1495 122.712 25.806 122.37L19.3926 115.949C18.6794 115.235 18.6794 114.076 19.3926 113.362C20.1059 112.648 21.2634 112.648 21.9767 113.362L27.098 118.489L32.2194 113.362C32.9326 112.648 34.0902 112.648 34.8035 113.362C35.5167 114.076 35.5167 115.235 34.8035 115.949L28.3901 122.37C28.0481 122.714 27.5833 122.905 27.098 122.905Z" fill="white"/>
<path d="M80.1838 150.203C70.2874 150.203 60.9845 146.345 53.9879 139.34C46.9899 132.334 43.1372 123.021 43.1372 113.115C43.1372 103.207 46.9914 93.8939 53.9879 86.8894C60.9845 79.8849 70.2889 76.0264 80.1838 76.0264C90.0801 76.0264 99.383 79.8849 106.38 86.8894C113.376 93.8939 117.23 103.209 117.23 113.115C117.23 123.022 113.376 132.336 106.38 139.34C99.383 146.345 90.0801 150.203 80.1838 150.203ZM80.1838 79.683C71.2638 79.683 62.8787 83.1611 56.5705 89.4749C50.2638 95.7888 46.7897 104.185 46.7897 113.115C46.7897 122.045 50.2638 130.44 56.5705 136.755C62.8772 143.069 71.2638 146.547 80.1838 146.547C89.1037 146.547 97.4888 143.069 103.797 136.755C110.104 130.441 113.578 122.045 113.578 113.115C113.578 104.185 110.104 95.7902 103.797 89.4749C97.4888 83.1611 89.1037 79.683 80.1838 79.683Z" fill="white"/>
<path d="M80.1839 181C79.1754 181 78.3569 180.181 78.3569 179.171V88.6617C78.3569 87.652 79.1754 86.8326 80.1839 86.8326C81.1924 86.8326 82.0109 87.652 82.0109 88.6617V179.173C82.0109 180.182 81.1924 181 80.1839 181Z" fill="white"/>
<path d="M80.1103 138.201C79.6265 138.201 79.1617 138.008 78.8182 137.666L52.5537 111.372C51.8405 110.658 51.8405 109.499 52.5537 108.785C53.267 108.071 54.4246 108.071 55.1378 108.785L80.1103 133.785L105.083 108.785C105.796 108.071 106.954 108.071 107.667 108.785C108.38 109.499 108.38 110.658 107.667 111.372L81.4023 137.666C81.0603 138.01 80.5955 138.201 80.1103 138.201Z" fill="white"/>
<path d="M80.11 118.959C79.6248 118.959 79.1615 118.766 78.818 118.423L64.3352 103.924C63.622 103.21 63.622 102.051 64.3352 101.337C65.0485 100.623 66.206 100.623 66.9193 101.337L80.11 114.543L93.3007 101.337C94.014 100.623 95.1715 100.623 95.8848 101.337C96.598 102.051 96.598 103.21 95.8848 103.924L81.402 118.423C81.06 118.766 80.5953 118.959 80.11 118.959Z" fill="white"/>
<path d="M80.11 101.574C79.6423 101.574 79.1746 101.395 78.818 101.038L72.4046 94.6176C71.6913 93.9036 71.6913 92.7447 72.4046 92.0307C73.1178 91.3166 74.2754 91.3166 74.9886 92.0307L80.11 97.1578L85.2314 92.0307C85.9446 91.3166 87.1022 91.3166 87.8154 92.0307C88.5287 92.7447 88.5287 93.9036 87.8154 94.6176L81.402 101.038C81.0454 101.395 80.5777 101.574 80.11 101.574Z" fill="white"/>
<path d="M499.103 138.405C496.338 138.405 493.771 137.542 491.681 135.909C489.588 134.273 488.163 132.02 487.561 129.39C487.336 128.405 487.95 127.424 488.933 127.198C489.917 126.973 490.896 127.587 491.123 128.572C491.969 132.265 495.176 134.749 499.103 134.749C503.248 134.749 506.784 131.652 507.327 127.546C507.437 126.718 508.095 126.069 508.923 125.971C515.271 125.218 520.056 119.818 520.056 113.409C520.056 108.775 517.529 104.517 513.462 102.294C513.022 102.054 512.7 101.644 512.571 101.16C512.443 100.676 512.517 100.161 512.779 99.7334C513.991 97.7522 514.632 95.471 514.632 93.1357C514.632 86.159 508.963 80.4846 501.996 80.4846C500.114 80.4846 498.305 80.8885 496.617 81.6859C496.149 81.9069 495.61 81.9186 495.132 81.7181C494.655 81.5177 494.284 81.1255 494.113 80.6368C491.579 73.4011 484.728 68.5388 477.065 68.5388C469.402 68.5388 462.552 73.4011 460.018 80.6368C459.847 81.1255 459.477 81.5191 458.999 81.7181C458.521 81.9186 457.982 81.9069 457.514 81.6859C455.824 80.8899 454.015 80.4846 452.135 80.4846C445.167 80.4846 439.499 86.1605 439.499 93.1357C439.499 95.471 440.139 97.7522 441.352 99.7334C441.613 100.161 441.688 100.677 441.559 101.16C441.431 101.643 441.109 102.054 440.669 102.294C436.602 104.515 434.075 108.775 434.075 113.409C434.075 119.818 438.861 125.218 445.207 125.971C446.036 126.069 446.694 126.717 446.803 127.546C447.347 131.652 450.884 134.749 455.029 134.749C459.008 134.749 462.255 132.302 463.109 128.659C463.34 127.675 464.323 127.065 465.304 127.295C466.286 127.526 466.896 128.509 466.666 129.493C466.054 132.104 464.603 134.342 462.466 135.963C460.36 137.561 457.789 138.405 455.029 138.405C449.526 138.405 444.769 134.614 443.443 129.387C435.931 127.86 430.421 121.214 430.421 113.407C430.421 108.045 433.046 103.073 437.375 100.041C436.369 97.8897 435.845 95.5339 435.845 93.1342C435.845 84.1412 443.152 76.8251 452.135 76.8251C453.905 76.8251 455.627 77.1031 457.277 77.6547C460.764 69.9421 468.492 64.8793 477.065 64.8793C485.638 64.8793 493.366 69.9421 496.852 77.6547C498.502 77.1046 500.224 76.8251 501.994 76.8251C510.977 76.8251 518.285 84.1412 518.285 93.1342C518.285 95.5325 517.76 97.8883 516.754 100.041C521.084 103.074 523.709 108.046 523.709 113.407C523.709 121.214 518.199 127.86 510.686 129.387C509.363 134.614 504.604 138.405 499.103 138.405Z" fill="white"/>
<path d="M475.723 180.999H469.616C469.117 180.999 468.641 180.796 468.296 180.436C467.951 180.076 467.768 179.59 467.79 179.093L469.636 136.175L451.561 118.079C450.848 117.365 450.848 116.206 451.561 115.492C452.274 114.778 453.432 114.778 454.145 115.492L472.789 134.157C473.151 134.52 473.344 135.018 473.322 135.53L471.523 177.343H475.723C476.732 177.343 477.55 178.162 477.55 179.172C477.55 180.182 476.732 180.999 475.723 180.999Z" fill="white"/>
<path d="M462.024 121.313C461.587 121.313 461.155 121.156 460.813 120.852L455.12 115.798C454.364 115.128 454.295 113.972 454.965 113.215C455.634 112.459 456.789 112.39 457.545 113.06L458.989 114.342L458.09 110.371C457.866 109.386 458.483 108.406 459.468 108.183C460.452 107.959 461.431 108.577 461.653 109.563L463.807 119.079C463.983 119.853 463.639 120.653 462.955 121.057C462.666 121.23 462.344 121.313 462.024 121.313Z" fill="white"/>
<path d="M471.988 130.158C471.549 130.158 471.115 130 470.776 129.697L465.231 124.776C464.964 124.539 464.772 124.229 464.679 123.883L460.855 109.683C460.592 108.707 461.169 107.703 462.144 107.441C463.118 107.179 464.122 107.756 464.383 108.732L468.065 122.404L470.421 124.495L471.795 104.553C471.865 103.545 472.735 102.784 473.743 102.854C474.75 102.923 475.509 103.796 475.44 104.804L473.81 128.456C473.762 129.151 473.324 129.76 472.679 130.023C472.456 130.114 472.22 130.158 471.988 130.158Z" fill="white"/>
<path d="M484.24 107.142C481.616 107.142 479.123 106.302 477.065 104.75C475.007 106.302 472.513 107.142 469.89 107.142C468.881 107.142 468.063 106.323 468.063 105.313C468.063 104.303 468.881 103.484 469.89 103.484C472.113 103.484 474.202 102.615 475.77 101.037C476.113 100.692 476.578 100.499 477.065 100.499C477.552 100.499 478.016 100.692 478.36 101.037C479.928 102.615 482.017 103.484 484.24 103.484C485.248 103.484 486.067 104.303 486.067 105.313C486.067 106.323 485.25 107.142 484.24 107.142Z" fill="white"/>
<path d="M463.6 110.972C462.232 110.972 460.843 110.655 459.545 109.986C458.648 109.524 458.296 108.42 458.758 107.522C459.219 106.624 460.321 106.271 461.219 106.733C463.784 108.056 466.947 107.042 468.268 104.474C468.73 103.576 469.832 103.223 470.729 103.685C471.627 104.148 471.979 105.251 471.517 106.149C469.94 109.212 466.824 110.972 463.6 110.972Z" fill="white"/>
<path d="M447.117 119.616C445.391 119.616 443.636 119.332 441.916 118.732C440.963 118.4 440.46 117.357 440.792 116.403C441.123 115.449 442.164 114.944 443.118 115.278C449.472 117.493 456.442 114.12 458.656 107.758C458.988 106.804 460.029 106.301 460.983 106.633C461.936 106.965 462.439 108.008 462.107 108.963C459.83 115.506 453.678 119.616 447.117 119.616Z" fill="white"/>
<path d="M484.661 180.999H475.724C474.715 180.999 473.897 180.18 473.897 179.17C473.897 178.161 474.715 177.341 475.724 177.341H482.754L480.955 135.528C480.933 135.016 481.126 134.518 481.488 134.155L500.131 115.49C500.844 114.776 502.002 114.776 502.715 115.49C503.428 116.205 503.428 117.363 502.715 118.077L484.64 136.173L486.486 179.091C486.507 179.59 486.325 180.075 485.98 180.434C485.636 180.796 485.16 180.999 484.661 180.999Z" fill="white"/>
<path d="M492.251 121.313C491.931 121.313 491.609 121.229 491.321 121.058C490.639 120.654 490.294 119.854 490.469 119.08L492.623 109.565C492.847 108.58 493.825 107.962 494.809 108.185C495.792 108.409 496.409 109.388 496.187 110.372L495.288 114.343L496.732 113.062C497.486 112.392 498.642 112.46 499.312 113.217C499.981 113.973 499.911 115.129 499.157 115.799L493.462 120.853C493.122 121.158 492.688 121.313 492.251 121.313Z" fill="white"/>
<path d="M482.289 130.158C482.057 130.158 481.821 130.112 481.598 130.021C480.953 129.758 480.515 129.149 480.467 128.454L478.837 104.803C478.768 103.794 479.527 102.921 480.534 102.852C481.542 102.782 482.413 103.543 482.482 104.551L483.856 124.493L486.212 122.402L489.927 108.611C490.19 107.635 491.192 107.059 492.166 107.322C493.141 107.586 493.717 108.59 493.454 109.564L489.597 123.885C489.503 124.23 489.312 124.54 489.044 124.777L483.499 129.698C483.162 130 482.728 130.158 482.289 130.158Z" fill="white"/>
<path d="M484.385 107.142C481.761 107.142 479.268 106.302 477.21 104.75C475.152 106.302 472.659 107.142 470.035 107.142C469.027 107.142 468.208 106.323 468.208 105.313C468.208 104.303 469.027 103.484 470.035 103.484C472.258 103.484 474.347 102.615 475.915 101.037C476.259 100.692 476.723 100.499 477.21 100.499C477.697 100.499 478.162 100.692 478.505 101.037C480.073 102.615 482.162 103.484 484.385 103.484C485.393 103.484 486.212 104.303 486.212 105.313C486.212 106.323 485.395 107.142 484.385 107.142Z" fill="white"/>
<path d="M490.677 110.972C487.452 110.972 484.336 109.212 482.761 106.149C482.299 105.251 482.651 104.148 483.549 103.685C484.446 103.223 485.548 103.576 486.01 104.474C487.331 107.042 490.494 108.056 493.059 106.733C493.956 106.271 495.059 106.624 495.52 107.522C495.982 108.42 495.63 109.522 494.733 109.986C493.433 110.655 492.045 110.972 490.677 110.972Z" fill="white"/>
<path d="M507.159 119.615C500.598 119.615 494.448 115.505 492.171 108.96C491.839 108.006 492.342 106.963 493.295 106.631C494.248 106.298 495.29 106.803 495.622 107.756C497.834 114.118 504.805 117.491 511.159 115.275C512.112 114.943 513.154 115.448 513.486 116.401C513.818 117.355 513.315 118.398 512.362 118.73C510.641 119.331 508.884 119.615 507.159 119.615Z" fill="white"/>
<path d="M426.474 181C425.466 181 424.647 180.181 424.647 179.171V119.582C424.647 118.573 425.466 117.753 426.474 117.753C427.483 117.753 428.301 118.573 428.301 119.582V179.172C428.301 180.182 427.483 181 426.474 181Z" fill="white"/>
<path d="M426.517 149.566C426.049 149.566 425.581 149.388 425.225 149.03L409.725 133.513C409.012 132.799 409.012 131.64 409.725 130.926C410.438 130.212 411.596 130.212 412.309 130.926L426.517 145.151L437.701 133.956C438.414 133.242 439.572 133.242 440.285 133.956C440.998 134.67 440.998 135.829 440.285 136.543L427.809 149.03C427.452 149.388 426.985 149.566 426.517 149.566Z" fill="white"/>
<path d="M426.516 138.212C426.049 138.212 425.581 138.034 425.224 137.677L416.677 129.12C415.964 128.406 415.964 127.247 416.677 126.533C417.39 125.819 418.548 125.819 419.261 126.533L426.529 133.81L432.357 128.094C433.077 127.387 434.233 127.399 434.941 128.12C435.647 128.842 435.635 130.001 434.914 130.707L427.795 137.69C427.44 138.038 426.978 138.212 426.516 138.212Z" fill="white"/>
<path d="M426.516 127.951C426.049 127.951 425.581 127.773 425.224 127.416L421.439 123.626C420.726 122.912 420.726 121.753 421.439 121.039C422.152 120.325 423.31 120.325 424.023 121.039L426.516 123.535L429.01 121.039C429.723 120.325 430.881 120.325 431.594 121.039C432.307 121.753 432.307 122.912 431.594 123.626L427.809 127.416C427.452 127.773 426.984 127.951 426.516 127.951Z" fill="white"/>
<path d="M405.317 148.27C405.246 148.27 405.172 148.266 405.099 148.257C399.449 147.587 395.187 142.78 395.187 137.078C395.187 133.554 396.828 130.275 399.564 128.161C399.009 126.809 398.72 125.354 398.72 123.875C398.72 117.666 403.765 112.615 409.966 112.615C410.997 112.615 412.002 112.752 412.976 113.022C415.452 108.059 420.557 104.835 426.202 104.835C428.932 104.835 431.599 105.588 433.916 107.01C434.775 107.538 435.046 108.665 434.518 109.525C433.99 110.385 432.866 110.656 432.006 110.128C430.263 109.058 428.257 108.494 426.202 108.494C421.482 108.494 417.263 111.487 415.702 115.944C415.531 116.433 415.161 116.827 414.683 117.026C414.206 117.226 413.666 117.214 413.198 116.993C412.184 116.515 411.096 116.272 409.966 116.272C405.781 116.272 402.374 119.681 402.374 123.874C402.374 125.277 402.758 126.648 403.486 127.837C403.747 128.265 403.822 128.781 403.693 129.264C403.565 129.747 403.243 130.158 402.803 130.398C400.36 131.732 398.841 134.292 398.841 137.076C398.841 140.926 401.716 144.171 405.529 144.624C406.532 144.742 407.246 145.652 407.128 146.654C407.02 147.585 406.231 148.27 405.317 148.27Z" fill="white"/>
<path d="M447.085 148.27C446.171 148.27 445.384 147.587 445.273 146.656C445.154 145.653 445.87 144.744 446.872 144.625C450.685 144.173 453.56 140.929 453.56 137.078C453.56 136.068 454.378 135.249 455.387 135.249C456.395 135.249 457.214 136.068 457.214 137.078C457.214 142.782 452.952 147.588 447.301 148.257C447.23 148.266 447.157 148.27 447.085 148.27Z" fill="white"/>
<path d="M417.999 158.62C417.343 158.62 416.684 158.576 416.026 158.487C409.813 157.647 404.79 152.954 403.525 146.808C403.322 145.819 403.958 144.852 404.946 144.649C405.934 144.444 406.9 145.082 407.103 146.071C408.055 150.696 411.836 154.229 416.514 154.861C419.667 155.286 422.859 154.337 425.272 152.253C426.036 151.593 427.19 151.678 427.849 152.443C428.508 153.209 428.423 154.363 427.659 155.023C424.958 157.357 421.522 158.62 417.999 158.62Z" fill="white"/>
<path d="M434.44 158.62C431.115 158.62 428.038 157.416 425.272 155.025C424.507 154.365 424.422 153.21 425.081 152.445C425.741 151.68 426.894 151.595 427.658 152.255C430.199 154.448 432.813 155.276 435.887 154.862C440.564 154.23 444.347 150.698 445.298 146.073C445.501 145.083 446.467 144.445 447.455 144.65C448.444 144.854 449.081 145.821 448.876 146.81C447.612 152.956 442.588 157.648 436.375 158.488C435.722 158.576 435.076 158.62 434.44 158.62Z" fill="white"/>
<path d="M527.659 181C526.65 181 525.832 180.181 525.832 179.171V119.583C525.832 118.573 526.65 117.754 527.659 117.754C528.667 117.754 529.486 118.573 529.486 119.583V179.173C529.486 180.182 528.669 181 527.659 181Z" fill="white"/>
<path d="M527.616 149.566C527.148 149.566 526.681 149.388 526.324 149.031L513.848 136.544C513.135 135.83 513.135 134.671 513.848 133.957C514.561 133.243 515.719 133.243 516.432 133.957L527.616 145.152L541.824 130.928C542.537 130.214 543.695 130.214 544.408 130.928C545.121 131.642 545.121 132.801 544.408 133.515L528.908 149.032C528.551 149.388 528.084 149.566 527.616 149.566Z" fill="white"/>
<path d="M527.616 138.213C527.154 138.213 526.692 138.039 526.337 137.69L519.219 130.708C518.499 130.001 518.487 128.842 519.193 128.121C519.899 127.399 521.056 127.388 521.777 128.094L527.604 133.81L534.873 126.533C535.586 125.819 536.743 125.819 537.457 126.533C538.17 127.247 538.17 128.406 537.457 129.12L528.909 137.677C528.551 138.033 528.084 138.213 527.616 138.213Z" fill="white"/>
<path d="M527.616 127.952C527.148 127.952 526.68 127.773 526.324 127.416L522.538 123.626C521.825 122.912 521.825 121.753 522.538 121.039C523.252 120.325 524.409 120.325 525.122 121.039L527.616 123.536L530.109 121.039C530.823 120.325 531.98 120.325 532.693 121.039C533.407 121.753 533.407 122.912 532.693 123.626L528.908 127.416C528.551 127.773 528.084 127.952 527.616 127.952Z" fill="white"/>
<path d="M548.816 148.27C547.902 148.27 547.115 147.587 547.004 146.656C546.885 145.652 547.601 144.744 548.602 144.625C552.416 144.173 555.291 140.929 555.291 137.078C555.291 134.293 553.772 131.736 551.328 130.4C550.888 130.16 550.567 129.75 550.438 129.266C550.31 128.781 550.384 128.266 550.646 127.839C551.374 126.65 551.758 125.28 551.758 123.875C551.758 119.685 548.353 116.274 544.165 116.274C543.035 116.274 541.948 116.517 540.934 116.995C540.466 117.216 539.927 117.228 539.449 117.027C538.972 116.827 538.601 116.435 538.43 115.946C536.869 111.489 532.649 108.495 527.93 108.495C525.875 108.495 523.867 109.06 522.126 110.13C521.267 110.658 520.141 110.387 519.613 109.527C519.086 108.665 519.356 107.54 520.216 107.012C522.532 105.589 525.2 104.837 527.93 104.837C533.575 104.837 538.68 108.061 541.156 113.024C542.129 112.753 543.135 112.617 544.165 112.617C550.367 112.617 555.412 117.668 555.412 123.877C555.412 125.356 555.123 126.81 554.567 128.162C557.303 130.275 558.945 133.554 558.945 137.079C558.945 142.783 554.684 147.59 549.032 148.258C548.959 148.266 548.887 148.27 548.816 148.27Z" fill="white"/>
<path d="M507.048 148.27C506.977 148.27 506.904 148.266 506.831 148.257C501.18 147.587 496.918 142.78 496.918 137.078C496.918 136.068 497.737 135.249 498.745 135.249C499.754 135.249 500.572 136.068 500.572 137.078C500.572 140.928 503.447 144.173 507.26 144.625C508.263 144.744 508.978 145.654 508.859 146.656C508.75 147.586 507.96 148.27 507.048 148.27Z" fill="white"/>
<path d="M536.134 158.62C532.611 158.62 529.175 157.357 526.474 155.025C525.71 154.365 525.625 153.21 526.284 152.445C526.943 151.68 528.096 151.595 528.861 152.255C531.272 154.339 534.465 155.288 537.617 154.862C542.294 154.23 546.077 150.698 547.028 146.073C547.231 145.084 548.197 144.446 549.185 144.65C550.173 144.854 550.811 145.821 550.606 146.81C549.342 152.956 544.318 157.648 538.105 158.488C537.449 158.576 536.79 158.62 536.134 158.62Z" fill="white"/>
<path d="M519.693 158.62C519.057 158.62 518.411 158.576 517.757 158.487C511.544 157.647 506.521 152.954 505.257 146.808C505.053 145.819 505.689 144.852 506.677 144.649C507.665 144.444 508.631 145.082 508.834 146.071C509.786 150.696 513.567 154.229 518.246 154.861C521.319 155.276 523.934 154.448 526.474 152.253C527.239 151.593 528.392 151.678 529.051 152.443C529.71 153.209 529.625 154.363 528.861 155.023C526.094 157.415 523.016 158.62 519.693 158.62Z" fill="white"/>
<path d="M557.173 181H1.82697C0.818482 181 0 180.18 0 179.171C0 178.161 0.818482 177.342 1.82697 177.342H557.173C558.182 177.342 559 178.161 559 179.171C559 180.18 558.182 181 557.173 181Z" fill="white"/>
</g>
</svg>
