<svg width="57" height="57" viewBox="0 0 57 57" fill="none" xmlns="http://www.w3.org/2000/svg">
<path d="M37 33.5H39V35.5H19V33.5H21V26.5C21 24.3783 21.8429 22.3434 23.3431 20.8431C24.8434 19.3429 26.8783 18.5 29 18.5C31.1217 18.5 33.1566 19.3429 34.6569 20.8431C36.1571 22.3434 37 24.3783 37 26.5V33.5ZM35 33.5V26.5C35 24.9087 34.3679 23.3826 33.2426 22.2574C32.1174 21.1321 30.5913 20.5 29 20.5C27.4087 20.5 25.8826 21.1321 24.7574 22.2574C23.6321 23.3826 23 24.9087 23 26.5V33.5H35ZM26 37.5H32V39.5H26V37.5Z" fill="#548CF7"/>
</svg>
