<svg width="160" height="50" viewBox="0 0 160 50" fill="none" xmlns="http://www.w3.org/2000/svg">
<rect width="160" height="50" fill="black" fill-opacity="0.5"/>
<g opacity="0.9">
<g clip-path="url(#clip0)">
<path d="M50.1455 24.3841C49.7947 24.4094 48.9255 25.1165 48.5985 25.1587C48.4112 25.184 48.2272 25.2262 48.0325 25.2701C47.9873 25.2811 47.9404 25.2912 47.8936 25.3022L47.9018 25.2642C47.9298 25.1385 47.9561 25.0212 47.9774 24.9022C47.9914 24.8288 48.0053 24.7562 48.0193 24.6828C48.0587 24.4795 48.0982 24.2694 48.1187 24.0584L48.1204 24.0474C48.1212 24.0382 48.1236 24.028 48.1245 24.0188V24.0103L48.1278 23.9875C48.1278 23.9842 48.1278 23.9816 48.1278 23.9783L48.1393 23.8525L48.1294 23.8576C48.1228 23.364 47.8608 22.9758 47.5962 22.6594C47.574 22.6332 47.5535 22.6029 47.5313 22.5725C47.4352 22.4349 47.3136 22.2561 47.0408 22.3025L46.9916 22.3109L46.9718 22.3573C46.9562 22.3953 46.9414 22.4341 46.9267 22.4729C46.8954 22.5539 46.8659 22.6307 46.8281 22.7016C46.7246 22.8923 46.6186 23.0813 46.5126 23.2703C46.3869 23.4964 46.2604 23.7226 46.1388 23.9513C46.0344 24.1462 45.9342 24.3445 45.8348 24.5419C45.7683 24.6735 45.7034 24.8052 45.6352 24.936C45.6056 24.9925 45.5744 25.0482 45.5432 25.1047L45.4906 25.1992C45.4717 25.233 45.4536 25.2676 45.4347 25.3013L45.4084 25.3477H45.4092C45.3526 25.4515 45.2967 25.5578 45.249 25.6667C45.1529 25.8861 45.0667 26.1131 44.9812 26.3308C44.9204 26.4902 44.8596 26.6497 44.7947 26.8058L44.766 26.8784C44.7241 26.9839 44.6772 27.1037 44.6115 27.1467C44.4554 27.2471 44.4234 27.3593 44.4234 27.496C44.4242 27.5408 44.4275 27.5855 44.4316 27.6319C44.4349 27.6707 44.4374 27.7104 44.4374 27.75C44.4382 27.7821 44.4365 27.8226 44.4259 27.853C44.3872 27.9576 44.3642 28.0656 44.356 28.182C44.3215 28.2048 44.2878 28.2285 44.2558 28.2538C44.2221 28.2808 44.1909 28.3095 44.1597 28.3398C44.1178 28.382 44.0775 28.4208 44.0356 28.4419C43.6807 28.6158 43.3053 28.7921 42.8846 28.9803C42.7967 29.0191 42.7622 28.9145 42.754 28.8816C42.7211 28.7525 42.6932 28.6183 42.7113 28.5018L42.7663 28.1576C42.8115 27.8791 42.8649 27.5855 42.9504 27.3096C43.0432 27.0075 43.1738 26.7088 43.2995 26.4202C43.3431 26.3206 43.3874 26.2202 43.4342 26.108L43.4499 26.07C43.5805 25.7604 43.6889 25.5021 43.813 25.2423C43.965 24.925 44.0964 24.6693 44.2287 24.4398C44.3774 24.1825 44.5277 23.9268 44.683 23.672C44.7791 23.5125 44.8769 23.3522 44.9796 23.1961C45.1932 22.8712 45.1989 22.4695 44.9837 22.2291C44.8802 22.1135 44.8728 22.0881 44.9212 22.0232L44.9829 21.9413L44.6846 21.8266L44.3971 21.7743C44.3946 21.7751 44.3922 21.7768 44.3897 21.7776C44.296 21.8274 44.1991 21.8772 44.1145 21.9498C44.0701 21.9877 44.0463 21.9903 44.0422 21.9903C44.0323 21.9903 44.02 21.9692 44.0126 21.9515C43.9641 21.8333 43.8869 21.7743 43.7818 21.7743C43.7349 21.7743 43.6889 21.7861 43.6462 21.7987C43.6322 21.8029 43.6174 21.8063 43.6018 21.8105C43.5328 21.8257 43.408 21.8527 43.3751 22.0012C43.3677 22.0046 43.3578 22.0097 43.3422 22.0164C43.2215 22.0654 43.1007 22.1109 42.9791 22.1557C42.9249 22.1759 42.869 22.1928 42.8148 22.2097C42.7852 22.2181 42.754 22.2248 42.7228 22.2308C42.6456 22.2468 42.5642 22.2628 42.496 22.3118L42.4665 22.332C42.2019 22.5151 41.9283 22.705 41.6827 22.9244C41.1914 23.3623 40.6697 23.8348 40.1826 24.3267C39.7077 24.8077 39.3717 25.2515 39.1252 25.7224L39.1228 25.7241L39.1047 25.7595C39.0891 25.789 39.0726 25.8169 39.0562 25.8456C38.9831 25.9705 38.8927 26.1257 38.956 26.3181C38.9552 26.3257 38.9461 26.3527 38.9272 26.3831C38.8985 26.4253 38.8714 26.4691 38.8443 26.5139C38.7711 26.6328 38.7013 26.7459 38.6109 26.8303C38.4573 26.9746 38.3694 27.1484 38.2979 27.3188H38.2971L38.2831 27.3543C38.2823 27.3577 38.2798 27.3619 38.2782 27.3644L38.2158 27.523L38.2174 27.5222L38.1845 27.6083C38.1541 27.6851 38.1279 27.7644 38.1016 27.8428C38.0432 28.015 37.989 28.1778 37.8929 28.3263C37.8083 28.4563 37.7779 28.6529 37.8091 28.8596L37.6004 29.0368L37.616 29.036C37.5725 29.0807 37.5306 29.1271 37.4887 29.1735C37.418 29.2545 37.3499 29.3305 37.2743 29.3954C37.2012 29.457 37.1165 29.5068 37.0262 29.5591C36.9769 29.5878 36.9284 29.6165 36.8799 29.6469C36.8085 29.6941 36.737 29.7422 36.6663 29.7912C36.539 29.8772 36.4125 29.9633 36.2818 30.0426C36.2408 30.0671 36.2063 30.0806 36.18 30.0806C36.1578 30.0806 36.1225 30.0696 36.0633 29.9886C36.0378 29.9549 36.0157 29.9177 35.9935 29.8815C35.9762 29.8536 35.9598 29.8258 35.9417 29.7996C35.8325 29.6351 35.8045 29.4452 35.7758 29.2461C35.7717 29.2174 35.7667 29.1887 35.7618 29.16H35.7659L35.7454 29.0545C35.7454 29.0545 35.7454 29.0545 35.7454 29.0537L35.7314 28.9769H35.7281C35.7232 28.9541 35.7191 28.9322 35.7117 28.9077C35.7791 28.8183 35.7881 28.7195 35.7947 28.6394C35.7988 28.5947 35.8021 28.5533 35.8152 28.5196L35.8546 28.4208L35.7667 28.3981C35.8587 28.3078 35.8859 28.1761 35.9072 28.0698L35.9212 28.0032L35.8637 27.9694C35.8398 27.9551 35.8226 27.9357 35.8185 27.9154C35.8152 27.9019 35.8177 27.8901 35.8251 27.8791L35.8489 27.8428C35.8694 27.8201 35.885 27.7964 35.8965 27.7736L35.9401 27.7095L35.9212 27.7121C35.931 27.6766 35.936 27.642 35.9401 27.61C35.9434 27.5846 35.9458 27.5568 35.954 27.5298L35.9853 27.4142L36.0945 27.183L36.0017 27.1973L36.0165 27.1779L35.9795 27.1383C36.0132 27.1172 36.0584 27.0767 36.0526 27.0092L36.0477 26.9535L36.0214 26.9417C36.0469 26.9113 36.0732 26.8674 36.0576 26.8109L36.0551 26.805C36.0929 26.7856 36.1315 26.756 36.1405 26.7054C36.1471 26.67 36.1372 26.6396 36.1257 26.6134L36.2802 26.6818L36.166 26.3527L36.1282 26.243C36.2744 26.0557 36.3845 25.53 36.355 25.3207L36.4872 25.0254L36.5571 25.0043L36.5069 24.9815L36.539 24.9098H36.396C36.3804 24.9098 36.3714 24.9081 36.3624 24.9073C36.3624 24.9064 36.3624 24.9056 36.3632 24.9047C36.3936 24.8271 36.4059 24.8229 36.4338 24.8229C36.4946 24.822 36.5505 24.7672 36.5636 24.7174C36.5858 24.6364 36.6064 24.5554 36.6269 24.4736L36.6573 24.3504C36.6704 24.3006 36.6811 24.2508 36.6918 24.201C36.7156 24.0888 36.7386 23.9825 36.7822 23.8897C36.8471 23.753 36.9317 23.6196 37.1026 23.5665C37.2923 23.5083 37.4788 23.4332 37.6596 23.3606C37.7787 23.3133 37.8995 23.2652 38.0211 23.2214C38.0958 23.1944 38.1722 23.175 38.2503 23.1547C38.3398 23.1311 38.4285 23.1083 38.5148 23.0754C38.7038 23.0045 38.8894 22.9244 39.0751 22.8459L39.3684 22.7235C39.4333 22.6974 39.5007 22.6704 39.5647 22.6332C39.6272 22.597 39.6904 22.4788 39.6502 22.4004C39.6206 22.343 39.5409 22.2831 39.4514 22.2831C39.4514 22.2831 39.4506 22.2831 39.4497 22.2831C39.0792 22.3286 38.7087 22.3784 38.3382 22.429L37.9898 22.4755C37.9685 22.4788 37.9479 22.4805 37.9266 22.4822C37.8855 22.4873 37.8461 22.4915 37.8066 22.4999C37.7475 22.5126 37.6892 22.5269 37.63 22.5413C37.5446 22.5615 37.4583 22.5809 37.372 22.5978C37.3162 22.6079 37.2759 22.6138 37.2357 22.6147C37.2283 22.6088 37.2135 22.5835 37.197 22.5522L37.4369 22.2392L37.3153 22.2662L37.3047 22.2392C37.349 22.2147 37.3959 22.1818 37.4 22.1202C37.4033 22.0595 37.4304 21.9987 37.4599 21.9329C37.5092 21.8224 37.5708 21.6865 37.5183 21.5321C37.5848 21.4713 37.5824 21.3895 37.5807 21.3414C37.5807 21.3245 37.5799 21.3059 37.5815 21.2967C37.5996 21.2368 37.575 20.9836 37.5947 20.9246C37.6169 20.8638 37.4493 21.0216 37.4665 20.9591C37.5183 20.7794 37.3556 21.9185 37.4041 21.738L37.4435 21.5895C37.4698 21.4899 37.4994 21.3903 37.5273 21.2916C37.5963 21.0511 37.6686 20.8022 37.713 20.5508C37.7565 20.3111 37.7762 20.0656 37.796 19.8276C37.8058 19.701 37.8165 19.5745 37.8305 19.4479L37.837 19.3964C37.8535 19.2665 37.874 19.1053 37.7475 18.9695C37.6538 18.8674 37.561 18.7695 37.4567 18.6792C37.3145 18.5569 37.1543 18.4404 36.9465 18.4244L36.8881 18.4202L36.8594 18.4733C36.838 18.5164 36.8167 18.5619 36.7961 18.6075C36.7509 18.7037 36.709 18.7948 36.6524 18.8741C36.1742 19.5416 35.8431 20.074 35.5778 20.6014C35.075 21.6072 35.0027 21.8688 35.2541 21.3026C35.213 21.3954 35.1719 21.4882 35.13 21.5819C35.1185 21.608 35.1161 21.6333 35.1144 21.662C35.0939 21.7186 35.0709 21.7759 35.0397 21.8283C35.0216 21.8426 34.9928 21.8645 34.9797 21.9042C34.9608 21.9599 34.9444 22.0164 34.9271 22.073C34.9074 22.1396 35.0668 21.6916 35.0421 21.7565C35.0027 21.8637 35.0224 21.7861 34.9797 21.8924C34.8984 22.0932 35.0167 21.6561 34.9509 21.8671C34.9279 21.9413 34.8984 22.0139 34.8688 22.0848C34.8252 22.1911 34.7792 22.3008 34.7529 22.4214C34.7299 22.5269 34.6889 22.629 34.6437 22.737C34.6174 22.8028 34.5903 22.8678 34.5673 22.9353C34.5484 22.9919 34.5336 23.0501 34.5196 23.1075C34.5057 23.1631 34.4917 23.2197 34.4662 23.2914C34.4128 23.4467 34.3791 23.5285 34.2436 23.5538C34.0382 23.5918 33.8377 23.6711 33.6874 23.7361C33.5264 23.8053 33.3678 23.8821 33.2092 23.9588C33.0885 24.0171 32.9677 24.0753 32.8453 24.131C32.7393 24.1791 32.6309 24.2196 32.5216 24.2609L32.3055 24.3428L32.3154 24.4153C32.3335 24.5512 32.3746 24.7056 32.6062 24.6913C33.1222 24.655 33.5691 24.5799 33.9741 24.4601C34.0349 24.4423 34.1014 24.4331 34.1622 24.4255L34.1614 24.4272C34.154 24.5141 34.1483 24.5942 34.1409 24.6727C34.131 24.6862 34.1179 24.7048 34.1138 24.7309C34.1031 24.7967 34.0743 24.8617 34.0431 24.9326C33.9807 25.071 33.9108 25.2271 33.9774 25.4203C33.9774 25.4211 33.9766 25.4228 33.9766 25.4254L33.9396 25.5545L33.9347 25.5697C33.9339 25.5697 33.9339 25.5705 33.9339 25.5705L33.9035 25.6777L33.9043 25.6768C33.8788 25.7646 33.8525 25.8515 33.8312 25.9392C33.818 25.9932 33.8386 26.0422 33.8533 26.0785C33.8566 26.0894 33.8624 26.1004 33.869 26.1291C33.8698 26.1325 33.8706 26.1375 33.8722 26.1401C33.795 26.2194 33.7975 26.3189 33.7975 26.3873C33.7975 26.4092 33.7983 26.432 33.7967 26.4531L33.7909 26.5071C33.7835 26.5721 33.7761 26.6379 33.7663 26.702L33.7654 26.7029C33.7515 26.7957 33.7326 26.8683 33.7063 26.9299C33.6668 27.0244 33.6438 27.1113 33.6586 27.2142C33.6299 27.2362 33.6003 27.2674 33.588 27.3112C33.5765 27.3534 33.5806 27.3973 33.6011 27.4437C33.5962 27.4572 33.5913 27.4741 33.5896 27.491C33.5855 27.5197 33.5831 27.5492 33.5806 27.577L33.5781 27.6116L33.5872 27.6766L33.5494 27.95L33.33 27.966L33.5732 28.1095C33.5116 28.1854 33.4689 28.2943 33.5617 28.4327C33.4689 28.5415 33.4919 28.6596 33.5083 28.7449L33.514 28.7752C33.5239 28.8208 33.5535 28.8495 33.5863 28.8782L33.7523 29.0638L33.7515 29.0503L34.0768 29.8401L33.9979 29.9152L34.085 30.0097C34.0982 30.0232 34.1097 30.035 34.1203 30.0485C34.1327 30.0629 34.1466 30.084 34.1614 30.1034C34.2107 30.1751 34.2452 30.2223 34.3035 30.2223L34.3364 30.2164C34.3364 30.2164 34.3364 30.2164 34.3364 30.2173C34.3438 30.2443 34.3512 30.2789 34.375 30.3076C34.4391 30.3903 34.5024 30.4755 34.5656 30.5599L34.6782 30.7109C34.7004 30.7421 34.7332 30.7531 34.7529 30.759L34.8827 30.8054C34.9624 30.8341 35.0421 30.8619 35.1218 30.8932C35.1514 30.905 35.1801 30.921 35.2081 30.9362C35.2533 30.9607 35.2993 30.986 35.3527 31.002C35.3929 31.0138 35.434 31.0223 35.4751 31.029C35.5646 31.0467 35.6435 31.0611 35.7018 31.121C35.756 31.1767 35.8086 31.2045 35.8563 31.2045L35.8752 31.2028C35.931 31.1936 35.977 31.159 36.0132 31.132L36.0346 31.1159C36.0756 31.0847 36.0773 31.0366 36.0781 31.0045L36.0855 30.9539C36.0896 30.9581 36.0953 30.9624 36.1003 30.9683L36.1709 31.0324L36.2309 30.9581C36.235 30.9514 36.2416 30.9463 36.2473 30.9396C36.2703 30.9176 36.2999 30.8881 36.3098 30.8451H36.3205C36.373 30.8451 36.4379 30.8206 36.4461 30.7539L36.4494 30.7312C36.4568 30.7261 36.4839 30.7219 36.5004 30.7202C36.5373 30.7151 36.5825 30.7101 36.6228 30.6839C36.6326 30.678 36.6532 30.6738 36.6729 30.6696C36.7066 30.662 36.7493 30.6535 36.7871 30.6282C37.0188 30.4713 37.2447 30.3152 37.4608 30.1523C37.4821 30.1363 37.5035 30.1202 37.5265 30.1059C37.6415 30.0266 37.7845 29.9295 37.8001 29.7245L37.8181 29.7026C37.8485 29.6604 37.8789 29.619 37.9102 29.5777C37.9636 29.5068 38.0161 29.4359 38.0654 29.3625C38.0761 29.371 38.086 29.3777 38.0966 29.3836C38.2125 29.4511 38.33 29.5169 38.4474 29.5811C38.6758 29.7076 38.9116 29.8384 39.1293 29.9852C39.2673 30.0797 39.4136 30.127 39.5631 30.127C39.7964 30.127 40.0067 30.0106 40.1637 29.9093C40.3658 29.7794 40.5358 29.5971 40.6985 29.4207C40.7379 29.3785 40.7757 29.3372 40.816 29.2959C40.9343 29.171 41.032 29.025 41.1216 28.8866C41.1495 28.8444 41.2226 28.7305 41.2432 28.7187C41.2695 28.7263 41.35 28.8174 41.4026 28.8782C41.5299 29.0242 41.6926 29.133 41.8495 29.2376C41.8906 29.2655 41.9308 29.2925 41.9711 29.3195C42.0294 29.3617 42.0927 29.3912 42.1535 29.4207C42.2118 29.4503 42.2668 29.4764 42.3153 29.5102C42.6488 29.7473 43.1262 29.7456 43.606 29.5152C43.9494 29.3499 44.1909 29.079 44.4168 28.8073L44.4275 28.863C44.4521 28.9938 44.4776 29.1288 44.4932 29.2613C44.5187 29.479 44.7035 29.6376 44.9336 29.6376C44.9935 29.6376 45.0511 29.6258 45.1077 29.6038C45.2228 29.5583 45.3172 29.4849 45.4101 29.414C45.5382 29.3153 45.659 29.2224 45.8184 29.2182C45.8701 29.2165 45.9153 29.1786 45.935 29.144C45.9638 29.0976 45.9975 29.052 46.0303 29.0064C46.1158 28.8883 46.2045 28.7676 46.2234 28.6242C46.2431 28.4689 46.336 28.3609 46.4337 28.247C46.5142 28.155 46.5956 28.0597 46.6457 27.934C46.6703 27.869 46.7328 27.8142 46.7968 27.7568C46.9094 27.6555 47.0499 27.5306 47.0302 27.3028C47.0778 27.248 47.1238 27.1906 47.1698 27.1324L47.2684 27.0125C47.3341 26.9332 47.4105 26.8455 47.4993 26.7754C48.0448 26.3384 48.0423 26.0194 48.5402 25.8979C48.5936 25.8852 48.9822 25.6819 49.0175 25.6616C49.0561 25.6397 49.7659 25.1883 49.8095 25.1697L49.8119 25.1824L49.9845 25.1883L49.9335 25.1756L50.1044 24.7545C50.1192 24.7545 50.1693 24.817 50.1898 24.8246C50.2096 24.8322 50.18 24.8237 50.1898 24.8246L50.1455 24.3841ZM40.024 27.0682C40.1472 26.8421 40.2828 26.6033 40.4405 26.3763L40.5892 26.1586C40.8143 25.8295 41.0485 25.4895 41.3105 25.1832C41.4206 25.0558 41.5085 24.9604 41.5964 24.8752C41.8174 24.6609 42.0278 24.4314 42.2323 24.2086C42.3531 24.0778 42.4739 23.9453 42.5938 23.8196C42.5987 23.8162 42.6176 23.8086 42.6267 23.8061C42.6283 23.807 42.6308 23.8086 42.6332 23.8112C42.6193 23.8188 42.6061 23.8272 42.5938 23.8382C42.5404 23.8863 42.4615 23.9605 42.3991 24.0483C42.3383 24.1318 42.2808 24.2179 42.2233 24.3048C42.1666 24.39 42.1091 24.4761 42.0499 24.5579C41.9974 24.6314 41.9407 24.7031 41.8782 24.7824L41.8626 24.8018L41.6531 25.0701L41.663 25.0659C41.6556 25.076 41.6474 25.0853 41.6408 25.0946C41.3237 25.5418 41.0066 25.989 40.6903 26.4354L40.4027 26.8413H40.4019L39.8761 27.5838C39.7915 27.7028 39.6946 27.8277 39.5795 27.9643C39.619 27.8521 39.6584 27.745 39.7102 27.6479L40.024 27.0682Z" fill="white"/>
<path d="M33.2993 29.1819L33.2894 29.089L33.2837 29.0899C33.282 29.0798 33.282 29.0755 33.2787 29.0654L33.2565 28.9692L33.2352 28.9743C33.296 28.8907 33.3338 28.7735 33.268 28.6182C33.2565 28.5937 33.25 28.5617 33.2442 28.5279C33.2376 28.4967 33.2311 28.4663 33.222 28.4359C33.2122 28.4039 33.1958 28.3701 33.1785 28.3364C33.1678 28.3144 33.1497 28.2781 33.1448 28.2731L33.158 28.2081C33.1588 28.2073 33.1588 28.2056 33.1588 28.2039L33.1851 28.0647L33.1604 28.068C33.1448 27.9651 33.0898 27.8824 33.0314 27.8132C32.481 27.1551 31.9684 26.7492 31.3686 26.4977C30.7401 26.2336 30.1264 26.1045 29.493 26.1045H29.4667C29.1956 26.1054 28.9253 26.1121 28.6542 26.1189C28.4152 26.1239 28.1753 26.1298 27.9354 26.1315C27.9009 26.1315 27.8598 26.1206 27.8171 26.1079C27.8335 26.0725 27.8466 26.0421 27.8557 26.01C27.9362 25.7181 28.0167 25.4244 28.0923 25.1308C28.0964 25.1156 28.112 25.092 28.1276 25.0692C28.1662 25.0135 28.2402 24.9063 28.1744 24.7789C28.1753 24.7781 28.1753 24.7772 28.1769 24.7764L28.2221 24.7013C28.273 24.6178 28.3231 24.5351 28.379 24.4532C28.4283 24.3773 28.4916 24.2634 28.4686 24.1554C28.4644 24.1326 28.4546 24.1047 28.4349 24.0769C28.4554 24.0339 28.476 23.9917 28.4957 23.9495C28.563 23.8102 28.6271 23.6769 28.6822 23.5402C28.7545 23.3605 28.8194 23.1782 28.8843 22.9968L28.9672 22.7648L29.0001 22.6281L28.8941 22.6298L28.9993 22.5395C29.0083 22.5311 29.0206 22.5235 29.0321 22.515C29.0749 22.4855 29.1274 22.4484 29.1472 22.3825C29.2219 22.1243 29.3 21.8746 29.4331 21.6527C29.4659 21.5961 29.5021 21.5413 29.5374 21.4856C29.585 21.4122 29.6327 21.3379 29.6754 21.2611C29.6976 21.2215 29.7132 21.1784 29.728 21.1354C29.742 21.0941 29.7559 21.0553 29.774 21.0299C29.8028 20.9911 29.8405 20.9565 29.88 20.9194C29.9284 20.8738 29.9777 20.8274 30.0196 20.7684C30.1002 20.6519 30.1749 20.5313 30.2489 20.4089C30.3014 20.322 30.3557 20.2351 30.4214 20.1338C30.6958 19.7145 30.9702 19.2959 31.252 18.8816C31.3349 18.7584 31.427 18.6412 31.5173 18.5239C31.5765 18.4479 31.6348 18.372 31.6923 18.2943C31.7326 18.2403 31.7687 18.1821 31.8073 18.1197L31.8525 18.0488C31.8607 18.0429 31.8698 18.0378 31.8788 18.0319C31.9281 18.0032 31.9881 17.9678 32.0333 17.9087C32.1154 17.799 32.1852 17.6758 32.2354 17.5535C32.2855 17.4328 32.3676 17.3324 32.4539 17.2261C32.5122 17.1544 32.5722 17.0801 32.624 16.9974C32.7069 16.865 32.7809 16.7257 32.8507 16.5899C32.9066 16.4844 32.9616 16.3781 33.0224 16.2751C33.1235 16.1039 33.2278 15.9368 33.3346 15.7689C33.388 15.6853 33.4406 15.6018 33.4932 15.5174C33.526 15.4643 33.5564 15.4103 33.5876 15.3554C33.6484 15.2466 33.7068 15.1436 33.7791 15.0533C34.1389 14.5985 34.1783 14.0585 33.8867 13.5699C33.867 13.5362 33.8522 13.5007 33.8357 13.4645C33.816 13.4189 33.7963 13.3742 33.7708 13.3328C33.7478 13.2949 33.7265 13.256 33.7043 13.2172C33.632 13.0907 33.5572 12.9599 33.4545 12.8536C33.3675 12.7624 33.2574 12.6991 33.1415 12.6325C33.0889 12.6021 33.0339 12.5709 32.9772 12.5346L32.9246 12.5L32.8712 12.538C32.7792 12.6046 32.6847 12.6721 32.5878 12.7413C32.3454 12.9135 32.0949 13.0915 31.8517 13.283C31.749 13.3632 31.6611 13.4594 31.5773 13.5522C31.5173 13.6189 31.4557 13.6855 31.39 13.7454C31.33 13.8003 31.2626 13.8484 31.1903 13.899C31.1304 13.9412 31.0696 13.9842 31.0137 14.0315C30.9726 14.0669 30.9414 14.1108 30.9143 14.1488C30.8946 14.1758 30.8757 14.2028 30.8568 14.2213C30.764 14.3083 30.6695 14.3926 30.5742 14.477C30.4066 14.6272 30.2332 14.7833 30.073 14.9504C29.903 15.1259 29.7452 15.3166 29.5916 15.5005C29.5119 15.5959 29.4322 15.6929 29.3501 15.7874C29.332 15.8077 29.3098 15.8246 29.2876 15.8414C29.2622 15.8617 29.2367 15.8811 29.2145 15.9047C29.1488 15.9714 29.0855 16.0406 29.0256 16.1131C28.9615 16.1916 28.8982 16.2718 28.835 16.3511C28.7553 16.4507 28.6756 16.5511 28.5943 16.6498C28.5622 16.6886 28.5261 16.7249 28.4891 16.762C28.4176 16.8337 28.3437 16.9071 28.2936 17.0008C28.2303 17.1173 28.1597 17.2253 28.0841 17.34C27.9699 17.5138 27.8516 17.6927 27.767 17.9028C27.6741 18.1307 27.5172 18.3298 27.3496 18.5416C27.2732 18.6378 27.1976 18.7348 27.1278 18.8335C27.1081 18.8605 27.0966 18.8884 27.0867 18.9129L27.0292 19.0318C26.998 19.0985 26.9659 19.1651 26.929 19.2276C26.9051 19.2664 26.8756 19.3018 26.8468 19.3373C26.7852 19.4141 26.7228 19.4917 26.6973 19.5913C26.6496 19.7862 26.5971 19.8655 26.496 19.8967L26.4402 19.9136L26.4287 19.9727C26.4221 20.003 26.4171 20.0309 26.413 20.0587C26.4056 20.1034 26.3999 20.1431 26.3859 20.1802C26.2898 20.4359 26.1904 20.6899 26.0877 20.943L26.059 21.0148C25.9982 21.1742 25.9563 21.2645 25.8174 21.2865C25.5249 21.3312 25.4757 21.5219 25.4765 21.6493C25.4732 21.6518 25.4691 21.656 25.4658 21.6586C25.4477 21.6754 25.4288 21.694 25.4124 21.7176C25.3886 21.7522 25.359 21.7885 25.3294 21.824C25.2456 21.9269 25.1577 22.0324 25.1618 22.1581C25.1684 22.3412 25.1035 22.4965 25.0353 22.661L24.9942 22.7614C24.9515 22.8677 24.9063 22.9732 24.8603 23.0787C24.7141 23.412 24.5646 23.7571 24.5325 24.1452C24.5169 24.3241 24.4931 24.4954 24.461 24.6557C24.3715 25.108 24.3912 25.5535 24.5185 25.9425C24.6467 26.3399 24.9244 26.6884 25.3442 26.9804C25.4223 27.0344 25.5044 27.0816 25.5857 27.1289C25.6506 27.1669 25.7155 27.204 25.7788 27.2453C25.8084 27.2647 25.8371 27.2977 25.8667 27.3331L25.9037 27.3753C25.9415 27.4166 25.9784 27.458 26.0171 27.5019L26.0368 27.5246C26.0039 27.6706 26.0631 27.8132 26.1978 27.901C26.2619 27.9423 26.3317 27.9693 26.3983 27.9938C26.4582 28.0166 26.5149 28.0385 26.5617 28.068C26.8715 28.2689 27.2034 28.3153 27.5443 28.3507C28.0151 28.3971 28.5047 28.3954 29.1365 28.3431C29.4552 28.3178 29.7765 28.2731 30.0862 28.2292C30.2053 28.2123 30.3253 28.1955 30.4452 28.1803C30.5241 28.1701 30.5898 28.1794 30.6062 28.2047C30.6186 28.2241 30.621 28.2748 30.584 28.371L30.5758 28.3937C30.4904 28.6098 30.4082 28.792 30.322 28.9507C30.3055 28.9802 30.2883 29.0097 30.2719 29.0384L30.2415 29.0916C30.1831 29.1937 30.1223 29.2958 30.0632 29.3962C29.9038 29.6662 29.7395 29.9438 29.6089 30.2374C29.5629 30.3412 29.507 30.4509 29.4347 30.5783L29.4314 30.5834C29.3254 30.7699 29.2088 30.9462 29.074 31.1243C29.0305 31.1825 28.9845 31.2373 28.9253 31.3082L28.9229 31.3108C28.8629 31.3825 28.8013 31.455 28.7405 31.5268L28.6337 31.6525C28.5482 31.7537 28.4628 31.8558 28.3782 31.9579C28.1728 32.2035 27.9617 32.4566 27.7415 32.6937C27.6462 32.7958 27.5353 32.8903 27.4268 32.9806C27.2716 33.1123 27.1105 33.2481 26.9857 33.416C26.8255 33.6312 26.625 33.7839 26.413 33.9451C26.3268 34.0101 26.2413 34.0759 26.1575 34.1451C26.1091 34.1847 26.0762 34.237 26.0458 34.2834C26.0302 34.3062 26.0162 34.3282 25.9998 34.3493L25.9669 34.3915C25.9341 34.4353 25.9029 34.475 25.8692 34.4995C25.718 34.6049 25.566 34.7079 25.4124 34.8108C25.2678 34.9087 25.1232 35.0074 24.9803 35.107C24.9416 35.134 24.9145 35.1703 24.8899 35.2015C24.8743 35.2226 24.8587 35.2437 24.8447 35.2521C24.687 35.3584 24.5276 35.4614 24.3666 35.5643C24.2614 35.6318 24.1554 35.7002 24.0511 35.7685C24.0133 35.793 23.9845 35.8251 23.9599 35.8529L23.8556 35.9668C23.7537 36.0765 23.6518 36.1871 23.5508 36.2993L23.4801 36.3761C23.3347 36.5372 23.1844 36.7035 23.0455 36.8756C22.9831 36.9507 22.9814 37.0924 23.0217 37.1684C23.0628 37.2469 23.1737 37.2823 23.2402 37.2823L23.287 37.2764C23.4275 37.2393 23.5656 37.1954 23.7036 37.1498L23.8868 37.0908C23.9722 37.0638 24.0601 37.0376 24.1472 37.014C24.2072 36.9996 24.2688 36.9853 24.3296 36.9701C24.4454 36.9431 24.5604 36.9161 24.6746 36.8815C24.7453 36.8587 24.8061 36.8174 24.8603 36.7802L24.9063 36.7499C25.0131 36.6807 25.1372 36.6368 25.2662 36.5921C25.5011 36.5094 25.7451 36.4242 25.9193 36.1744C25.9612 36.1136 26.0491 36.0723 26.1419 36.0276C26.1945 36.0031 26.2471 35.9778 26.2947 35.9483L26.3572 35.9094C26.5297 35.8023 26.703 35.696 26.8731 35.5837C26.9117 35.5584 26.9429 35.5238 26.9692 35.496C26.9865 35.4766 27.0037 35.4572 27.0226 35.4428C27.0867 35.3956 27.1533 35.3509 27.2182 35.3053C27.3036 35.2471 27.389 35.1888 27.4712 35.1264L27.5188 35.091C27.6248 35.0159 27.7341 34.9365 27.7316 34.8235C27.7316 34.8066 27.7324 34.7982 27.7316 34.7948C27.7382 34.7923 27.7472 34.7897 27.7555 34.7872C27.7735 34.7813 27.7908 34.7754 27.8089 34.7669C27.9387 34.7079 28.0652 34.6454 28.1983 34.5796L28.5433 34.41L28.3913 34.3113L28.7323 34.1999L28.7421 34.1392C28.7471 34.1063 28.7618 34.0793 28.7832 34.0683C28.8448 34.0328 28.9097 34.0033 28.9746 33.9738L29.1578 33.8886L29.0568 33.7097C29.102 33.6725 29.1488 33.6371 29.1973 33.6L29.217 33.5856C29.2663 33.5502 29.3279 33.5063 29.3123 33.4346C29.3345 33.4337 29.3575 33.4312 29.3805 33.4228C29.415 33.4093 29.4561 33.4008 29.4963 33.3916C29.6048 33.3679 29.7173 33.3426 29.765 33.2481C29.8036 33.1713 29.8677 33.1409 29.9498 33.103C30.0057 33.0777 30.0706 33.0473 30.1256 32.9975C30.1692 32.9587 30.2176 32.9258 30.2661 32.8929C30.3951 32.8043 30.5397 32.7047 30.6013 32.5064C30.7697 32.5528 30.8634 32.4364 30.9332 32.3301L31.0063 32.2212C31.1107 32.0651 31.2183 31.9039 31.3366 31.7588C31.3653 31.7242 31.3957 31.6913 31.4278 31.6609C31.4574 31.6314 31.4877 31.601 31.5198 31.5723C31.5913 31.5057 31.6652 31.4373 31.7293 31.3572C31.7794 31.2947 31.7967 31.2154 31.8123 31.1479C31.8213 31.1099 31.8287 31.0736 31.8427 31.0416C31.8648 30.9926 31.9026 30.9403 31.9569 30.8863C31.9708 30.8728 31.9979 30.8619 32.0152 30.8551L32.1228 30.7977L32.0867 30.7133C32.0768 30.6889 32.0645 30.6652 32.0538 30.6433L32.0423 30.6214C32.0439 30.6205 32.0464 30.6197 32.0472 30.618C32.071 30.6053 32.0949 30.591 32.1146 30.5758L32.1516 30.5463C32.1992 30.5083 32.2534 30.4653 32.2986 30.3893C32.4095 30.1995 32.5245 30.0046 32.6149 29.7995C32.688 29.6341 32.8384 29.5759 33.006 29.516L32.4128 30.5437H32.412L32.2715 30.7876L32.2419 30.8559L32.3832 31.0315L32.458 30.9741C32.4761 30.9606 32.4941 30.9479 32.513 30.9353C32.5615 30.9015 32.6174 30.8644 32.6593 30.8112C32.6774 30.7893 32.6938 30.7606 32.7102 30.7344H32.7127L32.7398 30.6897C32.7398 30.6897 32.7398 30.6889 32.7406 30.6889L32.7595 30.656C32.7858 30.6121 32.8113 30.5674 32.8408 30.526C32.9731 30.3455 33.0528 30.1784 33.0939 30.0029C33.1021 29.9632 33.1169 29.9227 33.135 29.8738L33.181 29.743L33.0873 29.4839C33.1785 29.4485 33.2631 29.3953 33.2869 29.2831H33.305L33.2993 29.1819Z" fill="white"/>
<path d="M35.2171 21.3749C35.1769 21.4585 35.0816 21.639 35.0479 21.7082C35.0134 21.7774 34.9871 21.7715 34.9534 21.8964C34.9189 22.0213 34.8992 22.077 34.8992 22.077L35.5753 21.9588L35.6632 21.3403L35.2171 21.3749Z" fill="white"/>
<path d="M37.5306 20.8882H37.4263V21.0865H37.5306V20.8882Z" fill="white"/>
<path fill-rule="evenodd" clip-rule="evenodd" d="M54.5127 24.0988C54.5234 24.1039 54.5333 24.1081 54.5439 24.1131C54.5924 24.006 54.6417 23.898 54.6902 23.79C54.6795 23.7849 54.668 23.779 54.6557 23.7739C54.6088 23.8828 54.5604 23.9908 54.5127 24.0988Z" fill="url(#paint0_linear)"/>
<path fill-rule="evenodd" clip-rule="evenodd" d="M53.9263 25.7838C53.9945 25.8176 54.0405 25.8395 54.1021 25.869C54.1185 25.6429 54.2467 25.4784 54.3798 25.3155C54.4085 25.2809 54.4118 25.2244 54.4266 25.1771C54.4127 25.1704 54.3995 25.1645 54.3855 25.1577C54.181 25.3298 54.0347 25.5459 53.9263 25.7838Z" fill="url(#paint1_linear)"/>
<path fill-rule="evenodd" clip-rule="evenodd" d="M54.1792 25.9517C54.157 26.0378 54.0913 26.1104 54.0511 26.193C54.0075 26.285 53.9706 26.3804 53.9303 26.4749C53.9467 26.485 53.9632 26.4943 53.9796 26.5044C54.125 26.2909 54.2696 26.0783 54.4265 25.8471C54.2696 25.7931 54.2104 25.8268 54.1792 25.9517Z" fill="white"/>
<path fill-rule="evenodd" clip-rule="evenodd" d="M55.3993 23.4819C55.5102 23.336 55.6121 23.1815 55.6638 23.0027C55.6482 22.9959 55.6334 22.9875 55.6186 22.9807C55.5455 23.1478 55.4724 23.3149 55.3993 23.4819Z" fill="white"/>
<path fill-rule="evenodd" clip-rule="evenodd" d="M55.1708 23.9638C55.1815 23.9688 55.1922 23.9739 55.2028 23.9781C55.2513 23.871 55.3006 23.7621 55.3499 23.6549C55.3384 23.649 55.3277 23.6448 55.3154 23.6389C55.2677 23.7469 55.2193 23.8558 55.1708 23.9638Z" fill="white"/>
<path fill-rule="evenodd" clip-rule="evenodd" d="M53.4127 17.1754C53.2008 17.2032 52.988 17.2311 52.7769 17.2615C52.3907 17.3163 52.0054 17.3703 51.6209 17.4294C51.3063 17.4783 51.0015 17.5669 50.7172 17.7171C50.677 17.7382 50.6318 17.7677 50.6113 17.8057C50.5784 17.8665 50.534 17.885 50.4749 17.885C50.3443 17.8876 50.2128 17.8842 50.083 17.8926C49.9787 17.8985 49.8579 17.8884 49.7758 17.9382C49.6829 17.9956 49.5852 18.0183 49.503 17.9939C49.3773 17.9567 49.3206 18.0226 49.2524 18.0968C49.2146 18.139 49.1752 18.1804 49.1349 18.22C49.1234 18.2318 49.1054 18.2411 49.0889 18.2453C49.0166 18.263 48.8794 18.4099 48.877 18.4833C48.8712 18.6419 48.8737 18.8005 48.8696 18.9592C48.8688 19.0005 48.854 19.041 48.8466 19.0815C48.8277 19.1803 48.7809 19.284 48.7981 19.376C48.8178 19.4865 48.886 19.5912 48.946 19.6891C48.9846 19.7532 49.0594 19.7928 49.0988 19.8561C49.2105 20.035 49.3962 20.1143 49.5564 20.2257C49.627 20.2738 49.715 20.2958 49.7971 20.3244C49.8168 20.3312 49.8472 20.3236 49.8653 20.3109C49.9269 20.2679 49.9877 20.2223 50.0436 20.1717C50.0649 20.1523 50.0723 20.1169 50.0871 20.089C49.9047 20.1413 49.9047 20.1413 49.839 20.0907C49.8727 20.0764 49.899 20.0629 49.9261 20.0553C50.0009 20.0359 50.0822 20.0308 50.1504 19.9996C50.2317 19.9616 50.3048 19.9608 50.3829 19.9954C50.3886 19.9979 50.3919 20.0105 50.3993 20.0232C50.3738 20.0274 50.3517 20.0316 50.3015 20.0409C50.3599 20.0755 50.3944 20.1025 50.433 20.1177C50.5373 20.1582 50.5718 20.262 50.6047 20.3472C50.6318 20.4156 50.7181 20.4696 50.6795 20.5632C50.6786 20.5658 50.7025 20.5869 50.7148 20.5877C50.852 20.5953 50.9144 20.6982 50.976 20.802C51.0344 20.9016 51.1247 20.9438 51.2324 20.9531C51.257 20.9556 51.303 20.9429 51.3071 20.9269C51.3318 20.8366 51.4156 20.8417 51.4706 20.8012C51.6341 20.6805 51.8247 20.6687 52.0079 20.6282C52.256 20.5734 52.5074 20.5312 52.7588 20.4881C52.767 20.4873 52.7752 20.4856 52.7834 20.4839C52.7744 20.5101 52.7678 20.5371 52.758 20.5632C52.6397 20.8771 52.5173 21.1885 52.394 21.4998C52.2823 21.7817 52.1665 22.061 52.0514 22.3411C51.9783 22.5208 51.9027 22.698 51.8362 22.8803C51.7721 23.055 51.7204 23.2347 51.662 23.411C51.6555 23.4305 51.6382 23.4465 51.6292 23.465C51.5519 23.6254 51.4731 23.7832 51.4016 23.946C51.3457 24.0717 51.3047 24.2042 51.2504 24.3299C51.2069 24.4278 51.1502 24.5173 51.1058 24.6151C51.0286 24.7805 50.9629 24.9518 50.8816 25.1138C50.7583 25.3568 50.6219 25.5914 50.4987 25.8336C50.3599 26.107 50.2317 26.3863 50.0929 26.6597C49.9852 26.8723 49.8686 27.0799 49.7585 27.2908C49.6525 27.4942 49.549 27.7001 49.448 27.9009C49.4619 27.911 49.4775 27.9194 49.5129 27.9422C49.4356 27.981 49.36 28.0502 49.3198 28.0334C49.2155 27.987 49.1982 28.0528 49.1637 28.1169C49.1119 28.2131 49.0717 28.3211 49.0019 28.4021C48.8515 28.5776 48.7513 28.7801 48.6527 28.9852C48.5911 29.1134 48.5689 29.2704 48.4046 29.3202C48.3898 29.3252 48.3799 29.3531 48.3701 29.3725C48.3076 29.4965 48.2427 29.6214 48.1836 29.748C48.145 29.8306 48.1129 29.9184 48.0784 30.0028C48.0842 30.0053 48.0899 30.0078 48.0965 30.0095C48.131 29.969 48.1663 29.9277 48.2008 29.8872L48.2197 29.9032C48.2017 29.9446 48.1852 29.9842 48.1639 30.0382C48.2575 30.0332 48.3109 30.018 48.3356 29.9184C48.3602 29.8214 48.4251 29.7353 48.472 29.6433C48.4884 29.6475 48.5056 29.6509 48.5221 29.6543C48.5122 29.6872 48.504 29.7201 48.495 29.7522C48.5763 29.6982 48.628 29.6762 48.6675 29.7842C48.7242 29.7336 48.7784 29.6855 48.8334 29.6374C48.7989 29.7125 48.7685 29.7901 48.7381 29.8686C48.7431 29.8712 48.7496 29.8728 48.7554 29.8745C48.7899 29.834 48.8244 29.7935 48.8597 29.753L48.8778 29.7691C48.8605 29.8104 48.8433 29.8501 48.8219 29.9041C48.9156 29.899 48.9682 29.883 48.9936 29.7834C49.0191 29.6864 49.0832 29.6003 49.13 29.5083C49.1464 29.5117 49.1629 29.5151 49.1801 29.5184C49.1711 29.5522 49.1621 29.5843 49.1538 29.6172C49.2343 29.5632 49.2861 29.5404 49.3272 29.6484C49.4603 29.5303 49.5819 29.4223 49.715 29.3016C49.7125 29.2898 49.7043 29.2569 49.6944 29.2121C49.7256 29.2155 49.7462 29.2113 49.7626 29.2189C49.853 29.2577 49.922 29.2687 49.9729 29.148C49.9967 29.0923 50.0781 29.0569 50.1389 29.0257C50.2711 28.959 50.4231 28.9227 50.5094 28.7886C50.5193 28.7945 50.5299 28.7995 50.5398 28.8046C50.5562 28.7827 50.5743 28.7582 50.5907 28.7362C50.5833 28.7827 50.5759 28.8257 50.5694 28.8653C50.5809 28.8738 50.5932 28.8822 50.6047 28.8915C50.7148 28.7953 50.8002 28.6671 50.9046 28.554C50.8963 28.5793 50.8873 28.6071 50.8783 28.6325C50.8939 28.6409 50.9087 28.6485 50.9243 28.6569C50.9859 28.5742 51.0475 28.4932 51.1083 28.4097C51.0779 28.4865 51.0557 28.543 51.0385 28.5886C51.105 28.6232 51.151 28.646 51.1987 28.6704C51.2816 28.559 51.3704 28.4392 51.4566 28.3203C51.5018 28.2578 51.5536 28.2367 51.616 28.2679C51.5881 28.3489 51.5626 28.424 51.5371 28.4966C51.5528 28.5042 51.5675 28.5135 51.5832 28.5211C51.7023 28.3608 51.8189 28.1979 51.9405 28.0393C51.9627 28.0097 52.003 27.9971 52.035 27.9751C52.0325 28.0123 52.0317 28.0486 52.0276 28.0865C52.0243 28.1093 52.0169 28.1304 52.0071 28.1684C52.044 28.1608 52.0761 28.1616 52.0859 28.1481C52.2051 27.9802 52.3193 27.8089 52.4367 27.641C52.4877 27.5693 52.5074 27.463 52.6388 27.4393C52.5846 27.5549 52.5411 27.6469 52.4893 27.7583C52.5312 27.7507 52.5559 27.7532 52.5608 27.7439C52.6545 27.5777 52.7563 27.4149 52.8377 27.2427C52.9059 27.0993 52.9215 26.9229 53.108 26.8748C53.1211 26.8715 53.131 26.8504 53.14 26.836C53.1967 26.7339 53.2534 26.631 53.3101 26.5289C53.2986 26.5567 53.2862 26.5837 53.2739 26.6116C53.2903 26.6217 53.3068 26.631 53.3232 26.6403C53.3577 26.5896 53.3939 26.5373 53.4292 26.485L53.292 26.7727C53.3059 26.7786 53.3191 26.7862 53.3331 26.793C53.4522 26.5626 53.5705 26.3331 53.6888 26.1028C53.7159 26.0623 53.7422 26.0243 53.7701 25.9838C53.7069 25.9618 53.6633 25.9585 53.6272 25.9652C53.7323 25.7821 53.8375 25.599 53.9426 25.4151C53.95 25.4041 53.9583 25.3923 53.9681 25.3881C54.0494 25.3568 54.0552 25.2952 54.0404 25.2193C54.0363 25.1974 54.0462 25.1695 54.056 25.1476C54.1374 24.9822 54.2203 24.8185 54.3025 24.6531C54.2976 24.6506 54.2934 24.6481 54.2893 24.6455C54.2096 24.7687 54.1308 24.8911 54.0519 25.0151C54.0445 25.01 54.0371 25.0058 54.0297 25.0016C54.0519 24.9476 54.0725 24.8944 54.0938 24.8404C54.0848 24.8337 54.0749 24.8269 54.0659 24.8193C54.0215 24.8523 53.9772 24.8843 53.9377 24.9138C53.9353 24.8168 54.176 24.7687 53.9878 24.6118C54.0273 24.5966 54.084 24.5805 54.107 24.6008C54.1686 24.6599 54.199 24.6143 54.2236 24.573C54.2466 24.535 54.2548 24.486 54.2688 24.4413C54.3033 24.3316 54.3165 24.2093 54.3756 24.1165C54.5013 23.9182 54.6401 23.7283 54.779 23.5393C54.7675 23.5655 54.756 23.5925 54.7445 23.6186C54.8028 23.541 54.8587 23.4608 54.9055 23.3765C54.9449 23.3376 54.9901 23.3022 55.0213 23.2583C55.1142 23.1275 55.1963 22.9891 55.2842 22.8558C55.3434 22.7664 55.4165 22.6862 55.465 22.5917C55.5266 22.4711 55.5841 22.3487 55.6416 22.2255C55.5833 22.3791 55.5233 22.5327 55.4609 22.6845C55.5718 22.5116 55.672 22.3344 55.7673 22.1555C55.7517 22.228 55.7361 22.3006 55.7197 22.3732C55.7279 22.3799 55.7377 22.3867 55.7443 22.3934C55.7993 22.3048 55.8905 22.2576 55.9209 22.1386C55.9595 21.9876 56.0138 21.8374 56.082 21.6973C56.183 21.4897 56.3038 21.2897 56.3974 21.1201C56.3794 21.0467 56.3522 21.002 56.3638 20.9699C56.3983 20.8611 56.4492 20.7565 56.4919 20.6501C56.5897 20.4046 56.7753 20.2097 56.8263 19.9287C56.8353 19.8789 56.8485 19.8291 56.8608 19.7802C56.9881 19.7591 57.1138 19.738 57.2412 19.7178C56.8016 20.6341 56.5034 21.6104 56.1181 22.5495C56.6784 21.6754 57.03 20.7101 57.2937 19.7085C57.3496 19.7 57.4055 19.6899 57.4622 19.6806C57.6774 19.6469 57.8935 19.6207 58.1079 19.587C58.5096 19.5237 58.9229 19.5481 59.3106 19.3971C59.4117 19.3574 59.5374 19.392 59.6163 19.2832C59.6286 19.2672 59.668 19.2689 59.696 19.2663C59.8348 19.2511 59.9736 19.2427 60.1125 19.2224C60.3474 19.187 60.5816 19.1406 60.8165 19.106C60.9956 19.0798 61.1756 19.0638 61.3547 19.0427C61.4771 19.0284 61.6003 19.0191 61.7211 18.9971C61.8846 18.9685 62.0464 18.9305 62.2091 18.8976C62.2584 18.8875 62.3077 18.8782 62.3578 18.8731C62.5418 18.8529 62.7176 18.7634 62.9107 18.7913C62.937 18.7955 62.9665 18.7811 62.9937 18.7769C63.1621 18.7516 63.3305 18.7145 63.4997 18.7027C63.7692 18.6841 64.0403 18.6816 64.2958 18.5752C64.3032 18.5719 64.3139 18.5719 64.3229 18.5727C64.4535 18.5812 64.5842 18.5921 64.7148 18.5997C64.7493 18.6014 64.7855 18.6014 64.8175 18.5896C65.1124 18.4765 65.4295 18.5128 65.7335 18.4529C65.8518 18.4284 65.9792 18.4512 66.1032 18.4478C66.1254 18.447 66.1484 18.42 66.1698 18.4048C66.15 18.3812 66.1328 18.3398 66.1114 18.3365C66.0498 18.3272 65.9866 18.3348 65.9249 18.3348C65.897 18.3348 65.8633 18.344 65.8411 18.3314C65.7771 18.2934 65.7196 18.2715 65.6555 18.3339C65.6456 18.344 65.6062 18.3407 65.5955 18.3297C65.5372 18.2673 65.4682 18.2841 65.4024 18.2985C65.3482 18.3095 65.2956 18.3373 65.2373 18.3601C65.2258 18.2867 65.1905 18.2791 65.1198 18.2943C65.0656 18.3061 65.0023 18.3584 64.9366 18.2985C64.907 18.2715 64.8561 18.2555 64.8158 18.2555C64.6844 18.2555 64.553 18.2656 64.4305 18.2715C64.4231 18.2234 64.4264 18.1778 64.4149 18.1728C64.35 18.1466 64.281 18.112 64.2153 18.1162C64.06 18.1272 63.9072 18.1626 63.7528 18.1787C63.724 18.1812 63.6903 18.1356 63.6608 18.1137C63.6854 18.085 63.7059 18.0462 63.7372 18.0302C63.7823 18.0082 63.8349 18.0032 63.8842 17.9905C63.9064 18.0572 63.9951 18.0588 64.097 17.9795C64.06 17.9669 64.0304 17.9584 63.9836 17.9424C64.0214 17.9247 64.0436 17.907 64.0699 17.9044C64.2547 17.8816 64.4412 17.8606 64.6269 17.8395C64.7904 17.8209 64.9539 17.8032 65.1165 17.7821C65.1642 17.7753 65.197 17.7475 65.1872 17.6893C65.1773 17.6226 65.1338 17.6429 65.0944 17.6471C65.036 17.6547 64.9769 17.6665 64.9185 17.669C64.7748 17.6766 64.631 17.6766 64.4881 17.685C64.2202 17.7002 63.954 17.7196 63.6862 17.734C63.4907 17.7441 63.2943 17.7517 63.0996 17.7576C62.9879 17.7601 62.8762 17.7585 62.7685 17.7585C62.8055 17.7019 62.9361 17.7601 62.9238 17.6201C62.8597 17.6243 62.7989 17.6234 62.7398 17.6319C62.6617 17.6437 62.5845 17.6639 62.5065 17.6775C62.4638 17.685 62.4202 17.6884 62.3775 17.6876C62.3372 17.6867 62.2986 17.6699 62.2592 17.6715C62.2009 17.6741 62.1425 17.6901 62.0834 17.6926C61.9232 17.6994 61.7621 17.6985 61.6011 17.7061C61.2832 17.7213 60.9652 17.7407 60.6465 17.7568C60.6325 17.7576 60.6177 17.745 60.6029 17.739C60.6309 17.712 60.6596 17.7028 60.6884 17.6969C60.7607 17.6817 60.833 17.6656 60.9069 17.6547C60.9825 17.6429 61.0597 17.6344 61.1361 17.6285C61.2339 17.6192 61.3308 17.6167 61.4278 17.6066C61.5469 17.5931 61.6652 17.572 61.7835 17.5576C61.855 17.5492 61.9265 17.5509 61.9979 17.5433C62.1894 17.523 62.3791 17.4918 62.5706 17.4808C62.7981 17.4673 63.0273 17.4707 63.2557 17.4665C63.2722 17.4665 63.2869 17.4598 63.3017 17.4581C63.3765 17.4479 63.4496 17.4353 63.5244 17.4294C63.7002 17.4159 63.876 17.4057 64.0518 17.3931C64.0666 17.3922 64.0806 17.3838 64.0962 17.3813C64.1225 17.3771 64.1496 17.372 64.1775 17.3703C64.3016 17.3602 64.4273 17.3517 64.5521 17.3408C64.5554 17.3408 64.5571 17.3247 64.5661 17.2986C64.5291 17.2986 64.5004 17.2977 64.4724 17.2986C64.2153 17.3129 63.9573 17.3298 63.7002 17.3425C63.466 17.3543 63.2335 17.3619 62.9994 17.3703C62.9205 17.3737 62.8417 17.3728 62.7628 17.3787C62.6223 17.3889 62.4835 17.4066 62.3438 17.4117C62.1762 17.4184 62.0094 17.4117 61.8418 17.4159C61.7769 17.4176 61.7079 17.4834 61.6447 17.388C61.7983 17.3703 61.9462 17.3492 62.0941 17.3357C62.2699 17.3197 62.4465 17.3129 62.6231 17.2961C62.7579 17.2826 62.8918 17.2522 63.0273 17.2404C63.1933 17.2269 63.3609 17.2286 63.5277 17.2176C63.5671 17.215 63.609 17.1737 63.6443 17.1796C63.7955 17.2041 63.9384 17.1923 64.0912 17.1644C64.2161 17.1416 64.3476 17.1467 64.4807 17.1256C64.8126 17.075 65.1502 17.0682 65.4862 17.0429C65.5503 17.0379 65.6136 17.0227 65.6777 17.0159C65.7771 17.0058 65.8765 16.9881 65.9742 16.9923C66.0449 16.9957 66.1155 17.0497 66.1673 16.9543C66.1722 16.9459 66.2026 16.9509 66.2207 16.9509C66.2544 16.9509 66.2872 16.9543 66.3209 16.9509C66.4253 16.94 66.5296 16.9163 66.6339 16.9172C66.8714 16.918 67.108 16.9324 67.3446 16.9391C67.5418 16.9442 67.7381 16.9408 67.9336 16.9518C68.1292 16.9628 68.3239 16.8944 68.5194 16.9543C68.5506 16.9644 68.5884 16.9501 68.6237 16.9484C68.6015 16.9248 68.5785 16.9138 68.5555 16.9113C68.3888 16.8953 68.2212 16.8834 68.0544 16.8649C68.0076 16.8598 67.9624 16.8353 67.9172 16.8202C67.9205 16.8075 67.9221 16.7957 67.9246 16.7839C68.6196 16.7662 69.3114 16.8185 70.0039 16.8851C69.9505 16.8531 69.8889 16.8505 69.8404 16.8244C69.686 16.7408 69.5184 16.7341 69.3516 16.7172C69.267 16.7088 69.1643 16.74 69.1158 16.6261C69.1126 16.6185 69.0937 16.616 69.0822 16.6143C68.945 16.5965 68.8078 16.5712 68.6706 16.5645C68.2614 16.5468 67.8523 16.5375 67.4432 16.524C67.3659 16.5214 67.2821 16.54 67.2271 16.4539C67.2164 16.4379 67.1819 16.4329 67.1589 16.4303C67.0192 16.4185 66.8796 16.4042 66.7399 16.3991C66.2437 16.3822 65.7483 16.3569 65.2521 16.3611C65.0607 16.3628 64.8816 16.2843 64.6795 16.3308C64.465 16.3814 64.2358 16.3662 64.0124 16.3687C63.8867 16.3704 63.7585 16.3341 63.6336 16.3417C63.4176 16.3535 63.2023 16.3746 62.9854 16.3611C62.9164 16.3569 62.8466 16.3578 62.7776 16.3645C62.7291 16.3687 62.6823 16.3898 62.6346 16.3999C62.6133 16.4042 62.5837 16.4101 62.5673 16.3999C62.481 16.3468 62.2789 16.3561 62.2124 16.4126C62.1795 16.3999 62.154 16.3797 62.1294 16.3822C61.9618 16.4025 61.7942 16.4269 61.6258 16.4489C61.6036 16.4514 61.5806 16.4523 61.5584 16.4497C61.5173 16.443 61.4771 16.4261 61.4368 16.4278C61.2125 16.4345 60.9883 16.4421 60.7648 16.4556C60.6736 16.4607 60.5824 16.4776 60.4937 16.5012C60.4255 16.5189 60.3663 16.5366 60.2982 16.4936C60.2645 16.4717 60.2152 16.47 60.1725 16.4708C60.1174 16.4717 60.0615 16.4826 60.0065 16.4902C59.9211 16.5029 59.8364 16.5164 59.7502 16.529C59.7264 16.5333 59.6951 16.5172 59.6647 16.5189C59.4166 16.5409 59.1685 16.5636 58.9212 16.5915C58.8752 16.5974 58.8309 16.6244 58.7939 16.6379C58.7668 16.6269 58.7389 16.6041 58.7126 16.6058C58.6008 16.6143 58.4883 16.621 58.3782 16.6438C58.3346 16.6531 58.2919 16.6581 58.2484 16.6657C58.2508 16.6531 58.2525 16.6413 58.2492 16.6379C58.181 16.5662 58.2328 16.5071 58.2656 16.4548C58.4776 16.1274 58.4751 15.7679 58.4217 15.4009C58.4184 15.3849 58.3996 15.3705 58.3659 15.3249C58.3626 15.4515 58.3618 15.5418 58.3601 15.654C58.1802 15.4532 58.3765 15.2482 58.3034 15.0625C58.1325 15.1072 58.0249 15.0051 58.052 14.8347C58.057 14.806 58.0594 14.7731 58.052 14.7461C58.0233 14.6347 57.9986 14.5217 57.9559 14.4162C57.9411 14.3799 57.8803 14.3436 57.8393 14.3419C57.762 14.3377 57.7103 14.3301 57.7004 14.2348C57.6979 14.2061 57.6511 14.1833 57.615 14.1487C57.5944 14.2078 57.5821 14.2449 57.5739 14.2702C57.4901 14.2651 57.417 14.2618 57.3151 14.255C57.3159 14.163 57.3167 14.0626 57.3184 13.9217C57.233 13.8829 57.113 13.8247 56.9914 13.7724C56.9725 13.7639 56.9397 13.7715 56.9208 13.7833C56.8329 13.839 56.7597 13.8238 56.7072 13.7361C56.6743 13.6821 56.6529 13.6205 56.6201 13.5496C56.5963 13.5504 56.5593 13.5504 56.524 13.5563C56.3818 13.5791 56.2413 13.6104 56.0992 13.6247C56.0672 13.6281 56.0121 13.5834 55.999 13.5488C55.9604 13.4458 55.9094 13.418 55.8117 13.461C55.7706 13.4787 55.7155 13.5091 55.686 13.4939C55.6112 13.4559 55.5463 13.4306 55.4633 13.4669C55.4395 13.477 55.4017 13.4534 55.3697 13.4424C55.2867 13.4104 55.2062 13.3699 55.1224 13.3479C54.9482 13.3032 54.7741 13.2678 54.5974 13.2323C54.567 13.2264 54.5309 13.2323 54.5005 13.2425C54.3518 13.2914 54.2031 13.3437 54.0552 13.3927C54.0158 13.3851 53.978 13.3749 53.9394 13.3673C53.9081 13.3614 53.8728 13.3673 53.8416 13.3775C53.6682 13.434 53.4965 13.4964 53.3232 13.5521C53.2846 13.5648 53.2402 13.5563 53.2008 13.5631C53.1425 13.5732 53.0849 13.5884 53.0266 13.6011C53.0513 13.65 53.0718 13.7015 53.1014 13.7479C53.1967 13.9031 53.3856 13.9884 53.4086 14.2019C53.4243 14.3428 53.4431 14.4938 53.5064 14.617C53.6132 14.8271 53.5918 15.0414 53.5861 15.26C53.582 15.4279 53.5713 15.5966 53.5918 15.762C53.6206 16.0034 53.6567 16.2379 53.5853 16.4801C53.5294 16.6683 53.485 16.8607 53.4423 17.053L53.4127 17.1754ZM50.1537 19.6595C50.0107 19.6899 49.8678 19.7169 49.724 19.7414C49.6706 19.7498 49.609 19.7684 49.595 19.6739C49.6952 19.6418 49.793 19.6089 49.8965 19.576C49.9992 19.6924 50.1167 19.5718 50.2572 19.5971C50.212 19.6249 50.1849 19.6519 50.1537 19.6595ZM50.7181 18.3559C50.7164 18.3466 50.7156 18.3381 50.7148 18.3289C50.8783 18.2917 51.0418 18.263 51.2094 18.2647C51.211 18.2765 51.2118 18.2875 51.2135 18.2993C51.0483 18.3179 50.8832 18.3373 50.7181 18.3559ZM52.8253 25.2235C52.8352 25.2303 52.8434 25.237 52.8525 25.2429C52.8705 25.2294 52.8911 25.2176 52.905 25.2007C52.8738 25.2547 52.8451 25.3096 52.8138 25.3636C52.781 25.421 52.744 25.4767 52.7095 25.5332C52.689 25.545 52.666 25.5594 52.6339 25.5788C52.6602 25.4615 52.6799 25.3712 52.7005 25.2817C52.6931 25.2792 52.6865 25.2767 52.6799 25.2733C52.5994 25.3973 52.5189 25.5205 52.4384 25.6446C52.4039 25.6547 52.3702 25.6648 52.3365 25.6741C52.3357 25.6733 52.3357 25.6733 52.3349 25.6716C52.3365 25.669 52.3373 25.6648 52.339 25.6623C52.4244 25.5205 52.5173 25.3838 52.6076 25.2446C52.615 25.2336 52.6208 25.221 52.6306 25.2142C52.7834 25.1214 52.9017 24.9932 52.9913 24.8362C52.997 24.8252 53.0192 24.8244 53.0554 24.8371C52.9781 24.9662 52.9017 25.0944 52.8253 25.2235ZM53.0324 24.486C52.9593 24.5915 52.864 24.6818 52.7785 24.778C52.7695 24.7738 52.7613 24.7696 52.7522 24.7653C52.7752 24.7054 52.799 24.6421 52.8212 24.5814C52.8985 24.4818 52.9749 24.3806 53.0439 24.2726C53.1301 24.1376 53.264 24.0338 53.3939 23.9283C53.2797 24.1181 53.1581 24.3038 53.0324 24.486ZM54.1678 23.8135C54.0881 23.9241 54.001 24.0287 53.9221 24.1409C53.8991 24.1747 53.8934 24.2236 53.8843 24.2667C53.8827 24.2717 53.927 24.2953 53.9311 24.2911C53.9583 24.2624 53.9804 24.2295 54.0034 24.1975C54.0445 24.1418 54.0856 24.0869 54.1505 24.0447C54.1275 24.0911 54.1094 24.1409 54.0815 24.1848C54.0002 24.3072 53.9098 24.4253 53.8309 24.5485C53.7948 24.6042 53.7792 24.6742 53.7479 24.7341C53.6584 24.9003 53.5664 25.0657 53.4727 25.2294C53.4431 25.2792 53.4119 25.3273 53.3815 25.3771C53.3799 25.3695 53.3799 25.3619 53.3791 25.3543C53.3741 25.3324 53.384 25.3045 53.3955 25.2826C53.476 25.1172 53.5598 24.9535 53.642 24.7881C53.637 24.7856 53.6321 24.7831 53.6288 24.7805C53.5491 24.9037 53.4694 25.0261 53.3906 25.1501C53.3832 25.145 53.3766 25.1408 53.3684 25.1366C53.3906 25.0835 53.4119 25.0294 53.4325 24.9754C53.4234 24.9687 53.4144 24.9619 53.4054 24.9552C53.3602 24.9873 53.3166 25.0202 53.2772 25.0489C53.2747 24.9518 53.5146 24.9037 53.3265 24.7476C53.3659 24.7324 53.4226 24.7156 53.4448 24.7375C53.5072 24.7966 53.5368 24.751 53.5623 24.7096C53.5853 24.6717 53.5935 24.6227 53.6075 24.5789C53.642 24.47 53.6543 24.346 53.7134 24.2532C53.803 24.1131 53.8983 23.9772 53.996 23.8422C54.0593 23.7908 54.1234 23.7393 54.1825 23.6861C54.1858 23.6827 54.1981 23.687 54.2318 23.6887C54.2088 23.7342 54.1932 23.7781 54.1678 23.8135ZM54.5596 23.703C54.6089 23.4001 54.8012 23.06 54.977 22.9191C54.9893 22.9259 55.0024 22.9335 55.0148 22.9402C54.8636 23.1942 54.7116 23.4482 54.5596 23.703ZM63.5663 18.1145C63.5441 18.247 63.4373 18.1753 63.3822 18.2394C63.3666 18.1989 63.3568 18.1719 63.3412 18.128C63.4233 18.123 63.4932 18.1196 63.5663 18.1145ZM64.5677 18.1795C64.6409 18.1955 64.6951 18.2209 64.7477 18.2158C64.8602 18.2057 64.9703 18.1795 65.082 18.1584C65.0976 18.1559 65.1108 18.1432 65.1297 18.1339C65.0245 18.0555 64.7082 18.0732 64.5677 18.1795ZM65.722 18.0622H65.4706C65.5216 18.139 65.6596 18.1297 65.722 18.0622ZM64.6022 17.318C64.6195 17.3323 64.6384 17.3602 64.6532 17.3577C64.7181 17.3509 64.783 17.3349 64.8479 17.3222C64.8471 17.3121 64.8462 17.3028 64.8462 17.2935C64.7822 17.2885 64.7181 17.28 64.6548 17.28C64.6368 17.2809 64.6195 17.3045 64.6022 17.318ZM65.9274 18.0605C65.9488 18.0723 65.9685 18.0909 65.9898 18.0934C66.0153 18.0968 66.0432 18.0858 66.0695 18.0816C66.0704 18.0723 66.0728 18.0631 66.0728 18.0538C66.0465 18.0453 66.0194 18.0285 65.9923 18.0293C65.9709 18.0302 65.9496 18.0496 65.9274 18.0605Z" fill="white"/>
<path fill-rule="evenodd" clip-rule="evenodd" d="M41.7985 17.4191C41.7615 17.436 41.7279 17.4554 41.6901 17.4689C41.6613 17.4799 41.6301 17.4807 41.6005 17.4883C41.566 17.4959 41.529 17.4976 41.5011 17.5145C41.4296 17.5567 41.3146 17.5592 41.2431 17.5128C41.23 17.5043 41.2136 17.4942 41.1996 17.4951C41.0862 17.5086 41.0427 17.4183 40.9868 17.3449C40.9408 17.2833 40.8899 17.2259 40.8463 17.1626C40.7798 17.0656 40.71 16.9685 40.6574 16.8631C40.6204 16.7913 40.6064 16.707 40.5933 16.6259C40.5826 16.5601 40.5884 16.4918 40.5892 16.4243C40.59 16.3272 40.5777 16.3087 40.489 16.28C40.3805 16.2454 40.2918 16.1349 40.2934 16.0353C40.2934 16.0167 40.2992 15.9999 40.3049 15.9788C40.4347 16.0193 40.5572 16.0125 40.6755 15.9543C40.6976 15.9433 40.7215 15.9231 40.7313 15.902C40.825 15.6809 40.9449 15.475 41.0903 15.286C41.2111 15.1282 41.3384 14.973 41.4724 14.827C41.5767 14.7122 41.6925 14.6076 41.8125 14.5089C41.976 14.3747 42.1411 14.2388 42.3186 14.1266C42.4558 14.0406 42.5946 13.9545 42.7466 13.8912C42.8838 13.8338 43.0243 13.8186 43.1631 13.7874C43.1878 13.7824 43.2157 13.7908 43.2403 13.7992C43.3151 13.8245 43.3907 13.8524 43.4654 13.8811C43.4769 13.8853 43.4884 13.8937 43.495 13.9047C43.5377 13.9823 43.5837 14.0608 43.6207 14.141C43.6741 14.254 43.6692 14.3696 43.6199 14.4827C43.5755 14.5848 43.5361 14.6903 43.4819 14.7873C43.4449 14.8557 43.3866 14.913 43.3373 14.9738C43.2789 15.0455 43.2264 15.1223 43.1606 15.1856C43.053 15.2936 42.9372 15.3915 42.8197 15.4885C42.6406 15.6362 42.4401 15.7467 42.2487 15.8716C42.0836 15.9796 41.8996 16.0479 41.7139 16.1079C41.6169 16.1382 41.5184 16.161 41.4214 16.1889C41.4075 16.1931 41.3877 16.2032 41.3845 16.215C41.3491 16.3264 41.3163 16.4378 41.2826 16.5492C41.29 16.5551 41.2965 16.561 41.3031 16.5677C41.3467 16.5492 41.3918 16.5331 41.4346 16.5129C41.6441 16.4116 41.8519 16.3053 42.0639 16.2091C42.289 16.107 42.5174 16.015 42.7449 15.9188C42.8287 15.8834 42.9125 15.8446 42.9988 15.8159C43.1598 15.7636 43.3225 15.7146 43.486 15.6716C43.5164 15.6632 43.5788 15.6775 43.5854 15.6961C43.5977 15.7324 43.5911 15.7864 43.5698 15.8176C43.5402 15.8648 43.4835 15.891 43.463 15.9543C43.4556 15.9788 43.4178 15.9956 43.3907 16.0134C43.2987 16.0733 43.2058 16.1323 43.113 16.1931C43.1056 16.1973 43.0949 16.2074 43.0949 16.2116C43.1113 16.2986 43.0358 16.3061 42.993 16.3416C42.9306 16.3922 42.8304 16.3914 42.8066 16.4909C42.7293 16.4935 42.7088 16.6124 42.616 16.588C42.6077 16.5863 42.5913 16.5981 42.5823 16.6074C42.5478 16.6462 42.5141 16.6884 42.4788 16.7272C42.4566 16.7508 42.4336 16.7745 42.4073 16.793C42.2955 16.8706 42.2035 16.9652 42.1444 17.0926C42.1411 17.1002 42.1362 17.1111 42.1296 17.1145C42.0392 17.1575 41.9908 17.2428 41.9308 17.317C41.9209 17.3288 41.9045 17.3347 41.8913 17.3432C41.8585 17.366 41.8248 17.3887 41.7919 17.4107C41.7944 17.4149 41.7969 17.4166 41.7985 17.4191ZM41.6186 15.5569C41.6252 15.5645 41.6301 15.5729 41.6358 15.5805C41.6958 15.5467 41.755 15.5121 41.8166 15.4784C41.93 15.4151 42.0483 15.3569 42.1592 15.2877C42.2528 15.2295 42.3416 15.1611 42.4303 15.0936C42.5576 14.9966 42.6924 14.9054 42.8082 14.7949C42.915 14.6945 43.0029 14.573 43.0966 14.4591C43.1393 14.4085 43.1155 14.3561 43.0826 14.3165C43.0678 14.2988 43.0259 14.2912 43.0021 14.2988C42.9257 14.3232 42.846 14.3477 42.7794 14.3907C42.6932 14.4473 42.6184 14.5232 42.5379 14.5899C42.4229 14.6852 42.298 14.7696 42.1945 14.8768C42.04 15.0362 41.9004 15.2101 41.7566 15.3788C41.7073 15.4362 41.6646 15.4978 41.6186 15.5569Z" fill="white"/>
<path fill-rule="evenodd" clip-rule="evenodd" d="M46.4714 14.6093C46.5256 14.6051 46.579 14.6093 46.6275 14.5942C46.7096 14.5697 46.8501 14.6726 46.8485 14.7714C46.8477 14.8557 46.8501 14.9393 46.8033 15.0194C46.777 15.0641 46.7803 15.1266 46.7589 15.1755C46.7129 15.2793 46.6587 15.3789 46.6102 15.4827C46.5577 15.5949 46.51 15.7088 46.4558 15.8219C46.3975 15.9459 46.3317 16.0666 46.2742 16.1915C46.2315 16.2834 46.197 16.3796 46.1576 16.4741C46.1395 16.5146 46.1198 16.5534 46.1042 16.5948C46.0984 16.61 46.1009 16.6285 46.1009 16.6454C46.1173 16.6437 46.1378 16.6471 46.1485 16.6378C46.1921 16.6049 46.2348 16.5703 46.2742 16.5315C46.4106 16.3999 46.5494 16.2708 46.6801 16.1324C46.7951 16.01 46.8994 15.8793 47.0087 15.7518C47.0481 15.7046 47.0917 15.659 47.127 15.6092C47.1451 15.5831 47.1525 15.5493 47.1631 15.519C47.1672 15.508 47.1697 15.4962 47.1746 15.4869C47.2839 15.3038 47.3932 15.1207 47.5049 14.9384C47.5698 14.8313 47.638 14.7249 47.7037 14.6212C47.7341 14.6431 47.7604 14.6608 47.7867 14.6802C47.7941 14.6794 47.8015 14.6794 47.8089 14.6777C47.7892 14.7342 47.7703 14.7908 47.7505 14.8481C47.716 14.9443 47.6914 15.0456 47.647 15.1376C47.5608 15.3198 47.4589 15.4936 47.3751 15.6767C47.3258 15.7864 47.279 15.8987 47.2404 16.0134C47.187 16.1704 47.0966 16.3163 47.0087 16.4581C46.9364 16.5745 46.8436 16.6775 46.763 16.7889C46.7409 16.8176 46.7368 16.8597 46.7146 16.8867C46.6439 16.9694 46.5708 17.0521 46.4928 17.1272C46.4139 17.2032 46.3317 17.2732 46.2446 17.3407C46.2093 17.3677 46.1625 17.3812 46.119 17.3964C46.0738 17.4141 46.0294 17.4268 45.9834 17.4538C45.9275 17.4884 45.8462 17.4783 45.7755 17.4909C45.6942 17.5053 45.6416 17.4614 45.5907 17.4065C45.5554 17.3694 45.5184 17.334 45.4765 17.3078C45.3952 17.2597 45.3828 17.1804 45.3763 17.0994C45.3713 17.042 45.3754 16.9855 45.3746 16.9213C45.3615 16.9273 45.35 16.9281 45.3442 16.9357C45.2588 17.0353 45.175 17.1399 45.0863 17.2386C45.0115 17.3221 44.9318 17.4023 44.8529 17.4808C44.7437 17.5863 44.6295 17.6858 44.5227 17.7947C44.4841 17.8326 44.4668 17.8917 44.4356 17.9373C44.4159 17.9651 44.3863 17.9862 44.3543 18.0149C44.3378 17.9803 44.3313 17.9407 44.3148 17.9364C44.2655 17.9229 44.2105 17.9221 44.1587 17.917C44.1423 17.9162 44.1193 17.9272 44.1094 17.9196C44.0758 17.8917 44.0511 17.8883 44.0158 17.9204C43.9887 17.9457 43.9008 17.8816 43.8975 17.8276C43.8926 17.7398 43.8539 17.6867 43.7808 17.6411C43.7225 17.604 43.6896 17.5297 43.6321 17.4934C43.5237 17.4242 43.5114 17.3205 43.499 17.2074C43.4752 16.9948 43.4842 16.7847 43.536 16.5779C43.5689 16.4488 43.6099 16.3206 43.651 16.194C43.7159 15.9974 43.7775 15.7991 43.8531 15.6067C43.9172 15.4413 44.0002 15.2835 44.0758 15.1224C44.1398 14.9865 44.2006 14.8498 44.2688 14.7165C44.3485 14.5604 44.4364 14.4094 44.5186 14.2549C44.5383 14.217 44.5457 14.1706 44.5703 14.1351C44.6812 13.9765 44.7971 13.8187 44.9129 13.6634C44.9975 13.5512 45.0854 13.4432 45.1733 13.3352C45.2415 13.25 45.2867 13.2432 45.3639 13.3234C45.4223 13.3842 45.4765 13.4508 45.5217 13.5217C45.5734 13.6019 45.5611 13.6921 45.525 13.7765C45.4519 13.9453 45.373 14.1107 45.3023 14.2803C45.2695 14.3604 45.253 14.4473 45.221 14.5275C45.1906 14.6043 45.1462 14.6743 45.1167 14.7511C45.0994 14.7916 45.0961 14.8372 45.0871 14.8819C45.0838 14.9013 45.0838 14.9232 45.0772 14.941C45.0066 15.1325 44.931 15.324 44.8653 15.5181C44.8053 15.6978 44.7544 15.8826 44.7018 16.0649C44.6837 16.1299 44.6697 16.1948 44.6574 16.2607C44.6541 16.2758 44.664 16.2952 44.6673 16.313C44.6862 16.3079 44.71 16.3096 44.7223 16.2978C44.8349 16.1999 44.945 16.1003 45.0567 16.0008C45.1331 15.9324 45.2111 15.8649 45.2843 15.7932C45.4264 15.6565 45.5644 15.5156 45.7065 15.3789C45.9029 15.189 46.1017 15.0034 46.2972 14.8135C46.3539 14.7595 46.381 14.6752 46.4632 14.6456C46.4714 14.6448 46.4698 14.6203 46.4714 14.6093Z" fill="white"/>
<path fill-rule="evenodd" clip-rule="evenodd" d="M40.6508 14.6178C40.6442 14.5562 40.6401 14.4929 40.6245 14.433C40.6064 14.3638 40.5809 14.2946 40.5514 14.2296C40.5111 14.1427 40.4947 14.0415 40.4158 13.9748C40.4076 13.9672 40.3994 13.9562 40.3961 13.9453C40.3665 13.8423 40.2967 13.7681 40.2244 13.6972C40.2022 13.6753 40.1578 13.6761 40.1398 13.6525C40.0724 13.5689 39.9779 13.5622 39.8859 13.5436C39.8407 13.5352 39.7939 13.531 39.7487 13.5242C39.7019 13.5166 39.6534 13.4913 39.6107 13.4997C39.4957 13.5251 39.3839 13.5723 39.2681 13.5959C39.1383 13.6238 39.0307 13.6972 38.9337 13.7757C38.8762 13.8212 38.8146 13.8567 38.7563 13.8997C38.7004 13.9402 38.6388 13.9748 38.5903 14.0221C38.5073 14.1031 38.435 14.1959 38.3529 14.2786C38.2568 14.3756 38.1598 14.4701 38.0867 14.5874C38.0727 14.6102 38.0506 14.6304 38.0267 14.6431C38.0185 14.6482 37.9873 14.633 37.9824 14.6195C37.9553 14.5401 37.9347 14.4583 37.9051 14.3798C37.8789 14.3098 37.8427 14.244 37.8107 14.1765C37.7827 14.1191 37.7655 14.0524 37.7252 14.0043C37.6069 13.8609 37.496 13.7082 37.3013 13.6634C37.1822 13.6356 37.077 13.5605 36.9505 13.5656C36.9324 13.5664 36.9135 13.5487 36.9061 13.5453C36.8675 13.5504 36.8421 13.5538 36.8133 13.558C36.7574 13.5664 36.6983 13.5647 36.6457 13.5841C36.6194 13.5934 36.5931 13.6018 36.5668 13.6103C36.5389 13.6128 36.5118 13.6179 36.4839 13.6204C36.1758 13.6483 35.8767 13.7006 35.6122 13.8845C35.4692 13.9832 35.3156 14.0676 35.1718 14.1638C35.1324 14.19 35.1045 14.2347 35.0749 14.2744C35.0675 14.2853 35.0675 14.3123 35.0757 14.3241C35.1152 14.3807 35.1546 14.4389 35.2014 14.4878C35.2187 14.5072 35.2556 14.5039 35.2811 14.5157C35.3156 14.5317 35.3485 14.5528 35.3813 14.5722C35.3961 14.5815 35.4068 14.5967 35.4208 14.6043C35.5251 14.6532 35.6303 14.7022 35.7363 14.7469C35.765 14.7587 35.7995 14.7638 35.8291 14.7595C35.8932 14.7494 35.9564 14.7334 36.0197 14.7173C36.0673 14.7047 36.0616 14.6549 36.1051 14.6338C36.1717 14.6026 36.1996 14.5317 36.2645 14.4963C36.3171 14.4676 36.3286 14.3866 36.3738 14.3478C36.4551 14.2794 36.6137 14.2414 36.7435 14.2144C36.7813 14.2212 36.8182 14.2288 36.8577 14.2339C36.8733 14.2355 36.8922 14.2693 36.8963 14.2921C36.9061 14.3444 36.9086 14.4001 36.9152 14.4541C36.925 14.5376 36.9374 14.6195 36.9464 14.703C36.9554 14.7941 36.9119 14.8861 36.9521 14.9772C36.9554 14.9857 36.9464 14.9992 36.9423 15.0101C36.9349 15.0329 36.9234 15.0532 36.9217 15.0751C36.9152 15.1452 36.9119 15.2152 36.9061 15.2852C36.9061 15.3029 36.9004 15.3198 36.8963 15.3367C36.8774 15.4067 36.8577 15.4768 36.8388 15.5468C36.8306 15.5763 36.8215 15.605 36.8133 15.6346C36.801 15.6793 36.7895 15.7257 36.778 15.7721C36.773 15.789 36.7673 15.8067 36.7615 15.8219C36.7369 15.8835 36.7098 15.9425 36.686 16.0041C36.6704 16.0472 36.6621 16.0936 36.6441 16.1349C36.6104 16.2092 36.5718 16.2809 36.5348 16.3535C36.5003 16.4201 36.4666 16.4859 36.4296 16.5509C36.4099 16.5864 36.3762 16.6167 36.3664 16.6539C36.3442 16.7458 36.285 16.8125 36.2325 16.8834C36.2144 16.907 36.2078 16.9391 36.1955 16.9678C36.1881 16.9863 36.1717 16.9998 36.161 17.0175C36.1248 17.0732 36.0944 17.1323 36.055 17.1846C36.0041 17.253 35.9466 17.3154 35.8915 17.3812C35.8866 17.388 35.8833 17.4015 35.885 17.4091C35.8973 17.4479 35.885 17.4681 35.8504 17.4842C35.8307 17.4934 35.8159 17.5162 35.8036 17.5365C35.719 17.6749 35.636 17.8149 35.5522 17.9541C35.5292 17.993 35.5243 18.0799 35.5481 18.0951C35.5843 18.1212 35.6229 18.1432 35.6574 18.171C35.6878 18.1955 35.7091 18.2309 35.7404 18.2537C35.7765 18.2815 35.8176 18.3018 35.857 18.3237C35.8578 18.317 35.8603 18.3094 35.8603 18.3026C35.8825 18.295 35.9047 18.2824 35.9269 18.2815C35.9622 18.279 36.0098 18.3001 36.0295 18.2841C36.1166 18.2124 36.2267 18.2604 36.322 18.2098C36.4099 18.1634 36.4929 18.1094 36.5677 18.0478C36.6424 17.9845 36.704 17.9044 36.7706 17.8318C36.7928 17.8082 36.8182 17.7888 36.8355 17.7635C36.8979 17.6791 36.9571 17.5913 37.0179 17.5061C37.0869 17.4099 37.1616 17.3179 37.2257 17.2175C37.2923 17.1112 37.349 16.9964 37.4114 16.8876C37.4804 16.7678 37.5535 16.6505 37.6209 16.5281C37.6579 16.4598 37.6891 16.3855 37.717 16.3104C37.7532 16.2092 37.8172 16.1315 37.8969 16.0632C37.9158 16.0472 37.9257 16.0202 37.9396 15.9982C37.9643 15.9611 37.9857 15.9214 38.0161 15.8894C38.0719 15.8286 38.1344 15.7738 38.1919 15.7139C38.2329 15.6717 38.2625 15.6177 38.3093 15.5856C38.38 15.535 38.4416 15.4818 38.4942 15.4101C38.5665 15.3131 38.6519 15.2278 38.7349 15.1392C38.7628 15.1089 38.8015 15.0886 38.8286 15.0591C38.8935 14.9882 38.9551 14.914 39.02 14.8422C39.0364 14.8228 39.0611 14.8102 39.0783 14.7899C39.121 14.7435 39.158 14.6895 39.2057 14.6482C39.3042 14.5629 39.4078 14.4836 39.5096 14.4026C39.531 14.3849 39.5589 14.3798 39.5589 14.4178C39.5589 14.4819 39.5507 14.5469 39.5433 14.611C39.5351 14.6726 39.5236 14.7334 39.5113 14.7941C39.4989 14.8599 39.4874 14.9249 39.4702 14.9907C39.4513 15.0641 39.4283 15.1376 39.4086 15.2118C39.3938 15.2658 39.3864 15.324 39.3675 15.3764C39.347 15.432 39.2993 15.4784 39.3231 15.5476C39.3264 15.5569 39.3116 15.5713 39.3051 15.5839C39.2977 15.6008 39.287 15.6177 39.2812 15.6354C39.2566 15.7097 39.2418 15.789 39.2081 15.8573C39.1564 15.9603 39.0857 16.0531 39.0627 16.1704C39.0561 16.2024 39.0339 16.2396 39.0085 16.2581C38.9419 16.3062 38.9403 16.3906 38.9 16.453C38.8532 16.5256 38.8302 16.6142 38.7899 16.6927C38.7448 16.7821 38.6897 16.8657 38.6437 16.9543C38.6265 16.9863 38.6215 17.0251 38.615 17.0623C38.6092 17.1053 38.6133 17.1509 38.6059 17.193C38.601 17.2302 38.5846 17.2631 38.6191 17.2968C38.6528 17.3289 38.6815 17.3677 38.7086 17.4057C38.7554 17.4749 38.7711 17.577 38.8795 17.5837C38.8852 17.5837 38.8902 17.5964 38.8976 17.5981C38.9148 17.6031 38.9345 17.6107 38.9518 17.609C39.0282 17.5998 39.1046 17.5753 39.1818 17.5795C39.2607 17.5837 39.3322 17.5567 39.3954 17.5263C39.4809 17.485 39.5581 17.4158 39.6263 17.3466C39.6994 17.2707 39.7676 17.1863 39.8259 17.096C39.9089 16.9627 39.9861 16.8243 40.0601 16.6834C40.1241 16.5602 40.1808 16.4319 40.2375 16.3045C40.272 16.2277 40.3 16.1467 40.3312 16.0683C40.3698 15.9704 40.41 15.8733 40.4487 15.7746C40.4602 15.7426 40.4717 15.7105 40.4791 15.6767C40.4947 15.6168 40.5078 15.5552 40.5242 15.4953C40.5415 15.4337 40.5678 15.3747 40.5793 15.3122C40.5982 15.2135 40.608 15.1148 40.6228 15.0144C40.6278 14.9772 40.636 14.9401 40.6401 14.903C40.6467 14.8507 40.6532 14.7992 40.6557 14.7469C40.6582 14.7055 40.6549 14.6608 40.6508 14.6178Z" fill="white"/>
<path d="M46.9653 27.6385C46.9193 27.6284 46.8839 27.6098 46.8798 27.5921C46.8766 27.5786 46.8848 27.5499 46.925 27.5035L46.9341 27.4925C47.0236 27.3896 47.1049 27.3044 47.1838 27.2326C47.1986 27.2208 47.2142 27.2073 47.229 27.1938L47.2298 27.1947L47.2569 27.171C47.3087 27.1263 47.3621 27.0808 47.4147 27.0377C47.5568 26.9196 47.7022 26.7972 47.832 26.6597C47.8772 26.6108 47.9298 26.561 47.9947 26.5053L47.9971 26.5036C48.0933 26.4201 48.1919 26.3458 48.3019 26.2741C48.3381 26.2513 48.3751 26.2294 48.4211 26.2024L48.4235 26.2015C48.4712 26.1728 48.5188 26.1458 48.5673 26.118L48.6503 26.069C48.7176 26.0302 48.7858 25.9897 48.8516 25.9509C49.0142 25.8556 49.181 25.7568 49.3502 25.6691C49.4225 25.632 49.503 25.6016 49.5811 25.5729C49.6936 25.5315 49.8087 25.4885 49.9114 25.4202C50.0428 25.3333 50.1841 25.2885 50.3336 25.2413C50.3944 25.2227 50.4544 25.2033 50.5152 25.1814C50.5497 25.1687 50.5785 25.1468 50.6047 25.1274C50.6179 25.1181 50.6294 25.108 50.6434 25.1004L50.6696 25.0835C50.6968 25.0658 50.7222 25.0489 50.7452 25.0438C50.8496 25.016 50.9547 24.989 51.0607 24.962C51.1609 24.9375 51.2595 24.9122 51.3597 24.8852C51.386 24.8784 51.409 24.8633 51.4279 24.8506C51.4419 24.8422 51.4542 24.8337 51.4633 24.8312C51.5717 24.8042 51.6818 24.7797 51.7911 24.7544C51.8634 24.7384 51.9348 24.7223 52.0071 24.7046C52.0334 24.6987 52.0548 24.6869 52.0737 24.6759L52.155 24.6337C52.2322 24.5924 52.3111 24.5519 52.3891 24.5106L52.4434 24.4819C52.5559 24.422 52.6718 24.3595 52.7827 24.292C52.832 24.2625 52.8599 24.1832 52.8533 24.1334C52.8451 24.0811 52.7909 24.0389 52.7531 24.0254L52.7268 24.0186C52.6414 24.011 52.5551 24.0077 52.4697 24.0051L52.3563 24.0001C52.3029 23.9975 52.2495 23.995 52.1961 23.9899C52.1591 23.9857 52.1221 23.9815 52.0852 23.9773C52.0153 23.968 51.9463 23.9596 51.8757 23.9562C51.8321 23.9536 51.7902 23.9646 51.7524 23.9739L51.7212 23.9823C51.6481 23.9992 51.5709 23.9984 51.4895 23.9967C51.3425 23.995 51.1897 23.9925 51.0434 24.0962C51.0081 24.1216 50.9506 24.1275 50.8906 24.1325C50.8561 24.1359 50.8216 24.1393 50.7904 24.1452L50.7477 24.1545C50.6302 24.1781 50.5127 24.2034 50.3961 24.2304C50.369 24.2372 50.346 24.249 50.3254 24.2599C50.3123 24.2675 50.2991 24.2743 50.2852 24.2785C50.24 24.2912 50.1948 24.303 50.1496 24.3148C50.0905 24.33 50.0321 24.3452 49.9738 24.3637L49.9409 24.373C49.867 24.3941 49.7906 24.4152 49.7692 24.4793C49.7659 24.4886 49.7643 24.4937 49.7643 24.4954C49.761 24.4954 49.7544 24.4954 49.7487 24.4945C49.7388 24.4945 49.7273 24.4937 49.7158 24.4945C49.6328 24.5004 49.5491 24.5097 49.462 24.519L49.2369 24.5426L49.3026 24.6295L49.0906 24.6219L49.0734 24.654C49.0635 24.6709 49.0504 24.6827 49.0364 24.6852C48.9953 24.6928 48.9534 24.6953 48.9115 24.6987L48.7924 24.7088L48.8146 24.8295C48.7817 24.8405 48.7497 24.8514 48.7152 24.8616L48.7012 24.8658C48.6667 24.8759 48.624 24.8877 48.6191 24.9308C48.6067 24.9274 48.5928 24.924 48.5788 24.924C48.5566 24.924 48.532 24.9206 48.5081 24.9173C48.4424 24.908 48.3742 24.8995 48.3299 24.9426C48.2937 24.978 48.2518 24.9814 48.1984 24.9856C48.1615 24.989 48.1204 24.9932 48.0801 25.0084C48.0473 25.0211 48.0144 25.0303 47.9815 25.0388C47.892 25.0616 47.7926 25.0877 47.7195 25.1856C47.634 25.1257 47.5593 25.1712 47.4993 25.216L47.4368 25.2624C47.3481 25.3282 47.2569 25.3965 47.1633 25.4531C47.1403 25.4674 47.1173 25.4784 47.0934 25.4894C47.0713 25.5003 47.0483 25.5096 47.0244 25.5197C46.9719 25.5425 46.9168 25.5653 46.8659 25.5974C46.8256 25.6227 46.801 25.6623 46.7788 25.6978C46.7673 25.7172 46.755 25.7357 46.741 25.7509C46.7196 25.7746 46.6868 25.7957 46.6473 25.8142" fill="white"/>
<path d="M57.2257 24.0245H55.5062V22.1909H54.5145V26.5289C54.5145 26.7913 54.7191 27.0065 54.9763 27.0124H57.7572C58.0119 27.0065 58.2181 26.7913 58.2181 26.5289V22.1909H57.2257V24.0245ZM57.2257 26.2065H55.5062V24.8227H57.2257V26.2065Z" fill="white"/>
<path d="M60.3058 24.0044H59.7948V22.1919H58.7843V28.9203H59.3347C59.5886 28.9153 59.7948 28.7001 59.7948 28.4368V24.8414H60.3058V28.9237H60.8677V28.9203C61.1281 28.9203 61.3385 28.7052 61.3385 28.4368V22.1919H60.3066V24.0044H60.3058Z" fill="white"/>
<path d="M68.6008 24.0044H68.0906V22.1919H67.081V28.9203H67.6289C67.8836 28.9153 68.0906 28.7001 68.0906 28.4368V24.8414H68.6008V28.9237H69.1636V28.9203C69.424 28.9203 69.6335 28.7052 69.6335 28.4368V22.1919H68.6008V24.0044Z" fill="white"/>
<path d="M65.2268 23.0398H66.5642V22.1909H62.8254V23.0398H64.162C64.1242 25.799 63.1219 26.1036 62.6085 26.3019V27.2056C63.0562 27.1448 63.4604 26.9921 63.8203 26.7466C64.2138 26.4816 64.5054 26.1382 64.6952 25.7146C64.8842 26.1382 65.175 26.4816 65.5677 26.7466C65.9284 26.9921 66.3334 27.1448 66.7803 27.2056V26.3019C66.2668 26.1036 65.2637 25.799 65.2268 23.0398Z" fill="white"/>
<path d="M38.6159 32.579C38.7416 32.4854 38.9034 32.5141 38.9872 32.687C39.1836 33.1908 39.3511 33.6009 39.5056 34.054C39.7225 33.9823 39.7718 33.9603 39.8276 33.946C39.9114 33.9241 40.0938 33.9536 40.1218 34.1688C40.1431 34.3561 40.0166 34.4059 39.8416 34.4708L39.6666 34.5358C39.8556 35.0969 40.0026 35.6437 40.1152 36.0825C40.1571 36.2479 40.0733 36.3339 39.9328 36.3626C39.8071 36.3846 39.7159 36.3339 39.674 36.1829C39.5623 35.7298 39.4078 35.2547 39.2255 34.7012C38.9667 34.8159 38.7071 34.9029 38.4548 35.0109C38.3916 35.0328 38.2379 34.9822 38.1961 34.8024C38.1747 34.6944 38.224 34.5577 38.3357 34.5004L39.0644 34.2194L38.5395 32.7951C38.1821 33.9316 37.888 35.356 37.6777 36.4133C37.6423 36.5213 37.4747 36.5499 37.3835 36.5213C37.2718 36.4782 37.2012 36.4208 37.2291 36.2555C37.5166 34.5071 37.9151 33.0473 38.2519 32.2272C38.3431 32.0255 38.7144 32.2846 38.6578 32.4499L38.6159 32.579Z" fill="white"/>
<path d="M41.4806 36.3491C41.4592 36.4934 41.3475 36.5719 41.2358 36.5719C41.1166 36.5719 41.0049 36.5212 40.9909 36.3415L40.7946 33.1258C40.7946 32.9604 40.9416 32.8811 41.0673 32.8811C41.1791 32.8811 41.3056 32.9528 41.3122 33.0828C41.3688 33.8667 41.4592 35.442 41.4806 36.3491Z" fill="white"/>
<path d="M42.6152 34.4707C42.3909 34.4707 42.2159 34.2977 42.2159 34.0606C42.2159 33.8303 42.3909 33.6438 42.6152 33.6438C42.8395 33.6438 43.021 33.8311 43.021 34.0606C43.021 34.2986 42.8395 34.4707 42.6152 34.4707Z" fill="white"/>
<path d="M44.9475 32.5006C44.646 32.4212 44.3379 32.6449 44.2615 32.9469C44.2122 33.2566 44.4085 33.6447 44.6188 34.0616C44.9623 34.7231 45.3188 35.4716 44.8078 36.1474C44.4578 36.5499 43.9813 36.7305 43.5467 36.8959C43.449 36.9246 43.2945 36.9035 43.2386 36.7229C43.1894 36.5213 43.3504 36.4495 43.5048 36.3778C43.946 36.2048 44.4644 35.9897 44.5482 35.5796C44.618 35.1771 44.3937 34.7383 44.1769 34.3139C43.96 33.8894 43.7283 33.4287 43.7423 32.9756C43.7562 32.4719 44.1769 32.0331 44.7511 31.9977C44.982 31.9833 45.2276 32.0407 45.3886 32.2786C45.5636 32.5444 45.5004 32.7605 45.3467 32.8111C45.2416 32.8474 45.1578 32.7748 45.1019 32.66C45.0666 32.601 45.0173 32.5217 44.9475 32.5006Z" fill="white"/>
<path d="M48.7924 35.8376C48.6946 36.111 48.6034 36.3625 48.3512 36.3557C48.2181 36.3557 48.1129 36.241 48.085 36.0899C47.896 35.3415 47.6931 34.5863 47.5107 33.853C47.2232 34.5939 46.9784 35.5507 46.7681 36.3422C46.7122 36.565 46.3901 36.5219 46.3474 36.3346C46.1445 35.4571 45.9695 34.6015 45.7033 33.7231C45.6754 33.6227 45.668 33.4497 45.8783 33.3923C46.0393 33.3493 46.1585 33.5071 46.1938 33.637C46.3129 34.0328 46.46 34.6656 46.5651 35.1904C46.7541 34.4926 46.9997 33.8091 47.2511 33.1046C47.293 33.0185 47.4195 32.9316 47.5247 32.9316C47.6225 32.9316 47.7769 33.032 47.8122 33.1333C48.0431 33.9821 48.2181 34.6369 48.4005 35.4858C48.688 34.5939 48.9608 33.6733 49.1851 32.7738C49.227 32.6084 49.388 32.5865 49.4726 32.6084C49.5991 32.6371 49.6969 32.7308 49.6895 32.8531L48.7924 35.8376Z" fill="white"/>
<path d="M50.2006 33.5291C50.4807 32.9249 50.894 32.2988 51.4962 31.5293C51.2021 31.5799 50.6976 31.7453 50.3123 31.9174C50.0182 32.0398 49.8432 31.6584 50.0675 31.5073C50.6697 31.1833 51.2933 31.0399 51.8043 31.0112C52.1058 30.9892 52.3153 31.277 52.1197 31.5867C51.8462 31.9107 51.6227 32.1841 51.3984 32.4929C51.6572 32.5148 51.9234 32.5148 52.197 32.5148C52.4845 32.5148 52.7646 32.5072 53.03 32.4929C53.1565 32.4929 53.2748 32.5646 53.2748 32.7157C53.2748 32.838 53.1631 32.9241 53.044 32.946C52.6726 32.989 52.2035 33.0177 51.741 33.0177C51.4888 33.0177 51.244 33.0177 51.0263 32.9966C50.8792 33.1983 50.7601 33.3991 50.627 33.6371C50.5358 33.7594 50.4241 33.7957 50.3329 33.7881C50.1932 33.7738 50.1513 33.6371 50.2006 33.5291ZM51.7065 35.8453C51.7837 35.6293 51.994 35.2622 52.183 34.9104C52.2109 34.8673 52.2389 34.81 52.533 34.2775C52.2668 34.3138 51.3491 34.529 50.6557 34.7239C50.5506 34.7382 50.3403 34.6952 50.2984 34.5653C50.2565 34.4286 50.3263 34.2919 50.438 34.2556C50.8578 34.1265 52.2027 33.7805 52.8402 33.7231C53.0571 33.7088 53.2395 33.8379 53.1623 34.0683C53.0078 34.4421 52.5601 35.2192 52.3991 35.5432C52.6094 35.5862 52.8197 35.8166 52.8476 36.1406C52.8616 36.7524 52.413 37.1692 52.0565 37.3852C51.9308 37.4645 51.8117 37.5 51.7065 37.5C51.4682 37.5 51.3352 37.3059 51.3425 36.9751C51.3425 36.5861 51.5175 36.1761 51.7065 35.8453ZM52.1403 36.0461C51.9579 36.3119 51.8527 36.6292 51.8182 36.938C52.0211 36.8587 52.3153 36.506 52.3227 36.2183C52.33 36.0537 52.1756 36.0174 52.1403 36.0461Z" fill="white"/>
<path d="M55.7402 32.1258C55.6909 32.3486 55.6145 32.687 55.502 33.1038C55.7961 33.1974 55.999 33.3991 56.2372 33.9526C56.3703 34.2834 56.4615 34.7365 56.3983 34.7939C56.2652 34.8656 56.1107 34.7433 56.0269 34.5636C55.7681 33.9881 55.6351 33.6928 55.3615 33.6143C55.2358 34.0387 55.0953 34.4631 55.0115 34.7146C54.9556 34.8445 54.8012 35.0023 54.6476 34.9163C54.5777 34.88 54.5358 34.7078 54.5843 34.5138C54.7593 33.967 55.0329 33.1038 55.1799 32.2262C54.7732 32.4136 54.3115 32.557 54.0519 32.6144C53.9402 32.622 53.8211 32.5283 53.7931 32.4127C53.7857 32.384 53.7578 32.1824 53.9402 32.1039C54.3041 31.9891 55.0608 31.7368 55.4247 31.5428C55.5159 31.4921 55.6556 31.5284 55.7402 31.6221C55.8314 31.7157 55.7895 31.9174 55.7402 32.1258ZM57.8483 34.1189C57.8836 33.7518 57.9255 33.3561 57.9321 32.8388C57.624 32.9392 57.3365 33.0405 56.5872 33.3282C56.4467 33.3569 56.2652 33.3569 56.2159 33.1485C56.2085 33.0692 56.1806 32.9038 56.4895 32.7747C57.113 32.5587 57.4844 32.4153 57.9255 32.2929C57.9255 32.2068 57.919 32.1132 57.9116 31.9402C57.905 31.7318 57.919 31.6305 58.0381 31.5588C58.2484 31.444 58.402 31.5588 58.43 31.9258C58.4374 32.746 58.3946 33.5949 58.2969 34.2851C58.2689 34.4437 58.1704 34.5011 58.0447 34.5011C57.8771 34.4707 57.8343 34.291 57.8483 34.1189ZM56.602 37.2046C56.4969 37.1903 56.3917 37.0823 56.3851 36.9026C56.3638 36.349 56.3777 35.6293 56.4205 35.1331C56.4418 34.939 56.6168 34.9104 56.722 34.9315C56.8271 34.9534 56.9462 35.0251 56.9249 35.3053C56.869 35.7221 56.8477 36.3195 56.8337 36.9237C56.8337 37.1034 56.7704 37.2038 56.6094 37.2038H56.602V37.2046ZM57.9674 36.6081L58.7167 36.4351C58.913 36.3988 58.9689 36.4638 59.0182 36.6081C59.0461 36.7448 58.9763 36.8671 58.8358 36.8958L57.5328 37.1911C57.3644 37.2198 57.2247 36.9684 57.3504 36.738C57.5608 36.306 57.8056 35.8529 58.0159 35.4284L57.2313 35.6014C57.0843 35.6234 57.007 35.5508 57.007 35.3424C57.007 35.2344 57.0769 35.134 57.1755 35.112C57.5468 35.026 57.9526 34.961 58.3174 34.8749C58.5762 34.8386 58.7093 35.1483 58.5902 35.3787L57.9674 36.6081Z" fill="white"/>
<path d="M59.4455 32.9318C59.9499 32.8668 60.7205 32.6297 61.0072 32.4997C61.1403 32.4567 61.2101 32.5217 61.2175 32.6871C61.2241 32.7588 61.1896 32.9174 61.0286 32.9824C60.6646 33.1334 60.405 33.2127 60.1043 33.2845C60.083 33.8093 60.0551 34.292 60.0411 34.8236C60.7558 34.4928 61.4205 33.9241 61.8132 33.3925C61.8058 33.2052 61.8904 33.1115 62.0095 33.1047C62.2124 33.0971 62.3036 33.2845 62.3036 33.3638C62.2962 33.7165 62.2962 33.8675 62.2823 34.184C62.6881 33.7452 63.2205 33.1334 63.4661 32.7596C63.4941 32.6516 63.6066 32.6153 63.7109 32.6229C63.8654 32.6373 63.9697 32.7377 63.9771 32.8744V33.1115C63.9771 34.1764 63.9213 34.9096 63.7602 35.8015C63.7183 35.9812 63.6485 36.0749 63.508 36.0606C63.3396 36.0386 63.2772 35.9095 63.2911 35.7298C63.3963 34.8446 63.4735 34.2844 63.4735 33.6296V33.5148C63.1515 33.9249 62.7243 34.4211 62.1705 35.0472C62.0095 35.1982 61.7573 35.0396 61.7787 34.7957C61.7926 34.5367 61.8066 34.4219 61.814 34.1409C61.3235 34.6945 60.6022 35.2412 60.014 35.3999C59.6985 35.4648 59.5309 35.2269 59.5375 34.9974L59.6147 33.3857C59.5728 33.3925 59.5235 33.4001 59.4956 33.4001C59.3132 33.4001 59.1456 33.3638 59.1242 33.1773C59.1094 32.9967 59.2499 32.9537 59.4455 32.9318Z" fill="white"/>
<path d="M64.8593 32.4861C65.1042 32.4355 65.2726 32.4068 65.427 32.3713C65.455 31.9899 65.455 31.7815 65.441 31.4077C65.4336 31.2423 65.4763 31.0694 65.6374 31.0263C65.8403 30.9757 65.9315 31.12 65.9389 31.3141C65.9602 31.6305 65.9528 31.9545 65.9323 32.249C66.1631 32.184 66.3809 32.1123 66.6955 32.0043C66.8072 31.968 67.0315 31.9823 67.0315 32.184C67.0315 32.2844 66.9617 32.4574 66.8426 32.508C66.2683 32.7021 65.7146 32.8531 64.8741 33.0185C64.6991 33.0329 64.6219 32.9038 64.6153 32.7958C64.5932 32.6726 64.6778 32.5215 64.8593 32.4861ZM66.0646 33.1983C66.2814 33.1839 66.5411 33.3349 66.6109 33.659C66.7226 34.1838 66.2609 34.9247 65.7565 34.9533C65.4837 34.9533 65.3506 34.6513 65.3506 34.3205C65.3506 33.9467 65.5051 33.5147 65.6168 33.2919C65.6587 33.2126 65.7918 33.0042 65.9183 33.0042C65.9799 33.0033 66.0366 33.0759 66.0646 33.1983ZM65.7984 34.4496C66.0087 34.3129 66.2116 34.0108 66.1837 33.8168C66.1623 33.637 66.0087 33.5653 65.9528 33.6725C65.8403 33.8885 65.7844 34.2268 65.7984 34.4496ZM68.1792 37.3556C68.0387 37.3556 67.927 37.2409 67.927 37.1396C67.9763 36.6004 67.9968 36.0537 67.9968 35.5212C67.5976 35.6216 67.2197 35.6942 66.7851 35.7583C66.6873 35.7583 66.5328 35.6284 66.5328 35.4419C66.5328 35.3845 66.5402 35.2833 66.652 35.2402C67.2057 35.1542 67.6255 35.0605 68.1505 34.9019C68.4232 34.8226 68.5218 35.0959 68.5218 35.1896C68.5218 35.8444 68.5013 36.5059 68.4446 37.1607C68.4388 37.2839 68.2918 37.3556 68.1792 37.3556ZM68.3895 33.3206C68.3969 33.4354 68.4035 33.5721 68.4873 33.5653C68.6623 33.551 69.23 33.4362 69.4116 33.3856C69.5307 33.3569 69.6424 33.4143 69.6851 33.5147C69.727 33.6227 69.6917 33.7805 69.6293 33.8168C69.216 33.9754 68.5087 34.1045 68.2704 34.1121C68.0256 34.1121 67.9344 33.8311 67.9065 33.5434C67.8851 33.205 67.8711 32.8599 67.8711 32.5359C67.8711 32.3485 67.8711 32.1477 67.8785 31.9461C67.8925 31.8524 68.019 31.7874 68.1373 31.7874C68.2565 31.7874 68.3822 31.8448 68.3822 31.9672C68.3756 32.3131 68.3616 32.9105 68.3895 33.3206Z" fill="white"/>
</g>
<path d="M86.1399 17.422V22.364H84.6979V17.674H83.3399V29.49H84.6979V23.54H86.1399V30.078H87.5119V17.436L86.1399 17.422ZM80.6799 21.566H78.4959V18.598H77.1379V26.998H82.0239V18.598H80.6799V21.566ZM80.6799 25.822H78.4959V22.714H80.6799V25.822Z" fill="white"/>
<path d="M98.4748 17.422V22.42H97.0888V17.66H95.7308V29.49H97.0888V23.61H98.4748V30.078H99.8468V17.422H98.4748ZM92.8468 20.012H94.9608V18.822H89.1648V20.012H91.4468V20.712C91.4468 23.218 90.6488 25.402 88.8148 26.48L89.6968 27.558C90.9428 26.816 91.7548 25.556 92.1888 23.918C92.6508 25.318 93.4068 26.466 94.6388 27.124L95.4788 26.018C93.6448 25.052 92.8468 23.008 92.8468 20.712V20.012Z" fill="white"/>
<path d="M110.684 17.422V22.42H109.186V17.688H107.828V29.448H109.186V23.596H110.684V30.064H112.056V17.422H110.684ZM103.11 20.11H106.372V18.934H101.696V27.068H102.536C104.328 27.068 105.616 27.012 107.142 26.718L107.016 25.528C105.714 25.794 104.566 25.864 103.11 25.878V20.11Z" fill="white"/>
<path d="M121.031 18.668H118.021V17.366H116.579V18.668H113.569V19.816H121.031V18.668ZM125.217 20.824H123.425V17.436H121.983V25.346H123.425V22.014H125.217V20.824ZM120.359 22.672C120.359 21.286 119.113 20.362 117.293 20.362C115.473 20.362 114.227 21.286 114.227 22.672C114.227 24.044 115.473 24.968 117.293 24.968C119.113 24.968 120.359 24.044 120.359 22.672ZM115.613 22.672C115.613 21.888 116.285 21.468 117.293 21.468C118.301 21.468 118.987 21.888 118.987 22.672C118.987 23.414 118.301 23.862 117.293 23.862C116.285 23.862 115.613 23.414 115.613 22.672ZM115.109 27.124H121.983V30.078H123.425V25.962H115.109V27.124Z" fill="white"/>
<path d="M134.626 19.942C134.626 21.468 134.626 23.204 134.178 25.5L135.62 25.668C136.068 23.218 136.068 21.524 136.068 19.942V18.612H126.968V19.788H134.626V19.942ZM133.016 27.236V23.148H131.588V27.236H129.894V23.148H128.466V27.236H125.834V28.426H137.258V27.236H133.016Z" fill="white"/>
</g>
<defs>
<linearGradient id="paint0_linear" x1="54.688" y1="23.7883" x2="54.5062" y2="24.0949" gradientUnits="userSpaceOnUse">
<stop offset="0.087" stop-color="#0C318E"/>
<stop offset="0.2705" stop-color="#1E5293"/>
<stop offset="0.3021" stop-color="#235192"/>
<stop offset="0.3377" stop-color="#304F91"/>
<stop offset="0.3754" stop-color="#474B8E"/>
<stop offset="0.4145" stop-color="#67468B"/>
<stop offset="0.4547" stop-color="#8F3F86"/>
<stop offset="0.4952" stop-color="#C13781"/>
<stop offset="0.5217" stop-color="#E5317D"/>
</linearGradient>
<linearGradient id="paint1_linear" x1="54.3877" y1="25.1542" x2="53.9915" y2="25.8224" gradientUnits="userSpaceOnUse">
<stop offset="0.087" stop-color="#0C318E"/>
<stop offset="0.2705" stop-color="#1E5293"/>
<stop offset="0.3021" stop-color="#235192"/>
<stop offset="0.3377" stop-color="#304F91"/>
<stop offset="0.3754" stop-color="#474B8E"/>
<stop offset="0.4145" stop-color="#67468B"/>
<stop offset="0.4547" stop-color="#8F3F86"/>
<stop offset="0.4952" stop-color="#C13781"/>
<stop offset="0.5217" stop-color="#E5317D"/>
</linearGradient>
<clipPath id="clip0">
<rect width="47" height="25" fill="white" transform="translate(23 12.5)"/>
</clipPath>
</defs>
</svg>
