<svg width="16" height="16" viewBox="0 0 16 16" fill="none" xmlns="http://www.w3.org/2000/svg">
<path d="M8.66667 12.6666H12.6667V6.65194L8 3.0226L3.33333 6.65194V12.6666H7.33333V8.6666H8.66667V12.6666ZM14 13.3333C14 13.5101 13.9298 13.6797 13.8047 13.8047C13.6797 13.9297 13.5101 13.9999 13.3333 13.9999H2.66667C2.48986 13.9999 2.32029 13.9297 2.19526 13.8047C2.07024 13.6797 2 13.5101 2 13.3333V6.3266C1.99993 6.22501 2.02308 6.12475 2.06768 6.03347C2.11228 5.94219 2.17715 5.86231 2.25733 5.79994L7.59067 1.65194C7.7077 1.5609 7.85173 1.51147 8 1.51147C8.14827 1.51147 8.29231 1.5609 8.40933 1.65194L13.7427 5.79994C13.8229 5.86231 13.8877 5.94219 13.9323 6.03347C13.9769 6.12475 14.0001 6.22501 14 6.3266V13.3333V13.3333Z" fill="#7A7D94"/>
</svg>
