<svg width="37" height="37" viewBox="0 0 37 37" fill="none" xmlns="http://www.w3.org/2000/svg">
<path d="M6.93322 3.03061e-07C3.10411 1.35685e-07 -1.35685e-07 3.10411 -3.03061e-07 6.93322L-1.28801e-06 29.4662C-1.45538e-06 33.2953 3.10411 36.3994 6.93322 36.3994L19.0664 36.3994C28.6391 36.3994 36.3994 28.6391 36.3994 19.0664L36.3994 6.93322C36.3994 3.10411 33.2953 1.45538e-06 29.4662 1.28801e-06L6.93322 3.03061e-07Z" fill="#5078E7"/>
<g clip-path="url(#clip0)">
<path d="M13.2976 6.68212L12.2781 4.21582" stroke="white" stroke-width="1.2" stroke-miterlimit="10" stroke-linecap="round" stroke-linejoin="round"/>
<path d="M11.374 8.60955L8.90319 7.59009" stroke="white" stroke-width="1.2" stroke-miterlimit="10" stroke-linecap="round" stroke-linejoin="round"/>
<path d="M11.374 11.3386L8.90319 12.3581" stroke="white" stroke-width="1.2" stroke-miterlimit="10" stroke-linecap="round" stroke-linejoin="round"/>
<path d="M17.9543 11.3386L20.4206 12.3581" stroke="white" stroke-width="1.2" stroke-miterlimit="10" stroke-linecap="round" stroke-linejoin="round"/>
<path d="M17.9543 8.60955L20.4206 7.59009" stroke="white" stroke-width="1.2" stroke-miterlimit="10" stroke-linecap="round" stroke-linejoin="round"/>
<path d="M16.0263 6.68212L17.0457 4.21582" stroke="white" stroke-width="1.2" stroke-miterlimit="10" stroke-linecap="round" stroke-linejoin="round"/>
<path d="M14.3391 30.4503V27.8282L8.68532 20.6563C8.06207 19.8639 8.20007 18.7198 8.9925 18.101C9.78492 17.4777 10.929 17.6158 11.5478 18.4082L13.2484 20.5495V10.0566C13.2484 9.25079 13.9028 8.60083 14.7042 8.60083C15.51 8.60083 16.1599 9.25525 16.1599 10.0566V17.3397L16.1644 15.3987C16.2267 14.6508 16.8499 14.0588 17.6157 14.0588C18.4214 14.0588 19.0714 14.7132 19.0714 15.5145V17.9853L19.0803 16.0665C19.1693 15.3453 19.7837 14.7889 20.5271 14.7889C21.3329 14.7889 21.9829 15.4433 21.9829 16.2446V18.4304L21.9873 16.8411C22.0541 16.0977 22.6774 15.5145 23.4386 15.5145C24.2444 15.5145 24.8944 16.1689 24.8944 16.9702V20.6118V23.5278V25.3307C24.8944 26.2523 24.467 27.0759 23.8037 27.6145V30.4503" stroke="white" stroke-width="1.2" stroke-miterlimit="10" stroke-linecap="round" stroke-linejoin="round"/>
</g>
<defs>
<clipPath id="clip0">
<rect width="19" height="29" fill="white" transform="translate(7.39941 3.10059)"/>
</clipPath>
</defs>
</svg>
