<svg width="18" height="18" viewBox="0 0 18 18" fill="none" xmlns="http://www.w3.org/2000/svg">
<path fill-rule="evenodd" clip-rule="evenodd" d="M9.02375 3C9.43796 3.00054 9.7733 3.33677 9.77276 3.75098L9.76686 8.25H14.25C14.6642 8.25 15 8.58579 15 9C15 9.41421 14.6642 9.75 14.25 9.75H9.7649L9.759 14.251C9.75846 14.6652 9.42223 15.0005 9.00802 15C8.5938 14.9995 8.25846 14.6632 8.259 14.249L8.2649 9.75H3.75C3.33579 9.75 3 9.41421 3 9C3 8.58579 3.33579 8.25 3.75 8.25H8.26686L8.27276 3.74902C8.27331 3.3348 8.60953 2.99946 9.02375 3Z" fill="#7A7D94"/>
</svg>
