<svg width="40" height="40" viewBox="0 0 40 40" fill="none" xmlns="http://www.w3.org/2000/svg">
<path d="M21.12 25.023L16.921 22.733C16.3728 23.319 15.6609 23.7266 14.878 23.9028C14.0951 24.079 13.2773 24.0157 12.5309 23.721C11.7845 23.4263 11.1439 22.9139 10.6925 22.2504C10.2411 21.5869 9.99976 20.803 9.99976 20.0005C9.99976 19.198 10.2411 18.414 10.6925 17.7505C11.1439 17.087 11.7845 16.5746 12.5309 16.2799C13.2773 15.9852 14.0951 15.9219 14.878 16.0981C15.6609 16.2743 16.3728 16.6819 16.921 17.268L21.121 14.978C20.8825 14.034 20.9965 13.0355 21.4416 12.1697C21.8867 11.3038 22.6323 10.6299 23.5386 10.2745C24.445 9.91898 25.4499 9.90626 26.3649 10.2387C27.28 10.5711 28.0424 11.2259 28.5093 12.0802C28.9761 12.9346 29.1153 13.9298 28.9009 14.8795C28.6864 15.8292 28.1329 16.668 27.3442 17.2388C26.5555 17.8095 25.5857 18.0731 24.6166 17.98C23.6475 17.8868 22.7456 17.4435 22.08 16.733L17.88 19.023C18.0412 19.6643 18.0412 20.3356 17.88 20.977L22.079 23.267C22.7446 22.5564 23.6464 22.1131 24.6156 22.02C25.5847 21.9268 26.5545 22.1904 27.3432 22.7611C28.1319 23.3319 28.6854 24.1708 28.8999 25.1204C29.1143 26.0701 28.9751 27.0654 28.5083 27.9197C28.0414 28.774 27.279 29.4288 26.3639 29.7612C25.4489 30.0937 24.444 30.0809 23.5376 29.7255C22.6313 29.37 21.8857 28.6961 21.4406 27.8303C20.9955 26.9644 20.8815 25.9659 21.12 25.022V25.023ZM14 22C14.5304 22 15.0391 21.7892 15.4142 21.4142C15.7892 21.0391 16 20.5304 16 20C16 19.4695 15.7892 18.9608 15.4142 18.5857C15.0391 18.2107 14.5304 18 14 18C13.4695 18 12.9608 18.2107 12.5857 18.5857C12.2107 18.9608 12 19.4695 12 20C12 20.5304 12.2107 21.0391 12.5857 21.4142C12.9608 21.7892 13.4695 22 14 22V22ZM25 16C25.5304 16 26.0391 15.7892 26.4142 15.4142C26.7892 15.0391 27 14.5304 27 14C27 13.4695 26.7892 12.9608 26.4142 12.5857C26.0391 12.2107 25.5304 12 25 12C24.4695 12 23.9608 12.2107 23.5857 12.5857C23.2107 12.9608 23 13.4695 23 14C23 14.5304 23.2107 15.0391 23.5857 15.4142C23.9608 15.7892 24.4695 16 25 16V16ZM25 28C25.5304 28 26.0391 27.7892 26.4142 27.4142C26.7892 27.0391 27 26.5304 27 26C27 25.4695 26.7892 24.9608 26.4142 24.5857C26.0391 24.2107 25.5304 24 25 24C24.4695 24 23.9608 24.2107 23.5857 24.5857C23.2107 24.9608 23 25.4695 23 26C23 26.5304 23.2107 27.0391 23.5857 27.4142C23.9608 27.7892 24.4695 28 25 28V28Z" fill="#7A7D94"/>
</svg>
