<svg width="482" height="364" viewBox="0 0 482 364" fill="none" xmlns="http://www.w3.org/2000/svg">
<g opacity="0.2" clip-path="url(#clip0)">
<g opacity="0.4">
<path fill-rule="evenodd" clip-rule="evenodd" d="M294.007 0C337.255 24.8475 387.548 39.1664 441.08 39.1664C494.613 39.1664 544.905 24.9879 588.154 0V260.407C588.154 459.047 476.581 631.716 312.32 719.594L312.318 719.596C306.261 722.824 300.204 726.052 294.007 729C287.808 725.912 281.75 722.823 275.693 719.594C111.573 631.716 0 459.047 0 260.407V0C43.2487 24.9879 93.4003 39.1664 146.933 39.1664C200.606 39.1664 250.758 24.9879 294.007 0ZM196.662 260.969H30.7108V272.059C30.7108 336.775 43.5305 398.542 66.9157 454.835L196.662 325.544V260.969ZM171.586 610.799C207.368 646.315 248.645 676.217 294.007 699.239C339.791 676.076 381.208 645.894 416.85 610.237L294.711 488.106L171.586 610.799ZM392.76 325.123L521.661 453.853C544.765 397.7 557.443 336.354 557.584 272.059V260.969H392.76V325.123ZM391.781 143.469C391.781 197.235 347.968 240.894 294.013 240.894C240.058 240.894 196.246 197.235 196.246 143.469C196.246 89.7033 240.058 46.0447 294.013 46.0447C348.109 46.0447 391.781 89.7033 391.781 143.469ZM381.633 143.47C381.633 95.5997 342.892 56.7141 294.995 56.293H294.15C245.829 56.293 206.666 95.319 206.666 143.47C206.666 190.919 244.561 229.383 291.896 230.646H294.431C342.47 230.646 381.633 191.621 381.633 143.47ZM217.232 143.47C217.232 102.9 248.788 69.7696 288.796 67.1023V128.309H299.221V67.3831C316.267 70.0503 330.073 85.0711 330.073 102.759C330.073 122.132 313.309 138.135 294.009 138.135C268.229 138.135 247.52 158.631 247.52 184.321C247.52 193.586 250.197 202.149 254.845 209.309C232.305 195.832 217.232 171.406 217.232 143.47ZM299.221 219.837V158.491H288.796V219.556C271.75 216.889 257.804 201.868 257.804 184.321C257.804 164.948 274.709 148.804 294.15 148.804C319.789 148.804 340.638 128.449 340.638 102.759C340.638 93.6344 337.962 85.0711 333.313 77.7713C355.712 91.1075 370.786 115.534 370.786 143.47C370.786 184.04 339.23 217.17 299.221 219.837Z" fill="#5887FF"/>
</g>
</g>
<defs>
<clipPath id="clip0">
<rect width="482" height="364" fill="white"/>
</clipPath>
</defs>
</svg>
