<svg width="290" height="254" viewBox="0 0 290 254" fill="none" xmlns="http://www.w3.org/2000/svg">
<g opacity="0.1">
<g clip-path="url(#clip0_1183_7972)">
<g style="mix-blend-mode:multiply">
<path d="M167.031 201.247L105.68 294.349L44.3911 201.247L105.68 108.206L167.031 201.247Z" fill="#35569C"/>
<path d="M167.031 201.247L228.32 294.349L289.671 201.247L228.32 108.206L167.031 201.247Z" fill="#35569C"/>
<path d="M105.681 108.144L167.031 201.247L228.32 108.144L167.031 15.1028L105.681 108.144Z" fill="#35569C"/>
<path d="M44.3913 201.247L-16.9592 294.349H105.68L44.3913 201.247Z" fill="#35569C"/>
<path d="M289.67 201.247L228.32 294.349H350.959L289.67 201.247Z" fill="#35569C"/>
<path d="M167.031 201.247L105.68 294.349L44.3911 201.247L105.68 108.206L167.031 201.247Z" fill="#6991E3"/>
<path d="M167.031 201.247L228.32 294.349L289.671 201.247L228.32 108.206L167.031 201.247Z" fill="#6991E3"/>
<path d="M105.681 108.144L167.031 201.247L228.32 108.144L167.031 15.1028L105.681 108.144Z" fill="#A7C3FF"/>
<path d="M44.3913 201.247L-16.9592 294.349H105.68L44.3913 201.247Z" fill="#35569C"/>
<path d="M289.67 201.247L228.32 294.349H350.959L289.67 201.247Z" fill="#35569C"/>
<path d="M350.959 15.1027L289.67 -78L228.32 15.1027H350.959Z" fill="#A7C3FF"/>
<path d="M228.32 15.1028L289.67 108.205L350.959 15.1028H228.32Z" fill="#6991E3"/>
</g>
</g>
</g>
<defs>
<clipPath id="clip0_1183_7972">
<path d="M0 0H274C282.837 0 290 7.16344 290 16V238C290 246.837 282.837 254 274 254H0V0Z" fill="white"/>
</clipPath>
</defs>
</svg>
