<svg width="1001" height="1000" viewBox="0 0 1001 1000" fill="none" xmlns="http://www.w3.org/2000/svg">
<path d="M4.536 20H7.352L10.984 8.16H8.584L7.048 13.92C6.68 15.232 6.408 16.416 6.04 17.744H5.96C5.576 16.416 5.336 15.232 4.968 13.92L3.4 8.16H0.92L4.536 20ZM11.5546 20H13.8906V11.04H11.5546V20ZM12.7386 9.6C13.5386 9.6 14.1306 9.056 14.1306 8.32C14.1306 7.552 13.5386 7.04 12.7386 7.04C11.9226 7.04 11.3306 7.552 11.3306 8.32C11.3306 9.056 11.9226 9.6 12.7386 9.6ZM18.374 20.224C20.71 20.224 21.942 18.96 21.942 17.392C21.942 15.728 20.63 15.136 19.446 14.688C18.502 14.336 17.622 14.096 17.622 13.44C17.622 12.928 18.006 12.576 18.806 12.576C19.478 12.576 20.102 12.896 20.742 13.344L21.798 11.92C21.046 11.36 20.054 10.816 18.742 10.816C16.726 10.816 15.414 11.952 15.414 13.568C15.414 15.056 16.726 15.744 17.862 16.176C18.806 16.544 19.734 16.848 19.734 17.52C19.734 18.08 19.334 18.464 18.438 18.464C17.606 18.464 16.838 18.112 16.038 17.488L14.966 18.96C15.846 19.696 17.174 20.224 18.374 20.224ZM25.7919 20.224C27.0239 20.224 27.8879 19.632 28.6559 18.72H28.7199L28.8959 20H30.8159V11.04H28.4639V17.088C27.8559 17.888 27.3759 18.208 26.6399 18.208C25.7759 18.208 25.3919 17.728 25.3919 16.336V11.04H23.0399V16.64C23.0399 18.88 23.8719 20.224 25.7919 20.224ZM34.9314 20.224C35.9554 20.224 36.8514 19.712 37.6354 19.04H37.6834L37.8594 20H39.7794V14.768C39.7794 12.176 38.6114 10.816 36.3394 10.816C34.9314 10.816 33.6514 11.344 32.5954 12L33.4434 13.552C34.2754 13.072 35.0754 12.704 35.9074 12.704C37.0114 12.704 37.3954 13.376 37.4274 14.256C33.8274 14.64 32.2754 15.648 32.2754 17.568C32.2754 19.088 33.3314 20.224 34.9314 20.224ZM35.6994 18.384C35.0114 18.384 34.5154 18.08 34.5154 17.376C34.5154 16.576 35.2514 15.984 37.4274 15.696V17.504C36.8674 18.064 36.3714 18.384 35.6994 18.384ZM43.7845 20.224C44.3285 20.224 44.7285 20.128 45.0005 20.016L44.7125 18.272C44.5525 18.304 44.4885 18.304 44.3925 18.304C44.1685 18.304 43.9125 18.128 43.9125 17.6V7.232H41.5765V17.488C41.5765 19.152 42.1525 20.224 43.7845 20.224Z" fill="black"/>
<path d="M2.264 121.44H4.6V118.72L4.536 117.248C5.224 117.872 5.976 118.224 6.76 118.224C8.728 118.224 10.568 116.448 10.568 113.376C10.568 110.624 9.256 108.816 7.048 108.816C6.088 108.816 5.16 109.328 4.408 109.968H4.344L4.184 109.04H2.264V121.44ZM6.232 116.288C5.752 116.288 5.176 116.112 4.6 115.616V111.68C5.224 111.056 5.768 110.752 6.376 110.752C7.608 110.752 8.152 111.696 8.152 113.408C8.152 115.36 7.32 116.288 6.232 116.288ZM15.7049 118.224C17.9449 118.224 20.0089 116.496 20.0089 113.536C20.0089 110.544 17.9449 108.816 15.7049 108.816C13.4649 108.816 11.4009 110.544 11.4009 113.536C11.4009 116.496 13.4649 118.224 15.7049 118.224ZM15.7049 116.304C14.4889 116.304 13.8009 115.216 13.8009 113.536C13.8009 111.84 14.4889 110.736 15.7049 110.736C16.9209 110.736 17.6089 111.84 17.6089 113.536C17.6089 115.216 16.9209 116.304 15.7049 116.304ZM21.3765 121.44H23.7125V118.72L23.6485 117.248C24.3365 117.872 25.0885 118.224 25.8725 118.224C27.8405 118.224 29.6805 116.448 29.6805 113.376C29.6805 110.624 28.3685 108.816 26.1605 108.816C25.2005 108.816 24.2725 109.328 23.5205 109.968H23.4565L23.2965 109.04H21.3765V121.44ZM25.3445 116.288C24.8645 116.288 24.2885 116.112 23.7125 115.616V111.68C24.3365 111.056 24.8805 110.752 25.4885 110.752C26.7205 110.752 27.2645 111.696 27.2645 113.408C27.2645 115.36 26.4325 116.288 25.3445 116.288ZM33.7294 118.224C34.9614 118.224 35.8254 117.632 36.5934 116.72H36.6574L36.8334 118H38.7534V109.04H36.4014V115.088C35.7934 115.888 35.3134 116.208 34.5774 116.208C33.7134 116.208 33.3294 115.728 33.3294 114.336V109.04H30.9774V114.64C30.9774 116.88 31.8094 118.224 33.7294 118.224ZM40.6609 121.44H42.9969V118.72L42.9329 117.248C43.6209 117.872 44.3729 118.224 45.1569 118.224C47.1249 118.224 48.9649 116.448 48.9649 113.376C48.9649 110.624 47.6529 108.816 45.4449 108.816C44.4849 108.816 43.5569 109.328 42.8049 109.968H42.7409L42.5809 109.04H40.6609V121.44ZM44.6289 116.288C44.1489 116.288 43.5729 116.112 42.9969 115.616V111.68C43.6209 111.056 44.1649 110.752 44.7729 110.752C46.0049 110.752 46.5489 111.696 46.5489 113.408C46.5489 115.36 45.7169 116.288 44.6289 116.288ZM49.5623 118H56.6343V116.144H52.4903L56.5063 110.304V109.04H50.0103V110.896H53.5623L49.5623 116.736V118ZM61.2986 118.224C63.5386 118.224 65.6026 116.496 65.6026 113.536C65.6026 110.544 63.5386 108.816 61.2986 108.816C59.0586 108.816 56.9946 110.544 56.9946 113.536C56.9946 116.496 59.0586 118.224 61.2986 118.224ZM61.2986 116.304C60.0826 116.304 59.3946 115.216 59.3946 113.536C59.3946 111.84 60.0826 110.736 61.2986 110.736C62.5146 110.736 63.2026 111.84 63.2026 113.536C63.2026 115.216 62.5146 116.304 61.2986 116.304ZM66.9703 118H69.3063V111.84C69.9783 111.184 70.4423 110.832 71.1783 110.832C72.0583 110.832 72.4423 111.328 72.4423 112.704V118H74.7943V112.416C74.7943 110.16 73.9623 108.816 72.0263 108.816C70.8103 108.816 69.8983 109.456 69.1143 110.224H69.0503L68.8903 109.04H66.9703V118ZM80.5082 118.224C81.6282 118.224 82.7642 117.84 83.6442 117.232L82.8442 115.792C82.2042 116.192 81.5642 116.416 80.8282 116.416C79.5002 116.416 78.5402 115.648 78.3482 114.176H83.8682C83.9322 113.968 83.9802 113.536 83.9802 113.104C83.9802 110.624 82.7002 108.816 80.2362 108.816C78.0922 108.816 76.0602 110.624 76.0602 113.536C76.0602 116.48 78.0122 118.224 80.5082 118.224ZM78.3162 112.624C78.4922 111.312 79.3242 110.64 80.2682 110.64C81.4202 110.64 81.9642 111.408 81.9642 112.624H78.3162Z" fill="black"/>
<circle opacity="0.5" cx="13" cy="36" r="8" fill="white"/>
<path fill-rule="evenodd" clip-rule="evenodd" d="M37 46.0833C42.5689 46.0833 47.0833 41.5689 47.0833 36C47.0833 30.4311 42.5689 25.9167 37 25.9167C31.4311 25.9167 26.9167 30.4311 26.9167 36C26.9167 41.5689 31.4311 46.0833 37 46.0833ZM37 47C43.0751 47 48 42.0751 48 36C48 29.9249 43.0751 25 37 25C30.9249 25 26 29.9249 26 36C26 42.0751 30.9249 47 37 47Z" fill="white"/>
<path d="M44 36C44 39.866 40.866 43 37 43C33.134 43 30 39.866 30 36C30 32.134 33.134 29 37 29C40.866 29 44 32.134 44 36Z" fill="white"/>
<path fill-rule="evenodd" clip-rule="evenodd" d="M61 46.0833C66.5689 46.0833 71.0833 41.5689 71.0833 36C71.0833 30.4311 66.5689 25.9167 61 25.9167C55.4311 25.9167 50.9167 30.4311 50.9167 36C50.9167 41.5689 55.4311 46.0833 61 46.0833ZM72 36C72 42.0751 67.0751 47 61 47C54.9249 47 50 42.0751 50 36C50 29.9249 54.9249 25 61 25C67.0751 25 72 29.9249 72 36Z" fill="white"/>
<path fill-rule="evenodd" clip-rule="evenodd" d="M58.8 32.0033C59.3062 32.0033 59.7166 32.4137 59.7166 32.92V39.08C59.7166 39.5862 59.3062 39.9966 58.8 39.9966C58.2937 39.9966 57.8833 39.5862 57.8833 39.08V32.92C57.8833 32.4137 58.2937 32.0033 58.8 32.0033ZM63.2 32.0033C63.7062 32.0033 64.1166 32.4137 64.1166 32.92V39.08C64.1166 39.5862 63.7062 39.9966 63.2 39.9966C62.6937 39.9966 62.2833 39.5862 62.2833 39.08V32.92C62.2833 32.4137 62.6937 32.0033 63.2 32.0033Z" fill="white"/>
<path fill-rule="evenodd" clip-rule="evenodd" d="M85 46.0833C90.5689 46.0833 95.0833 41.5689 95.0833 36C95.0833 30.4311 90.5689 25.9167 85 25.9167C79.4311 25.9167 74.9167 30.4311 74.9167 36C74.9167 41.5689 79.4311 46.0833 85 46.0833ZM96 36C96 42.0751 91.0751 47 85 47C78.9249 47 74 42.0751 74 36C74 29.9249 78.9249 25 85 25C91.0751 25 96 29.9249 96 36Z" fill="white"/>
<path d="M88.5375 35.1919L83.5056 32.1464C82.8502 31.7497 82 32.206 82 32.9545V39.0455C82 39.794 82.8502 40.2503 83.5056 39.8536L88.5375 36.8081C89.1542 36.4349 89.1542 35.5651 88.5375 35.1919Z" fill="white"/>
<path fill-rule="evenodd" clip-rule="evenodd" d="M34 130.4C34.4418 130.4 34.8 130.758 34.8 131.2V136.8C34.8 137.242 34.4418 137.6 34 137.6C33.5581 137.6 33.2 137.242 33.2 136.8V131.2C33.2 130.758 33.5581 130.4 34 130.4ZM38 130.4C38.4418 130.4 38.8 130.758 38.8 131.2V136.8C38.8 137.242 38.4418 137.6 38 137.6C37.5581 137.6 37.2 137.242 37.2 136.8V131.2C37.2 130.758 37.5581 130.4 38 130.4Z" fill="#4E5E71"/>
<path fill-rule="evenodd" clip-rule="evenodd" d="M9.33301 134.002L13.095 137.764C13.3228 137.992 13.6921 137.992 13.9199 137.764C14.1477 137.536 14.1477 137.167 13.9199 136.939L10.9829 134.002L13.9199 131.065C14.1477 130.837 14.1477 130.468 13.9199 130.24C13.6921 130.012 13.3228 130.012 13.095 130.24L9.33301 134.002Z" fill="#4E5E71"/>
<path fill-rule="evenodd" clip-rule="evenodd" d="M86.667 134.002L82.905 137.764C82.6772 137.992 82.3079 137.992 82.0801 137.764C81.8523 137.536 81.8523 137.167 82.0801 136.939L85.0171 134.002L82.0801 131.065C81.8523 130.837 81.8523 130.468 82.0801 130.24C82.3079 130.012 82.6772 130.012 82.905 130.24L86.667 134.002Z" fill="#4E5E71"/>
<g clip-path="url(#clip0_1166_6359)">
<path d="M62.7428 133.494L58.6005 129.943C58.1681 129.573 57.5 129.88 57.5 130.449V137.55C57.5 138.12 58.1681 138.427 58.6005 138.057L62.7428 134.506C63.0532 134.24 63.0532 133.76 62.7428 133.494Z" fill="#4E5E71"/>
</g>
<path d="M129.293 209L115 200.15L117.124 196.657L129.293 204.195L142.527 196L155.761 204.195L168.996 196L182.23 204.195L195.466 196L208.701 204.195L220.878 196.657L223 200.15L208.701 209L195.466 200.807L182.23 209L168.996 200.807L155.761 209L142.527 200.807L129.293 209Z" fill="#CAD8EA" fill-opacity="0.4"/>
<g clip-path="url(#clip1_1166_6359)">
<path d="M129.293 225.612L115 216.762L117.124 213.27L129.293 220.807L142.527 212.612L155.761 220.807L168.996 212.612L182.23 220.807L195.466 212.612L208.701 220.807L220.878 213.27L223 216.762L208.701 225.612L195.466 217.419L182.23 225.612L168.996 217.419L155.761 225.612L142.527 217.419L129.293 225.612Z" fill="#CAD8EA" fill-opacity="0.4"/>
</g>
<g clip-path="url(#clip2_1166_6359)">
<path d="M129.293 242.225L115 233.374L117.124 229.882L129.293 237.419L142.527 229.225L155.761 237.419L168.996 229.225L182.23 237.419L195.466 229.225L208.701 237.419L220.878 229.882L223 233.374L208.701 242.225L195.466 234.032L182.23 242.225L168.996 234.032L155.761 242.225L142.527 234.032L129.293 242.225Z" fill="#CAD8EA" fill-opacity="0.4"/>
</g>
<g clip-path="url(#clip3_1166_6359)">
<path d="M129.293 258.837L115 249.986L117.124 246.494L129.293 254.032L142.527 245.837L155.761 254.032L168.996 245.837L182.23 254.032L195.466 245.837L208.701 254.032L220.878 246.494L223 249.986L208.701 258.837L195.466 250.644L182.23 258.837L168.996 250.644L155.761 258.837L142.527 250.644L129.293 258.837Z" fill="#CAD8EA" fill-opacity="0.4"/>
</g>
<g opacity="0.3" clip-path="url(#clip4_1166_6359)">
<path d="M37.6525 217.08L1.12305 196V238.16L37.6525 217.08Z" fill="#4E9BF6"/>
<path d="M45.1608 228.921L8.63135 207.84V250.001L45.1608 228.921Z" fill="#2F306B"/>
<path d="M43.2117 207.84L57.0004 215.781V199.899L43.2117 207.84Z" fill="#2F306B"/>
</g>
<g opacity="0.3" clip-path="url(#clip5_1166_6359)">
<path d="M76.3475 217.08L112.877 196V238.16L76.3475 217.08Z" fill="#4E9BF6"/>
<path d="M68.8392 228.921L105.369 207.84V250.001L68.8392 228.921Z" fill="#2F306B"/>
<path d="M70.7883 207.84L56.9996 215.781V199.899L70.7883 207.84Z" fill="#2F306B"/>
</g>
<path d="M299.699 332.28V310.292C299.699 307.92 297.779 306 295.407 306H269.885C267.514 306 265.593 307.92 265.593 310.292V322.794C265.593 325.165 267.514 327.086 269.885 327.086H294.773L299.699 332.28Z" fill="#9CC4FC"/>
<path d="M244.68 352.32V327.038C244.68 324.311 246.889 322.103 249.616 322.103H278.959C281.686 322.103 283.894 324.311 283.894 327.038V341.422C283.894 344.149 281.686 346.357 278.959 346.357H250.336L244.68 352.32Z" fill="white" stroke="#20335B" stroke-width="2.4" stroke-miterlimit="10" stroke-linecap="round" stroke-linejoin="round"/>
<path d="M286.448 316.264C286.448 315.333 287.207 314.575 288.138 314.575C289.069 314.575 289.828 315.333 289.828 316.264C289.828 317.196 289.069 317.954 288.138 317.954C287.207 317.954 286.448 317.196 286.448 316.264Z" fill="white"/>
<path d="M279.843 316.264C279.843 315.333 280.601 314.575 281.532 314.575C282.463 314.575 283.222 315.333 283.222 316.264C283.222 317.196 282.463 317.954 281.532 317.954C280.601 317.954 279.843 317.196 279.843 316.264Z" fill="white"/>
<path d="M273.236 316.264C273.236 315.333 273.995 314.575 274.926 314.575C275.857 314.575 276.616 315.333 276.616 316.264C276.616 317.196 275.857 317.954 274.926 317.954C273.995 317.954 273.236 317.196 273.236 316.264Z" fill="white"/>
<path d="M259.917 333.903C259.917 332.827 259.044 331.963 257.978 331.963C256.903 331.963 256.039 332.837 256.039 333.903C256.039 334.978 256.913 335.842 257.978 335.842C259.044 335.842 259.917 334.978 259.917 333.903Z" fill="#20335B"/>
<path d="M267.513 333.903C267.513 332.827 266.639 331.963 265.573 331.963C264.498 331.963 263.634 332.837 263.634 333.903C263.634 334.978 264.508 335.842 265.573 335.842C266.639 335.842 267.513 334.978 267.513 333.903Z" fill="#20335B"/>
<path d="M273.159 335.842C274.23 335.842 275.098 334.974 275.098 333.903C275.098 332.832 274.23 331.963 273.159 331.963C272.088 331.963 271.22 332.832 271.22 333.903C271.22 334.974 272.088 335.842 273.159 335.842Z" fill="#20335B"/>
<path d="M229.154 307.364H206.015V352.636H229.154V307.364Z" stroke="#9CC4FC" stroke-width="2.4" stroke-miterlimit="10" stroke-linecap="round" stroke-linejoin="round"/>
<path d="M219.666 316.47H192.364V352.628H219.666V316.47Z" fill="white" stroke="#20335B" stroke-width="2.4" stroke-miterlimit="10" stroke-linecap="round" stroke-linejoin="round"/>
<path d="M201.26 320.313H196.527V326.48H201.26V320.313Z" fill="#9CC4FC"/>
<path d="M208.385 320.313H203.653V326.48H208.385V320.313Z" fill="#9CC4FC"/>
<path d="M215.503 320.313H210.771V326.48H215.503V320.313Z" fill="#9CC4FC"/>
<path d="M201.26 329.7H196.527V335.866H201.26V329.7Z" fill="#9CC4FC"/>
<path d="M208.385 329.7H203.653V335.866H208.385V329.7Z" fill="#9CC4FC"/>
<path d="M215.503 329.7H210.771V335.866H215.503V329.7Z" fill="#9CC4FC"/>
<path d="M201.26 339.079H196.527V345.245H201.26V339.079Z" fill="#9CC4FC"/>
<path d="M208.385 339.079H203.653V345.245H208.385V339.079Z" fill="#9CC4FC"/>
<path d="M215.503 339.079H210.771V345.245H215.503V339.079Z" fill="#9CC4FC"/>
<path d="M159.865 322.498L155.805 335.904L151.745 322.498L147.678 335.904L143.618 322.498" stroke="#9CC4FC" stroke-width="2.4" stroke-miterlimit="10" stroke-linecap="round" stroke-linejoin="round"/>
<path d="M142.227 327.678H161.263" stroke="#9CC4FC" stroke-width="2.4" stroke-miterlimit="10" stroke-linecap="round" stroke-linejoin="round"/>
<path d="M168.141 308.249V351.751H145.459L135.249 341.541V308.249H168.141Z" stroke="#20335B" stroke-width="2.4" stroke-miterlimit="10" stroke-linecap="round" stroke-linejoin="round"/>
<path d="M145.459 351.751V341.541H135.249" stroke="#20335B" stroke-width="2.4" stroke-miterlimit="10" stroke-linecap="round" stroke-linejoin="round"/>
<path d="M109.91 342.57H72.2576C69.1029 342.57 66.5508 340.009 66.5508 336.863V314.258C66.5508 311.103 69.1118 308.551 72.2576 308.551H109.901C113.056 308.551 115.608 311.112 115.608 314.258V336.854C115.617 340.009 113.065 342.57 109.91 342.57Z" stroke="#20335B" stroke-width="2.4" stroke-miterlimit="10" stroke-linecap="round" stroke-linejoin="round"/>
<path d="M88.4297 342.57V351.449" stroke="#20335B" stroke-width="2.4" stroke-miterlimit="10" stroke-linecap="round" stroke-linejoin="round"/>
<path d="M93.7466 342.57V351.449" stroke="#20335B" stroke-width="2.4" stroke-miterlimit="10" stroke-linecap="round" stroke-linejoin="round"/>
<path d="M76.2717 351.449H105.896" stroke="#20335B" stroke-width="2.4" stroke-miterlimit="10" stroke-linecap="round" stroke-linejoin="round"/>
<path d="M91.0881 314.745L94.5973 321.861L102.457 323.004L96.7683 328.551L98.1153 336.376L91.0881 332.681L84.0521 336.376L85.399 328.551L79.71 323.004L87.5701 321.861L91.0881 314.745Z" fill="#9CC4FC"/>
<path d="M46.6328 352.468H17.2689C15.3685 352.468 13.8271 350.926 13.8271 349.026V310.966C13.8271 309.065 15.3685 307.524 17.2689 307.524H46.6328C48.5332 307.524 50.0746 309.065 50.0746 310.966V349.026C50.0746 350.926 48.5332 352.468 46.6328 352.468Z" fill="white" stroke="#20335B" stroke-width="2.4" stroke-miterlimit="10" stroke-linecap="round" stroke-linejoin="round"/>
<path d="M22.0242 319.863H43.41" stroke="#9CC4FC" stroke-width="2.4" stroke-miterlimit="10" stroke-linecap="round" stroke-linejoin="round"/>
<path d="M43.4098 328.883V339.296C43.4098 340.111 42.753 340.767 41.9386 340.767H23.504C22.6895 340.767 22.0327 340.111 22.0327 339.296V328.883C22.0327 328.069 22.6895 327.412 23.504 327.412H41.9386C42.7443 327.412 43.4098 328.069 43.4098 328.883Z" fill="#9CC4FC"/>
<path d="M15.9026 317.875H12.0405C10.9108 317.875 10 317.07 10 316.08C10 315.09 10.9108 314.293 12.0405 314.293H15.9026C17.0323 314.293 17.9431 315.099 17.9431 316.089C17.9431 317.078 17.0235 317.875 15.9026 317.875Z" fill="#20335B"/>
<path d="M15.9026 346.731H12.0405C10.9108 346.731 10 345.926 10 344.936C10 343.946 10.9108 343.15 12.0405 343.15H15.9026C17.0323 343.15 17.9431 343.955 17.9431 344.945C17.9431 345.934 17.0235 346.731 15.9026 346.731Z" fill="#20335B"/>
<path fill-rule="evenodd" clip-rule="evenodd" d="M16.5429 411.957L7 402.414L8.41421 401L19.3713 411.957L8.41421 422.914L7 421.5L16.5429 411.957Z" fill="white"/>
<path fill-rule="evenodd" clip-rule="evenodd" d="M37.5859 412L33.293 407.707L34.7072 406.293L40.4143 412L34.7072 417.707L33.293 416.293L37.5859 412Z" fill="#4E9BF6"/>
<defs>
<clipPath id="clip0_1166_6359">
<rect width="10" height="10" fill="white" transform="translate(65 129) rotate(90)"/>
</clipPath>
<clipPath id="clip1_1166_6359">
<rect width="108" height="13" fill="white" transform="translate(115 212.612)"/>
</clipPath>
<clipPath id="clip2_1166_6359">
<rect width="108" height="13" fill="white" transform="translate(115 229.225)"/>
</clipPath>
<clipPath id="clip3_1166_6359">
<rect width="108" height="13" fill="white" transform="translate(115 245.837)"/>
</clipPath>
<clipPath id="clip4_1166_6359">
<rect width="56" height="54" fill="white" transform="translate(1 196)"/>
</clipPath>
<clipPath id="clip5_1166_6359">
<rect width="56" height="54" fill="white" transform="matrix(-1 0 0 1 113 196)"/>
</clipPath>
</defs>
</svg>
