<svg width="75" height="62" viewBox="0 0 75 62" fill="none" xmlns="http://www.w3.org/2000/svg">
<g clip-path="url(#clip0_70:1598)">
<path d="M12.2603 48.7619V11.6159C12.2603 8.65425 14.6548 6.25977 17.6164 6.25977H50.6981H50.7611H50.7926C51.3282 6.25977 51.7378 6.70086 51.7378 7.23646V44.3825L12.2603 48.7619Z" fill="white"/>
<path d="M12.2603 50.0227C11.9452 50.0227 11.6616 49.8966 11.4096 49.7076C11.1575 49.4555 11 49.1405 11 48.7624V11.6163C11 7.9616 13.9616 5 17.6163 5H50.7611C50.8241 5 50.8556 5 50.9186 5C52.0844 5.06301 52.998 6.03971 52.998 7.23695V44.383C52.998 45.0131 52.5254 45.5803 51.8638 45.6433L12.3863 50.0227C12.3548 50.0227 12.2918 50.0227 12.2603 50.0227ZM17.6163 7.52051C15.3479 7.52051 13.5205 9.34788 13.5205 11.6163V47.3446L50.4775 43.2488V7.52051H17.6163Z" fill="#515151"/>
<path d="M16.6712 53.1734C14.2452 53.1734 12.2603 51.1884 12.2603 48.7625C12.2603 46.305 14.2452 44.3516 16.6712 44.3516H51.7378C51.0447 45.6748 50.6351 47.1871 50.6351 48.7625C50.6351 50.3693 51.0447 51.8816 51.7378 53.1734H16.6712Z" fill="white"/>
<path d="M51.7378 54.4341H16.6712C13.552 54.4341 11 51.8821 11 48.7629C11 45.6438 13.552 43.0918 16.6712 43.0918H51.7378C52.1789 43.0918 52.5885 43.3123 52.809 43.6904C53.0296 44.0685 53.0611 44.5411 52.8405 44.9192C52.2104 46.0849 51.8953 47.4082 51.8953 48.7314C51.8953 50.0232 52.2104 51.315 52.809 52.4492C52.935 52.6382 53.0296 52.8903 53.0296 53.1423C52.9981 53.867 52.4624 54.4341 51.7378 54.4341ZM16.6712 45.6123C14.9383 45.6123 13.5205 47.0301 13.5205 48.7629C13.5205 50.4958 14.9383 51.9136 16.6712 51.9136H49.8474C49.5324 50.9054 49.3748 49.8342 49.3748 48.7629C49.3748 47.6917 49.5324 46.6205 49.8474 45.6123H16.6712Z" fill="#515151"/>
<path d="M39.0092 57.52V49.2969H46.2242V57.52L42.6324 55.4406L39.0092 57.52Z" fill="#9AB6FF"/>
<path d="M46.2241 58.7808C46.0036 58.7808 45.783 58.7178 45.594 58.6233L42.6009 56.9219L39.6078 58.6233C39.2297 58.8438 38.7256 58.8438 38.3475 58.6233C37.9695 58.4027 37.7174 57.9931 37.7174 57.5205V49.2974C37.7174 48.6042 38.2845 48.0371 38.9777 48.0371H46.1926C46.8858 48.0371 47.4529 48.6042 47.4529 49.2974V57.5205C47.4529 57.9616 47.2008 58.3712 46.8228 58.6233C46.6652 58.7178 46.4447 58.7808 46.2241 58.7808ZM40.2694 50.5576V55.3466L42.0023 54.3699C42.3804 54.1493 42.853 54.1493 43.2625 54.3699L44.9954 55.3466V50.5576H40.2694Z" fill="#515151"/>
<path d="M26.2176 15.6497C26.2176 16.4059 25.619 17.0045 24.8628 17.0045C24.1067 17.0045 23.508 16.4059 23.508 15.6497C23.508 14.8935 24.1067 14.2949 24.8628 14.2949C25.619 14.2949 26.2176 14.925 26.2176 15.6497Z" fill="#9AB6FF"/>
<path d="M31.353 15.6497C31.353 16.4059 30.7544 17.0045 29.9982 17.0045C29.2421 17.0045 28.6435 16.4059 28.6435 15.6497C28.6435 14.8935 29.2421 14.2949 29.9982 14.2949C30.7229 14.2949 31.353 14.925 31.353 15.6497Z" fill="#9AB6FF"/>
<path d="M36.4572 15.6497C36.4572 16.4059 35.8585 17.0045 35.1024 17.0045C34.3462 17.0045 33.7476 16.4059 33.7476 15.6497C33.7476 14.8935 34.3462 14.2949 35.1024 14.2949C35.8585 14.2949 36.4572 14.925 36.4572 15.6497Z" fill="#9AB6FF"/>
<path d="M41.5611 15.6497C41.5611 16.4059 40.9625 17.0045 40.2063 17.0045C39.4502 17.0045 38.8515 16.4059 38.8515 15.6497C38.8515 14.8935 39.4502 14.2949 40.2063 14.2949C40.9625 14.2949 41.5611 14.925 41.5611 15.6497Z" fill="#9AB6FF"/>
<path d="M62.3555 15.1451L59.3308 6.66992L56.3377 15.1451H62.3555Z" fill="white"/>
<path d="M62.3566 16.4059H56.3703C55.9608 16.4059 55.5827 16.2169 55.3306 15.8703C55.0786 15.5237 55.0471 15.1141 55.1731 14.7361L58.1662 6.26083C58.3552 5.75673 58.8278 5.41016 59.3634 5.41016C59.8991 5.41016 60.3717 5.75673 60.5607 6.26083L63.5538 14.7361C63.6798 15.1141 63.6168 15.5552 63.3963 15.8703C63.1442 16.1853 62.7661 16.4059 62.3566 16.4059ZM58.1347 13.8854H60.5607L59.3319 10.4512L58.1347 13.8854Z" fill="#515151"/>
<path d="M62.3556 15.1445H56.3378V48.3208H62.3556V15.1445Z" fill="#9AB6FF"/>
<path d="M62.3556 49.5815H56.3379C55.6448 49.5815 55.0776 49.0144 55.0776 48.3213V15.145C55.0776 14.4519 55.6448 13.8848 56.3379 13.8848H62.3556C63.0488 13.8848 63.6159 14.4519 63.6159 15.145V48.3213C63.6159 49.0144 63.0488 49.5815 62.3556 49.5815ZM57.5981 47.061H61.0954V16.4053H57.5981V47.061Z" fill="#515151"/>
<path d="M57.5982 53.1726H61.0324C61.7255 53.1726 62.3242 52.6054 62.3242 51.8808V48.2891H56.3064V51.8808C56.3379 52.6054 56.9051 53.1726 57.5982 53.1726Z" fill="white"/>
<path d="M61.0639 54.4333H57.6297C56.2119 54.4333 55.0776 53.2991 55.0776 51.8813V48.2896C55.0776 47.5964 55.6448 47.0293 56.3379 47.0293H62.3556C63.0488 47.0293 63.6159 47.5964 63.6159 48.2896V51.8813C63.6159 53.2991 62.4501 54.4333 61.0639 54.4333ZM57.5981 49.5813V51.9128C57.5981 51.9128 57.5982 51.9443 57.6297 51.9443H61.0639C61.0639 51.9443 61.0954 51.9443 61.0954 51.9128V49.5813H57.5981Z" fill="#515151"/>
</g>
<defs>
<clipPath id="clip0_70:1598">
<rect width="52.6157" height="53.7814" fill="white" transform="translate(11 5)"/>
</clipPath>
</defs>
</svg>
