<svg width="42" height="42" viewBox="0 0 42 42" fill="none" xmlns="http://www.w3.org/2000/svg">
<path opacity="0.7" d="M31.5 35H30V32.4995C29.9953 31.6411 29.8433 30.7898 29.5506 29.9829C29.5342 29.9388 29.517 29.898 29.4968 29.8561C29.2539 29.1937 28.9182 28.5691 28.5 28.0009L26.4001 25.2002C25.8175 24.42 25.5018 23.4727 25.5 22.499V20.9843C25.5034 19.7917 25.9768 18.6485 26.8176 17.8027L27.8034 16.8168C28.9489 15.6652 29.6847 14.1695 29.8979 12.5592C29.8987 12.5384 29.9099 12.521 29.9099 12.4999L29.9057 12.4793C29.9578 12.1599 29.9893 11.8375 30 11.5141V8H31.5C31.8978 8 32.2793 7.84196 32.5606 7.56066C32.842 7.27935 33 6.89782 33 6.5C33 6.10217 32.842 5.72064 32.5606 5.43934C32.2793 5.15804 31.8978 5 31.5 5H10.5C10.1022 5 9.72066 5.15804 9.43935 5.43934C9.15805 5.72064 9.00002 6.10217 9.00002 6.5C9.00002 6.89782 9.15805 7.27935 9.43935 7.56066C9.72066 7.84196 10.1022 8 10.5 8H12V11.5141C12.0107 11.8375 12.0422 12.1599 12.0943 12.4793L12.0901 12.5C12.0901 12.521 12.1012 12.5385 12.1021 12.5593C12.3153 14.1695 13.0511 15.6652 14.1965 16.8169L15.1824 17.8027C16.0231 18.6485 16.4965 19.7917 16.5 20.9843V22.499C16.498 23.4726 16.1827 24.4197 15.6006 25.2001L13.4993 28.0009C13.0811 28.5693 12.7456 29.1941 12.5027 29.8566C12.4828 29.8982 12.4656 29.9386 12.4494 29.9822C12.1567 30.7894 12.0047 31.6408 12 32.4995V35H10.5C10.1022 35 9.72064 35.158 9.43934 35.4393C9.15804 35.7206 9 36.1021 9 36.5C9 36.8978 9.15804 37.2793 9.43934 37.5606C9.72064 37.8419 10.1022 38 10.5 38H31.5C31.8978 38 32.2793 37.8419 32.5606 37.5606C32.8419 37.2793 33 36.8978 33 36.5C33 36.1021 32.8419 35.7206 32.5606 35.4393C32.2793 35.158 31.8978 35 31.5 35V35ZM15 11V8H27V11H15ZM16.3176 14.6958C16.1063 14.4835 15.9169 14.2503 15.7523 14H26.2477C26.0831 14.2503 25.8937 14.4835 25.6824 14.6958L24.6965 15.6816C23.5265 16.8448 22.7762 18.3639 22.5637 20H19.4362C19.2238 18.3638 18.4735 16.8447 17.3034 15.6815L16.3176 14.6958ZM18.0007 26.999C18.8687 25.836 19.3833 24.4477 19.4831 23H22.5168C22.6166 24.4478 23.1315 25.8362 24 26.999L25.5002 29H16.4994L18.0007 26.999ZM27 35H15V32.4995C15.0042 32.3323 15.0178 32.1656 15.0408 32H26.9591C26.9822 32.1656 26.9958 32.3323 27 32.4995V35Z" fill="#0B4886"/>
</svg>
