<svg width="42" height="42" viewBox="0 0 42 42" fill="none" xmlns="http://www.w3.org/2000/svg">
<g opacity="0.7">
<path d="M10.1667 12.666C11.5474 12.666 12.6667 11.5467 12.6667 10.166C12.6667 8.7853 11.5474 7.66602 10.1667 7.66602C8.78599 7.66602 7.6667 8.7853 7.6667 10.166C7.6667 11.5467 8.78599 12.666 10.1667 12.666Z" stroke="#0B4886" stroke-width="3" stroke-linecap="round" stroke-linejoin="round"/>
<path d="M31.8333 12.666C33.214 12.666 34.3333 11.5467 34.3333 10.166C34.3333 8.7853 33.214 7.66602 31.8333 7.66602C30.4526 7.66602 29.3333 8.7853 29.3333 10.166C29.3333 11.5467 30.4526 12.666 31.8333 12.666Z" stroke="#0B4886" stroke-width="3" stroke-linecap="round" stroke-linejoin="round"/>
<path d="M22.355 28.9906L29.44 31.1155M10.885 12.5605L13.01 19.6422L10.885 12.5605Z" stroke="#0B4886" stroke-width="3" stroke-linecap="round" stroke-linejoin="round"/>
<path d="M20.4717 21.528L30.07 11.9297" stroke="#0B4886" stroke-width="3" stroke-linecap="round" stroke-linejoin="round"/>
<path d="M31.8333 34.334C33.214 34.334 34.3333 33.2147 34.3333 31.834C34.3333 30.4533 33.214 29.334 31.8333 29.334C30.4526 29.334 29.3333 30.4533 29.3333 31.834C29.3333 33.2147 30.4526 34.334 31.8333 34.334Z" stroke="#0B4886" stroke-width="3" stroke-linecap="round" stroke-linejoin="round"/>
<path d="M15.1667 34.334C19.3088 34.334 22.6667 30.9761 22.6667 26.834C22.6667 22.6918 19.3088 19.334 15.1667 19.334C11.0246 19.334 7.6667 22.6918 7.6667 26.834C7.6667 30.9761 11.0246 34.334 15.1667 34.334Z" stroke="#0B4886" stroke-width="3" stroke-linecap="round" stroke-linejoin="round"/>
</g>
</svg>
