<svg width="14" height="14" viewBox="0 0 14 14" fill="none" xmlns="http://www.w3.org/2000/svg">
<path d="M6.68811 8.91624L4.11137 11.5035C3.79936 11.8058 3.38176 11.9757 2.94652 11.9774C2.51129 11.9791 2.09239 11.8124 1.77806 11.5124C1.62388 11.3606 1.5013 11.1799 1.41738 10.9807C1.33345 10.7816 1.28982 10.5679 1.28899 10.3519C1.28816 10.1359 1.33014 9.92182 1.41254 9.72203C1.49493 9.52223 1.6161 9.3406 1.76911 9.18758L4.34585 6.60036C4.4709 6.4748 4.54077 6.30488 4.54009 6.12799C4.53941 5.9511 4.46823 5.78173 4.34222 5.65713C4.2162 5.53253 4.04567 5.46292 3.86814 5.4636C3.6906 5.46429 3.52061 5.53521 3.39556 5.66077L0.818851 8.25463C0.299934 8.82177 0.0209734 9.56673 0.0402274 10.3339C0.0594815 11.1011 0.375461 11.8312 0.922178 12.3718C1.4689 12.9124 2.20408 13.2216 2.97419 13.2348C3.7443 13.2481 4.4898 12.9645 5.05499 12.4431L7.63839 9.85582C7.76345 9.73026 7.83332 9.56035 7.83264 9.38346C7.83196 9.20657 7.76078 9.03719 7.63477 8.9126C7.50875 8.788 7.33822 8.71839 7.16068 8.71907C6.98315 8.71975 6.81316 8.79068 6.68811 8.91624V8.91624ZM12.3772 0.870161C11.8143 0.317014 11.0545 0.00825631 10.2639 0.0112978C9.47323 0.0143393 8.7159 0.328933 8.15723 0.886394L5.57383 3.47364C5.51191 3.53581 5.46288 3.60953 5.42956 3.69058C5.39623 3.77162 5.37925 3.85842 5.37958 3.94601C5.37992 4.03359 5.39757 4.12026 5.43152 4.20105C5.46547 4.28184 5.51506 4.35517 5.57746 4.41687C5.63985 4.47856 5.71384 4.5274 5.79518 4.56061C5.87652 4.59382 5.96363 4.61073 6.05154 4.61039C6.13944 4.61006 6.22642 4.59247 6.30751 4.55864C6.38859 4.52481 6.4622 4.4754 6.52412 4.41322L9.10085 1.82601C9.41286 1.52365 9.83047 1.35374 10.2657 1.35207C10.7009 1.35039 11.1198 1.51708 11.4342 1.81703C11.5883 1.96887 11.7109 2.14956 11.7948 2.34872C11.8788 2.54788 11.9224 2.76159 11.9232 2.97759C11.9241 3.1936 11.8821 3.40764 11.7997 3.60744C11.7173 3.80724 11.5961 3.98886 11.4431 4.14188L8.86638 6.7291C8.80413 6.79109 8.75481 6.86475 8.72128 6.94583C8.68775 7.0269 8.67066 7.11379 8.67099 7.20148C8.67133 7.28916 8.68909 7.37592 8.72325 7.45673C8.7574 7.53755 8.80728 7.61082 8.87 7.67233C8.93222 7.73435 9.00614 7.78348 9.08751 7.81689C9.16888 7.85031 9.25608 7.86733 9.34409 7.86699C9.4321 7.86665 9.51917 7.84896 9.60028 7.81492C9.68139 7.78089 9.75493 7.73119 9.81666 7.66869L12.3934 5.07483C12.9485 4.51391 13.2584 3.75692 13.2554 2.96915C13.2524 2.18137 12.9367 1.42679 12.3772 0.870161V0.870161ZM4.50089 8.77852C4.56342 8.83984 4.63749 8.88826 4.71884 8.921C4.80019 8.95375 4.88723 8.97017 4.97496 8.96933C5.0627 8.96949 5.14961 8.9524 5.23071 8.91904C5.31181 8.88567 5.3855 8.83668 5.44755 8.77487L8.71496 5.49417C8.84001 5.36861 8.90988 5.1987 8.9092 5.02181C8.90852 4.84492 8.83735 4.67554 8.71133 4.55095C8.58531 4.42635 8.41478 4.35674 8.23725 4.35742C8.05971 4.3581 7.88972 4.42903 7.76467 4.55459L4.49727 7.83529C4.43502 7.89728 4.3857 7.97094 4.35217 8.05201C4.31864 8.13309 4.30154 8.21997 4.30188 8.30766C4.30222 8.39535 4.31998 8.4821 4.35414 8.56292C4.38829 8.64373 4.43817 8.71701 4.50089 8.77852Z" fill="#333333"/>
</svg>
