<svg width="106" height="113" viewBox="0 0 106 113" fill="none" xmlns="http://www.w3.org/2000/svg">
<mask id="mask0_415_1783" style="mask-type:alpha" maskUnits="userSpaceOnUse" x="0" y="0" width="106" height="113">
<rect width="106" height="113" fill="#C4C4C4"/>
</mask>
<g mask="url(#mask0_415_1783)">
<g clip-path="url(#clip0_415_1783)">
<g opacity="0.12">
<path d="M85.1291 140.84H114.437C115.939 140.84 117.157 139.612 117.157 138.097V108.542C117.157 107.027 115.939 105.799 114.437 105.799H85.1291C83.627 105.799 82.4092 107.027 82.4092 108.542V138.097C82.4092 139.612 83.627 140.84 85.1291 140.84ZM87.8491 126.062H97.0629V135.354H87.8491V126.062ZM102.503 135.354V126.062H111.717V135.354H102.503ZM111.717 120.577H102.503V111.285H111.717V120.577ZM97.0633 111.285V120.576H87.8495V111.285H97.0633Z" fill="white" fill-opacity="0.76"/>
<path d="M27.2463 140.84H56.5542C58.0563 140.84 59.2741 139.612 59.2741 138.097V108.542C59.2741 107.027 58.0563 105.799 56.5542 105.799H27.2463C25.7442 105.799 24.5264 107.027 24.5264 108.542V138.097C24.5264 139.612 25.7438 140.84 27.2463 140.84ZM29.9663 126.062H39.1805V135.354H29.9663V126.062ZM44.62 135.354V126.062H53.8338V135.354H44.62ZM53.8342 120.577H44.6204V111.285H53.8342V120.577ZM39.1801 111.285V120.576H29.9659V111.285H39.1801Z" fill="white" fill-opacity="0.76"/>
</g>
<path d="M131.052 77.6022C132.128 77.6022 133 76.7234 133 75.6393V66.4713C133 65.3873 132.128 64.5084 131.052 64.5084H108.072V57.5684C108.91 57.9835 109.809 58.1929 110.708 58.1929C111.735 58.1929 112.761 57.9225 113.7 57.3813C115.598 56.2871 116.731 54.3187 116.731 52.1161C116.731 51.0647 116.457 50.0234 115.934 49.0961C115.413 48.1843 114.662 47.4193 113.758 46.8822L95.6527 36.1753C94.7243 35.6259 93.5307 35.9397 92.9862 36.8746C92.4415 37.8095 92.7524 39.0123 93.6803 39.5611L111.782 50.266C112.103 50.4568 112.371 50.7292 112.551 51.0451C112.736 51.3736 112.834 51.7439 112.834 52.1163C112.834 53.2365 112.086 53.789 111.765 53.9743C111.443 54.1596 110.592 54.5294 109.633 53.962L67.4861 29.0385C66.8772 28.6784 66.1226 28.6784 65.5137 29.0385L23.3651 53.9627C23.0298 54.1614 22.6708 54.2624 22.2983 54.2624C21.2727 54.2624 20.1656 53.4419 20.1656 52.1163C20.1656 51.3599 20.5682 50.6512 21.2143 50.2681L64.8271 24.4767C65.8589 23.868 67.1411 23.868 68.1716 24.4757L85.8383 34.9235C86.7656 35.472 87.9598 35.159 88.5047 34.2244C89.0495 33.2893 88.7385 32.0867 87.8109 31.5379L70.1422 21.0888C69.6042 20.7713 69.0343 20.5324 68.4488 20.367V16.616H83.2944C83.9459 16.616 84.5542 16.2881 84.9153 15.7419C85.2766 15.1959 85.3431 14.5039 85.0927 13.8981L82.7811 8.308L85.0927 2.71795C85.3434 2.11207 85.2766 1.42035 84.9153 0.874141C84.554 0.327934 83.9453 0 83.2938 0H66.5C65.4241 0 64.5518 0.878852 64.5518 1.96289V14.6531V20.367C63.9657 20.5324 63.3953 20.7718 62.8565 21.0896L19.2395 46.8835C17.4072 47.9702 16.2689 49.9752 16.2689 52.1161C16.2689 55.464 18.9735 58.1879 22.298 58.1879C23.2059 58.1879 24.1062 57.9733 24.9281 57.5679V64.5084H16.9913C15.9153 64.5084 15.043 65.3873 15.043 66.4713C15.043 67.5554 15.9153 68.4342 16.9913 68.4342H24.9284V72.9685H10.3452C9.26922 72.9685 8.39692 73.8473 8.39692 74.9314V91.5874C8.39692 92.6715 9.26922 93.5503 10.3452 93.5503H24.9284V105.124C24.2798 104.866 23.5779 104.716 22.844 104.696C21.9042 103.748 20.7301 103.088 19.4281 102.78C18.0103 101.623 16.2509 100.993 14.4126 100.993C12.5742 100.993 10.8151 101.623 9.39702 102.78C8.09482 103.088 6.92068 103.748 5.98084 104.696C5.24701 104.716 4.54512 104.866 3.89648 105.124V68.4342H7.89947C8.97542 68.4342 9.84771 67.5554 9.84771 66.4713C9.84771 65.3873 8.97542 64.5084 7.89947 64.5084H1.94824C0.872293 64.5084 0 65.3873 0 66.4713V132.037C0 133.121 0.872293 134 1.94824 134H131.052C132.128 134 133 133.121 133 132.037V84.7995C133 83.7155 132.128 82.8366 131.052 82.8366C129.976 82.8366 129.104 83.7155 129.104 84.7995V105.124C128.455 104.866 127.753 104.716 127.019 104.696C126.079 103.748 124.905 103.088 123.603 102.78C122.185 101.623 120.426 100.993 118.587 100.993C116.749 100.993 114.99 101.623 113.572 102.78C112.27 103.088 111.096 103.748 110.156 104.696C109.422 104.716 108.72 104.866 108.072 105.124V93.5503H122.655C123.731 93.5503 124.603 92.6715 124.603 91.5874V74.9314C124.603 73.8473 123.731 72.9685 122.655 72.9685H108.072V68.4342H129.104V75.6393C129.104 76.7234 129.976 77.6022 131.052 77.6022V77.6022ZM78.8716 9.06306L80.3715 12.6902H68.4482V3.92578H80.3715L78.8713 7.55294C78.6716 8.03634 78.6716 8.57993 78.8716 9.06306ZM66.5 33.0069L104.175 55.286V113.154H78.9446V90.2655C78.9446 89.1814 78.0723 88.3026 76.9964 88.3026H56.0039C54.928 88.3026 54.0557 89.1814 54.0557 90.2655V113.154H28.8252V55.286L66.5 33.0069ZM28.8249 121.614V117.08H104.175V121.614H28.8249ZM75.0481 92.2284V113.154H68.4482V92.2284H75.0481ZM64.5518 113.154H57.9519V92.2284H64.5518V113.154ZM12.2934 89.6243V76.894H24.9284V89.6243H12.2934ZM6.14683 108.62C6.24996 108.62 6.36867 108.631 6.50973 108.654C7.23369 108.772 7.96234 108.471 8.39485 107.874C8.92009 107.15 9.69186 106.679 10.5673 106.547C10.96 106.488 11.3255 106.31 11.6149 106.036C12.376 105.315 13.3694 104.918 14.4123 104.918C15.4553 104.918 16.4486 105.315 17.2097 106.036C17.4991 106.31 17.8646 106.488 18.2574 106.547C19.133 106.678 19.9045 107.15 20.43 107.874C20.8628 108.471 21.5912 108.772 22.3152 108.654C22.4562 108.631 22.5749 108.62 22.6781 108.62C23.9187 108.62 24.9284 109.637 24.9284 110.887C24.9284 112.137 23.919 113.154 22.6781 113.154H6.14657C4.90593 113.154 3.89622 112.137 3.89622 110.887C3.89622 109.637 4.90593 108.62 6.14683 108.62V108.62ZM3.89648 117.08H24.9284V121.614H22.9407C21.8647 121.614 20.9924 122.493 20.9924 123.577V130.074H3.89648V117.08ZM24.8889 125.54H108.111V130.074H24.8889V125.54ZM112.008 130.074V123.577C112.008 122.493 111.135 121.614 110.059 121.614H108.072V117.08H129.104V130.074H112.008ZM110.322 108.62C110.425 108.62 110.544 108.631 110.685 108.654C111.409 108.772 112.137 108.471 112.57 107.874C113.095 107.15 113.867 106.678 114.742 106.547C115.135 106.488 115.501 106.31 115.79 106.036C116.551 105.315 117.544 104.918 118.587 104.918C119.63 104.918 120.624 105.315 121.385 106.036C121.674 106.31 122.04 106.488 122.432 106.547C123.308 106.678 124.08 107.15 124.605 107.874C125.037 108.471 125.766 108.772 126.49 108.654C126.631 108.631 126.75 108.62 126.853 108.62C128.094 108.62 129.103 109.637 129.103 110.887C129.103 112.137 128.094 113.154 126.853 113.154H110.321C109.081 113.154 108.071 112.137 108.071 110.887C108.071 109.637 109.081 108.62 110.322 108.62ZM120.707 76.8943V89.6245H108.072V76.8943H120.707Z" fill="white" fill-opacity="0.2"/>
</g>
</g>
<defs>
<clipPath id="clip0_415_1783">
<rect width="238" height="197" fill="white" transform="translate(-132 -32)"/>
</clipPath>
</defs>
</svg>
