<svg width="24" height="24" viewBox="0 0 24 24" fill="none" xmlns="http://www.w3.org/2000/svg">
<path d="M0 3.84C0 1.71923 1.71923 0 3.84 0H20.16C22.2808 0 24 1.71923 24 3.84V20.16C24 22.2808 22.2808 24 20.16 24H3.84C1.71923 24 0 22.2808 0 20.16V3.84Z" fill="#EFCC00"/>
<path fill-rule="evenodd" clip-rule="evenodd" d="M20.16 0.972973H3.84C2.25659 0.972973 0.972973 2.25659 0.972973 3.84V20.16C0.972973 21.7434 2.25659 23.027 3.84 23.027H20.16C21.7434 23.027 23.027 21.7434 23.027 20.16V3.84C23.027 2.25659 21.7434 0.972973 20.16 0.972973ZM3.84 0C1.71923 0 0 1.71923 0 3.84V20.16C0 22.2808 1.71923 24 3.84 24H20.16C22.2808 24 24 22.2808 24 20.16V3.84C24 1.71923 22.2808 0 20.16 0H3.84Z" fill="#4F4000"/>
<path fill-rule="evenodd" clip-rule="evenodd" d="M5.83842 0.972656H4.2168V2.59428H5.83842V4.2159H4.2168V6.48617H5.83842V8.10779H4.2168V10.3781H5.83842V11.9997H4.2168V14.27H5.83842V15.8916H4.2168V18.1618H5.83842V19.7835H4.2168V22.0537H5.83842V23.0267H7.46004V21.7294H5.83842V20.1078H7.46004V17.8375H5.83842V16.2159H7.46004V13.9456H5.83842V12.324H7.46004V10.0537H5.83842V8.43212H7.46004V6.16185H5.83842V4.54022H7.46004V2.26995H5.83842V0.972656Z" fill="#4F4000"/>
<path d="M9.4043 20.7567H13.9095V19.6878H11.0602L13.7754 16.0617V15.2499H9.53838V16.3188H12.1195L9.4043 19.9449V20.7567Z" fill="#4F4000"/>
<path d="M14.5423 15.2432V20.7567H15.7625V15.2432H14.5423Z" fill="#4F4000"/>
<path d="M16.729 20.7567H17.9492V19.2887H18.8274C20.2487 19.2887 21.08 18.4904 21.08 17.2591C21.08 16.0414 20.2487 15.2432 18.8274 15.2432H16.729V20.7567ZM17.9492 18.1995V16.3323H18.7738C19.4509 16.3323 19.8598 16.6503 19.8598 17.2591C19.8598 17.8748 19.4509 18.1995 18.7738 18.1995H17.9492Z" fill="#4F4000"/>
</svg>
