<svg width="285" height="183" viewBox="0 0 285 183" fill="none" xmlns="http://www.w3.org/2000/svg">
<rect width="285" height="183" fill="#ECF0F1"/>
<path d="M102.754 99H100.246L92.7 87.582V99H90.192V83.688H92.7L100.246 95.084V83.688H102.754V99ZM113.021 99.154C111.599 99.154 110.286 98.824 109.083 98.164C107.895 97.4893 106.949 96.558 106.245 95.37C105.556 94.1673 105.211 92.818 105.211 91.322C105.211 89.826 105.556 88.484 106.245 87.296C106.949 86.108 107.895 85.184 109.083 84.524C110.286 83.8493 111.599 83.512 113.021 83.512C114.459 83.512 115.771 83.8493 116.959 84.524C118.162 85.184 119.108 86.108 119.797 87.296C120.487 88.484 120.831 89.826 120.831 91.322C120.831 92.818 120.487 94.1673 119.797 95.37C119.108 96.558 118.162 97.4893 116.959 98.164C115.771 98.824 114.459 99.154 113.021 99.154ZM113.021 96.976C114.033 96.976 114.935 96.7487 115.727 96.294C116.519 95.8247 117.135 95.1647 117.575 94.314C118.03 93.4487 118.257 92.4513 118.257 91.322C118.257 90.1927 118.03 89.2027 117.575 88.352C117.135 87.5013 116.519 86.8487 115.727 86.394C114.935 85.9393 114.033 85.712 113.021 85.712C112.009 85.712 111.107 85.9393 110.315 86.394C109.523 86.8487 108.9 87.5013 108.445 88.352C108.005 89.2027 107.785 90.1927 107.785 91.322C107.785 92.4513 108.005 93.4487 108.445 94.314C108.9 95.1647 109.523 95.8247 110.315 96.294C111.107 96.7487 112.009 96.976 113.021 96.976ZM131.522 83.71V99H129.014V83.71H131.522ZM150.919 83.71V99H148.411V88.528L143.747 99H142.009L137.323 88.528V99H134.815V83.71H137.521L142.889 95.7L148.235 83.71H150.919ZM163.433 95.876H157.031L155.931 99H153.313L158.791 83.688H161.695L167.173 99H164.533L163.433 95.876ZM162.729 93.83L160.243 86.724L157.735 93.83H162.729ZM180.621 88.11C180.225 87.3473 179.675 86.7753 178.971 86.394C178.267 85.998 177.453 85.8 176.529 85.8C175.517 85.8 174.615 86.0273 173.823 86.482C173.031 86.9367 172.408 87.582 171.953 88.418C171.513 89.254 171.293 90.222 171.293 91.322C171.293 92.422 171.513 93.3973 171.953 94.248C172.408 95.084 173.031 95.7293 173.823 96.184C174.615 96.6387 175.517 96.866 176.529 96.866C177.893 96.866 179.001 96.4847 179.851 95.722C180.702 94.9593 181.223 93.9253 181.413 92.62H175.671V90.618H184.097V92.576C183.936 93.764 183.511 94.8567 182.821 95.854C182.147 96.8513 181.259 97.6507 180.159 98.252C179.074 98.8387 177.864 99.132 176.529 99.132C175.092 99.132 173.779 98.802 172.591 98.142C171.403 97.4673 170.457 96.536 169.753 95.348C169.064 94.16 168.719 92.818 168.719 91.322C168.719 89.826 169.064 88.484 169.753 87.296C170.457 86.108 171.403 85.184 172.591 84.524C173.794 83.8493 175.107 83.512 176.529 83.512C178.157 83.512 179.602 83.9153 180.863 84.722C182.139 85.514 183.063 86.6433 183.635 88.11H180.621ZM189.079 85.734V90.222H194.359V92.268H189.079V96.954H195.019V99H186.571V83.688H195.019V85.734H189.079Z" fill="#B1C5CD"/>
</svg>
