<svg width="262" height="262" viewBox="0 0 262 262" fill="none" xmlns="http://www.w3.org/2000/svg">
<g opacity="0.12" clip-path="url(#clip0)">
<path d="M181.872 262.02C187.791 262.005 192.971 258.04 194.532 252.331L206.604 207.261L252.321 195.039C259.287 193.145 263.412 185.979 261.555 179.004L237.851 90.6568L239.728 83.6727C241.424 77.2401 238.027 70.5577 231.83 68.1358L221.157 28.2933C219.247 21.3332 212.099 17.2027 205.115 19.0211L127.148 39.9355L61.7716 22.4083C59.0918 21.6729 56.2462 21.8268 53.6624 22.8459L37.3302 6.54165C31.8248 0.98633 23.7696 -1.19983 16.2119 0.812477C8.65431 2.82478 2.75129 8.72581 0.736982 16.2834C-1.27732 23.8411 0.904841 31.8983 6.45816 37.4037L36.2271 67.1726L0.56113 200.316C-1.3053 207.299 2.82322 214.475 9.79735 216.373L178.473 261.567C179.58 261.869 180.723 262.022 181.872 262.02V262.02ZM253.108 181.261C253.726 183.577 252.361 185.959 250.051 186.596L209.217 197.509L233.319 107.535L253.108 181.261ZM207.349 27.464C208.474 27.1563 209.675 27.3122 210.684 27.8957C211.693 28.4772 212.427 29.4404 212.722 30.5674L222.035 65.3521L144.012 44.4497L207.349 27.464ZM132.264 132.364L110.225 125.018L124.918 110.31L132.264 132.348V132.364ZM114.497 108.408L77.4564 71.3631C75.7518 69.6585 72.9861 69.6585 71.2816 71.3651C69.577 73.0696 69.579 75.8353 71.2856 77.5399L108.328 114.575L102.158 120.753L40.4176 59.0135L46.5904 52.8407L58.934 65.1903C60.039 66.2933 61.6457 66.725 63.1544 66.3193C64.6611 65.9157 65.8381 64.7386 66.2418 63.2319C66.6455 61.7252 66.2158 60.1165 65.1128 59.0135L52.7672 46.6679L58.94 40.4911L120.67 102.231L114.497 108.408ZM28.068 46.6679L46.5904 28.1455L52.7632 34.3183L34.2448 52.8407L28.068 46.6679ZM8.79819 21.9727C8.79819 16.6751 11.9895 11.8971 16.8834 9.87085C21.7793 7.84455 27.4125 8.96561 31.1574 12.7125L40.4176 21.9727L21.8952 40.4951L12.631 31.2309C10.169 28.7809 8.7882 25.4477 8.79819 21.9727ZM9.00002 202.609L43.3631 74.3086L99.0662 130.012C99.5218 130.457 100.069 130.795 100.673 131.003C100.707 131.003 100.733 131.051 100.773 131.063L129.528 140.667C130.426 140.962 131.367 141.108 132.312 141.104C133.957 141.098 135.565 140.625 136.948 139.737L187.15 153.218C187.52 153.32 187.901 153.372 188.285 153.37C190.477 153.37 192.328 151.745 192.611 149.573C192.897 147.401 191.528 145.355 189.412 144.789L140.957 131.78C140.913 131.039 140.779 130.305 140.555 129.596L130.951 100.838C130.951 100.798 130.903 100.772 130.885 100.732C130.678 100.135 130.34 99.5893 129.898 99.1357L62.427 31.6365L228.185 76.0371C229.306 76.3369 230.262 77.0683 230.841 78.0734C231.421 79.0766 231.577 80.2696 231.277 81.3906L186.103 250.047C185.805 251.168 185.072 252.125 184.067 252.704C183.061 253.284 181.866 253.44 180.747 253.138L12.0894 207.96C10.9704 207.66 10.0152 206.929 9.43366 205.926C8.85415 204.921 8.69828 203.728 9.00002 202.609Z" fill="white"/>
<path d="M201.853 102.754C204.044 102.752 205.894 101.127 206.18 98.9551C206.463 96.785 205.095 94.7367 202.98 94.1712L140.891 77.5352C139.368 77.0816 137.721 77.4912 136.588 78.6043C135.455 79.7153 135.016 81.356 135.439 82.8847C135.863 84.4154 137.086 85.5944 138.629 85.9641L200.722 102.604C201.092 102.704 201.472 102.754 201.853 102.754V102.754Z" fill="white"/>
<path d="M195.068 128.051C197.259 128.049 199.109 126.426 199.395 124.254C199.681 122.082 198.312 120.035 196.196 119.468L153.981 108.175C152.464 107.744 150.834 108.161 149.713 109.272C148.592 110.381 148.158 112.01 148.576 113.531C148.993 115.052 150.198 116.229 151.729 116.608L193.943 127.903C194.309 128.001 194.689 128.051 195.068 128.051V128.051Z" fill="white"/>
<path d="M60.3677 137.305L47.7084 133.914C46.1897 133.47 44.549 133.882 43.422 134.993C42.2949 136.102 41.8553 137.734 42.275 139.261C42.6946 140.786 43.9056 141.965 45.4423 142.343L58.1016 145.74C58.4733 145.838 58.853 145.888 59.2367 145.888C61.4288 145.89 63.2813 144.265 63.567 142.093C63.8528 139.921 62.4839 137.872 60.3677 137.305Z" fill="white"/>
<path d="M185.733 175.41C186.356 173.082 184.973 170.692 182.647 170.067L85.6609 144.085C83.4107 143.645 81.2046 145.024 80.6091 147.238C80.0156 149.452 81.2366 151.75 83.4048 152.496L180.385 178.48C180.755 178.582 181.134 178.632 181.516 178.632C183.488 178.634 185.217 177.313 185.733 175.41Z" fill="white"/>
<path d="M53.5831 162.604L40.9237 159.21C38.5997 158.601 36.2197 159.984 35.5982 162.304C34.9767 164.626 36.3496 167.014 38.6676 167.645L51.327 171.032C51.6947 171.134 52.0743 171.186 52.458 171.184C54.6482 171.186 56.5006 169.562 56.7864 167.389C57.0741 165.217 55.7053 163.169 53.5871 162.604H53.5831Z" fill="white"/>
<path d="M175.865 195.37L78.8848 169.382C77.3621 168.93 75.7155 169.34 74.5825 170.451C73.4494 171.564 73.0098 173.202 73.4334 174.733C73.8571 176.262 75.08 177.441 76.6227 177.813L173.605 203.799C173.975 203.901 174.356 203.952 174.74 203.952C176.93 203.95 178.781 202.326 179.066 200.154C179.35 197.982 177.981 195.935 175.865 195.37V195.37Z" fill="white"/>
</g>
<defs>
<clipPath id="clip0">
<rect width="262" height="262" fill="white"/>
</clipPath>
</defs>
</svg>
