<svg width="34" height="34" viewBox="0 0 34 34" fill="none" xmlns="http://www.w3.org/2000/svg">
<path d="M19.252 24.032H22.18L19.812 21.216C21.156 20.176 21.956 18.416 21.956 16.032C21.956 12.192 19.796 9.936 16.66 9.936C13.524 9.936 11.364 12.176 11.364 16.032C11.364 19.872 13.524 22.224 16.66 22.224C17.028 22.224 17.38 22.176 17.748 22.112L19.252 24.032ZM16.66 20.176C14.9 20.176 13.78 18.544 13.78 16.032C13.78 13.456 14.852 11.968 16.66 11.968C18.468 11.968 19.54 13.456 19.54 16.032C19.54 18.544 18.42 20.176 16.66 20.176Z" fill="white"/>
</svg>
