<svg width="222" height="45" viewBox="0 0 222 45" fill="none" xmlns="http://www.w3.org/2000/svg">
<path d="M11.552 3.08V17.648H0.776V3.08H11.552ZM8.528 5.648H3.8V15.08H8.528V5.648ZM17.408 8.984H20.48V11.624H17.408V23.456H14.36V1.136H17.408V8.984ZM26.9638 11.264V7.112H29.9878V11.264H40.3078V13.808H19.8597V11.264H26.9638ZM22.5237 15.8H37.5478V23.72H34.5238V18.344H22.5237V15.8ZM37.4038 1.952V5.24C37.4038 5.512 37.3878 5.848 37.3558 6.248C37.3398 6.632 37.3078 7.048 37.2597 7.496C37.2118 7.944 37.1558 8.392 37.0918 8.84C37.0278 9.288 36.9558 9.696 36.8758 10.064L33.9237 9.728C34.0998 8.88 34.2198 8.088 34.2838 7.352C34.3478 6.616 34.3797 5.944 34.3797 5.336V4.52H22.5237V1.952H37.4038ZM49.6715 18.032C47.9755 18.032 46.7195 17.488 45.9035 16.4C45.1035 15.312 44.7035 13.752 44.7035 11.72V9.128C44.7035 7.096 45.1035 5.536 45.9035 4.448C46.7195 3.36 47.9755 2.816 49.6715 2.816C51.3675 2.816 52.6155 3.36 53.4155 4.448C54.2155 5.536 54.6235 7.088 54.6395 9.104H56.4155V1.592H59.2955V22.376H56.4155V11.72H54.6395C54.6395 13.752 54.2315 15.312 53.4155 16.4C52.6155 17.488 51.3675 18.032 49.6715 18.032ZM63.8075 23.456H60.9275V1.136H63.8075V23.456ZM49.6715 5.456C48.8395 5.456 48.2635 5.8 47.9435 6.488C47.6395 7.16 47.4875 8.152 47.4875 9.464V11.384C47.4875 12.696 47.6395 13.696 47.9435 14.384C48.2635 15.056 48.8395 15.392 49.6715 15.392C50.5035 15.392 51.0715 15.056 51.3755 14.384C51.6955 13.696 51.8555 12.696 51.8555 11.384V9.464C51.8555 8.152 51.6955 7.16 51.3755 6.488C51.0715 5.8 50.5035 5.456 49.6715 5.456ZM74.3472 7.496H80.2992V1.136H83.3472V23.456H80.2992V10.136H74.3472V7.496ZM69.0192 14.912H70.6512C71.8032 14.912 73.0352 14.872 74.3472 14.792C75.6592 14.712 76.8832 14.592 78.0192 14.432L78.3552 17.048C77.7952 17.144 77.1792 17.224 76.5072 17.288C75.8352 17.352 75.1312 17.408 74.3952 17.456C73.6592 17.488 72.9152 17.512 72.1632 17.528C71.4112 17.544 70.6672 17.552 69.9312 17.552H65.9472V2.936H69.0192V14.912ZM85.751 3.056H97.655V5.648H93.335V8.192C93.335 8.656 93.359 9.08 93.407 9.464C93.455 9.832 93.535 10.184 93.647 10.52C93.775 10.856 93.951 11.192 94.175 11.528C94.399 11.864 94.695 12.224 95.063 12.608C95.575 13.168 96.127 13.744 96.719 14.336C97.327 14.928 97.935 15.496 98.543 16.04L96.599 18.056C96.087 17.576 95.575 17.088 95.063 16.592C94.551 16.08 94.071 15.592 93.623 15.128C93.159 14.664 92.767 14.248 92.447 13.88C92.127 13.496 91.927 13.208 91.847 13.016H91.799C91.687 13.24 91.455 13.56 91.103 13.976C90.751 14.392 90.375 14.808 89.975 15.224C89.527 15.688 89.063 16.168 88.583 16.664C88.103 17.144 87.527 17.688 86.855 18.296L84.863 16.256C86.175 15.088 87.359 13.928 88.415 12.776C88.767 12.376 89.063 12.008 89.303 11.672C89.543 11.336 89.735 10.992 89.879 10.64C90.023 10.288 90.119 9.92 90.167 9.536C90.231 9.136 90.263 8.688 90.263 8.192V5.648H85.751V3.056ZM103.463 23.456H100.415V1.136H103.463V23.456ZM126.579 4.136H114.939V5.336H126.387V7.664H114.939V8.864H126.819V11.24H120.891V12.656H129.603V15.056H109.155V12.656H117.867V11.24H111.963V1.76H126.579V4.136ZM119.379 24.152C118.387 24.152 117.451 24.08 116.571 23.936C115.707 23.792 114.947 23.56 114.291 23.24C113.651 22.936 113.139 22.544 112.755 22.064C112.371 21.584 112.179 21.016 112.179 20.36V19.688C112.179 19.032 112.371 18.464 112.755 17.984C113.139 17.504 113.651 17.112 114.291 16.808C114.947 16.488 115.707 16.256 116.571 16.112C117.451 15.968 118.387 15.896 119.379 15.896C120.355 15.896 121.283 15.968 122.163 16.112C123.043 16.256 123.803 16.488 124.443 16.808C125.099 17.112 125.619 17.504 126.003 17.984C126.387 18.464 126.579 19.032 126.579 19.688V20.36C126.579 21.016 126.387 21.584 126.003 22.064C125.619 22.544 125.099 22.936 124.443 23.24C123.803 23.56 123.043 23.792 122.163 23.936C121.283 24.08 120.355 24.152 119.379 24.152ZM119.379 18.296C118.851 18.296 118.331 18.336 117.819 18.416C117.307 18.48 116.851 18.584 116.451 18.728C116.067 18.856 115.755 19.016 115.515 19.208C115.275 19.4 115.155 19.624 115.155 19.88V20.168C115.155 20.424 115.275 20.648 115.515 20.84C115.755 21.048 116.067 21.216 116.451 21.344C116.851 21.472 117.307 21.568 117.819 21.632C118.331 21.712 118.851 21.752 119.379 21.752C119.907 21.752 120.427 21.712 120.939 21.632C121.451 21.568 121.899 21.472 122.283 21.344C122.683 21.216 123.003 21.048 123.243 20.84C123.483 20.648 123.603 20.424 123.603 20.168V19.88C123.603 19.624 123.483 19.4 123.243 19.208C123.003 19.016 122.683 18.856 122.283 18.728C121.899 18.584 121.451 18.48 120.939 18.416C120.427 18.336 119.907 18.296 119.379 18.296ZM147.03 14.912V23.504H133.158V14.912H136.134V16.808H144.054V14.912H147.03ZM144.054 21.056V19.256H136.134V21.056H144.054ZM147.03 6.224H149.958V8.864H147.03V13.904H144.006V1.136H147.03V6.224ZM137.502 3.224H142.326V5.72H129.558V3.224H134.478V0.823999H137.502V3.224ZM135.99 14.072C135.142 14.072 134.382 13.984 133.71 13.808C133.054 13.632 132.502 13.392 132.054 13.088C131.606 12.768 131.262 12.4 131.022 11.984C130.798 11.552 130.686 11.088 130.686 10.592V9.872C130.686 9.376 130.798 8.92 131.022 8.504C131.262 8.072 131.606 7.704 132.054 7.4C132.502 7.08 133.054 6.832 133.71 6.656C134.382 6.48 135.142 6.392 135.99 6.392C136.838 6.392 137.59 6.48 138.246 6.656C138.918 6.832 139.478 7.08 139.926 7.4C140.374 7.704 140.71 8.072 140.934 8.504C141.174 8.92 141.294 9.376 141.294 9.872V10.592C141.294 11.088 141.174 11.552 140.934 11.984C140.71 12.4 140.374 12.768 139.926 13.088C139.478 13.392 138.918 13.632 138.246 13.808C137.59 13.984 136.838 14.072 135.99 14.072ZM135.99 8.72C135.174 8.72 134.558 8.856 134.142 9.128C133.742 9.384 133.542 9.68 133.542 10.016V10.448C133.542 10.784 133.742 11.088 134.142 11.36C134.558 11.616 135.174 11.744 135.99 11.744C136.806 11.744 137.414 11.616 137.814 11.36C138.23 11.088 138.438 10.784 138.438 10.448V10.016C138.438 9.68 138.23 9.384 137.814 9.128C137.414 8.856 136.806 8.72 135.99 8.72ZM171.394 14.384V20.096H159.538V21.368H172.042V23.648H156.61V17.912H168.466V16.664H156.49V14.384H171.394ZM174.25 10.712V13.04H153.802V10.712H174.25ZM171.778 1.664V3.968H169.21V7.088H171.922V9.392H156.13V7.088H158.842V3.968H156.274V1.664H171.778ZM161.794 7.088H166.258V3.968H161.794V7.088ZM188.246 6.416H190.094V1.136H192.974V15.824H190.094V9.032H188.246V13.736H185.39V1.424H188.246V6.416ZM180.302 6.92V4.832H174.518V2.408H183.134V9.272H177.35V11.36C178.518 11.36 179.694 11.336 180.878 11.288C182.062 11.24 183.158 11.152 184.166 11.024L184.454 13.4C183.446 13.544 182.142 13.648 180.542 13.712C178.942 13.76 176.934 13.784 174.518 13.784V6.92H180.302ZM185.174 19.784C185.094 20.008 184.846 20.256 184.43 20.528C184.03 20.8 183.502 21.104 182.846 21.44C182.078 21.84 181.27 22.232 180.422 22.616C179.574 23.016 178.742 23.384 177.926 23.72L176.726 21.224C177.622 20.856 178.534 20.464 179.462 20.048C180.39 19.632 181.206 19.24 181.91 18.872C182.47 18.568 182.886 18.216 183.158 17.816C183.43 17.416 183.566 16.912 183.566 16.304V14.792H186.638V16.304C186.638 16.912 186.758 17.416 186.998 17.816C187.254 18.2 187.678 18.552 188.27 18.872C188.606 19.048 188.99 19.24 189.422 19.448C189.854 19.656 190.294 19.864 190.742 20.072C191.206 20.28 191.67 20.48 192.134 20.672C192.614 20.88 193.062 21.064 193.478 21.224L192.302 23.648C191.422 23.264 190.574 22.88 189.758 22.496C188.958 22.128 188.174 21.752 187.406 21.368C186.782 21.048 186.278 20.752 185.894 20.48C185.51 20.224 185.278 19.992 185.198 19.784H185.174ZM212.106 1.856V4.232H209.538V7.712H212.25V10.088H205.866V11.768H214.578V14.216H194.13V11.768H202.842V10.088H196.458V7.712H199.17V4.232H196.602V1.856H212.106ZM196.986 15.704H211.722V23.456H196.986V15.704ZM199.986 21.032H208.722V18.128H199.986V21.032ZM202.146 7.712H206.562V4.232H202.146V7.712Z" fill="url(#paint0_linear_926_21)"/>
<path d="M1.982 34.084C1.93533 33.9813 1.89333 33.8833 1.856 33.79C1.81867 33.6873 1.78133 33.5847 1.744 33.482C1.70667 33.3793 1.66467 33.2627 1.618 33.132C1.57133 33.0013 1.52 32.852 1.464 32.684V41.364H0.148V31.27H2.192L4.992 37.878L7.722 31.27H9.752V41.364H8.422V32.684C8.37533 32.8707 8.32867 33.0293 8.282 33.16C8.24467 33.2813 8.20733 33.3933 8.17 33.496C8.142 33.5987 8.10933 33.6967 8.072 33.79C8.03467 33.8833 7.99267 33.9813 7.946 34.084L5.538 39.684H4.362L1.982 34.084ZM13.8345 41.476C13.0599 41.476 12.4439 41.2847 11.9865 40.902C11.5385 40.5193 11.3145 39.992 11.3145 39.32V38.942C11.3145 38.2887 11.5339 37.7567 11.9725 37.346C12.4112 36.9353 13.1205 36.73 14.1005 36.73H16.0465V36.282C16.0465 35.7687 15.9205 35.3907 15.6685 35.148C15.4259 34.896 15.0245 34.77 14.4645 34.77C14.0165 34.77 13.6245 34.84 13.2885 34.98C12.9619 35.12 12.6212 35.3067 12.2665 35.54L11.5945 34.532C11.9679 34.2707 12.3879 34.0467 12.8545 33.86C13.3212 33.664 13.8625 33.566 14.4785 33.566C14.9079 33.566 15.2999 33.622 15.6545 33.734C16.0092 33.8367 16.3125 33.9953 16.5645 34.21C16.8259 34.4153 17.0265 34.672 17.1665 34.98C17.3159 35.2787 17.3905 35.6193 17.3905 36.002V41.364H16.0885V40.44H16.0745C15.9999 40.58 15.8972 40.7107 15.7665 40.832C15.6452 40.944 15.5099 41.042 15.3605 41.126C15.1552 41.238 14.9312 41.322 14.6885 41.378C14.4552 41.4433 14.1705 41.476 13.8345 41.476ZM16.0465 37.878H14.1285C13.5965 37.878 13.2139 37.9807 12.9805 38.186C12.7565 38.3913 12.6445 38.676 12.6445 39.04V39.236C12.6445 39.6093 12.7752 39.88 13.0365 40.048C13.2979 40.216 13.6105 40.3 13.9745 40.3C14.3105 40.3 14.5999 40.2627 14.8425 40.188C15.0945 40.104 15.3232 39.9827 15.5285 39.824C15.7152 39.684 15.8459 39.5253 15.9205 39.348C16.0045 39.1613 16.0465 38.9233 16.0465 38.634V37.878ZM25.3111 41.266C25.3111 43.4127 24.1725 44.486 21.8951 44.486C21.3725 44.486 20.8965 44.4113 20.4671 44.262C20.0378 44.1127 19.6645 43.9167 19.3471 43.674L19.9631 42.61C20.2151 42.7967 20.5091 42.9507 20.8451 43.072C21.1905 43.1933 21.5545 43.254 21.9371 43.254C22.5998 43.254 23.0991 43.0907 23.4351 42.764C23.7805 42.4467 23.9531 41.9473 23.9531 41.266V40.328C23.7385 40.692 23.4351 40.9487 23.0431 41.098C22.6511 41.2567 22.2218 41.336 21.7551 41.336C20.7845 41.336 20.0425 41.056 19.5291 40.496C19.0251 39.9267 18.7731 39.1193 18.7731 38.074V36.856C18.7731 36.3427 18.8478 35.8807 18.9971 35.47C19.1465 35.0593 19.3518 34.714 19.6131 34.434C19.8838 34.154 20.2058 33.9393 20.5791 33.79C20.9525 33.6407 21.3631 33.566 21.8111 33.566C22.3991 33.566 22.8611 33.6687 23.1971 33.874C23.5425 34.07 23.7945 34.28 23.9531 34.504V33.706H25.3111V41.266ZM23.9671 36.38C23.9671 36.184 23.9158 35.988 23.8131 35.792C23.7198 35.596 23.5798 35.4233 23.3931 35.274C23.2158 35.1153 23.0011 34.9893 22.7491 34.896C22.5065 34.8027 22.2405 34.756 21.9511 34.756C21.3725 34.756 20.9198 34.9567 20.5931 35.358C20.2758 35.7593 20.1171 36.324 20.1171 37.052V37.85C20.1171 38.578 20.2805 39.1427 20.6071 39.544C20.9338 39.9453 21.3818 40.146 21.9511 40.146C22.2311 40.146 22.4925 40.104 22.7351 40.02C22.9778 39.9267 23.1878 39.796 23.3651 39.628C23.5518 39.46 23.6965 39.2593 23.7991 39.026C23.9111 38.7833 23.9671 38.5127 23.9671 38.214V36.38ZM30.235 33.566C31.2897 33.566 32.1203 33.8693 32.727 34.476C33.343 35.0827 33.651 35.9413 33.651 37.052V37.99C33.651 39.1007 33.343 39.9593 32.727 40.566C32.1203 41.1727 31.2897 41.476 30.235 41.476C29.1803 41.476 28.345 41.1727 27.729 40.566C27.1223 39.9593 26.819 39.1007 26.819 37.99V37.052C26.819 35.932 27.1223 35.0733 27.729 34.476C28.345 33.8693 29.1803 33.566 30.235 33.566ZM30.235 40.286C30.8417 40.286 31.3317 40.09 31.705 39.698C32.0877 39.2967 32.279 38.69 32.279 37.878V37.164C32.279 36.352 32.0877 35.75 31.705 35.358C31.3317 34.9567 30.8417 34.756 30.235 34.756C29.6283 34.756 29.1337 34.9567 28.751 35.358C28.3777 35.75 28.191 36.352 28.191 37.164V37.878C28.191 38.69 28.3777 39.2967 28.751 39.698C29.1337 40.09 29.6283 40.286 30.235 40.286ZM38.5215 36.772L41.7275 41.364H40.0195L37.5835 37.724L36.5195 38.802V41.364H35.1615V30.78H36.5195V37.15L39.7955 33.706H41.5455L38.5215 36.772ZM52.2911 31.27V32.46H47.3911V35.596H51.9971V36.786H47.3911V40.174H52.3891V41.364H46.0051V31.27H52.2911ZM60.3503 41.364H58.9923V36.604C58.9923 35.96 58.857 35.4933 58.5863 35.204C58.3156 34.9147 57.8956 34.77 57.3263 34.77C57.093 34.77 56.8596 34.812 56.6263 34.896C56.4023 34.9707 56.197 35.0873 56.0103 35.246C55.833 35.3953 55.6836 35.5867 55.5623 35.82C55.4503 36.0533 55.3943 36.3193 55.3943 36.618V41.364H54.0363V33.706H55.3523V34.672H55.3663C55.5996 34.3173 55.9076 34.0467 56.2903 33.86C56.673 33.664 57.1303 33.566 57.6623 33.566C58.0356 33.566 58.3856 33.622 58.7123 33.734C59.039 33.846 59.3236 34.014 59.5663 34.238C59.809 34.462 60.0003 34.7467 60.1403 35.092C60.2803 35.4373 60.3503 35.8387 60.3503 36.296V41.364ZM65.0352 34.728C64.7552 34.728 64.4938 34.7793 64.2512 34.882C64.0178 34.9753 63.8125 35.1107 63.6352 35.288C63.4672 35.456 63.3318 35.666 63.2292 35.918C63.1358 36.1607 63.0892 36.4267 63.0892 36.716V36.912H66.9252V36.66C66.9252 36.072 66.7572 35.6053 66.4212 35.26C66.0852 34.9053 65.6232 34.728 65.0352 34.728ZM68.0592 40.636C67.7232 40.8693 67.3218 41.0653 66.8552 41.224C66.3885 41.392 65.8052 41.476 65.1052 41.476C64.6292 41.476 64.1858 41.406 63.7752 41.266C63.3738 41.1353 63.0192 40.93 62.7112 40.65C62.4125 40.3607 62.1745 39.992 61.9972 39.544C61.8292 39.096 61.7452 38.564 61.7452 37.948V37.08C61.7452 36.5013 61.8245 35.9927 61.9832 35.554C62.1512 35.1153 62.3798 34.7513 62.6692 34.462C62.9678 34.1633 63.3178 33.9393 63.7192 33.79C64.1205 33.6407 64.5592 33.566 65.0352 33.566C66.0152 33.566 66.7945 33.8647 67.3732 34.462C67.9518 35.0593 68.2412 35.904 68.2412 36.996V38.018H63.0892V38.074C63.0892 38.802 63.2805 39.3573 63.6632 39.74C64.0458 40.1133 64.5452 40.3 65.1612 40.3C65.6652 40.3 66.0945 40.2393 66.4492 40.118C66.8132 39.9967 67.1585 39.8287 67.4852 39.614L68.0592 40.636ZM73.8905 35.036C73.7598 34.98 73.6152 34.938 73.4565 34.91C73.3072 34.8727 73.1392 34.854 72.9525 34.854C72.7005 34.854 72.4578 34.9053 72.2245 35.008C72.0005 35.1013 71.8045 35.2413 71.6365 35.428C71.4685 35.6053 71.3332 35.82 71.2305 36.072C71.1278 36.324 71.0765 36.5993 71.0765 36.898V41.364H69.7185V33.706H71.0345V34.924H71.0485C71.2725 34.4947 71.5618 34.1633 71.9165 33.93C72.2805 33.6873 72.7425 33.566 73.3025 33.566C73.6385 33.566 73.9698 33.6173 74.2965 33.72L73.8905 35.036ZM81.3954 41.266C81.3954 43.4127 80.2567 44.486 77.9794 44.486C77.4567 44.486 76.9807 44.4113 76.5514 44.262C76.122 44.1127 75.7487 43.9167 75.4314 43.674L76.0474 42.61C76.2994 42.7967 76.5934 42.9507 76.9294 43.072C77.2747 43.1933 77.6387 43.254 78.0214 43.254C78.684 43.254 79.1834 43.0907 79.5194 42.764C79.8647 42.4467 80.0374 41.9473 80.0374 41.266V40.328C79.8227 40.692 79.5194 40.9487 79.1274 41.098C78.7354 41.2567 78.306 41.336 77.8394 41.336C76.8687 41.336 76.1267 41.056 75.6134 40.496C75.1094 39.9267 74.8574 39.1193 74.8574 38.074V36.856C74.8574 36.3427 74.932 35.8807 75.0814 35.47C75.2307 35.0593 75.436 34.714 75.6974 34.434C75.968 34.154 76.29 33.9393 76.6634 33.79C77.0367 33.6407 77.4474 33.566 77.8954 33.566C78.4834 33.566 78.9454 33.6687 79.2814 33.874C79.6267 34.07 79.8787 34.28 80.0374 34.504V33.706H81.3954V41.266ZM80.0514 36.38C80.0514 36.184 80 35.988 79.8974 35.792C79.804 35.596 79.664 35.4233 79.4774 35.274C79.3 35.1153 79.0854 34.9893 78.8334 34.896C78.5907 34.8027 78.3247 34.756 78.0354 34.756C77.4567 34.756 77.004 34.9567 76.6774 35.358C76.36 35.7593 76.2014 36.324 76.2014 37.052V37.85C76.2014 38.578 76.3647 39.1427 76.6914 39.544C77.018 39.9453 77.466 40.146 78.0354 40.146C78.3154 40.146 78.5767 40.104 78.8194 40.02C79.062 39.9267 79.272 39.796 79.4494 39.628C79.636 39.46 79.7807 39.2593 79.8834 39.026C79.9954 38.7833 80.0514 38.5127 80.0514 38.214V36.38ZM85.9412 39.824L87.9572 33.706H89.3852L85.4092 44.528L84.1772 44.094L85.1712 41.476L82.3852 33.706H83.8552L85.8852 39.824H85.9412ZM95.0463 31.27V41.364H93.6603V31.27H95.0463ZM103.316 41.364H101.958V36.604C101.958 35.96 101.823 35.4933 101.552 35.204C101.281 34.9147 100.861 34.77 100.292 34.77C100.059 34.77 99.8254 34.812 99.5921 34.896C99.3681 34.9707 99.1627 35.0873 98.9761 35.246C98.7987 35.3953 98.6494 35.5867 98.5281 35.82C98.4161 36.0533 98.3601 36.3193 98.3601 36.618V41.364H97.0021V33.706H98.3181V34.672H98.3321C98.5654 34.3173 98.8734 34.0467 99.2561 33.86C99.6387 33.664 100.096 33.566 100.628 33.566C101.001 33.566 101.351 33.622 101.678 33.734C102.005 33.846 102.289 34.014 102.532 34.238C102.775 34.462 102.966 34.7467 103.106 35.092C103.246 35.4373 103.316 35.8387 103.316 36.296V41.364ZM105.579 34.868H104.319V33.706H105.579V31.774H106.937V33.706H108.953V34.868H106.937V39.222C106.937 39.4553 106.96 39.6467 107.007 39.796C107.054 39.936 107.119 40.0433 107.203 40.118C107.296 40.1927 107.404 40.244 107.525 40.272C107.646 40.3 107.777 40.314 107.917 40.314C108.253 40.314 108.589 40.2533 108.925 40.132L109.135 41.224C108.976 41.2893 108.766 41.3453 108.505 41.392C108.244 41.448 107.978 41.476 107.707 41.476C106.979 41.476 106.442 41.294 106.097 40.93C105.752 40.566 105.579 39.9967 105.579 39.222V34.868ZM113.162 34.728C112.882 34.728 112.621 34.7793 112.378 34.882C112.145 34.9753 111.94 35.1107 111.762 35.288C111.594 35.456 111.459 35.666 111.356 35.918C111.263 36.1607 111.216 36.4267 111.216 36.716V36.912H115.052V36.66C115.052 36.072 114.884 35.6053 114.548 35.26C114.212 34.9053 113.75 34.728 113.162 34.728ZM116.186 40.636C115.85 40.8693 115.449 41.0653 114.982 41.224C114.516 41.392 113.932 41.476 113.232 41.476C112.756 41.476 112.313 41.406 111.902 41.266C111.501 41.1353 111.146 40.93 110.838 40.65C110.54 40.3607 110.302 39.992 110.124 39.544C109.956 39.096 109.872 38.564 109.872 37.948V37.08C109.872 36.5013 109.952 35.9927 110.11 35.554C110.278 35.1153 110.507 34.7513 110.796 34.462C111.095 34.1633 111.445 33.9393 111.846 33.79C112.248 33.6407 112.686 33.566 113.162 33.566C114.142 33.566 114.922 33.8647 115.5 34.462C116.079 35.0593 116.368 35.904 116.368 36.996V38.018H111.216V38.074C111.216 38.802 111.408 39.3573 111.79 39.74C112.173 40.1133 112.672 40.3 113.288 40.3C113.792 40.3 114.222 40.2393 114.576 40.118C114.94 39.9967 115.286 39.8287 115.612 39.614L116.186 40.636ZM122.018 35.036C121.887 34.98 121.742 34.938 121.584 34.91C121.434 34.8727 121.266 34.854 121.08 34.854C120.828 34.854 120.585 34.9053 120.352 35.008C120.128 35.1013 119.932 35.2413 119.764 35.428C119.596 35.6053 119.46 35.82 119.358 36.072C119.255 36.324 119.204 36.5993 119.204 36.898V41.364H117.846V33.706H119.162V34.924H119.176C119.4 34.4947 119.689 34.1633 120.044 33.93C120.408 33.6873 120.87 33.566 121.43 33.566C121.766 33.566 122.097 33.6173 122.424 33.72L122.018 35.036ZM129.523 41.266C129.523 43.4127 128.384 44.486 126.107 44.486C125.584 44.486 125.108 44.4113 124.679 44.262C124.249 44.1127 123.876 43.9167 123.559 43.674L124.175 42.61C124.427 42.7967 124.721 42.9507 125.057 43.072C125.402 43.1933 125.766 43.254 126.149 43.254C126.811 43.254 127.311 43.0907 127.647 42.764C127.992 42.4467 128.165 41.9473 128.165 41.266V40.328C127.95 40.692 127.647 40.9487 127.255 41.098C126.863 41.2567 126.433 41.336 125.967 41.336C124.996 41.336 124.254 41.056 123.741 40.496C123.237 39.9267 122.985 39.1193 122.985 38.074V36.856C122.985 36.3427 123.059 35.8807 123.209 35.47C123.358 35.0593 123.563 34.714 123.825 34.434C124.095 34.154 124.417 33.9393 124.791 33.79C125.164 33.6407 125.575 33.566 126.023 33.566C126.611 33.566 127.073 33.6687 127.409 33.874C127.754 34.07 128.006 34.28 128.165 34.504V33.706H129.523V41.266ZM128.179 36.38C128.179 36.184 128.127 35.988 128.025 35.792C127.931 35.596 127.791 35.4233 127.605 35.274C127.427 35.1153 127.213 34.9893 126.961 34.896C126.718 34.8027 126.452 34.756 126.163 34.756C125.584 34.756 125.131 34.9567 124.805 35.358C124.487 35.7593 124.329 36.324 124.329 37.052V37.85C124.329 38.578 124.492 39.1427 124.819 39.544C125.145 39.9453 125.593 40.146 126.163 40.146C126.443 40.146 126.704 40.104 126.947 40.02C127.189 39.9267 127.399 39.796 127.577 39.628C127.763 39.46 127.908 39.2593 128.011 39.026C128.123 38.7833 128.179 38.5127 128.179 38.214V36.38ZM135.594 35.036C135.464 34.98 135.319 34.938 135.16 34.91C135.011 34.8727 134.843 34.854 134.656 34.854C134.404 34.854 134.162 34.9053 133.928 35.008C133.704 35.1013 133.508 35.2413 133.34 35.428C133.172 35.6053 133.037 35.82 132.934 36.072C132.832 36.324 132.78 36.5993 132.78 36.898V41.364H131.422V33.706H132.738V34.924H132.752C132.976 34.4947 133.266 34.1633 133.62 33.93C133.984 33.6873 134.446 33.566 135.006 33.566C135.342 33.566 135.674 33.6173 136 33.72L135.594 35.036ZM139.054 41.476C138.279 41.476 137.663 41.2847 137.206 40.902C136.758 40.5193 136.534 39.992 136.534 39.32V38.942C136.534 38.2887 136.753 37.7567 137.192 37.346C137.63 36.9353 138.34 36.73 139.32 36.73H141.266V36.282C141.266 35.7687 141.14 35.3907 140.888 35.148C140.645 34.896 140.244 34.77 139.684 34.77C139.236 34.77 138.844 34.84 138.508 34.98C138.181 35.12 137.84 35.3067 137.486 35.54L136.814 34.532C137.187 34.2707 137.607 34.0467 138.074 33.86C138.54 33.664 139.082 33.566 139.698 33.566C140.127 33.566 140.519 33.622 140.874 33.734C141.228 33.8367 141.532 33.9953 141.784 34.21C142.045 34.4153 142.246 34.672 142.386 34.98C142.535 35.2787 142.61 35.6193 142.61 36.002V41.364H141.308V40.44H141.294C141.219 40.58 141.116 40.7107 140.986 40.832C140.864 40.944 140.729 41.042 140.58 41.126C140.374 41.238 140.15 41.322 139.908 41.378C139.674 41.4433 139.39 41.476 139.054 41.476ZM141.266 37.878H139.348C138.816 37.878 138.433 37.9807 138.2 38.186C137.976 38.3913 137.864 38.676 137.864 39.04V39.236C137.864 39.6093 137.994 39.88 138.256 40.048C138.517 40.216 138.83 40.3 139.194 40.3C139.53 40.3 139.819 40.2627 140.062 40.188C140.314 40.104 140.542 39.9827 140.748 39.824C140.934 39.684 141.065 39.5253 141.14 39.348C141.224 39.1613 141.266 38.9233 141.266 38.634V37.878ZM144.846 34.868H143.586V33.706H144.846V31.774H146.204V33.706H148.22V34.868H146.204V39.222C146.204 39.4553 146.228 39.6467 146.274 39.796C146.321 39.936 146.386 40.0433 146.47 40.118C146.564 40.1927 146.671 40.244 146.792 40.272C146.914 40.3 147.044 40.314 147.184 40.314C147.52 40.314 147.856 40.2533 148.192 40.132L148.402 41.224C148.244 41.2893 148.034 41.3453 147.772 41.392C147.511 41.448 147.245 41.476 146.974 41.476C146.246 41.476 145.71 41.294 145.364 40.93C145.019 40.566 144.846 39.9967 144.846 39.222V34.868ZM152.43 34.728C152.15 34.728 151.888 34.7793 151.646 34.882C151.412 34.9753 151.207 35.1107 151.03 35.288C150.862 35.456 150.726 35.666 150.624 35.918C150.53 36.1607 150.484 36.4267 150.484 36.716V36.912H154.32V36.66C154.32 36.072 154.152 35.6053 153.816 35.26C153.48 34.9053 153.018 34.728 152.43 34.728ZM155.454 40.636C155.118 40.8693 154.716 41.0653 154.25 41.224C153.783 41.392 153.2 41.476 152.5 41.476C152.024 41.476 151.58 41.406 151.17 41.266C150.768 41.1353 150.414 40.93 150.106 40.65C149.807 40.3607 149.569 39.992 149.392 39.544C149.224 39.096 149.14 38.564 149.14 37.948V37.08C149.14 36.5013 149.219 35.9927 149.378 35.554C149.546 35.1153 149.774 34.7513 150.064 34.462C150.362 34.1633 150.712 33.9393 151.114 33.79C151.515 33.6407 151.954 33.566 152.43 33.566C153.41 33.566 154.189 33.8647 154.768 34.462C155.346 35.0593 155.636 35.904 155.636 36.996V38.018H150.484V38.074C150.484 38.802 150.675 39.3573 151.058 39.74C151.44 40.1133 151.94 40.3 152.556 40.3C153.06 40.3 153.489 40.2393 153.844 40.118C154.208 39.9967 154.553 39.8287 154.88 39.614L155.454 40.636ZM161.943 40.412C161.728 40.804 161.42 41.0793 161.019 41.238C160.627 41.3967 160.193 41.476 159.717 41.476C158.746 41.476 158.004 41.196 157.491 40.636C156.987 40.0667 156.735 39.2593 156.735 38.214V36.856C156.735 36.3427 156.81 35.8807 156.959 35.47C157.108 35.0593 157.314 34.714 157.575 34.434C157.846 34.154 158.168 33.9393 158.541 33.79C158.914 33.6407 159.325 33.566 159.773 33.566C160.361 33.566 160.823 33.6687 161.159 33.874C161.504 34.07 161.756 34.28 161.915 34.504V30.78H163.273V41.364H161.971V40.412H161.943ZM161.929 36.38C161.929 36.184 161.878 35.988 161.775 35.792C161.682 35.596 161.542 35.4233 161.355 35.274C161.178 35.1153 160.963 34.9893 160.711 34.896C160.468 34.8027 160.202 34.756 159.913 34.756C159.334 34.756 158.882 34.9567 158.555 35.358C158.238 35.7593 158.079 36.324 158.079 37.052V37.99C158.079 38.718 158.242 39.2827 158.569 39.684C158.896 40.0853 159.344 40.286 159.913 40.286C160.193 40.286 160.454 40.244 160.697 40.16C160.94 40.0667 161.15 39.936 161.327 39.768C161.514 39.6 161.658 39.3993 161.761 39.166C161.873 38.9233 161.929 38.6527 161.929 38.354V36.38ZM168.449 31.27H172.061C172.63 31.27 173.125 31.3447 173.545 31.494C173.965 31.634 174.31 31.8347 174.581 32.096C174.861 32.348 175.066 32.6513 175.197 33.006C175.337 33.3607 175.407 33.7433 175.407 34.154V34.448C175.407 34.8587 175.332 35.246 175.183 35.61C175.043 35.9647 174.833 36.2773 174.553 36.548C174.273 36.8187 173.923 37.0333 173.503 37.192C173.092 37.3507 172.611 37.43 172.061 37.43H169.835V41.364H168.449V31.27ZM169.835 32.474V36.226H171.823C173.279 36.226 174.007 35.624 174.007 34.42V34.168C174.007 33.5893 173.829 33.1647 173.475 32.894C173.129 32.614 172.63 32.474 171.977 32.474H169.835ZM178.111 30.78V41.364H176.753V30.78H178.111ZM182.142 41.476C181.368 41.476 180.752 41.2847 180.294 40.902C179.846 40.5193 179.622 39.992 179.622 39.32V38.942C179.622 38.2887 179.842 37.7567 180.28 37.346C180.719 36.9353 181.428 36.73 182.408 36.73H184.354V36.282C184.354 35.7687 184.228 35.3907 183.976 35.148C183.734 34.896 183.332 34.77 182.772 34.77C182.324 34.77 181.932 34.84 181.596 34.98C181.27 35.12 180.929 35.3067 180.574 35.54L179.902 34.532C180.276 34.2707 180.696 34.0467 181.162 33.86C181.629 33.664 182.17 33.566 182.786 33.566C183.216 33.566 183.608 33.622 183.962 33.734C184.317 33.8367 184.62 33.9953 184.872 34.21C185.134 34.4153 185.334 34.672 185.474 34.98C185.624 35.2787 185.698 35.6193 185.698 36.002V41.364H184.396V40.44H184.382C184.308 40.58 184.205 40.7107 184.074 40.832C183.953 40.944 183.818 41.042 183.668 41.126C183.463 41.238 183.239 41.322 182.996 41.378C182.763 41.4433 182.478 41.476 182.142 41.476ZM184.354 37.878H182.436C181.904 37.878 181.522 37.9807 181.288 38.186C181.064 38.3913 180.952 38.676 180.952 39.04V39.236C180.952 39.6093 181.083 39.88 181.344 40.048C181.606 40.216 181.918 40.3 182.282 40.3C182.618 40.3 182.908 40.2627 183.15 40.188C183.402 40.104 183.631 39.9827 183.836 39.824C184.023 39.684 184.154 39.5253 184.228 39.348C184.312 39.1613 184.354 38.9233 184.354 38.634V37.878ZM187.935 34.868H186.675V33.706H187.935V31.774H189.293V33.706H191.309V34.868H189.293V39.222C189.293 39.4553 189.316 39.6467 189.363 39.796C189.41 39.936 189.475 40.0433 189.559 40.118C189.652 40.1927 189.76 40.244 189.881 40.272C190.002 40.3 190.133 40.314 190.273 40.314C190.609 40.314 190.945 40.2533 191.281 40.132L191.491 41.224C191.332 41.2893 191.122 41.3453 190.861 41.392C190.6 41.448 190.334 41.476 190.063 41.476C189.335 41.476 188.798 41.294 188.453 40.93C188.108 40.566 187.935 39.9967 187.935 39.222V34.868ZM193.152 34.868H191.892V33.706H193.152V32.95C193.152 32.1753 193.339 31.606 193.712 31.242C194.095 30.878 194.65 30.696 195.378 30.696C195.621 30.696 195.868 30.7147 196.12 30.752C196.382 30.7893 196.592 30.836 196.75 30.892L196.54 31.998C196.204 31.9047 195.859 31.858 195.504 31.858C195.374 31.858 195.248 31.872 195.126 31.9C195.005 31.928 194.898 31.984 194.804 32.068C194.72 32.1427 194.65 32.2547 194.594 32.404C194.538 32.5533 194.51 32.754 194.51 33.006V33.706H196.526V34.868H194.51V41.364H193.152V34.868ZM200.655 33.566C201.71 33.566 202.541 33.8693 203.147 34.476C203.763 35.0827 204.071 35.9413 204.071 37.052V37.99C204.071 39.1007 203.763 39.9593 203.147 40.566C202.541 41.1727 201.71 41.476 200.655 41.476C199.601 41.476 198.765 41.1727 198.149 40.566C197.543 39.9593 197.239 39.1007 197.239 37.99V37.052C197.239 35.932 197.543 35.0733 198.149 34.476C198.765 33.8693 199.601 33.566 200.655 33.566ZM200.655 40.286C201.262 40.286 201.752 40.09 202.125 39.698C202.508 39.2967 202.699 38.69 202.699 37.878V37.164C202.699 36.352 202.508 35.75 202.125 35.358C201.752 34.9567 201.262 34.756 200.655 34.756C200.049 34.756 199.554 34.9567 199.171 35.358C198.798 35.75 198.611 36.352 198.611 37.164V37.878C198.611 38.69 198.798 39.2967 199.171 39.698C199.554 40.09 200.049 40.286 200.655 40.286ZM209.754 35.036C209.623 34.98 209.479 34.938 209.32 34.91C209.171 34.8727 209.003 34.854 208.816 34.854C208.564 34.854 208.321 34.9053 208.088 35.008C207.864 35.1013 207.668 35.2413 207.5 35.428C207.332 35.6053 207.197 35.82 207.094 36.072C206.991 36.324 206.94 36.5993 206.94 36.898V41.364H205.582V33.706H206.898V34.924H206.912C207.136 34.4947 207.425 34.1633 207.78 33.93C208.144 33.6873 208.606 33.566 209.166 33.566C209.502 33.566 209.833 33.6173 210.16 33.72L209.754 35.036ZM221.654 41.364H220.296V36.772C220.296 35.456 219.815 34.798 218.854 34.798C218.639 34.798 218.424 34.8353 218.21 34.91C218.004 34.9753 217.818 35.0827 217.65 35.232C217.482 35.372 217.342 35.5587 217.23 35.792C217.127 36.016 217.076 36.282 217.076 36.59V41.364H215.718V36.772C215.718 35.456 215.237 34.798 214.276 34.798C214.061 34.798 213.846 34.8307 213.632 34.896C213.426 34.9613 213.24 35.064 213.072 35.204C212.904 35.344 212.764 35.526 212.652 35.75C212.549 35.9647 212.498 36.2213 212.498 36.52V41.364H211.14V33.706H212.484V34.742H212.498C212.647 34.406 212.89 34.126 213.226 33.902C213.571 33.678 214.01 33.566 214.542 33.566C215.055 33.566 215.498 33.678 215.872 33.902C216.254 34.1167 216.544 34.4293 216.74 34.84C216.982 34.4667 217.286 34.1633 217.65 33.93C218.023 33.6873 218.513 33.566 219.12 33.566C219.913 33.566 220.534 33.8087 220.982 34.294C221.43 34.77 221.654 35.4513 221.654 36.338V41.364Z" fill="#A1A8AE"/>
<defs>
<linearGradient id="paint0_linear_926_21" x1="239" y1="23" x2="-1" y2="23" gradientUnits="userSpaceOnUse">
<stop offset="0.109375" stop-color="#0D598D"/>
<stop offset="0.875" stop-color="#2771BE"/>
</linearGradient>
</defs>
</svg>
