<svg width="70" height="70" viewBox="0 0 70 70" fill="none" xmlns="http://www.w3.org/2000/svg">
<g clip-path="url(#clip0_93_398)">
<path d="M53.8479 31.6391C53.8479 33.2524 53.6692 34.7761 53.3117 36.2102C52.15 40.9605 49.2905 44.9938 45.3586 47.6826L44.8224 50.013L43.5713 56.4662H25.5203L23.6437 47.6826C22.5713 46.9656 21.5883 46.1589 20.6947 45.2627C19.1756 43.739 17.9245 41.9464 17.0309 39.9746C16.4054 38.7198 15.9586 37.2857 15.6011 35.9413C15.333 34.5968 15.1543 33.1628 15.1543 31.7287C15.1543 31.4598 15.1543 31.1909 15.1543 30.9221C15.5117 20.794 23.6437 12.7274 33.7415 12.2793C34.0096 12.2793 34.2777 12.2793 34.5458 12.2793C35.9756 12.2793 37.4054 12.4586 38.7458 12.7274C40.1756 12.9963 41.516 13.5341 42.7671 14.0719C44.733 14.9682 46.5203 16.223 48.0394 17.7466C51.6139 21.3318 53.8479 26.1717 53.8479 31.6391Z" fill="#F7C820"/>
<path d="M34.4542 7.61868C33.3819 7.61868 32.4883 6.7224 32.4883 5.64685V1.97208C32.4883 0.896531 33.3819 0.000244141 34.4542 0.000244141C35.5266 0.000244141 36.4202 0.896531 36.4202 1.97208V5.64685C36.4202 6.81202 35.6159 7.61868 34.4542 7.61868Z" fill="#F37734"/>
<path d="M17.6563 14.6995C16.852 15.5062 15.601 15.5062 14.8861 14.6995L12.2946 12.1003C11.4903 11.2936 11.4903 10.0388 12.2946 9.32179C13.0989 8.51513 14.3499 8.51513 15.0648 9.32179L17.6563 11.921C18.3712 12.6381 18.3712 13.8929 17.6563 14.6995Z" fill="#F7C820"/>
<path d="M10.5957 31.5497C10.5957 32.6253 9.70213 33.5215 8.62979 33.5215H4.96596C3.89362 33.5215 3 32.6253 3 31.5497C3 30.4742 3.89362 29.5779 4.96596 29.5779H8.62979C9.79149 29.5779 10.5957 30.4742 10.5957 31.5497Z" fill="#F37734"/>
<path d="M17.6563 48.4894C18.4606 49.2961 18.4606 50.5509 17.6563 51.2679L15.0648 53.8672C14.2606 54.6738 13.0095 54.6738 12.2946 53.8672C11.4903 53.0605 11.4903 51.8057 12.2946 51.0887L14.8861 48.4894C15.601 47.7724 16.852 47.7724 17.6563 48.4894Z" fill="#F7C820"/>
<path d="M51.3448 48.4893C52.149 47.6826 53.4001 47.6826 54.115 48.4893L56.7065 51.0885C57.5107 51.8952 57.5107 53.15 56.7065 53.867C55.9022 54.6736 54.6511 54.6736 53.9363 53.867L51.3448 51.2678C50.6299 50.5507 50.6299 49.2959 51.3448 48.4893Z" fill="#F7C820"/>
<path d="M58.3145 31.5497C58.3145 30.4742 59.2081 29.5779 60.2804 29.5779H63.9442C65.0166 29.5779 65.9102 30.4742 65.9102 31.5497C65.9102 32.6253 65.0166 33.5215 63.9442 33.5215H60.2804C59.2081 33.5215 58.3145 32.7149 58.3145 31.5497Z" fill="#F37734"/>
<path d="M51.3454 14.6995C50.5411 13.8929 50.5411 12.6381 51.3454 11.921L53.9369 9.32179C54.7411 8.51513 55.9922 8.51513 56.7071 9.32179C57.5113 10.1284 57.5113 11.3833 56.7071 12.1003L54.1156 14.6995C53.4007 15.4165 52.1496 15.4165 51.3454 14.6995Z" fill="#F7C820"/>
<path opacity="0.25" d="M38.7458 12.7277L15.6011 35.8519C15.333 34.5075 15.1543 33.0734 15.1543 31.6394C15.1543 31.3705 15.1543 31.1016 15.1543 30.8327L33.7415 12.1899C34.0096 12.1899 34.2777 12.1899 34.5458 12.1899C35.9756 12.1899 37.316 12.3692 38.7458 12.7277Z" fill="white"/>
<path opacity="0.25" d="M53.311 36.2102C52.1493 40.9605 49.2897 44.9938 45.3578 47.6827L44.8216 50.013L38.4769 56.4663H33.1152L53.311 36.2102Z" fill="white"/>
<path opacity="0.25" d="M48.0378 17.7468L20.6931 45.1732C19.174 43.6495 17.9229 41.8569 17.0293 39.8851L42.7655 14.072C44.7314 14.9683 46.5187 16.2231 48.0378 17.7468Z" fill="white"/>
<path d="M41.2475 31.5494H36.5114L39.8177 19.1807L27.7539 33.7901H32.4901L29.0943 46.1589L41.2475 31.5494Z" fill="#F37734"/>
<path d="M34.4556 70.0898C38.2064 70.0898 41.247 68.284 41.247 66.0565C41.247 63.829 38.2064 62.0232 34.4556 62.0232C30.7047 62.0232 27.6641 63.829 27.6641 66.0565C27.6641 68.284 30.7047 70.0898 34.4556 70.0898Z" fill="white"/>
<path d="M38.9235 66.0567H30.0766C26.3235 66.0567 23.2852 63.0094 23.2852 59.245V54.4946H45.7149V59.245C45.7149 63.0094 42.6766 66.0567 38.9235 66.0567Z" fill="#77D0E5"/>
</g>
<defs>
<clipPath id="clip0_93_398">
<rect width="63" height="70" fill="white" transform="translate(3)"/>
</clipPath>
</defs>
</svg>
