<svg width="202" height="202" viewBox="0 0 202 202" fill="none" xmlns="http://www.w3.org/2000/svg">
<mask id="mask0" mask-type="alpha" maskUnits="userSpaceOnUse" x="0" y="0" width="202" height="202">
<path d="M100.667 201.334C156.264 201.334 201.334 156.264 201.334 100.667C201.334 45.0701 156.264 0 100.667 0C45.0701 0 0 45.0701 0 100.667C0 156.264 45.0701 201.334 100.667 201.334Z" fill="white"/>
</mask>
<g mask="url(#mask0)">
<path d="M100.668 211.402C161.825 211.402 211.403 161.824 211.403 100.667C211.403 39.5096 161.825 -10.0681 100.668 -10.0681C39.5103 -10.0681 -10.0674 39.5096 -10.0674 100.667C-10.0674 161.824 39.5103 211.402 100.668 211.402Z" fill="#F3F3F3"/>
<path d="M100.182 110.578C128.191 110.578 150.896 91.7593 150.896 68.5456C150.896 45.3319 128.191 26.5134 100.182 26.5134C72.1732 26.5134 49.4678 45.3319 49.4678 68.5456C49.4678 91.7593 72.1732 110.578 100.182 110.578Z" fill="#F6F6C2"/>
<path d="M121.737 103.094C124.139 100.76 126.262 98.1602 127.992 95.2791C134.772 83.9901 132.932 70.4259 126.77 59.3148C124.952 56.0335 121.502 52.8876 118.202 51.1571C112.536 48.1852 106.787 46.1768 100.308 46.3954C96.1765 46.5344 92.0596 47.3422 88.2132 48.8688C84.05 50.5234 80.2222 53.0283 77.0576 56.2022C63.2711 70.0424 70.8082 94.6881 84.0259 106.166C87.4072 109.101 91.4037 111.526 95.8356 112.176C98.7314 112.603 100.701 112.566 103.63 112.525C110.361 112.423 117.089 107.615 121.737 103.094Z" fill="#5A3C3E"/>
<path d="M134.453 238.043C136.241 230.041 139.202 146.868 140.99 138.866C143.131 130.184 134.664 120.597 121.978 119.239C107.49 117.678 92.8729 117.678 78.3842 119.239C65.6982 120.596 57.231 130.184 59.3747 138.866C61.1626 146.868 64.1234 230.041 65.9113 238.043H134.453Z" fill="#D62B38"/>
<path d="M77.3523 85.024C77.0558 84.7387 77.3411 84.2625 77.4856 83.8753C77.8413 82.9267 77.2022 81.9206 76.5945 81.1109C76.1832 80.5625 75.7144 79.9789 75.0474 79.8306C74.2192 79.6491 73.3761 80.2494 73.0074 81.0146C72.6387 81.7779 72.6388 82.6617 72.6759 83.5084C72.7629 85.4631 73.0334 87.4845 74.0839 89.1353C75.1307 90.788 77.1355 91.9664 79.0402 91.5161" fill="#FBC4C5"/>
<path d="M122.646 83.9533C122.565 82.5304 123.261 81.0871 124.425 80.2682C124.794 80.0069 125.222 79.8031 125.672 79.7902C126.4 79.7679 127.071 80.257 127.447 80.8796C127.821 81.5039 127.949 82.2432 128.016 82.9677C128.182 84.7797 128.006 86.6473 127.284 88.3166C126.559 89.9841 125.255 91.4385 123.573 92.1315C123.447 92.1834 123.311 92.2334 123.174 92.2316C122.82 92.2279 122.531 91.8276 122.641 91.4923" fill="#FBC4C5"/>
<path d="M100.342 112.134C113.379 112.134 123.948 100.192 123.948 85.4613C123.948 70.7304 113.379 58.7887 100.342 58.7887C87.3043 58.7887 76.7354 70.7304 76.7354 85.4613C76.7354 100.192 87.3043 112.134 100.342 112.134Z" fill="#FBC4C5"/>
<path d="M94.2364 85.341C95.1707 85.341 95.9281 84.5836 95.9281 83.6493C95.9281 82.7151 95.1707 81.9578 94.2364 81.9578C93.3022 81.9578 92.5449 82.7151 92.5449 83.6493C92.5449 84.5836 93.3022 85.341 94.2364 85.341Z" fill="#321F20"/>
<path d="M108.031 85.341C108.966 85.341 109.723 84.5836 109.723 83.6493C109.723 82.7151 108.966 81.9578 108.031 81.9578C107.097 81.9578 106.34 82.7151 106.34 83.6493C106.34 84.5836 107.097 85.341 108.031 85.341Z" fill="#321F20"/>
<path d="M100.497 83.6458L99.0039 89.3708C98.8464 89.973 99.1317 90.6326 99.5541 90.6326H102.609C103.034 90.6326 103.323 89.9638 103.158 89.3579L101.594 83.631C101.388 82.8769 100.696 82.8861 100.497 83.6458Z" fill="#FF88A3"/>
<path d="M92.5448 76.3289C92.3392 76.3289 92.1317 76.2363 91.9946 76.0584C91.7611 75.7546 91.8148 75.3192 92.1186 75.0839C92.9375 74.4521 94.946 73.6442 96.7117 75.0987C97.0063 75.3432 97.0488 75.7805 96.8043 76.077C96.5579 76.3697 96.1225 76.4123 95.8261 76.1696C94.4717 75.0505 93.0284 76.1325 92.9691 76.1844C92.8431 76.2826 92.6931 76.3289 92.5448 76.3289Z" fill="#321F20"/>
<path d="M109.305 76.3289C109.157 76.3289 109.009 76.2826 108.883 76.1863C108.822 76.1399 107.362 75.0635 106.022 76.1696C105.724 76.4123 105.288 76.3716 105.044 76.077C104.799 75.7805 104.842 75.3432 105.136 75.0987C106.902 73.6442 108.912 74.4521 109.73 75.0839C110.033 75.3192 110.087 75.7546 109.854 76.0584C109.716 76.2363 109.511 76.3289 109.305 76.3289Z" fill="#321F20"/>
<path d="M87.1005 93.0299C89.5011 93.0299 91.4472 91.0839 91.4472 88.6833C91.4472 86.2827 89.5011 84.3367 87.1005 84.3367C84.7 84.3367 82.7539 86.2827 82.7539 88.6833C82.7539 91.0839 84.7 93.0299 87.1005 93.0299Z" fill="#FA9A9B"/>
<path d="M115.174 93.0299C117.574 93.0299 119.52 91.0839 119.52 88.6833C119.52 86.2827 117.574 84.3367 115.174 84.3367C112.773 84.3367 110.827 86.2827 110.827 88.6833C110.827 91.0839 112.773 93.0299 115.174 93.0299Z" fill="#FA9A9B"/>
<path d="M77.4355 91.8534C77.4096 91.8534 77.3873 91.8516 77.3613 91.8479C77.152 91.8183 76.9075 91.6533 76.8556 91.2754C76.3795 88.0552 76.2756 84.774 76.5461 81.5298C76.5683 81.2741 76.8018 81.0758 77.0464 81.1055C77.3021 81.1277 77.4911 81.35 77.4707 81.6057C77.2132 84.698 77.3021 87.8218 77.7394 90.8974C77.7542 90.9067 77.7672 90.9178 77.7783 90.9289C77.9321 91.0642 77.9839 91.3698 77.8987 91.5551C77.8098 91.7404 77.6301 91.8534 77.4355 91.8534ZM77.769 91.1438H77.782H77.769Z" fill="#FA999A"/>
<path d="M123.392 92.7388C123.377 92.7388 123.362 92.7388 123.351 92.737C123.095 92.7129 122.908 92.4961 122.931 92.2423C123.264 88.5645 123.351 84.8349 123.192 81.159C123.181 80.9033 123.381 80.6865 123.635 80.6754C123.909 80.6791 124.107 80.8625 124.118 81.1182C124.276 84.7571 124.194 88.446 123.875 92.0885C123.875 92.0922 123.874 92.0941 123.874 92.0978L123.855 92.3109C123.855 92.3146 123.853 92.322 123.853 92.3257C123.824 92.561 123.623 92.7388 123.392 92.7388Z" fill="#FA999A"/>
<path d="M123.854 87.0229C123.813 87.0229 123.769 87.0173 123.728 87.0043C123.482 86.9339 123.339 86.6783 123.41 86.4319C123.869 84.8218 124.603 83.3229 125.59 81.9796C125.742 81.7739 126.033 81.7276 126.237 81.8796C126.443 82.0296 126.489 82.3187 126.337 82.5262C125.416 83.7842 124.732 85.1831 124.301 86.6857C124.242 86.8913 124.058 87.0229 123.854 87.0229Z" fill="#FA999A"/>
<path d="M123.918 89.5929C123.774 89.5929 123.631 89.5243 123.54 89.3983C123.392 89.1889 123.442 88.8981 123.652 88.7517C124.287 88.3033 125.078 87.7475 125.386 86.9916C125.632 86.3894 125.577 85.6872 125.489 85.0795C125.432 84.6682 125.282 84.3588 125.136 84.3458C124.88 84.3217 124.693 84.0957 124.715 83.8437C124.739 83.588 124.965 83.3824 125.217 83.4231C125.843 83.4806 126.277 84.0364 126.407 84.948C126.505 85.6354 126.575 86.5302 126.244 87.3399C125.832 88.3478 124.921 88.9907 124.189 89.5077C124.104 89.567 124.009 89.5929 123.918 89.5929Z" fill="#FA999A"/>
<path d="M76.7937 85.7874C76.6121 85.7874 76.4399 85.6781 76.3657 85.5021C75.9322 84.4515 75.3003 83.4603 74.5296 82.6229C74.4629 82.6154 74.3851 82.6099 74.3165 82.5802C74.1239 82.4913 73.9941 82.2319 74.0348 82.0226C74.0793 81.778 74.2813 81.5983 74.5259 81.5834C74.7019 81.5631 74.8742 81.639 75.0317 81.8039C75.9562 82.7581 76.714 83.9161 77.2254 85.1482C77.3236 85.3854 77.2088 85.6559 76.9735 85.7541C76.9123 85.7763 76.8529 85.7874 76.7937 85.7874Z" fill="#FA999A"/>
<path d="M76.7806 88.5148C76.7213 88.5148 76.6637 88.5038 76.6063 88.4797C75.5836 88.0665 74.7869 87.1883 74.4737 86.1285C74.1588 85.0687 74.3515 83.8958 74.987 82.9935C75.1315 82.7842 75.4261 82.7323 75.6317 82.8806C75.8411 83.0269 75.893 83.316 75.7448 83.5253C75.2779 84.1886 75.1315 85.0872 75.3612 85.8654C75.5521 86.5064 75.9986 87.0734 76.5674 87.4254C76.6786 87.3402 76.8268 87.3069 76.9713 87.3458C77.2177 87.4125 77.3642 87.6663 77.2975 87.9145L77.2288 88.1739C77.1936 88.3018 77.1066 88.4092 76.9881 88.4667C76.9214 88.4982 76.851 88.5148 76.7806 88.5148Z" fill="#FA999A"/>
<path d="M113.435 106.624H88.832V122.847H113.435V106.624Z" fill="#FBC4C5"/>
<path d="M100.775 113.066C93.7841 113.066 88.6297 109.179 88.5481 109.117C88.348 108.96 88.3092 108.671 88.4648 108.467C88.6223 108.262 88.9132 108.224 89.1151 108.382C89.6043 108.758 101.16 117.444 113.138 107.302C113.333 107.135 113.626 107.161 113.79 107.356C113.957 107.548 113.931 107.843 113.737 108.008C109.22 111.837 104.706 113.066 100.775 113.066Z" fill="#FA999A"/>
<path d="M94.4383 95.561H107.966C107.966 95.561 108.301 106.852 99.9171 106.852C99.9171 106.852 93.5453 106.403 94.4383 95.561Z" fill="#CD2D30"/>
<path d="M95.1113 96.3444L107.295 96.2313C107.295 96.2313 101.037 101.708 95.1113 96.3444Z" fill="white"/>
<path d="M88.9764 118.124L76.3145 119.356C76.3145 119.356 76.1385 137.465 100.404 137.465C100.404 137.465 124.846 136.761 125.022 119.53L113.064 118.476L88.9764 118.124Z" fill="#FBC4C5"/>
<path d="M66.4687 122.871L67.8749 186.875L62.248 195.316L64.6233 240.418L135.309 240.946L137.508 194.612L132.583 186.171L132.409 121.728L128.187 120.145L127.66 143.883H72.2715L70.4243 120.936L66.4687 122.871Z" fill="#7EA1AF"/>
<path d="M86.4144 57.7345C86.0624 61.5494 86.5589 65.4902 88.2283 68.9382C89.8958 72.3844 92.8009 75.297 96.3972 76.6124C98.1462 77.2517 100.01 77.5074 101.857 77.7594C108.185 78.6227 114.512 79.4861 120.839 80.3477C121.441 80.4292 122.069 80.5089 122.64 80.3032C123.885 79.853 124.289 78.3059 124.365 76.9849C124.739 70.4965 121.575 64.2859 117.565 59.1741C116.528 57.8531 115.409 56.5598 113.991 55.6594C112.446 54.6793 110.634 54.2179 108.844 53.8529C103.851 52.8357 98.7262 52.4615 93.6385 52.7394" fill="#5A3C3E"/>
<path d="M81.1434 102.511C70.4121 108.095 64.5332 120.553 64.0737 132.643C63.8365 138.825 64.7852 145.206 62.8379 151.08C70.6622 146.733 77.9696 141.06 82.7516 133.497C87.5337 125.932 89.5105 116.271 86.5386 107.832" fill="#5A3C3E"/>
<path d="M62.9974 126.811C62.9974 126.811 51.8807 130.928 47.3525 149.045L42.4111 167.159L63.8218 169.218L62.9974 126.811Z" fill="#D62B38"/>
<path d="M132.407 121.727C132.407 121.727 147.398 120.634 155.632 153.161L158.515 163.044L136.281 163.867L132.407 121.727Z" fill="#D62B38"/>
<path d="M156.66 184.659C156.667 184.651 165.514 175.374 173.335 124.753L161.395 121.46L148.22 160.573C148.22 160.573 138.567 163.858 138.543 163.867C138.008 164.05 138.202 173.996 138.252 174.752C138.558 179.627 138.547 185.498 143.587 188.007C147.898 190.158 153.505 187.964 156.66 184.659Z" fill="#FBC4C5"/>
<path d="M141.017 176.27C140.952 176.27 140.887 176.257 140.824 176.229C140.592 176.122 140.489 175.847 140.596 175.614L147.594 160.379C147.702 160.147 147.976 160.045 148.209 160.151C148.441 160.258 148.545 160.532 148.437 160.766L141.439 176.001C141.361 176.172 141.193 176.27 141.017 176.27Z" fill="#FA999A"/>
<path d="M161.372 123.384C160.479 118.376 160.703 113.171 162.024 108.257C162.437 106.729 163.147 105.523 163.395 103.94C163.995 100.107 164.595 96.2719 165.198 92.4385C165.253 92.079 165.333 91.6807 165.629 91.4694C165.857 91.3082 166.161 91.3008 166.439 91.349C167.538 91.5343 168.399 92.4496 168.829 93.476C169.257 94.5043 169.331 95.64 169.398 96.7535C169.578 99.7643 169.781 102.738 170.169 105.708C171.782 105.332 173.463 105.419 175.117 105.508C176.903 105.604 178.773 105.723 180.3 106.655C181.117 107.153 181.821 107.909 182.058 108.837C182.295 109.766 181.976 110.862 181.165 111.37C182.015 111.813 182.603 112.728 182.651 113.688C182.699 114.648 182.206 115.615 181.402 116.141C182.586 117.336 181.874 119.75 180.231 120.115C180.642 120.499 180.657 121.175 180.409 121.679C180.159 122.183 179.701 122.55 179.24 122.872C176.902 124.504 174.084 125.44 171.234 125.527" fill="#FBC4C5"/>
<path d="M171.12 111.406C170.989 111.406 170.856 111.35 170.765 111.239C169.646 109.896 169.814 109.032 170.155 108.541C170.485 108.073 171.045 107.891 171.382 107.784C173.305 107.167 175.3 106.674 177.314 106.325C177.572 106.272 177.807 106.451 177.85 106.702C177.892 106.954 177.726 107.194 177.474 107.237C175.502 107.582 173.548 108.06 171.663 108.666C171.346 108.767 171.052 108.875 170.913 109.071C170.618 109.497 171.139 110.242 171.478 110.646C171.641 110.843 171.615 111.135 171.419 111.3C171.33 111.371 171.226 111.406 171.12 111.406Z" fill="#FA999A"/>
<path d="M170.633 115.141C170.54 115.141 170.449 115.113 170.368 115.058C169.521 114.472 169.073 113.397 169.25 112.382C169.319 111.989 169.486 111.706 169.743 111.539C170.014 111.363 170.31 111.367 170.52 111.369L173.708 111.409C176.13 111.437 178.613 111.471 180.997 111.039C181.262 110.987 181.49 111.161 181.536 111.411C181.581 111.663 181.416 111.906 181.164 111.951C178.692 112.397 176.152 112.364 173.699 112.336L170.51 112.295C170.431 112.297 170.284 112.291 170.249 112.317C170.247 112.317 170.199 112.354 170.164 112.543C170.047 113.197 170.351 113.918 170.898 114.298C171.107 114.443 171.161 114.732 171.014 114.943C170.925 115.072 170.781 115.141 170.633 115.141Z" fill="#FA999A"/>
<path d="M177.484 116.76C175.531 116.76 173.582 116.64 171.651 116.399C171.179 116.341 170.573 116.123 170.289 115.687C170.134 115.452 170.093 115.172 170.173 114.9C170.245 114.655 170.495 114.507 170.749 114.589C170.993 114.661 171.134 114.918 171.06 115.165C171.086 115.252 171.375 115.432 171.768 115.48C174.949 115.875 178.188 115.936 181.386 115.671C181.675 115.643 181.865 115.839 181.888 116.093C181.91 116.349 181.719 116.573 181.465 116.595C180.139 116.705 178.81 116.76 177.484 116.76Z" fill="#FA999A"/>
<path d="M178.409 120.653C176.49 120.653 174.6 120.123 172.884 119.639C172.175 119.441 171.202 119.169 170.6 118.424C170.227 117.964 170.081 117.292 170.224 116.71C170.34 116.234 170.635 115.876 171.046 115.699C171.278 115.598 171.554 115.706 171.654 115.941C171.756 116.177 171.647 116.447 171.411 116.549C171.232 116.627 171.154 116.801 171.122 116.932C171.048 117.233 171.13 117.605 171.319 117.84C171.704 118.316 172.367 118.533 173.133 118.748C175.308 119.356 177.774 120.047 180.106 119.556C180.366 119.5 180.603 119.663 180.655 119.912C180.709 120.162 180.547 120.408 180.299 120.46C179.667 120.595 179.037 120.653 178.409 120.653Z" fill="#FA999A"/>
<path d="M175.86 123.61C175.845 123.61 175.83 123.61 175.816 123.608C174.637 123.493 173.524 123.228 172.505 122.817C171.528 122.422 170.984 121.87 170.885 121.181C170.708 119.958 172.04 119.174 172.477 118.917C172.697 118.785 172.979 118.861 173.112 119.082C173.24 119.302 173.168 119.585 172.947 119.717C172.117 120.204 171.743 120.64 171.801 121.051C171.862 121.475 172.405 121.779 172.851 121.959C173.787 122.335 174.815 122.58 175.905 122.685C176.158 122.711 176.344 122.937 176.321 123.191C176.297 123.43 176.097 123.61 175.86 123.61Z" fill="#FA999A"/>
<path d="M170.955 108.669C170.812 108.669 170.671 108.604 170.581 108.478C169.975 107.648 169.588 106.67 169.462 105.653C169.43 105.399 169.61 105.167 169.866 105.138C170.112 105.103 170.349 105.288 170.381 105.542C170.488 106.403 170.814 107.23 171.329 107.934C171.479 108.139 171.435 108.43 171.227 108.582C171.146 108.64 171.051 108.669 170.955 108.669Z" fill="#FA999A"/>
<path d="M167.192 122.869C167.043 122.869 166.899 122.798 166.808 122.667C166.666 122.455 166.719 122.164 166.93 122.022C168.579 120.905 169.791 119.156 170.256 117.219C170.315 116.971 170.575 116.821 170.816 116.877C171.064 116.936 171.218 117.186 171.158 117.436C170.64 119.593 169.289 121.544 167.453 122.789C167.373 122.844 167.282 122.869 167.192 122.869Z" fill="#FA999A"/>
<path d="M61.4488 168.603L62.8384 193.923C62.8384 193.923 52.3406 190.218 46.7823 186.049L45.7002 167.521L61.4488 168.603Z" fill="#FBC4C5"/>
<path d="M138.804 163.815C138.796 163.815 138.789 163.815 138.78 163.815C138.524 163.802 138.327 163.584 138.34 163.328L139.267 144.8C139.28 144.552 139.484 144.361 139.73 144.361C139.737 144.361 139.745 144.361 139.754 144.361C140.01 144.374 140.206 144.593 140.193 144.848L139.267 163.376C139.254 163.623 139.05 163.815 138.804 163.815Z" fill="#B21F31"/>
<path d="M60.987 168.91C60.7499 168.91 60.548 168.729 60.5257 168.49L58.3654 145.33C58.3413 145.074 58.5284 144.848 58.7841 144.826C59.0268 144.785 59.2658 144.991 59.288 145.245L61.4484 168.404C61.4725 168.66 61.2853 168.886 61.0296 168.908C61.0148 168.91 61.0018 168.91 60.987 168.91Z" fill="#B21F31"/>
<path d="M100.667 212.326C39.0975 212.326 -10.9941 162.237 -10.9941 100.665C-10.9941 39.0934 39.0957 -10.9965 100.667 -10.9965C162.239 -10.9965 212.329 39.0934 212.329 100.665C212.329 162.237 162.237 212.326 100.667 212.326ZM100.667 -9.14187C40.1184 -9.14187 -9.14136 40.118 -9.14136 100.667C-9.14136 161.216 40.1184 210.475 100.667 210.475C161.216 210.475 210.476 161.216 210.476 100.667C210.476 40.118 161.214 -9.14187 100.667 -9.14187Z" fill="white"/>
<path d="M83.6809 189.274C83.0936 189.274 79.2602 189.187 77.0369 187.003C75.9938 185.978 75.4639 184.663 75.4639 183.095L75.7454 158.618C75.7492 158.237 76.0604 157.931 76.4402 157.931H124.674C125.057 157.931 125.368 158.242 125.368 158.626V181.687C125.383 181.719 125.908 185.095 123.988 187.353C122.904 188.628 121.29 189.274 119.189 189.274H83.7514C83.744 189.274 83.718 189.274 83.6809 189.274ZM77.1295 159.32L76.8553 183.103C76.8553 184.294 77.2314 185.246 78.0077 186.008C79.9439 187.913 83.681 187.87 83.7421 187.885H119.193C120.862 187.885 122.121 187.405 122.928 186.458C124.435 184.694 123.996 181.826 123.992 181.797L123.983 159.319H77.1295V159.32Z" fill="#658893"/>
</g>
</svg>
