<svg width="33" height="33" viewBox="0 0 33 33" fill="none" xmlns="http://www.w3.org/2000/svg">
<g clip-path="url(#clip0_105_1097)">
<path d="M16.75 29.5933C9.38599 29.5933 3.41666 23.624 3.41666 16.26C3.41666 8.89602 9.38599 2.92668 16.75 2.92668C24.114 2.92668 30.0833 8.89602 30.0833 16.26C30.0833 23.624 24.114 29.5933 16.75 29.5933ZM16.75 26.9267C19.579 26.9267 22.2921 25.8029 24.2925 23.8025C26.2929 21.8021 27.4167 19.089 27.4167 16.26C27.4167 13.431 26.2929 10.7179 24.2925 8.71754C22.2921 6.71715 19.579 5.59335 16.75 5.59335C13.921 5.59335 11.2079 6.71715 9.20752 8.71754C7.20713 10.7179 6.08332 13.431 6.08332 16.26C6.08332 19.089 7.20713 21.8021 9.20752 23.8025C11.2079 25.8029 13.921 26.9267 16.75 26.9267ZM15.4167 9.59335H18.0833V12.26H15.4167V9.59335ZM15.4167 14.9267H18.0833V22.9267H15.4167V14.9267Z" fill="#888888"/>
</g>
<defs>
<clipPath id="clip0_105_1097">
<rect width="32" height="32" fill="white" transform="translate(0.75 0.26001)"/>
</clipPath>
</defs>
</svg>
