<svg width="346" height="164" viewBox="0 0 346 164" fill="none" xmlns="http://www.w3.org/2000/svg">
<g clip-path="url(#clip0_247_4791)">
<mask id="mask0_247_4791" style="mask-type:alpha" maskUnits="userSpaceOnUse" x="7" y="2" width="333" height="167">
<path d="M339.18 168.555C339.18 124.595 321.717 82.4355 290.633 51.3509C259.548 20.2664 217.388 2.80323 173.428 2.80322C129.468 2.80322 87.3081 20.2663 56.2235 51.3509C25.1389 82.4355 7.67579 124.595 7.67578 168.555L90.5519 168.555C90.5519 146.575 99.2835 125.495 114.826 109.953C130.368 94.4109 151.448 85.6793 173.428 85.6793C195.408 85.6793 216.488 94.4109 232.03 109.953C247.573 125.495 256.304 146.575 256.304 168.555H339.18Z" fill="#D9D9D9"/>
</mask>
<g mask="url(#mask0_247_4791)">
<path d="M6.77048 170.199C6.64934 145.801 11.9162 121.676 22.195 99.5481C32.4739 77.42 47.5112 57.834 66.2334 42.1883L120.44 107.054C111.266 114.721 103.898 124.318 98.8611 135.161C93.8245 146.003 91.2437 157.824 91.3031 169.78L6.77048 170.199Z" fill="#377E52"/>
<path d="M339.179 169.379C339.3 144.98 334.033 120.855 323.754 98.7273C313.475 76.5992 298.438 57.0132 279.716 41.3675L226.572 104.962C235.933 112.784 243.452 122.577 248.591 133.641C253.731 144.706 256.364 156.768 256.304 168.967L339.179 169.379Z" fill="#C81818"/>
<path d="M42.3665 67.0849C63.7951 39.4071 93.4357 19.2237 127.04 9.42723L150.235 88.9914C133.433 93.8896 118.612 103.981 107.898 117.82L42.3665 67.0849Z" fill="#3568B5"/>
<path d="M304.489 67.0849C283.06 39.4071 253.42 19.2237 219.815 9.42723L196.621 88.9914C213.423 93.8896 228.243 103.981 238.957 117.82L304.489 67.0849Z" fill="#ED7E3D"/>
<path d="M127.301 9.3502C160.922 -0.390415 196.763 0.762668 229.689 12.6442L201.557 90.5998C185.095 84.659 167.174 84.0825 150.364 88.9528L127.301 9.3502Z" fill="#FFBA27"/>
</g>
<path d="M41.1929 135.607C40.6546 135.607 40.1461 135.559 39.6675 135.463C39.189 135.367 38.7702 135.194 38.4113 134.943C38.0524 134.703 37.7652 134.374 37.5499 133.956C37.3345 133.537 37.2268 132.998 37.2268 132.34C37.2268 131.718 37.3345 131.198 37.5499 130.779C37.7652 130.36 38.0524 130.031 38.4113 129.792C38.7702 129.553 39.183 129.385 39.6496 129.29C40.1281 129.182 40.6306 129.128 41.157 129.128H48.0125C48.5269 129.128 49.0234 129.182 49.502 129.29C49.9805 129.385 50.3993 129.553 50.7582 129.792C51.1171 130.031 51.4043 130.36 51.6196 130.779C51.835 131.198 51.9427 131.718 51.9427 132.34C51.9427 132.998 51.835 133.537 51.6196 133.956C51.4043 134.374 51.1171 134.703 50.7582 134.943C50.3993 135.194 49.9805 135.367 49.502 135.463C49.0234 135.559 48.5149 135.607 47.9766 135.607H41.1929ZM45.4103 127.89C44.6924 127.698 43.9925 127.387 43.3106 126.957C42.6406 126.514 42.0185 125.898 41.4442 125.108C40.9297 125.874 40.3136 126.526 39.5957 127.064C38.8779 127.591 38.0823 128.021 37.2089 128.356L35.9527 126.49C37.2209 125.964 38.2079 125.329 38.9138 124.588C39.6197 123.834 39.9726 122.883 39.9726 121.734V121.322H36.5808V119.06H46.1461V121.322H42.7722V121.662C42.7722 122.225 42.8739 122.739 43.0773 123.206C43.2926 123.66 43.5738 124.067 43.9207 124.426C44.2797 124.773 44.6924 125.078 45.159 125.341C45.6256 125.593 46.1102 125.796 46.6127 125.952L45.4103 127.89ZM48.8021 118.827H51.5837V128.572H48.8021V124.552H45.841V122.291H48.8021V118.827ZM39.9726 132.305C39.9726 132.592 40.0504 132.843 40.2059 133.058C40.3734 133.286 40.6964 133.399 41.175 133.399H47.9945C48.4731 133.399 48.7901 133.286 48.9457 133.058C49.1132 132.843 49.1969 132.592 49.1969 132.305C49.1969 132.029 49.1072 131.802 48.9277 131.623C48.7602 131.431 48.4491 131.335 47.9945 131.335H41.175C40.7204 131.335 40.4033 131.431 40.2238 131.623C40.0563 131.802 39.9726 132.029 39.9726 132.305ZM58.2322 135.607C57.6938 135.607 57.1853 135.559 56.7068 135.463C56.2282 135.367 55.8095 135.194 55.4506 134.943C55.0916 134.703 54.8045 134.374 54.5891 133.956C54.3738 133.537 54.2661 132.998 54.2661 132.34C54.2661 131.718 54.3738 131.198 54.5891 130.779C54.8045 130.36 55.0916 130.031 55.4506 129.792C55.8095 129.553 56.2222 129.385 56.6888 129.29C57.1674 129.182 57.6699 129.128 58.1963 129.128H64.3518C64.8663 129.128 65.3628 129.182 65.8414 129.29C66.3199 129.385 66.7387 129.553 67.0976 129.792C67.4565 130.031 67.7436 130.36 67.959 130.779C68.1743 131.198 68.282 131.718 68.282 132.34C68.282 132.998 68.1743 133.537 67.959 133.956C67.7436 134.374 67.4565 134.703 67.0976 134.943C66.7387 135.194 66.3199 135.367 65.8414 135.463C65.3628 135.559 64.8543 135.607 64.3159 135.607H58.2322ZM62.1624 127.746C61.4446 127.435 60.7626 127.022 60.1165 126.508C59.4705 125.993 58.8603 125.3 58.286 124.426C57.7835 125.228 57.1853 125.94 56.4914 126.562C55.7975 127.172 55.0318 127.68 54.1943 128.087L52.7586 126.185C54.0268 125.563 55.0198 124.803 55.7377 123.906C56.4675 123.008 56.8324 121.944 56.8324 120.711V118.971H59.6499V120.64C59.6499 121.286 59.7576 121.878 59.973 122.416C60.1883 122.943 60.4755 123.421 60.8344 123.852C61.1933 124.283 61.6061 124.659 62.0727 124.983C62.5393 125.294 63.0238 125.557 63.5263 125.772L62.1624 127.746ZM70.292 122.183V124.426H67.9231V128.392H65.1415V118.827H67.9231V122.183H70.292ZM57.0119 132.305C57.0119 132.592 57.0896 132.843 57.2452 133.058C57.4127 133.286 57.7357 133.399 58.2143 133.399H64.3339C64.8124 133.399 65.1295 133.286 65.285 133.058C65.4525 132.843 65.5363 132.592 65.5363 132.305C65.5363 132.029 65.4465 131.802 65.2671 131.623C65.0996 131.431 64.7885 131.335 64.3339 131.335H58.2143C57.7596 131.335 57.4426 131.431 57.2631 131.623C57.0956 131.802 57.0119 132.029 57.0119 132.305Z" fill="white"/>
<path d="M276.017 129.128H290.033V135.607H276.017V129.128ZM278.817 131.335V133.399H287.251V131.335H278.817ZM287.251 128.572V118.827H290.033V128.572H287.251ZM283.913 127.746C283.195 127.435 282.514 127.022 281.867 126.508C281.221 125.993 280.611 125.3 280.037 124.426C279.534 125.228 278.936 125.94 278.242 126.562C277.548 127.172 276.783 127.68 275.945 128.087L274.51 126.185C275.778 125.563 276.771 124.803 277.489 123.906C278.218 123.008 278.583 121.944 278.583 120.711V118.971H281.401V120.64C281.401 121.286 281.509 121.878 281.724 122.416C281.939 122.943 282.226 123.421 282.585 123.852C282.944 124.283 283.357 124.659 283.824 124.983C284.29 125.294 284.775 125.557 285.277 125.772L283.913 127.746ZM300.845 119.06V120.047C300.845 120.981 300.671 121.872 300.324 122.721C299.989 123.559 299.493 124.336 298.835 125.054C298.189 125.772 297.387 126.418 296.43 126.992C295.473 127.555 294.378 128.033 293.146 128.428L291.926 126.418C292.715 126.191 293.457 125.904 294.151 125.557C294.857 125.21 295.473 124.821 295.999 124.39C296.538 123.948 296.975 123.469 297.31 122.955C297.656 122.428 297.866 121.878 297.938 121.304H292.5V119.06H300.845ZM303.591 131.533H292.877V129.308H306.372V135.678H303.591V131.533ZM308.741 122.183V124.426H306.372V128.572H303.591V118.827H306.372V122.183H308.741Z" fill="white"/>
<path d="M96.9381 60.1434V62.4046H94.5692V67.8423H91.7876V55.1903H94.5692V60.1434H96.9381ZM80.9123 66.6399H83.7118V69.5472H94.9282V71.7904H80.9123V66.6399ZM91.4107 65.1683C90.5134 65.2521 89.5802 65.3298 88.6111 65.4016C87.642 65.4734 86.661 65.5332 85.668 65.5811C84.6869 65.6289 83.7118 65.6648 82.7428 65.6888C81.7737 65.7127 80.8405 65.7246 79.9432 65.7246L79.6022 63.5173C80.5593 63.5173 81.6062 63.4993 82.7428 63.4634V59.8204H85.5423V63.3737C86.5114 63.3378 87.4566 63.29 88.3778 63.2301C89.2991 63.1703 90.1904 63.0925 91.0518 62.9968L91.4107 65.1683ZM87.3549 57.6489H80.6431V55.4236H90.1366V62.1175H87.3549V57.6489ZM98.6873 65.4913H112.703V71.9699H98.6873V65.4913ZM101.487 67.6987V69.7625H109.922V67.6987H101.487ZM109.922 64.935V55.1903H112.703V64.935H109.922ZM106.584 64.1095C105.866 63.7984 105.184 63.3857 104.538 62.8712C103.892 62.3568 103.282 61.6628 102.707 60.7895C102.205 61.5911 101.607 62.3029 100.913 62.9251C100.219 63.5352 99.453 64.0437 98.6155 64.4505L97.1798 62.5482C98.448 61.9261 99.441 61.1663 100.159 60.269C100.889 59.3717 101.254 58.3069 101.254 57.0746V55.3338H104.071V57.0028C104.071 57.6489 104.179 58.2411 104.394 58.7795C104.61 59.3059 104.897 59.7845 105.256 60.2152C105.615 60.6459 106.027 61.0228 106.494 61.3458C106.96 61.6569 107.445 61.9201 107.947 62.1354L106.584 64.1095Z" fill="white"/>
<path d="M235.759 71.9699C235.221 71.9699 234.712 71.922 234.234 71.8263C233.755 71.7306 233.337 71.5571 232.978 71.3059C232.619 71.0666 232.332 70.7376 232.116 70.3188C231.901 69.9001 231.793 69.3617 231.793 68.7037C231.793 68.0816 231.901 67.5611 232.116 67.1424C232.332 66.7236 232.619 66.3946 232.978 66.1554C233.337 65.9161 233.749 65.7486 234.216 65.6529C234.695 65.5452 235.197 65.4913 235.723 65.4913H242.579C243.093 65.4913 243.59 65.5452 244.068 65.6529C244.547 65.7486 244.966 65.9161 245.325 66.1554C245.684 66.3946 245.971 66.7236 246.186 67.1424C246.401 67.5611 246.509 68.0816 246.509 68.7037C246.509 69.3617 246.401 69.9001 246.186 70.3188C245.971 70.7376 245.684 71.0666 245.325 71.3059C244.966 71.5571 244.547 71.7306 244.068 71.8263C243.59 71.922 243.081 71.9699 242.543 71.9699H235.759ZM239.905 55.4236V56.4106C239.905 57.3438 239.731 58.2351 239.384 59.0846C239.049 59.9221 238.553 60.6997 237.895 61.4176C237.249 62.1354 236.447 62.7815 235.49 63.3558C234.533 63.9181 233.438 64.3966 232.206 64.7914L230.986 62.7815C231.775 62.5542 232.517 62.267 233.211 61.9201C233.917 61.5731 234.533 61.1843 235.059 60.7536C235.598 60.3109 236.035 59.8323 236.37 59.3179C236.716 58.7915 236.926 58.2411 236.998 57.6668H231.56V55.4236H239.905ZM243.368 55.1903H246.15V64.935H243.368V62.9251H240.228V60.6638H243.368V59.3179H240.587V57.0567H243.368V55.1903ZM234.539 68.6678C234.539 68.9549 234.617 69.2062 234.772 69.4215C234.94 69.6489 235.263 69.7625 235.741 69.7625H242.561C243.039 69.7625 243.357 69.6489 243.512 69.4215C243.68 69.2062 243.763 68.9549 243.763 68.6678C243.763 68.3926 243.674 68.1653 243.494 67.9859C243.327 67.7944 243.016 67.6987 242.561 67.6987H235.741C235.287 67.6987 234.97 67.7944 234.79 67.9859C234.623 68.1653 234.539 68.3926 234.539 68.6678ZM256.065 55.4236V59.0307H257.644V55.3338H260.318V71.7366H257.644V67.1783H255.796V64.935H257.644V61.274H256.029C255.957 62.4106 255.766 63.4874 255.455 64.5043C255.156 65.5213 254.719 66.4724 254.145 67.3577C253.582 68.2311 252.876 69.0327 252.027 69.7625C251.189 70.5043 250.19 71.1563 249.03 71.7186L247.666 69.7087C249.508 68.7994 250.902 67.6389 251.847 66.2271C252.793 64.8154 253.265 63.1524 253.265 61.2381V57.6668H248.635V55.4236H256.065ZM261.072 55.1903H263.764V72.0237H261.072V55.1903Z" fill="black"/>
<path d="M170.357 32.8353C170.44 33.4814 170.65 34.0736 170.985 34.612C171.332 35.1503 171.78 35.6289 172.331 36.0477C172.893 36.4664 173.545 36.8253 174.287 37.1244C175.029 37.4116 175.842 37.6389 176.727 37.8064L175.848 39.924C175.13 39.8044 174.418 39.6249 173.713 39.3856C173.007 39.1463 172.349 38.8592 171.738 38.5242C171.128 38.1773 170.578 37.7884 170.087 37.3577C169.597 36.915 169.202 36.4305 168.903 35.9041C168.604 36.4305 168.215 36.915 167.736 37.3577C167.258 37.7884 166.714 38.1773 166.103 38.5242C165.493 38.8592 164.835 39.1463 164.129 39.3856C163.423 39.6249 162.7 39.8044 161.958 39.924L161.078 37.8064C161.964 37.6389 162.777 37.4116 163.519 37.1244C164.261 36.8253 164.907 36.4664 165.457 36.0477C166.008 35.6289 166.45 35.1503 166.785 34.612C167.132 34.0736 167.348 33.4814 167.431 32.8353H161.886V30.592H175.92V32.8353H170.357ZM167.449 43.4414H160.648V41.1982H177.158V43.4414H170.249V47.4075H167.449V43.4414ZM190.554 47.1383V30.3587H193.336V47.1383H190.554ZM189.998 46.2949C189.101 46.3786 188.15 46.4504 187.145 46.5102C186.14 46.582 185.117 46.6359 184.076 46.6717C183.047 46.7196 182.03 46.7555 181.025 46.7794C180.02 46.8034 179.069 46.8153 178.172 46.8153L177.831 44.6079C178.644 44.6079 179.553 44.596 180.558 44.5721C181.563 44.5601 182.586 44.5362 183.627 44.5003C184.68 44.4644 185.721 44.4165 186.75 44.3567C187.791 44.2969 188.754 44.2191 189.639 44.1234L189.998 46.2949ZM188.885 37.1962C188.885 37.8303 188.796 38.4285 188.616 38.9908C188.449 39.5531 188.168 40.0496 187.773 40.4803C187.378 40.911 186.863 41.252 186.229 41.5033C185.607 41.7545 184.842 41.8801 183.932 41.8801C182.975 41.8801 182.18 41.7545 181.545 41.5033C180.911 41.252 180.403 40.911 180.02 40.4803C179.637 40.0496 179.362 39.5531 179.194 38.9908C179.039 38.4285 178.961 37.8303 178.961 37.1962V35.0965C178.961 34.4744 179.039 33.8822 179.194 33.3198C179.362 32.7456 179.637 32.2431 180.02 31.8124C180.403 31.3817 180.911 31.0407 181.545 30.7894C182.18 30.5382 182.975 30.4126 183.932 30.4126C184.842 30.4126 185.607 30.5382 186.229 30.7894C186.863 31.0407 187.378 31.3817 187.773 31.8124C188.168 32.2431 188.449 32.7456 188.616 33.3198C188.796 33.8822 188.885 34.4744 188.885 35.0965V37.1962ZM181.761 37.5372C181.761 37.944 181.815 38.2849 181.922 38.5601C182.042 38.8233 182.197 39.0387 182.389 39.2062C182.592 39.3617 182.826 39.4754 183.089 39.5471C183.352 39.607 183.639 39.6369 183.95 39.6369C184.596 39.6369 185.111 39.4873 185.494 39.1882C185.888 38.8772 186.086 38.3328 186.086 37.5551V34.7376C186.086 33.9599 185.888 33.4215 185.494 33.1224C185.111 32.8114 184.596 32.6558 183.95 32.6558C183.639 32.6558 183.352 32.6917 183.089 32.7635C182.826 32.8233 182.592 32.937 182.389 33.1045C182.197 33.26 182.042 33.4754 181.922 33.7506C181.815 34.0138 181.761 34.3488 181.761 34.7555V37.5372Z" fill="black"/>
</g>
<defs>
<clipPath id="clip0_247_4791">
<rect width="344.82" height="164" fill="white" transform="translate(0.667969)"/>
</clipPath>
</defs>
</svg>
