<svg width="315" height="265" viewBox="0 0 315 265" fill="none" xmlns="http://www.w3.org/2000/svg">
<path d="M40.7695 65.3099L57.0871 42.8398H90.2572V110.25H40.7695V65.3099Z" fill="#CED4DA"/>
<rect x="89.9922" y="30" width="24.0751" height="68.4802" fill="#ABB9C8"/>
<rect x="41.0391" y="97.6777" width="215.071" height="12.84" fill="#CED4DA"/>
<path d="M49.8672 65.2433L61.1691 50.5977H67.3885V69.3227H49.8672V65.2433Z" fill="white"/>
<rect x="35.0195" y="85.2388" width="5.75127" height="10.0313" fill="#ABB9C8"/>
<rect x="73.9414" y="50.5977" width="8.56002" height="18.7251" fill="white"/>
<path d="M122.625 48.2319C122.625 43.8137 126.207 40.2319 130.625 40.2319H225.638C230.056 40.2319 233.638 43.8137 233.638 48.2319V89.7446C233.638 94.1629 230.056 97.7446 225.638 97.7446H130.625C126.207 97.7446 122.625 94.1629 122.625 89.7446V48.2319Z" fill="#2A5391"/>
<rect x="140.281" y="40.2319" width="10.2988" height="57.5127" fill="#E3F0FE"/>
<rect x="169.973" y="40.2319" width="10.2988" height="57.5127" fill="#E3F0FE"/>
<rect x="199.668" y="40.2319" width="10.2988" height="57.5127" fill="#E3F0FE"/>
<circle cx="179.068" cy="111.053" r="15.7825" fill="#ABB9C8"/>
<circle cx="179.068" cy="111.053" r="9.09503" fill="#CED4DA"/>
<circle cx="74.474" cy="111.053" r="15.7825" fill="#ABB9C8"/>
<circle cx="74.4778" cy="111.053" r="9.09503" fill="#CED4DA"/>
<circle cx="233.638" cy="111.053" r="15.7825" fill="#ABB9C8"/>
<circle cx="233.638" cy="111.053" r="9.09503" fill="#CED4DA"/>
<path d="M233.641 59.2246H239.131C240.235 59.2246 241.131 60.12 241.131 61.2246V78.0897C241.131 79.1942 240.235 80.0897 239.131 80.0897H233.641V59.2246Z" fill="#2A5391"/>
<path d="M285.42 182.41H232.5V188.63H285.42V182.41Z" fill="#ABB9C8"/>
<path d="M276.451 233.21H240.031L235.711 188.62H282.211L276.451 233.21Z" fill="#CED4DA"/>
<path d="M258.512 184.73L283.562 209.54" stroke="#ABB9C8" stroke-width="3" stroke-linecap="round" stroke-linejoin="round"/>
<path d="M258.511 188.96C260.847 188.96 262.741 187.066 262.741 184.73C262.741 182.394 260.847 180.5 258.511 180.5C256.175 180.5 254.281 182.394 254.281 184.73C254.281 187.066 256.175 188.96 258.511 188.96Z" fill="white" stroke="#ABB9C8" stroke-width="3" stroke-linecap="round" stroke-linejoin="round"/>
<path d="M219.42 182.41H166.5V188.63H219.42V182.41Z" fill="#ABB9C8"/>
<path d="M210.451 233.21H174.031L169.711 188.62H216.211L210.451 233.21Z" fill="#CED4DA"/>
<path d="M192.512 184.73L217.562 209.54" stroke="#ABB9C8" stroke-width="3" stroke-linecap="round" stroke-linejoin="round"/>
<path d="M192.511 188.96C194.847 188.96 196.741 187.066 196.741 184.73C196.741 182.394 194.847 180.5 192.511 180.5C190.175 180.5 188.281 182.394 188.281 184.73C188.281 187.066 190.175 188.96 192.511 188.96Z" fill="white" stroke="#ABB9C8" stroke-width="3" stroke-linecap="round" stroke-linejoin="round"/>
<g clip-path="url(#clip0_246_4789)">
<path d="M89.7188 170.84C93.4467 170.84 96.4688 167.518 96.4688 163.42C96.4688 159.322 93.4467 156 89.7188 156C85.9908 156 82.9688 159.322 82.9688 163.42C82.9688 167.518 85.9908 170.84 89.7188 170.84Z" fill="#2A5391"/>
<path d="M99.82 172.77H79.62C76.52 172.77 74 175.29 74 178.39V200.69C74 203.73 76.42 206.2 79.44 206.3V227.67C79.44 230.36 81.62 232.54 84.31 232.54C87 232.54 89.18 230.36 89.18 227.67V207.78C89.2 207.49 89.43 207.26 89.72 207.26C90.01 207.26 90.25 207.49 90.26 207.78V227.67C90.26 230.36 92.44 232.54 95.13 232.54C97.82 232.54 100 230.36 100 227.67V206.3C103.02 206.2 105.44 203.73 105.44 200.69V178.39C105.44 175.29 102.92 172.77 99.82 172.77V172.77Z" fill="#2A5391"/>
<path d="M67.7188 170.84C71.4467 170.84 74.4687 167.518 74.4687 163.42C74.4687 159.322 71.4467 156 67.7188 156C63.9908 156 60.9688 159.322 60.9688 163.42C60.9688 167.518 63.9908 170.84 67.7188 170.84Z" fill="#CED4DA"/>
<path d="M111.72 170.83C115.45 170.83 118.47 167.51 118.47 163.41C118.47 159.31 115.45 155.99 111.72 155.99C107.99 155.99 104.98 159.31 104.98 163.41C104.98 167.51 108 170.83 111.72 170.83Z" fill="#CED4DA"/>
<path d="M74.72 228.09V210.11C71.32 208.34 69 204.78 69 200.69V178.39C69 176.33 69.59 174.4 70.62 172.77H57.62C54.52 172.77 52 175.29 52 178.39V200.69C52 203.79 54.52 206.31 57.62 206.31H57.73V228.09C57.73 230.55 59.72 232.54 62.18 232.54H73.28C74.11 232.54 74.88 232.3 75.54 231.9C75.02 230.73 74.73 229.45 74.73 228.09H74.72Z" fill="#CED4DA"/>
<path d="M121.82 172.77H108.82C109.84 174.4 110.44 176.33 110.44 178.39V200.69C110.44 204.78 108.12 208.34 104.72 210.11V228.09C104.72 229.45 104.43 230.73 103.91 231.9C104.58 232.3 105.34 232.54 106.17 232.54H117.27C119.73 232.54 121.72 230.55 121.72 228.09V206.31H121.83C124.93 206.31 127.45 203.79 127.45 200.69V178.39C127.45 175.29 124.93 172.77 121.83 172.77H121.82Z" fill="#CED4DA"/>
</g>
<defs>
<clipPath id="clip0_246_4789">
<rect width="75.44" height="76.54" fill="white" transform="translate(52 156)"/>
</clipPath>
</defs>
</svg>
