<svg width="315" height="265" viewBox="0 0 315 265" fill="none" xmlns="http://www.w3.org/2000/svg">
<path d="M193.637 186.605V186.267C193.722 182.399 197.6 179.125 205.27 176.415C212.969 173.677 222.28 172.293 233.235 172.293C244.189 172.293 253.528 173.677 261.256 176.415C268.869 179.123 272.747 182.398 272.832 186.265V186.603C272.803 187.423 272.606 188.269 272.18 189.087C271.105 191.233 268.67 193.18 264.878 194.902C263.802 195.382 262.585 195.861 261.256 196.342C253.529 199.136 244.188 200.548 233.235 200.548C222.281 200.548 212.967 199.137 205.27 196.342C203.911 195.861 202.666 195.382 201.562 194.902C197.797 193.18 195.363 191.232 194.26 189.087C193.864 188.269 193.666 187.422 193.637 186.603V186.605ZM201.562 185.927C201.562 187.481 202.553 188.92 204.534 190.246C206.034 191.234 208.157 192.166 210.846 193.012C217.016 194.988 224.489 195.976 233.235 195.976C241.98 195.976 249.453 194.988 255.623 193.012C258.369 192.165 260.491 191.233 261.991 190.246C263.945 188.919 264.936 187.479 264.936 185.927C264.936 183.162 261.822 180.79 255.623 178.841C249.453 176.894 241.98 175.933 233.235 175.933C224.489 175.933 217.016 176.893 210.846 178.841C204.648 180.789 201.562 183.16 201.562 185.927Z" fill="#2A5391"/>
<path d="M204.532 190.246C202.551 188.919 201.56 187.479 201.56 185.927C201.56 183.162 204.646 180.79 210.844 178.841C217.014 176.894 224.487 175.933 233.233 175.933C241.978 175.933 249.451 176.892 255.621 178.841C261.82 180.789 264.934 183.16 264.934 185.927C264.934 187.481 263.943 188.92 261.99 190.246C260.491 189.258 258.367 188.298 255.621 187.423C249.452 185.474 241.978 184.515 233.233 184.515C224.487 184.515 217.014 185.474 210.844 187.423C208.155 188.298 206.032 189.258 204.532 190.246Z" fill="#105EA2"/>
<path d="M255.623 193.012C249.454 194.988 241.98 195.976 233.234 195.976C224.489 195.976 217.016 194.988 210.846 193.012C208.156 192.165 206.034 191.233 204.534 190.246C206.034 189.258 208.156 188.298 210.846 187.423C217.016 185.474 224.489 184.515 233.234 184.515C241.98 184.515 249.453 185.474 255.623 187.423C258.368 188.298 260.492 189.258 261.992 190.246C260.492 191.234 258.368 192.166 255.623 193.012Z" fill="#E3F0FE"/>
<path d="M193.638 186.604C193.667 187.424 193.865 188.27 194.261 189.088C195.366 191.233 197.799 193.182 201.564 194.903C202.668 195.383 203.913 195.862 205.271 196.343C212.97 199.137 222.282 200.55 233.236 200.55C244.189 200.55 253.531 199.139 261.257 196.343C262.587 195.862 263.804 195.383 264.879 194.903C268.673 193.182 271.106 191.233 272.182 189.088C272.606 188.27 272.805 187.423 272.832 186.604V191.855C272.747 195.045 270.086 197.869 264.822 200.268C263.746 200.777 262.558 201.256 261.256 201.736C257.661 203.006 253.727 203.994 249.509 204.7C249.424 204.164 249.283 203.685 249.027 203.204C248.83 202.865 248.602 202.527 248.319 202.216C247.47 201.425 246.451 201.03 245.291 201.03C244.132 201.03 243.14 201.425 242.319 202.216C241.724 202.838 241.357 203.515 241.187 204.249C241.131 204.559 241.102 204.899 241.102 205.237V205.632C238.583 205.802 235.951 205.887 233.235 205.887C222.281 205.887 212.969 204.503 205.27 201.737C204.308 201.427 203.401 201.06 202.552 200.693C201.59 200.269 200.712 199.875 199.919 199.479C198.957 198.887 198.079 198.322 197.314 197.758C194.909 195.951 193.692 193.975 193.634 191.857V186.606L193.638 186.604Z" fill="#0E366B"/>
<path d="M202.553 200.691C203.403 201.057 204.308 201.424 205.27 201.735C212.969 204.501 222.281 205.884 233.235 205.884C235.952 205.884 238.585 205.799 241.104 205.63C241.189 206.589 241.557 207.409 242.207 208.086C236.913 214.607 231.875 219.66 227.148 223.301C220.496 228.44 214.384 230.754 208.864 230.274C207.788 230.274 206.797 230.16 205.892 229.963L202.552 200.688L202.553 200.691Z" fill="#2A5391"/>
<path d="M197.316 197.755C198.08 198.321 198.958 198.884 199.92 199.477C198.051 205.434 197.118 210.627 197.118 215.004C197.005 223.783 199.92 228.752 205.893 229.966C206.798 230.163 207.789 230.276 208.865 230.276C214.384 230.757 220.497 228.441 227.149 223.304C231.876 219.662 236.913 214.61 242.207 208.089C241.556 207.412 241.187 206.593 241.103 205.632V205.237C241.103 204.899 241.132 204.56 241.188 204.249C241.359 203.515 241.726 202.838 242.32 202.217C243.141 201.426 244.132 201.03 245.292 201.03C246.453 201.03 247.471 201.426 248.321 202.217C248.603 202.527 248.831 202.865 249.029 203.205C249.282 203.685 249.425 204.164 249.51 204.701C249.539 204.869 249.539 205.04 249.539 205.237C249.539 206.395 249.143 207.383 248.321 208.172C247.471 209.048 246.453 209.471 245.292 209.471C243.367 212.238 241.811 214.186 240.651 215.287C236.235 219.776 232.019 223.389 227.97 226.156C220.582 231.322 213.818 233.665 207.647 233.128H206.204C199.977 232.648 196.269 229.431 195.052 223.418C193.496 214.411 194.26 205.858 197.316 197.755Z" fill="white"/>
<path d="M206.204 233.127H207.648C213.818 233.663 220.582 231.32 227.97 226.154C232.017 223.387 236.234 219.774 240.649 215.286C241.81 214.185 243.368 212.236 245.291 209.471C246.452 209.471 247.47 209.047 248.319 208.172C249.14 207.382 249.536 206.393 249.536 205.237C249.536 205.04 249.536 204.87 249.508 204.7C253.726 203.994 257.659 203.006 261.254 201.736C262.556 201.256 263.745 200.777 264.82 200.268L258.933 245.068C258.933 245.323 258.876 245.576 258.791 245.887C258.253 247.807 255.819 249.443 251.433 250.799C246.423 252.409 240.365 253.227 233.261 253.227C226.156 253.227 220.099 252.409 215.09 250.799C210.533 249.36 208.07 247.666 207.646 245.69C207.617 245.52 207.617 245.351 207.617 245.209L206.203 233.127H206.204Z" fill="#2A5391"/>
<path d="M187.953 158.854C189.171 158.939 190.388 159.672 191.548 161.112L186.934 216.584L211.219 218.673C213.059 221.355 212.861 223.725 210.625 225.844L208.361 225.645L202.332 225.109L196.954 224.657L190.897 224.149L185.462 223.698L182.716 223.472L187.952 158.854H187.953Z" fill="#0E366B"/>
<path d="M184.556 160.322C185.717 159.278 186.849 158.798 187.953 158.854L182.717 223.472L180.396 223.246L174.933 222.795L168.366 222.229L162.96 221.778L158.574 221.382L155.091 221.1C153.592 218.532 153.762 216.131 155.602 213.958L179.914 216.019L184.556 160.322Z" fill="#0E366B"/>
<path d="M162.963 221.779L168.369 222.231C169.586 226.268 170.011 231.405 169.586 237.616C169.218 242.415 168.568 246.226 167.632 249.078C167.829 250.122 168.226 250.828 168.85 251.195C168.736 251.421 168.624 251.647 168.539 251.901C168.03 252.889 167.407 253.426 166.643 253.453C165.906 253.482 165.228 253.341 164.605 252.973C164.011 252.606 163.643 252.155 163.444 251.589C163.274 250.997 163.444 249.162 163.982 246.028C164.491 242.894 164.859 239.931 165.085 237.191C165.312 234.426 165.255 231.997 164.944 229.908C164.859 229.344 164.746 228.75 164.605 228.131C164.266 226.351 163.728 224.236 162.964 221.779H162.963Z" fill="#ABB9C8"/>
<path d="M174.935 222.796L180.397 223.248C180.794 224.828 181.19 226.804 181.587 229.205C182.237 232.902 182.549 235.585 182.577 237.279C182.606 238.776 182.521 241.373 182.351 245.071C182.266 248.035 182.266 249.672 182.351 249.926C182.436 250.124 182.521 250.322 182.634 250.519C182.661 250.83 182.605 251.168 182.492 251.563C182.351 251.93 181.869 252.41 181.049 252.947C180.228 253.454 179.238 253.738 178.133 253.823C177.001 253.879 176.179 253.145 175.699 251.592C175.359 250.519 175.699 248.176 176.746 244.591C177 243.659 177.171 241.429 177.284 237.844C177.34 236.885 177.199 235.247 176.887 232.932C176.831 232.255 176.717 231.521 176.548 230.73C176.067 227.259 175.614 224.831 175.19 223.476C175.105 223.222 175.02 222.996 174.935 222.799V222.796Z" fill="#ABB9C8"/>
<path d="M174.934 222.796C175.019 222.993 175.104 223.219 175.189 223.473C175.613 224.828 176.066 227.256 176.548 230.728C176.718 231.519 176.83 232.252 176.887 232.93C176.548 236.797 176.066 240.439 175.416 243.826C174.708 247.185 173.491 249.613 171.707 251.165C170.49 251.588 169.557 251.588 168.849 251.194C168.226 250.827 167.829 250.121 167.631 249.077C168.565 246.225 169.215 242.414 169.584 237.614C170.01 231.404 169.584 226.267 168.367 222.229L174.934 222.795V222.796Z" fill="#CED4DA"/>
<path d="M164.291 231.745C163.895 234.877 163.415 237.673 162.848 240.128C161.745 244.843 159.876 247.637 157.243 248.484C156.649 248.654 156.111 248.654 155.629 248.484C154.242 248.146 154.072 246.875 155.119 244.644C155.714 242.923 156.222 241.116 156.704 239.225C157.978 233.806 158.601 227.849 158.573 221.384L162.961 221.779C163.725 224.236 164.263 226.353 164.602 228.13C164.404 230.361 164.319 231.546 164.29 231.745H164.291Z" fill="#CED4DA"/>
<path d="M181.586 229.203C181.19 226.804 180.794 224.828 180.398 223.246L182.72 223.472L185.465 223.698C185.494 225.193 185.606 226.859 185.777 228.667C186.117 231.772 186.626 234.341 187.278 236.401C187.816 238.038 188.296 239.422 188.777 240.523C188.636 241.286 188.495 242.077 188.325 242.895C188.268 243.206 188.154 243.657 187.957 244.25C187.702 245.012 187.334 246.028 186.854 247.27C186.428 248.343 186.316 249.387 186.571 250.375C186.6 250.46 186.627 250.545 186.656 250.628C186.741 250.883 186.826 251.138 186.968 251.363C186.6 251.645 186.203 251.844 185.836 251.985C185.071 252.21 184.336 252.069 183.572 251.533C183.148 251.222 182.836 250.884 182.637 250.518C182.525 250.321 182.44 250.122 182.355 249.925C182.269 249.67 182.269 248.034 182.355 245.07C182.525 241.372 182.61 238.774 182.581 237.277C182.552 235.585 182.242 232.902 181.59 229.203H181.586Z" fill="#CED4DA"/>
<path d="M208.362 225.646C208.758 229.062 208.559 233.58 207.739 239.14C206.607 247.129 204.993 251.448 202.898 252.126C202.275 252.323 201.795 252.351 201.454 252.239C201.002 252.069 200.661 251.647 200.436 250.997C200.407 250.912 200.38 250.856 200.351 250.799C199.927 249.472 200.069 247.411 200.777 244.645C201.823 240.778 202.361 238.491 202.418 237.758C202.671 235.754 202.756 233.128 202.671 229.826C202.586 227.906 202.474 226.325 202.331 225.111L208.36 225.648L208.362 225.646Z" fill="#CED4DA"/>
<path d="M185.463 223.698L190.897 224.149C191.322 225.73 191.547 228.892 191.547 233.634C191.547 235.808 191.208 238.519 190.529 241.765C190.471 242.075 190.359 242.527 190.161 243.119C189.85 242.583 189.594 242.16 189.397 241.849C189.199 241.454 188.971 241.002 188.774 240.522C188.292 239.42 187.812 238.038 187.274 236.4C186.624 234.339 186.113 231.77 185.773 228.665C185.604 226.859 185.49 225.193 185.463 223.696V223.698Z" fill="#ABB9C8"/>
<path d="M196.954 224.659L202.331 225.11C202.472 226.324 202.586 227.905 202.671 229.825C202.756 233.127 202.671 235.753 202.417 237.756C202.361 238.49 201.823 240.778 200.776 244.644C200.068 247.411 199.927 249.472 200.351 250.798C200.38 250.854 200.407 250.91 200.436 250.995C200.38 251.024 200.322 251.108 200.266 251.192C199.105 252.632 198.116 253.479 197.267 253.732C196.615 253.929 195.992 253.873 195.341 253.563C194.746 253.225 194.38 252.829 194.238 252.349C194.097 251.897 194.153 251.22 194.38 250.288C194.465 249.95 194.577 249.582 194.719 249.216C195.708 246.561 196.331 244.812 196.558 243.937C198.058 238.489 198.2 232.08 196.955 224.656L196.954 224.659Z" fill="#ABB9C8"/>
<path d="M191.549 233.636C191.549 228.893 191.322 225.731 190.898 224.151L196.956 224.659C198.201 232.084 198.059 238.491 196.56 243.939C196.333 244.815 195.71 246.564 194.72 249.219C194.578 249.586 194.464 249.953 194.381 250.291C193.559 250.883 192.852 251.279 192.2 251.504C192.115 251.533 192.032 251.533 191.947 251.562C191.409 251.674 190.842 251.562 190.248 251.195C189.54 250.828 189.087 250.263 188.861 249.501C188.832 249.416 188.805 249.331 188.776 249.246C188.521 248.26 188.634 247.214 189.058 246.141C189.54 244.899 189.908 243.883 190.162 243.121C190.359 242.528 190.473 242.077 190.529 241.766C191.208 238.52 191.547 235.809 191.547 233.636H191.549Z" fill="#CED4DA"/>
<path d="M203.91 243.121C203.655 243.883 203.287 244.9 202.806 246.143C202.382 247.216 202.268 248.26 202.523 249.248C202.353 249.502 202.184 249.784 202.041 250.039C201.589 250.575 201.136 251.027 200.71 251.365C200.569 251.139 200.484 250.884 200.4 250.63C200.372 250.545 200.344 250.46 200.315 250.377C200.06 249.389 200.174 248.345 200.598 247.272C201.08 246.029 201.447 245.014 201.701 244.251C201.899 243.659 202.013 243.207 202.069 242.897C202.239 242.078 202.38 241.287 202.522 240.525C202.719 241.005 202.946 241.457 203.145 241.852C203.342 242.162 203.597 242.586 203.909 243.122L203.91 243.121Z" fill="#DDDDDD"/>
<g clip-path="url(#clip0_246_4786)">
<path d="M239.422 94.6147C237.86 92.934 235.968 91.6942 233.769 90.8973C225.958 88.8852 221.361 92.4246 219.975 101.474C219.381 106.938 218.963 112.536 218.765 118.288C218.546 124.018 218.37 129.328 218.26 134.196C218.15 139.041 218.04 142.735 217.952 145.236C217.864 147.736 217.819 149.108 217.819 149.395C217.753 152.073 217.687 154.75 217.621 157.471C221.163 158.998 224.617 158.798 227.982 156.829C228.291 156.652 228.598 156.453 228.907 156.254C229.236 156.077 229.567 155.944 229.897 155.834H229.963V155.811C229.985 154.706 230.006 153.576 230.006 152.448C230.006 149.461 229.984 147.603 229.963 146.894L230.116 146.85C231.238 149.815 232.229 152.823 233.107 155.855C233.24 155.899 233.371 155.944 233.504 156.01C233.68 156.076 233.856 156.143 234.054 156.253C234.891 156.762 235.727 157.205 236.54 157.537C239.422 158.709 242.259 158.798 245.01 157.781L244.724 154.904L244.327 151.187L243.975 147.824L243.822 146.232L240.829 117.381C242.391 127.315 244.151 136.94 246.109 146.21C246.571 146.166 247.055 146.1 247.517 146.011C250.003 145.524 252.401 144.395 254.754 142.626L243.932 104.373C243.074 100.811 241.556 97.5588 239.422 94.6158V94.6147Z" fill="#CED4DA"/>
<path d="M256.03 147.138L255.172 144.085C252.774 145.921 250.311 147.094 247.781 147.603C247.342 147.692 246.901 147.757 246.461 147.801C246.703 148.908 246.945 150.014 247.187 151.121C247.517 151.077 247.869 151.032 248.221 150.965C250.905 150.434 253.5 149.151 256.03 147.137V147.138Z" fill="#CED4DA"/>
<path d="M256.933 150.369L256.031 147.139C253.502 149.152 250.906 150.436 248.221 150.967C247.869 151.033 247.517 151.077 247.188 151.122C247.452 152.338 247.715 153.577 248.001 154.794C248.2 154.749 248.375 154.705 248.573 154.684C251.454 154.131 254.248 152.692 256.932 150.369H256.933Z" fill="white"/>
<path d="M254.755 142.625C252.401 144.395 250.003 145.523 247.517 146.01C247.055 146.099 246.571 146.166 246.109 146.21C246.219 146.741 246.351 147.272 246.461 147.803C246.902 147.758 247.341 147.692 247.782 147.603C250.311 147.095 252.775 145.921 255.173 144.085L254.755 142.625Z" fill="white"/>
<path d="M247.189 151.121C246.947 150.014 246.704 148.909 246.462 147.803C245.626 147.869 244.79 147.869 243.977 147.825L244.328 151.188C245.274 151.254 246.242 151.233 247.188 151.121H247.189Z" fill="#ABB9C8"/>
<path d="M248.575 154.683C248.377 154.705 248.201 154.749 248.004 154.793C248.751 158.045 249.521 161.253 250.335 164.417C253.503 163.798 256.561 162.117 259.487 159.396L256.935 150.369C254.251 152.692 251.458 154.131 248.575 154.684V154.683Z" fill="#CED4DA"/>
<path d="M248.002 154.794C247.716 153.577 247.452 152.338 247.188 151.122C246.242 151.233 245.274 151.255 244.328 151.189L244.725 154.906C245.824 154.972 246.925 154.95 248.003 154.796L248.002 154.794Z" fill="#D1ECFA"/>
<path d="M243.82 146.232L243.974 147.824C244.788 147.868 245.624 147.868 246.46 147.802C246.35 147.271 246.218 146.74 246.108 146.209C245.338 146.275 244.589 146.275 243.82 146.232Z" fill="#D1ECFA"/>
<path d="M243.82 146.231C244.59 146.275 245.338 146.275 246.108 146.209C244.15 136.939 242.389 127.314 240.828 117.38L243.82 146.23V146.231Z" fill="#ABB9C8"/>
<path d="M230.118 146.851L229.965 146.895C229.987 147.603 230.009 149.462 230.009 152.449C230.009 153.577 229.986 154.705 229.965 155.812C230.998 155.48 232.055 155.502 233.111 155.856C232.231 152.825 231.241 149.816 230.119 146.851H230.118Z" fill="#ABB9C8"/>
<path d="M233.506 156.011C233.374 155.944 233.242 155.9 233.109 155.856C233.242 156.343 233.373 156.83 233.506 157.339C233.682 157.405 233.858 157.472 234.056 157.582C234.892 158.091 235.728 158.533 236.542 158.865C239.468 160.06 242.35 160.126 245.144 159.042L245.012 157.781C242.262 158.798 239.425 158.71 236.542 157.537C235.728 157.205 234.892 156.763 234.056 156.253C233.858 156.143 233.682 156.076 233.506 156.01V156.011Z" fill="white"/>
<path d="M233.507 157.338C233.375 156.83 233.243 156.343 233.11 155.856C232.055 155.502 230.999 155.48 229.965 155.812V155.835C229.942 156.277 229.921 156.72 229.898 157.163C231.109 156.786 232.297 156.83 233.506 157.339L233.507 157.338Z" fill="#D1ECFA"/>
<path d="M234.054 157.581C233.856 157.47 233.68 157.404 233.504 157.337C233.878 158.687 234.208 160.037 234.537 161.409C235.043 161.696 235.571 161.962 236.098 162.205C236.121 162.227 236.143 162.227 236.165 162.25C236.208 162.272 236.252 162.294 236.297 162.316C236.363 162.339 236.45 162.383 236.539 162.405C236.583 162.428 236.627 162.45 236.671 162.472C236.694 162.472 236.715 162.472 236.737 162.494C236.76 162.517 236.803 162.517 236.847 162.538C239.596 163.578 242.303 163.622 244.965 162.649C245.141 162.582 245.317 162.516 245.492 162.45V162.428L245.141 159.043C242.347 160.127 239.465 160.061 236.539 158.866C235.725 158.534 234.889 158.091 234.053 157.583L234.054 157.581Z" fill="#CED4DA"/>
<path d="M229.897 155.834C229.568 155.944 229.237 156.077 228.908 156.254C228.599 156.454 228.291 156.652 227.983 156.829C224.617 158.798 221.163 158.998 217.622 157.47C217.599 157.891 217.599 158.333 217.578 158.776C221.142 160.324 224.617 160.125 227.983 158.156C228.291 157.979 228.598 157.779 228.908 157.581C229.237 157.404 229.568 157.271 229.897 157.16C229.92 156.717 229.941 156.275 229.963 155.833H229.897V155.834Z" fill="white"/>
<path d="M229.898 157.162C229.568 157.272 229.238 157.405 228.908 157.582C228.6 157.782 228.292 157.98 227.984 158.157C224.618 160.126 221.141 160.325 217.579 158.777C217.535 159.928 217.491 161.1 217.469 162.272C221.076 163.865 224.574 163.666 227.984 161.697C228.292 161.52 228.599 161.321 228.908 161.122C229.149 160.989 229.414 160.878 229.677 160.789C229.766 159.594 229.832 158.377 229.897 157.161L229.898 157.162Z" fill="#CED4DA"/>
<path d="M229.676 160.79C229.413 160.879 229.149 160.99 228.908 161.123C228.599 161.321 228.291 161.52 227.983 161.698C224.574 163.667 221.076 163.866 217.468 162.273C217.424 163.424 217.381 164.575 217.336 165.747C220.987 167.407 224.529 167.23 227.983 165.239C228.291 165.062 228.598 164.862 228.908 164.664C229.017 164.598 229.149 164.554 229.282 164.487C229.435 163.27 229.568 162.053 229.677 160.792L229.676 160.79Z" fill="white"/>
<path d="M234.057 161.122C234.211 161.232 234.387 161.32 234.541 161.409C234.211 160.037 233.881 158.688 233.507 157.338C232.298 156.829 231.11 156.784 229.899 157.161C229.833 158.377 229.767 159.594 229.68 160.789C230.758 160.369 231.835 160.325 232.913 160.656C233.068 160.7 233.243 160.767 233.42 160.833C233.442 160.833 233.463 160.833 233.486 160.854C233.684 160.921 233.86 161.01 234.057 161.12V161.122Z" fill="#ABB9C8"/>
<path d="M234.539 161.409C234.385 161.32 234.208 161.232 234.054 161.121C233.856 161.011 233.68 160.922 233.483 160.855C233.461 160.834 233.438 160.834 233.417 160.834C233.241 160.767 233.065 160.701 232.911 160.657C231.833 160.324 230.755 160.369 229.677 160.79C229.567 162.051 229.435 163.267 229.281 164.485C230.865 163.754 232.45 163.821 234.054 164.662C234.494 164.927 234.934 165.17 235.374 165.413C235.22 164.662 235.065 163.909 234.912 163.134C234.802 162.559 234.67 161.984 234.538 161.409H234.539Z" fill="#D1ECFA"/>
<path d="M234.539 161.409C234.67 161.984 234.802 162.56 234.913 163.135C235.067 163.909 235.222 164.662 235.375 165.414C235.772 165.612 236.166 165.79 236.542 165.945C239.731 167.25 242.834 167.206 245.891 165.812L245.715 164.55L245.495 162.448C245.319 162.515 245.143 162.58 244.967 162.647C242.306 163.62 239.6 163.575 236.851 162.536C236.806 162.514 236.763 162.514 236.741 162.492C236.719 162.47 236.697 162.47 236.675 162.47C236.631 162.447 236.588 162.426 236.543 162.403C236.454 162.381 236.367 162.337 236.301 162.314C236.257 162.292 236.213 162.27 236.169 162.248C236.146 162.225 236.125 162.225 236.102 162.203C235.575 161.959 235.047 161.694 234.541 161.407L234.539 161.409Z" fill="white"/>
<path d="M245.012 157.78L245.145 159.042L245.497 162.427V162.449L245.716 164.551C247.278 164.75 248.818 164.706 250.336 164.418C249.522 161.254 248.752 158.046 248.005 154.794C246.927 154.949 245.826 154.971 244.727 154.905L245.012 157.781V157.78Z" fill="#ABB9C8"/>
<path d="M235.374 165.414C234.934 165.17 234.494 164.927 234.054 164.662C232.448 163.821 230.865 163.754 229.281 164.485C229.171 165.215 229.061 165.946 228.952 166.675C228.71 168.201 228.38 170.081 227.984 172.316C228.293 172.139 228.601 171.94 228.908 171.742C230.624 170.834 232.34 170.834 234.055 171.742C234.892 172.25 235.728 172.693 236.541 173.024C236.255 170.547 235.881 168.003 235.376 165.414H235.374Z" fill="#ABB9C8"/>
<path d="M236.542 165.944C236.167 165.79 235.772 165.612 235.375 165.414C235.882 168.002 236.255 170.546 236.542 173.024C240.039 174.44 243.427 174.242 246.748 172.449L245.891 165.813C242.833 167.206 239.731 167.251 236.542 165.946V165.944Z" fill="#CED4DA"/>
<path d="M228.953 166.675C229.063 165.945 229.173 165.214 229.282 164.485C229.15 164.551 229.019 164.595 228.908 164.662C228.6 164.86 228.292 165.06 227.985 165.237C224.531 167.228 220.989 167.405 217.337 165.745C217.249 168.047 217.161 170.37 217.051 172.693C220.813 174.485 224.442 174.374 227.985 172.317C228.38 170.081 228.71 168.201 228.952 166.675H228.953Z" fill="#CED4DA"/>
<path d="M259.155 96.1633C257.989 95.522 256.406 95.079 254.447 94.8581C253.48 94.7036 250.663 94.4816 246.022 94.1942H245.803C242.899 94.1942 240.787 94.1727 239.467 94.1051C238.103 94.0386 237.333 94.0161 237.135 94.0161C236.057 94.0161 235.288 94.0826 234.804 94.1931C234.297 94.3261 233.792 94.6135 233.308 95.0339C232.494 95.7418 231.944 96.3167 231.613 96.7371C231.503 96.8916 231.372 97.0696 231.218 97.312C230.601 98.3963 230.36 99.5461 230.514 100.719C230.733 101.161 231.019 101.56 231.394 101.937C231.46 102.025 231.547 102.114 231.636 102.18C233.109 100.831 234.033 100.034 234.451 99.7692C235.418 99.1278 236.519 98.8179 237.773 98.8179C238.586 98.8179 240.457 99.2383 243.338 100.079C244.504 100.412 245.516 100.699 246.373 100.92C244.9 101.85 243.954 102.336 243.536 102.402C237.728 103.354 234.604 104.172 234.186 104.858C233.835 105.456 233.659 106.274 233.659 107.292C233.659 107.845 233.747 108.331 233.944 108.753C235.154 109.04 236.451 109.24 237.838 109.306C238.52 109.329 239.862 109.329 241.907 109.262C242.524 109.24 242.985 109.351 243.315 109.55C243.578 109.705 243.82 109.993 244.019 110.391C244.041 110.413 244.062 110.457 244.085 110.501H244.019C239.927 110.722 237.288 110.744 236.1 110.567C235.748 110.855 235.506 111.12 235.352 111.386C235.242 111.585 235.154 111.894 235.044 112.316C234.934 112.714 234.868 113.046 234.868 113.288C234.868 113.554 234.89 113.798 234.934 114.041C236.1 114.594 237.552 114.97 239.312 115.17C240.566 115.324 242.017 115.457 243.623 115.568C243.755 115.612 244.02 115.634 244.437 115.634C244.723 115.634 244.898 115.722 244.965 115.877C245.008 115.943 245.118 116.143 245.317 116.452C245.449 116.652 245.536 116.829 245.602 116.983C241.62 116.873 239.068 116.74 237.969 116.584C237.969 116.607 237.969 116.628 237.947 116.695C237.748 117.226 237.638 117.735 237.638 118.222C237.638 120.058 239.025 121.63 241.818 122.979C243.929 123.974 247.867 125.213 253.653 126.74C255.083 127.005 256.6 127.073 258.185 126.917C259.57 126.74 262.078 126.342 265.731 125.745C268.128 125.324 270.174 125.081 271.846 124.992C271.89 124.992 271.934 125.015 272 125.036C272.375 125.058 273.408 125.08 275.146 125.125C277.456 125.213 285.288 125.545 298.684 126.143L298.53 107.006L271.429 105.988C270.46 105.988 269.471 105.589 268.48 104.77C267.358 103.642 265.599 101.894 263.201 99.5268C261.507 97.8676 260.143 96.7393 259.153 96.1644L259.155 96.1633Z" fill="#E3F0FE"/>
<path d="M238.387 101.186C239.003 101.274 239.421 101.34 239.619 101.384C239.95 101.407 240.499 101.517 241.29 101.717C242.259 102.004 243.006 102.225 243.534 102.402C243.952 102.336 244.898 101.849 246.372 100.92C245.514 100.699 244.502 100.412 243.336 100.079C240.453 99.2383 238.584 98.8179 237.77 98.8179C236.516 98.8179 235.416 99.1278 234.448 99.7692C234.03 100.034 233.107 100.831 231.633 102.18C232.248 102.734 232.952 103.044 233.767 103.154C234.713 102.38 235.35 101.871 235.636 101.649C236.054 101.317 236.604 101.162 237.265 101.162C237.265 101.096 237.639 101.118 238.386 101.185L238.387 101.186Z" fill="#ABB9C8"/>
<path d="M237.839 109.305C236.454 109.238 235.155 109.04 233.945 108.751C234.165 109.238 234.517 109.659 234.979 109.99C235.308 110.234 235.682 110.432 236.101 110.565C237.289 110.742 239.928 110.72 244.02 110.499V110.388C243.821 109.99 243.579 109.703 243.316 109.547C242.985 109.349 242.525 109.237 241.908 109.26C239.863 109.326 238.52 109.326 237.839 109.304V109.305Z" fill="#ABB9C8"/>
<path d="M244.02 110.389V110.501H244.086C244.064 110.456 244.041 110.411 244.02 110.389Z" fill="#FBBC9A"/>
<path d="M245.607 116.983C245.541 116.828 245.452 116.651 245.321 116.453C245.123 116.143 245.013 115.944 244.968 115.877C244.902 115.722 244.727 115.634 244.44 115.634C244.022 115.634 243.759 115.612 243.627 115.568C242.021 115.457 240.569 115.324 239.315 115.17C237.554 114.97 236.103 114.594 234.938 114.042C235.113 115.059 235.685 115.79 236.653 116.209C237.028 116.364 237.467 116.497 237.974 116.586C239.073 116.74 241.625 116.873 245.607 116.985V116.983Z" fill="#ABB9C8"/>
<path d="M279.461 102.899L279.711 129.378L315.049 128.777V102.275L279.461 102.899Z" fill="#0E366B"/>
<path d="M243.382 185.591C243.316 185.747 243.25 185.924 243.206 186.078C243.14 186.411 243.074 186.72 243.009 187.052C242.899 188.446 243.493 189.662 244.791 190.659C245.824 191.256 246.881 191.256 247.959 190.659C248.993 189.862 249.587 188.933 249.697 187.849C249.741 187.495 249.741 187.162 249.697 186.875C249.654 186.61 249.61 186.365 249.544 186.145C249.478 185.901 249.39 185.658 249.28 185.414C249.193 185.171 249.083 184.95 248.929 184.728C248.796 184.44 248.643 184.153 248.444 183.843C248.291 183.577 248.115 183.312 247.96 183.025C247.894 182.937 247.85 182.826 247.807 182.715C247.455 182.073 247.147 181.432 246.861 180.79C246.575 180.148 246.245 180.148 245.871 180.79C245.585 181.476 245.255 182.162 244.859 182.893C244.771 183.047 244.683 183.203 244.596 183.401C244.486 183.6 244.354 183.777 244.244 183.932C244.09 184.197 243.913 184.463 243.76 184.75C243.627 184.994 243.496 185.281 243.385 185.591H243.382Z" fill="white"/>
<path d="M216.215 185.591C216.149 185.747 216.083 185.924 216.039 186.078C215.973 186.411 215.907 186.72 215.84 187.052C215.753 188.446 216.347 189.662 217.622 190.659C218.657 191.256 219.713 191.256 220.791 190.659C221.825 189.862 222.419 188.933 222.529 187.849C222.574 187.495 222.574 187.162 222.529 186.875C222.485 186.61 222.442 186.365 222.397 186.145C222.331 185.901 222.221 185.658 222.111 185.414C222.022 185.171 221.913 184.95 221.759 184.728C221.627 184.44 221.473 184.153 221.275 183.843C221.121 183.577 220.944 183.312 220.791 183.025C220.725 182.937 220.681 182.826 220.637 182.715C220.285 182.073 219.977 181.432 219.691 180.79C219.428 180.148 219.097 180.148 218.702 180.79C218.416 181.476 218.085 182.162 217.69 182.893C217.601 183.047 217.514 183.203 217.426 183.401C217.316 183.6 217.184 183.777 217.074 183.932C216.921 184.197 216.745 184.463 216.59 184.75C216.459 184.994 216.327 185.281 216.216 185.591H216.215Z" fill="white"/>
<path d="M236.099 186.875C236.056 186.61 236.011 186.365 235.967 186.145C235.901 185.901 235.791 185.658 235.681 185.414C235.594 185.171 235.484 184.95 235.352 184.728C235.198 184.44 235.044 184.153 234.868 183.843C234.714 183.577 234.538 183.312 234.384 183.025C234.317 182.937 234.251 182.826 234.208 182.715C233.877 182.073 233.569 181.432 233.283 180.79C232.997 180.148 232.667 180.148 232.271 180.79C232.008 181.476 231.677 182.162 231.28 182.893C231.193 183.047 231.104 183.203 230.995 183.401C230.885 183.6 230.775 183.777 230.665 183.932C230.511 184.197 230.334 184.463 230.181 184.75C230.027 184.994 229.895 185.281 229.784 185.591C229.718 185.747 229.674 185.924 229.631 186.078C229.565 186.411 229.477 186.72 229.411 187.052C229.322 188.446 229.916 189.662 231.215 190.659C232.249 191.256 233.305 191.256 234.384 190.659C235.417 189.862 235.99 188.933 236.099 187.849C236.143 187.495 236.143 187.162 236.099 186.875Z" fill="white"/>
</g>
<g clip-path="url(#clip1_246_4786)">
<path d="M50.774 239.339C50.774 247.73 57.541 254.543 65.8821 254.543C74.2231 254.543 80.9961 247.736 80.9961 239.339C80.9961 230.943 67.2712 217.832 65.8821 204.206C64.4988 217.832 50.774 230.943 50.774 239.339Z" fill="#CCD8F0"/>
<path d="M56.8563 234.301C56.8563 234.301 51.7467 241.157 58.168 247.346L56.8563 234.301Z" fill="#CCD8F0"/>
<path d="M56.8563 234.301C56.8563 234.301 51.7467 241.157 58.168 247.346" stroke="white" stroke-width="1.49142" stroke-linecap="round" stroke-linejoin="round"/>
<path d="M74.3531 197.992C73.5482 183.724 61.7551 167.704 47.3744 167.704H45.9375V167.68C45.9375 166.523 45.0074 165.587 43.8567 165.587H32.6777V160.909H38.9022C39.6951 160.909 40.3391 160.261 40.3391 159.464V157.616C40.3391 156.819 39.6951 156.171 38.9022 156.171H16.6455C15.8525 156.171 15.2086 156.819 15.2086 157.622V159.464C15.2086 160.261 15.8525 160.909 16.6455 160.909H23.335V165.587H13.6227C12.472 165.587 11.5419 166.523 11.5419 167.68V168.994H2.05016C0.89946 168.994 -0.030632 169.929 -0.030632 171.087V182.95C-0.030632 184.108 0.905426 185.043 2.05016 185.043H11.5419V186.357C11.5419 187.514 12.472 188.45 13.6227 188.45H43.8508C45.0015 188.45 45.9316 187.508 45.9316 186.351V186.327H47.3684C51.6254 186.327 55.1669 194.136 55.781 198.262C55.8883 198.994 56.5024 199.539 57.2417 199.539H72.8805C73.7211 199.539 74.4008 198.832 74.3531 197.986V197.992Z" fill="#ABB9C8"/>
</g>
<defs>
<clipPath id="clip0_246_4786">
<rect width="99" height="116" fill="white" transform="translate(216 90)"/>
</clipPath>
<clipPath id="clip1_246_4786">
<rect width="81" height="100" fill="white" transform="matrix(-1 0 0 1 81.332 155)"/>
</clipPath>
</defs>
</svg>
