<svg width="193" height="53" viewBox="0 0 193 53" fill="none" xmlns="http://www.w3.org/2000/svg">
<path d="M15.2464 5.87134C15.2464 5.87134 0.689323 27.5783 1.20066 35.3038C1.19179 35.173 5.35238 32.8004 8.5879 32.0395C11.8201 31.2775 12.845 31.2686 14.4811 31.1166C16.1848 30.9569 19.0443 30.8127 19.6532 30.3934C19.6244 30.4023 17.8741 30.0096 16.8692 28.8117C16.0495 27.8345 14.9624 27.443 13.7789 27.1956C13.7789 27.1956 14.6363 25.2645 16.8758 24.7532C16.8758 24.7532 15.212 19.5721 18.1214 15.5114C18.1214 15.5114 18.9189 18.2888 20.6116 19.2471C20.6116 19.2471 21.5211 19.8849 23.8682 20.1245C23.8649 20.1245 17.64 8.97598 15.2464 5.87134Z" fill="url(#paint0_linear_225_4738)"/>
<path d="M3.13281 35.4879C9.62604 33.0588 13.953 32.7072 14.9524 32.6118C15.8386 32.5275 17.8951 32.3555 20.7746 31.2597C23.6008 30.3057 26.4359 28.1683 26.4891 25.554C26.4891 25.554 27.1824 27.241 27.3 27.7346C27.3 27.7346 26.7165 32.3799 17.6189 33.6522C13.1023 34.3765 10.357 33.3161 3.13281 35.4879Z" fill="url(#paint1_linear_225_4738)"/>
<path d="M1.64844 37.1496C1.64844 37.1496 3.3688 35.7587 6.64536 35.3826C7.07351 35.3261 7.5061 35.2884 7.93758 35.2584C8.36794 35.2262 8.80053 35.2018 9.23201 35.1907C10.2325 35.163 11.2086 35.1797 12.208 35.0854C12.8236 35.0277 13.437 34.9523 14.0459 34.848C14.372 34.7914 14.6959 34.7293 15.0176 34.6539C15.2394 34.604 15.7352 34.5663 15.906 34.4143C15.9049 34.4165 14.8656 35.3338 11.1687 35.9705C11.1687 35.9705 9.21204 36.2057 7.77452 36.2057C5.81901 36.2068 2.01004 36.8734 1.64844 37.1496Z" fill="url(#paint2_linear_225_4738)"/>
<path d="M2.00781 39.6375C2.00781 39.6375 4.49796 37.9371 8.92697 37.4346C8.92697 37.4346 10.6995 37.1473 13.955 36.8844C13.955 36.8844 16.3497 36.7647 19.0306 36.2367C19.0306 36.2367 25.0635 35.4003 28.0085 29.1755C28.0085 29.1755 29.4926 31.5692 29.3251 35.7353C29.253 37.5222 28.644 39.4034 27.8831 41.0007C27.3296 42.1609 26.5499 43.269 25.7335 44.2495C25.1612 44.9361 24.4934 45.545 23.7802 46.0819C22.3871 47.1312 20.8331 47.82 19.1737 48.328C19.1737 48.328 14.7214 49.6923 10.2924 48.0407C10.2924 48.0407 3.6827 45.646 2.00781 39.6375Z" fill="url(#paint3_linear_225_4738)"/>
<path d="M24.8161 26.7752C24.8161 26.7752 26.0062 24.2706 24.724 22.5591C24.0074 21.6041 22.4069 21.0673 21.2722 20.7267C19.4387 20.1766 18.4016 18.9243 18.0954 17.5811C18.0999 17.6465 16.7211 20.6657 17.9424 24.4536C17.9424 24.4547 22.1274 23.6905 23.1312 27.9376C23.1312 27.9376 23.7756 27.7823 24.1738 27.3863C24.1738 27.3863 23.2876 23.3245 19.5873 21.9236C19.5884 21.9236 23.3186 22.0411 24.8161 26.7752Z" fill="url(#paint4_linear_225_4738)"/>
<path d="M22.0119 28.8094C22.0119 28.8094 20.2327 28.836 18.58 26.7197C18.58 26.7197 20.6964 28.1062 22.2515 28.3324C22.2515 28.3324 22.3081 25.7502 19.5639 25.3398C19.5639 25.3398 16.9606 24.8274 15.1992 26.6343C15.1992 26.6343 16.5846 26.8483 17.279 27.6359C18.5401 29.0678 20.4269 30.299 22.0119 28.8094Z" fill="url(#paint5_linear_225_4738)"/>
<path d="M37.5943 27.1314H43.046V24.0445H35.1641V21.7229H47.9065C48.0673 21.0374 48.176 20.3486 48.2348 19.6543C48.2936 18.961 48.3224 18.3587 48.3224 17.8474V16.8846H37.5943V14.542H51.081V17.6954C51.081 17.9428 51.0699 18.2267 51.0488 18.5484C51.0267 18.8701 50.9978 19.2128 50.9612 19.5777C50.9246 19.9427 50.8814 20.3076 50.8292 20.6714C50.7782 21.0374 50.7239 21.3868 50.6651 21.7229H53.8174V24.0445H45.8046V27.1314H51.2995V34.401H48.541V29.4529H37.5943V27.1314V27.1314Z" fill="#231F20"/>
<path d="M55.4805 27.7669C56.5752 27.1103 57.5092 26.5257 58.2823 26.0144C59.0554 25.5053 59.7021 25.0328 60.2201 24.6024C60.7381 24.172 61.1429 23.7638 61.4346 23.3778C61.7275 22.9907 61.9493 22.6003 62.1024 22.2065C62.2554 21.8117 62.3508 21.3957 62.3874 20.9587C62.424 20.5206 62.4418 20.0325 62.4418 19.4912V18.0249H55.852V15.6379H65.2225V19.6232C65.2225 20.3664 65.1859 21.0352 65.1127 21.6264C65.0395 22.2176 64.8975 22.7722 64.6857 23.2902C64.4749 23.8071 64.1821 24.3073 63.8105 24.7898C63.4378 25.2712 62.9454 25.7715 62.332 26.2895C61.7197 26.8064 60.9699 27.3621 60.0881 27.9533C59.2051 28.5445 58.1581 29.2122 56.9457 29.9576L55.4805 27.7669ZM71.1778 21.2205H73.9796V23.6285H71.1778V34.1603H68.3982V13.7988H71.1778V21.2205Z" fill="#231F20"/>
<path d="M75.3398 27.7669C76.4335 27.1103 77.3686 26.5257 78.1417 26.0144C78.9148 25.5053 79.5603 25.0328 80.0794 24.6024C80.5974 24.172 81.0023 23.7638 81.294 23.3778C81.5857 22.9907 81.8087 22.6003 81.9617 22.2065C82.1148 21.8117 82.2102 21.3957 82.2468 20.9587C82.2834 20.5206 82.3012 20.0325 82.3012 19.4912V18.0249H75.7114V15.6379H85.0819V19.6232C85.0819 20.3664 85.0453 21.0352 84.9721 21.6264C84.8989 22.2176 84.7569 22.7722 84.5451 23.2902C84.3343 23.8071 84.0415 24.3073 83.6699 24.7898C83.2972 25.2712 82.8047 25.7715 82.1913 26.2895C81.578 26.8064 80.8304 27.3621 79.9474 27.9533C79.0645 28.5445 78.0174 29.2122 76.8051 29.9576L75.3398 27.7669ZM91.0372 21.2205H93.8401V23.6285H91.0383V34.1603H88.2575V13.7988H91.0383V21.2205H91.0372Z" fill="#231F20"/>
<path d="M102.683 27.0438V25.2702H94.7344V23.0363H113.388V25.2702H105.44V27.0427H110.782V34.1593H97.341V27.0427H102.683V27.0438ZM110.761 14.4333V21.6575H97.3621V14.4333H110.761ZM100.077 31.9487H108.048V29.2555H100.077V31.9487ZM100.1 19.4469H108.025V16.644H100.1V19.4469Z" fill="#231F20"/>
<path d="M115.557 15.0246H126.066V17.3672H122.279V18.7027C122.279 18.9656 122.297 19.2063 122.332 19.4259C122.37 19.6444 122.443 19.8563 122.552 20.0603C122.662 20.2644 122.806 20.4652 122.99 20.6615C123.173 20.8601 123.409 21.0675 123.701 21.286C124.17 21.6365 124.665 21.9937 125.192 22.3597C125.716 22.7246 126.255 23.0818 126.811 23.4323L125.345 25.3801C124.366 24.7378 123.469 24.1178 122.652 23.5177C122.184 23.1827 121.812 22.8988 121.535 22.6647C121.257 22.4318 121.097 22.2554 121.052 22.1401H121.031C120.987 22.271 120.819 22.4795 120.526 22.7635C120.234 23.0474 119.833 23.3879 119.322 23.7817C118.855 24.161 118.377 24.5382 117.888 24.9097C117.4 25.2813 116.877 25.6585 116.324 26.0378L114.703 24.0235C115.403 23.5565 116.064 23.0818 116.684 22.6004C117.304 22.119 117.848 21.6742 118.315 21.2649C118.696 20.9288 118.99 20.5539 119.202 20.1369C119.413 19.7209 119.519 19.2429 119.519 18.7027V17.3672H115.558V15.0246H115.557ZM125.189 34.7716C124.284 34.7716 123.445 34.684 122.67 34.5098C121.896 34.3346 121.225 34.0784 120.656 33.7445C120.087 33.4073 119.638 32.9991 119.31 32.5177C118.981 32.0363 118.818 31.4884 118.818 30.8761V29.9133C118.818 29.2999 118.981 28.752 119.31 28.2717C119.638 27.7914 120.087 27.3821 120.656 27.0461C121.226 26.7111 121.896 26.456 122.67 26.2807C123.444 26.1055 124.283 26.0167 125.189 26.0167C126.093 26.0167 126.932 26.1055 127.707 26.2807C128.48 26.456 129.153 26.7111 129.721 27.0461C130.29 27.3833 130.739 27.7914 131.067 28.2717C131.395 28.752 131.561 29.3011 131.561 29.9133V30.8761C131.561 31.4895 131.395 32.0374 131.067 32.5177C130.739 33.0002 130.29 33.4084 129.721 33.7445C129.151 34.0795 128.48 34.3346 127.707 34.5098C126.933 34.684 126.095 34.7716 125.189 34.7716ZM125.189 28.2695C124.706 28.2695 124.247 28.3183 123.81 28.4115C123.37 28.5069 122.984 28.6378 122.649 28.8064C122.312 28.9727 122.044 29.1702 121.84 29.3964C121.636 29.6227 121.534 29.8667 121.534 30.1307V30.6554C121.534 30.9194 121.636 31.1634 121.84 31.3897C122.044 31.6159 122.313 31.8134 122.649 31.9798C122.984 32.1484 123.37 32.2792 123.81 32.3746C124.248 32.4689 124.707 32.5155 125.189 32.5155C125.671 32.5155 126.131 32.4689 126.568 32.3746C127.006 32.2781 127.392 32.1484 127.727 31.9798C128.064 31.8134 128.334 31.6159 128.538 31.3897C128.742 31.1634 128.843 30.9194 128.843 30.6554V30.1307C128.843 29.8667 128.741 29.6227 128.538 29.3964C128.333 29.1702 128.063 28.9727 127.727 28.8064C127.392 28.6378 127.006 28.5058 126.568 28.4115C126.131 28.3183 125.671 28.2695 125.189 28.2695ZM128.737 21.1551H125.475V18.8125H128.737V13.8H131.494V25.9069H128.737V21.1551Z" fill="#231F20"/>
<path d="M145.156 25.9269V29.2556H153.103V31.5982H134.449V29.2556H142.397V25.9269H136.967V15.1987H139.726V18.4609H147.827V15.1987H150.586V25.9258H145.156V25.9269ZM147.827 23.6064V20.8057H139.726V23.6064H147.827Z" fill="#231F20"/>
<path d="M162.254 29.2765V25.8169H156.212V23.5176H158.816V17.7165H156.344V15.4182H170.88V17.7165H168.495V23.5176H171.056V25.8169H165.013V29.2765H172.961V31.598H154.309V29.2765H162.254V29.2765ZM161.575 23.5176H165.736V17.7165H161.575V23.5176Z" fill="#231F20"/>
<path d="M184.501 14.4334V16.623H177.713V18.0017H184.041V20.1912H177.713V21.5921C179.202 21.5921 180.6 21.5744 181.904 21.5378C183.212 21.5012 184.536 21.418 185.88 21.286L186.12 23.4545C185.493 23.5277 184.817 23.5854 184.095 23.6297C183.373 23.6741 182.565 23.7063 181.676 23.7285C180.784 23.7506 179.796 23.7651 178.709 23.7728C177.622 23.7806 176.392 23.7839 175.02 23.7839V14.4334H184.501ZM191.067 25.0295V30.7219H180.975V32.1883H191.681V34.3789H178.303V28.6422H188.396V27.198H178.194V25.0295H191.067ZM191.067 24.11H188.311V19.9727H185.135V17.761H188.311V13.8H191.067V24.11Z" fill="#231F20"/>
<path d="M36.3797 38.1735L39.166 43.0107C39.2392 43.1294 39.3213 43.2802 39.41 43.4632C39.4999 43.644 39.5875 43.8426 39.674 44.0544V38.1724H40.5891V45.3477H39.4544L36.6681 40.5316C36.5949 40.3985 36.5139 40.2421 36.4241 40.0624C36.3353 39.885 36.2466 39.6875 36.1612 39.4768V45.3477H35.2461V38.1724H36.3797V38.1735Z" fill="#58595B"/>
<path d="M43.3773 45.4276C42.826 45.4276 42.3901 45.2922 42.0684 45.0205C41.7468 44.7487 41.5859 44.3738 41.5859 43.8958V43.6273C41.5859 43.1626 41.7423 42.7843 42.0529 42.4926C42.3646 42.2009 42.8693 42.0545 43.5659 42.0545H44.949V41.7362C44.949 41.3723 44.8614 41.1017 44.685 40.9253C44.5098 40.7512 44.2225 40.6625 43.8243 40.6625C43.506 40.6625 43.2287 40.7124 42.9935 40.8122C42.7584 40.9109 42.5143 41.044 42.2614 41.2104L41.7834 40.4927C42.0485 40.3086 42.3468 40.1467 42.6796 40.0102C43.0113 39.8749 43.3961 39.8062 43.8343 39.8062C44.1393 39.8062 44.4177 39.8439 44.6695 39.9204C44.9213 39.9969 45.1387 40.1101 45.3217 40.2598C45.5036 40.4096 45.6456 40.5915 45.7499 40.8066C45.853 41.0218 45.904 41.2659 45.904 41.5387V45.3499H44.9779V44.6922H44.9679C44.9146 44.792 44.8436 44.8829 44.7538 44.965C44.664 45.0482 44.5663 45.1214 44.4599 45.1791C44.3134 45.259 44.157 45.32 43.9873 45.3632C43.8176 45.4065 43.6158 45.4276 43.3773 45.4276ZM44.949 42.8709H43.5858C43.2076 42.8709 42.9369 42.943 42.775 43.0883C42.6119 43.2358 42.531 43.4365 42.531 43.6961V43.8359C42.531 44.0998 42.623 44.2928 42.8094 44.4137C42.9946 44.5313 43.2176 44.5923 43.476 44.5923C43.7156 44.5923 43.9219 44.5646 44.0994 44.508C44.2746 44.4515 44.4355 44.3672 44.5819 44.254C44.715 44.1542 44.8093 44.04 44.8658 43.9102C44.9224 43.7804 44.9501 43.6118 44.9501 43.4066V42.8709H44.949Z" fill="#58595B"/>
<path d="M47.3767 40.7302H46.4805V39.9049H47.3767V38.5317H48.3428V39.9049H49.7759V40.7302H48.3428V43.8248C48.3428 43.9912 48.3594 44.1254 48.3916 44.2286C48.4249 44.3317 48.4737 44.4083 48.5358 44.4626C48.599 44.5147 48.6733 44.5524 48.7599 44.5724C48.8453 44.5924 48.9384 44.6013 49.0383 44.6013C49.2767 44.6013 49.5163 44.5591 49.7548 44.4726L49.9034 45.249C49.7903 45.2945 49.6417 45.3367 49.4553 45.3721C49.2701 45.4076 49.0815 45.4265 48.8885 45.4265C48.3716 45.4265 47.989 45.2978 47.7438 45.0394C47.4976 44.7809 47.3756 44.375 47.3756 43.8237V40.7302H47.3767Z" fill="#58595B"/>
<path d="M51.6147 37.9548V39.0097H50.5898V37.9548H51.6147ZM51.5848 39.9048V45.3476H50.6198V39.9048H51.5848Z" fill="#58595B"/>
<path d="M54.9983 39.8052C55.7482 39.8052 56.3394 40.0204 56.7753 40.4518C57.2101 40.8833 57.4264 41.4923 57.4264 42.282V42.9497C57.4264 43.7395 57.209 44.3507 56.7753 44.781C56.3405 45.2114 55.7482 45.4266 54.9983 45.4266C54.2485 45.4266 53.6562 45.2114 53.2225 44.781C52.7877 44.3495 52.5703 43.7395 52.5703 42.9497V42.282C52.5703 41.4856 52.7877 40.8733 53.2225 40.4474C53.6562 40.0204 54.2485 39.8052 54.9983 39.8052ZM54.9983 44.5825C55.4298 44.5825 55.7792 44.4416 56.0487 44.1588C56.3172 43.8781 56.4514 43.4478 56.4514 42.871V42.363C56.4514 41.7851 56.3172 41.3569 56.0487 41.0741C55.7792 40.7924 55.4298 40.6515 54.9983 40.6515C54.5669 40.6515 54.2164 40.7924 53.949 41.0741C53.6806 41.3569 53.5453 41.7862 53.5453 42.363V42.871C53.5453 43.4489 53.6806 43.8781 53.949 44.1588C54.2164 44.4416 54.5669 44.5825 54.9983 44.5825Z" fill="#58595B"/>
<path d="M62.8717 45.3488H61.9067V41.9646C61.9067 41.5065 61.8102 41.1749 61.6183 40.9708C61.4253 40.7634 61.127 40.6613 60.7221 40.6613C60.5568 40.6613 60.3916 40.6891 60.2296 40.7456C60.0677 40.8022 59.9213 40.8854 59.7915 40.9952C59.6617 41.105 59.5563 41.2426 59.472 41.4067C59.3889 41.5731 59.3478 41.7628 59.3478 41.9757V45.3488H58.3828V39.906H59.3179V40.5915H59.3278C59.4931 40.3397 59.7127 40.1467 59.9845 40.0102C60.2562 39.8749 60.5812 39.8062 60.9595 39.8062C61.2246 39.8062 61.473 39.8461 61.706 39.9248C61.9378 40.0036 62.1408 40.1245 62.3127 40.282C62.4857 40.4428 62.6222 40.6447 62.7209 40.8909C62.8207 41.1361 62.8706 41.4223 62.8706 41.7461V45.3488H62.8717Z" fill="#58595B"/>
<path d="M65.5374 45.4276C64.9862 45.4276 64.5503 45.2922 64.2286 45.0205C63.9069 44.7487 63.7461 44.3738 63.7461 43.8958V43.6273C63.7461 43.1626 63.9014 42.7843 64.2131 42.4926C64.5247 42.2009 65.0294 42.0545 65.726 42.0545H67.1092V41.7362C67.1092 41.3723 67.0204 41.1017 66.8452 40.9253C66.6688 40.7512 66.3826 40.6625 65.9844 40.6625C65.665 40.6625 65.3888 40.7124 65.1526 40.8122C64.9174 40.9109 64.6734 41.044 64.4216 41.2104L63.9435 40.4927C64.2097 40.3086 64.5081 40.1467 64.8398 40.0102C65.1714 39.8749 65.5563 39.8062 65.9944 39.8062C66.2995 39.8062 66.5779 39.8439 66.8308 39.9204C67.0826 39.9969 67.3 40.1101 67.4819 40.2598C67.6649 40.4096 67.8069 40.5915 67.91 40.8066C68.0132 41.0218 68.0642 41.2659 68.0642 41.5387V45.3499H67.138V44.6922H67.128C67.0748 44.792 67.0038 44.8829 66.914 44.965C66.8241 45.0482 66.7265 45.1214 66.62 45.1791C66.4736 45.259 66.3172 45.32 66.1475 45.3632C65.9778 45.4065 65.777 45.4276 65.5374 45.4276ZM67.1103 42.8709H65.7471C65.3688 42.8709 65.0993 42.943 64.9363 43.0883C64.7743 43.2358 64.6922 43.4365 64.6922 43.6961V43.8359C64.6922 44.0998 64.7854 44.2928 64.9718 44.4137C65.157 44.5313 65.3799 44.5923 65.6384 44.5923C65.8769 44.5923 66.0843 44.5646 66.2606 44.508C66.437 44.4515 66.5978 44.3672 66.7442 44.254C66.8762 44.1542 66.9716 44.04 67.0271 43.9102C67.0826 43.7804 67.1125 43.6118 67.1125 43.4066V42.8709H67.1103Z" fill="#58595B"/>
<path d="M70.1642 37.824V45.3476H69.1992V37.824H70.1642Z" fill="#58595B"/>
<path d="M75.9875 38.1733C76.9769 38.1733 77.7256 38.4373 78.2369 38.9653C78.7483 39.4922 79.0034 40.2531 79.0034 41.2491V42.274C79.0034 43.269 78.7549 44.031 78.2569 44.559C77.7589 45.087 77.0035 45.3498 75.9875 45.3498H73.6094V38.1744H75.9875V38.1733ZM74.5954 44.4736H75.8988C76.2171 44.4736 76.5055 44.4314 76.7639 44.3493C77.0224 44.2662 77.2431 44.1364 77.4261 43.9567C77.608 43.7781 77.75 43.5463 77.8487 43.2601C77.9474 42.9739 77.9974 42.629 77.9974 42.2252V41.2979C77.9974 40.8942 77.9474 40.5492 77.8487 40.2631C77.7489 39.978 77.608 39.7451 77.4261 39.5621C77.2431 39.379 77.0235 39.247 76.7639 39.1639C76.5055 39.0818 76.216 39.0396 75.8988 39.0396H74.5954V44.4736Z" fill="#58595B"/>
<path d="M83.0625 40.85C82.9694 40.8112 82.8684 40.7802 82.7586 40.7569C82.6488 40.7336 82.5279 40.7214 82.3959 40.7214C82.2162 40.7214 82.0465 40.7569 81.8835 40.8256C81.7215 40.8955 81.5807 40.9953 81.4609 41.1251C81.3422 41.2549 81.2457 41.408 81.1725 41.5877C81.0993 41.7673 81.0627 41.9626 81.0627 42.1744V45.3489H80.0977V39.9061H81.0338V40.7713H81.0438C81.2035 40.4663 81.4098 40.23 81.6661 40.0592C81.9212 39.8906 82.2484 39.8052 82.6466 39.8052C82.8851 39.8052 83.1213 39.8407 83.3532 39.915L83.0625 40.85Z" fill="#58595B"/>
<path d="M86.0491 39.8052C86.7989 39.8052 87.3912 40.0204 87.8261 40.4518C88.2609 40.8833 88.4783 41.4923 88.4783 42.282V42.9497C88.4783 43.7395 88.2609 44.3507 87.8261 44.781C87.3912 45.2114 86.7989 45.4266 86.0491 45.4266C85.2993 45.4266 84.707 45.2114 84.2722 44.781C83.8374 44.3495 83.6211 43.7395 83.6211 42.9497V42.282C83.6211 41.4856 83.8385 40.8733 84.2722 40.4474C84.707 40.0204 85.2993 39.8052 86.0491 39.8052ZM86.0491 44.5825C86.4806 44.5825 86.8311 44.4416 87.0995 44.1588C87.368 43.8781 87.5022 43.4478 87.5022 42.871V42.363C87.5022 41.7851 87.368 41.3569 87.0995 41.0741C86.8311 40.7924 86.4806 40.6515 86.0491 40.6515C85.6176 40.6515 85.2682 40.7924 84.9987 41.0741C84.7303 41.3569 84.5961 41.7862 84.5961 42.363V42.871C84.5961 43.4489 84.7314 43.8781 84.9987 44.1588C85.2682 44.4416 85.6176 44.5825 86.0491 44.5825Z" fill="#58595B"/>
<path d="M89.3516 39.9049H90.3166V43.288C90.3166 43.7461 90.4097 44.0777 90.595 44.2829C90.7802 44.4881 91.0764 44.5913 91.4812 44.5913C91.6465 44.5913 91.8095 44.5635 91.9682 44.507C92.1268 44.4504 92.271 44.3672 92.4019 44.2574C92.5305 44.1476 92.6348 44.0112 92.7146 43.8448C92.7945 43.6795 92.8333 43.4898 92.8333 43.2769V39.9038H93.7994V45.3466H92.8644V44.6611H92.8544C92.688 44.9129 92.4728 45.1059 92.2077 45.2424C91.9415 45.3777 91.621 45.4476 91.2427 45.4476C90.9765 45.4476 90.7303 45.4065 90.5018 45.3278C90.2733 45.249 90.0736 45.1281 89.9039 44.9695C89.7353 44.8098 89.6011 44.6101 89.5013 44.3672C89.4015 44.1265 89.3516 43.8381 89.3516 43.5065V39.9049Z" fill="#58595B"/>
<path d="M99.412 45.279C99.412 46.8052 98.6034 47.5683 96.9851 47.5683C96.6135 47.5683 96.2752 47.514 95.9691 47.4075C95.6641 47.301 95.3979 47.1613 95.1727 46.9893L95.6108 46.2329C95.7905 46.3649 96.0002 46.4758 96.2431 46.5623C96.4838 46.6466 96.7422 46.691 97.0151 46.691C97.4854 46.691 97.8414 46.5756 98.0843 46.3471C98.3273 46.1186 98.447 45.7615 98.447 45.2767V44.609C98.294 44.8675 98.0799 45.0516 97.8004 45.1614C97.522 45.2712 97.217 45.3256 96.8853 45.3256C96.1943 45.3256 95.6696 45.1248 95.308 44.7233C94.9464 44.3228 94.7656 43.7494 94.7656 43.0073V42.141C94.7656 41.7761 94.8189 41.4478 94.9254 41.155C95.0318 40.8633 95.1794 40.6181 95.3679 40.4196C95.5565 40.2199 95.7839 40.0691 96.0501 39.9615C96.3152 39.855 96.6069 39.8018 96.9252 39.8018C97.3445 39.8018 97.6739 39.8727 97.9169 40.0158C98.1587 40.1578 98.3361 40.3098 98.4482 40.4684V39.9005H99.4132V45.279H99.412ZM98.4581 41.8061C98.4581 41.6663 98.4238 41.5277 98.3528 41.3879C98.2818 41.2481 98.1842 41.1239 98.0533 41.0141C97.9246 40.9043 97.7715 40.8167 97.5963 40.7512C97.421 40.6836 97.2292 40.6514 97.024 40.6514C96.6113 40.6514 96.2919 40.7945 96.0634 41.0795C95.8338 41.3646 95.7195 41.7661 95.7195 42.283V42.8509C95.7195 43.3689 95.8349 43.7705 96.0678 44.0555C96.2996 44.3417 96.618 44.4837 97.024 44.4837C97.2236 44.4837 97.4088 44.4526 97.5808 44.3883C97.7538 44.3262 97.9035 44.2341 98.0333 44.1154C98.162 43.9967 98.2651 43.8514 98.3417 43.6828C98.4182 43.5131 98.457 43.3235 98.457 43.1094V41.8061H98.4581Z" fill="#58595B"/>
<path d="M105.135 45.3489H104.168V41.9647C104.168 41.5066 104.072 41.175 103.879 40.9709C103.687 40.7635 103.389 40.6614 102.983 40.6614C102.819 40.6614 102.653 40.6891 102.491 40.7457C102.329 40.8023 102.183 40.8855 102.052 40.9953C101.923 41.1051 101.817 41.2426 101.734 41.4068C101.652 41.5732 101.611 41.7628 101.611 41.9758V45.3489H100.645V37.8252H101.611V40.5627C101.776 40.3176 101.993 40.129 102.262 40.0003C102.531 39.8717 102.851 39.8062 103.223 39.8062C103.487 39.8062 103.736 39.8462 103.969 39.9249C104.201 40.0037 104.404 40.1246 104.577 40.2821C104.749 40.4429 104.884 40.6448 104.984 40.891C105.084 41.1361 105.135 41.4223 105.135 41.7462V45.3489Z" fill="#58595B"/>
<path d="M106.626 40.7302H105.73V39.9049H106.626V38.5317H107.591V39.9049H109.024V40.7302H107.591V43.8248C107.591 43.9912 107.608 44.1254 107.641 44.2286C107.674 44.3317 107.723 44.4083 107.785 44.4626C107.849 44.5147 107.922 44.5524 108.009 44.5724C108.095 44.5924 108.188 44.6013 108.288 44.6013C108.527 44.6013 108.765 44.5591 109.005 44.4726L109.153 45.249C109.04 45.2945 108.892 45.3367 108.706 45.3721C108.521 45.4076 108.332 45.4265 108.139 45.4265C107.622 45.4265 107.239 45.2978 106.995 45.0394C106.749 44.7809 106.627 44.375 106.627 43.8237V40.7302H106.626Z" fill="#58595B"/>
<path d="M113.037 38.1733V45.3487H112.051V38.1733H113.037Z" fill="#58595B"/>
<path d="M118.801 45.3488H117.835V41.9646C117.835 41.5065 117.739 41.1749 117.546 40.9708C117.354 40.7634 117.056 40.6613 116.65 40.6613C116.484 40.6613 116.319 40.6891 116.158 40.7456C115.996 40.8022 115.85 40.8854 115.72 40.9952C115.59 41.105 115.484 41.2426 115.402 41.4067C115.317 41.5731 115.278 41.7628 115.278 41.9757V45.3488H114.312V39.906H115.248V40.5915H115.258C115.423 40.3397 115.642 40.1467 115.915 40.0102C116.187 39.8749 116.512 39.8062 116.891 39.8062C117.155 39.8062 117.404 39.8461 117.637 39.9248C117.869 40.0036 118.072 40.1245 118.245 40.282C118.417 40.4428 118.552 40.6447 118.652 40.8909C118.752 41.1361 118.803 41.4223 118.803 41.7461V45.3488H118.801Z" fill="#58595B"/>
<path d="M120.329 40.7301H119.434V39.9049H120.329V39.3669C120.329 38.8168 120.464 38.413 120.732 38.1535C121.001 37.8939 121.395 37.7642 121.912 37.7642C122.085 37.7642 122.262 37.7786 122.444 37.8041C122.626 37.8318 122.773 37.8651 122.887 37.9039L122.738 38.6903C122.498 38.6238 122.252 38.5894 122 38.5894C121.907 38.5894 121.818 38.6005 121.732 38.6205C121.646 38.6404 121.57 38.6781 121.509 38.7358C121.445 38.7913 121.394 38.8734 121.352 38.9798C121.314 39.0863 121.294 39.2283 121.294 39.408V39.9049H122.727V40.7301H121.294V45.3477H120.328V40.7301H120.329Z" fill="#58595B"/>
<path d="M125.546 39.8052C126.297 39.8052 126.888 40.0204 127.323 40.4518C127.758 40.8833 127.975 41.4923 127.975 42.282V42.9497C127.975 43.7395 127.758 44.3507 127.323 44.781C126.888 45.2114 126.297 45.4266 125.546 45.4266C124.797 45.4266 124.204 45.2114 123.769 44.781C123.333 44.3495 123.117 43.7395 123.117 42.9497V42.282C123.117 41.4856 123.333 40.8733 123.769 40.4474C124.204 40.0204 124.797 39.8052 125.546 39.8052ZM125.546 44.5825C125.978 44.5825 126.327 44.4416 126.596 44.1588C126.864 43.8781 126.998 43.4478 126.998 42.871V42.363C126.998 41.7851 126.864 41.3569 126.596 41.0741C126.327 40.7924 125.977 40.6515 125.546 40.6515C125.116 40.6515 124.765 40.7924 124.496 41.0741C124.227 41.3569 124.093 41.7862 124.093 42.363V42.871C124.093 43.4489 124.227 43.8781 124.496 44.1588C124.764 44.4416 125.115 44.5825 125.546 44.5825Z" fill="#58595B"/>
<path d="M131.896 40.85C131.803 40.8112 131.702 40.7802 131.592 40.7569C131.482 40.7336 131.362 40.7214 131.229 40.7214C131.049 40.7214 130.879 40.7569 130.717 40.8256C130.555 40.8955 130.413 40.9953 130.293 41.1251C130.174 41.2549 130.078 41.408 130.004 41.5877C129.931 41.7673 129.895 41.9626 129.895 42.1744V45.3489H128.93V39.9061H129.865V40.7713H129.876C130.034 40.4663 130.242 40.23 130.498 40.0592C130.752 39.8906 131.079 39.8052 131.479 39.8052C131.717 39.8052 131.952 39.8407 132.185 39.915L131.896 40.85Z" fill="#58595B"/>
<path d="M140.233 45.3489H139.267V42.0846C139.267 41.1495 138.925 40.6825 138.243 40.6825C138.09 40.6825 137.94 40.7058 137.789 40.7569C137.64 40.8057 137.506 40.8822 137.388 40.9854C137.269 41.0885 137.17 41.2205 137.094 41.3825C137.017 41.5455 136.978 41.7352 136.978 41.9548V45.3489H136.013V42.0846C136.013 41.1495 135.671 40.6825 134.987 40.6825C134.835 40.6825 134.684 40.7058 134.535 40.7524C134.386 40.7979 134.252 40.8711 134.133 40.972C134.013 41.0697 133.916 41.1983 133.838 41.3547C133.763 41.51 133.724 41.6952 133.724 41.906V45.3489H132.758V39.9061H133.713V40.6426H133.724C133.83 40.403 134.003 40.2045 134.246 40.0448C134.489 39.8861 134.799 39.8063 135.177 39.8063C135.542 39.8063 135.858 39.8839 136.126 40.0392C136.396 40.1967 136.6 40.4208 136.739 40.7114C136.912 40.4463 137.129 40.2289 137.392 40.0592C137.653 39.8906 138 39.8052 138.431 39.8052C138.996 39.8052 139.436 39.976 139.755 40.3176C140.073 40.6604 140.233 41.1451 140.233 41.7751V45.3489V45.3489Z" fill="#58595B"/>
<path d="M142.902 45.4276C142.351 45.4276 141.914 45.2922 141.592 45.0205C141.27 44.7487 141.109 44.3738 141.109 43.8958V43.6273C141.109 43.1626 141.265 42.7843 141.577 42.4926C141.888 42.2009 142.392 42.0545 143.089 42.0545H144.472V41.7362C144.472 41.3723 144.384 41.1017 144.21 40.9253C144.033 40.7512 143.746 40.6625 143.349 40.6625C143.03 40.6625 142.754 40.7124 142.517 40.8122C142.282 40.9109 142.038 41.044 141.787 41.2104L141.308 40.4927C141.573 40.3086 141.873 40.1467 142.205 40.0102C142.537 39.8749 142.921 39.8062 143.359 39.8062C143.664 39.8062 143.942 39.8439 144.194 39.9204C144.447 39.9969 144.664 40.1101 144.846 40.2598C145.029 40.4096 145.171 40.5915 145.274 40.8066C145.379 41.0218 145.43 41.2659 145.43 41.5387V45.3499H144.504V44.6922H144.494C144.441 44.792 144.369 44.8829 144.281 44.965C144.191 45.0482 144.093 45.1214 143.987 45.1791C143.84 45.259 143.684 45.32 143.513 45.3632C143.343 45.4065 143.14 45.4276 142.902 45.4276ZM144.474 42.8709H143.11C142.731 42.8709 142.461 42.943 142.3 43.0883C142.136 43.2358 142.054 43.4365 142.054 43.6961V43.8359C142.054 44.0998 142.148 44.2928 142.334 44.4137C142.519 44.5313 142.742 44.5923 143.001 44.5923C143.24 44.5923 143.446 44.5646 143.623 44.508C143.799 44.4515 143.96 44.3672 144.108 44.254C144.238 44.1542 144.334 44.04 144.39 43.9102C144.447 43.7804 144.475 43.6118 144.475 43.4066V42.8709H144.474Z" fill="#58595B"/>
<path d="M146.9 40.7302H146.004V39.9049H146.9V38.5317H147.864V39.9049H149.298V40.7302H147.864V43.8248C147.864 43.9912 147.881 44.1254 147.914 44.2286C147.947 44.3317 147.995 44.4083 148.059 44.4626C148.124 44.5147 148.197 44.5524 148.282 44.5724C148.369 44.5924 148.462 44.6013 148.562 44.6013C148.801 44.6013 149.04 44.5591 149.278 44.4726L149.428 45.249C149.315 45.2945 149.166 45.3367 148.98 45.3721C148.796 45.4076 148.605 45.4265 148.412 45.4265C147.896 45.4265 147.512 45.2978 147.27 45.0394C147.023 44.7809 146.901 44.375 146.901 43.8237V40.7302H146.9Z" fill="#58595B"/>
<path d="M151.143 37.9548V39.0097H150.117V37.9548H151.143ZM151.111 39.9048V45.3476H150.147V39.9048H151.111Z" fill="#58595B"/>
<path d="M154.523 39.8052C155.272 39.8052 155.865 40.0204 156.3 40.4518C156.735 40.8833 156.951 41.4923 156.951 42.282V42.9497C156.951 43.7395 156.735 44.3507 156.3 44.781C155.865 45.2114 155.272 45.4266 154.523 45.4266C153.772 45.4266 153.181 45.2114 152.746 44.781C152.311 44.3495 152.094 43.7395 152.094 42.9497V42.282C152.094 41.4856 152.311 40.8733 152.746 40.4474C153.181 40.0204 153.772 39.8052 154.523 39.8052ZM154.523 44.5825C154.954 44.5825 155.304 44.4416 155.572 44.1588C155.841 43.8781 155.975 43.4478 155.975 42.871V42.363C155.975 41.7851 155.841 41.3569 155.572 41.0741C155.304 40.7924 154.953 40.6515 154.523 40.6515C154.093 40.6515 153.742 40.7924 153.472 41.0741C153.205 41.3569 153.071 41.7862 153.071 42.363V42.871C153.071 43.4489 153.205 43.8781 153.472 44.1588C153.741 44.4416 154.091 44.5825 154.523 44.5825Z" fill="#58595B"/>
<path d="M162.395 45.3488H161.429V41.9646C161.429 41.5065 161.334 41.1749 161.141 40.9708C160.948 40.7634 160.652 40.6613 160.244 40.6613C160.079 40.6613 159.915 40.6891 159.752 40.7456C159.59 40.8022 159.445 40.8854 159.315 40.9952C159.185 41.105 159.079 41.2426 158.997 41.4067C158.913 41.5731 158.872 41.7628 158.872 41.9757V45.3488H157.906V39.906H158.842V40.5915H158.852C159.018 40.3397 159.238 40.1467 159.509 40.0102C159.782 39.8749 160.107 39.8062 160.485 39.8062C160.749 39.8062 161 39.8461 161.232 39.9248C161.463 40.0036 161.668 40.1245 161.838 40.282C162.011 40.4428 162.147 40.6447 162.247 40.8909C162.346 41.1361 162.396 41.4223 162.396 41.7461V45.3488H162.395Z" fill="#58595B"/>
<path d="M165.759 38.1733H168.326C168.732 38.1733 169.083 38.2255 169.38 38.3286C169.68 38.4318 169.925 38.5738 170.122 38.7568C170.318 38.9387 170.464 39.155 170.561 39.409C170.657 39.6608 170.705 39.9325 170.705 40.2242V40.4328C170.705 40.7245 170.654 40.9985 170.551 41.2536C170.447 41.5076 170.297 41.7327 170.098 41.9246C169.9 42.1165 169.652 42.2696 169.356 42.3816C169.061 42.4959 168.718 42.5513 168.326 42.5513H166.744V45.3476H165.758V38.1733H165.759ZM166.745 39.0285V41.695H168.156C169.193 41.695 169.709 41.2669 169.709 40.4128V40.2331C169.709 39.8216 169.586 39.5177 169.336 39.3236C169.088 39.1272 168.732 39.0285 168.266 39.0285H166.745Z" fill="#58595B"/>
<path d="M173.691 39.8052C174.442 39.8052 175.033 40.0204 175.468 40.4518C175.904 40.8833 176.12 41.4923 176.12 42.282V42.9497C176.12 43.7395 175.904 44.3507 175.468 44.781C175.033 45.2114 174.442 45.4266 173.691 45.4266C172.941 45.4266 172.35 45.2114 171.914 44.781C171.479 44.3495 171.262 43.7395 171.262 42.9497V42.282C171.262 41.4856 171.479 40.8733 171.914 40.4474C172.35 40.0204 172.941 39.8052 173.691 39.8052ZM173.691 44.5825C174.122 44.5825 174.473 44.4416 174.74 44.1588C175.009 43.8781 175.144 43.4478 175.144 42.871V42.363C175.144 41.7851 175.009 41.3569 174.74 41.0741C174.473 40.7924 174.121 40.6515 173.691 40.6515C173.26 40.6515 172.91 40.7924 172.642 41.0741C172.373 41.3569 172.239 41.7862 172.239 42.363V42.871C172.239 43.4489 172.373 43.8781 172.642 44.1588C172.91 44.4416 173.259 44.5825 173.691 44.5825Z" fill="#58595B"/>
<path d="M180.04 40.85C179.947 40.8112 179.846 40.7802 179.737 40.7569C179.628 40.7336 179.507 40.7214 179.375 40.7214C179.194 40.7214 179.024 40.7569 178.861 40.8256C178.699 40.8955 178.557 40.9953 178.437 41.1251C178.319 41.2549 178.222 41.408 178.149 41.5877C178.076 41.7673 178.039 41.9626 178.039 42.1744V45.3489H177.074V39.9061H178.01V40.7713H178.02C178.18 40.4663 178.386 40.23 178.643 40.0592C178.897 39.8906 179.224 39.8052 179.623 39.8052C179.862 39.8052 180.098 39.8407 180.33 39.915L180.04 40.85Z" fill="#58595B"/>
<path d="M181.342 40.7302H180.445V39.9049H181.342V38.5317H182.308V39.9049H183.741V40.7302H182.308V43.8248C182.308 43.9912 182.323 44.1254 182.356 44.2286C182.391 44.3317 182.437 44.4083 182.502 44.4626C182.565 44.5147 182.639 44.5524 182.726 44.5724C182.81 44.5924 182.904 44.6013 183.003 44.6013C183.243 44.6013 183.481 44.5591 183.72 44.4726L183.869 45.249C183.756 45.2945 183.608 45.3367 183.421 45.3721C183.235 45.4076 183.047 45.4265 182.854 45.4265C182.336 45.4265 181.955 45.2978 181.711 45.0394C181.464 44.7809 181.342 44.375 181.342 43.8237V40.7302Z" fill="#58595B"/>
<path d="M186.07 45.4276C185.519 45.4276 185.082 45.2922 184.76 45.0205C184.438 44.7487 184.277 44.3738 184.277 43.8958V43.6273C184.277 43.1626 184.433 42.7843 184.744 42.4926C185.056 42.2009 185.561 42.0545 186.256 42.0545H187.64V41.7362C187.64 41.3723 187.552 41.1017 187.376 40.9253C187.201 40.7512 186.914 40.6625 186.517 40.6625C186.198 40.6625 185.92 40.7124 185.685 40.8122C185.45 40.9109 185.206 41.044 184.954 41.2104L184.476 40.4927C184.741 40.3086 185.039 40.1467 185.371 40.0102C185.704 39.8749 186.089 39.8062 186.527 39.8062C186.831 39.8062 187.11 39.8439 187.362 39.9204C187.615 39.9969 187.831 40.1101 188.014 40.2598C188.197 40.4096 188.339 40.5915 188.442 40.8066C188.546 41.0218 188.598 41.2659 188.598 41.5387V45.3499H187.671V44.6922H187.662C187.608 44.792 187.537 44.8829 187.447 44.965C187.359 45.0482 187.26 45.1214 187.153 45.1791C187.008 45.259 186.852 45.32 186.681 45.3632C186.512 45.4065 186.308 45.4276 186.07 45.4276ZM187.642 42.8709H186.278C185.9 42.8709 185.631 42.943 185.468 43.0883C185.306 43.2358 185.224 43.4365 185.224 43.6961V43.8359C185.224 44.0998 185.317 44.2928 185.502 44.4137C185.687 44.5313 185.91 44.5923 186.169 44.5923C186.409 44.5923 186.614 44.5646 186.792 44.508C186.969 44.4515 187.129 44.3672 187.274 44.254C187.408 44.1542 187.502 44.04 187.559 43.9102C187.615 43.7815 187.644 43.6118 187.644 43.4066V42.8709H187.642Z" fill="#58595B"/>
<path d="M190.697 37.824V45.3476H189.73V37.824H190.697Z" fill="#58595B"/>
<defs>
<linearGradient id="paint0_linear_225_4738" x1="17.0078" y1="25.5408" x2="8.14478" y2="20.5436" gradientUnits="userSpaceOnUse">
<stop stop-color="#00B5DE"/>
<stop offset="0.2088" stop-color="#00B1DB"/>
<stop offset="0.3681" stop-color="#009ACA"/>
<stop offset="0.7363" stop-color="#346DA8"/>
<stop offset="1" stop-color="#3C65A3"/>
</linearGradient>
<linearGradient id="paint1_linear_225_4738" x1="3.13259" y1="30.5214" x2="27.2993" y2="30.5214" gradientUnits="userSpaceOnUse">
<stop stop-color="#7CAD42"/>
<stop offset="0.2088" stop-color="#76B843"/>
<stop offset="0.3681" stop-color="#63B146"/>
<stop offset="0.7692" stop-color="#77BF43"/>
<stop offset="1" stop-color="#41A649"/>
</linearGradient>
<linearGradient id="paint2_linear_225_4738" x1="1.64888" y1="35.7825" x2="15.907" y2="35.7825" gradientUnits="userSpaceOnUse">
<stop stop-color="#7CAD42"/>
<stop offset="0.2088" stop-color="#76B843"/>
<stop offset="0.3681" stop-color="#63B146"/>
<stop offset="0.7692" stop-color="#77BF43"/>
<stop offset="1" stop-color="#41A649"/>
</linearGradient>
<linearGradient id="paint3_linear_225_4738" x1="2.00792" y1="39.0159" x2="29.3393" y2="39.0159" gradientUnits="userSpaceOnUse">
<stop stop-color="#EC1C24"/>
<stop offset="0.2088" stop-color="#F16A22"/>
<stop offset="0.3681" stop-color="#F37A4E"/>
<stop offset="0.7363" stop-color="#F7941D"/>
<stop offset="1" stop-color="#F7A01B"/>
</linearGradient>
<linearGradient id="paint4_linear_225_4738" x1="17.693" y1="20.7893" x2="22.8497" y2="24.4034" gradientUnits="userSpaceOnUse">
<stop stop-color="#7CAD42"/>
<stop offset="0.2088" stop-color="#74BF44"/>
<stop offset="0.5659" stop-color="#63B146"/>
<stop offset="0.7692" stop-color="#00AF4C"/>
<stop offset="1" stop-color="#41A649"/>
</linearGradient>
<linearGradient id="paint5_linear_225_4738" x1="15.1983" y1="27.3795" x2="22.2505" y2="27.3795" gradientUnits="userSpaceOnUse">
<stop stop-color="#7CAD42"/>
<stop offset="0.2088" stop-color="#76B843"/>
<stop offset="0.3681" stop-color="#63B146"/>
<stop offset="0.7692" stop-color="#77BF43"/>
<stop offset="1" stop-color="#41A649"/>
</linearGradient>
</defs>
</svg>
