<svg width="74" height="45" viewBox="0 0 74 45" fill="none" xmlns="http://www.w3.org/2000/svg">
<rect width="74" height="45" rx="22.5" fill="#3C6A3C"/>
<path d="M27.2628 19.6692L29.1471 12.6274C29.2473 12.2583 29.5811 12 29.9669 12H44.0368C44.4226 12 44.7601 12.2583 44.8566 12.6274L46.7372 19.6692C48.043 20.0715 49 21.2821 49 22.7141V28.896C49 29.2761 48.6884 29.5861 48.3063 29.5861H46.7855V31.4093C46.7855 32.2877 46.0696 33 45.1867 33H44.8083C43.9255 33 43.2096 32.2877 43.2096 31.4093V29.5861H30.7941V31.4093C30.7941 32.2877 30.0782 33 29.1954 33H28.817C27.9342 33 27.2182 32.2877 27.2182 31.4093V29.5861H25.6974C25.3153 29.5861 25.0037 29.2761 25.0037 28.896V22.7141C25.0037 21.2821 25.957 20.0678 27.2628 19.6692ZM27.2739 23.2344C27.2739 24.0759 27.9601 24.7624 28.8096 24.7624C29.659 24.7624 30.3416 24.0796 30.3416 23.2344C30.3416 22.3893 29.6553 21.7065 28.8096 21.7065C27.9638 21.7065 27.2739 22.3893 27.2739 23.2344ZM43.3839 13.6903H30.6198L29.0581 19.529H44.9456L43.3839 13.6903ZM45.1941 21.7102C44.3484 21.7102 43.6584 22.393 43.6584 23.2381C43.6584 24.0833 44.3447 24.7661 45.1941 24.7661C46.0436 24.7661 46.7298 24.0833 46.7298 23.2381C46.7298 22.393 46.0436 21.7102 45.1941 21.7102Z" fill="white"/>
</svg>
