<svg width="482" height="265" viewBox="0 0 482 265" fill="none" xmlns="http://www.w3.org/2000/svg">
<g clip-path="url(#clip0_262_10846)">
<path d="M284.609 193V194.5H283.109H279.078H277.578V193V161.5C277.578 152.655 284.586 145.386 293.287 145.386H380.869C389.57 145.386 396.578 152.655 396.578 161.5V208.268C396.578 217.113 389.57 224.382 380.869 224.382C379.596 224.382 378.475 225.474 378.475 226.887V233V234.5H376.975H372.945H371.445V233V226.887C371.445 221.602 375.629 217.237 380.869 217.237C385.605 217.237 389.548 213.262 389.548 208.268V161.5C389.548 156.525 385.623 152.531 380.869 152.531H293.287C288.551 152.531 284.609 156.506 284.609 161.5V193Z" fill="#0E366B" stroke="#0E366B" stroke-width="3"/>
<path d="M343.501 199.251H327.945C326.379 199.251 324.85 199.778 323.635 200.764C323.083 201.211 322.202 201.845 321.584 202.505C318.016 206.311 315.598 210.271 313.944 213.897C311.7 218.83 310.589 224.202 310.531 229.619L310.477 234.786H322.657C328.497 234.786 333.326 239.089 334.161 244.695H345.172C346.554 244.695 347.678 243.571 347.678 242.188V203.429C347.678 201.123 345.807 199.251 343.501 199.251Z" fill="#C4E1FD"/>
<path style="mix-blend-mode:screen" d="M321.582 202.505C318.015 206.311 315.596 210.271 313.942 213.897C313.679 214.473 313.437 215.054 313.207 215.638C317.259 215.546 327.388 214.736 336.298 207.389C339.607 204.661 341.912 201.72 343.5 199.251H327.944C326.378 199.251 324.849 199.778 323.633 200.764C323.082 201.211 322.2 201.845 321.582 202.505V202.505Z" fill="#ACD6FE"/>
<path d="M320.528 213.901C322.178 210.271 324.601 206.311 328.168 202.51C328.787 201.85 329.664 201.215 330.219 200.768C331.439 199.782 332.964 199.256 334.53 199.256H332.379C330.813 199.256 329.284 199.782 328.068 200.768C327.517 201.215 326.635 201.85 326.017 202.51C322.45 206.315 320.031 210.275 318.377 213.901C316.134 218.834 315.023 224.206 314.964 229.624L314.91 234.791H317.061L317.116 229.624C317.17 224.206 318.281 218.834 320.528 213.901V213.901Z" fill="url(#paint0_linear_262_10846)"/>
<path d="M329.241 234.787H327.09C332.929 234.787 337.758 239.089 338.594 244.695H340.745C339.914 239.089 335.081 234.787 329.241 234.787V234.787Z" fill="url(#paint1_linear_262_10846)"/>
<path d="M322.659 256.766C328.374 256.766 333.006 252.134 333.006 246.42C333.006 240.705 328.374 236.073 322.659 236.073C316.945 236.073 312.312 240.705 312.312 246.42C312.312 252.134 316.945 256.766 322.659 256.766Z" fill="url(#paint2_radial_262_10846)"/>
<path d="M312.117 237.122C313.546 237.122 314.703 237.79 314.703 234.791C314.703 231.792 313.546 229.356 312.117 229.356V237.126V237.122Z" fill="#BF2A40"/>
<path d="M312.112 229.352H311.285V236.637H312.112V229.352Z" fill="white"/>
<path d="M322.658 234.786H309.671C308.748 234.786 308 235.534 308 236.457V243.023C308 243.947 308.748 244.694 309.671 244.694H311.158C311.989 239.089 316.822 234.786 322.662 234.786H322.658Z" fill="#353D40"/>
<path d="M322.658 251.863C325.664 251.863 328.1 249.426 328.1 246.42C328.1 243.414 325.664 240.977 322.658 240.977C319.652 240.977 317.215 243.414 317.215 246.42C317.215 249.426 319.652 251.863 322.658 251.863Z" fill="white"/>
<path d="M429.734 233.721C433.195 233.721 436 226.282 436 217.104C436 207.927 433.195 200.488 429.734 200.488C426.274 200.488 423.469 207.927 423.469 217.104C423.469 226.282 426.274 233.721 429.734 233.721Z" fill="#C4E1FD"/>
<path d="M355.949 233.721C359.41 233.721 362.215 226.282 362.215 217.104C362.215 207.927 359.41 200.488 355.949 200.488C352.489 200.488 349.684 207.927 349.684 217.104C349.684 226.282 352.489 233.721 355.949 233.721Z" fill="#C4E1FD"/>
<path d="M343.501 199.251H327.945C326.379 199.251 324.85 199.778 323.634 200.764C323.212 201.102 322.607 201.553 322.068 202.038H343.923V223.579H311.044C310.723 225.572 310.556 227.593 310.535 229.623L310.48 234.791H322.661C328.501 234.791 333.329 239.093 334.165 244.699H345.176C346.558 244.699 347.682 243.575 347.682 242.192V203.429C347.682 201.123 345.811 199.251 343.505 199.251H343.501Z" fill="url(#paint3_linear_262_10846)"/>
<path d="M436 232.86H348V238.86H436V232.86Z" fill="#2E2E2E"/>
<path d="M399.43 197H387.793V198.625H399.43V197Z" fill="url(#paint4_linear_262_10846)"/>
<path d="M398.578 198.625H388.645V201.716H398.578V198.625Z" fill="url(#paint5_linear_262_10846)"/>
<path d="M429.738 200.488H355.949V233.725H429.738V200.488Z" fill="#7690A8"/>
<path d="M367.613 200.488H363.762V233.725H367.613V200.488Z" fill="#C4E1FD"/>
<path d="M421.918 200.488H418.066V233.725H421.918V200.488Z" fill="#C4E1FD"/>
<path d="M369.542 234.749H349.684V244.695H369.542V234.749Z" fill="url(#paint6_linear_262_10846)"/>
<path d="M354.833 234.749H353.43V244.695H354.833V234.749Z" fill="url(#paint7_linear_262_10846)"/>
<path d="M366.111 234.749H364.707V244.695H366.111V234.749Z" fill="url(#paint8_linear_262_10846)"/>
<path d="M406.347 256.766C412.061 256.766 416.694 252.134 416.694 246.42C416.694 240.705 412.061 236.073 406.347 236.073C400.632 236.073 396 240.705 396 246.42C396 252.134 400.632 256.766 406.347 256.766Z" fill="url(#paint9_radial_262_10846)"/>
<path d="M406.345 251.863C409.351 251.863 411.788 249.426 411.788 246.42C411.788 243.414 409.351 240.977 406.345 240.977C403.339 240.977 400.902 243.414 400.902 246.42C400.902 249.426 403.339 251.863 406.345 251.863Z" fill="white"/>
<path d="M381.018 217.267L379.895 220.73H378.14L376.156 214.072H378.337L379.197 217.886L380.129 214.072H381.908L382.852 217.886L383.7 214.072H385.893L383.909 220.73H382.155L381.027 217.267H381.018Z" fill="white"/>
<path d="M391.184 220.73V220.15C390.783 220.559 390.157 220.814 389.455 220.814C387.688 220.814 386.26 219.724 386.322 217.364C386.393 214.978 387.897 213.867 389.543 213.938C390.245 213.976 390.825 214.289 391.189 214.678V214.072H393.281V220.73H391.189H391.184ZM389.706 218.963C390.42 218.963 390.963 218.625 391.109 217.886C391.122 217.836 391.134 217.606 391.134 217.56C391.134 216.424 390.529 215.793 389.756 215.793C389.104 215.755 388.411 216.277 388.411 217.368C388.411 218.458 388.966 218.968 389.706 218.968V218.963Z" fill="white"/>
<path d="M397.081 217.932C397.081 218.441 397.144 218.684 397.407 218.78C397.587 218.838 397.746 218.83 398.134 218.696L398.485 220.547C397.854 220.839 396.839 220.948 396.125 220.668C395.289 220.329 394.989 219.59 394.989 218.32V215.96H393.898V214.072H394.989V211.75H397.081V214.072H398.439V215.96H397.081V217.932Z" fill="white"/>
<path d="M398.958 217.439C398.958 215.212 400.315 213.834 402.274 213.834C404.233 213.834 405.445 215.313 405.445 217.464L405.395 218.128H401.025C401.076 218.746 401.669 219.085 402.358 219.085C402.989 219.085 403.423 218.83 403.812 218.358L405.178 219.544C404.463 220.526 403.494 220.973 402.274 220.973C400.324 220.973 398.92 219.615 398.958 217.439ZM403.398 216.507C403.315 215.952 402.83 215.684 402.283 215.684C401.677 215.684 401.218 215.985 401.147 216.507H403.398Z" fill="white"/>
<path d="M410.047 214.014V216.01H409.855C409.358 216.01 408.84 216.144 408.401 216.457V220.731H406.246V214.072H408.401V214.557C408.848 214.218 409.249 214.072 409.83 214.014H410.047V214.014Z" fill="white"/>
</g>
<g clip-path="url(#clip1_262_10846)">
<path d="M46 232.007C46 230.902 46.8967 230.012 48.0008 229.98C50.4026 229.912 51.8604 229.722 53.3762 229.525C55.3631 229.267 57.415 229 61.4797 229C65.5444 229 67.6093 229.267 69.5832 229.525C71.4922 229.772 73.2973 230.007 76.9724 230.007C80.6475 230.007 82.4526 229.772 84.3616 229.525C86.3485 229.267 88.4004 229 92.4781 229C96.5558 229 98.6076 229.267 100.582 229.525C102.491 229.772 104.296 230.007 107.971 230.007C111.646 230.007 113.451 229.772 115.36 229.525C117.347 229.267 119.399 229 123.463 229C127.528 229 129.593 229.267 131.58 229.525C133.489 229.772 135.294 230.007 138.969 230.007C142.644 230.007 144.449 229.772 146.358 229.525C148.345 229.267 150.397 229 154.475 229C158.553 229 160.604 229.267 162.591 229.525C164.5 229.772 166.305 230.007 169.981 230.007C173.656 230.007 175.461 229.772 177.37 229.525C179.357 229.267 181.409 229 185.486 229C189.564 229 191.616 229.267 193.603 229.525C195.512 229.772 197.317 230.007 200.992 230.007C204.667 230.007 206.472 229.772 208.368 229.525C210.355 229.267 212.407 229 216.472 229C220.536 229 222.601 229.267 224.588 229.525C226.497 229.772 228.302 230.007 231.977 230.007C235.652 230.007 237.458 229.772 239.366 229.525C241.353 229.267 243.405 229 247.483 229C251.561 229 253.613 229.267 255.599 229.525C257.508 229.772 259.313 230.007 262.989 230.007C266.664 230.007 268.469 229.772 270.378 229.525C272.365 229.267 274.417 229 278.494 229C282.572 229 284.624 229.267 286.611 229.525C288.137 229.722 289.597 229.912 291.999 229.98C293.103 230.012 294 230.902 294 232.007V233H46V232.007Z" fill="#9FD0FF"/>
<path d="M289.782 245.274H49.2184C45.2304 245.274 42 242.304 42 238.637C42 234.973 45.2304 232 49.2184 232H289.782C293.767 232 297 234.97 297 238.637C297 242.304 293.767 245.274 289.782 245.274Z" fill="#936338"/>
<path d="M81.3137 217.093C83.622 217.093 85.4844 218.962 85.4844 221.278V231.304C85.4844 233.62 83.7794 235.489 81.6809 235.489H68.2771C66.1787 235.489 64.4737 233.62 64.4737 231.304V221.278C64.4737 218.962 66.336 217.093 68.6443 217.093H81.3399H81.3137Z" fill="#E8A53B"/>
<path d="M63.7054 215.609C60.4528 213.819 56.728 212.925 53.0558 213.056C50.7737 213.135 48.2556 213.714 46.9178 215.609C45.921 217.03 45.7899 218.977 46.3407 220.635C46.9178 222.293 48.1244 223.662 49.5671 224.636C52.1115 226.346 55.3903 226.82 58.2756 225.925C61.4758 224.925 64.0464 222.399 67.2727 221.478C68.3482 221.162 72.3615 221.214 73.5156 221.135C72.0729 220.162 64.7284 216.24 63.6792 215.635L63.7054 215.609Z" fill="#80BC58"/>
<path d="M74.039 218.188C74.2226 217.978 74.4062 217.741 74.5898 217.53C72.8849 213.425 70.8126 206.714 70.7602 206.53C70.2618 204.688 69.0814 202.977 67.4027 202.03C65.7239 201.082 63.5468 201.03 61.9205 202.03L61.9992 204.74L61.0024 205.661C60.9762 205.477 60.7925 205.319 60.6089 205.214C59.3761 204.372 58.8777 202.819 58.0908 201.556C57.3039 200.293 54.7071 198.819 50.7462 200.451C47.5461 201.793 46.0509 206.082 47.3887 209.293C48.0969 211.004 49.8019 212.504 51.6381 212.188C52.3201 212.083 52.8709 211.556 53.5529 211.477C58.0121 211.083 56.3333 215.951 54.4447 216.135C52.5561 216.32 50.3265 217.057 49.9331 218.925C50.5626 221.451 53.0021 223.241 55.5727 223.688C56.3333 223.82 57.1203 223.846 57.9072 223.82C60.6089 223.662 62.5762 221.451 62.891 218.767C62.9435 218.399 63.1008 218.057 63.4418 217.741C64.0451 217.188 64.937 217.057 65.7239 217.32C68.2945 218.188 69.6585 220.32 72.4914 220.846C72.9373 219.899 73.4357 218.951 74.0915 218.136L74.039 218.188Z" fill="#538241"/>
<path d="M81.9875 206.767C82.5383 207.951 82.5383 209.451 81.8301 210.504C81.1219 211.556 79.7054 212.004 78.63 211.425C78.1316 211.161 77.7382 210.714 77.2135 210.556C76.1119 210.188 74.9839 211.135 74.5642 212.267C74.1446 213.398 74.1708 214.688 74.0134 215.898C73.7511 217.846 72.9642 219.688 71.7576 221.162C71.4166 217.767 70.5772 213.662 67.5869 212.583C66.1967 212.083 64.7015 212.398 63.2851 212.714C61.8686 213.03 60.3473 213.293 58.9833 212.714C57.6193 212.109 56.5963 210.293 57.2783 208.898C57.8816 207.688 59.639 206.819 59.0882 205.53C58.8521 204.977 58.275 204.714 57.8029 204.398C56.2553 203.451 55.2061 201.53 55.3372 199.635C55.4684 197.74 56.8586 196.029 58.5898 195.819C59.7702 195.687 61.1079 196.135 62.0522 195.371C62.8654 194.713 62.9703 193.424 63.3113 192.371C63.9146 190.582 65.4885 189.24 67.2459 189.029C69.0034 188.819 70.8657 189.766 71.8625 191.398C72.4396 192.345 72.7806 193.477 73.5937 194.187C75.5872 195.845 78.9972 193.713 80.6497 195.766C82.4072 197.95 79.5481 201.293 80.3874 204.03C80.7022 205.056 81.4891 205.819 81.9613 206.767H81.9875Z" fill="#80BC58"/>
<path d="M92.5042 207.03C91.5861 205.74 90.432 204.53 88.9369 204.03C87.0745 203.424 84.976 204.056 83.4284 205.267C81.8808 206.477 80.7791 208.135 79.7824 209.846C77.9462 213.004 75.6379 216.688 73.0149 219.372C73.0411 219.899 72.9887 220.425 72.8313 220.925C73.0411 221.004 73.2772 221.057 73.5395 221.109C74.8248 220.767 75.9003 220.162 76.9495 219.346C78.7594 217.925 80.3857 215.741 82.6677 215.82C83.7432 215.846 84.7137 216.399 85.7892 216.635C88.4647 217.214 91.2189 215.504 92.8452 213.293C93.3436 212.609 93.7895 211.846 93.8944 211.03C94.1043 209.583 93.3436 208.188 92.5042 207.03V207.03Z" fill="#538241"/>
<path d="M84.7143 192.45C82.3273 191.187 78.8386 191.108 77.1861 193.687C75.4549 196.371 76.95 200.056 75.4024 202.687C73.986 202.292 72.3072 203.056 71.5203 204.45C70.1825 206.793 71.4416 209.609 71.8875 212.161C72.281 214.372 71.5465 219.662 71.7302 221.083C72.1761 221.083 73.0417 221.083 73.645 221.056C74.6417 220.504 75.0877 219.635 75.5598 218.583C75.7959 218.056 75.9008 217.504 76.1893 217.004C77.1074 215.451 79.2059 215.319 80.9895 215.161C82.7995 215.003 85.1078 214.109 85.2651 212.214C85.3701 210.951 84.4258 209.951 83.6126 209.056C82.7995 208.161 82.065 206.845 82.6421 205.661C83.2978 204.319 85.0553 204.108 86.3406 203.345C88.3341 202.161 89.226 199.398 88.7276 197.213C88.203 195.029 86.5504 193.45 84.6881 192.45H84.7143Z" fill="#80BC58"/>
<path d="M42.2996 209.767C41.5389 212.346 42.1422 215.82 45.0014 216.925C47.9654 218.083 51.2705 215.899 54.1559 216.899C54.0509 218.372 55.1264 219.872 56.6478 220.372C59.1921 221.215 61.684 219.425 64.0972 218.478C66.1957 217.662 71.468 217.32 72.832 216.872C72.7533 216.425 72.5697 215.583 72.4123 215.004C71.6779 214.135 70.7336 213.872 69.6057 213.609C69.0548 213.477 68.4778 213.477 67.9531 213.293C66.2482 212.688 65.7235 210.662 65.2252 208.951C64.7006 207.214 63.389 205.109 61.5004 205.319C60.2413 205.451 59.4544 206.582 58.7462 207.556C58.0117 208.53 56.9101 209.504 55.6248 209.161C54.1821 208.793 53.6312 207.109 52.6345 205.977C51.0869 204.24 48.2015 203.898 46.1817 204.846C44.1358 205.793 42.9292 207.74 42.3258 209.767H42.2996Z" fill="#80BC58"/>
<path d="M103.233 207.819C102.577 205.214 100.295 202.53 97.2789 203.03C94.1312 203.53 92.4 207.109 89.4359 207.714C88.7802 206.398 87.1014 205.661 85.5276 206.004C82.9045 206.583 81.6717 209.398 80.0716 211.425C78.6814 213.188 74.3009 216.188 73.3566 217.267C73.6451 217.609 74.2222 218.267 74.6681 218.688C75.7436 219.057 76.6879 218.82 77.7896 218.451C78.3142 218.294 78.8388 217.978 79.3896 217.872C81.1471 217.53 82.6422 219.004 83.9537 220.215C85.2915 221.452 87.4686 222.583 88.99 221.452C90.013 220.688 90.0917 219.32 90.2229 218.109C90.354 216.899 90.8262 215.504 92.1115 215.109C93.5541 214.688 94.8657 215.872 96.3084 216.32C98.5117 217.03 101.187 215.846 102.446 214.004C103.732 212.135 103.784 209.846 103.286 207.819H103.233Z" fill="#80BC58"/>
<path d="M89.3852 218.899C91.8771 216.162 95.1034 214.083 98.6183 213.004C100.822 212.319 103.366 212.082 105.255 213.425C106.671 214.451 107.432 216.241 107.406 217.977C107.379 219.714 106.697 221.425 105.648 222.793C103.786 225.241 100.848 226.767 97.8314 226.846C94.4739 226.951 91.2213 225.399 87.89 225.557C86.7621 225.609 82.9849 226.978 81.8832 227.267C82.9325 225.872 88.6245 219.767 89.4114 218.872L89.3852 218.899Z" fill="#80BC58"/>
<path d="M81.0947 222.477C80.8587 222.32 80.5963 222.188 80.3603 222.056C80.6488 217.609 80.439 210.609 80.439 210.398C80.334 208.477 80.8849 206.477 82.144 205.056C83.4293 203.635 85.4752 202.845 87.3376 203.293L88.1508 205.872L89.4098 206.424C89.4098 206.24 89.5148 206.029 89.6459 205.872C90.5377 204.661 90.5115 203.056 90.8525 201.582C91.1673 200.108 93.1608 197.871 97.4364 198.161C100.899 198.371 103.706 201.95 103.469 205.424C103.365 207.266 102.21 209.24 100.4 209.556C99.7185 209.661 99.0102 209.345 98.3545 209.53C94.0264 210.609 97.1741 214.661 99.0102 214.214C100.846 213.767 103.207 213.74 104.178 215.372C104.414 217.977 102.683 220.451 100.4 221.714C99.7185 222.083 98.984 222.372 98.2495 222.583C95.6527 223.293 93.0821 221.846 91.9017 219.425C91.7444 219.083 91.482 218.819 91.0624 218.635C90.3017 218.319 89.5934 218.951 88.9639 219.451C86.813 221.109 86.0261 224.978 83.5342 226.399C82.7997 225.662 82.0128 223.03 81.1472 222.477H81.0947Z" fill="#538241"/>
<path d="M69.2384 216.477C69.081 217.767 69.5794 219.188 70.6024 219.951C71.5991 220.714 73.0943 220.688 73.9337 219.767C74.3009 219.372 74.5632 218.819 74.9829 218.477C75.901 217.767 77.265 218.293 78.0519 219.24C78.8388 220.162 79.206 221.398 79.7569 222.504C80.6225 224.267 81.9865 225.767 83.5865 226.741C82.7996 223.425 82.275 219.267 84.7407 217.267C85.8948 216.346 87.4162 216.161 88.8589 216.004C90.3016 215.846 91.8229 215.609 92.9246 214.609C94.0263 213.609 94.3935 211.53 93.2918 210.451C92.3213 209.503 90.4065 209.24 90.4852 207.845C90.5114 207.24 90.9836 206.819 91.3508 206.372C92.5049 204.977 92.8722 202.819 92.1377 201.082C91.4032 199.345 89.5146 198.161 87.8096 198.529C86.6555 198.792 85.5276 199.661 84.3997 199.24C83.4029 198.871 82.9045 197.687 82.2488 196.819C81.0946 195.319 79.1798 194.555 77.4486 194.924C75.7173 195.292 74.2747 196.819 73.855 198.661C73.6189 199.74 73.6714 200.924 73.1205 201.845C71.7828 204.056 67.8482 203.161 66.9563 205.635C65.9858 208.266 69.7892 210.503 69.8679 213.372C69.8941 214.451 69.3958 215.425 69.2646 216.477H69.2384Z" fill="#80BC58"/>
<path d="M59.3791 220.135C59.8513 218.609 60.5333 217.082 61.7923 216.135C63.3662 214.951 65.5433 214.872 67.4057 215.503C69.2681 216.135 70.8419 217.372 72.337 218.635C75.0913 221.004 78.475 223.767 81.8063 225.451C81.9374 225.951 82.1735 226.451 82.4883 226.846C82.3047 226.978 82.1211 227.109 81.885 227.267C80.5472 227.346 79.3406 227.162 78.0815 226.714C75.9044 225.951 73.6748 224.425 71.5239 225.241C70.5271 225.635 69.7664 226.477 68.8484 227.03C66.4876 228.451 63.3662 227.741 61.1103 226.162C60.4284 225.688 59.7464 225.109 59.3791 224.346C58.7234 223.056 58.9857 221.504 59.3791 220.109V220.135Z" fill="#538241"/>
<path d="M62.0272 203.845C63.8633 201.871 67.1421 200.661 69.5554 202.556C72.0473 204.529 71.8374 208.503 74.1457 210.477C75.3523 209.635 77.1885 209.845 78.3951 210.898C80.4148 212.688 80.1263 215.74 80.5198 218.293C80.8607 220.504 83.2477 225.267 83.5625 226.662C83.1428 226.82 82.3297 227.109 81.7526 227.267C80.6509 227.083 79.9427 226.399 79.1295 225.557C78.7361 225.135 78.4475 224.635 78.0278 224.267C76.6639 223.109 74.6441 223.662 72.9129 224.083C71.1554 224.504 68.6898 224.425 67.9028 222.688C67.3782 221.53 67.9815 220.293 68.4274 219.162C68.8996 218.056 69.1619 216.583 68.2438 215.635C67.1946 214.556 65.4634 214.951 63.9945 214.661C61.7386 214.188 59.9812 211.872 59.7714 209.635C59.5615 207.398 60.6107 205.345 62.0534 203.819L62.0272 203.845Z" fill="#538241"/>
<path d="M150.72 217.093C153.028 217.093 154.891 218.962 154.891 221.278V231.304C154.891 233.62 153.186 235.489 151.087 235.489H137.683C135.585 235.489 133.88 233.62 133.88 231.304V221.278C133.88 218.962 135.742 217.093 138.051 217.093H150.746H150.72Z" fill="#E8A53B"/>
<path d="M133.112 215.609C129.859 213.819 126.134 212.925 122.462 213.056C120.18 213.135 117.662 213.714 116.324 215.609C115.327 217.03 115.196 218.977 115.747 220.635C116.324 222.293 117.531 223.662 118.973 224.636C121.518 226.346 124.797 226.82 127.682 225.925C130.882 224.925 133.453 222.399 136.679 221.478C137.754 221.162 141.768 221.214 142.922 221.135C141.479 220.162 134.135 216.24 133.085 215.635L133.112 215.609Z" fill="#80BC58"/>
<path d="M143.445 218.188C143.629 217.978 143.812 217.741 143.996 217.53C142.291 213.425 140.219 206.714 140.166 206.53C139.668 204.688 138.488 202.977 136.809 202.03C135.13 201.082 132.953 201.03 131.327 202.03L131.405 204.74L130.409 205.661C130.382 205.477 130.199 205.319 130.015 205.214C128.782 204.372 128.284 202.819 127.497 201.556C126.71 200.293 124.113 198.819 120.152 200.451C116.952 201.793 115.457 206.082 116.795 209.293C117.503 211.004 119.208 212.504 121.044 212.188C121.726 212.083 122.277 211.556 122.959 211.477C127.418 211.083 125.74 215.951 123.851 216.135C121.962 216.32 119.733 217.057 119.339 218.925C119.969 221.451 122.408 223.241 124.979 223.688C125.74 223.82 126.527 223.846 127.313 223.82C130.015 223.662 131.982 221.451 132.297 218.767C132.35 218.399 132.507 218.057 132.848 217.741C133.451 217.188 134.343 217.057 135.13 217.32C137.701 218.188 139.065 220.32 141.898 220.846C142.344 219.899 142.842 218.951 143.498 218.136L143.445 218.188Z" fill="#538241"/>
<path d="M151.394 206.767C151.945 207.951 151.945 209.451 151.236 210.504C150.528 211.556 149.112 212.004 148.036 211.425C147.538 211.161 147.144 210.714 146.62 210.556C145.518 210.188 144.39 211.135 143.97 212.267C143.551 213.398 143.577 214.688 143.42 215.898C143.157 217.846 142.37 219.688 141.164 221.162C140.823 217.767 139.983 213.662 136.993 212.583C135.603 212.083 134.108 212.398 132.691 212.714C131.275 213.03 129.754 213.293 128.39 212.714C127.026 212.109 126.003 210.293 126.685 208.898C127.288 207.688 129.045 206.819 128.494 205.53C128.258 204.977 127.681 204.714 127.209 204.398C125.662 203.451 124.612 201.53 124.743 199.635C124.875 197.74 126.265 196.029 127.996 195.819C129.176 195.687 130.514 196.135 131.458 195.371C132.272 194.713 132.377 193.424 132.718 192.371C133.321 190.582 134.895 189.24 136.652 189.029C138.41 188.819 140.272 189.766 141.269 191.398C141.846 192.345 142.187 193.477 143 194.187C144.993 195.845 148.403 193.713 150.056 195.766C151.813 197.95 148.954 201.293 149.794 204.03C150.108 205.056 150.895 205.819 151.368 206.767H151.394Z" fill="#80BC58"/>
<path d="M161.91 207.03C160.992 205.74 159.838 204.53 158.343 204.03C156.481 203.424 154.382 204.056 152.835 205.267C151.287 206.477 150.185 208.135 149.189 209.846C147.352 213.004 145.044 216.688 142.421 219.372C142.447 219.899 142.395 220.425 142.238 220.925C142.447 221.004 142.683 221.057 142.946 221.109C144.231 220.767 145.307 220.162 146.356 219.346C148.166 217.925 149.792 215.741 152.074 215.82C153.149 215.846 154.12 216.399 155.195 216.635C157.871 217.214 160.625 215.504 162.251 213.293C162.75 212.609 163.196 211.846 163.301 211.03C163.511 209.583 162.75 208.188 161.91 207.03V207.03Z" fill="#538241"/>
<path d="M154.121 192.45C151.734 191.187 148.245 191.108 146.592 193.687C144.861 196.371 146.356 200.056 144.809 202.687C143.392 202.292 141.713 203.056 140.927 204.45C139.589 206.793 140.848 209.609 141.294 212.161C141.687 214.372 140.953 219.662 141.136 221.083C141.582 221.083 142.448 221.083 143.051 221.056C144.048 220.504 144.494 219.635 144.966 218.583C145.202 218.056 145.307 217.504 145.596 217.004C146.514 215.451 148.612 215.319 150.396 215.161C152.206 215.003 154.514 214.109 154.671 212.214C154.776 210.951 153.832 209.951 153.019 209.056C152.206 208.161 151.471 206.845 152.048 205.661C152.704 204.319 154.462 204.108 155.747 203.345C157.74 202.161 158.632 199.398 158.134 197.213C157.609 195.029 155.957 193.45 154.094 192.45H154.121Z" fill="#80BC58"/>
<path d="M111.706 209.767C110.945 212.346 111.548 215.82 114.408 216.925C117.372 218.083 120.677 215.899 123.562 216.899C123.457 218.372 124.533 219.872 126.054 220.372C128.598 221.215 131.09 219.425 133.503 218.478C135.602 217.662 140.874 217.32 142.238 216.872C142.16 216.425 141.976 215.583 141.819 215.004C141.084 214.135 140.14 213.872 139.012 213.609C138.461 213.477 137.884 213.477 137.359 213.293C135.654 212.688 135.13 210.662 134.631 208.951C134.107 207.214 132.795 205.109 130.907 205.319C129.648 205.451 128.861 206.582 128.152 207.556C127.418 208.53 126.316 209.504 125.031 209.161C123.588 208.793 123.037 207.109 122.041 205.977C120.493 204.24 117.608 203.898 115.588 204.846C113.542 205.793 112.335 207.74 111.732 209.767H111.706Z" fill="#80BC58"/>
<path d="M172.639 207.819C171.984 205.214 169.702 202.53 166.685 203.03C163.537 203.53 161.806 207.109 158.842 207.714C158.186 206.398 156.508 205.661 154.934 206.004C152.311 206.583 151.078 209.398 149.478 211.425C148.088 213.188 143.707 216.188 142.763 217.267C143.051 217.609 143.628 218.267 144.074 218.688C145.15 219.057 146.094 218.82 147.196 218.451C147.72 218.294 148.245 217.978 148.796 217.872C150.553 217.53 152.048 219.004 153.36 220.215C154.698 221.452 156.875 222.583 158.396 221.452C159.419 220.688 159.498 219.32 159.629 218.109C159.76 216.899 160.232 215.504 161.518 215.109C162.96 214.688 164.272 215.872 165.715 216.32C167.918 217.03 170.593 215.846 171.853 214.004C173.138 212.135 173.19 209.846 172.692 207.819H172.639Z" fill="#80BC58"/>
<path d="M158.791 218.899C161.283 216.162 164.51 214.083 168.025 213.004C170.228 212.319 172.772 212.082 174.661 213.425C176.077 214.451 176.838 216.241 176.812 217.977C176.786 219.714 176.104 221.425 175.054 222.793C173.192 225.241 170.254 226.767 167.238 226.846C163.88 226.951 160.628 225.399 157.296 225.557C156.168 225.609 152.391 226.978 151.289 227.267C152.339 225.872 158.031 219.767 158.818 218.872L158.791 218.899Z" fill="#80BC58"/>
<path d="M150.501 222.477C150.265 222.32 150.003 222.188 149.767 222.056C150.055 217.609 149.845 210.609 149.845 210.398C149.74 208.477 150.291 206.477 151.55 205.056C152.836 203.635 154.881 202.845 156.744 203.293L157.557 205.872L158.816 206.424C158.816 206.24 158.921 206.029 159.052 205.872C159.944 204.661 159.918 203.056 160.259 201.582C160.574 200.108 162.567 197.871 166.843 198.161C170.305 198.371 173.112 201.95 172.876 205.424C172.771 207.266 171.617 209.24 169.807 209.556C169.125 209.661 168.416 209.345 167.761 209.53C163.433 210.609 166.58 214.661 168.416 214.214C170.253 213.767 172.613 213.74 173.584 215.372C173.82 217.977 172.089 220.451 169.807 221.714C169.125 222.083 168.39 222.372 167.656 222.583C165.059 223.293 162.488 221.846 161.308 219.425C161.151 219.083 160.888 218.819 160.469 218.635C159.708 218.319 159 218.951 158.37 219.451C156.219 221.109 155.432 224.978 152.94 226.399C152.206 225.662 151.419 223.03 150.553 222.477H150.501Z" fill="#538241"/>
<path d="M138.645 216.477C138.487 217.767 138.986 219.188 140.009 219.951C141.005 220.714 142.501 220.688 143.34 219.767C143.707 219.372 143.969 218.819 144.389 218.477C145.307 217.767 146.671 218.293 147.458 219.24C148.245 220.162 148.612 221.398 149.163 222.504C150.029 224.267 151.393 225.767 152.993 226.741C152.206 223.425 151.681 219.267 154.147 217.267C155.301 216.346 156.822 216.161 158.265 216.004C159.708 215.846 161.229 215.609 162.331 214.609C163.433 213.609 163.8 211.53 162.698 210.451C161.728 209.503 159.813 209.24 159.891 207.845C159.918 207.24 160.39 206.819 160.757 206.372C161.911 204.977 162.278 202.819 161.544 201.082C160.809 199.345 158.921 198.161 157.216 198.529C156.062 198.792 154.934 199.661 153.806 199.24C152.809 198.871 152.311 197.687 151.655 196.819C150.501 195.319 148.586 194.555 146.855 194.924C145.124 195.292 143.681 196.819 143.261 198.661C143.025 199.74 143.078 200.924 142.527 201.845C141.189 204.056 137.254 203.161 136.363 205.635C135.392 208.266 139.195 210.503 139.274 213.372C139.3 214.451 138.802 215.425 138.671 216.477H138.645Z" fill="#80BC58"/>
<path d="M128.785 220.135C129.258 218.609 129.94 217.082 131.199 216.135C132.772 214.951 134.95 214.872 136.812 215.503C138.674 216.135 140.248 217.372 141.743 218.635C144.498 221.004 147.881 223.767 151.213 225.451C151.344 225.951 151.58 226.451 151.895 226.846C151.711 226.978 151.527 227.109 151.291 227.267C149.953 227.346 148.747 227.162 147.488 226.714C145.311 225.951 143.081 224.425 140.93 225.241C139.933 225.635 139.173 226.477 138.255 227.03C135.894 228.451 132.772 227.741 130.517 226.162C129.835 225.688 129.153 225.109 128.785 224.346C128.13 223.056 128.392 221.504 128.785 220.109V220.135Z" fill="#538241"/>
<path d="M131.433 203.845C133.27 201.871 136.548 200.661 138.962 202.556C141.454 204.529 141.244 208.503 143.552 210.477C144.759 209.635 146.595 209.845 147.801 210.898C149.821 212.688 149.533 215.74 149.926 218.293C150.267 220.504 152.654 225.267 152.969 226.662C152.549 226.82 151.736 227.109 151.159 227.267C150.057 227.083 149.349 226.399 148.536 225.557C148.142 225.135 147.854 224.635 147.434 224.267C146.07 223.109 144.05 223.662 142.319 224.083C140.562 224.504 138.096 224.425 137.309 222.688C136.784 221.53 137.388 220.293 137.834 219.162C138.306 218.056 138.568 216.583 137.65 215.635C136.601 214.556 134.87 214.951 133.401 214.661C131.145 214.188 129.387 211.872 129.178 209.635C128.968 207.398 130.017 205.345 131.46 203.819L131.433 203.845Z" fill="#538241"/>
<path d="M220.126 217.093C222.435 217.093 224.297 218.962 224.297 221.278V231.304C224.297 233.62 222.592 235.489 220.493 235.489H207.09C204.991 235.489 203.286 233.62 203.286 231.304V221.278C203.286 218.962 205.149 217.093 207.457 217.093H220.152H220.126Z" fill="#E8A53B"/>
<path d="M202.518 215.609C199.265 213.819 195.541 212.925 191.868 213.056C189.586 213.135 187.068 213.714 185.73 215.609C184.734 217.03 184.602 218.977 185.153 220.635C185.73 222.293 186.937 223.662 188.38 224.636C190.924 226.346 194.203 226.82 197.088 225.925C200.288 224.925 202.859 222.399 206.085 221.478C207.161 221.162 211.174 221.214 212.328 221.135C210.885 220.162 203.541 216.24 202.492 215.635L202.518 215.609Z" fill="#80BC58"/>
<path d="M212.851 218.188C213.035 217.978 213.219 217.741 213.402 217.53C211.697 213.425 209.625 206.714 209.573 206.53C209.074 204.688 207.894 202.977 206.215 202.03C204.536 201.082 202.359 201.03 200.733 202.03L200.812 204.74L199.815 205.661C199.789 205.477 199.605 205.319 199.421 205.214C198.189 204.372 197.69 202.819 196.903 201.556C196.116 200.293 193.52 198.819 189.559 200.451C186.359 201.793 184.863 206.082 186.201 209.293C186.909 211.004 188.614 212.504 190.451 212.188C191.133 212.083 191.683 211.556 192.365 211.477C196.825 211.083 195.146 215.951 193.257 216.135C191.369 216.32 189.139 217.057 188.746 218.925C189.375 221.451 191.815 223.241 194.385 223.688C195.146 223.82 195.933 223.846 196.72 223.82C199.421 223.662 201.389 221.451 201.703 218.767C201.756 218.399 201.913 218.057 202.254 217.741C202.858 217.188 203.749 217.057 204.536 217.32C207.107 218.188 208.471 220.32 211.304 220.846C211.75 219.899 212.248 218.951 212.904 218.136L212.851 218.188Z" fill="#538241"/>
<path d="M220.8 206.767C221.351 207.951 221.351 209.451 220.643 210.504C219.934 211.556 218.518 212.004 217.442 211.425C216.944 211.161 216.551 210.714 216.026 210.556C214.924 210.188 213.796 211.135 213.377 212.267C212.957 213.398 212.983 214.688 212.826 215.898C212.564 217.846 211.777 219.688 210.57 221.162C210.229 217.767 209.39 213.662 206.399 212.583C205.009 212.083 203.514 212.398 202.098 212.714C200.681 213.03 199.16 213.293 197.796 212.714C196.432 212.109 195.409 210.293 196.091 208.898C196.694 207.688 198.452 206.819 197.901 205.53C197.665 204.977 197.088 204.714 196.615 204.398C195.068 203.451 194.019 201.53 194.15 199.635C194.281 197.74 195.671 196.029 197.402 195.819C198.583 195.687 199.92 196.135 200.865 195.371C201.678 194.713 201.783 193.424 202.124 192.371C202.727 190.582 204.301 189.24 206.058 189.029C207.816 188.819 209.678 189.766 210.675 191.398C211.252 192.345 211.593 193.477 212.406 194.187C214.4 195.845 217.81 193.713 219.462 195.766C221.22 197.95 218.361 201.293 219.2 204.03C219.515 205.056 220.302 205.819 220.774 206.767H220.8Z" fill="#80BC58"/>
<path d="M231.317 207.03C230.399 205.74 229.245 204.53 227.749 204.03C225.887 203.424 223.789 204.056 222.241 205.267C220.693 206.477 219.592 208.135 218.595 209.846C216.759 213.004 214.45 216.688 211.827 219.372C211.854 219.899 211.801 220.425 211.644 220.925C211.854 221.004 212.09 221.057 212.352 221.109C213.637 220.767 214.713 220.162 215.762 219.346C217.572 217.925 219.198 215.741 221.48 215.82C222.556 215.846 223.526 216.399 224.602 216.635C227.277 217.214 230.031 215.504 231.658 213.293C232.156 212.609 232.602 211.846 232.707 211.03C232.917 209.583 232.156 208.188 231.317 207.03V207.03Z" fill="#538241"/>
<path d="M223.527 192.45C221.14 191.187 217.651 191.108 215.999 193.687C214.267 196.371 215.763 200.056 214.215 202.687C212.798 202.292 211.12 203.056 210.333 204.45C208.995 206.793 210.254 209.609 210.7 212.161C211.093 214.372 210.359 219.662 210.543 221.083C210.989 221.083 211.854 221.083 212.457 221.056C213.454 220.504 213.9 219.635 214.372 218.583C214.608 218.056 214.713 217.504 215.002 217.004C215.92 215.451 218.018 215.319 219.802 215.161C221.612 215.003 223.92 214.109 224.078 212.214C224.183 210.951 223.238 209.951 222.425 209.056C221.612 208.161 220.878 206.845 221.455 205.661C222.11 204.319 223.868 204.108 225.153 203.345C227.147 202.161 228.038 199.398 227.54 197.213C227.015 195.029 225.363 193.45 223.501 192.45H223.527Z" fill="#80BC58"/>
<path d="M181.112 209.767C180.351 212.346 180.955 215.82 183.814 216.925C186.778 218.083 190.083 215.899 192.968 216.899C192.863 218.372 193.939 219.872 195.46 220.372C198.005 221.215 200.497 219.425 202.91 218.478C205.008 217.662 210.281 217.32 211.645 216.872C211.566 216.425 211.382 215.583 211.225 215.004C210.49 214.135 209.546 213.872 208.418 213.609C207.867 213.477 207.29 213.477 206.766 213.293C205.061 212.688 204.536 210.662 204.038 208.951C203.513 207.214 202.202 205.109 200.313 205.319C199.054 205.451 198.267 206.582 197.559 207.556C196.824 208.53 195.723 209.504 194.437 209.161C192.995 208.793 192.444 207.109 191.447 205.977C189.899 204.24 187.014 203.898 184.994 204.846C182.948 205.793 181.742 207.74 181.138 209.767H181.112Z" fill="#80BC58"/>
<path d="M242.046 207.819C241.39 205.214 239.108 202.53 236.091 203.03C232.944 203.53 231.212 207.109 228.248 207.714C227.593 206.398 225.914 205.661 224.34 206.004C221.717 206.583 220.484 209.398 218.884 211.425C217.494 213.188 213.113 216.188 212.169 217.267C212.458 217.609 213.035 218.267 213.481 218.688C214.556 219.057 215.5 218.82 216.602 218.451C217.127 218.294 217.651 217.978 218.202 217.872C219.96 217.53 221.455 219.004 222.766 220.215C224.104 221.452 226.281 222.583 227.803 221.452C228.826 220.688 228.904 219.32 229.035 218.109C229.167 216.899 229.639 215.504 230.924 215.109C232.367 214.688 233.678 215.872 235.121 216.32C237.324 217.03 240 215.846 241.259 214.004C242.544 212.135 242.597 209.846 242.098 207.819H242.046Z" fill="#80BC58"/>
<path d="M228.198 218.899C230.69 216.162 233.916 214.083 237.431 213.004C239.634 212.319 242.179 212.082 244.067 213.425C245.484 214.451 246.244 216.241 246.218 217.977C246.192 219.714 245.51 221.425 244.461 222.793C242.598 225.241 239.66 226.767 236.644 226.846C233.286 226.951 230.034 225.399 226.703 225.557C225.575 225.609 221.797 226.978 220.696 227.267C221.745 225.872 227.437 219.767 228.224 218.872L228.198 218.899Z" fill="#80BC58"/>
<path d="M219.907 222.477C219.671 222.32 219.409 222.188 219.173 222.056C219.461 217.609 219.251 210.609 219.251 210.398C219.147 208.477 219.697 206.477 220.956 205.056C222.242 203.635 224.288 202.845 226.15 203.293L226.963 205.872L228.222 206.424C228.222 206.24 228.327 206.029 228.458 205.872C229.35 204.661 229.324 203.056 229.665 201.582C229.98 200.108 231.973 197.871 236.249 198.161C239.711 198.371 242.518 201.95 242.282 205.424C242.177 207.266 241.023 209.24 239.213 209.556C238.531 209.661 237.823 209.345 237.167 209.53C232.839 210.609 235.987 214.661 237.823 214.214C239.659 213.767 242.02 213.74 242.99 215.372C243.226 217.977 241.495 220.451 239.213 221.714C238.531 222.083 237.796 222.372 237.062 222.583C234.465 223.293 231.895 221.846 230.714 219.425C230.557 219.083 230.295 218.819 229.875 218.635C229.114 218.319 228.406 218.951 227.776 219.451C225.626 221.109 224.839 224.978 222.347 226.399C221.612 225.662 220.825 223.03 219.96 222.477H219.907Z" fill="#538241"/>
<path d="M208.051 216.477C207.894 217.767 208.392 219.188 209.415 219.951C210.412 220.714 211.907 220.688 212.746 219.767C213.113 219.372 213.376 218.819 213.795 218.477C214.713 217.767 216.077 218.293 216.864 219.24C217.651 220.162 218.019 221.398 218.569 222.504C219.435 224.267 220.799 225.767 222.399 226.741C221.612 223.425 221.087 219.267 223.553 217.267C224.707 216.346 226.229 216.161 227.671 216.004C229.114 215.846 230.635 215.609 231.737 214.609C232.839 213.609 233.206 211.53 232.104 210.451C231.134 209.503 229.219 209.24 229.298 207.845C229.324 207.24 229.796 206.819 230.163 206.372C231.317 204.977 231.685 202.819 230.95 201.082C230.216 199.345 228.327 198.161 226.622 198.529C225.468 198.792 224.34 199.661 223.212 199.24C222.215 198.871 221.717 197.687 221.061 196.819C219.907 195.319 217.992 194.555 216.261 194.924C214.53 195.292 213.087 196.819 212.667 198.661C212.431 199.74 212.484 200.924 211.933 201.845C210.595 204.056 206.661 203.161 205.769 205.635C204.798 208.266 208.602 210.503 208.68 213.372C208.707 214.451 208.208 215.425 208.077 216.477H208.051Z" fill="#80BC58"/>
<path d="M198.192 220.135C198.664 218.609 199.346 217.082 200.605 216.135C202.179 214.951 204.356 214.872 206.218 215.503C208.081 216.135 209.654 217.372 211.15 218.635C213.904 221.004 217.288 223.767 220.619 225.451C220.75 225.951 220.986 226.451 221.301 226.846C221.117 226.978 220.934 227.109 220.697 227.267C219.36 227.346 218.153 227.162 216.894 226.714C214.717 225.951 212.487 224.425 210.336 225.241C209.34 225.635 208.579 226.477 207.661 227.03C205.3 228.451 202.179 227.741 199.923 226.162C199.241 225.688 198.559 225.109 198.192 224.346C197.536 223.056 197.798 221.504 198.192 220.109V220.135Z" fill="#538241"/>
<path d="M200.84 203.845C202.676 201.871 205.955 200.661 208.368 202.556C210.86 204.529 210.65 208.503 212.958 210.477C214.165 209.635 216.001 209.845 217.208 210.898C219.227 212.688 218.939 215.74 219.332 218.293C219.673 220.504 222.06 225.267 222.375 226.662C221.955 226.82 221.142 227.109 220.565 227.267C219.463 227.083 218.755 226.399 217.942 225.557C217.549 225.135 217.26 224.635 216.84 224.267C215.476 223.109 213.457 223.662 211.725 224.083C209.968 224.504 207.502 224.425 206.715 222.688C206.191 221.53 206.794 220.293 207.24 219.162C207.712 218.056 207.974 216.583 207.056 215.635C206.007 214.556 204.276 214.951 202.807 214.661C200.551 214.188 198.794 211.872 198.584 209.635C198.374 207.398 199.423 205.345 200.866 203.819L200.84 203.845Z" fill="#538241"/>
</g>
<defs>
<linearGradient id="paint0_linear_262_10846" x1="314.914" y1="217.021" x2="334.53" y2="217.021" gradientUnits="userSpaceOnUse">
<stop stop-color="#EB8E18"/>
<stop offset="0.08" stop-color="#F19722"/>
<stop offset="0.2" stop-color="#F9A12E"/>
<stop offset="0.38" stop-color="#FDA735"/>
<stop offset="0.88" stop-color="#FFA937"/>
</linearGradient>
<linearGradient id="paint1_linear_262_10846" x1="327.09" y1="239.741" x2="340.741" y2="239.741" gradientUnits="userSpaceOnUse">
<stop stop-color="#EB8E18"/>
<stop offset="0.08" stop-color="#F19722"/>
<stop offset="0.2" stop-color="#F9A12E"/>
<stop offset="0.38" stop-color="#FDA735"/>
<stop offset="0.88" stop-color="#FFA937"/>
</linearGradient>
<radialGradient id="paint2_radial_262_10846" cx="0" cy="0" r="1" gradientUnits="userSpaceOnUse" gradientTransform="translate(322.659 246.42) scale(10.3468)">
<stop stop-color="#28292E"/>
<stop offset="0.3" stop-color="#2A2B30"/>
<stop offset="0.52" stop-color="#33343A"/>
<stop offset="0.72" stop-color="#42434A"/>
<stop offset="0.8" stop-color="#4B4C54"/>
<stop offset="0.86" stop-color="#46474F"/>
<stop offset="0.93" stop-color="#393A41"/>
<stop offset="1" stop-color="#28292E"/>
</radialGradient>
<linearGradient id="paint3_linear_262_10846" x1="310.48" y1="221.975" x2="347.678" y2="221.975" gradientUnits="userSpaceOnUse">
<stop stop-color="#EB8E18"/>
<stop offset="0.08" stop-color="#F19722"/>
<stop offset="0.2" stop-color="#F9A12E"/>
<stop offset="0.38" stop-color="#FDA735"/>
<stop offset="0.88" stop-color="#FFA937"/>
</linearGradient>
<linearGradient id="paint4_linear_262_10846" x1="387.651" y1="197.812" x2="400.821" y2="197.812" gradientUnits="userSpaceOnUse">
<stop stop-color="#EB8E18"/>
<stop offset="0.08" stop-color="#F19722"/>
<stop offset="0.2" stop-color="#F9A12E"/>
<stop offset="0.38" stop-color="#FDA735"/>
<stop offset="0.88" stop-color="#FFA937"/>
</linearGradient>
<linearGradient id="paint5_linear_262_10846" x1="388.523" y1="200.171" x2="399.764" y2="200.171" gradientUnits="userSpaceOnUse">
<stop stop-color="#62798E"/>
<stop offset="0.05" stop-color="#718AA0"/>
<stop offset="0.14" stop-color="#849EB4"/>
<stop offset="0.23" stop-color="#91ADC3"/>
<stop offset="0.34" stop-color="#98B5CC"/>
<stop offset="0.52" stop-color="#9BB8CF"/>
<stop offset="0.64" stop-color="#90ACC2"/>
<stop offset="0.88" stop-color="#738CA2"/>
<stop offset="1" stop-color="#62798E"/>
</linearGradient>
<linearGradient id="paint6_linear_262_10846" x1="359.613" y1="234.252" x2="359.613" y2="244.841" gradientUnits="userSpaceOnUse">
<stop stop-color="#28292E"/>
<stop offset="0.16" stop-color="#43444C"/>
<stop offset="0.19" stop-color="#4B4C54"/>
<stop offset="0.22" stop-color="#45464D"/>
<stop offset="0.3" stop-color="#34353B"/>
<stop offset="0.39" stop-color="#2B2C31"/>
<stop offset="0.5" stop-color="#28292E"/>
<stop offset="0.61" stop-color="#2A2B30"/>
<stop offset="0.7" stop-color="#33343A"/>
<stop offset="0.77" stop-color="#42434A"/>
<stop offset="0.8" stop-color="#4B4C54"/>
<stop offset="0.86" stop-color="#46474F"/>
<stop offset="0.93" stop-color="#393A41"/>
<stop offset="1" stop-color="#28292E"/>
</linearGradient>
<linearGradient id="paint7_linear_262_10846" x1="354.131" y1="234.252" x2="354.131" y2="244.841" gradientUnits="userSpaceOnUse">
<stop stop-color="#45464C"/>
<stop offset="0.13" stop-color="#60616A"/>
<stop offset="0.19" stop-color="#71727C"/>
<stop offset="0.25" stop-color="#61626B"/>
<stop offset="0.32" stop-color="#515259"/>
<stop offset="0.4" stop-color="#48494F"/>
<stop offset="0.5" stop-color="#45464C"/>
<stop offset="0.6" stop-color="#47484E"/>
<stop offset="0.68" stop-color="#505158"/>
<stop offset="0.75" stop-color="#5F6068"/>
<stop offset="0.8" stop-color="#71727C"/>
<stop offset="0.86" stop-color="#6C6D77"/>
<stop offset="0.92" stop-color="#5F6069"/>
<stop offset="0.99" stop-color="#4A4B52"/>
<stop offset="1" stop-color="#45464C"/>
</linearGradient>
<linearGradient id="paint8_linear_262_10846" x1="365.409" y1="197" x2="365.409" y2="197" gradientUnits="userSpaceOnUse">
<stop stop-color="#45464C"/>
<stop offset="0.13" stop-color="#60616A"/>
<stop offset="0.19" stop-color="#71727C"/>
<stop offset="0.25" stop-color="#61626B"/>
<stop offset="0.32" stop-color="#515259"/>
<stop offset="0.4" stop-color="#48494F"/>
<stop offset="0.5" stop-color="#45464C"/>
<stop offset="0.6" stop-color="#47484E"/>
<stop offset="0.68" stop-color="#505158"/>
<stop offset="0.75" stop-color="#5F6068"/>
<stop offset="0.8" stop-color="#71727C"/>
<stop offset="0.86" stop-color="#6C6D77"/>
<stop offset="0.92" stop-color="#5F6069"/>
<stop offset="0.99" stop-color="#4A4B52"/>
<stop offset="1" stop-color="#45464C"/>
</linearGradient>
<radialGradient id="paint9_radial_262_10846" cx="0" cy="0" r="1" gradientUnits="userSpaceOnUse" gradientTransform="translate(406.347 197.209) scale(10.3468)">
<stop stop-color="#28292E"/>
<stop offset="0.3" stop-color="#2A2B30"/>
<stop offset="0.52" stop-color="#33343A"/>
<stop offset="0.72" stop-color="#42434A"/>
<stop offset="0.8" stop-color="#4B4C54"/>
<stop offset="0.86" stop-color="#46474F"/>
<stop offset="0.93" stop-color="#393A41"/>
<stop offset="1" stop-color="#28292E"/>
</radialGradient>
<clipPath id="clip0_262_10846">
<rect width="161" height="114" fill="white" transform="translate(275 143)"/>
</clipPath>
<clipPath id="clip1_262_10846">
<rect width="269" height="88" fill="white" transform="translate(42 157)"/>
</clipPath>
</defs>
</svg>
