<svg width="482" height="265" viewBox="0 0 482 265" fill="none" xmlns="http://www.w3.org/2000/svg">
<path d="M82.7075 152.373C82.7075 151.33 83.0418 150.52 83.7105 149.942C84.3905 149.352 85.3312 149.058 86.5325 149.058C87.7338 149.058 88.6688 149.352 89.3375 149.942C90.0175 150.52 90.3575 151.33 90.3575 152.373V153.053C90.3575 154.095 90.0175 154.911 89.3375 155.501C88.6688 156.079 87.7338 156.368 86.5325 156.368C85.3312 156.368 84.3905 156.079 83.7105 155.501C83.0418 154.911 82.7075 154.095 82.7075 153.053V152.373ZM94.6245 149.058H91.4455V156.232H94.6245V155.297H95.8995V153.087H94.6245V152.186H95.8995V149.976H94.6245V149.058ZM85.9375 153.223C85.9375 153.404 85.9885 153.551 86.0905 153.665C86.2038 153.767 86.3512 153.818 86.5325 153.818C86.7252 153.818 86.8725 153.767 86.9745 153.665C87.0765 153.551 87.1275 153.404 87.1275 153.223V152.203C87.1275 152.01 87.0765 151.863 86.9745 151.761C86.8725 151.659 86.7252 151.608 86.5325 151.608C86.3512 151.608 86.2038 151.659 86.0905 151.761C85.9885 151.863 85.9375 152.01 85.9375 152.203V153.223ZM94.6245 159.36C94.6245 158.6 94.3695 157.977 93.8595 157.49C93.3608 156.991 92.7262 156.742 91.9555 156.742H85.7335C84.9628 156.742 84.3225 156.991 83.8125 157.49C83.3138 157.977 83.0645 158.6 83.0645 159.36C83.0645 160.119 83.3138 160.748 83.8125 161.247C84.3225 161.734 84.9628 161.978 85.7335 161.978H91.9555C92.7262 161.978 93.3608 161.734 93.8595 161.247C94.3695 160.748 94.6245 160.119 94.6245 159.36ZM91.1055 159.037C91.1962 159.037 91.2698 159.071 91.3265 159.139C91.3945 159.195 91.4285 159.269 91.4285 159.36C91.4285 159.45 91.3945 159.53 91.3265 159.598C91.2698 159.654 91.1962 159.683 91.1055 159.683H86.5835C86.4928 159.683 86.4135 159.654 86.3455 159.598C86.2888 159.53 86.2605 159.45 86.2605 159.36C86.2605 159.269 86.2888 159.195 86.3455 159.139C86.4135 159.071 86.4928 159.037 86.5835 159.037H91.1055ZM102.188 153.189C101.576 153.857 100.806 154.39 99.8764 154.787C98.9584 155.172 97.9158 155.41 96.7484 155.501L96.0684 153.121C97.3718 153.03 98.4314 152.662 99.2474 152.016C100.075 151.37 100.522 150.384 100.59 149.058H103.786C103.854 150.384 104.296 151.37 105.112 152.016C105.94 152.662 107.005 153.03 108.308 153.121L107.628 155.501C106.461 155.41 105.413 155.172 104.483 154.787C103.565 154.39 102.8 153.857 102.188 153.189ZM96.0684 159.258V156.708H108.308V159.258H103.803V161.978H100.573V159.258H96.0684ZM118.2 149.058V161.978H121.396V149.058H118.2ZM109.666 161.468C111.06 161.468 112.289 161.071 113.355 160.278C114.431 159.484 115.264 158.357 115.854 156.895C116.454 155.421 116.755 153.704 116.755 151.744V149.194H109.496V151.744H113.559C113.559 153.5 113.332 154.917 112.879 155.994C112.425 157.059 111.876 157.813 111.23 158.255C110.584 158.697 109.949 158.918 109.326 158.918L109.666 161.468Z" fill="#3E4049"/>
</svg>
