<svg width="20" height="28" viewBox="0 0 20 28" fill="none" xmlns="http://www.w3.org/2000/svg">
<g clip-path="url(#clip0_12_3239)">
<path d="M9.65086 14.0816C9.66447 14.0544 9.67807 14.0272 9.69168 14C9.70075 13.9728 9.70982 13.9456 9.71889 13.9184C9.72796 13.8912 9.73703 13.8594 9.74156 13.8322C9.7461 13.805 9.75064 13.7732 9.75517 13.746C9.75517 13.7143 9.75971 13.6871 9.75971 13.6553C9.75971 13.6281 9.75971 13.6009 9.75517 13.5737C9.75517 13.5419 9.75064 13.5102 9.74156 13.4785C9.73703 13.4512 9.72796 13.4286 9.72342 13.4059C9.71435 13.3741 9.70528 13.3424 9.69168 13.3107C9.68261 13.2834 9.669 13.2608 9.6554 13.2381C9.64633 13.2154 9.63726 13.1973 9.62365 13.1746L1.69168 0.430836C1.4241 -3.02651e-06 0.861746 -0.126987 0.430907 0.140587C6.80441e-05 0.40816 -0.126916 0.970518 0.136122 1.39682L7.76878 13.6553L0.136122 25.9138C-0.131451 26.3447 6.80441e-05 26.907 0.430907 27.1746C0.861746 27.4422 1.4241 27.3107 1.69168 26.8798L9.62365 14.1406C9.62365 14.1406 9.64179 14.1043 9.65086 14.0862V14.0816Z" fill="#3C6A3C" fill-opacity="0.2"/>
<path d="M14.7708 14.0862C14.7844 14.059 14.798 14.0317 14.8116 14.0045C14.8252 13.9773 14.8298 13.9456 14.8388 13.9184C14.8479 13.8912 14.857 13.8639 14.8615 13.8322C14.8661 13.805 14.8706 13.7732 14.8751 13.746C14.8751 13.7143 14.8797 13.6871 14.8797 13.6553C14.8797 13.6281 14.8797 13.6009 14.8751 13.5737C14.8751 13.5419 14.8706 13.5102 14.8615 13.4785C14.857 13.4512 14.8479 13.4286 14.8434 13.4014C14.8343 13.3696 14.8252 13.3379 14.8116 13.3107C14.8026 13.2834 14.789 13.2608 14.7754 13.2336C14.7663 13.2154 14.7572 13.1927 14.7481 13.1746L6.81617 0.430836C6.54859 -3.02651e-06 5.9817 -0.126987 5.55086 0.140587C5.12456 0.40816 4.99304 0.970518 5.25608 1.40136L12.8887 13.6553L5.26061 25.9138C4.99304 26.3447 5.12456 26.907 5.5554 27.1746C5.9817 27.4422 6.54859 27.3107 6.81617 26.8798L14.7481 14.1406C14.7481 14.1406 14.7663 14.1043 14.7754 14.0862H14.7708Z" fill="#3C6A3C" fill-opacity="0.4"/>
<path d="M19.9318 14.0046C19.9454 13.9729 19.9545 13.9411 19.9636 13.9139C19.9726 13.8867 19.9772 13.864 19.9817 13.8368C19.9862 13.8051 19.9908 13.7733 19.9953 13.7461C19.9953 13.7189 19.9999 13.6871 19.9999 13.6599C19.9999 13.6327 19.9999 13.6055 19.9953 13.5783C19.9953 13.5466 19.9908 13.5148 19.9817 13.4831C19.9772 13.4559 19.9681 13.4332 19.9636 13.406C19.9545 13.3742 19.9454 13.3425 19.9318 13.3107C19.9228 13.2881 19.9092 13.2608 19.8955 13.2382C19.8865 13.2155 19.8774 13.1973 19.8638 13.1747L11.9364 0.430907C11.6688 6.80441e-05 11.1064 -0.131451 10.6756 0.136122C10.2493 0.403696 10.1178 0.966054 10.3853 1.39689L18.0135 13.6554L10.3853 25.9139C10.1178 26.3447 10.2493 26.9071 10.6801 27.1747C11.1064 27.4422 11.6733 27.3107 11.9409 26.8799L19.8729 14.1407C19.8729 14.1407 19.891 14.0998 19.9046 14.0772C19.9182 14.0545 19.9318 14.0273 19.9409 14.0046H19.9318Z" fill="#3C6A3C" fill-opacity="0.6"/>
</g>
<defs>
<clipPath id="clip0_12_3239">
<rect width="20" height="27.3107" fill="white"/>
</clipPath>
</defs>
</svg>
