<svg width="482" height="265" viewBox="0 0 482 265" fill="none" xmlns="http://www.w3.org/2000/svg">
<rect x="51" y="109" width="381" height="132" rx="20" fill="#FAEEDF"/>
<g filter="url(#filter0_i_263_5006)">
<path d="M133.804 126.75C141.572 126.314 170.841 127.067 184.299 126.56C188.405 126.489 184.301 126.486 210.942 126.52C242.293 126.56 230.852 157.957 216.919 163.918C201.525 170.503 206.656 167.464 198.086 174.302C198.086 174.302 185.732 187.157 163.915 185.319C141.36 183.42 133.804 175.948 118.692 165.184C103.581 154.42 105.723 145.555 110.573 137.704C115.422 129.853 121.681 127.431 133.804 126.75Z" fill="#C4E1FD"/>
</g>
<g filter="url(#filter1_i_263_5006)">
<path d="M279.45 132.195C285.467 131.856 308.141 132.442 318.566 132.047C321.747 131.992 318.568 131.99 339.206 132.016C363.493 132.048 354.629 156.495 343.836 161.136C331.911 166.264 335.886 163.898 329.246 169.222C329.246 169.222 319.677 179.232 302.775 177.801C285.303 176.322 279.45 170.504 267.743 162.123C256.036 153.741 257.696 146.839 261.453 140.725C265.209 134.611 270.058 132.725 279.45 132.195Z" fill="#C4E1FD"/>
</g>
<path d="M391.736 121.715C391.736 121.715 372.519 119.905 367.51 121.96C362.502 124.015 377.112 143.216 385.044 150.105C385.044 150.105 386.621 152.193 391.444 152.193C397.148 152.193 413.385 152.182 413.385 152.182C413.385 152.182 416.933 152.182 416.308 149.677C415.683 147.171 396.651 124.84 396.651 124.84C396.651 124.84 394.774 121.777 391.739 121.717L391.736 121.715Z" fill="#CDC0AF"/>
<path d="M390.765 120.189C390.765 120.189 374.6 118.366 369.589 120.421C364.58 122.476 379.19 141.677 387.122 148.566C387.122 148.566 388.699 150.654 393.522 150.654H412.414C412.414 150.654 415.963 150.654 415.338 148.148C414.713 145.643 395.681 123.311 395.681 123.311C395.681 123.311 393.803 120.249 390.768 120.189H390.765Z" fill="#856E39"/>
<path d="M390.765 118.33C390.765 118.33 374.6 116.507 369.589 118.562C364.58 120.617 379.19 139.818 387.122 146.707C387.122 146.707 388.699 148.795 393.522 148.795H412.414C412.414 148.795 415.963 148.795 415.338 146.289C414.713 143.784 395.681 121.453 395.681 121.453C395.681 121.453 393.803 118.39 390.768 118.33H390.765Z" fill="#B2924C"/>
<path d="M394.013 122.733C394.013 123.205 392.875 123.584 391.47 123.584C390.064 123.584 388.926 123.202 388.926 122.733C388.926 122.263 390.064 121.881 391.47 121.881C392.875 121.881 394.013 122.263 394.013 122.733Z" fill="#856E39"/>
<path d="M391.457 122.926C391.457 122.926 391.394 113.477 393.608 108.485L391.744 122.926H391.46H391.457Z" fill="#699E4C"/>
<path d="M392.043 122.927C392.043 122.927 392.613 115.214 394.824 110.225L392.327 122.927H392.043Z" fill="#699E4C"/>
<path d="M391.024 122.927C391.024 122.927 390.156 115.214 387.945 110.225L390.74 122.927H391.024V122.927Z" fill="#699E4C"/>
<path d="M391.583 122.928C391.583 122.928 391.14 111.331 388.93 106.339L391.299 122.928H391.583Z" fill="#699E4C"/>
<path d="M391.744 122.926H391.452L390.742 106.244C392.361 111.162 391.807 121.834 391.744 122.926Z" fill="#4F7739"/>
<path d="M391.235 122.926C391.235 122.926 390.793 113.477 388.582 108.485L390.951 122.926H391.235Z" fill="#4F7739"/>
<path d="M391.742 122.926C391.742 122.926 392.184 113.477 394.395 108.485L392.026 122.926H391.742Z" fill="#4F7739"/>
<path d="M377.42 122.449C377.42 122.921 376.281 123.3 374.876 123.3C373.47 123.3 372.332 122.918 372.332 122.449C372.332 121.979 373.47 121.597 374.876 121.597C376.281 121.597 377.42 121.979 377.42 122.449Z" fill="#856E39"/>
<path d="M374.863 122.64C374.863 122.64 374.801 113.191 377.014 108.199L375.15 122.64H374.866H374.863Z" fill="#699E4C"/>
<path d="M375.449 122.643C375.449 122.643 376.02 114.93 378.23 109.94L375.733 122.643H375.449Z" fill="#699E4C"/>
<path d="M374.43 122.643C374.43 122.643 373.562 114.93 371.352 109.94L374.146 122.643H374.43V122.643Z" fill="#699E4C"/>
<path d="M374.989 122.642C374.989 122.642 374.547 111.045 372.336 106.053L374.705 122.642H374.989Z" fill="#699E4C"/>
<path d="M375.15 122.642H374.858L374.148 105.96C375.767 110.878 375.213 121.55 375.15 122.642Z" fill="#4F7739"/>
<path d="M374.641 122.64C374.641 122.64 374.199 113.191 371.988 108.199L374.357 122.64H374.641Z" fill="#4F7739"/>
<path d="M375.145 122.64C375.145 122.64 375.587 113.191 377.797 108.199L375.428 122.64H375.145Z" fill="#4F7739"/>
<path d="M385.759 122.449C385.759 122.921 384.621 123.3 383.216 123.3C381.81 123.3 380.672 122.918 380.672 122.449C380.672 121.979 381.81 121.597 383.216 121.597C384.621 121.597 385.759 121.979 385.759 122.449Z" fill="#856E39"/>
<path d="M383.199 122.64C383.199 122.64 383.137 113.191 385.35 108.199L383.486 122.64H383.202H383.199Z" fill="#699E4C"/>
<path d="M383.785 122.642C383.785 122.642 383.785 116.834 386.913 111.026L384.069 122.642H383.785V122.642Z" fill="#699E4C"/>
<path d="M382.765 122.64C382.765 122.64 382.481 117.293 379.312 112.301L382.481 122.64H382.765V122.64Z" fill="#699E4C"/>
<path d="M383.327 122.643C383.327 122.643 383.543 112.877 381.332 107.885L383.043 122.643H383.327Z" fill="#699E4C"/>
<path d="M383.486 122.642H383.194L382.484 105.96C384.103 110.878 383.549 121.55 383.486 122.642Z" fill="#4F7739"/>
<path d="M382.977 122.64C382.977 122.64 382.535 113.191 380.324 108.199L382.693 122.64H382.977Z" fill="#4F7739"/>
<path d="M383.484 122.64C383.484 122.64 383.927 113.191 386.137 108.199L383.768 122.64H383.484Z" fill="#4F7739"/>
<path d="M399.509 130.41C399.509 130.882 398.371 131.261 396.966 131.261C395.56 131.261 394.422 130.879 394.422 130.41C394.422 129.94 395.56 129.558 396.966 129.558C398.371 129.558 399.509 129.94 399.509 130.41Z" fill="#856E39"/>
<path d="M396.953 130.603C396.953 130.603 396.891 121.154 399.104 116.162L397.24 130.603H396.956H396.953Z" fill="#699E4C"/>
<path d="M397.539 130.604C397.539 130.604 398.109 122.891 400.32 117.901L397.823 130.604H397.539Z" fill="#699E4C"/>
<path d="M396.52 130.604C396.52 130.604 395.652 122.891 393.441 117.901L396.236 130.604H396.52V130.604Z" fill="#699E4C"/>
<path d="M397.079 130.605C397.079 130.605 396.637 119.008 394.426 114.016L396.795 130.605H397.079Z" fill="#699E4C"/>
<path d="M397.24 130.603H396.948L396.238 113.921C397.857 118.839 397.303 129.511 397.24 130.603Z" fill="#4F7739"/>
<path d="M396.731 130.603C396.731 130.603 396.289 121.154 394.078 116.162L396.447 130.603H396.731Z" fill="#4F7739"/>
<path d="M397.234 130.603C397.234 130.603 397.677 121.154 399.887 116.162L397.518 130.603H397.234Z" fill="#4F7739"/>
<path d="M382.916 130.125C382.916 130.598 381.777 130.977 380.372 130.977C378.966 130.977 377.828 130.595 377.828 130.125C377.828 129.656 378.966 129.274 380.372 129.274C381.777 129.274 382.916 129.656 382.916 130.125Z" fill="#856E39"/>
<path d="M380.356 130.316C380.356 130.316 380.293 120.867 382.506 115.875L380.642 130.316H380.358H380.356Z" fill="#699E4C"/>
<path d="M380.941 130.319C380.941 130.319 381.512 122.606 383.723 117.617L381.225 130.319H380.941Z" fill="#699E4C"/>
<path d="M379.922 130.319C379.922 130.319 379.055 122.606 376.844 117.617L379.639 130.319H379.922V130.319Z" fill="#699E4C"/>
<path d="M380.485 130.318C380.485 130.318 380.043 118.721 377.832 113.729L380.201 130.318H380.485Z" fill="#699E4C"/>
<path d="M380.642 130.318H380.35L379.641 113.637C381.259 118.555 380.705 129.227 380.642 130.318Z" fill="#4F7739"/>
<path d="M380.133 130.316C380.133 130.316 379.691 120.867 377.48 115.875L379.85 130.316H380.133Z" fill="#4F7739"/>
<path d="M380.641 130.316C380.641 130.316 381.083 120.867 383.294 115.875L380.924 130.316H380.641Z" fill="#4F7739"/>
<path d="M391.252 130.125C391.252 130.598 390.113 130.977 388.708 130.977C387.302 130.977 386.164 130.595 386.164 130.125C386.164 129.656 387.302 129.274 388.708 129.274C390.113 129.274 391.252 129.656 391.252 130.125Z" fill="#856E39"/>
<path d="M388.692 130.316C388.692 130.316 388.629 120.867 390.842 115.875L388.978 130.316H388.694H388.692Z" fill="#699E4C"/>
<path d="M389.273 130.319C389.273 130.319 389.273 124.511 392.401 118.703L389.557 130.319H389.273V130.319Z" fill="#699E4C"/>
<path d="M388.257 130.317C388.257 130.317 387.973 124.97 384.805 119.978L387.973 130.317H388.257V130.317Z" fill="#699E4C"/>
<path d="M388.819 130.32C388.819 130.32 389.035 120.554 386.824 115.562L388.536 130.32H388.819Z" fill="#699E4C"/>
<path d="M388.974 130.318H388.682L387.973 113.637C389.591 118.555 389.037 129.227 388.974 130.318Z" fill="#4F7739"/>
<path d="M388.469 130.316C388.469 130.316 388.027 120.867 385.816 115.875L388.185 130.316H388.469Z" fill="#4F7739"/>
<path d="M388.977 130.316C388.977 130.316 389.419 120.867 391.629 115.875L389.26 130.316H388.977Z" fill="#4F7739"/>
<path d="M405.005 138.082C405.005 138.554 403.867 138.934 402.462 138.934C401.056 138.934 399.918 138.551 399.918 138.082C399.918 137.613 401.056 137.23 402.462 137.23C403.867 137.23 405.005 137.613 405.005 138.082Z" fill="#856E39"/>
<path d="M402.445 138.275C402.445 138.275 402.383 128.826 404.596 123.834L402.732 138.275H402.448H402.445Z" fill="#699E4C"/>
<path d="M403.035 138.276C403.035 138.276 403.606 130.563 405.816 125.574L403.319 138.276H403.035Z" fill="#699E4C"/>
<path d="M402.012 138.276C402.012 138.276 401.144 130.563 398.934 125.574L401.728 138.276H402.012V138.276Z" fill="#699E4C"/>
<path d="M402.575 138.275C402.575 138.275 402.133 126.678 399.922 121.686L402.291 138.275H402.575V138.275Z" fill="#699E4C"/>
<path d="M402.732 138.275H402.44L401.73 121.593C403.349 126.512 402.795 137.183 402.732 138.275Z" fill="#4F7739"/>
<path d="M402.223 138.275C402.223 138.275 401.781 128.826 399.57 123.834L401.939 138.275H402.223V138.275Z" fill="#4F7739"/>
<path d="M402.73 138.275C402.73 138.275 403.173 128.826 405.383 123.834L403.014 138.275H402.73V138.275Z" fill="#4F7739"/>
<path d="M388.412 137.798C388.412 138.27 387.274 138.649 385.868 138.649C384.462 138.649 383.324 138.267 383.324 137.798C383.324 137.328 384.462 136.946 385.868 136.946C387.274 136.946 388.412 137.328 388.412 137.798Z" fill="#856E39"/>
<path d="M385.852 137.989C385.852 137.989 385.789 128.54 388.002 123.548L386.138 137.989H385.854H385.852Z" fill="#699E4C"/>
<path d="M386.438 137.992C386.438 137.992 387.008 130.279 389.219 125.29L386.721 137.992H386.438Z" fill="#699E4C"/>
<path d="M385.419 137.992C385.419 137.992 384.551 130.279 382.34 125.29L385.135 137.992H385.419V137.992Z" fill="#699E4C"/>
<path d="M385.977 137.991C385.977 137.991 385.535 126.394 383.324 121.402L385.693 137.991H385.977Z" fill="#699E4C"/>
<path d="M386.138 137.991H385.846L385.137 121.309C386.755 126.227 386.201 136.899 386.138 137.991Z" fill="#4F7739"/>
<path d="M385.629 137.989C385.629 137.989 385.187 128.54 382.977 123.548L385.346 137.989H385.629Z" fill="#4F7739"/>
<path d="M386.137 137.989C386.137 137.989 386.579 128.54 388.79 123.548L386.421 137.989H386.137Z" fill="#4F7739"/>
<path d="M396.744 137.798C396.744 138.27 395.606 138.649 394.2 138.649C392.794 138.649 391.656 138.267 391.656 137.798C391.656 137.328 392.794 136.946 394.2 136.946C395.606 136.946 396.744 137.328 396.744 137.798Z" fill="#856E39"/>
<path d="M394.184 137.989C394.184 137.989 394.121 128.54 396.334 123.548L394.47 137.989H394.187H394.184Z" fill="#699E4C"/>
<path d="M394.77 137.989C394.77 137.989 394.77 132.181 397.897 126.373L395.053 137.989H394.77V137.989Z" fill="#699E4C"/>
<path d="M393.753 137.989C393.753 137.989 393.47 132.642 390.301 127.65L393.47 137.989H393.753V137.989Z" fill="#699E4C"/>
<path d="M394.312 137.992C394.312 137.992 394.527 128.226 392.316 123.234L394.028 137.992H394.312Z" fill="#699E4C"/>
<path d="M394.47 137.991H394.178L393.469 121.309C395.087 126.227 394.533 136.899 394.47 137.991Z" fill="#4F7739"/>
<path d="M393.965 137.989C393.965 137.989 393.523 128.54 391.312 123.548L393.682 137.989H393.965Z" fill="#4F7739"/>
<path d="M394.469 137.989C394.469 137.989 394.911 128.54 397.122 123.548L394.753 137.989H394.469Z" fill="#4F7739"/>
<path d="M410.505 145.761C410.505 146.233 409.367 146.612 407.962 146.612C406.556 146.612 405.418 146.23 405.418 145.761C405.418 145.291 406.556 144.909 407.962 144.909C409.367 144.909 410.505 145.291 410.505 145.761Z" fill="#856E39"/>
<path d="M407.945 145.952C407.945 145.952 407.883 136.503 410.096 131.511L408.232 145.952H407.948H407.945Z" fill="#699E4C"/>
<path d="M408.535 145.955C408.535 145.955 409.106 138.242 411.316 133.252L408.819 145.955H408.535Z" fill="#699E4C"/>
<path d="M407.512 145.955C407.512 145.955 406.644 138.242 404.434 133.252L407.228 145.955H407.512V145.955Z" fill="#699E4C"/>
<path d="M408.075 145.954C408.075 145.954 407.633 134.357 405.422 129.365L407.791 145.954H408.075V145.954Z" fill="#699E4C"/>
<path d="M408.232 145.954H407.94L407.23 129.272C408.849 134.19 408.295 144.862 408.232 145.954Z" fill="#4F7739"/>
<path d="M407.723 145.952C407.723 145.952 407.281 136.503 405.07 131.511L407.439 145.952H407.723V145.952Z" fill="#4F7739"/>
<path d="M408.23 145.952C408.23 145.952 408.673 136.503 410.883 131.511L408.514 145.952H408.23V145.952Z" fill="#4F7739"/>
<path d="M393.908 145.479C393.908 145.951 392.77 146.33 391.364 146.33C389.958 146.33 388.82 145.948 388.82 145.479C388.82 145.009 389.958 144.627 391.364 144.627C392.77 144.627 393.908 145.009 393.908 145.479Z" fill="#856E39"/>
<path d="M391.352 145.671C391.352 145.671 391.289 136.222 393.502 131.23L391.638 145.671H391.354H391.352Z" fill="#699E4C"/>
<path d="M391.938 145.673C391.938 145.673 392.508 137.959 394.719 132.97L392.221 145.673H391.938Z" fill="#699E4C"/>
<path d="M390.919 145.673C390.919 145.673 390.051 137.959 387.84 132.97L390.635 145.673H390.919V145.673Z" fill="#699E4C"/>
<path d="M391.477 145.673C391.477 145.673 391.035 134.076 388.824 129.084L391.193 145.673H391.477Z" fill="#699E4C"/>
<path d="M391.638 145.671H391.346L390.637 128.99C392.255 133.908 391.701 144.58 391.638 145.671Z" fill="#4F7739"/>
<path d="M391.129 145.671C391.129 145.671 390.687 136.222 388.477 131.23L390.846 145.671H391.129Z" fill="#4F7739"/>
<path d="M391.633 145.671C391.633 145.671 392.075 136.222 394.286 131.23L391.917 145.671H391.633Z" fill="#4F7739"/>
<path d="M402.248 145.479C402.248 145.951 401.11 146.33 399.704 146.33C398.298 146.33 397.16 145.948 397.16 145.479C397.16 145.009 398.298 144.627 399.704 144.627C401.11 144.627 402.248 145.009 402.248 145.479Z" fill="#856E39"/>
<path d="M399.684 145.671C399.684 145.671 399.621 136.222 401.834 131.23L399.97 145.671H399.686H399.684Z" fill="#699E4C"/>
<path d="M400.27 145.672C400.27 145.672 400.27 139.864 403.397 134.056L400.553 145.672H400.27V145.672Z" fill="#699E4C"/>
<path d="M399.253 145.67C399.253 145.67 398.97 140.323 395.801 135.331L398.97 145.67H399.253V145.67Z" fill="#699E4C"/>
<path d="M399.815 145.673C399.815 145.673 400.031 135.907 397.82 130.915L399.532 145.673H399.815Z" fill="#699E4C"/>
<path d="M399.97 145.671H399.678L398.969 128.99C400.587 133.908 400.033 144.58 399.97 145.671Z" fill="#4F7739"/>
<path d="M399.465 145.671C399.465 145.671 399.023 136.222 396.812 131.23L399.182 145.671H399.465Z" fill="#4F7739"/>
<path d="M399.969 145.671C399.969 145.671 400.411 136.222 402.622 131.23L400.253 145.671H399.969Z" fill="#4F7739"/>
<path d="M229.619 159.588C229.619 160.141 228.286 160.587 226.642 160.587C224.997 160.587 223.664 160.141 223.664 159.588C223.664 159.036 224.997 158.589 226.642 158.589C228.286 158.589 229.619 159.036 229.619 159.588Z" fill="#A1C9E5"/>
<path d="M226.621 159.814C226.621 159.814 226.55 148.748 229.139 142.905L226.956 159.814H226.624H226.621Z" fill="#699E4C"/>
<path d="M227.309 159.815C227.309 159.815 227.309 153.013 230.971 146.213L227.641 159.815H227.309Z" fill="#699E4C"/>
<path d="M226.117 159.813C226.117 159.813 225.785 153.553 222.074 147.707L225.785 159.813H226.117Z" fill="#699E4C"/>
<path d="M226.775 159.815C226.775 159.815 227.027 148.377 224.438 142.534L226.44 159.815H226.772H226.775Z" fill="#699E4C"/>
<path d="M226.955 159.816H226.613L225.781 140.282C227.678 146.041 227.027 158.538 226.955 159.816Z" fill="#4F7739"/>
<path d="M226.366 159.814C226.366 159.814 225.848 148.748 223.258 142.905L226.031 159.814H226.363H226.366Z" fill="#4F7739"/>
<path d="M226.957 159.814C226.957 159.814 227.475 148.748 230.065 142.905L227.292 159.814H226.96H226.957Z" fill="#4F7739"/>
<path d="M161.303 136.552C161.303 137.105 159.969 137.551 158.325 137.551C156.681 137.551 155.348 137.105 155.348 136.552C155.348 136 156.681 135.554 158.325 135.554C159.969 135.554 161.303 136 161.303 136.552V136.552Z" fill="#A1C9E5"/>
<path d="M158.305 136.78C158.305 136.78 158.233 125.715 160.823 119.871L158.64 136.78H158.308H158.305Z" fill="#699E4C"/>
<path d="M158.992 136.782C158.992 136.782 159.659 127.751 162.249 121.908L159.324 136.782H158.992Z" fill="#699E4C"/>
<path d="M157.8 136.782C157.8 136.782 156.785 127.751 154.195 121.908L157.468 136.782H157.8V136.782Z" fill="#699E4C"/>
<path d="M158.455 136.782C158.455 136.782 157.937 123.201 155.348 117.358L158.121 136.782H158.453H158.455Z" fill="#699E4C"/>
<path d="M158.643 136.782H158.3L157.469 117.249C159.365 123.007 158.714 135.504 158.643 136.782Z" fill="#4F7739"/>
<path d="M158.049 136.78C158.049 136.78 157.531 125.715 154.941 119.871L157.714 136.78H158.046H158.049Z" fill="#4F7739"/>
<path d="M158.641 136.78C158.641 136.78 159.159 125.715 161.748 119.871L158.975 136.78H158.643H158.641Z" fill="#4F7739"/>
<path d="M171.303 163.619C171.303 164.171 169.969 164.618 168.325 164.618C166.681 164.618 165.348 164.171 165.348 163.619C165.348 163.066 166.681 162.62 168.325 162.62C169.969 162.62 171.303 163.066 171.303 163.619V163.619Z" fill="#A1C9E5"/>
<path d="M168.305 163.847C168.305 163.847 168.233 152.781 170.823 146.938L168.64 163.847H168.308H168.305Z" fill="#699E4C"/>
<path d="M168.992 163.849C168.992 163.849 169.659 154.818 172.249 148.974L169.324 163.849H168.992Z" fill="#699E4C"/>
<path d="M167.8 163.849C167.8 163.849 166.785 154.818 164.195 148.974L167.468 163.849H167.8V163.849Z" fill="#699E4C"/>
<path d="M168.455 163.849C168.455 163.849 167.937 150.268 165.348 144.424L168.121 163.849H168.453H168.455Z" fill="#699E4C"/>
<path d="M168.643 163.848H168.3L167.469 144.315C169.365 150.073 168.714 162.571 168.643 163.848Z" fill="#4F7739"/>
<path d="M168.049 163.847C168.049 163.847 167.531 152.781 164.941 146.938L167.714 163.847H168.046H168.049Z" fill="#4F7739"/>
<path d="M168.641 163.847C168.641 163.847 169.159 152.781 171.748 146.938L168.975 163.847H168.643H168.641Z" fill="#4F7739"/>
<path d="M151.303 190.686C151.303 191.238 149.969 191.684 148.325 191.684C146.681 191.684 145.348 191.238 145.348 190.686C145.348 190.133 146.681 189.687 148.325 189.687C149.969 189.687 151.303 190.133 151.303 190.686V190.686Z" fill="#A1C9E5"/>
<path d="M148.305 190.913C148.305 190.913 148.233 179.848 150.823 174.004L148.64 190.913H148.308H148.305Z" fill="#699E4C"/>
<path d="M148.992 190.915C148.992 190.915 149.659 181.885 152.249 176.041L149.324 190.915H148.992Z" fill="#699E4C"/>
<path d="M147.8 190.915C147.8 190.915 146.785 181.885 144.195 176.041L147.468 190.915H147.8V190.915Z" fill="#699E4C"/>
<path d="M148.455 190.916C148.455 190.916 147.937 177.335 145.348 171.491L148.121 190.916H148.453H148.455Z" fill="#699E4C"/>
<path d="M148.643 190.915H148.3L147.469 171.382C149.365 177.14 148.714 189.638 148.643 190.915Z" fill="#4F7739"/>
<path d="M148.049 190.913C148.049 190.913 147.531 179.848 144.941 174.004L147.714 190.913H148.046H148.049Z" fill="#4F7739"/>
<path d="M148.641 190.913C148.641 190.913 149.159 179.848 151.748 174.004L148.975 190.913H148.643H148.641Z" fill="#4F7739"/>
<path d="M171.303 217.753C171.303 218.305 169.969 218.751 168.325 218.751C166.681 218.751 165.348 218.305 165.348 217.753C165.348 217.2 166.681 216.754 168.325 216.754C169.969 216.754 171.303 217.2 171.303 217.753V217.753Z" fill="#A1C9E5"/>
<path d="M168.305 217.98C168.305 217.98 168.233 206.915 170.823 201.071L168.64 217.98H168.308H168.305Z" fill="#699E4C"/>
<path d="M168.992 217.982C168.992 217.982 169.659 208.951 172.249 203.108L169.324 217.982H168.992Z" fill="#699E4C"/>
<path d="M167.8 217.982C167.8 217.982 166.785 208.951 164.195 203.108L167.468 217.982H167.8V217.982Z" fill="#699E4C"/>
<path d="M168.455 217.982C168.455 217.982 167.937 204.402 165.348 198.558L168.121 217.982H168.453H168.455Z" fill="#699E4C"/>
<path d="M168.643 217.982H168.3L167.469 198.449C169.365 204.207 168.714 216.704 168.643 217.982Z" fill="#4F7739"/>
<path d="M168.049 217.98C168.049 217.98 167.531 206.915 164.941 201.071L167.714 217.98H168.046H168.049Z" fill="#4F7739"/>
<path d="M168.641 217.98C168.641 217.98 169.159 206.915 171.748 201.071L168.975 217.98H168.643H168.641Z" fill="#4F7739"/>
<path d="M138.365 163.619C138.365 164.171 137.032 164.618 135.388 164.618C133.744 164.618 132.41 164.171 132.41 163.619C132.41 163.066 133.744 162.62 135.388 162.62C137.032 162.62 138.365 163.066 138.365 163.619V163.619Z" fill="#A1C9E5"/>
<path d="M135.367 163.847C135.367 163.847 135.296 152.781 137.885 146.938L135.702 163.847H135.37H135.367Z" fill="#699E4C"/>
<path d="M136.055 163.849C136.055 163.849 136.721 154.818 139.311 148.974L136.387 163.849H136.055Z" fill="#699E4C"/>
<path d="M134.862 163.849C134.862 163.849 133.848 154.818 131.258 148.974L134.53 163.849H134.862V163.849Z" fill="#699E4C"/>
<path d="M135.518 163.849C135.518 163.849 135 150.268 132.41 144.424L135.183 163.849H135.515H135.518Z" fill="#699E4C"/>
<path d="M135.705 163.848H135.363L134.531 144.315C136.428 150.073 135.777 162.571 135.705 163.848Z" fill="#4F7739"/>
<path d="M135.112 163.847C135.112 163.847 134.594 152.781 132.004 146.938L134.777 163.847H135.109H135.112Z" fill="#4F7739"/>
<path d="M135.703 163.847C135.703 163.847 136.221 152.781 138.811 146.938L136.038 163.847H135.706H135.703Z" fill="#4F7739"/>
<path d="M128.365 136.552C128.365 137.105 127.032 137.551 125.388 137.551C123.744 137.551 122.41 137.105 122.41 136.552C122.41 136 123.744 135.554 125.388 135.554C127.032 135.554 128.365 136 128.365 136.552V136.552Z" fill="#A1C9E5"/>
<path d="M125.367 136.78C125.367 136.78 125.296 125.715 127.885 119.871L125.702 136.78H125.37H125.367Z" fill="#699E4C"/>
<path d="M126.055 136.782C126.055 136.782 126.721 127.751 129.311 121.908L126.387 136.782H126.055Z" fill="#699E4C"/>
<path d="M124.862 136.782C124.862 136.782 123.848 127.751 121.258 121.908L124.53 136.782H124.862V136.782Z" fill="#699E4C"/>
<path d="M125.518 136.782C125.518 136.782 125 123.201 122.41 117.358L125.183 136.782H125.515H125.518Z" fill="#699E4C"/>
<path d="M125.705 136.782H125.363L124.531 117.249C126.428 123.007 125.777 135.504 125.705 136.782Z" fill="#4F7739"/>
<path d="M125.112 136.78C125.112 136.78 124.594 125.715 122.004 119.871L124.777 136.78H125.109H125.112Z" fill="#4F7739"/>
<path d="M125.703 136.78C125.703 136.78 126.221 125.715 128.811 119.871L126.038 136.78H125.706H125.703Z" fill="#4F7739"/>
<path d="M105.424 163.619C105.424 164.171 104.09 164.618 102.446 164.618C100.802 164.618 99.4688 164.171 99.4688 163.619C99.4688 163.066 100.802 162.62 102.446 162.62C104.09 162.62 105.424 163.066 105.424 163.619V163.619Z" fill="#A1C9E5"/>
<path d="M102.426 163.847C102.426 163.847 102.354 152.781 104.944 146.938L102.761 163.847H102.429H102.426Z" fill="#699E4C"/>
<path d="M103.113 163.849C103.113 163.849 103.78 154.818 106.37 148.974L103.445 163.849H103.113Z" fill="#699E4C"/>
<path d="M101.921 163.849C101.921 163.849 100.906 154.818 98.3164 148.974L101.589 163.849H101.921V163.849Z" fill="#699E4C"/>
<path d="M102.576 163.849C102.576 163.849 102.058 150.268 99.4688 144.424L102.242 163.849H102.574H102.576Z" fill="#699E4C"/>
<path d="M102.764 163.848H102.421L101.59 144.315C103.486 150.073 102.836 162.571 102.764 163.848Z" fill="#4F7739"/>
<path d="M102.17 163.847C102.17 163.847 101.652 152.781 99.0625 146.938L101.836 163.847H102.168H102.17Z" fill="#4F7739"/>
<path d="M102.762 163.847C102.762 163.847 103.28 152.781 105.869 146.938L103.096 163.847H102.764H102.762Z" fill="#4F7739"/>
<path d="M118.365 190.686C118.365 191.238 117.032 191.684 115.388 191.684C113.744 191.684 112.41 191.238 112.41 190.686C112.41 190.133 113.744 189.687 115.388 189.687C117.032 189.687 118.365 190.133 118.365 190.686V190.686Z" fill="#A1C9E5"/>
<path d="M115.367 190.913C115.367 190.913 115.296 179.848 117.885 174.004L115.702 190.913H115.37H115.367Z" fill="#699E4C"/>
<path d="M116.055 190.915C116.055 190.915 116.721 181.885 119.311 176.041L116.387 190.915H116.055Z" fill="#699E4C"/>
<path d="M114.862 190.915C114.862 190.915 113.848 181.885 111.258 176.041L114.53 190.915H114.862V190.915Z" fill="#699E4C"/>
<path d="M115.518 190.916C115.518 190.916 115 177.335 112.41 171.491L115.183 190.916H115.515H115.518Z" fill="#699E4C"/>
<path d="M115.705 190.915H115.363L114.531 171.382C116.428 177.14 115.777 189.638 115.705 190.915Z" fill="#4F7739"/>
<path d="M115.112 190.913C115.112 190.913 114.594 179.848 112.004 174.004L114.777 190.913H115.109H115.112Z" fill="#4F7739"/>
<path d="M116 190.909C116 190.909 116.518 179.844 119.108 174L116.335 190.909H116.003H116Z" fill="#4F7739"/>
<path d="M138.365 217.753C138.365 218.305 137.032 218.751 135.388 218.751C133.744 218.751 132.41 218.305 132.41 217.753C132.41 217.2 133.744 216.754 135.388 216.754C137.032 216.754 138.365 217.2 138.365 217.753V217.753Z" fill="#A1C9E5"/>
<path d="M135.367 217.98C135.367 217.98 135.296 206.915 137.885 201.071L135.702 217.98H135.37H135.367Z" fill="#699E4C"/>
<path d="M136.055 217.982C136.055 217.982 136.721 208.951 139.311 203.108L136.387 217.982H136.055Z" fill="#699E4C"/>
<path d="M134.862 217.982C134.862 217.982 133.848 208.951 131.258 203.108L134.53 217.982H134.862V217.982Z" fill="#699E4C"/>
<path d="M135.518 217.982C135.518 217.982 135 204.402 132.41 198.558L135.183 217.982H135.515H135.518Z" fill="#699E4C"/>
<path d="M135.705 217.982H135.363L134.531 198.449C136.428 204.207 135.777 216.704 135.705 217.982Z" fill="#4F7739"/>
<path d="M135.112 217.98C135.112 217.98 134.594 206.915 132.004 201.071L134.777 217.98H135.109H135.112Z" fill="#4F7739"/>
<path d="M135.703 217.98C135.703 217.98 136.221 206.915 138.811 201.071L136.038 217.98H135.706H135.703Z" fill="#4F7739"/>
<path d="M204.244 163.619C204.244 164.171 202.911 164.618 201.267 164.618C199.622 164.618 198.289 164.171 198.289 163.619C198.289 163.066 199.622 162.62 201.267 162.62C202.911 162.62 204.244 163.066 204.244 163.619V163.619Z" fill="#A1C9E5"/>
<path d="M201.246 163.847C201.246 163.847 201.175 152.781 203.764 146.938L201.581 163.847H201.249H201.246Z" fill="#699E4C"/>
<path d="M201.934 163.849C201.934 163.849 202.6 154.818 205.19 148.974L202.266 163.849H201.934Z" fill="#699E4C"/>
<path d="M200.741 163.849C200.741 163.849 199.726 154.818 197.137 148.974L200.409 163.849H200.741V163.849Z" fill="#699E4C"/>
<path d="M201.397 163.849C201.397 163.849 200.879 150.268 198.289 144.424L201.062 163.849H201.394H201.397Z" fill="#699E4C"/>
<path d="M201.584 163.848H201.242L200.41 144.315C202.307 150.073 201.656 162.571 201.584 163.848Z" fill="#4F7739"/>
<path d="M200.991 163.847C200.991 163.847 200.473 152.781 197.883 146.938L200.656 163.847H200.988H200.991Z" fill="#4F7739"/>
<path d="M201.582 163.847C201.582 163.847 202.1 152.781 204.69 146.938L201.917 163.847H201.585H201.582Z" fill="#4F7739"/>
<path d="M95.4238 136.552C95.4238 137.105 94.0904 137.551 92.4463 137.551C90.8021 137.551 89.4688 137.105 89.4688 136.552C89.4688 136 90.8021 135.554 92.4463 135.554C94.0904 135.554 95.4238 136 95.4238 136.552V136.552Z" fill="#A1C9E5"/>
<path d="M92.426 136.78C92.426 136.78 92.3543 125.715 94.944 119.871L92.7607 136.78H92.4286H92.426Z" fill="#699E4C"/>
<path d="M93.1133 136.782C93.1133 136.782 93.78 127.751 96.3697 121.908L93.4453 136.782H93.1133Z" fill="#699E4C"/>
<path d="M91.9208 136.782C91.9208 136.782 90.9061 127.751 88.3164 121.908L91.5888 136.782H91.9208V136.782Z" fill="#699E4C"/>
<path d="M92.5764 136.782C92.5764 136.782 92.0585 123.201 89.4688 117.358L92.2418 136.782H92.5738H92.5764Z" fill="#699E4C"/>
<path d="M92.7639 136.782H92.4212L91.5898 117.249C93.4863 123.007 92.8356 135.504 92.7639 136.782Z" fill="#4F7739"/>
<path d="M92.1702 136.78C92.1702 136.78 91.6522 125.715 89.0625 119.871L91.8355 136.78H92.1675H92.1702Z" fill="#4F7739"/>
<path d="M92.7617 136.78C92.7617 136.78 93.2797 125.715 95.8694 119.871L93.0964 136.78H92.7644H92.7617Z" fill="#4F7739"/>
<path d="M85.4238 190.686C85.4238 191.238 84.0904 191.684 82.4463 191.684C80.8021 191.684 79.4688 191.238 79.4688 190.686C79.4688 190.133 80.8021 189.687 82.4463 189.687C84.0904 189.687 85.4238 190.133 85.4238 190.686V190.686Z" fill="#A1C9E5"/>
<path d="M82.426 190.913C82.426 190.913 82.3543 179.848 84.944 174.004L82.7607 190.913H82.4286H82.426Z" fill="#699E4C"/>
<path d="M83.1133 190.915C83.1133 190.915 83.78 181.885 86.3697 176.041L83.4453 190.915H83.1133Z" fill="#699E4C"/>
<path d="M81.9208 190.915C81.9208 190.915 80.9061 181.885 78.3164 176.041L81.5888 190.915H81.9208V190.915Z" fill="#699E4C"/>
<path d="M82.5764 190.916C82.5764 190.916 82.0585 177.335 79.4688 171.491L82.2418 190.916H82.5738H82.5764Z" fill="#699E4C"/>
<path d="M82.7639 190.915H82.4212L81.5898 171.382C83.4863 177.14 82.8356 189.638 82.7639 190.915Z" fill="#4F7739"/>
<path d="M82.1702 190.913C82.1702 190.913 81.6522 179.848 79.0625 174.004L81.8355 190.913H82.1675H82.1702Z" fill="#4F7739"/>
<path d="M82.7617 190.913C82.7617 190.913 83.2797 179.848 85.8694 174.004L83.0964 190.913H82.7644H82.7617Z" fill="#4F7739"/>
<path d="M105.424 217.753C105.424 218.305 104.09 218.751 102.446 218.751C100.802 218.751 99.4688 218.305 99.4688 217.753C99.4688 217.2 100.802 216.754 102.446 216.754C104.09 216.754 105.424 217.2 105.424 217.753V217.753Z" fill="#A1C9E5"/>
<path d="M102.426 217.98C102.426 217.98 102.354 206.915 104.944 201.071L102.761 217.98H102.429H102.426Z" fill="#699E4C"/>
<path d="M103.113 217.982C103.113 217.982 103.78 208.951 106.37 203.108L103.445 217.982H103.113Z" fill="#699E4C"/>
<path d="M101.921 217.982C101.921 217.982 100.906 208.951 98.3164 203.108L101.589 217.982H101.921V217.982Z" fill="#699E4C"/>
<path d="M102.576 217.982C102.576 217.982 102.058 204.402 99.4688 198.558L102.242 217.982H102.574H102.576Z" fill="#699E4C"/>
<path d="M102.764 217.982H102.421L101.59 198.449C103.486 204.207 102.836 216.704 102.764 217.982Z" fill="#4F7739"/>
<path d="M102.17 217.98C102.17 217.98 101.652 206.915 99.0625 201.071L101.836 217.98H102.168H102.17Z" fill="#4F7739"/>
<path d="M102.762 217.98C102.762 217.98 103.28 206.915 105.869 201.071L103.096 217.98H102.764H102.762Z" fill="#4F7739"/>
<path d="M184.244 190.686C184.244 191.238 182.911 191.684 181.267 191.684C179.622 191.684 178.289 191.238 178.289 190.686C178.289 190.133 179.622 189.687 181.267 189.687C182.911 189.687 184.244 190.133 184.244 190.686V190.686Z" fill="#A1C9E5"/>
<path d="M181.246 190.913C181.246 190.913 181.175 179.848 183.764 174.004L181.581 190.913H181.249H181.246Z" fill="#699E4C"/>
<path d="M181.934 190.915C181.934 190.915 182.6 181.885 185.19 176.041L182.266 190.915H181.934Z" fill="#699E4C"/>
<path d="M180.741 190.915C180.741 190.915 179.726 181.885 177.137 176.041L180.409 190.915H180.741V190.915Z" fill="#699E4C"/>
<path d="M181.397 190.916C181.397 190.916 180.879 177.335 178.289 171.491L181.062 190.916H181.394H181.397Z" fill="#699E4C"/>
<path d="M181.584 190.915H181.242L180.41 171.382C182.307 177.14 181.656 189.638 181.584 190.915Z" fill="#4F7739"/>
<path d="M180.991 190.913C180.991 190.913 180.473 179.848 177.883 174.004L180.656 190.913H180.988H180.991Z" fill="#4F7739"/>
<path d="M181.582 190.913C181.582 190.913 182.1 179.848 184.69 174.004L181.917 190.913H181.585H181.582Z" fill="#4F7739"/>
<path d="M204.244 217.753C204.244 218.305 202.911 218.751 201.267 218.751C199.622 218.751 198.289 218.305 198.289 217.753C198.289 217.2 199.622 216.754 201.267 216.754C202.911 216.754 204.244 217.2 204.244 217.753V217.753Z" fill="#A1C9E5"/>
<path d="M201.246 217.98C201.246 217.98 201.175 206.915 203.764 201.071L201.581 217.98H201.249H201.246Z" fill="#699E4C"/>
<path d="M201.934 217.982C201.934 217.982 202.6 208.951 205.19 203.108L202.266 217.982H201.934Z" fill="#699E4C"/>
<path d="M200.741 217.982C200.741 217.982 199.726 208.951 197.137 203.108L200.409 217.982H200.741V217.982Z" fill="#699E4C"/>
<path d="M201.397 217.982C201.397 217.982 200.879 204.402 198.289 198.558L201.062 217.982H201.394H201.397Z" fill="#699E4C"/>
<path d="M201.584 217.982H201.242L200.41 198.449C202.307 204.207 201.656 216.704 201.584 217.982Z" fill="#4F7739"/>
<path d="M200.991 217.98C200.991 217.98 200.473 206.915 197.883 201.071L200.656 217.98H200.988H200.991Z" fill="#4F7739"/>
<path d="M201.582 217.98C201.582 217.98 202.1 206.915 204.69 201.071L201.917 217.98H201.585H201.582Z" fill="#4F7739"/>
<path d="M364.342 151.552C364.342 152.105 363.008 152.551 361.364 152.551C359.72 152.551 358.387 152.105 358.387 151.552C358.387 151 359.72 150.554 361.364 150.554C363.008 150.554 364.342 151 364.342 151.552V151.552Z" fill="#A1C9E5"/>
<path d="M361.344 151.78C361.344 151.78 361.272 140.715 363.862 134.871L361.679 151.78H361.347H361.344Z" fill="#699E4C"/>
<path d="M362.031 151.782C362.031 151.782 362.698 142.751 365.288 136.908L362.363 151.782H362.031Z" fill="#699E4C"/>
<path d="M360.839 151.782C360.839 151.782 359.824 142.751 357.234 136.908L360.507 151.782H360.839V151.782Z" fill="#699E4C"/>
<path d="M361.494 151.782C361.494 151.782 360.976 138.201 358.387 132.358L361.16 151.782H361.492H361.494Z" fill="#699E4C"/>
<path d="M361.682 151.782H361.339L360.508 132.249C362.404 138.007 361.754 150.504 361.682 151.782Z" fill="#4F7739"/>
<path d="M361.088 151.78C361.088 151.78 360.57 140.715 357.98 134.871L360.753 151.78H361.086H361.088Z" fill="#4F7739"/>
<path d="M361.68 151.78C361.68 151.78 362.198 140.715 364.787 134.871L362.014 151.78H361.682H361.68Z" fill="#4F7739"/>
<path d="M374.342 178.619C374.342 179.171 373.008 179.618 371.364 179.618C369.72 179.618 368.387 179.171 368.387 178.619C368.387 178.066 369.72 177.62 371.364 177.62C373.008 177.62 374.342 178.066 374.342 178.619V178.619Z" fill="#A1C9E5"/>
<path d="M371.344 178.847C371.344 178.847 371.272 167.781 373.862 161.938L371.679 178.847H371.347H371.344Z" fill="#699E4C"/>
<path d="M372.031 178.849C372.031 178.849 372.698 169.818 375.288 163.974L372.363 178.849H372.031Z" fill="#699E4C"/>
<path d="M370.839 178.849C370.839 178.849 369.824 169.818 367.234 163.974L370.507 178.849H370.839V178.849Z" fill="#699E4C"/>
<path d="M371.494 178.849C371.494 178.849 370.976 165.268 368.387 159.424L371.16 178.849H371.492H371.494Z" fill="#699E4C"/>
<path d="M371.682 178.848H371.339L370.508 159.315C372.404 165.073 371.754 177.571 371.682 178.848Z" fill="#4F7739"/>
<path d="M371.088 178.847C371.088 178.847 370.57 167.781 367.98 161.938L370.753 178.847H371.086H371.088Z" fill="#4F7739"/>
<path d="M371.68 178.847C371.68 178.847 372.198 167.781 374.787 161.938L372.014 178.847H371.682H371.68Z" fill="#4F7739"/>
<path d="M354.342 205.686C354.342 206.238 353.008 206.684 351.364 206.684C349.72 206.684 348.387 206.238 348.387 205.686C348.387 205.133 349.72 204.687 351.364 204.687C353.008 204.687 354.342 205.133 354.342 205.686V205.686Z" fill="#A1C9E5"/>
<path d="M351.344 205.913C351.344 205.913 351.272 194.848 353.862 189.004L351.679 205.913H351.347H351.344Z" fill="#699E4C"/>
<path d="M352.031 205.915C352.031 205.915 352.698 196.885 355.288 191.041L352.363 205.915H352.031Z" fill="#699E4C"/>
<path d="M350.839 205.915C350.839 205.915 349.824 196.885 347.234 191.041L350.507 205.915H350.839V205.915Z" fill="#699E4C"/>
<path d="M351.494 205.916C351.494 205.916 350.976 192.335 348.387 186.491L351.16 205.916H351.492H351.494Z" fill="#699E4C"/>
<path d="M351.682 205.915H351.339L350.508 186.382C352.404 192.14 351.754 204.638 351.682 205.915Z" fill="#4F7739"/>
<path d="M351.088 205.913C351.088 205.913 350.57 194.848 347.98 189.004L350.753 205.913H351.086H351.088Z" fill="#4F7739"/>
<path d="M351.68 205.913C351.68 205.913 352.198 194.848 354.787 189.004L352.014 205.913H351.682H351.68Z" fill="#4F7739"/>
<path d="M374.342 232.753C374.342 233.305 373.008 233.751 371.364 233.751C369.72 233.751 368.387 233.305 368.387 232.753C368.387 232.2 369.72 231.754 371.364 231.754C373.008 231.754 374.342 232.2 374.342 232.753V232.753Z" fill="#A1C9E5"/>
<path d="M371.344 232.98C371.344 232.98 371.272 221.915 373.862 216.071L371.679 232.98H371.347H371.344Z" fill="#699E4C"/>
<path d="M372.031 232.982C372.031 232.982 372.698 223.951 375.288 218.108L372.363 232.982H372.031Z" fill="#699E4C"/>
<path d="M370.839 232.982C370.839 232.982 369.824 223.951 367.234 218.108L370.507 232.982H370.839V232.982Z" fill="#699E4C"/>
<path d="M371.494 232.982C371.494 232.982 370.976 219.402 368.387 213.558L371.16 232.982H371.492H371.494Z" fill="#699E4C"/>
<path d="M371.682 232.982H371.339L370.508 213.449C372.404 219.207 371.754 231.704 371.682 232.982Z" fill="#4F7739"/>
<path d="M371.088 232.98C371.088 232.98 370.57 221.915 367.98 216.071L370.753 232.98H371.086H371.088Z" fill="#4F7739"/>
<path d="M371.68 232.98C371.68 232.98 372.198 221.915 374.787 216.071L372.014 232.98H371.682H371.68Z" fill="#4F7739"/>
<path d="M341.404 178.619C341.404 179.171 340.071 179.618 338.427 179.618C336.783 179.618 335.449 179.171 335.449 178.619C335.449 178.066 336.783 177.62 338.427 177.62C340.071 177.62 341.404 178.066 341.404 178.619V178.619Z" fill="#A1C9E5"/>
<path d="M338.406 178.847C338.406 178.847 338.335 167.781 340.924 161.938L338.741 178.847H338.409H338.406Z" fill="#699E4C"/>
<path d="M339.094 178.849C339.094 178.849 339.76 169.818 342.35 163.974L339.426 178.849H339.094Z" fill="#699E4C"/>
<path d="M337.901 178.849C337.901 178.849 336.887 169.818 334.297 163.974L337.569 178.849H337.901V178.849Z" fill="#699E4C"/>
<path d="M338.557 178.849C338.557 178.849 338.039 165.268 335.449 159.424L338.222 178.849H338.554H338.557Z" fill="#699E4C"/>
<path d="M338.744 178.848H338.402L337.57 159.315C339.467 165.073 338.816 177.571 338.744 178.848Z" fill="#4F7739"/>
<path d="M338.151 178.847C338.151 178.847 337.633 167.781 335.043 161.938L337.816 178.847H338.148H338.151Z" fill="#4F7739"/>
<path d="M338.742 178.847C338.742 178.847 339.26 167.781 341.85 161.938L339.077 178.847H338.745H338.742Z" fill="#4F7739"/>
<path d="M331.404 151.552C331.404 152.105 330.071 152.551 328.427 152.551C326.783 152.551 325.449 152.105 325.449 151.552C325.449 151 326.783 150.554 328.427 150.554C330.071 150.554 331.404 151 331.404 151.552V151.552Z" fill="#A1C9E5"/>
<path d="M328.406 151.78C328.406 151.78 328.335 140.715 330.924 134.871L328.741 151.78H328.409H328.406Z" fill="#699E4C"/>
<path d="M329.094 151.782C329.094 151.782 329.76 142.751 332.35 136.908L329.426 151.782H329.094Z" fill="#699E4C"/>
<path d="M327.901 151.782C327.901 151.782 326.887 142.751 324.297 136.908L327.569 151.782H327.901V151.782Z" fill="#699E4C"/>
<path d="M328.557 151.782C328.557 151.782 328.039 138.201 325.449 132.358L328.222 151.782H328.554H328.557Z" fill="#699E4C"/>
<path d="M328.744 151.782H328.402L327.57 132.249C329.467 138.007 328.816 150.504 328.744 151.782Z" fill="#4F7739"/>
<path d="M328.151 151.78C328.151 151.78 327.633 140.715 325.043 134.871L327.816 151.78H328.148H328.151Z" fill="#4F7739"/>
<path d="M328.742 151.78C328.742 151.78 329.26 140.715 331.85 134.871L329.077 151.78H328.745H328.742Z" fill="#4F7739"/>
<path d="M308.463 178.619C308.463 179.171 307.13 179.618 305.485 179.618C303.841 179.618 302.508 179.171 302.508 178.619C302.508 178.066 303.841 177.62 305.485 177.62C307.13 177.62 308.463 178.066 308.463 178.619V178.619Z" fill="#A1C9E5"/>
<path d="M305.465 178.847C305.465 178.847 305.393 167.781 307.983 161.938L305.8 178.847H305.468H305.465Z" fill="#699E4C"/>
<path d="M306.152 178.849C306.152 178.849 306.819 169.818 309.409 163.974L306.484 178.849H306.152Z" fill="#699E4C"/>
<path d="M304.96 178.849C304.96 178.849 303.945 169.818 301.355 163.974L304.628 178.849H304.96V178.849Z" fill="#699E4C"/>
<path d="M305.616 178.849C305.616 178.849 305.098 165.268 302.508 159.424L305.281 178.849H305.613H305.616Z" fill="#699E4C"/>
<path d="M305.803 178.848H305.46L304.629 159.315C306.525 165.073 305.875 177.571 305.803 178.848Z" fill="#4F7739"/>
<path d="M305.209 178.847C305.209 178.847 304.691 167.781 302.102 161.938L304.875 178.847H305.207H305.209Z" fill="#4F7739"/>
<path d="M305.801 178.847C305.801 178.847 306.319 167.781 308.908 161.938L306.135 178.847H305.803H305.801Z" fill="#4F7739"/>
<path d="M321.404 205.686C321.404 206.238 320.071 206.684 318.427 206.684C316.783 206.684 315.449 206.238 315.449 205.686C315.449 205.133 316.783 204.687 318.427 204.687C320.071 204.687 321.404 205.133 321.404 205.686V205.686Z" fill="#A1C9E5"/>
<path d="M318.406 205.913C318.406 205.913 318.335 194.848 320.924 189.004L318.741 205.913H318.409H318.406Z" fill="#699E4C"/>
<path d="M319.094 205.915C319.094 205.915 319.76 196.885 322.35 191.041L319.426 205.915H319.094Z" fill="#699E4C"/>
<path d="M317.901 205.915C317.901 205.915 316.887 196.885 314.297 191.041L317.569 205.915H317.901V205.915Z" fill="#699E4C"/>
<path d="M318.557 205.916C318.557 205.916 318.039 192.335 315.449 186.491L318.222 205.916H318.554H318.557Z" fill="#699E4C"/>
<path d="M318.744 205.915H318.402L317.57 186.382C319.467 192.14 318.816 204.638 318.744 205.915Z" fill="#4F7739"/>
<path d="M318.151 205.913C318.151 205.913 317.633 194.848 315.043 189.004L317.816 205.913H318.148H318.151Z" fill="#4F7739"/>
<path d="M318.742 205.913C318.742 205.913 319.26 194.848 321.85 189.004L319.077 205.913H318.745H318.742Z" fill="#4F7739"/>
<path d="M341.404 232.753C341.404 233.305 340.071 233.751 338.427 233.751C336.783 233.751 335.449 233.305 335.449 232.753C335.449 232.2 336.783 231.754 338.427 231.754C340.071 231.754 341.404 232.2 341.404 232.753V232.753Z" fill="#A1C9E5"/>
<path d="M338.406 232.98C338.406 232.98 338.335 221.915 340.924 216.071L338.741 232.98H338.409H338.406Z" fill="#699E4C"/>
<path d="M339.094 232.982C339.094 232.982 339.76 223.951 342.35 218.108L339.426 232.982H339.094Z" fill="#699E4C"/>
<path d="M337.901 232.982C337.901 232.982 336.887 223.951 334.297 218.108L337.569 232.982H337.901V232.982Z" fill="#699E4C"/>
<path d="M338.557 232.982C338.557 232.982 338.039 219.402 335.449 213.558L338.222 232.982H338.554H338.557Z" fill="#699E4C"/>
<path d="M338.744 232.982H338.402L337.57 213.449C339.467 219.207 338.816 231.704 338.744 232.982Z" fill="#4F7739"/>
<path d="M338.151 232.98C338.151 232.98 337.633 221.915 335.043 216.071L337.816 232.98H338.148H338.151Z" fill="#4F7739"/>
<path d="M338.742 232.98C338.742 232.98 339.26 221.915 341.85 216.071L339.077 232.98H338.745H338.742Z" fill="#4F7739"/>
<path d="M298.463 151.552C298.463 152.105 297.13 152.551 295.485 152.551C293.841 152.551 292.508 152.105 292.508 151.552C292.508 151 293.841 150.554 295.485 150.554C297.13 150.554 298.463 151 298.463 151.552V151.552Z" fill="#A1C9E5"/>
<path d="M295.465 151.78C295.465 151.78 295.393 140.715 297.983 134.871L295.8 151.78H295.468H295.465Z" fill="#699E4C"/>
<path d="M296.152 151.782C296.152 151.782 296.819 142.751 299.409 136.908L296.484 151.782H296.152Z" fill="#699E4C"/>
<path d="M294.96 151.782C294.96 151.782 293.945 142.751 291.355 136.908L294.628 151.782H294.96V151.782Z" fill="#699E4C"/>
<path d="M295.616 151.782C295.616 151.782 295.098 138.201 292.508 132.358L295.281 151.782H295.613H295.616Z" fill="#699E4C"/>
<path d="M295.803 151.782H295.46L294.629 132.249C296.525 138.007 295.875 150.504 295.803 151.782Z" fill="#4F7739"/>
<path d="M295.209 151.78C295.209 151.78 294.691 140.715 292.102 134.871L294.875 151.78H295.207H295.209Z" fill="#4F7739"/>
<path d="M295.801 151.78C295.801 151.78 296.319 140.715 298.908 134.871L296.135 151.78H295.803H295.801Z" fill="#4F7739"/>
<path d="M288.463 205.686C288.463 206.238 287.13 206.684 285.485 206.684C283.841 206.684 282.508 206.238 282.508 205.686C282.508 205.133 283.841 204.687 285.485 204.687C287.13 204.687 288.463 205.133 288.463 205.686V205.686Z" fill="#A1C9E5"/>
<path d="M285.465 205.913C285.465 205.913 285.393 194.848 287.983 189.004L285.8 205.913H285.468H285.465Z" fill="#699E4C"/>
<path d="M286.152 205.915C286.152 205.915 286.819 196.885 289.409 191.041L286.484 205.915H286.152Z" fill="#699E4C"/>
<path d="M284.96 205.915C284.96 205.915 283.945 196.885 281.355 191.041L284.628 205.915H284.96V205.915Z" fill="#699E4C"/>
<path d="M285.616 205.916C285.616 205.916 285.098 192.335 282.508 186.491L285.281 205.916H285.613H285.616Z" fill="#699E4C"/>
<path d="M285.803 205.915H285.46L284.629 186.382C286.525 192.14 285.875 204.638 285.803 205.915Z" fill="#4F7739"/>
<path d="M285.209 205.913C285.209 205.913 284.691 194.848 282.102 189.004L284.875 205.913H285.207H285.209Z" fill="#4F7739"/>
<path d="M285.801 205.913C285.801 205.913 286.319 194.848 288.908 189.004L286.135 205.913H285.803H285.801Z" fill="#4F7739"/>
<path d="M308.463 232.753C308.463 233.305 307.13 233.751 305.485 233.751C303.841 233.751 302.508 233.305 302.508 232.753C302.508 232.2 303.841 231.754 305.485 231.754C307.13 231.754 308.463 232.2 308.463 232.753V232.753Z" fill="#A1C9E5"/>
<path d="M305.465 232.98C305.465 232.98 305.393 221.915 307.983 216.071L305.8 232.98H305.468H305.465Z" fill="#699E4C"/>
<path d="M306.152 232.982C306.152 232.982 306.819 223.951 309.409 218.108L306.484 232.982H306.152Z" fill="#699E4C"/>
<path d="M304.96 232.982C304.96 232.982 303.945 223.951 301.355 218.108L304.628 232.982H304.96V232.982Z" fill="#699E4C"/>
<path d="M305.616 232.982C305.616 232.982 305.098 219.402 302.508 213.558L305.281 232.982H305.613H305.616Z" fill="#699E4C"/>
<path d="M305.803 232.982H305.46L304.629 213.449C306.525 219.207 305.875 231.704 305.803 232.982Z" fill="#4F7739"/>
<path d="M305.209 232.98C305.209 232.98 304.691 221.915 302.102 216.071L304.875 232.98H305.207H305.209Z" fill="#4F7739"/>
<path d="M305.801 232.98C305.801 232.98 306.319 221.915 308.908 216.071L306.135 232.98H305.803H305.801Z" fill="#4F7739"/>
<path d="M387.283 205.686C387.283 206.238 385.95 206.684 384.306 206.684C382.662 206.684 381.328 206.238 381.328 205.686C381.328 205.133 382.662 204.687 384.306 204.687C385.95 204.687 387.283 205.133 387.283 205.686V205.686Z" fill="#A1C9E5"/>
<path d="M384.285 205.913C384.285 205.913 384.214 194.848 386.803 189.004L384.62 205.913H384.288H384.285Z" fill="#699E4C"/>
<path d="M384.973 205.915C384.973 205.915 385.639 196.885 388.229 191.041L385.305 205.915H384.973Z" fill="#699E4C"/>
<path d="M383.78 205.915C383.78 205.915 382.766 196.885 380.176 191.041L383.448 205.915H383.78V205.915Z" fill="#699E4C"/>
<path d="M384.436 205.916C384.436 205.916 383.918 192.335 381.328 186.491L384.101 205.916H384.433H384.436Z" fill="#699E4C"/>
<path d="M384.623 205.915H384.281L383.449 186.382C385.346 192.14 384.695 204.638 384.623 205.915Z" fill="#4F7739"/>
<path d="M384.03 205.913C384.03 205.913 383.512 194.848 380.922 189.004L383.695 205.913H384.027H384.03Z" fill="#4F7739"/>
<path d="M384.621 205.913C384.621 205.913 385.139 194.848 387.729 189.004L384.956 205.913H384.624H384.621Z" fill="#4F7739"/>
<path d="M407.283 232.753C407.283 233.305 405.95 233.751 404.306 233.751C402.662 233.751 401.328 233.305 401.328 232.753C401.328 232.2 402.662 231.754 404.306 231.754C405.95 231.754 407.283 232.2 407.283 232.753V232.753Z" fill="#A1C9E5"/>
<path d="M404.285 232.98C404.285 232.98 404.214 221.915 406.803 216.071L404.62 232.98H404.288H404.285Z" fill="#699E4C"/>
<path d="M404.973 232.982C404.973 232.982 405.639 223.951 408.229 218.108L405.305 232.982H404.973Z" fill="#699E4C"/>
<path d="M403.78 232.982C403.78 232.982 402.766 223.951 400.176 218.108L403.448 232.982H403.78V232.982Z" fill="#699E4C"/>
<path d="M404.436 232.982C404.436 232.982 403.918 219.402 401.328 213.558L404.101 232.982H404.433H404.436Z" fill="#699E4C"/>
<path d="M404.623 232.982H404.281L403.449 213.449C405.346 219.207 404.695 231.704 404.623 232.982Z" fill="#4F7739"/>
<path d="M404.03 232.98C404.03 232.98 403.512 221.915 400.922 216.071L403.695 232.98H404.027H404.03Z" fill="#4F7739"/>
<path d="M404.621 232.98C404.621 232.98 405.139 221.915 407.729 216.071L404.956 232.98H404.624H404.621Z" fill="#4F7739"/>
<path d="M229.619 215.306C229.619 215.858 228.286 216.305 226.642 216.305C224.997 216.305 223.664 215.858 223.664 215.306C223.664 214.753 224.997 214.307 226.642 214.307C228.286 214.307 229.619 214.753 229.619 215.306Z" fill="#A1C9E5"/>
<path d="M226.621 215.532C226.621 215.532 226.55 204.466 229.139 198.623L226.956 215.532H226.624H226.621Z" fill="#699E4C"/>
<path d="M227.309 215.533C227.309 215.533 227.309 208.73 230.971 201.931L227.641 215.533H227.309Z" fill="#699E4C"/>
<path d="M226.117 215.531C226.117 215.531 225.785 209.27 222.074 203.424L225.785 215.531H226.117Z" fill="#699E4C"/>
<path d="M226.775 215.532C226.775 215.532 227.027 204.095 224.438 198.251L226.44 215.532H226.772H226.775Z" fill="#699E4C"/>
<path d="M226.955 215.533H226.613L225.781 196C227.678 201.759 227.027 214.256 226.955 215.533Z" fill="#4F7739"/>
<path d="M226.366 215.532C226.366 215.532 225.848 204.466 223.258 198.623L226.031 215.532H226.363H226.366Z" fill="#4F7739"/>
<path d="M226.957 215.532C226.957 215.532 227.475 204.466 230.065 198.623L227.292 215.532H226.96H226.957Z" fill="#4F7739"/>
<rect x="221" y="109" width="41" height="132" fill="#C4E1FD"/>
<rect x="221" y="109" width="8" height="132" fill="#ABB9C8"/>
<rect x="254" y="109" width="8" height="132" fill="#ABB9C8"/>
<rect x="221" y="117" width="8" height="13.9771" fill="#70A6DA"/>
<rect x="254" y="117" width="8" height="13.9771" fill="#70A6DA"/>
<path d="M301.418 132.385C300.181 132.901 299.982 134.721 300.733 135.829C301.483 136.94 302.829 137.472 304.12 137.827C306.797 138.564 309.608 138.812 312.37 138.55C315.302 138.275 318.211 137.431 321.143 137.715C323.604 137.953 325.911 138.973 328.302 139.609C333.176 140.908 338.474 140.576 343.146 138.673C343.632 138.477 344.113 138.261 344.547 137.972C345.906 137.066 346.73 135.349 346.419 133.744C346.173 132.472 345.275 131.391 344.181 130.698C343.086 130.002 341.809 129.653 340.534 129.423C338.081 128.984 335.553 128.962 333.092 129.358C331.287 129.65 329.527 130.163 327.72 130.439C325.286 130.813 322.786 130.75 320.376 130.253C319.087 129.988 317.826 129.604 316.527 129.393C315.032 129.151 313.509 129.148 311.994 129.142C309.412 129.134 306.721 129.156 304.297 129.934C303.05 130.335 302.013 131.217 301.415 132.382L301.418 132.385Z" fill="#A1C9E5"/>
<path d="M333.444 84.0398C333.444 84.0398 330.216 79.8667 322.336 79.1216V82.7652L333.444 84.0398Z" fill="#0E366B"/>
<path d="M306.599 122.624C306.599 122.624 306.283 116.911 307.339 113.947C308.398 110.986 311.782 104.321 311.782 104.321H324.266C324.266 104.321 317.811 116.488 317.601 118.18C317.388 119.873 316.965 122.624 316.965 122.624H306.596H306.599Z" fill="#864D34"/>
<path d="M331.14 122.624V119.239C331.14 119.239 330.294 115.642 330.188 113.472C330.081 111.302 330.188 104.321 330.188 104.321H341.932C341.932 104.321 341.193 114.583 341.296 115.642C341.403 116.701 341.932 122.624 341.932 122.624H331.14V122.624Z" fill="#864D34"/>
<path d="M305.918 122.624H317.575V134.895C313.888 136.467 310.38 136.686 307.141 134.895L305.918 122.624V122.624Z" fill="#39251C"/>
<path d="M331.145 122.624H342.676L341.936 134.895C338.143 136.527 334.897 136.625 332.31 134.895L331.147 122.624H331.145Z" fill="#39251C"/>
<path d="M306.555 95.2268C306.555 95.2268 307.578 98.4801 307.816 101.018C308.053 103.557 308.211 110.143 308.211 110.143C308.211 110.143 317.098 111.174 325.668 110.538C334.238 109.902 342.675 105.063 342.675 105.063C342.675 105.063 333.602 79.9098 322.336 79.1155C311.069 78.3213 306.555 95.224 306.555 95.224V95.2268Z" fill="#0E366B"/>
<path d="M310.416 114.921C310.402 115.224 310.241 115.42 310.001 115.54C309.39 115.852 308.262 115.68 307.687 115.565C306.911 115.409 302.929 114.334 301.887 112.912C302.49 112.672 303.022 112.366 303.478 112.047C304.188 111.553 304.72 111.018 305.069 110.617C305.479 111.064 307.165 112.874 308.009 113.305C308.972 113.799 310.47 113.851 310.416 114.921V114.921Z" fill="#E39471"/>
<path d="M326.142 83.1651C326.142 83.1651 325.506 86.5768 326.142 89.751C326.778 92.9252 328.601 100.939 328.364 102.685C328.126 104.432 324.922 114.402 324.922 114.402L332.119 118.169C332.119 118.169 338.309 108.231 338.503 103.974C338.697 99.7158 336.909 87.3738 333.443 84.0413C330.441 81.1536 328.364 81.8987 326.142 83.1679V83.1651Z" fill="#0E366B"/>
<path d="M308.482 96.4506C308.482 96.4506 303.744 102.949 303.744 104.325C303.744 105.7 305.805 108.402 306.555 110.146C306.555 110.146 303.851 114.377 298.771 113.476C298.771 113.476 295.068 107.076 295.174 103.585C295.281 100.094 299.405 90.9946 299.405 90.9946L308.482 96.4506V96.4506Z" fill="#0E366B"/>
<path d="M315.218 93.7957C323.404 89.0693 327.425 80.7075 324.198 75.119C320.972 69.5305 311.72 68.8315 303.534 73.5579C295.347 78.2843 291.327 86.6461 294.553 92.2346C297.78 97.8231 307.032 98.522 315.218 93.7957Z" fill="#EBC46F"/>
<path d="M312.397 85.4337C316.467 83.0837 318.466 78.9267 316.863 76.1487C315.259 73.3708 310.659 73.0239 306.589 75.3739C302.518 77.7239 300.519 81.8809 302.123 84.6588C303.727 87.4367 308.326 87.7836 312.397 85.4337Z" fill="#D3A13C"/>
<path d="M308.874 117.941C309.406 108.121 305.801 99.3599 305.801 99.3599C306.494 101.093 307.714 117.87 307.714 117.87L308.874 117.944V117.941Z" fill="#6F9158"/>
<path d="M308.93 117.832C308.856 110.184 304.719 103.555 304.719 103.555C305.518 104.865 307.767 117.832 307.767 117.832H308.93V117.832Z" fill="#7DAE5C"/>
<path d="M307.707 117.814C308.111 117.844 308.523 117.926 308.913 117.94C307.887 112.304 304.535 107.915 304.535 107.915C305.106 108.682 306.871 114.82 307.709 117.812L307.707 117.814Z" fill="#93C356"/>
<path d="M312.524 103.621C312.524 103.621 308.386 110.251 308.312 117.898H309.475C309.475 117.898 311.727 104.931 312.527 103.621H312.524Z" fill="#7DAE5C"/>
<path d="M309.609 101.223C309.609 101.223 307.011 108.598 308.602 116.079L309.467 115.951C309.467 115.951 309.115 102.681 309.609 101.223Z" fill="#4E8629"/>
<path d="M312.258 99.4712C312.258 99.4712 308.121 107.995 308.047 117.829H309.21C309.21 117.829 311.461 101.158 312.258 99.4712V99.4712Z" fill="#7DAE5C"/>
<path d="M313.503 101.208C313.036 101.252 312.482 101.565 312.1 101.825C311.254 102.395 310.743 103.266 310.347 104.186C309.624 105.875 309.368 107.922 309.092 109.721C308.855 111.263 308.838 112.857 308.674 114.407C308.552 115.57 308.448 117.985 308.453 117.931C308.644 117.971 308.893 117.876 309.087 117.914C309.256 114.669 309.496 111.451 310.186 108.282C310.522 106.743 310.964 105.193 311.843 103.858C312.28 103.198 312.768 102.422 313.459 101.98C314.029 101.615 314.744 101.705 315.266 101.399C314.865 101.634 313.95 101.164 313.508 101.205L313.503 101.208Z" fill="#93C356"/>
<path d="M307.496 117.085C307.502 117.197 307.57 117.303 307.597 117.41C307.619 117.505 307.652 117.595 307.676 117.688C307.714 117.833 307.728 117.986 307.742 118.133C307.772 118.444 307.734 118.766 307.764 119.08C307.835 119.08 307.914 119.075 307.987 119.072C308.009 118.9 307.982 118.698 307.998 118.521C308.02 118.291 308.006 118.057 308.006 117.825C308.006 117.636 308.075 117.382 308.026 117.2C308.006 117.129 308.012 117.145 307.93 117.126C307.884 117.115 307.837 117.107 307.791 117.101C307.714 117.09 307.641 117.09 307.564 117.09H307.502L307.496 117.085Z" fill="#B2924C"/>
<path d="M307.812 117.209C307.818 117.321 307.886 117.425 307.913 117.534C307.935 117.629 307.968 117.719 307.993 117.812C308.031 117.957 308.044 118.11 308.058 118.257C308.088 118.568 308.05 118.89 308.08 119.204C308.151 119.204 308.23 119.199 308.304 119.196C308.328 119.024 308.298 118.822 308.315 118.645C308.337 118.415 308.323 118.181 308.323 117.949C308.323 117.76 308.391 117.506 308.342 117.324C308.323 117.25 308.328 117.269 308.244 117.25C308.197 117.239 308.151 117.231 308.105 117.223C308.028 117.214 307.954 117.214 307.878 117.214H307.815L307.812 117.209Z" fill="#B2924C"/>
<path d="M307.688 117.112C307.693 117.224 307.761 117.33 307.788 117.437C307.81 117.532 307.843 117.622 307.868 117.715C307.906 117.86 307.919 118.012 307.933 118.16C307.963 118.468 307.925 118.793 307.955 119.107C308.026 119.107 308.105 119.102 308.179 119.096C308.203 118.924 308.173 118.725 308.19 118.545C308.212 118.315 308.198 118.081 308.198 117.849C308.198 117.66 308.266 117.407 308.217 117.224C308.198 117.153 308.203 117.169 308.121 117.15C308.075 117.139 308.029 117.131 307.982 117.125C307.909 117.115 307.832 117.115 307.756 117.115H307.693L307.688 117.112Z" fill="#A48446"/>
<path d="M308.789 117.129C308.808 117.24 308.887 117.336 308.923 117.44C308.956 117.533 308.996 117.617 309.032 117.707C309.087 117.846 309.117 117.996 309.147 118.141C309.212 118.447 309.209 118.772 309.272 119.08C309.343 119.072 309.42 119.058 309.493 119.047C309.496 118.873 309.447 118.676 309.444 118.496C309.439 118.267 309.403 118.032 309.376 117.803C309.354 117.617 309.395 117.355 309.327 117.178C309.299 117.109 309.308 117.126 309.223 117.115C309.177 117.109 309.13 117.104 309.081 117.104C309.005 117.104 308.931 117.112 308.855 117.12L308.792 117.129H308.789Z" fill="#B2924C"/>
<path d="M309.638 116.979C309.655 117.091 309.608 117.208 309.603 117.317C309.598 117.415 309.584 117.508 309.578 117.604C309.57 117.751 309.587 117.907 309.6 118.051C309.63 118.363 309.731 118.671 309.764 118.985C309.693 119.001 309.617 119.009 309.543 119.018C309.488 118.854 309.477 118.652 309.426 118.477C309.36 118.256 309.325 118.024 309.281 117.798C309.245 117.612 309.128 117.377 309.142 117.186C309.147 117.113 309.144 117.132 309.221 117.096C309.265 117.077 309.308 117.058 309.352 117.042C309.423 117.017 309.497 117.003 309.573 116.99L309.636 116.976L309.638 116.979Z" fill="#A48446"/>
<path d="M308.263 118.364C308.263 118.547 308.244 118.724 308.244 118.91C308.244 118.992 308.242 119.074 308.244 119.155C308.244 119.21 308.233 119.232 308.28 119.254C308.304 119.265 308.378 119.256 308.397 119.243C308.446 119.205 308.463 119.044 308.484 118.981C308.512 118.896 308.52 118.817 308.52 118.724V118.165C308.52 117.938 308.547 117.728 308.547 117.504C308.547 117.414 308.534 117.299 308.484 117.223C308.435 117.149 308.293 117.092 308.244 117.204C308.225 117.245 308.258 117.349 308.258 117.395C308.261 117.499 308.258 117.605 308.261 117.709C308.261 117.927 308.266 118.143 308.266 118.361L308.263 118.364Z" fill="#A48446"/>
<path d="M308.508 118.364C308.508 118.547 308.489 118.724 308.489 118.91C308.489 118.992 308.486 119.074 308.489 119.155C308.489 119.21 308.478 119.232 308.525 119.254C308.546 119.265 308.62 119.256 308.639 119.243C308.691 119.205 308.705 119.044 308.727 118.981C308.754 118.896 308.762 118.817 308.762 118.724V118.165C308.762 117.938 308.789 117.728 308.789 117.504C308.789 117.414 308.776 117.299 308.727 117.223C308.678 117.149 308.536 117.092 308.486 117.204C308.467 117.245 308.5 117.349 308.5 117.395C308.506 117.499 308.5 117.605 308.503 117.709C308.503 117.927 308.508 118.143 308.508 118.361V118.364Z" fill="#B2924C"/>
<path d="M308.708 118.364C308.708 118.547 308.688 118.724 308.688 118.91C308.688 118.992 308.686 119.074 308.688 119.155C308.688 119.21 308.677 119.232 308.724 119.254C308.746 119.265 308.822 119.256 308.839 119.243C308.89 119.205 308.904 119.044 308.926 118.981C308.953 118.896 308.961 118.817 308.961 118.724V118.165C308.961 117.938 308.989 117.728 308.989 117.504C308.989 117.414 308.975 117.299 308.926 117.223C308.877 117.149 308.735 117.092 308.686 117.204C308.667 117.245 308.699 117.349 308.699 117.395C308.705 117.499 308.699 117.605 308.702 117.709C308.702 117.927 308.708 118.143 308.708 118.361V118.364Z" fill="#A48446"/>
<path d="M308.972 118.364C308.972 118.547 308.95 118.724 308.95 118.91C308.95 118.992 308.947 119.074 308.95 119.155C308.95 119.21 308.939 119.232 308.991 119.254C309.018 119.265 309.105 119.256 309.124 119.243C309.184 119.205 309.201 119.044 309.225 118.981C309.258 118.896 309.266 118.817 309.266 118.724V118.165C309.266 117.938 309.299 117.728 309.299 117.504C309.299 117.414 309.285 117.299 309.225 117.223C309.168 117.149 309.002 117.092 308.944 117.204C308.922 117.245 308.961 117.349 308.961 117.395C308.963 117.499 308.961 117.605 308.963 117.709C308.966 117.927 308.969 118.143 308.969 118.361L308.972 118.364Z" fill="#B2924C"/>
<path d="M309.893 117.729C309.508 118.329 306.601 118.667 304.983 118.201C303.364 117.734 302.253 114.849 302.253 114.849L301.355 113.504C301.961 113.405 302.513 113.236 303.015 113.021C303.342 113.654 303.787 114.404 304.287 114.931C305.316 116.015 305.542 115.881 308.078 116.222C310.613 116.566 310.278 117.125 309.893 117.729V117.729Z" fill="#E39471"/>
<path d="M308.878 118.857C308.493 119.46 305.584 119.799 303.968 119.332C302.35 118.863 301.236 115.981 301.236 115.981L299.637 113.581C300.368 113.633 301.042 113.576 301.662 113.448C301.968 114.127 302.565 115.317 303.272 116.06C304.072 116.903 304.386 117.01 305.682 117.176C305.693 117.176 305.701 117.179 305.712 117.181C305.865 117.201 306.032 117.22 306.214 117.244H306.217C306.466 117.274 306.747 117.31 307.063 117.353C309.599 117.695 309.263 118.254 308.878 118.857V118.857Z" fill="#E39471"/>
<path d="M310.754 116.468C310.432 116.976 307.957 117.399 306.215 117.243H306.213C306.038 117.23 305.869 117.208 305.71 117.18C305.7 117.178 305.691 117.175 305.68 117.175C305.552 117.15 305.432 117.123 305.317 117.09C303.699 116.624 302.588 113.739 302.588 113.739L302.285 113.286C302.49 113.226 302.686 113.155 302.875 113.081C303.478 112.841 304.01 112.535 304.466 112.216C304.782 112.516 305.102 112.83 305.383 113.125C306.412 114.208 306.401 114.623 308.939 114.964C310.35 115.155 310.872 115.412 310.989 115.709C311.085 115.944 310.926 116.201 310.754 116.468V116.468Z" fill="#E39471"/>
<path d="M326.215 110.267C326.215 110.267 328.514 104.917 328.366 102.685C328.219 100.452 326.145 89.7505 326.145 89.7505" stroke="#49312F" stroke-linecap="round" stroke-linejoin="round"/>
<path d="M337.336 93.6133C338.46 97.9748 338.504 103.971 338.504 103.971C338.504 103.971 338.078 106.351 337.674 107.446" stroke="#49312F" stroke-linecap="round" stroke-linejoin="round"/>
<path d="M316.278 88.4598C316.172 88.3615 315.997 88.3478 315.893 88.4598C315.85 88.5062 315.803 88.5525 315.754 88.5962C315.74 88.6071 315.727 88.6181 315.716 88.629C315.721 88.6235 315.71 88.6344 315.699 88.6426L315.686 88.6535L315.699 88.6426H315.694C315.68 88.6563 315.667 88.6672 315.65 88.6781C315.558 88.7436 315.457 88.7955 315.356 88.8419C315.271 88.8746 315.184 88.9046 315.096 88.9265C314.957 88.9592 314.862 89.1257 314.905 89.2622C314.952 89.4068 315.091 89.4887 315.241 89.4532C315.637 89.3577 316.005 89.1421 316.284 88.8473C316.382 88.7436 316.395 88.5635 316.284 88.4625L316.278 88.4598Z" fill="#DBB363"/>
<path d="M315.715 88.6284L315.695 88.6426L315.712 88.6284H315.715Z" fill="#DBB363"/>
<path d="M301.016 88.8574C300.732 88.7591 300.448 88.6636 300.164 88.5653C300.028 88.5189 299.859 88.6172 299.829 88.7564C299.793 88.9092 299.875 89.043 300.02 89.0921L300.871 89.3841C301.008 89.4305 301.177 89.3323 301.207 89.1931C301.242 89.0402 301.16 88.9065 301.016 88.8574Z" fill="#DBB363"/>
<path d="M303.174 92.6757C303.109 92.6675 303.043 92.6621 302.978 92.6539C302.972 92.6539 302.931 92.6484 302.926 92.6484C302.901 92.6457 302.879 92.643 302.855 92.6375C302.735 92.6211 302.612 92.5993 302.492 92.5775C302.252 92.5338 302.012 92.4792 301.777 92.4164C301.638 92.381 301.474 92.4628 301.441 92.6075C301.408 92.7494 301.485 92.905 301.632 92.9432C302.137 93.0769 302.653 93.167 303.174 93.2216C303.316 93.238 303.453 93.0851 303.447 92.9487C303.439 92.7876 303.327 92.6921 303.174 92.6757V92.6757Z" fill="#DBB363"/>
<path d="M305.472 91.6276C305.09 91.5676 304.708 91.5048 304.323 91.4448C304.249 91.4338 304.181 91.4338 304.113 91.4721C304.055 91.5048 304.001 91.5703 303.987 91.6358C303.957 91.7668 304.028 91.947 304.178 91.9715C304.56 92.0316 304.942 92.0943 305.327 92.1544C305.401 92.1653 305.469 92.1653 305.537 92.1271C305.595 92.0943 305.649 92.0288 305.663 91.9633C305.693 91.8323 305.622 91.6522 305.472 91.6276Z" fill="#DBB363"/>
<path d="M321.62 76.83C321.527 76.4915 321 76.6362 321.093 76.9746C321.27 77.6269 321.336 78.2956 321.295 78.9698C321.287 79.1172 321.426 79.2427 321.568 79.2427C321.723 79.2427 321.833 79.1172 321.841 78.9698C321.887 78.252 321.811 77.5259 321.62 76.83Z" fill="#DBB363"/>
<path d="M322.858 78.3131C322.708 78.3186 322.59 78.4332 322.585 78.5861C322.585 78.6734 322.577 78.7608 322.569 78.8481C322.569 78.8754 322.563 78.9027 322.56 78.9272C322.56 78.9354 322.555 78.9545 322.555 78.9627L322.56 78.9354C322.552 78.9791 322.547 79.0228 322.541 79.0637C322.511 79.2384 322.468 79.4131 322.413 79.5823C322.369 79.7188 322.465 79.8852 322.604 79.918C322.754 79.9507 322.893 79.8743 322.94 79.7269C323.057 79.3585 323.12 78.9709 323.131 78.5861C323.134 78.4442 323.003 78.3077 322.858 78.3131V78.3131Z" fill="#DBB363"/>
<path d="M319.094 87.8194C318.963 87.7484 318.799 87.7866 318.72 87.9176C318.641 88.0486 318.556 88.1769 318.464 88.3024C318.456 88.3161 318.445 88.327 318.436 88.3407C318.469 88.297 318.436 88.3407 318.431 88.3488C318.406 88.3789 318.382 88.4089 318.357 88.4389C318.308 88.499 318.256 88.5563 318.204 88.6136C318.103 88.7228 317.997 88.8292 317.885 88.9302C317.828 88.9821 317.768 89.0312 317.708 89.0803C317.697 89.0912 317.683 89.0994 317.672 89.1103L317.667 89.1158C317.631 89.1404 317.598 89.1676 317.566 89.1922C317.451 89.2741 317.383 89.4324 317.467 89.5661C317.541 89.6808 317.716 89.7545 317.841 89.6644C318.387 89.2714 318.851 88.7774 319.198 88.2015C319.272 88.0786 319.228 87.8958 319.1 87.8275L319.094 87.8194Z" fill="#DBB363"/>
<path d="M298.473 81.5483C298.32 81.5128 298.187 81.5947 298.137 81.7393C297.933 82.3316 297.908 82.9757 298.053 83.5816C298.086 83.7208 298.252 83.8164 298.389 83.7727C298.533 83.7263 298.615 83.5871 298.58 83.437C298.457 82.9239 298.487 82.3971 298.664 81.884C298.711 81.7503 298.61 81.5783 298.473 81.5483Z" fill="#DBB363"/>
<path d="M297.272 84.362V84.3566C297.218 84.2283 297.182 84.0973 297.161 83.9608C297.15 83.8598 297.144 83.7588 297.15 83.6579C297.158 83.5159 297.019 83.3795 296.877 83.3849C296.724 83.3931 296.612 83.505 296.604 83.6579C296.587 83.9963 296.661 84.332 296.803 84.6377C296.83 84.695 296.907 84.7469 296.967 84.7632C297.032 84.7823 297.12 84.7742 297.177 84.7359C297.234 84.6977 297.286 84.6431 297.303 84.5722C297.319 84.4958 297.308 84.433 297.275 84.362H297.272Z" fill="#DBB363"/>
<path d="M296.738 90.2481C296.468 89.997 296.269 89.7432 296.094 89.4184C295.928 89.1099 295.819 88.7852 295.758 88.4249C295.734 88.2802 295.554 88.1983 295.423 88.2338C295.27 88.2748 295.207 88.4249 295.232 88.5695C295.365 89.3556 295.769 90.0925 296.353 90.6329C296.463 90.7339 296.632 90.7394 296.738 90.6329C296.839 90.5319 296.847 90.3463 296.738 90.2481V90.2481Z" fill="#DBB363"/>
<path d="M297.218 87.1581C297.218 87.1581 297.199 87.1362 297.191 87.1253C297.163 87.0871 297.139 87.0434 297.117 87.0025C297.101 86.9561 297.084 86.907 297.076 86.8551C297.076 86.8387 297.073 86.8251 297.073 86.8087C297.073 86.7378 297.043 86.6668 296.994 86.6149C296.948 86.5685 296.869 86.5331 296.8 86.5358C296.729 86.5385 296.656 86.5631 296.607 86.6149C296.558 86.6668 296.525 86.735 296.528 86.8087C296.53 87.0817 296.639 87.3491 296.83 87.5429C296.88 87.592 296.953 87.6221 297.024 87.6221C297.095 87.6221 297.172 87.592 297.218 87.5429C297.264 87.4911 297.3 87.4228 297.297 87.3491C297.294 87.2754 297.27 87.2099 297.218 87.1553V87.1581Z" fill="#DBB363"/>
<path d="M311.786 92.4304C311.707 92.2967 311.543 92.2667 311.412 92.3322C310.773 92.657 310.099 92.9026 309.403 93.0746C309.261 93.1101 309.174 93.2711 309.212 93.4103C309.253 93.5549 309.403 93.6368 309.548 93.6013C310.287 93.4185 311.005 93.1483 311.688 92.8016C311.819 92.7361 311.857 92.5505 311.786 92.4277V92.4304Z" fill="#DBB363"/>
<path d="M312.01 87.8939C311.934 87.7766 311.765 87.7111 311.636 87.7957C311.254 88.0495 310.848 88.2678 310.425 88.448C310.367 88.4725 310.315 88.5544 310.299 88.6117C310.28 88.6772 310.288 88.7646 310.326 88.8219C310.364 88.8792 310.419 88.9311 310.49 88.9474C310.566 88.9638 310.629 88.9502 310.7 88.9202C311.123 88.74 311.53 88.5217 311.912 88.2678C312.032 88.1887 312.092 88.0222 312.01 87.8939Z" fill="#DBB363"/>
<path d="M319.295 82.0168C319.175 81.954 318.984 81.9759 318.922 82.1151C318.853 82.2652 318.777 82.4098 318.69 82.549C318.649 82.6145 318.605 82.68 318.559 82.7428C318.548 82.7592 318.534 82.7756 318.523 82.7919C318.523 82.7947 318.507 82.8138 318.499 82.8247C318.49 82.8356 318.474 82.8547 318.477 82.8547C318.463 82.8711 318.452 82.8875 318.438 82.9011C318.335 83.0239 318.226 83.1413 318.108 83.2477C318.048 83.3023 317.985 83.3569 317.923 83.4088C317.909 83.4197 317.898 83.4279 317.884 83.4388C317.923 83.4088 317.879 83.4415 317.871 83.4497C317.835 83.477 317.797 83.5043 317.762 83.5289C317.644 83.6107 317.579 83.7718 317.663 83.9028C317.737 84.0201 317.912 84.0884 318.037 84.001C318.621 83.5944 319.099 83.0403 319.396 82.3907C319.457 82.2625 319.437 82.0905 319.298 82.0168H319.295Z" fill="#DBB363"/>
<path d="M320.391 83.5032C320.375 83.4405 320.326 83.3722 320.266 83.3395C320.203 83.3067 320.126 83.2904 320.055 83.3122L319.99 83.3395C319.949 83.364 319.916 83.3968 319.892 83.4377C319.788 83.5742 319.684 83.7079 319.58 83.8444C319.561 83.8744 319.55 83.9099 319.548 83.9454C319.54 83.9809 319.542 84.0191 319.553 84.0546C319.57 84.1173 319.619 84.1856 319.679 84.2183C319.742 84.2511 319.818 84.2675 319.889 84.2456L319.954 84.2183C319.995 84.1938 320.028 84.161 320.053 84.1201C320.156 83.9836 320.26 83.8499 320.364 83.7134C320.383 83.6834 320.394 83.6479 320.397 83.6124C320.405 83.5769 320.402 83.5387 320.391 83.5032Z" fill="#DBB363"/>
<path d="M322.748 84.2728C322.732 84.21 322.682 84.1418 322.622 84.109C322.56 84.0763 322.483 84.0599 322.412 84.0817C322.344 84.1036 322.287 84.1445 322.249 84.2073C322.148 84.3792 322.047 84.5512 321.943 84.7204C321.907 84.7804 321.896 84.8623 321.916 84.9305C321.932 84.9933 321.981 85.0615 322.041 85.0943C322.104 85.1271 322.18 85.1434 322.251 85.1216C322.319 85.0998 322.377 85.0588 322.415 84.996C322.516 84.8241 322.617 84.6521 322.721 84.4829C322.756 84.4229 322.767 84.341 322.748 84.2728Z" fill="#DBB363"/>
<path d="M324.926 114.402C324.926 114.402 323.67 117.448 322.234 118.419C320.799 119.391 320.594 120.988 322.592 120.649C324.59 120.311 326.94 115.455 326.94 115.455L324.923 114.399L324.926 114.402Z" fill="#E39471"/>
<path d="M325.581 116.302C325.581 116.302 324.05 119.22 322.533 120.055C321.015 120.89 319.538 123.316 321.558 123.164C323.578 123.011 327.492 117.536 327.492 117.536L325.581 116.299V116.302Z" fill="#E39471"/>
<path d="M326.163 117.831C326.163 117.831 324.632 120.749 323.115 121.584C321.597 122.419 320.121 124.846 322.14 124.693C324.16 124.54 328.074 119.065 328.074 119.065L326.163 117.829V117.831Z" fill="#E39471"/>
<path d="M328.296 117.831C328.296 117.831 326.765 120.749 325.247 121.584C323.73 122.419 322.253 124.846 324.273 124.693C326.293 124.54 330.207 119.065 330.207 119.065L328.296 117.829V117.831Z" fill="#E39471"/>
<path d="M329.784 117.831C329.784 117.831 328.253 120.748 326.736 121.583C325.218 122.419 323.742 124.845 325.761 124.692C327.781 124.539 331.558 118.573 331.558 118.573L329.784 117.831V117.831Z" fill="#E39471"/>
<path d="M331.557 118.572L331.855 118.026L326.939 115.458L325.793 116.623L326.587 119.186H329.123L331.557 118.572Z" fill="#E39471"/>
<path d="M321.715 120.659C321.715 120.659 323.642 119.324 324.387 118.202" stroke="#49312F" stroke-linecap="round" stroke-linejoin="round"/>
<path d="M321.559 123.165C321.559 123.165 323.12 122.254 324.034 121.006" stroke="#49312F" stroke-linecap="round" stroke-linejoin="round"/>
<path d="M323.301 124.211C323.301 124.211 324.859 122.991 325.795 121.902" stroke="#49312F" stroke-linecap="round" stroke-linejoin="round"/>
<path d="M324.93 124.496C324.93 124.496 326.595 123.311 327.255 122.389" stroke="#49312F" stroke-linecap="round" stroke-linejoin="round"/>
<path d="M306.73 114.403C306.73 114.403 306.094 114.247 305.922 113.448" stroke="#49312F" stroke-linecap="round" stroke-linejoin="round"/>
<path d="M309.965 116.889C309.965 116.889 307.457 117.124 306.035 116.501" stroke="#49312F" stroke-linecap="round" stroke-linejoin="round"/>
<path d="M309.148 118.145C309.148 118.145 306.17 118.298 305.27 117.829" stroke="#49312F" stroke-linecap="round" stroke-linejoin="round"/>
<path d="M306.404 119.533C306.404 119.533 304.75 119.429 304.27 118.891" stroke="#49312F" stroke-linecap="round" stroke-linejoin="round"/>
<path d="M235.871 68.1846C225.256 67.1855 202.752 69.7581 197.657 88.0412C191.288 110.895 201.12 145.653 154.5 142" stroke="#0E366B" stroke-width="6" stroke-linecap="round"/>
<path d="M240.001 141.5C236.501 132.5 244.63 130.726 251.501 125C257.5 120 295.278 64.5081 248.658 68.1613" stroke="#C9594A" stroke-width="6" stroke-linecap="round"/>
<g clip-path="url(#clip0_263_5006)">
<path d="M244.72 63.4576H248.628C248.628 63.4576 248.894 62.4613 248.628 62.2466C247.938 61.6928 244.72 62.2466 244.72 62.2466V63.4576V63.4576Z" fill="#BBBBBB"/>
<g style="mix-blend-mode:multiply" opacity="0.3">
<path d="M244.72 63.4578H248.628C248.628 63.4578 248.894 62.8457 248.628 62.7132C247.938 62.3741 244.72 62.7132 244.72 62.7132V63.4578V63.4578Z" fill="#8B8B8B"/>
</g>
<path d="M244.72 71.7222H248.628C248.628 71.7222 248.894 72.7185 248.628 72.9331C247.938 73.4869 244.72 72.9331 244.72 72.9331V71.7222V71.7222Z" fill="#BBBBBB"/>
<g style="mix-blend-mode:multiply" opacity="0.3">
<path d="M244.72 71.7222H248.628C248.628 71.7222 248.894 72.3343 248.628 72.4668C247.938 72.8059 244.72 72.4668 244.72 72.4668V71.7222V71.7222Z" fill="#8B8B8B"/>
</g>
<path d="M250.008 72.1993C249.467 71.6985 249.153 71.6985 248.615 72.1993V77.695H250.008V72.1993V72.1993Z" fill="#8B8D8D"/>
<path d="M249.723 72.1993C249.483 71.6985 249.344 71.6985 249.105 72.1993V77.695H249.723V72.1993V72.1993Z" fill="#8B8D8D"/>
<path d="M246.656 103.162C242.98 103.162 239.306 103.162 235.63 103.162C233.6 103.162 231.954 102.52 231.368 101.614H250.918C250.329 102.52 248.683 103.162 246.656 103.162Z" fill="#DEDEDE"/>
<path d="M230.543 108.421C237.613 108.421 244.68 108.421 251.75 108.421C250.999 106.103 250.623 104.945 249.869 102.629H232.424C231.673 104.947 231.297 106.105 230.543 108.421Z" fill="#3E4049"/>
<g style="mix-blend-mode:overlay">
<path d="M247.184 102.629C247.704 104.947 247.965 106.105 248.484 108.421H236.982C237.278 106.103 237.424 104.945 237.72 102.629C240.874 102.629 244.028 102.629 247.184 102.629V102.629Z" fill="#C1C1C1"/>
</g>
<path d="M230.584 108.233C230.496 108.506 230.307 108.726 230.701 108.726H251.578C251.972 108.726 251.804 108.506 251.716 108.233V108.233C251.629 107.96 251.647 107.74 251.266 107.74H231.013C230.632 107.74 230.672 107.96 230.584 108.233Z" fill="#4E4F59"/>
<path d="M230.609 108.162C230.564 108.297 230.415 108.408 230.803 108.408H251.478C251.866 108.408 251.739 108.297 251.693 108.162H251.696C251.651 108.027 251.707 107.918 251.323 107.918H230.958C230.574 107.918 230.652 108.027 230.606 108.162H230.609Z" fill="#686A72"/>
<path d="M230.608 108.162C230.592 108.215 230.462 108.257 230.851 108.257H251.432C251.821 108.257 251.714 108.215 251.695 108.162C251.679 108.109 251.757 108.066 251.37 108.066H230.912C230.526 108.066 230.624 108.109 230.608 108.162Z" fill="#9B9EA5"/>
<g style="mix-blend-mode:multiply" opacity="0.5">
<path d="M251.541 108.591C251.549 108.864 251.549 108.999 251.555 109.272H230.803C230.766 108.951 230.75 108.789 230.718 108.469C237.657 108.511 244.599 108.548 251.539 108.591H251.541Z" fill="#3E4049"/>
</g>
<path d="M233.035 76.3193H249.029L250.766 78.8578H231.527L233.035 76.3193Z" fill="#BBBBBB"/>
<path d="M231.527 78.8579H250.766V101.339H231.527V78.8579Z" fill="#BBBBBB"/>
<path d="M232.91 75.9033H248.98V76.2902H232.91V75.9033Z" fill="#DEDEDE"/>
<path d="M236.519 74.3218C239.468 74.3218 242.42 74.3218 245.369 74.3218C246.996 74.3218 248.318 74.963 248.789 75.8692H233.096C233.568 74.963 234.889 74.3218 236.519 74.3218V74.3218Z" fill="#BBBBBB"/>
<path d="M232.142 63.7676H244.172V71.3645H232.142V63.7676Z" fill="#BBBBBB"/>
<g style="mix-blend-mode:multiply" opacity="0.3">
<path d="M233.883 63.7861H235.055V71.3433H233.883V63.7861Z" fill="#8B8B8B"/>
</g>
<g style="mix-blend-mode:multiply" opacity="0.3">
<path d="M240.754 63.7861H241.926V71.3433H240.754V63.7861Z" fill="#8B8B8B"/>
</g>
<path d="M229.036 69.727V65.2887C229.036 64.4036 230.429 63.6855 232.145 63.6855V71.3275C230.426 71.3275 229.036 70.6094 229.036 69.727V69.727Z" fill="#8B8D8D"/>
<path opacity="0.5" d="M232.15 63.9561H232.672V71.2933H232.15V63.9561Z" fill="#8B8B8B"/>
<path d="M244.035 63.2534H244.453V71.9394H244.035V63.2534Z" fill="#A1A1A1"/>
<path d="M244.456 62.9331H250.316V72.1198H244.456V62.9331Z" fill="#8B8D8D"/>
<g style="mix-blend-mode:overlay">
<path d="M231.313 101.074C231.305 100.912 231.327 100.801 231.58 100.801H250.698C250.959 100.801 250.986 100.917 250.98 101.084C250.98 101.106 250.98 101.129 250.978 101.153V101.164C250.978 101.164 250.978 101.19 250.978 101.206C250.978 101.217 250.978 101.225 250.978 101.235C250.98 101.254 250.988 101.27 250.978 101.283C250.983 101.32 250.986 101.352 250.978 101.381C250.988 101.612 251.023 101.786 250.701 101.786H231.58C231.268 101.786 231.305 101.622 231.321 101.402C231.305 101.373 231.313 101.336 231.321 101.294C231.305 101.278 231.321 101.259 231.327 101.235C231.327 101.225 231.327 101.217 231.327 101.206C231.321 101.185 231.308 101.169 231.324 101.156C231.319 101.124 231.316 101.098 231.319 101.074H231.313Z" fill="#C1C1C1"/>
</g>
<g style="mix-blend-mode:overlay">
<path d="M231.376 89.7353C231.368 89.5737 231.389 89.4624 231.642 89.4624H250.761C251.022 89.4624 251.048 89.579 251.043 89.7459C251.043 89.7671 251.043 89.791 251.04 89.8148V89.8254C251.04 89.8254 251.04 89.8519 251.04 89.8678C251.04 89.8784 251.04 89.8864 251.04 89.897C251.043 89.9155 251.051 89.9314 251.04 89.9447C251.046 89.9818 251.048 90.0136 251.04 90.0427C251.051 90.2732 251.086 90.4481 250.763 90.4481H231.642C231.331 90.4481 231.368 90.2838 231.384 90.0639C231.368 90.0348 231.376 89.9977 231.384 89.9553C231.368 89.9394 231.384 89.9208 231.389 89.897C231.389 89.8864 231.389 89.8784 231.389 89.8678C231.384 89.8466 231.371 89.8307 231.387 89.8175C231.381 89.7857 231.379 89.7592 231.381 89.7353H231.376Z" fill="#C1C1C1"/>
</g>
<g style="mix-blend-mode:overlay">
<path d="M231.485 79.2397C231.477 79.0781 231.499 78.9668 231.752 78.9668H250.87C251.131 78.9668 251.158 79.0834 251.152 79.2503C251.152 79.2715 251.152 79.2954 251.15 79.3192V79.3298C251.15 79.3298 251.15 79.3563 251.15 79.3722C251.15 79.3828 251.15 79.3908 251.15 79.4014C251.152 79.4199 251.16 79.4358 251.15 79.4491C251.155 79.4862 251.158 79.5179 251.15 79.5471C251.16 79.7776 251.195 79.9525 250.873 79.9525H231.752C231.44 79.9525 231.477 79.7882 231.493 79.5683C231.477 79.5391 231.485 79.5021 231.493 79.4597C231.477 79.4438 231.493 79.4252 231.499 79.4014C231.499 79.3908 231.499 79.3828 231.499 79.3722C231.493 79.351 231.48 79.3351 231.496 79.3219C231.491 79.2901 231.488 79.2636 231.491 79.2397H231.485Z" fill="#C1C1C1"/>
</g>
</g>
<path d="M203.107 136.552C203.107 137.104 201.774 137.551 200.13 137.551C198.486 137.551 197.152 137.104 197.152 136.552C197.152 135.999 198.486 135.553 200.13 135.553C201.774 135.553 203.107 135.999 203.107 136.552V136.552Z" fill="#A1C9E5"/>
<path d="M200.11 136.78C200.11 136.78 200.038 125.714 202.628 119.871L200.444 136.78H200.112H200.11Z" fill="#699E4C"/>
<path d="M200.797 136.782C200.797 136.782 201.464 127.751 204.053 121.907L201.129 136.782H200.797Z" fill="#699E4C"/>
<path d="M199.604 136.782C199.604 136.782 198.59 127.751 196 121.907L199.272 136.782H199.604V136.782Z" fill="#699E4C"/>
<path d="M200.26 136.782C200.26 136.782 199.742 123.201 197.152 117.357L199.925 136.782H200.257H200.26Z" fill="#699E4C"/>
<path d="M200.447 136.781H200.105L199.273 117.248C201.17 123.007 200.519 135.504 200.447 136.781Z" fill="#4F7739"/>
<path d="M199.854 136.78C199.854 136.78 199.336 125.714 196.746 119.871L199.519 136.78H199.851H199.854Z" fill="#4F7739"/>
<path d="M200.445 136.78C200.445 136.78 200.963 125.714 203.553 119.871L200.78 136.78H200.448H200.445Z" fill="#4F7739"/>
<defs>
<filter id="filter0_i_263_5006" x="106.973" y="126.499" width="124" height="59" filterUnits="userSpaceOnUse" color-interpolation-filters="sRGB">
<feFlood flood-opacity="0" result="BackgroundImageFix"/>
<feBlend mode="normal" in="SourceGraphic" in2="BackgroundImageFix" result="shape"/>
<feColorMatrix in="SourceAlpha" type="matrix" values="0 0 0 0 0 0 0 0 0 0 0 0 0 0 0 0 0 0 127 0" result="hardAlpha"/>
<feOffset dx="10" dy="10"/>
<feComposite in2="hardAlpha" operator="arithmetic" k2="-1" k3="1"/>
<feColorMatrix type="matrix" values="0 0 0 0 0.709804 0 0 0 0 0.854902 0 0 0 0 0.988235 0 0 0 1 0"/>
<feBlend mode="normal" in2="shape" result="effect1_innerShadow_263_5006"/>
</filter>
<filter id="filter1_i_263_5006" x="258.664" y="132" width="96.0586" height="45.9414" filterUnits="userSpaceOnUse" color-interpolation-filters="sRGB">
<feFlood flood-opacity="0" result="BackgroundImageFix"/>
<feBlend mode="normal" in="SourceGraphic" in2="BackgroundImageFix" result="shape"/>
<feColorMatrix in="SourceAlpha" type="matrix" values="0 0 0 0 0 0 0 0 0 0 0 0 0 0 0 0 0 0 127 0" result="hardAlpha"/>
<feOffset dx="10" dy="10"/>
<feComposite in2="hardAlpha" operator="arithmetic" k2="-1" k3="1"/>
<feColorMatrix type="matrix" values="0 0 0 0 0.709804 0 0 0 0 0.854902 0 0 0 0 0.988235 0 0 0 1 0"/>
<feBlend mode="normal" in2="shape" result="effect1_innerShadow_263_5006"/>
</filter>
<clipPath id="clip0_263_5006">
<rect width="22.7918" height="47.2719" fill="white" transform="matrix(-1 0 0 1 251.828 62)"/>
</clipPath>
</defs>
</svg>
