<svg width="482" height="265" viewBox="0 0 482 265" fill="none" xmlns="http://www.w3.org/2000/svg">
<path d="M247.35 149.91H244.494V155.18H243.984V150.08H241.128V162.83H243.984V157.73H244.494V163H247.35V149.91ZM240.448 162.49V150.25H237.949V154.075H237.269V150.25H234.77V162.49H240.448ZM237.949 156.455V160.11H237.269V156.455H237.949ZM240.89 171.211C240.278 171.88 239.507 172.412 238.578 172.809C237.66 173.194 236.617 173.432 235.45 173.523L234.77 171.143C236.073 171.052 237.133 170.684 237.949 170.038C238.776 169.392 239.224 168.406 239.292 167.08H242.488C242.556 168.406 242.998 169.392 243.814 170.038C244.641 170.684 245.707 171.052 247.01 171.143L246.33 173.523C245.163 173.432 244.114 173.194 243.185 172.809C242.267 172.412 241.502 171.88 240.89 171.211ZM234.77 177.28V174.73H247.01V177.28H242.505V180H239.275V177.28H234.77ZM247.01 193.94H242.488V193.175H246.84V190.625H238.119V189.996H246.67V184.25H235.11V186.8H243.644V187.446H235.11V193.175H239.292V193.94H234.77V196.49H247.01V193.94Z" fill="#0E366B"/>
</svg>
