<svg width="482" height="265" viewBox="0 0 482 265" fill="none" xmlns="http://www.w3.org/2000/svg">
<path d="M109 207.153C109 206.049 109.898 205.17 110.997 205.059C113.648 204.791 115.233 203.995 116.882 203.164C119.005 202.103 121.197 201 125.541 201C129.884 201 132.091 202.103 134.2 203.164C136.24 204.185 138.168 205.153 142.096 205.153C146.023 205.153 147.951 204.185 149.991 203.164C152.114 202.103 154.307 201 158.664 201C163.021 201 165.214 202.103 167.323 203.164C169.363 204.185 171.292 205.153 175.219 205.153C179.146 205.153 181.075 204.185 183.115 203.164C185.238 202.103 187.43 201 191.773 201C196.117 201 198.323 202.103 200.446 203.164C202.486 204.185 204.415 205.153 208.342 205.153C212.269 205.153 214.198 204.185 216.238 203.164C218.361 202.103 220.553 201 224.911 201C229.268 201 231.46 202.103 233.583 203.164C235.623 204.185 237.552 205.153 241.479 205.153C245.406 205.153 247.335 204.185 249.375 203.164C251.498 202.103 253.691 201 258.048 201C262.405 201 264.597 202.103 266.721 203.164C268.76 204.185 270.689 205.153 274.616 205.153C278.543 205.153 280.472 204.185 282.498 203.164C284.621 202.103 286.814 201 291.157 201C295.501 201 297.707 202.103 299.83 203.164C301.87 204.185 303.799 205.153 307.726 205.153C311.653 205.153 313.582 204.185 315.621 203.164C317.745 202.103 319.937 201 324.294 201C328.651 201 330.844 202.103 332.967 203.164C335.007 204.185 336.936 205.153 340.863 205.153C344.79 205.153 346.719 204.185 348.759 203.164C350.882 202.103 353.074 201 357.431 201C361.789 201 363.981 202.103 366.104 203.164C367.765 203.995 369.352 204.791 372.003 205.059C373.102 205.17 374 206.049 374 207.153V234H109V207.153Z" fill="#86C4FF"/>
<path d="M175 207.153C175 206.049 175.898 205.17 176.997 205.059C179.648 204.791 181.233 203.995 182.882 203.164C185.005 202.103 187.197 201 191.541 201C195.884 201 198.091 202.103 200.2 203.164C202.24 204.185 204.168 205.153 208.096 205.153C212.023 205.153 213.951 204.185 215.991 203.164C218.114 202.103 220.307 201 224.664 201C229.021 201 231.214 202.103 233.323 203.164C235.363 204.185 237.292 205.153 241.219 205.153C245.146 205.153 247.075 204.185 249.115 203.164C251.238 202.103 253.43 201 257.773 201C262.117 201 264.323 202.103 266.446 203.164C268.486 204.185 270.415 205.153 274.342 205.153C278.269 205.153 280.198 204.185 282.238 203.164C284.361 202.103 286.553 201 290.911 201C295.268 201 297.46 202.103 299.583 203.164C301.623 204.185 303.552 205.153 307.479 205.153C311.406 205.153 313.335 204.185 315.375 203.164C317.498 202.103 319.691 201 324.048 201C328.405 201 330.597 202.103 332.721 203.164C334.76 204.185 336.689 205.153 340.616 205.153C344.543 205.153 346.472 204.185 348.498 203.164C350.621 202.103 352.814 201 357.157 201C361.501 201 363.707 202.103 365.83 203.164C367.87 204.185 369.799 205.153 373.726 205.153C377.653 205.153 379.582 204.185 381.621 203.164C383.745 202.103 385.937 201 390.294 201C394.651 201 396.844 202.103 398.967 203.164C401.007 204.185 402.936 205.153 406.863 205.153C410.79 205.153 412.719 204.185 414.759 203.164C416.882 202.103 419.074 201 423.431 201C427.789 201 429.981 202.103 432.104 203.164C433.765 203.995 435.352 204.791 438.003 205.059C439.102 205.17 440 206.049 440 207.153V234H175V207.153Z" fill="#86C4FF"/>
<path d="M43 207.153C43 206.049 43.8982 205.17 44.9972 205.059C47.6478 204.791 49.2327 203.995 50.8819 203.164C53.005 202.103 55.1975 201 59.5408 201C63.8842 201 66.0905 202.103 68.1998 203.164C70.2396 204.185 72.1685 205.153 76.0955 205.153C80.0226 205.153 81.9514 204.185 83.9913 203.164C86.1144 202.103 88.3069 201 92.6641 201C97.0213 201 99.2138 202.103 101.323 203.164C103.363 204.185 105.292 205.153 109.219 205.153C113.146 205.153 115.075 204.185 117.115 203.164C119.238 202.103 121.43 201 125.773 201C130.117 201 132.323 202.103 134.446 203.164C136.486 204.185 138.415 205.153 142.342 205.153C146.269 205.153 148.198 204.185 150.238 203.164C152.361 202.103 154.553 201 158.911 201C163.268 201 165.46 202.103 167.583 203.164C169.623 204.185 171.552 205.153 175.479 205.153C179.406 205.153 181.335 204.185 183.375 203.164C185.498 202.103 187.691 201 192.048 201C196.405 201 198.597 202.103 200.721 203.164C202.76 204.185 204.689 205.153 208.616 205.153C212.543 205.153 214.472 204.185 216.498 203.164C218.621 202.103 220.814 201 225.157 201C229.501 201 231.707 202.103 233.83 203.164C235.87 204.185 237.799 205.153 241.726 205.153C245.653 205.153 247.582 204.185 249.621 203.164C251.745 202.103 253.937 201 258.294 201C262.651 201 264.844 202.103 266.967 203.164C269.007 204.185 270.936 205.153 274.863 205.153C278.79 205.153 280.719 204.185 282.759 203.164C284.882 202.103 287.074 201 291.431 201C295.789 201 297.981 202.103 300.104 203.164C301.765 203.995 303.352 204.791 306.003 205.059C307.102 205.17 308 206.049 308 207.153V234H43V207.153Z" fill="#86C4FF"/>
</svg>
