<svg width="482" height="265" viewBox="0 0 482 265" fill="none" xmlns="http://www.w3.org/2000/svg">
<path d="M260.667 220.457C240.64 216.941 225.465 195.752 220.745 188.396C219.892 187.087 220.425 185.336 221.863 184.696L242.032 175.68L262.201 166.664C263.618 166.032 265.286 166.8 265.716 168.296C268.071 176.699 273.809 202.103 263.12 219.364C262.604 220.189 261.63 220.626 260.667 220.457Z" fill="#BFBFBF"/>
<path d="M206.297 102.061L210.754 100.068L257.945 205.136L253.488 207.129L206.297 102.061Z" fill="#BFBFBF"/>
<path d="M208.566 104.45C208.989 104.262 209.347 103.911 209.547 103.456C210.517 103.763 211.58 103.281 211.956 102.309L218.834 84.4748C219.118 83.7513 218.93 82.9045 218.367 82.3682C217.79 81.8257 216.953 81.6784 216.231 82.0056L188.485 94.409C187.763 94.7363 187.305 95.4683 187.345 96.2665C187.37 97.0586 187.899 97.7496 188.637 98.0061L207.113 104.506C207.602 104.67 208.109 104.639 208.552 104.443L208.566 104.45ZM213.522 87.4672L208.372 100.834L194.518 95.9602L213.522 87.4672V87.4672Z" fill="black"/>
<path d="M237.231 181.952C237.467 181.92 237.73 181.9 237.95 181.98C238.178 182.08 238.327 182.282 238.477 182.483C241.403 186.419 251.576 205.764 259.3 217.768C261.23 219.448 254.521 216.497 253.937 216.24C252.191 215.455 250.623 214.459 249.103 213.315C243.708 209.311 238.203 205.09 233.428 200.256C230.67 197.482 220.35 188.171 227.539 185.241C230.789 183.921 233.723 182.429 237.252 181.944L237.231 181.952Z" fill="#9C9C9C"/>
<path d="M249.613 176.453C249.426 176.608 249.232 176.778 249.161 177.018C249.075 177.252 249.136 177.499 249.183 177.741C250.146 182.544 257.737 203.044 261.514 216.791C261.475 219.354 263.769 212.402 263.968 211.794C264.546 209.978 264.859 208.146 265.029 206.252C265.658 199.57 266.198 192.662 265.812 185.889C265.589 181.989 265.58 168.101 258.573 171.468C255.409 172.978 252.341 174.157 249.627 176.459L249.613 176.453Z" fill="#D1D1D1"/>
</svg>
