<svg width="28" height="20" viewBox="0 0 28 20" fill="none" xmlns="http://www.w3.org/2000/svg">
<g clip-path="url(#clip0_134_3992)">
<path d="M13.9184 9.65037C13.9456 9.66398 13.9728 9.67758 14 9.69119C14.0272 9.70026 14.0544 9.70933 14.0816 9.7184C14.1088 9.72747 14.1406 9.73654 14.1678 9.74107C14.195 9.74561 14.2268 9.75015 14.254 9.75468C14.2857 9.75468 14.3129 9.75922 14.3447 9.75922C14.3719 9.75922 14.3991 9.75922 14.4263 9.75468C14.4581 9.75468 14.4898 9.75015 14.5215 9.74107C14.5488 9.73654 14.5714 9.72747 14.5941 9.72293C14.6259 9.71386 14.6576 9.70479 14.6893 9.69119C14.7166 9.68212 14.7392 9.66851 14.7619 9.65491C14.7846 9.64584 14.8027 9.63677 14.8254 9.62316L27.5692 1.69119C28 1.42361 28.127 0.861258 27.8594 0.430419C27.5918 -0.000420201 27.0295 -0.127404 26.6032 0.135634L14.3447 7.76829L2.0862 0.135633C1.6553 -0.13194 1.093 -0.000421359 0.825399 0.430418C0.557799 0.861257 0.689299 1.42361 1.1202 1.69119L13.8594 9.62316C13.8594 9.62316 13.8957 9.6413 13.9138 9.65037L13.9184 9.65037Z" fill="#3C6A3C" fill-opacity="0.2"/>
<path d="M13.9138 14.7703C13.941 14.7839 13.9683 14.7975 13.9955 14.8111C14.0227 14.8247 14.0544 14.8293 14.0816 14.8383C14.1088 14.8474 14.1361 14.8565 14.1678 14.861C14.195 14.8656 14.2268 14.8701 14.254 14.8746C14.2857 14.8746 14.3129 14.8792 14.3447 14.8792C14.3719 14.8792 14.3991 14.8792 14.4263 14.8746C14.4581 14.8746 14.4898 14.8701 14.5215 14.861C14.5488 14.8565 14.5714 14.8474 14.5986 14.8429C14.6304 14.8338 14.6621 14.8247 14.6893 14.8111C14.7166 14.8021 14.7392 14.7885 14.7664 14.7749C14.7846 14.7658 14.8073 14.7567 14.8254 14.7476L27.5692 6.81568C28 6.5481 28.127 5.98121 27.8594 5.55037C27.5918 5.12407 27.0295 4.99255 26.5986 5.25559L14.3447 12.8882L2.0862 5.26012C1.6553 4.99255 1.093 5.12407 0.825399 5.55491C0.557799 5.98121 0.689299 6.5481 1.1202 6.81568L13.8594 14.7476C13.8594 14.7476 13.8957 14.7658 13.9138 14.7749L13.9138 14.7703Z" fill="#3C6A3C" fill-opacity="0.4"/>
<path d="M13.9954 19.9313C14.0271 19.9449 14.0589 19.954 14.0861 19.9631C14.1133 19.9721 14.136 19.9767 14.1632 19.9812C14.1949 19.9857 14.2267 19.9903 14.2539 19.9948C14.2811 19.9948 14.3129 19.9994 14.3401 19.9994C14.3673 19.9994 14.3945 19.9994 14.4217 19.9948C14.4534 19.9948 14.4852 19.9903 14.5169 19.9812C14.5441 19.9767 14.5668 19.9676 14.594 19.9631C14.6258 19.954 14.6575 19.9449 14.6893 19.9313C14.7119 19.9223 14.7392 19.9087 14.7618 19.895C14.7845 19.886 14.8027 19.8769 14.8253 19.8633L27.5691 11.9359C27.9999 11.6683 28.1315 11.1059 27.8639 10.6751C27.5963 10.2488 27.0339 10.1173 26.6031 10.3848L14.3446 18.013L2.0861 10.3848C1.6553 10.1173 1.0929 10.2488 0.8253 10.6796C0.5578 11.1059 0.6893 11.6728 1.1201 11.9404L13.8593 19.8724C13.8593 19.8724 13.9002 19.8905 13.9228 19.9041C13.9455 19.9177 13.9727 19.9313 13.9954 19.9404L13.9954 19.9313Z" fill="#3C6A3C" fill-opacity="0.6"/>
</g>
<defs>
<clipPath id="clip0_134_3992">
<rect width="20" height="28" fill="white" transform="translate(28) rotate(90)"/>
</clipPath>
</defs>
</svg>
