<svg width="10" height="16" viewBox="0 0 10 16" fill="none" xmlns="http://www.w3.org/2000/svg">
<path d="M7.68474 7.16518C8.10509 7.58552 8.10509 8.26616 7.68474 8.68474C7.2644 9.10509 6.58552 9.10509 6.16518 8.68474L2.31526 4.83482C1.89491 4.41624 1.89491 3.7356 2.31526 3.31526C2.7356 2.89491 3.41448 2.89491 3.83482 3.31526L7.68474 7.16518Z" fill="#DFDFDF"/>
<path d="M7.68474 8.83482C8.10509 8.41448 8.10509 7.73384 7.68474 7.31526C7.2644 6.89491 6.58552 6.89491 6.16518 7.31526L2.31526 11.1652C1.89491 11.5855 1.89491 12.2662 2.31526 12.6847C2.7356 13.1051 3.41448 13.1051 3.83482 12.6847L7.68474 8.83482Z" fill="#DFDFDF"/>
</svg>
