<svg width="482" height="265" viewBox="0 0 482 265" fill="none" xmlns="http://www.w3.org/2000/svg">
<rect x="109" y="140" width="265" height="94" fill="#CED4DA"/>
<g clip-path="url(#clip0_263_6064)">
<path d="M126.851 131.248C126.851 131.248 130.712 123.652 116.23 114.541C116.23 114.541 122.43 121.903 120.217 131.433C125.562 131.625 126.851 131.248 126.851 131.248V131.248Z" fill="#8EBF79"/>
<path d="M137.346 131.248C137.346 131.248 133.485 123.652 147.966 114.541C147.966 114.541 141.767 121.903 143.979 131.433C138.634 131.625 137.346 131.248 137.346 131.248V131.248Z" fill="#8EBF79"/>
<path d="M120.62 131.248C120.62 131.248 124.482 123.652 110 114.541C110 114.541 116.2 121.903 113.987 131.433C119.332 131.625 120.62 131.248 120.62 131.248V131.248Z" fill="#55A534"/>
<path d="M122.671 131.236C122.671 131.236 119.235 123.937 132.367 115.269C132.367 115.269 126.723 122.3 128.654 131.449C123.829 131.604 122.671 131.24 122.671 131.24V131.236Z" fill="#7EC165"/>
<path d="M137.61 131.257C137.61 131.257 141.098 123.975 128.031 115.236C128.031 115.236 133.623 122.296 131.628 131.437C136.448 131.621 137.615 131.261 137.615 131.261L137.61 131.257Z" fill="#55A534"/>
<path d="M128.494 131.248C128.494 131.248 124.633 123.652 139.119 114.541C139.119 114.541 132.919 121.903 135.132 131.433C129.787 131.625 128.499 131.248 128.499 131.248H128.494Z" fill="#7EC165"/>
<path d="M154.882 131.248C154.882 131.248 158.748 123.652 144.262 114.541C144.262 114.541 150.461 121.903 148.249 131.433C153.594 131.625 154.882 131.248 154.882 131.248V131.248Z" fill="#8EBF79"/>
<path d="M165.377 131.248C165.377 131.248 161.516 123.652 176.002 114.541C176.002 114.541 169.802 121.903 172.015 131.433C166.67 131.625 165.381 131.248 165.381 131.248H165.377Z" fill="#55A534"/>
<path d="M148.656 131.248C148.656 131.248 152.517 123.652 138.035 114.541C138.035 114.541 144.235 121.903 142.022 131.433C147.367 131.625 148.656 131.248 148.656 131.248Z" fill="#55A534"/>
<path d="M150.701 131.236C150.701 131.236 147.27 123.933 160.398 115.265C160.398 115.265 154.753 122.296 156.684 131.445C151.86 131.6 150.701 131.236 150.701 131.236Z" fill="#7EC165"/>
<path d="M165.646 131.257C165.646 131.257 169.13 123.975 156.062 115.236C156.062 115.236 161.655 122.296 159.659 131.437C164.479 131.621 165.646 131.261 165.646 131.261V131.257Z" fill="#8EBF79"/>
<path d="M156.53 131.248C156.53 131.248 152.668 123.652 167.15 114.541C167.15 114.541 160.95 121.903 163.163 131.433C157.818 131.625 156.53 131.248 156.53 131.248Z" fill="#7EC165"/>
</g>
<g clip-path="url(#clip1_263_6064)">
<path d="M192.851 131.248C192.851 131.248 196.712 123.652 182.23 114.541C182.23 114.541 188.43 121.903 186.217 131.433C191.562 131.625 192.851 131.248 192.851 131.248V131.248Z" fill="#8EBF79"/>
<path d="M203.346 131.248C203.346 131.248 199.485 123.652 213.966 114.541C213.966 114.541 207.767 121.903 209.979 131.433C204.634 131.625 203.346 131.248 203.346 131.248V131.248Z" fill="#8EBF79"/>
<path d="M186.62 131.248C186.62 131.248 190.482 123.652 176 114.541C176 114.541 182.2 121.903 179.987 131.433C185.332 131.625 186.62 131.248 186.62 131.248V131.248Z" fill="#55A534"/>
<path d="M188.671 131.236C188.671 131.236 185.235 123.937 198.367 115.269C198.367 115.269 192.723 122.3 194.654 131.449C189.829 131.604 188.671 131.24 188.671 131.24V131.236Z" fill="#7EC165"/>
<path d="M203.61 131.257C203.61 131.257 207.098 123.975 194.031 115.236C194.031 115.236 199.623 122.296 197.628 131.437C202.448 131.621 203.615 131.261 203.615 131.261L203.61 131.257Z" fill="#55A534"/>
<path d="M194.494 131.248C194.494 131.248 190.633 123.652 205.119 114.541C205.119 114.541 198.919 121.903 201.132 131.433C195.787 131.625 194.499 131.248 194.499 131.248H194.494Z" fill="#7EC165"/>
<path d="M220.882 131.248C220.882 131.248 224.748 123.652 210.262 114.541C210.262 114.541 216.461 121.903 214.249 131.433C219.594 131.625 220.882 131.248 220.882 131.248V131.248Z" fill="#8EBF79"/>
<path d="M231.377 131.248C231.377 131.248 227.516 123.652 242.002 114.541C242.002 114.541 235.802 121.903 238.015 131.433C232.67 131.625 231.381 131.248 231.381 131.248H231.377Z" fill="#55A534"/>
<path d="M214.656 131.248C214.656 131.248 218.517 123.652 204.035 114.541C204.035 114.541 210.235 121.903 208.022 131.433C213.367 131.625 214.656 131.248 214.656 131.248Z" fill="#55A534"/>
<path d="M216.701 131.236C216.701 131.236 213.27 123.933 226.398 115.265C226.398 115.265 220.753 122.296 222.684 131.445C217.86 131.6 216.701 131.236 216.701 131.236Z" fill="#7EC165"/>
<path d="M231.646 131.257C231.646 131.257 235.13 123.975 222.062 115.236C222.062 115.236 227.655 122.296 225.659 131.437C230.479 131.621 231.646 131.261 231.646 131.261V131.257Z" fill="#8EBF79"/>
<path d="M222.53 131.248C222.53 131.248 218.668 123.652 233.15 114.541C233.15 114.541 226.95 121.903 229.163 131.433C223.818 131.625 222.53 131.248 222.53 131.248Z" fill="#7EC165"/>
</g>
<g clip-path="url(#clip2_263_6064)">
<path d="M258.851 131.248C258.851 131.248 262.712 123.652 248.23 114.541C248.23 114.541 254.43 121.903 252.217 131.433C257.562 131.625 258.851 131.248 258.851 131.248V131.248Z" fill="#8EBF79"/>
<path d="M269.346 131.248C269.346 131.248 265.485 123.652 279.966 114.541C279.966 114.541 273.767 121.903 275.979 131.433C270.634 131.625 269.346 131.248 269.346 131.248V131.248Z" fill="#8EBF79"/>
<path d="M252.62 131.248C252.62 131.248 256.482 123.652 242 114.541C242 114.541 248.2 121.903 245.987 131.433C251.332 131.625 252.62 131.248 252.62 131.248V131.248Z" fill="#55A534"/>
<path d="M254.671 131.236C254.671 131.236 251.235 123.937 264.367 115.269C264.367 115.269 258.723 122.3 260.654 131.449C255.829 131.604 254.671 131.24 254.671 131.24V131.236Z" fill="#7EC165"/>
<path d="M269.61 131.257C269.61 131.257 273.098 123.975 260.031 115.236C260.031 115.236 265.623 122.296 263.628 131.437C268.448 131.621 269.615 131.261 269.615 131.261L269.61 131.257Z" fill="#55A534"/>
<path d="M260.494 131.248C260.494 131.248 256.633 123.652 271.119 114.541C271.119 114.541 264.919 121.903 267.132 131.433C261.787 131.625 260.499 131.248 260.499 131.248H260.494Z" fill="#7EC165"/>
<path d="M286.882 131.248C286.882 131.248 290.748 123.652 276.262 114.541C276.262 114.541 282.461 121.903 280.249 131.433C285.594 131.625 286.882 131.248 286.882 131.248V131.248Z" fill="#8EBF79"/>
<path d="M297.377 131.248C297.377 131.248 293.516 123.652 308.002 114.541C308.002 114.541 301.802 121.903 304.015 131.433C298.67 131.625 297.381 131.248 297.381 131.248H297.377Z" fill="#55A534"/>
<path d="M280.656 131.248C280.656 131.248 284.517 123.652 270.035 114.541C270.035 114.541 276.235 121.903 274.022 131.433C279.367 131.625 280.656 131.248 280.656 131.248Z" fill="#55A534"/>
<path d="M282.701 131.236C282.701 131.236 279.27 123.933 292.398 115.265C292.398 115.265 286.753 122.296 288.684 131.445C283.86 131.6 282.701 131.236 282.701 131.236Z" fill="#7EC165"/>
<path d="M297.646 131.257C297.646 131.257 301.13 123.975 288.062 115.236C288.062 115.236 293.655 122.296 291.659 131.437C296.479 131.621 297.646 131.261 297.646 131.261V131.257Z" fill="#8EBF79"/>
<path d="M288.53 131.248C288.53 131.248 284.668 123.652 299.15 114.541C299.15 114.541 292.95 121.903 295.163 131.433C289.818 131.625 288.53 131.248 288.53 131.248Z" fill="#7EC165"/>
</g>
<g clip-path="url(#clip3_263_6064)">
<path d="M324.851 131.248C324.851 131.248 328.712 123.652 314.23 114.541C314.23 114.541 320.43 121.903 318.217 131.433C323.562 131.625 324.851 131.248 324.851 131.248V131.248Z" fill="#8EBF79"/>
<path d="M335.346 131.248C335.346 131.248 331.485 123.652 345.966 114.541C345.966 114.541 339.767 121.903 341.979 131.433C336.634 131.625 335.346 131.248 335.346 131.248V131.248Z" fill="#8EBF79"/>
<path d="M318.62 131.248C318.62 131.248 322.482 123.652 308 114.541C308 114.541 314.2 121.903 311.987 131.433C317.332 131.625 318.62 131.248 318.62 131.248V131.248Z" fill="#55A534"/>
<path d="M320.671 131.236C320.671 131.236 317.235 123.937 330.367 115.269C330.367 115.269 324.723 122.3 326.654 131.449C321.829 131.604 320.671 131.24 320.671 131.24V131.236Z" fill="#7EC165"/>
<path d="M335.61 131.257C335.61 131.257 339.098 123.975 326.031 115.236C326.031 115.236 331.623 122.296 329.628 131.437C334.448 131.621 335.615 131.261 335.615 131.261L335.61 131.257Z" fill="#55A534"/>
<path d="M326.494 131.248C326.494 131.248 322.633 123.652 337.119 114.541C337.119 114.541 330.919 121.903 333.132 131.433C327.787 131.625 326.499 131.248 326.499 131.248H326.494Z" fill="#7EC165"/>
<path d="M352.882 131.248C352.882 131.248 356.748 123.652 342.262 114.541C342.262 114.541 348.461 121.903 346.249 131.433C351.594 131.625 352.882 131.248 352.882 131.248V131.248Z" fill="#8EBF79"/>
<path d="M363.377 131.248C363.377 131.248 359.516 123.652 374.002 114.541C374.002 114.541 367.802 121.903 370.015 131.433C364.67 131.625 363.381 131.248 363.381 131.248H363.377Z" fill="#55A534"/>
<path d="M346.656 131.248C346.656 131.248 350.517 123.652 336.035 114.541C336.035 114.541 342.235 121.903 340.022 131.433C345.367 131.625 346.656 131.248 346.656 131.248Z" fill="#55A534"/>
<path d="M348.701 131.236C348.701 131.236 345.27 123.933 358.398 115.265C358.398 115.265 352.753 122.296 354.684 131.445C349.86 131.6 348.701 131.236 348.701 131.236Z" fill="#7EC165"/>
<path d="M363.646 131.257C363.646 131.257 367.13 123.975 354.062 115.236C354.062 115.236 359.655 122.296 357.659 131.437C362.479 131.621 363.646 131.261 363.646 131.261V131.257Z" fill="#8EBF79"/>
<path d="M354.53 131.248C354.53 131.248 350.668 123.652 365.15 114.541C365.15 114.541 358.95 121.903 361.163 131.433C355.818 131.625 354.53 131.248 354.53 131.248Z" fill="#7EC165"/>
</g>
<rect x="109" y="234" width="265" height="7" fill="#ABB9C8"/>
<rect x="109" y="129" width="265" height="11" fill="#ABB9C8"/>
<rect x="192" y="150" width="99" height="75" rx="4" fill="#ABB9C8"/>
<path d="M198 119C198 116.791 199.791 115 202 115H281C283.209 115 285 116.791 285 119V150H198V119Z" fill="#0E366B"/>
<circle cx="242" cy="188" r="31" fill="white"/>
<circle cx="242.5" cy="188.5" r="25.5" fill="#0E366B"/>
<circle cx="198" cy="156" r="2" fill="#CED4DA"/>
<circle cx="198" cy="162" r="2" fill="#CED4DA"/>
<circle cx="285" cy="156" r="2" fill="#CED4DA"/>
<circle cx="285" cy="162" r="2" fill="#CED4DA"/>
<circle cx="198" cy="185" r="2" fill="#CED4DA"/>
<circle cx="198" cy="191" r="2" fill="#CED4DA"/>
<circle cx="285" cy="185" r="2" fill="#CED4DA"/>
<circle cx="285" cy="191" r="2" fill="#CED4DA"/>
<path d="M220.954 127.216V131.126H209.36V127.216H220.954ZM217.758 129.46V128.899H212.556V129.46H217.758ZM221.294 133.506H216.755V133.999H220.954V137.841H212.556V138.317H221.124V140H209.36V136.158H217.758V135.665H209.36V133.999H213.559V133.506H209.02V131.653H221.294V133.506ZM230.199 136.94H234.721V139.49H222.481V136.94H227.003V134.73H224.946V129.8H222.821V127.25H228.125L228.006 132.35H230.199V136.94ZM231.202 134.73V129.8H228.975V127.25H234.381L234.211 134.73H231.202ZM235.908 132.503C236.871 132.435 237.716 132.163 238.441 131.687C239.166 131.2 239.699 130.571 240.039 129.8H236.248V127.25H247.808V129.8H244.017C244.357 130.571 244.89 131.2 245.615 131.687C246.34 132.163 247.185 132.435 248.148 132.503L247.468 134.883C246.335 134.792 245.298 134.526 244.357 134.084C243.428 133.631 242.651 133.041 242.028 132.316C241.405 133.041 240.623 133.631 239.682 134.084C238.753 134.526 237.721 134.792 236.588 134.883L235.908 132.503ZM243.626 134.73V136.94H248.148V139.49H235.908V136.94H240.43V134.73H243.626ZM257.971 132.86V130.99H256.832V128.78H257.971V127.08H261.15V132.86H257.971ZM256.254 132.86C255.597 132.86 254.979 132.769 254.401 132.588C253.823 132.395 253.319 132.118 252.888 131.755C252.446 132.118 251.936 132.395 251.358 132.588C250.78 132.769 250.163 132.86 249.505 132.86L248.995 130.99C249.63 130.99 250.117 130.865 250.457 130.616C250.809 130.355 251.047 129.902 251.171 129.256H249.25V127.216H256.492V129.256H254.588C254.713 129.902 254.945 130.355 255.285 130.616C255.637 130.865 256.13 130.99 256.764 130.99L256.254 132.86ZM252.786 138.13H261.32V140H249.59V135.75H257.971V135.24H249.59V133.37H261.15V137.62H252.786V138.13ZM271.218 127.08V140H274.414V127.08H271.218ZM262.684 139.49C264.078 139.49 265.307 139.093 266.373 138.3C267.449 137.507 268.282 136.379 268.872 134.917C269.472 133.444 269.773 131.727 269.773 129.766V127.216H262.514V129.766H266.577C266.577 131.523 266.35 132.939 265.897 134.016C265.443 135.081 264.894 135.835 264.248 136.277C263.602 136.719 262.967 136.94 262.344 136.94L262.684 139.49Z" fill="white"/>
<path d="M268 182.819V189.181C268 189.638 267.342 190 266.542 190H218.458C217.645 190 217 189.63 217 189.181V182.819C217 182.362 217.658 182 218.458 182H266.542C267.342 182 268 182.37 268 182.819Z" fill="#358FC1"/>
<path d="M262 101.09V107.91C262 108.512 261.393 109 260.644 109H223.356C222.607 108.992 222 108.512 222 107.91V101.09C222 100.488 222.607 100 223.356 100H260.654C261.393 100.008 262 100.488 262 101.09Z" fill="#358FC1"/>
<path d="M246 83.8974V184H237V83.8974C237 83.3979 237.418 83 237.928 83H245.072C245.582 83 246 83.3979 246 83.8974Z" fill="#358FC1"/>
<path d="M248 82.5C248 83.325 247.572 84 247.048 84H235.952C235.428 84 235 83.325 235 82.5C235 81.675 235.428 81 235.952 81H247.048C247.572 81 248 81.675 248 82.5Z" fill="#2E78A0"/>
<path d="M262 106.363V108.637C262 108.837 261.393 109 260.644 109H223.356C222.607 108.997 222 108.837 222 108.637V106.363C222 106.163 222.607 106 223.356 106H260.654C261.393 106.003 262 106.163 262 106.363Z" fill="#3B799B"/>
<path d="M268 187.363V189.637C268 189.837 267.226 190 266.271 190H218.729C217.774 189.997 217 189.837 217 189.637V187.363C217 187.163 217.774 187 218.729 187H266.284C267.226 187.003 268 187.163 268 187.363Z" fill="#3B799B"/>
<path d="M265.992 89.4704C265.992 89.4704 266.136 88.7719 265.204 88.1803C264.273 87.5887 263.464 87.503 259.081 86.6777L259 82.0586C263.383 82.8838 264.192 82.9695 265.123 83.5611C266.054 84.1528 265.917 84.8512 265.917 84.8512L265.992 89.4704Z" fill="#366484"/>
<path d="M264.274 87.0067C263.139 87.6478 261.093 88.5539 255.256 89.4216L255.154 87.0811L247 92.4109L255.686 96.8236L255.6 94.6192C256.886 94.3964 258.338 94.0981 259.776 93.6958C264.309 92.4283 266.012 91.1298 266 90.4478C265.989 89.7657 265.916 85.2354 265.916 85.2354C265.916 85.2354 265.68 86.212 264.274 87.0067Z" fill="url(#paint0_linear_263_6064)"/>
<defs>
<linearGradient id="paint0_linear_263_6064" x1="266.886" y1="90.4618" x2="256.523" y2="90.6291" gradientUnits="userSpaceOnUse">
<stop stop-color="#002C42"/>
<stop offset="1" stop-color="#1B3D5E"/>
</linearGradient>
<clipPath id="clip0_263_6064">
<rect width="66" height="16.9459" fill="white" transform="translate(110 114.541)"/>
</clipPath>
<clipPath id="clip1_263_6064">
<rect width="66" height="16.9459" fill="white" transform="translate(176 114.541)"/>
</clipPath>
<clipPath id="clip2_263_6064">
<rect width="66" height="16.9459" fill="white" transform="translate(242 114.541)"/>
</clipPath>
<clipPath id="clip3_263_6064">
<rect width="66" height="16.9459" fill="white" transform="translate(308 114.541)"/>
</clipPath>
</defs>
</svg>
