<svg width="20" height="14" viewBox="0 0 20 14" fill="none" xmlns="http://www.w3.org/2000/svg">
<g clip-path="url(#clip0_12_3176)">
<g clip-path="url(#clip1_12_3176)">
<path d="M9.58914 9.60672C9.58914 9.10214 9.4846 8.58583 9.27733 8.06139C9.06823 7.53605 8.76743 7.07931 8.37216 6.69027C7.97689 6.30123 7.48808 6.0187 6.90572 5.84359C6.32245 5.66848 5.63646 5.67841 4.84685 5.87248C4.72212 5.91129 4.3241 6.07647 4.3241 6.07647C4.3241 6.07647 4.22322 5.71722 4.22322 5.52225C4.22322 3.11128 5.80338 1.3421 8.96552 0.212888C8.96552 0.212888 5.08621 -0.95333 1.96625 2.16712C0.427366 3.70703 5.11774e-07 5.85352 7.02188e-07 8.0316C8.45334e-07 9.669 0.599781 11.255 1.72506 12.4735C2.5431 13.3581 3.58309 13.7508 4.78357 13.7508C6.239 13.7508 7.40462 13.313 8.2777 12.4374C9.15169 11.5618 9.58823 10.6195 9.58823 9.60762L9.58914 9.60672Z" fill="#3C6A3C" fill-opacity="0.2"/>
<path d="M19.3752 0.213132C19.3752 0.213132 15.4959 -0.953086 12.376 2.16736C10.838 3.70637 10.4106 5.85377 10.4106 8.03095C10.4106 9.66835 11.0104 11.2543 12.1357 12.4729C12.9537 13.3575 13.9937 13.7501 15.1951 13.7501C16.6506 13.7501 17.8162 13.3123 18.6893 12.4368C19.5633 11.5612 19.9998 10.6188 19.9998 9.60696C19.9998 9.10239 19.8952 8.58607 19.688 8.06164C19.4789 7.5363 19.1781 7.07956 18.7828 6.69052C18.3866 6.30148 17.8987 6.01895 17.3164 5.84384C16.7331 5.66872 16.0471 5.67865 15.2575 5.87272C15.1328 5.91153 14.7347 6.07672 14.7347 6.07672C14.7347 6.07672 14.6339 5.71747 14.6339 5.52249C14.6339 3.11153 16.214 1.34234 19.3762 0.213132L19.3752 0.213132Z" fill="#3C6A3C" fill-opacity="0.2"/>
</g>
</g>
<defs>
<clipPath id="clip0_12_3176">
<rect width="20" height="14" fill="white" transform="matrix(1 -8.74228e-08 -8.74228e-08 -1 0 14)"/>
</clipPath>
<clipPath id="clip1_12_3176">
<rect width="20" height="13.75" fill="white"/>
</clipPath>
</defs>
</svg>
