<svg width="482" height="265" viewBox="0 0 482 265" fill="none" xmlns="http://www.w3.org/2000/svg">
<g clip-path="url(#clip0_262_10100)">
<path d="M230.573 188.258C230.844 187.511 231.465 186.951 232.226 186.765C235.626 185.929 245.592 184.382 256.581 191.227C264.362 196.072 266.486 203.068 266.993 205.353C267.028 205.513 266.879 205.62 266.748 205.584C263.348 197.903 255.418 192.036 243.459 190.214C236.002 189.076 232.575 191.281 231.072 192.961C230.434 192.676 229.795 192.41 229.148 192.161L230.573 188.267V188.258Z" fill="#0E366B"/>
<path d="M243.467 190.205C255.426 192.027 263.355 197.904 266.756 205.575C266.721 205.566 266.694 205.549 266.659 205.522C264.955 203.504 258.757 196.766 249.84 193.894C239.288 190.498 234.113 191.352 232.74 193.708C232.74 193.708 232.74 193.725 232.731 193.734C232.181 193.459 231.63 193.201 231.07 192.952C232.574 191.263 236.01 189.067 243.458 190.205H243.467Z" fill="#6595D5"/>
<path d="M232.732 193.734C231.377 196.081 230.599 198.481 230.599 198.481L227.277 197.29L229.148 192.152C230.363 192.623 231.561 193.148 232.732 193.734Z" fill="#ABB9C8"/>
<path d="M215.822 234.929L213.717 234.081C213.14 233.849 212.86 233.191 213.089 232.604L226.907 197.112C226.981 196.922 227.197 196.827 227.384 196.903L230.903 198.32C231.09 198.395 231.184 198.614 231.11 198.804L217.294 234.288C217.066 234.875 216.419 235.159 215.842 234.927L215.822 234.929Z" fill="black"/>
</g>
<defs>
<clipPath id="clip0_262_10100">
<rect width="54" height="49" fill="white" transform="translate(213 186)"/>
</clipPath>
</defs>
</svg>
