<svg width="130" height="96" viewBox="0 0 130 96" fill="none" xmlns="http://www.w3.org/2000/svg">
<g clip-path="url(#clip0_46_7171)">
<path d="M91.8164 34.9313C91.5694 34.9313 91.3594 34.7337 91.3594 34.4743V19.874C91.3594 19.627 91.557 19.417 91.8164 19.417C92.0758 19.417 92.2734 19.6146 92.2734 19.874V34.4743C92.2734 34.7213 92.0758 34.9313 91.8164 34.9313V34.9313Z" fill="#CECECE"/>
<path d="M89.7656 34.3757C89.7656 35.5121 90.6797 36.4261 91.8161 36.4261C92.9525 36.4261 93.8665 35.5121 93.8665 34.3757C93.8665 33.2393 92.9525 32.3252 91.8161 32.3252C90.6797 32.3252 89.7656 33.2393 89.7656 34.3757Z" fill="#CECECE"/>
<path d="M26.1777 48.988C25.9307 48.988 25.7207 48.7903 25.7207 48.5309V33.9307C25.7207 33.6836 25.9183 33.4736 26.1777 33.4736C26.4371 33.4736 26.6348 33.6713 26.6348 33.9307V48.5309C26.6348 48.778 26.4371 48.988 26.1777 48.988Z" fill="#CECECE"/>
<path d="M26.1774 50.4828C27.3099 50.4828 28.2279 49.5647 28.2279 48.4323C28.2279 47.2999 27.3099 46.3818 26.1774 46.3818C25.045 46.3818 24.127 47.2999 24.127 48.4323C24.127 49.5647 25.045 50.4828 26.1774 50.4828Z" fill="#CECECE"/>
<path d="M97.7217 19.133C97.4746 19.133 97.2646 18.9353 97.2646 18.676V1.45703C97.2646 1.20999 97.4623 1 97.7217 1C97.9811 1 98.1787 1.19763 98.1787 1.45703V18.6883C98.1787 18.9353 97.9811 19.1453 97.7217 19.1453V19.133Z" fill="#CECECE"/>
<path d="M94.6455 18.5278C94.6455 20.2201 96.0166 21.6035 97.7212 21.6035C99.4258 21.6035 100.797 20.2324 100.797 18.5278C100.797 16.8232 99.4258 15.4521 97.7212 15.4521C96.0166 15.4521 94.6455 16.8232 94.6455 18.5278V18.5278Z" fill="#CECECE"/>
<path d="M34.5898 58.8701C34.3428 58.8701 34.1328 58.6725 34.1328 58.4131V42.207C34.1328 41.96 34.3304 41.75 34.5898 41.75C34.8492 41.75 35.0469 41.9476 35.0469 42.207V58.4131C35.0469 58.6601 34.8492 58.8701 34.5898 58.8701Z" fill="#CECECE"/>
<path d="M34.5898 39.3907C34.3428 39.3907 34.1328 39.193 34.1328 38.9337V30.0771C34.1328 29.8301 34.3304 29.6201 34.5898 29.6201C34.8492 29.6201 35.0469 29.8178 35.0469 30.0771V38.9337C35.0469 39.1807 34.8492 39.3907 34.5898 39.3907V39.3907Z" fill="#CECECE"/>
<path d="M31.5137 58.2524C31.5137 59.9447 32.8848 61.3281 34.5894 61.3281C36.294 61.3281 37.6651 59.957 37.6651 58.2524C37.6651 56.5478 36.294 55.1768 34.5894 55.1768C32.8848 55.1768 31.5137 56.5478 31.5137 58.2524Z" fill="#CECECE"/>
<path d="M65.2722 75.5703C50.9437 75.5703 39.2832 65.0586 39.2832 52.1506L39.3203 50.9772C40.2343 33.1653 61.3936 12.2778 62.2953 11.4008L65.2722 8.49805L68.249 11.4008C69.1507 12.2778 90.2977 33.153 91.2117 50.9401C91.2364 51.3601 91.2488 51.7553 91.2488 52.1506C91.2488 65.071 79.5883 75.5703 65.2722 75.5703ZM65.2722 11.0302L63.5676 12.6978C62.6906 13.5624 42.013 33.9559 41.136 51.0513L41.099 52.1877C41.099 64.0705 51.9442 73.7669 65.2722 73.7669C78.6002 73.7669 89.433 64.0705 89.433 52.163C89.433 51.8047 89.433 51.4342 89.396 51.0636C88.5189 33.9559 67.8538 13.5748 66.9768 12.7101L65.2722 11.0426V11.0302Z" fill="url(#paint0_linear_46_7171)"/>
<path d="M65.2722 75.5703C50.9437 75.5703 39.2832 65.0586 39.2832 52.1506L39.3203 50.9772C40.2343 33.1653 61.3936 12.2778 62.2953 11.4008L65.2722 8.49805L68.249 11.4008C69.1507 12.2778 90.2977 33.153 91.2117 50.9401C91.2364 51.3601 91.2488 51.7553 91.2488 52.1506C91.2488 65.071 79.5883 75.5703 65.2722 75.5703ZM65.2722 11.0302L63.5676 12.6978C62.6906 13.5624 42.013 33.9559 41.136 51.0513L41.099 52.1877C41.099 64.0704 51.9442 73.7669 65.2722 73.7669C78.6002 73.7669 89.433 64.0705 89.433 52.163C89.433 51.8047 89.433 51.4342 89.396 51.0636C88.5189 33.9559 67.8538 13.5748 66.9768 12.7101L65.2722 11.0426V11.0302Z" fill="url(#paint1_linear_46_7171)" stroke="url(#paint2_linear_46_7171)" stroke-width="1.2"/>
<path d="M79.3788 36.3524C79.07 36.3524 78.7612 36.1918 78.5882 35.8954C73.8326 27.7183 67.2119 20.3934 64.5932 17.6142C64.2474 17.2436 64.2597 16.6754 64.6303 16.3296C65.0008 15.9837 65.569 15.996 65.9149 16.3666C69.2253 19.8623 75.4878 26.9401 80.1693 34.9813C80.4164 35.4137 80.2681 35.9695 79.8358 36.2289C79.6876 36.3154 79.5393 36.3524 79.3788 36.3524Z" fill="url(#paint3_linear_46_7171)"/>
<path d="M84.9371 52.1502C84.4677 52.1502 84.0725 51.8043 84.0354 51.3349V51.2855C83.8872 48.3828 83.0225 45.1218 81.4785 41.5644C81.2809 41.1073 81.4785 40.5638 81.9479 40.3662C82.4049 40.1686 82.9484 40.3662 83.1461 40.8356C84.7765 44.5906 85.6906 48.0616 85.8388 51.162C85.8635 51.6561 85.493 52.1008 84.9865 52.1378C84.9618 52.1378 84.9495 52.1378 84.9248 52.1378L84.9371 52.1502Z" fill="url(#paint4_linear_46_7171)"/>
<path d="M65.2721 84.1796C55.4768 84.1796 44.9404 82.438 44.9404 78.6335C44.9404 77.2377 46.2374 76.1137 48.8931 75.1749C49.3749 75.002 49.8813 75.2614 50.0542 75.7308C50.2272 76.2001 49.9678 76.7189 49.4984 76.8919C47.3368 77.6577 46.7686 78.3618 46.7686 78.6335C46.7686 79.8934 53.3028 82.3639 65.2845 82.3639C77.2661 82.3639 83.8004 79.9058 83.8004 78.6335C83.8004 78.3618 83.2322 77.6577 81.0705 76.8919C80.6011 76.7189 80.3541 76.2125 80.5147 75.7308C80.6753 75.2614 81.2064 75.0143 81.6758 75.1749C84.2944 76.1013 85.6285 77.2624 85.6285 78.6335C85.6285 82.438 75.0921 84.1796 65.2968 84.1796H65.2721Z" fill="url(#paint5_linear_46_7171)"/>
<path d="M85.8508 72.6676C84.9738 73.4705 84.0103 74.2117 83.0221 74.9034C84.4797 75.4963 86.5054 76.6574 86.5054 78.6955C86.5054 84.6122 68.8048 84.9086 65.2597 84.9086C61.7146 84.9086 44.014 84.6122 44.014 78.6955C44.014 76.6574 46.0397 75.5086 47.4973 74.9034C46.5091 74.2117 45.558 73.4705 44.6686 72.6676C37.4303 74.0881 32.8105 76.2374 32.8105 78.6337C32.8105 82.8952 47.3367 86.3662 65.2597 86.3662C83.1827 86.3662 97.7088 82.9076 97.7088 78.6337C97.7088 76.2251 93.0891 74.0758 85.8384 72.6553L85.8508 72.6676Z" fill="#FFC9C9"/>
<path d="M65.2716 89.2442C47.5956 89.2442 28.8203 85.5262 28.8203 78.646C28.8203 73.9645 37.6274 71.3335 42.8894 70.1848C43.3835 70.0736 43.8653 70.3824 43.9764 70.8765C44.0876 71.3706 43.7664 71.8523 43.2847 71.9635C33.9712 74.0016 30.6484 76.7438 30.6484 78.646C30.6484 82.7963 44.8781 87.4284 65.2839 87.4284C85.6897 87.4284 99.9194 82.7963 99.9194 78.646C99.9194 76.7561 96.5967 74.0016 87.2831 71.9635C86.789 71.8523 86.4802 71.3706 86.5914 70.8765C86.7026 70.3824 87.1843 70.0736 87.6784 70.1848C92.9281 71.3335 101.748 73.9522 101.748 78.646C101.748 85.5385 82.9722 89.2442 65.2963 89.2442H65.2716Z" fill="url(#paint6_linear_46_7171)"/>
<path d="M65.2717 95.0003C38.764 95.0003 18 87.8113 18 78.6337C18 72.964 25.683 67.9737 39.0975 64.9475C39.5916 64.8363 40.0733 65.1451 40.1845 65.6392C40.2957 66.1333 39.9869 66.615 39.4928 66.7262C27.3506 69.4683 19.8158 74.0386 19.8158 78.646C19.8158 86.5267 40.6292 93.1969 65.2717 93.1969C89.9143 93.1969 110.728 86.539 110.728 78.646C110.728 74.0386 103.193 69.4683 91.0507 66.7262C90.5566 66.615 90.2478 66.1333 90.359 65.6392C90.4702 65.1451 90.9643 64.8363 91.446 64.9475C104.848 67.9737 112.543 72.964 112.543 78.6337C112.543 87.8113 91.7795 95.0003 65.2717 95.0003V95.0003Z" fill="url(#paint7_linear_46_7171)"/>
</g>
<defs>
<linearGradient id="paint0_linear_46_7171" x1="65.266" y1="-63.6591" x2="65.266" y2="69.981" gradientUnits="userSpaceOnUse">
<stop offset="0.588542" stop-color="#FD7575"/>
<stop offset="1" stop-color="#E03131"/>
</linearGradient>
<linearGradient id="paint1_linear_46_7171" x1="65.266" y1="-63.6591" x2="65.266" y2="69.981" gradientUnits="userSpaceOnUse">
<stop offset="0.588542" stop-color="#FD7575"/>
<stop offset="1" stop-color="#E03131"/>
</linearGradient>
<linearGradient id="paint2_linear_46_7171" x1="65.266" y1="-63.6591" x2="65.266" y2="69.981" gradientUnits="userSpaceOnUse">
<stop offset="0.588542" stop-color="#FD7575"/>
<stop offset="1" stop-color="#E03131"/>
</linearGradient>
<linearGradient id="paint3_linear_46_7171" x1="72.3158" y1="-5.73118" x2="72.3158" y2="34.663" gradientUnits="userSpaceOnUse">
<stop offset="0.588542" stop-color="#FD7575"/>
<stop offset="1" stop-color="#E03131"/>
</linearGradient>
<linearGradient id="paint4_linear_46_7171" x1="83.6212" y1="27.5308" x2="83.6212" y2="51.1618" gradientUnits="userSpaceOnUse">
<stop offset="0.588542" stop-color="#FD7575"/>
<stop offset="1" stop-color="#E03131"/>
</linearGradient>
<linearGradient id="paint5_linear_46_7171" x1="65.2845" y1="65.3758" x2="65.2845" y2="83.4248" gradientUnits="userSpaceOnUse">
<stop offset="0.588542" stop-color="#FD7575"/>
<stop offset="1" stop-color="#E03131"/>
</linearGradient>
<linearGradient id="paint6_linear_46_7171" x1="65.2839" y1="49.6334" x2="65.2839" y2="87.654" gradientUnits="userSpaceOnUse">
<stop offset="0.588542" stop-color="#FD7575"/>
<stop offset="1" stop-color="#E03131"/>
</linearGradient>
<linearGradient id="paint7_linear_46_7171" x1="65.2717" y1="32.5692" x2="65.2717" y2="92.494" gradientUnits="userSpaceOnUse">
<stop offset="0.588542" stop-color="#FD7575"/>
<stop offset="1" stop-color="#E03131"/>
</linearGradient>
<clipPath id="clip0_46_7171">
<rect width="94.5435" height="94" fill="white" transform="translate(18 1)"/>
</clipPath>
</defs>
</svg>
