<svg width="130" height="96" viewBox="0 0 130 96" fill="none" xmlns="http://www.w3.org/2000/svg">
<g clip-path="url(#clip0_46_7172)">
<path d="M50.4649 45.3083C50.1588 43.2038 48.6538 41.3034 45.8988 41.3034C45.733 41.3034 45.5927 41.3416 45.4397 41.3544C45.4397 37.0434 42.6592 32.7324 37.111 32.7324C32.6215 32.7324 29.9813 35.5639 29.114 38.9183C28.6421 38.8418 28.1574 38.778 27.6345 38.778C23.1832 38.778 20.7599 41.9028 20.3135 45.321H50.4649V45.3083Z" fill="#CECECE"/>
<path d="M44.8152 15.7565C44.7259 15.0933 44.2412 14.5066 43.3867 14.5066C43.3356 14.5066 43.2846 14.5066 43.2464 14.5193C43.2464 13.1673 42.3791 11.8281 40.6445 11.8281C39.2415 11.8281 38.4124 12.7082 38.1446 13.7668C37.9915 13.7413 37.8512 13.7158 37.6854 13.7158C36.2952 13.7158 35.5299 14.6979 35.3896 15.7692H44.8279L44.8152 15.7565Z" fill="#CECECE"/>
<path d="M64.954 32.3368C64.9285 30.7552 63.9082 29.1864 61.8675 29.1864C61.6507 29.1864 61.4593 29.2119 61.2553 29.2502C60.7834 27.5028 59.3804 26.0488 57.0208 26.0488C54.6612 26.0488 53.169 27.6049 52.7481 29.4287C52.5185 29.3777 52.2762 29.3522 52.0211 29.3522C50.0569 29.3522 49.0365 30.819 48.9473 32.3368H64.9413H64.954Z" fill="#CECECE"/>
<path d="M99.5306 4.83941C98.6378 3.88283 97.5792 3.19409 96.3548 2.7987C95.1813 2.18649 93.9187 1.89314 92.5539 1.94416C90.0031 2.05895 87.3629 2.90074 85.59 4.82665C84.085 6.45922 83.0647 8.4234 82.7841 10.6044C82.2739 10.4641 81.7254 10.3621 81.1132 10.3621C75.7054 10.3621 74.1621 16.3184 76.4324 19.7748C75.0294 20.1702 73.958 21.3691 73.958 22.9124V23.0655C73.958 24.7873 75.463 26.4326 77.2359 26.3433C79.0088 26.2668 80.5138 24.9021 80.5138 23.0655V22.9124C80.5138 22.6446 80.4628 22.3767 80.3862 22.1089C80.6158 22.1344 80.8326 22.1727 81.0877 22.1727C83.4983 22.1727 85.1436 20.9737 86.0237 19.3539C86.8145 20.0682 87.7073 20.6166 88.7276 20.9355C89.901 21.5477 91.1637 21.841 92.5284 21.79C95.0793 21.6752 97.7195 20.8334 99.4923 18.9075C101.265 16.9816 102.375 14.6093 102.375 11.9436V11.7906C102.375 9.26519 101.278 6.61227 99.4923 4.82665L99.5306 4.83941Z" fill="white"/>
<path d="M77.1343 27.3253C76.1267 27.3253 75.1574 26.9171 74.3794 26.1774C73.5121 25.3484 73.0146 24.226 73.0146 23.0781V22.925C73.0146 21.42 73.8182 20.068 75.1064 19.3155C74.1881 17.2621 74.2518 14.7367 75.336 12.7342C76.4711 10.617 78.5756 9.40534 81.1137 9.40534C81.4198 9.40534 81.7132 9.43085 82.0193 9.46911C82.4529 7.5687 83.435 5.75758 84.889 4.17603C86.6491 2.28838 89.3658 1.15323 92.5161 1.00018C94.0212 0.936409 95.4241 1.25527 96.7251 1.9185C98.0643 2.3649 99.2377 3.13017 100.207 4.17603C102.146 6.12745 103.357 9.04821 103.357 11.8032V11.9562C103.357 14.6984 102.273 17.3258 100.22 19.5706C98.4597 21.4838 95.7558 22.6189 92.5927 22.7592C91.1004 22.823 89.6847 22.5041 88.3837 21.8409C87.6312 21.5858 86.9297 21.2287 86.2792 20.7695C85.1441 22.2108 83.4605 23.0526 81.4963 23.1418C81.4708 25.3866 79.6342 27.2232 77.3001 27.3253C77.2491 27.3253 77.1853 27.3253 77.1343 27.3253V27.3253ZM81.1265 11.3313C79.2898 11.3313 77.8231 12.1603 77.0195 13.6526C76.1012 15.3616 76.1905 17.6702 77.2491 19.2645C77.4149 19.5196 77.4532 19.8384 77.3511 20.119C77.2491 20.3996 77.0068 20.6165 76.7134 20.7057C75.8334 20.9481 74.9406 21.7389 74.9406 22.9378V23.0908C74.9406 23.703 75.2339 24.3408 75.7186 24.8127C76.165 25.2336 76.7007 25.4504 77.2364 25.4249C78.5883 25.3611 79.6087 24.3663 79.6087 23.0908V22.9378C79.6087 22.7847 79.5832 22.6062 79.5194 22.3893C79.4301 22.0832 79.5194 21.7644 79.7107 21.522C79.9148 21.2797 80.2209 21.1521 80.527 21.1904L80.7821 21.2159C80.8969 21.2287 81.0117 21.2542 81.1265 21.2542C83.4733 21.2542 84.6594 19.9915 85.2334 18.9329C85.3737 18.6778 85.6288 18.4992 85.9094 18.4482C86.2027 18.41 86.4961 18.4865 86.7129 18.6778C87.4144 19.3155 88.2052 19.7874 89.0597 20.068C89.1107 20.0808 89.1617 20.1063 89.2128 20.1318C90.2459 20.6802 91.3555 20.9098 92.5289 20.8716C94.0594 20.8078 96.9164 20.3741 98.8296 18.2952C100.551 16.4203 101.47 14.2265 101.47 11.969V11.8159C101.47 9.54564 100.475 7.13505 98.8678 5.528C98.8678 5.528 98.8551 5.51524 98.8423 5.50249C98.0516 4.6607 97.146 4.07399 96.0746 3.71687C96.0236 3.70412 95.9726 3.67861 95.9216 3.6531C94.8885 3.10466 93.7916 2.88783 92.6054 2.91334C91.0749 2.97711 88.2179 3.41076 86.3047 5.48973C84.8507 7.07128 83.9834 8.84414 83.7411 10.7446C83.7028 11.0124 83.5498 11.2675 83.3202 11.4205C83.0906 11.5736 82.81 11.6246 82.5422 11.5481C82.032 11.4078 81.5729 11.344 81.1265 11.344V11.3313Z" fill="url(#paint0_linear_46_7172)"/>
<path d="M92.4911 4.83887C83.512 4.83887 83.4992 18.7922 92.4911 18.7922C101.483 18.7922 101.483 4.83887 92.4911 4.83887Z" fill="#FFC9C9"/>
<path d="M81.1519 13.1299C77.0705 13.1299 77.0705 19.4688 81.1519 19.4688C85.2333 19.4688 85.2333 13.1299 81.1519 13.1299V13.1299Z" fill="#FFC9C9"/>
<path d="M77.2743 21.5479C75.3356 21.5479 75.3356 24.5579 77.2743 24.5579C79.213 24.5579 79.213 21.5479 77.2743 21.5479Z" fill="#FFC9C9"/>
<path d="M102.848 25.0928C100.093 25.0928 98.2689 26.5213 97.3378 28.409C96.6746 27.9371 95.8456 27.6437 94.8125 27.6437C91.1774 27.6437 89.8637 31.215 90.8331 33.8296C87.9251 34.0974 88.0016 38.7528 91.0882 38.7528C92.657 38.7528 93.4477 37.5539 93.4732 36.3422C93.8814 36.457 94.315 36.5463 94.8125 36.5463C96.0879 36.5463 97.07 36.0871 97.7715 35.3984C98.7791 36.8907 100.475 37.9365 102.835 37.9365C111.1 37.9365 111.113 25.0801 102.835 25.0801L102.848 25.0928Z" fill="white"/>
<path d="M91.1008 39.7097C88.9198 39.7097 87.8485 38.0389 87.7719 36.4829C87.7082 35.1692 88.3459 33.7662 89.6723 33.1795C89.3917 31.6617 89.7106 30.0674 90.5651 28.8302C91.5217 27.4655 93.0267 26.713 94.8124 26.713C95.5904 26.713 96.3174 26.8533 96.9806 27.1466C98.2561 25.2335 100.348 24.1621 102.835 24.1621C107.529 24.1621 109.99 27.8736 109.99 31.5342C109.99 35.1947 107.529 38.919 102.835 38.919C100.73 38.919 98.9065 38.1537 97.6183 36.7507C96.6618 37.3502 95.4501 37.6308 94.2384 37.4905C93.8303 38.7149 92.7589 39.7352 91.1008 39.7352V39.7097ZM94.8251 28.6006C93.6645 28.6006 92.7334 29.047 92.1339 29.9016C91.4452 30.8964 91.2921 32.2994 91.7385 33.4983C91.8406 33.7789 91.8151 34.085 91.6493 34.3401C91.4962 34.5952 91.2284 34.7483 90.935 34.7865C89.8892 34.8886 89.6468 35.8324 89.6723 36.3808C89.6723 36.6232 89.7999 37.7966 91.1008 37.7966C92.4018 37.7966 92.5293 36.5594 92.5293 36.3171C92.5293 36.0237 92.6824 35.7431 92.9247 35.5646C93.167 35.386 93.4732 35.335 93.7537 35.4243C95.1822 35.8451 96.3046 35.5135 97.1209 34.71C97.325 34.5187 97.6056 34.4167 97.8862 34.4422C98.1668 34.4677 98.4219 34.6207 98.5749 34.8503C99.2381 35.8196 100.514 36.9803 102.848 36.9803C106.457 36.9803 108.102 34.1361 108.102 31.5087C108.102 30.0546 107.631 28.7027 106.776 27.7078C105.832 26.611 104.48 26.037 102.848 26.037C99.9779 26.037 98.7025 27.7844 98.205 28.8175C98.0775 29.0726 97.8607 29.2511 97.5801 29.3276C97.3122 29.3914 97.0189 29.3404 96.7893 29.1746C96.2409 28.7792 95.5776 28.5879 94.8251 28.5879V28.6006Z" fill="url(#paint1_linear_46_7172)"/>
<path d="M102.783 27.0068C97.0695 27.0068 97.0567 35.8839 102.783 35.8839C108.51 35.8839 108.51 27.0068 102.783 27.0068Z" fill="#FFC9C9"/>
<path d="M95.0674 30.208C94.0343 30.259 93.167 31.0498 93.167 32.1084V32.2232C93.167 33.218 94.047 34.1746 95.0674 34.1236C96.1005 34.0726 96.9678 33.2818 96.9678 32.2232V32.1084C96.9678 31.1136 96.0877 30.157 95.0674 30.208Z" fill="#FFC9C9"/>
<path d="M71.8037 66.6737H82.3133L82.0838 56.1641H72.046L71.8037 66.6737Z" fill="white"/>
<path d="M82.3129 67.6171H71.8033C71.5482 67.6171 71.3059 67.515 71.1273 67.3365C70.9487 67.1579 70.8467 66.9028 70.8595 66.6477L71.089 56.1381C71.089 55.6152 71.5227 55.207 72.0456 55.207H82.0833C82.5935 55.207 83.0272 55.6152 83.0399 56.1381L83.2695 66.6477C83.2695 66.9028 83.1802 67.1452 83.0017 67.3365C82.8231 67.515 82.5808 67.6171 82.3257 67.6171H82.3129ZM72.7854 65.7167H81.3436L81.1523 57.1202H72.9767L72.7854 65.7167V65.7167Z" fill="url(#paint2_linear_46_7172)"/>
<path d="M81.3691 24.6475H72.7472L72.5176 35.1571H81.6115L81.3691 24.6475Z" fill="white"/>
<path d="M81.6111 36.1005H72.5172C72.2621 36.1005 72.0197 35.9984 71.8412 35.8199C71.6626 35.6413 71.5606 35.3862 71.5733 35.1311L71.8029 24.6215C71.8029 24.0986 72.2366 23.6904 72.7595 23.6904H81.3815C81.8917 23.6904 82.3253 24.0986 82.3381 24.6215L82.5676 35.1311C82.5676 35.3862 82.4784 35.6286 82.2998 35.8199C82.1212 35.9984 81.8789 36.1005 81.6238 36.1005H81.6111ZM73.4865 34.2001H80.6417L80.4504 25.6036H73.6906L73.4992 34.2001H73.4865Z" fill="url(#paint3_linear_46_7172)"/>
<path d="M72.2755 45.6533L72.0459 56.163H82.0836L81.8413 45.6533H72.2755Z" fill="white"/>
<path d="M82.0832 57.12H72.0455C71.7904 57.12 71.5481 57.018 71.3695 56.8394C71.1909 56.6608 71.0889 56.4058 71.1017 56.1507L71.3312 45.641C71.3312 45.1309 71.7649 44.71 72.2878 44.71H81.8536C82.3638 44.71 82.7974 45.1181 82.8102 45.641L83.0398 56.1507C83.0398 56.4058 82.9505 56.6481 82.7719 56.8394C82.5934 57.018 82.351 57.12 82.096 57.12H82.0832ZM73.0148 55.2196H81.1011L80.9098 46.6231H73.2061L73.0148 55.2196Z" fill="url(#paint4_linear_46_7172)"/>
<path d="M81.6116 35.1572H72.5177L72.2754 45.6541H81.8412L81.6116 35.1572Z" fill="white"/>
<path d="M81.8408 46.6102H72.275C72.0199 46.6102 71.7776 46.5082 71.599 46.3296C71.4204 46.1511 71.3184 45.896 71.3311 45.6409L71.5607 35.1313C71.5607 34.6083 71.9944 34.2002 72.5173 34.2002H81.6112C82.1214 34.2002 82.555 34.6083 82.5678 35.1313L82.7974 45.6409C82.7974 45.896 82.7081 46.1383 82.5295 46.3296C82.351 46.5082 82.1086 46.6102 81.8535 46.6102H81.8408ZM73.2443 44.7098H80.8714L80.6801 36.1134H73.4484L73.2571 44.7098H73.2443Z" fill="url(#paint5_linear_46_7172)"/>
<path d="M95.0544 38.4209H87.3252L87.1084 47.8337H95.2585L95.0544 38.4209Z" fill="white"/>
<path d="M95.2581 48.7907H87.108C86.8529 48.7907 86.6106 48.6887 86.432 48.5101C86.2534 48.3315 86.1514 48.0765 86.1642 47.8214L86.381 38.4086C86.381 37.8857 86.8146 37.4775 87.3376 37.4775H95.0667C95.5769 37.4775 96.0106 37.8857 96.0233 38.4086L96.2401 47.8214C96.2401 48.0765 96.1509 48.3188 95.9723 48.5101C95.7937 48.6887 95.5514 48.7907 95.2963 48.7907H95.2581ZM88.0773 46.8903H94.2887L94.1229 39.3779H88.2559L88.0901 46.8903H88.0773Z" fill="url(#paint6_linear_46_7172)"/>
<path d="M86.9043 57.2598L86.6875 66.6725H95.6794L95.4753 57.2598H86.9043Z" fill="white"/>
<path d="M95.6789 67.6159H86.6871C86.432 67.6159 86.1897 67.5139 86.0111 67.3353C85.8325 67.1567 85.7305 66.9017 85.7433 66.6466L85.9601 57.2338C85.9601 56.7109 86.3937 56.3027 86.9167 56.3027H95.4876C96.0106 56.3027 96.4315 56.7109 96.4442 57.2338L96.6483 66.6466C96.6483 66.9017 96.559 67.144 96.3804 67.3353C96.2019 67.5139 95.9595 67.6159 95.7044 67.6159H95.6789ZM87.6564 65.7155H94.7096L94.5438 58.2031H87.835L87.6692 65.7155H87.6564Z" fill="url(#paint7_linear_46_7172)"/>
<path d="M95.2584 47.834H87.1084L86.9043 57.2595H95.4753L95.2584 47.834Z" fill="white"/>
<path d="M95.4748 58.2038H86.9039C86.6488 58.2038 86.4065 58.1018 86.2279 57.9232C86.0493 57.7446 85.9473 57.4895 85.9601 57.2345L86.1769 47.8217C86.1769 47.2988 86.6105 46.8906 87.1335 46.8906H95.2835C95.7937 46.8906 96.2274 47.2988 96.2401 47.8217L96.4569 57.2345C96.4569 57.4895 96.3677 57.7319 96.1891 57.9232C96.0105 58.1018 95.7682 58.2038 95.5131 58.2038H95.4748ZM87.8732 56.3034H94.5055L94.3397 48.791H88.0518L87.886 56.3034H87.8732Z" fill="url(#paint8_linear_46_7172)"/>
<path d="M111.801 65.6396H65.2725V94.0565H111.801V65.6396Z" fill="white" stroke="url(#paint9_linear_46_7172)" stroke-width="1.2"/>
<path d="M111.801 94.9999H65.2727C64.6732 94.9999 64.1758 94.579 64.1758 94.0433V65.6265C64.1758 65.1036 64.6604 64.6699 65.2727 64.6699H111.801C112.4 64.6699 112.898 65.0908 112.898 65.6265V94.0433C112.898 94.5663 112.413 94.9999 111.801 94.9999V94.9999ZM66.3695 93.0995H110.704V66.5958H66.3695V93.0995V93.0995Z" fill="url(#paint10_linear_46_7172)" stroke="url(#paint11_linear_46_7172)" stroke-width="1.2"/>
<path d="M107.911 82.8965H99.8379V94.0438H107.911V82.8965Z" fill="white"/>
<path d="M107.911 95H99.8374C99.3145 95 98.8809 94.5791 98.8809 94.0434V82.896C98.8809 82.3731 99.3018 81.9395 99.8374 81.9395H107.911C108.434 81.9395 108.868 82.3603 108.868 82.896V94.0434C108.868 94.5663 108.447 95 107.911 95ZM100.794 93.0996H106.967V83.8526H100.794V93.0996Z" fill="url(#paint12_linear_46_7172)"/>
<path d="M21.8705 92.8186V65.3873L65.8466 43.66V92.8186H21.8705Z" fill="white" stroke="url(#paint13_linear_46_7172)" stroke-width="1.2"/>
<path d="M66.4462 94.9999H21.2701C20.7471 94.9999 20.3135 94.579 20.3135 94.0433V65.6265C20.3135 65.2693 20.5175 64.9377 20.8492 64.7719L66.038 42.4517C66.3314 42.3114 66.6885 42.3242 66.9564 42.5027C67.237 42.6813 67.4028 42.9746 67.4028 43.3062V94.0433C67.4028 94.5662 66.9819 94.9999 66.4462 94.9999ZM22.2139 93.0995H65.5024V44.8495L22.2139 66.2259V93.0995V93.0995Z" fill="url(#paint14_linear_46_7172)" stroke="url(#paint15_linear_46_7172)" stroke-width="1.2"/>
<path d="M61.3035 74.7588H54.4033V80.7151H61.3035V74.7588Z" fill="#FFC9C9"/>
<path d="M51.699 74.7588H44.7988V80.7151H51.699V74.7588Z" fill="#FFC9C9"/>
<path d="M42.0954 74.7588H35.1953V80.7151H42.0954V74.7588Z" fill="#FFC9C9"/>
<path d="M32.4783 74.7588H25.5781V80.7151H32.4783V74.7588Z" fill="#FFC9C9"/>
<path d="M61.3035 66.0479H54.4033V72.0042H61.3035V66.0479Z" fill="#FFC9C9"/>
<path d="M51.6999 66.0479H44.7998V72.0042H51.6999V66.0479Z" fill="#FFC9C9"/>
<path d="M42.0954 66.0479H35.1953V72.0042H42.0954V66.0479Z" fill="#FFC9C9"/>
<path d="M61.3035 57.3496H54.4033V63.3059H61.3035V57.3496Z" fill="#FFC9C9"/>
<path d="M107.911 70.792H68.9082V75.1923H107.911V70.792Z" fill="#FFC9C9"/>
</g>
<defs>
<linearGradient id="paint0_linear_46_7172" x1="88.186" y1="-27.3373" x2="88.186" y2="25.1309" gradientUnits="userSpaceOnUse">
<stop offset="0.588542" stop-color="#FD7575"/>
<stop offset="1" stop-color="#E03131"/>
</linearGradient>
<linearGradient id="paint1_linear_46_7172" x1="98.8788" y1="7.40834" x2="98.8788" y2="38.4375" gradientUnits="userSpaceOnUse">
<stop offset="0.588542" stop-color="#FD7575"/>
<stop offset="1" stop-color="#E03131"/>
</linearGradient>
<linearGradient id="paint2_linear_46_7172" x1="77.064" y1="41.8562" x2="77.064" y2="66.5829" gradientUnits="userSpaceOnUse">
<stop offset="0.588542" stop-color="#FD7575"/>
<stop offset="1" stop-color="#E03131"/>
</linearGradient>
<linearGradient id="paint3_linear_46_7172" x1="77.0699" y1="10.3396" x2="77.0699" y2="35.0663" gradientUnits="userSpaceOnUse">
<stop offset="0.588542" stop-color="#FD7575"/>
<stop offset="1" stop-color="#E03131"/>
</linearGradient>
<linearGradient id="paint4_linear_46_7172" x1="77.0702" y1="31.3591" x2="77.0702" y2="56.0858" gradientUnits="userSpaceOnUse">
<stop offset="0.588542" stop-color="#FD7575"/>
<stop offset="1" stop-color="#E03131"/>
</linearGradient>
<linearGradient id="paint5_linear_46_7172" x1="77.0637" y1="20.8493" x2="77.0637" y2="45.5761" gradientUnits="userSpaceOnUse">
<stop offset="0.588542" stop-color="#FD7575"/>
<stop offset="1" stop-color="#E03131"/>
</linearGradient>
<linearGradient id="paint6_linear_46_7172" x1="91.2016" y1="25.3067" x2="91.2016" y2="47.8479" gradientUnits="userSpaceOnUse">
<stop offset="0.588542" stop-color="#FD7575"/>
<stop offset="1" stop-color="#E03131"/>
</linearGradient>
<linearGradient id="paint7_linear_46_7172" x1="91.1952" y1="44.1319" x2="91.1952" y2="66.6731" gradientUnits="userSpaceOnUse">
<stop offset="0.588542" stop-color="#FD7575"/>
<stop offset="1" stop-color="#E03131"/>
</linearGradient>
<linearGradient id="paint8_linear_46_7172" x1="91.208" y1="34.7198" x2="91.208" y2="57.261" gradientUnits="userSpaceOnUse">
<stop offset="0.588542" stop-color="#FD7575"/>
<stop offset="1" stop-color="#E03131"/>
</linearGradient>
<linearGradient id="paint9_linear_46_7172" x1="88.5365" y1="35.0685" x2="88.5365" y2="91.6884" gradientUnits="userSpaceOnUse">
<stop offset="0.588542" stop-color="#FD7575"/>
<stop offset="1" stop-color="#E03131"/>
</linearGradient>
<linearGradient id="paint10_linear_46_7172" x1="88.5367" y1="32.0406" x2="88.5367" y2="92.4724" gradientUnits="userSpaceOnUse">
<stop offset="0.588542" stop-color="#FD7575"/>
<stop offset="1" stop-color="#E03131"/>
</linearGradient>
<linearGradient id="paint11_linear_46_7172" x1="88.5367" y1="32.0406" x2="88.5367" y2="92.4724" gradientUnits="userSpaceOnUse">
<stop offset="0.588542" stop-color="#FD7575"/>
<stop offset="1" stop-color="#E03131"/>
</linearGradient>
<linearGradient id="paint12_linear_46_7172" x1="103.874" y1="67.8888" x2="103.874" y2="93.9116" gradientUnits="userSpaceOnUse">
<stop offset="0.588542" stop-color="#FD7575"/>
<stop offset="1" stop-color="#E03131"/>
</linearGradient>
<linearGradient id="paint13_linear_46_7172" x1="43.8586" y1="-11.8755" x2="43.8586" y2="89.1916" gradientUnits="userSpaceOnUse">
<stop offset="0.588542" stop-color="#FD7575"/>
<stop offset="1" stop-color="#E03131"/>
</linearGradient>
<linearGradient id="paint14_linear_46_7172" x1="43.8581" y1="-14.278" x2="43.8581" y2="90.6129" gradientUnits="userSpaceOnUse">
<stop offset="0.588542" stop-color="#FD7575"/>
<stop offset="1" stop-color="#E03131"/>
</linearGradient>
<linearGradient id="paint15_linear_46_7172" x1="43.8581" y1="-14.278" x2="43.8581" y2="90.6129" gradientUnits="userSpaceOnUse">
<stop offset="0.588542" stop-color="#FD7575"/>
<stop offset="1" stop-color="#E03131"/>
</linearGradient>
<clipPath id="clip0_46_7172">
<rect width="95" height="96" fill="white" transform="translate(18)"/>
</clipPath>
</defs>
</svg>
