<svg width="130" height="96" viewBox="0 0 130 96" fill="none" xmlns="http://www.w3.org/2000/svg">
<g clip-path="url(#clip0_46_7158)">
<path d="M14.2428 53.915H7.7207V57.7515H14.2428V53.915Z" stroke="url(#paint0_linear_46_7158)" stroke-width="1.5" stroke-linecap="round" stroke-linejoin="round"/>
<path d="M19.1031 66.4486L14.2429 58.0986H7.78655L2.89648 66.3144L19.1031 66.4486Z" fill="#FFF9DB" stroke="url(#paint1_linear_46_7158)" stroke-width="1.5" stroke-linecap="round" stroke-linejoin="round"/>
<path d="M19.0793 86.1562H2.93848V94.0854H19.0793V86.1562Z" fill="#FFF9DB" stroke="url(#paint2_linear_46_7158)" stroke-width="1.5" stroke-linecap="round" stroke-linejoin="round"/>
<path d="M19.0793 66.0283H2.93848V74.5674H19.0793V66.0283Z" fill="#FFF9DB" stroke="url(#paint3_linear_46_7158)" stroke-width="1.5" stroke-linecap="round" stroke-linejoin="round"/>
<path d="M18.4813 74.5674H3.53613V86.1561H18.4813V74.5674Z" fill="#FFF9DB" stroke="url(#paint4_linear_46_7158)" stroke-width="1.5" stroke-linecap="round" stroke-linejoin="round"/>
</g>
<g clip-path="url(#clip1_46_7158)">
<path d="M37.2428 53.915H30.7207V57.7515H37.2428V53.915Z" stroke="url(#paint5_linear_46_7158)" stroke-width="1.5" stroke-linecap="round" stroke-linejoin="round"/>
<path d="M42.1031 66.4486L37.2429 58.0986H30.7866L25.8965 66.3144L42.1031 66.4486Z" fill="#FFF9DB" stroke="url(#paint6_linear_46_7158)" stroke-width="1.5" stroke-linecap="round" stroke-linejoin="round"/>
<path d="M42.0793 86.1562H25.9385V94.0854H42.0793V86.1562Z" fill="#FFF9DB" stroke="url(#paint7_linear_46_7158)" stroke-width="1.5" stroke-linecap="round" stroke-linejoin="round"/>
<path d="M42.0793 66.0283H25.9385V74.5674H42.0793V66.0283Z" fill="#FFF9DB" stroke="url(#paint8_linear_46_7158)" stroke-width="1.5" stroke-linecap="round" stroke-linejoin="round"/>
<path d="M41.4813 74.5674H26.5361V86.1561H41.4813V74.5674Z" fill="#FFF9DB" stroke="url(#paint9_linear_46_7158)" stroke-width="1.5" stroke-linecap="round" stroke-linejoin="round"/>
</g>
<path d="M12.22 31.92C12.22 32.5733 12.08 33.14 11.8 33.62C11.5333 34.1 11.1667 34.4933 10.7 34.8C10.2467 35.1067 9.72667 35.3333 9.14 35.48V35.54C10.2867 35.6733 11.1533 36.02 11.74 36.58C12.34 37.14 12.64 37.8933 12.64 38.84C12.64 39.6667 12.4333 40.4133 12.02 41.08C11.62 41.7333 10.9933 42.2533 10.14 42.64C9.3 43.0133 8.21333 43.2 6.88 43.2C6.09333 43.2 5.36 43.1333 4.68 43C4 42.8667 3.36 42.6733 2.76 42.42V39.86C3.37333 40.1667 4.01333 40.4 4.68 40.56C5.36 40.72 5.98667 40.8 6.56 40.8C7.64 40.8 8.39333 40.6133 8.82 40.24C9.26 39.8667 9.48 39.34 9.48 38.66C9.48 38.26 9.38 37.9267 9.18 37.66C8.98 37.38 8.62667 37.1733 8.12 37.04C7.62667 36.8933 6.93333 36.82 6.04 36.82H4.96V34.5H6.06C6.94 34.5 7.60667 34.42 8.06 34.26C8.52667 34.0867 8.84 33.86 9 33.58C9.17333 33.2867 9.26 32.9533 9.26 32.58C9.26 32.0733 9.1 31.68 8.78 31.4C8.47333 31.1067 7.95333 30.96 7.22 30.96C6.76667 30.96 6.35333 31.02 5.98 31.14C5.60667 31.2467 5.26667 31.38 4.96 31.54C4.66667 31.7 4.40667 31.8533 4.18 32L2.78 29.92C3.15333 29.6533 3.56667 29.4133 4.02 29.2C4.48667 28.9867 5 28.82 5.56 28.7C6.12 28.58 6.74667 28.52 7.44 28.52C8.90667 28.52 10.0667 28.82 10.92 29.42C11.7867 30.0067 12.22 30.84 12.22 31.92ZM23.7453 35.86C23.7453 37.0067 23.652 38.0333 23.4653 38.94C23.292 39.8467 23.0053 40.62 22.6053 41.26C22.2186 41.8867 21.7053 42.3667 21.0653 42.7C20.4386 43.0333 19.6653 43.2 18.7453 43.2C17.5986 43.2 16.6586 42.9067 15.9253 42.32C15.192 41.7333 14.6453 40.8933 14.2853 39.8C13.9386 38.7067 13.7653 37.3933 13.7653 35.86C13.7653 34.3133 13.9253 32.9933 14.2453 31.9C14.5653 30.8067 15.092 29.9667 15.8253 29.38C16.5586 28.7933 17.532 28.5 18.7453 28.5C19.892 28.5 20.832 28.7933 21.5653 29.38C22.2986 29.9533 22.8453 30.7933 23.2053 31.9C23.5653 32.9933 23.7453 34.3133 23.7453 35.86ZM16.7653 35.86C16.7653 36.94 16.8253 37.8467 16.9453 38.58C17.0653 39.3 17.2653 39.8467 17.5453 40.22C17.8386 40.58 18.2386 40.76 18.7453 40.76C19.252 40.76 19.6453 40.58 19.9253 40.22C20.2186 39.86 20.4253 39.32 20.5453 38.6C20.6786 37.8667 20.7453 36.9533 20.7453 35.86C20.7453 34.7667 20.6786 33.86 20.5453 33.14C20.4253 32.4067 20.2186 31.86 19.9253 31.5C19.6453 31.1267 19.252 30.94 18.7453 30.94C18.2386 30.94 17.8386 31.1267 17.5453 31.5C17.2653 31.86 17.0653 32.4067 16.9453 33.14C16.8253 33.86 16.7653 34.7667 16.7653 35.86ZM28.0706 28.52C29.1906 28.52 30.0373 28.9133 30.6106 29.7C31.1973 30.4733 31.4906 31.5667 31.4906 32.98C31.4906 34.3933 31.2173 35.5 30.6706 36.3C30.124 37.0867 29.2573 37.48 28.0706 37.48C27.3373 37.48 26.7173 37.3 26.2106 36.94C25.7173 36.58 25.344 36.0667 25.0906 35.4C24.8373 34.72 24.7106 33.9133 24.7106 32.98C24.7106 31.5667 24.9773 30.4733 25.5106 29.7C26.044 28.9133 26.8973 28.52 28.0706 28.52ZM28.0906 30.56C27.7706 30.56 27.5373 30.76 27.3906 31.16C27.244 31.56 27.1706 32.1733 27.1706 33C27.1706 33.8133 27.244 34.4267 27.3906 34.84C27.5373 35.2533 27.7706 35.46 28.0906 35.46C28.4106 35.46 28.644 35.2533 28.7906 34.84C28.9506 34.4267 29.0306 33.8133 29.0306 33C29.0306 32.1733 28.9506 31.56 28.7906 31.16C28.644 30.76 28.4106 30.56 28.0906 30.56ZM38.2106 28.72L30.2906 43H27.9506L35.8706 28.72H38.2106ZM38.0706 34.22C38.8173 34.22 39.444 34.4 39.9506 34.76C40.4573 35.1067 40.8373 35.6133 41.0906 36.28C41.3573 36.9333 41.4906 37.7333 41.4906 38.68C41.4906 40.0933 41.2173 41.2 40.6706 42C40.124 42.7867 39.2573 43.18 38.0706 43.18C37.3373 43.18 36.7173 43 36.2106 42.64C35.7173 42.28 35.344 41.7667 35.0906 41.1C34.8373 40.42 34.7106 39.6133 34.7106 38.68C34.7106 37.2667 34.9773 36.1733 35.5106 35.4C36.044 34.6133 36.8973 34.22 38.0706 34.22ZM38.0906 36.26C37.7706 36.26 37.5373 36.46 37.3906 36.86C37.244 37.26 37.1706 37.8733 37.1706 38.7C37.1706 39.5133 37.244 40.1267 37.3906 40.54C37.5373 40.9533 37.7706 41.16 38.0906 41.16C38.4106 41.16 38.644 40.96 38.7906 40.56C38.9506 40.1467 39.0306 39.5267 39.0306 38.7C39.0306 37.8733 38.9506 37.26 38.7906 36.86C38.644 36.46 38.4106 36.26 38.0906 36.26Z" fill="url(#paint10_linear_46_7158)"/>
<g clip-path="url(#clip2_46_7158)">
<path d="M41.0059 11.2861V15.9798" stroke="#CECECE" stroke-linecap="round" stroke-linejoin="round"/>
<path d="M41.0059 1.63281V6.31384" stroke="#CECECE" stroke-linecap="round" stroke-linejoin="round"/>
<path d="M43.4854 8.80664H48.179" stroke="#CECECE" stroke-linecap="round" stroke-linejoin="round"/>
<path d="M33.832 8.80664H38.5131" stroke="#CECECE" stroke-linecap="round" stroke-linejoin="round"/>
<path d="M48.1787 31.2363V34.7534" stroke="#CECECE" stroke-linecap="round" stroke-linejoin="round"/>
<path d="M48.1787 23.9873V27.5044" stroke="#CECECE" stroke-linecap="round" stroke-linejoin="round"/>
<path d="M50.0381 29.377H53.5552" stroke="#CECECE" stroke-linecap="round" stroke-linejoin="round"/>
<path d="M42.8018 29.377H46.3062" stroke="#CECECE" stroke-linecap="round" stroke-linejoin="round"/>
<path d="M90.1562 66.458V69.9751" stroke="#CECECE" stroke-linecap="round" stroke-linejoin="round"/>
<path d="M90.1562 59.2217V62.7388" stroke="#CECECE" stroke-linecap="round" stroke-linejoin="round"/>
<path d="M92.0156 64.5986H95.5327" stroke="#CECECE" stroke-linecap="round" stroke-linejoin="round"/>
<path d="M84.7666 64.5986H88.2837" stroke="#CECECE" stroke-linecap="round" stroke-linejoin="round"/>
<path d="M69.4199 16.3594V18.6999" stroke="#CECECE" stroke-linecap="round" stroke-linejoin="round"/>
<path d="M69.4199 11.5264V13.8669" stroke="#CECECE" stroke-linecap="round" stroke-linejoin="round"/>
<path d="M70.6602 15.1191H73.0133" stroke="#CECECE" stroke-linecap="round" stroke-linejoin="round"/>
<path d="M65.8398 15.1191H68.1804" stroke="#CECECE" stroke-linecap="round" stroke-linejoin="round"/>
<path d="M103.427 74.3906V76.7311" stroke="#FFEC99" stroke-linecap="round" stroke-linejoin="round"/>
<path d="M103.427 69.5576V71.9108" stroke="#FFEC99" stroke-linecap="round" stroke-linejoin="round"/>
<path d="M104.68 73.1504H107.02" stroke="#FFEC99" stroke-linecap="round" stroke-linejoin="round"/>
<path d="M99.8467 73.1504H102.187" stroke="#FFEC99" stroke-linecap="round" stroke-linejoin="round"/>
<path d="M126.035 25.4681H108.588C108.272 25.4681 107.969 25.3416 107.741 25.1138L104.224 21.5968C103.996 21.369 103.692 21.2425 103.376 21.2425H100.858C100.188 21.2425 99.6566 20.6985 99.6566 20.0406V14.0186H94.2291C93.5586 14.0186 93.0272 14.5626 93.0272 15.2204V20.0406C93.0272 20.7112 92.4832 21.2425 91.8253 21.2425H89.8644C89.5734 21.2425 89.2951 21.3437 89.0673 21.5461L84.9303 25.1645C84.7153 25.3542 84.4243 25.4681 84.1333 25.4681H75.6189C75.6189 25.4681 75.543 25.4681 75.4924 25.4681C74.3917 25.3542 58.1093 24.2029 59.1214 52.0361H72.9874C72.9368 48.5569 73.329 43.1548 76.1502 42.3451C79.9836 41.2444 84.3231 41.6492 85.0695 44.4579C85.2087 44.9892 85.6894 45.3561 86.2334 45.3561H106.273C106.944 45.3561 107.475 44.8121 107.475 44.1542C107.475 43.4963 108.019 42.9523 108.677 42.9523H126.022" fill="white"/>
<path d="M72.9999 52.972H59.1466C58.6405 52.972 58.223 52.5672 58.2104 52.0738C57.8055 40.9532 60.0575 32.9954 64.9156 28.4409C69.5587 24.0762 75.0114 24.481 75.606 24.5443H84.1584C84.2217 24.5443 84.2849 24.519 84.3355 24.481L88.4725 20.8627C88.8647 20.5211 89.3708 20.3314 89.8895 20.3314H91.8505C92.0023 20.3314 92.1161 20.2175 92.1161 20.0657V15.2455C92.1161 14.0689 93.0776 13.1074 94.2542 13.1074H99.6817C100.2 13.1074 100.618 13.5249 100.618 14.0436V20.0657C100.618 20.2175 100.732 20.3314 100.884 20.3314H103.401C103.971 20.3314 104.515 20.5591 104.919 20.9639L108.436 24.481C108.436 24.481 108.55 24.557 108.626 24.557H126.073C126.591 24.557 127.009 24.9744 127.009 25.4932C127.009 26.0119 126.591 26.4294 126.073 26.4294H108.626C108.057 26.4294 107.513 26.2016 107.108 25.7968L103.591 22.2797C103.591 22.2797 103.477 22.2038 103.401 22.2038H100.884C99.707 22.2038 98.7455 21.2423 98.7455 20.0657V14.9798H94.2669C94.1151 14.9798 94.0012 15.0937 94.0012 15.2455V20.0657C94.0012 21.2423 93.0397 22.2038 91.8631 22.2038H89.9021C89.8389 22.2038 89.7756 22.2291 89.725 22.267L85.588 25.8853C85.1958 26.2269 84.6898 26.4167 84.171 26.4167H75.6567C75.6567 26.4167 75.4669 26.4167 75.4416 26.4167C74.9102 26.3661 70.2545 26.0245 66.2187 29.8199C61.9046 33.8684 59.8424 41.0291 60.0828 51.1123H72.089C72.1269 47.0006 72.886 42.3322 75.935 41.4592C79.0472 40.5736 82.1595 40.6748 84.0445 41.7502C85.0693 42.3322 85.7525 43.1925 86.0308 44.2299C86.0688 44.3438 86.17 44.4323 86.2838 44.4323H106.324C106.475 44.4323 106.589 44.3185 106.589 44.1666C106.589 42.9901 107.551 42.0286 108.727 42.0286H126.073C126.591 42.0286 127.009 42.446 127.009 42.9648C127.009 43.4835 126.591 43.901 126.073 43.901H108.727C108.576 43.901 108.462 44.0148 108.462 44.1666C108.462 45.3432 107.5 46.3047 106.324 46.3047H86.2838C85.3223 46.3047 84.462 45.6469 84.2217 44.7106C84.0698 44.154 83.7156 43.7112 83.121 43.3823C81.6787 42.5599 79.0599 42.522 76.4537 43.2684C74.8217 43.7365 73.8981 47.0132 73.974 52.0358C73.974 52.2888 73.8855 52.5292 73.7083 52.7063C73.5312 52.8835 73.2908 52.9847 73.0378 52.9847L72.9999 52.972Z" fill="url(#paint11_linear_46_7158)" stroke="url(#paint12_linear_46_7158)"/>
<path d="M82.6534 23.5195H79.111C78.1328 23.5195 77.3398 24.3125 77.3398 25.2907V43.0154C77.3398 43.9936 78.1328 44.7866 79.111 44.7866H82.6534C83.6316 44.7866 84.4246 43.9936 84.4246 43.0154V25.2907C84.4246 24.3125 83.6316 23.5195 82.6534 23.5195Z" fill="white"/>
<path d="M82.5519 25.4043H79.2119V42.9139H82.5519V25.4043Z" fill="#FFEC99"/>
<path d="M82.6531 45.7225H79.1107C77.6179 45.7225 76.4033 44.5079 76.4033 43.0151V25.3031C76.4033 23.8102 77.6179 22.5957 79.1107 22.5957H82.6531C84.146 22.5957 85.3605 23.8102 85.3605 25.3031V43.0151C85.3605 44.5079 84.146 45.7225 82.6531 45.7225ZM79.1107 24.4555C78.6553 24.4555 78.2757 24.835 78.2757 25.2905V43.0024C78.2757 43.4579 78.6553 43.8374 79.1107 43.8374H82.6531C83.1086 43.8374 83.4881 43.4579 83.4881 43.0024V25.2905C83.4881 24.835 83.1086 24.4555 82.6531 24.4555H79.1107Z" fill="url(#paint13_linear_46_7158)" stroke="url(#paint14_linear_46_7158)"/>
<path d="M113.144 23.5195H109.601C108.623 23.5195 107.83 24.3125 107.83 25.2907V43.0154C107.83 43.9936 108.623 44.7866 109.601 44.7866H113.144C114.122 44.7866 114.915 43.9936 114.915 43.0154V25.2907C114.915 24.3125 114.122 23.5195 113.144 23.5195Z" fill="white"/>
<path d="M113.042 25.4043H109.702V42.9139H113.042V25.4043Z" fill="#FFEC99"/>
<path d="M113.143 45.7225H109.601C108.108 45.7225 106.894 44.5079 106.894 43.0151V25.3031C106.894 23.8102 108.108 22.5957 109.601 22.5957H113.143C114.636 22.5957 115.851 23.8102 115.851 25.3031V43.0151C115.851 44.5079 114.636 45.7225 113.143 45.7225ZM109.601 24.4555C109.146 24.4555 108.766 24.835 108.766 25.2905V43.0024C108.766 43.4579 109.146 43.8374 109.601 43.8374H113.143C113.599 43.8374 113.978 43.4579 113.978 43.0024V25.2905C113.978 24.835 113.599 24.4555 113.143 24.4555H109.601Z" fill="url(#paint15_linear_46_7158)" stroke="url(#paint16_linear_46_7158)"/>
<path d="M106.918 9.14746H86.3599C85.8289 9.14746 85.3984 9.57794 85.3984 10.109V14.2333C85.3984 14.7644 85.8289 15.1948 86.3599 15.1948H106.918C107.45 15.1948 107.88 14.7644 107.88 14.2333V10.109C107.88 9.57794 107.45 9.14746 106.918 9.14746Z" fill="white"/>
<path d="M106.007 11.0322H87.2705V13.3221H106.007V11.0322Z" fill="#FFEC99"/>
<path d="M106.918 16.1307H86.3723C85.3222 16.1307 84.4619 15.2704 84.4619 14.2203V10.1086C84.4619 9.05854 85.3222 8.19824 86.3723 8.19824H106.918C107.968 8.19824 108.829 9.05854 108.829 10.1086V14.2203C108.829 15.2704 107.968 16.1307 106.918 16.1307V16.1307ZM86.3723 10.0833L86.347 14.2203L106.931 14.2456L106.956 10.1086L106.931 10.0833H86.3849H86.3723Z" fill="url(#paint17_linear_46_7158)" stroke="url(#paint18_linear_46_7158)"/>
<path d="M79.9461 79.9185C79.4527 69.5064 68.0411 57.1839 67.5604 56.6652L66.2826 55.2988L65.0048 56.6652C64.524 57.1839 53.0998 69.5064 52.6191 79.9185L52.5938 80.6017C52.5938 88.0154 58.7297 94.0375 66.2826 94.0375C73.8355 94.0375 79.9588 88.0027 79.9588 80.6017C79.9588 80.3739 79.9588 80.1462 79.9335 79.9058L79.9461 79.9185Z" fill="white" stroke="url(#paint19_linear_46_7158)"/>
<path d="M66.2823 94.9992C58.2233 94.9992 51.6572 88.547 51.6572 80.6145L51.6825 79.9061C52.1886 69.1524 63.8279 56.5642 64.3213 56.0328L65.5991 54.6665C65.9533 54.287 66.6112 54.287 66.9654 54.6665L68.2432 56.0328C68.7366 56.5642 80.3759 69.1397 80.882 79.8808C80.8946 80.1338 80.9073 80.3868 80.9073 80.6272C80.9073 88.5596 74.3539 95.0118 66.2823 95.0118V94.9992ZM66.2823 56.6907L65.6876 57.3233C65.2069 57.8293 54.023 69.9241 53.5549 79.982L53.5296 80.6525C53.5296 87.5222 59.2481 93.1268 66.2823 93.1268C73.3164 93.1268 79.0222 87.5222 79.0222 80.6272C79.0222 80.4248 79.0222 80.2097 78.9969 79.982C78.5288 69.9114 67.345 57.8293 66.8642 57.3233L66.2696 56.6907H66.2823Z" fill="url(#paint20_linear_46_7158)" stroke="url(#paint21_linear_46_7158)"/>
<path d="M77.0232 80.058C76.6563 72.2521 68.901 62.6623 66.2821 59.626C62.2843 64.1805 55.8827 73.1124 55.5537 80.058V80.7032C55.5411 86.409 60.3613 91.128 66.2948 91.128C72.2283 91.128 77.0485 86.409 77.0485 80.6147C77.0485 80.4376 77.0485 80.2731 77.0358 80.0833V80.058H77.0232Z" fill="#FFEC99"/>
</g>
<defs>
<linearGradient id="paint0_linear_46_7158" x1="10.9817" y1="49.7877" x2="10.9817" y2="57.4318" gradientUnits="userSpaceOnUse">
<stop offset="0.463542" stop-color="#FFC71C"/>
<stop offset="1" stop-color="#FAB607"/>
</linearGradient>
<linearGradient id="paint1_linear_46_7158" x1="10.9998" y1="49.1156" x2="10.9998" y2="65.7528" gradientUnits="userSpaceOnUse">
<stop offset="0.463542" stop-color="#FFC71C"/>
<stop offset="1" stop-color="#FAB607"/>
</linearGradient>
<linearGradient id="paint2_linear_46_7158" x1="11.0089" y1="77.626" x2="11.0089" y2="93.4246" gradientUnits="userSpaceOnUse">
<stop offset="0.463542" stop-color="#FFC71C"/>
<stop offset="1" stop-color="#FAB607"/>
</linearGradient>
<linearGradient id="paint3_linear_46_7158" x1="11.0089" y1="56.8419" x2="11.0089" y2="73.8558" gradientUnits="userSpaceOnUse">
<stop offset="0.463542" stop-color="#FFC71C"/>
<stop offset="1" stop-color="#FAB607"/>
</linearGradient>
<linearGradient id="paint4_linear_46_7158" x1="11.0087" y1="62.1001" x2="11.0087" y2="85.1904" gradientUnits="userSpaceOnUse">
<stop offset="0.463542" stop-color="#FFC71C"/>
<stop offset="1" stop-color="#FAB607"/>
</linearGradient>
<linearGradient id="paint5_linear_46_7158" x1="33.9817" y1="49.7877" x2="33.9817" y2="57.4318" gradientUnits="userSpaceOnUse">
<stop offset="0.463542" stop-color="#FFC71C"/>
<stop offset="1" stop-color="#FAB607"/>
</linearGradient>
<linearGradient id="paint6_linear_46_7158" x1="33.9998" y1="49.1156" x2="33.9998" y2="65.7528" gradientUnits="userSpaceOnUse">
<stop offset="0.463542" stop-color="#FFC71C"/>
<stop offset="1" stop-color="#FAB607"/>
</linearGradient>
<linearGradient id="paint7_linear_46_7158" x1="34.0089" y1="77.626" x2="34.0089" y2="93.4246" gradientUnits="userSpaceOnUse">
<stop offset="0.463542" stop-color="#FFC71C"/>
<stop offset="1" stop-color="#FAB607"/>
</linearGradient>
<linearGradient id="paint8_linear_46_7158" x1="34.0089" y1="56.8419" x2="34.0089" y2="73.8558" gradientUnits="userSpaceOnUse">
<stop offset="0.463542" stop-color="#FFC71C"/>
<stop offset="1" stop-color="#FAB607"/>
</linearGradient>
<linearGradient id="paint9_linear_46_7158" x1="34.0087" y1="62.1001" x2="34.0087" y2="85.1904" gradientUnits="userSpaceOnUse">
<stop offset="0.463542" stop-color="#FFC71C"/>
<stop offset="1" stop-color="#FAB607"/>
</linearGradient>
<linearGradient id="paint10_linear_46_7158" x1="22.5" y1="3.48375" x2="22.5" y2="43.3333" gradientUnits="userSpaceOnUse">
<stop offset="0.463542" stop-color="#FFC71C"/>
<stop offset="1" stop-color="#FAB607"/>
</linearGradient>
<linearGradient id="paint11_linear_46_7158" x1="92.5864" y1="-29.793" x2="92.5864" y2="49.6616" gradientUnits="userSpaceOnUse">
<stop offset="0.463542" stop-color="#FFC71C"/>
<stop offset="1" stop-color="#FAB607"/>
</linearGradient>
<linearGradient id="paint12_linear_46_7158" x1="92.5864" y1="-29.793" x2="92.5864" y2="49.6616" gradientUnits="userSpaceOnUse">
<stop offset="0.463542" stop-color="#FFC71C"/>
<stop offset="1" stop-color="#FAB607"/>
</linearGradient>
<linearGradient id="paint13_linear_46_7158" x1="80.8819" y1="-2.28437" x2="80.8819" y2="43.7952" gradientUnits="userSpaceOnUse">
<stop offset="0.463542" stop-color="#FFC71C"/>
<stop offset="1" stop-color="#FAB607"/>
</linearGradient>
<linearGradient id="paint14_linear_46_7158" x1="80.8819" y1="-2.28437" x2="80.8819" y2="43.7952" gradientUnits="userSpaceOnUse">
<stop offset="0.463542" stop-color="#FFC71C"/>
<stop offset="1" stop-color="#FAB607"/>
</linearGradient>
<linearGradient id="paint15_linear_46_7158" x1="111.372" y1="-2.28437" x2="111.372" y2="43.7952" gradientUnits="userSpaceOnUse">
<stop offset="0.463542" stop-color="#FFC71C"/>
<stop offset="1" stop-color="#FAB607"/>
</linearGradient>
<linearGradient id="paint16_linear_46_7158" x1="111.372" y1="-2.28437" x2="111.372" y2="43.7952" gradientUnits="userSpaceOnUse">
<stop offset="0.463542" stop-color="#FFC71C"/>
<stop offset="1" stop-color="#FAB607"/>
</linearGradient>
<linearGradient id="paint17_linear_46_7158" x1="96.6452" y1="-0.33557" x2="96.6452" y2="15.4696" gradientUnits="userSpaceOnUse">
<stop offset="0.463542" stop-color="#FFC71C"/>
<stop offset="1" stop-color="#FAB607"/>
</linearGradient>
<linearGradient id="paint18_linear_46_7158" x1="96.6452" y1="-0.33557" x2="96.6452" y2="15.4696" gradientUnits="userSpaceOnUse">
<stop offset="0.463542" stop-color="#FFC71C"/>
<stop offset="1" stop-color="#FAB607"/>
</linearGradient>
<linearGradient id="paint19_linear_46_7158" x1="66.2763" y1="13.6233" x2="66.2763" y2="90.8092" gradientUnits="userSpaceOnUse">
<stop offset="0.463542" stop-color="#FFC71C"/>
<stop offset="1" stop-color="#FAB607"/>
</linearGradient>
<linearGradient id="paint20_linear_46_7158" x1="66.2823" y1="10.6716" x2="66.2823" y2="91.626" gradientUnits="userSpaceOnUse">
<stop offset="0.463542" stop-color="#FFC71C"/>
<stop offset="1" stop-color="#FAB607"/>
</linearGradient>
<linearGradient id="paint21_linear_46_7158" x1="66.2823" y1="10.6716" x2="66.2823" y2="91.626" gradientUnits="userSpaceOnUse">
<stop offset="0.463542" stop-color="#FFC71C"/>
<stop offset="1" stop-color="#FAB607"/>
</linearGradient>
<clipPath id="clip0_46_7158">
<rect width="18" height="42" fill="white" transform="translate(2 53)"/>
</clipPath>
<clipPath id="clip1_46_7158">
<rect width="18" height="42" fill="white" transform="translate(25 53)"/>
</clipPath>
<clipPath id="clip2_46_7158">
<rect width="94" height="95" fill="white" transform="translate(33.1992 1)"/>
</clipPath>
</defs>
</svg>
