<svg width="146" height="145" viewBox="0 0 146 145" fill="none" xmlns="http://www.w3.org/2000/svg">
<g opacity="0.2">
<path d="M132.658 76.1816H111.334C112.95 74.0337 113.909 71.3655 113.909 68.4766V25.8418C113.909 18.7608 108.148 13 101.067 13H91.3076C89.8891 13 88.7393 14.1501 88.7393 15.5684C88.7393 16.9866 89.8891 18.1367 91.3076 18.1367H101.067C105.316 18.1367 108.772 21.5932 108.772 25.8418V68.4766C108.772 72.7251 105.316 76.1816 101.067 76.1816H58.4326C54.184 76.1816 50.7275 72.7251 50.7275 68.4766V25.8418C50.7275 21.5932 54.184 18.1367 58.4326 18.1367H68.1924C69.6109 18.1367 70.7607 16.9866 70.7607 15.5684C70.7607 14.1501 69.6109 13 68.1924 13H58.4326C51.3517 13 45.5908 18.7608 45.5908 25.8418V68.4766C45.5908 71.3655 46.5501 74.0337 48.1661 76.1816H26.8418C19.7608 76.1816 14 81.9425 14 89.0234V131.658C14 138.739 19.7608 144.5 26.8418 144.5H69.4766C73.673 144.5 77.4051 142.477 79.75 139.354C82.0949 142.477 85.827 144.5 90.0234 144.5H132.658C139.739 144.5 145.5 138.739 145.5 131.658V89.0234C145.5 81.9425 139.739 76.1816 132.658 76.1816ZM69.4766 139.363H26.8418C22.5932 139.363 19.1367 135.907 19.1367 131.658V89.0234C19.1367 84.7749 22.5932 81.3184 26.8418 81.3184H69.4766C73.7251 81.3184 77.1816 84.7749 77.1816 89.0234V131.658C77.1816 135.907 73.7251 139.363 69.4766 139.363ZM140.363 131.658C140.363 135.907 136.907 139.363 132.658 139.363H90.0234C85.7749 139.363 82.3184 135.907 82.3184 131.658V89.0234C82.3184 84.7749 85.7749 81.3184 90.0234 81.3184H132.658C136.907 81.3184 140.363 84.7749 140.363 89.0234V131.658Z" fill="white"/>
<path d="M131.888 87.2256H90.7939C89.3754 87.2256 88.2256 88.3757 88.2256 89.7939V130.888C88.2256 132.306 89.3754 133.456 90.7939 133.456H131.888C133.306 133.456 134.456 132.306 134.456 130.888V89.7939C134.456 88.3757 133.306 87.2256 131.888 87.2256ZM129.319 128.319H93.3623V92.3623H129.319V128.319Z" fill="white"/>
<path d="M68.7061 87.2256H27.6123C26.1938 87.2256 25.0439 88.3757 25.0439 89.7939V130.888C25.0439 132.306 26.1938 133.456 27.6123 133.456H68.7061C70.1246 133.456 71.2744 132.306 71.2744 130.888V89.7939C71.2744 88.3757 70.1246 87.2256 68.7061 87.2256ZM66.1377 128.319H30.1807V92.3623H66.1377V128.319Z" fill="white"/>
<path d="M56.6348 26.6123V67.7061C56.6348 69.1243 57.7846 70.2744 59.2031 70.2744H100.297C101.715 70.2744 102.865 69.1243 102.865 67.7061V26.6123C102.865 25.1941 101.715 24.0439 100.297 24.0439H59.2031C57.7846 24.0439 56.6348 25.1941 56.6348 26.6123ZM61.7715 29.1807H97.7285V65.1377H61.7715V29.1807Z" fill="white"/>
<path d="M81.8952 34.5537H77.6045C76.186 34.5537 75.0361 35.7038 75.0361 37.1221C75.0361 38.5403 76.186 39.6904 77.6045 39.6904H79.3268V57.1969C79.3268 58.6151 80.4767 59.7652 81.8952 59.7652C83.3137 59.7652 84.4636 58.6151 84.4636 57.1969V37.1221C84.4636 35.7036 83.3137 34.5537 81.8952 34.5537V34.5537Z" fill="white"/>
<path d="M42.1643 106.823C43.5556 107.096 44.9063 106.19 45.1796 104.798C45.4138 103.606 46.4681 102.741 47.6868 102.741C49.1259 102.741 50.2418 104.114 50.2418 105.296C50.2418 106.311 49.3018 107.775 48.4828 108.938C42.1556 117.92 41.4033 118.965 41.3753 119.003C40.8093 119.785 40.7294 120.818 41.1681 121.677C41.6067 122.537 42.4905 123.078 43.4555 123.078H53.6588C55.0773 123.078 56.2271 121.928 56.2271 120.509C56.2271 119.091 55.0773 117.941 53.6588 117.941H48.4203C49.4428 116.492 50.8225 114.536 52.682 111.896C54.0826 109.908 55.3783 107.733 55.3783 105.296C55.3783 101.127 51.8558 97.604 47.6866 97.604C44.0195 97.604 40.8452 100.213 40.1389 103.808C39.8657 105.199 40.7725 106.55 42.1643 106.823V106.823Z" fill="white"/>
<path d="M109.998 118.282C108.724 118.282 107.63 117.333 107.455 116.074C107.438 115.957 107.43 115.835 107.43 115.713C107.43 114.295 106.28 113.145 104.861 113.145C103.443 113.145 102.293 114.295 102.293 115.713C102.293 116.072 102.318 116.433 102.367 116.785C102.895 120.567 106.176 123.418 109.998 123.418C114.247 123.418 117.703 119.962 117.703 115.713C117.703 113.741 116.958 111.941 115.735 110.577C116.958 109.212 117.703 107.412 117.703 105.44C117.703 101.191 114.247 97.7349 109.998 97.7349C106.325 97.7349 103.145 100.348 102.437 103.949C102.164 105.341 103.071 106.691 104.462 106.965C105.854 107.237 107.204 106.331 107.478 104.939C107.713 103.741 108.773 102.871 109.998 102.871C111.414 102.871 112.566 104.023 112.566 105.44C112.566 106.856 111.414 108.008 109.998 108.008C108.58 108.008 107.43 109.158 107.43 110.576C107.43 111.995 108.58 113.145 109.998 113.145C111.414 113.145 112.566 114.297 112.566 115.713C112.566 117.129 111.414 118.282 109.998 118.282Z" fill="white"/>
<path d="M79.75 18.1367C80.4255 18.1367 81.0881 17.8619 81.5658 17.3839C82.0435 16.9065 82.3184 16.2438 82.3184 15.5684C82.3184 14.8929 82.0435 14.2302 81.5658 13.7525C81.0881 13.2748 80.4255 13 79.75 13C79.0745 13 78.4119 13.2746 77.9342 13.7525C77.4565 14.2302 77.1816 14.8929 77.1816 15.5684C77.1816 16.2438 77.4565 16.9065 77.9342 17.3839C78.4119 17.8619 79.0745 18.1367 79.75 18.1367Z" fill="white"/>
</g>
</svg>
