<svg width="20" height="13" viewBox="0 0 20 13" fill="none" xmlns="http://www.w3.org/2000/svg">
<path d="M20 6.18894C20 6.23858 20 6.28822 19.9938 6.33166C19.969 6.55504 19.8759 6.77221 19.7146 6.95216C19.696 6.97698 19.6773 6.99559 19.6525 7.01421L15.005 11.6617C14.552 12.1147 13.8136 12.1147 13.3607 11.6617C12.9077 11.2088 12.9077 10.4704 13.3607 10.0174L16.0288 7.34928L1.16654 7.34928C0.521219 7.34928 -2.26137e-07 6.82806 -2.54345e-07 6.18274C-2.82552e-07 5.53742 0.521218 5.0162 1.16654 5.0162L16.0288 5.0162L13.3607 2.34806C12.9077 1.89509 12.9077 1.1567 13.3607 0.703737C13.8136 0.250773 14.552 0.250773 15.005 0.703737L19.6587 5.35747C19.8635 5.56224 19.9752 5.82905 19.9938 6.10207C19.9938 6.12689 19.9938 6.15171 19.9938 6.17653L20 6.18894Z" fill="white" fill-opacity="0.5"/>
</svg>
