<svg width="26" height="21" viewBox="0 0 26 21" fill="none" xmlns="http://www.w3.org/2000/svg">
<path fill-rule="evenodd" clip-rule="evenodd" d="M0.921144 9.72L9.18114 1.241C9.77914 0.628 10.7471 0.628 11.3451 1.241C11.9421 1.854 11.9421 2.848 11.3451 3.462L5.69614 9.261H24.0681C24.9131 9.261 25.5981 9.964 25.5981 10.831C25.5981 11.698 24.9131 12.401 24.0681 12.401H5.69614L11.3451 18.2C11.9421 18.813 11.9421 19.807 11.3451 20.42C11.0461 20.727 10.6541 20.88 10.2631 20.88C9.87214 20.88 9.48014 20.727 9.18114 20.42L0.921144 11.941C0.324144 11.328 0.324144 10.334 0.921144 9.72Z" fill="white"/>
</svg>
