<svg width="33" height="25" viewBox="0 0 33 25" fill="none" xmlns="http://www.w3.org/2000/svg">
<g clip-path="url(#clip0_11_135)">
<path d="M31.6904 1.11707H19.3908C17.7984 1.11707 16.5037 2.24158 16.5037 3.63419V23.8829C16.5037 22.4903 17.7984 21.3658 19.3908 21.3658H31.6979C31.7648 21.3658 31.8244 21.3658 31.8913 21.3732V1.12451C31.8244 1.12451 31.7648 1.11707 31.6979 1.11707H31.6904Z" stroke="#9BA3D5" stroke-width="3" stroke-linecap="round" stroke-linejoin="round"/>
<path d="M1.30961 1.11707H13.6093C15.2016 1.11707 16.4963 2.24158 16.4963 3.63419V23.8829C16.4963 22.4903 15.2016 21.3658 13.6093 21.3658H1.30961C1.24264 21.3658 1.18312 21.3658 1.11615 21.3732V1.12451C1.17568 1.12451 1.24264 1.11707 1.30961 1.11707Z" stroke="#9BA3D5" stroke-width="3" stroke-linecap="round" stroke-linejoin="round"/>
<path d="M6.29492 15.8028H10.0749V13.5687H6.29492V15.8028ZM6.29492 10.9473H10.0749V8.71313H6.29492V10.9473ZM22.9326 8.71313V10.9473H26.7125V8.71313H22.9326ZM22.9326 15.8028H26.7125V13.5687H22.9326V15.8028Z" fill="#9BA3D5"/>
</g>
<defs>
<clipPath id="clip0_11_135">
<rect width="33" height="25" fill="white"/>
</clipPath>
</defs>
</svg>
