<svg width="20" height="20" viewBox="0 0 20 20" fill="none" xmlns="http://www.w3.org/2000/svg">
<path fill-rule="evenodd" clip-rule="evenodd" d="M9.99977 11.8859L2.94227 18.9434C2.87506 19.0062 2.80779 19.065 2.73072 19.1155C2.57832 19.2155 2.40558 19.2836 2.22597 19.3146C2.14617 19.3283 2.12563 19.3276 2.04496 19.3332C2.01456 19.3332 1.98422 19.3332 1.95389 19.3332C1.87322 19.3276 1.85269 19.3283 1.77288 19.3146C1.62321 19.2888 1.47827 19.2372 1.34593 19.1628C1.24006 19.1033 1.14246 19.0293 1.05659 18.9434C0.797241 18.6841 0.654301 18.3215 0.666768 17.955C0.670968 17.8336 0.691769 17.713 0.728504 17.5972C0.77444 17.4525 0.845243 17.3159 0.93698 17.1949C0.985915 17.1303 1.00138 17.1168 1.05659 17.0577L8.11402 10.0002L1.05659 2.94273C1.00138 2.8836 0.985915 2.87013 0.93698 2.80553C0.845243 2.68459 0.77444 2.54798 0.728504 2.40324C0.673369 2.2295 0.654368 2.04483 0.673035 1.86349C0.720171 1.40467 1.01018 0.993785 1.42673 0.795709C1.53641 0.743574 1.65314 0.706506 1.77288 0.685838C1.92249 0.660104 2.07636 0.660104 2.22597 0.685838C2.43558 0.72204 2.63559 0.808843 2.80506 0.937449C2.86966 0.986384 2.88313 1.00185 2.94227 1.05705L9.99977 8.11449L17.0573 1.05705C17.1163 1.00185 17.1299 0.986384 17.1944 0.937449C17.3154 0.845712 17.452 0.774909 17.5967 0.728973C17.7704 0.673838 17.9552 0.654837 18.1365 0.673504C18.2875 0.688972 18.4357 0.730507 18.5727 0.795709C18.6824 0.847845 18.7849 0.915048 18.8764 0.994851C19.224 1.298 19.3924 1.77188 19.3141 2.22644C19.278 2.43605 19.1911 2.63606 19.0626 2.80553C19.0136 2.87013 18.9982 2.8836 18.943 2.94273L11.8854 10.0002L18.943 17.0577C18.9982 17.1168 19.0136 17.1303 19.0626 17.1949C19.1543 17.3159 19.2251 17.4525 19.271 17.5972C19.3078 17.713 19.3286 17.8336 19.3327 17.955C19.3452 18.3215 19.2022 18.6841 18.943 18.9434C18.8571 19.0293 18.7595 19.1033 18.6536 19.1628C18.5213 19.2372 18.3763 19.2888 18.2267 19.3146C18.1469 19.3283 18.1263 19.3276 18.0456 19.3332C18.0152 19.3332 17.9849 19.3332 17.9546 19.3332C17.8739 19.3276 17.8534 19.3283 17.7736 19.3146C17.594 19.2836 17.4212 19.2155 17.2688 19.1155C17.1917 19.065 17.1244 19.0062 17.0573 18.9434L9.99977 11.8859Z" fill="white"/>
</svg>
