<svg width="36" height="36" viewBox="0 0 36 36" fill="none" xmlns="http://www.w3.org/2000/svg">
<path d="M26 13.8L33.8195 8.325C33.9319 8.24618 34.0639 8.19975 34.2009 8.19075C34.3379 8.18176 34.4747 8.21055 34.5965 8.27399C34.7183 8.33743 34.8203 8.43309 34.8915 8.55053C34.9626 8.66797 35.0002 8.80269 35 8.94V27.06C35.0002 27.1973 34.9626 27.332 34.8915 27.4495C34.8203 27.5669 34.7183 27.6626 34.5965 27.726C34.4747 27.7894 34.3379 27.8182 34.2009 27.8092C34.0639 27.8003 33.9319 27.7538 33.8195 27.675L26 22.2V28.5C26 28.8978 25.842 29.2794 25.5607 29.5607C25.2794 29.842 24.8978 30 24.5 30H3.5C3.10218 30 2.72064 29.842 2.43934 29.5607C2.15804 29.2794 2 28.8978 2 28.5V7.5C2 7.10218 2.15804 6.72064 2.43934 6.43934C2.72064 6.15804 3.10218 6 3.5 6H24.5C24.8978 6 25.2794 6.15804 25.5607 6.43934C25.842 6.72064 26 7.10218 26 7.5V13.8ZM26 18.5385L32 22.7385V13.26L26 17.46V18.537V18.5385ZM5 9V27H23V9H5ZM8 12H11V15H8V12Z" fill="#4A55AC"/>
</svg>
