<svg width="36" height="36" viewBox="0 0 36 36" fill="none" xmlns="http://www.w3.org/2000/svg">
<path d="M14.5 10.498L9.4045 14.668H4V20.668H9.4045L14.5 24.838V10.498ZM8.3335 23.668H2.5C2.10218 23.668 1.72064 23.51 1.43934 23.2287C1.15804 22.9474 1 22.5658 1 22.168V13.168C1 12.7702 1.15804 12.3886 1.43934 12.1073C1.72064 11.826 2.10218 11.668 2.5 11.668H8.3335L16.2745 5.17C16.3844 5.07992 16.5176 5.02291 16.6586 5.00559C16.7996 4.98828 16.9427 5.01137 17.0711 5.0722C17.1995 5.13302 17.308 5.22906 17.3839 5.34915C17.4598 5.46923 17.5001 5.60842 17.5 5.7505V29.5855C17.5001 29.7276 17.4598 29.8668 17.3839 29.9868C17.308 30.1069 17.1995 30.203 17.0711 30.2638C16.9427 30.3246 16.7996 30.3477 16.6586 30.3304C16.5176 30.3131 16.3844 30.2561 16.2745 30.166L8.335 23.668H8.3335ZM28.609 29.869L26.485 27.745C27.907 26.4798 29.0446 24.9275 29.8228 23.1905C30.6011 21.4536 31.0023 19.5713 31 17.668C31.0019 15.6671 30.558 13.691 29.7008 11.8831C28.8435 10.0751 27.5944 8.48085 26.044 7.216L28.174 5.086C30.0017 6.63332 31.4699 8.56072 32.4761 10.7338C33.4823 12.9069 34.0024 15.2733 34 17.668C34 22.5025 31.921 26.851 28.609 29.869ZM23.2945 24.5545L21.1615 22.4215C21.8897 21.8616 22.4794 21.1416 22.8849 20.3173C23.2904 19.4931 23.5008 18.5866 23.5 17.668C23.5 15.523 22.375 13.6405 20.68 12.58L22.8385 10.4215C23.9747 11.2573 24.8982 12.3488 25.5343 13.6077C26.1704 14.8666 26.5012 16.2575 26.5 17.668C26.5 20.431 25.255 22.903 23.2945 24.5545Z" fill="#4A55AC"/>
</svg>
