<svg width="33" height="31" viewBox="0 0 33 31" fill="none" xmlns="http://www.w3.org/2000/svg">
<path d="M28.5 18.5V23H33V26H28.5V30.5H25.5V26H21V23H25.5V18.5H28.5ZM28.512 0.5C29.334 0.5 30 1.1675 30 1.9895V15.5H27V3.5H3V24.4985L18 9.5L22.5 14V18.2435L18 13.7435L7.2405 24.5H18V27.5H1.488C1.09322 27.4996 0.714745 27.3425 0.435734 27.0632C0.156723 26.7839 -2.00183e-07 26.4053 0 26.0105V1.9895C0.00274507 1.59557 0.16035 1.21853 0.438769 0.939826C0.717188 0.661127 1.09407 0.503142 1.488 0.5H28.512ZM9 6.5C9.79565 6.5 10.5587 6.81607 11.1213 7.37868C11.6839 7.94129 12 8.70435 12 9.5C12 10.2956 11.6839 11.0587 11.1213 11.6213C10.5587 12.1839 9.79565 12.5 9 12.5C8.20435 12.5 7.44129 12.1839 6.87868 11.6213C6.31607 11.0587 6 10.2956 6 9.5C6 8.70435 6.31607 7.94129 6.87868 7.37868C7.44129 6.81607 8.20435 6.5 9 6.5Z" fill="#4A55AC"/>
</svg>
