<svg width="27" height="28" viewBox="0 0 27 28" fill="none" xmlns="http://www.w3.org/2000/svg">
<path d="M2.08542 8.01366C3.19476 5.80465 4.89658 3.94767 7.00066 2.65028C9.10474 1.35289 11.5282 0.666214 14.0001 0.666993C17.5934 0.666993 20.6121 1.98699 22.9201 4.14033L19.0974 7.96433C17.7148 6.64299 15.9574 5.96966 14.0001 5.96966C10.5267 5.96966 7.58675 8.31633 6.54008 11.467C6.27342 12.267 6.12142 13.1203 6.12142 14.0003C6.12142 14.8803 6.27342 15.7337 6.54008 16.5337C7.58808 19.6857 10.5267 22.031 14.0001 22.031C15.7934 22.031 17.3201 21.5577 18.5147 20.7577C19.2073 20.3017 19.8003 19.71 20.2577 19.0183C20.7151 18.3267 21.0275 17.5495 21.1761 16.7337H14.0001V11.5763H26.5574C26.7147 12.4483 26.8001 13.3577 26.8001 14.303C26.8001 18.3643 25.3467 21.783 22.8241 24.103C20.6187 26.1403 17.6001 27.3337 14.0001 27.3337C12.2489 27.3344 10.5148 26.99 8.89681 26.3201C7.27882 25.6503 5.80868 24.6682 4.57043 23.43C3.33217 22.1917 2.35008 20.7216 1.68026 19.1036C1.01045 17.4856 0.666048 15.7515 0.666749 14.0003C0.666749 11.8483 1.18142 9.81366 2.08542 8.01366Z" fill="white"/>
</svg>
