<svg width="18" height="18" viewBox="0 0 18 18" fill="none" xmlns="http://www.w3.org/2000/svg">
<g clip-path="url(#clip0_10_27)">
<path d="M13.2428 11.121L12.1823 10.0605L13.2428 9C13.5213 8.72142 13.7423 8.39069 13.8931 8.0267C14.0439 7.66272 14.1215 7.2726 14.1215 6.87862C14.1215 6.48465 14.0439 6.09453 13.8931 5.73054C13.7423 5.36656 13.5213 5.03583 13.2428 4.75725C12.9642 4.47867 12.6334 4.25768 12.2695 4.10691C11.9055 3.95615 11.5154 3.87855 11.1214 3.87855C10.7274 3.87855 10.3373 3.95615 9.9733 4.10691C9.60931 4.25768 9.27859 4.47867 9 4.75725L7.9395 5.81775L6.879 4.75725L7.9395 3.69675C8.78574 2.86419 9.92667 2.39974 11.1138 2.40457C12.3009 2.40941 13.438 2.88313 14.2774 3.72256C15.1169 4.56198 15.5906 5.6991 15.5954 6.88621C15.6003 8.07333 15.1358 9.21427 14.3033 10.0605L13.2428 11.121V11.121ZM11.121 13.2427L10.0605 14.3032C9.64389 14.7267 9.14757 15.0635 8.60015 15.2941C8.05274 15.5248 7.46507 15.6448 6.87104 15.6473C6.27701 15.6497 5.68838 15.5345 5.13911 15.3082C4.58983 15.082 4.09078 14.7493 3.67073 14.3293C3.25069 13.9092 2.91797 13.4102 2.69176 12.8609C2.46555 12.3116 2.35033 11.723 2.35275 11.129C2.35517 10.5349 2.47518 9.94727 2.70585 9.39985C2.93653 8.85244 3.2733 8.35611 3.69675 7.9395L4.75725 6.879L5.81775 7.9395L4.75725 9C4.47867 9.27858 4.25769 9.60931 4.10692 9.97329C3.95615 10.3373 3.87855 10.7274 3.87855 11.1214C3.87855 11.5154 3.95615 11.9055 4.10692 12.2695C4.25769 12.6334 4.47867 12.9642 4.75725 13.2427C5.03584 13.5213 5.36656 13.7423 5.73055 13.8931C6.09453 14.0439 6.48465 14.1215 6.87863 14.1215C7.2726 14.1215 7.66272 14.0439 8.02671 13.8931C8.39069 13.7423 8.72142 13.5213 9 13.2427L10.0605 12.1822L11.121 13.2427ZM11.121 5.81775L12.1823 6.879L6.879 12.1815L5.81775 11.121L11.121 5.8185V5.81775ZM4.33125 1.71975L5.78025 1.33125L6.5565 4.23L5.10825 4.6185L4.33125 1.7205V1.71975ZM11.4435 13.7707L12.8918 13.3822L13.6688 16.2803L12.2198 16.6687L11.4435 13.7707V13.7707ZM1.71975 4.33125L4.61775 5.10825L4.22925 6.5565L1.33125 5.78025L1.71975 4.33125ZM13.7708 11.4435L16.6688 12.2197L16.2803 13.6687L13.3823 12.8917L13.7708 11.4435V11.4435Z" fill="#5F6871"/>
</g>
<defs>
<clipPath id="clip0_10_27">
<rect width="18" height="18" fill="white"/>
</clipPath>
</defs>
</svg>
