<svg width="614" height="265" viewBox="0 0 614 265" fill="none" xmlns="http://www.w3.org/2000/svg">
<g clip-path="url(#clip0_5_285)">
<path d="M138.194 200.789L147.625 177.568H181.533V200.789V202.933V249.528H83.2789V200.789H138.194Z" fill="#E5E7EC"/>
<path d="M173.192 186.686H91.6194V255.245H173.192V186.686Z" fill="white"/>
<path d="M162.161 200.641H102.644V204.713H162.161V200.641Z" fill="#F1F2F5"/>
<path d="M162.161 213.548H102.644V217.621H162.161V213.548Z" fill="#F1F2F5"/>
<path d="M162.161 226.455H102.644V230.528H162.161V226.455Z" fill="#F1F2F5"/>
<path d="M126.618 236.769L117.186 213.548H83.2789V236.769V238.907V263.384H181.533V236.769H126.618Z" fill="#DCDFE5"/>
<path d="M140.786 34.4868H70.4893V105.159H140.786V34.4868Z" fill="#E5E7EC"/>
<path d="M154.544 76.7447H116.249V115.244H154.544V76.7447Z" fill="#DCDFE5"/>
<path d="M477.966 23.8592H177.494C173.93 23.8592 171.041 26.7638 171.041 30.3467V219.728C171.041 223.31 173.93 226.215 177.494 226.215H477.966C481.53 226.215 484.419 223.31 484.419 219.728V30.3467C484.419 26.7638 481.53 23.8592 477.966 23.8592Z" fill="white" stroke="#253055" stroke-width="2" stroke-miterlimit="10"/>
<path d="M177.494 219.795L177.433 30.3467L477.973 30.2851L478.034 219.728L477.973 219.795H177.494Z" fill="#4A55AC"/>
<path d="M177.494 219.795L177.433 30.3467L477.973 30.2851L478.034 219.728L477.973 219.795H177.494Z" fill="black" fill-opacity="0.4"/>
<path d="M367.849 252.627H287.618L299.115 226.215H356.346L367.849 252.627Z" fill="#F1F2F5" stroke="#253055" stroke-width="2" stroke-miterlimit="10"/>
<path d="M383.378 263.384H272.089C269.135 263.384 266.739 260.975 266.739 258.005C266.739 255.036 269.135 252.627 272.089 252.627H383.378C386.331 252.627 388.727 255.036 388.727 258.005C388.727 260.975 386.331 263.384 383.378 263.384Z" fill="#DFE1E8" stroke="#253055" stroke-width="2" stroke-miterlimit="10"/>
<path d="M489.17 154.993L478.762 165.457L495.488 182.273L505.897 171.809L489.17 154.993Z" fill="white"/>
<path d="M545.843 196.408C549.299 199.883 551.205 204.504 551.205 209.42C551.205 214.337 549.299 218.957 545.843 222.432" fill="#F1F2F5"/>
<path d="M545.843 196.408C549.299 199.883 551.205 204.504 551.205 209.42C551.205 214.337 549.299 218.957 545.843 222.432" stroke="#253055" stroke-width="2" stroke-miterlimit="10"/>
<path d="M539.923 216.487C536.044 220.387 529.75 220.387 525.871 216.487L493.655 184.099L507.707 169.972L539.923 202.36C543.802 206.26 543.802 212.587 539.923 216.487Z" fill="#D61C45"/>
<path d="M498.288 83.9468C510.336 96.0592 516.966 112.164 516.966 129.291Z" fill="#F1F2F5"/>
<path d="M498.288 83.9468C510.336 96.0592 516.966 112.164 516.966 129.291" stroke="#253055" stroke-width="2" stroke-miterlimit="10"/>
<path d="M453.19 184.998C483.796 184.998 508.608 160.055 508.608 129.285C508.608 98.5155 483.796 73.5718 453.19 73.5718C422.584 73.5718 397.773 98.5155 397.773 129.285C397.773 160.055 422.584 184.998 453.19 184.998Z" fill="#EFC22F"/>
<path d="M453.19 173.058C477.237 173.058 496.731 153.46 496.731 129.285C496.731 105.11 477.237 85.5117 453.19 85.5117C429.143 85.5117 409.649 105.11 409.649 129.285C409.649 153.46 429.143 173.058 453.19 173.058Z" fill="#F9F9FB"/>
<g clip-path="url(#clip1_5_285)">
<path d="M360.174 66.2729H217.407V91.5993H360.174V66.2729Z" fill="#DCDFE5"/>
<path d="M217.407 178.452C211.003 178.452 205.818 173.249 205.818 166.823V116.737" stroke="#253055" stroke-width="2" stroke-miterlimit="10"/>
<path d="M253.508 178.452H229.659" stroke="#253055" stroke-width="2" stroke-miterlimit="10"/>
<path d="M360.174 91.5993H217.407V166.815H360.174V91.5993Z" fill="white" stroke="#253055" stroke-width="2" stroke-miterlimit="10"/>
<path d="M254.424 107.553C256.746 103.507 262.57 103.507 264.892 107.553L274.756 124.697L284.619 141.842C286.942 145.888 284.039 150.943 279.385 150.943H239.931C235.277 150.943 232.366 145.888 234.697 141.842L244.56 124.697L254.424 107.553V107.553Z" fill="#DD1226"/>
<path d="M262.112 137.32H257.204V141.989H262.112V137.32Z" fill="white"/>
<path d="M262.112 120.405H257.204V133.947H262.112V120.405Z" fill="white"/>
<path d="M299.243 110.828H340.21" stroke="#253055" stroke-width="2" stroke-miterlimit="10"/>
<path d="M299.243 127.726H340.21" stroke="#253055" stroke-width="2" stroke-miterlimit="10"/>
<path d="M299.243 144.624H314.602" stroke="#253055" stroke-width="2" stroke-miterlimit="10"/>
<path d="M256.149 77.2947H233.879V80.5775H256.149V77.2947Z" fill="#DD1226"/>
</g>
<g clip-path="url(#clip2_5_285)">
<path d="M541.652 32.4738C541.652 32.4738 535.55 32.8665 532.495 35.7152C532.495 35.7152 528.974 21.8308 515.794 26.8295C501.931 32.0877 507.618 44.0286 510.37 45.9655C510.37 45.9655 508.606 46.0254 506.96 50.019C505.314 54.0126 506.302 55.011 506.302 55.011C493.136 45.3598 480.562 46.5445 468.022 57.6667C468.022 57.6667 487.218 52.9143 498.284 65.0216C512.312 80.3636 539.21 88.7302 544.154 58.0062C544.733 58.086 545.326 58.1193 545.931 58.0993C547.84 58.2391 551.092 57.6201 554.397 53.0275C560.164 45.0137 553.133 32.0411 541.652 32.4738Z" fill="#E0E7FF"/>
<path d="M467.679 57.6201C467.679 57.6201 486.875 52.8677 497.941 64.975C512.016 80.3703 539.052 88.7435 543.864 57.6467C543.864 57.6467 548.9 60.1427 554.055 52.9742C559.822 44.9604 552.784 31.9812 541.31 32.4205C541.31 32.4205 535.208 32.8132 532.153 35.6553C532.153 35.6553 528.631 21.7776 515.459 26.7696C501.595 32.0278 508.27 45.0469 510.034 45.9055C510.034 45.9055 504.959 52.8078 508.264 57.1009C508.264 57.1009 492.267 35.7951 467.679 57.6134V57.6201Z" stroke="#6787EF" stroke-width="1.4" stroke-miterlimit="10"/>
<path d="M510.034 45.9189C510.034 45.9189 516.716 41.2996 522.818 45.0203C522.818 45.0203 536.755 50.1854 526.59 63.5772C517.44 75.6379 501.009 58.9047 497.033 56.7482C493.057 54.5916 482.919 50.7511 467.673 57.6201" stroke="#6787EF" stroke-width="1.4" stroke-miterlimit="10"/>
<path d="M532.153 35.662C532.153 35.662 525.649 40.634 528.131 48.4881" stroke="#6787EF" stroke-width="1.4" stroke-miterlimit="10"/>
<path d="M546.675 57.9662C541.205 58.7117 536.439 55.0575 535.096 51.3102C533.542 46.9905 537.498 41.7921 540.908 41.1199C544.318 40.4476 546.023 43.3496 546.023 43.3496C546.023 43.3496 547.814 45.9854 545.141 48.9473" stroke="#6787EF" stroke-width="1.4" stroke-miterlimit="10"/>
<path d="M508.263 57.1142C508.263 57.1142 513.062 63.0847 518.243 62.3725C524.016 61.5804 525.234 50.7977 517.657 52.1888C517.657 52.1888 515.255 52.8877 515.511 55.3238" stroke="#6787EF" stroke-width="1.4" stroke-miterlimit="10"/>
<path d="M514.813 37.1596C514.813 37.1596 516.249 33.5054 519.935 33.8049C523.569 34.0978 526.65 37.4258 521.923 44.1483" stroke="#6787EF" stroke-width="1.4" stroke-miterlimit="10"/>
<path d="M537.775 54.8179C537.775 54.8179 533.805 77.6547 514.721 67.1249" stroke="#6787EF" stroke-width="1.4" stroke-miterlimit="10"/>
<path d="M586.772 5.88972C586.772 5.88972 583.04 6.12934 581.17 7.86655C581.17 7.86655 579.017 -0.619839 570.96 2.43526C562.481 5.65011 565.963 12.9517 567.642 14.1365C567.642 14.1365 566.562 14.1764 565.555 16.6192C564.548 19.0619 565.154 19.6743 565.154 19.6743C557.103 13.7704 549.414 14.4959 541.745 21.2984C541.745 21.2984 553.482 18.3897 560.249 25.7978C568.827 35.1761 585.271 40.2946 588.293 21.5047C588.648 21.5513 589.01 21.5712 589.379 21.5646C590.551 21.6511 592.532 21.2717 594.553 18.4629C598.082 13.5641 593.776 5.63014 586.759 5.89638L586.772 5.88972Z" fill="#E0E7FF"/>
<path d="M541.507 21.2651C541.507 21.2651 553.245 18.363 560.012 25.7645C568.616 35.1761 585.146 40.2945 588.089 21.285C588.089 21.285 591.163 22.8092 594.316 18.4296C597.838 13.5308 593.539 5.59684 586.522 5.86308C586.522 5.86308 582.789 6.1027 580.92 7.83991C580.92 7.83991 578.767 -0.64648 570.71 2.40862C562.231 5.62347 566.312 13.584 567.392 14.1099C567.392 14.1099 564.291 18.3298 566.312 20.9522C566.312 20.9522 556.53 7.92644 541.501 21.2651H541.507Z" stroke="#6787EF" stroke-width="1.4" stroke-miterlimit="10"/>
<path d="M567.398 14.1099C567.398 14.1099 571.486 11.2877 575.219 13.5641C575.219 13.5641 583.737 16.719 577.53 24.9125C571.934 32.2874 561.888 22.0571 559.459 20.7326C557.03 19.4147 550.829 17.0651 541.508 21.2651" stroke="#6787EF" stroke-width="1.4" stroke-miterlimit="10"/>
<path d="M580.926 7.8399C580.926 7.8399 576.95 10.8817 578.464 15.6807" stroke="#6787EF" stroke-width="1.4" stroke-miterlimit="10"/>
<path d="M589.807 21.4714C586.463 21.924 583.546 19.6942 582.724 17.4046C581.776 14.7621 584.192 11.5806 586.278 11.1746C588.365 10.7619 589.405 12.539 589.405 12.539C589.405 12.539 590.498 14.1498 588.866 15.9602" stroke="#6787EF" stroke-width="1.4" stroke-miterlimit="10"/>
<path d="M566.319 20.9522C566.319 20.9522 569.255 24.6064 572.421 24.1671C575.95 23.6812 576.7 17.0917 572.066 17.9371C572.066 17.9371 570.598 18.363 570.756 19.854" stroke="#6787EF" stroke-width="1.4" stroke-miterlimit="10"/>
<path d="M570.321 8.75178C570.321 8.75178 571.203 6.51537 573.455 6.70174C575.673 6.88145 577.563 8.91818 574.673 13.0249" stroke="#6787EF" stroke-width="1.4" stroke-miterlimit="10"/>
<path d="M584.363 19.5478C584.363 19.5478 581.934 33.5121 570.269 27.0691" stroke="#6787EF" stroke-width="1.4" stroke-miterlimit="10"/>
<path d="M604.171 43.9753C604.171 43.9753 600.438 44.2149 598.569 45.9522C598.569 45.9522 596.416 37.4658 588.359 40.5209C579.88 43.7357 583.362 51.0373 585.041 52.2221C585.041 52.2221 583.961 52.262 582.954 54.7048C581.947 57.1475 582.552 57.7599 582.552 57.7599C574.501 51.856 566.812 52.5815 559.143 59.384C559.143 59.384 570.881 56.4753 577.648 63.8834C586.226 73.2617 602.67 78.3802 605.692 59.5903C606.047 59.6369 606.409 59.6569 606.778 59.6502C607.95 59.7367 609.931 59.3573 611.952 56.5485C615.481 51.6497 611.175 43.7157 604.158 43.982L604.171 43.9753Z" fill="#E0E7FF"/>
<path d="M558.946 59.3507C558.946 59.3507 570.683 56.4486 577.451 63.8501C586.055 73.2617 602.584 78.3801 605.527 59.3706C605.527 59.3706 608.601 60.8948 611.755 56.5152C615.276 51.6164 610.978 43.6824 603.96 43.9487C603.96 43.9487 600.228 44.1883 598.358 45.9255C598.358 45.9255 596.206 37.4391 588.148 40.4942C579.669 43.7091 583.751 51.6696 584.83 52.1955C584.83 52.1955 581.73 56.4154 583.751 59.0378C583.751 59.0378 573.968 46.012 558.939 59.3507H558.946Z" stroke="#6787EF" stroke-width="1.4" stroke-miterlimit="10"/>
<path d="M584.837 52.1955C584.837 52.1955 588.925 49.3733 592.651 51.6497C592.651 51.6497 601.169 54.8046 594.961 62.9981C589.366 70.373 579.32 60.1427 576.891 58.8182C574.462 57.5003 568.261 55.1507 558.939 59.3507" stroke="#6787EF" stroke-width="1.4" stroke-miterlimit="10"/>
<path d="M598.365 45.9255C598.365 45.9255 594.389 48.9673 595.903 53.7663" stroke="#6787EF" stroke-width="1.4" stroke-miterlimit="10"/>
<path d="M607.245 59.557C603.901 60.0096 600.985 57.7798 600.162 55.4902C599.214 52.8477 601.63 49.6662 603.717 49.2602C605.804 48.8475 606.844 50.6246 606.844 50.6246C606.844 50.6246 607.936 52.2354 606.304 54.0458" stroke="#6787EF" stroke-width="1.4" stroke-miterlimit="10"/>
<path d="M583.757 59.0378C583.757 59.0378 586.693 62.692 589.86 62.2527C593.388 61.7668 594.139 55.1774 589.504 56.0227C589.504 56.0227 588.036 56.4486 588.194 57.9396" stroke="#6787EF" stroke-width="1.4" stroke-miterlimit="10"/>
<path d="M587.76 46.8374C587.76 46.8374 588.642 44.601 590.893 44.7873C593.112 44.9671 595.001 47.0038 592.111 51.1105" stroke="#6787EF" stroke-width="1.4" stroke-miterlimit="10"/>
<path d="M558.946 59.3505C558.946 59.3505 570.683 56.4485 577.451 63.85C586.055 73.2615 602.585 78.38 605.527 59.3705C605.527 59.3705 608.601 60.8947 611.755 56.515C615.277 51.6162 610.978 43.6823 603.96 43.9485C603.96 43.9485 600.228 44.1881 598.358 45.9254C598.358 45.9254 596.206 37.439 588.148 40.4941C579.669 43.7089 583.751 51.6695 584.83 52.1953C584.83 52.1953 581.73 56.4152 583.751 59.0377C583.751 59.0377 573.968 46.0119 558.939 59.3505H558.946Z" stroke="#6787EF" stroke-width="1.4" stroke-miterlimit="10"/>
<path d="M584.837 52.1953C584.837 52.1953 588.925 49.3732 592.651 51.6495C592.651 51.6495 601.169 54.8045 594.961 62.998C589.366 70.3728 579.32 60.1426 576.891 58.818C574.462 57.5001 568.261 55.1506 558.939 59.3505" stroke="#6787EF" stroke-width="1.4" stroke-miterlimit="10"/>
<path d="M598.365 45.9254C598.365 45.9254 594.389 48.9671 595.903 53.7661" stroke="#6787EF" stroke-width="1.4" stroke-miterlimit="10"/>
<path d="M607.245 59.5568C603.901 60.0094 600.985 57.7797 600.162 55.49C599.214 52.8476 601.63 49.666 603.717 49.26C605.804 48.8473 606.844 50.6245 606.844 50.6245C606.844 50.6245 607.937 52.2352 606.304 54.0457" stroke="#6787EF" stroke-width="1.4" stroke-miterlimit="10"/>
<path d="M583.757 59.0377C583.757 59.0377 586.693 62.6918 589.86 62.2525C593.388 61.7666 594.139 55.1772 589.504 56.0225C589.504 56.0225 588.036 56.4485 588.194 57.9394" stroke="#6787EF" stroke-width="1.4" stroke-miterlimit="10"/>
<path d="M587.76 46.8372C587.76 46.8372 588.642 44.6008 590.893 44.7872C593.112 44.9669 595.001 47.0036 592.111 51.1104" stroke="#6787EF" stroke-width="1.4" stroke-miterlimit="10"/>
<path d="M601.801 57.6334C601.801 57.6334 599.379 71.5977 587.707 65.1547" stroke="#6787EF" stroke-width="1.4" stroke-miterlimit="10"/>
</g>
<g clip-path="url(#clip3_5_285)">
<path d="M457.922 118.579C458.103 117.981 460.849 116.79 459.6 112.728C458.352 108.666 462.066 106.66 462.066 106.66L466.756 110.953C466.756 110.953 464.522 109.44 464.404 113.72C464.287 117.999 462.396 118.189 462.396 118.189L457.922 118.579V118.579Z" fill="#C90A26"/>
<path d="M446.695 118.905C445.754 119.113 442.443 117.506 437.544 121.02C432.645 124.538 427.62 122.6 427.62 122.6L430.768 116.02C430.768 116.02 430.008 118.832 436.033 116.342C442.054 113.851 443.461 115.341 443.461 115.341L446.695 118.905Z" fill="#C90A26"/>
<path d="M456.488 114.449C456.488 114.449 455.262 112.936 459.433 109.1C463.604 105.269 461.858 101.791 461.858 101.791L453.67 101.841C453.67 101.841 455.231 102.96 452.946 106.759C450.662 110.559 452.621 113.022 452.621 113.022L456.493 114.449H456.488Z" fill="#353535"/>
<path d="M465.739 120.879C465.739 120.879 467.647 121.26 469.09 115.78C470.533 110.301 474.419 110.224 474.419 110.224L478.192 117.501C478.192 117.501 476.477 116.641 474.184 120.436C471.895 124.231 468.801 123.646 468.801 123.646L465.734 120.884L465.739 120.879Z" fill="#353535"/>
<path d="M454.733 138.174C454.986 139.107 457.954 141.285 457.131 147.268C456.307 153.245 460.36 156.791 460.36 156.791L464.707 150.936C464.707 150.936 462.577 152.919 461.966 146.425C461.355 139.931 459.388 139.379 459.388 139.379L454.733 138.174Z" fill="#C90A26"/>
<path d="M448.278 117.438C447.889 116.949 448.473 114.009 444.429 112.723C440.385 111.437 440.851 107.239 440.851 107.239L447.048 105.822C447.048 105.822 444.533 106.8 447.98 109.336C451.426 111.867 450.508 113.534 450.508 113.534L448.283 117.438H448.278Z" fill="#C90A26"/>
<path d="M461.324 115.943C461.324 115.943 459.736 115.001 461.315 111.641C462.893 108.281 460.075 105.971 460.075 105.971L453.797 107.099C453.797 107.099 455.475 107.71 455.33 110.79C455.185 113.874 457.741 115.413 457.741 115.413L461.324 115.939V115.943Z" fill="black"/>
<path d="M467.394 123.298C468.023 123.289 469.995 125.544 473.492 123.121C476.988 120.698 480.037 123.628 480.037 123.628L477.368 129.407C477.368 129.407 478.133 126.816 474.012 128.003C469.891 129.189 469.131 127.446 469.131 127.446L467.399 123.298H467.394Z" fill="#FFDE82"/>
<path d="M453.258 113.344C453.258 113.344 451.671 112.402 453.249 109.042C454.828 105.681 452.01 103.372 452.01 103.372L445.732 104.499C445.732 104.499 447.41 105.111 447.265 108.19C447.12 111.274 449.291 114.797 449.291 114.797L453.263 113.339L453.258 113.344Z" fill="#FFDE82"/>
<path d="M442.434 120.762C442.434 120.762 440.842 122.079 438.182 119.485C435.518 116.894 432.066 119.041 432.066 119.041L430.573 125.698C430.573 125.698 431.872 124.194 434.857 125.259C437.843 126.323 442.226 125.191 442.226 125.191L442.434 120.762V120.762Z" fill="#FFDE82"/>
<path d="M467.132 136.956C467.132 136.956 466.829 139.238 471.547 140.307C476.265 141.38 476.382 145.923 476.382 145.923L470.19 151.162C470.19 151.162 470.904 149.052 467.625 146.797C464.341 144.541 462.455 139.687 462.455 139.687L467.136 136.951L467.132 136.956Z" fill="#FFDE82"/>
<path d="M463.825 117.451C463.825 117.451 465.363 117.89 468.91 117.356C472.456 116.822 475.758 118.905 475.708 120.839L473.609 124.321C473.609 124.321 472.958 122.722 470.352 123.035C467.747 123.343 463.825 117.456 463.825 117.456V117.451Z" fill="black"/>
<path d="M469.384 132.541C469.819 132.839 469.896 135.665 473.637 135.366C477.377 135.067 477.807 138.971 477.807 138.971L472.745 142.449C472.745 142.449 474.722 140.678 471.248 139.655C467.774 138.632 468.236 136.816 468.236 136.816L469.384 132.541V132.541Z" fill="black"/>
<path d="M459.849 118.158C460.256 117.682 463.251 117.709 463.753 113.489C464.259 109.268 468.462 108.942 468.462 108.942L471.013 114.77C471.013 114.77 469.584 112.479 467.742 116.342C465.901 120.205 464.097 119.616 464.097 119.616L459.849 118.153V118.158Z" fill="#FFDE82"/>
<path d="M463.635 140.393C463.635 140.393 465.178 140.81 466.015 143.672C466.851 146.534 470.922 145.692 470.922 145.692L465.874 151.484C465.874 151.484 463.201 150.75 462.373 148.431C461.545 146.113 459.777 144.478 459.777 144.478L463.644 140.393H463.635Z" fill="black"/>
<path d="M447.808 113.91C447.808 113.91 447.962 111.288 444.705 110.599C441.448 109.911 439.363 109.857 437.784 107.86L434.563 113.208C434.563 113.208 437.49 115.884 440.037 115.472C442.579 115.056 442.778 117.13 442.778 117.13L447.808 113.919V113.91Z" fill="black"/>
<path d="M466.892 128.143C466.892 128.143 468.733 126.033 472.574 127.627C476.418 129.221 478.581 130.539 481.706 130.036L480.919 136.231C480.919 136.231 475.898 136.376 473.623 134.402C471.348 132.427 469.57 133.886 469.57 133.886L466.892 128.148V128.143Z" fill="#353535"/>
<path d="M440.937 131.105C440.937 131.105 439.494 128.705 435.432 129.601C431.37 130.498 429.008 131.413 426.018 130.367L425.711 136.603C425.711 136.603 430.632 137.626 433.215 136.082C435.798 134.538 437.295 136.286 437.295 136.286L440.937 131.105Z" fill="#353535"/>
<path d="M438.625 126.124C438.625 126.124 438.159 123.873 434.269 125.032C430.379 126.191 428.714 123.936 428.714 123.936L426.525 129.085C426.525 129.085 429.981 131.046 432.668 130.562C435.355 130.077 436.743 130.915 436.743 130.915L438.625 126.124V126.124Z" fill="black"/>
<path d="M440.48 151.14C434.568 147.571 431.894 140.647 434.201 134.882L440.195 119.879C443.026 112.787 452.091 110.364 459.361 114.757L463.825 117.451C471.094 121.839 473.18 130.996 468.236 136.811L457.777 149.115C453.756 153.848 446.396 154.708 440.484 151.135L440.48 151.14Z" fill="#DD1226"/>
<path d="M451.77 117.302C451.359 117.981 450.477 118.203 449.794 117.791C449.115 117.379 448.893 116.496 449.305 115.812C449.717 115.133 450.599 114.911 451.282 115.323C451.96 115.735 452.182 116.618 451.77 117.302V117.302Z" fill="#FFDE82"/>
<path d="M469.181 129.099C469.226 129.855 469.072 130.602 468.701 131.263C468.371 131.852 467.851 132.305 467.516 132.889C467.182 133.473 467.227 134.085 467.096 134.719C466.933 135.52 466.25 135.846 465.558 136.123C465.422 136.177 465.481 136.394 465.616 136.34C466.186 136.114 466.811 135.855 467.127 135.294C467.507 134.619 467.299 133.786 467.657 133.098C468.014 132.409 468.606 131.938 468.955 131.268C469.303 130.598 469.452 129.846 469.407 129.099C469.398 128.954 469.172 128.954 469.181 129.099V129.099Z" fill="white"/>
<path d="M466.607 129.805C466.462 130.738 465.132 130.897 464.997 131.866C464.956 132.169 465.01 132.477 464.965 132.785C464.92 133.093 464.816 133.419 464.671 133.704C464.382 134.266 463.934 134.714 463.377 135.004C463.246 135.072 463.364 135.267 463.49 135.199C464.581 134.637 465.246 133.482 465.218 132.26C465.209 131.925 465.241 131.653 465.463 131.39C465.626 131.2 465.829 131.051 466.028 130.901C466.381 130.629 466.752 130.331 466.824 129.86C466.847 129.719 466.63 129.656 466.607 129.801V129.805Z" fill="white"/>
<path d="M463.549 129.62C463.219 129.841 462.875 130.072 462.64 130.403C462.369 130.779 462.323 131.236 462.219 131.676C462.102 132.178 461.862 132.631 461.6 133.066C461.396 133.405 461.066 134.076 460.573 133.953C460.433 133.917 460.374 134.135 460.514 134.171C460.917 134.275 461.233 133.999 461.464 133.695C461.772 133.288 462.038 132.812 462.237 132.346C462.436 131.879 462.468 131.395 462.631 130.924C462.807 130.412 463.237 130.104 463.671 129.814C463.794 129.733 463.68 129.538 463.558 129.62H463.549Z" fill="white"/>
<path d="M460.74 128.284C460.148 128.841 459.605 129.429 459.546 130.281C459.514 130.761 459.442 131.159 459.157 131.558C458.904 131.916 458.574 132.21 458.248 132.495C458.139 132.59 458.298 132.753 458.406 132.654C458.994 132.133 459.627 131.54 459.732 130.72C459.763 130.48 459.75 130.24 459.799 130C459.84 129.787 459.926 129.588 460.039 129.402C460.265 129.035 460.582 128.732 460.894 128.438C460.998 128.338 460.84 128.179 460.736 128.279L460.74 128.284Z" fill="white"/>
<path d="M467.946 129.959C467.842 130.548 467.611 131.105 467.245 131.585C466.879 132.065 466.385 132.359 466.091 132.858C465.607 133.677 465.63 135.489 464.359 135.538C464.214 135.543 464.214 135.769 464.359 135.765C465.671 135.711 465.761 134.126 466.164 133.215C466.435 132.595 467.023 132.246 467.426 131.721C467.828 131.196 468.059 130.639 468.168 130.018C468.195 129.878 467.973 129.814 467.951 129.959H467.946Z" fill="black"/>
<path d="M464.458 130.272C464.183 130.598 463.902 130.924 463.685 131.295C463.454 131.698 463.368 132.115 463.278 132.568C463.097 133.478 462.437 134.058 461.722 134.583C461.604 134.669 461.722 134.864 461.835 134.778C462.477 134.311 463.138 133.777 463.405 132.998C463.558 132.536 463.563 132.047 463.78 131.608C463.997 131.168 464.309 130.802 464.621 130.435C464.716 130.326 464.558 130.163 464.463 130.276L464.458 130.272Z" fill="black"/>
<path d="M461.373 129.574C461.156 129.846 460.939 130.122 460.763 130.421C460.586 130.72 460.478 131.06 460.387 131.404C460.297 131.748 460.161 132.06 459.917 132.337C459.673 132.613 459.41 132.812 459.134 133.021C459.021 133.107 459.134 133.306 459.247 133.215C459.768 132.817 460.292 132.396 460.514 131.757C460.636 131.399 460.695 131.033 460.871 130.693C461.048 130.353 461.292 130.036 461.532 129.733C461.622 129.62 461.464 129.457 461.373 129.574V129.574Z" fill="black"/>
<path d="M459.107 128.13C458.754 128.406 458.46 128.75 458.261 129.153C458.04 129.601 457.985 130.095 457.827 130.566C457.51 131.508 456.728 132.201 456.009 132.844C455.9 132.939 456.058 133.102 456.167 133.002C456.859 132.387 457.578 131.734 457.949 130.865C458.139 130.417 458.18 129.932 458.356 129.479C458.542 129.004 458.863 128.601 459.261 128.293C459.374 128.202 459.216 128.044 459.103 128.134L459.107 128.13Z" fill="black"/>
<path d="M466.218 125.272C465.806 125.951 466.028 126.839 466.707 127.251C467.385 127.663 468.272 127.441 468.683 126.762C469.095 126.083 468.873 125.195 468.195 124.783C467.516 124.371 466.63 124.593 466.218 125.272Z" fill="#FFDE82"/>
<path d="M457.212 120.585C456.8 121.264 457.022 122.152 457.7 122.564C458.379 122.976 459.266 122.754 459.677 122.075C460.089 121.396 459.867 120.508 459.189 120.096C458.51 119.684 457.624 119.906 457.212 120.585Z" fill="#FFDE82"/>
<path d="M454.245 125.508C453.833 126.187 454.055 127.075 454.733 127.487C455.412 127.899 456.298 127.677 456.71 126.998C457.121 126.318 456.9 125.431 456.221 125.019C455.543 124.606 454.656 124.828 454.245 125.508V125.508Z" fill="#FFDE82"/>
<path d="M445.795 115.314C445.184 115.658 444.668 116.138 444.298 116.736C443.89 117.388 443.791 118.149 443.452 118.828C443.112 119.507 442.447 119.77 442 120.331C441.511 120.943 441.624 121.717 441.764 122.428C441.792 122.573 442.009 122.51 441.982 122.369C441.9 121.962 441.814 121.531 441.887 121.119C441.959 120.707 442.181 120.426 442.479 120.168C442.954 119.756 443.42 119.435 443.691 118.846C443.963 118.257 444.067 117.605 444.384 117.035C444.736 116.391 445.27 115.871 445.908 115.508C446.035 115.436 445.921 115.241 445.795 115.314V115.314Z" fill="white"/>
<path d="M446.55 117.895C446.188 118.221 446.143 118.701 446.102 119.158C446.08 119.426 446.066 119.706 445.971 119.96C445.84 120.309 445.551 120.449 445.261 120.644C444.302 121.282 443.764 122.451 443.877 123.597C443.89 123.741 444.117 123.741 444.103 123.597C444.044 122.994 444.162 122.392 444.456 121.862C444.596 121.604 444.773 121.368 444.985 121.165C445.22 120.934 445.496 120.793 445.759 120.603C446.125 120.345 446.247 119.946 446.297 119.521C446.356 119.023 446.306 118.425 446.713 118.058C446.822 117.958 446.659 117.8 446.555 117.9L446.55 117.895Z" fill="white"/>
<path d="M448.305 120.526C448.296 121.101 448.256 121.654 447.858 122.102C447.527 122.478 447.156 122.786 446.885 123.212C446.627 123.615 446.387 124.067 446.229 124.52C446.107 124.865 446.066 125.268 446.356 125.535C446.464 125.634 446.623 125.476 446.514 125.376C446.161 125.046 446.482 124.466 446.65 124.122C446.876 123.655 447.116 123.189 447.473 122.809C447.758 122.501 448.102 122.242 448.296 121.862C448.504 121.45 448.522 120.979 448.527 120.526C448.527 120.381 448.305 120.381 448.301 120.526H448.305Z" fill="white"/>
<path d="M450.952 122.107C450.875 122.532 450.793 122.967 450.603 123.356C450.391 123.796 450.042 124.013 449.68 124.312C449.038 124.842 448.88 125.702 448.762 126.486C448.74 126.626 448.957 126.69 448.979 126.545C449.043 126.137 449.106 125.725 449.251 125.335C449.423 124.869 449.708 124.566 450.101 124.276C450.807 123.755 451.015 122.99 451.169 122.161C451.196 122.021 450.979 121.957 450.952 122.102V122.107Z" fill="white"/>
<path d="M445.695 116.853C445.266 117.252 444.926 117.736 444.709 118.28C444.451 118.923 444.492 119.657 444.108 120.245C443.565 121.088 442.262 122.021 442.927 123.166C442.999 123.293 443.194 123.18 443.121 123.053C442.47 121.93 444.022 120.993 444.442 120.109C444.682 119.611 444.678 119.045 444.854 118.524C445.053 117.94 445.401 117.429 445.849 117.012C445.958 116.912 445.795 116.754 445.691 116.853H445.695Z" fill="black"/>
<path d="M447.269 120.06C447.138 120.503 447.003 120.952 446.772 121.355C446.528 121.781 446.139 122.052 445.826 122.419C445.275 123.067 445.175 123.941 445.13 124.76C445.121 124.905 445.347 124.905 445.356 124.76C445.379 124.326 445.419 123.886 445.537 123.465C445.668 123.003 445.908 122.632 446.256 122.306C446.568 122.012 446.844 121.722 447.043 121.341C447.242 120.961 447.369 120.54 447.491 120.128C447.532 119.987 447.315 119.928 447.274 120.069L447.269 120.06Z" fill="black"/>
<path d="M449.527 122.274C449.409 122.623 449.291 122.972 449.11 123.298C448.925 123.637 448.649 123.895 448.409 124.194C447.971 124.738 447.894 125.412 447.839 126.087C447.826 126.232 448.057 126.232 448.066 126.087C448.093 125.743 448.12 125.394 448.215 125.059C448.319 124.683 448.522 124.398 448.785 124.113C449.011 123.864 449.215 123.606 449.368 123.302C449.522 122.999 449.635 122.664 449.744 122.338C449.789 122.197 449.572 122.138 449.527 122.279V122.274Z" fill="black"/>
<path d="M451.965 123.429C451.92 123.95 451.734 124.448 451.417 124.869C451.128 125.254 450.748 125.553 450.481 125.96C449.984 126.735 449.83 127.668 449.689 128.56C449.667 128.7 449.884 128.764 449.907 128.619C450.056 127.654 450.219 126.604 450.852 125.825C451.151 125.458 451.521 125.159 451.766 124.747C452.01 124.335 452.141 123.895 452.182 123.433C452.195 123.289 451.969 123.289 451.956 123.433L451.965 123.429Z" fill="black"/>
<path d="M441.14 121.382C444.845 122.904 448.084 125.634 448.084 125.634C449.956 127.174 450.463 129.896 449.174 132.033C447.898 134.153 445.293 134.972 443.072 134.076C442.683 133.94 442.262 133.718 441.81 133.387C436.278 129.339 441.14 121.382 441.14 121.382V121.382Z" fill="white"/>
<path d="M442.556 128.297C441.873 129.429 442.239 130.897 443.366 131.576C444.497 132.26 445.962 131.893 446.641 130.765C447.324 129.633 446.957 128.166 445.831 127.487C444.7 126.803 443.235 127.17 442.556 128.297V128.297Z" fill="#FFFFAF" stroke="black" stroke-width="0.25" stroke-miterlimit="10"/>
<path d="M443.022 128.573C442.497 129.447 442.778 130.584 443.651 131.109C444.524 131.635 445.659 131.354 446.184 130.48C446.709 129.606 446.428 128.469 445.555 127.944C444.682 127.419 443.547 127.699 443.022 128.573V128.573Z" fill="black"/>
<path d="M466.779 136.861C463.708 134.289 459.781 132.695 459.781 132.695C457.547 131.757 454.905 132.572 453.62 134.71C452.345 136.829 452.833 139.519 454.661 141.068C454.959 141.353 455.353 141.62 455.859 141.865C462.016 144.876 466.779 136.856 466.779 136.856V136.861Z" fill="white"/>
<path d="M460.007 138.835C459.324 139.967 457.859 140.33 456.732 139.646C455.606 138.962 455.24 137.495 455.923 136.367C456.606 135.235 458.071 134.873 459.198 135.557C460.329 136.24 460.69 137.708 460.007 138.835Z" fill="#FFFFAF" stroke="black" stroke-width="0.25" stroke-miterlimit="10"/>
<path d="M459.546 138.555C459.021 139.429 457.886 139.709 457.013 139.184C456.14 138.659 455.859 137.522 456.384 136.648C456.909 135.774 458.044 135.493 458.917 136.019C459.79 136.544 460.071 137.681 459.546 138.555Z" fill="black"/>
<path d="M450.563 131.028C451.761 131.472 452.842 132.187 453.72 133.12C453.819 133.224 453.978 133.066 453.878 132.962C452.974 132.002 451.856 131.268 450.621 130.811C450.486 130.761 450.427 130.978 450.563 131.028V131.028Z" fill="black"/>
<path d="M453.589 121.382C454.593 124.14 457.601 125.879 460.491 125.381C460.849 125.317 460.7 124.774 460.342 124.833C457.773 125.277 455.032 123.678 454.136 121.228C454.014 120.888 453.467 121.033 453.589 121.378V121.382Z" fill="black"/>
<path d="M455.882 118.262C457.271 117.252 459.148 117.537 460.546 118.384C461.156 118.755 461.686 119.272 461.98 119.933C462.237 120.513 462.287 121.151 462.247 121.781C462.224 122.143 462.789 122.143 462.812 121.781C462.921 120.15 462.233 118.751 460.831 117.895C459.279 116.949 457.14 116.65 455.597 117.773C455.308 117.986 455.588 118.475 455.882 118.262V118.262Z" fill="black"/>
<path d="M464.902 121.885C463.64 122.818 462.812 124.244 462.69 125.816C462.568 127.387 463.251 129.049 464.44 130.131C464.707 130.376 465.11 129.977 464.838 129.733C463.78 128.768 463.174 127.373 463.246 125.933C463.319 124.493 464.06 123.198 465.182 122.374C465.472 122.161 465.191 121.667 464.897 121.885H464.902Z" fill="black"/>
<path d="M465.146 125.245C464.734 126.178 465.092 127.355 465.996 127.858C466.313 128.035 466.603 127.545 466.281 127.369C466.11 127.274 466.001 127.183 465.865 127.02C465.834 126.984 465.77 126.884 465.73 126.807C465.671 126.703 465.653 126.658 465.621 126.563C465.589 126.468 465.567 126.373 465.549 126.277C465.549 126.268 465.54 126.205 465.549 126.25C465.549 126.228 465.544 126.2 465.544 126.178C465.544 126.128 465.54 126.078 465.544 126.028C465.549 125.979 465.544 125.929 465.553 125.883C465.553 125.865 465.553 125.865 465.553 125.883V125.856C465.562 125.834 465.567 125.806 465.571 125.784C465.58 125.734 465.594 125.689 465.607 125.643C465.616 125.621 465.621 125.598 465.63 125.576C465.63 125.566 465.662 125.494 465.648 125.535C465.711 125.394 465.689 125.231 465.549 125.145C465.426 125.073 465.223 125.105 465.16 125.245H465.146Z" fill="black"/>
<path d="M465.291 130.385C467.281 130.811 469.452 130.05 470.701 128.433C470.922 128.148 470.524 127.745 470.303 128.035C469.176 129.488 467.249 130.226 465.44 129.841C465.087 129.764 464.933 130.312 465.291 130.389V130.385Z" fill="black"/>
<path d="M445.772 114.476C445.021 116.487 445.885 118.914 447.713 120.023C448.025 120.214 448.31 119.725 447.998 119.534C446.369 118.547 445.65 116.401 446.315 114.625C446.442 114.286 445.894 114.136 445.768 114.476H445.772Z" fill="black"/>
<path d="M451.535 120.879C452.838 120.517 453.892 119.557 454.539 118.384C455.294 117.012 455.484 115.413 455.466 113.869C455.466 113.507 454.896 113.502 454.9 113.869C454.928 116.405 454.168 119.552 451.381 120.331C451.033 120.431 451.178 120.974 451.531 120.879H451.535Z" fill="black"/>
<path d="M449.472 118.665C450.3 118.869 451.155 118.887 451.992 118.728C452.141 118.701 452.227 118.52 452.191 118.38C452.146 118.221 451.992 118.153 451.843 118.18C451.11 118.321 450.35 118.298 449.622 118.117C449.269 118.031 449.12 118.574 449.472 118.665Z" fill="black"/>
<path d="M447.658 138.908C448.02 138.908 448.025 138.342 447.658 138.342C447.292 138.342 447.292 138.908 447.658 138.908Z" fill="white"/>
<path d="M448.898 137.051C449.26 137.051 449.264 136.485 448.898 136.485C448.532 136.485 448.532 137.051 448.898 137.051Z" fill="white"/>
<path d="M444.04 137.717C444.402 137.717 444.406 137.151 444.04 137.151C443.673 137.151 443.673 137.717 444.04 137.717Z" fill="white"/>
<path d="M444.673 140.275C444.723 140.262 444.768 140.253 444.818 140.239C444.854 140.23 444.886 140.212 444.913 140.189C444.944 140.171 444.967 140.144 444.985 140.108C445.008 140.076 445.017 140.04 445.017 140.004C445.026 139.967 445.021 139.927 445.012 139.89L444.985 139.823C444.958 139.782 444.926 139.746 444.886 139.723L444.818 139.696C444.768 139.682 444.718 139.682 444.668 139.696C444.619 139.709 444.573 139.718 444.524 139.732C444.488 139.741 444.456 139.759 444.429 139.782C444.397 139.8 444.374 139.827 444.356 139.863C444.334 139.895 444.325 139.931 444.325 139.967C444.316 140.004 444.32 140.044 444.329 140.081L444.356 140.149C444.383 140.189 444.415 140.226 444.456 140.248L444.524 140.275C444.573 140.289 444.623 140.289 444.673 140.275Z" fill="white"/>
<path d="M450.743 142.01C451.105 142.01 451.11 141.444 450.743 141.444C450.377 141.444 450.377 142.01 450.743 142.01Z" fill="white"/>
<path d="M448.179 141.951C448.541 141.951 448.545 141.385 448.179 141.385C447.812 141.385 447.812 141.951 448.179 141.951Z" fill="white"/>
<path d="M454 142.984C454.362 142.984 454.367 142.417 454 142.417C453.634 142.417 453.634 142.984 454 142.984Z" fill="white"/>
<path d="M459.324 144.836C459.686 144.836 459.691 144.27 459.324 144.27C458.958 144.27 458.958 144.836 459.324 144.836Z" fill="white"/>
<path d="M456.208 146.923C456.57 146.923 456.574 146.357 456.208 146.357C455.841 146.357 455.841 146.923 456.208 146.923Z" fill="white"/>
<path d="M441.154 135.724C441.516 135.724 441.52 135.158 441.154 135.158C440.787 135.158 440.787 135.724 441.154 135.724Z" fill="white"/>
<path d="M436.847 132.378C437.209 132.378 437.214 131.811 436.847 131.811C436.481 131.811 436.481 132.378 436.847 132.378Z" fill="white"/>
<path d="M436.164 144.618C436.526 144.618 436.531 144.052 436.164 144.052C435.798 144.052 435.798 144.618 436.164 144.618Z" fill="white"/>
<path d="M442.592 142.721C442.624 142.739 442.651 142.757 442.683 142.775C442.714 142.798 442.751 142.807 442.787 142.807C442.823 142.816 442.864 142.811 442.9 142.802C442.936 142.793 442.968 142.775 442.995 142.753C443.026 142.734 443.049 142.707 443.067 142.671L443.094 142.603C443.108 142.553 443.108 142.503 443.094 142.454L443.067 142.386C443.04 142.345 443.008 142.309 442.968 142.286C442.936 142.268 442.909 142.25 442.877 142.232C442.846 142.209 442.809 142.2 442.773 142.2C442.737 142.191 442.696 142.196 442.66 142.205C442.624 142.214 442.592 142.232 442.565 142.254C442.533 142.273 442.511 142.3 442.493 142.336L442.466 142.404C442.452 142.454 442.452 142.503 442.466 142.553L442.493 142.621C442.52 142.662 442.552 142.698 442.592 142.721Z" fill="white"/>
<path d="M448.427 145.764C448.477 145.75 448.522 145.741 448.572 145.728C448.608 145.719 448.64 145.701 448.667 145.678C448.699 145.66 448.721 145.633 448.74 145.597C448.762 145.565 448.771 145.529 448.771 145.492C448.78 145.456 448.776 145.415 448.767 145.379L448.74 145.311C448.712 145.27 448.681 145.234 448.64 145.212L448.572 145.184C448.522 145.171 448.473 145.171 448.423 145.184C448.373 145.198 448.328 145.207 448.278 145.221C448.242 145.23 448.21 145.248 448.183 145.27C448.152 145.289 448.129 145.316 448.111 145.352C448.088 145.384 448.079 145.42 448.079 145.456C448.07 145.492 448.075 145.533 448.084 145.569L448.111 145.637C448.138 145.678 448.17 145.714 448.21 145.737L448.278 145.764C448.328 145.778 448.378 145.778 448.427 145.764Z" fill="white"/>
<path d="M447.993 150.895C448.355 150.895 448.36 150.329 447.993 150.329C447.627 150.329 447.627 150.895 447.993 150.895Z" fill="white"/>
<path d="M442.868 150.614C442.886 150.583 442.904 150.555 442.922 150.524C442.945 150.492 442.954 150.456 442.954 150.42C442.963 150.383 442.959 150.343 442.95 150.306C442.941 150.27 442.922 150.238 442.9 150.211C442.882 150.179 442.855 150.157 442.818 150.139L442.751 150.112C442.701 150.098 442.651 150.098 442.601 150.112L442.533 150.139C442.493 150.166 442.457 150.198 442.434 150.238C442.416 150.27 442.398 150.297 442.38 150.329C442.357 150.361 442.348 150.397 442.348 150.433C442.339 150.469 442.343 150.51 442.353 150.546C442.362 150.583 442.38 150.614 442.402 150.641C442.42 150.673 442.447 150.696 442.484 150.714L442.552 150.741C442.601 150.755 442.651 150.755 442.701 150.741L442.769 150.714C442.809 150.687 442.846 150.655 442.868 150.614Z" fill="white"/>
<path d="M451.612 152.086C451.974 152.086 451.978 151.52 451.612 151.52C451.246 151.52 451.246 152.086 451.612 152.086Z" fill="white"/>
<path d="M438.042 137.599C438.616 137.943 438.797 138.69 438.453 139.266C438.11 139.841 437.363 140.022 436.789 139.678C436.214 139.333 436.033 138.586 436.377 138.011C436.721 137.436 437.467 137.255 438.042 137.599Z" fill="#FFDE82"/>
<path d="M442.886 146.978C444.261 147.807 444.99 149.115 444.519 149.903C444.044 150.687 442.547 150.65 441.172 149.822C439.797 148.993 439.068 147.684 439.539 146.896C440.014 146.113 441.511 146.149 442.886 146.978Z" fill="#FFDE82"/>
<path d="M454.76 147.698C454.186 147.354 453.444 147.535 453.096 148.11C452.752 148.685 452.933 149.428 453.507 149.776C454.082 150.121 454.824 149.939 455.172 149.364C455.516 148.789 455.335 148.046 454.76 147.698Z" fill="#FFDE82"/>
<path d="M440.765 137.065C441.294 138.133 441.267 139.447 440.661 140.479C440.109 141.417 439.141 142.046 438.073 142.214C437.716 142.273 437.865 142.816 438.223 142.762C439.453 142.562 440.579 141.788 441.19 140.692C441.859 139.487 441.859 138.007 441.253 136.779C441.09 136.453 440.602 136.739 440.765 137.065V137.065Z" fill="black"/>
<path d="M435.934 134.393C434.798 134.728 433.826 135.552 433.351 136.639C432.831 137.834 432.935 139.234 433.6 140.352C433.785 140.665 434.274 140.38 434.088 140.067C433.514 139.107 433.405 137.88 433.871 136.852C434.292 135.928 435.11 135.226 436.083 134.941C436.431 134.837 436.282 134.293 435.934 134.393V134.393Z" fill="black"/>
<path d="M452.372 144.229C451.187 144.464 450.16 145.307 449.703 146.43C449.21 147.639 449.459 149.038 450.25 150.057C450.472 150.343 450.87 149.939 450.648 149.659C449.984 148.803 449.816 147.576 450.25 146.579C450.657 145.642 451.531 144.972 452.521 144.777C452.878 144.704 452.725 144.161 452.372 144.229V144.229Z" fill="black"/>
<path d="M457.56 147.073C457.655 148.88 456.538 150.687 454.842 151.348C454.507 151.479 454.652 152.027 454.991 151.896C456.913 151.144 458.239 149.151 458.126 147.073C458.108 146.711 457.542 146.706 457.56 147.073V147.073Z" fill="black"/>
<path d="M438.119 145.311C441.846 144.813 445.646 146.942 447.165 150.383C447.31 150.714 447.799 150.429 447.654 150.098C446.066 146.498 442.018 144.224 438.123 144.745C437.766 144.795 437.761 145.361 438.123 145.311H438.119Z" fill="black"/>
<path d="M437.11 148.558C439.073 151.357 442.362 153.069 445.781 153.051C446.143 153.051 446.148 152.48 445.781 152.485C442.57 152.503 439.448 150.909 437.598 148.273C437.39 147.979 436.902 148.259 437.11 148.558V148.558Z" fill="black"/>
<path d="M442.153 120.123C444.46 120.943 446.804 121.989 448.504 123.805C450.083 125.494 451.06 127.903 450.436 130.208C450.133 131.336 449.495 132.341 448.731 133.211C448.373 133.618 447.984 133.999 447.577 134.361C447.107 134.778 446.559 135.348 445.944 135.529C445.419 135.688 444.849 135.471 444.311 135.543C443.895 135.597 443.497 135.76 443.158 136C442.434 136.503 441.932 137.309 441.801 138.179C441.47 140.298 443.411 141.956 445.356 142.182C445.718 142.223 445.713 141.657 445.356 141.616C443.176 141.362 441.344 138.903 442.954 136.951C443.266 136.571 443.691 136.263 444.175 136.145C444.745 136 445.311 136.222 445.885 136.127C446.84 135.964 447.708 135.04 448.382 134.397C449.861 132.98 451.083 131.173 451.196 129.067C451.309 126.961 450.35 124.973 448.97 123.474C447.197 121.545 444.732 120.44 442.307 119.58C441.963 119.457 441.814 120.005 442.158 120.128L442.153 120.123Z" fill="black"/>
<path d="M467.48 134.778C464.336 131.87 459.867 129.017 455.493 131.055C453.589 131.943 452.413 133.75 451.757 135.688C451.426 136.653 451.033 137.848 451.105 138.885C451.142 139.356 451.368 139.714 451.616 140.103C451.915 140.561 452.078 141.036 452.019 141.589C451.906 142.694 451.056 143.676 449.961 143.889C448.654 144.143 447.315 143.423 446.586 142.359C446.383 142.06 445.89 142.345 446.098 142.644C447.129 144.152 449.246 145.076 450.956 144.129C452.485 143.282 453.046 141.29 452.105 139.823C451.721 139.22 451.616 138.781 451.739 138.065C451.834 137.517 451.96 136.974 452.114 136.44C452.431 135.335 452.888 134.252 453.589 133.333C455.077 131.381 457.538 130.697 459.899 131.069C462.703 131.513 465.042 133.31 467.078 135.19C467.344 135.434 467.747 135.036 467.476 134.791L467.48 134.778Z" fill="black"/>
<path d="M445.781 135.679C444.044 136.666 443.244 139.433 444.334 141.118C444.981 142.119 446.116 142.834 447.283 143.051C447.799 143.147 448.346 143.16 448.848 142.993C449.423 142.798 449.893 142.359 450.264 141.897C450.933 141.063 451.431 140.017 451.671 138.971C451.752 138.618 451.209 138.464 451.123 138.822C450.757 140.398 449.685 142.657 447.799 142.553C446.763 142.494 445.731 141.937 445.057 141.158C444.243 140.217 444.252 138.967 444.705 137.848C444.967 137.205 445.437 136.521 446.057 136.168C446.374 135.987 446.089 135.498 445.772 135.679H445.781Z" fill="black"/>
<path d="M449.929 140.312C450.291 140.312 450.296 139.746 449.929 139.746C449.563 139.746 449.563 140.312 449.929 140.312Z" fill="black"/>
<path d="M445.673 138.219C446.035 138.219 446.039 137.653 445.673 137.653C445.306 137.653 445.306 138.219 445.673 138.219Z" fill="black"/>
<path d="M438.051 135.62C438.413 135.62 438.417 135.054 438.051 135.054C437.684 135.054 437.684 135.62 438.051 135.62Z" fill="black"/>
<path d="M455.796 144.623C455.796 144.623 455.837 144.646 455.855 144.659C455.887 144.682 455.923 144.691 455.959 144.691C455.995 144.7 456.036 144.695 456.072 144.686C456.108 144.677 456.14 144.659 456.167 144.636C456.199 144.618 456.221 144.591 456.239 144.555L456.267 144.487C456.28 144.437 456.28 144.387 456.267 144.338L456.239 144.27C456.212 144.229 456.181 144.193 456.14 144.17C456.122 144.156 456.099 144.147 456.081 144.134C456.049 144.111 456.013 144.102 455.977 144.102C455.941 144.093 455.9 144.098 455.864 144.107C455.828 144.116 455.796 144.134 455.769 144.156C455.737 144.175 455.715 144.202 455.697 144.238L455.669 144.306C455.656 144.356 455.656 144.405 455.669 144.455L455.697 144.523C455.724 144.564 455.755 144.6 455.796 144.623Z" fill="black"/>
<path d="M451.707 147.308C452.069 147.308 452.073 146.742 451.707 146.742C451.341 146.742 451.341 147.308 451.707 147.308Z" fill="black"/>
<path d="M449.373 152.376C449.735 152.376 449.739 151.81 449.373 151.81C449.006 151.81 449.006 152.376 449.373 152.376Z" fill="black"/>
<path d="M445.641 144.229C445.673 144.22 445.704 144.215 445.736 144.206C445.772 144.197 445.804 144.179 445.831 144.156C445.863 144.138 445.885 144.111 445.903 144.075C445.926 144.043 445.935 144.007 445.935 143.971C445.944 143.935 445.94 143.894 445.931 143.858L445.903 143.79C445.876 143.749 445.845 143.713 445.804 143.69L445.736 143.663C445.686 143.649 445.636 143.649 445.587 143.663C445.555 143.672 445.523 143.676 445.492 143.685C445.456 143.695 445.424 143.713 445.397 143.735C445.365 143.753 445.342 143.781 445.324 143.817C445.302 143.848 445.293 143.885 445.293 143.921C445.284 143.957 445.288 143.998 445.297 144.034L445.324 144.102C445.352 144.143 445.383 144.179 445.424 144.202L445.492 144.229C445.542 144.242 445.591 144.242 445.641 144.229Z" fill="black"/>
<path d="M436.676 142.146C437.037 142.146 437.042 141.58 436.676 141.58C436.309 141.58 436.309 142.146 436.676 142.146Z" fill="black"/>
<path d="M434.871 141.661C434.871 141.661 434.848 141.702 434.835 141.72C434.812 141.752 434.803 141.788 434.803 141.824C434.794 141.86 434.798 141.901 434.807 141.937C434.816 141.974 434.835 142.005 434.857 142.033C434.875 142.064 434.902 142.087 434.939 142.105L435.006 142.132C435.056 142.146 435.106 142.146 435.156 142.132L435.224 142.105C435.264 142.078 435.3 142.046 435.323 142.005C435.337 141.987 435.346 141.965 435.359 141.946C435.382 141.915 435.391 141.879 435.391 141.842C435.4 141.806 435.395 141.765 435.386 141.729C435.377 141.693 435.359 141.661 435.337 141.634C435.319 141.602 435.291 141.58 435.255 141.562L435.187 141.534C435.138 141.521 435.088 141.521 435.038 141.534L434.97 141.562C434.93 141.589 434.893 141.62 434.871 141.661Z" fill="black"/>
<path d="M437.838 146.851C438.2 146.851 438.205 146.285 437.838 146.285C437.472 146.285 437.472 146.851 437.838 146.851Z" fill="black"/>
<path d="M437.992 130.14C438.354 130.14 438.358 129.574 437.992 129.574C437.626 129.574 437.626 130.14 437.992 130.14Z" fill="black"/>
<path d="M461.048 143.744C461.41 143.744 461.414 143.178 461.048 143.178C460.681 143.178 460.681 143.744 461.048 143.744Z" fill="black"/>
<path d="M446.134 141.702C446.496 141.702 446.5 141.136 446.134 141.136C445.768 141.136 445.768 141.702 446.134 141.702Z" fill="black"/>
<path d="M442.674 139.881C442.674 139.881 442.696 139.841 442.71 139.823C442.732 139.791 442.742 139.755 442.742 139.718C442.751 139.682 442.746 139.641 442.737 139.605C442.728 139.569 442.71 139.537 442.687 139.51C442.669 139.478 442.642 139.456 442.606 139.438L442.538 139.41C442.488 139.397 442.438 139.397 442.389 139.41L442.321 139.438C442.28 139.465 442.244 139.497 442.221 139.537C442.208 139.555 442.199 139.578 442.185 139.596C442.163 139.628 442.153 139.664 442.153 139.7C442.144 139.737 442.149 139.777 442.158 139.814C442.167 139.85 442.185 139.881 442.208 139.909C442.226 139.94 442.253 139.963 442.289 139.981L442.357 140.008C442.407 140.022 442.457 140.022 442.506 140.008L442.574 139.981C442.615 139.954 442.651 139.922 442.674 139.881Z" fill="black"/>
<path d="M447.337 146.842C446.514 146.638 445.388 146.262 444.18 145.556C442.855 144.777 441.923 143.88 441.33 143.214C440.805 142.897 440.634 142.205 440.95 141.679C441.014 141.575 441.09 141.48 441.181 141.408C441.642 141.014 442.348 141.145 442.723 141.62C443.207 142.232 443.985 143.056 445.139 143.744C446.265 144.419 447.333 144.723 448.088 144.863C448.685 144.976 449.133 145.538 449.002 146.131C448.975 146.244 448.934 146.357 448.871 146.461C448.554 146.991 447.867 147.159 447.337 146.842Z" fill="black"/>
</g>
<path d="M98.7811 152.186C98.7811 152.186 106.73 150.22 111.314 155.233C117.141 161.607 128.336 165.074 130.328 152.199C130.328 152.199 132.411 153.232 134.546 150.265C136.931 146.948 134.02 141.574 129.267 141.755C129.267 141.755 126.739 141.917 125.473 143.093C125.473 143.093 124.015 137.346 118.558 139.415C112.816 141.592 115.58 146.984 116.311 147.34C116.311 147.34 114.211 150.198 115.58 151.974C115.58 151.974 108.955 143.152 98.7766 152.186H98.7811Z" stroke="#6787EF" stroke-width="1.4" stroke-miterlimit="10"/>
<path d="M116.316 147.34C116.316 147.34 119.084 145.428 121.612 146.97C121.612 146.97 127.382 149.107 123.177 154.656C119.388 159.651 112.584 152.722 110.939 151.825C109.294 150.933 105.094 149.341 98.7811 152.186" stroke="#6787EF" stroke-width="1.4" stroke-miterlimit="10"/>
<path d="M125.478 143.094C125.478 143.094 122.785 145.154 123.81 148.404" stroke="#6787EF" stroke-width="1.4" stroke-miterlimit="10"/>
<path d="M131.492 152.325C129.227 152.632 127.252 151.122 126.695 149.571C126.053 147.782 127.689 145.627 129.102 145.352C130.516 145.072 131.22 146.276 131.22 146.276C131.22 146.276 131.96 147.367 130.855 148.593" stroke="#6787EF" stroke-width="1.4" stroke-miterlimit="10"/>
<path d="M115.585 151.974C115.585 151.974 117.573 154.449 119.718 154.151C122.107 153.822 122.616 149.359 119.477 149.932C119.477 149.932 118.483 150.22 118.59 151.23" stroke="#6787EF" stroke-width="1.4" stroke-miterlimit="10"/>
<path d="M118.295 143.711C118.295 143.711 118.893 142.196 120.418 142.323C121.92 142.444 123.2 143.824 121.242 146.605" stroke="#6787EF" stroke-width="1.4" stroke-miterlimit="10"/>
</g>
<path d="M2.40502 192.579C2.40502 192.579 14.1425 189.677 20.9098 197.078C29.5138 206.49 46.0437 211.608 48.9863 192.598C48.9863 192.598 52.0605 194.123 55.2138 189.743C58.7357 184.844 54.437 176.91 47.4195 177.177C47.4195 177.177 43.6869 177.416 41.8174 179.153C41.8174 179.153 39.6647 170.667 31.6072 173.722C23.1283 176.937 27.2097 184.898 28.2893 185.423C28.2893 185.423 25.1887 189.643 27.2097 192.266C27.2097 192.266 17.4274 179.24 2.39844 192.579H2.40502Z" stroke="#6787EF" stroke-width="1.4" stroke-miterlimit="10"/>
<path d="M28.2959 185.423C28.2959 185.423 32.3839 182.601 36.1165 184.878C36.1165 184.878 44.6349 188.032 38.4271 196.226C32.8316 203.601 22.7859 193.371 20.3568 192.046C17.9277 190.728 11.7265 188.379 2.40501 192.579" stroke="#6787EF" stroke-width="1.4" stroke-miterlimit="10"/>
<path d="M41.824 179.153C41.824 179.153 37.8478 182.195 39.3619 186.994" stroke="#6787EF" stroke-width="1.4" stroke-miterlimit="10"/>
<path d="M50.7044 192.785C47.3602 193.237 44.444 191.008 43.6211 188.718C42.6732 186.076 45.0891 182.894 47.1759 182.488C49.2627 182.075 50.3028 183.853 50.3028 183.853C50.3028 183.853 51.3956 185.463 49.763 187.274" stroke="#6787EF" stroke-width="1.4" stroke-miterlimit="10"/>
<path d="M27.2163 192.266C27.2163 192.266 30.1523 195.92 33.3187 195.481C36.8472 194.995 37.5977 188.405 32.9633 189.251C32.9633 189.251 31.4952 189.677 31.6532 191.167" stroke="#6787EF" stroke-width="1.4" stroke-miterlimit="10"/>
<path d="M31.2188 180.065C31.2188 180.065 32.1009 177.829 34.3523 178.015C36.5707 178.195 38.46 180.232 35.5701 184.338" stroke="#6787EF" stroke-width="1.4" stroke-miterlimit="10"/>
<defs>
<clipPath id="clip0_5_285">
<rect width="544" height="265" fill="white" transform="translate(70)"/>
</clipPath>
<clipPath id="clip1_5_285">
<rect width="156" height="113" fill="white" transform="translate(205 66.2729)"/>
</clipPath>
<clipPath id="clip2_5_285">
<rect width="150" height="79" fill="white" transform="translate(463.999 0.744629)"/>
</clipPath>
<clipPath id="clip3_5_285">
<rect width="56" height="55" fill="white" transform="translate(425.711 101.791)"/>
</clipPath>
</defs>
</svg>
