<svg width="26" height="26" viewBox="0 0 26 26" fill="none" xmlns="http://www.w3.org/2000/svg">
<g opacity="0.5" clip-path="url(#clip0_11_164)">
<path d="M13.7345 20.553L16.3995 17.888L19.0645 15.223L21.736 12.5515L22.4575 11.83L23.1855 11.102L23.907 10.374L24.635 9.65251L23.569 8.58651L22.503 7.51401L21.4305 6.44801L20.3645 5.38201L19.2985 4.30951L18.2325 3.24351L17.16 2.17751L16.094 1.11151L15.366 1.83301L14.6445 2.56101L13.9165 3.28901L13.1885 4.01051L10.5235 6.67551L7.85848 9.34701L5.19348 12.012" stroke="white" stroke-width="2" stroke-miterlimit="10"/>
<path d="M7.26698 18.4795L2.99648 14.209L1.84598 20.423L1.05298 24.687L5.32348 23.9005L11.5375 22.75L7.26698 18.4795Z" stroke="white" stroke-width="2" stroke-miterlimit="10"/>
<path d="M4.0625 15.275L5.1285 16.341L6.201 17.407L7.267 18.4795L8.333 19.5455L9.399 20.6115L10.4715 21.6775" stroke="white" stroke-width="2" stroke-miterlimit="10"/>
</g>
<defs>
<clipPath id="clip0_11_164">
<rect width="26" height="26" fill="white"/>
</clipPath>
</defs>
</svg>
