<svg width="59" height="54" viewBox="0 0 59 54" fill="none" xmlns="http://www.w3.org/2000/svg">
<path d="M40.5242 47.8038L33.469 43.579L34.865 7.49153C34.865 4.53193 32.4654 2.13715 29.5 2.13715C26.5345 2.13715 24.135 4.53193 24.135 7.49153L25.531 43.579L18.4758 47.8038V51.5842L29.5 49.0689L40.5242 51.5842V47.8038V47.8038Z" stroke="white" stroke-width="1.4" stroke-miterlimit="10"/>
<path d="M24.384 16.5435L2.13185 26.936V32.1322L25.0933 28.1183" stroke="white" stroke-width="1.4" stroke-miterlimit="10"/>
<path d="M10.417 22.9221L6.15369 25.0458V18.6672C6.15369 17.4924 7.10444 16.5435 8.28157 16.5435C9.45869 16.5435 10.4094 17.4924 10.4094 18.6672V22.9221H10.417Z" stroke="white" stroke-width="1.4" stroke-miterlimit="10"/>
<path d="M19.2303 18.9458V15.6549C19.2303 14.4801 18.2796 13.5312 17.1025 13.5312C15.9253 13.5312 14.9746 14.4801 14.9746 15.6549V20.934L19.2379 18.9458H19.2303Z" stroke="white" stroke-width="1.4" stroke-miterlimit="10"/>
<path d="M34.616 16.5435L56.8682 26.936V32.1322L33.9067 28.1183" stroke="white" stroke-miterlimit="10"/>
<path d="M48.583 22.9221L52.8463 25.0458V18.6672C52.8463 17.4924 51.8956 16.5435 50.7184 16.5435C49.5413 16.5435 48.5906 17.4924 48.5906 18.6672V22.9221H48.583Z" stroke="white" stroke-width="1.4" stroke-miterlimit="10"/>
<path d="M39.7697 18.9458V15.6549C39.7697 14.4801 40.7204 13.5312 41.8975 13.5312C43.0747 13.5312 44.0254 14.4801 44.0254 15.6549V20.934L39.7621 18.9458H39.7697Z" stroke="white" stroke-width="1.4" stroke-miterlimit="10"/>
</svg>
