<svg width="20" height="22" viewBox="0 0 20 22" fill="none" xmlns="http://www.w3.org/2000/svg">
<path d="M18.083 14.2L19.285 14.921C19.3591 14.9654 19.4205 15.0282 19.4631 15.1034C19.5058 15.1786 19.5282 15.2636 19.5282 15.35C19.5282 15.4364 19.5058 15.5214 19.4631 15.5966C19.4205 15.6717 19.3591 15.7346 19.285 15.779L10.515 21.041C10.3594 21.1344 10.1814 21.1838 9.99998 21.1838C9.81853 21.1838 9.64051 21.1344 9.48498 21.041L0.714977 15.779C0.640823 15.7346 0.579442 15.6717 0.536823 15.5966C0.494204 15.5214 0.471802 15.4364 0.471802 15.35C0.471802 15.2636 0.494204 15.1786 0.536823 15.1034C0.579442 15.0282 0.640823 14.9654 0.714977 14.921L1.91698 14.2L9.99998 19.05L18.083 14.2ZM18.083 9.49999L19.285 10.221C19.3591 10.2654 19.4205 10.3282 19.4631 10.4034C19.5058 10.4786 19.5282 10.5636 19.5282 10.65C19.5282 10.7364 19.5058 10.8214 19.4631 10.8966C19.4205 10.9717 19.3591 11.0346 19.285 11.079L9.99998 16.65L0.714977 11.079C0.640823 11.0346 0.579442 10.9717 0.536823 10.8966C0.494204 10.8214 0.471802 10.7364 0.471802 10.65C0.471802 10.5636 0.494204 10.4786 0.536823 10.4034C0.579442 10.3282 0.640823 10.2654 0.714977 10.221L1.91698 9.49999L9.99998 14.35L18.083 9.49999ZM10.514 0.308993L19.285 5.57099C19.3591 5.61539 19.4205 5.67824 19.4631 5.75343C19.5058 5.82862 19.5282 5.91357 19.5282 5.99999C19.5282 6.08642 19.5058 6.17137 19.4631 6.24656C19.4205 6.32174 19.3591 6.3846 19.285 6.42899L9.99998 12L0.714977 6.42899C0.640823 6.3846 0.579442 6.32174 0.536823 6.24656C0.494204 6.17137 0.471802 6.08642 0.471802 5.99999C0.471802 5.91357 0.494204 5.82862 0.536823 5.75343C0.579442 5.67824 0.640823 5.61539 0.714977 5.57099L9.48498 0.308993C9.64051 0.21555 9.81853 0.166183 9.99998 0.166183C10.1814 0.166183 10.3594 0.21555 10.515 0.308993H10.514ZM9.99998 2.33199L3.88698 5.99999L9.99998 9.66799L16.113 5.99999L9.99998 2.33199Z" fill="white"/>
</svg>
