<svg width="100" height="100" viewBox="0 0 100 100" fill="none" xmlns="http://www.w3.org/2000/svg">
<g clip-path="url(#clip0_16_448)">
<path d="M50.4926 85.481C70.0861 85.481 85.9697 69.5973 85.9697 50.0038C85.9697 30.4103 70.0861 14.5266 50.4926 14.5266C30.8991 14.5266 15.0154 30.4103 15.0154 50.0038C15.0154 69.5973 30.8991 85.481 50.4926 85.481Z" fill="#EFEFEF"/>
<path d="M84.1327 88.3722C83.7374 88.3722 83.3421 88.2172 83.0398 87.9149L64.499 69.3741C63.8944 68.7695 63.8944 67.7851 64.499 67.1805C65.1036 66.5759 66.088 66.5759 66.6926 67.1805L85.2334 85.7213C85.838 86.3259 85.838 87.3103 85.2334 87.9149C84.9311 88.2172 84.5358 88.3722 84.1405 88.3722H84.1327Z" fill="#E03131"/>
<path d="M35.3933 39.6327C34.998 39.6327 34.6027 39.4777 34.3004 39.1754L15.7518 20.6346C15.1472 20.03 15.1472 19.0456 15.7518 18.441C16.3564 17.8364 17.3408 17.8364 17.9454 18.441L36.4862 36.9818C37.0908 37.5864 37.0908 38.5708 36.4862 39.1754C36.1839 39.4777 35.7886 39.6327 35.3933 39.6327V39.6327Z" fill="#E03131"/>
<path d="M16.8524 88.3722C16.4571 88.3722 16.0618 88.2172 15.7595 87.9149C15.1549 87.3103 15.1549 86.3259 15.7595 85.7213L34.3003 67.1805C34.9049 66.5759 35.8893 66.5759 36.4939 67.1805C37.0985 67.7851 37.0985 68.7695 36.4939 69.3741L17.9453 87.9149C17.643 88.2172 17.2477 88.3722 16.8524 88.3722V88.3722Z" fill="#E03131"/>
<path d="M65.5919 39.6327C65.1966 39.6327 64.8013 39.4777 64.499 39.1754C63.8944 38.5708 63.8944 37.5864 64.499 36.9818L83.0398 18.441C83.6444 17.8364 84.6288 17.8364 85.2334 18.441C85.838 19.0456 85.838 20.03 85.2334 20.6346L66.6926 39.1754C66.3903 39.4777 65.995 39.6327 65.5996 39.6327H65.5919Z" fill="#E03131"/>
<path d="M58.0422 19.0999C58.0422 14.9298 54.6627 11.5503 50.4925 11.5503C46.3224 11.5503 42.9429 14.9298 42.9429 19.0999C42.9429 23.2701 46.3224 26.6496 50.4925 26.6496C54.6627 26.6496 58.0422 23.2701 58.0422 19.0999Z" fill="white"/>
<path d="M50.4925 28.1998C45.4775 28.1998 41.3926 24.1149 41.3926 19.0999C41.3926 14.0849 45.4775 10 50.4925 10C55.5075 10 59.5924 14.0849 59.5924 19.0999C59.5924 24.1149 55.5075 28.1998 50.4925 28.1998ZM50.4925 13.1005C47.1827 13.1005 44.4931 15.7901 44.4931 19.0999C44.4931 22.4097 47.1827 25.0993 50.4925 25.0993C53.8022 25.0993 56.4919 22.4097 56.4919 19.0999C56.4919 15.7901 53.8022 13.1005 50.4925 13.1005Z" fill="#4D4846"/>
<path d="M52.6629 31.812H48.3144C41.5477 31.812 36.0598 37.2999 36.0598 44.0666V49.0817H64.9175V44.0666C64.9175 37.2999 59.4296 31.812 52.6629 31.812V31.812Z" fill="white"/>
<path d="M64.9175 50.6318H36.0676C35.2149 50.6318 34.5173 49.9342 34.5173 49.0816V44.0666C34.5173 36.4549 40.7105 30.2617 48.3222 30.2617H52.6706C60.2823 30.2617 66.4755 36.4549 66.4755 44.0666V49.0816C66.4755 49.9342 65.7779 50.6318 64.9252 50.6318H64.9175ZM37.6101 47.5314H63.3673V44.0666C63.3673 38.1679 58.5615 33.3622 52.6629 33.3622H48.3144C42.4158 33.3622 37.6101 38.1679 37.6101 44.0666V47.5314V47.5314Z" fill="#4D4846"/>
<path d="M15.5503 47.0662L24.5417 62.6383H76.4436L85.435 47.0662H15.5503Z" fill="white"/>
<path d="M76.4436 64.1885H24.5416C23.9913 64.1885 23.4797 63.8939 23.2007 63.4134L14.2093 47.8412C13.9302 47.3607 13.9302 46.7716 14.2093 46.291C14.4883 45.8104 14.9999 45.5159 15.5502 45.5159H85.4349C85.9853 45.5159 86.4968 45.8104 86.7759 46.291C87.0549 46.7716 87.0549 47.3607 86.7759 47.8412L77.7845 63.4134C77.5055 63.8939 76.9939 64.1885 76.4436 64.1885ZM25.433 61.088H75.5522L82.753 48.6163H18.2321L25.433 61.088Z" fill="#4D4846"/>
<path d="M21.0924 47.8181C20.2397 47.8181 19.5421 47.1205 19.5421 46.2679V36.1991C19.5421 35.7883 19.7049 35.393 19.9994 35.1062L27.4173 27.6883C28.0219 27.0837 29.0063 27.0837 29.6109 27.6883C30.2155 28.2929 30.2155 29.2773 29.6109 29.8819L22.6503 36.8425V46.2679C22.6503 47.1205 21.9527 47.8181 21.1001 47.8181H21.0924Z" fill="#4D4846"/>
<path d="M79.9006 47.8181C79.048 47.8181 78.3504 47.1205 78.3504 46.2679V36.8425L71.3898 29.8819C70.7853 29.2773 70.7853 28.2929 71.3898 27.6883C71.9944 27.0837 72.9788 27.0837 73.5834 27.6883L81.0013 35.1062C81.2881 35.4007 81.4586 35.7883 81.4586 36.1991V46.2679C81.4586 47.1205 80.761 47.8181 79.9084 47.8181H79.9006Z" fill="#4D4846"/>
<path d="M67.1809 71.7615C67.1809 62.5454 59.7088 55.0732 50.4926 55.0732C41.2765 55.0732 33.8043 62.5454 33.8043 71.7615C33.8043 80.9777 41.2765 88.4499 50.4926 88.4499C59.7088 88.4499 67.1809 80.9777 67.1809 71.7615Z" fill="white"/>
<path d="M50.4926 90C40.4393 90 32.254 81.8148 32.254 71.7615C32.254 61.7082 40.4393 53.5229 50.4926 53.5229C60.5459 53.5229 68.7311 61.7082 68.7311 71.7615C68.7311 81.8148 60.5459 90 50.4926 90ZM50.4926 56.6234C42.1445 56.6234 35.3545 63.4135 35.3545 71.7615C35.3545 80.1095 42.1445 86.8996 50.4926 86.8996C58.8406 86.8996 65.6306 80.1095 65.6306 71.7615C65.6306 63.4135 58.8406 56.6234 50.4926 56.6234Z" fill="#4D4846"/>
<path d="M54.6861 82.6055C54.035 82.6055 53.4536 82.2024 53.2288 81.5901L50.4849 74.1644L47.741 81.5901C47.5162 82.2024 46.9349 82.6055 46.2838 82.6055C45.6327 82.6055 45.0513 82.2024 44.8265 81.5901L39.1759 66.266C38.8814 65.4599 39.2922 64.5685 40.0906 64.2739C40.8967 63.9716 41.7881 64.3902 42.0826 65.1886L46.2838 76.5673L49.0277 69.1417C49.2525 68.5293 49.8338 68.1263 50.4849 68.1263C51.136 68.1263 51.7174 68.5293 51.9421 69.1417L54.6861 76.5673L58.8872 65.1886C59.1817 64.3825 60.0731 63.9716 60.8793 64.2739C61.6854 64.5685 62.0962 65.4599 61.7939 66.266L56.1433 81.5901C55.9185 82.2024 55.3372 82.6055 54.6861 82.6055Z" fill="#4D4846"/>
<path d="M42.4391 74.8619H40.0905C39.2379 74.8619 38.5403 74.1643 38.5403 73.3117C38.5403 72.4591 39.2379 71.7615 40.0905 71.7615H42.4391C43.2918 71.7615 43.9894 72.4591 43.9894 73.3117C43.9894 74.1643 43.2918 74.8619 42.4391 74.8619Z" fill="#4D4846"/>
<path d="M60.9025 74.8619H58.5539C57.7013 74.8619 57.0037 74.1643 57.0037 73.3117C57.0037 72.4591 57.7013 71.7615 58.5539 71.7615H60.9025C61.7551 71.7615 62.4527 72.4591 62.4527 73.3117C62.4527 74.1643 61.7551 74.8619 60.9025 74.8619Z" fill="#4D4846"/>
</g>
<defs>
<clipPath id="clip0_16_448">
<rect width="72.9852" height="80" fill="white" transform="translate(14 10)"/>
</clipPath>
</defs>
</svg>
