<svg width="43" height="33" viewBox="0 0 43 33" fill="none" xmlns="http://www.w3.org/2000/svg">
<path d="M12.8304 0.595999L12.1461 0.181641L3.04612 15.2106C1.29453 17.0118 0.21582 19.4707 0.21582 22.1816C0.21582 27.7045 4.69297 32.1816 10.2158 32.1816C15.7387 32.1816 20.2158 27.7045 20.2158 22.1816C20.2158 16.6588 15.7387 12.1816 10.2158 12.1816C8.25558 12.1816 6.42707 12.7457 4.88372 13.7203L12.8304 0.595999Z" fill="white" fill-opacity="0.3"/>
<path d="M35.2304 0.595999L34.5461 0.181641L25.4461 15.2106C23.6945 17.0118 22.6158 19.4707 22.6158 22.1816C22.6158 27.7045 27.093 32.1816 32.6158 32.1816C38.1387 32.1816 42.6158 27.7045 42.6158 22.1816C42.6158 16.6588 38.1387 12.1816 32.6158 12.1816C30.6556 12.1816 28.8271 12.7457 27.2837 13.7203L35.2304 0.595999Z" fill="white" fill-opacity="0.3"/>
</svg>
